<?xml version="1.0" encoding="UTF-8" standalone="no"?>
<!-- Created with Inkscape (http://www.inkscape.org/) -->

<svg
   xmlns:dc="http://purl.org/dc/elements/1.1/"
   xmlns:cc="http://creativecommons.org/ns#"
   xmlns:rdf="http://www.w3.org/1999/02/22-rdf-syntax-ns#"
   xmlns:svg="http://www.w3.org/2000/svg"
   xmlns="http://www.w3.org/2000/svg"
   xmlns:sodipodi="http://sodipodi.sourceforge.net/DTD/sodipodi-0.dtd"
   xmlns:inkscape="http://www.inkscape.org/namespaces/inkscape"
   width="59.857651mm"
   height="46.149223mm"
   viewBox="0 0 212.09404 163.52087"
   id="svg2"
   version="1.1"
   inkscape:version="0.91 r13725"
   sodipodi:docname="logo.svg">
  <defs
     id="defs4" />
  <sodipodi:namedview
     id="base"
     pagecolor="#ffffff"
     bordercolor="#666666"
     borderopacity="1.0"
     inkscape:pageopacity="0.0"
     inkscape:pageshadow="2"
     inkscape:zoom="1.979899"
     inkscape:cx="145.07826"
     inkscape:cy="78.987322"
     inkscape:document-units="px"
     inkscape:current-layer="layer1"
     showgrid="false"
     fit-margin-top="0"
     fit-margin-left="0"
     fit-margin-right="0"
     fit-margin-bottom="0"
     inkscape:window-width="1920"
     inkscape:window-height="1029"
     inkscape:window-x="0"
     inkscape:window-y="25"
     inkscape:window-maximized="1" />
  <metadata
     id="metadata7">
    <rdf:RDF>
      <cc:Work
         rdf:about="">
        <dc:format>image/svg+xml</dc:format>
        <dc:type
           rdf:resource="http://purl.org/dc/dcmitype/StillImage" />
        <dc:title></dc:title>
      </cc:Work>
    </rdf:RDF>
  </metadata>
  <g
     inkscape:label="Layer 1"
     inkscape:groupmode="layer"
     id="layer1"
     transform="translate(-310.24691,-1045.812)">
    <path
       style="fill:#000000"
       d="m 387.95678,1118.3881 c 0.0588,-0.5474 0.16766,-1.2542 0.24203,-1.5707 0.0744,-0.3164 0.20864,-11.7095 0.29838,-25.318 0.15975,-24.2263 0.17344,-24.7842 0.65601,-26.7403 1.23462,-5.0046 3.42446,-8.8841 6.87474,-12.1793 3.21378,-3.0693 6.56184,-4.9692 10.83901,-6.1507 l 2.23393,-0.6171 46.37796,0 46.37795,0 2.04868,0.5414 c 9.02686,2.3859 15.30211,8.6581 17.91931,17.9108 0.50237,1.776 0.50983,2.0196 0.51317,16.7628 l 0.003,14.9606 -0.63927,2.2884 c -2.30788,8.2614 -8.03179,14.4005 -15.88422,17.0365 -3.94148,1.3231 -1.82591,1.2728 -53.6254,1.2738 -51.10031,10e-4 -50.03142,-0.021 -57.13157,1.1695 -2.69355,0.4516 -6.05826,1.1804 -6.82776,1.479 -0.33025,0.1281 -0.36842,0.011 -0.27636,-0.8467 z m 5.83822,-1.9048 c 7.60438,-1.3116 6.03745,-1.2769 57.70697,-1.2779 51.79949,0 49.68392,0.049 53.6254,-1.2739 7.69974,-2.5847 12.9176,-8.1983 15.19373,-16.346 l 0.63927,-2.2884 -0.004,-14.2701 c -0.004,-14.0265 -0.0125,-14.3009 -0.51318,-16.0724 -1.25434,-4.4376 -3.4618,-8.4335 -6.13651,-11.1082 -2.71311,-2.7131 -6.84357,-4.9891 -11.09195,-6.112 l -2.04868,-0.5414 -45.68746,0 -45.68747,0 -2.23392,0.6171 c -8.90591,2.4602 -14.80664,8.5765 -17.01784,17.6395 -0.45905,1.8814 -0.49236,2.7146 -0.57218,14.3115 -0.23476,34.1085 -0.22155,37.5179 0.14496,37.4045 0.18988,-0.059 1.84706,-0.3657 3.68261,-0.6823 z m 24.85767,-31.8276 c 0,-4.1478 0.0895,-6.4664 0.26982,-6.9893 0.41446,-1.2017 1.10434,-2.0039 2.16494,-2.5173 0.92681,-0.4487 1.31873,-0.4651 9.60203,-0.4021 l 8.63579,0.066 0.88418,0.7149 c 1.73809,1.4053 1.80484,1.6683 1.80484,7.1106 l 0,4.8335 -0.63286,0.9734 c -1.21065,1.8623 -1.10618,1.845 -11.91661,1.9727 -5.25043,0.062 -9.61009,0 -9.95821,0.089 l -0.85392,0.3554 0,-6.2069 z m 20.5047,3.7872 c 1.26683,-0.8538 1.3537,-1.2296 1.35744,-5.8737 0.004,-4.5509 -0.12229,-5.147 -1.24264,-5.8811 -0.5113,-0.335 -1.56601,-0.3795 -9.01116,-0.3795 l -8.43209,0 -0.78255,0.7826 -0.78256,0.7826 0,5.5469 0,5.5469 9.05743,0 c 9.04707,0 9.05831,-6e-4 9.83613,-0.5247 z m 4.58312,-9.6914 0,-12.1097 0.80558,0 0.80557,0 0,4.3731 c 0,2.4052 0.0391,4.3731 0.087,4.3731 0.0478,0 0.47002,-0.16 0.93818,-0.3557 0.72674,-0.3036 2.10754,-0.3457 9.44378,-0.2877 l 8.59259,0.068 0.85991,0.6962 c 1.62441,1.3153 1.71394,1.6865 1.71394,7.1055 0,4.7445 -0.009,4.8318 -0.58534,5.8156 -1.11684,1.9058 -1.05086,1.8945 -11.76637,2.0048 -5.16931,0.053 -9.57752,0.045 -9.98893,0.1353 l -0.90588,0.2912 0,-12.1097 z m 20.41585,9.7651 c 1.30959,-0.7985 1.44969,-1.3677 1.44969,-5.8898 0,-3.2828 -0.0722,-4.2141 -0.37628,-4.855 -0.68869,-1.4513 -0.76966,-1.4632 -9.99266,-1.4632 l -8.32034,0 -0.78256,0.7826 -0.78255,0.7826 0,5.5469 0,5.5469 9.03392,-9e-4 c 8.554,-9e-4 9.07306,-0.025 9.77078,-0.4501 z m 4.94654,-4.3129 0.0707,-6.664 0.61776,-0.9329 c 0.3718,-0.5614 1.01931,-1.1273 1.62627,-1.4211 0.96971,-0.4694 1.32226,-0.4881 9.16419,-0.4869 4.80331,7e-4 8.50115,0.097 8.99613,0.2347 0.95468,0.2652 2.39117,1.7174 2.6637,2.6928 0.0982,0.3513 0.17847,2.6584 0.17847,5.1269 0,4.3609 -0.0163,4.5173 -0.57541,5.5122 -1.12013,1.9933 -0.86906,1.9486 -11.85343,2.1116 -5.31677,0.079 -9.76821,0.095 -10.12356,0.1908 l -0.83549,0.2998 0.0707,-6.6639 z m 20.04477,4.4505 c 1.59543,-0.6753 1.65346,-0.8671 1.73312,-5.7273 0.0783,-4.7786 -0.0329,-5.3927 -1.11595,-6.1639 -0.60742,-0.4325 -1.04402,-0.4544 -9.08408,-0.4544 l -8.446,0 -0.78255,0.7826 -0.78256,0.7826 0,5.5469 0,5.5469 8.86869,0 c 6.96788,0 9.02743,-0.067 9.60933,-0.3134 z m -95.81297,-6.1311 0,-7.8256 0.80557,0 c 0.56262,0 0.80557,0.1041 0.80557,0.3452 0,0.4244 -0.0159,0.4246 1.02515,-0.01 0.72665,-0.3036 2.10574,-0.3457 9.42555,-0.2877 l 8.57436,0.068 0.84956,0.6483 c 1.06574,0.8132 1.51467,1.492 1.68631,2.5496 0.13003,0.8013 0.11045,0.8299 -0.56808,0.8299 -0.59847,0 -0.74204,-0.119 -0.96743,-0.8019 -0.14557,-0.4411 -0.53008,-1.0108 -0.85446,-1.2659 -0.56716,-0.4461 -0.9163,-0.464 -9.09782,-0.464 l -8.50803,0 -0.78255,0.7826 -0.78256,0.7826 0,6.2374 0,6.2374 -0.80557,0 -0.80557,0 0,-7.8255 z m 100.9865,7.2555 c -0.0599,-0.3135 -0.0547,-0.6242 0.0115,-0.6905 0.0663,-0.066 1.01111,-0.1205 2.09965,-0.1205 1.45849,0 2.16768,-0.1059 2.69574,-0.4027 0.39412,-0.2216 1.81726,-1.6816 3.16255,-3.2445 l 2.44597,-2.8417 -1.09467,-1.3084 c -0.60207,-0.7196 -1.66432,-1.9931 -2.36057,-2.8301 -0.69624,-0.837 -1.50381,-1.6365 -1.79459,-1.7767 -0.29079,-0.1401 -1.55956,-0.2549 -2.81951,-0.2549 l -2.2908,0 0,-0.8055 0,-0.8056 2.35917,0.01 c 3.33424,0.01 3.69521,0.2084 6.5148,3.633 1.25893,1.529 2.36002,2.786 2.44687,2.7933 0.0869,0.01 1.21219,-1.2038 2.50076,-2.6912 3.06442,-3.5374 3.43393,-3.7402 6.81423,-3.7402 l 2.61069,0 0,0.8056 0,0.8055 -2.5399,0 c -1.91684,0 -2.67474,0.088 -3.08959,0.3602 -0.46914,0.3074 -1.41395,1.3587 -4.68652,5.2148 l -0.53406,0.6293 2.28667,2.7095 c 3.26594,3.8699 2.85609,3.6138 5.93968,3.7116 l 2.62372,0.083 0,0.6657 0,0.6656 -2.65606,0 c -3.51217,0 -3.78417,-0.1476 -6.65193,-3.6091 -1.23952,-1.4962 -2.37331,-2.7493 -2.51952,-2.7846 -0.14621,-0.035 -1.36447,1.2156 -2.70724,2.78 -1.47882,1.7228 -2.76108,2.9959 -3.2522,3.229 -0.58944,0.2797 -1.43803,0.3847 -3.10835,0.3847 -2.26214,0 -2.29924,-0.01 -2.40652,-0.57 z"
       id="path4180"
       inkscape:connector-curvature="0"
       sodipodi:nodetypes="ccssssccccsccssscccccccscscsccccscscccsccccssccscccscccscccccscccccsscsccscccccccscscccccsccccssccscccccccscscccccscccsscscccsccscccccccccccsccccscscccccccscccscscsccccsccccscc" />
    <g
       style="font-style:normal;font-weight:normal;font-size:38.69992828px;line-height:125%;font-family:sans-serif;letter-spacing:0px;word-spacing:0px;fill:#000000;fill-opacity:1;stroke:none;stroke-width:1px;stroke-linecap:butt;stroke-linejoin:miter;stroke-opacity:1"
       id="text4191">
      <path
         style="font-style:normal;font-variant:normal;font-weight:normal;font-stretch:normal;font-size:33.8624382px;font-family:Ubuntu;-inkscape-font-specification:Ubuntu;text-align:end;text-anchor:end"
         d="m 320.89453,1154.6914 c -6.21457,-0.044 -10.78766,6.2823 -10.13855,12.2558 -0.33483,5.4368 3.72837,11.0628 9.35535,11.1993 2.60902,0.1577 5.31451,-0.121 7.72461,-1.1738 0.0133,-3.0006 -2.39093,-0.6984 -4.11914,-0.7754 -4.22198,0.9103 -9.05826,-1.3522 -9.99219,-5.8106 -1.43961,-5.0264 -0.0563,-12.2029 5.78125,-13.5664 2.52443,-0.6153 5.199,-0.082 7.5293,0.9766 1.81481,-2.734 -2.41959,-2.6945 -4.24805,-3.0684 -0.62967,-0.045 -1.26163,-0.062 -1.89258,-0.037 z"
         id="path4198"
         inkscape:connector-curvature="0" />
      <path
         style="font-style:normal;font-variant:normal;font-weight:normal;font-stretch:normal;font-size:33.8624382px;font-family:Ubuntu;-inkscape-font-specification:Ubuntu;text-align:end;text-anchor:end"
         d="m 332.39062,1152.873 c 0.22634,7.5642 -0.4304,15.2191 0.28321,22.7344 0.26118,2.2098 5.40544,3.6095 4.21094,0.6563 -3.43828,-0.4423 -2.10426,-4.9482 -2.34571,-7.1895 0,-5.5234 0,-11.0469 0,-16.5703 -0.71614,0.1231 -1.43229,0.2461 -2.14844,0.3691 z"
         id="path4200"
         inkscape:connector-curvature="0" />
      <path
         style="font-style:normal;font-variant:normal;font-weight:normal;font-stretch:normal;font-size:33.8624382px;font-family:Ubuntu;-inkscape-font-specification:Ubuntu;text-align:end;text-anchor:end"
         d="m 347.89453,1160.6484 c -5.2732,0.076 -8.00087,5.9654 -7.03906,10.6133 0.2484,4.7494 5.22049,7.599 9.62751,6.7733 1.52855,-0.031 4.51063,-0.5238 2.89593,-2.3084 -3.52718,1.2478 -9.03206,0.9263 -10.02735,-3.5059 -0.9989,-2.2895 0.25143,-3.0706 2.66797,-2.4902 2.99682,-0.063 6.23867,0.1241 9.08789,-0.09 0.43088,-3.8609 -1.45922,-8.9204 -6.03906,-8.9707 -0.283,-0.029 -0.79908,-0.028 -1.17383,-0.022 z m 0.33008,1.6661 c 3.07331,-0.1697 4.94793,3.1166 4.60937,5.8769 -3.27343,0 -6.54687,0 -9.82031,0 0.0634,-2.894 2.048,-5.9648 5.21094,-5.8769 z"
         id="path4202"
         inkscape:connector-curvature="0" />
      <path
         style="font-style:normal;font-variant:normal;font-weight:normal;font-stretch:normal;font-size:33.8624382px;font-family:Ubuntu;-inkscape-font-specification:Ubuntu;text-align:end;text-anchor:end"
         d="m 365.01758,1160.6562 c -1.54584,0.086 -4.89662,0.1609 -3.35352,2.1602 2.82159,-0.7668 7.38591,-1.1052 8.16797,2.6094 0.17262,1.3525 0.84809,4.0089 -1.37021,2.8127 -3.59048,-0.9279 -9.52114,0.3195 -9.0751,5.0642 -0.1038,4.3089 5.04982,5.26 8.39453,4.6582 2.18151,-0.2033 5.44489,0.2539 4.3125,-2.998 -0.55064,-4.092 1.2581,-9.0148 -1.36914,-12.6016 -1.39941,-1.5774 -3.73685,-1.798 -5.70703,-1.7051 z m 1.54492,8.8711 c 1.63572,0.033 4.31896,-0.054 3.44922,2.4063 -0.12263,1.883 0.84148,4.8804 -1.94141,4.4512 -2.52379,0.3342 -6.75998,-0.016 -6.50586,-3.5098 -0.0724,-2.5616 2.90278,-3.4755 4.99805,-3.3477 z"
         id="path4204"
         inkscape:connector-curvature="0" />
      <path
         style="font-style:normal;font-variant:normal;font-weight:normal;font-stretch:normal;font-size:33.8624382px;font-family:Ubuntu;-inkscape-font-specification:Ubuntu;text-align:end;text-anchor:end"
         d="m 383.69336,1160.7266 c -1.67379,0.4414 -5.42204,-0.4207 -5.40234,1.7558 0,5.0684 0,10.1367 0,15.2051 3.999,0.9495 1.42343,-4.6755 2.14843,-7 0.58193,-2.433 -1.20056,-6.8296 0.95117,-7.959 2.70467,-0.4968 6.9099,-0.6519 7.60352,2.8164 0.79123,3.9893 0.17134,8.1054 0.36914,12.1426 4.00071,0.9506 1.42594,-4.6743 2.15039,-7 0.28061,-3.6536 -0.0115,-8.9188 -4.49414,-9.7578 -1.08958,-0.2547 -2.21549,-0.2362 -3.32617,-0.2031 z"
         id="path4206"
         inkscape:connector-curvature="0" />
      <path
         style="font-style:normal;font-variant:normal;font-weight:normal;font-stretch:normal;font-size:33.8624382px;font-family:Ubuntu;-inkscape-font-specification:Ubuntu;text-align:end;text-anchor:end"
         d="m 408.60547,1175.4453 c -1.14302,1.1991 -3.95231,0.8744 -5.75391,0.6172 -4.03945,-1.2273 -3.02977,-6.6029 -3.16992,-9.7715 1.0502,-2.4934 -1.09838,-8.086 -2.15039,-3.7109 0.55546,4.5657 -1.47827,10.4033 2.14063,14.0879 3.17516,2.3843 7.51158,1.2144 11.08203,0.6172 0,-5.4024 0,-10.8047 0,-16.2071 -3.99901,-0.9495 -1.42344,4.6755 -2.14844,7 0,2.4558 0,4.9115 0,7.3672 z"
         id="path4208"
         inkscape:connector-curvature="0" />
      <path
         style="font-style:normal;font-variant:normal;font-weight:normal;font-stretch:normal;font-size:33.8624382px;font-family:Ubuntu;-inkscape-font-specification:Ubuntu;text-align:end;text-anchor:end"
         d="m 422.3125,1160.7285 c -1.99627,0.4282 -6.01403,-0.3231 -5.13281,2.793 0,6.8105 0,13.6211 0,20.4316 3.90148,1.0044 1.48674,-4.3075 2.14843,-6.5429 -0.17213,-1.66 1.8279,0.5333 2.96876,0.4707 4.38094,1.3058 9.05592,-2.0673 9.26171,-6.6231 1.0144,-4.7836 -1.96244,-10.4181 -7.24804,-10.5117 -0.66485,-0.065 -1.33204,-0.03 -1.99805,-0.018 z m 1.00977,1.7891 c 4.34336,-0.3051 6.83981,4.4399 6.01171,8.2656 0.0621,3.5302 -3.38024,6.3863 -6.82617,5.4102 -1.87606,-0.3622 -4.03744,-1.3949 -3.17969,-3.7305 10e-6,-3.1686 0,-6.3372 0,-9.5059 1.30098,-0.3666 2.64866,-0.4513 3.99415,-0.4394 z"
         id="path4210"
         inkscape:connector-curvature="0" />
      <path
         style="font-style:normal;font-variant:normal;font-weight:normal;font-stretch:normal;font-size:33.8624382px;font-family:Ubuntu;-inkscape-font-specification:Ubuntu;text-align:end;text-anchor:end"
         d="m 442.79102,1157.0664 c 2.39408,0.7329 8.06013,-1.8062 7.38086,2 0,6.207 0,12.4141 0,18.6211 4.11662,1.0216 1.5995,-4.5906 2.28515,-7 0,-4.5404 0,-9.0807 0,-13.6211 2.33165,-0.7445 7.92376,1.7714 7.38281,-1.8457 -5.68294,0 -11.36588,0 -17.04882,0 0,0.6152 0,1.2305 0,1.8457 z"
         id="path4212"
         inkscape:connector-curvature="0" />
      <path
         style="font-style:normal;font-variant:normal;font-weight:normal;font-stretch:normal;font-size:33.8624382px;font-family:Ubuntu;-inkscape-font-specification:Ubuntu;text-align:end;text-anchor:end"
         d="m 468.56836,1160.6504 c -6.83383,0.1312 -9.25356,9.1882 -5.84766,14.1934 3.08344,5.124 11.87729,3.9741 13.46485,-1.8477 1.99859,-5.4213 -0.99891,-12.8539 -7.61719,-12.3457 z M 469,1162.416 c 4.81508,-0.081 6.36671,5.9808 5.11914,9.7793 -0.66957,4.2327 -6.73141,5.6715 -9.19141,2.209 -2.66866,-3.7874 -1.77683,-12.0292 4.07227,-11.9883 z"
         id="path4214"
         inkscape:connector-curvature="0" />
      <path
         style="font-style:normal;font-variant:normal;font-weight:normal;font-stretch:normal;font-size:33.8624382px;font-family:Ubuntu;-inkscape-font-specification:Ubuntu;text-align:end;text-anchor:end"
         d="m 488.54297,1160.6504 c -5.68683,0.086 -8.49914,6.6166 -7.00586,11.5195 0.93153,5.5236 8.42564,7.947 12.4668,4.1153 4.96105,-4.449 3.07763,-15.0262 -4.21094,-15.6075 -0.41539,-0.037 -0.83338,-0.051 -1.25,-0.027 z m 0.42969,1.7656 c 4.81616,-0.082 6.36557,5.9804 5.12109,9.7793 -0.67109,4.2323 -6.73255,5.6719 -9.19141,2.209 -2.67081,-3.7853 -1.77729,-12.0288 4.07032,-11.9883 z"
         id="path4216"
         inkscape:connector-curvature="0" />
      <path
         style="font-style:normal;font-variant:normal;font-weight:normal;font-stretch:normal;font-size:33.8624382px;font-family:Ubuntu;-inkscape-font-specification:Ubuntu;text-align:end;text-anchor:end"
         d="m 502.09961,1152.873 c 0.22633,7.5642 -0.43041,15.2191 0.2832,22.7344 0.26119,2.2098 5.40544,3.6095 4.21094,0.6563 -3.43827,-0.4423 -2.10426,-4.9482 -2.3457,-7.1895 0,-5.5234 0,-11.0469 0,-16.5703 -0.71615,0.1231 -1.43229,0.2461 -2.14844,0.3691 z"
         id="path4218"
         inkscape:connector-curvature="0" />
      <path
         style="font-style:normal;font-variant:normal;font-weight:normal;font-stretch:normal;font-size:33.8624382px;font-family:Ubuntu;-inkscape-font-specification:Ubuntu;text-align:end;text-anchor:end"
         d="m 515.59961,1160.6582 c -3.45626,-0.3184 -6.69986,3.4674 -4.70899,6.6777 1.85942,3.1093 7.52971,2.257 8.41016,6.1426 0.19443,3.3445 -4.28603,3.1428 -6.52148,2.7715 -1.76367,-1.2111 -4.0067,0.6613 -1.40489,1.4183 3.26179,0.7044 8.562,1.08 9.96739,-2.7562 1.234,-3.7861 -2.72041,-5.9271 -5.76758,-6.7187 -2.32791,-0.3103 -4.38509,-3.4904 -2.08594,-5.1641 1.99627,-1.2092 4.52119,-0.7853 6.625,-0.1 1.39944,-2.5842 -2.30694,-1.9983 -3.85547,-2.291 l -0.49978,0.015 -0.15842,0 z"
         id="path4220"
         inkscape:connector-curvature="0" />
      <path
         style="font-style:normal;font-variant:normal;font-weight:normal;font-stretch:normal;font-size:22.5px;font-family:Ubuntu;-inkscape-font-specification:Ubuntu;text-align:end;text-anchor:end"
         d="m 450.43359,1193.3105 c -2.42908,-0.062 -4.82519,1.963 -4.38281,4.5293 0.23222,2.917 3.55056,3.481 5.72852,4.4375 1.85669,0.5819 2.95153,3.1943 1.37304,4.6231 -2.04035,1.3595 -4.83314,0.841 -6.9414,-0.1192 -0.84322,1.1345 -0.15397,1.7387 1.01758,1.9083 2.67301,0.6218 6.49776,0.859 8.12109,-1.9083 1.11316,-2.3216 -0.34069,-5.1754 -2.72384,-5.8689 -1.72264,-0.9248 -4.8096,-1.2714 -4.84452,-3.7736 -0.0147,-2.2251 2.71499,-2.7355 4.44336,-2.3789 0.77485,0.1166 1.53544,0.3444 2.24609,0.6738 1.16185,-1.3738 -0.19962,-1.7861 -1.42654,-1.9449 -0.85579,-0.1838 -1.73809,-0.2186 -2.61057,-0.1782 z"
         id="path4222"
         inkscape:connector-curvature="0" />
      <path
         style="font-style:normal;font-variant:normal;font-weight:normal;font-stretch:normal;font-size:22.5px;font-family:Ubuntu;-inkscape-font-specification:Ubuntu;text-align:end;text-anchor:end"
         d="m 462.64258,1197.2754 c -3.23954,0.2126 -4.97657,3.6304 -4.59375,6.5351 -0.0496,2.7924 2.32105,5.2895 5.14433,5.1859 1.25523,0.072 2.53454,-0.088 3.71309,-0.5335 0.22078,-1.629 -0.74071,-1.0736 -1.77334,-0.8645 -2.04338,0.3893 -4.7224,-0.2523 -5.20127,-2.5867 -0.47383,-1.185 -0.1889,-1.9837 1.2793,-1.5547 2.17448,0 4.34896,0 6.52344,0 0.22646,-2.4489 -0.65766,-5.7361 -3.56641,-6.1172 -0.50373,-0.083 -1.01637,-0.1091 -1.52539,-0.064 z m 0.44531,1.2558 c 1.95519,-0.1117 3.18637,1.9717 2.97656,3.7383 -2.11588,0 -4.23177,0 -6.34765,0 0.0586,-1.8423 1.35092,-3.8058 3.37109,-3.7383 z"
         id="path4224"
         inkscape:connector-curvature="0" />
      <path
         style="font-style:normal;font-variant:normal;font-weight:normal;font-stretch:normal;font-size:22.5px;font-family:Ubuntu;-inkscape-font-specification:Ubuntu;text-align:end;text-anchor:end"
         d="m 471.11523,1194.2441 c 0.11647,4.081 -0.23438,8.1935 0.17579,12.2559 0.50977,2.8357 4.13552,2.9181 6.25586,1.9609 0.051,-1.3822 -0.59561,-1.1606 -1.55665,-0.8652 -1.40283,0.3555 -3.17959,-0.3136 -3.20507,-1.9629 -0.19153,-2.2688 -0.0202,-4.5565 -0.0781,-6.832 1.39042,-0.1701 3.4595,0.3384 4.43164,-0.25 0.43708,-1.9391 -2.37937,-0.6246 -3.5,-1.0059 -1.79467,0.2927 -0.57535,-2.4285 -0.93164,-3.5742 -0.5306,0.091 -1.0612,0.1823 -1.5918,0.2734 z"
         id="path4226"
         inkscape:connector-curvature="0" />
      <path
         style="font-style:normal;font-variant:normal;font-weight:normal;font-stretch:normal;font-size:22.5px;font-family:Ubuntu;-inkscape-font-specification:Ubuntu;text-align:end;text-anchor:end"
         d="m 489.52734,1197.2793 c -3.27712,0.1995 -5.16296,3.7769 -4.63712,6.7854 0.10523,3.1218 3.22177,5.6445 6.29728,4.8689 5.64636,-1.0787 5.4611,-10.8504 -0.26886,-11.6103 -0.45866,-0.084 -0.92803,-0.079 -1.3913,-0.044 z m 0.54883,1.3184 c 2.79198,-0.078 3.94622,3.203 3.4961,5.5273 -0.0665,2.2402 -2.28747,4.215 -4.52853,3.4233 -2.76869,-0.9466 -3.00468,-4.7016 -2.00077,-7.0229 0.53362,-1.1751 1.73163,-1.9711 3.0332,-1.9277 z"
         id="path4228"
         inkscape:connector-curvature="0" />
      <path
         style="font-style:normal;font-variant:normal;font-weight:normal;font-stretch:normal;font-size:22.5px;font-family:Ubuntu;-inkscape-font-specification:Ubuntu;text-align:end;text-anchor:end"
         d="m 502.51562,1191.8047 c -2.48587,-0.095 -4.0548,2.4079 -3.75585,4.6914 0,4.0833 0,8.1667 0,12.25 2.2635,0.7329 1.48146,-1.5797 1.59179,-3 0,-2.3151 0,-4.6302 0,-6.9453 1.42008,-0.1633 3.49544,0.3288 4.5,-0.25 0.43708,-1.9391 -2.37937,-0.6246 -3.5,-1.0059 -1.50505,0.4625 -0.9499,-1.3174 -0.91211,-2.2519 0.23141,-2.2104 2.87822,-2.6164 4.59375,-1.918 0.68531,-1.1764 -0.0283,-1.593 -1.11718,-1.5566 -0.466,-0.04 -0.93365,-0.04 -1.4004,-0.014 z"
         id="path4230"
         inkscape:connector-curvature="0" />
      <path
         style="font-style:normal;font-variant:normal;font-weight:normal;font-stretch:normal;font-size:22.5px;font-family:Ubuntu;-inkscape-font-specification:Ubuntu;text-align:end;text-anchor:end"
         d="m 518.13867,1194.127 c -2.5865,2.8308 -4.76065,6.0548 -6.39258,9.5253 -0.49452,2.0317 2.31481,0.7595 3.5,1.1114 1.26811,0.3067 4.04181,-0.8921 3.47461,1.25 -0.2577,1.3903 -0.0194,3.7407 1.52539,2.4824 0.36954,-1.2079 -0.90718,-4.0621 1,-3.7324 2.47517,-0.5588 -0.69369,-1.2611 -1,-1.711 0,-3.1334 0,-6.2669 0,-9.4004 -0.7332,0.1072 -1.673,-0.3271 -2.10742,0.4747 z m 0.58203,1.75 c 0,2.5585 0,5.1171 0,7.6757 -1.86653,0 -3.73307,0 -5.59961,0 1.40145,-3.0562 3.31278,-5.8717 5.59961,-8.3339 0,0.2194 0,0.4388 0,0.6582 z"
         id="path4232"
         inkscape:connector-curvature="0" />
    </g>
  </g>
</svg>
