  0
SECTION
  2
HEADER
  9
$ACADVER
  1
AC1014
  9
$HANDSEED
  5
FFFF
  9
$MEASUREMENT
 70
     1
  0
ENDSEC
  0
SECTION
  2
TABLES
  0
TABLE
  2
VPORT
  5
8
330
0
100
AcDbSymbolTable
 70
     4
  0
VPORT
  5
2E
330
8
100
AcDbSymbolTableRecord
100
AcDbViewportTableRecord
  2
*ACTIVE
 70
     0
 10
0.0
 20
0.0
 11
1.0
 21
1.0
 12
210.0
 22
148.5
 13
0.0
 23
0.0
 14
10.0
 24
10.0
 15
10.0
 25
10.0
 16
0.0
 26
0.0
 36
1.0
 17
0.0
 27
0.0
 37
0.0
 40
341.0
 41
1.24
 42
50.0
 43
0.0
 44
0.0
 50
0.0
 51
0.0
 71
     0
 72
   100
 73
     1
 74
     3
 75
     0
 76
     0
 77
     0
 78
     0
  0
ENDTAB
  0
TABLE
  2
LTYPE
  5
5
330
0
100
AcDbSymbolTable
 70
     1
  0
LTYPE
  5
14
330
5
100
AcDbSymbolTableRecord
100
AcDbLinetypeTableRecord
  2
BYBLOCK
 70
     0
  3

 72
    65
 73
     0
 40
0.0
  0
LTYPE
  5
15
330
5
100
AcDbSymbolTableRecord
100
AcDbLinetypeTableRecord
  2
BYLAYER
 70
     0
  3

 72
    65
 73
     0
 40
0.0
  0
LTYPE
  5
16
330
5
100
AcDbSymbolTableRecord
100
AcDbLinetypeTableRecord
  2
CONTINUOUS
 70
     0
  3
Solid line
 72
    65
 73
     0
 40
0.0
  0
ENDTAB
  0
TABLE
  2
LAYER
  5
2
100
AcDbSymbolTable
 70
2
  0
LAYER
  5
50
100
AcDbSymbolTableRecord
100
AcDbLayerTableRecord
  2
0
 70
0
  6
CONTINUOUS
  0
LAYER
  5
51
100
AcDbSymbolTableRecord
100
AcDbLayerTableRecord
  2
Layer_1
 70
0
  6
CONTINUOUS
  0
ENDTAB
  0
TABLE
  2
STYLE
  5
3
330
0
100
AcDbSymbolTable
 70
     1
  0
STYLE
  5
11
330
3
100
AcDbSymbolTableRecord
100
AcDbTextStyleTableRecord
  2
STANDARD
 70
     0
 40
0.0
 41
1.0
 50
0.0
 71
     0
 42
2.5
  3
txt
  4

  0
ENDTAB
  0
TABLE
  2
VIEW
  5
6
330
0
100
AcDbSymbolTable
 70
     0
  0
ENDTAB
  0
TABLE
  2
UCS
  5
7
330
0
100
AcDbSymbolTable
 70
     0
  0
ENDTAB
  0
TABLE
  2
APPID
  5
9
330
0
100
AcDbSymbolTable
 70
     2
  0
APPID
  5
12
330
9
100
AcDbSymbolTableRecord
100
AcDbRegAppTableRecord
  2
ACAD
 70
     0
  0
ENDTAB
  0
TABLE
  2
DIMSTYLE
  5
A
330
0
100
AcDbSymbolTable
 70
     1
  0
DIMSTYLE
105
27
330
A
100
AcDbSymbolTableRecord
100
AcDbDimStyleTableRecord
  2
ISO-25
 70
     0
  3

  4

  5

  6

  7

 40
1.0
 41
2.5
 42
0.625
 43
3.75
 44
1.25
 45
0.0
 46
0.0
 47
0.0
 48
0.0
140
2.5
141
2.5
142
0.0
143
0.03937007874016
144
1.0
145
0.0
146
1.0
147
0.625
 71
     0
 72
     0
 73
     0
 74
     0
 75
     0
 76
     0
 77
     1
 78
     8
170
     0
171
     3
172
     1
173
     0
174
     0
175
     0
176
     0
177
     0
178
     0
270
     2
271
     2
272
     2
273
     2
274
     3
340
11
275
     0
280
     0
281
     0
282
     0
283
     0
284
     8
285
     0
286
     0
287
     3
288
     0
  0
ENDTAB
  0
TABLE
  2
BLOCK_RECORD
  5
1
330
0
100
AcDbSymbolTable
 70
     1
  0
BLOCK_RECORD
  5
1F
330
1
100
AcDbSymbolTableRecord
100
AcDbBlockTableRecord
  2
*MODEL_SPACE
  0
BLOCK_RECORD
  5
1B
330
1
100
AcDbSymbolTableRecord
100
AcDbBlockTableRecord
  2
*PAPER_SPACE
  0
ENDTAB
  0
ENDSEC
  0
SECTION
  2
BLOCKS
  0
BLOCK
  5
20
330
1F
100
AcDbEntity
  8
0
100
AcDbBlockBegin
  2
*MODEL_SPACE
 70
     0
 10
0.0
 20
0.0
 30
0.0
  3
*MODEL_SPACE
  1

  0
ENDBLK
  5
21
330
1F
100
AcDbEntity
  8
0
100
AcDbBlockEnd
  0
BLOCK
  5
1C
330
1B
100
AcDbEntity
 67
     1
  8
0
100
AcDbBlockBegin
  2
*PAPER_SPACE
  1

  0
ENDBLK
  5
1D
330
1B
100
AcDbEntity
 67
     1
  8
0
100
AcDbBlockEnd
  0
ENDSEC
  0
SECTION
  2
ENTITIES
  0
LWPOLYLINE
  5
100
100
AcDbEntity
  8
Layer_1
 62
7
100
AcDbPolyline
 90
49
 70
0
 10
2.193145
 20
2.566663
 30
0.0
 10
2.199976
 20
2.610992
 30
0.0
 10
2.208397
 20
3.325522
 30
0.0
 10
2.214237
 20
3.938551
 30
0.0
 10
2.218906
 20
4.035134
 30
0.0
 10
2.226911
 20
4.080193
 30
0.0
 10
2.258233
 20
4.180409
 30
0.0
 10
2.300472
 20
4.270148
 30
0.0
 10
2.354436
 20
4.350841
 30
0.0
 10
2.420931
 20
4.423920
 30
0.0
 10
2.490017
 20
4.482898
 30
0.0
 10
2.562628
 20
4.530692
 30
0.0
 10
2.640865
 20
4.568498
 30
0.0
 10
2.726832
 20
4.597506
 30
0.0
 10
2.789879
 20
4.614922
 30
0.0
 10
4.098768
 20
4.614922
 30
0.0
 10
5.407657
 20
4.614922
 30
0.0
 10
5.465475
 20
4.599643
 30
0.0
 10
5.557319
 20
4.569301
 30
0.0
 10
5.641583
 20
4.528976
 30
0.0
 10
5.717967
 20
4.478967
 30
0.0
 10
5.786172
 20
4.419575
 30
0.0
 10
5.845897
 20
4.351099
 30
0.0
 10
5.896843
 20
4.273838
 30
0.0
 10
5.938710
 20
4.188092
 30
0.0
 10
5.971198
 20
4.094160
 30
0.0
 10
5.979429
 20
4.057607
 30
0.0
 10
5.983720
 20
3.994855
 30
0.0
 10
5.985680
 20
3.621077
 30
0.0
 10
5.985765
 20
3.198855
 30
0.0
 10
5.967724
 20
3.134272
 30
0.0
 10
5.938850
 20
3.049722
 30
0.0
 10
5.901365
 20
2.971245
 30
0.0
 10
5.855692
 20
2.899296
 30
0.0
 10
5.802259
 20
2.834332
 30
0.0
 10
5.741491
 20
2.776811
 30
0.0
 10
5.673814
 20
2.727187
 30
0.0
 10
5.599654
 20
2.685920
 30
0.0
 10
5.519436
 20
2.653464
 30
0.0
 10
5.441613
 20
2.632097
 30
0.0
 10
5.269219
 20
2.621497
 30
0.0
 10
4.006008
 20
2.617514
 30
0.0
 10
2.734149
 20
2.613600
 30
0.0
 10
2.527294
 20
2.603836
 30
0.0
 10
2.393628
 20
2.584508
 30
0.0
 10
2.200933
 20
2.542768
 30
0.0
 10
2.192564
 20
2.544283
 30
0.0
 10
2.193134
 20
2.566663
 30
0.0
 10
2.193145
 20
2.566663
 30
0.0
  0
LWPOLYLINE
  5
101
100
AcDbEntity
  8
Layer_1
 62
7
100
AcDbPolyline
 90
46
 70
0
 10
2.357913
 20
2.620421
 30
0.0
 10
2.497861
 20
2.641669
 30
0.0
 10
2.705866
 20
2.652324
 30
0.0
 10
3.986532
 20
2.656486
 30
0.0
 10
5.249743
 20
2.660462
 30
0.0
 10
5.422138
 20
2.671070
 30
0.0
 10
5.499960
 20
2.692439
 30
0.0
 10
5.578140
 20
2.723773
 30
0.0
 10
5.649601
 20
2.762958
 30
0.0
 10
5.714192
 20
2.809829
 30
0.0
 10
5.771760
 20
2.864224
 30
0.0
 10
5.822153
 20
2.925978
 30
0.0
 10
5.865219
 20
2.994927
 30
0.0
 10
5.900805
 20
3.070909
 30
0.0
 10
5.928760
 20
3.153759
 30
0.0
 10
5.946802
 20
3.218343
 30
0.0
 10
5.946689
 20
3.621077
 30
0.0
 10
5.944704
 20
3.977575
 30
0.0
 10
5.932206
 20
4.074676
 30
0.0
 10
5.900827
 20
4.165880
 30
0.0
 10
5.860645
 20
4.250082
 30
0.0
 10
5.812948
 20
4.324956
 30
0.0
 10
5.759020
 20
4.388174
 30
0.0
 10
5.694666
 20
4.442972
 30
0.0
 10
5.618749
 20
4.491250
 30
0.0
 10
5.534708
 20
4.531114
 30
0.0
 10
5.445981
 20
4.560668
 30
0.0
 10
5.388162
 20
4.575947
 30
0.0
 10
4.098761
 20
4.575947
 30
0.0
 10
2.809359
 20
4.575947
 30
0.0
 10
2.746313
 20
4.558531
 30
0.0
 10
2.656072
 20
4.527697
 30
0.0
 10
2.574008
 20
4.487423
 30
0.0
 10
2.500349
 20
4.437945
 30
0.0
 10
2.435320
 20
4.379498
 30
0.0
 10
2.379147
 20
4.312316
 30
0.0
 10
2.332057
 20
4.236633
 30
0.0
 10
2.294276
 20
4.152685
 30
0.0
 10
2.266031
 20
4.060706
 30
0.0
 10
2.253944
 20
3.961577
 30
0.0
 10
2.249883
 20
3.656803
 30
0.0
 10
2.245565
 20
2.766802
 30
0.0
 10
2.248040
 20
2.629390
 30
0.0
 10
2.253974
 20
2.601165
 30
0.0
 10
2.357906
 20
2.620421
 30
0.0
 10
2.357913
 20
2.620421
 30
0.0
  0
LWPOLYLINE
  5
102
100
AcDbEntity
  8
Layer_1
 62
7
100
AcDbPolyline
 90
20
 70
0
 10
3.059451
 20
3.518667
 30
0.0
 10
3.067066
 20
3.715920
 30
0.0
 10
3.090778
 20
3.758727
 30
0.0
 10
3.128166
 20
3.786964
 30
0.0
 10
3.185805
 20
3.798054
 30
0.0
 10
3.399156
 20
3.798312
 30
0.0
 10
3.642878
 20
3.796450
 30
0.0
 10
3.667831
 20
3.776274
 30
0.0
 10
3.696484
 20
3.749785
 30
0.0
 10
3.711694
 20
3.718660
 30
0.0
 10
3.718768
 20
3.575597
 30
0.0
 10
3.718768
 20
3.439185
 30
0.0
 10
3.700907
 20
3.411713
 30
0.0
 10
3.676848
 20
3.381348
 30
0.0
 10
3.634348
 20
3.365518
 30
0.0
 10
3.364594
 20
3.356039
 30
0.0
 10
3.083551
 20
3.353527
 30
0.0
 10
3.059451
 20
3.343497
 30
0.0
 10
3.059451
 20
3.518670
 30
0.0
 10
3.059451
 20
3.518667
 30
0.0
  0
LWPOLYLINE
  5
103
100
AcDbEntity
  8
Layer_1
 62
7
100
AcDbPolyline
 90
19
 70
0
 10
3.638140
 20
3.411784
 30
0.0
 10
3.659194
 20
3.429419
 30
0.0
 10
3.670662
 20
3.454554
 30
0.0
 10
3.676450
 20
3.577552
 30
0.0
 10
3.670814
 20
3.700936
 30
0.0
 10
3.660214
 20
3.726917
 30
0.0
 10
3.641380
 20
3.743530
 30
0.0
 10
3.587605
 20
3.752431
 30
0.0
 10
3.387065
 20
3.754240
 30
0.0
 10
3.149092
 20
3.754240
 30
0.0
 10
3.127007
 20
3.732154
 30
0.0
 10
3.104921
 20
3.710067
 30
0.0
 10
3.104921
 20
3.553521
 30
0.0
 10
3.104921
 20
3.396975
 30
0.0
 10
3.360542
 20
3.396975
 30
0.0
 10
3.586857
 20
3.398833
 30
0.0
 10
3.621410
 20
3.403230
 30
0.0
 10
3.638140
 20
3.411784
 30
0.0
 10
3.638140
 20
3.411784
 30
0.0
  0
LWPOLYLINE
  5
104
100
AcDbEntity
  8
Layer_1
 62
7
100
AcDbPolyline
 90
23
 70
0
 10
3.767485
 20
3.685296
 30
0.0
 10
3.767485
 20
4.027059
 30
0.0
 10
3.790221
 20
4.027059
 30
0.0
 10
3.812956
 20
4.027059
 30
0.0
 10
3.812956
 20
3.903640
 30
0.0
 10
3.815411
 20
3.780222
 30
0.0
 10
3.841889
 20
3.790260
 30
0.0
 10
3.905200
 20
3.798147
 30
0.0
 10
4.108413
 20
3.798380
 30
0.0
 10
4.350915
 20
3.796461
 30
0.0
 10
4.375184
 20
3.776813
 30
0.0
 10
4.402082
 20
3.751326
 30
0.0
 10
4.416561
 20
3.719977
 30
0.0
 10
4.423555
 20
3.576280
 30
0.0
 10
4.421395
 20
3.454414
 30
0.0
 10
4.407035
 20
3.412150
 30
0.0
 10
4.384379
 20
3.381057
 30
0.0
 10
4.342585
 20
3.364858
 30
0.0
 10
4.074962
 20
3.355571
 30
0.0
 10
3.793052
 20
3.351752
 30
0.0
 10
3.767486
 20
3.343534
 30
0.0
 10
3.767486
 20
3.685296
 30
0.0
 10
3.767485
 20
3.685296
 30
0.0
  0
LWPOLYLINE
  5
105
100
AcDbEntity
  8
Layer_1
 62
7
100
AcDbPolyline
 90
18
 70
0
 10
4.343666
 20
3.409704
 30
0.0
 10
4.365651
 20
3.427236
 30
0.0
 10
4.377983
 20
3.453407
 30
0.0
 10
4.384580
 20
3.575927
 30
0.0
 10
4.382488
 20
3.672396
 30
0.0
 10
4.373960
 20
3.712946
 30
0.0
 10
4.358299
 20
3.736678
 30
0.0
 10
4.323274
 20
3.748953
 30
0.0
 10
4.091945
 20
3.754240
 30
0.0
 10
3.857127
 20
3.754240
 30
0.0
 10
3.835041
 20
3.732154
 30
0.0
 10
3.812956
 20
3.710067
 30
0.0
 10
3.812956
 20
3.553521
 30
0.0
 10
3.812956
 20
3.396975
 30
0.0
 10
4.067913
 20
3.397001
 30
0.0
 10
4.288935
 20
3.398863
 30
0.0
 10
4.343666
 20
3.409704
 30
0.0
 10
4.343666
 20
3.409704
 30
0.0
  0
LWPOLYLINE
  5
106
100
AcDbEntity
  8
Layer_1
 62
7
100
AcDbPolyline
 90
20
 70
0
 10
4.483268
 20
3.531423
 30
0.0
 10
4.485264
 20
3.719496
 30
0.0
 10
4.502698
 20
3.745825
 30
0.0
 10
4.548595
 20
3.785931
 30
0.0
 10
4.605181
 20
3.797782
 30
0.0
 10
4.807229
 20
3.799673
 30
0.0
 10
5.061120
 20
3.793049
 30
0.0
 10
5.105927
 20
3.762567
 30
0.0
 10
5.136295
 20
3.717052
 30
0.0
 10
5.141332
 20
3.572360
 30
0.0
 10
5.139130
 20
3.458953
 30
0.0
 10
5.125093
 20
3.416793
 30
0.0
 10
5.103080
 20
3.384396
 30
0.0
 10
5.062224
 20
3.367625
 30
0.0
 10
4.969170
 20
3.360540
 30
0.0
 10
4.790563
 20
3.357199
 30
0.0
 10
4.504853
 20
3.351814
 30
0.0
 10
4.481274
 20
3.343353
 30
0.0
 10
4.483269
 20
3.531423
 30
0.0
 10
4.483268
 20
3.531423
 30
0.0
  0
LWPOLYLINE
  5
107
100
AcDbEntity
  8
Layer_1
 62
7
100
AcDbPolyline
 90
18
 70
0
 10
5.048976
 20
3.405820
 30
0.0
 10
5.075298
 20
3.419827
 30
0.0
 10
5.089475
 20
3.442349
 30
0.0
 10
5.097889
 20
3.567457
 30
0.0
 10
5.094433
 20
3.696848
 30
0.0
 10
5.084521
 20
3.724018
 30
0.0
 10
5.066394
 20
3.741416
 30
0.0
 10
5.016870
 20
3.752406
 30
0.0
 10
4.810021
 20
3.754240
 30
0.0
 10
4.571657
 20
3.754240
 30
0.0
 10
4.549571
 20
3.732154
 30
0.0
 10
4.527486
 20
3.710067
 30
0.0
 10
4.527486
 20
3.553521
 30
0.0
 10
4.527486
 20
3.396975
 30
0.0
 10
4.777780
 20
3.396975
 30
0.0
 10
4.980963
 20
3.398790
 30
0.0
 10
5.048976
 20
3.405820
 30
0.0
 10
5.048976
 20
3.405820
 30
0.0
  0
LWPOLYLINE
  5
108
100
AcDbEntity
  8
Layer_1
 62
7
100
AcDbPolyline
 90
30
 70
0
 10
2.344922
 20
3.578853
 30
0.0
 10
2.344922
 20
3.799709
 30
0.0
 10
2.367656
 20
3.799709
 30
0.0
 10
2.384978
 20
3.797390
 30
0.0
 10
2.390391
 20
3.789967
 30
0.0
 10
2.393840
 20
3.781017
 30
0.0
 10
2.419323
 20
3.790249
 30
0.0
 10
2.482551
 20
3.798136
 30
0.0
 10
2.685333
 20
3.798369
 30
0.0
 10
2.927321
 20
3.796450
 30
0.0
 10
2.951297
 20
3.778153
 30
0.0
 10
2.984556
 20
3.744762
 30
0.0
 10
2.998889
 20
3.706198
 30
0.0
 10
2.999430
 20
3.686007
 30
0.0
 10
2.982856
 20
3.682776
 30
0.0
 10
2.965256
 20
3.686865
 30
0.0
 10
2.955553
 20
3.705408
 30
0.0
 10
2.931439
 20
3.741134
 30
0.0
 10
2.917037
 20
3.748492
 30
0.0
 10
2.883644
 20
3.752403
 30
0.0
 10
2.674678
 20
3.754229
 30
0.0
 10
2.434562
 20
3.754229
 30
0.0
 10
2.412477
 20
3.732142
 30
0.0
 10
2.390391
 20
3.710056
 30
0.0
 10
2.390391
 20
3.534022
 30
0.0
 10
2.390391
 20
3.357989
 30
0.0
 10
2.367656
 20
3.357989
 30
0.0
 10
2.344922
 20
3.357989
 30
0.0
 10
2.344922
 20
3.578842
 30
0.0
 10
2.344922
 20
3.578853
 30
0.0
  0
LWPOLYLINE
  5
109
100
AcDbEntity
  8
Layer_1
 62
7
100
AcDbPolyline
 90
54
 70
0
 10
5.194985
 20
3.374087
 30
0.0
 10
5.195310
 20
3.393575
 30
0.0
 10
5.254566
 20
3.396975
 30
0.0
 10
5.302453
 20
3.399517
 30
0.0
 10
5.330646
 20
3.408340
 30
0.0
 10
5.419900
 20
3.499907
 30
0.0
 10
5.488931
 20
3.580107
 30
0.0
 10
5.458037
 20
3.617032
 30
0.0
 10
5.391416
 20
3.696904
 30
0.0
 10
5.340769
 20
3.747047
 30
0.0
 10
5.261196
 20
3.754240
 30
0.0
 10
5.196545
 20
3.754240
 30
0.0
 10
5.196545
 20
3.776973
 30
0.0
 10
5.196545
 20
3.799709
 30
0.0
 10
5.263126
 20
3.799427
 30
0.0
 10
5.320362
 20
3.796879
 30
0.0
 10
5.360504
 20
3.784299
 30
0.0
 10
5.397922
 20
3.753651
 30
0.0
 10
5.446988
 20
3.696896
 30
0.0
 10
5.516044
 20
3.618063
 30
0.0
 10
5.586621
 20
3.694014
 30
0.0
 10
5.639740
 20
3.752625
 30
0.0
 10
5.679434
 20
3.784230
 30
0.0
 10
5.720800
 20
3.797117
 30
0.0
 10
5.778934
 20
3.799571
 30
0.0
 10
5.852613
 20
3.799571
 30
0.0
 10
5.852613
 20
3.776835
 30
0.0
 10
5.852613
 20
3.754102
 30
0.0
 10
5.780932
 20
3.754102
 30
0.0
 10
5.721438
 20
3.751900
 30
0.0
 10
5.693737
 20
3.743937
 30
0.0
 10
5.561473
 20
3.596763
 30
0.0
 10
5.546400
 20
3.579003
 30
0.0
 10
5.610935
 20
3.502535
 30
0.0
 10
5.663775
 20
3.440480
 30
0.0
 10
5.696680
 20
3.410239
 30
0.0
 10
5.728621
 20
3.399958
 30
0.0
 10
5.778566
 20
3.397785
 30
0.0
 10
5.852613
 20
3.395443
 30
0.0
 10
5.852613
 20
3.376655
 30
0.0
 10
5.852613
 20
3.357871
 30
0.0
 10
5.777653
 20
3.357871
 30
0.0
 10
5.717885
 20
3.360048
 30
0.0
 10
5.676967
 20
3.372165
 30
0.0
 10
5.639460
 20
3.402599
 30
0.0
 10
5.589921
 20
3.459727
 30
0.0
 10
5.518815
 20
3.538315
 30
0.0
 10
5.442410
 20
3.459857
 30
0.0
 10
5.350626
 20
3.368728
 30
0.0
 10
5.318203
 20
3.360339
 30
0.0
 10
5.262901
 20
3.357871
 30
0.0
 10
5.206137
 20
3.359987
 30
0.0
 10
5.194984
 20
3.373957
 30
0.0
 10
5.194985
 20
3.374087
 30
0.0
  0
LWPOLYLINE
  5
10a
100
AcDbEntity
  8
Layer_1
 62
7
100
AcDbPolyline
 90
47
 70
0
 10
0.300499
 20
1.542104
 30
0.0
 10
0.237098
 20
1.534513
 30
0.0
 10
0.179223
 20
1.512290
 30
0.0
 10
0.128060
 20
1.477660
 30
0.0
 10
0.084793
 20
1.432846
 30
0.0
 10
0.050606
 20
1.380071
 30
0.0
 10
0.026683
 20
1.321559
 30
0.0
 10
0.014208
 20
1.259533
 30
0.0
 10
0.014367
 20
1.196218
 30
0.0
 10
0.016485
 20
1.138741
 30
0.0
 10
0.029303
 20
1.082642
 30
0.0
 10
0.051882
 20
1.029798
 30
0.0
 10
0.083286
 20
0.982088
 30
0.0
 10
0.122576
 20
0.941390
 30
0.0
 10
0.168816
 20
0.909582
 30
0.0
 10
0.221069
 20
0.888542
 30
0.0
 10
0.278396
 20
0.880149
 30
0.0
 10
0.389504
 20
0.883901
 30
0.0
 10
0.496402
 20
0.913276
 30
0.0
 10
0.493515
 20
0.938441
 30
0.0
 10
0.485254
 20
0.952115
 30
0.0
 10
0.456707
 20
0.955159
 30
0.0
 10
0.418944
 20
0.942732
 30
0.0
 10
0.380150
 20
0.935159
 30
0.0
 10
0.289526
 20
0.932250
 30
0.0
 10
0.204351
 20
0.960335
 30
0.0
 10
0.167541
 20
0.985192
 30
0.0
 10
0.136575
 20
1.016829
 30
0.0
 10
0.112946
 20
1.054922
 30
0.0
 10
0.098148
 20
1.099147
 30
0.0
 10
0.083334
 20
1.213406
 30
0.0
 10
0.088479
 20
1.272484
 30
0.0
 10
0.102712
 20
1.329350
 30
0.0
 10
0.126571
 20
1.381371
 30
0.0
 10
0.160598
 20
1.425912
 30
0.0
 10
0.205330
 20
1.460340
 30
0.0
 10
0.261308
 20
1.482021
 30
0.0
 10
0.315318
 20
1.489242
 30
0.0
 10
0.369609
 20
1.485956
 30
0.0
 10
0.473802
 20
1.454460
 30
0.0
 10
0.485472
 20
1.479901
 30
0.0
 10
0.483933
 20
1.499058
 30
0.0
 10
0.471982
 20
1.512985
 30
0.0
 10
0.452415
 20
1.522736
 30
0.0
 10
0.353912
 20
1.541057
 30
0.0
 10
0.300499
 20
1.542101
 30
0.0
 10
0.300499
 20
1.542104
 30
0.0
  0
LWPOLYLINE
  5
10b
100
AcDbEntity
  8
Layer_1
 62
7
100
AcDbPolyline
 90
18
 70
0
 10
0.624945
 20
1.593423
 30
0.0
 10
0.623784
 20
1.272098
 30
0.0
 10
0.624091
 20
1.111519
 30
0.0
 10
0.632938
 20
0.951808
 30
0.0
 10
0.641543
 20
0.929688
 30
0.0
 10
0.659357
 20
0.910883
 30
0.0
 10
0.707765
 20
0.887905
 30
0.0
 10
0.730935
 20
0.886075
 30
0.0
 10
0.748469
 20
0.892248
 30
0.0
 10
0.756654
 20
0.907594
 30
0.0
 10
0.751780
 20
0.933285
 30
0.0
 10
0.721355
 20
0.942993
 30
0.0
 10
0.701457
 20
0.961360
 30
0.0
 10
0.684846
 20
1.015698
 30
0.0
 10
0.685578
 20
1.136189
 30
0.0
 10
0.685578
 20
1.603840
 30
0.0
 10
0.624945
 20
1.593423
 30
0.0
 10
0.624945
 20
1.593423
 30
0.0
  0
LWPOLYLINE
  5
10c
100
AcDbEntity
  8
Layer_1
 62
7
100
AcDbPolyline
 90
41
 70
0
 10
1.062499
 20
1.373984
 30
0.0
 10
1.010122
 20
1.365878
 30
0.0
 10
0.964858
 20
1.344724
 30
0.0
 10
0.927086
 20
1.312855
 30
0.0
 10
0.897183
 20
1.272604
 30
0.0
 10
0.875529
 20
1.226306
 30
0.0
 10
0.862502
 20
1.176292
 30
0.0
 10
0.858480
 20
1.124897
 30
0.0
 10
0.863842
 20
1.074453
 30
0.0
 10
0.872428
 20
1.026800
 30
0.0
 10
0.891763
 20
0.984760
 30
0.0
 10
0.920099
 20
0.948921
 30
0.0
 10
0.955684
 20
0.919871
 30
0.0
 10
0.996772
 20
0.898196
 30
0.0
 10
1.041611
 20
0.884484
 30
0.0
 10
1.088454
 20
0.879321
 30
0.0
 10
1.135551
 20
0.883295
 30
0.0
 10
1.172929
 20
0.886761
 30
0.0
 10
1.209682
 20
0.897311
 30
0.0
 10
1.229802
 20
0.917139
 30
0.0
 10
1.228622
 20
0.931220
 30
0.0
 10
1.217281
 20
0.948444
 30
0.0
 10
1.135018
 20
0.931457
 30
0.0
 10
1.048988
 20
0.937802
 30
0.0
 10
1.009925
 20
0.951826
 30
0.0
 10
0.976356
 20
0.974205
 30
0.0
 10
0.950428
 20
1.005778
 30
0.0
 10
0.934287
 20
1.047388
 30
0.0
 10
0.924568
 20
1.087932
 30
0.0
 10
0.935788
 20
1.112900
 30
0.0
 10
0.965082
 20
1.122683
 30
0.0
 10
1.009583
 20
1.117667
 30
0.0
 10
1.266063
 20
1.120207
 30
0.0
 10
1.262739
 20
1.205534
 30
0.0
 10
1.233876
 20
1.287122
 30
0.0
 10
1.209562
 20
1.321381
 30
0.0
 10
1.178497
 20
1.348546
 30
0.0
 10
1.140560
 20
1.366563
 30
0.0
 10
1.095628
 20
1.373380
 30
0.0
 10
1.062499
 20
1.374001
 30
0.0
 10
1.062499
 20
1.373984
 30
0.0
  0
LWPOLYLINE
  5
10d
100
AcDbEntity
  8
Layer_1
 62
7
100
AcDbPolyline
 90
12
 70
0
 10
1.071815
 20
1.326963
 30
0.0
 10
1.102699
 20
1.324406
 30
0.0
 10
1.130076
 20
1.314023
 30
0.0
 10
1.172967
 20
1.275042
 30
0.0
 10
1.197804
 20
1.220557
 30
0.0
 10
1.201902
 20
1.161104
 30
0.0
 10
0.924751
 20
1.161104
 30
0.0
 10
0.935932
 20
1.221825
 30
0.0
 10
0.965479
 20
1.275592
 30
0.0
 10
1.011429
 20
1.313579
 30
0.0
 10
1.071815
 20
1.326963
 30
0.0
 10
1.071815
 20
1.326963
 30
0.0
  0
LWPOLYLINE
  5
10e
100
AcDbEntity
  8
Layer_1
 62
7
100
AcDbPolyline
 90
41
 70
0
 10
1.545750
 20
1.373764
 30
0.0
 10
1.465737
 20
1.363530
 30
0.0
 10
1.441387
 20
1.345787
 30
0.0
 10
1.440880
 20
1.331518
 30
0.0
 10
1.451106
 20
1.312798
 30
0.0
 10
1.517615
 20
1.325163
 30
0.0
 10
1.587950
 20
1.323405
 30
0.0
 10
1.619984
 20
1.314232
 30
0.0
 10
1.647493
 20
1.297932
 30
0.0
 10
1.668649
 20
1.273306
 30
0.0
 10
1.681624
 20
1.239155
 30
0.0
 10
1.687593
 20
1.172491
 30
0.0
 10
1.676093
 20
1.152568
 30
0.0
 10
1.642954
 20
1.159774
 30
0.0
 10
1.558416
 20
1.167321
 30
0.0
 10
1.472175
 20
1.148348
 30
0.0
 10
1.435622
 20
1.127823
 30
0.0
 10
1.407293
 20
1.099357
 30
0.0
 10
1.390069
 20
1.062512
 30
0.0
 10
1.386835
 20
1.016851
 30
0.0
 10
1.392302
 20
0.975592
 30
0.0
 10
1.409342
 20
0.942619
 30
0.0
 10
1.435618
 20
0.917336
 30
0.0
 10
1.468794
 20
0.899147
 30
0.0
 10
1.546494
 20
0.881662
 30
0.0
 10
1.623747
 20
0.885387
 30
0.0
 10
1.673232
 20
0.888122
 30
0.0
 10
1.719673
 20
0.895427
 30
0.0
 10
1.737224
 20
0.904407
 30
0.0
 10
1.748579
 20
0.918865
 30
0.0
 10
1.751926
 20
0.940247
 30
0.0
 10
1.745455
 20
0.969997
 30
0.0
 10
1.743289
 20
1.060052
 30
0.0
 10
1.748113
 20
1.153166
 30
0.0
 10
1.741948
 20
1.243607
 30
0.0
 10
1.729126
 20
1.286034
 30
0.0
 10
1.706815
 20
1.325642
 30
0.0
 10
1.672806
 20
1.352311
 30
0.0
 10
1.632323
 20
1.367380
 30
0.0
 10
1.545750
 20
1.373764
 30
0.0
 10
1.545750
 20
1.373764
 30
0.0
  0
LWPOLYLINE
  5
10f
100
AcDbEntity
  8
Layer_1
 62
7
100
AcDbPolyline
 90
20
 70
0
 10
1.589351
 20
1.123402
 30
0.0
 10
1.627488
 20
1.122162
 30
0.0
 10
1.664540
 20
1.115135
 30
0.0
 10
1.688333
 20
1.095264
 30
0.0
 10
1.686696
 20
1.055490
 30
0.0
 10
1.687455
 20
0.968208
 30
0.0
 10
1.673113
 20
0.936913
 30
0.0
 10
1.656667
 20
0.929608
 30
0.0
 10
1.631905
 20
0.929868
 30
0.0
 10
1.572158
 20
0.927500
 30
0.0
 10
1.510700
 20
0.938882
 30
0.0
 10
1.484458
 20
0.951762
 30
0.0
 10
1.463942
 20
0.970520
 30
0.0
 10
1.451204
 20
0.995969
 30
0.0
 10
1.448295
 20
1.028922
 30
0.0
 10
1.461157
 20
1.074691
 30
0.0
 10
1.495882
 20
1.104625
 30
0.0
 10
1.542077
 20
1.120327
 30
0.0
 10
1.589351
 20
1.123402
 30
0.0
 10
1.589351
 20
1.123402
 30
0.0
  0
LWPOLYLINE
  5
110
100
AcDbEntity
  8
Layer_1
 62
7
100
AcDbPolyline
 90
39
 70
0
 10
2.072822
 20
1.371777
 30
0.0
 10
1.978666
 20
1.365364
 30
0.0
 10
1.937301
 20
1.354129
 30
0.0
 10
1.924810
 20
1.341478
 30
0.0
 10
1.920356
 20
1.322224
 30
0.0
 10
1.920356
 20
0.893103
 30
0.0
 10
1.954525
 20
0.891207
 30
0.0
 10
1.974566
 20
0.903440
 30
0.0
 10
1.983743
 20
0.926537
 30
0.0
 10
1.985323
 20
0.957231
 30
0.0
 10
1.978754
 20
1.028346
 30
0.0
 10
1.980989
 20
1.090658
 30
0.0
 10
1.983573
 20
1.150241
 30
0.0
 10
1.977798
 20
1.216765
 30
0.0
 10
1.980330
 20
1.276391
 30
0.0
 10
1.989919
 20
1.299292
 30
0.0
 10
2.007834
 20
1.315279
 30
0.0
 10
2.070813
 20
1.322539
 30
0.0
 10
2.136411
 20
1.317500
 30
0.0
 10
2.191368
 20
1.291479
 30
0.0
 10
2.210712
 20
1.267887
 30
0.0
 10
2.222422
 20
1.235794
 30
0.0
 10
2.232685
 20
1.150773
 30
0.0
 10
2.233911
 20
1.064955
 30
0.0
 10
2.232840
 20
0.893103
 30
0.0
 10
2.267026
 20
0.891197
 30
0.0
 10
2.287081
 20
0.903422
 30
0.0
 10
2.296269
 20
0.926514
 30
0.0
 10
2.297858
 20
0.957206
 30
0.0
 10
2.291298
 20
1.028327
 30
0.0
 10
2.293529
 20
1.090658
 30
0.0
 10
2.294842
 20
1.173858
 30
0.0
 10
2.280522
 20
1.258139
 30
0.0
 10
2.264509
 20
1.295693
 30
0.0
 10
2.240997
 20
1.327527
 30
0.0
 10
2.208791
 20
1.351643
 30
0.0
 10
2.166694
 20
1.366045
 30
0.0
 10
2.072822
 20
1.371777
 30
0.0
 10
2.072822
 20
1.371777
 30
0.0
  0
LWPOLYLINE
  5
111
100
AcDbEntity
  8
Layer_1
 62
7
100
AcDbPolyline
 90
35
 70
0
 10
2.775897
 20
0.956382
 30
0.0
 10
2.744065
 20
0.938363
 30
0.0
 10
2.701673
 20
0.932261
 30
0.0
 10
2.613509
 20
0.938964
 30
0.0
 10
2.577096
 20
0.957090
 30
0.0
 10
2.551992
 20
0.984091
 30
0.0
 10
2.536147
 20
1.017863
 30
0.0
 10
2.527510
 20
1.056305
 30
0.0
 10
2.523662
 20
1.138792
 30
0.0
 10
2.524047
 20
1.214737
 30
0.0
 10
2.531243
 20
1.278152
 30
0.0
 10
2.515951
 20
1.339794
 30
0.0
 10
2.503423
 20
1.359146
 30
0.0
 10
2.489534
 20
1.365090
 30
0.0
 10
2.475706
 20
1.353304
 30
0.0
 10
2.463358
 20
1.319467
 30
0.0
 10
2.465049
 20
1.217606
 30
0.0
 10
2.461143
 20
1.111346
 30
0.0
 10
2.473449
 20
1.009749
 30
0.0
 10
2.492495
 20
0.963530
 30
0.0
 10
2.523771
 20
0.921875
 30
0.0
 10
2.558805
 20
0.901116
 30
0.0
 10
2.596274
 20
0.888395
 30
0.0
 10
2.675968
 20
0.881612
 30
0.0
 10
2.757753
 20
0.890605
 30
0.0
 10
2.836531
 20
0.904456
 30
0.0
 10
2.836531
 20
1.361857
 30
0.0
 10
2.802361
 20
1.363752
 30
0.0
 10
2.782321
 20
1.351519
 30
0.0
 10
2.773144
 20
1.328423
 30
0.0
 10
2.771564
 20
1.297729
 30
0.0
 10
2.778132
 20
1.226614
 30
0.0
 10
2.775897
 20
1.164301
 30
0.0
 10
2.775897
 20
0.956382
 30
0.0
 10
2.775897
 20
0.956382
 30
0.0
  0
LWPOLYLINE
  5
112
100
AcDbEntity
  8
Layer_1
 62
7
100
AcDbPolyline
 90
34
 70
0
 10
3.162740
 20
1.371723
 30
0.0
 10
3.059857
 20
1.360758
 30
0.0
 10
3.022100
 20
1.340617
 30
0.0
 10
3.014654
 20
1.321039
 30
0.0
 10
3.017881
 20
1.292899
 30
0.0
 10
3.017881
 20
0.716273
 30
0.0
 10
3.051333
 20
0.713482
 30
0.0
 10
3.071181
 20
0.724295
 30
0.0
 10
3.080529
 20
0.745608
 30
0.0
 10
3.082485
 20
0.774313
 30
0.0
 10
3.076646
 20
0.841475
 30
0.0
 10
3.078514
 20
0.900929
 30
0.0
 10
3.085028
 20
0.918369
 30
0.0
 10
3.106511
 20
0.911192
 30
0.0
 10
3.134941
 20
0.895563
 30
0.0
 10
3.162299
 20
0.887644
 30
0.0
 10
3.208791
 20
0.879822
 30
0.0
 10
3.254485
 20
0.883222
 30
0.0
 10
3.297806
 20
0.896690
 30
0.0
 10
3.337179
 20
0.919068
 30
0.0
 10
3.371029
 20
0.949201
 30
0.0
 10
3.397780
 20
0.985932
 30
0.0
 10
3.415857
 20
1.028105
 30
0.0
 10
3.423685
 20
1.074563
 30
0.0
 10
3.429234
 20
1.125963
 30
0.0
 10
3.424778
 20
1.177500
 30
0.0
 10
3.410876
 20
1.227061
 30
0.0
 10
3.388082
 20
1.272531
 30
0.0
 10
3.356955
 20
1.311796
 30
0.0
 10
3.318049
 20
1.342743
 30
0.0
 10
3.271922
 20
1.363258
 30
0.0
 10
3.219129
 20
1.371227
 30
0.0
 10
3.162740
 20
1.371735
 30
0.0
 10
3.162740
 20
1.371723
 30
0.0
  0
LWPOLYLINE
  5
113
100
AcDbEntity
  8
Layer_1
 62
7
100
AcDbPolyline
 90
22
 70
0
 10
3.191238
 20
1.321231
 30
0.0
 10
3.234680
 20
1.318108
 30
0.0
 10
3.272748
 20
1.303598
 30
0.0
 10
3.304951
 20
1.279674
 30
0.0
 10
3.330801
 20
1.248312
 30
0.0
 10
3.361489
 20
1.171167
 30
0.0
 10
3.365349
 20
1.129333
 30
0.0
 10
3.360902
 20
1.087957
 30
0.0
 10
3.357116
 20
1.051662
 30
0.0
 10
3.345216
 20
1.018195
 30
0.0
 10
3.301704
 20
0.963922
 30
0.0
 10
3.239628
 20
0.933495
 30
0.0
 10
3.204524
 20
0.929835
 30
0.0
 10
3.168252
 20
0.935269
 30
0.0
 10
3.128489
 20
0.946763
 30
0.0
 10
3.094450
 20
0.967026
 30
0.0
 10
3.074877
 20
0.997731
 30
0.0
 10
3.078514
 20
1.040552
 30
0.0
 10
3.078514
 20
1.308830
 30
0.0
 10
3.134405
 20
1.319036
 30
0.0
 10
3.191238
 20
1.321231
 30
0.0
 10
3.191238
 20
1.321231
 30
0.0
  0
LWPOLYLINE
  5
114
100
AcDbEntity
  8
Layer_1
 62
7
100
AcDbPolyline
 90
24
 70
0
 10
3.740689
 20
1.475076
 30
0.0
 10
3.804437
 20
1.472636
 30
0.0
 10
3.877368
 20
1.479379
 30
0.0
 10
3.909325
 20
1.478243
 30
0.0
 10
3.934035
 20
1.469860
 30
0.0
 10
3.948318
 20
1.451050
 30
0.0
 10
3.948994
 20
1.418631
 30
0.0
 10
3.948994
 20
0.893103
 30
0.0
 10
3.984327
 20
0.890524
 30
0.0
 10
4.005363
 20
0.902245
 30
0.0
 10
4.015353
 20
0.925011
 30
0.0
 10
4.017551
 20
0.955569
 30
0.0
 10
4.011583
 20
1.027049
 30
0.0
 10
4.013486
 20
1.090658
 30
0.0
 10
4.013486
 20
1.475076
 30
0.0
 10
4.075950
 20
1.477724
 30
0.0
 10
4.148067
 20
1.470719
 30
0.0
 10
4.179979
 20
1.471364
 30
0.0
 10
4.204983
 20
1.478915
 30
0.0
 10
4.219974
 20
1.496480
 30
0.0
 10
4.221845
 20
1.527166
 30
0.0
 10
3.740689
 20
1.527166
 30
0.0
 10
3.740689
 20
1.475076
 30
0.0
 10
3.740689
 20
1.475076
 30
0.0
  0
LWPOLYLINE
  5
115
100
AcDbEntity
  8
Layer_1
 62
7
100
AcDbPolyline
 90
26
 70
0
 10
4.468183
 20
1.373927
 30
0.0
 10
4.401776
 20
1.361446
 30
0.0
 10
4.347514
 20
1.329641
 30
0.0
 10
4.305865
 20
1.282803
 30
0.0
 10
4.277296
 20
1.225226
 30
0.0
 10
4.262273
 20
1.161201
 30
0.0
 10
4.261262
 20
1.095020
 30
0.0
 10
4.274732
 20
1.030975
 30
0.0
 10
4.303149
 20
0.973358
 30
0.0
 10
4.342625
 20
0.927341
 30
0.0
 10
4.392937
 20
0.897393
 30
0.0
 10
4.449814
 20
0.882986
 30
0.0
 10
4.508985
 20
0.883588
 30
0.0
 10
4.566176
 20
0.898671
 30
0.0
 10
4.617116
 20
0.927705
 30
0.0
 10
4.657534
 20
0.970159
 30
0.0
 10
4.683157
 20
1.025504
 30
0.0
 10
4.697775
 20
1.084992
 30
0.0
 10
4.699629
 20
1.146510
 30
0.0
 10
4.689175
 20
1.206766
 30
0.0
 10
4.666865
 20
1.262470
 30
0.0
 10
4.633157
 20
1.310329
 30
0.0
 10
4.588504
 20
1.347053
 30
0.0
 10
4.533361
 20
1.369349
 30
0.0
 10
4.468183
 20
1.373927
 30
0.0
 10
4.468183
 20
1.373927
 30
0.0
  0
LWPOLYLINE
  5
116
100
AcDbEntity
  8
Layer_1
 62
7
100
AcDbPolyline
 90
24
 70
0
 10
4.480365
 20
1.324098
 30
0.0
 10
4.527033
 20
1.317292
 30
0.0
 10
4.565220
 20
1.297014
 30
0.0
 10
4.595079
 20
1.266043
 30
0.0
 10
4.616765
 20
1.227160
 30
0.0
 10
4.636228
 20
1.136776
 30
0.0
 10
4.624838
 20
1.048105
 30
0.0
 10
4.611114
 20
1.007121
 30
0.0
 10
4.586098
 20
0.974226
 30
0.0
 10
4.552764
 20
0.950118
 30
0.0
 10
4.514086
 20
0.935492
 30
0.0
 10
4.473040
 20
0.931047
 30
0.0
 10
4.432600
 20
0.937479
 30
0.0
 10
4.395741
 20
0.955485
 30
0.0
 10
4.365436
 20
0.985762
 30
0.0
 10
4.341980
 20
1.031036
 30
0.0
 10
4.328407
 20
1.083883
 30
0.0
 10
4.325177
 20
1.140091
 30
0.0
 10
4.332754
 20
1.195446
 30
0.0
 10
4.351600
 20
1.245737
 30
0.0
 10
4.382175
 20
1.286751
 30
0.0
 10
4.424943
 20
1.314276
 30
0.0
 10
4.480365
 20
1.324098
 30
0.0
 10
4.480365
 20
1.324098
 30
0.0
  0
LWPOLYLINE
  5
117
100
AcDbEntity
  8
Layer_1
 62
7
100
AcDbPolyline
 90
27
 70
0
 10
5.031911
 20
1.373927
 30
0.0
 10
4.975607
 20
1.364937
 30
0.0
 10
4.927382
 20
1.341564
 30
0.0
 10
4.887709
 20
1.306480
 30
0.0
 10
4.857061
 20
1.262353
 30
0.0
 10
4.835912
 20
1.211855
 30
0.0
 10
4.824735
 20
1.157653
 30
0.0
 10
4.824003
 20
1.102419
 30
0.0
 10
4.834190
 20
1.048822
 30
0.0
 10
4.852178
 20
0.994639
 30
0.0
 10
4.884218
 20
0.949702
 30
0.0
 10
4.926996
 20
0.915054
 30
0.0
 10
4.977200
 20
0.891740
 30
0.0
 10
5.031518
 20
0.880802
 30
0.0
 10
5.086638
 20
0.883283
 30
0.0
 10
5.139246
 20
0.900228
 30
0.0
 10
5.186031
 20
0.932679
 30
0.0
 10
5.229560
 20
0.986982
 30
0.0
 10
5.255456
 20
1.052167
 30
0.0
 10
5.264194
 20
1.122901
 30
0.0
 10
5.256252
 20
1.193851
 30
0.0
 10
5.232104
 20
1.259684
 30
0.0
 10
5.192227
 20
1.315068
 30
0.0
 10
5.137096
 20
1.354670
 30
0.0
 10
5.067189
 20
1.373157
 30
0.0
 10
5.031911
 20
1.373919
 30
0.0
 10
5.031911
 20
1.373927
 30
0.0
  0
LWPOLYLINE
  5
118
100
AcDbEntity
  8
Layer_1
 62
7
100
AcDbPolyline
 90
24
 70
0
 10
5.044038
 20
1.324098
 30
0.0
 10
5.090713
 20
1.317301
 30
0.0
 10
5.128902
 20
1.297028
 30
0.0
 10
5.158760
 20
1.266058
 30
0.0
 10
5.180444
 20
1.227174
 30
0.0
 10
5.199915
 20
1.136785
 30
0.0
 10
5.188566
 20
1.048105
 30
0.0
 10
5.174829
 20
1.007124
 30
0.0
 10
5.149803
 20
0.974229
 30
0.0
 10
5.116464
 20
0.950120
 30
0.0
 10
5.077786
 20
0.935492
 30
0.0
 10
5.036743
 20
0.931045
 30
0.0
 10
4.996308
 20
0.937476
 30
0.0
 10
4.959458
 20
0.955482
 30
0.0
 10
4.929164
 20
0.985762
 30
0.0
 10
4.905690
 20
1.031018
 30
0.0
 10
4.892106
 20
1.083856
 30
0.0
 10
4.888872
 20
1.140062
 30
0.0
 10
4.896448
 20
1.195420
 30
0.0
 10
4.915292
 20
1.245717
 30
0.0
 10
4.945866
 20
1.286738
 30
0.0
 10
4.988628
 20
1.314270
 30
0.0
 10
5.044038
 20
1.324098
 30
0.0
 10
5.044038
 20
1.324098
 30
0.0
  0
LWPOLYLINE
  5
119
100
AcDbEntity
  8
Layer_1
 62
7
100
AcDbPolyline
 90
18
 70
0
 10
5.414510
 20
1.593423
 30
0.0
 10
5.413349
 20
1.272098
 30
0.0
 10
5.413655
 20
1.111519
 30
0.0
 10
5.422502
 20
0.951808
 30
0.0
 10
5.431108
 20
0.929688
 30
0.0
 10
5.448922
 20
0.910883
 30
0.0
 10
5.497329
 20
0.887905
 30
0.0
 10
5.520500
 20
0.886075
 30
0.0
 10
5.538034
 20
0.892248
 30
0.0
 10
5.546219
 20
0.907594
 30
0.0
 10
5.541344
 20
0.933285
 30
0.0
 10
5.510919
 20
0.942993
 30
0.0
 10
5.491022
 20
0.961360
 30
0.0
 10
5.474411
 20
1.015698
 30
0.0
 10
5.475143
 20
1.136189
 30
0.0
 10
5.475143
 20
1.603840
 30
0.0
 10
5.414510
 20
1.593423
 30
0.0
 10
5.414510
 20
1.593423
 30
0.0
  0
LWPOLYLINE
  5
11a
100
AcDbEntity
  8
Layer_1
 62
7
100
AcDbPolyline
 90
51
 70
0
 10
5.795510
 20
1.373707
 30
0.0
 10
5.759489
 20
1.371905
 30
0.0
 10
5.725692
 20
1.360792
 30
0.0
 10
5.671412
 20
1.316823
 30
0.0
 10
5.654250
 20
1.287062
 30
0.0
 10
5.645956
 20
1.254181
 30
0.0
 10
5.648189
 20
1.219727
 30
0.0
 10
5.662611
 20
1.185248
 30
0.0
 10
5.686858
 20
1.157102
 30
0.0
 10
5.718342
 20
1.136562
 30
0.0
 10
5.791649
 20
1.106785
 30
0.0
 10
5.859775
 20
1.072900
 30
0.0
 10
5.884784
 20
1.047224
 30
0.0
 10
5.899965
 20
1.011890
 30
0.0
 10
5.896219
 20
0.980999
 30
0.0
 10
5.882394
 20
0.958374
 30
0.0
 10
5.860776
 20
0.942899
 30
0.0
 10
5.833656
 20
0.933455
 30
0.0
 10
5.772060
 20
0.928199
 30
0.0
 10
5.715914
 20
0.933672
 30
0.0
 10
5.678394
 20
0.944842
 30
0.0
 10
5.649888
 20
0.934487
 30
0.0
 10
5.644483
 20
0.913718
 30
0.0
 10
5.676265
 20
0.893644
 30
0.0
 10
5.753476
 20
0.882187
 30
0.0
 10
5.836563
 20
0.884483
 30
0.0
 10
5.875403
 20
0.893999
 30
0.0
 10
5.909826
 20
0.910806
 30
0.0
 10
5.937868
 20
0.936189
 30
0.0
 10
5.957567
 20
0.971431
 30
0.0
 10
5.964099
 20
1.009340
 30
0.0
 10
5.958919
 20
1.042995
 30
0.0
 10
5.944044
 20
1.072492
 30
0.0
 10
5.921489
 20
1.097931
 30
0.0
 10
5.861404
 20
1.137021
 30
0.0
 10
5.794793
 20
1.161047
 30
0.0
 10
5.748753
 20
1.180871
 30
0.0
 10
5.716388
 20
1.219489
 30
0.0
 10
5.708508
 20
1.265321
 30
0.0
 10
5.717128
 20
1.287325
 30
0.0
 10
5.735923
 20
1.306790
 30
0.0
 10
5.780556
 20
1.324347
 30
0.0
 10
5.828271
 20
1.328251
 30
0.0
 10
5.922895
 20
1.309612
 30
0.0
 10
5.931352
 20
1.332991
 30
0.0
 10
5.928702
 20
1.349321
 30
0.0
 10
5.899690
 20
1.366192
 30
0.0
 10
5.814085
 20
1.374269
 30
0.0
 10
5.799980
 20
1.373846
 30
0.0
 10
5.795510
 20
1.373846
 30
0.0
 10
5.795510
 20
1.373707
 30
0.0
  0
LWPOLYLINE
  5
11b
100
AcDbEntity
  8
Layer_1
 62
7
100
AcDbPolyline
 90
42
 70
0
 10
3.956380
 20
0.452187
 30
0.0
 10
3.906376
 20
0.443137
 30
0.0
 10
3.864144
 20
0.416090
 30
0.0
 10
3.837106
 20
0.375134
 30
0.0
 10
3.832687
 20
0.324360
 30
0.0
 10
3.838994
 20
0.296450
 30
0.0
 10
3.852069
 20
0.273857
 30
0.0
 10
3.892930
 20
0.240993
 30
0.0
 10
3.994359
 20
0.199124
 30
0.0
 10
4.028784
 20
0.177480
 30
0.0
 10
4.050089
 20
0.142850
 30
0.0
 10
4.053217
 20
0.103738
 30
0.0
 10
4.033109
 20
0.068650
 30
0.0
 10
3.986573
 20
0.049178
 30
0.0
 10
3.935877
 20
0.045782
 30
0.0
 10
3.884821
 20
0.054660
 30
0.0
 10
3.837207
 20
0.072014
 30
0.0
 10
3.827005
 20
0.050764
 30
0.0
 10
3.830243
 20
0.034874
 30
0.0
 10
3.865925
 20
0.018157
 30
0.0
 10
3.927120
 20
0.008186
 30
0.0
 10
3.991632
 20
0.009218
 30
0.0
 10
4.050590
 20
0.028183
 30
0.0
 10
4.075213
 20
0.046557
 30
0.0
 10
4.095121
 20
0.072014
 30
0.0
 10
4.105821
 20
0.122783
 30
0.0
 10
4.093687
 20
0.172061
 30
0.0
 10
4.063051
 20
0.212724
 30
0.0
 10
4.018248
 20
0.237647
 30
0.0
 10
3.932025
 20
0.274203
 30
0.0
 10
3.896467
 20
0.301384
 30
0.0
 10
3.881525
 20
0.344147
 30
0.0
 10
3.894084
 20
0.382545
 30
0.0
 10
3.925778
 20
0.405038
 30
0.0
 10
3.966695
 20
0.413871
 30
0.0
 10
4.006926
 20
0.411284
 30
0.0
 10
4.070316
 20
0.392268
 30
0.0
 10
4.082728
 20
0.416571
 30
0.0
 10
4.075467
 20
0.432572
 30
0.0
 10
4.030056
 20
0.447158
 30
0.0
 10
3.956380
 20
0.452187
 30
0.0
 10
3.956380
 20
0.452187
 30
0.0
  0
LWPOLYLINE
  5
11c
100
AcDbEntity
  8
Layer_1
 62
7
100
AcDbPolyline
 90
30
 70
0
 10
4.300944
 20
0.340289
 30
0.0
 10
4.268681
 20
0.334003
 30
0.0
 10
4.240597
 20
0.320467
 30
0.0
 10
4.197785
 20
0.276562
 30
0.0
 10
4.174141
 20
0.218412
 30
0.0
 10
4.171299
 20
0.155854
 30
0.0
 10
4.182188
 20
0.099327
 30
0.0
 10
4.213486
 20
0.052025
 30
0.0
 10
4.259986
 20
0.020048
 30
0.0
 10
4.316483
 20
0.009496
 30
0.0
 10
4.369690
 20
0.011547
 30
0.0
 10
4.421275
 20
0.024552
 30
0.0
 10
4.420182
 20
0.048590
 30
0.0
 10
4.409516
 20
0.056205
 30
0.0
 10
4.371227
 20
0.048951
 30
0.0
 10
4.325862
 20
0.046457
 30
0.0
 10
4.281274
 20
0.056626
 30
0.0
 10
4.244964
 20
0.081207
 30
0.0
 10
4.224436
 20
0.121953
 30
0.0
 10
4.218609
 20
0.144620
 30
0.0
 10
4.221935
 20
0.160973
 30
0.0
 10
4.235538
 20
0.168785
 30
0.0
 10
4.260540
 20
0.165830
 30
0.0
 10
4.444646
 20
0.165830
 30
0.0
 10
4.443160
 20
0.220450
 30
0.0
 10
4.427501
 20
0.274035
 30
0.0
 10
4.395252
 20
0.316678
 30
0.0
 10
4.343994
 20
0.338471
 30
0.0
 10
4.300944
 20
0.340277
 30
0.0
 10
4.300944
 20
0.340289
 30
0.0
  0
LWPOLYLINE
  5
11d
100
AcDbEntity
  8
Layer_1
 62
7
100
AcDbPolyline
 90
11
 70
0
 10
4.313512
 20
0.304847
 30
0.0
 10
4.350750
 20
0.296703
 30
0.0
 10
4.378428
 20
0.271974
 30
0.0
 10
4.394649
 20
0.237306
 30
0.0
 10
4.397517
 20
0.199344
 30
0.0
 10
4.218372
 20
0.199344
 30
0.0
 10
4.225918
 20
0.238032
 30
0.0
 10
4.245182
 20
0.272308
 30
0.0
 10
4.274826
 20
0.296478
 30
0.0
 10
4.313512
 20
0.304847
 30
0.0
 10
4.313512
 20
0.304847
 30
0.0
  0
LWPOLYLINE
  5
11e
100
AcDbEntity
  8
Layer_1
 62
7
100
AcDbPolyline
 90
30
 70
0
 10
4.540061
 20
0.425839
 30
0.0
 10
4.539434
 20
0.252697
 30
0.0
 10
4.545023
 20
0.079950
 30
0.0
 10
4.554285
 20
0.053487
 30
0.0
 10
4.570264
 20
0.033741
 30
0.0
 10
4.616255
 20
0.012138
 30
0.0
 10
4.670768
 20
0.010605
 30
0.0
 10
4.721577
 20
0.024609
 30
0.0
 10
4.719134
 20
0.046053
 30
0.0
 10
4.710322
 20
0.054572
 30
0.0
 10
4.677645
 20
0.049027
 30
0.0
 10
4.646910
 20
0.046904
 30
0.0
 10
4.617841
 20
0.055508
 30
0.0
 10
4.596060
 20
0.074720
 30
0.0
 10
4.587191
 20
0.104424
 30
0.0
 10
4.584986
 20
0.297238
 30
0.0
 10
4.651949
 20
0.296339
 30
0.0
 10
4.684459
 20
0.296861
 30
0.0
 10
4.710057
 20
0.304294
 30
0.0
 10
4.710652
 20
0.320785
 30
0.0
 10
4.704275
 20
0.330304
 30
0.0
 10
4.677154
 20
0.334975
 30
0.0
 10
4.641791
 20
0.331403
 30
0.0
 10
4.611279
 20
0.332683
 30
0.0
 10
4.596020
 20
0.333319
 30
0.0
 10
4.587217
 20
0.340412
 30
0.0
 10
4.582910
 20
0.367896
 30
0.0
 10
4.584986
 20
0.433555
 30
0.0
 10
4.540062
 20
0.425839
 30
0.0
 10
4.540061
 20
0.425839
 30
0.0
  0
LWPOLYLINE
  5
11f
100
AcDbEntity
  8
Layer_1
 62
7
100
AcDbPolyline
 90
20
 70
0
 10
5.059692
 20
0.340178
 30
0.0
 10
5.026906
 20
0.333816
 30
0.0
 10
4.998139
 20
0.319821
 30
0.0
 10
4.954009
 20
0.274158
 30
0.0
 10
4.930004
 20
0.213629
 30
0.0
 10
4.928822
 20
0.148679
 30
0.0
 10
4.945639
 20
0.086962
 30
0.0
 10
4.986248
 20
0.038726
 30
0.0
 10
5.042576
 20
0.011115
 30
0.0
 10
5.106546
 20
0.011268
 30
0.0
 10
5.158604
 20
0.033209
 30
0.0
 10
5.195328
 20
0.072294
 30
0.0
 10
5.216812
 20
0.122668
 30
0.0
 10
5.223151
 20
0.178476
 30
0.0
 10
5.214440
 20
0.233863
 30
0.0
 10
5.190775
 20
0.282972
 30
0.0
 10
5.152249
 20
0.319949
 30
0.0
 10
5.098958
 20
0.338937
 30
0.0
 10
5.059692
 20
0.340178
 30
0.0
 10
5.059692
 20
0.340178
 30
0.0
  0
LWPOLYLINE
  5
120
100
AcDbEntity
  8
Layer_1
 62
7
100
AcDbPolyline
 90
18
 70
0
 10
5.075181
 20
0.302970
 30
0.0
 10
5.102565
 20
0.299590
 30
0.0
 10
5.125627
 20
0.288750
 30
0.0
 10
5.158827
 20
0.250398
 30
0.0
 10
5.174872
 20
0.199335
 30
0.0
 10
5.173849
 20
0.146978
 30
0.0
 10
5.161982
 20
0.102067
 30
0.0
 10
5.132961
 20
0.066583
 30
0.0
 10
5.092432
 20
0.047143
 30
0.0
 10
5.046044
 20
0.050364
 30
0.0
 10
5.020021
 20
0.063864
 30
0.0
 10
5.000272
 20
0.083391
 30
0.0
 10
4.977884
 20
0.134917
 30
0.0
 10
4.975459
 20
0.193716
 30
0.0
 10
4.989578
 20
0.248566
 30
0.0
 10
5.024252
 20
0.288664
 30
0.0
 10
5.075181
 20
0.302970
 30
0.0
 10
5.075181
 20
0.302970
 30
0.0
  0
LWPOLYLINE
  5
121
100
AcDbEntity
  8
Layer_1
 62
7
100
AcDbPolyline
 90
30
 70
0
 10
5.426250
 20
0.494684
 30
0.0
 10
5.378904
 20
0.484190
 30
0.0
 10
5.343778
 20
0.453655
 30
0.0
 10
5.323389
 20
0.410535
 30
0.0
 10
5.320252
 20
0.362282
 30
0.0
 10
5.320252
 20
0.016560
 30
0.0
 10
5.353783
 20
0.015426
 30
0.0
 10
5.365501
 20
0.036105
 30
0.0
 10
5.365176
 20
0.101227
 30
0.0
 10
5.365176
 20
0.297238
 30
0.0
 10
5.433073
 20
0.296369
 30
0.0
 10
5.466007
 20
0.296948
 30
0.0
 10
5.492176
 20
0.304294
 30
0.0
 10
5.492770
 20
0.320785
 30
0.0
 10
5.486393
 20
0.330304
 30
0.0
 10
5.459273
 20
0.334975
 30
0.0
 10
5.423909
 20
0.331403
 30
0.0
 10
5.393398
 20
0.332683
 30
0.0
 10
5.371306
 20
0.333397
 30
0.0
 10
5.364199
 20
0.349675
 30
0.0
 10
5.367656
 20
0.396236
 30
0.0
 10
5.383860
 20
0.433783
 30
0.0
 10
5.416772
 20
0.454086
 30
0.0
 10
5.457538
 20
0.458997
 30
0.0
 10
5.497302
 20
0.450367
 30
0.0
 10
5.504856
 20
0.471382
 30
0.0
 10
5.500314
 20
0.485167
 30
0.0
 10
5.465773
 20
0.494297
 30
0.0
 10
5.426250
 20
0.494692
 30
0.0
 10
5.426250
 20
0.494684
 30
0.0
  0
LWPOLYLINE
  5
122
100
AcDbEntity
  8
Layer_1
 62
7
100
AcDbPolyline
 90
27
 70
0
 10
5.867167
 20
0.429143
 30
0.0
 10
5.766859
 20
0.301501
 30
0.0
 10
5.686755
 20
0.160318
 30
0.0
 10
5.685620
 20
0.142915
 30
0.0
 10
5.691597
 20
0.132624
 30
0.0
 10
5.718367
 20
0.126857
 30
0.0
 10
5.785532
 20
0.128952
 30
0.0
 10
5.853987
 20
0.130738
 30
0.0
 10
5.880058
 20
0.123474
 30
0.0
 10
5.885444
 20
0.112192
 30
0.0
 10
5.883594
 20
0.093674
 30
0.0
 10
5.886042
 20
0.030614
 30
0.0
 10
5.900502
 20
0.014063
 30
0.0
 10
5.926644
 20
0.023615
 30
0.0
 10
5.927884
 20
0.055764
 30
0.0
 10
5.924481
 20
0.092557
 30
0.0
 10
5.929215
 20
0.121213
 30
0.0
 10
5.938627
 20
0.128496
 30
0.0
 10
5.954866
 20
0.128952
 30
0.0
 10
5.981142
 20
0.141365
 30
0.0
 10
5.970192
 20
0.154249
 30
0.0
 10
5.926644
 20
0.177240
 30
0.0
 10
5.926644
 20
0.442540
 30
0.0
 10
5.893743
 20
0.443193
 30
0.0
 10
5.878723
 20
0.440358
 30
0.0
 10
5.867167
 20
0.429143
 30
0.0
 10
5.867167
 20
0.429143
 30
0.0
  0
LWPOLYLINE
  5
123
100
AcDbEntity
  8
Layer_1
 62
7
100
AcDbPolyline
 90
7
 70
0
 10
5.883594
 20
0.379755
 30
0.0
 10
5.883594
 20
0.163129
 30
0.0
 10
5.725560
 20
0.163129
 30
0.0
 10
5.795207
 20
0.287016
 30
0.0
 10
5.883594
 20
0.398330
 30
0.0
 10
5.883594
 20
0.379755
 30
0.0
 10
5.883594
 20
0.379755
 30
0.0
  0
ENDSEC
  0
SECTION
  2
OBJECTS
  0
DICTIONARY
  5
C
330
0
100
AcDbDictionary
  3
ACAD_GROUP
350
D
  3
ACAD_MLINESTYLE
350
17
  0
DICTIONARY
  5
D
330
C
100
AcDbDictionary
  0
DICTIONARY
  5
1A
330
C
100
AcDbDictionary
  0
DICTIONARY
  5
17
330
C
100
AcDbDictionary
  3
STANDARD
350
18
  0
DICTIONARY
  5
19
330
C
100
AcDbDictionary
  0
ENDSEC
  0
EOF
