  0
SECTION
  2
HEADER
  9
$ACADVER
  1
AC1014
  9
$HANDSEED
  5
FFFF
  9
$MEASUREMENT
 70
     1
  0
ENDSEC
  0
SECTION
  2
TABLES
  0
TABLE
  2
VPORT
  5
8
330
0
100
AcDbSymbolTable
 70
     4
  0
VPORT
  5
2E
330
8
100
AcDbSymbolTableRecord
100
AcDbViewportTableRecord
  2
*ACTIVE
 70
     0
 10
0.0
 20
0.0
 11
1.0
 21
1.0
 12
210.0
 22
148.5
 13
0.0
 23
0.0
 14
10.0
 24
10.0
 15
10.0
 25
10.0
 16
0.0
 26
0.0
 36
1.0
 17
0.0
 27
0.0
 37
0.0
 40
341.0
 41
1.24
 42
50.0
 43
0.0
 44
0.0
 50
0.0
 51
0.0
 71
     0
 72
   100
 73
     1
 74
     3
 75
     0
 76
     0
 77
     0
 78
     0
  0
ENDTAB
  0
TABLE
  2
LTYPE
  5
5
330
0
100
AcDbSymbolTable
 70
     1
  0
LTYPE
  5
14
330
5
100
AcDbSymbolTableRecord
100
AcDbLinetypeTableRecord
  2
BYBLOCK
 70
     0
  3

 72
    65
 73
     0
 40
0.0
  0
LTYPE
  5
15
330
5
100
AcDbSymbolTableRecord
100
AcDbLinetypeTableRecord
  2
BYLAYER
 70
     0
  3

 72
    65
 73
     0
 40
0.0
  0
LTYPE
  5
16
330
5
100
AcDbSymbolTableRecord
100
AcDbLinetypeTableRecord
  2
CONTINUOUS
 70
     0
  3
Solid line
 72
    65
 73
     0
 40
0.0
  0
ENDTAB
  0
TABLE
  2
LAYER
  5
2
100
AcDbSymbolTable
 70
2
  0
LAYER
  5
50
100
AcDbSymbolTableRecord
100
AcDbLayerTableRecord
  2
0
 70
0
  6
CONTINUOUS
  0
LAYER
  5
51
100
AcDbSymbolTableRecord
100
AcDbLayerTableRecord
  2
Layer_1
 70
0
  6
CONTINUOUS
  0
ENDTAB
  0
TABLE
  2
STYLE
  5
3
330
0
100
AcDbSymbolTable
 70
     1
  0
STYLE
  5
11
330
3
100
AcDbSymbolTableRecord
100
AcDbTextStyleTableRecord
  2
STANDARD
 70
     0
 40
0.0
 41
1.0
 50
0.0
 71
     0
 42
2.5
  3
txt
  4

  0
ENDTAB
  0
TABLE
  2
VIEW
  5
6
330
0
100
AcDbSymbolTable
 70
     0
  0
ENDTAB
  0
TABLE
  2
UCS
  5
7
330
0
100
AcDbSymbolTable
 70
     0
  0
ENDTAB
  0
TABLE
  2
APPID
  5
9
330
0
100
AcDbSymbolTable
 70
     2
  0
APPID
  5
12
330
9
100
AcDbSymbolTableRecord
100
AcDbRegAppTableRecord
  2
ACAD
 70
     0
  0
ENDTAB
  0
TABLE
  2
DIMSTYLE
  5
A
330
0
100
AcDbSymbolTable
 70
     1
  0
DIMSTYLE
105
27
330
A
100
AcDbSymbolTableRecord
100
AcDbDimStyleTableRecord
  2
ISO-25
 70
     0
  3

  4

  5

  6

  7

 40
1.0
 41
2.5
 42
0.625
 43
3.75
 44
1.25
 45
0.0
 46
0.0
 47
0.0
 48
0.0
140
2.5
141
2.5
142
0.0
143
0.03937007874016
144
1.0
145
0.0
146
1.0
147
0.625
 71
     0
 72
     0
 73
     0
 74
     0
 75
     0
 76
     0
 77
     1
 78
     8
170
     0
171
     3
172
     1
173
     0
174
     0
175
     0
176
     0
177
     0
178
     0
270
     2
271
     2
272
     2
273
     2
274
     3
340
11
275
     0
280
     0
281
     0
282
     0
283
     0
284
     8
285
     0
286
     0
287
     3
288
     0
  0
ENDTAB
  0
TABLE
  2
BLOCK_RECORD
  5
1
330
0
100
AcDbSymbolTable
 70
     1
  0
BLOCK_RECORD
  5
1F
330
1
100
AcDbSymbolTableRecord
100
AcDbBlockTableRecord
  2
*MODEL_SPACE
  0
BLOCK_RECORD
  5
1B
330
1
100
AcDbSymbolTableRecord
100
AcDbBlockTableRecord
  2
*PAPER_SPACE
  0
ENDTAB
  0
ENDSEC
  0
SECTION
  2
BLOCKS
  0
BLOCK
  5
20
330
1F
100
AcDbEntity
  8
0
100
AcDbBlockBegin
  2
*MODEL_SPACE
 70
     0
 10
0.0
 20
0.0
 30
0.0
  3
*MODEL_SPACE
  1

  0
ENDBLK
  5
21
330
1F
100
AcDbEntity
  8
0
100
AcDbBlockEnd
  0
BLOCK
  5
1C
330
1B
100
AcDbEntity
 67
     1
  8
0
100
AcDbBlockBegin
  2
*PAPER_SPACE
  1

  0
ENDBLK
  5
1D
330
1B
100
AcDbEntity
 67
     1
  8
0
100
AcDbBlockEnd
  0
ENDSEC
  0
SECTION
  2
ENTITIES
  0
LWPOLYLINE
  5
100
100
AcDbEntity
  8
Layer_1
 62
7
100
AcDbPolyline
 90
7
 70
1
 10
0.000000
 20
7.615927
 30
0.0
 10
0.000000
 20
7.610923
 30
0.0
 10
0.000000
 20
0.000000
 30
0.0
 10
7.858150
 20
0.000000
 30
0.0
 10
7.858150
 20
7.615927
 30
0.0
 10
0.000000
 20
7.615927
 30
0.0
 10
0.000000
 20
7.615927
 30
0.0
  0
LWPOLYLINE
  5
101
100
AcDbEntity
  8
Layer_1
 62
7
100
AcDbPolyline
 90
6
 70
1
 10
0.010000
 20
7.605927
 30
0.0
 10
7.848151
 20
7.605927
 30
0.0
 10
7.848151
 20
0.010000
 30
0.0
 10
0.010000
 20
0.010000
 30
0.0
 10
0.010000
 20
7.605927
 30
0.0
 10
0.010000
 20
7.605927
 30
0.0
  0
LWPOLYLINE
  5
102
100
AcDbEntity
  8
Layer_1
 62
7
100
AcDbPolyline
 90
206
 70
0
 10
4.557487
 20
5.756543
 30
0.0
 10
4.259814
 20
5.740381
 30
0.0
 10
3.964660
 20
5.696711
 30
0.0
 10
3.673831
 20
5.627216
 30
0.0
 10
3.389131
 20
5.533577
 30
0.0
 10
3.120532
 20
5.419063
 30
0.0
 10
2.861695
 20
5.281557
 30
0.0
 10
2.614174
 20
5.122253
 30
0.0
 10
2.379525
 20
4.942343
 30
0.0
 10
2.237881
 20
4.818159
 30
0.0
 10
2.102307
 20
4.686554
 30
0.0
 10
1.973119
 20
4.547891
 30
0.0
 10
1.850635
 20
4.402533
 30
0.0
 10
1.735171
 20
4.250844
 30
0.0
 10
1.627046
 20
4.093187
 30
0.0
 10
1.526577
 20
3.929924
 30
0.0
 10
1.434080
 20
3.761420
 30
0.0
 10
1.319661
 20
3.520922
 30
0.0
 10
1.221285
 20
3.272556
 30
0.0
 10
1.139417
 20
3.017530
 30
0.0
 10
1.074523
 20
2.757050
 30
0.0
 10
1.029020
 20
2.506093
 30
0.0
 10
0.999392
 20
2.252468
 30
0.0
 10
0.988025
 20
2.084732
 30
0.0
 10
0.984730
 20
1.916612
 30
0.0
 10
0.995258
 20
1.870475
 30
0.0
 10
1.016788
 20
1.859382
 30
0.0
 10
1.039024
 20
1.868658
 30
0.0
 10
1.050996
 20
1.888648
 30
0.0
 10
1.056719
 20
1.911818
 30
0.0
 10
1.070554
 20
2.047251
 30
0.0
 10
1.090177
 20
2.308858
 30
0.0
 10
1.115526
 20
2.506879
 30
0.0
 10
1.150633
 20
2.703238
 30
0.0
 10
1.195394
 20
2.897379
 30
0.0
 10
1.249709
 20
3.088743
 30
0.0
 10
1.313477
 20
3.276773
 30
0.0
 10
1.386594
 20
3.460910
 30
0.0
 10
1.468961
 20
3.640597
 30
0.0
 10
1.560474
 20
3.815275
 30
0.0
 10
1.673731
 20
4.005060
 30
0.0
 10
1.797417
 20
4.187344
 30
0.0
 10
1.931014
 20
4.361577
 30
0.0
 10
2.074002
 20
4.527212
 30
0.0
 10
2.225863
 20
4.683702
 30
0.0
 10
2.386078
 20
4.830499
 30
0.0
 10
2.554127
 20
4.967057
 30
0.0
 10
2.729491
 20
5.092826
 30
0.0
 10
2.905528
 20
5.203452
 30
0.0
 10
3.087451
 20
5.302765
 30
0.0
 10
3.274583
 20
5.390512
 30
0.0
 10
3.466246
 20
5.466440
 30
0.0
 10
3.633984
 20
5.522585
 30
0.0
 10
3.804052
 20
5.570182
 30
0.0
 10
3.976066
 20
5.609097
 30
0.0
 10
4.149642
 20
5.639191
 30
0.0
 10
4.390596
 20
5.658800
 30
0.0
 10
4.632342
 20
5.660578
 30
0.0
 10
4.814277
 20
5.652313
 30
0.0
 10
4.995097
 20
5.630096
 30
0.0
 10
5.161828
 20
5.589623
 30
0.0
 10
5.325219
 20
5.535728
 30
0.0
 10
5.499014
 20
5.462617
 30
0.0
 10
5.666253
 20
5.373904
 30
0.0
 10
5.825556
 20
5.270067
 30
0.0
 10
5.975543
 20
5.151586
 30
0.0
 10
6.106606
 20
5.029996
 30
0.0
 10
6.228908
 20
4.898496
 30
0.0
 10
6.341550
 20
4.757639
 30
0.0
 10
6.443635
 20
4.607977
 30
0.0
 10
6.514580
 20
4.484358
 30
0.0
 10
6.577373
 20
4.355893
 30
0.0
 10
6.632125
 20
4.223314
 30
0.0
 10
6.678949
 20
4.087354
 30
0.0
 10
6.727690
 20
3.914594
 30
0.0
 10
6.764443
 20
3.738545
 30
0.0
 10
6.779215
 20
3.567270
 30
0.0
 10
6.784341
 20
3.395249
 30
0.0
 10
6.785874
 20
3.257832
 30
0.0
 10
6.775577
 20
3.121019
 30
0.0
 10
6.746764
 20
2.985518
 30
0.0
 10
6.705187
 20
2.853735
 30
0.0
 10
6.630670
 20
2.684822
 30
0.0
 10
6.535791
 20
2.527838
 30
0.0
 10
6.422395
 20
2.385361
 30
0.0
 10
6.292327
 20
2.259965
 30
0.0
 10
6.158515
 20
2.160172
 30
0.0
 10
6.014309
 20
2.078264
 30
0.0
 10
5.861841
 20
2.015535
 30
0.0
 10
5.703243
 20
1.973278
 30
0.0
 10
5.545211
 20
1.952393
 30
0.0
 10
5.386019
 20
1.953821
 30
0.0
 10
5.237803
 20
1.985761
 30
0.0
 10
5.098420
 20
2.047949
 30
0.0
 10
4.972542
 20
2.137059
 30
0.0
 10
4.864844
 20
2.249768
 30
0.0
 10
4.802648
 20
2.339149
 30
0.0
 10
4.751599
 20
2.436215
 30
0.0
 10
4.712951
 20
2.539455
 30
0.0
 10
4.687959
 20
2.647360
 30
0.0
 10
4.679233
 20
2.728917
 30
0.0
 10
4.679116
 20
2.811044
 30
0.0
 10
4.687941
 20
2.892578
 30
0.0
 10
4.706039
 20
2.972356
 30
0.0
 10
4.742973
 20
3.054030
 30
0.0
 10
4.795832
 20
3.125374
 30
0.0
 10
4.869299
 20
3.196797
 30
0.0
 10
4.954141
 20
3.251932
 30
0.0
 10
5.044757
 20
3.281109
 30
0.0
 10
5.139405
 20
3.287541
 30
0.0
 10
5.216909
 20
3.276235
 30
0.0
 10
5.289887
 20
3.246696
 30
0.0
 10
5.325765
 20
3.219742
 30
0.0
 10
5.355206
 20
3.185125
 30
0.0
 10
5.385117
 20
3.130250
 30
0.0
 10
5.403437
 20
3.069921
 30
0.0
 10
5.408310
 20
3.013083
 30
0.0
 10
5.399413
 20
2.956977
 30
0.0
 10
5.373247
 20
2.912403
 30
0.0
 10
5.333467
 20
2.884287
 30
0.0
 10
5.290270
 20
2.873953
 30
0.0
 10
5.246416
 20
2.880559
 30
0.0
 10
5.215109
 20
2.901202
 30
0.0
 10
5.192905
 20
2.931903
 30
0.0
 10
5.185304
 20
2.972797
 30
0.0
 10
5.185171
 20
2.998645
 30
0.0
 10
5.167903
 20
3.016838
 30
0.0
 10
5.140923
 20
2.994384
 30
0.0
 10
5.125569
 20
2.961882
 30
0.0
 10
5.120478
 20
2.918534
 30
0.0
 10
5.124689
 20
2.874955
 30
0.0
 10
5.141598
 20
2.831003
 30
0.0
 10
5.172314
 20
2.796627
 30
0.0
 10
5.230906
 20
2.769105
 30
0.0
 10
5.295124
 20
2.767468
 30
0.0
 10
5.365729
 20
2.790439
 30
0.0
 10
5.427912
 20
2.832842
 30
0.0
 10
5.465482
 20
2.876685
 30
0.0
 10
5.489262
 20
2.930132
 30
0.0
 10
5.497221
 20
2.990808
 30
0.0
 10
5.493231
 20
3.052060
 30
0.0
 10
5.478987
 20
3.115099
 30
0.0
 10
5.455466
 20
3.174912
 30
0.0
 10
5.423487
 20
3.230157
 30
0.0
 10
5.383870
 20
3.279492
 30
0.0
 10
5.332694
 20
3.324690
 30
0.0
 10
5.274178
 20
3.358261
 30
0.0
 10
5.215720
 20
3.373528
 30
0.0
 10
5.155943
 20
3.382349
 30
0.0
 10
5.088805
 20
3.383119
 30
0.0
 10
5.009870
 20
3.369780
 30
0.0
 10
4.927663
 20
3.342151
 30
0.0
 10
4.852388
 20
3.297626
 30
0.0
 10
4.775222
 20
3.232419
 30
0.0
 10
4.706757
 20
3.157011
 30
0.0
 10
4.650871
 20
3.067939
 30
0.0
 10
4.614208
 20
2.968275
 30
0.0
 10
4.597326
 20
2.873987
 30
0.0
 10
4.592160
 20
2.778105
 30
0.0
 10
4.596804
 20
2.686132
 30
0.0
 10
4.610436
 20
2.595177
 30
0.0
 10
4.632859
 20
2.506211
 30
0.0
 10
4.663873
 20
2.420201
 30
0.0
 10
4.742661
 20
2.270479
 30
0.0
 10
4.845939
 20
2.138585
 30
0.0
 10
4.925078
 20
2.062202
 30
0.0
 10
5.012079
 20
1.996062
 30
0.0
 10
5.105982
 20
1.941804
 30
0.0
 10
5.205828
 20
1.901067
 30
0.0
 10
5.288986
 20
1.878721
 30
0.0
 10
5.373792
 20
1.865214
 30
0.0
 10
5.545211
 20
1.862592
 30
0.0
 10
5.731811
 20
1.890182
 30
0.0
 10
5.913919
 20
1.941857
 30
0.0
 10
6.025543
 20
1.985870
 30
0.0
 10
6.133129
 20
2.040043
 30
0.0
 10
6.235854
 20
2.103966
 30
0.0
 10
6.332898
 20
2.177225
 30
0.0
 10
6.468586
 20
2.304573
 30
0.0
 10
6.587848
 20
2.449277
 30
0.0
 10
6.688857
 20
2.608865
 30
0.0
 10
6.769791
 20
2.780862
 30
0.0
 10
6.829229
 20
2.962020
 30
0.0
 10
6.864159
 20
3.150176
 30
0.0
 10
6.873485
 20
3.326981
 30
0.0
 10
6.869726
 20
3.504111
 30
0.0
 10
6.847623
 20
3.741977
 30
0.0
 10
6.800328
 20
3.975566
 30
0.0
 10
6.744478
 20
4.162188
 30
0.0
 10
6.675468
 20
4.343803
 30
0.0
 10
6.593219
 20
4.519039
 30
0.0
 10
6.497656
 20
4.686523
 30
0.0
 10
6.398804
 20
4.832162
 30
0.0
 10
6.289596
 20
4.969212
 30
0.0
 10
6.170689
 20
5.096837
 30
0.0
 10
6.042738
 20
5.214201
 30
0.0
 10
5.931177
 20
5.303035
 30
0.0
 10
5.814698
 20
5.384438
 30
0.0
 10
5.569299
 20
5.524921
 30
0.0
 10
5.373125
 20
5.614147
 30
0.0
 10
5.169282
 20
5.680970
 30
0.0
 10
5.018317
 20
5.715020
 30
0.0
 10
4.865597
 20
5.738658
 30
0.0
 10
4.711771
 20
5.752345
 30
0.0
 10
4.557488
 20
5.756542
 30
0.0
 10
4.557487
 20
5.756543
 30
0.0
  0
ENDSEC
  0
SECTION
  2
OBJECTS
  0
DICTIONARY
  5
C
330
0
100
AcDbDictionary
  3
ACAD_GROUP
350
D
  3
ACAD_MLINESTYLE
350
17
  0
DICTIONARY
  5
D
330
C
100
AcDbDictionary
  0
DICTIONARY
  5
1A
330
C
100
AcDbDictionary
  0
DICTIONARY
  5
17
330
C
100
AcDbDictionary
  3
STANDARD
350
18
  0
DICTIONARY
  5
19
330
C
100
AcDbDictionary
  0
ENDSEC
  0
EOF
