  0
SECTION
  2
HEADER
  9
$ACADVER
  1
AC1014
  9
$HANDSEED
  5
FFFF
  9
$MEASUREMENT
 70
     1
  0
ENDSEC
  0
SECTION
  2
TABLES
  0
TABLE
  2
VPORT
  5
8
330
0
100
AcDbSymbolTable
 70
     4
  0
VPORT
  5
2E
330
8
100
AcDbSymbolTableRecord
100
AcDbViewportTableRecord
  2
*ACTIVE
 70
     0
 10
0.0
 20
0.0
 11
1.0
 21
1.0
 12
210.0
 22
148.5
 13
0.0
 23
0.0
 14
10.0
 24
10.0
 15
10.0
 25
10.0
 16
0.0
 26
0.0
 36
1.0
 17
0.0
 27
0.0
 37
0.0
 40
341.0
 41
1.24
 42
50.0
 43
0.0
 44
0.0
 50
0.0
 51
0.0
 71
     0
 72
   100
 73
     1
 74
     3
 75
     0
 76
     0
 77
     0
 78
     0
  0
ENDTAB
  0
TABLE
  2
LTYPE
  5
5
330
0
100
AcDbSymbolTable
 70
     1
  0
LTYPE
  5
14
330
5
100
AcDbSymbolTableRecord
100
AcDbLinetypeTableRecord
  2
BYBLOCK
 70
     0
  3

 72
    65
 73
     0
 40
0.0
  0
LTYPE
  5
15
330
5
100
AcDbSymbolTableRecord
100
AcDbLinetypeTableRecord
  2
BYLAYER
 70
     0
  3

 72
    65
 73
     0
 40
0.0
  0
LTYPE
  5
16
330
5
100
AcDbSymbolTableRecord
100
AcDbLinetypeTableRecord
  2
CONTINUOUS
 70
     0
  3
Solid line
 72
    65
 73
     0
 40
0.0
  0
ENDTAB
  0
TABLE
  2
LAYER
  5
2
100
AcDbSymbolTable
 70
2
  0
LAYER
  5
50
100
AcDbSymbolTableRecord
100
AcDbLayerTableRecord
  2
0
 70
0
  6
CONTINUOUS
  0
LAYER
  5
51
100
AcDbSymbolTableRecord
100
AcDbLayerTableRecord
  2
Layer_1
 70
0
  6
CONTINUOUS
  0
ENDTAB
  0
TABLE
  2
STYLE
  5
3
330
0
100
AcDbSymbolTable
 70
     1
  0
STYLE
  5
11
330
3
100
AcDbSymbolTableRecord
100
AcDbTextStyleTableRecord
  2
STANDARD
 70
     0
 40
0.0
 41
1.0
 50
0.0
 71
     0
 42
2.5
  3
txt
  4

  0
ENDTAB
  0
TABLE
  2
VIEW
  5
6
330
0
100
AcDbSymbolTable
 70
     0
  0
ENDTAB
  0
TABLE
  2
UCS
  5
7
330
0
100
AcDbSymbolTable
 70
     0
  0
ENDTAB
  0
TABLE
  2
APPID
  5
9
330
0
100
AcDbSymbolTable
 70
     2
  0
APPID
  5
12
330
9
100
AcDbSymbolTableRecord
100
AcDbRegAppTableRecord
  2
ACAD
 70
     0
  0
ENDTAB
  0
TABLE
  2
DIMSTYLE
  5
A
330
0
100
AcDbSymbolTable
 70
     1
  0
DIMSTYLE
105
27
330
A
100
AcDbSymbolTableRecord
100
AcDbDimStyleTableRecord
  2
ISO-25
 70
     0
  3

  4

  5

  6

  7

 40
1.0
 41
2.5
 42
0.625
 43
3.75
 44
1.25
 45
0.0
 46
0.0
 47
0.0
 48
0.0
140
2.5
141
2.5
142
0.0
143
0.03937007874016
144
1.0
145
0.0
146
1.0
147
0.625
 71
     0
 72
     0
 73
     0
 74
     0
 75
     0
 76
     0
 77
     1
 78
     8
170
     0
171
     3
172
     1
173
     0
174
     0
175
     0
176
     0
177
     0
178
     0
270
     2
271
     2
272
     2
273
     2
274
     3
340
11
275
     0
280
     0
281
     0
282
     0
283
     0
284
     8
285
     0
286
     0
287
     3
288
     0
  0
ENDTAB
  0
TABLE
  2
BLOCK_RECORD
  5
1
330
0
100
AcDbSymbolTable
 70
     1
  0
BLOCK_RECORD
  5
1F
330
1
100
AcDbSymbolTableRecord
100
AcDbBlockTableRecord
  2
*MODEL_SPACE
  0
BLOCK_RECORD
  5
1B
330
1
100
AcDbSymbolTableRecord
100
AcDbBlockTableRecord
  2
*PAPER_SPACE
  0
ENDTAB
  0
ENDSEC
  0
SECTION
  2
BLOCKS
  0
BLOCK
  5
20
330
1F
100
AcDbEntity
  8
0
100
AcDbBlockBegin
  2
*MODEL_SPACE
 70
     0
 10
0.0
 20
0.0
 30
0.0
  3
*MODEL_SPACE
  1

  0
ENDBLK
  5
21
330
1F
100
AcDbEntity
  8
0
100
AcDbBlockEnd
  0
BLOCK
  5
1C
330
1B
100
AcDbEntity
 67
     1
  8
0
100
AcDbBlockBegin
  2
*PAPER_SPACE
  1

  0
ENDBLK
  5
1D
330
1B
100
AcDbEntity
 67
     1
  8
0
100
AcDbBlockEnd
  0
ENDSEC
  0
SECTION
  2
ENTITIES
  0
LWPOLYLINE
  5
100
100
AcDbEntity
  8
Layer_1
 62
7
100
AcDbPolyline
 90
76
 70
0
 10
5.900496
 20
7.181974
 30
0.0
 10
5.747565
 20
7.163029
 30
0.0
 10
5.596102
 20
7.116133
 30
0.0
 10
5.448959
 20
7.043260
 30
0.0
 10
5.308987
 20
6.946385
 30
0.0
 10
5.137715
 20
6.855448
 30
0.0
 10
4.962907
 20
6.783386
 30
0.0
 10
4.789392
 20
6.727861
 30
0.0
 10
4.621998
 20
6.686537
 30
0.0
 10
4.324888
 20
6.637136
 30
0.0
 10
4.110204
 20
6.616483
 30
0.0
 10
1.526658
 20
6.558825
 30
0.0
 10
1.394276
 20
6.540019
 30
0.0
 10
1.282018
 20
6.495801
 30
0.0
 10
1.189125
 20
6.432183
 30
0.0
 10
1.114838
 20
6.355175
 30
0.0
 10
1.058398
 20
6.270788
 30
0.0
 10
1.019044
 20
6.185033
 30
0.0
 10
0.996019
 20
6.103921
 30
0.0
 10
0.988562
 20
6.033462
 30
0.0
 10
0.991153
 20
5.837229
 30
0.0
 10
0.986577
 20
5.837229
 30
0.0
 10
0.986577
 20
1.778686
 30
0.0
 10
0.991153
 20
1.778686
 30
0.0
 10
0.988562
 20
1.582454
 30
0.0
 10
0.996019
 20
1.511995
 30
0.0
 10
1.019044
 20
1.430883
 30
0.0
 10
1.058398
 20
1.345128
 30
0.0
 10
1.114839
 20
1.260741
 30
0.0
 10
1.189126
 20
1.183733
 30
0.0
 10
1.282018
 20
1.120115
 30
0.0
 10
1.394276
 20
1.075897
 30
0.0
 10
1.526658
 20
1.057091
 30
0.0
 10
4.110204
 20
0.999434
 30
0.0
 10
4.324888
 20
0.978780
 30
0.0
 10
4.621998
 20
0.929380
 30
0.0
 10
4.789392
 20
0.888055
 30
0.0
 10
4.962907
 20
0.832530
 30
0.0
 10
5.137715
 20
0.760468
 30
0.0
 10
5.308987
 20
0.669531
 30
0.0
 10
5.420296
 20
0.590174
 30
0.0
 10
5.536554
 20
0.525928
 30
0.0
 10
5.656306
 20
0.477800
 30
0.0
 10
5.778095
 20
0.446803
 30
0.0
 10
5.900462
 20
0.433946
 30
0.0
 10
6.021953
 20
0.440240
 30
0.0
 10
6.141109
 20
0.466694
 30
0.0
 10
6.256474
 20
0.514318
 30
0.0
 10
6.366592
 20
0.584124
 30
0.0
 10
6.470004
 20
0.677121
 30
0.0
 10
6.565256
 20
0.794319
 30
0.0
 10
6.650888
 20
0.936729
 30
0.0
 10
6.725446
 20
1.105360
 30
0.0
 10
6.787472
 20
1.301223
 30
0.0
 10
6.835508
 20
1.525329
 30
0.0
 10
6.868099
 20
1.778686
 30
0.0
 10
6.871572
 20
1.778686
 30
0.0
 10
6.871572
 20
5.837229
 30
0.0
 10
6.868099
 20
5.837229
 30
0.0
 10
6.847421
 20
6.014603
 30
0.0
 10
6.819228
 20
6.178001
 30
0.0
 10
6.783993
 20
6.327751
 30
0.0
 10
6.742190
 20
6.464183
 30
0.0
 10
6.694291
 20
6.587624
 30
0.0
 10
6.640771
 20
6.698403
 30
0.0
 10
6.582102
 20
6.796848
 30
0.0
 10
6.518758
 20
6.883287
 30
0.0
 10
6.451212
 20
6.958048
 30
0.0
 10
6.379938
 20
7.021459
 30
0.0
 10
6.305408
 20
7.073850
 30
0.0
 10
6.228097
 20
7.115548
 30
0.0
 10
6.148476
 20
7.146881
 30
0.0
 10
6.067021
 20
7.168177
 30
0.0
 10
5.984203
 20
7.179766
 30
0.0
 10
5.900496
 20
7.181974
 30
0.0
 10
5.900496
 20
7.181974
 30
0.0
  0
LWPOLYLINE
  5
101
100
AcDbEntity
  8
Layer_1
 62
7
100
AcDbPolyline
 90
7
 70
1
 10
0.000000
 20
7.615926
 30
0.0
 10
0.000000
 20
7.610923
 30
0.0
 10
0.000000
 20
0.000000
 30
0.0
 10
7.858149
 20
0.000000
 30
0.0
 10
7.858149
 20
7.615926
 30
0.0
 10
0.000000
 20
7.615926
 30
0.0
 10
0.000000
 20
7.615926
 30
0.0
  0
LWPOLYLINE
  5
102
100
AcDbEntity
  8
Layer_1
 62
7
100
AcDbPolyline
 90
6
 70
1
 10
0.009999
 20
7.605927
 30
0.0
 10
7.848150
 20
7.605927
 30
0.0
 10
7.848150
 20
0.009999
 30
0.0
 10
0.009999
 20
0.009999
 30
0.0
 10
0.009999
 20
7.605927
 30
0.0
 10
0.009999
 20
7.605927
 30
0.0
  0
ENDSEC
  0
SECTION
  2
OBJECTS
  0
DICTIONARY
  5
C
330
0
100
AcDbDictionary
  3
ACAD_GROUP
350
D
  3
ACAD_MLINESTYLE
350
17
  0
DICTIONARY
  5
D
330
C
100
AcDbDictionary
  0
DICTIONARY
  5
1A
330
C
100
AcDbDictionary
  0
DICTIONARY
  5
17
330
C
100
AcDbDictionary
  3
STANDARD
350
18
  0
DICTIONARY
  5
19
330
C
100
AcDbDictionary
  0
ENDSEC
  0
EOF
