  0
SECTION
  2
HEADER
  9
$ACADVER
  1
AC1014
  9
$HANDSEED
  5
FFFF
  9
$MEASUREMENT
 70
     1
  0
ENDSEC
  0
SECTION
  2
TABLES
  0
TABLE
  2
VPORT
  5
8
330
0
100
AcDbSymbolTable
 70
     4
  0
VPORT
  5
2E
330
8
100
AcDbSymbolTableRecord
100
AcDbViewportTableRecord
  2
*ACTIVE
 70
     0
 10
0.0
 20
0.0
 11
1.0
 21
1.0
 12
210.0
 22
148.5
 13
0.0
 23
0.0
 14
10.0
 24
10.0
 15
10.0
 25
10.0
 16
0.0
 26
0.0
 36
1.0
 17
0.0
 27
0.0
 37
0.0
 40
341.0
 41
1.24
 42
50.0
 43
0.0
 44
0.0
 50
0.0
 51
0.0
 71
     0
 72
   100
 73
     1
 74
     3
 75
     0
 76
     0
 77
     0
 78
     0
  0
ENDTAB
  0
TABLE
  2
LTYPE
  5
5
330
0
100
AcDbSymbolTable
 70
     1
  0
LTYPE
  5
14
330
5
100
AcDbSymbolTableRecord
100
AcDbLinetypeTableRecord
  2
BYBLOCK
 70
     0
  3

 72
    65
 73
     0
 40
0.0
  0
LTYPE
  5
15
330
5
100
AcDbSymbolTableRecord
100
AcDbLinetypeTableRecord
  2
BYLAYER
 70
     0
  3

 72
    65
 73
     0
 40
0.0
  0
LTYPE
  5
16
330
5
100
AcDbSymbolTableRecord
100
AcDbLinetypeTableRecord
  2
CONTINUOUS
 70
     0
  3
Solid line
 72
    65
 73
     0
 40
0.0
  0
ENDTAB
  0
TABLE
  2
LAYER
  5
2
100
AcDbSymbolTable
 70
2
  0
LAYER
  5
50
100
AcDbSymbolTableRecord
100
AcDbLayerTableRecord
  2
0
 70
0
  6
CONTINUOUS
  0
LAYER
  5
51
100
AcDbSymbolTableRecord
100
AcDbLayerTableRecord
  2
Layer_1
 70
0
  6
CONTINUOUS
  0
ENDTAB
  0
TABLE
  2
STYLE
  5
3
330
0
100
AcDbSymbolTable
 70
     1
  0
STYLE
  5
11
330
3
100
AcDbSymbolTableRecord
100
AcDbTextStyleTableRecord
  2
STANDARD
 70
     0
 40
0.0
 41
1.0
 50
0.0
 71
     0
 42
2.5
  3
txt
  4

  0
ENDTAB
  0
TABLE
  2
VIEW
  5
6
330
0
100
AcDbSymbolTable
 70
     0
  0
ENDTAB
  0
TABLE
  2
UCS
  5
7
330
0
100
AcDbSymbolTable
 70
     0
  0
ENDTAB
  0
TABLE
  2
APPID
  5
9
330
0
100
AcDbSymbolTable
 70
     2
  0
APPID
  5
12
330
9
100
AcDbSymbolTableRecord
100
AcDbRegAppTableRecord
  2
ACAD
 70
     0
  0
ENDTAB
  0
TABLE
  2
DIMSTYLE
  5
A
330
0
100
AcDbSymbolTable
 70
     1
  0
DIMSTYLE
105
27
330
A
100
AcDbSymbolTableRecord
100
AcDbDimStyleTableRecord
  2
ISO-25
 70
     0
  3

  4

  5

  6

  7

 40
1.0
 41
2.5
 42
0.625
 43
3.75
 44
1.25
 45
0.0
 46
0.0
 47
0.0
 48
0.0
140
2.5
141
2.5
142
0.0
143
0.03937007874016
144
1.0
145
0.0
146
1.0
147
0.625
 71
     0
 72
     0
 73
     0
 74
     0
 75
     0
 76
     0
 77
     1
 78
     8
170
     0
171
     3
172
     1
173
     0
174
     0
175
     0
176
     0
177
     0
178
     0
270
     2
271
     2
272
     2
273
     2
274
     3
340
11
275
     0
280
     0
281
     0
282
     0
283
     0
284
     8
285
     0
286
     0
287
     3
288
     0
  0
ENDTAB
  0
TABLE
  2
BLOCK_RECORD
  5
1
330
0
100
AcDbSymbolTable
 70
     1
  0
BLOCK_RECORD
  5
1F
330
1
100
AcDbSymbolTableRecord
100
AcDbBlockTableRecord
  2
*MODEL_SPACE
  0
BLOCK_RECORD
  5
1B
330
1
100
AcDbSymbolTableRecord
100
AcDbBlockTableRecord
  2
*PAPER_SPACE
  0
ENDTAB
  0
ENDSEC
  0
SECTION
  2
BLOCKS
  0
BLOCK
  5
20
330
1F
100
AcDbEntity
  8
0
100
AcDbBlockBegin
  2
*MODEL_SPACE
 70
     0
 10
0.0
 20
0.0
 30
0.0
  3
*MODEL_SPACE
  1

  0
ENDBLK
  5
21
330
1F
100
AcDbEntity
  8
0
100
AcDbBlockEnd
  0
BLOCK
  5
1C
330
1B
100
AcDbEntity
 67
     1
  8
0
100
AcDbBlockBegin
  2
*PAPER_SPACE
  1

  0
ENDBLK
  5
1D
330
1B
100
AcDbEntity
 67
     1
  8
0
100
AcDbBlockEnd
  0
ENDSEC
  0
SECTION
  2
ENTITIES
  0
LWPOLYLINE
  5
100
100
AcDbEntity
  8
Layer_1
 62
7
100
AcDbPolyline
 90
39
 70
0
 10
5.896145
 20
7.181792
 30
0.0
 10
5.744186
 20
7.162360
 30
0.0
 10
5.593727
 20
7.115352
 30
0.0
 10
5.447564
 20
7.042709
 30
0.0
 10
5.308495
 20
6.946368
 30
0.0
 10
5.137222
 20
6.855433
 30
0.0
 10
4.962415
 20
6.783377
 30
0.0
 10
4.788900
 20
6.727862
 30
0.0
 10
4.621506
 20
6.686547
 30
0.0
 10
4.324396
 20
6.637166
 30
0.0
 10
4.109712
 20
6.616521
 30
0.0
 10
1.526166
 20
6.558808
 30
0.0
 10
1.393784
 20
6.540002
 30
0.0
 10
1.281526
 20
6.495784
 30
0.0
 10
1.188633
 20
6.432165
 30
0.0
 10
1.114346
 20
6.355157
 30
0.0
 10
1.057905
 20
6.270770
 30
0.0
 10
1.018552
 20
6.185016
 30
0.0
 10
0.995526
 20
6.103903
 30
0.0
 10
0.988069
 20
6.033445
 30
0.0
 10
0.990330
 20
5.863560
 30
0.0
 10
6.864907
 20
5.863560
 30
0.0
 10
6.843268
 20
6.037835
 30
0.0
 10
6.814274
 20
6.198356
 30
0.0
 10
6.778390
 20
6.345446
 30
0.0
 10
6.736080
 20
6.479426
 30
0.0
 10
6.687809
 20
6.600619
 30
0.0
 10
6.634040
 20
6.709346
 30
0.0
 10
6.575238
 20
6.805929
 30
0.0
 10
6.511867
 20
6.890690
 30
0.0
 10
6.444392
 20
6.963950
 30
0.0
 10
6.373276
 20
7.026032
 30
0.0
 10
6.298985
 20
7.077256
 30
0.0
 10
6.221983
 20
7.117946
 30
0.0
 10
6.142733
 20
7.148423
 30
0.0
 10
6.061701
 20
7.169008
 30
0.0
 10
5.979350
 20
7.180024
 30
0.0
 10
5.896146
 20
7.181792
 30
0.0
 10
5.896145
 20
7.181792
 30
0.0
  0
LWPOLYLINE
  5
101
100
AcDbEntity
  8
Layer_1
 62
7
100
AcDbPolyline
 90
6
 70
0
 10
0.986581
 20
5.763129
 30
0.0
 10
0.986581
 20
1.852753
 30
0.0
 10
6.871576
 20
1.852753
 30
0.0
 10
6.871576
 20
5.763129
 30
0.0
 10
0.986581
 20
5.763129
 30
0.0
 10
0.986581
 20
5.763129
 30
0.0
  0
LWPOLYLINE
  5
102
100
AcDbEntity
  8
Layer_1
 62
7
100
AcDbPolyline
 90
35
 70
0
 10
0.990329
 20
1.753920
 30
0.0
 10
0.988069
 20
1.582437
 30
0.0
 10
0.995526
 20
1.511978
 30
0.0
 10
1.018551
 20
1.430866
 30
0.0
 10
1.057905
 20
1.345111
 30
0.0
 10
1.114346
 20
1.260724
 30
0.0
 10
1.188633
 20
1.183716
 30
0.0
 10
1.281525
 20
1.120098
 30
0.0
 10
1.393783
 20
1.075880
 30
0.0
 10
1.526165
 20
1.057073
 30
0.0
 10
4.109711
 20
0.999416
 30
0.0
 10
4.324395
 20
0.978763
 30
0.0
 10
4.621505
 20
0.929362
 30
0.0
 10
4.788899
 20
0.888037
 30
0.0
 10
4.962414
 20
0.832513
 30
0.0
 10
5.137222
 20
0.760451
 30
0.0
 10
5.308494
 20
0.669514
 30
0.0
 10
5.419131
 20
0.590584
 30
0.0
 10
5.534665
 20
0.526588
 30
0.0
 10
5.653666
 20
0.478517
 30
0.0
 10
5.774701
 20
0.447363
 30
0.0
 10
5.896341
 20
0.434116
 30
0.0
 10
6.017155
 20
0.439770
 30
0.0
 10
6.135712
 20
0.465315
 30
0.0
 10
6.250581
 20
0.511743
 30
0.0
 10
6.360331
 20
0.580044
 30
0.0
 10
6.463531
 20
0.671212
 30
0.0
 10
6.558752
 20
0.786236
 30
0.0
 10
6.644561
 20
0.926110
 30
0.0
 10
6.719528
 20
1.091823
 30
0.0
 10
6.782223
 20
1.284368
 30
0.0
 10
6.831214
 20
1.504737
 30
0.0
 10
6.865071
 20
1.753920
 30
0.0
 10
0.990329
 20
1.753920
 30
0.0
 10
0.990329
 20
1.753920
 30
0.0
  0
LWPOLYLINE
  5
103
100
AcDbEntity
  8
Layer_1
 62
7
100
AcDbPolyline
 90
7
 70
1
 10
0.000000
 20
7.615927
 30
0.0
 10
0.000000
 20
7.610923
 30
0.0
 10
0.000000
 20
0.000001
 30
0.0
 10
7.858157
 20
0.000001
 30
0.0
 10
7.858157
 20
7.615927
 30
0.0
 10
0.000000
 20
7.615927
 30
0.0
 10
0.000000
 20
7.615927
 30
0.0
  0
LWPOLYLINE
  5
104
100
AcDbEntity
  8
Layer_1
 62
7
100
AcDbPolyline
 90
6
 70
1
 10
0.009999
 20
7.605928
 30
0.0
 10
7.848158
 20
7.605928
 30
0.0
 10
7.848158
 20
0.010000
 30
0.0
 10
0.009999
 20
0.010000
 30
0.0
 10
0.009999
 20
7.605928
 30
0.0
 10
0.009999
 20
7.605928
 30
0.0
  0
ENDSEC
  0
SECTION
  2
OBJECTS
  0
DICTIONARY
  5
C
330
0
100
AcDbDictionary
  3
ACAD_GROUP
350
D
  3
ACAD_MLINESTYLE
350
17
  0
DICTIONARY
  5
D
330
C
100
AcDbDictionary
  0
DICTIONARY
  5
1A
330
C
100
AcDbDictionary
  0
DICTIONARY
  5
17
330
C
100
AcDbDictionary
  3
STANDARD
350
18
  0
DICTIONARY
  5
19
330
C
100
AcDbDictionary
  0
ENDSEC
  0
EOF
