  0
SECTION
  2
HEADER
  9
$ACADVER
  1
AC1014
  9
$HANDSEED
  5
FFFF
  9
$MEASUREMENT
 70
     1
  0
ENDSEC
  0
SECTION
  2
TABLES
  0
TABLE
  2
VPORT
  5
8
330
0
100
AcDbSymbolTable
 70
     4
  0
VPORT
  5
2E
330
8
100
AcDbSymbolTableRecord
100
AcDbViewportTableRecord
  2
*ACTIVE
 70
     0
 10
0.0
 20
0.0
 11
1.0
 21
1.0
 12
210.0
 22
148.5
 13
0.0
 23
0.0
 14
10.0
 24
10.0
 15
10.0
 25
10.0
 16
0.0
 26
0.0
 36
1.0
 17
0.0
 27
0.0
 37
0.0
 40
341.0
 41
1.24
 42
50.0
 43
0.0
 44
0.0
 50
0.0
 51
0.0
 71
     0
 72
   100
 73
     1
 74
     3
 75
     0
 76
     0
 77
     0
 78
     0
  0
ENDTAB
  0
TABLE
  2
LTYPE
  5
5
330
0
100
AcDbSymbolTable
 70
     1
  0
LTYPE
  5
14
330
5
100
AcDbSymbolTableRecord
100
AcDbLinetypeTableRecord
  2
BYBLOCK
 70
     0
  3

 72
    65
 73
     0
 40
0.0
  0
LTYPE
  5
15
330
5
100
AcDbSymbolTableRecord
100
AcDbLinetypeTableRecord
  2
BYLAYER
 70
     0
  3

 72
    65
 73
     0
 40
0.0
  0
LTYPE
  5
16
330
5
100
AcDbSymbolTableRecord
100
AcDbLinetypeTableRecord
  2
CONTINUOUS
 70
     0
  3
Solid line
 72
    65
 73
     0
 40
0.0
  0
ENDTAB
  0
TABLE
  2
LAYER
  5
2
100
AcDbSymbolTable
 70
2
  0
LAYER
  5
50
100
AcDbSymbolTableRecord
100
AcDbLayerTableRecord
  2
0
 70
0
  6
CONTINUOUS
  0
LAYER
  5
51
100
AcDbSymbolTableRecord
100
AcDbLayerTableRecord
  2
Layer_1
 70
0
  6
CONTINUOUS
  0
ENDTAB
  0
TABLE
  2
STYLE
  5
3
330
0
100
AcDbSymbolTable
 70
     1
  0
STYLE
  5
11
330
3
100
AcDbSymbolTableRecord
100
AcDbTextStyleTableRecord
  2
STANDARD
 70
     0
 40
0.0
 41
1.0
 50
0.0
 71
     0
 42
2.5
  3
txt
  4

  0
ENDTAB
  0
TABLE
  2
VIEW
  5
6
330
0
100
AcDbSymbolTable
 70
     0
  0
ENDTAB
  0
TABLE
  2
UCS
  5
7
330
0
100
AcDbSymbolTable
 70
     0
  0
ENDTAB
  0
TABLE
  2
APPID
  5
9
330
0
100
AcDbSymbolTable
 70
     2
  0
APPID
  5
12
330
9
100
AcDbSymbolTableRecord
100
AcDbRegAppTableRecord
  2
ACAD
 70
     0
  0
ENDTAB
  0
TABLE
  2
DIMSTYLE
  5
A
330
0
100
AcDbSymbolTable
 70
     1
  0
DIMSTYLE
105
27
330
A
100
AcDbSymbolTableRecord
100
AcDbDimStyleTableRecord
  2
ISO-25
 70
     0
  3

  4

  5

  6

  7

 40
1.0
 41
2.5
 42
0.625
 43
3.75
 44
1.25
 45
0.0
 46
0.0
 47
0.0
 48
0.0
140
2.5
141
2.5
142
0.0
143
0.03937007874016
144
1.0
145
0.0
146
1.0
147
0.625
 71
     0
 72
     0
 73
     0
 74
     0
 75
     0
 76
     0
 77
     1
 78
     8
170
     0
171
     3
172
     1
173
     0
174
     0
175
     0
176
     0
177
     0
178
     0
270
     2
271
     2
272
     2
273
     2
274
     3
340
11
275
     0
280
     0
281
     0
282
     0
283
     0
284
     8
285
     0
286
     0
287
     3
288
     0
  0
ENDTAB
  0
TABLE
  2
BLOCK_RECORD
  5
1
330
0
100
AcDbSymbolTable
 70
     1
  0
BLOCK_RECORD
  5
1F
330
1
100
AcDbSymbolTableRecord
100
AcDbBlockTableRecord
  2
*MODEL_SPACE
  0
BLOCK_RECORD
  5
1B
330
1
100
AcDbSymbolTableRecord
100
AcDbBlockTableRecord
  2
*PAPER_SPACE
  0
ENDTAB
  0
ENDSEC
  0
SECTION
  2
BLOCKS
  0
BLOCK
  5
20
330
1F
100
AcDbEntity
  8
0
100
AcDbBlockBegin
  2
*MODEL_SPACE
 70
     0
 10
0.0
 20
0.0
 30
0.0
  3
*MODEL_SPACE
  1

  0
ENDBLK
  5
21
330
1F
100
AcDbEntity
  8
0
100
AcDbBlockEnd
  0
BLOCK
  5
1C
330
1B
100
AcDbEntity
 67
     1
  8
0
100
AcDbBlockBegin
  2
*PAPER_SPACE
  1

  0
ENDBLK
  5
1D
330
1B
100
AcDbEntity
 67
     1
  8
0
100
AcDbBlockEnd
  0
ENDSEC
  0
SECTION
  2
ENTITIES
  0
LWPOLYLINE
  5
100
100
AcDbEntity
  8
Layer_1
 62
7
100
AcDbPolyline
 90
7
 70
1
 10
0.000001
 20
7.615926
 30
0.0
 10
0.000001
 20
7.610923
 30
0.0
 10
0.000001
 20
0.000000
 30
0.0
 10
7.858154
 20
0.000000
 30
0.0
 10
7.858154
 20
7.615926
 30
0.0
 10
0.000001
 20
7.615926
 30
0.0
 10
0.000001
 20
7.615926
 30
0.0
  0
LWPOLYLINE
  5
101
100
AcDbEntity
  8
Layer_1
 62
7
100
AcDbPolyline
 90
6
 70
1
 10
0.010003
 20
7.605927
 30
0.0
 10
7.848156
 20
7.605927
 30
0.0
 10
7.848156
 20
0.010000
 30
0.0
 10
0.010003
 20
0.010000
 30
0.0
 10
0.010003
 20
7.605927
 30
0.0
 10
0.010003
 20
7.605927
 30
0.0
  0
LWPOLYLINE
  5
102
100
AcDbEntity
  8
Layer_1
 62
7
100
AcDbPolyline
 90
7
 70
1
 10
0.000000
 20
7.615926
 30
0.0
 10
0.000000
 20
7.610923
 30
0.0
 10
0.000000
 20
0.000000
 30
0.0
 10
7.858158
 20
0.000000
 30
0.0
 10
7.858158
 20
7.615926
 30
0.0
 10
0.000000
 20
7.615926
 30
0.0
 10
0.000000
 20
7.615926
 30
0.0
  0
LWPOLYLINE
  5
103
100
AcDbEntity
  8
Layer_1
 62
7
100
AcDbPolyline
 90
6
 70
1
 10
0.010007
 20
7.605927
 30
0.0
 10
7.848159
 20
7.605927
 30
0.0
 10
7.848159
 20
0.010007
 30
0.0
 10
0.010007
 20
0.010007
 30
0.0
 10
0.010007
 20
7.605927
 30
0.0
 10
0.010007
 20
7.605927
 30
0.0
  0
LWPOLYLINE
  5
104
100
AcDbEntity
  8
Layer_1
 62
7
100
AcDbPolyline
 90
155
 70
0
 10
5.278215
 20
2.665741
 30
0.0
 10
5.252445
 20
2.664868
 30
0.0
 10
5.226948
 20
2.661761
 30
0.0
 10
5.201848
 20
2.656519
 30
0.0
 10
5.177268
 20
2.649236
 30
0.0
 10
5.153331
 20
2.640011
 30
0.0
 10
5.130160
 20
2.628940
 30
0.0
 10
5.107880
 20
2.616120
 30
0.0
 10
5.086613
 20
2.601648
 30
0.0
 10
5.066483
 20
2.585620
 30
0.0
 10
5.047612
 20
2.568134
 30
0.0
 10
5.030126
 20
2.549286
 30
0.0
 10
5.014146
 20
2.529173
 30
0.0
 10
4.999796
 20
2.507893
 30
0.0
 10
4.987200
 20
2.485541
 30
0.0
 10
4.976480
 20
2.462215
 30
0.0
 10
4.967761
 20
2.438011
 30
0.0
 10
4.958491
 20
2.406163
 30
0.0
 10
4.952201
 20
2.373730
 30
0.0
 10
4.948714
 20
2.340896
 30
0.0
 10
4.947854
 20
2.307845
 30
0.0
 10
4.949444
 20
2.274760
 30
0.0
 10
4.953310
 20
2.241826
 30
0.0
 10
4.959274
 20
2.209227
 30
0.0
 10
4.967160
 20
2.177147
 30
0.0
 10
4.975662
 20
2.150056
 30
0.0
 10
4.981261
 20
2.137050
 30
0.0
 10
4.988378
 20
2.124869
 30
0.0
 10
4.994131
 20
2.121680
 30
0.0
 10
5.000544
 20
2.119881
 30
0.0
 10
5.007262
 20
2.119449
 30
0.0
 10
5.013931
 20
2.120360
 30
0.0
 10
5.020196
 20
2.122590
 30
0.0
 10
5.025703
 20
2.126118
 30
0.0
 10
5.030098
 20
2.130919
 30
0.0
 10
5.033026
 20
2.136970
 30
0.0
 10
5.033165
 20
2.144663
 30
0.0
 10
5.032069
 20
2.152123
 30
0.0
 10
5.027528
 20
2.166613
 30
0.0
 10
5.022123
 20
2.180982
 30
0.0
 10
5.018575
 20
2.195769
 30
0.0
 10
5.011574
 20
2.225388
 30
0.0
 10
5.006466
 20
2.255510
 30
0.0
 10
5.003419
 20
2.285937
 30
0.0
 10
5.002600
 20
2.316471
 30
0.0
 10
5.004175
 20
2.346914
 30
0.0
 10
5.008312
 20
2.377069
 30
0.0
 10
5.015176
 20
2.406737
 30
0.0
 10
5.024935
 20
2.435721
 30
0.0
 10
5.032443
 20
2.452759
 30
0.0
 10
5.041102
 20
2.469247
 30
0.0
 10
5.061640
 20
2.500339
 30
0.0
 10
5.086073
 20
2.528526
 30
0.0
 10
5.113924
 20
2.553335
 30
0.0
 10
5.128983
 20
2.564325
 30
0.0
 10
5.144718
 20
2.574294
 30
0.0
 10
5.161069
 20
2.583183
 30
0.0
 10
5.177978
 20
2.590933
 30
0.0
 10
5.195384
 20
2.597484
 30
0.0
 10
5.213228
 20
2.602778
 30
0.0
 10
5.231450
 20
2.606756
 30
0.0
 10
5.249992
 20
2.609359
 30
0.0
 10
5.266928
 20
2.610570
 30
0.0
 10
5.284006
 20
2.610358
 30
0.0
 10
5.301020
 20
2.608642
 30
0.0
 10
5.317762
 20
2.605343
 30
0.0
 10
5.334025
 20
2.600381
 30
0.0
 10
5.349603
 20
2.593674
 30
0.0
 10
5.364288
 20
2.585145
 30
0.0
 10
5.377873
 20
2.574712
 30
0.0
 10
5.393790
 20
2.559437
 30
0.0
 10
5.407636
 20
2.542146
 30
0.0
 10
5.419183
 20
2.523194
 30
0.0
 10
5.428200
 20
2.502935
 30
0.0
 10
5.434456
 20
2.481724
 30
0.0
 10
5.437721
 20
2.459916
 30
0.0
 10
5.437765
 20
2.437865
 30
0.0
 10
5.434358
 20
2.415927
 30
0.0
 10
5.428592
 20
2.401528
 30
0.0
 10
5.420219
 20
2.388423
 30
0.0
 10
5.409640
 20
2.376949
 30
0.0
 10
5.397260
 20
2.367441
 30
0.0
 10
5.383482
 20
2.360233
 30
0.0
 10
5.368707
 20
2.355663
 30
0.0
 10
5.353340
 20
2.354065
 30
0.0
 10
5.337784
 20
2.355774
 30
0.0
 10
5.329500
 20
2.359592
 30
0.0
 10
5.322328
 20
2.365175
 30
0.0
 10
5.316432
 20
2.372139
 30
0.0
 10
5.311976
 20
2.380099
 30
0.0
 10
5.320249
 20
2.375688
 30
0.0
 10
5.329158
 20
2.373601
 30
0.0
 10
5.338313
 20
2.373655
 30
0.0
 10
5.347320
 20
2.375665
 30
0.0
 10
5.355786
 20
2.379446
 30
0.0
 10
5.363320
 20
2.384814
 30
0.0
 10
5.369528
 20
2.391585
 30
0.0
 10
5.374017
 20
2.399573
 30
0.0
 10
5.376646
 20
2.408826
 30
0.0
 10
5.377201
 20
2.418205
 30
0.0
 10
5.375870
 20
2.427472
 30
0.0
 10
5.372844
 20
2.436392
 30
0.0
 10
5.368312
 20
2.444727
 30
0.0
 10
5.362466
 20
2.452241
 30
0.0
 10
5.355495
 20
2.458696
 30
0.0
 10
5.347589
 20
2.463856
 30
0.0
 10
5.338609
 20
2.467931
 30
0.0
 10
5.329221
 20
2.470026
 30
0.0
 10
5.319645
 20
2.470302
 30
0.0
 10
5.310100
 20
2.468921
 30
0.0
 10
5.300806
 20
2.466043
 30
0.0
 10
5.291980
 20
2.461827
 30
0.0
 10
5.283843
 20
2.456436
 30
0.0
 10
5.276613
 20
2.450030
 30
0.0
 10
5.268999
 20
2.441453
 30
0.0
 10
5.262772
 20
2.431845
 30
0.0
 10
5.257997
 20
2.421439
 30
0.0
 10
5.254740
 20
2.410465
 30
0.0
 10
5.253066
 20
2.399155
 30
0.0
 10
5.253038
 20
2.387739
 30
0.0
 10
5.254723
 20
2.376449
 30
0.0
 10
5.258186
 20
2.365515
 30
0.0
 10
5.264833
 20
2.350908
 30
0.0
 10
5.273747
 20
2.337630
 30
0.0
 10
5.284615
 20
2.325894
 30
0.0
 10
5.297121
 20
2.315913
 30
0.0
 10
5.310954
 20
2.307900
 30
0.0
 10
5.325800
 20
2.302067
 30
0.0
 10
5.341344
 20
2.298626
 30
0.0
 10
5.357272
 20
2.297790
 30
0.0
 10
5.373864
 20
2.299717
 30
0.0
 10
5.390035
 20
2.303694
 30
0.0
 10
5.405616
 20
2.309582
 30
0.0
 10
5.420434
 20
2.317243
 30
0.0
 10
5.434318
 20
2.326541
 30
0.0
 10
5.447096
 20
2.337336
 30
0.0
 10
5.458598
 20
2.349492
 30
0.0
 10
5.468651
 20
2.362870
 30
0.0
 10
5.480542
 20
2.383869
 30
0.0
 10
5.488685
 20
2.406531
 30
0.0
 10
5.492874
 20
2.430247
 30
0.0
 10
5.492904
 20
2.454411
 30
0.0
 10
5.489475
 20
2.484560
 30
0.0
 10
5.481922
 20
2.513967
 30
0.0
 10
5.470513
 20
2.542142
 30
0.0
 10
5.455513
 20
2.568597
 30
0.0
 10
5.437190
 20
2.592843
 30
0.0
 10
5.415809
 20
2.614390
 30
0.0
 10
5.391639
 20
2.632749
 30
0.0
 10
5.364946
 20
2.647431
 30
0.0
 10
5.344115
 20
2.655528
 30
0.0
 10
5.322567
 20
2.661353
 30
0.0
 10
5.300525
 20
2.664794
 30
0.0
 10
5.278215
 20
2.665741
 30
0.0
 10
5.278215
 20
2.665741
 30
0.0
  0
LWPOLYLINE
  5
105
100
AcDbEntity
  8
Layer_1
 62
7
100
AcDbPolyline
 90
271
 70
0
 10
6.306318
 20
5.138905
 30
0.0
 10
6.329249
 20
5.074020
 30
0.0
 10
6.349737
 20
5.008417
 30
0.0
 10
6.367605
 20
4.942179
 30
0.0
 10
6.382679
 20
4.875386
 30
0.0
 10
6.394782
 20
4.808121
 30
0.0
 10
6.403738
 20
4.740464
 30
0.0
 10
6.409373
 20
4.672498
 30
0.0
 10
6.411509
 20
4.604305
 30
0.0
 10
6.411503
 20
4.547874
 30
0.0
 10
6.409839
 20
4.491448
 30
0.0
 10
6.406024
 20
4.435130
 30
0.0
 10
6.399568
 20
4.379024
 30
0.0
 10
6.391782
 20
4.337367
 30
0.0
 10
6.382144
 20
4.296037
 30
0.0
 10
6.370704
 20
4.255086
 30
0.0
 10
6.357513
 20
4.214564
 30
0.0
 10
6.342620
 20
4.174523
 30
0.0
 10
6.326076
 20
4.135014
 30
0.0
 10
6.307931
 20
4.096089
 30
0.0
 10
6.288235
 20
4.057798
 30
0.0
 10
6.257585
 20
4.005859
 30
0.0
 10
6.223693
 20
3.955570
 30
0.0
 10
6.186657
 20
3.907132
 30
0.0
 10
6.146575
 20
3.860743
 30
0.0
 10
6.103546
 20
3.816605
 30
0.0
 10
6.057667
 20
3.774915
 30
0.0
 10
6.009038
 20
3.735874
 30
0.0
 10
5.957756
 20
3.699681
 30
0.0
 10
5.919535
 20
3.676447
 30
0.0
 10
5.880042
 20
3.655085
 30
0.0
 10
5.839392
 20
3.635614
 30
0.0
 10
5.797702
 20
3.618051
 30
0.0
 10
5.755087
 20
3.602416
 30
0.0
 10
5.711664
 20
3.588726
 30
0.0
 10
5.667547
 20
3.576999
 30
0.0
 10
5.622854
 20
3.567254
 30
0.0
 10
5.574413
 20
3.561080
 30
0.0
 10
5.525599
 20
3.558122
 30
0.0
 10
5.427665
 20
3.556128
 30
0.0
 10
5.401129
 20
3.556803
 30
0.0
 10
5.374792
 20
3.559323
 30
0.0
 10
5.348723
 20
3.563546
 30
0.0
 10
5.322989
 20
3.569326
 30
0.0
 10
5.297657
 20
3.576519
 30
0.0
 10
5.272795
 20
3.584982
 30
0.0
 10
5.224752
 20
3.605141
 30
0.0
 10
5.183670
 20
3.626553
 30
0.0
 10
5.144812
 20
3.650993
 30
0.0
 10
5.108282
 20
3.678212
 30
0.0
 10
5.074188
 20
3.707959
 30
0.0
 10
5.042637
 20
3.739983
 30
0.0
 10
5.013733
 20
3.774033
 30
0.0
 10
4.987585
 20
3.809860
 30
0.0
 10
4.964299
 20
3.847213
 30
0.0
 10
4.942383
 20
3.889017
 30
0.0
 10
4.923706
 20
3.932116
 30
0.0
 10
4.908369
 20
3.976290
 30
0.0
 10
4.896474
 20
4.021322
 30
0.0
 10
4.888122
 20
4.066993
 30
0.0
 10
4.883417
 20
4.113082
 30
0.0
 10
4.882459
 20
4.159372
 30
0.0
 10
4.885351
 20
4.205643
 30
0.0
 10
4.893281
 20
4.245904
 30
0.0
 10
4.906112
 20
4.285204
 30
0.0
 10
4.923627
 20
4.323034
 30
0.0
 10
4.945604
 20
4.358884
 30
0.0
 10
4.971825
 20
4.392245
 30
0.0
 10
4.986458
 20
4.407832
 30
0.0
 10
5.002070
 20
4.422605
 30
0.0
 10
5.018633
 20
4.436501
 30
0.0
 10
5.036121
 20
4.449456
 30
0.0
 10
5.054504
 20
4.461406
 30
0.0
 10
5.073756
 20
4.472288
 30
0.0
 10
5.099775
 20
4.484436
 30
0.0
 10
5.127117
 20
4.494273
 30
0.0
 10
5.155440
 20
4.501616
 30
0.0
 10
5.184398
 20
4.506280
 30
0.0
 10
5.213649
 20
4.508082
 30
0.0
 10
5.242848
 20
4.506838
 30
0.0
 10
5.271650
 20
4.502364
 30
0.0
 10
5.299712
 20
4.494476
 30
0.0
 10
5.315082
 20
4.487416
 30
0.0
 10
5.329412
 20
4.478937
 30
0.0
 10
5.342748
 20
4.469222
 30
0.0
 10
5.355141
 20
4.458456
 30
0.0
 10
5.377281
 20
4.434500
 30
0.0
 10
5.396215
 20
4.408536
 30
0.0
 10
5.406286
 20
4.389232
 30
0.0
 10
5.413943
 20
4.369063
 30
0.0
 10
5.419172
 20
4.348269
 30
0.0
 10
5.421959
 20
4.327092
 30
0.0
 10
5.422289
 20
4.305770
 30
0.0
 10
5.420148
 20
4.284544
 30
0.0
 10
5.415522
 20
4.263654
 30
0.0
 10
5.408396
 20
4.243339
 30
0.0
 10
5.401121
 20
4.230898
 30
0.0
 10
5.391757
 20
4.219642
 30
0.0
 10
5.380603
 20
4.209792
 30
0.0
 10
5.367959
 20
4.201570
 30
0.0
 10
5.354124
 20
4.195198
 30
0.0
 10
5.339396
 20
4.190895
 30
0.0
 10
5.324076
 20
4.188884
 30
0.0
 10
5.308461
 20
4.189384
 30
0.0
 10
5.301024
 20
4.190735
 30
0.0
 10
5.294100
 20
4.193243
 30
0.0
 10
5.282141
 20
4.201180
 30
0.0
 10
5.273289
 20
4.212093
 30
0.0
 10
5.268252
 20
4.224878
 30
0.0
 10
5.266865
 20
4.238355
 30
0.0
 10
5.269449
 20
4.251836
 30
0.0
 10
5.276164
 20
4.263872
 30
0.0
 10
5.281122
 20
4.268894
 30
0.0
 10
5.287172
 20
4.273010
 30
0.0
 10
5.296467
 20
4.274815
 30
0.0
 10
5.306292
 20
4.275617
 30
0.0
 10
5.315471
 20
4.277656
 30
0.0
 10
5.319450
 20
4.279841
 30
0.0
 10
5.322828
 20
4.283176
 30
0.0
 10
5.325705
 20
4.289792
 30
0.0
 10
5.324882
 20
4.296667
 30
0.0
 10
5.321249
 20
4.303002
 30
0.0
 10
5.315701
 20
4.308002
 30
0.0
 10
5.304734
 20
4.314958
 30
0.0
 10
5.292449
 20
4.319283
 30
0.0
 10
5.279386
 20
4.321097
 30
0.0
 10
5.266083
 20
4.320518
 30
0.0
 10
5.253082
 20
4.317666
 30
0.0
 10
5.240921
 20
4.312659
 30
0.0
 10
5.230140
 20
4.305617
 30
0.0
 10
5.221278
 20
4.296658
 30
0.0
 10
5.214472
 20
4.286511
 30
0.0
 10
5.209544
 20
4.275665
 30
0.0
 10
5.206359
 20
4.264299
 30
0.0
 10
5.204782
 20
4.252594
 30
0.0
 10
5.204678
 20
4.240728
 30
0.0
 10
5.205913
 20
4.228882
 30
0.0
 10
5.211857
 20
4.205965
 30
0.0
 10
5.219267
 20
4.189658
 30
0.0
 10
5.228814
 20
4.174215
 30
0.0
 10
5.240581
 20
4.160155
 30
0.0
 10
5.254652
 20
4.147998
 30
0.0
 10
5.271943
 20
4.138863
 30
0.0
 10
5.290982
 20
4.133516
 30
0.0
 10
5.310889
 20
4.131845
 30
0.0
 10
5.330787
 20
4.133737
 30
0.0
 10
5.356783
 20
4.139469
 30
0.0
 10
5.381327
 20
4.148933
 30
0.0
 10
5.403990
 20
4.161730
 30
0.0
 10
5.424347
 20
4.177459
 30
0.0
 10
5.441969
 20
4.195721
 30
0.0
 10
5.456429
 20
4.216115
 30
0.0
 10
5.467300
 20
4.238241
 30
0.0
 10
5.474155
 20
4.261700
 30
0.0
 10
5.478326
 20
4.287903
 30
0.0
 10
5.479558
 20
4.314381
 30
0.0
 10
5.477862
 20
4.340849
 30
0.0
 10
5.473252
 20
4.367018
 30
0.0
 10
5.465739
 20
4.392602
 30
0.0
 10
5.455335
 20
4.417313
 30
0.0
 10
5.442054
 20
4.440866
 30
0.0
 10
5.425907
 20
4.462972
 30
0.0
 10
5.401874
 20
4.490075
 30
0.0
 10
5.388660
 20
4.502788
 30
0.0
 10
5.374597
 20
4.514678
 30
0.0
 10
5.359648
 20
4.525547
 30
0.0
 10
5.343774
 20
4.535197
 30
0.0
 10
5.326938
 20
4.543428
 30
0.0
 10
5.309102
 20
4.550042
 30
0.0
 10
5.283595
 20
4.556825
 30
0.0
 10
5.257558
 20
4.561184
 30
0.0
 10
5.231184
 20
4.563249
 30
0.0
 10
5.204669
 20
4.563148
 30
0.0
 10
5.178205
 20
4.561010
 30
0.0
 10
5.151989
 20
4.556965
 30
0.0
 10
5.126213
 20
4.551141
 30
0.0
 10
5.101072
 20
4.543668
 30
0.0
 10
5.067659
 20
4.530528
 30
0.0
 10
5.035970
 20
4.514468
 30
0.0
 10
5.006115
 20
4.495753
 30
0.0
 10
4.978204
 20
4.474648
 30
0.0
 10
4.952344
 20
4.451415
 30
0.0
 10
4.928646
 20
4.426319
 30
0.0
 10
4.907218
 20
4.399624
 30
0.0
 10
4.888170
 20
4.371593
 30
0.0
 10
4.874095
 20
4.347201
 30
0.0
 10
4.861839
 20
4.322033
 30
0.0
 10
4.851417
 20
4.296200
 30
0.0
 10
4.842843
 20
4.269810
 30
0.0
 10
4.836132
 20
4.242974
 30
0.0
 10
4.831300
 20
4.215802
 30
0.0
 10
4.828361
 20
4.188403
 30
0.0
 10
4.827331
 20
4.160888
 30
0.0
 10
4.827872
 20
4.125455
 30
0.0
 10
4.830571
 20
4.090147
 30
0.0
 10
4.835293
 20
4.055020
 30
0.0
 10
4.841902
 20
4.020127
 30
0.0
 10
4.850263
 20
3.985524
 30
0.0
 10
4.860241
 20
3.951264
 30
0.0
 10
4.871700
 20
3.917402
 30
0.0
 10
4.884507
 20
3.883993
 30
0.0
 10
4.908321
 20
3.834184
 30
0.0
 10
4.936652
 20
3.786285
 30
0.0
 10
4.969295
 20
3.740681
 30
0.0
 10
5.006044
 20
3.697755
 30
0.0
 10
5.025895
 20
3.677416
 30
0.0
 10
5.046696
 20
3.657891
 30
0.0
 10
5.068421
 20
3.639228
 30
0.0
 10
5.091044
 20
3.621474
 30
0.0
 10
5.114541
 20
3.604678
 30
0.0
 10
5.138885
 20
3.588887
 30
0.0
 10
5.164051
 20
3.574150
 30
0.0
 10
5.190014
 20
3.560514
 30
0.0
 10
5.221671
 20
3.545853
 30
0.0
 10
5.254328
 20
3.533110
 30
0.0
 10
5.287838
 20
3.522343
 30
0.0
 10
5.322054
 20
3.513608
 30
0.0
 10
5.356828
 20
3.506965
 30
0.0
 10
5.392015
 20
3.502470
 30
0.0
 10
5.427465
 20
3.500182
 30
0.0
 10
5.463033
 20
3.500158
 30
0.0
 10
5.506209
 20
3.501009
 30
0.0
 10
5.549319
 20
3.503675
 30
0.0
 10
5.592241
 20
3.508200
 30
0.0
 10
5.634855
 20
3.514629
 30
0.0
 10
5.677039
 20
3.523006
 30
0.0
 10
5.718672
 20
3.533374
 30
0.0
 10
5.759634
 20
3.545778
 30
0.0
 10
5.799803
 20
3.560261
 30
0.0
 10
5.833972
 20
3.573764
 30
0.0
 10
5.867531
 20
3.588447
 30
0.0
 10
5.900442
 20
3.604278
 30
0.0
 10
5.932668
 20
3.621226
 30
0.0
 10
5.964171
 20
3.639259
 30
0.0
 10
5.994913
 20
3.658347
 30
0.0
 10
6.024857
 20
3.678456
 30
0.0
 10
6.053967
 20
3.699555
 30
0.0
 10
6.082203
 20
3.721614
 30
0.0
 10
6.109529
 20
3.744600
 30
0.0
 10
6.135908
 20
3.768482
 30
0.0
 10
6.161301
 20
3.793228
 30
0.0
 10
6.185672
 20
3.818806
 30
0.0
 10
6.208983
 20
3.845186
 30
0.0
 10
6.231196
 20
3.872335
 30
0.0
 10
6.252274
 20
3.900222
 30
0.0
 10
6.281285
 20
3.941485
 30
0.0
 10
6.308323
 20
3.983832
 30
0.0
 10
6.333372
 20
4.027176
 30
0.0
 10
6.356414
 20
4.071433
 30
0.0
 10
6.377434
 20
4.116516
 30
0.0
 10
6.396415
 20
4.162339
 30
0.0
 10
6.413340
 20
4.208816
 30
0.0
 10
6.428193
 20
4.255861
 30
0.0
 10
6.443543
 20
4.318629
 30
0.0
 10
6.454999
 20
4.381984
 30
0.0
 10
6.462801
 20
4.445782
 30
0.0
 10
6.467190
 20
4.509881
 30
0.0
 10
6.468404
 20
4.574140
 30
0.0
 10
6.466684
 20
4.638416
 30
0.0
 10
6.462270
 20
4.702567
 30
0.0
 10
6.455401
 20
4.766450
 30
0.0
 10
6.448628
 20
4.813977
 30
0.0
 10
6.440500
 20
4.861323
 30
0.0
 10
6.431043
 20
4.908464
 30
0.0
 10
6.420282
 20
4.955374
 30
0.0
 10
6.394945
 20
5.048402
 30
0.0
 10
6.364691
 20
5.140209
 30
0.0
 10
6.305820
 20
5.140209
 30
0.0
 10
6.306175
 20
5.139281
 30
0.0
 10
6.306318
 20
5.138904
 30
0.0
 10
6.306318
 20
5.138905
 30
0.0
  0
LWPOLYLINE
  5
106
100
AcDbEntity
  8
Layer_1
 62
7
100
AcDbPolyline
 90
86
 70
0
 10
6.157430
 20
3.228820
 30
0.0
 10
6.070252
 20
3.218254
 30
0.0
 10
5.987024
 20
3.189940
 30
0.0
 10
5.911760
 20
3.144864
 30
0.0
 10
5.848472
 20
3.084010
 30
0.0
 10
5.807443
 20
3.023782
 30
0.0
 10
5.779223
 20
2.956620
 30
0.0
 10
5.764478
 20
2.885240
 30
0.0
 10
5.763873
 20
2.812357
 30
0.0
 10
5.787003
 20
2.678411
 30
0.0
 10
5.840758
 20
2.553573
 30
0.0
 10
5.921241
 20
2.443945
 30
0.0
 10
6.024559
 20
2.355630
 30
0.0
 10
6.113306
 20
2.304702
 30
0.0
 10
6.208957
 20
2.268401
 30
0.0
 10
6.309097
 20
2.247312
 30
0.0
 10
6.411310
 20
2.242020
 30
0.0
 10
6.580753
 20
2.259264
 30
0.0
 10
6.744905
 20
2.304827
 30
0.0
 10
6.750558
 20
2.319728
 30
0.0
 10
6.750308
 20
2.336460
 30
0.0
 10
6.750308
 20
2.365553
 30
0.0
 10
6.640523
 20
2.329232
 30
0.0
 10
6.527139
 20
2.306118
 30
0.0
 10
6.411878
 20
2.297544
 30
0.0
 10
6.296460
 20
2.304844
 30
0.0
 10
6.226302
 20
2.320307
 30
0.0
 10
6.158701
 20
2.344622
 30
0.0
 10
6.094599
 20
2.377157
 30
0.0
 10
6.034936
 20
2.417283
 30
0.0
 10
5.980652
 20
2.464369
 30
0.0
 10
5.932687
 20
2.517787
 30
0.0
 10
5.891983
 20
2.576905
 30
0.0
 10
5.859478
 20
2.641095
 30
0.0
 10
5.837689
 20
2.704037
 30
0.0
 10
5.824356
 20
2.769313
 30
0.0
 10
5.819575
 20
2.835769
 30
0.0
 10
5.823443
 20
2.902251
 30
0.0
 10
5.835465
 20
2.950286
 30
0.0
 10
5.855689
 20
2.995480
 30
0.0
 10
5.915677
 20
3.074165
 30
0.0
 10
5.972897
 20
3.119422
 30
0.0
 10
6.038242
 20
3.152033
 30
0.0
 10
6.108797
 20
3.170200
 30
0.0
 10
6.181642
 20
3.172125
 30
0.0
 10
6.244390
 20
3.154842
 30
0.0
 10
6.297671
 20
3.117652
 30
0.0
 10
6.324425
 20
3.085424
 30
0.0
 10
6.343799
 20
3.048116
 30
0.0
 10
6.354091
 20
3.007560
 30
0.0
 10
6.353597
 20
2.965590
 30
0.0
 10
6.329756
 20
2.915403
 30
0.0
 10
6.283703
 20
2.884445
 30
0.0
 10
6.242624
 20
2.879516
 30
0.0
 10
6.204779
 20
2.895188
 30
0.0
 10
6.192398
 20
2.918560
 30
0.0
 10
6.197215
 20
2.944166
 30
0.0
 10
6.209940
 20
2.947296
 30
0.0
 10
6.217868
 20
2.938190
 30
0.0
 10
6.224069
 20
2.921204
 30
0.0
 10
6.239530
 20
2.913348
 30
0.0
 10
6.260064
 20
2.924297
 30
0.0
 10
6.268916
 20
2.946505
 30
0.0
 10
6.266816
 20
2.969585
 30
0.0
 10
6.254957
 20
2.989641
 30
0.0
 10
6.236174
 20
3.003260
 30
0.0
 10
6.213297
 20
3.007034
 30
0.0
 10
6.185586
 20
3.002414
 30
0.0
 10
6.161025
 20
2.988392
 30
0.0
 10
6.143000
 20
2.966944
 30
0.0
 10
6.134892
 20
2.940045
 30
0.0
 10
6.141079
 20
2.896644
 30
0.0
 10
6.164111
 20
2.859201
 30
0.0
 10
6.199300
 20
2.832842
 30
0.0
 10
6.241955
 20
2.822688
 30
0.0
 10
6.300060
 20
2.830593
 30
0.0
 10
6.351547
 20
2.859032
 30
0.0
 10
6.390151
 20
2.903272
 30
0.0
 10
6.409605
 20
2.958581
 30
0.0
 10
6.408580
 20
3.022205
 30
0.0
 10
6.389858
 20
3.082941
 30
0.0
 10
6.355979
 20
3.136938
 30
0.0
 10
6.309479
 20
3.180345
 30
0.0
 10
6.237362
 20
3.216895
 30
0.0
 10
6.157430
 20
3.228820
 30
0.0
 10
6.157430
 20
3.228820
 30
0.0
  0
LWPOLYLINE
  5
107
100
AcDbEntity
  8
Layer_1
 62
7
100
AcDbPolyline
 90
144
 70
0
 10
2.697404
 20
4.667086
 30
0.0
 10
2.459980
 20
4.655386
 30
0.0
 10
2.224563
 20
4.623772
 30
0.0
 10
1.992594
 20
4.573456
 30
0.0
 10
1.765516
 20
4.505652
 30
0.0
 10
1.722912
 20
4.490620
 30
0.0
 10
1.722912
 20
4.420366
 30
0.0
 10
1.827029
 20
4.457035
 30
0.0
 10
2.096452
 20
4.532152
 30
0.0
 10
2.372087
 20
4.582116
 30
0.0
 10
2.564274
 20
4.596326
 30
0.0
 10
2.757094
 20
4.597622
 30
0.0
 10
2.902203
 20
4.591637
 30
0.0
 10
3.046419
 20
4.575550
 30
0.0
 10
3.179415
 20
4.546232
 30
0.0
 10
3.309748
 20
4.507194
 30
0.0
 10
3.448364
 20
4.454252
 30
0.0
 10
3.581745
 20
4.390013
 30
0.0
 10
3.708796
 20
4.314822
 30
0.0
 10
3.828421
 20
4.229027
 30
0.0
 10
3.932956
 20
4.140980
 30
0.0
 10
4.030502
 20
4.045760
 30
0.0
 10
4.120343
 20
3.943764
 30
0.0
 10
4.201765
 20
3.835391
 30
0.0
 10
4.308439
 20
3.652837
 30
0.0
 10
4.389465
 20
3.458368
 30
0.0
 10
4.428343
 20
3.333272
 30
0.0
 10
4.457658
 20
3.205794
 30
0.0
 10
4.469439
 20
3.081775
 30
0.0
 10
4.473523
 20
2.957214
 30
0.0
 10
4.474740
 20
2.857707
 30
0.0
 10
4.466519
 20
2.758636
 30
0.0
 10
4.443545
 20
2.660513
 30
0.0
 10
4.410387
 20
2.565082
 30
0.0
 10
4.350959
 20
2.442763
 30
0.0
 10
4.275291
 20
2.329079
 30
0.0
 10
4.184853
 20
2.225899
 30
0.0
 10
4.081114
 20
2.135093
 30
0.0
 10
3.974387
 20
2.062829
 30
0.0
 10
3.859367
 20
2.003517
 30
0.0
 10
3.737756
 20
1.958094
 30
0.0
 10
3.611258
 20
1.927494
 30
0.0
 10
3.485195
 20
1.912374
 30
0.0
 10
3.358207
 20
1.913412
 30
0.0
 10
3.239994
 20
1.936544
 30
0.0
 10
3.128829
 20
1.981582
 30
0.0
 10
3.028436
 20
2.046116
 30
0.0
 10
2.942540
 20
2.127735
 30
0.0
 10
2.892929
 20
2.192457
 30
0.0
 10
2.852207
 20
2.262742
 30
0.0
 10
2.821375
 20
2.337498
 30
0.0
 10
2.801438
 20
2.415634
 30
0.0
 10
2.794394
 20
2.534156
 30
0.0
 10
2.815878
 20
2.650961
 30
0.0
 10
2.845326
 20
2.710101
 30
0.0
 10
2.887482
 20
2.761761
 30
0.0
 10
2.946075
 20
2.813486
 30
0.0
 10
3.013743
 20
2.853416
 30
0.0
 10
3.086029
 20
2.874546
 30
0.0
 10
3.161529
 20
2.879208
 30
0.0
 10
3.223342
 20
2.871014
 30
0.0
 10
3.281545
 20
2.849618
 30
0.0
 10
3.333640
 20
2.805037
 30
0.0
 10
3.357510
 20
2.765299
 30
0.0
 10
3.372129
 20
2.721611
 30
0.0
 10
3.376021
 20
2.680463
 30
0.0
 10
3.368929
 20
2.639845
 30
0.0
 10
3.348052
 20
2.607561
 30
0.0
 10
3.316316
 20
2.587195
 30
0.0
 10
3.281867
 20
2.579716
 30
0.0
 10
3.246892
 20
2.584505
 30
0.0
 10
3.221920
 20
2.599456
 30
0.0
 10
3.204211
 20
2.621689
 30
0.0
 10
3.198147
 20
2.651287
 30
0.0
 10
3.198040
 20
2.669989
 30
0.0
 10
3.184277
 20
2.683162
 30
0.0
 10
3.162748
 20
2.666902
 30
0.0
 10
3.150496
 20
2.643366
 30
0.0
 10
3.146429
 20
2.611982
 30
0.0
 10
3.149785
 20
2.580431
 30
0.0
 10
3.163288
 20
2.548601
 30
0.0
 10
3.187798
 20
2.523705
 30
0.0
 10
3.234527
 20
2.503791
 30
0.0
 10
3.285744
 20
2.502621
 30
0.0
 10
3.342049
 20
2.519241
 30
0.0
 10
3.391639
 20
2.549932
 30
0.0
 10
3.421605
 20
2.581681
 30
0.0
 10
3.440569
 20
2.620384
 30
0.0
 10
3.446918
 20
2.664321
 30
0.0
 10
3.443734
 20
2.708675
 30
0.0
 10
3.413615
 20
2.797651
 30
0.0
 10
3.356511
 20
2.873393
 30
0.0
 10
3.315689
 20
2.906124
 30
0.0
 10
3.269011
 20
2.930435
 30
0.0
 10
3.174705
 20
2.947841
 30
0.0
 10
3.121185
 20
2.948433
 30
0.0
 10
3.058212
 20
2.938742
 30
0.0
 10
2.992650
 20
2.918751
 30
0.0
 10
2.932617
 20
2.886525
 30
0.0
 10
2.871056
 20
2.839289
 30
0.0
 10
2.816436
 20
2.784665
 30
0.0
 10
2.771863
 20
2.720165
 30
0.0
 10
2.742625
 20
2.647994
 30
0.0
 10
2.729170
 20
2.579721
 30
0.0
 10
2.725058
 20
2.510294
 30
0.0
 10
2.739635
 20
2.377825
 30
0.0
 10
2.782262
 20
2.251114
 30
0.0
 10
2.845101
 20
2.142700
 30
0.0
 10
2.927474
 20
2.047195
 30
0.0
 10
2.990592
 20
1.991884
 30
0.0
 10
3.059977
 20
1.943989
 30
0.0
 10
3.134868
 20
1.904699
 30
0.0
 10
3.214502
 20
1.875200
 30
0.0
 10
3.348469
 20
1.849243
 30
0.0
 10
3.485189
 20
1.847350
 30
0.0
 10
3.634037
 20
1.867329
 30
0.0
 10
3.779298
 20
1.904749
 30
0.0
 10
3.954141
 20
1.975857
 30
0.0
 10
4.113476
 20
2.075202
 30
0.0
 10
4.221701
 20
2.167419
 30
0.0
 10
4.316822
 20
2.272202
 30
0.0
 10
4.397386
 20
2.387764
 30
0.0
 10
4.461938
 20
2.512312
 30
0.0
 10
4.509329
 20
2.643482
 30
0.0
 10
4.537175
 20
2.779720
 30
0.0
 10
4.544629
 20
2.907750
 30
0.0
 10
4.541644
 20
3.036013
 30
0.0
 10
4.524003
 20
3.208272
 30
0.0
 10
4.486267
 20
3.377433
 30
0.0
 10
4.441725
 20
3.512575
 30
0.0
 10
4.386693
 20
3.644092
 30
0.0
 10
4.321103
 20
3.770990
 30
0.0
 10
4.244888
 20
3.892273
 30
0.0
 10
4.166041
 20
3.997732
 30
0.0
 10
4.078931
 20
4.096966
 30
0.0
 10
3.984084
 20
4.189375
 30
0.0
 10
3.882028
 20
4.274358
 30
0.0
 10
3.700146
 20
4.397633
 30
0.0
 10
3.504418
 20
4.499362
 30
0.0
 10
3.347941
 20
4.563981
 30
0.0
 10
3.185349
 20
4.612377
 30
0.0
 10
2.943143
 20
4.654143
 30
0.0
 10
2.697409
 20
4.667085
 30
0.0
 10
2.697404
 20
4.667086
 30
0.0
  0
LWPOLYLINE
  5
108
100
AcDbEntity
  8
Layer_1
 62
7
100
AcDbPolyline
 90
15
 70
0
 10
4.984798
 20
3.057519
 30
0.0
 10
4.966451
 20
3.046041
 30
0.0
 10
4.955518
 20
3.029600
 30
0.0
 10
4.953612
 20
2.990580
 30
0.0
 10
4.974528
 20
2.957963
 30
0.0
 10
4.992121
 20
2.949526
 30
0.0
 10
5.013712
 20
2.949253
 30
0.0
 10
5.034624
 20
2.954649
 30
0.0
 10
5.049691
 20
2.967167
 30
0.0
 10
5.062147
 20
3.004168
 30
0.0
 10
5.050791
 20
3.041455
 30
0.0
 10
5.036093
 20
3.054329
 30
0.0
 10
5.015332
 20
3.060225
 30
0.0
 10
4.984798
 20
3.057518
 30
0.0
 10
4.984798
 20
3.057519
 30
0.0
  0
ENDSEC
  0
SECTION
  2
OBJECTS
  0
DICTIONARY
  5
C
330
0
100
AcDbDictionary
  3
ACAD_GROUP
350
D
  3
ACAD_MLINESTYLE
350
17
  0
DICTIONARY
  5
D
330
C
100
AcDbDictionary
  0
DICTIONARY
  5
1A
330
C
100
AcDbDictionary
  0
DICTIONARY
  5
17
330
C
100
AcDbDictionary
  3
STANDARD
350
18
  0
DICTIONARY
  5
19
330
C
100
AcDbDictionary
  0
ENDSEC
  0
EOF
