  0
SECTION
  2
HEADER
  9
$ACADVER
  1
AC1014
  9
$HANDSEED
  5
FFFF
  9
$MEASUREMENT
 70
     1
  0
ENDSEC
  0
SECTION
  2
TABLES
  0
TABLE
  2
VPORT
  5
8
330
0
100
AcDbSymbolTable
 70
     4
  0
VPORT
  5
2E
330
8
100
AcDbSymbolTableRecord
100
AcDbViewportTableRecord
  2
*ACTIVE
 70
     0
 10
0.0
 20
0.0
 11
1.0
 21
1.0
 12
210.0
 22
148.5
 13
0.0
 23
0.0
 14
10.0
 24
10.0
 15
10.0
 25
10.0
 16
0.0
 26
0.0
 36
1.0
 17
0.0
 27
0.0
 37
0.0
 40
341.0
 41
1.24
 42
50.0
 43
0.0
 44
0.0
 50
0.0
 51
0.0
 71
     0
 72
   100
 73
     1
 74
     3
 75
     0
 76
     0
 77
     0
 78
     0
  0
ENDTAB
  0
TABLE
  2
LTYPE
  5
5
330
0
100
AcDbSymbolTable
 70
     1
  0
LTYPE
  5
14
330
5
100
AcDbSymbolTableRecord
100
AcDbLinetypeTableRecord
  2
BYBLOCK
 70
     0
  3

 72
    65
 73
     0
 40
0.0
  0
LTYPE
  5
15
330
5
100
AcDbSymbolTableRecord
100
AcDbLinetypeTableRecord
  2
BYLAYER
 70
     0
  3

 72
    65
 73
     0
 40
0.0
  0
LTYPE
  5
16
330
5
100
AcDbSymbolTableRecord
100
AcDbLinetypeTableRecord
  2
CONTINUOUS
 70
     0
  3
Solid line
 72
    65
 73
     0
 40
0.0
  0
ENDTAB
  0
TABLE
  2
LAYER
  5
2
100
AcDbSymbolTable
 70
2
  0
LAYER
  5
50
100
AcDbSymbolTableRecord
100
AcDbLayerTableRecord
  2
0
 70
0
  6
CONTINUOUS
  0
LAYER
  5
51
100
AcDbSymbolTableRecord
100
AcDbLayerTableRecord
  2
Layer_1
 70
0
  6
CONTINUOUS
  0
ENDTAB
  0
TABLE
  2
STYLE
  5
3
330
0
100
AcDbSymbolTable
 70
     1
  0
STYLE
  5
11
330
3
100
AcDbSymbolTableRecord
100
AcDbTextStyleTableRecord
  2
STANDARD
 70
     0
 40
0.0
 41
1.0
 50
0.0
 71
     0
 42
2.5
  3
txt
  4

  0
ENDTAB
  0
TABLE
  2
VIEW
  5
6
330
0
100
AcDbSymbolTable
 70
     0
  0
ENDTAB
  0
TABLE
  2
UCS
  5
7
330
0
100
AcDbSymbolTable
 70
     0
  0
ENDTAB
  0
TABLE
  2
APPID
  5
9
330
0
100
AcDbSymbolTable
 70
     2
  0
APPID
  5
12
330
9
100
AcDbSymbolTableRecord
100
AcDbRegAppTableRecord
  2
ACAD
 70
     0
  0
ENDTAB
  0
TABLE
  2
DIMSTYLE
  5
A
330
0
100
AcDbSymbolTable
 70
     1
  0
DIMSTYLE
105
27
330
A
100
AcDbSymbolTableRecord
100
AcDbDimStyleTableRecord
  2
ISO-25
 70
     0
  3

  4

  5

  6

  7

 40
1.0
 41
2.5
 42
0.625
 43
3.75
 44
1.25
 45
0.0
 46
0.0
 47
0.0
 48
0.0
140
2.5
141
2.5
142
0.0
143
0.03937007874016
144
1.0
145
0.0
146
1.0
147
0.625
 71
     0
 72
     0
 73
     0
 74
     0
 75
     0
 76
     0
 77
     1
 78
     8
170
     0
171
     3
172
     1
173
     0
174
     0
175
     0
176
     0
177
     0
178
     0
270
     2
271
     2
272
     2
273
     2
274
     3
340
11
275
     0
280
     0
281
     0
282
     0
283
     0
284
     8
285
     0
286
     0
287
     3
288
     0
  0
ENDTAB
  0
TABLE
  2
BLOCK_RECORD
  5
1
330
0
100
AcDbSymbolTable
 70
     1
  0
BLOCK_RECORD
  5
1F
330
1
100
AcDbSymbolTableRecord
100
AcDbBlockTableRecord
  2
*MODEL_SPACE
  0
BLOCK_RECORD
  5
1B
330
1
100
AcDbSymbolTableRecord
100
AcDbBlockTableRecord
  2
*PAPER_SPACE
  0
ENDTAB
  0
ENDSEC
  0
SECTION
  2
BLOCKS
  0
BLOCK
  5
20
330
1F
100
AcDbEntity
  8
0
100
AcDbBlockBegin
  2
*MODEL_SPACE
 70
     0
 10
0.0
 20
0.0
 30
0.0
  3
*MODEL_SPACE
  1

  0
ENDBLK
  5
21
330
1F
100
AcDbEntity
  8
0
100
AcDbBlockEnd
  0
BLOCK
  5
1C
330
1B
100
AcDbEntity
 67
     1
  8
0
100
AcDbBlockBegin
  2
*PAPER_SPACE
  1

  0
ENDBLK
  5
1D
330
1B
100
AcDbEntity
 67
     1
  8
0
100
AcDbBlockEnd
  0
ENDSEC
  0
SECTION
  2
ENTITIES
  0
LWPOLYLINE
  5
100
100
AcDbEntity
  8
Layer_1
 62
7
100
AcDbPolyline
 90
836
 70
0
 10
4.557506
 20
5.756555
 30
0.0
 10
4.482950
 20
5.755185
 30
0.0
 10
4.408467
 20
5.752017
 30
0.0
 10
4.334085
 20
5.747076
 30
0.0
 10
4.259832
 20
5.740390
 30
0.0
 10
4.185737
 20
5.731983
 30
0.0
 10
4.111827
 20
5.721884
 30
0.0
 10
4.038131
 20
5.710118
 30
0.0
 10
3.964677
 20
5.696711
 30
0.0
 10
3.891493
 20
5.681690
 30
0.0
 10
3.818608
 20
5.665082
 30
0.0
 10
3.746049
 20
5.646912
 30
0.0
 10
3.673846
 20
5.627207
 30
0.0
 10
3.602025
 20
5.605993
 30
0.0
 10
3.530616
 20
5.583297
 30
0.0
 10
3.459646
 20
5.559145
 30
0.0
 10
3.389144
 20
5.533564
 30
0.0
 10
3.321164
 20
5.507156
 30
0.0
 10
3.253721
 20
5.479256
 30
0.0
 10
3.186838
 20
5.449882
 30
0.0
 10
3.120541
 20
5.419053
 30
0.0
 10
3.054853
 20
5.386787
 30
0.0
 10
2.989800
 20
5.353103
 30
0.0
 10
2.925404
 20
5.318019
 30
0.0
 10
2.861692
 20
5.281554
 30
0.0
 10
2.798687
 20
5.243727
 30
0.0
 10
2.736414
 20
5.204556
 30
0.0
 10
2.674897
 20
5.164060
 30
0.0
 10
2.614160
 20
5.122257
 30
0.0
 10
2.554228
 20
5.079166
 30
0.0
 10
2.495126
 20
5.034805
 30
0.0
 10
2.436877
 20
4.989194
 30
0.0
 10
2.379506
 20
4.942350
 30
0.0
 10
2.343544
 20
4.912019
 30
0.0
 10
2.307946
 20
4.881208
 30
0.0
 10
2.272718
 20
4.849922
 30
0.0
 10
2.237864
 20
4.818166
 30
0.0
 10
2.203390
 20
4.785946
 30
0.0
 10
2.169300
 20
4.753268
 30
0.0
 10
2.135600
 20
4.720137
 30
0.0
 10
2.102294
 20
4.686560
 30
0.0
 10
2.069387
 20
4.652542
 30
0.0
 10
2.036884
 20
4.618088
 30
0.0
 10
2.004791
 20
4.583204
 30
0.0
 10
1.973112
 20
4.547897
 30
0.0
 10
1.941851
 20
4.512171
 30
0.0
 10
1.911015
 20
4.476032
 30
0.0
 10
1.880607
 20
4.439486
 30
0.0
 10
1.850634
 20
4.402539
 30
0.0
 10
1.821099
 20
4.365196
 30
0.0
 10
1.792008
 20
4.327463
 30
0.0
 10
1.763366
 20
4.289345
 30
0.0
 10
1.735177
 20
4.250849
 30
0.0
 10
1.707447
 20
4.211980
 30
0.0
 10
1.680181
 20
4.172743
 30
0.0
 10
1.653383
 20
4.133145
 30
0.0
 10
1.627058
 20
4.093191
 30
0.0
 10
1.601212
 20
4.052887
 30
0.0
 10
1.575849
 20
4.012238
 30
0.0
 10
1.550974
 20
3.971249
 30
0.0
 10
1.526593
 20
3.929928
 30
0.0
 10
1.502709
 20
3.888279
 30
0.0
 10
1.479329
 20
3.846308
 30
0.0
 10
1.456457
 20
3.804021
 30
0.0
 10
1.434098
 20
3.761423
 30
0.0
 10
1.404014
 20
3.702102
 30
0.0
 10
1.374911
 20
3.642233
 30
0.0
 10
1.346795
 20
3.581834
 30
0.0
 10
1.319674
 20
3.520924
 30
0.0
 10
1.293556
 20
3.459523
 30
0.0
 10
1.268447
 20
3.397648
 30
0.0
 10
1.244356
 20
3.335319
 30
0.0
 10
1.221289
 20
3.272555
 30
0.0
 10
1.199253
 20
3.209375
 30
0.0
 10
1.178257
 20
3.145797
 30
0.0
 10
1.158307
 20
3.081841
 30
0.0
 10
1.139411
 20
3.017525
 30
0.0
 10
1.121576
 20
2.952869
 30
0.0
 10
1.104810
 20
2.887891
 30
0.0
 10
1.089120
 20
2.822609
 30
0.0
 10
1.074512
 20
2.757044
 30
0.0
 10
1.061648
 20
2.694619
 30
0.0
 10
1.049774
 20
2.631974
 30
0.0
 10
1.038893
 20
2.569126
 30
0.0
 10
1.029002
 20
2.506093
 30
0.0
 10
1.020105
 20
2.442894
 30
0.0
 10
1.012199
 20
2.379546
 30
0.0
 10
1.005287
 20
2.316067
 30
0.0
 10
0.999368
 20
2.252474
 30
0.0
 10
0.992825
 20
2.168680
 30
0.0
 10
0.988016
 20
2.084744
 30
0.0
 10
0.986350
 20
2.042738
 30
0.0
 10
0.985225
 20
2.000713
 30
0.0
 10
0.984675
 20
1.958676
 30
0.0
 10
0.984735
 20
1.916631
 30
0.0
 10
0.985491
 20
1.904657
 30
0.0
 10
0.987090
 20
1.892709
 30
0.0
 10
0.990143
 20
1.881186
 30
0.0
 10
0.992406
 20
1.875709
 30
0.0
 10
0.995261
 20
1.870487
 30
0.0
 10
0.999643
 20
1.865869
 30
0.0
 10
1.004868
 20
1.862469
 30
0.0
 10
1.010669
 20
1.860304
 30
0.0
 10
1.016780
 20
1.859394
 30
0.0
 10
1.022935
 20
1.859757
 30
0.0
 10
1.028869
 20
1.861412
 30
0.0
 10
1.034314
 20
1.864377
 30
0.0
 10
1.039006
 20
1.868670
 30
0.0
 10
1.042866
 20
1.873093
 30
0.0
 10
1.046095
 20
1.877952
 30
0.0
 10
1.048772
 20
1.883166
 30
0.0
 10
1.050978
 20
1.888658
 30
0.0
 10
1.054299
 20
1.900160
 30
0.0
 10
1.056701
 20
1.911825
 30
0.0
 10
1.059626
 20
1.928589
 30
0.0
 10
1.062018
 20
1.945431
 30
0.0
 10
1.065588
 20
1.979289
 30
0.0
 10
1.070541
 20
2.047257
 30
0.0
 10
1.078905
 20
2.178184
 30
0.0
 10
1.083939
 20
2.243574
 30
0.0
 10
1.090197
 20
2.308849
 30
0.0
 10
1.095614
 20
2.358479
 30
0.0
 10
1.101646
 20
2.408032
 30
0.0
 10
1.108290
 20
2.457498
 30
0.0
 10
1.115546
 20
2.506870
 30
0.0
 10
1.123412
 20
2.556138
 30
0.0
 10
1.131885
 20
2.605293
 30
0.0
 10
1.140966
 20
2.654328
 30
0.0
 10
1.150651
 20
2.703232
 30
0.0
 10
1.160940
 20
2.751998
 30
0.0
 10
1.171831
 20
2.800617
 30
0.0
 10
1.183322
 20
2.849080
 30
0.0
 10
1.195411
 20
2.897378
 30
0.0
 10
1.208098
 20
2.945502
 30
0.0
 10
1.221380
 20
2.993444
 30
0.0
 10
1.235256
 20
3.041195
 30
0.0
 10
1.249725
 20
3.088747
 30
0.0
 10
1.264784
 20
3.136090
 30
0.0
 10
1.280433
 20
3.183216
 30
0.0
 10
1.296669
 20
3.230116
 30
0.0
 10
1.313491
 20
3.276781
 30
0.0
 10
1.330897
 20
3.323203
 30
0.0
 10
1.348886
 20
3.369373
 30
0.0
 10
1.367457
 20
3.415283
 30
0.0
 10
1.386607
 20
3.460922
 30
0.0
 10
1.406335
 20
3.506284
 30
0.0
 10
1.426640
 20
3.551359
 30
0.0
 10
1.447519
 20
3.596137
 30
0.0
 10
1.468972
 20
3.640612
 30
0.0
 10
1.490997
 20
3.684773
 30
0.0
 10
1.513592
 20
3.728613
 30
0.0
 10
1.536755
 20
3.772121
 30
0.0
 10
1.560485
 20
3.815291
 30
0.0
 10
1.587793
 20
3.863411
 30
0.0
 10
1.615777
 20
3.911087
 30
0.0
 10
1.644429
 20
3.958312
 30
0.0
 10
1.673741
 20
4.005077
 30
0.0
 10
1.703705
 20
4.051373
 30
0.0
 10
1.734312
 20
4.097191
 30
0.0
 10
1.765555
 20
4.142523
 30
0.0
 10
1.797426
 20
4.187361
 30
0.0
 10
1.829916
 20
4.231695
 30
0.0
 10
1.863017
 20
4.275518
 30
0.0
 10
1.896721
 20
4.318820
 30
0.0
 10
1.931021
 20
4.361594
 30
0.0
 10
1.965907
 20
4.403831
 30
0.0
 10
2.001372
 20
4.445521
 30
0.0
 10
2.037408
 20
4.486657
 30
0.0
 10
2.074006
 20
4.527230
 30
0.0
 10
2.111160
 20
4.567232
 30
0.0
 10
2.148859
 20
4.606653
 30
0.0
 10
2.187097
 20
4.645486
 30
0.0
 10
2.225865
 20
4.683721
 30
0.0
 10
2.265155
 20
4.721351
 30
0.0
 10
2.304959
 20
4.758366
 30
0.0
 10
2.345269
 20
4.794758
 30
0.0
 10
2.386077
 20
4.830519
 30
0.0
 10
2.427375
 20
4.865640
 30
0.0
 10
2.469154
 20
4.900112
 30
0.0
 10
2.511407
 20
4.933927
 30
0.0
 10
2.554125
 20
4.967077
 30
0.0
 10
2.597300
 20
4.999552
 30
0.0
 10
2.640924
 20
5.031344
 30
0.0
 10
2.684990
 20
5.062445
 30
0.0
 10
2.729488
 20
5.092847
 30
0.0
 10
2.772909
 20
5.121549
 30
0.0
 10
2.816728
 20
5.149556
 30
0.0
 10
2.860937
 20
5.176864
 30
0.0
 10
2.905524
 20
5.203467
 30
0.0
 10
2.950479
 20
5.229363
 30
0.0
 10
2.995791
 20
5.254548
 30
0.0
 10
3.041450
 20
5.279018
 30
0.0
 10
3.087446
 20
5.302769
 30
0.0
 10
3.133766
 20
5.325796
 30
0.0
 10
3.180402
 20
5.348097
 30
0.0
 10
3.227342
 20
5.369668
 30
0.0
 10
3.274576
 20
5.390504
 30
0.0
 10
3.322093
 20
5.410602
 30
0.0
 10
3.369883
 20
5.429957
 30
0.0
 10
3.417935
 20
5.448567
 30
0.0
 10
3.466238
 20
5.466427
 30
0.0
 10
3.507933
 20
5.481257
 30
0.0
 10
3.549791
 20
5.495560
 30
0.0
 10
3.591807
 20
5.509333
 30
0.0
 10
3.633975
 20
5.522574
 30
0.0
 10
3.676288
 20
5.535281
 30
0.0
 10
3.718740
 20
5.547453
 30
0.0
 10
3.761326
 20
5.559086
 30
0.0
 10
3.804040
 20
5.570178
 30
0.0
 10
3.846876
 20
5.580727
 30
0.0
 10
3.889827
 20
5.590732
 30
0.0
 10
3.932887
 20
5.600190
 30
0.0
 10
3.976052
 20
5.609098
 30
0.0
 10
4.019314
 20
5.617455
 30
0.0
 10
4.062668
 20
5.625258
 30
0.0
 10
4.106107
 20
5.632505
 30
0.0
 10
4.149626
 20
5.639195
 30
0.0
 10
4.209702
 20
5.646348
 30
0.0
 10
4.269903
 20
5.651888
 30
0.0
 10
4.330205
 20
5.655981
 30
0.0
 10
4.390581
 20
5.658794
 30
0.0
 10
4.451007
 20
5.660492
 30
0.0
 10
4.511457
 20
5.661242
 30
0.0
 10
4.571906
 20
5.661209
 30
0.0
 10
4.632329
 20
5.660561
 30
0.0
 10
4.677836
 20
5.659400
 30
0.0
 10
4.723347
 20
5.657714
 30
0.0
 10
4.768835
 20
5.655388
 30
0.0
 10
4.814279
 20
5.652305
 30
0.0
 10
4.859652
 20
5.648350
 30
0.0
 10
4.904931
 20
5.643407
 30
0.0
 10
4.950093
 20
5.637361
 30
0.0
 10
4.995112
 20
5.630097
 30
0.0
 10
5.037144
 20
5.621602
 30
0.0
 10
5.078937
 20
5.611954
 30
0.0
 10
5.120502
 20
5.601258
 30
0.0
 10
5.161848
 20
5.589618
 30
0.0
 10
5.202986
 20
5.577139
 30
0.0
 10
5.243924
 20
5.563925
 30
0.0
 10
5.284674
 20
5.550083
 30
0.0
 10
5.325244
 20
5.535717
 30
0.0
 10
5.369232
 20
5.518929
 30
0.0
 10
5.412874
 20
5.501143
 30
0.0
 10
5.456150
 20
5.482367
 30
0.0
 10
5.499037
 20
5.462609
 30
0.0
 10
5.541514
 20
5.441876
 30
0.0
 10
5.583559
 20
5.420176
 30
0.0
 10
5.625152
 20
5.397515
 30
0.0
 10
5.666270
 20
5.373902
 30
0.0
 10
5.706892
 20
5.349344
 30
0.0
 10
5.746997
 20
5.323847
 30
0.0
 10
5.786563
 20
5.297421
 30
0.0
 10
5.825568
 20
5.270072
 30
0.0
 10
5.863991
 20
5.241807
 30
0.0
 10
5.901811
 20
5.212634
 30
0.0
 10
5.939005
 20
5.182560
 30
0.0
 10
5.975553
 20
5.151593
 30
0.0
 10
6.009091
 20
5.122155
 30
0.0
 10
6.042123
 20
5.092071
 30
0.0
 10
6.074635
 20
5.061350
 30
0.0
 10
6.106613
 20
5.030001
 30
0.0
 10
6.138043
 20
4.998033
 30
0.0
 10
6.168912
 20
4.965454
 30
0.0
 10
6.199205
 20
4.932273
 30
0.0
 10
6.228908
 20
4.898498
 30
0.0
 10
6.258007
 20
4.864138
 30
0.0
 10
6.286489
 20
4.829202
 30
0.0
 10
6.314339
 20
4.793699
 30
0.0
 10
6.341544
 20
4.757637
 30
0.0
 10
6.368088
 20
4.721025
 30
0.0
 10
6.393960
 20
4.683871
 30
0.0
 10
6.419143
 20
4.646185
 30
0.0
 10
6.443626
 20
4.607974
 30
0.0
 10
6.462132
 20
4.577564
 30
0.0
 10
6.480125
 20
4.546815
 30
0.0
 10
6.497605
 20
4.515741
 30
0.0
 10
6.514574
 20
4.484351
 30
0.0
 10
6.531035
 20
4.452659
 30
0.0
 10
6.546988
 20
4.420674
 30
0.0
 10
6.562435
 20
4.388410
 30
0.0
 10
6.577377
 20
4.355877
 30
0.0
 10
6.591818
 20
4.323087
 30
0.0
 10
6.605757
 20
4.290051
 30
0.0
 10
6.619197
 20
4.256781
 30
0.0
 10
6.632140
 20
4.223289
 30
0.0
 10
6.644587
 20
4.189586
 30
0.0
 10
6.656539
 20
4.155683
 30
0.0
 10
6.667999
 20
4.121592
 30
0.0
 10
6.678968
 20
4.087325
 30
0.0
 10
6.692145
 20
4.044463
 30
0.0
 10
6.704686
 20
4.001380
 30
0.0
 10
6.716553
 20
3.958081
 30
0.0
 10
6.727709
 20
3.914570
 30
0.0
 10
6.738116
 20
3.870855
 30
0.0
 10
6.747735
 20
3.826939
 30
0.0
 10
6.756530
 20
3.782828
 30
0.0
 10
6.764462
 20
3.738528
 30
0.0
 10
6.769842
 20
3.695869
 30
0.0
 10
6.773945
 20
3.653089
 30
0.0
 10
6.776997
 20
3.610212
 30
0.0
 10
6.779221
 20
3.567263
 30
0.0
 10
6.782086
 20
3.481250
 30
0.0
 10
6.784335
 20
3.395252
 30
0.0
 10
6.785779
 20
3.326577
 30
0.0
 10
6.786099
 20
3.292200
 30
0.0
 10
6.785882
 20
3.257834
 30
0.0
 10
6.784925
 20
3.223505
 30
0.0
 10
6.783028
 20
3.189241
 30
0.0
 10
6.779986
 20
3.155070
 30
0.0
 10
6.775600
 20
3.121019
 30
0.0
 10
6.769834
 20
3.086801
 30
0.0
 10
6.763060
 20
3.052810
 30
0.0
 10
6.755350
 20
3.019049
 30
0.0
 10
6.746772
 20
2.985517
 30
0.0
 10
6.737396
 20
2.952219
 30
0.0
 10
6.727293
 20
2.919154
 30
0.0
 10
6.716531
 20
2.886325
 30
0.0
 10
6.705180
 20
2.853734
 30
0.0
 10
6.688561
 20
2.810528
 30
0.0
 10
6.670583
 20
2.767946
 30
0.0
 10
6.651275
 20
2.726029
 30
0.0
 10
6.630665
 20
2.684817
 30
0.0
 10
6.608783
 20
2.644351
 30
0.0
 10
6.585658
 20
2.604670
 30
0.0
 10
6.561317
 20
2.565815
 30
0.0
 10
6.535791
 20
2.527826
 30
0.0
 10
6.509107
 20
2.490745
 30
0.0
 10
6.481294
 20
2.454609
 30
0.0
 10
6.452382
 20
2.419462
 30
0.0
 10
6.422399
 20
2.385341
 30
0.0
 10
6.391374
 20
2.352289
 30
0.0
 10
6.359335
 20
2.320345
 30
0.0
 10
6.326312
 20
2.289549
 30
0.0
 10
6.292333
 20
2.259943
 30
0.0
 10
6.259971
 20
2.233388
 30
0.0
 10
6.226859
 20
2.207892
 30
0.0
 10
6.193031
 20
2.183473
 30
0.0
 10
6.158520
 20
2.160151
 30
0.0
 10
6.123359
 20
2.137948
 30
0.0
 10
6.087582
 20
2.116883
 30
0.0
 10
6.051221
 20
2.096977
 30
0.0
 10
6.014311
 20
2.078249
 30
0.0
 10
5.976884
 20
2.060720
 30
0.0
 10
5.938975
 20
2.044409
 30
0.0
 10
5.900616
 20
2.029338
 30
0.0
 10
5.861840
 20
2.015525
 30
0.0
 10
5.822681
 20
2.002992
 30
0.0
 10
5.783173
 20
1.991759
 30
0.0
 10
5.743348
 20
1.981845
 30
0.0
 10
5.703240
 20
1.973271
 30
0.0
 10
5.663994
 20
1.966109
 30
0.0
 10
5.624546
 20
1.960210
 30
0.0
 10
5.584940
 20
1.955618
 30
0.0
 10
5.545217
 20
1.952376
 30
0.0
 10
5.505422
 20
1.950528
 30
0.0
 10
5.465597
 20
1.950119
 30
0.0
 10
5.425786
 20
1.951193
 30
0.0
 10
5.386032
 20
1.953793
 30
0.0
 10
5.348406
 20
1.958761
 30
0.0
 10
5.311113
 20
1.965775
 30
0.0
 10
5.274226
 20
1.974783
 30
0.0
 10
5.237818
 20
1.985734
 30
0.0
 10
5.201961
 20
1.998576
 30
0.0
 10
5.166730
 20
2.013256
 30
0.0
 10
5.132197
 20
2.029722
 30
0.0
 10
5.098435
 20
2.047923
 30
0.0
 10
5.065517
 20
2.067807
 30
0.0
 10
5.033516
 20
2.089322
 30
0.0
 10
5.002506
 20
2.112415
 30
0.0
 10
4.972558
 20
2.137035
 30
0.0
 10
4.943747
 20
2.163130
 30
0.0
 10
4.916145
 20
2.190648
 30
0.0
 10
4.889826
 20
2.219537
 30
0.0
 10
4.864862
 20
2.249745
 30
0.0
 10
4.848336
 20
2.271288
 30
0.0
 10
4.832448
 20
2.293383
 30
0.0
 10
4.817217
 20
2.316006
 30
0.0
 10
4.802663
 20
2.339134
 30
0.0
 10
4.788806
 20
2.362742
 30
0.0
 10
4.775664
 20
2.386808
 30
0.0
 10
4.763259
 20
2.411307
 30
0.0
 10
4.751609
 20
2.436216
 30
0.0
 10
4.740734
 20
2.461511
 30
0.0
 10
4.730654
 20
2.487168
 30
0.0
 10
4.721388
 20
2.513163
 30
0.0
 10
4.712957
 20
2.539473
 30
0.0
 10
4.705379
 20
2.566074
 30
0.0
 10
4.698674
 20
2.592942
 30
0.0
 10
4.692862
 20
2.620054
 30
0.0
 10
4.687963
 20
2.647385
 30
0.0
 10
4.684992
 20
2.667657
 30
0.0
 10
4.682545
 20
2.688018
 30
0.0
 10
4.680625
 20
2.708451
 30
0.0
 10
4.679238
 20
2.728938
 30
0.0
 10
4.678390
 20
2.749459
 30
0.0
 10
4.678085
 20
2.769998
 30
0.0
 10
4.678329
 20
2.790536
 30
0.0
 10
4.679126
 20
2.811055
 30
0.0
 10
4.680482
 20
2.831537
 30
0.0
 10
4.682402
 20
2.851963
 30
0.0
 10
4.684892
 20
2.872317
 30
0.0
 10
4.687955
 20
2.892579
 30
0.0
 10
4.691598
 20
2.912732
 30
0.0
 10
4.695826
 20
2.932757
 30
0.0
 10
4.700643
 20
2.952636
 30
0.0
 10
4.706056
 20
2.972352
 30
0.0
 10
4.713418
 20
2.993707
 30
0.0
 10
4.722100
 20
3.014445
 30
0.0
 10
4.731994
 20
3.034558
 30
0.0
 10
4.742991
 20
3.054034
 30
0.0
 10
4.754984
 20
3.072865
 30
0.0
 10
4.767864
 20
3.091041
 30
0.0
 10
4.781523
 20
3.108551
 30
0.0
 10
4.795853
 20
3.125386
 30
0.0
 10
4.813188
 20
3.144356
 30
0.0
 10
4.831204
 20
3.162658
 30
0.0
 10
4.849910
 20
3.180175
 30
0.0
 10
4.869317
 20
3.196791
 30
0.0
 10
4.889435
 20
3.212388
 30
0.0
 10
4.910274
 20
3.226851
 30
0.0
 10
4.931844
 20
3.240062
 30
0.0
 10
4.954157
 20
3.251906
 30
0.0
 10
4.976116
 20
3.261542
 30
0.0
 10
4.998599
 20
3.269577
 30
0.0
 10
5.021515
 20
3.276072
 30
0.0
 10
5.044775
 20
3.281085
 30
0.0
 10
5.068286
 20
3.284677
 30
0.0
 10
5.091959
 20
3.286908
 30
0.0
 10
5.115702
 20
3.287836
 30
0.0
 10
5.139425
 20
3.287521
 30
0.0
 10
5.158941
 20
3.286213
 30
0.0
 10
5.178414
 20
3.283930
 30
0.0
 10
5.197764
 20
3.280616
 30
0.0
 10
5.216911
 20
3.276218
 30
0.0
 10
5.235775
 20
3.270680
 30
0.0
 10
5.254276
 20
3.263947
 30
0.0
 10
5.272335
 20
3.255966
 30
0.0
 10
5.289871
 20
3.246681
 30
0.0
 10
5.299368
 20
3.240751
 30
0.0
 10
5.308530
 20
3.234264
 30
0.0
 10
5.317333
 20
3.227248
 30
0.0
 10
5.325756
 20
3.219726
 30
0.0
 10
5.333776
 20
3.211726
 30
0.0
 10
5.341372
 20
3.203272
 30
0.0
 10
5.348522
 20
3.194391
 30
0.0
 10
5.355203
 20
3.185108
 30
0.0
 10
5.363743
 20
3.172062
 30
0.0
 10
5.371581
 20
3.158535
 30
0.0
 10
5.378710
 20
3.144575
 30
0.0
 10
5.385123
 20
3.130228
 30
0.0
 10
5.390810
 20
3.115540
 30
0.0
 10
5.395766
 20
3.100557
 30
0.0
 10
5.399982
 20
3.085327
 30
0.0
 10
5.403450
 20
3.069895
 30
0.0
 10
5.405776
 20
3.055851
 30
0.0
 10
5.407396
 20
3.041654
 30
0.0
 10
5.408259
 20
3.027371
 30
0.0
 10
5.408312
 20
3.013067
 30
0.0
 10
5.407504
 20
2.998810
 30
0.0
 10
5.405784
 20
2.984664
 30
0.0
 10
5.403101
 20
2.970696
 30
0.0
 10
5.399403
 20
2.956972
 30
0.0
 10
5.394533
 20
2.943745
 30
0.0
 10
5.388557
 20
2.931018
 30
0.0
 10
5.381524
 20
2.918909
 30
0.0
 10
5.373484
 20
2.907539
 30
0.0
 10
5.364485
 20
2.897026
 30
0.0
 10
5.354578
 20
2.887490
 30
0.0
 10
5.343810
 20
2.879051
 30
0.0
 10
5.332233
 20
2.871828
 30
0.0
 10
5.322415
 20
2.866807
 30
0.0
 10
5.312204
 20
2.862632
 30
0.0
 10
5.301689
 20
2.859374
 30
0.0
 10
5.290958
 20
2.857104
 30
0.0
 10
5.280101
 20
2.855894
 30
0.0
 10
5.269205
 20
2.855816
 30
0.0
 10
5.258360
 20
2.856940
 30
0.0
 10
5.247655
 20
2.859339
 30
0.0
 10
5.240202
 20
2.862415
 30
0.0
 10
5.233204
 20
2.866581
 30
0.0
 10
5.226795
 20
2.871727
 30
0.0
 10
5.221107
 20
2.877742
 30
0.0
 10
5.216274
 20
2.884516
 30
0.0
 10
5.212429
 20
2.891936
 30
0.0
 10
5.209706
 20
2.899894
 30
0.0
 10
5.208238
 20
2.908278
 30
0.0
 10
5.207711
 20
2.914863
 30
0.0
 10
5.207840
 20
2.921491
 30
0.0
 10
5.208647
 20
2.928069
 30
0.0
 10
5.210159
 20
2.934505
 30
0.0
 10
5.215066
 20
2.926873
 30
0.0
 10
5.220989
 20
2.920053
 30
0.0
 10
5.227771
 20
2.914176
 30
0.0
 10
5.235257
 20
2.909371
 30
0.0
 10
5.243290
 20
2.905771
 30
0.0
 10
5.251714
 20
2.903505
 30
0.0
 10
5.260374
 20
2.902704
 30
0.0
 10
5.269113
 20
2.903499
 30
0.0
 10
5.273995
 20
2.904732
 30
0.0
 10
5.278704
 20
2.906665
 30
0.0
 10
5.283135
 20
2.909253
 30
0.0
 10
5.287185
 20
2.912448
 30
0.0
 10
5.290747
 20
2.916205
 30
0.0
 10
5.293719
 20
2.920476
 30
0.0
 10
5.295993
 20
2.925215
 30
0.0
 10
5.297467
 20
2.930375
 30
0.0
 10
5.298591
 20
2.936605
 30
0.0
 10
5.299029
 20
2.942877
 30
0.0
 10
5.298855
 20
2.949161
 30
0.0
 10
5.298145
 20
2.955424
 30
0.0
 10
5.295424
 20
2.967766
 30
0.0
 10
5.291471
 20
2.979651
 30
0.0
 10
5.287687
 20
2.987585
 30
0.0
 10
5.283081
 20
2.995032
 30
0.0
 10
5.277721
 20
3.001894
 30
0.0
 10
5.271677
 20
3.008072
 30
0.0
 10
5.265019
 20
3.013467
 30
0.0
 10
5.257815
 20
3.017982
 30
0.0
 10
5.250134
 20
3.021518
 30
0.0
 10
5.242047
 20
3.023977
 30
0.0
 10
5.232765
 20
3.025987
 30
0.0
 10
5.223362
 20
3.027123
 30
0.0
 10
5.213900
 20
3.027407
 30
0.0
 10
5.204442
 20
3.026862
 30
0.0
 10
5.195052
 20
3.025508
 30
0.0
 10
5.185792
 20
3.023367
 30
0.0
 10
5.176725
 20
3.020462
 30
0.0
 10
5.167915
 20
3.016815
 30
0.0
 10
5.160342
 20
3.012419
 30
0.0
 10
5.153269
 20
3.007163
 30
0.0
 10
5.146773
 20
3.001123
 30
0.0
 10
5.140928
 20
2.994379
 30
0.0
 10
5.135810
 20
2.987006
 30
0.0
 10
5.131494
 20
2.979082
 30
0.0
 10
5.128054
 20
2.970686
 30
0.0
 10
5.125567
 20
2.961894
 30
0.0
 10
5.123187
 20
2.951207
 30
0.0
 10
5.121589
 20
2.940393
 30
0.0
 10
5.120706
 20
2.929489
 30
0.0
 10
5.120472
 20
2.918533
 30
0.0
 10
5.120819
 20
2.907563
 30
0.0
 10
5.121680
 20
2.896616
 30
0.0
 10
5.124678
 20
2.874941
 30
0.0
 10
5.127530
 20
2.863420
 30
0.0
 10
5.131316
 20
2.852185
 30
0.0
 10
5.136013
 20
2.841339
 30
0.0
 10
5.141597
 20
2.830986
 30
0.0
 10
5.148043
 20
2.821232
 30
0.0
 10
5.155329
 20
2.812182
 30
0.0
 10
5.163430
 20
2.803939
 30
0.0
 10
5.172321
 20
2.796608
 30
0.0
 10
5.185866
 20
2.787254
 30
0.0
 10
5.200253
 20
2.779561
 30
0.0
 10
5.215319
 20
2.773513
 30
0.0
 10
5.230900
 20
2.769097
 30
0.0
 10
5.246832
 20
2.766300
 30
0.0
 10
5.262953
 20
2.765106
 30
0.0
 10
5.279098
 20
2.765501
 30
0.0
 10
5.295104
 20
2.767472
 30
0.0
 10
5.313309
 20
2.771150
 30
0.0
 10
5.331190
 20
2.776249
 30
0.0
 10
5.348678
 20
2.782700
 30
0.0
 10
5.365708
 20
2.790434
 30
0.0
 10
5.382211
 20
2.799382
 30
0.0
 10
5.398120
 20
2.809477
 30
0.0
 10
5.413369
 20
2.820648
 30
0.0
 10
5.427890
 20
2.832829
 30
0.0
 10
5.438226
 20
2.842796
 30
0.0
 10
5.448001
 20
2.853444
 30
0.0
 10
5.457116
 20
2.864746
 30
0.0
 10
5.465470
 20
2.876674
 30
0.0
 10
5.472963
 20
2.889203
 30
0.0
 10
5.479492
 20
2.902305
 30
0.0
 10
5.484958
 20
2.915954
 30
0.0
 10
5.489260
 20
2.930122
 30
0.0
 10
5.492644
 20
2.945076
 30
0.0
 10
5.495048
 20
2.960202
 30
0.0
 10
5.496550
 20
2.975456
 30
0.0
 10
5.497227
 20
2.990791
 30
0.0
 10
5.497158
 20
3.006162
 30
0.0
 10
5.496419
 20
3.021524
 30
0.0
 10
5.495089
 20
3.036830
 30
0.0
 10
5.493246
 20
3.052036
 30
0.0
 10
5.490599
 20
3.068025
 30
0.0
 10
5.487335
 20
3.083876
 30
0.0
 10
5.483464
 20
3.099567
 30
0.0
 10
5.479002
 20
3.115078
 30
0.0
 10
5.473960
 20
3.130388
 30
0.0
 10
5.468350
 20
3.145475
 30
0.0
 10
5.462187
 20
3.160319
 30
0.0
 10
5.455482
 20
3.174899
 30
0.0
 10
5.448248
 20
3.189192
 30
0.0
 10
5.440499
 20
3.203180
 30
0.0
 10
5.432247
 20
3.216840
 30
0.0
 10
5.423504
 20
3.230151
 30
0.0
 10
5.414284
 20
3.243093
 30
0.0
 10
5.404599
 20
3.255644
 30
0.0
 10
5.394463
 20
3.267783
 30
0.0
 10
5.383887
 20
3.279489
 30
0.0
 10
5.371839
 20
3.291691
 30
0.0
 10
5.359283
 20
3.303327
 30
0.0
 10
5.346236
 20
3.314344
 30
0.0
 10
5.332714
 20
3.324687
 30
0.0
 10
5.318734
 20
3.334305
 30
0.0
 10
5.304310
 20
3.343141
 30
0.0
 10
5.289461
 20
3.351143
 30
0.0
 10
5.274201
 20
3.358258
 30
0.0
 10
5.259868
 20
3.363334
 30
0.0
 10
5.245314
 20
3.367444
 30
0.0
 10
5.230586
 20
3.370776
 30
0.0
 10
5.215730
 20
3.373517
 30
0.0
 10
5.185816
 20
3.377978
 30
0.0
 10
5.155940
 20
3.382330
 30
0.0
 10
5.139204
 20
3.384280
 30
0.0
 10
5.122388
 20
3.385169
 30
0.0
 10
5.105564
 20
3.384838
 30
0.0
 10
5.088802
 20
3.383131
 30
0.0
 10
5.049200
 20
3.377343
 30
0.0
 10
5.009860
 20
3.369808
 30
0.0
 10
4.988887
 20
3.364437
 30
0.0
 10
4.968154
 20
3.358050
 30
0.0
 10
4.947725
 20
3.350635
 30
0.0
 10
4.927665
 20
3.342177
 30
0.0
 10
4.908038
 20
3.332664
 30
0.0
 10
4.888908
 20
3.322081
 30
0.0
 10
4.870342
 20
3.310414
 30
0.0
 10
4.852403
 20
3.297651
 30
0.0
 10
4.832308
 20
3.282436
 30
0.0
 10
4.812746
 20
3.266468
 30
0.0
 10
4.793719
 20
3.249785
 30
0.0
 10
4.775232
 20
3.232425
 30
0.0
 10
4.757289
 20
3.214428
 30
0.0
 10
4.739894
 20
3.195832
 30
0.0
 10
4.723050
 20
3.176676
 30
0.0
 10
4.706762
 20
3.156998
 30
0.0
 10
4.691153
 20
3.135939
 30
0.0
 10
4.676601
 20
3.114036
 30
0.0
 10
4.663156
 20
3.091351
 30
0.0
 10
4.650863
 20
3.067943
 30
0.0
 10
4.639773
 20
3.043873
 30
0.0
 10
4.629932
 20
3.019201
 30
0.0
 10
4.621388
 20
2.993988
 30
0.0
 10
4.614189
 20
2.968294
 30
0.0
 10
4.608699
 20
2.944987
 30
0.0
 10
4.604088
 20
2.921480
 30
0.0
 10
4.600308
 20
2.897808
 30
0.0
 10
4.597309
 20
2.874003
 30
0.0
 10
4.595043
 20
2.850099
 30
0.0
 10
4.593459
 20
2.826128
 30
0.0
 10
4.592510
 20
2.802124
 30
0.0
 10
4.592146
 20
2.778119
 30
0.0
 10
4.592455
 20
2.755082
 30
0.0
 10
4.593336
 20
2.732064
 30
0.0
 10
4.594784
 20
2.709079
 30
0.0
 10
4.596797
 20
2.686141
 30
0.0
 10
4.599372
 20
2.663268
 30
0.0
 10
4.602506
 20
2.640472
 30
0.0
 10
4.606195
 20
2.617771
 30
0.0
 10
4.610437
 20
2.595179
 30
0.0
 10
4.615227
 20
2.572711
 30
0.0
 10
4.620564
 20
2.550382
 30
0.0
 10
4.626444
 20
2.528209
 30
0.0
 10
4.632864
 20
2.506205
 30
0.0
 10
4.639820
 20
2.484386
 30
0.0
 10
4.647311
 20
2.462767
 30
0.0
 10
4.655332
 20
2.441364
 30
0.0
 10
4.663880
 20
2.420192
 30
0.0
 10
4.681094
 20
2.381341
 30
0.0
 10
4.700001
 20
2.343393
 30
0.0
 10
4.720545
 20
2.306418
 30
0.0
 10
4.742673
 20
2.270487
 30
0.0
 10
4.766332
 20
2.235670
 30
0.0
 10
4.791468
 20
2.202038
 30
0.0
 10
4.818027
 20
2.169661
 30
0.0
 10
4.845955
 20
2.138611
 30
0.0
 10
4.864950
 20
2.118644
 30
0.0
 10
4.884481
 20
2.099239
 30
0.0
 10
4.904533
 20
2.080423
 30
0.0
 10
4.925091
 20
2.062220
 30
0.0
 10
4.946140
 20
2.044657
 30
0.0
 10
4.967665
 20
2.027760
 30
0.0
 10
4.989652
 20
2.011554
 30
0.0
 10
5.012085
 20
1.996064
 30
0.0
 10
5.034949
 20
1.981317
 30
0.0
 10
5.058230
 20
1.967339
 30
0.0
 10
5.081912
 20
1.954155
 30
0.0
 10
5.105981
 20
1.941790
 30
0.0
 10
5.130421
 20
1.930271
 30
0.0
 10
5.155219
 20
1.919624
 30
0.0
 10
5.180357
 20
1.909873
 30
0.0
 10
5.205823
 20
1.901045
 30
0.0
 10
5.226416
 20
1.894602
 30
0.0
 10
5.247148
 20
1.888736
 30
0.0
 10
5.268008
 20
1.883440
 30
0.0
 10
5.288983
 20
1.878705
 30
0.0
 10
5.310061
 20
1.874522
 30
0.0
 10
5.331230
 20
1.870884
 30
0.0
 10
5.352478
 20
1.867782
 30
0.0
 10
5.373792
 20
1.865208
 30
0.0
 10
5.416569
 20
1.861608
 30
0.0
 10
5.459465
 20
1.860018
 30
0.0
 10
5.502380
 20
1.860372
 30
0.0
 10
5.545216
 20
1.862601
 30
0.0
 10
5.592206
 20
1.866816
 30
0.0
 10
5.638983
 20
1.872896
 30
0.0
 10
5.685526
 20
1.880723
 30
0.0
 10
5.731811
 20
1.890175
 30
0.0
 10
5.777815
 20
1.901132
 30
0.0
 10
5.823516
 20
1.913475
 30
0.0
 10
5.868890
 20
1.927082
 30
0.0
 10
5.913914
 20
1.941833
 30
0.0
 10
5.942154
 20
1.951862
 30
0.0
 10
5.970180
 20
1.962544
 30
0.0
 10
5.997978
 20
1.973875
 30
0.0
 10
6.025537
 20
1.985848
 30
0.0
 10
6.052844
 20
1.998455
 30
0.0
 10
6.079885
 20
2.011692
 30
0.0
 10
6.106648
 20
2.025550
 30
0.0
 10
6.133120
 20
2.040024
 30
0.0
 10
6.159288
 20
2.055108
 30
0.0
 10
6.185139
 20
2.070794
 30
0.0
 10
6.210661
 20
2.087077
 30
0.0
 10
6.235841
 20
2.103950
 30
0.0
 10
6.260666
 20
2.121406
 30
0.0
 10
6.285123
 20
2.139439
 30
0.0
 10
6.309199
 20
2.158043
 30
0.0
 10
6.332882
 20
2.177211
 30
0.0
 10
6.368245
 20
2.207285
 30
0.0
 10
6.402666
 20
2.238560
 30
0.0
 10
6.436118
 20
2.270997
 30
0.0
 10
6.468572
 20
2.304557
 30
0.0
 10
6.499999
 20
2.339201
 30
0.0
 10
6.530372
 20
2.374892
 30
0.0
 10
6.559660
 20
2.411590
 30
0.0
 10
6.587836
 20
2.449257
 30
0.0
 10
6.614872
 20
2.487854
 30
0.0
 10
6.640738
 20
2.527343
 30
0.0
 10
6.665407
 20
2.567685
 30
0.0
 10
6.688849
 20
2.608841
 30
0.0
 10
6.711036
 20
2.650773
 30
0.0
 10
6.731940
 20
2.693441
 30
0.0
 10
6.751532
 20
2.736809
 30
0.0
 10
6.769783
 20
2.780836
 30
0.0
 10
6.786726
 20
2.825315
 30
0.0
 10
6.802319
 20
2.870365
 30
0.0
 10
6.816501
 20
2.915942
 30
0.0
 10
6.829211
 20
2.961999
 30
0.0
 10
6.840389
 20
3.008495
 30
0.0
 10
6.849975
 20
3.055383
 30
0.0
 10
6.857909
 20
3.102620
 30
0.0
 10
6.864130
 20
3.150161
 30
0.0
 10
6.868185
 20
3.194267
 30
0.0
 10
6.870997
 20
3.238453
 30
0.0
 10
6.872708
 20
3.282701
 30
0.0
 10
6.873460
 20
3.326988
 30
0.0
 10
6.873394
 20
3.371296
 30
0.0
 10
6.872652
 20
3.415603
 30
0.0
 10
6.869705
 20
3.504139
 30
0.0
 10
6.866224
 20
3.563776
 30
0.0
 10
6.861442
 20
3.623338
 30
0.0
 10
6.855268
 20
3.682760
 30
0.0
 10
6.847610
 20
3.741979
 30
0.0
 10
6.838377
 20
3.800930
 30
0.0
 10
6.827479
 20
3.859551
 30
0.0
 10
6.814824
 20
3.917776
 30
0.0
 10
6.800322
 20
3.975541
 30
0.0
 10
6.787589
 20
4.022591
 30
0.0
 10
6.774037
 20
4.069393
 30
0.0
 10
6.759664
 20
4.115924
 30
0.0
 10
6.744470
 20
4.162164
 30
0.0
 10
6.728454
 20
4.208092
 30
0.0
 10
6.711613
 20
4.253684
 30
0.0
 10
6.693947
 20
4.298921
 30
0.0
 10
6.675456
 20
4.343781
 30
0.0
 10
6.656137
 20
4.388242
 30
0.0
 10
6.635989
 20
4.432283
 30
0.0
 10
6.615011
 20
4.475882
 30
0.0
 10
6.593203
 20
4.519018
 30
0.0
 10
6.570563
 20
4.561670
 30
0.0
 10
6.547089
 20
4.603815
 30
0.0
 10
6.522781
 20
4.645434
 30
0.0
 10
6.497638
 20
4.686503
 30
0.0
 10
6.473932
 20
4.723673
 30
0.0
 10
6.449548
 20
4.760345
 30
0.0
 10
6.424496
 20
4.796508
 30
0.0
 10
6.398786
 20
4.832146
 30
0.0
 10
6.372430
 20
4.867249
 30
0.0
 10
6.345436
 20
4.901801
 30
0.0
 10
6.317816
 20
4.935791
 30
0.0
 10
6.289579
 20
4.969205
 30
0.0
 10
6.260736
 20
5.002030
 30
0.0
 10
6.231297
 20
5.034253
 30
0.0
 10
6.201272
 20
5.065860
 30
0.0
 10
6.170672
 20
5.096839
 30
0.0
 10
6.139506
 20
5.127176
 30
0.0
 10
6.107786
 20
5.156859
 30
0.0
 10
6.075521
 20
5.185873
 30
0.0
 10
6.042721
 20
5.214207
 30
0.0
 10
6.015324
 20
5.237111
 30
0.0
 10
5.987593
 20
5.259551
 30
0.0
 10
5.959536
 20
5.281526
 30
0.0
 10
5.931163
 20
5.303037
 30
0.0
 10
5.902484
 20
5.324082
 30
0.0
 10
5.873506
 20
5.344664
 30
0.0
 10
5.844238
 20
5.364780
 30
0.0
 10
5.814691
 20
5.384432
 30
0.0
 10
5.784872
 20
5.403618
 30
0.0
 10
5.754791
 20
5.422340
 30
0.0
 10
5.693878
 20
5.458388
 30
0.0
 10
5.632024
 20
5.492576
 30
0.0
 10
5.569300
 20
5.524902
 30
0.0
 10
5.520965
 20
5.548888
 30
0.0
 10
5.472157
 20
5.571837
 30
0.0
 10
5.422874
 20
5.593627
 30
0.0
 10
5.373114
 20
5.614137
 30
0.0
 10
5.322875
 20
5.633247
 30
0.0
 10
5.272154
 20
5.650837
 30
0.0
 10
5.220949
 20
5.666784
 30
0.0
 10
5.169259
 20
5.680969
 30
0.0
 10
5.131718
 20
5.690483
 30
0.0
 10
5.094038
 20
5.699325
 30
0.0
 10
5.056229
 20
5.707502
 30
0.0
 10
5.018300
 20
5.715021
 30
0.0
 10
4.980263
 20
5.721890
 30
0.0
 10
4.942126
 20
5.728115
 30
0.0
 10
4.903900
 20
5.733704
 30
0.0
 10
4.865594
 20
5.738664
 30
0.0
 10
4.827220
 20
5.743002
 30
0.0
 10
4.788786
 20
5.746726
 30
0.0
 10
4.750304
 20
5.749841
 30
0.0
 10
4.711782
 20
5.752356
 30
0.0
 10
4.673232
 20
5.754278
 30
0.0
 10
4.634662
 20
5.755614
 30
0.0
 10
4.596083
 20
5.756371
 30
0.0
 10
4.557506
 20
5.756555
 30
0.0
 10
4.557506
 20
5.756555
 30
0.0
  0
LWPOLYLINE
  5
101
100
AcDbEntity
  8
Layer_1
 62
7
100
AcDbPolyline
 90
7
 70
1
 10
0.000000
 20
7.615926
 30
0.0
 10
0.000000
 20
7.610923
 30
0.0
 10
0.000000
 20
-0.000000
 30
0.0
 10
7.858150
 20
-0.000000
 30
0.0
 10
7.858150
 20
7.615926
 30
0.0
 10
0.000000
 20
7.615926
 30
0.0
 10
0.000000
 20
7.615926
 30
0.0
  0
LWPOLYLINE
  5
102
100
AcDbEntity
  8
Layer_1
 62
7
100
AcDbPolyline
 90
6
 70
1
 10
0.009999
 20
7.605927
 30
0.0
 10
7.848151
 20
7.605927
 30
0.0
 10
7.848151
 20
0.009999
 30
0.0
 10
0.009999
 20
0.009999
 30
0.0
 10
0.009999
 20
7.605927
 30
0.0
 10
0.009999
 20
7.605927
 30
0.0
  0
ENDSEC
  0
SECTION
  2
OBJECTS
  0
DICTIONARY
  5
C
330
0
100
AcDbDictionary
  3
ACAD_GROUP
350
D
  3
ACAD_MLINESTYLE
350
17
  0
DICTIONARY
  5
D
330
C
100
AcDbDictionary
  0
DICTIONARY
  5
1A
330
C
100
AcDbDictionary
  0
DICTIONARY
  5
17
330
C
100
AcDbDictionary
  3
STANDARD
350
18
  0
DICTIONARY
  5
19
330
C
100
AcDbDictionary
  0
ENDSEC
  0
EOF
