  0
SECTION
  2
HEADER
  9
$ACADVER
  1
AC1014
  9
$HANDSEED
  5
FFFF
  9
$MEASUREMENT
 70
     1
  0
ENDSEC
  0
SECTION
  2
TABLES
  0
TABLE
  2
VPORT
  5
8
330
0
100
AcDbSymbolTable
 70
     4
  0
VPORT
  5
2E
330
8
100
AcDbSymbolTableRecord
100
AcDbViewportTableRecord
  2
*ACTIVE
 70
     0
 10
0.0
 20
0.0
 11
1.0
 21
1.0
 12
210.0
 22
148.5
 13
0.0
 23
0.0
 14
10.0
 24
10.0
 15
10.0
 25
10.0
 16
0.0
 26
0.0
 36
1.0
 17
0.0
 27
0.0
 37
0.0
 40
341.0
 41
1.24
 42
50.0
 43
0.0
 44
0.0
 50
0.0
 51
0.0
 71
     0
 72
   100
 73
     1
 74
     3
 75
     0
 76
     0
 77
     0
 78
     0
  0
ENDTAB
  0
TABLE
  2
LTYPE
  5
5
330
0
100
AcDbSymbolTable
 70
     1
  0
LTYPE
  5
14
330
5
100
AcDbSymbolTableRecord
100
AcDbLinetypeTableRecord
  2
BYBLOCK
 70
     0
  3

 72
    65
 73
     0
 40
0.0
  0
LTYPE
  5
15
330
5
100
AcDbSymbolTableRecord
100
AcDbLinetypeTableRecord
  2
BYLAYER
 70
     0
  3

 72
    65
 73
     0
 40
0.0
  0
LTYPE
  5
16
330
5
100
AcDbSymbolTableRecord
100
AcDbLinetypeTableRecord
  2
CONTINUOUS
 70
     0
  3
Solid line
 72
    65
 73
     0
 40
0.0
  0
ENDTAB
  0
TABLE
  2
LAYER
  5
2
100
AcDbSymbolTable
 70
2
  0
LAYER
  5
50
100
AcDbSymbolTableRecord
100
AcDbLayerTableRecord
  2
0
 70
0
  6
CONTINUOUS
  0
LAYER
  5
51
100
AcDbSymbolTableRecord
100
AcDbLayerTableRecord
  2
Layer_1
 70
0
  6
CONTINUOUS
  0
ENDTAB
  0
TABLE
  2
STYLE
  5
3
330
0
100
AcDbSymbolTable
 70
     1
  0
STYLE
  5
11
330
3
100
AcDbSymbolTableRecord
100
AcDbTextStyleTableRecord
  2
STANDARD
 70
     0
 40
0.0
 41
1.0
 50
0.0
 71
     0
 42
2.5
  3
txt
  4

  0
ENDTAB
  0
TABLE
  2
VIEW
  5
6
330
0
100
AcDbSymbolTable
 70
     0
  0
ENDTAB
  0
TABLE
  2
UCS
  5
7
330
0
100
AcDbSymbolTable
 70
     0
  0
ENDTAB
  0
TABLE
  2
APPID
  5
9
330
0
100
AcDbSymbolTable
 70
     2
  0
APPID
  5
12
330
9
100
AcDbSymbolTableRecord
100
AcDbRegAppTableRecord
  2
ACAD
 70
     0
  0
ENDTAB
  0
TABLE
  2
DIMSTYLE
  5
A
330
0
100
AcDbSymbolTable
 70
     1
  0
DIMSTYLE
105
27
330
A
100
AcDbSymbolTableRecord
100
AcDbDimStyleTableRecord
  2
ISO-25
 70
     0
  3

  4

  5

  6

  7

 40
1.0
 41
2.5
 42
0.625
 43
3.75
 44
1.25
 45
0.0
 46
0.0
 47
0.0
 48
0.0
140
2.5
141
2.5
142
0.0
143
0.03937007874016
144
1.0
145
0.0
146
1.0
147
0.625
 71
     0
 72
     0
 73
     0
 74
     0
 75
     0
 76
     0
 77
     1
 78
     8
170
     0
171
     3
172
     1
173
     0
174
     0
175
     0
176
     0
177
     0
178
     0
270
     2
271
     2
272
     2
273
     2
274
     3
340
11
275
     0
280
     0
281
     0
282
     0
283
     0
284
     8
285
     0
286
     0
287
     3
288
     0
  0
ENDTAB
  0
TABLE
  2
BLOCK_RECORD
  5
1
330
0
100
AcDbSymbolTable
 70
     1
  0
BLOCK_RECORD
  5
1F
330
1
100
AcDbSymbolTableRecord
100
AcDbBlockTableRecord
  2
*MODEL_SPACE
  0
BLOCK_RECORD
  5
1B
330
1
100
AcDbSymbolTableRecord
100
AcDbBlockTableRecord
  2
*PAPER_SPACE
  0
ENDTAB
  0
ENDSEC
  0
SECTION
  2
BLOCKS
  0
BLOCK
  5
20
330
1F
100
AcDbEntity
  8
0
100
AcDbBlockBegin
  2
*MODEL_SPACE
 70
     0
 10
0.0
 20
0.0
 30
0.0
  3
*MODEL_SPACE
  1

  0
ENDBLK
  5
21
330
1F
100
AcDbEntity
  8
0
100
AcDbBlockEnd
  0
BLOCK
  5
1C
330
1B
100
AcDbEntity
 67
     1
  8
0
100
AcDbBlockBegin
  2
*PAPER_SPACE
  1

  0
ENDBLK
  5
1D
330
1B
100
AcDbEntity
 67
     1
  8
0
100
AcDbBlockEnd
  0
ENDSEC
  0
SECTION
  2
ENTITIES
  0
LWPOLYLINE
  5
100
100
AcDbEntity
  8
Layer_1
 62
7
100
AcDbPolyline
 90
7
 70
1
 10
0.000000
 20
7.615926
 30
0.0
 10
0.000000
 20
7.610923
 30
0.0
 10
0.000000
 20
-0.000000
 30
0.0
 10
7.858150
 20
-0.000000
 30
0.0
 10
7.858150
 20
7.615926
 30
0.0
 10
0.000000
 20
7.615926
 30
0.0
 10
0.000000
 20
7.615926
 30
0.0
  0
LWPOLYLINE
  5
101
100
AcDbEntity
  8
Layer_1
 62
7
100
AcDbPolyline
 90
6
 70
1
 10
0.009999
 20
7.605927
 30
0.0
 10
7.848151
 20
7.605927
 30
0.0
 10
7.848151
 20
0.009999
 30
0.0
 10
0.009999
 20
0.009999
 30
0.0
 10
0.009999
 20
7.605927
 30
0.0
 10
0.009999
 20
7.605927
 30
0.0
  0
LWPOLYLINE
  5
102
100
AcDbEntity
  8
Layer_1
 62
7
100
AcDbPolyline
 90
7
 70
1
 10
0.000000
 20
7.615926
 30
0.0
 10
0.000000
 20
7.610922
 30
0.0
 10
0.000000
 20
0.000000
 30
0.0
 10
7.858158
 20
0.000000
 30
0.0
 10
7.858158
 20
7.615926
 30
0.0
 10
0.000000
 20
7.615926
 30
0.0
 10
0.000000
 20
7.615926
 30
0.0
  0
LWPOLYLINE
  5
103
100
AcDbEntity
  8
Layer_1
 62
7
100
AcDbPolyline
 90
6
 70
1
 10
0.010007
 20
7.605927
 30
0.0
 10
7.848159
 20
7.605927
 30
0.0
 10
7.848159
 20
0.010006
 30
0.0
 10
0.010007
 20
0.010006
 30
0.0
 10
0.010007
 20
7.605927
 30
0.0
 10
0.010007
 20
7.605927
 30
0.0
  0
LWPOLYLINE
  5
104
100
AcDbEntity
  8
Layer_1
 62
7
100
AcDbPolyline
 90
106
 70
0
 10
4.631035
 20
5.777734
 30
0.0
 10
4.300192
 20
5.761422
 30
0.0
 10
3.972147
 20
5.717349
 30
0.0
 10
3.648907
 20
5.647218
 30
0.0
 10
3.332482
 20
5.552728
 30
0.0
 10
3.033954
 20
5.437178
 30
0.0
 10
2.746273
 20
5.298430
 30
0.0
 10
2.471169
 20
5.137685
 30
0.0
 10
2.210373
 20
4.956147
 30
0.0
 10
2.052948
 20
4.830839
 30
0.0
 10
1.902268
 20
4.698042
 30
0.0
 10
1.758686
 20
4.558123
 30
0.0
 10
1.622556
 20
4.411449
 30
0.0
 10
1.494229
 20
4.258386
 30
0.0
 10
1.374057
 20
4.099301
 30
0.0
 10
1.262394
 20
3.934560
 30
0.0
 10
1.159592
 20
3.764530
 30
0.0
 10
1.032422
 20
3.521855
 30
0.0
 10
0.923081
 20
3.271240
 30
0.0
 10
0.832087
 20
3.013904
 30
0.0
 10
0.759961
 20
2.751066
 30
0.0
 10
0.709411
 20
2.497833
 30
0.0
 10
0.676507
 20
2.241908
 30
0.0
 10
0.663863
 20
2.072658
 30
0.0
 10
0.660191
 20
1.903021
 30
0.0
 10
0.660301
 20
1.846080
 30
0.0
 10
0.753952
 20
1.846135
 30
0.0
 10
0.755551
 20
2.034817
 30
0.0
 10
0.777379
 20
2.298794
 30
0.0
 10
0.805553
 20
2.498608
 30
0.0
 10
0.844573
 20
2.696749
 30
0.0
 10
0.894325
 20
2.892652
 30
0.0
 10
0.954696
 20
3.085755
 30
0.0
 10
1.025572
 20
3.275493
 30
0.0
 10
1.106839
 20
3.461302
 30
0.0
 10
1.198385
 20
3.642619
 30
0.0
 10
1.300096
 20
3.818880
 30
0.0
 10
1.425972
 20
4.010384
 30
0.0
 10
1.563439
 20
4.194319
 30
0.0
 10
1.711922
 20
4.370131
 30
0.0
 10
1.870842
 20
4.537267
 30
0.0
 10
2.039623
 20
4.695176
 30
0.0
 10
2.217689
 20
4.843304
 30
0.0
 10
2.404462
 20
4.981099
 30
0.0
 10
2.599366
 20
5.108007
 30
0.0
 10
2.795015
 20
5.219631
 30
0.0
 10
2.997203
 20
5.319836
 30
0.0
 10
3.205180
 20
5.408371
 30
0.0
 10
3.418196
 20
5.484983
 30
0.0
 10
3.604629
 20
5.541633
 30
0.0
 10
3.793658
 20
5.589655
 30
0.0
 10
3.984850
 20
5.628914
 30
0.0
 10
4.177771
 20
5.659278
 30
0.0
 10
4.411477
 20
5.677622
 30
0.0
 10
4.646028
 20
5.681216
 30
0.0
 10
4.646028
 20
1.845309
 30
0.0
 10
4.743208
 20
1.845309
 30
0.0
 10
4.743208
 20
2.425353
 30
0.0
 10
4.749271
 20
2.411186
 30
0.0
 10
4.836837
 20
2.260088
 30
0.0
 10
4.951622
 20
2.126980
 30
0.0
 10
5.039583
 20
2.049905
 30
0.0
 10
5.136288
 20
1.983167
 30
0.0
 10
5.240664
 20
1.928418
 30
0.0
 10
5.351639
 20
1.887311
 30
0.0
 10
5.466533
 20
1.860740
 30
0.0
 10
5.583921
 20
1.847679
 30
0.0
 10
5.583921
 20
1.845309
 30
0.0
 10
5.681100
 20
1.845309
 30
0.0
 10
5.681100
 20
1.846246
 30
0.0
 10
5.728836
 20
1.848506
 30
0.0
 10
5.936219
 20
1.876345
 30
0.0
 10
6.138609
 20
1.928487
 30
0.0
 10
6.262672
 20
1.972902
 30
0.0
 10
6.382247
 20
2.027572
 30
0.0
 10
6.496419
 20
2.092080
 30
0.0
 10
6.604276
 20
2.166006
 30
0.0
 10
6.755082
 20
2.294505
 30
0.0
 10
6.887629
 20
2.440517
 30
0.0
 10
6.999891
 20
2.601546
 30
0.0
 10
7.089841
 20
2.775099
 30
0.0
 10
7.155909
 20
2.957907
 30
0.0
 10
7.194738
 20
3.147775
 30
0.0
 10
7.205096
 20
3.326178
 30
0.0
 10
7.200911
 20
3.504908
 30
0.0
 10
7.176354
 20
3.744915
 30
0.0
 10
7.123796
 20
3.980606
 30
0.0
 10
7.061722
 20
4.168920
 30
0.0
 10
6.985019
 20
4.352184
 30
0.0
 10
6.893602
 20
4.529011
 30
0.0
 10
6.787390
 20
4.698013
 30
0.0
 10
6.677519
 20
4.844974
 30
0.0
 10
6.556135
 20
4.983271
 30
0.0
 10
6.423971
 20
5.112057
 30
0.0
 10
6.281760
 20
5.230487
 30
0.0
 10
6.157769
 20
5.320124
 30
0.0
 10
6.028312
 20
5.402265
 30
0.0
 10
5.894031
 20
5.476899
 30
0.0
 10
5.755570
 20
5.544018
 30
0.0
 10
5.537554
 20
5.634035
 30
0.0
 10
5.311015
 20
5.701445
 30
0.0
 10
5.143226
 20
5.735809
 30
0.0
 10
4.973483
 20
5.759672
 30
0.0
 10
4.802511
 20
5.773494
 30
0.0
 10
4.631035
 20
5.777734
 30
0.0
 10
4.631035
 20
5.777734
 30
0.0
  0
LWPOLYLINE
  5
105
100
AcDbEntity
  8
Layer_1
 62
7
100
AcDbPolyline
 90
24
 70
0
 10
4.743208
 20
5.680058
 30
0.0
 10
4.930904
 20
5.671389
 30
0.0
 10
5.117428
 20
5.650127
 30
0.0
 10
5.302728
 20
5.609274
 30
0.0
 10
5.484316
 20
5.554877
 30
0.0
 10
5.677480
 20
5.481105
 30
0.0
 10
5.863361
 20
5.391591
 30
0.0
 10
6.040422
 20
5.286816
 30
0.0
 10
6.207125
 20
5.167263
 30
0.0
 10
6.352790
 20
5.044574
 30
0.0
 10
6.488715
 20
4.911889
 30
0.0
 10
6.613904
 20
4.769762
 30
0.0
 10
6.727362
 20
4.618748
 30
0.0
 10
6.806206
 20
4.494015
 30
0.0
 10
6.875983
 20
4.364396
 30
0.0
 10
6.936823
 20
4.230626
 30
0.0
 10
6.988859
 20
4.093440
 30
0.0
 10
7.043035
 20
3.919096
 30
0.0
 10
7.083888
 20
3.741434
 30
0.0
 10
7.100004
 20
3.574408
 30
0.0
 10
7.105606
 20
3.406626
 30
0.0
 10
4.743208
 20
3.406626
 30
0.0
 10
4.743208
 20
5.680058
 30
0.0
 10
4.743208
 20
5.680058
 30
0.0
  0
LWPOLYLINE
  5
106
100
AcDbEntity
  8
Layer_1
 62
7
100
AcDbPolyline
 90
20
 70
0
 10
7.107315
 20
3.337724
 30
0.0
 10
7.106870
 20
3.227726
 30
0.0
 10
7.096291
 20
3.118340
 30
0.0
 10
7.064248
 20
2.981610
 30
0.0
 10
7.018018
 20
2.848631
 30
0.0
 10
6.935203
 20
2.678185
 30
0.0
 10
6.829763
 20
2.519771
 30
0.0
 10
6.703742
 20
2.375995
 30
0.0
 10
6.559186
 20
2.249460
 30
0.0
 10
6.410463
 20
2.148764
 30
0.0
 10
6.250185
 20
2.066116
 30
0.0
 10
6.080725
 20
2.002820
 30
0.0
 10
5.904453
 20
1.960182
 30
0.0
 10
5.793265
 20
1.944359
 30
0.0
 10
5.681100
 20
1.937196
 30
0.0
 10
5.681100
 20
3.313085
 30
0.0
 10
6.394483
 20
3.313085
 30
0.0
 10
7.107315
 20
3.313085
 30
0.0
 10
7.107315
 20
3.337724
 30
0.0
 10
7.107315
 20
3.337724
 30
0.0
  0
LWPOLYLINE
  5
107
100
AcDbEntity
  8
Layer_1
 62
7
100
AcDbPolyline
 90
11
 70
0
 10
5.232191
 20
3.285800
 30
0.0
 10
5.232191
 20
2.842071
 30
0.0
 10
4.769390
 20
2.842071
 30
0.0
 10
4.796124
 20
2.968300
 30
0.0
 10
4.837186
 20
3.050737
 30
0.0
 10
4.895949
 20
3.122750
 30
0.0
 10
4.977602
 20
3.194799
 30
0.0
 10
5.071897
 20
3.250412
 30
0.0
 10
5.150239
 20
3.275414
 30
0.0
 10
5.232191
 20
3.285800
 30
0.0
 10
5.232191
 20
3.285800
 30
0.0
  0
LWPOLYLINE
  5
108
100
AcDbEntity
  8
Layer_1
 62
7
100
AcDbPolyline
 90
18
 70
0
 10
5.329370
 20
3.281224
 30
0.0
 10
5.388881
 20
3.267964
 30
0.0
 10
5.445070
 20
3.245120
 30
0.0
 10
5.484945
 20
3.217925
 30
0.0
 10
5.517665
 20
3.182998
 30
0.0
 10
5.550896
 20
3.127624
 30
0.0
 10
5.571243
 20
3.066747
 30
0.0
 10
5.576663
 20
3.009409
 30
0.0
 10
5.566778
 20
2.952810
 30
0.0
 10
5.537688
 20
2.907824
 30
0.0
 10
5.493467
 20
2.879444
 30
0.0
 10
5.445462
 20
2.869023
 30
0.0
 10
5.396729
 20
2.875695
 30
0.0
 10
5.361932
 20
2.896528
 30
0.0
 10
5.337252
 20
2.927510
 30
0.0
 10
5.329315
 20
2.964441
 30
0.0
 10
5.329370
 20
3.281224
 30
0.0
 10
5.329370
 20
3.281224
 30
0.0
  0
LWPOLYLINE
  5
109
100
AcDbEntity
  8
Layer_1
 62
7
100
AcDbPolyline
 90
15
 70
0
 10
4.765587
 20
2.748530
 30
0.0
 10
5.163619
 20
2.748530
 30
0.0
 10
5.583921
 20
2.748530
 30
0.0
 10
5.583921
 20
1.938685
 30
0.0
 10
5.551895
 20
1.940559
 30
0.0
 10
5.387161
 20
1.972792
 30
0.0
 10
5.232238
 20
2.035550
 30
0.0
 10
5.092325
 20
2.125475
 30
0.0
 10
4.972623
 20
2.239207
 30
0.0
 10
4.903502
 20
2.329395
 30
0.0
 10
4.846775
 20
2.427334
 30
0.0
 10
4.803832
 20
2.531503
 30
0.0
 10
4.776060
 20
2.640382
 30
0.0
 10
4.765587
 20
2.748530
 30
0.0
 10
4.765587
 20
2.748530
 30
0.0
  0
ENDSEC
  0
SECTION
  2
OBJECTS
  0
DICTIONARY
  5
C
330
0
100
AcDbDictionary
  3
ACAD_GROUP
350
D
  3
ACAD_MLINESTYLE
350
17
  0
DICTIONARY
  5
D
330
C
100
AcDbDictionary
  0
DICTIONARY
  5
1A
330
C
100
AcDbDictionary
  0
DICTIONARY
  5
17
330
C
100
AcDbDictionary
  3
STANDARD
350
18
  0
DICTIONARY
  5
19
330
C
100
AcDbDictionary
  0
ENDSEC
  0
EOF
