<?xml version="1.0" encoding="UTF-8" standalone="no"?>
<!-- Created with Inkscape (http://www.inkscape.org/) -->

<svg
   xmlns:dc="http://purl.org/dc/elements/1.1/"
   xmlns:cc="http://creativecommons.org/ns#"
   xmlns:rdf="http://www.w3.org/1999/02/22-rdf-syntax-ns#"
   xmlns:svg="http://www.w3.org/2000/svg"
   xmlns="http://www.w3.org/2000/svg"
   xmlns:sodipodi="http://sodipodi.sourceforge.net/DTD/sodipodi-0.dtd"
   xmlns:inkscape="http://www.inkscape.org/namespaces/inkscape"
   width="48mm"
   height="13mm"
   viewBox="0 0 170.07876 46.062993"
   id="svg2"
   version="1.1"
   inkscape:version="0.91 r13725"
   sodipodi:docname="design.svg">
  <sodipodi:namedview
     id="base"
     pagecolor="#ffffff"
     bordercolor="#666666"
     borderopacity="1.0"
     inkscape:pageopacity="0.0"
     inkscape:pageshadow="2"
     inkscape:zoom="5.6568542"
     inkscape:cx="101.04446"
     inkscape:cy="-9.7793758"
     inkscape:document-units="mm"
     inkscape:current-layer="layer1"
     showgrid="true"
     fit-margin-top="0"
     fit-margin-left="0"
     fit-margin-right="0"
     fit-margin-bottom="0"
     inkscape:window-width="1920"
     inkscape:window-height="1029"
     inkscape:window-x="1600"
     inkscape:window-y="25"
     inkscape:window-maximized="1"
     showguides="true"
     inkscape:snap-global="true"
     inkscape:snap-bbox="true"
     inkscape:bbox-paths="true"
     inkscape:bbox-nodes="true"
     inkscape:snap-bbox-edge-midpoints="true"
     inkscape:snap-bbox-midpoints="true"
     inkscape:object-paths="true"
     inkscape:snap-intersection-paths="true"
     inkscape:object-nodes="true"
     inkscape:snap-smooth-nodes="true"
     inkscape:snap-object-midpoints="true"
     inkscape:snap-center="true">
    <inkscape:grid
       type="xygrid"
       id="grid4319"
       empcolor="#3f3fff"
       empopacity="0.26666667"
       color="#3f3fff"
       opacity="0.19215686"
       originx="-970.00013"
       originy="-718.93703" />
  </sodipodi:namedview>
  <defs
     id="defs4" />
  <metadata
     id="metadata7">
    <rdf:RDF>
      <cc:Work
         rdf:about="">
        <dc:format>image/svg+xml</dc:format>
        <dc:type
           rdf:resource="http://purl.org/dc/dcmitype/StillImage" />
        <dc:title></dc:title>
      </cc:Work>
    </rdf:RDF>
  </metadata>
  <g
     inkscape:label="Layer 1"
     inkscape:groupmode="layer"
     id="layer1"
     transform="translate(-970,-287.36217)">
    <path
       style="fill:#ff00ff;fill-opacity:0.62012987;stroke:none;stroke-width:1.41732287;stroke-linecap:square;stroke-linejoin:miter;stroke-miterlimit:4;stroke-dasharray:none;stroke-opacity:0.39610392"
       d="m 970,287.36217 0,46.063 170.0788,0 0,-46.063 z m 32.151,3.36984 134.2782,0 0,39.38395 -134.2782,0 z m -15.73251,0.0391 9.06427,0.0313 0.51801,0.29728 c 0.33459,0.19174 0.62239,0.47379 0.81906,0.79993 l 0.30299,0.50264 0.0195,17.72932 c 0.0172,13.68578 -0.006,17.82013 -0.12707,18.2574 -0.20267,0.73332 -0.92479,1.37631 -1.72997,1.53921 -0.39693,0.08 -3.37186,0.10662 -9.58229,0.0861 -8.98416,-0.0298 -9.00959,-0.0294 -9.44545,-0.25817 -0.54847,-0.28769 -0.87048,-0.62184 -1.08686,-1.12654 -0.15002,-0.35037 -0.16811,-3.33605 -0.16811,-18.28673 0,-16.53825 0.002,-17.90404 0.21307,-18.30824 0.30276,-0.5784 0.92516,-1.04532 1.58141,-1.18326 0.38122,-0.0801 3.36383,-0.10309 9.62139,-0.0802 z m 20.91801,2.45844 0.1076,1.68199 0.1075,1.68199 2.7445,0.10365 2.7426,0.10366 0,5.83024 0,5.82828 2.3007,0 2.3008,0 0,-5.84393 0,-5.84393 3.0083,0 3.0105,0 0,-1.77 0,-1.77195 -8.1613,0 z m 28.786,0 c -4.4675,0 -5.0633,0.0767 -6.48,0.82535 -3.3324,1.76088 -4.7656,6.3224 -3.1609,10.05476 0.9222,2.14457 1.9396,3.17664 3.7806,3.83337 0.8825,0.31482 3.0176,0.49067 6.0715,0.50069 l 4.709,0.0157 -0.1074,-1.68199 -0.1076,-1.68199 -4.1246,-0.17798 c -3.3979,-0.14592 -4.2549,-0.29485 -4.8673,-0.85077 -0.409,-0.37108 -0.7429,-0.80509 -0.7429,-0.96421 0,-0.15911 2.1905,-0.33503 4.8674,-0.3892 l 4.8674,-0.0978 0.1076,-1.68198 0.1074,-1.68199 -4.9749,0 c -5.2633,0 -5.5709,-0.11172 -4.4744,-1.61549 0.4354,-0.59726 1.0744,-0.71062 4.8673,-0.86447 l 4.367,-0.17797 0.1076,-1.68199 0.1074,-1.68199 -4.9202,0 z m 38.6752,0 c -7.0053,0 -8.1931,0.27859 -9.3594,2.19245 -1.4509,2.38107 -0.6177,5.19766 1.8726,6.32897 1.0939,0.49685 2.3131,0.67452 4.6661,0.68453 3.6565,0.0145 4.6464,0.20847 4.9377,0.96812 0.4946,1.28966 -0.4001,1.51379 -6.0422,1.51379 l -5.444,0 0,1.77196 0,1.76999 6.566,0 c 7.3025,0 8.141,-0.19987 9.3791,-2.23156 1.3806,-2.26559 0.5521,-5.38344 -1.7242,-6.49326 -0.939,-0.45781 -2.4025,-0.67361 -5.27,-0.7745 -4.0781,-0.14346 -5.0241,-0.48463 -4.5761,-1.65265 0.1713,-0.44645 1.1229,-0.53589 5.704,-0.53589 l 5.4969,0 0,-1.77 0,-1.77195 z m 11.1618,0 0,7.61589 0,7.61392 2.3027,0 2.3007,0 0,-7.61392 0,-7.61589 -2.3007,0 z m 18.9281,0 c -3.2445,0 -5.1593,0.15489 -5.9309,0.48113 -1.3488,0.57038 -2.9291,2.09488 -3.718,3.58498 -0.7747,1.46471 -0.7611,5.65893 0.023,7.14258 0.8563,1.61884 2.4929,3.13476 3.851,3.56933 0.6512,0.20841 3.2943,0.39471 5.874,0.41463 l 4.6896,0.0372 0,-1.74067 0,-1.74261 -4.279,-0.11735 c -4.07,-0.11242 -4.3149,-0.16131 -4.9964,-1.00333 l -0.7174,-0.88597 4.9964,-0.0978 4.9964,-0.0978 0,-1.76218 0,-1.76022 -4.7579,0 c -5.2332,0 -5.918,-0.26404 -4.3044,-1.65265 0.8864,-0.76294 1.2769,-0.8273 5.012,-0.8273 l 4.0503,0 0,-1.77 0,-1.77196 -4.7892,0 z m 9.0368,0 0,7.61589 0,7.61392 2.3027,0 2.3008,0 0,-2.69509 0,-2.69509 2.6937,0.13691 c 3.1939,0.16137 3.8007,0.66536 4.1715,3.46176 l 0.2385,1.79151 2.6663,0 c 2.3687,0 2.6483,-0.0694 2.4963,-0.61998 -0.094,-0.3409 -0.2753,-1.37566 -0.4008,-2.30003 -0.142,-1.04543 -0.5784,-2.09708 -1.1553,-2.7831 -0.8355,-0.99351 -0.8683,-1.13546 -0.3323,-1.43556 1.5315,-0.85753 2.0932,-3.73929 1.1025,-5.65617 -1.0391,-2.01039 -2.682,-2.41857 -9.7993,-2.42715 l -6.2846,-0.008 z m -61.9585,0.0587 c -4.987,0.004 -6.0138,0.41915 -7.0586,2.13378 -1.4686,2.40989 -0.4799,5.40589 2.1287,6.45023 0.9611,0.38475 2.5298,0.56523 4.8811,0.56523 3.8787,0 5.1684,0.48285 4.4471,1.66243 -0.3423,0.55972 -1.0793,0.66277 -5.8409,0.81752 l -5.4479,0.17798 -0.1095,1.68199 -0.1055,1.68198 6.5856,0 c 5.2533,0 6.7996,-0.11012 7.6451,-0.54762 2.1795,-1.1276 3.0914,-4.25813 1.9079,-6.54802 -0.8943,-1.73026 -2.3319,-2.22341 -6.9785,-2.39781 -4.2577,-0.15979 -5.1119,-0.45541 -4.6661,-1.61745 0.1908,-0.49755 0.9652,-0.57696 5.6708,-0.57696 6.0439,0 5.4583,0.25256 5.5554,-2.38998 l 0.035,-0.97399 -6.2593,-0.0978 c -0.8856,-0.0137 -1.6782,-0.022 -2.3907,-0.0215 z m -58.31085,1.22042 c -0.0752,0.0299 -3.37688,1.70549 -7.33821,3.71993 -5.06916,2.57774 -7.2691,3.7491 -7.42813,3.95659 -0.21088,0.27523 -0.23093,0.45995 -0.26194,2.78897 l -0.0332,2.4956 1.91764,0 1.91958,0 0,-1.19891 0,-1.1989 5.67862,-2.76941 5.68056,-2.76746 0,-2.53863 c -0.27533,-1.97111 -0.0279,-2.53043 -0.13488,-2.48778 z m 124.87285,2.26286 3.1139,0 c 3.0603,0 3.9643,0.29302 3.9643,1.28497 0,0.23932 -0.2493,0.68549 -0.5551,0.99159 -0.4178,0.41793 -1.2997,0.5574 -3.5401,0.5574 l -2.983,0 0,-1.41796 z m -127.39842,6.1197 c -0.0226,0 -0.7471,0.34966 -1.61073,0.77645 l -1.56968,0.7745 -0.0332,1.5666 -0.0293,1.56659 1.64201,0 1.64201,0 0,-2.34305 c 0,-1.28836 -0.018,-2.34109 -0.041,-2.34109 z m -12.52422,6.60083 0,8.1459 0,8.14395 1.91177,0 1.90981,0 0.0293,-3.27205 0.0273,-3.27401 5.65515,-0.0274 5.65515,-0.0274 0,-2.34305 0,-2.3411 -5.68251,0 -5.68252,0 0,-2.50146 0,-2.50343 -1.90981,0 -1.91373,0 z m 54.70244,2.60708 c -3.0284,0.0476 -3.9992,0.9497 -4.9886,2.2081 -0.5369,0.68295 -0.7663,1.4703 -0.7663,2.62077 0,3.25809 1.6456,4.30283 7.2561,4.60395 3.7659,0.20212 3.8977,0.23661 4.0132,1.05418 0.066,0.46494 -0.093,0.98095 -0.3538,1.14609 -0.2604,0.16515 -2.6635,0.30211 -5.3405,0.30511 l -4.8673,0.006 0,1.77 0,1.77195 5.0433,-0.0156 c 2.7744,-0.009 5.758,-0.1527 6.6286,-0.32075 2.9768,-0.57461 4.6058,-3.68265 3.3036,-6.30159 -1.1289,-2.2704 -2.0313,-2.65986 -6.7283,-2.89458 l -4.1774,-0.20732 -0.1075,-0.929 c -0.081,-1.23827 0.4356,-1.36305 6.0383,-1.36906 l 4.5136,-0.006 0,-1.59202 0,-1.59398 -5.6767,0 c -1.544,-0.1927 -2.7809,-0.27206 -3.7903,-0.2562 z m -18.4706,0.25621 -1.04,2.21396 c -0.5722,1.21748 -2.1713,4.57511 -3.5537,7.46138 -1.3826,2.88625 -2.5139,5.31565 -2.5139,5.39996 0,0.0844 1.0866,0.15451 2.4161,0.15451 l 2.418,0 0.8289,-1.77195 0.8288,-1.77 2.8892,0 2.8871,0 0.8289,1.77 0.8288,1.77195 2.4181,0 c 1.3295,0 2.416,-0.13539 2.416,-0.30119 0,-0.16581 -1.588,-3.5936 -3.5302,-7.61589 l -3.5324,-7.31273 -2.2949,0 z m 31.4756,0 0,7.61393 0,7.61588 2.1249,0 2.1229,0 0,-3.00998 0,-3.01193 2.8324,0 2.8325,0 0,3.01193 0,3.00998 2.1229,0 2.1248,0 0,-7.61588 0,-7.61393 -2.1248,0 -2.1229,0 0,2.83395 0,2.832 -2.8325,0 -2.8324,0 0,-2.832 0,-2.83395 -2.1229,0 z m 17.7006,0 0,7.63153 0,7.63349 2.0349,-0.10562 2.0349,-0.10757 0.1036,-2.5484 0.1036,-2.55037 3.4658,0.0254 c 3.9325,-0.77603 4.8181,-0.15717 6.1575,-1.41209 2.4306,-2.27713 1.7493,-6.54688 -1.2725,-7.98162 -0.9851,-0.46765 -2.3679,-0.58478 -6.9297,-0.58478 l -5.6981,0 z m 54.8079,0 0.1172,5.77156 c 0.098,4.78201 0.2275,5.93509 0.7448,6.72404 0.8136,1.24079 2.129,2.08559 3.7414,2.39977 0.7133,0.13901 2.7713,0.27094 4.5722,0.29337 l 3.2743,0.0411 0,-1.77196 0,-1.77 -3.2958,0 c -2.0537,-0.44163 -3.5165,-0.16187 -3.9075,-0.44788 -0.529,-0.38706 -0.6251,-1.19008 -0.6881,-5.84197 l -0.074,-5.39214 -2.2422,-0.004 -2.242,-0.002 z m -10.7102,0.002 c -3.3743,0.003 -5.0721,0.5352 -6.6131,2.07706 -0.988,0.9885 -1.3934,1.77722 -1.7182,3.34246 -1.0023,4.83067 1.0065,8.3163 5.4734,9.49932 1.8753,0.49671 6.2932,0.0997 7.8757,-0.708 3.1425,-1.60381 4.4638,-5.73739 3.0847,-9.64796 -1.1125,-3.15495 -3.6195,-4.56689 -8.1025,-4.56288 z m -18.7874,0.002 c -3.0568,0 -4.7875,0.45791 -6.1927,1.64092 -1.3717,1.15486 -1.7032,1.79251 -2.1405,4.09935 -0.8763,4.62321 1.1975,8.01639 5.577,9.12186 2.1072,0.53185 6.1621,0.18297 7.8425,-0.67476 4.0237,-2.05385 4.859,-8.75095 1.5091,-12.10249 -1.5472,-1.54802 -3.2442,-2.08488 -6.5954,-2.08488 z m -17.5577,3.05496 c 0.9939,0.003 1.8991,0.34358 2.1815,0.49482 0.776,0.41553 0.9332,2.0764 0.26,2.74985 -0.2578,0.25792 -1.5108,0.42637 -3.1863,0.42637 l -2.7602,0 0,-1.77196 0,-1.77 2.5002,0 c 0.331,-0.0937 0.6735,-0.13012 1.0048,-0.12908 z m 17.9448,0.12908 c 1.1884,0 1.7984,0.20538 2.4043,0.81166 1.547,1.54791 1.4763,5.69606 -0.1212,7.14258 -0.7976,0.72222 -3.3725,1.04715 -4.492,0.56718 -1.3074,-0.5605 -1.8961,-1.79656 -1.8961,-3.98005 0,-3.46928 0.9706,-4.54137 4.105,-4.54137 z m 18.887,0.0352 c 1.9613,-7e-5 2.7236,0.71448 3.1511,2.70879 0.4361,2.03508 0.049,4.14636 -0.9442,5.13984 -0.783,0.7833 -3.358,1.14476 -4.5409,0.63759 -1.3669,-0.58601 -1.8984,-1.78164 -1.8884,-4.26169 0.011,-3.16839 0.6367,-3.96007 3.3056,-4.1815 0.3316,-0.0275 0.6366,-0.043 0.9168,-0.043 z m -91.3992,1.59007 c 0.5518,0.003 0.7525,1.47467 0.7525,1.47467 0.4136,0.81138 0.7506,1.64177 0.7506,1.84432 0,0.20257 -0.7151,0.36769 -1.5911,0.36769 -0.8761,0 -1.5875,-0.1199 -1.5775,-0.26599 0.01,-0.1461 0.387,-0.97451 0.8405,-1.84236 0,0 0.2314,-1.58124 0.825,-1.57833 z"
       id="rect4194"
       inkscape:connector-curvature="0"
       sodipodi:nodetypes="cccccccccccccccccccccsccccccccccccccccccccccccsccccccsccccscccccccsccccscccscsscscccscccccccccccccccccccccccccscscccccccccccccccsccsccscccccscccccsccscsccccccscccccccccccccsscscccsccccccsssccccccccccccccccccccsscccccccsscccccccccccccsscccccccsscccccccccccccccccccccccccccccccccccccccscccccccccccccccccscccccsscccscscccscccccscscssccccccccacsssca" />
    <g
       id="layer1-0"
       inkscape:label="Layer 1"
       transform="matrix(0.34003939,0,0,0.34003939,-98.835389,-17.02608)">
      <g
         id="g4531"
         transform="matrix(0.99506107,0,0,0.99995048,1539.2753,-107.54376)">
        <g
           transform="matrix(0.3574934,0,0,0.41524149,1100.2387,663.7409)"
           id="g4519">
          <g
             transform="matrix(1.0493589,0,0,1.0493589,-84.522912,-55.326559)"
             id="g4523" />
        </g>
      </g>
    </g>
  </g>
</svg>
