  0
SECTION
  2
HEADER
  9
$ACADVER
  1
AC1014
  9
$HANDSEED
  5
FFFF
  9
$MEASUREMENT
 70
     1
  0
ENDSEC
  0
SECTION
  2
TABLES
  0
TABLE
  2
VPORT
  5
8
330
0
100
AcDbSymbolTable
 70
     4
  0
VPORT
  5
2E
330
8
100
AcDbSymbolTableRecord
100
AcDbViewportTableRecord
  2
*ACTIVE
 70
     0
 10
0.0
 20
0.0
 11
1.0
 21
1.0
 12
210.0
 22
148.5
 13
0.0
 23
0.0
 14
10.0
 24
10.0
 15
10.0
 25
10.0
 16
0.0
 26
0.0
 36
1.0
 17
0.0
 27
0.0
 37
0.0
 40
341.0
 41
1.24
 42
50.0
 43
0.0
 44
0.0
 50
0.0
 51
0.0
 71
     0
 72
   100
 73
     1
 74
     3
 75
     0
 76
     0
 77
     0
 78
     0
  0
ENDTAB
  0
TABLE
  2
LTYPE
  5
5
330
0
100
AcDbSymbolTable
 70
     1
  0
LTYPE
  5
14
330
5
100
AcDbSymbolTableRecord
100
AcDbLinetypeTableRecord
  2
BYBLOCK
 70
     0
  3

 72
    65
 73
     0
 40
0.0
  0
LTYPE
  5
15
330
5
100
AcDbSymbolTableRecord
100
AcDbLinetypeTableRecord
  2
BYLAYER
 70
     0
  3

 72
    65
 73
     0
 40
0.0
  0
LTYPE
  5
16
330
5
100
AcDbSymbolTableRecord
100
AcDbLinetypeTableRecord
  2
CONTINUOUS
 70
     0
  3
Solid line
 72
    65
 73
     0
 40
0.0
  0
ENDTAB
  0
TABLE
  2
LAYER
  5
2
100
AcDbSymbolTable
 70
2
  0
LAYER
  5
50
100
AcDbSymbolTableRecord
100
AcDbLayerTableRecord
  2
0
 70
0
  6
CONTINUOUS
  0
LAYER
  5
51
100
AcDbSymbolTableRecord
100
AcDbLayerTableRecord
  2
Layer_1
 70
0
  6
CONTINUOUS
  0
ENDTAB
  0
TABLE
  2
STYLE
  5
3
330
0
100
AcDbSymbolTable
 70
     1
  0
STYLE
  5
11
330
3
100
AcDbSymbolTableRecord
100
AcDbTextStyleTableRecord
  2
STANDARD
 70
     0
 40
0.0
 41
1.0
 50
0.0
 71
     0
 42
2.5
  3
txt
  4

  0
ENDTAB
  0
TABLE
  2
VIEW
  5
6
330
0
100
AcDbSymbolTable
 70
     0
  0
ENDTAB
  0
TABLE
  2
UCS
  5
7
330
0
100
AcDbSymbolTable
 70
     0
  0
ENDTAB
  0
TABLE
  2
APPID
  5
9
330
0
100
AcDbSymbolTable
 70
     2
  0
APPID
  5
12
330
9
100
AcDbSymbolTableRecord
100
AcDbRegAppTableRecord
  2
ACAD
 70
     0
  0
ENDTAB
  0
TABLE
  2
DIMSTYLE
  5
A
330
0
100
AcDbSymbolTable
 70
     1
  0
DIMSTYLE
105
27
330
A
100
AcDbSymbolTableRecord
100
AcDbDimStyleTableRecord
  2
ISO-25
 70
     0
  3

  4

  5

  6

  7

 40
1.0
 41
2.5
 42
0.625
 43
3.75
 44
1.25
 45
0.0
 46
0.0
 47
0.0
 48
0.0
140
2.5
141
2.5
142
0.0
143
0.03937007874016
144
1.0
145
0.0
146
1.0
147
0.625
 71
     0
 72
     0
 73
     0
 74
     0
 75
     0
 76
     0
 77
     1
 78
     8
170
     0
171
     3
172
     1
173
     0
174
     0
175
     0
176
     0
177
     0
178
     0
270
     2
271
     2
272
     2
273
     2
274
     3
340
11
275
     0
280
     0
281
     0
282
     0
283
     0
284
     8
285
     0
286
     0
287
     3
288
     0
  0
ENDTAB
  0
TABLE
  2
BLOCK_RECORD
  5
1
330
0
100
AcDbSymbolTable
 70
     1
  0
BLOCK_RECORD
  5
1F
330
1
100
AcDbSymbolTableRecord
100
AcDbBlockTableRecord
  2
*MODEL_SPACE
  0
BLOCK_RECORD
  5
1B
330
1
100
AcDbSymbolTableRecord
100
AcDbBlockTableRecord
  2
*PAPER_SPACE
  0
ENDTAB
  0
ENDSEC
  0
SECTION
  2
BLOCKS
  0
BLOCK
  5
20
330
1F
100
AcDbEntity
  8
0
100
AcDbBlockBegin
  2
*MODEL_SPACE
 70
     0
 10
0.0
 20
0.0
 30
0.0
  3
*MODEL_SPACE
  1

  0
ENDBLK
  5
21
330
1F
100
AcDbEntity
  8
0
100
AcDbBlockEnd
  0
BLOCK
  5
1C
330
1B
100
AcDbEntity
 67
     1
  8
0
100
AcDbBlockBegin
  2
*PAPER_SPACE
  1

  0
ENDBLK
  5
1D
330
1B
100
AcDbEntity
 67
     1
  8
0
100
AcDbBlockEnd
  0
ENDSEC
  0
SECTION
  2
ENTITIES
  0
LWPOLYLINE
  5
100
100
AcDbEntity
  8
Layer_1
 62
7
100
AcDbPolyline
 90
8
 70
1
 10
9.000000
 20
7.999999
 30
0.0
 10
9.000000
 20
6.999984
 30
0.0
 10
8.971668
 20
6.999984
 30
0.0
 10
8.971668
 20
7.971613
 30
0.0
 10
7.999984
 20
7.971613
 30
0.0
 10
7.999984
 20
7.999999
 30
0.0
 10
9.000000
 20
7.999999
 30
0.0
 10
9.000000
 20
7.999999
 30
0.0
  0
LWPOLYLINE
  5
101
100
AcDbEntity
  8
Layer_1
 62
7
100
AcDbPolyline
 90
9
 70
1
 10
1.000015
 20
7.999999
 30
0.0
 10
1.000015
 20
7.971613
 30
0.0
 10
0.028332
 20
7.971613
 30
0.0
 10
0.028332
 20
6.999984
 30
0.0
 10
-0.000000
 20
6.999984
 30
0.0
 10
-0.000000
 20
7.985778
 30
0.0
 10
-0.000000
 20
7.999999
 30
0.0
 10
1.000015
 20
7.999999
 30
0.0
 10
1.000015
 20
7.999999
 30
0.0
  0
LWPOLYLINE
  5
102
100
AcDbEntity
  8
Layer_1
 62
7
100
AcDbPolyline
 90
8
 70
1
 10
8.999990
 20
0.799978
 30
0.0
 10
8.999990
 20
-0.000000
 30
0.0
 10
7.999977
 20
-0.000000
 30
0.0
 10
7.999977
 20
0.028332
 30
0.0
 10
8.971658
 20
0.028332
 30
0.0
 10
8.971658
 20
0.799978
 30
0.0
 10
8.999990
 20
0.799978
 30
0.0
 10
8.999990
 20
0.799978
 30
0.0
  0
LWPOLYLINE
  5
103
100
AcDbEntity
  8
Layer_1
 62
7
100
AcDbPolyline
 90
8
 70
1
 10
0.028332
 20
0.799978
 30
0.0
 10
0.028332
 20
0.028332
 30
0.0
 10
1.000015
 20
0.028332
 30
0.0
 10
1.000015
 20
-0.000000
 30
0.0
 10
-0.000000
 20
-0.000000
 30
0.0
 10
-0.000000
 20
0.799978
 30
0.0
 10
0.028332
 20
0.799978
 30
0.0
 10
0.028332
 20
0.799978
 30
0.0
  0
LWPOLYLINE
  5
104
100
AcDbEntity
  8
Layer_1
 62
7
100
AcDbPolyline
 90
66
 70
0
 10
3.999971
 20
6.670632
 30
0.0
 10
3.726956
 20
6.656841
 30
0.0
 10
3.461818
 20
6.616364
 30
0.0
 10
3.205903
 20
6.550544
 30
0.0
 10
2.960552
 20
6.460725
 30
0.0
 10
2.727109
 20
6.348251
 30
0.0
 10
2.506919
 20
6.214464
 30
0.0
 10
2.301323
 20
6.060708
 30
0.0
 10
2.111666
 20
5.888327
 30
0.0
 10
1.939290
 20
5.698665
 30
0.0
 10
1.785539
 20
5.493064
 30
0.0
 10
1.651757
 20
5.272869
 30
0.0
 10
1.539286
 20
5.039422
 30
0.0
 10
1.449471
 20
4.794068
 30
0.0
 10
1.383654
 20
4.538150
 30
0.0
 10
1.343178
 20
4.273011
 30
0.0
 10
1.329388
 20
3.999995
 30
0.0
 10
1.343178
 20
3.726978
 30
0.0
 10
1.383654
 20
3.461839
 30
0.0
 10
1.449471
 20
3.205921
 30
0.0
 10
1.539286
 20
2.960567
 30
0.0
 10
1.651757
 20
2.727120
 30
0.0
 10
1.785539
 20
2.506925
 30
0.0
 10
1.939290
 20
2.301324
 30
0.0
 10
2.111666
 20
2.111662
 30
0.0
 10
2.301323
 20
1.939281
 30
0.0
 10
2.506919
 20
1.785525
 30
0.0
 10
2.727109
 20
1.651738
 30
0.0
 10
2.960552
 20
1.539264
 30
0.0
 10
3.205903
 20
1.449445
 30
0.0
 10
3.461818
 20
1.383625
 30
0.0
 10
3.726956
 20
1.343148
 30
0.0
 10
3.999971
 20
1.329357
 30
0.0
 10
4.272987
 20
1.343148
 30
0.0
 10
4.538126
 20
1.383625
 30
0.0
 10
4.794045
 20
1.449445
 30
0.0
 10
5.039399
 20
1.539264
 30
0.0
 10
5.272845
 20
1.651738
 30
0.0
 10
5.493041
 20
1.785525
 30
0.0
 10
5.698641
 20
1.939281
 30
0.0
 10
5.888304
 20
2.111662
 30
0.0
 10
6.060685
 20
2.301324
 30
0.0
 10
6.214440
 20
2.506925
 30
0.0
 10
6.348227
 20
2.727120
 30
0.0
 10
6.460702
 20
2.960567
 30
0.0
 10
6.550521
 20
3.205921
 30
0.0
 10
6.616341
 20
3.461839
 30
0.0
 10
6.656818
 20
3.726978
 30
0.0
 10
6.670609
 20
3.999995
 30
0.0
 10
6.656818
 20
4.273011
 30
0.0
 10
6.616341
 20
4.538150
 30
0.0
 10
6.550521
 20
4.794068
 30
0.0
 10
6.460702
 20
5.039422
 30
0.0
 10
6.348227
 20
5.272869
 30
0.0
 10
6.214440
 20
5.493064
 30
0.0
 10
6.060685
 20
5.698665
 30
0.0
 10
5.888304
 20
5.888327
 30
0.0
 10
5.698641
 20
6.060708
 30
0.0
 10
5.493041
 20
6.214464
 30
0.0
 10
5.272845
 20
6.348251
 30
0.0
 10
5.039399
 20
6.460725
 30
0.0
 10
4.794045
 20
6.550544
 30
0.0
 10
4.538126
 20
6.616364
 30
0.0
 10
4.272987
 20
6.656841
 30
0.0
 10
3.999971
 20
6.670632
 30
0.0
 10
3.999971
 20
6.670632
 30
0.0
  0
LWPOLYLINE
  5
105
100
AcDbEntity
  8
Layer_1
 62
7
100
AcDbPolyline
 90
66
 70
0
 10
4.000027
 20
6.569474
 30
0.0
 10
4.262738
 20
6.556206
 30
0.0
 10
4.517861
 20
6.517267
 30
0.0
 10
4.764102
 20
6.453949
 30
0.0
 10
5.000172
 20
6.367543
 30
0.0
 10
5.224777
 20
6.259342
 30
0.0
 10
5.436627
 20
6.130637
 30
0.0
 10
5.634431
 20
5.982719
 30
0.0
 10
5.816896
 20
5.816880
 30
0.0
 10
5.982731
 20
5.634411
 30
0.0
 10
6.130645
 20
5.436604
 30
0.0
 10
6.259346
 20
5.224751
 30
0.0
 10
6.367542
 20
5.000143
 30
0.0
 10
6.453943
 20
4.764072
 30
0.0
 10
6.517255
 20
4.517829
 30
0.0
 10
6.556189
 20
4.262706
 30
0.0
 10
6.569452
 20
3.999995
 30
0.0
 10
6.556184
 20
3.737287
 30
0.0
 10
6.517246
 20
3.482168
 30
0.0
 10
6.453930
 20
3.235930
 30
0.0
 10
6.367527
 20
2.999863
 30
0.0
 10
6.259328
 20
2.775260
 30
0.0
 10
6.130626
 20
2.563411
 30
0.0
 10
5.982712
 20
2.365609
 30
0.0
 10
5.816877
 20
2.183145
 30
0.0
 10
5.634412
 20
2.017309
 30
0.0
 10
5.436610
 20
1.869395
 30
0.0
 10
5.224762
 20
1.740693
 30
0.0
 10
5.000158
 20
1.632495
 30
0.0
 10
4.764092
 20
1.546092
 30
0.0
 10
4.517853
 20
1.482776
 30
0.0
 10
4.262734
 20
1.443838
 30
0.0
 10
4.000027
 20
1.430569
 30
0.0
 10
3.737315
 20
1.443832
 30
0.0
 10
3.482192
 20
1.482766
 30
0.0
 10
3.235949
 20
1.546079
 30
0.0
 10
2.999878
 20
1.632479
 30
0.0
 10
2.775270
 20
1.740675
 30
0.0
 10
2.563417
 20
1.869376
 30
0.0
 10
2.365610
 20
2.017290
 30
0.0
 10
2.183142
 20
2.183125
 30
0.0
 10
2.017303
 20
2.365591
 30
0.0
 10
1.869385
 20
2.563394
 30
0.0
 10
1.740679
 20
2.775244
 30
0.0
 10
1.632478
 20
2.999850
 30
0.0
 10
1.546073
 20
3.235919
 30
0.0
 10
1.482755
 20
3.482161
 30
0.0
 10
1.443816
 20
3.737283
 30
0.0
 10
1.430547
 20
3.999995
 30
0.0
 10
1.443118
 20
4.253957
 30
0.0
 10
1.480371
 20
4.503618
 30
0.0
 10
1.541607
 20
4.747293
 30
0.0
 10
1.626130
 20
4.983296
 30
0.0
 10
1.733241
 20
5.209943
 30
0.0
 10
1.862242
 20
5.425549
 30
0.0
 10
2.012435
 20
5.628430
 30
0.0
 10
2.183123
 20
5.816899
 30
0.0
 10
2.371592
 20
5.987587
 30
0.0
 10
2.574472
 20
6.137780
 30
0.0
 10
2.790078
 20
6.266781
 30
0.0
 10
3.016725
 20
6.373891
 30
0.0
 10
3.252729
 20
6.458414
 30
0.0
 10
3.496403
 20
6.519651
 30
0.0
 10
3.746064
 20
6.556903
 30
0.0
 10
4.000027
 20
6.569474
 30
0.0
 10
4.000027
 20
6.569474
 30
0.0
  0
ENDSEC
  0
SECTION
  2
OBJECTS
  0
DICTIONARY
  5
C
330
0
100
AcDbDictionary
  3
ACAD_GROUP
350
D
  3
ACAD_MLINESTYLE
350
17
  0
DICTIONARY
  5
D
330
C
100
AcDbDictionary
  0
DICTIONARY
  5
1A
330
C
100
AcDbDictionary
  0
DICTIONARY
  5
17
330
C
100
AcDbDictionary
  3
STANDARD
350
18
  0
DICTIONARY
  5
19
330
C
100
AcDbDictionary
  0
ENDSEC
  0
EOF
