  0
SECTION
  2
HEADER
  9
$ACADVER
  1
AC1014
  9
$HANDSEED
  5
FFFF
  9
$MEASUREMENT
 70
     1
  0
ENDSEC
  0
SECTION
  2
TABLES
  0
TABLE
  2
VPORT
  5
8
330
0
100
AcDbSymbolTable
 70
     4
  0
VPORT
  5
2E
330
8
100
AcDbSymbolTableRecord
100
AcDbViewportTableRecord
  2
*ACTIVE
 70
     0
 10
0.0
 20
0.0
 11
1.0
 21
1.0
 12
210.0
 22
148.5
 13
0.0
 23
0.0
 14
10.0
 24
10.0
 15
10.0
 25
10.0
 16
0.0
 26
0.0
 36
1.0
 17
0.0
 27
0.0
 37
0.0
 40
341.0
 41
1.24
 42
50.0
 43
0.0
 44
0.0
 50
0.0
 51
0.0
 71
     0
 72
   100
 73
     1
 74
     3
 75
     0
 76
     0
 77
     0
 78
     0
  0
ENDTAB
  0
TABLE
  2
LTYPE
  5
5
330
0
100
AcDbSymbolTable
 70
     1
  0
LTYPE
  5
14
330
5
100
AcDbSymbolTableRecord
100
AcDbLinetypeTableRecord
  2
BYBLOCK
 70
     0
  3

 72
    65
 73
     0
 40
0.0
  0
LTYPE
  5
15
330
5
100
AcDbSymbolTableRecord
100
AcDbLinetypeTableRecord
  2
BYLAYER
 70
     0
  3

 72
    65
 73
     0
 40
0.0
  0
LTYPE
  5
16
330
5
100
AcDbSymbolTableRecord
100
AcDbLinetypeTableRecord
  2
CONTINUOUS
 70
     0
  3
Solid line
 72
    65
 73
     0
 40
0.0
  0
ENDTAB
  0
TABLE
  2
LAYER
  5
2
100
AcDbSymbolTable
 70
2
  0
LAYER
  5
50
100
AcDbSymbolTableRecord
100
AcDbLayerTableRecord
  2
0
 70
0
  6
CONTINUOUS
  0
LAYER
  5
51
100
AcDbSymbolTableRecord
100
AcDbLayerTableRecord
  2
Layer_1
 70
0
  6
CONTINUOUS
  0
ENDTAB
  0
TABLE
  2
STYLE
  5
3
330
0
100
AcDbSymbolTable
 70
     1
  0
STYLE
  5
11
330
3
100
AcDbSymbolTableRecord
100
AcDbTextStyleTableRecord
  2
STANDARD
 70
     0
 40
0.0
 41
1.0
 50
0.0
 71
     0
 42
2.5
  3
txt
  4

  0
ENDTAB
  0
TABLE
  2
VIEW
  5
6
330
0
100
AcDbSymbolTable
 70
     0
  0
ENDTAB
  0
TABLE
  2
UCS
  5
7
330
0
100
AcDbSymbolTable
 70
     0
  0
ENDTAB
  0
TABLE
  2
APPID
  5
9
330
0
100
AcDbSymbolTable
 70
     2
  0
APPID
  5
12
330
9
100
AcDbSymbolTableRecord
100
AcDbRegAppTableRecord
  2
ACAD
 70
     0
  0
ENDTAB
  0
TABLE
  2
DIMSTYLE
  5
A
330
0
100
AcDbSymbolTable
 70
     1
  0
DIMSTYLE
105
27
330
A
100
AcDbSymbolTableRecord
100
AcDbDimStyleTableRecord
  2
ISO-25
 70
     0
  3

  4

  5

  6

  7

 40
1.0
 41
2.5
 42
0.625
 43
3.75
 44
1.25
 45
0.0
 46
0.0
 47
0.0
 48
0.0
140
2.5
141
2.5
142
0.0
143
0.03937007874016
144
1.0
145
0.0
146
1.0
147
0.625
 71
     0
 72
     0
 73
     0
 74
     0
 75
     0
 76
     0
 77
     1
 78
     8
170
     0
171
     3
172
     1
173
     0
174
     0
175
     0
176
     0
177
     0
178
     0
270
     2
271
     2
272
     2
273
     2
274
     3
340
11
275
     0
280
     0
281
     0
282
     0
283
     0
284
     8
285
     0
286
     0
287
     3
288
     0
  0
ENDTAB
  0
TABLE
  2
BLOCK_RECORD
  5
1
330
0
100
AcDbSymbolTable
 70
     1
  0
BLOCK_RECORD
  5
1F
330
1
100
AcDbSymbolTableRecord
100
AcDbBlockTableRecord
  2
*MODEL_SPACE
  0
BLOCK_RECORD
  5
1B
330
1
100
AcDbSymbolTableRecord
100
AcDbBlockTableRecord
  2
*PAPER_SPACE
  0
ENDTAB
  0
ENDSEC
  0
SECTION
  2
BLOCKS
  0
BLOCK
  5
20
330
1F
100
AcDbEntity
  8
0
100
AcDbBlockBegin
  2
*MODEL_SPACE
 70
     0
 10
0.0
 20
0.0
 30
0.0
  3
*MODEL_SPACE
  1

  0
ENDBLK
  5
21
330
1F
100
AcDbEntity
  8
0
100
AcDbBlockEnd
  0
BLOCK
  5
1C
330
1B
100
AcDbEntity
 67
     1
  8
0
100
AcDbBlockBegin
  2
*PAPER_SPACE
  1

  0
ENDBLK
  5
1D
330
1B
100
AcDbEntity
 67
     1
  8
0
100
AcDbBlockEnd
  0
ENDSEC
  0
SECTION
  2
ENTITIES
  0
LWPOLYLINE
  5
100
100
AcDbEntity
  8
Layer_1
 62
7
100
AcDbPolyline
 90
8
 70
1
 10
9.000001
 20
8.000000
 30
0.0
 10
9.000001
 20
6.999985
 30
0.0
 10
8.971669
 20
6.999985
 30
0.0
 10
8.971669
 20
7.971614
 30
0.0
 10
7.999984
 20
7.971614
 30
0.0
 10
7.999984
 20
8.000000
 30
0.0
 10
9.000001
 20
8.000000
 30
0.0
 10
9.000001
 20
8.000000
 30
0.0
  0
LWPOLYLINE
  5
101
100
AcDbEntity
  8
Layer_1
 62
7
100
AcDbPolyline
 90
9
 70
1
 10
1.000015
 20
8.000000
 30
0.0
 10
1.000015
 20
7.971614
 30
0.0
 10
0.028332
 20
7.971614
 30
0.0
 10
0.028332
 20
6.999985
 30
0.0
 10
0.000000
 20
6.999985
 30
0.0
 10
0.000000
 20
7.985779
 30
0.0
 10
0.000000
 20
8.000000
 30
0.0
 10
1.000015
 20
8.000000
 30
0.0
 10
1.000015
 20
8.000000
 30
0.0
  0
LWPOLYLINE
  5
102
100
AcDbEntity
  8
Layer_1
 62
7
100
AcDbPolyline
 90
8
 70
1
 10
8.999992
 20
0.799978
 30
0.0
 10
8.999992
 20
0.000000
 30
0.0
 10
7.999977
 20
0.000000
 30
0.0
 10
7.999977
 20
0.028332
 30
0.0
 10
8.971659
 20
0.028332
 30
0.0
 10
8.971659
 20
0.799978
 30
0.0
 10
8.999992
 20
0.799978
 30
0.0
 10
8.999992
 20
0.799978
 30
0.0
  0
LWPOLYLINE
  5
103
100
AcDbEntity
  8
Layer_1
 62
7
100
AcDbPolyline
 90
8
 70
1
 10
0.028332
 20
0.799978
 30
0.0
 10
0.028332
 20
0.028332
 30
0.0
 10
1.000015
 20
0.028332
 30
0.0
 10
1.000015
 20
0.000000
 30
0.0
 10
0.000000
 20
0.000000
 30
0.0
 10
0.000000
 20
0.799978
 30
0.0
 10
0.028332
 20
0.799978
 30
0.0
 10
0.028332
 20
0.799978
 30
0.0
  0
LWPOLYLINE
  5
104
100
AcDbEntity
  8
Layer_1
 62
7
100
AcDbPolyline
 90
21
 70
0
 10
5.010657
 20
7.288436
 30
0.0
 10
4.974558
 20
7.283754
 30
0.0
 10
4.941283
 20
7.270239
 30
0.0
 10
4.887518
 20
7.222589
 30
0.0
 10
4.857992
 20
7.157247
 30
0.0
 10
4.855015
 20
7.121617
 30
0.0
 10
4.861333
 20
7.085975
 30
0.0
 10
4.888404
 20
7.031581
 30
0.0
 10
4.933956
 20
6.990805
 30
0.0
 10
4.990767
 20
6.968991
 30
0.0
 10
5.051612
 20
6.971487
 30
0.0
 10
5.103901
 20
6.993748
 30
0.0
 10
5.145539
 20
7.033052
 30
0.0
 10
5.171398
 20
7.083962
 30
0.0
 10
5.176352
 20
7.141041
 30
0.0
 10
5.162684
 20
7.193694
 30
0.0
 10
5.132315
 20
7.238996
 30
0.0
 10
5.089031
 20
7.271825
 30
0.0
 10
5.036619
 20
7.287058
 30
0.0
 10
5.010657
 20
7.288436
 30
0.0
 10
5.010657
 20
7.288436
 30
0.0
  0
LWPOLYLINE
  5
105
100
AcDbEntity
  8
Layer_1
 62
7
100
AcDbPolyline
 90
21
 70
0
 10
1.323909
 20
6.093401
 30
0.0
 10
1.289917
 20
6.086744
 30
0.0
 10
1.258717
 20
6.072376
 30
0.0
 10
1.208467
 20
6.025512
 30
0.0
 10
1.180715
 20
5.962818
 30
0.0
 10
1.177638
 20
5.928662
 30
0.0
 10
1.183018
 20
5.894302
 30
0.0
 10
1.207534
 20
5.841618
 30
0.0
 10
1.248937
 20
5.800718
 30
0.0
 10
1.301534
 20
5.776554
 30
0.0
 10
1.359628
 20
5.774082
 30
0.0
 10
1.413068
 20
5.791034
 30
0.0
 10
1.457746
 20
5.825431
 30
0.0
 10
1.488311
 20
5.872628
 30
0.0
 10
1.499416
 20
5.927982
 30
0.0
 10
1.491940
 20
5.981543
 30
0.0
 10
1.467414
 20
6.029610
 30
0.0
 10
1.428765
 20
6.066977
 30
0.0
 10
1.378920
 20
6.088440
 30
0.0
 10
1.323909
 20
6.093401
 30
0.0
 10
1.323909
 20
6.093401
 30
0.0
  0
LWPOLYLINE
  5
106
100
AcDbEntity
  8
Layer_1
 62
7
100
AcDbPolyline
 90
20
 70
0
 10
7.275105
 20
4.160179
 30
0.0
 10
7.209856
 20
4.139499
 30
0.0
 10
7.159245
 20
4.093069
 30
0.0
 10
7.130997
 20
4.030710
 30
0.0
 10
7.127673
 20
3.996624
 30
0.0
 10
7.132836
 20
3.962238
 30
0.0
 10
7.160068
 20
3.905020
 30
0.0
 10
7.207270
 20
3.862420
 30
0.0
 10
7.266478
 20
3.840308
 30
0.0
 10
7.329730
 20
3.844553
 30
0.0
 10
7.382539
 20
3.869799
 30
0.0
 10
7.423126
 20
3.912001
 30
0.0
 10
7.446573
 20
3.965279
 30
0.0
 10
7.447966
 20
4.023754
 30
0.0
 10
7.430768
 20
4.075075
 30
0.0
 10
7.397589
 20
4.118028
 30
0.0
 10
7.352584
 20
4.147923
 30
0.0
 10
7.299909
 20
4.160069
 30
0.0
 10
7.275105
 20
4.160179
 30
0.0
 10
7.275105
 20
4.160179
 30
0.0
  0
LWPOLYLINE
  5
107
100
AcDbEntity
  8
Layer_1
 62
7
100
AcDbPolyline
 90
21
 70
0
 10
1.330744
 20
2.227177
 30
0.0
 10
1.295277
 20
2.221804
 30
0.0
 10
1.262625
 20
2.208021
 30
0.0
 10
1.209874
 20
2.160730
 30
0.0
 10
1.180724
 20
2.096323
 30
0.0
 10
1.177571
 20
2.061144
 30
0.0
 10
1.183404
 20
2.025819
 30
0.0
 10
1.209594
 20
1.972192
 30
0.0
 10
1.253253
 20
1.931464
 30
0.0
 10
1.307987
 20
1.908617
 30
0.0
 10
1.367400
 20
1.908630
 30
0.0
 10
1.419538
 20
1.927872
 30
0.0
 10
1.462048
 20
1.963727
 30
0.0
 10
1.490279
 20
2.011390
 30
0.0
 10
1.499581
 20
2.066057
 30
0.0
 10
1.490908
 20
2.118739
 30
0.0
 10
1.465412
 20
2.165540
 30
0.0
 10
1.426366
 20
2.201682
 30
0.0
 10
1.377046
 20
2.222382
 30
0.0
 10
1.330744
 20
2.227177
 30
0.0
 10
1.330744
 20
2.227177
 30
0.0
  0
LWPOLYLINE
  5
108
100
AcDbEntity
  8
Layer_1
 62
7
100
AcDbPolyline
 90
21
 70
0
 10
5.008342
 20
1.032473
 30
0.0
 10
4.973911
 20
1.027349
 30
0.0
 10
4.941919
 20
1.014159
 30
0.0
 10
4.889407
 20
0.968696
 30
0.0
 10
4.859113
 20
0.906312
 30
0.0
 10
4.854895
 20
0.871970
 30
0.0
 10
4.859349
 20
0.837233
 30
0.0
 10
4.885367
 20
0.779464
 30
0.0
 10
4.931705
 20
0.735950
 30
0.0
 10
4.990482
 20
0.712691
 30
0.0
 10
5.053817
 20
0.715690
 30
0.0
 10
5.104973
 20
0.738279
 30
0.0
 10
5.145680
 20
0.777036
 30
0.0
 10
5.171158
 20
0.826819
 30
0.0
 10
5.176628
 20
0.882488
 30
0.0
 10
5.164475
 20
0.933826
 30
0.0
 10
5.136321
 20
0.978372
 30
0.0
 10
5.095661
 20
1.011756
 30
0.0
 10
5.045990
 20
1.029607
 30
0.0
 10
5.008342
 20
1.032473
 30
0.0
 10
5.008342
 20
1.032473
 30
0.0
  0
ENDSEC
  0
SECTION
  2
OBJECTS
  0
DICTIONARY
  5
C
330
0
100
AcDbDictionary
  3
ACAD_GROUP
350
D
  3
ACAD_MLINESTYLE
350
17
  0
DICTIONARY
  5
D
330
C
100
AcDbDictionary
  0
DICTIONARY
  5
1A
330
C
100
AcDbDictionary
  0
DICTIONARY
  5
17
330
C
100
AcDbDictionary
  3
STANDARD
350
18
  0
DICTIONARY
  5
19
330
C
100
AcDbDictionary
  0
ENDSEC
  0
EOF
