  0
SECTION
  2
HEADER
  9
$ACADVER
  1
AC1014
  9
$HANDSEED
  5
FFFF
  9
$MEASUREMENT
 70
     1
  0
ENDSEC
  0
SECTION
  2
TABLES
  0
TABLE
  2
VPORT
  5
8
330
0
100
AcDbSymbolTable
 70
     4
  0
VPORT
  5
2E
330
8
100
AcDbSymbolTableRecord
100
AcDbViewportTableRecord
  2
*ACTIVE
 70
     0
 10
0.0
 20
0.0
 11
1.0
 21
1.0
 12
210.0
 22
148.5
 13
0.0
 23
0.0
 14
10.0
 24
10.0
 15
10.0
 25
10.0
 16
0.0
 26
0.0
 36
1.0
 17
0.0
 27
0.0
 37
0.0
 40
341.0
 41
1.24
 42
50.0
 43
0.0
 44
0.0
 50
0.0
 51
0.0
 71
     0
 72
   100
 73
     1
 74
     3
 75
     0
 76
     0
 77
     0
 78
     0
  0
ENDTAB
  0
TABLE
  2
LTYPE
  5
5
330
0
100
AcDbSymbolTable
 70
     1
  0
LTYPE
  5
14
330
5
100
AcDbSymbolTableRecord
100
AcDbLinetypeTableRecord
  2
BYBLOCK
 70
     0
  3

 72
    65
 73
     0
 40
0.0
  0
LTYPE
  5
15
330
5
100
AcDbSymbolTableRecord
100
AcDbLinetypeTableRecord
  2
BYLAYER
 70
     0
  3

 72
    65
 73
     0
 40
0.0
  0
LTYPE
  5
16
330
5
100
AcDbSymbolTableRecord
100
AcDbLinetypeTableRecord
  2
CONTINUOUS
 70
     0
  3
Solid line
 72
    65
 73
     0
 40
0.0
  0
ENDTAB
  0
TABLE
  2
LAYER
  5
2
100
AcDbSymbolTable
 70
2
  0
LAYER
  5
50
100
AcDbSymbolTableRecord
100
AcDbLayerTableRecord
  2
0
 70
0
  6
CONTINUOUS
  0
LAYER
  5
51
100
AcDbSymbolTableRecord
100
AcDbLayerTableRecord
  2
Layer_1
 70
0
  6
CONTINUOUS
  0
ENDTAB
  0
TABLE
  2
STYLE
  5
3
330
0
100
AcDbSymbolTable
 70
     1
  0
STYLE
  5
11
330
3
100
AcDbSymbolTableRecord
100
AcDbTextStyleTableRecord
  2
STANDARD
 70
     0
 40
0.0
 41
1.0
 50
0.0
 71
     0
 42
2.5
  3
txt
  4

  0
ENDTAB
  0
TABLE
  2
VIEW
  5
6
330
0
100
AcDbSymbolTable
 70
     0
  0
ENDTAB
  0
TABLE
  2
UCS
  5
7
330
0
100
AcDbSymbolTable
 70
     0
  0
ENDTAB
  0
TABLE
  2
APPID
  5
9
330
0
100
AcDbSymbolTable
 70
     2
  0
APPID
  5
12
330
9
100
AcDbSymbolTableRecord
100
AcDbRegAppTableRecord
  2
ACAD
 70
     0
  0
ENDTAB
  0
TABLE
  2
DIMSTYLE
  5
A
330
0
100
AcDbSymbolTable
 70
     1
  0
DIMSTYLE
105
27
330
A
100
AcDbSymbolTableRecord
100
AcDbDimStyleTableRecord
  2
ISO-25
 70
     0
  3

  4

  5

  6

  7

 40
1.0
 41
2.5
 42
0.625
 43
3.75
 44
1.25
 45
0.0
 46
0.0
 47
0.0
 48
0.0
140
2.5
141
2.5
142
0.0
143
0.03937007874016
144
1.0
145
0.0
146
1.0
147
0.625
 71
     0
 72
     0
 73
     0
 74
     0
 75
     0
 76
     0
 77
     1
 78
     8
170
     0
171
     3
172
     1
173
     0
174
     0
175
     0
176
     0
177
     0
178
     0
270
     2
271
     2
272
     2
273
     2
274
     3
340
11
275
     0
280
     0
281
     0
282
     0
283
     0
284
     8
285
     0
286
     0
287
     3
288
     0
  0
ENDTAB
  0
TABLE
  2
BLOCK_RECORD
  5
1
330
0
100
AcDbSymbolTable
 70
     1
  0
BLOCK_RECORD
  5
1F
330
1
100
AcDbSymbolTableRecord
100
AcDbBlockTableRecord
  2
*MODEL_SPACE
  0
BLOCK_RECORD
  5
1B
330
1
100
AcDbSymbolTableRecord
100
AcDbBlockTableRecord
  2
*PAPER_SPACE
  0
ENDTAB
  0
ENDSEC
  0
SECTION
  2
BLOCKS
  0
BLOCK
  5
20
330
1F
100
AcDbEntity
  8
0
100
AcDbBlockBegin
  2
*MODEL_SPACE
 70
     0
 10
0.0
 20
0.0
 30
0.0
  3
*MODEL_SPACE
  1

  0
ENDBLK
  5
21
330
1F
100
AcDbEntity
  8
0
100
AcDbBlockEnd
  0
BLOCK
  5
1C
330
1B
100
AcDbEntity
 67
     1
  8
0
100
AcDbBlockBegin
  2
*PAPER_SPACE
  1

  0
ENDBLK
  5
1D
330
1B
100
AcDbEntity
 67
     1
  8
0
100
AcDbBlockEnd
  0
ENDSEC
  0
SECTION
  2
ENTITIES
  0
LWPOLYLINE
  5
100
100
AcDbEntity
  8
Layer_1
 62
7
100
AcDbPolyline
 90
452
 70
0
 10
1.351763
 20
1.036462
 30
0.0
 10
1.293169
 20
1.017335
 30
0.0
 10
1.291845
 20
1.010885
 30
0.0
 10
1.290411
 20
1.002286
 30
0.0
 10
1.289418
 20
0.993798
 30
0.0
 10
1.288811
 20
0.985474
 30
0.0
 10
1.288529
 20
0.977261
 30
0.0
 10
1.288698
 20
0.969213
 30
0.0
 10
1.289248
 20
0.961331
 30
0.0
 10
1.291399
 20
0.954165
 30
0.0
 10
1.295974
 20
0.948212
 30
0.0
 10
1.300108
 20
0.942094
 30
0.0
 10
1.303636
 20
0.935644
 30
0.0
 10
1.306557
 20
0.928920
 30
0.0
 10
1.307771
 20
0.925392
 30
0.0
 10
1.308764
 20
0.921754
 30
0.0
 10
1.309425
 20
0.918006
 30
0.0
 10
1.309707
 20
0.914037
 30
0.0
 10
1.309594
 20
0.911943
 30
0.0
 10
1.309368
 20
0.909792
 30
0.0
 10
1.308818
 20
0.907421
 30
0.0
 10
1.307715
 20
0.904777
 30
0.0
 10
1.303581
 20
0.900478
 30
0.0
 10
1.271004
 20
0.879862
 30
0.0
 10
1.241293
 20
0.855223
 30
0.0
 10
1.235946
 20
0.852632
 30
0.0
 10
1.233080
 20
0.852406
 30
0.0
 10
1.230656
 20
0.852575
 30
0.0
 10
1.228505
 20
0.853016
 30
0.0
 10
1.226521
 20
0.853622
 30
0.0
 10
1.222773
 20
0.855110
 30
0.0
 10
1.219410
 20
0.856930
 30
0.0
 10
1.216324
 20
0.858914
 30
0.0
 10
1.213347
 20
0.861118
 30
0.0
 10
1.207835
 20
0.866024
 30
0.0
 10
1.202819
 20
0.871426
 30
0.0
 10
1.198189
 20
0.877214
 30
0.0
 10
1.193944
 20
0.883388
 30
0.0
 10
1.187881
 20
0.887632
 30
0.0
 10
1.180495
 20
0.890664
 30
0.0
 10
1.172943
 20
0.893254
 30
0.0
 10
1.165006
 20
0.895569
 30
0.0
 10
1.156903
 20
0.897553
 30
0.0
 10
1.148524
 20
0.899150
 30
0.0
 10
1.139925
 20
0.900527
 30
0.0
 10
1.133366
 20
0.901298
 30
0.0
 10
1.097096
 20
0.851413
 30
0.0
 10
1.099907
 20
0.845404
 30
0.0
 10
1.103820
 20
0.837632
 30
0.0
 10
1.107954
 20
0.830191
 30
0.0
 10
1.112309
 20
0.823080
 30
0.0
 10
1.116939
 20
0.816190
 30
0.0
 10
1.121845
 20
0.809851
 30
0.0
 10
1.126971
 20
0.803788
 30
0.0
 10
1.132869
 20
0.799268
 30
0.0
 10
1.140035
 20
0.797117
 30
0.0
 10
1.146981
 20
0.794580
 30
0.0
 10
1.153650
 20
0.791438
 30
0.0
 10
1.159989
 20
0.787745
 30
0.0
 10
1.163021
 20
0.785595
 30
0.0
 10
1.165942
 20
0.783281
 30
0.0
 10
1.168700
 20
0.780580
 30
0.0
 10
1.171234
 20
0.777548
 30
0.0
 10
1.172391
 20
0.775826
 30
0.0
 10
1.173494
 20
0.773907
 30
0.0
 10
1.174431
 20
0.771649
 30
0.0
 10
1.175092
 20
0.768884
 30
0.0
 10
1.174265
 20
0.762988
 30
0.0
 10
1.160044
 20
0.727103
 30
0.0
 10
1.150508
 20
0.689732
 30
0.0
 10
1.147641
 20
0.684493
 30
0.0
 10
1.145491
 20
0.682631
 30
0.0
 10
1.143397
 20
0.681361
 30
0.0
 10
1.141413
 20
0.680429
 30
0.0
 10
1.139429
 20
0.679752
 30
0.0
 10
1.135625
 20
0.678821
 30
0.0
 10
1.131822
 20
0.678285
 30
0.0
 10
1.128073
 20
0.678002
 30
0.0
 10
1.124380
 20
0.678002
 30
0.0
 10
1.117049
 20
0.678708
 30
0.0
 10
1.109883
 20
0.680147
 30
0.0
 10
1.102718
 20
0.682123
 30
0.0
 10
1.095607
 20
0.684606
 30
0.0
 10
1.088221
 20
0.684324
 30
0.0
 10
1.080504
 20
0.682461
 30
0.0
 10
1.072787
 20
0.680091
 30
0.0
 10
1.065070
 20
0.677325
 30
0.0
 10
1.057353
 20
0.674127
 30
0.0
 10
1.049581
 20
0.670546
 30
0.0
 10
1.041863
 20
0.666578
 30
0.0
 10
1.036076
 20
0.663324
 30
0.0
 10
1.036076
 20
0.601644
 30
0.0
 10
1.041863
 20
0.598447
 30
0.0
 10
1.049581
 20
0.594479
 30
0.0
 10
1.057353
 20
0.590841
 30
0.0
 10
1.065070
 20
0.587697
 30
0.0
 10
1.072787
 20
0.584875
 30
0.0
 10
1.080504
 20
0.582504
 30
0.0
 10
1.088221
 20
0.580641
 30
0.0
 10
1.095607
 20
0.580359
 30
0.0
 10
1.102718
 20
0.582899
 30
0.0
 10
1.109883
 20
0.584875
 30
0.0
 10
1.117049
 20
0.586258
 30
0.0
 10
1.124380
 20
0.587020
 30
0.0
 10
1.128073
 20
0.587020
 30
0.0
 10
1.131822
 20
0.586737
 30
0.0
 10
1.135625
 20
0.586201
 30
0.0
 10
1.139429
 20
0.585270
 30
0.0
 10
1.141413
 20
0.584564
 30
0.0
 10
1.143397
 20
0.583689
 30
0.0
 10
1.145491
 20
0.582363
 30
0.0
 10
1.147641
 20
0.580528
 30
0.0
 10
1.150508
 20
0.575293
 30
0.0
 10
1.160044
 20
0.537921
 30
0.0
 10
1.174265
 20
0.502037
 30
0.0
 10
1.175092
 20
0.496138
 30
0.0
 10
1.174431
 20
0.493373
 30
0.0
 10
1.173494
 20
0.491115
 30
0.0
 10
1.172391
 20
0.489196
 30
0.0
 10
1.171234
 20
0.487474
 30
0.0
 10
1.168700
 20
0.484440
 30
0.0
 10
1.165942
 20
0.481731
 30
0.0
 10
1.163021
 20
0.479360
 30
0.0
 10
1.159989
 20
0.477215
 30
0.0
 10
1.153650
 20
0.473521
 30
0.0
 10
1.146981
 20
0.470436
 30
0.0
 10
1.140035
 20
0.467896
 30
0.0
 10
1.132869
 20
0.465751
 30
0.0
 10
1.126971
 20
0.461233
 30
0.0
 10
1.121845
 20
0.455168
 30
0.0
 10
1.116939
 20
0.448776
 30
0.0
 10
1.112309
 20
0.441940
 30
0.0
 10
1.107954
 20
0.434828
 30
0.0
 10
1.103820
 20
0.427389
 30
0.0
 10
1.099907
 20
0.419617
 30
0.0
 10
1.097096
 20
0.413608
 30
0.0
 10
1.133366
 20
0.363723
 30
0.0
 10
1.139925
 20
0.364485
 30
0.0
 10
1.148524
 20
0.365867
 30
0.0
 10
1.156903
 20
0.367476
 30
0.0
 10
1.165006
 20
0.369452
 30
0.0
 10
1.172943
 20
0.371766
 30
0.0
 10
1.180495
 20
0.374362
 30
0.0
 10
1.187881
 20
0.377337
 30
0.0
 10
1.193944
 20
0.381582
 30
0.0
 10
1.198189
 20
0.387810
 30
0.0
 10
1.202819
 20
0.393599
 30
0.0
 10
1.207835
 20
0.399000
 30
0.0
 10
1.213347
 20
0.403852
 30
0.0
 10
1.216324
 20
0.406109
 30
0.0
 10
1.219410
 20
0.408085
 30
0.0
 10
1.222773
 20
0.409891
 30
0.0
 10
1.226521
 20
0.411387
 30
0.0
 10
1.228505
 20
0.411923
 30
0.0
 10
1.230656
 20
0.412375
 30
0.0
 10
1.233080
 20
0.412657
 30
0.0
 10
1.235946
 20
0.412375
 30
0.0
 10
1.241293
 20
0.409778
 30
0.0
 10
1.271004
 20
0.385140
 30
0.0
 10
1.303581
 20
0.364468
 30
0.0
 10
1.307715
 20
0.360169
 30
0.0
 10
1.308818
 20
0.357516
 30
0.0
 10
1.309368
 20
0.355202
 30
0.0
 10
1.309594
 20
0.353057
 30
0.0
 10
1.309707
 20
0.350912
 30
0.0
 10
1.309425
 20
0.346944
 30
0.0
 10
1.308764
 20
0.343194
 30
0.0
 10
1.307771
 20
0.339556
 30
0.0
 10
1.306557
 20
0.336084
 30
0.0
 10
1.303636
 20
0.329359
 30
0.0
 10
1.300108
 20
0.322910
 30
0.0
 10
1.295974
 20
0.316735
 30
0.0
 10
1.291399
 20
0.310840
 30
0.0
 10
1.289248
 20
0.303674
 30
0.0
 10
1.288698
 20
0.295792
 30
0.0
 10
1.288529
 20
0.287743
 30
0.0
 10
1.288811
 20
0.279474
 30
0.0
 10
1.289418
 20
0.271151
 30
0.0
 10
1.290411
 20
0.262718
 30
0.0
 10
1.291845
 20
0.254062
 30
0.0
 10
1.293169
 20
0.247613
 30
0.0
 10
1.351763
 20
0.228541
 30
0.0
 10
1.356614
 20
0.233062
 30
0.0
 10
1.362787
 20
0.239181
 30
0.0
 10
1.368630
 20
0.245409
 30
0.0
 10
1.374032
 20
0.251804
 30
0.0
 10
1.379103
 20
0.258307
 30
0.0
 10
1.383678
 20
0.264922
 30
0.0
 10
1.387867
 20
0.271648
 30
0.0
 10
1.390292
 20
0.278647
 30
0.0
 10
1.390066
 20
0.286145
 30
0.0
 10
1.390453
 20
0.293585
 30
0.0
 10
1.391333
 20
0.300860
 30
0.0
 10
1.392877
 20
0.308026
 30
0.0
 10
1.393924
 20
0.311554
 30
0.0
 10
1.395358
 20
0.315082
 30
0.0
 10
1.397011
 20
0.318499
 30
0.0
 10
1.399105
 20
0.321863
 30
0.0
 10
1.400373
 20
0.323528
 30
0.0
 10
1.401860
 20
0.325137
 30
0.0
 10
1.403734
 20
0.326746
 30
0.0
 10
1.406158
 20
0.328242
 30
0.0
 10
1.412056
 20
0.329286
 30
0.0
 10
1.450531
 20
0.326859
 30
0.0
 10
1.489061
 20
0.329286
 30
0.0
 10
1.494904
 20
0.328242
 30
0.0
 10
1.497328
 20
0.326746
 30
0.0
 10
1.499148
 20
0.325137
 30
0.0
 10
1.500636
 20
0.323528
 30
0.0
 10
1.501903
 20
0.321863
 30
0.0
 10
1.504053
 20
0.318499
 30
0.0
 10
1.505761
 20
0.315082
 30
0.0
 10
1.507085
 20
0.311554
 30
0.0
 10
1.508188
 20
0.308026
 30
0.0
 10
1.509732
 20
0.300860
 30
0.0
 10
1.510669
 20
0.293585
 30
0.0
 10
1.510951
 20
0.286145
 30
0.0
 10
1.510725
 20
0.278647
 30
0.0
 10
1.513149
 20
0.271648
 30
0.0
 10
1.517339
 20
0.264922
 30
0.0
 10
1.521969
 20
0.258307
 30
0.0
 10
1.526985
 20
0.251804
 30
0.0
 10
1.532442
 20
0.245409
 30
0.0
 10
1.538230
 20
0.239181
 30
0.0
 10
1.544403
 20
0.233062
 30
0.0
 10
1.549254
 20
0.228541
 30
0.0
 10
1.607903
 20
0.247613
 30
0.0
 10
1.609227
 20
0.254062
 30
0.0
 10
1.610604
 20
0.262718
 30
0.0
 10
1.611651
 20
0.271151
 30
0.0
 10
1.612258
 20
0.279474
 30
0.0
 10
1.612540
 20
0.287743
 30
0.0
 10
1.612371
 20
0.295792
 30
0.0
 10
1.611764
 20
0.303674
 30
0.0
 10
1.609614
 20
0.310840
 30
0.0
 10
1.605039
 20
0.316735
 30
0.0
 10
1.600960
 20
0.322910
 30
0.0
 10
1.597432
 20
0.329359
 30
0.0
 10
1.594455
 20
0.336084
 30
0.0
 10
1.593242
 20
0.339556
 30
0.0
 10
1.592305
 20
0.343194
 30
0.0
 10
1.591588
 20
0.346944
 30
0.0
 10
1.591362
 20
0.350912
 30
0.0
 10
1.591419
 20
0.353057
 30
0.0
 10
1.591645
 20
0.355202
 30
0.0
 10
1.592251
 20
0.357516
 30
0.0
 10
1.593355
 20
0.360169
 30
0.0
 10
1.597489
 20
0.364468
 30
0.0
 10
1.630011
 20
0.385140
 30
0.0
 10
1.659776
 20
0.409778
 30
0.0
 10
1.665123
 20
0.412375
 30
0.0
 10
1.667989
 20
0.412657
 30
0.0
 10
1.670360
 20
0.412375
 30
0.0
 10
1.672564
 20
0.411923
 30
0.0
 10
1.674548
 20
0.411387
 30
0.0
 10
1.678241
 20
0.409891
 30
0.0
 10
1.681604
 20
0.408085
 30
0.0
 10
1.684801
 20
0.406109
 30
0.0
 10
1.687722
 20
0.403852
 30
0.0
 10
1.693179
 20
0.399000
 30
0.0
 10
1.698195
 20
0.393599
 30
0.0
 10
1.702825
 20
0.387810
 30
0.0
 10
1.707070
 20
0.381582
 30
0.0
 10
1.713188
 20
0.377337
 30
0.0
 10
1.720519
 20
0.374362
 30
0.0
 10
1.728126
 20
0.371766
 30
0.0
 10
1.736009
 20
0.369452
 30
0.0
 10
1.744166
 20
0.367476
 30
0.0
 10
1.752545
 20
0.365867
 30
0.0
 10
1.761144
 20
0.364485
 30
0.0
 10
1.767703
 20
0.363723
 30
0.0
 10
1.803973
 20
0.413608
 30
0.0
 10
1.801162
 20
0.419617
 30
0.0
 10
1.797249
 20
0.427389
 30
0.0
 10
1.793115
 20
0.434828
 30
0.0
 10
1.788705
 20
0.441940
 30
0.0
 10
1.784075
 20
0.448776
 30
0.0
 10
1.779224
 20
0.455168
 30
0.0
 10
1.774098
 20
0.461233
 30
0.0
 10
1.768200
 20
0.465751
 30
0.0
 10
1.760979
 20
0.467896
 30
0.0
 10
1.754033
 20
0.470436
 30
0.0
 10
1.747364
 20
0.473521
 30
0.0
 10
1.741025
 20
0.477215
 30
0.0
 10
1.737993
 20
0.479360
 30
0.0
 10
1.735127
 20
0.481731
 30
0.0
 10
1.732370
 20
0.484440
 30
0.0
 10
1.729835
 20
0.487474
 30
0.0
 10
1.728622
 20
0.489196
 30
0.0
 10
1.727518
 20
0.491115
 30
0.0
 10
1.726638
 20
0.493373
 30
0.0
 10
1.725977
 20
0.496138
 30
0.0
 10
1.726751
 20
0.502037
 30
0.0
 10
1.740972
 20
0.537921
 30
0.0
 10
1.750563
 20
0.575293
 30
0.0
 10
1.753374
 20
0.580528
 30
0.0
 10
1.755524
 20
0.582363
 30
0.0
 10
1.757619
 20
0.583689
 30
0.0
 10
1.759603
 20
0.584564
 30
0.0
 10
1.761587
 20
0.585270
 30
0.0
 10
1.765445
 20
0.586201
 30
0.0
 10
1.769193
 20
0.586737
 30
0.0
 10
1.772997
 20
0.587020
 30
0.0
 10
1.776635
 20
0.587020
 30
0.0
 10
1.783966
 20
0.586258
 30
0.0
 10
1.791242
 20
0.584875
 30
0.0
 10
1.798353
 20
0.582899
 30
0.0
 10
1.805408
 20
0.580359
 30
0.0
 10
1.812850
 20
0.580641
 30
0.0
 10
1.820512
 20
0.582504
 30
0.0
 10
1.828229
 20
0.584875
 30
0.0
 10
1.835946
 20
0.587697
 30
0.0
 10
1.843718
 20
0.590841
 30
0.0
 10
1.851490
 20
0.594479
 30
0.0
 10
1.859207
 20
0.598447
 30
0.0
 10
1.864939
 20
0.601644
 30
0.0
 10
1.864939
 20
0.663324
 30
0.0
 10
1.859207
 20
0.666578
 30
0.0
 10
1.851490
 20
0.670546
 30
0.0
 10
1.843718
 20
0.674127
 30
0.0
 10
1.835946
 20
0.677325
 30
0.0
 10
1.828229
 20
0.680091
 30
0.0
 10
1.820512
 20
0.682461
 30
0.0
 10
1.812850
 20
0.684324
 30
0.0
 10
1.805408
 20
0.684606
 30
0.0
 10
1.798353
 20
0.682123
 30
0.0
 10
1.791242
 20
0.680147
 30
0.0
 10
1.783966
 20
0.678708
 30
0.0
 10
1.776635
 20
0.678002
 30
0.0
 10
1.772997
 20
0.678002
 30
0.0
 10
1.769193
 20
0.678285
 30
0.0
 10
1.765445
 20
0.678821
 30
0.0
 10
1.761587
 20
0.679752
 30
0.0
 10
1.759603
 20
0.680429
 30
0.0
 10
1.757619
 20
0.681361
 30
0.0
 10
1.755524
 20
0.682631
 30
0.0
 10
1.753374
 20
0.684493
 30
0.0
 10
1.750563
 20
0.689732
 30
0.0
 10
1.740972
 20
0.727103
 30
0.0
 10
1.726751
 20
0.762988
 30
0.0
 10
1.725977
 20
0.768884
 30
0.0
 10
1.726638
 20
0.771649
 30
0.0
 10
1.727518
 20
0.773907
 30
0.0
 10
1.728622
 20
0.775826
 30
0.0
 10
1.729835
 20
0.777548
 30
0.0
 10
1.732370
 20
0.780580
 30
0.0
 10
1.735127
 20
0.783281
 30
0.0
 10
1.737993
 20
0.785595
 30
0.0
 10
1.741025
 20
0.787745
 30
0.0
 10
1.747364
 20
0.791438
 30
0.0
 10
1.754033
 20
0.794580
 30
0.0
 10
1.760979
 20
0.797117
 30
0.0
 10
1.768200
 20
0.799268
 30
0.0
 10
1.774098
 20
0.803788
 30
0.0
 10
1.779224
 20
0.809851
 30
0.0
 10
1.784075
 20
0.816190
 30
0.0
 10
1.788705
 20
0.823080
 30
0.0
 10
1.793115
 20
0.830191
 30
0.0
 10
1.797249
 20
0.837632
 30
0.0
 10
1.801162
 20
0.845404
 30
0.0
 10
1.803973
 20
0.851413
 30
0.0
 10
1.767703
 20
0.901298
 30
0.0
 10
1.761144
 20
0.900527
 30
0.0
 10
1.752545
 20
0.899150
 30
0.0
 10
1.744166
 20
0.897553
 30
0.0
 10
1.736009
 20
0.895569
 30
0.0
 10
1.728126
 20
0.893254
 30
0.0
 10
1.720519
 20
0.890664
 30
0.0
 10
1.713188
 20
0.887632
 30
0.0
 10
1.707070
 20
0.883388
 30
0.0
 10
1.702825
 20
0.877214
 30
0.0
 10
1.698195
 20
0.871426
 30
0.0
 10
1.693179
 20
0.866024
 30
0.0
 10
1.687722
 20
0.861118
 30
0.0
 10
1.684801
 20
0.858914
 30
0.0
 10
1.681604
 20
0.856930
 30
0.0
 10
1.678241
 20
0.855110
 30
0.0
 10
1.674548
 20
0.853622
 30
0.0
 10
1.672564
 20
0.853016
 30
0.0
 10
1.670360
 20
0.852575
 30
0.0
 10
1.667989
 20
0.852406
 30
0.0
 10
1.665123
 20
0.852632
 30
0.0
 10
1.659776
 20
0.855223
 30
0.0
 10
1.630011
 20
0.879862
 30
0.0
 10
1.597489
 20
0.900478
 30
0.0
 10
1.593355
 20
0.904777
 30
0.0
 10
1.592251
 20
0.907421
 30
0.0
 10
1.591645
 20
0.909792
 30
0.0
 10
1.591419
 20
0.911943
 30
0.0
 10
1.591362
 20
0.914037
 30
0.0
 10
1.591588
 20
0.918006
 30
0.0
 10
1.592305
 20
0.921754
 30
0.0
 10
1.593242
 20
0.925392
 30
0.0
 10
1.594455
 20
0.928920
 30
0.0
 10
1.597432
 20
0.935644
 30
0.0
 10
1.600960
 20
0.942094
 30
0.0
 10
1.605039
 20
0.948212
 30
0.0
 10
1.609614
 20
0.954165
 30
0.0
 10
1.611764
 20
0.961331
 30
0.0
 10
1.612371
 20
0.969213
 30
0.0
 10
1.612540
 20
0.977261
 30
0.0
 10
1.612258
 20
0.985474
 30
0.0
 10
1.611651
 20
0.993798
 30
0.0
 10
1.610604
 20
1.002286
 30
0.0
 10
1.609227
 20
1.010885
 30
0.0
 10
1.607903
 20
1.017335
 30
0.0
 10
1.549254
 20
1.036462
 30
0.0
 10
1.544403
 20
1.031942
 30
0.0
 10
1.538230
 20
1.025768
 30
0.0
 10
1.532442
 20
1.019540
 30
0.0
 10
1.526985
 20
1.013201
 30
0.0
 10
1.521969
 20
1.006641
 30
0.0
 10
1.517339
 20
1.000081
 30
0.0
 10
1.513149
 20
0.993302
 30
0.0
 10
1.510725
 20
0.986356
 30
0.0
 10
1.510951
 20
0.978805
 30
0.0
 10
1.510669
 20
0.971418
 30
0.0
 10
1.509732
 20
0.964142
 30
0.0
 10
1.508188
 20
0.956976
 30
0.0
 10
1.507085
 20
0.953394
 30
0.0
 10
1.505761
 20
0.949921
 30
0.0
 10
1.504053
 20
0.946503
 30
0.0
 10
1.501903
 20
0.943141
 30
0.0
 10
1.500636
 20
0.941431
 30
0.0
 10
1.499148
 20
0.939833
 30
0.0
 10
1.497328
 20
0.938290
 30
0.0
 10
1.494904
 20
0.936802
 30
0.0
 10
1.489061
 20
0.935755
 30
0.0
 10
1.450531
 20
0.938180
 30
0.0
 10
1.412056
 20
0.935755
 30
0.0
 10
1.406158
 20
0.936802
 30
0.0
 10
1.403734
 20
0.938290
 30
0.0
 10
1.401860
 20
0.939833
 30
0.0
 10
1.400373
 20
0.941431
 30
0.0
 10
1.399105
 20
0.943141
 30
0.0
 10
1.397011
 20
0.946503
 30
0.0
 10
1.395358
 20
0.949921
 30
0.0
 10
1.393924
 20
0.953394
 30
0.0
 10
1.392877
 20
0.956976
 30
0.0
 10
1.391333
 20
0.964142
 30
0.0
 10
1.390453
 20
0.971418
 30
0.0
 10
1.390066
 20
0.978805
 30
0.0
 10
1.390292
 20
0.986356
 30
0.0
 10
1.387867
 20
0.993302
 30
0.0
 10
1.383678
 20
1.000081
 30
0.0
 10
1.379103
 20
1.006641
 30
0.0
 10
1.374032
 20
1.013201
 30
0.0
 10
1.368630
 20
1.019540
 30
0.0
 10
1.362787
 20
1.025768
 30
0.0
 10
1.356614
 20
1.031942
 30
0.0
 10
1.351763
 20
1.036462
 30
0.0
 10
1.351763
 20
1.036462
 30
0.0
  0
LWPOLYLINE
  5
101
100
AcDbEntity
  8
Layer_1
 62
7
100
AcDbPolyline
 90
18
 70
0
 10
1.450541
 20
0.830913
 30
0.0
 10
1.527683
 20
0.815343
 30
0.0
 10
1.590683
 20
0.772877
 30
0.0
 10
1.633166
 20
0.709889
 30
0.0
 10
1.648758
 20
0.632751
 30
0.0
 10
1.633669
 20
0.556897
 30
0.0
 10
1.590701
 20
0.492590
 30
0.0
 10
1.526395
 20
0.449623
 30
0.0
 10
1.450541
 20
0.434535
 30
0.0
 10
1.374686
 20
0.449623
 30
0.0
 10
1.310380
 20
0.492590
 30
0.0
 10
1.267412
 20
0.556896
 30
0.0
 10
1.252324
 20
0.632751
 30
0.0
 10
1.267916
 20
0.709889
 30
0.0
 10
1.310399
 20
0.772877
 30
0.0
 10
1.373399
 20
0.815343
 30
0.0
 10
1.450541
 20
0.830913
 30
0.0
 10
1.450541
 20
0.830913
 30
0.0
  0
LWPOLYLINE
  5
102
100
AcDbEntity
  8
Layer_1
 62
7
100
AcDbPolyline
 90
8
 70
1
 10
0.000000
 20
7.999999
 30
0.0
 10
0.000000
 20
6.999984
 30
0.0
 10
0.028332
 20
6.999984
 30
0.0
 10
0.028332
 20
7.971613
 30
0.0
 10
1.000016
 20
7.971613
 30
0.0
 10
1.000016
 20
7.999999
 30
0.0
 10
0.000000
 20
7.999999
 30
0.0
 10
0.000000
 20
7.999999
 30
0.0
  0
LWPOLYLINE
  5
103
100
AcDbEntity
  8
Layer_1
 62
7
100
AcDbPolyline
 90
9
 70
1
 10
7.999984
 20
7.999999
 30
0.0
 10
7.999984
 20
7.971613
 30
0.0
 10
8.971668
 20
7.971613
 30
0.0
 10
8.971668
 20
6.999984
 30
0.0
 10
9.000000
 20
6.999984
 30
0.0
 10
9.000000
 20
7.985778
 30
0.0
 10
9.000000
 20
7.999999
 30
0.0
 10
7.999984
 20
7.999999
 30
0.0
 10
7.999984
 20
7.999999
 30
0.0
  0
LWPOLYLINE
  5
104
100
AcDbEntity
  8
Layer_1
 62
7
100
AcDbPolyline
 90
8
 70
1
 10
0.000010
 20
0.799978
 30
0.0
 10
0.000010
 20
-0.000000
 30
0.0
 10
1.000024
 20
-0.000000
 30
0.0
 10
1.000024
 20
0.028332
 30
0.0
 10
0.028342
 20
0.028332
 30
0.0
 10
0.028342
 20
0.799978
 30
0.0
 10
0.000010
 20
0.799978
 30
0.0
 10
0.000010
 20
0.799978
 30
0.0
  0
LWPOLYLINE
  5
105
100
AcDbEntity
  8
Layer_1
 62
7
100
AcDbPolyline
 90
8
 70
1
 10
8.971668
 20
0.799978
 30
0.0
 10
8.971668
 20
0.028332
 30
0.0
 10
7.999984
 20
0.028332
 30
0.0
 10
7.999984
 20
-0.000000
 30
0.0
 10
9.000000
 20
-0.000000
 30
0.0
 10
9.000000
 20
0.799978
 30
0.0
 10
8.971668
 20
0.799978
 30
0.0
 10
8.971668
 20
0.799978
 30
0.0
  0
LWPOLYLINE
  5
106
100
AcDbEntity
  8
Layer_1
 62
7
100
AcDbPolyline
 90
452
 70
0
 10
5.329112
 20
6.877967
 30
0.0
 10
5.270463
 20
6.858895
 30
0.0
 10
5.269140
 20
6.852445
 30
0.0
 10
5.267762
 20
6.843791
 30
0.0
 10
5.266715
 20
6.835357
 30
0.0
 10
5.266109
 20
6.826979
 30
0.0
 10
5.265826
 20
6.818766
 30
0.0
 10
5.265996
 20
6.810718
 30
0.0
 10
5.266602
 20
6.802836
 30
0.0
 10
5.268753
 20
6.795670
 30
0.0
 10
5.273328
 20
6.789772
 30
0.0
 10
5.277407
 20
6.783598
 30
0.0
 10
5.280935
 20
6.777149
 30
0.0
 10
5.283911
 20
6.770424
 30
0.0
 10
5.285125
 20
6.766952
 30
0.0
 10
5.286062
 20
6.763314
 30
0.0
 10
5.286779
 20
6.759565
 30
0.0
 10
5.287005
 20
6.755597
 30
0.0
 10
5.286948
 20
6.753446
 30
0.0
 10
5.286722
 20
6.751296
 30
0.0
 10
5.286116
 20
6.748981
 30
0.0
 10
5.285012
 20
6.746337
 30
0.0
 10
5.280933
 20
6.742037
 30
0.0
 10
5.248357
 20
6.721367
 30
0.0
 10
5.218646
 20
6.696727
 30
0.0
 10
5.213244
 20
6.694137
 30
0.0
 10
5.210378
 20
6.693967
 30
0.0
 10
5.208007
 20
6.694137
 30
0.0
 10
5.205856
 20
6.694523
 30
0.0
 10
5.203872
 20
6.695130
 30
0.0
 10
5.200124
 20
6.696617
 30
0.0
 10
5.196762
 20
6.698435
 30
0.0
 10
5.193620
 20
6.700419
 30
0.0
 10
5.190643
 20
6.702679
 30
0.0
 10
5.185186
 20
6.707530
 30
0.0
 10
5.180170
 20
6.712932
 30
0.0
 10
5.175540
 20
6.718720
 30
0.0
 10
5.171296
 20
6.724948
 30
0.0
 10
5.165177
 20
6.729193
 30
0.0
 10
5.157846
 20
6.732169
 30
0.0
 10
5.150239
 20
6.734760
 30
0.0
 10
5.142357
 20
6.737074
 30
0.0
 10
5.134254
 20
6.739058
 30
0.0
 10
5.125875
 20
6.740656
 30
0.0
 10
5.117221
 20
6.742033
 30
0.0
 10
5.110717
 20
6.742804
 30
0.0
 10
5.074392
 20
6.692918
 30
0.0
 10
5.077203
 20
6.686910
 30
0.0
 10
5.081116
 20
6.679138
 30
0.0
 10
5.085251
 20
6.671697
 30
0.0
 10
5.089660
 20
6.664586
 30
0.0
 10
5.094291
 20
6.657751
 30
0.0
 10
5.099141
 20
6.651357
 30
0.0
 10
5.104268
 20
6.645293
 30
0.0
 10
5.110221
 20
6.640773
 30
0.0
 10
5.117386
 20
6.638623
 30
0.0
 10
5.124332
 20
6.636089
 30
0.0
 10
5.131001
 20
6.633002
 30
0.0
 10
5.137340
 20
6.629309
 30
0.0
 10
5.140372
 20
6.627158
 30
0.0
 10
5.143239
 20
6.624788
 30
0.0
 10
5.145996
 20
6.622087
 30
0.0
 10
5.148530
 20
6.619055
 30
0.0
 10
5.149744
 20
6.617345
 30
0.0
 10
5.150847
 20
6.615414
 30
0.0
 10
5.151728
 20
6.613154
 30
0.0
 10
5.152388
 20
6.610396
 30
0.0
 10
5.151618
 20
6.604498
 30
0.0
 10
5.137396
 20
6.568614
 30
0.0
 10
5.127805
 20
6.531242
 30
0.0
 10
5.124994
 20
6.526005
 30
0.0
 10
5.122844
 20
6.524188
 30
0.0
 10
5.120750
 20
6.522864
 30
0.0
 10
5.118766
 20
6.521984
 30
0.0
 10
5.116782
 20
6.521267
 30
0.0
 10
5.112923
 20
6.520330
 30
0.0
 10
5.109175
 20
6.519779
 30
0.0
 10
5.105371
 20
6.519554
 30
0.0
 10
5.101733
 20
6.519610
 30
0.0
 10
5.094402
 20
6.520381
 30
0.0
 10
5.087126
 20
6.521758
 30
0.0
 10
5.080015
 20
6.523742
 30
0.0
 10
5.072960
 20
6.526276
 30
0.0
 10
5.065574
 20
6.526107
 30
0.0
 10
5.057857
 20
6.524233
 30
0.0
 10
5.050140
 20
6.521862
 30
0.0
 10
5.042423
 20
6.519051
 30
0.0
 10
5.034651
 20
6.515909
 30
0.0
 10
5.026878
 20
6.512271
 30
0.0
 10
5.019161
 20
6.508303
 30
0.0
 10
5.013429
 20
6.505106
 30
0.0
 10
5.013429
 20
6.443424
 30
0.0
 10
5.019161
 20
6.440172
 30
0.0
 10
5.026878
 20
6.436204
 30
0.0
 10
5.034651
 20
6.432621
 30
0.0
 10
5.042423
 20
6.429424
 30
0.0
 10
5.050140
 20
6.426666
 30
0.0
 10
5.057857
 20
6.424296
 30
0.0
 10
5.065574
 20
6.422422
 30
0.0
 10
5.072960
 20
6.422252
 30
0.0
 10
5.080015
 20
6.424733
 30
0.0
 10
5.087126
 20
6.426717
 30
0.0
 10
5.094402
 20
6.428151
 30
0.0
 10
5.101733
 20
6.428868
 30
0.0
 10
5.105371
 20
6.428924
 30
0.0
 10
5.109175
 20
6.428698
 30
0.0
 10
5.112923
 20
6.428148
 30
0.0
 10
5.116782
 20
6.427211
 30
0.0
 10
5.118766
 20
6.426551
 30
0.0
 10
5.120750
 20
6.425614
 30
0.0
 10
5.122844
 20
6.424347
 30
0.0
 10
5.124994
 20
6.422473
 30
0.0
 10
5.127805
 20
6.417236
 30
0.0
 10
5.137396
 20
6.379863
 30
0.0
 10
5.151618
 20
6.343979
 30
0.0
 10
5.152388
 20
6.338081
 30
0.0
 10
5.151728
 20
6.335324
 30
0.0
 10
5.150847
 20
6.333063
 30
0.0
 10
5.149744
 20
6.331133
 30
0.0
 10
5.148530
 20
6.329423
 30
0.0
 10
5.145996
 20
6.326391
 30
0.0
 10
5.143239
 20
6.323690
 30
0.0
 10
5.140372
 20
6.321376
 30
0.0
 10
5.137340
 20
6.319226
 30
0.0
 10
5.131001
 20
6.315532
 30
0.0
 10
5.124332
 20
6.312391
 30
0.0
 10
5.117386
 20
6.309856
 30
0.0
 10
5.110221
 20
6.307706
 30
0.0
 10
5.104268
 20
6.303186
 30
0.0
 10
5.099141
 20
6.297122
 30
0.0
 10
5.094291
 20
6.290783
 30
0.0
 10
5.089660
 20
6.283893
 30
0.0
 10
5.085251
 20
6.276783
 30
0.0
 10
5.081116
 20
6.269341
 30
0.0
 10
5.077203
 20
6.261569
 30
0.0
 10
5.074392
 20
6.255561
 30
0.0
 10
5.110717
 20
6.205676
 30
0.0
 10
5.117221
 20
6.206446
 30
0.0
 10
5.125875
 20
6.207823
 30
0.0
 10
5.134254
 20
6.209421
 30
0.0
 10
5.142357
 20
6.211405
 30
0.0
 10
5.150239
 20
6.213719
 30
0.0
 10
5.157846
 20
6.216310
 30
0.0
 10
5.165177
 20
6.219341
 30
0.0
 10
5.171296
 20
6.223586
 30
0.0
 10
5.175540
 20
6.229759
 30
0.0
 10
5.180170
 20
6.235547
 30
0.0
 10
5.185186
 20
6.240949
 30
0.0
 10
5.190643
 20
6.245855
 30
0.0
 10
5.193620
 20
6.248059
 30
0.0
 10
5.196762
 20
6.250043
 30
0.0
 10
5.200124
 20
6.251860
 30
0.0
 10
5.203872
 20
6.253348
 30
0.0
 10
5.205856
 20
6.253955
 30
0.0
 10
5.208007
 20
6.254395
 30
0.0
 10
5.210378
 20
6.254564
 30
0.0
 10
5.213244
 20
6.254338
 30
0.0
 10
5.218646
 20
6.251748
 30
0.0
 10
5.248357
 20
6.227108
 30
0.0
 10
5.280933
 20
6.206493
 30
0.0
 10
5.285012
 20
6.202193
 30
0.0
 10
5.286116
 20
6.199549
 30
0.0
 10
5.286722
 20
6.197178
 30
0.0
 10
5.286948
 20
6.195028
 30
0.0
 10
5.287005
 20
6.192934
 30
0.0
 10
5.286779
 20
6.188965
 30
0.0
 10
5.286062
 20
6.185217
 30
0.0
 10
5.285125
 20
6.181579
 30
0.0
 10
5.283911
 20
6.178051
 30
0.0
 10
5.280935
 20
6.171326
 30
0.0
 10
5.277407
 20
6.164877
 30
0.0
 10
5.273328
 20
6.158758
 30
0.0
 10
5.268753
 20
6.152805
 30
0.0
 10
5.266602
 20
6.145639
 30
0.0
 10
5.265996
 20
6.137757
 30
0.0
 10
5.265826
 20
6.129709
 30
0.0
 10
5.266109
 20
6.121496
 30
0.0
 10
5.266715
 20
6.113173
 30
0.0
 10
5.267762
 20
6.104684
 30
0.0
 10
5.269140
 20
6.096085
 30
0.0
 10
5.270463
 20
6.089636
 30
0.0
 10
5.329112
 20
6.070509
 30
0.0
 10
5.333963
 20
6.075029
 30
0.0
 10
5.340137
 20
6.081202
 30
0.0
 10
5.345925
 20
6.087431
 30
0.0
 10
5.351382
 20
6.093770
 30
0.0
 10
5.356398
 20
6.100329
 30
0.0
 10
5.361028
 20
6.106889
 30
0.0
 10
5.365217
 20
6.113669
 30
0.0
 10
5.367641
 20
6.120614
 30
0.0
 10
5.367416
 20
6.128166
 30
0.0
 10
5.367746
 20
6.135552
 30
0.0
 10
5.368626
 20
6.142828
 30
0.0
 10
5.370224
 20
6.149994
 30
0.0
 10
5.371271
 20
6.153577
 30
0.0
 10
5.372648
 20
6.157050
 30
0.0
 10
5.374302
 20
6.160467
 30
0.0
 10
5.376452
 20
6.163829
 30
0.0
 10
5.377720
 20
6.165540
 30
0.0
 10
5.379207
 20
6.167137
 30
0.0
 10
5.381027
 20
6.168681
 30
0.0
 10
5.383451
 20
6.170168
 30
0.0
 10
5.389349
 20
6.171215
 30
0.0
 10
5.427824
 20
6.168791
 30
0.0
 10
5.466354
 20
6.171215
 30
0.0
 10
5.472252
 20
6.170168
 30
0.0
 10
5.474676
 20
6.168681
 30
0.0
 10
5.476494
 20
6.167137
 30
0.0
 10
5.477981
 20
6.165540
 30
0.0
 10
5.479248
 20
6.163829
 30
0.0
 10
5.481343
 20
6.160467
 30
0.0
 10
5.483050
 20
6.157050
 30
0.0
 10
5.484427
 20
6.153577
 30
0.0
 10
5.485474
 20
6.149994
 30
0.0
 10
5.487018
 20
6.142828
 30
0.0
 10
5.487955
 20
6.135552
 30
0.0
 10
5.488285
 20
6.128166
 30
0.0
 10
5.488059
 20
6.120614
 30
0.0
 10
5.490484
 20
6.113669
 30
0.0
 10
5.494673
 20
6.106889
 30
0.0
 10
5.499248
 20
6.100329
 30
0.0
 10
5.504319
 20
6.093770
 30
0.0
 10
5.509721
 20
6.087431
 30
0.0
 10
5.515564
 20
6.081202
 30
0.0
 10
5.521738
 20
6.075029
 30
0.0
 10
5.526588
 20
6.070509
 30
0.0
 10
5.585183
 20
6.089636
 30
0.0
 10
5.586506
 20
6.096085
 30
0.0
 10
5.587940
 20
6.104684
 30
0.0
 10
5.588933
 20
6.113173
 30
0.0
 10
5.589540
 20
6.121496
 30
0.0
 10
5.589822
 20
6.129709
 30
0.0
 10
5.589653
 20
6.137757
 30
0.0
 10
5.589103
 20
6.145639
 30
0.0
 10
5.586952
 20
6.152805
 30
0.0
 10
5.582377
 20
6.158758
 30
0.0
 10
5.578243
 20
6.164877
 30
0.0
 10
5.574715
 20
6.171326
 30
0.0
 10
5.571794
 20
6.178051
 30
0.0
 10
5.570580
 20
6.181579
 30
0.0
 10
5.569589
 20
6.185217
 30
0.0
 10
5.568929
 20
6.188965
 30
0.0
 10
5.568647
 20
6.192934
 30
0.0
 10
5.568760
 20
6.195028
 30
0.0
 10
5.568986
 20
6.197178
 30
0.0
 10
5.569536
 20
6.199549
 30
0.0
 10
5.570639
 20
6.202193
 30
0.0
 10
5.574773
 20
6.206493
 30
0.0
 10
5.607350
 20
6.227108
 30
0.0
 10
5.637061
 20
6.251748
 30
0.0
 10
5.642463
 20
6.254338
 30
0.0
 10
5.645274
 20
6.254564
 30
0.0
 10
5.647698
 20
6.254395
 30
0.0
 10
5.649848
 20
6.253955
 30
0.0
 10
5.651832
 20
6.253348
 30
0.0
 10
5.655581
 20
6.251860
 30
0.0
 10
5.658943
 20
6.250043
 30
0.0
 10
5.662085
 20
6.248059
 30
0.0
 10
5.665062
 20
6.245855
 30
0.0
 10
5.670519
 20
6.240949
 30
0.0
 10
5.675535
 20
6.235547
 30
0.0
 10
5.680165
 20
6.229759
 30
0.0
 10
5.684409
 20
6.223586
 30
0.0
 10
5.690528
 20
6.219341
 30
0.0
 10
5.697859
 20
6.216310
 30
0.0
 10
5.705411
 20
6.213719
 30
0.0
 10
5.713348
 20
6.211405
 30
0.0
 10
5.721451
 20
6.209421
 30
0.0
 10
5.729829
 20
6.207823
 30
0.0
 10
5.738428
 20
6.206446
 30
0.0
 10
5.744988
 20
6.205676
 30
0.0
 10
5.781258
 20
6.255561
 30
0.0
 10
5.778447
 20
6.261569
 30
0.0
 10
5.774533
 20
6.269341
 30
0.0
 10
5.770399
 20
6.276783
 30
0.0
 10
5.766045
 20
6.283893
 30
0.0
 10
5.761414
 20
6.290783
 30
0.0
 10
5.756508
 20
6.297122
 30
0.0
 10
5.751382
 20
6.303186
 30
0.0
 10
5.745484
 20
6.307706
 30
0.0
 10
5.738318
 20
6.309856
 30
0.0
 10
5.731373
 20
6.312391
 30
0.0
 10
5.724703
 20
6.315532
 30
0.0
 10
5.718364
 20
6.319226
 30
0.0
 10
5.715333
 20
6.321376
 30
0.0
 10
5.712411
 20
6.323690
 30
0.0
 10
5.709710
 20
6.326391
 30
0.0
 10
5.707119
 20
6.329423
 30
0.0
 10
5.705962
 20
6.331133
 30
0.0
 10
5.704859
 20
6.333063
 30
0.0
 10
5.703922
 20
6.335324
 30
0.0
 10
5.703315
 20
6.338081
 30
0.0
 10
5.704086
 20
6.343979
 30
0.0
 10
5.718307
 20
6.379863
 30
0.0
 10
5.727843
 20
6.417236
 30
0.0
 10
5.730709
 20
6.422473
 30
0.0
 10
5.732860
 20
6.424347
 30
0.0
 10
5.734954
 20
6.425614
 30
0.0
 10
5.736938
 20
6.426551
 30
0.0
 10
5.738922
 20
6.427211
 30
0.0
 10
5.742725
 20
6.428148
 30
0.0
 10
5.746529
 20
6.428698
 30
0.0
 10
5.750277
 20
6.428924
 30
0.0
 10
5.753970
 20
6.428868
 30
0.0
 10
5.761301
 20
6.428151
 30
0.0
 10
5.768522
 20
6.426717
 30
0.0
 10
5.775633
 20
6.424733
 30
0.0
 10
5.782743
 20
6.422252
 30
0.0
 10
5.790130
 20
6.422422
 30
0.0
 10
5.797847
 20
6.424296
 30
0.0
 10
5.805564
 20
6.426666
 30
0.0
 10
5.813281
 20
6.429424
 30
0.0
 10
5.821053
 20
6.432621
 30
0.0
 10
5.828770
 20
6.436204
 30
0.0
 10
5.836487
 20
6.440172
 30
0.0
 10
5.842275
 20
6.443424
 30
0.0
 10
5.842275
 20
6.505106
 30
0.0
 10
5.836487
 20
6.508303
 30
0.0
 10
5.828770
 20
6.512271
 30
0.0
 10
5.821053
 20
6.515909
 30
0.0
 10
5.813281
 20
6.519051
 30
0.0
 10
5.805564
 20
6.521862
 30
0.0
 10
5.797847
 20
6.524233
 30
0.0
 10
5.790130
 20
6.526107
 30
0.0
 10
5.782743
 20
6.526276
 30
0.0
 10
5.775633
 20
6.523742
 30
0.0
 10
5.768522
 20
6.521758
 30
0.0
 10
5.761301
 20
6.520381
 30
0.0
 10
5.753970
 20
6.519610
 30
0.0
 10
5.750277
 20
6.519554
 30
0.0
 10
5.746529
 20
6.519779
 30
0.0
 10
5.742725
 20
6.520330
 30
0.0
 10
5.738922
 20
6.521267
 30
0.0
 10
5.736938
 20
6.521984
 30
0.0
 10
5.734954
 20
6.522864
 30
0.0
 10
5.732860
 20
6.524188
 30
0.0
 10
5.730709
 20
6.526005
 30
0.0
 10
5.727843
 20
6.531242
 30
0.0
 10
5.718307
 20
6.568614
 30
0.0
 10
5.704086
 20
6.604498
 30
0.0
 10
5.703315
 20
6.610396
 30
0.0
 10
5.703922
 20
6.613154
 30
0.0
 10
5.704859
 20
6.615414
 30
0.0
 10
5.705962
 20
6.617345
 30
0.0
 10
5.707119
 20
6.619055
 30
0.0
 10
5.709710
 20
6.622087
 30
0.0
 10
5.712411
 20
6.624788
 30
0.0
 10
5.715333
 20
6.627158
 30
0.0
 10
5.718364
 20
6.629309
 30
0.0
 10
5.724703
 20
6.633002
 30
0.0
 10
5.731373
 20
6.636089
 30
0.0
 10
5.738318
 20
6.638623
 30
0.0
 10
5.745484
 20
6.640773
 30
0.0
 10
5.751382
 20
6.645293
 30
0.0
 10
5.756508
 20
6.651357
 30
0.0
 10
5.761414
 20
6.657751
 30
0.0
 10
5.766045
 20
6.664586
 30
0.0
 10
5.770399
 20
6.671697
 30
0.0
 10
5.774533
 20
6.679138
 30
0.0
 10
5.778447
 20
6.686910
 30
0.0
 10
5.781258
 20
6.692918
 30
0.0
 10
5.744988
 20
6.742804
 30
0.0
 10
5.738428
 20
6.742033
 30
0.0
 10
5.729829
 20
6.740656
 30
0.0
 10
5.721451
 20
6.739058
 30
0.0
 10
5.713348
 20
6.737074
 30
0.0
 10
5.705411
 20
6.734760
 30
0.0
 10
5.697859
 20
6.732169
 30
0.0
 10
5.690528
 20
6.729193
 30
0.0
 10
5.684409
 20
6.724948
 30
0.0
 10
5.680165
 20
6.718720
 30
0.0
 10
5.675535
 20
6.712932
 30
0.0
 10
5.670519
 20
6.707530
 30
0.0
 10
5.665062
 20
6.702679
 30
0.0
 10
5.662085
 20
6.700419
 30
0.0
 10
5.658943
 20
6.698435
 30
0.0
 10
5.655581
 20
6.696617
 30
0.0
 10
5.651832
 20
6.695130
 30
0.0
 10
5.649848
 20
6.694523
 30
0.0
 10
5.647698
 20
6.694137
 30
0.0
 10
5.645274
 20
6.693967
 30
0.0
 10
5.642463
 20
6.694137
 30
0.0
 10
5.637061
 20
6.696727
 30
0.0
 10
5.607350
 20
6.721367
 30
0.0
 10
5.574773
 20
6.742037
 30
0.0
 10
5.570639
 20
6.746337
 30
0.0
 10
5.569536
 20
6.748981
 30
0.0
 10
5.568986
 20
6.751296
 30
0.0
 10
5.568760
 20
6.753446
 30
0.0
 10
5.568647
 20
6.755597
 30
0.0
 10
5.568929
 20
6.759565
 30
0.0
 10
5.569589
 20
6.763314
 30
0.0
 10
5.570580
 20
6.766952
 30
0.0
 10
5.571794
 20
6.770424
 30
0.0
 10
5.574715
 20
6.777149
 30
0.0
 10
5.578243
 20
6.783598
 30
0.0
 10
5.582377
 20
6.789772
 30
0.0
 10
5.586952
 20
6.795670
 30
0.0
 10
5.589103
 20
6.802836
 30
0.0
 10
5.589653
 20
6.810718
 30
0.0
 10
5.589822
 20
6.818766
 30
0.0
 10
5.589540
 20
6.826979
 30
0.0
 10
5.588933
 20
6.835357
 30
0.0
 10
5.587940
 20
6.843791
 30
0.0
 10
5.586506
 20
6.852445
 30
0.0
 10
5.585183
 20
6.858895
 30
0.0
 10
5.526588
 20
6.877967
 30
0.0
 10
5.521738
 20
6.873446
 30
0.0
 10
5.515564
 20
6.867328
 30
0.0
 10
5.509721
 20
6.861099
 30
0.0
 10
5.504319
 20
6.854705
 30
0.0
 10
5.499248
 20
6.848201
 30
0.0
 10
5.494673
 20
6.841586
 30
0.0
 10
5.490484
 20
6.834861
 30
0.0
 10
5.488059
 20
6.827861
 30
0.0
 10
5.488285
 20
6.820364
 30
0.0
 10
5.487955
 20
6.812923
 30
0.0
 10
5.487018
 20
6.805647
 30
0.0
 10
5.485474
 20
6.798481
 30
0.0
 10
5.484427
 20
6.794953
 30
0.0
 10
5.483050
 20
6.791426
 30
0.0
 10
5.481343
 20
6.788008
 30
0.0
 10
5.479248
 20
6.784646
 30
0.0
 10
5.477981
 20
6.782992
 30
0.0
 10
5.476494
 20
6.781395
 30
0.0
 10
5.474676
 20
6.779797
 30
0.0
 10
5.472252
 20
6.778310
 30
0.0
 10
5.466354
 20
6.777263
 30
0.0
 10
5.427824
 20
6.779687
 30
0.0
 10
5.389349
 20
6.777263
 30
0.0
 10
5.383451
 20
6.778310
 30
0.0
 10
5.381027
 20
6.779797
 30
0.0
 10
5.379207
 20
6.781395
 30
0.0
 10
5.377720
 20
6.782992
 30
0.0
 10
5.376452
 20
6.784646
 30
0.0
 10
5.374302
 20
6.788008
 30
0.0
 10
5.372648
 20
6.791426
 30
0.0
 10
5.371271
 20
6.794953
 30
0.0
 10
5.370224
 20
6.798481
 30
0.0
 10
5.368626
 20
6.805647
 30
0.0
 10
5.367746
 20
6.812923
 30
0.0
 10
5.367416
 20
6.820364
 30
0.0
 10
5.367641
 20
6.827861
 30
0.0
 10
5.365217
 20
6.834861
 30
0.0
 10
5.361028
 20
6.841586
 30
0.0
 10
5.356398
 20
6.848201
 30
0.0
 10
5.351382
 20
6.854705
 30
0.0
 10
5.345925
 20
6.861099
 30
0.0
 10
5.340137
 20
6.867328
 30
0.0
 10
5.333963
 20
6.873446
 30
0.0
 10
5.329112
 20
6.877967
 30
0.0
 10
5.329112
 20
6.877967
 30
0.0
  0
LWPOLYLINE
  5
107
100
AcDbEntity
  8
Layer_1
 62
7
100
AcDbPolyline
 90
18
 70
0
 10
5.427835
 20
6.672473
 30
0.0
 10
5.503690
 20
6.657386
 30
0.0
 10
5.567996
 20
6.614418
 30
0.0
 10
5.610964
 20
6.550111
 30
0.0
 10
5.626052
 20
6.474256
 30
0.0
 10
5.610460
 20
6.397119
 30
0.0
 10
5.567977
 20
6.334131
 30
0.0
 10
5.504977
 20
6.291665
 30
0.0
 10
5.427835
 20
6.276095
 30
0.0
 10
5.350693
 20
6.291665
 30
0.0
 10
5.287693
 20
6.334131
 30
0.0
 10
5.245210
 20
6.397119
 30
0.0
 10
5.229618
 20
6.474256
 30
0.0
 10
5.244706
 20
6.550111
 30
0.0
 10
5.287674
 20
6.614418
 30
0.0
 10
5.351980
 20
6.657386
 30
0.0
 10
5.427835
 20
6.672473
 30
0.0
 10
5.427835
 20
6.672473
 30
0.0
  0
LWPOLYLINE
  5
108
100
AcDbEntity
  8
Layer_1
 62
7
100
AcDbPolyline
 90
452
 70
0
 10
8.222772
 20
4.064123
 30
0.0
 10
8.164067
 20
4.045106
 30
0.0
 10
8.162800
 20
4.038602
 30
0.0
 10
8.161422
 20
4.030003
 30
0.0
 10
8.160374
 20
4.021514
 30
0.0
 10
8.159713
 20
4.013190
 30
0.0
 10
8.159493
 20
4.004977
 30
0.0
 10
8.159659
 20
3.996875
 30
0.0
 10
8.160210
 20
3.988992
 30
0.0
 10
8.162415
 20
3.981881
 30
0.0
 10
8.166990
 20
3.975984
 30
0.0
 10
8.171014
 20
3.969810
 30
0.0
 10
8.174597
 20
3.963361
 30
0.0
 10
8.177574
 20
3.956581
 30
0.0
 10
8.178786
 20
3.953108
 30
0.0
 10
8.179723
 20
3.949525
 30
0.0
 10
8.180385
 20
3.945722
 30
0.0
 10
8.180662
 20
3.941808
 30
0.0
 10
8.180605
 20
3.939658
 30
0.0
 10
8.180329
 20
3.937453
 30
0.0
 10
8.179777
 20
3.935139
 30
0.0
 10
8.178675
 20
3.932495
 30
0.0
 10
8.174541
 20
3.928195
 30
0.0
 10
8.142019
 20
3.907525
 30
0.0
 10
8.112254
 20
3.882941
 30
0.0
 10
8.106907
 20
3.880350
 30
0.0
 10
8.104040
 20
3.880124
 30
0.0
 10
8.101670
 20
3.880350
 30
0.0
 10
8.099465
 20
3.880736
 30
0.0
 10
8.097481
 20
3.881343
 30
0.0
 10
8.093788
 20
3.882831
 30
0.0
 10
8.090425
 20
3.884594
 30
0.0
 10
8.087228
 20
3.886635
 30
0.0
 10
8.084307
 20
3.888839
 30
0.0
 10
8.078795
 20
3.893745
 30
0.0
 10
8.073834
 20
3.899147
 30
0.0
 10
8.069204
 20
3.904934
 30
0.0
 10
8.064959
 20
3.911108
 30
0.0
 10
8.058841
 20
3.915352
 30
0.0
 10
8.051510
 20
3.918329
 30
0.0
 10
8.043903
 20
3.920973
 30
0.0
 10
8.036020
 20
3.923234
 30
0.0
 10
8.027863
 20
3.925218
 30
0.0
 10
8.019484
 20
3.926872
 30
0.0
 10
8.010885
 20
3.928195
 30
0.0
 10
8.004326
 20
3.929022
 30
0.0
 10
7.968056
 20
3.879082
 30
0.0
 10
7.970812
 20
3.873129
 30
0.0
 10
7.974725
 20
3.865302
 30
0.0
 10
7.978915
 20
3.857916
 30
0.0
 10
7.983324
 20
3.850750
 30
0.0
 10
7.987955
 20
3.843970
 30
0.0
 10
7.992805
 20
3.837521
 30
0.0
 10
7.997877
 20
3.831457
 30
0.0
 10
8.003830
 20
3.826993
 30
0.0
 10
8.010995
 20
3.824842
 30
0.0
 10
8.017941
 20
3.822251
 30
0.0
 10
8.024666
 20
3.819164
 30
0.0
 10
8.031005
 20
3.815471
 30
0.0
 10
8.034036
 20
3.813321
 30
0.0
 10
8.036903
 20
3.810950
 30
0.0
 10
8.039659
 20
3.808306
 30
0.0
 10
8.042194
 20
3.805274
 30
0.0
 10
8.043407
 20
3.803510
 30
0.0
 10
8.044454
 20
3.801580
 30
0.0
 10
8.045336
 20
3.799376
 30
0.0
 10
8.046053
 20
3.796621
 30
0.0
 10
8.045281
 20
3.790723
 30
0.0
 10
8.031060
 20
3.754839
 30
0.0
 10
8.021414
 20
3.717467
 30
0.0
 10
8.018657
 20
3.712230
 30
0.0
 10
8.016452
 20
3.710356
 30
0.0
 10
8.014413
 20
3.709089
 30
0.0
 10
8.012428
 20
3.708208
 30
0.0
 10
8.010444
 20
3.707438
 30
0.0
 10
8.006586
 20
3.706501
 30
0.0
 10
8.002782
 20
3.705951
 30
0.0
 10
7.999034
 20
3.705781
 30
0.0
 10
7.995341
 20
3.705838
 30
0.0
 10
7.988010
 20
3.706555
 30
0.0
 10
7.980789
 20
3.707932
 30
0.0
 10
7.973678
 20
3.709916
 30
0.0
 10
7.966623
 20
3.712450
 30
0.0
 10
7.959181
 20
3.712281
 30
0.0
 10
7.951519
 20
3.710407
 30
0.0
 10
7.943802
 20
3.708036
 30
0.0
 10
7.936030
 20
3.705279
 30
0.0
 10
7.928313
 20
3.702082
 30
0.0
 10
7.920541
 20
3.698499
 30
0.0
 10
7.912824
 20
3.694530
 30
0.0
 10
7.907036
 20
3.691278
 30
0.0
 10
7.907036
 20
3.629652
 30
0.0
 10
7.912824
 20
3.626345
 30
0.0
 10
7.920541
 20
3.622431
 30
0.0
 10
7.928313
 20
3.618848
 30
0.0
 10
7.936030
 20
3.615596
 30
0.0
 10
7.943802
 20
3.612839
 30
0.0
 10
7.951519
 20
3.610524
 30
0.0
 10
7.959181
 20
3.608650
 30
0.0
 10
7.966623
 20
3.608481
 30
0.0
 10
7.973678
 20
3.610962
 30
0.0
 10
7.980789
 20
3.612946
 30
0.0
 10
7.988010
 20
3.614380
 30
0.0
 10
7.995341
 20
3.615096
 30
0.0
 10
7.999034
 20
3.615096
 30
0.0
 10
8.002782
 20
3.614927
 30
0.0
 10
8.006586
 20
3.614377
 30
0.0
 10
8.010444
 20
3.613440
 30
0.0
 10
8.012428
 20
3.612723
 30
0.0
 10
8.014413
 20
3.611786
 30
0.0
 10
8.016452
 20
3.610572
 30
0.0
 10
8.018657
 20
3.608698
 30
0.0
 10
8.021414
 20
3.603407
 30
0.0
 10
8.031060
 20
3.566035
 30
0.0
 10
8.045281
 20
3.530205
 30
0.0
 10
8.046053
 20
3.524308
 30
0.0
 10
8.045336
 20
3.521497
 30
0.0
 10
8.044454
 20
3.519292
 30
0.0
 10
8.043407
 20
3.517362
 30
0.0
 10
8.042194
 20
3.515598
 30
0.0
 10
8.039659
 20
3.512566
 30
0.0
 10
8.036903
 20
3.509922
 30
0.0
 10
8.034036
 20
3.507608
 30
0.0
 10
8.031005
 20
3.505403
 30
0.0
 10
8.024666
 20
3.501765
 30
0.0
 10
8.017941
 20
3.498623
 30
0.0
 10
8.010995
 20
3.496033
 30
0.0
 10
8.003830
 20
3.493882
 30
0.0
 10
7.997877
 20
3.489417
 30
0.0
 10
7.992805
 20
3.483354
 30
0.0
 10
7.987955
 20
3.476960
 30
0.0
 10
7.983324
 20
3.470125
 30
0.0
 10
7.978915
 20
3.463014
 30
0.0
 10
7.974725
 20
3.455573
 30
0.0
 10
7.970812
 20
3.447800
 30
0.0
 10
7.968056
 20
3.441792
 30
0.0
 10
8.004326
 20
3.391852
 30
0.0
 10
8.010885
 20
3.392679
 30
0.0
 10
8.019484
 20
3.394003
 30
0.0
 10
8.027863
 20
3.395657
 30
0.0
 10
8.036020
 20
3.397641
 30
0.0
 10
8.043903
 20
3.399901
 30
0.0
 10
8.051510
 20
3.402546
 30
0.0
 10
8.058841
 20
3.405577
 30
0.0
 10
8.064959
 20
3.409822
 30
0.0
 10
8.069204
 20
3.415940
 30
0.0
 10
8.073834
 20
3.421783
 30
0.0
 10
8.078795
 20
3.427185
 30
0.0
 10
8.084307
 20
3.432091
 30
0.0
 10
8.087228
 20
3.434241
 30
0.0
 10
8.090425
 20
3.436282
 30
0.0
 10
8.093788
 20
3.438045
 30
0.0
 10
8.097481
 20
3.439533
 30
0.0
 10
8.099465
 20
3.440140
 30
0.0
 10
8.101670
 20
3.440580
 30
0.0
 10
8.104040
 20
3.440806
 30
0.0
 10
8.106907
 20
3.440523
 30
0.0
 10
8.112254
 20
3.437989
 30
0.0
 10
8.142019
 20
3.413350
 30
0.0
 10
8.174541
 20
3.392734
 30
0.0
 10
8.178675
 20
3.388435
 30
0.0
 10
8.179777
 20
3.385790
 30
0.0
 10
8.180329
 20
3.383420
 30
0.0
 10
8.180605
 20
3.381216
 30
0.0
 10
8.180662
 20
3.379121
 30
0.0
 10
8.180385
 20
3.375208
 30
0.0
 10
8.179723
 20
3.371404
 30
0.0
 10
8.178786
 20
3.367822
 30
0.0
 10
8.177574
 20
3.364294
 30
0.0
 10
8.174597
 20
3.357514
 30
0.0
 10
8.171014
 20
3.351120
 30
0.0
 10
8.166990
 20
3.344946
 30
0.0
 10
8.162415
 20
3.338993
 30
0.0
 10
8.160210
 20
3.331882
 30
0.0
 10
8.159659
 20
3.324000
 30
0.0
 10
8.159493
 20
3.315897
 30
0.0
 10
8.159713
 20
3.307684
 30
0.0
 10
8.160374
 20
3.299361
 30
0.0
 10
8.161422
 20
3.290872
 30
0.0
 10
8.162800
 20
3.282328
 30
0.0
 10
8.164067
 20
3.275824
 30
0.0
 10
8.222772
 20
3.256752
 30
0.0
 10
8.227623
 20
3.261272
 30
0.0
 10
8.233741
 20
3.267390
 30
0.0
 10
8.239584
 20
3.273619
 30
0.0
 10
8.245041
 20
3.280013
 30
0.0
 10
8.250002
 20
3.286517
 30
0.0
 10
8.254687
 20
3.293132
 30
0.0
 10
8.258821
 20
3.299856
 30
0.0
 10
8.261247
 20
3.306857
 30
0.0
 10
8.261080
 20
3.314354
 30
0.0
 10
8.261357
 20
3.321740
 30
0.0
 10
8.262239
 20
3.329071
 30
0.0
 10
8.263837
 20
3.336237
 30
0.0
 10
8.264940
 20
3.339820
 30
0.0
 10
8.266262
 20
3.343292
 30
0.0
 10
8.267971
 20
3.346710
 30
0.0
 10
8.270066
 20
3.350072
 30
0.0
 10
8.271389
 20
3.351726
 30
0.0
 10
8.272877
 20
3.353323
 30
0.0
 10
8.274696
 20
3.354921
 30
0.0
 10
8.277121
 20
3.356408
 30
0.0
 10
8.282964
 20
3.357455
 30
0.0
 10
8.321494
 20
3.355031
 30
0.0
 10
8.359969
 20
3.357455
 30
0.0
 10
8.365867
 20
3.356408
 30
0.0
 10
8.368292
 20
3.354921
 30
0.0
 10
8.370111
 20
3.353323
 30
0.0
 10
8.371599
 20
3.351726
 30
0.0
 10
8.372922
 20
3.350072
 30
0.0
 10
8.375017
 20
3.346710
 30
0.0
 10
8.376670
 20
3.343292
 30
0.0
 10
8.378048
 20
3.339820
 30
0.0
 10
8.379151
 20
3.336237
 30
0.0
 10
8.380694
 20
3.329071
 30
0.0
 10
8.381576
 20
3.321740
 30
0.0
 10
8.381907
 20
3.314354
 30
0.0
 10
8.381740
 20
3.306857
 30
0.0
 10
8.384166
 20
3.299856
 30
0.0
 10
8.388300
 20
3.293132
 30
0.0
 10
8.392930
 20
3.286517
 30
0.0
 10
8.398001
 20
3.280013
 30
0.0
 10
8.403403
 20
3.273619
 30
0.0
 10
8.409246
 20
3.267390
 30
0.0
 10
8.415365
 20
3.261272
 30
0.0
 10
8.420215
 20
3.256752
 30
0.0
 10
8.478865
 20
3.275824
 30
0.0
 10
8.480132
 20
3.282328
 30
0.0
 10
8.481566
 20
3.290872
 30
0.0
 10
8.482558
 20
3.299361
 30
0.0
 10
8.483219
 20
3.307684
 30
0.0
 10
8.483439
 20
3.315897
 30
0.0
 10
8.483329
 20
3.324000
 30
0.0
 10
8.482778
 20
3.331882
 30
0.0
 10
8.480573
 20
3.338993
 30
0.0
 10
8.476053
 20
3.344946
 30
0.0
 10
8.471919
 20
3.351120
 30
0.0
 10
8.468336
 20
3.357514
 30
0.0
 10
8.465415
 20
3.364294
 30
0.0
 10
8.464257
 20
3.367822
 30
0.0
 10
8.463265
 20
3.371404
 30
0.0
 10
8.462603
 20
3.375208
 30
0.0
 10
8.462327
 20
3.379121
 30
0.0
 10
8.462383
 20
3.381216
 30
0.0
 10
8.462660
 20
3.383420
 30
0.0
 10
8.463211
 20
3.385790
 30
0.0
 10
8.464313
 20
3.388435
 30
0.0
 10
8.468447
 20
3.392734
 30
0.0
 10
8.501024
 20
3.413350
 30
0.0
 10
8.530735
 20
3.437989
 30
0.0
 10
8.536082
 20
3.440523
 30
0.0
 10
8.538893
 20
3.440806
 30
0.0
 10
8.541318
 20
3.440580
 30
0.0
 10
8.543523
 20
3.440140
 30
0.0
 10
8.545507
 20
3.439533
 30
0.0
 10
8.549201
 20
3.438045
 30
0.0
 10
8.552618
 20
3.436282
 30
0.0
 10
8.555705
 20
3.434241
 30
0.0
 10
8.558682
 20
3.432091
 30
0.0
 10
8.564194
 20
3.427185
 30
0.0
 10
8.569210
 20
3.421783
 30
0.0
 10
8.573785
 20
3.415940
 30
0.0
 10
8.578084
 20
3.409822
 30
0.0
 10
8.584148
 20
3.405577
 30
0.0
 10
8.591479
 20
3.402546
 30
0.0
 10
8.599086
 20
3.399901
 30
0.0
 10
8.607023
 20
3.397641
 30
0.0
 10
8.615126
 20
3.395657
 30
0.0
 10
8.623504
 20
3.394003
 30
0.0
 10
8.632103
 20
3.392679
 30
0.0
 10
8.638663
 20
3.391852
 30
0.0
 10
8.674878
 20
3.441792
 30
0.0
 10
8.672121
 20
3.447800
 30
0.0
 10
8.668208
 20
3.455573
 30
0.0
 10
8.664019
 20
3.463014
 30
0.0
 10
8.659664
 20
3.470125
 30
0.0
 10
8.655089
 20
3.476960
 30
0.0
 10
8.650183
 20
3.483354
 30
0.0
 10
8.645057
 20
3.489417
 30
0.0
 10
8.639159
 20
3.493882
 30
0.0
 10
8.631993
 20
3.496033
 30
0.0
 10
8.625048
 20
3.498623
 30
0.0
 10
8.618378
 20
3.501765
 30
0.0
 10
8.611984
 20
3.505403
 30
0.0
 10
8.609007
 20
3.507608
 30
0.0
 10
8.606086
 20
3.509922
 30
0.0
 10
8.603330
 20
3.512566
 30
0.0
 10
8.600739
 20
3.515598
 30
0.0
 10
8.599637
 20
3.517362
 30
0.0
 10
8.598534
 20
3.519292
 30
0.0
 10
8.597597
 20
3.521497
 30
0.0
 10
8.596936
 20
3.524308
 30
0.0
 10
8.597763
 20
3.530205
 30
0.0
 10
8.611984
 20
3.566035
 30
0.0
 10
8.621520
 20
3.603407
 30
0.0
 10
8.624331
 20
3.608698
 30
0.0
 10
8.626536
 20
3.610572
 30
0.0
 10
8.628631
 20
3.611786
 30
0.0
 10
8.630615
 20
3.612723
 30
0.0
 10
8.632599
 20
3.613440
 30
0.0
 10
8.636403
 20
3.614377
 30
0.0
 10
8.640206
 20
3.614927
 30
0.0
 10
8.643899
 20
3.615096
 30
0.0
 10
8.647648
 20
3.615096
 30
0.0
 10
8.654979
 20
3.614380
 30
0.0
 10
8.662145
 20
3.612946
 30
0.0
 10
8.669310
 20
3.610962
 30
0.0
 10
8.676366
 20
3.608481
 30
0.0
 10
8.683807
 20
3.608650
 30
0.0
 10
8.691469
 20
3.610524
 30
0.0
 10
8.699241
 20
3.612839
 30
0.0
 10
8.706958
 20
3.615596
 30
0.0
 10
8.714675
 20
3.618848
 30
0.0
 10
8.722392
 20
3.622431
 30
0.0
 10
8.730165
 20
3.626345
 30
0.0
 10
8.735952
 20
3.629652
 30
0.0
 10
8.735952
 20
3.691278
 30
0.0
 10
8.730165
 20
3.694530
 30
0.0
 10
8.722392
 20
3.698499
 30
0.0
 10
8.714675
 20
3.702082
 30
0.0
 10
8.706958
 20
3.705279
 30
0.0
 10
8.699241
 20
3.708036
 30
0.0
 10
8.691469
 20
3.710407
 30
0.0
 10
8.683807
 20
3.712281
 30
0.0
 10
8.676366
 20
3.712450
 30
0.0
 10
8.669310
 20
3.709916
 30
0.0
 10
8.662145
 20
3.707932
 30
0.0
 10
8.654979
 20
3.706555
 30
0.0
 10
8.647648
 20
3.705838
 30
0.0
 10
8.643899
 20
3.705781
 30
0.0
 10
8.640206
 20
3.705951
 30
0.0
 10
8.636403
 20
3.706501
 30
0.0
 10
8.632599
 20
3.707438
 30
0.0
 10
8.630615
 20
3.708208
 30
0.0
 10
8.628631
 20
3.709089
 30
0.0
 10
8.626536
 20
3.710356
 30
0.0
 10
8.624331
 20
3.712230
 30
0.0
 10
8.621520
 20
3.717467
 30
0.0
 10
8.611984
 20
3.754839
 30
0.0
 10
8.597763
 20
3.790723
 30
0.0
 10
8.596936
 20
3.796621
 30
0.0
 10
8.597597
 20
3.799376
 30
0.0
 10
8.598534
 20
3.801580
 30
0.0
 10
8.599637
 20
3.803510
 30
0.0
 10
8.600739
 20
3.805274
 30
0.0
 10
8.603330
 20
3.808306
 30
0.0
 10
8.606086
 20
3.810950
 30
0.0
 10
8.609007
 20
3.813321
 30
0.0
 10
8.611984
 20
3.815471
 30
0.0
 10
8.618378
 20
3.819164
 30
0.0
 10
8.625048
 20
3.822251
 30
0.0
 10
8.631993
 20
3.824842
 30
0.0
 10
8.639159
 20
3.826993
 30
0.0
 10
8.645057
 20
3.831457
 30
0.0
 10
8.650183
 20
3.837521
 30
0.0
 10
8.655089
 20
3.843970
 30
0.0
 10
8.659664
 20
3.850750
 30
0.0
 10
8.664019
 20
3.857916
 30
0.0
 10
8.668208
 20
3.865302
 30
0.0
 10
8.672121
 20
3.873129
 30
0.0
 10
8.674878
 20
3.879082
 30
0.0
 10
8.638663
 20
3.929022
 30
0.0
 10
8.632103
 20
3.928195
 30
0.0
 10
8.623504
 20
3.926872
 30
0.0
 10
8.615126
 20
3.925218
 30
0.0
 10
8.607023
 20
3.923234
 30
0.0
 10
8.599086
 20
3.920973
 30
0.0
 10
8.591479
 20
3.918329
 30
0.0
 10
8.584148
 20
3.915352
 30
0.0
 10
8.578084
 20
3.911108
 30
0.0
 10
8.573785
 20
3.904934
 30
0.0
 10
8.569210
 20
3.899147
 30
0.0
 10
8.564194
 20
3.893745
 30
0.0
 10
8.558682
 20
3.888839
 30
0.0
 10
8.555705
 20
3.886635
 30
0.0
 10
8.552618
 20
3.884594
 30
0.0
 10
8.549201
 20
3.882831
 30
0.0
 10
8.545507
 20
3.881343
 30
0.0
 10
8.543523
 20
3.880736
 30
0.0
 10
8.541318
 20
3.880350
 30
0.0
 10
8.538893
 20
3.880124
 30
0.0
 10
8.536082
 20
3.880350
 30
0.0
 10
8.530735
 20
3.882941
 30
0.0
 10
8.501024
 20
3.907525
 30
0.0
 10
8.468447
 20
3.928195
 30
0.0
 10
8.464313
 20
3.932495
 30
0.0
 10
8.463211
 20
3.935139
 30
0.0
 10
8.462660
 20
3.937453
 30
0.0
 10
8.462383
 20
3.939658
 30
0.0
 10
8.462327
 20
3.941808
 30
0.0
 10
8.462603
 20
3.945722
 30
0.0
 10
8.463265
 20
3.949525
 30
0.0
 10
8.464257
 20
3.953108
 30
0.0
 10
8.465415
 20
3.956581
 30
0.0
 10
8.468336
 20
3.963361
 30
0.0
 10
8.471919
 20
3.969810
 30
0.0
 10
8.476053
 20
3.975984
 30
0.0
 10
8.480573
 20
3.981881
 30
0.0
 10
8.482778
 20
3.988992
 30
0.0
 10
8.483329
 20
3.996875
 30
0.0
 10
8.483439
 20
4.004977
 30
0.0
 10
8.483219
 20
4.013190
 30
0.0
 10
8.482558
 20
4.021514
 30
0.0
 10
8.481566
 20
4.030003
 30
0.0
 10
8.480132
 20
4.038602
 30
0.0
 10
8.478865
 20
4.045106
 30
0.0
 10
8.420215
 20
4.064123
 30
0.0
 10
8.415365
 20
4.059603
 30
0.0
 10
8.409246
 20
4.053539
 30
0.0
 10
8.403403
 20
4.047311
 30
0.0
 10
8.398001
 20
4.040917
 30
0.0
 10
8.392930
 20
4.034412
 30
0.0
 10
8.388300
 20
4.027743
 30
0.0
 10
8.384166
 20
4.021073
 30
0.0
 10
8.381740
 20
4.014017
 30
0.0
 10
8.381907
 20
4.006576
 30
0.0
 10
8.381576
 20
3.999135
 30
0.0
 10
8.380694
 20
3.991859
 30
0.0
 10
8.379151
 20
3.984638
 30
0.0
 10
8.378048
 20
3.981110
 30
0.0
 10
8.376670
 20
3.977637
 30
0.0
 10
8.375017
 20
3.974220
 30
0.0
 10
8.372922
 20
3.970802
 30
0.0
 10
8.371599
 20
3.969205
 30
0.0
 10
8.370111
 20
3.967551
 30
0.0
 10
8.368292
 20
3.965953
 30
0.0
 10
8.365867
 20
3.964466
 30
0.0
 10
8.359969
 20
3.963419
 30
0.0
 10
8.321494
 20
3.965843
 30
0.0
 10
8.282964
 20
3.963419
 30
0.0
 10
8.277121
 20
3.964466
 30
0.0
 10
8.274696
 20
3.965953
 30
0.0
 10
8.272877
 20
3.967551
 30
0.0
 10
8.271389
 20
3.969205
 30
0.0
 10
8.270066
 20
3.970802
 30
0.0
 10
8.267971
 20
3.974220
 30
0.0
 10
8.266262
 20
3.977637
 30
0.0
 10
8.264940
 20
3.981110
 30
0.0
 10
8.263837
 20
3.984638
 30
0.0
 10
8.262239
 20
3.991859
 30
0.0
 10
8.261357
 20
3.999135
 30
0.0
 10
8.261080
 20
4.006576
 30
0.0
 10
8.261247
 20
4.014017
 30
0.0
 10
8.258821
 20
4.021073
 30
0.0
 10
8.254687
 20
4.027743
 30
0.0
 10
8.250002
 20
4.034412
 30
0.0
 10
8.245041
 20
4.040917
 30
0.0
 10
8.239584
 20
4.047311
 30
0.0
 10
8.233741
 20
4.053539
 30
0.0
 10
8.227623
 20
4.059603
 30
0.0
 10
8.222772
 20
4.064123
 30
0.0
 10
8.222772
 20
4.064123
 30
0.0
  0
LWPOLYLINE
  5
109
100
AcDbEntity
  8
Layer_1
 62
7
100
AcDbPolyline
 90
18
 70
0
 10
8.321495
 20
3.858685
 30
0.0
 10
8.397349
 20
3.843597
 30
0.0
 10
8.461656
 20
3.800629
 30
0.0
 10
8.504624
 20
3.736323
 30
0.0
 10
8.519712
 20
3.660468
 30
0.0
 10
8.504624
 20
3.584613
 30
0.0
 10
8.461656
 20
3.520307
 30
0.0
 10
8.397349
 20
3.477339
 30
0.0
 10
8.321495
 20
3.462251
 30
0.0
 10
8.245640
 20
3.477339
 30
0.0
 10
8.181333
 20
3.520307
 30
0.0
 10
8.138365
 20
3.584613
 30
0.0
 10
8.123278
 20
3.660468
 30
0.0
 10
8.138365
 20
3.736323
 30
0.0
 10
8.181333
 20
3.800629
 30
0.0
 10
8.245640
 20
3.843597
 30
0.0
 10
8.321495
 20
3.858685
 30
0.0
 10
8.321495
 20
3.858685
 30
0.0
  0
LWPOLYLINE
  5
10a
100
AcDbEntity
  8
Layer_1
 62
7
100
AcDbPolyline
 90
452
 70
0
 10
5.992059
 20
4.728943
 30
0.0
 10
5.933409
 20
4.709871
 30
0.0
 10
5.932142
 20
4.703367
 30
0.0
 10
5.930709
 20
4.694823
 30
0.0
 10
5.929715
 20
4.686334
 30
0.0
 10
5.929055
 20
4.678011
 30
0.0
 10
5.928829
 20
4.669798
 30
0.0
 10
5.928942
 20
4.661695
 30
0.0
 10
5.929492
 20
4.653812
 30
0.0
 10
5.931696
 20
4.646702
 30
0.0
 10
5.936216
 20
4.640749
 30
0.0
 10
5.940350
 20
4.634575
 30
0.0
 10
5.943933
 20
4.628126
 30
0.0
 10
5.946855
 20
4.621401
 30
0.0
 10
5.948012
 20
4.617873
 30
0.0
 10
5.949005
 20
4.614290
 30
0.0
 10
5.949666
 20
4.610487
 30
0.0
 10
5.949948
 20
4.606518
 30
0.0
 10
5.949892
 20
4.604478
 30
0.0
 10
5.949609
 20
4.602274
 30
0.0
 10
5.949059
 20
4.599903
 30
0.0
 10
5.948012
 20
4.597258
 30
0.0
 10
5.943823
 20
4.592959
 30
0.0
 10
5.911246
 20
4.572343
 30
0.0
 10
5.881535
 20
4.547704
 30
0.0
 10
5.876189
 20
4.545170
 30
0.0
 10
5.873378
 20
4.544888
 30
0.0
 10
5.870953
 20
4.545113
 30
0.0
 10
5.868749
 20
4.545554
 30
0.0
 10
5.866765
 20
4.546160
 30
0.0
 10
5.863072
 20
4.547648
 30
0.0
 10
5.859710
 20
4.549412
 30
0.0
 10
5.856568
 20
4.551452
 30
0.0
 10
5.853591
 20
4.553603
 30
0.0
 10
5.848079
 20
4.558509
 30
0.0
 10
5.843063
 20
4.563911
 30
0.0
 10
5.838488
 20
4.569698
 30
0.0
 10
5.834188
 20
4.575872
 30
0.0
 10
5.828125
 20
4.580116
 30
0.0
 10
5.820794
 20
4.583148
 30
0.0
 10
5.813187
 20
4.585792
 30
0.0
 10
5.805250
 20
4.588053
 30
0.0
 10
5.797147
 20
4.590037
 30
0.0
 10
5.788768
 20
4.591691
 30
0.0
 10
5.780224
 20
4.593014
 30
0.0
 10
5.773610
 20
4.593785
 30
0.0
 10
5.737395
 20
4.543900
 30
0.0
 10
5.740152
 20
4.537892
 30
0.0
 10
5.744066
 20
4.530119
 30
0.0
 10
5.748255
 20
4.522678
 30
0.0
 10
5.752609
 20
4.515568
 30
0.0
 10
5.757185
 20
4.508732
 30
0.0
 10
5.762090
 20
4.502338
 30
0.0
 10
5.767217
 20
4.496275
 30
0.0
 10
5.773115
 20
4.491755
 30
0.0
 10
5.780280
 20
4.489661
 30
0.0
 10
5.787226
 20
4.487070
 30
0.0
 10
5.793951
 20
4.483928
 30
0.0
 10
5.800290
 20
4.480290
 30
0.0
 10
5.803266
 20
4.478086
 30
0.0
 10
5.806243
 20
4.475772
 30
0.0
 10
5.808944
 20
4.473071
 30
0.0
 10
5.811534
 20
4.470094
 30
0.0
 10
5.812638
 20
4.468331
 30
0.0
 10
5.813741
 20
4.466400
 30
0.0
 10
5.814678
 20
4.464196
 30
0.0
 10
5.815339
 20
4.461385
 30
0.0
 10
5.814568
 20
4.455487
 30
0.0
 10
5.800347
 20
4.419603
 30
0.0
 10
5.790756
 20
4.382286
 30
0.0
 10
5.787945
 20
4.376994
 30
0.0
 10
5.785741
 20
4.375120
 30
0.0
 10
5.783647
 20
4.373907
 30
0.0
 10
5.781716
 20
4.372970
 30
0.0
 10
5.779732
 20
4.372253
 30
0.0
 10
5.775874
 20
4.371316
 30
0.0
 10
5.772070
 20
4.370766
 30
0.0
 10
5.768377
 20
4.370540
 30
0.0
 10
5.764629
 20
4.370596
 30
0.0
 10
5.757298
 20
4.371313
 30
0.0
 10
5.750132
 20
4.372747
 30
0.0
 10
5.742966
 20
4.374731
 30
0.0
 10
5.735911
 20
4.377211
 30
0.0
 10
5.728469
 20
4.377042
 30
0.0
 10
5.720807
 20
4.375168
 30
0.0
 10
5.713035
 20
4.372854
 30
0.0
 10
5.705318
 20
4.370043
 30
0.0
 10
5.697601
 20
4.366846
 30
0.0
 10
5.689884
 20
4.363263
 30
0.0
 10
5.682112
 20
4.359294
 30
0.0
 10
5.676324
 20
4.356042
 30
0.0
 10
5.676324
 20
4.294416
 30
0.0
 10
5.682112
 20
4.291164
 30
0.0
 10
5.689884
 20
4.287195
 30
0.0
 10
5.697601
 20
4.283612
 30
0.0
 10
5.705318
 20
4.280415
 30
0.0
 10
5.713035
 20
4.277658
 30
0.0
 10
5.720807
 20
4.275287
 30
0.0
 10
5.728469
 20
4.273357
 30
0.0
 10
5.735911
 20
4.273244
 30
0.0
 10
5.742966
 20
4.275779
 30
0.0
 10
5.750132
 20
4.277763
 30
0.0
 10
5.757298
 20
4.279140
 30
0.0
 10
5.764629
 20
4.279857
 30
0.0
 10
5.768377
 20
4.279913
 30
0.0
 10
5.772070
 20
4.279744
 30
0.0
 10
5.775874
 20
4.279193
 30
0.0
 10
5.779732
 20
4.278256
 30
0.0
 10
5.781716
 20
4.277486
 30
0.0
 10
5.783647
 20
4.276605
 30
0.0
 10
5.785741
 20
4.275338
 30
0.0
 10
5.787945
 20
4.273464
 30
0.0
 10
5.790756
 20
4.268228
 30
0.0
 10
5.800347
 20
4.230856
 30
0.0
 10
5.814568
 20
4.194971
 30
0.0
 10
5.815339
 20
4.189073
 30
0.0
 10
5.814678
 20
4.186316
 30
0.0
 10
5.813741
 20
4.184112
 30
0.0
 10
5.812638
 20
4.182128
 30
0.0
 10
5.811534
 20
4.180420
 30
0.0
 10
5.808944
 20
4.177389
 30
0.0
 10
5.806243
 20
4.174744
 30
0.0
 10
5.803266
 20
4.172320
 30
0.0
 10
5.800290
 20
4.170226
 30
0.0
 10
5.793951
 20
4.166478
 30
0.0
 10
5.787226
 20
4.163446
 30
0.0
 10
5.780280
 20
4.160855
 30
0.0
 10
5.773115
 20
4.158704
 30
0.0
 10
5.767217
 20
4.154184
 30
0.0
 10
5.762090
 20
4.148176
 30
0.0
 10
5.757185
 20
4.141727
 30
0.0
 10
5.752609
 20
4.134947
 30
0.0
 10
5.748255
 20
4.127781
 30
0.0
 10
5.744066
 20
4.120340
 30
0.0
 10
5.740152
 20
4.112567
 30
0.0
 10
5.737395
 20
4.106559
 30
0.0
 10
5.773610
 20
4.056674
 30
0.0
 10
5.780224
 20
4.057501
 30
0.0
 10
5.788768
 20
4.058825
 30
0.0
 10
5.797147
 20
4.060479
 30
0.0
 10
5.805250
 20
4.062409
 30
0.0
 10
5.813187
 20
4.064723
 30
0.0
 10
5.820794
 20
4.067314
 30
0.0
 10
5.828125
 20
4.070291
 30
0.0
 10
5.834188
 20
4.074590
 30
0.0
 10
5.838488
 20
4.080764
 30
0.0
 10
5.843063
 20
4.086551
 30
0.0
 10
5.848079
 20
4.091953
 30
0.0
 10
5.853591
 20
4.096804
 30
0.0
 10
5.856568
 20
4.099065
 30
0.0
 10
5.859710
 20
4.101105
 30
0.0
 10
5.863072
 20
4.102869
 30
0.0
 10
5.866765
 20
4.104357
 30
0.0
 10
5.868749
 20
4.104963
 30
0.0
 10
5.870953
 20
4.105350
 30
0.0
 10
5.873378
 20
4.105576
 30
0.0
 10
5.876189
 20
4.105350
 30
0.0
 10
5.881535
 20
4.102759
 30
0.0
 10
5.911246
 20
4.078120
 30
0.0
 10
5.943823
 20
4.057505
 30
0.0
 10
5.948012
 20
4.053150
 30
0.0
 10
5.949059
 20
4.050559
 30
0.0
 10
5.949609
 20
4.048188
 30
0.0
 10
5.949892
 20
4.046038
 30
0.0
 10
5.949948
 20
4.043887
 30
0.0
 10
5.949666
 20
4.039918
 30
0.0
 10
5.949005
 20
4.036170
 30
0.0
 10
5.948012
 20
4.032532
 30
0.0
 10
5.946855
 20
4.029059
 30
0.0
 10
5.943933
 20
4.022335
 30
0.0
 10
5.940350
 20
4.015885
 30
0.0
 10
5.936216
 20
4.009712
 30
0.0
 10
5.931696
 20
4.003814
 30
0.0
 10
5.929492
 20
3.996703
 30
0.0
 10
5.928942
 20
3.988821
 30
0.0
 10
5.928829
 20
3.980718
 30
0.0
 10
5.929055
 20
3.972505
 30
0.0
 10
5.929715
 20
3.964182
 30
0.0
 10
5.930709
 20
3.955693
 30
0.0
 10
5.932142
 20
3.947094
 30
0.0
 10
5.933409
 20
3.940589
 30
0.0
 10
5.992059
 20
3.921572
 30
0.0
 10
5.996909
 20
3.926037
 30
0.0
 10
6.003028
 20
3.932156
 30
0.0
 10
6.008871
 20
3.938384
 30
0.0
 10
6.014273
 20
3.944779
 30
0.0
 10
6.019344
 20
3.951283
 30
0.0
 10
6.023974
 20
3.957953
 30
0.0
 10
6.028108
 20
3.964622
 30
0.0
 10
6.030533
 20
3.971678
 30
0.0
 10
6.030363
 20
3.979119
 30
0.0
 10
6.030693
 20
3.986561
 30
0.0
 10
6.031574
 20
3.993837
 30
0.0
 10
6.033118
 20
4.001058
 30
0.0
 10
6.034221
 20
4.004530
 30
0.0
 10
6.035598
 20
4.008058
 30
0.0
 10
6.037306
 20
4.011476
 30
0.0
 10
6.039346
 20
4.014838
 30
0.0
 10
6.040670
 20
4.016492
 30
0.0
 10
6.042157
 20
4.018146
 30
0.0
 10
6.043975
 20
4.019743
 30
0.0
 10
6.046399
 20
4.021230
 30
0.0
 10
6.052297
 20
4.022224
 30
0.0
 10
6.090772
 20
4.019800
 30
0.0
 10
6.129302
 20
4.022224
 30
0.0
 10
6.135145
 20
4.021230
 30
0.0
 10
6.137569
 20
4.019743
 30
0.0
 10
6.139387
 20
4.018146
 30
0.0
 10
6.140874
 20
4.016492
 30
0.0
 10
6.142197
 20
4.014838
 30
0.0
 10
6.144292
 20
4.011476
 30
0.0
 10
6.145999
 20
4.008058
 30
0.0
 10
6.147323
 20
4.004530
 30
0.0
 10
6.148426
 20
4.001058
 30
0.0
 10
6.150023
 20
3.993837
 30
0.0
 10
6.150904
 20
3.986561
 30
0.0
 10
6.151186
 20
3.979119
 30
0.0
 10
6.151017
 20
3.971678
 30
0.0
 10
6.153441
 20
3.964622
 30
0.0
 10
6.157575
 20
3.957953
 30
0.0
 10
6.162261
 20
3.951283
 30
0.0
 10
6.167277
 20
3.944779
 30
0.0
 10
6.172679
 20
3.938384
 30
0.0
 10
6.178521
 20
3.932156
 30
0.0
 10
6.184640
 20
3.926037
 30
0.0
 10
6.189491
 20
3.921572
 30
0.0
 10
6.248195
 20
3.940589
 30
0.0
 10
6.249462
 20
3.947094
 30
0.0
 10
6.250839
 20
3.955693
 30
0.0
 10
6.251887
 20
3.964182
 30
0.0
 10
6.252547
 20
3.972505
 30
0.0
 10
6.252773
 20
3.980718
 30
0.0
 10
6.252660
 20
3.988821
 30
0.0
 10
6.252053
 20
3.996703
 30
0.0
 10
6.249849
 20
4.003814
 30
0.0
 10
6.245274
 20
4.009712
 30
0.0
 10
6.241250
 20
4.015885
 30
0.0
 10
6.237667
 20
4.022335
 30
0.0
 10
6.234690
 20
4.029059
 30
0.0
 10
6.233533
 20
4.032532
 30
0.0
 10
6.232540
 20
4.036170
 30
0.0
 10
6.231879
 20
4.039918
 30
0.0
 10
6.231597
 20
4.043887
 30
0.0
 10
6.231654
 20
4.046038
 30
0.0
 10
6.231936
 20
4.048188
 30
0.0
 10
6.232543
 20
4.050559
 30
0.0
 10
6.233590
 20
4.053150
 30
0.0
 10
6.237724
 20
4.057505
 30
0.0
 10
6.270301
 20
4.078120
 30
0.0
 10
6.300011
 20
4.102759
 30
0.0
 10
6.305358
 20
4.105350
 30
0.0
 10
6.308224
 20
4.105576
 30
0.0
 10
6.310595
 20
4.105350
 30
0.0
 10
6.312799
 20
4.104963
 30
0.0
 10
6.314783
 20
4.104357
 30
0.0
 10
6.318476
 20
4.102869
 30
0.0
 10
6.321839
 20
4.101105
 30
0.0
 10
6.325036
 20
4.099065
 30
0.0
 10
6.327957
 20
4.096804
 30
0.0
 10
6.333469
 20
4.091953
 30
0.0
 10
6.338485
 20
4.086551
 30
0.0
 10
6.343060
 20
4.080764
 30
0.0
 10
6.347360
 20
4.074590
 30
0.0
 10
6.353423
 20
4.070291
 30
0.0
 10
6.360754
 20
4.067314
 30
0.0
 10
6.368416
 20
4.064723
 30
0.0
 10
6.376299
 20
4.062409
 30
0.0
 10
6.384401
 20
4.060479
 30
0.0
 10
6.392780
 20
4.058825
 30
0.0
 10
6.401379
 20
4.057501
 30
0.0
 10
6.407938
 20
4.056674
 30
0.0
 10
6.444208
 20
4.106559
 30
0.0
 10
6.441451
 20
4.112567
 30
0.0
 10
6.437537
 20
4.120340
 30
0.0
 10
6.433348
 20
4.127781
 30
0.0
 10
6.428938
 20
4.134947
 30
0.0
 10
6.424363
 20
4.141727
 30
0.0
 10
6.419457
 20
4.148176
 30
0.0
 10
6.414386
 20
4.154184
 30
0.0
 10
6.408433
 20
4.158704
 30
0.0
 10
6.401267
 20
4.160855
 30
0.0
 10
6.394322
 20
4.163446
 30
0.0
 10
6.387597
 20
4.166478
 30
0.0
 10
6.381258
 20
4.170226
 30
0.0
 10
6.378226
 20
4.172320
 30
0.0
 10
6.375360
 20
4.174744
 30
0.0
 10
6.372603
 20
4.177389
 30
0.0
 10
6.370068
 20
4.180420
 30
0.0
 10
6.368911
 20
4.182128
 30
0.0
 10
6.367808
 20
4.184112
 30
0.0
 10
6.366927
 20
4.186316
 30
0.0
 10
6.366210
 20
4.189073
 30
0.0
 10
6.366981
 20
4.194971
 30
0.0
 10
6.381202
 20
4.230856
 30
0.0
 10
6.390849
 20
4.268228
 30
0.0
 10
6.393606
 20
4.273464
 30
0.0
 10
6.395810
 20
4.275338
 30
0.0
 10
6.397851
 20
4.276605
 30
0.0
 10
6.399835
 20
4.277486
 30
0.0
 10
6.401819
 20
4.278256
 30
0.0
 10
6.405732
 20
4.279193
 30
0.0
 10
6.409481
 20
4.279744
 30
0.0
 10
6.413229
 20
4.279913
 30
0.0
 10
6.416922
 20
4.279857
 30
0.0
 10
6.424253
 20
4.279140
 30
0.0
 10
6.431474
 20
4.277763
 30
0.0
 10
6.438585
 20
4.275779
 30
0.0
 10
6.445640
 20
4.273244
 30
0.0
 10
6.453082
 20
4.273357
 30
0.0
 10
6.460744
 20
4.275287
 30
0.0
 10
6.468516
 20
4.277658
 30
0.0
 10
6.476233
 20
4.280415
 30
0.0
 10
6.483950
 20
4.283612
 30
0.0
 10
6.491722
 20
4.287195
 30
0.0
 10
6.499439
 20
4.291164
 30
0.0
 10
6.505227
 20
4.294416
 30
0.0
 10
6.505227
 20
4.356042
 30
0.0
 10
6.499439
 20
4.359294
 30
0.0
 10
6.491722
 20
4.363263
 30
0.0
 10
6.483950
 20
4.366846
 30
0.0
 10
6.476233
 20
4.370043
 30
0.0
 10
6.468516
 20
4.372854
 30
0.0
 10
6.460744
 20
4.375168
 30
0.0
 10
6.453082
 20
4.377042
 30
0.0
 10
6.445640
 20
4.377211
 30
0.0
 10
6.438585
 20
4.374731
 30
0.0
 10
6.431474
 20
4.372747
 30
0.0
 10
6.424253
 20
4.371313
 30
0.0
 10
6.416922
 20
4.370596
 30
0.0
 10
6.413229
 20
4.370540
 30
0.0
 10
6.409481
 20
4.370766
 30
0.0
 10
6.405732
 20
4.371316
 30
0.0
 10
6.401819
 20
4.372253
 30
0.0
 10
6.399835
 20
4.372970
 30
0.0
 10
6.397851
 20
4.373907
 30
0.0
 10
6.395810
 20
4.375120
 30
0.0
 10
6.393606
 20
4.376994
 30
0.0
 10
6.390849
 20
4.382286
 30
0.0
 10
6.381202
 20
4.419603
 30
0.0
 10
6.366981
 20
4.455487
 30
0.0
 10
6.366210
 20
4.461385
 30
0.0
 10
6.366927
 20
4.464196
 30
0.0
 10
6.367808
 20
4.466400
 30
0.0
 10
6.368911
 20
4.468331
 30
0.0
 10
6.370068
 20
4.470094
 30
0.0
 10
6.372603
 20
4.473071
 30
0.0
 10
6.375360
 20
4.475772
 30
0.0
 10
6.378226
 20
4.478086
 30
0.0
 10
6.381258
 20
4.480290
 30
0.0
 10
6.387597
 20
4.483928
 30
0.0
 10
6.394322
 20
4.487070
 30
0.0
 10
6.401267
 20
4.489661
 30
0.0
 10
6.408433
 20
4.491755
 30
0.0
 10
6.414386
 20
4.496275
 30
0.0
 10
6.419457
 20
4.502338
 30
0.0
 10
6.424363
 20
4.508732
 30
0.0
 10
6.428938
 20
4.515568
 30
0.0
 10
6.433348
 20
4.522678
 30
0.0
 10
6.437537
 20
4.530119
 30
0.0
 10
6.441451
 20
4.537892
 30
0.0
 10
6.444208
 20
4.543900
 30
0.0
 10
6.407938
 20
4.593785
 30
0.0
 10
6.401379
 20
4.593014
 30
0.0
 10
6.392780
 20
4.591691
 30
0.0
 10
6.384401
 20
4.590037
 30
0.0
 10
6.376299
 20
4.588053
 30
0.0
 10
6.368416
 20
4.585792
 30
0.0
 10
6.360754
 20
4.583148
 30
0.0
 10
6.353423
 20
4.580116
 30
0.0
 10
6.347360
 20
4.575872
 30
0.0
 10
6.343060
 20
4.569698
 30
0.0
 10
6.338485
 20
4.563911
 30
0.0
 10
6.333469
 20
4.558509
 30
0.0
 10
6.327957
 20
4.553603
 30
0.0
 10
6.325036
 20
4.551452
 30
0.0
 10
6.321839
 20
4.549412
 30
0.0
 10
6.318476
 20
4.547648
 30
0.0
 10
6.314783
 20
4.546160
 30
0.0
 10
6.312799
 20
4.545554
 30
0.0
 10
6.310595
 20
4.545113
 30
0.0
 10
6.308224
 20
4.544888
 30
0.0
 10
6.305358
 20
4.545170
 30
0.0
 10
6.300011
 20
4.547704
 30
0.0
 10
6.270301
 20
4.572343
 30
0.0
 10
6.237724
 20
4.592959
 30
0.0
 10
6.233590
 20
4.597258
 30
0.0
 10
6.232543
 20
4.599903
 30
0.0
 10
6.231936
 20
4.602274
 30
0.0
 10
6.231654
 20
4.604478
 30
0.0
 10
6.231597
 20
4.606518
 30
0.0
 10
6.231879
 20
4.610487
 30
0.0
 10
6.232540
 20
4.614290
 30
0.0
 10
6.233533
 20
4.617873
 30
0.0
 10
6.234690
 20
4.621401
 30
0.0
 10
6.237667
 20
4.628126
 30
0.0
 10
6.241250
 20
4.634575
 30
0.0
 10
6.245274
 20
4.640749
 30
0.0
 10
6.249849
 20
4.646702
 30
0.0
 10
6.252053
 20
4.653812
 30
0.0
 10
6.252660
 20
4.661695
 30
0.0
 10
6.252773
 20
4.669798
 30
0.0
 10
6.252547
 20
4.678011
 30
0.0
 10
6.251887
 20
4.686334
 30
0.0
 10
6.250839
 20
4.694823
 30
0.0
 10
6.249462
 20
4.703367
 30
0.0
 10
6.248195
 20
4.709871
 30
0.0
 10
6.189491
 20
4.728943
 30
0.0
 10
6.184640
 20
4.724423
 30
0.0
 10
6.178521
 20
4.718305
 30
0.0
 10
6.172679
 20
4.712021
 30
0.0
 10
6.167277
 20
4.705682
 30
0.0
 10
6.162261
 20
4.699178
 30
0.0
 10
6.157575
 20
4.692563
 30
0.0
 10
6.153441
 20
4.685838
 30
0.0
 10
6.151017
 20
4.678838
 30
0.0
 10
6.151186
 20
4.671286
 30
0.0
 10
6.150904
 20
4.663900
 30
0.0
 10
6.150023
 20
4.656624
 30
0.0
 10
6.148426
 20
4.649458
 30
0.0
 10
6.147323
 20
4.645875
 30
0.0
 10
6.145999
 20
4.642402
 30
0.0
 10
6.144292
 20
4.638985
 30
0.0
 10
6.142197
 20
4.635622
 30
0.0
 10
6.140874
 20
4.633969
 30
0.0
 10
6.139387
 20
4.632371
 30
0.0
 10
6.137569
 20
4.630774
 30
0.0
 10
6.135145
 20
4.629286
 30
0.0
 10
6.129302
 20
4.628239
 30
0.0
 10
6.090772
 20
4.630664
 30
0.0
 10
6.052297
 20
4.628239
 30
0.0
 10
6.046399
 20
4.629286
 30
0.0
 10
6.043975
 20
4.630774
 30
0.0
 10
6.042157
 20
4.632371
 30
0.0
 10
6.040670
 20
4.633969
 30
0.0
 10
6.039346
 20
4.635622
 30
0.0
 10
6.037306
 20
4.638985
 30
0.0
 10
6.035598
 20
4.642402
 30
0.0
 10
6.034221
 20
4.645875
 30
0.0
 10
6.033118
 20
4.649458
 30
0.0
 10
6.031574
 20
4.656624
 30
0.0
 10
6.030693
 20
4.663900
 30
0.0
 10
6.030363
 20
4.671286
 30
0.0
 10
6.030533
 20
4.678838
 30
0.0
 10
6.028108
 20
4.685838
 30
0.0
 10
6.023974
 20
4.692563
 30
0.0
 10
6.019344
 20
4.699178
 30
0.0
 10
6.014273
 20
4.705682
 30
0.0
 10
6.008871
 20
4.712021
 30
0.0
 10
6.003028
 20
4.718305
 30
0.0
 10
5.996909
 20
4.724423
 30
0.0
 10
5.992059
 20
4.728943
 30
0.0
 10
5.992059
 20
4.728943
 30
0.0
  0
LWPOLYLINE
  5
10b
100
AcDbEntity
  8
Layer_1
 62
7
100
AcDbPolyline
 90
18
 70
0
 10
6.090782
 20
4.523450
 30
0.0
 10
6.166636
 20
4.508362
 30
0.0
 10
6.230943
 20
4.465394
 30
0.0
 10
6.273911
 20
4.401088
 30
0.0
 10
6.288998
 20
4.325233
 30
0.0
 10
6.273911
 20
4.249379
 30
0.0
 10
6.230943
 20
4.185072
 30
0.0
 10
6.166636
 20
4.142104
 30
0.0
 10
6.090782
 20
4.127016
 30
0.0
 10
6.014927
 20
4.142104
 30
0.0
 10
5.950620
 20
4.185072
 30
0.0
 10
5.907652
 20
4.249379
 30
0.0
 10
5.892565
 20
4.325233
 30
0.0
 10
5.907652
 20
4.401088
 30
0.0
 10
5.950621
 20
4.465394
 30
0.0
 10
6.014927
 20
4.508362
 30
0.0
 10
6.090782
 20
4.523450
 30
0.0
 10
6.090782
 20
4.523450
 30
0.0
  0
LWPOLYLINE
  5
10c
100
AcDbEntity
  8
Layer_1
 62
7
100
AcDbPolyline
 90
452
 70
0
 10
0.566413
 20
4.412816
 30
0.0
 10
0.507763
 20
4.393744
 30
0.0
 10
0.506496
 20
4.387240
 30
0.0
 10
0.505063
 20
4.378696
 30
0.0
 10
0.504069
 20
4.370208
 30
0.0
 10
0.503409
 20
4.361884
 30
0.0
 10
0.503183
 20
4.353671
 30
0.0
 10
0.503296
 20
4.345568
 30
0.0
 10
0.503846
 20
4.337686
 30
0.0
 10
0.506050
 20
4.330575
 30
0.0
 10
0.510570
 20
4.324622
 30
0.0
 10
0.514704
 20
4.318448
 30
0.0
 10
0.518287
 20
4.311999
 30
0.0
 10
0.521209
 20
4.305274
 30
0.0
 10
0.522366
 20
4.301747
 30
0.0
 10
0.523359
 20
4.298164
 30
0.0
 10
0.524020
 20
4.294360
 30
0.0
 10
0.524302
 20
4.290391
 30
0.0
 10
0.524245
 20
4.288351
 30
0.0
 10
0.523963
 20
4.286147
 30
0.0
 10
0.523413
 20
4.283776
 30
0.0
 10
0.522366
 20
4.281132
 30
0.0
 10
0.518177
 20
4.276832
 30
0.0
 10
0.485600
 20
4.256217
 30
0.0
 10
0.455889
 20
4.231577
 30
0.0
 10
0.450543
 20
4.229043
 30
0.0
 10
0.447732
 20
4.228761
 30
0.0
 10
0.445307
 20
4.228987
 30
0.0
 10
0.443103
 20
4.229427
 30
0.0
 10
0.441119
 20
4.230034
 30
0.0
 10
0.437426
 20
4.231521
 30
0.0
 10
0.434064
 20
4.233285
 30
0.0
 10
0.430922
 20
4.235325
 30
0.0
 10
0.427945
 20
4.237476
 30
0.0
 10
0.422433
 20
4.242382
 30
0.0
 10
0.417417
 20
4.247784
 30
0.0
 10
0.412842
 20
4.253572
 30
0.0
 10
0.408542
 20
4.259745
 30
0.0
 10
0.402479
 20
4.263990
 30
0.0
 10
0.395148
 20
4.267021
 30
0.0
 10
0.387541
 20
4.269666
 30
0.0
 10
0.379604
 20
4.271926
 30
0.0
 10
0.371501
 20
4.273910
 30
0.0
 10
0.363122
 20
4.275564
 30
0.0
 10
0.354578
 20
4.276888
 30
0.0
 10
0.347964
 20
4.277658
 30
0.0
 10
0.311749
 20
4.227773
 30
0.0
 10
0.314506
 20
4.221765
 30
0.0
 10
0.318420
 20
4.213993
 30
0.0
 10
0.322609
 20
4.206551
 30
0.0
 10
0.326963
 20
4.199441
 30
0.0
 10
0.331539
 20
4.192606
 30
0.0
 10
0.336444
 20
4.186212
 30
0.0
 10
0.341571
 20
4.180148
 30
0.0
 10
0.347469
 20
4.175628
 30
0.0
 10
0.354634
 20
4.173534
 30
0.0
 10
0.361580
 20
4.170943
 30
0.0
 10
0.368305
 20
4.167801
 30
0.0
 10
0.374644
 20
4.164164
 30
0.0
 10
0.377620
 20
4.161959
 30
0.0
 10
0.380597
 20
4.159645
 30
0.0
 10
0.383298
 20
4.156944
 30
0.0
 10
0.385888
 20
4.153968
 30
0.0
 10
0.386992
 20
4.152204
 30
0.0
 10
0.388095
 20
4.150273
 30
0.0
 10
0.389032
 20
4.148069
 30
0.0
 10
0.389693
 20
4.145258
 30
0.0
 10
0.388922
 20
4.139361
 30
0.0
 10
0.374701
 20
4.103477
 30
0.0
 10
0.365110
 20
4.066159
 30
0.0
 10
0.362299
 20
4.060867
 30
0.0
 10
0.360095
 20
4.058994
 30
0.0
 10
0.358001
 20
4.057780
 30
0.0
 10
0.356070
 20
4.056843
 30
0.0
 10
0.354086
 20
4.056126
 30
0.0
 10
0.350228
 20
4.055189
 30
0.0
 10
0.346424
 20
4.054639
 30
0.0
 10
0.342731
 20
4.054413
 30
0.0
 10
0.338983
 20
4.054469
 30
0.0
 10
0.331652
 20
4.055186
 30
0.0
 10
0.324486
 20
4.056620
 30
0.0
 10
0.317320
 20
4.058604
 30
0.0
 10
0.310265
 20
4.061085
 30
0.0
 10
0.302823
 20
4.060915
 30
0.0
 10
0.295161
 20
4.059041
 30
0.0
 10
0.287389
 20
4.056727
 30
0.0
 10
0.279672
 20
4.053916
 30
0.0
 10
0.271955
 20
4.050719
 30
0.0
 10
0.264238
 20
4.047136
 30
0.0
 10
0.256466
 20
4.043168
 30
0.0
 10
0.250678
 20
4.039915
 30
0.0
 10
0.250678
 20
3.978290
 30
0.0
 10
0.256466
 20
3.975037
 30
0.0
 10
0.264238
 20
3.971069
 30
0.0
 10
0.271955
 20
3.967486
 30
0.0
 10
0.279672
 20
3.964289
 30
0.0
 10
0.287389
 20
3.961531
 30
0.0
 10
0.295161
 20
3.959161
 30
0.0
 10
0.302823
 20
3.957230
 30
0.0
 10
0.310265
 20
3.957118
 30
0.0
 10
0.317320
 20
3.959652
 30
0.0
 10
0.324486
 20
3.961636
 30
0.0
 10
0.331652
 20
3.963013
 30
0.0
 10
0.338983
 20
3.963730
 30
0.0
 10
0.342731
 20
3.963786
 30
0.0
 10
0.346424
 20
3.963617
 30
0.0
 10
0.350228
 20
3.963067
 30
0.0
 10
0.354086
 20
3.962130
 30
0.0
 10
0.356070
 20
3.961359
 30
0.0
 10
0.358001
 20
3.960479
 30
0.0
 10
0.360095
 20
3.959212
 30
0.0
 10
0.362299
 20
3.957338
 30
0.0
 10
0.365110
 20
3.952101
 30
0.0
 10
0.374701
 20
3.914729
 30
0.0
 10
0.388922
 20
3.878845
 30
0.0
 10
0.389693
 20
3.872947
 30
0.0
 10
0.389032
 20
3.870189
 30
0.0
 10
0.388095
 20
3.867985
 30
0.0
 10
0.386992
 20
3.866001
 30
0.0
 10
0.385888
 20
3.864294
 30
0.0
 10
0.383298
 20
3.861262
 30
0.0
 10
0.380597
 20
3.858617
 30
0.0
 10
0.377620
 20
3.856193
 30
0.0
 10
0.374644
 20
3.854099
 30
0.0
 10
0.368305
 20
3.850351
 30
0.0
 10
0.361580
 20
3.847319
 30
0.0
 10
0.354634
 20
3.844728
 30
0.0
 10
0.347469
 20
3.842578
 30
0.0
 10
0.341571
 20
3.838058
 30
0.0
 10
0.336444
 20
3.832049
 30
0.0
 10
0.331539
 20
3.825600
 30
0.0
 10
0.326963
 20
3.818820
 30
0.0
 10
0.322609
 20
3.811654
 30
0.0
 10
0.318420
 20
3.804213
 30
0.0
 10
0.314506
 20
3.796441
 30
0.0
 10
0.311749
 20
3.790433
 30
0.0
 10
0.347964
 20
3.740548
 30
0.0
 10
0.354578
 20
3.741374
 30
0.0
 10
0.363122
 20
3.742698
 30
0.0
 10
0.371501
 20
3.744352
 30
0.0
 10
0.379604
 20
3.746282
 30
0.0
 10
0.387541
 20
3.748596
 30
0.0
 10
0.395148
 20
3.751187
 30
0.0
 10
0.402479
 20
3.754164
 30
0.0
 10
0.408542
 20
3.758464
 30
0.0
 10
0.412842
 20
3.764637
 30
0.0
 10
0.417417
 20
3.770425
 30
0.0
 10
0.422433
 20
3.775827
 30
0.0
 10
0.427945
 20
3.780678
 30
0.0
 10
0.430922
 20
3.782938
 30
0.0
 10
0.434064
 20
3.784979
 30
0.0
 10
0.437426
 20
3.786742
 30
0.0
 10
0.441119
 20
3.788230
 30
0.0
 10
0.443103
 20
3.788837
 30
0.0
 10
0.445307
 20
3.789223
 30
0.0
 10
0.447732
 20
3.789449
 30
0.0
 10
0.450543
 20
3.789223
 30
0.0
 10
0.455889
 20
3.786632
 30
0.0
 10
0.485600
 20
3.761993
 30
0.0
 10
0.518177
 20
3.741378
 30
0.0
 10
0.522366
 20
3.737023
 30
0.0
 10
0.523413
 20
3.734432
 30
0.0
 10
0.523963
 20
3.732062
 30
0.0
 10
0.524245
 20
3.729911
 30
0.0
 10
0.524302
 20
3.727761
 30
0.0
 10
0.524020
 20
3.723792
 30
0.0
 10
0.523359
 20
3.720043
 30
0.0
 10
0.522366
 20
3.716405
 30
0.0
 10
0.521209
 20
3.712933
 30
0.0
 10
0.518287
 20
3.706208
 30
0.0
 10
0.514704
 20
3.699759
 30
0.0
 10
0.510570
 20
3.693585
 30
0.0
 10
0.506050
 20
3.687687
 30
0.0
 10
0.503846
 20
3.680576
 30
0.0
 10
0.503296
 20
3.672694
 30
0.0
 10
0.503183
 20
3.664591
 30
0.0
 10
0.503409
 20
3.656378
 30
0.0
 10
0.504069
 20
3.648055
 30
0.0
 10
0.505063
 20
3.639566
 30
0.0
 10
0.506496
 20
3.630967
 30
0.0
 10
0.507763
 20
3.624463
 30
0.0
 10
0.566413
 20
3.605446
 30
0.0
 10
0.571263
 20
3.609911
 30
0.0
 10
0.577382
 20
3.616029
 30
0.0
 10
0.583225
 20
3.622258
 30
0.0
 10
0.588627
 20
3.628652
 30
0.0
 10
0.593698
 20
3.635156
 30
0.0
 10
0.598328
 20
3.641826
 30
0.0
 10
0.602462
 20
3.648496
 30
0.0
 10
0.604887
 20
3.655551
 30
0.0
 10
0.604717
 20
3.662993
 30
0.0
 10
0.605047
 20
3.670434
 30
0.0
 10
0.605928
 20
3.677710
 30
0.0
 10
0.607472
 20
3.684931
 30
0.0
 10
0.608575
 20
3.688404
 30
0.0
 10
0.609952
 20
3.691931
 30
0.0
 10
0.611660
 20
3.695349
 30
0.0
 10
0.613700
 20
3.698711
 30
0.0
 10
0.615024
 20
3.700365
 30
0.0
 10
0.616511
 20
3.702019
 30
0.0
 10
0.618329
 20
3.703616
 30
0.0
 10
0.620753
 20
3.705104
 30
0.0
 10
0.626651
 20
3.706097
 30
0.0
 10
0.665126
 20
3.703673
 30
0.0
 10
0.703656
 20
3.706097
 30
0.0
 10
0.709499
 20
3.705104
 30
0.0
 10
0.711923
 20
3.703616
 30
0.0
 10
0.713741
 20
3.702019
 30
0.0
 10
0.715228
 20
3.700365
 30
0.0
 10
0.716551
 20
3.698711
 30
0.0
 10
0.718646
 20
3.695349
 30
0.0
 10
0.720353
 20
3.691931
 30
0.0
 10
0.721677
 20
3.688404
 30
0.0
 10
0.722780
 20
3.684931
 30
0.0
 10
0.724377
 20
3.677710
 30
0.0
 10
0.725258
 20
3.670434
 30
0.0
 10
0.725540
 20
3.662993
 30
0.0
 10
0.725371
 20
3.655551
 30
0.0
 10
0.727795
 20
3.648496
 30
0.0
 10
0.731929
 20
3.641826
 30
0.0
 10
0.736615
 20
3.635156
 30
0.0
 10
0.741631
 20
3.628652
 30
0.0
 10
0.747033
 20
3.622258
 30
0.0
 10
0.752875
 20
3.616029
 30
0.0
 10
0.758994
 20
3.609911
 30
0.0
 10
0.763845
 20
3.605446
 30
0.0
 10
0.822549
 20
3.624463
 30
0.0
 10
0.823816
 20
3.630967
 30
0.0
 10
0.825193
 20
3.639566
 30
0.0
 10
0.826240
 20
3.648055
 30
0.0
 10
0.826901
 20
3.656378
 30
0.0
 10
0.827127
 20
3.664591
 30
0.0
 10
0.827014
 20
3.672694
 30
0.0
 10
0.826407
 20
3.680576
 30
0.0
 10
0.824203
 20
3.687687
 30
0.0
 10
0.819628
 20
3.693585
 30
0.0
 10
0.815604
 20
3.699759
 30
0.0
 10
0.812021
 20
3.706208
 30
0.0
 10
0.809044
 20
3.712933
 30
0.0
 10
0.807887
 20
3.716405
 30
0.0
 10
0.806894
 20
3.720043
 30
0.0
 10
0.806233
 20
3.723792
 30
0.0
 10
0.805951
 20
3.727761
 30
0.0
 10
0.806008
 20
3.729911
 30
0.0
 10
0.806290
 20
3.732062
 30
0.0
 10
0.806897
 20
3.734432
 30
0.0
 10
0.807944
 20
3.737023
 30
0.0
 10
0.812078
 20
3.741378
 30
0.0
 10
0.844655
 20
3.761993
 30
0.0
 10
0.874365
 20
3.786632
 30
0.0
 10
0.879712
 20
3.789223
 30
0.0
 10
0.882578
 20
3.789449
 30
0.0
 10
0.884949
 20
3.789223
 30
0.0
 10
0.887153
 20
3.788837
 30
0.0
 10
0.889137
 20
3.788230
 30
0.0
 10
0.892830
 20
3.786742
 30
0.0
 10
0.896193
 20
3.784979
 30
0.0
 10
0.899390
 20
3.782938
 30
0.0
 10
0.902311
 20
3.780678
 30
0.0
 10
0.907823
 20
3.775827
 30
0.0
 10
0.912839
 20
3.770425
 30
0.0
 10
0.917414
 20
3.764637
 30
0.0
 10
0.921714
 20
3.758464
 30
0.0
 10
0.927777
 20
3.754164
 30
0.0
 10
0.935108
 20
3.751187
 30
0.0
 10
0.942770
 20
3.748596
 30
0.0
 10
0.950653
 20
3.746282
 30
0.0
 10
0.958755
 20
3.744352
 30
0.0
 10
0.967134
 20
3.742698
 30
0.0
 10
0.975733
 20
3.741374
 30
0.0
 10
0.982292
 20
3.740548
 30
0.0
 10
1.018562
 20
3.790433
 30
0.0
 10
1.015805
 20
3.796441
 30
0.0
 10
1.011891
 20
3.804213
 30
0.0
 10
1.007702
 20
3.811654
 30
0.0
 10
1.003292
 20
3.818820
 30
0.0
 10
0.998717
 20
3.825600
 30
0.0
 10
0.993811
 20
3.832049
 30
0.0
 10
0.988740
 20
3.838058
 30
0.0
 10
0.982787
 20
3.842578
 30
0.0
 10
0.975621
 20
3.844728
 30
0.0
 10
0.968676
 20
3.847319
 30
0.0
 10
0.961951
 20
3.850351
 30
0.0
 10
0.955612
 20
3.854099
 30
0.0
 10
0.952580
 20
3.856193
 30
0.0
 10
0.949714
 20
3.858617
 30
0.0
 10
0.946957
 20
3.861262
 30
0.0
 10
0.944422
 20
3.864294
 30
0.0
 10
0.943265
 20
3.866001
 30
0.0
 10
0.942162
 20
3.867985
 30
0.0
 10
0.941281
 20
3.870189
 30
0.0
 10
0.940564
 20
3.872947
 30
0.0
 10
0.941335
 20
3.878845
 30
0.0
 10
0.955556
 20
3.914729
 30
0.0
 10
0.965203
 20
3.952101
 30
0.0
 10
0.967960
 20
3.957338
 30
0.0
 10
0.970164
 20
3.959212
 30
0.0
 10
0.972205
 20
3.960479
 30
0.0
 10
0.974189
 20
3.961359
 30
0.0
 10
0.976173
 20
3.962130
 30
0.0
 10
0.980086
 20
3.963067
 30
0.0
 10
0.983835
 20
3.963617
 30
0.0
 10
0.987583
 20
3.963786
 30
0.0
 10
0.991276
 20
3.963730
 30
0.0
 10
0.998607
 20
3.963013
 30
0.0
 10
1.005828
 20
3.961636
 30
0.0
 10
1.012939
 20
3.959652
 30
0.0
 10
1.019994
 20
3.957118
 30
0.0
 10
1.027436
 20
3.957230
 30
0.0
 10
1.035098
 20
3.959161
 30
0.0
 10
1.042870
 20
3.961531
 30
0.0
 10
1.050587
 20
3.964289
 30
0.0
 10
1.058304
 20
3.967486
 30
0.0
 10
1.066076
 20
3.971069
 30
0.0
 10
1.073793
 20
3.975037
 30
0.0
 10
1.079581
 20
3.978290
 30
0.0
 10
1.079581
 20
4.039915
 30
0.0
 10
1.073793
 20
4.043168
 30
0.0
 10
1.066076
 20
4.047136
 30
0.0
 10
1.058304
 20
4.050719
 30
0.0
 10
1.050587
 20
4.053916
 30
0.0
 10
1.042870
 20
4.056727
 30
0.0
 10
1.035098
 20
4.059041
 30
0.0
 10
1.027436
 20
4.060915
 30
0.0
 10
1.019994
 20
4.061085
 30
0.0
 10
1.012939
 20
4.058604
 30
0.0
 10
1.005828
 20
4.056620
 30
0.0
 10
0.998607
 20
4.055186
 30
0.0
 10
0.991276
 20
4.054469
 30
0.0
 10
0.987583
 20
4.054413
 30
0.0
 10
0.983835
 20
4.054639
 30
0.0
 10
0.980086
 20
4.055189
 30
0.0
 10
0.976173
 20
4.056126
 30
0.0
 10
0.974189
 20
4.056843
 30
0.0
 10
0.972205
 20
4.057780
 30
0.0
 10
0.970164
 20
4.058994
 30
0.0
 10
0.967960
 20
4.060867
 30
0.0
 10
0.965203
 20
4.066159
 30
0.0
 10
0.955556
 20
4.103477
 30
0.0
 10
0.941335
 20
4.139361
 30
0.0
 10
0.940564
 20
4.145258
 30
0.0
 10
0.941281
 20
4.148069
 30
0.0
 10
0.942162
 20
4.150273
 30
0.0
 10
0.943265
 20
4.152204
 30
0.0
 10
0.944422
 20
4.153968
 30
0.0
 10
0.946957
 20
4.156944
 30
0.0
 10
0.949714
 20
4.159645
 30
0.0
 10
0.952580
 20
4.161959
 30
0.0
 10
0.955612
 20
4.164164
 30
0.0
 10
0.961951
 20
4.167801
 30
0.0
 10
0.968676
 20
4.170943
 30
0.0
 10
0.975621
 20
4.173534
 30
0.0
 10
0.982787
 20
4.175628
 30
0.0
 10
0.988740
 20
4.180148
 30
0.0
 10
0.993811
 20
4.186212
 30
0.0
 10
0.998717
 20
4.192606
 30
0.0
 10
1.003292
 20
4.199441
 30
0.0
 10
1.007702
 20
4.206551
 30
0.0
 10
1.011891
 20
4.213993
 30
0.0
 10
1.015805
 20
4.221765
 30
0.0
 10
1.018562
 20
4.227773
 30
0.0
 10
0.982292
 20
4.277658
 30
0.0
 10
0.975733
 20
4.276888
 30
0.0
 10
0.967134
 20
4.275564
 30
0.0
 10
0.958755
 20
4.273910
 30
0.0
 10
0.950653
 20
4.271926
 30
0.0
 10
0.942770
 20
4.269666
 30
0.0
 10
0.935108
 20
4.267021
 30
0.0
 10
0.927777
 20
4.263990
 30
0.0
 10
0.921714
 20
4.259745
 30
0.0
 10
0.917414
 20
4.253572
 30
0.0
 10
0.912839
 20
4.247784
 30
0.0
 10
0.907823
 20
4.242382
 30
0.0
 10
0.902311
 20
4.237476
 30
0.0
 10
0.899390
 20
4.235325
 30
0.0
 10
0.896193
 20
4.233285
 30
0.0
 10
0.892830
 20
4.231521
 30
0.0
 10
0.889137
 20
4.230034
 30
0.0
 10
0.887153
 20
4.229427
 30
0.0
 10
0.884949
 20
4.228987
 30
0.0
 10
0.882578
 20
4.228761
 30
0.0
 10
0.879712
 20
4.229043
 30
0.0
 10
0.874365
 20
4.231577
 30
0.0
 10
0.844655
 20
4.256217
 30
0.0
 10
0.812078
 20
4.276832
 30
0.0
 10
0.807944
 20
4.281132
 30
0.0
 10
0.806897
 20
4.283776
 30
0.0
 10
0.806290
 20
4.286147
 30
0.0
 10
0.806008
 20
4.288351
 30
0.0
 10
0.805951
 20
4.290391
 30
0.0
 10
0.806233
 20
4.294360
 30
0.0
 10
0.806894
 20
4.298164
 30
0.0
 10
0.807887
 20
4.301747
 30
0.0
 10
0.809044
 20
4.305274
 30
0.0
 10
0.812021
 20
4.311999
 30
0.0
 10
0.815604
 20
4.318448
 30
0.0
 10
0.819628
 20
4.324622
 30
0.0
 10
0.824203
 20
4.330575
 30
0.0
 10
0.826407
 20
4.337686
 30
0.0
 10
0.827014
 20
4.345568
 30
0.0
 10
0.827127
 20
4.353671
 30
0.0
 10
0.826901
 20
4.361884
 30
0.0
 10
0.826240
 20
4.370208
 30
0.0
 10
0.825193
 20
4.378696
 30
0.0
 10
0.823816
 20
4.387240
 30
0.0
 10
0.822549
 20
4.393744
 30
0.0
 10
0.763845
 20
4.412816
 30
0.0
 10
0.758994
 20
4.408297
 30
0.0
 10
0.752875
 20
4.402178
 30
0.0
 10
0.747033
 20
4.395894
 30
0.0
 10
0.741631
 20
4.389555
 30
0.0
 10
0.736615
 20
4.383051
 30
0.0
 10
0.731929
 20
4.376436
 30
0.0
 10
0.727795
 20
4.369711
 30
0.0
 10
0.725371
 20
4.362711
 30
0.0
 10
0.725540
 20
4.355159
 30
0.0
 10
0.725258
 20
4.347773
 30
0.0
 10
0.724377
 20
4.340497
 30
0.0
 10
0.722780
 20
4.333331
 30
0.0
 10
0.721677
 20
4.329748
 30
0.0
 10
0.720353
 20
4.326276
 30
0.0
 10
0.718646
 20
4.322858
 30
0.0
 10
0.716551
 20
4.319496
 30
0.0
 10
0.715228
 20
4.317842
 30
0.0
 10
0.713741
 20
4.316244
 30
0.0
 10
0.711923
 20
4.314647
 30
0.0
 10
0.709499
 20
4.313160
 30
0.0
 10
0.703656
 20
4.312113
 30
0.0
 10
0.665126
 20
4.314537
 30
0.0
 10
0.626651
 20
4.312113
 30
0.0
 10
0.620753
 20
4.313160
 30
0.0
 10
0.618329
 20
4.314647
 30
0.0
 10
0.616511
 20
4.316244
 30
0.0
 10
0.615024
 20
4.317842
 30
0.0
 10
0.613700
 20
4.319496
 30
0.0
 10
0.611660
 20
4.322858
 30
0.0
 10
0.609952
 20
4.326276
 30
0.0
 10
0.608575
 20
4.329748
 30
0.0
 10
0.607472
 20
4.333331
 30
0.0
 10
0.605928
 20
4.340497
 30
0.0
 10
0.605047
 20
4.347773
 30
0.0
 10
0.604717
 20
4.355159
 30
0.0
 10
0.604887
 20
4.362711
 30
0.0
 10
0.602462
 20
4.369711
 30
0.0
 10
0.598328
 20
4.376436
 30
0.0
 10
0.593698
 20
4.383051
 30
0.0
 10
0.588627
 20
4.389555
 30
0.0
 10
0.583225
 20
4.395894
 30
0.0
 10
0.577382
 20
4.402178
 30
0.0
 10
0.571263
 20
4.408297
 30
0.0
 10
0.566413
 20
4.412816
 30
0.0
 10
0.566413
 20
4.412816
 30
0.0
  0
LWPOLYLINE
  5
10d
100
AcDbEntity
  8
Layer_1
 62
7
100
AcDbPolyline
 90
18
 70
0
 10
0.665136
 20
4.207323
 30
0.0
 10
0.740990
 20
4.192235
 30
0.0
 10
0.805297
 20
4.149267
 30
0.0
 10
0.848265
 20
4.084961
 30
0.0
 10
0.863352
 20
4.009107
 30
0.0
 10
0.848265
 20
3.933252
 30
0.0
 10
0.805297
 20
3.868945
 30
0.0
 10
0.740990
 20
3.825977
 30
0.0
 10
0.665136
 20
3.810889
 30
0.0
 10
0.589281
 20
3.825977
 30
0.0
 10
0.524974
 20
3.868945
 30
0.0
 10
0.482006
 20
3.933252
 30
0.0
 10
0.466919
 20
4.009107
 30
0.0
 10
0.482006
 20
4.084961
 30
0.0
 10
0.524974
 20
4.149268
 30
0.0
 10
0.589281
 20
4.192235
 30
0.0
 10
0.665136
 20
4.207323
 30
0.0
 10
0.665136
 20
4.207323
 30
0.0
  0
ENDSEC
  0
SECTION
  2
OBJECTS
  0
DICTIONARY
  5
C
330
0
100
AcDbDictionary
  3
ACAD_GROUP
350
D
  3
ACAD_MLINESTYLE
350
17
  0
DICTIONARY
  5
D
330
C
100
AcDbDictionary
  0
DICTIONARY
  5
1A
330
C
100
AcDbDictionary
  0
DICTIONARY
  5
17
330
C
100
AcDbDictionary
  3
STANDARD
350
18
  0
DICTIONARY
  5
19
330
C
100
AcDbDictionary
  0
ENDSEC
  0
EOF
