  0
SECTION
  2
HEADER
  9
$ACADVER
  1
AC1014
  9
$HANDSEED
  5
FFFF
  9
$INSUNITS
 70
     4
  9
$MEASUREMENT
 70
     1
  0
ENDSEC
  0
SECTION
  2
TABLES
  0
TABLE
  2
VPORT
  5
8
330
0
100
AcDbSymbolTable
 70
     4
  0
VPORT
  5
2E
330
8
100
AcDbSymbolTableRecord
100
AcDbViewportTableRecord
  2
*ACTIVE
 70
     0
 10
0.0
 20
0.0
 11
1.0
 21
1.0
 12
210.0
 22
148.5
 13
0.0
 23
0.0
 14
10.0
 24
10.0
 15
10.0
 25
10.0
 16
0.0
 26
0.0
 36
1.0
 17
0.0
 27
0.0
 37
0.0
 40
341.0
 41
1.24
 42
50.0
 43
0.0
 44
0.0
 50
0.0
 51
0.0
 71
     0
 72
   100
 73
     1
 74
     3
 75
     0
 76
     0
 77
     0
 78
     0
  0
ENDTAB
  0
TABLE
  2
LTYPE
  5
5
330
0
100
AcDbSymbolTable
 70
     1
  0
LTYPE
  5
14
330
5
100
AcDbSymbolTableRecord
100
AcDbLinetypeTableRecord
  2
BYBLOCK
 70
     0
  3

 72
    65
 73
     0
 40
0.0
  0
LTYPE
  5
15
330
5
100
AcDbSymbolTableRecord
100
AcDbLinetypeTableRecord
  2
BYLAYER
 70
     0
  3

 72
    65
 73
     0
 40
0.0
  0
LTYPE
  5
16
330
5
100
AcDbSymbolTableRecord
100
AcDbLinetypeTableRecord
  2
CONTINUOUS
 70
     0
  3
Solid line
 72
    65
 73
     0
 40
0.0
  0
ENDTAB
  0
TABLE
  2
LAYER
  5
2
100
AcDbSymbolTable
 70
2
  0
LAYER
  5
50
100
AcDbSymbolTableRecord
100
AcDbLayerTableRecord
  2
0
 70
0
  6
CONTINUOUS
  0
LAYER
  5
51
100
AcDbSymbolTableRecord
100
AcDbLayerTableRecord
  2
Layer_1
 70
0
  6
CONTINUOUS
  0
ENDTAB
  0
TABLE
  2
STYLE
  5
3
330
0
100
AcDbSymbolTable
 70
     1
  0
STYLE
  5
11
330
3
100
AcDbSymbolTableRecord
100
AcDbTextStyleTableRecord
  2
STANDARD
 70
     0
 40
0.0
 41
1.0
 50
0.0
 71
     0
 42
2.5
  3
txt
  4

  0
ENDTAB
  0
TABLE
  2
VIEW
  5
6
330
0
100
AcDbSymbolTable
 70
     0
  0
ENDTAB
  0
TABLE
  2
UCS
  5
7
330
0
100
AcDbSymbolTable
 70
     0
  0
ENDTAB
  0
TABLE
  2
APPID
  5
9
330
0
100
AcDbSymbolTable
 70
     2
  0
APPID
  5
12
330
9
100
AcDbSymbolTableRecord
100
AcDbRegAppTableRecord
  2
ACAD
 70
     0
  0
ENDTAB
  0
TABLE
  2
DIMSTYLE
  5
A
330
0
100
AcDbSymbolTable
 70
     1
  0
DIMSTYLE
105
27
330
A
100
AcDbSymbolTableRecord
100
AcDbDimStyleTableRecord
  2
ISO-25
 70
     0
  3

  4

  5

  6

  7

 40
1.0
 41
2.5
 42
0.625
 43
3.75
 44
1.25
 45
0.0
 46
0.0
 47
0.0
 48
0.0
140
2.5
141
2.5
142
0.0
143
0.03937007874016
144
1.0
145
0.0
146
1.0
147
0.625
 71
     0
 72
     0
 73
     0
 74
     0
 75
     0
 76
     0
 77
     1
 78
     8
170
     0
171
     3
172
     1
173
     0
174
     0
175
     0
176
     0
177
     0
178
     0
270
     2
271
     2
272
     2
273
     2
274
     3
340
11
275
     0
280
     0
281
     0
282
     0
283
     0
284
     8
285
     0
286
     0
287
     3
288
     0
  0
ENDTAB
  0
TABLE
  2
BLOCK_RECORD
  5
1
330
0
100
AcDbSymbolTable
 70
     1
  0
BLOCK_RECORD
  5
1F
330
1
100
AcDbSymbolTableRecord
100
AcDbBlockTableRecord
  2
*MODEL_SPACE
  0
BLOCK_RECORD
  5
1B
330
1
100
AcDbSymbolTableRecord
100
AcDbBlockTableRecord
  2
*PAPER_SPACE
  0
ENDTAB
  0
ENDSEC
  0
SECTION
  2
BLOCKS
  0
BLOCK
  5
20
330
1F
100
AcDbEntity
  8
0
100
AcDbBlockBegin
  2
*MODEL_SPACE
 70
     0
 10
0.0
 20
0.0
 30
0.0
  3
*MODEL_SPACE
  1

  0
ENDBLK
  5
21
330
1F
100
AcDbEntity
  8
0
100
AcDbBlockEnd
  0
BLOCK
  5
1C
330
1B
100
AcDbEntity
 67
     1
  8
0
100
AcDbBlockBegin
  2
*PAPER_SPACE
  1

  0
ENDBLK
  5
1D
330
1B
100
AcDbEntity
 67
     1
  8
0
100
AcDbBlockEnd
  0
ENDSEC
  0
SECTION
  2
ENTITIES
  0
LWPOLYLINE
  5
100
100
AcDbEntity
  8
Layer_1
 62
7
100
AcDbPolyline
 90
50
 70
1
 10
138.199000
 20
77.221000
 30
0.0
 10
136.607000
 20
77.141000
 30
0.0
 10
135.061000
 20
76.905000
 30
0.0
 10
133.569000
 20
76.521000
 30
0.0
 10
132.138000
 20
75.997000
 30
0.0
 10
129.493000
 20
74.562000
 30
0.0
 10
127.188000
 20
72.660000
 30
0.0
 10
125.287000
 20
70.356000
 30
0.0
 10
123.851000
 20
67.711000
 30
0.0
 10
123.328000
 20
66.280000
 30
0.0
 10
122.944000
 20
64.788000
 30
0.0
 10
122.708000
 20
63.241000
 30
0.0
 10
122.628000
 20
61.649000
 30
0.0
 10
122.628000
 20
26.755000
 30
0.0
 10
122.628000
 20
26.751000
 30
0.0
 10
122.825000
 20
25.773000
 30
0.0
 10
123.364000
 20
24.974000
 30
0.0
 10
124.163000
 20
24.435000
 30
0.0
 10
125.142000
 20
24.237000
 30
0.0
 10
125.146000
 20
24.237000
 30
0.0
 10
144.465000
 20
24.237000
 30
0.0
 10
176.341000
 20
24.237000
 30
0.0
 10
195.660000
 20
24.237000
 30
0.0
 10
195.664000
 20
24.237000
 30
0.0
 10
196.642000
 20
24.435000
 30
0.0
 10
197.441000
 20
24.974000
 30
0.0
 10
197.980000
 20
25.773000
 30
0.0
 10
198.178000
 20
26.751000
 30
0.0
 10
198.178000
 20
26.752000
 30
0.0
 10
198.178000
 20
26.752000
 30
0.0
 10
198.178000
 20
26.753000
 30
0.0
 10
198.178000
 20
26.753000
 30
0.0
 10
198.178000
 20
26.754000
 30
0.0
 10
198.178000
 20
26.754000
 30
0.0
 10
198.178000
 20
26.755000
 30
0.0
 10
198.178000
 20
26.756000
 30
0.0
 10
198.178000
 20
61.650000
 30
0.0
 10
198.097000
 20
63.242000
 30
0.0
 10
197.861000
 20
64.788000
 30
0.0
 10
197.478000
 20
66.280000
 30
0.0
 10
196.954000
 20
67.711000
 30
0.0
 10
195.518000
 20
70.356000
 30
0.0
 10
193.617000
 20
72.660000
 30
0.0
 10
191.312000
 20
74.562000
 30
0.0
 10
188.667000
 20
75.997000
 30
0.0
 10
187.237000
 20
76.521000
 30
0.0
 10
185.744000
 20
76.905000
 30
0.0
 10
184.198000
 20
77.141000
 30
0.0
 10
182.606000
 20
77.221000
 30
0.0
 10
160.402000
 20
77.221000
 30
0.0
  0
ENDSEC
  0
SECTION
  2
OBJECTS
  0
DICTIONARY
  5
C
330
0
100
AcDbDictionary
  3
ACAD_GROUP
350
D
  3
ACAD_MLINESTYLE
350
17
  0
DICTIONARY
  5
D
330
C
100
AcDbDictionary
  0
DICTIONARY
  5
1A
330
C
100
AcDbDictionary
  0
DICTIONARY
  5
17
330
C
100
AcDbDictionary
  3
STANDARD
350
18
  0
DICTIONARY
  5
19
330
C
100
AcDbDictionary
  0
ENDSEC
  0
EOF
