  0
SECTION
  2
HEADER
  9
$ACADVER
  1
AC1014
  9
$HANDSEED
  5
FFFF
  9
$INSUNITS
 70
     4
  9
$MEASUREMENT
 70
     1
  0
ENDSEC
  0
SECTION
  2
TABLES
  0
TABLE
  2
VPORT
  5
8
330
0
100
AcDbSymbolTable
 70
     4
  0
VPORT
  5
2E
330
8
100
AcDbSymbolTableRecord
100
AcDbViewportTableRecord
  2
*ACTIVE
 70
     0
 10
0.0
 20
0.0
 11
1.0
 21
1.0
 12
210.0
 22
148.5
 13
0.0
 23
0.0
 14
10.0
 24
10.0
 15
10.0
 25
10.0
 16
0.0
 26
0.0
 36
1.0
 17
0.0
 27
0.0
 37
0.0
 40
341.0
 41
1.24
 42
50.0
 43
0.0
 44
0.0
 50
0.0
 51
0.0
 71
     0
 72
   100
 73
     1
 74
     3
 75
     0
 76
     0
 77
     0
 78
     0
  0
ENDTAB
  0
TABLE
  2
LTYPE
  5
5
330
0
100
AcDbSymbolTable
 70
     1
  0
LTYPE
  5
14
330
5
100
AcDbSymbolTableRecord
100
AcDbLinetypeTableRecord
  2
BYBLOCK
 70
     0
  3

 72
    65
 73
     0
 40
0.0
  0
LTYPE
  5
15
330
5
100
AcDbSymbolTableRecord
100
AcDbLinetypeTableRecord
  2
BYLAYER
 70
     0
  3

 72
    65
 73
     0
 40
0.0
  0
LTYPE
  5
16
330
5
100
AcDbSymbolTableRecord
100
AcDbLinetypeTableRecord
  2
CONTINUOUS
 70
     0
  3
Solid line
 72
    65
 73
     0
 40
0.0
  0
ENDTAB
  0
TABLE
  2
LAYER
  5
2
100
AcDbSymbolTable
 70
2
  0
LAYER
  5
50
100
AcDbSymbolTableRecord
100
AcDbLayerTableRecord
  2
0
 70
0
  6
CONTINUOUS
  0
LAYER
  5
51
100
AcDbSymbolTableRecord
100
AcDbLayerTableRecord
  2
Layer_1
 70
0
  6
CONTINUOUS
  0
ENDTAB
  0
TABLE
  2
STYLE
  5
3
330
0
100
AcDbSymbolTable
 70
     1
  0
STYLE
  5
11
330
3
100
AcDbSymbolTableRecord
100
AcDbTextStyleTableRecord
  2
STANDARD
 70
     0
 40
0.0
 41
1.0
 50
0.0
 71
     0
 42
2.5
  3
txt
  4

  0
ENDTAB
  0
TABLE
  2
VIEW
  5
6
330
0
100
AcDbSymbolTable
 70
     0
  0
ENDTAB
  0
TABLE
  2
UCS
  5
7
330
0
100
AcDbSymbolTable
 70
     0
  0
ENDTAB
  0
TABLE
  2
APPID
  5
9
330
0
100
AcDbSymbolTable
 70
     2
  0
APPID
  5
12
330
9
100
AcDbSymbolTableRecord
100
AcDbRegAppTableRecord
  2
ACAD
 70
     0
  0
ENDTAB
  0
TABLE
  2
DIMSTYLE
  5
A
330
0
100
AcDbSymbolTable
 70
     1
  0
DIMSTYLE
105
27
330
A
100
AcDbSymbolTableRecord
100
AcDbDimStyleTableRecord
  2
ISO-25
 70
     0
  3

  4

  5

  6

  7

 40
1.0
 41
2.5
 42
0.625
 43
3.75
 44
1.25
 45
0.0
 46
0.0
 47
0.0
 48
0.0
140
2.5
141
2.5
142
0.0
143
0.03937007874016
144
1.0
145
0.0
146
1.0
147
0.625
 71
     0
 72
     0
 73
     0
 74
     0
 75
     0
 76
     0
 77
     1
 78
     8
170
     0
171
     3
172
     1
173
     0
174
     0
175
     0
176
     0
177
     0
178
     0
270
     2
271
     2
272
     2
273
     2
274
     3
340
11
275
     0
280
     0
281
     0
282
     0
283
     0
284
     8
285
     0
286
     0
287
     3
288
     0
  0
ENDTAB
  0
TABLE
  2
BLOCK_RECORD
  5
1
330
0
100
AcDbSymbolTable
 70
     1
  0
BLOCK_RECORD
  5
1F
330
1
100
AcDbSymbolTableRecord
100
AcDbBlockTableRecord
  2
*MODEL_SPACE
  0
BLOCK_RECORD
  5
1B
330
1
100
AcDbSymbolTableRecord
100
AcDbBlockTableRecord
  2
*PAPER_SPACE
  0
ENDTAB
  0
ENDSEC
  0
SECTION
  2
BLOCKS
  0
BLOCK
  5
20
330
1F
100
AcDbEntity
  8
0
100
AcDbBlockBegin
  2
*MODEL_SPACE
 70
     0
 10
0.0
 20
0.0
 30
0.0
  3
*MODEL_SPACE
  1

  0
ENDBLK
  5
21
330
1F
100
AcDbEntity
  8
0
100
AcDbBlockEnd
  0
BLOCK
  5
1C
330
1B
100
AcDbEntity
 67
     1
  8
0
100
AcDbBlockBegin
  2
*PAPER_SPACE
  1

  0
ENDBLK
  5
1D
330
1B
100
AcDbEntity
 67
     1
  8
0
100
AcDbBlockEnd
  0
ENDSEC
  0
SECTION
  2
ENTITIES
  0
LWPOLYLINE
  5
100
100
AcDbEntity
  8
Layer_1
 62
3
100
AcDbPolyline
 90
73
 70
1
 10
157.091000
 20
158.975700
 30
0.0
 10
152.681000
 20
158.958200
 30
0.0
 10
136.262000
 20
158.630500
 30
0.0
 10
115.752000
 20
158.017600
 30
0.0
 10
102.397000
 20
157.465700
 30
0.0
 10
89.049900
 20
156.745400
 30
0.0
 10
77.418500
 20
155.809000
 30
0.0
 10
73.843000
 20
155.357000
 30
0.0
 10
71.097200
 20
154.896200
 30
0.0
 10
69.244900
 20
154.371400
 30
0.0
 10
67.870000
 20
153.632800
 30
0.0
 10
66.730800
 20
152.734200
 30
0.0
 10
65.439500
 20
151.256500
 30
0.0
 10
64.785800
 20
150.119100
 30
0.0
 10
64.303600
 20
148.654900
 30
0.0
 10
63.956800
 20
146.120700
 30
0.0
 10
62.922800
 20
137.831300
 30
0.0
 10
61.441700
 20
123.893600
 30
0.0
 10
60.499700
 20
112.606500
 30
0.0
 10
59.573100
 20
99.559000
 30
0.0
 10
58.765400
 20
86.351000
 30
0.0
 10
58.407300
 20
78.139000
 30
0.0
 10
58.239900
 20
74.023000
 30
0.0
 10
58.091500
 20
69.927000
 30
0.0
 10
57.645100
 20
47.117000
 30
0.0
 10
57.783000
 20
35.244000
 30
0.0
 10
57.958700
 20
33.910000
 30
0.0
 10
58.377800
 20
32.675000
 30
0.0
 10
59.702300
 20
30.306000
 30
0.0
 10
60.647600
 20
29.210000
 30
0.0
 10
61.863800
 20
28.343000
 30
0.0
 10
63.211200
 20
27.734000
 30
0.0
 10
64.550100
 20
27.414000
 30
0.0
 10
70.026400
 20
27.078000
 30
0.0
 10
73.275100
 20
27.005000
 30
0.0
 10
160.669000
 20
26.597000
 30
0.0
 10
160.713000
 20
26.597000
 30
0.0
 10
248.107000
 20
27.005000
 30
0.0
 10
251.355000
 20
27.078000
 30
0.0
 10
256.832000
 20
27.414000
 30
0.0
 10
258.171000
 20
27.734000
 30
0.0
 10
259.518000
 20
28.343000
 30
0.0
 10
260.735000
 20
29.210000
 30
0.0
 10
261.680000
 20
30.306000
 30
0.0
 10
263.005000
 20
32.675000
 30
0.0
 10
263.424000
 20
33.910000
 30
0.0
 10
263.599000
 20
35.244000
 30
0.0
 10
263.737000
 20
47.117000
 30
0.0
 10
263.291000
 20
69.927000
 30
0.0
 10
263.143000
 20
74.023000
 30
0.0
 10
262.975000
 20
78.139000
 30
0.0
 10
262.616000
 20
86.351000
 30
0.0
 10
261.809000
 20
99.559000
 30
0.0
 10
260.882000
 20
112.606500
 30
0.0
 10
259.940000
 20
123.893600
 30
0.0
 10
258.460000
 20
137.831300
 30
0.0
 10
257.426000
 20
146.120700
 30
0.0
 10
257.079000
 20
148.654900
 30
0.0
 10
256.597000
 20
150.119100
 30
0.0
 10
255.943000
 20
151.256500
 30
0.0
 10
254.651000
 20
152.734200
 30
0.0
 10
253.512000
 20
153.632800
 30
0.0
 10
252.138000
 20
154.371400
 30
0.0
 10
250.285000
 20
154.896200
 30
0.0
 10
247.539000
 20
155.357000
 30
0.0
 10
243.963000
 20
155.809000
 30
0.0
 10
232.332000
 20
156.745400
 30
0.0
 10
218.985000
 20
157.465700
 30
0.0
 10
205.630000
 20
158.017600
 30
0.0
 10
185.120000
 20
158.630500
 30
0.0
 10
168.701000
 20
158.958200
 30
0.0
 10
160.691000
 20
158.970600
 30
0.0
 10
157.091000
 20
158.975800
 30
0.0
  0
ENDSEC
  0
SECTION
  2
OBJECTS
  0
DICTIONARY
  5
C
330
0
100
AcDbDictionary
  3
ACAD_GROUP
350
D
  3
ACAD_MLINESTYLE
350
17
  0
DICTIONARY
  5
D
330
C
100
AcDbDictionary
  0
DICTIONARY
  5
1A
330
C
100
AcDbDictionary
  0
DICTIONARY
  5
17
330
C
100
AcDbDictionary
  3
STANDARD
350
18
  0
DICTIONARY
  5
19
330
C
100
AcDbDictionary
  0
ENDSEC
  0
EOF
