  0
SECTION
  2
HEADER
  9
$ACADVER
  1
AC1014
  9
$HANDSEED
  5
FFFF
  9
$MEASUREMENT
 70
     1
  0
ENDSEC
  0
SECTION
  2
TABLES
  0
TABLE
  2
VPORT
  5
8
330
0
100
AcDbSymbolTable
 70
     4
  0
VPORT
  5
2E
330
8
100
AcDbSymbolTableRecord
100
AcDbViewportTableRecord
  2
*ACTIVE
 70
     0
 10
0.0
 20
0.0
 11
1.0
 21
1.0
 12
210.0
 22
148.5
 13
0.0
 23
0.0
 14
10.0
 24
10.0
 15
10.0
 25
10.0
 16
0.0
 26
0.0
 36
1.0
 17
0.0
 27
0.0
 37
0.0
 40
341.0
 41
1.24
 42
50.0
 43
0.0
 44
0.0
 50
0.0
 51
0.0
 71
     0
 72
   100
 73
     1
 74
     3
 75
     0
 76
     0
 77
     0
 78
     0
  0
ENDTAB
  0
TABLE
  2
LTYPE
  5
5
330
0
100
AcDbSymbolTable
 70
     1
  0
LTYPE
  5
14
330
5
100
AcDbSymbolTableRecord
100
AcDbLinetypeTableRecord
  2
BYBLOCK
 70
     0
  3

 72
    65
 73
     0
 40
0.0
  0
LTYPE
  5
15
330
5
100
AcDbSymbolTableRecord
100
AcDbLinetypeTableRecord
  2
BYLAYER
 70
     0
  3

 72
    65
 73
     0
 40
0.0
  0
LTYPE
  5
16
330
5
100
AcDbSymbolTableRecord
100
AcDbLinetypeTableRecord
  2
CONTINUOUS
 70
     0
  3
Solid line
 72
    65
 73
     0
 40
0.0
  0
ENDTAB
  0
TABLE
  2
LAYER
  5
2
100
AcDbSymbolTable
 70
1
  0
LAYER
  5
50
100
AcDbSymbolTableRecord
100
AcDbLayerTableRecord
  2
0
 70
0
  6
CONTINUOUS
  0
ENDTAB
  0
TABLE
  2
STYLE
  5
3
330
0
100
AcDbSymbolTable
 70
     1
  0
STYLE
  5
11
330
3
100
AcDbSymbolTableRecord
100
AcDbTextStyleTableRecord
  2
STANDARD
 70
     0
 40
0.0
 41
1.0
 50
0.0
 71
     0
 42
2.5
  3
txt
  4

  0
ENDTAB
  0
TABLE
  2
VIEW
  5
6
330
0
100
AcDbSymbolTable
 70
     0
  0
ENDTAB
  0
TABLE
  2
UCS
  5
7
330
0
100
AcDbSymbolTable
 70
     0
  0
ENDTAB
  0
TABLE
  2
APPID
  5
9
330
0
100
AcDbSymbolTable
 70
     2
  0
APPID
  5
12
330
9
100
AcDbSymbolTableRecord
100
AcDbRegAppTableRecord
  2
ACAD
 70
     0
  0
ENDTAB
  0
TABLE
  2
DIMSTYLE
  5
A
330
0
100
AcDbSymbolTable
 70
     1
  0
DIMSTYLE
105
27
330
A
100
AcDbSymbolTableRecord
100
AcDbDimStyleTableRecord
  2
ISO-25
 70
     0
  3

  4

  5

  6

  7

 40
1.0
 41
2.5
 42
0.625
 43
3.75
 44
1.25
 45
0.0
 46
0.0
 47
0.0
 48
0.0
140
2.5
141
2.5
142
0.0
143
0.03937007874016
144
1.0
145
0.0
146
1.0
147
0.625
 71
     0
 72
     0
 73
     0
 74
     0
 75
     0
 76
     0
 77
     1
 78
     8
170
     0
171
     3
172
     1
173
     0
174
     0
175
     0
176
     0
177
     0
178
     0
270
     2
271
     2
272
     2
273
     2
274
     3
340
11
275
     0
280
     0
281
     0
282
     0
283
     0
284
     8
285
     0
286
     0
287
     3
288
     0
  0
ENDTAB
  0
TABLE
  2
BLOCK_RECORD
  5
1
330
0
100
AcDbSymbolTable
 70
     1
  0
BLOCK_RECORD
  5
1F
330
1
100
AcDbSymbolTableRecord
100
AcDbBlockTableRecord
  2
*MODEL_SPACE
  0
BLOCK_RECORD
  5
1B
330
1
100
AcDbSymbolTableRecord
100
AcDbBlockTableRecord
  2
*PAPER_SPACE
  0
ENDTAB
  0
ENDSEC
  0
SECTION
  2
BLOCKS
  0
BLOCK
  5
20
330
1F
100
AcDbEntity
  8
0
100
AcDbBlockBegin
  2
*MODEL_SPACE
 70
     0
 10
0.0
 20
0.0
 30
0.0
  3
*MODEL_SPACE
  1

  0
ENDBLK
  5
21
330
1F
100
AcDbEntity
  8
0
100
AcDbBlockEnd
  0
BLOCK
  5
1C
330
1B
100
AcDbEntity
 67
     1
  8
0
100
AcDbBlockBegin
  2
*PAPER_SPACE
  1

  0
ENDBLK
  5
1D
330
1B
100
AcDbEntity
 67
     1
  8
0
100
AcDbBlockEnd
  0
ENDSEC
  0
SECTION
  2
ENTITIES
  0
LWPOLYLINE
  5
100
100
AcDbEntity
  8
0
 62
7
100
AcDbPolyline
 90
10
 70
0
 10
-0.000003
 20
59.200000
 30
0.0
 10
-0.000003
 20
29.600181
 30
0.0
 10
-0.000003
 20
-0.000080
 30
0.0
 10
41.999960
 20
-0.000080
 30
0.0
 10
83.999923
 20
-0.000080
 30
0.0
 10
83.999923
 20
29.600181
 30
0.0
 10
83.999923
 20
59.200000
 30
0.0
 10
41.999960
 20
59.200000
 30
0.0
 10
-0.000003
 20
59.200000
 30
0.0
 10
-0.000003
 20
59.200000
 30
0.0
  0
LWPOLYLINE
  5
101
100
AcDbEntity
  8
0
 62
7
100
AcDbPolyline
 90
28
 70
0
 10
39.466572
 20
54.580375
 30
0.0
 10
39.865917
 20
54.556249
 30
0.0
 10
40.263850
 20
54.456021
 30
0.0
 10
40.606766
 20
54.283338
 30
0.0
 10
40.896686
 20
54.030017
 30
0.0
 10
41.127869
 20
53.713012
 30
0.0
 10
41.294574
 20
53.349275
 30
0.0
 10
41.391061
 20
52.955761
 30
0.0
 10
41.411588
 20
52.549423
 30
0.0
 10
41.350414
 20
52.147215
 30
0.0
 10
41.201799
 20
51.766090
 30
0.0
 10
40.858991
 20
51.345432
 30
0.0
 10
40.306184
 20
51.036281
 30
0.0
 10
39.693225
 20
50.869453
 30
0.0
 10
39.130117
 20
50.877499
 30
0.0
 10
38.609009
 20
51.062942
 30
0.0
 10
38.122050
 20
51.428306
 30
0.0
 10
37.872653
 20
51.691201
 30
0.0
 10
37.733479
 20
51.929980
 30
0.0
 10
37.673057
 20
52.232115
 30
0.0
 10
37.659910
 20
52.685076
 30
0.0
 10
37.724781
 20
53.399826
 30
0.0
 10
37.968151
 20
53.861150
 30
0.0
 10
38.274787
 20
54.159052
 30
0.0
 10
38.636404
 20
54.380972
 30
0.0
 10
39.038500
 20
54.522786
 30
0.0
 10
39.466572
 20
54.580375
 30
0.0
 10
39.466572
 20
54.580375
 30
0.0
  0
LWPOLYLINE
  5
102
100
AcDbEntity
  8
0
 62
7
100
AcDbPolyline
 90
44
 70
0
 10
17.304189
 20
54.198934
 30
0.0
 10
18.429337
 20
54.141581
 30
0.0
 10
19.333984
 20
53.982858
 30
0.0
 10
19.981860
 20
53.757591
 30
0.0
 10
20.608394
 20
53.460555
 30
0.0
 10
21.206701
 20
53.097302
 30
0.0
 10
21.769895
 20
52.673378
 30
0.0
 10
22.291089
 20
52.194335
 30
0.0
 10
22.763396
 20
51.665722
 30
0.0
 10
23.179930
 20
51.093086
 30
0.0
 10
23.533806
 20
50.481979
 30
0.0
 10
23.901321
 20
49.551256
 30
0.0
 10
24.037836
 20
48.427931
 30
0.0
 10
24.039744
 20
47.314543
 30
0.0
 10
23.800151
 20
46.454580
 30
0.0
 10
23.516338
 20
45.882873
 30
0.0
 10
23.125701
 20
45.340156
 30
0.0
 10
22.642192
 20
44.836406
 30
0.0
 10
22.079762
 20
44.381600
 30
0.0
 10
21.452363
 20
43.985715
 30
0.0
 10
20.773948
 20
43.658728
 30
0.0
 10
20.058467
 20
43.410617
 30
0.0
 10
19.319873
 20
43.251358
 30
0.0
 10
18.466315
 20
43.179960
 30
0.0
 10
17.667890
 20
43.230180
 30
0.0
 10
16.921969
 20
43.403295
 30
0.0
 10
16.225925
 20
43.700578
 30
0.0
 10
15.577132
 20
44.123307
 30
0.0
 10
14.972961
 20
44.672757
 30
0.0
 10
14.410785
 20
45.350204
 30
0.0
 10
13.887977
 20
46.156924
 30
0.0
 10
13.359089
 20
47.178971
 30
0.0
 10
12.980147
 20
48.154781
 30
0.0
 10
12.751481
 20
49.081181
 30
0.0
 10
12.673421
 20
49.955000
 30
0.0
 10
12.746299
 20
50.773066
 30
0.0
 10
12.970446
 20
51.532206
 30
0.0
 10
13.346191
 20
52.229250
 30
0.0
 10
13.873866
 20
52.861024
 30
0.0
 10
14.614604
 20
53.492023
 30
0.0
 10
15.379028
 20
53.905046
 30
0.0
 10
16.248451
 20
54.130536
 30
0.0
 10
17.304189
 20
54.198934
 30
0.0
 10
17.304189
 20
54.198934
 30
0.0
  0
LWPOLYLINE
  5
103
100
AcDbEntity
  8
0
 62
7
100
AcDbPolyline
 90
37
 70
0
 10
51.672685
 20
51.320708
 30
0.0
 10
52.429835
 20
51.320267
 30
0.0
 10
53.901654
 20
51.239085
 30
0.0
 10
54.321920
 20
51.145259
 30
0.0
 10
54.669973
 20
50.995712
 30
0.0
 10
55.116962
 20
50.732626
 30
0.0
 10
55.502756
 20
50.429310
 30
0.0
 10
55.827847
 20
50.084815
 30
0.0
 10
56.092728
 20
49.698188
 30
0.0
 10
56.297889
 20
49.268479
 30
0.0
 10
56.443824
 20
48.794738
 30
0.0
 10
56.559982
 20
47.711351
 30
0.0
 10
56.500891
 20
46.870439
 30
0.0
 10
56.307892
 20
46.194298
 30
0.0
 10
55.957392
 20
45.624595
 30
0.0
 10
55.425800
 20
45.103000
 30
0.0
 10
54.716627
 20
44.654671
 30
0.0
 10
53.844728
 20
44.324335
 30
0.0
 10
52.866531
 20
44.113421
 30
0.0
 10
51.838467
 20
44.023356
 30
0.0
 10
50.816966
 20
44.055568
 30
0.0
 10
49.858457
 20
44.211487
 30
0.0
 10
49.019369
 20
44.492539
 30
0.0
 10
48.356133
 20
44.900153
 30
0.0
 10
47.842733
 20
45.423649
 30
0.0
 10
47.503904
 20
45.996519
 30
0.0
 10
47.314700
 20
46.673294
 30
0.0
 10
47.250174
 20
47.508504
 30
0.0
 10
47.299806
 20
48.334042
 30
0.0
 10
47.468846
 20
48.993598
 30
0.0
 10
47.787511
 20
49.559387
 30
0.0
 10
48.286018
 20
50.103625
 30
0.0
 10
48.976979
 20
50.657988
 30
0.0
 10
49.712555
 20
51.026978
 30
0.0
 10
50.581528
 20
51.238563
 30
0.0
 10
51.672685
 20
51.320708
 30
0.0
 10
51.672685
 20
51.320708
 30
0.0
  0
LWPOLYLINE
  5
104
100
AcDbEntity
  8
0
 62
7
100
AcDbPolyline
 90
26
 70
0
 10
68.998927
 20
50.803007
 30
0.0
 10
69.365931
 20
50.760099
 30
0.0
 10
69.761810
 20
50.631028
 30
0.0
 10
70.239674
 20
50.352894
 30
0.0
 10
70.600079
 20
49.974658
 30
0.0
 10
70.839741
 20
49.526730
 30
0.0
 10
70.955375
 20
49.039522
 30
0.0
 10
70.943696
 20
48.543443
 30
0.0
 10
70.801421
 20
48.068906
 30
0.0
 10
70.525264
 20
47.646320
 30
0.0
 10
70.111942
 20
47.306097
 30
0.0
 10
69.554325
 20
47.099334
 30
0.0
 10
68.916620
 20
47.061085
 30
0.0
 10
68.302539
 20
47.182494
 30
0.0
 10
67.815797
 20
47.454705
 30
0.0
 10
67.467504
 20
47.844532
 30
0.0
 10
67.239649
 20
48.279822
 30
0.0
 10
67.129275
 20
48.738875
 30
0.0
 10
67.133422
 20
49.199988
 30
0.0
 10
67.249131
 20
49.641461
 30
0.0
 10
67.473444
 20
50.041592
 30
0.0
 10
67.803401
 20
50.378682
 30
0.0
 10
68.236044
 20
50.631028
 30
0.0
 10
68.631923
 20
50.760099
 30
0.0
 10
68.998927
 20
50.803007
 30
0.0
 10
68.998927
 20
50.803007
 30
0.0
  0
LWPOLYLINE
  5
105
100
AcDbEntity
  8
0
 62
7
100
AcDbPolyline
 90
10
 70
0
 10
28.019374
 20
48.200389
 30
0.0
 10
28.151226
 20
48.144386
 30
0.0
 10
28.207228
 20
48.012094
 30
0.0
 10
28.151226
 20
47.874952
 30
0.0
 10
28.019374
 20
47.819389
 30
0.0
 10
27.882232
 20
47.874952
 30
0.0
 10
27.826228
 20
48.012094
 30
0.0
 10
27.882232
 20
48.144386
 30
0.0
 10
28.019374
 20
48.200389
 30
0.0
 10
28.019374
 20
48.200389
 30
0.0
  0
LWPOLYLINE
  5
106
100
AcDbEntity
  8
0
 62
7
100
AcDbPolyline
 90
10
 70
0
 10
28.019374
 20
47.692389
 30
0.0
 10
28.151226
 20
47.636386
 30
0.0
 10
28.207228
 20
47.504094
 30
0.0
 10
28.151226
 20
47.366952
 30
0.0
 10
28.019374
 20
47.311389
 30
0.0
 10
27.882232
 20
47.366952
 30
0.0
 10
27.826228
 20
47.504094
 30
0.0
 10
27.882232
 20
47.636386
 30
0.0
 10
28.019374
 20
47.692389
 30
0.0
 10
28.019374
 20
47.692389
 30
0.0
  0
LWPOLYLINE
  5
107
100
AcDbEntity
  8
0
 62
7
100
AcDbPolyline
 90
10
 70
0
 10
30.360495
 20
47.290663
 30
0.0
 10
30.497637
 20
47.235101
 30
0.0
 10
30.553642
 20
47.102809
 30
0.0
 10
30.497637
 20
46.965667
 30
0.0
 10
30.360495
 20
46.909663
 30
0.0
 10
30.228646
 20
46.965667
 30
0.0
 10
30.172642
 20
47.102809
 30
0.0
 10
30.228646
 20
47.235101
 30
0.0
 10
30.360495
 20
47.290663
 30
0.0
 10
30.360495
 20
47.290663
 30
0.0
  0
LWPOLYLINE
  5
108
100
AcDbEntity
  8
0
 62
7
100
AcDbPolyline
 90
10
 70
0
 10
36.706969
 20
47.275670
 30
0.0
 10
36.844111
 20
47.219667
 30
0.0
 10
36.900116
 20
47.082524
 30
0.0
 10
36.844111
 20
46.950674
 30
0.0
 10
36.706969
 20
46.894670
 30
0.0
 10
36.575117
 20
46.950674
 30
0.0
 10
36.519115
 20
47.082524
 30
0.0
 10
36.575117
 20
47.219667
 30
0.0
 10
36.706969
 20
47.275670
 30
0.0
 10
36.706969
 20
47.275670
 30
0.0
  0
LWPOLYLINE
  5
109
100
AcDbEntity
  8
0
 62
7
100
AcDbPolyline
 90
10
 70
0
 10
37.214969
 20
47.275670
 30
0.0
 10
37.352111
 20
47.219667
 30
0.0
 10
37.408116
 20
47.082524
 30
0.0
 10
37.352111
 20
46.950674
 30
0.0
 10
37.214969
 20
46.894670
 30
0.0
 10
37.077827
 20
46.950674
 30
0.0
 10
37.027116
 20
47.082524
 30
0.0
 10
37.077827
 20
47.219667
 30
0.0
 10
37.214969
 20
47.275670
 30
0.0
 10
37.214969
 20
47.275670
 30
0.0
  0
LWPOLYLINE
  5
10a
100
AcDbEntity
  8
0
 62
7
100
AcDbPolyline
 90
10
 70
0
 10
29.862637
 20
47.250094
 30
0.0
 10
29.994930
 20
47.194531
 30
0.0
 10
30.050934
 20
47.057389
 30
0.0
 10
29.994930
 20
46.920247
 30
0.0
 10
29.862637
 20
46.869094
 30
0.0
 10
29.725495
 20
46.920247
 30
0.0
 10
29.669934
 20
47.057389
 30
0.0
 10
29.725495
 20
47.194531
 30
0.0
 10
29.862637
 20
47.250094
 30
0.0
 10
29.862637
 20
47.250094
 30
0.0
  0
LWPOLYLINE
  5
10b
100
AcDbEntity
  8
0
 62
7
100
AcDbPolyline
 90
10
 70
0
 10
28.019374
 20
47.184389
 30
0.0
 10
28.151226
 20
47.128386
 30
0.0
 10
28.207228
 20
46.996094
 30
0.0
 10
28.151226
 20
46.858952
 30
0.0
 10
28.019374
 20
46.803389
 30
0.0
 10
27.882232
 20
46.858952
 30
0.0
 10
27.826228
 20
46.996094
 30
0.0
 10
27.882232
 20
47.128386
 30
0.0
 10
28.019374
 20
47.184389
 30
0.0
 10
28.019374
 20
47.184389
 30
0.0
  0
LWPOLYLINE
  5
10c
100
AcDbEntity
  8
0
 62
7
100
AcDbPolyline
 90
10
 70
0
 10
32.021638
 20
47.184389
 30
0.0
 10
32.153489
 20
47.128386
 30
0.0
 10
32.209494
 20
46.996094
 30
0.0
 10
32.153489
 20
46.858952
 30
0.0
 10
32.021638
 20
46.803389
 30
0.0
 10
31.884496
 20
46.858952
 30
0.0
 10
31.828494
 20
46.996094
 30
0.0
 10
31.884496
 20
47.128386
 30
0.0
 10
32.021638
 20
47.184389
 30
0.0
 10
32.021638
 20
47.184389
 30
0.0
  0
LWPOLYLINE
  5
10d
100
AcDbEntity
  8
0
 62
7
100
AcDbPolyline
 90
10
 70
0
 10
35.293212
 20
47.184389
 30
0.0
 10
35.430354
 20
47.128386
 30
0.0
 10
35.485918
 20
46.996094
 30
0.0
 10
35.430354
 20
46.858952
 30
0.0
 10
35.293212
 20
46.803389
 30
0.0
 10
35.160920
 20
46.858952
 30
0.0
 10
35.104918
 20
46.996094
 30
0.0
 10
35.160920
 20
47.128386
 30
0.0
 10
35.293212
 20
47.184389
 30
0.0
 10
35.293212
 20
47.184389
 30
0.0
  0
LWPOLYLINE
  5
10e
100
AcDbEntity
  8
0
 62
7
100
AcDbPolyline
 90
10
 70
0
 10
38.965628
 20
47.184389
 30
0.0
 10
39.097480
 20
47.128386
 30
0.0
 10
39.153484
 20
46.996094
 30
0.0
 10
39.097480
 20
46.858952
 30
0.0
 10
38.965628
 20
46.803389
 30
0.0
 10
38.828486
 20
46.858952
 30
0.0
 10
38.772484
 20
46.996094
 30
0.0
 10
38.828486
 20
47.128386
 30
0.0
 10
38.965628
 20
47.184389
 30
0.0
 10
38.965628
 20
47.184389
 30
0.0
  0
LWPOLYLINE
  5
10f
100
AcDbEntity
  8
0
 62
7
100
AcDbPolyline
 90
10
 70
0
 10
41.393622
 20
47.184389
 30
0.0
 10
41.530764
 20
47.128386
 30
0.0
 10
41.586768
 20
46.996094
 30
0.0
 10
41.530764
 20
46.858952
 30
0.0
 10
41.393622
 20
46.803389
 30
0.0
 10
41.261772
 20
46.858952
 30
0.0
 10
41.205768
 20
46.996094
 30
0.0
 10
41.261772
 20
47.128386
 30
0.0
 10
41.393622
 20
47.184389
 30
0.0
 10
41.393622
 20
47.184389
 30
0.0
  0
LWPOLYLINE
  5
110
100
AcDbEntity
  8
0
 62
7
100
AcDbPolyline
 90
10
 70
0
 10
42.567050
 20
47.184389
 30
0.0
 10
42.698900
 20
47.128386
 30
0.0
 10
42.754904
 20
46.996094
 30
0.0
 10
42.698900
 20
46.858952
 30
0.0
 10
42.567050
 20
46.803389
 30
0.0
 10
42.429906
 20
46.858952
 30
0.0
 10
42.373904
 20
46.996094
 30
0.0
 10
42.429906
 20
47.128386
 30
0.0
 10
42.567050
 20
47.184389
 30
0.0
 10
42.567050
 20
47.184389
 30
0.0
  0
LWPOLYLINE
  5
111
100
AcDbEntity
  8
0
 62
7
100
AcDbPolyline
 90
10
 70
0
 10
44.695622
 20
47.184389
 30
0.0
 10
44.832764
 20
47.128386
 30
0.0
 10
44.888328
 20
46.996094
 30
0.0
 10
44.832764
 20
46.858952
 30
0.0
 10
44.695622
 20
46.803389
 30
0.0
 10
44.563330
 20
46.858952
 30
0.0
 10
44.507328
 20
46.996094
 30
0.0
 10
44.563330
 20
47.128386
 30
0.0
 10
44.695622
 20
47.184389
 30
0.0
 10
44.695622
 20
47.184389
 30
0.0
  0
LWPOLYLINE
  5
112
100
AcDbEntity
  8
0
 62
7
100
AcDbPolyline
 90
10
 70
0
 10
30.848212
 20
47.153521
 30
0.0
 10
30.985354
 20
47.097959
 30
0.0
 10
31.041358
 20
46.965667
 30
0.0
 10
30.985354
 20
46.828524
 30
0.0
 10
30.848212
 20
46.772521
 30
0.0
 10
30.716362
 20
46.828524
 30
0.0
 10
30.660358
 20
46.965667
 30
0.0
 10
30.716362
 20
47.097959
 30
0.0
 10
30.848212
 20
47.153521
 30
0.0
 10
30.848212
 20
47.153521
 30
0.0
  0
LWPOLYLINE
  5
113
100
AcDbEntity
  8
0
 62
7
100
AcDbPolyline
 90
10
 70
0
 10
37.687692
 20
47.092667
 30
0.0
 10
37.819541
 20
47.036663
 30
0.0
 10
37.875546
 20
46.899521
 30
0.0
 10
37.819541
 20
46.767670
 30
0.0
 10
37.687692
 20
46.711667
 30
0.0
 10
37.550550
 20
46.767670
 30
0.0
 10
37.494546
 20
46.899521
 30
0.0
 10
37.550550
 20
47.036663
 30
0.0
 10
37.687692
 20
47.092667
 30
0.0
 10
37.687692
 20
47.092667
 30
0.0
  0
LWPOLYLINE
  5
114
100
AcDbEntity
  8
0
 62
7
100
AcDbPolyline
 90
10
 70
0
 10
36.239980
 20
47.087816
 30
0.0
 10
36.371829
 20
47.031813
 30
0.0
 10
36.427834
 20
46.899521
 30
0.0
 10
36.371829
 20
46.762379
 30
0.0
 10
36.239980
 20
46.706816
 30
0.0
 10
36.102395
 20
46.762379
 30
0.0
 10
36.046833
 20
46.899521
 30
0.0
 10
36.102395
 20
47.031813
 30
0.0
 10
36.239980
 20
47.087816
 30
0.0
 10
36.239980
 20
47.087816
 30
0.0
  0
LWPOLYLINE
  5
115
100
AcDbEntity
  8
0
 62
7
100
AcDbPolyline
 90
10
 70
0
 10
29.405792
 20
47.016379
 30
0.0
 10
29.542934
 20
46.960816
 30
0.0
 10
29.598495
 20
46.828524
 30
0.0
 10
29.542934
 20
46.691382
 30
0.0
 10
29.405792
 20
46.635379
 30
0.0
 10
29.273499
 20
46.691382
 30
0.0
 10
29.217495
 20
46.828524
 30
0.0
 10
29.273499
 20
46.960816
 30
0.0
 10
29.405792
 20
47.016379
 30
0.0
 10
29.405792
 20
47.016379
 30
0.0
  0
LWPOLYLINE
  5
116
100
AcDbEntity
  8
0
 62
7
100
AcDbPolyline
 90
10
 70
0
 10
31.254788
 20
46.854101
 30
0.0
 10
31.386637
 20
46.798097
 30
0.0
 10
31.442642
 20
46.660955
 30
0.0
 10
31.386637
 20
46.528663
 30
0.0
 10
31.254788
 20
46.473101
 30
0.0
 10
31.117646
 20
46.528663
 30
0.0
 10
31.061642
 20
46.660955
 30
0.0
 10
31.117646
 20
46.798097
 30
0.0
 10
31.254788
 20
46.854101
 30
0.0
 10
31.254788
 20
46.854101
 30
0.0
  0
LWPOLYLINE
  5
117
100
AcDbEntity
  8
0
 62
7
100
AcDbPolyline
 90
10
 70
0
 10
42.922474
 20
46.823674
 30
0.0
 10
43.054764
 20
46.767670
 30
0.0
 10
43.110328
 20
46.630528
 30
0.0
 10
43.054764
 20
46.498236
 30
0.0
 10
42.922474
 20
46.442674
 30
0.0
 10
42.785330
 20
46.498236
 30
0.0
 10
42.729328
 20
46.630528
 30
0.0
 10
42.785330
 20
46.767670
 30
0.0
 10
42.922474
 20
46.823674
 30
0.0
 10
42.922474
 20
46.823674
 30
0.0
  0
LWPOLYLINE
  5
118
100
AcDbEntity
  8
0
 62
7
100
AcDbPolyline
 90
10
 70
0
 10
44.339758
 20
46.823674
 30
0.0
 10
44.476900
 20
46.767670
 30
0.0
 10
44.532904
 20
46.630528
 30
0.0
 10
44.476900
 20
46.498236
 30
0.0
 10
44.339758
 20
46.442674
 30
0.0
 10
44.207906
 20
46.498236
 30
0.0
 10
44.151904
 20
46.630528
 30
0.0
 10
44.207906
 20
46.767670
 30
0.0
 10
44.339758
 20
46.823674
 30
0.0
 10
44.339758
 20
46.823674
 30
0.0
  0
LWPOLYLINE
  5
119
100
AcDbEntity
  8
0
 62
7
100
AcDbPolyline
 90
10
 70
0
 10
32.295924
 20
46.757528
 30
0.0
 10
32.427773
 20
46.701524
 30
0.0
 10
32.483778
 20
46.564382
 30
0.0
 10
32.427773
 20
46.432531
 30
0.0
 10
32.295924
 20
46.376528
 30
0.0
 10
32.158782
 20
46.432531
 30
0.0
 10
32.102778
 20
46.564382
 30
0.0
 10
32.158782
 20
46.701524
 30
0.0
 10
32.295924
 20
46.757528
 30
0.0
 10
32.295924
 20
46.757528
 30
0.0
  0
LWPOLYLINE
  5
11a
100
AcDbEntity
  8
0
 62
7
100
AcDbPolyline
 90
10
 70
0
 10
35.023778
 20
46.757528
 30
0.0
 10
35.156070
 20
46.701524
 30
0.0
 10
35.211632
 20
46.564382
 30
0.0
 10
35.156070
 20
46.432531
 30
0.0
 10
35.023778
 20
46.376528
 30
0.0
 10
34.886636
 20
46.432531
 30
0.0
 10
34.830632
 20
46.564382
 30
0.0
 10
34.886636
 20
46.701524
 30
0.0
 10
35.023778
 20
46.757528
 30
0.0
 10
35.023778
 20
46.757528
 30
0.0
  0
LWPOLYLINE
  5
11b
100
AcDbEntity
  8
0
 62
7
100
AcDbPolyline
 90
10
 70
0
 10
38.063400
 20
46.752236
 30
0.0
 10
38.195692
 20
46.696674
 30
0.0
 10
38.251253
 20
46.559531
 30
0.0
 10
38.195692
 20
46.427240
 30
0.0
 10
38.063400
 20
46.371236
 30
0.0
 10
37.926258
 20
46.427240
 30
0.0
 10
37.870253
 20
46.559531
 30
0.0
 10
37.926258
 20
46.696674
 30
0.0
 10
38.063400
 20
46.752236
 30
0.0
 10
38.063400
 20
46.752236
 30
0.0
  0
LWPOLYLINE
  5
11c
100
AcDbEntity
  8
0
 62
7
100
AcDbPolyline
 90
10
 70
0
 10
35.863829
 20
46.747386
 30
0.0
 10
36.000971
 20
46.691382
 30
0.0
 10
36.056975
 20
46.559531
 30
0.0
 10
36.000971
 20
46.422389
 30
0.0
 10
35.863829
 20
46.366386
 30
0.0
 10
35.731980
 20
46.422389
 30
0.0
 10
35.675975
 20
46.559531
 30
0.0
 10
35.731980
 20
46.691382
 30
0.0
 10
35.863829
 20
46.747386
 30
0.0
 10
35.863829
 20
46.747386
 30
0.0
  0
LWPOLYLINE
  5
11d
100
AcDbEntity
  8
0
 62
7
100
AcDbPolyline
 90
10
 70
0
 10
28.019374
 20
46.676389
 30
0.0
 10
28.151226
 20
46.620386
 30
0.0
 10
28.207228
 20
46.488094
 30
0.0
 10
28.151226
 20
46.350952
 30
0.0
 10
28.019374
 20
46.295389
 30
0.0
 10
27.882232
 20
46.350952
 30
0.0
 10
27.826228
 20
46.488094
 30
0.0
 10
27.882232
 20
46.620386
 30
0.0
 10
28.019374
 20
46.676389
 30
0.0
 10
28.019374
 20
46.676389
 30
0.0
  0
LWPOLYLINE
  5
11e
100
AcDbEntity
  8
0
 62
7
100
AcDbPolyline
 90
10
 70
0
 10
38.965628
 20
46.676389
 30
0.0
 10
39.097480
 20
46.620386
 30
0.0
 10
39.153484
 20
46.488094
 30
0.0
 10
39.097480
 20
46.350952
 30
0.0
 10
38.965628
 20
46.295389
 30
0.0
 10
38.828486
 20
46.350952
 30
0.0
 10
38.772484
 20
46.488094
 30
0.0
 10
38.828486
 20
46.620386
 30
0.0
 10
38.965628
 20
46.676389
 30
0.0
 10
38.965628
 20
46.676389
 30
0.0
  0
LWPOLYLINE
  5
11f
100
AcDbEntity
  8
0
 62
7
100
AcDbPolyline
 90
10
 70
0
 10
41.393622
 20
46.676389
 30
0.0
 10
41.530764
 20
46.620386
 30
0.0
 10
41.586768
 20
46.488094
 30
0.0
 10
41.530764
 20
46.350952
 30
0.0
 10
41.393622
 20
46.295389
 30
0.0
 10
41.261772
 20
46.350952
 30
0.0
 10
41.205768
 20
46.488094
 30
0.0
 10
41.261772
 20
46.620386
 30
0.0
 10
41.393622
 20
46.676389
 30
0.0
 10
41.393622
 20
46.676389
 30
0.0
  0
LWPOLYLINE
  5
120
100
AcDbEntity
  8
0
 62
7
100
AcDbPolyline
 90
10
 70
0
 10
29.065362
 20
46.645521
 30
0.0
 10
29.202504
 20
46.589959
 30
0.0
 10
29.258065
 20
46.457667
 30
0.0
 10
29.202504
 20
46.320524
 30
0.0
 10
29.065362
 20
46.264521
 30
0.0
 10
28.933069
 20
46.320524
 30
0.0
 10
28.877065
 20
46.457667
 30
0.0
 10
28.933069
 20
46.589959
 30
0.0
 10
29.065362
 20
46.645521
 30
0.0
 10
29.065362
 20
46.645521
 30
0.0
  0
LWPOLYLINE
  5
121
100
AcDbEntity
  8
0
 62
7
100
AcDbPolyline
 90
10
 70
0
 10
37.631688
 20
46.483243
 30
0.0
 10
37.763980
 20
46.427240
 30
0.0
 10
37.819541
 20
46.295389
 30
0.0
 10
37.763980
 20
46.158247
 30
0.0
 10
37.631688
 20
46.102243
 30
0.0
 10
37.494546
 20
46.158247
 30
0.0
 10
37.438541
 20
46.295389
 30
0.0
 10
37.494546
 20
46.427240
 30
0.0
 10
37.631688
 20
46.483243
 30
0.0
 10
37.631688
 20
46.483243
 30
0.0
  0
LWPOLYLINE
  5
122
100
AcDbEntity
  8
0
 62
7
100
AcDbPolyline
 90
10
 70
0
 10
43.277896
 20
46.457667
 30
0.0
 10
43.410188
 20
46.401663
 30
0.0
 10
43.466192
 20
46.269813
 30
0.0
 10
43.410188
 20
46.132670
 30
0.0
 10
43.277896
 20
46.076667
 30
0.0
 10
43.140754
 20
46.132670
 30
0.0
 10
43.085192
 20
46.269813
 30
0.0
 10
43.140754
 20
46.401663
 30
0.0
 10
43.277896
 20
46.457667
 30
0.0
 10
43.277896
 20
46.457667
 30
0.0
  0
LWPOLYLINE
  5
123
100
AcDbEntity
  8
0
 62
7
100
AcDbPolyline
 90
10
 70
0
 10
43.984334
 20
46.457667
 30
0.0
 10
44.121476
 20
46.401663
 30
0.0
 10
44.177480
 20
46.269813
 30
0.0
 10
44.121476
 20
46.132670
 30
0.0
 10
43.984334
 20
46.076667
 30
0.0
 10
43.852042
 20
46.132670
 30
0.0
 10
43.796480
 20
46.269813
 30
0.0
 10
43.852042
 20
46.401663
 30
0.0
 10
43.984334
 20
46.457667
 30
0.0
 10
43.984334
 20
46.457667
 30
0.0
  0
LWPOLYLINE
  5
124
100
AcDbEntity
  8
0
 62
7
100
AcDbPolyline
 90
10
 70
0
 10
31.523782
 20
46.422389
 30
0.0
 10
31.656072
 20
46.366386
 30
0.0
 10
31.712076
 20
46.229243
 30
0.0
 10
31.656072
 20
46.096952
 30
0.0
 10
31.523782
 20
46.041389
 30
0.0
 10
31.386637
 20
46.096952
 30
0.0
 10
31.331076
 20
46.229243
 30
0.0
 10
31.386637
 20
46.366386
 30
0.0
 10
31.523782
 20
46.422389
 30
0.0
 10
31.523782
 20
46.422389
 30
0.0
  0
LWPOLYLINE
  5
125
100
AcDbEntity
  8
0
 62
7
100
AcDbPolyline
 90
10
 70
0
 10
32.564918
 20
46.325816
 30
0.0
 10
32.702060
 20
46.269813
 30
0.0
 10
32.758061
 20
46.137521
 30
0.0
 10
32.702060
 20
46.000379
 30
0.0
 10
32.564918
 20
45.944816
 30
0.0
 10
32.433066
 20
46.000379
 30
0.0
 10
32.377061
 20
46.137521
 30
0.0
 10
32.433066
 20
46.269813
 30
0.0
 10
32.564918
 20
46.325816
 30
0.0
 10
32.564918
 20
46.325816
 30
0.0
  0
LWPOLYLINE
  5
126
100
AcDbEntity
  8
0
 62
7
100
AcDbPolyline
 90
10
 70
0
 10
34.749494
 20
46.325816
 30
0.0
 10
34.886636
 20
46.269813
 30
0.0
 10
34.942638
 20
46.137521
 30
0.0
 10
34.886636
 20
46.000379
 30
0.0
 10
34.749494
 20
45.944816
 30
0.0
 10
34.612350
 20
46.000379
 30
0.0
 10
34.561638
 20
46.137521
 30
0.0
 10
34.612350
 20
46.269813
 30
0.0
 10
34.749494
 20
46.325816
 30
0.0
 10
34.749494
 20
46.325816
 30
0.0
  0
LWPOLYLINE
  5
127
100
AcDbEntity
  8
0
 62
7
100
AcDbPolyline
 90
10
 70
0
 10
35.640257
 20
46.300240
 30
0.0
 10
35.772550
 20
46.244236
 30
0.0
 10
35.828111
 20
46.107094
 30
0.0
 10
35.772550
 20
45.975243
 30
0.0
 10
35.640257
 20
45.919240
 30
0.0
 10
35.503115
 20
45.975243
 30
0.0
 10
35.447111
 20
46.107094
 30
0.0
 10
35.503115
 20
46.244236
 30
0.0
 10
35.640257
 20
46.300240
 30
0.0
 10
35.640257
 20
46.300240
 30
0.0
  0
LWPOLYLINE
  5
128
100
AcDbEntity
  8
0
 62
7
100
AcDbPolyline
 90
10
 70
0
 10
37.199976
 20
46.213809
 30
0.0
 10
37.331828
 20
46.158247
 30
0.0
 10
37.387829
 20
46.025955
 30
0.0
 10
37.331828
 20
45.888813
 30
0.0
 10
37.199976
 20
45.832809
 30
0.0
 10
37.062834
 20
45.888813
 30
0.0
 10
37.006829
 20
46.025955
 30
0.0
 10
37.062834
 20
46.158247
 30
0.0
 10
37.199976
 20
46.213809
 30
0.0
 10
37.199976
 20
46.213809
 30
0.0
  0
LWPOLYLINE
  5
129
100
AcDbEntity
  8
0
 62
7
100
AcDbPolyline
 90
10
 70
0
 10
28.887207
 20
46.173240
 30
0.0
 10
29.019499
 20
46.117236
 30
0.0
 10
29.075504
 20
45.985386
 30
0.0
 10
29.019499
 20
45.848243
 30
0.0
 10
28.887207
 20
45.792240
 30
0.0
 10
28.750065
 20
45.848243
 30
0.0
 10
28.694504
 20
45.985386
 30
0.0
 10
28.750065
 20
46.117236
 30
0.0
 10
28.887207
 20
46.173240
 30
0.0
 10
28.887207
 20
46.173240
 30
0.0
  0
LWPOLYLINE
  5
12a
100
AcDbEntity
  8
0
 62
7
100
AcDbPolyline
 90
10
 70
0
 10
28.019374
 20
46.168389
 30
0.0
 10
28.151226
 20
46.112386
 30
0.0
 10
28.207228
 20
45.980094
 30
0.0
 10
28.151226
 20
45.842952
 30
0.0
 10
28.019374
 20
45.787389
 30
0.0
 10
27.882232
 20
45.842952
 30
0.0
 10
27.826228
 20
45.980094
 30
0.0
 10
27.882232
 20
46.112386
 30
0.0
 10
28.019374
 20
46.168389
 30
0.0
 10
28.019374
 20
46.168389
 30
0.0
  0
LWPOLYLINE
  5
12b
100
AcDbEntity
  8
0
 62
7
100
AcDbPolyline
 90
10
 70
0
 10
38.965628
 20
46.168389
 30
0.0
 10
39.097480
 20
46.112386
 30
0.0
 10
39.153484
 20
45.980094
 30
0.0
 10
39.097480
 20
45.842952
 30
0.0
 10
38.965628
 20
45.787389
 30
0.0
 10
38.828486
 20
45.842952
 30
0.0
 10
38.772484
 20
45.980094
 30
0.0
 10
38.828486
 20
46.112386
 30
0.0
 10
38.965628
 20
46.168389
 30
0.0
 10
38.965628
 20
46.168389
 30
0.0
  0
LWPOLYLINE
  5
12c
100
AcDbEntity
  8
0
 62
7
100
AcDbPolyline
 90
10
 70
0
 10
41.393622
 20
46.168389
 30
0.0
 10
41.530764
 20
46.112386
 30
0.0
 10
41.586768
 20
45.980094
 30
0.0
 10
41.530764
 20
45.842952
 30
0.0
 10
41.393622
 20
45.787389
 30
0.0
 10
41.261772
 20
45.842952
 30
0.0
 10
41.205768
 20
45.980094
 30
0.0
 10
41.261772
 20
46.112386
 30
0.0
 10
41.393622
 20
46.168389
 30
0.0
 10
41.393622
 20
46.168389
 30
0.0
  0
LWPOLYLINE
  5
12d
100
AcDbEntity
  8
0
 62
7
100
AcDbPolyline
 90
10
 70
0
 10
43.633762
 20
46.096952
 30
0.0
 10
43.765612
 20
46.041389
 30
0.0
 10
43.821616
 20
45.904247
 30
0.0
 10
43.765612
 20
45.771955
 30
0.0
 10
43.633762
 20
45.715952
 30
0.0
 10
43.496618
 20
45.771955
 30
0.0
 10
43.440616
 20
45.904247
 30
0.0
 10
43.496618
 20
46.041389
 30
0.0
 10
43.633762
 20
46.096952
 30
0.0
 10
43.633762
 20
46.096952
 30
0.0
  0
LWPOLYLINE
  5
12e
100
AcDbEntity
  8
0
 62
7
100
AcDbPolyline
 90
10
 70
0
 10
36.768264
 20
45.949667
 30
0.0
 10
36.900116
 20
45.893663
 30
0.0
 10
36.956117
 20
45.756521
 30
0.0
 10
36.900116
 20
45.624670
 30
0.0
 10
36.768264
 20
45.568667
 30
0.0
 10
36.631122
 20
45.624670
 30
0.0
 10
36.575117
 20
45.756521
 30
0.0
 10
36.631122
 20
45.893663
 30
0.0
 10
36.768264
 20
45.949667
 30
0.0
 10
36.768264
 20
45.949667
 30
0.0
  0
LWPOLYLINE
  5
12f
100
AcDbEntity
  8
0
 62
7
100
AcDbPolyline
 90
10
 70
0
 10
31.615504
 20
45.924531
 30
0.0
 10
31.747354
 20
45.868528
 30
0.0
 10
31.803358
 20
45.736236
 30
0.0
 10
31.747354
 20
45.599094
 30
0.0
 10
31.615504
 20
45.543531
 30
0.0
 10
31.478362
 20
45.599094
 30
0.0
 10
31.422358
 20
45.736236
 30
0.0
 10
31.478362
 20
45.868528
 30
0.0
 10
31.615504
 20
45.924531
 30
0.0
 10
31.615504
 20
45.924531
 30
0.0
  0
LWPOLYLINE
  5
130
100
AcDbEntity
  8
0
 62
7
100
AcDbPolyline
 90
10
 70
0
 10
32.839202
 20
45.898955
 30
0.0
 10
32.976784
 20
45.842952
 30
0.0
 10
33.032348
 20
45.711101
 30
0.0
 10
32.976784
 20
45.573959
 30
0.0
 10
32.839202
 20
45.517955
 30
0.0
 10
32.707350
 20
45.573959
 30
0.0
 10
32.651348
 20
45.711101
 30
0.0
 10
32.707350
 20
45.842952
 30
0.0
 10
32.839202
 20
45.898955
 30
0.0
 10
32.839202
 20
45.898955
 30
0.0
  0
LWPOLYLINE
  5
131
100
AcDbEntity
  8
0
 62
7
100
AcDbPolyline
 90
10
 70
0
 10
34.475208
 20
45.898955
 30
0.0
 10
34.612350
 20
45.842952
 30
0.0
 10
34.668354
 20
45.711101
 30
0.0
 10
34.612350
 20
45.573959
 30
0.0
 10
34.475208
 20
45.517955
 30
0.0
 10
34.342918
 20
45.573959
 30
0.0
 10
34.287354
 20
45.711101
 30
0.0
 10
34.342918
 20
45.842952
 30
0.0
 10
34.475208
 20
45.898955
 30
0.0
 10
34.475208
 20
45.898955
 30
0.0
  0
LWPOLYLINE
  5
132
100
AcDbEntity
  8
0
 62
7
100
AcDbPolyline
 90
10
 70
0
 10
35.594395
 20
45.797531
 30
0.0
 10
35.726687
 20
45.741528
 30
0.0
 10
35.782692
 20
45.604386
 30
0.0
 10
35.726687
 20
45.472094
 30
0.0
 10
35.594395
 20
45.416531
 30
0.0
 10
35.457253
 20
45.472094
 30
0.0
 10
35.401691
 20
45.604386
 30
0.0
 10
35.457253
 20
45.741528
 30
0.0
 10
35.594395
 20
45.797531
 30
0.0
 10
35.594395
 20
45.797531
 30
0.0
  0
LWPOLYLINE
  5
133
100
AcDbEntity
  8
0
 62
7
100
AcDbPolyline
 90
10
 70
0
 10
43.277896
 20
45.731386
 30
0.0
 10
43.410188
 20
45.675382
 30
0.0
 10
43.466192
 20
45.543531
 30
0.0
 10
43.410188
 20
45.406389
 30
0.0
 10
43.277896
 20
45.350386
 30
0.0
 10
43.140754
 20
45.406389
 30
0.0
 10
43.085192
 20
45.543531
 30
0.0
 10
43.140754
 20
45.675382
 30
0.0
 10
43.277896
 20
45.731386
 30
0.0
 10
43.277896
 20
45.731386
 30
0.0
  0
LWPOLYLINE
  5
134
100
AcDbEntity
  8
0
 62
7
100
AcDbPolyline
 90
10
 70
0
 10
43.984334
 20
45.731386
 30
0.0
 10
44.121476
 20
45.675382
 30
0.0
 10
44.177480
 20
45.543531
 30
0.0
 10
44.121476
 20
45.406389
 30
0.0
 10
43.984334
 20
45.350386
 30
0.0
 10
43.852042
 20
45.406389
 30
0.0
 10
43.796480
 20
45.543531
 30
0.0
 10
43.852042
 20
45.675382
 30
0.0
 10
43.984334
 20
45.731386
 30
0.0
 10
43.984334
 20
45.731386
 30
0.0
  0
LWPOLYLINE
  5
135
100
AcDbEntity
  8
0
 62
7
100
AcDbPolyline
 90
10
 70
0
 10
36.336111
 20
45.680674
 30
0.0
 10
36.468404
 20
45.624670
 30
0.0
 10
36.524405
 20
45.487528
 30
0.0
 10
36.468404
 20
45.355236
 30
0.0
 10
36.336111
 20
45.299674
 30
0.0
 10
36.198969
 20
45.355236
 30
0.0
 10
36.143405
 20
45.487528
 30
0.0
 10
36.198969
 20
45.624670
 30
0.0
 10
36.336111
 20
45.680674
 30
0.0
 10
36.336111
 20
45.680674
 30
0.0
  0
LWPOLYLINE
  5
136
100
AcDbEntity
  8
0
 62
7
100
AcDbPolyline
 90
10
 70
0
 10
28.887207
 20
45.670531
 30
0.0
 10
29.019499
 20
45.614528
 30
0.0
 10
29.075504
 20
45.482236
 30
0.0
 10
29.019499
 20
45.345094
 30
0.0
 10
28.887207
 20
45.289531
 30
0.0
 10
28.750065
 20
45.345094
 30
0.0
 10
28.694504
 20
45.482236
 30
0.0
 10
28.750065
 20
45.614528
 30
0.0
 10
28.887207
 20
45.670531
 30
0.0
 10
28.887207
 20
45.670531
 30
0.0
  0
LWPOLYLINE
  5
137
100
AcDbEntity
  8
0
 62
7
100
AcDbPolyline
 90
10
 70
0
 10
25.850232
 20
45.660389
 30
0.0
 10
25.982081
 20
45.604386
 30
0.0
 10
26.038086
 20
45.472094
 30
0.0
 10
25.982081
 20
45.334952
 30
0.0
 10
25.850232
 20
45.279389
 30
0.0
 10
25.713090
 20
45.334952
 30
0.0
 10
25.657086
 20
45.472094
 30
0.0
 10
25.713090
 20
45.604386
 30
0.0
 10
25.850232
 20
45.660389
 30
0.0
 10
25.850232
 20
45.660389
 30
0.0
  0
LWPOLYLINE
  5
138
100
AcDbEntity
  8
0
 62
7
100
AcDbPolyline
 90
10
 70
0
 10
28.019374
 20
45.660389
 30
0.0
 10
28.151226
 20
45.604386
 30
0.0
 10
28.207228
 20
45.472094
 30
0.0
 10
28.151226
 20
45.334952
 30
0.0
 10
28.019374
 20
45.279389
 30
0.0
 10
27.882232
 20
45.334952
 30
0.0
 10
27.826228
 20
45.472094
 30
0.0
 10
27.882232
 20
45.604386
 30
0.0
 10
28.019374
 20
45.660389
 30
0.0
 10
28.019374
 20
45.660389
 30
0.0
  0
LWPOLYLINE
  5
139
100
AcDbEntity
  8
0
 62
7
100
AcDbPolyline
 90
10
 70
0
 10
38.965628
 20
45.660389
 30
0.0
 10
39.097480
 20
45.604386
 30
0.0
 10
39.153484
 20
45.472094
 30
0.0
 10
39.097480
 20
45.334952
 30
0.0
 10
38.965628
 20
45.279389
 30
0.0
 10
38.828486
 20
45.334952
 30
0.0
 10
38.772484
 20
45.472094
 30
0.0
 10
38.828486
 20
45.604386
 30
0.0
 10
38.965628
 20
45.660389
 30
0.0
 10
38.965628
 20
45.660389
 30
0.0
  0
LWPOLYLINE
  5
13a
100
AcDbEntity
  8
0
 62
7
100
AcDbPolyline
 90
10
 70
0
 10
41.393622
 20
45.660389
 30
0.0
 10
41.530764
 20
45.604386
 30
0.0
 10
41.586768
 20
45.472094
 30
0.0
 10
41.530764
 20
45.334952
 30
0.0
 10
41.393622
 20
45.279389
 30
0.0
 10
41.261772
 20
45.334952
 30
0.0
 10
41.205768
 20
45.472094
 30
0.0
 10
41.261772
 20
45.604386
 30
0.0
 10
41.393622
 20
45.660389
 30
0.0
 10
41.393622
 20
45.660389
 30
0.0
  0
LWPOLYLINE
  5
13b
100
AcDbEntity
  8
0
 62
7
100
AcDbPolyline
 90
10
 70
0
 10
33.113928
 20
45.472094
 30
0.0
 10
33.245778
 20
45.416531
 30
0.0
 10
33.301782
 20
45.279389
 30
0.0
 10
33.245778
 20
45.147097
 30
0.0
 10
33.113928
 20
45.091094
 30
0.0
 10
32.976784
 20
45.147097
 30
0.0
 10
32.920782
 20
45.279389
 30
0.0
 10
32.976784
 20
45.416531
 30
0.0
 10
33.113928
 20
45.472094
 30
0.0
 10
33.113928
 20
45.472094
 30
0.0
  0
LWPOLYLINE
  5
13c
100
AcDbEntity
  8
0
 62
7
100
AcDbPolyline
 90
10
 70
0
 10
34.205774
 20
45.472094
 30
0.0
 10
34.338066
 20
45.416531
 30
0.0
 10
34.394070
 20
45.279389
 30
0.0
 10
34.338066
 20
45.147097
 30
0.0
 10
34.205774
 20
45.091094
 30
0.0
 10
34.068632
 20
45.147097
 30
0.0
 10
34.013070
 20
45.279389
 30
0.0
 10
34.068632
 20
45.416531
 30
0.0
 10
34.205774
 20
45.472094
 30
0.0
 10
34.205774
 20
45.472094
 30
0.0
  0
LWPOLYLINE
  5
13d
100
AcDbEntity
  8
0
 62
7
100
AcDbPolyline
 90
10
 70
0
 10
31.518930
 20
45.426674
 30
0.0
 10
31.656072
 20
45.370670
 30
0.0
 10
31.712076
 20
45.238379
 30
0.0
 10
31.656072
 20
45.101236
 30
0.0
 10
31.518930
 20
45.045674
 30
0.0
 10
31.386637
 20
45.101236
 30
0.0
 10
31.331076
 20
45.238379
 30
0.0
 10
31.386637
 20
45.370670
 30
0.0
 10
31.518930
 20
45.426674
 30
0.0
 10
31.518930
 20
45.426674
 30
0.0
  0
LWPOLYLINE
  5
13e
100
AcDbEntity
  8
0
 62
7
100
AcDbPolyline
 90
10
 70
0
 10
42.922474
 20
45.370670
 30
0.0
 10
43.054764
 20
45.314667
 30
0.0
 10
43.110328
 20
45.177524
 30
0.0
 10
43.054764
 20
45.045674
 30
0.0
 10
42.922474
 20
44.989670
 30
0.0
 10
42.785330
 20
45.045674
 30
0.0
 10
42.729328
 20
45.177524
 30
0.0
 10
42.785330
 20
45.314667
 30
0.0
 10
42.922474
 20
45.370670
 30
0.0
 10
42.922474
 20
45.370670
 30
0.0
  0
LWPOLYLINE
  5
13f
100
AcDbEntity
  8
0
 62
7
100
AcDbPolyline
 90
10
 70
0
 10
44.339758
 20
45.370670
 30
0.0
 10
44.476900
 20
45.314667
 30
0.0
 10
44.532904
 20
45.177524
 30
0.0
 10
44.476900
 20
45.045674
 30
0.0
 10
44.339758
 20
44.989670
 30
0.0
 10
44.207906
 20
45.045674
 30
0.0
 10
44.151904
 20
45.177524
 30
0.0
 10
44.207906
 20
45.314667
 30
0.0
 10
44.339758
 20
45.370670
 30
0.0
 10
44.339758
 20
45.370670
 30
0.0
  0
LWPOLYLINE
  5
140
100
AcDbEntity
  8
0
 62
7
100
AcDbPolyline
 90
10
 70
0
 10
60.982052
 20
45.337156
 30
0.0
 10
61.128896
 20
45.275420
 30
0.0
 10
61.191073
 20
45.128576
 30
0.0
 10
61.128896
 20
44.976000
 30
0.0
 10
60.982052
 20
44.913823
 30
0.0
 10
60.829916
 20
44.976000
 30
0.0
 10
60.767739
 20
45.128576
 30
0.0
 10
60.829916
 20
45.275420
 30
0.0
 10
60.982052
 20
45.337156
 30
0.0
 10
60.982052
 20
45.337156
 30
0.0
  0
LWPOLYLINE
  5
141
100
AcDbEntity
  8
0
 62
7
100
AcDbPolyline
 90
10
 70
0
 10
64.182629
 20
45.337156
 30
0.0
 10
64.329472
 20
45.275420
 30
0.0
 10
64.391649
 20
45.128576
 30
0.0
 10
64.329472
 20
44.976000
 30
0.0
 10
64.182629
 20
44.913823
 30
0.0
 10
64.030052
 20
44.976000
 30
0.0
 10
63.968316
 20
45.128576
 30
0.0
 10
64.030052
 20
45.275420
 30
0.0
 10
64.182629
 20
45.337156
 30
0.0
 10
64.182629
 20
45.337156
 30
0.0
  0
LWPOLYLINE
  5
142
100
AcDbEntity
  8
0
 62
7
100
AcDbPolyline
 90
10
 70
0
 10
72.314156
 20
45.337156
 30
0.0
 10
72.461000
 20
45.275420
 30
0.0
 10
72.523177
 20
45.128576
 30
0.0
 10
72.461000
 20
44.976000
 30
0.0
 10
72.314156
 20
44.913823
 30
0.0
 10
72.162020
 20
44.976000
 30
0.0
 10
72.099843
 20
45.128576
 30
0.0
 10
72.162020
 20
45.275420
 30
0.0
 10
72.314156
 20
45.337156
 30
0.0
 10
72.314156
 20
45.337156
 30
0.0
  0
LWPOLYLINE
  5
143
100
AcDbEntity
  8
0
 62
7
100
AcDbPolyline
 90
10
 70
0
 10
72.878601
 20
45.337156
 30
0.0
 10
73.025444
 20
45.275420
 30
0.0
 10
73.087621
 20
45.128576
 30
0.0
 10
73.025444
 20
44.976000
 30
0.0
 10
72.878601
 20
44.913823
 30
0.0
 10
72.726465
 20
44.976000
 30
0.0
 10
72.664288
 20
45.128576
 30
0.0
 10
72.726465
 20
45.275420
 30
0.0
 10
72.878601
 20
45.337156
 30
0.0
 10
72.878601
 20
45.337156
 30
0.0
  0
LWPOLYLINE
  5
144
100
AcDbEntity
  8
0
 62
7
100
AcDbPolyline
 90
10
 70
0
 10
38.195692
 20
45.309816
 30
0.0
 10
38.327541
 20
45.253813
 30
0.0
 10
38.383546
 20
45.116670
 30
0.0
 10
38.327541
 20
44.984379
 30
0.0
 10
38.195692
 20
44.928816
 30
0.0
 10
38.058550
 20
44.984379
 30
0.0
 10
38.002546
 20
45.116670
 30
0.0
 10
38.058550
 20
45.253813
 30
0.0
 10
38.195692
 20
45.309816
 30
0.0
 10
38.195692
 20
45.309816
 30
0.0
  0
LWPOLYLINE
  5
145
100
AcDbEntity
  8
0
 62
7
100
AcDbPolyline
 90
10
 70
0
 10
35.731980
 20
45.304524
 30
0.0
 10
35.869122
 20
45.248521
 30
0.0
 10
35.924683
 20
45.116670
 30
0.0
 10
35.869122
 20
44.979528
 30
0.0
 10
35.731980
 20
44.923524
 30
0.0
 10
35.599687
 20
44.979528
 30
0.0
 10
35.543683
 20
45.116670
 30
0.0
 10
35.599687
 20
45.248521
 30
0.0
 10
35.731980
 20
45.304524
 30
0.0
 10
35.731980
 20
45.304524
 30
0.0
  0
LWPOLYLINE
  5
146
100
AcDbEntity
  8
0
 62
7
100
AcDbPolyline
 90
10
 70
0
 10
29.065362
 20
45.197809
 30
0.0
 10
29.202504
 20
45.142247
 30
0.0
 10
29.258065
 20
45.009955
 30
0.0
 10
29.202504
 20
44.872813
 30
0.0
 10
29.065362
 20
44.816809
 30
0.0
 10
28.933069
 20
44.872813
 30
0.0
 10
28.877065
 20
45.009955
 30
0.0
 10
28.933069
 20
45.142247
 30
0.0
 10
29.065362
 20
45.197809
 30
0.0
 10
29.065362
 20
45.197809
 30
0.0
  0
LWPOLYLINE
  5
147
100
AcDbEntity
  8
0
 62
7
100
AcDbPolyline
 90
10
 70
0
 10
39.163626
 20
45.192959
 30
0.0
 10
39.295476
 20
45.136955
 30
0.0
 10
39.351480
 20
45.004663
 30
0.0
 10
39.295476
 20
44.867521
 30
0.0
 10
39.163626
 20
44.811959
 30
0.0
 10
39.026484
 20
44.867521
 30
0.0
 10
38.970480
 20
45.004663
 30
0.0
 10
39.026484
 20
45.136955
 30
0.0
 10
39.163626
 20
45.192959
 30
0.0
 10
39.163626
 20
45.192959
 30
0.0
  0
LWPOLYLINE
  5
148
100
AcDbEntity
  8
0
 62
7
100
AcDbPolyline
 90
10
 70
0
 10
27.943086
 20
45.162531
 30
0.0
 10
28.080228
 20
45.106528
 30
0.0
 10
28.136232
 20
44.969386
 30
0.0
 10
28.080228
 20
44.837094
 30
0.0
 10
27.943086
 20
44.781531
 30
0.0
 10
27.810793
 20
44.837094
 30
0.0
 10
27.755232
 20
44.969386
 30
0.0
 10
27.810793
 20
45.106528
 30
0.0
 10
27.943086
 20
45.162531
 30
0.0
 10
27.943086
 20
45.162531
 30
0.0
  0
LWPOLYLINE
  5
149
100
AcDbEntity
  8
0
 62
7
100
AcDbPolyline
 90
10
 70
0
 10
25.916378
 20
45.157240
 30
0.0
 10
26.053520
 20
45.101236
 30
0.0
 10
26.109081
 20
44.969386
 30
0.0
 10
26.053520
 20
44.832243
 30
0.0
 10
25.916378
 20
44.776240
 30
0.0
 10
25.784086
 20
44.832243
 30
0.0
 10
25.728081
 20
44.969386
 30
0.0
 10
25.784086
 20
45.101236
 30
0.0
 10
25.916378
 20
45.157240
 30
0.0
 10
25.916378
 20
45.157240
 30
0.0
  0
LWPOLYLINE
  5
14a
100
AcDbEntity
  8
0
 62
7
100
AcDbPolyline
 90
10
 70
0
 10
41.393622
 20
45.152389
 30
0.0
 10
41.530764
 20
45.096386
 30
0.0
 10
41.586768
 20
44.964094
 30
0.0
 10
41.530764
 20
44.826952
 30
0.0
 10
41.393622
 20
44.771389
 30
0.0
 10
41.261772
 20
44.826952
 30
0.0
 10
41.205768
 20
44.964094
 30
0.0
 10
41.261772
 20
45.096386
 30
0.0
 10
41.393622
 20
45.152389
 30
0.0
 10
41.393622
 20
45.152389
 30
0.0
  0
LWPOLYLINE
  5
14b
100
AcDbEntity
  8
0
 62
7
100
AcDbPolyline
 90
10
 70
0
 10
33.388212
 20
45.045674
 30
0.0
 10
33.520062
 20
44.989670
 30
0.0
 10
33.576066
 20
44.852528
 30
0.0
 10
33.520062
 20
44.720236
 30
0.0
 10
33.388212
 20
44.664674
 30
0.0
 10
33.251070
 20
44.720236
 30
0.0
 10
33.195066
 20
44.852528
 30
0.0
 10
33.251070
 20
44.989670
 30
0.0
 10
33.388212
 20
45.045674
 30
0.0
 10
33.388212
 20
45.045674
 30
0.0
  0
LWPOLYLINE
  5
14c
100
AcDbEntity
  8
0
 62
7
100
AcDbPolyline
 90
10
 70
0
 10
33.931490
 20
45.045674
 30
0.0
 10
34.063782
 20
44.989670
 30
0.0
 10
34.119784
 20
44.852528
 30
0.0
 10
34.063782
 20
44.720236
 30
0.0
 10
33.931490
 20
44.664674
 30
0.0
 10
33.794348
 20
44.720236
 30
0.0
 10
33.738784
 20
44.852528
 30
0.0
 10
33.794348
 20
44.989670
 30
0.0
 10
33.931490
 20
45.045674
 30
0.0
 10
33.931490
 20
45.045674
 30
0.0
  0
LWPOLYLINE
  5
14d
100
AcDbEntity
  8
0
 62
7
100
AcDbPolyline
 90
10
 70
0
 10
42.567050
 20
45.004663
 30
0.0
 10
42.698900
 20
44.949101
 30
0.0
 10
42.754904
 20
44.816809
 30
0.0
 10
42.698900
 20
44.679667
 30
0.0
 10
42.567050
 20
44.623663
 30
0.0
 10
42.429906
 20
44.679667
 30
0.0
 10
42.373904
 20
44.816809
 30
0.0
 10
42.429906
 20
44.949101
 30
0.0
 10
42.567050
 20
45.004663
 30
0.0
 10
42.567050
 20
45.004663
 30
0.0
  0
LWPOLYLINE
  5
14e
100
AcDbEntity
  8
0
 62
7
100
AcDbPolyline
 90
10
 70
0
 10
44.695622
 20
45.004663
 30
0.0
 10
44.832764
 20
44.949101
 30
0.0
 10
44.888328
 20
44.816809
 30
0.0
 10
44.832764
 20
44.679667
 30
0.0
 10
44.695622
 20
44.623663
 30
0.0
 10
44.563330
 20
44.679667
 30
0.0
 10
44.507328
 20
44.816809
 30
0.0
 10
44.563330
 20
44.949101
 30
0.0
 10
44.695622
 20
45.004663
 30
0.0
 10
44.695622
 20
45.004663
 30
0.0
  0
LWPOLYLINE
  5
14f
100
AcDbEntity
  8
0
 62
7
100
AcDbPolyline
 90
10
 70
0
 10
31.254788
 20
44.994521
 30
0.0
 10
31.386637
 20
44.938959
 30
0.0
 10
31.442642
 20
44.806667
 30
0.0
 10
31.386637
 20
44.669524
 30
0.0
 10
31.254788
 20
44.613521
 30
0.0
 10
31.117646
 20
44.669524
 30
0.0
 10
31.061642
 20
44.806667
 30
0.0
 10
31.117646
 20
44.938959
 30
0.0
 10
31.254788
 20
44.994521
 30
0.0
 10
31.254788
 20
44.994521
 30
0.0
  0
LWPOLYLINE
  5
150
100
AcDbEntity
  8
0
 62
7
100
AcDbPolyline
 90
10
 70
0
 10
36.036692
 20
44.908531
 30
0.0
 10
36.173834
 20
44.852528
 30
0.0
 10
36.229395
 20
44.715386
 30
0.0
 10
36.173834
 20
44.583094
 30
0.0
 10
36.036692
 20
44.527531
 30
0.0
 10
35.904399
 20
44.583094
 30
0.0
 10
35.848395
 20
44.715386
 30
0.0
 10
35.904399
 20
44.852528
 30
0.0
 10
36.036692
 20
44.908531
 30
0.0
 10
36.036692
 20
44.908531
 30
0.0
  0
LWPOLYLINE
  5
151
100
AcDbEntity
  8
0
 62
7
100
AcDbPolyline
 90
10
 70
0
 10
37.890980
 20
44.908531
 30
0.0
 10
38.028122
 20
44.852528
 30
0.0
 10
38.083683
 20
44.715386
 30
0.0
 10
38.028122
 20
44.583094
 30
0.0
 10
37.890980
 20
44.527531
 30
0.0
 10
37.758688
 20
44.583094
 30
0.0
 10
37.702683
 20
44.715386
 30
0.0
 10
37.758688
 20
44.852528
 30
0.0
 10
37.890980
 20
44.908531
 30
0.0
 10
37.890980
 20
44.908531
 30
0.0
  0
LWPOLYLINE
  5
152
100
AcDbEntity
  8
0
 62
7
100
AcDbPolyline
 90
16
 70
0
 10
61.337916
 20
44.897066
 30
0.0
 10
61.484760
 20
44.834889
 30
0.0
 10
61.546497
 20
44.688045
 30
0.0
 10
61.484760
 20
44.535910
 30
0.0
 10
61.337916
 20
44.473733
 30
0.0
 10
61.191073
 20
44.535910
 30
0.0
 10
61.127484
 20
44.396077
 30
0.0
 10
60.982052
 20
44.349379
 30
0.0
 10
60.829916
 20
44.411556
 30
0.0
 10
60.767739
 20
44.564132
 30
0.0
 10
60.829916
 20
44.710976
 30
0.0
 10
60.982052
 20
44.772712
 30
0.0
 10
61.128896
 20
44.716267
 30
0.0
 10
61.192483
 20
44.851822
 30
0.0
 10
61.337916
 20
44.897066
 30
0.0
 10
61.337916
 20
44.897066
 30
0.0
  0
LWPOLYLINE
  5
153
100
AcDbEntity
  8
0
 62
7
100
AcDbPolyline
 90
10
 70
0
 10
40.967202
 20
44.882955
 30
0.0
 10
41.099052
 20
44.826952
 30
0.0
 10
41.155056
 20
44.689809
 30
0.0
 10
41.099052
 20
44.552667
 30
0.0
 10
40.967202
 20
44.501955
 30
0.0
 10
40.829618
 20
44.552667
 30
0.0
 10
40.774056
 20
44.689809
 30
0.0
 10
40.829618
 20
44.826952
 30
0.0
 10
40.967202
 20
44.882955
 30
0.0
 10
40.967202
 20
44.882955
 30
0.0
  0
LWPOLYLINE
  5
154
100
AcDbEntity
  8
0
 62
7
100
AcDbPolyline
 90
10
 70
0
 10
39.524340
 20
44.837094
 30
0.0
 10
39.656192
 20
44.781531
 30
0.0
 10
39.712194
 20
44.649240
 30
0.0
 10
39.656192
 20
44.512097
 30
0.0
 10
39.524340
 20
44.456094
 30
0.0
 10
39.387198
 20
44.512097
 30
0.0
 10
39.331194
 20
44.649240
 30
0.0
 10
39.387198
 20
44.781531
 30
0.0
 10
39.524340
 20
44.837094
 30
0.0
 10
39.524340
 20
44.837094
 30
0.0
  0
LWPOLYLINE
  5
155
100
AcDbEntity
  8
0
 62
7
100
AcDbPolyline
 90
10
 70
0
 10
29.410641
 20
44.822101
 30
0.0
 10
29.542934
 20
44.766097
 30
0.0
 10
29.598495
 20
44.634247
 30
0.0
 10
29.542934
 20
44.496663
 30
0.0
 10
29.410641
 20
44.441101
 30
0.0
 10
29.273499
 20
44.496663
 30
0.0
 10
29.217495
 20
44.634247
 30
0.0
 10
29.273499
 20
44.766097
 30
0.0
 10
29.410641
 20
44.822101
 30
0.0
 10
29.410641
 20
44.822101
 30
0.0
  0
LWPOLYLINE
  5
156
100
AcDbEntity
  8
0
 62
7
100
AcDbPolyline
 90
10
 70
0
 10
64.182629
 20
44.772712
 30
0.0
 10
64.329472
 20
44.710976
 30
0.0
 10
64.391649
 20
44.564132
 30
0.0
 10
64.329472
 20
44.411556
 30
0.0
 10
64.182629
 20
44.349379
 30
0.0
 10
64.030052
 20
44.411556
 30
0.0
 10
63.968316
 20
44.564132
 30
0.0
 10
64.030052
 20
44.710976
 30
0.0
 10
64.182629
 20
44.772712
 30
0.0
 10
64.182629
 20
44.772712
 30
0.0
  0
LWPOLYLINE
  5
157
100
AcDbEntity
  8
0
 62
7
100
AcDbPolyline
 90
10
 70
0
 10
72.878601
 20
44.772712
 30
0.0
 10
73.025444
 20
44.710976
 30
0.0
 10
73.087621
 20
44.564132
 30
0.0
 10
73.025444
 20
44.411556
 30
0.0
 10
72.878601
 20
44.349379
 30
0.0
 10
72.726465
 20
44.411556
 30
0.0
 10
72.664288
 20
44.564132
 30
0.0
 10
72.726465
 20
44.710976
 30
0.0
 10
72.878601
 20
44.772712
 30
0.0
 10
72.878601
 20
44.772712
 30
0.0
  0
LWPOLYLINE
  5
158
100
AcDbEntity
  8
0
 62
7
100
AcDbPolyline
 90
10
 70
0
 10
27.638374
 20
44.761247
 30
0.0
 10
27.775516
 20
44.705243
 30
0.0
 10
27.831520
 20
44.572952
 30
0.0
 10
27.775516
 20
44.435809
 30
0.0
 10
27.638374
 20
44.380247
 30
0.0
 10
27.506082
 20
44.435809
 30
0.0
 10
27.450520
 20
44.572952
 30
0.0
 10
27.506082
 20
44.705243
 30
0.0
 10
27.638374
 20
44.761247
 30
0.0
 10
27.638374
 20
44.761247
 30
0.0
  0
LWPOLYLINE
  5
159
100
AcDbEntity
  8
0
 62
7
100
AcDbPolyline
 90
10
 70
0
 10
26.215798
 20
44.755955
 30
0.0
 10
26.348090
 20
44.699952
 30
0.0
 10
26.403651
 20
44.568101
 30
0.0
 10
26.348090
 20
44.430959
 30
0.0
 10
26.215798
 20
44.374955
 30
0.0
 10
26.078656
 20
44.430959
 30
0.0
 10
26.022651
 20
44.568101
 30
0.0
 10
26.078656
 20
44.699952
 30
0.0
 10
26.215798
 20
44.755955
 30
0.0
 10
26.215798
 20
44.755955
 30
0.0
  0
LWPOLYLINE
  5
15a
100
AcDbEntity
  8
0
 62
7
100
AcDbPolyline
 90
10
 70
0
 10
30.853504
 20
44.695101
 30
0.0
 10
30.985354
 20
44.639097
 30
0.0
 10
31.041358
 20
44.501955
 30
0.0
 10
30.985354
 20
44.369663
 30
0.0
 10
30.853504
 20
44.314101
 30
0.0
 10
30.716362
 20
44.369663
 30
0.0
 10
30.660358
 20
44.501955
 30
0.0
 10
30.716362
 20
44.639097
 30
0.0
 10
30.853504
 20
44.695101
 30
0.0
 10
30.853504
 20
44.695101
 30
0.0
  0
LWPOLYLINE
  5
15b
100
AcDbEntity
  8
0
 62
7
100
AcDbPolyline
 90
10
 70
0
 10
40.504622
 20
44.674816
 30
0.0
 10
40.636914
 20
44.618813
 30
0.0
 10
40.692476
 20
44.481670
 30
0.0
 10
40.636914
 20
44.349379
 30
0.0
 10
40.504622
 20
44.293816
 30
0.0
 10
40.367480
 20
44.349379
 30
0.0
 10
40.311476
 20
44.481670
 30
0.0
 10
40.367480
 20
44.618813
 30
0.0
 10
40.504622
 20
44.674816
 30
0.0
 10
40.504622
 20
44.674816
 30
0.0
  0
LWPOLYLINE
  5
15c
100
AcDbEntity
  8
0
 62
7
100
AcDbPolyline
 90
10
 70
0
 10
39.996622
 20
44.654531
 30
0.0
 10
40.128914
 20
44.598528
 30
0.0
 10
40.184476
 20
44.466236
 30
0.0
 10
40.128914
 20
44.329094
 30
0.0
 10
39.996622
 20
44.273531
 30
0.0
 10
39.859480
 20
44.329094
 30
0.0
 10
39.803476
 20
44.466236
 30
0.0
 10
39.859480
 20
44.598528
 30
0.0
 10
39.996622
 20
44.654531
 30
0.0
 10
39.996622
 20
44.654531
 30
0.0
  0
LWPOLYLINE
  5
15d
100
AcDbEntity
  8
0
 62
7
100
AcDbPolyline
 90
10
 70
0
 10
41.393622
 20
44.644389
 30
0.0
 10
41.530764
 20
44.588386
 30
0.0
 10
41.586768
 20
44.456094
 30
0.0
 10
41.530764
 20
44.318952
 30
0.0
 10
41.393622
 20
44.263389
 30
0.0
 10
41.261772
 20
44.318952
 30
0.0
 10
41.205768
 20
44.456094
 30
0.0
 10
41.261772
 20
44.588386
 30
0.0
 10
41.393622
 20
44.644389
 30
0.0
 10
41.393622
 20
44.644389
 30
0.0
  0
LWPOLYLINE
  5
15e
100
AcDbEntity
  8
0
 62
7
100
AcDbPolyline
 90
10
 70
0
 10
42.211184
 20
44.644389
 30
0.0
 10
42.343476
 20
44.588386
 30
0.0
 10
42.399480
 20
44.456094
 30
0.0
 10
42.343476
 20
44.318952
 30
0.0
 10
42.211184
 20
44.263389
 30
0.0
 10
42.074042
 20
44.318952
 30
0.0
 10
42.018480
 20
44.456094
 30
0.0
 10
42.074042
 20
44.588386
 30
0.0
 10
42.211184
 20
44.644389
 30
0.0
 10
42.211184
 20
44.644389
 30
0.0
  0
LWPOLYLINE
  5
15f
100
AcDbEntity
  8
0
 62
7
100
AcDbPolyline
 90
10
 70
0
 10
45.051046
 20
44.644389
 30
0.0
 10
45.188188
 20
44.588386
 30
0.0
 10
45.244192
 20
44.456094
 30
0.0
 10
45.188188
 20
44.318952
 30
0.0
 10
45.051046
 20
44.263389
 30
0.0
 10
44.918754
 20
44.318952
 30
0.0
 10
44.863192
 20
44.456094
 30
0.0
 10
44.918754
 20
44.588386
 30
0.0
 10
45.051046
 20
44.644389
 30
0.0
 10
45.051046
 20
44.644389
 30
0.0
  0
LWPOLYLINE
  5
160
100
AcDbEntity
  8
0
 62
7
100
AcDbPolyline
 90
10
 70
0
 10
36.463111
 20
44.639097
 30
0.0
 10
36.600253
 20
44.583094
 30
0.0
 10
36.656257
 20
44.445952
 30
0.0
 10
36.600253
 20
44.314101
 30
0.0
 10
36.463111
 20
44.258097
 30
0.0
 10
36.331262
 20
44.314101
 30
0.0
 10
36.275257
 20
44.445952
 30
0.0
 10
36.331262
 20
44.583094
 30
0.0
 10
36.463111
 20
44.639097
 30
0.0
 10
36.463111
 20
44.639097
 30
0.0
  0
LWPOLYLINE
  5
161
100
AcDbEntity
  8
0
 62
7
100
AcDbPolyline
 90
10
 70
0
 10
37.464118
 20
44.639097
 30
0.0
 10
37.595969
 20
44.583094
 30
0.0
 10
37.651971
 20
44.451243
 30
0.0
 10
37.595969
 20
44.314101
 30
0.0
 10
37.464118
 20
44.258097
 30
0.0
 10
37.326976
 20
44.314101
 30
0.0
 10
37.270971
 20
44.451243
 30
0.0
 10
37.326976
 20
44.583094
 30
0.0
 10
37.464118
 20
44.639097
 30
0.0
 10
37.464118
 20
44.639097
 30
0.0
  0
LWPOLYLINE
  5
162
100
AcDbEntity
  8
0
 62
7
100
AcDbPolyline
 90
10
 70
0
 10
33.657206
 20
44.613521
 30
0.0
 10
33.794348
 20
44.557959
 30
0.0
 10
33.850350
 20
44.425667
 30
0.0
 10
33.794348
 20
44.288524
 30
0.0
 10
33.657206
 20
44.232521
 30
0.0
 10
33.525354
 20
44.288524
 30
0.0
 10
33.469350
 20
44.425667
 30
0.0
 10
33.525354
 20
44.557959
 30
0.0
 10
33.657206
 20
44.613521
 30
0.0
 10
33.657206
 20
44.613521
 30
0.0
  0
LWPOLYLINE
  5
163
100
AcDbEntity
  8
0
 62
7
100
AcDbPolyline
 90
10
 70
0
 10
29.862637
 20
44.603379
 30
0.0
 10
29.994930
 20
44.547816
 30
0.0
 10
30.050934
 20
44.410674
 30
0.0
 10
29.994930
 20
44.278382
 30
0.0
 10
29.862637
 20
44.222379
 30
0.0
 10
29.725495
 20
44.278382
 30
0.0
 10
29.669934
 20
44.410674
 30
0.0
 10
29.725495
 20
44.547816
 30
0.0
 10
29.862637
 20
44.603379
 30
0.0
 10
29.862637
 20
44.603379
 30
0.0
  0
LWPOLYLINE
  5
164
100
AcDbEntity
  8
0
 62
7
100
AcDbPolyline
 90
10
 70
0
 10
30.365788
 20
44.557959
 30
0.0
 10
30.497637
 20
44.501955
 30
0.0
 10
30.553642
 20
44.364813
 30
0.0
 10
30.497637
 20
44.232521
 30
0.0
 10
30.365788
 20
44.176959
 30
0.0
 10
30.228646
 20
44.232521
 30
0.0
 10
30.172642
 20
44.364813
 30
0.0
 10
30.228646
 20
44.501955
 30
0.0
 10
30.365788
 20
44.557959
 30
0.0
 10
30.365788
 20
44.557959
 30
0.0
  0
LWPOLYLINE
  5
165
100
AcDbEntity
  8
0
 62
7
100
AcDbPolyline
 90
10
 70
0
 10
26.673086
 20
44.552667
 30
0.0
 10
26.810228
 20
44.496663
 30
0.0
 10
26.866232
 20
44.364813
 30
0.0
 10
26.810228
 20
44.227670
 30
0.0
 10
26.673086
 20
44.171667
 30
0.0
 10
26.540793
 20
44.227670
 30
0.0
 10
26.485232
 20
44.364813
 30
0.0
 10
26.540793
 20
44.496663
 30
0.0
 10
26.673086
 20
44.552667
 30
0.0
 10
26.673086
 20
44.552667
 30
0.0
  0
LWPOLYLINE
  5
166
100
AcDbEntity
  8
0
 62
7
100
AcDbPolyline
 90
10
 70
0
 10
27.181086
 20
44.552667
 30
0.0
 10
27.313378
 20
44.496663
 30
0.0
 10
27.368940
 20
44.364813
 30
0.0
 10
27.313378
 20
44.227670
 30
0.0
 10
27.181086
 20
44.171667
 30
0.0
 10
27.043944
 20
44.227670
 30
0.0
 10
26.987940
 20
44.364813
 30
0.0
 10
27.043944
 20
44.496663
 30
0.0
 10
27.181086
 20
44.552667
 30
0.0
 10
27.181086
 20
44.552667
 30
0.0
  0
LWPOLYLINE
  5
167
100
AcDbEntity
  8
0
 62
7
100
AcDbPolyline
 90
10
 70
0
 10
36.966262
 20
44.547816
 30
0.0
 10
37.103404
 20
44.491813
 30
0.0
 10
37.159406
 20
44.354670
 30
0.0
 10
37.103404
 20
44.222379
 30
0.0
 10
36.966262
 20
44.166816
 30
0.0
 10
36.833969
 20
44.222379
 30
0.0
 10
36.778405
 20
44.354670
 30
0.0
 10
36.833969
 20
44.491813
 30
0.0
 10
36.966262
 20
44.547816
 30
0.0
 10
36.966262
 20
44.547816
 30
0.0
  0
LWPOLYLINE
  5
168
100
AcDbEntity
  8
0
 62
7
100
AcDbPolyline
 90
10
 70
0
 10
61.693340
 20
44.456976
 30
0.0
 10
61.840184
 20
44.394799
 30
0.0
 10
61.902361
 20
44.247955
 30
0.0
 10
61.840184
 20
44.095379
 30
0.0
 10
61.693340
 20
44.033643
 30
0.0
 10
61.541204
 20
44.095379
 30
0.0
 10
61.479027
 20
44.247955
 30
0.0
 10
61.541204
 20
44.394799
 30
0.0
 10
61.693340
 20
44.456976
 30
0.0
 10
61.693340
 20
44.456976
 30
0.0
  0
LWPOLYLINE
  5
169
100
AcDbEntity
  8
0
 62
7
100
AcDbPolyline
 90
10
 70
0
 10
66.776867
 20
44.326889
 30
0.0
 10
66.929444
 20
44.264712
 30
0.0
 10
66.991620
 20
44.118309
 30
0.0
 10
66.929444
 20
43.965733
 30
0.0
 10
66.776867
 20
43.903556
 30
0.0
 10
66.630024
 20
43.965733
 30
0.0
 10
66.568287
 20
44.118309
 30
0.0
 10
66.630024
 20
44.264712
 30
0.0
 10
66.776867
 20
44.326889
 30
0.0
 10
66.776867
 20
44.326889
 30
0.0
  0
LWPOLYLINE
  5
16a
100
AcDbEntity
  8
0
 62
7
100
AcDbPolyline
 90
10
 70
0
 10
70.201458
 20
44.310132
 30
0.0
 10
70.354034
 20
44.247955
 30
0.0
 10
70.416211
 20
44.095379
 30
0.0
 10
70.354034
 20
43.948976
 30
0.0
 10
70.201458
 20
43.886799
 30
0.0
 10
70.055055
 20
43.948976
 30
0.0
 10
69.992878
 20
44.095379
 30
0.0
 10
70.055055
 20
44.247955
 30
0.0
 10
70.201458
 20
44.310132
 30
0.0
 10
70.201458
 20
44.310132
 30
0.0
  0
LWPOLYLINE
  5
16b
100
AcDbEntity
  8
0
 62
7
100
AcDbPolyline
 90
10
 70
0
 10
70.765903
 20
44.310132
 30
0.0
 10
70.918479
 20
44.247955
 30
0.0
 10
70.980656
 20
44.095379
 30
0.0
 10
70.918479
 20
43.948976
 30
0.0
 10
70.765903
 20
43.886799
 30
0.0
 10
70.613767
 20
43.948976
 30
0.0
 10
70.557322
 20
44.095379
 30
0.0
 10
70.613767
 20
44.247955
 30
0.0
 10
70.765903
 20
44.310132
 30
0.0
 10
70.765903
 20
44.310132
 30
0.0
  0
LWPOLYLINE
  5
16c
100
AcDbEntity
  8
0
 62
7
100
AcDbPolyline
 90
10
 70
0
 10
66.223888
 20
44.281910
 30
0.0
 10
66.370732
 20
44.219733
 30
0.0
 10
66.432468
 20
44.067156
 30
0.0
 10
66.370732
 20
43.915021
 30
0.0
 10
66.223888
 20
43.858576
 30
0.0
 10
66.071312
 20
43.915021
 30
0.0
 10
66.009135
 20
44.067156
 30
0.0
 10
66.071312
 20
44.219733
 30
0.0
 10
66.223888
 20
44.281910
 30
0.0
 10
66.223888
 20
44.281910
 30
0.0
  0
LWPOLYLINE
  5
16d
100
AcDbEntity
  8
0
 62
7
100
AcDbPolyline
 90
10
 70
0
 10
60.982052
 20
44.208267
 30
0.0
 10
61.128896
 20
44.146531
 30
0.0
 10
61.191073
 20
43.999688
 30
0.0
 10
61.128896
 20
43.847111
 30
0.0
 10
60.982052
 20
43.784934
 30
0.0
 10
60.829916
 20
43.847111
 30
0.0
 10
60.767739
 20
43.999688
 30
0.0
 10
60.829916
 20
44.146531
 30
0.0
 10
60.982052
 20
44.208267
 30
0.0
 10
60.982052
 20
44.208267
 30
0.0
  0
LWPOLYLINE
  5
16e
100
AcDbEntity
  8
0
 62
7
100
AcDbPolyline
 90
10
 70
0
 10
64.182629
 20
44.208267
 30
0.0
 10
64.329472
 20
44.146531
 30
0.0
 10
64.391649
 20
43.999688
 30
0.0
 10
64.329472
 20
43.847111
 30
0.0
 10
64.182629
 20
43.784934
 30
0.0
 10
64.030052
 20
43.847111
 30
0.0
 10
63.968316
 20
43.999688
 30
0.0
 10
64.030052
 20
44.146531
 30
0.0
 10
64.182629
 20
44.208267
 30
0.0
 10
64.182629
 20
44.208267
 30
0.0
  0
LWPOLYLINE
  5
16f
100
AcDbEntity
  8
0
 62
7
100
AcDbPolyline
 90
10
 70
0
 10
72.878601
 20
44.208267
 30
0.0
 10
73.025444
 20
44.146531
 30
0.0
 10
73.087621
 20
43.999688
 30
0.0
 10
73.025444
 20
43.847111
 30
0.0
 10
72.878601
 20
43.784934
 30
0.0
 10
72.726465
 20
43.847111
 30
0.0
 10
72.664288
 20
43.999688
 30
0.0
 10
72.726465
 20
44.146531
 30
0.0
 10
72.878601
 20
44.208267
 30
0.0
 10
72.878601
 20
44.208267
 30
0.0
  0
LWPOLYLINE
  5
170
100
AcDbEntity
  8
0
 62
7
100
AcDbPolyline
 90
10
 70
0
 10
33.388212
 20
44.187101
 30
0.0
 10
33.520062
 20
44.131097
 30
0.0
 10
33.576066
 20
43.999247
 30
0.0
 10
33.520062
 20
43.861663
 30
0.0
 10
33.388212
 20
43.806101
 30
0.0
 10
33.251070
 20
43.861663
 30
0.0
 10
33.195066
 20
43.999247
 30
0.0
 10
33.251070
 20
44.131097
 30
0.0
 10
33.388212
 20
44.187101
 30
0.0
 10
33.388212
 20
44.187101
 30
0.0
  0
LWPOLYLINE
  5
171
100
AcDbEntity
  8
0
 62
7
100
AcDbPolyline
 90
10
 70
0
 10
67.318822
 20
44.174754
 30
0.0
 10
67.471398
 20
44.112576
 30
0.0
 10
67.533135
 20
43.965733
 30
0.0
 10
67.471398
 20
43.813156
 30
0.0
 10
67.318822
 20
43.751420
 30
0.0
 10
67.171979
 20
43.813156
 30
0.0
 10
67.109802
 20
43.965733
 30
0.0
 10
67.171979
 20
44.112576
 30
0.0
 10
67.318822
 20
44.174754
 30
0.0
 10
67.318822
 20
44.174754
 30
0.0
  0
LWPOLYLINE
  5
172
100
AcDbEntity
  8
0
 62
7
100
AcDbPolyline
 90
10
 70
0
 10
71.291100
 20
44.106844
 30
0.0
 10
71.437944
 20
44.044667
 30
0.0
 10
71.499681
 20
43.892531
 30
0.0
 10
71.437944
 20
43.745688
 30
0.0
 10
71.291100
 20
43.683511
 30
0.0
 10
71.138524
 20
43.745688
 30
0.0
 10
71.076347
 20
43.892531
 30
0.0
 10
71.138524
 20
44.044667
 30
0.0
 10
71.291100
 20
44.106844
 30
0.0
 10
71.291100
 20
44.106844
 30
0.0
  0
LWPOLYLINE
  5
173
100
AcDbEntity
  8
0
 62
7
100
AcDbPolyline
 90
10
 70
0
 10
69.682434
 20
44.101111
 30
0.0
 10
69.829277
 20
44.038934
 30
0.0
 10
69.891014
 20
43.892531
 30
0.0
 10
69.829277
 20
43.739955
 30
0.0
 10
69.682434
 20
43.677778
 30
0.0
 10
69.529857
 20
43.739955
 30
0.0
 10
69.467680
 20
43.892531
 30
0.0
 10
69.529857
 20
44.038934
 30
0.0
 10
69.682434
 20
44.101111
 30
0.0
 10
69.682434
 20
44.101111
 30
0.0
  0
LWPOLYLINE
  5
174
100
AcDbEntity
  8
0
 62
7
100
AcDbPolyline
 90
10
 70
0
 10
62.049204
 20
44.022177
 30
0.0
 10
62.195608
 20
43.960000
 30
0.0
 10
62.257785
 20
43.807865
 30
0.0
 10
62.195608
 20
43.661021
 30
0.0
 10
62.049204
 20
43.598844
 30
0.0
 10
61.896628
 20
43.661021
 30
0.0
 10
61.834451
 20
43.807865
 30
0.0
 10
61.896628
 20
43.960000
 30
0.0
 10
62.049204
 20
44.022177
 30
0.0
 10
62.049204
 20
44.022177
 30
0.0
  0
LWPOLYLINE
  5
175
100
AcDbEntity
  8
0
 62
7
100
AcDbPolyline
 90
10
 70
0
 10
65.715888
 20
44.022177
 30
0.0
 10
65.868024
 20
43.960000
 30
0.0
 10
65.930201
 20
43.813156
 30
0.0
 10
65.868024
 20
43.661021
 30
0.0
 10
65.715888
 20
43.598844
 30
0.0
 10
65.569044
 20
43.661021
 30
0.0
 10
65.506867
 20
43.813156
 30
0.0
 10
65.569044
 20
43.960000
 30
0.0
 10
65.715888
 20
44.022177
 30
0.0
 10
65.715888
 20
44.022177
 30
0.0
  0
LWPOLYLINE
  5
176
100
AcDbEntity
  8
0
 62
7
100
AcDbPolyline
 90
10
 70
0
 10
67.770378
 20
43.841379
 30
0.0
 10
67.917221
 20
43.779643
 30
0.0
 10
67.979398
 20
43.627066
 30
0.0
 10
67.917221
 20
43.480222
 30
0.0
 10
67.770378
 20
43.418045
 30
0.0
 10
67.617802
 20
43.480222
 30
0.0
 10
67.556065
 20
43.627066
 30
0.0
 10
67.617802
 20
43.779643
 30
0.0
 10
67.770378
 20
43.841379
 30
0.0
 10
67.770378
 20
43.841379
 30
0.0
  0
LWPOLYLINE
  5
177
100
AcDbEntity
  8
0
 62
7
100
AcDbPolyline
 90
10
 70
0
 10
33.072918
 20
43.790667
 30
0.0
 10
33.205208
 20
43.734663
 30
0.0
 10
33.261212
 20
43.597521
 30
0.0
 10
33.205208
 20
43.465670
 30
0.0
 10
33.072918
 20
43.409667
 30
0.0
 10
32.935773
 20
43.465670
 30
0.0
 10
32.880212
 20
43.597521
 30
0.0
 10
32.935773
 20
43.734663
 30
0.0
 10
33.072918
 20
43.790667
 30
0.0
 10
33.072918
 20
43.790667
 30
0.0
  0
LWPOLYLINE
  5
178
100
AcDbEntity
  8
0
 62
7
100
AcDbPolyline
 90
10
 70
0
 10
71.708701
 20
43.728490
 30
0.0
 10
71.855545
 20
43.666754
 30
0.0
 10
71.917722
 20
43.514177
 30
0.0
 10
71.855545
 20
43.367333
 30
0.0
 10
71.708701
 20
43.305156
 30
0.0
 10
71.556125
 20
43.367333
 30
0.0
 10
71.494388
 20
43.514177
 30
0.0
 10
71.556125
 20
43.666754
 30
0.0
 10
71.708701
 20
43.728490
 30
0.0
 10
71.708701
 20
43.728490
 30
0.0
  0
LWPOLYLINE
  5
179
100
AcDbEntity
  8
0
 62
7
100
AcDbPolyline
 90
10
 70
0
 10
69.264833
 20
43.723198
 30
0.0
 10
69.416968
 20
43.661021
 30
0.0
 10
69.479145
 20
43.514177
 30
0.0
 10
69.416968
 20
43.361601
 30
0.0
 10
69.264833
 20
43.299865
 30
0.0
 10
69.117989
 20
43.361601
 30
0.0
 10
69.055812
 20
43.514177
 30
0.0
 10
69.117989
 20
43.661021
 30
0.0
 10
69.264833
 20
43.723198
 30
0.0
 10
69.264833
 20
43.723198
 30
0.0
  0
LWPOLYLINE
  5
17a
100
AcDbEntity
  8
0
 62
7
100
AcDbPolyline
 90
10
 70
0
 10
60.982052
 20
43.643823
 30
0.0
 10
61.128896
 20
43.582087
 30
0.0
 10
61.191073
 20
43.435243
 30
0.0
 10
61.128896
 20
43.282667
 30
0.0
 10
60.982052
 20
43.220490
 30
0.0
 10
60.829916
 20
43.282667
 30
0.0
 10
60.767739
 20
43.435243
 30
0.0
 10
60.829916
 20
43.582087
 30
0.0
 10
60.982052
 20
43.643823
 30
0.0
 10
60.982052
 20
43.643823
 30
0.0
  0
LWPOLYLINE
  5
17b
100
AcDbEntity
  8
0
 62
7
100
AcDbPolyline
 90
10
 70
0
 10
64.182629
 20
43.643823
 30
0.0
 10
64.329472
 20
43.582087
 30
0.0
 10
64.391649
 20
43.435243
 30
0.0
 10
64.329472
 20
43.282667
 30
0.0
 10
64.182629
 20
43.220490
 30
0.0
 10
64.030052
 20
43.282667
 30
0.0
 10
63.968316
 20
43.435243
 30
0.0
 10
64.030052
 20
43.582087
 30
0.0
 10
64.182629
 20
43.643823
 30
0.0
 10
64.182629
 20
43.643823
 30
0.0
  0
LWPOLYLINE
  5
17c
100
AcDbEntity
  8
0
 62
7
100
AcDbPolyline
 90
10
 70
0
 10
72.878601
 20
43.643823
 30
0.0
 10
73.025444
 20
43.582087
 30
0.0
 10
73.087621
 20
43.435243
 30
0.0
 10
73.025444
 20
43.282667
 30
0.0
 10
72.878601
 20
43.220490
 30
0.0
 10
72.726465
 20
43.282667
 30
0.0
 10
72.664288
 20
43.435243
 30
0.0
 10
72.726465
 20
43.582087
 30
0.0
 10
72.878601
 20
43.643823
 30
0.0
 10
72.878601
 20
43.643823
 30
0.0
  0
LWPOLYLINE
  5
17d
100
AcDbEntity
  8
0
 62
7
100
AcDbPolyline
 90
10
 70
0
 10
32.077201
 20
43.638531
 30
0.0
 10
32.214784
 20
43.582528
 30
0.0
 10
32.270348
 20
43.450236
 30
0.0
 10
32.214784
 20
43.313094
 30
0.0
 10
32.077201
 20
43.257531
 30
0.0
 10
31.945349
 20
43.313094
 30
0.0
 10
31.889348
 20
43.450236
 30
0.0
 10
31.945349
 20
43.582528
 30
0.0
 10
32.077201
 20
43.638531
 30
0.0
 10
32.077201
 20
43.638531
 30
0.0
  0
LWPOLYLINE
  5
17e
100
AcDbEntity
  8
0
 62
7
100
AcDbPolyline
 90
10
 70
0
 10
32.585201
 20
43.638531
 30
0.0
 10
32.722784
 20
43.582528
 30
0.0
 10
32.778348
 20
43.450236
 30
0.0
 10
32.722784
 20
43.313094
 30
0.0
 10
32.585201
 20
43.257531
 30
0.0
 10
32.453350
 20
43.313094
 30
0.0
 10
32.397348
 20
43.450236
 30
0.0
 10
32.453350
 20
43.582528
 30
0.0
 10
32.585201
 20
43.638531
 30
0.0
 10
32.585201
 20
43.638531
 30
0.0
  0
LWPOLYLINE
  5
17f
100
AcDbEntity
  8
0
 62
7
100
AcDbPolyline
 90
10
 70
0
 10
65.337534
 20
43.610309
 30
0.0
 10
65.490110
 20
43.548132
 30
0.0
 10
65.552287
 20
43.401288
 30
0.0
 10
65.490110
 20
43.248712
 30
0.0
 10
65.337534
 20
43.186976
 30
0.0
 10
65.190690
 20
43.248712
 30
0.0
 10
65.128954
 20
43.401288
 30
0.0
 10
65.190690
 20
43.548132
 30
0.0
 10
65.337534
 20
43.610309
 30
0.0
 10
65.337534
 20
43.610309
 30
0.0
  0
LWPOLYLINE
  5
180
100
AcDbEntity
  8
0
 62
7
100
AcDbPolyline
 90
10
 70
0
 10
62.404628
 20
43.582087
 30
0.0
 10
62.551472
 20
43.519910
 30
0.0
 10
62.613649
 20
43.367333
 30
0.0
 10
62.551472
 20
43.220490
 30
0.0
 10
62.404628
 20
43.158754
 30
0.0
 10
62.252052
 20
43.220490
 30
0.0
 10
62.190316
 20
43.367333
 30
0.0
 10
62.252052
 20
43.519910
 30
0.0
 10
62.404628
 20
43.582087
 30
0.0
 10
62.404628
 20
43.582087
 30
0.0
  0
LWPOLYLINE
  5
181
100
AcDbEntity
  8
0
 62
7
100
AcDbPolyline
 90
10
 70
0
 10
71.228923
 20
43.429511
 30
0.0
 10
71.375767
 20
43.367333
 30
0.0
 10
71.437944
 20
43.220490
 30
0.0
 10
71.375767
 20
43.068354
 30
0.0
 10
71.228923
 20
43.006177
 30
0.0
 10
71.076347
 20
43.068354
 30
0.0
 10
71.014611
 20
43.220490
 30
0.0
 10
71.076347
 20
43.367333
 30
0.0
 10
71.228923
 20
43.429511
 30
0.0
 10
71.228923
 20
43.429511
 30
0.0
  0
LWPOLYLINE
  5
182
100
AcDbEntity
  8
0
 62
7
100
AcDbPolyline
 90
10
 70
0
 10
68.069357
 20
43.361601
 30
0.0
 10
68.216201
 20
43.299865
 30
0.0
 10
68.278378
 20
43.147288
 30
0.0
 10
68.216201
 20
43.000445
 30
0.0
 10
68.069357
 20
42.938267
 30
0.0
 10
67.917221
 20
43.000445
 30
0.0
 10
67.855044
 20
43.147288
 30
0.0
 10
67.917221
 20
43.299865
 30
0.0
 10
68.069357
 20
43.361601
 30
0.0
 10
68.069357
 20
43.361601
 30
0.0
  0
LWPOLYLINE
  5
183
100
AcDbEntity
  8
0
 62
7
100
AcDbPolyline
 90
10
 70
0
 10
69.016125
 20
43.226222
 30
0.0
 10
69.162968
 20
43.164045
 30
0.0
 10
69.225145
 20
43.011910
 30
0.0
 10
69.162968
 20
42.865066
 30
0.0
 10
69.016125
 20
42.802889
 30
0.0
 10
68.863989
 20
42.865066
 30
0.0
 10
68.801812
 20
43.011910
 30
0.0
 10
68.863989
 20
43.164045
 30
0.0
 10
69.016125
 20
43.226222
 30
0.0
 10
69.016125
 20
43.226222
 30
0.0
  0
LWPOLYLINE
  5
184
100
AcDbEntity
  8
0
 62
7
100
AcDbPolyline
 90
10
 70
0
 10
62.760052
 20
43.141556
 30
0.0
 10
62.906896
 20
43.079379
 30
0.0
 10
62.969073
 20
42.932976
 30
0.0
 10
62.906896
 20
42.780400
 30
0.0
 10
62.760052
 20
42.718222
 30
0.0
 10
62.607916
 20
42.780400
 30
0.0
 10
62.545739
 20
42.932976
 30
0.0
 10
62.607916
 20
43.079379
 30
0.0
 10
62.760052
 20
43.141556
 30
0.0
 10
62.760052
 20
43.141556
 30
0.0
  0
LWPOLYLINE
  5
185
100
AcDbEntity
  8
0
 62
7
100
AcDbPolyline
 90
10
 70
0
 10
70.749146
 20
43.130531
 30
0.0
 10
70.895989
 20
43.068354
 30
0.0
 10
70.958166
 20
42.921511
 30
0.0
 10
70.895989
 20
42.768934
 30
0.0
 10
70.749146
 20
42.707198
 30
0.0
 10
70.596569
 20
42.768934
 30
0.0
 10
70.534833
 20
42.921511
 30
0.0
 10
70.596569
 20
43.068354
 30
0.0
 10
70.749146
 20
43.130531
 30
0.0
 10
70.749146
 20
43.130531
 30
0.0
  0
LWPOLYLINE
  5
186
100
AcDbEntity
  8
0
 62
7
100
AcDbPolyline
 90
10
 70
0
 10
65.139978
 20
43.085111
 30
0.0
 10
65.286822
 20
43.022934
 30
0.0
 10
65.348999
 20
42.876531
 30
0.0
 10
65.286822
 20
42.723955
 30
0.0
 10
65.139978
 20
42.661778
 30
0.0
 10
64.987842
 20
42.723955
 30
0.0
 10
64.925666
 20
42.876531
 30
0.0
 10
64.987842
 20
43.022934
 30
0.0
 10
65.139978
 20
43.085111
 30
0.0
 10
65.139978
 20
43.085111
 30
0.0
  0
LWPOLYLINE
  5
187
100
AcDbEntity
  8
0
 62
7
100
AcDbPolyline
 90
10
 70
0
 10
60.982052
 20
43.079379
 30
0.0
 10
61.128896
 20
43.017643
 30
0.0
 10
61.191073
 20
42.870799
 30
0.0
 10
61.128896
 20
42.718222
 30
0.0
 10
60.982052
 20
42.656045
 30
0.0
 10
60.829916
 20
42.718222
 30
0.0
 10
60.767739
 20
42.870799
 30
0.0
 10
60.829916
 20
43.017643
 30
0.0
 10
60.982052
 20
43.079379
 30
0.0
 10
60.982052
 20
43.079379
 30
0.0
  0
LWPOLYLINE
  5
188
100
AcDbEntity
  8
0
 62
7
100
AcDbPolyline
 90
10
 70
0
 10
64.182629
 20
43.079379
 30
0.0
 10
64.329472
 20
43.017643
 30
0.0
 10
64.391649
 20
42.870799
 30
0.0
 10
64.329472
 20
42.718222
 30
0.0
 10
64.182629
 20
42.656045
 30
0.0
 10
64.030052
 20
42.718222
 30
0.0
 10
63.968316
 20
42.870799
 30
0.0
 10
64.030052
 20
43.017643
 30
0.0
 10
64.182629
 20
43.079379
 30
0.0
 10
64.182629
 20
43.079379
 30
0.0
  0
LWPOLYLINE
  5
189
100
AcDbEntity
  8
0
 62
7
100
AcDbPolyline
 90
10
 70
0
 10
72.878601
 20
43.079379
 30
0.0
 10
73.025444
 20
43.017643
 30
0.0
 10
73.087621
 20
42.870799
 30
0.0
 10
73.025444
 20
42.718222
 30
0.0
 10
72.878601
 20
42.656045
 30
0.0
 10
72.726465
 20
42.718222
 30
0.0
 10
72.664288
 20
42.870799
 30
0.0
 10
72.726465
 20
43.017643
 30
0.0
 10
72.878601
 20
43.079379
 30
0.0
 10
72.878601
 20
43.079379
 30
0.0
  0
LWPOLYLINE
  5
18a
100
AcDbEntity
  8
0
 62
7
100
AcDbPolyline
 90
10
 70
0
 10
70.269368
 20
42.836844
 30
0.0
 10
70.416211
 20
42.774667
 30
0.0
 10
70.478388
 20
42.622531
 30
0.0
 10
70.416211
 20
42.475688
 30
0.0
 10
70.269368
 20
42.413511
 30
0.0
 10
70.116792
 20
42.475688
 30
0.0
 10
70.055055
 20
42.622531
 30
0.0
 10
70.116792
 20
42.774667
 30
0.0
 10
70.269368
 20
42.836844
 30
0.0
 10
70.269368
 20
42.836844
 30
0.0
  0
LWPOLYLINE
  5
18b
100
AcDbEntity
  8
0
 62
7
100
AcDbPolyline
 90
10
 70
0
 10
68.171221
 20
42.808622
 30
0.0
 10
68.318065
 20
42.746445
 30
0.0
 10
68.379802
 20
42.599601
 30
0.0
 10
68.318065
 20
42.447465
 30
0.0
 10
68.171221
 20
42.385288
 30
0.0
 10
68.018645
 20
42.447465
 30
0.0
 10
67.956468
 20
42.599601
 30
0.0
 10
68.018645
 20
42.746445
 30
0.0
 10
68.171221
 20
42.808622
 30
0.0
 10
68.171221
 20
42.808622
 30
0.0
  0
LWPOLYLINE
  5
18c
100
AcDbEntity
  8
0
 62
7
100
AcDbPolyline
 90
10
 70
0
 10
63.115916
 20
42.701465
 30
0.0
 10
63.262760
 20
42.639288
 30
0.0
 10
63.324497
 20
42.492445
 30
0.0
 10
63.262760
 20
42.340309
 30
0.0
 10
63.115916
 20
42.278132
 30
0.0
 10
62.963340
 20
42.340309
 30
0.0
 10
62.901163
 20
42.492445
 30
0.0
 10
62.963340
 20
42.639288
 30
0.0
 10
63.115916
 20
42.701465
 30
0.0
 10
63.115916
 20
42.701465
 30
0.0
  0
LWPOLYLINE
  5
18d
100
AcDbEntity
  8
0
 62
7
100
AcDbPolyline
 90
10
 70
0
 10
68.965413
 20
42.667511
 30
0.0
 10
69.112257
 20
42.605333
 30
0.0
 10
69.174433
 20
42.453198
 30
0.0
 10
69.112257
 20
42.306354
 30
0.0
 10
68.965413
 20
42.244177
 30
0.0
 10
68.813277
 20
42.306354
 30
0.0
 10
68.751100
 20
42.453198
 30
0.0
 10
68.813277
 20
42.605333
 30
0.0
 10
68.965413
 20
42.667511
 30
0.0
 10
68.965413
 20
42.667511
 30
0.0
  0
LWPOLYLINE
  5
18e
100
AcDbEntity
  8
0
 62
7
100
AcDbPolyline
 90
10
 70
0
 10
69.789590
 20
42.537865
 30
0.0
 10
69.936434
 20
42.475688
 30
0.0
 10
69.998610
 20
42.323111
 30
0.0
 10
69.936434
 20
42.176267
 30
0.0
 10
69.789590
 20
42.114531
 30
0.0
 10
69.637014
 20
42.176267
 30
0.0
 10
69.575277
 20
42.323111
 30
0.0
 10
69.637014
 20
42.475688
 30
0.0
 10
69.789590
 20
42.537865
 30
0.0
 10
69.789590
 20
42.537865
 30
0.0
  0
LWPOLYLINE
  5
18f
100
AcDbEntity
  8
0
 62
7
100
AcDbPolyline
 90
10
 70
0
 10
65.139978
 20
42.526400
 30
0.0
 10
65.286822
 20
42.464222
 30
0.0
 10
65.348999
 20
42.317379
 30
0.0
 10
65.286822
 20
42.165243
 30
0.0
 10
65.139978
 20
42.103066
 30
0.0
 10
64.987842
 20
42.165243
 30
0.0
 10
64.925666
 20
42.317379
 30
0.0
 10
64.987842
 20
42.464222
 30
0.0
 10
65.139978
 20
42.526400
 30
0.0
 10
65.139978
 20
42.526400
 30
0.0
  0
LWPOLYLINE
  5
190
100
AcDbEntity
  8
0
 62
7
100
AcDbPolyline
 90
10
 70
0
 10
60.982052
 20
42.514934
 30
0.0
 10
61.128896
 20
42.453198
 30
0.0
 10
61.191073
 20
42.306354
 30
0.0
 10
61.128896
 20
42.153778
 30
0.0
 10
60.982052
 20
42.091601
 30
0.0
 10
60.829916
 20
42.153778
 30
0.0
 10
60.767739
 20
42.306354
 30
0.0
 10
60.829916
 20
42.453198
 30
0.0
 10
60.982052
 20
42.514934
 30
0.0
 10
60.982052
 20
42.514934
 30
0.0
  0
LWPOLYLINE
  5
191
100
AcDbEntity
  8
0
 62
7
100
AcDbPolyline
 90
10
 70
0
 10
64.182629
 20
42.514934
 30
0.0
 10
64.329472
 20
42.453198
 30
0.0
 10
64.391649
 20
42.306354
 30
0.0
 10
64.329472
 20
42.153778
 30
0.0
 10
64.182629
 20
42.091601
 30
0.0
 10
64.030052
 20
42.153778
 30
0.0
 10
63.968316
 20
42.306354
 30
0.0
 10
64.030052
 20
42.453198
 30
0.0
 10
64.182629
 20
42.514934
 30
0.0
 10
64.182629
 20
42.514934
 30
0.0
  0
LWPOLYLINE
  5
192
100
AcDbEntity
  8
0
 62
7
100
AcDbPolyline
 90
10
 70
0
 10
72.878601
 20
42.514934
 30
0.0
 10
73.025444
 20
42.453198
 30
0.0
 10
73.087621
 20
42.306354
 30
0.0
 10
73.025444
 20
42.153778
 30
0.0
 10
72.878601
 20
42.091601
 30
0.0
 10
72.726465
 20
42.153778
 30
0.0
 10
72.664288
 20
42.306354
 30
0.0
 10
72.726465
 20
42.453198
 30
0.0
 10
72.878601
 20
42.514934
 30
0.0
 10
72.878601
 20
42.514934
 30
0.0
  0
LWPOLYLINE
  5
193
100
AcDbEntity
  8
0
 62
7
100
AcDbPolyline
 90
10
 70
0
 10
63.471340
 20
42.266667
 30
0.0
 10
63.618184
 20
42.204490
 30
0.0
 10
63.680361
 20
42.052354
 30
0.0
 10
63.618184
 20
41.905511
 30
0.0
 10
63.471340
 20
41.843333
 30
0.0
 10
63.319205
 20
41.905511
 30
0.0
 10
63.257028
 20
42.052354
 30
0.0
 10
63.319205
 20
42.204490
 30
0.0
 10
63.471340
 20
42.266667
 30
0.0
 10
63.471340
 20
42.266667
 30
0.0
  0
LWPOLYLINE
  5
194
100
AcDbEntity
  8
0
 62
7
100
AcDbPolyline
 90
10
 70
0
 10
68.064065
 20
42.255643
 30
0.0
 10
68.216201
 20
42.193465
 30
0.0
 10
68.278378
 20
42.046622
 30
0.0
 10
68.216201
 20
41.894045
 30
0.0
 10
68.064065
 20
41.832309
 30
0.0
 10
67.917221
 20
41.894045
 30
0.0
 10
67.855044
 20
42.046622
 30
0.0
 10
67.917221
 20
42.193465
 30
0.0
 10
68.064065
 20
42.255643
 30
0.0
 10
68.064065
 20
42.255643
 30
0.0
  0
LWPOLYLINE
  5
195
100
AcDbEntity
  8
0
 62
7
100
AcDbPolyline
 90
10
 70
0
 10
71.855545
 20
42.125556
 30
0.0
 10
72.002388
 20
42.063379
 30
0.0
 10
72.064125
 20
41.911243
 30
0.0
 10
72.002388
 20
41.764400
 30
0.0
 10
71.855545
 20
41.702222
 30
0.0
 10
71.702969
 20
41.764400
 30
0.0
 10
71.640792
 20
41.911243
 30
0.0
 10
71.702969
 20
42.063379
 30
0.0
 10
71.855545
 20
42.125556
 30
0.0
 10
71.855545
 20
42.125556
 30
0.0
  0
LWPOLYLINE
  5
196
100
AcDbEntity
  8
0
 62
7
100
AcDbPolyline
 90
10
 70
0
 10
69.117989
 20
42.119823
 30
0.0
 10
69.270125
 20
42.058087
 30
0.0
 10
69.332302
 20
41.911243
 30
0.0
 10
69.270125
 20
41.758667
 30
0.0
 10
69.117989
 20
41.696490
 30
0.0
 10
68.971145
 20
41.758667
 30
0.0
 10
68.908968
 20
41.911243
 30
0.0
 10
68.971145
 20
42.058087
 30
0.0
 10
69.117989
 20
42.119823
 30
0.0
 10
69.117989
 20
42.119823
 30
0.0
  0
LWPOLYLINE
  5
197
100
AcDbEntity
  8
0
 62
7
100
AcDbPolyline
 90
10
 70
0
 10
65.337534
 20
42.001643
 30
0.0
 10
65.490110
 20
41.939465
 30
0.0
 10
65.552287
 20
41.792622
 30
0.0
 10
65.490110
 20
41.640045
 30
0.0
 10
65.337534
 20
41.578309
 30
0.0
 10
65.190690
 20
41.640045
 30
0.0
 10
65.128954
 20
41.792622
 30
0.0
 10
65.190690
 20
41.939465
 30
0.0
 10
65.337534
 20
42.001643
 30
0.0
 10
65.337534
 20
42.001643
 30
0.0
  0
LWPOLYLINE
  5
198
100
AcDbEntity
  8
0
 62
7
100
AcDbPolyline
 90
10
 70
0
 10
60.982052
 20
41.950490
 30
0.0
 10
61.128896
 20
41.888754
 30
0.0
 10
61.191073
 20
41.741910
 30
0.0
 10
61.128896
 20
41.589333
 30
0.0
 10
60.982052
 20
41.527156
 30
0.0
 10
60.829916
 20
41.589333
 30
0.0
 10
60.767739
 20
41.741910
 30
0.0
 10
60.829916
 20
41.888754
 30
0.0
 10
60.982052
 20
41.950490
 30
0.0
 10
60.982052
 20
41.950490
 30
0.0
  0
LWPOLYLINE
  5
199
100
AcDbEntity
  8
0
 62
7
100
AcDbPolyline
 90
16
 70
0
 10
64.182629
 20
41.950490
 30
0.0
 10
64.329472
 20
41.888754
 30
0.0
 10
64.391649
 20
41.741910
 30
0.0
 10
64.329472
 20
41.589333
 30
0.0
 10
64.182629
 20
41.527156
 30
0.0
 10
64.035785
 20
41.583601
 30
0.0
 10
63.972417
 20
41.448266
 30
0.0
 10
63.827205
 20
41.403243
 30
0.0
 10
63.674628
 20
41.465420
 30
0.0
 10
63.612452
 20
41.611823
 30
0.0
 10
63.674628
 20
41.764400
 30
0.0
 10
63.827205
 20
41.826576
 30
0.0
 10
63.973608
 20
41.764400
 30
0.0
 10
64.037195
 20
41.904011
 30
0.0
 10
64.182629
 20
41.950490
 30
0.0
 10
64.182629
 20
41.950490
 30
0.0
  0
LWPOLYLINE
  5
19a
100
AcDbEntity
  8
0
 62
7
100
AcDbPolyline
 90
10
 70
0
 10
72.878601
 20
41.950490
 30
0.0
 10
73.025444
 20
41.888754
 30
0.0
 10
73.087621
 20
41.741910
 30
0.0
 10
73.025444
 20
41.589333
 30
0.0
 10
72.878601
 20
41.527156
 30
0.0
 10
72.726465
 20
41.589333
 30
0.0
 10
72.664288
 20
41.741910
 30
0.0
 10
72.726465
 20
41.888754
 30
0.0
 10
72.878601
 20
41.950490
 30
0.0
 10
72.878601
 20
41.950490
 30
0.0
  0
LWPOLYLINE
  5
19b
100
AcDbEntity
  8
0
 62
7
100
AcDbPolyline
 90
10
 70
0
 10
67.770378
 20
41.775865
 30
0.0
 10
67.917221
 20
41.713688
 30
0.0
 10
67.979398
 20
41.566844
 30
0.0
 10
67.917221
 20
41.414267
 30
0.0
 10
67.770378
 20
41.352531
 30
0.0
 10
67.617802
 20
41.414267
 30
0.0
 10
67.556065
 20
41.566844
 30
0.0
 10
67.617802
 20
41.713688
 30
0.0
 10
67.770378
 20
41.775865
 30
0.0
 10
67.770378
 20
41.775865
 30
0.0
  0
LWPOLYLINE
  5
19c
100
AcDbEntity
  8
0
 62
7
100
AcDbPolyline
 90
10
 70
0
 10
69.456656
 20
41.679733
 30
0.0
 10
69.608792
 20
41.617556
 30
0.0
 10
69.670969
 20
41.465420
 30
0.0
 10
69.608792
 20
41.318576
 30
0.0
 10
69.456656
 20
41.256400
 30
0.0
 10
69.309812
 20
41.318576
 30
0.0
 10
69.247635
 20
41.465420
 30
0.0
 10
69.309812
 20
41.617556
 30
0.0
 10
69.456656
 20
41.679733
 30
0.0
 10
69.456656
 20
41.679733
 30
0.0
  0
LWPOLYLINE
  5
19d
100
AcDbEntity
  8
0
 62
7
100
AcDbPolyline
 90
10
 70
0
 10
71.516878
 20
41.679733
 30
0.0
 10
71.669014
 20
41.617556
 30
0.0
 10
71.731191
 20
41.465420
 30
0.0
 10
71.669014
 20
41.318576
 30
0.0
 10
71.516878
 20
41.256400
 30
0.0
 10
71.370035
 20
41.318576
 30
0.0
 10
71.307858
 20
41.465420
 30
0.0
 10
71.370035
 20
41.617556
 30
0.0
 10
71.516878
 20
41.679733
 30
0.0
 10
71.516878
 20
41.679733
 30
0.0
  0
LWPOLYLINE
  5
19e
100
AcDbEntity
  8
0
 62
7
100
AcDbPolyline
 90
26
 70
0
 10
14.153883
 20
41.629021
 30
0.0
 10
14.929119
 20
41.558164
 30
0.0
 10
15.191391
 20
41.423920
 30
0.0
 10
15.483856
 20
41.183198
 30
0.0
 10
15.902179
 20
40.703388
 30
0.0
 10
16.058002
 20
40.101934
 30
0.0
 10
16.074581
 20
39.653744
 30
0.0
 10
16.012098
 20
39.245789
 30
0.0
 10
15.875469
 20
38.884086
 30
0.0
 10
15.669611
 20
38.574653
 30
0.0
 10
15.399440
 20
38.323508
 30
0.0
 10
15.069873
 20
38.136669
 30
0.0
 10
14.685828
 20
38.020152
 30
0.0
 10
14.252220
 20
37.979976
 30
0.0
 10
13.600966
 20
38.050891
 30
0.0
 10
13.074357
 20
38.263672
 30
0.0
 10
12.671123
 20
38.618370
 30
0.0
 10
12.389994
 20
39.115038
 30
0.0
 10
12.260298
 20
39.684415
 30
0.0
 10
12.307816
 20
40.253812
 30
0.0
 10
12.525958
 20
40.787729
 30
0.0
 10
12.908137
 20
41.250667
 30
0.0
 10
13.155941
 20
41.446634
 30
0.0
 10
13.399760
 20
41.561488
 30
0.0
 10
14.153883
 20
41.629021
 30
0.0
 10
14.153883
 20
41.629021
 30
0.0
  0
LWPOLYLINE
  5
19f
100
AcDbEntity
  8
0
 62
7
100
AcDbPolyline
 90
10
 70
0
 10
65.721620
 20
41.583601
 30
0.0
 10
65.868024
 20
41.521865
 30
0.0
 10
65.930201
 20
41.375021
 30
0.0
 10
65.868024
 20
41.222445
 30
0.0
 10
65.721620
 20
41.160267
 30
0.0
 10
65.569044
 20
41.222445
 30
0.0
 10
65.506867
 20
41.375021
 30
0.0
 10
65.569044
 20
41.521865
 30
0.0
 10
65.721620
 20
41.583601
 30
0.0
 10
65.721620
 20
41.583601
 30
0.0
  0
LWPOLYLINE
  5
1a0
100
AcDbEntity
  8
0
 62
7
100
AcDbPolyline
 90
52
 70
0
 10
35.133140
 20
41.483941
 30
0.0
 10
37.008723
 20
41.440529
 30
0.0
 10
38.472182
 20
41.278007
 30
0.0
 10
39.583869
 20
40.998603
 30
0.0
 10
40.572183
 20
40.614024
 30
0.0
 10
41.413496
 20
40.135678
 30
0.0
 10
42.084184
 20
39.574972
 30
0.0
 10
42.496054
 20
39.094702
 30
0.0
 10
42.844716
 20
38.574985
 30
0.0
 10
43.130622
 20
38.021365
 30
0.0
 10
43.354222
 20
37.439388
 30
0.0
 10
43.616314
 20
36.212541
 30
0.0
 10
43.634606
 20
34.938801
 30
0.0
 10
43.412710
 20
33.662526
 30
0.0
 10
42.954240
 20
32.428076
 30
0.0
 10
42.262809
 20
31.279808
 30
0.0
 10
41.830862
 20
30.751854
 30
0.0
 10
41.342030
 20
30.262080
 30
0.0
 10
40.697425
 20
29.724830
 30
0.0
 10
40.059707
 20
29.283899
 30
0.0
 10
39.404267
 20
28.931679
 30
0.0
 10
38.706497
 20
28.660560
 30
0.0
 10
37.941790
 20
28.462934
 30
0.0
 10
37.085538
 20
28.331193
 30
0.0
 10
34.999965
 20
28.234930
 30
0.0
 10
33.487743
 20
28.265969
 30
0.0
 10
32.215707
 20
28.381900
 30
0.0
 10
30.946296
 20
28.616940
 30
0.0
 10
29.441950
 20
29.005309
 30
0.0
 10
28.443633
 20
29.330042
 30
0.0
 10
27.477148
 20
29.737941
 30
0.0
 10
26.561198
 20
30.215858
 30
0.0
 10
25.714483
 20
30.750641
 30
0.0
 10
24.955706
 20
31.329140
 30
0.0
 10
24.303568
 20
31.938204
 30
0.0
 10
23.776771
 20
32.564684
 30
0.0
 10
23.394015
 20
33.195428
 30
0.0
 10
23.127800
 20
33.911045
 30
0.0
 10
22.996778
 20
34.680646
 30
0.0
 10
22.994385
 20
35.475888
 30
0.0
 10
23.114056
 20
36.268430
 30
0.0
 10
23.349227
 20
37.029927
 30
0.0
 10
23.693333
 20
37.732036
 30
0.0
 10
24.139811
 20
38.346416
 30
0.0
 10
24.682096
 20
38.844722
 30
0.0
 10
25.889138
 20
39.537665
 30
0.0
 10
27.534532
 20
40.201506
 30
0.0
 10
29.458176
 20
40.781717
 30
0.0
 10
31.499969
 20
41.223767
 30
0.0
 10
33.183992
 20
41.410875
 30
0.0
 10
35.133140
 20
41.483941
 30
0.0
 10
35.133140
 20
41.483941
 30
0.0
  0
LWPOLYLINE
  5
1a1
100
AcDbEntity
  8
0
 62
7
100
AcDbPolyline
 90
10
 70
0
 10
67.324555
 20
41.442490
 30
0.0
 10
67.471398
 20
41.380754
 30
0.0
 10
67.533135
 20
41.228177
 30
0.0
 10
67.471398
 20
41.081333
 30
0.0
 10
67.324555
 20
41.019156
 30
0.0
 10
67.171979
 20
41.081333
 30
0.0
 10
67.109802
 20
41.228177
 30
0.0
 10
67.171979
 20
41.380754
 30
0.0
 10
67.324555
 20
41.442490
 30
0.0
 10
67.324555
 20
41.442490
 30
0.0
  0
LWPOLYLINE
  5
1a2
100
AcDbEntity
  8
0
 62
7
100
AcDbPolyline
 90
10
 70
0
 10
60.982052
 20
41.386045
 30
0.0
 10
61.128896
 20
41.324309
 30
0.0
 10
61.191073
 20
41.177465
 30
0.0
 10
61.128896
 20
41.024889
 30
0.0
 10
60.982052
 20
40.962712
 30
0.0
 10
60.829916
 20
41.024889
 30
0.0
 10
60.767739
 20
41.177465
 30
0.0
 10
60.829916
 20
41.324309
 30
0.0
 10
60.982052
 20
41.386045
 30
0.0
 10
60.982052
 20
41.386045
 30
0.0
  0
LWPOLYLINE
  5
1a3
100
AcDbEntity
  8
0
 62
7
100
AcDbPolyline
 90
10
 70
0
 10
64.182629
 20
41.386045
 30
0.0
 10
64.329472
 20
41.324309
 30
0.0
 10
64.391649
 20
41.177465
 30
0.0
 10
64.329472
 20
41.024889
 30
0.0
 10
64.182629
 20
40.962712
 30
0.0
 10
64.030052
 20
41.024889
 30
0.0
 10
63.968316
 20
41.177465
 30
0.0
 10
64.030052
 20
41.324309
 30
0.0
 10
64.182629
 20
41.386045
 30
0.0
 10
64.182629
 20
41.386045
 30
0.0
  0
LWPOLYLINE
  5
1a4
100
AcDbEntity
  8
0
 62
7
100
AcDbPolyline
 90
10
 70
0
 10
72.878601
 20
41.386045
 30
0.0
 10
73.025444
 20
41.324309
 30
0.0
 10
73.087621
 20
41.177465
 30
0.0
 10
73.025444
 20
41.024889
 30
0.0
 10
72.878601
 20
40.962712
 30
0.0
 10
72.726465
 20
41.024889
 30
0.0
 10
72.664288
 20
41.177465
 30
0.0
 10
72.726465
 20
41.324309
 30
0.0
 10
72.878601
 20
41.386045
 30
0.0
 10
72.878601
 20
41.386045
 30
0.0
  0
LWPOLYLINE
  5
1a5
100
AcDbEntity
  8
0
 62
7
100
AcDbPolyline
 90
10
 70
0
 10
69.930701
 20
41.380754
 30
0.0
 10
70.083277
 20
41.318576
 30
0.0
 10
70.145014
 20
41.166000
 30
0.0
 10
70.083277
 20
41.019156
 30
0.0
 10
69.930701
 20
40.957420
 30
0.0
 10
69.783857
 20
41.019156
 30
0.0
 10
69.721680
 20
41.166000
 30
0.0
 10
69.783857
 20
41.318576
 30
0.0
 10
69.930701
 20
41.380754
 30
0.0
 10
69.930701
 20
41.380754
 30
0.0
  0
LWPOLYLINE
  5
1a6
100
AcDbEntity
  8
0
 62
7
100
AcDbPolyline
 90
10
 70
0
 10
71.042833
 20
41.380754
 30
0.0
 10
71.189236
 20
41.318576
 30
0.0
 10
71.251413
 20
41.171733
 30
0.0
 10
71.189236
 20
41.019156
 30
0.0
 10
71.042833
 20
40.957420
 30
0.0
 10
70.890257
 20
41.019156
 30
0.0
 10
70.828080
 20
41.171733
 30
0.0
 10
70.890257
 20
41.318576
 30
0.0
 10
71.042833
 20
41.380754
 30
0.0
 10
71.042833
 20
41.380754
 30
0.0
  0
LWPOLYLINE
  5
1a7
100
AcDbEntity
  8
0
 62
7
100
AcDbPolyline
 90
10
 70
0
 10
66.223888
 20
41.341066
 30
0.0
 10
66.370732
 20
41.278889
 30
0.0
 10
66.432468
 20
41.126754
 30
0.0
 10
66.370732
 20
40.979910
 30
0.0
 10
66.223888
 20
40.917733
 30
0.0
 10
66.071312
 20
40.979910
 30
0.0
 10
66.009135
 20
41.126754
 30
0.0
 10
66.071312
 20
41.278889
 30
0.0
 10
66.223888
 20
41.341066
 30
0.0
 10
66.223888
 20
41.341066
 30
0.0
  0
LWPOLYLINE
  5
1a8
100
AcDbEntity
  8
0
 62
7
100
AcDbPolyline
 90
10
 70
0
 10
66.782600
 20
41.290354
 30
0.0
 10
66.929444
 20
41.228177
 30
0.0
 10
66.991620
 20
41.075601
 30
0.0
 10
66.929444
 20
40.929198
 30
0.0
 10
66.782600
 20
40.867021
 30
0.0
 10
66.630024
 20
40.929198
 30
0.0
 10
66.568287
 20
41.075601
 30
0.0
 10
66.630024
 20
41.228177
 30
0.0
 10
66.782600
 20
41.290354
 30
0.0
 10
66.782600
 20
41.290354
 30
0.0
  0
LWPOLYLINE
  5
1a9
100
AcDbEntity
  8
0
 62
7
100
AcDbPolyline
 90
10
 70
0
 10
70.489413
 20
41.278889
 30
0.0
 10
70.641989
 20
41.216712
 30
0.0
 10
70.704166
 20
41.064576
 30
0.0
 10
70.641989
 20
40.917733
 30
0.0
 10
70.489413
 20
40.855556
 30
0.0
 10
70.342569
 20
40.917733
 30
0.0
 10
70.280833
 20
41.064576
 30
0.0
 10
70.342569
 20
41.216712
 30
0.0
 10
70.489413
 20
41.278889
 30
0.0
 10
70.489413
 20
41.278889
 30
0.0
  0
LWPOLYLINE
  5
1aa
100
AcDbEntity
  8
0
 62
7
100
AcDbPolyline
 90
43
 70
0
 10
59.518463
 20
38.772403
 30
0.0
 10
60.670037
 20
38.749365
 30
0.0
 10
61.487846
 20
38.655545
 30
0.0
 10
62.156824
 20
38.366274
 30
0.0
 10
62.807475
 20
37.892071
 30
0.0
 10
63.389876
 20
37.275951
 30
0.0
 10
63.854104
 20
36.560928
 30
0.0
 10
64.086588
 20
36.063540
 30
0.0
 10
64.233705
 20
35.612988
 30
0.0
 10
64.371805
 20
34.411628
 30
0.0
 10
64.371800
 20
33.276210
 30
0.0
 10
64.203795
 20
32.465177
 30
0.0
 10
64.019205
 20
32.047979
 30
0.0
 10
63.758695
 20
31.630151
 30
0.0
 10
63.036988
 20
30.807810
 30
0.0
 10
62.092814
 20
30.028561
 30
0.0
 10
60.980312
 20
29.322808
 30
0.0
 10
59.753624
 20
28.720960
 30
0.0
 10
58.466888
 20
28.253423
 30
0.0
 10
57.174244
 20
27.950603
 30
0.0
 10
55.929831
 20
27.842905
 30
0.0
 10
54.795371
 20
27.910247
 30
0.0
 10
53.771003
 20
28.107941
 30
0.0
 10
52.865749
 20
28.429495
 30
0.0
 10
52.088631
 20
28.868417
 30
0.0
 10
51.448669
 20
29.418211
 30
0.0
 10
50.954884
 20
30.072385
 30
0.0
 10
50.616298
 20
30.824446
 30
0.0
 10
50.441932
 20
31.667899
 30
0.0
 10
50.425390
 20
32.268360
 30
0.0
 10
50.490717
 20
32.852670
 30
0.0
 10
50.637091
 20
33.419879
 30
0.0
 10
50.863692
 20
33.969032
 30
0.0
 10
51.169700
 20
34.499179
 30
0.0
 10
51.554293
 20
35.009366
 30
0.0
 10
52.016650
 20
35.498643
 30
0.0
 10
52.555952
 20
35.966056
 30
0.0
 10
53.762364
 20
36.740453
 30
0.0
 10
55.371721
 20
37.559168
 30
0.0
 10
57.046702
 20
38.263841
 30
0.0
 10
58.449988
 20
38.696115
 30
0.0
 10
59.518463
 20
38.772403
 30
0.0
 10
59.518463
 20
38.772403
 30
0.0
  0
LWPOLYLINE
  5
1ab
100
AcDbEntity
  8
0
 62
7
100
AcDbPolyline
 90
28
 70
0
 10
70.632730
 20
38.476511
 30
0.0
 10
71.201375
 20
38.416466
 30
0.0
 10
71.707821
 20
38.196052
 30
0.0
 10
72.053270
 20
37.892186
 30
0.0
 10
72.308206
 20
37.518664
 30
0.0
 10
72.466017
 20
37.091922
 30
0.0
 10
72.520090
 20
36.628396
 30
0.0
 10
72.475693
 20
36.111417
 30
0.0
 10
72.332870
 20
35.695815
 30
0.0
 10
72.077172
 20
35.351173
 30
0.0
 10
71.694150
 20
35.047070
 30
0.0
 10
71.337316
 20
34.866468
 30
0.0
 10
70.949970
 20
34.768053
 30
0.0
 10
70.548845
 20
34.747871
 30
0.0
 10
70.150675
 20
34.801968
 30
0.0
 10
69.772191
 20
34.926390
 30
0.0
 10
69.430128
 20
35.117184
 30
0.0
 10
69.141219
 20
35.370395
 30
0.0
 10
68.922197
 20
35.682070
 30
0.0
 10
68.779758
 20
36.132957
 30
0.0
 10
68.748840
 20
36.673813
 30
0.0
 10
68.825547
 20
37.212135
 30
0.0
 10
69.005983
 20
37.655420
 30
0.0
 10
69.305939
 20
37.994944
 30
0.0
 10
69.698617
 20
38.249105
 30
0.0
 10
70.151664
 20
38.411695
 30
0.0
 10
70.632730
 20
38.476511
 30
0.0
 10
70.632730
 20
38.476511
 30
0.0
  0
LWPOLYLINE
  5
1ac
100
AcDbEntity
  8
0
 62
7
100
AcDbPolyline
 90
43
 70
0
 10
17.963443
 20
27.527171
 30
0.0
 10
19.344839
 20
27.381321
 30
0.0
 10
20.846078
 20
26.991389
 30
0.0
 10
22.057302
 20
26.533986
 30
0.0
 10
23.185844
 20
25.998056
 30
0.0
 10
24.159511
 20
25.421578
 30
0.0
 10
24.906110
 20
24.842531
 30
0.0
 10
25.381849
 20
24.266422
 30
0.0
 10
25.698725
 20
23.588955
 30
0.0
 10
25.860725
 20
22.805049
 30
0.0
 10
25.871839
 20
21.909626
 30
0.0
 10
25.785358
 20
21.307054
 30
0.0
 10
25.623585
 20
20.730772
 30
0.0
 10
25.391273
 20
20.188068
 30
0.0
 10
25.093176
 20
19.686227
 30
0.0
 10
24.734048
 20
19.232537
 30
0.0
 10
24.318642
 20
18.834284
 30
0.0
 10
23.851713
 20
18.498756
 30
0.0
 10
23.338013
 20
18.233239
 30
0.0
 10
22.440778
 20
17.983208
 30
0.0
 10
21.365529
 20
17.903112
 30
0.0
 10
20.174447
 20
17.979175
 30
0.0
 10
18.929714
 20
18.197626
 30
0.0
 10
17.693512
 20
18.544689
 30
0.0
 10
16.528024
 20
19.006591
 30
0.0
 10
15.495431
 20
19.569559
 30
0.0
 10
14.657915
 20
20.219819
 30
0.0
 10
13.995965
 20
20.914418
 30
0.0
 10
13.604375
 20
21.559603
 30
0.0
 10
13.417535
 20
22.308693
 30
0.0
 10
13.369835
 20
23.315004
 30
0.0
 10
13.433012
 20
24.553358
 30
0.0
 10
13.547321
 20
24.943811
 30
0.0
 10
13.748189
 20
25.355823
 30
0.0
 10
14.079534
 20
25.872154
 30
0.0
 10
14.472500
 20
26.319642
 30
0.0
 10
14.924212
 20
26.697720
 30
0.0
 10
15.431799
 20
27.005822
 30
0.0
 10
15.992388
 20
27.243385
 30
0.0
 10
16.603107
 20
27.409841
 30
0.0
 10
17.261082
 20
27.504625
 30
0.0
 10
17.963443
 20
27.527171
 30
0.0
 10
17.963443
 20
27.527171
 30
0.0
  0
LWPOLYLINE
  5
1ad
100
AcDbEntity
  8
0
 62
7
100
AcDbPolyline
 90
58
 70
0
 10
69.460185
 20
25.132251
 30
0.0
 10
71.680039
 20
25.004368
 30
0.0
 10
72.889499
 20
24.820830
 30
0.0
 10
73.984756
 20
24.559855
 30
0.0
 10
74.977627
 20
24.214944
 30
0.0
 10
75.879931
 20
23.779597
 30
0.0
 10
76.703485
 20
23.247316
 30
0.0
 10
77.460106
 20
22.611600
 30
0.0
 10
78.161613
 20
21.865951
 30
0.0
 10
78.819821
 20
21.003868
 30
0.0
 10
79.244370
 20
20.326275
 30
0.0
 10
79.614794
 20
19.602433
 30
0.0
 10
80.191934
 20
18.023606
 30
0.0
 10
80.548574
 20
16.282586
 30
0.0
 10
80.682046
 20
14.394576
 30
0.0
 10
80.593427
 20
12.611415
 30
0.0
 10
80.298586
 20
10.965731
 30
0.0
 10
79.801293
 20
9.463230
 30
0.0
 10
79.105323
 20
8.109615
 30
0.0
 10
78.214445
 20
6.910588
 30
0.0
 10
77.132434
 20
5.871854
 30
0.0
 10
75.863061
 20
4.999115
 30
0.0
 10
74.410099
 20
4.298076
 30
0.0
 10
73.725412
 20
4.040249
 30
0.0
 10
73.132600
 20
3.907905
 30
0.0
 10
70.910100
 20
3.852253
 30
0.0
 10
68.691148
 20
3.924855
 30
0.0
 10
67.957056
 20
4.036541
 30
0.0
 10
67.144197
 20
4.230607
 30
0.0
 10
65.526499
 20
4.748389
 30
0.0
 10
64.038552
 20
5.405245
 30
0.0
 10
62.688074
 20
6.194520
 30
0.0
 10
61.482783
 20
7.109558
 30
0.0
 10
60.430398
 20
8.143707
 30
0.0
 10
59.538638
 20
9.290310
 30
0.0
 10
58.815221
 20
10.542714
 30
0.0
 10
58.267867
 20
11.894263
 30
0.0
 10
58.022897
 20
12.798556
 30
0.0
 10
57.893467
 20
13.674958
 30
0.0
 10
57.874287
 20
14.596976
 30
0.0
 10
57.960068
 20
15.638117
 30
0.0
 10
58.114222
 20
16.628495
 30
0.0
 10
58.327092
 20
17.547417
 30
0.0
 10
58.602295
 20
18.403287
 30
0.0
 10
58.943444
 20
19.204505
 30
0.0
 10
59.354156
 20
19.959474
 30
0.0
 10
59.838046
 20
20.676593
 30
0.0
 10
60.398729
 20
21.364266
 30
0.0
 10
61.039820
 20
22.030893
 30
0.0
 10
61.691501
 20
22.640389
 30
0.0
 10
62.252648
 20
23.085171
 30
0.0
 10
62.837419
 20
23.448857
 30
0.0
 10
63.559974
 20
23.815066
 30
0.0
 10
64.965548
 20
24.391598
 30
0.0
 10
66.405981
 20
24.800813
 30
0.0
 10
67.898463
 20
25.046451
 30
0.0
 10
69.460185
 20
25.132251
 30
0.0
 10
69.460185
 20
25.132251
 30
0.0
  0
LWPOLYLINE
  5
1ae
100
AcDbEntity
  8
0
 62
7
100
AcDbPolyline
 90
32
 70
0
 10
45.788351
 20
24.705389
 30
0.0
 10
46.208937
 20
24.681890
 30
0.0
 10
46.634137
 20
24.585445
 30
0.0
 10
47.155416
 20
24.360093
 30
0.0
 10
47.622882
 20
24.049828
 30
0.0
 10
47.998472
 20
23.686343
 30
0.0
 10
48.244127
 20
23.301333
 30
0.0
 10
48.407750
 20
22.732652
 30
0.0
 10
48.440122
 20
22.127280
 30
0.0
 10
48.346494
 20
21.554852
 30
0.0
 10
48.132119
 20
21.085006
 30
0.0
 10
47.715632
 20
20.589543
 30
0.0
 10
47.267661
 20
20.273988
 30
0.0
 10
46.698940
 20
20.100352
 30
0.0
 10
45.920203
 20
20.030642
 30
0.0
 10
45.271292
 20
20.028526
 30
0.0
 10
44.718986
 20
20.094828
 30
0.0
 10
44.260178
 20
20.232085
 30
0.0
 10
43.891760
 20
20.442832
 30
0.0
 10
43.610623
 20
20.729607
 30
0.0
 10
43.413659
 20
21.094946
 30
0.0
 10
43.297760
 20
21.541385
 30
0.0
 10
43.259818
 20
22.071461
 30
0.0
 10
43.299874
 20
22.653957
 30
0.0
 10
43.433147
 20
23.132598
 30
0.0
 10
43.679295
 20
23.550416
 30
0.0
 10
44.057976
 20
23.950445
 30
0.0
 10
44.465603
 20
24.269604
 30
0.0
 10
44.892147
 20
24.502051
 30
0.0
 10
45.334199
 20
24.647431
 30
0.0
 10
45.788351
 20
24.705389
 30
0.0
 10
45.788351
 20
24.705389
 30
0.0
  0
LWPOLYLINE
  5
1af
100
AcDbEntity
  8
0
 62
7
100
AcDbPolyline
 90
31
 70
0
 10
5.230810
 20
22.019428
 30
0.0
 10
5.810662
 20
21.962094
 30
0.0
 10
6.383952
 20
21.774247
 30
0.0
 10
6.910622
 20
21.444811
 30
0.0
 10
7.363792
 20
21.003868
 30
0.0
 10
7.598532
 20
20.682658
 30
0.0
 10
7.719110
 20
20.319638
 30
0.0
 10
7.769928
 20
18.571025
 30
0.0
 10
7.743685
 20
17.292455
 30
0.0
 10
7.612450
 20
16.513082
 30
0.0
 10
7.482849
 20
16.241710
 30
0.0
 10
7.297466
 20
16.012476
 30
0.0
 10
6.719973
 20
15.570208
 30
0.0
 10
6.130852
 20
15.345359
 30
0.0
 10
5.367136
 20
15.261239
 30
0.0
 10
4.579795
 20
15.321572
 30
0.0
 10
3.919799
 20
15.530080
 30
0.0
 10
3.391742
 20
15.876637
 30
0.0
 10
3.055318
 20
16.335965
 30
0.0
 10
2.860644
 20
17.010705
 30
0.0
 10
2.757837
 20
18.003494
 30
0.0
 10
2.751052
 20
19.485594
 30
0.0
 10
2.820582
 20
20.057636
 30
0.0
 10
2.945073
 20
20.534325
 30
0.0
 10
3.129283
 20
20.928651
 30
0.0
 10
3.377970
 20
21.253603
 30
0.0
 10
3.695893
 20
21.522173
 30
0.0
 10
4.087810
 20
21.747348
 30
0.0
 10
4.653403
 20
21.947377
 30
0.0
 10
5.230810
 20
22.019428
 30
0.0
 10
5.230810
 20
22.019428
 30
0.0
  0
LWPOLYLINE
  5
1b0
100
AcDbEntity
  8
0
 62
7
100
AcDbPolyline
 90
10
 70
0
 10
32.136732
 20
18.710373
 30
0.0
 10
32.319294
 20
18.635848
 30
0.0
 10
32.393819
 20
18.452844
 30
0.0
 10
32.319294
 20
18.276895
 30
0.0
 10
32.136732
 20
18.202373
 30
0.0
 10
31.960343
 20
18.276895
 30
0.0
 10
31.885819
 20
18.452844
 30
0.0
 10
31.960343
 20
18.635848
 30
0.0
 10
32.136732
 20
18.710373
 30
0.0
 10
32.136732
 20
18.710373
 30
0.0
  0
LWPOLYLINE
  5
1b1
100
AcDbEntity
  8
0
 62
7
100
AcDbPolyline
 90
10
 70
0
 10
31.459399
 20
18.696702
 30
0.0
 10
31.641961
 20
18.622177
 30
0.0
 10
31.716485
 20
18.439173
 30
0.0
 10
31.641961
 20
18.263227
 30
0.0
 10
31.459399
 20
18.188702
 30
0.0
 10
31.283010
 20
18.263227
 30
0.0
 10
31.208485
 20
18.439173
 30
0.0
 10
31.283010
 20
18.622177
 30
0.0
 10
31.459399
 20
18.696702
 30
0.0
 10
31.459399
 20
18.696702
 30
0.0
  0
LWPOLYLINE
  5
1b2
100
AcDbEntity
  8
0
 62
7
100
AcDbPolyline
 90
10
 70
0
 10
53.390714
 20
18.615562
 30
0.0
 10
53.566662
 20
18.541039
 30
0.0
 10
53.641185
 20
18.364650
 30
0.0
 10
53.566662
 20
18.182087
 30
0.0
 10
53.390714
 20
18.107562
 30
0.0
 10
53.207710
 20
18.182087
 30
0.0
 10
53.133185
 20
18.364650
 30
0.0
 10
53.207710
 20
18.541039
 30
0.0
 10
53.390714
 20
18.615562
 30
0.0
 10
53.390714
 20
18.615562
 30
0.0
  0
LWPOLYLINE
  5
1b3
100
AcDbEntity
  8
0
 62
7
100
AcDbPolyline
 90
10
 70
0
 10
54.068047
 20
18.615562
 30
0.0
 10
54.243996
 20
18.541039
 30
0.0
 10
54.318518
 20
18.364650
 30
0.0
 10
54.243996
 20
18.182087
 30
0.0
 10
54.068047
 20
18.107562
 30
0.0
 10
53.885043
 20
18.182087
 30
0.0
 10
53.810518
 20
18.364650
 30
0.0
 10
53.885043
 20
18.541039
 30
0.0
 10
54.068047
 20
18.615562
 30
0.0
 10
54.068047
 20
18.615562
 30
0.0
  0
LWPOLYLINE
  5
1b4
100
AcDbEntity
  8
0
 62
7
100
AcDbPolyline
 90
10
 70
0
 10
32.766440
 20
18.473128
 30
0.0
 10
32.949444
 20
18.398605
 30
0.0
 10
33.023969
 20
18.215601
 30
0.0
 10
32.949444
 20
18.039652
 30
0.0
 10
32.766440
 20
17.965128
 30
0.0
 10
32.590494
 20
18.039652
 30
0.0
 10
32.515969
 20
18.215601
 30
0.0
 10
32.590494
 20
18.398605
 30
0.0
 10
32.766440
 20
18.473128
 30
0.0
 10
32.766440
 20
18.473128
 30
0.0
  0
LWPOLYLINE
  5
1b5
100
AcDbEntity
  8
0
 62
7
100
AcDbPolyline
 90
10
 70
0
 10
30.836304
 20
18.452844
 30
0.0
 10
31.018868
 20
18.378319
 30
0.0
 10
31.093393
 20
18.202373
 30
0.0
 10
31.018868
 20
18.019368
 30
0.0
 10
30.836304
 20
17.944844
 30
0.0
 10
30.659917
 20
18.019368
 30
0.0
 10
30.585393
 20
18.202373
 30
0.0
 10
30.659917
 20
18.378319
 30
0.0
 10
30.836304
 20
18.452844
 30
0.0
 10
30.836304
 20
18.452844
 30
0.0
  0
LWPOLYLINE
  5
1b6
100
AcDbEntity
  8
0
 62
7
100
AcDbPolyline
 90
10
 70
0
 10
33.220202
 20
17.985414
 30
0.0
 10
33.403206
 20
17.910889
 30
0.0
 10
33.477728
 20
17.727885
 30
0.0
 10
33.403206
 20
17.551938
 30
0.0
 10
33.220202
 20
17.477414
 30
0.0
 10
33.044253
 20
17.551938
 30
0.0
 10
32.969728
 20
17.727885
 30
0.0
 10
33.044253
 20
17.910889
 30
0.0
 10
33.220202
 20
17.985414
 30
0.0
 10
33.220202
 20
17.985414
 30
0.0
  0
LWPOLYLINE
  5
1b7
100
AcDbEntity
  8
0
 62
7
100
AcDbPolyline
 90
10
 70
0
 10
54.068047
 20
17.938228
 30
0.0
 10
54.243996
 20
17.863706
 30
0.0
 10
54.318518
 20
17.687317
 30
0.0
 10
54.243996
 20
17.504753
 30
0.0
 10
54.068047
 20
17.430228
 30
0.0
 10
53.885043
 20
17.504753
 30
0.0
 10
53.810518
 20
17.687317
 30
0.0
 10
53.885043
 20
17.863706
 30
0.0
 10
54.068047
 20
17.938228
 30
0.0
 10
54.068047
 20
17.938228
 30
0.0
  0
LWPOLYLINE
  5
1b8
100
AcDbEntity
  8
0
 62
7
100
AcDbPolyline
 90
10
 70
0
 10
30.483969
 20
17.897218
 30
0.0
 10
30.659917
 20
17.823136
 30
0.0
 10
30.734440
 20
17.646747
 30
0.0
 10
30.659917
 20
17.463743
 30
0.0
 10
30.483969
 20
17.389218
 30
0.0
 10
30.300965
 20
17.463743
 30
0.0
 10
30.226440
 20
17.646747
 30
0.0
 10
30.300965
 20
17.823136
 30
0.0
 10
30.483969
 20
17.897218
 30
0.0
 10
30.483969
 20
17.897218
 30
0.0
  0
LWPOLYLINE
  5
1b9
100
AcDbEntity
  8
0
 62
7
100
AcDbPolyline
 90
10
 70
0
 10
50.855563
 20
17.382605
 30
0.0
 10
51.038127
 20
17.308080
 30
0.0
 10
51.112652
 20
17.125076
 30
0.0
 10
51.038127
 20
16.949128
 30
0.0
 10
50.855563
 20
16.874605
 30
0.0
 10
50.679174
 20
16.949128
 30
0.0
 10
50.604652
 20
17.125076
 30
0.0
 10
50.679174
 20
17.308080
 30
0.0
 10
50.855563
 20
17.382605
 30
0.0
 10
50.855563
 20
17.382605
 30
0.0
  0
LWPOLYLINE
  5
1ba
100
AcDbEntity
  8
0
 62
7
100
AcDbPolyline
 90
10
 70
0
 10
51.532897
 20
17.382605
 30
0.0
 10
51.715461
 20
17.308080
 30
0.0
 10
51.789985
 20
17.125076
 30
0.0
 10
51.715461
 20
16.949128
 30
0.0
 10
51.532897
 20
16.874605
 30
0.0
 10
51.349895
 20
16.949128
 30
0.0
 10
51.281985
 20
17.125076
 30
0.0
 10
51.349895
 20
17.308080
 30
0.0
 10
51.532897
 20
17.382605
 30
0.0
 10
51.532897
 20
17.382605
 30
0.0
  0
LWPOLYLINE
  5
1bb
100
AcDbEntity
  8
0
 62
7
100
AcDbPolyline
 90
10
 70
0
 10
36.501035
 20
17.260895
 30
0.0
 10
36.677424
 20
17.186373
 30
0.0
 10
36.751949
 20
17.009984
 30
0.0
 10
36.677424
 20
16.827420
 30
0.0
 10
36.501035
 20
16.752895
 30
0.0
 10
36.318474
 20
16.827420
 30
0.0
 10
36.243949
 20
17.009984
 30
0.0
 10
36.318474
 20
17.186373
 30
0.0
 10
36.501035
 20
17.260895
 30
0.0
 10
36.501035
 20
17.260895
 30
0.0
  0
LWPOLYLINE
  5
1bc
100
AcDbEntity
  8
0
 62
7
100
AcDbPolyline
 90
10
 70
0
 10
37.178369
 20
17.260895
 30
0.0
 10
37.354758
 20
17.186373
 30
0.0
 10
37.429282
 20
17.009984
 30
0.0
 10
37.354758
 20
16.827420
 30
0.0
 10
37.178369
 20
16.752895
 30
0.0
 10
36.995807
 20
16.827420
 30
0.0
 10
36.921282
 20
17.009984
 30
0.0
 10
36.995807
 20
17.186373
 30
0.0
 10
37.178369
 20
17.260895
 30
0.0
 10
37.178369
 20
17.260895
 30
0.0
  0
LWPOLYLINE
  5
1bd
100
AcDbEntity
  8
0
 62
7
100
AcDbPolyline
 90
10
 70
0
 10
37.855702
 20
17.260895
 30
0.0
 10
38.032091
 20
17.186373
 30
0.0
 10
38.106616
 20
17.009984
 30
0.0
 10
38.032091
 20
16.827420
 30
0.0
 10
37.855702
 20
16.752895
 30
0.0
 10
37.673140
 20
16.827420
 30
0.0
 10
37.598616
 20
17.009984
 30
0.0
 10
37.673140
 20
17.186373
 30
0.0
 10
37.855702
 20
17.260895
 30
0.0
 10
37.855702
 20
17.260895
 30
0.0
  0
LWPOLYLINE
  5
1be
100
AcDbEntity
  8
0
 62
7
100
AcDbPolyline
 90
10
 70
0
 10
44.983137
 20
17.260895
 30
0.0
 10
45.159083
 20
17.186373
 30
0.0
 10
45.233608
 20
17.009984
 30
0.0
 10
45.159083
 20
16.827420
 30
0.0
 10
44.983137
 20
16.752895
 30
0.0
 10
44.800133
 20
16.827420
 30
0.0
 10
44.725608
 20
17.009984
 30
0.0
 10
44.800133
 20
17.186373
 30
0.0
 10
44.983137
 20
17.260895
 30
0.0
 10
44.983137
 20
17.260895
 30
0.0
  0
LWPOLYLINE
  5
1bf
100
AcDbEntity
  8
0
 62
7
100
AcDbPolyline
 90
10
 70
0
 10
48.220754
 20
17.260895
 30
0.0
 10
48.403759
 20
17.186373
 30
0.0
 10
48.478283
 20
17.009984
 30
0.0
 10
48.403759
 20
16.827420
 30
0.0
 10
48.220754
 20
16.752895
 30
0.0
 10
48.044808
 20
16.827420
 30
0.0
 10
47.970283
 20
17.009984
 30
0.0
 10
48.044808
 20
17.186373
 30
0.0
 10
48.220754
 20
17.260895
 30
0.0
 10
48.220754
 20
17.260895
 30
0.0
  0
LWPOLYLINE
  5
1c0
100
AcDbEntity
  8
0
 62
7
100
AcDbPolyline
 90
10
 70
0
 10
54.068047
 20
17.260895
 30
0.0
 10
54.243996
 20
17.186373
 30
0.0
 10
54.318518
 20
17.009984
 30
0.0
 10
54.243996
 20
16.827420
 30
0.0
 10
54.068047
 20
16.752895
 30
0.0
 10
53.885043
 20
16.827420
 30
0.0
 10
53.810518
 20
17.009984
 30
0.0
 10
53.885043
 20
17.186373
 30
0.0
 10
54.068047
 20
17.260895
 30
0.0
 10
54.068047
 20
17.260895
 30
0.0
  0
LWPOLYLINE
  5
1c1
100
AcDbEntity
  8
0
 62
7
100
AcDbPolyline
 90
10
 70
0
 10
40.341021
 20
17.247227
 30
0.0
 10
40.524025
 20
17.172702
 30
0.0
 10
40.598550
 20
16.989698
 30
0.0
 10
40.524025
 20
16.813749
 30
0.0
 10
40.341021
 20
16.739227
 30
0.0
 10
40.165073
 20
16.813749
 30
0.0
 10
40.090550
 20
16.989698
 30
0.0
 10
40.165073
 20
17.172702
 30
0.0
 10
40.341021
 20
17.247227
 30
0.0
 10
40.341021
 20
17.247227
 30
0.0
  0
LWPOLYLINE
  5
1c2
100
AcDbEntity
  8
0
 62
7
100
AcDbPolyline
 90
10
 70
0
 10
42.569696
 20
17.247227
 30
0.0
 10
42.752698
 20
17.172702
 30
0.0
 10
42.827223
 20
16.989698
 30
0.0
 10
42.752698
 20
16.813749
 30
0.0
 10
42.569696
 20
16.739227
 30
0.0
 10
42.393305
 20
16.813749
 30
0.0
 10
42.319223
 20
16.989698
 30
0.0
 10
42.393305
 20
17.172702
 30
0.0
 10
42.569696
 20
17.247227
 30
0.0
 10
42.569696
 20
17.247227
 30
0.0
  0
LWPOLYLINE
  5
1c3
100
AcDbEntity
  8
0
 62
7
100
AcDbPolyline
 90
10
 70
0
 10
30.578777
 20
17.240611
 30
0.0
 10
30.754726
 20
17.166087
 30
0.0
 10
30.829251
 20
16.983082
 30
0.0
 10
30.754726
 20
16.807136
 30
0.0
 10
30.578777
 20
16.732611
 30
0.0
 10
30.395773
 20
16.807136
 30
0.0
 10
30.321251
 20
16.983082
 30
0.0
 10
30.395773
 20
17.166087
 30
0.0
 10
30.578777
 20
17.240611
 30
0.0
 10
30.578777
 20
17.240611
 30
0.0
  0
LWPOLYLINE
  5
1c4
100
AcDbEntity
  8
0
 62
7
100
AcDbPolyline
 90
10
 70
0
 10
35.823702
 20
17.240611
 30
0.0
 10
36.000091
 20
17.166087
 30
0.0
 10
36.074615
 20
16.983082
 30
0.0
 10
36.000091
 20
16.800080
 30
0.0
 10
35.823702
 20
16.732611
 30
0.0
 10
35.641140
 20
16.800080
 30
0.0
 10
35.566615
 20
16.983082
 30
0.0
 10
35.641140
 20
17.166087
 30
0.0
 10
35.823702
 20
17.240611
 30
0.0
 10
35.823702
 20
17.240611
 30
0.0
  0
LWPOLYLINE
  5
1c5
100
AcDbEntity
  8
0
 62
7
100
AcDbPolyline
 90
10
 70
0
 10
52.162607
 20
17.138747
 30
0.0
 10
52.338996
 20
17.064222
 30
0.0
 10
52.413078
 20
16.881218
 30
0.0
 10
52.338996
 20
16.705272
 30
0.0
 10
52.162607
 20
16.630747
 30
0.0
 10
51.979603
 20
16.705272
 30
0.0
 10
51.905078
 20
16.881218
 30
0.0
 10
51.979603
 20
17.064222
 30
0.0
 10
52.162607
 20
17.138747
 30
0.0
 10
52.162607
 20
17.138747
 30
0.0
  0
LWPOLYLINE
  5
1c6
100
AcDbEntity
  8
0
 62
7
100
AcDbPolyline
 90
10
 70
0
 10
50.232471
 20
17.132132
 30
0.0
 10
50.408417
 20
17.057607
 30
0.0
 10
50.482942
 20
16.881218
 30
0.0
 10
50.408417
 20
16.698657
 30
0.0
 10
50.232471
 20
16.624132
 30
0.0
 10
50.049467
 20
16.698657
 30
0.0
 10
49.974942
 20
16.881218
 30
0.0
 10
50.049467
 20
17.057607
 30
0.0
 10
50.232471
 20
17.132132
 30
0.0
 10
50.232471
 20
17.132132
 30
0.0
  0
LWPOLYLINE
  5
1c7
100
AcDbEntity
  8
0
 62
7
100
AcDbPolyline
 90
10
 70
0
 10
39.697642
 20
17.071278
 30
0.0
 10
39.874031
 20
16.996753
 30
0.0
 10
39.948556
 20
16.813749
 30
0.0
 10
39.874031
 20
16.637803
 30
0.0
 10
39.697642
 20
16.563278
 30
0.0
 10
39.514638
 20
16.637803
 30
0.0
 10
39.440556
 20
16.813749
 30
0.0
 10
39.514638
 20
16.996753
 30
0.0
 10
39.697642
 20
17.071278
 30
0.0
 10
39.697642
 20
17.071278
 30
0.0
  0
LWPOLYLINE
  5
1c8
100
AcDbEntity
  8
0
 62
7
100
AcDbPolyline
 90
10
 70
0
 10
40.984840
 20
17.071278
 30
0.0
 10
41.167404
 20
16.996753
 30
0.0
 10
41.241929
 20
16.813749
 30
0.0
 10
41.167404
 20
16.637803
 30
0.0
 10
40.984840
 20
16.563278
 30
0.0
 10
40.808451
 20
16.637803
 30
0.0
 10
40.733929
 20
16.813749
 30
0.0
 10
40.808451
 20
16.996753
 30
0.0
 10
40.984840
 20
17.071278
 30
0.0
 10
40.984840
 20
17.071278
 30
0.0
  0
LWPOLYLINE
  5
1c9
100
AcDbEntity
  8
0
 62
7
100
AcDbPolyline
 90
10
 70
0
 10
41.926318
 20
17.071278
 30
0.0
 10
42.102264
 20
16.996753
 30
0.0
 10
42.176789
 20
16.813749
 30
0.0
 10
42.102264
 20
16.637803
 30
0.0
 10
41.926318
 20
16.563278
 30
0.0
 10
41.743314
 20
16.637803
 30
0.0
 10
41.668789
 20
16.813749
 30
0.0
 10
41.743314
 20
16.996753
 30
0.0
 10
41.926318
 20
17.071278
 30
0.0
 10
41.926318
 20
17.071278
 30
0.0
  0
LWPOLYLINE
  5
1ca
100
AcDbEntity
  8
0
 62
7
100
AcDbPolyline
 90
10
 70
0
 10
43.219688
 20
17.071278
 30
0.0
 10
43.396077
 20
16.996753
 30
0.0
 10
43.470602
 20
16.813749
 30
0.0
 10
43.396077
 20
16.637803
 30
0.0
 10
43.219688
 20
16.563278
 30
0.0
 10
43.037126
 20
16.637803
 30
0.0
 10
42.962602
 20
16.813749
 30
0.0
 10
43.037126
 20
16.996753
 30
0.0
 10
43.219688
 20
17.071278
 30
0.0
 10
43.219688
 20
17.071278
 30
0.0
  0
LWPOLYLINE
  5
1cb
100
AcDbEntity
  8
0
 62
7
100
AcDbPolyline
 90
10
 70
0
 10
35.200607
 20
16.976469
 30
0.0
 10
35.376996
 20
16.901945
 30
0.0
 10
35.451521
 20
16.725556
 30
0.0
 10
35.376996
 20
16.542552
 30
0.0
 10
35.200607
 20
16.468469
 30
0.0
 10
35.018045
 20
16.542552
 30
0.0
 10
34.943521
 20
16.725556
 30
0.0
 10
35.018045
 20
16.901945
 30
0.0
 10
35.200607
 20
16.976469
 30
0.0
 10
35.200607
 20
16.976469
 30
0.0
  0
LWPOLYLINE
  5
1cc
100
AcDbEntity
  8
0
 62
7
100
AcDbPolyline
 90
10
 70
0
 10
31.052823
 20
16.766126
 30
0.0
 10
31.235827
 20
16.691601
 30
0.0
 10
31.310349
 20
16.515652
 30
0.0
 10
31.235827
 20
16.332650
 30
0.0
 10
31.052823
 20
16.258126
 30
0.0
 10
30.869819
 20
16.332650
 30
0.0
 10
30.802349
 20
16.515652
 30
0.0
 10
30.869819
 20
16.691601
 30
0.0
 10
31.052823
 20
16.766126
 30
0.0
 10
31.052823
 20
16.766126
 30
0.0
  0
LWPOLYLINE
  5
1cd
100
AcDbEntity
  8
0
 62
7
100
AcDbPolyline
 90
10
 70
0
 10
52.663992
 20
16.684986
 30
0.0
 10
52.839940
 20
16.610461
 30
0.0
 10
52.914463
 20
16.427459
 30
0.0
 10
52.839940
 20
16.251510
 30
0.0
 10
52.663992
 20
16.176986
 30
0.0
 10
52.480987
 20
16.251510
 30
0.0
 10
52.406463
 20
16.427459
 30
0.0
 10
52.480987
 20
16.610461
 30
0.0
 10
52.663992
 20
16.684986
 30
0.0
 10
52.663992
 20
16.684986
 30
0.0
  0
LWPOLYLINE
  5
1ce
100
AcDbEntity
  8
0
 62
7
100
AcDbPolyline
 90
10
 70
0
 10
49.731084
 20
16.678373
 30
0.0
 10
49.914088
 20
16.603848
 30
0.0
 10
49.988613
 20
16.427459
 30
0.0
 10
49.914088
 20
16.244895
 30
0.0
 10
49.731084
 20
16.170373
 30
0.0
 10
49.555137
 20
16.244895
 30
0.0
 10
49.480613
 20
16.427459
 30
0.0
 10
49.555137
 20
16.603848
 30
0.0
 10
49.731084
 20
16.678373
 30
0.0
 10
49.731084
 20
16.678373
 30
0.0
  0
LWPOLYLINE
  5
1cf
100
AcDbEntity
  8
0
 62
7
100
AcDbPolyline
 90
10
 70
0
 10
37.855702
 20
16.583562
 30
0.0
 10
38.032091
 20
16.509039
 30
0.0
 10
38.106616
 20
16.332650
 30
0.0
 10
38.032091
 20
16.150087
 30
0.0
 10
37.855702
 20
16.075562
 30
0.0
 10
37.673140
 20
16.150087
 30
0.0
 10
37.598616
 20
16.332650
 30
0.0
 10
37.673140
 20
16.509039
 30
0.0
 10
37.855702
 20
16.583562
 30
0.0
 10
37.855702
 20
16.583562
 30
0.0
  0
LWPOLYLINE
  5
1d0
100
AcDbEntity
  8
0
 62
7
100
AcDbPolyline
 90
10
 70
0
 10
41.458885
 20
16.583562
 30
0.0
 10
41.634834
 20
16.509039
 30
0.0
 10
41.709359
 20
16.332650
 30
0.0
 10
41.634834
 20
16.150087
 30
0.0
 10
41.458885
 20
16.075562
 30
0.0
 10
41.275883
 20
16.150087
 30
0.0
 10
41.201359
 20
16.332650
 30
0.0
 10
41.275883
 20
16.509039
 30
0.0
 10
41.458885
 20
16.583562
 30
0.0
 10
41.458885
 20
16.583562
 30
0.0
  0
LWPOLYLINE
  5
1d1
100
AcDbEntity
  8
0
 62
7
100
AcDbPolyline
 90
10
 70
0
 10
44.983137
 20
16.583562
 30
0.0
 10
45.159083
 20
16.509039
 30
0.0
 10
45.233608
 20
16.332650
 30
0.0
 10
45.159083
 20
16.150087
 30
0.0
 10
44.983137
 20
16.075562
 30
0.0
 10
44.800133
 20
16.150087
 30
0.0
 10
44.725608
 20
16.332650
 30
0.0
 10
44.800133
 20
16.509039
 30
0.0
 10
44.983137
 20
16.583562
 30
0.0
 10
44.983137
 20
16.583562
 30
0.0
  0
LWPOLYLINE
  5
1d2
100
AcDbEntity
  8
0
 62
7
100
AcDbPolyline
 90
10
 70
0
 10
48.220754
 20
16.583562
 30
0.0
 10
48.403759
 20
16.509039
 30
0.0
 10
48.478283
 20
16.332650
 30
0.0
 10
48.403759
 20
16.150087
 30
0.0
 10
48.220754
 20
16.075562
 30
0.0
 10
48.044808
 20
16.150087
 30
0.0
 10
47.970283
 20
16.332650
 30
0.0
 10
48.044808
 20
16.509039
 30
0.0
 10
48.220754
 20
16.583562
 30
0.0
 10
48.220754
 20
16.583562
 30
0.0
  0
LWPOLYLINE
  5
1d3
100
AcDbEntity
  8
0
 62
7
100
AcDbPolyline
 90
10
 70
0
 10
54.068047
 20
16.583562
 30
0.0
 10
54.243996
 20
16.509039
 30
0.0
 10
54.318518
 20
16.332650
 30
0.0
 10
54.243996
 20
16.150087
 30
0.0
 10
54.068047
 20
16.075562
 30
0.0
 10
53.885043
 20
16.150087
 30
0.0
 10
53.810518
 20
16.332650
 30
0.0
 10
53.885043
 20
16.509039
 30
0.0
 10
54.068047
 20
16.583562
 30
0.0
 10
54.068047
 20
16.583562
 30
0.0
  0
LWPOLYLINE
  5
1d4
100
AcDbEntity
  8
0
 62
7
100
AcDbPolyline
 90
10
 70
0
 10
39.257552
 20
16.569893
 30
0.0
 10
39.433500
 20
16.495368
 30
0.0
 10
39.508025
 20
16.312364
 30
0.0
 10
39.433500
 20
16.136416
 30
0.0
 10
39.257552
 20
16.061893
 30
0.0
 10
39.074550
 20
16.136416
 30
0.0
 10
39.000025
 20
16.312364
 30
0.0
 10
39.074550
 20
16.495368
 30
0.0
 10
39.257552
 20
16.569893
 30
0.0
 10
39.257552
 20
16.569893
 30
0.0
  0
LWPOLYLINE
  5
1d5
100
AcDbEntity
  8
0
 62
7
100
AcDbPolyline
 90
10
 70
0
 10
43.660219
 20
16.569893
 30
0.0
 10
43.836168
 20
16.495368
 30
0.0
 10
43.910692
 20
16.312364
 30
0.0
 10
43.836168
 20
16.136416
 30
0.0
 10
43.660219
 20
16.061893
 30
0.0
 10
43.477217
 20
16.136416
 30
0.0
 10
43.402692
 20
16.312364
 30
0.0
 10
43.477217
 20
16.495368
 30
0.0
 10
43.660219
 20
16.569893
 30
0.0
 10
43.660219
 20
16.569893
 30
0.0
  0
LWPOLYLINE
  5
1d6
100
AcDbEntity
  8
0
 62
7
100
AcDbPolyline
 90
10
 70
0
 10
31.675918
 20
16.515652
 30
0.0
 10
31.858919
 20
16.441128
 30
0.0
 10
31.933444
 20
16.258126
 30
0.0
 10
31.858919
 20
16.082177
 30
0.0
 10
31.675918
 20
16.007652
 30
0.0
 10
31.499969
 20
16.082177
 30
0.0
 10
31.425444
 20
16.258126
 30
0.0
 10
31.499969
 20
16.441128
 30
0.0
 10
31.675918
 20
16.515652
 30
0.0
 10
31.675918
 20
16.515652
 30
0.0
  0
LWPOLYLINE
  5
1d7
100
AcDbEntity
  8
0
 62
7
100
AcDbPolyline
 90
10
 70
0
 10
34.726562
 20
16.501984
 30
0.0
 10
34.902951
 20
16.427459
 30
0.0
 10
34.977035
 20
16.244895
 30
0.0
 10
34.902951
 20
16.061893
 30
0.0
 10
34.726562
 20
15.993984
 30
0.0
 10
34.543560
 20
16.061893
 30
0.0
 10
34.469035
 20
16.244895
 30
0.0
 10
34.543560
 20
16.427459
 30
0.0
 10
34.726562
 20
16.501984
 30
0.0
 10
34.726562
 20
16.501984
 30
0.0
  0
LWPOLYLINE
  5
1d8
100
AcDbEntity
  8
0
 62
7
100
AcDbPolyline
 90
10
 70
0
 10
32.332965
 20
16.339706
 30
0.0
 10
32.508913
 20
16.265181
 30
0.0
 10
32.583438
 20
16.082177
 30
0.0
 10
32.508913
 20
15.906228
 30
0.0
 10
32.332965
 20
15.831706
 30
0.0
 10
32.149961
 20
15.906228
 30
0.0
 10
32.075438
 20
16.082177
 30
0.0
 10
32.149961
 20
16.265181
 30
0.0
 10
32.332965
 20
16.339706
 30
0.0
 10
32.332965
 20
16.339706
 30
0.0
  0
LWPOLYLINE
  5
1d9
100
AcDbEntity
  8
0
 62
7
100
AcDbPolyline
 90
10
 70
0
 10
52.088082
 20
16.326035
 30
0.0
 10
52.264471
 20
16.251510
 30
0.0
 10
52.338996
 20
16.075562
 30
0.0
 10
52.264471
 20
15.892560
 30
0.0
 10
52.088082
 20
15.818035
 30
0.0
 10
51.905078
 20
15.892560
 30
0.0
 10
51.830996
 20
16.075562
 30
0.0
 10
51.905078
 20
16.251510
 30
0.0
 10
52.088082
 20
16.326035
 30
0.0
 10
52.088082
 20
16.326035
 30
0.0
  0
LWPOLYLINE
  5
1da
100
AcDbEntity
  8
0
 62
7
100
AcDbPolyline
 90
10
 70
0
 10
49.432987
 20
16.082177
 30
0.0
 10
49.608936
 20
16.007652
 30
0.0
 10
49.683460
 20
15.824650
 30
0.0
 10
49.608936
 20
15.648702
 30
0.0
 10
49.432987
 20
15.574177
 30
0.0
 10
49.249985
 20
15.648702
 30
0.0
 10
49.175460
 20
15.824650
 30
0.0
 10
49.249985
 20
16.007652
 30
0.0
 10
49.432987
 20
16.082177
 30
0.0
 10
49.432987
 20
16.082177
 30
0.0
  0
LWPOLYLINE
  5
1db
100
AcDbEntity
  8
0
 62
7
100
AcDbPolyline
 90
10
 70
0
 10
32.929160
 20
16.027938
 30
0.0
 10
33.111722
 20
15.953414
 30
0.0
 10
33.186247
 20
15.770410
 30
0.0
 10
33.111722
 20
15.594461
 30
0.0
 10
32.929160
 20
15.519938
 30
0.0
 10
32.752772
 20
15.594461
 30
0.0
 10
32.678247
 20
15.770410
 30
0.0
 10
32.752772
 20
15.953414
 30
0.0
 10
32.929160
 20
16.027938
 30
0.0
 10
32.929160
 20
16.027938
 30
0.0
  0
LWPOLYLINE
  5
1dc
100
AcDbEntity
  8
0
 62
7
100
AcDbPolyline
 90
10
 70
0
 10
51.512613
 20
15.967082
 30
0.0
 10
51.688561
 20
15.892560
 30
0.0
 10
51.763084
 20
15.716611
 30
0.0
 10
51.688561
 20
15.533607
 30
0.0
 10
51.512613
 20
15.459082
 30
0.0
 10
51.329609
 20
15.533607
 30
0.0
 10
51.255084
 20
15.716611
 30
0.0
 10
51.329609
 20
15.892560
 30
0.0
 10
51.512613
 20
15.967082
 30
0.0
 10
51.512613
 20
15.967082
 30
0.0
  0
LWPOLYLINE
  5
1dd
100
AcDbEntity
  8
0
 62
7
100
AcDbPolyline
 90
10
 70
0
 10
37.855702
 20
15.906228
 30
0.0
 10
38.032091
 20
15.831706
 30
0.0
 10
38.106616
 20
15.655317
 30
0.0
 10
38.032091
 20
15.472753
 30
0.0
 10
37.855702
 20
15.398228
 30
0.0
 10
37.673140
 20
15.472753
 30
0.0
 10
37.598616
 20
15.655317
 30
0.0
 10
37.673140
 20
15.831706
 30
0.0
 10
37.855702
 20
15.906228
 30
0.0
 10
37.855702
 20
15.906228
 30
0.0
  0
LWPOLYLINE
  5
1de
100
AcDbEntity
  8
0
 62
7
100
AcDbPolyline
 90
10
 70
0
 10
39.149072
 20
15.906228
 30
0.0
 10
39.325021
 20
15.831706
 30
0.0
 10
39.399546
 20
15.655317
 30
0.0
 10
39.325021
 20
15.472753
 30
0.0
 10
39.149072
 20
15.398228
 30
0.0
 10
38.966070
 20
15.472753
 30
0.0
 10
38.891546
 20
15.655317
 30
0.0
 10
38.966070
 20
15.831706
 30
0.0
 10
39.149072
 20
15.906228
 30
0.0
 10
39.149072
 20
15.906228
 30
0.0
  0
LWPOLYLINE
  5
1df
100
AcDbEntity
  8
0
 62
7
100
AcDbPolyline
 90
10
 70
0
 10
41.458885
 20
15.906228
 30
0.0
 10
41.634834
 20
15.831706
 30
0.0
 10
41.709359
 20
15.655317
 30
0.0
 10
41.634834
 20
15.472753
 30
0.0
 10
41.458885
 20
15.398228
 30
0.0
 10
41.275883
 20
15.472753
 30
0.0
 10
41.201359
 20
15.655317
 30
0.0
 10
41.275883
 20
15.831706
 30
0.0
 10
41.458885
 20
15.906228
 30
0.0
 10
41.458885
 20
15.906228
 30
0.0
  0
LWPOLYLINE
  5
1e0
100
AcDbEntity
  8
0
 62
7
100
AcDbPolyline
 90
10
 70
0
 10
43.761643
 20
15.906228
 30
0.0
 10
43.944647
 20
15.831706
 30
0.0
 10
44.019172
 20
15.655317
 30
0.0
 10
43.944647
 20
15.472753
 30
0.0
 10
43.761643
 20
15.398228
 30
0.0
 10
43.585696
 20
15.472753
 30
0.0
 10
43.511172
 20
15.655317
 30
0.0
 10
43.585696
 20
15.831706
 30
0.0
 10
43.761643
 20
15.906228
 30
0.0
 10
43.761643
 20
15.906228
 30
0.0
  0
LWPOLYLINE
  5
1e1
100
AcDbEntity
  8
0
 62
7
100
AcDbPolyline
 90
10
 70
0
 10
44.983137
 20
15.906228
 30
0.0
 10
45.159083
 20
15.831706
 30
0.0
 10
45.233608
 20
15.655317
 30
0.0
 10
45.159083
 20
15.472753
 30
0.0
 10
44.983137
 20
15.398228
 30
0.0
 10
44.800133
 20
15.472753
 30
0.0
 10
44.725608
 20
15.655317
 30
0.0
 10
44.800133
 20
15.831706
 30
0.0
 10
44.983137
 20
15.906228
 30
0.0
 10
44.983137
 20
15.906228
 30
0.0
  0
LWPOLYLINE
  5
1e2
100
AcDbEntity
  8
0
 62
7
100
AcDbPolyline
 90
10
 70
0
 10
48.220754
 20
15.906228
 30
0.0
 10
48.403759
 20
15.831706
 30
0.0
 10
48.478283
 20
15.655317
 30
0.0
 10
48.403759
 20
15.472753
 30
0.0
 10
48.220754
 20
15.398228
 30
0.0
 10
48.044808
 20
15.472753
 30
0.0
 10
47.970283
 20
15.655317
 30
0.0
 10
48.044808
 20
15.831706
 30
0.0
 10
48.220754
 20
15.906228
 30
0.0
 10
48.220754
 20
15.906228
 30
0.0
  0
LWPOLYLINE
  5
1e3
100
AcDbEntity
  8
0
 62
7
100
AcDbPolyline
 90
10
 70
0
 10
54.068047
 20
15.906228
 30
0.0
 10
54.243996
 20
15.831706
 30
0.0
 10
54.318518
 20
15.655317
 30
0.0
 10
54.243996
 20
15.472753
 30
0.0
 10
54.068047
 20
15.398228
 30
0.0
 10
53.885043
 20
15.472753
 30
0.0
 10
53.810518
 20
15.655317
 30
0.0
 10
53.885043
 20
15.831706
 30
0.0
 10
54.068047
 20
15.906228
 30
0.0
 10
54.068047
 20
15.906228
 30
0.0
  0
LWPOLYLINE
  5
1e4
100
AcDbEntity
  8
0
 62
7
100
AcDbPolyline
 90
10
 70
0
 10
34.476091
 20
15.872274
 30
0.0
 10
34.652039
 20
15.797749
 30
0.0
 10
34.726562
 20
15.621803
 30
0.0
 10
34.652039
 20
15.438798
 30
0.0
 10
34.476091
 20
15.364274
 30
0.0
 10
34.293086
 20
15.438798
 30
0.0
 10
34.218562
 20
15.621803
 30
0.0
 10
34.293086
 20
15.797749
 30
0.0
 10
34.476091
 20
15.872274
 30
0.0
 10
34.476091
 20
15.872274
 30
0.0
  0
LWPOLYLINE
  5
1e5
100
AcDbEntity
  8
0
 62
7
100
AcDbPolyline
 90
10
 70
0
 10
50.936703
 20
15.614747
 30
0.0
 10
51.112652
 20
15.540222
 30
0.0
 10
51.187174
 20
15.357218
 30
0.0
 10
51.112652
 20
15.181272
 30
0.0
 10
50.936703
 20
15.106747
 30
0.0
 10
50.753699
 20
15.181272
 30
0.0
 10
50.679174
 20
15.357218
 30
0.0
 10
50.753699
 20
15.540222
 30
0.0
 10
50.936703
 20
15.614747
 30
0.0
 10
50.936703
 20
15.614747
 30
0.0
  0
LWPOLYLINE
  5
1e6
100
AcDbEntity
  8
0
 62
7
100
AcDbPolyline
 90
10
 70
0
 10
33.362636
 20
15.513323
 30
0.0
 10
33.545638
 20
15.438798
 30
0.0
 10
33.619722
 20
15.262410
 30
0.0
 10
33.545638
 20
15.079848
 30
0.0
 10
33.362636
 20
15.005323
 30
0.0
 10
33.186247
 20
15.079848
 30
0.0
 10
33.111722
 20
15.262410
 30
0.0
 10
33.186247
 20
15.438798
 30
0.0
 10
33.362636
 20
15.513323
 30
0.0
 10
33.362636
 20
15.513323
 30
0.0
  0
LWPOLYLINE
  5
1e7
100
AcDbEntity
  8
0
 62
7
100
AcDbPolyline
 90
10
 70
0
 10
49.372133
 20
15.411459
 30
0.0
 10
49.548082
 20
15.336934
 30
0.0
 10
49.622607
 20
15.154373
 30
0.0
 10
49.548082
 20
14.977984
 30
0.0
 10
49.372133
 20
14.903459
 30
0.0
 10
49.189129
 20
14.977984
 30
0.0
 10
49.114606
 20
15.154373
 30
0.0
 10
49.189129
 20
15.336934
 30
0.0
 10
49.372133
 20
15.411459
 30
0.0
 10
49.372133
 20
15.411459
 30
0.0
  0
LWPOLYLINE
  5
1e8
100
AcDbEntity
  8
0
 62
7
100
AcDbPolyline
 90
10
 70
0
 10
30.138247
 20
15.330319
 30
0.0
 10
30.314635
 20
15.255794
 30
0.0
 10
30.389160
 20
15.079848
 30
0.0
 10
30.314635
 20
14.896844
 30
0.0
 10
30.138247
 20
14.822319
 30
0.0
 10
29.955683
 20
14.896844
 30
0.0
 10
29.881160
 20
15.079848
 30
0.0
 10
29.955683
 20
15.255794
 30
0.0
 10
30.138247
 20
15.330319
 30
0.0
 10
30.138247
 20
15.330319
 30
0.0
  0
LWPOLYLINE
  5
1e9
100
AcDbEntity
  8
0
 62
7
100
AcDbPolyline
 90
10
 70
0
 10
50.360794
 20
15.255794
 30
0.0
 10
50.537183
 20
15.181272
 30
0.0
 10
50.611707
 20
14.998268
 30
0.0
 10
50.537183
 20
14.822319
 30
0.0
 10
50.360794
 20
14.747794
 30
0.0
 10
50.178230
 20
14.822319
 30
0.0
 10
50.103707
 20
14.998268
 30
0.0
 10
50.178230
 20
15.181272
 30
0.0
 10
50.360794
 20
15.255794
 30
0.0
 10
50.360794
 20
15.255794
 30
0.0
  0
LWPOLYLINE
  5
1ea
100
AcDbEntity
  8
0
 62
7
100
AcDbPolyline
 90
10
 70
0
 10
37.855702
 20
15.228895
 30
0.0
 10
38.032091
 20
15.154373
 30
0.0
 10
38.106616
 20
14.977984
 30
0.0
 10
38.032091
 20
14.795420
 30
0.0
 10
37.855702
 20
14.720895
 30
0.0
 10
37.673140
 20
14.795420
 30
0.0
 10
37.598616
 20
14.977984
 30
0.0
 10
37.673140
 20
15.154373
 30
0.0
 10
37.855702
 20
15.228895
 30
0.0
 10
37.855702
 20
15.228895
 30
0.0
  0
LWPOLYLINE
  5
1eb
100
AcDbEntity
  8
0
 62
7
100
AcDbPolyline
 90
10
 70
0
 10
39.149072
 20
15.228895
 30
0.0
 10
39.325021
 20
15.154373
 30
0.0
 10
39.399546
 20
14.977984
 30
0.0
 10
39.325021
 20
14.795420
 30
0.0
 10
39.149072
 20
14.720895
 30
0.0
 10
38.966070
 20
14.795420
 30
0.0
 10
38.891546
 20
14.977984
 30
0.0
 10
38.966070
 20
15.154373
 30
0.0
 10
39.149072
 20
15.228895
 30
0.0
 10
39.149072
 20
15.228895
 30
0.0
  0
LWPOLYLINE
  5
1ec
100
AcDbEntity
  8
0
 62
7
100
AcDbPolyline
 90
10
 70
0
 10
41.458885
 20
15.228895
 30
0.0
 10
41.634834
 20
15.154373
 30
0.0
 10
41.709359
 20
14.977984
 30
0.0
 10
41.634834
 20
14.795420
 30
0.0
 10
41.458885
 20
14.720895
 30
0.0
 10
41.275883
 20
14.795420
 30
0.0
 10
41.201359
 20
14.977984
 30
0.0
 10
41.275883
 20
15.154373
 30
0.0
 10
41.458885
 20
15.228895
 30
0.0
 10
41.458885
 20
15.228895
 30
0.0
  0
LWPOLYLINE
  5
1ed
100
AcDbEntity
  8
0
 62
7
100
AcDbPolyline
 90
10
 70
0
 10
43.761643
 20
15.228895
 30
0.0
 10
43.944647
 20
15.154373
 30
0.0
 10
44.019172
 20
14.977984
 30
0.0
 10
43.944647
 20
14.795420
 30
0.0
 10
43.761643
 20
14.720895
 30
0.0
 10
43.585696
 20
14.795420
 30
0.0
 10
43.511172
 20
14.977984
 30
0.0
 10
43.585696
 20
15.154373
 30
0.0
 10
43.761643
 20
15.228895
 30
0.0
 10
43.761643
 20
15.228895
 30
0.0
  0
LWPOLYLINE
  5
1ee
100
AcDbEntity
  8
0
 62
7
100
AcDbPolyline
 90
10
 70
0
 10
44.983137
 20
15.228895
 30
0.0
 10
45.159083
 20
15.154373
 30
0.0
 10
45.233608
 20
14.977984
 30
0.0
 10
45.159083
 20
14.795420
 30
0.0
 10
44.983137
 20
14.720895
 30
0.0
 10
44.800133
 20
14.795420
 30
0.0
 10
44.725608
 20
14.977984
 30
0.0
 10
44.800133
 20
15.154373
 30
0.0
 10
44.983137
 20
15.228895
 30
0.0
 10
44.983137
 20
15.228895
 30
0.0
  0
LWPOLYLINE
  5
1ef
100
AcDbEntity
  8
0
 62
7
100
AcDbPolyline
 90
10
 70
0
 10
48.220754
 20
15.228895
 30
0.0
 10
48.403759
 20
15.154373
 30
0.0
 10
48.478283
 20
14.977984
 30
0.0
 10
48.403759
 20
14.795420
 30
0.0
 10
48.220754
 20
14.720895
 30
0.0
 10
48.044808
 20
14.795420
 30
0.0
 10
47.970283
 20
14.977984
 30
0.0
 10
48.044808
 20
15.154373
 30
0.0
 10
48.220754
 20
15.228895
 30
0.0
 10
48.220754
 20
15.228895
 30
0.0
  0
LWPOLYLINE
  5
1f0
100
AcDbEntity
  8
0
 62
7
100
AcDbPolyline
 90
10
 70
0
 10
54.068047
 20
15.228895
 30
0.0
 10
54.243996
 20
15.154373
 30
0.0
 10
54.318518
 20
14.977984
 30
0.0
 10
54.243996
 20
14.795420
 30
0.0
 10
54.068047
 20
14.720895
 30
0.0
 10
53.885043
 20
14.795420
 30
0.0
 10
53.810518
 20
14.977984
 30
0.0
 10
53.885043
 20
15.154373
 30
0.0
 10
54.068047
 20
15.228895
 30
0.0
 10
54.068047
 20
15.228895
 30
0.0
  0
LWPOLYLINE
  5
1f1
100
AcDbEntity
  8
0
 62
7
100
AcDbPolyline
 90
10
 70
0
 10
34.489761
 20
15.201556
 30
0.0
 10
34.672323
 20
15.127031
 30
0.0
 10
34.746848
 20
14.944469
 30
0.0
 10
34.672323
 20
14.768080
 30
0.0
 10
34.489761
 20
14.693556
 30
0.0
 10
34.313373
 20
14.768080
 30
0.0
 10
34.238848
 20
14.944469
 30
0.0
 10
34.313373
 20
15.127031
 30
0.0
 10
34.489761
 20
15.201556
 30
0.0
 10
34.489761
 20
15.201556
 30
0.0
  0
LWPOLYLINE
  5
1f2
100
AcDbEntity
  8
0
 62
7
100
AcDbPolyline
 90
10
 70
0
 10
33.464060
 20
14.856274
 30
0.0
 10
33.647062
 20
14.781749
 30
0.0
 10
33.721586
 20
14.598747
 30
0.0
 10
33.647062
 20
14.422798
 30
0.0
 10
33.464060
 20
14.348274
 30
0.0
 10
33.288111
 20
14.422798
 30
0.0
 10
33.213586
 20
14.598747
 30
0.0
 10
33.288111
 20
14.781749
 30
0.0
 10
33.464060
 20
14.856274
 30
0.0
 10
33.464060
 20
14.856274
 30
0.0
  0
LWPOLYLINE
  5
1f3
100
AcDbEntity
  8
0
 62
7
100
AcDbPolyline
 90
10
 70
0
 10
52.839940
 20
14.761465
 30
0.0
 10
53.016329
 20
14.686940
 30
0.0
 10
53.090411
 20
14.503938
 30
0.0
 10
53.016329
 20
14.327990
 30
0.0
 10
52.839940
 20
14.253465
 30
0.0
 10
52.656936
 20
14.327990
 30
0.0
 10
52.582411
 20
14.503938
 30
0.0
 10
52.656936
 20
14.686940
 30
0.0
 10
52.839940
 20
14.761465
 30
0.0
 10
52.839940
 20
14.761465
 30
0.0
  0
LWPOLYLINE
  5
1f4
100
AcDbEntity
  8
0
 62
7
100
AcDbPolyline
 90
10
 70
0
 10
49.555137
 20
14.754410
 30
0.0
 10
49.737699
 20
14.679885
 30
0.0
 10
49.812224
 20
14.503938
 30
0.0
 10
49.737699
 20
14.320934
 30
0.0
 10
49.555137
 20
14.246410
 30
0.0
 10
49.378748
 20
14.320934
 30
0.0
 10
49.304224
 20
14.503938
 30
0.0
 10
49.378748
 20
14.679885
 30
0.0
 10
49.555137
 20
14.754410
 30
0.0
 10
49.555137
 20
14.754410
 30
0.0
  0
LWPOLYLINE
  5
1f5
100
AcDbEntity
  8
0
 62
7
100
AcDbPolyline
 90
10
 70
0
 10
30.212771
 20
14.666657
 30
0.0
 10
30.395773
 20
14.592132
 30
0.0
 10
30.470298
 20
14.409128
 30
0.0
 10
30.395773
 20
14.233181
 30
0.0
 10
30.212771
 20
14.158657
 30
0.0
 10
30.036823
 20
14.233181
 30
0.0
 10
29.962298
 20
14.409128
 30
0.0
 10
30.036823
 20
14.592132
 30
0.0
 10
30.212771
 20
14.666657
 30
0.0
 10
30.212771
 20
14.666657
 30
0.0
  0
LWPOLYLINE
  5
1f6
100
AcDbEntity
  8
0
 62
7
100
AcDbPolyline
 90
10
 70
0
 10
45.247279
 20
14.605803
 30
0.0
 10
45.423227
 20
14.531278
 30
0.0
 10
45.497750
 20
14.354889
 30
0.0
 10
45.423227
 20
14.171885
 30
0.0
 10
45.247279
 20
14.097803
 30
0.0
 10
45.064275
 20
14.171885
 30
0.0
 10
44.989750
 20
14.354889
 30
0.0
 10
45.064275
 20
14.531278
 30
0.0
 10
45.247279
 20
14.605803
 30
0.0
 10
45.247279
 20
14.605803
 30
0.0
  0
LWPOLYLINE
  5
1f7
100
AcDbEntity
  8
0
 62
7
100
AcDbPolyline
 90
10
 70
0
 10
34.767132
 20
14.585076
 30
0.0
 10
34.950136
 20
14.510552
 30
0.0
 10
35.024661
 20
14.327990
 30
0.0
 10
34.950136
 20
14.151601
 30
0.0
 10
34.767132
 20
14.077076
 30
0.0
 10
34.591183
 20
14.151601
 30
0.0
 10
34.516661
 20
14.327990
 30
0.0
 10
34.591183
 20
14.510552
 30
0.0
 10
34.767132
 20
14.585076
 30
0.0
 10
34.767132
 20
14.585076
 30
0.0
  0
LWPOLYLINE
  5
1f8
100
AcDbEntity
  8
0
 62
7
100
AcDbPolyline
 90
10
 70
0
 10
37.855702
 20
14.551562
 30
0.0
 10
38.032091
 20
14.477039
 30
0.0
 10
38.106616
 20
14.300650
 30
0.0
 10
38.032091
 20
14.118087
 30
0.0
 10
37.855702
 20
14.043562
 30
0.0
 10
37.673140
 20
14.118087
 30
0.0
 10
37.598616
 20
14.300650
 30
0.0
 10
37.673140
 20
14.477039
 30
0.0
 10
37.855702
 20
14.551562
 30
0.0
 10
37.855702
 20
14.551562
 30
0.0
  0
LWPOLYLINE
  5
1f9
100
AcDbEntity
  8
0
 62
7
100
AcDbPolyline
 90
10
 70
0
 10
39.149072
 20
14.551562
 30
0.0
 10
39.325021
 20
14.477039
 30
0.0
 10
39.399546
 20
14.300650
 30
0.0
 10
39.325021
 20
14.118087
 30
0.0
 10
39.149072
 20
14.043562
 30
0.0
 10
38.966070
 20
14.118087
 30
0.0
 10
38.891546
 20
14.300650
 30
0.0
 10
38.966070
 20
14.477039
 30
0.0
 10
39.149072
 20
14.551562
 30
0.0
 10
39.149072
 20
14.551562
 30
0.0
  0
LWPOLYLINE
  5
1fa
100
AcDbEntity
  8
0
 62
7
100
AcDbPolyline
 90
10
 70
0
 10
41.458885
 20
14.551562
 30
0.0
 10
41.634834
 20
14.477039
 30
0.0
 10
41.709359
 20
14.300650
 30
0.0
 10
41.634834
 20
14.118087
 30
0.0
 10
41.458885
 20
14.043562
 30
0.0
 10
41.275883
 20
14.118087
 30
0.0
 10
41.201359
 20
14.300650
 30
0.0
 10
41.275883
 20
14.477039
 30
0.0
 10
41.458885
 20
14.551562
 30
0.0
 10
41.458885
 20
14.551562
 30
0.0
  0
LWPOLYLINE
  5
1fb
100
AcDbEntity
  8
0
 62
7
100
AcDbPolyline
 90
10
 70
0
 10
43.761643
 20
14.551562
 30
0.0
 10
43.944647
 20
14.477039
 30
0.0
 10
44.019172
 20
14.300650
 30
0.0
 10
43.944647
 20
14.118087
 30
0.0
 10
43.761643
 20
14.043562
 30
0.0
 10
43.585696
 20
14.118087
 30
0.0
 10
43.511172
 20
14.300650
 30
0.0
 10
43.585696
 20
14.477039
 30
0.0
 10
43.761643
 20
14.551562
 30
0.0
 10
43.761643
 20
14.551562
 30
0.0
  0
LWPOLYLINE
  5
1fc
100
AcDbEntity
  8
0
 62
7
100
AcDbPolyline
 90
10
 70
0
 10
48.220754
 20
14.551562
 30
0.0
 10
48.403759
 20
14.477039
 30
0.0
 10
48.478283
 20
14.300650
 30
0.0
 10
48.403759
 20
14.118087
 30
0.0
 10
48.220754
 20
14.043562
 30
0.0
 10
48.044808
 20
14.118087
 30
0.0
 10
47.970283
 20
14.300650
 30
0.0
 10
48.044808
 20
14.477039
 30
0.0
 10
48.220754
 20
14.551562
 30
0.0
 10
48.220754
 20
14.551562
 30
0.0
  0
LWPOLYLINE
  5
1fd
100
AcDbEntity
  8
0
 62
7
100
AcDbPolyline
 90
10
 70
0
 10
54.068047
 20
14.551562
 30
0.0
 10
54.243996
 20
14.477039
 30
0.0
 10
54.318518
 20
14.300650
 30
0.0
 10
54.243996
 20
14.118087
 30
0.0
 10
54.068047
 20
14.043562
 30
0.0
 10
53.885043
 20
14.118087
 30
0.0
 10
53.810518
 20
14.300650
 30
0.0
 10
53.885043
 20
14.477039
 30
0.0
 10
54.068047
 20
14.551562
 30
0.0
 10
54.068047
 20
14.551562
 30
0.0
  0
LWPOLYLINE
  5
1fe
100
AcDbEntity
  8
0
 62
7
100
AcDbPolyline
 90
10
 70
0
 10
33.145677
 20
14.267136
 30
0.0
 10
33.328681
 20
14.192611
 30
0.0
 10
33.403206
 20
14.016222
 30
0.0
 10
33.328681
 20
13.833218
 30
0.0
 10
33.145677
 20
13.759136
 30
0.0
 10
32.969728
 20
13.833218
 30
0.0
 10
32.895206
 20
14.016222
 30
0.0
 10
32.969728
 20
14.192611
 30
0.0
 10
33.145677
 20
14.267136
 30
0.0
 10
33.145677
 20
14.267136
 30
0.0
  0
LWPOLYLINE
  5
1ff
100
AcDbEntity
  8
0
 62
7
100
AcDbPolyline
 90
10
 70
0
 10
49.961273
 20
14.226126
 30
0.0
 10
50.144275
 20
14.151601
 30
0.0
 10
50.218800
 20
13.969039
 30
0.0
 10
50.144275
 20
13.792650
 30
0.0
 10
49.961273
 20
13.718126
 30
0.0
 10
49.785325
 20
13.792650
 30
0.0
 10
49.710800
 20
13.969039
 30
0.0
 10
49.785325
 20
14.151601
 30
0.0
 10
49.961273
 20
14.226126
 30
0.0
 10
49.961273
 20
14.226126
 30
0.0
  0
LWPOLYLINE
  5
200
100
AcDbEntity
  8
0
 62
7
100
AcDbPolyline
 90
10
 70
0
 10
52.433804
 20
14.226126
 30
0.0
 10
52.616366
 20
14.151601
 30
0.0
 10
52.690891
 20
13.969039
 30
0.0
 10
52.616366
 20
13.792650
 30
0.0
 10
52.433804
 20
13.718126
 30
0.0
 10
52.257415
 20
13.792650
 30
0.0
 10
52.182891
 20
13.969039
 30
0.0
 10
52.257415
 20
14.151601
 30
0.0
 10
52.433804
 20
14.226126
 30
0.0
 10
52.433804
 20
14.226126
 30
0.0
  0
LWPOLYLINE
  5
201
100
AcDbEntity
  8
0
 62
7
100
AcDbPolyline
 90
10
 70
0
 10
37.165140
 20
14.205840
 30
0.0
 10
37.347702
 20
14.131317
 30
0.0
 10
37.422227
 20
13.955368
 30
0.0
 10
37.347702
 20
13.772364
 30
0.0
 10
37.165140
 20
13.697840
 30
0.0
 10
36.988749
 20
13.772364
 30
0.0
 10
36.914227
 20
13.955368
 30
0.0
 10
36.988749
 20
14.131317
 30
0.0
 10
37.165140
 20
14.205840
 30
0.0
 10
37.165140
 20
14.205840
 30
0.0
  0
LWPOLYLINE
  5
202
100
AcDbEntity
  8
0
 62
7
100
AcDbPolyline
 90
10
 70
0
 10
47.651900
 20
14.192611
 30
0.0
 10
47.827849
 20
14.118087
 30
0.0
 10
47.902374
 20
13.935082
 30
0.0
 10
47.827849
 20
13.752080
 30
0.0
 10
47.651900
 20
13.684611
 30
0.0
 10
47.468896
 20
13.752080
 30
0.0
 10
47.394374
 20
13.935082
 30
0.0
 10
47.468896
 20
14.118087
 30
0.0
 10
47.651900
 20
14.192611
 30
0.0
 10
47.651900
 20
14.192611
 30
0.0
  0
LWPOLYLINE
  5
203
100
AcDbEntity
  8
0
 62
7
100
AcDbPolyline
 90
10
 70
0
 10
30.653302
 20
14.158657
 30
0.0
 10
30.836304
 20
14.084132
 30
0.0
 10
30.910389
 20
13.907743
 30
0.0
 10
30.836304
 20
13.725181
 30
0.0
 10
30.653302
 20
13.650657
 30
0.0
 10
30.470298
 20
13.725181
 30
0.0
 10
30.402388
 20
13.907743
 30
0.0
 10
30.470298
 20
14.084132
 30
0.0
 10
30.653302
 20
14.158657
 30
0.0
 10
30.653302
 20
14.158657
 30
0.0
  0
LWPOLYLINE
  5
204
100
AcDbEntity
  8
0
 62
7
100
AcDbPolyline
 90
10
 70
0
 10
35.254848
 20
14.131317
 30
0.0
 10
35.437850
 20
14.056792
 30
0.0
 10
35.512375
 20
13.874228
 30
0.0
 10
35.437850
 20
13.691227
 30
0.0
 10
35.254848
 20
13.623317
 30
0.0
 10
35.078899
 20
13.691227
 30
0.0
 10
35.004374
 20
13.874228
 30
0.0
 10
35.078899
 20
14.056792
 30
0.0
 10
35.254848
 20
14.131317
 30
0.0
 10
35.254848
 20
14.131317
 30
0.0
  0
LWPOLYLINE
  5
205
100
AcDbEntity
  8
0
 62
7
100
AcDbPolyline
 90
10
 70
0
 10
45.728380
 20
14.131317
 30
0.0
 10
45.904328
 20
14.056792
 30
0.0
 10
45.978851
 20
13.880844
 30
0.0
 10
45.904328
 20
13.697840
 30
0.0
 10
45.728380
 20
13.623317
 30
0.0
 10
45.545376
 20
13.697840
 30
0.0
 10
45.470851
 20
13.880844
 30
0.0
 10
45.545376
 20
14.056792
 30
0.0
 10
45.728380
 20
14.131317
 30
0.0
 10
45.728380
 20
14.131317
 30
0.0
  0
LWPOLYLINE
  5
206
100
AcDbEntity
  8
0
 62
7
100
AcDbPolyline
 90
10
 70
0
 10
36.562329
 20
13.921414
 30
0.0
 10
36.738278
 20
13.846889
 30
0.0
 10
36.812803
 20
13.663885
 30
0.0
 10
36.738278
 20
13.487938
 30
0.0
 10
36.562329
 20
13.413414
 30
0.0
 10
36.379327
 20
13.487938
 30
0.0
 10
36.304803
 20
13.663885
 30
0.0
 10
36.379327
 20
13.846889
 30
0.0
 10
36.562329
 20
13.921414
 30
0.0
 10
36.562329
 20
13.921414
 30
0.0
  0
LWPOLYLINE
  5
207
100
AcDbEntity
  8
0
 62
7
100
AcDbPolyline
 90
10
 70
0
 10
47.035421
 20
13.914798
 30
0.0
 10
47.211370
 20
13.840274
 30
0.0
 10
47.285894
 20
13.657272
 30
0.0
 10
47.211370
 20
13.481323
 30
0.0
 10
47.035421
 20
13.406798
 30
0.0
 10
46.852417
 20
13.481323
 30
0.0
 10
46.777894
 20
13.657272
 30
0.0
 10
46.852417
 20
13.840274
 30
0.0
 10
47.035421
 20
13.914798
 30
0.0
 10
47.035421
 20
13.914798
 30
0.0
  0
LWPOLYLINE
  5
208
100
AcDbEntity
  8
0
 62
7
100
AcDbPolyline
 90
10
 70
0
 10
32.583438
 20
13.901128
 30
0.0
 10
32.766440
 20
13.826605
 30
0.0
 10
32.840965
 20
13.643601
 30
0.0
 10
32.766440
 20
13.467652
 30
0.0
 10
32.583438
 20
13.393128
 30
0.0
 10
32.407490
 20
13.467652
 30
0.0
 10
32.332965
 20
13.643601
 30
0.0
 10
32.407490
 20
13.826605
 30
0.0
 10
32.583438
 20
13.901128
 30
0.0
 10
32.583438
 20
13.901128
 30
0.0
  0
LWPOLYLINE
  5
209
100
AcDbEntity
  8
0
 62
7
100
AcDbPolyline
 90
10
 70
0
 10
35.884996
 20
13.887459
 30
0.0
 10
36.067560
 20
13.812934
 30
0.0
 10
36.142082
 20
13.636986
 30
0.0
 10
36.067560
 20
13.453984
 30
0.0
 10
35.884996
 20
13.379459
 30
0.0
 10
35.708607
 20
13.453984
 30
0.0
 10
35.634082
 20
13.636986
 30
0.0
 10
35.708607
 20
13.812934
 30
0.0
 10
35.884996
 20
13.887459
 30
0.0
 10
35.884996
 20
13.887459
 30
0.0
  0
LWPOLYLINE
  5
20a
100
AcDbEntity
  8
0
 62
7
100
AcDbPolyline
 90
10
 70
0
 10
46.358088
 20
13.887459
 30
0.0
 10
46.534036
 20
13.812934
 30
0.0
 10
46.608561
 20
13.636986
 30
0.0
 10
46.534036
 20
13.453984
 30
0.0
 10
46.358088
 20
13.379459
 30
0.0
 10
46.175083
 20
13.453984
 30
0.0
 10
46.100561
 20
13.636986
 30
0.0
 10
46.175083
 20
13.812934
 30
0.0
 10
46.358088
 20
13.887459
 30
0.0
 10
46.358088
 20
13.887459
 30
0.0
  0
LWPOLYLINE
  5
20b
100
AcDbEntity
  8
0
 62
7
100
AcDbPolyline
 90
10
 70
0
 10
37.855702
 20
13.874228
 30
0.0
 10
38.032091
 20
13.799706
 30
0.0
 10
38.106616
 20
13.623317
 30
0.0
 10
38.032091
 20
13.440753
 30
0.0
 10
37.855702
 20
13.366228
 30
0.0
 10
37.673140
 20
13.440753
 30
0.0
 10
37.598616
 20
13.623317
 30
0.0
 10
37.673140
 20
13.799706
 30
0.0
 10
37.855702
 20
13.874228
 30
0.0
 10
37.855702
 20
13.874228
 30
0.0
  0
LWPOLYLINE
  5
20c
100
AcDbEntity
  8
0
 62
7
100
AcDbPolyline
 90
10
 70
0
 10
39.149072
 20
13.874228
 30
0.0
 10
39.325021
 20
13.799706
 30
0.0
 10
39.399546
 20
13.623317
 30
0.0
 10
39.325021
 20
13.440753
 30
0.0
 10
39.149072
 20
13.366228
 30
0.0
 10
38.966070
 20
13.440753
 30
0.0
 10
38.891546
 20
13.623317
 30
0.0
 10
38.966070
 20
13.799706
 30
0.0
 10
39.149072
 20
13.874228
 30
0.0
 10
39.149072
 20
13.874228
 30
0.0
  0
LWPOLYLINE
  5
20d
100
AcDbEntity
  8
0
 62
7
100
AcDbPolyline
 90
10
 70
0
 10
41.458885
 20
13.874228
 30
0.0
 10
41.634834
 20
13.799706
 30
0.0
 10
41.709359
 20
13.623317
 30
0.0
 10
41.634834
 20
13.440753
 30
0.0
 10
41.458885
 20
13.366228
 30
0.0
 10
41.275883
 20
13.440753
 30
0.0
 10
41.201359
 20
13.623317
 30
0.0
 10
41.275883
 20
13.799706
 30
0.0
 10
41.458885
 20
13.874228
 30
0.0
 10
41.458885
 20
13.874228
 30
0.0
  0
LWPOLYLINE
  5
20e
100
AcDbEntity
  8
0
 62
7
100
AcDbPolyline
 90
10
 70
0
 10
43.761643
 20
13.874228
 30
0.0
 10
43.944647
 20
13.799706
 30
0.0
 10
44.019172
 20
13.623317
 30
0.0
 10
43.944647
 20
13.440753
 30
0.0
 10
43.761643
 20
13.366228
 30
0.0
 10
43.585696
 20
13.440753
 30
0.0
 10
43.511172
 20
13.623317
 30
0.0
 10
43.585696
 20
13.799706
 30
0.0
 10
43.761643
 20
13.874228
 30
0.0
 10
43.761643
 20
13.874228
 30
0.0
  0
LWPOLYLINE
  5
20f
100
AcDbEntity
  8
0
 62
7
100
AcDbPolyline
 90
10
 70
0
 10
48.220754
 20
13.874228
 30
0.0
 10
48.403759
 20
13.799706
 30
0.0
 10
48.478283
 20
13.623317
 30
0.0
 10
48.403759
 20
13.440753
 30
0.0
 10
48.220754
 20
13.366228
 30
0.0
 10
48.044808
 20
13.440753
 30
0.0
 10
47.970283
 20
13.623317
 30
0.0
 10
48.044808
 20
13.799706
 30
0.0
 10
48.220754
 20
13.874228
 30
0.0
 10
48.220754
 20
13.874228
 30
0.0
  0
LWPOLYLINE
  5
210
100
AcDbEntity
  8
0
 62
7
100
AcDbPolyline
 90
10
 70
0
 10
54.068047
 20
13.874228
 30
0.0
 10
54.243996
 20
13.799706
 30
0.0
 10
54.318518
 20
13.623317
 30
0.0
 10
54.243996
 20
13.440753
 30
0.0
 10
54.068047
 20
13.366228
 30
0.0
 10
53.885043
 20
13.440753
 30
0.0
 10
53.810518
 20
13.623317
 30
0.0
 10
53.885043
 20
13.799706
 30
0.0
 10
54.068047
 20
13.874228
 30
0.0
 10
54.068047
 20
13.874228
 30
0.0
  0
LWPOLYLINE
  5
211
100
AcDbEntity
  8
0
 62
7
100
AcDbPolyline
 90
10
 70
0
 10
50.530127
 20
13.867173
 30
0.0
 10
50.713129
 20
13.792650
 30
0.0
 10
50.787654
 20
13.610087
 30
0.0
 10
50.713129
 20
13.433698
 30
0.0
 10
50.530127
 20
13.359173
 30
0.0
 10
50.354179
 20
13.433698
 30
0.0
 10
50.279654
 20
13.610087
 30
0.0
 10
50.354179
 20
13.792650
 30
0.0
 10
50.530127
 20
13.867173
 30
0.0
 10
50.530127
 20
13.867173
 30
0.0
  0
LWPOLYLINE
  5
212
100
AcDbEntity
  8
0
 62
7
100
AcDbPolyline
 90
10
 70
0
 10
51.864508
 20
13.867173
 30
0.0
 10
52.040897
 20
13.792650
 30
0.0
 10
52.115421
 20
13.616702
 30
0.0
 10
52.040897
 20
13.433698
 30
0.0
 10
51.864508
 20
13.359173
 30
0.0
 10
51.681946
 20
13.433698
 30
0.0
 10
51.607421
 20
13.616702
 30
0.0
 10
51.681946
 20
13.792650
 30
0.0
 10
51.864508
 20
13.867173
 30
0.0
 10
51.864508
 20
13.867173
 30
0.0
  0
LWPOLYLINE
  5
213
100
AcDbEntity
  8
0
 62
7
100
AcDbPolyline
 90
10
 70
0
 10
31.256111
 20
13.860560
 30
0.0
 10
31.439115
 20
13.786035
 30
0.0
 10
31.513637
 20
13.603031
 30
0.0
 10
31.439115
 20
13.427082
 30
0.0
 10
31.256111
 20
13.352560
 30
0.0
 10
31.079722
 20
13.427082
 30
0.0
 10
31.005637
 20
13.603031
 30
0.0
 10
31.079722
 20
13.786035
 30
0.0
 10
31.256111
 20
13.860560
 30
0.0
 10
31.256111
 20
13.860560
 30
0.0
  0
LWPOLYLINE
  5
214
100
AcDbEntity
  8
0
 62
7
100
AcDbPolyline
 90
10
 70
0
 10
31.926389
 20
13.759136
 30
0.0
 10
32.102778
 20
13.684611
 30
0.0
 10
32.177302
 20
13.508222
 30
0.0
 10
32.102778
 20
13.325218
 30
0.0
 10
31.926389
 20
13.251136
 30
0.0
 10
31.743827
 20
13.325218
 30
0.0
 10
31.669302
 20
13.508222
 30
0.0
 10
31.743827
 20
13.684611
 30
0.0
 10
31.926389
 20
13.759136
 30
0.0
 10
31.926389
 20
13.759136
 30
0.0
  0
LWPOLYLINE
  5
215
100
AcDbEntity
  8
0
 62
7
100
AcDbPolyline
 90
10
 70
0
 10
51.200845
 20
13.745465
 30
0.0
 10
51.383849
 20
13.670940
 30
0.0
 10
51.458374
 20
13.487938
 30
0.0
 10
51.383849
 20
13.311990
 30
0.0
 10
51.200845
 20
13.237465
 30
0.0
 10
51.024897
 20
13.311990
 30
0.0
 10
50.950374
 20
13.487938
 30
0.0
 10
51.024897
 20
13.670940
 30
0.0
 10
51.200845
 20
13.745465
 30
0.0
 10
51.200845
 20
13.745465
 30
0.0
  0
LWPOLYLINE
  5
216
100
AcDbEntity
  8
0
 62
7
100
AcDbPolyline
 90
39
 70
0
 10
24.443970
 20
12.840150
 30
0.0
 10
25.331327
 20
12.777728
 30
0.0
 10
26.082182
 20
12.624072
 30
0.0
 10
26.666976
 20
12.374264
 30
0.0
 10
27.172186
 20
12.029580
 30
0.0
 10
27.598310
 20
11.588911
 30
0.0
 10
27.945844
 20
11.051149
 30
0.0
 10
28.215284
 20
10.415185
 30
0.0
 10
28.407127
 20
9.679910
 30
0.0
 10
28.521869
 20
8.844216
 30
0.0
 10
28.560006
 20
7.906994
 30
0.0
 10
28.446271
 20
6.580279
 30
0.0
 10
28.300161
 20
6.024766
 30
0.0
 10
28.091054
 20
5.534821
 30
0.0
 10
27.816322
 20
5.105698
 30
0.0
 10
27.473338
 20
4.732651
 30
0.0
 10
27.059475
 20
4.410933
 30
0.0
 10
26.572104
 20
4.135798
 30
0.0
 10
25.986233
 20
3.916584
 30
0.0
 10
25.347529
 20
3.793666
 30
0.0
 10
24.680603
 20
3.763247
 30
0.0
 10
24.010065
 20
3.821525
 30
0.0
 10
23.360527
 20
3.964700
 30
0.0
 10
22.756601
 20
4.188972
 30
0.0
 10
22.222897
 20
4.490541
 30
0.0
 10
21.784027
 20
4.865607
 30
0.0
 10
21.360772
 20
5.427375
 30
0.0
 10
21.117363
 20
6.115866
 30
0.0
 10
21.018329
 20
7.108466
 30
0.0
 10
21.028200
 20
8.582562
 30
0.0
 10
21.124296
 20
10.341368
 30
0.0
 10
21.222846
 20
10.827335
 30
0.0
 10
21.377891
 20
11.218253
 30
0.0
 10
21.853029
 20
11.960150
 30
0.0
 10
22.148682
 20
12.238676
 30
0.0
 10
22.490931
 20
12.460023
 30
0.0
 10
23.338833
 20
12.744485
 30
0.0
 10
24.443970
 20
12.840150
 30
0.0
 10
24.443970
 20
12.840150
 30
0.0
  0
LWPOLYLINE
  5
217
100
AcDbEntity
  8
0
 62
7
100
AcDbPolyline
 90
57
 70
0
 10
39.625764
 20
10.540039
 30
0.0
 10
40.152059
 20
10.464103
 30
0.0
 10
40.684097
 20
10.285597
 30
0.0
 10
41.999960
 20
9.542117
 30
0.0
 10
42.993106
 20
9.010573
 30
0.0
 10
43.448018
 20
8.886646
 30
0.0
 10
43.897027
 20
8.857914
 30
0.0
 10
44.356537
 20
8.924850
 30
0.0
 10
44.842949
 20
9.087927
 30
0.0
 10
45.962096
 20
9.704395
 30
0.0
 10
46.871982
 20
10.204593
 30
0.0
 10
47.655870
 20
10.380405
 30
0.0
 10
48.335077
 20
10.380414
 30
0.0
 10
48.931581
 20
10.258789
 30
0.0
 10
49.457210
 20
10.015520
 30
0.0
 10
49.923790
 20
9.650597
 30
0.0
 10
50.291516
 20
9.195663
 30
0.0
 10
50.534563
 20
8.697603
 30
0.0
 10
50.654235
 20
8.148858
 30
0.0
 10
50.651835
 20
7.541868
 30
0.0
 10
50.552826
 20
7.053349
 30
0.0
 10
50.366375
 20
6.606345
 30
0.0
 10
50.100847
 20
6.208135
 30
0.0
 10
49.764610
 20
5.866002
 30
0.0
 10
49.366029
 20
5.587224
 30
0.0
 10
48.913470
 20
5.379083
 30
0.0
 10
48.415300
 20
5.248859
 30
0.0
 10
47.879884
 20
5.203833
 30
0.0
 10
47.437386
 20
5.232100
 30
0.0
 10
47.059241
 20
5.328752
 30
0.0
 10
46.018098
 20
5.919971
 30
0.0
 10
44.840139
 20
6.551234
 30
0.0
 10
44.333113
 20
6.709518
 30
0.0
 10
43.849879
 20
6.763108
 30
0.0
 10
43.367300
 20
6.712162
 30
0.0
 10
42.862244
 20
6.556832
 30
0.0
 10
41.692161
 20
5.933642
 30
0.0
 10
40.607152
 20
5.325439
 30
0.0
 10
40.188022
 20
5.211409
 30
0.0
 10
39.690147
 20
5.163263
 30
0.0
 10
39.064372
 20
5.175749
 30
0.0
 10
38.503382
 20
5.291026
 30
0.0
 10
38.012926
 20
5.504188
 30
0.0
 10
37.598752
 20
5.810323
 30
0.0
 10
37.266609
 20
6.204524
 30
0.0
 10
37.022247
 20
6.681880
 30
0.0
 10
36.871414
 20
7.237483
 30
0.0
 10
36.819858
 20
7.866424
 30
0.0
 10
36.878801
 20
8.451113
 30
0.0
 10
37.047002
 20
8.980713
 30
0.0
 10
37.311515
 20
9.446985
 30
0.0
 10
37.659399
 20
9.841689
 30
0.0
 10
38.077710
 20
10.156587
 30
0.0
 10
38.553503
 20
10.383437
 30
0.0
 10
39.073835
 20
10.514001
 30
0.0
 10
39.625764
 20
10.540039
 30
0.0
 10
39.625764
 20
10.540039
 30
0.0
  0
ENDSEC
  0
SECTION
  2
OBJECTS
  0
DICTIONARY
  5
C
330
0
100
AcDbDictionary
  3
ACAD_GROUP
350
D
  3
ACAD_MLINESTYLE
350
17
  0
DICTIONARY
  5
D
330
C
100
AcDbDictionary
  0
DICTIONARY
  5
1A
330
C
100
AcDbDictionary
  0
DICTIONARY
  5
17
330
C
100
AcDbDictionary
  3
STANDARD
350
18
  0
DICTIONARY
  5
19
330
C
100
AcDbDictionary
  0
ENDSEC
  0
EOF
