<?xml version="1.0" encoding="UTF-8" standalone="no"?>
<svg
   xmlns:dc="http://purl.org/dc/elements/1.1/"
   xmlns:cc="http://creativecommons.org/ns#"
   xmlns:rdf="http://www.w3.org/1999/02/22-rdf-syntax-ns#"
   xmlns:svg="http://www.w3.org/2000/svg"
   xmlns="http://www.w3.org/2000/svg"
   xmlns:sodipodi="http://sodipodi.sourceforge.net/DTD/sodipodi-0.dtd"
   xmlns:inkscape="http://www.inkscape.org/namespaces/inkscape"
   width="1492.9133"
   height="1492.9133"
   viewBox="-45 -990 1492.9133 1492.9133"
   version="1.1"
   id="svg6"
   sodipodi:docname="lotus - projection-4.svg"
   inkscape:version="0.92.3 (2405546, 2018-03-11)">
  <metadata
     id="metadata12">
    <rdf:RDF>
      <cc:Work
         rdf:about="">
        <dc:format>image/svg+xml</dc:format>
        <dc:type
           rdf:resource="http://purl.org/dc/dcmitype/StillImage" />
        <dc:title>OpenSCAD Model</dc:title>
      </cc:Work>
    </rdf:RDF>
  </metadata>
  <defs
     id="defs10" />
  <sodipodi:namedview
     pagecolor="#ffffff"
     bordercolor="#666666"
     borderopacity="1"
     objecttolerance="10"
     gridtolerance="10"
     guidetolerance="10"
     inkscape:pageopacity="0"
     inkscape:pageshadow="2"
     inkscape:window-width="1920"
     inkscape:window-height="1026"
     id="namedview8"
     showgrid="true"
     inkscape:zoom="0.45603865"
     inkscape:cx="582.04514"
     inkscape:cy="626.72692"
     inkscape:window-x="1600"
     inkscape:window-y="27"
     inkscape:window-maximized="1"
     inkscape:current-layer="svg6"
     inkscape:document-units="cm"
     fit-margin-top="0"
     fit-margin-left="0"
     fit-margin-right="0"
     fit-margin-bottom="0"
     inkscape:snap-nodes="false"
     inkscape:snap-others="false"
     inkscape:snap-to-guides="false"
     inkscape:snap-bbox="true"
     inkscape:bbox-nodes="true">
    <inkscape:grid
       type="xygrid"
       id="grid4529"
       units="cm"
       spacingx="737.00785"
       spacingy="737.00787"
       originx="9.4488051"
       originy="9.4487701" />
  </sodipodi:namedview>
  <title
     id="title2">OpenSCAD Model</title>
  <path
     style="fill:none;stroke:#0000ff;stroke-width:0.5;stroke-opacity:1"
     d="M -44.75,-989.75 V 502.66325 H 1447.6633 V -989.75 Z m 16.582328,16.5823 H 108.83116 l 5.27903,4.82592 6.76918,9.39229 4.40465,10.33148 1.71651,9.19816 -1.94326,11.27069 -4.24275,13.63522 -6.15358,14.44474 -8.0322,15.31932 -9.74851,16.16125 -9.360056,14.02367 -14.056094,9.39248 -16.161457,9.7487 -15.286688,7.99957 -12.663594,5.4087 -0.583586,0.19453 -12.857717,2.20263 -12.0481957,0.0993 -11.2060503,-2.10516 -10.331685,-4.40465 -9.392276,-6.73656 -1.101111,-1.23039 z m 168.544242,0 h 103.05667 l -9.84577,7.4168 -26.62242,4.11306 -56.03025,13.63522 -1.58681,-8.45307 -4.37223,-10.33148 z m 146.00265,0 h 10.75256 l -11.88609,0.80932 z m 115.59079,0 h 54.18405 l -7.12521,5.08489 -3.01195,-0.58379 z m 99.10552,0 h 29.82869 l -0.0669,0.38805 -5.34384,13.99145 -3.46546,6.3479 -22.86539,-6.28326 -15.54606,-2.91489 6.54224,-4.63119 z m 76.27234,0 h 82.26422 l -23.67531,12.14526 -42.42765,25.68342 -6.0239,4.24274 -19.65932,-7.15763 0.22715,-1.74893 5.57081,-22.99508 z m 168.70615,0 h 79.18743 l 6.57466,18.00745 4.59897,18.8496 -18.55801,6.73656 -15.12498,-10.59086 -42.42745,-25.683 z m 126.79683,0 h 29.99081 l 3.27111,2.04052 15.02793,10.72015 -9.16574,1.68408 -31.5454,8.6476 -0.4533,-0.87396 -5.34385,-13.99126 z m 74.07012,0 h 53.69833 l 0.4211,0.84235 -35.91766,3.65977 -9.39228,1.78156 z m 167.08693,0 h 2.5262 l 0.2592,0.19453 z m 45.2452,0 h 100.6277 l -3.7892,8.87434 -2.1052,11.23827 v 3.53029 l -49.812,-12.11304 -37.2779,-5.73251 z m 134.1812,0 h 137.6465 v 136.67503 l -7.7728,8.55033 -9.3601,6.76899 -1.7489,0.74468 -4.9228,0.90699 -12.0482,-0.0993 -12.8579,-2.20242 -13.635,-4.24275 -14.4772,-6.186 -15.2869,-7.99978 -16.1937,-9.78092 -12.6636,-8.45307 -1.5222,-2.26707 -9.7487,-16.16145 -8.032,-15.31932 -6.186,-14.44474 -4.2427,-13.66744 -2.2024,-12.85792 -0.097,-12.0482 2.1052,-11.20605 3.6597,-8.61497 7.4817,-6.8014 z m -590.00207,6.25085 42.00657,21.56995 42.42746,25.68322 1.846,1.29503 -33.48847,15.28689 -40.54904,22.50916 -13.89418,9.19815 -21.21393,-14.02367 -40.51662,-22.54179 -24.54966,-11.20605 35.33465,-21.37562 45.63392,-23.44858 z m -372.1964,16.80908 30.54116,0.55034 -7.99957,18.88203 -11.20605,35.17255 -3.75683,17.32741 -27.98291,-1.81377 -51.81993,1.26363 -25.55371,2.85024 18.16935,-46.83231 10.94708,-22.15313 7.54627,-1.16575 z m 748.66797,0 58.4594,3.91872 15.4812,31.31867 14.7362,37.99059 -16.4527,-1.8462 -51.7877,-1.26342 -35.3022,2.26707 -2.17,-9.97526 -11.1737,-35.14033 -11.2384,-26.59021 z m -690.95364,1.00304 1.00324,0.0324 29.92596,3.07679 -18.78475,14.8336 -28.53346,24.93833 5.31184,-16.61475 z m 624.59174,0.84255 14.0563,33.26192 3.3359,10.49338 -2.6235,-2.52603 -33.16463,-28.95433 -11.62713,-9.23057 z m -558.13274,6.67192 43.75551,8.22632 8.8093,2.39655 -10.75256,12.43684 -13.18173,12.9872 -14.93066,12.89034 -16.51769,12.89014 -18.1043,12.89035 -4.21053,2.81762 -23.38373,-5.66787 -31.54541,-4.7933 7.51406,-7.19005 33.13224,-28.95434 35.72331,-28.27429 z m 493.5199,1.29503 31.35108,24.77643 33.13226,28.98675 13.8942,13.31121 -23.0598,3.49787 -29.01913,7.02814 -13.44089,-9.00382 -18.10451,-12.92256 -16.54991,-12.85792 -14.89823,-12.89014 -13.18173,-12.9872 -4.53435,-5.2468 17.45691,-4.76108 z m 259.81204,5.08488 45.5691,11.07637 1.9757,11.62712 4.2752,13.63522 2.5584,6.0241 -14.8982,-11.49764 z m -1018.97376,3.07679 -41.74721,32.64652 -9.23058,7.12522 6.12137,-14.31526 4.24274,-13.66744 0.35643,-1.97568 z m 984.67546,2.36433 14.542,11.23827 44.3385,34.68704 20.2745,15.64312 9.619,7.22227 -1.2956,-0.38804 -55.8036,-11.30311 -9.2952,-1.0695 -0.3238,-1.06809 -18.558,-47.90099 z m -947.55925,0.9386 -17.94261,46.18428 -2.81782,9.84577 -1.06808,0.13373 -55.83593,11.30313 -15.22205,4.5019 8.6474,-6.51 20.27452,-15.6105 44.3709,-34.71947 z m 305.99635,4.66361 8.38843,2.33191 0.0324,24.48505 -23.15698,18.65506 -33.16486,30.31462 -0.58358,0.61519 -22.47695,-7.54628 5.53839,-3.98358 16.5499,-12.85771 14.93066,-12.89035 13.18173,-12.9874 11.36775,-13.18152 z m 335.98738,2.59108 3.91893,5.53818 11.36796,13.14931 13.18173,13.01982 14.89824,12.89014 16.5499,12.85792 14.76876,10.52581 -24.61453,8.29137 -7.67576,-7.90251 -33.13244,-30.31482 -14.25042,-11.46522 0.29179,-2.13738 0.0324,-20.89012 -0.29179,-2.20222 z m -277.49554,18.68749 33.78006,15.4488 40.51661,22.50936 13.18173,8.71203 -0.48571,0.32341 -34.16891,26.52536 -31.18918,28.14461 -9.16553,-8.06442 -12.8255,-13.79713 -2.42897,-3.27111 -8.58255,-15.15741 -7.12541,-17.32721 -4.92279,-18.55801 -1.03647,-8.09684 2.23465,-1.78135 z m 221.88616,1.03647 13.82955,9.71629 10.10493,8.12906 -4.59897,17.32741 -7.12541,17.35963 -9.16553,16.09661 -11.04415,14.96309 -12.82529,13.79692 -4.14569,3.62735 -5.14953,-5.34386 -31.09191,-28.01513 -27.85343,-21.66721 6.38054,-4.21033 40.54903,-22.50936 z m -268.81552,34.4603 4.33981,16.35558 7.12521,17.35963 9.16573,16.12904 11.04394,14.93066 0.67984,0.71307 -11.78903,-7.7406 -35.10791,-19.01152 -19.75638,-8.61496 22.86559,-20.92233 z m 314.32016,0.74447 4.46929,3.59493 30.05565,27.49699 -26.94644,11.75661 -35.10791,19.0115 -11.75681,7.7406 0.64843,-0.74467 11.07657,-14.93046 9.19772,-12.6636 9.16594,-16.12903 7.09258,-17.32721 z m -547.9309,12.01578 8.51791,0.51732 -10.49338,10.94688 -26.2664,29.667 -24.29052,29.50489 -14.57441,18.97908 -34.07164,0.35643 -0.74448,0.0669 1.846,-18.29884 8.77708,-45.21285 6.25084,-21.56996 33.22948,-3.72461 z m 789.50856,0 51.7877,1.23039 25.0354,2.81782 8.7447,30.31441 8.7769,45.21306 1.0688,10.33148 -35.6262,-0.38804 -3.6922,0.29179 -18.4932,-23.99892 -24.2583,-29.50509 -26.2661,-29.6668 -5.2793,-5.50576 z m -741.31599,3.04437 1.16575,0.0993 41.35876,6.28326 -7.5787,4.85815 -22.21778,13.79692 -16.388,10.00768 0.0993,-4.95521 z m 686.12789,0.97183 1.0041,4.59897 3.5949,30.05565 -25.2297,-15.44879 -20.7605,-12.85792 0.4859,-0.13172 z m 159.2166,3.07679 1.7489,0.19453 55.8038,11.30331 22.9302,6.76898 11.0117,37.21328 9.0685,44.92126 -14.801,-4.30759 -45.213,-8.77687 -24.0638,-2.4616 -2.0728,-20.20967 -8.777,-45.21285 z m -1005.9862,1.55379 -2.91489,10.07252 -8.77708,45.21285 -2.9473,28.69537 -17.52154,1.78135 -45.18043,8.77688 -22.574002,6.50981 11.141202,-54.96136 7.93494,-26.75211 31.67488,-9.39247 z m 503.39807,4.95521 1.23039,0.77771 34.1685,26.52536 31.0597,28.01533 0.6152,0.64842 -6.93089,5.05247 -17.48932,10.8172 -18.81697,9.94303 -20.14503,9.2628 -1.35988,0.55055 -13.34343,-5.37648 -20.11281,-9.26259 -18.8494,-9.97545 -17.45689,-10.78518 -1.0695,-0.77771 25.8127,-23.28647 34.16891,-26.49314 z m -265.86861,3.69239 13.01961,3.14143 16.8417,5.66787 -11.04415,11.4328 -27.56182,31.9987 -24.93834,32.45219 -11.98335,17.42448 -28.95433,-10.91446 -1.10091,-0.292 -2.94751,-15.48121 -2.04012,-24.93814 31.44794,-19.23824 22.21797,-13.79713 20.95456,-13.37606 z m 533.80975,1.32806 17.65122,11.30332 22.25017,13.79712 39.9661,24.45263 -1.3925,16.71181 -4.8582,25.74806 -8.356,2.72056 -23.2866,8.77687 -8.4531,-12.33958 -9.23037,-12.66339 -24.93832,-32.4522 -27.52941,-31.9989 -3.98358,-4.11326 22.76833,-7.67577 z m -638.19449,5.21458 -0.16616,1.48915 -0.55035,27.78838 -7.09279,4.34001 -25.65079,15.90229 -21.4731,13.63502 20.88992,-25.35941 26.26619,-29.66699 z m 741.99628,4.40465 25.2621,28.53346 20.8577,25.39163 -21.4729,-13.66745 -23.6753,-14.67149 -0.3887,-20.69579 z m -582.58534,7.74061 24.09639,10.49359 35.07549,19.0115 31.73973,20.85749 -22.08829,26.39568 -22.50936,30.96223 -11.5947,18.26682 -5.50576,1.61843 -29.18108,8.97141 -10.16958,3.30354 -7.28732,-6.57486 -24.29051,-18.10471 -26.78433,-16.35538 -9.97546,-4.89057 9.29522,-13.47311 20.30694,-26.46072 27.52921,-31.96628 z m 420.97195,1.94325 14.73634,15.25447 27.52941,31.99891 24.97076,32.45219 10.00767,14.54181 -15.31931,7.48144 -26.78433,16.35578 -23.57805,17.58638 -3.27132,-1.03627 -29.18108,-8.97141 -18.62265,-5.47354 -4.1779,-6.60687 -31.73994,-43.59361 -16.84129,-20.17745 26.49294,-17.39205 35.10791,-19.04372 z m -825.102397,4.59898 -1.295032,4.37223 -11.303314,55.83612 -1.620056,14.50959 -13.181729,4.27496 -48.030676,18.65527 11.368157,-14.70391 34.719261,-44.37091 15.643121,-20.27431 z m 1259.094187,3.14163 7.9349,3.4006 14.8658,4.82593 12.1777,3.78904 11.6271,47.77151 -4.1132,-5.31143 -34.6869,-44.37071 z m -27.4322,4.04842 4.6963,6.28306 15.6431,20.2421 34.6868,44.40333 11.4004,14.70391 -48.0629,-18.65507 -5.0524,-1.45774 -0.5506,-4.66362 -11.3031,-55.83612 z m -1268.097758,0.77771 -7.805451,10.10473 -29.926164,38.24975 9.651647,-39.61003 6.477389,-1.10111 13.667645,-4.24274 z m -78.539614,0.48571 5.926833,2.52624 14.898239,4.82572 3.692189,0.68004 -11.108988,45.66634 -5.732508,37.2455 -7.675765,10.16958 z m 1459.248472,1.32827 v 103.93144 l -4.3398,-5.92684 -0.8744,-1.16575 -5.6354,-36.66272 -12.6958,-52.07889 10.9468,-2.07274 10.3315,-4.40485 z m -1099.42389,29.95858 1.52218,18.29884 0.0324,0.29179 -6.25084,-1.71651 -17.48912,-3.07679 3.49766,-2.23485 z m 741.47789,0.45268 10.1374,6.28307 12.7282,8.06462 -11.789,2.07274 -13.8296,3.78945 1.9111,-10.2022 z m -471.82023,18.81698 10.16978,7.99998 22.47674,20.79265 -5.66768,1.74893 -25.65099,7.54628 -41.29391,11.91851 13.3112,-18.29904 25.26215,-30.21735 z m 198.63231,0.9386 21.66701,25.94238 13.79713,18.97908 -26.88159,-7.77303 -25.6508,-7.54628 -12.92256,-4.016 14.8334,-13.69986 z m -157.27356,1.65166 13.08467,6.93089 15.25447,6.99572 -9.36006,3.40081 -1.16575,0.38804 -7.7404,-8.42065 z m 110.92697,4.82573 -10.07231,9.32763 -0.90719,1.00324 -5.50577,-1.8462 3.36818,-1.55379 z m 421.36061,6.08894 23.3837,0.22715 0.7773,7.70819 0.1621,13.57038 -18.3961,-13.34364 z m -950.21514,0.0993 -9.32744,12.85771 -9.29521,6.73656 0.19453,-19.10856 3.33596,-0.3234 z m 52.17613,1.81357 13.24657,1.0695 36.792,6.44537 11.30332,3.10921 7.5787,25.13246 9.4247,22.2502 -14.08851,25.32699 -16.32316,32.54946 -1.42452,3.17385 -3.14163,1.42451 -32.54926,16.32316 -21.27877,11.82145 -3.91873,-2.17 -23.15696,-9.81335 -19.75639,-5.95926 -4.14548,-15.1572 -6.44517,-36.82463 -1.06808,-13.21415 11.78923,-17.91019 11.46502,-16.67959 27.78856,-19.10856 z m 850.59151,0.55055 9.7485,6.38033 28.1124,19.36753 0.583,0.38804 0.3886,0.58379 19.3677,28.14481 10.5909,16.09642 -6.3157,36.1768 -6.9957,25.55374 -11.2061,3.4008 -14.8982,4.82552 -17.7483,7.51406 -30.606,-17.0034 -31.8046,-15.96713 -12.469,-24.84107 -18.3961,-33.03538 3.9189,-7.02794 9.8134,-23.15699 4.5019,-14.96308 20.1124,-5.47334 36.7922,-6.44537 z m 95.7373,0.0324 21.6671,2.20222 45.213,8.77708 18.7846,5.44092 4.3075,38.41165 0.9717,40.41955 -1.1984,18.78456 -15.6431,-14.96288 -29.667,-26.2662 -29.5049,-24.29052 -14.542,-11.20605 z m -1041.12672,0.58196 -0.3234,30.57378 v 3.91894 l -23.73996,18.26641 -29.50489,24.29073 -29.666994,26.26619 -7.12521,6.83362 -0.744476,-11.95093 1.230392,-51.78751 3.206071,-28.63053 25.586157,-7.38417 45.18043,-8.77708 z m 522.34473,13.4409 15.25447,5.5706 4.9552,1.61844 -4.7933,5.18195 -13.01982,16.55011 -4.11327,-28.20945 z m -4.4695,1.81377 -4.40485,30.18493 -17.45669,-22.18535 20.88971,-7.57851 z m -332.42487,3.59493 8.71224,3.30353 -4.92279,7.93494 -1.42431,-3.30354 z m 666.82526,2.68814 -4.2428,10.00767 -4.2105,-6.8014 z m 300.3935,2.52623 35.0431,13.6028 34.363,16.93856 1.6519,10.75256 3.8541,57.77938 -0.5506,30.50894 -24.2905,-10.23462 -35.1403,-11.20605 -13.1493,-2.88247 1.9754,-31.12433 -1.263,-51.78751 z m -1265.183113,1.65167 -1.457544,12.89014 -1.230392,51.78751 v 15.67554 l 1.553592,24.5821 -7.060366,1.55359 -35.140335,11.20605 -14.898239,4.82593 -15.189626,6.41275 -0.648428,-36.0149 4.0808406,-61.11514 0.2919952,-1.97569 26.4927382,-13.08446 z m 680.945933,3.43302 7.67597,2.49381 24.64674,7.64335 25.6508,7.54628 47.93341,13.82955 7.64355,12.04799 14.93046,27.01128 -14.89824,19.14078 -15.09237,23.09234 -13.08446,23.96671 -5.99188,13.27879 -20.04777,4.04862 -25.29456,4.24254 -12.53411,1.74894 -5.34366,-15.77261 -11.78923,-28.92191 -13.86177,-28.5981 -16.09661,-28.11239 -10.23442,-15.25447 3.82167,-5.66787 16.19368,-20.59833 z m -98.0044,2.62329 8.90656,9.68387 20.98698,26.68727 2.97972,4.43707 -4.9552,7.4166 -16.09662,28.11259 -13.86176,28.5979 -11.78923,28.95453 -7.61093,22.47674 -4.59897,-0.64822 -25.29477,-4.24275 -24.5819,-4.98762 -5.73251,-1.39311 -1.42451,-3.14143 -13.05225,-23.93428 -15.09236,-23.12456 -9.19815,-12.6638 -10.29907,-13.21395 1.97567,-4.08064 17.55396,-31.837 0.25856,-0.38804 6.89846,-2.04052 54.11942,-15.61091 25.651,-7.54628 z m -253.9499,1.06971 8.93898,4.3398 26.78433,16.35579 18.00745,13.4407 -6.186,2.04031 -30.63842,10.6555 -13.40848,5.08489 -4.72846,-5.37628 -5.76513,-8.1941 -7.93493,-14.218 z m 604.70578,2.07274 13.8944,22.44452 -3.3359,6.0241 -13.3761,18.91424 -19.75636,-7.44902 -27.85322,-9.71629 9.06847,-6.76898 26.78453,-16.32336 z m 222.1131,35.2376 27.4,22.54158 29.6343,26.2662 2.2673,2.17 -1.1986,-0.16616 -26.3632,-0.48591 -12.4693,-20.11262 -16.8737,-26.55758 z m -333.88196,0.80912 10.88202,3.36838 -1.52218,1.35967 -4.24275,4.56676 z m -917.471568,0.71307 -2.234644,33.26191 v -30.21755 z m 199.020958,1.48915 -12.30737,19.36773 -17.42427,28.14461 -15.74038,0.29199 -12.30737,1.45755 28.14481,-24.90612 z m 334.46517,1.49078 -3.2389,5.86199 -3.49786,-3.78925 z m 523.3486,6.50981 9.2952,16.67959 0.2914,0.6152 -16.8737,-6.99573 z m -661.22221,0.9386 8.45327,11.95093 -18.78475,7.74061 5.92683,-11.78903 z m 560.69156,0.97163 4.04842,1.32826 -21.50532,27.23782 -3.91893,-8.16168 6.76898,-7.28711 z m -456.56579,2.26726 6.67192,5.99168 11.88609,12.8253 -3.10921,6.50981 -19.07614,-24.16103 z m 465.37509,0.67984 26.68726,9.32764 17.23015,6.50981 -14.9953,13.99145 -18.10471,13.95903 -19.30289,12.30716 -3.30354,1.74893 -5.73251,-13.79712 z m -474.5084,2.29969 16.2263,40.87284 -5.50616,13.27879 -9.81315,-5.18195 -19.30289,-12.30736 -18.10471,-13.95883 -7.64355,-7.12521 9.87819,-3.72461 30.6062,-10.68792 z m -277.68984,8.67961 4.40465,25.16508 0.42108,1.49078 -4.59878,-0.87396 -15.44879,-1.26342 13.11668,-21.14908 z m 1029.33749,4.4695 4.2752,6.73676 8.7771,14.12093 -5.4411,0.45269 -12.8255,2.42917 2.9473,-10.85002 z m -208.5749,10.07251 21.1489,8.74466 29.0516,13.24657 13.2464,29.0514 9.7811,23.70774 -5.3441,4.63139 -15.6755,16.80908 -13.9266,18.10431 -12.3072,19.30309 -6.2831,11.85366 -21.5701,-7.70818 -31.77196,-9.71629 -15.70797,-4.11326 -2.85004,-10.9793 -9.74871,-31.80438 -9.06846,-25.39163 8.84172,-4.66381 19.3353,-12.30716 18.10452,-13.95904 16.7769,-15.67554 z m -613.02961,2.29989 1.78135,2.0079 16.77666,15.64312 18.10471,13.95903 19.30289,12.30737 15.70796,8.29116 -6.73676,18.81698 -9.71608,31.77215 -5.47354,20.98698 -7.38438,1.94326 -31.77216,9.71628 -14.89824,4.82573 -15.18962,5.44112 -3.46544,-6.57486 -12.30717,-19.33511 -9.19815,-12.63117 -13.95903,-18.10451 -15.18963,-16.29094 13.18173,-31.8368 8.35601,-18.3961 24.74381,-11.23847 z m 496.27288,10.13736 4.59897,9.55418 -28.72758,36.33871 -5.60303,1.65147 11.85367,-21.73186 11.69197,-17.84534 z m -380.90884,1.32827 7.15763,9.19795 15.09256,23.12476 5.66767,10.36391 -4.46929,-1.32827 -26.78433,-33.87732 1.71651,-4.11326 z m 173.82346,0.0669 -4.43707,30.24997 -4.11326,11.56228 -3.17406,4.95521 -3.07659,3.14163 -3.53048,2.68814 -4.1779,2.65571 -1.26343,0.77771 2.68814,-7.93493 11.78903,-28.92211 z m 35.65847,3.69219 11.30331,23.31909 11.78903,28.92191 -1.13434,-0.67984 -4.17791,-2.65572 -3.53008,-2.68814 -3.07699,-3.14183 -3.17385,-4.955 -4.11326,-11.56249 z m -561.24189,16.64717 28.88969,2.39655 11.88609,2.26706 1.68429,6.15379 9.68366,25.68321 -21.05182,14.47717 -32.48441,24.93833 -31.96668,27.56163 -7.06037,6.8014 -5.99168,-17.7807 -3.59491,-14.89824 4.08083,-6.08894 13.37585,-20.95455 13.82955,-22.2502 17.29479,-28.27409 z m 1114.54903,0.38784 10.6555,0.22735 26.2986,3.10922 -5.6354,37.01874 -1.8138,7.57871 -12.4044,-20.01555 z m -1145.18765,0.22735 -12.17748,19.88587 -13.79712,22.25019 -1.0695,1.65167 -6.056518,-39.80415 0.713068,-0.16616 z m 1116.52475,0.0993 21.6672,35.43173 13.7971,22.25039 13.4083,20.95456 1.2957,1.91063 -0.8422,3.4008 -9.0036,26.75191 -13.2142,-12.79287 -31.9987,-27.52942 -32.4522,-24.93813 -14.7363,-10.16958 0.5506,-1.16575 10.7525,-28.53326 20.5013,-3.88671 z m -1272.372972,1.91084 0.291792,16.80907 -0.291792,0.16616 z m 1121.868572,2.97953 18.9467,10.55843 -0.1946,0.0993 -10.9793,7.77283 -6.2184,-14.96288 z m -786.3023,2.42917 -6.44517,15.51364 -9.65144,-6.83383 11.30311,-6.28306 z m -79.18741,3.78925 12.33958,5.24679 -8.42065,5.18196 z m 945.03321,2.81782 -2.5585,6.83383 -5.7003,-3.49787 6.8014,-2.88266 z m 185.6773,0.0993 11.9834,3.82168 35.3022,14.93045 1.587,0.84235 -3.5303,34.55736 -18.9142,-23.86944 z m -1321.472319,4.72846 -26.557783,30.37946 -11.0119267,13.92661 -2.9146833,-28.37136 29.310562,-12.372 z m 34.136285,0.16616 5.603025,36.79221 4.242745,17.52153 -6.218424,9.29501 -12.954982,18.10472 -12.85792,16.55011 -12.890139,14.89824 -12.987403,13.18152 -7.967152,6.86625 -3.271116,-11.98356 -8.0968385,-43.20455 21.6021735,-27.30287 28.954534,-33.13223 z m 1260.648734,3.04437 9.2628,9.68407 28.9868,33.16466 28.2743,35.7231 0.2914,0.42128 -5.862,31.35108 -5.6355,20.63075 -1.6518,-1.13414 -13.1818,-11.40038 -12.9872,-13.18173 -12.8903,-14.89823 -10.9793,-14.12094 -5.603,-7.83767 -9.0037,-13.47332 7.028,-29.01897 z m -1065.61157,7.96736 2.29949,1.26362 19.33531,13.66744 3.04437,2.68834 -6.08894,15.99915 -10.6553,30.6062 -1.16575,3.56271 -6.99552,-9.36006 -15.22225,-24.93833 -8.97139,-18.3959 z m 871.25447,0.25876 21.3434,13.21395 0.7771,0.48591 -5.7001,11.69177 -16.3558,26.78432 -9.4571,12.6634 -8.2587,-23.6427 -9.0361,-23.90186 16.1613,-11.4328 z m -648.3967,0.0324 2.97973,1.29503 9.13331,3.27112 12.14526,30.6062 1.78135,9.5866 -15.77281,2.97953 -27.30246,6.08894 1.58683,-5.99168 9.71628,-31.80457 z m 424.30812,1.71631 7.90251,22.15313 8.61498,28.07977 -18.91424,-4.21033 -23.70754,-4.46949 1.48977,-8.09684 11.04414,-27.75595 3.59493,-1.29524 z m -940.499051,14.60685 4.598975,44.95368 -6.056316,8.55034 v -52.72672 z m 1457.791131,2.75298 v 54.99358 l -5.603,-7.90251 1.7489,-9.39208 z m -250.1929,8.9712 11.0764,7.64355 32.4524,24.93813 31.9987,27.56184 18.4285,17.81312 -11.7244,26.84917 -19.0113,35.07549 -19.0763,29.01917 -28.9543,-24.19344 -30.9301,-22.54159 -12.1128,-7.67596 -3.433,-11.65935 -8.939,-29.18108 -2.9149,-8.87434 15.0926,-20.17725 9.1979,-12.69582 16.3558,-26.7519 z m -959.70466,0.87396 5.89441,12.08022 16.35558,26.78453 18.13712,24.29051 2.81762,3.17406 -8.51791,27.82079 -5.92683,20.04777 -18.81695,11.91872 -30.96244,22.54158 -24.29071,20.30693 -14.50959,-22.1205 -19.04372,-35.10812 -15.31931,-35.20517 12.85792,-12.43685 31.96628,-27.52921 32.45219,-24.93834 z m 869.53796,5.70009 5.4087,14.3799 10.5906,30.2824 -41.0671,16.32316 -14.8012,-6.15359 6.9311,-13.11708 9.6838,-15.15721 7.3842,-9.61902 15.6756,-16.77666 z m -779.43608,1.29503 10.10473,10.8174 13.95903,18.13714 12.30737,19.27046 4.01599,7.57871 -11.85387,4.92278 -43.62602,-17.35963 2.42917,-7.51406 10.68792,-30.606 z m 583.29777,34.0068 16.80908,3.14164 26.13671,5.82977 2.13758,8.25874 6.93089,31.18918 0.87436,4.6314 -5.44112,-3.07679 -5.86199,-2.97973 -6.83382,-2.88247 -8.29117,-2.36433 -10.42873,-0.90698 -4.27517,0.67983 0.68024,-4.27516 -0.90699,-10.42875 -2.36433,-8.29117 -2.85004,-6.83382 -3.01195,-5.86199 z m -387.22432,1.71651 -2.33191,4.11327 -2.97953,5.86219 -2.88246,6.83362 -2.33191,8.29116 -0.9386,10.42895 0.67984,4.27497 -4.27517,-0.67984 -10.42875,0.90719 -8.29116,2.36413 -6.83382,2.88267 -5.8622,2.97952 -4.24254,2.39675 2.23465,-11.78902 6.57445,-29.667 3.14183,-0.84235 31.15656,-6.93088 z m -417.992201,2.36433 8.388429,24.8737 -4.081044,3.91873 -30.314612,33.13244 -14.736132,18.33126 H 31.101475 l -6.477592,0.77771 -1.748932,-6.44517 2.36433,-1.6843 13.181526,-11.36775 12.987606,-13.18193 12.890139,-14.93046 12.857717,-16.5499 9.198153,-12.6636 z m 1223.144131,2.81783 6.5746,9.23037 12.8578,16.54991 12.8903,14.89844 13.0196,13.18152 13.1493,11.36796 9.4247,6.63929 -0.9714,3.53049 -0.7449,2.04032 -19.562,0.0324 -6.8985,0.87376 -19.3677,-24.06377 -28.2743,-30.89759 z m -747.85846,2.55866 16.61475,20.14483 10.39632,10.29926 7.57871,5.92683 6.15358,3.62755 5.31163,2.36413 4.79331,1.49078 4.40464,1.00324 4.21033,0.61519 4.016,0.42108 3.88671,0.22715 3.78925,0.16616 11.07637,0.29199 3.59513,0.16616 3.59492,0.22715 3.59492,0.2918 3.56291,0.42127 3.56251,0.58197 3.53028,0.7777 3.53008,0.97184 3.53029,1.29503 3.49786,1.68409 3.46544,2.20222 3.46545,2.91489 3.4008,3.91893 3.36817,5.50597 3.2387,8.12926 3.04457,13.01962 2.59088,23.90206 2.59107,-23.90206 3.04437,-13.01962 3.2387,-8.12926 3.36838,-5.50597 3.4006,-3.91893 3.46544,-2.91489 3.46564,-2.20222 3.53009,-1.68409 3.49786,-1.29503 3.53008,-0.97184 3.56271,-0.7777 3.53028,-0.58197 3.5625,-0.42127 3.59513,-0.2918 3.59513,-0.22715 3.62735,-0.16616 11.04394,-0.29199 3.82187,-0.16616 3.88652,-0.22715 4.016,-0.42108 4.1781,-0.61519 4.40445,-1.00324 4.7933,-1.49078 5.31164,-2.36413 6.15358,-3.62755 7.61112,-5.92683 10.36391,-10.29926 16.61495,-20.14483 -9.13331,24.45241 -3.72461,14.12094 -1.32827,9.55418 -0.0993,7.19025 0.64843,5.73251 1.06788,4.89037 1.35967,4.34 1.5538,3.95116 1.65167,3.65977 1.74893,3.49786 1.74893,3.36838 5.27921,9.71608 1.68409,3.2389 1.62006,3.20648 1.52239,3.23869 1.3929,3.30354 1.29503,3.36817 1.10112,3.46545 0.90698,3.53028 0.6152,3.69199 0.3234,3.88671 -0.19452,4.11306 -0.77771,4.43707 -1.68429,4.95541 -3.10922,5.63525 -5.4087,6.89866 -9.7485,9.13331 -19.40015,14.18558 21.99102,-9.71629 12.79328,-3.85409 8.64719,-1.26343 6.44518,0.16616 5.11731,0.97163 4.24274,1.5538 3.65977,1.91083 3.20627,2.20223 2.88247,2.39675 2.6235,2.55866 2.42897,2.68813 2.26706,2.78541 2.17001,2.85004 2.04052,2.94731 1.97548,3.01195 1.94325,3.07679 5.79735,9.4249 2.04052,3.20627 2.13759,3.23869 2.36433,3.30354 2.65572,3.30354 3.04436,3.33596 3.69219,3.36818 4.69624,3.43302 6.25065,3.49786 8.93898,3.62735 14.08851,3.82187 25.74806,4.33981 -25.74806,4.34001 -14.08851,3.82167 -8.93898,3.62755 -6.25065,3.49786 -4.69624,3.43302 -3.69219,3.36818 -3.04436,3.33596 -2.65572,3.30353 -2.36433,3.30354 -2.13759,3.2387 -2.04052,3.20627 -5.79735,9.4247 -1.94325,3.07699 -1.97548,3.01195 -2.04052,2.9471 -2.17001,2.85025 -2.26706,2.7854 -2.42897,2.68814 -2.6235,2.55845 -2.88247,2.39676 -3.20627,2.20242 -3.65977,1.91084 -4.24274,1.55359 -5.11731,0.97183 -6.44518,0.16616 -8.64719,-1.26362 -12.79328,-3.8541 -21.99102,-9.71628 19.40015,14.18578 9.7485,9.1333 5.4087,6.89847 3.10922,5.63544 1.68429,4.95521 0.77771,4.43727 0.19452,4.11306 -0.3234,3.88652 -0.6152,3.69198 -0.90698,3.53029 -1.10112,3.46558 -1.29503,3.36822 -1.3929,3.30354 -1.52239,3.23869 -1.62006,3.20638 -1.68409,3.23885 -5.27921,9.71611 -1.74893,3.368385 -1.74893,3.49788 -1.65167,3.659728 -1.5538,3.951256 -1.35967,4.339949 -1.06788,4.890463 -0.64843,5.732528 0.0993,7.190113 1.32827,9.554261 3.72461,14.120896 9.13331,24.45252 -16.61495,-20.144932 -10.36391,-10.299305 -7.61112,-5.926874 -6.15358,-3.627387 -5.31164,-2.364148 -4.7933,-1.490756 -4.40445,-1.003239 -4.1781,-0.615196 -4.016,-0.421195 -3.88652,-0.227173 -3.82187,-0.165754 -11.04394,-0.291853 -3.62735,-0.165755 -3.59513,-0.194123 -3.59513,-0.323342 -3.5625,-0.421195 -3.53028,-0.582045 -3.56271,-0.744557 -3.53008,-1.00322 -3.49786,-1.295092 -3.53009,-1.68411 -3.46564,-2.202304 -3.46544,-2.914845 -3.4006,-3.918916 -3.36838,-5.505842 -3.2387,-8.129336 -3.04437,-13.019655 -2.59107,-23.902 -2.59088,23.902 -3.04457,13.019655 -3.2387,8.129336 -3.36817,5.505842 -3.4008,3.918916 -3.46545,2.914845 -3.46544,2.202304 -3.49786,1.68411 -3.53029,1.295092 -3.53008,1.00322 -3.53028,0.744557 -3.56251,0.582045 -3.56291,0.421195 -3.59492,0.323342 -3.59492,0.194123 -3.59513,0.165755 -11.07637,0.291853 -3.78925,0.165754 -3.88671,0.227173 -4.016,0.421195 -4.21033,0.615196 -4.40464,1.003239 -4.79331,1.490756 -5.31163,2.364148 -6.15358,3.627387 -7.57871,5.926874 -10.39632,10.299305 -16.61475,20.144932 9.13331,-24.45252 3.72461,-14.120896 1.32806,-9.554261 0.0993,-7.190113 -0.64823,-5.732528 -1.0697,-4.890463 -1.35967,-4.339949 -1.5538,-3.951256 -1.65166,-3.659728 -1.71651,-3.49788 -1.78136,-3.368385 -5.27901,-9.71611 -1.68408,-3.23885 -1.58704,-3.20638 -1.52218,-3.23869 -1.42452,-3.30354 -1.26362,-3.36822 -1.13414,-3.46558 -0.90698,-3.53029 -0.6152,-3.69198 -0.292,-3.88652 0.16616,-4.11306 0.77771,-4.43727 1.7163,-4.95521 3.077,-5.63544 5.4085,-6.89847 9.7487,-9.1333 19.43259,-14.18578 -22.02366,9.71628 -12.79287,3.8541 -8.6476,1.26362 -6.44496,-0.16616 -5.11732,-0.97183 -4.24274,-1.55359 -3.65977,-1.91084 -3.20648,-2.20242 -2.88226,-2.39676 -2.62351,-2.55845 -2.42897,-2.68814 -2.26727,-2.7854 -2.13758,-2.85025 -2.07274,-2.9471 -1.97568,-3.01195 -1.94305,-3.07699 -5.79735,-9.4247 -2.04052,-3.20627 -2.13759,-3.2387 -2.36413,-3.30354 -2.62349,-3.30353 -3.07679,-3.33596 -3.69219,-3.36818 -4.69604,-3.43302 -6.21842,-3.49786 -8.97141,-3.62755 -14.0885,-3.82167 -25.74806,-4.34001 25.74806,-4.33981 14.0885,-3.82187 8.97141,-3.62735 6.21842,-3.49786 4.69604,-3.43302 3.69219,-3.36818 3.07679,-3.33596 2.62349,-3.30354 2.36413,-3.30354 2.13759,-3.23869 2.04052,-3.20627 5.79735,-9.4249 1.94305,-3.07679 1.97568,-3.01195 2.07274,-2.94731 2.13758,-2.85004 2.26727,-2.78541 2.42897,-2.68813 2.62351,-2.55866 2.88226,-2.39675 3.20648,-2.20223 3.65977,-1.91083 4.24274,-1.5538 5.11732,-0.97163 6.44496,-0.16616 8.6476,1.26343 12.79287,3.85409 22.02366,9.71629 -19.43259,-14.18558 -9.7487,-9.13331 -5.4085,-6.89866 -3.077,-5.63525 -1.7163,-4.95541 -0.77771,-4.43707 -0.16616,-4.11306 0.292,-3.88671 0.6152,-3.69199 0.90698,-3.53028 1.13414,-3.46545 1.26362,-3.36817 1.42452,-3.30354 1.52218,-3.23869 1.58704,-3.20648 1.68408,-3.2389 5.27901,-9.71608 1.78136,-3.36838 1.71651,-3.49786 1.65166,-3.65977 1.5538,-3.95116 1.35967,-4.34 1.0697,-4.89037 0.64823,-5.73251 -0.0993,-7.19025 -1.32806,-9.55418 -3.72461,-14.12094 z m -270.176,5.21417 25.87734,20.50126 -7.70798,3.69239 -16.51769,-15.31931 -3.33576,-3.72461 z m 813.99346,0 1.0364,3.27131 -9.3598,10.42855 -9.6517,8.93898 -6.6393,-3.17385 z m -143.2495,1.32826 8.87415,2.29949 22.31483,6.83382 20.59852,7.38418 -3.4332,7.83787 -2.5585,7.02815 -28.40374,11.30331 -8.22653,1.52218 -3.69218,-19.62669 z m -527.17047,2.07294 -3.27112,14.67129 -5.21436,27.6589 -9.26279,-1.71631 -28.82486,-11.46522 -5.37628,-12.30736 19.20562,-6.86604 31.77216,-9.74871 z m -454.201428,6.6393 4.340009,23.12456 5.440918,19.91828 -10.363904,5.63565 -4.210526,1.58683 -7.222271,1.58702 v -33.65057 l 7.546079,-11.91851 z m 1435.443698,4.53433 6.8014,9.5866 4.9876,7.90252 v 28.04754 l -4.1131,-0.90699 -13.959,-5.31163 -3.1092,-1.68409 7.3844,-26.8816 z m -301.0088,15.96693 2.429,7.96736 -6.4774,-3.56271 0.7771,-0.74448 z m -834.00915,1.65167 4.30759,3.95115 -6.6393,3.69219 z m 777.81685,4.46949 7.8054,3.75683 -12.9225,10.04009 -23.1248,15.09257 -8.5826,4.69624 1.749,-5.86219 z m -719.94041,1.06788 34.00681,26.88159 1.29503,4.30739 -15.02772,-8.1939 -23.12456,-15.09257 -5.2466,-4.08084 7.2547,-3.46544 z m -234.48508,1.94326 10.59065,24.22587 19.0115,35.07549 7.06037,10.78498 -5.63525,-5.27922 -14.96308,-11.04394 -16.12883,-9.16573 -17.327415,-7.09279 -13.440694,-3.5627 1.424312,-1.78136 z m 1186.25489,1.00324 24.0961,26.33103 7.2549,9.00363 -4.4046,1.16575 -14.8982,4.82572 -17.3275,7.12521 -16.1288,9.13331 -14.9307,11.07636 -3.4006,3.14163 14.0237,-21.31078 19.0115,-35.10811 z m -199.0856,12.24232 23.9342,13.21415 12.6636,8.03219 2.429,8.32339 15.6107,54.11941 7.5787,25.65099 6.2508,20.20968 -13.2789,12.2099 -26.6873,20.98717 -1.2306,0.80932 -11.368,-7.64354 -28.1448,-16.09641 -28.5981,-13.82955 -28.9219,-11.78903 -18.6228,-6.31549 1.1335,-8.12926 4.2427,-25.29476 4.9879,-24.64675 7.9995,-3.62734 23.9343,-13.05225 23.1248,-15.09236 22.1529,-17.26257 z m -786.23752,0.87395 15.80502,12.30737 23.12456,15.12478 23.93449,13.05225 14.83339,6.70413 2.36434,9.61902 4.955,24.61453 4.24295,25.26214 0.3232,2.29969 -26.97866,9.16553 -28.92191,11.78903 -28.63052,13.86197 -28.11219,16.06399 -4.1781,2.81782 -8.42065,-5.63565 -26.68725,-20.98697 -6.93088,-6.34791 1.48916,-4.43707 7.6109,-24.61453 7.5787,-25.65079 15.57848,-54.05457 5.89441,-3.75703 z m -249.707127,42.10364 12.857717,1.6843 9.748708,2.59107 11.238269,4.59897 16.129033,9.16553 14.93065,11.04415 13.79693,12.85772 5.50596,6.21842 -2.39675,2.29949 -28.01512,31.05969 -25.100234,32.35493 -2.0081,-3.04436 -22.541583,-40.51662 -19.983129,-43.78793 -1.263421,-3.49766 9.813145,-13.99145 z m 180.203577,0.0993 -7.19005,24.97075 -7.57851,25.65099 -5.47354,17.71587 -22.67127,-24.45242 -5.02004,-6.44517 23.90206,-19.95071 z m 925.08247,0.25876 17.0358,12.3718 28.4687,23.83722 -9.5868,12.24252 -16.4851,17.7807 -2.4616,-8.03219 -7.5785,-25.6508 z m 231.5702,0.64822 6.2833,0.74468 18.1045,4.43707 10.9469,3.98378 v 83.91569 l -6.6717,-12.9872 -25.6832,-42.42765 -10.9793,-15.64312 z m -53.4391,0.292 4.7933,5.92683 12.4368,17.74828 -17.1331,37.50467 -22.5091,40.51661 -7.3844,11.17383 -2.4292,-3.33596 -26.4929,-34.13649 -25.9422,-28.79222 1.004,-1.13435 13.8294,-12.82529 14.9306,-11.07657 16.1291,-9.13331 17.3272,-7.12521 18.558,-4.92278 z m -1335.0105293,0.90699 6.6719183,18.33125 -7.2222715,10.29927 -25.6834185,42.42745 -9.230371,17.9426 v -78.63667 l 14.315261,-5.21438 z m 17.8779683,45.7634 13.797127,30.15271 22.509161,40.54903 11.367955,17.16531 -11.367955,17.1655 -22.509161,40.54904 -13.797127,30.15271 -20.0477702,-33.13244 -23.4485718,-45.63392 -3.886514,-9.10089 3.886514,-9.10089 23.4485718,-45.63372 z m 1351.009661,1.10111 24.1288,39.869 23.4808,45.63372 0.5181,1.26362 -0.5181,1.26363 -23.4808,45.63372 -24.1288,39.86899 -9.6837,-21.24614 -22.5093,-40.51661 -16.55,-25.00298 16.55,-25.00318 22.5093,-40.51661 z m -134.4402,18.234 26.9464,29.89354 26.5252,34.13648 2.9473,4.50192 -2.9473,4.50171 -26.5252,34.13649 -26.9464,29.89353 -9.1333,-14.76855 -9.9753,-18.8496 -9.2303,-20.11261 -5.9917,-14.80097 5.9917,-14.80118 9.2303,-20.11261 9.9753,-18.8494 z m -1083.00366,0.61519 3.30354,4.50192 10.8174,17.48911 9.94283,18.81718 9.263,20.14503 2.81762,6.9633 -2.81762,6.96331 -9.263,20.14503 -9.94283,18.81698 -10.8174,17.48931 -3.30354,4.50171 -3.14163,-3.01194 -28.01513,-31.09192 -20.95474,-26.97886 -4.53414,-6.83362 4.53414,-6.83382 20.95474,-26.97865 28.01513,-31.09192 z m 1047.31276,11.01173 -7.4816,14.15336 -3.7893,8.25874 -2.4938,-7.51386 z m -1010.45591,1.00486 10.10494,10.88224 4.50191,4.14568 -1.32827,3.98358 -1.26362,3.49786 -0.71307,-1.52238 -9.97525,-18.8494 z m 816.16361,12.40442 27.3349,11.14121 28.5981,13.86197 1.7165,0.97163 -30.606,-4.46929 -11.5623,-4.11326 -4.9554,-3.17385 -3.1092,-3.077 -2.7206,-3.53008 -2.6557,-4.1781 z m -622.42189,3.10922 -2.88246,4.50191 -2.72056,3.53008 -3.10921,3.07699 -4.95541,3.17386 -11.56208,4.11326 -26.26639,3.85409 19.30309,-9.36006 28.95433,-11.78902 z m 782.57769,17.39205 0.583,1.78115 7.1901,19.85365 -28.7276,-4.24275 13.9266,-10.94708 z m -941.43825,0.80911 0.87396,0.80932 20.17723,15.86987 -28.85704,4.21032 2.13758,-5.24679 z m -7.80525,23.48079 28.85705,4.21053 -20.17723,15.86987 -0.87376,0.80911 -5.66766,-15.64312 z m 957.0166,0.0669 -7.1901,19.85365 -0.583,1.78135 -7.0281,-6.44517 -13.9266,-10.94708 z m -898.33065,13.89419 4.17811,2.81783 28.11239,16.06419 28.63032,13.86177 28.92211,11.78903 26.97865,9.16573 -0.3234,2.29948 -4.24274,25.26215 -4.95521,24.61452 -2.36433,9.61913 -14.8334,6.70407 -23.93428,13.05217 -23.12456,15.124948 -15.80523,12.307263 -31.12433,-17.197746 -5.89442,-3.75689 -15.57827,-54.022495 -7.57891,-25.68302 -7.6109,-24.61452 -1.48916,-4.43707 6.93088,-6.34791 26.68725,-20.98698 z m 840.74575,0 1.2308,0.80932 26.6873,20.98718 13.2787,12.2099 -6.2508,20.20967 -7.5787,25.651 -15.6107,54.11941 -2.429,8.323535 -12.6636,8.032156 -23.9342,13.214009 -0.8098,-0.777729 -22.1529,-17.262566 -23.1248,-15.092455 -23.9343,-13.05216 -7.9995,-3.62739 -4.9879,-24.64684 -4.2427,-25.29457 -1.1335,-8.12946 18.6228,-6.31549 28.9219,-11.78882 28.5981,-13.82955 28.1448,-16.09661 z m -52.6945,2.26727 -1.7165,0.97163 -28.5981,13.86197 -27.3349,11.14141 2.0403,-3.43322 2.6557,-4.17811 2.7206,-3.53008 3.1092,-3.07699 4.9554,-3.17385 11.5623,-4.11327 z m -731.5675,0.6152 26.26639,3.85409 11.56208,4.11326 4.95541,3.17385 3.10921,3.07679 2.72056,3.53029 2.88246,4.50191 -3.23869,-1.10111 -28.95433,-11.78903 z m 974.6678,3.53028 7.3844,11.17363 22.5091,40.51661 17.1331,37.50467 -12.4368,17.74836 -4.7933,5.92688 -2.8825,-0.38803 -18.558,-4.92282 -17.3274,-7.12531 -16.1289,-9.13311 -14.9306,-11.07657 -13.8296,-12.8255 -1.004,-1.13434 25.9424,-28.79222 26.4929,-34.13649 z m -1224.925484,0.29179 25.100234,32.35494 28.01512,31.05969 2.39675,2.29949 -5.50596,6.21842 -13.79693,12.85772 -14.93065,11.04415 -16.129033,9.16563 -11.238269,4.59895 -9.748708,2.591 -12.857717,1.68427 -7.287317,-9.03623 -9.813348,-13.99145 1.263624,-3.49766 19.983129,-43.78793 22.541583,-40.51662 z m 120.027844,11.4326 1.26363,3.49806 1.32826,3.98358 -4.50191,4.14548 -10.10474,10.88224 1.32806,-2.13758 9.97546,-18.84939 z m 987.16924,1.10111 3.7893,8.25874 7.4816,14.15336 -13.7647,-14.89824 z m 236.2987,7.2549 v 83.91569 l -10.9469,3.98375 -18.1045,4.43711 -6.2833,0.74454 -7.9995,-22.02353 10.9793,-15.64292 25.6832,-42.42765 z m -1459.248472,2.88246 9.230371,17.94261 25.6834185,42.42745 7.2222715,10.29926 -6.6719183,18.33124 -21.1488817,-5.14949 -14.315261,-5.2145 z m 247.019002,22.73591 5.47354,17.74828 7.57851,25.651 7.19005,24.97067 -24.03135,-17.48923 -23.90206,-19.95071 5.02004,-6.44517 z m 964.75717,1.87841 16.4851,17.78091 9.5868,12.24232 -28.4687,23.83722 -17.0358,12.3719 9.3925,-32.51713 7.5785,-25.68302 z m -1007.73537,49.19663 24.29071,20.30692 30.96244,22.541585 18.81695,11.918576 5.92683,20.047932 8.51791,27.853078 -2.81762,3.141694 L 243.43323,5.00906 227.07765,31.79357 221.18324,43.873985 204.2769,32.246923 171.82471,7.308547 l -31.96628,-27.529229 -12.85792,-12.436786 15.31931,-35.205198 19.04372,-35.108044 z m 1078.30757,0.80912 3.4006,3.14163 14.9307,11.07651 16.1288,9.13325 17.3275,7.12527 14.8982,4.825645 4.4046,1.16573 -7.2549,9.003747 -24.0961,26.330976 -6.7042,-15.383973 -19.0115,-35.108015 z m -29.1488,0.13171 19.0763,29.01926 19.0113,35.075536 11.7244,26.84917 -18.4285,17.813125 -31.9987,27.561712 -32.4524,24.938395 -11.0764,7.643486 -2.4938,-5.149652 -16.3558,-26.752008 -9.1979,-12.695975 -15.0926,-20.177253 2.9149,-8.874222 8.939,-29.18116 3.433,-11.659403 12.1128,-7.675806 30.9301,-22.541745 z m -1080.70418,2.59108 -7.06037,10.78504 -19.0115,35.075515 -10.59064,24.225854 -29.407626,-32.160664 -1.424515,-1.78129 13.440694,-3.56271 17.327417,-7.092795 16.12882,-9.16573 14.96308,-11.04402 z m 1207.92208,39.188815 6.8987,0.87388 19.5618,0.0332 0.7449,2.040303 0.9716,3.530386 -9.4247,6.639415 -13.1493,11.367874 -13.0198,13.181668 -12.8901,14.898259 -12.858,16.550028 -6.5746,9.230412 -7.9025,-23.38379 28.2743,-30.89761 z m -1327.625917,0.13273 6.477592,0.77773 H 48.62301 l 14.736132,18.331298 30.314612,33.132254 4.081044,3.918896 -8.388429,24.873573 -3.011947,-4.210263 -9.198153,-12.663635 -12.857717,-16.549866 -12.890139,-14.930599 -12.987606,-13.18183 -13.181526,-11.367874 -2.36433,-1.684271 z m 1000.642317,0.19412 8.5826,4.69614 23.1248,15.092605 12.9225,10.040116 -7.8054,3.75691 -35.0755,-27.723575 z m -647.81368,1.328246 -1.29503,4.307446 -34.0068,26.881673 -0.84235,-0.356514 -7.25489,-3.465381 5.24679,-4.080759 23.12456,-15.092606 z m -405.620192,7.028108 7.222271,1.586946 4.210526,1.586926 10.363904,5.635507 -5.440918,19.918246 -4.340009,23.124621 -4.469695,-6.283226 -7.546079,-11.918571 z m 1459.248472,1.781292 v 28.079907 l -4.9876,7.870172 -6.8014,9.586601 -2.0079,-10.752515 -7.3844,-26.881673 3.1092,-1.684109 13.959,-5.311496 z m -1001.51674,14.380024 5.21437,27.658895 3.27112,14.67141 -0.97184,-0.227172 -31.77215,-9.748607 -19.20562,-6.866102 5.37626,-12.307263 28.82486,-11.465218 z m 544.82147,0.19392 8.22654,1.522266 28.40373,11.303213 2.5585,7.028107 3.4332,7.837812 -20.59851,7.384297 -22.31484,6.833761 -8.87414,2.299487 5.47334,-24.582043 z m -692.4434,5.700188 6.6393,3.692068 -4.30759,3.951256 z m 838.76987,1.328264 -2.429,7.967315 -3.2711,-3.659727 -0.7773,-0.744537 z m -173.24049,0.132725 -0.87436,4.631295 -6.93089,31.189119 -2.13758,8.258844 -26.13671,5.829711 -16.80908,3.141694 3.30354,-5.829873 3.01215,-5.862032 2.85005,-6.833761 2.36433,-8.291184 0.90678,-10.428828 -0.68024,-4.275086 4.27517,0.679877 10.42874,-0.907069 8.29117,-2.36431 6.83382,-2.882506 5.86219,-2.979688 z m 440.08069,0.258682 5.6353,20.630808 5.8622,31.351125 -0.2916,0.421194 -28.2741,35.723231 -28.9868,33.164736 -9.2628,9.683947 -3.9513,-25.909963 -7.0282,-29.019155 9.0039,-13.473177 5.603,-7.837811 10.9793,-14.120896 12.8901,-14.898259 12.9874,-13.181648 13.1818,-11.400396 z m -930.91224,0.421195 4.24254,2.39665 5.86219,2.979689 6.83382,2.882525 8.29117,2.36431 10.42895,0.907049 4.27496,-0.679876 -0.67982,4.275105 0.93861,10.428808 2.3319,8.291184 2.88247,6.833762 2.97952,5.862051 2.33211,4.113242 -7.61113,-1.424414 -31.15677,-6.930944 -3.14163,-0.842389 -6.57465,-29.666854 z m -441.084544,0.388023 7.967152,6.866102 12.987403,13.181668 12.890139,14.9306 12.85792,16.517687 12.954982,18.104634 6.218424,9.295093 L 77.188691,47.314381 71.585666,84.106505 54.744169,66.520249 25.789635,33.387832 4.1874615,6.085127 12.2843,-37.119564 Z m 297.089984,13.116825 7.70798,3.69223 -25.87734,20.501284 -1.68409,-5.149652 3.33576,-3.72457 z m 777.849,1.555437 9.6517,8.938883 9.3598,10.428666 -1.0364,3.271197 -24.6144,-19.464894 z m -750.67603,10.590651 11.85387,4.922825 -4.01599,7.578622 -12.30737,19.270548 -13.95903,18.136974 -10.10473,10.8175 -1.97568,-5.246815 -10.68792,-30.606101 -2.42917,-7.513962 z m 725.83503,1.036411 41.0671,16.32318 -10.5906,30.282231 -5.4087,14.380064 -0.1945,-0.165754 -15.6756,-16.776714 -7.3844,-9.619104 -9.6836,-15.157286 -6.9311,-13.116987 z m -690.43551,12.695793 15.18962,5.441161 14.89823,4.825641 31.77216,9.716287 7.38438,1.943278 5.47355,20.986977 9.71607,31.772156 6.73676,18.817013 -15.70796,8.291185 -19.30289,12.307263 -18.10471,13.95905 -16.77666,15.64314 -1.78134,2.00796 -27.33508,-11.30322 -24.74381,-11.23836 -8.35601,-18.396145 -13.18173,-31.836837 15.18963,-16.29084 13.95903,-18.104634 9.19815,-12.663452 12.30717,-19.302888 z m 909.30991,2.429153 9.0036,26.752007 0.8422,3.400701 -1.2957,1.910795 -13.4085,20.954637 -13.7969,22.250236 -21.6672,35.431882 -20.2745,-1.68411 -20.5013,-3.886573 -10.7527,-28.533279 -0.5506,-1.165752 14.7363,-10.169639 32.4522,-24.938213 31.9989,-27.529392 z m -257.0916,0.132725 6.2831,11.853748 12.3072,19.30305 13.9266,18.104452 15.6755,16.809055 5.3441,4.631457 -9.7811,23.707659 -13.2464,29.051472 -29.0516,13.24649 -21.1489,8.74456 -7.96728,-9.13325 -16.7769,-15.67548 -18.10452,-13.959032 -19.3353,-12.307101 -8.84172,-4.663959 9.06846,-25.391586 9.74871,-31.804497 2.85004,-10.979343 15.70797,-4.1132621 31.77194,-9.7162669 z m -909.53657,1.003239 7.06037,6.801259 31.96668,27.561732 32.48441,24.938396 21.05182,14.477065 -9.68366,25.683276 -1.68429,6.153723 -11.88609,2.267123 -28.88969,2.39665 -1.42452,-0.0332 -17.29478,-28.274109 -13.82935,-22.250216 -13.37604,-20.954657 -4.08085,-6.08888 3.59493,-14.898259 z M 1431.0808,-1.263588 V 53.73017 l -3.8541,-37.69901 -1.7489,-9.392256 z m -1459.248472,4.242583 6.056316,8.550373 -4.598975,44.953804 -1.457544,-0.777708 z m 301.559282,2.33199 1.16575,3.5625437 10.65549,30.6062633 6.08874,15.99933 -3.04437,2.688159 -19.33531,13.667523 -2.29949,1.263584 -24.42018,-15.092606 8.97139,-18.396001 15.22205,-24.938375 z m 855.09339,2.688159 9.4571,12.663473 16.3556,26.78451 5.7003,11.691722 -0.7773,0.485855 -21.3432,13.214009 -10.526,-5.862032 -16.1613,-11.432716 9.0361,-23.902005 z m -656.04001,10.979364 27.30246,6.088879 15.77281,2.979527 -1.78134,9.586763 -12.14527,30.606081 -9.13331,3.271197 -2.97973,1.295093 -5.73251,-16.031671 -9.71628,-31.804497 z m 457.86123,1.878455 -8.61498,28.079907 -7.90251,22.153053 -9.97545,-4.404771 -3.59493,-1.295073 -11.04414,-27.756078 -1.48977,-8.096838 23.70754,-4.469451 z m 473.95778,13.991372 3.5303,34.557316 -1.587,0.842389 -35.3022,14.9306 -11.9834,3.821571 26.4281,-30.282232 z M -0.1203287,39.965485 10.891598,53.892196 37.449381,84.271591 26.27555,80.708864 -3.035012,68.336921 Z M 1302.3731,55.414279 l 1.8138,7.578806 5.6354,37.018835 -26.2986,3.10919 -10.6555,0.22717 17.1005,-27.917923 z m -1201.73604,3.918916 1.0695,1.651607 13.79713,22.250216 12.17747,19.885902 -32.387349,-3.821729 -0.712865,-0.165754 z m 671.4564,0.873899 12.53411,1.748931 25.29456,4.242603 20.04777,4.048582 5.99188,13.27883 13.08446,23.96667 15.09237,23.09227 14.89824,19.14086 -14.93046,27.0112 -7.64355,12.04807 -47.93341,13.79705 -25.6508,7.57881 -24.64674,7.6433 -7.67597,2.49383 -15.7728,-17.16524 -16.19368,-20.59847 -3.82167,-5.66785 10.23442,-15.25445 16.09661,-28.11226 13.86177,-28.59812 11.78924,-28.954475 z m -140.98242,1.101051 7.61093,22.476922 11.78923,28.921973 13.86176,28.59812 16.09662,28.14475 4.9552,7.41663 -2.97972,4.40477 -20.98698,26.71967 -8.90656,9.68379 -24.2581,-7.5138 -25.65099,-7.57881 -54.11942,-15.57832 -6.89846,-2.04046 -0.25856,-0.38802 -17.55396,-31.837 -1.97568,-4.08074 10.29927,-13.21401 9.19795,-12.66361 15.09256,-23.124619 13.05204,-23.934325 1.42452,-3.141532 5.73252,-1.392925 24.5819,-4.987808 25.29477,-4.242603 z m 29.01918,6.736598 1.26362,0.777708 4.17791,2.655677 3.53028,2.68816 3.07678,3.141694 3.17405,4.955144 4.11327,11.562401 4.43686,30.249883 -9.29501,-19.17336 -11.78902,-28.95449 z m 82.52319,0.09949 -11.78903,28.921972 -11.30331,23.318965 3.88651,-26.55766 4.11327,-11.562401 3.17385,-4.955145 3.07699,-3.141694 3.53028,-2.688159 4.17791,-2.655677 z m 118.60293,9.78111 5.60303,1.651606 28.72758,36.338611 -4.59897,9.55426 -6.186,-7.96734 -11.69197,-17.845441 z m 240.21756,1.781272 10.9794,7.772989 0.1945,0.09949 -18.9467,10.558331 1.5546,-3.465543 z m -800.52047,0.485875 6.44518,15.513637 -4.7935,-2.39665 -11.30311,-6.283226 z m 237.04356,1.263583 -5.66767,10.363965 -15.09256,23.124622 -7.15763,9.19807 -1.62006,-3.36838 -1.71671,-4.11324 26.78453,-33.8773 z m -305.86687,0.03323 8.42065,5.181993 -12.33958,5.246835 z m 938.55578,0.777708 2.5585,6.833762 -1.4574,-0.452684 -6.8014,-2.882525 z m -1198.853572,1.878618 0.291792,0.165754 -0.291792,16.809057 z m 24.355357,10.655352 15.189626,6.412729 14.898239,4.8258 35.140335,11.20603 7.060569,1.55377 -1.553795,24.58202 v 15.67548 l 1.230392,51.78759 1.457544,12.89014 -43.204751,-16.7442 -26.4929408,-13.08449 -0.2917926,-1.97564 -4.0810426,-61.11516 z m 1412.966915,1.004881 0.5506,30.508918 -3.8541,57.77925 -1.6519,10.75268 -34.363,16.93856 -35.0433,13.6027 2.4938,-22.34724 1.2632,-51.81991 -1.9756,-31.09194 13.1493,-2.88251 35.1403,-11.20603 z m -270.0141,5.829688 17.7483,7.51399 14.8982,4.82564 11.2061,3.4007 6.9957,25.55377 6.3155,36.17677 -10.5907,16.09648 -19.3677,28.14477 -0.3886,0.58369 -0.5832,0.38804 -28.1122,19.36771 -9.7487,6.38023 -6.5098,-0.51737 -36.7922,-6.44525 -20.1124,-5.4735 -4.5019,-14.96294 -9.8134,-23.15694 -3.9189,-7.02811 18.3961,-33.03523 12.469,-24.84121 31.8046,-15.96701 z m -872.67978,0.35654 21.27877,11.8214 32.54926,16.32318 3.14163,1.42444 1.42432,3.17403 16.32315,32.54935 14.08872,25.32694 -9.4249,22.25021 -7.5785,25.13258 -11.30331,3.10919 -36.79221,6.44523 -13.24637,1.06957 -17.91018,-11.78907 -27.78856,-19.10852 -11.46502,-16.67955 -11.78903,-17.91029 1.06788,-13.21415 6.44517,-36.82449 4.14569,-15.15726 19.75618,-5.95938 23.15716,-9.81329 z m 660.93061,3.59488 3.30354,1.74895 19.30289,12.30726 18.10471,13.95903 14.9953,13.99139 -17.23015,6.50989 -26.68726,9.3276 -17.52154,-44.04692 z m -451.99923,1.39293 5.50616,13.27883 -16.2263,40.87287 -3.65977,-1.16573 -30.6062,-10.68784 -9.87819,-3.72456 7.64355,-7.12527 18.10471,-13.95889 19.30289,-12.30726 z m 735.7132,17.2624 12.8255,2.42915 5.4411,0.4527 -8.7771,14.12087 -4.2752,6.73677 -2.267,-12.85799 z m -1019.29745,1.55378 -0.42128,1.49075 -4.40465,25.16507 -2.10516,-3.36836 -13.11689,-21.14901 15.4488,-1.26356 z m -76.4993,1.23041 12.30737,1.45758 15.74038,0.29186 17.42427,28.14474 12.30737,19.36771 -29.63458,-24.35534 z m 1169.41355,1.29507 -2.2673,2.16999 -29.6343,26.26612 -27.4,22.54174 2.3968,-3.65988 16.8739,-26.55767 12.4691,-20.11258 26.3634,-0.48587 z m 28.2741,7.67583 1.1984,18.78466 -0.9715,40.41953 -4.3075,38.41157 -18.7848,5.441 -45.2128,8.77706 -21.6673,2.20232 0.3887,-37.31034 14.542,-11.20603 29.5051,-24.29054 29.6668,-26.26629 z m -400.08204,1.81361 21.50532,27.23786 -4.04842,1.32825 -14.60685,-13.11699 -6.76898,-7.28711 z m -423.66009,0.97173 3.10921,6.50989 -11.88609,12.82531 -6.67192,5.99171 -3.62734,-1.16574 z m -397.491152,0.51737 7.125413,6.83376 29.666789,26.26612 29.50509,24.29071 23.73996,18.26647 v 3.91891 l 0.32341,30.57374 -15.9025,-1.6201 -45.18043,-8.77706 -25.58615,-7.38429 -3.206071,-28.63045 -1.230392,-51.8199 z m -119.93059,5.21433 2.234644,33.26189 -2.234644,-3.04435 z m 387.515692,3.14152 18.78475,7.74065 -8.45327,11.95091 -4.40465,-7.90249 z m 681.14028,3.33604 -0.2916,0.6152 -9.295,16.67955 -7.2873,-10.29914 z m -638.38882,13.69984 13.40848,5.08483 30.63842,10.6555 6.186,2.0403 -18.00745,13.44083 -26.78433,16.35568 -8.93898,4.33995 -14.93066,-24.12867 7.93493,-14.21806 5.76513,-8.19402 z m 598.39032,2.46133 13.3761,18.91434 3.3359,6.02406 -13.8944,22.44456 -14.57418,-7.12527 -26.78453,-16.3557 -9.06847,-6.73658 27.85322,-9.71629 z m -496.17559,1.78144 3.2389,5.86203 -6.73676,-2.07278 z m 392.34143,0.25868 4.24275,4.56664 1.52239,1.35975 -10.88224,3.36838 z m -415.85464,22.50924 10.16958,3.30356 29.18108,8.9714 5.50576,1.61842 11.5947,18.26664 22.50936,30.96227 22.08829,26.39582 -31.73973,20.85747 -35.07549,19.01152 -24.09639,10.49349 -21.34341,-22.05587 -27.52921,-31.96634 -20.30694,-26.46066 -9.29522,-13.47316 9.97546,-4.89048 26.78433,-16.35552 24.29051,-18.10463 z m 442.6716,2.26715 23.57805,17.58644 26.78433,16.35568 15.31931,7.48148 -10.00767,14.54191 -24.97076,32.45219 -27.52941,31.99883 -14.73634,15.25448 -30.67084,-13.37602 -35.10791,-19.04368 -26.49294,-17.39209 16.84129,-20.17743 31.73994,-43.59357 4.1779,-6.60691 18.62265,-5.4735 29.18108,-8.97139 z m -227.87824,10.04014 4.40485,30.18504 -0.97183,-0.42119 -20.88971,-7.57864 z m 11.2709,3.07685 13.01982,16.55003 4.7933,5.18199 -4.9552,1.61845 -15.25447,5.57067 -1.71672,-0.71303 z m 724.21554,4.24276 v 103.93134 l -2.2671,-1.62009 -10.3315,-4.40477 -10.947,-2.07279 12.696,-52.07894 5.6352,-36.66262 0.8746,-1.16575 z m -1459.248472,4.1456 7.675765,10.16963 5.732508,37.24552 11.108988,45.634 -3.692189,0.71304 -14.898239,4.82581 -5.926833,2.52615 z m 589.516182,0.55055 41.29392,11.91856 25.65099,7.5463 5.66767,1.74897 -22.47674,20.79263 -10.16978,7.96733 -1.39291,-1.45761 -25.26234,-30.21738 z m 468.80829,1.87844 4.2428,10.00779 -8.4533,-3.20635 z m -658.79301,1.4576 4.92279,7.935 -8.71224,3.30353 2.36433,-7.93499 z m 464.04723,0.80922 -13.79713,18.97902 -21.66701,25.94244 -15.15741,-11.88623 -14.8334,-13.69986 12.92256,-4.01608 25.6508,-7.5463 z m -824.033709,7.22245 48.030676,18.65517 13.181729,4.27509 1.620056,14.50958 11.303112,55.83599 1.295235,4.37227 L 73.108256,306.7424 57.464932,286.46796 22.745671,242.09719 Z m 1187.906689,3.62739 -0.1621,13.57034 -0.7773,7.70816 -23.3837,0.22718 5.9268,-8.16152 z m 185.6123,1.1989 -11.4004,14.70391 -34.6868,44.40329 -15.6431,20.2421 -4.6963,6.28323 1.4574,-5.02015 11.3033,-55.83599 0.5506,-4.6638 5.0524,-1.45758 z m -1178.77319,0.61522 9.29521,6.73658 9.32744,12.85779 -15.09257,-0.16575 -3.33576,-0.32336 z m 805.57279,12.59877 23.2866,8.7769 8.3558,2.72066 4.8582,25.74794 1.3927,16.71189 -39.9663,24.45252 -22.25017,13.79721 -17.65101,11.30319 -9.39248,-2.26713 -22.76833,-7.67582 3.98378,-4.11327 27.52921,-31.99882 24.93833,-32.45219 9.23037,-12.66346 z m -351.20945,0.29185 1.16575,0.38803 9.35986,3.40072 -15.25447,6.99576 -13.08467,6.93095 10.07272,-9.29526 z m -270.24084,2.42899 11.98335,17.42444 24.93834,32.4522 27.56183,31.99882 11.04415,11.43272 -16.8417,5.66785 -13.01962,3.14153 -6.08874,-4.08074 -20.95476,-13.37601 -22.21777,-13.79703 -31.44815,-19.23821 2.04032,-24.93823 2.94731,-15.4813 1.10111,-0.29185 z m 352.37538,0.13273 0.90719,1.00322 10.07231,9.3276 -13.11688,-6.93094 -3.36818,-1.55376 z m -644.153732,9.58676 22.574002,6.50991 45.18043,8.77688 17.52154,1.78127 2.9473,28.69532 8.77708,45.21298 2.91489,10.07246 -49.16421,-9.94296 -31.67489,-9.3924 -7.93494,-26.75201 z m 1206.464542,2.20232 -9.0685,44.92129 -11.0117,37.21334 -22.9302,6.76891 -55.8038,11.30323 -1.7489,0.19392 5.6355,-19.43255 8.777,-45.21283 2.0728,-20.20977 24.0638,-2.46147 45.213,-8.7769 z m 87.5756,2.04045 -11.6271,47.77148 -12.1777,3.78923 -14.8658,4.82581 -7.9349,3.40072 7.8054,-10.10499 34.6869,-44.37076 z m -688.39513,0.25868 1.35988,0.55054 20.14503,9.26276 18.81697,9.94295 17.48932,10.81734 6.93089,5.05248 -0.6152,0.64837 -31.0597,28.01525 -34.1685,26.52532 -1.23039,0.77773 -8.51792,-5.63537 -34.16891,-26.49298 -25.81269,-23.28662 1.06949,-0.77772 17.4569,-10.78501 18.84939,-9.97546 20.11281,-9.26276 z m 366.26953,2.26715 13.8296,3.7894 11.789,2.07279 -12.7282,8.0645 -10.1374,6.28306 -0.8419,-10.00761 z m -737.1703,2.07278 -0.0324,0.29186 -1.52218,18.29881 -18.6877,-11.56222 -3.49786,-2.23481 17.48911,-3.07669 z m -320.571173,2.00798 29.926164,38.24971 7.805451,10.10482 -7.934934,-3.40072 -13.667645,-4.24277 -6.477389,-1.10107 z m 196.267973,8.80955 0.74468,0.0663 34.07144,0.35653 14.57441,18.97902 24.29051,29.50485 26.2664,29.66701 10.49339,10.94686 -8.51771,0.51737 -51.81993,-1.23041 -33.22968,-3.72457 -6.25064,-21.57002 -8.77708,-45.21283 z m 986.8454,0.13272 -1.0686,10.33148 -8.7771,45.213 -8.7447,30.31455 -25.0354,2.81768 -51.7875,1.23041 -18.2018,-1.13424 5.2793,-5.50584 26.2661,-29.66685 24.2581,-29.50501 18.4934,-23.99901 3.692,0.29186 z m -919.15562,2.91485 21.4729,13.63502 25.65079,15.90233 7.09279,4.33993 0.55055,27.78841 0.16616,1.4891 -7.77303,-8.12919 -26.26619,-29.66685 z m 843.04522,4.82564 -20.8577,25.39175 -25.2621,28.53344 0.5831,-4.89047 0.3887,-20.69563 23.6751,-14.67157 z m -300.16699,24.5822 11.75681,7.74047 35.10791,19.01152 26.94644,11.75659 -30.05565,27.49705 -4.46929,3.59488 -2.10536,-7.80533 -7.09279,-17.32725 -9.16574,-16.12899 -9.19795,-12.66347 -11.07656,-14.9306 z m -31.18898,3.78923 4.14569,3.62739 12.82529,13.79703 11.04414,14.9631 9.16553,16.09651 7.12541,17.35959 4.59897,17.32742 -10.10492,8.12917 -13.82956,9.71627 -42.13586,-19.27053 -40.54903,-22.50924 -6.38054,-4.21042 27.85343,-21.6672 31.09191,-28.01509 z m -175.281,0.38803 31.18918,28.14459 34.1689,26.52533 0.48572,0.32334 -13.18173,8.71222 -40.51662,22.50924 -33.78006,15.44878 -22.21797,-15.61079 -2.23465,-1.7813 1.03647,-8.09683 4.92279,-18.55798 7.12541,-17.32725 8.58255,-15.15745 2.42897,-3.27104 12.8255,-13.79702 z m -36.20903,0.67987 -0.67983,0.71305 -11.04395,14.9306 -9.16574,16.12902 -7.12521,17.35973 -4.34,16.35554 -11.4328,-9.19791 -22.86539,-20.92232 19.75618,-8.61503 35.10811,-19.01152 z m 472.9538,14.05606 -3.5949,30.05554 -1.0041,4.59912 -40.9055,-6.21838 -0.4857,-0.13273 20.7603,-12.8578 z m -694.38687,0.58368 16.38822,10.00764 22.25018,13.79701 7.54629,4.85816 -41.35875,6.28322 -1.16576,0.0995 -3.5627,-30.08789 z m -351.5007798,2.97969 12.0481958,0.0995 12.857717,2.20248 0.583788,0.19391 12.663392,5.40868 15.28689,7.99967 16.161255,9.74862 14.056296,9.39242 9.359854,14.02371 9.748502,16.16134 8.0322,15.31929 6.15358,14.44475 4.24275,13.63518 1.94325,11.27071 -1.71651,9.19807 -4.40464,10.33165 -6.76898,9.39225 -5.27902,4.8258 H -28.167065 V 346.94391 l 1.101112,-1.23041 9.392478,-6.73658 10.331686,-4.40461 z m 1403.4127498,0 4.9228,0.90707 1.7165,0.74453 9.3925,6.7691 7.7728,8.55019 v 136.64388 h -137.6465 l -2.1053,-1.29509 -7.4815,-6.80142 -3.6597,-8.61504 -2.1052,-11.20603 0.097,-12.04825 2.2022,-12.8578 4.2427,-13.66753 6.186,-14.44475 8.0322,-15.31929 9.7485,-16.16134 1.5224,-2.26714 12.6634,-8.45303 16.1939,-9.78095 15.2867,-7.99984 14.4449,-6.18588 13.6675,-4.24276 12.8579,-2.20247 z m -488.33794,25.78028 24.61453,8.29118 -14.76876,10.52602 -16.5499,12.85779 -14.89824,12.89014 -13.18173,13.01981 -11.36796,13.14932 -3.91894,5.53819 -4.95541,-1.35976 0.29199,-2.2023 -0.0324,-20.88998 -0.29179,-2.13746 14.25042,-11.46522 33.13223,-30.31473 z m -434.54234,2.46149 0.58359,0.61522 33.13244,30.31455 23.1894,18.65517 -0.0324,24.48502 -8.38843,2.33183 -9.39228,-12.95498 -11.36795,-13.18167 -13.18173,-12.9873 -14.93046,-12.8903 -16.55011,-12.85782 -5.53838,-3.98358 z m -350.39968,9.10091 15.22205,4.50177 55.83593,11.30322 1.06788,0.13272 2.81782,9.84577 17.94281,46.1844 -19.59448,-15.12495 -44.37091,-34.71934 -20.27451,-15.61064 z m 1129.22056,4.11326 -9.619,7.22227 -20.2745,15.64317 -44.3385,34.687 -14.542,11.23837 3.4978,-7.06045 18.558,-47.90099 0.3238,-1.06792 9.2952,-1.06956 55.8036,-11.30319 z m -287.98912,1.71643 29.01912,7.02811 23.0598,3.49788 -13.8942,13.31117 -33.13225,28.98682 -31.35108,24.77639 -36.95411,-6.93095 -17.4569,-4.76096 4.53434,-5.24683 13.18173,-12.9873 14.89823,-12.89014 16.54991,-12.85782 18.10451,-12.92264 z m -544.95117,1.35976 4.21053,2.81768 18.1043,12.8903 16.51769,12.89014 14.93066,12.8903 13.18173,12.98732 10.75256,12.43679 -8.8093,2.39665 -43.75551,8.22634 -3.69219,-2.65568 -35.72331,-28.27425 -33.13224,-28.95431 -7.51406,-7.19012 31.54541,-4.7933 z m 271.50406,7.31963 13.89418,9.19807 40.54904,22.50925 33.48846,15.28679 -1.84599,1.29507 -42.42746,25.68327 -42.00658,21.57002 -6.9633,-2.94735 -45.63391,-23.44847 -35.33466,-21.37567 24.54967,-11.20603 40.51662,-22.5094 z m -468.32259,4.50177 25.55372,2.85019 51.81993,1.26356 27.98291,-1.81377 3.75682,17.32741 11.20606,35.17271 7.99957,18.88184 -30.54116,0.55054 -61.11514,-4.08093 -7.54629,-1.16573 -10.94708,-22.15305 z m 935.12262,1.00324 -14.7362,37.99054 -15.4812,31.31863 -58.4594,3.91891 -39.4479,-0.67988 11.2384,-26.59016 11.1737,-35.14035 2.17,-9.9753 35.3022,2.26713 51.7877,-1.26356 z m -1029.79106,15.48114 9.23058,7.12527 41.74721,32.64654 -40.25745,-9.81345 -0.35663,-1.97562 -4.24275,-13.66752 z m 1124.32996,0.48585 -2.5584,6.02406 -4.2752,13.63518 -1.9757,11.62707 -45.5691,11.07652 39.4802,-30.86527 z m -232.1854,11.65957 -3.3359,10.49349 -14.0563,33.26192 -30.02306,-3.04453 11.62713,-9.23042 33.16463,-28.95431 z m -658.37213,1.71645 28.53346,24.93839 18.78475,14.83342 -29.92596,3.07687 -1.00324,0.0332 -11.07636,-26.26629 z m 445.29509,23.35128 18.55801,6.7366 -4.59897,18.8495 -6.57466,18.00747 h -79.18743 l 14.25062,-7.31964 42.42745,-25.68309 z m -230.37184,1.52227 6.0239,4.24276 42.42765,25.68328 23.67531,12.14526 h -82.26422 l -3.72461,-10.16964 -5.5706,-22.9951 -0.22716,-1.74895 z m -436.55042,16.90622 56.03025,13.63518 26.62242,4.1131 9.84577,7.4168 H 140.37657 l 4.59899,-6.38041 4.37222,-10.33146 z m 1103.0516,1.52226 v 3.53023 l 2.1052,11.23837 3.7892,8.87422 h -100.6277 l 7.6434,-5.79737 37.2779,-5.73253 z m -373.55685,0.55054 31.54541,8.64753 9.16573,1.68411 -15.02793,10.72018 -3.27111,2.04046 h -29.99081 l 1.78136,-8.22634 5.34406,-13.99139 z m -358.36706,2.33446 3.43323,6.34791 5.34365,13.99137 0.0669,0.38802 h -29.8289 l -10.91446,-6.8986 -6.54223,-4.63128 15.54585,-2.91484 z m 433.66798,14.44475 9.39227,1.78143 35.91766,3.65973 -0.4211,0.84239 h -53.69833 z m -506.70163,1.1989 7.12521,5.08481 h -54.18404 l 44.04689,-4.50177 z m -163.78316,4.2751 11.88609,0.80922 h -10.75256 z m 831.54742,0.6152 -0.2592,0.19412 h -2.5262 z"
     id="path4-9-7-6"
     inkscape:connector-curvature="0" />
  <circle
     style="color:#000000;clip-rule:nonzero;display:inline;overflow:visible;visibility:visible;opacity:1;isolation:auto;mix-blend-mode:normal;color-interpolation:sRGB;color-interpolation-filters:linearRGB;solid-color:#000000;solid-opacity:1;fill:none;fill-opacity:1;fill-rule:evenodd;stroke:#0000ff;stroke-width:0.5;stroke-linecap:butt;stroke-linejoin:miter;stroke-miterlimit:4;stroke-dasharray:none;stroke-dashoffset:0;stroke-opacity:1;color-rendering:auto;image-rendering:auto;shape-rendering:auto;text-rendering:auto;enable-background:accumulate"
     id="path814"
     cx="701.45667"
     cy="-243.54338"
     r="1.6397636" />
</svg>
