<?xml version="1.0" encoding="UTF-8" standalone="no"?>
<svg
   xmlns:dc="http://purl.org/dc/elements/1.1/"
   xmlns:cc="http://creativecommons.org/ns#"
   xmlns:rdf="http://www.w3.org/1999/02/22-rdf-syntax-ns#"
   xmlns:svg="http://www.w3.org/2000/svg"
   xmlns="http://www.w3.org/2000/svg"
   xmlns:sodipodi="http://sodipodi.sourceforge.net/DTD/sodipodi-0.dtd"
   xmlns:inkscape="http://www.inkscape.org/namespaces/inkscape"
   width="1492.9133"
   height="1492.9133"
   viewBox="-45 -990 1492.9133 1492.9133"
   version="1.1"
   id="svg6"
   sodipodi:docname="lotus - projection-7.svg"
   inkscape:version="0.92.3 (2405546, 2018-03-11)">
  <metadata
     id="metadata12">
    <rdf:RDF>
      <cc:Work
         rdf:about="">
        <dc:format>image/svg+xml</dc:format>
        <dc:type
           rdf:resource="http://purl.org/dc/dcmitype/StillImage" />
        <dc:title>OpenSCAD Model</dc:title>
      </cc:Work>
    </rdf:RDF>
  </metadata>
  <defs
     id="defs10" />
  <sodipodi:namedview
     pagecolor="#ffffff"
     bordercolor="#666666"
     borderopacity="1"
     objecttolerance="10"
     gridtolerance="10"
     guidetolerance="10"
     inkscape:pageopacity="0"
     inkscape:pageshadow="2"
     inkscape:window-width="1920"
     inkscape:window-height="1026"
     id="namedview8"
     showgrid="true"
     inkscape:zoom="0.45603865"
     inkscape:cx="235.04312"
     inkscape:cy="694.53748"
     inkscape:window-x="1600"
     inkscape:window-y="27"
     inkscape:window-maximized="1"
     inkscape:current-layer="svg6"
     inkscape:document-units="cm"
     fit-margin-top="0"
     fit-margin-left="0"
     fit-margin-right="0"
     fit-margin-bottom="0"
     inkscape:snap-nodes="false"
     inkscape:snap-others="false"
     inkscape:snap-to-guides="false"
     inkscape:snap-bbox="true"
     inkscape:bbox-nodes="true">
    <inkscape:grid
       type="xygrid"
       id="grid4529"
       units="cm"
       spacingx="737.00786"
       spacingy="737.00787"
       originx="0"
       originy="0" />
  </sodipodi:namedview>
  <title
     id="title2">OpenSCAD Model</title>
  <path
     style="fill:none;stroke:#0000fb;stroke-width:0.49133857;stroke-opacity:1;stroke-miterlimit:4;stroke-dasharray:none"
     d="M -44.75,-989.74998 V 502.66327 H 1447.6633 V -989.74998 Z m 226.71201,16.4851 h 94.2476 l -15.09265,11.49764 -19.56205,2.00789 -56.58087,10.72034 0.42118,-4.21032 -0.97171,-11.53006 z m 117.4368,0 h 75.1714 l -3.1092,6.8014 -10.9147,-0.67984 -58.4268,1.13435 -14.5096,1.48895 5.279,-4.04842 z m 90.5877,0 h 89.7456 l -16.5499,11.33553 -5.7001,4.34001 -40.9703,-5.99168 -30.347,-1.94326 2.4291,-5.27901 z m 114.2953,0 h 41.0026 l -0.4212,1.03647 -6.7043,23.35131 -1.6841,9.87819 -16.2585,-5.14953 -43.723,-10.10494 z m 55.9332,0 h 2.4938 l -0.066,0.35663 -4.1456,14.02388 -6.2507,13.69986 -1.1011,1.81357 0.194,-1.23039 6.7042,-23.35151 z m 16.2585,0 h 106.5869 l -15.902,7.48144 -43.0107,24.09639 -33.5211,21.89396 -22.9625,-9.36005 -7.935,-2.49382 5.7002,-9.26279 6.2507,-13.66764 4.1456,-14.0561 z m 145.3872,0 h 105.421 l 1.199,8.90656 4.1455,14.0563 6.2511,13.69986 4.0158,6.47739 -3.1093,0.97163 -8.1614,2.65571 -17.9428,7.31954 -38.541,-25.16488 -43.0104,-24.06397 z m 119.1858,0 h 1.3282 l 3.8865,9.5866 6.7042,23.38393 0.2271,1.19878 -1.1341,-1.81377 -6.2511,-13.66745 -4.1454,-14.05609 z m 16.2583,0 h 41.5857 l 28.857,19.75638 -40.5166,9.36006 -19.9183,6.31548 -1.1657,-6.76898 -6.7043,-23.35131 z m 66.1027,0 h 88.48269 l 3.8541,6.73655 0.5836,1.32827 -25.39169,1.62006 -44.9214,6.57485 -9.9106,-7.5787 z m 104.09339,0 h 76.0134 l 2.8824,2.07274 8.032,6.12136 -9.1333,-0.9386 -58.3944,-1.13434 -15.8374,1.00506 -2.1378,-4.66382 z m 99.0407,0 h 94.5715 l -1.2305,4.21052 -0.9384,11.52986 v 7.83787 l -53.0832,-10.07272 -24.9383,-2.59107 z m -1154.70923,0.0669 h 195.23138 l 1.03639,1.91084 3.1417,10.81739 0.5837,6.96332 -0.7777,8.25873 -3.20638,12.92256 -5.14965,13.53816 -6.99561,14.28264 -8.74471,14.96308 -10.42865,15.70776 -11.98341,16.51769 -13.47318,17.42447 -3.36822,4.14568 -4.17808,3.36819 -17.3921,13.47311 -16.51752,11.98356 -15.70799,10.42875 -14.96294,8.74445 -14.25039,6.99594 -8.77704,3.33574 -9.55426,2.36414 -12.24244,1.16575 -11.53007,-0.9386 -10.75249,-3.14163 z m 1263.69313,0 h 195.5553 V -777.254 l -2.3966,1.29503 -3.8218,1.13433 -11.5299,0.9384 -12.2425,-1.16575 -12.8902,-3.20607 -13.6025,-5.11732 -14.2507,-6.99571 -14.9629,-8.74467 -15.7081,-10.46117 -16.5175,-11.98315 -17.3921,-13.47331 -4.1779,-3.36839 -3.3683,-4.14547 -13.4083,-17.35964 -7.0282,-9.61901 -10.4289,-15.7404 -8.7445,-14.96288 -6.9957,-14.25062 -5.1171,-13.57038 -3.2065,-12.92236 -1.1657,-12.2101 0.9386,-11.56248 z m -533.06509,5.89461 21.5377,10.16958 43.0107,24.06377 31.0594,20.27451 -10.8498,4.40486 -41.2939,20.66296 -38.2171,22.96286 -6.1862,4.37223 -9.9428,-7.02815 -38.2172,-22.96245 -41.2941,-20.66337 -5.8296,-2.36413 26.0395,-17.00361 43.0104,-24.06376 z m -341.9141,14.08831 4.6963,0.2918 -6.4452,14.05629 -12.5663,35.2376 -8.194,31.90164 -4.1456,-0.42128 -49.4556,-1.10111 -51.65806,3.33596 -8.38819,1.26363 8.06434,-24.54969 18.26664,-42.8163 14.47707,-11.40038 1.2951,-1.00324 35.6262,-3.69218 z m 686.35469,0 58.3944,1.10111 30.1851,3.14144 16.1939,12.79328 20.2097,47.28559 6.4127,19.52943 -3.6273,-0.55056 -51.6904,-3.33575 -49.4232,1.10111 -8.259,0.87376 -7.2222,-28.07977 -12.5339,-35.20538 -8.2912,-18.07209 z m -666.92209,1.19899 36.5329,2.33191 25.7805,3.78925 -15.2221,11.5947 -33.521,28.40377 -31.1244,28.95434 -6.9633,7.09299 -3.5302,-0.35664 7.4815,-29.14866 12.5664,-35.20516 z m 642.53419,0.3232 9.8457,21.40825 12.5341,35.2376 6.5098,25.26194 -4.437,0.48591 -10.1048,-10.29906 -31.1243,-28.95453 -33.52109,-28.40378 -10.9793,-8.3558 29.6992,-4.37223 z m 138.6507,5.31164 4.6964,0.48591 54.5403,10.33148 2.9149,11.72439 5.1171,13.6026 6.9957,14.218 8.7447,14.9955 5.02,7.54628 -33.359,-28.11218 -23.0599,-19.20603 -24.4848,-19.95051 z m -920.51578,0.67983 -0.97173,0.77771 h -0.16575 l -0.0663,0.16616 -8.45319,6.67171 -24.48487,19.95071 -23.05994,19.20583 -32.35503,27.27004 9.03623,-13.63482 8.74456,-14.9955 6.9956,-14.218 5.14965,-13.6028 1.65161,-6.63929 z m 220.78529,2.59108 8.3559,1.2304 50.4273,11.62691 14.1209,4.46949 -0.3566,6.9309 -11.9834,12.82549 -13.6027,12.53391 -15.2544,12.37201 -16.7767,12.30736 -18.2342,12.3718 -8.0645,5.11732 -24.7764,-7.0928 -44.4031,-8.68002 -7.935,-0.84234 28.7277,-26.7519 33.5534,-28.40379 z m 480.6617,0.58358 21.9588,16.80908 33.5535,28.37135 31.09199,28.95434 0.9386,0.97183 -3.1093,0.3234 -44.37089,8.67982 -27.5294,7.87009 -13.4731,-8.55013 -18.234,-12.37221 -16.7766,-12.30716 -15.2547,-12.37201 -13.6026,-12.5339 -7.0282,-7.51387 -0.2917,-5.92703 -0.4213,-2.52603 17.6836,-5.60303 50.4272,-11.62712 z m -390.2035,22.25 8.3558,2.65593 17.2626,7.02813 -30.1852,22.67108 -0.8739,-12.89014 0.6799,-13.31122 z m 298.774,1.5538 6.5098,8.38843 0.4543,8.87413 -1.0363,14.83361 -4.6316,-3.95136 -25.6183,-19.23826 13.4406,-5.47354 z m 323.90669,1.00486 10.0726,8.1941 23.0275,19.20562 39.2211,33.00295 -18.5904,-4.46948 -34.687,-5.24679 -8.5502,-26.16914 z m -946.68481,0.0669 -8.61504,20.17725 -10.23448,31.15697 -29.92588,4.53413 -25.58609,6.18599 38.08756,-32.09596 23.05994,-19.1732 z m 364.61772,13.18173 11.4003,4.6314 41.3266,20.69559 38.2171,22.93023 6.0563,4.30759 -16.9385,12.01577 -32.1607,26.49274 -29.2459,27.85322 -3.9836,4.40485 -11.7892,-9.65144 -13.311,-13.24657 -8.8094,-10.8174 -7.6758,-12.0482 -7.9998,-16.67939 -5.9592,-17.87776 -2.008,-10.16978 5.8297,-5.02005 z m 218.8744,0.7777 32.4522,24.38778 9.8781,8.45307 -1.0032,5.11732 -5.9592,17.87775 -7.9998,16.64739 -9.878,15.51343 -11.6596,14.31525 -13.3112,13.21415 -9.0038,7.4168 -6.7688,-7.44922 -29.2459,-27.85322 -32.1284,-26.49293 -13.2464,-9.36006 2.3644,-1.65146 38.1847,-22.96287 41.3263,-20.66317 z m -278.1109,5.53838 v 1.68409 l 1.3598,19.4648 -21.2462,18.20177 -22.2177,21.50532 -23.4486,-8.93899 16.8092,-11.36795 16.7765,-12.30736 15.2221,-12.37181 13.6352,-12.53411 z m 337.4771,2.13739 12.0157,11.07656 15.2221,12.37221 16.7766,12.33958 18.2342,12.33958 3.9836,2.52604 -4.6314,1.48915 -20.3069,7.70839 -26.1041,-25.29456 -17.1655,-14.6717 0.8739,-4.40465 z m -333.1371,34.6222 0.8423,4.24274 5.9593,17.84555 7.9996,16.67959 9.8783,15.48122 7.3195,9.00362 -27.8208,-16.32335 -36.0149,-17.2948 -0.4527,-0.16616 16.1937,-15.67574 z m 327.9873,0.74468 12.1779,10.39612 20.1126,19.49721 -4.3724,1.65167 -36.0149,17.26257 -27.8206,16.35558 7.3193,-9.00382 5.0525,-6.93069 9.8782,-15.48122 7.9998,-16.67959 z m -581.16,1.26342 49.4556,1.10112 1.7489,0.16616 -1.5869,10.07251 -0.4212,0.42107 -26.6225,29.44025 -24.6469,29.44024 -22.5092,28.85727 -29.21348,-1.0697 -29.95839,1.58703 6.02406,-42.33039 10.52581,-45.08337 2.39683,-7.28711 13.14915,-1.97568 z m 838.54319,0 51.6904,3.33595 8.3884,1.26364 4.0158,12.27494 10.5585,45.08316 5.3762,37.8609 -26.2015,-1.3929 -35.2698,1.29503 -1.8462,-2.52603 -22.7684,-29.2135 -24.6143,-29.44025 -22.3148,-24.64675 -1.9435,-12.2101 5.506,-0.58378 z m -762.52989,3.95136 20.4366,2.20222 44.4031,8.67982 9.6514,2.75298 -17.3272,10.52601 -22.1531,13.08447 -47.7066,27.75595 -3.7894,2.23485 -0.4859,-13.31141 1.9756,-31.12415 1.4245,-8.97139 z m 681.49639,0.55055 15.1574,15.38396 1.7812,11.14121 1.7489,28.04775 -0.4211,12.37179 -8.68,-5.1171 -47.7064,-27.78838 -22.15319,-13.08467 -11.7566,-7.125 12.2425,-3.49807 44.37079,-8.67981 z m 156.4639,2.33192 29.8935,4.53413 42.039,10.13736 13.1169,10.62306 11.5623,14.28284 11.8214,49.0021 3.4655,22.96286 -3.4008,-1.10111 -45.0508,-10.5258 -43.4641,-6.18601 h -1.4892 l -6.0887,-42.88115 -10.5584,-45.08336 z m -994.13259,0.8091 -0.22717,0.64843 -10.52583,45.08338 -6.18606,43.46392 -0.22718,4.04842 -41.52076,5.92683 -45.08333,10.52601 -7.35196,2.39655 4.33995,-28.53326 11.56238,-47.96583 6.76892,-8.38823 14.31524,-11.56248 48.96989,-11.82145 z m 499.1553,9.68408 15.1572,10.72014 32.1608,26.49294 29.2135,27.88563 4.0809,4.43707 -11.2385,7.70819 -17.6188,10.29926 -18.8818,9.48955 -17.554,7.67575 z m -3.9513,0.0993 -15.1574,103.54259 -1.2637,-0.45268 -20.0802,-8.8093 -18.8818,-9.48974 -17.6188,-10.29907 -8.2587,-5.66786 1.1011,-1.19899 29.2135,-27.85302 32.1608,-26.49294 z m -246.6626,5.27921 9.3599,2.68814 18.5256,7.02815 -26.8491,29.24571 -25.813,31.54541 -12.8253,17.55396 -19.7564,-24.93833 13.376,33.61815 -4.1779,5.70009 -5.2143,7.96735 -24.323,-10.33169 -26.9141,-8.58254 -3.6597,-26.88159 -0.033,-0.42128 11.4003,-6.73655 47.6743,-27.75596 22.1529,-13.08447 20.9223,-12.69581 z m 499.0579,0.84236 0.7446,0.45267 20.9224,12.72824 22.1529,13.08447 47.67449,27.78858 15.902,9.32763 -3.2711,23.83723 -1.1657,4.89036 -22.5092,7.15763 -8.1617,2.65572 -21.2137,9.00362 -3.27109,-4.9552 -6.186,-8.51792 13.95899,-35.14033 -20.59849,26.07187 -15.6107,-21.31099 -25.8127,-31.54521 -23.2218,-25.32718 18.2988,-6.96312 z m -620.349,10.75255 -1.2304,19.30289 v 8.55033 l 0.6152,16.77666 -8.5179,5.02004 -26.2986,15.86987 -4.4695,2.7854 -15.7403,-2.0081 14.6392,-18.75233 24.6144,-29.44025 z m 741.18649,2.81783 11.4328,12.63097 24.6146,29.44024 17.2623,22.12051 -13.4731,1.68409 -9.36,-5.82957 -26.2662,-15.86986 -3.6598,-2.17001 0.7445,-21.24614 z m -577.98609,0.67983 2.9148,1.10111 36.0149,17.29479 33.1323,19.465 26.0393,18.33126 -8.0643,8.84172 -23.7399,29.79627 -21.149,30.4443 -10.2993,16.97099 -2.7528,0.7777 -28.5982,8.38843 -9.9429,3.10921 -6.8986,-6.60687 -19.0114,-15.22226 -38.6706,-48.93725 12.5015,-17.06825 25.8128,-31.54541 28.3714,-30.96243 z m 413.7817,1.13414 0.388,0.35664 28.3716,30.96243 25.8451,31.54521 15.2543,20.85749 -37.3101,47.15611 -0.1946,0.16616 -22.9628,18.39611 -2.8177,2.68814 -5.8946,-1.8462 -28.5981,-8.38843 -9.619,-2.72036 -6.5422,-10.75276 -21.1491,-30.44409 -5.0201,-6.93089 -23.7399,-29.79648 -5.1173,-5.60302 23.0923,-16.25852 33.1647,-19.49721 35.9824,-17.26237 z m 420.09759,26.84917 8.6474,5.70029 14.9631,8.74465 14.2504,6.99554 13.5704,5.14972 8.1292,2.62329 4.8906,1.23041 11.7242,61.8278 -3.2063,-4.0162 -0.874,-1.2304 h -0.1337 l -6.6717,-8.45286 -19.9831,-24.48504 -19.1734,-23.05993 z m -1239.62921,1.78156 -4.66379,19.39995 -5.70019,37.60193 -32.64654,10.68771 -21.0518,9.00383 8.58269,-10.52601 19.20571,-23.05972 z m -18.29898,0.87375 -26.13662,31.02728 -19.17337,23.05992 -19.98309,24.48484 -5.89437,7.48144 0.0663,-0.77771 10.68784,-56.45132 9.00372,-2.20243 13.57034,-5.14953 14.25056,-6.99573 14.96294,-8.74465 z m 1244.35779,2.10517 31.5454,37.47244 19.2058,23.05972 8.5826,10.52601 -21.0518,-8.97141 -28.4362,-9.32764 -4.858,-32.06353 z m -983.31499,23.90205 2.2023,16.03178 -21.0518,-4.66382 z m 740.27979,0 19.821,11.98336 -22.1205,4.89056 z m -1100.16893,0.90699 10.75251,3.10921 11.53006,0.9386 1.78127,-0.16616 -9.52192,50.20068 -2.55867,24.90592 -11.98325,15.74019 z m 1459.24843,1.29503 v 95.60787 l -10.5909,-13.99126 -2.5584,-24.54967 -10.3639,-54.86451 5.7649,0.55057 11.5299,-0.9386 z m -827.53159,5.73272 21.1167,17.61879 24.841,24.32294 1.3599,1.5538 -17.7159,5.24679 -25.2621,7.12522 -53.2127,14.70391 -6.0563,1.7165 4.4371,-7.31973 17.8454,-25.6506 21.991,-27.65889 z m 194.9401,0.35663 7.9025,8.67982 23.7076,29.79647 21.1491,30.41188 0.6798,1.10091 -52.3705,-14.47696 -25.2621,-7.12521 -22.0883,-6.54224 22.4123,-21.9588 z m -567.84892,9.5866 19.36771,0.71307 -11.49756,15.74018 -10.49365,15.25447 -15.22195,10.49379 -13.70002,9.97526 -0.77771,-21.73207 1.52224,-28.79242 z m 946.16651,0 27.4323,1.45755 1.5869,29.76405 -0.7778,21.86155 -18.558,-13.53796 -14.7363,-10.13736 -5.9592,-8.67982 -14.4124,-19.7886 z m -910.89659,1.23039 4.2427,0.16616 3.0769,0.38805 -4.2428,2.65571 -10.33164,6.76898 z m 869.66749,0.38805 5.0525,6.93089 -9.6839,-6.34791 z m 82.1345,0.58358 h 0.6799 l 43.4641,6.21844 44.8242,10.46115 5.8622,1.91084 2.429,16.06419 3.174,49.52045 -0.9386,43.04285 -0.8093,7.64335 -12.5015,-1.97549 -0.4213,-0.42127 -29.4402,-26.65484 -29.4076,-24.61453 -26.5902,-20.72802 1.1657,-32.22545 z m -1031.34552,0.38805 -1.23041,23.57805 v 8.55034 l 0.97173,26.94643 -2.2023,1.58682 -29.24582,22.76835 -29.40785,24.64694 -28.11227,25.42425 -9.61908,1.55359 -0.4212,-3.95136 -1.06956,-49.42297 3.33604,-51.69045 1.58693,-10.49359 9.55426,-3.14162 45.08333,-10.52582 z m 453.03543,0.292 15.4488,7.77282 20.0802,8.77709 7.3844,2.88246 -0.1662,1.23059 -7.4166,2.55845 -9.7163,3.07679 -7.3519,-8.38842 z m -344.5051,1.71651 12.5986,1.62006 28.9868,6.41274 4.923,20.20987 8.5502,23.96672 10.6231,22.05566 1.6516,2.72077 -14.7687,27.78837 -13.5704,28.20945 -28.2094,13.57038 -25.7156,13.63503 -5.182,-3.17386 -22.08821,-10.62327 -23.96683,-8.55013 -17.39191,-4.24275 -6.83376,-30.89759 -1.6201,-12.59875 11.10885,-17.74828 18.16931,-27.82081 4.50193,-6.54243 12.66348,-8.71224 27.82094,-18.16915 z m 814.41449,0.42128 12.8255,8.03199 27.8206,18.16935 13.1493,9.03604 9.0685,13.18173 18.1695,27.7884 10.1696,16.29093 -0.6798,5.50596 -7.7406,35.01065 -0.4211,1.23039 -12.9876,3.17405 -8.1291,2.65572 -23.9667,8.55033 -22.0883,10.62308 -0.5821,0.3234 -30.3146,-16.09661 -26.0073,-12.50149 -10.7201,-22.34746 -17.2301,-32.35492 4.113,-6.70434 10.5909,-22.05589 8.5503,-23.99892 3.6596,-14.93066 33.3916,-7.38438 z m -349.42829,0.51731 -18.2664,17.9102 -3.7568,4.30758 -11.2387,-3.5627 -4.0484,-1.39291 1.7816,-0.71306 20.1126,-8.77688 z m -58.4268,0.51733 7.7731,53.0181 7.0603,19.9185 6.8663,10.65549 6.7688,6.89847 6.7043,5.11711 6.6393,4.24274 12.9874,7.70839 6.3155,4.08064 6.1213,4.6316 5.765,5.63524 5.2468,7.44922 4.2103,11.04414 1.7165,19.56186 -6.8985,49.19663 18.6229,-46.055 11.2383,-16.06399 9.1657,-7.48164 8.2587,-3.85409 7.8379,-1.97568 7.6111,-0.97163 7.5139,-0.35664 15.0926,-0.19452 7.87,-0.35644 8.3885,-1.0697 9.295,-2.59087 11.2709,-5.79736 16.0642,-13.69986 33.2295,-42.039 -19.7886,49.77941 -3.8219,20.79285 0.6152,12.66339 2.429,9.32764 3.2387,7.80525 3.5951,6.99572 7.4168,13.18173 3.433,6.67192 2.9797,7.06037 2.2023,7.77303 0.8093,9.10068 -1.9111,11.65975 -8.2911,17.81312 -30.5738,39.12391 39.1565,-30.54136 17.7807,-8.32358 11.6918,-1.87842 9.0687,0.80912 7.7728,2.20222 7.06059,2.94751 6.7041,3.43303 13.1817,7.41659 6.9955,3.62735 7.7731,3.2389 9.36,2.39675 12.6312,0.64822 20.7927,-3.85409 49.7796,-19.7886 -42.0066,33.2295 -13.7323,16.06419 -5.7649,11.27069 -2.5911,9.32764 -1.1011,8.356 -0.3565,7.87009 -0.1661,15.12499 -0.3881,7.48144 -0.9386,7.61092 -2.0081,7.83787 -3.8216,8.25895 -7.4815,9.16553 -16.0966,11.27089 -46.05499,18.62285 49.19669,-6.89867 19.562,1.71672 11.044,4.1779 7.4816,5.24679 5.6354,5.76493 4.6314,6.12116 4.0807,6.31549 7.7084,13.01982 4.2425,6.6395 5.1173,6.67171 6.8985,6.76898 10.6555,6.86624 19.8858,7.06037 53.0185,7.77303 -53.0185,7.77303 -19.8858,7.06036 -10.6555,6.86604 -6.8985,6.76919 -5.1173,6.70413 -4.2425,6.60708 -7.7084,13.01982 -4.0807,6.31549 -4.6314,6.12116 -5.6354,5.76493 -7.4816,5.24679 -11.044,4.1779 -19.562,1.71672 -49.19669,-6.89867 46.05499,18.62285 16.0966,11.27089 7.4815,9.16553 3.8216,8.25887 2.0081,7.83765 0.9386,7.61114 0.3881,7.481455 0.1661,15.124946 0.3565,7.870172 1.1011,8.388347 2.5911,9.295255 5.7649,11.27071 13.7323,16.064153 42.0066,33.22958 -49.7796,-19.788723 -20.7927,-3.854073 -12.6312,0.648367 -9.36,2.39665 -7.7731,3.271198 -6.9955,3.594884 -13.1817,7.416799 -6.7041,3.433061 -7.06059,2.979668 -7.7728,2.169985 -9.0687,0.809217 -11.6918,-1.878617 -17.7807,-8.323524 -39.1565,-30.541238 30.5738,39.156271 8.2911,17.780785 1.9111,11.659402 -0.8093,9.100888 -2.2023,7.772989 -2.9797,7.060448 -3.433,6.671918 -7.4168,13.181648 -3.5951,6.995605 -3.2387,7.805491 -2.429,9.359923 -0.6152,12.63113 3.8219,20.79279 19.7886,49.77945 -33.2295,-42.03896 -16.0642,-13.69986 -11.2709,-5.79735 -9.295,-2.591 -8.3885,-1.0679 -7.87,-0.35654 -15.0926,-0.19392 -7.5139,-0.35653 -7.6111,-0.97173 -7.8379,-1.97562 -8.2587,-3.85423 -9.1657,-7.48148 -11.2383,-16.064161 -18.6229,-46.054896 6.8985,49.19659 -1.7165,19.561877 -4.2103,11.04421 -5.2468,7.44912 -5.765,5.63536 -6.1213,4.63146 -6.3155,4.08074 -12.9874,7.70833 -6.6393,4.2426 -6.7043,5.14965 -6.7688,6.89859 -6.8663,10.62301 -7.0603,19.91825 -7.7731,53.0183 -7.7406,-53.0183 -7.0603,-19.91825 -6.8663,-10.62301 -6.769,-6.89859 -6.7041,-5.14965 -6.6395,-4.2426 -13.0198,-7.70833 -6.3155,-4.08074 -6.0889,-4.63146 -5.7974,-5.63536 -5.2466,-7.44912 -4.1781,-11.04421 -1.7165,-19.561877 6.8985,-49.19659 -18.6227,46.054896 -11.2709,16.064161 -9.1331,7.48148 -8.2912,3.85423 -7.8378,1.97562 -7.5786,0.97173 -7.5138,0.35653 -15.125,0.19392 -7.8702,0.35654 -8.356,1.0679 -9.2952,2.591 -11.2707,5.79735 -16.0967,13.69986 -33.2294,42.03896 19.7887,-49.77945 3.8541,-20.79279 -0.6484,-12.63113 -2.3966,-9.359923 -3.2387,-7.805491 -3.6274,-6.995605 -7.4166,-13.181648 -3.4333,-6.671918 -2.9472,-7.060448 -2.2023,-7.772989 -0.8092,-9.100888 1.9108,-11.659402 8.2912,-17.780785 30.5737,-39.156271 -39.1562,30.541238 -17.8131,8.323524 -11.6596,1.878617 -9.0684,-0.809217 -7.8055,-2.169985 -7.0604,-2.979668 -6.6718,-3.433061 -13.1816,-7.416799 -6.9958,-3.594884 -7.773,-3.271198 -9.3599,-2.39665 -12.6635,-0.648367 -20.7928,3.854073 -49.7794,19.788723 42.0388,-33.22958 13.7,-16.064153 5.7973,-11.27071 2.5909,-9.295255 1.0695,-8.388347 0.3881,-7.870172 0.1657,-15.124946 0.3565,-7.481455 0.9718,-7.61114 1.9756,-7.83765 3.8541,-8.25887 7.4814,-9.16553 16.0642,-11.27089 46.055,-18.62285 -49.1965,6.89867 -19.5296,-1.71672 -11.0765,-4.1779 -7.4491,-5.24679 -5.6355,-5.76493 -4.6313,-6.12116 -4.081,-6.31549 -7.7081,-13.01982 -4.2428,-6.60708 -5.1171,-6.70413 -6.8986,-6.76919 -10.6555,-6.86604 -19.91827,-7.06036 -53.01816,-7.77303 53.01816,-7.77303 19.91827,-7.06037 10.6555,-6.86624 6.8986,-6.76898 5.1171,-6.67171 4.2428,-6.6395 7.7081,-13.01982 4.081,-6.31549 4.6313,-6.12116 5.6355,-5.76493 7.4491,-5.24679 11.0765,-4.1779 19.5296,-1.71672 49.1965,6.89867 -46.055,-18.62285 -16.0642,-11.27089 -7.4814,-9.16553 -3.8541,-8.25895 -1.9756,-7.83787 -0.9718,-7.61092 -0.3565,-7.48144 -0.1657,-15.12499 -0.3881,-7.87009 -1.0695,-8.356 -2.5909,-9.32764 -5.7973,-11.27069 -13.7,-16.06419 -42.0388,-33.2295 49.7794,19.7886 20.7928,3.85409 12.6635,-0.64822 9.3599,-2.39675 7.773,-3.2389 6.9958,-3.62735 13.1816,-7.41659 6.6718,-3.43303 7.0604,-2.94751 7.8055,-2.20222 9.0684,-0.80912 11.6596,1.87842 17.8131,8.32358 39.1562,30.54136 -30.5737,-39.12391 -8.2912,-17.81312 -1.9108,-11.65975 0.8092,-9.10068 2.2023,-7.77303 2.9472,-7.06037 3.4333,-6.67192 7.4166,-13.18173 3.6274,-6.99572 3.2387,-7.80525 2.3966,-9.32764 0.6484,-12.66339 -3.8541,-20.79285 -19.7887,-49.77941 33.2294,42.039 16.0967,13.69986 11.2707,5.79736 9.2952,2.59087 8.356,1.0697 7.8702,0.35644 15.125,0.19452 7.5138,0.35664 7.5786,0.97163 7.8378,1.97568 8.2912,3.85409 9.1331,7.48164 11.2709,16.06399 18.6227,46.055 -6.8985,-49.19663 1.7165,-19.56186 4.1781,-11.04414 5.2466,-7.44922 5.7974,-5.63524 6.0889,-4.6316 6.3155,-4.08064 13.0198,-7.70839 6.6395,-4.24274 6.7041,-5.11711 6.769,-6.89847 6.8663,-10.65549 7.0603,-19.9185 z m -349.6871,10.84982 15.6432,4.98763 24.5172,10.39633 -8.3884,12.76065 -13.2139,22.41211 -7.1902,-14.93067 -8.5502,-23.99892 z m 699.40659,1.42452 -1.4575,5.92704 -8.5504,23.9667 -9.4245,19.65913 -10.9471,-18.55822 -10.3316,-15.67534 21.8615,-9.29521 z m -636.47779,3.62735 3.2711,8.12926 -6.3803,-3.4006 z m 572.9985,1.32826 2.9149,4.46949 -5.9917,3.2389 z m 339.38799,2.29949 18.1045,5.92703 47.2534,20.17726 13.8942,17.58638 1.0032,1.32826 3.692,35.62625 0.9718,51.85235 -0.5837,9.4247 -16.7119,-7.70839 -35.2376,-12.53391 -29.7316,-7.64334 0.6484,-5.92704 1.0679,-49.42297 -3.3033,-51.69045 z m -1250.67329,1.26362 -0.22718,1.45754 -3.33604,51.65783 v 8.58275 l 1.06956,49.4556 0.29186,2.52624 -26.26616,6.73655 -8.12915,2.65572 -35.23754,12.53411 -11.91859,5.47334 -0.48586,-7.5785 1.13422,-58.39478 3.62741,-35.04307 9.91045,-12.56634 47.2858,-20.20967 z m 646.3237,9.94283 5.6353,1.81357 -4.599,5.24699 z m -318.7247,1.42452 20.9221,11.20605 0.9717,0.64822 17.6188,44.37091 -12.7606,4.27496 -30.5737,11.07657 -1.1011,0.42127 -3.7569,-3.95135 -10.3317,-13.40848 -7.1252,-11.56208 18.8494,-31.96669 z m 275.9733,0.0993 -1.0033,6.86605 -4.4695,-5.11712 z m 318.2066,0.97163 9.42469,14.31527 16.2585,27.56183 -5.7649,9.35985 -14.2506,18.49317 -4.76089,-1.87842 -30.5736,-11.07657 -8.6153,-2.88225 16.8417,-42.36301 z m -255.7637,3.75703 7.5463,2.42898 24.323,7.19005 25.2621,7.12521 53.2126,14.70392 9.2953,2.65572 7.9349,13.05224 12.1128,22.89782 -3.3035,3.78925 -2.7852,3.78945 -5.5382,0.71307 -6.8662,0.3234 -15.1574,0.16616 -8.4531,0.42107 -9.2306,1.16576 -10.3315,2.62329 -11.5623,5.37648 -9.8781,8.06442 -4.5344,-11.91851 -7.3193,-10.46117 -7.6436,-7.4168 -7.4168,-5.63544 -7.0927,-4.59898 -13.0521,-7.70819 -5.7973,-3.72461 -5.2144,-3.98357 -4.7609,-4.85815 -4.8908,-7.5787 -3.9835,-11.23848 0.2271,-0.29179 z m -81.9726,1.45755 11.3031,12.95498 3.336,4.43707 -3.433,9.74872 -4.8906,7.57849 -4.7609,4.85814 -5.2468,3.98359 -5.7973,3.7246 -13.0196,7.70819 -7.093,4.59917 -7.4491,5.63525 -7.6111,7.4168 -7.3519,10.46117 -4.5017,11.91851 -9.8784,-8.06442 -11.5623,-5.37628 -10.3315,-2.62329 -9.2628,-1.16576 -8.4208,-0.42127 -15.1573,-0.16616 -6.8984,-0.3234 -6.5099,-0.87396 -1.0049,-0.25856 -4.4371,-6.0241 -0.7131,-0.80912 14.5419,-27.49699 4.178,-6.86624 16.1936,-4.56655 53.2127,-14.70393 25.2621,-7.12521 24.323,-7.19005 z m 533.25919,17.48931 10.3639,7.5461 -0.8737,6.9635 z m -987.20148,1.91064 -5.70019,8.77709 -0.61522,0.9386 -0.4527,-3.65977 -0.0332,-1.0695 z m -19.4324,14.44474 1.71645,13.50574 -4.9228,7.90252 -15.90233,26.29861 -3.49788,5.95927 -18.68751,-0.67985 -24.54971,1.55379 12.17776,-11.01191 29.40769,-24.61434 z m 1029.49948,0.77772 19.8859,15.48121 29.4078,24.61452 14.7037,13.31123 -18.9464,-1.199 -24.1935,0.87397 -1.1011,-1.84619 -15.8701,-26.33084 -5.862,-9.32763 z m -335.46919,3.36837 22.9951,6.76898 -6.8661,6.60708 -5.4735,6.25085 -8.5826,-16.19368 z m -361.4762,1.97568 -9.4894,17.97503 -8.0968,-9.23037 -2.8502,-2.72056 z m -538.44111,2.94711 -1.06792,10.23462 -1.13422,58.4268 v 8.55033 l 0.58368,9.32764 -7.74046,3.5625 v -77.79453 z m 1441.9211,3.95136 4.3076,5.66787 3.6598,5.08488 v 74.49099 l -0.2272,-0.16616 -6.3479,-2.94709 0.8094,-13.14931 -1.1012,-58.39459 z m -391.7584,3.33595 12.3396,23.22162 4.4695,9.36006 -17.9751,-7.83766 -13.4733,-5.34407 9.522,-12.37199 z m -660.83319,0.3232 2.5262,4.04843 12.6311,16.45284 -16.5824,6.57485 -15.8375,6.89847 7.3843,-15.35174 z m 584.496,10.46117 5.344,1.78157 30.5736,11.07636 2.9796,1.19878 -5.6031,5.95926 -17.0034,14.8336 -18.2664,13.21394 -8.0644,4.89057 -1.2952,-5.02005 -0.4543,-9.03604 3.2064,-17.26257 z m -506.6043,1.26364 8.0968,20.37178 3.1741,17.26257 -0.4212,9.03604 -1.1989,4.6314 -11.8214,-7.12522 -18.2342,-13.21415 -17.0357,-14.86582 -1.9756,-2.07273 29.926,-10.84983 z m -256.76757,6.25084 4.92282,22.31504 -16.97106,-2.33191 1.55376,-2.62351 z m 1019.65366,1.97568 11.3033,18.71991 -15.9023,2.1698 z m -203.7494,9.94303 14.5096,5.73251 31.513,13.73229 3.6597,1.74872 1.749,3.65997 13.7322,31.54521 6.3479,15.99955 -9.7162,9.16553 -14.8657,17.0034 -13.2143,18.26662 -7.6109,12.59876 -0.8424,-0.45269 -13.2141,-7.4166 -7.5139,-3.85409 -8.5825,-3.62755 -10.26689,-2.88246 -12.696,-1.13414 -12.5986,2.04032 2.0404,-12.56633 -1.1342,-12.72824 -2.8824,-10.23442 -3.6276,-8.58275 -3.8541,-7.54629 -7.4168,-13.18152 -0.5173,-1.00507 10.6555,-6.44496 18.2342,-13.21395 17.0034,-14.8336 z m -612.18739,1.19878 7.4815,7.93494 17.0034,14.86582 18.2341,13.21415 14.4773,8.71223 -0.7131,1.35988 -7.4166,13.18152 -3.8542,7.54629 -3.6274,8.58275 -2.8824,10.23442 -1.1342,12.72824 2.0728,12.56633 -12.5988,-2.04032 -12.6958,1.13414 -10.2668,2.88246 -8.5827,3.62755 -7.514,3.85409 -13.214,7.4166 -1.7812,0.9384 -5.2792,-8.8093 -18.2666,-25.16508 -14.8658,-17.0034 -6.5099,-6.186 8.1617,-20.63075 12.7929,-29.37541 1.3283,-0.64842 31.5453,-13.73209 z m -249.57756,19.07615 10.68783,0.38804 -3.46538,5.86219 -27.75608,47.67445 -13.08448,22.15293 -8.42085,13.89419 -2.88234,-10.07252 -8.67988,-44.40313 -2.00812,-18.62285 13.34365,-13.1493 11.14137,-1.74893 z m 1115.84455,0 31.1243,1.97567 4.6314,0.74468 16.1288,15.83725 -1.3596,12.66359 -8.6801,44.40313 -4.5665,15.86987 -6.769,-11.14121 -13.0845,-22.15314 -27.7559,-47.67424 -5.8622,-9.94303 z m -1089.77258,0.87395 3.36819,0.19453 24.80873,3.36818 9.45726,29.56993 9.58661,22.67107 -9.84579,6.44497 -3.72457,2.75298 -34.03913,-13.53796 25.22975,19.95071 -19.43239,14.2182 -31.54548,25.84532 -27.04335,24.80865 -5.92704,-15.6109 -4.01591,-14.08852 3.88641,-6.15358 12.7283,-20.95455 13.08448,-22.15314 27.75606,-47.67424 z m 1058.32418,0.45269 7.9352,13.47311 27.7559,47.67445 13.0845,22.18535 12.7282,20.92234 2.2347,3.49786 -2.3642,8.1939 -7.6759,20.20988 -30.3145,-27.78838 -31.5456,-25.8129 -15.805,-11.56228 25.2624,-19.98313 -34.0717,13.53796 -7.3519,-5.37628 -6.4452,-4.27517 11.2385,-26.49294 7.8054,-24.45241 1.8784,-0.45269 z m 98.1017,6.57485 28.6305,7.35196 29.6344,10.55803 23.9345,11.01193 -1.8787,30.02302 -4.9552,33.74783 -13.5055,-17.68364 -28.4038,-33.55331 -28.9545,-31.09191 -5.0525,-4.98763 z m -1112.57331,0.0324 10.75267,2.62329 18.10446,6.44517 21.60249,10.39633 -24.77635,14.63907 -10.59083,6.93088 -8.12918,-19.23804 z m -140.04343,0.87375 0.29185,2.81783 -9.45709,9.29521 -28.95432,31.09192 -28.40377,33.5533 -9.48958,12.40443 -3.91892,-26.84917 -2.13746,-33.8449 19.14086,-8.80931 35.2052,-12.5339 z m 1111.21304,0.292 -5.2144,16.35558 -9.7809,23.09234 -13.9913,-9.16573 -19.8212,-11.72439 16.6472,-7.99957 23.9667,-8.55013 z m -110.4086,1.10091 8.9714,4.30758 24.9381,13.24637 -6.0887,3.75703 -14.1858,10.91467 -4.2103,-10.55844 z m -751.09719,1.42451 -6.9632,15.96693 -5.8622,14.80098 -17.554,-13.50554 -1.4907,-0.90699 20.3394,-10.8174 z m -247.53728,17.29479 1.16575,10.8174 8.67971,44.37091 6.18604,21.63479 -6.89842,10.8174 -12.33978,18.234 -12.3071,16.77685 -12.37211,15.22205 -12.53395,13.63502 -10.29914,9.58681 -1.94328,0.16616 -4.89048,0.84234 -5.11715,-16.19388 -11.62707,-50.42722 -1.1989,-8.06442 14.96294,-19.56205 28.37144,-33.52089 28.98681,-31.12454 z m 1247.98537,1.91084 27.7884,29.79647 28.3713,33.55331 18.9791,24.80885 -0.1662,1.16575 -11.6271,50.42723 -6.2506,19.7888 -0.6799,-0.19453 -7.5462,-0.35663 -12.8255,-11.98335 -12.5015,-13.6026 -12.4045,-15.25447 -7.9025,-10.78498 -11.7241,-17.29499 -8.5504,-13.4409 7.8703,-27.56163 8.6796,-44.40312 z m -201.6443,4.66381 25.586,15.09257 16.129,10.59065 -11.789,21.89396 -42.6218,16.97098 -2.17,-6.50981 -11.109,-30.57378 -2.8176,-7.12521 17.068,-13.08446 z m -844.69679,0.0324 7.3843,4.56676 18.3638,14.15336 1.9108,1.78115 -1.0364,2.65592 -11.0765,30.57378 -3.5951,10.75235 -43.78772,-17.39185 -11.17371,-20.82507 13.05216,-8.55033 z m 1144.08629,7.4168 7.5139,4.27517 v 90.91142 l -8.3236,-12.17748 -5.02,-6.93088 -2.4939,-3.27132 6.5423,-44.62988 z m -1443.05482,0.35664 2.04046,32.09596 5.53834,37.73142 -6.54239,8.55033 -9.71612,14.18558 v -88.06138 l 4.72847,-2.68814 z m 1103.99072,22.60643 0.5175,1.32806 11.1088,30.6064 2.4289,7.31933 -20.6631,8.22653 -17.2948,3.17385 -9.0361,-0.45268 -5.4735,-1.39291 8.356,-13.86177 8.2588,-11.40037 14.7687,-16.93856 z m -766.44879,0.42107 3.7571,3.5627 14.8657,17.0034 13.214,18.2342 5.9271,9.84577 -4.4696,1.13414 -9.0361,0.45269 -17.2624,-3.17385 -20.728,-8.25875 3.8864,-11.5947 z m 859.27119,2.36433 4.599,3.01195 0.292,0.19452 -8.4209,3.36838 z m -952.28784,0.61519 2.94719,5.47355 -7.02811,-2.78541 z m -17.03588,11.91851 46.50839,36.75999 17.87794,22.31484 4.5666,4.76088 -1.0695,3.49786 -8.4207,28.5981 -3.012,10.65549 -17.39213,10.55844 -30.41173,21.14888 -29.79652,23.70754 -7.87017,7.19025 -14.70376,-20.8577 -19.49737,-33.16485 -17.26243,-35.98228 -3.5627,-9.4249 29.8937,-27.43195 31.57779,-25.8129 z m 986.91012,0 18.9467,13.86197 31.5776,25.8127 30.9624,28.40378 2.1376,2.23485 -1.7165,4.56655 -17.295,36.0149 -19.4646,33.16466 -17.392,24.64695 -10.2347,-9.36006 -29.7964,-23.70754 -30.4117,-21.14908 -13.6999,-8.32339 -1.6517,-5.92703 -8.4206,-28.63053 -2.7208,-8.67981 1.1658,-1.19898 17.3596,-21.69964 z m -1096.15296,41.74762 0.80922,2.85004 8.35603,21.95861 -23.28663,24.06397 -16.25852,18.97908 -1.58693,-0.32341 -18.91435,-1.32826 10.20214,-11.07657 12.37194,-15.25447 12.33961,-16.77665 5.02014,-6.93089 z m 1204.90996,1.42431 0.4859,0.77771 12.3396,18.26662 12.3395,16.74423 12.372,15.25447 12.534,13.6028 0.5505,0.51753 -13.6352,0.93839 -6.6395,1.32827 -19.3677,-22.63865 -20.1125,-20.76043 z m -1312.69535,7.02815 11.01184,47.67424 4.50177,14.28284 -3.72454,0.6152 -23.35131,6.70413 -7.57864,2.4616 v -43.75551 z m 1420.86945,2.13738 19.2381,28.11239 v 40.25764 l -3.0768,-1.23039 -23.3513,-6.70434 -7.9674,-1.35967 5.6677,-17.81313 z m -297.0575,22.02365 0.4857,1.52218 5.7973,19.72417 -18.1043,-9.58681 4.1455,-3.65976 z m -826.81909,0.97163 4.2105,4.40485 7.9348,6.93068 -18.3313,9.68407 z m -174.6979,5.31163 1.06956,2.81763 17.29475,35.98248 15.67566,26.75211 -11.4329,-9.29522 -15.48113,-9.91061 -16.67953,-7.96715 -17.87779,-5.95946 -2.26715,-0.45268 9.19808,-10.78498 z m 1175.76129,0.48572 17.4893,18.03987 12.5661,14.70391 -5.6352,1.81358 -17.878,5.95945 -16.6796,7.99958 -15.481,9.91061 -9.5868,7.77303 18.8818,-32.16081 z m -197.1099,14.57443 21.2783,11.23847 13.4733,8.1939 4.8582,17.19773 14.7039,53.21283 7.1252,25.29456 7.4815,25.13246 -14.8983,13.05224 -2.4938,1.84599 -10.0725,-3.5627 -7.6109,-4.92278 -4.826,-4.72866 -4.016,-5.24659 -3.6919,-5.79736 -7.7409,-13.01982 -4.5987,-7.12521 -5.6031,-7.4168 -7.4492,-7.61112 -10.4287,-7.35196 -11.951,-4.53413 8.0969,-9.87819 5.3763,-11.56228 2.6233,-10.29927 1.1657,-9.26279 0.3881,-8.45307 0.1945,-15.12478 0.3234,-6.89867 0.7777,-6.05631 1.6841,-1.2304 z m -780.76399,0.64843 2.0403,1.78135 5.344,3.95115 0.7777,5.99168 0.3233,6.89867 0.1658,15.12478 0.4212,8.45327 1.1657,9.26259 2.6235,10.29947 5.3764,11.56207 8.0643,9.8784 -11.9186,4.53413 -10.4611,7.35196 -7.4167,7.61112 -5.6353,7.4166 -4.5668,7.12521 -7.7405,13.01982 -3.7246,5.79735 -3.9837,5.2468 -4.858,4.72846 -7.5788,4.92298 -10.16963,3.59492 -6.05638,-4.53433 -11.36803,-9.94283 1.78127,-5.5706 7.19011,-24.32294 7.15761,-25.26234 14.67145,-53.21243 3.5627,-12.53391 9.7486,-5.92683 z m -264.6054,25.3594 10.81735,0.77771 -1.78129,2.07274 -20.82513,27.72374 -4.56662,-11.23847 -4.24276,-13.34363 6.80126,-5.27922 z m 1314.34699,0 8.7122,0.45269 7.352,5.70029 -2.8178,8.90656 -6.7688,16.64717 -22.9305,-30.54136 z m -1287.4978,2.75278 11.95091,2.33211 10.23446,3.43302 16.67955,7.99958 15.48114,9.87819 14.31522,11.65954 13.21417,13.27879 8.35584,10.16979 -5.73253,5.21417 -27.85324,29.24612 -26.49282,32.12818 -11.23853,15.83745 -0.48585,-0.67984 -22.93028,-38.1849 -20.66313,-41.32634 -7.6758,-18.84939 23.15694,-30.83295 z m 1255.5961,0.97183 6.5747,7.70819 25.9748,34.58978 -5.4411,13.44069 -20.6632,41.29412 -22.9628,38.21692 -3.4979,4.95541 -8.1939,-11.56228 -5.0201,-6.93089 -26.5253,-32.12838 -27.8532,-29.24572 -3.2387,-2.94751 5.8622,-7.12521 13.2139,-13.27879 14.3153,-11.65934 15.5136,-9.91082 16.6472,-7.96715 17.8777,-5.99167 z m -184.9646,0.22716 30.4765,21.1813 29.7965,23.73996 9.9754,9.10089 -18.558,22.25019 -23.4486,23.93449 -5.7325,-19.33551 -7.1254,-25.26215 z m 255.0188,0 5.603,0.97163 17.8455,5.11731 8.5826,3.46544 v 2.36433 l -2.3966,-0.3234 -14.0238,-4.14548 -13.6677,-6.25085 z m -1140.07038,0.38804 -14.05603,50.94556 -7.15763,25.26215 -7.15761,24.22567 -2.72066,-2.36413 -24.32286,-24.84127 -16.03183,-19.23805 7.44912,-6.83382 29.79637,-23.70754 30.44424,-21.14888 z m -255.9255,0.55056 -4.72862,2.91488 -12.2101,5.57061 -7.38429,2.17 -6.89844,0.9386 v -1.81378 l 7.57864,-3.04436 23.35131,-6.70434 z m 1385.95578,9.10088 3.8216,2.36413 13.6675,6.25085 8.1617,2.65571 14.0238,4.14548 2.3966,0.32341 v 106.78148 l -4.5019,-9.52176 -24.0638,-43.04304 -25.5537,-39.12412 10.3639,-25.48889 z m -1374.94409,0.32341 2.94735,9.29501 8.19402,20.20967 -23.38379,35.853 -24.09619,43.01043 -5.89453,12.50168 v -104.83822 l 6.89844,-0.9386 14.05621,-4.14548 13.66752,-6.25085 z m 17.26259,44.59745 3.72457,9.10089 20.6631,41.32634 22.93028,38.18469 5.57068,7.8703 -5.57068,7.87009 -22.93028,38.1847 -20.6631,41.32634 -3.72457,9.10089 -16.32336,-25.0354 -24.09617,-43.01063 -13.4085,-28.43599 13.4085,-28.40378 24.09617,-43.04304 z m 1339.5119,0.97163 18.4934,28.33914 24.0637,43.04284 11.4004,24.12861 -11.4004,24.16103 -24.0637,43.01063 -18.4934,28.33893 -1.5538,-3.85409 -20.6629,-41.29392 -22.9629,-38.21733 -8.5826,-12.14525 8.5826,-12.14526 22.9629,-38.1849 20.6629,-41.32614 z m -141.0148,12.27494 3.4008,3.14163 27.853,29.21351 26.5254,32.1606 11.8214,16.67959 -103.6398,-15.15741 1.3282,-3.43302 8.8093,-20.11261 9.4898,-18.88181 10.2668,-17.6188 z m -1057.93564,0.45269 6.73658,9.81355 10.29914,17.65101 9.4896,18.88182 8.42069,19.27066 -105.12958,15.38396 10.88218,-15.41638 25.61843,-31.02706 27.85325,-29.24613 z m 1028.65724,22.18535 -7.8052,15.57848 -8.8093,20.11261 -1.8138,4.72845 -0.9386,-2.72056 -4.4046,-13.79692 2.7527,-2.42917 z m -998.69888,0.55055 17.91029,18.26662 6.28306,5.50576 -2.88234,9.10089 -2.49384,7.22227 -0.29185,-0.67984 -8.77704,-20.11261 -9.4896,-18.88181 z m 963.55858,33.29434 1.6841,5.34386 -6.6717,-1.00324 z m -927.99719,0.45268 4.59911,3.98378 -6.18604,0.90699 0.51736,-1.48915 z m -135.70332,28.07997 105.12958,15.41637 -8.42069,19.23805 -9.4896,18.91444 -10.29914,17.6186 -6.73658,9.81355 -5.82971,-5.31164 -27.85325,-29.24592 -25.61843,-31.02708 z m 1197.71981,0.29179 -11.8214,16.6796 -26.5254,32.12818 -27.853,29.24592 -3.4008,3.10921 -4.1455,-5.99167 -10.2668,-17.6188 -9.4896,-18.88182 -8.8095,-20.08039 -1.3282,-3.43302 z m -1207.11223,9.39248 11.23853,15.83725 26.49282,32.1608 27.85324,29.2135 5.73253,5.21438 -8.35584,10.16958 -13.21417,13.31121 -14.31522,11.62722 -15.48114,9.91045 -16.67955,7.967335 -10.23446,3.43306 -11.95091,2.36431 -9.68395,-11.335545 -23.15694,-30.83287 7.6758,-18.8496 20.66313,-41.29391 22.93028,-38.21713 z m 1216.66643,0 3.4979,4.955 22.9628,38.21733 20.6632,41.32634 5.4411,13.40827 -25.9748,34.589935 -6.5747,7.70815 -7.4168,-1.45759 -17.8777,-5.99171 -16.6472,-7.967155 -15.5136,-9.87829 -14.3153,-11.65948 -13.2139,-13.31121 -5.8622,-7.12521 3.2387,-2.94731 27.8532,-29.2135 26.5253,-32.16061 5.0201,-6.93088 z m 122.1008,7.4166 v 106.7813 l -2.3966,0.32337 -14.0238,4.14558 -8.1617,2.65567 -13.6675,6.25073 -3.8216,2.36431 -1.6843,-5.34384 -10.3639,-25.45659 25.5537,-39.15653 24.0638,-43.01043 z m -1210.41571,1.10111 2.49384,7.18985 2.88234,9.10089 -6.28306,5.50596 -17.91029,18.26642 0.25868,-0.42128 9.4896,-18.88181 8.77704,-20.08019 z m 961.45341,0.19453 1.8138,4.76088 8.8093,20.07999 7.8052,15.57848 -21.0194,-21.4729 -2.7527,-2.39675 4.4046,-13.82934 z m -1210.28613,0.0324 5.89453,12.50149 24.09619,43.01063 23.38379,35.85279 -8.19402,20.20965 -2.94735,9.29526 -7.61097,-4.69614 -13.66752,-6.25072 -14.05621,-4.14558 -6.89844,-0.93856 z m 263.99001,1.23039 6.18604,0.87376 -4.59911,4.0162 -1.0679,-3.43302 z m 931.26822,0 -1.6841,5.31144 -4.9876,-4.34001 z m -907.69025,4.76088 10.16966,3.62735 7.5788,4.89056 4.8579,4.76088 3.9838,5.21437 3.7246,5.79736 7.7405,13.05224 4.5667,7.09279 5.6354,7.4168 7.4166,7.64334 10.4612,7.31954 11.9186,4.53433 -8.0644,9.87819 -5.3763,11.56228 -2.6235,10.33161 -1.1658,9.23041 -0.4212,8.453025 -0.1657,15.12494 -0.3234,6.898608 -0.7777,5.991717 -5.344,3.951236 -2.0403,1.781272 -25.0679,-13.246491 -9.7486,-5.926872 -3.5627,-12.53395 -14.67142,-53.212485 -7.15761,-25.26234 -7.19012,-24.32294 -1.78129,-5.5706 11.36806,-9.94283 z m 884.04755,0.0324 2.4938,1.8462 14.8983,13.05204 -7.4815,25.16508 -7.1252,25.26215 -14.7039,53.212655 -4.8582,17.19773 -13.4733,8.194023 -21.2783,11.23837 -5.8298,-5.08483 -1.6841,-1.230412 -0.7777,-6.056378 -0.3234,-6.898583 -0.1945,-15.12495 -0.3881,-8.453015 -1.1657,-9.23042 -2.6233,-10.33164 -5.3763,-11.56228 -8.0968,-9.87819 11.9509,-4.53434 10.4287,-7.31953 7.4493,-7.64335 5.6028,-7.4168 4.599,-7.09278 7.7408,-13.05225 3.6919,-5.79735 4.016,-5.21437 4.826,-4.76088 7.6109,-4.89057 z m -912.83985,24.38778 7.15761,24.22588 7.15763,25.29456 14.05603,50.912955 -3.75689,-2.29947 -30.44424,-21.148975 -29.79637,-23.70768 -7.44912,-6.83362 16.03183,-19.23825 24.32286,-24.84107 z m 941.66465,0.6152 23.4486,23.93428 18.558,22.2502 -9.9754,9.10089 -29.7965,23.74004 -30.4765,21.181315 15.3839,-55.609075 7.1254,-25.26234 z m -993.29038,56.67807 7.87016,7.19005 29.79654,23.7075 30.41173,21.148975 17.39206,10.55833 3.012,10.655494 8.4207,28.598123 1.0696,3.497883 -4.5666,4.76096 -17.87797,22.347237 -46.50841,36.759804 -22.57391,-16.550048 -31.57781,-25.812781 -29.8937,-27.432046 3.56273,-9.424758 17.26241,-35.982578 19.49739,-33.164735 z m 1043.68548,0.48571 17.392,24.64697 19.4646,33.164729 17.295,36.01476 1.7165,4.566614 -2.1376,2.234807 -30.9624,28.403777 -31.5776,25.81278 -18.9467,13.861868 -50.654,-40.031 -17.3596,-21.699539 -1.1658,-1.198902 2.7208,-8.679876 8.4207,-28.598123 1.6516,-5.959356 13.6999,-8.323525 30.4117,-21.148974 29.7964,-23.70776 z m 144.707,15.28689 6.7688,16.64719 2.8178,8.906555 -7.352,5.70019 -8.7122,0.45271 -16.4529,-1.16576 z m -1332.61366,1.13422 20.82513,27.723735 1.78129,2.0728 -10.81735,0.77771 -13.79719,-0.71305 -6.80126,-5.27915 4.24276,-13.343515 z m 1219.06316,4.95531 9.5868,7.80533 15.481,9.878285 16.6796,7.99966 17.878,5.95921 5.6352,1.813775 -12.5661,14.703913 -17.4893,18.039791 -16.3234,-34.039279 z m -1106.51679,1.13424 -15.67564,26.752005 -17.29475,35.982418 -1.06956,2.817845 -20.50112,-21.181506 -9.19807,-10.752657 2.26714,-0.485875 17.87777,-5.959375 16.67955,-7.96732 15.48114,-9.878125 z m -175.47514,7.96734 6.89844,0.93855 7.38429,2.16997 12.2101,5.570675 4.72862,2.91485 H 2.76197 l -23.35129,-6.70426 -7.57864,-3.076845 z m 1459.24843,0.64836 v 2.36431 l -8.5826,3.465375 -17.8455,5.11734 -5.603,0.97171 1.943,-1.19891 13.6677,-6.25088 14.0238,-4.145575 z m -1459.24843,15.643135 7.57864,2.4615 23.35131,6.704255 3.72454,0.615196 -4.50177,14.282901 -11.01184,47.674304 -19.14088,-27.982744 z m 1459.24843,1.23042 v 40.257521 l -19.2381,28.112409 -9.4897,-41.261575 -5.6677,-17.813104 7.9674,-1.359754 23.3513,-6.704257 z m -97.0652,10.137295 6.6395,1.295093 13.6352,0.938559 -0.5505,0.517364 -12.5342,13.602842 -12.3718,15.254469 -12.3395,16.776715 -12.3396,18.234137 -0.4859,0.777708 -9.1333,-24.031508 20.1126,-20.760291 z m -1313.73169,0.713048 4.89046,0.842389 1.9433,0.165754 10.29915,9.586764 12.53394,13.63502 12.37211,15.222129 12.3071,16.776714 12.33977,18.234137 6.89844,10.8175 L 87.68212,30.627181 79.0024,75.03045 77.83667,85.815467 74.6628,82.673773 45.67598,51.581827 17.30455,18.028561 2.34161,-1.533496 3.54051,-9.597994 15.16757,-60.025138 Z m 48.09534,0.258682 16.25852,18.979019 23.2866,24.031508 -8.356,21.991047 -0.80922,2.850165 -10.94686,-16.161336 -5.02015,-6.930944 -12.33961,-16.776715 -12.37194,-15.222108 -10.20214,-11.108867 18.91436,-1.328244 z m 1314.54135,0.517364 6.2509,19.756403 11.6269,50.427164 0.1662,1.165732 -18.9789,24.84105 -28.3716,33.553429 -27.7884,29.796538 -0.4859,-4.72864 -8.6796,-44.403107 -7.8701,-27.529371 8.5502,-13.473177 11.7241,-17.29493 7.9026,-10.784997 12.4044,-15.222129 12.5017,-13.635182 12.8255,-11.950912 7.546,-0.388023 z m -1101.14049,12.728296 18.3313,9.683784 -7.9348,6.930924 -4.2105,4.404771 z m 839.28809,0.744557 -5.7973,19.7239 -0.4859,1.522266 -7.6758,-8.006646 -4.1455,-3.659727 z m 310.0126,38.703081 v 90.911527 l -7.5139,4.275106 -1.7813,-28.17709 -6.5423,-44.629793 2.4939,-3.271218 5.02,-6.930924 z m -147.201,0.648367 7.6759,20.209776 2.3642,8.194001 -2.2347,3.4978832 -12.7282,20.9546568 -13.0845,22.153053 -27.7559,47.674304 -7.9352,13.473181 -25.6508,-3.49788 -1.8784,-0.45271 -7.8054,-24.452522 -11.2385,-26.493001 6.4452,-4.242765 7.3519,-5.408659 34.0717,13.537837 -25.2624,-19.950586 15.805,-11.594722 31.5456,-25.81278 z m -1165.20275,0.323363 27.04335,24.80871 31.54548,25.81278 19.43239,14.218221 -25.22975,19.950586 34.03913,-13.53802 3.72457,2.753023 9.84579,6.445069 -9.58661,22.671248 -9.45726,29.569675 -24.80873,3.40072 -3.36819,0.16576 -5.66787,-9.61911 -27.75606,-47.674307 -13.08448,-22.153053 -12.7283,-20.922297 -3.88641,-6.15356 4.01591,-14.120875 z m -146.84468,1.295073 9.71612,14.185556 6.54239,8.550373 -5.53834,37.731351 -2.04046,32.128346 -3.95124,-1.846115 -4.72847,-2.688159 z m 370.47984,19.302888 9.0361,0.452684 4.4696,1.134242 -5.9271,9.84579 -13.214,18.234137 -14.8657,17.003401 -3.7571,3.562544 -9.8458,-27.20536 -3.8864,-11.594722 20.728,-8.258864 z m 718.28869,0 17.2948,3.173852 20.6632,8.2265237 -2.429,7.3519563 -11.1088,30.573741 -0.5173,1.328243 -7.0282,-6.606912 -14.7687,-16.93872 -8.2588,-11.400376 -8.356,-13.861707 5.4736,-1.392904 z m -692.24909,6.930924 1.7813,0.90705 13.214,7.416799 7.514,3.854073 8.5827,3.627407 10.2668,2.882505 12.6958,1.134243 12.5988,-2.040461 -2.0728,12.598792 1.1342,12.695793 2.8823,10.266802 3.6274,8.550373 3.8543,7.546302 7.4166,13.181648 0.713,1.359753 -14.4772,8.712217 -18.2341,13.213991 -17.0034,14.86594 -7.4815,7.93483 -18.1046,-7.18995 -31.5453,-13.7322 -1.3283,-0.6152 -12.793,-29.407849 -8.1616,-20.630787 6.5099,-6.186043 14.8657,-17.0034 18.2667,-25.165082 z m 665.30269,0.452704 7.6109,12.631112 13.2143,18.234158 14.8657,17.00338 9.7162,9.165589 -6.3479,15.999493 -13.7322,31.545311 -1.749,3.65973 -3.6597,1.74893 -31.513,13.73237 -14.5096,5.73252 -11.10879,-11.75656 -17.0034,-14.86594 -18.2342,-13.213993 -10.6555,-6.412729 0.5173,-1.03641 7.4168,-13.181648 3.8541,-7.546303 3.6274,-8.550373 2.8826,-10.266802 1.1342,-12.695793 -2.0406,-12.598792 12.5988,2.040461 12.696,-1.134242 10.26669,-2.882505 8.5827,-3.627387 7.5139,-3.854073 13.2141,-7.4168 z m 369.9941,8.582693 4.9552,33.780115 1.8787,29.990723 -23.9345,11.011684 -29.6344,10.558331 -28.6305,7.351967 -0.5506,-5.37634 5.0525,-4.987656 28.9545,-31.091955 28.4038,-33.553429 z m -1112.21709,0.583707 3.5951,10.752677 11.0765,30.573741 1.0364,2.655839 -1.9108,1.813612 -18.3638,14.121037 -7.3843,4.566635 -29.95837,-17.715942 -13.05216,-8.550373 11.17371,-20.825133 z m 820.05009,0 42.6218,16.93872 11.789,21.893885 -16.129,10.590651 -25.586,15.092605 -11.7244,-7.254773 -17.068,-13.084485 2.8176,-7.125291 11.109,-30.57374 z m -1111.8285,2.040461 9.4896,12.404446 28.40378,33.553429 28.95431,31.091935 9.4571,9.295102 -0.29185,2.81766 L 47.94246,98.861695 12.73726,86.327746 -6.4036,77.518366 -4.26614,43.673408 Z m 1299.2546,6.477572 4.5665,15.869827 8.6798,44.403107 1.3599,12.663452 -16.1288,15.837514 -4.6316,0.74454 -31.1241,1.97561 -16.1939,-0.58368 5.8622,-9.94296 27.7559,-47.674325 13.0845,-22.153053 z m -1195.16141,1.522265 8.42085,13.894189 13.08448,22.153053 27.75608,47.674333 3.46538,5.86219 -10.68783,0.38802 -31.12428,-1.97561 -11.14137,-1.74894 -13.34365,-13.149167 2.00812,-18.622829 8.67988,-44.403107 z m 1070.04861,14.703913 8.4207,3.368381 -0.2918,0.194123 -4.5992,3.012008 z m -945.81035,0.485876 -2.94719,5.473501 -4.08092,-2.688179 z m 2.81768,25.81278 10.59083,6.930924 24.77635,14.671411 -21.60249,10.363985 -18.10446,6.445236 -10.75267,2.62334 6.96326,-21.796709 z m 941.08187,0.421174 9.7809,23.09228 5.2144,16.355712 -8.1939,-2.00814 -23.9667,-8.550201 -16.6472,-7.999675 19.8212,-11.724387 z m -81.7783,6.12122 14.1858,10.914521 6.0887,3.757072 -24.9381,13.246339 -8.9714,4.33992 9.4247,-21.699521 z m -777.55759,0.03323 5.8622,14.801096 6.9632,15.966996 -11.5299,-5.538188 -20.3394,-10.784997 1.4908,-0.938559 z m -340.71584,10.072618 7.74048,3.562564 -0.58368,9.327575 v 8.550215 l 1.13422,58.42698 1.06792,10.23449 -9.35994,-12.30729 z m 1459.24843,0.938579 v 74.490985 l -3.6598,5.08481 -4.3076,5.66785 1.1011,-10.62299 1.1012,-58.394638 -0.8094,-13.149328 6.3479,-2.947185 z m -1438.42328,8.647374 11.91857,5.473502 35.23754,12.533939 8.12918,2.65568 26.26613,6.73658 -0.29185,2.55866 -1.06957,49.42325 v 8.58272 l 3.33604,51.65788 0.2272,1.4576 L 54.12818,225.85352 6.84241,205.64376 -3.06804,193.10981 -6.69545,158.03428 -7.82967,99.639644 Z m 1418.76418,0.421195 0.5836,9.457076 -0.9717,51.8199 -3.6922,35.62623 -1.0032,1.32825 -13.8942,17.58644 -47.2532,20.17725 -18.1047,5.92687 1.0697,-6.9956 3.3034,-51.69038 -1.0679,-49.42328 -0.6484,-5.92685 29.7316,-7.64349 35.2376,-12.53379 z m -1131.45519,2.720499 25.7156,13.667517 28.2094,13.538 13.5703,28.20943 14.7688,27.78842 -1.6516,2.7205 -10.6232,22.05587 -8.5502,23.96667 -4.9229,20.20993 -28.9869,6.41257 -12.5986,1.6201 -17.7483,-11.07653 -27.82085,-18.2018 -12.66347,-8.67971 -4.50194,-6.60708 -18.16931,-27.78841 -11.10885,-17.74827 1.6201,-12.59879 6.83376,-30.89761 17.39191,-4.24276 23.96683,-8.55036 22.08822,-10.590664 z m 843.95179,0.193921 0.5821,0.356534 22.0883,10.590642 23.9667,8.55021 8.1291,2.65582 12.9876,3.17404 0.4211,1.26358 7.7406,34.97835 0.6798,5.50584 -10.1696,16.29103 -18.1695,27.78839 -9.0685,13.18167 -13.1493,9.03607 -27.8206,18.16929 -12.8255,8.03218 -9.3599,-1.1989 -33.3916,-7.35196 -3.6597,-14.96294 -8.5504,-23.99917 -10.5906,-22.0557 -4.1133,-6.67192 17.2302,-32.38738 10.7201,-22.34739 26.0072,-12.46911 z m -178.94059,6.153716 8.0644,4.89048 18.2664,13.214 17.0034,14.86591 5.6031,5.92688 -2.9796,1.1989 -30.5736,11.07637 -5.344,1.78143 -8.5828,-21.63484 -3.2062,-17.26259 0.4543,-9.03607 z m -486.9128,0.4212 1.1989,4.59895 0.4212,9.03607 -3.174,17.26257 -8.0968,20.37162 -9.4895,-3.17388 -29.926,-10.8175 1.9756,-2.0728 17.0357,-14.89809 18.2342,-13.21418 z m 145.8732,18.52548 4.5017,11.91859 7.3519,10.42881 7.6111,7.44914 7.4491,5.60301 7.093,4.59895 13.0196,7.74067 5.7973,3.69223 5.2468,4.01591 4.7609,4.82581 4.8906,7.61096 3.433,9.71629 -3.336,4.43711 -11.3031,12.95496 -2.9797,-0.93856 -24.3227,-7.22245 -25.2624,-7.12527 -53.2126,-14.70375 -16.1936,-4.56662 -4.178,-6.86626 -14.5419,-27.49689 0.7131,-0.80922 4.4371,-6.02406 1.0049,-0.25868 6.5099,-0.84239 6.8984,-0.35651 15.1573,-0.16576 8.4208,-0.42119 9.2628,-1.13424 10.3316,-2.65566 11.5623,-5.37634 z m 195.0694,0 9.8781,8.03218 11.5623,5.37634 10.3315,2.65565 9.2306,1.13425 8.4531,0.42119 15.1574,0.16576 6.8662,0.35653 5.5382,0.71303 2.7852,3.75707 3.3035,3.78923 -12.1128,22.89793 -7.9349,13.08449 -9.2953,2.6235 -53.2126,14.70375 -25.2621,7.12529 -24.323,7.22243 -7.5463,2.39665 -14.8982,-17.06822 -0.2271,-0.29185 3.9835,-11.2062 4.8906,-7.61098 4.7609,-4.8258 5.2144,-4.01592 5.7973,-3.69223 13.0522,-7.74065 7.0928,-4.59895 7.4168,-5.60303 7.6434,-7.44912 7.3195,-10.42882 z m -711.48724,1.84612 9.61911,1.55377 28.11224,25.42425 29.40785,24.64671 29.24582,22.76843 2.2023,1.58692 -0.9717,26.94636 v 8.58271 l 1.23041,23.54563 -40.77588,-5.82969 -45.08333,-10.52583 -9.55426,-3.14169 -1.58693,-10.49349 -3.33606,-51.6904 1.06958,-49.42326 z m 1228.87653,0.61521 0.8093,7.64347 0.9386,43.04287 -3.174,49.52043 -2.429,16.06416 -5.8622,1.91095 -44.8242,10.46099 -43.4641,6.2184 h -0.6799 l 1.4892,-28.27411 -1.1658,-32.22551 26.5902,-20.72797 29.4077,-24.61452 29.4402,-26.62251 0.4211,-0.4527 z m -109.6962,1.16573 15.9023,2.16999 -11.3033,18.71999 z m -1010.13184,0.58371 -4.92282,22.28256 -10.49365,-17.32725 -1.55376,-2.65584 z m -75.33322,2.39665 24.54971,1.55378 18.68751,-0.67988 3.49788,5.95919 15.90233,26.29866 4.9228,7.90249 -1.71645,13.5055 -24.25833,-18.91418 -29.40769,-24.61454 z m 1159.34066,0.35651 -14.7037,13.31118 -29.4078,24.61454 -19.8859,15.48114 -1.9757,-15.57832 5.862,-9.32758 15.8701,-26.29865 1.1011,-1.87844 24.1935,0.87388 z m -927.31699,3.56257 15.8375,6.8661 16.5824,6.57474 -12.6311,16.4527 -2.5262,4.04842 -9.8783,-18.62267 z m 694.90489,1.68411 -4.4695,9.36008 -12.3396,23.22178 -5.1173,-7.02811 -9.522,-12.3721 13.4733,-5.34384 z m -649.07669,17.06822 1.1011,0.45271 30.5737,11.07652 12.7606,4.24277 -17.6187,44.37076 -0.9717,0.64837 -20.9222,11.20621 -7.2873,-11.10903 -18.8495,-31.934 7.1253,-11.59472 10.3316,-13.37599 z m 604.77059,1.1989 14.2506,18.49317 5.7649,9.35991 -16.2585,27.56173 -9.42469,14.31523 -21.4404,-11.52988 -16.8417,-42.36283 8.6153,-2.88251 30.5736,-11.07636 z m -493.71399,6.5746 9.4894,17.97495 -20.4364,-6.02404 2.8502,-2.72881 z m 381.6211,0.35651 5.4735,6.25089 6.8661,6.57457 -22.9951,6.76894 2.0729,-3.43306 z m -403.4826,22.08837 9.9429,3.10921 28.5982,8.38819 2.7528,0.77771 10.2993,16.97106 21.149,30.44407 23.7399,29.79652 8.0643,8.84172 -26.0393,18.36366 -33.1323,19.46488 -36.0149,17.26259 -2.9148,1.10107 -4.34,-4.17795 -28.3714,-30.96243 -25.8128,-31.54531 -12.5015,-17.06822 38.6706,-48.9374 19.0114,-15.22211 z m 942.79829,0.0995 v 95.57547 l -6.2184,-1.81377 -11.5299,-0.93856 -5.7649,0.55054 10.3639,-54.83194 2.5584,-24.58202 z m -515.99659,1.13424 2.8176,2.68816 22.9628,18.39616 0.1946,0.16576 37.3103,47.15612 -15.2545,20.85764 -25.8451,31.54529 -28.3715,30.96245 -0.3881,0.38802 -6.866,-2.62349 -35.9825,-17.26241 -33.1647,-19.4649 -23.0923,-16.29086 5.1173,-5.603 23.74,-29.79654 5.02,-6.93092 21.1491,-30.44424 6.5422,-10.75252 9.6191,-2.72066 28.5981,-8.38818 z m -943.25184,1.0049 11.98325,15.7403 2.55867,24.9384 9.52192,50.16814 -1.78127,-0.16576 -11.53006,0.93856 -10.75251,3.10919 z m 1231.37043,1.29507 0.8739,6.93076 -10.3641,7.57881 z m -1002.97431,2.85003 0.58369,0.93855 5.73253,8.77704 -6.83377,-4.98764 0.0332,-1.06956 z m 831.51511,5.7325 9.4247,19.65924 8.5504,23.96667 1.4575,5.92687 -18.8494,-6.02405 -21.8615,-9.26274 10.3317,-15.70798 z m -661.41609,0.45437 13.2139,22.37974 8.3884,12.76061 -24.5172,10.39633 -15.6432,4.98765 2.8177,-11.62707 8.5502,-23.99916 z m 178.2928,5.08481 6.0563,1.71645 53.2126,14.70391 25.2624,7.12529 17.7156,5.24682 -1.3283,1.55377 -24.8734,24.32286 -21.1167,17.61876 -10.6555,-11.65939 -21.991,-27.65889 -17.8454,-25.65094 z m 303.3082,1.9433 -0.6798,1.10107 -21.1491,30.44423 -23.7076,29.76402 -7.9025,8.67988 -23.8696,-19.91825 -22.4121,-21.92637 22.0881,-6.54223 25.2623,-7.12529 z m 353.12049,7.35195 0.7777,21.82904 -1.5871,29.76402 -27.4321,1.45759 -25.4241,-0.93856 14.4124,-19.82107 5.9592,-8.64737 14.7364,-10.1373 z m -1005.95408,0.8739 13.70002,9.97529 15.22195,10.526 10.49365,15.2221 11.49756,15.74015 -19.36771,0.71304 -30.80043,-1.6516 -1.52227,-28.79229 z m 1205.68728,6.34789 -11.7242,61.86004 -4.8582,1.1989 -8.1616,2.62334 -13.5704,5.14965 -14.2504,6.99561 -14.9631,8.74453 -8.6474,5.76503 26.1367,-31.02711 19.1734,-23.05994 19.9829,-24.48486 6.672,-8.45319 h 0.1317 l 0.8737,-1.23041 z m -725.80259,0.64836 1.0032,6.86627 -5.4733,-1.74893 z m 44.7918,1.32827 4.599,5.27915 -5.6353,1.78128 z m -724.28015,1.68409 5.89437,7.48164 19.98309,24.5172 19.17337,23.02744 26.13662,31.02727 -8.64737,-5.73252 -14.96294,-8.74472 -14.25054,-6.99561 -13.57036,-5.14965 -9.00372,-2.23481 -10.68784,-56.38652 z m 25.42411,10.23448 21.0518,9.00373 32.64654,10.68783 5.70019,37.60185 4.66379,19.40005 -36.27392,-43.10769 -19.20571,-23.05978 z m 959.70454,0.97173 5.9917,3.20635 -2.9149,4.46946 z m -566.6506,0.87388 -3.2711,8.16168 -3.1092,-4.76096 z m 956.40099,0.80922 -8.5826,10.52582 -19.2058,23.05994 -31.5454,37.47219 4.9878,-20.69547 4.858,-32.03116 28.4362,-9.36008 z m -709.34969,0.0995 9.7163,3.07685 7.4166,2.55849 0.1661,1.23042 -7.3842,2.8825 -20.0804,8.77706 -15.4488,7.77299 18.2667,-17.91029 z m 72.8395,1.42441 3.7568,4.33977 18.2664,17.87797 -15.4161,-7.77299 -20.1126,-8.77706 -1.7816,-0.71303 4.0484,-1.39292 z m 265.09109,5.60303 21.2137,9.00356 8.1617,2.65582 22.5092,7.19013 1.1657,4.89047 3.2711,23.80466 -15.902,9.36007 -47.67449,27.7559 -22.1529,13.08467 -20.9224,12.72829 -0.7446,0.45269 -11.368,-3.2387 -18.2988,-6.96326 23.2218,-25.29475 25.8127,-31.57765 15.6107,-21.31099 20.59849,26.07195 -13.95899,-35.14035 6.186,-8.48553 z m -603.50739,1.32824 5.2143,7.935 4.1779,5.73252 -13.376,33.61828 19.7564,-24.9384 12.8253,17.5216 25.813,31.57781 26.8491,29.24582 -18.5256,7.02811 -9.3599,2.68815 -6.1538,-3.91889 -20.9223,-12.7283 -22.1528,-13.08448 -47.6744,-27.75608 -11.4003,-6.70426 0.033,-0.42119 3.6597,-26.88151 26.914,-8.5827 z m -140.78834,9.55442 10.33164,6.76894 4.2428,2.65582 -3.0769,0.38803 -4.2427,0.16575 z m 460.09604,1.52227 17.554,7.67581 18.8818,9.4896 17.6188,10.2668 11.2385,7.70816 -4.0809,4.4696 -29.2135,27.85308 -32.1608,26.493 -15.1572,10.75266 z m -34.428,1.03639 15.1574,103.57515 -18.7848,-13.27883 -32.1606,-26.52532 -29.2135,-27.85324 -1.1011,-1.1989 8.2587,-5.66769 17.6186,-10.29932 18.882,-9.48942 20.0802,-8.77706 z m 456.30679,0.13273 -5.0525,6.93076 -4.6314,-0.6152 z m -1047.47468,1.13424 7.35197,2.36415 45.08331,10.52599 41.52077,5.92687 0.22717,4.08074 6.18606,43.46406 10.52583,45.05081 0.22717,0.64838 -25.1649,-3.78941 -48.9699,-11.82141 -14.31522,-11.59472 -6.76894,-8.35586 -11.56238,-47.96582 z m 1217.15248,1.35975 -3.4655,22.9626 -11.8214,49.00224 -11.5623,14.28288 -13.1169,10.59067 -42.039,10.1373 -29.8935,4.53428 1.846,-5.66785 10.5582,-45.05099 6.0889,-42.881 1.4892,-0.19413 43.4639,-6.18606 45.0509,-10.52599 z m -240.6063,7.06045 22.1205,4.89046 -19.821,11.95091 z m -735.77799,0.84237 -2.2023,16.03183 -18.8495,-11.36804 z m 778.62649,7.44914 13.4731,1.71645 -17.2623,22.08821 -24.6146,29.44016 -11.4328,12.66364 1.2951,-20.76047 -0.7445,-21.27851 3.6598,-2.13762 26.2662,-15.90217 z m -820.92439,0.42119 4.4694,2.78534 26.2986,15.86983 8.5179,5.01997 -0.6152,16.74439 v 8.5827 l 1.2304,19.27054 -16.388,-18.10463 -24.6144,-29.40785 -14.6392,-18.78467 z m -90.94391,2.591 29.95839,1.55375 29.2135,-1.03639 22.50922,28.85713 24.6469,29.40785 26.6225,29.47251 0.4212,0.42119 1.5869,10.04014 -1.7489,0.19392 -49.4556,1.0679 -51.6581,-3.30336 -13.14914,-2.00814 -2.39682,-7.25477 -10.52583,-45.08333 z m 1002.3264,0.19392 -5.3762,37.86087 -10.5585,45.05099 -4.0158,12.27476 -8.3884,1.29509 -51.6904,3.30338 -49.4232,-1.06792 -5.506,-0.6152 1.9435,-12.2101 22.3148,-24.6467 24.6143,-29.40785 22.7684,-29.24582 1.8462,-2.49383 35.2698,1.26358 z m -1208.89346,14.31524 12.24242,1.16573 9.55426,2.36431 8.77706,3.30356 14.25038,6.99558 14.96294,8.77706 15.70798,10.39633 16.51755,12.01573 17.39207,13.47318 4.17811,3.36838 3.36819,4.1456 13.47318,17.39191 11.98342,16.55005 10.42866,15.70796 8.7447,14.96294 6.99561,14.25056 5.14967,13.57034 3.20635,12.89014 0.77771,8.25887 -0.58369,6.96326 -3.14169,10.81734 -1.03641,1.9433 H -28.16796 V 290.8331 l 10.75252,-3.10921 z m 1419.21756,0 11.5299,0.93856 3.8218,1.10107 2.3966,1.29507 v 195.97643 h -195.5553 l -2.4616,-8.48553 -0.9384,-11.52989 1.1657,-12.24242 3.2063,-12.89033 5.1171,-13.57034 6.9957,-14.25039 8.7447,-14.99543 10.4287,-15.70782 7.0282,-9.6191 13.4083,-17.35975 3.3683,-4.14559 4.1782,-3.36821 17.392,-13.50552 16.5175,-11.98342 15.708,-10.4288 14.9628,-8.74456 14.2507,-6.99577 13.6026,-5.14949 12.8901,-3.17403 z m -618.43829,6.86608 9.0038,7.4168 13.3112,13.21401 11.6596,14.31522 9.878,15.4813 7.9997,16.67955 5.9593,17.87778 1.0032,5.08481 -9.8782,8.48553 -32.4522,24.35536 -15.9993,-6.47741 -41.3263,-20.66329 -38.1849,-22.96259 -2.3642,-1.65161 13.2464,-9.36008 32.1284,-26.52534 29.2457,-27.85306 z m -187.7175,0.38804 3.9836,4.37227 29.2459,27.85324 32.1607,26.52533 16.9385,12.01575 -6.0563,4.30743 -38.2171,22.93027 -41.3266,20.66329 -11.4003,4.63146 -37.0511,-27.78856 -5.8297,-5.01999 2.008,-10.16964 5.9592,-17.87795 7.9998,-16.67955 7.6758,-12.04807 8.8094,-10.84984 13.311,-13.21401 z m 453.03549,6.80126 0.4211,12.33961 -1.7489,28.04758 -1.7814,11.14135 -15.1572,15.41632 -15.4163,-1.68411 -44.37089,-8.67988 -12.2424,-3.46538 11.7566,-7.15761 22.15299,-13.08449 47.7066,-27.75607 z m -716.24819,0.22718 3.7894,2.23464 47.7066,27.75606 22.1531,13.08448 17.3272,10.52599 -9.6514,2.75284 -44.4031,8.67988 -20.4366,2.20231 -13.5704,-13.79703 -1.4244,-9.00373 -1.9756,-31.09195 z m 485.7145,7.28711 27.8206,16.3557 36.0149,17.26241 4.3724,1.68427 -20.1126,19.49722 -12.1779,10.39632 -5.6676,-17.06824 -7.9998,-16.67953 -9.8782,-15.51348 -5.0525,-6.93092 z m -260.0713,2.65584 -7.3194,9.00356 -9.8783,15.51364 -7.9997,16.64721 -5.9592,17.87779 -0.8424,4.21042 -16.0966,-13.76468 -16.1937,-15.67548 0.4527,-0.19393 36.0149,-17.26256 z m 342.4324,38.02272 20.3069,7.70831 4.6314,1.52226 -3.9836,2.52616 -18.2342,12.3396 -16.7766,12.30726 -15.2221,12.40429 -12.0157,11.04418 -1.1011,-15.44879 -0.874,-4.40477 17.1655,-14.67144 z m -420.8746,1.16573 22.2177,21.50517 21.2462,18.16932 -1.3598,19.49737 v 1.65161 l -3.1092,-3.30354 -13.6352,-12.53395 -15.2221,-12.3721 -16.7765,-12.33961 -16.8092,-11.36787 z m 463.4641,13.21399 27.5295,7.87017 44.37069,8.67988 3.1092,0.35651 -0.9386,0.93856 -31.09189,28.95447 -33.5536,28.40378 -21.9586,16.77671 -4.437,-0.64836 -50.4273,-11.62707 -17.6836,-5.603 0.4213,-2.49383 0.2918,-5.9592 7.0281,-7.48164 13.6026,-12.53379 15.2547,-12.40444 16.7766,-12.30727 18.234,-12.3396 z m -504.5638,0.80921 8.0645,5.11718 18.2341,12.3721 16.7767,12.3071 15.2545,12.37211 13.6027,12.53395 11.9834,12.82545 0.3565,6.93079 -14.1209,4.43711 -50.4273,11.62706 -8.3559,1.23041 -26.2014,-20.01543 -33.5535,-28.40377 -28.7276,-26.71967 7.935,-0.8739 44.4031,-8.67988 z m -296.53941,4.27511 25.58609,6.15372 29.92588,4.56662 10.23448,31.15661 8.61504,20.17744 -13.21399,-10.78502 -23.05994,-19.20568 z m 1093.3675,1.68411 -39.2211,33.03523 -23.0275,19.17337 -10.0726,8.19402 10.4936,-24.5172 8.5502,-26.13665 34.687,-5.27916 z m -545.37219,3.10919 6.1862,4.37245 38.2171,22.9626 41.2939,20.66329 10.8498,4.40461 -31.0594,20.27459 -43.0107,24.06385 -21.5377,10.16964 -27.173,-12.82548 -43.0104,-24.06383 -26.0395,-17.0034 5.8296,-2.36431 41.2941,-20.69546 38.2172,-22.93044 z m -477.13155,8.22652 8.38819,1.26357 51.65806,3.33588 49.4556,-1.0679 4.1456,-0.45271 8.194,31.934 12.5663,35.20504 6.4452,14.08855 -4.6963,0.29186 -58.4268,-1.13425 -35.6262,-3.65972 -1.2951,-1.00324 -14.47706,-11.43272 -18.26664,-42.81618 z m 822.57604,0.64837 4.437,0.48586 -6.5098,25.29458 -12.5341,35.23754 -9.8457,21.37567 -31.57769,-1.97562 -29.6992,-4.37227 10.9793,-8.38837 33.52109,-28.40377 31.1243,-28.95431 z m 131.3311,0.0663 -6.4127,19.56206 -20.2097,47.25313 -16.1939,12.82546 -30.1851,3.10919 -58.3944,1.13424 -9.6514,-0.61519 8.2912,-18.03982 12.5339,-35.20519 7.2222,-28.11225 8.259,0.90705 49.4232,1.0679 51.6904,-3.33588 z m -822.83529,0.48588 6.9633,7.09293 31.1244,28.98681 33.521,28.37128 15.2221,11.62722 -25.7805,3.78925 -36.5329,2.29947 -7.9997,-17.42441 -12.5664,-35.2052 -7.4815,-29.14866 z m -204.36477,1.81377 32.35504,27.27021 23.05994,19.17336 24.48486,19.98309 8.45319,6.67176 0.0663,0.16575 h 0.16575 l 0.97173,0.77771 -57.97346,-10.97935 -1.65161,-6.63941 -5.14965,-13.57036 -6.99561,-14.25038 -8.74454,-14.99544 z m 1098.09616,1.78127 -5.02,7.54631 -8.7447,14.96294 -6.9957,14.25056 -5.1171,13.60268 -2.9149,11.72424 -54.5403,10.33165 -4.6964,0.48585 7.1254,-5.63552 24.4848,-19.95057 23.0599,-19.20587 z m -392.60039,13.14933 1.0363,14.83344 -0.4543,8.8742 -6.5098,8.38837 -10.8823,-3.43304 -13.4407,-5.47352 25.6184,-19.23819 z m -309.2678,1.2951 30.1852,22.67106 -17.2626,7.02811 -8.3558,2.65584 -4.761,-6.15373 -0.6799,-13.31115 z m 266.3542,31.25377 17.9429,7.31962 8.1614,2.65568 3.1092,0.97173 -4.0159,6.50989 -6.2509,13.66736 -4.1457,14.05622 -1.1988,8.90656 h -105.4212 l 10.2669,-4.85815 43.0106,-24.06384 z m -223.0523,0.6152 33.5211,21.89388 43.0107,24.09634 15.902,7.48146 h -106.5869 l -0.6484,-4.63144 -4.1456,-14.05605 -6.2507,-13.66753 -5.7002,-9.26291 7.935,-2.49381 z m 276.686,18.03981 19.9183,6.34789 40.5166,9.32759 -28.857,19.75639 h -41.5857 l 2.1376,-5.3115 6.7043,-23.35145 z m -330.8053,1.16573 1.6516,9.8783 6.7043,23.35128 0.4212,1.03639 h -41.0026 l -27.7884,-19.01136 43.7231,-10.07261 z m 316.6844,0.0995 -0.2271,1.1989 -6.6718,23.38363 -3.9189,9.58676 h -1.3283 l 0.6152,-4.63146 4.1457,-14.05603 6.2509,-13.66752 z m -302.0453,4.2751 1.1011,1.81378 6.2507,13.69986 4.1456,14.02387 0.066,0.35652 h -2.4939 l -2.1699,-5.3115 -6.7043,-23.35145 z m -366.17237,5.66785 56.58087,10.72034 19.56205,2.00795 15.09265,11.49756 h -94.2476 l 2.4615,-8.48553 0.97171,-11.5299 z m 1033.96906,0.67988 v 7.80533 l 0.9386,11.56238 1.2304,4.17792 h -94.5713 l 14.3799,-10.9145 24.9385,-2.591 z m -272.92909,7.28713 44.9214,6.60708 25.39189,1.58692 -0.5838,1.32824 -3.8539,6.7366 h -88.48269 l 12.696,-8.67987 z m -488.5319,0.58369 5.7001,4.33994 16.5499,11.33554 h -89.7456 l -1.3929,-2.4615 -2.4292,-5.27915 30.3471,-1.91078 z m -169.8722,6.93094 14.5096,1.4891 58.4268,1.13422 10.9147,-0.67988 3.1092,6.80144 h -75.1714 l -6.5099,-4.69614 z m 826.81879,0.55054 -8.032,6.1212 -2.8824,2.0728 h -76.0134 l 1.4245,-2.4615 2.1376,-4.66377 15.8374,1.00324 58.3946,-1.13425 z"
     id="path4-7"
     inkscape:connector-curvature="0" />
  <circle
     style="color:#000000;clip-rule:nonzero;display:inline;overflow:visible;visibility:visible;opacity:1;isolation:auto;mix-blend-mode:normal;color-interpolation:sRGB;color-interpolation-filters:linearRGB;solid-color:#000000;solid-opacity:1;fill:none;fill-opacity:1;fill-rule:evenodd;stroke:#0000ff;stroke-width:0.5;stroke-linecap:butt;stroke-linejoin:miter;stroke-miterlimit:4;stroke-dasharray:none;stroke-dashoffset:0;stroke-opacity:1;color-rendering:auto;image-rendering:auto;shape-rendering:auto;text-rendering:auto;enable-background:accumulate"
     id="path814"
     cx="701.45667"
     cy="-243.54335"
     r="1.6397636" />
</svg>
