<?xml version="1.0" encoding="UTF-8" standalone="no"?>
<svg
   xmlns:dc="http://purl.org/dc/elements/1.1/"
   xmlns:cc="http://creativecommons.org/ns#"
   xmlns:rdf="http://www.w3.org/1999/02/22-rdf-syntax-ns#"
   xmlns:svg="http://www.w3.org/2000/svg"
   xmlns="http://www.w3.org/2000/svg"
   xmlns:sodipodi="http://sodipodi.sourceforge.net/DTD/sodipodi-0.dtd"
   xmlns:inkscape="http://www.inkscape.org/namespaces/inkscape"
   width="1492.9135"
   height="1492.9136"
   viewBox="-45 -990 1492.9134 1492.9135"
   version="1.1"
   id="svg6"
   sodipodi:docname="lotus - projection-3.svg"
   inkscape:version="0.92.3 (2405546, 2018-03-11)">
  <metadata
     id="metadata12">
    <rdf:RDF>
      <cc:Work
         rdf:about="">
        <dc:format>image/svg+xml</dc:format>
        <dc:type
           rdf:resource="http://purl.org/dc/dcmitype/StillImage" />
        <dc:title>OpenSCAD Model</dc:title>
      </cc:Work>
    </rdf:RDF>
  </metadata>
  <defs
     id="defs10" />
  <sodipodi:namedview
     pagecolor="#ffffff"
     bordercolor="#666666"
     borderopacity="1"
     objecttolerance="10"
     gridtolerance="10"
     guidetolerance="10"
     inkscape:pageopacity="0"
     inkscape:pageshadow="2"
     inkscape:window-width="1920"
     inkscape:window-height="1026"
     id="namedview8"
     showgrid="true"
     inkscape:zoom="0.45603865"
     inkscape:cx="618.0541"
     inkscape:cy="696.77018"
     inkscape:window-x="1600"
     inkscape:window-y="27"
     inkscape:window-maximized="1"
     inkscape:current-layer="svg6"
     inkscape:document-units="cm"
     fit-margin-top="0"
     fit-margin-left="0"
     fit-margin-right="0"
     fit-margin-bottom="0"
     inkscape:snap-nodes="false"
     inkscape:snap-others="false"
     inkscape:snap-to-guides="false"
     inkscape:snap-bbox="true"
     inkscape:bbox-nodes="true">
    <inkscape:grid
       type="xygrid"
       id="grid4529"
       units="cm"
       spacingx="737.00784"
       spacingy="737.00787"
       originx="0"
       originy="0" />
  </sodipodi:namedview>
  <title
     id="title2">OpenSCAD Model</title>
  <path
     style="fill:none;stroke:#0000ff;stroke-width:0.5;stroke-opacity:1"
     d="M -44.750009,-989.75002 V 502.66354 H 1447.6634 V -989.75002 Z m 16.58233,16.5823 h 112.96732 l 3.17385,1.78135 9.68407,8.032 7.189849,9.13331 4.82593,10.13736 2.10496,9.4247 -1.23039,8.42065 -3.91894,13.66765 -5.89421,14.50959 -7.773029,15.41618 -9.52197,16.29114 -3.20627,4.95501 -4.95541,3.2389 -16.32337,9.52196 -15.38396,7.74041 -9.13331,3.72461 -1.94326,0.55056 -12.8255,1.87841 -11.950729,-0.25856 -11.07657,-2.49381 -10.137361,-4.82593 -9.13332,-7.22227 -0.58196,-0.71307 -3.69219,-6.57466 -1.26362,-3.4006 z m 153.516359,0 h 106.7491 l -8.90657,6.54223 -28.04755,4.7933 -56.3865,14.80118 -1.35987,-6.05652 -4.82552,-10.13716 z m 307.84267,0 h 14.9307 l -2.5263,1.74893 -7.8052,-1.35968 z m 66.3621,0 h 20.3069 l -3.5627,9.97525 -2.8178,5.37628 -21.5699,-5.60303 -5.3763,-0.93839 10.2991,-7.12542 z m 50.427,0 h 2.3643 l -4.8903,18.20178 -0.874,6.08874 -3.6598,-1.29504 -0.8737,-0.22715 1.9755,-3.78945 5.02,-14.08852 z m 33.0028,0 h 68.6939 l -11.4977,5.7325 -43.302,25.52153 -10.2022,7.02794 -12.4689,-4.37243 0.9718,-6.70414 6.2181,-23.15698 z m 171.7506,0 h 64.613 l 5.1173,13.05204 6.1858,23.09235 -11.3031,3.95136 -20.987,-14.38011 -43.2698,-25.55374 z m 95.8668,0 h 3.5625 l 2.656,13.92661 4.2105,11.82125 -2.7854,0.90719 -6.0565,-22.60643 z m 33.0028,0 h 20.4364 l 14.7039,10.202 -29.5697,7.67577 -4.6314,-12.98741 z m 71.5441,0 h 24.0638 l -4.6314,0.38804 -15.4812,2.68814 z m 215.57075,0 h 103.2837 l -0.7131,0.93859 -4.8257,10.13716 -2.4938,11.07658 -0.067,1.94325 -48.6783,-12.76066 -40.549,-6.93109 -2.0406,-1.52218 z m 150.1482,0 h 110.2146 v 110.3116 l -5.1496,9.23037 -8.0646,9.65165 -9.1333,7.22227 -3.3036,1.5538 -0.7444,0.19453 -11.9832,0.25876 -12.8255,-1.87841 -13.6676,-3.95157 -14.5096,-5.86199 -15.4164,-7.77303 -16.2909,-9.52176 -2.1376,-1.39291 -4.9877,-8.51791 -7.7406,-15.41638 -5.8944,-14.50959 -3.9511,-13.66745 -1.8787,-12.8255 0.2586,-11.95093 2.5262,-11.07657 2.753,-5.79736 8.3558,-6.93088 12.1779,-6.83383 z m -617.66105,6.44497 34.7517,17.29499 43.2696,25.55374 5.5706,3.78925 -26.9138,11.91852 -41.3265,22.34746 -16.6148,10.72014 -25.2297,-16.29074 -41.3266,-22.34747 -16.647,-7.35196 38.5734,-22.76833 z m -382.0422,17.97523 39.4479,0.0993 -3.9511,8.90637 -12.0482,35.49677 -5.3763,22.50917 -0.4859,0.48592 -0.6152,0.61519 -35.2376,-1.71651 -52.56466,2.07274 -13.37606,1.71651 1.78115,-5.73251 19.75659,-48.35449 5.86198,-11.40038 z m 770.04385,0 45.1158,3.72461 11.0441,21.37564 17.8778,43.78774 -3.1739,-0.42128 -52.5972,-2.07274 -44.6299,2.20243 -3.5951,-15.09257 -12.048,-35.49678 -7.9674,-17.87777 z m -699.30965,1.10111 20.1126,1.78116 -8.0644,6.21842 -23.3191,19.98314 3.757,-11.07657 z m 618.43825,0.90699 11.1412,25.00299 1.1011,3.30353 -31.15655,-26.65465 z m -557.06395,5.79736 38.6382,6.67171 5.4409,1.42452 -8.615,10.26684 -13.052,13.14932 -14.7688,13.05204 -16.485,13.05225 -18.0399,13.11669 -3.012,2.07294 -22.8007,-5.21437 -24.4202,-3.36818 11.0763,-10.39653 33.8774,-28.95434 z m 497.7301,1.3929 23.157,17.94282 33.84495,28.92192 18.461,17.32741 -14.6393,2.0079 -29.53735,6.73656 -13.4409,-9.16553 -18.0397,-13.11709 -16.4529,-13.01963 -14.8011,-13.08467 -13.0197,-13.14931 -1.7165,-2.04032 15.6754,-4.08084 z m 223.40865,5.57081 7.8055,5.89441 45.0834,34.39547 20.5981,15.48122 19.4003,14.15336 3.9836,2.7854 -54.4758,-11.98356 -19.3352,-2.46139 -2.6235,-8.58255 -19.7561,-48.3545 z m -947.0736,0.67983 -16.32337,39.99849 -5.79735,18.81698 -9.61903,1.23039 -56.5486,12.43686 -10.16958,3.20627 0.61519,-1.97548 17.87798,-13.08467 20.56591,-15.4488 45.08338,-34.39546 z m 1000.6101,3.43303 37.8933,9.94283 1.7165,11.69197 3.012,10.49359 -5.5382,-4.08104 -20.5661,-15.48102 z m -1058.48656,3.91893 -18.65508,14.21801 -18.91444,14.25042 2.46159,-6.08874 3.91894,-13.66745 0.0993,-0.55055 z m 357.00681,0.67984 11.8539,3.04457 5.6354,1.97548 -0.1945,8.58255 v 7.51407 l -23.8373,18.78476 -33.8446,30.37926 -3.757,3.82187 -22.5094,-7.28711 1.749,-1.29524 16.4852,-13.01962 14.7688,-13.08467 13.0522,-13.14911 11.1734,-13.2788 z m 348.6183,2.7854 3.1416,4.6314 11.1736,13.31122 13.0199,13.14931 14.8011,13.05205 16.4527,13.01982 12.3398,9.00383 -24.8089,7.99958 -12.0482,-12.24232 -33.8449,-30.34705 -13.3434,-10.55843 0.1317,-1.19899 -0.3566,-15.67534 7.7084,-2.68814 z m -284.3619,20.14484 27.5294,12.17789 41.3266,22.34726 15.9669,10.33149 -29.926,22.76853 -30.3472,26.84918 -8.4855,-7.61112 -11.8861,-13.18174 -1.0048,-1.3929 -8.9066,-16.35579 -6.8012,-17.55396 -4.5666,-18.78476 -0.7777,-7.22227 1.1341,-0.87396 z m 223.7002,1.19898 6.8663,4.72867 10.1371,7.96715 -3.7568,15.48122 -6.8014,17.55396 -8.9066,16.32337 -10.8498,15.15721 -12.6634,14.02368 -2.5911,2.29969 -4.5017,-4.6314 -31.7399,-28.04756 -21.9911,-16.74423 8.0646,-5.21458 41.3264,-22.34726 z m -267.52,31.61006 3.5625,14.57444 6.8014,17.55396 8.9064,16.35559 10.8176,15.15741 2.9147,3.17405 -18.3313,-11.75681 -35.788,-18.8494 -13.8941,-5.86219 25.165,-22.57401 z m 309.6237,0.87396 1.6516,1.32827 33.6182,30.15271 -22.3473,9.4247 -35.7557,18.84961 -18.3313,11.7564 2.8825,-3.20607 10.5906,-14.57443 10.8499,-15.12499 8.9065,-16.35559 6.8012,-17.55396 z m -553.6307,15.44901 8.032,0.42107 -1.1988,1.19898 -26.817,29.73165 -24.80864,29.56974 -20.11262,25.68322 -26.52537,0.71307 3.01215,-25.35942 9.71629,-45.79584 3.43302,-11.17363 22.70349,-2.91469 z m 806.57685,0 52.5972,2.07274 12.9874,1.68409 6.6069,21.44047 9.6841,45.76342 1.943,16.16126 -25.3592,-0.67981 -6.2184,0.38802 -1.6201,-2.17 -22.9626,-29.27815 -24.8089,-29.60216 -22.3799,-24.80866 z m -746.88685,3.78925 27.0759,3.72441 -3.7246,2.42897 -22.2826,14.0563 -4.0484,2.52623 0.067,-1.58703 z m 679.58565,1.03627 3.012,22.05587 -13.6026,-8.45307 -15.7726,-9.97546 z m 164.6578,2.97973 9.9753,1.29503 56.5486,12.43685 9.943,3.14163 8.4529,26.84918 11.433,52.04669 -3.4979,-1.10111 -45.7636,-9.68367 -31.6101,-3.75703 -3.2387,-27.07593 -9.6838,-45.79604 z m -1010.77985,1.23039 -9.29502,43.91722 -4.40485,36.98654 -23.86945,2.85025 -45.76342,9.68367 -11.98336,3.69219 0.90699,-7.09277 12.43685,-56.58085 4.59918,-14.54201 20.37159,-6.41275 56.5486,-12.43685 z m 505.5356,3.98358 30.8976,23.481 31.1245,27.52923 -5.4413,4.08105 -17.4243,10.9793 -18.8172,10.10472 -17.6834,8.29117 -10.7852,-4.43705 -20.145,-9.42472 -18.817,-10.10492 -15.9347,-10.04012 24.1934,-21.40806 34.8814,-26.49295 z m -271.5039,2.72056 15.1898,3.46544 15.2545,4.95541 -5.3439,5.4087 -28.1124,32.12842 -25.4889,32.64651 -14.5096,20.69561 -22.995,-8.29118 -3.6598,-21.37584 -1.5538,-24.12882 21.9588,-13.66724 22.2502,-14.0563 20.9224,-13.63523 z m 545.6635,1.52218 16.4529,10.68792 22.25045,14.0561 31.9016,19.85347 -0.9386,14.47737 -4.6962,27.43216 -1.587,5.66766 -24.4202,8.80949 -10.4286,-14.89823 -10.59065,-14.57443 -25.4891,-32.64653 -25.4565,-29.05142 24.3876,-7.8703 z m -643.9593,2.91489 -0.907,24.19346 -15.3516,9.55438 -25.7156,16.2259 -5.4736,3.53029 15.708,-18.75214 26.8168,-29.73164 z m 742.12595,5.60303 21.2785,23.57806 15.7404,18.75256 -5.5059,-3.53029 -25.6833,-16.22632 -5.0848,-3.14144 z m -584.17235,9.68386 18.9144,7.99978 35.7879,18.8494 32.7438,21.01961 1.0365,0.80914 -18.7848,22.1207 -22.9951,31.09212 -12.0482,18.71972 -6.5746,1.97568 -29.3755,9.13331 -10.2667,3.33596 -7.3844,-6.4776 -24.744,-18.03987 -27.2702,-16.19366 -6.0241,-2.85007 9.7163,-13.89417 21.732,-27.78841 28.1122,-32.09595 z m -517.907629,0.16616 7.67577,3.65977 17.132881,5.57061 0.42128,0.0669 -11.691971,44.69473 -6.93068,40.54904 -1.5538,2.04052 -5.05247,6.86605 z m 1459.248779,0.2918 v 107.97969 l -3.7247,-5.05247 -6.866,-40.22502 -13.5704,-51.78774 8.8095,-1.97548 10.1696,-4.82572 z m -80.9687,0.64842 16.0967,5.2468 10.0723,2.88247 10.5584,40.29008 -21.4729,-28.14482 z m -436.84195,1.2304 9.6839,9.81335 28.1122,32.12841 25.4889,32.61432 12.0806,17.29457 -12.1453,5.73273 -27.2702,16.16144 -22.6389,16.51749 -2.6559,-0.87396 -29.3752,-9.13331 -21.8616,-6.54223 -3.3035,-5.11712 -10.5907,-14.57443 -22.9951,-31.12435 -12.7284,-14.99548 27.7562,-17.81315 35.7557,-18.8492 z m -828.017319,0.67983 -11.33553,51.56078 -3.2387,25.35941 -5.247,1.62006 -17.13289,5.5706 -42.265549,17.2948 6.607069,-8.8093 34.39526,-45.08339 15.48143,-20.56591 18.68749,-25.651 z m 1233.767369,2.59108 13.7323,18.78458 15.481,20.56589 34.3633,45.08338 6.6393,8.8095 -42.298,-17.29479 -13.2464,-4.04842 -1.7813,-13.89438 -12.4369,-56.58084 z m -1273.863119,1.03627 -15.25448,20.27452 -11.17363,14.6715 7.99978,-30.44411 5.76493,-0.87395 z m 286.499469,36.04735 1.0364,16.22609 0.6152,3.65956 -11.6919,-3.01195 -13.3112,-2.13738 z m 741.89915,0.71307 14.7362,9.29522 9.0038,5.79733 -6.5422,1.06788 -20.1451,5.18196 2.5585,-14.83339 z m -429.61945,21.76429 12.2423,6.57484 10.9144,5.11711 -8.2911,3.04457 -7.8053,-8.32379 z m -43.205,0.77769 6.2506,4.7933 21.1167,19.20583 -1.5222,0.48592 -25.7803,7.70839 -34.4279,10.07252 10.2022,-13.82955 z m 199.5067,1.16575 18.4286,21.69965 10.7523,14.54201 -17.8453,-5.21438 -25.7481,-7.70819 -9.7163,-3.04437 12.1779,-11.07657 z m -48.905,3.62735 -6.9633,6.31569 -2.9473,-1.00324 z m 431.85435,9.78113 13.4407,0.38804 0.2588,10.26685 -9.1009,-6.70414 -3.5625,-2.52624 z m -967.2835,0.38804 -2.0081,2.68814 -2.65572,3.78946 -2.49382,1.71651 0.22716,-8.032 z m 54.89655,0.9386 13.4409,0.87396 37.3752,5.99168 17.7483,4.56655 5.2468,18.55802 8.5827,21.18131 -13.9914,24.77644 -16.7121,32.77602 -2.5584,5.50596 -5.506,2.55866 -32.776,16.67939 -19.85345,11.23868 -3.4008,-1.81377 -23.54564,-9.55439 -12.46927,-3.53008 -5.66767,-22.02366 -5.95946,-37.40741 -0.90699,-13.4407 12.0482,-17.97525 7.2549,-10.39633 23.67512,-16.54991 z m 862.76925,0.51733 8.8741,5.92703 24.4202,17.10067 17.1005,24.42001 10.7203,16.06421 -5.5383,34.75169 -8.7123,33.74785 -2.8822,0.80911 -17.1331,5.57061 -15.9348,6.44517 -30.8976,-17.4569 -32.776,-16.6796 -1.0048,-0.48591 -13.1491,-25.78049 -18.8172,-33.26194 3.8541,-7.12521 9.5217,-23.57786 2.0081,-7.02815 27.5295,-7.09279 37.4074,-5.99168 z m 91.0735,0.64842 29.2782,3.46545 45.7636,9.68387 7.8379,2.42897 3.692,28.76001 1.6843,42.58958 -0.8424,17.03583 -6.8338,-6.67192 -29.7317,-26.81676 -29.5697,-24.80887 -20.5013,-16.0642 z m -1043.71774,0.80932 -0.51753,19.62671 v 6.54243 l -1.78115,1.32807 -29.27815,22.93044 -29.60236,24.80867 -26.590009,23.99913 -0.58217,-12.14526 2.04032,-52.56483 2.23485,-17.2948 15.869869,-4.89056 45.76342,-9.68387 z m 523.83439,8.74466 15.4812,5.70009 3.2063,1.06788 -3.3035,3.53029 -20.4364,25.61838 -3.2065,-4.40445 -17.3921,-21.73207 18.461,-6.8014 z m 632.91575,15.77261 40.5166,16.55012 25.683,13.2788 4.923,59.46329 -0.099,36.40356 -15.2869,-6.83382 -35.5287,-12.048 -18.8172,-4.46969 1.9432,-39.77175 -2.0729,-52.56463 z m -584.30225,0.97183 7.676,2.49382 24.7762,7.77283 25.7481,7.70839 42.9133,12.53392 7.5787,11.78903 15.9672,28.50105 -13.3114,16.80908 -15.384,23.18921 -13.3436,24.03155 -5.6031,12.21011 -19.6593,4.016 -25.3916,4.34001 -12.0158,1.71651 -4.7933,-13.95904 -12.0482,-29.11624 -14.1534,-28.79244 -16.388,-28.2743 -9.1655,-13.40828 3.5625,-5.18195 16.9386,-21.24637 z m -686.516529,0.97163 -2.04032,51.62563 v 18.00746 l 1.42432,29.18088 -4.40486,4.30759 -7.35195,1.74913 -17.13289,5.57041 -35.496579,12.0482 -4.76088,2.10516 -0.0993,-45.69858 4.1779,-50.49208 15.902089,-8.22654 48.35471,-19.75618 z m 583.038529,1.97568 8.0646,8.61498 21.4081,26.78434 3.5627,5.21458 -3.0122,4.40445 -16.4202,28.2743 -14.1535,28.79264 -12.0156,29.11625 -7.4492,21.6348 -2.8177,-0.38804 -25.4242,-4.33981 -24.7115,-5.05247 -6.866,-1.71651 -0.2274,-0.45431 -13.3112,-24.03155 -15.3839,-23.15699 -10.5907,-14.60666 -7.9673,-10.00788 3.2709,-6.73656 17.0036,-30.34684 3.5303,-1.03647 54.4106,-15.93472 25.7803,-7.70819 z m -252.9781,3.43302 4.7287,2.23485 27.2702,16.19368 16.1937,11.82126 -3.9187,1.29524 -30.833,10.91466 -7.2871,2.78521 -3.66,-4.30759 -5.8944,-8.61498 -7.8054,-14.47718 z m 607.91235,2.49382 10.0725,16.0642 -2.5585,4.76089 -13.08475,19.07614 -14.3476,-5.50576 -24.4202,-8.6476 5.8621,-4.24254 27.2703,-16.1939 z m -109.85825,33.68301 6.9632,2.13758 -3.5948,3.82148 z m -391.5964,4.37223 -1.0048,1.78115 -1.0679,-1.13414 z m 733.83465,3.07679 21.1489,17.74829 28.0477,25.29457 -22.3799,-0.84235 -16.7118,-26.55759 z m -206.3728,2.17001 6.8336,12.11284 -11.789,-4.95521 0.713,-0.97183 z m -661.41635,0.84235 6.3155,9.23037 -14.2828,5.95926 5.4733,-10.72014 z m -208.80194,0.42127 -2.07294,3.20628 -16.19368,25.71564 -6.41275,10.29927 -14.44475,0.55035 -7.83767,1.0697 23.22162,-20.95476 z m 773.47684,1.5538 2.85,0.93839 30.833,10.91467 11.5623,4.43707 -12.3721,11.78903 -18.0396,14.18579 -19.3031,12.56633 -0.874,0.45268 -5.3763,-12.76066 -10.8498,-22.31484 6.8014,-7.19005 z m -463.7556,2.55865 5.6031,4.92279 12.6634,13.37606 -6.1536,12.66339 -8.4855,20.20968 -8.356,-4.46929 -19.2707,-12.53411 -18.0721,-14.21801 -4.016,-3.85409 3.2387,-1.23039 30.833,-10.91447 z m -284.91238,9.45712 3.56251,22.31485 1.55379,6.12116 -8.64739,-1.48916 -12.92257,-0.84235 z m 514.89548,2.59088 14.2828,24.67917 14.1532,28.76022 12.0484,29.11625 3.0119,8.84172 -11.2709,1.3929 -26.3635,2.88267 -26.331,-2.88267 -20.5335,-2.52603 5.7325,-16.71202 12.0158,-29.11624 14.1534,-28.79244 z m 517.81055,2.81762 1.4576,2.26727 12.0806,19.20563 -1.1658,0.0669 -17.9426,3.07699 4.3076,-16.71201 z m -210.3241,10.10515 23.4161,9.81315 26.9465,12.43685 12.4366,26.94624 11.0118,26.2664 -3.8217,3.27112 -15.9347,16.71202 -14.218,18.03967 -12.5341,19.30289 -5.6677,10.55844 -20.3718,-7.38458 -31.99875,-9.94263 -15.7728,-4.17811 -2.753,-10.33149 -9.9428,-32.03133 -8.9712,-24.77644 7.1252,-3.82167 19.3029,-12.53391 18.0721,-14.21821 16.67965,-15.93451 z m -613.35345,2.62329 16.6796,15.96694 18.0721,14.18578 19.2707,12.53391 14.9629,8.032 -6.2185,17.13309 -9.9428,31.99871 -5.7975,21.89397 -6.1534,1.65167 -32.0314,9.94284 -17.1328,5.5706 -13.0521,4.72866 -2.3967,-4.46949 -12.534,-19.3031 -10.5908,-14.57423 -14.1856,-18.03967 -13.1169,-13.73249 1.5222,-3.95116 13.4407,-31.99891 6.7366,-14.63908 22.0236,-10.16958 z m 497.3739,13.47312 3.8217,7.93474 7.19,17.10087 -15.0277,6.67172 -16.5825,6.12116 -4.0807,1.23039 9.9105,-17.87797 10.3963,-15.67535 z m -382.7548,1.5538 4.3398,5.47354 15.3842,23.15699 2.5911,4.66362 -1.6201,-0.48572 -22.3472,-8.22652 -7.3197,-3.2387 z m -356.48843,21.0194 29.31057,1.91084 16.71181,2.85025 9.03605,25.00298 -24.90572,17.42448 -32.64673,25.4889 -32.09598,28.14481 -0.3232,0.2918 -5.89461,-18.36369 -3.46545,-15.15721 4.14569,-6.08894 13.6026,-20.92234 14.0563,-22.28242 11.36776,-18.26663 z m 1096.57398,0.67984 16.5823,26.65506 14.0239,22.2502 13.635,20.92214 1.0695,1.55379 -0.388,1.68409 -9.3274,28.8897 -7.4817,-7.38417 -32.1282,-28.14482 -32.6143,-25.4889 -17.7159,-12.37201 1.3283,-2.81762 7.1899,-19.85365 27.1729,-4.66382 z m 33.4238,0.16616 8.3236,0.3234 16.9062,2.33191 -3.5301,25.55354 -1.0697,4.72866 -9.7485,-15.48122 z m -1165.52698,0.9386 -4.66382,7.51366 -12.14526,19.23825 -3.303539,-23.99893 z m 982.57038,2.84984 13.9915,7.90272 -8.2912,5.66767 z m -798.22085,2.42917 -4.3724,10.42876 -6.4776,-4.43687 8.2265,-4.66382 z m -231.797039,9.29542 4.21032,30.70307 3.65977,16.03178 -6.05632,8.93899 -13.14951,18.03988 -13.01963,16.45285 -13.05225,14.80097 -13.14931,13.01983 -5.14953,4.33981 -2.39655,-9.29522 -6.574859,-37.89312 14.185779,-18.33127 28.92192,-33.84511 z m 1302.039989,2.36413 4.6314,1.58683 30.2824,13.47312 -2.17,24.61453 -11.109,-14.38011 z m -37.1807,1.45755 12.7283,13.57038 28.9543,33.84491 22.3473,28.8897 -4.1455,23.90187 -5.0201,19.39996 -13.1171,-11.01173 -13.1491,-13.01963 -13.052,-14.80118 -13.0523,-16.45285 -2.7529,-3.78925 -8.9388,-13.11689 6.7365,-29.53732 z m -1310.881879,4.11326 -21.602389,25.29457 -1.87841004,2.42918 -1.49077996,-17.06825 20.371789,-9.06867 z m 466.379229,2.72056 0.3234,0.13171 22.3472,8.22633 8.7447,2.85004 10.2344,27.39994 -2.0727,0.3234 -31.027,5.92684 -24.7118,5.5706 1.199,-4.59897 9.9428,-32.03114 z m 423.3684,1.97548 7.5463,20.82528 7.9025,25.39163 -14.898,-3.33575 -31.0273,-5.92704 -11.0117,-1.78115 8.4208,-22.50937 2.3319,-0.71287 22.3473,-8.22653 z m -650.92245,0.19453 0.45265,0.25856 19.6592,13.47332 3.4006,2.88247 -3.9188,10.16958 -10.9146,30.83275 -0.292,0.9386 -3.2387,-4.40465 -16.06403,-27.0435 -7.38438,-15.64313 z m 879.999,0.42107 15.6431,9.81355 -3.7244,7.83788 -16.1939,27.27005 -7.3519,10.13736 -6.9631,-19.69155 -7.3198,-19.10877 15.8701,-10.88204 z m -609.88785,12.17788 16.5823,5.01985 4.4047,9.58681 2.0081,5.34386 -5.7327,0.9386 z m 334.6917,3.82168 -12.955,15.70776 -1.9757,-0.3232 -4.8255,-0.68004 3.8863,-10.33148 8.0646,-2.0081 z m -895.383129,9.23037 2.59087,29.47248 0.13172,0.74468 -0.77771,1.03627 -1.94326,2.7854 z m 612.446329,0.6152 6.2833,1.29523 -5.506,0.77771 z m 597.93735,0.55055 13.1817,9.19816 32.6139,25.4889 32.1284,28.14461 13.4731,13.2788 -9.3598,22.18536 -18.8496,35.75594 -19.7238,30.76791 -25.068,-21.3108 -31.1242,-22.99507 -11.5625,-7.4168 -4.0808,-13.76471 -9.1657,-29.37542 -3.012,-9.1331 24.1935,-33.26193 16.1937,-27.27026 z m -962.42559,0.84235 3.98378,8.45328 16.19368,27.27025 18.03988,24.74401 2.23485,2.55846 -8.22653,26.46073 -6.99573,23.35131 -19.23805,12.40443 -31.12434,22.99487 -19.65933,16.6796 -14.57423,-22.7037 -18.8494,-35.75573 -13.47332,-31.99851 7.02794,-6.89867 32.09618,-28.14482 32.64653,-25.45647 z m 873.16559,8.90657 3.1416,8.22652 10.9147,30.86518 2.2346,6.76919 -8.7446,9.94283 -9.8134,9.29501 -17.1329,-8.32338 -17.2301,-7.2549 6.5098,-12.14526 8.4209,-12.92256 7.7406,-9.84578 z m -783.97045,1.3929 7.2871,7.64335 14.1858,18.03988 12.5339,19.30309 3.077,5.73251 -24.3554,10.23443 -9.3924,4.53413 -17.554,-16.64697 -1.8784,-2.13779 5.9268,-18.00746 z m 397.1994,6.08874 49.8121,5.18216 3.2063,11.40038 6.7043,29.50489 3.0766,17.03583 -2.429,0.0993 -11.0765,0.3232 -3.8864,0.13374 -3.9515,0.25876 -4.0807,0.35644 -4.1779,0.48591 -4.3076,0.71307 -4.4694,0.9386 -4.6639,1.32827 -4.8581,1.78115 -5.0849,2.42917 -5.2466,3.33596 -5.3116,4.43707 -3.9836,4.59898 -3.9838,-4.59898 -5.3114,-4.43707 -5.2468,-3.33596 -5.0849,-2.42917 -4.858,-1.78115 -4.6314,-1.32827 -4.5021,-0.9386 -4.3074,-0.71307 -4.1779,-0.48591 -4.0486,-0.35644 -3.9836,-0.25876 -3.8863,-0.13374 -12.2101,-0.35643 4.6961,-26.1043 6.7365,-29.5051 0.3881,-1.42431 z m 724.89615,4.08105 v 16.388 l -2.2995,-3.14163 z m -643.92725,4.43687 5.4409,0.61519 16.0966,1.94326 -1.587,5.21458 -6.445,26.2662 -1.9435,10.13716 -1.9754,1.55379 -3.1092,-17.16531 z m -170.7468,1.03647 -4.2103,18.52559 -4.8581,27.07592 -1.7167,-1.32826 -0.4211,-2.26707 -6.4452,-26.2664 -4.0484,-13.11689 z m 245.1729,8.87414 21.2786,3.43302 31.0273,5.92684 23.4159,5.27922 1.9433,7.28731 7.0606,31.44816 5.927,30.99486 4.955,30.57358 0.3567,2.59108 -6.1861,1.91104 -26.2662,6.41255 -26.6226,5.11731 -26.914,3.91894 -5.8296,0.61519 -0.067,-0.90719 -0.8739,-5.11711 -1.1988,-4.69624 -1.3929,-4.34001 -1.5538,-4.11306 -1.6517,-3.8543 -1.7489,-3.69199 -1.7813,-3.5627 -1.7812,-3.43302 -5.2792,-9.74871 -1.6517,-3.10921 -1.4908,-3.04437 -1.3929,-3.01195 -1.1657,-3.04457 -0.9716,-3.07659 -0.7447,-3.30354 -0.4211,-3.88671 0.067,-5.08469 1.0695,-7.54629 3.2711,-12.37201 z m -319.7286,1.42452 16.0965,43.13992 3.2713,12.37221 1.0679,7.54608 0.067,5.08489 -0.4212,3.88652 -0.7445,3.30354 -0.9717,3.07679 -1.1657,3.04437 -1.3599,3.01215 -1.5222,3.04437 -1.6516,3.10921 -5.2468,9.7485 -1.8136,3.43302 -1.7814,3.56271 -1.7165,3.69219 -1.6841,3.85409 -1.5537,4.11327 -1.393,4.3398 -1.1989,4.69624 -0.8424,4.89057 -23.3837,-3.4008 -26.6226,-5.11731 -26.2338,-6.41255 -13.6998,-4.21033 1.295,-9.29521 4.9554,-30.57378 5.9269,-31.02709 6.2184,-27.56184 1.3597,-0.3234 31.4159,-7.09279 31.027,-5.92704 z m -455.561949,5.63524 8.16168,25.29457 -7.83787,7.7084 -30.34704,33.8447 -14.47697,18.36369 -15.70797,0.35663 -1.32826,-3.85409 -2.7852,-10.68792 0.90698,-0.6152 13.31142,-11.17363 13.14931,-13.05225 13.05205,-14.80098 13.01983,-16.45285 z m 1229.265699,3.46565 4.2749,5.92683 13.0523,16.42043 13.052,14.80098 13.1494,13.05225 13.3114,11.17363 9.1333,6.21843 -0.4213,1.65167 -4.4048,12.63097 -11.368,-0.25856 -6.9633,0.77771 -19.3677,-24.58211 -30.3793,-33.84491 -0.68,-0.67984 0.388,-0.9386 z m -750.90295,4.56655 16.6146,20.14504 10.3961,10.29927 7.5789,5.92684 6.1536,3.65976 5.3114,2.33171 4.7934,1.49078 4.4048,1.00324 4.2103,0.61519 4.016,0.42128 3.8865,0.22715 3.7893,0.16616 11.0766,0.292 3.5951,0.16616 3.5949,0.22715 3.5949,0.29179 3.5628,0.42128 3.5625,0.58196 3.5302,0.77771 3.5303,0.97183 3.5301,1.29503 3.4981,1.68409 3.4652,2.20243 3.4657,2.91468 3.4006,3.91894 3.3683,5.50597 3.2387,8.12926 3.0444,13.01961 2.5911,23.90208 2.5911,-23.90208 3.0441,-13.01961 3.2389,-8.12926 3.3682,-5.50597 3.4008,-3.91894 3.4655,-2.91468 3.4654,-2.20243 3.5303,-1.68409 3.4976,-1.29503 3.5305,-0.97183 3.5625,-0.77771 3.5303,-0.58196 3.5625,-0.42128 3.5952,-0.29179 3.5949,-0.22715 3.5949,-0.16616 11.0766,-0.292 3.8217,-0.16616 3.8867,-0.22715 4.0158,-0.42128 4.1781,-0.61519 4.4046,-1.00324 4.7933,-1.49078 5.3117,-2.33171 6.1535,-3.65976 7.6112,-5.92684 10.3639,-10.29927 16.6147,-20.14504 -9.1331,24.45263 -3.7246,14.12074 -1.3282,9.55438 -0.099,7.19006 0.6484,5.73251 1.0695,4.89056 1.3597,4.33981 1.5538,3.95136 1.6516,3.65977 1.7163,3.49786 1.7814,3.36838 5.2792,9.71608 1.6843,3.2389 1.5868,3.20627 1.5538,3.2387 1.3929,3.30354 1.2951,3.36818 1.1011,3.46564 0.9072,3.53029 0.6152,3.69199 0.2917,3.88651 -0.1661,4.11306 -0.7777,4.43728 -1.6841,4.9552 -3.1092,5.63545 -5.4089,6.89847 -9.7485,9.13331 -19.4002,14.18578 21.991,-9.71629 12.7933,-3.85409 8.6472,-1.26363 6.4452,0.16616 5.1173,0.97183 4.2428,1.5538 3.6597,1.91084 3.2063,2.20222 2.8827,2.39675 2.6233,2.55846 2.4291,2.68834 2.2669,2.7852 2.17,2.85025 2.0405,2.9471 1.9755,3.01215 1.9435,3.0768 5.7973,9.4247 2.0403,3.23869 2.1376,3.20648 2.3644,3.30354 2.6557,3.30354 3.0443,3.33575 3.6922,3.36838 4.6963,3.43303 6.2506,3.49786 8.939,3.62735 14.0885,3.82167 25.7481,4.34001 -25.7481,4.33981 -14.0885,3.82187 -8.939,3.62735 -6.2506,3.49787 -4.6963,3.43302 -3.6922,3.36818 -3.0443,3.33596 -2.6557,3.30353 -2.3644,3.30354 -2.1376,3.2387 -2.0403,3.20627 -5.7973,9.4249 -1.9435,3.0768 -1.9755,3.01194 -2.0405,2.94731 -2.17,2.85005 -2.2669,2.7854 -2.4291,2.68814 -2.6233,2.55845 -2.8827,2.39696 -3.2063,2.20222 -3.6597,1.91084 -4.2428,1.5538 -5.1173,0.97163 -6.4452,0.16615 -8.6472,-1.26362 -12.7933,-3.85389 -21.991,-9.71629 19.4002,14.18558 9.7485,9.13331 5.4089,6.89867 3.1092,5.63524 1.6841,4.95541 0.7777,4.43708 0.1661,4.11306 -0.2917,3.88651 -0.6152,3.69219 -0.9072,3.53008 -1.1011,3.46565 -1.2951,3.36822 -1.3929,3.30354 -1.5538,3.23869 -1.5868,3.20638 -1.6843,3.23886 -5.2792,9.716088 -1.7814,3.36839 -1.7163,3.49788 -1.6516,3.659729 -1.5538,3.951257 -1.3597,4.339929 -1.0695,4.890486 -0.6484,5.732529 0.099,7.190116 1.3282,9.554263 3.7246,14.12088 9.1331,24.4525465 -16.6147,-20.1449375 -10.3639,-10.299308 -7.6112,-5.926876 -6.1535,-3.627387 -5.3117,-2.364149 -4.7933,-1.490756 -4.4046,-1.00324 -4.1781,-0.615196 -4.0158,-0.421195 -3.8867,-0.227193 -3.8217,-0.165754 -11.0766,-0.291854 -3.5949,-0.165754 -3.5949,-0.193921 -3.5952,-0.323363 -3.5625,-0.421174 -3.5303,-0.582045 -3.5625,-0.744558 -3.5305,-1.00324 -3.4976,-1.295073 -3.5303,-1.684109 -3.4654,-2.202305 -3.4655,-2.914847 -3.4008,-3.918917 -3.3682,-5.505843 -3.2389,-8.129341 -3.0441,-13.01965 -2.5911,-23.901998 -2.5911,23.901998 -3.0444,13.01965 -3.2387,8.129341 -3.3683,5.505843 -3.4006,3.918917 -3.4657,2.914847 -3.4652,2.202305 -3.4981,1.684109 -3.5301,1.295073 -3.5303,1.00324 -3.5302,0.744558 -3.5625,0.582045 -3.5628,0.421174 -3.5949,0.323363 -3.5949,0.193921 -3.5951,0.165754 -11.0766,0.291854 -3.7893,0.165754 -3.8865,0.227193 -4.016,0.421195 -4.2103,0.615196 -4.4048,1.00324 -4.7934,1.490756 -5.3114,2.364149 -6.1536,3.627387 -7.5789,5.926876 -10.3961,10.299308 -16.6146,20.1449375 9.1331,-24.4525465 3.7246,-14.12088 1.3281,-9.554263 0.099,-7.190116 -0.6482,-5.732529 -1.0696,-4.890486 -1.3596,-4.339929 -1.5538,-3.951257 -1.6517,-3.659729 -1.7165,-3.49788 -1.7814,-3.36839 -5.2792,-9.716088 -1.6841,-3.23886 -1.5868,-3.20638 -1.5224,-3.23869 -1.4243,-3.30354 -1.2636,-3.36822 -1.1344,-3.46565 -0.9069,-3.53008 -0.6152,-3.69219 -0.2918,-3.88651 0.1661,-4.11306 0.7777,-4.43708 1.7165,-4.95541 3.0768,-5.63524 5.4087,-6.89867 9.7485,-9.13331 19.4325,-14.18558 -22.0233,9.71629 -12.7931,3.85389 -8.6474,1.26362 -6.4452,-0.16615 -5.1171,-0.97163 -4.2427,-1.5538 -3.6598,-1.91084 -3.2063,-2.20222 -2.8826,-2.39696 -2.6233,-2.55845 -2.4292,-2.68814 -2.2671,-2.7854 -2.1374,-2.85005 -2.0729,-2.94731 -1.9757,-3.01194 -1.9432,-3.0768 -5.7973,-9.4249 -2.0403,-3.20627 -2.1376,-3.2387 -2.3643,-3.30354 -2.6235,-3.30353 -3.0766,-3.33596 -3.6922,-3.36818 -4.6963,-3.43302 -6.2184,-3.49787 -8.9714,-3.62735 -14.0885,-3.82187 -25.7479,-4.33981 25.7479,-4.34001 14.0885,-3.82167 8.9714,-3.62735 6.2184,-3.49786 4.6963,-3.43303 3.6922,-3.36838 3.0766,-3.33575 2.6235,-3.30354 2.3643,-3.30354 2.1376,-3.20648 2.0403,-3.23869 5.7973,-9.4247 1.9432,-3.0768 1.9757,-3.01215 2.0729,-2.9471 2.1374,-2.85025 2.2671,-2.7852 2.4292,-2.68834 2.6233,-2.55846 2.8826,-2.39675 3.2063,-2.20222 3.6598,-1.91084 4.2427,-1.5538 5.1171,-0.97183 6.4452,-0.16616 8.6474,1.26363 12.7931,3.85409 22.0233,9.71629 -19.4325,-14.18578 -9.7485,-9.13331 -5.4087,-6.89847 -3.0768,-5.63545 -1.7165,-4.9552 -0.7777,-4.43728 -0.1661,-4.11306 0.2918,-3.88651 0.6152,-3.69199 0.9069,-3.53029 1.1344,-3.46564 1.2636,-3.36818 1.4243,-3.30354 1.5224,-3.2387 1.5868,-3.20627 1.6841,-3.2389 5.2792,-9.71608 1.7814,-3.36838 1.7165,-3.49786 1.6517,-3.65977 1.5538,-3.95136 1.3596,-4.33981 1.0696,-4.89056 0.6482,-5.73251 -0.099,-7.19006 -1.3281,-9.55438 -3.7246,-14.12074 z m 404.5191,7.67577 7.9025,2.07294 19.6591,6.12116 20.50135,7.4166 -2.6235,5.89462 -8.2263,22.34726 -7.02825,23.18962 -3.1738,12.6956 -10.785,4.95541 -0.2586,0.0993 -0.2273,-1.62006 -4.9552,-30.57378 -5.9269,-31.02708 z m -535.1053,2.4616 -2.2671,10.10473 -5.9268,31.02709 -4.9555,30.57379 -1.1987,8.71243 -9.8458,-3.75704 -2.9473,-1.35987 -0.4527,-1.71631 -7.0282,-23.1896 -8.1939,-22.34726 -5.4413,-12.17769 17.4893,-6.31548 z m -452.744289,7.28711 2.46159,14.218 4.72846,18.29905 -10.10494,5.24659 -0.16616,0.0669 -6.41275,1.19899 v -24.93814 l 2.42897,-3.95136 z m 1440.723339,5.4087 9.0361,13.01983 v 18.81698 l -0.1662,-0.0324 -14.0561,-5.02005 -1.5868,-0.80932 z m -377.9292,11.33554 12.3074,5.18195 10.6554,5.18196 -9.7487,7.74061 -23.1894,15.41658 -2.6235,1.45754 2.5911,-8.61497 8.2263,-22.34747 z m 75.3656,2.13758 1.0364,3.4008 -2.6883,-1.52238 z m -760.71625,0.22715 4.7609,10.6555 7.4814,20.40421 -9.9104,-5.50596 -23.1572,-15.38416 -1.0695,-0.84235 1.9757,-0.9386 z m -75.7218,1.42452 1.7489,1.65147 -2.7529,1.55379 z m -177.22411,8.55013 8.032,19.04393 18.8494,35.75573 10.8174,16.87393 -8.67961,-7.8703 -15.15762,-10.8172 -16.35538,-8.90656 -17.554159,-6.83383 -11.17364,-2.68813 29.148669,-32.51705 z m 1189.91456,1.19899 26.1368,29.11624 5.344,6.80139 -0.6152,0.13172 -17.1331,5.5706 -17.5539,6.83383 -16.3232,8.87394 -15.1576,10.85002 -5.7647,5.21418 18.4607,-28.79244 18.8496,-35.75573 z m -199.9924,11.27089 24.9383,13.95904 12.4043,7.99957 1.5554,5.18195 15.9023,54.44324 7.7082,25.78049 5.8622,18.59043 -12.7285,11.91851 -26.7843,21.37564 -1.5538,1.10111 -8.939,-6.08894 -28.2741,-16.42023 -28.7924,-14.15356 -29.1165,-12.01558 -17.1977,-5.92704 0.9718,-6.89826 4.3398,-25.42446 5.1498,-25.0354 6.0889,-2.7852 23.9989,-13.31142 23.1894,-15.41617 z m -787.92165,1.00324 12.9872,10.29927 23.157,15.41637 24.0316,13.31121 13.9266,6.41275 2.8176,11.2709 5.0849,24.7116 4.34,25.58595 -26.8491,9.23038 -29.1165,12.01578 -28.76,14.12094 -28.2743,16.42063 -0.7777,0.55055 -9.7163,-6.67192 -26.78435,-21.37583 -5.44132,-5.11711 1.35987,-4.08064 7.77304,-24.74422 7.70819,-25.78049 14.63907,-50.03858 4.6638,-3.01195 32.0312,-17.94261 z m 1100.13675,16.16126 5.8298,2.07274 17.1328,5.5708 0.1662,0.0324 v 2.97973 l -22.4769,-6.05631 -2.1376,-0.29199 z m -1412.027988,2.39675 1.0695,4.04842 -16.388201,4.37222 -8.77688,2.88267 v -4.24274 l 9.65144,-1.81378 14.056301,-5.02004 z m 236.234108,28.30672 -4.59918,15.70776 -7.70819,25.74807 -4.82572,15.4488 -21.31079,-23.44838 -1.39291,-1.84619 19.4648,-16.54991 z m -178.131099,0.13171 12.98741,1.3929 11.30311,2.72077 7.8703,3.07679 16.355579,8.90636 15.125,10.81761 14.02367,12.66339 4.50192,5.02005 -1.2304,1.23039 -28.07977,31.70733 -20.630959,27.17298 -2.75298,-4.24274 -22.34726,-41.32615 -18.94667,-42.88116 6.67172,-9.7485 z m 1117.140279,0.29199 12.2748,9.06827 24.6793,20.92234 -6.607,8.61518 -14.218,15.64313 -1.3283,-4.17791 -7.7084,-25.78048 z m 225.6111,0.90699 11.8212,1.74873 13.862,3.72461 8.615,3.36839 v 70.05414 l -24.9384,-42.29798 -14.7685,-21.53774 0.7444,-1.71671 z m -50.1683,0.0669 4.34,5.47355 7.8377,11.46522 -14.121,31.93407 -22.3474,41.32615 -8.7769,13.603 -25.1973,-33.10022 -24.1937,-27.36732 13.4087,-12.11284 15.1572,-10.8174 16.3558,-8.90656 17.5215,-6.83383 18.7846,-4.53433 z m -1340.224908,1.29524 3.821669,10.94668 -10.49358904,15.2871 -25.55375096,43.2694 -2.3317,4.72866 v -64.19174 l 8.77688,-3.43323 23.156991,-6.21842 z m 408.340858,9.19775 1.1342,0.42127 -0.3879,3.20628 z m 28.8573,9.39248 17.4567,5.37628 26.234,6.41275 8.0322,1.5538 -22.5094,4.04842 -29.5049,6.70413 -2.6883,0.77771 0.2588,-2.46159 z m 517.8428,2.26707 2.5262,20.66317 -24.3878,-5.53818 -22.4769,-4.04842 7.9997,-1.5538 26.2662,-6.41275 z m -938.232089,21.57016 10.23463,23.18941 22.34726,41.32635 13.24658,20.46885 -13.24658,20.46884 -22.34726,41.32635 -10.23463,23.18941 -21.278369,-36.11197 -23.221831,-46.54093 -0.97163,-2.3317 0.97163,-2.33191 23.221831,-46.54073 z m 1354.896639,1.32826 0.3234,0.48572 25.5213,43.30202 19.8859,39.86881 -19.8859,39.86901 -25.5213,43.30202 -0.3234,0.48572 -5.7001,-12.82551 -22.3475,-41.35877 -19.0437,-29.47247 19.0437,-29.5049 22.3475,-41.32614 z m -478.84865,14.57424 10.8176,1.49077 29.5049,5.31144 27.756,6.31549 0.8423,7.61112 3.1741,30.8976 -18.4608,-3.07679 -12.3722,-3.36838 -7.0279,-2.85004 -4.4695,-2.49382 -3.1417,-2.29949 -2.4938,-2.29949 -2.17,-2.36433 -2.0403,-2.55865 -1.9108,-2.65572 -1.9109,-2.88247 -1.846,-2.9473 -5.7975,-9.4247 -2.105,-3.30354 -2.17,-3.30354 -2.3321,-3.33596 z m -396.6811,1.45754 -0.7131,1.00324 -2.3643,3.33596 -2.17,3.30354 -2.0727,3.30354 -5.8298,9.4247 -1.846,2.9471 -1.9109,2.88267 -1.9108,2.65572 -2.0403,2.55866 -2.17,2.36412 -2.494,2.29969 -3.1417,2.29949 -4.4693,2.49382 -7.0281,2.85004 -12.372,3.36838 -16.4204,2.75278 3.7244,-36.07955 5.9594,-1.71651 29.5051,-6.70414 z m 743.09735,4.33981 25.5538,28.85728 26.1691,34.42768 -26.1691,34.42788 -25.5538,28.85728 -7.2871,-11.5947 -10.1371,-18.81718 -9.3925,-20.11262 -5.2468,-12.76066 5.2468,-12.76046 9.3925,-20.11262 10.1371,-18.81718 z m -1091.23009,0.42107 2.07274,2.7854 10.97951,17.39206 10.13716,18.81718 9.39228,20.11262 1.55379,3.75683 -1.55379,3.72461 -9.39228,20.14484 -10.13716,18.81718 -10.97951,17.39226 -2.07274,2.7852 -2.33191,-2.29969 -28.07998,-31.70732 -18.68749,-24.58191 -2.75298,-4.27517 2.75298,-4.27496 18.68749,-24.58212 28.07998,-31.70732 z m 1053.53109,7.12542 -7.449,13.86177 -1.3929,2.9473 -1.7489,-5.14953 z m -1014.60149,1.13414 7.64354,8.42065 3.91894,3.65997 -0.80932,2.33191 -1.10111,3.01195 -7.80525,-14.5096 z m 813.50799,10.52601 3.9187,1.35988 29.1163,12.01557 28.7926,14.15336 28.2743,16.42043 0.1945,0.13171 -0.1945,0.13374 -28.2743,16.42043 -28.7926,14.15336 -29.1163,12.01558 -3.9187,1.35987 -2.17,-17.71607 -1.5538,-14.25022 72.0298,-12.11304 -72.0298,-12.11264 1.5538,-14.25042 z m -608.75445,2.23465 3.0121,24.48484 0.5504,4.95541 -73.9405,12.40423 73.9405,12.40443 -0.5504,4.95541 -3.0121,24.48485 -13.6675,-4.69624 -29.1164,-12.01578 -28.7598,-14.15316 -18.9145,-10.97951 18.9145,-10.9791 28.7598,-14.15337 29.1164,-12.01577 z m 776.03555,20.04797 8.0319,21.79651 -8.0319,21.79671 -5.6355,-5.27902 -20.6632,-16.51769 20.6632,-16.51729 z m -946.06962,0.77771 25.45648,20.33917 1.00486,0.67983 -1.00486,0.67984 -25.45648,20.33936 -4.53413,-12.40443 -3.56271,-8.61497 3.56271,-8.61498 z m 743.25947,38.4761 -3.1741,30.89781 -0.8425,7.61092 -27.756,6.31569 -29.5049,5.31144 -10.8174,1.49077 1.846,-2.46159 2.3321,-3.33576 2.1698,-3.30354 2.1052,-3.30354 5.7973,-9.4249 1.8462,-2.9471 1.9109,-2.88247 1.9106,-2.65592 2.0405,-2.55866 2.17,-2.36413 2.4938,-2.29969 3.1415,-2.29948 4.4697,-2.49382 7.0279,-2.84984 12.3722,-3.36838 z m -690.9538,0.16616 0.7777,0.55056 28.2743,16.42063 28.7602,14.12074 29.1163,12.01578 26.8491,9.23037 -4.3398,25.58616 -5.0849,24.7116 -2.8176,11.27087 -13.9268,6.41273 -24.0316,13.311168 -23.1567,15.416459 -12.9875,10.299307 -1.1989,-0.583686 -32.0312,-17.94263 -4.6638,-3.01203 -14.63906,-50.038618 -7.70819,-25.78049 -7.77303,-24.74402 -1.35988,-4.08084 5.44133,-5.11711 26.78433,-21.37584 z m 842.65665,0 1.5538,1.10112 26.7843,21.37563 12.7282,11.91872 -5.8622,18.59023 -7.7081,25.78049 -15.9021,54.443228 -1.5555,5.18199 -12.4042,7.999657 -24.9385,13.959056 -21.2784,-16.873903 -23.1896,-15.4163 -23.9989,-13.311318 -6.089,-2.78535 -5.1495,-25.03538 -4.34,-25.42426 -0.9717,-6.89846 17.1978,-5.89462 29.1162,-12.048 28.7925,-14.15336 28.2741,-16.42043 z m -689.43165,0.16616 16.4206,2.75278 12.3718,3.36839 7.0281,2.85004 4.4695,2.49381 3.1415,2.29949 2.494,2.29969 2.17,2.36413 2.0403,2.55866 1.9111,2.65592 1.9106,2.88246 1.8462,2.94711 5.8298,9.4249 2.0727,3.30354 2.17,3.30354 2.3643,3.33576 0.7129,1.00324 -29.7639,-5.34386 -29.5051,-6.70414 -5.9594,-1.71651 z m 879.93455,7.12522 8.7769,13.6028 22.3474,41.32615 14.121,31.90185 -7.8377,11.49748 -4.34,5.4735 -1.2304,-0.13272 -18.7848,-4.53428 -17.5215,-6.83368 -16.3556,-8.90656 -15.1574,-10.81741 -13.4085,-12.11304 24.1935,-27.36731 z m -1227.289819,0.35643 20.630749,27.17299 28.07998,31.70732 1.23039,1.23039 -4.50191,5.02005 -14.02388,12.6634 -15.12479,10.8176 -16.355789,8.90657 -7.87009,3.07669 -11.30332,2.72068 -12.9872,1.3929 -5.14974,-6.50989 -6.67171,-9.74865 18.94666,-42.88096 22.34726,-41.35877 z m 116.756569,11.91851 1.10111,3.01215 0.80912,2.33171 -3.91873,3.65997 -7.64355,8.42065 1.84619,-2.91489 z m 996.10835,1.74893 1.3929,2.94731 7.4492,13.86177 -10.5906,-11.65954 z m 231.959,10.94689 v 70.05414 l -8.615,3.36839 -13.862,3.72457 -11.8212,1.74877 -4.6639,-13.34344 -0.7446,-1.71671 14.7685,-21.53774 z m -1459.248779,3.33596 2.3317,4.66382 25.55375096,43.30203 10.49358904,15.28689 -3.821669,10.94691 -2.6235,-0.38803 -23.156991,-6.21846 -8.77688,-3.43323 z m 243.197209,19.98313 4.82572,15.4488 7.70819,25.74807 4.59918,15.70783 -20.37179,-15.06021 -19.46479,-16.54991 1.3929,-1.8462 z m 972.27117,2.23465 14.2182,15.64333 6.607,8.61497 -24.6793,20.92235 -12.2748,9.06836 7.0928,-24.29062 7.7082,-25.78028 z m -746.69255,8.51791 2.6883,0.77771 29.5049,6.70414 22.5094,4.04842 -8.0322,1.5538 -26.234,6.41275 -17.4567,5.37628 -2.7205,-22.41211 z m 523.3487,1.94326 -2.5262,20.66318 -10.0726,-3.10922 -26.2662,-6.41275 -7.9997,-1.55379 22.4769,-4.04842 z m -548.4814,28.69538 0.3881,3.20647 -1.1344,0.42108 z m 839.19125,1.26362 5.7649,5.21438 15.1574,10.84978 16.3232,8.87404 17.5539,6.833748 17.1331,5.57069 0.6152,0.13273 -5.344,6.80142 -26.1366,29.116325 -3.757,-8.841723 -18.8494,-35.755742 z m -388.94105,0.67984 5.8298,0.61519 26.9462,3.91894 26.5902,5.11731 26.2662,6.41257 6.186,1.91096 -0.3564,2.591 -4.9552,30.573735 -5.927,30.994782 -7.0604,31.448155 -1.9435,7.2872765 -23.4159,5.27917706 -31.0273,5.92685594 -21.2461,3.433062 -16.6472,-44.5651445 -3.2711,-12.372109 -1.0695,-7.546143 -0.067,-5.084811 0.4527,-3.886577 0.713,-3.303538 0.9719,-3.07669 1.1657,-3.044532 1.3929,-3.01203 1.4908,-3.044349 1.6515,-3.109192 5.2792,-9.74861 1.7813,-3.43306 1.7812,-3.562698 1.7489,-3.69207 1.6517,-3.85423 1.5538,-4.11311 1.3929,-4.33995 1.199,-4.69628 0.8737,-5.08489 z m -328.441,1.13414 0.8425,4.89056 1.1988,4.69631 1.3929,4.33995 1.5538,4.11308 1.6841,3.85425 1.7167,3.69207 1.7812,3.562698 1.8135,3.43306 5.2793,9.74861 1.62,3.109192 1.5224,3.04435 1.3597,3.01203 1.1657,3.044532 0.9719,3.07669 0.7444,3.303538 0.4213,3.886577 -0.067,5.084811 -1.0678,7.546143 -3.2711,12.372109 -16.0967,43.1400415 -12.3071,-2.007959 -31.027,-5.92687594 -31.416,-7.06059206 -1.3596,-0.356534 -6.2185,-27.5617185 -5.9268,-31.027122 -4.9554,-30.573752 -1.295,-9.295238 13.6998,-4.21043 26.2338,-6.41257 26.6226,-5.11741 z m -393.76661,1.10111 -10.8174,16.87396 -18.8494,35.755735 -8.032,19.043867 -2.07294,-2.040461 -29.148669,-32.517053 11.17364,-2.68818 17.554159,-6.83376 16.35538,-8.906528 15.15762,-10.81734 z m 31.48058,3.17406 19.65933,16.67959 31.12434,22.994928 19.23805,12.404454 6.99573,23.351294 8.22653,26.460649 -2.23485,2.558494 L 239.96787,7.6096345 223.77419,34.879847 219.79041,43.33306 199.87232,29.406344 167.22579,3.9175665 135.12961,-24.22719 l -7.02794,-6.930927 13.47332,-31.96635 18.8494,-35.755745 z m 1050.68128,0.9386 19.7238,30.767918 18.8496,35.755904 9.3598,22.1854 -13.4731,13.278835 -32.1284,28.1445946 -32.6139,25.4889404 -13.1817,9.198074 -0.1662,-0.258683 -16.1937,-27.302551 -24.1934,-33.261909 3.0119,-9.133252 9.1658,-29.375333 4.0808,-13.76471 11.5623,-7.416801 31.1243,-22.995109 z m -240.54175,21.602348 0.2588,0.0995 10.785,4.95531 3.1738,12.695795 7.02825,23.18947 8.2263,22.347386 2.6235,5.894535 -20.50135,7.44898 -19.6593,6.088882 -7.9025,2.072801 4.8581,-21.570021 5.9268,-31.027122 4.9555,-30.573746 z m -565.4199,1.91079 1.199,8.71236 4.9552,30.573774 5.9268,31.027102 2.2673,10.104799 -30.7682,-9.554264 -17.4893,-6.315547 5.4411,-12.177602 8.1942,-22.347405 7.0281,-23.189467 0.4527,-1.71643 2.9471,-1.35976 z m -447.885929,0.71303 8.77688,2.88253 16.388211,4.37227 -1.06971,4.04842 -0.38804,-0.22718 -14.056101,-5.01998 -9.65144,-1.81378 z m 1459.248779,3.04453 v 2.97969 l -0.1662,0.0332 -17.1329,5.57069 -5.7973,2.0728 -1.5222,-4.30761 2.1376,-0.29185 z m -72.7099,8.97123 6.9633,0.77771 11.368,-0.25869 4.4048,12.631141 0.4211,1.651607 -9.1331,6.218385 -13.3114,11.173692 -13.1494,13.052169 -13.052,14.801081 -13.0523,16.4527065 -4.2751,5.894535 -7.2223,-22.3472415 -0.3882,-0.93856 0.68,-0.679876 30.3795,-33.844948 z m -1332.289969,0.29185 15.70797,0.35652 14.47697,18.363662 30.34704,33.844785 7.83787,7.708311 -8.16168,25.2945905 -10.88204,-14.9306025 -13.01983,-16.45287 -13.05205,-14.80108 -13.14931,-13.052169 -13.31142,-11.173693 -0.90698,-0.615216 2.7852,-10.687838 z m 1005.435769,8.388351 2.6235,1.489116 23.1894,15.384118 9.7487,7.740651 -10.6554,5.181994 -12.3074,5.181994 -1.7814,-4.016079 -8.2263,-22.347406 z m -660.50955,1.553776 -7.4814,20.404107 -4.7609,10.655518 -19.9183,-8.38837 -1.9757,-0.938559 1.0695,-0.842389 23.1572,-15.384119 z m -399.175129,11.141373 6.41275,1.230412 0.16616,0.03323 10.10494,5.246675 -4.76108,18.298985 -2.42918,14.218063 -7.06037,-10.137302 -2.42897,-3.951257 z M 1431.0811,-61.24668 v 18.817019 l -9.0361,13.019808 -6.769,-25.974794 1.5868,-0.809218 14.0561,-5.02015 z m -729.62455,3.854074 3.9836,4.598956 5.3116,4.437113 5.2466,3.335879 5.0849,2.429153 4.8581,1.781273 4.6639,1.328244 4.4694,0.938579 4.3076,0.713028 4.1779,0.485875 4.0807,0.356514 3.9515,0.258682 3.8864,0.132725 11.0765,0.323363 2.429,0.09949 -3.0766,17.035725 -6.7043,29.505019 -3.2063,11.432719 -49.8121,5.149654 -59.1394,-6.153704 -0.3879,-1.424434 -6.7367,-29.505019 -4.6961,-26.104317 12.2101,-0.356514 3.8863,-0.132725 3.9836,-0.258682 4.0486,-0.356514 4.1779,-0.485875 4.3076,-0.713028 4.502,-0.938559 4.6313,-1.328265 4.858,-1.781272 5.0851,-2.429154 5.2466,-3.335878 5.3114,-4.437113 z m -419.4172,9.651447 2.7529,1.553756 -1.7489,1.651607 z m 838.47845,1.457586 -1.0364,3.400721 -1.6517,-1.878455 z m 268.8158,6.671919 5.0201,19.400057 4.1455,23.9018285 -22.3473,28.8896415 -28.9543,33.844968 -12.7283,13.570343 -2.4614,-17.877953 -6.7365,-29.537358 8.9388,-13.116809 2.7529,-3.789414 13.0523,-16.45287144 13.052,-14.80107856 13.1491,-13.019667 z m -1375.430049,1.101072 5.14953,4.339929 13.14931,13.019828 13.05225,14.8009175 13.01963,16.4528715 13.14951,18.039796 6.05632,8.939068 -3.65977,16.031675 -4.21032,30.703273 L 48.039841,60.854124 19.117921,27.009177 4.932142,8.6778494 11.507001,-29.215355 Z m 298.417999,6.056541 9.3924,4.534113 24.3554,10.234485 -3.077,5.73253 -12.5339,19.3030345 -14.1858,18.0397985 -7.2871,7.643325 -10.1696,-28.6951325 -5.9268,-18.0074755 1.8784,-2.137624 z m 778.36735,1.781273 9.8134,9.295095 8.7446,9.942956 -2.2346,6.7690805 -10.9147,30.8651185 -3.1416,8.226506 -13.9588,-14.606734 -7.7406,-9.845795 -8.4209,-12.9226455 -6.5098,-12.1452585 17.2301,-7.254796 z m -483.35025,2.461493 4.8581,27.0758635 4.2103,18.5256735 -21.6996,-2.623499 4.0484,-13.1168305 6.4452,-26.2663015 0.4211,-2.267148 z m 189.4018,0.90705 1.9754,1.553776 1.9435,10.137302 6.445,26.26616 1.587,5.214497 -16.0966,1.943278 -5.4409,0.615216 6.4774,-28.56581 z m -423.6276,19.8859305 13.0521,4.728621 17.1328,5.570687 32.0314,9.9427955 6.1534,1.651607 5.7975,21.894033 9.9428,31.99867 6.2185,17.133091 -14.9629,8.031998 -19.2707,12.533962 -18.0721,14.18573 -16.6796,15.96701 -30.4441,-12.76064 -22.0236,-10.16964 -6.7366,-14.639109 -13.4407,-31.998832 -1.5222,-3.951257 13.1169,-13.73235 14.1856,-18.039796 10.5908,-14.574252 12.534,-19.3030575 z m 656.33145,2.914847 5.6677,10.558334 12.5341,19.3028755 14.218,18.039796 15.9347,16.712059 3.8217,3.271036 -11.0118,26.266302 -12.4366,26.946375 -26.9465,12.43679 -23.4161,9.81327 -6.9957,-8.194 -16.67965,-15.93452 -18.0721,-14.21822 -19.3029,-12.533966 -7.1252,-3.821572 8.9712,-24.776559 9.9428,-32.031173 2.753,-10.331486 15.7728,-4.178085 31.99875,-9.9427955 z m 255.3102,2.040461 9.3277,28.8896415 0.388,1.684109 -1.0697,1.553776 -13.635,20.922302 -14.0239,22.250061 -16.5823,26.655015 -18.6551,-1.230413 -27.1732,-4.663799 -7.1898,-19.853571 -1.3283,-2.817684 17.7159,-12.371947 32.6143,-25.488918 32.1284,-28.1447805 z m -1167.08158,1.52226606 0.3234,0.291833 32.09597,28.14477944 32.64653,25.488939 24.90593,17.424418 -9.03605,25.003083 -16.71182,2.850166 -29.31077,1.910812 -1.10111,-0.0332 -11.36776,-18.266499 -14.0563,-22.282563 -13.6026,-20.922322 -4.14569,-6.088882 3.46545,-15.15727 z M 1431.0811,6.4758685 V 22.863897 l -2.2995,-13.2464955 z m -1459.248779,4.8258065 1.94326,2.785343 0.7777,1.036411 -0.13373,0.744537 -2.59108,29.472516 z m 298.968329,1.134242 0.292,0.938559 10.9146,30.832777 3.9188,10.169642 -3.4006,2.882506 -19.6591,13.473181 -0.45294,0.258682 -18.29884,-11.465222 7.38418,-15.610805 16.0642,-27.075865 z m 859.98385,3.07669 7.3519,10.137302 16.1939,27.270211 3.7244,7.837834 -15.6431,9.813453 -10.0399,-5.37634 -15.8701,-10.882184 7.3198,-19.10871 z m -656.97925,7.222456 24.7118,5.570686 31.027,5.926876 2.0727,0.323343 -10.2344,27.399896 -8.7445,2.850004 -22.3474,8.226364 -0.3234,0.132725 -5.0198,-13.797192 -9.943,-32.031173 z m 454.9786,2.234807 -7.9025,25.391756 -7.5463,20.825139 -8.3882,-3.724571 -22.3473,-8.226506 -2.3319,-0.713048 -8.4208,-22.509249 11.0117,-1.781273 31.0273,-5.926875 z m -378.9977,12.533953 5.7327,0.938559 -2.0081,5.343838 -4.4047,9.586766 -16.5823,5.019989 z m 304.4743,1.359754 12.955,15.707826 -7.8053,-2.364331 -8.0646,-2.007959 -3.8863,-10.331648 4.8255,-0.679877 z m 550.13335,2.914846 2.17,24.614392 -30.2824,13.47318 -4.6314,1.586927 21.6348,-25.294592 z m -819.33785,0.873899 5.506,0.777709 -6.2833,1.295093 z M 0.10662196,48.158166 1.985032,50.587319 23.587421,75.881911 18.988441,74.328136 -1.383348,65.227225 Z m 706.07832804,7.934997 26.3635,2.882506 11.2709,1.392924 -3.0119,8.841885 -12.0484,29.116164 -14.1532,28.760148 -14.2828,24.67921 -9.1009,-15.64314 -14.1534,-28.79248 -12.0158,-29.116336 -5.7325,-16.711877 20.5335,-2.526154 z m 67.1393,8.161683 12.0158,1.71643 25.3916,4.339949 19.6593,4.01608 5.6031,12.210104 13.3436,24.031531 15.384,23.18928 13.3114,16.80906 -15.9672,28.50111 -7.5787,11.78891 -42.9133,12.53396 -25.7481,7.70831 -24.7762,7.77299 -7.676,2.49383 -16.0966,-17.13307 -16.9386,-21.24617 -3.5625,-5.182 9.1655,-13.40833 16.388,-28.27429 14.1534,-28.79247 12.0482,-29.11634 z m -143.444,1.328244 7.4492,21.634864 12.0156,29.116336 14.1535,28.79248 16.4202,28.27426 3.0122,4.40461 -3.5627,5.2145 -21.4081,26.78435 -8.0646,8.61504 -23.3189,-7.31946 -25.7803,-7.70831 -54.4108,-15.93467 -3.5301,-1.03639 -17.0036,-30.34692 -3.2711,-6.73658 7.9673,-10.0078 10.5907,-14.57442 15.3839,-23.18929 13.3115,-24.031523 0.2271,-0.454345 6.8661,-1.71645 24.7116,-5.052491 25.424,-4.33993 z m 673.33505,0.809218 1.0697,4.728621 3.5301,25.55362 -16.9062,2.33197 -8.3236,0.323363 10.8823,-17.456758 z m -1202.96686,5.246837 12.14526,19.238193 4.66382,7.513823 -20.112619,-2.753023 z m 1005.07976,10.331648 8.2912,5.667687 -13.9915,7.902657 z m -808.29355,0.713028 4.3724,10.428669 -2.6235,-1.328244 -8.2265,-4.663799 z m 570.1161,1.00324 4.0807,1.230412 16.5825,6.121222 15.0277,6.671758 -7.19,17.100747 -3.8217,7.93483 -4.3724,-5.50584 -10.3963,-15.67549 z m -335.7605,4.210426 -2.5911,4.663799 -15.3842,23.156964 -4.3398,5.47352 -8.9711,-21.311028 7.3195,-3.271036 22.3472,-8.226506 z m -534.263358,7.902494 4.72866,2.105142 35.496579,12.048277 17.13289,5.5705 7.35195,1.74895 4.43708,4.30761 -1.42452,29.18099 v 18.00747 l 2.0081,51.62558 -1.42431,-0.4212 -48.3545,-19.75624 -15.902289,-8.22651 -4.17791,-50.49202 z m 1411.574508,0.842389 0.099,36.40347 -4.923,59.46339 -25.7157,13.27884 -40.4842,16.55005 1.2636,-10.0078 2.0728,-52.5648 -1.9433,-39.77166 18.8172,-4.46962 35.5288,-12.04809 z m -264.2171,6.83378 15.9348,6.44507 17.1331,5.57068 2.8822,0.80922 8.7123,33.74779 5.5383,34.75169 -10.7203,16.06418 -17.1005,24.42002 -24.4202,17.10057 -8.8741,5.92704 -5.4087,-0.35651 -37.4074,-5.99172 -27.5294,-7.09277 -2.0082,-7.02811 -9.5217,-23.57798 -3.8541,-7.12528 18.8172,-33.26193 13.1491,-25.78044 1.0048,-0.48588 32.7761,-16.67953 z m -882.6871,0.64836 19.85345,11.23854 32.776,16.67956 5.506,2.55849 2.5584,5.50601 16.7121,32.77607 13.9914,24.77638 -8.5827,21.18133 -5.2468,18.55801 -17.7483,4.56661 -37.3752,5.9917 -13.4409,0.8739 -17.97485,-12.01576 -23.67513,-16.55003 -7.25489,-10.39633 -12.0482,-17.97511 0.90699,-13.44068 5.95946,-37.40752 5.66766,-22.02355 12.46927,-3.53023 23.54564,-9.55426 z m 666.95445,6.96345 0.8738,0.45269 19.3031,12.56629 18.0398,14.18572 12.3721,11.78907 -11.5623,4.43712 -30.833,10.91452 -2.8502,0.93856 -14.7686,-13.01981 -6.8014,-7.18995 10.8498,-22.31491 z m -454.7843,1.55376 8.4855,20.20978 6.1536,12.66346 -12.6634,13.37601 -5.6031,4.92281 -12.0157,-3.95126 -30.833,-10.91452 -3.2387,-1.23042 4.016,-3.85407 18.0721,-14.21804 19.2707,-12.53398 z m 738.59545,11.69174 17.9426,3.07686 1.1658,0.0995 -12.0806,19.17337 -1.4576,2.26715 -1.2636,-7.9025 z m -1022.01812,1.58693 -1.55379,6.12122 -3.56251,22.31491 -16.45285,-26.10432 12.92257,-0.84237 z m -76.88776,1.16575 7.83767,1.06956 14.44475,0.55054 6.41275,10.29915 16.19368,25.7156 2.07294,3.20638 -23.74017,-19.88592 z m 1172.74948,1.23041 -28.0477,25.29458 -21.1489,17.74828 10.1049,-15.64314 16.7118,-26.55767 z m 25.6506,15.38396 0.8426,17.03591 -1.6843,42.58951 -3.6922,28.75997 -7.8377,2.42899 -45.7636,9.68393 -29.2782,3.46538 0.7777,-29.60202 20.5013,-16.06417 29.57,-24.8089 29.7314,-26.81668 z m -1218.901349,3.91892 26.590009,23.99917 29.60216,24.80872 29.27835,22.93028 1.78115,1.32825 v 6.54225 l 0.51732,19.62689 -22.44432,-2.65582 -45.76362,-9.68395 -15.869669,-4.89047 -2.23485,-17.29493 -2.04032,-52.56481 z m 268.297699,5.53834 14.2828,5.95922 -6.3155,9.23039 -2.494,-4.46943 z m 676.21725,3.91876 -6.8336,12.11292 -4.2428,-6.18606 -0.713,-0.97171 z m -634.59935,12.66362 7.2871,2.78518 30.833,10.91468 3.9187,1.29508 -16.1937,11.82141 -27.2702,16.19368 -4.7287,2.23481 -11.206,-17.84545 7.8054,-14.47725 5.8944,-8.61504 z m 596.1878,2.85 13.08475,19.07621 2.5585,4.76096 -10.0725,16.06418 -11.20615,-5.3115 -27.2703,-16.19384 -5.8621,-4.24261 24.4202,-8.64753 z m -496.8879,0.0663 1.0048,1.78128 -2.0727,-0.6152 z m 395.9688,0.19392 3.5948,3.8216 -6.9632,2.13762 z m -420.1623,22.76828 10.2667,3.33588 29.3755,9.13339 6.5746,1.97564 12.0482,18.71984 22.9951,31.09194 18.7848,22.12074 -1.0365,0.80922 -32.7438,21.01948 -35.7879,18.84952 -18.9144,7.99966 -17.4245,-17.71595 -28.1122,-32.09585 -21.732,-27.7884 -9.7163,-13.89422 6.0241,-2.85016 27.2702,-16.19368 24.744,-18.00748 z m 448.404,2.46149 22.6389,16.51753 27.2702,16.16134 12.1453,5.7327 -12.0806,17.29475 -25.4889,32.64655 -28.1122,32.09602 -9.6839,9.81345 -26.6873,-11.23854 -35.7557,-18.84936 -27.7562,-17.81311 12.7284,-14.99544 22.9951,-31.12429 10.5907,-14.57441 3.3035,-5.11715 21.8616,-6.54226 29.3752,-9.13339 z m -226.874,4.11325 20.4364,25.61844 3.3035,3.53022 -3.2063,1.0679 -15.4812,5.70021 -7.19,-2.97969 -18.461,-6.80126 17.3921,-21.73205 z m 731.37345,20.04777 v 107.97977 l -5.182,-4.11326 -10.1696,-4.82562 -8.8095,-1.97564 13.5704,-51.78758 6.866,-40.2577 z m -864.71265,0.22717 34.4279,10.07246 25.7803,7.70831 1.5222,0.48588 -21.1167,19.20587 -6.2506,4.7933 -24.1609,-28.43612 z m -560.334988,3.7894 42.265549,17.29493 17.13289,5.57051 5.247,1.62009 3.2387,25.35944 11.33553,51.56073 -4.04842,-1.29507 -18.68749,-25.65095 -15.48143,-20.56597 -34.39526,-45.08332 z m -34.201141,0.80922 5.05247,6.8661 1.55379,2.04046 6.93069,40.54905 11.691971,44.69465 -0.42128,0.0663 -17.132891,5.57052 -7.67577,3.65989 z m 857.586829,0.2587 -10.7523,14.54191 -18.4286,21.69969 -11.9509,-9.19808 -12.1779,-11.07653 9.7163,-3.04435 25.7481,-7.70833 z m 559.81725,4.53427 -6.6393,8.77705 -34.3633,45.08334 -15.481,20.56595 -13.7323,18.78468 0.4527,-1.42442 12.4369,-56.54838 1.7811,-13.92672 13.2466,-4.04842 z m -192.3489,7.64349 -0.2588,10.29915 -13.4409,0.35651 1.0365,-1.42443 3.5625,-2.52632 z m -988.14104,2.07278 2.49382,1.71645 2.65572,3.7894 2.0081,2.72052 -6.93089,-0.19392 z m 805.96144,6.31557 24.4203,8.80938 1.5868,5.66771 4.6964,27.43222 0.9384,14.47723 -31.9016,19.85343 -22.25025,14.0562 -16.4529,10.68783 -8.615,-1.94327 -24.3877,-7.87016 25.4566,-29.0515 25.4889,-32.64655 10.59075,-14.57442 z m -355.90575,2.88234 8.2911,3.04454 -10.9144,5.11715 -12.2423,6.57476 7.0603,-6.41276 z m -271.7305,0.32337 14.5096,20.69563 25.4889,32.64656 28.1124,32.12835 5.3439,5.40866 -15.2545,4.95531 -15.1898,3.46556 -6.0886,-4.1456 -20.9223,-13.63519 -22.2502,-14.05622 -21.9588,-13.66736 1.5538,-24.12868 3.6597,-21.37584 z m 357.2983,2.52631 6.9633,6.31557 -9.9106,-5.31149 z m -643.6356,6.34791 11.98336,3.69223 45.76342,9.68377 23.86945,2.85019 4.40485,36.9865 9.29502,43.91724 -0.45269,-0.0663 -56.5484,-12.43679 -20.37179,-6.41273 -4.59897,-14.54207 -12.43685,-56.54839 z m 1202.44875,2.591 -11.433,52.04661 -8.4529,26.84918 -9.943,3.14169 -56.5486,12.43679 -9.9753,1.29507 2.5587,-8.35584 9.6838,-45.79589 3.2387,-27.07602 31.6101,-3.75691 45.7636,-9.68377 z m -232.5744,3.36838 20.1451,5.182 6.5422,1.0679 -9.0038,5.79735 -14.7362,9.29526 -0.388,-6.50992 z m -737.30005,2.16997 -0.6152,3.65972 -1.0364,16.22603 -23.3515,-14.73626 13.3114,-2.13746 z m 370.9333,0.55053 17.6834,8.29119 18.8172,10.1048 17.4243,10.97936 5.4413,4.08093 -31.1245,27.52921 -30.8976,23.48098 -3.9512,-2.55865 -34.8814,-26.49283 -24.1934,-21.40818 15.9347,-10.0078 18.817,-10.13714 20.145,-9.42476 z m -492.77492,10.16964 26.52537,0.71303 20.11241,25.68329 24.80884,29.5697 26.8168,29.7317 1.199,1.1989 -8.0322,0.4212 -52.56486,-2.0728 -22.7035,-2.91485 -3.43302,-11.17355 -9.71629,-45.79586 z m 981.82527,0.19392 -1.943,16.16137 -9.6841,45.76336 -6.6069,21.44051 -12.9874,1.68411 -52.5972,2.0728 -19.5297,-0.97173 22.3797,-24.80871 24.8089,-29.6022 22.9627,-29.27817 1.62,-2.16997 6.2184,0.38802 z m 193.5475,2.13749 -10.5584,40.29002 -10.0723,2.88252 -16.0967,5.24682 15.2545,-20.27461 z m -1368.110529,7.93499 11.17363,14.67158 15.25448,20.27444 -12.6634,-3.62738 -5.76493,-0.8739 z m 265.609479,3.36839 5.4736,3.5302 25.7154,16.22602 15.3518,9.55427 0.907,24.19352 -4.923,-5.02015 -26.8166,-29.73169 z m 826.59245,5.5705 -15.7404,18.75236 -21.2785,23.57814 0.7446,-19.43256 5.0847,-3.14153 25.6833,-16.22619 z m -295.56795,12.04826 18.3313,11.75657 35.7557,18.84952 22.3473,9.42476 -33.6182,30.15272 -1.6516,1.32826 -1.1342,-4.6963 -6.8014,-17.55394 -8.9065,-16.35569 -10.8499,-15.12495 -10.5906,-14.57441 z m -235.4568,5.57052 -2.9147,3.17404 -10.8176,15.15727 -8.9064,16.35571 -6.8014,17.55392 -3.5625,14.57441 -9.8458,-7.77297 -25.165,-22.57409 13.8941,-5.86203 35.788,-18.84953 z m 205.9517,4.89047 2.5911,2.29965 12.6634,14.02372 10.8498,15.15727 8.9066,16.32336 6.8014,17.58628 3.7568,15.4488 -10.1371,7.96734 -6.8663,4.72862 -37.4074,-16.55003 -41.3264,-22.34724 -8.0646,-5.2145 21.9911,-16.74422 31.7399,-28.04759 z m -170.5848,0.25868 30.3472,26.8492 29.926,22.76842 -15.9669,10.33148 -41.3266,22.34741 -27.5294,12.17776 -16.7441,-11.49756 -1.1341,-0.87388 0.7777,-7.22229 4.5666,-18.78484 6.8012,-17.55394 8.9066,-16.35569 1.005,-1.39293 11.8861,-13.18183 z m 429.91115,18.46083 -3.012,22.0559 -26.3632,-3.62741 15.7726,-9.9753 z m -685.54495,0.38802 4.016,2.49384 22.2826,14.08854 3.7246,2.39665 -27.0759,3.72457 -2.9149,-21.14899 z m -339.971069,8.03202 12.8255,1.87844 1.94326,0.55053 9.13311,3.72457 15.38396,7.74049 16.32336,9.52195 4.95541,3.23885 3.20628,4.95515 9.52196,16.29103 7.773029,15.41629 5.89442,14.50957 3.91893,13.66753 1.2304,8.42071 -2.10517,9.42476 -4.82572,10.1373 -7.190049,9.13323 -9.68387,8.03218 -3.17386,1.78128 h -112.96752 v -112.9351 l 1.26363,-3.40054 3.69219,-6.57476 0.58196,-0.71303 9.13331,-7.22229 10.137371,-4.8258 11.07657,-2.49382 z m 1373.033519,0 11.9832,0.25868 0.7446,0.19392 3.3036,1.55378 9.1331,7.22229 8.0646,9.68393 5.1498,9.1981 v 110.29612 h -110.2148 l -1.3929,-0.51737 -12.1777,-6.83376 -8.3558,-6.93093 -2.7532,-5.79737 -2.526,-11.07653 -0.2588,-11.95092 1.8787,-12.82548 3.9513,-13.66752 5.8942,-14.50958 7.7408,-15.41629 4.9877,-8.51788 2.1375,-1.39292 16.291,-9.52192 15.4164,-7.773 14.5096,-5.86203 13.6674,-3.95142 z m -471.46445,13.57034 24.7767,7.99968 -12.3398,9.00373 -16.4527,13.01981 -14.8011,13.05217 -13.0199,13.14931 -11.1736,13.31117 -3.1416,4.63146 -5.6353,-1.45758 -7.7084,-2.68818 0.3567,-15.64315 -0.1338,-1.23041 13.3435,-10.55834 33.8449,-30.34706 z m -438.9144,2.85019 3.757,3.82173 33.8449,30.37941 23.837,18.78468 v 7.5463 l 0.1945,8.55021 -5.6354,1.97562 -11.8539,3.04454 -9.4247,-12.98749 -11.1736,-13.27884 -13.052,-13.14915 -14.7688,-13.08465 -16.4852,-13.01966 -1.749,-1.29508 z m -353.44418,6.44507 10.16958,3.20636 56.5486,12.43679 9.61903,1.23041 5.79735,18.81702 16.32337,39.99851 -14.31527,-10.78502 -45.08338,-34.39549 -20.56591,-15.44879 -17.87797,-13.08449 z m 1142.40243,3.65973 -3.9836,2.78534 -19.4003,14.15339 -20.5981,15.51348 -45.0834,34.36316 -7.8055,5.89453 0.6799,-1.32826 19.7561,-48.35452 2.6235,-8.55021 19.3354,-2.49382 z m -288.99325,5.344 29.53735,6.73658 14.6393,2.00796 -18.461,17.32725 -33.84495,28.922 -23.157,17.94278 -30.5091,-5.27916 -15.6754,-4.08092 1.7165,-2.0403 13.0197,-13.14931 14.8011,-13.08467 16.4529,-13.01965 18.0397,-13.11699 z m -558.91,1.52227 3.012,2.0728 18.0399,13.11681 16.485,13.05217 14.7688,13.05214 13.052,13.14931 8.615,10.26683 -5.4409,1.42441 -38.6382,6.67176 -32.1608,-24.87356 -33.8774,-28.95432 -11.0763,-10.39649 24.4202,-3.3682 z m 278.5641,6.96326 16.6148,10.72018 41.3265,22.34741 26.9138,11.91857 -5.5706,3.78923 -43.2696,25.55378 -34.7517,17.29492 -45.8931,-22.8656 -38.5734,-22.76826 16.647,-7.35198 41.3266,-22.34738 z m -464.98633,3.46538 13.37606,1.71662 52.56487,2.0728 35.2374,-1.71661 0.6152,0.64836 0.4859,0.45437 5.3763,22.50925 12.0482,35.49672 3.9511,8.9064 -39.4479,0.0995 -56.8076,-4.69614 -5.86199,-11.40038 -19.75639,-48.35454 z m 928.28888,1.2951 -17.8778,43.78774 -11.0441,21.37567 -45.1158,3.72458 -49.9738,-0.13273 7.9674,-17.87779 12.048,-35.49672 3.5951,-15.09263 44.6299,2.20249 52.5972,-2.0728 z m -1033.35388,17.61876 18.91444,14.25041 18.65508,14.21806 -31.09193,-8.16152 -0.0993,-0.55054 -3.91894,-13.66753 z m 1138.67788,0.25868 -3.012,10.4935 -1.7165,11.6919 -37.8933,9.94296 16.5175,-12.56629 20.5661,-15.48114 z m -247.9908,20.69564 -1.1011,3.30354 -11.1412,25.00308 -18.91425,-1.6516 z m -641.95145,1.23041 23.3191,19.9831 8.0644,6.21838 -20.1126,1.78128 -7.5139,-16.90623 z m 438.7203,13.44068 11.3031,3.91892 -6.1858,23.09229 -5.1173,13.05214 h -64.613 l 0.3566,-0.16575 43.2696,-25.5536 z m -232.6716,1.78146 10.2022,7.02792 43.302,25.52144 11.4977,5.73253 h -68.6939 l -1.587,-4.04842 -6.2181,-23.15696 -0.9718,-6.70424 z m 271.569,11.62704 2.7854,0.90707 -4.2105,11.82141 -2.656,13.92654 h -3.5625 l 1.5871,-4.04842 z m -719.48709,0.51739 56.3865,14.80108 28.04755,4.7933 8.90657,6.54225 h -106.7491 l 7.22248,-9.94295 4.82572,-10.1373 z m 407.79029,1.84611 0.907,6.08872 4.8905,18.2018 h -2.3643 l -0.9386,-4.89048 -5.0198,-14.08854 -1.9757,-3.78941 0.8739,-0.22718 z m 719.35765,0.19392 0.033,1.94314 2.5262,11.10885 4.7933,10.10498 0.7445,0.93856 h -103.284 l 3.9188,-2.88253 2.0405,-1.52224 40.549,-6.93095 z m -376.73105,6.21841 29.5697,7.67581 -14.7039,10.20198 h -20.4364 l 0.9386,-4.89049 z m -375.6942,2.52615 2.8178,5.37634 3.5627,9.9753 h -20.3069 l -2.7207,-1.68411 -10.2991,-7.12529 5.3763,-0.93856 z m 445.6189,12.27477 15.4812,2.68818 4.6314,0.38802 h -24.0638 z m -513.503,1.32824 2.5263,1.74895 h -14.9307 l 4.5992,-0.38802 z"
     id="path4-7-4"
     inkscape:connector-curvature="0" />
  <circle
     style="color:#000000;clip-rule:nonzero;display:inline;overflow:visible;visibility:visible;opacity:1;isolation:auto;mix-blend-mode:normal;color-interpolation:sRGB;color-interpolation-filters:linearRGB;solid-color:#000000;solid-opacity:1;fill:none;fill-opacity:1;fill-rule:evenodd;stroke:#0000ff;stroke-width:0.5;stroke-linecap:butt;stroke-linejoin:miter;stroke-miterlimit:4;stroke-dasharray:none;stroke-dashoffset:0;stroke-opacity:1;color-rendering:auto;image-rendering:auto;shape-rendering:auto;text-rendering:auto;enable-background:accumulate"
     id="path814"
     cx="701.45667"
     cy="-243.54324"
     r="1.6397636" />
</svg>
