<?xml version="1.0" encoding="UTF-8" standalone="no"?>
<svg
   xmlns:dc="http://purl.org/dc/elements/1.1/"
   xmlns:cc="http://creativecommons.org/ns#"
   xmlns:rdf="http://www.w3.org/1999/02/22-rdf-syntax-ns#"
   xmlns:svg="http://www.w3.org/2000/svg"
   xmlns="http://www.w3.org/2000/svg"
   xmlns:sodipodi="http://sodipodi.sourceforge.net/DTD/sodipodi-0.dtd"
   xmlns:inkscape="http://www.inkscape.org/namespaces/inkscape"
   width="1492.9135"
   height="1492.9141"
   viewBox="-45 -990 1492.9134 1492.914"
   version="1.1"
   id="svg6"
   sodipodi:docname="lotus - projection-8.svg"
   inkscape:version="0.92.3 (2405546, 2018-03-11)">
  <metadata
     id="metadata12">
    <rdf:RDF>
      <cc:Work
         rdf:about="">
        <dc:format>image/svg+xml</dc:format>
        <dc:type
           rdf:resource="http://purl.org/dc/dcmitype/StillImage" />
        <dc:title>OpenSCAD Model</dc:title>
      </cc:Work>
    </rdf:RDF>
  </metadata>
  <defs
     id="defs10" />
  <sodipodi:namedview
     pagecolor="#ffffff"
     bordercolor="#666666"
     borderopacity="1"
     objecttolerance="10"
     gridtolerance="10"
     guidetolerance="10"
     inkscape:pageopacity="0"
     inkscape:pageshadow="2"
     inkscape:window-width="1920"
     inkscape:window-height="1026"
     id="namedview8"
     showgrid="true"
     inkscape:zoom="0.45603865"
     inkscape:cx="272.54882"
     inkscape:cy="650.68159"
     inkscape:window-x="1600"
     inkscape:window-y="27"
     inkscape:window-maximized="1"
     inkscape:current-layer="svg6"
     inkscape:document-units="cm"
     fit-margin-top="0"
     fit-margin-left="0"
     fit-margin-right="0"
     fit-margin-bottom="0"
     inkscape:snap-nodes="false"
     inkscape:snap-others="false"
     inkscape:snap-to-guides="false"
     inkscape:snap-bbox="true"
     inkscape:bbox-nodes="true">
    <inkscape:grid
       type="xygrid"
       id="grid4529"
       units="cm"
       spacingx="737.00785"
       spacingy="737.00787"
       originx="0"
       originy="0" />
  </sodipodi:namedview>
  <title
     id="title2">OpenSCAD Model</title>
  <path
     style="fill:none;stroke:#0000fb;stroke-width:0.49133856;stroke-opacity:1;stroke-miterlimit:4;stroke-dasharray:none"
     d="M -44.750005,-989.75004 V 502.66405 H 1447.6634 V -989.75004 Z m 420.389145,16.5823 -4.24276,7.80545 -0.64837,1.48915 h -0.74456 l -57.52009,0.22715 -24.58205,2.13759 15.57832,-11.5947 z m 314.96787,0.0324 0.22718,0.16616 -28.17709,13.73228 -42.16849,24.22568 -28.66278,19.1734 -18.29898,-7.70819 -9.78095,-3.20627 6.70409,-10.46117 6.5424,-13.57038 4.46945,-13.92661 1.35975,-8.38823 z m -718.774646,0.0324 H 183.93781 l 2.33199,9.4247 0.35651,7.22247 -1.29509,10.49339 -3.4977,12.89014 -5.44119,13.53816 -7.22229,14.18558 -9.00372,14.8336 -10.62316,15.54585 -12.2101,16.32316 -13.63502,17.16551 -9.68395,11.69177 -11.69172,9.71628 -17.16541,13.63502 -16.355703,12.2101 -15.545959,10.62308 -14.833437,8.9714 -14.185719,7.2547 -11.108867,4.46949 -9.424758,2.55865 -12.2747611,1.52239 -11.6272249,-0.58379 -7.967336,-1.97567 z m 222.404586,0 h 92.43379 l -6.28307,4.66382 -10.91468,8.51771 -16.67953,1.45774 -57.19609,9.81335 0.80922,-6.47759 -0.58205,-11.65934 z m 192.64056,0 H 487.5053 l -27.39971,19.20562 -35.07569,-5.63524 -43.65823,-3.43322 z m 118.31139,0 h 38.80011 l -3.23872,8.58275 -6.05654,23.18941 -0.67987,4.69603 -7.06045,-2.33191 -49.55276,-12.14525 -3.07685,-0.48592 29.08397,-20.404 z m 49.52045,0 h 18.07213 l -0.8739,5.27922 -4.46945,13.9264 -6.54224,13.57038 -6.67175,10.39653 -10.68784,-3.53048 0.71305,-4.79331 6.05638,-23.15698 z m 158.9251,0 106.9757,0.0669 1.87845,11.46501 4.46944,13.95904 6.54241,13.53796 5.441,8.48549 -12.1776,4.01599 -14.76876,6.21843 -32.19317,-21.50511 -42.13596,-24.2583 -24.25819,-11.82165 z m 117.01581,0 h 17.3921 l 5.60302,14.80097 6.05638,23.15699 0.35652,2.49381 -11.62707,3.85409 -5.37634,-8.42064 -6.54223,-13.57038 -4.50195,-13.92662 z m 28.11227,0 39.28596,0.0993 31.25395,21.89376 h -0.51737 l -49.52042,12.14526 -9.65144,3.17406 -0.35652,-2.4614 -6.05656,-23.15698 z m 56.74288,0 h 99.88289 l 5.6677,10.42875 -39.90132,3.14163 -37.89319,6.08874 -2.49384,-1.94326 z m 111.08899,0 h 72.8069 l 15.0926,11.27089 -20.7928,-1.81377 -57.5201,-0.22715 -4.34,0.35643 z m 89.6159,0 h 92.693 l -0.7777,3.20627 -0.5821,11.65955 v 6.186 l 0.3565,2.9471 -54.508,-9.35985 -20.5337,-1.78135 -12.9549,-10.10474 z m 103.0244,0 h 211.8464 v 212.52651 l -4.6963,1.16555 -11.6269,0.58379 -12.2749,-1.52219 -12.8902,-3.53028 -13.5379,-5.4087 -14.1534,-7.25469 -14.8658,-8.97141 -15.5459,-10.6555 -16.3558,-12.17767 -17.1653,-13.66745 -11.6595,-9.68407 -9.7161,-11.69176 -13.6352,-17.13288 -9.619,-12.92277 -9.5544,-13.95883 -9.0038,-14.86602 -7.2548,-14.15315 -5.4086,-13.53796 -3.5303,-12.92277 -1.489,-12.24232 0.5505,-11.65934 z m -517.13015,5.60302 29.63454,14.44475 42.16846,24.25809 27.01102,18.0723 -17.71593,7.44922 -40.48421,20.85749 -37.47234,23.05972 -3.7894,2.72056 -6.41256,-4.66361 -37.44001,-23.0275 -40.51672,-20.88992 -14.18555,-5.95946 23.48081,-15.70776 42.16846,-24.25829 z m -335.72832,13.69987 -10.62299,24.35536 -11.69191,34.88137 -5.95922,25.26194 -45.40734,-1.68409 -50.91302,2.46159 -20.69545,2.7852 5.40866,-17.58637 17.74829,-43.75531 14.86575,-12.0482 14.21824,-11.07657 39.15628,-3.4006 z m 669.83707,0 57.4878,0.19453 35.27,3.04437 12.2099,9.52196 17.2626,13.99125 18.979,46.79988 4.34,14.05609 -17.3273,-2.3317 -50.9132,-2.4616 -48.3867,1.78136 -5.2468,-22.2502 -11.6919,-34.88117 z m -659.18158,0.51732 47.99818,3.78946 24.38786,3.91893 -25.22993,19.75618 -32.84089,28.40378 -30.44405,28.95454 -1.45761,1.48895 -11.30319,-1.39291 5.4735,-23.09214 11.65957,-34.88137 z m 648.62338,0.29179 12.9873,29.76406 11.6919,34.88137 4.8257,20.33936 -12.0481,1.48896 -3.7246,-3.88632 -30.4442,-28.92211 -32.84091,-28.40378 -22.18537,-17.39205 27.23786,-4.37223 z m 121.6796,4.04842 6.0564,0.51733 55.9007,9.5868 3.2712,11.98336 5.4087,13.50553 7.2548,14.18558 9.0037,14.8336 10.6231,15.57828 3.6921,4.92298 -29.2458,-25.22992 -22.6388,-19.30269 -24.0315,-20.08039 -8.194,-6.6393 -0.1327,-0.19452 h -0.1 z m -892.33878,0.32341 -1.78127,1.3929 -17.0359,13.79713 h -0.16576 l -0.0663,0.16616 -8.29118,6.73656 -24.03151,20.08019 -22.67125,19.33531 -29.21348,25.1975 3.69223,-4.92298 3.62738,-5.02005 10.6555,-15.54586 8.97124,-14.86602 7.25477,-14.15315 5.44119,-13.53796 2.23464,-8.29137 59.17187,-10.16958 z m 207.92734,5.24679 14.47724,2.29949 49.09925,12.0482 6.08888,2.0081 -1.13424,7.87009 -0.48586,16.51748 -0.93857,1.00486 -13.76453,12.37201 -15.31929,12.2101 -16.84156,12.14526 -18.26646,12.14526 -9.48944,5.92683 -25.13274,-7.54608 -43.62589,-9.16573 -15.44879,-1.87842 25.10022,-23.86944 32.84089,-28.40378 z m 477.48804,0.42128 29.79654,23.35131 32.84066,28.40377 27.5943,26.20136 -12.0158,1.45754 -43.62586,9.16593 -27.07587,8.12906 -13.44084,-8.42065 -18.29898,-12.17788 -16.84138,-12.11283 -15.31929,-12.2099 -11.10887,-10.00788 -0.42119,-14.86562 -1.49076,-10.13736 8.25887,-2.75298 49.52042,-12.14526 z m -398.26841,19.10856 6.08888,2.0081 -6.12122,7.61092 -1.1989,1.26363 0.0995,-3.07679 z m 319.34031,0.80912 1.45758,10.10494 0.0663,1.78135 -4.82564,-4.98763 -3.65989,-4.59917 z m -303.47048,4.43707 9.61911,3.17405 14.44488,6.08874 -0.71303,0.48592 -36.14442,27.72353 -3.27122,2.88247 -1.55375,-16.64697 0.0995,-3.36838 7.51396,-7.83767 z m 286.69376,1.10111 7.57864,9.48954 11.10887,11.5947 -1.71661,18.42832 -0.13273,0.6152 -6.47741,-5.66767 -33.58575,-25.74806 11.17353,-4.72866 z m -616.62457,3.65977 -11.10887,27.39973 -6.8661,22.18535 -21.24615,2.85025 -30.24989,6.76877 28.27425,-24.35536 22.63875,-19.33531 z m 946.58769,0.13171 16.0967,13.47312 22.6388,19.30289 29.2134,25.1975 -25.2945,-5.66787 -24.5821,-3.30354 -5.765,-18.62264 z m -581.51636,9.03605 18.03979,7.5787 40.48421,20.85749 37.47235,23.05993 3.75689,2.72035 -22.12055,15.99956 -31.51313,26.52536 -28.63047,27.78838 -5.21431,5.79735 -12.7283,-10.2022 -13.44085,-13.01962 -10.29915,-12.27495 -7.99965,-12.11283 -8.29119,-16.42043 -6.28322,-17.68364 -2.36431,-10.72014 7.12527,-6.21842 36.11209,-27.75596 z m 217.51396,0.42127 2.36431,1.62006 36.11208,27.72353 9.9753,8.67982 -1.58693,7.09299 -6.28306,17.65102 -8.25885,16.45285 -10.10482,15.25447 -11.85389,14.12093 -13.44067,13.01983 -10.72034,8.61497 -7.22245,-8.06442 -28.63047,-27.78838 -31.51297,-26.49294 -19.46489,-14.08872 1.10107,-0.80911 37.47235,-23.0277 40.48421,-20.88972 z m -279.56833,15.09257 1.61843,17.35963 0.29186,1.35967 -21.01948,18.36368 -18.62267,18.36368 -21.24617,-8.38842 -3.01203,-0.90699 2.62334,-1.61844 18.26648,-12.14546 16.84156,-12.14526 15.31911,-12.2101 z m 341.36351,1.03627 5.66787,5.08489 15.31929,12.2101 16.84156,12.11283 18.26645,12.17768 6.6071,4.11326 -1.10107,0.32341 -5.89454,1.91083 -18.46082,7.31954 -21.40817,-21.14909 -18.16932,-15.86966 1.10107,-4.98763 z m -579.76761,27.17318 43.17254,1.58682 -2.753,19.72417 -0.4212,0.42107 -26.07179,29.37541 -24.09635,29.31056 -17.29491,22.60643 -27.7559,-1.45755 -39.12411,1.45755 4.40477,-35.04307 9.5866,-44.5004 5.50584,-17.7807 23.93433,-3.2387 z m 820.82733,0 50.9132,2.46139 20.566,2.7854 6.5747,21.31079 9.619,44.53282 3.9837,31.83679 -36.4359,-1.35967 -32.0635,1.68409 -18.9144,-24.71159 -24.0962,-29.34298 -22.9951,-25.90997 -2.8177,-20.11261 -0.3565,-1.49078 z m -578.0833,1.65146 1.42443,6.34791 6.28323,17.65142 8.25884,16.45265 10.1048,15.28689 6.12122,7.28711 -22.05587,-13.31121 -35.30222,-17.4569 -6.83376,-2.68813 14.44474,-14.25042 z m 332.2303,0.55056 14.73625,12.85792 17.19773,16.97098 -9.55426,3.78945 -35.33471,17.48932 -22.05589,13.27879 6.12139,-7.28731 3.62722,-5.02005 10.13732,-15.28689 8.25884,-16.42043 6.28323,-17.68364 z m -521.8265,0.13374 4.95531,0.61519 -5.9917,6.25085 0.84239,-6.0241 z m 711.617,0.35663 0.8424,3.56251 0.6484,4.59917 -7.1901,-7.44922 z m -694.38675,1.74893 24.5172,3.01195 43.62589,9.16553 14.2504,4.27537 -20.17727,12.08042 -22.12072,12.82549 -47.57714,27.27025 -15.02776,8.71203 -0.80922,-15.64312 1.35975,-30.70326 1.32825,-9.58681 z m 676.41165,0.45269 21.7967,22.63885 1.5538,11.01172 1.2304,27.30247 -0.8739,16.03197 -18.4933,-10.75276 -47.57717,-27.2054 -22.12055,-12.85772 -16.06418,-9.61922 16.06418,-4.82573 43.62592,-9.16553 z m 156.4638,1.84599 21.3757,2.85025 41.0671,9.16553 15.6109,13.31121 6.3802,5.31164 5.3118,6.38033 14.1207,16.58232 10.2669,46.02258 2.2024,16.38821 -15.1896,-4.69644 -44.5006,-9.58661 -37.375,-4.69624 -4.5019,-35.78795 -9.5866,-44.50039 z m -989.08022,0.42128 -4.04842,13.21415 -9.6191,44.50019 -4.92281,39.2538 -34.6545,4.33981 -44.53279,9.5866 -17.975137,5.5708 2.720683,-20.37178 10.072464,-45.01853 10.68783,-12.56633 5.3115,-6.38032 6.38041,-5.31164 16.58236,-14.08852 45.99022,-10.29906 z m 496.43473,10.84982 20.30694,14.70391 31.51297,26.49294 28.63062,27.78838 5.21432,5.79735 -12.63112,8.51792 -17.6836,10.10493 -18.88186,9.35986 -20.17725,8.6476 z m -3.65973,0.0324 -16.19368,110.53852 -2.85018,-1.10111 -20.08009,-8.61517 -18.88202,-9.35986 -17.68344,-10.10494 -10.46115,-7.06037 3.04435,-3.43322 28.66296,-27.78838 31.48047,-26.49294 z m -241.3836,6.70434 9.52192,2.84984 18.00745,7.09299 -4.24276,4.21032 -27.78856,30.86517 -25.29459,31.38351 -10.55815,14.70391 -22.44458,-28.37135 15.25445,38.34661 -5.11715,7.09299 -3.14154,4.85794 -22.86559,-10.03989 -32.06351,-10.75276 -2.97969,-0.67984 -3.27119,-21.14888 -0.0995,-2.17001 20.33928,-11.82144 47.54481,-27.23783 22.12071,-12.85792 20.92232,-12.50128 z m 487.75485,0.58358 2.16996,1.35988 20.92232,12.50128 22.12053,12.8255 47.57736,27.23783 23.7074,13.7647 -3.7245,23.93449 -6.0241,1.97548 -32.0635,10.72034 -20.5984,9.06846 -1.74897,-2.68814 -6.57457,-9.10088 15.67544,-39.44793 -23.0599,29.18108 -8.9389,-12.40442 -3.62739,-5.02005 -25.26208,-31.41573 -27.82091,-30.83295 -1.48911,-1.45754 16.80905,-6.6395 z m -614.71364,12.76066 -1.10107,24.93834 v 6.186 l 0.97173,18.00745 -27.04352,16.06419 -5.66786,3.46524 -21.60234,-3.07679 11.56222,-15.12478 24.12867,-29.31056 z m 164.59298,0.58196 8.45319,3.36839 35.3347,17.45689 32.51688,19.59428 24.29068,17.48931 -11.69191,13.05225 -23.25429,29.63437 -20.69544,30.24998 -9.91062,16.54991 -1.9433,0.55056 -28.43611,8.22632 -9.87811,3.04437 -6.7366,-6.60708 -18.23414,-14.93046 -41.65027,-52.6945 10.62299,-14.73633 24.97074,-31.02708 27.78856,-30.86517 z m 411.28821,0.84256 5.66771,5.60302 27.7884,30.83275 25.26225,31.41593 12.3396,17.10046 -40.48438,51.17231 -21.40799,17.55397 -3.85407,3.75683 -6.86626,-2.10517 -28.43612,-8.22632 -6.8661,-1.94326 -7.22246,-12.0482 -20.72795,-30.24977 -3.62741,-5.02025 -23.22178,-29.63437 -9.61911,-10.72034 22.1854,-15.96693 32.51704,-19.59428 35.3347,-17.48931 z m 165.40252,0.71306 15.1898,17.10047 24.0962,29.31076 13.4731,17.6186 -19.8534,2.81783 -9.3275,-5.70029 -23.5457,-14.02368 1.1342,-21.21392 z m 247.2135,28.37136 5.7973,4.24275 15.5461,10.65549 14.8334,8.9712 14.1857,7.2549 13.5378,5.44112 5.8946,1.91084 7.0604,1.91083 10.526,61.24463 0.2271,2.88246 -3.6597,-4.69624 -13.1815,-16.29074 -0.6801,-0.90698 h -0.1317 l -6.7043,-8.29137 -20.1127,-24.06377 -19.3028,-22.63865 z m -1239.305569,1.87841 -23.837163,27.62668 -19.302869,22.63865 -20.112593,24.06377 -6.704259,8.29136 h -0.132725 v 0.16616 l -13.9267114,17.19773 0.2918534,-3.27132 9.8457905,-57.35811 9.9752725,-2.72036 13.538021,-5.4089 14.185718,-7.2549 14.833438,-8.9712 15.578299,-10.65549 z m 9.586602,3.88652 -5.764869,25.78028 -3.595046,26.68747 -17.489257,5.37628 -5.894372,1.91083 -27.918085,11.36796 13.829529,-16.58233 19.302869,-22.63885 z m 1223.565167,2.04032 24.0964,27.95048 19.3029,22.63865 13.8619,16.55011 -27.9505,-11.33553 -20.2745,-6.25085 -3.0443,-22.70369 z m -241.9664,22.02365 18.6226,11.07657 -21.0841,5.01984 z m -739.89113,0.0324 2.36415,15.38416 -20.17728,-4.79351 z m 272.54022,4.08064 24.64687,20.98718 24.35535,24.29052 2.91485,3.4008 -21.57002,6.28327 -25.13258,6.99552 -52.8888,14.41232 -12.04809,3.36839 5.76503,-9.65145 18.75235,-27.36731 21.57002,-27.52941 z m 193.61211,0.25876 11.65954,13.01983 23.25413,29.66679 20.69563,30.21735 3.10919,5.18216 -7.12527,-1.97568 -52.88864,-14.41253 -25.13274,-6.99552 -24.93824,-7.28732 0.38803,-0.48591 24.3877,-24.29052 z m -826.106536,6.8014 7.967336,1.97568 11.6272251,0.55056 4.8256413,-0.58379 -9.0360674,52.53239 -1.781272,20.53369 -10.104979,12.95499 -3.497884,4.69624 z m 1459.248736,0.80932 v 93.47009 l -6.1214,-8.22633 -6.5096,-8.32358 -1.7489,-20.14504 -9.6193,-55.99783 7.676,0.9386 11.6269,-0.55056 z m -1193.60677,1.19879 20.53362,1.06787 -18.39616,25.651 -7.44912,11.01173 -11.01171,7.44902 -24.12867,17.29499 -1.16573,-22.2502 1.42441,-38.73546 z m 931.26847,0 37.699,1.3929 0.1327,0.9386 1.3598,37.34276 -1.1989,23.35131 -27.5941,-19.75618 -10.5583,-7.12521 -4.2428,-6.31569 -20.4689,-28.53346 z m -899.23731,1.68408 6.8661,0.35664 8.84172,1.26342 -8.0645,4.95541 -23.22178,14.89804 12.95496,-18.0721 z m 862.93101,0.22716 1.7166,2.23484 12.3071,17.16551 -23.319,-14.96308 -4.4046,-2.72056 11.0766,-1.58703 z m 83.7862,0.45268 36.3711,4.56676 44.5006,9.5866 16.6145,5.14953 3.4979,26.00723 2.3643,48.22481 -1.62,44.01468 -0.5506,-0.16616 -21.2462,-3.01215 -0.421,-0.38805 -29.3756,-26.07187 -29.343,-24.09619 -20.9547,-16.06419 1.5538,-29.89375 z m -1028.62517,0.25876 -1.26356,34.49272 v 6.21843 l 1.35975,26.07187 -24.42004,18.68749 -29.343,24.09619 -28.37144,25.19751 -16.776717,2.36412 -2.882505,0.68004 -1.651607,-44.98631 2.461493,-50.91294 2.979668,-22.05587 19.400058,-5.99168 44.53279,-9.5866 z m 113.12942,2.88247 12.37195,1.78135 22.67125,5.34406 0.19392,1.29503 6.63941,25.42425 8.84172,23.57806 10.84986,21.73187 2.39665,3.72461 -15.06012,28.76 -12.21008,25.8127 -25.84512,12.24273 -27.27021,14.28264 -5.53834,-3.53029 -21.69954,-10.84961 -23.57814,-8.84193 -24.67921,-6.44497 -5.66784,-23.93428 -1.7813,-12.40443 10.88219,-17.68344 17.78078,-27.69132 8.51787,-12.56654 16.80906,-11.36775 27.69121,-17.78091 z m 802.49605,0.3234 14.0237,8.61497 27.6914,17.81313 17.2947,11.65955 11.692,17.29499 17.7807,27.69132 10.1373,16.51749 -1.0364,7.35195 -6.607,27.85323 -21.4729,5.63544 -5.927,1.91084 -23.578,8.84172 -21.6995,10.84982 -2.2348,1.42451 -30.5738,-15.99935 -24.1933,-11.46522 -10.2022,-21.56995 -16.8739,-32.16081 4.1781,-6.54223 10.8497,-21.73207 8.8742,-23.57786 5.9592,-22.86559 25.7805,-6.08894 z m -464.79225,1.52219 16.19384,7.99977 20.08009,8.6476 7.31962,2.785 -0.74454,4.95541 -2.55865,0.90698 -12.30729,3.82188 -7.18995,-8.38843 z m 63.02594,1.03647 7.77315,53.0181 7.06045,19.9185 6.86608,10.65549 6.76892,6.89846 6.70426,5.11711 6.63942,4.24275 12.98732,7.70839 6.31555,4.08064 6.12122,4.6316 5.76503,5.63524 5.24683,7.44922 4.21027,11.04415 1.71659,19.56185 -6.89859,49.19663 18.62283,-46.05499 11.23837,-16.064 9.16574,-7.48164 8.25868,-3.85409 7.83783,-1.97568 7.61098,-0.97183 7.51397,-0.35644 15.0926,-0.19452 7.87015,-0.35644 8.38821,-1.0697 9.29523,-2.59087 11.27088,-5.79736 16.06417,-13.69986 33.22942,-42.039 -19.78858,49.77941 -3.82173,20.79285 0.61521,12.66339 2.42897,9.32764 3.23872,7.80525 3.59504,6.99572 7.4168,13.18173 3.43307,6.67192 2.9795,7.06057 2.20247,7.77283 0.80924,9.10089 -1.9108,11.65954 -8.29118,17.81313 -30.57375,39.12391 39.15644,-30.54136 17.78062,-8.32359 11.69191,-1.87841 9.06855,0.80912 7.77299,2.20242 7.06046,2.94731 6.7042,3.43302 13.1817,7.4166 6.9956,3.62734 7.773,3.2389 9.3601,2.39675 12.6309,0.64823 20.7928,-3.85409 49.7795,-19.78861 -42.0065,33.2295 -13.7322,16.0642 -5.765,11.27069 -2.591,9.32763 -1.1011,8.35601 -0.3565,7.87009 -0.1658,15.12499 -0.388,7.48144 -0.9385,7.61092 -2.008,7.83788 -3.8217,8.25894 -7.4815,9.16553 -16.0965,11.27089 -46.05506,18.62285 49.19656,-6.89866 19.5621,1.71671 11.044,4.1779 7.4816,5.2468 5.6354,5.76493 4.6314,6.12116 4.0808,6.31548 7.7081,13.01983 4.2428,6.63949 5.1173,6.67171 6.8985,6.76898 10.6555,6.86625 19.8859,7.06037 53.0181,7.77303 -53.0181,7.77302 -19.8859,7.06037 -10.6555,6.86604 -6.8985,6.76919 -5.1173,6.70413 -4.2428,6.60708 -7.7081,13.01982 -4.0808,6.31549 -4.6314,6.12116 -5.6354,5.76493 -7.4816,5.24679 -11.044,4.17791 -19.5621,1.71671 -49.19656,-6.89867 46.05506,18.62285 16.0965,11.2709 7.4815,9.16553 3.8217,8.25886 2.008,7.83767 0.9385,7.61113 0.388,7.481474 0.1658,15.124942 0.3565,7.86999 1.1011,8.389017 2.591,9.294424 5.765,11.271035 13.7322,16.065005 42.0065,33.2294178 -49.7795,-19.7894118 -20.7928,-3.853749 -12.6309,0.646726 -9.3601,2.397805 -7.773,3.270043 -6.9956,3.5950648 -13.1817,7.417287 -6.7042,3.432554 -7.06046,2.979851 -7.77299,2.170633 -9.06855,0.812541 -11.69191,-1.87878 -17.78062,-8.322694 -39.15644,-30.5414208 30.57375,39.1559478 8.29118,17.7812932 1.9108,11.659059 -0.80924,9.100402 -2.20247,7.77382 -2.9795,7.060773 -3.43307,6.671087 -7.4168,13.181324 -3.59504,6.996092 -3.23872,7.80533 -2.42897,9.360748 -0.61521,12.63079 3.82173,20.79265 19.78858,49.77862 -33.22942,-42.03797 -16.06417,-13.70037 -11.27088,-5.79719 -9.29523,-2.59182 -8.38821,-1.06128 -7.87015,-0.3648 -15.0926,-0.19898 -7.51397,-0.34825 -7.61098,-0.97836 -7.83783,-1.97495 -8.25868,-3.85541 -9.16574,-7.4803 -11.23837,-16.065013 -18.62283,-46.054209 6.89859,49.196572 -1.71659,19.56223 -4.21027,11.04386 -5.24683,7.44879 -5.76503,5.6347 -6.12122,4.63146 -6.31555,4.08092 -12.98732,7.70914 -6.63942,4.24177 -6.70426,5.15048 -6.76892,6.89826 -6.86608,10.62267 -7.06045,19.91876 -7.77315,53.01881 -7.74048,-53.01881 -7.06045,-19.91876 -6.86627,-10.62267 -6.76892,-6.89826 -6.70425,-5.15048 -6.63942,-4.24177 -13.01964,-7.70914 -6.31557,-4.08092 -6.08888,-4.63146 -5.79735,-5.6347 -5.24667,-7.44879 -4.17809,-11.04386 -1.71645,-19.56223 6.89844,-49.196572 -18.62266,46.054209 -11.27088,16.065013 -9.13325,7.4803 -8.29118,3.85541 -7.83781,1.97495 -7.57865,0.97836 -7.51396,0.34825 -15.12494,0.19898 -7.87002,0.3648 -8.356,1.06128 -9.29526,2.59182 -11.27087,5.79719 -16.09651,13.70037 -33.22957,42.03797 19.78873,-49.77862 3.85425,-20.79265 -0.64838,-12.63079 -2.39665,-9.360748 -3.2387,-7.80533 -3.62739,-6.996092 -7.4168,-13.181324 -3.43306,-6.671087 -2.94718,-7.060773 -2.20231,-7.77382 -0.80921,-9.100402 1.91079,-11.659059 8.29119,-17.7812932 30.57374,-39.1559478 -39.15646,30.5414208 -17.81294,8.322694 -11.65957,1.87878 -9.06838,-0.812541 -7.8055,-2.170633 -7.06044,-2.979851 -6.67176,-3.432554 -13.18165,-7.417287 -6.99577,-3.5950648 -7.77298,-3.270043 -9.35992,-2.397805 -12.66347,-0.646726 -20.7928,3.853749 -49.77945,19.7894118 42.0388,-33.2294178 13.69987,-16.065005 5.79735,-11.271035 2.59099,-9.294424 1.06957,-8.389017 0.38804,-7.86999 0.16575,-15.124942 0.35652,-7.481474 0.97173,-7.61113 1.97562,-7.83767 3.85407,-8.25886 7.48148,-9.16553 16.06417,-11.2709 46.05504,-18.62285 -49.19657,6.89867 -19.52955,-1.71671 -11.07653,-4.17791 -7.44914,-5.24679 -5.63551,-5.76493 -4.63129,-6.12116 -4.08092,-6.31549 -7.70815,-13.01982 -4.24277,-6.60708 -5.11715,-6.70413 -6.8986,-6.76919 -10.6555,-6.86604 -19.91824,-7.06037 -53.01833,-7.77302 53.01833,-7.77303 19.91824,-7.06037 10.6555,-6.86625 6.8986,-6.76898 5.11715,-6.67171 4.24277,-6.63949 7.70815,-13.01983 4.08092,-6.31548 4.63129,-6.12116 5.63551,-5.76493 7.44914,-5.2468 11.07653,-4.1779 19.52955,-1.71671 49.19657,6.89866 -46.05504,-18.62285 -16.06417,-11.27089 -7.48148,-9.16553 -3.85407,-8.25894 -1.97562,-7.83788 -0.97173,-7.61092 -0.35652,-7.48144 -0.16575,-15.12499 -0.38804,-7.87009 -1.06957,-8.35601 -2.59099,-9.32763 -5.79735,-11.27069 -13.69987,-16.0642 -42.0388,-33.2295 49.77945,19.78861 20.7928,3.85409 12.66347,-0.64823 9.35992,-2.39675 7.77298,-3.2389 6.99577,-3.62734 13.18165,-7.4166 6.67176,-3.43302 7.06044,-2.94731 7.8055,-2.20242 9.06838,-0.80912 11.65957,1.87841 17.81294,8.32359 39.15646,30.54136 -30.57374,-39.12391 -8.29119,-17.81313 -1.91079,-11.65954 0.80921,-9.10089 2.20231,-7.77283 2.94718,-7.06057 3.43306,-6.67192 7.4168,-13.18173 3.62739,-6.99572 3.2387,-7.80525 2.39665,-9.32764 0.64838,-12.66339 -3.85425,-20.79285 -19.78873,-49.77941 33.22957,42.039 16.09651,13.69986 11.27087,5.79736 9.29526,2.59087 8.356,1.0697 7.87002,0.35644 15.12494,0.19452 7.51396,0.35644 7.57865,0.97183 7.83781,1.97568 8.29118,3.85409 9.13325,7.48164 11.27088,16.064 18.62266,46.05499 -6.89844,-49.19663 1.71645,-19.56185 4.17809,-11.04415 5.24667,-7.44922 5.79735,-5.63524 6.08888,-4.6316 6.31557,-4.08064 13.01964,-7.70839 6.63942,-4.24275 6.70425,-5.11711 6.76892,-6.89846 6.86627,-10.65549 7.06045,-19.9185 z m 60.4026,0.90699 -20.79263,20.69559 -4.66379,5.44112 -12.37211,-3.88652 -2.5585,-0.87396 -0.42117,-3.01194 4.53411,-1.74894 20.08026,-8.61517 z m -415.20696,5.99188 h 0.25868 l 26.78435,8.9712 23.35129,10.26684 -12.11292,18.75234 -14.63909,25.16508 -9.29508,-18.62285 -8.8419,-23.57806 z m 709.54407,0.97162 -4.4046,16.87392 -8.8418,23.61048 -10.8498,21.69944 -0.1657,0.19453 -12.9225,-22.2502 -13.538,-20.92234 21.1166,-9.29521 z m -641.2713,8.51792 3.82173,9.65144 -7.4168,-4.11326 z m 909.1801,0.0324 13.9591,4.34001 45.796,18.59043 13.9913,17.26236 11.1089,14.18579 3.4006,39.18875 0.1946,51.56097 -0.099,1.03627 -26.4932,-11.59471 -34.8811,-11.65954 -23.5781,-5.60303 1.7165,-46.67019 -2.4614,-50.91315 z m -1244.811265,0.87396 -2.105141,15.74018 -2.493814,50.91315 v 6.21822 l 1.651587,44.14416 -21.213827,5.02005 -5.926854,1.91084 -34.88135,11.69196 -22.9302754,10.00768 0.1939205,-56.06268 3.3683602,-38.76788 7.4814805,-9.61903 13.9913722,-17.26237 46.799759,-18.97908 z m 908.305815,0.16616 1.19891,1.68409 2.29948,3.53028 -7.15761,3.98358 z m -581.71072,12.89014 18.65518,10.29926 20.59828,51.78751 -9.35991,3.07679 -30.34708,10.84983 -7.25479,2.81762 -3.01201,-3.10921 -11.98325,-15.15721 -7.1578,-11.20605 18.46101,-31.70732 z m 590.61729,0.71306 12.95498,20.04777 16.55,28.46863 -6.5745,10.36391 -14.3154,18.03987 -0.2919,0.3234 -9.94296,-3.85409 -30.37939,-10.84982 -6.34807,-2.10516 19.98309,-50.26533 z m -273.47945,1.81358 6.57457,2.07294 -5.34399,6.25064 z m -43.30204,1.10111 -1.1989,8.1941 -5.31152,-6.15378 z m 60.04625,4.14568 7.51397,2.36433 24.22569,7.06037 25.13274,7.02815 52.88864,14.37991 14.31522,3.98377 8.06452,13.47312 11.27085,21.6346 -5.14965,5.99188 -0.16575,0.19452 -0.84239,0.22716 -6.54242,0.87375 -6.86608,0.32341 -15.15728,0.16616 -8.45319,0.42127 -9.23042,1.16575 -10.33148,2.6233 -11.56238,5.37628 -9.87813,8.06442 -4.53428,-11.91852 -7.31963,-10.46116 -7.64331,-7.4168 -7.4168,-5.63525 -7.09277,-4.59918 -13.05216,-7.70818 -5.79735,-3.72461 -5.2145,-3.98358 -4.7608,-4.85814 -4.89064,-7.57851 -4.43693,-12.43685 z m -76.69346,1.03627 12.0481,14.05609 0.61519,0.84235 -4.08076,11.53007 -4.89046,7.5787 -4.76096,4.85815 -5.24684,3.98357 -5.79737,3.72462 -13.01964,7.70818 -7.09293,4.59898 -7.44914,5.63544 -7.61099,7.4168 -7.35195,10.46117 -4.50177,11.91851 -9.8783,-8.06441 -11.56222,-5.37648 -10.33164,-2.6233 -9.26276,-1.16575 -8.42085,-0.42108 -15.15728,-0.16616 -6.89844,-0.3234 -6.5099,-0.87396 -2.42915,-0.64822 -1.23041,-1.68429 -3.27104,-3.82168 13.05215,-25.00297 5.37634,-9.00383 19.23802,-5.34406 52.88883,-14.37991 25.13256,-7.02794 24.22585,-7.06057 z m 521.08158,11.65954 17.8455,12.82551 4.0809,3.10901 -0.033,0.90719 -2.0403,14.25042 -2.7854,-4.50191 z m -967.251,1.35968 -14.21806,22.12072 -3.46538,5.66766 -1.32825,-9.19795 -0.22717,-4.76088 0.6152,-0.48591 z m -28.59813,20.98718 0.0332,0.71307 2.78518,19.27047 -5.01999,8.16148 -14.96294,25.19771 -19.40022,-1.06971 -28.56562,1.29524 16.64705,-14.80118 29.34317,-24.09639 z m 1026.84393,0.51733 15.967,12.24252 29.3431,24.09619 18.6228,16.51769 -24.6469,-1.10111 -23.3513,1.26362 -13.2465,-22.28262 -5.7326,-9.32763 z m -337.63913,3.07679 27.17304,7.83767 -8.58255,8.42085 -5.95936,6.93088 -8.67988,-16.64697 z m -353.8328,1.42451 -1.1989,2.04053 -10.42883,20.01534 -7.83781,-9.13331 -5.73253,-5.60302 2.0728,-0.6152 z m -539.769108,4.08084 -1.878455,21.50532 -0.194124,57.52002 v 5.79735 l -3.368198,1.48915 -6.639578,3.59493 v -73.84338 l 9.392418,-12.63118 z m 1436.091738,2.78541 11.0764,14.89803 v 71.73842 l -9.1656,-4.98783 0.1946,-2.29948 -0.2272,-57.52002 z m -388.6819,4.27516 13.4409,25.6508 5.7325,12.14526 -24.7439,-10.6555 -11.4652,-4.43707 11.0442,-13.95903 3.6272,-5.05247 z m -660.50946,0.2918 4.14558,6.50981 13.37602,16.90634 -13.79703,5.37607 -23.15696,9.91062 7.80533,-16.45285 z m 583.81602,10.78497 3.98374,1.32827 30.34708,10.8176 8.55019,3.33576 -8.12916,8.42064 -17.06825,14.57443 -18.29898,12.98741 -7.61096,4.50191 -1.03641,-2.42917 -1.68411,-6.57445 -0.45268,-9.03605 3.20635,-17.26277 z m -505.95664,0.9072 7.83781,19.75638 3.17403,17.26257 -0.42119,9.03604 -1.71661,6.57446 -0.87388,2.17 -10.39649,-6.15358 -18.29882,-12.9874 -17.06822,-14.60665 -5.44102,-5.60303 5.86203,-2.29949 30.34707,-10.8174 z m -255.375,7.09278 0.29185,2.20243 4.5343,19.07614 -16.03183,-2.46159 z m 1016.44758,1.5538 10.5907,17.84555 -15.3517,2.36433 z m -202.2596,9.81355 12.3721,4.82552 31.2863,13.4409 5.8297,2.75278 2.7528,5.82997 13.4408,31.31867 5.2792,13.47311 -11.1414,10.78498 -14.6065,17.06825 -12.9875,18.26641 -6.2831,10.6555 -0.6152,-0.32341 -13.2141,-7.41659 -7.5138,-3.8541 -8.5828,-3.62734 -10.26676,-2.88247 -12.69595,-1.13434 -12.59863,2.04052 2.0403,-12.56633 -1.13425,-12.72824 -2.88234,-10.23442 -3.62739,-8.58275 -3.85425,-7.54628 -7.41662,-13.18173 -0.35653,-0.71307 9.23041,-5.47334 18.26648,-12.95498 17.06824,-14.60686 z m -611.99315,0.87376 9.52192,9.84577 17.06824,14.60685 18.29882,12.95498 11.98341,7.12521 -0.51738,0.97183 -7.4168,13.18153 -3.85407,7.54628 -3.62739,8.58276 -2.88251,10.23442 -1.13424,12.72823 2.0728,12.56654 -12.59879,-2.04052 -12.69579,1.13414 -10.26699,2.88266 -8.58253,3.62735 -7.51396,3.85409 -13.21399,7.4166 -1.26358,0.64843 -4.6313,-7.87029 -12.98748,-18.26642 -3.65973,-5.02025 -14.57423,-17.10047 -8.8419,-8.51791 6.60709,-16.90613 13.40834,-31.31867 0.74454,-1.58703 4.21044,-1.97547 31.28628,-13.40848 z m -243.74791,14.83339 13.73234,0.74468 -9.58676,16.54991 -27.2377,47.57718 -12.8578,22.12072 -10.55834,17.65122 -4.37226,-14.54201 -9.165758,-43.62583 -2.817663,-23.15718 21.181331,-20.404 10.97934,-1.52239 z m 1102.69536,0 30.7032,1.39311 6.4128,0.87376 22.9951,22.15313 -2.3319,18.97908 -9.1658,43.59341 -5.603,18.68749 -9.2952,-15.57828 -12.8577,-22.12071 -27.2379,-47.57719 -11.2708,-19.46479 z m -1077.95131,1.32827 4.30758,0.22735 19.78875,3.07679 1.16573,4.92279 10.72017,32.03112 9.55445,21.66722 -6.25091,4.04862 -5.66768,4.04842 -38.63824,-15.35173 28.59812,22.60643 -16.06417,11.56228 -31.41581,25.29456 -30.83293,27.78838 -2.7205,2.72076 -5.89453,-14.96308 -4.14561,-13.86197 3.85408,-6.15358 12.50163,-20.88971 12.82545,-22.12072 27.23771,-47.57718 z m 1048.93211,0.22735 h 0.3565 l 12.7282,21.95861 27.2378,47.57718 12.8579,22.12072 12.5015,20.88971 2.5911,4.14569 -2.9149,9.68366 -7.2547,18.42852 -4.9554,-5.05226 -30.8652,-27.78859 -31.3835,-25.26214 -13.4407,-9.68387 28.5981,-22.574 -38.6382,15.35173 -8.2912,-5.99167 -3.8218,-2.4616 10.7202,-24.4202 10.7527,-32.03112 0.3233,-1.35968 z m 82.9118,3.07679 8.4855,1.19879 -0.7444,6.25104 z m -1215.047292,0.64843 -5.926875,5.70009 -0.550535,-4.59898 1.975618,-0.48591 z m 118.084712,1.35967 19.49723,5.11732 20.30694,7.61092 21.69952,10.84982 1.49076,0.9386 -26.65501,15.48122 -17.19775,11.10878 -8.48535,-19.27047 z m 979.84968,0.9386 -9.2953,27.8208 -9.7161,22.02345 -19.6269,-12.72823 -23.2864,-13.50554 19.8534,-9.91061 23.5781,-8.84172 z m 135.2499,0.48592 23.9991,5.70009 29.6022,9.87819 31.5778,13.79692 -3.4008,43.39928 -4.8582,30.05545 -21.0518,-26.94623 -28.4038,-32.84085 -28.9867,-30.47672 z m -1249.313147,0.58358 1.328244,10.88225 -3.174014,3.04437 -28.921994,30.44409 -28.436097,32.84105 -18.20181767,23.28657 -4.04841933,-25.19751 -3.6273869,-46.11963 28.1770909,-12.27475 34.881188,-11.65974 z m 993.808647,3.27112 11.8538,5.60303 26.8168,14.05609 -7.9996,5.08489 -15.2545,12.08042 -3.6599,-9.39228 z m -739.76157,1.03627 -9.97529,23.28667 -4.89049,12.50149 -17.6836,-13.99146 -4.6638,-2.97952 23.51332,-12.30717 z m -251.197054,19.0115 2.169964,17.6188 9.165732,43.62603 6.833762,22.86539 -7.157773,11.4326 -12.145258,18.29904 -12.145258,16.8415 -12.210101,15.31911 -11.594722,12.92276 -12.404285,0.3234 -11.886231,1.74894 -2.36433,-7.12542 -12.1129171,-49.52044 -2.2994673,-14.218 21.9910274,-28.11218 28.43628,-32.84085 z m 1243.386324,1.35988 24.6145,25.90996 28.4362,32.84085 24.8735,31.80438 -1.5224,9.32743 -12.1452,49.52044 -3.2387,9.78113 -8.7447,-1.29503 -16.5177,-0.45268 -1.0032,-0.97163 -12.372,-13.73229 -11.9187,-14.96308 -8.7769,-12.2099 -12.1777,-18.26662 -8.4206,-13.47332 8.129,-27.04329 9.1657,-43.62583 z m -203.7818,3.75683 27.0759,15.74038 21.311,13.79693 -10.3963,18.72011 -50.4274,20.04777 -1.5537,-4.82592 -10.8497,-30.34684 -4.5668,-11.72438 17.3274,-13.69987 z m -835.79027,0.0993 8.93889,5.70029 18.03979,14.28284 1.65161,1.58702 -3.27104,8.35601 -10.84984,30.37926 -2.591,7.90251 -51.33421,-20.404 -9.32758,-16.8415 -0.48587,-1.10111 19.01136,-12.27474 z m 1137.25267,4.92278 10.0077,5.44132 v 101.66418 l -17.4569,-24.87369 -1.9107,-2.65572 6.0563,-37.73141 z m -1438.455855,0.0669 3.530224,44.88904 5.2791561,32.71137 -1.134222,1.45754 -18.4609871,26.29862 v -99.49417 z m 1099.747955,23.8048 2.85,7.35196 10.8499,30.34703 1.7812,5.44113 -19.9505,7.93493 -17.295,3.17385 -9.036,-0.45268 -6.5748,-1.68409 -2.7205,-1.13414 6.9957,-11.78903 9.8134,-13.82955 14.1209,-16.51769 z m -762.10899,0.32341 6.83376,6.60707 14.60675,17.10067 12.98746,18.26641 5.31152,8.97121 -2.0728,0.84235 -6.57476,1.68408 -9.03606,0.45289 -17.26241,-3.17405 -19.98309,-7.93494 2.81768,-8.55033 10.84984,-30.34683 z m 856.03259,5.66766 2.3319,1.52239 3.1416,2.26706 -9.7163,3.8541 z m -950.08565,0.51915 3.75691,6.76878 -8.77706,-3.49787 0.48588,-0.35643 z m -17.94263,12.59855 50.78352,40.16058 16.97106,20.69539 5.14949,5.27922 -1.58692,5.14953 -8.22653,28.40378 -2.13746,7.67597 -16.8739,10.10473 -30.24989,20.69559 -29.63451,23.22183 -12.37195,11.07657 -14.80109,-20.53369 -19.59438,-32.51704 -17.48928,-35.33466 -5.18199,-13.11689 4.63146,-4.69624 30.83276,-27.78838 31.41597,-25.26214 z m 986.42438,0 15.7078,11.30331 31.4158,25.26215 30.8329,27.78838 6.8985,6.99572 -3.7892,9.61903 -17.4894,35.33466 -19.5943,32.51704 -16.7767,23.28667 -14.0562,-12.63118 -29.6345,-23.22182 -30.2498,-20.72781 -14.1857,-8.45327 -1.1657,-4.27517 -8.2587,-28.40378 -2.7205,-8.90656 2.6556,-2.72036 16.5824,-20.2423 z m -1092.78469,43.39928 1.71645,5.63524 7.74065,19.6269 -19.659248,19.95071 -17.003382,19.4648 -3.012029,-0.67984 -15.707984,-1.45754 4.437111,-4.92279 12.210101,-15.35173 3.659727,-4.98763 12.14542,-16.87392 12.145264,-18.26662 z m 1198.85339,1.0695 2.6235,4.1779 12.1453,18.26662 12.1452,16.8415 12.2101,15.31931 6.4774,7.22248 -11.8536,1.10091 -6.5423,1.45774 -19.3353,-22.15293 -17.4244,-17.65122 9.1333,-23.12476 z m -1307.1571729,3.72461 1.0032396,6.186 12.1452579,49.52045 1.8137745,5.47333 H 8.3318264 l -23.1571254,6.08895 -5.926854,1.91083 -7.4168,2.81783 v -40.77599 l 1.359754,-2.17 z m 1415.9141729,1.91084 21.2463,30.24977 0.3233,0.55055 v 38.34682 l -10.0399,-3.78946 -23.1894,-6.08894 -3.336,-0.48571 2.6881,-8.12946 12.1453,-49.52044 z m -295.8916,23.54563 1.1989,3.85409 6.3802,22.02345 -3.9512,-2.3317 -18.2016,-9.52196 5.4086,-4.6316 z m -824.45473,0.64843 6.6719,6.83382 8.19402,7.02815 -20.98714,10.94688 -1.29509,0.74448 z m -173.82339,4.46949 3.30354,8.42065 17.48926,35.30244 12.85782,21.34341 -9.10091,-7.61133 -15.25445,-10.13695 -16.45287,-8.25895 -17.651102,-6.28326 -4.955307,-1.06788 12.015735,-13.73229 z m 1171.90742,0.35643 15.4488,15.67575 14.3475,16.45264 -1.3929,0.2918 -5.8946,1.91103 -17.6511,6.28307 -16.4528,8.29116 -15.2545,10.10494 -7.8379,6.54223 15.2545,-25.26214 17.4569,-35.33466 z m -196.3004,15.54606 20.4041,10.62308 13.8294,8.25894 5.5707,20.01535 14.3799,52.88862 6.9957,25.13287 7.0928,24.22567 0.8093,2.65572 -14.8983,12.82549 -11.7566,-4.21032 -7.611,-4.89056 -4.8258,-4.72866 -4.0161,-5.2466 -3.692,-5.79735 -7.7407,-13.01982 -4.5989,-7.12521 -5.6032,-7.4166 -7.449,-7.61133 -10.4288,-7.35195 -11.9509,-4.53414 8.0968,-9.87819 5.3764,-11.56228 2.6233,-10.33169 1.1658,-9.23037 0.388,-8.45307 0.1939,-15.12478 0.3234,-6.89867 0.8423,-6.50981 0.4212,-1.52238 z m -778.82087,0.45269 4.72864,4.04842 1.26356,0.9386 0.35654,1.26362 0.84236,6.50981 0.32337,6.89867 0.16575,15.12478 0.4212,8.45307 1.16575,9.23057 2.6235,10.33149 5.37615,11.56228 8.06452,9.87839 -11.91859,4.53393 -10.46115,7.35216 -7.41664,7.61113 -5.6355,7.41659 -4.56662,7.12521 -7.74049,13.01983 -3.72457,5.79735 -3.98375,5.24659 -4.85813,4.72866 -7.57864,4.89056 -11.85375,4.24275 -2.00796,-1.52219 -12.8578,-11.04414 1.87846,-6.0241 7.06043,-24.22567 7.0281,-25.16508 14.37991,-52.8564 4.63145,-16.61475 11.10887,-6.6393 z m -260.459809,20.46884 15.22213,1.39291 -4.242766,4.85814 -26.914014,35.07549 -4.016079,-9.5866 -4.598955,-13.82955 8.323504,-6.67171 11.627063,-11.10879 z m 1302.849579,0 h 0.6154 l 9.7161,9.32743 10.882,8.74487 -3.4976,10.59065 -5.6679,13.47311 -1.199,-1.65166 -27.7235,-36.14439 -2.2671,-2.55845 z m 15.4164,0.42107 5.7327,0.16616 5.603,0.80932 -2.17,6.54224 -8.356,-6.73656 z m -1337.698513,0.13172 -2.68818,2.59107 -5.797351,4.6312 -1.943136,-5.89442 8.712217,-1.29503 z m 1359.106713,2.33191 6.5099,0.97162 20.5012,5.34386 12.7283,4.7933 v 18.13694 l -6.7366,-1.10091 -13.9266,-4.4695 -13.6026,-6.54223 -9.1982,-5.89461 z m -1313.084176,0.42107 10.914684,2.39675 13.116832,4.66382 16.45286,8.25874 15.25445,10.13736 14.12088,11.82145 13.01982,13.4409 9.29524,11.56208 -6.80142,6.08894 -27.7884,28.63052 -26.49299,31.51299 -15.448814,21.3432 -22.995099,-37.34255 -20.889815,-40.51682 -9.84577,-23.38373 2.914846,-4.34001 25.456591,-33.19707 z m -66.52366,0.0324 3.627225,10.9793 -11.8860689,7.61113 -13.4731774,6.47739 -8.1616817,2.6235 -10.007797,1.61843 v -17.71586 l 13.343675,-5.05247 23.1571046,-6.02389 z m 1312.662936,0.74468 7.352,8.38822 27.7237,36.11197 2.6882,4.0162 -8.2588,19.6267 -20.8575,40.48439 -23.0599,37.47204 -2.17,3.01215 -16.8415,-23.28647 -26.5252,-31.51298 -27.7885,-28.63052 -4.9878,-4.50192 7.4817,-9.32763 13.0197,-13.4407 14.1207,-11.82145 15.2547,-10.13736 16.4527,-8.25874 17.6514,-6.28307 z m -186.746,1.35967 4.4048,2.6233 30.2499,20.72801 29.6345,23.22182 13.9589,12.53391 -21.6347,25.42405 -24.2907,24.38799 -1.6184,1.35967 -6.672,-22.80075 -6.9956,-25.16509 -14.4124,-52.8562 z m -872.32339,0.29179 -1.68411,6.05652 -14.38007,52.88862 -6.9956,25.13266 -7.09295,24.22588 -0.6152,2.0079 -4.21042,-3.62735 -24.2907,-24.35536 -19.82107,-23.25404 12.11292,-10.88224 29.63452,-23.22183 30.24989,-20.72781 z m 1119.05099,18.20178 6.5423,4.21032 13.5704,6.51002 19.8534,6.41275 6.7366,1.10091 v 107.04065 l -0.3567,0.74448 -11.3031,-23.1892 -24.2583,-42.13626 -21.8615,-32.71137 8.4857,-20.17725 z m -1365.778434,0.19453 3.562544,10.72034 6.866102,16.35538 -20.2420957,30.31481 -24.2581763,42.13607 -12.695976,26.03944 v -107.00803 l 10.007797,-1.61844 13.9590327,-4.50212 13.5703606,-6.50981 z m 14.9306,37.73121 6.963265,16.55011 20.857475,40.51682 23.059941,37.43981 3.562565,4.95521 -3.562565,4.95541 -23.059941,37.43982 -20.857475,40.51662 -6.963265,16.55011 -15.222129,-22.73612 -24.2581751,-42.16848 -16.8090559,-34.55736 16.8090559,-34.55735 24.2581751,-42.13607 z m 1335.269634,0.71307 16.809,25.13286 24.2581,42.16848 15.3193,31.44815 -15.3193,31.44814 -24.2581,42.16829 -16.809,25.13286 -5.3441,-12.72823 -20.8575,-40.51682 -23.0599,-37.47225 -5.8298,-8.03199 5.8298,-8.0322 23.0599,-37.47224 20.8575,-40.51661 z m -143.0555,10.78498 5.0201,4.53433 27.7884,28.63053 26.4928,31.48056 15.5136,21.44047 -110.5382,-16.16126 1.6841,-4.46949 8.6474,-20.04796 9.3276,-18.91404 10.1373,-17.65122 z m -1049.41786,0.3234 7.80531,11.62733 10.1373,17.65101 9.3276,18.91424 8.64737,20.04797 0.51737,1.35967 -111.769,16.35579 14.34756,-19.85365 26.39582,-31.35088 27.7884,-28.63073 z m 1022.47146,25.78048 -7.9997,16.19368 -8.6473,20.08018 -2.2997,6.0241 -3.5302,-0.48591 -0.2919,-0.90699 -4.4696,-14.21799 4.3076,-3.69219 z m -994.97459,0.42128 20.59847,20.66317 6.86608,5.89441 -3.36836,10.84981 -1.35975,3.98378 -3.65975,0.51733 -1.13422,-2.97953 -8.61503,-20.04777 z m 959.47809,33.39139 1.9756,6.34811 -8.0322,-1.16575 z m -923.72235,0.2918 5.76503,4.95541 -7.64347,1.1009 z m -138.58583,29.44025 111.769,16.35558 -0.51737,1.35987 -8.64737,20.0802 -9.3276,18.88181 -10.1373,17.68364 -7.80533,11.56229 -6.80142,-6.05652 -27.7884,-28.66295 -26.39582,-31.35088 z m 1199.56598,0.19453 -15.5136,21.44047 -26.4928,31.48057 -27.7884,28.63052 -5.0201,4.53434 -5.9269,-8.84193 -10.1373,-17.65122 -9.3276,-18.91403 -8.6474,-20.04798 -1.6841,-4.43707 z m 7.2549,6.25064 2.17,3.01195 23.0599,37.47244 20.8575,40.51662 8.2588,19.59448 -2.6882,4.01599 -27.7237,36.112004 -7.352,8.38835 -8.7444,-1.91078 -17.6514,-6.28322 -16.4527,-8.291184 -15.2547,-10.07248 -14.1207,-11.85374 -13.0197,-13.4409 -7.4817,-9.32744 4.9878,-4.50211 27.7885,-28.63032 26.5252,-31.51299 z m -1213.913834,0.0324 15.448814,21.34341 26.49299,31.51299 27.7884,28.63032 6.80142,6.08894 -9.29524,11.56228 -13.01982,13.4407 -14.12088,11.85383 -15.25445,10.10496 -16.45286,8.258834 -13.116832,4.66364 -10.914684,2.39681 -9.716105,-11.07653 -25.456591,-33.197274 -2.914846,-4.3398 9.84577,-23.38373 20.889815,-40.53526 z m 1336.824134,3.20627 0.3565,0.74468 v 107.04046 l -6.7364,1.13434 -19.8536,6.38017 -13.5702,6.50991 -6.5423,4.24277 -2.591,-7.83784 -8.4855,-20.17725 21.8615,-32.67915 24.2581,-42.16828 z m -1458.892436,0.25877 12.695976,26.03944 24.2581763,42.13627 20.2420957,30.31441 -6.866102,16.35576 -3.562544,10.72032 -9.2304117,-5.89453 -13.5703606,-6.54224 -13.9590327,-4.46953 -10.007797,-1.65146 z m 251.067556,7.90251 3.65972,0.55055 1.35976,3.95116 3.36838,10.84982 -6.86611,5.89441 -20.59844,20.69559 9.32757,-18.91403 8.61504,-20.04797 z m 956.95168,0.0324 2.2997,6.05632 8.6473,20.04797 7.9997,16.19368 -22.9303,-22.99508 -4.3076,-3.65977 4.4697,-14.25062 0.2918,-0.87376 z m -942.15059,2.13738 7.64347,1.13434 -5.76503,4.92299 z m 927.57639,0 -1.9756,6.34811 -6.0566,-5.18195 z m -907.56098,3.91894 11.85375,4.21052 7.57864,4.89037 4.85813,4.76108 3.98376,5.21437 3.72457,5.79735 7.74048,13.05205 4.56662,7.09278 5.63551,7.4168 7.41663,7.64355 10.46115,7.31933 11.91859,4.53434 -8.06451,9.87839 -5.37616,11.56208 -2.6235,10.33171 -1.16575,9.23041 -0.4212,8.453024 -0.16575,15.124945 -0.32336,6.89826 -0.84237,6.543408 -0.35654,1.26026 -1.26356,0.912034 -4.72864,4.049412 -23.18944,-12.113424 -11.10887,-6.608068 -4.63146,-16.614037 -14.3799,-52.888734 -7.02811,-25.13267 -7.06043,-24.22567 -1.87845,-6.05652 12.8578,-11.04414 z m 887.41588,0.0324 14.8982,12.79328 -0.8092,2.65572 -7.0927,24.22567 -6.9958,25.13286 -14.3799,52.88856 -5.5707,20.015082 -13.8294,8.259675 -20.4041,10.622668 -6.0565,-5.181993 -0.4212,-1.492417 -0.8424,-6.543408 -0.3234,-6.89826 -0.1941,-15.124943 -0.388,-8.453024 -1.1657,-9.23041 -2.6234,-10.33171 -5.3763,-11.56208 -8.0968,-9.87839 11.9509,-4.53434 10.4288,-7.31933 7.449,-7.64355 5.6031,-7.4168 4.599,-7.09279 7.7406,-13.05204 3.6921,-5.79735 4.0161,-5.21437 4.8258,-4.76109 7.611,-4.89036 z m -910.57282,19.6269 0.6152,2.0081 7.09295,24.22567 6.9956,25.16509 14.38007,52.856374 1.68411,6.05637 -7.09279,-4.24276 -30.24989,-20.727944 -29.63452,-23.22171 -12.11292,-10.88224 19.82107,-23.25425 24.2907,-24.35535 z m 933.79472,0.3234 1.6185,1.39291 24.2907,24.35536 21.6346,25.45667 -13.9588,12.50149 -29.6345,23.22184 -30.2499,20.727964 -4.4048,2.62334 2.6235,-9.42476 14.4124,-52.888574 6.9956,-25.13286 z m -988.27047,58.84808 12.37195,11.07636 29.63451,23.22189 30.24989,20.695464 16.8739,10.105466 2.13746,7.675968 8.22653,28.402299 1.58692,5.150483 -5.14949,5.279825 L 259.04434,-6.7132462 208.26082,33.447585 189.89718,20.23309 158.48121,-5.0284882 127.64845,-32.817231 l -4.63146,-4.696118 5.18199,-13.116664 17.48928,-35.302873 19.59438,-32.549354 z m 1041.80687,0.35643 16.7767,23.28665 19.5943,32.517034 17.4894,35.335209 3.7892,9.617767 -6.8985,6.996112 -30.8329,27.7887428 -31.4158,25.2615782 -15.7078,11.304206 -53.828,-42.5255052 -16.5824,-20.2420958 -2.6556,-2.719507 2.7204,-8.90638 8.2587,-28.40396 1.1658,-4.276585 14.1857,-8.452362 30.2497,-20.727964 29.6345,-23.22176 z m 144.6747,14.38011 5.6679,13.5055 3.4976,10.55833 -10.8822,8.744714 -9.7161,9.32757 h -0.6152 l -19.141,-1.74893 2.2671,-2.591 27.7237,-36.144514 z m -1330.832429,0.84235 26.914014,35.075704 4.242766,4.85798 -15.22213,1.39291 -4.599117,-0.16576 -11.627063,-11.10886 -8.323504,-6.671734 4.598955,-13.82955 z m -63.900507,8.64739 10.007797,1.6201 8.1616817,2.62333 13.4731774,6.47758 11.8860689,7.610974 -3.627225,10.97934 -3.4007204,-0.48585 -23.1571046,-6.05656 -13.343675,-5.05247 z m 1459.248736,0.55054 v 18.104464 l -12.7283,4.79346 -20.5012,5.37634 -6.5099,0.93856 -3.7246,-11.20603 9.1982,-5.927034 13.6026,-6.50975 13.9266,-4.50193 z m -178.5195,3.01202 7.8378,6.54224 15.2543,10.104974 16.453,8.29118 17.6511,6.28339 5.8946,1.910289 1.3929,0.298479 -14.3477,16.453028 -15.4488,15.67532 -1.9757,-4.95482 -17.4569,-35.302866 z m -1103.5698,0.84239 -12.85782,21.343324 -17.48926,35.302872 -3.30354,8.420526 -17.748284,-17.975294 -12.015735,-13.70035 4.955307,-1.094425 17.651102,-6.282899 16.45287,-8.25885 15.25445,-10.137294 z m 1230.1074,20.339254 2.17,6.50992 -5.603,0.80921 -5.7327,0.16576 0.8093,-0.77773 z m -1355.349744,0.0995 5.797351,4.63145 2.68818,2.591 h -1.71645 l -8.712217,-1.29507 z m -51.917092,3.27121 7.4168,2.78535 5.926875,1.91077 23.1571046,6.088396 h 0.2271929 l -1.8137745,5.473826 -12.1452782,49.553106 -1.0032193,6.153723 -20.4039405,-29.083817 -1.359774,-2.137482 z m 1459.248736,0.87388 v 38.34724 l -0.3234,0.547212 -21.2462,30.249569 -0.1662,-1.127596 -12.1452,-49.519935 -2.6884,-8.128692 3.336,-0.480871 23.1894,-6.089227 z m -103.1216,10.396004 6.5423,1.459247 11.8536,1.094424 -6.4774,7.223285 -12.2101,15.318806 -12.1452,16.841052 -12.1453,18.267126 -2.6235,4.177112 -0.421,-1.459246 -9.1334,-23.124116 17.4245,-17.650289 z m -1253.26452,0.77937 17.003382,19.464388 19.659248,19.951905 -7.74065,19.625239 -1.71645,5.6363368 -1.32825,-2.1374608 -12.145258,-18.267147 -12.14542,-16.841051 -3.659747,-5.019481 -12.210081,-15.351957 -4.437111,-4.92331 15.707984,-1.459247 z m -56.062674,0.198986 11.886231,1.749439 12.404285,0.315055 11.594722,12.922641 12.210101,15.318807 12.145258,16.874222 12.145258,18.2671258 7.157773,11.465057 L 91.342172,25.351555 82.17644,68.94494 80.006476,86.56372 52.282899,57.382071 23.846619,24.542337 1.8555916,-3.5697502 4.1550589,-17.789146 16.267976,-67.309081 Z m 1365.778394,0.44772 3.2387,9.780279 12.1454,49.519935 1.5224,9.3275938 -24.8737,31.8049862 -28.436,32.841375 -24.6145,25.909965 -1.6185,-13.149835 -9.1657,-43.626556 -8.1292,-27.0425262 8.4206,-13.4731758 12.1779,-18.267147 8.7769,-12.209594 11.9185,-14.962272 12.3722,-13.733522 1.0032,-0.978356 16.5177,-0.447719 z m -1102.66277,7.578136 1.29507,0.746219 20.98717,10.947673 -8.19403,7.027621 -6.67191,6.833579 z m 839.45007,0.315076 -6.3803,22.023044 -1.1989,3.85541 -9.1656,-9.392255 -5.4086,-4.631458 18.2016,-9.490107 z m 309.8831,35.400051 V 70.979605 l -10.0077,5.440675 -3.3036,-41.845608 -6.0563,-37.7315362 1.9107,-2.654826 z m -1459.248736,1.684758 18.4609875,26.2979868 1.1342423,1.459246 -5.2791568,32.7435452 -3.530224,44.888478 -10.78518,-5.893379 z m 1311.691636,1.193938 7.2547,18.3964668 2.9149,9.68410897 -2.5911,4.14560303 -12.5015,20.9219742 -12.8579,22.120876 -27.2378,47.576495 -12.7281,21.926863 h -0.3566 l -22.8979,-3.53039 -0.3233,-1.35975 -10.7527,-32.032166 -10.7202,-24.419209 3.8218,-2.462486 8.2911,-5.991211 38.6383,15.351977 -28.5981,-22.5736 13.4406,-9.684089 31.3834,-25.2632392 30.8654,-27.7870818 z m -1164.49059,0.348226 2.7205,2.721169 30.83293,27.7870808 31.41581,25.2947492 16.06417,11.562889 -28.59812,22.606731 38.63824,-15.351957 5.6677,4.04777 6.25089,4.049413 -9.55444,21.66651 -10.72016,32.063696 -1.16575,4.89014 -19.78874,3.07768 -4.30759,0.23216 -11.07653,-19.076374 -27.2377,-47.578137 -12.82548,-22.120876 -12.50161,-20.8888232 -3.85407,-6.153723 4.14558,-13.8628608 z m 223.27897,25.7474518 9.03606,0.447719 6.57476,1.68311597 2.0728,0.84569203 -5.31152,8.9710622 -12.98746,18.267147 -14.60675,17.101395 -6.83376,6.637917 -1.52227,-3.949919 -10.84984,-30.3474 -2.81768,-8.5183588 19.98309,-7.9678214 z m 718.28872,0 17.295,3.173852 19.9505,7.9678416 -1.7812,5.4091666 -10.8499,30.3474 -2.85,7.350964 -9.1657,-8.84172 -14.1209,-16.517709 -9.8134,-13.829691 -6.9957,-11.7884012 2.7205,-1.12761603 6.5748,-1.68309597 z m -691.73106,7.190113 1.26358,0.646705 13.21399,7.4173082 7.51399,3.853729 8.58253,3.626576 10.26696,2.88366 12.6958,1.127617 12.59879,-2.03963 -2.0728,12.597617 1.13424,12.697131 2.8825,10.266134 3.62741,8.549867 3.85407,7.546647 7.4168,13.181324 0.51737,1.011527 -11.98342,7.092282 -18.29881,12.987312 -17.06823,14.57425 -9.52194,9.84662 -15.0601,-5.86187 -31.28629,-13.44167 -4.21044,-1.97497 -0.74454,-1.59191 -13.40833,-31.319137 -6.6071,-16.905712 8.8419,-8.518378 14.57423,-17.101395 3.65975,-5.019481 12.98746,-18.267147 z m 664.55806,0.331651 6.2831,10.6541582 12.9875,18.267147 14.6065,17.068244 11.1414,10.78516 -5.2792,13.473178 -13.4408,31.319138 -2.7528,5.8287 -5.8297,2.75267 -31.2863,13.44167 -12.3721,4.82548 -12.20996,-12.63081 -17.06824,-14.6074 -18.26648,-12.954154 -9.23041,-5.473847 0.35653,-0.713027 7.41662,-13.181345 3.85426,-7.546627 3.62738,-8.549867 2.88235,-10.266154 1.13424,-12.697111 -2.0403,-12.597637 12.59863,2.03963 12.69596,-1.127596 10.26682,-2.883681 8.5827,-3.626556 7.5138,-3.853749 13.2141,-7.4172872 z m 369.9616,1.812437 4.8582,30.0555472 3.4008,43.399383 -31.5778,13.798202 -29.6022,9.909626 -23.9991,5.66785 -1.5222,-12.566115 28.9867,-30.476742 28.4038,-32.841395 z M -0.24954988,9.405941 17.952247,32.659399 46.388365,65.500794 75.310338,95.944364 78.484373,98.988896 77.156129,109.87191 55.132578,104.62358 20.25139,92.964514 -7.9257006,80.690239 -4.2982934,34.569688 Z M 1297.4504,12.838497 l 5.603,18.68668 9.1658,43.626555 2.3319,18.947024 -22.9951,22.152394 -6.4128,0.91203 -30.7032,1.35976 -17.6512,-0.94521 11.2708,-19.464394 27.2379,-47.578137 12.8577,-22.120876 z m -1001.7111,0.298479 2.591,7.9015 10.84984,30.380571 3.27104,8.387355 -1.65161,1.558739 -18.03979,14.315567 -8.93888,5.667848 -30.21756,-17.587251 -19.01136,-12.274274 0.48586,-1.094445 9.32759,-16.842713 z m 811.4349,0 50.4274,20.048095 10.3963,18.719831 -21.311,13.79654 -27.0759,15.739981 -12.0804,-7.707478 -17.3274,-13.700371 4.5668,-11.723719 10.8496,-30.3474 z m -1001.93782,0.746219 10.55834,17.650269 12.8578,22.120876 27.2377,47.57814 9.58676,16.54922 -13.73234,0.7462 -30.70327,-1.35975 -10.97934,-1.55874 L 88.880699,95.204792 91.698362,72.047505 100.86412,28.42095 Z m 1066.80992,25.036046 9.7163,3.853749 -3.1416,2.266803 -2.3319,1.525589 z m -942.08594,0.348246 -3.75691,6.80209 -4.53427,-2.97987 -0.48588,-0.315055 z m 0.55054,21.50566 17.19773,11.108543 26.655,15.481298 -1.49075,0.945185 -21.69952,10.881371 -20.30694,7.611316 -19.49721,5.08414 10.65549,-31.836502 z m 941.6974,0.315075 9.7161,22.024706 9.2953,27.820242 -18.4932,-4.82546 -23.5781,-8.874899 -19.8534,-9.90962 23.2864,-13.506349 z m -855.87055,8.68087 4.89049,12.501447 9.97529,23.286631 -13.69986,-6.51024 -23.51332,-12.307446 4.6638,-2.97985 z m 770.04385,0 15.2545,12.080253 7.9996,5.084161 -26.8168,14.056894 -11.8538,5.60316 11.7566,-27.432213 z m -1114.549236,12.047102 6.639578,3.628217 3.368219,1.459247 v 5.797189 l 0.194123,57.519273 1.878435,21.53885 -2.68816,-3.46571 -9.392418,-12.6308 z m 1459.248736,0.48087 v 71.738666 l -11.0764,14.93076 1.8784,-21.86219 0.2272,-57.4861 -0.1946,-2.333145 z m -1439.6866773,8.74555 22.9302753,10.007476 34.88135,11.69223 5.926875,1.91029 21.213826,5.01948 -1.651607,44.14558 v 6.21839 l 2.493814,50.91286 2.105141,15.73998 L 63.229923,231.7341 16.430164,212.7539 2.4387918,195.49166 -5.0426887,185.87223 -8.4110692,147.1043 Z M 1412.4584,91.39084 l 0.099,1.028103 -0.1945,51.559587 -3.4006,39.1891 -11.109,14.2194 -13.9913,17.26225 -45.796,18.59049 -13.959,4.30643 2.6559,-19.72307 2.4614,-50.91284 -1.7165,-46.67109 23.578,-5.60318 34.8812,-11.65906 z m -1128.15181,1.492418 27.2702,14.282402 25.84512,12.24276 12.2101,25.81378 15.06011,28.75881 -2.39665,3.72439 -10.84984,21.73287 -8.84172,23.57846 -6.63942,25.4556 -0.19392,1.26026 -22.67125,5.34451 -12.37194,1.78094 -17.68361,-10.88301 -27.69123,-17.77963 -16.80906,-11.36886 -8.51785,-12.56613 -17.78078,-27.69089 -10.88218,-17.68345 1.78127,-12.40527 5.66787,-23.93334 24.6792,-6.44555 23.57814,-8.84172 21.69952,-10.849869 z m 834.98061,0.198986 2.2348,1.426096 21.6995,10.84985 23.578,8.84172 5.927,1.91029 21.4729,5.63467 6.607,27.85343 1.0364,7.35262 -10.1373,16.51769 -17.7807,27.69091 -11.692,17.2954 -17.2947,11.65908 -27.6914,17.81278 -14.0237,8.61619 -10.1373,-1.45925 -25.7805,-6.08904 -5.9592,-22.86543 -8.8742,-23.57848 -10.8497,-21.73119 -4.1781,-6.54341 16.8739,-32.15984 10.2022,-21.57036 24.1933,-11.46504 z m -172.88418,4.535287 7.61096,4.502119 18.29898,12.98731 17.06825,14.60575 8.12916,8.38902 -8.55019,3.33639 -30.34708,10.81666 -3.98374,1.32659 -8.19402,-20.66329 -3.20635,-17.26225 0.4527,-9.03738 1.68409,-6.57326 z m -489.73049,0.29848 0.8739,2.137469 1.71661,6.57325 0.4212,9.03739 -3.17404,17.26226 -7.83783,19.75623 -6.9956,-2.29998 -30.34706,-10.84984 -5.86203,-2.2668 5.441,-5.6347 17.06824,-14.60742 18.2988,-12.95579 z m 859.40067,8.516699 0.7447,6.25156 -8.4857,1.19394 z m -1228.714767,1.09445 5.926875,5.70102 -4.501792,-0.61356 -1.975618,-0.48089 z m 516.579827,12.9873 4.50177,11.95093 7.35196,10.42865 7.61098,7.45046 7.44914,5.60318 7.09293,4.59829 13.01966,7.74065 5.79735,3.69123 5.24684,4.01627 4.76096,4.82712 4.89046,7.60964 4.08076,11.49823 -0.61519,0.87886 -12.0481,14.02372 -4.17792,-1.32661 -24.22585,-7.06077 -25.13256,-6.99609 -52.88883,-14.41174 -19.23802,-5.3445 -5.37634,-9.00423 -13.05215,-25.0029 3.27104,-3.82224 1.23041,-1.68311 2.42915,-0.64671 6.5099,-0.84569 6.89844,-0.34825 15.15728,-0.16575 8.42085,-0.41457 9.26276,-1.1276 10.33164,-2.65482 11.56222,-5.37602 z m 195.06953,0 9.87811,8.06567 11.56241,5.37602 10.33148,2.65482 9.23039,1.1276 8.45321,0.41457 15.15727,0.16575 6.8661,0.34825 6.50991,0.84569 0.8739,0.23216 0.16575,0.19898 5.14966,5.99122 -11.27088,21.63502 -8.06449,13.47317 -14.31523,3.98474 -52.88866,14.41173 -25.13272,6.99611 -24.22569,7.06078 -7.51396,2.36299 -12.92248,-14.99544 4.43695,-12.43679 4.89062,-7.60965 4.7608,-4.82712 5.2145,-4.01626 5.79737,-3.69124 13.05214,-7.74064 7.09277,-4.59829 7.4168,-5.60319 7.64332,-7.45046 7.31962,-10.42864 z m -713.10678,1.45927 2.882506,0.67987 16.776714,2.33313 28.37144,25.19691 29.34301,24.09585 24.42004,18.68834 -1.35976,26.0708 v 6.21838 l 1.26357,34.493 -33.97428,-4.27494 -44.5328,-9.58628 -19.400054,-5.99285 -2.979668,-22.05455 -2.461493,-50.91286 z m 1232.05069,0.51404 1.6202,44.0146 -2.3643,48.22484 -3.4979,26.00613 -16.6147,5.15049 -44.5004,9.58625 -36.3712,4.5668 1.3929,-37.89403 -1.5538,-29.89305 20.9547,-16.06334 29.3429,-24.09749 29.3756,-26.07082 0.4213,-0.39797 21.2461,-2.97985 z m -112.9674,1.3266 15.3517,2.39781 -10.5907,17.81278 z m -1006.86078,0.48087 -4.53427,19.10954 -0.29185,2.20214 -11.20603,-18.81768 z m 153.25743,1.35977 23.15696,9.90962 13.79703,5.37766 -13.37602,16.90573 -4.14558,6.51024 -11.62706,-22.25022 z m 699.11525,1.22709 -5.7325,12.11343 -13.4409,25.6496 -2.3643,-3.69124 -3.6272,-5.01948 -11.0442,-13.95903 11.4652,-4.47061 z m -927.31719,0.34823 28.56563,1.29343 19.40021,-1.02812 14.96292,25.1654 4.98765,8.16185 -2.75284,19.30189 -0.0332,0.67988 -19.14086,-14.64059 -29.34317,-24.12733 z m 1107.90969,0 23.3513,1.26026 24.6469,-1.09445 -18.6228,16.51771 -29.3431,24.09585 -15.967,12.24276 -3.0444,-21.40784 5.7326,-9.29607 z m -832.90799,17.52259 7.25479,2.85051 30.34708,10.81669 9.35991,3.07602 -20.59828,51.7884 -18.65518,10.33081 -11.40037,-17.68344 -18.46101,-31.70715 7.1578,-11.20636 11.98325,-15.15629 z m 606.64929,0.87886 0.2919,0.31508 14.3153,18.03995 6.5746,10.36399 -16.55,28.50177 -12.955,20.01492 -18.36364,-10.16996 -19.98309,-50.26449 6.34807,-2.10596 30.3794,-10.84984 z m -492.77499,8.09719 10.4288,20.01492 1.19893,2.00812 -23.12462,-6.70426 -2.07281,-0.61355 5.73253,-5.60317 z m 378.09099,0.2653 5.95936,6.93143 8.58255,8.42053 -27.17304,7.86999 3.95125,-6.5749 z m 540.9351,16.06501 v 93.50136 l -4.6963,-1.19394 -11.6269,-0.54721 -7.676,0.94519 9.6193,-55.997 1.7489,-20.14593 6.5096,-8.3227 z m -1459.248736,1.62506 3.497884,4.69614 10.104979,12.95581 1.781272,20.53395 9.0360674,52.53128 -4.8256413,-0.58039 -11.6272251,0.54723 -7.967336,2.00813 z m 1232.180436,0.36482 2.0403,14.25089 0.033,0.91203 -4.0809,3.1407 -17.8454,12.7933 17.0682,-26.58984 z m -1004.78804,1.94346 3.46538,5.66785 14.21806,22.12088 -18.62267,-13.34384 -0.6152,-0.48087 0.22718,-4.7608 z m 291.45458,2.07278 9.87811,3.04453 28.43611,8.22653 1.9433,0.54721 9.91062,16.5492 20.69544,30.25123 23.25429,29.66586 11.69191,13.02047 -24.29068,17.48942 -32.51688,19.59373 -35.3347,17.45627 -8.45319,3.36954 -8.45305,-8.35751 -27.78856,-30.83162 -24.97074,-31.02727 -10.62299,-14.76825 41.65027,-52.69547 18.23414,-14.93076 z m 421.81406,0.94521 3.85407,3.79073 21.40799,17.52093 40.48438,51.17154 -12.3396,17.10139 -25.26225,31.4153 -27.7884,30.83326 -5.66771,5.60319 -11.23853,-4.40427 -35.3347,-17.52259 -32.51704,-19.59373 -22.1854,-15.96717 9.61911,-10.7205 23.22178,-29.60284 3.62741,-5.05266 20.72795,-30.24956 7.22246,-12.04709 6.8661,-1.94346 28.43612,-8.22652 z m 119.4448,6.70426 0.1658,0.19898 10.8498,21.73286 8.8417,23.57846 4.4046,16.87256 -29.602,-9.90962 -21.1166,-9.29607 13.538,-20.92197 z m -661.64306,0.26531 14.63907,25.16374 12.11294,18.753 -23.35131,10.29931 -26.78432,8.93957 h -0.25871 l 5.50586,-21.01983 8.84189,-23.57846 z m 174.30923,7.74064 12.04809,3.33473 52.8888,14.4134 25.13258,6.99443 21.57002,6.28306 -2.91485,3.40104 -24.35535,24.32302 -24.64687,20.95515 -13.63502,-15.18945 -21.57002,-27.53006 -18.75235,-27.36753 z m 312.05302,1.35976 -3.10919,5.18199 -20.69563,30.24957 -23.25413,29.63435 -11.65954,13.02047 -26.59,-22.6399 -24.3877,-24.28986 -0.38803,-0.4809 24.93824,-7.28794 25.13272,-6.99445 52.88866,-14.4134 z m 350.04361,6.24989 1.2304,23.35131 -1.3598,37.34349 -0.1327,0.94521 -37.699,1.3929 -24.8736,-1.29341 20.469,-28.50179 4.2427,-6.34773 10.5584,-7.12545 z m -1009.67871,0.54723 24.12867,17.2954 11.01171,7.44882 7.44912,11.01235 18.39616,25.65126 -20.53362,1.06127 -40.19285,-1.45924 -1.42443,-38.76793 z m 1210.38361,0.87887 -0.2273,2.88202 -10.5258,61.24531 -7.0606,1.91029 -5.8944,1.91029 -13.538,5.44234 -14.1857,7.25479 -14.8334,8.97106 -15.5459,10.65582 -5.7973,4.30645 23.837,-27.6594 19.3029,-22.63824 20.1126,-24.03119 6.7043,-8.29118 h 0.1317 l 0.6801,-0.94519 13.1815,-16.29217 z M -3.5207473,203.67174 10.405944,220.83615 h 0.132725 l 6.704259,8.32436 20.112593,24.03116 19.302869,22.63826 23.837163,27.62623 -5.765031,-4.30645 -15.578319,-10.62431 -14.833417,-9.00257 -14.185719,-7.25479 -13.53802,-5.40917 -9.9752932,-2.72117 -9.8457703,-57.35677 z m 682.0471673,8.12869 1.1989,8.19333 -6.50989,-2.00812 z m 45.73103,0.97835 5.34399,6.2499 -6.57457,2.0728 z m -57.84395,13.11665 12.30726,3.85375 2.55866,0.87886 0.74456,4.95482 -7.31962,2.78583 -20.08009,8.64606 -16.16136,8.00099 20.76031,-20.72797 z m 69.98937,1.06127 4.66379,5.40753 20.79263,20.69644 -16.19367,-7.96782 -20.08026,-8.6477 -4.53411,-1.7478 0.4212,-3.013 2.55849,-0.87888 z m 247.53716,0.34823 7.15761,3.98475 -2.29947,3.53039 -1.1989,1.68311 z m -565.1932,0.61355 -3.82173,9.6526 -3.59507,-5.5385 z m -389.329526,0.58039 27.918085,11.33571 5.894372,1.91029 17.489257,5.37766 3.595046,26.68601 5.764869,25.7806 -27.529231,-31.90115 -19.302869,-22.63826 z m 1341.487996,1.91029 -13.8619,16.55085 -19.3029,22.63827 -24.0964,27.95123 5.9919,-26.85016 3.0443,-22.70292 20.2745,-6.25156 z m -370.8039,4.82712 20.5984,9.06725 32.0635,10.7205 6.0241,1.97661 3.7245,23.9665 -23.7074,13.73186 -47.57736,27.23821 -22.12053,12.85796 -20.92232,12.50147 -2.16996,1.35975 -11.95091,-3.59506 -16.80906,-6.63958 1.4891,-1.45925 27.8209,-30.83327 25.26208,-31.4153 3.62739,-5.01948 8.9389,-12.40526 23.05997,29.18165 -15.67551,-39.4163 6.57457,-9.13191 z m -597.64543,0.9452 3.14154,4.85863 5.11715,7.09228 -15.25445,38.34673 22.44458,-28.37076 10.55815,14.70359 25.29459,31.38379 27.78856,30.86476 4.24276,4.21026 -18.00745,7.09228 -9.52192,2.88369 -6.15356,-3.88692 -20.9223,-12.46994 -22.12073,-12.85798 -47.54481,-27.23653 -20.33928,-11.79008 0.0995,-2.20212 3.27119,-21.14917 2.97969,-0.67988 32.06351,-10.75201 z m -148.52894,3.01136 23.22178,14.89925 8.0645,4.95482 -8.84172,1.26026 -6.8661,0.36481 -2.6235,-3.40105 z m 892.53317,1.87878 -12.3071,17.16608 -1.7166,2.23363 -2.6233,-0.16576 -11.0766,-1.55874 4.4046,-2.75265 z m -426.86637,3.46573 20.17725,8.6792 18.88186,9.32758 17.6836,10.1053 12.63112,8.51836 -5.21432,5.79721 -28.63062,27.78872 -31.51297,26.49201 -20.30694,14.70357 z m -36.14443,0.84569 16.19368,110.53808 -22.96278,-16.58237 -31.48047,-26.49365 -28.66296,-27.78709 -3.04435,-3.40104 10.46115,-7.09392 17.68344,-10.10365 18.88202,-9.36074 20.08009,-8.61455 z m -592.334077,4.95482 17.975137,5.57001 44.53279,9.58792 34.6545,4.37112 4.92281,39.22229 9.6191,44.50043 4.04842,13.21284 -18.00729,-2.42766 -45.99022,-10.26779 -16.58236,-14.11991 -6.38041,-5.31297 -5.3115,-6.37926 -10.68783,-12.5661 -10.072464,-45.01948 z m 1221.168677,0.87886 -2.2024,16.38835 -10.2669,46.02272 -14.1207,16.58237 -5.3118,6.38089 -6.3802,5.31134 -15.6109,13.31066 -41.0671,9.16675 -21.3757,2.882 5.182,-16.77637 9.5866,-44.50046 4.5019,-35.78807 37.375,-4.69612 44.5006,-9.58794 z m -243.0678,8.25968 21.0841,4.98797 -18.6226,11.07537 z m -735.06548,0.67987 -2.36415,15.35196 -17.81313,-10.59116 z m 771.33938,6.73741 19.8534,2.81736 -13.4731,17.61876 -24.0962,29.31101 -15.1898,17.09973 1.1658,-25.87679 -1.1343,-21.247 23.5456,-13.99054 z m -807.0303,0.31508 5.66785,3.4657 27.04354,16.06335 -0.97173,18.00846 v 6.18521 l 1.10107,24.93824 -18.75233,-21.116 -24.12869,-29.34416 -11.56222,-15.12478 z m 838.2195,3.49721 32.0635,1.68478 36.4359,-1.35975 -3.9837,31.83649 -9.619,44.53195 -6.5747,21.31167 -20.566,2.78583 -50.9132,2.46083 -46.0225,-1.68478 0.3565,-1.45925 2.8177,-20.14426 22.9951,-25.90995 24.0962,-29.31101 z m -938.32909,0.23216 39.12412,1.45925 27.75589,-1.45925 17.29493,22.60675 24.09634,29.31099 26.07178,29.37401 0.4212,0.41457 2.75302,19.72473 -43.17253,1.59191 -50.91303,-2.46082 -23.93434,-3.2402 -5.50584,-17.77963 -9.58661,-44.50045 z m -206.9232849,0.84569 12.2747814,1.52559 9.4247375,2.55866 11.108867,4.46894 14.185719,7.2548 14.833437,8.97106 15.545979,10.65584 16.355683,12.17808 17.165411,13.63403 11.69172,9.71726 9.68395,11.69223 13.63502,17.16441 12.2101,16.32369 10.62316,15.54598 9.00372,14.8661 7.22229,14.15303 5.44118,13.53786 3.49773,12.88947 1.29507,10.49333 -0.35652,7.22329 -2.33199,9.42542 H -28.168466 V 274.34497 l 7.967335,-1.97661 z m 1423.3309749,0 11.6269,0.58039 4.6963,1.16076 v 212.52714 h -211.8464 l -1.5869,-6.31623 -0.5505,-11.62755 1.4891,-12.27428 3.5302,-12.92264 5.4087,-13.50635 7.2548,-14.18456 9.0037,-14.83457 9.5544,-13.99057 9.6189,-12.89113 13.6352,-17.16441 9.7163,-11.69223 11.6593,-9.68409 17.1655,-13.6672 16.3556,-12.17808 15.5461,-10.65418 14.8658,-8.97272 14.1533,-7.2548 13.5378,-5.4075 12.8903,-3.53039 z m -617.88775,15.25413 10.72034,8.61454 13.44067,13.02048 11.85391,14.11988 10.1048,15.25579 8.25886,16.45303 6.28305,17.68344 1.58694,7.05911 -9.97529,8.71238 -36.11209,27.72406 -2.36433,1.59191 -21.57001,-9.06889 -40.4842,-20.85731 -37.47234,-23.05944 -1.10107,-0.81254 19.46489,-14.08837 31.51297,-26.49366 28.63046,-27.78874 z m -191.44213,0.31507 5.21431,5.79719 28.63047,27.8219 31.51313,26.49201 22.12055,16.00032 -3.75689,2.71951 -37.47235,23.06109 -40.48421,20.85732 -18.03979,7.57815 -5.89453,-3.91843 -36.11209,-27.75557 -7.12527,-6.18687 2.36431,-10.75201 6.28322,-17.65193 8.29119,-16.45303 7.99965,-12.11176 10.29915,-12.27594 13.44085,-13.01881 z m 457.76408,4.72929 0.8739,16.03184 -1.2304,27.33437 -1.5537,10.97919 -21.7967,22.63992 -20.8575,-2.55866 -43.62591,-9.16674 -16.06417,-4.82546 16.06417,-9.61945 22.12055,-12.82479 47.57716,-27.23821 z m -722.62865,0.16576 15.02776,8.74555 47.57714,27.23818 22.12072,12.82481 20.17727,12.08026 -14.2504,4.27494 -43.62589,9.16673 -24.5172,3.01136 -20.63095,-21.40783 -1.32826,-9.58628 -1.35976,-30.67074 z m 492.09477,15.1911 22.05589,13.27752 35.33471,17.48942 9.55426,3.78906 -17.19773,16.97206 -14.73625,12.85798 -0.58205,-2.68802 -6.28322,-17.65193 -8.25887,-16.45303 -10.1373,-15.28561 -3.62722,-4.98799 z m -265.02639,1.91029 -6.12123,7.2863 -10.10479,15.28728 -8.25887,16.45303 -6.28322,17.65193 -1.42442,6.34774 -17.5541,-15.3188 -14.44474,-14.25089 6.83376,-2.68799 35.30222,-17.45793 z m 342.07623,36.63047 18.4608,7.28628 5.89456,1.91195 1.10105,0.33165 -6.60708,4.11243 -18.26648,12.17809 -16.84153,12.14493 -15.3193,12.17808 -5.66786,5.11734 -1.23042,-13.27918 -1.10107,-4.98797 18.16932,-15.86932 z m -416.34056,0.81254 18.62266,18.36331 21.01948,18.36496 -0.29185,1.35976 -1.61844,17.36009 -8.93904,-8.00099 -15.31913,-12.2411 -16.84156,-12.1466 -18.26648,-12.14493 -2.62333,-1.62506 3.01202,-0.91204 z m 454.55777,12.46993 27.07587,8.12868 43.62586,9.16508 12.0158,1.45925 -27.5943,26.20179 -32.84066,28.40394 -29.79654,23.35131 -11.62706,-1.8788 -49.52042,-12.14491 -8.25887,-2.72117 1.49076,-10.16996 0.4212,-14.86444 11.10886,-10.00912 15.31929,-12.20961 16.8414,-12.11176 18.29896,-12.17809 z m -491.57659,0.58039 9.48944,5.92653 18.26646,12.14659 16.84156,12.14494 15.31929,12.20959 13.76453,12.37211 0.93857,1.01152 0.48586,16.51603 1.13424,7.87165 -6.08888,2.00814 -49.09925,12.04709 -14.47724,2.33148 -32.84089,-25.71428 -32.84089,-28.40394 -25.10022,-23.87034 15.44879,-1.87878 43.62589,-9.16506 z m 602.60072,3.33636 -0.6484,4.59829 -0.8424,3.56356 -5.7003,-0.71305 z m -714.14319,1.65823 5.9917,6.25156 -4.95531,0.61355 -0.19392,-0.81254 z m -186.19531,2.88202 30.24989,6.76892 21.24615,2.85051 6.8661,22.18556 11.10887,27.39906 -18.55801,-15.51281 -22.63875,-19.33505 z m 1084.0076,1.09445 -29.2134,25.19856 -22.6388,19.30189 -16.0967,13.47318 12.3073,-30.34574 5.765,-18.65517 24.5821,-3.30487 z m -541.16181,0.84569 3.7894,2.72117 37.47234,23.05945 40.48421,20.89047 17.71593,7.41564 -27.01102,18.07313 -42.16846,24.25834 -29.63454,14.4449 -33.55343,-16.35686 -42.16846,-24.25833 -23.48081,-15.70683 14.18555,-5.9597 40.51672,-20.89047 37.44001,-23.02628 z m -549.71205,5.27983 29.21348,25.19691 22.63893,19.33505 24.06383,20.08124 8.29118,6.73577 0.0332,0.16576 h 0.19392 l 17.03591,13.79652 1.78127,1.39292 -2.20247,-0.19898 -59.17186,-10.16997 -2.23465,-8.29118 -5.44116,-13.50635 -7.25479,-14.18455 -8.97123,-14.83459 -10.65549,-15.57749 -3.62741,-5.01948 z m 1096.80076,1.91028 -3.6597,4.95482 -10.6555,15.54598 -8.9712,14.8346 -7.2548,14.18454 -5.4412,13.53786 -3.2387,11.95091 -55.9332,9.58792 -6.0564,0.54723 16.9063,-13.70037 h 0.066 l 0.1328,-0.16575 8.194,-6.67109 24.0638,-20.07959 22.6388,-19.30353 z m -1027.4591,1.91029 20.69545,2.78585 50.91302,2.46249 45.40734,-1.68478 5.95922,25.26158 11.69191,34.88102 10.62299,24.3877 -53.89271,-0.23216 L 273.32724,463.2206 259.109,452.14357 244.24325,440.09648 226.49496,396.3721 Z m 960.6763,0.44774 -4.34,14.05521 -18.979,46.80042 -17.2626,13.99221 -12.2099,9.52159 -35.27,3.04453 -57.4878,0.23216 11.9834,-27.49689 11.6919,-34.88102 5.2468,-22.25022 48.3867,1.78261 50.9132,-2.46249 z m -138.6507,0.33163 12.0481,1.49242 -4.8257,20.33829 -11.6919,34.881 -12.9873,29.76536 -44.50042,-3.49888 -27.23786,-4.37111 22.18537,-17.39325 32.84091,-28.40394 30.4442,-28.92131 z m -683.66662,0.44774 1.45761,1.49242 30.44405,28.95448 32.84089,28.40394 25.22993,19.75624 -24.38786,3.91841 -47.99818,3.78907 -11.75656,-26.94636 -11.65957,-34.88101 -5.4735,-23.09262 z m 502.1026,10.46016 0.13272,0.61355 1.71661,18.46115 -11.10884,11.56289 -7.57865,9.48843 -12.04825,-3.98309 -11.17353,-4.69612 33.58575,-25.78063 z m -319.59933,0.87886 3.30353,2.88202 36.11209,27.72406 0.71305,0.48089 -14.44491,6.08738 -9.6191,3.17554 -10.00762,-12.46994 -7.51398,-7.87001 -0.0995,-3.36787 z m 321.05675,32.90359 -0.0663,1.81409 -1.45759,10.07214 -6.96342,-2.29832 3.65989,-4.59994 z m -322.09316,1.78258 1.19892,1.22711 6.08888,7.61131 -6.05656,2.00646 -1.13422,-7.80531 z m 271.08295,2.46083 14.76876,6.2184 12.1776,4.01624 -5.441,8.48521 -6.54241,13.57101 -4.46944,13.92588 -1.87845,11.49821 h -106.9757 l -0.22717,-0.19899 24.25818,-11.7884 42.13596,-24.25836 z m -220.16977,0.36482 28.6628,19.14103 42.13613,24.25835 28.20943,13.73186 -0.22717,0.16576 h -107.7854 l -1.35976,-8.38902 -4.46945,-13.92754 -6.54241,-13.56935 -6.70408,-10.46182 9.78095,-3.20538 z m 256.60573,12.9873 11.62706,3.85375 -0.35651,2.494 -6.0564,23.15728 -5.603,14.80143 h -17.3921 l 1.35976,-8.38904 4.50195,-13.92752 6.50973,-13.56935 z m -294.20758,1.12762 6.67176,10.39714 6.54225,13.57101 4.46943,13.92588 0.8739,5.27982 h -18.07213 l -4.40477,-11.69223 -6.05638,-23.15729 -0.71305,-4.79394 z m 315.3889,5.79719 9.65145,3.14236 49.52042,12.14493 0.51736,0.16576 -31.25394,21.92685 H 858.7617 l 4.43711,-11.69223 6.05654,-23.15726 z m -335.59866,0.91203 0.67988,4.72929 6.05654,23.15729 3.23872,8.58304 h -38.80011 l -1.78127,-1.09445 -29.084,-20.40295 3.07687,-0.48089 49.55276,-12.14493 z m -338.41634,12.0156 57.19609,9.81342 16.67953,1.45925 10.91468,8.51838 6.28307,4.66463 h -92.43379 l 1.58695,-6.31624 0.58202,-11.62755 z m 1012.30183,0.44771 -0.3565,2.94668 v 6.1869 l 0.582,11.65906 0.7777,3.20702 h -92.6929 l 3.6922,-2.72117 12.955,-10.13679 20.5336,-1.78261 z m -264.63771,4.33961 37.89319,6.08904 39.90132,3.1407 -5.6677,10.43031 h -99.88289 l 25.26224,-17.71659 z m -483.1559,0.44772 27.39971,19.2057 H 386.87751 l -5.50584,-10.13845 43.65823,-3.43256 z m -172.20412,7.54498 24.58205,2.13746 57.52009,0.23216 h 0.74456 l 0.64837,1.49242 4.24276,7.80697 h -72.15935 z m 826.59243,0.39798 -15.0926,11.27103 h -72.8069 l 5.2466,-9.58792 4.34,0.3648 57.5201,-0.23215 z"
     id="path4-9-7"
     inkscape:connector-curvature="0" />
  <circle
     style="color:#000000;clip-rule:nonzero;display:inline;overflow:visible;visibility:visible;opacity:1;isolation:auto;mix-blend-mode:normal;color-interpolation:sRGB;color-interpolation-filters:linearRGB;solid-color:#000000;solid-opacity:1;fill:none;fill-opacity:1;fill-rule:evenodd;stroke:#0000ff;stroke-width:0.5;stroke-linecap:butt;stroke-linejoin:miter;stroke-miterlimit:4;stroke-dasharray:none;stroke-dashoffset:0;stroke-opacity:1;color-rendering:auto;image-rendering:auto;shape-rendering:auto;text-rendering:auto;enable-background:accumulate"
     id="path814"
     cx="701.45673"
     cy="-243.543"
     r="1.6397635" />
</svg>
