<?xml version="1.0" encoding="UTF-8" standalone="no"?>
<svg
   xmlns:dc="http://purl.org/dc/elements/1.1/"
   xmlns:cc="http://creativecommons.org/ns#"
   xmlns:rdf="http://www.w3.org/1999/02/22-rdf-syntax-ns#"
   xmlns:svg="http://www.w3.org/2000/svg"
   xmlns="http://www.w3.org/2000/svg"
   xmlns:sodipodi="http://sodipodi.sourceforge.net/DTD/sodipodi-0.dtd"
   xmlns:inkscape="http://www.inkscape.org/namespaces/inkscape"
   width="1492.9135"
   height="1492.9135"
   viewBox="-45 -990 1492.9134 1492.9134"
   version="1.1"
   id="svg6"
   sodipodi:docname="lotus - projection-5.svg"
   inkscape:version="0.92.3 (2405546, 2018-03-11)">
  <metadata
     id="metadata12">
    <rdf:RDF>
      <cc:Work
         rdf:about="">
        <dc:format>image/svg+xml</dc:format>
        <dc:type
           rdf:resource="http://purl.org/dc/dcmitype/StillImage" />
        <dc:title>OpenSCAD Model</dc:title>
      </cc:Work>
    </rdf:RDF>
  </metadata>
  <defs
     id="defs10" />
  <sodipodi:namedview
     pagecolor="#ffffff"
     bordercolor="#666666"
     borderopacity="1"
     objecttolerance="10"
     gridtolerance="10"
     guidetolerance="10"
     inkscape:pageopacity="0"
     inkscape:pageshadow="2"
     inkscape:window-width="1920"
     inkscape:window-height="1026"
     id="namedview8"
     showgrid="true"
     inkscape:zoom="0.45603865"
     inkscape:cx="-163.13337"
     inkscape:cy="739.88426"
     inkscape:window-x="1600"
     inkscape:window-y="27"
     inkscape:window-maximized="1"
     inkscape:current-layer="svg6"
     inkscape:document-units="cm"
     fit-margin-top="0"
     fit-margin-left="0"
     fit-margin-right="0"
     fit-margin-bottom="0"
     inkscape:snap-nodes="false"
     inkscape:snap-others="false"
     inkscape:snap-to-guides="false"
     inkscape:snap-bbox="true"
     inkscape:bbox-nodes="true">
    <inkscape:grid
       type="xygrid"
       id="grid4529"
       units="cm"
       spacingx="737.00785"
       spacingy="737.00787"
       originx="0"
       originy="0" />
  </sodipodi:namedview>
  <title
     id="title2">OpenSCAD Model</title>
  <path
     style="fill:none;stroke:#0000ff;stroke-width:0.49133856;stroke-opacity:1;stroke-miterlimit:4;stroke-dasharray:none"
     d="M -44.75,-989.75001 V 502.66341 H 1447.6634 V -989.75001 Z m 16.582371,16.5825 H 130.27175 l 0.19434,0.1662 6.28316,9.6514 3.98367,10.4934 1.32792,8.7122 -0.0647,1.4578 -2.55861,12.8577 -4.53425,13.6675 -6.44511,14.3801 -8.29117,15.1898 -9.97534,16.0316 -11.594701,16.9063 -4.145592,5.6354 -5.635414,4.1133 -16.873858,11.5947 -16.031784,10.0077 -15.189711,8.2589 -14.412413,6.445 -1.781309,0.6152 -12.080514,2.3967 -12.11307193,0.4495 -11.33560407,-1.7163 -10.525919,-3.9838 -6.639426,-4.34 z m 183.312939,0 h 99.5266 l -7.2224,5.4087 -0.19434,0.099 -0.0647,0.099 -3.91888,2.9795 -24.61446,3.3684 -55.83596,12.5663 -1.61943,-10.8498 -3.98365,-10.5258 z m 135.83293,0 h 82.42604 l -0.71255,1.3929 -31.54537,-1.0364 -54.50806,2.7854 z m 106.23082,0 h 66.58858 l -11.65948,8.4855 -53.18019,-6.2184 -2.85008,-0.099 z m 105.12964,0 h 39.05923 l -1.19839,4.9876 -5.63543,13.8942 -4.17798,7.3196 -24.06387,-6.9633 -25.42413,-5.1171 2.78532,-2.0081 z m 69.24434,0 h 95.4458 l -35.17278,18.5904 -41.58547,25.8452 -1.94325,1.3929 -26.52531,-10.0399 4.24275,-19.465 z m 166.40667,0 h 93.27585 l 7.77299,22.9951 3.14158,14.4123 -0.45338,0.1338 -25.29456,9.5543 -9.45716,-6.7689 -41.58547,-25.8129 z m 124.04392,0 h 39.2212 l 12.30722,7.9998 9.94295,7.2547 -19.91828,3.9836 -31.48059,9.1009 -1.58693,-2.8177 -5.6354,-13.8944 z m 77.08211,0 h 65.35786 l 1.4574,2.8501 -50.10334,5.8622 -3.72455,0.7444 z m 89.19506,0 h 83.6567 l 3.8217,2.753 -47.0589,-2.3967 -39.5775,1.2952 z m 119.7363,0 h 98.4903 l -2.6558,7.028 -1.7166,11.3357 v 5.0525 l -50.913,-11.4652 -33.3915,-4.5666 -7.7406,-5.8298 -0.1293,-0.1661 -0.065,0.032 z m 123.0723,0 h 159.9616 v 158.4393 l -2.6881,2.6882 -9.6191,6.3157 -0.8421,0.2918 -8.3559,1.295 -12.113,-0.4527 -12.8902,-2.5587 -13.6351,-4.5665 -14.38,-6.4452 -15.2221,-8.2587 -15.9994,-10.0077 -16.9062,-11.5947 -5.3116,-3.8865 -8.2264,-12.0158 -10.0077,-16.0318 -8.2588,-15.1574 -6.4451,-14.4123 -4.5666,-13.635 -2.5262,-12.8904 -0.4859,-12.1128 1.7489,-11.3357 3.9513,-10.5258 0.7125,-1.0363 z m -567.84901,6.1212 4.72856,2.1053 44.75944,23.6752 39.60985,24.5819 -39.707,18.6877 -39.73941,22.671 -11.27081,7.6436 -17.32729,-11.7566 -39.73939,-22.6713 -32.16073,-15.1572 32.06356,-19.8859 44.75944,-23.7077 z m -362.12401,15.7404 21.53764,0.7128 -11.59468,28.987 -10.36399,34.7839 -2.16996,10.9147 -19.95067,-1.5536 -51.01021,0.421 -37.05125,3.5625 14.4448,-39.3182 15.38404,-32.6141 20.56603,-2.8178 z m 727.58392,0 60.2406,3.0768 12.0482,1.6516 19.0438,40.4518 11.7566,31.9341 -29.5373,-2.8501 -51.0103,-0.4213 -25.9747,2.0404 -0.9392,-4.7607 -10.364,-34.7843 -14.1533,-35.3671 z m -683.24551,1.4575 13.47318,0.4543 28.33902,3.336 -28.88962,23.3513 -32.45221,28.9867 -1.03639,1.0365 6.60703,-22.2826 z m 630.97221,0.2918 2.7205,5.3114 14.3477,35.9179 5.3439,17.8777 -7.5787,-7.3843 -32.45221,-28.9542 -22.83314,-18.5258 34.94605,-4.0806 z m -558.65103,7.352 48.51637,9.8135 11.95097,3.433 -1.13357,1.5222 -11.52994,13.0196 -13.34362,12.858 -15.02778,12.7282 -16.61477,12.6634 -18.16936,12.7284 -5.40868,3.595 -23.93432,-6.1536 -38.50868,-6.4452 3.98366,-3.8863 32.45222,-28.9546 35.01083,-28.3389 z m 488.82366,1.1343 4.59901,3.3358 34.97845,28.3391 32.45221,28.9543 9.4247,9.1982 -31.31861,5.2466 -28.50095,7.3195 -13.47317,-8.8741 -18.13698,-12.7283 -16.64713,-12.6636 -14.99538,-12.728 -13.34363,-12.8255 -7.38434,-8.3236 19.30291,-5.5706 z m 244.78427,1.3929 51.4637,11.5947 2.2995,11.5623 4.5342,13.635 6.4451,14.4127 0.5182,0.907 -4.9229,-3.8865 -43.6583,-35.0108 z m -983.34752,2.3319 -18.91426,14.9955 -45.14811,36.1766 4.8905,-8.939 6.47749,-14.4123 4.53425,-13.635 0.68005,-3.4656 z m 966.37652,11.6271 21.0195,16.6472 43.6258,35.0109 17.8131,14.0883 -6.2831,-1.7163 -55.0587,-10.2347 -15.0278,-40.8728 z m -947.26792,0.6799 -2.6234,5.603 -17.42444,47.4151 -0.42102,1.5224 -47.4152,8.8093 -17.78072,4.9227 16.64714,-13.1817 43.65829,-35.0108 23.86954,-18.9141 z m 311.63195,2.6557 -0.35618,3.4979 v 13.2787 l 0.38869,15.1573 -22.4121,18.3963 -29.79644,27.7883 -22.70361,-7.9673 9.32759,-6.5422 16.61475,-12.6636 15.02777,-12.7283 13.34363,-12.8577 11.56234,-13.0198 z m 20.50127,6.2508 8.80938,3.3358 -9.06849,6.4776 -0.12928,-5.927 z m 306.96818,0.3565 1.19841,1.6202 11.5623,13.0521 13.31126,12.8253 15.02776,12.7282 16.64715,12.6636 17.10056,12.0158 -24.42012,8.5825 -3.40068,-3.5949 -32.45223,-30.2498 -15.18969,-12.4692 0.45335,-2.9473 0.48588,-20.6956 z m -21.01944,1.0048 0.64769,6.5425 -0.0979,3.3035 -0.38869,-0.292 -8.777,-6.3155 z m -253.23741,11.2709 39.93371,18.8172 39.73938,22.6711 10.78503,7.2871 -6.15362,4.1781 -33.45622,26.5251 -30.4766,27.983 -1.45743,1.5221 -9.97533,-8.5827 -13.01975,-13.6026 -4.82574,-6.3157 -8.03207,-13.6026 -7.41672,-17.1005 -5.27916,-18.3314 -1.32792,-8.8742 3.40068,-2.7854 z m 220.4613,1.1009 20.30694,14.5745 10.04011,8.2263 -0.16251,0.9072 -5.27915,18.3312 -7.41672,17.1005 -9.39236,15.9347 -11.27083,14.7363 -12.98737,13.6026 -5.73258,4.8906 -5.73257,-6.0563 -30.4442,-27.9829 -33.58577,-26.5902 4.72856,-3.2063 39.77177,-22.6386 42.91337,-20.2423 z m -270.49992,37.1487 5.24677,18.1691 7.41672,17.1007 9.39238,15.9347 10.0401,13.1167 -5.70021,-3.8217 -34.42784,-19.1734 -25.48891,-11.4974 20.59841,-19.2059 z m 319.01633,0.6152 7.19001,5.8942 26.55769,24.7442 -31.44819,14.1534 -34.42786,19.2056 -5.70019,3.8216 10.0401,-13.1168 7.80539,-10.785 9.42474,-15.9023 7.41672,-17.1005 z m -542.39252,8.6796 8.777,0.6798 -19.30291,20.5013 -25.68324,29.6021 -23.77238,29.4079 -9.35998,12.4044 -32.54939,-0.1662 -10.55831,0.907 1.0364,-11.9833 7.90255,-44.6299 8.67982,-32.096 43.82023,-4.2105 z m 772.66718,0 51.0103,0.4213 37.0512,3.5627 10.6555,39.4155 7.9025,44.6298 0.3887,4.8256 -5.0848,-0.4211 -40.7434,0.1945 -1.2308,0.099 -12.5663,-16.6472 -23.7724,-29.4076 -25.7156,-29.6021 -14.8335,-15.7404 z m -735.48638,2.8824 11.40037,0.9072 46.05494,7.6758 -11.30321,7.0928 -22.2178,13.5704 -28.3714,17.1004 v -8.032 l 3.17398,-31.9338 z m 691.43948,0.5506 1.0364,1.0365 2.2672,11.4328 3.2063,31.934 v 1.9757 l -36.2092,-21.7967 -22.21774,-13.5381 -2.97965,-1.8785 4.43708,-1.1341 45.95781,-7.6758 z m 155.1359,3.3684 48.2573,8.939 35.8529,9.9752 13.2464,47.6743 6.9633,37.6341 -26.0719,-7.0279 -44.6299,-7.9025 -16.5176,-1.4246 -1.1335,-13.3112 -7.9026,-44.6298 z m -1001.77602,1.295 -5.95929,22.0237 -7.87014,44.5974 -1.74893,20.4364 -11.10889,0.9386 -44.62989,7.9028 -32.452225,8.7444 8.550285,-45.9901 10.8174,-39.0269 43.1077,-11.9833 z m 501.06614,6.1214 6.63942,4.4695 33.48862,26.5253 30.44418,27.9827 1.74893,1.846 -8.35596,5.9917 -17.5216,10.6233 -18.8819,9.8131 -20.11257,9.1009 -5.31156,2.1052 -15.64312,-6.2184 -20.11261,-9.1007 -18.8495,-9.7812 -17.5216,-10.6228 -3.49786,-2.5265 27.33503,-25.1002 33.48861,-26.5252 z m -260.00641,4.5665 11.10891,2.8503 18.10457,6.3479 -16.51761,17.392 -26.94633,31.8368 -24.42014,32.2887 -9.65145,14.218 -27.3674,-10.7525 -9.65145,-2.7855 -2.13756,-10.2342 -2.591,-25.8777 40.80817,-24.5497 22.21779,-13.538 20.92228,-13.1817 z m 522.0532,1.1658 18.97904,11.9185 22.21775,13.5704 47.9011,28.8248 -1.9109,19.044 -3.8865,18.7845 -3.0444,0.874 -12.6635,4.1132 -22.5417,8.8417 -6.6394,-9.7809 -7.80537,-10.7527 -24.42012,-32.2901 -26.94635,-31.837 -10.68786,-11.2061 21.37571,-7.5138 z m -632.04095,7.0281 -0.77722,7.5461 -0.0332,27.0113 -24.58209,15.0277 -26.49294,16.5175 -2.2671,1.4908 -3.53023,-0.3565 21.05182,-26.0396 25.71566,-29.6022 z m 741.51054,3.9188 3.3683,3.5951 25.6832,29.5695 23.7724,29.4403 1.1984,1.5538 -0.2592,0.032 -9.4571,-6.1214 -26.4606,-16.5177 -16.809,-10.2342 -0.033,-21.0196 z m -581.03076,5.3762 29.1811,13.1494 34.42786,19.1734 29.63449,19.9168 -0.5182,0.5506 -24.71161,30.0879 -22.08825,30.7681 -11.14129,17.8131 -4.50185,1.3282 -29.01913,8.7771 -10.0725,3.2387 -7.15763,-6.5746 -23.83717,-18.2342 -26.29859,-16.5175 -13.89421,-6.9957 8.51789,-12.5664 19.36769,-25.5861 26.94636,-31.8368 z m 418.44576,1.6517 19.69156,20.728 26.94636,31.8368 24.42012,32.2903 7.99972,11.8215 -18.39609,9.2626 -26.29859,16.5178 -23.86955,18.234 -0.55051,0.486 -4.04844,-1.2637 -28.98678,-8.777 -15.48119,-4.5018 -5.02005,-7.9995 -22.05585,-30.8006 -7.80537,-10.7203 -20.85752,-25.3592 25.22981,-16.9712 34.46025,-19.1732 z m -823.35357,13.7323 -2.331895,8.4531 -10.202045,55.091 -0.388641,4.1457 -3.854106,1.2304 -47.382828,17.4245 -7.222401,3.4006 16.938632,-21.3759 35.010827,-43.6582 15.805072,-19.9505 z m 1253.97697,2.0729 2.6882,1.4576 14.4124,6.445 13.6351,4.5665 12.6311,4.1133 0.6154,0.1317 12.0805,53.5366 -1.2307,-1.587 -18.9143,-23.8694 z m -23.7076,3.4331 11.9834,15.1247 34.9784,43.6261 16.9711,21.3756 -7.2225,-3.4008 -44.6299,-16.388 -9.3923,-50.751 z m -1261.458477,0.6798 -35.885288,44.792 -12.6311007,15.9021 10.5583057,-46.7999 7.254786,-1.4245 13.635114,-4.5666 14.380025,-6.4452 z m -84.207352,7.9339 4.501855,1.7165 12.66349,4.1133 6.9309122,1.0363 -10.5583072,46.8 -4.566629,33.3914 -5.862127,7.8379 -0.129503,0.067 v 0.099 l -2.979687,3.9799 z m 1459.248629,1.9757 v 100.4658 l -6.8985,-9.1979 -4.5019,-32.9057 -11.8862,-52.8887 1.7813,0.067 11.3356,-1.6841 z m -1099.42414,18.3959 1.78132,17.4247 -1.23074,-0.3234 -21.60242,-4.1133 8.29119,-5.1819 z m 741.05704,0.2272 5.6355,3.4654 16.2909,10.1696 -16.9387,3.2389 -7.4815,2.1376 1.1336,-5.4412 z m -470.65428,15.2544 13.86183,11.109 23.80478,22.4445 -9.78103,2.9796 -25.52129,7.4168 -47.48,13.4731 1.58693,-2.4938 15.06016,-21.0194 23.93433,-29.0841 z m 197.56341,0.5838 24.87355,30.2174 16.67954,23.2866 -35.69096,-10.1373 -25.52131,-7.4168 -16.03179,-4.8904 17.39205,-16.4204 z m -158.11551,5.3114 13.89421,7.2223 19.6268,8.8744 -9.68384,3.4654 -3.27114,1.1011 -7.64344,-8.4531 z m 114.26292,4.1131 -12.92261,12.1779 -1.91085,2.1051 -8.55029,-2.7854 9.48952,-4.2751 z m -539.05662,2.2997 16.54999,0.067 -13.60273,19.1087 -16.03178,11.4004 -0.0978,-20.3396 0.77722,-9.1655 z m 976.48138,0 6.9633,0.582 1.3279,15.5784 -0.098,15.8375 -23.4809,-16.712 -9.4572,-13.2788 -1.3602,-1.8784 z m 28.1447,2.3967 14.6391,1.2635 44.6299,7.9025 29.7965,8.0322 4.6314,48.1926 0.3562,39.0266 -1.5546,19.5623 -24.323,-22.8658 -29.5697,-25.7155 -29.4078,-23.7723 -8.7123,-6.5749 0.1626,-37.2131 z m -938.36137,0.2586 13.01976,1.2636 36.20917,6.8987 5.60301,1.5868 1.42508,6.8987 7.93493,24.7116 10.0725,22.8331 0.22669,0.3881 -14.25049,26.0396 -15.99937,32.3226 -0.35619,0.8091 -0.77722,0.3566 -32.32267,15.9994 -22.70359,12.4366 -4.40469,-2.526 -22.80076,-10.105 -24.74402,-7.9025 -2.33189,-0.5173 -2.46144,-8.4209 -6.86615,-36.2092 -1.26308,-13.0196 11.56233,-17.8456 15.25449,-22.6064 4.08082,-2.9149 28.04751,-18.9142 z m -99.85047,0.2272 -0.0647,0.713 v 13.2788 l 0.16251,28.7926 -16.48522,12.4693 -29.40779,23.7722 -29.60212,25.7156 -17.230123,16.1937 -0.906838,-11.6918 0.421042,-50.9777 3.854106,-40.0309 35.399483,-9.5544 44.62989,-7.9025 z m 938.32894,0.292 10.6879,6.9308 28.0151,18.9467 4.7934,3.4008 3.433,4.8255 18.9467,28.0153 10.4288,16.1289 -0.1293,1.4575 -6.8985,36.1768 -4.9553,17.1978 -19.724,6.3154 -12.6311,4.1133 -19.4972,8.6152 -30.4118,-16.6474 -29.7965,-14.7685 -11.8862,-23.9668 -17.975,-32.8408 3.9513,-6.8985 10.1049,-22.8007 7.3519,-22.9953 12.4368,-3.5625 36.2091,-6.8987 z m -759.4531,16.6793 19.36769,7.5787 -0.45335,0.6799 -10.0725,16.5501 -3.23873,-7.2873 z m 342.14093,1.199 15.12495,5.3763 6.63941,2.2024 -6.21838,6.8661 -12.30722,15.8698 -4.37231,-29.8613 z m 336.11687,0.9386 -2.7853,8.7445 -6.6394,14.9631 -6.6718,-10.9469 -3.4655,-5.0849 z m -340.55394,0.8091 -4.56661,31.2863 -17.554,-22.7037 -0.48588,-0.5173 0.90689,-0.3234 z m 632.46194,3.7571 29.3755,10.785 43.0105,20.242 3.2064,23.5457 2.8177,54.9615 -0.8098,23.7724 -33.3914,-13.376 -34.7841,-10.3639 -7.4168,-1.4578 1.749,-22.5416 -0.4211,-50.9777 z m -1260.065806,1.5222 -2.526221,26.3956 -0.453427,51.0427 v 13.2788 l 1.327883,16.9063 -2.137571,0.4213 -34.784115,10.3639 -12.631102,4.1132 -25.7804047,10.2991 -0.8744558,-26.2338 3.0768088,-60.2081 2.16995804,-15.9347 36.20916166,-17.0681 z m 675.699226,7.6757 7.61105,2.4614 24.54968,7.5139 25.52131,7.4168 52.8887,15.0277 7.74059,12.372 13.86183,25.5213 -16.42044,21.4729 -14.80108,23.0599 -12.79302,23.8695 -6.38035,14.283 -20.50124,4.0807 -25.13266,4.1456 -13.11689,1.846 -5.89453,-17.5863 -11.56232,-28.7601 -13.57033,-28.4037 -15.77268,-27.9827 -11.27083,-17.0683 3.82171,-5.7973 15.7403,-20.3394 z m -347.54965,0.8424 13.1169,6.6395 26.29862,16.4852 19.75634,15.0924 -8.38834,2.7208 -30.41182,10.4285 -19.52962,7.3197 -5.31155,-5.9268 -6.05644,-8.3238 -8.0321,-13.9588 z m 254.92156,1.3931 9.74863,10.785 20.566,26.59 2.42907,3.6597 -6.89852,10.429 -15.77268,27.9501 -13.57035,28.4364 -11.56232,28.76 -7.77299,23.2864 -6.3803,-0.907 -25.16505,-4.1454 -24.48492,-4.8906 -4.6314,-1.1011 -2.55861,-5.7325 -12.82542,-23.8695 -14.80106,-23.0599 -7.80539,-10.7525 -12.59871,-16.4853 0.68022,-1.4578 17.19773,-31.5776 1.58695,-2.5586 10.04011,-2.9149 53.82793,-15.2869 25.52129,-7.4166 z m 346.48087,0.3878 2.0404,3.0122 15.7727,25.8775 -4.1456,7.1901 -13.6675,18.7523 -25.03551,-9.3276 -30.4118,-10.4612 -0.8097,-0.2588 12.17766,-9.3274 26.29862,-16.4853 z m -817.03803,33.1971 -4.98767,7.7408 -16.54998,26.4603 -12.50155,20.5015 -16.84147,0.032 -16.48521,1.6201 3.10919,-2.9149 29.60214,-25.7157 29.40779,-23.7723 z m 1035.07033,1.3283 27.6265,22.2826 29.5697,25.7156 6.5099,6.1212 -7.2224,-0.7131 -25.7481,-0.032 -8.4531,-13.8618 -16.5176,-26.4605 -6.1212,-9.4571 z m -331.5503,3.9189 14.83346,4.5019 -3.3359,3.0768 -4.63142,5.0525 z m -911.86845,2.3319 -2.493833,48.8726 v 13.3112 l 0.971628,28.8249 -2.914874,1.4887 v -86.3774 l 3.465457,-4.7933 z m 535.36442,0.7445 -5.3763,9.8782 -5.89451,-6.4776 z m 917.14763,5.8614 2.2995,3.174 v 41.7474 z m -397.7502,1.8784 10.364,18.9144 1.7489,3.4977 -3.9512,-1.7487 -17.9103,-7.2874 z m -661.12487,0.9072 10.68786,14.7039 -22.54165,9.1655 -0.71256,0.3234 6.34795,-12.8253 z m 556.67537,0.099 7.06046,2.267 -23.02748,29.1163 -5.11719,-10.8174 6.76896,-7.4166 z m -449.311,1.9432 7.70821,7.0928 11.10888,12.2101 -4.40469,9.3599 -20.98705,-26.5576 z m 461.48867,2.0079 25.22983,8.6798 22.83313,8.5179 -0.7772,0.8424 -16.84148,15.4166 -18.16935,13.6674 -19.33529,12.1131 -5.73259,2.9795 -6.05646,-14.801 z m -473.82827,1.9433 17.81308,44.7918 -5.86213,14.283 -11.3356,-5.8946 -19.30291,-12.1128 -18.16935,-13.6677 -11.368,-10.3639 16.58237,-6.186 30.4118,-10.4612 z m -276.36207,9.8457 4.72858,24.906 -0.80972,-0.1662 -18.03981,-1.8138 9.10087,-14.8982 z m 1026.00177,3.5628 6.9633,11.1087 5.5383,9.1334 -9.6515,0.9386 -7.6758,1.587 1.4575,-4.9876 z m -206.8909,10.0723 18.8818,7.6759 31.1891,13.9913 13.959,31.1892 8.6151,21.0842 -6.8338,6.1214 -15.384,16.8737 -13.6999,18.1371 -12.0805,19.3351 -6.8337,13.1493 -22.8332,-8.032 -31.54535,-9.5543 -15.61076,-4.016 -3.01203,-11.6918 -9.52192,-31.513 -9.19801,-26.0394 10.59069,-5.5062 19.30291,-12.0804 18.16936,-13.6999 16.87385,-15.4164 z m -612.70569,1.911 3.59501,3.9836 16.87386,15.4164 18.13697,13.6998 19.33531,12.0806 16.42043,8.518 -7.22242,20.5012 -9.52188,31.5452 -5.18199,20.1126 -8.61508,2.2025 -31.54537,9.5543 -12.63109,4.0809 -17.35967,6.1211 -4.50187,-8.6798 -12.0805,-19.3029 -7.80537,-10.7527 -13.6999,-18.1694 -15.41642,-16.8737 -1.84609,-1.6517 11.43277,-28.0799 9.91056,-22.1205 27.46455,-12.3074 z m 306.48238,5.4385 5.82974,39.7717 5.27915,14.9307 5.14961,7.9673 5.08481,5.182 5.02007,3.8219 4.98767,3.2062 9.74863,5.765 4.72856,3.0768 4.59901,3.4656 4.33991,4.2426 3.91887,5.6032 3.1416,8.2585 1.29558,14.6717 -5.182,36.9217 13.959,-34.5574 8.45311,-12.0484 6.86616,-5.603 6.21838,-2.8824 5.86211,-1.4892 5.70019,-0.7129 5.63543,-0.292 11.33559,-0.1317 5.89454,-0.2585 6.28314,-0.8424 6.96331,-1.9434 8.45311,-4.3398 12.08053,-10.2669 24.90594,-31.5454 -14.83344,37.3428 -2.88248,15.6107 0.45335,9.4895 1.81371,6.9955 2.42905,5.8622 2.72054,5.2144 5.57065,9.9106 2.55861,5.0201 2.23473,5.2792 1.65177,5.8297 0.58304,6.8339 -1.42509,8.7444 -6.2184,13.3437 -22.89792,29.3429 29.34303,-22.9302 13.34363,-6.2184 8.74462,-1.4243 6.83374,0.6152 5.82974,1.6516 5.27915,2.2347 5.02005,2.5586 9.87817,5.5706 5.24678,2.7206 5.86213,2.429 6.99569,1.8137 9.48952,0.4527 15.61074,-2.8824 37.34275,-14.8334 -31.5454,24.9383 -10.26681,12.048 -4.33992,8.4533 -1.94324,6.9633 -0.80973,6.2832 -0.2915,5.8942 -0.12929,11.3358 -0.25918,5.6354 -0.71255,5.7001 -1.52226,5.8622 -2.88249,6.2184 -5.60302,6.8661 -12.04812,8.4532 -34.55742,13.9589 36.92169,-5.182 14.67152,1.2951 8.29118,3.1416 5.57065,3.9189 4.24276,4.3723 3.46544,4.5665 3.04443,4.7287 5.79735,9.7487 3.17391,4.9876 3.8542,5.0199 5.182,5.0848 7.9673,5.1174 14.9306,5.3114 39.7718,5.82976 -39.7718,5.82977 -14.9306,5.31164 -7.9673,5.11711 -5.182,5.08489 -3.8542,5.02005 -3.17391,4.98763 -5.79735,9.74871 -3.04443,4.72845 -3.46544,4.59898 -4.24276,4.34001 -5.57065,3.91893 -8.29118,3.14143 -14.67152,1.29524 -36.92169,-5.18216 34.55742,13.95904 12.04812,8.45327 5.60302,6.86604 2.88249,6.21842 1.52226,5.86199 0.71255,5.70029 0.25918,5.63545 0.12929,11.33553 0.2915,5.89462 0.80973,6.28327 1.94324,6.9633 4.33992,8.45287 10.26681,12.0484 31.5454,24.93813 -37.34275,-14.8334 -15.61074,-2.88246 -9.48952,0.48571 -6.99569,1.78135 -5.86213,2.42918 -5.24678,2.72056 -9.87817,5.5706 -5.02005,2.55845 -5.27915,2.23485 -5.82974,1.65167 -6.83374,0.6152 -8.74462,-1.42452 -13.34363,-6.21842 -29.34303,-22.93024 22.89792,29.34299 6.2184,13.34383 1.42509,8.74446 -0.58304,6.83382 -1.65177,5.82957 -2.23473,5.27922 -2.55861,5.02025 -5.57065,9.91041 -2.72054,5.21437 -2.42905,5.8622 -1.81371,6.99572 -0.45335,9.52197 2.88248,15.57827 14.83344,37.34256 -24.90594,-31.51299 -12.08053,-10.29906 -8.45311,-4.34001 -6.96331,-1.94326 -6.28314,-0.84234 -5.89454,-0.25877 -11.33559,-0.13374 -5.63543,-0.29179 -5.70019,-0.71307 -5.86211,-1.48895 -6.21838,-2.88267 -6.86616,-5.60302 -8.45311,-12.04799 -13.959,-34.52494 5.182,36.88927 -1.29558,14.67129 -3.1416,8.25894 -3.91887,5.60303 -4.33991,4.24274 -4.59901,3.46544 -4.72856,3.07679 -9.74863,5.76514 -4.98767,3.20627 -5.02007,3.82167 -5.08481,5.18216 -5.14961,7.96715 -5.27915,14.93066 -5.82974,39.77903 -5.82973,-39.77173 -5.27917,-14.93067 -5.1496,-7.96715 -5.08483,-5.18215 -5.02006,-3.82168 -4.98765,-3.20627 -9.74863,-5.76513 -4.72856,-3.07679 -4.59903,-3.46544 -4.33991,-4.24275 -3.91888,-5.60302 -3.14159,-8.25895 -1.29558,-14.67129 5.18199,-36.88927 -13.95899,34.52494 -8.45311,12.04799 -6.86614,5.60303 -6.2184,2.88267 -5.86212,1.48895 -5.70019,0.71307 -5.63542,0.29179 -11.3356,0.13374 -5.89453,0.25876 -6.28315,0.84235 -6.9633,1.94326 -8.45311,4.34001 -12.08054,10.29906 -24.90593,31.51299 14.83344,-37.34256 2.88248,-15.57828 -0.45335,-9.52196 -1.81369,-6.99573 -2.42908,-5.86219 -2.72054,-5.21438 -5.57064,-9.91041 -2.55862,-5.02025 -2.23472,-5.27921 -1.65177,-5.82957 -0.58304,-6.83383 1.42508,-8.74445 6.21841,-13.34384 22.89791,-29.34298 -29.34302,22.93043 -13.34364,6.21823 -8.74462,1.42451 -6.83374,-0.6152 -5.82973,-1.65166 -5.27915,-2.23485 -5.02005,-2.55845 -9.87817,-5.57061 -5.24676,-2.72056 -5.86213,-2.42917 -6.99569,-1.78115 -9.48954,-0.48592 -15.61074,2.88247 -37.34272,14.83339 31.54537,-24.93813 10.26682,-12.0484 4.33991,-8.45286 1.94324,-6.96331 0.80972,-6.28327 0.29151,-5.89461 0.12928,-11.33553 0.25919,-5.63545 0.71254,-5.70009 1.52227,-5.86219 2.88248,-6.21843 5.60303,-6.86604 12.04813,-8.45307 34.5574,-13.95903 -36.92169,5.18195 -14.67151,-1.29523 -8.29118,-3.14143 -5.57065,-3.91894 -4.24276,-4.34001 -3.46545,-4.59897 -3.04443,-4.72846 -5.79735,-9.74871 -3.17395,-4.98763 -3.85411,-5.02004 -5.182,-5.08489 -7.96731,-5.11711 -14.9306,-5.31164 -39.77178,-5.82977 39.77178,-5.82976 14.9306,-5.3115 7.96731,-5.1173 5.182,-5.0849 3.85411,-5.0198 3.17395,-4.9876 5.79735,-9.7487 3.04443,-4.7287 3.46545,-4.5666 4.24276,-4.3722 5.57065,-3.9189 8.29118,-3.1416 14.67151,-1.2951 36.92169,5.182 -34.5574,-13.9589 -12.04813,-8.4532 -5.60303,-6.8661 -2.88248,-6.2184 -1.52227,-5.8622 -0.71254,-5.7001 -0.25919,-5.6354 -0.12928,-11.3358 -0.29151,-5.8942 -0.80972,-6.2832 -1.94324,-6.9633 -4.33991,-8.4533 -10.26682,-12.048 -31.54537,-24.9383 37.34272,14.8334 15.61074,2.8824 9.48954,-0.4527 6.99569,-1.8137 5.86213,-2.429 5.24676,-2.7206 9.87817,-5.5706 5.02005,-2.5586 5.27915,-2.2347 5.82973,-1.6516 6.83374,-0.6152 8.74462,1.4245 13.34364,6.2182 29.34302,22.9304 -22.89791,-29.3431 -6.21841,-13.3437 -1.42508,-8.7444 0.58304,-6.8339 1.65177,-5.8297 2.23472,-5.2793 2.55862,-5.02 5.57064,-9.9106 2.72054,-5.2144 2.42908,-5.8622 1.81369,-6.9955 0.45335,-9.4895 -2.88248,-15.6107 -14.83344,-37.3428 24.90593,31.5454 12.08054,10.2668 8.45311,4.3401 6.9633,1.9432 6.28315,0.8424 5.89453,0.2585 11.3356,0.1317 5.63542,0.292 5.70019,0.7131 5.86212,1.489 6.2184,2.8826 6.86614,5.6028 8.45311,12.0484 13.95899,34.5574 -5.18199,-36.9217 1.29558,-14.6717 3.14159,-8.2585 3.91888,-5.6033 4.33991,-4.2425 4.59903,-3.4656 4.72856,-3.0768 9.74863,-5.765 4.98765,-3.2062 5.02006,-3.8219 5.08483,-5.182 5.1496,-7.9673 5.27917,-14.9305 z m -16.93864,1.1657 -5.05245,34.5896 -4.1132,11.5625 -3.17397,4.9554 -3.07681,3.1414 -3.5302,2.6882 -4.17801,2.6881 -3.04441,1.7814 2.23473,-6.7044 11.56232,-28.76 z m 205.66025,0.1338 5.66781,12.0158 -33.13236,41.9415 -5.34392,1.587 -1.61943,0.3565 0.6477,-1.4576 12.82544,-23.8694 12.66348,-19.724 z m -378.99784,1.2304 9.87817,12.9225 14.80106,23.06 8.55029,15.902 -6.31555,-1.8459 -31.61015,-39.9661 0.25903,-0.7131 z m 207.70067,1.9432 0.48585,0.8424 13.57036,28.436 11.5623,28.7924 -2.97962,-1.7489 -4.17801,-2.6882 -3.53022,-2.6881 -3.07681,-3.1414 -3.17396,-4.9554 -4.11322,-11.5625 z m 712.19987,10.9767 v 29.6024 l -0.9716,-0.5176 z m -1269.00479,6.9635 h 1.91087 l 28.50095,2.8501 7.09284,1.4891 4.04843,14.0239 9.65146,24.6467 -17.23013,11.6918 -32.29027,24.4202 -31.86924,26.9464 -13.73228,13.0845 -6.02407,-17.1329 -3.75694,-14.6391 4.01604,-6.0889 13.18169,-20.9548 13.53796,-22.2177 z m 1101.39979,0 12.6959,0.032 31.934,3.2065 0.7449,0.1317 2.8177,2.8825 -7.6435,45.9901 -2.6557,10.3315 -1.4251,-2.2346 -13.538,-22.218 z m -1129.7388,0.032 h 3.85411 l -18.91427,31.4482 -13.57034,22.218 -3.82172,6.0885 -0.22672,-0.9384 -7.675819,-45.9255 -0.615356,-7.9348 9.003705,-1.7489 z m 1105.6749,0.6152 26.5253,44.1116 13.5704,22.2179 13.1493,20.9224 1.5869,2.3965 -1.2956,5.0849 -8.6474,24.5821 -18.9467,-17.975 -31.8368,-26.9789 -32.2903,-24.42 -11.8862,-8.0322 12.1129,-30.8653 1.6841,-5.8944 14.2829,-2.9473 z m -151.5732,6.089 3.0444,1.5222 21.0194,11.53 -2.2023,1.2636 -12.0805,8.7769 -5.4411,-13.376 z m -774.5781,2.2022 -0.35619,0.874 -8.0321,19.6915 -12.79301,-9.295 14.31524,-7.8379 z m -89.74562,0.8423 8.19403,2.6235 17.45682,7.7082 -17.58637,10.7202 -7.51388,-19.141 z m 1122.67832,1.4578 20.8899,6.2182 32.5494,13.0198 9.36,4.7611 -0.065,2.8176 -4.7933,40.9053 -26.6873,-32.9055 -28.9544,-32.4524 z m -168.0908,1.1988 -6.9633,17.7807 -2.4615,-1.6841 -12.7606,-7.773 10.1373,-4.4695 z m -1126.564832,2.3967 -2.78532,2.8825 -28.954374,32.4522 -20.08021599,24.8086 -3.56261711,-30.2822 -0.2914845,-9.2303 1.7489216,-0.874 35.917673,-14.3799 z m 21.926298,7.9348 7.12524,42.7514 4.890502,18.9469 -6.412713,9.7485 -12.728264,18.1369 -12.695878,16.6148 -12.728267,15.0277 -12.825427,13.3438 -10.687855,9.4569 -4.242755,-14.7361 -9.781007,-48.4842 0.744912,-1.0362 28.306627,-34.9787 28.986761,-32.4522 z m 1256.632834,2.3321 5.7649,5.8944 28.9544,32.4522 28.339,34.9784 6.4451,8.8741 -7.6758,38.1201 -6.3156,21.8616 -3.4007,-2.4939 -13.0197,-11.5624 -12.8578,-13.3437 -12.7283,-14.9951 -9.3276,-12.2749 -8.2588,-11.7566 -8.8741,-13.4733 7.3519,-28.5335 z m -1059.23137,6.8982 4.04844,2.3321 19.01142,13.8294 2.68816,2.3965 -8.16164,21.8294 -10.42875,30.4116 -1.97564,6.089 -10.52591,-13.7972 -14.63913,-23.3188 -10.62308,-21.0519 0.97156,-0.6798 z m 862.44527,0.099 22.7359,13.8296 5.8298,3.9835 -7.6758,15.2223 -16.4853,26.2986 -11.627,15.1572 -9.4896,-27.5616 -10.6878,-28.6305 16.4204,-11.951 z m -644.28345,2.5911 5.60302,2.4292 7.2548,2.5584 11.85381,29.8613 2.23472,12.0805 -0.0646,0.9718 -14.93062,2.7854 -29.8612,6.5422 1.91084,-7.4168 9.5543,-31.513 z m 425.21474,1.5222 8.25878,23.4161 9.29522,30.7681 -22.86554,-5.02 -21.9263,-4.0809 2.16994,-11.7566 10.88218,-27.3997 2.55862,-0.9072 z m 515.02511,9.3276 1.8137,0.9029 v 69.3091 l -8.9065,-12.2425 0.7448,-3.692 z m -1453.742762,0.2588 0.194326,5.5384 5.57064,47.7713 -9.457137,12.9837 v -64.4185 z m 1204.100362,16.129 8.9713,6.0563 32.2903,24.4525 31.8369,26.9464 23.3837,22.218 -14.1533,31.4481 -19.1734,34.4277 -18.4932,27.4972 -2.6234,-2.494 -30.0879,-24.7116 -30.7681,-22.0559 -12.6311,-7.9025 -2.8177,-9.6515 -8.777,-29.0191 -2.7853,-8.6798 16.5499,-21.6348 7.8054,-10.7526 16.5176,-26.2986 z m -957.11371,0.8091 7.90252,15.6756 16.5176,26.2986 18.20175,23.8372 3.43306,3.7244 -8.84178,29.2459 -4.8905,16.8091 -18.39607,11.4975 -30.76807,22.0558 -28.88959,23.7724 -14.47719,-21.5051 -19.17337,-34.4603 -16.84147,-37.375 -0.38869,-1.1011 18.65517,-17.7161 31.83686,-26.9786 32.29027,-24.4202 z m 866.10501,2.7528 7.5462,20.1775 9.7163,28.3067 -44.889,17.8453 -15.5784,-6.3801 7.352,-14.1534 10.6231,-17.0034 7.3519,-9.7162 15.4164,-16.8738 z m -774.96677,0.874 12.85782,14.0885 13.69991,18.1693 12.11287,19.3354 4.89053,9.3922 -13.08453,5.3441 -47.12373,-18.7201 1.45742,-4.5342 10.46113,-30.4118 z m 580.90118,37.8609 14.38004,2.6557 28.79243,6.3157 2.36429,9.2303 6.80136,30.9301 0.74487,4.0808 -5.60303,-3.1741 -5.86211,-2.9797 -6.83374,-2.8825 -8.29119,-2.3641 -10.42877,-0.907 -4.27514,0.6799 0.68022,-4.2752 -0.90691,-10.4285 -2.36427,-8.2912 -2.88248,-6.8338 -2.97965,-5.8622 z m -386.99754,1.4243 -2.52623,4.4695 -2.97965,5.8622 -2.88248,6.8338 -2.36427,8.2912 -0.90689,10.4287 0.6802,4.275 -4.27513,-0.6799 -10.42876,0.907 -8.29119,2.3643 -6.83376,2.8825 -5.86211,2.9797 -4.56664,2.5909 1.87848,-10.1373 6.76896,-30.9299 0.22668,-0.8739 4.85813,-1.2304 30.93001,-6.8012 z m -415.077473,5.247 8.582673,24.4848 -0.32387,0.3234 -30.282261,32.452 -15.092547,18.3963 -19.108592,-0.4527 -9.586684,0.9386 1.036399,-0.7446 13.019753,-11.5623 12.857814,-13.3112 12.695878,-15.0278 12.695878,-16.6473 7.805372,-10.7524 z m 1217.023003,2.2022 8.8093,12.5339 12.6635,16.6472 12.7283,15.0277 12.8254,13.3114 13.0521,11.5621 5.5383,4.0484 -1.4574,-0.1337 -20.6956,0.4859 -6.8014,1.0695 -19.3676,-23.6105 -25.5537,-27.3997 z m -348.19746,6.0889 9.81341,2.5261 24.61445,7.4492 21.0194,7.4166 -4.2103,9.8135 -1.9757,5.4734 -27.95033,11.109 -11.85381,2.2022 -3.43306,-18.4607 z m 146.42366,0.3565 2.008,6.3157 -9.9753,10.882 -9.4572,8.5828 -9.5219,-4.4695 z m -812.50381,0.032 28.04753,22.1531 -10.36399,4.923 -15.38403,-14.0239 -4.82575,-5.2468 z m 146.71511,1.3283 -4.17799,19.1734 -4.66377,25.1002 -0.71257,0.032 -12.08051,-2.2348 -28.30662,-11.2383 -5.6678,-13.1171 20.92227,-7.3519 31.54537,-9.5542 z m -455.626542,6.0889 6.3803267,31.7395 6.2183895,21.4729 -10.7202442,6.089 -7.546275,3.0735 -7.870148,1.9109 -0.939236,0.065 v -42.4277 l 12.469164,-19.2058 z m 1430.359042,3.7246 3.9189,5.3763 10.4935,16.158 v 37.5693 l -8.1292,-2.0079 -13.8943,-5.6354 -4.599,-2.6235 7.9026,-27.4968 z m -299.5515,18.2986 3.757,12.4369 -10.3316,-5.6352 1.8461,-1.6841 z m -831.64474,1.5538 6.89852,6.2833 -10.52591,5.7325 z m 776.81284,4.8908 10.4935,4.955 -16.1613,12.3722 -23.0599,14.801 -14.38,7.7406 2.2024,-7.5139 z m -720.52346,0.907 40.06326,31.6427 1.78132,6.1536 -19.88589,-10.6555 -23.05986,-14.8336 -9.5219,-7.2547 z m -232.21796,0.8423 13.11691,29.1165 19.17337,34.4603 2.85009,4.2103 -2.13757,-2.0405 -14.76867,-11.2707 -15.90224,-9.4249 -17.100566,-7.4166 -15.610748,-4.4695 3.951268,-4.7933 z m 1182.65982,0.7131 21.9587,23.5459 9.1009,11.0439 -8.1293,2.3321 -12.631,4.1131 -17.133,7.4168 -15.9022,9.3922 -14.7363,11.3034 -0.5506,0.4859 9.0361,-13.4085 19.2058,-34.4603 z m -198.3407,13.0847 23.0275,12.5339 12.9226,8.0644 3.2711,11.4004 15.3193,53.7954 7.4167,25.5215 6.6395,21.8291 -13.8295,12.5339 -26.5577,20.5661 -0.8744,0.5506 -13.8618,-9.1333 -27.9828,-15.7726 -28.4038,-13.5704 -28.76,-11.5625 -20.0154,-6.7041 1.3279,-9.3599 4.1456,-25.1326 4.8581,-24.3878 9.8134,-4.3724 23.8695,-12.8253 23.0599,-14.801 22.1206,-16.9064 z m -784.45621,0.8423 18.59041,14.218 23.05984,14.8336 23.86954,12.7929 15.67552,6.9957 1.94326,8.032 4.8905,24.4526 4.14561,25.1651 0.61536,4.4371 -27.14069,9.1009 -28.72766,11.5299 -28.43616,13.6028 -27.98275,15.7728 -7.64344,5.0198 -7.06047,-4.6636 -26.59009,-20.5663 -8.38834,-7.6109 1.5546,-4.7287 7.4815,-24.5495 7.4167,-25.5213 15.28689,-53.828 1.23074,-4.1779 7.19001,-4.5019 z m -273.155695,35.7233 2.202346,0.099 -5.732577,7.935 -2.785321,-7.3844 z m 1336.597405,0.033 -3.7894,10.0725 -7.0604,-9.7811 z m -1309.132854,1.5538 12.728268,1.943 8.874157,2.5265 13.926601,6.0563 15.902228,9.3924 14.73629,11.2707 13.60272,12.9874 6.4451,7.5139 -3.49783,3.2711 -27.98276,30.4765 -26.492923,33.4887 -2.850096,4.1779 -1.457435,-2.1736 -22.671209,-39.7718 -20.242151,-42.9133 -3.303521,-8.8095 13.31124,-18.4932 z m 182.179374,0.3564 -9.68386,33.9744 -7.41671,25.5537 -6.08885,20.0156 -24.06387,-25.5216 -8.7446,-10.882 28.40378,-23.3837 z m 911.44738,0.1662 21.6025,15.4812 30.0879,24.744 2.17,2.0727 -12.5664,15.6756 -18.7523,19.8858 -3.6274,-11.8536 -7.4167,-25.5216 z m 237.6915,0 0.3887,0.067 21.3757,4.6638 12.5015,4.2104 1.7813,0.8326 v 97.1623 l -13.959,-26.3957 -25.8128,-41.5533 -7.2224,-10.0723 z m -57.0991,0.713 5.3115,6.4774 17.1006,23.8048 -20.2421,43.0106 -22.6712,39.7394 -6.0241,8.9387 -6.0888,-8.3884 -26.5254,-33.4885 -27.594,-30.0556 2.5585,-2.9795 13.6028,-12.9874 14.7363,-11.2707 15.9346,-9.4247 17.1005,-7.4168 18.3313,-5.247 z m -1329.8607794,0.7445 9.6190694,25.4242 -3.918879,5.4412 -25.845181,41.5853 -16.096559,30.4686 v -92.6281 l 19.8211151,-6.7044 z m 19.0438164,48.9375 17.392056,36.8892 22.671209,39.772 9.457135,13.9588 -9.457135,13.95903 -22.671209,39.77173 -17.392056,36.88947 -18.7199429,-30.15291 -23.6752201,-44.79178 -6.930913,-15.67554 6.930913,-15.6755 23.6752201,-44.7918 z m 1347.252863,0.907 22.3149,35.9176 23.6753,44.7271 3.9836,9.0685 -3.9836,9.06847 -23.6753,44.72693 -22.3149,35.91784 -13.7971,-29.34298 -22.6712,-39.77194 -13.959,-20.59832 13.959,-20.5983 22.6712,-39.772 z m -136.6102,16.0641 0.421,0.3881 27.9827,30.4443 26.493,33.4885 6.3155,9.32759 -6.3155,9.32764 -26.493,33.48866 -27.9827,30.4441 -0.421,0.38804 -0.2592,-0.35643 -10.6231,-17.52174 -9.8134,-18.84939 -9.1009,-20.11282 -6.7042,-16.80907 6.7042,-16.80908 9.1009,-20.1126 9.8134,-18.8494 10.6231,-17.5215 z m -1074.68018,0.7131 4.50186,6.2831 10.62307,17.5215 9.8134,18.8818 9.10088,20.1126 4.04842,10.1374 -4.04842,10.13736 -9.10088,20.11262 -9.8134,18.88181 -10.62307,17.52154 -4.50186,6.28327 -3.98365,-3.75683 -27.98275,-30.47672 -22.83315,-28.82465 -6.7042,-9.8784 6.7042,-9.8782 22.83315,-28.8246 27.98275,-30.4768 z m 1041.09438,14.8334 -7.5787,14.542 -6.1536,13.6026 -3.3035,-10.1047 z m -1006.40743,0.8424 12.59872,13.376 5.11721,4.6314 -1.84608,5.6679 -1.61944,4.5019 -3.56262,-7.8379 -9.781,-18.8496 z m 813.08673,12.2425 27.4322,11.0439 28.4362,13.5704 5.9916,3.3684 -33.9096,-4.9552 -11.5623,-4.1133 -4.9553,-3.1738 -3.1092,-3.077 -2.7205,-3.5301 -2.6558,-4.1779 z m -620.38144,2.6557 -1.36024,2.2997 -2.65578,4.1779 -2.72054,3.5301 -3.10919,3.077 -4.95527,3.1738 -11.56232,4.1133 -31.2215,4.5665 26.07189,-12.469 28.76005,-11.5299 z m 779.24184,18.1371 1.2631,3.9188 6.6718,18.6228 -30.0231,-4.3724 13.6675,-10.5582 z m -936.83913,0.7131 3.10919,2.7852 19.01142,14.7039 -30.08793,4.4049 1.16591,-2.8825 z m -7.96732,25.13267 30.08793,4.40464 -19.01142,14.70392 -3.10919,2.81782 -6.80138,-19.04392 z m 952.74145,0.0669 -6.6719,18.62265 -1.263,3.91894 -8.4208,-7.61092 -13.6675,-10.55844 z m -895.38329,11.20605 7.64344,5.05227 27.98275,15.74039 28.43618,13.6028 28.72764,11.52986 27.14068,9.10089 -0.61535,4.43707 -4.14561,25.16508 -4.8905,24.45242 -1.94326,8.0322 -15.6755,6.99552 -23.86954,12.79328 -23.05986,14.8334 -18.59041,14.218 -29.01914,-15.80523 -7.19003,-4.50171 -1.23074,-4.1779 -15.28687,-53.82803 -7.41672,-25.52131 -7.48149,-24.54969 -1.5546,-4.72846 8.38833,-7.61112 26.59011,-20.56591 z m 838.93189,0 0.8744,0.55056 26.5577,20.56591 13.8295,12.53391 -6.6394,21.82912 -7.4168,25.52131 -15.3192,53.79561 -3.2712,11.40038 -12.9226,8.06441 -23.0274,12.53412 -2.4938,-2.26727 -22.1207,-16.90614 -23.0598,-14.80118 -23.8696,-12.8255 -9.8134,-4.37223 -4.8581,-24.38757 -4.1456,-25.13287 -1.3279,-9.35985 20.0154,-6.70414 28.7601,-11.56248 28.4038,-13.57018 27.9827,-15.77281 z m -48.484,4.14549 -5.9916,3.36838 -28.4362,13.57017 -27.4322,11.04435 2.9473,-4.9554 2.6558,-4.14549 2.7205,-3.5629 3.1092,-3.07659 4.9553,-3.17406 11.5623,-4.11326 z m -739.8263,0.38804 31.22148,4.56676 11.56232,4.11326 4.95529,3.17385 3.10919,3.07679 2.72054,3.56271 2.65576,4.14568 1.36026,2.29928 -2.75294,-0.93839 -28.76005,-11.52986 z m 978.5218,0.90719 6.0241,8.93878 22.6712,39.73952 20.2421,43.01042 -17.1006,23.80501 -5.3115,6.47739 -4.4695,-0.68004 -18.3313,-5.27901 -17.1005,-7.4168 -15.9346,-9.4249 -14.7363,-11.2709 -13.6028,-12.95478 -2.5585,-3.01215 27.594,-30.05544 26.5254,-33.48867 z m -1222.302099,0.0993 2.850096,4.1779 26.492923,33.48867 27.98276,30.47652 3.49783,3.30374 -6.4451,7.48144 -13.60272,12.9872 -14.73629,11.27089 -15.902228,9.39228 -13.926601,6.05652 -8.874157,2.55866 -12.728268,1.91083 -8.971321,-10.92783 -13.31124,-18.52559 3.303521,-8.8095 20.242151,-42.91337 22.671209,-39.77173 z m 122.910349,10.6555 1.61943,4.50171 1.84608,5.66786 -5.1172,4.6314 -12.59872,13.37606 0.90689,-1.48916 9.78099,-18.84919 z m 978.42465,0.87375 6.1536,13.60301 7.5787,14.5418 -17.0358,-18.03987 z m 240.6387,4.1005 v 97.16247 l -1.7813,0.84235 -12.5016,4.21032 -21.3757,4.66382 -0.3887,0.0669 -10.9469,-28.92212 7.2224,-10.07231 25.8128,-41.55309 z m -1459.248629,2.59108 16.096559,30.4443 25.845181,41.5853 3.918879,5.44112 -9.6190694,25.42425 -16.4204345,-3.59513 -19.8211151,-6.70413 z m 250.873129,24.97075 6.08885,20.01535 7.41671,25.55374 9.68386,33.97438 -27.59411,-19.75638 -28.40378,-23.38373 8.7446,-10.88225 z m 957.1785,1.52219 18.7523,19.88586 12.5664,15.67555 -2.17,2.07274 -30.0879,24.74421 -21.6025,15.48101 11.4976,-40.48439 7.4167,-25.52131 z m -1003.10389,51.88457 28.88959,23.77258 30.76807,22.05567 18.39607,11.49744 4.8905,16.80928 8.84178,29.24592 -3.43306,3.72461 -18.20175,23.83702 -16.5176,26.29862 -7.90252,15.67554 -13.82945,-9.36006 -32.29027,-24.42 -31.83686,-26.97885 -18.65517,-17.71587 0.38869,-1.10111 16.84147,-37.37518 19.17337,-34.4601 z m 1047.50709,0.67983 18.4932,27.49699 19.1734,34.42788 14.1533,31.44815 -23.3837,22.21777 -31.8369,26.94644 -32.2903,24.45242 -8.9713,6.05652 -4.9553,-9.84577 -16.5176,-26.29862 -7.8054,-10.75255 -16.5499,-21.635 2.7853,-8.67962 8.777,-29.01917 2.8177,-9.65165 12.6311,-7.90251 30.7681,-22.05588 30.0879,-24.71158 z m 29.8936,7.4168 0.5505,0.51733 14.7363,11.23847 15.9023,9.4247 17.1329,7.4168 12.6311,4.11326 8.1293,2.33191 -9.1009,11.07636 -21.9587,23.51321 -9.781,-21.76428 -19.2058,-34.46009 z m -1109.49665,2.55846 -2.85009,4.24294 -19.17337,34.42768 -13.11691,29.11644 -26.428156,-28.33894 -3.951268,-4.7933 15.610748,-4.50191 17.100566,-7.4168 15.90224,-9.4247 14.76867,-11.27089 z m 1224.37485,7.31973 3.7894,10.07252 -10.8498,-0.29199 z m -1336.338236,2.07274 5.732577,7.96736 -2.202346,0.0669 -6.315552,-0.64843 z m 986.456736,20.27452 14.38,7.74061 23.0599,14.80118 16.1613,12.3718 -10.4935,4.95541 -40.9053,-32.35514 z m -635.57118,1.16575 -1.78132,6.15359 -40.06326,31.64247 -10.62307,-5.02005 9.5219,-7.28711 23.05986,-14.80118 z m -411.773949,2.81823 0.939242,0.0669 7.870148,1.91104 7.546275,3.07679 10.7202442,6.08874 -6.2183894,21.47289 -6.3803258,31.73974 -2.00803,-2.72218 -12.469164,-19.20583 z M 1431.081,-82.67638 v 37.56951 l -10.4935,16.16126 -3.9189,5.37648 -4.3075,-21.34341 -7.9026,-27.497 4.599,-2.62349 13.8943,-5.63525 z m -84.9199,2.20243 6.8014,1.03627 20.6956,0.48591 1.4574,-0.13171 -5.5383,4.04842 -13.0521,11.56248 -12.8254,13.31122 -12.7283,15.02772 -12.6635,16.64717 -8.8094,12.53391 -8.2588,-23.54564 25.5537,-27.39972 z m -1319.496788,0.58196 9.586683,0.9386 19.108592,-0.45268 15.092548,18.3961 30.282255,32.4522 0.32387,0.3234 L 92.47559,-3.74953 86.7754,-11.84637 78.970028,-22.59892 66.274149,-39.24609 53.578272,-54.24139 40.720458,-67.58523 27.700705,-79.14731 Z M 1385.609,-60.1356 l 6.3156,21.86154 7.6758,38.12007 -6.4451,8.87414 -28.339,34.97843 -28.9544,32.4522 -5.7649,5.89461 -5.6031,-33.74784 -7.3519,-28.53326 8.8741,-13.47311 8.2588,-11.75661 9.3276,-12.27494 12.7283,-14.99551 12.8578,-13.34343 13.0197,-11.56248 z m -1368.207496,0.48591 10.687855,9.45712 12.825427,13.34363 12.728267,15.02773 12.695878,16.61475 12.728264,18.13693 6.412713,9.74871 L 80.589406,41.62584 73.464166,84.3771 61.416039,72.03751 32.429277,39.58532 4.122652,4.60709 3.377738,3.57062 13.158745,-44.91335 Z m 414.980316,1.58703 0.71254,0.0324 4.66379,25.10024 4.17799,19.17341 -3.1416,-0.80912 -31.54537,-9.55438 -20.92227,-7.35196 5.6678,-13.08467 28.30662,-11.27069 z m 538.37644,0.0324 11.85381,2.20243 27.95033,11.10878 1.9757,5.47354 4.2103,9.81335 -21.0194,7.4168 -24.61445,7.44902 -9.81341,2.52624 6.02406,-27.52942 z m -688.91329,2.59087 10.52591,5.73272 -6.89852,6.28306 z m 839.02913,1.13435 -3.757,12.43664 -4.7285,-5.11711 -1.8461,-1.68409 z m -173.24046,4.016 -0.74489,4.08084 -6.80136,30.93001 -2.36427,9.23037 -28.79245,6.31569 -14.38002,2.65551 3.3359,-5.89421 2.97967,-5.86219 2.88246,-6.83382 2.36429,-8.29117 0.90689,-10.42874 -0.6802,-4.27517 4.27512,0.67984 10.42877,-0.90699 8.29119,-2.36433 6.83374,-2.88247 5.86213,-2.97952 z m -491.3175,0.58378 4.56664,2.59088 5.86211,2.97953 6.83374,2.88266 8.29119,2.36413 10.42876,0.90719 4.27513,-0.67983 -0.6802,4.27496 0.90689,10.42895 2.36429,8.29116 2.88246,6.83362 2.97967,5.8622 2.52621,4.46949 -6.57465,-1.23039 -30.93001,-6.76898 -4.85811,-1.26342 -0.22668,-0.87396 -6.76898,-30.93002 z m -143.41161,10.202 10.36399,4.92299 -28.04753,22.15273 -2.52624,-7.80525 4.82575,-5.24679 z m 777.39577,1.32827 9.4572,8.58255 9.9753,10.88224 -2.008,6.31549 -26.9464,-21.31099 z m -746.17427,12.63097 13.08453,5.34386 -4.89053,9.39247 -12.11287,19.33511 -13.69991,18.16956 -12.85782,14.08852 -4.72856,-12.6634 -10.46113,-30.41187 -1.45742,-4.53434 z m 716.86367,0.87396 44.889,17.84534 -9.7163,28.30692 -7.5462,20.17726 -2.4615,-2.20243 -15.4164,-16.87392 -7.3519,-9.71608 -10.6231,-17.00341 -7.352,-14.15335 z m -683.73131,11.85387 17.35967,6.12116 12.63109,4.08084 31.54537,9.55418 8.61508,2.20243 5.18199,20.11261 9.52188,31.54541 7.22242,20.50127 -16.42043,8.51791 -19.33531,12.08041 -18.13697,13.70007 -16.87386,15.41617 -3.59501,3.98378 -24.25819,-9.87799 -27.46455,-12.30736 -9.91056,-22.12072 -11.43277,-28.07997 1.84609,-1.65167 15.41642,-16.87371 13.6999,-18.13694 7.80537,-10.78497 12.0805,-19.30289 z m 907.04271,0 8.6475,24.5821 1.2955,5.08469 -1.5869,2.39675 -13.1493,20.92234 -13.5703,22.21778 -26.5254,44.11174 -21.991,-2.20243 -14.2829,-2.9473 -1.6841,-5.89462 -12.1129,-30.86517 11.8862,-8.03199 32.2902,-24.42021 31.8369,-26.94643 z m -1166.14226,0.80932 13.73228,13.08467 31.86924,26.94623 32.29027,24.42 17.23013,11.69196 -9.65146,24.67917 -4.04843,13.99146 -7.09284,1.48895 -28.50095,2.85004 h -1.91087 L 139.11352,69.02555 125.57556,46.80797 112.39387,25.85321 108.37783,19.76448 112.13477,5.1252 Z m 907.33426,1.35967 6.8337,13.14911 12.0805,19.33551 13.6999,18.13693 15.384,16.87392 6.8338,6.12116 -8.6151,21.08404 -13.959,31.18918 -31.1891,13.99146 -18.8818,7.67576 -8.97136,-10.00767 -16.87385,-15.41638 -18.16936,-13.66764 -19.30291,-12.11284 -10.59069,-5.50576 9.19801,-26.03965 9.52192,-31.51279 3.01203,-11.69196 15.61076,-4.0162 31.54535,-9.55418 z m 405.5879,2.03991 v 69.30925 l -1.8137,0.90699 -6.3479,-54.28132 -0.7449,-3.69219 z m -1459.248629,3.65977 9.457133,12.98741 -5.57064,47.77151 -0.194326,5.53818 -3.692165,-1.87842 z m 304.215249,3.20648 1.97564,6.08874 10.42875,30.41187 8.16164,21.82913 -2.68816,2.39655 -19.01142,13.82955 -4.04844,2.33191 -29.63451,-18.03988 -0.97156,-0.67983 10.62308,-21.05182 14.63913,-23.31889 z m 850.04088,2.29949 11.627,15.1574 16.4853,26.29862 7.6758,15.22185 -5.8298,3.98378 -22.7359,13.82934 -10.9794,-6.34791 -16.4204,-11.95093 10.6878,-28.63032 z m -654.9713,14.67149 29.86122,6.54223 14.9306,2.7854 0.0646,0.97163 -2.23473,12.11284 -11.85381,29.8289 -7.25479,2.55866 -5.60303,2.42897 -6.44511,-18.29884 -9.55428,-31.51299 z m 460.67899,1.52218 -9.29522,30.76811 -8.25878,23.41615 -11.6271,-5.02005 -2.55862,-0.90719 -10.88218,-27.36751 -2.16994,-11.78882 21.9263,-4.08104 z m 472.33841,11.4328 4.7934,40.90547 0.065,2.81762 -9.3599,4.76088 -32.5494,13.01983 -20.8899,6.21842 2.2995,-2.36433 28.9544,-32.4522 z M -0.28204199,32.1687 19.798174,57.00977 48.752548,89.46197 51.537868,92.31201 33.530449,86.93573 -2.3872241,72.55563 -4.1361457,71.68187 -3.8446611,62.4513 Z M 1301.3693,44.57379 l 2.6558,10.36391 7.6434,45.95794 -2.8177,2.88246 -0.7449,0.13171 -31.934,3.20648 -12.6959,0.0324 22.9303,-38.12006 13.538,-22.21778 z m -1200.08432,2.78541 3.82172,6.08874 13.57034,22.25039 18.91427,31.41573 h -3.85411 l -31.96641,-3.20648 -9.003707,-1.74893 0.615356,-7.93493 7.675821,-45.92532 z m 669.54562,8.74466 13.11689,1.84599 25.13266,4.14548 20.50124,4.08104 6.38035,14.31527 12.79302,23.83702 14.80108,23.05992 16.42044,21.47289 -13.86183,25.52131 -7.74059,12.37201 -52.8887,15.02772 -25.52131,7.4168 -24.54968,7.51366 -7.61105,2.4616 -15.4812,-17.13289 -15.7403,-20.33956 -3.82171,-5.79715 11.27083,-17.06825 15.77268,-27.9827 13.57033,-28.40378 11.56232,-28.76021 z m -138.48873,0.93859 7.77299,23.28647 11.56232,28.76001 13.57035,28.4362 15.77268,27.9827 6.89852,10.39653 -2.42907,3.65977 -20.566,26.59 -9.74863,10.75256 -25.22983,-7.70819 -25.52129,-7.4166 -53.82793,-15.28689 -10.04011,-2.91488 -1.58693,-2.55866 -17.19775,-31.57783 -0.6802,-1.45755 12.59869,-16.48526 7.80539,-10.75256 14.80106,-23.05972 12.82542,-23.86985 2.55861,-5.69988 4.63142,-1.13434 24.4849,-4.89057 25.16505,-4.14568 z m 26.00713,9.94284 3.04441,1.81377 4.17801,2.65572 3.5302,2.68814 3.07681,3.14163 3.17397,4.95521 4.1132,11.56228 5.05245,34.58978 -12.372,-25.94219 -11.56232,-28.76021 z m 86.1506,0.0324 -11.56232,28.79263 -13.57034,28.436 -0.48587,0.84235 4.56663,-31.28625 4.11322,-11.56228 3.17396,-4.9552 3.07681,-3.14164 3.53022,-2.68814 4.178,-2.65571 z m 111.25087,5.34385 1.61944,0.35664 5.34392,1.58682 33.13236,41.94194 -5.66781,12.01558 L 881.8872,117.4127 869.22372,97.68894 856.39829,73.81929 Z m -311.34049,2.78541 -8.55029,15.90229 -14.80106,23.05992 -9.87817,12.92256 -4.43709,-9.35985 -0.25901,-0.71307 31.61014,-39.96626 z m -312.83032,1.16575 17.58637,10.72013 -17.45682,7.70819 -8.19403,2.6235 0.55054,-1.91104 z m 939.55974,0.6152 6.9633,17.7807 -12.0481,-3.85389 -10.1373,-4.46949 12.7606,-7.77303 z m -73.5195,0.38804 12.0805,8.77708 2.2023,1.29503 -21.0194,11.49764 -3.0444,1.52219 4.3399,-9.71629 z m -792.74747,0.3234 8.0321,19.69154 0.35619,0.87396 -6.86614,-3.43322 -14.31526,-7.83767 z m -333.040059,5.63687 2.914868,1.48895 -0.971626,28.82485 v 13.31142 l 2.493833,48.87242 -0.971629,-1.32827 -3.465446,-4.79229 z M 1431.081,84.5066 v 29.60195 l -0.9716,-29.08382 z m -1435.9620576,9.52196 25.7804046,10.29906 12.631102,4.11327 34.784115,10.3639 2.137571,0.42128 -1.327883,16.90613 v 13.279 l 0.453427,51.04242 2.526223,26.39588 L 35.700415,213.47345 -0.50874455,196.4052 -2.6787046,180.47069 -5.7555114,120.26254 Z m 1414.6511576,1.03627 0.8097,23.77238 -2.8177,54.99399 -3.2064,23.51301 -43.0105,20.24229 -29.3754,10.78498 3.3359,-34.55736 0.421,-51.0102 -1.7489,-22.54159 7.4167,-1.45754 34.7841,-10.36411 z m -275.8439,4.56676 19.4972,8.61497 12.6312,4.11306 19.7239,6.31548 4.9553,17.19773 6.8985,36.17681 0.1293,1.45775 -10.4288,16.12883 -18.9466,28.01513 -3.4331,4.82592 -4.7933,3.4006 -28.0152,18.94666 -10.6878,6.93089 -7.5463,-0.74468 -36.2092,-6.89826 -12.4367,-3.56291 -7.352,-22.99508 -10.1049,-22.80075 -3.9512,-6.89847 17.975,-32.84085 11.8862,-23.9667 29.7964,-14.76876 z m -862.86624,0.0993 22.70359,12.43664 32.32267,16.03198 0.77722,0.3232 0.35619,0.80932 15.99937,32.32271 14.25048,26.03945 -0.22668,0.38804 -10.0725,22.83297 -7.93493,24.7118 -1.42509,6.89846 -5.603,1.58682 -36.20917,6.89847 -13.01976,1.26362 -17.84547,-11.56228 -28.04753,-18.91424 -4.08082,-2.91488 -15.25449,-22.60643 -11.56232,-17.84555 1.26308,-13.01982 6.86614,-36.20903 2.46144,-8.42065 2.33189,-0.51732 24.74402,-7.90272 22.80075,-10.10473 z m 654.90648,0.38784 5.73259,2.97973 19.33529,12.11304 18.16935,13.69986 16.84148,15.38395 0.7772,0.84235 -22.83313,8.51791 -25.22983,8.67982 -18.84949,-47.41528 z m -449.08429,1.19898 5.86213,14.28284 -17.81308,44.79178 -1.23076,-0.38784 -30.4118,-10.46117 -16.58237,-6.15358 11.368,-10.3641 18.16935,-13.69987 19.30291,-12.11283 z m 732.86305,22.89802 7.6758,1.58682 9.6515,0.97184 -5.5383,9.10088 -6.9633,11.10879 -3.3682,-17.7805 z m 221.3358,0.0304 v 41.74742 l -2.2995,3.17385 z m -1237.78329,1.39291 -4.72858,24.90591 -5.02005,-8.03199 -9.10087,-14.89824 18.03982,-1.81378 z m -76.04572,1.35967 16.48521,1.61844 16.84147,0.0324 12.50155,20.50126 16.54998,26.46052 4.98767,7.74061 -5.24676,-3.95136 -29.40779,-23.77238 -29.60214,-25.71543 z m 1166.14231,0.90719 -6.5099,6.12116 -29.5697,25.71564 -27.6265,22.31504 -0.3562,-3.62735 6.1212,-9.45712 16.5176,-26.46072 8.4531,-13.86177 25.748,-0.0324 z m 30.4442,0.64823 1.5546,19.56185 -0.3562,39.02706 -4.6314,48.19238 -29.7965,8.03199 -44.6299,7.90272 -14.6391,1.26362 0.6477,-7.83787 -0.1625,-37.21308 8.7122,-6.57465 29.4078,-23.77238 29.5698,-25.71564 z m -1223.338538,2.55845 17.230118,16.19388 29.60213,25.71564 29.40779,23.77238 16.48521,12.46907 -0.16251,28.79243 v 13.27879 l 0.0647,0.71307 -9.23043,-0.77771 -44.62989,-7.90272 -35.399479,-9.55418 -3.854106,-39.99848 -0.421044,-51.0102 z m 820.114818,3.78945 23.02748,29.11644 -7.06046,2.26707 -14.31525,-13.14931 -6.76896,-7.4168 z m -418.93158,0.77771 4.40469,9.36006 -11.10888,12.2101 -7.70821,7.09279 -6.57465,-2.10516 z m -134.3431,6.51002 0.71254,0.3232 22.54167,9.19815 -10.68788,14.6717 -6.21838,-11.36816 z m 685.8041,2.68814 -1.7489,3.49786 -10.364,18.91424 -9.7486,-13.37606 17.9103,-7.28711 z m -642.04865,14.76875 19.52962,7.31933 30.41182,10.42896 8.38834,2.72056 -19.75634,15.09256 -26.29862,16.48507 -13.1169,6.63949 -18.55801,-30.47652 8.0321,-13.95903 6.05644,-8.32358 z m 600.56035,2.07274 13.6675,18.75234 4.1456,7.19005 -15.7727,25.87754 -2.0404,3.01195 -17.78071,-8.93899 -26.29862,-16.51748 -12.17766,-9.32764 0.80972,-0.25876 30.4118,-10.46117 z m -495.39833,3.43302 5.3763,9.87819 -11.27081,-3.4008 z m 388.74647,0.32341 4.63142,5.05247 3.3359,3.07679 -14.83346,4.50191 z m -411.67678,22.31483 10.0725,3.2387 29.01913,8.77708 4.50185,1.32826 11.14129,17.81313 22.08825,30.76811 24.71161,30.08786 0.5182,0.55056 -29.63449,19.91829 -34.42786,19.1732 -29.1811,13.14951 -25.16504,-26.49294 -26.94636,-31.8368 -19.36769,-25.58615 -8.51789,-12.56634 13.89421,-6.99572 26.29859,-16.51749 23.83717,-18.2342 z m 437.1981,1.94326 0.55053,0.51753 23.86955,18.23399 26.29859,16.51769 18.39606,9.2628 -7.99969,11.82144 -24.42012,32.29009 -26.94636,31.83701 -19.69156,20.72781 -34.62218,-15.6105 -34.46026,-19.17341 -25.2298,-16.97118 20.85752,-25.35941 7.80537,-10.72013 22.05585,-30.80033 5.02004,-7.99978 15.4812,-4.50191 28.98678,-8.77708 z m 510.55564,10.91406 v 100.466 l -10.1697,-3.85429 -11.3356,-1.68409 -1.7813,0.0669 11.8862,-52.88883 4.5019,-32.90548 z m -735.93985,0.19452 4.56661,31.28625 -21.69958,-7.74061 -0.90689,-0.3234 0.48586,-0.51733 z m 12.24244,2.72057 12.30722,15.87007 6.21838,6.89826 -6.63941,2.17 -15.12495,5.37628 -1.13357,-0.45268 z m -735.551219,0.48611 2.979644,3.98378 v 0.0993 l 0.129503,0.0669 5.862127,7.83787 4.566629,33.39141 10.5583076,46.79968 -6.9309146,1.03647 -12.663489,4.11326 -4.501813,1.71266 z m 1059.004629,5.18216 6.6394,14.96288 2.7853,8.74466 -19.562,-7.67577 3.4655,-5.08489 z m -473.89309,0.58358 47.48,13.47312 25.52129,7.4168 9.78103,2.97953 -23.80478,22.44472 -13.86183,11.10879 -4.53423,-4.82572 -23.93433,-29.08402 -15.06016,-21.0194 z m -186.09825,0.45269 10.0725,16.55011 0.45337,0.67983 -19.36769,7.57871 5.60302,-17.52174 z m 470.33046,2.88246 -16.67954,23.28667 -24.87355,30.21735 -18.29892,-14.63907 -17.39205,-16.42043 16.03179,-4.89056 25.52131,-7.4166 z m 360.21318,9.78093 0.098,15.83765 -1.3279,15.57828 -6.9633,0.58358 -26.1043,-0.13171 1.3603,-1.87841 9.4571,-13.279 z m -997.76,1.42451 16.03178,11.40038 13.60273,19.10856 -16.54999,0.0669 -12.40439,-1.06788 -0.77722,-9.16573 z m -187.782394,3.10922 7.222401,3.4006 47.382828,17.42447 3.854106,1.23039 0.388641,4.14569 10.202045,55.09084 2.331895,8.42085 -3.627393,-4.72846 -15.805073,-19.95091 -35.010827,-43.65805 z m 1365.584194,4.11326 -16.9711,21.37563 -34.9784,43.62582 -11.9834,15.12499 2.6882,-9.5868 9.3923,-50.75084 44.6299,-16.3882 z m -719.35755,9.10068 3.27114,1.10112 9.68384,3.46544 -19.6268,8.87414 -13.89421,7.22247 12.92259,-12.2101 z m 78.86343,2.26707 1.91085,2.10537 12.92261,12.17767 -13.89423,-7.22247 -9.48952,-4.27517 z m 267.81172,0 22.5417,8.84192 12.6635,4.11306 3.0444,0.87396 3.8865,18.78476 1.9109,19.04372 -47.9011,28.82485 -22.21775,13.57038 -18.97904,11.91851 -10.0725,-2.59087 -21.37571,-7.51407 10.68786,-11.20605 26.94635,-31.8368 24.42012,-32.29029 7.80537,-10.75256 z m 388.5198,1.94346 -12.0805,53.53644 -0.6154,0.13171 -12.6311,4.11326 -13.6351,4.53414 -14.4124,6.47759 -2.6882,1.45754 35.9177,-44.79178 18.9143,-23.86964 z m -1003.94594,0.25856 9.65145,14.2182 24.42014,32.29009 26.94633,31.837 16.51761,17.39185 -18.10457,6.34811 -11.10891,2.85005 -6.12122,-4.016 -20.92228,-13.18173 -22.21779,-13.53796 -40.80817,-24.54968 2.591,-25.87755 2.13756,-10.23442 9.65145,-2.7854 z M 7.5233343,250.3297 20.154435,266.23199 56.039723,311.02377 53.351565,309.56623 38.97154,303.12106 25.336426,298.55451 18.08164,297.12999 Z m 89.2921807,5.79736 32.452225,8.74465 44.62989,7.90252 11.10889,0.9386 1.74893,20.43642 7.87014,44.59766 5.95929,22.02324 -41.29398,-7.64334 -43.1077,-11.98336 -10.8174,-39.02685 z m 606.973065,0.0669 5.31156,2.10517 20.11257,9.10088 18.8819,9.81356 17.5216,10.62307 8.35596,5.99168 -1.74893,1.84599 -30.44418,27.9827 -33.48862,26.52537 -6.63942,4.46949 -12.66349,-8.58275 -33.48861,-26.52537 -27.33503,-25.10024 3.49786,-2.49381 17.5216,-10.6555 18.8495,-9.78092 20.11261,-9.10089 z m 602.89222,1.65167 -6.9633,37.63415 -13.2464,47.67445 -35.8529,9.97546 -48.2573,8.93878 8.0644,-29.92597 7.9026,-44.66229 1.1336,-13.27879 16.5176,-1.42452 44.6299,-7.90251 z m -236.4607,5.63545 7.4815,2.1698 16.9387,3.20648 -16.2909,10.16958 -5.6355,3.46564 -1.3602,-13.57038 z m -736.78192,1.81377 -1.78132,17.42427 -12.76065,-7.80524 -8.29119,-5.18196 21.60244,-4.08104 z m 793.49232,8.48549 0.2592,0.0324 -1.1984,1.58683 -23.7724,29.40783 -25.6832,29.56973 -3.3683,3.59492 1.0041,-10.29906 0.033,-21.0196 16.8091,-10.23442 26.4605,-16.51749 z m -849.42543,0.51733 2.2671,1.48915 26.49294,16.51769 24.58207,15.02772 0.0332,27.01108 0.7772,7.54628 -10.91456,-11.5947 -25.71564,-29.60195 -21.05184,-26.03965 z m -71.34956,1.23039 10.55831,0.90719 32.54939,-0.16616 9.35998,12.40443 23.77238,29.40762 25.68324,29.60216 19.30291,20.50126 -8.777,0.67984 -51.01021,-0.42108 -43.82023,-4.21032 -8.67982,-32.09597 -7.90255,-44.66229 z m 992.12459,0.48591 -0.3887,4.85815 -7.9026,44.59766 -10.6554,39.4155 -37.0513,3.5625 -51.0102,0.42108 -16.9386,-1.32827 14.8334,-15.74018 25.7157,-29.60216 23.7723,-29.40782 12.5664,-16.64718 1.2307,0.0993 40.7434,0.19452 z m -407.69318,30.99486 5.73259,4.89057 12.98737,13.60259 11.27083,14.76876 9.39235,15.90229 7.41672,17.10046 5.27916,18.33126 0.16251,0.9072 -10.04011,8.22632 -20.30694,14.57443 -4.24275,-1.58703 -42.91336,-20.20967 -39.77178,-22.67127 -4.72856,-3.20628 33.58575,-26.59 30.44422,-27.98291 z m -179.65314,0.42107 1.45743,1.52239 30.4766,27.98271 33.45622,26.52536 6.15362,4.1779 -10.78503,7.28732 -39.73938,22.70349 -39.93371,18.78475 -27.56174,-19.7888 -3.40068,-2.78541 1.32792,-8.87394 5.27918,-18.33146 7.4167,-17.10046 8.03209,-13.60281 4.82572,-6.31548 13.01977,-13.6028 z m 212.23492,2.29949 5.70019,3.82167 34.42786,19.20583 31.44819,14.15336 -26.55769,24.74381 -7.19001,5.92683 -3.14159,-10.94668 -7.41672,-17.10067 -9.42474,-15.90229 -7.80539,-10.78497 z m -249.09182,4.11306 -10.0401,13.11709 -9.39238,15.93451 -7.41672,17.10066 -5.24677,18.16936 -12.92258,-10.62307 -20.59841,-19.20583 25.48891,-11.46502 34.42784,-19.20583 z m -573.74355982,3.20648 12.11290582,0.48571 12.080516,2.36433 1.781307,0.6152 14.412414,6.44517 15.18971,8.25874 16.031784,10.00767 16.873858,11.59471 5.635414,4.11326 4.145592,5.66787 11.594709,16.87371 9.97533,16.03198 8.29117,15.18962 6.44511,14.37991 4.53425,13.66764 2.55861,12.85772 0.0647,1.49078 -1.32791,8.67981 -3.98367,10.49359 -6.28316,9.65145 -0.19435,0.16616 H -28.167619 V 327.09389 l 6.639426,-4.33981 10.525919,-3.98358 z m 1409.24237982,0 8.356,1.29503 0.8421,0.29179 9.619,6.31569 2.6882,2.68895 V 486.0797 h -159.9616 l -2.1052,-2.10516 -0.7125,-1.03647 -3.9513,-10.52601 -1.7489,-11.33554 0.4859,-12.11283 2.5262,-12.89014 4.5666,-13.63523 6.4451,-14.3799 8.2588,-15.18983 10.0077,-16.03177 8.2264,-12.01578 5.3116,-3.88651 16.9062,-11.5947 15.9994,-10.00768 15.2221,-8.25874 14.38,-6.44517 13.6351,-4.56676 12.8902,-2.52603 z m -355.8408,2.0081 v 1.97568 l -3.2063,31.93386 -2.2672,11.43279 -1.0364,1.03627 -4.5018,-0.35643 -45.95781,-7.67577 -4.43708,-1.13434 2.97965,-1.87841 22.21774,-13.53796 z m -702.38648,0.58196 28.3714,17.10067 22.2178,13.57038 11.30321,7.09279 -46.05494,7.67596 -11.40037,0.87376 -1.26308,-6.31549 -3.17397,-31.96628 z m 565.35522,35.56161 24.42012,8.58255 -17.10056,12.01578 -16.64715,12.66339 -15.02776,12.72824 -13.31126,12.8255 -11.5623,13.05224 -1.19841,1.65147 0.32384,-3.56271 -0.48585,-20.69539 -0.45337,-2.94731 15.1897,-12.46906 32.45224,-30.24998 z m -430.07286,1.97568 29.79645,27.75576 22.41211,18.42852 -0.3887,15.15741 v 13.27899 l 0.35619,3.49766 -9.0037,-12.33958 -11.56232,-13.01962 -13.34364,-12.85792 -15.02778,-12.72824 -16.61475,-12.66339 -9.32758,-6.54244 z m -345.12059,12.50129 17.78071,4.92298 47.4152,8.8095 0.42102,1.52219 17.42445,47.41528 2.62339,5.60302 -1.48976,-1.16575 -23.86954,-18.91424 -43.65828,-35.01085 z m 826.75425,1.91104 28.50095,7.31953 31.31861,5.2468 -9.4247,9.19795 -32.45221,28.95433 -34.97845,28.33893 -4.59901,3.33617 -43.04291,-8.6476 -19.30291,-5.5706 7.38434,-8.35581 13.34363,-12.8255 14.99538,-12.72844 16.64713,-12.66339 18.13698,-12.72823 z m -531.21883,1.19898 5.40868,3.56271 18.16936,12.72803 16.61477,12.69601 15.02778,12.69582 13.34362,12.85772 11.52994,13.01982 1.13357,1.52239 -11.95097,3.46524 -48.51639,9.78113 -11.75665,-8.58276 -35.01081,-28.33893 -32.45222,-28.95434 -3.98368,-3.88671 38.50868,-6.44497 z m 819.85569,0.0993 -17.8131,14.08851 -43.6258,35.01086 -21.0195,16.64697 6.0888,-12.92236 15.0278,-40.87305 55.0587,-10.23442 z m -555.25028,7.70798 11.27081,7.64355 39.73941,22.67127 39.707,18.68749 -39.60985,24.58211 -44.75944,23.67532 -4.72856,2.10516 -14.02378,-6.186 -44.75944,-23.70754 -32.06356,-19.88607 32.16073,-15.15721 39.73939,-22.67127 z m -471.10776,5.79756 37.05125,3.5627 51.01021,0.42108 19.95067,-1.5538 2.16996,10.91466 10.36399,34.78411 11.59468,28.98676 -21.53764,0.71286 -60.20825,-3.07659 -20.56603,-2.81782 -15.38404,-32.6141 z m 941.27624,0.71286 -11.7566,31.96669 -19.0438,40.41935 -12.0482,1.65167 -60.2406,3.07679 -28.8896,-0.9386 14.1533,-35.39951 10.364,-34.7841 0.9392,-4.76088 25.9747,2.04032 51.0103,-0.42108 z m -1027.81549,11.98356 45.14811,36.1766 18.91426,14.99551 -47.48,-10.72034 -0.68004,-3.46524 -4.53425,-13.63522 -6.47749,-14.37991 z m 1112.67059,1.3929 -0.5182,0.90699 -6.4451,14.41253 -4.5342,13.63502 -2.2995,11.56228 -51.4637,11.5947 16.6795,-13.21395 43.6583,-35.01085 z m -217.8055,2.88247 -5.3439,17.87797 -14.3477,35.91764 -2.7205,5.31143 -5.5059,-0.16616 -34.94605,-4.08084 22.83314,-18.52559 32.45221,-28.95453 z m -673.95033,2.23485 1.03639,1.06788 32.45221,28.95433 28.88962,23.35151 -28.33902,3.33576 -13.47318,0.45268 -13.95899,-34.88117 z m 480.88874,12.24231 0.0979,3.33596 -0.64769,6.51002 -8.61506,-3.2389 8.777,-6.31549 z m -286.75842,1.39291 9.06849,6.47759 -8.80938,3.33596 -0.38869,-3.88651 z m 257.38302,19.75659 25.29458,9.55418 0.45337,0.13171 -3.14159,14.41232 -7.77299,22.99528 h -93.27583 l 27.39979,-14.50959 41.58547,-25.8129 z m -228.10477,1.26342 1.94325,1.3929 41.58547,25.84512 35.17278,18.59043 h -95.4458 l -5.53826,-16.32316 -4.24275,-19.46499 z m 283.77879,17.52174 31.48059,9.06846 19.91828,4.016 -9.94295,7.22247 -12.30722,7.99958 h -39.2212 l 2.85011,-11.62712 5.63538,-13.89419 z m -341.71992,2.10516 4.17798,7.31953 5.63543,13.89419 1.19839,4.98763 h -39.05923 l -18.65517,-12.11284 -2.78532,-2.0081 25.42413,-5.11711 z m -367.56509,1.68409 55.83596,12.56633 24.61446,3.36838 3.91887,2.97952 0.0647,0.13374 0.19435,0.0669 7.22241,5.4087 h -99.52663 l 2.0728,-3.14163 3.98365,-10.52601 z M 1242.165,462.6664 v 5.05247 l 1.7166,11.33553 2.6558,7.02815 h -98.4903 l 1.8785,-1.39291 0.065,0.0324 0.1293,-0.19453 7.7406,-5.82977 33.3915,-4.56656 z m -290.06189,13.95903 3.72455,0.74468 50.10334,5.86219 -1.4574,2.85005 h -65.35786 z m -499.96495,0.97183 11.65948,8.48549 h -66.58858 l -1.10124,-2.17 2.85007,-0.0993 z m -165.49984,5.34386 54.50806,2.7854 31.54537,-1.03627 0.71255,1.39291 h -82.42606 z m 829.15088,0.38804 -3.8217,2.75298 h -83.6567 l 0.842,-1.65166 39.5775,1.29503 z"
     id="path4"
     inkscape:connector-curvature="0" />
  <circle
     style="color:#000000;clip-rule:nonzero;display:inline;overflow:visible;visibility:visible;opacity:1;isolation:auto;mix-blend-mode:normal;color-interpolation:sRGB;color-interpolation-filters:linearRGB;solid-color:#000000;solid-opacity:1;fill:none;fill-opacity:1;fill-rule:evenodd;stroke:#0000ff;stroke-width:0.5;stroke-linecap:butt;stroke-linejoin:miter;stroke-miterlimit:4;stroke-dasharray:none;stroke-dashoffset:0;stroke-opacity:1;color-rendering:auto;image-rendering:auto;shape-rendering:auto;text-rendering:auto;enable-background:accumulate"
     id="path814"
     cx="701.45673"
     cy="-243.5433"
     r="1.6397636" />
</svg>
