<?xml version="1.0" encoding="UTF-8" standalone="no"?>
<svg
   xmlns:dc="http://purl.org/dc/elements/1.1/"
   xmlns:cc="http://creativecommons.org/ns#"
   xmlns:rdf="http://www.w3.org/1999/02/22-rdf-syntax-ns#"
   xmlns:svg="http://www.w3.org/2000/svg"
   xmlns="http://www.w3.org/2000/svg"
   xmlns:sodipodi="http://sodipodi.sourceforge.net/DTD/sodipodi-0.dtd"
   xmlns:inkscape="http://www.inkscape.org/namespaces/inkscape"
   width="1492.9135"
   height="1492.9137"
   viewBox="-45 -990 1492.9134 1492.9137"
   version="1.1"
   id="svg6"
   sodipodi:docname="lotus - projection-6.svg"
   inkscape:version="0.92.3 (2405546, 2018-03-11)">
  <metadata
     id="metadata12">
    <rdf:RDF>
      <cc:Work
         rdf:about="">
        <dc:format>image/svg+xml</dc:format>
        <dc:type
           rdf:resource="http://purl.org/dc/dcmitype/StillImage" />
        <dc:title>OpenSCAD Model</dc:title>
      </cc:Work>
    </rdf:RDF>
  </metadata>
  <defs
     id="defs10" />
  <sodipodi:namedview
     pagecolor="#ffffff"
     bordercolor="#666666"
     borderopacity="1"
     objecttolerance="10"
     gridtolerance="10"
     guidetolerance="10"
     inkscape:pageopacity="0"
     inkscape:pageshadow="2"
     inkscape:window-width="1920"
     inkscape:window-height="1026"
     id="namedview8"
     showgrid="true"
     inkscape:zoom="0.45603865"
     inkscape:cx="445.55148"
     inkscape:cy="646.06777"
     inkscape:window-x="1600"
     inkscape:window-y="27"
     inkscape:window-maximized="1"
     inkscape:current-layer="svg6"
     inkscape:document-units="cm"
     fit-margin-top="0"
     fit-margin-left="0"
     fit-margin-right="0"
     fit-margin-bottom="0"
     inkscape:snap-nodes="false"
     inkscape:snap-others="false"
     inkscape:snap-to-guides="false"
     inkscape:snap-bbox="true"
     inkscape:bbox-nodes="true">
    <inkscape:grid
       type="xygrid"
       id="grid4529"
       units="cm"
       spacingx="737.00786"
       spacingy="737.00787"
       originx="0"
       originy="0" />
  </sodipodi:namedview>
  <title
     id="title2">OpenSCAD Model</title>
  <path
     style="fill:none;stroke:#0000f2;stroke-width:0.49133857;stroke-opacity:1;stroke-miterlimit:4;stroke-dasharray:none"
     d="M -44.749986,-989.74997 V 502.66365 H 1447.6634 V -989.74997 Z m 16.58237,16.5824 H 149.08882 l 3.40071,5.7003 3.56256,10.6877 0.8739,7.4492 -0.35654,5.2468 -2.85,12.8901 -4.85814,13.6028 -6.73658,14.3477 -8.51787,15.0926 -10.20215,15.8699 -11.7889,16.7118 -10.42881,13.7969 -13.829366,10.429 -16.71206,11.8214 -15.86983,10.2018 -15.09244,8.5179 -14.31539,6.7366 -5.63537,2.0081 -10.49349,2.3319 -12.17776,0.8093 -11.43271,-1.3599 -10.68784,-3.5303 -3.10919,-1.8784 z m 197.336696,0 h 96.35272 l -4.37246,3.2389 -8.67971,6.7041 -22.28256,2.6557 -56.09519,11.6271 0.13273,-1.8461 -1.32825,-11.4651 -3.56256,-10.6555 z m 126.05192,0 h 78.8958 l -2.0403,4.1781 -21.149,-1.0365 -59.3014,2.1052 -4.1456,0.4859 z m 98.3606,0 h 77.9566 l -4.5018,3.0119 -12.1777,9.1011 -47.059,-6.2184 -16.7119,-0.8093 z m 109.8259,0 h 43.7231 l -5.344,17.0358 -2.6557,13.7323 -0.5837,1.0032 -25.2297,-7.6111 -34.8165,-7.5461 z m 66.7505,0 h 104.2552 l -2.6233,1.199 -43.8528,23.9018 -38.5409,24.5173 -27.7237,-10.8498 -5.862,-1.7814 0.1327,-0.7445 4.3723,-7.3519 5.9268,-13.7647 3.8218,-14.121 z m 160.3179,0 h 103.4777 l 0.6799,6.4776 3.8218,14.0885 5.9591,13.7971 2.5911,4.4045 -10.3964,3.3683 -21.5377,8.4531 -3.9836,-2.9149 -40.7434,-25.9746 z m 125.4041,0 h 44.0469 l 20.9223,13.959 4.8582,3.6274 -30.3797,6.5746 -30.3468,9.1657 -2.0727,-10.8174 z m 75.8515,0 h 76.7581 l 2.591,5.4087 -10.2344,0.4859 -52.0142,6.866 z m 96.1906,0 h 79.6732 l 6.9633,5.1497 -56.8076,-2.0081 -27.6266,1.3599 z m 109.4048,0 h 96.2879 l -1.8137,5.4411 -1.3283,11.4652 v 6.4774 l -51.9818,-10.785 -29.4079,-3.5301 z m 115.0079,0 h 178.7462 v 178.0986 l -7.773,4.6314 -0.6798,0.2272 -11.044,1.295 -12.1779,-0.8093 -12.8901,-2.8825 -13.6026,-4.8579 -14.3477,-6.7042 -15.0926,-8.5179 -15.8698,-10.2346 -16.712,-11.789 -13.797,-10.4286 -7.6435,-10.1049 -8.1939,-11.5949 -10.202,-15.8697 -8.5179,-15.0601 -6.7044,-14.3477 -4.8581,-13.6028 -2.8825,-12.8902 -0.8091,-12.1776 1.3283,-11.4651 3.5627,-10.6555 z m -549.5178,6.0889 13.2463,6.0241 43.885,23.9019 35.1404,22.3797 -3.7246,1.4577 -42.1359,20.4687 -38.9622,22.8007 -8.6798,6.0241 -13.5704,-9.3923 -38.9945,-22.8007 -39.5125,-19.2057 28.7922,-18.3312 43.8852,-23.9021 z m -351.8895,14.7361 12.7929,0.6485 -1.7164,3.5303 -13.4409,35.5614 -9.5542,34.4601 -0.7777,4.4048 -11.9186,-1.1011 -50.2328,-0.3566 -48.48406,3.8865 11.01169,-31.6425 18.72002,-41.7474 2.23462,-1.7167 32.06373,-3.8215 z m 706.8235,0 59.3014,2.1054 24.9059,2.9795 2.7204,2.0728 21.4082,47.7069 8.939,25.6832 -42.4598,-3.4006 -50.2007,0.3564 -16.874,1.5538 -9.3598,-33.8447 -13.4409,-35.5616 -4.2103,-8.7123 z m -675.019,1.5538 25.0677,1.199 26.914,3.5625 -4.5666,3.4008 -34.266,28.3714 -31.772,28.9543 -6.607,6.6071 7.8701,-28.4362 13.4408,-35.5614 z m 636.7046,0.292 6.4128,13.2788 13.4731,35.5614 6.9309,25.0354 -12.1128,-12.048 -31.7722,-28.9867 -33.4887,-27.6913 31.9665,-4.2428 z m 156.3666,7.2872 2.6882,0.3232 53.0829,11.0119 2.5911,11.6271 4.8581,13.6026 6.7042,14.3153 6.3803,11.2709 -40.0309,-32.8733 -23.4486,-19.0762 z m -715.9567,0.4857 2.1374,0.292 51.3342,11.0763 15.0602,4.5668 -2.7854,3.6598 -11.7242,12.8901 -13.5055,12.6958 -15.125,12.5339 -16.712,12.5017 -18.1693,12.5337 -6.7366,4.3727 -24.3877,-6.6395 -45.31,-8.1941 0.582,-0.5506 31.7722,-28.9541 34.2658,-28.4038 z m 484.2246,0.8425 13.635,10.202 34.266,28.339 31.7721,28.9867 5.0523,4.9878 -39.3831,7.1253 -28.0475,7.6109 -13.4407,-8.7123 -18.2018,-12.5339 -16.712,-12.5017 -15.125,-12.5337 -13.4731,-12.696 -10.2991,-11.3355 21.2135,-6.4128 z m -719.13085,0.099 -15.28679,12.1777 -23.48098,19.0437 -37.82854,31.0919 2.10512,-3.2387 8.51804,-15.0601 6.70409,-14.3477 4.85815,-13.6028 1.10107,-5.0198 z m 949.56735,20.1124 3.7246,2.9798 23.4486,19.0761 42.9458,35.27 6.9955,5.6679 -12.2101,-3.1416 -44.8564,-7.5463 -11.6596,-33.5858 z m -946.91153,0.3567 -5.79735,12.8901 -13.92672,40.0957 -38.60576,6.5099 -21.40817,5.5381 5.79737,-4.696 42.91335,-35.2702 23.48098,-19.0762 z m 325.94723,2.1373 0.3566,0.099 18.979,7.4492 -19.8211,14.5745 -0.4527,-9.4249 z m 297.2842,1.2953 0.9386,12.6309 -0.4526,9.5544 -2.5587,-2.1378 -17.3596,-12.7928 15.6107,-6.089 z m -315.0326,9.295 v 7.5787 l 0.8092,17.3596 -21.7644,18.2664 -25.9422,24.6148 -23.0275,-8.4209 13.0522,-9.0036 16.7118,-12.5017 15.125,-12.5339 13.5055,-12.6958 z m 333.0401,3.5951 5.1819,5.6677 13.4734,12.6958 15.1247,12.5665 16.7121,12.5015 18.2017,12.5339 1.4244,0.9386 -2.3318,0.7445 -22.1531,8.0646 -31.0271,-29.5049 -16.1612,-13.5379 0.6482,-3.6924 z m -276.4917,1.003 4.1781,1.6203 42.1036,20.4689 38.9944,22.8007 8.4209,5.8298 -11.6595,8.0644 -32.8085,26.5254 -29.8289,27.9178 -2.7528,2.9475 -10.8822,-9.1008 -13.1493,-13.4409 -6.9632,-8.8418 -7.7083,-12.5339 -7.7082,-16.9063 -5.6354,-18.0721 -1.6516,-9.5868 4.599,-3.8863 z m 219.5546,1.0051 26.4606,19.4324 9.9104,8.3234 -0.5173,3.0445 -5.6355,18.1046 -7.7082,16.8739 -9.6514,15.7079 -11.4652,14.5419 -13.1494,13.4084 -7.3519,6.1536 -6.2831,-6.7365 -29.8287,-27.9503 -32.8086,-26.4932 -6.769,-4.696 3.5625,-2.4616 38.9622,-22.8008 42.1361,-20.4686 z m -272.1193,39.7069 0.3566,2.0079 5.6355,18.1047 7.7081,16.9062 9.6515,15.6755 8.3237,10.5584 -33.5535,-19.1734 -31.0273,-14.4447 18.3639,-17.4569 z m 323.518,0.6484 9.7489,8.1617 23.1246,21.991 -35.8206,16.647 -33.5209,19.2058 8.3234,-10.5582 6.4127,-8.8417 9.6515,-15.708 7.7082,-16.9063 z m -587.2165,5.1171 50.2328,0.3234 8.7771,0.8424 -0.3881,0.388 -27.2378,29.5374 -25.1649,29.505 -23.25433,29.3106 -4.43711,5.9593 -30.8976,-0.6485 -20.30694,1.4246 0.38802,-5.506 7.02811,-44.0469 10.68784,-42.5247 2.13764,-0.3567 z m 856.486,0 48.7753,3.919 1.0365,3.0119 11.4974,45.634 6.9958,43.7555 -15.9023,-1.1011 -38.7029,0.8093 -7.0281,-9.4896 -23.2867,-29.3107 -25.1651,-29.5373 -21.6346,-23.4808 -0.4859,-2.5911 13.6999,-1.295 z m -774.8374,3.2712 16.3557,1.5223 45.1482,8.1942 4.9228,1.3282 -14.3476,8.8419 -22.1854,13.3435 -40.0956,23.7077 -0.1658,-10.785 2.5587,-31.5454 1.4891,-8.3236 z m 686.8082,0.6154 8.2265,8.1614 2.0079,11.3034 2.3968,29.6345 -0.1338,7.611 -46.4112,-27.4646 -22.1856,-13.3437 -7.3841,-4.5665 8.3558,-2.2346 45.1482,-8.1944 z m 156.0103,2.9471 38.8648,6.5422 45.1482,11.692 2.1376,1.62 2.6233,3.4979 14.0563,54.184 5.0849,30.2176 -37.2781,-9.3925 -44.0469,-7.0281 -8.9713,-0.6482 -0.4212,-6.3804 -7.0604,-44.0469 z m -998.01903,0.9386 -8.55038,33.8773 -7.02792,44.0469 -0.84239,12.1453 -4.59896,0.3232 -44.04692,7.0281 -42.362836,10.6555 6.218406,-36.9539 13.24649,-51.1075 0.51736,-0.3566 54.18423,-14.0561 z m 501.03363,8.6149 9.9107,6.8663 32.8084,26.4929 29.8289,27.9181 2.9147,3.1414 -9.781,6.8661 -17.5863,10.4611 -18.8819,9.6515 -14.8658,6.6071 z m -4.2427,0.1662 -14.1209,96.6117 -19.724,-8.7444 -18.882,-9.6515 -17.554,-10.4612 -5.9268,-4.1456 28.8572,-27.0435 32.8085,-26.5254 z m -252.0391,4.016 9.9106,2.6883 18.6229,6.8012 -21.7644,23.3189 -26.3635,31.7073 -15.1896,20.4365 -17.0359,-21.5376 11.4975,28.9222 -3.1738,4.3073 -7.3845,11.0442 -25.8451,-10.5582 -18.2665,-5.5384 -1.1011,-4.8258 -3.1738,-26.914 50.0061,-29.6343 22.1854,-13.3113 20.9547,-12.9549 z m 510.4585,0.9718 20.307,12.5664 22.1853,13.3112 47.8362,28.3067 7.9673,4.7609 -2.5586,21.408 -2.6882,11.9512 -12.6958,3.8541 -10.3963,3.4006 -21.894,8.9065 -4.8905,-7.3195 -5.7001,-7.8703 12.2423,-30.8328 -18.1369,22.9303 -18.7198,-25.1973 -26.3958,-31.7073 -17.0683,-18.2667 19.8859,-7.2871 z m -626.1141,8.9066 -1.101,13.5055 v 10.9147 l 0.2918,15.3515 -16.4529,9.8458 -26.3958,16.1937 -3.3359,2.1378 -9.7162,-1.1011 17.7808,-22.4121 25.165,-29.4727 z m 741.2516,3.433 7.5137,8.1293 25.1651,29.5049 21.0842,26.5902 -6.9309,0.7777 -9.4247,-5.9917 -26.3634,-16.1937 -10.1374,-6.0887 0.3566,-21.1815 z m -579.5086,2.8503 34.1363,15.902 33.8126,19.3354 27.8207,19.1409 -4.3722,4.6963 -24.1935,29.926 -21.6347,30.6062 -10.7204,17.3918 -3.5948,1.0365 -28.7925,8.5827 -10.0078,3.1739 -7.0281,-6.5747 -19.5944,-15.3515 -35.8853,-45.3748 14.7363,-19.8212 26.3958,-31.7073 z m 416.0815,1.4575 24.3878,26.1367 26.3632,31.7073 18.2991,24.5819 -34.5574,43.6909 -1.0697,0.7129 -23.416,18.299 -1.6843,1.6201 -4.9552,-1.5868 -28.7924,-8.5828 -12.5015,-3.5625 -5.7973,-9.3923 -21.6026,-30.6062 -6.4126,-8.8417 -24.2258,-29.9262 -0.5174,-0.5836 23.999,-16.5176 33.7802,-19.3352 36.695,-17.0682 z m -821.442736,21.6994 -3.53023,13.5382 -8.12934,48.3867 -41.81212,14.542 -14.15338,6.3802 3.33588,-4.2102 19.04385,-23.481 35.30238,-42.9133 z m 1247.596636,0.6485 12.5664,7.093 14.3477,6.7365 13.6028,4.8582 10.3963,3.3681 2.7204,0.5838 12.0806,58.2325 -16.3556,-20.5661 -19.0762,-23.4484 z m -1272.956046,3.3684 -30.2499,36.8568 -19.0762,23.4486 -10.16965,12.7606 10.91453,-52.5972 8.097,-1.7814 13.60268,-4.8581 14.31524,-6.7041 z m 1253.685646,0.067 3.8863,4.7935 35.27,42.9134 19.0764,23.4808 3.3357,4.1781 -14.1856,-6.3481 -36.5654,-12.728 -6.9633,-41.3588 z m -1344.500016,16.4529 3.40072,1.1343 10.39631,3.4006 10.1373,1.1658 -10.00778,48.2248 -3.53022,29.4078 -9.1981,11.9511 -1.1989,1.5871 z m 1459.248616,1.8462 v 97.9395 l -5.8295,-7.9025 -2.8503,-3.6922 -3.4654,-28.7924 -11.1414,-53.7956 3.7894,0.2588 11.465,-1.3283 z m -1099.3917,7.9349 1.9756,16.6796 -21.9262,-4.5343 13.0196,-7.9674 z m 740.636,0.099 20.9223,12.7931 -21.9588,4.5341 -1.1011,0.3234 0.1317,-0.6152 z m -469.5209,11.5945 17.5218,14.3155 25.1002,24.0962 -13.8618,4.1779 -25.392,7.2873 -53.439,14.9629 3.0444,-4.9228 16.6149,-23.5459 22.7682,-28.177 z m 196.2356,0.4545 4.0484,4.3722 24.2259,29.9584 19.4,27.4646 -44.2088,-12.372 -25.3917,-7.2873 -19.1085,-5.7325 19.9505,-19.1735 z m -158.6336,8.8739 14.6715,7.4817 20.1124,8.9712 4.2105,1.62 -9.3599,3.336 -6.4775,2.0727 -7.4815,-8.453 z m -416.69691,1.6843 17.97514,0.3881 -4.17811,5.603 -13.66752,19.5296 -19.49722,13.6677 -3.04435,2.2346 -0.4527,-20.9869 1.32824,-18.9145 z m 961.25931,0 17.1655,1.199 1.5222,22.1854 -0.3881,19.3353 -9.3276,-6.9309 -19.0762,-13.3114 -7.6757,-11.0115 -6.4452,-8.8418 -1.5224,-2.0729 z m -427.1256,1.6841 -15.6432,15.0602 -2.85,3.2062 -10.1049,-3.2709 -1.6517,-0.5505 15.5785,-6.9309 z m 461.5534,0.7131 7.7407,0.5505 44.0469,7.0282 40.3873,10.1372 0.9716,5.7327 4.1133,51.5932 -0.2588,40.1603 -1.5222,16.388 -3.174,-0.5837 -0.4211,-0.4211 -29.5375,-27.238 -29.5049,-25.1327 -29.3108,-23.2865 -2.9795,-2.2022 0.7131,-34.687 z m -1034.51954,0.2918 -0.84238,12.2747 v 10.9471 l 0.5837,27.9179 -9.26275,6.8662 -29.34317,23.2865 -29.50485,25.1651 -27.173026,25.068 -1.03641,-11.1738 -0.35651,-50.2329 4.14558,-51.4313 45.374836,-11.4004 44.04693,-7.028 z m 104.09314,0.9718 12.793,1.4243 35.4319,7.2871 3.0769,13.7647 8.2588,24.3554 10.3315,22.4445 0.9717,1.5869 -14.5095,26.8816 -14.9632,30.6386 -30.6384,14.9304 -24.1612,13.0523 -4.8256,-2.8503 -22.44456,-10.3639 -24.35536,-8.2263 -10.00764,-2.2673 -0.67987,-2.2022 -7.31946,-35.5938 -1.42443,-12.8255 11.30321,-17.7807 18.88186,-28.4038 8.55036,-5.9917 27.91789,-18.558 z m 826.3981,0.4527 11.7242,7.4816 27.9179,18.558 9.0038,6.2831 6.3155,9.0036 18.558,27.9181 10.2668,16.1613 -0.388,3.5302 -7.3195,35.5939 -2.753,9.036 -3.9836,0.907 -10.3965,3.3684 -24.3554,8.2265 -21.1489,9.781 -30.2822,-16.3558 -27.8532,-13.5704 -11.3033,-23.1892 -17.6188,-32.5819 4.0484,-6.8012 10.3641,-22.4123 8.2265,-24.3878 1.5222,-6.6071 5.3763,-1.6514 35.594,-7.3196 z m -758.8055,14.1209 5.7002,1.7165 24.4202,9.9753 -4.5019,6.7366 -11.6919,19.5298 -5.1495,-11.1414 -8.2265,-24.3876 z m 57.9088,0.7131 2.6557,6.6395 -5.279,-2.7528 z m 631.458,1.1658 -6.5747,19.465 -7.9997,17.3272 -8.8742,-14.7688 -6.9311,-10.4287 22.5418,-9.2306 z m -58.2003,0.5821 2.3966,3.5949 -4.8255,2.5263 z m 342.0762,5.5058 23.5134,8.1941 47.7067,21.408 4.599,5.9595 3.8538,32.0635 1.8787,52.9535 -0.8424,16.9386 -7.0279,-3.433 -35.5939,-13.4409 -34.4278,-9.5218 -1.5538,-0.2918 1.2952,-13.9915 0.3564,-50.2329 z m -1255.466866,1.3282 -3.20635,39.8366 v 10.9147 l 0.32334,50.2329 0.90707,9.5866 -31.61016,8.7445 -10.39632,3.4008 -35.56156,13.4409 -0.8739,0.421 -0.80921,-16.4528 2.1053,-59.3014 3.56256,-29.8935 46.15205,-20.6956 z m 648.040366,4.5992 4.7609,1.5538 -3.8865,4.3396 z m -42.1361,1.9431 -0.8425,5.6678 -0.6482,-0.8423 -2.9475,-3.3684 3.6275,-1.1657 z m -278.1434,3.4332 17.0682,8.8741 8.3561,5.3763 14.38,36.1768 -16.1938,5.4734 -25.6184,9.4249 -4.5667,-4.9554 -8.3235,-11.1088 -7.4491,-12.5017 19.2705,-32.1284 z m 597.8075,1.4245 5.7649,8.6474 15.9996,26.6873 -4.9554,8.2912 -13.8942,18.5904 -30.2822,-11.109 -10.8824,-3.7246 13.5057,-34.039 3.9189,-2.5263 z m -254.8245,0.5173 7.5787,2.4614 24.4526,7.352 25.3917,7.2871 53.504,14.9955 4.2427,1.199 7.8055,12.6956 12.9874,24.1935 -1.4245,1.5538 -5.4085,7.2547 -3.7246,0.4526 -6.8987,0.3567 -15.125,0.1661 -8.4529,0.4211 -9.2305,1.1344 -10.3315,2.6557 -11.5625,5.3762 -9.8782,8.0645 -4.5341,-11.951 -7.3196,-10.4287 -7.6435,-7.4166 -7.4168,-5.6355 -7.125,-4.5989 -13.0198,-7.7082 -5.7974,-3.7246 -5.2144,-4.016 -4.7608,-4.826 -4.923,-7.6109 -3.4655,-9.8133 2.1052,-2.7854 z m -87.2517,1.8785 10.5259,11.8538 6.1213,8.032 -2.8178,7.935 -4.9228,7.6111 -4.7611,4.8257 -5.2143,4.0162 -5.7974,3.7244 -13.0198,7.7082 -7.1252,4.599 -7.4166,5.6354 -7.6436,7.4168 -7.3195,10.4288 -4.5342,11.9509 -9.8783,-8.0646 -11.5621,-5.3763 -10.3316,-2.6557 -9.2304,-1.1341 -8.4532,-0.4213 -15.1248,-0.1662 -6.8986,-0.3564 -6.0566,-0.7777 -5.9592,-7.935 16.2262,-30.2175 2.8824,-4.696 13.1493,-3.7247 53.5038,-14.9953 25.392,-7.2873 24.42,-7.3519 z m -471.98217,33.5857 0.77771,6.9635 -4.9228,7.773 -16.2262,26.3633 -7.83766,13.1169 -17.87795,-0.2918 -20.50128,1.6517 7.64348,-7.0282 29.50502,-25.1651 z m 1032.25257,1.1343 23.74,18.8494 29.5051,25.1651 10.6553,9.8458 -13.1169,-1.0679 -25.0356,0.4213 -4.6636,-7.773 -16.1937,-26.3959 -5.9919,-9.3925 z m -333.3641,3.7244 18.7849,5.6031 -5.1173,4.7935 -5.02,5.6354 z m -369.0548,2.4616 -7.4815,13.9264 -8.2587,-9.2625 z m -537.340006,1.7165 -2.04046,58.2327 v 10.9469 l 0.93856,19.0439 -5.40868,2.5909 v -82.0375 z m 1447.977906,5.2793 4.7608,6.4125 v 78.0215 l -3.8541,-1.8786 1.1658,-24.1286 z m -395.1269,2.0403 11.3679,21.0518 3.1416,6.4776 -11.0441,-4.8581 -15.6107,-6.2833 8.0644,-10.785 z m -660.9953,0.6484 0.9386,1.5868 11.9509,15.9672 -19.4972,7.8376 -8.3561,3.6922 6.8986,-14.1533 z m 585.2086,10.105 6.7366,2.2994 28.2094,10.3639 -3.1738,3.4657 -16.9388,15.1248 -18.2016,13.4407 -8.1616,5.0202 -0.1946,-0.7777 -0.4527,-9.036 3.1739,-17.2626 z m -507.252,1.5868 8.3235,21.0518 3.2064,17.2626 -0.4527,9.036 -0.066,0.3234 -12.955,-7.9347 -18.2018,-13.4733 -15.222,-13.5702 23.319,-8.6152 z m -258.0632,5.1821 4.85812,23.5457 -17.87795,-2.1052 5.24684,-8.7447 z m 1022.8279,2.753 9.4571,15.4164 2.4614,4.0808 -13.8942,1.6201 -2.4938,0.582 z m -205.3041,10.0075 16.6472,6.6719 31.7719,14.0239 1.4578,0.7128 0.7128,1.4578 14.0239,31.7722 7.449,18.5253 -8.2911,7.6436 -15.125,16.9388 -13.4407,18.2015 -8.939,14.542 -1.1011,-0.5835 -13.1815,-7.4168 -7.5141,-3.8541 -8.615,-3.6274 -10.2346,-2.8827 -12.6956,-1.1341 -12.599,2.0405 2.0406,-12.5663 -1.1342,-12.7282 -2.8827,-10.2669 -3.6273,-8.5503 -3.8541,-7.5463 -7.4168,-13.1817 -0.6798,-1.2951 12.0482,-7.4168 18.2017,-13.4407 16.9386,-15.1576 z m -612.4465,1.5538 5.5059,5.9594 16.9386,15.125 18.2018,13.4731 16.9062,10.3964 -0.8739,1.6841 -7.4166,13.1817 -3.8541,7.5463 -3.6274,8.5503 -2.8825,10.2669 -1.1343,12.7282 2.0405,12.5663 -12.5988,-2.0405 -12.6958,1.1343 -10.2345,2.8825 -8.615,3.6274 -7.514,3.8541 -13.1816,7.4168 -2.2995,1.1989 -5.9594,-9.7162 -6.4127,-8.8418 -13.4732,-18.1693 -15.1248,-16.9712 -4.2104,-3.8539 9.8135,-24.3878 11.4003,-25.8127 30.1202,-13.279 z m 306.288,4.8581 5.8297,39.772 5.2791,14.9304 5.1497,7.9674 5.0849,5.1819 5.0198,3.8219 4.9877,3.2063 9.7487,5.7649 4.7286,3.0768 4.599,3.4657 4.3398,4.2425 3.919,5.6032 3.1416,8.2588 1.295,14.6715 -5.1819,36.9217 13.959,-34.5574 8.4531,-12.0482 6.866,-5.603 6.2184,-2.8827 5.8622,-1.489 5.7001,-0.713 5.6355,-0.2918 11.3357,-0.1317 5.8944,-0.2588 6.2831,-0.8423 6.9633,-1.9433 8.4533,-4.34 12.0806,-10.2668 24.9057,-31.5455 -14.8334,37.3428 -2.8825,15.6107 0.4527,9.4895 1.8138,6.9958 2.429,5.8622 2.7205,5.2141 5.5706,9.9107 2.5587,5.02 2.2346,5.2792 1.6517,5.8298 0.5838,6.8338 -1.3931,8.7445 -6.2509,13.3438 -22.8978,29.343 29.343,-22.9302 13.3436,-6.2185 8.7771,-1.4245 6.8014,0.6152 5.8298,1.6517 5.279,2.2346 5.02,2.5587 9.8782,5.5706 5.2468,2.7206 5.8622,2.4289 6.9956,1.8138 9.4895,0.4527 15.6107,-2.8825 37.3428,-14.8334 -31.5454,24.9384 -10.2669,12.0482 -4.3398,8.453 -1.9433,6.9633 -0.8091,6.2833 -0.2918,5.8944 -0.1317,11.3355 -0.2587,5.6355 -0.7445,5.7001 -1.4892,5.8622 -2.8824,6.2184 -5.6031,6.8662 -12.0482,8.4531 -34.5573,13.9588 36.9215,-5.1819 14.6392,1.295 8.2912,3.1417 5.603,3.9189 4.2428,4.3722 3.4654,4.5666 3.0444,4.7286 5.7973,9.7487 3.1741,4.9877 3.8541,5.02 5.1819,5.0847 7.9674,5.1173 14.9307,5.3117 39.7717,5.82953 -39.7717,5.82998 -14.9307,5.31143 -7.9674,5.11711 -5.1819,5.08489 -3.8541,5.02005 -3.1741,4.98763 -5.7973,9.74871 -3.0444,4.72846 -3.4654,4.59918 -4.2428,4.3398 -5.603,3.91894 -8.2912,3.14163 -14.6392,1.29504 -36.9215,-5.18196 34.5573,13.95904 12.0482,8.45307 5.6031,6.86624 2.8824,6.21822 1.4892,5.8622 0.7445,5.70008 0.2587,5.63565 0.1317,11.33554 0.2918,5.89441 0.8091,6.28327 1.9433,6.96331 4.3398,8.453062 10.2669,12.04819 31.5454,24.93814 -37.3428,-14.8334 -15.6107,-2.88246 -9.4895,0.48591 -6.9956,1.78115 -5.8622,2.42917 -5.2468,2.72057 -9.8782,5.5706 -5.02,2.55866 -5.279,2.23464 -5.8298,1.65167 -6.8014,0.6152 -8.7771,-1.42432 -13.3436,-6.21842 -29.343,-22.93024 22.8978,29.34299 6.2509,13.34363 1.3931,8.74446 -0.5838,6.83382 -1.6517,5.82978 -2.2346,5.27901 -2.5587,5.02025 -5.5706,9.91041008 -2.7205,5.21457992 -2.429,5.86199 -1.8138,6.99573 -0.4527,9.52196 2.8825,15.57828 14.8334,37.34277 -24.9057,-31.51299 -12.0806,-10.29927 -8.4533,-4.33981 -6.9633,-1.94346 -6.2831,-0.84235 -5.8944,-0.25856 -11.3357,-0.13171 -5.6355,-0.29199 -5.7001,-0.71307 -5.8622,-1.48895 -6.2184,-2.88247 -6.866,-5.60303 -8.4531,-12.04819 -13.959,-34.52494 5.1819,36.88927 -1.295,14.67149 -3.1416,8.25875 -3.919,5.60302 -4.3398,4.24275 -4.599,3.46544 -4.7286,3.07679 -9.7487,5.76513 -4.9877,3.20628 -5.0198,3.82187 -5.0849,5.18195 -5.1497,7.96716 -5.2791,14.93066 -5.8297,39.771748 -5.8298,-39.771748 -5.279,-14.93066 -5.1497,-7.96716 -5.0849,-5.18195 -5.0199,-3.82187 -4.9878,-3.20628 -9.7487,-5.76513 -4.7285,-3.07679 -4.599,-3.46544 -4.34,-4.24275 -3.9187,-5.60302 -3.1416,-8.25875 -1.2953,-14.67149 5.182,-36.88927 -13.9591,34.52494 -8.4528,12.04819 -6.8663,5.60303 -6.2184,2.88247 -5.8622,1.48895 -5.7001,0.71307 -5.6354,0.29199 -11.3356,0.13171 -5.8945,0.25856 -6.2831,0.84235 -6.9634,1.94346 -8.453,4.33981 -12.0806,10.29927 -24.9059,31.51299 14.8334,-37.34277 2.8826,-15.57828 -0.4544,-9.52196 -1.8136,-6.99573 -2.429,-5.86199 -2.7207,-5.21457992 -5.5705,-9.91041008 -2.5586,-5.02025 -2.2349,-5.27901 -1.6516,-5.82978 -0.582,-6.83382 1.3929,-8.74446 6.2507,-13.34363 22.898,-29.34299 -29.343,22.93024 -13.3437,6.21842 -8.7769,1.42432 -6.8014,-0.6152 -5.8297,-1.65167 -5.2792,-2.23464 -5.02,-2.55866 -9.8782,-5.5706 -5.2467,-2.72057 -5.8622,-2.42917 -6.9956,-1.78115 -9.4896,-0.48591 -15.6108,2.88246 -37.3427,14.8334 31.5453,-24.93814 10.267,-12.04819 4.3398,-8.453062 1.9433,-6.96331 0.8092,-6.28327 0.2918,-5.89441 0.1328,-11.33554 0.2586,-5.63565 0.7446,-5.70008 1.4891,-5.8622 2.8825,-6.21822 5.603,-6.86624 12.0481,-8.45307 34.5575,-13.95904 -36.9218,5.18196 -14.6391,-1.29504 -8.2912,-3.14163 -5.603,-3.91894 -4.2428,-4.3398 -3.4654,-4.59918 -3.0445,-4.72846 -5.7973,-9.74871 -3.1739,-4.98763 -3.8541,-5.02005 -5.182,-5.08489 -7.9673,-5.11711 -14.9306,-5.31143 -39.7718,-5.82998 39.7718,-5.82953 14.9306,-5.3117 7.9673,-5.1173 5.182,-5.0847 3.8541,-5.02 3.1739,-4.9877 5.7973,-9.7487 3.0445,-4.7286 3.4654,-4.5666 4.2428,-4.3722 5.603,-3.9189 8.2912,-3.1417 14.6391,-1.295 36.9218,5.1819 -34.5575,-13.9588 -12.0481,-8.4531 -5.603,-6.8662 -2.8825,-6.2184 -1.4891,-5.8622 -0.7446,-5.7001 -0.2586,-5.6355 -0.1328,-11.3355 -0.2918,-5.8944 -0.8092,-6.2833 -1.9433,-6.9633 -4.3398,-8.453 -10.267,-12.0482 -31.5453,-24.9384 37.3427,14.8334 15.6108,2.8825 9.4896,-0.4527 6.9956,-1.8138 5.8622,-2.4289 5.2467,-2.7206 9.8782,-5.5706 5.02,-2.5587 5.2792,-2.2346 5.8297,-1.6517 6.8014,-0.6152 8.7769,1.4245 13.3437,6.2185 29.343,22.9302 -22.898,-29.343 -6.2507,-13.3438 -1.3929,-8.7445 0.582,-6.8338 1.6516,-5.8298 2.2349,-5.2792 2.5586,-5.02 5.5705,-9.9107 2.7207,-5.2141 2.429,-5.8622 1.8136,-6.9958 0.4544,-9.4895 -2.8826,-15.6107 -14.8334,-37.3428 24.9059,31.5455 12.0806,10.2668 8.453,4.34 6.9634,1.9433 6.2831,0.8423 5.8945,0.2588 11.3356,0.1317 5.6354,0.2918 5.7001,0.713 5.8622,1.489 6.2184,2.8827 6.8663,5.603 8.4528,12.0482 13.9591,34.5574 -5.182,-36.9217 1.2953,-14.6715 3.1416,-8.2588 3.9187,-5.6032 4.34,-4.2425 4.599,-3.4657 4.7285,-3.0768 9.7487,-5.7649 4.9878,-3.2063 5.0199,-3.8219 5.0849,-5.1819 5.1497,-7.9674 5.279,-14.9304 z m -561.69547,18.5258 7.4168,0.1662 -25.26225,42.654 -13.31117,22.1855 -6.18605,10.0077 -1.52226,-5.5057 -8.161676,-45.1483 -1.32825,-14.1857 5.53818,-5.5707 11.303216,-2.0079 z m 1129.12347,0 31.513,2.5909 2.7529,0.4859 9.3923,9.4247 -0.5836,6.3803 -8.1941,45.1481 -3.5303,13.1168 -4.1454,-6.7041 -13.3112,-22.1854 -28.436,-47.998 z m -1101.85324,0.4857 2.59097,0.033 28.07993,3.3359 2.13765,0.4859 6.67173,21.9262 9.65145,23.6753 -13.50552,9.0037 -1.78127,1.3282 -29.40785,-11.6919 21.86154,17.295 -22.80075,16.9709 -31.70732,26.3635 -20.40412,19.0761 -5.9917,-16.388 -3.91876,-14.3476 3.98358,-6.1536 12.92264,-20.9548 13.31118,-22.1853 z m 1067.68454,0.5506 2.9148,4.8906 28.3066,47.8039 13.3436,22.1853 12.9228,20.9548 1.8784,2.8825 -1.8138,6.6717 -8.1941,22.4445 -24.6143,-22.9951 -31.7073,-26.3959 -18.2342,-13.5701 21.9263,-17.3274 -29.4726,11.7243 -6.3479,-4.7286 -9.1656,-6.0888 11.7242,-28.6953 4.5668,-15.0926 8.1939,-1.8462 z m 98.4577,7.4168 0.292,0.067 28.9543,7.9997 30.6708,11.5947 16.5177,7.9998 -0.8091,16.4527 -4.8905,37.3429 -5.9595,-7.9673 -28.3714,-34.266 -28.9543,-31.7722 z m -251.0999,0.032 6.0567,2.9473 22.9951,12.4044 -4.1457,2.4939 -13.1493,9.8133 -4.7933,-11.9185 z m -862.38039,0.3234 3.01203,0.6798 15.18977,5.1496 19.78875,9.1333 -22.70359,13.6028 -3.82174,2.5584 -7.83783,-19.1407 z m 99.68859,1.4576 -3.7569,8.5179 -6.8986,17.1977 -15.8698,-11.8537 17.2626,-9.3276 z m 863.4816,0.1317 -1.5222,4.9554 -9.8458,24.1286 -8.2263,-5.4736 -16.3233,-9.8133 13.4084,-6.186 z m -1117.042836,0.713 -8.16166,8.1941 -28.98682,31.7722 -28.37128004,34.2658 -0.71305,0.9386 -3.72456996,-28.2421 -1.03639,-21.5375 10.36399,-5.0201 35.56139,-13.4085 z m 9.74863,14.9307 0.35651,3.757 8.16168,45.1803 5.50585,20.3069 -6.60708,10.2346 -12.53395,18.2018 -12.50147,16.7118 -12.56627,15.125 -12.66364,13.4731 -12.89014,11.7566 -0.42119,0.2918 -5.3115,-17.4891 -11.07653,-51.334 -0.25868,-1.9757 7.935,-10.6231 28.37144,-34.2981 28.98665,-31.7722 z m 1252.519606,2.0405 2.1376,2.1376 28.9543,31.772 28.3714,34.2659 12.7284,17.0359 -9.7163,44.8242 -6.9957,23.157 -5.1173,-3.8866 -12.8902,-11.7241 -12.6958,-13.4732 -12.5341,-15.125 -8.3234,-11.1414 -10.2992,-14.9304 -8.7123,-13.4409 7.6111,-28.0476 z m -1052.9158,5.7325 5.7325,3.4331 18.6876,13.9912 2.2671,2.1054 -10.1373,27.5616 -4.6313,13.635 -36.30645,-14.4445 -0.19392,-0.2588 -12.2101,-23.4808 6.99561,-4.6962 z m 853.5712,0.033 24.1286,14.4447 10.9791,7.3195 -9.7809,18.7524 -4.3074,6.7041 -34.007,13.5058 -2.7854,-8.2266 -11.3356,-30.7681 -0.9716,-2.4614 16.7118,-12.5015 z m 297.5433,10.3314 3.2387,1.5869 1.5538,0.9072 v 79.8997 l -5.603,-7.7404 -6.6719,-8.9392 6.8338,-51.8522 z m -1448.139746,0.3881 0.90704,18.9466 5.63537,42.7513 -11.88625,15.9347 -0.97173,1.4576 v -76.0458 z m 1200.278546,20.7926 4.0485,2.6884 -6.8661,2.7203 z m -91.8506,0.4213 9.5542,26.0395 3.174,9.2952 -21.4404,8.5179 -17.2626,3.174 -9.0361,-0.4526 -1.4577,-0.3567 8.9712,-14.6393 7.5789,-10.2666 15.125,-16.9386 z m -862.80156,0.2918 2.16996,4.1779 -5.24682,-2.1052 z m 92.14226,0.1945 0.5505,0.5174 15.125,16.9387 13.4732,18.2018 6.3804,10.4287 h -0.1 l -9.0361,0.4527 -17.2626,-3.174 -21.5053,-8.5504 4.9878,-14.7363 z m -108.20644,10.9471 42.5895,33.7152 0.13273,0.1662 18.33131,23.4161 3.9836,4.2752 -0.5821,1.846 -8.5827,28.7926 -3.91887,13.6999 -17.87779,11.0115 -30.63859,21.6026 -29.92604,24.2257 -3.36822,3.1416 -14.57441,-21.1489 -19.33538,-33.78 -17.06806,-36.6952 -1.91096,-5.279 24.25818,-22.6713 31.70734,-26.3632 z m 987.46084,0.067 22.1853,16.4853 31.7073,26.3954 28.4362,26.558 -16.7444,35.9823 -19.3353,33.7803 -17.9426,26.0716 -6.445,-5.959 -29.9262,-24.2259 -30.6062,-21.635 -13.1815,-8.0968 -2.2024,-7.7404 -8.5828,-28.7925 -2.7203,-8.5827 17.6188,-22.5092 z m -1099.618536,39.9012 0.0332,0.1945 8.906566,24.2906 -26.946356,28.3391 -15.57832,18.5578 -20.56611,-0.9716 -3.23872,0.2271 4.95531,-4.4695 12.66347,-13.4731 12.5663,-15.1572 12.50161,-16.6796 6.41273,-8.8417 z m 1210.998736,1.6841 10.8823,15.7728 12.5015,16.7118 12.5341,15.125 12.6958,13.5057 8.5503,7.7729 -16.9063,0.8093 -6.7041,1.1657 -19.4002,-23.0923 -22.833,-24.0316 z m -1317.877416,10.2993 8.61519,39.869 6.96327,23.0597 -0.29184,0.1945 -6.73659,1.3283 -23.54564,7.3197 -1.84612,0.6152 v -47.2209 l 16.32319,-24.4527 z m 1425.565716,2.8176 0.8424,1.1657 15.9993,23.999 v 42.5895 l -19.6269,-6.1211 -12.4042,-2.429 8.3558,-27.5941 z m -298.2884,20.3718 5.0203,16.8739 -14.1858,-7.6111 2.9797,-2.6882 z m -829.2157,1.3282 1.7815,1.8784 7.7081,6.8663 -14.4449,7.7728 z m -175.37795,6.0241 15.77266,33.9096 18.33133,32.0311 -13.63503,-10.7201 -15.67566,-9.6515 -16.906216,-7.7082 -17.78061,-5.5382 6.47739,-7.7081 z m 1179.22685,0.4527 19.7564,20.7929 10.8498,12.955 -11.789,3.6595 -10.3641,3.3684 -16.9062,7.7082 -15.7079,9.6514 -12.4369,9.8136 4.2428,-6.1536 19.3355,-33.7803 z m -197.7253,13.8618 22.1529,11.8863 13.2141,8.1292 4.0809,14.3477 14.9953,53.504 7.2871,25.3919 7.0606,23.4808 -14.3801,12.7931 -5.5058,4.2103 -8.3884,-3.0122 -7.6109,-4.8903 -4.8582,-4.7611 -3.9836,-5.2144 -3.7246,-5.7971 -7.7084,-13.0199 -4.5989,-7.1252 -5.6353,-7.4168 -7.4168,-7.6109 -10.4287,-7.352 -11.951,-4.5343 8.0644,-9.8782 5.3763,-11.5623 2.6235,-10.3317 1.1656,-9.2303 0.4212,-8.4531 0.1662,-15.125 0.3234,-6.8987 0.5836,-4.4044 4.5668,-3.4008 z m -782.6749,0.8093 8.5825,6.445 0.5506,4.2751 0.3233,6.8987 0.1658,15.125 0.4212,8.4529 1.1657,9.2305 2.6233,10.3315 5.3764,11.5625 8.0645,9.878 -11.9511,4.5343 -10.4287,7.352 -7.4168,7.6111 -5.6353,7.4166 -4.5991,7.1254 -7.7082,13.0196 -3.7246,5.7974 -3.9835,5.2144 -4.8582,4.7609 -7.6111,4.8905 -8.5179,3.0446 -10.04012,-7.6113 -9.87813,-8.8093 1.6516,-5.1171 7.35196,-24.4527 7.28714,-25.3916 14.96315,-53.504 2.4289,-8.3885 8.4532,-5.2468 z m -268.783516,30.4443 6.41273,0.2918 -14.05622,19.1734 -5.01997,-12.8253 -1.68411,-5.5708 z m 1325.877116,0 8.842,0.6482 -0.1662,0.5176 -7.773,19.8858 -14.9955,-20.4042 z m -1298.704096,2.1374 12.56645,2.2024 8.71222,2.7206 15.902166,7.2547 15.67549,9.6514 14.54207,11.4652 13.40833,13.1493 7.4168,8.8093 -4.63145,4.2754 -27.91809,29.8287 -26.525166,32.8084 -6.99576,10.1374 -1.00322,-1.4575 -22.80078,-38.9623 -20.46878,-42.136 -5.44116,-13.8942 17.84561,-24.2905 z m 183.960706,0.8091 -11.98326,42.719 -7.28729,25.3919 -6.63942,22.1853 -1.16573,-1.0364 -24.35536,-25.3592 -12.40445,-15.1575 2.91484,-2.7205 29.92605,-24.1933 30.60625,-21.6025 z m 898.10379,0.032 26.0721,18.3963 29.9258,24.2259 6.0565,5.6353 -15.5136,18.979 -21.0841,21.9264 -4.6964,-15.6109 -7.2871,-25.3916 z m 182.8596,0.3234 5.8944,7.028 21.5053,29.2783 -2.6557,6.8338 -20.4689,42.1037 -22.8007,38.962 -4.7935,6.9311 -3.2387,-4.6638 -6.4128,-8.8417 -26.5251,-32.8087 -27.9181,-29.8611 -1.4243,-1.2952 4.2103,-5.0199 13.4085,-13.1493 14.5418,-11.4652 15.708,-9.6515 16.8739,-7.7081 18.1045,-5.6355 z m 60.1759,0.4213 0.9717,0.582 13.7971,5.9268 10.3963,3.4008 12.2425,3.3035 v 105.3888 l -21.2461,-39.027 -25.9424,-40.7434 -3.3684,-4.6312 12.2425,-31.2862 z m -1384.174686,0.4527 2.39665,7.9349 9.48958,24.1935 -0.58368,0.7777 -25.94231,40.7434 -23.02744,42.2979 v -102.2796 l 3.88641,-0.388 14.12106,-3.8217 13.76453,-5.927 z m 19.59438,51.7551 0.55054,1.4243 20.43646,42.1036 22.8331,38.9947 7.51396,10.84979 -7.51396,10.84983 -22.8331,38.99443 -20.43646,42.10365 -0.55054,1.42451 -17.42441,-27.36731 -23.86951,-43.85258 -10.10496,-22.15313 10.10496,-22.12049 23.86951,-43.8852 z m 1343.560706,0.8737 20.3394,31.9341 23.9018,43.885 7.6112,16.67959 -7.6112,16.6794 -23.9018,43.8852 -20.3394,31.93386 -18.0721,-37.18066 -22.8007,-38.99463 -11.3031,-16.32317 11.3031,-16.32339 22.8007,-38.962 z m -138.845,14.0239 1.8786,1.7489 27.9181,29.8612 26.5251,32.776 8.2265,11.8863 -96.7414,-14.1534 0.9072,-2.3967 8.9388,-20.1125 9.6515,-18.8496 10.4611,-17.5861 z m -1066.35653,0.5836 5.66787,8.0646 10.42881,17.554 9.65144,18.8818 7.61096,17.1005 -98.49017,14.4125 7.93502,-11.4328 24.38768,-30.1851 27.91792,-29.8614 z m 1034.87613,18.558 -7.6758,15.0277 -8.4857,19.044 -4.1781,-13.0521 1.2306,-1.1011 z m -1002.48859,0.6798 15.22211,15.8701 5.70019,5.0523 -2.36431,7.3846 -2.04046,5.7325 -6.31557,-14.2507 -9.65143,-18.8496 z m 967.70429,33.1649 1.3931,4.3398 -5.4087,-0.7777 z m -932.33725,0.6152 3.43304,3.0446 -4.76096,0.7128 z m -132.88567,26.75191 98.49017,14.41273 -7.61096,17.10027 -9.65144,18.88202 -10.42881,17.55395 -5.66787,8.06463 -4.89047,-4.53434 -27.91792,-29.8289 -24.38768,-30.21736 z m 1196.03592,0.32341 -8.2265,11.88609 -26.5251,32.77601 -27.9181,29.86132 -1.8786,1.74913 -2.2347,-3.17405 -10.4611,-17.58658 -9.6515,-18.8494 -8.9388,-20.11262 -0.907,-2.39654 z m -1207.630636,12.66339 6.99576,10.13736 26.525166,32.80843 27.91809,29.8289 4.63145,4.30759 -7.4168,8.77688 -13.40833,13.14931 -14.54207,11.46522 -15.67549,9.65145 -15.902166,7.25469 -8.71222,2.720552 -12.56645,2.20222 -9.71611,-11.562072 -17.84561,-24.29072 5.44117,-13.89419 20.46878,-42.10364 22.80078,-38.99444 z m 1219.451936,0 4.7935,6.93109 22.8007,38.99443 20.4689,42.07122 2.6557,6.83383 -21.5053,29.27814 -5.8944,7.028142 -5.9917,-1.03647 -18.1045,-5.635232 -16.8739,-7.70839 -15.708,-9.65145 -14.542,-11.4328 -13.4083,-13.18153 -4.2105,-5.02025 1.4245,-1.29503 27.9179,-29.86112 26.5253,-32.80864 6.4128,-8.84172 z m -1076.29947,6.25085 4.76096,0.71306 -3.43304,3.07679 z m 935.05787,0.0324 -1.3929,4.3398 -4.0162,-3.5625 z m -952.57946,3.46544 2.04046,5.76493 2.36431,7.35196 -5.70019,5.08489 -15.22211,15.83745 0.55053,-0.9386 9.65143,-18.8496 z m 969.80956,0.64843 8.4857,19.04392 7.6758,15.02773 -19.1088,-19.91829 -1.2304,-1.10112 z m -925.14726,1.52218 8.51786,3.04437 7.6111,4.89057 4.8582,4.76088 3.9836,5.21457 3.7245,5.79736 7.7082,13.05204 4.5991,7.09279 5.6354,7.4168 7.4168,7.64334 10.4286,7.31974 11.9511,4.53434 -8.0645,9.87799 -5.3764,11.56228 -2.6233,10.33169 -1.1657,9.23037 -0.4212,8.453062 -0.1658,15.12499 -0.3233,6.89846 -0.5506,4.27517 -8.5825,6.44517 -26.9464,-14.44495 -8.4532,-5.24659 -2.4289,-8.38843 -14.96315,-53.504012 -7.28712,-25.39184 -7.35197,-24.42 -1.65159,-5.14973 9.87811,-8.8093 z m 880.74416,0.0324 5.5058,4.21053 14.3801,12.79288 -7.0606,23.48099 -7.2871,25.39184 -14.9953,53.504012 -4.0809,14.34748 -13.2141,8.12946 -22.1529,11.8861 -4.1133,-3.69219 -4.5666,-3.43303 -0.5835,-4.40465 -0.3234,-6.89846 -0.1662,-15.12499 -0.4213,-8.453262 -1.1657,-9.23037 -2.6233,-10.33169 -5.3763,-11.56208 -8.0646,-9.87819 11.9509,-4.53434 10.429,-7.31953 7.4168,-7.64355 5.6352,-7.4166 4.599,-7.09299 7.7084,-13.05184 3.7244,-5.79735 3.9836,-5.21458 4.8581,-4.76088 7.6111,-4.89057 z m 289.317,0.16616 v 105.3888 l -12.2423,3.30334 -10.3965,3.4008 -13.7971,5.926832 -0.9717,0.58378 -0.9072,-2.914872 -12.2423,-31.28625 3.3684,-4.6316 25.9422,-40.74336 z m -1459.248616,2.20243 23.02744,42.29797 25.94229,40.74337 0.5837,0.7777 -9.4896,24.19346 -2.39665,7.934932 -5.89453,-3.497862 -13.76453,-5.95946 -14.12104,-3.82167 -3.88641,-0.38804 z m 254.791956,26.88159 6.63942,22.18536 7.28729,25.39163 11.98326,42.719042 -0.38803,-0.22716 -30.60624,-21.602372 -29.92605,-24.19345 -2.91485,-2.72056 12.40443,-15.15721 24.35536,-25.35941 z m 949.47046,1.10091 21.0841,21.92619 15.5136,19.01151 -6.0565,5.60302 -29.9258,24.22588 -26.0721,18.396092 13.4732,-48.160152 7.2871,-25.39183 z m -998.27835,54.31375 3.40073,3.14164 29.92602,24.22587 30.60609,21.602372 17.91029,11.01173 3.91892,13.69986 8.5827,28.79244 0.582,1.84599 -4.0159,4.27537 -18.29897,23.41595008 -0.13272,0.16616 -42.5895,33.71561992 -26.78452,-19.95091 -31.70732,-26.36326 -24.25819,-22.67127 1.91095,-5.2468 17.06807,-36.72737 19.33539,-33.747622 z m 1045.66105,0.55056 17.9426,26.07207 19.3353,33.780052 16.7444,35.98249 -28.4362,26.55758 -31.7073,26.39588 -22.1853,16.48507 -47.7391,-37.73121 -17.6188,-22.50937 2.7203,-8.58276 8.5828,-28.79243 2.2024,-7.74061 13.1815,-8.09684 30.6062,-21.634792 29.9262,-24.22567 z m 30.5089,14.44495 12.4369,9.81335 15.7079,9.651432 16.9062,7.70819 10.3641,3.36818 11.789,3.65997 -10.8498,12.95498 -19.7564,20.79266 -13.0196,-28.01513 -19.3355,-33.747832 z m 114.1981,1.78135 7.7731,19.885862 0.1661,0.51732 -8.8419,0.64843 -14.0885,-0.64843 z m -1222.72306,0.67984 -18.33133,32.031112 -15.77266,33.90975 -23.416136,-24.61453 -6.47739,-7.70819 17.78061,-5.53838 16.906216,-7.70799 15.67566,-9.651432 z m -111.704346,0.9386 14.05622,19.140972 -6.41273,0.2918 -14.34757,-1.06788 1.68411,-5.570602 z m -61.92471,23.156972 1.84611,0.6152 23.54564,7.35195 6.7366,1.29524 0.29185,0.19453 -6.96328,23.05992 -8.6152,39.8688 -0.51736,-0.71307 -16.32321,-24.45262 z m 1459.248616,1.81357 v 42.58956 l -15.9993,23.99914 -0.8424,1.16575 -6.8338,-31.61006 -8.3558,-27.59405 12.4042,-2.39676 z m -90.9762,10.00788 6.7041,1.16575 16.9063,0.80912 -8.5503,7.77303 -12.6958,13.50554 -12.5341,15.12499 -12.5015,16.71181 -10.8823,15.77281 -8.6796,-23.73996 22.833,-24.03155 z m -1278.138106,1.16575 15.57832,18.55801 26.946346,28.33914 -8.906556,24.29052 -0.0332,0.19453 -8.29119,-12.01578 -6.41273,-8.84172 -12.50161,-16.67959 -12.56629,-15.15741 -12.66345,-13.47312 -4.95533,-4.46949 3.23872,0.22715 z m 1321.602006,7.28712 6.9957,23.15719 9.7163,44.824 -12.7284,17.03603 -28.3714,34.26577 -28.9543,31.77216 -2.1376,2.13758 -7.4815,-41.4236 -7.6111,-28.01513 8.7123,-13.47311992 10.2992,-14.93066008 8.3234,-11.14121 12.5341,-15.09277 12.6958,-13.50534 12.8902,-11.72439 z m -1364.159166,0.19453 0.42119,0.29179 12.89014,11.75681 12.66362,13.47312 12.56629,15.1572 12.50145,16.6796 12.53395,18.20178 6.6071,10.23442 -5.50585,20.30694 -8.16168,45.18044 -0.35653,3.75683 -7.51397,-7.54608 -28.98665,-31.77216 -28.37144,-34.26598 -7.935,-10.65528992 0.25868,-1.97588008 11.07653,-51.33402 z m 262.370566,10.88224 14.4449,7.77283 -7.7081,6.86624 -1.7815,1.87862 z m 839.1913,0.97163 -5.0203,16.87392 -6.1858,-6.57466 -2.9797,-2.68834 z m 163.1029,40.35471 8.1941,22.44453 1.8138,6.67171 -1.8784,2.91489 -12.9228,20.92234 -13.3436,22.18536 -28.3066,47.803938 -2.9148,4.89057 -23.7724,-2.81783 -8.1939,-1.84599 -4.5668,-15.092578 -11.7242,-28.69537 9.1656,-6.08874 6.3479,-4.72846 29.4726,11.72419 -21.9263,-17.32721 18.2342,-13.57038 31.7073,-26.36347 z m -1165.6564,0.58379 20.40412,19.07614 31.70732,26.36326 22.80075,16.97119 -21.86154,17.29479 29.40785,-11.69197 1.78127,1.32826 13.50552,9.00383 -9.65145,23.67512 -6.67173,21.926398 -2.13765,0.48592 -28.07993,3.33596 -2.59097,0.0324 -28.30662,-47.771528 -13.31118,-22.18535 -12.92264,-20.95456 -3.98358,-6.12136 3.91876,-14.37990992 z m 1312.6631,1.74893 v 79.86728 l -1.5538,0.9386 -3.2387,1.5538 -0.6482,-13.86177 -6.8338,-51.85236 6.6719,-8.93898 z m -1459.248616,2.88226 0.97173,1.45755 11.88625,15.93471 -5.63537,42.75147 -0.90704,18.94666 -6.31557,-3.04437 z m 370.480016,10.84983 9.0361,0.45268 h 0.1 l -6.3804,10.42875 -13.4732,18.20178 -15.1249,16.93856 -0.5506,0.51732 -7.3843,-20.08019 -4.9878,-14.73634 21.5054,-8.55013 z m 718.2887,0 17.2626,3.17405 21.4404,8.51791 -3.174,9.29522 -9.5542,26.07187 -4.7933,-4.40465 -15.125,-16.93876 -7.5789,-10.26685 -8.9712,-14.63906992 1.4575,-0.35643008 z m -692.7674,6.63949 2.2995,1.19878 13.1816,7.41681 7.514,3.85409 8.615,3.62735 10.2345,2.88246 12.6958,1.13414 12.5988,-2.04011 -2.0405,12.56613 1.1343,12.72843 2.8825,10.26665 3.6274,8.55033 3.8541,7.54628 7.4166,13.18173 0.8739,1.71651 -16.9062,10.39633 -18.2018,13.440908 -16.9386,15.12479 -5.5059,5.95925 -21.1815,-8.51791 -30.1202,-13.31101 -11.4003,-25.780498 -9.8135,-24.38798 4.2104,-3.85389 15.1248,-16.97098 13.4732,-18.16956 6.4127,-8.84172 z m 666.0477,0.6152 8.939,14.54181 13.4407,18.20178 15.125,16.93856 8.2911,7.64355 -7.4492,18.52558 -14.0237,31.772168 -0.713,1.45775 -1.4576,0.71307 -31.7719,14.02388 -16.6472,6.67171 -10.0401,-10.88224 -16.9386,-15.15721 -18.202,-13.440908 -12.0479,-7.41659 0.6798,-1.29504 7.4168,-13.18173 3.8541,-7.54628 3.6273,-8.55033 2.8827,-10.26665 1.1341,-12.72843 -2.0405,-12.56613 12.5988,2.04011 12.6958,-1.13414 10.2346,-2.88246 8.615,-3.62735 7.5138,-3.85409 13.1818,-7.41681 z m 81.8754,10.9793 34.007,13.50554 4.3074,6.70434 9.7809,18.75234 -10.9791,7.31954 -24.1286,14.44474 -11.3682,-6.76898 -16.7118,-12.50149 0.9716,-2.46159 11.3356,-30.76811 z m -828.665,0.0324 4.6313,13.63522 10.1373,27.59406 -2.2671,2.07274 -18.6876,13.99145 -5.7325,3.43302 -29.79651,-17.87776 -6.9956,-4.66382 12.2101,-23.481 0.19392,-0.25876 z m 1116.8162,4.63139 4.8904,37.34277 0.8093,16.45285 -16.5177,7.99957 -30.6708,11.59491 -28.9543,7.999578 -0.292,0.0669 7.4492,-7.449228 28.9543,-31.77196 28.3714,-34.26597 z m -1404.31953604,3.62755 0.71303,0.9384 28.37128004,34.26597 28.98681,31.77217 8.16169,8.1939 -25.06791,-6.93069 -35.56139,-13.47332 -10.36398,-4.98783 1.03639,-21.53733 z m 1300.64733604,9.13311 3.53,13.11709 8.1941,45.14802 0.5838,6.38033 -9.3922,9.424698 -2.7532,0.48592 -31.5128,2.59108 -14.542,-0.25877 28.4362,-47.998268 13.311,-22.18535 z m -1197.81724,2.13758 6.18605,10.00768 13.31117,22.18536 25.26225,42.686828 -7.4168,0.13171 -31.51297,-2.59107 -11.303196,-2.00811 -5.53818,-5.5706 1.32824,-14.153368 8.161676,-45.18044 z m 1073.19034,4.24295 6.8661,2.72036 -4.0485,2.68814 z m -949.6646,0.51733 -2.16996,4.1779 -3.07686,-2.07274 z m 5.21433,30.31461 3.82174,2.55866 22.70359,13.6026 -19.78875,9.16573 -15.18977,5.117118 -3.01203,0.68004 3.62739,-11.983568 z m 940.33697,0.45431 9.8458,24.12841 1.5222,4.955418 -22.5092,-7.610938 -13.4084,-6.1862 16.3233,-9.78093 z m -77.665,3.33575 13.1493,9.81356 4.1457,2.49381 -22.9951,12.40423 -6.0567,2.947308 6.9635,-15.740188 z m -785.1041,0.16616 6.8986,17.23036 3.7569,8.485298 -9.2627,-4.534148 -17.2626,-9.32743 z m -336.894116,7.70839 5.40868,2.59108 -0.93856,19.043728 v 10.94689 l 2.04046,58.23268 -6.50991,-8.77708 z M 1431.081,83.882032 v 78.021288 l -4.7608,6.41276 2.0727,-58.42702 -1.1658,-24.128418 z m -1437.160406,9.55438 0.8739,0.42128 35.56155,13.440498 10.39633,3.4008 31.61014,8.74446 -0.90705,9.5868 -0.32337,50.23311 v 10.91447 l 3.20638,39.83657 -29.40785,-10.23442 -46.15205,-20.69559 -3.56256,-29.89375 -2.10531,-59.30137 z m 1416.594306,0.38804 0.8424,16.938778 -1.8786,52.95346 -3.8541,32.06355 -4.599,5.95926 -47.7065,21.40805 -23.5134,8.19411 3.7568,-46.60577 -0.3564,-50.2327 -1.295,-13.99146 1.5538,-0.29179 34.4276,-9.52196 35.5941,-13.440908 z m -1134.9532,3.69219 24.1612,13.052258 30.6384,14.93046 14.9632,30.63863 14.5095,26.8816 -0.9717,1.58682 -10.3315,22.44473 -8.2588,24.35516 -3.0769,13.7647 -35.4319,7.28712 -12.793,1.42451 -17.8131,-11.30311 -27.91789,-18.55801 -8.55035,-5.95946 -18.88186,-28.4362 -11.30322,-17.78071 1.42444,-12.8255 7.31945,-35.59363 0.67988,-2.20242 10.00764,-2.26707 24.35536,-8.22652 22.44455,-10.36391 z m 853.2473,0.0669 21.1489,9.780938 24.3554,8.22632 10.3965,3.36838 3.9836,0.9072 2.753,9.03604 7.3195,35.59363 0.388,3.53029 -10.2668,16.16126 -18.558,27.91806 -6.3155,9.00363 -9.0038,6.28327 -27.9179,18.55801 -11.7244,7.48144 -8.4855,-0.97183 -35.5938,-7.31954 -5.3763,-1.65167 -1.5224,-6.60687 -8.2265,-24.35536 -10.3639,-22.44453 -4.0484,-6.8014 17.6188,-32.58168 11.3031,-23.15699 27.8532,-13.6028 z m -184.9322,8.226328 8.1616,5.02005 18.2016,13.4409 16.9388,15.12479 3.1738,3.46544 -28.2094,10.36391 -6.7366,2.29969 -9.0038,-22.63885 -3.1739,-17.26237 0.4527,-9.03625 z m -484.7106,0.45269 0.066,0.3234 0.4527,9.03625 -3.174,17.26237 -8.3559,21.05182 -12.0481,-4.08063 -23.3189,-8.61518 15.2219,-13.57038 18.2018,-13.47312 z m 144.7395,14.2182 4.5342,11.95093 7.3195,10.42875 7.6436,7.44902 7.4166,5.60303 7.1252,4.59918 13.0198,7.7404 5.7974,3.6924 5.2143,4.01599 4.7611,4.82573 4.9228,7.61112 2.8178,7.93473 -6.1213,8.0322 -10.5259,11.85367 -1.8462,-0.58196 -24.42,-7.35196 -25.392,-7.28732 -53.5038,-14.9953 -13.1493,-3.72441 -2.8824,-4.69644 -16.2262,-30.21735 5.9592,-7.93494 6.0566,-0.77771 6.8986,-0.35663 15.1248,-0.16616 8.4532,-0.42107 9.2304,-1.13435 10.3316,-2.65572 11.5621,-5.37648 z m 195.1019,0 9.8782,8.06442 11.5623,5.37628 10.3317,2.65592 9.2303,1.13414 8.4531,0.42127 15.125,0.16616 6.8987,0.35644 3.7244,0.45268 5.4087,7.2549 1.4245,1.55379 -12.9876,24.19346 -7.8053,12.69581 -4.2427,1.19879 -53.504,14.9953 -25.3919,7.28732 -24.4524,7.35195 -7.5787,2.4614 -15.1898,-17.10067 -2.1052,-2.7852 3.4654,-9.81335 4.923,-7.61113 4.7611,-4.82572 5.2142,-4.016 5.7973,-3.69219 13.0199,-7.74061 7.1252,-4.59897 7.4168,-5.60303 7.6433,-7.44922 7.3196,-10.42855 z m -709.673516,2.85004 27.173036,25.06803 29.50483,25.16508 29.34319,23.28647 9.26274,6.86625 -0.58369,27.91786 v 10.94709 l 0.84237,12.27474 -3.36836,-0.22715 -44.04695,-7.06057 -45.374836,-11.40038 -4.14558,-51.43128 0.35651,-50.23291 z m 1225.540916,0.22716 1.5222,16.42063 0.2588,40.12796 -4.1133,51.59319 -0.9718,5.73251 -40.3871,10.13736 -44.047,7.06037 -7.7408,0.51752 1.2637,-18.03987 -0.7131,-34.68705 2.9795,-2.20222 29.3108,-23.28667 29.5049,-25.13246 29.5375,-27.23803 0.4211,-0.42108 z m -106.4252,0.74468 2.4938,0.58358 13.8942,1.62006 -2.4614,4.08084 -9.4571,15.41638 z m -1013.50028,0.90698 -4.85812,23.54564 -7.77299,-12.69581 -5.24684,-8.74466 z m -75.68956,1.8462 20.50127,1.65147 17.87797,-0.2918 7.83765,13.11709 16.22618,26.36326 4.9228,7.77303 -0.7777,6.96331 -29.44017,-23.35151 -29.50502,-25.19731 z m 1162.74164,0.58359 -10.6553,9.84577 -29.5051,25.16488 -23.74,18.8496 -1.1011,-9.65145 5.9917,-9.39227 16.1937,-26.39589 4.6638,-7.77282 25.0356,0.42107 z m -926.7667,8.90656 8.356,3.69219 19.4973,7.83767 -11.951,15.96713 -0.9385,1.58683 -8.0645,-14.93066 z m 690.4679,2.20243 -3.1416,6.47739 -11.3679,21.05182 -4.0809,-5.60303 -8.0644,-10.78518 15.6107,-6.28286 z m -645.6112,15.96693 25.6184,9.45712 16.1938,5.47354 -14.38,36.14439 -8.3561,5.37628 -17.0682,8.90636 -3.0767,-4.66382 -19.2705,-32.12819 7.4491,-12.50149 8.3235,-11.10899 z m 602.7303,1.68409 13.8942,18.59023 4.9554,8.29136 -15.9996,26.68727 -5.7649,8.6474 -20.8251,-10.8174 -3.9189,-2.52624 -13.5057,-34.03922 10.8824,-3.72462 z m -494.6211,5.02005 7.4815,13.89439 -15.7402,-4.66382 z m 385.1839,0.3234 5.02,5.63545 5.1173,4.7933 -18.7849,5.60302 z m -407.5636,22.18536 10.0078,3.17385 28.7925,8.58275 3.5948,1.03647 10.7204,17.39206 21.6347,30.606 24.1935,29.95839 4.3722,4.66382 -27.8207,19.14099 -33.8126,19.33551 -34.1363,15.90209 -28.922,-30.96244 -26.3958,-31.70732 -14.7363,-19.82102 35.8853,-45.37497 19.5944,-15.35153 z m 431.9514,1.61863 1.684,1.58683 23.4162,18.29884 1.0695,0.71307 34.5574,43.69067 -18.2991,24.58211 -26.3632,31.70732 -24.3878,26.13651 -2.0081,-0.74448 -36.695,-17.06824 -33.78,-19.33532 -23.9992,-16.51769 0.5176,-0.58358 24.2258,-29.92597 6.4126,-8.84192 21.6024,-30.606 5.7973,-9.39248 12.5015,-3.56251 28.7924,-8.58275 z m 513.3085,4.69624 v 97.93958 l -8.0322,-2.68814 -11.465,-1.32826 -3.7894,0.25876 11.1414,-53.79561 3.4654,-28.79223 2.8503,-3.69239 z m -1459.248616,2.91469 1.1989,1.58702 9.19807,11.95094 3.53023,29.40783 10.0078,48.2248 -10.13731,1.16576 -10.39632,3.4008 -3.4007,1.13414 z m 1059.522816,7.48164 7.9997,17.35943 6.5747,19.43258 -7.8379,-2.36433 -22.5418,-9.23038 6.9311,-10.42874 z m -660.8658,0.71307 11.6919,19.52943 4.5019,6.73656 -24.4202,9.97526 -5.7002,1.71671 0.5506,-2.42897 8.2265,-24.35536 z m 182.2442,2.36413 53.439,14.9953 25.392,7.2549 13.8618,4.1781 -25.1002,24.09619 -17.5218,14.31506 -7.6433,-8.1939 -22.7682,-28.17703 -16.6149,-23.54564 z m 293.9807,2.59107 -19.4,27.46458 -24.2259,29.95838 -4.0484,4.37223 -21.0842,-17.23015 -19.9505,-19.1732 19.1085,-5.73271 25.3917,-7.2549 z m 356.5535,8.51792 0.3881,19.33511 -1.5224,22.18535 -17.1653,1.19899 -25.7479,-0.55056 1.5222,-2.07274 6.4452,-8.84192 7.6757,-11.01173 19.0764,-13.31121 z m -1001.97037,1.29503 3.04435,2.23485 19.49722,13.66744 13.66752,19.52964 4.17811,5.60302 -17.97514,0.38805 -21.53767,-1.48916 -1.32825,-18.94666 z m 478.10337,1.68429 0.8423,5.66767 -0.8091,-0.2918 -3.6275,-1.16575 2.9475,-3.36818 z m 43.8526,1.71651 3.8865,4.33981 -4.7609,1.52239 z m -702.872306,8.22653 14.15338,6.3479 41.81212,14.54181 8.12934,48.38692 3.53023,13.57038 -9.94296,-12.27495 -35.30238,-42.91337 -19.04385,-23.48079 z m 1380.935906,1.29503 -12.0806,58.23268 -2.7204,0.58359 -10.3963,3.4006 -13.6028,4.82572 -14.3477,6.73656 -12.5664,7.09299 30.2824,-36.85685 19.0762,-23.44878 z m -416.0166,1.68409 4.8255,2.52623 -2.3966,3.59493 z m 392.6004,0.38804 -3.3357,4.21033 -19.0764,23.44857 -35.27,42.91337 -3.8863,4.7933 3.8541,-14.93066 6.9633,-41.35876 36.5654,-12.72824 z m -960.7735,0.84235 -2.6557,6.6395 -2.6233,-3.88652 z m -413.976296,1.52218 10.16965,12.76066 19.0762,23.44858 30.2499,36.85685 -12.5663,-7.12521 -14.31524,-6.70414 -13.60268,-4.85815 -8.097,-1.78135 z m 660.412396,2.26727 6.4775,2.07274 9.3599,3.33596 -4.2105,1.62006 -20.1124,8.97141 -14.6715,7.48144 15.6755,-15.02773 z m 75.7866,1.846 2.85,3.23869 15.6432,15.02793 -14.6715,-7.51407 -15.5783,-6.93088 1.6515,-0.55056 z m 266.4514,2.85004 21.894,8.90656 10.3963,3.40081 12.6958,3.85409 2.6882,11.95093 2.5586,21.40806 -7.9673,4.76108 -47.8362,28.30652 -22.1853,13.31121 -20.307,12.56633 -10.7203,-2.91488 -19.8859,-7.28712 17.0683,-18.26662 26.3958,-31.70732 18.7198,-25.1973 18.1369,22.93023 -12.2423,-30.83275 5.7001,-7.87009 z m -609.4021,1.74893 7.3845,11.04415 3.1738,4.30759 -11.4975,28.92191 17.0359,-21.53774 15.1896,20.43643 26.3635,31.70752 21.7644,23.31889 -18.6229,6.8014 -9.9106,2.68814 -6.1212,-3.95116 -20.9547,-12.95498 -22.1853,-13.31141 -50.0062,-29.63458 3.1739,-26.91382 1.1011,-4.82572 18.2664,-5.53818 z m -301.300346,12.40443 42.362806,10.6555 44.04692,7.02794 4.59896,0.35664 0.84239,12.11284 7.02794,44.0467 8.55036,33.87732 -33.26191,-5.60303 -54.18424,-14.05589 -0.51736,-0.35663 -13.2465,-51.10728 z m 1213.363346,1.26362 -5.0849,30.21736 -14.0563,54.21668 -2.6233,3.49787 -2.1376,1.58682 -45.1482,11.69197 -38.8648,6.54223 10.1372,-40.25745 7.0604,-44.0469 0.4212,-6.38053 8.9713,-0.64823 44.0469,-7.02815 z m -590.5528,0.19453 14.8658,6.60688 18.8819,9.65164 17.5863,10.46097 9.781,6.86625 -2.9147,3.14163 -29.8289,27.91786 -32.8084,26.52537 -9.9107,6.83362 z m -32.7113,1.23039 14.1209,96.61193 -14.542,-10.0401 -32.8085,-26.52537 -28.8572,-27.0435 5.9268,-4.14568 17.554,-10.46117 18.882,-9.65145 z m 384.9571,5.21458 1.1343,0.32341 21.9586,4.53413 -20.9223,12.8253 -2.0079,-17.06805 z m -736.4904,1.10111 -1.9756,16.64718 -6.931,-4.14569 -13.0196,-7.99957 z m 786.0432,7.96716 6.9309,0.77771 -21.0842,26.5902 -25.1651,29.5049 -7.5137,8.12946 1.2635,-15.54606 -0.3565,-21.18151 10.1374,-6.08894 26.3634,-16.19368 z m -835.0778,0.48591 3.3359,2.13759 26.3958,16.19368 16.4529,9.87819 -0.2919,15.31931 v 10.91446 l 1.1011,13.50575 -13.7645,-14.96309 -25.1651,-29.47247 -17.7808,-22.4121 z m -81.22775,1.74893 20.30694,1.42452 30.89762,-0.64843 4.43711,5.95946 23.25428,29.31057 25.1649,29.50489 27.2379,29.53731 0.388,0.38805 -8.777,0.84235 -50.2328,0.3234 -52.43534,-4.21032 -2.13764,-0.35644 -10.68784,-42.52472 -7.02808,-44.0469 z m 997.46855,0.32341 -6.9958,43.75551 -11.4974,45.63394 -1.0365,3.01194 -48.7753,3.91874 -50.2007,-0.3232 -13.6999,-1.29524 0.4859,-2.59087 21.6346,-23.481 25.1651,-29.53731 23.2867,-29.31077 7.0281,-9.48934 38.7029,0.80912 z m -408.0819,26.20156 7.3519,6.15337 13.1493,13.40868 11.4653,14.54181 9.6514,15.70777 7.7082,16.87392 5.6354,18.10471 0.5174,3.04437 -9.9104,8.32359 -26.4606,19.43237 -10.1373,-3.98357 -42.1361,-20.43643 -38.9622,-22.83317 -3.5625,-2.4616 6.769,-4.69603 32.8084,-26.49295 29.8287,-27.95029 z m -183.7986,0.42107 2.7528,2.97973 29.8289,27.88564 32.8085,26.52517 11.6595,8.06441 -8.4209,5.82998 -38.9944,22.80076 -42.1036,20.46864 -4.1781,1.62006 -32.4521,-23.80481 -4.5989,-3.88631 1.6516,-9.55439 5.6353,-18.10451 7.7082,-16.90634 7.7083,-12.53391 6.9632,-8.84193 13.1493,-13.44049 z m -611.928476,1.10111 12.17777,0.80912 10.49349,2.33211 5.63536,2.0079 14.31539,6.73656 15.09244,8.51791 15.86983,10.2022 16.71206,11.82125 13.829366,10.42875 10.42881,13.79713 11.7889,16.74423 10.20215,15.86987 8.51787,15.06035 6.73658,14.34748 4.85814,13.60281 2.85001,12.89014 0.35653,5.24679 -0.8739,7.44902 -3.56256,10.68792 -3.40071,5.70009 H -28.166786 V 308.6183 l 3.10919,-1.87842 10.68784,-3.53028 z m 1414.521676,0 11.0442,1.29503 0.6798,0.22715 7.773,4.6316 v 178.09845 h -178.7464 l -0.1662,-0.25876 -3.5303,-10.65549 -1.3597,-11.46522 0.8092,-12.14526 2.8826,-12.92257 4.8582,-13.6028 6.7041,-14.34748 8.5179,-15.06015 10.2344,-15.86987 8.1615,-11.5947 7.6436,-10.10494 13.8293,-10.42875 16.712,-11.78903 15.8699,-10.23442 15.0601,-8.51791 14.3477,-6.70414 13.6028,-4.85815 12.8902,-2.88246 z m -584.7552,7.70839 33.5209,19.20563 35.8206,16.64717 -23.1246,21.99103 -9.7489,8.1941 -4.3722,-14.02367 -7.7082,-16.90634 -9.6515,-15.70797 -6.4127,-8.84172 z m 230.2098,0.29179 0.1317,7.64335 -2.3966,29.60215 -2.0405,11.30312 -8.1939,8.1941 -9.9754,-0.9386 -45.1481,-8.1939 -8.356,-2.23464 7.3844,-4.56696 22.1854,-13.34344 z m -709.5116,0.38805 40.0956,23.70754 22.1854,13.34384 14.3476,8.84172 -4.9228,1.32826 -45.1482,8.1939 -16.3557,1.52219 -6.3155,-6.28307 -1.4891,-8.32358 -2.5587,-31.54542 z m 223.9268,2.72056 -8.3237,10.55843 -9.6514,15.67534 -7.7082,16.90634 -5.6355,18.10472 -0.3565,2.04012 -14.5419,-12.2101 -18.3638,-17.4567 31.0272,-14.44474 z m 343.0153,39.2536 22.153,8.06442 2.3319,0.77771 -1.4246,0.90698 -18.2017,12.53412 -16.7118,12.50149 -15.125,12.56633 -13.4732,12.69602 -5.1819,5.66766 -0.9072,-18.97908 -0.6484,-3.69199 16.1614,-13.53796 z m -425.571,1.48895 25.9423,24.64695 21.7644,18.2342 -0.8092,17.35943 v 7.57871 L 524.2655,408.85696 510.76,396.16094 495.635,383.62723 478.9232,371.12554 465.871,362.12191 Z m 472.468,13.86197 28.0475,7.61093 39.3831,7.12521 -5.0523,5.02005 -31.7721,28.95454 -34.266,28.37115 -13.635,10.16979 -48.7434,-10.52581 -21.2135,-6.41275 10.2991,-11.33554 13.4731,-12.69602 15.125,-12.53391 16.712,-12.50149 18.2018,-12.53391 z m -517.7456,0.97163 6.7366,4.37243 18.1693,12.53392 16.712,12.50148 15.125,12.53412 13.5055,12.69561 11.7242,12.89034 2.7854,3.65977 -15.0602,4.56656 -51.3342,11.07656 -2.1374,0.292 -19.3031,-14.38011 -34.2658,-28.37156 -31.7722,-28.98676 -0.582,-0.55055 45.31,-8.1939 z m -295.76223,0.68004 21.40817,5.53819 38.60576,6.51001 13.92672,40.09555 5.79735,12.92256 -7.5463,-6.0241 -23.48098,-19.07615 -42.91335,-35.26982 z m 1103.76403,2.39675 -6.9955,5.66767 -42.9458,35.27003 -23.4486,19.07614 -3.7246,2.97953 8.3884,-18.71971 11.6596,-33.58594 44.8564,-7.54628 z m -550.0359,5.34386 8.6798,6.0239 38.9622,22.80075 42.1359,20.46905 3.7246,1.45755 -35.1404,22.37968 -43.885,23.90186 -13.2463,6.02431 -20.6308,-9.4247 -43.8852,-23.86965 -28.7922,-18.36368 39.5125,-19.20583 38.9945,-22.80076 z m -473.99013,7.28732 48.48403,3.88631 50.2328,-0.35643 11.9186,-1.10111 0.7777,4.40465 9.5543,34.4603 13.4408,35.56141 1.7165,3.5625 -12.793,0.6152 -59.3014,-2.10516 -32.06366,-3.82167 -2.23465,-1.71651 -18.71999,-41.74742 z m 947.42983,0.48571 -8.939,25.68342 -21.4082,47.70668 -2.7204,2.07274 -24.9059,2.97973 -59.3014,2.10496 -19.2706,-0.9384 4.2103,-8.71224 13.4409,-35.56141 9.3598,-33.8449 16.874,1.55379 50.2007,0.35664 z m -128.7725,4.82593 -6.9309,25.0354 -13.4731,35.59383 -6.4128,13.24657 -18.5904,-0.90719 -31.9665,-4.24274 33.4887,-27.72374 31.7722,-28.95434 z m -688.7513,2.07274 6.607,6.60687 31.772,28.95454 34.266,28.37136 4.5666,3.4006 -26.914,3.56271 -25.0677,1.19898 -3.919,-8.09684 -13.4408,-35.56141 z m -209.15816,0.77771 37.82854,31.09192 23.48098,19.07614 15.28679,12.14546 -53.30968,-11.04415 -1.10107,-5.02004 -4.85814,-13.60281 -6.70408,-14.34748 -8.51803,-15.06015 z m 1103.76406,1.58702 -6.3803,11.2707 -6.7042,14.31506 -4.8581,13.603 -2.5911,11.62693 -53.0829,11.01172 -2.6882,0.3234 12.8253,-10.202 23.4486,-19.07614 z m -400.7945,14.63908 0.4526,9.55418 -0.9386,12.63117 -3.8216,-1.16575 -15.6107,-6.08894 17.3596,-12.76066 z m -298.256,1.35967 19.821,14.57443 -18.979,7.44902 -0.3565,0.0993 -0.9386,-12.69581 z m 262.0143,25.52131 21.5377,8.45307 10.3964,3.36839 -2.5911,4.40464 -5.9593,13.79713 -3.8216,14.08852 -0.6799,6.47739 H 730.4763 l 39.8688,-21.69944 40.7435,-25.94239 z m -225.6756,0.97163 38.5409,24.51727 43.885,23.90207 2.6233,1.19878 H 570.158 l -0.099,-1.00324 -3.8218,-14.12094 -5.9592,-13.7645 -4.3399,-7.35196 -0.1328,-0.74468 5.8621,-1.78115 z m 275.5847,16.29095 30.3468,9.19795 30.3797,6.54223 -4.8582,3.62755 -20.9223,13.95883 H 855.88 l 7.0282,-22.50916 z m -326.433,1.55379 0.5837,1.00324 2.6557,13.73229 5.344,17.03582 h -43.7231 l -24.9059,-16.61475 34.8165,-7.51386 z m -364.45602,7.54629 56.06268,11.62692 22.28256,2.65572 8.67988,6.70434 4.3723,3.23869 h -96.32022 l 0.16575,-0.25876 3.56257,-10.6555 1.32824,-11.46522 z m 1056.38132,0.84234 v 6.47739 l 1.3283,11.46522 1.8138,5.44092 h -96.288 l 11.7566,-9.06826 29.4079,-3.53029 z m -281.6412,10.62308 52.0142,6.86604 10.2344,0.48592 -2.591,5.40849 h -76.7581 z m -493.9733,0.64822 12.1777,9.10089 4.5018,3.01215 h -77.9566 l -2.4938,-5.08489 16.7119,-0.80911 z m -167.3782,6.38054 4.1456,0.48571 59.3014,2.10516 21.149,-1.03627 2.0403,4.1779 H 295.221 Z m 827.0781,0.58358 -6.9633,5.14953 h -79.6732 l 2.2023,-4.50171 27.6266,1.35967 z"
     id="path4-9"
     inkscape:connector-curvature="0" />
  <circle
     style="color:#000000;clip-rule:nonzero;display:inline;overflow:visible;visibility:visible;opacity:1;isolation:auto;mix-blend-mode:normal;color-interpolation:sRGB;color-interpolation-filters:linearRGB;solid-color:#000000;solid-opacity:1;fill:none;fill-opacity:1;fill-rule:evenodd;stroke:#0000ff;stroke-width:0.5;stroke-linecap:butt;stroke-linejoin:miter;stroke-miterlimit:4;stroke-dasharray:none;stroke-dashoffset:0;stroke-opacity:1;color-rendering:auto;image-rendering:auto;shape-rendering:auto;text-rendering:auto;enable-background:accumulate"
     id="path814"
     cx="701.45673"
     cy="-243.54317"
     r="1.6397636" />
</svg>
