<?xml version="1.0" encoding="UTF-8" standalone="no"?>
<svg
   xmlns:dc="http://purl.org/dc/elements/1.1/"
   xmlns:cc="http://creativecommons.org/ns#"
   xmlns:rdf="http://www.w3.org/1999/02/22-rdf-syntax-ns#"
   xmlns:svg="http://www.w3.org/2000/svg"
   xmlns="http://www.w3.org/2000/svg"
   xmlns:sodipodi="http://sodipodi.sourceforge.net/DTD/sodipodi-0.dtd"
   xmlns:inkscape="http://www.inkscape.org/namespaces/inkscape"
   width="1492.9133"
   height="1492.9136"
   viewBox="-45 -990 1492.9133 1492.9135"
   version="1.1"
   id="svg6"
   sodipodi:docname="lotus - projection-2.svg"
   inkscape:version="0.92.3 (2405546, 2018-03-11)">
  <metadata
     id="metadata12">
    <rdf:RDF>
      <cc:Work
         rdf:about="">
        <dc:format>image/svg+xml</dc:format>
        <dc:type
           rdf:resource="http://purl.org/dc/dcmitype/StillImage" />
        <dc:title>OpenSCAD Model</dc:title>
      </cc:Work>
    </rdf:RDF>
  </metadata>
  <defs
     id="defs10" />
  <sodipodi:namedview
     pagecolor="#ffffff"
     bordercolor="#666666"
     borderopacity="1"
     objecttolerance="10"
     gridtolerance="10"
     guidetolerance="10"
     inkscape:pageopacity="0"
     inkscape:pageshadow="2"
     inkscape:window-width="1920"
     inkscape:window-height="1026"
     id="namedview8"
     showgrid="true"
     inkscape:zoom="0.45603865"
     inkscape:cx="589.68182"
     inkscape:cy="675.78438"
     inkscape:window-x="1600"
     inkscape:window-y="27"
     inkscape:window-maximized="1"
     inkscape:current-layer="svg6"
     inkscape:document-units="cm"
     fit-margin-top="0"
     fit-margin-left="0"
     fit-margin-right="0"
     fit-margin-bottom="0"
     inkscape:snap-nodes="false"
     inkscape:snap-others="false"
     inkscape:snap-to-guides="false"
     inkscape:snap-bbox="true"
     inkscape:bbox-nodes="true">
    <inkscape:grid
       type="xygrid"
       id="grid4529"
       units="cm"
       spacingx="737.00785"
       spacingy="737.00787"
       originx="0"
       originy="0" />
  </sodipodi:namedview>
  <title
     id="title2">OpenSCAD Model</title>
  <path
     style="fill:none;stroke:#0000ff;stroke-width:0.5;stroke-opacity:1"
     d="M -44.750011,-989.74998 V 502.6635 H 1447.6633 V -989.74998 Z m 21.24615,16.5823 h 73.42232 l 9.91061,1.8786 11.04415,5.603 10.13716,7.676 7.67597,8.8739 5.24659,9.9107 2.6233,9.943 -0.64823,5.2466 -3.59493,13.7 -5.63565,14.5742 -7.48144,15.4812 -6.60707,11.6918 -11.72419,6.6395 -15.48122,7.4816 -4.85814,1.8785 -4.016,1.0678 -12.76066,1.5224 -11.88629,-0.6484 -10.91446004,-2.8825 -9.94303996,-5.2468 -6.93088,-6.0239 -4.04842,-7.9997 -4.98763,-15.2869 -3.20627,-16.8091 v -60.3378 l 0.71286,-7.3842 2.13779,-0.3566 z m 133.500991,0 h 110.24695 l -8.16168,5.9919 -28.8897,5.4411 -56.93704,15.9993 -0.97184,-3.6597 -5.24679,-9.9431 z m 388.48765,0 h 10.3315 l -1.8786,5.6356 -2.2022,4.4695 -15.5783,-3.8218 z m 44.7918,0 h 11.0764 l -3.2711,11.0766 -1.8785,11.0765 -12.0482,-4.016 1.1658,-2.3319 4.6638,-14.1533 z m 45.4393,0 h 54.6702 l -43.0107,24.7118 -14.5744,9.7809 -0.6482,-0.2918 -4.6316,-1.5538 1.9435,-11.4004 z m 173.0786,0 h 51.6903 l 3.4008,8.1295 6.866,23.3188 0.6798,3.919 -3.4978,1.1657 -27.0757,-18.1369 z m 87.09,0 h 12.3718 l 1.9434,11.8541 3.1739,9.5541 -10.6231,3.4655 -0.6152,-3.6276 z m 45.4072,0 h 10.7849 l 11.9832,8.0968 -18.817,4.6316 -3.66,-11.0765 z m 288.28052,0 h 106.7489 l -3.1415,3.6275 -5.2467,9.9429 -2.9149,10.9146 v 0.3234 l -47.5772,-13.376 -43.4315,-8.1939 z m 181.1106,0 h 67.3982 v 75.236 l -4.8903,14.9631 -6.4128,12.6636 -7.7082,10.1696 -8.8419,7.6435 -3.7246,1.9755 -9.6188,0.5175 -12.7933,-1.5224 -13.6675,-3.6273 -14.5742,-5.603 -15.4812,-7.5141 -7.5139,-4.2425 -6.3481,-13.0847 -5.603,-14.5742 -3.6274,-13.6675 -1.5221,-12.7932 0.6482,-11.8537 2.8824,-10.9144 1.4246,-2.6882 9.6514,-7.3197 12.6958,-6.4128 15.2869,-4.9876 z m -660.05612,6.8338 26.6872,12.8904 44.144,25.3592 9.3276,6.2508 -20.145,8.6151 -42.1361,22.1854 -19.4001,12.2423 -29.3752,-18.5578 -42.1363,-22.1531 -8.4855,-3.6273 41.8123,-24.0316 z m 338.51342,18.3313 60.5322,0.7777 31.7073,3.1416 6.2509,11.5947 20.9869,48.8402 0.4527,1.4245 -43.3342,-2.3643 -50.9454,1.7489 -0.6798,0.067 -3.3684,-3.3682 -4.3076,-16.6796 -12.9225,-35.8528 z m -682.79202,0.1661 -12.5663,34.8165 -5.8622,22.7681 -0.5173,0.486 -6.51,6.5098 -39.0267,-1.3281 -53.34212,2.9147 -0.9386,0.1661 4.016,-12.3395 21.01962,-48.8728 45.3099,-4.5017 z m 35.3025,1.5222 9.3274,0.6799 -14.8982,12.4692 2.0081,-5.5059 z m 612.54352,0.874 5.9268,12.6634 -14.41232,-12.048 z m -555.86562,5.1495 33.1324,5.2468 2.1376,0.5173 -6.51,7.9674 -12.8577,13.3111 -14.6715,13.2142 -16.3882,13.2464 -17.9748,13.3112 -1.9109,1.3282 -22.1532,-4.7286 -17.0682,-2.1052 14.7363,-13.5704 34.5576,-28.8895 z m 501.8435,1.4245 14.7039,11.1088 34.55732,28.9221 23.06,21.2137 -5.9917,0.7445 -30.02332,6.4127 -13.4409,-9.295 -18.0072,-13.3436 -16.3558,-13.2142 -14.6715,-13.2139 -11.7242,-12.113 13.8618,-3.4006 z m 220.46122,0.067 47.3829,35.1727 20.8899,15.3193 19.6591,13.959 6.2833,4.2428 v 0.099 l 2.17,6.4452 -42.4277,-10.0726 -29.4078,-4.2427 -5.2142,-15.9671 z m -946.19927,1.7165 -14.18558,33.0677 -9.06847,27.7558 -18.16935,2.6235 -54.15185,12.8579 2.94731,-8.7771 17.52154,-12.469 20.88992,-15.2871 45.79583,-34.0716 7.57871,-5.5382 z m 292.49135,10.7203 14.3475,3.5303 12.0804,4.0484 -0.032,7.8701 -24.4525,18.8818 -34.5573,30.4119 -7.0606,7.0279 -22.8007,-7.0279 14.4771,-11.7244 14.6715,-13.214 12.8902,-13.3112 10.9795,-13.4409 z m 361.4114,3.0444 2.4289,3.6921 10.9793,13.4732 12.8902,13.279 14.6715,13.2463 16.3558,13.214 9.7163,7.1902 -16.874,5.182 -8.0322,2.6233 -16.5499,-16.5175 -34.5251,-30.3797 -12.5337,-9.6514 0.032,-0.2586 -0.3881,-8.1617 17.6837,-5.9267 z m 368.66612,0.067 27.497,7.7081 1.4243,11.9185 0.3881,1.4578 -18.0397,-12.8253 z m -1103.89349,4.9227 -13.14931,9.6192 -8.68002,6.1536 2.7854,-10.4287 z m 443.96687,16.4529 21.1491,9.0362 42.1036,22.1854 18.882,11.9185 -25.068,18.6877 -29.4725,25.5861 -7.8378,-7.2224 -9.781,-11.1415 -1.3596,-1.943 -8.6152,-16.5501 -6.5098,-17.7483 -4.1781,-18.9791 -0.5173,-6.3155 z m 225.5463,1.3929 9.9753,7.7081 -2.9797,13.5056 -6.4774,17.7809 -8.6152,16.5499 -10.6553,15.3517 -12.4693,14.218 -1.0678,0.9717 -3.8541,-3.8541 -32.3876,-28.1122 -15.9345,-11.8539 9.7161,-6.1536 42.136,-22.1529 z m -266.2247,28.8248 2.8176,12.7607 6.4776,17.7807 8.6474,16.5499 10.623,15.3517 4.6962,5.3763 -24.6144,-15.4488 -36.4358,-18.6551 -7.8703,-3.2064 27.497,-24.1933 z m 304.8954,1.1658 33.2619,29.2459 2.4938,2.4938 -17.4245,7.093 -36.436,18.6551 -24.6143,15.4488 4.6961,-5.3441 11.9833,-16.4851 10.6231,-15.3839 8.615,-16.5501 6.51,-17.7483 z m -559.4284,18.8818 7.8701,0.292 -19.3678,21.0518 -25.32674,29.6668 -23.44878,29.3754 -2.36413,3.1416 -18.26662,0.7777 4.37243,-32.3875 10.6553,-46.3464 0.29199,-0.874 12.24232,-1.7811 z m 823.87172,0 53.3745,2.9149 0.9717,0.1661 4.1456,12.6634 10.6229,46.3464 2.9797,21.8616 -15.0601,-0.6485 -8.9066,0.4527 -7.2222,-9.6514 -23.4486,-29.4079 -25.327,-29.6668 -13.1817,-14.3152 z m -752.78132,4.2427 11.5947,1.4245 -13.1493,8.4207 z m 672.88142,1.0697 1.4245,9.1658 -12.2101,-7.8379 z m 170.3905,2.9798 18.3636,2.6881 54.3784,12.8901 5.4736,16.3556 13.5703,57.2611 0.3567,2.4616 -38.4117,-8.8095 -39.1241,-5.279 -4.599,-33.9422 z m -1014.89299,1.4575 -7.35196,31.9665 -6.02409,44.5975 -0.0324,0.7444 -30.28239,4.0809 -46.3464,10.6555 -1.26362,0.388 2.13779,-14.8982 13.6026,-57.2611 0.80911,-2.3965 9.16574,-3.077 57.26105,-13.5702 z m 507.02547,2.5587 26.3633,19.6267 30.5413,26.4929 -3.9189,2.9797 -17.3596,11.1412 -18.7846,10.2991 -13.959,6.6397 -8.0969,-3.3684 -20.1126,-9.5544 -18.7849,-10.2992 -13.2462,-8.4853 22.5091,-19.5299 z m -277.2043,1.8135 15.4166,3.336 15.4812,4.7611 -28.0475,31.4803 -26.0396,32.7763 -17.1006,24.0313 -16.0318,-5.5382 -4.1779,-27.173 -1.1011,-23.5132 12.3074,-7.773 22.2824,-14.3153 20.9548,-13.8617 z m 557.6472,1.6517 15.2869,10.1372 22.28262,14.283 23.74,15.0277 -0.5838,12.372 -4.2428,27.8533 -3.433,12.8901 -17.1007,5.927 -12.5015,-17.6188 -11.98332,-16.4852 -26.0397,-32.7762 -19.4646,-21.829 26.2662,-8.0968 z m -649.6922,0.4857 -1.0697,19.0115 -23.8048,15.0602 -14.2827,9.1657 9.8134,-11.4652 27.3673,-29.7965 z m 1098.97072,2.2349 v 112.514 l -2.4614,-3.3684 -8.1292,-43.1725 -14.5096,-51.6255 6.6717,-1.7813 9.943,-5.2468 z m -1459.248671,1.1343 9.71628,5.1173 16.54991,5.3763 -12.372,44.1442 -8.19411,43.4315 -5.70008,7.773 z m 1102.047571,2.9473 17.5863,19.141 9.8136,11.4976 -14.3153,-9.1657 -12.3396,-7.8054 z m 280.961,4.0807 8.5827,2.7854 7.9998,2.1053 8.4855,30.2498 -2.8178,-3.8219 -6.6717,-9.0682 -10.6231,-14.9631 z m -1314.282501,5.344 -8.09684,11.4004 -6.25064,8.5179 5.11711,-18.2342 5.18195,-0.6152 z m 447.983381,2.7528 13.6674,5.5708 36.4358,18.6875 33.3914,20.8899 2.4938,1.8784 -15.3515,17.8132 -23.4808,31.2864 -12.5017,19.141 -7.7406,2.3317 -29.5697,9.3276 -10.3964,3.3684 -7.449,-6.4452 -25.2299,-17.9101 -27.756,-16.0318 -1.9757,-0.9072 9.7812,-13.7647 23.5132,-29.602 28.7276,-32.2579 z m 831.80662,1.8462 3.8541,1.2636 4.2103,6.2509 13.9914,19.6915 15.2869,20.8575 34.0393,45.8283 1.9432,2.6235 -36.5655,-15.708 -21.3756,-6.9957 -3.3359,-23.1248 z m -405.68522,0.8093 4.4695,4.4371 28.7278,32.2254 26.0395,32.776 14.218,20.048 -8.939,4.0809 -27.756,15.9993 -21.6348,15.384 -2.0729,-0.6799 -29.5696,-9.3274 -25.2623,-7.676 -2.3643,-3.6273 -11.9832,-16.4853 -23.481,-31.2862 -8.4855,-9.8134 29.019,-18.1693 36.436,-18.6553 z m -832.033351,2.5587 -8.80951,37.1158 -5.24679,36.3389 -31.44815,10.2668 -29.86113,12.8253 1.5538,-8.2587 27.72354,-37.2779 15.28689,-20.8901 11.98336,-16.4851 6.83362,-9.6515 z m 249.026951,33.8771 0.6484,14.1209 1.0695,6.9958 -17.1331,-4.1457 -9.0682,-1.3283 19.4646,-12.4693 z m 742.38502,1.0032 19.3355,12.3722 5.1819,3.4331 -1.1657,0.1661 -26.4605,6.4128 2.9797,-19.4324 z m -428.74492,22.1856 11.3356,6.186 6.6395,3.1414 -6.2509,2.3321 -7.8054,-8.1941 z m -45.0511,4.0808 2.17,1.6201 19.7564,17.6188 -23.2541,7.0604 -27.3026,8.097 6.9308,-9.2628 z m 200.3164,1.3597 15.125,17.4893 7.449,9.9431 -8.4529,-2.4941 -25.8777,-7.8701 -6.4776,-2.0727 9.4897,-8.4533 z m -51.6578,0.8425 -2.5587,2.2995 -1.0032,-0.3234 z m -484.3218,14.2829 13.635,0.6798 38.0228,5.506 23.9992,5.7971 3.2064,12.1455 7.708,19.9829 -13.9264,24.2908 -17.0682,33.0027 -3.6922,7.9025 -7.935,3.7246 -32.9703,17.0683 -18.55801,10.6231 -2.81783,-1.4576 -23.93429,-9.263 -5.27901,-1.3929 -6.96351,-28.7276 -5.50576,-37.9906 -0.68004,-13.6674 12.27495,-18.0075 2.81762,-3.9835 19.6269,-13.9591 z m 875.04382,0.4859 8.0646,5.4733 20.1124,14.3153 14.3153,20.1128 10.9147,16.0316 -4.8257,33.2619 -8.6152,35.5292 -2.3319,6.8014 -13.311,4.3074 -13.9915,5.4087 -31.2862,-17.9426 -33.003,-17.068 -2.8176,-1.3283 -13.862,-26.7845 -19.238,-33.4887 3.757,-7.2547 8.9712,-23.2218 34.9136,-8.4531 37.9906,-5.506 z m 86.6041,1.0695 36.7273,4.9552 43.3667,9.943 2.7207,18.9143 2.4939,45.5367 -0.486,14.5095 -27.6911,-25.4888 -29.667,-25.327 -26.6872,-21.311 0.067,-1.7814 z m -1046.72979,1.0679 -0.35663,8.7122 v 9.198 l -9.23037,6.9311 -29.37541,23.4161 -29.6668,25.3592 -16.193881,14.8983 -0.45269,-12.5986 2.91489,-53.3745 0.87396,-5.9595 6.283061,-2.0403 46.3464,-10.6555 z m 525.51847,4.0484 15.7728,5.9268 1.4577,0.486 -1.8138,1.8784 -20.9869,25.8775 -3.8219,-5.279 -15.5459,-19.141 15.967,-5.9919 z m 51.1723,17.8131 7.7406,2.5263 24.8735,7.9025 25.8777,7.8703 37.7637,11.206 7.5463,11.4975 17.0358,30.0556 -11.692,14.5096 -15.7078,23.2216 -13.5703,24.0962 -5.2144,11.1739 -19.3031,4.016 -25.5535,4.4046 -11.4653,1.6517 -4.2427,-12.1131 -12.2747,-29.343 -14.445,-28.9219 -16.7442,-28.4362 -8.0322,-11.6271 3.0121,-4.3398 18.0397,-22.1854 z m 584.36672,3.2063 45.99,19.7564 16.2263,8.7771 4.8255,48.581 0.5506,43.2374 -0.099,1.1009 -6.089,-2.8825 -35.8852,-12.9225 -22.7361,-5.8622 -0.4857,-0.5173 -1.1343,-1.1342 1.6184,-47.2856 z m -693.35042,0.099 7.19,7.5787 21.8291,26.8816 4.1455,5.927 -0.9716,1.4243 -16.7442,28.4365 -14.445,28.9543 -12.2747,29.3106 -7.2547,20.7928 -1.0697,-0.1317 -25.5214,-4.4046 -24.8409,-5.182 -8.3885,-2.1054 -12.2749,-21.7967 -15.7078,-23.2216 -11.9833,-16.4853 -5.5708,-6.9308 4.5992,-9.2953 16.1936,-28.5008 54.7996,-16.2585 25.91,-7.8701 z m -582.229181,2.2348 -2.10516,38.3469 v 20.3715 l 1.10111,31.9663 -11.36795,11.3358 -5.0849,1.295 -19.36773,6.2833 -30.24977,10.9144 0.71306,-55.933 3.78926,-37.9904 5.27921,-2.85 48.84021,-20.9872 z m 330.222481,3.4977 0.4527,0.2274 27.7886,16.0317 14.3475,10.2022 -1.62,0.5506 -31.0596,11.141 -1.0695,0.4213 -2.2346,-2.688 -6.3806,-9.5868 -7.6109,-14.7039 z m 611.18332,2.9475 6.1862,9.6837 -1.7814,3.4656 -12.79302,19.2057 -8.8742,-3.4655 -20.8899,-7.4816 2.5587,-1.8136 27.7559,-16.0318 z m -107.94732,31.3509 3.2065,1.0049 -1.6517,1.7165 z m 132.36752,9.0687 3.8541,6.7365 -6.5422,-2.7854 0.713,-1.0048 z m -661.64312,0.7445 4.2429,6.3801 -9.7811,4.1781 4.9552,-9.5866 z m 568.7236,3.0119 0.7777,0.2588 31.0595,11.1414 5.9268,2.2995 -9.8133,9.5866 -18.0075,14.4771 -17.8456,11.7891 -4.3398,-10.202 -9.5543,-19.4002 6.8014,-7.0279 z m -471.0105,2.753 4.4695,3.8541 13.4731,13.959 -4.2428,8.6152 -8.0322,18.7845 -6.866,-3.757 -19.2705,-12.7607 -18.0074,-14.4447 -0.5176,-0.5173 27.6916,-9.9106 z m 782.93392,1.1341 14.1534,12.0806 23.9667,22.0235 -16.9062,-0.9386 -4.6964,-7.3844 z m -1102.27427,3.6274 -7.64335,11.9511 -11.65955,18.3959 -12.95498,0.7131 -3.33596,0.5175 18.33126,-16.8091 z m 36.30629,2.4938 2.7854,19.4326 2.6233,10.7527 -12.72824,-1.9757 -10.39632,-0.4859 5.11711,-8.0644 z m 1036.13908,6.4454 14.2506,22.2175 -20.1126,3.077 5.4411,-22.5093 z m -519.88322,0.7777 12.113,20.5335 14.4448,28.9545 12.2747,29.3106 2.2024,6.4127 -8.1941,1.0032 -26.1365,2.9147 -26.1043,-2.9147 -18.7201,-2.3319 5.3117,-15.2546 12.2749,-29.343 14.4445,-28.9219 z m 307.74552,9.2628 25.7805,10.9795 24.7762,11.5945 11.5947,24.744 12.3074,28.9219 -2.2995,1.911 -16.2263,16.5824 -14.4445,18.0072 -12.7609,19.2707 -5.0849,9.2304 -19.1734,-7.028 -32.25772,-10.1373 -15.8698,-4.275 -2.6233,-9.6841 -10.1374,-32.2903 -8.8743,-24.1934 5.3765,-2.9471 19.2704,-12.7607 18.0075,-14.4449 16.61472,-16.2259 z m -613.41812,2.9148 14.6067,14.2829 18.0075,14.4447 19.238,12.7607 14.1858,7.773 -5.6679,15.4812 -10.1695,32.2579 -6.1212,22.8332 -4.923,1.3283 -32.2903,10.1373 -19.3678,6.3155 -10.9793,4.016 -1.295,-2.3319 -12.7609,-19.2705 -11.9831,-16.4852 -14.445,-18.0075 -11.0117,-11.2709 3.0768,-7.8377 13.6999,-32.2254 5.0848,-10.8176 19.3029,-9.0361 32.2255,-13.6998 z m 498.216,16.8415 1.6516,3.3036 6.5745,15.4164 -14.1532,6.4451 -13.376,4.9877 7.6433,-13.5704 8.8744,-13.1169 z m -384.4389,1.8785 1.3283,1.6514 14.5094,21.5055 -16.5175,-6.1862 -5.5058,-2.4938 z m -361.41154,21.6672 29.73164,1.3929 22.05588,3.4006 6.28326,18.1045 -28.85727,20.5013 -32.77621,26.0394 -25.58596,22.7686 -5.95946,-19.4002 -3.33596,-15.4488 4.21053,-6.0241 13.86177,-20.9548 14.31526,-22.2824 5.0849,-8.0322 z m 1107.52086,0.5836 11.1739,17.716 14.3152,22.2825 13.8294,20.9223 0.8739,1.2304 -9.5219,30.8652 -1.749,-1.7488 -32.2252,-28.7278 -32.7762,-26.0394 -20.6956,-14.7041 2.0403,-4.4693 3.66,-10.6555 6.0241,-1.587 27.8532,-4.2752 z m 38.3468,0.8423 5.6679,0.3567 7.7082,1.1987 -1.7487,14.1858 -0.4213,1.8784 -6.9957,-10.9469 z m -1186.70829,1.8138 -5.86199,9.1333 -1.003241,-8.0644 z m 999.54139,0.3566 9.1007,5.2144 -5.3438,3.5627 z m -810.20422,2.5587 -2.2349,5.2792 -3.2387,-2.17 z m -227.748821,6.8338 3.04457,24.5497 3.07679,14.477 -5.99168,8.6149 -13.31121,17.9753 -13.21395,16.388 -13.21436,14.639 -13.31101,12.8904 -2.20242,1.7813 -1.62006,-6.607 -5.18195,-32.6468 6.8014,-8.9714 28.92191,-34.5571 z m 1269.296541,4.7285 16.0642,17.4891 28.9219,34.5573 16.1937,21.4405 -2.5909,16.2912 -4.4048,18.0072 -11.4004,-9.2628 -13.3112,-12.8901 -13.2139,-14.6715 -13.2142,-16.3558 -4.8257,-6.5098 -5.8298,-8.4531 6.4128,-30.0232 z m -846.38102,5.1173 20.0802,7.5136 10.5582,3.4331 9.2628,24.809 -1.846,0.3232 -31.2864,6.0241 -22.0881,5.0525 0.8738,-3.1741 10.1373,-32.2903 z m 894.44392,0.7777 20.6308,9.6839 -1.0365,14.1857 -3.2709,-4.3724 z m -472.01462,1.5868 7.19,19.5299 7.1252,22.7034 -10.8174,-2.4938 -31.2538,-6.0241 -11.9509,-1.9754 7.1898,-19.2383 3.3362,-1.0365 22.3795,-8.3884 z m -654.84154,2.5264 18.71974,12.4691 3.7246,3.0768 -1.6841,4.2752 -10.4612,29.1486 -0.4527,-0.6484 -16.03174,-27.756 -5.86219,-12.8901 z m 888.87316,0.5504 9.2304,5.8622 -1.7812,3.9514 -16.0319,27.7883 -5.3437,7.4815 -5.603,-15.6107 -5.506,-14.2182 15.5783,-10.3639 z m -1137.576501,1.6203 -8.87415004,10.6228 -0.45288,-6.2506 z m 522.474381,7.3519 13.5702,4.1779 5.0202,10.7202 1.1342,2.9797 -4.3723,0.7131 z m 335.6311,4.4045 -10.429,12.6311 -2.6881,-0.4526 -2.9471,-0.3881 3.1414,-8.129 5.8946,-1.4908 z m 315.74512,11.0119 15.6431,11.1088 32.776,26.0396 32.2581,28.7276 8.615,8.615 -7.1252,17.4893 -18.6553,36.436 -20.3718,32.5168 -21.2137,-18.2988 -31.2863,-23.481 -10.9468,-7.1576 -4.8582,-15.967 -9.3276,-29.5697 -3.1417,-9.3276 6.2185,-8.5504 17.9104,-25.1973 z m -964.82194,1.1011 2.13738,4.696 16.03178,27.7886 17.91039,25.1975 1.68409,1.9109 -7.93494,25.1651 -8.12926,26.7519 -19.65912,12.8255 -31.28624,23.4808 -14.99551,12.9549 -14.60665,-23.2864 -18.65527,-36.436 -11.72419,-28.76 1.23039,-1.2304 32.25788,-28.7276 32.77601,-26.0396 z m 876.82524,12.048 0.8423,2.1054 11.1414,31.0595 1.8136,5.3438 -8.1617,9.4571 -9.9428,9.6193 -13.6028,-6.7044 -15.4812,-6.6068 6.1213,-11.1737 6.8336,-10.3317 8.3885,-10.4611 z m -788.47242,1.5538 4.3722,4.4695 14.4449,17.975 12.7607,19.2707 2.1376,3.8863 -23.481,10.0079 -4.9552,2.4614 -18.5905,-17.9751 -0.4526,-0.5173 6.0565,-18.1693 z m 400.0822,2.17 47.7715,5.0203 3.1415,10.9144 6.8338,29.7317 3.2063,17.5215 -12.275,0.388 -3.8863,0.1338 -3.9838,0.2587 -4.0484,0.3565 -4.1779,0.4859 -4.34,0.7131 -4.4695,0.9383 -4.6314,1.3283 -4.8581,1.7816 -5.0847,2.4289 -5.2468,3.336 -5.3115,4.4371 -3.9837,4.5989 -3.9836,-4.5989 -5.3117,-4.4371 -5.2465,-3.336 -5.0849,-2.4289 -4.8582,-1.7816 -4.6638,-1.3283 -4.4695,-0.9383 -4.3076,-0.7131 -4.1779,-0.4859 -4.0808,-0.3565 -3.9514,-0.2587 -3.8863,-0.1338 -10.8498,-0.2918 5.0525,-27.8208 6.7687,-29.3432 z m 82.9765,8.8419 4.4371,0.5173 13.1817,1.6201 -0.8423,2.6559 -6.5423,26.3959 -1.6843,8.615 -2.3965,-13.182 z m -175.9611,1.1988 -3.5302,15.2545 -4.3396,23.8372 -6.3157,-25.2946 -3.595,-11.5947 z m 247.7642,8.4533 23.5456,3.8541 31.2538,6.0563 20.7281,4.7286 1.684,6.3157 7.2225,31.6749 6.0563,31.2539 5.1174,31.351 -3.7245,1.1342 -26.3958,6.5746 -26.7522,5.2144 -27.1083,3.9838 -7.8377,0.8423 -0.6152,-3.5302 -1.1657,-4.6963 -1.4243,-4.3398 -1.5538,-4.1132 -1.6517,-3.8541 -1.7165,-3.6922 -1.7814,-3.5625 -1.8135,-3.4331 -5.2792,-9.7487 -1.6201,-3.1092 -1.5222,-3.0446 -1.3599,-3.0119 -1.1657,-3.0444 -0.9716,-3.0768 -0.7447,-3.3035 -0.4211,-3.8865 0.067,-5.0847 1.0679,-7.5463 3.2387,-12.3722 z m -319.6318,1.6516 15.9994,42.8808 3.2713,12.3722 1.0363,7.5463 0.067,5.0849 -0.4211,3.8863 -0.7131,3.3035 -0.9718,3.0768 -1.1988,3.0444 -1.3599,3.0121 -1.5222,3.0444 -1.62,3.1092 -5.2792,9.7487 -1.7814,3.433 -1.7811,3.5626 -1.749,3.6923 -1.6516,3.8539 -1.5538,4.1133 -1.3929,4.3398 -1.1988,4.6962 -0.3881,2.2995 -24.4202,-3.5949 -26.7843,-5.2144 -26.3957,-6.5746 -12.2101,-3.7893 1.1658,-8.0646 5.0524,-30.8327 6.0564,-31.2541 5.7973,-25.3916 31.2214,-7.1252 31.2865,-6.0565 z m -458.735681,2.7852 7.90252,25.6186 -11.59471,11.6269 -30.37946,34.5574 -14.28284,18.5258 -6.83382,0.2918 -4.50171,-13.4409 -2.42918,-9.9104 12.89035,-10.5582 13.31101,-12.858 13.21415,-14.6715 13.24637,-16.3558 z m 1235.419101,3.9838 1.8461,2.5587 13.2464,16.3554 13.214,14.6717 13.3114,12.8577 13.4407,10.9793 8.9065,5.8622 -7.6757,22.8656 -3.433,-0.1662 -7.0282,0.6152 -19.3677,-25.0678 -30.3795,-34.5576 -3.692,-3.692 1.7812,-4.4048 z m -345.47682,15.4488 6.8984,1.846 16.6794,5.2468 20.72812,7.6111 -1.8136,3.9512 -8.356,22.4121 -7.1577,23.2542 -2.81762,11.0766 -9.0038,4.2103 -4.8904,-29.7964 -6.0567,-31.2541 z m -543.0728,2.9473 -1.2634,5.4087 -6.0241,31.2863 -5.0849,30.8003 -1.0032,7.2549 -7.9674,-3.077 -3.0444,-1.4243 -6.769,-21.9262 -8.3884,-22.4121 -5.0198,-11.0766 15.7726,-5.7973 z m -451.448551,8.032 0.77771,4.9877 4.08084,16.5823 -7.61113,3.7894 -4.04842,0.6799 v -15.967 z m 1445.581271,5.2468 6.866,10.1048 v 8.2911 l -10.5258,-3.4652 z m -376.407,10.9469 10.0725,4.275 6.4776,3.2064 -6.7043,5.3763 -19.6267,13.3114 0.6152,-2.0727 8.3884,-22.4121 z m -692.79992,2.6235 4.1781,9.2628 4.7609,12.7282 -4.1457,-2.3319 -19.6915,-13.3112 z m -251.06726,9.6515 5.53818,13.6674 18.68769,36.4358 14.18538,22.6712 -11.40038,-10.0401 -15.35153,-10.6232 -16.582331,-8.6472 -17.74829,-6.4774 -8.77708,-1.9111 26.42811,-30.0232 z m 1193.63918,1.3282 28.1446,31.9987 3.595,4.6316 -16.3556,5.3439 -17.7483,6.4774 -16.5823,8.6474 -15.3518,10.5908 -8.453,7.4492 2.2997,-3.174 20.9221,-33.3914 18.6551,-36.436 z m -201.0289,10.202 26.0395,14.8012 12.1777,7.9674 16.8415,56.678 7.8701,25.91 5.4089,17.0034 -12.1455,11.5945 -26.8816,21.8291 -1.9108,1.3283 -6.4774,-4.4695 -28.4362,-16.7442 -28.9219,-14.4448 -29.3108,-12.2749 -15.805,-5.506 0.8091,-5.7001 4.4048,-25.5535 5.182,-24.8091 0.1661,-0.6482 4.1455,-1.9433 24.1288,-13.5703 23.2219,-15.708 z m -789.54112,1.2304 10.1696,8.2265 23.2219,15.708 24.1286,13.5704 12.9874,6.0885 3.3035,12.9876 5.182,24.8087 4.0484,23.5782 -26.6224,9.2626 -29.3106,12.3074 -28.9545,14.4123 -25.5536,15.0926 -11.2387,-7.8055 -26.88135,-21.7967 -3.98378,-3.8216 1.32826,-3.8217 7.90272,-24.8413 7.87009,-25.91 13.63506,-45.9577 3.4008,-2.2348 32.2576,-18.2989 z m 292.8797,0 17.6186,24.5173 10.3317,12.955 7.0606,7.87 5.3763,5.1498 4.3722,3.5951 3.7246,2.6233 3.3035,1.9433 3.012,1.5222 2.7854,1.1989 2.6557,1.0049 2.5263,0.8423 9.3598,2.9149 2.2349,0.7447 2.2024,0.8424 2.2022,0.9386 2.1376,1.0695 2.17,1.2636 2.1052,1.4889 2.1051,1.8138 2.0728,2.2347 2.0405,2.7854 2.0403,3.5951 1.9433,4.7284 1.9108,6.5425 1.7489,9.5866 1.5224,15.222 1.0049,27.9179 0.9716,-27.9179 1.5538,-15.222 1.7489,-9.5866 1.8786,-6.5425 1.9757,-4.7284 2.0079,-3.5951 2.073,-2.7854 2.0727,-2.2347 2.1052,-1.8138 2.1051,-1.4889 2.1376,-1.2636 2.17,-1.0695 2.17,-0.9386 2.2022,-0.8424 2.2349,-0.7447 9.3923,-2.9149 2.5262,-0.8423 2.6233,-1.0049 2.8176,-1.1989 3.0122,-1.5222 3.3035,-1.9433 3.7246,-2.6233 4.3723,-3.5951 5.344,-5.1498 7.0928,-7.87 10.2993,-12.955 17.651,-24.5173 -12.4044,27.5294 -6.0888,15.4164 -3.2389,10.0725 -1.8135,7.2225 -0.9386,5.5706 -0.3881,4.5343 -0.032,3.8541 0.1945,3.3358 0.3567,3.0444 0.4526,2.7854 0.5174,2.6233 2.2024,9.5543 0.4527,2.3319 0.388,2.332 0.2918,2.3319 0.1317,2.4291 v 2.4612 l -0.2585,2.5911 -0.5176,2.7206 -0.8737,2.9149 -1.3929,3.1738 -2.1054,3.5303 -3.1416,4.0808 -4.6961,4.9228 -7.4168,6.3157 -12.4368,8.9066 -23.6751,14.8334 24.6791,-13.0845 13.9591,-6.3157 9.1657,-3.2387 6.6071,-1.6514 5.0847,-0.6799 4.113,-0.032 3.4657,0.388 2.9471,0.6799 2.6235,0.907 2.3641,1.1011 2.17,1.2304 2.0081,1.295 1.8786,1.4577 1.846,1.4908 1.7488,1.5536 7.2224,6.6719 1.9757,1.749 2.2022,1.8135 2.4292,1.7812 2.8178,1.8786 3.3684,1.8786 4.1131,1.9107 5.279,1.9756 7.1902,2.0728 10.3315,2.2026 16.388,2.4612 30.0233,3.01215 -30.0233,3.01194 -16.388,2.4616 -10.3315,2.20222 -7.1902,2.07274 -5.279,1.97568 -4.1131,1.91084 -3.3684,1.87862 -2.8178,1.87841 -2.4292,1.78115 -2.2022,1.81378 -1.9757,1.74913 -7.2224,6.67172 -1.7488,1.55379 -1.846,1.52219 -1.8786,1.42451 -2.0081,1.29503 -2.17,1.2304 -2.3641,1.10111 -2.6235,0.90699 -2.9471,0.67983 -3.4657,0.38805 -4.113,-0.0324 -5.0847,-0.67984 -6.6071,-1.65147 -9.1657,-3.23869 -13.9591,-6.31569 -24.6791,-13.08467 23.6751,14.8334 12.4368,8.90656 7.4168,6.31569 4.6961,4.92299 3.1416,4.08064 2.1054,3.53028 1.3929,3.17406 0.8737,2.91488 0.5176,2.72036 0.2585,2.59108 v 2.46139 l -0.1317,2.42918 -0.2918,2.3319 -0.388,2.36434 -0.4527,2.29948 -2.2024,9.55418 -0.5174,2.6233 -0.4526,2.7854 -0.3567,3.04458 -0.1945,3.33575 0.032,3.8541 0.3881,4.53433 0.9386,5.57061 1.8135,7.22227 3.2389,10.07252 6.0888,15.416581 12.4044,27.52941 -17.651,-24.51747 -10.2993,-12.954981 -7.0928,-7.87009 -5.344,-5.14953 -4.3723,-3.59513 -3.7246,-2.6233 -3.3035,-1.94326 -3.0122,-1.52218 -2.8176,-1.19898 -2.6233,-1.00324 -2.5262,-0.84235 -9.3923,-2.91489 -2.2349,-0.74447 -2.2022,-0.84256 -2.17,-0.93839 -2.17,-1.06809 -2.1376,-1.26342 -2.1051,-1.49077 -2.1052,-1.81358 -2.0727,-2.23484 -2.073,-2.78541 -2.0079,-3.59492 -1.9757,-4.72866 -1.8786,-6.54224 -1.7489,-9.5866 -1.5538,-15.22205 -0.9716,-27.91807 -1.0049,27.91807 -1.5224,15.22205 -1.7489,9.5866 -1.9108,6.54224 -1.9433,4.72866 -2.0403,3.59492 -2.0405,2.78541 -2.0728,2.23484 -2.1051,1.81358 -2.1052,1.49077 -2.17,1.26342 -2.1376,1.06809 -2.2022,0.93839 -2.2024,0.84256 -2.2349,0.74447 -9.3598,2.91489 -2.5263,0.84235 -2.6557,1.00324 -2.7854,1.19898 -3.012,1.52218 -3.3035,1.94326 -3.7246,2.6233 -4.3722,3.59513 -5.3763,5.14953 -7.0606,7.87009 -10.3317,12.954981 -17.6186,24.51747 12.4045,-27.52941 6.0563,-15.416581 3.2711,-10.07252 1.7814,-7.22227 0.9386,-5.57061 0.388,-4.53433 0.032,-3.8541 -0.1945,-3.33575 -0.3234,-3.04458 -0.4859,-2.7854 -0.5174,-2.6233 -2.17,-9.55418 -0.4526,-2.29948 -0.3881,-2.36434 -0.2918,-2.3319 -0.1317,-2.42918 v -2.46139 l 0.2272,-2.59108 0.5173,-2.72036 0.9072,-2.91488 1.3929,-3.17406 2.1049,-3.53028 3.1093,-4.08064 4.7286,-4.92299 7.4166,-6.31569 12.4044,-8.90656 23.6754,-14.8334 -24.647,13.08467 -13.9588,6.31569 -9.1658,3.23869 -6.607,1.65147 -5.1173,0.67984 -4.1133,0.0324 -3.433,-0.38805 -2.9796,-0.67983 -2.6235,-0.90699 -2.3317,-1.10111 -2.17,-1.2304 -2.0081,-1.29503 -1.9108,-1.42451 -1.8136,-1.52219 -1.7815,-1.55379 -7.1899,-6.67172 -2.0079,-1.74913 -2.17,-1.81378 -2.4615,-1.78115 -2.8176,-1.87841 -3.3358,-1.87862 -4.1132,-1.91084 -5.3117,-1.97568 -7.1576,-2.07274 -10.3315,-2.20222 -16.3882,-2.4616 -30.0554,-3.01194 30.0554,-3.01215 16.3882,-2.4612 10.3315,-2.2026 7.1576,-2.0728 5.3117,-1.9756 4.1132,-1.9107 3.3358,-1.8786 2.8176,-1.8786 2.4615,-1.7812 2.17,-1.8135 2.0079,-1.749 7.1899,-6.6719 1.7815,-1.5536 1.8136,-1.4908 1.9108,-1.4577 2.0081,-1.295 2.17,-1.2304 2.3317,-1.1011 2.6235,-0.907 2.9796,-0.6799 3.433,-0.388 4.1133,0.032 5.1173,0.6799 6.607,1.6514 9.1658,3.2387 13.9588,6.3157 24.647,13.0845 -23.6754,-14.8334 -12.4044,-8.9066 -7.4166,-6.3157 -4.7286,-4.9228 -3.1093,-4.0808 -2.1049,-3.5303 -1.3929,-3.1738 -0.9072,-2.9149 -0.5173,-2.7206 -0.2272,-2.5911 v -2.4612 l 0.1317,-2.4291 0.2918,-2.3319 0.3881,-2.332 0.4526,-2.3319 2.17,-9.5543 0.5174,-2.6233 0.4859,-2.7854 0.3234,-3.0444 0.1945,-3.3358 -0.032,-3.8541 -0.388,-4.5343 -0.9386,-5.5706 -1.7814,-7.2225 -3.2711,-10.0725 -6.0563,-15.4164 z m 812.82762,9.4571 18.3637,5.9595 v 12.372 l -15.9021,-4.6962 -6.6395,-1.1012 z m -1421.355341,3.0122 0.80932,3.2711 2.81762,8.3884 -19.88566,5.8296 -3.27132,1.0681 v -13.2466 l 6.99573,-1.1657 z m 233.707641,39.2858 -1.81357,6.0889 -7.8701,25.91 -4.14568,13.0523 -17.65102,-19.7889 14.89804,-12.8579 z m -175.896031,0.1662 13.11689,1.1011 13.6026,3.0119 3.75704,1.3597 16.5499,8.6474 15.351741,10.6231 14.218,12.4692 3.53029,3.8217 -28.20946,32.4846 -16.226101,21.7967 -3.4006,-5.3762 -22.15314,-42.1361 -16.58233,-38.7355 3.82168,-5.6676 z m 1129.123431,0.388 7.4493,5.5704 20.8573,18.0075 -3.6596,4.8259 -12.0158,13.5055 -7.9673,-26.1691 z m 172.5603,0.8424 3.9189,5.0522 3.3682,5.0525 -11.2383,26.2664 -22.1853,42.1359 -10.2022,16.1936 -21.3756,-28.6951 -22.3475,-25.7481 11.8863,-10.4612 15.3515,-10.6228 16.5501,-8.6152 17.7807,-6.4776 z m 47.221,0.032 17.1006,2.9149 8.7445,2.5586 7.1576,3.0122 v 57.779 l -17.5539,-30.5412 -18.6877,-27.9181 2.8826,-6.7365 z m -1392.789721,1.7165 1.13414,3.3361 -13.73229,20.4687 -20.8575,36.3063 v -50.6864 l 3.27132,-1.3929 23.31889,-6.8336 z m 438.364101,13.2141 16.4853,5.1498 25.8773,6.4449 -14.2502,2.5911 -29.7318,6.8661 -1.0033,0.2918 z m 517.9723,2.6233 2.0403,16.615 -21.8291,-5.0525 -14.2504,-2.5911 25.8777,-6.4449 z m -940.498961,23.2545 6.83383,15.9021 22.15293,42.136 15.09257,23.90191 -15.09257,23.90207 -22.15293,42.10364 -6.83383,15.93471 -22.44452,-39.05947 -20.72801,-42.88095 20.72801,-42.88071 z m 1358.815281,1.8136 2.2347,3.2711 25.3594,44.1441 15.805,32.71121 -15.805,32.71137 -25.3594,44.14416 -2.2347,3.30354 -1.6843,-3.95136 -22.1529,-42.13606 -21.5375,-34.07165 21.5375,-34.07141 22.1529,-42.1361 z m -479.69062,12.4044 11.8863,1.6517 29.6992,5.4409 25.7159,5.9268 0.7777,6.7368 3.174,30.5413 -18.6553,-3.1092 -12.3395,-3.3684 -7.0604,-2.85 -4.4373,-2.4938 -3.1416,-2.2995 -2.4938,-2.2995 -2.2022,-2.3643 -2.0081,-2.5587 -1.9433,-2.6557 -1.8784,-2.8825 -1.8784,-2.9473 -5.7974,-9.4249 -2.0727,-3.3033 -2.2025,-3.3035 -2.3319,-3.3358 z m -398.8188,1.6841 -1.9432,2.753 -2.17,3.3035 -2.1052,3.3033 -5.7974,9.4249 -1.8462,2.9473 -1.9106,2.8825 -1.911,2.6557 -2.0403,2.5587 -2.17,2.3643 -2.4939,2.2995 -3.1416,2.2995 -4.4695,2.4938 -7.0604,2.85 -12.3395,3.3682 -16.3558,2.7532 3.6273,-34.6548 4.7287,-1.3597 29.7318,-6.8338 z m 748.08502,8.0322 24.2259,27.8854 22.4445,30.12031 -22.4445,30.12049 -24.2259,27.88544 -5.4087,-8.45307 -10.299,-18.78475 -9.5544,-20.11262 -4.4371,-10.65549 4.4371,-10.65531 9.5544,-20.1128 10.299,-18.7846 z m -1099.35917,0.2585 0.80911,1.0051 11.14121,17.3594 10.26684,18.785 9.58681,20.14482 0.19453,0.45268 -0.19453,0.45451 -9.58681,20.14484 -10.26684,18.75233 -11.14121,17.39206 -0.80911,1.00323 -1.58703,-1.55541 -28.07997,-32.38736 -16.16106,-21.66722 -1.32826,-2.13758 1.32826,-2.1374 16.16106,-21.6672 28.07997,-32.3876 z m 1059.78177,3.1092 -6.3803,11.6272 -1.1009,-3.2063 z m -1018.94135,1.2637 5.34386,5.9916 3.27132,3.077 -0.25876,0.7445 -1.06788,2.8503 -4.82573,-8.842 z m 819.59675,11.789 0.8091,0.292 29.3106,12.2747 28.9545,14.4124 24.7763,14.60681 -24.7763,14.60666 -28.9545,14.41232 -29.3106,12.27495 -0.8091,0.29199 -1.911,-15.48142 -1.6185,-14.67129 68.1109,-11.433 -68.1109,-11.43262 1.6185,-14.6717 z m -615.94432,2.4616 2.8824,23.1894 0.4527,4.1131 -70.2807,11.82141 70.2807,11.82145 -0.4527,4.11326 -2.8824,23.18941 -11.8215,-4.11326 -29.3108,-12.30737 -28.9543,-14.41233 -14.0885,-8.29116 14.0885,-8.29121 28.9543,-14.4125 29.3108,-12.3071 z m 781.80022,18.4932 7.5141,20.08015 0.2272,0.55056 -0.2272,0.55055 -7.5141,20.08 -4.3398,-4.11306 -20.3393,-16.51769 20.3393,-16.51751 z m -950.7658,0.713 23.31909,18.9143 1.42431,1.00321 -1.42431,1.00486 -23.31909,18.91424 -3.43302,-9.16553 -4.50171,-10.75276 4.50171,-10.75252 z m 745.81818,37.34259 -3.174,30.54136 -0.7777,6.73677 -25.7157,5.92683 -29.6992,5.44112 -11.8863,1.65167 0.8091,-1.10111 2.3321,-3.33596 2.2023,-3.30354 2.0727,-3.30354 5.7975,-9.4247 1.8785,-2.9471 1.8784,-2.88267 1.9432,-2.65572 2.0079,-2.55845 2.2025,-2.36433 2.4938,-2.29949 3.1416,-2.29969 4.4371,-2.49381 7.0605,-2.85005 12.3396,-3.36838 z m -537.8259,0.35664 16.3558,2.75278 12.3395,3.36838 7.0604,2.85004 4.4695,2.49381 3.1416,2.29969 2.4939,2.29929 2.17,2.36433 2.0403,2.55866 1.911,2.65571 1.9106,2.88247 1.8462,2.94731 5.7974,9.4247 2.1052,3.30353 2.17,3.30354 1.9432,2.75298 -29.6668,-5.4087 -29.7318,-6.83382 -4.7287,-1.35988 z m -154.067,2.10496 25.5536,15.09276 28.9545,14.41233 29.3106,12.30737 26.6224,9.26259 -4.0484,23.57806 -5.182,24.80885 -3.3035,12.98741 -12.9874,6.08873 -24.1286,13.602811 -23.2219,15.67534 -10.1696,8.22652 -3.1092,-1.55359 -32.2578,-18.29904 -3.4008,-2.23465 -13.63506,-45.957941 -7.8701,-25.90997 -7.90271,-24.84107 -1.32827,-3.82167 3.98378,-3.82168 26.88156,-21.7967 z m 844.34062,0.16615 1.9108,1.32827 26.8816,21.82892 12.1455,11.59471 -5.4089,17.0034 -7.8701,25.90997 -16.8415,56.678071 -12.1777,7.96736 -26.0395,14.80118 -19.4972,-15.74039 -23.2218,-15.70796 -24.0962,-13.570381 -4.1781,-1.94306 -0.1662,-0.64843 -5.1819,-24.80865 -4.4049,-25.55394 -0.8091,-5.70009 15.805,-5.50576 29.3108,-12.27494 28.9219,-14.44475 28.4362,-16.74424 z m 190.5677,8.032 10.2022,16.19388 22.1853,42.13587 11.2383,26.2664 -3.3682,5.05226 -3.9189,5.05247 -18.4932,-4.08084 -17.7807,-6.47739 -16.5501,-8.61517 -15.3515,-10.62288 -11.8863,-10.46117 22.3475,-25.74826 z m -1229.654131,0.6152 16.226101,21.7969 28.20946,32.48442 -3.53029,3.82188 -14.218,12.46907 -15.351741,10.62307 -16.5499,8.6474 -3.75704,1.35987 -13.6026,3.01195 -13.11689,1.10111 -2.62349,-3.4008 -3.82168,-5.66787 16.58233,-38.73526 22.15314,-42.13607 z m 113.420801,12.01577 1.06788,2.85005 0.25876,0.74468 -3.27112,3.07679 -5.34385,5.99147 2.46139,-3.82167 z m 1005.27393,2.29949 6.3803,11.62713 -7.4814,-8.42085 z m 227.5218,13.47312 v 57.77919 l -7.1576,3.01215 -8.7445,2.55866 -17.1006,2.91488 -0.3565,-1.0697 -2.8824,-6.73656 18.6875,-27.91786 z m -1459.248671,4.43707 20.85749,36.30629 13.73229,20.46905 -1.13414,3.33576 -6.86625,-1.19878 -23.31889,-6.83382 -3.27111,-1.39291 z m 239.407921,18.20178 4.14568,13.05225 7.8701,25.90996 1.81357,6.08874 -16.58233,-12.40442 -14.89804,-12.85772 z m 979.68795,2.59108 12.0158,13.50554 3.6596,4.82572 -20.8573,18.00725 -7.4493,5.57081 4.6639,-15.74039 z m -749.89902,4.76088 1.0033,0.29199 29.7318,6.86604 14.2502,2.59088 -25.8773,6.41275 -16.4853,5.18216 z m 522.6361,2.10516 -2.0403,16.61475 -8.1615,-2.55845 -25.8777,-6.41275 14.2504,-2.59108 z m 291.16332,23.6429 8.453,7.44902 15.3518,10.59065 16.5823,8.6476 17.7483,6.477391 16.3556,5.34406 -3.595,4.6312 -28.1446,31.9989 -0.8739,-2.13738 -18.6551,-36.43598 -20.9221,-33.391401 z m -1112.47653,3.69219 -14.18538,22.67127 -18.68769,36.435781 -5.53818,13.66744 -5.020251,-5.05247 -26.42811,-30.02323 8.77708,-1.91063 17.74829,-6.47759 16.582331,-8.647401 15.35153,-10.62307 z m 723.01741,3.10921 7.8703,0.84235 27.0757,3.98358 26.7522,5.21457 26.3958,6.57446 3.7569,1.13434 -5.1498,31.350891 -6.0563,31.25402 -7.2225,31.6749 -1.684,6.31569 -20.7281,4.72846 -31.2538,6.05652 -23.5456,3.85409 -16.6474,-44.53282 -3.2387,-12.372 -1.0679,-7.54629 -0.067,-5.08489 0.4212,-3.88651 0.7445,-3.30334 0.9716,-3.07679 1.1658,-3.04457 1.3599,-3.01215 1.5222,-3.04437 1.62,-3.10901 5.2792,-9.74871 1.8136,-3.43302 1.7814,-3.562711 1.7165,-3.69219 1.6841,-3.85389 1.5223,-4.11326 1.4244,-4.34001 1.1657,-4.69624 z m -327.6313,1.23039 0.3881,2.29949 1.1987,4.69604 1.3929,4.34001 1.5538,4.11326 1.6517,3.8541 1.7489,3.69198 1.7814,3.562711 1.7811,3.43322 5.2793,9.74851 1.6516,3.10921 1.4908,3.04437 1.3597,3.01195 1.199,3.04457 0.9716,3.07679 0.7131,3.30354 0.4212,3.88652 -0.067,5.08468 -1.0365,7.54649 -3.2713,12.3718 -15.9992,42.88116 -13.4409,-2.20243 -31.2862,-6.05652 -31.2216,-7.12501 -5.7974,-25.39203 -6.0563,-31.25383 -5.0525,-30.83295 -1.1657,-8.064221 12.2101,-3.78945 26.3957,-6.57466 26.7845,-5.21437 z m -363.61395,5.2466 14.99551,12.95498 31.28624,23.481001 19.65912,12.8255 8.12926,26.75211 7.93494,25.16488 -1.68409,1.91084 -17.91039,25.19751 -16.03178,27.78838 -2.13738,4.69604 L 195.4028,26.459101 162.62679,0.41965104 130.36892,-28.308149 l -1.23039,-1.23039 11.72418,-28.75981 18.65528,-36.43598 z m 1052.20327,0.9386 20.3718,32.517041 18.6553,36.43598 7.1252,17.48912 -8.615,8.61517 -32.2581,28.72759 -32.776,26.03945 -15.6431,11.10899 -13.5055,-23.38373 -17.9104,-25.19751 -6.2185,-8.55033 3.1417,-9.32743 9.3276,-29.56974 4.8582,-15.96713 10.9468,-7.15764 31.2863,-23.48079 z m -1254.495171,18.460941 3.27111,1.06951 19.88587,5.82957 -2.81782,8.38843 -0.80912,3.27131 -12.53391,-4.14568 -6.99573,-1.16575 z m 1459.248671,3.2387 v 12.37201 l -18.3637,5.95945 -4.1779,-12.53411 6.6395,-1.10091 z m -442.76872,0.38804 9.0038,4.21053 2.81762,11.07657 7.1577,23.25405 8.356,22.4123 1.8136,3.95116 -20.72812,7.61092 -16.6794,5.247 -6.8984,1.84599 4.2101,-18.55821 6.0567,-31.25362 z m -571.6058,1.91104 1.0032,7.2547 5.0847,30.80053 6.0241,31.28624 1.2636,5.4087 -28.7924,-9.03604 -15.7729,-5.79735 5.0201,-11.07657 8.3884,-22.37968 6.7688,-21.95882 3.0446,-1.42431 z m -388.681991,6.50981 6.83382,0.292 14.28284,18.52538 30.37946,34.55757 11.59471,11.62712 -7.90252,25.61838 -9.45732,-12.8255 -13.24637,-16.35558 -13.21415,-14.6715 -13.31101,-12.85792 -12.89035,-10.55823 2.42918,-9.91061 z m 1336.435611,0.0324 7.028,0.61519 3.4332,-0.16616 7.6757,22.8656 -8.9065,5.86219 -13.4407,10.97911 -13.3114,12.85792 -13.214,14.67149 -13.2466,16.35579 -1.8459,2.55865004 -5.8298,-18.88202004 -1.7812,-4.40465 3.692,-3.69219 30.3795,-34.55736 z m -326.433,17.84554 19.6267,13.2788 6.7043,5.37628 -6.4776,3.20627 -10.0725,4.27517 -0.7777,-1.68409 -8.3884,-22.37968 z m -674.08002,1.52219 -4.7609,12.72824 -4.1781,9.26279 -14.8982,-6.34791 19.6915,-13.31141 z m 337.5096,9.78093 3.9837,4.59918 5.3115,4.43686 5.2468,3.33617 5.0847,2.42897 4.8581,1.78115 4.6314,1.32826 4.4695,0.9386 4.34,0.71307 4.1779,0.48592 4.0484,0.35643 3.9838,0.25876 3.8863,0.13171 12.275,0.38805 -3.2063,17.52174 -6.8338,29.73164 -3.1415,10.91446 -47.7715,5.02005 -58.3948,-6.12137 -6.7687,-29.34298 -5.0525,-27.8206 10.8498,-0.292 3.8863,-0.13171 3.9514,-0.25876 4.0808,-0.35644 4.1779,-0.48591 4.3076,-0.71307 4.4695,-0.9386 4.6638,-1.32826 4.8582,-1.78116 5.0849,-2.42897 5.2465,-3.33616 5.3117,-4.43687 z m -729.624351,4.98763 4.04841,0.67983 7.61113,3.78946 -4.08084,16.58233 -0.77771,4.98762 -6.8016,-10.07252 z m 1459.248671,2.39675 v 8.29136 l -6.866,10.10474 -3.6598,-14.93066 z m -40.0633,21.0194 4.4048,18.00745 2.5909,16.29094 -16.1937,21.44048 -28.9219,34.55736 -16.0642,17.48912 -1.199,-9.61882 -6.4127,-30.02323 5.8298,-8.45328 4.8259,-6.50981 13.2141,-16.35558 13.214,-14.67149 13.3112,-12.89014 z m -1079.02002,0.0669 4.9552,2.46159 23.481,10.00768 -2.1376,3.88651 -12.7607,19.27047 -14.4449,17.97504 -4.3722,4.46949 -7.7082,-21.40806 -6.0563,-18.16956 0.4526,-0.51732 z m -299.583891,1.13434 2.20242,1.78115 13.31101,12.89014 13.21436,14.63928 13.21395,16.388 13.31121,17.97503 5.99168,8.61498 -3.07679,14.47737 -3.04457,24.54969 -26.20116,-28.53327 -28.92211,-34.55756 -6.80141,-8.97121 5.18196,-32.64652 z m 1078.469711,0.90699 9.9426,9.61902 8.1617,9.45712 -1.8136,5.34386 -11.1414,31.0597 -0.8423,2.10516 -12.048,-12.30716 -8.3885,-10.46117 -6.8338,-10.33169 -6.1212,-11.17363 15.4813,-6.60707 z m -484.93722,4.72846 4.3396,23.83723 3.5302,15.25447 -17.7805,-2.20243 3.595,-11.5947 z m 192.3812,0.48591 1.6841,8.61498 6.5423,26.39588 0.8423,2.65572 -13.1815,1.62006 -4.4371,0.51732 6.1536,-26.62243 z m -427.3847,16.93856 10.9793,4.01600004 19.3678,6.31568996 32.2903,10.13716 4.923,1.32826 6.1212,22.83318 10.1695,32.25788 5.6679,15.48121 -14.1858,7.77303 -19.238,12.760659 -18.0075,14.44475 -14.6067,14.28284 -1.587,-0.64843 -32.2255,-13.69986 -19.3029,-9.03605 -5.0846,-10.8174 -13.6999,-32.225649 -3.077,-7.83767 11.0117,-11.2707 14.445,-18.00745 11.9831,-16.48527 12.7609,-19.27047 z m 660.54182,3.30354 5.0849,9.23038 12.7609,19.27047 14.4445,18.00745 16.2263,16.58253 2.2995,1.91064 -12.3074,28.92211 -11.5947,24.744019 -24.7764,11.5947 -25.7803,10.9793 -6.0241,-7.25469 -16.61472,-16.2263 -18.0075,-14.44475 -19.2704,-12.760459 -5.3765,-2.9473 8.8743,-24.19346 10.1374,-32.2903 2.6233,-9.68386 15.8698,-4.27517 32.25772,-10.13716 z m 253.4967,4.34001 9.5219,30.86518 -0.8739,1.23039 -13.8296,20.92234 -14.3152,22.28262 -11.1737,17.71586 -17.1975,-0.80912 -27.8534,-4.27516 -6.0239,-1.58703 -3.66,-10.6555 -2.0403,-4.46929 20.6956,-14.70391 32.7762,-26.03965 32.2252,-28.72759 z m -1167.34062,1.39291 25.58596,22.76813 32.77621,26.03945 28.85727,20.50126 -6.28326,18.10472 -22.05588,3.4008 -29.73164,1.39291 -0.97183,-0.0669 -5.08469,-8.0322 -14.31526,-22.28262 -13.86197,-20.95456 -4.21033,-6.0241 3.33576,-15.44879 z m 150.6987,15.51343 10.4612,29.14867 1.6841,4.27516 -3.7246,3.10922 -18.71974,12.43684 -12.0484,-7.67576 5.86219,-12.89035 16.03195,-27.75596 z m 864.64772,3.36838 5.3437,7.44902 16.0319,27.78839 1.7812,3.95135 -9.2304,5.862 -9.4571,-4.89037 -15.5783,-10.36411 5.506,-14.21799 z m -657.85382,3.33576 22.0881,5.05247 31.2864,6.0241 1.846,0.3234 -9.2628,24.80866 -10.5582,3.43302 -20.0802,7.51406 -4.3076,-11.69197 -10.1371,-32.29009 z m 452.0638,2.55866 -7.1252,22.70369 -7.19,19.52944 -6.8014,-3.07679 -22.3795,-8.38823 -3.3362,-1.03627 -7.1898,-19.23825 11.9509,-1.97568 31.2538,-6.0241 z m -380.0342,11.5947 4.3722,0.71307 -1.1341,2.97953 -5.0202,10.72033 -13.5702,4.17791 z m 309.8506,1.55542 10.429,12.63097 -7.0282,-2.17 -5.8946,-1.48916 -3.1414,-8.12906 2.9471,-0.38804 z m 547.47732,6.8012 1.0365,14.18578 -20.6308,9.68366 16.3234,-19.49721 z M 0.46284896,55.999041 9.336999,66.622121 0.00935896,62.249891 Z m 706.33783104,3.95116 26.1365,2.91509 8.1941,1.00324 -2.2024,6.41275 -12.2747,29.31056 -14.4448,28.954339 -12.113,20.53369 -6.089,-10.36391 -14.4445,-28.92211 -12.2749,-29.342989 -5.3117,-15.25447 18.7201,-2.33171 z m 67.722,8.38843 11.4653,1.65167 25.5535,4.40465 19.3031,4.0162 5.2144,11.17342 13.5703,24.096399 15.7078,23.22183 11.692,14.50959 -17.0358,30.05545 -7.5463,11.49764 -37.7637,11.20605 -25.8777,7.87009 -24.8735,7.90251 -7.7406,2.52624 -16.3558,-17.16531 -18.0397,-22.18535 -3.0121,-4.34001 8.0322,-11.62713 16.7442,-28.4362 14.445,-28.92192 12.2747,-29.342979 z m -145.8405,1.52218 7.2547,20.79286 12.2747,29.310769 14.445,28.95413 16.7442,28.43621 0.9716,1.42451 -4.1455,5.92683 -21.8291,26.8816 -7.19,7.57871 -22.3797,-7.12521 -25.91,-7.8703 -54.7996,-16.25852 -16.1936,-28.50084 -4.5992,-9.29522 5.5708,-6.93088 11.9834,-16.48527 15.7077,-23.22183 12.275,-21.796699 8.3884,-2.10517 24.841,-5.18195 25.5215,-4.40485 z m 675.18112,7.61113 0.4211,1.87862 1.7489,14.18537 -7.7082,1.19899 -5.6679,0.35663 4.2104,-6.67192 z m -1203.77658,6.67192 5.86199,9.13311 -6.866041,-1.06788 z m 1009.16028,0 5.3438,3.5625 -9.1007,5.21438 z m -816.19602,0.93839 2.2349,5.27922 -5.4736,-3.10921 z m 580.2859,4.82593 13.376,4.98763 14.1532,6.444969 -6.5744,15.41657 -1.6517,3.30334 -2.7854,-3.46544 -8.8742,-13.11689 z m -349.2985,5.11711 -14.5096,21.505119 -1.3283,1.65166 -6.1858,-14.47717 5.5058,-2.49381 z m -526.134181,1.3929 30.24977,10.914669 19.36773,6.28306 5.0849,1.29504 11.36795,11.33553 -1.10111,31.96669 v 20.37158 l 2.10516,38.34662 -8.45307,-2.75278 -48.84041,-20.98719 -5.27901,-2.85004 -3.78925,-38.02281 z m 1410.149301,1.39291 0.099,1.10111 -0.5505,43.237379 -4.8256,48.58104 -16.2263,8.77708 -45.9899,19.75639 2.7852,-50.84831 -1.6185,-47.2856 1.1342,-1.13434 0.4859,-0.51733 22.7361,-5.86219 35.8852,-12.92256 z m -258.0954,7.416599 13.9915,5.4089 13.311,4.30739 2.3319,6.8014 8.6152,35.52919 4.8257,33.26172 -10.9147,16.03178 -14.3153,20.11261 -20.1124,14.31527 -8.0646,5.47354 -4.2427,-0.19453 -37.9906,-5.50596 -34.9136,-8.45287 -8.9712,-23.22183 -3.757,-7.25489 19.238,-33.48868 13.862,-26.78433 2.8176,-1.32826 33.003,-17.06825 z m -892.95423,1.00486 18.55801,10.62327 32.9703,17.06805 7.935,3.69219 3.6922,7.93493 17.0682,33.00276 13.9264,24.29052 -7.708,19.98313 -3.2064,12.14526 -23.9992,5.79735 -38.0228,5.50596 -13.635,0.67984 -18.03988,-12.27494 -19.62691,-13.95883 -2.81762,-3.98378 -12.27474,-18.00726 0.67984,-13.66764 5.50576,-37.99059 6.96351,-28.72759 5.27901,-1.3929 23.93429,-9.2628 z m 672.97861,10.52601 17.8454,11.78903 18.0074,14.47717 9.8136,9.5866 -5.9268,2.29969 -31.0597,11.14121 -0.7777,0.25856 -14.9953,-12.92256 -6.8014,-7.02815 9.5541,-19.39995 z m -457.4403,1.58703 8.0322,18.78475 4.2428,8.61498 -13.4731,13.95903 -4.4695,3.8541 -11.3032,-3.82188 -27.6915,-9.91041 0.5173,-0.51732 18.0075,-14.44495 19.2707,-12.76066 z m 741.57542,6.21842 20.1126,3.07679 -14.2506,22.21778 -0.4211,-2.7854 z m -1024.86838,1.58683 -2.6233,10.72034 -2.7854,19.43237 -12.59875,-19.65912 -5.11711,-8.06442 10.39632,-0.48591 z m -77.30883,1.03647 3.33596,0.55056 12.95498,0.71306 11.65955,18.39611 7.64335,11.95093 -17.26258,-14.76855 z m 1175.98821,1.13414 -23.9667,22.02365 -14.1534,12.08042 16.5175,-25.78048 4.6964,-7.38438 z m 23.1245,23.22183 0.486,14.50959 -2.4939,45.53687 -2.7207,18.91424 -43.3667,9.94283 -36.7273,4.95541 0.8423,-19.98313 -0.067,-1.74894 26.6873,-21.31099 29.6668,-25.32699 z m -1216.375281,4.27516 16.193881,14.89825 29.6668,25.35941 29.37541,23.41615 9.23037,6.93089 v 9.19795 l 0.35664,8.71244 -28.85748,-3.88672 -46.34639,-10.6555 -6.283071,-2.04032 -0.87375,-5.95925 -2.91489,-53.37454 z m 268.945461,2.94731 9.7811,4.17791 -4.2429,6.38053 -0.5836,-0.97183 z m 671.03542,4.56656 -3.8541,6.73676 -1.9757,-2.94751 -0.7129,-1.00324 z m -630.61592,11.53006 1.0695,0.42107 31.0596,11.14141 1.6201,0.55056 -14.3477,10.202 -27.7887,16.03178 -0.4527,0.22715 -7.3841,-11.5945 7.6109,-14.70392 6.3803,-9.5868 z m 495.9489,1.55359 1.6517,1.71672 -3.2065,1.00324 z m 98.0045,1.71672 12.79302,19.20562 1.7812,3.46565 -6.186,9.68366 -7.83772,-3.5625 -27.7559,-16.03178 -2.5587,-1.81377 20.8899,-7.48144 z m -522.5067,21.37563 10.3964,3.36838 29.5697,9.32764 7.7406,2.3317 12.5017,19.14119 23.4808,31.28625 15.3515,17.81292 -2.4938,1.87862 -33.3914,20.88972 -36.4358,18.68749 -13.6674,5.5708 -13.4409,-13.37605 -28.7276,-32.25788 -23.5132,-29.60215 -9.7812,-13.79713 1.9757,-0.87376 27.756,-16.03177 25.2299,-17.9104 z m 454.2987,2.68814 21.6348,15.38395 27.756,15.99956 8.939,4.08084 -14.218,20.04777 -26.0395,32.77621 -28.7278,32.22546 -4.4695,4.43707 -22.6388,-9.23038 -36.436,-18.65527 -29.019,-18.16936 8.4855,-9.81335 23.481,-31.28624 11.9832,-16.48527 2.3643,-3.65977 25.2623,-7.64334 29.5696,-9.32764 z m -230.3394,3.91893 20.9869,25.87755 1.8138,1.87862 -1.4575,0.48571 -15.773,5.92704 -8.9712,-3.75704 -15.967,-5.99167 15.5461,-19.14079 z m -692.184531,21.92619 29.86113,12.8255 31.44815,10.26685 5.24679,36.33871 8.80951,37.11602 -11.98356,-3.98378 -6.83362,-9.65144 -11.98336,-16.48507 -15.28689,-20.88992 -27.72354,-37.27792 z m 564.351231,1.00486 27.3026,8.09684 23.2541,7.06057 -19.7564,17.6188 -2.17,1.62006 -21.6995,-25.13287 z m 822.05812,2.39675 -1.9434,2.6233 -34.0391,45.82846 -15.2869,20.85729 -13.9914,19.69175 -4.2103,6.25064 -3.8541,1.26363 12.0482,-50.6864 3.3357,-23.12457 21.3758,-6.99572 z m 37.4074,2.10517 v 112.51401 l -8.4855,-7.31974 -9.943,-5.2466 -6.6717,-1.78135 14.5096,-51.62561 8.1292,-43.17233 z m -607.94482,1.10091 -7.449,9.94303 -15.125,17.48932 -8.7445,-6.54223 -9.4897,-8.45328 6.4776,-2.07274 25.8777,-7.87009 z m -851.303851,4.43727 5.70008,7.77283 8.19411,43.4317 12.372,44.14397 -16.54991,5.37648 -9.71628,5.11711 z m 1045.920171,11.20605 17.1005,5.92684 3.433,12.89034 4.2428,27.85302 0.5838,12.37201 -23.74,15.02792 -22.28262,14.28285 -15.2869,10.13716 -7.773,-1.68409 -26.2662,-8.06462 19.4648,-21.86155 26.0396,-32.77601 11.98322,-16.48527 z m -633.88712,3.75683 17.1006,24.03155 26.0396,32.77601 28.0475,31.48057 -15.4812,4.76109 -15.4166,3.30353 -6.0563,-4.1779 -20.9546,-13.86197 -22.2826,-14.31526 -12.3074,-7.77304 1.1011,-23.51321 4.1779,-27.17298 z m 273.1557,1.81378 6.2509,2.3319 -6.6395,3.14164 -11.3356,6.1858 3.9188,-3.46524 z m 89.3246,3.07679 2.5587,2.29948 -3.5627,-1.97547 z m -643.31185,3.43302 1.26362,0.38804 46.34639,10.6555 30.2824,4.08104 0.0324,0.74448 6.0241,44.59746 7.35196,31.93406 -8.32359,-1.16575 -57.26105,-13.6028 -9.16553,-3.04437 -0.80932,-2.42897 -13.6026,-57.26126 z m 1198.33567,2.23464 -0.3567,2.49382 -13.5703,57.22863 -5.4734,16.35579 -54.3786,12.92256 -18.3637,2.65592 10.0077,-43.62603 4.599,-33.94197 39.1241,-5.27922 z m -230.4369,2.72056 26.4605,6.41275 1.1657,0.16616 -5.1819,3.43302 -19.3353,12.37201 -0.1338,-2.94731 z m -737.55912,2.26727 -1.0695,6.99573 -0.6484,14.12073 -5.0203,-3.17385 -19.4646,-12.46927 9.0683,-1.32826 z m 370.8686,5.47334 13.959,6.6395 18.7846,10.29927 17.3596,11.1412 3.9189,2.97973 -30.5413,26.49275 -26.3633,19.6269 -34.849,-25.94239 -22.5091,-19.52964 13.2462,-8.48549 18.7849,-10.29906 20.1126,-9.55439 z m -490.28127,5.18216 18.26662,0.77771 2.36413,3.14143 23.44878,29.37541 25.32674,29.667 19.3678,21.05182 -7.8701,0.29179 -53.34233,-2.94731 -12.24232,-1.74893 -0.2918,-0.84235 -10.65549,-46.37881 z m 976.87009,0.35643 -2.9797,21.86135 -10.6229,46.34659 -4.1456,12.66339 -0.9717,0.13171 -53.3745,2.94752 -21.0518,-0.71307 13.1817,-14.31547 25.327,-29.6668 23.4484,-29.40783 7.2224,-9.65144 8.9066,0.45268 z m 189.078,22.15294 -8.4857,30.24977 -7.9996,2.10516 -8.5827,2.7854 4.9554,-7.28711 10.6231,-14.96288 6.6717,-9.06867 z m -1086.95492,2.29948 14.2826,9.16574 23.805,15.06014 1.0695,19.0115 -1.9757,-1.97567 -27.3673,-29.79649 z m 518.6201,5.44112 24.6143,15.4488 36.436,18.65507 17.4245,7.09279 -2.4938,2.49402 -33.2619,29.24592 -0.292,-1.42451 -6.5098,-17.74829 -8.6152,-16.5499 -10.6231,-15.38396 -11.9831,-16.48527 z m 289.70572,0.84235 -9.8136,11.49764 -17.5863,19.14099 0.7444,-13.66744 12.3396,-7.80566 z m -1075.068881,1.29504 6.25064,8.51791 8.09684,11.40037 -4.04842,-1.0695 -5.18195,-0.61519 z m 556.448661,4.14568 -4.6962,5.37608 -10.623,15.35193 -8.6474,16.54991 -6.4776,17.78071 -2.8176,12.76066 -8.1617,-6.31569 -27.497,-24.19326 7.8703,-3.17405 36.4358,-18.68749 z m 200.6724,10.55823 1.0681,0.97163 12.5015,14.218 10.6231,15.35173 8.6152,16.54991 6.4774,17.78071 2.9797,13.50574 -9.9753,7.70819 -32.6143,-13.95903 -42.136,-22.15294 -9.7161,-6.15378 15.9345,-11.85367 32.3873,-28.1124 z m -165.6616,0.0669 29.4725,25.58596 25.068,18.68749 -18.882,11.91871 -42.1036,22.15294 -21.1815,9.06847 -11.1737,-7.51387 0.5174,-6.31548 4.1781,-18.97909 6.5098,-17.74828 8.6151,-16.54991 1.3599,-1.94346 9.781,-11.14101 z m 422.59132,22.67127 -1.4245,9.16553 -10.785,-1.32826 z m -675.86112,0.38784 13.1493,8.42085 -11.5947,1.42432 z m -340.651261,12.46927 12.76066,1.52219 4.0162,1.06788 4.85814,1.87841 15.48102,7.51407 11.72419,6.57465 6.60707,11.72419 7.48164,15.51364 5.63545,14.57423 3.59493,13.63522 0.64843,5.27902 -2.6235,9.91061 -5.2466,9.94283 -7.67597,8.87435 -10.13715,7.70798 -11.04415,5.57081 -9.91062,1.87842 h -73.42231 l -1.81357,-0.19453 -2.13758,-0.35643 -0.71307,-7.38438 v -60.33785 l 3.20627,-16.80908 4.98763,-15.28689 4.04842,-7.99958 6.93109,-6.02409 9.94282996,-5.2468 10.91446004,-2.88247 z m 1366.135081,0 9.6188,0.51733 3.7246,1.97568 8.8419,7.64334 7.7082,10.16978 6.4128,12.6634 4.8903,14.96288 v 75.23609 h -67.3982 l -12.3396,-2.36413 -15.2869,-4.98783 -12.6958,-6.41255 -9.6514,-7.31974 -1.4245,-2.68814 -2.8825,-10.91446 -0.6484,-11.88629 1.5223,-12.76066 3.6274,-13.66744 5.603,-14.57444 6.3481,-13.08446 7.5137,-4.24275 15.4814,-7.48144 14.5742,-5.63545 13.6675,-3.62734 z m -466.41192,1.42432 8.0322,2.62329 16.8415,5.18216 -9.6838,7.18985 -16.3558,13.21415 -14.6715,13.21395 -12.8902,13.34384 -10.9793,13.44069 -2.4289,3.69219 -4.1457,-1.00324 -17.6837,-5.92703 0.3567,-8.16148 v -0.25877 l 12.5015,-9.65144 34.5573,-30.41168 z m -443.2219,3.17385 7.0604,7.02815 34.5573,30.41188 24.4527,18.88182 0.032,7.87029 -12.0804,4.04842 -14.3477,3.53008 -9.4573,-13.05204 -10.9793,-13.4409 -12.8902,-13.31121 -14.6715,-13.21416 -14.4771,-11.72418 z m -348.3919,6.1862 54.15185,12.8253 18.16935,2.65572 9.06847,27.75616 14.18558,33.0676 -0.84235,-0.16616 -7.5787,-5.53838 -45.79584,-34.03923 -20.88972,-15.31932 -17.52174,-12.43664 z m 1138.15952,2.7852 -2.1698,6.44518 v 0.0669 l -6.2833,4.27496 -19.6591,13.99145 -20.8899,15.2869 -47.3829,35.17276 19.3353,-44.95389 5.2144,-15.96694 29.4078,-4.27516 z m -280.54002,6.89847 30.02332,6.41275 5.9917,0.74447 -23.06,21.21393 -34.55732,28.92192 -14.7039,11.10899 -24.0316,-3.82188 -13.8618,-3.40039 11.7242,-12.11304 14.6715,-13.21415 16.3558,-13.21395 18.0072,-13.34364 z m -573.1928,1.68429 1.9109,1.32826 17.9748,13.34364 16.3882,13.21415 14.6715,13.21395 12.8577,13.31142 6.51,7.96735 -2.1376,0.51733 -33.1324,5.24679 -24.9706,-18.84939 -34.5576,-28.8897 -14.7363,-13.57018 17.0682,-2.10536 z m 285.8189,6.6395 19.4001,12.24232 42.1361,22.18535 20.145,8.61518 -9.3276,6.25064 -44.144,25.35942 -26.6872,12.92276 -39.7071,-19.20603 -41.8123,-24.03135 8.4855,-3.62755 42.1363,-22.15273 z m -461.52104,2.75278 0.9386,0.13171 53.34214,2.91489 39.0268,-1.32827 6.51,6.54223 0.5174,0.45269 5.8622,22.76833 12.5663,34.81653 -48.4193,-0.61519 -45.31,-4.50172 -21.01956,-48.87282 z m 921.48766,0.67983 -0.4529,1.42452 -20.9869,48.8402 -6.2509,11.56228 -31.7073,3.17386 -60.5322,0.77771 4.3725,-9.29522 12.9225,-35.88522 4.3076,-16.64717 3.3682,-3.40081 0.68,0.0669 50.9454,1.74893 z m 117.2427,19.98314 -0.388,1.42431 -1.4246,11.91871 -27.4967,7.70819 11.2709,-8.25874 z m -1155.03362,0.35643 8.68002,6.15358 13.14931,9.61923 -19.04393,-5.34386 z m 888.84092,30.21755 -5.9268,12.6636 -8.48552,-0.6152 z m -624.04112,0.38805 14.8982,12.46927 -9.3274,0.68004 -3.5627,-7.61113 z m 431.8542,3.46564 3.4978,1.16575 -0.6798,3.91894 -6.866,23.35131 -3.4008,8.09684 h -51.6905 l 32.0638,-18.3961 z m -235.133,2.07274 14.5744,9.78093 43.0107,24.67917 h -54.6702 l -6.2506,-21.24615 -1.9433,-11.40038 4.6314,-1.55379 z m -459.54532,7.02815 56.93704,15.99935 28.8897,5.44092 8.16168,5.99168 H 109.99713 l 10.0401,-13.82935 5.2468,-9.94283 z m 729.49482,2.55846 10.6231,3.46564 -3.1739,9.55418 -1.911,11.85367 h -12.4042 l 6.2506,-21.24615 z m 422.26752,0.0993 v 0.29179 l 2.9149,10.91466 5.2467,9.91062 3.1415,3.65956 h -106.7489 l 4.4371,-3.23869 43.4315,-8.1939 z m -728.81462,2.59107 1.8785,11.14121 3.2711,11.04415 h -11.0764 l -0.292,-1.65167 -4.6638,-14.15315 -1.1656,-2.33191 z m 349.0394,9.45712 18.817,4.6314 -11.9832,8.09684 h -10.7849 l 0.2917,-1.65167 z m -393.5073,2.6235 2.2022,4.46929 1.8786,5.63545 h -10.3315 l -9.3276,-6.28306 z"
     id="path4-9-2"
     inkscape:connector-curvature="0" />
  <circle
     style="color:#000000;clip-rule:nonzero;display:inline;overflow:visible;visibility:visible;opacity:1;isolation:auto;mix-blend-mode:normal;color-interpolation:sRGB;color-interpolation-filters:linearRGB;solid-color:#000000;solid-opacity:1;fill:none;fill-opacity:1;fill-rule:evenodd;stroke:#0000ff;stroke-width:0.5;stroke-linecap:butt;stroke-linejoin:miter;stroke-miterlimit:4;stroke-dasharray:none;stroke-dashoffset:0;stroke-opacity:1;color-rendering:auto;image-rendering:auto;shape-rendering:auto;text-rendering:auto;enable-background:accumulate"
     id="path814"
     cx="701.45667"
     cy="-243.54324"
     r="1.6397637" />
</svg>
