<?xml version="1.0" encoding="UTF-8" standalone="no"?>
<!-- Created with Inkscape (http://www.inkscape.org/) -->

<svg
   xmlns:dc="http://purl.org/dc/elements/1.1/"
   xmlns:cc="http://creativecommons.org/ns#"
   xmlns:rdf="http://www.w3.org/1999/02/22-rdf-syntax-ns#"
   xmlns:svg="http://www.w3.org/2000/svg"
   xmlns="http://www.w3.org/2000/svg"
   xmlns:sodipodi="http://sodipodi.sourceforge.net/DTD/sodipodi-0.dtd"
   xmlns:inkscape="http://www.inkscape.org/namespaces/inkscape"
   sodipodi:docname="Pianos_keyboard--hatch-1.3.svg"
   inkscape:version="0.91 r13725"
   sodipodi:version="0.32"
   id="svg2"
   height="1000"
   width="3200"
   version="1.0">
  <sodipodi:namedview
     inkscape:window-maximized="1"
     fit-margin-bottom="0"
     fit-margin-right="0"
     fit-margin-left="0"
     fit-margin-top="0"
     showgrid="false"
     width="1250px"
     height="152px"
     inkscape:current-layer="g4220"
     inkscape:window-y="25"
     inkscape:window-x="1600"
     inkscape:cy="768.69249"
     inkscape:cx="1648.3452"
     inkscape:zoom="0.31921939"
     id="base"
     pagecolor="#ffffff"
     bordercolor="#666666"
     borderopacity="1.0"
     objecttolerance="10.0"
     gridtolerance="10.0"
     guidetolerance="10.0"
     inkscape:pageopacity="0.0"
     inkscape:pageshadow="2"
     inkscape:window-width="1920"
     inkscape:window-height="1029" />
  <metadata
     id="metadata3286">
    <rdf:RDF>
      <cc:Work
         rdf:about="">
        <dc:format>image/svg+xml</dc:format>
        <dc:type
           rdf:resource="http://purl.org/dc/dcmitype/StillImage" />
        <dc:title></dc:title>
      </cc:Work>
    </rdf:RDF>
  </metadata>
  <defs
     id="defs4" />
  <g
     id="g4220"
     transform="matrix(3.8096313,0,0,3.8096313,-182.8623,214.3681)">
    <g
       id="g9942"
       transform="matrix(1,0,0,-1,0,149.95252)">
      <rect
         width="23"
         height="149"
         rx="2.4000001"
         ry="4.8000002"
         x="48.488129"
         y="0.48812881"
         style="fill:#ffffff;fill-opacity:1;stroke:#000000;stroke-width:0.97625762;stroke-opacity:1"
         id="use3185" />
      <rect
         width="23"
         height="149"
         rx="2.4000001"
         ry="4.8000002"
         x="72.488129"
         y="0.48812881"
         style="fill:#ffffff;fill-opacity:1;stroke:#000000;stroke-width:0.97625762;stroke-opacity:1"
         id="use3187" />
      <rect
         width="23"
         height="149"
         rx="2.4000001"
         ry="4.8000002"
         x="96.488129"
         y="0.48812881"
         style="fill:#ffffff;fill-opacity:1;stroke:#000000;stroke-width:0.97625762;stroke-opacity:1"
         id="use3189" />
      <rect
         width="23"
         height="149"
         rx="2.4000001"
         ry="4.8000002"
         x="120.48813"
         y="0.48812881"
         style="fill:#ffffff;fill-opacity:1;stroke:#000000;stroke-width:0.97625762;stroke-opacity:1"
         id="use3191" />
      <rect
         width="23"
         height="149"
         rx="2.4000001"
         ry="4.8000002"
         x="144.48813"
         y="0.48812881"
         style="fill:#ffffff;fill-opacity:1;stroke:#000000;stroke-width:0.97625762;stroke-opacity:1"
         id="use3193" />
      <rect
         width="23"
         height="149"
         rx="2.4000001"
         ry="4.8000002"
         x="168.48813"
         y="0.48812881"
         style="fill:#ffffff;fill-opacity:1;stroke:#000000;stroke-width:0.97625762;stroke-opacity:1"
         id="use3195" />
      <rect
         width="23"
         height="149"
         rx="2.4000001"
         ry="4.8000002"
         x="192.48813"
         y="0.48812881"
         style="fill:#ffffff;fill-opacity:1;stroke:#000000;stroke-width:0.97625762;stroke-opacity:1"
         id="use3197" />
      <rect
         width="23"
         height="149"
         rx="2.4000001"
         ry="4.8000002"
         x="216.48813"
         y="0.48812881"
         style="fill:#ffffff;fill-opacity:1;stroke:#000000;stroke-width:0.97625762;stroke-opacity:1"
         id="use3199" />
      <rect
         width="23"
         height="149"
         rx="2.4000001"
         ry="4.8000002"
         x="240.48813"
         y="0.48812881"
         style="fill:#ffffff;fill-opacity:1;stroke:#000000;stroke-width:0.97625762;stroke-opacity:1"
         id="use3201" />
      <rect
         width="23"
         height="149"
         rx="2.4000001"
         ry="4.8000002"
         x="264.48813"
         y="0.48812881"
         style="fill:#ffffff;fill-opacity:1;stroke:#000000;stroke-width:0.97625762;stroke-opacity:1"
         id="use3203" />
      <rect
         width="23"
         height="149"
         rx="2.4000001"
         ry="4.8000002"
         x="288.48813"
         y="0.48812881"
         style="fill:#ffffff;fill-opacity:1;stroke:#000000;stroke-width:0.97625762;stroke-opacity:1"
         id="use3205" />
      <rect
         width="23"
         height="149"
         rx="2.4000001"
         ry="4.8000002"
         x="312.48813"
         y="0.48812881"
         style="fill:#ffffff;fill-opacity:1;stroke:#000000;stroke-width:0.97625762;stroke-opacity:1"
         id="use3207" />
      <rect
         width="23"
         height="149"
         rx="2.4000001"
         ry="4.8000002"
         x="336.48813"
         y="0.48812881"
         style="fill:#ffffff;fill-opacity:1;stroke:#000000;stroke-width:0.97625762;stroke-opacity:1"
         id="use3209" />
      <rect
         width="23"
         height="149"
         rx="2.4000001"
         ry="4.8000002"
         x="360.48813"
         y="0.48812881"
         style="fill:#ffffff;fill-opacity:1;stroke:#000000;stroke-width:0.97625762;stroke-opacity:1"
         id="use3211" />
      <rect
         width="23"
         height="149"
         rx="2.4000001"
         ry="4.8000002"
         x="384.48813"
         y="0.48812881"
         style="fill:#ffffff;fill-opacity:1;stroke:#000000;stroke-width:0.97625762;stroke-opacity:1"
         id="use3213" />
      <rect
         width="23"
         height="149"
         rx="2.4000001"
         ry="4.8000002"
         x="408.48813"
         y="0.48812881"
         style="fill:#ffffff;fill-opacity:1;stroke:#000000;stroke-width:0.97625762;stroke-opacity:1"
         id="use3215" />
      <rect
         width="23"
         height="149"
         rx="2.4000001"
         ry="4.8000002"
         x="432.48813"
         y="0.48812881"
         style="fill:#ffffff;fill-opacity:1;stroke:#000000;stroke-width:0.97625762;stroke-opacity:1"
         id="use3217" />
      <rect
         width="23"
         height="149"
         rx="2.4000001"
         ry="4.8000002"
         x="456.48813"
         y="0.48812881"
         style="fill:#ffffff;fill-opacity:1;stroke:#000000;stroke-width:0.97625762;stroke-opacity:1"
         id="use3219" />
      <rect
         width="23"
         height="149"
         rx="2.4000001"
         ry="4.8000002"
         x="480.48813"
         y="0.48812881"
         style="fill:#ffffff;fill-opacity:1;stroke:#000000;stroke-width:0.97625762;stroke-opacity:1"
         id="use3221" />
      <rect
         width="23"
         height="149"
         rx="2.4000001"
         ry="4.8000002"
         x="504.48813"
         y="0.48812881"
         style="fill:#ffffff;fill-opacity:1;stroke:#000000;stroke-width:0.97625762;stroke-opacity:1"
         id="use3223" />
      <rect
         width="23"
         height="149"
         rx="2.4000001"
         ry="4.8000002"
         x="528.48816"
         y="0.48812881"
         style="fill:#ffffff;fill-opacity:1;stroke:#000000;stroke-width:0.97625762;stroke-opacity:1"
         id="use3225" />
      <rect
         width="23"
         height="149"
         rx="2.4000001"
         ry="4.8000002"
         x="552.48816"
         y="0.48812881"
         style="fill:#ffffff;fill-opacity:1;stroke:#000000;stroke-width:0.97625762;stroke-opacity:1"
         id="use3227" />
      <rect
         width="23"
         height="149"
         rx="2.4000001"
         ry="4.8000002"
         x="576.48816"
         y="0.48812881"
         style="fill:#ffffff;fill-opacity:1;stroke:#000000;stroke-width:0.97625762;stroke-opacity:1"
         id="use3229" />
      <rect
         width="23"
         height="149"
         rx="2.4000001"
         ry="4.8000002"
         x="600.48816"
         y="0.48812881"
         style="fill:#ffffff;fill-opacity:1;stroke:#000000;stroke-width:0.97625762;stroke-opacity:1"
         id="use3231" />
      <rect
         width="23"
         height="149"
         rx="2.4000001"
         ry="4.8000002"
         x="624.48816"
         y="0.48812881"
         style="fill:#ffffff;fill-opacity:1;stroke:#000000;stroke-width:0.97625762;stroke-opacity:1"
         id="use3233" />
      <rect
         width="23"
         height="149"
         rx="2.4000001"
         ry="4.8000002"
         x="648.48816"
         y="0.48812881"
         style="fill:#ffffff;fill-opacity:1;stroke:#000000;stroke-width:0.97625762;stroke-opacity:1"
         id="use3235" />
      <rect
         width="23"
         height="149"
         rx="2.4000001"
         ry="4.8000002"
         x="672.48816"
         y="0.48812881"
         style="fill:#ffffff;fill-opacity:1;stroke:#000000;stroke-width:0.97625762;stroke-opacity:1"
         id="use3237" />
      <rect
         width="23"
         height="149"
         rx="2.4000001"
         ry="4.8000002"
         x="696.48816"
         y="0.48812881"
         style="fill:#ffffff;fill-opacity:1;stroke:#000000;stroke-width:0.97625762;stroke-opacity:1"
         id="use3239" />
      <rect
         width="23"
         height="149"
         rx="2.4000001"
         ry="4.8000002"
         x="720.48816"
         y="0.48812881"
         style="fill:#ffffff;fill-opacity:1;stroke:#000000;stroke-width:0.97625762;stroke-opacity:1"
         id="use3241" />
      <rect
         width="23"
         height="149"
         rx="2.4000001"
         ry="4.8000002"
         x="744.48816"
         y="0.48812881"
         style="fill:#ffffff;fill-opacity:1;stroke:#000000;stroke-width:0.97625762;stroke-opacity:1"
         id="use3243" />
      <rect
         width="23"
         height="149"
         rx="2.4000001"
         ry="4.8000002"
         x="768.48816"
         y="0.48812881"
         style="fill:#ffffff;fill-opacity:1;stroke:#000000;stroke-width:0.97625762;stroke-opacity:1"
         id="use3245" />
      <rect
         width="23"
         height="149"
         rx="2.4000001"
         ry="4.8000002"
         x="792.48816"
         y="0.48812881"
         style="fill:#ffffff;fill-opacity:1;stroke:#000000;stroke-width:0.97625762;stroke-opacity:1"
         id="use3247" />
      <rect
         width="23"
         height="149"
         rx="2.4000001"
         ry="4.8000002"
         x="816.48816"
         y="0.48812881"
         style="fill:#ffffff;fill-opacity:1;stroke:#000000;stroke-width:0.97625762;stroke-opacity:1"
         id="use3249" />
      <rect
         width="23"
         height="149"
         rx="2.4000001"
         ry="4.8000002"
         x="840.48816"
         y="0.48812881"
         style="fill:#ffffff;fill-opacity:1;stroke:#000000;stroke-width:0.97625762;stroke-opacity:1"
         id="use3251" />
      <rect
         width="23"
         height="149"
         rx="2.4000001"
         ry="4.8000002"
         x="864.48816"
         y="0.48812881"
         style="fill:#ffffff;fill-opacity:1;stroke:#000000;stroke-width:0.97625762;stroke-opacity:1"
         id="use3253" />
      <g
         id="g9577">
        <rect
           ry="1"
           rx="1"
           y="0.70755446"
           x="67.731293"
           height="98.537407"
           width="8.5374079"
           id="use4120"
           style="fill:none;fill-opacity:1;stroke:#000000;stroke-width:1.46259189;stroke-opacity:1" />
        <path
           id="path9580"
           style="fill:none;stroke:#000000;stroke-width:1"
           d="m 68.046715,0.707554 0,98.537407 m 1.299999,0 0,-98.537407 m 1.3,0 0,98.537407 m 1.3,0 0,-98.537407 m 1.3,0 0,98.537407 m 1.3,0 0,-98.537407 m 1.3,0 0,98.537407"
           inkscape:connector-curvature="0" />
      </g>
      <g
         id="g9690">
        <rect
           ry="1"
           rx="1"
           y="0.70755446"
           x="187.73129"
           height="98.537407"
           width="8.5374079"
           id="use4130"
           style="fill:none;fill-opacity:1;stroke:#000000;stroke-width:1.46259189;stroke-opacity:1" />
        <path
           d="m 188.71784,0.707554 0,98.537407 m 1.3,0 0,-98.537407 m 1.3,0 0,98.537407 m 1.3,0 0,-98.537407 m 1.3,0 0,98.537407 m 1.3,0 0,-98.537407"
           style="fill:none;stroke:#000000;stroke-width:1"
           id="path9693"
           inkscape:connector-curvature="0" />
      </g>
      <g
         id="g9695">
        <rect
           ry="1"
           rx="1"
           y="0.70755446"
           x="667.73132"
           height="98.537407"
           width="8.5374079"
           id="use4170"
           style="fill:none;fill-opacity:1;stroke:#000000;stroke-width:1.46259189;stroke-opacity:1" />
        <path
           d="m 668.41782,0.707554 0,98.537407 m 1.3,0 0,-98.537407 m 1.3,0 0,98.537407 m 1.3,0 0,-98.537407 m 1.3,0 0,98.537407 m 1.3,0 0,-98.537407 m 1.3,0 0,98.537407"
           style="fill:none;stroke:#000000;stroke-width:1"
           id="path9698"
           inkscape:connector-curvature="0" />
      </g>
      <g
         id="g9700">
        <rect
           ry="1"
           rx="1"
           y="0.70755446"
           x="811.73132"
           height="98.537407"
           width="8.5374079"
           id="use4182"
           style="fill:none;fill-opacity:1;stroke:#000000;stroke-width:1.46259189;stroke-opacity:1" />
        <path
           d="m 812.71781,0.707554 0,98.537407 m 1.30001,0 0,-98.537407 m 1.29999,0 0,98.537407 m 1.3,0 0,-98.537407 m 1.30001,0 0,98.537407 m 1.29999,0 0,-98.537407"
           style="fill:none;stroke:#000000;stroke-width:1"
           id="path9703"
           inkscape:connector-curvature="0" />
      </g>
      <g
         id="g9705">
        <rect
           ry="1"
           rx="1"
           y="0.70755446"
           x="859.73132"
           height="98.537407"
           width="8.5374079"
           id="use4186"
           style="fill:none;fill-opacity:1;stroke:#000000;stroke-width:1.46259189;stroke-opacity:1" />
        <path
           d="m 860.81781,0.707554 0,98.537407 m 1.3,0 0,-98.537407 m 1.3,0 0,98.537407 m 1.3,0 0,-98.537407 m 1.3,0 0,98.537407 m 1.3,0 0,-98.537407"
           style="fill:none;stroke:#000000;stroke-width:1"
           id="path9708"
           inkscape:connector-curvature="0" />
      </g>
      <g
         id="g9710">
        <rect
           ry="1"
           rx="1"
           y="0.70755446"
           x="523.73132"
           height="98.537407"
           width="8.5374079"
           id="use4158"
           style="fill:none;fill-opacity:1;stroke:#000000;stroke-width:1.46259189;stroke-opacity:1" />
        <path
           d="m 524.11783,0.707554 0,98.537407 m 1.3,0 0,-98.537407 m 1.3,0 0,98.537407 m 1.3,0 0,-98.537407 m 1.29999,0 0,98.537407 m 1.30001,0 0,-98.537407 m 1.29999,0 0,98.537407"
           style="fill:none;stroke:#000000;stroke-width:1"
           id="path9713"
           inkscape:connector-curvature="0" />
      </g>
      <g
         id="g9715">
        <rect
           ry="1"
           rx="1"
           y="0.70755446"
           x="571.73132"
           height="98.537407"
           width="8.5374079"
           id="use4162"
           style="fill:none;fill-opacity:1;stroke:#000000;stroke-width:1.46259189;stroke-opacity:1" />
        <path
           d="m 572.21782,0.707554 0,98.537407 m 1.3,0 0,-98.537407 m 1.3,0 0,98.537407 m 1.3,0 0,-98.537407 m 1.3,0 0,98.537407 m 1.3,0 0,-98.537407 m 1.3,0 0,98.537407"
           style="fill:none;stroke:#000000;stroke-width:1"
           id="path9718"
           inkscape:connector-curvature="0" />
      </g>
      <g
         id="g9720">
        <rect
           ry="1"
           rx="1"
           y="0.70755446"
           x="499.73129"
           height="98.537407"
           width="8.5374079"
           id="use4156"
           style="fill:none;fill-opacity:1;stroke:#000000;stroke-width:1.46259189;stroke-opacity:1" />
        <path
           d="m 500.71783,0.707554 0,98.537407 m 1.3,0 0,-98.537407 m 1.3,0 0,98.537407 m 1.3,0 0,-98.537407 m 1.3,0 0,98.537407 m 1.3,0 0,-98.537407"
           style="fill:none;stroke:#000000;stroke-width:1"
           id="path9723"
           inkscape:connector-curvature="0" />
      </g>
      <g
         id="g9725">
        <rect
           ry="1"
           rx="1"
           y="0.70755446"
           x="763.73132"
           height="98.537407"
           width="8.5374079"
           id="use4178"
           style="fill:none;fill-opacity:1;stroke:#000000;stroke-width:1.46259189;stroke-opacity:1" />
        <path
           d="m 764.61782,0.707554 0,98.537407 m 1.3,0 0,-98.537407 m 1.3,0 0,98.537407 m 1.3,0 0,-98.537407 m 1.3,0 0,98.537407 m 1.3,0 0,-98.537407"
           style="fill:none;stroke:#000000;stroke-width:1"
           id="path9728"
           inkscape:connector-curvature="0" />
      </g>
      <g
         id="g9730">
        <rect
           ry="1"
           rx="1"
           y="0.70755446"
           x="331.73129"
           height="98.537407"
           width="8.5374079"
           id="use4142"
           style="fill:none;fill-opacity:1;stroke:#000000;stroke-width:1.46259189;stroke-opacity:1" />
        <path
           d="m 333.01783,0.707554 0,98.537407 m 1.3,0 0,-98.537407 m 1.3,0 0,98.537407 m 1.3,0 0,-98.537407 m 1.3,0 0,98.537407 m 1.3,0 0,-98.537407"
           style="fill:none;stroke:#000000;stroke-width:1"
           id="path9733"
           inkscape:connector-curvature="0" />
      </g>
      <g
         id="g9735">
        <rect
           ry="1"
           rx="1"
           y="0.70755446"
           x="595.73132"
           height="98.537407"
           width="8.5374079"
           id="use4164"
           style="fill:none;fill-opacity:1;stroke:#000000;stroke-width:1.46259189;stroke-opacity:1" />
        <path
           d="m 596.91782,0.707554 0,98.537407 m 1.3,0 0,-98.537407 m 1.3,0 0,98.537407 m 1.3,0 0,-98.537407 m 1.3,0 0,98.537407 m 1.3,0 0,-98.537407"
           style="fill:none;stroke:#000000;stroke-width:1"
           id="path9738"
           inkscape:connector-curvature="0" />
      </g>
      <g
         id="g9740">
        <rect
           ry="1"
           rx="1"
           y="0.70755446"
           x="307.73129"
           height="98.537407"
           width="8.5374079"
           id="use4140"
           style="fill:none;fill-opacity:1;stroke:#000000;stroke-width:1.46259189;stroke-opacity:1" />
        <path
           d="m 308.31783,0.707554 0,98.537407 m 1.3,0 0,-98.537407 m 1.3,0 0,98.537407 m 1.3,0 0,-98.537407 m 1.3,0 0,98.537407 m 1.3,0 0,-98.537407 m 1.3,0 0,98.537407"
           style="fill:none;stroke:#000000;stroke-width:1"
           id="path9743"
           inkscape:connector-curvature="0" />
      </g>
      <g
         id="g9745">
        <rect
           ry="1"
           rx="1"
           y="0.70755446"
           x="691.73132"
           height="98.537407"
           width="8.5374079"
           id="use4172"
           style="fill:none;fill-opacity:1;stroke:#000000;stroke-width:1.46259189;stroke-opacity:1" />
        <path
           d="m 691.81782,0.707554 0,98.537407 m 1.3,0 0,-98.537407 m 1.3,0 0,98.537407 m 1.3,0 0,-98.537407 m 1.3,0 0,98.537407 m 1.3,0 0,-98.537407 m 1.3,0 0,98.537407"
           style="fill:none;stroke:#000000;stroke-width:1"
           id="path9748"
           inkscape:connector-curvature="0" />
      </g>
      <g
         id="g9750">
        <rect
           ry="1"
           rx="1"
           y="0.70755446"
           x="259.73129"
           height="98.537407"
           width="8.5374079"
           id="use4136"
           style="fill:none;fill-opacity:1;stroke:#000000;stroke-width:1.46259189;stroke-opacity:1" />
        <path
           d="m 260.21783,0.707554 0,98.537407 m 1.3,0 0,-98.537407 m 1.3,0 0,98.537407 m 1.30001,0 0,-98.537407 m 1.3,0 0,98.537407 m 1.29999,0 0,-98.537407 m 1.3,0 0,98.537407"
           style="fill:none;stroke:#000000;stroke-width:1"
           id="path9753"
           inkscape:connector-curvature="0" />
      </g>
      <g
         id="g9755">
        <rect
           ry="1"
           rx="1"
           y="0.70755446"
           x="91.731293"
           height="98.537407"
           width="8.5374079"
           id="use4122"
           style="fill:none;fill-opacity:1;stroke:#000000;stroke-width:1.46259189;stroke-opacity:1" />
        <path
           d="m 92.517841,0.707554 0,98.537407 m 1.3,0 0,-98.537407 m 1.3,0 0,98.537407 m 1.3,0 0,-98.537407 m 1.3,0 0,98.537407 m 1.3,0 0,-98.537407"
           style="fill:none;stroke:#000000;stroke-width:1"
           id="path9758"
           inkscape:connector-curvature="0" />
      </g>
      <g
         id="g9760">
        <rect
           ry="1"
           rx="1"
           y="0.70755446"
           x="163.73129"
           height="98.537407"
           width="8.5374079"
           id="use4128"
           style="fill:none;fill-opacity:1;stroke:#000000;stroke-width:1.46259189;stroke-opacity:1" />
        <path
           d="m 164.01784,0.707554 0,98.537407 m 1.3,0 0,-98.537407 m 1.3,0 0,98.537407 m 1.3,0 0,-98.537407 m 1.3,0 0,98.537407 m 1.3,0 0,-98.537407 m 1.3,0 0,98.537407"
           style="fill:none;stroke:#000000;stroke-width:1"
           id="path9763"
           inkscape:connector-curvature="0" />
      </g>
      <g
         id="g9765">
        <rect
           ry="1"
           rx="1"
           y="0.70755446"
           x="643.73132"
           height="98.537407"
           width="8.5374079"
           id="use4168"
           style="fill:none;fill-opacity:1;stroke:#000000;stroke-width:1.46259189;stroke-opacity:1" />
        <path
           d="m 645.01782,0.707554 0,98.537407 m 1.3,0 0,-98.537407 m 1.3,0 0,98.537407 m 1.3,0 0,-98.537407 m 1.3,0 0,98.537407 m 1.3,0 0,-98.537407"
           style="fill:none;stroke:#000000;stroke-width:1"
           id="path9768"
           inkscape:connector-curvature="0" />
      </g>
      <g
         id="g9770">
        <rect
           ry="1"
           rx="1"
           y="0.70755446"
           x="235.73129"
           height="98.537407"
           width="8.5374079"
           id="use4134"
           style="fill:none;fill-opacity:1;stroke:#000000;stroke-width:1.46259189;stroke-opacity:1" />
        <path
           d="m 236.81784,0.707554 0,98.537407 m 1.3,0 0,-98.537407 m 1.3,0 0,98.537407 m 1.3,0 0,-98.537407 m 1.3,0 0,98.537407 m 1.3,0 0,-98.537407"
           style="fill:none;stroke:#000000;stroke-width:1"
           id="path9773"
           inkscape:connector-curvature="0" />
      </g>
      <g
         id="g9775">
        <rect
           ry="1"
           rx="1"
           y="0.70755446"
           x="403.73129"
           height="98.537407"
           width="8.5374079"
           id="use4148"
           style="fill:none;fill-opacity:1;stroke:#000000;stroke-width:1.46259189;stroke-opacity:1" />
        <path
           d="m 404.51783,0.707554 0,98.537407 m 1.3,0 0,-98.537407 m 1.3,0 0,98.537407 m 1.3,0 0,-98.537407 m 1.3,0 0,98.537407 m 1.3,0 0,-98.537407"
           style="fill:none;stroke:#000000;stroke-width:1"
           id="path9778"
           inkscape:connector-curvature="0" />
      </g>
      <g
         id="g9780">
        <rect
           ry="1"
           rx="1"
           y="0.70755446"
           x="139.73129"
           height="98.537407"
           width="8.5374079"
           id="use4126"
           style="fill:none;fill-opacity:1;stroke:#000000;stroke-width:1.46259189;stroke-opacity:1" />
        <path
           d="m 140.61784,0.707554 0,98.537407 m 1.3,0 0,-98.537407 m 1.3,0 0,98.537407 m 1.3,0 0,-98.537407 m 1.3,0 0,98.537407 m 1.3,0 0,-98.537407"
           style="fill:none;stroke:#000000;stroke-width:1"
           id="path9783"
           inkscape:connector-curvature="0" />
      </g>
      <g
         id="g9785">
        <rect
           ry="1"
           rx="1"
           y="0.70755446"
           x="739.73132"
           height="98.537407"
           width="8.5374079"
           id="use4176"
           style="fill:none;fill-opacity:1;stroke:#000000;stroke-width:1.46259189;stroke-opacity:1" />
        <path
           d="m 739.91782,0.707554 0,98.537407 m 1.3,0 0,-98.537407 m 1.3,0 0,98.537407 m 1.3,0 0,-98.537407 m 1.3,0 0,98.537407 m 1.3,0 0,-98.537407 m 1.3,0 0,98.537407"
           style="fill:none;stroke:#000000;stroke-width:1"
           id="path9788"
           inkscape:connector-curvature="0" />
      </g>
      <g
         id="g9790">
        <rect
           ry="1"
           rx="1"
           y="0.70755446"
           x="475.73129"
           height="98.537407"
           width="8.5374079"
           id="use4154"
           style="fill:none;fill-opacity:1;stroke:#000000;stroke-width:1.46259189;stroke-opacity:1" />
        <path
           d="m 476.01783,0.707554 0,98.537407 m 1.3,0 0,-98.537407 m 1.3,0 0,98.537407 m 1.3,0 0,-98.537407 m 1.3,0 0,98.537407 m 1.3,0 0,-98.537407 m 1.3,0 0,98.537407"
           style="fill:none;stroke:#000000;stroke-width:1"
           id="path9793"
           inkscape:connector-curvature="0" />
      </g>
      <g
         id="g9795">
        <rect
           ry="1"
           rx="1"
           y="0.70755446"
           x="835.73132"
           height="98.537407"
           width="8.5374079"
           id="use4184"
           style="fill:none;fill-opacity:1;stroke:#000000;stroke-width:1.46259189;stroke-opacity:1" />
        <path
           d="m 836.11781,0.707554 0,98.537407 m 1.3,0 0,-98.537407 m 1.3,0 0,98.537407 m 1.3,0 0,-98.537407 m 1.3,0 0,98.537407 m 1.3,0 0,-98.537407 m 1.3,0 0,98.537407"
           style="fill:none;stroke:#000000;stroke-width:1"
           id="path9798"
           inkscape:connector-curvature="0" />
      </g>
      <g
         id="g9800">
        <rect
           ry="1"
           rx="1"
           y="0.70755446"
           x="427.73129"
           height="98.537407"
           width="8.5374079"
           id="use4150"
           style="fill:none;fill-opacity:1;stroke:#000000;stroke-width:1.46259189;stroke-opacity:1" />
        <path
           d="m 427.91783,0.707554 0,98.537407 m 1.3,0 0,-98.537407 m 1.3,0 0,98.537407 m 1.3,0 0,-98.537407 m 1.3,0 0,98.537407 m 1.3,0 0,-98.537407 m 1.3,0 0,98.537407"
           style="fill:none;stroke:#000000;stroke-width:1"
           id="path9803"
           inkscape:connector-curvature="0" />
      </g>
      <g
         id="g9805">
        <rect
           ry="1"
           rx="1"
           y="0.70755446"
           x="355.73129"
           height="98.537407"
           width="8.5374079"
           id="use4144"
           style="fill:none;fill-opacity:1;stroke:#000000;stroke-width:1.46259189;stroke-opacity:1" />
        <path
           d="m 356.41783,0.707554 0,98.537407 m 1.3,0 0,-98.537407 m 1.3,0 0,98.537407 m 1.3,0 0,-98.537407 m 1.3,0 0,98.537407 m 1.3,0 0,-98.537407 m 1.3,0 0,98.537407"
           style="fill:none;stroke:#000000;stroke-width:1"
           id="path9808"
           inkscape:connector-curvature="0" />
      </g>
    </g>
  </g>
</svg>
