  0
SECTION
  2
HEADER
  9
$ACADVER
  1
AC1014
  9
$HANDSEED
  5
FFFF
  9
$MEASUREMENT
 70
     1
  0
ENDSEC
  0
SECTION
  2
TABLES
  0
TABLE
  2
VPORT
  5
8
330
0
100
AcDbSymbolTable
 70
     4
  0
VPORT
  5
2E
330
8
100
AcDbSymbolTableRecord
100
AcDbViewportTableRecord
  2
*ACTIVE
 70
     0
 10
0.0
 20
0.0
 11
1.0
 21
1.0
 12
210.0
 22
148.5
 13
0.0
 23
0.0
 14
10.0
 24
10.0
 15
10.0
 25
10.0
 16
0.0
 26
0.0
 36
1.0
 17
0.0
 27
0.0
 37
0.0
 40
341.0
 41
1.24
 42
50.0
 43
0.0
 44
0.0
 50
0.0
 51
0.0
 71
     0
 72
   100
 73
     1
 74
     3
 75
     0
 76
     0
 77
     0
 78
     0
  0
ENDTAB
  0
TABLE
  2
LTYPE
  5
5
330
0
100
AcDbSymbolTable
 70
     1
  0
LTYPE
  5
14
330
5
100
AcDbSymbolTableRecord
100
AcDbLinetypeTableRecord
  2
BYBLOCK
 70
     0
  3

 72
    65
 73
     0
 40
0.0
  0
LTYPE
  5
15
330
5
100
AcDbSymbolTableRecord
100
AcDbLinetypeTableRecord
  2
BYLAYER
 70
     0
  3

 72
    65
 73
     0
 40
0.0
  0
LTYPE
  5
16
330
5
100
AcDbSymbolTableRecord
100
AcDbLinetypeTableRecord
  2
CONTINUOUS
 70
     0
  3
Solid line
 72
    65
 73
     0
 40
0.0
  0
ENDTAB
  0
TABLE
  2
LAYER
  5
2
100
AcDbSymbolTable
 70
2
  0
LAYER
  5
50
100
AcDbSymbolTableRecord
100
AcDbLayerTableRecord
  2
0
 70
0
  6
CONTINUOUS
  0
LAYER
  5
51
100
AcDbSymbolTableRecord
100
AcDbLayerTableRecord
  2
Layer_1
 70
0
  6
CONTINUOUS
  0
ENDTAB
  0
TABLE
  2
STYLE
  5
3
330
0
100
AcDbSymbolTable
 70
     1
  0
STYLE
  5
11
330
3
100
AcDbSymbolTableRecord
100
AcDbTextStyleTableRecord
  2
STANDARD
 70
     0
 40
0.0
 41
1.0
 50
0.0
 71
     0
 42
2.5
  3
txt
  4

  0
ENDTAB
  0
TABLE
  2
VIEW
  5
6
330
0
100
AcDbSymbolTable
 70
     0
  0
ENDTAB
  0
TABLE
  2
UCS
  5
7
330
0
100
AcDbSymbolTable
 70
     0
  0
ENDTAB
  0
TABLE
  2
APPID
  5
9
330
0
100
AcDbSymbolTable
 70
     2
  0
APPID
  5
12
330
9
100
AcDbSymbolTableRecord
100
AcDbRegAppTableRecord
  2
ACAD
 70
     0
  0
ENDTAB
  0
TABLE
  2
DIMSTYLE
  5
A
330
0
100
AcDbSymbolTable
 70
     1
  0
DIMSTYLE
105
27
330
A
100
AcDbSymbolTableRecord
100
AcDbDimStyleTableRecord
  2
ISO-25
 70
     0
  3

  4

  5

  6

  7

 40
1.0
 41
2.5
 42
0.625
 43
3.75
 44
1.25
 45
0.0
 46
0.0
 47
0.0
 48
0.0
140
2.5
141
2.5
142
0.0
143
0.03937007874016
144
1.0
145
0.0
146
1.0
147
0.625
 71
     0
 72
     0
 73
     0
 74
     0
 75
     0
 76
     0
 77
     1
 78
     8
170
     0
171
     3
172
     1
173
     0
174
     0
175
     0
176
     0
177
     0
178
     0
270
     2
271
     2
272
     2
273
     2
274
     3
340
11
275
     0
280
     0
281
     0
282
     0
283
     0
284
     8
285
     0
286
     0
287
     3
288
     0
  0
ENDTAB
  0
TABLE
  2
BLOCK_RECORD
  5
1
330
0
100
AcDbSymbolTable
 70
     1
  0
BLOCK_RECORD
  5
1F
330
1
100
AcDbSymbolTableRecord
100
AcDbBlockTableRecord
  2
*MODEL_SPACE
  0
BLOCK_RECORD
  5
1B
330
1
100
AcDbSymbolTableRecord
100
AcDbBlockTableRecord
  2
*PAPER_SPACE
  0
ENDTAB
  0
ENDSEC
  0
SECTION
  2
BLOCKS
  0
BLOCK
  5
20
330
1F
100
AcDbEntity
  8
0
100
AcDbBlockBegin
  2
*MODEL_SPACE
 70
     0
 10
0.0
 20
0.0
 30
0.0
  3
*MODEL_SPACE
  1

  0
ENDBLK
  5
21
330
1F
100
AcDbEntity
  8
0
100
AcDbBlockEnd
  0
BLOCK
  5
1C
330
1B
100
AcDbEntity
 67
     1
  8
0
100
AcDbBlockBegin
  2
*PAPER_SPACE
  1

  0
ENDBLK
  5
1D
330
1B
100
AcDbEntity
 67
     1
  8
0
100
AcDbBlockEnd
  0
ENDSEC
  0
SECTION
  2
ENTITIES
  0
LWPOLYLINE
  5
100
100
AcDbEntity
  8
Layer_1
 62
7
100
AcDbPolyline
 90
7
 70
0
 10
2.399890
 20
10.800300
 30
0.0
 10
1.100015
 20
10.800018
 30
0.0
 10
1.100015
 20
0.000059
 30
0.0
 10
11.900030
 20
0.000059
 30
0.0
 10
11.900030
 20
10.800018
 30
0.0
 10
2.399890
 20
10.800300
 30
0.0
 10
2.399890
 20
10.800300
 30
0.0
  0
LWPOLYLINE
  5
101
100
AcDbEntity
  8
Layer_1
 62
7
100
AcDbPolyline
 90
130
 70
0
 10
6.499995
 20
10.200027
 30
0.0
 10
6.747001
 20
10.193781
 30
0.0
 10
6.990765
 20
10.175244
 30
0.0
 10
7.230984
 20
10.144718
 30
0.0
 10
7.467357
 20
10.102506
 30
0.0
 10
7.699583
 20
10.048908
 30
0.0
 10
7.927361
 20
9.984226
 30
0.0
 10
8.150387
 20
9.908761
 30
0.0
 10
8.368362
 20
9.822816
 30
0.0
 10
8.580982
 20
9.726692
 30
0.0
 10
8.787948
 20
9.620690
 30
0.0
 10
8.988956
 20
9.505112
 30
0.0
 10
9.183706
 20
9.380260
 30
0.0
 10
9.371896
 20
9.246435
 30
0.0
 10
9.553224
 20
9.103939
 30
0.0
 10
9.727389
 20
8.953073
 30
0.0
 10
9.894089
 20
8.794140
 30
0.0
 10
10.053023
 20
8.627440
 30
0.0
 10
10.203889
 20
8.453275
 30
0.0
 10
10.346385
 20
8.271946
 30
0.0
 10
10.480210
 20
8.083756
 30
0.0
 10
10.605062
 20
7.889006
 30
0.0
 10
10.720640
 20
7.687998
 30
0.0
 10
10.826642
 20
7.481033
 30
0.0
 10
10.922766
 20
7.268412
 30
0.0
 10
11.008711
 20
7.050437
 30
0.0
 10
11.084175
 20
6.827411
 30
0.0
 10
11.148857
 20
6.599634
 30
0.0
 10
11.202455
 20
6.367408
 30
0.0
 10
11.244668
 20
6.131034
 30
0.0
 10
11.275194
 20
5.890815
 30
0.0
 10
11.293731
 20
5.647052
 30
0.0
 10
11.299977
 20
5.400046
 30
0.0
 10
11.294080
 20
5.162027
 30
0.0
 10
11.276493
 20
4.925623
 30
0.0
 10
11.247379
 20
4.691228
 30
0.0
 10
11.206901
 20
4.459236
 30
0.0
 10
11.155223
 20
4.230039
 30
0.0
 10
11.092506
 20
4.004032
 30
0.0
 10
11.018915
 20
3.781607
 30
0.0
 10
10.934611
 20
3.563158
 30
0.0
 10
10.839759
 20
3.349078
 30
0.0
 10
10.734521
 20
3.139761
 30
0.0
 10
10.619059
 20
2.935601
 30
0.0
 10
10.493538
 20
2.736991
 30
0.0
 10
10.358119
 20
2.544323
 30
0.0
 10
10.212966
 20
2.357992
 30
0.0
 10
10.058242
 20
2.178392
 30
0.0
 10
9.894109
 20
2.005915
 30
0.0
 10
9.721634
 20
1.841780
 30
0.0
 10
9.542035
 20
1.687054
 30
0.0
 10
9.355706
 20
1.541899
 30
0.0
 10
9.163041
 20
1.406478
 30
0.0
 10
8.964432
 20
1.280954
 30
0.0
 10
8.760273
 20
1.165490
 30
0.0
 10
8.550957
 20
1.060249
 30
0.0
 10
8.336879
 20
0.965394
 30
0.0
 10
8.118431
 20
0.881089
 30
0.0
 10
7.896007
 20
0.807495
 30
0.0
 10
7.670000
 20
0.744775
 30
0.0
 10
7.440804
 20
0.693094
 30
0.0
 10
7.208812
 20
0.652614
 30
0.0
 10
6.974417
 20
0.623497
 30
0.0
 10
6.738014
 20
0.605907
 30
0.0
 10
6.499995
 20
0.600007
 30
0.0
 10
6.261976
 20
0.605907
 30
0.0
 10
6.025573
 20
0.623497
 30
0.0
 10
5.791179
 20
0.652614
 30
0.0
 10
5.559187
 20
0.693094
 30
0.0
 10
5.329990
 20
0.744775
 30
0.0
 10
5.103983
 20
0.807494
 30
0.0
 10
4.881559
 20
0.881088
 30
0.0
 10
4.663111
 20
0.965394
 30
0.0
 10
4.449033
 20
1.060249
 30
0.0
 10
4.239717
 20
1.165490
 30
0.0
 10
4.035558
 20
1.280954
 30
0.0
 10
3.836949
 20
1.406478
 30
0.0
 10
3.644283
 20
1.541899
 30
0.0
 10
3.457954
 20
1.687054
 30
0.0
 10
3.278356
 20
1.841780
 30
0.0
 10
3.105880
 20
2.005914
 30
0.0
 10
2.941748
 20
2.178391
 30
0.0
 10
2.787024
 20
2.357992
 30
0.0
 10
2.641871
 20
2.544323
 30
0.0
 10
2.506452
 20
2.736990
 30
0.0
 10
2.380930
 20
2.935601
 30
0.0
 10
2.265469
 20
3.139761
 30
0.0
 10
2.160230
 20
3.349078
 30
0.0
 10
2.065378
 20
3.563157
 30
0.0
 10
1.981075
 20
3.781606
 30
0.0
 10
1.907483
 20
4.004031
 30
0.0
 10
1.844767
 20
4.230039
 30
0.0
 10
1.793088
 20
4.459236
 30
0.0
 10
1.752610
 20
4.691228
 30
0.0
 10
1.723497
 20
4.925623
 30
0.0
 10
1.705910
 20
5.162027
 30
0.0
 10
1.700012
 20
5.400046
 30
0.0
 10
1.706259
 20
5.647052
 30
0.0
 10
1.724796
 20
5.890815
 30
0.0
 10
1.755321
 20
6.131034
 30
0.0
 10
1.797534
 20
6.367408
 30
0.0
 10
1.851132
 20
6.599634
 30
0.0
 10
1.915814
 20
6.827411
 30
0.0
 10
1.991279
 20
7.050438
 30
0.0
 10
2.077224
 20
7.268412
 30
0.0
 10
2.173348
 20
7.481033
 30
0.0
 10
2.279350
 20
7.687998
 30
0.0
 10
2.394928
 20
7.889007
 30
0.0
 10
2.519780
 20
8.083757
 30
0.0
 10
2.653605
 20
8.271947
 30
0.0
 10
2.796101
 20
8.453275
 30
0.0
 10
2.946967
 20
8.627440
 30
0.0
 10
3.105900
 20
8.794140
 30
0.0
 10
3.272600
 20
8.953074
 30
0.0
 10
3.446766
 20
9.103940
 30
0.0
 10
3.628094
 20
9.246436
 30
0.0
 10
3.816284
 20
9.380261
 30
0.0
 10
4.011034
 20
9.505113
 30
0.0
 10
4.212042
 20
9.620690
 30
0.0
 10
4.419008
 20
9.726692
 30
0.0
 10
4.631629
 20
9.822816
 30
0.0
 10
4.849603
 20
9.908761
 30
0.0
 10
5.072630
 20
9.984226
 30
0.0
 10
5.300407
 20
10.048908
 30
0.0
 10
5.532633
 20
10.102506
 30
0.0
 10
5.769006
 20
10.144718
 30
0.0
 10
6.009226
 20
10.175244
 30
0.0
 10
6.252989
 20
10.193781
 30
0.0
 10
6.499995
 20
10.200027
 30
0.0
 10
6.499995
 20
10.200027
 30
0.0
  0
LWPOLYLINE
  5
102
100
AcDbEntity
  8
Layer_1
 62
7
100
AcDbPolyline
 90
8
 70
1
 10
16.000004
 20
10.800016
 30
0.0
 10
16.000004
 20
10.771629
 30
0.0
 10
16.971687
 20
10.771629
 30
0.0
 10
16.971687
 20
9.800002
 30
0.0
 10
17.000019
 20
9.800002
 30
0.0
 10
17.000019
 20
10.785795
 30
0.0
 10
17.000019
 20
10.800016
 30
0.0
 10
16.000004
 20
10.800016
 30
0.0
  0
LWPOLYLINE
  5
103
100
AcDbEntity
  8
Layer_1
 62
7
100
AcDbPolyline
 90
7
 70
1
 10
16.971687
 20
0.799979
 30
0.0
 10
16.971687
 20
0.028333
 30
0.0
 10
16.000004
 20
0.028333
 30
0.0
 10
16.000004
 20
0.000000
 30
0.0
 10
17.000019
 20
0.000000
 30
0.0
 10
17.000019
 20
0.799979
 30
0.0
 10
16.971687
 20
0.799979
 30
0.0
  0
LWPOLYLINE
  5
104
100
AcDbEntity
  8
Layer_1
 62
7
100
AcDbPolyline
 90
7
 70
1
 10
0.000000
 20
10.800015
 30
0.0
 10
0.000000
 20
9.800003
 30
0.0
 10
0.028335
 20
9.800003
 30
0.0
 10
0.028335
 20
10.771629
 30
0.0
 10
1.000015
 20
10.771629
 30
0.0
 10
1.000015
 20
10.800015
 30
0.0
 10
0.000000
 20
10.800015
 30
0.0
  0
LWPOLYLINE
  5
105
100
AcDbEntity
  8
Layer_1
 62
7
100
AcDbPolyline
 90
7
 70
1
 10
0.000000
 20
0.799979
 30
0.0
 10
0.000000
 20
-0.000000
 30
0.0
 10
1.000015
 20
-0.000000
 30
0.0
 10
1.000015
 20
0.028332
 30
0.0
 10
0.028335
 20
0.028332
 30
0.0
 10
0.028335
 20
0.799979
 30
0.0
 10
0.000000
 20
0.799979
 30
0.0
  0
LWPOLYLINE
  5
106
100
AcDbEntity
  8
Layer_1
 62
7
100
AcDbPolyline
 90
233
 70
0
 10
16.282183
 20
10.264462
 30
0.0
 10
16.279758
 20
10.264462
 30
0.0
 10
16.258757
 20
10.263361
 30
0.0
 10
16.258757
 20
10.263643
 30
0.0
 10
16.258644
 20
10.263643
 30
0.0
 10
16.258531
 20
10.263643
 30
0.0
 10
16.258531
 20
10.263361
 30
0.0
 10
16.258531
 20
10.263361
 30
0.0
 10
16.165596
 20
10.239383
 30
0.0
 10
16.120728
 20
10.222461
 30
0.0
 10
16.120671
 20
10.222461
 30
0.0
 10
16.007948
 20
10.171695
 30
0.0
 10
15.998301
 20
10.165907
 30
0.0
 10
15.998245
 20
10.165907
 30
0.0
 10
15.990969
 20
10.162379
 30
0.0
 10
15.602477
 20
9.962755
 30
0.0
 10
15.232572
 20
9.738965
 30
0.0
 10
14.881922
 20
9.492339
 30
0.0
 10
14.551194
 20
9.224210
 30
0.0
 10
14.551082
 20
9.224210
 30
0.0
 10
14.360546
 20
9.051773
 30
0.0
 10
14.177744
 20
8.872206
 30
0.0
 10
14.168263
 20
8.862449
 30
0.0
 10
14.097597
 20
8.788640
 30
0.0
 10
14.086683
 20
8.776899
 30
0.0
 10
14.022576
 20
8.707501
 30
0.0
 10
14.001741
 20
8.684350
 30
0.0
 10
13.947446
 20
8.623387
 30
0.0
 10
13.924350
 20
8.596819
 30
0.0
 10
13.874355
 20
8.538444
 30
0.0
 10
13.846849
 20
8.505757
 30
0.0
 10
13.806665
 20
8.457139
 30
0.0
 10
13.771277
 20
8.413485
 30
0.0
 10
13.738149
 20
8.371868
 30
0.0
 10
13.700391
 20
8.323636
 30
0.0
 10
13.672665
 20
8.287365
 30
0.0
 10
13.630222
 20
8.231197
 30
0.0
 10
13.610819
 20
8.204849
 30
0.0
 10
13.562863
 20
8.139088
 30
0.0
 10
13.553878
 20
8.126355
 30
0.0
 10
13.372418
 20
7.857913
 30
0.0
 10
13.352905
 20
7.827597
 30
0.0
 10
13.332565
 20
7.795020
 30
0.0
 10
13.323691
 20
7.780359
 30
0.0
 10
13.289350
 20
7.723968
 30
0.0
 10
13.135203
 20
7.455641
 30
0.0
 10
12.996324
 20
7.181793
 30
0.0
 10
12.982544
 20
7.152468
 30
0.0
 10
12.941313
 20
7.063173
 30
0.0
 10
12.940596
 20
7.061508
 30
0.0
 10
12.891041
 20
6.948839
 30
0.0
 10
12.887459
 20
6.940736
 30
0.0
 10
12.883214
 20
6.931033
 30
0.0
 10
12.882277
 20
6.928832
 30
0.0
 10
12.816683
 20
6.769145
 30
0.0
 10
12.815692
 20
6.766718
 30
0.0
 10
12.815692
 20
6.766718
 30
0.0
 10
12.815692
 20
6.766436
 30
0.0
 10
12.815974
 20
6.766718
 30
0.0
 10
12.816256
 20
6.766718
 30
0.0
 10
12.709486
 20
6.444203
 30
0.0
 10
12.709599
 20
6.444203
 30
0.0
 10
12.709543
 20
6.444203
 30
0.0
 10
12.711196
 20
6.443921
 30
0.0
 10
12.544068
 20
5.940385
 30
0.0
 10
12.541754
 20
5.939511
 30
0.0
 10
12.469765
 20
5.899105
 30
0.0
 10
12.451410
 20
5.882843
 30
0.0
 10
12.450969
 20
5.882392
 30
0.0
 10
12.434213
 20
5.864092
 30
0.0
 10
12.420873
 20
5.846397
 30
0.0
 10
12.418889
 20
5.843631
 30
0.0
 10
12.406266
 20
5.822738
 30
0.0
 10
12.381076
 20
5.752349
 30
0.0
 10
12.377603
 20
5.727821
 30
0.0
 10
12.377547
 20
5.727539
 30
0.0
 10
12.376500
 20
5.703231
 30
0.0
 10
12.377877
 20
5.677656
 30
0.0
 10
12.379254
 20
5.668780
 30
0.0
 10
12.381074
 20
5.657427
 30
0.0
 10
12.381515
 20
5.655620
 30
0.0
 10
12.384159
 20
5.644210
 30
0.0
 10
12.384929
 20
5.640959
 30
0.0
 10
12.387080
 20
5.633020
 30
0.0
 10
12.387249
 20
5.632568
 30
0.0
 10
12.391714
 20
5.619228
 30
0.0
 10
12.392154
 20
5.618014
 30
0.0
 10
12.394415
 20
5.612169
 30
0.0
 10
12.395629
 20
5.608975
 30
0.0
 10
12.401857
 20
5.595304
 30
0.0
 10
12.401970
 20
5.595022
 30
0.0
 10
12.406160
 20
5.586589
 30
0.0
 10
12.419113
 20
5.565035
 30
0.0
 10
12.427381
 20
5.553679
 30
0.0
 10
12.427607
 20
5.553397
 30
0.0
 10
12.428434
 20
5.552352
 30
0.0
 10
12.442214
 20
5.535924
 30
0.0
 10
12.443592
 20
5.534372
 30
0.0
 10
12.445025
 20
5.532876
 30
0.0
 10
12.460018
 20
5.518325
 30
0.0
 10
12.460789
 20
5.517619
 30
0.0
 10
12.461616
 20
5.516914
 30
0.0
 10
12.479751
 20
5.502416
 30
0.0
 10
12.480191
 20
5.502077
 30
0.0
 10
12.480473
 20
5.501795
 30
0.0
 10
12.499656
 20
5.489225
 30
0.0
 10
12.500869
 20
5.488519
 30
0.0
 10
12.501256
 20
5.488237
 30
0.0
 10
12.519281
 20
5.478757
 30
0.0
 10
12.522588
 20
5.477149
 30
0.0
 10
12.523305
 20
5.476810
 30
0.0
 10
12.535872
 20
5.471408
 30
0.0
 10
12.539014
 20
5.470082
 30
0.0
 10
12.619437
 20
5.449629
 30
0.0
 10
13.353656
 20
5.284651
 30
0.0
 10
13.334909
 20
4.912777
 30
0.0
 10
13.346814
 20
4.536671
 30
0.0
 10
13.390361
 20
4.157897
 30
0.0
 10
13.466544
 20
3.778016
 30
0.0
 10
13.524496
 20
3.563205
 30
0.0
 10
13.591961
 20
3.353500
 30
0.0
 10
13.668646
 20
3.149078
 30
0.0
 10
13.754259
 20
2.950117
 30
0.0
 10
13.848507
 20
2.756793
 30
0.0
 10
13.951097
 20
2.569283
 30
0.0
 10
14.061736
 20
2.387765
 30
0.0
 10
14.180132
 20
2.212416
 30
0.0
 10
14.305991
 20
2.043413
 30
0.0
 10
14.439020
 20
1.880934
 30
0.0
 10
14.578927
 20
1.725155
 30
0.0
 10
14.725419
 20
1.576254
 30
0.0
 10
14.878203
 20
1.434408
 30
0.0
 10
15.036987
 20
1.299794
 30
0.0
 10
15.201476
 20
1.172589
 30
0.0
 10
15.371379
 20
1.052971
 30
0.0
 10
15.370992
 20
1.052378
 30
0.0
 10
15.404617
 20
1.031045
 30
0.0
 10
15.548319
 20
0.939710
 30
0.0
 10
15.551956
 20
0.937565
 30
0.0
 10
15.733637
 20
0.832062
 30
0.0
 10
16.391237
 20
1.914703
 30
0.0
 10
15.811524
 20
1.777562
 30
0.0
 10
15.810807
 20
1.776349
 30
0.0
 10
15.681216
 20
1.563195
 30
0.0
 10
15.394956
 20
1.777532
 30
0.0
 10
15.128304
 20
2.017176
 30
0.0
 10
14.883211
 20
2.280948
 30
0.0
 10
14.661628
 20
2.567667
 30
0.0
 10
14.465505
 20
2.876153
 30
0.0
 10
14.377600
 20
3.038190
 30
0.0
 10
14.296792
 20
3.205226
 30
0.0
 10
14.223324
 20
3.377113
 30
0.0
 10
14.157439
 20
3.553705
 30
0.0
 10
14.099383
 20
3.734853
 30
0.0
 10
14.049399
 20
3.920411
 30
0.0
 10
14.002379
 20
4.138464
 30
0.0
 10
13.967738
 20
4.356206
 30
0.0
 10
13.945243
 20
4.573256
 30
0.0
 10
13.934663
 20
4.789233
 30
0.0
 10
13.935764
 20
5.003756
 30
0.0
 10
13.948314
 20
5.216441
 30
0.0
 10
13.972081
 20
5.426909
 30
0.0
 10
14.006832
 20
5.634778
 30
0.0
 10
14.052334
 20
5.839665
 30
0.0
 10
14.108356
 20
6.041190
 30
0.0
 10
14.174665
 20
6.238970
 30
0.0
 10
14.251028
 20
6.432626
 30
0.0
 10
14.337213
 20
6.621774
 30
0.0
 10
14.432987
 20
6.806033
 30
0.0
 10
14.538118
 20
6.985023
 30
0.0
 10
14.652373
 20
7.158361
 30
0.0
 10
14.650996
 20
7.159405
 30
0.0
 10
14.656452
 20
7.164200
 30
0.0
 10
14.208866
 20
7.477401
 30
0.0
 10
14.207599
 20
7.475511
 30
0.0
 10
13.711835
 20
7.824873
 30
0.0
 10
13.711892
 20
7.824873
 30
0.0
 10
13.708474
 20
7.827188
 30
0.0
 10
13.707704
 20
7.827752
 30
0.0
 10
13.922402
 20
8.441749
 30
0.0
 10
14.143724
 20
8.692980
 30
0.0
 10
14.379011
 20
8.932564
 30
0.0
 10
14.627908
 20
9.159815
 30
0.0
 10
14.890059
 20
9.374050
 30
0.0
 10
15.165108
 20
9.574583
 30
0.0
 10
15.452701
 20
9.760730
 30
0.0
 10
15.752481
 20
9.931806
 30
0.0
 10
16.064094
 20
10.087127
 30
0.0
 10
16.064094
 20
10.087127
 30
0.0
 10
16.064037
 20
10.087410
 30
0.0
 10
16.198203
 20
10.144901
 30
0.0
 10
16.268043
 20
10.160677
 30
0.0
 10
16.306242
 20
10.159232
 30
0.0
 10
16.347252
 20
10.129853
 30
0.0
 10
16.352544
 20
10.123184
 30
0.0
 10
16.355686
 20
10.119433
 30
0.0
 10
16.355742
 20
10.119433
 30
0.0
 10
16.360317
 20
10.104992
 30
0.0
 10
16.361694
 20
10.102170
 30
0.0
 10
16.369136
 20
10.091753
 30
0.0
 10
16.369361
 20
10.091471
 30
0.0
 10
16.370242
 20
10.090765
 30
0.0
 10
16.379061
 20
10.084260
 30
0.0
 10
16.382589
 20
10.082454
 30
0.0
 10
16.391850
 20
10.079146
 30
0.0
 10
16.396039
 20
10.078384
 30
0.0
 10
16.404914
 20
10.077707
 30
0.0
 10
16.409764
 20
10.077989
 30
0.0
 10
16.418914
 20
10.079654
 30
0.0
 10
16.422938
 20
10.080924
 30
0.0
 10
16.431262
 20
10.084782
 30
0.0
 10
16.435010
 20
10.087153
 30
0.0
 10
16.443168
 20
10.094208
 30
0.0
 10
16.443775
 20
10.094773
 30
0.0
 10
16.443831
 20
10.094773
 30
0.0
 10
16.453036
 20
10.111365
 30
0.0
 10
16.454967
 20
10.121508
 30
0.0
 10
16.454967
 20
10.121508
 30
0.0
 10
16.454797
 20
10.132918
 30
0.0
 10
16.454797
 20
10.132918
 30
0.0
 10
16.454797
 20
10.132918
 30
0.0
 10
16.450553
 20
10.148076
 30
0.0
 10
16.450497
 20
10.148076
 30
0.0
 10
16.434952
 20
10.179716
 30
0.0
 10
16.434952
 20
10.179716
 30
0.0
 10
16.434952
 20
10.179716
 30
0.0
 10
16.403478
 20
10.214113
 30
0.0
 10
16.403422
 20
10.214113
 30
0.0
 10
16.352048
 20
10.248067
 30
0.0
 10
16.305746
 20
10.262785
 30
0.0
 10
16.305633
 20
10.262785
 30
0.0
 10
16.282207
 20
10.264507
 30
0.0
 10
16.282183
 20
10.264462
 30
0.0
  0
ENDSEC
  0
SECTION
  2
OBJECTS
  0
DICTIONARY
  5
C
330
0
100
AcDbDictionary
  3
ACAD_GROUP
350
D
  3
ACAD_MLINESTYLE
350
17
  0
DICTIONARY
  5
D
330
C
100
AcDbDictionary
  0
DICTIONARY
  5
1A
330
C
100
AcDbDictionary
  0
DICTIONARY
  5
17
330
C
100
AcDbDictionary
  3
STANDARD
350
18
  0
DICTIONARY
  5
19
330
C
100
AcDbDictionary
  0
ENDSEC
  0
EOF
