  0
SECTION
  2
HEADER
  9
$ACADVER
  1
AC1014
  9
$HANDSEED
  5
FFFF
  9
$MEASUREMENT
 70
     1
  0
ENDSEC
  0
SECTION
  2
TABLES
  0
TABLE
  2
VPORT
  5
8
330
0
100
AcDbSymbolTable
 70
     4
  0
VPORT
  5
2E
330
8
100
AcDbSymbolTableRecord
100
AcDbViewportTableRecord
  2
*ACTIVE
 70
     0
 10
0.0
 20
0.0
 11
1.0
 21
1.0
 12
210.0
 22
148.5
 13
0.0
 23
0.0
 14
10.0
 24
10.0
 15
10.0
 25
10.0
 16
0.0
 26
0.0
 36
1.0
 17
0.0
 27
0.0
 37
0.0
 40
341.0
 41
1.24
 42
50.0
 43
0.0
 44
0.0
 50
0.0
 51
0.0
 71
     0
 72
   100
 73
     1
 74
     3
 75
     0
 76
     0
 77
     0
 78
     0
  0
ENDTAB
  0
TABLE
  2
LTYPE
  5
5
330
0
100
AcDbSymbolTable
 70
     1
  0
LTYPE
  5
14
330
5
100
AcDbSymbolTableRecord
100
AcDbLinetypeTableRecord
  2
BYBLOCK
 70
     0
  3

 72
    65
 73
     0
 40
0.0
  0
LTYPE
  5
15
330
5
100
AcDbSymbolTableRecord
100
AcDbLinetypeTableRecord
  2
BYLAYER
 70
     0
  3

 72
    65
 73
     0
 40
0.0
  0
LTYPE
  5
16
330
5
100
AcDbSymbolTableRecord
100
AcDbLinetypeTableRecord
  2
CONTINUOUS
 70
     0
  3
Solid line
 72
    65
 73
     0
 40
0.0
  0
ENDTAB
  0
TABLE
  2
LAYER
  5
2
100
AcDbSymbolTable
 70
2
  0
LAYER
  5
50
100
AcDbSymbolTableRecord
100
AcDbLayerTableRecord
  2
0
 70
0
  6
CONTINUOUS
  0
LAYER
  5
51
100
AcDbSymbolTableRecord
100
AcDbLayerTableRecord
  2
Layer_1
 70
0
  6
CONTINUOUS
  0
ENDTAB
  0
TABLE
  2
STYLE
  5
3
330
0
100
AcDbSymbolTable
 70
     1
  0
STYLE
  5
11
330
3
100
AcDbSymbolTableRecord
100
AcDbTextStyleTableRecord
  2
STANDARD
 70
     0
 40
0.0
 41
1.0
 50
0.0
 71
     0
 42
2.5
  3
txt
  4

  0
ENDTAB
  0
TABLE
  2
VIEW
  5
6
330
0
100
AcDbSymbolTable
 70
     0
  0
ENDTAB
  0
TABLE
  2
UCS
  5
7
330
0
100
AcDbSymbolTable
 70
     0
  0
ENDTAB
  0
TABLE
  2
APPID
  5
9
330
0
100
AcDbSymbolTable
 70
     2
  0
APPID
  5
12
330
9
100
AcDbSymbolTableRecord
100
AcDbRegAppTableRecord
  2
ACAD
 70
     0
  0
ENDTAB
  0
TABLE
  2
DIMSTYLE
  5
A
330
0
100
AcDbSymbolTable
 70
     1
  0
DIMSTYLE
105
27
330
A
100
AcDbSymbolTableRecord
100
AcDbDimStyleTableRecord
  2
ISO-25
 70
     0
  3

  4

  5

  6

  7

 40
1.0
 41
2.5
 42
0.625
 43
3.75
 44
1.25
 45
0.0
 46
0.0
 47
0.0
 48
0.0
140
2.5
141
2.5
142
0.0
143
0.03937007874016
144
1.0
145
0.0
146
1.0
147
0.625
 71
     0
 72
     0
 73
     0
 74
     0
 75
     0
 76
     0
 77
     1
 78
     8
170
     0
171
     3
172
     1
173
     0
174
     0
175
     0
176
     0
177
     0
178
     0
270
     2
271
     2
272
     2
273
     2
274
     3
340
11
275
     0
280
     0
281
     0
282
     0
283
     0
284
     8
285
     0
286
     0
287
     3
288
     0
  0
ENDTAB
  0
TABLE
  2
BLOCK_RECORD
  5
1
330
0
100
AcDbSymbolTable
 70
     1
  0
BLOCK_RECORD
  5
1F
330
1
100
AcDbSymbolTableRecord
100
AcDbBlockTableRecord
  2
*MODEL_SPACE
  0
BLOCK_RECORD
  5
1B
330
1
100
AcDbSymbolTableRecord
100
AcDbBlockTableRecord
  2
*PAPER_SPACE
  0
ENDTAB
  0
ENDSEC
  0
SECTION
  2
BLOCKS
  0
BLOCK
  5
20
330
1F
100
AcDbEntity
  8
0
100
AcDbBlockBegin
  2
*MODEL_SPACE
 70
     0
 10
0.0
 20
0.0
 30
0.0
  3
*MODEL_SPACE
  1

  0
ENDBLK
  5
21
330
1F
100
AcDbEntity
  8
0
100
AcDbBlockEnd
  0
BLOCK
  5
1C
330
1B
100
AcDbEntity
 67
     1
  8
0
100
AcDbBlockBegin
  2
*PAPER_SPACE
  1

  0
ENDBLK
  5
1D
330
1B
100
AcDbEntity
 67
     1
  8
0
100
AcDbBlockEnd
  0
ENDSEC
  0
SECTION
  2
ENTITIES
  0
LWPOLYLINE
  5
100
100
AcDbEntity
  8
Layer_1
 62
7
100
AcDbPolyline
 90
8
 70
1
 10
0.000001
 20
6.000000
 30
0.0
 10
0.000001
 20
5.249989
 30
0.0
 10
0.021250
 20
5.249989
 30
0.0
 10
0.021250
 20
5.978711
 30
0.0
 10
0.750012
 20
5.978711
 30
0.0
 10
0.750012
 20
6.000000
 30
0.0
 10
0.000001
 20
6.000000
 30
0.0
 10
0.000001
 20
6.000000
 30
0.0
  0
LWPOLYLINE
  5
101
100
AcDbEntity
  8
Layer_1
 62
7
100
AcDbPolyline
 90
9
 70
1
 10
5.999990
 20
6.000000
 30
0.0
 10
5.999990
 20
5.978711
 30
0.0
 10
6.728751
 20
5.978711
 30
0.0
 10
6.728751
 20
5.249989
 30
0.0
 10
6.750001
 20
5.249989
 30
0.0
 10
6.750001
 20
5.989334
 30
0.0
 10
6.750001
 20
6.000000
 30
0.0
 10
5.999990
 20
6.000000
 30
0.0
 10
5.999990
 20
6.000000
 30
0.0
  0
LWPOLYLINE
  5
102
100
AcDbEntity
  8
Layer_1
 62
7
100
AcDbPolyline
 90
8
 70
1
 10
0.000007
 20
0.599984
 30
0.0
 10
0.000007
 20
-0.000000
 30
0.0
 10
0.750018
 20
-0.000000
 30
0.0
 10
0.750018
 20
0.021249
 30
0.0
 10
0.021256
 20
0.021249
 30
0.0
 10
0.021256
 20
0.599984
 30
0.0
 10
0.000007
 20
0.599984
 30
0.0
 10
0.000007
 20
0.599984
 30
0.0
  0
LWPOLYLINE
  5
103
100
AcDbEntity
  8
Layer_1
 62
7
100
AcDbPolyline
 90
8
 70
1
 10
6.728751
 20
0.599984
 30
0.0
 10
6.728751
 20
0.021249
 30
0.0
 10
5.999990
 20
0.021249
 30
0.0
 10
5.999990
 20
-0.000000
 30
0.0
 10
6.750001
 20
-0.000000
 30
0.0
 10
6.750001
 20
0.599984
 30
0.0
 10
6.728751
 20
0.599984
 30
0.0
 10
6.728751
 20
0.599984
 30
0.0
  0
LWPOLYLINE
  5
104
100
AcDbEntity
  8
Layer_1
 62
7
100
AcDbPolyline
 90
179
 70
0
 10
2.982906
 20
5.728764
 30
0.0
 10
2.925814
 20
5.723635
 30
0.0
 10
2.870127
 20
5.710037
 30
0.0
 10
2.799179
 20
5.678804
 30
0.0
 10
2.737749
 20
5.635395
 30
0.0
 10
2.686826
 20
5.581747
 30
0.0
 10
2.647399
 20
5.519800
 30
0.0
 10
2.620454
 20
5.451493
 30
0.0
 10
2.606980
 20
5.378763
 30
0.0
 10
2.607965
 20
5.303550
 30
0.0
 10
2.624396
 20
5.227792
 30
0.0
 10
2.624480
 20
5.227545
 30
0.0
 10
2.701954
 20
4.989048
 30
0.0
 10
2.588540
 20
4.924873
 30
0.0
 10
2.479668
 20
4.854683
 30
0.0
 10
2.375524
 20
4.778730
 30
0.0
 10
2.276290
 20
4.697270
 30
0.0
 10
2.182154
 20
4.610557
 30
0.0
 10
2.093297
 20
4.518845
 30
0.0
 10
2.009907
 20
4.422388
 30
0.0
 10
1.932166
 20
4.321442
 30
0.0
 10
1.860261
 20
4.216259
 30
0.0
 10
1.794374
 20
4.107094
 30
0.0
 10
1.734692
 20
3.994203
 30
0.0
 10
1.681398
 20
3.877838
 30
0.0
 10
1.634678
 20
3.758255
 30
0.0
 10
1.594715
 20
3.635708
 30
0.0
 10
1.561695
 20
3.510450
 30
0.0
 10
1.535802
 20
3.382737
 30
0.0
 10
1.284035
 20
3.382737
 30
0.0
 10
1.283787
 20
3.382737
 30
0.0
 10
1.206654
 20
3.374959
 30
0.0
 10
1.134812
 20
3.352656
 30
0.0
 10
1.069800
 20
3.317367
 30
0.0
 10
1.013157
 20
3.270631
 30
0.0
 10
0.966421
 20
3.213988
 30
0.0
 10
0.931133
 20
3.148976
 30
0.0
 10
0.908830
 20
3.077134
 30
0.0
 10
0.901051
 20
3.000001
 30
0.0
 10
0.908830
 20
2.922868
 30
0.0
 10
0.931133
 20
2.851026
 30
0.0
 10
0.966421
 20
2.786013
 30
0.0
 10
1.013157
 20
2.729370
 30
0.0
 10
1.069800
 20
2.682635
 30
0.0
 10
1.134812
 20
2.647346
 30
0.0
 10
1.206654
 20
2.625043
 30
0.0
 10
1.283787
 20
2.617265
 30
0.0
 10
1.284035
 20
2.617265
 30
0.0
 10
1.533487
 20
2.617265
 30
0.0
 10
1.559480
 20
2.489471
 30
0.0
 10
1.592609
 20
2.364142
 30
0.0
 10
1.632689
 20
2.241532
 30
0.0
 10
1.679534
 20
2.121896
 30
0.0
 10
1.732960
 20
2.005489
 30
0.0
 10
1.792780
 20
1.892565
 30
0.0
 10
1.858811
 20
1.783380
 30
0.0
 10
1.930866
 20
1.678187
 30
0.0
 10
2.008760
 20
1.577242
 30
0.0
 10
2.092308
 20
1.480799
 30
0.0
 10
2.181325
 20
1.389113
 30
0.0
 10
2.275625
 20
1.302439
 30
0.0
 10
2.375024
 20
1.221031
 30
0.0
 10
2.479334
 20
1.145144
 30
0.0
 10
2.588373
 20
1.075034
 30
0.0
 10
2.701954
 20
1.010954
 30
0.0
 10
2.624480
 20
0.772541
 30
0.0
 10
2.624480
 20
0.772329
 30
0.0
 10
2.624353
 20
0.772117
 30
0.0
 10
2.607914
 20
0.696354
 30
0.0
 10
2.606923
 20
0.621135
 30
0.0
 10
2.620394
 20
0.548398
 30
0.0
 10
2.647338
 20
0.480083
 30
0.0
 10
2.686767
 20
0.418130
 30
0.0
 10
2.737694
 20
0.364477
 30
0.0
 10
2.799129
 20
0.321064
 30
0.0
 10
2.870085
 20
0.289831
 30
0.0
 10
2.945843
 20
0.273399
 30
0.0
 10
3.021056
 20
0.272415
 30
0.0
 10
3.093786
 20
0.285889
 30
0.0
 10
3.162094
 20
0.312833
 30
0.0
 10
3.224041
 20
0.352261
 30
0.0
 10
3.277689
 20
0.403184
 30
0.0
 10
3.321098
 20
0.464614
 30
0.0
 10
3.352331
 20
0.535563
 30
0.0
 10
3.352331
 20
0.535817
 30
0.0
 10
3.430258
 20
0.775678
 30
0.0
 10
3.589954
 20
0.757095
 30
0.0
 10
3.750569
 20
0.749964
 30
0.0
 10
3.968973
 20
0.760592
 30
0.0
 10
4.183807
 20
0.792079
 30
0.0
 10
4.393669
 20
0.843853
 30
0.0
 10
4.597155
 20
0.915346
 30
0.0
 10
4.792864
 20
1.005989
 30
0.0
 10
4.979393
 20
1.115211
 30
0.0
 10
5.155339
 20
1.242442
 30
0.0
 10
5.319301
 20
1.387114
 30
0.0
 10
5.521046
 20
1.240519
 30
0.0
 10
5.521258
 20
1.240519
 30
0.0
 10
5.521470
 20
1.240307
 30
0.0
 10
5.588445
 20
1.201258
 30
0.0
 10
5.659678
 20
1.177070
 30
0.0
 10
5.733019
 20
1.167403
 30
0.0
 10
5.806317
 20
1.171918
 30
0.0
 10
5.877424
 20
1.190272
 30
0.0
 10
5.944189
 20
1.222127
 30
0.0
 10
6.004463
 20
1.267141
 30
0.0
 10
6.056095
 20
1.324974
 30
0.0
 10
6.095144
 20
1.391949
 30
0.0
 10
6.119332
 20
1.463182
 30
0.0
 10
6.128998
 20
1.536522
 30
0.0
 10
6.124484
 20
1.609820
 30
0.0
 10
6.106129
 20
1.680926
 30
0.0
 10
6.074275
 20
1.747691
 30
0.0
 10
6.029261
 20
1.807965
 30
0.0
 10
5.971429
 20
1.859597
 30
0.0
 10
5.971175
 20
1.859724
 30
0.0
 10
5.767198
 20
2.007932
 30
0.0
 10
5.821032
 20
2.124998
 30
0.0
 10
5.867970
 20
2.244656
 30
0.0
 10
5.907939
 20
2.366601
 30
0.0
 10
5.940868
 20
2.490526
 30
0.0
 10
5.966683
 20
2.616126
 30
0.0
 10
5.985314
 20
2.743095
 30
0.0
 10
5.996689
 20
2.871125
 30
0.0
 10
6.000734
 20
2.999913
 30
0.0
 10
5.996874
 20
3.128768
 30
0.0
 10
5.985678
 20
3.256877
 30
0.0
 10
5.967216
 20
3.383932
 30
0.0
 10
5.941561
 20
3.509627
 30
0.0
 10
5.908783
 20
3.633656
 30
0.0
 10
5.868956
 20
3.755712
 30
0.0
 10
5.822150
 20
3.875489
 30
0.0
 10
5.768438
 20
3.992679
 30
0.0
 10
5.971217
 20
4.140019
 30
0.0
 10
5.971217
 20
4.140104
 30
0.0
 10
5.971429
 20
4.140273
 30
0.0
 10
6.029252
 20
4.191903
 30
0.0
 10
6.074260
 20
4.252173
 30
0.0
 10
6.106110
 20
4.318932
 30
0.0
 10
6.124463
 20
4.390031
 30
0.0
 10
6.128979
 20
4.463323
 30
0.0
 10
6.119316
 20
4.536657
 30
0.0
 10
6.095135
 20
4.607884
 30
0.0
 10
6.056095
 20
4.674855
 30
0.0
 10
5.992460
 20
4.743104
 30
0.0
 10
5.915388
 20
4.793333
 30
0.0
 10
5.828561
 20
4.823732
 30
0.0
 10
5.735659
 20
4.832489
 30
0.0
 10
5.735659
 20
4.832405
 30
0.0
 10
5.678457
 20
4.826452
 30
0.0
 10
5.623094
 20
4.812099
 30
0.0
 10
5.570487
 20
4.789656
 30
0.0
 10
5.521554
 20
4.759438
 30
0.0
 10
5.521343
 20
4.759268
 30
0.0
 10
5.317779
 20
4.611350
 30
0.0
 10
5.154061
 20
4.756070
 30
0.0
 10
4.978359
 20
4.883385
 30
0.0
 10
4.792069
 20
4.992726
 30
0.0
 10
4.596592
 20
5.083523
 30
0.0
 10
4.393326
 20
5.155205
 30
0.0
 10
4.183670
 20
5.207203
 30
0.0
 10
3.969023
 20
5.238945
 30
0.0
 10
3.750785
 20
5.249864
 30
0.0
 10
3.590158
 20
5.242981
 30
0.0
 10
3.430432
 20
5.224645
 30
0.0
 10
3.352670
 20
5.464011
 30
0.0
 10
3.352458
 20
5.464011
 30
0.0
 10
3.352458
 20
5.464222
 30
0.0
 10
3.328590
 20
5.521488
 30
0.0
 10
3.296483
 20
5.573177
 30
0.0
 10
3.257073
 20
5.618619
 30
0.0
 10
3.211294
 20
5.657144
 30
0.0
 10
3.160082
 20
5.688082
 30
0.0
 10
3.104372
 20
5.710765
 30
0.0
 10
3.045098
 20
5.724521
 30
0.0
 10
2.983197
 20
5.728682
 30
0.0
 10
2.983155
 20
5.728682
 30
0.0
 10
2.983113
 20
5.728682
 30
0.0
 10
2.982906
 20
5.728764
 30
0.0
  0
LWPOLYLINE
  5
105
100
AcDbEntity
  8
Layer_1
 62
7
100
AcDbPolyline
 90
19
 70
0
 10
2.981501
 20
5.488490
 30
0.0
 10
3.027827
 20
5.482847
 30
0.0
 10
3.068915
 20
5.463169
 30
0.0
 10
3.101725
 20
5.431563
 30
0.0
 10
3.123218
 20
5.390139
 30
0.0
 10
3.129666
 20
5.333982
 30
0.0
 10
3.114588
 20
5.281457
 30
0.0
 10
3.080953
 20
5.238388
 30
0.0
 10
3.031730
 20
5.210594
 30
0.0
 10
2.975573
 20
5.204147
 30
0.0
 10
2.923048
 20
5.219225
 30
0.0
 10
2.879979
 20
5.252859
 30
0.0
 10
2.852186
 20
5.302082
 30
0.0
 10
2.845738
 20
5.358240
 30
0.0
 10
2.860816
 20
5.410764
 30
0.0
 10
2.894450
 20
5.453834
 30
0.0
 10
2.943673
 20
5.481627
 30
0.0
 10
2.981501
 20
5.488490
 30
0.0
 10
2.981501
 20
5.488490
 30
0.0
  0
LWPOLYLINE
  5
106
100
AcDbEntity
  8
Layer_1
 62
7
100
AcDbPolyline
 90
66
 70
0
 10
3.750569
 20
4.949980
 30
0.0
 10
3.943305
 20
4.940440
 30
0.0
 10
4.132777
 20
4.912168
 30
0.0
 10
4.317706
 20
4.865695
 30
0.0
 10
4.496813
 20
4.801549
 30
0.0
 10
4.668820
 20
4.720261
 30
0.0
 10
4.832447
 20
4.622360
 30
0.0
 10
4.986416
 20
4.508376
 30
0.0
 10
5.129448
 20
4.378838
 30
0.0
 10
5.258986
 20
4.235806
 30
0.0
 10
5.372970
 20
4.081837
 30
0.0
 10
5.470871
 20
3.918210
 30
0.0
 10
5.552159
 20
3.746203
 30
0.0
 10
5.616305
 20
3.567096
 30
0.0
 10
5.662779
 20
3.382168
 30
0.0
 10
5.691050
 20
3.192696
 30
0.0
 10
5.700591
 20
2.999959
 30
0.0
 10
5.691046
 20
2.807226
 30
0.0
 10
5.662771
 20
2.617757
 30
0.0
 10
5.616295
 20
2.432832
 30
0.0
 10
5.552148
 20
2.253728
 30
0.0
 10
5.470858
 20
2.081725
 30
0.0
 10
5.372956
 20
1.918102
 30
0.0
 10
5.258971
 20
1.764136
 30
0.0
 10
5.129434
 20
1.621107
 30
0.0
 10
4.986402
 20
1.491573
 30
0.0
 10
4.832434
 20
1.377592
 30
0.0
 10
4.668808
 20
1.279693
 30
0.0
 10
4.496803
 20
1.198407
 30
0.0
 10
4.317699
 20
1.134263
 30
0.0
 10
4.132772
 20
1.087791
 30
0.0
 10
3.943303
 20
1.059520
 30
0.0
 10
3.750569
 20
1.049981
 30
0.0
 10
3.551196
 20
1.060050
 30
0.0
 10
3.357582
 20
1.089601
 30
0.0
 10
3.170708
 20
1.137653
 30
0.0
 10
2.991553
 20
1.203225
 30
0.0
 10
2.821098
 20
1.285339
 30
0.0
 10
2.660323
 20
1.383013
 30
0.0
 10
2.510208
 20
1.495268
 30
0.0
 10
2.371732
 20
1.621123
 30
0.0
 10
2.245877
 20
1.759598
 30
0.0
 10
2.133623
 20
1.909713
 30
0.0
 10
2.035949
 20
2.070488
 30
0.0
 10
1.953835
 20
2.240943
 30
0.0
 10
1.888263
 20
2.420098
 30
0.0
 10
1.840211
 20
2.606973
 30
0.0
 10
1.810660
 20
2.800586
 30
0.0
 10
1.800591
 20
2.999959
 30
0.0
 10
1.810656
 20
3.199336
 30
0.0
 10
1.840204
 20
3.392953
 30
0.0
 10
1.888253
 20
3.579830
 30
0.0
 10
1.953823
 20
3.758989
 30
0.0
 10
2.035935
 20
3.929447
 30
0.0
 10
2.133608
 20
4.090226
 30
0.0
 10
2.245863
 20
4.240345
 30
0.0
 10
2.371718
 20
4.378823
 30
0.0
 10
2.510193
 20
4.504681
 30
0.0
 10
2.660310
 20
4.616939
 30
0.0
 10
2.821086
 20
4.714615
 30
0.0
 10
2.991543
 20
4.796731
 30
0.0
 10
3.170700
 20
4.862305
 30
0.0
 10
3.357577
 20
4.910358
 30
0.0
 10
3.551193
 20
4.939910
 30
0.0
 10
3.750569
 20
4.949980
 30
0.0
 10
3.750569
 20
4.949980
 30
0.0
  0
LWPOLYLINE
  5
107
100
AcDbEntity
  8
Layer_1
 62
7
100
AcDbPolyline
 90
20
 70
0
 10
5.751812
 20
4.592338
 30
0.0
 10
5.783596
 20
4.587349
 30
0.0
 10
5.813102
 20
4.575537
 30
0.0
 10
5.839258
 20
4.557481
 30
0.0
 10
5.860994
 20
4.533757
 30
0.0
 10
5.884501
 20
4.482335
 30
0.0
 10
5.886406
 20
4.427713
 30
0.0
 10
5.867729
 20
4.376349
 30
0.0
 10
5.829491
 20
4.334700
 30
0.0
 10
5.778069
 20
4.311193
 30
0.0
 10
5.723447
 20
4.309288
 30
0.0
 10
5.672084
 20
4.327965
 30
0.0
 10
5.630434
 20
4.366202
 30
0.0
 10
5.606936
 20
4.417631
 30
0.0
 10
5.605042
 20
4.472256
 30
0.0
 10
5.623730
 20
4.523617
 30
0.0
 10
5.661978
 20
4.565259
 30
0.0
 10
5.704604
 20
4.586400
 30
0.0
 10
5.751812
 20
4.592338
 30
0.0
 10
5.751812
 20
4.592338
 30
0.0
  0
LWPOLYLINE
  5
108
100
AcDbEntity
  8
Layer_1
 62
7
100
AcDbPolyline
 90
18
 70
0
 10
1.283165
 20
3.142504
 30
0.0
 10
1.338567
 20
3.131276
 30
0.0
 10
1.383857
 20
3.100703
 30
0.0
 10
1.414416
 20
3.055405
 30
0.0
 10
1.425627
 20
3.000001
 30
0.0
 10
1.414416
 20
2.944596
 30
0.0
 10
1.383856
 20
2.899299
 30
0.0
 10
1.338566
 20
2.868726
 30
0.0
 10
1.283165
 20
2.857498
 30
0.0
 10
1.227750
 20
2.868712
 30
0.0
 10
1.182447
 20
2.899282
 30
0.0
 10
1.151877
 20
2.944585
 30
0.0
 10
1.140662
 20
3.000001
 30
0.0
 10
1.151877
 20
3.055416
 30
0.0
 10
1.182447
 20
3.100719
 30
0.0
 10
1.227750
 20
3.131289
 30
0.0
 10
1.283165
 20
3.142504
 30
0.0
 10
1.283165
 20
3.142504
 30
0.0
  0
LWPOLYLINE
  5
109
100
AcDbEntity
  8
Layer_1
 62
7
100
AcDbPolyline
 90
20
 70
0
 10
5.749786
 20
1.692463
 30
0.0
 10
5.791691
 20
1.684905
 30
0.0
 10
5.829491
 20
1.665302
 30
0.0
 10
5.867729
 20
1.623652
 30
0.0
 10
5.886406
 20
1.572289
 30
0.0
 10
5.884501
 20
1.517667
 30
0.0
 10
5.860994
 20
1.466244
 30
0.0
 10
5.819351
 20
1.428024
 30
0.0
 10
5.767999
 20
1.409354
 30
0.0
 10
5.713391
 20
1.411253
 30
0.0
 10
5.661978
 20
1.434742
 30
0.0
 10
5.623730
 20
1.476384
 30
0.0
 10
5.605042
 20
1.527746
 30
0.0
 10
5.606936
 20
1.582370
 30
0.0
 10
5.630434
 20
1.633800
 30
0.0
 10
5.654137
 20
1.659207
 30
0.0
 10
5.682849
 20
1.677904
 30
0.0
 10
5.715191
 20
1.689215
 30
0.0
 10
5.749786
 20
1.692463
 30
0.0
 10
5.749786
 20
1.692463
 30
0.0
  0
LWPOLYLINE
  5
10a
100
AcDbEntity
  8
Layer_1
 62
7
100
AcDbPolyline
 90
19
 70
0
 10
2.989727
 20
0.796353
 30
0.0
 10
3.031730
 20
0.789406
 30
0.0
 10
3.080954
 20
0.761614
 30
0.0
 10
3.114588
 20
0.718544
 30
0.0
 10
3.129666
 20
0.666020
 30
0.0
 10
3.123218
 20
0.609862
 30
0.0
 10
3.095435
 20
0.560625
 30
0.0
 10
3.052367
 20
0.526979
 30
0.0
 10
2.999839
 20
0.511892
 30
0.0
 10
2.943673
 20
0.518333
 30
0.0
 10
2.894437
 20
0.546130
 30
0.0
 10
2.860797
 20
0.589211
 30
0.0
 10
2.845723
 20
0.641750
 30
0.0
 10
2.852186
 20
0.697920
 30
0.0
 10
2.873041
 20
0.738467
 30
0.0
 10
2.904788
 20
0.769727
 30
0.0
 10
2.944619
 20
0.789691
 30
0.0
 10
2.989727
 20
0.796353
 30
0.0
 10
2.989727
 20
0.796353
 30
0.0
  0
LWPOLYLINE
  5
10b
100
AcDbEntity
  8
Layer_1
 62
7
100
AcDbPolyline
 90
8
 70
1
 10
-0.000000
 20
6.000000
 30
0.0
 10
-0.000000
 20
5.249988
 30
0.0
 10
0.021249
 20
5.249988
 30
0.0
 10
0.021249
 20
5.978710
 30
0.0
 10
0.750013
 20
5.978710
 30
0.0
 10
0.750013
 20
6.000000
 30
0.0
 10
-0.000000
 20
6.000000
 30
0.0
 10
-0.000000
 20
6.000000
 30
0.0
  0
ENDSEC
  0
SECTION
  2
OBJECTS
  0
DICTIONARY
  5
C
330
0
100
AcDbDictionary
  3
ACAD_GROUP
350
D
  3
ACAD_MLINESTYLE
350
17
  0
DICTIONARY
  5
D
330
C
100
AcDbDictionary
  0
DICTIONARY
  5
1A
330
C
100
AcDbDictionary
  0
DICTIONARY
  5
17
330
C
100
AcDbDictionary
  3
STANDARD
350
18
  0
DICTIONARY
  5
19
330
C
100
AcDbDictionary
  0
ENDSEC
  0
EOF
