  0
SECTION
  2
HEADER
  9
$ACADVER
  1
AC1014
  9
$HANDSEED
  5
FFFF
  9
$MEASUREMENT
 70
     1
  0
ENDSEC
  0
SECTION
  2
TABLES
  0
TABLE
  2
VPORT
  5
8
330
0
100
AcDbSymbolTable
 70
     4
  0
VPORT
  5
2E
330
8
100
AcDbSymbolTableRecord
100
AcDbViewportTableRecord
  2
*ACTIVE
 70
     0
 10
0.0
 20
0.0
 11
1.0
 21
1.0
 12
210.0
 22
148.5
 13
0.0
 23
0.0
 14
10.0
 24
10.0
 15
10.0
 25
10.0
 16
0.0
 26
0.0
 36
1.0
 17
0.0
 27
0.0
 37
0.0
 40
341.0
 41
1.24
 42
50.0
 43
0.0
 44
0.0
 50
0.0
 51
0.0
 71
     0
 72
   100
 73
     1
 74
     3
 75
     0
 76
     0
 77
     0
 78
     0
  0
ENDTAB
  0
TABLE
  2
LTYPE
  5
5
330
0
100
AcDbSymbolTable
 70
     1
  0
LTYPE
  5
14
330
5
100
AcDbSymbolTableRecord
100
AcDbLinetypeTableRecord
  2
BYBLOCK
 70
     0
  3

 72
    65
 73
     0
 40
0.0
  0
LTYPE
  5
15
330
5
100
AcDbSymbolTableRecord
100
AcDbLinetypeTableRecord
  2
BYLAYER
 70
     0
  3

 72
    65
 73
     0
 40
0.0
  0
LTYPE
  5
16
330
5
100
AcDbSymbolTableRecord
100
AcDbLinetypeTableRecord
  2
CONTINUOUS
 70
     0
  3
Solid line
 72
    65
 73
     0
 40
0.0
  0
ENDTAB
  0
TABLE
  2
LAYER
  5
2
100
AcDbSymbolTable
 70
2
  0
LAYER
  5
50
100
AcDbSymbolTableRecord
100
AcDbLayerTableRecord
  2
0
 70
0
  6
CONTINUOUS
  0
LAYER
  5
51
100
AcDbSymbolTableRecord
100
AcDbLayerTableRecord
  2
Layer_1
 70
0
  6
CONTINUOUS
  0
ENDTAB
  0
TABLE
  2
STYLE
  5
3
330
0
100
AcDbSymbolTable
 70
     1
  0
STYLE
  5
11
330
3
100
AcDbSymbolTableRecord
100
AcDbTextStyleTableRecord
  2
STANDARD
 70
     0
 40
0.0
 41
1.0
 50
0.0
 71
     0
 42
2.5
  3
txt
  4

  0
ENDTAB
  0
TABLE
  2
VIEW
  5
6
330
0
100
AcDbSymbolTable
 70
     0
  0
ENDTAB
  0
TABLE
  2
UCS
  5
7
330
0
100
AcDbSymbolTable
 70
     0
  0
ENDTAB
  0
TABLE
  2
APPID
  5
9
330
0
100
AcDbSymbolTable
 70
     2
  0
APPID
  5
12
330
9
100
AcDbSymbolTableRecord
100
AcDbRegAppTableRecord
  2
ACAD
 70
     0
  0
ENDTAB
  0
TABLE
  2
DIMSTYLE
  5
A
330
0
100
AcDbSymbolTable
 70
     1
  0
DIMSTYLE
105
27
330
A
100
AcDbSymbolTableRecord
100
AcDbDimStyleTableRecord
  2
ISO-25
 70
     0
  3

  4

  5

  6

  7

 40
1.0
 41
2.5
 42
0.625
 43
3.75
 44
1.25
 45
0.0
 46
0.0
 47
0.0
 48
0.0
140
2.5
141
2.5
142
0.0
143
0.03937007874016
144
1.0
145
0.0
146
1.0
147
0.625
 71
     0
 72
     0
 73
     0
 74
     0
 75
     0
 76
     0
 77
     1
 78
     8
170
     0
171
     3
172
     1
173
     0
174
     0
175
     0
176
     0
177
     0
178
     0
270
     2
271
     2
272
     2
273
     2
274
     3
340
11
275
     0
280
     0
281
     0
282
     0
283
     0
284
     8
285
     0
286
     0
287
     3
288
     0
  0
ENDTAB
  0
TABLE
  2
BLOCK_RECORD
  5
1
330
0
100
AcDbSymbolTable
 70
     1
  0
BLOCK_RECORD
  5
1F
330
1
100
AcDbSymbolTableRecord
100
AcDbBlockTableRecord
  2
*MODEL_SPACE
  0
BLOCK_RECORD
  5
1B
330
1
100
AcDbSymbolTableRecord
100
AcDbBlockTableRecord
  2
*PAPER_SPACE
  0
ENDTAB
  0
ENDSEC
  0
SECTION
  2
BLOCKS
  0
BLOCK
  5
20
330
1F
100
AcDbEntity
  8
0
100
AcDbBlockBegin
  2
*MODEL_SPACE
 70
     0
 10
0.0
 20
0.0
 30
0.0
  3
*MODEL_SPACE
  1

  0
ENDBLK
  5
21
330
1F
100
AcDbEntity
  8
0
100
AcDbBlockEnd
  0
BLOCK
  5
1C
330
1B
100
AcDbEntity
 67
     1
  8
0
100
AcDbBlockBegin
  2
*PAPER_SPACE
  1

  0
ENDBLK
  5
1D
330
1B
100
AcDbEntity
 67
     1
  8
0
100
AcDbBlockEnd
  0
ENDSEC
  0
SECTION
  2
ENTITIES
  0
LWPOLYLINE
  5
100
100
AcDbEntity
  8
Layer_1
 62
7
100
AcDbPolyline
 90
8
 70
1
 10
0.000000
 20
6.000001
 30
0.0
 10
0.000000
 20
5.249989
 30
0.0
 10
0.021249
 20
5.249989
 30
0.0
 10
0.021249
 20
5.978711
 30
0.0
 10
0.750011
 20
5.978711
 30
0.0
 10
0.750011
 20
6.000001
 30
0.0
 10
0.000000
 20
6.000001
 30
0.0
 10
0.000000
 20
6.000001
 30
0.0
  0
LWPOLYLINE
  5
101
100
AcDbEntity
  8
Layer_1
 62
7
100
AcDbPolyline
 90
9
 70
1
 10
5.999989
 20
6.000001
 30
0.0
 10
5.999989
 20
5.978711
 30
0.0
 10
6.728751
 20
5.978711
 30
0.0
 10
6.728751
 20
5.249989
 30
0.0
 10
6.750000
 20
5.249989
 30
0.0
 10
6.750000
 20
5.989335
 30
0.0
 10
6.750000
 20
6.000001
 30
0.0
 10
5.999989
 20
6.000001
 30
0.0
 10
5.999989
 20
6.000001
 30
0.0
  0
LWPOLYLINE
  5
102
100
AcDbEntity
  8
Layer_1
 62
7
100
AcDbPolyline
 90
8
 70
1
 10
0.000007
 20
0.599984
 30
0.0
 10
0.000007
 20
0.000000
 30
0.0
 10
0.750018
 20
0.000000
 30
0.0
 10
0.750018
 20
0.021250
 30
0.0
 10
0.021257
 20
0.021250
 30
0.0
 10
0.021257
 20
0.599984
 30
0.0
 10
0.000007
 20
0.599984
 30
0.0
 10
0.000007
 20
0.599984
 30
0.0
  0
LWPOLYLINE
  5
103
100
AcDbEntity
  8
Layer_1
 62
7
100
AcDbPolyline
 90
8
 70
1
 10
6.728751
 20
0.599984
 30
0.0
 10
6.728751
 20
0.021250
 30
0.0
 10
5.999989
 20
0.021250
 30
0.0
 10
5.999989
 20
0.000000
 30
0.0
 10
6.750000
 20
0.000000
 30
0.0
 10
6.750000
 20
0.599984
 30
0.0
 10
6.728751
 20
0.599984
 30
0.0
 10
6.728751
 20
0.599984
 30
0.0
  0
LWPOLYLINE
  5
104
100
AcDbEntity
  8
Layer_1
 62
7
100
AcDbPolyline
 90
8
 70
1
 10
0.000000
 20
0.599984
 30
0.0
 10
0.000000
 20
0.000000
 30
0.0
 10
0.750011
 20
0.000000
 30
0.0
 10
0.750011
 20
0.021250
 30
0.0
 10
0.021250
 20
0.021250
 30
0.0
 10
0.021250
 20
0.599984
 30
0.0
 10
0.000000
 20
0.599984
 30
0.0
 10
0.000000
 20
0.599984
 30
0.0
  0
LWPOLYLINE
  5
105
100
AcDbEntity
  8
Layer_1
 62
7
100
AcDbPolyline
 90
63
 70
0
 10
0.734370
 20
3.666878
 30
0.0
 10
0.509363
 20
3.661642
 30
0.0
 10
0.561543
 20
3.520890
 30
0.0
 10
0.603939
 20
3.378129
 30
0.0
 10
0.636615
 20
3.233825
 30
0.0
 10
0.659635
 20
3.088449
 30
0.0
 10
0.673062
 20
2.942469
 30
0.0
 10
0.676961
 20
2.796355
 30
0.0
 10
0.671396
 20
2.650574
 30
0.0
 10
0.656429
 20
2.505598
 30
0.0
 10
0.632126
 20
2.361893
 30
0.0
 10
0.598549
 20
2.219930
 30
0.0
 10
0.555762
 20
2.080177
 30
0.0
 10
0.503830
 20
1.943104
 30
0.0
 10
0.442816
 20
1.809179
 30
0.0
 10
0.372784
 20
1.678871
 30
0.0
 10
0.293797
 20
1.552650
 30
0.0
 10
0.205921
 20
1.430984
 30
0.0
 10
0.208895
 20
1.430653
 30
0.0
 10
0.173627
 20
1.377352
 30
0.0
 10
0.147864
 20
1.319337
 30
0.0
 10
0.132043
 20
1.257863
 30
0.0
 10
0.126599
 20
1.194182
 30
0.0
 10
0.134383
 20
1.117049
 30
0.0
 10
0.156692
 20
1.045209
 30
0.0
 10
0.191985
 20
0.980199
 30
0.0
 10
0.238725
 20
0.923560
 30
0.0
 10
0.295371
 20
0.876828
 30
0.0
 10
0.360386
 20
0.841544
 30
0.0
 10
0.432229
 20
0.819246
 30
0.0
 10
0.509363
 20
0.811473
 30
0.0
 10
0.586489
 20
0.819256
 30
0.0
 10
0.658323
 20
0.841560
 30
0.0
 10
0.723329
 20
0.876847
 30
0.0
 10
0.779967
 20
0.923579
 30
0.0
 10
0.826699
 20
0.980216
 30
0.0
 10
0.861986
 20
1.045222
 30
0.0
 10
0.884291
 20
1.117057
 30
0.0
 10
0.892073
 20
1.194182
 30
0.0
 10
0.880978
 20
1.285019
 30
0.0
 10
0.848636
 20
1.370626
 30
0.0
 10
0.848975
 20
1.370908
 30
0.0
 10
0.843300
 20
1.393729
 30
0.0
 10
0.854921
 20
1.425388
 30
0.0
 10
0.884199
 20
1.442125
 30
0.0
 10
0.883042
 20
1.445212
 30
0.0
 10
1.147421
 20
1.506346
 30
0.0
 10
1.399835
 20
1.597703
 30
0.0
 10
1.637999
 20
1.717568
 30
0.0
 10
1.859629
 20
1.864229
 30
0.0
 10
2.062443
 20
2.035972
 30
0.0
 10
2.244156
 20
2.231085
 30
0.0
 10
2.402484
 20
2.447854
 30
0.0
 10
2.535143
 20
2.684565
 30
0.0
 10
2.370377
 20
2.897585
 30
0.0
 10
2.183474
 20
3.087498
 30
0.0
 10
1.976883
 20
3.252968
 30
0.0
 10
1.753055
 20
3.392659
 30
0.0
 10
1.514440
 20
3.505232
 30
0.0
 10
1.263489
 20
3.589352
 30
0.0
 10
1.002651
 20
3.643682
 30
0.0
 10
0.734379
 20
3.666886
 30
0.0
 10
0.734370
 20
3.666878
 30
0.0
  0
LWPOLYLINE
  5
106
100
AcDbEntity
  8
Layer_1
 62
7
100
AcDbPolyline
 90
18
 70
0
 10
0.510246
 20
1.360042
 30
0.0
 10
0.573733
 20
1.347429
 30
0.0
 10
0.627559
 20
1.311478
 30
0.0
 10
0.663528
 20
1.257664
 30
0.0
 10
0.676162
 20
1.194181
 30
0.0
 10
0.663528
 20
1.130699
 30
0.0
 10
0.627559
 20
1.076885
 30
0.0
 10
0.573733
 20
1.040934
 30
0.0
 10
0.510246
 20
1.028321
 30
0.0
 10
0.445688
 20
1.041358
 30
0.0
 10
0.392969
 20
1.076904
 30
0.0
 10
0.357423
 20
1.129623
 30
0.0
 10
0.344384
 20
1.194181
 30
0.0
 10
0.357422
 20
1.258740
 30
0.0
 10
0.392968
 20
1.311459
 30
0.0
 10
0.445688
 20
1.347005
 30
0.0
 10
0.510246
 20
1.360042
 30
0.0
 10
0.510246
 20
1.360042
 30
0.0
  0
LWPOLYLINE
  5
107
100
AcDbEntity
  8
Layer_1
 62
7
100
AcDbPolyline
 90
63
 70
0
 10
1.776551
 20
0.705781
 30
0.0
 10
1.781787
 20
0.480774
 30
0.0
 10
1.922538
 20
0.532953
 30
0.0
 10
2.065300
 20
0.575349
 30
0.0
 10
2.209604
 20
0.608025
 30
0.0
 10
2.354980
 20
0.631045
 30
0.0
 10
2.500960
 20
0.644473
 30
0.0
 10
2.647074
 20
0.648372
 30
0.0
 10
2.792854
 20
0.642806
 30
0.0
 10
2.937831
 20
0.627840
 30
0.0
 10
3.081536
 20
0.603536
 30
0.0
 10
3.223499
 20
0.569959
 30
0.0
 10
3.363252
 20
0.527173
 30
0.0
 10
3.500325
 20
0.475241
 30
0.0
 10
3.634250
 20
0.414227
 30
0.0
 10
3.764558
 20
0.344195
 30
0.0
 10
3.890779
 20
0.265208
 30
0.0
 10
4.012445
 20
0.177331
 30
0.0
 10
4.012775
 20
0.180306
 30
0.0
 10
4.066076
 20
0.145038
 30
0.0
 10
4.124091
 20
0.119275
 30
0.0
 10
4.185566
 20
0.103453
 30
0.0
 10
4.249247
 20
0.098010
 30
0.0
 10
4.326379
 20
0.105794
 30
0.0
 10
4.398220
 20
0.128102
 30
0.0
 10
4.463229
 20
0.163396
 30
0.0
 10
4.519869
 20
0.210135
 30
0.0
 10
4.566600
 20
0.266782
 30
0.0
 10
4.601884
 20
0.331796
 30
0.0
 10
4.624182
 20
0.403640
 30
0.0
 10
4.631955
 20
0.480774
 30
0.0
 10
4.624173
 20
0.557899
 30
0.0
 10
4.601869
 20
0.629734
 30
0.0
 10
4.566582
 20
0.694740
 30
0.0
 10
4.519850
 20
0.751378
 30
0.0
 10
4.463212
 20
0.798109
 30
0.0
 10
4.398207
 20
0.833397
 30
0.0
 10
4.326372
 20
0.855701
 30
0.0
 10
4.249247
 20
0.863484
 30
0.0
 10
4.158410
 20
0.852388
 30
0.0
 10
4.072803
 20
0.820047
 30
0.0
 10
4.072520
 20
0.820386
 30
0.0
 10
4.049700
 20
0.814710
 30
0.0
 10
4.018040
 20
0.826331
 30
0.0
 10
4.001303
 20
0.855610
 30
0.0
 10
3.998217
 20
0.854453
 30
0.0
 10
3.937083
 20
1.118832
 30
0.0
 10
3.845726
 20
1.371245
 30
0.0
 10
3.725861
 20
1.609409
 30
0.0
 10
3.579200
 20
1.831040
 30
0.0
 10
3.407456
 20
2.033854
 30
0.0
 10
3.212344
 20
2.215567
 30
0.0
 10
2.995575
 20
2.373894
 30
0.0
 10
2.758864
 20
2.506553
 30
0.0
 10
2.545844
 20
2.341788
 30
0.0
 10
2.355931
 20
2.154885
 30
0.0
 10
2.190460
 20
1.948294
 30
0.0
 10
2.050770
 20
1.724465
 30
0.0
 10
1.938197
 20
1.485850
 30
0.0
 10
1.854076
 20
1.234899
 30
0.0
 10
1.799746
 20
0.974062
 30
0.0
 10
1.776543
 20
0.705789
 30
0.0
 10
1.776551
 20
0.705781
 30
0.0
  0
LWPOLYLINE
  5
108
100
AcDbEntity
  8
Layer_1
 62
7
100
AcDbPolyline
 90
18
 70
0
 10
4.083386
 20
0.481657
 30
0.0
 10
4.096000
 20
0.545144
 30
0.0
 10
4.131951
 20
0.598970
 30
0.0
 10
4.185765
 20
0.634938
 30
0.0
 10
4.249247
 20
0.647573
 30
0.0
 10
4.312730
 20
0.634938
 30
0.0
 10
4.366544
 20
0.598970
 30
0.0
 10
4.402494
 20
0.545144
 30
0.0
 10
4.415108
 20
0.481657
 30
0.0
 10
4.402070
 20
0.417099
 30
0.0
 10
4.366525
 20
0.364379
 30
0.0
 10
4.313806
 20
0.328833
 30
0.0
 10
4.249247
 20
0.315795
 30
0.0
 10
4.184689
 20
0.328833
 30
0.0
 10
4.131970
 20
0.364379
 30
0.0
 10
4.096424
 20
0.417099
 30
0.0
 10
4.083386
 20
0.481657
 30
0.0
 10
4.083386
 20
0.481657
 30
0.0
  0
LWPOLYLINE
  5
109
100
AcDbEntity
  8
Layer_1
 62
7
100
AcDbPolyline
 90
63
 70
0
 10
4.207281
 20
2.508034
 30
0.0
 10
4.432288
 20
2.513270
 30
0.0
 10
4.380109
 20
2.654021
 30
0.0
 10
4.337713
 20
2.796783
 30
0.0
 10
4.305037
 20
2.941087
 30
0.0
 10
4.282017
 20
3.086463
 30
0.0
 10
4.268589
 20
3.232443
 30
0.0
 10
4.264690
 20
3.378557
 30
0.0
 10
4.270256
 20
3.524337
 30
0.0
 10
4.285222
 20
3.669314
 30
0.0
 10
4.309526
 20
3.813019
 30
0.0
 10
4.343103
 20
3.954982
 30
0.0
 10
4.385889
 20
4.094735
 30
0.0
 10
4.437821
 20
4.231808
 30
0.0
 10
4.498835
 20
4.365733
 30
0.0
 10
4.568868
 20
4.496041
 30
0.0
 10
4.647854
 20
4.622262
 30
0.0
 10
4.735731
 20
4.743928
 30
0.0
 10
4.732756
 20
4.744258
 30
0.0
 10
4.768024
 20
4.797559
 30
0.0
 10
4.793787
 20
4.855574
 30
0.0
 10
4.809609
 20
4.917049
 30
0.0
 10
4.815052
 20
4.980730
 30
0.0
 10
4.807268
 20
5.057862
 30
0.0
 10
4.784960
 20
5.129703
 30
0.0
 10
4.749666
 20
5.194712
 30
0.0
 10
4.702927
 20
5.251352
 30
0.0
 10
4.646280
 20
5.298083
 30
0.0
 10
4.581266
 20
5.333367
 30
0.0
 10
4.509422
 20
5.355665
 30
0.0
 10
4.432288
 20
5.363438
 30
0.0
 10
4.355163
 20
5.355656
 30
0.0
 10
4.283328
 20
5.333352
 30
0.0
 10
4.218323
 20
5.298065
 30
0.0
 10
4.161684
 20
5.251333
 30
0.0
 10
4.114953
 20
5.194695
 30
0.0
 10
4.079665
 20
5.129690
 30
0.0
 10
4.057361
 20
5.057855
 30
0.0
 10
4.049578
 20
4.980730
 30
0.0
 10
4.060674
 20
4.889893
 30
0.0
 10
4.093015
 20
4.804286
 30
0.0
 10
4.092676
 20
4.804003
 30
0.0
 10
4.098352
 20
4.781183
 30
0.0
 10
4.086731
 20
4.749523
 30
0.0
 10
4.057452
 20
4.732786
 30
0.0
 10
4.058609
 20
4.729700
 30
0.0
 10
3.794230
 20
4.668566
 30
0.0
 10
3.541817
 20
4.577209
 30
0.0
 10
3.303653
 20
4.457344
 30
0.0
 10
3.082022
 20
4.310683
 30
0.0
 10
2.879208
 20
4.138939
 30
0.0
 10
2.697496
 20
3.943827
 30
0.0
 10
2.539168
 20
3.727058
 30
0.0
 10
2.406509
 20
3.490347
 30
0.0
 10
2.571274
 20
3.277327
 30
0.0
 10
2.758177
 20
3.087414
 30
0.0
 10
2.964768
 20
2.921943
 30
0.0
 10
3.188597
 20
2.782253
 30
0.0
 10
3.427212
 20
2.669680
 30
0.0
 10
3.678163
 20
2.585559
 30
0.0
 10
3.939000
 20
2.531229
 30
0.0
 10
4.207273
 20
2.508026
 30
0.0
 10
4.207281
 20
2.508034
 30
0.0
  0
LWPOLYLINE
  5
10a
100
AcDbEntity
  8
Layer_1
 62
7
100
AcDbPolyline
 90
18
 70
0
 10
4.431405
 20
4.814869
 30
0.0
 10
4.367918
 20
4.827483
 30
0.0
 10
4.314092
 20
4.863434
 30
0.0
 10
4.278124
 20
4.917248
 30
0.0
 10
4.265489
 20
4.980730
 30
0.0
 10
4.278124
 20
5.044213
 30
0.0
 10
4.314093
 20
5.098027
 30
0.0
 10
4.367918
 20
5.133977
 30
0.0
 10
4.431405
 20
5.146591
 30
0.0
 10
4.495963
 20
5.133553
 30
0.0
 10
4.548683
 20
5.098008
 30
0.0
 10
4.584229
 20
5.045289
 30
0.0
 10
4.597267
 20
4.980730
 30
0.0
 10
4.584229
 20
4.916172
 30
0.0
 10
4.548683
 20
4.863453
 30
0.0
 10
4.495963
 20
4.827907
 30
0.0
 10
4.431405
 20
4.814869
 30
0.0
 10
4.431405
 20
4.814869
 30
0.0
  0
LWPOLYLINE
  5
10b
100
AcDbEntity
  8
Layer_1
 62
7
100
AcDbPolyline
 90
63
 70
0
 10
3.006079
 20
5.251504
 30
0.0
 10
3.000842
 20
5.476511
 30
0.0
 10
2.860091
 20
5.424332
 30
0.0
 10
2.717329
 20
5.381936
 30
0.0
 10
2.573026
 20
5.349260
 30
0.0
 10
2.427649
 20
5.326240
 30
0.0
 10
2.281670
 20
5.312812
 30
0.0
 10
2.135555
 20
5.308913
 30
0.0
 10
1.989775
 20
5.314479
 30
0.0
 10
1.844798
 20
5.329445
 30
0.0
 10
1.701094
 20
5.353749
 30
0.0
 10
1.559130
 20
5.387326
 30
0.0
 10
1.419378
 20
5.430112
 30
0.0
 10
1.282304
 20
5.482044
 30
0.0
 10
1.148379
 20
5.543058
 30
0.0
 10
1.018071
 20
5.613091
 30
0.0
 10
0.891850
 20
5.692077
 30
0.0
 10
0.770184
 20
5.779954
 30
0.0
 10
0.769854
 20
5.776979
 30
0.0
 10
0.716553
 20
5.812247
 30
0.0
 10
0.658538
 20
5.838010
 30
0.0
 10
0.597063
 20
5.853832
 30
0.0
 10
0.533382
 20
5.859275
 30
0.0
 10
0.456250
 20
5.851491
 30
0.0
 10
0.384409
 20
5.829183
 30
0.0
 10
0.319400
 20
5.793889
 30
0.0
 10
0.262760
 20
5.747150
 30
0.0
 10
0.216029
 20
5.690503
 30
0.0
 10
0.180745
 20
5.625489
 30
0.0
 10
0.158447
 20
5.553645
 30
0.0
 10
0.150674
 20
5.476511
 30
0.0
 10
0.158456
 20
5.399386
 30
0.0
 10
0.180760
 20
5.327551
 30
0.0
 10
0.216047
 20
5.262546
 30
0.0
 10
0.262779
 20
5.205908
 30
0.0
 10
0.319417
 20
5.159176
 30
0.0
 10
0.384422
 20
5.123888
 30
0.0
 10
0.456257
 20
5.101584
 30
0.0
 10
0.533382
 20
5.093801
 30
0.0
 10
0.624220
 20
5.104897
 30
0.0
 10
0.709827
 20
5.137238
 30
0.0
 10
0.710109
 20
5.136899
 30
0.0
 10
0.732929
 20
5.142575
 30
0.0
 10
0.764589
 20
5.130954
 30
0.0
 10
0.781326
 20
5.101675
 30
0.0
 10
0.784413
 20
5.102832
 30
0.0
 10
0.845547
 20
4.838453
 30
0.0
 10
0.936903
 20
4.586040
 30
0.0
 10
1.056768
 20
4.347876
 30
0.0
 10
1.203429
 20
4.126245
 30
0.0
 10
1.375173
 20
3.923431
 30
0.0
 10
1.570286
 20
3.741719
 30
0.0
 10
1.787054
 20
3.583391
 30
0.0
 10
2.023765
 20
3.450732
 30
0.0
 10
2.236785
 20
3.615497
 30
0.0
 10
2.426699
 20
3.802400
 30
0.0
 10
2.592169
 20
4.008992
 30
0.0
 10
2.731859
 20
4.232820
 30
0.0
 10
2.844433
 20
4.471435
 30
0.0
 10
2.928553
 20
4.722386
 30
0.0
 10
2.982883
 20
4.983223
 30
0.0
 10
3.006086
 20
5.251496
 30
0.0
 10
3.006079
 20
5.251504
 30
0.0
  0
LWPOLYLINE
  5
10c
100
AcDbEntity
  8
Layer_1
 62
7
100
AcDbPolyline
 90
18
 70
0
 10
0.699243
 20
5.475628
 30
0.0
 10
0.686629
 20
5.412141
 30
0.0
 10
0.650679
 20
5.358315
 30
0.0
 10
0.596865
 20
5.322347
 30
0.0
 10
0.533382
 20
5.309712
 30
0.0
 10
0.469899
 20
5.322347
 30
0.0
 10
0.416085
 20
5.358316
 30
0.0
 10
0.380135
 20
5.412141
 30
0.0
 10
0.367521
 20
5.475628
 30
0.0
 10
0.380559
 20
5.540186
 30
0.0
 10
0.416104
 20
5.592906
 30
0.0
 10
0.468824
 20
5.628452
 30
0.0
 10
0.533382
 20
5.641490
 30
0.0
 10
0.597940
 20
5.628452
 30
0.0
 10
0.650660
 20
5.592906
 30
0.0
 10
0.686205
 20
5.540186
 30
0.0
 10
0.699243
 20
5.475628
 30
0.0
 10
0.699243
 20
5.475628
 30
0.0
  0
LWPOLYLINE
  5
10d
100
AcDbEntity
  8
Layer_1
 62
7
100
AcDbPolyline
 90
63
 70
0
 10
4.749943
 20
4.134966
 30
0.0
 10
4.524936
 20
4.129730
 30
0.0
 10
4.577115
 20
3.988979
 30
0.0
 10
4.619511
 20
3.846217
 30
0.0
 10
4.652187
 20
3.701913
 30
0.0
 10
4.675207
 20
3.556537
 30
0.0
 10
4.688635
 20
3.410557
 30
0.0
 10
4.692534
 20
3.264443
 30
0.0
 10
4.686968
 20
3.118663
 30
0.0
 10
4.672002
 20
2.973686
 30
0.0
 10
4.647698
 20
2.829981
 30
0.0
 10
4.614121
 20
2.688018
 30
0.0
 10
4.571335
 20
2.548265
 30
0.0
 10
4.519403
 20
2.411192
 30
0.0
 10
4.458389
 20
2.277267
 30
0.0
 10
4.388357
 20
2.146959
 30
0.0
 10
4.309370
 20
2.020738
 30
0.0
 10
4.221493
 20
1.899072
 30
0.0
 10
4.224468
 20
1.898742
 30
0.0
 10
4.189200
 20
1.845441
 30
0.0
 10
4.163437
 20
1.787426
 30
0.0
 10
4.147615
 20
1.725951
 30
0.0
 10
4.142172
 20
1.662270
 30
0.0
 10
4.149956
 20
1.585138
 30
0.0
 10
4.172265
 20
1.513297
 30
0.0
 10
4.207558
 20
1.448288
 30
0.0
 10
4.254297
 20
1.391648
 30
0.0
 10
4.310944
 20
1.344917
 30
0.0
 10
4.375958
 20
1.309633
 30
0.0
 10
4.447802
 20
1.287335
 30
0.0
 10
4.524936
 20
1.279562
 30
0.0
 10
4.602061
 20
1.287344
 30
0.0
 10
4.673896
 20
1.309648
 30
0.0
 10
4.738902
 20
1.344935
 30
0.0
 10
4.795540
 20
1.391667
 30
0.0
 10
4.842272
 20
1.448305
 30
0.0
 10
4.877559
 20
1.513310
 30
0.0
 10
4.899863
 20
1.585145
 30
0.0
 10
4.907646
 20
1.662270
 30
0.0
 10
4.896550
 20
1.753107
 30
0.0
 10
4.864209
 20
1.838714
 30
0.0
 10
4.864548
 20
1.838997
 30
0.0
 10
4.858872
 20
1.861817
 30
0.0
 10
4.870494
 20
1.893477
 30
0.0
 10
4.899772
 20
1.910214
 30
0.0
 10
4.898615
 20
1.913300
 30
0.0
 10
5.162994
 20
1.974434
 30
0.0
 10
5.415407
 20
2.065791
 30
0.0
 10
5.653571
 20
2.185656
 30
0.0
 10
5.875202
 20
2.332317
 30
0.0
 10
6.078016
 20
2.504061
 30
0.0
 10
6.259729
 20
2.699173
 30
0.0
 10
6.418057
 20
2.915942
 30
0.0
 10
6.550716
 20
3.152653
 30
0.0
 10
6.385950
 20
3.365673
 30
0.0
 10
6.199047
 20
3.555586
 30
0.0
 10
5.992456
 20
3.721057
 30
0.0
 10
5.768627
 20
3.860747
 30
0.0
 10
5.530013
 20
3.973320
 30
0.0
 10
5.279061
 20
4.057441
 30
0.0
 10
5.018224
 20
4.111771
 30
0.0
 10
4.749952
 20
4.134974
 30
0.0
 10
4.749943
 20
4.134966
 30
0.0
  0
LWPOLYLINE
  5
10e
100
AcDbEntity
  8
Layer_1
 62
7
100
AcDbPolyline
 90
18
 70
0
 10
4.525819
 20
1.828131
 30
0.0
 10
4.589306
 20
1.815517
 30
0.0
 10
4.643132
 20
1.779566
 30
0.0
 10
4.679100
 20
1.725752
 30
0.0
 10
4.691735
 20
1.662270
 30
0.0
 10
4.679100
 20
1.598787
 30
0.0
 10
4.643132
 20
1.544973
 30
0.0
 10
4.589306
 20
1.509023
 30
0.0
 10
4.525819
 20
1.496409
 30
0.0
 10
4.461261
 20
1.509447
 30
0.0
 10
4.408541
 20
1.544992
 30
0.0
 10
4.372995
 20
1.597711
 30
0.0
 10
4.359957
 20
1.662270
 30
0.0
 10
4.372995
 20
1.726828
 30
0.0
 10
4.408541
 20
1.779547
 30
0.0
 10
4.461261
 20
1.815093
 30
0.0
 10
4.525819
 20
1.828131
 30
0.0
 10
4.525819
 20
1.828131
 30
0.0
  0
ENDSEC
  0
SECTION
  2
OBJECTS
  0
DICTIONARY
  5
C
330
0
100
AcDbDictionary
  3
ACAD_GROUP
350
D
  3
ACAD_MLINESTYLE
350
17
  0
DICTIONARY
  5
D
330
C
100
AcDbDictionary
  0
DICTIONARY
  5
1A
330
C
100
AcDbDictionary
  0
DICTIONARY
  5
17
330
C
100
AcDbDictionary
  3
STANDARD
350
18
  0
DICTIONARY
  5
19
330
C
100
AcDbDictionary
  0
ENDSEC
  0
EOF
