  0
SECTION
  2
HEADER
  9
$ACADVER
  1
AC1014
  9
$HANDSEED
  5
FFFF
  9
$MEASUREMENT
 70
     1
  0
ENDSEC
  0
SECTION
  2
TABLES
  0
TABLE
  2
VPORT
  5
8
330
0
100
AcDbSymbolTable
 70
     4
  0
VPORT
  5
2E
330
8
100
AcDbSymbolTableRecord
100
AcDbViewportTableRecord
  2
*ACTIVE
 70
     0
 10
0.0
 20
0.0
 11
1.0
 21
1.0
 12
210.0
 22
148.5
 13
0.0
 23
0.0
 14
10.0
 24
10.0
 15
10.0
 25
10.0
 16
0.0
 26
0.0
 36
1.0
 17
0.0
 27
0.0
 37
0.0
 40
341.0
 41
1.24
 42
50.0
 43
0.0
 44
0.0
 50
0.0
 51
0.0
 71
     0
 72
   100
 73
     1
 74
     3
 75
     0
 76
     0
 77
     0
 78
     0
  0
ENDTAB
  0
TABLE
  2
LTYPE
  5
5
330
0
100
AcDbSymbolTable
 70
     1
  0
LTYPE
  5
14
330
5
100
AcDbSymbolTableRecord
100
AcDbLinetypeTableRecord
  2
BYBLOCK
 70
     0
  3

 72
    65
 73
     0
 40
0.0
  0
LTYPE
  5
15
330
5
100
AcDbSymbolTableRecord
100
AcDbLinetypeTableRecord
  2
BYLAYER
 70
     0
  3

 72
    65
 73
     0
 40
0.0
  0
LTYPE
  5
16
330
5
100
AcDbSymbolTableRecord
100
AcDbLinetypeTableRecord
  2
CONTINUOUS
 70
     0
  3
Solid line
 72
    65
 73
     0
 40
0.0
  0
ENDTAB
  0
TABLE
  2
LAYER
  5
2
100
AcDbSymbolTable
 70
2
  0
LAYER
  5
50
100
AcDbSymbolTableRecord
100
AcDbLayerTableRecord
  2
0
 70
0
  6
CONTINUOUS
  0
LAYER
  5
51
100
AcDbSymbolTableRecord
100
AcDbLayerTableRecord
  2
Layer_1
 70
0
  6
CONTINUOUS
  0
ENDTAB
  0
TABLE
  2
STYLE
  5
3
330
0
100
AcDbSymbolTable
 70
     1
  0
STYLE
  5
11
330
3
100
AcDbSymbolTableRecord
100
AcDbTextStyleTableRecord
  2
STANDARD
 70
     0
 40
0.0
 41
1.0
 50
0.0
 71
     0
 42
2.5
  3
txt
  4

  0
ENDTAB
  0
TABLE
  2
VIEW
  5
6
330
0
100
AcDbSymbolTable
 70
     0
  0
ENDTAB
  0
TABLE
  2
UCS
  5
7
330
0
100
AcDbSymbolTable
 70
     0
  0
ENDTAB
  0
TABLE
  2
APPID
  5
9
330
0
100
AcDbSymbolTable
 70
     2
  0
APPID
  5
12
330
9
100
AcDbSymbolTableRecord
100
AcDbRegAppTableRecord
  2
ACAD
 70
     0
  0
ENDTAB
  0
TABLE
  2
DIMSTYLE
  5
A
330
0
100
AcDbSymbolTable
 70
     1
  0
DIMSTYLE
105
27
330
A
100
AcDbSymbolTableRecord
100
AcDbDimStyleTableRecord
  2
ISO-25
 70
     0
  3

  4

  5

  6

  7

 40
1.0
 41
2.5
 42
0.625
 43
3.75
 44
1.25
 45
0.0
 46
0.0
 47
0.0
 48
0.0
140
2.5
141
2.5
142
0.0
143
0.03937007874016
144
1.0
145
0.0
146
1.0
147
0.625
 71
     0
 72
     0
 73
     0
 74
     0
 75
     0
 76
     0
 77
     1
 78
     8
170
     0
171
     3
172
     1
173
     0
174
     0
175
     0
176
     0
177
     0
178
     0
270
     2
271
     2
272
     2
273
     2
274
     3
340
11
275
     0
280
     0
281
     0
282
     0
283
     0
284
     8
285
     0
286
     0
287
     3
288
     0
  0
ENDTAB
  0
TABLE
  2
BLOCK_RECORD
  5
1
330
0
100
AcDbSymbolTable
 70
     1
  0
BLOCK_RECORD
  5
1F
330
1
100
AcDbSymbolTableRecord
100
AcDbBlockTableRecord
  2
*MODEL_SPACE
  0
BLOCK_RECORD
  5
1B
330
1
100
AcDbSymbolTableRecord
100
AcDbBlockTableRecord
  2
*PAPER_SPACE
  0
ENDTAB
  0
ENDSEC
  0
SECTION
  2
BLOCKS
  0
BLOCK
  5
20
330
1F
100
AcDbEntity
  8
0
100
AcDbBlockBegin
  2
*MODEL_SPACE
 70
     0
 10
0.0
 20
0.0
 30
0.0
  3
*MODEL_SPACE
  1

  0
ENDBLK
  5
21
330
1F
100
AcDbEntity
  8
0
100
AcDbBlockEnd
  0
BLOCK
  5
1C
330
1B
100
AcDbEntity
 67
     1
  8
0
100
AcDbBlockBegin
  2
*PAPER_SPACE
  1

  0
ENDBLK
  5
1D
330
1B
100
AcDbEntity
 67
     1
  8
0
100
AcDbBlockEnd
  0
ENDSEC
  0
SECTION
  2
ENTITIES
  0
LWPOLYLINE
  5
100
100
AcDbEntity
  8
Layer_1
 62
7
100
AcDbPolyline
 90
8
 70
1
 10
-0.000000
 20
6.000000
 30
0.0
 10
-0.000000
 20
5.249988
 30
0.0
 10
0.021249
 20
5.249988
 30
0.0
 10
0.021249
 20
5.978710
 30
0.0
 10
0.750012
 20
5.978710
 30
0.0
 10
0.750012
 20
6.000000
 30
0.0
 10
-0.000000
 20
6.000000
 30
0.0
 10
-0.000000
 20
6.000000
 30
0.0
  0
LWPOLYLINE
  5
101
100
AcDbEntity
  8
Layer_1
 62
7
100
AcDbPolyline
 90
9
 70
1
 10
5.999988
 20
6.000000
 30
0.0
 10
5.999988
 20
5.978710
 30
0.0
 10
6.728751
 20
5.978710
 30
0.0
 10
6.728751
 20
5.249988
 30
0.0
 10
6.750000
 20
5.249988
 30
0.0
 10
6.750000
 20
5.989334
 30
0.0
 10
6.750000
 20
6.000000
 30
0.0
 10
5.999988
 20
6.000000
 30
0.0
 10
5.999988
 20
6.000000
 30
0.0
  0
LWPOLYLINE
  5
102
100
AcDbEntity
  8
Layer_1
 62
7
100
AcDbPolyline
 90
8
 70
1
 10
0.000007
 20
0.599984
 30
0.0
 10
0.000007
 20
-0.000000
 30
0.0
 10
0.750018
 20
-0.000000
 30
0.0
 10
0.750018
 20
0.021249
 30
0.0
 10
0.021256
 20
0.021249
 30
0.0
 10
0.021256
 20
0.599984
 30
0.0
 10
0.000007
 20
0.599984
 30
0.0
 10
0.000007
 20
0.599984
 30
0.0
  0
LWPOLYLINE
  5
103
100
AcDbEntity
  8
Layer_1
 62
7
100
AcDbPolyline
 90
8
 70
1
 10
6.728751
 20
0.599984
 30
0.0
 10
6.728751
 20
0.021249
 30
0.0
 10
5.999988
 20
0.021249
 30
0.0
 10
5.999988
 20
-0.000000
 30
0.0
 10
6.750000
 20
-0.000000
 30
0.0
 10
6.750000
 20
0.599984
 30
0.0
 10
6.728751
 20
0.599984
 30
0.0
 10
6.728751
 20
0.599984
 30
0.0
  0
LWPOLYLINE
  5
104
100
AcDbEntity
  8
Layer_1
 62
7
100
AcDbPolyline
 90
452
 70
0
 10
0.435279
 20
1.497018
 30
0.0
 10
0.391292
 20
1.482687
 30
0.0
 10
0.390304
 20
1.477836
 30
0.0
 10
0.389260
 20
1.471387
 30
0.0
 10
0.388498
 20
1.464993
 30
0.0
 10
0.388046
 20
1.458764
 30
0.0
 10
0.387764
 20
1.452590
 30
0.0
 10
0.387764
 20
1.446582
 30
0.0
 10
0.388215
 20
1.440684
 30
0.0
 10
0.389824
 20
1.435282
 30
0.0
 10
0.393239
 20
1.430817
 30
0.0
 10
0.396383
 20
1.426242
 30
0.0
 10
0.399036
 20
1.421392
 30
0.0
 10
0.401181
 20
1.416375
 30
0.0
 10
0.402112
 20
1.413731
 30
0.0
 10
0.402874
 20
1.410974
 30
0.0
 10
0.403382
 20
1.408163
 30
0.0
 10
0.403664
 20
1.405186
 30
0.0
 10
0.403664
 20
1.403643
 30
0.0
 10
0.403382
 20
1.401989
 30
0.0
 10
0.402930
 20
1.400225
 30
0.0
 10
0.402112
 20
1.398241
 30
0.0
 10
0.399027
 20
1.395044
 30
0.0
 10
0.374607
 20
1.379555
 30
0.0
 10
0.352283
 20
1.361089
 30
0.0
 10
0.348315
 20
1.359159
 30
0.0
 10
0.346170
 20
1.358989
 30
0.0
 10
0.344364
 20
1.359102
 30
0.0
 10
0.342698
 20
1.359433
 30
0.0
 10
0.341203
 20
1.359873
 30
0.0
 10
0.338380
 20
1.360976
 30
0.0
 10
0.335897
 20
1.362354
 30
0.0
 10
0.333583
 20
1.363841
 30
0.0
 10
0.331325
 20
1.365495
 30
0.0
 10
0.327190
 20
1.369188
 30
0.0
 10
0.323442
 20
1.373211
 30
0.0
 10
0.319971
 20
1.377566
 30
0.0
 10
0.316774
 20
1.382196
 30
0.0
 10
0.312255
 20
1.385393
 30
0.0
 10
0.306687
 20
1.387654
 30
0.0
 10
0.301009
 20
1.389584
 30
0.0
 10
0.295057
 20
1.391348
 30
0.0
 10
0.288992
 20
1.392835
 30
0.0
 10
0.282709
 20
1.394049
 30
0.0
 10
0.276261
 20
1.395042
 30
0.0
 10
0.271353
 20
1.395649
 30
0.0
 10
0.244124
 20
1.358221
 30
0.0
 10
0.246269
 20
1.353702
 30
0.0
 10
0.249190
 20
1.347914
 30
0.0
 10
0.252277
 20
1.342291
 30
0.0
 10
0.255529
 20
1.337000
 30
0.0
 10
0.259000
 20
1.331818
 30
0.0
 10
0.262694
 20
1.327078
 30
0.0
 10
0.266552
 20
1.322503
 30
0.0
 10
0.270963
 20
1.319140
 30
0.0
 10
0.276365
 20
1.317487
 30
0.0
 10
0.281547
 20
1.315613
 30
0.0
 10
0.286562
 20
1.313242
 30
0.0
 10
0.291303
 20
1.310488
 30
0.0
 10
0.293561
 20
1.308890
 30
0.0
 10
0.295762
 20
1.307126
 30
0.0
 10
0.297851
 20
1.305086
 30
0.0
 10
0.299713
 20
1.302825
 30
0.0
 10
0.300588
 20
1.301558
 30
0.0
 10
0.301407
 20
1.300124
 30
0.0
 10
0.302112
 20
1.298417
 30
0.0
 10
0.302620
 20
1.296323
 30
0.0
 10
0.301971
 20
1.291913
 30
0.0
 10
0.291331
 20
1.265014
 30
0.0
 10
0.284166
 20
1.236957
 30
0.0
 10
0.282021
 20
1.233044
 30
0.0
 10
0.280412
 20
1.231666
 30
0.0
 10
0.278803
 20
1.230673
 30
0.0
 10
0.277308
 20
1.230012
 30
0.0
 10
0.275812
 20
1.229462
 30
0.0
 10
0.272990
 20
1.228802
 30
0.0
 10
0.270122
 20
1.228361
 30
0.0
 10
0.267300
 20
1.228192
 30
0.0
 10
0.264534
 20
1.228192
 30
0.0
 10
0.259020
 20
1.228689
 30
0.0
 10
0.253618
 20
1.229792
 30
0.0
 10
0.248273
 20
1.231280
 30
0.0
 10
0.242924
 20
1.233100
 30
0.0
 10
0.237413
 20
1.232931
 30
0.0
 10
0.231624
 20
1.231497
 30
0.0
 10
0.225839
 20
1.229733
 30
0.0
 10
0.220050
 20
1.227639
 30
0.0
 10
0.214262
 20
1.225268
 30
0.0
 10
0.208420
 20
1.222567
 30
0.0
 10
0.202632
 20
1.219591
 30
0.0
 10
0.198277
 20
1.217167
 30
0.0
 10
0.198277
 20
1.170920
 30
0.0
 10
0.202632
 20
1.168495
 30
0.0
 10
0.208420
 20
1.165519
 30
0.0
 10
0.214262
 20
1.162818
 30
0.0
 10
0.220050
 20
1.160447
 30
0.0
 10
0.225839
 20
1.158297
 30
0.0
 10
0.231624
 20
1.156533
 30
0.0
 10
0.237413
 20
1.155156
 30
0.0
 10
0.242924
 20
1.154930
 30
0.0
 10
0.248273
 20
1.156860
 30
0.0
 10
0.253618
 20
1.158294
 30
0.0
 10
0.259020
 20
1.159341
 30
0.0
 10
0.264534
 20
1.159948
 30
0.0
 10
0.267300
 20
1.159948
 30
0.0
 10
0.270122
 20
1.159722
 30
0.0
 10
0.272990
 20
1.159335
 30
0.0
 10
0.275812
 20
1.158618
 30
0.0
 10
0.277308
 20
1.158068
 30
0.0
 10
0.278803
 20
1.157408
 30
0.0
 10
0.280412
 20
1.156414
 30
0.0
 10
0.282021
 20
1.155037
 30
0.0
 10
0.284166
 20
1.151123
 30
0.0
 10
0.291331
 20
1.123122
 30
0.0
 10
0.301971
 20
1.096167
 30
0.0
 10
0.302620
 20
1.091757
 30
0.0
 10
0.302112
 20
1.089663
 30
0.0
 10
0.301407
 20
1.088010
 30
0.0
 10
0.300588
 20
1.086576
 30
0.0
 10
0.299713
 20
1.085252
 30
0.0
 10
0.297851
 20
1.082992
 30
0.0
 10
0.295762
 20
1.080951
 30
0.0
 10
0.293561
 20
1.079187
 30
0.0
 10
0.291303
 20
1.077590
 30
0.0
 10
0.286562
 20
1.074779
 30
0.0
 10
0.281547
 20
1.072465
 30
0.0
 10
0.276365
 20
1.070591
 30
0.0
 10
0.270963
 20
1.068993
 30
0.0
 10
0.266552
 20
1.065576
 30
0.0
 10
0.262694
 20
1.061056
 30
0.0
 10
0.259000
 20
1.056260
 30
0.0
 10
0.255529
 20
1.051134
 30
0.0
 10
0.252277
 20
1.045787
 30
0.0
 10
0.249190
 20
1.040220
 30
0.0
 10
0.246269
 20
1.034377
 30
0.0
 10
0.244124
 20
1.029857
 30
0.0
 10
0.271353
 20
0.992430
 30
0.0
 10
0.276261
 20
0.993036
 30
0.0
 10
0.282709
 20
0.994083
 30
0.0
 10
0.288992
 20
0.995241
 30
0.0
 10
0.295057
 20
0.996728
 30
0.0
 10
0.301009
 20
0.998492
 30
0.0
 10
0.306687
 20
1.000422
 30
0.0
 10
0.312255
 20
1.002683
 30
0.0
 10
0.316774
 20
1.005825
 30
0.0
 10
0.319971
 20
1.010510
 30
0.0
 10
0.323442
 20
1.014865
 30
0.0
 10
0.327190
 20
1.018889
 30
0.0
 10
0.331325
 20
1.022526
 30
0.0
 10
0.333583
 20
1.024234
 30
0.0
 10
0.335897
 20
1.025721
 30
0.0
 10
0.338380
 20
1.027098
 30
0.0
 10
0.341203
 20
1.028202
 30
0.0
 10
0.342698
 20
1.028588
 30
0.0
 10
0.344364
 20
1.028919
 30
0.0
 10
0.346170
 20
1.029144
 30
0.0
 10
0.348315
 20
1.028919
 30
0.0
 10
0.352283
 20
1.026988
 30
0.0
 10
0.374607
 20
1.008522
 30
0.0
 10
0.399027
 20
0.993033
 30
0.0
 10
0.402112
 20
0.989781
 30
0.0
 10
0.402930
 20
0.987797
 30
0.0
 10
0.403382
 20
0.986033
 30
0.0
 10
0.403664
 20
0.984436
 30
0.0
 10
0.403664
 20
0.982839
 30
0.0
 10
0.403382
 20
0.979862
 30
0.0
 10
0.402874
 20
0.977051
 30
0.0
 10
0.402112
 20
0.974350
 30
0.0
 10
0.401181
 20
0.971706
 30
0.0
 10
0.399036
 20
0.966690
 30
0.0
 10
0.396383
 20
0.961839
 30
0.0
 10
0.393239
 20
0.957209
 30
0.0
 10
0.389824
 20
0.952799
 30
0.0
 10
0.388215
 20
0.947397
 30
0.0
 10
0.387764
 20
0.941499
 30
0.0
 10
0.387764
 20
0.935491
 30
0.0
 10
0.388046
 20
0.929262
 30
0.0
 10
0.388498
 20
0.923033
 30
0.0
 10
0.389260
 20
0.916694
 30
0.0
 10
0.390304
 20
0.910190
 30
0.0
 10
0.391292
 20
0.905395
 30
0.0
 10
0.435279
 20
0.891063
 30
0.0
 10
0.438917
 20
0.894480
 30
0.0
 10
0.443548
 20
0.899056
 30
0.0
 10
0.447902
 20
0.903741
 30
0.0
 10
0.451981
 20
0.908537
 30
0.0
 10
0.455785
 20
0.913387
 30
0.0
 10
0.459203
 20
0.918348
 30
0.0
 10
0.462344
 20
0.923419
 30
0.0
 10
0.464178
 20
0.928656
 30
0.0
 10
0.463896
 20
0.934278
 30
0.0
 10
0.464178
 20
0.939846
 30
0.0
 10
0.464827
 20
0.945302
 30
0.0
 10
0.465984
 20
0.950704
 30
0.0
 10
0.466746
 20
0.953349
 30
0.0
 10
0.467847
 20
0.955993
 30
0.0
 10
0.469061
 20
0.958528
 30
0.0
 10
0.470669
 20
0.961065
 30
0.0
 10
0.471601
 20
0.962332
 30
0.0
 10
0.472701
 20
0.963489
 30
0.0
 10
0.474141
 20
0.964703
 30
0.0
 10
0.475947
 20
0.965860
 30
0.0
 10
0.480358
 20
0.966630
 30
0.0
 10
0.509187
 20
0.964813
 30
0.0
 10
0.538126
 20
0.966630
 30
0.0
 10
0.542481
 20
0.965860
 30
0.0
 10
0.544287
 20
0.964703
 30
0.0
 10
0.545670
 20
0.963489
 30
0.0
 10
0.546771
 20
0.962332
 30
0.0
 10
0.547702
 20
0.961065
 30
0.0
 10
0.549367
 20
0.958528
 30
0.0
 10
0.550637
 20
0.955993
 30
0.0
 10
0.551625
 20
0.953349
 30
0.0
 10
0.552443
 20
0.950704
 30
0.0
 10
0.553600
 20
0.945302
 30
0.0
 10
0.554306
 20
0.939846
 30
0.0
 10
0.554588
 20
0.934278
 30
0.0
 10
0.554306
 20
0.928656
 30
0.0
 10
0.556112
 20
0.923419
 30
0.0
 10
0.559256
 20
0.918348
 30
0.0
 10
0.562727
 20
0.913387
 30
0.0
 10
0.566532
 20
0.908537
 30
0.0
 10
0.570610
 20
0.903741
 30
0.0
 10
0.574965
 20
0.899056
 30
0.0
 10
0.579596
 20
0.894480
 30
0.0
 10
0.583234
 20
0.891063
 30
0.0
 10
0.627221
 20
0.905395
 30
0.0
 10
0.628209
 20
0.910190
 30
0.0
 10
0.629196
 20
0.916694
 30
0.0
 10
0.630015
 20
0.923033
 30
0.0
 10
0.630466
 20
0.929262
 30
0.0
 10
0.630749
 20
0.935491
 30
0.0
 10
0.630466
 20
0.941499
 30
0.0
 10
0.630015
 20
0.947397
 30
0.0
 10
0.628406
 20
0.952799
 30
0.0
 10
0.624988
 20
0.957209
 30
0.0
 10
0.621901
 20
0.961839
 30
0.0
 10
0.619248
 20
0.966690
 30
0.0
 10
0.617047
 20
0.971706
 30
0.0
 10
0.616115
 20
0.974350
 30
0.0
 10
0.615410
 20
0.977051
 30
0.0
 10
0.614902
 20
0.979862
 30
0.0
 10
0.614620
 20
0.982839
 30
0.0
 10
0.614620
 20
0.984436
 30
0.0
 10
0.614902
 20
0.986033
 30
0.0
 10
0.615410
 20
0.987797
 30
0.0
 10
0.616228
 20
0.989781
 30
0.0
 10
0.619316
 20
0.993033
 30
0.0
 10
0.643680
 20
1.008522
 30
0.0
 10
0.666004
 20
1.026988
 30
0.0
 10
0.670028
 20
1.028919
 30
0.0
 10
0.672173
 20
1.029144
 30
0.0
 10
0.673979
 20
1.028919
 30
0.0
 10
0.675588
 20
1.028588
 30
0.0
 10
0.677084
 20
1.028202
 30
0.0
 10
0.679906
 20
1.027098
 30
0.0
 10
0.682390
 20
1.025721
 30
0.0
 10
0.684817
 20
1.024234
 30
0.0
 10
0.687018
 20
1.022526
 30
0.0
 10
0.691096
 20
1.018889
 30
0.0
 10
0.694844
 20
1.014865
 30
0.0
 10
0.698315
 20
1.010510
 30
0.0
 10
0.701513
 20
1.005825
 30
0.0
 10
0.706088
 20
1.002683
 30
0.0
 10
0.711600
 20
1.000422
 30
0.0
 10
0.717278
 20
0.998492
 30
0.0
 10
0.723233
 20
0.996728
 30
0.0
 10
0.729351
 20
0.995241
 30
0.0
 10
0.735634
 20
0.994083
 30
0.0
 10
0.742082
 20
0.993036
 30
0.0
 10
0.746990
 20
0.992430
 30
0.0
 10
0.774163
 20
1.029857
 30
0.0
 10
0.772074
 20
1.034377
 30
0.0
 10
0.769153
 20
1.040220
 30
0.0
 10
0.766066
 20
1.045787
 30
0.0
 10
0.762761
 20
1.051134
 30
0.0
 10
0.759287
 20
1.056260
 30
0.0
 10
0.755649
 20
1.061056
 30
0.0
 10
0.751791
 20
1.065576
 30
0.0
 10
0.747380
 20
1.068993
 30
0.0
 10
0.741924
 20
1.070591
 30
0.0
 10
0.736743
 20
1.072465
 30
0.0
 10
0.731725
 20
1.074779
 30
0.0
 10
0.726986
 20
1.077590
 30
0.0
 10
0.724729
 20
1.079187
 30
0.0
 10
0.722584
 20
1.080951
 30
0.0
 10
0.720495
 20
1.082992
 30
0.0
 10
0.718633
 20
1.085252
 30
0.0
 10
0.717701
 20
1.086576
 30
0.0
 10
0.716883
 20
1.088010
 30
0.0
 10
0.716234
 20
1.089663
 30
0.0
 10
0.715726
 20
1.091757
 30
0.0
 10
0.716347
 20
1.096167
 30
0.0
 10
0.726984
 20
1.123122
 30
0.0
 10
0.734206
 20
1.151123
 30
0.0
 10
0.736294
 20
1.155037
 30
0.0
 10
0.737903
 20
1.156414
 30
0.0
 10
0.739511
 20
1.157408
 30
0.0
 10
0.741007
 20
1.158068
 30
0.0
 10
0.742503
 20
1.158618
 30
0.0
 10
0.745370
 20
1.159335
 30
0.0
 10
0.748193
 20
1.159722
 30
0.0
 10
0.751060
 20
1.159948
 30
0.0
 10
0.753826
 20
1.159948
 30
0.0
 10
0.759284
 20
1.159341
 30
0.0
 10
0.764742
 20
1.158294
 30
0.0
 10
0.770087
 20
1.156860
 30
0.0
 10
0.775379
 20
1.154930
 30
0.0
 10
0.780947
 20
1.155156
 30
0.0
 10
0.786736
 20
1.156533
 30
0.0
 10
0.792521
 20
1.158297
 30
0.0
 10
0.798310
 20
1.160447
 30
0.0
 10
0.804098
 20
1.162818
 30
0.0
 10
0.809940
 20
1.165519
 30
0.0
 10
0.815728
 20
1.168495
 30
0.0
 10
0.820027
 20
1.170920
 30
0.0
 10
0.820027
 20
1.217167
 30
0.0
 10
0.815728
 20
1.219591
 30
0.0
 10
0.809940
 20
1.222567
 30
0.0
 10
0.804098
 20
1.225268
 30
0.0
 10
0.798310
 20
1.227639
 30
0.0
 10
0.792521
 20
1.229733
 30
0.0
 10
0.786736
 20
1.231497
 30
0.0
 10
0.780947
 20
1.232931
 30
0.0
 10
0.775379
 20
1.233100
 30
0.0
 10
0.770087
 20
1.231280
 30
0.0
 10
0.764742
 20
1.229792
 30
0.0
 10
0.759284
 20
1.228689
 30
0.0
 10
0.753826
 20
1.228192
 30
0.0
 10
0.751060
 20
1.228192
 30
0.0
 10
0.748193
 20
1.228361
 30
0.0
 10
0.745370
 20
1.228802
 30
0.0
 10
0.742503
 20
1.229462
 30
0.0
 10
0.741007
 20
1.230012
 30
0.0
 10
0.739511
 20
1.230673
 30
0.0
 10
0.737903
 20
1.231666
 30
0.0
 10
0.736294
 20
1.233044
 30
0.0
 10
0.734206
 20
1.236957
 30
0.0
 10
0.726984
 20
1.265014
 30
0.0
 10
0.716347
 20
1.291913
 30
0.0
 10
0.715726
 20
1.296323
 30
0.0
 10
0.716234
 20
1.298417
 30
0.0
 10
0.716883
 20
1.300124
 30
0.0
 10
0.717701
 20
1.301558
 30
0.0
 10
0.718633
 20
1.302825
 30
0.0
 10
0.720495
 20
1.305086
 30
0.0
 10
0.722584
 20
1.307126
 30
0.0
 10
0.724729
 20
1.308890
 30
0.0
 10
0.726986
 20
1.310488
 30
0.0
 10
0.731725
 20
1.313242
 30
0.0
 10
0.736743
 20
1.315613
 30
0.0
 10
0.741924
 20
1.317487
 30
0.0
 10
0.747380
 20
1.319140
 30
0.0
 10
0.751791
 20
1.322503
 30
0.0
 10
0.755649
 20
1.327078
 30
0.0
 10
0.759287
 20
1.331818
 30
0.0
 10
0.762761
 20
1.337000
 30
0.0
 10
0.766066
 20
1.342291
 30
0.0
 10
0.769153
 20
1.347914
 30
0.0
 10
0.772074
 20
1.353702
 30
0.0
 10
0.774163
 20
1.358221
 30
0.0
 10
0.746990
 20
1.395649
 30
0.0
 10
0.742082
 20
1.395042
 30
0.0
 10
0.735634
 20
1.394049
 30
0.0
 10
0.729351
 20
1.392835
 30
0.0
 10
0.723233
 20
1.391348
 30
0.0
 10
0.717278
 20
1.389584
 30
0.0
 10
0.711600
 20
1.387654
 30
0.0
 10
0.706088
 20
1.385393
 30
0.0
 10
0.701513
 20
1.382196
 30
0.0
 10
0.698315
 20
1.377566
 30
0.0
 10
0.694844
 20
1.373211
 30
0.0
 10
0.691096
 20
1.369188
 30
0.0
 10
0.687018
 20
1.365495
 30
0.0
 10
0.684817
 20
1.363841
 30
0.0
 10
0.682390
 20
1.362354
 30
0.0
 10
0.679906
 20
1.360976
 30
0.0
 10
0.677084
 20
1.359873
 30
0.0
 10
0.675588
 20
1.359433
 30
0.0
 10
0.673979
 20
1.359102
 30
0.0
 10
0.672173
 20
1.358989
 30
0.0
 10
0.670028
 20
1.359159
 30
0.0
 10
0.666004
 20
1.361089
 30
0.0
 10
0.643680
 20
1.379555
 30
0.0
 10
0.619316
 20
1.395044
 30
0.0
 10
0.616228
 20
1.398241
 30
0.0
 10
0.615410
 20
1.400225
 30
0.0
 10
0.614902
 20
1.401989
 30
0.0
 10
0.614620
 20
1.403643
 30
0.0
 10
0.614620
 20
1.405186
 30
0.0
 10
0.614902
 20
1.408163
 30
0.0
 10
0.615410
 20
1.410974
 30
0.0
 10
0.616115
 20
1.413731
 30
0.0
 10
0.617047
 20
1.416375
 30
0.0
 10
0.619248
 20
1.421392
 30
0.0
 10
0.621901
 20
1.426242
 30
0.0
 10
0.624988
 20
1.430817
 30
0.0
 10
0.628406
 20
1.435282
 30
0.0
 10
0.630015
 20
1.440684
 30
0.0
 10
0.630466
 20
1.446582
 30
0.0
 10
0.630749
 20
1.452590
 30
0.0
 10
0.630466
 20
1.458764
 30
0.0
 10
0.630015
 20
1.464993
 30
0.0
 10
0.629196
 20
1.471387
 30
0.0
 10
0.628209
 20
1.477836
 30
0.0
 10
0.627221
 20
1.482687
 30
0.0
 10
0.583234
 20
1.497018
 30
0.0
 10
0.579596
 20
1.493601
 30
0.0
 10
0.574965
 20
1.488971
 30
0.0
 10
0.570610
 20
1.484340
 30
0.0
 10
0.566532
 20
1.479545
 30
0.0
 10
0.562727
 20
1.474639
 30
0.0
 10
0.559256
 20
1.469733
 30
0.0
 10
0.556112
 20
1.464662
 30
0.0
 10
0.554306
 20
1.459425
 30
0.0
 10
0.554588
 20
1.453748
 30
0.0
 10
0.554306
 20
1.448236
 30
0.0
 10
0.553600
 20
1.442779
 30
0.0
 10
0.552443
 20
1.437377
 30
0.0
 10
0.551625
 20
1.434732
 30
0.0
 10
0.550637
 20
1.432088
 30
0.0
 10
0.549367
 20
1.429553
 30
0.0
 10
0.547702
 20
1.427016
 30
0.0
 10
0.546771
 20
1.425749
 30
0.0
 10
0.545670
 20
1.424536
 30
0.0
 10
0.544287
 20
1.423378
 30
0.0
 10
0.542481
 20
1.422275
 30
0.0
 10
0.538126
 20
1.421504
 30
0.0
 10
0.509187
 20
1.423325
 30
0.0
 10
0.480358
 20
1.421504
 30
0.0
 10
0.475947
 20
1.422275
 30
0.0
 10
0.474141
 20
1.423378
 30
0.0
 10
0.472701
 20
1.424536
 30
0.0
 10
0.471601
 20
1.425749
 30
0.0
 10
0.470669
 20
1.427016
 30
0.0
 10
0.469061
 20
1.429553
 30
0.0
 10
0.467847
 20
1.432088
 30
0.0
 10
0.466746
 20
1.434732
 30
0.0
 10
0.465984
 20
1.437377
 30
0.0
 10
0.464827
 20
1.442779
 30
0.0
 10
0.464178
 20
1.448236
 30
0.0
 10
0.463896
 20
1.453748
 30
0.0
 10
0.464178
 20
1.459425
 30
0.0
 10
0.462344
 20
1.464662
 30
0.0
 10
0.459203
 20
1.469733
 30
0.0
 10
0.455785
 20
1.474639
 30
0.0
 10
0.451981
 20
1.479545
 30
0.0
 10
0.447902
 20
1.484340
 30
0.0
 10
0.443548
 20
1.488971
 30
0.0
 10
0.438917
 20
1.493601
 30
0.0
 10
0.435279
 20
1.497018
 30
0.0
 10
0.435279
 20
1.497018
 30
0.0
  0
LWPOLYLINE
  5
105
100
AcDbEntity
  8
Layer_1
 62
7
100
AcDbPolyline
 90
18
 70
0
 10
0.510245
 20
1.360041
 30
0.0
 10
0.573732
 20
1.347428
 30
0.0
 10
0.627558
 20
1.311477
 30
0.0
 10
0.663527
 20
1.257663
 30
0.0
 10
0.676161
 20
1.194180
 30
0.0
 10
0.663526
 20
1.130698
 30
0.0
 10
0.627558
 20
1.076884
 30
0.0
 10
0.573732
 20
1.040933
 30
0.0
 10
0.510245
 20
1.028320
 30
0.0
 10
0.445687
 20
1.041357
 30
0.0
 10
0.392968
 20
1.076903
 30
0.0
 10
0.357421
 20
1.129622
 30
0.0
 10
0.344383
 20
1.194180
 30
0.0
 10
0.357421
 20
1.258739
 30
0.0
 10
0.392967
 20
1.311458
 30
0.0
 10
0.445687
 20
1.347004
 30
0.0
 10
0.510245
 20
1.360041
 30
0.0
 10
0.510245
 20
1.360041
 30
0.0
  0
LWPOLYLINE
  5
106
100
AcDbEntity
  8
Layer_1
 62
7
100
AcDbPolyline
 90
452
 70
0
 10
3.946410
 20
0.406688
 30
0.0
 10
3.960741
 20
0.362701
 30
0.0
 10
3.965592
 20
0.361713
 30
0.0
 10
3.972041
 20
0.360669
 30
0.0
 10
3.978435
 20
0.359907
 30
0.0
 10
3.984664
 20
0.359455
 30
0.0
 10
3.990838
 20
0.359173
 30
0.0
 10
3.996846
 20
0.359173
 30
0.0
 10
4.002744
 20
0.359625
 30
0.0
 10
4.008146
 20
0.361233
 30
0.0
 10
4.012611
 20
0.364648
 30
0.0
 10
4.017186
 20
0.367792
 30
0.0
 10
4.022036
 20
0.370445
 30
0.0
 10
4.027053
 20
0.372590
 30
0.0
 10
4.029697
 20
0.373521
 30
0.0
 10
4.032454
 20
0.374283
 30
0.0
 10
4.035265
 20
0.374791
 30
0.0
 10
4.038241
 20
0.375073
 30
0.0
 10
4.039785
 20
0.375073
 30
0.0
 10
4.041439
 20
0.374791
 30
0.0
 10
4.043203
 20
0.374340
 30
0.0
 10
4.045187
 20
0.373521
 30
0.0
 10
4.048384
 20
0.370437
 30
0.0
 10
4.063873
 20
0.346016
 30
0.0
 10
4.082339
 20
0.323692
 30
0.0
 10
4.084269
 20
0.319724
 30
0.0
 10
4.084438
 20
0.317579
 30
0.0
 10
4.084326
 20
0.315773
 30
0.0
 10
4.083995
 20
0.314108
 30
0.0
 10
4.083555
 20
0.312612
 30
0.0
 10
4.082452
 20
0.309790
 30
0.0
 10
4.081074
 20
0.307306
 30
0.0
 10
4.079587
 20
0.304992
 30
0.0
 10
4.077933
 20
0.302734
 30
0.0
 10
4.074240
 20
0.298600
 30
0.0
 10
4.070216
 20
0.294852
 30
0.0
 10
4.065862
 20
0.291380
 30
0.0
 10
4.061232
 20
0.288183
 30
0.0
 10
4.058035
 20
0.283665
 30
0.0
 10
4.055774
 20
0.278096
 30
0.0
 10
4.053844
 20
0.272418
 30
0.0
 10
4.052080
 20
0.266466
 30
0.0
 10
4.050592
 20
0.260401
 30
0.0
 10
4.049379
 20
0.254119
 30
0.0
 10
4.048385
 20
0.247670
 30
0.0
 10
4.047779
 20
0.242762
 30
0.0
 10
4.085206
 20
0.215533
 30
0.0
 10
4.089726
 20
0.217678
 30
0.0
 10
4.095514
 20
0.220599
 30
0.0
 10
4.101136
 20
0.223687
 30
0.0
 10
4.106428
 20
0.226938
 30
0.0
 10
4.111609
 20
0.230409
 30
0.0
 10
4.116350
 20
0.234103
 30
0.0
 10
4.120925
 20
0.237961
 30
0.0
 10
4.124287
 20
0.242373
 30
0.0
 10
4.125941
 20
0.247774
 30
0.0
 10
4.127815
 20
0.252956
 30
0.0
 10
4.130186
 20
0.257971
 30
0.0
 10
4.132940
 20
0.262712
 30
0.0
 10
4.134538
 20
0.264970
 30
0.0
 10
4.136302
 20
0.267171
 30
0.0
 10
4.138342
 20
0.269260
 30
0.0
 10
4.140603
 20
0.271123
 30
0.0
 10
4.141870
 20
0.271997
 30
0.0
 10
4.143304
 20
0.272816
 30
0.0
 10
4.145011
 20
0.273521
 30
0.0
 10
4.147105
 20
0.274029
 30
0.0
 10
4.151515
 20
0.273380
 30
0.0
 10
4.178414
 20
0.262741
 30
0.0
 10
4.206471
 20
0.255575
 30
0.0
 10
4.210384
 20
0.253430
 30
0.0
 10
4.211762
 20
0.251821
 30
0.0
 10
4.212755
 20
0.250213
 30
0.0
 10
4.213415
 20
0.248717
 30
0.0
 10
4.213966
 20
0.247221
 30
0.0
 10
4.214626
 20
0.244399
 30
0.0
 10
4.215066
 20
0.241532
 30
0.0
 10
4.215236
 20
0.238709
 30
0.0
 10
4.215236
 20
0.235944
 30
0.0
 10
4.214739
 20
0.230429
 30
0.0
 10
4.213636
 20
0.225027
 30
0.0
 10
4.212148
 20
0.219682
 30
0.0
 10
4.210328
 20
0.214334
 30
0.0
 10
4.210497
 20
0.208822
 30
0.0
 10
4.211931
 20
0.203034
 30
0.0
 10
4.213695
 20
0.197248
 30
0.0
 10
4.215789
 20
0.191460
 30
0.0
 10
4.218160
 20
0.185671
 30
0.0
 10
4.220860
 20
0.179829
 30
0.0
 10
4.223837
 20
0.174041
 30
0.0
 10
4.226261
 20
0.169686
 30
0.0
 10
4.272508
 20
0.169686
 30
0.0
 10
4.274933
 20
0.174041
 30
0.0
 10
4.277909
 20
0.179829
 30
0.0
 10
4.280610
 20
0.185671
 30
0.0
 10
4.282981
 20
0.191460
 30
0.0
 10
4.285131
 20
0.197248
 30
0.0
 10
4.286895
 20
0.203034
 30
0.0
 10
4.288272
 20
0.208822
 30
0.0
 10
4.288498
 20
0.214334
 30
0.0
 10
4.286568
 20
0.219682
 30
0.0
 10
4.285134
 20
0.225027
 30
0.0
 10
4.284087
 20
0.230429
 30
0.0
 10
4.283480
 20
0.235944
 30
0.0
 10
4.283480
 20
0.238709
 30
0.0
 10
4.283706
 20
0.241532
 30
0.0
 10
4.284093
 20
0.244399
 30
0.0
 10
4.284809
 20
0.247221
 30
0.0
 10
4.285360
 20
0.248717
 30
0.0
 10
4.286020
 20
0.250213
 30
0.0
 10
4.287014
 20
0.251821
 30
0.0
 10
4.288391
 20
0.253430
 30
0.0
 10
4.292305
 20
0.255575
 30
0.0
 10
4.320306
 20
0.262741
 30
0.0
 10
4.347261
 20
0.273380
 30
0.0
 10
4.351670
 20
0.274029
 30
0.0
 10
4.353765
 20
0.273521
 30
0.0
 10
4.355418
 20
0.272816
 30
0.0
 10
4.356852
 20
0.271997
 30
0.0
 10
4.358176
 20
0.271123
 30
0.0
 10
4.360436
 20
0.269260
 30
0.0
 10
4.362477
 20
0.267171
 30
0.0
 10
4.364241
 20
0.264970
 30
0.0
 10
4.365838
 20
0.262712
 30
0.0
 10
4.368649
 20
0.257971
 30
0.0
 10
4.370963
 20
0.252956
 30
0.0
 10
4.372837
 20
0.247774
 30
0.0
 10
4.374434
 20
0.242373
 30
0.0
 10
4.377852
 20
0.237961
 30
0.0
 10
4.382372
 20
0.234103
 30
0.0
 10
4.387167
 20
0.230409
 30
0.0
 10
4.392294
 20
0.226938
 30
0.0
 10
4.397641
 20
0.223687
 30
0.0
 10
4.403208
 20
0.220599
 30
0.0
 10
4.409051
 20
0.217678
 30
0.0
 10
4.413571
 20
0.215533
 30
0.0
 10
4.450998
 20
0.242762
 30
0.0
 10
4.450391
 20
0.247670
 30
0.0
 10
4.449344
 20
0.254119
 30
0.0
 10
4.448187
 20
0.260401
 30
0.0
 10
4.446700
 20
0.266466
 30
0.0
 10
4.444936
 20
0.272418
 30
0.0
 10
4.443006
 20
0.278096
 30
0.0
 10
4.440745
 20
0.283665
 30
0.0
 10
4.437603
 20
0.288183
 30
0.0
 10
4.432918
 20
0.291380
 30
0.0
 10
4.428563
 20
0.294852
 30
0.0
 10
4.424539
 20
0.298600
 30
0.0
 10
4.420902
 20
0.302734
 30
0.0
 10
4.419194
 20
0.304992
 30
0.0
 10
4.417707
 20
0.307306
 30
0.0
 10
4.416330
 20
0.309790
 30
0.0
 10
4.415226
 20
0.312612
 30
0.0
 10
4.414839
 20
0.314108
 30
0.0
 10
4.414509
 20
0.315773
 30
0.0
 10
4.414283
 20
0.317579
 30
0.0
 10
4.414509
 20
0.319724
 30
0.0
 10
4.416440
 20
0.323692
 30
0.0
 10
4.434905
 20
0.346016
 30
0.0
 10
4.450395
 20
0.370437
 30
0.0
 10
4.453647
 20
0.373521
 30
0.0
 10
4.455631
 20
0.374340
 30
0.0
 10
4.457395
 20
0.374791
 30
0.0
 10
4.458992
 20
0.375073
 30
0.0
 10
4.460589
 20
0.375073
 30
0.0
 10
4.463566
 20
0.374791
 30
0.0
 10
4.466377
 20
0.374283
 30
0.0
 10
4.469078
 20
0.373521
 30
0.0
 10
4.471722
 20
0.372590
 30
0.0
 10
4.476738
 20
0.370445
 30
0.0
 10
4.481589
 20
0.367792
 30
0.0
 10
4.486219
 20
0.364648
 30
0.0
 10
4.490629
 20
0.361233
 30
0.0
 10
4.496031
 20
0.359625
 30
0.0
 10
4.501929
 20
0.359173
 30
0.0
 10
4.507937
 20
0.359173
 30
0.0
 10
4.514166
 20
0.359455
 30
0.0
 10
4.520394
 20
0.359907
 30
0.0
 10
4.526733
 20
0.360669
 30
0.0
 10
4.533238
 20
0.361713
 30
0.0
 10
4.538033
 20
0.362701
 30
0.0
 10
4.552365
 20
0.406688
 30
0.0
 10
4.548947
 20
0.410326
 30
0.0
 10
4.544372
 20
0.414957
 30
0.0
 10
4.539687
 20
0.419312
 30
0.0
 10
4.534891
 20
0.423390
 30
0.0
 10
4.530041
 20
0.427194
 30
0.0
 10
4.525080
 20
0.430612
 30
0.0
 10
4.520009
 20
0.433753
 30
0.0
 10
4.514772
 20
0.435588
 30
0.0
 10
4.509150
 20
0.435305
 30
0.0
 10
4.503582
 20
0.435588
 30
0.0
 10
4.498125
 20
0.436237
 30
0.0
 10
4.492723
 20
0.437394
 30
0.0
 10
4.490079
 20
0.438156
 30
0.0
 10
4.487435
 20
0.439256
 30
0.0
 10
4.484900
 20
0.440470
 30
0.0
 10
4.482363
 20
0.442079
 30
0.0
 10
4.481096
 20
0.443010
 30
0.0
 10
4.479939
 20
0.444111
 30
0.0
 10
4.478725
 20
0.445550
 30
0.0
 10
4.477568
 20
0.447356
 30
0.0
 10
4.476798
 20
0.451767
 30
0.0
 10
4.478615
 20
0.480596
 30
0.0
 10
4.476798
 20
0.509535
 30
0.0
 10
4.477568
 20
0.513890
 30
0.0
 10
4.478725
 20
0.515696
 30
0.0
 10
4.479939
 20
0.517079
 30
0.0
 10
4.481096
 20
0.518180
 30
0.0
 10
4.482363
 20
0.519111
 30
0.0
 10
4.484900
 20
0.520776
 30
0.0
 10
4.487435
 20
0.522046
 30
0.0
 10
4.490079
 20
0.523034
 30
0.0
 10
4.492723
 20
0.523853
 30
0.0
 10
4.498125
 20
0.525010
 30
0.0
 10
4.503582
 20
0.525715
 30
0.0
 10
4.509150
 20
0.525997
 30
0.0
 10
4.514772
 20
0.525715
 30
0.0
 10
4.520009
 20
0.527521
 30
0.0
 10
4.525080
 20
0.530665
 30
0.0
 10
4.530041
 20
0.534137
 30
0.0
 10
4.534891
 20
0.537941
 30
0.0
 10
4.539687
 20
0.542019
 30
0.0
 10
4.544372
 20
0.546374
 30
0.0
 10
4.548947
 20
0.551005
 30
0.0
 10
4.552365
 20
0.554643
 30
0.0
 10
4.538033
 20
0.598630
 30
0.0
 10
4.533238
 20
0.599618
 30
0.0
 10
4.526733
 20
0.600606
 30
0.0
 10
4.520394
 20
0.601424
 30
0.0
 10
4.514166
 20
0.601876
 30
0.0
 10
4.507937
 20
0.602158
 30
0.0
 10
4.501929
 20
0.601876
 30
0.0
 10
4.496031
 20
0.601424
 30
0.0
 10
4.490629
 20
0.599815
 30
0.0
 10
4.486219
 20
0.596398
 30
0.0
 10
4.481589
 20
0.593310
 30
0.0
 10
4.476738
 20
0.590657
 30
0.0
 10
4.471722
 20
0.588456
 30
0.0
 10
4.469078
 20
0.587525
 30
0.0
 10
4.466377
 20
0.586819
 30
0.0
 10
4.463566
 20
0.586311
 30
0.0
 10
4.460589
 20
0.586029
 30
0.0
 10
4.458992
 20
0.586029
 30
0.0
 10
4.457395
 20
0.586311
 30
0.0
 10
4.455631
 20
0.586819
 30
0.0
 10
4.453647
 20
0.587638
 30
0.0
 10
4.450395
 20
0.590725
 30
0.0
 10
4.434905
 20
0.615089
 30
0.0
 10
4.416440
 20
0.637413
 30
0.0
 10
4.414509
 20
0.641438
 30
0.0
 10
4.414283
 20
0.643583
 30
0.0
 10
4.414509
 20
0.645389
 30
0.0
 10
4.414839
 20
0.646997
 30
0.0
 10
4.415226
 20
0.648493
 30
0.0
 10
4.416330
 20
0.651315
 30
0.0
 10
4.417707
 20
0.653799
 30
0.0
 10
4.419194
 20
0.656226
 30
0.0
 10
4.420902
 20
0.658427
 30
0.0
 10
4.424539
 20
0.662506
 30
0.0
 10
4.428563
 20
0.666253
 30
0.0
 10
4.432918
 20
0.669725
 30
0.0
 10
4.437603
 20
0.672922
 30
0.0
 10
4.440745
 20
0.677497
 30
0.0
 10
4.443006
 20
0.683009
 30
0.0
 10
4.444936
 20
0.688687
 30
0.0
 10
4.446700
 20
0.694642
 30
0.0
 10
4.448187
 20
0.700761
 30
0.0
 10
4.449344
 20
0.707043
 30
0.0
 10
4.450391
 20
0.713492
 30
0.0
 10
4.450998
 20
0.718400
 30
0.0
 10
4.413571
 20
0.745572
 30
0.0
 10
4.409051
 20
0.743484
 30
0.0
 10
4.403208
 20
0.740563
 30
0.0
 10
4.397641
 20
0.737475
 30
0.0
 10
4.392294
 20
0.734170
 30
0.0
 10
4.387167
 20
0.730696
 30
0.0
 10
4.382372
 20
0.727058
 30
0.0
 10
4.377852
 20
0.723200
 30
0.0
 10
4.374434
 20
0.718789
 30
0.0
 10
4.372837
 20
0.713334
 30
0.0
 10
4.370963
 20
0.708152
 30
0.0
 10
4.368649
 20
0.703134
 30
0.0
 10
4.365838
 20
0.698396
 30
0.0
 10
4.364241
 20
0.696138
 30
0.0
 10
4.362477
 20
0.693993
 30
0.0
 10
4.360436
 20
0.691905
 30
0.0
 10
4.358176
 20
0.690042
 30
0.0
 10
4.356852
 20
0.689111
 30
0.0
 10
4.355418
 20
0.688292
 30
0.0
 10
4.353765
 20
0.687643
 30
0.0
 10
4.351670
 20
0.687135
 30
0.0
 10
4.347261
 20
0.687756
 30
0.0
 10
4.320306
 20
0.698393
 30
0.0
 10
4.292305
 20
0.705615
 30
0.0
 10
4.288391
 20
0.707703
 30
0.0
 10
4.287014
 20
0.709312
 30
0.0
 10
4.286020
 20
0.710921
 30
0.0
 10
4.285360
 20
0.712417
 30
0.0
 10
4.284809
 20
0.713912
 30
0.0
 10
4.284093
 20
0.716780
 30
0.0
 10
4.283706
 20
0.719602
 30
0.0
 10
4.283480
 20
0.722469
 30
0.0
 10
4.283480
 20
0.725235
 30
0.0
 10
4.284087
 20
0.730693
 30
0.0
 10
4.285134
 20
0.736151
 30
0.0
 10
4.286568
 20
0.741497
 30
0.0
 10
4.288498
 20
0.746788
 30
0.0
 10
4.288272
 20
0.752357
 30
0.0
 10
4.286895
 20
0.758145
 30
0.0
 10
4.285131
 20
0.763931
 30
0.0
 10
4.282981
 20
0.769719
 30
0.0
 10
4.280610
 20
0.775507
 30
0.0
 10
4.277909
 20
0.781349
 30
0.0
 10
4.274933
 20
0.787138
 30
0.0
 10
4.272508
 20
0.791436
 30
0.0
 10
4.226261
 20
0.791436
 30
0.0
 10
4.223837
 20
0.787138
 30
0.0
 10
4.220860
 20
0.781349
 30
0.0
 10
4.218160
 20
0.775507
 30
0.0
 10
4.215789
 20
0.769719
 30
0.0
 10
4.213695
 20
0.763931
 30
0.0
 10
4.211931
 20
0.758145
 30
0.0
 10
4.210497
 20
0.752357
 30
0.0
 10
4.210328
 20
0.746788
 30
0.0
 10
4.212148
 20
0.741497
 30
0.0
 10
4.213636
 20
0.736151
 30
0.0
 10
4.214739
 20
0.730693
 30
0.0
 10
4.215236
 20
0.725235
 30
0.0
 10
4.215236
 20
0.722469
 30
0.0
 10
4.215066
 20
0.719602
 30
0.0
 10
4.214626
 20
0.716780
 30
0.0
 10
4.213966
 20
0.713912
 30
0.0
 10
4.213415
 20
0.712417
 30
0.0
 10
4.212755
 20
0.710921
 30
0.0
 10
4.211762
 20
0.709312
 30
0.0
 10
4.210384
 20
0.707703
 30
0.0
 10
4.206471
 20
0.705615
 30
0.0
 10
4.178414
 20
0.698393
 30
0.0
 10
4.151515
 20
0.687756
 30
0.0
 10
4.147105
 20
0.687135
 30
0.0
 10
4.145011
 20
0.687643
 30
0.0
 10
4.143304
 20
0.688292
 30
0.0
 10
4.141870
 20
0.689111
 30
0.0
 10
4.140603
 20
0.690042
 30
0.0
 10
4.138342
 20
0.691905
 30
0.0
 10
4.136302
 20
0.693993
 30
0.0
 10
4.134538
 20
0.696138
 30
0.0
 10
4.132940
 20
0.698396
 30
0.0
 10
4.130186
 20
0.703134
 30
0.0
 10
4.127815
 20
0.708152
 30
0.0
 10
4.125941
 20
0.713334
 30
0.0
 10
4.124287
 20
0.718789
 30
0.0
 10
4.120925
 20
0.723200
 30
0.0
 10
4.116350
 20
0.727058
 30
0.0
 10
4.111609
 20
0.730696
 30
0.0
 10
4.106428
 20
0.734170
 30
0.0
 10
4.101136
 20
0.737475
 30
0.0
 10
4.095514
 20
0.740563
 30
0.0
 10
4.089726
 20
0.743484
 30
0.0
 10
4.085206
 20
0.745572
 30
0.0
 10
4.047779
 20
0.718400
 30
0.0
 10
4.048385
 20
0.713492
 30
0.0
 10
4.049379
 20
0.707043
 30
0.0
 10
4.050592
 20
0.700761
 30
0.0
 10
4.052080
 20
0.694642
 30
0.0
 10
4.053844
 20
0.688687
 30
0.0
 10
4.055774
 20
0.683009
 30
0.0
 10
4.058035
 20
0.677497
 30
0.0
 10
4.061232
 20
0.672922
 30
0.0
 10
4.065862
 20
0.669725
 30
0.0
 10
4.070216
 20
0.666253
 30
0.0
 10
4.074240
 20
0.662506
 30
0.0
 10
4.077933
 20
0.658427
 30
0.0
 10
4.079587
 20
0.656226
 30
0.0
 10
4.081074
 20
0.653799
 30
0.0
 10
4.082452
 20
0.651315
 30
0.0
 10
4.083555
 20
0.648493
 30
0.0
 10
4.083995
 20
0.646997
 30
0.0
 10
4.084326
 20
0.645389
 30
0.0
 10
4.084438
 20
0.643583
 30
0.0
 10
4.084269
 20
0.641438
 30
0.0
 10
4.082339
 20
0.637413
 30
0.0
 10
4.063873
 20
0.615089
 30
0.0
 10
4.048384
 20
0.590725
 30
0.0
 10
4.045187
 20
0.587638
 30
0.0
 10
4.043203
 20
0.586819
 30
0.0
 10
4.041439
 20
0.586311
 30
0.0
 10
4.039785
 20
0.586029
 30
0.0
 10
4.038241
 20
0.586029
 30
0.0
 10
4.035265
 20
0.586311
 30
0.0
 10
4.032454
 20
0.586819
 30
0.0
 10
4.029697
 20
0.587525
 30
0.0
 10
4.027053
 20
0.588456
 30
0.0
 10
4.022036
 20
0.590657
 30
0.0
 10
4.017186
 20
0.593310
 30
0.0
 10
4.012611
 20
0.596398
 30
0.0
 10
4.008146
 20
0.599815
 30
0.0
 10
4.002744
 20
0.601424
 30
0.0
 10
3.996846
 20
0.601876
 30
0.0
 10
3.990838
 20
0.602158
 30
0.0
 10
3.984664
 20
0.601876
 30
0.0
 10
3.978435
 20
0.601424
 30
0.0
 10
3.972041
 20
0.600606
 30
0.0
 10
3.965592
 20
0.599618
 30
0.0
 10
3.960741
 20
0.598630
 30
0.0
 10
3.946410
 20
0.554643
 30
0.0
 10
3.949827
 20
0.551005
 30
0.0
 10
3.954457
 20
0.546374
 30
0.0
 10
3.959088
 20
0.542019
 30
0.0
 10
3.963883
 20
0.537941
 30
0.0
 10
3.968789
 20
0.534137
 30
0.0
 10
3.973695
 20
0.530665
 30
0.0
 10
3.978766
 20
0.527521
 30
0.0
 10
3.984003
 20
0.525715
 30
0.0
 10
3.989680
 20
0.525997
 30
0.0
 10
3.995192
 20
0.525715
 30
0.0
 10
4.000649
 20
0.525010
 30
0.0
 10
4.006051
 20
0.523853
 30
0.0
 10
4.008696
 20
0.523034
 30
0.0
 10
4.011340
 20
0.522046
 30
0.0
 10
4.013874
 20
0.520776
 30
0.0
 10
4.016412
 20
0.519111
 30
0.0
 10
4.017679
 20
0.518180
 30
0.0
 10
4.018892
 20
0.517079
 30
0.0
 10
4.020049
 20
0.515696
 30
0.0
 10
4.021153
 20
0.513890
 30
0.0
 10
4.021923
 20
0.509535
 30
0.0
 10
4.020103
 20
0.480596
 30
0.0
 10
4.021923
 20
0.451767
 30
0.0
 10
4.021153
 20
0.447356
 30
0.0
 10
4.020049
 20
0.445550
 30
0.0
 10
4.018892
 20
0.444111
 30
0.0
 10
4.017679
 20
0.443010
 30
0.0
 10
4.016412
 20
0.442079
 30
0.0
 10
4.013874
 20
0.440470
 30
0.0
 10
4.011340
 20
0.439256
 30
0.0
 10
4.008696
 20
0.438156
 30
0.0
 10
4.006051
 20
0.437394
 30
0.0
 10
4.000649
 20
0.436237
 30
0.0
 10
3.995192
 20
0.435588
 30
0.0
 10
3.989680
 20
0.435305
 30
0.0
 10
3.984003
 20
0.435588
 30
0.0
 10
3.978766
 20
0.433753
 30
0.0
 10
3.973695
 20
0.430612
 30
0.0
 10
3.968789
 20
0.427194
 30
0.0
 10
3.963883
 20
0.423390
 30
0.0
 10
3.959088
 20
0.419312
 30
0.0
 10
3.954457
 20
0.414957
 30
0.0
 10
3.949827
 20
0.410326
 30
0.0
 10
3.946410
 20
0.406688
 30
0.0
 10
3.946410
 20
0.406688
 30
0.0
  0
LWPOLYLINE
  5
107
100
AcDbEntity
  8
Layer_1
 62
7
100
AcDbPolyline
 90
18
 70
0
 10
4.083387
 20
0.481655
 30
0.0
 10
4.096000
 20
0.545142
 30
0.0
 10
4.131951
 20
0.598967
 30
0.0
 10
4.185765
 20
0.634936
 30
0.0
 10
4.249247
 20
0.647570
 30
0.0
 10
4.312730
 20
0.634936
 30
0.0
 10
4.366544
 20
0.598967
 30
0.0
 10
4.402495
 20
0.545141
 30
0.0
 10
4.415108
 20
0.481655
 30
0.0
 10
4.402071
 20
0.417096
 30
0.0
 10
4.366525
 20
0.364377
 30
0.0
 10
4.313806
 20
0.328831
 30
0.0
 10
4.249247
 20
0.315793
 30
0.0
 10
4.184689
 20
0.328831
 30
0.0
 10
4.131970
 20
0.364377
 30
0.0
 10
4.096424
 20
0.417096
 30
0.0
 10
4.083387
 20
0.481655
 30
0.0
 10
4.083387
 20
0.481655
 30
0.0
  0
LWPOLYLINE
  5
108
100
AcDbEntity
  8
Layer_1
 62
7
100
AcDbPolyline
 90
452
 70
0
 10
4.506373
 20
4.677891
 30
0.0
 10
4.550360
 20
4.692223
 30
0.0
 10
4.551348
 20
4.697073
 30
0.0
 10
4.552392
 20
4.703523
 30
0.0
 10
4.553154
 20
4.709917
 30
0.0
 10
4.553606
 20
4.716146
 30
0.0
 10
4.553888
 20
4.722319
 30
0.0
 10
4.553888
 20
4.728328
 30
0.0
 10
4.553436
 20
4.734225
 30
0.0
 10
4.551828
 20
4.739627
 30
0.0
 10
4.548413
 20
4.744092
 30
0.0
 10
4.545269
 20
4.748667
 30
0.0
 10
4.542616
 20
4.753518
 30
0.0
 10
4.540471
 20
4.758534
 30
0.0
 10
4.539540
 20
4.761179
 30
0.0
 10
4.538778
 20
4.763936
 30
0.0
 10
4.538270
 20
4.766747
 30
0.0
 10
4.537988
 20
4.769723
 30
0.0
 10
4.537988
 20
4.771267
 30
0.0
 10
4.538270
 20
4.772921
 30
0.0
 10
4.538721
 20
4.774685
 30
0.0
 10
4.539540
 20
4.776669
 30
0.0
 10
4.542624
 20
4.779866
 30
0.0
 10
4.567045
 20
4.795355
 30
0.0
 10
4.589369
 20
4.813820
 30
0.0
 10
4.593337
 20
4.815751
 30
0.0
 10
4.595482
 20
4.815920
 30
0.0
 10
4.597288
 20
4.815807
 30
0.0
 10
4.598953
 20
4.815477
 30
0.0
 10
4.600449
 20
4.815037
 30
0.0
 10
4.603271
 20
4.813933
 30
0.0
 10
4.605755
 20
4.812556
 30
0.0
 10
4.608069
 20
4.811069
 30
0.0
 10
4.610327
 20
4.809415
 30
0.0
 10
4.614461
 20
4.805722
 30
0.0
 10
4.618209
 20
4.801698
 30
0.0
 10
4.621681
 20
4.797343
 30
0.0
 10
4.624878
 20
4.792713
 30
0.0
 10
4.629396
 20
4.789516
 30
0.0
 10
4.634965
 20
4.787256
 30
0.0
 10
4.640643
 20
4.785325
 30
0.0
 10
4.646595
 20
4.783561
 30
0.0
 10
4.652660
 20
4.782074
 30
0.0
 10
4.658942
 20
4.780860
 30
0.0
 10
4.665391
 20
4.779867
 30
0.0
 10
4.670299
 20
4.779260
 30
0.0
 10
4.697528
 20
4.816688
 30
0.0
 10
4.695383
 20
4.821208
 30
0.0
 10
4.692462
 20
4.826996
 30
0.0
 10
4.689374
 20
4.832618
 30
0.0
 10
4.686123
 20
4.837910
 30
0.0
 10
4.682652
 20
4.843091
 30
0.0
 10
4.678958
 20
4.847831
 30
0.0
 10
4.675100
 20
4.852407
 30
0.0
 10
4.670688
 20
4.855769
 30
0.0
 10
4.665287
 20
4.857423
 30
0.0
 10
4.660105
 20
4.859297
 30
0.0
 10
4.655090
 20
4.861667
 30
0.0
 10
4.650349
 20
4.864422
 30
0.0
 10
4.648091
 20
4.866019
 30
0.0
 10
4.645890
 20
4.867783
 30
0.0
 10
4.643801
 20
4.869824
 30
0.0
 10
4.641938
 20
4.872084
 30
0.0
 10
4.641064
 20
4.873351
 30
0.0
 10
4.640245
 20
4.874785
 30
0.0
 10
4.639540
 20
4.876493
 30
0.0
 10
4.639032
 20
4.878587
 30
0.0
 10
4.639681
 20
4.882996
 30
0.0
 10
4.650320
 20
4.909896
 30
0.0
 10
4.657486
 20
4.937952
 30
0.0
 10
4.659631
 20
4.941866
 30
0.0
 10
4.661240
 20
4.943243
 30
0.0
 10
4.662848
 20
4.944237
 30
0.0
 10
4.664344
 20
4.944897
 30
0.0
 10
4.665840
 20
4.945447
 30
0.0
 10
4.668662
 20
4.946108
 30
0.0
 10
4.671529
 20
4.946548
 30
0.0
 10
4.674352
 20
4.946717
 30
0.0
 10
4.677117
 20
4.946717
 30
0.0
 10
4.682632
 20
4.946221
 30
0.0
 10
4.688034
 20
4.945117
 30
0.0
 10
4.693379
 20
4.943630
 30
0.0
 10
4.698727
 20
4.941810
 30
0.0
 10
4.704239
 20
4.941979
 30
0.0
 10
4.710027
 20
4.943413
 30
0.0
 10
4.715813
 20
4.945176
 30
0.0
 10
4.721601
 20
4.947271
 30
0.0
 10
4.727390
 20
4.949641
 30
0.0
 10
4.733232
 20
4.952342
 30
0.0
 10
4.739020
 20
4.955319
 30
0.0
 10
4.743375
 20
4.957743
 30
0.0
 10
4.743375
 20
5.003990
 30
0.0
 10
4.739020
 20
5.006414
 30
0.0
 10
4.733232
 20
5.009391
 30
0.0
 10
4.727390
 20
5.012092
 30
0.0
 10
4.721601
 20
5.014462
 30
0.0
 10
4.715813
 20
5.016613
 30
0.0
 10
4.710027
 20
5.018377
 30
0.0
 10
4.704239
 20
5.019754
 30
0.0
 10
4.698727
 20
5.019980
 30
0.0
 10
4.693379
 20
5.018049
 30
0.0
 10
4.688034
 20
5.016616
 30
0.0
 10
4.682632
 20
5.015569
 30
0.0
 10
4.677117
 20
5.014962
 30
0.0
 10
4.674352
 20
5.014962
 30
0.0
 10
4.671529
 20
5.015188
 30
0.0
 10
4.668662
 20
5.015574
 30
0.0
 10
4.665840
 20
5.016291
 30
0.0
 10
4.664344
 20
5.016841
 30
0.0
 10
4.662848
 20
5.017502
 30
0.0
 10
4.661240
 20
5.018495
 30
0.0
 10
4.659631
 20
5.019872
 30
0.0
 10
4.657486
 20
5.023786
 30
0.0
 10
4.650320
 20
5.051788
 30
0.0
 10
4.639681
 20
5.078742
 30
0.0
 10
4.639032
 20
5.083152
 30
0.0
 10
4.639540
 20
5.085246
 30
0.0
 10
4.640245
 20
5.086900
 30
0.0
 10
4.641064
 20
5.088334
 30
0.0
 10
4.641938
 20
5.089657
 30
0.0
 10
4.643801
 20
5.091918
 30
0.0
 10
4.645890
 20
5.093958
 30
0.0
 10
4.648091
 20
5.095722
 30
0.0
 10
4.650349
 20
5.097320
 30
0.0
 10
4.655090
 20
5.100131
 30
0.0
 10
4.660105
 20
5.102445
 30
0.0
 10
4.665287
 20
5.104319
 30
0.0
 10
4.670688
 20
5.105916
 30
0.0
 10
4.675100
 20
5.109334
 30
0.0
 10
4.678958
 20
5.113854
 30
0.0
 10
4.682652
 20
5.118649
 30
0.0
 10
4.686123
 20
5.123776
 30
0.0
 10
4.689374
 20
5.129122
 30
0.0
 10
4.692462
 20
5.134689
 30
0.0
 10
4.695383
 20
5.140533
 30
0.0
 10
4.697528
 20
5.145052
 30
0.0
 10
4.670299
 20
5.182480
 30
0.0
 10
4.665391
 20
5.181873
 30
0.0
 10
4.658942
 20
5.180826
 30
0.0
 10
4.652660
 20
5.179669
 30
0.0
 10
4.646595
 20
5.178182
 30
0.0
 10
4.640643
 20
5.176418
 30
0.0
 10
4.634965
 20
5.174487
 30
0.0
 10
4.629396
 20
5.172227
 30
0.0
 10
4.624878
 20
5.169085
 30
0.0
 10
4.621681
 20
5.164400
 30
0.0
 10
4.618209
 20
5.160045
 30
0.0
 10
4.614461
 20
5.156021
 30
0.0
 10
4.610327
 20
5.152383
 30
0.0
 10
4.608069
 20
5.150676
 30
0.0
 10
4.605755
 20
5.149188
 30
0.0
 10
4.603271
 20
5.147811
 30
0.0
 10
4.600449
 20
5.146708
 30
0.0
 10
4.598953
 20
5.146321
 30
0.0
 10
4.597288
 20
5.145991
 30
0.0
 10
4.595482
 20
5.145765
 30
0.0
 10
4.593337
 20
5.145991
 30
0.0
 10
4.589369
 20
5.147921
 30
0.0
 10
4.567045
 20
5.166387
 30
0.0
 10
4.542624
 20
5.181876
 30
0.0
 10
4.539540
 20
5.185128
 30
0.0
 10
4.538721
 20
5.187112
 30
0.0
 10
4.538270
 20
5.188876
 30
0.0
 10
4.537988
 20
5.190474
 30
0.0
 10
4.537988
 20
5.192071
 30
0.0
 10
4.538270
 20
5.195048
 30
0.0
 10
4.538778
 20
5.197858
 30
0.0
 10
4.539540
 20
5.200559
 30
0.0
 10
4.540471
 20
5.203204
 30
0.0
 10
4.542616
 20
5.208220
 30
0.0
 10
4.545269
 20
5.213070
 30
0.0
 10
4.548413
 20
5.217701
 30
0.0
 10
4.551828
 20
5.222110
 30
0.0
 10
4.553436
 20
5.227512
 30
0.0
 10
4.553888
 20
5.233410
 30
0.0
 10
4.553888
 20
5.239418
 30
0.0
 10
4.553606
 20
5.245647
 30
0.0
 10
4.553154
 20
5.251876
 30
0.0
 10
4.552392
 20
5.258215
 30
0.0
 10
4.551348
 20
5.264719
 30
0.0
 10
4.550360
 20
5.269515
 30
0.0
 10
4.506373
 20
5.283846
 30
0.0
 10
4.502735
 20
5.280429
 30
0.0
 10
4.498104
 20
5.275854
 30
0.0
 10
4.493749
 20
5.271168
 30
0.0
 10
4.489671
 20
5.266373
 30
0.0
 10
4.485867
 20
5.261522
 30
0.0
 10
4.482449
 20
5.256561
 30
0.0
 10
4.479308
 20
5.251490
 30
0.0
 10
4.477473
 20
5.246254
 30
0.0
 10
4.477756
 20
5.240631
 30
0.0
 10
4.477473
 20
5.235064
 30
0.0
 10
4.476824
 20
5.229607
 30
0.0
 10
4.475667
 20
5.224205
 30
0.0
 10
4.474905
 20
5.221561
 30
0.0
 10
4.473805
 20
5.218916
 30
0.0
 10
4.472591
 20
5.216382
 30
0.0
 10
4.470982
 20
5.213845
 30
0.0
 10
4.470051
 20
5.212577
 30
0.0
 10
4.468950
 20
5.211420
 30
0.0
 10
4.467511
 20
5.210207
 30
0.0
 10
4.465705
 20
5.209050
 30
0.0
 10
4.461294
 20
5.208279
 30
0.0
 10
4.432465
 20
5.210097
 30
0.0
 10
4.403526
 20
5.208279
 30
0.0
 10
4.399171
 20
5.209050
 30
0.0
 10
4.397365
 20
5.210207
 30
0.0
 10
4.395982
 20
5.211420
 30
0.0
 10
4.394881
 20
5.212577
 30
0.0
 10
4.393950
 20
5.213845
 30
0.0
 10
4.392285
 20
5.216382
 30
0.0
 10
4.391015
 20
5.218916
 30
0.0
 10
4.390027
 20
5.221561
 30
0.0
 10
4.389208
 20
5.224205
 30
0.0
 10
4.388051
 20
5.229607
 30
0.0
 10
4.387346
 20
5.235064
 30
0.0
 10
4.387064
 20
5.240631
 30
0.0
 10
4.387346
 20
5.246254
 30
0.0
 10
4.385540
 20
5.251490
 30
0.0
 10
4.382396
 20
5.256561
 30
0.0
 10
4.378924
 20
5.261522
 30
0.0
 10
4.375120
 20
5.266373
 30
0.0
 10
4.371042
 20
5.271168
 30
0.0
 10
4.366687
 20
5.275854
 30
0.0
 10
4.362056
 20
5.280429
 30
0.0
 10
4.358418
 20
5.283846
 30
0.0
 10
4.314431
 20
5.269515
 30
0.0
 10
4.313443
 20
5.264719
 30
0.0
 10
4.312455
 20
5.258215
 30
0.0
 10
4.311637
 20
5.251876
 30
0.0
 10
4.311185
 20
5.245647
 30
0.0
 10
4.310903
 20
5.239418
 30
0.0
 10
4.311185
 20
5.233410
 30
0.0
 10
4.311637
 20
5.227512
 30
0.0
 10
4.313245
 20
5.222110
 30
0.0
 10
4.316663
 20
5.217701
 30
0.0
 10
4.319751
 20
5.213070
 30
0.0
 10
4.322404
 20
5.208220
 30
0.0
 10
4.324605
 20
5.203204
 30
0.0
 10
4.325536
 20
5.200559
 30
0.0
 10
4.326242
 20
5.197858
 30
0.0
 10
4.326750
 20
5.195048
 30
0.0
 10
4.327032
 20
5.192071
 30
0.0
 10
4.327032
 20
5.190474
 30
0.0
 10
4.326750
 20
5.188876
 30
0.0
 10
4.326242
 20
5.187112
 30
0.0
 10
4.325423
 20
5.185128
 30
0.0
 10
4.322336
 20
5.181876
 30
0.0
 10
4.297972
 20
5.166387
 30
0.0
 10
4.275648
 20
5.147921
 30
0.0
 10
4.271623
 20
5.145991
 30
0.0
 10
4.269478
 20
5.145765
 30
0.0
 10
4.267672
 20
5.145991
 30
0.0
 10
4.266064
 20
5.146321
 30
0.0
 10
4.264568
 20
5.146708
 30
0.0
 10
4.261746
 20
5.147811
 30
0.0
 10
4.259262
 20
5.149188
 30
0.0
 10
4.256835
 20
5.150676
 30
0.0
 10
4.254634
 20
5.152383
 30
0.0
 10
4.250555
 20
5.156021
 30
0.0
 10
4.246808
 20
5.160045
 30
0.0
 10
4.243336
 20
5.164400
 30
0.0
 10
4.240139
 20
5.169085
 30
0.0
 10
4.235564
 20
5.172227
 30
0.0
 10
4.230052
 20
5.174487
 30
0.0
 10
4.224374
 20
5.176418
 30
0.0
 10
4.218419
 20
5.178182
 30
0.0
 10
4.212300
 20
5.179669
 30
0.0
 10
4.206018
 20
5.180826
 30
0.0
 10
4.199569
 20
5.181873
 30
0.0
 10
4.194661
 20
5.182480
 30
0.0
 10
4.167489
 20
5.145052
 30
0.0
 10
4.169577
 20
5.140533
 30
0.0
 10
4.172498
 20
5.134689
 30
0.0
 10
4.175586
 20
5.129122
 30
0.0
 10
4.178891
 20
5.123776
 30
0.0
 10
4.182365
 20
5.118649
 30
0.0
 10
4.186003
 20
5.113854
 30
0.0
 10
4.189861
 20
5.109334
 30
0.0
 10
4.194272
 20
5.105916
 30
0.0
 10
4.199727
 20
5.104319
 30
0.0
 10
4.204909
 20
5.102445
 30
0.0
 10
4.209927
 20
5.100131
 30
0.0
 10
4.214665
 20
5.097320
 30
0.0
 10
4.216923
 20
5.095722
 30
0.0
 10
4.219068
 20
5.093958
 30
0.0
 10
4.221156
 20
5.091918
 30
0.0
 10
4.223019
 20
5.089657
 30
0.0
 10
4.223950
 20
5.088334
 30
0.0
 10
4.224769
 20
5.086900
 30
0.0
 10
4.225418
 20
5.085246
 30
0.0
 10
4.225926
 20
5.083152
 30
0.0
 10
4.225305
 20
5.078742
 30
0.0
 10
4.214668
 20
5.051788
 30
0.0
 10
4.207446
 20
5.023786
 30
0.0
 10
4.205358
 20
5.019872
 30
0.0
 10
4.203749
 20
5.018495
 30
0.0
 10
4.202140
 20
5.017502
 30
0.0
 10
4.200644
 20
5.016841
 30
0.0
 10
4.199149
 20
5.016291
 30
0.0
 10
4.196281
 20
5.015574
 30
0.0
 10
4.193459
 20
5.015188
 30
0.0
 10
4.190592
 20
5.014962
 30
0.0
 10
4.187826
 20
5.014962
 30
0.0
 10
4.182368
 20
5.015569
 30
0.0
 10
4.176910
 20
5.016616
 30
0.0
 10
4.171564
 20
5.018049
 30
0.0
 10
4.166273
 20
5.019980
 30
0.0
 10
4.160704
 20
5.019754
 30
0.0
 10
4.154916
 20
5.018377
 30
0.0
 10
4.149130
 20
5.016613
 30
0.0
 10
4.143342
 20
5.014462
 30
0.0
 10
4.137554
 20
5.012092
 30
0.0
 10
4.131712
 20
5.009391
 30
0.0
 10
4.125923
 20
5.006414
 30
0.0
 10
4.121625
 20
5.003990
 30
0.0
 10
4.121625
 20
4.957743
 30
0.0
 10
4.125923
 20
4.955319
 30
0.0
 10
4.131712
 20
4.952342
 30
0.0
 10
4.137554
 20
4.949641
 30
0.0
 10
4.143342
 20
4.947271
 30
0.0
 10
4.149130
 20
4.945176
 30
0.0
 10
4.154916
 20
4.943413
 30
0.0
 10
4.160704
 20
4.941979
 30
0.0
 10
4.166273
 20
4.941810
 30
0.0
 10
4.171564
 20
4.943630
 30
0.0
 10
4.176910
 20
4.945117
 30
0.0
 10
4.182368
 20
4.946221
 30
0.0
 10
4.187826
 20
4.946717
 30
0.0
 10
4.190592
 20
4.946717
 30
0.0
 10
4.193459
 20
4.946548
 30
0.0
 10
4.196281
 20
4.946108
 30
0.0
 10
4.199149
 20
4.945447
 30
0.0
 10
4.200644
 20
4.944897
 30
0.0
 10
4.202140
 20
4.944237
 30
0.0
 10
4.203749
 20
4.943243
 30
0.0
 10
4.205358
 20
4.941866
 30
0.0
 10
4.207446
 20
4.937952
 30
0.0
 10
4.214668
 20
4.909896
 30
0.0
 10
4.225305
 20
4.882996
 30
0.0
 10
4.225926
 20
4.878587
 30
0.0
 10
4.225418
 20
4.876493
 30
0.0
 10
4.224769
 20
4.874785
 30
0.0
 10
4.223950
 20
4.873351
 30
0.0
 10
4.223019
 20
4.872084
 30
0.0
 10
4.221156
 20
4.869824
 30
0.0
 10
4.219068
 20
4.867783
 30
0.0
 10
4.216923
 20
4.866019
 30
0.0
 10
4.214665
 20
4.864422
 30
0.0
 10
4.209927
 20
4.861667
 30
0.0
 10
4.204909
 20
4.859297
 30
0.0
 10
4.199727
 20
4.857423
 30
0.0
 10
4.194272
 20
4.855769
 30
0.0
 10
4.189861
 20
4.852407
 30
0.0
 10
4.186003
 20
4.847831
 30
0.0
 10
4.182365
 20
4.843091
 30
0.0
 10
4.178891
 20
4.837910
 30
0.0
 10
4.175586
 20
4.832618
 30
0.0
 10
4.172498
 20
4.826996
 30
0.0
 10
4.169577
 20
4.821208
 30
0.0
 10
4.167489
 20
4.816688
 30
0.0
 10
4.194661
 20
4.779260
 30
0.0
 10
4.199569
 20
4.779867
 30
0.0
 10
4.206018
 20
4.780860
 30
0.0
 10
4.212300
 20
4.782074
 30
0.0
 10
4.218419
 20
4.783561
 30
0.0
 10
4.224374
 20
4.785325
 30
0.0
 10
4.230052
 20
4.787256
 30
0.0
 10
4.235564
 20
4.789516
 30
0.0
 10
4.240139
 20
4.792713
 30
0.0
 10
4.243336
 20
4.797343
 30
0.0
 10
4.246808
 20
4.801698
 30
0.0
 10
4.250555
 20
4.805722
 30
0.0
 10
4.254634
 20
4.809415
 30
0.0
 10
4.256835
 20
4.811069
 30
0.0
 10
4.259262
 20
4.812556
 30
0.0
 10
4.261746
 20
4.813933
 30
0.0
 10
4.264568
 20
4.815037
 30
0.0
 10
4.266064
 20
4.815477
 30
0.0
 10
4.267672
 20
4.815807
 30
0.0
 10
4.269478
 20
4.815920
 30
0.0
 10
4.271623
 20
4.815751
 30
0.0
 10
4.275648
 20
4.813820
 30
0.0
 10
4.297972
 20
4.795355
 30
0.0
 10
4.322336
 20
4.779866
 30
0.0
 10
4.325423
 20
4.776669
 30
0.0
 10
4.326242
 20
4.774685
 30
0.0
 10
4.326750
 20
4.772921
 30
0.0
 10
4.327032
 20
4.771267
 30
0.0
 10
4.327032
 20
4.769723
 30
0.0
 10
4.326750
 20
4.766747
 30
0.0
 10
4.326242
 20
4.763936
 30
0.0
 10
4.325536
 20
4.761179
 30
0.0
 10
4.324605
 20
4.758534
 30
0.0
 10
4.322404
 20
4.753518
 30
0.0
 10
4.319751
 20
4.748667
 30
0.0
 10
4.316663
 20
4.744092
 30
0.0
 10
4.313245
 20
4.739627
 30
0.0
 10
4.311637
 20
4.734225
 30
0.0
 10
4.311185
 20
4.728328
 30
0.0
 10
4.310903
 20
4.722319
 30
0.0
 10
4.311185
 20
4.716146
 30
0.0
 10
4.311637
 20
4.709917
 30
0.0
 10
4.312455
 20
4.703523
 30
0.0
 10
4.313443
 20
4.697073
 30
0.0
 10
4.314431
 20
4.692223
 30
0.0
 10
4.358418
 20
4.677891
 30
0.0
 10
4.362056
 20
4.681309
 30
0.0
 10
4.366687
 20
4.685939
 30
0.0
 10
4.371042
 20
4.690569
 30
0.0
 10
4.375120
 20
4.695365
 30
0.0
 10
4.378924
 20
4.700271
 30
0.0
 10
4.382396
 20
4.705176
 30
0.0
 10
4.385540
 20
4.710248
 30
0.0
 10
4.387346
 20
4.715484
 30
0.0
 10
4.387064
 20
4.721162
 30
0.0
 10
4.387346
 20
4.726674
 30
0.0
 10
4.388051
 20
4.732131
 30
0.0
 10
4.389208
 20
4.737533
 30
0.0
 10
4.390027
 20
4.740177
 30
0.0
 10
4.391015
 20
4.742822
 30
0.0
 10
4.392285
 20
4.745356
 30
0.0
 10
4.393950
 20
4.747893
 30
0.0
 10
4.394881
 20
4.749160
 30
0.0
 10
4.395982
 20
4.750374
 30
0.0
 10
4.397365
 20
4.751531
 30
0.0
 10
4.399171
 20
4.752635
 30
0.0
 10
4.403526
 20
4.753405
 30
0.0
 10
4.432465
 20
4.751585
 30
0.0
 10
4.461294
 20
4.753405
 30
0.0
 10
4.465705
 20
4.752635
 30
0.0
 10
4.467511
 20
4.751531
 30
0.0
 10
4.468950
 20
4.750374
 30
0.0
 10
4.470051
 20
4.749160
 30
0.0
 10
4.470982
 20
4.747893
 30
0.0
 10
4.472591
 20
4.745356
 30
0.0
 10
4.473805
 20
4.742822
 30
0.0
 10
4.474905
 20
4.740177
 30
0.0
 10
4.475667
 20
4.737533
 30
0.0
 10
4.476824
 20
4.732131
 30
0.0
 10
4.477473
 20
4.726674
 30
0.0
 10
4.477756
 20
4.721162
 30
0.0
 10
4.477473
 20
4.715484
 30
0.0
 10
4.479308
 20
4.710248
 30
0.0
 10
4.482449
 20
4.705176
 30
0.0
 10
4.485867
 20
4.700271
 30
0.0
 10
4.489671
 20
4.695365
 30
0.0
 10
4.493749
 20
4.690569
 30
0.0
 10
4.498104
 20
4.685939
 30
0.0
 10
4.502735
 20
4.681309
 30
0.0
 10
4.506373
 20
4.677891
 30
0.0
 10
4.506373
 20
4.677891
 30
0.0
  0
LWPOLYLINE
  5
109
100
AcDbEntity
  8
Layer_1
 62
7
100
AcDbPolyline
 90
18
 70
0
 10
4.431406
 20
4.814868
 30
0.0
 10
4.367919
 20
4.827482
 30
0.0
 10
4.314094
 20
4.863432
 30
0.0
 10
4.278125
 20
4.917246
 30
0.0
 10
4.265491
 20
4.980729
 30
0.0
 10
4.278125
 20
5.044212
 30
0.0
 10
4.314094
 20
5.098026
 30
0.0
 10
4.367920
 20
5.133976
 30
0.0
 10
4.431406
 20
5.146590
 30
0.0
 10
4.495965
 20
5.133552
 30
0.0
 10
4.548684
 20
5.098007
 30
0.0
 10
4.584230
 20
5.045287
 30
0.0
 10
4.597268
 20
4.980729
 30
0.0
 10
4.584230
 20
4.916171
 30
0.0
 10
4.548684
 20
4.863451
 30
0.0
 10
4.495965
 20
4.827906
 30
0.0
 10
4.431406
 20
4.814868
 30
0.0
 10
4.431406
 20
4.814868
 30
0.0
  0
LWPOLYLINE
  5
10a
100
AcDbEntity
  8
Layer_1
 62
7
100
AcDbPolyline
 90
452
 70
0
 10
0.836220
 20
5.550591
 30
0.0
 10
0.821888
 20
5.594578
 30
0.0
 10
0.817037
 20
5.595566
 30
0.0
 10
0.810588
 20
5.596610
 30
0.0
 10
0.804194
 20
5.597372
 30
0.0
 10
0.797965
 20
5.597824
 30
0.0
 10
0.791792
 20
5.598106
 30
0.0
 10
0.785783
 20
5.598106
 30
0.0
 10
0.779885
 20
5.597654
 30
0.0
 10
0.774483
 20
5.596046
 30
0.0
 10
0.770019
 20
5.592631
 30
0.0
 10
0.765444
 20
5.589487
 30
0.0
 10
0.760593
 20
5.586834
 30
0.0
 10
0.755577
 20
5.584689
 30
0.0
 10
0.752932
 20
5.583758
 30
0.0
 10
0.750175
 20
5.582996
 30
0.0
 10
0.747364
 20
5.582488
 30
0.0
 10
0.744388
 20
5.582206
 30
0.0
 10
0.742844
 20
5.582206
 30
0.0
 10
0.741190
 20
5.582488
 30
0.0
 10
0.739426
 20
5.582939
 30
0.0
 10
0.737442
 20
5.583758
 30
0.0
 10
0.734245
 20
5.586842
 30
0.0
 10
0.718756
 20
5.611263
 30
0.0
 10
0.700291
 20
5.633587
 30
0.0
 10
0.698360
 20
5.637555
 30
0.0
 10
0.698191
 20
5.639700
 30
0.0
 10
0.698304
 20
5.641506
 30
0.0
 10
0.698634
 20
5.643171
 30
0.0
 10
0.699074
 20
5.644667
 30
0.0
 10
0.700178
 20
5.647489
 30
0.0
 10
0.701555
 20
5.649973
 30
0.0
 10
0.703042
 20
5.652287
 30
0.0
 10
0.704696
 20
5.654545
 30
0.0
 10
0.708389
 20
5.658679
 30
0.0
 10
0.712413
 20
5.662427
 30
0.0
 10
0.716768
 20
5.665899
 30
0.0
 10
0.721398
 20
5.669096
 30
0.0
 10
0.724595
 20
5.673614
 30
0.0
 10
0.726855
 20
5.679183
 30
0.0
 10
0.728786
 20
5.684861
 30
0.0
 10
0.730550
 20
5.690813
 30
0.0
 10
0.732037
 20
5.696878
 30
0.0
 10
0.733250
 20
5.703160
 30
0.0
 10
0.734244
 20
5.709609
 30
0.0
 10
0.734851
 20
5.714517
 30
0.0
 10
0.697423
 20
5.741746
 30
0.0
 10
0.692903
 20
5.739601
 30
0.0
 10
0.687115
 20
5.736680
 30
0.0
 10
0.681493
 20
5.733592
 30
0.0
 10
0.676201
 20
5.730341
 30
0.0
 10
0.671020
 20
5.726870
 30
0.0
 10
0.666279
 20
5.723176
 30
0.0
 10
0.661704
 20
5.719318
 30
0.0
 10
0.658342
 20
5.714906
 30
0.0
 10
0.656688
 20
5.709505
 30
0.0
 10
0.654814
 20
5.704323
 30
0.0
 10
0.652443
 20
5.699308
 30
0.0
 10
0.649689
 20
5.694567
 30
0.0
 10
0.648092
 20
5.692309
 30
0.0
 10
0.646328
 20
5.690108
 30
0.0
 10
0.644287
 20
5.688019
 30
0.0
 10
0.642027
 20
5.686156
 30
0.0
 10
0.640759
 20
5.685282
 30
0.0
 10
0.639326
 20
5.684463
 30
0.0
 10
0.637618
 20
5.683758
 30
0.0
 10
0.635524
 20
5.683250
 30
0.0
 10
0.631115
 20
5.683899
 30
0.0
 10
0.604215
 20
5.694538
 30
0.0
 10
0.576159
 20
5.701704
 30
0.0
 10
0.572245
 20
5.703849
 30
0.0
 10
0.570868
 20
5.705458
 30
0.0
 10
0.569874
 20
5.707066
 30
0.0
 10
0.569214
 20
5.708562
 30
0.0
 10
0.568664
 20
5.710058
 30
0.0
 10
0.568003
 20
5.712880
 30
0.0
 10
0.567563
 20
5.715747
 30
0.0
 10
0.567394
 20
5.718570
 30
0.0
 10
0.567394
 20
5.721335
 30
0.0
 10
0.567890
 20
5.726850
 30
0.0
 10
0.568994
 20
5.732252
 30
0.0
 10
0.570481
 20
5.737597
 30
0.0
 10
0.572301
 20
5.742945
 30
0.0
 10
0.572132
 20
5.748457
 30
0.0
 10
0.570698
 20
5.754245
 30
0.0
 10
0.568934
 20
5.760031
 30
0.0
 10
0.566840
 20
5.765819
 30
0.0
 10
0.564470
 20
5.771608
 30
0.0
 10
0.561769
 20
5.777450
 30
0.0
 10
0.558792
 20
5.783238
 30
0.0
 10
0.556368
 20
5.787593
 30
0.0
 10
0.510121
 20
5.787593
 30
0.0
 10
0.507697
 20
5.783238
 30
0.0
 10
0.504720
 20
5.777450
 30
0.0
 10
0.502019
 20
5.771608
 30
0.0
 10
0.499649
 20
5.765819
 30
0.0
 10
0.497498
 20
5.760031
 30
0.0
 10
0.495734
 20
5.754245
 30
0.0
 10
0.494357
 20
5.748457
 30
0.0
 10
0.494131
 20
5.742945
 30
0.0
 10
0.496062
 20
5.737597
 30
0.0
 10
0.497495
 20
5.732252
 30
0.0
 10
0.498542
 20
5.726850
 30
0.0
 10
0.499149
 20
5.721335
 30
0.0
 10
0.499149
 20
5.718570
 30
0.0
 10
0.498923
 20
5.715747
 30
0.0
 10
0.498537
 20
5.712880
 30
0.0
 10
0.497820
 20
5.710058
 30
0.0
 10
0.497270
 20
5.708562
 30
0.0
 10
0.496609
 20
5.707066
 30
0.0
 10
0.495616
 20
5.705458
 30
0.0
 10
0.494238
 20
5.703849
 30
0.0
 10
0.490325
 20
5.701704
 30
0.0
 10
0.462323
 20
5.694538
 30
0.0
 10
0.435369
 20
5.683899
 30
0.0
 10
0.430959
 20
5.683250
 30
0.0
 10
0.428865
 20
5.683758
 30
0.0
 10
0.427211
 20
5.684463
 30
0.0
 10
0.425777
 20
5.685282
 30
0.0
 10
0.424454
 20
5.686156
 30
0.0
 10
0.422193
 20
5.688019
 30
0.0
 10
0.420153
 20
5.690108
 30
0.0
 10
0.418389
 20
5.692309
 30
0.0
 10
0.416791
 20
5.694567
 30
0.0
 10
0.413980
 20
5.699308
 30
0.0
 10
0.411666
 20
5.704323
 30
0.0
 10
0.409792
 20
5.709505
 30
0.0
 10
0.408195
 20
5.714906
 30
0.0
 10
0.404777
 20
5.719318
 30
0.0
 10
0.400257
 20
5.723176
 30
0.0
 10
0.395462
 20
5.726870
 30
0.0
 10
0.390335
 20
5.730341
 30
0.0
 10
0.384989
 20
5.733592
 30
0.0
 10
0.379421
 20
5.736680
 30
0.0
 10
0.373578
 20
5.739601
 30
0.0
 10
0.369058
 20
5.741746
 30
0.0
 10
0.331631
 20
5.714517
 30
0.0
 10
0.332238
 20
5.709609
 30
0.0
 10
0.333285
 20
5.703160
 30
0.0
 10
0.334442
 20
5.696878
 30
0.0
 10
0.335929
 20
5.690813
 30
0.0
 10
0.337693
 20
5.684861
 30
0.0
 10
0.339624
 20
5.679183
 30
0.0
 10
0.341884
 20
5.673614
 30
0.0
 10
0.345026
 20
5.669096
 30
0.0
 10
0.349711
 20
5.665899
 30
0.0
 10
0.354066
 20
5.662427
 30
0.0
 10
0.358090
 20
5.658679
 30
0.0
 10
0.361728
 20
5.654545
 30
0.0
 10
0.363435
 20
5.652287
 30
0.0
 10
0.364923
 20
5.649973
 30
0.0
 10
0.366300
 20
5.647489
 30
0.0
 10
0.367403
 20
5.644667
 30
0.0
 10
0.367790
 20
5.643171
 30
0.0
 10
0.368120
 20
5.641506
 30
0.0
 10
0.368346
 20
5.639700
 30
0.0
 10
0.368120
 20
5.637555
 30
0.0
 10
0.366190
 20
5.633587
 30
0.0
 10
0.347724
 20
5.611263
 30
0.0
 10
0.332235
 20
5.586842
 30
0.0
 10
0.328983
 20
5.583758
 30
0.0
 10
0.326999
 20
5.582939
 30
0.0
 10
0.325235
 20
5.582488
 30
0.0
 10
0.323637
 20
5.582206
 30
0.0
 10
0.322040
 20
5.582206
 30
0.0
 10
0.319063
 20
5.582488
 30
0.0
 10
0.316252
 20
5.582996
 30
0.0
 10
0.313552
 20
5.583758
 30
0.0
 10
0.310907
 20
5.584689
 30
0.0
 10
0.305891
 20
5.586834
 30
0.0
 10
0.301040
 20
5.589487
 30
0.0
 10
0.296410
 20
5.592631
 30
0.0
 10
0.292001
 20
5.596046
 30
0.0
 10
0.286599
 20
5.597654
 30
0.0
 10
0.280701
 20
5.598106
 30
0.0
 10
0.274692
 20
5.598106
 30
0.0
 10
0.268464
 20
5.597824
 30
0.0
 10
0.262235
 20
5.597372
 30
0.0
 10
0.255896
 20
5.596610
 30
0.0
 10
0.249391
 20
5.595566
 30
0.0
 10
0.244596
 20
5.594578
 30
0.0
 10
0.230264
 20
5.550591
 30
0.0
 10
0.233682
 20
5.546953
 30
0.0
 10
0.238257
 20
5.542322
 30
0.0
 10
0.242942
 20
5.537967
 30
0.0
 10
0.247738
 20
5.533889
 30
0.0
 10
0.252589
 20
5.530085
 30
0.0
 10
0.257550
 20
5.526667
 30
0.0
 10
0.262621
 20
5.523526
 30
0.0
 10
0.267857
 20
5.521691
 30
0.0
 10
0.273480
 20
5.521974
 30
0.0
 10
0.279047
 20
5.521691
 30
0.0
 10
0.284504
 20
5.521042
 30
0.0
 10
0.289906
 20
5.519885
 30
0.0
 10
0.292550
 20
5.519123
 30
0.0
 10
0.295195
 20
5.518023
 30
0.0
 10
0.297729
 20
5.516809
 30
0.0
 10
0.300266
 20
5.515200
 30
0.0
 10
0.301533
 20
5.514269
 30
0.0
 10
0.302691
 20
5.513168
 30
0.0
 10
0.303904
 20
5.511729
 30
0.0
 10
0.305061
 20
5.509923
 30
0.0
 10
0.305832
 20
5.505512
 30
0.0
 10
0.304014
 20
5.476683
 30
0.0
 10
0.305832
 20
5.447744
 30
0.0
 10
0.305061
 20
5.443389
 30
0.0
 10
0.303904
 20
5.441583
 30
0.0
 10
0.302691
 20
5.440200
 30
0.0
 10
0.301533
 20
5.439099
 30
0.0
 10
0.300266
 20
5.438168
 30
0.0
 10
0.297729
 20
5.436503
 30
0.0
 10
0.295195
 20
5.435233
 30
0.0
 10
0.292550
 20
5.434245
 30
0.0
 10
0.289906
 20
5.433426
 30
0.0
 10
0.284504
 20
5.432269
 30
0.0
 10
0.279047
 20
5.431564
 30
0.0
 10
0.273480
 20
5.431282
 30
0.0
 10
0.267857
 20
5.431564
 30
0.0
 10
0.262621
 20
5.429758
 30
0.0
 10
0.257550
 20
5.426614
 30
0.0
 10
0.252589
 20
5.423142
 30
0.0
 10
0.247738
 20
5.419338
 30
0.0
 10
0.242942
 20
5.415260
 30
0.0
 10
0.238257
 20
5.410905
 30
0.0
 10
0.233682
 20
5.406274
 30
0.0
 10
0.230264
 20
5.402636
 30
0.0
 10
0.244596
 20
5.358649
 30
0.0
 10
0.249391
 20
5.357661
 30
0.0
 10
0.255896
 20
5.356673
 30
0.0
 10
0.262235
 20
5.355855
 30
0.0
 10
0.268464
 20
5.355403
 30
0.0
 10
0.274692
 20
5.355121
 30
0.0
 10
0.280701
 20
5.355403
 30
0.0
 10
0.286599
 20
5.355855
 30
0.0
 10
0.292001
 20
5.357464
 30
0.0
 10
0.296410
 20
5.360881
 30
0.0
 10
0.301040
 20
5.363969
 30
0.0
 10
0.305891
 20
5.366622
 30
0.0
 10
0.310907
 20
5.368823
 30
0.0
 10
0.313552
 20
5.369754
 30
0.0
 10
0.316252
 20
5.370460
 30
0.0
 10
0.319063
 20
5.370968
 30
0.0
 10
0.322040
 20
5.371250
 30
0.0
 10
0.323637
 20
5.371250
 30
0.0
 10
0.325235
 20
5.370968
 30
0.0
 10
0.326999
 20
5.370460
 30
0.0
 10
0.328983
 20
5.369641
 30
0.0
 10
0.332235
 20
5.366554
 30
0.0
 10
0.347724
 20
5.342190
 30
0.0
 10
0.366190
 20
5.319866
 30
0.0
 10
0.368120
 20
5.315841
 30
0.0
 10
0.368346
 20
5.313696
 30
0.0
 10
0.368120
 20
5.311890
 30
0.0
 10
0.367790
 20
5.310282
 30
0.0
 10
0.367403
 20
5.308786
 30
0.0
 10
0.366300
 20
5.305964
 30
0.0
 10
0.364923
 20
5.303480
 30
0.0
 10
0.363435
 20
5.301053
 30
0.0
 10
0.361728
 20
5.298852
 30
0.0
 10
0.358090
 20
5.294773
 30
0.0
 10
0.354066
 20
5.291026
 30
0.0
 10
0.349711
 20
5.287554
 30
0.0
 10
0.345026
 20
5.284357
 30
0.0
 10
0.341884
 20
5.279782
 30
0.0
 10
0.339624
 20
5.274270
 30
0.0
 10
0.337693
 20
5.268592
 30
0.0
 10
0.335929
 20
5.262637
 30
0.0
 10
0.334442
 20
5.256518
 30
0.0
 10
0.333285
 20
5.250236
 30
0.0
 10
0.332238
 20
5.243787
 30
0.0
 10
0.331631
 20
5.238879
 30
0.0
 10
0.369058
 20
5.211707
 30
0.0
 10
0.373578
 20
5.213795
 30
0.0
 10
0.379421
 20
5.216716
 30
0.0
 10
0.384989
 20
5.219804
 30
0.0
 10
0.390335
 20
5.223109
 30
0.0
 10
0.395462
 20
5.226583
 30
0.0
 10
0.400257
 20
5.230221
 30
0.0
 10
0.404777
 20
5.234079
 30
0.0
 10
0.408195
 20
5.238490
 30
0.0
 10
0.409792
 20
5.243945
 30
0.0
 10
0.411666
 20
5.249127
 30
0.0
 10
0.413980
 20
5.254145
 30
0.0
 10
0.416791
 20
5.258883
 30
0.0
 10
0.418389
 20
5.261141
 30
0.0
 10
0.420153
 20
5.263286
 30
0.0
 10
0.422193
 20
5.265374
 30
0.0
 10
0.424454
 20
5.267237
 30
0.0
 10
0.425777
 20
5.268168
 30
0.0
 10
0.427211
 20
5.268987
 30
0.0
 10
0.428865
 20
5.269636
 30
0.0
 10
0.430959
 20
5.270144
 30
0.0
 10
0.435369
 20
5.269523
 30
0.0
 10
0.462323
 20
5.258886
 30
0.0
 10
0.490325
 20
5.251664
 30
0.0
 10
0.494238
 20
5.249576
 30
0.0
 10
0.495616
 20
5.247967
 30
0.0
 10
0.496609
 20
5.246358
 30
0.0
 10
0.497270
 20
5.244862
 30
0.0
 10
0.497820
 20
5.243367
 30
0.0
 10
0.498537
 20
5.240499
 30
0.0
 10
0.498923
 20
5.237677
 30
0.0
 10
0.499149
 20
5.234810
 30
0.0
 10
0.499149
 20
5.232044
 30
0.0
 10
0.498542
 20
5.226586
 30
0.0
 10
0.497495
 20
5.221128
 30
0.0
 10
0.496062
 20
5.215782
 30
0.0
 10
0.494131
 20
5.210491
 30
0.0
 10
0.494357
 20
5.204922
 30
0.0
 10
0.495734
 20
5.199134
 30
0.0
 10
0.497498
 20
5.193348
 30
0.0
 10
0.499649
 20
5.187560
 30
0.0
 10
0.502019
 20
5.181772
 30
0.0
 10
0.504720
 20
5.175930
 30
0.0
 10
0.507697
 20
5.170141
 30
0.0
 10
0.510121
 20
5.165843
 30
0.0
 10
0.556368
 20
5.165843
 30
0.0
 10
0.558792
 20
5.170141
 30
0.0
 10
0.561769
 20
5.175930
 30
0.0
 10
0.564470
 20
5.181772
 30
0.0
 10
0.566840
 20
5.187560
 30
0.0
 10
0.568934
 20
5.193348
 30
0.0
 10
0.570698
 20
5.199134
 30
0.0
 10
0.572132
 20
5.204922
 30
0.0
 10
0.572301
 20
5.210491
 30
0.0
 10
0.570481
 20
5.215782
 30
0.0
 10
0.568994
 20
5.221128
 30
0.0
 10
0.567890
 20
5.226586
 30
0.0
 10
0.567394
 20
5.232044
 30
0.0
 10
0.567394
 20
5.234810
 30
0.0
 10
0.567563
 20
5.237677
 30
0.0
 10
0.568003
 20
5.240499
 30
0.0
 10
0.568664
 20
5.243367
 30
0.0
 10
0.569214
 20
5.244862
 30
0.0
 10
0.569874
 20
5.246358
 30
0.0
 10
0.570868
 20
5.247967
 30
0.0
 10
0.572245
 20
5.249576
 30
0.0
 10
0.576159
 20
5.251664
 30
0.0
 10
0.604215
 20
5.258886
 30
0.0
 10
0.631115
 20
5.269523
 30
0.0
 10
0.635524
 20
5.270144
 30
0.0
 10
0.637618
 20
5.269636
 30
0.0
 10
0.639326
 20
5.268987
 30
0.0
 10
0.640759
 20
5.268168
 30
0.0
 10
0.642027
 20
5.267237
 30
0.0
 10
0.644287
 20
5.265374
 30
0.0
 10
0.646328
 20
5.263286
 30
0.0
 10
0.648092
 20
5.261141
 30
0.0
 10
0.649689
 20
5.258883
 30
0.0
 10
0.652443
 20
5.254145
 30
0.0
 10
0.654814
 20
5.249127
 30
0.0
 10
0.656688
 20
5.243945
 30
0.0
 10
0.658342
 20
5.238490
 30
0.0
 10
0.661704
 20
5.234079
 30
0.0
 10
0.666279
 20
5.230221
 30
0.0
 10
0.671020
 20
5.226583
 30
0.0
 10
0.676201
 20
5.223109
 30
0.0
 10
0.681493
 20
5.219804
 30
0.0
 10
0.687115
 20
5.216716
 30
0.0
 10
0.692903
 20
5.213795
 30
0.0
 10
0.697423
 20
5.211707
 30
0.0
 10
0.734851
 20
5.238879
 30
0.0
 10
0.734244
 20
5.243787
 30
0.0
 10
0.733250
 20
5.250236
 30
0.0
 10
0.732037
 20
5.256518
 30
0.0
 10
0.730550
 20
5.262637
 30
0.0
 10
0.728786
 20
5.268592
 30
0.0
 10
0.726855
 20
5.274270
 30
0.0
 10
0.724595
 20
5.279782
 30
0.0
 10
0.721398
 20
5.284357
 30
0.0
 10
0.716768
 20
5.287554
 30
0.0
 10
0.712413
 20
5.291026
 30
0.0
 10
0.708389
 20
5.294773
 30
0.0
 10
0.704696
 20
5.298852
 30
0.0
 10
0.703042
 20
5.301053
 30
0.0
 10
0.701555
 20
5.303480
 30
0.0
 10
0.700178
 20
5.305964
 30
0.0
 10
0.699074
 20
5.308786
 30
0.0
 10
0.698634
 20
5.310282
 30
0.0
 10
0.698304
 20
5.311890
 30
0.0
 10
0.698191
 20
5.313696
 30
0.0
 10
0.698360
 20
5.315841
 30
0.0
 10
0.700291
 20
5.319866
 30
0.0
 10
0.718756
 20
5.342190
 30
0.0
 10
0.734245
 20
5.366554
 30
0.0
 10
0.737442
 20
5.369641
 30
0.0
 10
0.739426
 20
5.370460
 30
0.0
 10
0.741190
 20
5.370968
 30
0.0
 10
0.742844
 20
5.371250
 30
0.0
 10
0.744388
 20
5.371250
 30
0.0
 10
0.747364
 20
5.370968
 30
0.0
 10
0.750175
 20
5.370460
 30
0.0
 10
0.752932
 20
5.369754
 30
0.0
 10
0.755577
 20
5.368823
 30
0.0
 10
0.760593
 20
5.366622
 30
0.0
 10
0.765444
 20
5.363969
 30
0.0
 10
0.770019
 20
5.360881
 30
0.0
 10
0.774483
 20
5.357464
 30
0.0
 10
0.779885
 20
5.355855
 30
0.0
 10
0.785783
 20
5.355403
 30
0.0
 10
0.791792
 20
5.355121
 30
0.0
 10
0.797965
 20
5.355403
 30
0.0
 10
0.804194
 20
5.355855
 30
0.0
 10
0.810588
 20
5.356673
 30
0.0
 10
0.817037
 20
5.357661
 30
0.0
 10
0.821888
 20
5.358649
 30
0.0
 10
0.836220
 20
5.402636
 30
0.0
 10
0.832802
 20
5.406274
 30
0.0
 10
0.828172
 20
5.410905
 30
0.0
 10
0.823542
 20
5.415260
 30
0.0
 10
0.818746
 20
5.419338
 30
0.0
 10
0.813840
 20
5.423142
 30
0.0
 10
0.808935
 20
5.426614
 30
0.0
 10
0.803863
 20
5.429758
 30
0.0
 10
0.798627
 20
5.431564
 30
0.0
 10
0.792949
 20
5.431282
 30
0.0
 10
0.787437
 20
5.431564
 30
0.0
 10
0.781980
 20
5.432269
 30
0.0
 10
0.776578
 20
5.433426
 30
0.0
 10
0.773934
 20
5.434245
 30
0.0
 10
0.771289
 20
5.435233
 30
0.0
 10
0.768755
 20
5.436503
 30
0.0
 10
0.766218
 20
5.438168
 30
0.0
 10
0.764951
 20
5.439099
 30
0.0
 10
0.763737
 20
5.440200
 30
0.0
 10
0.762580
 20
5.441583
 30
0.0
 10
0.761476
 20
5.443389
 30
0.0
 10
0.760706
 20
5.447744
 30
0.0
 10
0.762526
 20
5.476683
 30
0.0
 10
0.760706
 20
5.505512
 30
0.0
 10
0.761476
 20
5.509923
 30
0.0
 10
0.762580
 20
5.511729
 30
0.0
 10
0.763737
 20
5.513168
 30
0.0
 10
0.764951
 20
5.514269
 30
0.0
 10
0.766218
 20
5.515200
 30
0.0
 10
0.768755
 20
5.516809
 30
0.0
 10
0.771289
 20
5.518023
 30
0.0
 10
0.773934
 20
5.519123
 30
0.0
 10
0.776578
 20
5.519885
 30
0.0
 10
0.781980
 20
5.521042
 30
0.0
 10
0.787437
 20
5.521691
 30
0.0
 10
0.792949
 20
5.521974
 30
0.0
 10
0.798627
 20
5.521691
 30
0.0
 10
0.803863
 20
5.523526
 30
0.0
 10
0.808935
 20
5.526667
 30
0.0
 10
0.813840
 20
5.530085
 30
0.0
 10
0.818746
 20
5.533889
 30
0.0
 10
0.823542
 20
5.537967
 30
0.0
 10
0.828172
 20
5.542322
 30
0.0
 10
0.832802
 20
5.546953
 30
0.0
 10
0.836220
 20
5.550591
 30
0.0
 10
0.836220
 20
5.550591
 30
0.0
  0
LWPOLYLINE
  5
10b
100
AcDbEntity
  8
Layer_1
 62
7
100
AcDbPolyline
 90
18
 70
0
 10
0.699243
 20
5.475624
 30
0.0
 10
0.686629
 20
5.412138
 30
0.0
 10
0.650678
 20
5.358312
 30
0.0
 10
0.596865
 20
5.322343
 30
0.0
 10
0.533382
 20
5.309709
 30
0.0
 10
0.469899
 20
5.322343
 30
0.0
 10
0.416085
 20
5.358312
 30
0.0
 10
0.380135
 20
5.412138
 30
0.0
 10
0.367521
 20
5.475624
 30
0.0
 10
0.380559
 20
5.540183
 30
0.0
 10
0.416104
 20
5.592902
 30
0.0
 10
0.468824
 20
5.628448
 30
0.0
 10
0.533382
 20
5.641486
 30
0.0
 10
0.597940
 20
5.628448
 30
0.0
 10
0.650659
 20
5.592902
 30
0.0
 10
0.686205
 20
5.540183
 30
0.0
 10
0.699243
 20
5.475624
 30
0.0
 10
0.699243
 20
5.475624
 30
0.0
  0
LWPOLYLINE
  5
10c
100
AcDbEntity
  8
Layer_1
 62
7
100
AcDbPolyline
 90
452
 70
0
 10
4.450852
 20
1.965107
 30
0.0
 10
4.406865
 20
1.950775
 30
0.0
 10
4.405877
 20
1.945924
 30
0.0
 10
4.404833
 20
1.939475
 30
0.0
 10
4.404071
 20
1.933081
 30
0.0
 10
4.403620
 20
1.926852
 30
0.0
 10
4.403337
 20
1.920679
 30
0.0
 10
4.403337
 20
1.914670
 30
0.0
 10
4.403789
 20
1.908772
 30
0.0
 10
4.405398
 20
1.903370
 30
0.0
 10
4.408813
 20
1.898906
 30
0.0
 10
4.411956
 20
1.894331
 30
0.0
 10
4.414609
 20
1.889480
 30
0.0
 10
4.416754
 20
1.884464
 30
0.0
 10
4.417686
 20
1.881819
 30
0.0
 10
4.418448
 20
1.879062
 30
0.0
 10
4.418956
 20
1.876251
 30
0.0
 10
4.419238
 20
1.873275
 30
0.0
 10
4.419238
 20
1.871731
 30
0.0
 10
4.418956
 20
1.870077
 30
0.0
 10
4.418504
 20
1.868313
 30
0.0
 10
4.417686
 20
1.866329
 30
0.0
 10
4.414601
 20
1.863132
 30
0.0
 10
4.390180
 20
1.847643
 30
0.0
 10
4.367856
 20
1.829178
 30
0.0
 10
4.363888
 20
1.827247
 30
0.0
 10
4.361744
 20
1.827078
 30
0.0
 10
4.359937
 20
1.827191
 30
0.0
 10
4.358272
 20
1.827521
 30
0.0
 10
4.356776
 20
1.827961
 30
0.0
 10
4.353954
 20
1.829065
 30
0.0
 10
4.351471
 20
1.830442
 30
0.0
 10
4.349156
 20
1.831929
 30
0.0
 10
4.346899
 20
1.833583
 30
0.0
 10
4.342764
 20
1.837276
 30
0.0
 10
4.339016
 20
1.841300
 30
0.0
 10
4.335545
 20
1.845655
 30
0.0
 10
4.332347
 20
1.850285
 30
0.0
 10
4.327829
 20
1.853482
 30
0.0
 10
4.322261
 20
1.855742
 30
0.0
 10
4.316582
 20
1.857673
 30
0.0
 10
4.310630
 20
1.859437
 30
0.0
 10
4.304565
 20
1.860924
 30
0.0
 10
4.298283
 20
1.862137
 30
0.0
 10
4.291834
 20
1.863131
 30
0.0
 10
4.286926
 20
1.863738
 30
0.0
 10
4.259698
 20
1.826310
 30
0.0
 10
4.261842
 20
1.821790
 30
0.0
 10
4.264763
 20
1.816002
 30
0.0
 10
4.267851
 20
1.810380
 30
0.0
 10
4.271102
 20
1.805088
 30
0.0
 10
4.274574
 20
1.799907
 30
0.0
 10
4.278268
 20
1.795166
 30
0.0
 10
4.282126
 20
1.790591
 30
0.0
 10
4.286537
 20
1.787229
 30
0.0
 10
4.291939
 20
1.785575
 30
0.0
 10
4.297120
 20
1.783701
 30
0.0
 10
4.302135
 20
1.781330
 30
0.0
 10
4.306877
 20
1.778576
 30
0.0
 10
4.309134
 20
1.776979
 30
0.0
 10
4.311336
 20
1.775215
 30
0.0
 10
4.313424
 20
1.773174
 30
0.0
 10
4.315287
 20
1.770914
 30
0.0
 10
4.316162
 20
1.769646
 30
0.0
 10
4.316980
 20
1.768213
 30
0.0
 10
4.317686
 20
1.766505
 30
0.0
 10
4.318194
 20
1.764411
 30
0.0
 10
4.317545
 20
1.760002
 30
0.0
 10
4.306905
 20
1.733102
 30
0.0
 10
4.299739
 20
1.705046
 30
0.0
 10
4.297594
 20
1.701132
 30
0.0
 10
4.295986
 20
1.699755
 30
0.0
 10
4.294377
 20
1.698761
 30
0.0
 10
4.292881
 20
1.698101
 30
0.0
 10
4.291386
 20
1.697551
 30
0.0
 10
4.288563
 20
1.696890
 30
0.0
 10
4.285696
 20
1.696450
 30
0.0
 10
4.282874
 20
1.696281
 30
0.0
 10
4.280108
 20
1.696281
 30
0.0
 10
4.274593
 20
1.696777
 30
0.0
 10
4.269192
 20
1.697881
 30
0.0
 10
4.263846
 20
1.699368
 30
0.0
 10
4.258498
 20
1.701188
 30
0.0
 10
4.252986
 20
1.701019
 30
0.0
 10
4.247198
 20
1.699585
 30
0.0
 10
4.241412
 20
1.697822
 30
0.0
 10
4.235624
 20
1.695727
 30
0.0
 10
4.229836
 20
1.693357
 30
0.0
 10
4.223994
 20
1.690656
 30
0.0
 10
4.218205
 20
1.687679
 30
0.0
 10
4.213851
 20
1.685255
 30
0.0
 10
4.213851
 20
1.639008
 30
0.0
 10
4.218205
 20
1.636584
 30
0.0
 10
4.223994
 20
1.633607
 30
0.0
 10
4.229836
 20
1.630906
 30
0.0
 10
4.235624
 20
1.628536
 30
0.0
 10
4.241412
 20
1.626385
 30
0.0
 10
4.247198
 20
1.624621
 30
0.0
 10
4.252986
 20
1.623244
 30
0.0
 10
4.258498
 20
1.623018
 30
0.0
 10
4.263846
 20
1.624949
 30
0.0
 10
4.269192
 20
1.626382
 30
0.0
 10
4.274593
 20
1.627429
 30
0.0
 10
4.280108
 20
1.628036
 30
0.0
 10
4.282874
 20
1.628036
 30
0.0
 10
4.285696
 20
1.627810
 30
0.0
 10
4.288563
 20
1.627424
 30
0.0
 10
4.291386
 20
1.626707
 30
0.0
 10
4.292881
 20
1.626157
 30
0.0
 10
4.294377
 20
1.625496
 30
0.0
 10
4.295986
 20
1.624503
 30
0.0
 10
4.297594
 20
1.623125
 30
0.0
 10
4.299739
 20
1.619212
 30
0.0
 10
4.306905
 20
1.591210
 30
0.0
 10
4.317545
 20
1.564256
 30
0.0
 10
4.318194
 20
1.559846
 30
0.0
 10
4.317686
 20
1.557752
 30
0.0
 10
4.316980
 20
1.556098
 30
0.0
 10
4.316162
 20
1.554664
 30
0.0
 10
4.315287
 20
1.553341
 30
0.0
 10
4.313424
 20
1.551080
 30
0.0
 10
4.311336
 20
1.549040
 30
0.0
 10
4.309134
 20
1.547276
 30
0.0
 10
4.306877
 20
1.545678
 30
0.0
 10
4.302135
 20
1.542867
 30
0.0
 10
4.297120
 20
1.540553
 30
0.0
 10
4.291939
 20
1.538679
 30
0.0
 10
4.286537
 20
1.537082
 30
0.0
 10
4.282126
 20
1.533664
 30
0.0
 10
4.278268
 20
1.529144
 30
0.0
 10
4.274574
 20
1.524349
 30
0.0
 10
4.271102
 20
1.519222
 30
0.0
 10
4.267851
 20
1.513876
 30
0.0
 10
4.264763
 20
1.508308
 30
0.0
 10
4.261842
 20
1.502465
 30
0.0
 10
4.259698
 20
1.497946
 30
0.0
 10
4.286926
 20
1.460518
 30
0.0
 10
4.291834
 20
1.461125
 30
0.0
 10
4.298283
 20
1.462172
 30
0.0
 10
4.304565
 20
1.463329
 30
0.0
 10
4.310630
 20
1.464816
 30
0.0
 10
4.316582
 20
1.466580
 30
0.0
 10
4.322261
 20
1.468511
 30
0.0
 10
4.327829
 20
1.470771
 30
0.0
 10
4.332347
 20
1.473913
 30
0.0
 10
4.335545
 20
1.478598
 30
0.0
 10
4.339016
 20
1.482953
 30
0.0
 10
4.342764
 20
1.486977
 30
0.0
 10
4.346899
 20
1.490615
 30
0.0
 10
4.349156
 20
1.492322
 30
0.0
 10
4.351471
 20
1.493810
 30
0.0
 10
4.353954
 20
1.495187
 30
0.0
 10
4.356776
 20
1.496290
 30
0.0
 10
4.358272
 20
1.496677
 30
0.0
 10
4.359937
 20
1.497007
 30
0.0
 10
4.361744
 20
1.497233
 30
0.0
 10
4.363888
 20
1.497007
 30
0.0
 10
4.367856
 20
1.495077
 30
0.0
 10
4.390180
 20
1.476611
 30
0.0
 10
4.414601
 20
1.461122
 30
0.0
 10
4.417686
 20
1.457870
 30
0.0
 10
4.418504
 20
1.455886
 30
0.0
 10
4.418956
 20
1.454122
 30
0.0
 10
4.419238
 20
1.452524
 30
0.0
 10
4.419238
 20
1.450927
 30
0.0
 10
4.418956
 20
1.447950
 30
0.0
 10
4.418448
 20
1.445139
 30
0.0
 10
4.417686
 20
1.442439
 30
0.0
 10
4.416754
 20
1.439794
 30
0.0
 10
4.414609
 20
1.434778
 30
0.0
 10
4.411956
 20
1.429927
 30
0.0
 10
4.408813
 20
1.425297
 30
0.0
 10
4.405398
 20
1.420888
 30
0.0
 10
4.403789
 20
1.415486
 30
0.0
 10
4.403337
 20
1.409588
 30
0.0
 10
4.403337
 20
1.403579
 30
0.0
 10
4.403620
 20
1.397351
 30
0.0
 10
4.404071
 20
1.391122
 30
0.0
 10
4.404833
 20
1.384783
 30
0.0
 10
4.405877
 20
1.378278
 30
0.0
 10
4.406865
 20
1.373483
 30
0.0
 10
4.450852
 20
1.359151
 30
0.0
 10
4.454490
 20
1.362569
 30
0.0
 10
4.459121
 20
1.367144
 30
0.0
 10
4.463476
 20
1.371829
 30
0.0
 10
4.467554
 20
1.376625
 30
0.0
 10
4.471359
 20
1.381476
 30
0.0
 10
4.474776
 20
1.386437
 30
0.0
 10
4.477917
 20
1.391508
 30
0.0
 10
4.479752
 20
1.396744
 30
0.0
 10
4.479470
 20
1.402367
 30
0.0
 10
4.479752
 20
1.407934
 30
0.0
 10
4.480401
 20
1.413391
 30
0.0
 10
4.481558
 20
1.418793
 30
0.0
 10
4.482320
 20
1.421437
 30
0.0
 10
4.483421
 20
1.424082
 30
0.0
 10
4.484634
 20
1.426616
 30
0.0
 10
4.486243
 20
1.429153
 30
0.0
 10
4.487174
 20
1.430420
 30
0.0
 10
4.488275
 20
1.431578
 30
0.0
 10
4.489714
 20
1.432791
 30
0.0
 10
4.491521
 20
1.433948
 30
0.0
 10
4.495932
 20
1.434719
 30
0.0
 10
4.524761
 20
1.432901
 30
0.0
 10
4.553700
 20
1.434719
 30
0.0
 10
4.558054
 20
1.433948
 30
0.0
 10
4.559861
 20
1.432791
 30
0.0
 10
4.561244
 20
1.431578
 30
0.0
 10
4.562344
 20
1.430420
 30
0.0
 10
4.563276
 20
1.429153
 30
0.0
 10
4.564941
 20
1.426616
 30
0.0
 10
4.566211
 20
1.424082
 30
0.0
 10
4.567198
 20
1.421437
 30
0.0
 10
4.568017
 20
1.418793
 30
0.0
 10
4.569174
 20
1.413391
 30
0.0
 10
4.569880
 20
1.407934
 30
0.0
 10
4.570162
 20
1.402367
 30
0.0
 10
4.569880
 20
1.396744
 30
0.0
 10
4.571686
 20
1.391508
 30
0.0
 10
4.574830
 20
1.386437
 30
0.0
 10
4.578301
 20
1.381476
 30
0.0
 10
4.582105
 20
1.376625
 30
0.0
 10
4.586184
 20
1.371829
 30
0.0
 10
4.590538
 20
1.367144
 30
0.0
 10
4.595170
 20
1.362569
 30
0.0
 10
4.598807
 20
1.359151
 30
0.0
 10
4.642795
 20
1.373483
 30
0.0
 10
4.643782
 20
1.378278
 30
0.0
 10
4.644770
 20
1.384783
 30
0.0
 10
4.645589
 20
1.391122
 30
0.0
 10
4.646040
 20
1.397351
 30
0.0
 10
4.646322
 20
1.403579
 30
0.0
 10
4.646040
 20
1.409588
 30
0.0
 10
4.645589
 20
1.415486
 30
0.0
 10
4.643980
 20
1.420888
 30
0.0
 10
4.640562
 20
1.425297
 30
0.0
 10
4.637475
 20
1.429927
 30
0.0
 10
4.634822
 20
1.434778
 30
0.0
 10
4.632620
 20
1.439794
 30
0.0
 10
4.631689
 20
1.442439
 30
0.0
 10
4.630984
 20
1.445139
 30
0.0
 10
4.630476
 20
1.447950
 30
0.0
 10
4.630193
 20
1.450927
 30
0.0
 10
4.630193
 20
1.452524
 30
0.0
 10
4.630476
 20
1.454122
 30
0.0
 10
4.630984
 20
1.455886
 30
0.0
 10
4.631802
 20
1.457870
 30
0.0
 10
4.634889
 20
1.461122
 30
0.0
 10
4.659254
 20
1.476611
 30
0.0
 10
4.681577
 20
1.495077
 30
0.0
 10
4.685602
 20
1.497007
 30
0.0
 10
4.687747
 20
1.497233
 30
0.0
 10
4.689553
 20
1.497007
 30
0.0
 10
4.691162
 20
1.496677
 30
0.0
 10
4.692658
 20
1.496290
 30
0.0
 10
4.695480
 20
1.495187
 30
0.0
 10
4.697963
 20
1.493810
 30
0.0
 10
4.700390
 20
1.492322
 30
0.0
 10
4.702592
 20
1.490615
 30
0.0
 10
4.706670
 20
1.486977
 30
0.0
 10
4.710418
 20
1.482953
 30
0.0
 10
4.713889
 20
1.478598
 30
0.0
 10
4.717087
 20
1.473913
 30
0.0
 10
4.721661
 20
1.470771
 30
0.0
 10
4.727173
 20
1.468511
 30
0.0
 10
4.732852
 20
1.466580
 30
0.0
 10
4.738806
 20
1.464816
 30
0.0
 10
4.744925
 20
1.463329
 30
0.0
 10
4.751207
 20
1.462172
 30
0.0
 10
4.757656
 20
1.461125
 30
0.0
 10
4.762564
 20
1.460518
 30
0.0
 10
4.789736
 20
1.497946
 30
0.0
 10
4.787648
 20
1.502465
 30
0.0
 10
4.784727
 20
1.508308
 30
0.0
 10
4.781639
 20
1.513876
 30
0.0
 10
4.778335
 20
1.519222
 30
0.0
 10
4.774860
 20
1.524349
 30
0.0
 10
4.771223
 20
1.529144
 30
0.0
 10
4.767365
 20
1.533664
 30
0.0
 10
4.762953
 20
1.537082
 30
0.0
 10
4.757498
 20
1.538679
 30
0.0
 10
4.752316
 20
1.540553
 30
0.0
 10
4.747299
 20
1.542867
 30
0.0
 10
4.742560
 20
1.545678
 30
0.0
 10
4.740302
 20
1.547276
 30
0.0
 10
4.738157
 20
1.549040
 30
0.0
 10
4.736069
 20
1.551080
 30
0.0
 10
4.734206
 20
1.553341
 30
0.0
 10
4.733275
 20
1.554664
 30
0.0
 10
4.732456
 20
1.556098
 30
0.0
 10
4.731807
 20
1.557752
 30
0.0
 10
4.731299
 20
1.559846
 30
0.0
 10
4.731920
 20
1.564256
 30
0.0
 10
4.742557
 20
1.591210
 30
0.0
 10
4.749779
 20
1.619212
 30
0.0
 10
4.751868
 20
1.623125
 30
0.0
 10
4.753476
 20
1.624503
 30
0.0
 10
4.755085
 20
1.625496
 30
0.0
 10
4.756581
 20
1.626157
 30
0.0
 10
4.758077
 20
1.626707
 30
0.0
 10
4.760944
 20
1.627424
 30
0.0
 10
4.763766
 20
1.627810
 30
0.0
 10
4.766634
 20
1.628036
 30
0.0
 10
4.769399
 20
1.628036
 30
0.0
 10
4.774858
 20
1.627429
 30
0.0
 10
4.780316
 20
1.626382
 30
0.0
 10
4.785661
 20
1.624949
 30
0.0
 10
4.790953
 20
1.623018
 30
0.0
 10
4.796521
 20
1.623244
 30
0.0
 10
4.802309
 20
1.624621
 30
0.0
 10
4.808095
 20
1.626385
 30
0.0
 10
4.813883
 20
1.628536
 30
0.0
 10
4.819672
 20
1.630906
 30
0.0
 10
4.825514
 20
1.633607
 30
0.0
 10
4.831302
 20
1.636584
 30
0.0
 10
4.835600
 20
1.639008
 30
0.0
 10
4.835600
 20
1.685255
 30
0.0
 10
4.831302
 20
1.687679
 30
0.0
 10
4.825514
 20
1.690656
 30
0.0
 10
4.819672
 20
1.693357
 30
0.0
 10
4.813883
 20
1.695727
 30
0.0
 10
4.808095
 20
1.697822
 30
0.0
 10
4.802309
 20
1.699585
 30
0.0
 10
4.796521
 20
1.701019
 30
0.0
 10
4.790953
 20
1.701188
 30
0.0
 10
4.785661
 20
1.699368
 30
0.0
 10
4.780316
 20
1.697881
 30
0.0
 10
4.774858
 20
1.696777
 30
0.0
 10
4.769399
 20
1.696281
 30
0.0
 10
4.766634
 20
1.696281
 30
0.0
 10
4.763766
 20
1.696450
 30
0.0
 10
4.760944
 20
1.696890
 30
0.0
 10
4.758077
 20
1.697551
 30
0.0
 10
4.756581
 20
1.698101
 30
0.0
 10
4.755085
 20
1.698761
 30
0.0
 10
4.753476
 20
1.699755
 30
0.0
 10
4.751868
 20
1.701132
 30
0.0
 10
4.749779
 20
1.705046
 30
0.0
 10
4.742557
 20
1.733102
 30
0.0
 10
4.731920
 20
1.760002
 30
0.0
 10
4.731299
 20
1.764411
 30
0.0
 10
4.731807
 20
1.766505
 30
0.0
 10
4.732456
 20
1.768213
 30
0.0
 10
4.733275
 20
1.769646
 30
0.0
 10
4.734206
 20
1.770914
 30
0.0
 10
4.736069
 20
1.773174
 30
0.0
 10
4.738157
 20
1.775215
 30
0.0
 10
4.740302
 20
1.776979
 30
0.0
 10
4.742560
 20
1.778576
 30
0.0
 10
4.747299
 20
1.781330
 30
0.0
 10
4.752316
 20
1.783701
 30
0.0
 10
4.757498
 20
1.785575
 30
0.0
 10
4.762953
 20
1.787229
 30
0.0
 10
4.767365
 20
1.790591
 30
0.0
 10
4.771223
 20
1.795166
 30
0.0
 10
4.774860
 20
1.799907
 30
0.0
 10
4.778335
 20
1.805088
 30
0.0
 10
4.781639
 20
1.810380
 30
0.0
 10
4.784727
 20
1.816002
 30
0.0
 10
4.787648
 20
1.821790
 30
0.0
 10
4.789736
 20
1.826310
 30
0.0
 10
4.762564
 20
1.863738
 30
0.0
 10
4.757656
 20
1.863131
 30
0.0
 10
4.751207
 20
1.862137
 30
0.0
 10
4.744925
 20
1.860924
 30
0.0
 10
4.738806
 20
1.859437
 30
0.0
 10
4.732852
 20
1.857673
 30
0.0
 10
4.727173
 20
1.855742
 30
0.0
 10
4.721661
 20
1.853482
 30
0.0
 10
4.717087
 20
1.850285
 30
0.0
 10
4.713889
 20
1.845655
 30
0.0
 10
4.710418
 20
1.841300
 30
0.0
 10
4.706670
 20
1.837276
 30
0.0
 10
4.702592
 20
1.833583
 30
0.0
 10
4.700390
 20
1.831929
 30
0.0
 10
4.697963
 20
1.830442
 30
0.0
 10
4.695480
 20
1.829065
 30
0.0
 10
4.692658
 20
1.827961
 30
0.0
 10
4.691162
 20
1.827521
 30
0.0
 10
4.689553
 20
1.827191
 30
0.0
 10
4.687747
 20
1.827078
 30
0.0
 10
4.685602
 20
1.827247
 30
0.0
 10
4.681577
 20
1.829178
 30
0.0
 10
4.659254
 20
1.847643
 30
0.0
 10
4.634889
 20
1.863132
 30
0.0
 10
4.631802
 20
1.866329
 30
0.0
 10
4.630984
 20
1.868313
 30
0.0
 10
4.630476
 20
1.870077
 30
0.0
 10
4.630193
 20
1.871731
 30
0.0
 10
4.630193
 20
1.873275
 30
0.0
 10
4.630476
 20
1.876251
 30
0.0
 10
4.630984
 20
1.879062
 30
0.0
 10
4.631689
 20
1.881819
 30
0.0
 10
4.632620
 20
1.884464
 30
0.0
 10
4.634822
 20
1.889480
 30
0.0
 10
4.637475
 20
1.894331
 30
0.0
 10
4.640562
 20
1.898906
 30
0.0
 10
4.643980
 20
1.903370
 30
0.0
 10
4.645589
 20
1.908772
 30
0.0
 10
4.646040
 20
1.914670
 30
0.0
 10
4.646322
 20
1.920679
 30
0.0
 10
4.646040
 20
1.926852
 30
0.0
 10
4.645589
 20
1.933081
 30
0.0
 10
4.644770
 20
1.939475
 30
0.0
 10
4.643782
 20
1.945924
 30
0.0
 10
4.642795
 20
1.950775
 30
0.0
 10
4.598807
 20
1.965107
 30
0.0
 10
4.595170
 20
1.961689
 30
0.0
 10
4.590538
 20
1.957059
 30
0.0
 10
4.586184
 20
1.952429
 30
0.0
 10
4.582105
 20
1.947633
 30
0.0
 10
4.578301
 20
1.942727
 30
0.0
 10
4.574830
 20
1.937822
 30
0.0
 10
4.571686
 20
1.932750
 30
0.0
 10
4.569880
 20
1.927514
 30
0.0
 10
4.570162
 20
1.921836
 30
0.0
 10
4.569880
 20
1.916324
 30
0.0
 10
4.569174
 20
1.910867
 30
0.0
 10
4.568017
 20
1.905465
 30
0.0
 10
4.567198
 20
1.902821
 30
0.0
 10
4.566211
 20
1.900176
 30
0.0
 10
4.564941
 20
1.897642
 30
0.0
 10
4.563276
 20
1.895105
 30
0.0
 10
4.562344
 20
1.893838
 30
0.0
 10
4.561244
 20
1.892624
 30
0.0
 10
4.559861
 20
1.891467
 30
0.0
 10
4.558054
 20
1.890363
 30
0.0
 10
4.553700
 20
1.889593
 30
0.0
 10
4.524761
 20
1.891413
 30
0.0
 10
4.495932
 20
1.889593
 30
0.0
 10
4.491521
 20
1.890363
 30
0.0
 10
4.489714
 20
1.891467
 30
0.0
 10
4.488275
 20
1.892624
 30
0.0
 10
4.487174
 20
1.893838
 30
0.0
 10
4.486243
 20
1.895105
 30
0.0
 10
4.484634
 20
1.897642
 30
0.0
 10
4.483421
 20
1.900176
 30
0.0
 10
4.482320
 20
1.902821
 30
0.0
 10
4.481558
 20
1.905465
 30
0.0
 10
4.480401
 20
1.910867
 30
0.0
 10
4.479752
 20
1.916324
 30
0.0
 10
4.479470
 20
1.921836
 30
0.0
 10
4.479752
 20
1.927514
 30
0.0
 10
4.477917
 20
1.932750
 30
0.0
 10
4.474776
 20
1.937822
 30
0.0
 10
4.471359
 20
1.942727
 30
0.0
 10
4.467554
 20
1.947633
 30
0.0
 10
4.463476
 20
1.952429
 30
0.0
 10
4.459121
 20
1.957059
 30
0.0
 10
4.454490
 20
1.961689
 30
0.0
 10
4.450852
 20
1.965107
 30
0.0
 10
4.450852
 20
1.965107
 30
0.0
  0
LWPOLYLINE
  5
10d
100
AcDbEntity
  8
Layer_1
 62
7
100
AcDbPolyline
 90
18
 70
0
 10
4.525819
 20
1.828130
 30
0.0
 10
4.589306
 20
1.815516
 30
0.0
 10
4.643132
 20
1.779565
 30
0.0
 10
4.679100
 20
1.725752
 30
0.0
 10
4.691735
 20
1.662269
 30
0.0
 10
4.679100
 20
1.598786
 30
0.0
 10
4.643132
 20
1.544972
 30
0.0
 10
4.589306
 20
1.509022
 30
0.0
 10
4.525819
 20
1.496408
 30
0.0
 10
4.461261
 20
1.509446
 30
0.0
 10
4.408541
 20
1.544991
 30
0.0
 10
4.372995
 20
1.597711
 30
0.0
 10
4.359957
 20
1.662269
 30
0.0
 10
4.372995
 20
1.726827
 30
0.0
 10
4.408541
 20
1.779546
 30
0.0
 10
4.461261
 20
1.815092
 30
0.0
 10
4.525819
 20
1.828130
 30
0.0
 10
4.525819
 20
1.828130
 30
0.0
  0
ENDSEC
  0
SECTION
  2
OBJECTS
  0
DICTIONARY
  5
C
330
0
100
AcDbDictionary
  3
ACAD_GROUP
350
D
  3
ACAD_MLINESTYLE
350
17
  0
DICTIONARY
  5
D
330
C
100
AcDbDictionary
  0
DICTIONARY
  5
1A
330
C
100
AcDbDictionary
  0
DICTIONARY
  5
17
330
C
100
AcDbDictionary
  3
STANDARD
350
18
  0
DICTIONARY
  5
19
330
C
100
AcDbDictionary
  0
ENDSEC
  0
EOF
