  0
SECTION
  2
HEADER
  9
$ACADVER
  1
AC1014
  9
$HANDSEED
  5
FFFF
  9
$MEASUREMENT
 70
     1
  0
ENDSEC
  0
SECTION
  2
TABLES
  0
TABLE
  2
VPORT
  5
8
330
0
100
AcDbSymbolTable
 70
     4
  0
VPORT
  5
2E
330
8
100
AcDbSymbolTableRecord
100
AcDbViewportTableRecord
  2
*ACTIVE
 70
     0
 10
0.0
 20
0.0
 11
1.0
 21
1.0
 12
210.0
 22
148.5
 13
0.0
 23
0.0
 14
10.0
 24
10.0
 15
10.0
 25
10.0
 16
0.0
 26
0.0
 36
1.0
 17
0.0
 27
0.0
 37
0.0
 40
341.0
 41
1.24
 42
50.0
 43
0.0
 44
0.0
 50
0.0
 51
0.0
 71
     0
 72
   100
 73
     1
 74
     3
 75
     0
 76
     0
 77
     0
 78
     0
  0
ENDTAB
  0
TABLE
  2
LTYPE
  5
5
330
0
100
AcDbSymbolTable
 70
     1
  0
LTYPE
  5
14
330
5
100
AcDbSymbolTableRecord
100
AcDbLinetypeTableRecord
  2
BYBLOCK
 70
     0
  3

 72
    65
 73
     0
 40
0.0
  0
LTYPE
  5
15
330
5
100
AcDbSymbolTableRecord
100
AcDbLinetypeTableRecord
  2
BYLAYER
 70
     0
  3

 72
    65
 73
     0
 40
0.0
  0
LTYPE
  5
16
330
5
100
AcDbSymbolTableRecord
100
AcDbLinetypeTableRecord
  2
CONTINUOUS
 70
     0
  3
Solid line
 72
    65
 73
     0
 40
0.0
  0
ENDTAB
  0
TABLE
  2
LAYER
  5
2
100
AcDbSymbolTable
 70
2
  0
LAYER
  5
50
100
AcDbSymbolTableRecord
100
AcDbLayerTableRecord
  2
0
 70
0
  6
CONTINUOUS
  0
LAYER
  5
51
100
AcDbSymbolTableRecord
100
AcDbLayerTableRecord
  2
Layer_1
 70
0
  6
CONTINUOUS
  0
ENDTAB
  0
TABLE
  2
STYLE
  5
3
330
0
100
AcDbSymbolTable
 70
     1
  0
STYLE
  5
11
330
3
100
AcDbSymbolTableRecord
100
AcDbTextStyleTableRecord
  2
STANDARD
 70
     0
 40
0.0
 41
1.0
 50
0.0
 71
     0
 42
2.5
  3
txt
  4

  0
ENDTAB
  0
TABLE
  2
VIEW
  5
6
330
0
100
AcDbSymbolTable
 70
     0
  0
ENDTAB
  0
TABLE
  2
UCS
  5
7
330
0
100
AcDbSymbolTable
 70
     0
  0
ENDTAB
  0
TABLE
  2
APPID
  5
9
330
0
100
AcDbSymbolTable
 70
     2
  0
APPID
  5
12
330
9
100
AcDbSymbolTableRecord
100
AcDbRegAppTableRecord
  2
ACAD
 70
     0
  0
ENDTAB
  0
TABLE
  2
DIMSTYLE
  5
A
330
0
100
AcDbSymbolTable
 70
     1
  0
DIMSTYLE
105
27
330
A
100
AcDbSymbolTableRecord
100
AcDbDimStyleTableRecord
  2
ISO-25
 70
     0
  3

  4

  5

  6

  7

 40
1.0
 41
2.5
 42
0.625
 43
3.75
 44
1.25
 45
0.0
 46
0.0
 47
0.0
 48
0.0
140
2.5
141
2.5
142
0.0
143
0.03937007874016
144
1.0
145
0.0
146
1.0
147
0.625
 71
     0
 72
     0
 73
     0
 74
     0
 75
     0
 76
     0
 77
     1
 78
     8
170
     0
171
     3
172
     1
173
     0
174
     0
175
     0
176
     0
177
     0
178
     0
270
     2
271
     2
272
     2
273
     2
274
     3
340
11
275
     0
280
     0
281
     0
282
     0
283
     0
284
     8
285
     0
286
     0
287
     3
288
     0
  0
ENDTAB
  0
TABLE
  2
BLOCK_RECORD
  5
1
330
0
100
AcDbSymbolTable
 70
     1
  0
BLOCK_RECORD
  5
1F
330
1
100
AcDbSymbolTableRecord
100
AcDbBlockTableRecord
  2
*MODEL_SPACE
  0
BLOCK_RECORD
  5
1B
330
1
100
AcDbSymbolTableRecord
100
AcDbBlockTableRecord
  2
*PAPER_SPACE
  0
ENDTAB
  0
ENDSEC
  0
SECTION
  2
BLOCKS
  0
BLOCK
  5
20
330
1F
100
AcDbEntity
  8
0
100
AcDbBlockBegin
  2
*MODEL_SPACE
 70
     0
 10
0.0
 20
0.0
 30
0.0
  3
*MODEL_SPACE
  1

  0
ENDBLK
  5
21
330
1F
100
AcDbEntity
  8
0
100
AcDbBlockEnd
  0
BLOCK
  5
1C
330
1B
100
AcDbEntity
 67
     1
  8
0
100
AcDbBlockBegin
  2
*PAPER_SPACE
  1

  0
ENDBLK
  5
1D
330
1B
100
AcDbEntity
 67
     1
  8
0
100
AcDbBlockEnd
  0
ENDSEC
  0
SECTION
  2
ENTITIES
  0
LWPOLYLINE
  5
100
100
AcDbEntity
  8
Layer_1
 62
7
100
AcDbPolyline
 90
9
 70
1
 10
5.999992
 20
6.000000
 30
0.0
 10
5.999992
 20
5.978711
 30
0.0
 10
6.728754
 20
5.978711
 30
0.0
 10
6.728754
 20
5.249988
 30
0.0
 10
6.750004
 20
5.249988
 30
0.0
 10
6.750004
 20
5.989334
 30
0.0
 10
6.750004
 20
6.000000
 30
0.0
 10
5.999992
 20
6.000000
 30
0.0
 10
5.999992
 20
6.000000
 30
0.0
  0
LWPOLYLINE
  5
101
100
AcDbEntity
  8
Layer_1
 62
7
100
AcDbPolyline
 90
8
 70
1
 10
6.728754
 20
0.599984
 30
0.0
 10
6.728754
 20
0.021250
 30
0.0
 10
5.999992
 20
0.021250
 30
0.0
 10
5.999992
 20
0.000000
 30
0.0
 10
6.750004
 20
0.000000
 30
0.0
 10
6.750004
 20
0.599984
 30
0.0
 10
6.728754
 20
0.599984
 30
0.0
 10
6.728754
 20
0.599984
 30
0.0
  0
LWPOLYLINE
  5
102
100
AcDbEntity
  8
Layer_1
 62
7
100
AcDbPolyline
 90
8
 70
1
 10
0.000000
 20
5.999999
 30
0.0
 10
0.000000
 20
5.249987
 30
0.0
 10
0.021249
 20
5.249987
 30
0.0
 10
0.021249
 20
5.978710
 30
0.0
 10
0.750011
 20
5.978710
 30
0.0
 10
0.750011
 20
5.999999
 30
0.0
 10
0.000000
 20
5.999999
 30
0.0
 10
0.000000
 20
5.999999
 30
0.0
  0
LWPOLYLINE
  5
103
100
AcDbEntity
  8
Layer_1
 62
7
100
AcDbPolyline
 90
16
 70
0
 10
0.587910
 20
3.665689
 30
0.0
 10
0.509315
 20
3.661632
 30
0.0
 10
0.561514
 20
3.520852
 30
0.0
 10
0.603901
 20
3.378142
 30
0.0
 10
0.603901
 20
3.378046
 30
0.0
 10
0.611290
 20
3.345414
 30
0.0
 10
0.636588
 20
3.233738
 30
0.0
 10
0.649983
 20
3.148962
 30
0.0
 10
0.730021
 20
3.148962
 30
0.0
 10
0.716570
 20
3.233738
 30
0.0
 10
0.683883
 20
3.378046
 30
0.0
 10
0.641496
 20
3.521141
 30
0.0
 10
0.589350
 20
3.661702
 30
0.0
 10
0.589350
 20
3.661932
 30
0.0
 10
0.587910
 20
3.665659
 30
0.0
 10
0.587910
 20
3.665689
 30
0.0
  0
LWPOLYLINE
  5
104
100
AcDbEntity
  8
Layer_1
 62
7
100
AcDbPolyline
 90
16
 70
0
 10
1.777736
 20
0.559318
 30
0.0
 10
1.781793
 20
0.480722
 30
0.0
 10
1.922574
 20
0.532922
 30
0.0
 10
2.065283
 20
0.575309
 30
0.0
 10
2.065379
 20
0.575309
 30
0.0
 10
2.098011
 20
0.582698
 30
0.0
 10
2.209687
 20
0.607995
 30
0.0
 10
2.294464
 20
0.621390
 30
0.0
 10
2.294464
 20
0.701429
 30
0.0
 10
2.209687
 20
0.687978
 30
0.0
 10
2.065379
 20
0.655291
 30
0.0
 10
1.922284
 20
0.612904
 30
0.0
 10
1.781723
 20
0.560758
 30
0.0
 10
1.781493
 20
0.560758
 30
0.0
 10
1.777767
 20
0.559318
 30
0.0
 10
1.777736
 20
0.559318
 30
0.0
  0
LWPOLYLINE
  5
105
100
AcDbEntity
  8
Layer_1
 62
7
100
AcDbPolyline
 90
16
 70
0
 10
4.353746
 20
2.509218
 30
0.0
 10
4.432342
 20
2.513276
 30
0.0
 10
4.380143
 20
2.654056
 30
0.0
 10
4.337755
 20
2.796765
 30
0.0
 10
4.337755
 20
2.796861
 30
0.0
 10
4.330367
 20
2.829494
 30
0.0
 10
4.305069
 20
2.941169
 30
0.0
 10
4.291674
 20
3.025946
 30
0.0
 10
4.211636
 20
3.025946
 30
0.0
 10
4.225086
 20
2.941169
 30
0.0
 10
4.257774
 20
2.796861
 30
0.0
 10
4.300160
 20
2.653766
 30
0.0
 10
4.352307
 20
2.513206
 30
0.0
 10
4.352307
 20
2.512975
 30
0.0
 10
4.353746
 20
2.509249
 30
0.0
 10
4.353746
 20
2.509218
 30
0.0
  0
LWPOLYLINE
  5
106
100
AcDbEntity
  8
Layer_1
 62
7
100
AcDbPolyline
 90
16
 70
0
 10
3.004893
 20
5.397961
 30
0.0
 10
3.000836
 20
5.476556
 30
0.0
 10
2.860056
 20
5.424357
 30
0.0
 10
2.717346
 20
5.381970
 30
0.0
 10
2.717250
 20
5.381970
 30
0.0
 10
2.684618
 20
5.374581
 30
0.0
 10
2.572943
 20
5.349284
 30
0.0
 10
2.488166
 20
5.335888
 30
0.0
 10
2.488166
 20
5.255850
 30
0.0
 10
2.572943
 20
5.269301
 30
0.0
 10
2.717250
 20
5.301988
 30
0.0
 10
2.860345
 20
5.344375
 30
0.0
 10
3.000906
 20
5.396521
 30
0.0
 10
3.001136
 20
5.396521
 30
0.0
 10
3.004863
 20
5.397961
 30
0.0
 10
3.004893
 20
5.397961
 30
0.0
  0
LWPOLYLINE
  5
107
100
AcDbEntity
  8
Layer_1
 62
7
100
AcDbPolyline
 90
16
 70
0
 10
4.603482
 20
4.133778
 30
0.0
 10
4.524886
 20
4.129721
 30
0.0
 10
4.577086
 20
3.988941
 30
0.0
 10
4.619473
 20
3.846231
 30
0.0
 10
4.619473
 20
3.846135
 30
0.0
 10
4.626862
 20
3.813503
 30
0.0
 10
4.652159
 20
3.701828
 30
0.0
 10
4.665554
 20
3.617051
 30
0.0
 10
4.745592
 20
3.617051
 30
0.0
 10
4.732142
 20
3.701828
 30
0.0
 10
4.699455
 20
3.846135
 30
0.0
 10
4.657068
 20
3.989230
 30
0.0
 10
4.604922
 20
4.129791
 30
0.0
 10
4.604922
 20
4.130021
 30
0.0
 10
4.603482
 20
4.133748
 30
0.0
 10
4.603482
 20
4.133778
 30
0.0
  0
LWPOLYLINE
  5
108
100
AcDbEntity
  8
Layer_1
 62
7
100
AcDbPolyline
 90
8
 70
1
 10
0.000002
 20
6.000000
 30
0.0
 10
0.000002
 20
5.249987
 30
0.0
 10
0.021251
 20
5.249987
 30
0.0
 10
0.021251
 20
5.978711
 30
0.0
 10
0.750013
 20
5.978711
 30
0.0
 10
0.750013
 20
6.000000
 30
0.0
 10
0.000002
 20
6.000000
 30
0.0
 10
0.000002
 20
6.000000
 30
0.0
  0
LWPOLYLINE
  5
109
100
AcDbEntity
  8
Layer_1
 62
7
100
AcDbPolyline
 90
8
 70
1
 10
0.000009
 20
0.599984
 30
0.0
 10
0.000009
 20
0.000000
 30
0.0
 10
0.750020
 20
0.000000
 30
0.0
 10
0.750020
 20
0.021250
 30
0.0
 10
0.021259
 20
0.021250
 30
0.0
 10
0.021259
 20
0.599984
 30
0.0
 10
0.000009
 20
0.599984
 30
0.0
 10
0.000009
 20
0.599984
 30
0.0
  0
ENDSEC
  0
SECTION
  2
OBJECTS
  0
DICTIONARY
  5
C
330
0
100
AcDbDictionary
  3
ACAD_GROUP
350
D
  3
ACAD_MLINESTYLE
350
17
  0
DICTIONARY
  5
D
330
C
100
AcDbDictionary
  0
DICTIONARY
  5
1A
330
C
100
AcDbDictionary
  0
DICTIONARY
  5
17
330
C
100
AcDbDictionary
  3
STANDARD
350
18
  0
DICTIONARY
  5
19
330
C
100
AcDbDictionary
  0
ENDSEC
  0
EOF
