<?xml version="1.0" encoding="UTF-8" standalone="no"?>
<!-- Created with Inkscape (http://www.inkscape.org/) -->
<svg xmlns:dc="http://purl.org/dc/elements/1.1/" xmlns:cc="http://creativecommons.org/ns#" xmlns:rdf="http://www.w3.org/1999/02/22-rdf-syntax-ns#" xmlns:svg="http://www.w3.org/2000/svg" xmlns="http://www.w3.org/2000/svg" xmlns:sodipodi="http://sodipodi.sourceforge.net/DTD/sodipodi-0.dtd" xmlns:inkscape="http://www.inkscape.org/namespaces/inkscape" id="svg3388" sodipodi:version="0.32" inkscape:version="0.46" width="334" height="509" version="1.0" sodipodi:docname="HarryPotter.svg" inkscape:output_extension="org.inkscape.output.svg.inkscape">
  <metadata id="metadata3393">
    <rdf:RDF>
      <cc:Work rdf:about="">
        <dc:format>image/svg+xml</dc:format>
        <dc:type rdf:resource="http://purl.org/dc/dcmitype/StillImage"/>
      </cc:Work>
    </rdf:RDF>
  </metadata>
  <defs id="defs3391">
    <inkscape:perspective sodipodi:type="inkscape:persp3d" inkscape:vp_x="0 : 526.18109 : 1" inkscape:vp_y="0 : 1000 : 0" inkscape:vp_z="744.09448 : 526.18109 : 1" inkscape:persp3d-origin="372.04724 : 350.78739 : 1" id="perspective3395"/>
    <inkscape:perspective id="perspective4401" inkscape:persp3d-origin="372.04724 : 350.78739 : 1" inkscape:vp_z="744.09448 : 526.18109 : 1" inkscape:vp_y="0 : 1000 : 0" inkscape:vp_x="0 : 526.18109 : 1" sodipodi:type="inkscape:persp3d"/>
    <inkscape:perspective id="perspective4510" inkscape:persp3d-origin="372.04724 : 350.78739 : 1" inkscape:vp_z="744.09448 : 526.18109 : 1" inkscape:vp_y="0 : 1000 : 0" inkscape:vp_x="0 : 526.18109 : 1" sodipodi:type="inkscape:persp3d"/>
    <inkscape:perspective id="perspective5252" inkscape:persp3d-origin="372.04724 : 350.78739 : 1" inkscape:vp_z="744.09448 : 526.18109 : 1" inkscape:vp_y="0 : 1000 : 0" inkscape:vp_x="0 : 526.18109 : 1" sodipodi:type="inkscape:persp3d"/>
    <inkscape:perspective id="perspective5559" inkscape:persp3d-origin="372.04724 : 350.78739 : 1" inkscape:vp_z="744.09448 : 526.18109 : 1" inkscape:vp_y="0 : 1000 : 0" inkscape:vp_x="0 : 526.18109 : 1" sodipodi:type="inkscape:persp3d"/>
  </defs>
  <sodipodi:namedview inkscape:window-height="1002" inkscape:window-width="1280" inkscape:pageshadow="2" inkscape:pageopacity="0.0" guidetolerance="10.0" gridtolerance="10.0" objecttolerance="10.0" borderopacity="1.0" bordercolor="#666666" pagecolor="#ffffff" id="base" showgrid="false" inkscape:zoom="1.5442043" inkscape:cx="167" inkscape:cy="254.5" inkscape:window-x="1148" inkscape:window-y="-4" inkscape:current-layer="svg3388" showguides="true" inkscape:guide-bbox="true"/>
  <path style="opacity:1;fill:#000000" d="M 222.71875,41.875 C 222.10915,41.874999 221.87092,42.55 222.1875,43.375 C 222.94636,45.352548 220.17247,45.352549 218.53125,43.375 C 216.95308,41.473416 215.07561,41.455641 213.1875,43.34375 C 211.98059,44.550661 209.21476,44.733901 198.125,44.375 C 190.64931,44.133061 184.53125,44.314015 184.53125,44.78125 C 184.53125,45.248485 183.96875,45.619283 183.28125,45.59375 C 178.98285,45.434113 177.8927,45.969907 177.96875,48.125 C 178.03706,50.060702 177.49501,50.399852 174.15625,50.53125 C 172.02177,50.615252 169.99677,51.06438 169.65625,51.5625 C 169.31573,52.060618 166.33125,53.099027 163.03125,53.84375 C 157.01766,55.200859 152.53125,58.049136 152.53125,60.53125 C 152.53125,61.260376 151.85626,61.875 151.03125,61.875 C 150.20625,61.874999 149.53125,62.524562 149.53125,63.3125 C 149.53125,64.100436 148.63125,65.025874 147.53125,65.375 C 146.43125,65.724129 145.53125,66.624126 145.53125,67.375 C 145.53125,68.125877 144.63125,69.025878 143.53125,69.375 C 142.43125,69.724129 141.53125,70.457142 141.53125,71.03125 C 141.53125,71.605361 139.8352,74.16742 137.75,76.71875 C 135.6648,79.270069 133.41081,82.5 132.75,83.875 C 132.08919,85.249999 131.12581,87.05 130.625,87.875 C 130.12419,88.699999 129.26676,91.175 128.71875,93.375 C 128.17074,95.574999 126.73839,100.6684 125.53125,104.71875 C 123.7501,110.69514 123.34001,114.65285 123.3125,125.71875 C 123.29385,133.21841 123.77655,141.17501 124.375,143.375 C 124.97345,145.57501 125.57341,150.97501 125.71875,155.375 C 125.80448,157.97073 125.8964,159.7074 126.09375,161.0625 C 121.2583,165.31136 122.68221,171.67254 123,172.78125 C 126.21838,182.95156 132.13259,214.9334 142.75,215.125 C 143.55851,216.94496 143.6875,219.12305 143.6875,219.875 C 144.01342,224.21699 145.85632,228.52612 145.78125,232.875 C 142.40252,238.83018 138.5126,248.68192 134.3125,253.71875 C 133.39964,254.08313 131.79397,254.27948 129.0625,254.5625 C 123.81868,255.10584 122.87247,255.86818 119.84375,262.03125 C 118.54027,264.68366 117.03299,266.06029 114.375,266.9375 C 112.35156,267.60529 109.28745,269.42449 107.5625,271 C 105.83755,272.57549 104.03678,273.87501 103.59375,273.875 C 103.15071,273.87499 100.80516,276.10092 98.375,278.8125 C 95.430727,282.0977 92.21881,284.41397 88.75,285.78125 C 82.035277,288.42793 76.29314,292.0794 73.75,295.3125 C 72.639827,296.72384 71.37709,297.87311 70.90625,297.875 C 70.435397,297.87688 67.03397,300.4644 63.375,303.625 C 59.24972,307.18839 51.91971,311.82775 44.09375,315.84375 C 26.10574,325.0745 23.61985,328.27505 23.5625,342.125 C 23.54744,345.76025 22.76243,349.63452 21.4375,352.625 C 20.28268,355.23149 18.95771,358.27501 18.5,359.375 C 17.77527,361.11671 16.82262,365.63355 16.34375,369.625 C 16.26126,370.31249 15.94583,370.87375 15.625,370.875 C 15.30416,370.87626 14.9852,373.9055 14.90625,377.625 C 14.80088,382.58876 14.13586,385.58305 12.40625,388.875 C 10.39613,392.70084 10.05076,394.77121 10.09375,402.875 C 10.13778,411.17482 10.562,413.51201 13.53125,421.375 C 16.05553,428.05966 16.93388,431.91857 16.90625,436.375 C 16.86895,442.3895 11.87422,466.8707 9.15625,474.375 C 8.3594401,476.57499 7.39183,480.96251 7.03125,484.125 L 6.40625,489.875 L 326.28125,489.875 L 325.46875,485.625 C 325.02691,483.28749 323.7309,477.20668 322.59375,472.125 C 321.45661,467.04331 320.53125,461.33587 320.53125,459.4375 C 320.53126,457.53913 320.1406,455.73685 319.65625,455.4375 C 317.84855,454.32027 317.33767,448.6622 316.5625,420.875 C 315.6781,389.17211 313.14119,367.59541 308.875,355.375 C 307.53096,351.52499 305.77542,344.55001 304.96875,339.875 C 303.59906,331.93713 300.60867,324.01101 297.875,321.125 C 297.22661,320.44045 295.87991,318.86547 294.875,317.625 C 293.87011,316.38452 290.5561,313.37984 287.53125,310.9375 C 284.5064,308.49515 280.45625,304.58674 278.53125,302.25 C 276.60626,299.91326 274.45978,297.97092 273.75,297.9375 C 269.6652,296.17941 263.76556,292.99509 262.5,288.3125 C 259.32456,278.98637 255.1209,270.07726 250.53125,261.375 C 249.41973,260.68803 249.1918,256.90065 250.125,254.46875 C 261.88843,245.40825 257.93222,220.6254 266,211.46875 C 267.06855,212.89097 272.74286,198.75631 277.1875,185.4375 C 282.12329,170.64696 288.48335,164.69046 279.84375,165.3125 C 278.55037,165.63713 277.53125,165.44209 277.53125,164.875 C 277.53126,164.31453 277.92298,163.87501 278.40625,163.875 C 280.33803,163.87501 284.06823,150.8804 285,140.90625 C 285.32488,137.42869 285.78452,134.28616 286,133.9375 C 286.21548,133.58886 286.5279,129.7854 286.6875,125.5 C 286.8471,121.2146 287.30466,117.50593 287.71875,117.25 C 288.80008,116.58171 287.51271,110.64576 285.875,108.75 C 285.11224,107.86704 284.77788,106.40454 285.125,105.5 C 285.47211,104.59546 285.2947,103.875 284.75,103.875 C 283.51211,103.875 282.23944,100.16201 282.375,96.96875 C 282.43131,95.642309 281.74161,94.00028 280.84375,93.34375 C 279.82522,92.598969 279.45428,91.50262 279.875,90.40625 C 280.38641,89.073559 280.8662,88.91276 281.875,89.75 C 284.72344,92.113979 284.23321,89.45013 280.96875,84.90625 C 277.00966,79.395459 276.76894,78.49828 279.53125,79.375 C 280.63126,79.724119 281.53125,79.54999 281.53125,79 C 281.53126,78.449999 280.67419,77.73924 279.625,77.40625 C 278.57582,77.073249 277.4648,76.14781 277.15625,75.34375 C 276.84771,74.539679 275.90476,73.875 275.0625,73.875 C 274.22025,73.874999 273.53125,73.258204 273.53125,72.53125 C 273.53126,71.08726 265.95491,67.435142 260.78125,66.375 C 258.99376,66.008724 257.53125,65.128704 257.53125,64.40625 C 257.53126,63.683797 256.85625,62.816581 256.03125,62.5 C 254.05821,61.742867 254.10376,59.875 256.09375,59.875 C 256.95122,59.874999 257.3633,59.400314 257,58.8125 C 256.63672,58.224685 254.15008,57.857686 251.46875,58 C 248.78741,58.142314 246.28575,57.942 245.90625,57.5625 C 245.52675,57.182998 245.76337,56.875 246.4375,56.875 C 247.11163,56.874999 247.35218,56.370409 246.96875,55.75 C 246.50786,55.004265 244.29406,54.818927 240.46875,55.21875 C 236.34574,55.649689 234.54759,55.467881 234.21875,54.59375 C 233.95612,53.895644 233.32698,54.452348 232.75,55.875 C 231.92766,57.902633 231.62353,58.055313 231.09375,56.75 C 230.08535,54.265418 230.92109,50.360161 232.875,48.40625 C 233.84676,47.434496 234.38304,46.351788 234.0625,46.03125 C 233.74196,45.710711 232.34666,46.670234 230.96875,48.15625 C 228.08476,51.266507 227.34607,51.543118 228.25,49.1875 C 228.67936,48.068613 228.5054,47.763823 227.71875,48.25 C 226.99284,48.698635 226.51973,48.309935 226.5,47.1875 C 226.46148,44.996622 224.24717,41.875 222.71875,41.875 z M 189.84375,67.59375 C 191.59642,67.594602 212.68548,73.135435 208.84375,73.625 C 206.01021,73.986079 191.84375,68.852175 189.78125,68.84375 C 187.39088,68.833992 186.50575,68.5314 187.34375,68 C 187.80026,67.710518 188.79215,67.59324 189.84375,67.59375 z M 180.625,76 C 180.9724,75.985689 181.35781,76.04306 181.71875,76.1875 C 182.51648,76.506719 182.28995,76.73326 181.125,76.78125 C 180.07084,76.824669 160.01146,78.30104 160.34375,77.96875 C 160.5099,77.802599 180.2776,76.01431 180.625,76 z M 198.625,86 C 198.9724,85.985689 212.08825,87.6703 212.46875,87.75 C 212.70955,87.800429 212.80311,87.8495 212.84375,87.875 C 212.1084,88.011739 200.8104,86.83441 199.125,86.78125 C 198.07047,86.747979 197.48021,86.58229 197.8125,86.25 C 197.97865,86.083849 198.2776,86.01431 198.625,86 z M 215,104.46875 C 215.65786,104.46528 216.04863,104.48195 216.09375,104.5 C 216.89148,104.81923 194.28995,105.73326 193.125,105.78125 C 192.07084,105.82467 191.48021,105.58229 191.8125,105.25 C 191.97865,105.08385 192.2776,105.01431 192.625,105 C 192.92897,104.98748 210.395,104.49304 215,104.46875 z M 177.46875,118.875 C 182.20308,120.95093 196.625,120.2 196.625,120.75 C 196.625,121.3 180.40262,122.25256 178.09375,120.875 C 177.88547,120.75073 177.37117,120.425 177.03125,119.875 C 176.69133,119.325 176.88629,118.875 177.46875,118.875 z M 168.75,121.46875 C 169.0455,121.45446 169.1875,121.75375 169.1875,122.375 C 169.1875,123.39034 168.15545,123.875 165.875,123.875 C 164.04167,123.875 162.53125,123.36415 162.53125,122.75 C 162.53125,122.09218 163.4239,121.88014 164.71875,122.21875 C 165.92763,122.53488 167.43804,122.362 168.0625,121.84375 C 168.34766,121.60709 168.5727,121.47732 168.75,121.46875 z M 207.78125,123.875 C 208.33125,123.875 208.18823,124.57058 207.46875,125.4375 C 206.38583,126.74233 206.39568,127.15387 207.5625,127.875 C 210.94561,129.96588 197.80533,137.87501 190.9375,137.875 C 189.61144,137.87501 188.53125,138.35755 188.53125,138.96875 C 188.53125,140.19434 194.5902,139.40966 197.40625,137.8125 C 198.30104,137.30502 202.07755,135.76995 205.8125,134.40625 C 212.49227,131.96738 213.02833,132.21278 209.625,136.25 C 208.11591,138.04017 208.1362,138.1047 210.125,137.0625 C 211.2832,136.45556 213.5093,134.35433 215.0625,132.40625 C 217.6959,129.10335 221.53125,127.60763 221.53125,129.875 C 221.53125,130.42501 221.08125,130.875 220.53125,130.875 C 219.98125,130.87501 219.53125,131.325 219.53125,131.875 C 219.53125,132.42501 219.94698,132.87501 220.4375,132.875 C 221.93821,132.87501 229.41378,126.45626 229.46875,125.125 C 229.54436,123.29367 232.53125,123.59851 232.53125,125.4375 C 232.53125,126.29496 232.98125,126.71492 233.53125,126.375 C 237.5662,132.62923 218.82468,143.39669 213.5625,145.0625 C 221.5871,146.49725 233.23599,136.13888 236.53125,128.1875 C 236.53125,127.45838 237.2917,126.875 238.21875,126.875 C 251.6275,132.47706 252.79906,150.7996 251.53125,162.40625 C 251.53125,165.96586 247.5376,168.59077 239.53125,170.34375 C 229.99794,172.43106 221.83677,176.41063 220.09375,179.78125 C 219.3535,181.21274 217.7813,183.23479 216.625,184.28125 C 215.46869,185.3277 214.53125,186.83962 214.53125,187.65625 C 214.53125,188.47289 215.80625,190.44625 214.84375,191.1875 L 203.53125,191.84375 C 201.61875,191.79105 200.54832,190.77805 198.96875,187.5625 C 195.91194,181.33976 189.55224,177.97257 182.6875,178 C 178.56865,178.01647 174.26692,179.25089 170.40625,181.84375 C 166.0934,184.7403 161.5403,191.03548 161.53125,194.125 C 161.52629,195.82047 160.78008,195.58073 156.97338,195.24537 C 154.34032,188.47569 150.1389,182.61085 146.09375,176.5 C 143.33447,173.01755 143.03125,171.9609 143.03125,165.5 C 143.03125,156.69716 146.05586,146.20817 149.1875,144.15625 L 151.40625,142.71875 L 149.28125,140.625 C 147.90748,139.25125 147.57353,138.3505 148.34375,138.09375 C 148.99687,137.87605 149.53125,137.07253 149.53125,136.3125 C 149.53125,134.45667 155.41114,127.875 157.0625,127.875 C 157.78469,127.875 158.5291,127.41271 158.71875,126.84375 C 159.18655,125.44035 173.53125,124.472 173.53125,125.84375 C 173.53125,126.41418 174.525,126.875 175.75,126.875 C 177.96862,126.875 177.97777,126.86598 175.4375,129.40625 C 173.37358,131.47018 171.81199,131.99452 167.21875,132.15625 C 158.53416,132.46204 159.797,134.14546 169.625,135.34375 C 173.78161,135.85056 175.49369,135.64717 177.03125,134.4375 C 178.9354,132.9394 178.89894,132.91738 176.21875,133.875 C 174.67045,134.42822 172.42045,134.83682 171.21875,134.8125 C 169.44396,134.77661 169.71652,134.42852 172.65625,132.875 C 176.91728,130.62323 181.53125,129.61312 181.53125,130.9375 C 181.53125,131.45109 181.08125,131.875 180.53125,131.875 C 179.98125,131.87501 179.53125,132.27992 179.53125,132.78125 C 179.53125,133.92867 181.37979,133.6433 184.3125,132.03125 C 185.56136,131.34477 187.09512,131.08333 187.71875,131.46875 C 188.41386,131.89837 188.56244,131.73904 188.125,131.03125 C 187.49437,130.01088 191.74251,129.21901 194.875,129.78125 C 195.34539,129.86569 196.24539,129.53704 196.875,129.03125 C 197.50461,128.52548 199.46927,127.78011 201.21875,127.40625 C 202.96825,127.03238 204.93841,126.10215 205.59375,125.3125 C 206.2491,124.52286 207.23125,123.875 207.78125,123.875 z M 127.65654,163.0136 C 128.11356,164.99779 127.61003,165.12805 129.625,167.28125 C 132.2542,170.09083 133.64369,172.75374 134.53125,176.78125 C 136.68165,186.53926 141.60417,194.40398 141.375,187.71875 C 141.19705,182.52806 142.01134,177.6962 143.19184,178.0897 C 148.7596,183.63464 151.27223,189.47779 154.50868,196.39294 C 152.27584,196.46212 155.06209,198.35483 157.875,198.6875 C 159.8306,198.91879 161.10723,200.05244 162.53125,202.84375 C 165.09526,207.86963 170.94933,212.61221 176,213.75 C 178.22429,214.25109 180.36457,214.6911 180.75,214.75 C 183.07782,215.10574 191.86867,212.39984 194.125,210.625 C 198.0997,207.49851 202.43102,200.17223 201.78125,197.6875 C 201.40026,196.23059 201.95732,195.03216 203.625,193.75 C 207.29466,193.38044 210.91401,192.45347 213.5,193.78125 C 215.71119,195.51175 216.0047,196.63706 216.5,205.03125 C 217.07411,214.76119 219.33582,220.55104 222.15625,219.46875 C 223.26442,219.04351 225.53125,221.53151 225.53125,223.1875 C 225.53125,224.35524 222.10658,224.80135 221.4375,223.71875 C 220.44284,222.10938 218.07844,224.03744 214.90625,229.0625 C 213.15594,231.83519 212.08453,232.64472 210.78125,232.15625 C 206.79137,230.88151 203.54874,227.3953 199.53125,226.875 C 198.36633,226.87501 197.69133,227.32501 198.03125,227.875 C 198.37117,228.42501 199.04617,228.87501 199.53125,228.875 C 202.69534,227.39045 207.3184,231.51409 210.375,233.125 C 211.40418,233.66613 212.90848,234.72674 214.375,234.6875 C 215.84153,234.64827 217.9695,234.9298 219.125,235.3125 C 220.47859,235.7608 221.79605,235.45395 222.8125,234.4375 C 223.6802,233.5698 224.87947,232.87501 225.46875,232.875 C 226.05804,232.87501 226.53125,232.14234 226.53125,231.25 C 226.53125,230.02069 226.845,229.88986 227.84375,230.71875 C 228.8151,231.52491 229.72817,231.42219 231.3125,230.3125 C 233.03018,229.1094 233.35627,228.16281 232.875,225.59375 C 232.54368,223.82517 231.38001,221.39821 230.3125,220.21875 C 225.05025,210.89735 218.29864,207.74766 234.1875,212.96875 C 238.31986,213.92263 240.13865,213.8376 245.09375,212.40625 C 248.36254,211.46203 251.93125,209.94445 253.03125,209.03125 C 255.01747,207.38235 255.02998,207.376 253.125,209.625 C 252.06999,210.87054 251.07415,212.89552 250.9375,214.125 C 250.80084,215.35449 250.61917,216.37501 250.53125,216.375 C 250.44334,216.37501 250.21567,217.16132 250.03125,218.125 C 249.587,220.44633 245.59811,228.66344 244.71875,229.0625 C 244.3383,229.23516 243.13125,231.09654 242.03125,233.21875 C 236.71922,243.46717 237.55338,242.72477 231.53125,242.65625 C 228.50625,242.62184 223.78125,243.1054 221.03125,243.71875 C 218.28125,244.33211 213.91113,245.10696 211.3125,245.46875 C 207.97538,246.62486 205.25835,246.3911 201.8125,245.75 C 200.82234,245.464 199.54453,245.31626 198.15625,245.3125 C 196.76797,245.30875 195.26921,245.43936 193.8125,245.71875 C 190.93481,246.27068 190.05165,246.68242 191.625,246.75 C 193.05718,246.81152 195.51417,248.0338 197.0625,249.46875 C 199.40942,251.64381 200.51783,252.00441 203.8125,251.5625 C 205.98608,251.27097 211.5666,251.50816 212.1875,250.84375 C 213.08856,250.70754 214.48731,250.86021 215.53125,250.875 C 221.01551,250.87501 221.46759,251.47097 218.625,255 C 217.11321,256.87688 215.11468,257.60626 208.875,258.5 L 201.03125,259.625 L 208.53125,259.84375 C 212.65625,259.96735 218.48725,260.36064 221.46875,260.71875 C 226.33381,261.30308 226.91214,261.63135 227.09375,263.875 C 227.20505,265.24999 226.81172,267.27501 226.25,268.375 C 224.69789,271.41448 217.38715,278.8258 214.34375,280.4375 C 211.12341,282.14288 197.35875,282.37812 194.375,280.78125 C 191.05901,279.00657 190.79526,280.85878 194.03125,283.1875 C 195.68024,284.37416 198.01459,286.31483 199.21875,287.5 C 200.42292,288.68516 201.66379,289.39872 201.96875,289.09375 C 202.27371,288.78878 203.31538,289.24454 204.28125,290.09375 C 205.24712,290.94296 208.00595,292.63645 210.40625,293.84375 C 212.80654,295.05104 214.96759,296.82087 215.21875,297.78125 C 215.46989,298.74162 217.09519,300.04661 218.84375,300.6875 C 220.59232,301.32837 223.60625,302.84561 225.53125,304.0625 C 227.45625,305.27938 229.32083,306.28636 229.6875,306.3125 C 231.22841,306.42237 231.72263,307.87501 230.21875,307.875 C 228.82204,307.87499 228.74125,308.26087 229.71875,310.40625 C 230.59111,312.32084 230.60451,313.20799 229.71875,314.09375 C 228.07383,315.73866 225.23774,311.94718 226.75,310.125 C 227.96789,308.65752 226.40259,308.40991 224.96875,309.84375 C 224.33464,310.47785 222.82537,310.10034 220.65625,308.78125 C 218.82079,307.66503 217.59278,306.4697 217.9375,306.125 C 218.7085,305.35398 213.58483,299.87501 212.09375,299.875 C 210.31492,299.87499 203.58898,314.21405 202.90625,319.46875 C 201.79444,328.02594 201.39818,327.92325 193.03125,316.875 C 188.7628,311.23865 179.37534,299.87997 172.15625,291.625 C 164.93716,283.37002 157.00625,274.26547 154.53125,271.375 C 152.05625,268.48452 146.99375,264.1667 143.28125,261.8125 C 139.56875,259.4583 136.54454,257.29282 136.5625,256.96875 C 140.85019,249.85017 145.83543,244.67705 148.03125,236.71875 C 148.84392,231.5733 146.82964,223.88491 145.75926,218.625 C 146.56893,215.35491 145.94794,213.30418 143.44213,213.00405 C 132.09958,203.92242 130.01874,185.86611 125.71007,172.04919 C 124.42304,169.18163 126.55045,165.37009 127.65654,163.0136 z M 166.6875,167.15625 C 165.95678,167.22695 162.57172,167.31438 161.875,167.8125 C 151.00132,175.58668 160.51088,170.32526 168.875,171.875 C 172.37075,172.52272 179.81288,173.94529 193.53125,178.78125 C 196.23694,179.73505 201.53125,179.79232 201.53125,178.875 C 201.53125,177.44056 198.1455,173.73345 195.71875,172.5 C 194.23963,171.74822 190.33125,170.79742 187.03125,170.40625 C 183.73125,170.01509 179.23125,169.48445 177.03125,169.21875 C 174.83125,168.95307 171.53154,168.26201 169.6875,167.6875 C 168.34768,167.27009 167.41822,167.08556 166.6875,167.15625 z M 180.53125,183.875 C 181.08125,183.87501 181.53125,184.32501 181.53125,184.875 C 181.53125,185.42501 181.08125,185.87501 180.53125,185.875 C 179.98125,185.87501 179.53125,185.42501 179.53125,184.875 C 179.53125,184.32501 179.98125,183.87501 180.53125,183.875 z M 188.8125,183.90625 C 189.22636,183.9661 189.67831,184.28463 190.0625,184.90625 C 190.41625,185.47863 191.54628,185.67619 192.59375,185.34375 C 196.66102,184.05285 201.69581,193.22995 200.15625,199.125 C 199.01207,203.50616 195.55153,207.80869 191.5625,209.84375 C 184.00104,213.70132 176.30596,213.22455 169,208.4375 C 165.71533,206.28531 162.53915,201.07755 162.5625,197.875 C 162.588,194.37753 165.79724,187.75728 168.625,185.375 C 170.65362,183.66597 170.79067,183.63888 169.5625,185.21875 C 168.1749,187.00375 168.244,186.99378 171.96875,185.4375 C 174.09067,184.55091 175.91798,183.94903 176,184.09375 C 178.61439,188.70694 179.86172,189.87501 182.34375,189.875 C 185.53848,189.87501 187.53125,188.2481 187.53125,185.65625 C 187.42572,184.40614 188.1001,184.35936 188.8125,183.90625 z M 233.96875,184.875 C 234.21129,184.87501 234.69133,185.32501 235.03125,185.875 C 235.37117,186.42501 235.17621,186.87501 234.59375,186.875 C 234.01129,186.87501 233.53125,186.42501 233.53125,185.875 C 233.53125,185.32501 233.72621,184.87501 233.96875,184.875 z M 230.625,184.96875 C 231.21546,184.94567 231.53125,185.52371 231.53125,186.71875 C 231.53125,187.73352 232.44586,189.3957 233.5625,190.40625 C 236.09341,192.69671 240.53869,191.47442 242.03125,188.09375 C 243.01192,185.87251 244.53125,185.05587 244.53125,186.75 C 244.53125,188.31493 241.73063,194.38374 241.125,194.125 C 240.80314,193.98751 239.74375,193.88875 238.78125,193.90625 C 237.21946,193.93465 237.24635,194.10873 239.03125,195.46875 C 240.13125,196.30691 240.90209,197.59088 240.75,198.34375 C 239.73911,203.34808 253.03661,201.29313 256.125,195.96875 L 257.65625,193.375 L 257.09375,196.75 C 256.23052,201.99178 252.88106,206.50913 248.1875,208.78125 C 242.68243,211.44622 234.19031,211.57411 230.03125,209.03125 C 226.66048,206.97037 223.79261,203.87501 225.25,203.875 C 226.33153,203.87501 226.51907,203.02642 226.8125,197.375 C 226.92673,195.17501 227.45411,193.05807 227.96875,192.6875 C 228.52126,192.28965 228.37539,191.37931 227.59375,190.4375 C 226.47999,189.09551 226.55388,188.51076 228.0625,186.84375 C 229.18368,185.60486 230.03454,184.99184 230.625,184.96875 z M 236.4375,244.90625 C 236.58059,244.89394 236.71275,244.8975 236.84375,244.90625 C 237.89179,244.97627 238.5407,245.73634 238.53125,247.125 C 238.52283,248.36251 238.08345,250.05001 237.5625,250.875 C 236.18255,253.06038 233.018,252.89312 231.5625,250.5625 C 230.46929,248.81201 230.64122,248.29251 232.6875,246.71875 C 234.1418,245.60028 235.43587,244.99248 236.4375,244.90625 z M 203.875,246.75 C 205.67168,246.79078 207.34117,247.38007 209.0625,247.21875 C 210.06689,246.83334 210.53125,247.30839 210.53125,248.75 C 210.57145,249.90007 208.61359,249.10354 207.53125,249.1875 C 206.0776,249.51912 204.22244,249.1505 203.09375,248.3125 C 201.17224,246.88588 201.17332,246.67116 203.09375,246.78125 C 203.35599,246.76148 203.61833,246.74418 203.875,246.75 z M 248.4375,262.875 C 253.19429,271.30556 262.49638,288.86403 264.1875,301.5625 C 263.83583,301.91417 263.53125,301.6729 263.53125,301.03125 C 263.53126,300.38957 263.08125,299.87501 262.53125,299.875 C 261.98126,299.87499 261.53125,301.35363 261.53125,303.15625 C 261.53126,309.70152 259.96102,310.61466 245.96875,312.34375 C 244.28599,312.55168 240.29194,313.86686 237.09375,315.28125 C 229.2892,318.73278 227.4014,318.70222 230.6875,315.125 C 232.07692,313.61249 234.26301,310.80001 235.5625,308.875 C 244.24456,298.12525 244.8152,286.5524 246.71875,273.375 C 247.81767,269.24125 248.16441,267.1575 248.4375,262.875 z M 226.5625,281.15625 C 227.7025,281.13062 216.68067,286.80222 206.25,284.875 C 205.40754,283.85989 209.68869,284.03983 211.15625,283.96875 C 211.64544,283.94505 212.30943,283.94338 213.15625,283.96875 C 215.35529,284.03462 225.45972,282.59445 226.5625,281.15625 z M 265.78125,313.4375 C 265.86907,313.41718 265.93712,313.42508 266,313.4375 C 266.41921,313.52028 266.33395,314.38973 266,316.59375 C 265.68603,318.66592 265.11256,323.97501 264.71875,328.375 L 264,336.375 L 262.90625,328.875 C 261.58734,319.81423 262.05711,315.63492 264.625,314.03125 C 265.13269,313.71419 265.51781,313.49843 265.78125,313.4375 z M 209.15625,323.96875 C 209.62888,323.92457 210.78622,324.49222 212.84375,325.59375 C 214.60394,326.53608 217.5171,327.84371 219.34375,328.5 C 222.12562,329.49951 222.57713,329.45948 222.125,328.28125 C 221.82813,327.5076 222.02976,326.87501 222.5625,326.875 C 223.09524,326.87499 223.53125,327.66135 223.53125,328.625 C 223.53125,329.58865 224.91801,335.10117 226.625,340.875 C 228.33199,346.64883 230.21839,353.01565 230.8125,355.03125 C 231.61395,357.75024 231.59562,359.75024 230.6875,362.78125 C 230.01432,365.02813 229.02793,366.87501 228.5,366.875 C 227.54144,366.87499 227.30935,366.35784 227.78125,365.28125 C 227.91875,364.96755 227.29624,364.29682 226.375,363.78125 C 225.45375,363.26569 224.13537,361.20739 223.46875,359.1875 C 222.04588,354.87615 216.84992,345.70912 211.21875,337.59375 C 207.39295,332.08017 206.77259,329.16524 210,331.84375 C 210.95039,332.63249 211.53125,332.72561 211.53125,332.0625 C 211.53125,331.47761 211.09022,330.68921 210.53125,330.34375 C 209.97228,329.99828 209.75311,329.31314 210.0625,328.8125 C 210.37191,328.31186 210.12604,326.98635 209.53125,325.875 C 208.8718,324.64281 208.68362,324.01292 209.15625,323.96875 z M 233.0625,326.875 C 236.70825,326.87499 239.53125,327.31141 239.53125,327.875 C 239.53125,328.42499 238.51875,328.86894 237.28125,328.875 C 236.04375,328.88104 233.41861,329.17231 231.4375,329.5 C 228.67506,329.95694 227.69163,329.70105 227.21875,328.46875 C 226.6916,327.09502 227.53232,326.87501 233.0625,326.875 z M 235.3125,332.96875 C 235.85158,332.95207 236.43811,332.97474 237.0625,333 C 240.2929,333.13068 242.20771,333.57356 241.6875,334.09375 C 240.68089,335.10035 234.68073,335.79312 232.78125,335.125 C 230.0021,334.14743 231.53896,333.08541 235.3125,332.96875 z M 255.5625,341.9375 C 258.61023,342.10696 258.42917,345.56592 258.53125,347.9375 C 258.53126,352.29442 258.92527,353.40136 261.15625,355.15625 L 263.78125,357.21875 L 263.09375,378.28125 C 262.46449,396.88472 261.46918,404.32341 260.21875,399.78125 C 260.00418,399.00177 259.11035,395.90001 258.25,392.875 C 254.319,379.05343 252.20426,369.79829 251.40625,363.0625 C 250.9307,359.04853 249.85669,354.47121 249.03125,352.875 C 246.9455,348.84161 246.98499,342.72203 249.09375,343.53125 C 249.95585,343.86206 251.73046,343.57117 253.03125,342.875 C 254.02378,342.3438 254.86078,342.01352 255.5625,341.9375 z M 245.53125,351.875 C 246.78879,351.87499 246.81863,353.37517 245.59375,355.625 C 245.0738,356.58003 244.37454,358.97056 244.0625,360.9375 C 243.75046,362.90443 242.94879,365.29435 242.25,366.25 C 241.11407,367.80347 240.97737,367.70323 241.03125,365.1875 C 241.06439,363.6399 241.86487,360.62965 242.8125,358.5 C 243.76014,356.37032 244.53125,354.00782 244.53125,353.25 C 244.53125,352.49215 244.98125,351.87501 245.53125,351.875 z M 238.90625,369.46875 C 239.05703,369.52564 239.03258,369.89323 238.875,370.53125 C 238.31496,372.79878 233.53125,377.9181 233.53125,376.25 C 233.53125,375.72084 234.85158,373.74796 236.46875,371.84375 C 237.08361,370.86634 238.07631,370.12477 238.90625,369.46875 z M 148.53125,371.625 C 148.67763,371.6153 148.82503,371.61597 148.96875,371.625 C 151.92532,371.81076 154.2549,375.84503 152.65625,379.9375 C 152.64985,368.40591 144.97631,372.62581 142.46875,379.9375 C 143.88591,374.07093 146.33553,371.77049 148.53125,371.625 z M 126.53125,384.59375 C 128.63295,384.55213 131.08761,384.59811 134.03125,384.6875 C 144.16522,384.99521 144.1984,385.0376 142.25,395.03125 C 141.35639,399.61469 140.40957,405.46913 140.125,408.03125 C 139.84043,410.59337 138.63465,414.51317 137.46875,416.75 C 135.58928,420.35582 135.47274,421.40771 136.4375,425.90625 C 137.74064,431.98258 137.78377,432.87501 136.71875,432.875 C 136.27062,432.87499 135.09807,431.18751 134.09375,429.125 L 132.25,425.375 L 130.90625,428.5625 C 129.03503,433.02544 131.63253,441.08248 135.96875,444.3125 C 140.07014,447.36762 149.02873,448.61818 149.9375,446.25 C 150.9986,443.48478 151.97778,445.67185 151.65625,450.125 C 151.19928,456.45387 149.13892,459.66691 145.03125,460.4375 C 141.14369,461.16681 140.48588,462.35986 143.53125,463.15625 C 146.60711,463.96059 147.04911,466.66971 144.65625,469.90625 C 141.9502,473.56637 141.98826,473.87501 145.03125,473.875 C 147.94532,473.87499 148.32624,475.37123 145.75,476.75 C 144.12084,477.62189 129.62567,477.85278 123.53125,477.09375 C 122.15625,476.92248 117.88125,475.67331 114.03125,474.34375 C 110.18125,473.0142 105.20457,471.46854 102.96875,470.90625 C 94.973917,468.8956 92.89646,464.02968 92.03125,445.375 C 91.852677,441.52499 91.12686,436.97206 90.4375,435.25 C 89.352097,432.53862 89.46125,431.46639 91.25,427.25 C 92.386077,424.57205 93.63949,420.84784 94.03125,419 C 95.025037,414.31243 98.860568,406.03349 101.9375,401.9375 C 103.36055,400.04314 104.53125,398.05998 104.53125,397.53125 C 104.53125,395.50834 109.77603,389.82069 113.8125,387.46875 C 117.12921,385.53618 120.22614,384.71858 126.53125,384.59375 z M 152.0625,388.875 C 152.17465,388.85874 152.28315,388.875 152.40625,388.875 C 154.14453,388.87499 159.84948,394.30813 162.875,398.84375 C 165.26062,402.42007 165.10369,405.8208 162.5625,405.15625 C 160.95691,404.73637 160.1891,405.54907 158.5625,409.34375 C 157.45535,411.92662 156.53125,415.78309 156.53125,417.9375 C 156.53125,421.63216 156.35925,421.87501 153.5,421.875 C 151.83273,421.87499 150.30161,421.31251 150.09375,420.625 C 148.20334,414.37236 147.85878,409.98188 148.65625,402.625 C 149.86985,391.42912 150.38019,389.11875 152.0625,388.875 z M 157.6875,432.9375 C 158.21203,432.99269 158.84328,433.61254 159.46875,434.78125 C 163.56664,436.20085 163.53133,441.76711 161.34375,446.53125 C 161.16629,447.44624 160.46875,448.39608 159.78125,448.625 C 157.94259,449.23719 157.40135,446.17814 159.25,445.46875 C 162.01403,437.98276 158.41709,437.92564 156.53125,435.375 C 156.53125,433.70862 157.01311,432.86652 157.6875,432.9375 z" id="path5575" sodipodi:nodetypes="csssssssssssssssssssssssssccccccssssssssssssssssssssssccccsssssssssscccccscsssssssssssssssssssssssssssssssssssssssccsssccsssccscssccssssccsssccsssssccssssssssssssssscccccssssccssssccscccsssssssssssssssssssssssccsssccssssssccsssssccscsssssssssccssssssssssccsssssccscccssssssssssssssssssssssssssscccccccssssssssccsssccssssssssssscccsssccsssssssscccsssssssccssssscccccsccccsssssscccccssccsscccsccssssssssssssssssssccssssccsssccccccssssssccssssssccsscccsccccsssssscccssssssssssssssssssccssssssssccccsccc"/>
</svg>