  0
SECTION
  2
HEADER
  9
$ACADVER
  1
AC1014
  9
$HANDSEED
  5
FFFF
  9
$MEASUREMENT
 70
     1
  0
ENDSEC
  0
SECTION
  2
TABLES
  0
TABLE
  2
VPORT
  5
8
330
0
100
AcDbSymbolTable
 70
     4
  0
VPORT
  5
2E
330
8
100
AcDbSymbolTableRecord
100
AcDbViewportTableRecord
  2
*ACTIVE
 70
     0
 10
0.0
 20
0.0
 11
1.0
 21
1.0
 12
210.0
 22
148.5
 13
0.0
 23
0.0
 14
10.0
 24
10.0
 15
10.0
 25
10.0
 16
0.0
 26
0.0
 36
1.0
 17
0.0
 27
0.0
 37
0.0
 40
341.0
 41
1.24
 42
50.0
 43
0.0
 44
0.0
 50
0.0
 51
0.0
 71
     0
 72
   100
 73
     1
 74
     3
 75
     0
 76
     0
 77
     0
 78
     0
  0
ENDTAB
  0
TABLE
  2
LTYPE
  5
5
330
0
100
AcDbSymbolTable
 70
     1
  0
LTYPE
  5
14
330
5
100
AcDbSymbolTableRecord
100
AcDbLinetypeTableRecord
  2
BYBLOCK
 70
     0
  3

 72
    65
 73
     0
 40
0.0
  0
LTYPE
  5
15
330
5
100
AcDbSymbolTableRecord
100
AcDbLinetypeTableRecord
  2
BYLAYER
 70
     0
  3

 72
    65
 73
     0
 40
0.0
  0
LTYPE
  5
16
330
5
100
AcDbSymbolTableRecord
100
AcDbLinetypeTableRecord
  2
CONTINUOUS
 70
     0
  3
Solid line
 72
    65
 73
     0
 40
0.0
  0
ENDTAB
  0
TABLE
  2
LAYER
  5
2
100
AcDbSymbolTable
 70
2
  0
LAYER
  5
50
100
AcDbSymbolTableRecord
100
AcDbLayerTableRecord
  2
0
 70
0
  6
CONTINUOUS
  0
LAYER
  5
51
100
AcDbSymbolTableRecord
100
AcDbLayerTableRecord
  2
Layer_1
 70
0
  6
CONTINUOUS
  0
ENDTAB
  0
TABLE
  2
STYLE
  5
3
330
0
100
AcDbSymbolTable
 70
     1
  0
STYLE
  5
11
330
3
100
AcDbSymbolTableRecord
100
AcDbTextStyleTableRecord
  2
STANDARD
 70
     0
 40
0.0
 41
1.0
 50
0.0
 71
     0
 42
2.5
  3
txt
  4

  0
ENDTAB
  0
TABLE
  2
VIEW
  5
6
330
0
100
AcDbSymbolTable
 70
     0
  0
ENDTAB
  0
TABLE
  2
UCS
  5
7
330
0
100
AcDbSymbolTable
 70
     0
  0
ENDTAB
  0
TABLE
  2
APPID
  5
9
330
0
100
AcDbSymbolTable
 70
     2
  0
APPID
  5
12
330
9
100
AcDbSymbolTableRecord
100
AcDbRegAppTableRecord
  2
ACAD
 70
     0
  0
ENDTAB
  0
TABLE
  2
DIMSTYLE
  5
A
330
0
100
AcDbSymbolTable
 70
     1
  0
DIMSTYLE
105
27
330
A
100
AcDbSymbolTableRecord
100
AcDbDimStyleTableRecord
  2
ISO-25
 70
     0
  3

  4

  5

  6

  7

 40
1.0
 41
2.5
 42
0.625
 43
3.75
 44
1.25
 45
0.0
 46
0.0
 47
0.0
 48
0.0
140
2.5
141
2.5
142
0.0
143
0.03937007874016
144
1.0
145
0.0
146
1.0
147
0.625
 71
     0
 72
     0
 73
     0
 74
     0
 75
     0
 76
     0
 77
     1
 78
     8
170
     0
171
     3
172
     1
173
     0
174
     0
175
     0
176
     0
177
     0
178
     0
270
     2
271
     2
272
     2
273
     2
274
     3
340
11
275
     0
280
     0
281
     0
282
     0
283
     0
284
     8
285
     0
286
     0
287
     3
288
     0
  0
ENDTAB
  0
TABLE
  2
BLOCK_RECORD
  5
1
330
0
100
AcDbSymbolTable
 70
     1
  0
BLOCK_RECORD
  5
1F
330
1
100
AcDbSymbolTableRecord
100
AcDbBlockTableRecord
  2
*MODEL_SPACE
  0
BLOCK_RECORD
  5
1B
330
1
100
AcDbSymbolTableRecord
100
AcDbBlockTableRecord
  2
*PAPER_SPACE
  0
ENDTAB
  0
ENDSEC
  0
SECTION
  2
BLOCKS
  0
BLOCK
  5
20
330
1F
100
AcDbEntity
  8
0
100
AcDbBlockBegin
  2
*MODEL_SPACE
 70
     0
 10
0.0
 20
0.0
 30
0.0
  3
*MODEL_SPACE
  1

  0
ENDBLK
  5
21
330
1F
100
AcDbEntity
  8
0
100
AcDbBlockEnd
  0
BLOCK
  5
1C
330
1B
100
AcDbEntity
 67
     1
  8
0
100
AcDbBlockBegin
  2
*PAPER_SPACE
  1

  0
ENDBLK
  5
1D
330
1B
100
AcDbEntity
 67
     1
  8
0
100
AcDbBlockEnd
  0
ENDSEC
  0
SECTION
  2
ENTITIES
  0
LWPOLYLINE
  5
100
100
AcDbEntity
  8
Layer_1
 62
7
100
AcDbPolyline
 90
119
 70
1
 10
7.012294
 20
10.030776
 30
0.0
 10
6.974150
 20
9.989159
 30
0.0
 10
8.701494
 20
8.405242
 30
0.0
 10
8.090361
 20
7.810206
 30
0.0
 10
7.810785
 20
7.663086
 30
0.0
 10
6.831055
 20
9.725679
 30
0.0
 10
6.972772
 20
9.996932
 30
0.0
 10
6.922722
 20
10.023059
 30
0.0
 10
6.775162
 20
9.740617
 30
0.0
 10
5.757232
 20
8.243736
 30
0.0
 10
5.222223
 20
8.104058
 30
0.0
 10
4.412818
 20
8.428559
 30
0.0
 10
3.733280
 20
8.949953
 30
0.0
 10
3.825554
 20
10.007515
 30
0.0
 10
3.769330
 20
10.012421
 30
0.0
 10
3.677222
 20
8.956623
 30
0.0
 10
2.346478
 20
8.412849
 30
0.0
 10
2.252165
 20
8.485665
 30
0.0
 10
1.703209
 20
10.019476
 30
0.0
 10
1.650072
 20
10.000459
 30
0.0
 10
2.184255
 20
8.507879
 30
0.0
 10
1.103542
 20
8.765241
 30
0.0
 10
0.066596
 20
10.027910
 30
0.0
 10
0.022995
 20
9.992081
 30
0.0
 10
1.047153
 20
8.744901
 30
0.0
 10
0.000175
 20
7.963664
 30
0.0
 10
0.033964
 20
7.918464
 30
0.0
 10
1.094061
 20
8.709458
 30
0.0
 10
2.216005
 20
8.442284
 30
0.0
 10
2.309877
 20
8.369799
 30
0.0
 10
2.217273
 20
8.033889
 30
0.0
 10
0.110142
 20
7.296197
 30
0.0
 10
0.027570
 20
7.329270
 30
0.0
 10
0.006569
 20
7.276905
 30
0.0
 10
0.093220
 20
7.242178
 30
0.0
 10
1.440004
 20
5.836689
 30
0.0
 10
1.400427
 20
5.021607
 30
0.0
 10
1.065067
 20
4.781498
 30
0.0
 10
0.009490
 20
4.488362
 30
0.0
 10
0.024593
 20
4.434012
 30
0.0
 10
1.059280
 20
4.721360
 30
0.0
 10
1.685185
 20
2.887467
 30
0.0
 10
1.163294
 20
2.129546
 30
0.0
 10
0.040138
 20
3.727684
 30
0.0
 10
-0.006054
 20
3.695218
 30
0.0
 10
1.134245
 20
2.072771
 30
0.0
 10
1.119417
 20
1.948692
 30
0.0
 10
1.066666
 20
1.690117
 30
0.0
 10
0.580935
 20
1.498460
 30
0.0
 10
0.009931
 20
1.349576
 30
0.0
 10
0.024153
 20
1.294951
 30
0.0
 10
0.572501
 20
1.437936
 30
0.0
 10
1.125867
 20
-0.000184
 30
0.0
 10
1.178563
 20
0.020100
 30
0.0
 10
0.626190
 20
1.455575
 30
0.0
 10
1.088163
 20
1.637972
 30
0.0
 10
1.972588
 20
1.070496
 30
0.0
 10
1.452627
 20
0.022526
 30
0.0
 10
1.503173
 20
-0.002555
 30
0.0
 10
2.026442
 20
1.052086
 30
0.0
 10
2.104825
 20
1.050652
 30
0.0
 10
2.551915
 20
-0.001067
 30
0.0
 10
2.603840
 20
0.021037
 30
0.0
 10
2.160718
 20
1.063495
 30
0.0
 10
3.261881
 20
1.528004
 30
0.0
 10
3.335633
 20
0.008579
 30
0.0
 10
3.392023
 20
0.011337
 30
0.0
 10
3.316892
 20
1.557992
 30
0.0
 10
3.733170
 20
1.948914
 30
0.0
 10
3.904102
 20
1.891918
 30
0.0
 10
4.747682
 20
0.842294
 30
0.0
 10
4.854176
 20
0.006431
 30
0.0
 10
4.910180
 20
0.013542
 30
0.0
 10
4.805504
 20
0.835349
 30
0.0
 10
5.433449
 20
1.076395
 30
0.0
 10
6.597891
 20
0.643912
 30
0.0
 10
6.767500
 20
0.204042
 30
0.0
 10
6.720977
 20
0.016794
 30
0.0
 10
6.775713
 20
0.003179
 30
0.0
 10
6.821684
 20
0.188056
 30
0.0
 10
7.769995
 20
0.788440
 30
0.0
 10
8.272042
 20
0.191474
 30
0.0
 10
8.284830
 20
0.008030
 30
0.0
 10
8.341164
 20
0.011943
 30
0.0
 10
8.328762
 20
0.189600
 30
0.0
 10
9.813846
 20
1.355585
 30
0.0
 10
10.018457
 20
1.365728
 30
0.0
 10
10.015646
 20
1.422117
 30
0.0
 10
9.804586
 20
1.411644
 30
0.0
 10
8.128506
 20
1.614712
 30
0.0
 10
8.100504
 20
1.646737
 30
0.0
 10
9.544247
 20
3.783799
 30
0.0
 10
10.034277
 20
4.160114
 30
0.0
 10
9.999882
 20
4.204928
 30
0.0
 10
9.506103
 20
3.825691
 30
0.0
 10
7.609426
 20
2.429518
 30
0.0
 10
7.922902
 20
4.196273
 30
0.0
 10
9.996905
 20
4.960368
 30
0.0
 10
10.005835
 20
4.956510
 30
0.0
 10
10.028269
 20
5.008269
 30
0.0
 10
10.013496
 20
5.014718
 30
0.0
 10
9.938586
 20
5.084888
 30
0.0
 10
9.921333
 20
5.132568
 30
0.0
 10
9.064359
 20
8.339263
 30
0.0
 10
10.018678
 20
8.394439
 30
0.0
 10
10.015426
 20
8.450773
 30
0.0
 10
9.034869
 20
8.394164
 30
0.0
 10
8.988622
 20
8.420457
 30
0.0
 10
9.095723
 20
8.805095
 30
0.0
 10
9.742684
 20
9.996491
 30
0.0
 10
9.693075
 20
10.023446
 30
0.0
 10
9.076816
 20
8.888604
 30
0.0
 10
8.734291
 20
10.018154
 30
0.0
 10
8.680272
 20
10.001783
 30
0.0
 10
9.040050
 20
8.815458
 30
0.0
 10
8.934052
 20
8.434898
 30
0.0
 10
8.753529
 20
8.434128
 30
0.0
 10
7.012295
 20
10.030778
 30
0.0
 10
7.012294
 20
10.030776
 30
0.0
  0
LWPOLYLINE
  5
101
100
AcDbEntity
  8
Layer_1
 62
7
100
AcDbPolyline
 90
6
 70
1
 10
6.795171
 20
9.669675
 30
0.0
 10
7.763325
 20
7.631501
 30
0.0
 10
7.132239
 20
7.071301
 30
0.0
 10
5.811968
 20
8.223948
 30
0.0
 10
6.795171
 20
9.669675
 30
0.0
 10
6.795171
 20
9.669675
 30
0.0
  0
LWPOLYLINE
  5
102
100
AcDbEntity
  8
Layer_1
 62
7
100
AcDbPolyline
 90
8
 70
1
 10
3.699546
 20
8.904754
 30
0.0
 10
4.363099
 20
8.395541
 30
0.0
 10
3.453704
 20
6.550954
 30
0.0
 10
2.319247
 20
7.108894
 30
0.0
 10
2.269032
 20
8.009139
 30
0.0
 10
2.365660
 20
8.359657
 30
0.0
 10
3.699546
 20
8.904754
 30
0.0
 10
3.699546
 20
8.904754
 30
0.0
  0
LWPOLYLINE
  5
103
100
AcDbEntity
  8
Layer_1
 62
7
100
AcDbPolyline
 90
7
 70
1
 10
8.948107
 20
8.378508
 30
0.0
 10
9.003946
 20
8.346758
 30
0.0
 10
9.823272
 20
5.280734
 30
0.0
 10
8.143719
 20
7.783361
 30
0.0
 10
8.754080
 20
8.377682
 30
0.0
 10
8.948107
 20
8.378509
 30
0.0
 10
8.948107
 20
8.378508
 30
0.0
  0
LWPOLYLINE
  5
104
100
AcDbEntity
  8
Layer_1
 62
7
100
AcDbPolyline
 90
7
 70
1
 10
4.412377
 20
8.367925
 30
0.0
 10
5.189480
 20
8.056378
 30
0.0
 10
5.060386
 20
7.085908
 30
0.0
 10
4.226122
 20
6.617486
 30
0.0
 10
3.505738
 20
6.528850
 30
0.0
 10
4.412377
 20
8.367925
 30
0.0
 10
4.412377
 20
8.367925
 30
0.0
  0
LWPOLYLINE
  5
105
100
AcDbEntity
  8
Layer_1
 62
7
100
AcDbPolyline
 90
10
 70
1
 10
5.767264
 20
8.188064
 30
0.0
 10
7.106166
 20
7.019156
 30
0.0
 10
7.206047
 20
6.392480
 30
0.0
 10
6.402650
 20
5.739345
 30
0.0
 10
6.063432
 20
5.648394
 30
0.0
 10
5.441827
 20
5.789836
 30
0.0
 10
5.115177
 20
7.069978
 30
0.0
 10
5.245815
 20
8.051858
 30
0.0
 10
5.767264
 20
8.188064
 30
0.0
 10
5.767264
 20
8.188064
 30
0.0
  0
LWPOLYLINE
  5
106
100
AcDbEntity
  8
Layer_1
 62
7
100
AcDbPolyline
 90
6
 70
1
 10
2.214516
 20
7.973090
 30
0.0
 10
2.263354
 20
7.098641
 30
0.0
 10
1.464754
 20
5.892528
 30
0.0
 10
0.160137
 20
7.253919
 30
0.0
 10
2.214516
 20
7.973090
 30
0.0
 10
2.214516
 20
7.973090
 30
0.0
  0
LWPOLYLINE
  5
107
100
AcDbEntity
  8
Layer_1
 62
7
100
AcDbPolyline
 90
9
 70
1
 10
8.097913
 20
7.750398
 30
0.0
 10
9.859762
 20
5.125070
 30
0.0
 10
8.493024
 20
5.752243
 30
0.0
 10
8.492527
 20
5.752469
 30
0.0
 10
7.262160
 20
6.399265
 30
0.0
 10
7.162720
 20
7.022855
 30
0.0
 10
7.814037
 20
7.601079
 30
0.0
 10
8.097912
 20
7.750403
 30
0.0
 10
8.097913
 20
7.750398
 30
0.0
  0
LWPOLYLINE
  5
108
100
AcDbEntity
  8
Layer_1
 62
7
100
AcDbPolyline
 90
5
 70
1
 10
7.797886
 20
7.624446
 30
0.0
 10
7.797943
 20
7.624446
 30
0.0
 10
7.797943
 20
7.624389
 30
0.0
 10
7.797886
 20
7.624446
 30
0.0
 10
7.797886
 20
7.624446
 30
0.0
  0
LWPOLYLINE
  5
109
100
AcDbEntity
  8
Layer_1
 62
7
100
AcDbPolyline
 90
10
 70
1
 10
2.301829
 20
7.054544
 30
0.0
 10
3.447199
 20
6.491257
 30
0.0
 10
3.449790
 20
6.487234
 30
0.0
 10
3.526960
 20
5.707264
 30
0.0
 10
2.856627
 20
4.782049
 30
0.0
 10
2.525512
 20
4.768214
 30
0.0
 10
1.457257
 20
5.028553
 30
0.0
 10
1.496559
 20
5.838343
 30
0.0
 10
2.301829
 20
7.054544
 30
0.0
 10
2.301829
 20
7.054544
 30
0.0
  0
LWPOLYLINE
  5
10a
100
AcDbEntity
  8
Layer_1
 62
7
100
AcDbPolyline
 90
7
 70
1
 10
5.068268
 20
7.025550
 30
0.0
 10
5.386430
 20
5.778867
 30
0.0
 10
5.025494
 20
5.547467
 30
0.0
 10
4.584412
 20
5.667025
 30
0.0
 10
4.269447
 20
6.577082
 30
0.0
 10
5.068268
 20
7.025550
 30
0.0
 10
5.068268
 20
7.025550
 30
0.0
  0
LWPOLYLINE
  5
10b
100
AcDbEntity
  8
Layer_1
 62
7
100
AcDbPolyline
 90
6
 70
1
 10
4.215869
 20
6.559333
 30
0.0
 10
4.522179
 20
5.674191
 30
0.0
 10
3.581806
 20
5.726281
 30
0.0
 10
3.507999
 20
6.472240
 30
0.0
 10
4.215869
 20
6.559333
 30
0.0
 10
4.215869
 20
6.559333
 30
0.0
  0
LWPOLYLINE
  5
10c
100
AcDbEntity
  8
Layer_1
 62
7
100
AcDbPolyline
 90
6
 70
1
 10
7.239836
 20
6.347225
 30
0.0
 10
8.423461
 20
5.725068
 30
0.0
 10
6.960425
 20
4.836234
 30
0.0
 10
6.452260
 20
5.706988
 30
0.0
 10
7.239836
 20
6.347225
 30
0.0
 10
7.239836
 20
6.347225
 30
0.0
  0
LWPOLYLINE
  5
10d
100
AcDbEntity
  8
Layer_1
 62
7
100
AcDbPolyline
 90
8
 70
1
 10
5.424078
 20
5.735982
 30
0.0
 10
6.034879
 20
5.597021
 30
0.0
 10
5.963387
 20
3.735898
 30
0.0
 10
5.417408
 20
3.823596
 30
0.0
 10
4.662023
 20
4.231275
 30
0.0
 10
5.054047
 20
5.498739
 30
0.0
 10
5.424078
 20
5.735982
 30
0.0
 10
5.424078
 20
5.735982
 30
0.0
  0
LWPOLYLINE
  5
10e
100
AcDbEntity
  8
Layer_1
 62
7
100
AcDbPolyline
 90
8
 70
1
 10
8.482606
 20
5.694972
 30
0.0
 10
9.898237
 20
5.045365
 30
0.0
 10
9.945090
 20
5.001433
 30
0.0
 10
7.891758
 20
4.244945
 30
0.0
 10
7.215472
 20
4.182547
 30
0.0
 10
6.985285
 20
4.785357
 30
0.0
 10
8.482606
 20
5.694972
 30
0.0
 10
8.482606
 20
5.694972
 30
0.0
  0
LWPOLYLINE
  5
10f
100
AcDbEntity
  8
Layer_1
 62
7
100
AcDbPolyline
 90
8
 70
1
 10
6.402154
 20
5.680751
 30
0.0
 10
6.925037
 20
4.784915
 30
0.0
 10
7.162941
 20
4.161932
 30
0.0
 10
6.309991
 20
3.499261
 30
0.0
 10
6.019115
 20
3.716660
 30
0.0
 10
6.091434
 20
5.597462
 30
0.0
 10
6.402154
 20
5.680751
 30
0.0
 10
6.402154
 20
5.680751
 30
0.0
  0
LWPOLYLINE
  5
110
100
AcDbEntity
  8
Layer_1
 62
7
100
AcDbPolyline
 90
8
 70
1
 10
3.569900
 20
5.670388
 30
0.0
 10
4.558119
 20
5.615707
 30
0.0
 10
4.994516
 20
5.497361
 30
0.0
 10
4.605689
 20
4.240094
 30
0.0
 10
3.909338
 20
4.028152
 30
0.0
 10
2.910757
 20
4.760552
 30
0.0
 10
3.569900
 20
5.670388
 30
0.0
 10
3.569900
 20
5.670388
 30
0.0
  0
LWPOLYLINE
  5
111
100
AcDbEntity
  8
Layer_1
 62
7
100
AcDbPolyline
 90
5
 70
1
 10
9.894709
 20
5.124299
 30
0.0
 10
9.894213
 20
5.124129
 30
0.0
 10
9.894326
 20
5.124242
 30
0.0
 10
9.894712
 20
5.124299
 30
0.0
 10
9.894709
 20
5.124299
 30
0.0
  0
LWPOLYLINE
  5
112
100
AcDbEntity
  8
Layer_1
 62
7
100
AcDbPolyline
 90
7
 70
1
 10
1.433830
 20
4.976187
 30
0.0
 10
2.494754
 20
4.717612
 30
0.0
 10
2.517465
 20
2.868671
 30
0.0
 10
1.736999
 20
2.910343
 30
0.0
 10
1.110874
 20
4.744897
 30
0.0
 10
1.433830
 20
4.976187
 30
0.0
 10
1.433830
 20
4.976187
 30
0.0
  0
LWPOLYLINE
  5
113
100
AcDbEntity
  8
Layer_1
 62
7
100
AcDbPolyline
 90
8
 70
1
 10
2.862801
 20
4.725825
 30
0.0
 10
3.874060
 20
3.984110
 30
0.0
 10
3.656882
 20
2.139854
 30
0.0
 10
3.044812
 20
2.509113
 30
0.0
 10
2.574129
 20
2.853347
 30
0.0
 10
2.551254
 20
4.712817
 30
0.0
 10
2.862801
 20
4.725825
 30
0.0
 10
2.862801
 20
4.725825
 30
0.0
  0
LWPOLYLINE
  5
114
100
AcDbEntity
  8
Layer_1
 62
7
100
AcDbPolyline
 90
9
 70
1
 10
4.625257
 20
4.187012
 30
0.0
 10
5.369177
 20
3.785452
 30
0.0
 10
4.448758
 20
2.196519
 30
0.0
 10
3.919095
 20
1.946487
 30
0.0
 10
3.747336
 20
2.003704
 30
0.0
 10
3.708641
 20
2.097079
 30
0.0
 10
3.929898
 20
3.975456
 30
0.0
 10
4.625257
 20
4.187012
 30
0.0
 10
4.625257
 20
4.187012
 30
0.0
  0
LWPOLYLINE
  5
115
100
AcDbEntity
  8
Layer_1
 62
7
100
AcDbPolyline
 90
10
 70
1
 10
7.863701
 20
4.185635
 30
0.0
 10
7.542784
 20
2.377263
 30
0.0
 10
7.472835
 20
2.294636
 30
0.0
 10
6.632562
 20
2.411769
 30
0.0
 10
6.607978
 20
2.428140
 30
0.0
 10
6.533729
 20
2.520414
 30
0.0
 10
6.341521
 20
3.452298
 30
0.0
 10
7.207480
 20
4.125112
 30
0.0
 10
7.863701
 20
4.185635
 30
0.0
 10
7.863701
 20
4.185635
 30
0.0
  0
LWPOLYLINE
  5
116
100
AcDbEntity
  8
Layer_1
 62
7
100
AcDbPolyline
 90
7
 70
1
 10
5.422865
 20
3.765554
 30
0.0
 10
5.978986
 20
3.676202
 30
0.0
 10
6.284855
 20
3.447558
 30
0.0
 10
6.473867
 20
2.531162
 30
0.0
 10
4.523061
 20
2.212229
 30
0.0
 10
5.422865
 20
3.765554
 30
0.0
 10
5.422865
 20
3.765554
 30
0.0
  0
LWPOLYLINE
  5
117
100
AcDbEntity
  8
Layer_1
 62
7
100
AcDbPolyline
 90
6
 70
1
 10
9.408427
 20
3.683698
 30
0.0
 10
8.061367
 20
1.689622
 30
0.0
 10
7.522113
 20
2.265477
 30
0.0
 10
7.588590
 20
2.344025
 30
0.0
 10
9.408427
 20
3.683698
 30
0.0
 10
9.408427
 20
3.683698
 30
0.0
  0
LWPOLYLINE
  5
118
100
AcDbEntity
  8
Layer_1
 62
7
100
AcDbPolyline
 90
7
 70
1
 10
1.730770
 20
2.854119
 30
0.0
 10
2.536151
 20
2.811125
 30
0.0
 10
2.965933
 20
2.496877
 30
0.0
 10
1.180437
 20
1.983310
 30
0.0
 10
1.190744
 20
2.069960
 30
0.0
 10
1.730770
 20
2.854119
 30
0.0
 10
1.730770
 20
2.854119
 30
0.0
  0
LWPOLYLINE
  5
119
100
AcDbEntity
  8
Layer_1
 62
7
100
AcDbPolyline
 90
8
 70
1
 10
6.495806
 20
2.477529
 30
0.0
 10
6.551809
 20
2.407911
 30
0.0
 10
5.416802
 20
1.130469
 30
0.0
 10
4.783786
 20
0.887494
 30
0.0
 10
3.965342
 20
1.905919
 30
0.0
 10
4.477145
 20
2.147462
 30
0.0
 10
6.495806
 20
2.477529
 30
0.0
 10
6.495806
 20
2.477529
 30
0.0
  0
LWPOLYLINE
  5
11a
100
AcDbEntity
  8
Layer_1
 62
7
100
AcDbPolyline
 90
10
 70
1
 10
3.025079
 20
2.455150
 30
0.0
 10
3.657213
 20
2.073819
 30
0.0
 10
3.692600
 20
1.988215
 30
0.0
 10
3.272409
 20
1.593655
 30
0.0
 10
2.118164
 20
1.106877
 30
0.0
 10
2.017622
 20
1.108641
 30
0.0
 10
1.122725
 20
1.682842
 30
0.0
 10
1.171562
 20
1.922070
 30
0.0
 10
3.025079
 20
2.455150
 30
0.0
 10
3.025079
 20
2.455150
 30
0.0
  0
LWPOLYLINE
  5
11b
100
AcDbEntity
  8
Layer_1
 62
7
100
AcDbPolyline
 90
6
 70
1
 10
6.593536
 20
2.369932
 30
0.0
 10
6.593976
 20
2.369602
 30
0.0
 10
6.591496
 20
0.706530
 30
0.0
 10
5.481844
 20
1.118619
 30
0.0
 10
6.593535
 20
2.369932
 30
0.0
 10
6.593536
 20
2.369932
 30
0.0
  0
LWPOLYLINE
  5
11c
100
AcDbEntity
  8
Layer_1
 62
7
100
AcDbPolyline
 90
10
 70
1
 10
6.650367
 20
2.352293
 30
0.0
 10
7.470575
 20
2.237971
 30
0.0
 10
8.043673
 20
1.625957
 30
0.0
 10
8.044334
 20
1.625240
 30
0.0
 10
8.081265
 20
1.583017
 30
0.0
 10
7.753402
 20
0.844774
 30
0.0
 10
6.810990
 20
0.248139
 30
0.0
 10
6.647885
 20
0.671086
 30
0.0
 10
6.650366
 20
2.352293
 30
0.0
 10
6.650367
 20
2.352293
 30
0.0
  0
LWPOLYLINE
  5
11d
100
AcDbEntity
  8
Layer_1
 62
7
100
AcDbPolyline
 90
6
 70
1
 10
8.131702
 20
1.557441
 30
0.0
 10
9.732597
 20
1.363468
 30
0.0
 10
8.303571
 20
0.241635
 30
0.0
 10
7.808690
 20
0.830167
 30
0.0
 10
8.131702
 20
1.557441
 30
0.0
 10
8.131702
 20
1.557441
 30
0.0
  0
ENDSEC
  0
SECTION
  2
OBJECTS
  0
DICTIONARY
  5
C
330
0
100
AcDbDictionary
  3
ACAD_GROUP
350
D
  3
ACAD_MLINESTYLE
350
17
  0
DICTIONARY
  5
D
330
C
100
AcDbDictionary
  0
DICTIONARY
  5
1A
330
C
100
AcDbDictionary
  0
DICTIONARY
  5
17
330
C
100
AcDbDictionary
  3
STANDARD
350
18
  0
DICTIONARY
  5
19
330
C
100
AcDbDictionary
  0
ENDSEC
  0
EOF
