  0
SECTION
  2
HEADER
  9
$ACADVER
  1
AC1014
  9
$HANDSEED
  5
FFFF
  9
$MEASUREMENT
 70
     1
  0
ENDSEC
  0
SECTION
  2
TABLES
  0
TABLE
  2
VPORT
  5
8
330
0
100
AcDbSymbolTable
 70
     4
  0
VPORT
  5
2E
330
8
100
AcDbSymbolTableRecord
100
AcDbViewportTableRecord
  2
*ACTIVE
 70
     0
 10
0.0
 20
0.0
 11
1.0
 21
1.0
 12
210.0
 22
148.5
 13
0.0
 23
0.0
 14
10.0
 24
10.0
 15
10.0
 25
10.0
 16
0.0
 26
0.0
 36
1.0
 17
0.0
 27
0.0
 37
0.0
 40
341.0
 41
1.24
 42
50.0
 43
0.0
 44
0.0
 50
0.0
 51
0.0
 71
     0
 72
   100
 73
     1
 74
     3
 75
     0
 76
     0
 77
     0
 78
     0
  0
ENDTAB
  0
TABLE
  2
LTYPE
  5
5
330
0
100
AcDbSymbolTable
 70
     1
  0
LTYPE
  5
14
330
5
100
AcDbSymbolTableRecord
100
AcDbLinetypeTableRecord
  2
BYBLOCK
 70
     0
  3

 72
    65
 73
     0
 40
0.0
  0
LTYPE
  5
15
330
5
100
AcDbSymbolTableRecord
100
AcDbLinetypeTableRecord
  2
BYLAYER
 70
     0
  3

 72
    65
 73
     0
 40
0.0
  0
LTYPE
  5
16
330
5
100
AcDbSymbolTableRecord
100
AcDbLinetypeTableRecord
  2
CONTINUOUS
 70
     0
  3
Solid line
 72
    65
 73
     0
 40
0.0
  0
ENDTAB
  0
TABLE
  2
LAYER
  5
2
100
AcDbSymbolTable
 70
2
  0
LAYER
  5
50
100
AcDbSymbolTableRecord
100
AcDbLayerTableRecord
  2
0
 70
0
  6
CONTINUOUS
  0
LAYER
  5
51
100
AcDbSymbolTableRecord
100
AcDbLayerTableRecord
  2
Layer_1
 70
0
  6
CONTINUOUS
  0
ENDTAB
  0
TABLE
  2
STYLE
  5
3
330
0
100
AcDbSymbolTable
 70
     1
  0
STYLE
  5
11
330
3
100
AcDbSymbolTableRecord
100
AcDbTextStyleTableRecord
  2
STANDARD
 70
     0
 40
0.0
 41
1.0
 50
0.0
 71
     0
 42
2.5
  3
txt
  4

  0
ENDTAB
  0
TABLE
  2
VIEW
  5
6
330
0
100
AcDbSymbolTable
 70
     0
  0
ENDTAB
  0
TABLE
  2
UCS
  5
7
330
0
100
AcDbSymbolTable
 70
     0
  0
ENDTAB
  0
TABLE
  2
APPID
  5
9
330
0
100
AcDbSymbolTable
 70
     2
  0
APPID
  5
12
330
9
100
AcDbSymbolTableRecord
100
AcDbRegAppTableRecord
  2
ACAD
 70
     0
  0
ENDTAB
  0
TABLE
  2
DIMSTYLE
  5
A
330
0
100
AcDbSymbolTable
 70
     1
  0
DIMSTYLE
105
27
330
A
100
AcDbSymbolTableRecord
100
AcDbDimStyleTableRecord
  2
ISO-25
 70
     0
  3

  4

  5

  6

  7

 40
1.0
 41
2.5
 42
0.625
 43
3.75
 44
1.25
 45
0.0
 46
0.0
 47
0.0
 48
0.0
140
2.5
141
2.5
142
0.0
143
0.03937007874016
144
1.0
145
0.0
146
1.0
147
0.625
 71
     0
 72
     0
 73
     0
 74
     0
 75
     0
 76
     0
 77
     1
 78
     8
170
     0
171
     3
172
     1
173
     0
174
     0
175
     0
176
     0
177
     0
178
     0
270
     2
271
     2
272
     2
273
     2
274
     3
340
11
275
     0
280
     0
281
     0
282
     0
283
     0
284
     8
285
     0
286
     0
287
     3
288
     0
  0
ENDTAB
  0
TABLE
  2
BLOCK_RECORD
  5
1
330
0
100
AcDbSymbolTable
 70
     1
  0
BLOCK_RECORD
  5
1F
330
1
100
AcDbSymbolTableRecord
100
AcDbBlockTableRecord
  2
*MODEL_SPACE
  0
BLOCK_RECORD
  5
1B
330
1
100
AcDbSymbolTableRecord
100
AcDbBlockTableRecord
  2
*PAPER_SPACE
  0
ENDTAB
  0
ENDSEC
  0
SECTION
  2
BLOCKS
  0
BLOCK
  5
20
330
1F
100
AcDbEntity
  8
0
100
AcDbBlockBegin
  2
*MODEL_SPACE
 70
     0
 10
0.0
 20
0.0
 30
0.0
  3
*MODEL_SPACE
  1

  0
ENDBLK
  5
21
330
1F
100
AcDbEntity
  8
0
100
AcDbBlockEnd
  0
BLOCK
  5
1C
330
1B
100
AcDbEntity
 67
     1
  8
0
100
AcDbBlockBegin
  2
*PAPER_SPACE
  1

  0
ENDBLK
  5
1D
330
1B
100
AcDbEntity
 67
     1
  8
0
100
AcDbBlockEnd
  0
ENDSEC
  0
SECTION
  2
ENTITIES
  0
LWPOLYLINE
  5
100
100
AcDbEntity
  8
Layer_1
 62
7
100
AcDbPolyline
 90
178
 70
0
 10
5.023577
 20
7.638403
 30
0.0
 10
4.941027
 20
7.632871
 30
0.0
 10
4.861979
 20
7.614539
 30
0.0
 10
4.787682
 20
7.584302
 30
0.0
 10
4.719384
 20
7.543052
 30
0.0
 10
4.658330
 20
7.491682
 30
0.0
 10
4.605771
 20
7.431087
 30
0.0
 10
4.562952
 20
7.362159
 30
0.0
 10
4.531121
 20
7.285791
 30
0.0
 10
4.531037
 20
7.285509
 30
0.0
 10
4.530811
 20
7.285509
 30
0.0
 10
4.427128
 20
6.966355
 30
0.0
 10
4.214144
 20
6.990805
 30
0.0
 10
3.999958
 20
6.999982
 30
0.0
 10
3.708973
 20
6.985425
 30
0.0
 10
3.422778
 20
6.943101
 30
0.0
 10
3.143236
 20
6.873771
 30
0.0
 10
2.872215
 20
6.778195
 30
0.0
 10
2.611578
 20
6.657133
 30
0.0
 10
2.363192
 20
6.511345
 30
0.0
 10
2.128921
 20
6.341591
 30
0.0
 10
1.910631
 20
6.148630
 30
0.0
 10
1.639214
 20
6.345854
 30
0.0
 10
1.638931
 20
6.346080
 30
0.0
 10
1.573687
 20
6.386372
 30
0.0
 10
1.503545
 20
6.416295
 30
0.0
 10
1.429727
 20
6.435433
 30
0.0
 10
1.353456
 20
6.443369
 30
0.0
 10
1.353456
 20
6.443454
 30
0.0
 10
1.229588
 20
6.431777
 30
0.0
 10
1.113819
 20
6.391246
 30
0.0
 10
1.011056
 20
6.324273
 30
0.0
 10
0.926210
 20
6.233275
 30
0.0
 10
0.874157
 20
6.143980
 30
0.0
 10
0.841916
 20
6.049011
 30
0.0
 10
0.829032
 20
5.951232
 30
0.0
 10
0.835053
 20
5.853511
 30
0.0
 10
0.859523
 20
5.758711
 30
0.0
 10
0.901990
 20
5.669699
 30
0.0
 10
0.962000
 20
5.589340
 30
0.0
 10
1.039098
 20
5.520500
 30
0.0
 10
1.039324
 20
5.520274
 30
0.0
 10
1.039239
 20
5.520161
 30
0.0
 10
1.309611
 20
5.323708
 30
0.0
 10
1.237995
 20
5.167454
 30
0.0
 10
1.175587
 20
5.007752
 30
0.0
 10
1.122484
 20
4.845011
 30
0.0
 10
1.078781
 20
4.679639
 30
0.0
 10
1.044574
 20
4.512046
 30
0.0
 10
1.019958
 20
4.342639
 30
0.0
 10
1.005029
 20
4.171827
 30
0.0
 10
0.999883
 20
4.000020
 30
0.0
 10
1.005276
 20
3.828304
 30
0.0
 10
1.020442
 20
3.657596
 30
0.0
 10
1.045283
 20
3.488305
 30
0.0
 10
1.079704
 20
3.320838
 30
0.0
 10
1.123609
 20
3.155604
 30
0.0
 10
1.176901
 20
2.993011
 30
0.0
 10
1.239485
 20
2.833467
 30
0.0
 10
1.311265
 20
2.677379
 30
0.0
 10
1.039295
 20
2.479768
 30
0.0
 10
1.038968
 20
2.479599
 30
0.0
 10
0.961858
 20
2.410756
 30
0.0
 10
0.901839
 20
2.330391
 30
0.0
 10
0.859367
 20
2.241371
 30
0.0
 10
0.834894
 20
2.146563
 30
0.0
 10
0.828875
 20
2.048832
 30
0.0
 10
0.841763
 20
1.951045
 30
0.0
 10
0.874013
 20
1.856068
 30
0.0
 10
0.926078
 20
1.766767
 30
0.0
 10
0.994922
 20
1.689657
 30
0.0
 10
1.075286
 20
1.629639
 30
0.0
 10
1.164306
 20
1.587167
 30
0.0
 10
1.259115
 20
1.562694
 30
0.0
 10
1.356846
 20
1.556675
 30
0.0
 10
1.454633
 20
1.569563
 30
0.0
 10
1.549610
 20
1.601813
 30
0.0
 10
1.638910
 20
1.653879
 30
0.0
 10
1.639079
 20
1.654104
 30
0.0
 10
1.639305
 20
1.654104
 30
0.0
 10
1.908298
 20
1.849565
 30
0.0
 10
2.126913
 20
1.656669
 30
0.0
 10
2.361508
 20
1.487027
 30
0.0
 10
2.610213
 20
1.341398
 30
0.0
 10
2.871158
 20
1.220542
 30
0.0
 10
3.142474
 20
1.125217
 30
0.0
 10
3.422289
 20
1.056185
 30
0.0
 10
3.708734
 20
1.014203
 30
0.0
 10
3.999940
 20
1.000032
 30
0.0
 10
4.214093
 20
1.009541
 30
0.0
 10
4.427021
 20
1.034318
 30
0.0
 10
4.530925
 20
0.714503
 30
0.0
 10
4.531038
 20
0.714173
 30
0.0
 10
4.572681
 20
0.619574
 30
0.0
 10
4.630560
 20
0.537668
 30
0.0
 10
4.702090
 20
0.469771
 30
0.0
 10
4.784686
 20
0.417201
 30
0.0
 10
4.875763
 20
0.381275
 30
0.0
 10
4.972736
 20
0.363309
 30
0.0
 10
5.073021
 20
0.364622
 30
0.0
 10
5.174031
 20
0.386530
 30
0.0
 10
5.268639
 20
0.428175
 30
0.0
 10
5.350553
 20
0.486059
 30
0.0
 10
5.418454
 20
0.557596
 30
0.0
 10
5.471027
 20
0.640200
 30
0.0
 10
5.506952
 20
0.731286
 30
0.0
 10
5.524913
 20
0.828268
 30
0.0
 10
5.523593
 20
0.928560
 30
0.0
 10
5.501674
 20
1.029578
 30
0.0
 10
5.501504
 20
1.029860
 30
0.0
 10
5.501504
 20
1.030086
 30
0.0
 10
5.398206
 20
1.347972
 30
0.0
 10
5.549646
 20
1.433412
 30
0.0
 10
5.695031
 20
1.526893
 30
0.0
 10
5.834112
 20
1.628075
 30
0.0
 10
5.966643
 20
1.736619
 30
0.0
 10
6.092377
 20
1.852184
 30
0.0
 10
6.211066
 20
1.974432
 30
0.0
 10
6.322464
 20
2.103022
 30
0.0
 10
6.426323
 20
2.237616
 30
0.0
 10
6.522397
 20
2.377873
 30
0.0
 10
6.610437
 20
2.523453
 30
0.0
 10
6.690199
 20
2.674018
 30
0.0
 10
6.761433
 20
2.829228
 30
0.0
 10
6.823894
 20
2.988742
 30
0.0
 10
6.877333
 20
3.152222
 30
0.0
 10
6.921505
 20
3.319327
 30
0.0
 10
6.956162
 20
3.489719
 30
0.0
 10
7.288765
 20
3.489719
 30
0.0
 10
7.289093
 20
3.489719
 30
0.0
 10
7.391937
 20
3.500090
 30
0.0
 10
7.487727
 20
3.529828
 30
0.0
 10
7.574409
 20
3.576879
 30
0.0
 10
7.649934
 20
3.639193
 30
0.0
 10
7.712247
 20
3.714717
 30
0.0
 10
7.759299
 20
3.801400
 30
0.0
 10
7.789037
 20
3.897190
 30
0.0
 10
7.799408
 20
4.000034
 30
0.0
 10
7.789037
 20
4.102878
 30
0.0
 10
7.759299
 20
4.198668
 30
0.0
 10
7.712247
 20
4.285351
 30
0.0
 10
7.649934
 20
4.360875
 30
0.0
 10
7.574409
 20
4.423189
 30
0.0
 10
7.487727
 20
4.470240
 30
0.0
 10
7.391937
 20
4.499978
 30
0.0
 10
7.289093
 20
4.510349
 30
0.0
 10
7.288765
 20
4.510349
 30
0.0
 10
6.953075
 20
4.510349
 30
0.0
 10
6.918552
 20
4.680634
 30
0.0
 10
6.874526
 20
4.847645
 30
0.0
 10
6.821243
 20
5.011043
 30
0.0
 10
6.758950
 20
5.170488
 30
0.0
 10
6.687892
 20
5.325642
 30
0.0
 10
6.608316
 20
5.476165
 30
0.0
 10
6.520467
 20
5.621718
 30
0.0
 10
6.424593
 20
5.761963
 30
0.0
 10
6.320939
 20
5.896560
 30
0.0
 10
6.209751
 20
6.025170
 30
0.0
 10
6.091276
 20
6.147454
 30
0.0
 10
5.965760
 20
6.263072
 30
0.0
 10
5.833449
 20
6.371686
 30
0.0
 10
5.694589
 20
6.472957
 30
0.0
 10
5.549426
 20
6.566545
 30
0.0
 10
5.398207
 20
6.652111
 30
0.0
 10
5.501505
 20
6.970107
 30
0.0
 10
5.501618
 20
6.970435
 30
0.0
 10
5.523526
 20
7.071445
 30
0.0
 10
5.524839
 20
7.171729
 30
0.0
 10
5.506873
 20
7.268702
 30
0.0
 10
5.470947
 20
7.359778
 30
0.0
 10
5.418377
 20
7.442374
 30
0.0
 10
5.350480
 20
7.513904
 30
0.0
 10
5.268574
 20
7.571783
 30
0.0
 10
5.173975
 20
7.613427
 30
0.0
 10
5.099700
 20
7.631562
 30
0.0
 10
5.023549
 20
7.638397
 30
0.0
 10
5.023464
 20
7.638397
 30
0.0
 10
5.023577
 20
7.638403
 30
0.0
  0
LWPOLYLINE
  5
101
100
AcDbEntity
  8
Layer_1
 62
7
100
AcDbPolyline
 90
66
 70
0
 10
4.000025
 20
6.600024
 30
0.0
 10
4.257003
 20
6.587299
 30
0.0
 10
4.509628
 20
6.549599
 30
0.0
 10
4.756195
 20
6.487631
 30
0.0
 10
4.995000
 20
6.402100
 30
0.0
 10
5.224337
 20
6.293714
 30
0.0
 10
5.442502
 20
6.163178
 30
0.0
 10
5.647789
 20
6.011199
 30
0.0
 10
5.838495
 20
5.838482
 30
0.0
 10
6.011207
 20
5.647773
 30
0.0
 10
6.163182
 20
5.442483
 30
0.0
 10
6.293714
 20
5.224315
 30
0.0
 10
6.402095
 20
4.994976
 30
0.0
 10
6.487620
 20
4.756169
 30
0.0
 10
6.549583
 20
4.509601
 30
0.0
 10
6.587278
 20
4.256975
 30
0.0
 10
6.599998
 20
3.999997
 30
0.0
 10
6.586572
 20
3.734166
 30
0.0
 10
6.547171
 20
3.476014
 30
0.0
 10
6.483102
 20
3.226848
 30
0.0
 10
6.395672
 20
2.987975
 30
0.0
 10
6.286187
 20
2.760701
 30
0.0
 10
6.155955
 20
2.546334
 30
0.0
 10
6.006282
 20
2.346180
 30
0.0
 10
5.838475
 20
2.161547
 30
0.0
 10
5.653842
 20
1.993740
 30
0.0
 10
5.453688
 20
1.844067
 30
0.0
 10
5.239321
 20
1.713835
 30
0.0
 10
5.012047
 20
1.604350
 30
0.0
 10
4.773174
 20
1.516920
 30
0.0
 10
4.524008
 20
1.452851
 30
0.0
 10
4.265856
 20
1.413450
 30
0.0
 10
4.000025
 20
1.400024
 30
0.0
 10
3.734190
 20
1.413445
 30
0.0
 10
3.476034
 20
1.452842
 30
0.0
 10
3.226864
 20
1.516907
 30
0.0
 10
2.987986
 20
1.604335
 30
0.0
 10
2.760708
 20
1.713817
 30
0.0
 10
2.546336
 20
1.844048
 30
0.0
 10
2.346178
 20
1.993721
 30
0.0
 10
2.161540
 20
2.161527
 30
0.0
 10
1.993729
 20
2.346162
 30
0.0
 10
1.844053
 20
2.546317
 30
0.0
 10
1.713817
 20
2.760686
 30
0.0
 10
1.604330
 20
2.987962
 30
0.0
 10
1.516897
 20
3.226838
 30
0.0
 10
1.452827
 20
3.476007
 30
0.0
 10
1.413425
 20
3.734162
 30
0.0
 10
1.399998
 20
3.999997
 30
0.0
 10
1.412719
 20
4.256978
 30
0.0
 10
1.450414
 20
4.509607
 30
0.0
 10
1.512379
 20
4.756179
 30
0.0
 10
1.597906
 20
4.994988
 30
0.0
 10
1.706290
 20
5.224330
 30
0.0
 10
1.836825
 20
5.442500
 30
0.0
 10
1.988804
 20
5.647792
 30
0.0
 10
2.161521
 20
5.838502
 30
0.0
 10
2.352230
 20
6.011218
 30
0.0
 10
2.557523
 20
6.163197
 30
0.0
 10
2.775692
 20
6.293732
 30
0.0
 10
3.005034
 20
6.402116
 30
0.0
 10
3.243843
 20
6.487643
 30
0.0
 10
3.490415
 20
6.549608
 30
0.0
 10
3.743044
 20
6.587304
 30
0.0
 10
4.000025
 20
6.600024
 30
0.0
 10
4.000025
 20
6.600024
 30
0.0
  0
LWPOLYLINE
  5
102
100
AcDbEntity
  8
Layer_1
 62
7
100
AcDbPolyline
 90
8
 70
1
 10
9.000000
 20
8.000000
 30
0.0
 10
9.000000
 20
6.999985
 30
0.0
 10
8.971668
 20
6.999985
 30
0.0
 10
8.971668
 20
7.971614
 30
0.0
 10
7.999984
 20
7.971614
 30
0.0
 10
7.999984
 20
8.000000
 30
0.0
 10
9.000000
 20
8.000000
 30
0.0
 10
9.000000
 20
8.000000
 30
0.0
  0
LWPOLYLINE
  5
103
100
AcDbEntity
  8
Layer_1
 62
7
100
AcDbPolyline
 90
9
 70
1
 10
1.000015
 20
8.000000
 30
0.0
 10
1.000015
 20
7.971614
 30
0.0
 10
0.028332
 20
7.971614
 30
0.0
 10
0.028332
 20
6.999985
 30
0.0
 10
0.000000
 20
6.999985
 30
0.0
 10
0.000000
 20
7.985779
 30
0.0
 10
0.000000
 20
8.000000
 30
0.0
 10
1.000015
 20
8.000000
 30
0.0
 10
1.000015
 20
8.000000
 30
0.0
  0
LWPOLYLINE
  5
104
100
AcDbEntity
  8
Layer_1
 62
7
100
AcDbPolyline
 90
8
 70
1
 10
8.999990
 20
0.799978
 30
0.0
 10
8.999990
 20
-0.000000
 30
0.0
 10
7.999977
 20
-0.000000
 30
0.0
 10
7.999977
 20
0.028332
 30
0.0
 10
8.971658
 20
0.028332
 30
0.0
 10
8.971658
 20
0.799978
 30
0.0
 10
8.999990
 20
0.799978
 30
0.0
 10
8.999990
 20
0.799978
 30
0.0
  0
LWPOLYLINE
  5
105
100
AcDbEntity
  8
Layer_1
 62
7
100
AcDbPolyline
 90
8
 70
1
 10
0.028332
 20
0.799978
 30
0.0
 10
0.028332
 20
0.028332
 30
0.0
 10
1.000015
 20
0.028332
 30
0.0
 10
1.000015
 20
-0.000000
 30
0.0
 10
0.000000
 20
-0.000000
 30
0.0
 10
0.000000
 20
0.799978
 30
0.0
 10
0.028332
 20
0.799978
 30
0.0
 10
0.028332
 20
0.799978
 30
0.0
  0
ENDSEC
  0
SECTION
  2
OBJECTS
  0
DICTIONARY
  5
C
330
0
100
AcDbDictionary
  3
ACAD_GROUP
350
D
  3
ACAD_MLINESTYLE
350
17
  0
DICTIONARY
  5
D
330
C
100
AcDbDictionary
  0
DICTIONARY
  5
1A
330
C
100
AcDbDictionary
  0
DICTIONARY
  5
17
330
C
100
AcDbDictionary
  3
STANDARD
350
18
  0
DICTIONARY
  5
19
330
C
100
AcDbDictionary
  0
ENDSEC
  0
EOF
