  0
SECTION
  2
HEADER
  9
$ACADVER
  1
AC1014
  9
$HANDSEED
  5
FFFF
  9
$MEASUREMENT
 70
     1
  0
ENDSEC
  0
SECTION
  2
TABLES
  0
TABLE
  2
VPORT
  5
8
330
0
100
AcDbSymbolTable
 70
     4
  0
VPORT
  5
2E
330
8
100
AcDbSymbolTableRecord
100
AcDbViewportTableRecord
  2
*ACTIVE
 70
     0
 10
0.0
 20
0.0
 11
1.0
 21
1.0
 12
210.0
 22
148.5
 13
0.0
 23
0.0
 14
10.0
 24
10.0
 15
10.0
 25
10.0
 16
0.0
 26
0.0
 36
1.0
 17
0.0
 27
0.0
 37
0.0
 40
341.0
 41
1.24
 42
50.0
 43
0.0
 44
0.0
 50
0.0
 51
0.0
 71
     0
 72
   100
 73
     1
 74
     3
 75
     0
 76
     0
 77
     0
 78
     0
  0
ENDTAB
  0
TABLE
  2
LTYPE
  5
5
330
0
100
AcDbSymbolTable
 70
     1
  0
LTYPE
  5
14
330
5
100
AcDbSymbolTableRecord
100
AcDbLinetypeTableRecord
  2
BYBLOCK
 70
     0
  3

 72
    65
 73
     0
 40
0.0
  0
LTYPE
  5
15
330
5
100
AcDbSymbolTableRecord
100
AcDbLinetypeTableRecord
  2
BYLAYER
 70
     0
  3

 72
    65
 73
     0
 40
0.0
  0
LTYPE
  5
16
330
5
100
AcDbSymbolTableRecord
100
AcDbLinetypeTableRecord
  2
CONTINUOUS
 70
     0
  3
Solid line
 72
    65
 73
     0
 40
0.0
  0
ENDTAB
  0
TABLE
  2
LAYER
  5
2
100
AcDbSymbolTable
 70
2
  0
LAYER
  5
50
100
AcDbSymbolTableRecord
100
AcDbLayerTableRecord
  2
0
 70
0
  6
CONTINUOUS
  0
LAYER
  5
51
100
AcDbSymbolTableRecord
100
AcDbLayerTableRecord
  2
Layer_1
 70
0
  6
CONTINUOUS
  0
ENDTAB
  0
TABLE
  2
STYLE
  5
3
330
0
100
AcDbSymbolTable
 70
     1
  0
STYLE
  5
11
330
3
100
AcDbSymbolTableRecord
100
AcDbTextStyleTableRecord
  2
STANDARD
 70
     0
 40
0.0
 41
1.0
 50
0.0
 71
     0
 42
2.5
  3
txt
  4

  0
ENDTAB
  0
TABLE
  2
VIEW
  5
6
330
0
100
AcDbSymbolTable
 70
     0
  0
ENDTAB
  0
TABLE
  2
UCS
  5
7
330
0
100
AcDbSymbolTable
 70
     0
  0
ENDTAB
  0
TABLE
  2
APPID
  5
9
330
0
100
AcDbSymbolTable
 70
     2
  0
APPID
  5
12
330
9
100
AcDbSymbolTableRecord
100
AcDbRegAppTableRecord
  2
ACAD
 70
     0
  0
ENDTAB
  0
TABLE
  2
DIMSTYLE
  5
A
330
0
100
AcDbSymbolTable
 70
     1
  0
DIMSTYLE
105
27
330
A
100
AcDbSymbolTableRecord
100
AcDbDimStyleTableRecord
  2
ISO-25
 70
     0
  3

  4

  5

  6

  7

 40
1.0
 41
2.5
 42
0.625
 43
3.75
 44
1.25
 45
0.0
 46
0.0
 47
0.0
 48
0.0
140
2.5
141
2.5
142
0.0
143
0.03937007874016
144
1.0
145
0.0
146
1.0
147
0.625
 71
     0
 72
     0
 73
     0
 74
     0
 75
     0
 76
     0
 77
     1
 78
     8
170
     0
171
     3
172
     1
173
     0
174
     0
175
     0
176
     0
177
     0
178
     0
270
     2
271
     2
272
     2
273
     2
274
     3
340
11
275
     0
280
     0
281
     0
282
     0
283
     0
284
     8
285
     0
286
     0
287
     3
288
     0
  0
ENDTAB
  0
TABLE
  2
BLOCK_RECORD
  5
1
330
0
100
AcDbSymbolTable
 70
     1
  0
BLOCK_RECORD
  5
1F
330
1
100
AcDbSymbolTableRecord
100
AcDbBlockTableRecord
  2
*MODEL_SPACE
  0
BLOCK_RECORD
  5
1B
330
1
100
AcDbSymbolTableRecord
100
AcDbBlockTableRecord
  2
*PAPER_SPACE
  0
ENDTAB
  0
ENDSEC
  0
SECTION
  2
BLOCKS
  0
BLOCK
  5
20
330
1F
100
AcDbEntity
  8
0
100
AcDbBlockBegin
  2
*MODEL_SPACE
 70
     0
 10
0.0
 20
0.0
 30
0.0
  3
*MODEL_SPACE
  1

  0
ENDBLK
  5
21
330
1F
100
AcDbEntity
  8
0
100
AcDbBlockEnd
  0
BLOCK
  5
1C
330
1B
100
AcDbEntity
 67
     1
  8
0
100
AcDbBlockBegin
  2
*PAPER_SPACE
  1

  0
ENDBLK
  5
1D
330
1B
100
AcDbEntity
 67
     1
  8
0
100
AcDbBlockEnd
  0
ENDSEC
  0
SECTION
  2
ENTITIES
  0
LWPOLYLINE
  5
100
100
AcDbEntity
  8
Layer_1
 62
7
100
AcDbPolyline
 90
1109
 70
0
 10
3.966655
 20
6.973614
 30
0.0
 10
3.963899
 20
6.966724
 30
0.0
 10
3.953371
 20
6.939053
 30
0.0
 10
3.945434
 20
6.911327
 30
0.0
 10
3.942016
 20
6.883766
 30
0.0
 10
3.935953
 20
6.869821
 30
0.0
 10
3.929338
 20
6.862765
 30
0.0
 10
3.845829
 20
6.859513
 30
0.0
 10
3.838608
 20
6.866017
 30
0.0
 10
3.831497
 20
6.879357
 30
0.0
 10
3.825875
 20
6.906642
 30
0.0
 10
3.815788
 20
6.933651
 30
0.0
 10
3.803165
 20
6.960385
 30
0.0
 10
3.799858
 20
6.967110
 30
0.0
 10
3.733436
 20
6.961818
 30
0.0
 10
3.731231
 20
6.954763
 30
0.0
 10
3.722963
 20
6.926320
 30
0.0
 10
3.717175
 20
6.898098
 30
0.0
 10
3.715963
 20
6.870317
 30
0.0
 10
3.711057
 20
6.855930
 30
0.0
 10
3.704883
 20
6.848433
 30
0.0
 10
3.621925
 20
6.838622
 30
0.0
 10
3.614208
 20
6.844520
 30
0.0
 10
3.606105
 20
6.857308
 30
0.0
 10
3.598388
 20
6.884042
 30
0.0
 10
3.586152
 20
6.910170
 30
0.0
 10
3.571489
 20
6.935801
 30
0.0
 10
3.567741
 20
6.942250
 30
0.0
 10
3.501871
 20
6.931832
 30
0.0
 10
3.500217
 20
6.924556
 30
0.0
 10
3.494209
 20
6.895562
 30
0.0
 10
3.490681
 20
6.867009
 30
0.0
 10
3.491618
 20
6.839173
 30
0.0
 10
3.487815
 20
6.824456
 30
0.0
 10
3.482358
 20
6.816518
 30
0.0
 10
3.400392
 20
6.800202
 30
0.0
 10
3.392234
 20
6.805494
 30
0.0
 10
3.383139
 20
6.817565
 30
0.0
 10
3.373382
 20
6.843638
 30
0.0
 10
3.359161
 20
6.868663
 30
0.0
 10
3.342514
 20
6.893137
 30
0.0
 10
3.338215
 20
6.899256
 30
0.0
 10
3.273392
 20
6.883711
 30
0.0
 10
3.272345
 20
6.876325
 30
0.0
 10
3.268596
 20
6.847000
 30
0.0
 10
3.267273
 20
6.818172
 30
0.0
 10
3.270415
 20
6.790556
 30
0.0
 10
3.267825
 20
6.775618
 30
0.0
 10
3.262974
 20
6.767184
 30
0.0
 10
3.182552
 20
6.744474
 30
0.0
 10
3.174008
 20
6.749160
 30
0.0
 10
3.163976
 20
6.760515
 30
0.0
 10
3.152235
 20
6.785705
 30
0.0
 10
3.136029
 20
6.809573
 30
0.0
 10
3.117508
 20
6.832669
 30
0.0
 10
3.112768
 20
6.838401
 30
0.0
 10
3.049323
 20
6.817786
 30
0.0
 10
3.048882
 20
6.810345
 30
0.0
 10
3.047504
 20
6.780799
 30
0.0
 10
3.048441
 20
6.751971
 30
0.0
 10
3.053677
 20
6.724686
 30
0.0
 10
3.052244
 20
6.709637
 30
0.0
 10
3.048110
 20
6.700818
 30
0.0
 10
2.969727
 20
6.671879
 30
0.0
 10
2.960853
 20
6.675848
 30
0.0
 10
2.949994
 20
6.686431
 30
0.0
 10
2.936269
 20
6.710630
 30
0.0
 10
2.918244
 20
6.733174
 30
0.0
 10
2.898014
 20
6.754727
 30
0.0
 10
2.892778
 20
6.760074
 30
0.0
 10
2.831207
 20
6.734552
 30
0.0
 10
2.831317
 20
6.727111
 30
0.0
 10
2.832254
 20
6.697511
 30
0.0
 10
2.835451
 20
6.668903
 30
0.0
 10
2.842838
 20
6.642003
 30
0.0
 10
2.842617
 20
6.626900
 30
0.0
 10
2.839145
 20
6.617860
 30
0.0
 10
2.763242
 20
6.582858
 30
0.0
 10
2.754092
 20
6.586055
 30
0.0
 10
2.742461
 20
6.595756
 30
0.0
 10
2.726862
 20
6.618797
 30
0.0
 10
2.707184
 20
6.639854
 30
0.0
 10
2.685245
 20
6.659752
 30
0.0
 10
2.679678
 20
6.664658
 30
0.0
 10
2.620257
 20
6.634397
 30
0.0
 10
2.620974
 20
6.627010
 30
0.0
 10
2.624226
 20
6.597575
 30
0.0
 10
2.629683
 20
6.569298
 30
0.0
 10
2.639109
 20
6.543115
 30
0.0
 10
2.640101
 20
6.528012
 30
0.0
 10
2.637345
 20
6.518696
 30
0.0
 10
2.564419
 20
6.477851
 30
0.0
 10
2.555048
 20
6.480387
 30
0.0
 10
2.542646
 20
6.489096
 30
0.0
 10
2.525283
 20
6.510869
 30
0.0
 10
2.504061
 20
6.530272
 30
0.0
 10
2.480634
 20
6.548407
 30
0.0
 10
2.474681
 20
6.552872
 30
0.0
 10
2.417851
 20
6.518035
 30
0.0
 10
2.419119
 20
6.510704
 30
0.0
 10
2.424686
 20
6.481600
 30
0.0
 10
2.432293
 20
6.453818
 30
0.0
 10
2.443813
 20
6.428518
 30
0.0
 10
2.445908
 20
6.413525
 30
0.0
 10
2.443923
 20
6.403989
 30
0.0
 10
2.374470
 20
6.357576
 30
0.0
 10
2.364879
 20
6.359340
 30
0.0
 10
2.351870
 20
6.367057
 30
0.0
 10
2.332853
 20
6.387397
 30
0.0
 10
2.310088
 20
6.405091
 30
0.0
 10
2.285394
 20
6.421352
 30
0.0
 10
2.279055
 20
6.425321
 30
0.0
 10
2.225146
 20
6.386129
 30
0.0
 10
2.227020
 20
6.378963
 30
0.0
 10
2.234792
 20
6.350410
 30
0.0
 10
2.244604
 20
6.323291
 30
0.0
 10
2.258053
 20
6.298927
 30
0.0
 10
2.261361
 20
6.284154
 30
0.0
 10
2.260093
 20
6.274508
 30
0.0
 10
2.194498
 20
6.222804
 30
0.0
 10
2.184797
 20
6.223796
 30
0.0
 10
2.171237
 20
6.230466
 30
0.0
 10
2.150677
 20
6.249262
 30
0.0
 10
2.126644
 20
6.265137
 30
0.0
 10
2.100681
 20
6.279359
 30
0.0
 10
2.094067
 20
6.282831
 30
0.0
 10
2.043410
 20
6.239561
 30
0.0
 10
2.045836
 20
6.232506
 30
0.0
 10
2.055813
 20
6.204614
 30
0.0
 10
2.067719
 20
6.178376
 30
0.0
 10
2.083043
 20
6.155170
 30
0.0
 10
2.087507
 20
6.140673
 30
0.0
 10
2.087011
 20
6.130972
 30
0.0
 10
2.025661
 20
6.074307
 30
0.0
 10
2.015960
 20
6.074527
 30
0.0
 10
2.001849
 20
6.080150
 30
0.0
 10
1.979910
 20
6.097237
 30
0.0
 10
1.954720
 20
6.111128
 30
0.0
 10
1.927710
 20
6.123310
 30
0.0
 10
1.920875
 20
6.126286
 30
0.0
 10
1.873746
 20
6.079157
 30
0.0
 10
1.876723
 20
6.072322
 30
0.0
 10
1.888849
 20
6.045313
 30
0.0
 10
1.902740
 20
6.020067
 30
0.0
 10
1.919883
 20
5.998129
 30
0.0
 10
1.925450
 20
5.984073
 30
0.0
 10
1.925726
 20
5.974316
 30
0.0
 10
1.869006
 20
5.912966
 30
0.0
 10
1.859304
 20
5.912470
 30
0.0
 10
1.844862
 20
5.916935
 30
0.0
 10
1.821601
 20
5.932259
 30
0.0
 10
1.795363
 20
5.944165
 30
0.0
 10
1.767472
 20
5.954142
 30
0.0
 10
1.760471
 20
5.956567
 30
0.0
 10
1.717146
 20
5.905910
 30
0.0
 10
1.720674
 20
5.899296
 30
0.0
 10
1.734895
 20
5.873334
 30
0.0
 10
1.750715
 20
5.849301
 30
0.0
 10
1.769511
 20
5.828740
 30
0.0
 10
1.776181
 20
5.815180
 30
0.0
 10
1.777173
 20
5.805479
 30
0.0
 10
1.725469
 20
5.739884
 30
0.0
 10
1.715823
 20
5.738617
 30
0.0
 10
1.701105
 20
5.741924
 30
0.0
 10
1.676687
 20
5.755429
 30
0.0
 10
1.649567
 20
5.765240
 30
0.0
 10
1.621069
 20
5.773012
 30
0.0
 10
1.613848
 20
5.774831
 30
0.0
 10
1.574657
 20
5.720923
 30
0.0
 10
1.578625
 20
5.714639
 30
0.0
 10
1.594886
 20
5.689889
 30
0.0
 10
1.612580
 20
5.667124
 30
0.0
 10
1.632920
 20
5.648107
 30
0.0
 10
1.640637
 20
5.635098
 30
0.0
 10
1.642401
 20
5.625507
 30
0.0
 10
1.595989
 20
5.556054
 30
0.0
 10
1.586453
 20
5.554070
 30
0.0
 10
1.571515
 20
5.556220
 30
0.0
 10
1.546159
 20
5.567685
 30
0.0
 10
1.518378
 20
5.575347
 30
0.0
 10
1.489273
 20
5.580859
 30
0.0
 10
1.481942
 20
5.582182
 30
0.0
 10
1.447105
 20
5.525351
 30
0.0
 10
1.451570
 20
5.519398
 30
0.0
 10
1.469705
 20
5.495917
 30
0.0
 10
1.489163
 20
5.474695
 30
0.0
 10
1.510881
 20
5.457331
 30
0.0
 10
1.519590
 20
5.444929
 30
0.0
 10
1.522126
 20
5.435558
 30
0.0
 10
1.481336
 20
5.362633
 30
0.0
 10
1.471965
 20
5.359932
 30
0.0
 10
1.456862
 20
5.360869
 30
0.0
 10
1.430734
 20
5.370350
 30
0.0
 10
1.402402
 20
5.375752
 30
0.0
 10
1.372967
 20
5.379059
 30
0.0
 10
1.365581
 20
5.379720
 30
0.0
 10
1.335319
 20
5.320299
 30
0.0
 10
1.340225
 20
5.314732
 30
0.0
 10
1.360124
 20
5.292794
 30
0.0
 10
1.381235
 20
5.273170
 30
0.0
 10
1.404276
 20
5.257516
 30
0.0
 10
1.413922
 20
5.245885
 30
0.0
 10
1.417119
 20
5.236735
 30
0.0
 10
1.382172
 20
5.160833
 30
0.0
 10
1.373077
 20
5.157415
 30
0.0
 10
1.357974
 20
5.157140
 30
0.0
 10
1.331130
 20
5.164526
 30
0.0
 10
1.302467
 20
5.167723
 30
0.0
 10
1.272866
 20
5.168715
 30
0.0
 10
1.265425
 20
5.168770
 30
0.0
 10
1.239959
 20
5.107200
 30
0.0
 10
1.245306
 20
5.101963
 30
0.0
 10
1.266858
 20
5.081733
 30
0.0
 10
1.289403
 20
5.063709
 30
0.0
 10
1.313546
 20
5.049983
 30
0.0
 10
1.324129
 20
5.039179
 30
0.0
 10
1.328098
 20
5.030305
 30
0.0
 10
1.299159
 20
4.951867
 30
0.0
 10
1.290395
 20
4.947733
 30
0.0
 10
1.275292
 20
4.946300
 30
0.0
 10
1.248007
 20
4.951536
 30
0.0
 10
1.219178
 20
4.952473
 30
0.0
 10
1.189633
 20
4.951095
 30
0.0
 10
1.182191
 20
4.950655
 30
0.0
 10
1.161576
 20
4.887210
 30
0.0
 10
1.167309
 20
4.882469
 30
0.0
 10
1.190405
 20
4.864003
 30
0.0
 10
1.214272
 20
4.847797
 30
0.0
 10
1.239463
 20
4.836057
 30
0.0
 10
1.250818
 20
4.825970
 30
0.0
 10
1.255503
 20
4.817426
 30
0.0
 10
1.232793
 20
4.737003
 30
0.0
 10
1.224359
 20
4.732153
 30
0.0
 10
1.209477
 20
4.729617
 30
0.0
 10
1.181806
 20
4.732704
 30
0.0
 10
1.153032
 20
4.731381
 30
0.0
 10
1.123652
 20
4.727633
 30
0.0
 10
1.116321
 20
4.726641
 30
0.0
 10
1.100722
 20
4.661818
 30
0.0
 10
1.106840
 20
4.657518
 30
0.0
 10
1.131314
 20
4.640816
 30
0.0
 10
1.156339
 20
4.626595
 30
0.0
 10
1.182412
 20
4.616838
 30
0.0
 10
1.194484
 20
4.607744
 30
0.0
 10
1.199775
 20
4.599641
 30
0.0
 10
1.183514
 20
4.517675
 30
0.0
 10
1.175522
 20
4.512163
 30
0.0
 10
1.160859
 20
4.508359
 30
0.0
 10
1.132968
 20
4.509352
 30
0.0
 10
1.104415
 20
4.505768
 30
0.0
 10
1.075421
 20
4.499760
 30
0.0
 10
1.068200
 20
4.498107
 30
0.0
 10
1.057727
 20
4.432292
 30
0.0
 10
1.064176
 20
4.428488
 30
0.0
 10
1.089808
 20
4.413826
 30
0.0
 10
1.115935
 20
4.401589
 30
0.0
 10
1.142724
 20
4.393872
 30
0.0
 10
1.155513
 20
4.385769
 30
0.0
 10
1.161411
 20
4.378052
 30
0.0
 10
1.151599
 20
4.295094
 30
0.0
 10
1.144047
 20
4.288975
 30
0.0
 10
1.129661
 20
4.284070
 30
0.0
 10
1.101879
 20
4.282802
 30
0.0
 10
1.073657
 20
4.277014
 30
0.0
 10
1.045214
 20
4.268746
 30
0.0
 10
1.038159
 20
4.266541
 30
0.0
 10
1.032922
 20
4.200120
 30
0.0
 10
1.039592
 20
4.196867
 30
0.0
 10
1.066326
 20
4.184189
 30
0.0
 10
1.093336
 20
4.174102
 30
0.0
 10
1.120621
 20
4.168480
 30
0.0
 10
1.133960
 20
4.161424
 30
0.0
 10
1.140464
 20
4.154148
 30
0.0
 10
1.137212
 20
4.070694
 30
0.0
 10
1.130157
 20
4.064025
 30
0.0
 10
1.116266
 20
4.058016
 30
0.0
 10
1.088650
 20
4.054599
 30
0.0
 10
1.060924
 20
4.046606
 30
0.0
 10
1.033253
 20
4.036078
 30
0.0
 10
1.026363
 20
4.033377
 30
0.0
 10
1.026363
 20
3.966735
 30
0.0
 10
1.033253
 20
3.963924
 30
0.0
 10
1.060924
 20
3.953506
 30
0.0
 10
1.088650
 20
3.945513
 30
0.0
 10
1.116266
 20
3.942041
 30
0.0
 10
1.130157
 20
3.936032
 30
0.0
 10
1.137212
 20
3.929363
 30
0.0
 10
1.140464
 20
3.845854
 30
0.0
 10
1.133960
 20
3.838688
 30
0.0
 10
1.120621
 20
3.831577
 30
0.0
 10
1.093336
 20
3.825955
 30
0.0
 10
1.066326
 20
3.815812
 30
0.0
 10
1.039592
 20
3.803245
 30
0.0
 10
1.032922
 20
3.799937
 30
0.0
 10
1.038159
 20
3.733516
 30
0.0
 10
1.045214
 20
3.731256
 30
0.0
 10
1.073657
 20
3.722988
 30
0.0
 10
1.101879
 20
3.717200
 30
0.0
 10
1.129661
 20
3.715987
 30
0.0
 10
1.144047
 20
3.711081
 30
0.0
 10
1.151599
 20
3.704963
 30
0.0
 10
1.161411
 20
3.621950
 30
0.0
 10
1.155513
 20
3.614288
 30
0.0
 10
1.142724
 20
3.606185
 30
0.0
 10
1.115935
 20
3.598468
 30
0.0
 10
1.089808
 20
3.586231
 30
0.0
 10
1.064176
 20
3.571569
 30
0.0
 10
1.057727
 20
3.567766
 30
0.0
 10
1.068200
 20
3.501950
 30
0.0
 10
1.075421
 20
3.500297
 30
0.0
 10
1.104415
 20
3.494289
 30
0.0
 10
1.132968
 20
3.490761
 30
0.0
 10
1.160859
 20
3.491643
 30
0.0
 10
1.175522
 20
3.487894
 30
0.0
 10
1.183514
 20
3.482437
 30
0.0
 10
1.199775
 20
3.400472
 30
0.0
 10
1.194484
 20
3.392259
 30
0.0
 10
1.182412
 20
3.383219
 30
0.0
 10
1.156339
 20
3.373462
 30
0.0
 10
1.131314
 20
3.359186
 30
0.0
 10
1.106840
 20
3.342539
 30
0.0
 10
1.100722
 20
3.338295
 30
0.0
 10
1.116321
 20
3.273472
 30
0.0
 10
1.123652
 20
3.272369
 30
0.0
 10
1.153032
 20
3.268676
 30
0.0
 10
1.181806
 20
3.267353
 30
0.0
 10
1.209477
 20
3.270495
 30
0.0
 10
1.224359
 20
3.267849
 30
0.0
 10
1.232793
 20
3.262999
 30
0.0
 10
1.255503
 20
3.182576
 30
0.0
 10
1.250818
 20
3.174032
 30
0.0
 10
1.239463
 20
3.164055
 30
0.0
 10
1.214272
 20
3.152259
 30
0.0
 10
1.190405
 20
3.136109
 30
0.0
 10
1.167309
 20
3.117588
 30
0.0
 10
1.161576
 20
3.112847
 30
0.0
 10
1.182191
 20
3.049403
 30
0.0
 10
1.189633
 20
3.048962
 30
0.0
 10
1.219178
 20
3.047528
 30
0.0
 10
1.248007
 20
3.048521
 30
0.0
 10
1.275292
 20
3.053757
 30
0.0
 10
1.290395
 20
3.052324
 30
0.0
 10
1.299159
 20
3.048190
 30
0.0
 10
1.328098
 20
2.969807
 30
0.0
 10
1.324129
 20
2.960933
 30
0.0
 10
1.313546
 20
2.950018
 30
0.0
 10
1.289403
 20
2.936293
 30
0.0
 10
1.266858
 20
2.918324
 30
0.0
 10
1.245306
 20
2.898039
 30
0.0
 10
1.239959
 20
2.892857
 30
0.0
 10
1.265425
 20
2.831287
 30
0.0
 10
1.272866
 20
2.831397
 30
0.0
 10
1.302467
 20
2.832334
 30
0.0
 10
1.331130
 20
2.835476
 30
0.0
 10
1.357974
 20
2.842917
 30
0.0
 10
1.373077
 20
2.842697
 30
0.0
 10
1.382172
 20
2.839224
 30
0.0
 10
1.417119
 20
2.763322
 30
0.0
 10
1.413922
 20
2.754172
 30
0.0
 10
1.404276
 20
2.742486
 30
0.0
 10
1.381235
 20
2.726942
 30
0.0
 10
1.360124
 20
2.707208
 30
0.0
 10
1.340225
 20
2.685325
 30
0.0
 10
1.335319
 20
2.679758
 30
0.0
 10
1.365581
 20
2.620337
 30
0.0
 10
1.372967
 20
2.621053
 30
0.0
 10
1.402402
 20
2.624250
 30
0.0
 10
1.430734
 20
2.629707
 30
0.0
 10
1.456862
 20
2.639244
 30
0.0
 10
1.471965
 20
2.640180
 30
0.0
 10
1.481336
 20
2.637369
 30
0.0
 10
1.522126
 20
2.564499
 30
0.0
 10
1.519590
 20
2.555128
 30
0.0
 10
1.510881
 20
2.542725
 30
0.0
 10
1.489163
 20
2.525417
 30
0.0
 10
1.469705
 20
2.504085
 30
0.0
 10
1.451570
 20
2.480714
 30
0.0
 10
1.447105
 20
2.474761
 30
0.0
 10
1.481942
 20
2.417930
 30
0.0
 10
1.489273
 20
2.419143
 30
0.0
 10
1.518378
 20
2.424710
 30
0.0
 10
1.546159
 20
2.432372
 30
0.0
 10
1.571515
 20
2.443893
 30
0.0
 10
1.586453
 20
2.445987
 30
0.0
 10
1.595989
 20
2.443948
 30
0.0
 10
1.642401
 20
2.374495
 30
0.0
 10
1.640637
 20
2.365014
 30
0.0
 10
1.632920
 20
2.351950
 30
0.0
 10
1.612580
 20
2.332933
 30
0.0
 10
1.594886
 20
2.310168
 30
0.0
 10
1.578625
 20
2.285473
 30
0.0
 10
1.574657
 20
2.279134
 30
0.0
 10
1.613848
 20
2.225170
 30
0.0
 10
1.621069
 20
2.227100
 30
0.0
 10
1.649567
 20
2.234872
 30
0.0
 10
1.676687
 20
2.244684
 30
0.0
 10
1.701105
 20
2.258133
 30
0.0
 10
1.715823
 20
2.261441
 30
0.0
 10
1.725469
 20
2.260172
 30
0.0
 10
1.777173
 20
2.194578
 30
0.0
 10
1.776181
 20
2.184932
 30
0.0
 10
1.769511
 20
2.171261
 30
0.0
 10
1.750715
 20
2.150756
 30
0.0
 10
1.734895
 20
2.126668
 30
0.0
 10
1.720674
 20
2.100761
 30
0.0
 10
1.717146
 20
2.094202
 30
0.0
 10
1.760471
 20
2.043490
 30
0.0
 10
1.767472
 20
2.045860
 30
0.0
 10
1.795363
 20
2.055892
 30
0.0
 10
1.821601
 20
2.067799
 30
0.0
 10
1.844862
 20
2.083122
 30
0.0
 10
1.859304
 20
2.087587
 30
0.0
 10
1.869006
 20
2.087091
 30
0.0
 10
1.925726
 20
2.025741
 30
0.0
 10
1.925450
 20
2.016039
 30
0.0
 10
1.919883
 20
2.001928
 30
0.0
 10
1.902740
 20
1.979990
 30
0.0
 10
1.888849
 20
1.954744
 30
0.0
 10
1.876723
 20
1.927790
 30
0.0
 10
1.873746
 20
1.920955
 30
0.0
 10
1.920875
 20
1.873826
 30
0.0
 10
1.927710
 20
1.876747
 30
0.0
 10
1.954720
 20
1.888929
 30
0.0
 10
1.979910
 20
1.902875
 30
0.0
 10
2.001849
 20
1.919963
 30
0.0
 10
2.015960
 20
1.925530
 30
0.0
 10
2.025661
 20
1.925805
 30
0.0
 10
2.087011
 20
1.869030
 30
0.0
 10
2.087507
 20
1.859384
 30
0.0
 10
2.083043
 20
1.844887
 30
0.0
 10
2.067719
 20
1.821681
 30
0.0
 10
2.055813
 20
1.795388
 30
0.0
 10
2.045836
 20
1.767552
 30
0.0
 10
2.043410
 20
1.760551
 30
0.0
 10
2.094067
 20
1.717225
 30
0.0
 10
2.100681
 20
1.720698
 30
0.0
 10
2.126644
 20
1.734975
 30
0.0
 10
2.150677
 20
1.750795
 30
0.0
 10
2.171237
 20
1.769591
 30
0.0
 10
2.184797
 20
1.776261
 30
0.0
 10
2.194498
 20
1.777253
 30
0.0
 10
2.260093
 20
1.725549
 30
0.0
 10
2.261361
 20
1.715958
 30
0.0
 10
2.258053
 20
1.701130
 30
0.0
 10
2.244604
 20
1.676766
 30
0.0
 10
2.234792
 20
1.649702
 30
0.0
 10
2.227020
 20
1.621149
 30
0.0
 10
2.225146
 20
1.613873
 30
0.0
 10
2.279055
 20
1.574736
 30
0.0
 10
2.285394
 20
1.578705
 30
0.0
 10
2.310088
 20
1.594966
 30
0.0
 10
2.332853
 20
1.612660
 30
0.0
 10
2.351870
 20
1.633000
 30
0.0
 10
2.364879
 20
1.640717
 30
0.0
 10
2.374470
 20
1.642481
 30
0.0
 10
2.443923
 20
1.596068
 30
0.0
 10
2.445908
 20
1.586532
 30
0.0
 10
2.443813
 20
1.571595
 30
0.0
 10
2.432293
 20
1.546184
 30
0.0
 10
2.424686
 20
1.518457
 30
0.0
 10
2.419119
 20
1.489353
 30
0.0
 10
2.417851
 20
1.482022
 30
0.0
 10
2.474681
 20
1.447185
 30
0.0
 10
2.480634
 20
1.451650
 30
0.0
 10
2.504061
 20
1.469785
 30
0.0
 10
2.525283
 20
1.489243
 30
0.0
 10
2.542646
 20
1.510961
 30
0.0
 10
2.555048
 20
1.519725
 30
0.0
 10
2.564419
 20
1.522206
 30
0.0
 10
2.637345
 20
1.481416
 30
0.0
 10
2.640101
 20
1.472100
 30
0.0
 10
2.639109
 20
1.456942
 30
0.0
 10
2.629683
 20
1.430814
 30
0.0
 10
2.624226
 20
1.402482
 30
0.0
 10
2.620974
 20
1.373047
 30
0.0
 10
2.620257
 20
1.365660
 30
0.0
 10
2.679678
 20
1.335399
 30
0.0
 10
2.685245
 20
1.340304
 30
0.0
 10
2.707184
 20
1.360259
 30
0.0
 10
2.726862
 20
1.381260
 30
0.0
 10
2.742461
 20
1.404301
 30
0.0
 10
2.754092
 20
1.413947
 30
0.0
 10
2.763242
 20
1.417199
 30
0.0
 10
2.839145
 20
1.382252
 30
0.0
 10
2.842617
 20
1.373157
 30
0.0
 10
2.842838
 20
1.357999
 30
0.0
 10
2.835451
 20
1.331210
 30
0.0
 10
2.832254
 20
1.302546
 30
0.0
 10
2.831317
 20
1.272946
 30
0.0
 10
2.831207
 20
1.265560
 30
0.0
 10
2.892778
 20
1.240039
 30
0.0
 10
2.898014
 20
1.245385
 30
0.0
 10
2.918244
 20
1.266938
 30
0.0
 10
2.936269
 20
1.289482
 30
0.0
 10
2.949994
 20
1.313681
 30
0.0
 10
2.960853
 20
1.324209
 30
0.0
 10
2.969727
 20
1.328123
 30
0.0
 10
3.048110
 20
1.299239
 30
0.0
 10
3.052244
 20
1.290475
 30
0.0
 10
3.053677
 20
1.275371
 30
0.0
 10
3.048441
 20
1.248031
 30
0.0
 10
3.047504
 20
1.219258
 30
0.0
 10
3.048882
 20
1.189657
 30
0.0
 10
3.049323
 20
1.182216
 30
0.0
 10
3.112768
 20
1.161656
 30
0.0
 10
3.117508
 20
1.167388
 30
0.0
 10
3.136029
 20
1.190484
 30
0.0
 10
3.152235
 20
1.214352
 30
0.0
 10
3.163976
 20
1.239597
 30
0.0
 10
3.174008
 20
1.250898
 30
0.0
 10
3.182552
 20
1.255528
 30
0.0
 10
3.262974
 20
1.232873
 30
0.0
 10
3.267825
 20
1.224439
 30
0.0
 10
3.270415
 20
1.209556
 30
0.0
 10
3.267273
 20
1.181885
 30
0.0
 10
3.268596
 20
1.153112
 30
0.0
 10
3.272345
 20
1.123732
 30
0.0
 10
3.273392
 20
1.116346
 30
0.0
 10
3.338215
 20
1.100746
 30
0.0
 10
3.342514
 20
1.106865
 30
0.0
 10
3.359161
 20
1.131339
 30
0.0
 10
3.373382
 20
1.156419
 30
0.0
 10
3.383139
 20
1.182492
 30
0.0
 10
3.392234
 20
1.194563
 30
0.0
 10
3.400392
 20
1.199855
 30
0.0
 10
3.482358
 20
1.183594
 30
0.0
 10
3.487815
 20
1.175546
 30
0.0
 10
3.491618
 20
1.160884
 30
0.0
 10
3.490681
 20
1.133103
 30
0.0
 10
3.494209
 20
1.104495
 30
0.0
 10
3.500217
 20
1.075501
 30
0.0
 10
3.501871
 20
1.068225
 30
0.0
 10
3.567741
 20
1.057807
 30
0.0
 10
3.571489
 20
1.064201
 30
0.0
 10
3.586152
 20
1.089943
 30
0.0
 10
3.598388
 20
1.116015
 30
0.0
 10
3.606105
 20
1.142749
 30
0.0
 10
3.614208
 20
1.155537
 30
0.0
 10
3.621925
 20
1.161490
 30
0.0
 10
3.704883
 20
1.151679
 30
0.0
 10
3.711057
 20
1.144072
 30
0.0
 10
3.715963
 20
1.129740
 30
0.0
 10
3.717175
 20
1.101959
 30
0.0
 10
3.722963
 20
1.073737
 30
0.0
 10
3.731231
 20
1.045294
 30
0.0
 10
3.733436
 20
1.038184
 30
0.0
 10
3.799858
 20
1.033002
 30
0.0
 10
3.803165
 20
1.039617
 30
0.0
 10
3.815788
 20
1.066406
 30
0.0
 10
3.825875
 20
1.093360
 30
0.0
 10
3.831497
 20
1.120645
 30
0.0
 10
3.838608
 20
1.134095
 30
0.0
 10
3.845829
 20
1.140544
 30
0.0
 10
3.929338
 20
1.137292
 30
0.0
 10
3.935953
 20
1.130181
 30
0.0
 10
3.942016
 20
1.116346
 30
0.0
 10
3.945434
 20
1.088730
 30
0.0
 10
3.953371
 20
1.061004
 30
0.0
 10
3.963899
 20
1.033333
 30
0.0
 10
3.966655
 20
1.026388
 30
0.0
 10
4.033297
 20
1.026388
 30
0.0
 10
4.036054
 20
1.033333
 30
0.0
 10
4.046527
 20
1.061004
 30
0.0
 10
4.054464
 20
1.088730
 30
0.0
 10
4.057937
 20
1.116346
 30
0.0
 10
4.063945
 20
1.130181
 30
0.0
 10
4.070615
 20
1.137292
 30
0.0
 10
4.154124
 20
1.140544
 30
0.0
 10
4.161345
 20
1.134095
 30
0.0
 10
4.168400
 20
1.120645
 30
0.0
 10
4.174023
 20
1.093360
 30
0.0
 10
4.184165
 20
1.066406
 30
0.0
 10
4.196733
 20
1.039617
 30
0.0
 10
4.200040
 20
1.033002
 30
0.0
 10
4.266461
 20
1.038184
 30
0.0
 10
4.268721
 20
1.045294
 30
0.0
 10
4.276990
 20
1.073737
 30
0.0
 10
4.282777
 20
1.101959
 30
0.0
 10
4.284045
 20
1.129740
 30
0.0
 10
4.288951
 20
1.144072
 30
0.0
 10
4.295014
 20
1.151679
 30
0.0
 10
4.378027
 20
1.161490
 30
0.0
 10
4.385689
 20
1.155537
 30
0.0
 10
4.393847
 20
1.142749
 30
0.0
 10
4.401509
 20
1.116015
 30
0.0
 10
4.413746
 20
1.089943
 30
0.0
 10
4.428408
 20
1.064201
 30
0.0
 10
4.432212
 20
1.057807
 30
0.0
 10
4.498027
 20
1.068225
 30
0.0
 10
4.499681
 20
1.075501
 30
0.0
 10
4.505744
 20
1.104495
 30
0.0
 10
4.509217
 20
1.133103
 30
0.0
 10
4.508335
 20
1.160884
 30
0.0
 10
4.512138
 20
1.175546
 30
0.0
 10
4.517540
 20
1.183594
 30
0.0
 10
4.599506
 20
1.199855
 30
0.0
 10
4.607719
 20
1.194563
 30
0.0
 10
4.616759
 20
1.182492
 30
0.0
 10
4.626515
 20
1.156419
 30
0.0
 10
4.640792
 20
1.131339
 30
0.0
 10
4.657438
 20
1.106865
 30
0.0
 10
4.661738
 20
1.100746
 30
0.0
 10
4.726561
 20
1.116346
 30
0.0
 10
4.727608
 20
1.123732
 30
0.0
 10
4.731356
 20
1.153112
 30
0.0
 10
4.732624
 20
1.181885
 30
0.0
 10
4.729482
 20
1.209556
 30
0.0
 10
4.732128
 20
1.224439
 30
0.0
 10
4.736979
 20
1.232873
 30
0.0
 10
4.817401
 20
1.255528
 30
0.0
 10
4.825945
 20
1.250898
 30
0.0
 10
4.835977
 20
1.239597
 30
0.0
 10
4.847718
 20
1.214352
 30
0.0
 10
4.863924
 20
1.190484
 30
0.0
 10
4.882389
 20
1.167388
 30
0.0
 10
4.887130
 20
1.161656
 30
0.0
 10
4.950575
 20
1.182216
 30
0.0
 10
4.951016
 20
1.189657
 30
0.0
 10
4.952449
 20
1.219258
 30
0.0
 10
4.951457
 20
1.248031
 30
0.0
 10
4.946220
 20
1.275371
 30
0.0
 10
4.947653
 20
1.290475
 30
0.0
 10
4.951787
 20
1.299239
 30
0.0
 10
5.030225
 20
1.328123
 30
0.0
 10
5.039045
 20
1.324209
 30
0.0
 10
5.049959
 20
1.313681
 30
0.0
 10
5.063684
 20
1.289482
 30
0.0
 10
5.081709
 20
1.266938
 30
0.0
 10
5.101938
 20
1.245385
 30
0.0
 10
5.107120
 20
1.240039
 30
0.0
 10
5.168691
 20
1.265560
 30
0.0
 10
5.168580
 20
1.272946
 30
0.0
 10
5.167643
 20
1.302546
 30
0.0
 10
5.164501
 20
1.331210
 30
0.0
 10
5.157060
 20
1.357999
 30
0.0
 10
5.157280
 20
1.373157
 30
0.0
 10
5.160753
 20
1.382252
 30
0.0
 10
5.236655
 20
1.417199
 30
0.0
 10
5.245806
 20
1.413947
 30
0.0
 10
5.257491
 20
1.404301
 30
0.0
 10
5.273091
 20
1.381260
 30
0.0
 10
5.292769
 20
1.360259
 30
0.0
 10
5.314708
 20
1.340304
 30
0.0
 10
5.320220
 20
1.335399
 30
0.0
 10
5.379641
 20
1.365660
 30
0.0
 10
5.378979
 20
1.373047
 30
0.0
 10
5.375727
 20
1.402482
 30
0.0
 10
5.370270
 20
1.430814
 30
0.0
 10
5.360789
 20
1.456942
 30
0.0
 10
5.359852
 20
1.472100
 30
0.0
 10
5.362608
 20
1.481416
 30
0.0
 10
5.435479
 20
1.522206
 30
0.0
 10
5.444849
 20
1.519725
 30
0.0
 10
5.457252
 20
1.510961
 30
0.0
 10
5.474615
 20
1.489243
 30
0.0
 10
5.495892
 20
1.469785
 30
0.0
 10
5.519319
 20
1.451650
 30
0.0
 10
5.525217
 20
1.447185
 30
0.0
 10
5.582102
 20
1.482022
 30
0.0
 10
5.580834
 20
1.489353
 30
0.0
 10
5.575267
 20
1.518457
 30
0.0
 10
5.567605
 20
1.546184
 30
0.0
 10
5.556140
 20
1.571595
 30
0.0
 10
5.553990
 20
1.586532
 30
0.0
 10
5.556030
 20
1.596068
 30
0.0
 10
5.625483
 20
1.642481
 30
0.0
 10
5.635019
 20
1.640717
 30
0.0
 10
5.648027
 20
1.633000
 30
0.0
 10
5.667044
 20
1.612660
 30
0.0
 10
5.689809
 20
1.594966
 30
0.0
 10
5.714559
 20
1.578705
 30
0.0
 10
5.720843
 20
1.574736
 30
0.0
 10
5.774807
 20
1.613873
 30
0.0
 10
5.772933
 20
1.621149
 30
0.0
 10
5.765105
 20
1.649702
 30
0.0
 10
5.755294
 20
1.676766
 30
0.0
 10
5.741844
 20
1.701130
 30
0.0
 10
5.738592
 20
1.715958
 30
0.0
 10
5.739805
 20
1.725549
 30
0.0
 10
5.805399
 20
1.777253
 30
0.0
 10
5.815101
 20
1.776261
 30
0.0
 10
5.828716
 20
1.769591
 30
0.0
 10
5.849221
 20
1.750795
 30
0.0
 10
5.873309
 20
1.734975
 30
0.0
 10
5.899216
 20
1.720698
 30
0.0
 10
5.905831
 20
1.717225
 30
0.0
 10
5.956487
 20
1.760551
 30
0.0
 10
5.954117
 20
1.767552
 30
0.0
 10
5.944085
 20
1.795388
 30
0.0
 10
5.932179
 20
1.821681
 30
0.0
 10
5.916855
 20
1.844887
 30
0.0
 10
5.912390
 20
1.859384
 30
0.0
 10
5.912886
 20
1.869030
 30
0.0
 10
5.974237
 20
1.925805
 30
0.0
 10
5.983938
 20
1.925530
 30
0.0
 10
5.998049
 20
1.919963
 30
0.0
 10
6.019987
 20
1.902875
 30
0.0
 10
6.045233
 20
1.888929
 30
0.0
 10
6.072243
 20
1.876747
 30
0.0
 10
6.079078
 20
1.873826
 30
0.0
 10
6.126207
 20
1.920955
 30
0.0
 10
6.123285
 20
1.927790
 30
0.0
 10
6.111048
 20
1.954744
 30
0.0
 10
6.097158
 20
1.979990
 30
0.0
 10
6.080070
 20
2.001928
 30
0.0
 10
6.074448
 20
2.016039
 30
0.0
 10
6.074172
 20
2.025741
 30
0.0
 10
6.130947
 20
2.087091
 30
0.0
 10
6.140593
 20
2.087587
 30
0.0
 10
6.155145
 20
2.083122
 30
0.0
 10
6.178297
 20
2.067799
 30
0.0
 10
6.204590
 20
2.055892
 30
0.0
 10
6.232426
 20
2.045860
 30
0.0
 10
6.239481
 20
2.043490
 30
0.0
 10
6.282752
 20
2.094202
 30
0.0
 10
6.279279
 20
2.100761
 30
0.0
 10
6.265058
 20
2.126668
 30
0.0
 10
6.249183
 20
2.150756
 30
0.0
 10
6.230386
 20
2.171261
 30
0.0
 10
6.223772
 20
2.184932
 30
0.0
 10
6.222724
 20
2.194578
 30
0.0
 10
6.274429
 20
2.260172
 30
0.0
 10
6.284075
 20
2.261441
 30
0.0
 10
6.298902
 20
2.258133
 30
0.0
 10
6.323211
 20
2.244684
 30
0.0
 10
6.350331
 20
2.234872
 30
0.0
 10
6.378828
 20
2.227100
 30
0.0
 10
6.386105
 20
2.225170
 30
0.0
 10
6.425241
 20
2.279134
 30
0.0
 10
6.421272
 20
2.285473
 30
0.0
 10
6.405011
 20
2.310168
 30
0.0
 10
6.387317
 20
2.332933
 30
0.0
 10
6.367033
 20
2.351950
 30
0.0
 10
6.359260
 20
2.365014
 30
0.0
 10
6.357496
 20
2.374495
 30
0.0
 10
6.403909
 20
2.443948
 30
0.0
 10
6.413445
 20
2.445987
 30
0.0
 10
6.428383
 20
2.443893
 30
0.0
 10
6.453794
 20
2.432372
 30
0.0
 10
6.481520
 20
2.424710
 30
0.0
 10
6.510624
 20
2.419143
 30
0.0
 10
6.517955
 20
2.417930
 30
0.0
 10
6.552792
 20
2.474761
 30
0.0
 10
6.548327
 20
2.480714
 30
0.0
 10
6.530192
 20
2.504085
 30
0.0
 10
6.510790
 20
2.525417
 30
0.0
 10
6.489016
 20
2.542725
 30
0.0
 10
6.480307
 20
2.555128
 30
0.0
 10
6.477772
 20
2.564499
 30
0.0
 10
6.518617
 20
2.637369
 30
0.0
 10
6.527932
 20
2.640180
 30
0.0
 10
6.543036
 20
2.639244
 30
0.0
 10
6.569218
 20
2.629707
 30
0.0
 10
6.597496
 20
2.624250
 30
0.0
 10
6.626931
 20
2.621053
 30
0.0
 10
6.634372
 20
2.620337
 30
0.0
 10
6.664578
 20
2.679758
 30
0.0
 10
6.659673
 20
2.685325
 30
0.0
 10
6.639774
 20
2.707208
 30
0.0
 10
6.618773
 20
2.726942
 30
0.0
 10
6.595677
 20
2.742486
 30
0.0
 10
6.586030
 20
2.754172
 30
0.0
 10
6.582778
 20
2.763322
 30
0.0
 10
6.617780
 20
2.839224
 30
0.0
 10
6.626820
 20
2.842697
 30
0.0
 10
6.641979
 20
2.842917
 30
0.0
 10
6.668768
 20
2.835476
 30
0.0
 10
6.697431
 20
2.832334
 30
0.0
 10
6.727031
 20
2.831397
 30
0.0
 10
6.734473
 20
2.831287
 30
0.0
 10
6.759994
 20
2.892857
 30
0.0
 10
6.754647
 20
2.898039
 30
0.0
 10
6.733040
 20
2.918324
 30
0.0
 10
6.710495
 20
2.936293
 30
0.0
 10
6.686352
 20
2.950018
 30
0.0
 10
6.675768
 20
2.960933
 30
0.0
 10
6.671855
 20
2.969807
 30
0.0
 10
6.700738
 20
3.048190
 30
0.0
 10
6.709503
 20
3.052324
 30
0.0
 10
6.724606
 20
3.053757
 30
0.0
 10
6.751946
 20
3.048521
 30
0.0
 10
6.780720
 20
3.047528
 30
0.0
 10
6.810320
 20
3.048962
 30
0.0
 10
6.817761
 20
3.049403
 30
0.0
 10
6.838322
 20
3.112847
 30
0.0
 10
6.832644
 20
3.117588
 30
0.0
 10
6.809548
 20
3.136109
 30
0.0
 10
6.785626
 20
3.152259
 30
0.0
 10
6.760435
 20
3.164055
 30
0.0
 10
6.749080
 20
3.174032
 30
0.0
 10
6.744450
 20
3.182576
 30
0.0
 10
6.767105
 20
3.262999
 30
0.0
 10
6.775538
 20
3.267849
 30
0.0
 10
6.790476
 20
3.270495
 30
0.0
 10
6.818092
 20
3.267353
 30
0.0
 10
6.846866
 20
3.268676
 30
0.0
 10
6.876300
 20
3.272369
 30
0.0
 10
6.883687
 20
3.273472
 30
0.0
 10
6.899231
 20
3.338295
 30
0.0
 10
6.893112
 20
3.342539
 30
0.0
 10
6.868638
 20
3.359186
 30
0.0
 10
6.843558
 20
3.373462
 30
0.0
 10
6.817486
 20
3.383219
 30
0.0
 10
6.805414
 20
3.392259
 30
0.0
 10
6.800122
 20
3.400472
 30
0.0
 10
6.816438
 20
3.482437
 30
0.0
 10
6.824431
 20
3.487894
 30
0.0
 10
6.839093
 20
3.491643
 30
0.0
 10
6.866930
 20
3.490761
 30
0.0
 10
6.895483
 20
3.494289
 30
0.0
 10
6.924477
 20
3.500297
 30
0.0
 10
6.931753
 20
3.501950
 30
0.0
 10
6.942171
 20
3.567766
 30
0.0
 10
6.935777
 20
3.571569
 30
0.0
 10
6.910090
 20
3.586231
 30
0.0
 10
6.883962
 20
3.598468
 30
0.0
 10
6.857228
 20
3.606185
 30
0.0
 10
6.844440
 20
3.614288
 30
0.0
 10
6.838542
 20
3.621950
 30
0.0
 10
6.848354
 20
3.704963
 30
0.0
 10
6.855905
 20
3.711081
 30
0.0
 10
6.870237
 20
3.715987
 30
0.0
 10
6.898018
 20
3.717200
 30
0.0
 10
6.926296
 20
3.722988
 30
0.0
 10
6.954683
 20
3.731256
 30
0.0
 10
6.961794
 20
3.733516
 30
0.0
 10
6.966975
 20
3.799441
 30
0.0
 10
7.952273
 20
3.799441
 30
0.0
 10
8.004645
 20
3.806389
 30
0.0
 10
8.052635
 20
3.826333
 30
0.0
 10
8.093902
 20
3.857922
 30
0.0
 10
8.126106
 20
3.899804
 30
0.0
 10
8.146275
 20
3.948634
 30
0.0
 10
8.152998
 20
4.000166
 30
0.0
 10
8.146275
 20
4.051699
 30
0.0
 10
8.126106
 20
4.100529
 30
0.0
 10
8.093902
 20
4.142411
 30
0.0
 10
8.052635
 20
4.173999
 30
0.0
 10
8.004645
 20
4.193943
 30
0.0
 10
7.952273
 20
4.200891
 30
0.0
 10
6.966975
 20
4.200891
 30
0.0
 10
6.961794
 20
4.266541
 30
0.0
 10
6.954683
 20
4.268746
 30
0.0
 10
6.926296
 20
4.277014
 30
0.0
 10
6.898018
 20
4.282802
 30
0.0
 10
6.870237
 20
4.284070
 30
0.0
 10
6.855905
 20
4.288975
 30
0.0
 10
6.848354
 20
4.295094
 30
0.0
 10
6.838542
 20
4.378052
 30
0.0
 10
6.844440
 20
4.385769
 30
0.0
 10
6.857228
 20
4.393872
 30
0.0
 10
6.883962
 20
4.401589
 30
0.0
 10
6.910090
 20
4.413826
 30
0.0
 10
6.935777
 20
4.428488
 30
0.0
 10
6.942171
 20
4.432292
 30
0.0
 10
6.931753
 20
4.498107
 30
0.0
 10
6.924477
 20
4.499760
 30
0.0
 10
6.895483
 20
4.505768
 30
0.0
 10
6.866930
 20
4.509352
 30
0.0
 10
6.839093
 20
4.508359
 30
0.0
 10
6.824431
 20
4.512163
 30
0.0
 10
6.816438
 20
4.517675
 30
0.0
 10
6.800122
 20
4.599641
 30
0.0
 10
6.805414
 20
4.607744
 30
0.0
 10
6.817486
 20
4.616838
 30
0.0
 10
6.843558
 20
4.626595
 30
0.0
 10
6.868638
 20
4.640816
 30
0.0
 10
6.893112
 20
4.657518
 30
0.0
 10
6.899231
 20
4.661818
 30
0.0
 10
6.883687
 20
4.726641
 30
0.0
 10
6.876300
 20
4.727633
 30
0.0
 10
6.846866
 20
4.731381
 30
0.0
 10
6.818092
 20
4.732704
 30
0.0
 10
6.790476
 20
4.729617
 30
0.0
 10
6.775538
 20
4.732153
 30
0.0
 10
6.767105
 20
4.737003
 30
0.0
 10
6.744450
 20
4.817426
 30
0.0
 10
6.749080
 20
4.825970
 30
0.0
 10
6.760435
 20
4.836057
 30
0.0
 10
6.785626
 20
4.847797
 30
0.0
 10
6.809548
 20
4.864003
 30
0.0
 10
6.832644
 20
4.882469
 30
0.0
 10
6.838322
 20
4.887210
 30
0.0
 10
6.817761
 20
4.950655
 30
0.0
 10
6.810320
 20
4.951095
 30
0.0
 10
6.780720
 20
4.952473
 30
0.0
 10
6.751946
 20
4.951536
 30
0.0
 10
6.724606
 20
4.946300
 30
0.0
 10
6.709503
 20
4.947733
 30
0.0
 10
6.700738
 20
4.951867
 30
0.0
 10
6.671855
 20
5.030305
 30
0.0
 10
6.675768
 20
5.039179
 30
0.0
 10
6.686352
 20
5.049983
 30
0.0
 10
6.710495
 20
5.063709
 30
0.0
 10
6.733040
 20
5.081733
 30
0.0
 10
6.754647
 20
5.101963
 30
0.0
 10
6.759994
 20
5.107200
 30
0.0
 10
6.734473
 20
5.168770
 30
0.0
 10
6.727031
 20
5.168715
 30
0.0
 10
6.697431
 20
5.167723
 30
0.0
 10
6.668768
 20
5.164526
 30
0.0
 10
6.641979
 20
5.157140
 30
0.0
 10
6.626820
 20
5.157415
 30
0.0
 10
6.617780
 20
5.160833
 30
0.0
 10
6.582778
 20
5.236735
 30
0.0
 10
6.586030
 20
5.245885
 30
0.0
 10
6.595677
 20
5.257516
 30
0.0
 10
6.618773
 20
5.273170
 30
0.0
 10
6.639774
 20
5.292794
 30
0.0
 10
6.659673
 20
5.314732
 30
0.0
 10
6.664578
 20
5.320299
 30
0.0
 10
6.634372
 20
5.379720
 30
0.0
 10
6.626931
 20
5.379059
 30
0.0
 10
6.597496
 20
5.375752
 30
0.0
 10
6.569218
 20
5.370350
 30
0.0
 10
6.543036
 20
5.360869
 30
0.0
 10
6.527932
 20
5.359932
 30
0.0
 10
6.518617
 20
5.362633
 30
0.0
 10
6.477772
 20
5.435558
 30
0.0
 10
6.480307
 20
5.444929
 30
0.0
 10
6.489016
 20
5.457331
 30
0.0
 10
6.510790
 20
5.474695
 30
0.0
 10
6.530192
 20
5.495917
 30
0.0
 10
6.548327
 20
5.519398
 30
0.0
 10
6.552792
 20
5.525351
 30
0.0
 10
6.517955
 20
5.582182
 30
0.0
 10
6.510624
 20
5.580859
 30
0.0
 10
6.481520
 20
5.575347
 30
0.0
 10
6.453794
 20
5.567685
 30
0.0
 10
6.428383
 20
5.556220
 30
0.0
 10
6.413445
 20
5.554070
 30
0.0
 10
6.403909
 20
5.556054
 30
0.0
 10
6.357496
 20
5.625507
 30
0.0
 10
6.359260
 20
5.635098
 30
0.0
 10
6.367033
 20
5.648107
 30
0.0
 10
6.387317
 20
5.667124
 30
0.0
 10
6.405011
 20
5.689889
 30
0.0
 10
6.421272
 20
5.714639
 30
0.0
 10
6.425241
 20
5.720923
 30
0.0
 10
6.386105
 20
5.774831
 30
0.0
 10
6.378828
 20
5.773012
 30
0.0
 10
6.350331
 20
5.765240
 30
0.0
 10
6.323211
 20
5.755429
 30
0.0
 10
6.298902
 20
5.741924
 30
0.0
 10
6.284075
 20
5.738617
 30
0.0
 10
6.274429
 20
5.739884
 30
0.0
 10
6.222724
 20
5.805479
 30
0.0
 10
6.223772
 20
5.815180
 30
0.0
 10
6.230386
 20
5.828740
 30
0.0
 10
6.249183
 20
5.849301
 30
0.0
 10
6.265058
 20
5.873334
 30
0.0
 10
6.279279
 20
5.899296
 30
0.0
 10
6.282752
 20
5.905910
 30
0.0
 10
6.239481
 20
5.956567
 30
0.0
 10
6.232426
 20
5.954142
 30
0.0
 10
6.204590
 20
5.944165
 30
0.0
 10
6.178297
 20
5.932259
 30
0.0
 10
6.155145
 20
5.916935
 30
0.0
 10
6.140593
 20
5.912470
 30
0.0
 10
6.130947
 20
5.912966
 30
0.0
 10
6.074172
 20
5.974316
 30
0.0
 10
6.074448
 20
5.984073
 30
0.0
 10
6.080070
 20
5.998129
 30
0.0
 10
6.097158
 20
6.020067
 30
0.0
 10
6.111048
 20
6.045313
 30
0.0
 10
6.123285
 20
6.072322
 30
0.0
 10
6.126207
 20
6.079157
 30
0.0
 10
6.079078
 20
6.126286
 30
0.0
 10
6.072243
 20
6.123310
 30
0.0
 10
6.045233
 20
6.111128
 30
0.0
 10
6.019987
 20
6.097237
 30
0.0
 10
5.998049
 20
6.080150
 30
0.0
 10
5.983938
 20
6.074527
 30
0.0
 10
5.974237
 20
6.074307
 30
0.0
 10
5.912886
 20
6.130972
 30
0.0
 10
5.912390
 20
6.140673
 30
0.0
 10
5.916855
 20
6.155170
 30
0.0
 10
5.932179
 20
6.178376
 30
0.0
 10
5.944085
 20
6.204614
 30
0.0
 10
5.954117
 20
6.232506
 30
0.0
 10
5.956487
 20
6.239561
 30
0.0
 10
5.905831
 20
6.282831
 30
0.0
 10
5.899216
 20
6.279359
 30
0.0
 10
5.873309
 20
6.265137
 30
0.0
 10
5.849221
 20
6.249262
 30
0.0
 10
5.828716
 20
6.230466
 30
0.0
 10
5.815101
 20
6.223796
 30
0.0
 10
5.805399
 20
6.222804
 30
0.0
 10
5.739805
 20
6.274508
 30
0.0
 10
5.738592
 20
6.284154
 30
0.0
 10
5.741844
 20
6.298927
 30
0.0
 10
5.755294
 20
6.323291
 30
0.0
 10
5.765105
 20
6.350410
 30
0.0
 10
5.772933
 20
6.378963
 30
0.0
 10
5.774807
 20
6.386129
 30
0.0
 10
5.720843
 20
6.425321
 30
0.0
 10
5.714559
 20
6.421352
 30
0.0
 10
5.689809
 20
6.405091
 30
0.0
 10
5.667044
 20
6.387397
 30
0.0
 10
5.648027
 20
6.367057
 30
0.0
 10
5.635019
 20
6.359340
 30
0.0
 10
5.625483
 20
6.357576
 30
0.0
 10
5.556030
 20
6.403989
 30
0.0
 10
5.553990
 20
6.413525
 30
0.0
 10
5.556140
 20
6.428518
 30
0.0
 10
5.567605
 20
6.453818
 30
0.0
 10
5.575267
 20
6.481600
 30
0.0
 10
5.580834
 20
6.510704
 30
0.0
 10
5.582102
 20
6.518035
 30
0.0
 10
5.525217
 20
6.552872
 30
0.0
 10
5.519319
 20
6.548407
 30
0.0
 10
5.495892
 20
6.530272
 30
0.0
 10
5.474615
 20
6.510869
 30
0.0
 10
5.457252
 20
6.489096
 30
0.0
 10
5.444849
 20
6.480387
 30
0.0
 10
5.435479
 20
6.477851
 30
0.0
 10
5.362608
 20
6.518696
 30
0.0
 10
5.359852
 20
6.528012
 30
0.0
 10
5.360789
 20
6.543115
 30
0.0
 10
5.370270
 20
6.569298
 30
0.0
 10
5.375727
 20
6.597575
 30
0.0
 10
5.378979
 20
6.627010
 30
0.0
 10
5.379641
 20
6.634397
 30
0.0
 10
5.320220
 20
6.664658
 30
0.0
 10
5.314708
 20
6.659752
 30
0.0
 10
5.292769
 20
6.639854
 30
0.0
 10
5.273091
 20
6.618797
 30
0.0
 10
5.257491
 20
6.595756
 30
0.0
 10
5.245806
 20
6.586055
 30
0.0
 10
5.236655
 20
6.582858
 30
0.0
 10
5.160753
 20
6.617860
 30
0.0
 10
5.157280
 20
6.626900
 30
0.0
 10
5.157060
 20
6.642003
 30
0.0
 10
5.164501
 20
6.668903
 30
0.0
 10
5.167643
 20
6.697511
 30
0.0
 10
5.168580
 20
6.727111
 30
0.0
 10
5.168691
 20
6.734552
 30
0.0
 10
5.107120
 20
6.760074
 30
0.0
 10
5.101938
 20
6.754727
 30
0.0
 10
5.081709
 20
6.733174
 30
0.0
 10
5.063684
 20
6.710630
 30
0.0
 10
5.049959
 20
6.686431
 30
0.0
 10
5.039045
 20
6.675848
 30
0.0
 10
5.030225
 20
6.671879
 30
0.0
 10
4.951787
 20
6.700818
 30
0.0
 10
4.947653
 20
6.709637
 30
0.0
 10
4.946220
 20
6.724686
 30
0.0
 10
4.951457
 20
6.751971
 30
0.0
 10
4.952449
 20
6.780799
 30
0.0
 10
4.951016
 20
6.810345
 30
0.0
 10
4.950575
 20
6.817786
 30
0.0
 10
4.887130
 20
6.838401
 30
0.0
 10
4.882389
 20
6.832669
 30
0.0
 10
4.863924
 20
6.809573
 30
0.0
 10
4.847718
 20
6.785705
 30
0.0
 10
4.835977
 20
6.760515
 30
0.0
 10
4.825945
 20
6.749160
 30
0.0
 10
4.817401
 20
6.744474
 30
0.0
 10
4.736979
 20
6.767184
 30
0.0
 10
4.732128
 20
6.775618
 30
0.0
 10
4.729482
 20
6.790556
 30
0.0
 10
4.732624
 20
6.818172
 30
0.0
 10
4.731356
 20
6.847000
 30
0.0
 10
4.727608
 20
6.876325
 30
0.0
 10
4.726561
 20
6.883711
 30
0.0
 10
4.661738
 20
6.899256
 30
0.0
 10
4.657438
 20
6.893137
 30
0.0
 10
4.640792
 20
6.868663
 30
0.0
 10
4.626515
 20
6.843638
 30
0.0
 10
4.616759
 20
6.817565
 30
0.0
 10
4.607719
 20
6.805494
 30
0.0
 10
4.599506
 20
6.800202
 30
0.0
 10
4.517540
 20
6.816518
 30
0.0
 10
4.512138
 20
6.824456
 30
0.0
 10
4.508335
 20
6.839173
 30
0.0
 10
4.509217
 20
6.867009
 30
0.0
 10
4.505744
 20
6.895562
 30
0.0
 10
4.499681
 20
6.924556
 30
0.0
 10
4.498027
 20
6.931832
 30
0.0
 10
4.432212
 20
6.942250
 30
0.0
 10
4.428408
 20
6.935801
 30
0.0
 10
4.413746
 20
6.910170
 30
0.0
 10
4.401509
 20
6.884042
 30
0.0
 10
4.393847
 20
6.857308
 30
0.0
 10
4.385689
 20
6.844520
 30
0.0
 10
4.378027
 20
6.838622
 30
0.0
 10
4.295014
 20
6.848433
 30
0.0
 10
4.288951
 20
6.855930
 30
0.0
 10
4.284045
 20
6.870317
 30
0.0
 10
4.282777
 20
6.898098
 30
0.0
 10
4.276990
 20
6.926320
 30
0.0
 10
4.268721
 20
6.954763
 30
0.0
 10
4.266461
 20
6.961818
 30
0.0
 10
4.200040
 20
6.967110
 30
0.0
 10
4.196733
 20
6.960385
 30
0.0
 10
4.184165
 20
6.933651
 30
0.0
 10
4.174023
 20
6.906642
 30
0.0
 10
4.168400
 20
6.879357
 30
0.0
 10
4.161345
 20
6.866017
 30
0.0
 10
4.154124
 20
6.859513
 30
0.0
 10
4.070615
 20
6.862765
 30
0.0
 10
4.063945
 20
6.869821
 30
0.0
 10
4.057937
 20
6.883766
 30
0.0
 10
4.054464
 20
6.911327
 30
0.0
 10
4.046527
 20
6.939053
 30
0.0
 10
4.036054
 20
6.966724
 30
0.0
 10
4.033297
 20
6.973614
 30
0.0
 10
3.966655
 20
6.973614
 30
0.0
 10
3.966655
 20
6.973614
 30
0.0
  0
LWPOLYLINE
  5
101
100
AcDbEntity
  8
Layer_1
 62
7
100
AcDbPolyline
 90
66
 70
0
 10
4.000004
 20
6.729647
 30
0.0
 10
4.279091
 20
6.715553
 30
0.0
 10
4.550116
 20
6.674189
 30
0.0
 10
4.811708
 20
6.606926
 30
0.0
 10
5.062493
 20
6.515137
 30
0.0
 10
5.301100
 20
6.400194
 30
0.0
 10
5.526157
 20
6.263468
 30
0.0
 10
5.736292
 20
6.106332
 30
0.0
 10
5.930133
 20
5.930157
 30
0.0
 10
6.106307
 20
5.736317
 30
0.0
 10
6.263444
 20
5.526182
 30
0.0
 10
6.400169
 20
5.301125
 30
0.0
 10
6.515113
 20
5.062518
 30
0.0
 10
6.606902
 20
4.811732
 30
0.0
 10
6.674164
 20
4.550141
 30
0.0
 10
6.715528
 20
4.279116
 30
0.0
 10
6.729622
 20
4.000028
 30
0.0
 10
6.715528
 20
3.720941
 30
0.0
 10
6.674164
 20
3.449916
 30
0.0
 10
6.606902
 20
3.188325
 30
0.0
 10
6.515113
 20
2.937539
 30
0.0
 10
6.400169
 20
2.698932
 30
0.0
 10
6.263444
 20
2.473875
 30
0.0
 10
6.106307
 20
2.263740
 30
0.0
 10
5.930133
 20
2.069900
 30
0.0
 10
5.736292
 20
1.893725
 30
0.0
 10
5.526157
 20
1.736589
 30
0.0
 10
5.301100
 20
1.599863
 30
0.0
 10
5.062493
 20
1.484920
 30
0.0
 10
4.811708
 20
1.393131
 30
0.0
 10
4.550116
 20
1.325868
 30
0.0
 10
4.279091
 20
1.284504
 30
0.0
 10
4.000004
 20
1.270410
 30
0.0
 10
3.730211
 20
1.283763
 30
0.0
 10
3.464988
 20
1.323336
 30
0.0
 10
3.206124
 20
1.388388
 30
0.0
 10
2.955409
 20
1.478177
 30
0.0
 10
2.714633
 20
1.591962
 30
0.0
 10
2.485586
 20
1.729002
 30
0.0
 10
2.270058
 20
1.888555
 30
0.0
 10
2.069839
 20
2.069880
 30
0.0
 10
1.888510
 20
2.270095
 30
0.0
 10
1.728953
 20
2.485620
 30
0.0
 10
1.591908
 20
2.714664
 30
0.0
 10
1.478118
 20
2.955437
 30
0.0
 10
1.388324
 20
3.206151
 30
0.0
 10
1.323267
 20
3.465013
 30
0.0
 10
1.283689
 20
3.730236
 30
0.0
 10
1.270331
 20
4.000028
 30
0.0
 10
1.283689
 20
4.269821
 30
0.0
 10
1.323267
 20
4.535043
 30
0.0
 10
1.388324
 20
4.793906
 30
0.0
 10
1.478118
 20
5.044619
 30
0.0
 10
1.591908
 20
5.285393
 30
0.0
 10
1.728953
 20
5.514437
 30
0.0
 10
1.888510
 20
5.729962
 30
0.0
 10
2.069839
 20
5.930177
 30
0.0
 10
2.270058
 20
6.111502
 30
0.0
 10
2.485586
 20
6.271055
 30
0.0
 10
2.714633
 20
6.408095
 30
0.0
 10
2.955409
 20
6.521880
 30
0.0
 10
3.206124
 20
6.611669
 30
0.0
 10
3.464988
 20
6.676721
 30
0.0
 10
3.730211
 20
6.716294
 30
0.0
 10
4.000004
 20
6.729647
 30
0.0
 10
4.000004
 20
6.729647
 30
0.0
  0
LWPOLYLINE
  5
102
100
AcDbEntity
  8
Layer_1
 62
7
100
AcDbPolyline
 90
8
 70
1
 10
7.999304
 20
8.000143
 30
0.0
 10
7.999304
 20
7.000128
 30
0.0
 10
7.970972
 20
7.000128
 30
0.0
 10
7.970972
 20
7.971757
 30
0.0
 10
6.999288
 20
7.971757
 30
0.0
 10
6.999288
 20
8.000143
 30
0.0
 10
7.999304
 20
8.000143
 30
0.0
 10
7.999304
 20
8.000143
 30
0.0
  0
LWPOLYLINE
  5
103
100
AcDbEntity
  8
Layer_1
 62
7
100
AcDbPolyline
 90
9
 70
1
 10
1.000015
 20
8.000000
 30
0.0
 10
1.000015
 20
7.971614
 30
0.0
 10
0.028332
 20
7.971614
 30
0.0
 10
0.028332
 20
6.999985
 30
0.0
 10
-0.000000
 20
6.999985
 30
0.0
 10
-0.000000
 20
7.985778
 30
0.0
 10
-0.000000
 20
8.000000
 30
0.0
 10
1.000015
 20
8.000000
 30
0.0
 10
1.000015
 20
8.000000
 30
0.0
  0
LWPOLYLINE
  5
104
100
AcDbEntity
  8
Layer_1
 62
7
100
AcDbPolyline
 90
8
 70
1
 10
7.999294
 20
0.800121
 30
0.0
 10
7.999294
 20
0.000142
 30
0.0
 10
6.999280
 20
0.000142
 30
0.0
 10
6.999280
 20
0.028475
 30
0.0
 10
7.970962
 20
0.028475
 30
0.0
 10
7.970962
 20
0.800121
 30
0.0
 10
7.999294
 20
0.800121
 30
0.0
 10
7.999294
 20
0.800121
 30
0.0
  0
LWPOLYLINE
  5
105
100
AcDbEntity
  8
Layer_1
 62
7
100
AcDbPolyline
 90
8
 70
1
 10
0.028332
 20
0.799978
 30
0.0
 10
0.028332
 20
0.028332
 30
0.0
 10
1.000015
 20
0.028332
 30
0.0
 10
1.000015
 20
-0.000000
 30
0.0
 10
-0.000000
 20
-0.000000
 30
0.0
 10
-0.000000
 20
0.799978
 30
0.0
 10
0.028332
 20
0.799978
 30
0.0
 10
0.028332
 20
0.799978
 30
0.0
  0
ENDSEC
  0
SECTION
  2
OBJECTS
  0
DICTIONARY
  5
C
330
0
100
AcDbDictionary
  3
ACAD_GROUP
350
D
  3
ACAD_MLINESTYLE
350
17
  0
DICTIONARY
  5
D
330
C
100
AcDbDictionary
  0
DICTIONARY
  5
1A
330
C
100
AcDbDictionary
  0
DICTIONARY
  5
17
330
C
100
AcDbDictionary
  3
STANDARD
350
18
  0
DICTIONARY
  5
19
330
C
100
AcDbDictionary
  0
ENDSEC
  0
EOF
