  0
SECTION
  2
HEADER
  9
$ACADVER
  1
AC1014
  9
$HANDSEED
  5
FFFF
  9
$MEASUREMENT
 70
     1
  0
ENDSEC
  0
SECTION
  2
TABLES
  0
TABLE
  2
VPORT
  5
8
330
0
100
AcDbSymbolTable
 70
     4
  0
VPORT
  5
2E
330
8
100
AcDbSymbolTableRecord
100
AcDbViewportTableRecord
  2
*ACTIVE
 70
     0
 10
0.0
 20
0.0
 11
1.0
 21
1.0
 12
210.0
 22
148.5
 13
0.0
 23
0.0
 14
10.0
 24
10.0
 15
10.0
 25
10.0
 16
0.0
 26
0.0
 36
1.0
 17
0.0
 27
0.0
 37
0.0
 40
341.0
 41
1.24
 42
50.0
 43
0.0
 44
0.0
 50
0.0
 51
0.0
 71
     0
 72
   100
 73
     1
 74
     3
 75
     0
 76
     0
 77
     0
 78
     0
  0
ENDTAB
  0
TABLE
  2
LTYPE
  5
5
330
0
100
AcDbSymbolTable
 70
     1
  0
LTYPE
  5
14
330
5
100
AcDbSymbolTableRecord
100
AcDbLinetypeTableRecord
  2
BYBLOCK
 70
     0
  3

 72
    65
 73
     0
 40
0.0
  0
LTYPE
  5
15
330
5
100
AcDbSymbolTableRecord
100
AcDbLinetypeTableRecord
  2
BYLAYER
 70
     0
  3

 72
    65
 73
     0
 40
0.0
  0
LTYPE
  5
16
330
5
100
AcDbSymbolTableRecord
100
AcDbLinetypeTableRecord
  2
CONTINUOUS
 70
     0
  3
Solid line
 72
    65
 73
     0
 40
0.0
  0
ENDTAB
  0
TABLE
  2
LAYER
  5
2
100
AcDbSymbolTable
 70
2
  0
LAYER
  5
50
100
AcDbSymbolTableRecord
100
AcDbLayerTableRecord
  2
0
 70
0
  6
CONTINUOUS
  0
LAYER
  5
51
100
AcDbSymbolTableRecord
100
AcDbLayerTableRecord
  2
Layer_1
 70
0
  6
CONTINUOUS
  0
ENDTAB
  0
TABLE
  2
STYLE
  5
3
330
0
100
AcDbSymbolTable
 70
     1
  0
STYLE
  5
11
330
3
100
AcDbSymbolTableRecord
100
AcDbTextStyleTableRecord
  2
STANDARD
 70
     0
 40
0.0
 41
1.0
 50
0.0
 71
     0
 42
2.5
  3
txt
  4

  0
ENDTAB
  0
TABLE
  2
VIEW
  5
6
330
0
100
AcDbSymbolTable
 70
     0
  0
ENDTAB
  0
TABLE
  2
UCS
  5
7
330
0
100
AcDbSymbolTable
 70
     0
  0
ENDTAB
  0
TABLE
  2
APPID
  5
9
330
0
100
AcDbSymbolTable
 70
     2
  0
APPID
  5
12
330
9
100
AcDbSymbolTableRecord
100
AcDbRegAppTableRecord
  2
ACAD
 70
     0
  0
ENDTAB
  0
TABLE
  2
DIMSTYLE
  5
A
330
0
100
AcDbSymbolTable
 70
     1
  0
DIMSTYLE
105
27
330
A
100
AcDbSymbolTableRecord
100
AcDbDimStyleTableRecord
  2
ISO-25
 70
     0
  3

  4

  5

  6

  7

 40
1.0
 41
2.5
 42
0.625
 43
3.75
 44
1.25
 45
0.0
 46
0.0
 47
0.0
 48
0.0
140
2.5
141
2.5
142
0.0
143
0.03937007874016
144
1.0
145
0.0
146
1.0
147
0.625
 71
     0
 72
     0
 73
     0
 74
     0
 75
     0
 76
     0
 77
     1
 78
     8
170
     0
171
     3
172
     1
173
     0
174
     0
175
     0
176
     0
177
     0
178
     0
270
     2
271
     2
272
     2
273
     2
274
     3
340
11
275
     0
280
     0
281
     0
282
     0
283
     0
284
     8
285
     0
286
     0
287
     3
288
     0
  0
ENDTAB
  0
TABLE
  2
BLOCK_RECORD
  5
1
330
0
100
AcDbSymbolTable
 70
     1
  0
BLOCK_RECORD
  5
1F
330
1
100
AcDbSymbolTableRecord
100
AcDbBlockTableRecord
  2
*MODEL_SPACE
  0
BLOCK_RECORD
  5
1B
330
1
100
AcDbSymbolTableRecord
100
AcDbBlockTableRecord
  2
*PAPER_SPACE
  0
ENDTAB
  0
ENDSEC
  0
SECTION
  2
BLOCKS
  0
BLOCK
  5
20
330
1F
100
AcDbEntity
  8
0
100
AcDbBlockBegin
  2
*MODEL_SPACE
 70
     0
 10
0.0
 20
0.0
 30
0.0
  3
*MODEL_SPACE
  1

  0
ENDBLK
  5
21
330
1F
100
AcDbEntity
  8
0
100
AcDbBlockEnd
  0
BLOCK
  5
1C
330
1B
100
AcDbEntity
 67
     1
  8
0
100
AcDbBlockBegin
  2
*PAPER_SPACE
  1

  0
ENDBLK
  5
1D
330
1B
100
AcDbEntity
 67
     1
  8
0
100
AcDbBlockEnd
  0
ENDSEC
  0
SECTION
  2
ENTITIES
  0
LWPOLYLINE
  5
100
100
AcDbEntity
  8
Layer_1
 62
7
100
AcDbPolyline
 90
44
 70
0
 10
7.646156
 20
2.380942
 30
0.0
 10
7.597509
 20
2.375777
 30
0.0
 10
7.550760
 20
2.362348
 30
0.0
 10
7.506761
 20
2.341487
 30
0.0
 10
7.466361
 20
2.314026
 30
0.0
 10
7.430412
 20
2.280799
 30
0.0
 10
7.399763
 20
2.242637
 30
0.0
 10
7.375265
 20
2.200373
 30
0.0
 10
7.357770
 20
2.154838
 30
0.0
 10
7.348462
 20
2.110452
 30
0.0
 10
7.345823
 20
2.065073
 30
0.0
 10
7.349470
 20
2.019719
 30
0.0
 10
7.359023
 20
1.975404
 30
0.0
 10
7.376487
 20
1.930914
 30
0.0
 10
7.400624
 20
1.889583
 30
0.0
 10
7.430646
 20
1.852203
 30
0.0
 10
7.465767
 20
1.819567
 30
0.0
 10
7.505201
 20
1.792468
 30
0.0
 10
7.548159
 20
1.771700
 30
0.0
 10
7.593857
 20
1.758054
 30
0.0
 10
7.641507
 20
1.752323
 30
0.0
 10
7.670213
 20
1.751453
 30
0.0
 10
7.698761
 20
1.753516
 30
0.0
 10
7.754591
 20
1.765880
 30
0.0
 10
7.807417
 20
1.788296
 30
0.0
 10
7.855658
 20
1.819641
 30
0.0
 10
7.897734
 20
1.858795
 30
0.0
 10
7.932064
 20
1.904637
 30
0.0
 10
7.957067
 20
1.956045
 30
0.0
 10
7.965578
 20
1.983486
 30
0.0
 10
7.971164
 20
2.011898
 30
0.0
 10
7.975282
 20
2.040411
 30
0.0
 10
7.976431
 20
2.069086
 30
0.0
 10
7.970307
 20
2.126078
 30
0.0
 10
7.953774
 20
2.181193
 30
0.0
 10
7.927814
 20
2.232748
 30
0.0
 10
7.893409
 20
2.279062
 30
0.0
 10
7.851540
 20
2.318453
 30
0.0
 10
7.803190
 20
2.349239
 30
0.0
 10
7.776891
 20
2.360880
 30
0.0
 10
7.749340
 20
2.369739
 30
0.0
 10
7.698313
 20
2.379248
 30
0.0
 10
7.646155
 20
2.380942
 30
0.0
 10
7.646156
 20
2.380942
 30
0.0
  0
LWPOLYLINE
  5
101
100
AcDbEntity
  8
Layer_1
 62
7
100
AcDbPolyline
 90
37
 70
0
 10
7.659389
 20
2.251088
 30
0.0
 10
7.689822
 20
2.249654
 30
0.0
 10
7.719040
 20
2.242549
 30
0.0
 10
7.746505
 20
2.230389
 30
0.0
 10
7.771679
 20
2.213788
 30
0.0
 10
7.794025
 20
2.193360
 30
0.0
 10
7.813004
 20
2.169719
 30
0.0
 10
7.828078
 20
2.143481
 30
0.0
 10
7.838710
 20
2.115258
 30
0.0
 10
7.843823
 20
2.093545
 30
0.0
 10
7.845917
 20
2.071430
 30
0.0
 10
7.841606
 20
2.027247
 30
0.0
 10
7.826898
 20
1.985229
 30
0.0
 10
7.802908
 20
1.947893
 30
0.0
 10
7.777831
 20
1.923805
 30
0.0
 10
7.748555
 20
1.904973
 30
0.0
 10
7.716264
 20
1.891686
 30
0.0
 10
7.682140
 20
1.884235
 30
0.0
 10
7.647368
 20
1.882909
 30
0.0
 10
7.613131
 20
1.887998
 30
0.0
 10
7.580612
 20
1.899791
 30
0.0
 10
7.550996
 20
1.918578
 30
0.0
 10
7.531097
 20
1.934737
 30
0.0
 10
7.514203
 20
1.953682
 30
0.0
 10
7.500386
 20
1.974922
 30
0.0
 10
7.489720
 20
1.997961
 30
0.0
 10
7.482279
 20
2.022308
 30
0.0
 10
7.478135
 20
2.047468
 30
0.0
 10
7.477362
 20
2.072947
 30
0.0
 10
7.480033
 20
2.098253
 30
0.0
 10
7.491373
 20
2.139252
 30
0.0
 10
7.512007
 20
2.176340
 30
0.0
 10
7.540772
 20
2.207469
 30
0.0
 10
7.576503
 20
2.230592
 30
0.0
 10
7.616743
 20
2.245673
 30
0.0
 10
7.659389
 20
2.251088
 30
0.0
 10
7.659389
 20
2.251088
 30
0.0
  0
LWPOLYLINE
  5
102
100
AcDbEntity
  8
Layer_1
 62
7
100
AcDbPolyline
 90
8
 70
1
 10
-0.000000
 20
8.000000
 30
0.0
 10
-0.000000
 20
6.999985
 30
0.0
 10
0.028332
 20
6.999985
 30
0.0
 10
0.028332
 20
7.971614
 30
0.0
 10
1.000016
 20
7.971614
 30
0.0
 10
1.000016
 20
8.000000
 30
0.0
 10
-0.000000
 20
8.000000
 30
0.0
 10
-0.000000
 20
8.000000
 30
0.0
  0
LWPOLYLINE
  5
103
100
AcDbEntity
  8
Layer_1
 62
7
100
AcDbPolyline
 90
9
 70
1
 10
7.999985
 20
8.000000
 30
0.0
 10
7.999985
 20
7.971614
 30
0.0
 10
8.971668
 20
7.971614
 30
0.0
 10
8.971668
 20
6.999985
 30
0.0
 10
9.000000
 20
6.999985
 30
0.0
 10
9.000000
 20
7.985779
 30
0.0
 10
9.000000
 20
8.000000
 30
0.0
 10
7.999985
 20
8.000000
 30
0.0
 10
7.999985
 20
8.000000
 30
0.0
  0
LWPOLYLINE
  5
104
100
AcDbEntity
  8
Layer_1
 62
7
100
AcDbPolyline
 90
8
 70
1
 10
0.000010
 20
0.799978
 30
0.0
 10
0.000010
 20
-0.000000
 30
0.0
 10
1.000024
 20
-0.000000
 30
0.0
 10
1.000024
 20
0.028332
 30
0.0
 10
0.028342
 20
0.028332
 30
0.0
 10
0.028342
 20
0.799978
 30
0.0
 10
0.000010
 20
0.799978
 30
0.0
 10
0.000010
 20
0.799978
 30
0.0
  0
LWPOLYLINE
  5
105
100
AcDbEntity
  8
Layer_1
 62
7
100
AcDbPolyline
 90
8
 70
1
 10
8.971668
 20
0.799978
 30
0.0
 10
8.971668
 20
0.028332
 30
0.0
 10
7.999985
 20
0.028332
 30
0.0
 10
7.999985
 20
-0.000000
 30
0.0
 10
9.000000
 20
-0.000000
 30
0.0
 10
9.000000
 20
0.799978
 30
0.0
 10
8.971668
 20
0.799978
 30
0.0
 10
8.971668
 20
0.799978
 30
0.0
  0
LWPOLYLINE
  5
106
100
AcDbEntity
  8
Layer_1
 62
7
100
AcDbPolyline
 90
44
 70
0
 10
3.968639
 20
1.186431
 30
0.0
 10
3.919992
 20
1.181266
 30
0.0
 10
3.873243
 20
1.167836
 30
0.0
 10
3.829243
 20
1.146975
 30
0.0
 10
3.788843
 20
1.119515
 30
0.0
 10
3.752894
 20
1.086287
 30
0.0
 10
3.722245
 20
1.048125
 30
0.0
 10
3.697748
 20
1.005861
 30
0.0
 10
3.680252
 20
0.960327
 30
0.0
 10
3.670944
 20
0.915940
 30
0.0
 10
3.668305
 20
0.870562
 30
0.0
 10
3.671953
 20
0.825207
 30
0.0
 10
3.681505
 20
0.780892
 30
0.0
 10
3.698969
 20
0.736402
 30
0.0
 10
3.723106
 20
0.695071
 30
0.0
 10
3.753128
 20
0.657691
 30
0.0
 10
3.788249
 20
0.625055
 30
0.0
 10
3.827682
 20
0.597957
 30
0.0
 10
3.870641
 20
0.577188
 30
0.0
 10
3.916339
 20
0.563542
 30
0.0
 10
3.963989
 20
0.557812
 30
0.0
 10
3.992695
 20
0.556941
 30
0.0
 10
4.021243
 20
0.559004
 30
0.0
 10
4.077073
 20
0.571369
 30
0.0
 10
4.129899
 20
0.593784
 30
0.0
 10
4.178141
 20
0.625129
 30
0.0
 10
4.220216
 20
0.664284
 30
0.0
 10
4.254546
 20
0.710125
 30
0.0
 10
4.279549
 20
0.761533
 30
0.0
 10
4.288059
 20
0.788974
 30
0.0
 10
4.293645
 20
0.817386
 30
0.0
 10
4.297764
 20
0.845900
 30
0.0
 10
4.298912
 20
0.874574
 30
0.0
 10
4.292788
 20
0.931566
 30
0.0
 10
4.276256
 20
0.986681
 30
0.0
 10
4.250296
 20
1.038236
 30
0.0
 10
4.215891
 20
1.084550
 30
0.0
 10
4.174022
 20
1.123941
 30
0.0
 10
4.125672
 20
1.154728
 30
0.0
 10
4.099374
 20
1.166369
 30
0.0
 10
4.071823
 20
1.175228
 30
0.0
 10
4.020796
 20
1.184737
 30
0.0
 10
3.968637
 20
1.186431
 30
0.0
 10
3.968639
 20
1.186431
 30
0.0
  0
LWPOLYLINE
  5
107
100
AcDbEntity
  8
Layer_1
 62
7
100
AcDbPolyline
 90
37
 70
0
 10
3.981872
 20
1.056577
 30
0.0
 10
4.012305
 20
1.055142
 30
0.0
 10
4.041523
 20
1.048038
 30
0.0
 10
4.068988
 20
1.035878
 30
0.0
 10
4.094162
 20
1.019277
 30
0.0
 10
4.116508
 20
0.998849
 30
0.0
 10
4.135486
 20
0.975208
 30
0.0
 10
4.150561
 20
0.948969
 30
0.0
 10
4.161193
 20
0.920746
 30
0.0
 10
4.166305
 20
0.899034
 30
0.0
 10
4.168399
 20
0.876918
 30
0.0
 10
4.164089
 20
0.832736
 30
0.0
 10
4.149380
 20
0.790718
 30
0.0
 10
4.125391
 20
0.753381
 30
0.0
 10
4.100315
 20
0.729293
 30
0.0
 10
4.071039
 20
0.710461
 30
0.0
 10
4.038747
 20
0.697174
 30
0.0
 10
4.004623
 20
0.689724
 30
0.0
 10
3.969851
 20
0.688398
 30
0.0
 10
3.935614
 20
0.693487
 30
0.0
 10
3.903095
 20
0.705280
 30
0.0
 10
3.873479
 20
0.724067
 30
0.0
 10
3.853580
 20
0.740225
 30
0.0
 10
3.836685
 20
0.759171
 30
0.0
 10
3.822869
 20
0.780410
 30
0.0
 10
3.812203
 20
0.803450
 30
0.0
 10
3.804761
 20
0.827796
 30
0.0
 10
3.800617
 20
0.852956
 30
0.0
 10
3.799844
 20
0.878436
 30
0.0
 10
3.802515
 20
0.903742
 30
0.0
 10
3.813855
 20
0.944740
 30
0.0
 10
3.834490
 20
0.981828
 30
0.0
 10
3.863254
 20
1.012957
 30
0.0
 10
3.898985
 20
1.036081
 30
0.0
 10
3.939226
 20
1.051162
 30
0.0
 10
3.981872
 20
1.056577
 30
0.0
 10
3.981872
 20
1.056577
 30
0.0
  0
LWPOLYLINE
  5
108
100
AcDbEntity
  8
Layer_1
 62
7
100
AcDbPolyline
 90
44
 70
0
 10
1.695903
 20
4.314580
 30
0.0
 10
1.647255
 20
4.309415
 30
0.0
 10
1.600507
 20
4.295986
 30
0.0
 10
1.556507
 20
4.275125
 30
0.0
 10
1.516108
 20
4.247665
 30
0.0
 10
1.480158
 20
4.214437
 30
0.0
 10
1.449509
 20
4.176275
 30
0.0
 10
1.425012
 20
4.134010
 30
0.0
 10
1.407516
 20
4.088476
 30
0.0
 10
1.398209
 20
4.044090
 30
0.0
 10
1.395569
 20
3.998711
 30
0.0
 10
1.399217
 20
3.953356
 30
0.0
 10
1.408771
 20
3.909042
 30
0.0
 10
1.426235
 20
3.864552
 30
0.0
 10
1.450372
 20
3.823220
 30
0.0
 10
1.480394
 20
3.785840
 30
0.0
 10
1.515515
 20
3.753205
 30
0.0
 10
1.554948
 20
3.726106
 30
0.0
 10
1.597907
 20
3.705337
 30
0.0
 10
1.643605
 20
3.691692
 30
0.0
 10
1.691255
 20
3.685961
 30
0.0
 10
1.719961
 20
3.685091
 30
0.0
 10
1.748509
 20
3.687153
 30
0.0
 10
1.804339
 20
3.699518
 30
0.0
 10
1.857165
 20
3.721933
 30
0.0
 10
1.905407
 20
3.753279
 30
0.0
 10
1.947482
 20
3.792433
 30
0.0
 10
1.981812
 20
3.838275
 30
0.0
 10
2.006815
 20
3.889683
 30
0.0
 10
2.015325
 20
3.917124
 30
0.0
 10
2.020911
 20
3.945536
 30
0.0
 10
2.025030
 20
3.974049
 30
0.0
 10
2.026178
 20
4.002724
 30
0.0
 10
2.020054
 20
4.059716
 30
0.0
 10
2.003522
 20
4.114830
 30
0.0
 10
1.977562
 20
4.166386
 30
0.0
 10
1.943157
 20
4.212700
 30
0.0
 10
1.901289
 20
4.252091
 30
0.0
 10
1.852939
 20
4.282877
 30
0.0
 10
1.826640
 20
4.294518
 30
0.0
 10
1.799089
 20
4.303377
 30
0.0
 10
1.748061
 20
4.312886
 30
0.0
 10
1.695903
 20
4.314580
 30
0.0
 10
1.695903
 20
4.314580
 30
0.0
  0
LWPOLYLINE
  5
109
100
AcDbEntity
  8
Layer_1
 62
7
100
AcDbPolyline
 90
37
 70
0
 10
1.709136
 20
4.184726
 30
0.0
 10
1.739569
 20
4.183292
 30
0.0
 10
1.768787
 20
4.176187
 30
0.0
 10
1.796252
 20
4.164027
 30
0.0
 10
1.821426
 20
4.147426
 30
0.0
 10
1.843772
 20
4.126998
 30
0.0
 10
1.862751
 20
4.103357
 30
0.0
 10
1.877825
 20
4.077118
 30
0.0
 10
1.888457
 20
4.048896
 30
0.0
 10
1.893570
 20
4.027183
 30
0.0
 10
1.895664
 20
4.005068
 30
0.0
 10
1.891353
 20
3.960885
 30
0.0
 10
1.876644
 20
3.918867
 30
0.0
 10
1.852655
 20
3.881531
 30
0.0
 10
1.827578
 20
3.857442
 30
0.0
 10
1.798302
 20
3.838610
 30
0.0
 10
1.766011
 20
3.825324
 30
0.0
 10
1.731887
 20
3.817873
 30
0.0
 10
1.697115
 20
3.816547
 30
0.0
 10
1.662877
 20
3.821636
 30
0.0
 10
1.630359
 20
3.833429
 30
0.0
 10
1.600742
 20
3.852216
 30
0.0
 10
1.580843
 20
3.868374
 30
0.0
 10
1.563949
 20
3.887320
 30
0.0
 10
1.550132
 20
3.908560
 30
0.0
 10
1.539467
 20
3.931599
 30
0.0
 10
1.532025
 20
3.955946
 30
0.0
 10
1.527881
 20
3.981106
 30
0.0
 10
1.527108
 20
4.006585
 30
0.0
 10
1.529780
 20
4.031891
 30
0.0
 10
1.541120
 20
4.072890
 30
0.0
 10
1.561754
 20
4.109977
 30
0.0
 10
1.590518
 20
4.141107
 30
0.0
 10
1.626249
 20
4.164230
 30
0.0
 10
1.666490
 20
4.179311
 30
0.0
 10
1.709136
 20
4.184726
 30
0.0
 10
1.709136
 20
4.184726
 30
0.0
  0
LWPOLYLINE
  5
10a
100
AcDbEntity
  8
Layer_1
 62
7
100
AcDbPolyline
 90
44
 70
0
 10
3.968636
 20
7.442732
 30
0.0
 10
3.919989
 20
7.437567
 30
0.0
 10
3.873240
 20
7.424137
 30
0.0
 10
3.829241
 20
7.403276
 30
0.0
 10
3.788841
 20
7.375816
 30
0.0
 10
3.752892
 20
7.342588
 30
0.0
 10
3.722243
 20
7.304426
 30
0.0
 10
3.697746
 20
7.262162
 30
0.0
 10
3.680250
 20
7.216628
 30
0.0
 10
3.670942
 20
7.172241
 30
0.0
 10
3.668303
 20
7.126863
 30
0.0
 10
3.671951
 20
7.081508
 30
0.0
 10
3.681503
 20
7.037193
 30
0.0
 10
3.698968
 20
6.992703
 30
0.0
 10
3.723105
 20
6.951372
 30
0.0
 10
3.753127
 20
6.913992
 30
0.0
 10
3.788248
 20
6.881356
 30
0.0
 10
3.827681
 20
6.854258
 30
0.0
 10
3.870640
 20
6.833489
 30
0.0
 10
3.916338
 20
6.819843
 30
0.0
 10
3.963988
 20
6.814113
 30
0.0
 10
3.992694
 20
6.813242
 30
0.0
 10
4.021242
 20
6.815305
 30
0.0
 10
4.077072
 20
6.827670
 30
0.0
 10
4.129898
 20
6.850085
 30
0.0
 10
4.178139
 20
6.881431
 30
0.0
 10
4.220215
 20
6.920585
 30
0.0
 10
4.254545
 20
6.966426
 30
0.0
 10
4.279548
 20
7.017834
 30
0.0
 10
4.288058
 20
7.045275
 30
0.0
 10
4.293644
 20
7.073687
 30
0.0
 10
4.297763
 20
7.102201
 30
0.0
 10
4.298911
 20
7.130875
 30
0.0
 10
4.292787
 20
7.187868
 30
0.0
 10
4.276254
 20
7.242982
 30
0.0
 10
4.250295
 20
7.294537
 30
0.0
 10
4.215890
 20
7.340851
 30
0.0
 10
4.174021
 20
7.380242
 30
0.0
 10
4.125671
 20
7.411029
 30
0.0
 10
4.099373
 20
7.422670
 30
0.0
 10
4.071822
 20
7.431529
 30
0.0
 10
4.020794
 20
7.441038
 30
0.0
 10
3.968635
 20
7.442732
 30
0.0
 10
3.968636
 20
7.442732
 30
0.0
  0
LWPOLYLINE
  5
10b
100
AcDbEntity
  8
Layer_1
 62
7
100
AcDbPolyline
 90
37
 70
0
 10
3.981870
 20
7.312878
 30
0.0
 10
4.012303
 20
7.311443
 30
0.0
 10
4.041521
 20
7.304339
 30
0.0
 10
4.068986
 20
7.292179
 30
0.0
 10
4.094161
 20
7.275578
 30
0.0
 10
4.116506
 20
7.255150
 30
0.0
 10
4.135485
 20
7.231509
 30
0.0
 10
4.150559
 20
7.205270
 30
0.0
 10
4.161191
 20
7.177047
 30
0.0
 10
4.166303
 20
7.155335
 30
0.0
 10
4.168397
 20
7.133219
 30
0.0
 10
4.164087
 20
7.089037
 30
0.0
 10
4.149378
 20
7.047019
 30
0.0
 10
4.125388
 20
7.009683
 30
0.0
 10
4.100312
 20
6.985594
 30
0.0
 10
4.071036
 20
6.966762
 30
0.0
 10
4.038745
 20
6.953476
 30
0.0
 10
4.004621
 20
6.946025
 30
0.0
 10
3.969849
 20
6.944699
 30
0.0
 10
3.935612
 20
6.949788
 30
0.0
 10
3.903093
 20
6.961581
 30
0.0
 10
3.873476
 20
6.980368
 30
0.0
 10
3.853577
 20
6.996526
 30
0.0
 10
3.836683
 20
7.015472
 30
0.0
 10
3.822866
 20
7.036711
 30
0.0
 10
3.812201
 20
7.059751
 30
0.0
 10
3.804759
 20
7.084097
 30
0.0
 10
3.800615
 20
7.109257
 30
0.0
 10
3.799842
 20
7.134737
 30
0.0
 10
3.802513
 20
7.160043
 30
0.0
 10
3.813854
 20
7.201041
 30
0.0
 10
3.834488
 20
7.238129
 30
0.0
 10
3.863252
 20
7.269259
 30
0.0
 10
3.898983
 20
7.292382
 30
0.0
 10
3.939224
 20
7.307463
 30
0.0
 10
3.981870
 20
7.312878
 30
0.0
 10
3.981870
 20
7.312878
 30
0.0
  0
LWPOLYLINE
  5
10c
100
AcDbEntity
  8
Layer_1
 62
7
100
AcDbPolyline
 90
44
 70
0
 10
7.645997
 20
6.247884
 30
0.0
 10
7.597349
 20
6.242718
 30
0.0
 10
7.550601
 20
6.229289
 30
0.0
 10
7.506601
 20
6.208428
 30
0.0
 10
7.466202
 20
6.180967
 30
0.0
 10
7.430252
 20
6.147740
 30
0.0
 10
7.399604
 20
6.109578
 30
0.0
 10
7.375106
 20
6.067314
 30
0.0
 10
7.357610
 20
6.021780
 30
0.0
 10
7.348303
 20
5.977393
 30
0.0
 10
7.345664
 20
5.932014
 30
0.0
 10
7.349311
 20
5.886660
 30
0.0
 10
7.358864
 20
5.842345
 30
0.0
 10
7.376328
 20
5.797855
 30
0.0
 10
7.400465
 20
5.756524
 30
0.0
 10
7.430487
 20
5.719144
 30
0.0
 10
7.465608
 20
5.686508
 30
0.0
 10
7.505041
 20
5.659409
 30
0.0
 10
7.548000
 20
5.638641
 30
0.0
 10
7.593697
 20
5.624995
 30
0.0
 10
7.641347
 20
5.619265
 30
0.0
 10
7.670054
 20
5.618394
 30
0.0
 10
7.698601
 20
5.620457
 30
0.0
 10
7.754432
 20
5.632821
 30
0.0
 10
7.807258
 20
5.655237
 30
0.0
 10
7.855499
 20
5.686582
 30
0.0
 10
7.897575
 20
5.725736
 30
0.0
 10
7.931905
 20
5.771578
 30
0.0
 10
7.956908
 20
5.822986
 30
0.0
 10
7.965418
 20
5.850427
 30
0.0
 10
7.971004
 20
5.878839
 30
0.0
 10
7.975123
 20
5.907352
 30
0.0
 10
7.976271
 20
5.936027
 30
0.0
 10
7.970147
 20
5.993019
 30
0.0
 10
7.953614
 20
6.048134
 30
0.0
 10
7.927655
 20
6.099689
 30
0.0
 10
7.893249
 20
6.146003
 30
0.0
 10
7.851381
 20
6.185394
 30
0.0
 10
7.803031
 20
6.216181
 30
0.0
 10
7.776732
 20
6.227821
 30
0.0
 10
7.749181
 20
6.236681
 30
0.0
 10
7.698154
 20
6.246189
 30
0.0
 10
7.645996
 20
6.247884
 30
0.0
 10
7.645997
 20
6.247884
 30
0.0
  0
LWPOLYLINE
  5
10d
100
AcDbEntity
  8
Layer_1
 62
7
100
AcDbPolyline
 90
37
 70
0
 10
7.659230
 20
6.118029
 30
0.0
 10
7.689663
 20
6.116595
 30
0.0
 10
7.718881
 20
6.109491
 30
0.0
 10
7.746346
 20
6.097331
 30
0.0
 10
7.771520
 20
6.080729
 30
0.0
 10
7.793865
 20
6.060301
 30
0.0
 10
7.812844
 20
6.036661
 30
0.0
 10
7.827919
 20
6.010422
 30
0.0
 10
7.838551
 20
5.982199
 30
0.0
 10
7.843664
 20
5.960487
 30
0.0
 10
7.845757
 20
5.938371
 30
0.0
 10
7.841447
 20
5.894189
 30
0.0
 10
7.826738
 20
5.852170
 30
0.0
 10
7.802749
 20
5.814834
 30
0.0
 10
7.777672
 20
5.790746
 30
0.0
 10
7.748396
 20
5.771914
 30
0.0
 10
7.716105
 20
5.758627
 30
0.0
 10
7.681981
 20
5.751176
 30
0.0
 10
7.647209
 20
5.749851
 30
0.0
 10
7.612971
 20
5.754939
 30
0.0
 10
7.580453
 20
5.766732
 30
0.0
 10
7.550836
 20
5.785519
 30
0.0
 10
7.530938
 20
5.801678
 30
0.0
 10
7.514043
 20
5.820623
 30
0.0
 10
7.500227
 20
5.841863
 30
0.0
 10
7.489561
 20
5.864903
 30
0.0
 10
7.482119
 20
5.889249
 30
0.0
 10
7.477975
 20
5.914409
 30
0.0
 10
7.477202
 20
5.939889
 30
0.0
 10
7.479874
 20
5.965195
 30
0.0
 10
7.491214
 20
6.006193
 30
0.0
 10
7.511848
 20
6.043281
 30
0.0
 10
7.540612
 20
6.074410
 30
0.0
 10
7.576343
 20
6.097534
 30
0.0
 10
7.616583
 20
6.112614
 30
0.0
 10
7.659230
 20
6.118029
 30
0.0
 10
7.659230
 20
6.118029
 30
0.0
  0
ENDSEC
  0
SECTION
  2
OBJECTS
  0
DICTIONARY
  5
C
330
0
100
AcDbDictionary
  3
ACAD_GROUP
350
D
  3
ACAD_MLINESTYLE
350
17
  0
DICTIONARY
  5
D
330
C
100
AcDbDictionary
  0
DICTIONARY
  5
1A
330
C
100
AcDbDictionary
  0
DICTIONARY
  5
17
330
C
100
AcDbDictionary
  3
STANDARD
350
18
  0
DICTIONARY
  5
19
330
C
100
AcDbDictionary
  0
ENDSEC
  0
EOF
