  0
SECTION
  2
HEADER
  9
$ACADVER
  1
AC1014
  9
$HANDSEED
  5
FFFF
  9
$MEASUREMENT
 70
     1
  0
ENDSEC
  0
SECTION
  2
TABLES
  0
TABLE
  2
VPORT
  5
8
330
0
100
AcDbSymbolTable
 70
     4
  0
VPORT
  5
2E
330
8
100
AcDbSymbolTableRecord
100
AcDbViewportTableRecord
  2
*ACTIVE
 70
     0
 10
0.0
 20
0.0
 11
1.0
 21
1.0
 12
210.0
 22
148.5
 13
0.0
 23
0.0
 14
10.0
 24
10.0
 15
10.0
 25
10.0
 16
0.0
 26
0.0
 36
1.0
 17
0.0
 27
0.0
 37
0.0
 40
341.0
 41
1.24
 42
50.0
 43
0.0
 44
0.0
 50
0.0
 51
0.0
 71
     0
 72
   100
 73
     1
 74
     3
 75
     0
 76
     0
 77
     0
 78
     0
  0
ENDTAB
  0
TABLE
  2
LTYPE
  5
5
330
0
100
AcDbSymbolTable
 70
     1
  0
LTYPE
  5
14
330
5
100
AcDbSymbolTableRecord
100
AcDbLinetypeTableRecord
  2
BYBLOCK
 70
     0
  3

 72
    65
 73
     0
 40
0.0
  0
LTYPE
  5
15
330
5
100
AcDbSymbolTableRecord
100
AcDbLinetypeTableRecord
  2
BYLAYER
 70
     0
  3

 72
    65
 73
     0
 40
0.0
  0
LTYPE
  5
16
330
5
100
AcDbSymbolTableRecord
100
AcDbLinetypeTableRecord
  2
CONTINUOUS
 70
     0
  3
Solid line
 72
    65
 73
     0
 40
0.0
  0
ENDTAB
  0
TABLE
  2
LAYER
  5
2
100
AcDbSymbolTable
 70
2
  0
LAYER
  5
50
100
AcDbSymbolTableRecord
100
AcDbLayerTableRecord
  2
0
 70
0
  6
CONTINUOUS
  0
LAYER
  5
51
100
AcDbSymbolTableRecord
100
AcDbLayerTableRecord
  2
Layer_1
 70
0
  6
CONTINUOUS
  0
ENDTAB
  0
TABLE
  2
STYLE
  5
3
330
0
100
AcDbSymbolTable
 70
     1
  0
STYLE
  5
11
330
3
100
AcDbSymbolTableRecord
100
AcDbTextStyleTableRecord
  2
STANDARD
 70
     0
 40
0.0
 41
1.0
 50
0.0
 71
     0
 42
2.5
  3
txt
  4

  0
ENDTAB
  0
TABLE
  2
VIEW
  5
6
330
0
100
AcDbSymbolTable
 70
     0
  0
ENDTAB
  0
TABLE
  2
UCS
  5
7
330
0
100
AcDbSymbolTable
 70
     0
  0
ENDTAB
  0
TABLE
  2
APPID
  5
9
330
0
100
AcDbSymbolTable
 70
     2
  0
APPID
  5
12
330
9
100
AcDbSymbolTableRecord
100
AcDbRegAppTableRecord
  2
ACAD
 70
     0
  0
ENDTAB
  0
TABLE
  2
DIMSTYLE
  5
A
330
0
100
AcDbSymbolTable
 70
     1
  0
DIMSTYLE
105
27
330
A
100
AcDbSymbolTableRecord
100
AcDbDimStyleTableRecord
  2
ISO-25
 70
     0
  3

  4

  5

  6

  7

 40
1.0
 41
2.5
 42
0.625
 43
3.75
 44
1.25
 45
0.0
 46
0.0
 47
0.0
 48
0.0
140
2.5
141
2.5
142
0.0
143
0.03937007874016
144
1.0
145
0.0
146
1.0
147
0.625
 71
     0
 72
     0
 73
     0
 74
     0
 75
     0
 76
     0
 77
     1
 78
     8
170
     0
171
     3
172
     1
173
     0
174
     0
175
     0
176
     0
177
     0
178
     0
270
     2
271
     2
272
     2
273
     2
274
     3
340
11
275
     0
280
     0
281
     0
282
     0
283
     0
284
     8
285
     0
286
     0
287
     3
288
     0
  0
ENDTAB
  0
TABLE
  2
BLOCK_RECORD
  5
1
330
0
100
AcDbSymbolTable
 70
     1
  0
BLOCK_RECORD
  5
1F
330
1
100
AcDbSymbolTableRecord
100
AcDbBlockTableRecord
  2
*MODEL_SPACE
  0
BLOCK_RECORD
  5
1B
330
1
100
AcDbSymbolTableRecord
100
AcDbBlockTableRecord
  2
*PAPER_SPACE
  0
ENDTAB
  0
ENDSEC
  0
SECTION
  2
BLOCKS
  0
BLOCK
  5
20
330
1F
100
AcDbEntity
  8
0
100
AcDbBlockBegin
  2
*MODEL_SPACE
 70
     0
 10
0.0
 20
0.0
 30
0.0
  3
*MODEL_SPACE
  1

  0
ENDBLK
  5
21
330
1F
100
AcDbEntity
  8
0
100
AcDbBlockEnd
  0
BLOCK
  5
1C
330
1B
100
AcDbEntity
 67
     1
  8
0
100
AcDbBlockBegin
  2
*PAPER_SPACE
  1

  0
ENDBLK
  5
1D
330
1B
100
AcDbEntity
 67
     1
  8
0
100
AcDbBlockEnd
  0
ENDSEC
  0
SECTION
  2
ENTITIES
  0
LWPOLYLINE
  5
100
100
AcDbEntity
  8
Layer_1
 62
7
100
AcDbPolyline
 90
8
 70
1
 10
-0.000000
 20
8.000001
 30
0.0
 10
-0.000000
 20
6.999986
 30
0.0
 10
0.028332
 20
6.999986
 30
0.0
 10
0.028332
 20
7.971615
 30
0.0
 10
1.000016
 20
7.971615
 30
0.0
 10
1.000016
 20
8.000001
 30
0.0
 10
-0.000000
 20
8.000001
 30
0.0
 10
-0.000000
 20
8.000001
 30
0.0
  0
LWPOLYLINE
  5
101
100
AcDbEntity
  8
Layer_1
 62
7
100
AcDbPolyline
 90
9
 70
1
 10
7.999985
 20
8.000001
 30
0.0
 10
7.999985
 20
7.971615
 30
0.0
 10
8.971667
 20
7.971615
 30
0.0
 10
8.971667
 20
6.999986
 30
0.0
 10
9.000000
 20
6.999986
 30
0.0
 10
9.000000
 20
7.985780
 30
0.0
 10
9.000000
 20
8.000001
 30
0.0
 10
7.999985
 20
8.000001
 30
0.0
 10
7.999985
 20
8.000001
 30
0.0
  0
LWPOLYLINE
  5
102
100
AcDbEntity
  8
Layer_1
 62
7
100
AcDbPolyline
 90
8
 70
1
 10
0.000010
 20
0.799978
 30
0.0
 10
0.000010
 20
0.000000
 30
0.0
 10
1.000024
 20
0.000000
 30
0.0
 10
1.000024
 20
0.028332
 30
0.0
 10
0.028342
 20
0.028332
 30
0.0
 10
0.028342
 20
0.799978
 30
0.0
 10
0.000010
 20
0.799978
 30
0.0
 10
0.000010
 20
0.799978
 30
0.0
  0
LWPOLYLINE
  5
103
100
AcDbEntity
  8
Layer_1
 62
7
100
AcDbPolyline
 90
8
 70
1
 10
8.971667
 20
0.799978
 30
0.0
 10
8.971667
 20
0.028332
 30
0.0
 10
7.999985
 20
0.028332
 30
0.0
 10
7.999985
 20
0.000000
 30
0.0
 10
9.000000
 20
0.000000
 30
0.0
 10
9.000000
 20
0.799978
 30
0.0
 10
8.971667
 20
0.799978
 30
0.0
 10
8.971667
 20
0.799978
 30
0.0
  0
LWPOLYLINE
  5
104
100
AcDbEntity
  8
Layer_1
 62
7
100
AcDbPolyline
 90
179
 70
0
 10
3.977207
 20
7.638352
 30
0.0
 10
3.901083
 20
7.631513
 30
0.0
 10
3.826835
 20
7.613382
 30
0.0
 10
3.732237
 20
7.571739
 30
0.0
 10
3.650330
 20
7.513859
 30
0.0
 10
3.582434
 20
7.442329
 30
0.0
 10
3.529864
 20
7.359733
 30
0.0
 10
3.493937
 20
7.268657
 30
0.0
 10
3.475972
 20
7.171684
 30
0.0
 10
3.477285
 20
7.071400
 30
0.0
 10
3.499193
 20
6.970389
 30
0.0
 10
3.499306
 20
6.970059
 30
0.0
 10
3.602603
 20
6.652063
 30
0.0
 10
3.451385
 20
6.566497
 30
0.0
 10
3.306223
 20
6.472910
 30
0.0
 10
3.167363
 20
6.371640
 30
0.0
 10
3.035052
 20
6.263027
 30
0.0
 10
2.909536
 20
6.147409
 30
0.0
 10
2.791062
 20
6.025126
 30
0.0
 10
2.679874
 20
5.896517
 30
0.0
 10
2.576220
 20
5.761922
 30
0.0
 10
2.480346
 20
5.621678
 30
0.0
 10
2.392497
 20
5.476125
 30
0.0
 10
2.312921
 20
5.325603
 30
0.0
 10
2.241863
 20
5.170451
 30
0.0
 10
2.179569
 20
5.011006
 30
0.0
 10
2.126285
 20
4.847610
 30
0.0
 10
2.082259
 20
4.680600
 30
0.0
 10
2.047735
 20
4.510316
 30
0.0
 10
1.712045
 20
4.510316
 30
0.0
 10
1.711715
 20
4.510316
 30
0.0
 10
1.608870
 20
4.499944
 30
0.0
 10
1.513081
 20
4.470207
 30
0.0
 10
1.426398
 20
4.423155
 30
0.0
 10
1.350874
 20
4.360842
 30
0.0
 10
1.288560
 20
4.285317
 30
0.0
 10
1.241509
 20
4.198635
 30
0.0
 10
1.211771
 20
4.102845
 30
0.0
 10
1.201400
 20
4.000001
 30
0.0
 10
1.211771
 20
3.897156
 30
0.0
 10
1.241509
 20
3.801367
 30
0.0
 10
1.288560
 20
3.714684
 30
0.0
 10
1.350874
 20
3.639160
 30
0.0
 10
1.426398
 20
3.576846
 30
0.0
 10
1.513081
 20
3.529795
 30
0.0
 10
1.608870
 20
3.500057
 30
0.0
 10
1.711715
 20
3.489686
 30
0.0
 10
1.712045
 20
3.489686
 30
0.0
 10
2.044648
 20
3.489686
 30
0.0
 10
2.079305
 20
3.319294
 30
0.0
 10
2.123477
 20
3.152189
 30
0.0
 10
2.176917
 20
2.988709
 30
0.0
 10
2.239377
 20
2.829194
 30
0.0
 10
2.310611
 20
2.673985
 30
0.0
 10
2.390372
 20
2.523420
 30
0.0
 10
2.478413
 20
2.377839
 30
0.0
 10
2.574486
 20
2.237582
 30
0.0
 10
2.678345
 20
2.102989
 30
0.0
 10
2.789743
 20
1.974398
 30
0.0
 10
2.908432
 20
1.852150
 30
0.0
 10
3.034166
 20
1.736585
 30
0.0
 10
3.166696
 20
1.628041
 30
0.0
 10
3.305778
 20
1.526859
 30
0.0
 10
3.451162
 20
1.433378
 30
0.0
 10
3.602603
 20
1.347938
 30
0.0
 10
3.499306
 20
1.030054
 30
0.0
 10
3.499306
 20
1.029771
 30
0.0
 10
3.499136
 20
1.029489
 30
0.0
 10
3.477216
 20
0.928472
 30
0.0
 10
3.475896
 20
0.828179
 30
0.0
 10
3.493857
 20
0.731197
 30
0.0
 10
3.529782
 20
0.640110
 30
0.0
 10
3.582355
 20
0.557506
 30
0.0
 10
3.650256
 20
0.485969
 30
0.0
 10
3.732170
 20
0.428085
 30
0.0
 10
3.826778
 20
0.386440
 30
0.0
 10
3.927789
 20
0.364532
 30
0.0
 10
4.028073
 20
0.363219
 30
0.0
 10
4.125047
 20
0.381184
 30
0.0
 10
4.216124
 20
0.417111
 30
0.0
 10
4.298720
 20
0.469681
 30
0.0
 10
4.370250
 20
0.537578
 30
0.0
 10
4.428130
 20
0.619485
 30
0.0
 10
4.469773
 20
0.714083
 30
0.0
 10
4.469773
 20
0.714422
 30
0.0
 10
4.573676
 20
1.034236
 30
0.0
 10
4.786604
 20
1.009460
 30
0.0
 10
5.000757
 20
0.999952
 30
0.0
 10
5.291963
 20
1.014123
 30
0.0
 10
5.578408
 20
1.056104
 30
0.0
 10
5.858223
 20
1.125137
 30
0.0
 10
6.129539
 20
1.220461
 30
0.0
 10
6.390484
 20
1.341318
 30
0.0
 10
6.639189
 20
1.486947
 30
0.0
 10
6.873784
 20
1.656589
 30
0.0
 10
7.092399
 20
1.849485
 30
0.0
 10
7.361394
 20
1.654024
 30
0.0
 10
7.361676
 20
1.654024
 30
0.0
 10
7.361958
 20
1.653742
 30
0.0
 10
7.451259
 20
1.601676
 30
0.0
 10
7.546236
 20
1.569426
 30
0.0
 10
7.644023
 20
1.556537
 30
0.0
 10
7.741755
 20
1.562556
 30
0.0
 10
7.836564
 20
1.587029
 30
0.0
 10
7.925584
 20
1.629502
 30
0.0
 10
8.005949
 20
1.689521
 30
0.0
 10
8.074792
 20
1.766631
 30
0.0
 10
8.126857
 20
1.855931
 30
0.0
 10
8.159107
 20
1.950908
 30
0.0
 10
8.171996
 20
2.048695
 30
0.0
 10
8.165977
 20
2.146426
 30
0.0
 10
8.141504
 20
2.241235
 30
0.0
 10
8.099031
 20
2.330255
 30
0.0
 10
8.039013
 20
2.410619
 30
0.0
 10
7.961903
 20
2.479462
 30
0.0
 10
7.961565
 20
2.479632
 30
0.0
 10
7.689596
 20
2.677242
 30
0.0
 10
7.761375
 20
2.833330
 30
0.0
 10
7.823958
 20
2.992874
 30
0.0
 10
7.877251
 20
3.155468
 30
0.0
 10
7.921155
 20
3.320701
 30
0.0
 10
7.955576
 20
3.488168
 30
0.0
 10
7.980418
 20
3.657459
 30
0.0
 10
7.995583
 20
3.828167
 30
0.0
 10
8.000977
 20
3.999883
 30
0.0
 10
7.995831
 20
4.171690
 30
0.0
 10
7.980902
 20
4.342502
 30
0.0
 10
7.956286
 20
4.511909
 30
0.0
 10
7.922079
 20
4.679503
 30
0.0
 10
7.878376
 20
4.844875
 30
0.0
 10
7.825273
 20
5.007616
 30
0.0
 10
7.762866
 20
5.167318
 30
0.0
 10
7.691249
 20
5.323572
 30
0.0
 10
7.961621
 20
5.520025
 30
0.0
 10
7.961621
 20
5.520138
 30
0.0
 10
7.961903
 20
5.520364
 30
0.0
 10
8.039002
 20
5.589204
 30
0.0
 10
8.099012
 20
5.669563
 30
0.0
 10
8.141479
 20
5.758575
 30
0.0
 10
8.165950
 20
5.853375
 30
0.0
 10
8.171970
 20
5.951097
 30
0.0
 10
8.159087
 20
6.048875
 30
0.0
 10
8.126845
 20
6.143845
 30
0.0
 10
8.074792
 20
6.233140
 30
0.0
 10
7.989945
 20
6.324138
 30
0.0
 10
7.887183
 20
6.391111
 30
0.0
 10
7.771413
 20
6.431642
 30
0.0
 10
7.647544
 20
6.443319
 30
0.0
 10
7.647544
 20
6.443206
 30
0.0
 10
7.571274
 20
6.435269
 30
0.0
 10
7.497457
 20
6.416131
 30
0.0
 10
7.427315
 20
6.386208
 30
0.0
 10
7.362071
 20
6.345916
 30
0.0
 10
7.361789
 20
6.345691
 30
0.0
 10
7.090370
 20
6.148466
 30
0.0
 10
6.872080
 20
6.341426
 30
0.0
 10
6.637810
 20
6.511180
 30
0.0
 10
6.389424
 20
6.656968
 30
0.0
 10
6.128787
 20
6.778030
 30
0.0
 10
5.857766
 20
6.873606
 30
0.0
 10
5.578225
 20
6.942936
 30
0.0
 10
5.292030
 20
6.985260
 30
0.0
 10
5.001045
 20
6.999818
 30
0.0
 10
4.786875
 20
6.990641
 30
0.0
 10
4.573907
 20
6.966194
 30
0.0
 10
4.470225
 20
7.285347
 30
0.0
 10
4.469942
 20
7.285347
 30
0.0
 10
4.469942
 20
7.285630
 30
0.0
 10
4.438118
 20
7.361984
 30
0.0
 10
4.395309
 20
7.430902
 30
0.0
 10
4.342762
 20
7.491491
 30
0.0
 10
4.281724
 20
7.542858
 30
0.0
 10
4.213441
 20
7.584109
 30
0.0
 10
4.139160
 20
7.614352
 30
0.0
 10
4.060130
 20
7.632694
 30
0.0
 10
3.977595
 20
7.638242
 30
0.0
 10
3.977538
 20
7.638242
 30
0.0
 10
3.977482
 20
7.638242
 30
0.0
 10
3.977207
 20
7.638352
 30
0.0
  0
LWPOLYLINE
  5
105
100
AcDbEntity
  8
Layer_1
 62
7
100
AcDbPolyline
 90
19
 70
0
 10
3.975333
 20
7.317986
 30
0.0
 10
4.037101
 20
7.310462
 30
0.0
 10
4.091884
 20
7.284224
 30
0.0
 10
4.135631
 20
7.242084
 30
0.0
 10
4.164289
 20
7.186852
 30
0.0
 10
4.172886
 20
7.111975
 30
0.0
 10
4.152782
 20
7.041943
 30
0.0
 10
4.107936
 20
6.984516
 30
0.0
 10
4.042305
 20
6.947459
 30
0.0
 10
3.967429
 20
6.938862
 30
0.0
 10
3.897396
 20
6.958966
 30
0.0
 10
3.839970
 20
7.003812
 30
0.0
 10
3.802913
 20
7.069443
 30
0.0
 10
3.794316
 20
7.144319
 30
0.0
 10
3.814419
 20
7.214352
 30
0.0
 10
3.859265
 20
7.271778
 30
0.0
 10
3.924896
 20
7.308836
 30
0.0
 10
3.975333
 20
7.317986
 30
0.0
 10
3.975333
 20
7.317986
 30
0.0
  0
LWPOLYLINE
  5
106
100
AcDbEntity
  8
Layer_1
 62
7
100
AcDbPolyline
 90
66
 70
0
 10
5.000757
 20
6.599973
 30
0.0
 10
5.257739
 20
6.587252
 30
0.0
 10
5.510368
 20
6.549557
 30
0.0
 10
5.756940
 20
6.487593
 30
0.0
 10
5.995749
 20
6.402065
 30
0.0
 10
6.225091
 20
6.293681
 30
0.0
 10
6.443261
 20
6.163147
 30
0.0
 10
6.648553
 20
6.011168
 30
0.0
 10
6.839263
 20
5.838451
 30
0.0
 10
7.011980
 20
5.647741
 30
0.0
 10
7.163959
 20
5.442449
 30
0.0
 10
7.294494
 20
5.224279
 30
0.0
 10
7.402878
 20
4.994937
 30
0.0
 10
7.488405
 20
4.756128
 30
0.0
 10
7.550370
 20
4.509556
 30
0.0
 10
7.588066
 20
4.256927
 30
0.0
 10
7.600786
 20
3.999945
 30
0.0
 10
7.588060
 20
3.742967
 30
0.0
 10
7.550360
 20
3.490342
 30
0.0
 10
7.488392
 20
3.243775
 30
0.0
 10
7.402862
 20
3.004970
 30
0.0
 10
7.294476
 20
2.775633
 30
0.0
 10
7.163940
 20
2.557469
 30
0.0
 10
7.011960
 20
2.352181
 30
0.0
 10
6.839243
 20
2.161476
 30
0.0
 10
6.648534
 20
1.988763
 30
0.0
 10
6.443243
 20
1.836788
 30
0.0
 10
6.225076
 20
1.706257
 30
0.0
 10
5.995736
 20
1.597876
 30
0.0
 10
5.756930
 20
1.512351
 30
0.0
 10
5.510361
 20
1.450388
 30
0.0
 10
5.257735
 20
1.412693
 30
0.0
 10
5.000757
 20
1.399974
 30
0.0
 10
4.734926
 20
1.413400
 30
0.0
 10
4.476775
 20
1.452801
 30
0.0
 10
4.227609
 20
1.516870
 30
0.0
 10
3.988736
 20
1.604300
 30
0.0
 10
3.761463
 20
1.713785
 30
0.0
 10
3.547096
 20
1.844017
 30
0.0
 10
3.346942
 20
1.993690
 30
0.0
 10
3.162308
 20
2.161496
 30
0.0
 10
2.994502
 20
2.346130
 30
0.0
 10
2.844829
 20
2.546284
 30
0.0
 10
2.714597
 20
2.760651
 30
0.0
 10
2.605112
 20
2.987924
 30
0.0
 10
2.517682
 20
3.226797
 30
0.0
 10
2.453613
 20
3.475963
 30
0.0
 10
2.414212
 20
3.734115
 30
0.0
 10
2.400786
 20
3.999945
 30
0.0
 10
2.414207
 20
4.265780
 30
0.0
 10
2.453603
 20
4.523936
 30
0.0
 10
2.517669
 20
4.773107
 30
0.0
 10
2.605096
 20
5.011984
 30
0.0
 10
2.714579
 20
5.239263
 30
0.0
 10
2.844810
 20
5.453634
 30
0.0
 10
2.994482
 20
5.653792
 30
0.0
 10
3.162289
 20
5.838430
 30
0.0
 10
3.346923
 20
6.006241
 30
0.0
 10
3.547078
 20
6.155918
 30
0.0
 10
3.761447
 20
6.286153
 30
0.0
 10
3.988723
 20
6.395641
 30
0.0
 10
4.227598
 20
6.483073
 30
0.0
 10
4.476767
 20
6.547144
 30
0.0
 10
4.734923
 20
6.586546
 30
0.0
 10
5.000757
 20
6.599973
 30
0.0
 10
5.000757
 20
6.599973
 30
0.0
  0
LWPOLYLINE
  5
107
100
AcDbEntity
  8
Layer_1
 62
7
100
AcDbPolyline
 90
20
 70
0
 10
7.669081
 20
6.123116
 30
0.0
 10
7.711460
 20
6.116465
 30
0.0
 10
7.750801
 20
6.100716
 30
0.0
 10
7.785676
 20
6.076640
 30
0.0
 10
7.814657
 20
6.045009
 30
0.0
 10
7.846000
 20
5.976446
 30
0.0
 10
7.848539
 20
5.903617
 30
0.0
 10
7.823637
 20
5.835132
 30
0.0
 10
7.772654
 20
5.779599
 30
0.0
 10
7.704090
 20
5.748257
 30
0.0
 10
7.631262
 20
5.745717
 30
0.0
 10
7.562776
 20
5.770619
 30
0.0
 10
7.507243
 20
5.821602
 30
0.0
 10
7.475914
 20
5.890175
 30
0.0
 10
7.473388
 20
5.963007
 30
0.0
 10
7.498305
 20
6.031489
 30
0.0
 10
7.549303
 20
6.087012
 30
0.0
 10
7.606137
 20
6.115200
 30
0.0
 10
7.669081
 20
6.123116
 30
0.0
 10
7.669081
 20
6.123116
 30
0.0
  0
LWPOLYLINE
  5
108
100
AcDbEntity
  8
Layer_1
 62
7
100
AcDbPolyline
 90
18
 70
0
 10
1.710885
 20
4.190005
 30
0.0
 10
1.784754
 20
4.175034
 30
0.0
 10
1.845140
 20
4.134271
 30
0.0
 10
1.885887
 20
4.073873
 30
0.0
 10
1.900834
 20
4.000000
 30
0.0
 10
1.885887
 20
3.926128
 30
0.0
 10
1.845140
 20
3.865731
 30
0.0
 10
1.784754
 20
3.824967
 30
0.0
 10
1.710885
 20
3.809997
 30
0.0
 10
1.636998
 20
3.824949
 30
0.0
 10
1.576594
 20
3.865709
 30
0.0
 10
1.535834
 20
3.926113
 30
0.0
 10
1.520881
 20
4.000000
 30
0.0
 10
1.535834
 20
4.073887
 30
0.0
 10
1.576594
 20
4.134292
 30
0.0
 10
1.636998
 20
4.175052
 30
0.0
 10
1.710885
 20
4.190005
 30
0.0
 10
1.710885
 20
4.190005
 30
0.0
  0
LWPOLYLINE
  5
109
100
AcDbEntity
  8
Layer_1
 62
7
100
AcDbPolyline
 90
20
 70
0
 10
7.666380
 20
2.256617
 30
0.0
 10
7.722254
 20
2.246539
 30
0.0
 10
7.772654
 20
2.220402
 30
0.0
 10
7.823637
 20
2.164869
 30
0.0
 10
7.848539
 20
2.096384
 30
0.0
 10
7.846000
 20
2.023555
 30
0.0
 10
7.814657
 20
1.954992
 30
0.0
 10
7.759133
 20
1.904032
 30
0.0
 10
7.690664
 20
1.879138
 30
0.0
 10
7.617853
 20
1.881670
 30
0.0
 10
7.549303
 20
1.912989
 30
0.0
 10
7.498305
 20
1.968512
 30
0.0
 10
7.473388
 20
2.036994
 30
0.0
 10
7.475914
 20
2.109826
 30
0.0
 10
7.507243
 20
2.178399
 30
0.0
 10
7.538847
 20
2.212275
 30
0.0
 10
7.577130
 20
2.237205
 30
0.0
 10
7.620253
 20
2.252286
 30
0.0
 10
7.666380
 20
2.256617
 30
0.0
 10
7.666380
 20
2.256617
 30
0.0
  0
LWPOLYLINE
  5
10a
100
AcDbEntity
  8
Layer_1
 62
7
100
AcDbPolyline
 90
19
 70
0
 10
3.986302
 20
1.061804
 30
0.0
 10
4.042305
 20
1.052541
 30
0.0
 10
4.107936
 20
1.015485
 30
0.0
 10
4.152782
 20
0.958059
 30
0.0
 10
4.172886
 20
0.888026
 30
0.0
 10
4.164289
 20
0.813149
 30
0.0
 10
4.127245
 20
0.747500
 30
0.0
 10
4.069821
 20
0.702638
 30
0.0
 10
3.999784
 20
0.682522
 30
0.0
 10
3.924896
 20
0.691110
 30
0.0
 10
3.859247
 20
0.728173
 30
0.0
 10
3.814394
 20
0.785615
 30
0.0
 10
3.794296
 20
0.855666
 30
0.0
 10
3.802913
 20
0.930559
 30
0.0
 10
3.830719
 20
0.984622
 30
0.0
 10
3.873049
 20
1.026302
 30
0.0
 10
3.926157
 20
1.052921
 30
0.0
 10
3.986302
 20
1.061804
 30
0.0
 10
3.986302
 20
1.061804
 30
0.0
  0
LWPOLYLINE
  5
10b
100
AcDbEntity
  8
Layer_1
 62
7
100
AcDbPolyline
 90
8
 70
1
 10
0.000000
 20
8.000000
 30
0.0
 10
0.000000
 20
6.999985
 30
0.0
 10
0.028333
 20
6.999985
 30
0.0
 10
0.028333
 20
7.971614
 30
0.0
 10
1.000017
 20
7.971614
 30
0.0
 10
1.000017
 20
8.000000
 30
0.0
 10
0.000000
 20
8.000000
 30
0.0
 10
0.000000
 20
8.000000
 30
0.0
  0
ENDSEC
  0
SECTION
  2
OBJECTS
  0
DICTIONARY
  5
C
330
0
100
AcDbDictionary
  3
ACAD_GROUP
350
D
  3
ACAD_MLINESTYLE
350
17
  0
DICTIONARY
  5
D
330
C
100
AcDbDictionary
  0
DICTIONARY
  5
1A
330
C
100
AcDbDictionary
  0
DICTIONARY
  5
17
330
C
100
AcDbDictionary
  3
STANDARD
350
18
  0
DICTIONARY
  5
19
330
C
100
AcDbDictionary
  0
ENDSEC
  0
EOF
