  0
SECTION
  2
HEADER
  9
$ACADVER
  1
AC1014
  9
$HANDSEED
  5
FFFF
  9
$MEASUREMENT
 70
     1
  0
ENDSEC
  0
SECTION
  2
TABLES
  0
TABLE
  2
VPORT
  5
8
330
0
100
AcDbSymbolTable
 70
     4
  0
VPORT
  5
2E
330
8
100
AcDbSymbolTableRecord
100
AcDbViewportTableRecord
  2
*ACTIVE
 70
     0
 10
0.0
 20
0.0
 11
1.0
 21
1.0
 12
210.0
 22
148.5
 13
0.0
 23
0.0
 14
10.0
 24
10.0
 15
10.0
 25
10.0
 16
0.0
 26
0.0
 36
1.0
 17
0.0
 27
0.0
 37
0.0
 40
341.0
 41
1.24
 42
50.0
 43
0.0
 44
0.0
 50
0.0
 51
0.0
 71
     0
 72
   100
 73
     1
 74
     3
 75
     0
 76
     0
 77
     0
 78
     0
  0
ENDTAB
  0
TABLE
  2
LTYPE
  5
5
330
0
100
AcDbSymbolTable
 70
     1
  0
LTYPE
  5
14
330
5
100
AcDbSymbolTableRecord
100
AcDbLinetypeTableRecord
  2
BYBLOCK
 70
     0
  3

 72
    65
 73
     0
 40
0.0
  0
LTYPE
  5
15
330
5
100
AcDbSymbolTableRecord
100
AcDbLinetypeTableRecord
  2
BYLAYER
 70
     0
  3

 72
    65
 73
     0
 40
0.0
  0
LTYPE
  5
16
330
5
100
AcDbSymbolTableRecord
100
AcDbLinetypeTableRecord
  2
CONTINUOUS
 70
     0
  3
Solid line
 72
    65
 73
     0
 40
0.0
  0
ENDTAB
  0
TABLE
  2
LAYER
  5
2
100
AcDbSymbolTable
 70
2
  0
LAYER
  5
50
100
AcDbSymbolTableRecord
100
AcDbLayerTableRecord
  2
0
 70
0
  6
CONTINUOUS
  0
LAYER
  5
51
100
AcDbSymbolTableRecord
100
AcDbLayerTableRecord
  2
Layer_1
 70
0
  6
CONTINUOUS
  0
ENDTAB
  0
TABLE
  2
STYLE
  5
3
330
0
100
AcDbSymbolTable
 70
     1
  0
STYLE
  5
11
330
3
100
AcDbSymbolTableRecord
100
AcDbTextStyleTableRecord
  2
STANDARD
 70
     0
 40
0.0
 41
1.0
 50
0.0
 71
     0
 42
2.5
  3
txt
  4

  0
ENDTAB
  0
TABLE
  2
VIEW
  5
6
330
0
100
AcDbSymbolTable
 70
     0
  0
ENDTAB
  0
TABLE
  2
UCS
  5
7
330
0
100
AcDbSymbolTable
 70
     0
  0
ENDTAB
  0
TABLE
  2
APPID
  5
9
330
0
100
AcDbSymbolTable
 70
     2
  0
APPID
  5
12
330
9
100
AcDbSymbolTableRecord
100
AcDbRegAppTableRecord
  2
ACAD
 70
     0
  0
ENDTAB
  0
TABLE
  2
DIMSTYLE
  5
A
330
0
100
AcDbSymbolTable
 70
     1
  0
DIMSTYLE
105
27
330
A
100
AcDbSymbolTableRecord
100
AcDbDimStyleTableRecord
  2
ISO-25
 70
     0
  3

  4

  5

  6

  7

 40
1.0
 41
2.5
 42
0.625
 43
3.75
 44
1.25
 45
0.0
 46
0.0
 47
0.0
 48
0.0
140
2.5
141
2.5
142
0.0
143
0.03937007874016
144
1.0
145
0.0
146
1.0
147
0.625
 71
     0
 72
     0
 73
     0
 74
     0
 75
     0
 76
     0
 77
     1
 78
     8
170
     0
171
     3
172
     1
173
     0
174
     0
175
     0
176
     0
177
     0
178
     0
270
     2
271
     2
272
     2
273
     2
274
     3
340
11
275
     0
280
     0
281
     0
282
     0
283
     0
284
     8
285
     0
286
     0
287
     3
288
     0
  0
ENDTAB
  0
TABLE
  2
BLOCK_RECORD
  5
1
330
0
100
AcDbSymbolTable
 70
     1
  0
BLOCK_RECORD
  5
1F
330
1
100
AcDbSymbolTableRecord
100
AcDbBlockTableRecord
  2
*MODEL_SPACE
  0
BLOCK_RECORD
  5
1B
330
1
100
AcDbSymbolTableRecord
100
AcDbBlockTableRecord
  2
*PAPER_SPACE
  0
ENDTAB
  0
ENDSEC
  0
SECTION
  2
BLOCKS
  0
BLOCK
  5
20
330
1F
100
AcDbEntity
  8
0
100
AcDbBlockBegin
  2
*MODEL_SPACE
 70
     0
 10
0.0
 20
0.0
 30
0.0
  3
*MODEL_SPACE
  1

  0
ENDBLK
  5
21
330
1F
100
AcDbEntity
  8
0
100
AcDbBlockEnd
  0
BLOCK
  5
1C
330
1B
100
AcDbEntity
 67
     1
  8
0
100
AcDbBlockBegin
  2
*PAPER_SPACE
  1

  0
ENDBLK
  5
1D
330
1B
100
AcDbEntity
 67
     1
  8
0
100
AcDbBlockEnd
  0
ENDSEC
  0
SECTION
  2
ENTITIES
  0
LWPOLYLINE
  5
100
100
AcDbEntity
  8
Layer_1
 62
7
100
AcDbPolyline
 90
79
 70
0
 10
1.750567
 20
3.929644
 30
0.0
 10
1.450541
 20
3.922643
 30
0.0
 10
1.520112
 20
3.734976
 30
0.0
 10
1.576639
 20
3.544628
 30
0.0
 10
1.620206
 20
3.352225
 30
0.0
 10
1.650898
 20
3.158391
 30
0.0
 10
1.668801
 20
2.963752
 30
0.0
 10
1.674000
 20
2.768934
 30
0.0
 10
1.666578
 20
2.574562
 30
0.0
 10
1.646623
 20
2.381261
 30
0.0
 10
1.614218
 20
2.189656
 30
0.0
 10
1.569449
 20
2.000373
 30
0.0
 10
1.512401
 20
1.814037
 30
0.0
 10
1.443158
 20
1.631274
 30
0.0
 10
1.361807
 20
1.452708
 30
0.0
 10
1.268431
 20
1.278965
 30
0.0
 10
1.163117
 20
1.110671
 30
0.0
 10
1.045949
 20
0.948451
 30
0.0
 10
1.049973
 20
0.948011
 30
0.0
 10
1.002943
 20
0.876944
 30
0.0
 10
0.968588
 20
0.799591
 30
0.0
 10
0.947488
 20
0.717624
 30
0.0
 10
0.940226
 20
0.632715
 30
0.0
 10
0.950597
 20
0.529871
 30
0.0
 10
0.980335
 20
0.434082
 30
0.0
 10
1.027386
 20
0.347399
 30
0.0
 10
1.089700
 20
0.271875
 30
0.0
 10
1.165224
 20
0.209561
 30
0.0
 10
1.251907
 20
0.162509
 30
0.0
 10
1.347697
 20
0.132772
 30
0.0
 10
1.450541
 20
0.122400
 30
0.0
 10
1.553385
 20
0.132772
 30
0.0
 10
1.649175
 20
0.162509
 30
0.0
 10
1.735857
 20
0.209561
 30
0.0
 10
1.811382
 20
0.271875
 30
0.0
 10
1.873695
 20
0.347399
 30
0.0
 10
1.920747
 20
0.434082
 30
0.0
 10
1.950484
 20
0.529871
 30
0.0
 10
1.960856
 20
0.632715
 30
0.0
 10
1.946053
 20
0.753833
 30
0.0
 10
1.902923
 20
0.867974
 30
0.0
 10
1.903363
 20
0.868304
 30
0.0
 10
1.895812
 20
0.898731
 30
0.0
 10
1.911294
 20
0.940950
 30
0.0
 10
1.950327
 20
0.963279
 30
0.0
 10
1.948783
 20
0.967358
 30
0.0
 10
2.126842
 20
1.002933
 30
0.0
 10
2.301293
 20
1.048869
 30
0.0
 10
2.471755
 20
1.104879
 30
0.0
 10
2.637848
 20
1.170678
 30
0.0
 10
2.799191
 20
1.245980
 30
0.0
 10
2.955403
 20
1.330500
 30
0.0
 10
3.106105
 20
1.423952
 30
0.0
 10
3.250914
 20
1.526050
 30
0.0
 10
3.389451
 20
1.636510
 30
0.0
 10
3.521335
 20
1.755044
 30
0.0
 10
3.646185
 20
1.881369
 30
0.0
 10
3.763621
 20
2.015198
 30
0.0
 10
3.873261
 20
2.156246
 30
0.0
 10
3.974726
 20
2.304227
 30
0.0
 10
4.067634
 20
2.458855
 30
0.0
 10
4.151605
 20
2.619846
 30
0.0
 10
4.045656
 20
2.765603
 30
0.0
 10
3.931918
 20
2.903880
 30
0.0
 10
3.810802
 20
3.034455
 30
0.0
 10
3.682714
 20
3.157104
 30
0.0
 10
3.548063
 20
3.271606
 30
0.0
 10
3.407257
 20
3.377737
 30
0.0
 10
3.260706
 20
3.475275
 30
0.0
 10
3.108817
 20
3.563996
 30
0.0
 10
2.951999
 20
3.643678
 30
0.0
 10
2.790661
 20
3.714098
 30
0.0
 10
2.625210
 20
3.775034
 30
0.0
 10
2.456055
 20
3.826262
 30
0.0
 10
2.283605
 20
3.867560
 30
0.0
 10
2.108268
 20
3.898705
 30
0.0
 10
1.930452
 20
3.919474
 30
0.0
 10
1.750566
 20
3.929644
 30
0.0
 10
1.750567
 20
3.929644
 30
0.0
  0
LWPOLYLINE
  5
101
100
AcDbEntity
  8
Layer_1
 62
7
100
AcDbPolyline
 90
18
 70
0
 10
1.450541
 20
0.830932
 30
0.0
 10
1.526395
 20
0.815844
 30
0.0
 10
1.590702
 20
0.772876
 30
0.0
 10
1.633670
 20
0.708569
 30
0.0
 10
1.648758
 20
0.632715
 30
0.0
 10
1.633670
 20
0.556860
 30
0.0
 10
1.590702
 20
0.492554
 30
0.0
 10
1.526395
 20
0.449586
 30
0.0
 10
1.450541
 20
0.434498
 30
0.0
 10
1.374686
 20
0.449586
 30
0.0
 10
1.310380
 20
0.492554
 30
0.0
 10
1.267412
 20
0.556860
 30
0.0
 10
1.252324
 20
0.632715
 30
0.0
 10
1.267412
 20
0.708570
 30
0.0
 10
1.310380
 20
0.772876
 30
0.0
 10
1.374686
 20
0.815844
 30
0.0
 10
1.450541
 20
0.830932
 30
0.0
 10
1.450541
 20
0.830932
 30
0.0
  0
LWPOLYLINE
  5
102
100
AcDbEntity
  8
Layer_1
 62
7
100
AcDbPolyline
 90
8
 70
1
 10
0.000000
 20
8.000000
 30
0.0
 10
0.000000
 20
6.999985
 30
0.0
 10
0.028332
 20
6.999985
 30
0.0
 10
0.028332
 20
7.971614
 30
0.0
 10
1.000016
 20
7.971614
 30
0.0
 10
1.000016
 20
8.000000
 30
0.0
 10
0.000000
 20
8.000000
 30
0.0
 10
0.000000
 20
8.000000
 30
0.0
  0
LWPOLYLINE
  5
103
100
AcDbEntity
  8
Layer_1
 62
7
100
AcDbPolyline
 90
9
 70
1
 10
7.999985
 20
8.000000
 30
0.0
 10
7.999985
 20
7.971614
 30
0.0
 10
8.971668
 20
7.971614
 30
0.0
 10
8.971668
 20
6.999985
 30
0.0
 10
9.000000
 20
6.999985
 30
0.0
 10
9.000000
 20
7.985779
 30
0.0
 10
9.000000
 20
8.000000
 30
0.0
 10
7.999985
 20
8.000000
 30
0.0
 10
7.999985
 20
8.000000
 30
0.0
  0
LWPOLYLINE
  5
104
100
AcDbEntity
  8
Layer_1
 62
7
100
AcDbPolyline
 90
8
 70
1
 10
0.000010
 20
0.799978
 30
0.0
 10
0.000010
 20
-0.000000
 30
0.0
 10
1.000024
 20
-0.000000
 30
0.0
 10
1.000024
 20
0.028332
 30
0.0
 10
0.028342
 20
0.028332
 30
0.0
 10
0.028342
 20
0.799978
 30
0.0
 10
0.000010
 20
0.799978
 30
0.0
 10
0.000010
 20
0.799978
 30
0.0
  0
LWPOLYLINE
  5
105
100
AcDbEntity
  8
Layer_1
 62
7
100
AcDbPolyline
 90
8
 70
1
 10
8.971668
 20
0.799978
 30
0.0
 10
8.971668
 20
0.028332
 30
0.0
 10
7.999985
 20
0.028332
 30
0.0
 10
7.999985
 20
-0.000000
 30
0.0
 10
9.000000
 20
-0.000000
 30
0.0
 10
9.000000
 20
0.799978
 30
0.0
 10
8.971668
 20
0.799978
 30
0.0
 10
8.971668
 20
0.799978
 30
0.0
  0
LWPOLYLINE
  5
106
100
AcDbEntity
  8
Layer_1
 62
7
100
AcDbPolyline
 90
78
 70
0
 10
5.427833
 20
6.984644
 30
0.0
 10
5.324989
 20
6.974273
 30
0.0
 10
5.229199
 20
6.944535
 30
0.0
 10
5.142517
 20
6.897484
 30
0.0
 10
5.066992
 20
6.835170
 30
0.0
 10
5.004679
 20
6.759646
 30
0.0
 10
4.957627
 20
6.672963
 30
0.0
 10
4.927890
 20
6.577174
 30
0.0
 10
4.917518
 20
6.474329
 30
0.0
 10
4.932321
 20
6.353212
 30
0.0
 10
4.975451
 20
6.239071
 30
0.0
 10
4.975010
 20
6.238740
 30
0.0
 10
4.982562
 20
6.208313
 30
0.0
 10
4.967080
 20
6.166095
 30
0.0
 10
4.928047
 20
6.143766
 30
0.0
 10
4.929591
 20
6.139687
 30
0.0
 10
4.751532
 20
6.104111
 30
0.0
 10
4.577081
 20
6.058176
 30
0.0
 10
4.406619
 20
6.002165
 30
0.0
 10
4.240526
 20
5.936367
 30
0.0
 10
4.079183
 20
5.861064
 30
0.0
 10
3.922970
 20
5.776545
 30
0.0
 10
3.772269
 20
5.683093
 30
0.0
 10
3.627459
 20
5.580994
 30
0.0
 10
3.488922
 20
5.470535
 30
0.0
 10
3.357039
 20
5.352000
 30
0.0
 10
3.232189
 20
5.225676
 30
0.0
 10
3.114753
 20
5.091847
 30
0.0
 10
3.005113
 20
4.950799
 30
0.0
 10
2.903648
 20
4.802818
 30
0.0
 10
2.810740
 20
4.648189
 30
0.0
 10
2.726769
 20
4.487199
 30
0.0
 10
2.844839
 20
4.325865
 30
0.0
 10
2.972320
 20
4.173910
 30
0.0
 10
3.108644
 20
4.031608
 30
0.0
 10
3.253245
 20
3.899232
 30
0.0
 10
3.405557
 20
3.777054
 30
0.0
 10
3.565013
 20
3.665349
 30
0.0
 10
3.731045
 20
3.564390
 30
0.0
 10
3.903089
 20
3.474450
 30
0.0
 10
4.080577
 20
3.395802
 30
0.0
 10
4.262942
 20
3.328719
 30
0.0
 10
4.449619
 20
3.273475
 30
0.0
 10
4.640039
 20
3.230343
 30
0.0
 10
4.833638
 20
3.199597
 30
0.0
 10
5.029848
 20
3.181509
 30
0.0
 10
5.228102
 20
3.176353
 30
0.0
 10
5.427834
 20
3.184402
 30
0.0
 10
5.358263
 20
3.372069
 30
0.0
 10
5.301736
 20
3.562417
 30
0.0
 10
5.258169
 20
3.754820
 30
0.0
 10
5.227477
 20
3.948654
 30
0.0
 10
5.209574
 20
4.143293
 30
0.0
 10
5.204376
 20
4.338111
 30
0.0
 10
5.211797
 20
4.532483
 30
0.0
 10
5.231752
 20
4.725784
 30
0.0
 10
5.264157
 20
4.917389
 30
0.0
 10
5.308926
 20
5.106672
 30
0.0
 10
5.365975
 20
5.293008
 30
0.0
 10
5.435217
 20
5.475771
 30
0.0
 10
5.516568
 20
5.654337
 30
0.0
 10
5.609944
 20
5.828079
 30
0.0
 10
5.715258
 20
5.996373
 30
0.0
 10
5.832426
 20
6.158594
 30
0.0
 10
5.828402
 20
6.159034
 30
0.0
 10
5.875432
 20
6.230101
 30
0.0
 10
5.909787
 20
6.307454
 30
0.0
 10
5.930887
 20
6.389420
 30
0.0
 10
5.938149
 20
6.474329
 30
0.0
 10
5.927778
 20
6.577173
 30
0.0
 10
5.898040
 20
6.672963
 30
0.0
 10
5.850989
 20
6.759646
 30
0.0
 10
5.788675
 20
6.835170
 30
0.0
 10
5.713151
 20
6.897484
 30
0.0
 10
5.626468
 20
6.944535
 30
0.0
 10
5.530679
 20
6.974273
 30
0.0
 10
5.427834
 20
6.984644
 30
0.0
 10
5.427833
 20
6.984644
 30
0.0
  0
LWPOLYLINE
  5
107
100
AcDbEntity
  8
Layer_1
 62
7
100
AcDbPolyline
 90
18
 70
0
 10
5.427833
 20
6.672491
 30
0.0
 10
5.503688
 20
6.657403
 30
0.0
 10
5.567994
 20
6.614435
 30
0.0
 10
5.610962
 20
6.550129
 30
0.0
 10
5.626050
 20
6.474274
 30
0.0
 10
5.610962
 20
6.398420
 30
0.0
 10
5.567994
 20
6.334113
 30
0.0
 10
5.503688
 20
6.291145
 30
0.0
 10
5.427833
 20
6.276057
 30
0.0
 10
5.351978
 20
6.291145
 30
0.0
 10
5.287672
 20
6.334113
 30
0.0
 10
5.244704
 20
6.398420
 30
0.0
 10
5.229616
 20
6.474274
 30
0.0
 10
5.244704
 20
6.550129
 30
0.0
 10
5.287672
 20
6.614435
 30
0.0
 10
5.351978
 20
6.657403
 30
0.0
 10
5.427833
 20
6.672491
 30
0.0
 10
5.427833
 20
6.672491
 30
0.0
  0
LWPOLYLINE
  5
108
100
AcDbEntity
  8
Layer_1
 62
7
100
AcDbPolyline
 90
78
 70
0
 10
8.321496
 20
4.170801
 30
0.0
 10
8.218652
 20
4.160429
 30
0.0
 10
8.122862
 20
4.130692
 30
0.0
 10
8.036179
 20
4.083640
 30
0.0
 10
7.960655
 20
4.021326
 30
0.0
 10
7.898341
 20
3.945802
 30
0.0
 10
7.851290
 20
3.859119
 30
0.0
 10
7.821552
 20
3.763330
 30
0.0
 10
7.811181
 20
3.660485
 30
0.0
 10
7.825983
 20
3.539368
 30
0.0
 10
7.869114
 20
3.425227
 30
0.0
 10
7.868672
 20
3.424897
 30
0.0
 10
7.876224
 20
3.394469
 30
0.0
 10
7.860742
 20
3.352250
 30
0.0
 10
7.821709
 20
3.329922
 30
0.0
 10
7.823252
 20
3.325843
 30
0.0
 10
7.645194
 20
3.290267
 30
0.0
 10
7.470743
 20
3.244331
 30
0.0
 10
7.300281
 20
3.188321
 30
0.0
 10
7.134188
 20
3.122522
 30
0.0
 10
6.972845
 20
3.047220
 30
0.0
 10
6.816632
 20
2.962701
 30
0.0
 10
6.665931
 20
2.869249
 30
0.0
 10
6.521121
 20
2.767150
 30
0.0
 10
6.382584
 20
2.656691
 30
0.0
 10
6.250700
 20
2.538156
 30
0.0
 10
6.125850
 20
2.411832
 30
0.0
 10
6.008415
 20
2.278003
 30
0.0
 10
5.898774
 20
2.136955
 30
0.0
 10
5.797310
 20
1.988974
 30
0.0
 10
5.704402
 20
1.834345
 30
0.0
 10
5.620431
 20
1.673355
 30
0.0
 10
5.738501
 20
1.512021
 30
0.0
 10
5.865981
 20
1.360066
 30
0.0
 10
6.002306
 20
1.217764
 30
0.0
 10
6.146907
 20
1.085388
 30
0.0
 10
6.299219
 20
0.963210
 30
0.0
 10
6.458674
 20
0.851505
 30
0.0
 10
6.624707
 20
0.750546
 30
0.0
 10
6.796751
 20
0.660606
 30
0.0
 10
6.974238
 20
0.581958
 30
0.0
 10
7.156604
 20
0.514875
 30
0.0
 10
7.343280
 20
0.459631
 30
0.0
 10
7.533701
 20
0.416499
 30
0.0
 10
7.727299
 20
0.385752
 30
0.0
 10
7.923509
 20
0.367664
 30
0.0
 10
8.121763
 20
0.362508
 30
0.0
 10
8.321496
 20
0.370557
 30
0.0
 10
8.251924
 20
0.558225
 30
0.0
 10
8.195398
 20
0.748573
 30
0.0
 10
8.151831
 20
0.940976
 30
0.0
 10
8.121138
 20
1.134810
 30
0.0
 10
8.103235
 20
1.329449
 30
0.0
 10
8.098037
 20
1.524267
 30
0.0
 10
8.105458
 20
1.718639
 30
0.0
 10
8.125414
 20
1.911940
 30
0.0
 10
8.157819
 20
2.103545
 30
0.0
 10
8.202588
 20
2.292828
 30
0.0
 10
8.259636
 20
2.479164
 30
0.0
 10
8.328878
 20
2.661927
 30
0.0
 10
8.410230
 20
2.840493
 30
0.0
 10
8.503605
 20
3.014235
 30
0.0
 10
8.608920
 20
3.182530
 30
0.0
 10
8.726088
 20
3.344750
 30
0.0
 10
8.722064
 20
3.345190
 30
0.0
 10
8.769093
 20
3.416257
 30
0.0
 10
8.803449
 20
3.493610
 30
0.0
 10
8.824549
 20
3.575577
 30
0.0
 10
8.831811
 20
3.660485
 30
0.0
 10
8.821439
 20
3.763330
 30
0.0
 10
8.791702
 20
3.859119
 30
0.0
 10
8.744650
 20
3.945802
 30
0.0
 10
8.682337
 20
4.021326
 30
0.0
 10
8.606812
 20
4.083640
 30
0.0
 10
8.520130
 20
4.130692
 30
0.0
 10
8.424340
 20
4.160429
 30
0.0
 10
8.321496
 20
4.170801
 30
0.0
 10
8.321496
 20
4.170801
 30
0.0
  0
LWPOLYLINE
  5
109
100
AcDbEntity
  8
Layer_1
 62
7
100
AcDbPolyline
 90
18
 70
0
 10
8.321496
 20
3.858702
 30
0.0
 10
8.397351
 20
3.843614
 30
0.0
 10
8.461657
 20
3.800646
 30
0.0
 10
8.504625
 20
3.736340
 30
0.0
 10
8.519713
 20
3.660485
 30
0.0
 10
8.504625
 20
3.584631
 30
0.0
 10
8.461657
 20
3.520324
 30
0.0
 10
8.397351
 20
3.477356
 30
0.0
 10
8.321496
 20
3.462268
 30
0.0
 10
8.245641
 20
3.477356
 30
0.0
 10
8.181335
 20
3.520324
 30
0.0
 10
8.138367
 20
3.584631
 30
0.0
 10
8.123279
 20
3.660485
 30
0.0
 10
8.138367
 20
3.736340
 30
0.0
 10
8.181335
 20
3.800646
 30
0.0
 10
8.245641
 20
3.843614
 30
0.0
 10
8.321496
 20
3.858702
 30
0.0
 10
8.321496
 20
3.858702
 30
0.0
  0
LWPOLYLINE
  5
10a
100
AcDbEntity
  8
Layer_1
 62
7
100
AcDbPolyline
 90
79
 70
0
 10
6.390809
 20
7.622180
 30
0.0
 10
6.090838
 20
7.615124
 30
0.0
 10
6.160409
 20
7.427457
 30
0.0
 10
6.216936
 20
7.237109
 30
0.0
 10
6.260503
 20
7.044706
 30
0.0
 10
6.291195
 20
6.850872
 30
0.0
 10
6.309098
 20
6.656233
 30
0.0
 10
6.314296
 20
6.461415
 30
0.0
 10
6.306875
 20
6.267043
 30
0.0
 10
6.286919
 20
6.073742
 30
0.0
 10
6.254515
 20
5.882137
 30
0.0
 10
6.209746
 20
5.692854
 30
0.0
 10
6.152697
 20
5.506518
 30
0.0
 10
6.083455
 20
5.323755
 30
0.0
 10
6.002103
 20
5.145189
 30
0.0
 10
5.908728
 20
4.971446
 30
0.0
 10
5.803414
 20
4.803152
 30
0.0
 10
5.686245
 20
4.640932
 30
0.0
 10
5.690269
 20
4.640492
 30
0.0
 10
5.643240
 20
4.569425
 30
0.0
 10
5.608885
 20
4.492072
 30
0.0
 10
5.587785
 20
4.410105
 30
0.0
 10
5.580522
 20
4.325197
 30
0.0
 10
5.590894
 20
4.222352
 30
0.0
 10
5.620632
 20
4.126563
 30
0.0
 10
5.667683
 20
4.039880
 30
0.0
 10
5.729997
 20
3.964356
 30
0.0
 10
5.805521
 20
3.902042
 30
0.0
 10
5.892204
 20
3.854991
 30
0.0
 10
5.987993
 20
3.825253
 30
0.0
 10
6.090838
 20
3.814882
 30
0.0
 10
6.193682
 20
3.825253
 30
0.0
 10
6.289471
 20
3.854991
 30
0.0
 10
6.376154
 20
3.902042
 30
0.0
 10
6.451678
 20
3.964356
 30
0.0
 10
6.513992
 20
4.039880
 30
0.0
 10
6.561044
 20
4.126563
 30
0.0
 10
6.590781
 20
4.222352
 30
0.0
 10
6.601153
 20
4.325197
 30
0.0
 10
6.586350
 20
4.446314
 30
0.0
 10
6.543220
 20
4.560455
 30
0.0
 10
6.543660
 20
4.560786
 30
0.0
 10
6.536108
 20
4.591213
 30
0.0
 10
6.551590
 20
4.633432
 30
0.0
 10
6.590623
 20
4.655760
 30
0.0
 10
6.589080
 20
4.659839
 30
0.0
 10
6.767138
 20
4.695415
 30
0.0
 10
6.941589
 20
4.741351
 30
0.0
 10
7.112051
 20
4.797361
 30
0.0
 10
7.278144
 20
4.863159
 30
0.0
 10
7.439488
 20
4.938462
 30
0.0
 10
7.595700
 20
5.022981
 30
0.0
 10
7.746402
 20
5.116433
 30
0.0
 10
7.891211
 20
5.218532
 30
0.0
 10
8.029748
 20
5.328991
 30
0.0
 10
8.161632
 20
5.447526
 30
0.0
 10
8.286482
 20
5.573850
 30
0.0
 10
8.403917
 20
5.707679
 30
0.0
 10
8.513558
 20
5.848727
 30
0.0
 10
8.615022
 20
5.996708
 30
0.0
 10
8.707931
 20
6.151337
 30
0.0
 10
8.791902
 20
6.312327
 30
0.0
 10
8.685952
 20
6.458091
 30
0.0
 10
8.572214
 20
6.596374
 30
0.0
 10
8.451096
 20
6.726955
 30
0.0
 10
8.323006
 20
6.849610
 30
0.0
 10
8.188353
 20
6.964117
 30
0.0
 10
8.047545
 20
7.070253
 30
0.0
 10
7.900990
 20
7.167795
 30
0.0
 10
7.749098
 20
7.256520
 30
0.0
 10
7.592276
 20
7.336206
 30
0.0
 10
7.430933
 20
7.406629
 30
0.0
 10
7.265478
 20
7.467567
 30
0.0
 10
7.096318
 20
7.518797
 30
0.0
 10
6.923863
 20
7.560096
 30
0.0
 10
6.748520
 20
7.591242
 30
0.0
 10
6.570699
 20
7.612011
 30
0.0
 10
6.390808
 20
7.622180
 30
0.0
 10
6.390809
 20
7.622180
 30
0.0
  0
LWPOLYLINE
  5
10b
100
AcDbEntity
  8
Layer_1
 62
7
100
AcDbPolyline
 90
18
 70
0
 10
6.090783
 20
4.523413
 30
0.0
 10
6.167924
 20
4.507842
 30
0.0
 10
6.230924
 20
4.465376
 30
0.0
 10
6.273407
 20
4.402389
 30
0.0
 10
6.288999
 20
4.325251
 30
0.0
 10
6.273911
 20
4.249396
 30
0.0
 10
6.230943
 20
4.185090
 30
0.0
 10
6.166637
 20
4.142122
 30
0.0
 10
6.090783
 20
4.127034
 30
0.0
 10
6.013645
 20
4.142626
 30
0.0
 10
5.950657
 20
4.185109
 30
0.0
 10
5.908191
 20
4.248109
 30
0.0
 10
5.892620
 20
4.325251
 30
0.0
 10
5.908207
 20
4.402375
 30
0.0
 10
5.950676
 20
4.465357
 30
0.0
 10
6.013658
 20
4.507826
 30
0.0
 10
6.090783
 20
4.523413
 30
0.0
 10
6.090783
 20
4.523413
 30
0.0
  0
LWPOLYLINE
  5
10c
100
AcDbEntity
  8
Layer_1
 62
7
100
AcDbPolyline
 90
79
 70
0
 10
0.965160
 20
7.306053
 30
0.0
 10
0.665189
 20
7.298998
 30
0.0
 10
0.734760
 20
7.111330
 30
0.0
 10
0.791287
 20
6.920982
 30
0.0
 10
0.834854
 20
6.728579
 30
0.0
 10
0.865546
 20
6.534745
 30
0.0
 10
0.883449
 20
6.340107
 30
0.0
 10
0.888647
 20
6.145288
 30
0.0
 10
0.881226
 20
5.950916
 30
0.0
 10
0.861271
 20
5.757615
 30
0.0
 10
0.828866
 20
5.566010
 30
0.0
 10
0.784097
 20
5.376727
 30
0.0
 10
0.727048
 20
5.190391
 30
0.0
 10
0.657806
 20
5.007628
 30
0.0
 10
0.576455
 20
4.829062
 30
0.0
 10
0.483079
 20
4.655320
 30
0.0
 10
0.377765
 20
4.487026
 30
0.0
 10
0.260597
 20
4.324805
 30
0.0
 10
0.264621
 20
4.324365
 30
0.0
 10
0.217591
 20
4.253298
 30
0.0
 10
0.183236
 20
4.175945
 30
0.0
 10
0.162136
 20
4.093979
 30
0.0
 10
0.154874
 20
4.009070
 30
0.0
 10
0.165245
 20
3.906226
 30
0.0
 10
0.194983
 20
3.810436
 30
0.0
 10
0.242034
 20
3.723754
 30
0.0
 10
0.304348
 20
3.648229
 30
0.0
 10
0.379872
 20
3.585916
 30
0.0
 10
0.466555
 20
3.538864
 30
0.0
 10
0.562344
 20
3.509126
 30
0.0
 10
0.665189
 20
3.498755
 30
0.0
 10
0.768033
 20
3.509126
 30
0.0
 10
0.863822
 20
3.538864
 30
0.0
 10
0.950505
 20
3.585916
 30
0.0
 10
1.026029
 20
3.648229
 30
0.0
 10
1.088343
 20
3.723754
 30
0.0
 10
1.135395
 20
3.810436
 30
0.0
 10
1.165132
 20
3.906226
 30
0.0
 10
1.175504
 20
4.009070
 30
0.0
 10
1.160701
 20
4.130187
 30
0.0
 10
1.117571
 20
4.244329
 30
0.0
 10
1.118011
 20
4.244659
 30
0.0
 10
1.110459
 20
4.275086
 30
0.0
 10
1.125942
 20
4.317305
 30
0.0
 10
1.164975
 20
4.339633
 30
0.0
 10
1.163431
 20
4.343712
 30
0.0
 10
1.341490
 20
4.379288
 30
0.0
 10
1.515940
 20
4.425224
 30
0.0
 10
1.686403
 20
4.481234
 30
0.0
 10
1.852496
 20
4.547033
 30
0.0
 10
2.013839
 20
4.622335
 30
0.0
 10
2.170051
 20
4.706855
 30
0.0
 10
2.320753
 20
4.800306
 30
0.0
 10
2.465562
 20
4.902405
 30
0.0
 10
2.604099
 20
5.012864
 30
0.0
 10
2.735983
 20
5.131399
 30
0.0
 10
2.860833
 20
5.257724
 30
0.0
 10
2.978269
 20
5.391553
 30
0.0
 10
3.087909
 20
5.532600
 30
0.0
 10
3.189374
 20
5.680581
 30
0.0
 10
3.282282
 20
5.835210
 30
0.0
 10
3.366253
 20
5.996201
 30
0.0
 10
3.260303
 20
6.141964
 30
0.0
 10
3.146565
 20
6.280247
 30
0.0
 10
3.025447
 20
6.410828
 30
0.0
 10
2.897357
 20
6.533484
 30
0.0
 10
2.762704
 20
6.647991
 30
0.0
 10
2.621896
 20
6.754127
 30
0.0
 10
2.475341
 20
6.851669
 30
0.0
 10
2.323449
 20
6.940394
 30
0.0
 10
2.166627
 20
7.020079
 30
0.0
 10
2.005284
 20
7.090503
 30
0.0
 10
1.839829
 20
7.151441
 30
0.0
 10
1.670669
 20
7.202671
 30
0.0
 10
1.498214
 20
7.243970
 30
0.0
 10
1.322871
 20
7.275115
 30
0.0
 10
1.145050
 20
7.295884
 30
0.0
 10
0.965159
 20
7.306054
 30
0.0
 10
0.965160
 20
7.306053
 30
0.0
  0
LWPOLYLINE
  5
10d
100
AcDbEntity
  8
Layer_1
 62
7
100
AcDbPolyline
 90
18
 70
0
 10
0.665134
 20
4.207286
 30
0.0
 10
0.742276
 20
4.191715
 30
0.0
 10
0.805275
 20
4.149250
 30
0.0
 10
0.847758
 20
4.086262
 30
0.0
 10
0.863350
 20
4.009124
 30
0.0
 10
0.848263
 20
3.933270
 30
0.0
 10
0.805295
 20
3.868963
 30
0.0
 10
0.740988
 20
3.825995
 30
0.0
 10
0.665134
 20
3.810907
 30
0.0
 10
0.587996
 20
3.826500
 30
0.0
 10
0.525008
 20
3.868983
 30
0.0
 10
0.482542
 20
3.931982
 30
0.0
 10
0.466972
 20
4.009124
 30
0.0
 10
0.482558
 20
4.086249
 30
0.0
 10
0.525027
 20
4.149230
 30
0.0
 10
0.588009
 20
4.191700
 30
0.0
 10
0.665134
 20
4.207286
 30
0.0
 10
0.665134
 20
4.207286
 30
0.0
  0
ENDSEC
  0
SECTION
  2
OBJECTS
  0
DICTIONARY
  5
C
330
0
100
AcDbDictionary
  3
ACAD_GROUP
350
D
  3
ACAD_MLINESTYLE
350
17
  0
DICTIONARY
  5
D
330
C
100
AcDbDictionary
  0
DICTIONARY
  5
1A
330
C
100
AcDbDictionary
  0
DICTIONARY
  5
17
330
C
100
AcDbDictionary
  3
STANDARD
350
18
  0
DICTIONARY
  5
19
330
C
100
AcDbDictionary
  0
ENDSEC
  0
EOF
