  0
SECTION
  2
HEADER
  9
$ACADVER
  1
AC1014
  9
$HANDSEED
  5
FFFF
  9
$MEASUREMENT
 70
     1
  0
ENDSEC
  0
SECTION
  2
TABLES
  0
TABLE
  2
VPORT
  5
8
330
0
100
AcDbSymbolTable
 70
     4
  0
VPORT
  5
2E
330
8
100
AcDbSymbolTableRecord
100
AcDbViewportTableRecord
  2
*ACTIVE
 70
     0
 10
0.0
 20
0.0
 11
1.0
 21
1.0
 12
210.0
 22
148.5
 13
0.0
 23
0.0
 14
10.0
 24
10.0
 15
10.0
 25
10.0
 16
0.0
 26
0.0
 36
1.0
 17
0.0
 27
0.0
 37
0.0
 40
341.0
 41
1.24
 42
50.0
 43
0.0
 44
0.0
 50
0.0
 51
0.0
 71
     0
 72
   100
 73
     1
 74
     3
 75
     0
 76
     0
 77
     0
 78
     0
  0
ENDTAB
  0
TABLE
  2
LTYPE
  5
5
330
0
100
AcDbSymbolTable
 70
     1
  0
LTYPE
  5
14
330
5
100
AcDbSymbolTableRecord
100
AcDbLinetypeTableRecord
  2
BYBLOCK
 70
     0
  3

 72
    65
 73
     0
 40
0.0
  0
LTYPE
  5
15
330
5
100
AcDbSymbolTableRecord
100
AcDbLinetypeTableRecord
  2
BYLAYER
 70
     0
  3

 72
    65
 73
     0
 40
0.0
  0
LTYPE
  5
16
330
5
100
AcDbSymbolTableRecord
100
AcDbLinetypeTableRecord
  2
CONTINUOUS
 70
     0
  3
Solid line
 72
    65
 73
     0
 40
0.0
  0
ENDTAB
  0
TABLE
  2
LAYER
  5
2
100
AcDbSymbolTable
 70
2
  0
LAYER
  5
50
100
AcDbSymbolTableRecord
100
AcDbLayerTableRecord
  2
0
 70
0
  6
CONTINUOUS
  0
LAYER
  5
51
100
AcDbSymbolTableRecord
100
AcDbLayerTableRecord
  2
Layer_1
 70
0
  6
CONTINUOUS
  0
ENDTAB
  0
TABLE
  2
STYLE
  5
3
330
0
100
AcDbSymbolTable
 70
     1
  0
STYLE
  5
11
330
3
100
AcDbSymbolTableRecord
100
AcDbTextStyleTableRecord
  2
STANDARD
 70
     0
 40
0.0
 41
1.0
 50
0.0
 71
     0
 42
2.5
  3
txt
  4

  0
ENDTAB
  0
TABLE
  2
VIEW
  5
6
330
0
100
AcDbSymbolTable
 70
     0
  0
ENDTAB
  0
TABLE
  2
UCS
  5
7
330
0
100
AcDbSymbolTable
 70
     0
  0
ENDTAB
  0
TABLE
  2
APPID
  5
9
330
0
100
AcDbSymbolTable
 70
     2
  0
APPID
  5
12
330
9
100
AcDbSymbolTableRecord
100
AcDbRegAppTableRecord
  2
ACAD
 70
     0
  0
ENDTAB
  0
TABLE
  2
DIMSTYLE
  5
A
330
0
100
AcDbSymbolTable
 70
     1
  0
DIMSTYLE
105
27
330
A
100
AcDbSymbolTableRecord
100
AcDbDimStyleTableRecord
  2
ISO-25
 70
     0
  3

  4

  5

  6

  7

 40
1.0
 41
2.5
 42
0.625
 43
3.75
 44
1.25
 45
0.0
 46
0.0
 47
0.0
 48
0.0
140
2.5
141
2.5
142
0.0
143
0.03937007874016
144
1.0
145
0.0
146
1.0
147
0.625
 71
     0
 72
     0
 73
     0
 74
     0
 75
     0
 76
     0
 77
     1
 78
     8
170
     0
171
     3
172
     1
173
     0
174
     0
175
     0
176
     0
177
     0
178
     0
270
     2
271
     2
272
     2
273
     2
274
     3
340
11
275
     0
280
     0
281
     0
282
     0
283
     0
284
     8
285
     0
286
     0
287
     3
288
     0
  0
ENDTAB
  0
TABLE
  2
BLOCK_RECORD
  5
1
330
0
100
AcDbSymbolTable
 70
     1
  0
BLOCK_RECORD
  5
1F
330
1
100
AcDbSymbolTableRecord
100
AcDbBlockTableRecord
  2
*MODEL_SPACE
  0
BLOCK_RECORD
  5
1B
330
1
100
AcDbSymbolTableRecord
100
AcDbBlockTableRecord
  2
*PAPER_SPACE
  0
ENDTAB
  0
ENDSEC
  0
SECTION
  2
BLOCKS
  0
BLOCK
  5
20
330
1F
100
AcDbEntity
  8
0
100
AcDbBlockBegin
  2
*MODEL_SPACE
 70
     0
 10
0.0
 20
0.0
 30
0.0
  3
*MODEL_SPACE
  1

  0
ENDBLK
  5
21
330
1F
100
AcDbEntity
  8
0
100
AcDbBlockEnd
  0
BLOCK
  5
1C
330
1B
100
AcDbEntity
 67
     1
  8
0
100
AcDbBlockBegin
  2
*PAPER_SPACE
  1

  0
ENDBLK
  5
1D
330
1B
100
AcDbEntity
 67
     1
  8
0
100
AcDbBlockEnd
  0
ENDSEC
  0
SECTION
  2
ENTITIES
  0
LWPOLYLINE
  5
100
100
AcDbEntity
  8
Layer_1
 62
7
100
AcDbPolyline
 90
8
 70
0
 10
0.000000
 20
7.999999
 30
0.0
 10
0.000000
 20
6.999984
 30
0.0
 10
0.028332
 20
6.999984
 30
0.0
 10
0.028332
 20
7.971613
 30
0.0
 10
1.000016
 20
7.971613
 30
0.0
 10
1.000016
 20
7.999999
 30
0.0
 10
0.000000
 20
7.999999
 30
0.0
 10
0.000000
 20
7.999999
 30
0.0
  0
LWPOLYLINE
  5
101
100
AcDbEntity
  8
Layer_1
 62
7
100
AcDbPolyline
 90
9
 70
0
 10
7.999985
 20
7.999999
 30
0.0
 10
7.999985
 20
7.971613
 30
0.0
 10
8.971668
 20
7.971613
 30
0.0
 10
8.971668
 20
6.999984
 30
0.0
 10
9.000000
 20
6.999984
 30
0.0
 10
9.000000
 20
7.985778
 30
0.0
 10
9.000000
 20
7.999999
 30
0.0
 10
7.999985
 20
7.999999
 30
0.0
 10
7.999985
 20
7.999999
 30
0.0
  0
LWPOLYLINE
  5
102
100
AcDbEntity
  8
Layer_1
 62
7
100
AcDbPolyline
 90
8
 70
0
 10
0.000010
 20
0.799978
 30
0.0
 10
0.000010
 20
-0.000000
 30
0.0
 10
1.000024
 20
-0.000000
 30
0.0
 10
1.000024
 20
0.028332
 30
0.0
 10
0.028342
 20
0.028332
 30
0.0
 10
0.028342
 20
0.799978
 30
0.0
 10
0.000010
 20
0.799978
 30
0.0
 10
0.000010
 20
0.799978
 30
0.0
  0
LWPOLYLINE
  5
103
100
AcDbEntity
  8
Layer_1
 62
7
100
AcDbPolyline
 90
8
 70
0
 10
8.971668
 20
0.799978
 30
0.0
 10
8.971668
 20
0.028332
 30
0.0
 10
7.999985
 20
0.028332
 30
0.0
 10
7.999985
 20
-0.000000
 30
0.0
 10
9.000000
 20
-0.000000
 30
0.0
 10
9.000000
 20
0.799978
 30
0.0
 10
8.971668
 20
0.799978
 30
0.0
 10
8.971668
 20
0.799978
 30
0.0
  0
LWPOLYLINE
  5
104
100
AcDbEntity
  8
Layer_1
 62
7
100
AcDbPolyline
 90
14
 70
0
 10
1.560784
 20
3.930671
 30
0.0
 10
1.450539
 20
3.924608
 30
0.0
 10
1.514420
 20
3.753692
 30
0.0
 10
1.567397
 20
3.580500
 30
0.0
 10
1.609599
 20
3.405508
 30
0.0
 10
1.641149
 20
3.229195
 30
0.0
 10
1.754038
 20
3.229195
 30
0.0
 10
1.722488
 20
3.405494
 30
0.0
 10
1.680284
 20
3.580471
 30
0.0
 10
1.627306
 20
3.753649
 30
0.0
 10
1.563429
 20
3.924552
 30
0.0
 10
1.563429
 20
3.924636
 30
0.0
 10
1.560776
 20
3.930701
 30
0.0
 10
1.560784
 20
3.930671
 30
0.0
  0
LWPOLYLINE
  5
105
100
AcDbEntity
  8
Layer_1
 62
7
100
AcDbPolyline
 90
14
 70
0
 10
6.201080
 20
7.623191
 30
0.0
 10
6.090836
 20
7.617128
 30
0.0
 10
6.154716
 20
7.446213
 30
0.0
 10
6.207694
 20
7.273021
 30
0.0
 10
6.249895
 20
7.098029
 30
0.0
 10
6.281446
 20
6.921716
 30
0.0
 10
6.394335
 20
6.921716
 30
0.0
 10
6.362784
 20
7.098015
 30
0.0
 10
6.320581
 20
7.272992
 30
0.0
 10
6.267602
 20
7.446170
 30
0.0
 10
6.203725
 20
7.617072
 30
0.0
 10
6.203725
 20
7.617157
 30
0.0
 10
6.201072
 20
7.623220
 30
0.0
 10
6.201080
 20
7.623191
 30
0.0
  0
LWPOLYLINE
  5
106
100
AcDbEntity
  8
Layer_1
 62
7
100
AcDbPolyline
 90
14
 70
0
 10
5.317589
 20
3.176342
 30
0.0
 10
5.427834
 20
3.182405
 30
0.0
 10
5.363953
 20
3.353320
 30
0.0
 10
5.310975
 20
3.526513
 30
0.0
 10
5.268774
 20
3.701505
 30
0.0
 10
5.237224
 20
3.877818
 30
0.0
 10
5.124334
 20
3.877818
 30
0.0
 10
5.155885
 20
3.701519
 30
0.0
 10
5.198089
 20
3.526542
 30
0.0
 10
5.251067
 20
3.353363
 30
0.0
 10
5.314944
 20
3.182461
 30
0.0
 10
5.314944
 20
3.182376
 30
0.0
 10
5.317597
 20
3.176313
 30
0.0
 10
5.317589
 20
3.176342
 30
0.0
  0
LWPOLYLINE
  5
107
100
AcDbEntity
  8
Layer_1
 62
7
100
AcDbPolyline
 90
14
 70
0
 10
8.211251
 20
0.362489
 30
0.0
 10
8.321496
 20
0.368551
 30
0.0
 10
8.257615
 20
0.539467
 30
0.0
 10
8.204637
 20
0.712660
 30
0.0
 10
8.162436
 20
0.887652
 30
0.0
 10
8.130886
 20
1.063965
 30
0.0
 10
8.017996
 20
1.063965
 30
0.0
 10
8.049547
 20
0.887666
 30
0.0
 10
8.091751
 20
0.712688
 30
0.0
 10
8.144729
 20
0.539510
 30
0.0
 10
8.208606
 20
0.368608
 30
0.0
 10
8.208606
 20
0.368523
 30
0.0
 10
8.211259
 20
0.362460
 30
0.0
 10
8.211251
 20
0.362489
 30
0.0
  0
LWPOLYLINE
  5
108
100
AcDbEntity
  8
Layer_1
 62
7
100
AcDbPolyline
 90
14
 70
0
 10
0.775432
 20
7.307064
 30
0.0
 10
0.665187
 20
7.301001
 30
0.0
 10
0.729068
 20
7.130086
 30
0.0
 10
0.782046
 20
6.956894
 30
0.0
 10
0.824247
 20
6.781902
 30
0.0
 10
0.855797
 20
6.605589
 30
0.0
 10
0.968687
 20
6.605589
 30
0.0
 10
0.937136
 20
6.781888
 30
0.0
 10
0.894932
 20
6.956865
 30
0.0
 10
0.841954
 20
7.130043
 30
0.0
 10
0.778077
 20
7.300945
 30
0.0
 10
0.778077
 20
7.301030
 30
0.0
 10
0.775424
 20
7.307093
 30
0.0
 10
0.775432
 20
7.307064
 30
0.0
  0
ENDSEC
  0
SECTION
  2
OBJECTS
  0
DICTIONARY
  5
C
330
0
100
AcDbDictionary
  3
ACAD_GROUP
350
D
  3
ACAD_MLINESTYLE
350
17
  0
DICTIONARY
  5
D
330
C
100
AcDbDictionary
  0
DICTIONARY
  5
1A
330
C
100
AcDbDictionary
  0
DICTIONARY
  5
17
330
C
100
AcDbDictionary
  3
STANDARD
350
18
  0
DICTIONARY
  5
19
330
C
100
AcDbDictionary
  0
ENDSEC
  0
EOF
