solid OpenSCAD_Model
  facet normal 1 -0 0
    outer loop
      vertex 12.5 -2.67935e-15 12.5
      vertex 12.5 12.5 -12.5
      vertex 12.5 12.5 12.5
    endloop
  endfacet
  facet normal 1 -0 0
    outer loop
      vertex 12.5 -12.5 -3.60523e-15
      vertex 12.5 12.5 -12.5
      vertex 12.5 -2.67935e-15 12.5
    endloop
  endfacet
  facet normal 1 0 0
    outer loop
      vertex 12.5 12.5 -12.5
      vertex 12.5 -12.5 -3.60523e-15
      vertex 12.5 -12.5 -12.5
    endloop
  endfacet
  facet normal 0 0 -1
    outer loop
      vertex 6.38219e-16 -12.5 -12.5
      vertex 12.5 12.5 -12.5
      vertex 12.5 -12.5 -12.5
    endloop
  endfacet
  facet normal 0 0 -1
    outer loop
      vertex -12.5 2.67935e-15 -12.5
      vertex 12.5 12.5 -12.5
      vertex 6.38219e-16 -12.5 -12.5
    endloop
  endfacet
  facet normal -0 0 -1
    outer loop
      vertex 12.5 12.5 -12.5
      vertex -12.5 2.67935e-15 -12.5
      vertex -12.5 12.5 -12.5
    endloop
  endfacet
  facet normal -1 0 0
    outer loop
      vertex -12.5 2.67935e-15 -12.5
      vertex -12.5 12.5 3.60523e-15
      vertex -12.5 12.5 -12.5
    endloop
  endfacet
  facet normal -0 0 1
    outer loop
      vertex -6.38219e-16 12.5 12.5
      vertex 12.5 -2.67935e-15 12.5
      vertex 12.5 12.5 12.5
    endloop
  endfacet
  facet normal 0 -1 0
    outer loop
      vertex 12.5 -12.5 -12.5
      vertex 12.5 -12.5 -3.60523e-15
      vertex 6.38219e-16 -12.5 -12.5
    endloop
  endfacet
  facet normal 0 1 -0
    outer loop
      vertex 12.5 12.5 -12.5
      vertex -6.38219e-16 12.5 12.5
      vertex 12.5 12.5 12.5
    endloop
  endfacet
  facet normal 0 1 0
    outer loop
      vertex -6.38219e-16 12.5 12.5
      vertex 12.5 12.5 -12.5
      vertex -12.5 12.5 3.60523e-15
    endloop
  endfacet
  facet normal 0 1 0
    outer loop
      vertex -12.5 12.5 3.60523e-15
      vertex 12.5 12.5 -12.5
      vertex -12.5 12.5 -12.5
    endloop
  endfacet
  facet normal -1 0 0
    outer loop
      vertex 11.25 11.25 -11.25
      vertex 11.25 -2.41141e-15 11.25
      vertex 11.25 11.25 11.25
    endloop
  endfacet
  facet normal -1 0 0
    outer loop
      vertex 11.25 -11.25 -3.2447e-15
      vertex 11.25 11.25 -11.25
      vertex 11.25 -11.25 -11.25
    endloop
  endfacet
  facet normal -1 0 0
    outer loop
      vertex 11.25 11.25 -11.25
      vertex 11.25 -11.25 -3.2447e-15
      vertex 11.25 -2.41141e-15 11.25
    endloop
  endfacet
  facet normal 0 0 1
    outer loop
      vertex 11.25 11.25 -11.25
      vertex 5.74397e-16 -11.25 -11.25
      vertex 11.25 -11.25 -11.25
    endloop
  endfacet
  facet normal 0 0 1
    outer loop
      vertex -11.25 2.41141e-15 -11.25
      vertex 11.25 11.25 -11.25
      vertex -11.25 11.25 -11.25
    endloop
  endfacet
  facet normal 0 0 1
    outer loop
      vertex 11.25 11.25 -11.25
      vertex -11.25 2.41141e-15 -11.25
      vertex 5.74397e-16 -11.25 -11.25
    endloop
  endfacet
  facet normal 1 0 0
    outer loop
      vertex -11.25 2.41141e-15 -11.25
      vertex -11.25 11.25 -11.25
      vertex -11.25 11.25 3.2447e-15
    endloop
  endfacet
  facet normal 0 -1 0
    outer loop
      vertex 11.25 11.25 -11.25
      vertex -5.74397e-16 11.25 11.25
      vertex -11.25 11.25 3.2447e-15
    endloop
  endfacet
  facet normal 0 -1 0
    outer loop
      vertex 11.25 11.25 -11.25
      vertex -11.25 11.25 3.2447e-15
      vertex -11.25 11.25 -11.25
    endloop
  endfacet
  facet normal 0 -1 0
    outer loop
      vertex -5.74397e-16 11.25 11.25
      vertex 11.25 11.25 -11.25
      vertex 11.25 11.25 11.25
    endloop
  endfacet
  facet normal 0 0 -1
    outer loop
      vertex -5.74397e-16 11.25 11.25
      vertex 11.25 11.25 11.25
      vertex 11.25 -2.41141e-15 11.25
    endloop
  endfacet
  facet normal 0 1 -0
    outer loop
      vertex 11.25 -11.25 -11.25
      vertex 5.74397e-16 -11.25 -11.25
      vertex 11.25 -11.25 -3.2447e-15
    endloop
  endfacet
  facet normal -0.57735 -0.57735 0.57735
    outer loop
      vertex -5.74397e-16 11.25 11.25
      vertex -12.5 12.5 3.60523e-15
      vertex -11.25 11.25 3.2447e-15
    endloop
  endfacet
  facet normal -0.57735 -0.57735 0.57735
    outer loop
      vertex -12.5 2.67935e-15 -12.5
      vertex -11.25 11.25 3.2447e-15
      vertex -12.5 12.5 3.60523e-15
    endloop
  endfacet
  facet normal -0.57735 -0.57735 0.57735
    outer loop
      vertex -12.5 2.67935e-15 -12.5
      vertex -11.25 2.41141e-15 -11.25
      vertex -11.25 11.25 3.2447e-15
    endloop
  endfacet
  facet normal -0.57735 -0.57735 0.57735
    outer loop
      vertex -12.5 2.67935e-15 -12.5
      vertex 5.74397e-16 -11.25 -11.25
      vertex -11.25 2.41141e-15 -11.25
    endloop
  endfacet
  facet normal -0.57735 -0.57735 0.57735
    outer loop
      vertex 12.5 -12.5 -3.60523e-15
      vertex 5.74397e-16 -11.25 -11.25
      vertex 6.38219e-16 -12.5 -12.5
    endloop
  endfacet
  facet normal -0.57735 -0.57735 0.57735
    outer loop
      vertex 6.38219e-16 -12.5 -12.5
      vertex 5.74397e-16 -11.25 -11.25
      vertex -12.5 2.67935e-15 -12.5
    endloop
  endfacet
  facet normal -0.57735 -0.57735 0.57735
    outer loop
      vertex -12.5 12.5 3.60523e-15
      vertex -5.74397e-16 11.25 11.25
      vertex -6.38219e-16 12.5 12.5
    endloop
  endfacet
  facet normal -0.57735 -0.57735 0.57735
    outer loop
      vertex 12.5 -2.67935e-15 12.5
      vertex -5.74397e-16 11.25 11.25
      vertex 11.25 -2.41141e-15 11.25
    endloop
  endfacet
  facet normal -0.57735 -0.57735 0.57735
    outer loop
      vertex -5.74397e-16 11.25 11.25
      vertex 12.5 -2.67935e-15 12.5
      vertex -6.38219e-16 12.5 12.5
    endloop
  endfacet
  facet normal -0.57735 -0.57735 0.57735
    outer loop
      vertex 11.25 -11.25 -3.2447e-15
      vertex 12.5 -2.67935e-15 12.5
      vertex 11.25 -2.41141e-15 11.25
    endloop
  endfacet
  facet normal -0.57735 -0.57735 0.57735
    outer loop
      vertex 11.25 -11.25 -3.2447e-15
      vertex 12.5 -12.5 -3.60523e-15
      vertex 12.5 -2.67935e-15 12.5
    endloop
  endfacet
  facet normal -0.57735 -0.57735 0.57735
    outer loop
      vertex 5.74397e-16 -11.25 -11.25
      vertex 12.5 -12.5 -3.60523e-15
      vertex 11.25 -11.25 -3.2447e-15
    endloop
  endfacet
endsolid OpenSCAD_Model
