<?xml version="1.0" encoding="UTF-8" standalone="no"?>
<!-- Created with Inkscape (http://www.inkscape.org/) -->

<svg
   xmlns:dc="http://purl.org/dc/elements/1.1/"
   xmlns:cc="http://creativecommons.org/ns#"
   xmlns:rdf="http://www.w3.org/1999/02/22-rdf-syntax-ns#"
   xmlns:svg="http://www.w3.org/2000/svg"
   xmlns="http://www.w3.org/2000/svg"
   xmlns:sodipodi="http://sodipodi.sourceforge.net/DTD/sodipodi-0.dtd"
   xmlns:inkscape="http://www.inkscape.org/namespaces/inkscape"
   sodipodi:docname="002--flakes.svg"
   inkscape:version="0.92.3 (2405546, 2018-03-11)"
   version="1.1"
   id="svg27345"
   height="1066.6666"
   width="3413.3333">
  <sodipodi:namedview
     id="base"
     pagecolor="#ffffff"
     bordercolor="#666666"
     borderopacity="1.0"
     inkscape:pageopacity="0.0"
     inkscape:pageshadow="2"
     inkscape:zoom="0.24828125"
     inkscape:cx="524.64197"
     inkscape:cy="248.10763"
     inkscape:document-units="px"
     inkscape:current-layer="layer1"
     showgrid="false"
     inkscape:window-width="1920"
     inkscape:window-height="1026"
     inkscape:window-x="1600"
     inkscape:window-y="27"
     inkscape:window-maximized="1" />
  <defs
     id="defs27347">
    <inkscape:perspective
       id="perspective27353"
       inkscape:persp3d-origin="396.85039 : 374.17322 : 1"
       inkscape:vp_z="793.70078 : 561.25983 : 1"
       inkscape:vp_y="0 : 1066.6667 : 0"
       inkscape:vp_x="0 : 561.25983 : 1"
       sodipodi:type="inkscape:persp3d" />
  </defs>
  <metadata
     id="metadata27350">
    <rdf:RDF>
      <cc:Work
         rdf:about="">
        <dc:format>image/svg+xml</dc:format>
        <dc:type
           rdf:resource="http://purl.org/dc/dcmitype/StillImage" />
        <dc:title></dc:title>
      </cc:Work>
    </rdf:RDF>
  </metadata>
  <g
     transform="translate(0,-55.852992)"
     id="layer1"
     inkscape:groupmode="layer"
     inkscape:label="Layer 1">
    <g
       id="g11367"
       transform="matrix(0.16579845,0,0,-0.14939495,13.134999,971.6374)"
       style="fill:none;stroke:#000000;stroke-width:25.41568375;stroke-miterlimit:4;stroke-dasharray:none;stroke-opacity:1">
      <path
         id="path11369"
         d="M 816,5053.8667 C 794.66667,5016.5333 746.66667,4937.6 711.46667,4876.8 c -36.26667,-59.7333 -76.8,-126.9333 -89.6,-149.3333 -12.8,-21.3334 -23.46667,-50.1334 -24.53334,-64 0,-13.8667 43.73334,-97.0667 96,-184.5334 94.93334,-157.8666 118.4,-222.9333 80,-222.9333 -25.6,0 -83.2,58.6667 -112,114.1333 -32,61.8667 -122.66666,213.3334 -139.73333,233.6 -9.6,11.7334 -62.93333,14.9334 -266.66667,14.9334 H 0 v -48 c 0,-50.1334 -1.0666667,-49.0667 138.66667,-284.8 l 80,-135.4667 208,-1.0667 c 206.93333,0 209.06666,0 249.6,-27.7333 l 41.6,-28.8 -41.6,-24.5333 c -40.53334,-24.5334 -49.06667,-25.6 -261.33334,-25.6 H 195.2 l -30.93333,-44.8 c -16,-25.6 -59.73334,-96 -97.06667,-156.8 L 0,3730.1333 v -83.2 -84.2666 h 243.2 l 242.13333,1.0666 57.6,92.8 c 148.26667,236.8 154.66667,245.3334 200.53334,267.7334 38.4,18.1333 44.8,19.2 50.13333,5.3333 9.6,-26.6667 -4.26667,-68.2667 -52.26667,-148.2667 C 637.86667,3607.4667 609.06667,3556.2667 602.66667,3539.2 c -8.53334,-20.2667 16,-70.4 107.73333,-219.7333 37.33333,-60.8 68.26667,-113.0667 68.26667,-116.2667 0,-18.1333 89.6,-131.2 104.53333,-131.2 11.73333,0 42.66667,39.4667 86.4,112 65.0667,106.6667 69.3333,112 90.6667,97.0667 29.8666,-19.2 34.1333,-45.8667 7.4666,-54.4 -10.6666,-3.2 -33.0666,-16 -48,-27.7334 -25.59997,-19.2 -27.7333,-28.8 -27.7333,-96 0,-67.2 2.13333,-73.6 22.4,-73.6 11.7333,0 68.2667,28.8 123.7333,64 102.4,64 123.7334,71.4667 151.4667,54.4 25.6,-17.0666 6.4,-36.2666 -112,-112 C 983.46667,2912 992,2920.5333 992,2846.9333 c 0,-107.7333 -13.86667,-112 347.7333,105.6 71.4667,41.6 134.4,76.8 138.6667,76.8 5.3333,0 37.3333,-17.0666 70.4,-36.2666 33.0667,-20.2667 81.0667,-49.0667 106.6667,-62.9334 25.6,-13.8666 122.6666,-70.4 216.5333,-124.8 93.8667,-54.4 199.4667,-115.2 234.6667,-134.4 35.2,-19.2 65.0666,-39.4666 67.2,-45.8666 C 2176,2617.6 2139.7333,2613.3333 2060.8,2613.3333 h -117.3333 l -62.9334,64 -61.8666,65.0667 -69.3334,-3.2 -69.3333,-3.2 1.0667,-37.3333 c 1.0666,-20.2667 5.3333,-48 9.6,-60.8 7.4666,-23.4667 5.3333,-24.5334 -43.7334,-24.5334 -50.1333,0 -54.4,2.1334 -106.6666,60.8 L 1484.8,2736 l -81.0667,3.2 c -77.8666,4.2667 -81.0666,3.2 -81.0666,-19.2 0,-12.8 12.8,-39.4667 27.7333,-59.7333 16,-20.2667 26.6667,-38.4 24.5333,-39.4667 -2.1333,-2.1333 -17.0666,-11.7333 -33.0666,-21.3333 -56.5334,-35.2 -48,-136.5334 12.8,-157.8667 36.2666,-12.8 37.3333,-16 16,-52.2667 -8.5334,-14.9333 -14.9334,-37.3333 -16,-50.1333 0,-21.3333 5.3333,-24.5333 37.3333,-24.5333 44.8,0 91.7333,22.4 142.9333,67.2 48,41.6 123.7334,74.6666 150.4,66.1333 25.6,-8.5333 26.6667,-22.4 4.2667,-44.8 -8.5333,-9.6 -14.9333,-28.8 -12.8,-44.8 3.2,-26.6667 5.3333,-27.7333 83.2,-30.9333 71.4667,-3.2 82.1333,-1.0667 99.2,20.2666 10.6667,12.8 43.7333,42.6667 73.6,65.0667 53.3333,39.4667 56.5333,40.5333 146.1333,40.5333 117.3334,0 132.2667,-9.6 76.8,-45.8666 -23.4666,-16 -45.8666,-28.8 -49.0666,-28.8 -3.2,0 -36.2667,-18.1334 -72.5334,-41.6 -36.2666,-22.4 -142.9333,-85.3334 -236.8,-139.7334 -93.8666,-54.4 -200.5333,-117.3333 -236.8,-140.8 -36.2666,-22.4 -72.5333,-40.5333 -80,-40.5333 -7.4666,0 -73.6,34.1333 -147.2,75.7333 -268.8,153.6 -299.7333,169.6 -310.4,164.2667 -5.3333,-4.2667 -9.6,-41.6 -9.6,-84.2667 v -77.8666 l 93.8667,-48 c 124.8,-64 180.2667,-100.2667 194.1333,-125.8667 9.6,-18.1333 7.4667,-23.4667 -17.0666,-32 -24.5334,-9.6 -43.7334,-4.2667 -139.7334,42.6667 -61.8666,28.8 -116.2666,53.3333 -121.6,53.3333 -5.3333,0 -9.6,-26.6667 -9.6,-58.6667 0,-52.2666 4.2667,-62.9333 40.5334,-103.4666 49.0666,-56.5334 17.0666,-35.2 -62.93337,42.6666 -33.06666,32 -67.2,55.4667 -76.8,53.3334 C 905.6,1916.8 851.2,1872 795.73333,1820.8 c -101.33333,-93.8667 -102.4,-94.9333 -102.4,-144 0,-27.7333 9.6,-89.6 20.26667,-137.6 10.66667,-49.0667 18.13333,-88.5333 14.93333,-88.5333 -2.13333,0 -37.33333,19.2 -76.8,41.6 -39.46666,23.4666 -84.26666,45.8666 -99.2,49.0666 -26.66666,7.4667 -28.8,5.3334 -34.13333,-50.1333 -3.2,-30.9333 -7.46667,-76.8 -9.6,-102.4 L 506.66667,1341.8667 412.8,1433.6 C 305.06667,1538.1333 318.93333,1534.9333 145.06667,1500.8 69.333333,1485.8667 25.6,1470.9333 18.133333,1460.2667 c -7.466666,-12.8 -3.2,-52.2667 16,-138.6667 39.466667,-171.7333 41.6,-177.0667 95.999997,-190.9333 92.8,-23.4667 189.86667,-56.5334 189.86667,-64 0,-6.4 -59.73333,-43.7334 -120.53333,-73.60003 C 137.6,962.13333 148.26667,937.6 251.73333,880 289.06667,858.66667 320,838.4 320,834.13333 320,829.86667 265.6,813.86667 200.53333,796.8 134.4,780.8 74.666667,761.6 68.266667,754.13333 50.133333,733.86667 -2.1333333,536.53333 2.1333333,499.2 6.4,459.73333 9.6,456.53333 138.66667,420.26667 c 176,-50.13334 171.73333,-51.2 277.33333,48 l 90.66667,86.4 3.2,-106.66667 c 3.2,-125.86667 2.13333,-125.86667 115.2,-67.2 42.66666,22.4 80,37.33333 83.2,35.2 2.13333,-3.2 -9.6,-53.33333 -26.66667,-112 -17.06667,-58.66667 -30.93333,-118.4 -30.93333,-133.33333 0,-19.2 20.26666,-48 72.53333,-99.200003 L 795.73333,0 h 67.2 67.2 L 1014.4,75.733333 C 1111.4667,163.2 1110.4,162.13333 1077.3333,304 1046.4,438.4 1043.2,435.2 1146.6667,379.73333 1196.8,352 1243.7333,333.86667 1253.3333,337.06667 c 12.8,5.33333 16,25.6 16,96 0,49.06666 3.2,89.6 7.4667,89.6 4.2667,0 52.2667,-43.73334 106.6667,-98.13334 L 1481.6,326.4 l 147.2,35.2 c 81.0667,18.13333 151.4667,38.4 155.7333,42.66667 10.6667,10.66666 -52.2666,278.4 -70.4,304 -7.4666,9.6 -55.4666,28.8 -108.8,42.66666 -52.2666,14.93334 -109.8666,32 -128,38.4 l -32,11.73334 L 1504,837.33333 C 1536,857.6 1575.4667,880 1592.5333,886.4 c 53.3334,22.4 30.9334,51.2 -85.3333,109.86667 -29.8667,14.93333 -57.6,32.00003 -60.8,37.33333 -3.2,4.2667 52.2667,22.4 123.7333,39.4667 70.4,16 137.6,37.3333 147.2,46.9333 22.4,18.1333 85.3334,210.1333 85.3334,256 0,27.7333 -5.3334,32 -60.8,48 -34.1334,9.6 -88.5334,25.6 -120.5334,35.2 l -58.6666,18.1333 -3.2,180.2667 c -3.2,202.6667 -11.7334,181.3333 93.8666,245.3333 411.7334,250.6667 579.2,348.8 583.4667,343.4667 6.4,-6.4 -76.8,-160 -96,-174.9333 -6.4,-5.3334 -49.0667,-13.8667 -92.8,-18.1334 -43.7333,-4.2666 -89.6,-13.8666 -101.3333,-21.3333 -29.8667,-19.2 -85.3334,-126.9333 -76.8,-149.3333 6.4,-16 18.1333,-17.0667 87.4666,-10.6667 43.7334,4.2667 80,3.2 80,-1.0667 -1.0666,-5.3333 -13.8666,-28.8 -29.8666,-52.2666 -27.7334,-39.4667 -37.3334,-44.8 -134.4,-70.4 -110.9334,-29.8667 -114.1334,-32 -140.8,-102.4 C 1705.6,1578.6667 1715.2,1568 1797.3333,1568 h 69.3334 v -40.5333 c 0,-44.8 13.8666,-61.8667 73.6,-92.8 l 35.2,-18.1334 41.6,40.5334 41.6,40.5333 21.3333,-50.1333 c 19.2,-43.7334 26.6667,-50.1334 54.4,-50.1334 58.6667,0 78.9333,94.9334 45.8667,215.4667 -33.0667,117.3333 11.7333,210.1333 52.2666,110.9333 29.8667,-73.6 44.8,-80 84.2667,-40.5333 41.6,41.6 52.2667,122.6667 25.6,200.5333 -9.6,27.7334 -17.0667,64 -17.0667,80 0,41.6 37.3334,136.5334 69.3334,174.9334 l 25.6,32 1.0666,-412.8 v -411.7334 l -124.8,-78.9333 C 2057.6,1115.7333 2011.7333,1088 2003.2,1088 c -4.2667,0 -8.5333,-11.7333 -8.5333,-27.7333 0,-21.3334 8.5333,-29.8667 39.4666,-43.7334 65.0667,-26.66663 122.6667,-11.7333 221.8667,54.4 142.9333,96 165.3333,102.4 165.3333,45.8667 0,-33.0667 -7.4666,-41.6 -90.6666,-99.2 -78.9334,-53.33333 -91.7334,-66.13333 -88.5334,-89.6 2.1334,-19.2 16,-33.06667 51.2,-51.2 45.8667,-22.4 62.9334,-23.46667 131.2,-6.4 l 28.8,6.4 V 806.4 736 h 62.9334 c 39.4666,0 67.2,5.33333 72.5333,13.86667 4.2667,6.4 10.6667,39.46666 13.8667,71.46666 L 2608,880 l 46.9333,-3.2 c 71.4667,-5.33333 116.2667,6.4 135.4667,36.26667 22.4,33.06666 13.8667,43.73333 -93.8667,113.06663 -72.5333,45.8667 -83.2,57.6 -83.2,84.2667 0,50.1333 39.4667,51.2 124.8,3.2 188.8,-104.5333 182.4,-101.3333 226.1334,-89.6 22.4,5.3333 49.0666,20.2667 59.7333,32 18.1333,20.2667 18.1333,22.4 -1.0667,44.8 -30.9333,36.2667 -54.4,52.2667 -162.1333,106.6667 C 2806.4,1235.2 2728.5333,1280 2688,1305.6 l -74.6667,49.0667 v 407.4666 l 1.0667,408.5334 30.9333,-36.2667 c 17.0667,-20.2667 41.6,-61.8667 54.4,-93.8667 l 23.4667,-57.6 L 2694.4,1888 c -26.6667,-89.6 -27.7333,-97.0667 -11.7333,-128 19.2,-37.3333 77.8666,-106.6667 90.6666,-106.6667 5.3334,0 17.0667,22.4 27.7334,50.1334 24.5333,69.3333 27.7333,71.4666 60.8,45.8666 35.2,-27.7333 36.2666,-60.8 5.3333,-120.5333 -33.0667,-62.9333 -32,-141.8667 2.1333,-193.0667 36.2667,-53.3333 61.8667,-48 94.9334,19.2 l 24.5333,53.3334 42.6667,-44.8 c 23.4666,-24.5334 44.8,-44.8 49.0666,-44.8 3.2,0 24.5334,12.8 46.9334,27.7333 45.8666,32 59.7333,67.2 41.6,106.6667 -23.4667,51.2 -17.0667,57.6 57.6,57.6 H 3296 l -20.2667,40.5333 c -32,62.9333 -85.3333,103.4667 -165.3333,124.8 -73.6,20.2667 -84.2667,27.7333 -96,67.2 -7.4667,22.4 -5.3333,23.4667 51.2,23.4667 32,0 61.8667,5.3333 65.0667,10.6666 C 3139.2,1891.2 3065.6,2012.8 3042.1333,2025.6 c -9.6,5.3333 -41.6,12.8 -69.3333,17.0667 -80,11.7333 -133.3333,58.6666 -181.3333,158.9333 -22.4,45.8667 -38.4,85.3333 -36.2667,88.5333 8.5333,7.4667 323.2,-160 375.4667,-199.4666 6.4,-4.2667 32,-20.2667 58.6666,-34.1334 121.6,-67.2 214.4,-129.0666 244.2667,-164.2666 l 33.0667,-37.3334 V 1593.6 1331.2 l 29.8666,6.4 c 16,4.2667 46.9334,16 68.2667,26.6667 l 39.4667,19.2 L 3641.6,1328 c 19.2,-29.8667 49.0667,-80 64,-109.8667 16,-30.9333 34.1333,-55.4666 41.6,-55.4666 6.4,0 37.3333,19.2 66.1333,42.6666 l 53.3334,42.6667 5.3333,-61.8667 5.3333,-60.8 64,-13.8666 C 4032,1091.2 4256,1021.8667 4256,1012.2667 4256,1001.6 4077.8667,939.73333 3993.6,922.66667 3879.4667,899.2 3883.7333,903.46667 3880.5333,825.6 l -3.2,-69.33333 -42.6666,32 C 3769.6,837.33333 3753.6,833.06667 3716.2667,755.2 3699.2,718.93333 3667.2,663.46667 3645.8667,632.53333 3596.8,563.2 3573.3333,518.4 3573.3333,496 c 0,-12.8 13.8667,-16 72.5334,-16 71.4666,0 324.2666,20.26667 329.6,25.6 2.1333,2.13333 -2.1334,28.8 -8.5334,58.66667 -6.4,30.93333 -8.5333,58.66666 -5.3333,61.86666 4.2667,4.26667 24.5333,-2.13333 46.9333,-12.8 21.3334,-11.73333 42.6667,-22.4 46.9334,-24.53333 5.3333,-2.13333 60.8,45.86667 123.7333,107.73333 114.1333,108.8 157.8667,142.93334 169.6,131.2 6.4,-5.33333 0,-61.86666 -30.9333,-263.46666 -6.4,-44.8 -8.5334,-89.6 -5.3334,-99.2 4.2667,-9.6 22.4,-24.53334 41.6,-33.06667 l 35.2,-13.86667 L 4359.4667,406.4 c -16,-6.4 -41.6,-14.93333 -55.4667,-18.13333 -36.2667,-8.53334 -39.4667,-28.8 -11.7333,-81.06667 89.6,-166.4 158.9333,-285.866667 167.4666,-285.866667 9.6,0 13.8667,5.333334 85.3334,127.999997 25.6,43.73334 61.8666,101.33334 81.0666,126.93334 53.3334,71.46666 49.0667,88.53333 -36.2666,118.4 L 4518.4,419.2 l 60.8,26.66667 c 33.0667,13.86666 62.9333,35.2 66.1333,45.86666 3.2,10.66667 -3.2,37.33334 -13.8666,59.73334 -48,92.8 -96,312.53333 -68.2667,312.53333 17.0667,0 181.3333,-124.8 249.6,-188.8 66.1333,-62.93333 81.0667,-65.06667 135.4667,-23.46667 46.9333,37.33334 50.1333,24.53334 26.6666,-99.2 l -5.3333,-28.8 h 202.6667 C 5410.1333,524.8 5404.8,521.6 5326.9333,630.4 c -26.6666,37.33333 -57.6,88.53333 -68.2666,114.13333 -28.8,65.06667 -62.9334,108.8 -83.2,108.8 -9.6,0 -39.4667,-17.06666 -65.0667,-37.33333 -25.6,-20.26667 -50.1333,-37.33333 -55.4667,-37.33333 -4.2666,0 -9.6,29.86666 -11.7333,66.13333 l -3.2,66.13333 -120.5333,18.13334 c -112,17.06666 -236.8,55.46666 -236.8,73.60003 0,17.0666 192,92.8 296.5333,117.3333 l 55.4667,12.8 v 55.4667 c 0,30.9333 3.2,59.7333 7.4666,62.9333 3.2,4.2667 26.6667,-9.6 52.2667,-29.8667 53.3333,-43.7333 74.6667,-46.9333 90.6667,-11.7333 6.4,13.8667 26.6666,32 44.8,41.6 34.1333,17.0667 52.2666,27.7333 219.7333,128 46.9333,28.8 93.8667,50.1333 104.5333,48 21.3334,-4.2667 20.2667,1.0667 29.8667,-180.2667 l 7.4667,-124.8 59.7333,-6.4 c 34.1333,-4.2666 83.2,-9.6 112,-12.8 l 50.1333,-6.4 v 169.6 c 0,93.8667 3.2,172.8 6.4,177.0667 8.5334,7.4667 119.4667,-51.2 293.3334,-153.6 68.2666,-40.5333 129.0666,-73.6 135.4666,-73.6 9.6,0 12.8,38.4 12.8,131.2 v 130.1333 l -51.2,32 c -75.7333,46.9334 -300.8,193.0667 -346.6666,224 L 5824,1761.0667 v 80 c 0,48 4.2667,78.9333 10.6667,78.9333 10.6666,0 153.6,-78.9333 324.2666,-180.2667 98.1334,-57.6 102.4,-53.3333 102.4,99.2 v 118.4 l -131.2,84.2667 c -71.4666,46.9333 -156.8,101.3333 -188.8,122.6667 -32,20.2666 -71.4666,49.0666 -87.4666,64 L 5824,2254.9333 v 182.4 182.4 l 29.8667,27.7334 c 34.1333,32 110.9333,72.5333 137.6,72.5333 29.8666,0 183.4666,-82.1333 262.4,-138.6667 L 6325.3333,2528 v -277.3333 -277.3334 l 40.5334,-24.5333 c 67.2,-42.6667 144,-72.5333 169.6,-66.1333 L 6560,1888 v 238.9333 238.9334 l 45.8667,-10.6667 c 24.5333,-5.3333 59.7333,-18.1333 76.8,-28.8 l 32,-18.1333 3.2,-209.0667 2.1333,-210.1333 -64,-34.1334 -64,-34.1333 v -151.4667 c 0,-114.1333 3.2,-154.6666 13.8667,-164.2666 8.5333,-6.4 57.6,-19.2 109.8666,-27.7334 147.2,-25.6 198.4,-42.6666 476.8,-157.8666 16,-6.4 28.8,-14.9334 28.8,-19.2 0,-3.2 -20.2666,-14.9334 -44.8,-25.6 -25.6,-10.6667 -82.1333,-35.2 -125.8666,-53.3334 -84.2667,-36.2666 -283.7334,-101.3333 -384,-124.8 L 6608,1082.6667 V 934.4 786.13333 L 6704,729.6 c 53.3333,-32 121.6,-70.4 153.6,-87.46667 l 56.5333,-28.8 L 6963.2,672 c 137.6,164.26667 398.9333,394.6667 446.9333,394.6667 20.2667,0 18.1334,-72.53337 -7.4666,-209.0667 C 7371.7333,693.33333 7350.4,602.66667 7321.6,517.33333 c -39.4667,-115.2 -37.3333,-121.6 46.9333,-170.66666 39.4667,-23.46667 88.5334,-51.2 108.8,-61.86667 20.2667,-11.73333 41.6,-24.53333 48,-29.86667 24.5334,-23.46666 84.2667,-8.53333 169.6,42.66667 48,27.73333 102.4,59.73333 121.6,69.33333 44.8,23.46667 43.7334,45.86667 -3.2,149.33334 C 7751.4667,648.53333 7690.6667,873.6 7690.6667,965.33333 v 47.99997 l 76.8,-50.1333 c 42.6666,-28.8 87.4666,-59.73333 98.1333,-69.33333 11.7333,-10.66667 24.5333,-19.2 29.8667,-19.2 12.8,0 144,-112 234.6666,-200.53334 l 83.2,-81.06666 44.8,23.46666 c 51.2,25.6 144,77.86667 198.4,108.8 L 8490.6667,745.6 v 148.26667 148.26663 l 73.6,12.8 c 112,18.1334 110.9333,18.1334 103.4666,-25.6 -4.2666,-20.2666 -26.6666,-87.46663 -49.0666,-150.39997 -48,-129.06666 -52.2667,-160 -21.3334,-169.6 48,-14.93333 221.8667,32 264.5334,72.53334 37.3333,34.13333 44.8,53.33333 77.8666,182.4 32,126.93333 54.4,161.06663 114.1334,172.80003 32,6.4 34.1333,5.3333 34.1333,-25.6 0,-17.0667 -14.9333,-71.4667 -33.0667,-120.53337 -19.2,-49.06666 -36.2666,-115.2 -38.4,-145.06666 l -5.3333,-56.53334 52.2667,6.4 c 131.2,13.86667 141.8666,17.06667 164.2666,40.53334 13.8667,13.86666 48,96 81.0667,188.80003 30.9333,90.6666 56.5333,165.3333 56.5333,166.4 0,6.4 76.8,14.9333 90.6667,9.6 12.8,-4.2667 13.8667,-11.7334 4.2667,-35.2 -26.6667,-67.2 -48,-163.2 -40.5334,-174.93337 6.4,-10.66666 25.6,-9.6 91.7334,4.26667 45.8666,9.6 108.8,20.2667 139.7333,24.5333 60.8,7.4667 67.2,0 43.7333,-53.3333 -13.8666,-28.8 -9.6,-27.73333 -183.4666,-65.06667 C 9336.5333,864 9336.5333,864 9301.3333,785.06667 9284.2667,747.73333 9268.2667,696.53333 9267.2,672 c -4.2667,-68.26667 -3.2,-68.26667 261.3333,-26.66667 45.8667,7.46667 50.1334,6.4 50.1334,-13.86666 C 9578.6667,592 9544.5333,568.53333 9456,549.33333 9409.0667,539.73333 9340.8,524.8 9304.5333,516.26667 9267.2,508.8 9228.8,496 9217.0667,488.53333 c -38.4,-23.46666 -68.2667,-92.8 -73.6,-170.66666 L 9138.1333,243.2 9206.4,247.46667 c 37.3333,3.2 102.4,11.73333 145.0667,19.2 42.6666,8.53333 81.0666,11.73333 85.3333,6.4 C 9441.0667,268.8 9435.7333,233.6 9426.1333,194.13333 9408,124.8 9408,122.66667 9427.2,105.6 9456,82.133333 9619.2,39.466667 9650.1333,48 c 18.1334,4.266667 34.1334,23.466667 52.2667,61.86667 13.8667,30.93333 25.6,61.86666 25.6,69.33333 0,6.4 3.2,12.8 6.4,12.8 5.3333,0 97.0667,-76.8 164.2667,-136.533333 43.7333,-39.466667 72.5333,-41.6 102.4003,-6.4 28.8,35.2 68.266,133.333333 68.266,167.466663 -1.066,14.93334 -42.666,68.26667 -116.2663,146.13334 -114.1334,120.53333 -116.2667,122.66666 -101.3334,150.4 7.4667,16 20.2667,30.93333 26.6667,33.06666 7.4667,2.13334 57.6,-41.6 113.0667,-98.13333 l 99.2003,-101.33333 29.866,34.13333 c 38.4,44.8 76.8,120.53333 76.8,152.53333 0,16 -37.333,62.93334 -116.266,144 L 9964.8,797.86667 9973.3333,838.4 c 7.4667,34.13333 25.6,58.66667 42.6667,56.53333 3.2,0 43.733,-42.66666 90.667,-94.93333 117.333,-131.2 137.6,-128 184.533,27.73333 29.867,98.13334 42.667,109.86667 82.133,68.26667 26.667,-27.73333 28.8,-34.13333 18.134,-60.8 -24.534,-61.86667 -66.134,-221.86667 -66.134,-253.86667 0,-25.6 13.867,-46.93333 72.534,-104.53333 39.466,-39.46667 80,-71.46667 89.6,-71.46667 18.133,0 35.2,39.46667 77.866,170.66667 10.667,32 20.267,59.73333 21.334,61.86667 7.466,9.6 80,-45.86667 80,-59.73334 0,-10.66666 -19.2,-72.53333 -43.734,-139.73333 -36.266,-104.53333 -40.533,-126.93333 -30.933,-151.46667 13.867,-30.93333 161.067,-180.26666 179.2,-180.26666 12.8,0 55.467,51.2 55.467,66.13333 0,20.26667 56.533,152.53333 72.533,171.73333 16,18.13334 20.267,14.93334 77.867,-41.6 l 61.866,-60.8 29.867,19.2 c 55.467,36.26667 152.533,136.53334 152.533,156.8 0,11.73334 -28.8,53.33334 -64,91.73334 -34.133,38.4 -60.8,72.53333 -58.666,74.66666 2.133,2.13334 74.666,18.13334 162.133,34.13334 86.4,17.06666 166.4,33.06666 177.067,37.33333 29.866,12.8 20.266,39.46667 -35.2,96 -43.734,43.73333 -49.067,54.4 -34.134,59.73333 9.6,3.2 109.867,9.6 220.8,13.86667 112,4.26667 219.734,11.73333 241.067,14.93333 l 37.333,7.46667 -22.4,117.33333 c -12.8,65.06667 -22.4,118.39997 -21.333,120.53337 4.267,5.3333 136.533,-62.9334 156.8,-81.0667 18.133,-14.93333 32,-2.1333 195.2,166.4 157.867,162.1333 256,247.4667 285.867,247.4667 11.733,0 3.2,-205.8667 -13.867,-298.6667 -46.933,-272 -51.2,-302.93333 -42.667,-325.33333 11.734,-29.86667 70.4,-75.73334 108.8,-85.33334 17.067,-4.26666 27.734,-10.66666 25.6,-14.93333 -2.133,-3.2 -38.4,-18.13333 -81.066,-33.06667 -70.4,-24.53333 -118.4,-54.4 -117.334,-72.53333 1.067,-4.26667 64,-132.26667 141.867,-284.8 86.4,-168.53333 148.267,-277.333333 157.867,-277.333333 8.533,0 29.866,28.8 48,64 76.8,152.533333 140.8,262.400003 203.733,355.200003 42.667,61.86666 67.2,109.86666 67.2,128 0,26.66666 -7.467,32 -92.8,65.06666 -144,55.46667 -148.267,62.93334 -59.733,103.46667 125.866,56.53333 144,87.46667 100.266,172.8 -58.666,116.2667 -141.866,474.6667 -124.8,540.8 7.467,28.8 7.467,28.8 36.267,10.6667 108.8,-69.3334 234.667,-173.8667 366.933,-301.8667 130.134,-125.8667 128,-125.8667 225.067,-60.8 54.4,36.2667 82.133,45.8667 82.133,28.8 0,-5.3333 -7.466,-60.8 -16,-124.8 -10.666,-74.66667 -12.8,-119.46667 -6.4,-125.86667 7.467,-7.46666 72.534,-6.4 184.534,2.13334 96,6.4 209.066,9.6 252.8,5.33333 77.866,-7.46667 81.066,-8.53333 130.133,-59.73333 27.733,-27.73334 59.733,-51.2 71.467,-51.2 12.8,0 58.666,34.13333 106.666,80 46.934,43.73333 92.8,80 101.334,80 9.6,0 18.133,-14.93334 22.4,-40.53334 26.666,-148.26666 88.533,-332.8 112,-332.8 20.266,0 129.066,97.06667 134.4,120.53334 C 14592,707.2 14563.2,851.2 14514.133,1048.5333 l -14.933,60.8 51.2,43.7334 c 36.267,29.8666 53.333,39.4666 56.533,28.8 2.134,-7.4667 23.467,-92.8 45.867,-188.80003 22.4,-96 45.867,-177.06667 53.333,-179.2 14.934,-6.4 129.067,60.8 156.8,91.73333 12.8,14.93333 18.134,30.93333 13.867,51.2 -4.267,24.53333 -62.933,282.6667 -87.467,384 -4.266,19.2 14.934,41.6 108.8,125.8667 l 115.2,102.4 48,-5.3334 c 67.2,-6.4 103.467,-25.6 116.267,-58.6666 6.4,-14.9334 21.333,-86.4 33.067,-156.8 l 22.4,-130.1334 -56.534,-52.2666 c -30.933,-29.8667 -99.2,-91.7334 -150.4,-137.6 -51.2,-45.8667 -96,-94.93337 -99.2,-107.73337 -7.466,-27.73333 12.8,-129.06666 29.867,-149.33333 6.4,-7.46667 19.2,-13.86667 28.8,-13.86667 14.933,0 176,123.73334 241.067,184.53334 55.466,51.2 60.8,49.06666 78.933,-33.06667 l 9.6,-44.8 -130.133,-119.46667 c -70.4,-65.06666 -137.6,-132.26666 -149.334,-149.33333 -19.2,-29.86667 -19.2,-32 0,-118.4 29.867,-128 24.534,-129.06667 227.2,54.4 54.4,49.06667 103.467,87.46667 109.867,85.33333 7.467,-3.2 82.133,-199.46666 83.2,-218.66666 0,-13.86667 181.333,14.93333 181.333,28.8 0,4.26666 -11.733,59.73333 -26.666,123.73333 -13.867,64 -21.334,120.53333 -17.067,124.8 8.533,8.53333 107.733,-13.86667 300.8,-67.2 98.133,-26.66667 102.4,-21.33333 75.733,85.33333 -11.733,48 -25.6,91.73334 -30.933,97.06667 -4.267,4.26667 -66.133,25.6 -136.533,46.93333 -70.4,21.33334 -160,49.06667 -199.467,61.86667 l -71.467,22.4 -12.8,56.53333 c -7.466,30.93337 -10.666,58.66667 -8.533,61.86667 5.333,4.2667 138.667,-26.6667 265.6,-61.86667 105.6,-29.86666 114.133,-29.86666 121.6,-10.66666 9.6,23.46666 -36.267,195.20003 -51.2,195.20003 -16,0 -371.2,115.2 -388.267,126.9333 -21.333,12.8 -77.866,277.3333 -65.066,301.8667 20.266,37.3333 96,83.2 136.533,83.2 46.933,0 232.533,-49.0667 263.467,-69.3334 17.066,-10.6666 30.933,-51.2 61.866,-183.4666 22.4,-92.8 44.8,-186.6667 50.134,-208 8.533,-35.2 16,-41.6 55.466,-52.2667 24.534,-6.4 69.334,-12.8 98.134,-13.8667 53.333,-1.0666 53.333,-1.0666 50.133,30.9334 -2.133,18.1333 -20.267,99.2 -40.533,182.4 -19.2,82.1333 -36.267,152.5333 -36.267,156.8 0,11.7333 82.133,8.5333 112,-5.3334 14.933,-6.4 29.867,-24.5333 33.067,-39.4666 3.2,-14.9334 10.666,-39.4667 14.933,-54.4 5.333,-14.9334 22.4,-86.4 38.4,-160 40.533,-186.6667 35.2,-178.1334 109.867,-193.0667 42.666,-9.6 60.8,-17.0667 55.466,-24.5333 -11.733,-16 -51.2,-145.0667 -67.2,-221.8667 -9.6,-44.8 -9.6,-68.26667 -2.133,-81.06667 12.8,-19.2 188.8,-73.6 274.133,-84.26666 l 52.267,-6.4 89.6,89.6 89.6,89.6 V 716.8 c 0,-103.46667 1.067,-108.8 22.4,-108.8 12.8,0 49.067,16 82.133,36.26667 34.134,20.26666 72.534,39.46666 86.4,43.73333 21.334,6.4 24.534,4.26667 18.134,-10.66667 -19.2,-52.26666 -49.067,-185.6 -49.067,-224 0,-40.53333 6.4,-49.06666 99.2,-141.86666 54.4,-53.33334 105.6,-98.13334 115.2,-98.13334 18.133,0 233.6,214.4 233.6,231.46667 0,6.4 -13.867,66.13333 -32,132.26667 -17.067,67.2 -32,125.86666 -32,130.13333 0,5.33333 40.533,-12.8 90.667,-39.46667 50.133,-26.66666 98.133,-49.06666 106.666,-49.06666 12.8,0 16,17.06666 16,96 0,69.33333 3.2,96 12.8,96 7.467,0 57.6,-43.73334 112,-98.13334 l 98.134,-97.06666 56.533,12.8 c 30.933,6.4 100.267,25.6 152.533,41.6 113.067,35.2 108.8,19.2 58.667,216.53333 l -34.133,135.4667 -92.8,26.6666 c -50.134,14.9334 -115.2,34.1334 -144,41.6 l -53.334,13.8667 69.334,40.5333 c 37.333,22.4 80,49.0667 94.933,60.8 25.6,19.2 25.6,20.2667 7.467,40.5334 -10.667,11.7333 -35.2,27.7333 -53.334,35.2 -45.866,18.1333 -114.133,60.8 -114.133,71.4666 0,5.3334 58.667,22.4 131.2,39.4667 71.467,17.0667 135.467,35.2 141.867,41.6 7.466,6.4 30.933,73.6 52.266,148.2667 35.2,117.3333 38.4,138.6666 25.6,150.4 -8.533,7.4666 -64,26.6666 -123.733,42.6666 -58.667,14.9334 -125.867,34.1334 -149.333,42.6667 l -40.534,13.8667 -96,-91.7334 -96,-91.7333 -6.4,32 c -4.266,18.1333 -7.466,67.2 -8.533,109.8667 -1.067,72.5333 -2.133,76.8 -24.533,76.8 -13.867,0 -59.734,-19.2 -101.334,-42.6667 l -77.866,-41.6 v 30.9333 c 0,18.1334 9.6,67.2 22.4,109.8667 37.333,129.0667 39.466,117.3333 -26.667,183.4667 -33.067,33.0666 -59.733,61.8666 -59.733,65.0666 0,10.6667 132.266,69.3334 145.066,64 11.734,-4.2666 14.934,-39.4666 14.934,-170.6666 0,-97.0667 4.266,-167.4667 10.666,-171.7334 14.934,-8.5333 93.867,27.7334 135.467,62.9334 l 35.2,28.8 2.133,193.0666 3.2,192 45.867,33.0667 c 33.067,24.5333 48,29.8667 56.533,21.3333 7.467,-7.4666 18.134,-85.3333 24.534,-176 l 11.733,-163.2 30.933,2.1334 c 18.134,1.0666 51.2,17.0666 74.667,34.1333 l 43.733,30.9333 3.2,195.2 3.2,196.2667 76.8,50.1333 c 92.8,59.7334 176,104.5334 195.2,104.5334 11.734,0 14.934,-37.3334 17.067,-167.4667 l 3.2,-168.5333 33.067,-3.2 c 24.533,-2.1334 72.533,17.0666 179.2,71.4666 80,41.6 150.4,75.7334 156.8,75.7334 5.333,0 9.6,-61.8667 9.6,-149.3334 v -148.2666 l -45.867,-30.9334 c -24.533,-16 -97.067,-60.8 -161.067,-99.2 -124.8,-73.6 -134.4,-86.4 -134.4,-170.6666 V 1856 h 38.4 c 27.734,0 77.867,20.2667 169.6,69.3333 71.467,37.3334 133.334,66.1334 137.6,61.8667 3.2,-3.2 6.4,-32 6.4,-61.8667 0,-39.4666 -6.4,-64 -21.333,-83.2 -11.733,-13.8666 -81.067,-55.4666 -154.667,-91.7333 -157.866,-77.8667 -178.133,-100.2667 -173.866,-192 5.333,-90.6667 13.866,-90.6667 188.8,4.2667 83.2,44.8 154.666,78.9333 158.933,75.7333 3.2,-4.2667 11.733,-92.8 18.133,-196.2667 10.667,-185.6 10.667,-188.8 37.334,-201.6 48,-24.5333 117.333,-10.6666 117.333,23.4667 0,9.6 10.667,16 27.733,16 42.667,0 266.667,-77.8667 360.534,-124.8 l 83.2,-41.6 -121.6,-54.4 c -131.2,-58.6667 -292.267,-117.33333 -376.534,-135.46667 L 18736,912 l -3.2,-139.73333 -3.2,-139.73334 83.2,-53.33333 c 105.6,-68.26667 180.267,-109.86667 194.133,-109.86667 6.4,0 37.334,35.2 69.334,77.86667 91.733,123.73333 333.866,348.8 375.466,348.8 21.334,0 -20.266,-268.8 -72.533,-469.33333 -18.133,-67.2 -34.133,-133.33334 -37.333,-146.13334 -4.267,-19.2 11.733,-34.13333 109.866,-98.13333 64,-41.6 125.867,-75.73333 136.534,-75.73333 11.733,0 52.266,20.26666 90.666,44.8 73.6,49.06666 98.134,64 137.6,84.26666 28.8,16 29.867,44.8 3.2,88.53334 -48,76.8 -139.733,440.53333 -126.933,501.33333 3.2,16 5.333,17.06667 24.533,1.06667 11.734,-8.53334 61.867,-46.93334 112,-84.26667 50.134,-37.33333 145.067,-119.46667 211.2,-182.4 L 20160,445.86667 l 115.2,68.26666 114.133,68.26667 v 142.93333 142.93334 l -32,7.46666 c -17.066,4.26667 -68.266,14.93334 -112,25.6 -128,28.8 -435.2,164.26667 -421.333,186.66667 21.333,34.1333 458.667,192 533.333,192 12.8,0 32,6.4 43.734,14.9333 18.133,13.8667 20.266,30.9334 23.466,149.3334 l 4.267,133.3333 -131.2,86.4 c -71.467,46.9333 -135.467,85.3333 -142.933,85.3333 -7.467,0 -26.667,-18.1333 -43.734,-39.4666 -73.6,-98.1334 -361.6,-355.2 -396.8,-355.2 -10.666,0 -5.333,131.2 8.534,218.6666 4.266,29.8667 24.533,131.2 43.733,227.2 26.667,130.1334 33.067,177.0667 24.533,190.9334 -6.4,10.6666 -43.733,38.4 -83.2,62.9333 -49.066,30.9333 -66.133,45.8667 -54.4,50.1333 13.867,5.3334 16,34.1334 16,183.4667 0,170.6667 1.067,176 22.4,176 35.2,0 64,-20.2667 80,-58.6667 10.667,-26.6666 14.934,-84.2666 14.934,-208 0,-94.9333 4.266,-181.3333 10.666,-192 10.667,-19.2 130.134,-85.3333 155.734,-85.3333 22.4,0 25.6,28.8 25.6,203.7333 0,92.8 3.2,169.6 8.533,169.6 4.267,0 69.333,-30.9333 145.067,-69.3333 94.933,-48 148.266,-69.3333 176,-69.3333 38.4,0 41.6,3.2 70.4,64 29.866,62.9333 29.866,64 9.6,86.4 -10.667,12.8 -60.8,42.6666 -109.867,65.0666 -50.133,23.4667 -112,56.5334 -137.6,74.6667 l -48,33.0667 27.733,24.5333 c 16,13.8667 76.8,54.4 135.467,89.6 58.667,36.2667 106.667,70.4 106.667,74.6667 0,5.3333 -18.134,23.4666 -39.467,41.6 -59.733,49.0666 -130.133,46.9333 -225.067,-6.4 -219.733,-121.6 -222.933,-122.6667 -278.4,-94.9334 -65.066,34.1334 -61.866,41.6 38.4,105.6 205.867,131.2 209.067,135.4667 115.2,187.7334 -83.2,46.9333 -116.266,43.7333 -197.333,-17.0667 -188.8,-146.1333 -180.267,-144 -350.933,-56.5333 -71.467,37.3333 -129.067,70.4 -129.067,73.6 0,4.2666 67.2,50.1333 149.333,102.4 82.134,51.2 149.334,99.2 149.334,105.6 0,6.4 -43.734,38.4 -97.067,70.4 -162.133,99.2 -196.267,122.6666 -196.267,136.5333 0,14.9333 214.4,151.4667 237.867,151.4667 8.533,0 93.867,-39.4667 189.867,-87.4667 l 174.933,-88.5333 60.8,34.1333 c 94.933,52.2667 89.6,98.1333 -14.933,147.2 -186.667,87.4667 -195.2,91.7333 -195.2,112 0,22.4 60.8,64 94.933,64 12.8,0 65.067,-22.4 116.267,-50.1333 218.666,-116.2667 228.266,-119.4667 302.933,-99.2 62.933,18.1333 82.133,74.6666 38.4,114.1333 -13.867,11.7333 -76.8,49.0667 -139.733,83.2 -112,59.7333 -115.2,61.8667 -96,81.0667 10.666,9.6 61.866,40.5333 115.2,68.2666 133.333,68.2667 165.333,94.9334 165.333,134.4 0,49.0667 -27.733,104.5334 -58.667,116.2667 -30.933,11.7333 -54.4,2.1333 -213.333,-89.6 -46.933,-26.6667 -98.133,-49.0667 -114.133,-49.0667 H 19936 v 160 160 h -25.6 c -34.133,0 -90.667,-20.2666 -125.867,-44.8 l -29.866,-20.2666 V 4022.4 3832.5333 l -48,-34.1333 c -34.134,-24.5333 -49.067,-30.9333 -53.334,-20.2667 -2.133,7.4667 -11.733,80 -19.2,161.0667 -8.533,81.0667 -19.2,151.4667 -25.6,157.8667 -6.4,6.4 -33.066,0 -73.6,-16 l -62.933,-25.6 -3.2,-195.2 c -2.133,-181.3334 -4.267,-197.3334 -24.533,-218.6667 -20.267,-21.3333 -146.134,-88.5333 -241.067,-128 l -34.133,-14.9333 -3.2,167.4666 -3.2,168.5334 -40.534,3.2 c -33.066,3.2 -54.4,-5.3334 -106.666,-38.4 -36.267,-23.4667 -96,-57.6 -132.267,-76.8 -94.933,-49.0667 -99.2,-43.7334 -99.2,121.6 0,153.6 -7.467,141.8666 149.333,236.8 55.467,33.0666 121.6,74.6666 146.134,91.7333 l 45.866,30.9333 v 78.9334 c 0,77.8666 -1.066,80 -26.666,80 -22.4,0 -105.6,-41.6 -246.4,-123.7334 -97.067,-55.4666 -89.6,78.9334 7.466,151.4667 20.267,14.9333 80,49.0667 132.267,75.7333 134.4,67.2 133.333,66.1334 133.333,160 V 4704 h -32 c -17.066,0 -84.266,-27.7333 -153.6,-64 -67.2,-35.2 -130.133,-64 -139.733,-64 -13.867,0 -16,24.5333 -16,174.9333 0,138.6667 -3.2,177.0667 -14.933,187.7334 -23.467,19.2 -133.334,19.2 -145.067,0 -6.4,-8.5334 -10.667,-96 -10.667,-194.1334 0,-123.7333 -4.266,-180.2666 -12.8,-185.6 -6.4,-4.2666 -75.733,25.6 -153.6,66.1334 -168.533,87.4666 -178.133,86.4 -183.466,-13.8667 -4.267,-87.4667 12.8,-105.6 172.8,-183.4667 71.466,-35.2 139.733,-74.6666 150.4,-86.4 23.466,-25.6 37.333,-138.6666 17.066,-138.6666 -6.4,0 -74.666,32 -151.466,70.4 -76.8,38.4 -150.4,68.2666 -162.134,66.1333 -21.333,-3.2 -23.466,-9.6 -23.466,-69.3333 0,-58.6667 4.266,-69.3334 30.933,-98.1334 17.067,-18.1333 86.4,-59.7333 154.667,-91.7333 68.266,-33.0667 132.266,-68.2667 141.866,-76.8 17.067,-14.9333 19.2,-38.4 19.2,-170.6667 0,-83.2 -2.133,-152.5333 -4.266,-152.5333 -17.067,0 -116.267,51.2 -185.6,96 -91.734,58.6667 -136.534,72.5333 -171.734,54.4 -21.333,-11.7333 -22.4,-20.2667 -22.4,-171.7333 0,-120.5334 -3.2,-160 -12.8,-160 -21.333,0 -221.866,92.8 -243.2,112 -21.333,19.2 -38.4,105.6 -48,250.6666 -10.666,160 -13.866,168.5334 -58.666,198.4 -25.6,17.0667 -52.267,25.6 -71.467,23.4667 l -29.867,-3.2 -3.2,-157.8667 c -3.2,-181.3333 -6.4,-185.6 -82.133,-141.8666 l -48,28.8 V 3989.3333 4169.6 l -69.333,38.4 c -37.334,21.3333 -73.6,36.2667 -78.934,32 -21.333,-12.8 -35.2,-94.9333 -32,-190.9333 C 17456,3897.6 17456,3897.6 17305.6,3984 c -132.267,76.8 -209.067,98.1333 -244.267,69.3333 -12.8,-10.6666 -19.2,-10.6666 -32,0 -13.866,10.6667 -25.6,11.7334 -61.866,0 -24.534,-6.4 -49.067,-17.0666 -55.467,-21.3333 -17.067,-12.8 -114.133,-41.6 -149.333,-43.7333 -65.067,-4.2667 -80,3.2 -181.334,86.4 -116.266,96 -116.266,108.8 0,86.4 36.267,-6.4 104.534,-14.9334 149.334,-19.2 l 83.2,-6.4 -7.467,45.8666 c -6.4,42.6667 -58.667,190.9334 -102.4,294.4 -11.733,25.6 -26.667,46.9334 -35.2,46.9334 -7.467,0 -46.933,-45.8667 -87.467,-102.4 -110.933,-152.5334 -112,-153.6 -129.066,-153.6 -19.2,0 -19.2,17.0666 0,116.2666 8.533,43.7334 25.6,92.8 38.4,109.8667 12.8,17.0667 36.266,51.2 53.333,75.7333 24.533,36.2667 44.8,50.1334 105.6,74.6667 91.733,36.2667 110.933,64 128,183.4667 7.467,46.9333 14.933,98.1333 18.133,115.2 4.267,20.2666 1.067,30.9333 -10.666,35.2 -16,6.4 -185.6,-56.5334 -252.8,-93.8667 -38.4,-21.3333 -39.467,-23.4667 -46.934,-103.4667 -12.8,-146.1333 -59.733,-206.9333 -208,-267.7333 -55.466,-22.4 -102.4,-39.4667 -104.533,-37.3333 -2.133,2.1333 39.467,61.8666 92.8,132.2666 53.333,71.4667 97.067,134.4 97.067,139.7334 0,16 -24.534,20.2666 -331.734,60.8 -22.4,3.2 -42.666,0 -45.866,-6.4 -4.267,-6.4 13.866,-76.8 41.6,-156.8 26.666,-80 46.933,-148.2667 43.733,-150.4 -7.467,-7.4667 -164.267,122.6666 -184.533,152.5333 -13.867,21.3333 -16,46.9333 -10.667,140.8 3.2,62.9333 9.6,123.7333 12.8,135.4667 7.467,24.5333 -14.933,49.0666 -121.6,133.3333 -81.067,64 -104.533,67.2 -113.067,19.2 -13.866,-83.2 -26.666,-187.7333 -26.666,-228.2667 0,-39.4666 5.333,-48 51.2,-86.4 27.733,-23.4666 62.933,-50.1333 78.933,-60.8 50.133,-32 62.933,-115.2 40.533,-247.4666 -17.066,-93.8667 -18.133,-96 -41.6,-74.6667 -11.733,10.6667 -29.866,59.7333 -43.733,119.4667 -13.867,55.4666 -34.133,114.1333 -45.867,128 -20.266,25.6 -21.333,25.6 -41.6,7.4666 -11.733,-10.6666 -69.333,-81.0666 -129.066,-156.8 l -106.667,-137.6 22.4,-19.2 c 14.933,-11.7333 51.2,-20.2666 100.267,-24.5333 89.6,-8.5333 179.2,-26.6667 179.2,-36.2667 0,-4.2666 -35.2,-24.5333 -77.867,-44.8 -67.2,-33.0666 -86.4,-37.3333 -153.6,-36.2666 -73.6,1.0666 -77.867,3.2 -133.333,48 l -56.534,46.9333 14.934,56.5333 c 19.2,70.4 12.8,76.8 -89.6,106.6667 -40.534,11.7333 -117.334,34.1333 -168.534,50.1333 l -94.933,28.8 -33.067,-29.8666 c -19.2,-17.0667 -70.4,-66.1334 -115.2,-108.8 l -81.066,-78.9334 -6.4,73.6 c -4.267,39.4667 -7.467,100.2667 -7.467,134.4 0,56.5334 -2.133,60.8 -24.533,60.8 -13.867,0 -28.8,-4.2666 -35.2,-9.6 -5.334,-5.3333 -46.934,-28.8 -91.734,-53.3333 -99.2,-52.2667 -98.133,-55.4667 -56.533,114.1333 14.933,60.8 26.667,122.6667 26.667,136.5334 0,41.6 -208,260.2666 -246.4,260.2666 -22.4,0 -52.267,-25.6 -141.867,-121.6 -101.333,-108.8 -113.067,-125.8666 -113.067,-161.0666 0,-37.3334 42.667,-244.2667 59.734,-288 8.533,-21.3334 8.533,-21.3334 -22.4,0 -69.334,45.8666 -202.667,112 -215.467,107.7333 -9.6,-4.2667 -13.867,-42.6667 -16,-131.2 l -3.2,-125.8667 -113.067,109.8667 c -126.933,122.6667 -119.466,119.4667 -259.2,90.6667 l -86.4,-18.1334 -103.466,66.1334 c -57.6,36.2666 -113.067,66.1333 -123.734,66.1333 -11.733,0 -27.733,-10.6667 -37.333,-23.4667 -39.467,-61.8666 -166.4,-178.1333 -298.667,-277.3333 l -55.466,-41.6 -3.2,30.9333 c -3.2,35.2 26.666,227.2 62.933,398.9334 20.267,93.8666 22.4,116.2666 10.667,130.1333 -20.267,24.5333 -165.334,102.4 -188.8,102.4 -11.734,0 -65.067,-27.7333 -119.467,-60.8 -114.133,-71.4667 -113.067,-70.4 -66.133,-188.8 52.266,-131.2 97.066,-400 65.066,-388.2667 -5.333,2.1334 -58.666,45.8667 -117.333,97.0667 -96,85.3333 -182.4,174.9333 -222.933,232.5333 -7.467,10.6667 -19.2,20.2667 -25.6,20.2667 -6.4,0 -66.134,-32 -132.267,-70.4 L 11872,4498.1333 V 4377.6 4257.0667 L 11840,4240 c -17.067,-8.5333 -40.533,-16 -53.333,-16 -20.267,0 -21.334,6.4 -21.334,128 v 128 l -34.133,-6.4 c -45.867,-8.5333 -78.933,-29.8667 -101.333,-65.0667 -14.934,-22.4 -20.267,-59.7333 -24.534,-167.4666 L 11600,4102.4 l -34.133,-20.2667 c -19.2,-10.6666 -39.467,-17.0666 -45.867,-12.8 -6.4,4.2667 -10.667,58.6667 -10.667,134.4 0,124.8 0,126.9334 -23.466,126.9334 -13.867,0 -43.734,-11.7334 -67.2,-24.5334 L 11376,4281.6 l -5.333,-158.9333 -5.334,-158.9334 -58.666,-34.1333 c -32,-19.2 -84.267,-44.8 -114.134,-56.5333 l -56.533,-22.4 V 3984 c 0,132.2667 0,133.3333 -25.6,139.7333 -20.267,4.2667 -53.333,-8.5333 -132.267,-53.3333 -58.666,-33.0667 -114.133,-59.7333 -123.733,-59.7333 -23.467,0 -28.8,33.0666 -25.6,138.6666 3.2,77.8667 6.4,91.7334 24.533,101.3334 11.734,5.3333 55.467,29.8666 96,53.3333 41.6,23.4667 84.267,46.9333 96,53.3333 49.067,25.6 82.134,108.8 62.934,158.9334 -10.667,26.6666 -30.934,21.3333 -148.267,-41.6 -59.733,-32 -112,-58.6667 -116.267,-58.6667 -4.266,0 -6.4,22.4 -4.266,50.1333 3.2,49.0667 4.266,51.2 72.533,90.6667 38.4,22.4 97.067,55.4667 131.2,72.5333 l 60.8,32 v 69.3334 c 0,37.3333 -4.267,70.4 -9.6,74.6666 -6.4,3.2 -66.133,-21.3333 -133.333,-55.4666 -67.2,-33.0667 -125.867,-57.6 -130.134,-53.3334 -4.266,4.2667 -10.666,61.8667 -12.8,128 -2.133,65.0667 -9.6,128 -14.933,138.6667 -7.467,13.8667 -22.4,18.1333 -67.2,18.1333 h -58.667 v -148.2666 c 0,-82.1334 -4.266,-151.4667 -8.533,-154.6667 -5.333,-3.2 -46.933,13.8667 -93.867,38.4 -45.866,23.4667 -104.533,52.2667 -129.066,62.9333 l -45.867,19.2 v -77.8666 -78.9334 l 136.533,-68.2666 135.467,-68.2667 3.2,-45.8667 3.2,-45.8666 -45.867,7.4666 c -25.6,4.2667 -82.133,28.8 -125.866,54.4 -43.734,25.6 -85.334,46.9334 -92.8,46.9334 -9.6,0 -13.867,-20.2667 -13.867,-71.4667 v -72.5333 l 138.667,-74.6667 138.666,-74.6667 V 4115.2 c 0,-64 -3.2,-115.2 -7.466,-115.2 -5.334,0 -23.467,9.6 -41.6,20.2667 -52.267,32 -205.867,97.0666 -228.267,97.0666 -20.267,0 -21.333,-8.5333 -21.333,-133.3333 0,-73.6 -4.267,-133.3333 -9.6,-133.3333 -18.134,0 -188.8,82.1333 -205.867,99.2 -12.8,13.8666 -19.2,50.1333 -24.533,153.6 -4.267,74.6666 -11.734,144 -16,152.5333 -11.734,22.4 -103.467,67.2 -122.667,59.7333 -12.8,-4.2666 -16,-30.9333 -16,-129.0666 0,-100.2667 -3.2,-124.8 -16,-129.0667 -22.4,-9.6 -69.3333,24.5333 -69.3333,49.0667 0,10.6666 -5.3334,23.4666 -10.6667,26.6666 -6.4,4.2667 -10.6667,56.5334 -10.6667,121.6 0,125.8667 -2.1333,130.1334 -71.4666,165.3334 -66.1334,33.0666 -67.2,30.9333 -67.2,-110.9334 0,-75.7333 -4.2667,-128 -10.6667,-128 -5.3333,0 -68.2667,28.8 -140.8,64 -71.4667,35.2 -133.3333,64 -138.6667,64 -23.4666,0 -51.2,-44.8 -51.2,-85.3333 0,-38.4 3.2,-43.7333 51.2,-70.4 27.7334,-16 52.2667,-30.9333 54.4,-32 7.4667,-6.4 -137.6,-214.4 -177.0666,-254.9333 -61.8667,-64 -86.4,-69.3334 -296.5334,-69.3334 -107.7333,0 -186.6666,4.2667 -186.6666,9.6 0,11.7334 51.2,54.4 66.1333,54.4 4.2667,0 26.6667,10.6667 49.0667,24.5334 21.3333,13.8666 77.8666,45.8666 124.8,71.4666 106.6666,56.5334 144,83.2 144,101.3334 0,30.9333 -443.7334,282.6666 -470.4,265.6 -5.3334,-3.2 -9.6,-98.1334 -9.6,-210.1334 -1.0667,-153.6 -4.2667,-209.0666 -14.9334,-222.9333 -7.4666,-10.6667 -17.0666,-19.2 -20.2666,-19.2 -6.4,0 -58.6667,84.2667 -107.7334,172.8 -25.6,45.8667 -27.7333,59.7333 -27.7333,176 0,108.8 3.2,129.0667 21.3333,152.5333 11.7334,14.9334 21.3334,29.8667 21.3334,34.1334 0,4.2666 13.8666,28.8 32,54.4 53.3333,80 46.9333,124.8 -41.6,279.4666 -50.1334,87.4667 -78.9334,129.0667 -93.8667,131.2 -16,2.1334 -38.4,-24.5333 -103.4667,-125.8666 -45.8666,-71.4667 -91.7333,-150.4 -102.4,-177.0667 l -20.2666,-46.9333 62.9333,-104.5334 64,-105.6 -1.0667,-94.9333 v -94.9333 l -76.8,-121.6 c -42.6666,-67.2 -83.2,-123.7334 -89.6,-126.9334 -10.6666,-3.2 -13.8666,42.6667 -13.8666,204.8 0,186.6667 -2.1334,210.1334 -18.1334,216.5334 -18.1333,7.4666 -84.2666,-24.5334 -279.4666,-133.3334 -56.5334,-32 -118.4,-64 -137.6,-72.5333 -66.1334,-26.6667 -45.8667,-49.0667 144,-162.1333 94.9333,-57.6 172.8,-109.8667 172.8,-116.2667 1.0666,-20.2667 -296.5334,-19.2 -343.4667,1.0667 -55.4667,23.4666 -181.3333,174.9333 -203.7333,247.4666 -3.2,11.7334 -16,32 -28.8,44.8 C 7520,4126.9333 7510.4,4128 7346.1333,4128 c -94.9333,0 -179.2,-4.2667 -187.7333,-9.6 -8.5333,-6.4 -11.7333,-19.2 -8.5333,-34.1333 5.3333,-22.4 -3.2,-30.9334 -80,-76.8 -46.9334,-28.8 -91.7334,-49.0667 -99.2,-45.8667 -9.6,3.2 -14.9334,65.0667 -18.1334,243.2 -3.2,131.2 -8.5333,246.4 -13.8666,257.0667 -12.8,29.8666 -36.2667,21.3333 -140.8,-45.8667 l -99.2,-64 v -282.6667 -282.6666 l -62.9334,-30.9334 c -34.1333,-18.1333 -65.0666,-28.8 -69.3333,-25.6 -3.2,4.2667 -6.4,116.2667 -6.4,249.6 V 4224 l -26.6667,6.4 c -20.2666,5.3333 -43.7333,-4.2667 -99.2,-39.4667 -120.5333,-76.8 -108.8,-40.5333 -108.8,-346.6666 v -268.8 l -39.4666,-32 c -62.9334,-48 -215.4667,-140.8 -258.1334,-156.8 -33.0666,-11.7334 -45.8666,-10.6667 -84.2666,4.2666 -25.6,10.6667 -62.9334,32 -83.2,48 l -36.2667,28.8 v 200.5334 199.4666 l 88.5333,51.2 c 177.0667,104.5334 306.1334,189.8667 332.8,220.8 24.5334,30.9334 26.6667,39.4667 26.6667,149.3334 0,132.2666 -1.0667,133.3333 -75.7333,86.4 -25.6,-16 -97.0667,-57.6 -158.9334,-91.7334 -61.8666,-35.2 -124.8,-71.4666 -140.8,-83.2 -14.9333,-10.6666 -35.2,-19.2 -43.7333,-19.2 -17.0667,0 -28.8,50.1334 -28.8,125.8667 0,40.5333 4.2667,48 33.0667,64 35.2,19.2 78.9333,45.8667 278.4,173.8667 L 6261.3333,4624 v 119.4667 c 0,68.2666 -4.2666,121.6 -10.6666,125.8666 -11.7334,7.4667 -53.3334,-13.8666 -354.1334,-185.6 -45.8666,-25.6 -62.9333,-30.9333 -66.1333,-20.2666 -2.1333,7.4666 -7.4667,67.2 -9.6,131.2 -3.2,65.0666 -9.6,125.8666 -12.8,136.5333 -6.4,16 -23.4667,18.1333 -123.7333,18.1333 H 5568 v -144 c 0,-92.8 -4.2667,-144 -10.6667,-144 -6.4,0 -46.9333,19.2 -90.6666,42.6667 -43.7334,23.4667 -117.3334,62.9333 -162.1334,86.4 -45.8666,24.5333 -99.2,53.3333 -118.4,65.0667 -19.2,11.7333 -41.6,19.2 -49.0666,16 -18.1334,-7.4667 -32,-157.8667 -19.2,-204.8 8.5333,-34.1334 54.4,-68.2667 309.3333,-227.2 L 5557.3333,4358.4 v -77.8667 c 0,-42.6666 -4.2666,-77.8666 -8.5333,-77.8666 -4.2667,0 -55.4667,28.8 -112,64 -57.6,35.2 -106.6667,64 -109.8667,64 -3.2,0 -25.6,13.8666 -50.1333,30.9333 -60.8,40.5333 -136.5333,78.9333 -144,71.4667 -3.2,-4.2667 -7.4667,-58.6667 -10.6667,-121.6 C 5117.8667,4208 5120,4195.2 5140.2667,4168.5333 c 20.2666,-24.5333 192,-147.2 208,-147.2 3.2,0 39.4666,-21.3333 80,-48 40.5333,-26.6666 77.8666,-48 82.1333,-48 3.2,0 16,-10.6666 26.6667,-23.4666 18.1333,-20.2667 20.2666,-42.6667 20.2666,-249.6 v -227.2 l -28.8,-16 c -68.2666,-35.2 -114.1333,-39.4667 -181.3333,-19.2 -70.4,22.4 -222.9333,116.2666 -250.6667,155.7333 -14.9333,20.2667 -19.2,64 -25.6,268.8 -8.5333,307.2 -10.6666,313.6 -124.8,376.5333 -43.7333,23.4667 -82.1333,43.7334 -86.4,43.7334 -3.2,0 -7.4666,-116.2667 -8.5333,-258.1334 -3.2,-238.9333 -4.2667,-259.2 -22.4,-262.4 -18.1333,-3.2 -121.6,54.4 -137.6,77.8667 -4.2667,5.3333 -8.5333,129.0667 -8.5333,274.1333 V 4329.6 l -35.2,26.6667 c -45.8667,35.2 -150.4,81.0666 -183.4667,81.0666 h -26.6667 v -234.6666 c 0,-211.2 -2.1333,-234.6667 -17.0666,-234.6667 -10.6667,0 -56.5334,21.3333 -104.5334,46.9333 -48,25.6 -106.6666,50.1334 -132.2666,54.4 l -44.8,7.4667 -32,-68.2667 c -53.3334,-112 -43.7334,-134.4 87.4666,-195.2 92.8,-42.6666 125.8667,-65.0666 125.8667,-84.2666 0,-6.4 -37.3333,-33.0667 -83.2,-58.6667 -44.8,-25.6 -131.2,-80 -192,-119.4667 -59.7333,-40.5333 -115.2,-73.6 -122.6667,-73.6 -6.4,0 -22.4,-7.4666 -33.0666,-16 -11.7334,-8.5333 -24.5334,-16 -29.8667,-16 -4.2667,0 -24.5333,26.6667 -45.8667,58.6667 -41.6,65.0667 -81.0666,91.7333 -109.8666,72.5333 -14.9334,-8.5333 -18.1334,-28.8 -18.1334,-105.6 0,-116.2666 -16,-157.8666 -65.0666,-162.1333 l -33.0667,-3.2 -7.4667,173.8667 c -4.2666,94.9333 -12.8,183.4666 -19.2,195.2 -18.1333,35.2 -54.4,58.6666 -90.6666,58.6666 h -35.2 v -275.2 V 3184 l -98.1334,-58.6667 C 3052.8,2956.8 2931.2,2883.2 2866.1333,2841.6 2832,2820.2667 2793.6,2800 2781.8667,2796.8 c -18.1334,-4.2667 -20.2667,-2.1333 -13.8667,20.2667 14.9333,50.1333 62.9333,129.0666 97.0667,157.8666 23.4666,21.3334 58.6666,36.2667 115.2,48 100.2666,22.4 134.4,55.4667 134.4,130.1334 V 3200 H 3056 c -49.0667,0 -58.6667,3.2 -58.6667,19.2 0,35.2 25.6,54.4 128,96 89.6,36.2667 104.5334,45.8667 124.8,83.2 13.8667,22.4 24.5334,52.2667 24.5334,66.1333 0,21.3334 -4.2667,23.4667 -65.0667,23.4667 h -64 l 7.4667,48 c 7.4666,55.4667 -6.4,78.9333 -60.8,101.3333 -41.6,18.1334 -75.7334,6.4 -97.0667,-32 -9.6,-17.0666 -22.4,-32 -26.6667,-32 -5.3333,0 -22.4,26.6667 -38.4,58.6667 -16,32 -35.2,58.6667 -42.6666,58.6667 -7.4667,0 -25.6,-11.7334 -39.4667,-26.6667 -33.0667,-35.2 -43.7333,-155.7333 -18.1333,-206.9333 27.7333,-55.4667 32,-92.8 12.8,-128 C 2834.1333,3310.9333 2822.4,3296 2818.1333,3296 c -4.2666,0 -21.3333,26.6667 -37.3333,58.6667 -27.7333,56.5333 -36.2667,64 -71.4667,58.6666 -50.1333,-5.3333 -58.6666,-123.7333 -16,-230.4 L 2720,3116.8 2689.0667,3048.5333 C 2672,3012.2667 2645.3333,2962.1333 2630.4,2938.6667 L 2603.7333,2896 l -1.0666,405.3333 v 405.3334 l 35.2,22.4 c 51.2,33.0666 260.2666,166.4 330.6666,210.1333 33.0667,21.3333 60.8,46.9333 60.8,55.4667 0,24.5333 -37.3333,56.5333 -83.2,70.4 -44.8,12.8 -51.2,10.6666 -215.4666,-91.7334 -21.3334,-12.8 -57.6,-34.1333 -82.1334,-46.9333 -42.6666,-21.3333 -44.8,-21.3333 -51.2,-2.1333 -10.6666,33.0666 2.1334,46.9333 107.7334,118.4 55.4666,37.3333 104.5333,72.5333 107.7333,77.8666 9.6,16 -41.6,60.8 -84.2667,73.6 -34.1333,9.6 -48,9.6 -78.9333,-5.3333 -20.2667,-9.6 -41.6,-18.1333 -46.9333,-18.1333 -6.4,0 -10.6667,33.0666 -10.6667,74.6666 0,70.4 -1.0667,74.6667 -27.7333,81.0667 -43.7334,11.7333 -123.7334,-2.1333 -139.7334,-23.4667 -7.4666,-10.6666 -13.8666,-43.7333 -13.8666,-74.6666 v -56.5334 l -56.5334,6.4 C 2276.2667,4185.6 2208,4148.2667 2208,4097.0667 c 0,-5.3334 45.8667,-38.4 101.3333,-71.4667 81.0667,-48 101.3334,-65.0667 101.3334,-85.3333 0,-12.8 -5.3334,-27.7334 -10.6667,-30.9334 -6.4,-4.2666 -70.4,24.5334 -144,62.9334 -72.5333,38.4 -145.0667,70.4 -160,70.4 -29.8667,0 -90.6667,-27.7334 -103.4667,-46.9334 -24.5333,-36.2666 -13.8666,-45.8666 198.4,-168.5333 70.4,-40.5333 151.4667,-90.6667 179.2,-110.9333 l 51.2,-38.4 v -392.5334 c 0,-229.3333 -4.2666,-395.7333 -9.6,-400 -12.8,-7.4666 -43.7333,38.4 -78.9333,118.4 -34.1333,78.9334 -35.2,98.1334 -7.4667,178.1334 C 2352,3257.6 2352,3273.6 2323.2,3333.3333 c -19.2,39.4667 -28.8,48 -53.3333,48 -24.5334,0 -32,-7.4666 -50.1334,-48 -11.7333,-26.6666 -26.6666,-48 -33.0666,-48 -6.4,0 -22.4,22.4 -34.1334,50.1334 -19.2,44.8 -20.2666,56.5333 -9.6,93.8666 39.4667,134.4 36.2667,180.2667 -19.2,242.1334 -34.1333,38.4 -45.8666,35.2 -76.8,-26.6667 -12.8,-24.5333 -24.5333,-46.9333 -25.6,-48 -2.1333,-2.1333 -17.0666,6.4 -34.1333,18.1333 -25.6,19.2 -35.2,20.2667 -68.2667,11.7334 -45.8666,-12.8 -84.2666,-43.7334 -84.2666,-68.2667 0,-9.6 7.4666,-32 16,-48 8.5333,-17.0667 11.7333,-33.0667 8.5333,-37.3333 -4.2667,-3.2 -37.3333,-6.4 -75.7333,-6.4 h -69.3334 l 6.4,-38.4 c 8.5334,-54.4 33.0667,-76.8 102.4,-96 148.2667,-40.5334 193.0667,-66.1334 193.0667,-112 0,-16 -10.6667,-20.2667 -71.4667,-22.4 -87.4666,-4.2667 -92.8,-14.9334 -43.7333,-89.6 34.1333,-50.1334 38.4,-53.3334 125.8667,-76.8 113.0666,-29.8667 115.2,-32 156.8,-85.3334 32,-42.6666 74.6666,-147.2 64,-157.8666 -6.4,-6.4 -98.1334,38.4 -199.4667,97.0666 -38.4,22.4 -100.2667,58.6667 -138.6667,80 -92.8,52.2667 -260.2666,150.4 -322.1333,187.7334 L 1537.0667,3184 1536,3368.5333 V 3552 h 125.8667 c 69.3333,0 129.0666,3.2 133.3333,6.4 7.4667,8.5333 -36.2667,93.8667 -160,313.6 l -93.8667,165.3333 -208,5.3334 c -173.8666,4.2666 -213.3333,8.5333 -243.2,24.5333 -28.8,16 -33.0666,22.4 -22.4,35.2 9.6,11.7333 54.4,14.9333 233.6,14.9333 h 220.8 l 28.8,42.6667 c 14.9334,23.4667 27.7334,44.8 27.7334,48 0,4.2667 77.8666,130.1333 166.4,268.8 20.2666,30.9333 36.2666,68.2667 36.2666,83.2 v 26.6667 H 1504 c -274.1333,0 -276.2667,0 -289.0667,-23.4667 -16,-29.8667 -173.8666,-274.1333 -193.0666,-298.6667 -7.4667,-9.6 -24.53337,-20.2666 -36.2667,-23.4666 -61.86667,-18.1334 -25.6,74.6666 123.7333,321.0666 23.4667,38.4 42.6667,80 42.6667,92.8 0,11.7334 -24.5333,62.9334 -54.4,113.0667 -30.9333,50.1333 -68.2667,112 -83.2,139.7333 C 904.53333,5099.7333 890.66667,5120 872.53333,5120 861.86667,5120 839.46667,5095.4667 816,5053.8667 Z m 13477.333,-528 c 20.267,-33.0667 48,-78.9334 59.734,-101.3334 l 22.4,-40.5333 -24.534,-98.1333 c -52.266,-211.2 -92.8,-360.5334 -99.2,-360.5334 -3.2,0 -16,39.4667 -26.666,87.4667 -10.667,49.0667 -33.067,133.3333 -50.134,188.8 -45.866,147.2 -42.666,193.0667 20.267,298.6667 27.733,46.9333 52.267,85.3333 55.467,86.4 3.2,0 22.4,-27.7334 42.666,-60.8 z m -296.533,-492.8 c 92.8,-96 167.467,-176 166.4,-178.1334 -2.133,-1.0666 -32,6.4 -67.2,17.0667 -35.2,11.7333 -131.2,40.5333 -213.333,64 -91.734,26.6667 -158.934,53.3333 -173.867,67.2 -21.333,20.2667 -108.8,184.5333 -108.8,204.8 0,4.2667 51.2,5.3333 113.067,3.2 L 13827.2,4208 Z M 16121.6,4198.4 c 78.933,-33.0667 114.133,-140.8 68.267,-208 -36.267,-53.3333 -73.6,-76.8 -122.667,-77.8667 -89.6,-1.0666 -152.533,60.8 -152.533,150.4 0,112 102.4,179.2 206.933,135.4667 z M 13296,4133.3333 c 10.667,-38.4 24.533,-73.6 30.933,-78.9333 9.6,-8.5333 84.267,-32 244.267,-78.9333 21.333,-6.4 39.467,-14.9334 39.467,-18.1334 0,-3.2 -40.534,-30.9333 -90.667,-62.9333 -113.067,-72.5333 -120.533,-80 -96,-107.7333 10.667,-11.7334 24.533,-21.3334 30.933,-21.3334 6.4,0 46.934,-23.4666 89.6,-52.2666 l 77.867,-51.2 -67.2,-18.1334 c -57.6,-16 -189.867,-53.3333 -228.267,-65.0666 -12.8,-3.2 -78.933,-238.9334 -86.4,-309.3334 -7.466,-56.5333 10.667,-71.4666 124.8,-100.2666 50.134,-13.8667 110.934,-30.9334 136.534,-39.4667 92.8,-30.9333 103.466,-25.6 215.466,91.7333 C 13772.8,3280 13821.867,3328 13827.2,3328 c 4.267,0 7.467,-59.7333 7.467,-133.3333 0,-152.5334 2.133,-154.6667 77.866,-102.4 51.2,34.1333 97.067,58.6666 134.4,70.4 23.467,7.4666 24.534,5.3333 18.134,-17.0667 -35.2,-114.1333 -59.734,-226.1333 -59.734,-272 v -53.3333 L 14121.6,2706.1333 C 14184.533,2643.2 14241.067,2592 14246.4,2592 c 5.333,0 66.133,56.5333 135.467,125.8667 120.533,120.5333 124.8,126.9333 124.8,170.6666 v 46.9334 l 35.2,-8.5334 c 18.133,-3.2 91.733,-25.6 161.066,-48 70.4,-23.4666 133.334,-41.6 140.8,-41.6 12.8,0 41.6,-104.5333 32,-115.2 -5.333,-5.3333 -58.666,8.5334 -219.733,54.4 -50.133,14.9334 -106.667,29.8667 -126.933,34.1334 l -36.267,7.4666 6.4,-80 c 6.4,-96 19.2,-121.6 67.2,-141.8666 36.267,-14.9334 233.6,-76.8 322.133,-100.2667 25.6,-6.4 48,-17.0667 51.2,-24.5333 2.134,-7.4667 17.067,-65.0667 32,-130.1334 14.934,-64 32,-135.4666 37.334,-158.9333 11.733,-48 0,-67.2 -67.2,-102.4 -51.2,-26.6667 -70.4,-26.6667 -171.734,-1.0667 -115.2,28.8 -169.6,60.8 -180.266,107.7334 -39.467,158.9333 -99.2,349.8666 -115.2,366.9333 -23.467,23.4667 -160,64 -173.867,50.1333 -5.333,-5.3333 -5.333,-28.8 1.067,-56.5333 33.066,-135.4667 76.8,-324.2667 76.8,-330.6667 0,-13.8666 -46.934,-9.6 -99.2,8.5334 -28.8,9.6 -50.134,23.4666 -50.134,32 0,16 -69.333,314.6666 -84.266,366.9333 -9.6,33.0667 -89.6,62.9333 -169.6,64 h -56.534 l 6.4,-48 c 7.467,-43.7333 5.334,-48 -18.133,-53.3333 -13.867,-3.2 -118.4,-2.1334 -232.533,3.2 -114.134,6.4 -212.267,7.4666 -216.534,2.1333 -5.333,-4.2667 -7.466,-64 -5.333,-132.2667 2.133,-68.2666 0,-123.7333 -4.267,-123.7333 -3.2,0 -30.933,12.8 -60.8,27.7333 -76.8,40.5334 -115.2,30.9334 -168.533,-41.6 -82.133,-110.9333 -331.733,-339.2 -403.2,-365.8666 -10.667,-4.2667 -14.933,10.6666 -18.133,61.8666 -5.334,100.2667 19.2,263.4667 60.8,414.9334 57.6,205.8666 55.466,212.2666 -55.467,277.3333 -30.933,18.1333 -56.533,37.3333 -56.533,42.6667 0,12.8 70.4,46.9333 141.866,68.2666 38.4,10.6667 60.8,23.4667 60.8,33.0667 0,8.5333 -18.133,45.8667 -40.533,82.1333 -36.267,57.6 -78.933,132.2667 -164.267,283.7334 -19.2,34.1333 -19.2,36.2666 -1.066,50.1333 10.666,7.4667 24.533,14.9333 29.866,14.9333 6.4,0 27.734,13.8667 46.934,29.8667 l 36.266,29.8667 -37.333,84.2666 c -54.4,123.7334 -122.667,400 -98.133,400 24.533,0 338.133,-253.8666 349.866,-283.7333 3.2,-7.4667 17.067,-21.3333 32,-30.9333 24.534,-17.0667 28.8,-16 72.534,8.5333 25.6,14.9333 68.266,39.4667 97.066,55.4667 27.734,16 55.467,37.3333 60.8,48 6.4,10.6666 10.667,68.2666 10.667,126.9333 v 106.6667 l -39.467,6.4 c -129.066,21.3333 -429.866,132.2666 -461.866,170.6666 -7.467,9.6 7.466,21.3334 61.866,45.8667 115.2,52.2667 304,115.2 355.2,118.4 12.8,1.0667 23.467,-18.1333 36.267,-68.2667 z m 1625.6,35.2 c -35.2,-70.4 -100.267,-166.4 -119.467,-179.2 C 14768,3969.0667 14380.8,3865.6 14371.2,3876.2667 c -2.133,2.1333 61.867,74.6666 142.933,160 l 147.2,155.7333 h 136.534 136.533 z m -2705.067,-36.2666 c 66.134,-26.6667 122.667,-52.2667 126.934,-56.5334 9.6,-8.5333 -92.8,-57.6 -204.8,-98.1333 l -80,-28.8 -93.867,48 c -51.2,26.6667 -91.733,54.4 -89.6,60.8 5.333,17.0667 179.2,122.6667 202.667,123.7333 10.666,0 72.533,-22.4 138.666,-49.0666 z m 3233.067,-62.9334 c 42.667,-22.4 177.067,-133.3333 177.067,-146.1333 0,-6.4 -50.134,-7.4667 -138.667,-3.2 -120.533,7.4667 -138.667,6.4 -138.667,-8.5333 0,-16 74.667,-237.8667 101.334,-302.9334 8.533,-19.2 21.333,-35.2 29.866,-35.2 7.467,0 40.534,36.2667 72.534,80 101.333,139.7334 120.533,165.3334 124.8,160 6.4,-6.4 -17.067,-188.8 -30.934,-242.1333 -16,-60.8 -59.733,-103.4667 -151.466,-148.2667 -104.534,-50.1333 -114.134,-58.6666 -114.134,-96 0,-16 -4.266,-33.0666 -10.666,-36.2666 -5.334,-3.2 -10.667,2.1333 -10.667,12.8 0,11.7333 -6.4,29.8666 -14.933,40.5333 -13.867,19.2 -14.934,19.2 -46.934,-3.2 l -32,-23.4667 L 15241.6,3424 c -12.8,59.7333 -28.8,114.1333 -35.2,122.6667 -6.4,8.5333 -69.333,32 -139.733,52.2666 -204.8,59.7334 -197.334,46.9334 -80,123.7334 55.466,36.2666 101.333,73.6 101.333,82.1333 0,8.5333 -43.733,39.4667 -100.267,71.4667 -55.466,30.9333 -103.466,61.8666 -105.6,68.2666 -2.133,6.4 17.067,17.0667 42.667,23.4667 25.6,6.4 67.2,19.2 93.867,28.8 26.666,8.5333 74.666,17.0667 106.666,19.2 32,2.1333 97.067,18.1333 144,36.2667 97.067,36.2666 135.467,39.4666 180.267,17.0666 z M 1059.2,3892.2667 c 19.2,-22.4 42.6667,-54.4 50.1333,-70.4 28.8,-56.5334 126.9334,-221.8667 140.8,-236.8 10.6667,-12.8 9.6,-17.0667 -2.1333,-20.2667 -29.8667,-10.6667 -73.6,-67.2 -81.0667,-104.5333 -7.4666,-41.6 -16,-50.1334 -40.5333,-40.5334 -13.8667,5.3334 -12.8,12.8 11.7333,54.4 27.7334,49.0667 27.7334,49.0667 9.6,82.1334 -10.6666,18.1333 -32,54.4 -46.9333,81.0666 -13.8667,26.6667 -29.8667,53.3334 -34.1333,58.6667 -5.3334,6.4 -33.0667,53.3333 -62.9334,104.5333 -50.1333,86.4 -65.06663,132.2667 -47.99997,149.3334 12.8,12.8 70.39997,-18.1334 103.46667,-57.6 z m 10738.133,29.8666 69.334,-34.1333 5.333,-120.5333 5.333,-120.5334 117.334,-69.3333 117.333,-69.3333 37.333,45.8666 c 57.6,71.4667 280.534,289.0667 317.867,310.4 l 34.133,19.2 V 3836.8 c 0,-72.5333 -38.4,-280.5333 -68.266,-376.5333 -38.4,-120.5334 -38.4,-124.8 30.933,-164.2667 32,-18.1333 59.733,-36.2667 62.933,-40.5333 4.267,-7.4667 -27.733,-67.2 -149.333,-270.9334 -37.333,-62.9333 -68.267,-120.5333 -68.267,-128 0,-7.4666 52.267,-33.0666 118.4,-56.5333 65.067,-22.4 120.534,-45.8667 122.667,-50.1333 3.2,-4.2667 -6.4,-13.8667 -19.2,-22.4 -13.867,-8.5334 -54.4,-33.0667 -91.733,-56.5334 l -68.267,-41.6 6.4,-58.6666 c 3.2,-32 18.133,-89.6 33.067,-126.9334 36.266,-86.4 69.333,-244.2666 76.8,-373.3333 l 6.4,-99.2 -52.267,28.8 c -72.533,39.4667 -156.8,105.6 -318.933,250.6667 -75.734,68.2666 -147.2,126.9333 -157.867,131.2 -11.733,4.2666 -43.733,-5.3334 -83.2,-24.5334 -34.133,-18.1333 -62.933,-28.8 -64,-24.5333 -1.067,5.3333 -2.133,56.5333 -3.2,115.2 l -1.067,106.6667 -311.466,3.2 c -298.667,2.1333 -312.534,1.0666 -312.534,-17.0667 0,-11.7333 13.867,-39.4667 29.867,-61.8667 17.067,-22.4 61.867,-97.0666 100.267,-165.3333 l 69.333,-123.7333 -49.067,-12.8 c -26.666,-7.4667 -70.4,-23.4667 -96,-36.2667 -50.133,-25.6 -50.133,-24.5333 -129.066,-251.7333 -35.2,-102.4 -37.334,-104.5334 -82.134,-117.3334 -60.8,-17.0666 -61.866,-4.2666 -9.6,150.4 54.4,157.8667 56.534,173.8667 32,183.4667 -24.533,9.6 -118.4,-2.1333 -170.666,-21.3333 -40.534,-13.8667 -48,-22.4 -82.134,-98.1334 -20.266,-44.8 -48,-117.3333 -60.8,-160 -26.666,-83.2 -66.133,-130.1333 -112,-130.1333 -51.2,0 -52.266,24.5333 -5.333,110.9333 51.2,92.8 53.333,132.2667 8.533,153.6 -23.466,10.6667 -41.6,10.6667 -106.666,-3.2 -140.8,-30.9333 -157.867,-32 -157.867,-9.6 1.067,70.4 39.467,96 161.067,106.6667 43.733,3.2 105.6,10.6667 137.6,17.0667 32,6.4 89.6,11.7333 128,12.8 l 69.333,1.0666 3.2,162.1334 3.2,162.1333 128,-65.0667 c 85.333,-43.7333 131.2,-61.8666 138.667,-54.4 6.4,6.4 9.6,41.6 7.466,78.9334 l -3.2,68.2666 -107.733,58.6667 -108.8,59.7333 16,39.4667 c 9.6,22.4 19.2,38.4 23.467,36.2667 36.266,-19.2 154.666,-71.4667 162.133,-71.4667 5.333,0 9.6,29.8667 9.6,67.2 v 67.2 l -71.467,39.4667 c -40.533,22.4 -99.2,53.3333 -131.2,69.3333 l -58.666,29.8667 -3.2,119.4666 -3.2,119.4667 124.8,-62.9333 c 69.333,-35.2 131.2,-60.8 139.733,-57.6 10.667,4.2666 13.867,37.3333 13.867,141.8666 0,75.7334 4.266,139.7334 9.6,142.9334 4.266,3.2 57.6,-19.2 116.266,-50.1334 l 108.8,-55.4666 v -140.8 c 0,-86.4 5.334,-151.4667 12.8,-168.5334 14.934,-32 105.6,-83.2 130.134,-73.6 13.866,5.3334 17.066,29.8667 17.066,145.0667 v 138.6667 l 29.867,-6.4 c 16,-4.2667 34.133,-13.8667 39.467,-22.4 6.4,-7.4667 17.066,-85.3334 24.533,-171.7334 7.467,-86.4 18.133,-163.2 23.467,-170.6666 9.6,-10.6667 102.4,-46.9334 120.533,-46.9334 3.2,0 8.533,65.0667 12.8,144 4.267,78.9334 11.733,144 17.067,144 5.333,0 62.933,-26.6666 128,-59.7333 144,-71.4667 167.466,-72.5333 190.933,-6.4 23.467,69.3333 6.4,91.7333 -119.467,152.5333 -56.533,27.7334 -104.533,54.4 -107.733,59.7334 -3.2,5.3333 41.6,38.4 100.267,72.5333 116.266,70.4 126.933,88.5333 71.466,122.6667 -71.466,44.8 -94.933,39.4666 -244.266,-49.0667 -78.934,-48 -116.267,-54.4 -157.867,-29.8667 -18.133,10.6667 -33.067,22.4 -33.067,26.6667 0,7.4667 57.6,46.9333 142.934,97.0667 76.8,45.8666 76.8,80 0,104.5333 -51.2,17.0667 -96,6.4 -164.267,-37.3333 -32,-21.3334 -78.933,-48 -103.467,-59.7334 l -43.733,-21.3333 -66.133,26.6667 c -37.334,14.9333 -88.534,40.5333 -115.2,55.4666 l -48,28.8 41.6,24.5334 c 123.733,73.6 196.266,123.7333 196.266,136.5333 0,12.8 -157.866,123.7333 -176,123.7333 -3.2,0 -18.133,7.4667 -32,17.0667 -38.4,24.5333 -22.4,44.8 78.934,98.1333 l 87.466,46.9334 138.667,-70.4 c 76.8,-38.4 150.4,-70.4 164.267,-70.4 38.4,0 96,44.8 96,74.6666 0,22.4 -16,34.1334 -103.467,80 -129.067,66.1334 -135.467,72.5334 -103.467,94.9334 37.334,25.6 92.8,20.2666 169.6,-18.1334 z m -800,-98.1333 c 0,-43.7333 -4.266,-80 -10.666,-80 -5.334,0 -37.334,-16 -71.467,-36.2667 -34.133,-20.2666 -65.067,-34.1333 -69.333,-30.9333 -14.934,8.5333 -9.6,131.2 5.333,147.2 10.667,10.6667 130.133,76.8 144,80 1.067,0 2.133,-36.2667 2.133,-80 z m 5748.267,69.3333 c 19.2,-5.3333 71.467,-39.4666 115.2,-75.7333 l 80,-66.1333 82.133,34.1333 c 136.534,58.6667 146.134,60.8 185.6,40.5333 86.4,-45.8666 140.8,-82.1333 140.8,-93.8666 0,-16 -27.733,-35.2 -163.2,-110.9334 -152.533,-85.3333 -165.333,-115.2 -70.4,-160 78.934,-37.3333 107.734,-30.9333 214.4,42.6667 190.934,134.4 204.8,139.7333 278.4,101.3333 24.534,-12.8 44.8,-28.8 44.8,-36.2666 0,-25.6 -33.066,-57.6 -86.4,-82.1334 -166.4,-75.7333 -206.933,-100.2666 -210.133,-125.8666 -5.333,-34.1334 42.667,-72.5334 100.267,-81.0667 39.466,-6.4 57.6,0 222.933,89.6 l 180.267,96 59.733,-33.0667 c 165.333,-92.8 202.667,-117.3333 202.667,-132.2666 0,-25.6 -44.8,-59.7334 -153.6,-115.2 -55.467,-28.8 -112,-62.9334 -124.8,-76.8 l -23.467,-25.6 25.6,-27.7334 c 13.867,-16 73.6,-51.2 132.267,-78.9333 58.666,-27.7333 117.333,-62.9333 131.2,-76.8 l 23.466,-25.6 -23.466,-22.4 c -30.934,-27.7333 -174.934,-109.8667 -214.4,-121.6 -26.667,-7.4667 -52.267,3.2 -179.2,70.4 -161.067,86.4 -197.334,94.9333 -265.6,60.8 -27.734,-12.8 -37.334,-24.5333 -37.334,-44.8 0,-21.3333 14.934,-35.2 74.667,-72.5333 41.6,-24.5334 102.4,-59.7334 136.533,-76.8 65.067,-35.2 74.667,-53.3334 37.334,-78.9334 -50.134,-35.2 -112,-22.4 -253.867,53.3334 -122.667,66.1333 -134.4,70.4 -187.733,66.1333 -68.267,-5.3333 -110.934,-30.9333 -110.934,-66.1333 0,-25.6 17.067,-39.4667 107.734,-91.7334 114.133,-65.0666 169.6,-102.4 169.6,-113.0666 0,-6.4 -39.467,-33.0667 -87.467,-57.6 -106.667,-55.4667 -162.133,-92.8 -210.133,-141.8667 -30.934,-33.0667 -35.2,-42.6667 -28.8,-73.6 5.333,-32 2.133,-40.5333 -30.934,-72.5333 -45.866,-44.8 -48,-78.9334 -11.733,-227.2 l 24.533,-103.4667 -87.466,48 c -130.134,70.4 -132.267,70.4 -135.467,-54.4 l -3.2,-101.3333 -76.8,67.2 c -41.6,37.3333 -76.8,70.4 -76.8,75.7333 -1.067,4.2667 20.267,28.8 46.933,54.4 30.934,28.8 45.867,52.2667 42.667,61.8667 -3.2,8.5333 -39.467,26.6666 -80,38.4 -108.8,33.0666 -141.867,19.2 -274.133,-114.1334 -56.534,-56.5333 -115.2,-110.9333 -130.134,-120.5333 -34.133,-23.4667 -116.266,-25.6 -145.066,-4.2667 -19.2,13.8667 -12.8,23.4667 117.333,148.2667 120.533,116.2667 137.6,136.5333 126.933,153.6 -18.133,29.8667 -57.6,45.8667 -119.466,45.8667 -82.134,0 -120.534,-22.4 -218.667,-129.0667 -46.933,-52.2667 -106.667,-104.5333 -131.2,-118.4 -39.467,-20.2667 -50.133,-22.4 -90.667,-11.7333 -154.666,40.5333 -226.133,64 -233.6,77.8666 -4.266,8.5334 -16,49.0667 -26.666,90.6667 l -18.134,73.6 29.867,25.6 c 17.067,14.9333 65.067,58.6667 107.733,99.2 41.6,39.4667 88.534,75.7333 104.534,80 39.466,9.6 88.533,0 167.466,-33.0667 128,-54.4 173.867,-68.2666 228.267,-69.3333 53.333,0 57.6,2.1333 128,67.2 l 72.533,68.2667 -174.933,55.4666 c -269.867,85.3334 -268.8,84.2667 -190.933,136.5334 l 43.733,28.8 91.733,-23.4667 c 51.2,-12.8 138.667,-35.2 194.134,-50.1333 151.466,-39.4667 170.666,-37.3334 241.066,27.7333 32,30.9333 57.6,58.6667 57.6,62.9333 0,12.8 -88.533,46.9334 -245.333,97.0667 -78.933,24.5333 -146.133,46.9333 -148.267,49.0667 -3.2,2.1333 28.8,38.4 71.467,81.0666 88.533,88.5334 93.867,109.8667 43.733,170.6667 -49.066,59.7333 -73.6,54.4 -171.733,-35.2 -44.8,-41.6 -84.267,-74.6667 -87.467,-74.6667 -12.8,0 -26.666,42.6667 -52.266,155.7334 -32,141.8666 -67.2,228.2666 -91.734,228.2666 -9.6,0 -48,-30.9333 -84.266,-67.2 l -67.2,-68.2666 17.066,-73.6 c 8.534,-40.5334 32,-135.4667 50.134,-211.2 l 34.133,-137.6 -48,-40.5334 c -25.6,-22.4 -51.2,-36.2666 -55.467,-30.9333 -5.333,4.2667 -22.4,67.2 -38.4,139.7333 -42.666,189.8667 -53.333,222.9334 -71.466,230.4 -10.667,4.2667 -39.467,-17.0666 -84.267,-60.8 -65.067,-64 -66.133,-67.2 -57.6,-104.5333 5.333,-22.4 25.6,-110.9333 46.933,-197.3333 21.334,-87.4667 35.2,-167.4667 32,-179.2 -7.466,-22.4 -141.866,-150.4 -200.533,-188.8 -37.333,-24.5334 -42.667,-25.6 -99.2,-13.8667 -91.733,18.1333 -89.6,13.8667 -136.533,217.6 l -24.534,104.5333 33.067,34.1334 c 19.2,19.2 75.733,71.4666 126.933,118.4 51.2,45.8666 105.6,99.2 121.6,119.4666 l 27.734,36.2667 -19.2,91.7333 c -10.667,49.0667 -23.467,92.8 -27.734,96 -4.266,2.1334 -71.466,-50.1333 -148.266,-118.4 -76.8,-67.2 -146.134,-122.6666 -153.6,-122.6666 -14.934,0 -38.4,66.1333 -38.4,105.6 0,13.8666 14.933,35.2 35.2,52.2666 18.133,14.9334 78.933,71.4667 134.4,124.8 l 100.266,96 -7.466,-40.5333 c -5.334,-29.8667 -3.2,-41.6 7.466,-45.8667 19.2,-7.4666 219.734,75.7334 246.4,101.3334 10.667,11.7333 23.467,38.4 27.734,60.8 4.266,23.4666 13.866,67.2 20.266,99.2 13.867,69.3333 99.2,192 134.4,193.0666 11.734,1.0667 36.267,10.6667 53.334,21.3334 42.666,27.7333 109.866,64 117.333,64 17.067,0 -4.267,-38.4 -75.733,-133.3334 -82.134,-109.8666 -102.4,-151.4666 -80,-164.2666 6.4,-4.2667 87.466,-17.0667 178.133,-26.6667 180.267,-21.3333 200.533,-17.0667 177.067,27.7333 -25.6,50.1334 -93.867,264.5334 -84.267,264.5334 5.333,0 50.133,-34.1334 99.2,-74.6667 104.533,-88.5333 106.667,-94.9333 96,-264.5333 l -7.467,-115.2 96,-77.8667 c 57.6,-45.8667 103.467,-75.7333 115.2,-73.6 21.334,4.2667 42.667,99.2 48,220.8 l 3.2,68.2667 -73.6,60.8 c -88.533,72.5333 -104.533,106.6666 -106.666,234.6666 -2.134,154.6667 27.733,193.0667 64,82.1334 9.6,-30.9334 26.666,-74.6667 37.333,-98.1334 10.667,-23.4666 26.667,-60.8 35.2,-82.1333 23.467,-58.6667 45.867,-52.2667 107.733,34.1333 29.867,40.5334 78.934,108.8 109.867,150.4 29.867,40.5334 55.467,78.9334 55.467,84.2667 0,22.4 -53.334,35.2 -169.6,41.6 -171.734,9.6 -188.8,23.4667 -88.534,71.4667 94.934,44.8 176,76.8 199.467,77.8666 11.733,1.0667 37.333,-3.2 57.6,-9.6 z M 10659.2,3820.8 c 12.8,-11.7333 18.133,-32 18.133,-78.9333 V 3680 l -74.666,37.3333 -74.667,37.3334 v 61.8666 c 0,34.1334 3.2,66.1334 6.4,69.3334 7.467,7.4666 91.733,-37.3334 124.8,-65.0667 z M 7320.5333,3792 c 19.2,-26.6667 21.3334,-26.6667 163.2,-26.6667 161.0667,0 193.0667,-8.5333 245.3334,-65.0666 39.4666,-41.6 94.9333,-128 136.5333,-210.1334 22.4,-44.8 25.6,-56.5333 12.8,-61.8666 -23.4667,-8.5334 -80,19.2 -158.9333,80 -83.2,64 -170.6667,110.9333 -197.3334,105.6 -12.8,-2.1334 -21.3333,-20.2667 -28.8,-68.2667 l -10.6666,-64 -43.7334,32 c -24.5333,18.1333 -90.6666,61.8667 -148.2666,97.0667 -128,80 -186.6667,120.5333 -186.6667,131.2 1.0667,4.2666 37.3333,33.0666 83.2,64 91.7333,61.8666 78.9333,62.9333 133.3333,-13.8667 z m 2886.3997,-36.2667 c 41.6,-24.5333 75.734,-51.2 75.734,-58.6666 0,-22.4 -33.067,-44.8 -116.267,-75.7334 -92.8,-35.2 -120.533,-58.6666 -116.267,-99.2 3.2,-24.5333 18.134,-36.2666 110.934,-82.1333 138.666,-69.3333 136.533,-67.2 120.533,-87.4667 -21.333,-24.5333 -162.133,-99.2 -188.8,-99.2 -12.8,0 -77.867,26.6667 -142.9333,59.7334 -103.4667,52.2666 -125.8667,59.7333 -165.3334,54.4 -81.0666,-8.5334 -105.6,-57.6 -44.8,-90.6667 102.4,-56.5333 190.9334,-112 190.9334,-119.4667 0,-10.6666 -59.7334,-32 -89.6,-32 -12.8,0 -67.2,24.5334 -122.6667,53.3334 C 9642.6667,3219.2 9607.4667,3232 9572.2667,3232 h -46.9334 v 170.6667 c 0,160 -1.0666,170.6666 -20.2666,170.6666 -41.6,0 -113.0667,-34.1333 -206.9334,-98.1333 C 9163.7333,3383.4667 9088,3349.3333 9088,3382.4 c 0,19.2 59.7333,125.8667 125.8667,221.8667 40.5333,59.7333 77.8666,102.4 113.0666,125.8666 l 51.2,35.2 h 142.9334 c 141.8666,0 142.9333,0 142.9333,-24.5333 0,-29.8667 56.5333,-60.8 113.0667,-60.8 37.3333,0 106.6666,28.8 133.3333,56.5333 8.5333,7.4667 36.2667,26.6667 62.9333,43.7334 69.3337,41.6 133.3337,35.2 233.5997,-24.5334 z m 4374.4,-65.0666 c 215.467,-61.8667 224,-66.1334 244.267,-94.9334 27.733,-39.4666 97.067,-170.6666 97.067,-182.4 0,-6.4 -46.934,-10.6666 -115.2,-10.6666 h -114.134 L 14512,3584 l -181.333,181.3333 53.333,-16 c 29.867,-9.6 118.4,-35.2 197.333,-58.6666 z m -456.533,13.8666 c -23.467,-28.8 -96,-102.4 -160,-165.3333 L 13846.4,3424 h -128 -129.067 l 38.4,77.8667 c 75.734,149.3333 92.8,162.1333 294.4,204.8 66.134,13.8666 137.6,29.8666 157.867,35.2 20.267,6.4 49.067,10.6666 61.867,11.7333 24.533,1.0667 23.466,-2.1333 -17.067,-49.0667 z m 163.2,-115.2 c 88.533,-327.4666 90.667,-333.8666 76.8,-371.2 -16,-42.6666 -105.6,-188.8 -116.267,-188.8 -12.8,0 -71.466,107.7334 -89.6,165.3334 -16,50.1333 -14.933,58.6666 5.334,144 51.2,216.5333 88.533,363.7333 91.733,360.5333 2.133,-2.1333 16,-51.2 32,-109.8667 z M 8597.3333,3648 c 70.4,-36.2667 115.2,-82.1333 138.6667,-145.0667 26.6667,-73.6 26.6667,-126.9333 0,-199.4666 -64,-170.6667 -270.9333,-224 -422.4,-108.8 -87.4667,67.2 -117.3333,219.7333 -64,329.6 32,65.0666 46.9333,80 117.3333,117.3333 67.2,36.2667 167.4667,38.4 230.4,6.4 z m 1934.9337,-66.1333 c 26.666,-12.8 51.2,-29.8667 53.333,-37.3334 6.4,-16 -69.333,-74.6666 -109.867,-85.3333 -32,-7.4667 -133.333,24.5333 -155.733,50.1333 -16,18.1334 -12.8,21.3334 44.8,57.6 70.4,44.8 101.333,46.9334 167.467,14.9334 z m 624,-12.8 c 50.133,-32 48,-45.8667 -10.667,-76.8 -40.533,-20.2667 -81.067,-18.1334 -134.4,6.4 -57.6,25.6 -60.8,55.4666 -10.667,86.4 43.734,27.7333 94.934,22.4 155.734,-16 z m -4245.3337,-18.1334 c 116.2667,-65.0666 231.4667,-130.1333 304,-172.8 64,-36.2666 78.9334,-41.6 122.6667,-37.3333 30.9333,3.2 67.2,16 92.8,33.0667 l 41.6,28.8 3.2,-150.4 3.2,-151.4667 45.8667,6.4 c 29.8666,4.2667 83.2,28.8 147.2,67.2 104.5333,62.9333 198.4,105.6 210.1333,94.9333 11.7333,-12.8 -78.9333,-167.4666 -126.9333,-218.6666 C 7728,3022.9333 7676.8,2985.6 7639.4667,2966.4 c -66.1334,-33.0667 -69.3334,-33.0667 -225.0667,-33.0667 -137.6,0 -160,-2.1333 -174.9333,-19.2 C 7217.0667,2889.6 7072,2665.6 7072,2656 c 0,-9.6 -138.6667,-103.4667 -173.8667,-116.2667 -75.7333,-28.8 -199.4666,12.8 -199.4666,67.2 0,3.2 22.4,19.2 51.2,35.2 27.7333,16 100.2666,61.8667 161.0666,101.3334 60.8,40.5333 123.7334,80 140.8,89.6 83.2,42.6666 -27.7333,153.6 -152.5333,153.6 -53.3333,0 -125.8667,-34.1334 -211.2,-97.0667 -133.3333,-99.2 -169.6,-119.4667 -222.9333,-124.8 -53.3334,-4.2667 -87.4667,9.6 -230.4,98.1333 -28.8,19.2 -66.1334,39.4667 -82.1334,46.9334 l -29.8666,12.8 v 121.6 V 3164.8 L 6240,3238.4 c 200.5333,125.8667 194.1333,122.6667 234.6667,115.2 54.4,-9.6 89.6,-29.8667 205.8666,-121.6 190.9334,-150.4 240,-160 373.3334,-73.6 44.8,28.8 82.1333,57.6 82.1333,62.9333 0,5.3334 -10.6667,16 -23.4667,22.4 -13.8666,7.4667 -70.4,42.6667 -125.8666,78.9334 C 6931.2,3358.9333 6854.4,3409.0667 6816,3433.6 c -110.9333,70.4 -112,72.5333 -94.9333,92.8 23.4666,28.8 76.8,57.6 104.5333,57.6 13.8667,0 52.2667,-14.9333 85.3333,-33.0667 z m -2300.8,4.2667 c 27.7334,-9.6 64,-28.8 80,-42.6667 24.5334,-20.2666 27.7334,-25.6 13.8667,-34.1333 -168.5333,-106.6667 -378.6667,-257.0667 -380.8,-274.1333 -2.1333,-14.9334 17.0667,-33.0667 71.4667,-67.2 41.6,-24.5334 84.2666,-48 94.9333,-51.2 25.6,-6.4 91.7333,26.6666 294.4,150.4 169.6,103.4666 170.6667,103.4666 211.2,91.7333 54.4,-16 205.8667,-106.6667 256,-152.5333 l 39.4667,-37.3334 V 3049.6 c 0,-49.0667 -4.2667,-94.9333 -8.5334,-101.3333 -21.3333,-33.0667 -281.6,-185.6 -315.7333,-185.6 -21.3333,0 -130.1333,58.6666 -326.4,178.1333 -65.0667,40.5333 -88.5333,49.0667 -128,48 -89.6,-2.1333 -192,-62.9333 -192,-114.1333 0,-38.4 60.8,-91.7334 139.7333,-123.7334 37.3334,-14.9333 108.8,-52.2666 156.8,-83.2 103.4667,-67.2 110.9334,-87.4666 42.6667,-118.4 -59.7333,-26.6666 -112,-26.6666 -156.8,1.0667 -20.2667,12.8 -73.6,41.6 -117.3333,66.1333 -44.8,23.4667 -98.1334,54.4 -118.4,68.2667 -20.2667,13.8667 -40.5334,24.5333 -45.8667,24.5333 -4.2667,0 -26.6667,11.7334 -50.1333,26.6667 -23.4667,14.9333 -52.2667,26.6667 -65.0667,26.6667 -12.8,0 -60.8,-22.4 -106.6667,-50.1334 -73.6,-43.7333 -84.2666,-54.4 -84.2666,-80 0,-19.2 8.5333,-34.1333 24.5333,-43.7333 12.8,-8.5333 81.0667,-51.2 151.4667,-94.9333 70.4,-43.7334 146.1333,-90.6667 168.5333,-103.4667 21.3333,-13.8667 39.4667,-29.8667 39.4667,-37.3333 0,-20.2667 -40.5334,-52.2667 -117.3334,-90.6667 -38.4,-20.2667 -83.2,-49.0667 -100.2666,-66.1333 -29.8667,-27.7334 -30.9334,-32 -19.2,-71.4667 19.2,-64 57.6,-114.1333 89.6,-117.3333 20.2666,-2.1334 64,18.1333 146.1333,68.2666 70.4,42.6667 123.7333,68.2667 133.3333,65.0667 12.8,-5.3333 17.0667,-22.4 17.0667,-66.1333 0,-67.2 -14.9333,-103.4667 -102.4,-236.8 -66.1333,-102.4 -89.6,-146.1334 -89.6,-166.4 0,-8.5334 20.2667,-20.2667 44.8,-27.7334 106.6667,-32 105.6,-30.9333 41.6,-67.2 -54.4,-32 -56.5333,-34.1333 -51.2,-71.4666 3.2,-21.3334 18.1333,-72.5334 33.0667,-113.0667 28.8,-82.1333 48,-218.6667 30.9333,-218.6667 -19.2,0 -142.9333,86.4 -235.7333,164.2667 l -88.5334,73.6 -45.8666,-22.4 -46.9334,-22.4 6.4,69.3333 5.3334,68.2667 H 3874.1333 3798.4 l 25.6,38.4 c 14.9333,21.3333 26.6667,48 26.6667,58.6667 0,29.8666 27.7333,38.4 87.4666,26.6666 50.1334,-10.6666 54.4,-9.6 73.6,13.8667 32,39.4667 26.6667,81.0667 -17.0666,114.1333 -44.8,33.0667 -45.8667,48 -10.6667,93.8667 30.9333,40.5333 58.6667,103.4667 58.6667,134.4 0,35.2 -48,26.6667 -141.8667,-27.7333 -64,-37.3334 -96,-49.0667 -128,-49.0667 -100.2667,2.1333 -72.5333,32 166.4,183.4667 l 72.5333,45.8666 -3.2,74.6667 c -2.1333,41.6 -7.4666,76.8 -13.8666,78.9333 -9.6,3.2 -131.2,-68.2666 -358.4,-209.0666 -90.6667,-55.4667 -121.6,-56.5334 -205.8667,-3.2 -64,40.5333 -194.1333,118.4 -252.8,151.4666 -112,62.9334 -350.9333,209.0667 -350.9333,216.5334 0,4.2666 50.1333,7.4666 112,7.4666 109.8666,0 112,0 151.4666,-34.1333 22.4,-19.2 50.1334,-45.8667 61.8667,-58.6667 C 3171.2,2339.2 3184,2336 3257.6,2336 h 83.2 l -5.3333,29.8667 c -3.2,16 -9.6,41.6 -13.8667,58.6666 -6.4,27.7334 -5.3333,28.8 40.5333,28.8 43.7334,0 53.3334,-5.3333 108.8,-57.6 49.0667,-48 71.4667,-60.8 117.3334,-70.4 92.8,-19.2 113.0666,4.2667 70.4,83.2 l -22.4,39.4667 37.3333,14.9333 c 61.8667,23.4667 64,91.7334 5.3333,144 -17.0666,14.9334 -30.9333,32 -30.9333,37.3334 0,4.2666 14.9333,26.6666 32,49.0666 46.9333,59.7334 39.4667,74.6667 -34.1333,72.5334 -74.6667,-2.1334 -116.2667,-22.4 -185.6,-90.6667 -45.8667,-44.8 -64,-54.4 -104.5334,-58.6667 -26.6666,-3.2 -49.0666,-2.1333 -49.0666,2.1334 0,4.2666 14.9333,32 33.0666,60.8 17.0667,29.8666 28.8,56.5333 25.6,60.8 -4.2666,3.2 -42.6666,6.4 -85.3333,6.4 -73.6,0 -81.0667,-2.1334 -137.6,-42.6667 -107.7333,-76.8 -122.6667,-83.2 -197.3333,-88.5333 -43.7334,-3.2 -75.7334,0 -80,6.4 C 2857.6,2633.6 3416.5333,2987.7333 3497.6,3020.8 l 51.2,22.4 142.9333,-83.2 c 228.2667,-132.2667 251.7334,-144 280.5334,-144 26.6666,0 27.7333,1.0667 27.7333,73.6 0,68.2667 -2.1333,74.6667 -23.4667,81.0667 -46.9333,13.8666 -205.8666,110.9333 -237.8666,144 -26.6667,27.7333 -28.8,35.2 -16,42.6666 28.8,18.1334 59.7333,11.7334 141.8666,-32 43.7334,-23.4666 94.9334,-42.6666 113.0667,-42.6666 30.9333,0 33.0667,3.2 33.0667,37.3333 0,43.7333 -19.2,86.4 -52.2667,116.2667 -28.8,26.6666 -27.7333,36.2666 7.4667,77.8666 27.7333,32 30.9333,33.0667 74.6666,23.4667 73.6,-16 88.5334,-9.6 386.1334,173.8667 55.4666,34.1333 107.7333,61.8666 117.3333,61.8666 8.5333,0 38.4,-8.5333 66.1333,-18.1333 z m 14387.1997,-87.4667 c 0,-103.4666 -1.066,-106.6666 -28.8,-126.9333 -40.533,-28.8 -106.666,-55.4667 -137.6,-55.4667 -19.2,0 -27.733,8.5334 -37.333,42.6667 -10.667,35.2 -9.6,50.1333 5.333,90.6667 27.734,70.4 62.934,107.7333 126.934,132.2666 30.933,11.7334 58.666,21.3334 64,21.3334 4.266,1.0666 7.466,-46.9334 7.466,-104.5334 z M 1397.3333,3425.0667 c 0,-135.4667 -4.2666,-146.1334 -50.1333,-125.8667 -23.4667,10.6667 -24.5333,17.0667 -24.5333,132.2667 V 3552 H 1360 1397.3333 Z M 18533.333,3504 c 75.734,-43.7333 94.934,-73.6 94.934,-139.7333 -2.134,-83.2 -11.734,-89.6 -91.734,-51.2 -110.933,52.2666 -115.2,57.6 -115.2,147.2 0,42.6666 3.2,80 6.4,84.2666 8.534,7.4667 51.2,-8.5333 105.6,-40.5333 z M 10700.8,3317.3333 10693.333,3248 10624,3213.8667 c -38.4,-19.2 -75.733,-34.1334 -82.133,-34.1334 -20.267,-1.0666 -18.134,131.2 2.133,148.2667 21.333,18.1333 158.933,73.6 162.133,65.0667 2.134,-3.2 -1.066,-37.3334 -5.333,-75.7334 z m 220.8,60.8 c 67.2,-34.1333 86.4,-65.0666 89.6,-140.8 2.133,-58.6666 0,-64 -20.267,-62.9333 -12.8,0 -52.266,19.2 -88.533,42.6667 l -65.067,41.6 V 3331.2 c 0,83.2 6.4,86.4 84.267,46.9333 z M 14782.933,3177.6 c 7.467,-37.3333 14.934,-76.8 18.134,-86.4 4.266,-14.9333 -1.067,-19.2 -24.534,-19.2 -77.866,0 -77.866,1.0667 -77.866,132.2667 l 1.066,118.4 35.2,-38.4 c 26.667,-28.8 38.4,-53.3334 48,-106.6667 z m -8982.3997,26.6667 76.8,-49.0667 v -106.6667 c 0,-120.5333 1.0667,-118.4 -104.5333,-179.2 l -55.4667,-32 -67.2,33.0667 c -36.2666,18.1333 -78.9333,45.8667 -94.9333,60.8 -28.8,26.6667 -29.8667,32 -29.8667,131.2 v 104.5333 l 35.2,26.6667 c 44.8,34.1333 101.3334,58.6667 136.5334,59.7333 14.9333,0 61.8666,-22.4 103.4666,-49.0666 z m 3424,-10.6667 c 51.2,-27.7333 122.6667,-66.1333 160,-85.3333 39.4667,-21.3334 83.2,-36.2667 104.5334,-36.2667 30.9333,0 36.2666,3.2 36.2666,25.6 0,25.6 0,25.6 80,-18.1333 43.7334,-23.4667 80,-45.8667 80,-50.1334 0,-13.8666 -49.0666,-52.2666 -108.8,-84.2666 C 9527.4667,2918.4 9504,2912 9450.6667,2912 c -60.8,0 -72.5334,4.2667 -139.7334,49.0667 -83.2,54.4 -153.6,133.3333 -195.2,214.4 C 9100.8,3206.4 9088,3234.1333 9088,3237.3333 c 0,17.0667 54.4,0 136.5333,-43.7333 z M 10389.333,3072 c 0,-135.4667 -2.133,-154.6667 -26.666,-209.0667 -14.934,-32 -32,-57.6 -38.4,-55.4666 -6.4,2.1333 -46.934,32 -89.6,67.2 l -78.934,64 v 80 c -1.066,78.9333 0,80 34.134,103.4666 53.333,36.2667 171.733,98.1334 186.666,99.2 9.6,0 12.8,-36.2666 12.8,-149.3333 z m 8029.867,97.0667 c 21.333,-10.6667 51.2,-32 64,-46.9334 l 25.6,-26.6666 -81.067,-54.4 c -43.733,-29.8667 -88.533,-54.4 -99.2,-54.4 -21.333,0 -136.533,54.4 -168.533,80 -26.667,21.3333 -14.933,32 83.2,84.2666 83.2,43.7334 119.467,46.9334 176,18.1334 z M 19148.8,3168 c 26.667,-11.7333 60.8,-30.9333 76.8,-43.7333 27.733,-22.4 28.8,-23.4667 9.6,-43.7334 -51.2,-56.5333 -156.8,-71.4666 -233.6,-32 -67.2,34.1334 -73.6,46.9334 -38.4,78.9334 73.6,68.2666 107.733,75.7333 185.6,40.5333 z m -8450.133,-211.2 c 0,-121.6 -6.4,-146.1333 -25.6,-106.6667 -13.867,26.6667 -123.734,75.7334 -199.467,88.5334 l -46.933,8.5333 122.666,61.8667 c 67.2,34.1333 129.067,61.8666 136.534,61.8666 9.6,1.0667 12.8,-28.8 12.8,-114.1333 z m -689.067,-32 c 5.333,-62.9333 2.133,-94.9333 -10.6667,-133.3333 -27.7333,-83.2 -29.8666,-81.0667 189.8667,-275.2 l 42.667,-37.3334 -17.067,-34.1333 c -11.733,-22.4 -22.4,-32 -30.933,-27.7333 -42.667,25.6 -114.134,76.8 -148.267,106.6666 -77.8667,69.3334 -120.5333,57.6 -153.6,-40.5333 -28.8,-87.4667 -17.0667,-113.0667 103.4667,-237.8667 85.3333,-87.4666 105.6003,-114.1333 105.6003,-139.7333 0,-17.0667 -4.267,-37.3333 -9.6,-45.8667 -12.8,-19.2 -37.334,-4.2666 -128.0003,80 -62.9334,57.6 -66.1334,59.7334 -90.6667,43.7334 -22.4,-14.9334 -91.7333,-156.8 -91.7333,-187.7334 0,-25.6 -22.4,-20.2666 -52.2667,11.7334 -37.3333,40.5333 -38.4,32 21.3333,211.2 22.4,67.2 41.6,132.2666 41.6,144 0,24.5333 -156.8,186.6666 -181.3333,186.6666 -11.7333,0 -22.4,-21.3333 -36.2667,-71.4666 -20.2666,-78.9334 -69.3333,-185.6 -87.4666,-192 -6.4,-2.1334 -23.4667,5.3333 -37.3334,17.0666 -27.7333,22.4 -27.7333,24.5334 23.4667,195.2 l 22.4,72.5334 177.0667,2.1333 c 165.3333,3.2 178.1333,4.2667 181.3333,23.4667 2.1333,10.6666 18.1333,32 35.2,45.8666 l 30.9333,26.6667 V 2810.6667 2953.6 l 39.4667,32 c 21.3333,17.0667 41.6,29.8667 45.8667,27.7333 4.2666,-2.1333 10.6663,-42.6666 14.9333,-88.5333 z m 8835.2,-3.2 c 16,-6.4 61.867,-33.0667 102.4,-59.7333 l 71.467,-50.1334 v -76.8 c 0,-132.2666 -8.534,-135.4666 -130.134,-56.5333 l -83.2,55.4667 v 99.2 c 0,55.4666 2.134,100.2666 4.267,100.2666 3.2,0 18.133,-5.3333 35.2,-11.7333 z m -210.133,-92.8 c 0,-59.7333 -5.334,-100.2667 -12.8,-110.9333 -22.4,-25.6 -85.334,-59.7334 -134.4,-70.4 -54.4,-12.8 -66.134,1.0666 -66.134,77.8666 0,83.2 50.134,146.1334 145.067,180.2667 69.333,25.6 68.267,26.6667 68.267,-76.8 z M 8096,2876.8 c 0,-7.4667 -25.6,-29.8667 -55.4667,-49.0667 C 7820.8,2692.2667 7776,2663.4667 7776,2657.0667 c 0,-17.0667 53.3333,-54.4 181.3333,-129.0667 173.8667,-101.3333 232.5334,-131.2 251.7334,-123.7333 11.7333,4.2666 14.9333,42.6666 14.9333,209.0666 0,110.9334 4.2667,202.6667 8.5333,202.6667 11.7334,0 108.8,-151.4667 151.4667,-233.6 30.9333,-62.9333 34.1333,-75.7333 29.8667,-149.3333 -3.2,-75.7334 -7.4667,-87.4667 -65.0667,-186.6667 -33.0667,-57.6 -60.8,-114.1333 -60.8,-124.8 0,-10.6667 13.8667,-42.6667 29.8667,-70.4 65.0666,-110.9333 108.8,-195.2 101.3333,-195.2 -5.3333,0 -46.9333,23.4667 -93.8667,53.3333 -46.9333,28.8 -94.9333,53.3334 -105.6,53.3334 -11.7333,0 -53.3333,-35.2 -99.2,-84.2667 C 8016,1765.3333 7840,1621.3333 7723.7333,1552 c -12.8,-7.4667 -13.8666,10.6667 -8.5333,118.4 6.4,117.3333 33.0667,259.2 87.4667,473.6 l 17.0666,69.3333 -25.6,22.4 c -40.5333,34.1334 -206.9333,121.6 -233.6,121.6 -12.8,0 -72.5333,-29.8666 -133.3333,-65.0666 L 7317.3333,2227.2 7225.6,2267.7333 c -85.3333,37.3334 -121.6,66.1334 -121.6,96 0,6.4 44.8,39.4667 99.2,73.6 53.3333,34.1334 122.6667,76.8 152.5333,97.0667 29.8667,19.2 68.2667,36.2667 85.3334,38.4 25.6,2.1333 40.5333,18.1333 84.2666,84.2667 80,119.4666 117.3334,164.2666 172.8,200.5333 l 49.0667,33.0667 h 174.9333 c 135.4667,0 173.8667,-3.2 173.8667,-13.8667 z m 1133.8667,-13.8667 c 59.7333,-30.9333 61.8666,-34.1333 39.4666,-71.4666 -11.7333,-18.1334 -26.6666,-58.6667 -33.0666,-89.6 l -12.8,-55.4667 -27.7334,19.2 c -14.9333,10.6667 -49.0666,30.9333 -75.7333,45.8667 -107.7333,57.6 -224,129.0666 -241.0667,148.2666 C 8860.8,2880 8864,2880 9028.2667,2880 c 133.3333,0 173.8666,-3.2 201.6,-17.0667 z m -470.4,-269.8666 c 3.2,-195.2 3.2,-198.4 26.6666,-201.6 12.8,-2.1334 38.4,4.2666 57.6,13.8666 32,17.0667 34.1334,17.0667 56.5334,-5.3333 20.2666,-20.2667 20.2666,-23.4667 5.3333,-35.2 -9.6,-7.4667 -81.0667,-26.6667 -158.9333,-43.7333 -136.5334,-29.8667 -142.9334,-29.8667 -156.8,-10.6667 -17.0667,23.4667 -20.2667,244.2667 -2.1334,254.9333 6.4,4.2667 35.2,55.4667 64,115.2 64,129.0667 71.4667,139.7334 90.6667,123.7334 10.6667,-8.5334 14.9333,-59.7334 17.0667,-211.2 z M 5477.3333,2697.6 C 5504,2684.8 5537.0667,2661.3333 5552,2644.2667 l 25.6,-32 -6.4,-194.1334 c -3.2,-106.6666 -8.5333,-197.3333 -12.8,-201.6 -8.5333,-8.5333 -272,-167.4666 -324.2667,-195.2 C 5211.7333,2009.6 5177.6,1987.2 5158.4,1971.2 c -33.0667,-26.6667 -36.2667,-35.2 -42.6667,-106.6667 -12.8,-150.4 17.0667,-176 130.1334,-110.9333 35.2,21.3333 66.1333,38.4 69.3333,38.4 2.1333,0 51.2,26.6667 109.8667,58.6667 57.6,32 112,58.6666 119.4666,58.6666 8.5334,0 12.8,-22.4 12.8,-78.9333 v -78.9333 L 5475.2,1698.1333 c -45.8667,-28.8 -133.3333,-82.1333 -194.1333,-119.4666 l -110.9334,-66.1334 -100.2666,6.4 -99.2,7.4667 v -75.7333 c 0,-69.3334 -2.1334,-75.7334 -18.1334,-69.3334 -73.6,30.9334 -75.7333,30.9334 -103.4666,12.8 -14.9334,-10.6666 -38.4,-34.1333 -51.2,-53.3333 -21.3334,-32 -135.4667,-129.0667 -204.8,-173.8667 l -30.9334,-19.2 6.4,93.8667 c 3.2,52.2667 19.2,139.7333 35.2,195.2 14.9334,54.4 25.6,106.6667 22.4,115.2 -4.2666,8.5333 -24.5333,23.4667 -45.8666,34.1333 -21.3334,10.6667 -38.4,24.5334 -38.4,29.8667 0,6.4 24.5333,18.1333 54.4,26.6667 65.0666,19.2 70.4,24.5333 55.4666,52.2666 -9.6,18.1334 -8.5333,23.4667 9.6,33.0667 20.2667,10.6667 21.3334,21.3333 21.3334,293.3333 v 281.6 L 4752,2339.2 l 69.3333,37.3333 v -256 -257.0666 l 41.6,7.4666 c 60.8,9.6 153.6,46.9334 185.6,74.6667 l 28.8,24.5333 V 2253.8667 2537.6 l 77.8667,48 c 134.4,83.2 225.0667,132.2667 250.6667,133.3333 12.8,1.0667 44.8,-9.6 71.4666,-21.3333 z m 13906.1337,-64 c 13.866,-6.4 40.533,-23.4667 59.733,-38.4 l 34.133,-25.6 v -202.6667 -202.6666 l 38.4,-22.4 c 20.267,-11.7334 34.134,-25.6 28.8,-30.9334 -4.266,-4.2666 -51.2,-34.1333 -104.533,-66.1333 -52.267,-32 -100.267,-66.1333 -105.6,-74.6667 -7.467,-11.7333 1.067,-51.2 28.8,-132.2666 50.133,-148.2667 80,-278.4 88.533,-386.1334 5.334,-64 4.267,-86.4 -5.333,-86.4 -13.867,0 -78.933,56.5334 -200.533,174.9334 -65.067,62.9333 -77.867,81.0666 -77.867,109.8666 0,28.8 -7.467,39.4667 -42.667,61.8667 -23.466,14.9333 -46.933,26.6667 -52.266,26.6667 -6.4,0 -18.134,10.6666 -26.667,22.4 -8.533,12.8 -22.4,20.2666 -30.933,17.0666 -23.467,-8.5333 -94.934,28.8 -144,74.6667 -40.534,38.4 -44.8,48 -44.8,91.7333 0,27.7334 2.133,50.1334 5.333,50.1334 3.2,0 69.333,-30.9334 147.2,-69.3334 77.867,-38.4 152.533,-69.3333 165.333,-69.3333 21.334,0 23.467,5.3333 22.4,51.2 -1.066,100.2667 -13.866,117.3333 -129.066,168.5333 -57.6,24.5334 -120.534,58.6667 -140.8,73.6 -53.334,40.5334 -82.134,106.6667 -88.534,206.9334 -7.466,99.2 1.067,139.7333 26.667,139.7333 9.6,0 82.133,-30.9333 161.067,-69.3333 78.933,-38.4 153.6,-69.3334 165.333,-67.2 21.333,3.2 22.4,10.6666 25.6,181.3333 l 2.133,178.1333 85.334,-36.2666 c 46.933,-20.2667 96,-41.6 108.8,-49.0667 z m -5635.2,-617.6 c 11.733,0 30.933,26.6667 52.266,70.4 l 35.2,70.4 44.8,-7.4667 c 24.534,-4.2666 49.067,-11.7333 54.4,-17.0666 6.4,-5.3334 -44.8,-61.8667 -130.133,-144 -160,-152.5334 -169.6,-171.7334 -98.133,-200.5334 43.733,-17.0666 108.8,-21.3333 140.8,-8.5333 9.6,4.2667 81.066,64 157.866,133.3333 101.334,90.6667 149.334,128 174.934,132.2667 38.4,6.4 123.733,-13.8667 123.733,-28.8 0,-5.3333 -59.733,-68.2667 -133.333,-139.7333 -73.6,-71.4667 -133.334,-137.6 -133.334,-147.2 0,-13.8667 21.334,-24.5334 77.867,-41.6 42.667,-12.8 83.2,-23.4667 89.6,-23.4667 13.867,0 118.4,84.2667 200.533,161.0667 72.534,68.2666 144,126.9333 154.667,126.9333 18.133,0 146.133,-34.1333 210.133,-55.4667 72.534,-24.5333 74.667,-28.8 98.134,-136.5333 10.666,-46.9333 9.6,-48 -34.134,-88.5333 -119.466,-110.9334 -177.066,-156.8 -198.4,-156.8 -12.8,0 -57.6,9.6 -100.266,22.4 -269.867,77.8666 -270.934,77.8666 -323.2,57.6 -57.6,-21.3334 -121.6,-80 -121.6,-109.8667 0,-35.2 55.466,-66.1333 136.533,-77.8667 83.2,-11.7333 224,-51.2 232.533,-65.0666 10.667,-16 -39.466,-61.8667 -80,-73.6 -41.6,-11.7334 -49.066,-10.6667 -293.333,53.3333 -126.933,34.1333 -155.733,34.1333 -190.933,3.2 -21.334,-19.2 -17.067,-23.4667 -60.8,59.7333 -19.2,36.2667 -42.667,66.1334 -51.2,66.1334 -8.534,0 -42.667,-22.4 -74.667,-50.1334 -100.267,-86.4 -122.667,-101.3333 -132.267,-85.3333 -4.266,6.4 -8.533,44.8 -8.533,83.2 0,101.3333 -8.533,136.5333 -36.267,142.9333 -11.733,2.1334 -65.066,11.7334 -118.4,21.3334 -235.733,41.6 -270.933,51.2 -356.266,91.7333 -75.734,35.2 -86.4,43.7333 -75.734,57.6 7.467,8.5333 17.067,16 22.4,16 5.334,0 28.8,11.7333 52.267,26.6667 23.467,14.9333 80,41.6 124.8,58.6666 45.867,18.1334 90.667,36.2667 99.2,41.6 8.533,4.2667 69.333,24.5334 133.333,42.6667 65.067,19.2 123.734,40.5333 131.2,45.8667 8.534,7.4666 12.8,42.6666 12.8,104.5333 0,50.1333 3.2,94.9333 6.4,99.2 3.2,3.2 42.667,-24.5333 87.467,-62.9333 43.733,-37.3334 87.467,-68.2667 97.067,-68.2667 z m -6649.6003,58.6667 c 67.2,-38.4 130.1333,-69.3334 141.8666,-69.3334 11.7334,0 34.1334,14.9334 48,32 30.9334,36.2667 32,36.2667 59.7334,-55.4666 59.7333,-193.0667 96,-424.5334 68.2666,-424.5334 -20.2666,0 -277.3333,222.9334 -369.0666,320 l -92.8,99.2 v 83.2 c 0,54.4 4.2666,84.2667 11.7333,84.2667 6.4,0 66.1333,-30.9333 132.2667,-69.3333 z m 4624.0003,-48 c 0,-124.8 -9.6,-115.2 144,-144 99.2,-18.1334 308.266,-84.2667 410.666,-130.1334 56.534,-24.5333 57.6,-26.6666 37.334,-42.6666 -11.734,-8.5334 -38.4,-23.4667 -58.667,-32 -20.267,-8.5334 -56.533,-24.5334 -80,-35.2 -23.467,-10.6667 -78.933,-28.8 -122.667,-41.6 -43.733,-12.8 -103.466,-29.8667 -133.333,-38.4 -28.8,-8.5334 -76.8,-20.2667 -106.667,-26.6667 -28.8,-6.4 -58.666,-17.0667 -66.133,-23.4667 -9.6,-7.4666 -13.867,-45.8666 -13.867,-126.9333 0,-76.8 -4.266,-116.2667 -11.733,-116.2667 -6.4,0 -73.6,60.8 -149.333,135.4667 -103.467,101.3333 -134.4,137.6 -125.867,148.2667 6.4,7.4666 42.667,20.2666 81.067,29.8666 103.466,23.4667 104.533,24.5334 73.6,154.6667 -13.867,60.8 -30.934,115.2 -37.334,121.6 -9.6,9.6 -94.933,-2.1333 -145.066,-20.2667 -5.334,-2.1333 -16,0 -23.467,4.2667 -9.6,6.4 -5.333,33.0667 19.2,108.8 18.133,55.4667 34.133,103.4667 36.267,105.6 2.133,2.1333 12.8,-13.8667 22.4,-35.2 10.666,-21.3333 25.6,-38.4 34.133,-38.4 8.533,0 54.4,34.1333 101.333,74.6667 46.934,41.6 91.734,74.6666 100.267,74.6666 10.667,0 13.867,-24.5333 13.867,-106.6666 z M 9180.8,2086.4 l 23.4667,-36.2667 -153.6,-28.8 c -85.3334,-16 -158.9334,-35.2 -166.4,-43.7333 -9.6,-11.7333 -2.1334,-25.6 32,-67.2 61.8666,-73.6 115.2,-118.4 141.8666,-118.4 11.7334,0 86.4,14.9333 165.3334,32 77.8666,18.1333 151.4666,32 163.2,32 18.1333,0 74.6666,-55.4667 74.6666,-73.6 0,-4.2667 -29.8666,-13.8667 -66.1333,-21.3333 -135.4667,-26.6667 -189.8667,-46.9334 -189.8667,-70.4 0,-11.7334 36.2667,-57.6 87.4667,-108.8 l 87.4667,-87.4667 -32,-11.7333 c -46.9334,-19.2 -107.7334,19.2 -210.1334,131.2 -91.7333,100.2666 -130.1333,124.8 -195.2,124.8 -41.6,0 -185.6,-38.4 -185.6,-50.1334 0,-3.2 53.3334,-60.8 118.4,-128 77.8667,-80 115.2,-125.8666 107.7334,-133.3333 -5.3334,-5.3333 -28.8,-12.8 -51.2,-16 -41.6,-5.3333 -42.6667,-5.3333 -163.2,123.7333 L 8648.5333,1664 H 8585.6 8522.6667 v 64 c 0,60.8 3.2,69.3333 78.9333,188.8 42.6667,69.3333 81.0667,136.5333 85.3333,148.2667 6.4,21.3333 10.6667,22.4 37.3334,11.7333 22.4,-8.5333 64,-6.4 165.3333,7.4667 74.6667,10.6666 148.2667,23.4666 164.2667,27.7333 16,5.3333 45.8666,9.6 66.1333,9.6 30.9333,1.0667 41.6,-5.3333 60.8,-35.2 z m 6116.267,-92.8 c 22.4,-8.5333 32,-24.5333 45.866,-72.5333 27.734,-99.2 26.667,-104.5334 -48,-167.4667 -14.933,-11.7333 -32,-25.6 -39.466,-29.8667 -13.867,-8.5333 -84.267,7.4667 -141.867,32 -36.267,16 -39.467,21.3334 -55.467,92.8 l -16,76.8 27.734,30.9334 c 16,16 45.866,40.5333 66.133,53.3333 34.133,22.4 39.467,23.4667 85.333,9.6 26.667,-7.4667 60.8,-19.2 75.734,-25.6 z M 17264,1810.1333 c 34.133,-56.5333 48,-91.7333 44.8,-106.6666 -33.067,-134.4 -91.733,-352 -97.067,-356.2667 -7.466,-7.4667 -6.4,-11.7333 -58.666,178.1333 -24.534,85.3334 -43.734,169.6 -43.734,186.6667 0,19.2 19.2,61.8667 50.134,109.8667 26.666,42.6666 50.133,75.7333 51.2,74.6666 1.066,-2.1333 25.6,-40.5333 53.333,-86.4 z M 10183.467,1769.6 c 40.533,-25.6 102.4,-92.8 125.866,-138.6667 23.467,-44.8 32,-133.3333 17.067,-187.7333 -6.4,-23.4667 -33.067,-72.5333 -58.667,-106.6667 -35.2,-49.0666 -58.666,-68.2666 -102.4,-87.4666 -206.933,-89.6 -433.0663,67.2 -412.7997,286.9333 9.6,104.5333 68.2667,194.1333 160,241.0667 72.5334,38.4 201.5997,34.1333 270.9337,-7.4667 z m -6508.8003,-1.0667 c 26.6666,-11.7333 26.6666,-12.8 26.6666,-138.6666 V 1504 h -48 -48 v 131.2 c 0,72.5333 3.2,135.4667 7.4667,138.6667 9.6,10.6666 30.9333,8.5333 61.8667,-5.3334 z M 1414.4,1724.8 c 1.0667,-1.0667 4.2667,-64 6.4,-140.8 l 5.3333,-138.6667 -65.0666,-56.5333 -65.0667,-55.4667 -5.3333,50.1334 c -5.3334,46.9333 -3.2,51.2 19.2,54.4 23.4666,3.2 23.4666,6.4 23.4666,146.1333 0,103.4667 3.2,144 13.8667,148.2667 10.6667,4.2666 62.9333,-1.0667 67.2,-7.4667 z M 967.46667,1473.0667 1005.8667,1404.8 977.06667,1307.7333 c -60.8,-204.8 -84.26667,-278.4 -88.53334,-267.7333 -8.53333,27.7333 -70.4,272 -80,317.8667 -10.66666,49.0666 -10.66666,52.2666 40.53334,136.5333 58.66666,97.0667 51.2,98.1333 118.4,-21.3333 z M 16826.667,1568 c 27.733,-10.6667 311.466,-288 294.4,-288 -5.334,0 -38.4,9.6 -73.6,20.2667 -36.267,11.7333 -114.134,34.1333 -174.934,50.1333 -138.666,35.2 -163.2,55.4667 -163.2,135.4667 0,52.2666 -2.133,56.5333 -37.333,73.6 l -37.333,19.2 h 82.133 c 44.8,0 93.867,-4.2667 109.867,-10.6667 z M 17792,1549.8667 c 0,-16 -61.867,-115.2 -88.533,-142.9334 -20.267,-21.3333 -53.334,-33.0666 -152.534,-56.5333 -70.4,-16 -150.4,-36.2667 -179.2,-44.8 -27.733,-8.5333 -53.333,-14.9333 -55.466,-12.8 -2.134,2.1333 52.266,62.9333 119.466,134.4 l 123.734,130.1333 h 116.266 c 64,0 116.267,-3.2 116.267,-7.4666 z m -6516.267,-179.2 c 98.134,-100.2667 135.467,-132.2667 150.4,-126.9334 29.867,9.6 23.467,-11.7333 -36.266,-117.3333 -121.6,-213.33333 -129.067,-222.93333 -192,-238.93333 -261.334,-66.13334 -309.334,-70.4 -359.467,-27.73334 -18.133,14.93334 -33.067,32 -33.067,36.26667 0,9.6 102.4,34.13333 227.2,54.4 46.934,7.46667 93.867,21.33333 106.667,32 l 23.467,18.1333 -80,84.2667 c -43.734,45.8667 -89.6,84.2667 -101.334,86.4 -11.733,2.1333 -84.266,-7.4667 -160,-20.2667 -76.8,-12.8 -161.066,-25.6 -188.8,-27.7333 -46.933,-5.3333 -50.133,-3.2 -67.2,28.8 -9.6,19.2 -16,36.2667 -12.8,38.4 2.134,2.1333 60.8,17.0667 131.2,32 69.334,16 131.2,32 137.6,37.3333 6.4,6.4 -16,36.2667 -57.6,77.8667 l -68.266,68.2667 34.133,18.1333 c 21.333,10.6667 43.733,13.8667 57.6,9.6 12.8,-4.2667 67.2,-50.1333 121.6,-102.4 107.733,-104.5333 164.267,-135.4667 241.067,-136.5333 54.4,0 114.133,23.4666 114.133,45.8666 0,7.4667 -45.867,61.8667 -101.333,121.6 -55.467,59.7334 -101.334,113.0667 -101.334,118.4 0,10.6667 24.534,18.1334 66.134,22.4 9.6,0 75.733,-58.6666 148.266,-132.2666 z M 8576,1358.9333 c 0,-7.4666 -25.6,-18.1333 -55.4667,-25.6 C 8371.2,1299.2 8380.8,1305.6 8387.2,1255.4667 c 4.2667,-24.5334 12.8,-80 21.3333,-122.6667 l 14.9334,-78.9333 -49.0667,7.4666 c -115.2,17.0667 -410.6667,125.8667 -512,187.7334 l -36.2667,22.4 94.9334,41.6 C 8052.2667,1371.7333 8219.7333,1427.2 8352,1456 l 112,23.4667 56.5333,-53.3334 c 29.8667,-29.8666 55.4667,-60.8 55.4667,-67.2 z m 7966.933,32 108.8,-28.8 -72.533,-45.8666 c -122.667,-77.8667 -118.4,-72.5334 -94.933,-99.2 11.733,-11.7334 24.533,-22.4 28.8,-22.4 5.333,0 38.4,-19.2 74.666,-41.6 l 66.134,-41.6 -43.734,-11.7334 c -24.533,-6.4 -64,-17.0666 -88.533,-23.4666 -24.533,-6.4 -45.867,-9.6 -46.933,-7.4667 -2.134,2.1333 -16,58.6667 -30.934,125.8667 -14.933,67.2 -33.066,140.8 -39.466,162.1333 -13.867,43.7333 -6.4,77.8667 16,69.3333 7.466,-3.2 62.933,-19.2 122.666,-35.2 z M 667.73333,1129.6 c 77.86667,-77.8667 140.8,-142.93333 139.73334,-145.06667 -2.13334,-1.06666 -36.26667,7.46667 -76.8,19.19997 -217.6,64 -290.13334,88.5334 -310.4,107.7334 C 395.73333,1132.8 348.8,1214.9333 336,1257.6 l -7.46667,25.6 98.13334,-5.3333 98.13333,-6.4 z m 763.73337,107.7333 h 52.2666 l -16,-29.8666 c -8.5333,-17.0667 -35.2,-54.4 -57.6,-84.2667 -36.2666,-44.8 -51.2,-55.4667 -94.9333,-64 C 1176.5333,1028.2667 999.46667,992 994.13333,992 c -3.2,0 53.33337,57.6 126.93337,128 l 132.2666,129.0667 62.9334,-6.4 c 34.1333,-3.2 86.4,-5.3334 115.2,-5.3334 z m 15656.5333,-96 C 17041.067,1085.8667 16906.667,956.8 16868.267,931.2 16851.2,920.53333 16816,917.33333 16737.067,919.46667 l -107.734,3.2 51.2,85.33333 c 32,55.4667 60.8,90.6667 81.067,100.2667 17.067,7.4666 84.267,25.6 149.333,39.4666 65.067,13.8667 135.467,28.8 155.734,35.2 65.066,17.0667 67.2,12.8 21.333,-41.6 z m 258.133,38.4 c 76.8,-25.6 284.8,-81.0666 302.934,-81.0666 24.533,0 76.8,-59.7334 112,-130.13337 17.066,-33.06666 30.933,-64 30.933,-67.2 0,-3.2 -44.8,-5.33333 -98.133,-5.33333 l -99.2,1.06667 L 17440,1045.3333 c -85.333,82.1334 -151.467,149.3334 -147.2,149.3334 4.267,0 28.8,-6.4 53.333,-14.9334 z M 17258.667,976 c 61.866,-220.8 61.866,-216.53333 19.2,-284.8 -19.2,-32 -40.534,-67.2 -46.934,-77.86667 -19.2,-34.13333 -33.066,-29.86666 -61.866,18.13334 -62.934,106.66666 -62.934,112 -10.667,313.6 25.6,99.20003 45.867,184.53333 46.933,189.86663 1.067,23.4667 11.734,-8.5333 53.334,-158.9333 z M 800,886.4 C 800,872.53333 624,709.33333 568.53333,670.93333 526.93333,642.13333 517.33333,640 417.06667,640 c -59.73334,0 -107.73334,3.2 -107.73334,6.4 0,3.2 21.33334,38.4 48,78.93333 C 417.06667,819.2 449.06667,835.2 625.06667,865.06667 700.8,876.8 764.8,889.6 766.93333,891.73333 775.46667,900.26667 800,896 800,886.4 Z m 368,-48 192,-56.53333 39.4667,-51.2 c 21.3333,-27.73334 45.8666,-69.33334 54.4,-91.73334 l 16,-41.6 H 1372.8 L 1274.6667,598.4 1120,746.66667 C 1034.6667,828.8 967.46667,896 970.66667,896 973.86667,896 1062.4,870.4 1168,838.4 Z m -218.66667,-208 c 18.13334,-67.2 32,-134.4 32,-148.26667 0,-20.26666 -60.8,-120.53333 -103.46666,-172.8 -14.93334,-17.06666 -99.2,160 -89.6,186.66667 2.13333,6.4 22.4,77.86667 45.86666,160 23.46667,82.13333 44.8,158.93333 49.06667,170.66667 7.46667,24.53333 16,0 66.13333,-196.26667 z"
         inkscape:connector-curvature="0"
         style="fill:none;stroke:#000000;stroke-width:27.11006355;stroke-miterlimit:4;stroke-dasharray:none;stroke-opacity:1" />
    </g>
  </g>
  <eggbot
     id="eggbot4228"
     totaldeltay="0"
     totaldeltax="0"
     lastpathnc="0"
     lastpath="0"
     node="0"
     layer="0"
     serialport="/dev/ttyACM0" />
</svg>
