<?xml version="1.0" encoding="UTF-8" standalone="no"?>
<!-- Created with Inkscape (http://www.inkscape.org/) -->

<svg
   sodipodi:docname="kraken.svg"
   inkscape:version="1.2.2 (1:1.2.2+202212051552+b0a8486541)"
   version="1.1"
   id="svg27345"
   height="1000"
   width="3200"
   xml:space="preserve"
   xmlns:inkscape="http://www.inkscape.org/namespaces/inkscape"
   xmlns:sodipodi="http://sodipodi.sourceforge.net/DTD/sodipodi-0.dtd"
   xmlns="http://www.w3.org/2000/svg"
   xmlns:svg="http://www.w3.org/2000/svg"
   xmlns:rdf="http://www.w3.org/1999/02/22-rdf-syntax-ns#"
   xmlns:cc="http://creativecommons.org/ns#"
   xmlns:dc="http://purl.org/dc/elements/1.1/"><sodipodi:namedview
     id="base"
     pagecolor="#ffffff"
     bordercolor="#666666"
     borderopacity="1.0"
     inkscape:pageopacity="0.0"
     inkscape:pageshadow="2"
     inkscape:zoom="0.35112271"
     inkscape:cx="1204.707"
     inkscape:cy="543.96937"
     inkscape:document-units="px"
     inkscape:current-layer="layer1"
     showgrid="false"
     inkscape:window-width="1920"
     inkscape:window-height="1013"
     inkscape:window-x="0"
     inkscape:window-y="36"
     inkscape:window-maximized="1"
     inkscape:showpageshadow="2"
     inkscape:pagecheckerboard="0"
     inkscape:deskcolor="#d1d1d1" /><defs
     id="defs27347"><inkscape:perspective
       sodipodi:type="inkscape:persp3d"
       inkscape:vp_x="0 : 612.60307 : 1"
       inkscape:vp_y="0 : 1137.7778 : 0"
       inkscape:vp_z="846.61417 : 612.60307 : 1"
       inkscape:persp3d-origin="423.30708 : 413.04402 : 1"
       id="perspective27353" /><style
       id="style9616">.cls-1{fill:#010101;}</style></defs><metadata
     id="metadata27350"><rdf:RDF><cc:Work
         rdf:about=""><dc:format>image/svg+xml</dc:format><dc:type
           rdf:resource="http://purl.org/dc/dcmitype/StillImage" /></cc:Work></rdf:RDF></metadata><g
     inkscape:label="Layer 1"
     inkscape:groupmode="layer"
     id="layer1"
     transform="translate(0,-59.576525)"><g
       id="g9632"
       transform="matrix(3.3427025,0,0,2.4662566,-245.92829,-578.33845)"><path
         class="cls-1"
         d="m 561.87397,552.26 c 21.78,3.61 15.27,31.51 -6.76,29.75 -6.36,-1.48 -9.6,-5.4 -11.36,-10.8 a 112.87,112.87 0 0 0 25.27,-35.74 c 16.45,-35.54 14.49,-79 -11.46,-110.54 -7.54,-9.13 -14.78,-16.1 -25.75,-22.08 -18.7,-10.12 -38.19,-9.92 -57.38,-2.17 -12.93,5.11 -31.73,21.5 -39.76,32.11 -5.87,7.65 -16.84,18 -26.73,21.1 a 19.68,19.68 0 0 1 -18.6,-3.14 c -15.38,-12.86 -6.07,-38.29 16.15,-32.3 4.87,1.58 5.32,1.94 10.58,4.52 -5.48,-23.46 -43.77,-21.7 -51.7,5.89 -8.42,29.35 23.5,72.35 71.58,43.39 l 13.7,-10.31 c 11.56,-10.6 24.87,-26.5 40.05,-28.17 31.92,-3.54 52.29,31.8 37.41,66.75 -0.49,1.18 -1.08,2.16 -1.57,3.24 -33.68,-38.77 -109.86,-1.27 -112,61.46 v 0 c -10.56,-74.19 -57.51,-120 -132.55,-104.65 -10.12,0.28 -12.44,1.49 -24.79,-0.37 -11.69,-1.77 -20.42,-4.47 -25.8,-14.24 a 24.21,24.21 0 0 1 3.53,-28.66 c 10.95,-11.35 31.09,-8.94 33.6,5.12 2.6,15.35 -23.95,24.75 -23.95,-0.65 -3.8,2.79 -2.51,10.7 -0.74,14.23 5.47,10.71 21.9,11.17 30.54,2.14 15.3,-15.92 -1.86,-43.6 -26.57,-43.1 -6.92,0.14 -14.43,2.49 -22,7.93 a 50.25,50.25 0 0 0 -10.4,10.88 48,48 0 0 0 -4.18,7.77 c -13.19,-32.56 -9.06,-67.46 15.87,-87 29.29,-23 67.9,-24.95 92,-4.38 a 5.2,5.2 0 1 1 6.45,6.46 59.75,59.75 0 0 1 4.72,6.35 5.2794413,5.2794413 0 0 1 5,9.3 c 0.48,1.09 0.94,2.21 1.37,3.36 a 73.91,73.91 0 0 1 2.59,8.33 6.38,6.38 0 0 1 1.08,-0.1 5.85,5.85 0 0 1 0.71,11.65 c 2.12,33.71 -23.92,54.43 -23.92,54.43 80.74,-56.31 29.32,-138.34 -22.88,-153.25 -52.2,-14.91 -110.66,4.45 -142.55,58.63 -31.89,54.18 -7.37,120.34 13.89,161.48 5.84,11.3 12.43,22.82 19.21,34.3 -14.4,8 -26.67,22.71 -37,32.7 -20.46,19.83 -35.58,4.06 -37.6,-1.37 0,8.56 11.53,17.81 19.49,19.73 17.5,4.2 36.23,-11.78 47.39,-22.87 5,-5 10.58,-9.34 17.58,-11.69 5.67,9.46 11.27,18.82 16.48,27.94 -7.56,13 -23.37,25.59 -31.71,38.13 -10.67,16 -16.65,33.38 -11.36,50.07 h 3.53 v 0.1 c 0,0 29.28,0.09 42.59,-0.1 h 16.36 c -2,-0.2 -3.82,-0.39 -5.78,-0.69 -8.33,-1 -16.36,-2.45 -22.43,-5.89 -8.12,-4.71 -5.28,-12.76 -1.76,-19.83 3.23,-6.58 7.15,-11.39 11.36,-17 4.21,-5.61 9.15,-11.14 13.83,-17.26 2.25,4.73 4.28,9.34 6,13.8 11.9,30.53 1.65,44.2 -1.14,47.18 h 14.12 a 11.75,11.75 0 0 1 -0.12,-1.58 12.6,12.6 0 1 1 25.2,0 11.75,11.75 0 0 1 -0.12,1.58 h 28.63 a 12.49,12.49 0 0 1 24.91,0 h 33.48 q -0.06,-9.5 -0.73,-18.38 a 50.26,50.26 0 0 0 9.68,18.38 h 13.66 l -3.86,-10.52 c -7,-20 -2.6,-41 2,-62.91 4.64,-22.34 9.56,-45.7 2.6,-69.8 -6.77,-23.36 -25.15,-35.55 -47.34,-41.69 -22.56,-6.15 -49,-6.15 -71.57,-5.22 a 68.57,68.57 0 0 1 -8.56,-0.13 l -3.69,-3 a 61.47,61.47 0 0 0 12.16,0.61 c 22.74,-1 49.47,-1 72.31,5.21 23.11,6.42 42.14,19.08 49.19,43.56 7.15,24.66 2.85,48.43 -2.5,71 -9,37.92 -5.5,56.91 -0.38,72.87 h 47.54 a 26.36,26.36 0 0 1 0,-8.09 46.09,46.09 0 0 1 10.37,-22.78 c 5.08,10.38 9.4,21 10.32,30.87 h 51.82 c -1.65,-26.65 -15,-39.73 -26.4,-55.51 6.27,-2.85 12.63,-5.4 18.41,-7.75 3,-1.18 5.48,-1.87 8.32,-3.14 11.36,-5.4 11.75,-4.82 24.48,-11.89 0.88,-0.49 1.77,-1 2.55,-1.47 5,9.62 13.41,16.4 29.28,16.4 32.75,0.01 42.74,-48 6.51,-48.49 z m -156.18,-140.38 a 2.41,2.41 0 0 1 2.45,2.35 2.46,2.46 0 0 1 -4.9,0 2.41,2.41 0 0 1 2.45,-2.35 z m -8,-2.85 a 3,3 0 1 1 -3.13,2.94 3,3 0 0 1 3.1,-2.97 z m -9.11,0.29 a 3.42,3.42 0 0 1 3.53,3.34 3.5,3.5 0 0 1 -3.53,3.44 3.58,3.58 0 0 1 -3.62,-3.44 3.5,3.5 0 0 1 3.59,-3.34 z m -7.73,4.23 a 3.78,3.78 0 1 1 -3.92,3.82 3.85,3.85 0 0 1 3.89,-3.82 z m -5.49,9.12 a 4.58,4.58 0 1 1 -4.79,4.62 4.74,4.74 0 0 1 4.76,-4.62 z m -5,16.3 a 4.86,4.86 0 0 1 9.7,0 4.86,4.86 0 0 1 -9.7,0 z m 9.3,17.67 a 4.82,4.82 0 1 1 5.1,-4.81 4.92,4.92 0 0 1 -5.12,4.81 z m 12,9.13 a 5.18,5.18 0 0 1 -5.39,-5 5.34,5.34 0 0 1 10.67,0 5.15,5.15 0 0 1 -5.25,5 z m 15.47,3.54 a 6.15,6.15 0 1 1 6.46,-6.09 6.32,6.32 0 0 1 -6.43,6.09 z m 15.27,-5.79 a 6.65,6.65 0 0 1 -5,-2.26 l -0.1,-0.1 v -0.1 a 6,6 0 0 1 -1.37,-3.73 6.47,6.47 0 1 1 6.46,6.19 z m 13.12,-11.3 a 6.5,6.5 0 1 1 0,-13 6.5,6.5 0 1 1 0,13 z m 12.24,-10.7 a 6.89,6.89 0 1 1 0,-13.74 6.88,6.88 0 1 1 0,13.74 z m 12,-12.27 a 6.88,6.88 0 1 1 7.24,-6.87 7,7 0 0 1 -7.24,6.87 z m 15.28,-9.81 a 8.15,8.15 0 0 1 -5.49,-2.16 l -0.39,-0.1 v -0.3 a 6.91,6.91 0 0 1 -1.86,-4.71 7.7,7.7 0 1 1 7.74,7.27 z m 16.84,-5.11 a 7.72,7.72 0 1 1 8.12,-7.76 7.92,7.92 0 0 1 -8.14,7.76 z m -181.76,-104 a 6.34,6.34 0 1 1 0,9 6.34,6.34 0 0 1 -0.02,-9.05 z m -12.14,-1.85 a 5.34,5.34 0 1 1 -5.33,-5.34 5.34,5.34 0 0 1 5.31,5.29 z m -14.31,-19.86 a 6.26,6.26 0 1 1 -6.26,6.25 6.26,6.26 0 0 1 6.24,-6.3 z m -12.91,14.47 a 4.31,4.31 0 1 1 -4.31,4.31 4.31,4.31 0 0 1 4.31,-4.31 z m -14.09,-9.9 a 3.95,3.95 0 1 1 -3.94,3.95 3.94,3.94 0 0 1 3.95,-3.95 z m -6.91,13.81 a 3,3 0 1 1 -3,3 3,3 0 0 1 3,-3 z m -14.72,-12.38 a 6.51,6.51 0 1 1 -6.52,6.51 6.51,6.51 0 0 1 6.49,-6.56 z m -7.63,20.74 a 4.2,4.2 0 1 1 -4.2,4.2 4.2,4.2 0 0 1 4.17,-4.25 z m -19.4,25.64 a 6.26,6.26 0 1 1 6.25,-6.25 6.25,6.25 0 0 1 -6.25,6.25 z m -0.6,-33.43 a 7.72,7.72 0 1 1 -7.72,7.72 7.72,7.72 0 0 1 7.72,-7.7 z m -2.06,53.06 a 7.63,7.63 0 1 1 -7.59,-7.63 7.64,7.64 0 0 1 7.59,7.65 z m -7.89,27 a 9.6,9.6 0 1 1 -9.6,-9.6 9.6,9.6 0 0 1 9.6,9.62 z m -10.2,-61.71 a 6.26,6.26 0 1 1 -6.25,6.25 6.25,6.25 0 0 1 6.25,-6.23 z m -16.5,34.3 a 8.06,8.06 0 1 1 -8.06,8.06 8.06,8.06 0 0 1 8.06,-8.06 z m -13.37,49.29 a 9.34,9.34 0 1 1 9.34,9.34 9.34,9.34 0 0 1 -9.38,-9.34 z m 19.63,52.88 a 9.51,9.51 0 1 1 9.51,-9.51 9.51,9.51 0 0 1 -9.55,9.51 z m 16.33,-26.65 a 9.73,9.73 0 1 1 9.72,-9.73 9.73,9.73 0 0 1 -9.76,9.73 z m 10.92,67.8 a 9.52,9.52 0 1 1 9.49,-9.54 9.51,9.51 0 0 1 -9.53,9.54 z m 6.39,-33.35 a 9.57,9.57 0 1 1 6.18,-2.27 9.55,9.55 0 0 1 -6.22,2.27 z m 22.73,70.29 a 11.31,11.31 0 0 1 -15.83,-10.37 11.55,11.55 0 0 1 0.15,-1.78 11.31,11.31 0 1 1 15.68,12.15 z m 33,54.26 a 12.34,12.34 0 1 1 12.37,12.34 12.34,12.34 0 0 1 -12.38,-12.34 z m 17,55.2 a 12.95,12.95 0 1 1 13,-13 13,13 0 0 1 -12.96,13 z m 14.83,-79.89 a 11.32,11.32 0 1 1 11.32,-11.31 11.31,11.31 0 0 1 -11.28,11.31 z m 20.92,37 a 12.35,12.35 0 1 1 12.34,-12.34 12.35,12.35 0 0 1 -12.3,12.37 z m 17.05,41 a 11.57,11.57 0 1 1 11.58,-11.57 11.57,11.57 0 0 1 -11.54,11.57 z m -30.3,-156.29 c 93.27,11.57 47.52,78.28 46.52,132.76 -10.81,-66.26 -47,-105.14 -82.22,-135.21 12.57,1.42 25.05,1.82 35.74,2.45 z m -34.41,22.41 a 9.94,9.94 0 1 1 -9.94,9.94 9.94,9.94 0 0 1 9.98,-9.94 z m -5.31,49.28 a 12.6,12.6 0 1 1 -12.6,-12.6 12.6,12.6 0 0 1 12.64,12.6 z m -15.26,-77.37 a 12.72,12.72 0 1 1 -10.37,-5.34 12.7,12.7 0 0 1 10.41,5.34 z m 166.85,171.03 a 4.13,4.13 0 1 1 4.31,-4.12 4.25,4.25 0 0 1 -4.31,4.12 z m 4,-11.59 a 5.11,5.11 0 1 1 5.38,-5.1 5.25,5.25 0 0 1 -5.38,5.1 z m 7.54,-12.17 a 6.2,6.2 0 0 1 -6.27,-6 6.13,6.13 0 0 1 6.27,-6 7.29,7.29 0 0 1 2.94,0.68 c 1.17,2.46 2.15,4.81 3.13,7 a 6.32,6.32 0 0 1 -6.08,4.32 z m 50.52,-31.81 c -11.06,0 -11,-14.23 0.88,-14.23 6.36,0 9.4,14.23 -0.89,14.23 z m 12.44,-16 a 8,8 0 0 1 7.54,-7.95 c 3.77,-0.25 7.54,2.31 7.54,8.84 -0.01,10.3 -15.09,8.83 -15.09,-0.89 z m -36.13,-34.16 c 3.44,-19.13 20.6,-33.33 36,-33 a 22.16,22.16 0 0 1 16.43,7.72 c -14.35,13.69 -33.15,19.78 -52.44,25.28 z m 58.26,23.46 c 0,-4.71 2.84,-7.36 6.07,-8 a 73.21,73.21 0 0 0 4.3,14.78 c -4.41,1.47 -10.38,-0.69 -10.38,-6.78 z m -12,-65.05 c -9.35,-5.36 -19.73,-3.18 -28.73,1.92 -9.21,5.21 -17.43,14.73 -22.72,26.71 -10.09,23.17 -9.11,55.66 16.64,86.1 19.59,23.16 23.11,38.09 23.11,38.09 l -2.64,0.68 c 0,0 -3.43,-14.23 -22.62,-36.91 -26.54,-31.42 -27.42,-65.09 -17,-89 5.49,-12.57 14.2,-22.48 23.89,-28 a 34.2,34.2 0 0 1 17.26,-4.93 29.06,29.06 0 0 1 13.49,3.36 c 13.18,6.89 24.46,24.78 28.79,57.92 -1.67,-11.37 -8.1,-43.64 -29.48,-55.94 z m 45.68,27.74 c 0,-4.95 4,-7.43 8,-7.43 4,0 8,2.48 8,7.43 -0.05,10.9 -16.01,10.02 -16.01,0 z m 22.22,-17.53 c -4.31,4.32 -13.41,1.77 -13.41,-5.5 a 8,8 0 0 1 8,-8 c 7.56,0.01 9.72,9.14 5.41,13.5 z m -1.86,-27.49 c -9.89,0 -9.21,-14.13 -0.78,-14.82 h 0.88 c 8.89,0.13 9.96,14.78 -0.1,14.78 z m -1.46,-33.77 h 0.19 l 0.1,0.1 h 0.09 v 0.1 h 0.2 l 0.1,0.1 h 0.11 l 0.1,0.1 h 0.1 l 0.1,0.1 h 0.1 l 0.09,0.09 h 0.1 l 0.1,0.1 h 0.1 v 0.1 h 0.1 l 0.09,0.09 h 0.1 v 0.1 l 0.2,0.1 0.09,0.1 h 0.1 l 0.2,0.19 h 0.1 l 0.09,0.2 0.1,0.1 h 0.1 v 0.1 h 0.1 v 0.09 l 0.19,0.1 0.2,0.2 v 0.1 h 0.1 l 0.1,0.09 0.09,0.1 v 0.1 l 0.1,0.1 0.1,0.2 0.1,0.09 h 0.1 l 0.09,0.2 0.1,0.1 v 0.19 h 0.1 l 0.1,0.2 0.09,0.1 v 0.19 l 0.1,0.1 0.1,0.1 v 0.2 l 0.1,0.09 v 0.1 l 0.1,0.2 v 0.1 l 0.09,0.09 v 0.2 l 0.1,0.1 v 0.19 l 0.1,0.1 v 0.3 l 0.1,0.19 v 0.39 l 0.1,0.2 v 0.88 a 8.39,8.39 0 0 1 -16.75,0 v -0.69 a 0.75,0.75 0 0 1 0.1,-0.39 v -0.39 l 0.1,-0.1 v -0.29 l 0.1,-0.1 v -0.29 l 0.09,-0.1 v -0.2 l 0.1,-0.1 v -0.09 l 0.1,-0.1 v -0.2 l 0.1,-0.09 v -0.1 l 0.1,-0.1 v -0.1 l 0.09,-0.1 v -0.09 l 0.1,-0.1 v -0.1 l 0.1,-0.1 v -0.1 l 0.1,-0.09 0.1,-0.1 v -0.1 l 0.29,-0.29 v -0.1 l 0.1,-0.1 0.1,-0.1 0.09,-0.1 v -0.1 h 0.1 l 0.1,-0.09 v -0.1 l 0.1,-0.1 h 0.1 l 0.09,-0.1 v -0.1 l 0.1,-0.09 0.1,-0.1 h 0.1 l 0.09,-0.1 v -0.1 l 0.2,-0.1 0.1,-0.09 0.19,-0.1 0.1,-0.1 0.2,-0.1 0.29,-0.29 0.2,-0.1 0.19,-0.1 0.2,-0.1 h 0.2 l 0.09,-0.09 0.4,-0.2 0.19,-0.1 h 0.2 l 0.19,-0.1 0.2,-0.09 h 0.19 l 0.2,-0.1 h 0.2 l 0.19,-0.1 h 0.39 l 0.2,-0.1 h 2.45 l 0.1,0.1 h 0.34 l 0.29,0.1 h 0.1 l 0.2,0.1 h 0.19 l 0.1,0.09 h 0.2 z m -8.53,-20.81 a 8,8 0 1 1 -8.32,7.95 8.15,8.15 0 0 1 8.32,-7.99 z m -47.39,-21.73 a 8.7,8.7 0 1 1 9.11,-8.65 9,9 0 0 1 -9.11,8.65 z m 19.19,6.38 a 8,8 0 1 1 8.42,-8 8.22,8.22 0 0 1 -8.42,8 z m 5.68,5.89 a 8.43,8.43 0 1 1 8.42,7.95 8.28,8.28 0 0 1 -8.42,-7.95 z m 5.09,121.73 a 9.38,9.38 0 0 1 1.59,0 7.57,7.57 0 0 1 7.22,7.77 c 0,4.81 -3.62,7.16 -7.44,7.36 -0.78,-4.53 -0.98,-9.63 -1.37,-15.13 z"
         id="path9622" /><path
         class="cls-1"
         d="m 984.71068,608.08 c 19.39002,14.43 5.29,31.9 -9.4,25.13 a 13.66,13.66 0 0 1 -7.54,-10.8 c -1,-7.17 2.15,-17.18 5.19,-23.17 4.31,-8.24 8.91,-24.93 8.31,-34.56 -1,-14.52 -6.65,-26.79 -18.6,-35.53 -7,-5.11 -13.51,-7.66 -21.54,-9.62 -27.52,-6.88 -55.33,4.91 -72.66,25.91 -10.77,13 -16.94,27.29 -17.92,43.69 -0.68,10.21 -0.19,10.21 -0.1,19 0,2.25 0.3,3.93 0.49,6.18 0.4,6.28 0.82,13.22 0.61,20.15 -48.00001,-46.91 -40.17001,-106.24 -24.9,-132.59 5.78,-10 42.6,-59.23 45.69,-92.31 3.09,-33.08 -17.23,-53.57 -36.26,-50.94 -19.03001,2.63 -17.81001,20.72 -17.81001,20.72 2.44,-11.45 10.92001,-14.4 15.81001,-14.53 4.89,-0.13 27.54,5.37 19.17,39.16 a 4.79,4.79 0 0 1 -2,9.14 4.92,4.92 0 0 1 -0.98,-0.11 c -1,2.66 -2.24,5.41 -3.61,8.25 a 5.61,5.61 0 0 1 -2.85,10.44 5.68,5.68 0 0 1 -2.34,-0.51 c -16,28.56 -42.77001,62.19 -55.81001,83.85 -5.6,-8.78 -12,-17.53 -18.58,-27.07 -6.17,-9 -8.63,-10.35 -14.28,-22.7 -5.25,-11.6 -7.88,-21.08 -2.33,-31.77 a 26.06,26.06 0 0 1 27.9,-13.6 c 16.71,3.15 26.44,22.83 15.21,33.41 -11.61,11.51 -35.1,-7.07 -13.57,-22.06 -6.41,0.19 -11.64,5 -13.22,7.76 -6.39,11.17 2.87,26.35 16.08,28.92 29.93,5.79 45.80001,-48.05 3,-64.7 a 47.25,47.25 0 0 0 -22.5,-2.73 45.73,45.73 0 0 0 -19.6,6.91 c -26.75,17.6 -26.69,49.22 -15.42,75.6 -18,-6.62 -41.11,4.73 -53.87,-3.66 -2.25,-1.48 -5.19,-4.42 -5.88,-7.07 4.13,27 30.92,14.64 51.8,22 7.44,2.55 12.93,16.79 -3.42,22.77 -14.2,5.21 -26.15,0.1 -43.68,8.54 -24.77,11.75 -29.03,42.19 -15.56,56.82 1.07,1.18 1.76,2.06 2.84,3.14 a 7.39,7.39 0 0 0 1.76,1.46 c 5.09,4.13 13.71,8.74 27.71,10 9.79,-0.39 36.13,-2.45 43.18,0.69 v 0 c 19.78,7.29 23.27,32.6 20,56.68 -3.61,-9.61 -11.68,-17.27 -25.21,-20.26 -17.23,-3.73 -34,3.73 -39.17,-6.67 a 13.46,13.46 0 0 1 -0.78,-7.86 c 1.38,-8.68 12.07,-6.46 15.33,-3.15 a 26.69,26.69 0 0 1 4.8,7.07 l -1,-6 v 0 c -4.11,-21.89 -33.77,-11.86 -31.57,9.53 2.94,28.08 34.37,18.16 48.38,23.56 6.46,2.46 9.79,7.07 10.67,12.28 h 13.22 a 14.3,14.3 0 0 0 -0.2,-2.16 c -0.88,-9.62 -6.75,-14.93 -15.27,-17.77 -8.72,-3 -20.17,-3.34 -31.83,-3.24 -24.55,0.3 -16.33,-21.57 -16.33,-21.57 0,0 -6.17,20.42 16.35,20.22 11.75,-0.1 23.41,0.3 32.22,3.34 9.11,3 15.37,8.74 16.25,18.95 a 15.83,15.83 0 0 1 0.2,2.26 h 41.74 c -0.28,-2.26 0.35,-6.65 -0.33,-15.65 5.95,9.63 10.93,16.23 10.93,16.23 h 91.00001 l -0.25,-0.13 h 3.39 c 4.21,-31.42 -16,-63.13 0.78,-92.19 2,-3.53 3.53,-6.67 6.37,-9.81 17.43,-19.83 45.63,-17.58 53,3.53 3.53,10.11 -2.45,23.27 -5.68,33.67 l -2.35,11.69 c -3.82,39 32.71,46.23 48.57,32.2 14.98002,-13.26 4.60002,-38 -11.75,-34.36 z m -142.34,-171.31 a 3.36,3.36 0 1 1 -3.37,3.36 3.36,3.36 0 0 1 3.37,-3.36 z m -7.63,14.23 a 4.05,4.05 0 1 1 -4.05,4.05 4.05,4.05 0 0 1 4.05,-4.05 z m -9.75,14.87 a 4.5,4.5 0 1 1 -4.50001,4.5 4.51,4.51 0 0 1 4.50001,-4.55 z m -15.17001,22.64 a 6.3,6.3 0 1 1 -6.3,6.29 6.3,6.3 0 0 1 6.3,-6.34 z m -22.28,29.49 a 8.26,8.26 0 1 1 7.28,12.17 h -0.41 a 8.26,8.26 0 0 1 -6.87,-12.17 z m -1.15,24.26 a 9.19,9.19 0 1 1 0,18.38 9,9 0 0 1 -3.16,-0.57 9.19,9.19 0 0 1 -5.94,-7.39 9.89,9.89 0 0 1 -0.09,-1.23 9.19,9.19 0 0 1 9.19,-9.21 z m -12.94,-12.19 a 4.7,4.7 0 0 1 -4.06,5.24 4.78,4.78 0 0 1 -1,-9.49 4.69,4.69 0 0 1 5.06,4.23 z m -5.81,-10.82 a 4.57,4.57 0 1 1 -5,-4.26 4.67,4.67 0 0 1 5,4.24 z m -5.37,-10.96 a 4.63,4.63 0 0 1 -4,5.23 4.78,4.78 0 1 1 4,-5.23 z m -5.74,-10.9 a 4.57,4.57 0 1 1 -5.09,-4.25 4.71,4.71 0 0 1 5.05,4.25 z m -5.82,-10.9 a 4.63,4.63 0 0 1 -4,5.24 4.78,4.78 0 0 1 -1,-9.5 4.64,4.64 0 0 1 4.96,4.26 z m -12.09,-47.36 a 4.7,4.7 0 0 1 -4.06,5.24 4.78,4.78 0 0 1 -1,-9.49 4.7,4.7 0 0 1 5.02,4.25 z m 0,-17.37 a 4.78,4.78 0 1 1 -4.06,5.24 4.68,4.68 0 0 1 4.05,-5.24 z m -6.64,26.33 a 4.79,4.79 0 1 1 -4,5.24 4.7,4.7 0 0 1 3.99,-5.24 z m 2.54,12.38 a 4.78,4.78 0 1 1 -4.06,5.24 4.67,4.67 0 0 1 4.05,-5.24 z m 5.06,11.29 a 4.78,4.78 0 1 1 -4.06,5.25 4.69,4.69 0 0 1 4.05,-5.25 z m 9.47,-48.82 a 4.78,4.78 0 0 1 -1,-9.49 4.78,4.78 0 0 1 1,9.49 z m 10.46,-7.38 a 3.39,3.39 0 0 1 -0.74,-6.72 3.3803106,3.3803106 0 0 1 0.74,6.72 z m 10.48,-1.94 a 3.34,3.34 0 1 1 2.88,-3.67 3.27,3.27 0 0 1 -2.89,3.67 z m 9.1,2.14 a 3.39,3.39 0 0 1 -0.73,-6.73 3.39,3.39 0 0 1 0.73,6.73 z m -53.27,49.24 c -2.83,-12.82 -1.74,-24.14 2,-33.44 a 45.37,45.37 0 0 1 13,-18.06 44.7,44.7 0 0 1 19.1,-9.36 c 1.06,-0.24 2.13,-0.43 3.21,-0.59 1.08,-0.16 1.89,-0.27 2.85,-0.32 14,-0.76 19.57,4.53 19.57,4.53 a 43.28,43.28 0 0 0 -25.28,-2.12 42.62,42.62 0 0 0 -18.42,9 43.3,43.3 0 0 0 -12.63,17.46 c -3.57,9 -4.61,20 -1.89,32.55 1.51,7.08 4.78,14.8 8.87,22.73 a 27.52,27.52 0 0 0 -2.63,-1.88 92.45,92.45 0 0 1 -7.75,-20.5 z m 41.06,118.31 a 68,68 0 0 0 -8.78,-6.42 c -8.81,-5.6 -20.66,-8.54 -31,-9.13 -16.84,-1 -32.11,3.53 -43,0.39 -17,-4.91 -8.91,-22.38 7.93,-26 12.34,-2.56 25,-3.34 34.86,-8.25 9.71,-4.74 15.72,-12.53 17.87,-20.66 l 9,15.75 c 10.67,20.51 13.51,38.39 13.12,54.33 z m 4.18,-26.89 c -1.35,-10.24 -10.49,-25 -20.27,-40.89 -1.71,-2.79 -3.44,-5.62 -5.16,-8.45 a 25.28,25.28 0 0 0 -0.11,-3.14 c 2.16,3.6 4.37,7.19 6.54,10.73 8.73,14.21 17,27.55 19.71,37.78 -0.26,1.33 -0.5,2.66 -0.71,3.98 z m 1.75,-8.86 a 4.83,4.83 0 0 1 -2.49,-3.74 4.69,4.69 0 0 1 4.06,-5.24 4.31,4.31 0 0 1 0.88,0 c -0.93,2.98 -1.74,5.98 -2.45,8.99 z m 15.19,58.31 a 10.82,10.82 0 0 1 -10.73,-9.8 c 0,-0.33 0,-0.65 0,-1 a 10.8,10.8 0 1 1 10.8,10.8 z m 16.27,36.65 a 12.54,12.54 0 1 1 12.53,-12.52 12.53,12.53 0 0 1 -12.53,12.52 z m 54.69001,-28 a 3.83,3.83 0 0 1 3.45,2 c 3.53,7.46 -5.29,11.78 -8.62,4.81 -2.15,-4.46 1.85,-6.96 5.17,-6.78 z m 2.08,24.35 c -5.48,2.56 -9,-6 -4,-8.44 a 4.16,4.16 0 0 1 1.8,-0.39 c 4.03,0.11 6.83,6.63 2.2,8.86 z m -1,-30.43 a 6.38,6.38 0 1 1 6.56,-6.38 6.47,6.47 0 0 1 -6.54,6.41 z m 1.47,-17.67 a 6.38,6.38 0 1 1 6.56,-6.38 6.47,6.47 0 0 1 -6.54,6.41 z m 2.94,-15.12 a 6.49,6.49 0 1 1 6.82,-6.45 6.63,6.63 0 0 1 -6.8,6.48 z m 7.82,-13.91 a 6.43,6.43 0 1 1 6.66,-6.38 6.56,6.56 0 0 1 -6.66,6.38 z m 11.56,-12.57 a 6.49,6.49 0 1 1 6.75,-6.47 6.63,6.63 0 0 1 -6.72,6.47 z m 13.9,-9.13 a 6.43,6.43 0 1 1 6.66,-6.38 6.49,6.49 0 0 1 -6.63,6.34 z m 14.1,-5.59 a 6.49,6.49 0 0 1 -6.66,-6.38 6.66,6.66 0 0 1 13.32,0 6.49,6.49 0 0 1 -6.63,6.38 z m 15.89,-1.45 a 6.44,6.44 0 1 1 6.66,-6.38 6.49,6.49 0 0 1 -6.66,6.38 z m 15.08,2.55 a 6.64,6.64 0 0 1 -6.66,-6.48 6.66,6.66 0 1 1 6.66,6.48 z m 49.94,78.83 a 1.78,1.78 0 0 1 1.86,-1.77 1.77,1.77 0 0 1 0,3.54 1.78,1.78 0 0 1 -1.86,-1.79 z m -28.79,-5.1 a 4.72,4.72 0 1 1 4.9,-4.72 4.76,4.76 0 0 1 -4.9,4.7 z m 3.82,-10.61 a 4.71,4.71 0 1 1 0,-9.42 4.71,4.71 0 1 1 0,9.42 z m 3.82,-11 a 5.34,5.34 0 0 1 -5.39,-5.2 5.39,5.39 0 0 1 10.77,0 5.33,5.33 0 0 1 -5.38,5.19 z m 1.47,-11.59 a 5.2,5.2 0 1 1 0,-10.4 5.2,5.2 0 1 1 0,10.4 z m 4.11,-18.55 a 5.34,5.34 0 0 1 -10.67,0 5.34,5.34 0 0 1 10.67,0 z m -4.8,-12.77 a 6.17,6.17 0 0 1 -12.33,0 6.17,6.17 0 0 1 12.33,0 z m -15.67,-3.63 a 5.94,5.94 0 1 1 6.18,-6 6.12,6.12 0 0 1 -6.18,5.99 z m 4.71,70.1 a 4.22,4.22 0 1 1 0,8.44 4.22,4.22 0 1 1 0,-8.44 z m -3.53,14.92 a 4.46,4.46 0 0 1 4.51,-4.32 4.39,4.39 0 0 1 4.5,4.32 4.34,4.34 0 0 1 -4.5,4.32 4.4,4.4 0 0 1 -4.51,-4.33 z m 11.65,15.51 a 4.32,4.32 0 1 1 0,-8.64 4.32,4.32 0 1 1 0,8.64 z m 9.79,3.83 a 4,4 0 0 1 -4,-3.83 3.94,3.94 0 0 1 4,-3.83 3.88,3.88 0 0 1 4,3.83 3.94,3.94 0 0 1 -4,3.82 z m 9.6,-2.36 a 3.18,3.18 0 0 1 -3.23,-3.14 3.28,3.28 0 0 1 6.56,0 3.2,3.2 0 0 1 -3.33,3.13 z m 6.46,-5.89 a 2.75,2.75 0 1 1 0,-5.49 2.75,2.75 0 1 1 0,5.49 z m 3.33,-6.67 a 2.83,2.83 0 0 1 -2.84,-2.75 2.89001,2.89001 0 0 1 5.78002,0 2.85,2.85 0 0 1 -2.94002,2.74 z m 2.45002,-9.72 a 2.83,2.83 0 0 1 -2.84002,2.75 2.92,2.92 0 0 1 -2.94,-2.75 2.85,2.85 0 0 1 2.94,-2.75 2.76,2.76 0 0 1 2.84002,2.74 z"
         id="path9624" /></g></g><eggbot
     serialport="/dev/ttyACM0"
     layer="0"
     node="0"
     lastpath="0"
     lastpathnc="0"
     totaldeltax="0"
     totaldeltay="0"
     id="eggbot4228" /></svg>
