  0
SECTION
  2
HEADER
  9
$ACADVER
  1
AC1014
  9
$HANDSEED
  5
FFFF
  9
$MEASUREMENT
 70
     1
  0
ENDSEC
  0
SECTION
  2
TABLES
  0
TABLE
  2
VPORT
  5
8
330
0
100
AcDbSymbolTable
 70
     4
  0
VPORT
  5
2E
330
8
100
AcDbSymbolTableRecord
100
AcDbViewportTableRecord
  2
*ACTIVE
 70
     0
 10
0.0
 20
0.0
 11
1.0
 21
1.0
 12
210.0
 22
148.5
 13
0.0
 23
0.0
 14
10.0
 24
10.0
 15
10.0
 25
10.0
 16
0.0
 26
0.0
 36
1.0
 17
0.0
 27
0.0
 37
0.0
 40
341.0
 41
1.24
 42
50.0
 43
0.0
 44
0.0
 50
0.0
 51
0.0
 71
     0
 72
   100
 73
     1
 74
     3
 75
     0
 76
     0
 77
     0
 78
     0
  0
ENDTAB
  0
TABLE
  2
LTYPE
  5
5
330
0
100
AcDbSymbolTable
 70
     1
  0
LTYPE
  5
14
330
5
100
AcDbSymbolTableRecord
100
AcDbLinetypeTableRecord
  2
BYBLOCK
 70
     0
  3

 72
    65
 73
     0
 40
0.0
  0
LTYPE
  5
15
330
5
100
AcDbSymbolTableRecord
100
AcDbLinetypeTableRecord
  2
BYLAYER
 70
     0
  3

 72
    65
 73
     0
 40
0.0
  0
LTYPE
  5
16
330
5
100
AcDbSymbolTableRecord
100
AcDbLinetypeTableRecord
  2
CONTINUOUS
 70
     0
  3
Solid line
 72
    65
 73
     0
 40
0.0
  0
ENDTAB
  0
TABLE
  2
LAYER
  5
2
100
AcDbSymbolTable
 70
1
  0
LAYER
  5
50
100
AcDbSymbolTableRecord
100
AcDbLayerTableRecord
  2
0
 70
0
  6
CONTINUOUS
  0
ENDTAB
  0
TABLE
  2
STYLE
  5
3
330
0
100
AcDbSymbolTable
 70
     1
  0
STYLE
  5
11
330
3
100
AcDbSymbolTableRecord
100
AcDbTextStyleTableRecord
  2
STANDARD
 70
     0
 40
0.0
 41
1.0
 50
0.0
 71
     0
 42
2.5
  3
txt
  4

  0
ENDTAB
  0
TABLE
  2
VIEW
  5
6
330
0
100
AcDbSymbolTable
 70
     0
  0
ENDTAB
  0
TABLE
  2
UCS
  5
7
330
0
100
AcDbSymbolTable
 70
     0
  0
ENDTAB
  0
TABLE
  2
APPID
  5
9
330
0
100
AcDbSymbolTable
 70
     2
  0
APPID
  5
12
330
9
100
AcDbSymbolTableRecord
100
AcDbRegAppTableRecord
  2
ACAD
 70
     0
  0
ENDTAB
  0
TABLE
  2
DIMSTYLE
  5
A
330
0
100
AcDbSymbolTable
 70
     1
  0
DIMSTYLE
105
27
330
A
100
AcDbSymbolTableRecord
100
AcDbDimStyleTableRecord
  2
ISO-25
 70
     0
  3

  4

  5

  6

  7

 40
1.0
 41
2.5
 42
0.625
 43
3.75
 44
1.25
 45
0.0
 46
0.0
 47
0.0
 48
0.0
140
2.5
141
2.5
142
0.0
143
0.03937007874016
144
1.0
145
0.0
146
1.0
147
0.625
 71
     0
 72
     0
 73
     0
 74
     0
 75
     0
 76
     0
 77
     1
 78
     8
170
     0
171
     3
172
     1
173
     0
174
     0
175
     0
176
     0
177
     0
178
     0
270
     2
271
     2
272
     2
273
     2
274
     3
340
11
275
     0
280
     0
281
     0
282
     0
283
     0
284
     8
285
     0
286
     0
287
     3
288
     0
  0
ENDTAB
  0
TABLE
  2
BLOCK_RECORD
  5
1
330
0
100
AcDbSymbolTable
 70
     1
  0
BLOCK_RECORD
  5
1F
330
1
100
AcDbSymbolTableRecord
100
AcDbBlockTableRecord
  2
*MODEL_SPACE
  0
BLOCK_RECORD
  5
1B
330
1
100
AcDbSymbolTableRecord
100
AcDbBlockTableRecord
  2
*PAPER_SPACE
  0
ENDTAB
  0
ENDSEC
  0
SECTION
  2
BLOCKS
  0
BLOCK
  5
20
330
1F
100
AcDbEntity
  8
0
100
AcDbBlockBegin
  2
*MODEL_SPACE
 70
     0
 10
0.0
 20
0.0
 30
0.0
  3
*MODEL_SPACE
  1

  0
ENDBLK
  5
21
330
1F
100
AcDbEntity
  8
0
100
AcDbBlockEnd
  0
BLOCK
  5
1C
330
1B
100
AcDbEntity
 67
     1
  8
0
100
AcDbBlockBegin
  2
*PAPER_SPACE
  1

  0
ENDBLK
  5
1D
330
1B
100
AcDbEntity
 67
     1
  8
0
100
AcDbBlockEnd
  0
ENDSEC
  0
SECTION
  2
ENTITIES
  0
LWPOLYLINE
  5
100
100
AcDbEntity
  8
0
 62
7
100
AcDbPolyline
 90
1002
 70
1
 10
0.000000
 20
29.600008
 30
0.0
 10
0.000000
 20
0.000006
 30
0.0
 10
14.546700
 20
0.000006
 30
0.0
 10
29.093400
 20
0.000006
 30
0.0
 10
29.093400
 20
5.500251
 30
0.0
 10
29.093400
 20
11.000496
 30
0.0
 10
25.981419
 20
11.000496
 30
0.0
 10
22.869439
 20
11.000496
 30
0.0
 10
22.869439
 20
10.349151
 30
0.0
 10
22.869439
 20
9.697806
 30
0.0
 10
25.330075
 20
9.697806
 30
0.0
 10
27.790710
 20
9.697806
 30
0.0
 10
27.790710
 20
7.960887
 30
0.0
 10
27.790710
 20
6.223967
 30
0.0
 10
25.330075
 20
6.223967
 30
0.0
 10
22.869439
 20
6.223967
 30
0.0
 10
22.869439
 20
5.572623
 30
0.0
 10
22.869439
 20
4.921278
 30
0.0
 10
25.330075
 20
4.921278
 30
0.0
 10
27.790710
 20
4.921278
 30
0.0
 10
27.790710
 20
3.184359
 30
0.0
 10
27.790710
 20
1.447439
 30
0.0
 10
21.204891
 20
1.447439
 30
0.0
 10
14.619072
 20
1.447439
 30
0.0
 10
14.619072
 20
3.184359
 30
0.0
 10
14.619072
 20
4.921278
 30
0.0
 10
17.007336
 20
4.921278
 30
0.0
 10
19.395600
 20
4.921278
 30
0.0
 10
19.395600
 20
5.572623
 30
0.0
 10
19.395600
 20
6.223967
 30
0.0
 10
17.007336
 20
6.223967
 30
0.0
 10
14.619072
 20
6.223967
 30
0.0
 10
14.619072
 20
7.960887
 30
0.0
 10
14.619072
 20
9.697806
 30
0.0
 10
17.007336
 20
9.697806
 30
0.0
 10
19.395600
 20
9.697806
 30
0.0
 10
19.395600
 20
10.349151
 30
0.0
 10
19.395600
 20
11.000496
 30
0.0
 10
15.198045
 20
11.000496
 30
0.0
 10
11.000489
 20
11.000496
 30
0.0
 10
11.000489
 20
15.849396
 30
0.0
 10
11.000489
 20
20.698296
 30
0.0
 10
8.612225
 20
20.698296
 30
0.0
 10
6.223961
 20
20.698296
 30
0.0
 10
6.223961
 20
22.435215
 30
0.0
 10
6.223961
 20
24.172135
 30
0.0
 10
10.349145
 20
24.172135
 30
0.0
 10
14.474328
 20
24.172135
 30
0.0
 10
14.474328
 20
19.323235
 30
0.0
 10
14.474328
 20
14.474335
 30
0.0
 10
20.553546
 20
14.474335
 30
0.0
 10
26.632764
 20
14.474335
 30
0.0
 10
26.632764
 20
19.974579
 30
0.0
 10
26.632764
 20
25.474824
 30
0.0
 10
26.053791
 20
25.474824
 30
0.0
 10
25.474818
 20
25.474824
 30
0.0
 10
25.474818
 20
29.600008
 30
0.0
 10
25.474818
 20
33.725191
 30
0.0
 10
26.705136
 20
33.725191
 30
0.0
 10
27.935454
 20
33.725191
 30
0.0
 10
27.935454
 20
34.376536
 30
0.0
 10
27.935454
 20
35.027881
 30
0.0
 10
26.053791
 20
35.027881
 30
0.0
 10
24.172128
 20
35.027881
 30
0.0
 10
24.172128
 20
32.639617
 30
0.0
 10
24.172128
 20
30.251352
 30
0.0
 10
21.711492
 20
30.251352
 30
0.0
 10
19.250857
 20
30.251352
 30
0.0
 10
19.250857
 20
29.600008
 30
0.0
 10
19.250857
 20
28.948663
 30
0.0
 10
21.711492
 20
28.948663
 30
0.0
 10
24.172128
 20
28.948663
 30
0.0
 10
24.172128
 20
26.560399
 30
0.0
 10
24.172128
 20
24.172135
 30
0.0
 10
24.751101
 20
24.172135
 30
0.0
 10
25.330075
 20
24.172135
 30
0.0
 10
25.330075
 20
22.435215
 30
0.0
 10
25.330075
 20
20.698296
 30
0.0
 10
23.014182
 20
20.698296
 30
0.0
 10
20.698289
 20
20.698296
 30
0.0
 10
20.698289
 20
23.086560
 30
0.0
 10
20.698289
 20
25.474824
 30
0.0
 10
19.974573
 20
25.474824
 30
0.0
 10
19.250857
 20
25.474824
 30
0.0
 10
19.250857
 20
22.435215
 30
0.0
 10
19.250857
 20
19.395606
 30
0.0
 10
22.290466
 20
19.395606
 30
0.0
 10
25.330075
 20
19.395606
 30
0.0
 10
25.330075
 20
17.658687
 30
0.0
 10
25.330075
 20
15.921767
 30
0.0
 10
20.553546
 20
15.921767
 30
0.0
 10
15.777018
 20
15.921767
 30
0.0
 10
15.777018
 20
20.698296
 30
0.0
 10
15.777018
 20
25.474824
 30
0.0
 10
13.388754
 20
25.474824
 30
0.0
 10
11.000489
 20
25.474824
 30
0.0
 10
11.000489
 20
27.211743
 30
0.0
 10
11.000489
 20
28.948663
 30
0.0
 10
13.388754
 20
28.948663
 30
0.0
 10
15.777018
 20
28.948663
 30
0.0
 10
15.777018
 20
29.600008
 30
0.0
 10
15.777018
 20
30.251352
 30
0.0
 10
13.388754
 20
30.251352
 30
0.0
 10
11.000489
 20
30.251352
 30
0.0
 10
11.000489
 20
31.988272
 30
0.0
 10
11.000489
 20
33.725191
 30
0.0
 10
13.388754
 20
33.725191
 30
0.0
 10
15.777018
 20
33.725191
 30
0.0
 10
15.777018
 20
38.574091
 30
0.0
 10
15.777018
 20
43.422991
 30
0.0
 10
19.323228
 20
43.422991
 30
0.0
 10
22.869439
 20
43.422991
 30
0.0
 10
22.869439
 20
41.686072
 30
0.0
 10
22.869439
 20
39.949152
 30
0.0
 10
21.060148
 20
39.949152
 30
0.0
 10
19.250857
 20
39.949152
 30
0.0
 10
19.250857
 20
36.837172
 30
0.0
 10
19.250857
 20
33.725191
 30
0.0
 10
19.974573
 20
33.725191
 30
0.0
 10
20.698289
 20
33.725191
 30
0.0
 10
20.698289
 20
36.113455
 30
0.0
 10
20.698289
 20
38.501720
 30
0.0
 10
24.316872
 20
38.501720
 30
0.0
 10
27.935454
 20
38.501720
 30
0.0
 10
27.935454
 20
39.225436
 30
0.0
 10
27.935454
 20
39.949152
 30
0.0
 10
26.126163
 20
39.949152
 30
0.0
 10
24.316872
 20
39.949152
 30
0.0
 10
24.316872
 20
41.686072
 30
0.0
 10
24.316872
 20
43.422991
 30
0.0
 10
26.126163
 20
43.422991
 30
0.0
 10
27.935454
 20
43.422991
 30
0.0
 10
27.935454
 20
45.232282
 30
0.0
 10
27.935454
 20
47.041573
 30
0.0
 10
29.600001
 20
47.041573
 30
0.0
 10
31.264549
 20
47.041573
 30
0.0
 10
31.264549
 20
45.232282
 30
0.0
 10
31.264549
 20
43.422991
 30
0.0
 10
33.073840
 20
43.422991
 30
0.0
 10
34.883131
 20
43.422991
 30
0.0
 10
34.883131
 20
41.686072
 30
0.0
 10
34.883131
 20
39.949152
 30
0.0
 10
33.073840
 20
39.949152
 30
0.0
 10
31.264549
 20
39.949152
 30
0.0
 10
31.264549
 20
39.225436
 30
0.0
 10
31.264549
 20
38.501720
 30
0.0
 10
34.883131
 20
38.501720
 30
0.0
 10
38.501713
 20
38.501720
 30
0.0
 10
38.501713
 20
35.606854
 30
0.0
 10
38.501713
 20
32.711988
 30
0.0
 10
36.764794
 20
32.711988
 30
0.0
 10
35.027874
 20
32.711988
 30
0.0
 10
35.027874
 20
33.869934
 30
0.0
 10
35.027874
 20
35.027881
 30
0.0
 10
33.146212
 20
35.027881
 30
0.0
 10
31.264549
 20
35.027881
 30
0.0
 10
31.264549
 20
34.376536
 30
0.0
 10
31.264549
 20
33.725191
 30
0.0
 10
32.494867
 20
33.725191
 30
0.0
 10
33.725185
 20
33.725191
 30
0.0
 10
33.725185
 20
29.600008
 30
0.0
 10
33.725185
 20
25.474824
 30
0.0
 10
33.073840
 20
25.474824
 30
0.0
 10
32.422495
 20
25.474824
 30
0.0
 10
32.422495
 20
24.823479
 30
0.0
 10
32.422495
 20
24.172135
 30
0.0
 10
33.725185
 20
24.172135
 30
0.0
 10
35.027874
 20
24.172135
 30
0.0
 10
35.027874
 20
25.402452
 30
0.0
 10
35.027874
 20
26.632770
 30
0.0
 10
36.764794
 20
26.632770
 30
0.0
 10
38.501713
 20
26.632770
 30
0.0
 10
38.501713
 20
23.665533
 30
0.0
 10
38.501713
 20
20.698296
 30
0.0
 10
37.271395
 20
20.698296
 30
0.0
 10
36.041077
 20
20.698296
 30
0.0
 10
36.041077
 20
20.046951
 30
0.0
 10
36.041077
 20
19.395606
 30
0.0
 10
37.922740
 20
19.395606
 30
0.0
 10
39.804403
 20
19.395606
 30
0.0
 10
39.804403
 20
23.665533
 30
0.0
 10
39.804403
 20
27.935460
 30
0.0
 10
37.416139
 20
27.935460
 30
0.0
 10
35.027874
 20
27.935460
 30
0.0
 10
35.027874
 20
29.600008
 30
0.0
 10
35.027874
 20
31.264555
 30
0.0
 10
37.416139
 20
31.264555
 30
0.0
 10
39.804403
 20
31.264555
 30
0.0
 10
39.804403
 20
35.606854
 30
0.0
 10
39.804403
 20
39.949152
 30
0.0
 10
37.995112
 20
39.949152
 30
0.0
 10
36.185821
 20
39.949152
 30
0.0
 10
36.185821
 20
41.686072
 30
0.0
 10
36.185821
 20
43.422991
 30
0.0
 10
39.732031
 20
43.422991
 30
0.0
 10
43.278242
 20
43.422991
 30
0.0
 10
43.278242
 20
38.574091
 30
0.0
 10
43.278242
 20
33.725191
 30
0.0
 10
44.001958
 20
33.725191
 30
0.0
 10
44.725674
 20
33.725191
 30
0.0
 10
44.725674
 20
39.225436
 30
0.0
 10
44.725674
 20
44.725681
 30
0.0
 10
38.646457
 20
44.725681
 30
0.0
 10
32.567239
 20
44.725681
 30
0.0
 10
32.567239
 20
46.534972
 30
0.0
 10
32.567239
 20
48.344263
 30
0.0
 10
29.527630
 20
48.344263
 30
0.0
 10
26.488021
 20
48.344263
 30
0.0
 10
26.488021
 20
46.534972
 30
0.0
 10
26.488021
 20
44.725681
 30
0.0
 10
20.481175
 20
44.725681
 30
0.0
 10
14.474328
 20
44.725681
 30
0.0
 10
14.474328
 20
39.876781
 30
0.0
 10
14.474328
 20
35.027881
 30
0.0
 10
10.349145
 20
35.027881
 30
0.0
 10
6.223961
 20
35.027881
 30
0.0
 10
6.223961
 20
36.764800
 30
0.0
 10
6.223961
 20
38.501720
 30
0.0
 10
8.612225
 20
38.501720
 30
0.0
 10
11.000489
 20
38.501720
 30
0.0
 10
11.000489
 20
43.350620
 30
0.0
 10
11.000489
 20
48.199519
 30
0.0
 10
17.007336
 20
48.199519
 30
0.0
 10
23.014182
 20
48.199519
 30
0.0
 10
23.014182
 20
51.311500
 30
0.0
 10
23.014182
 20
54.423481
 30
0.0
 10
22.362837
 20
54.423481
 30
0.0
 10
21.711492
 20
54.423481
 30
0.0
 10
21.711492
 20
51.962845
 30
0.0
 10
21.711492
 20
49.502209
 30
0.0
 10
13.244010
 20
49.502209
 30
0.0
 10
4.776528
 20
49.502209
 30
0.0
 10
4.776528
 20
48.850864
 30
0.0
 10
4.776528
 20
48.199519
 30
0.0
 10
7.237164
 20
48.199519
 30
0.0
 10
9.697800
 20
48.199519
 30
0.0
 10
9.697800
 20
44.074336
 30
0.0
 10
9.697800
 20
39.949152
 30
0.0
 10
7.237164
 20
39.949152
 30
0.0
 10
4.776528
 20
39.949152
 30
0.0
 10
4.776528
 20
36.837172
 30
0.0
 10
4.776528
 20
33.725191
 30
0.0
 10
7.237164
 20
33.725191
 30
0.0
 10
9.697800
 20
33.725191
 30
0.0
 10
9.697800
 20
29.600008
 30
0.0
 10
9.697800
 20
25.474824
 30
0.0
 10
7.237164
 20
25.474824
 30
0.0
 10
4.776528
 20
25.474824
 30
0.0
 10
4.776528
 20
22.435215
 30
0.0
 10
4.776528
 20
19.395606
 30
0.0
 10
7.237164
 20
19.395606
 30
0.0
 10
9.697800
 20
19.395606
 30
0.0
 10
9.697800
 20
15.198051
 30
0.0
 10
9.697800
 20
11.000496
 30
0.0
 10
7.237164
 20
11.000496
 30
0.0
 10
4.776528
 20
11.000496
 30
0.0
 10
4.776528
 20
10.349151
 30
0.0
 10
4.776528
 20
9.697806
 30
0.0
 10
9.046455
 20
9.697806
 30
0.0
 10
13.316382
 20
9.697806
 30
0.0
 10
13.316382
 20
7.960887
 30
0.0
 10
13.316382
 20
6.223967
 30
0.0
 10
9.046455
 20
6.223967
 30
0.0
 10
4.776528
 20
6.223967
 30
0.0
 10
4.776528
 20
5.572623
 30
0.0
 10
4.776528
 20
4.921278
 30
0.0
 10
9.046455
 20
4.921278
 30
0.0
 10
13.316382
 20
4.921278
 30
0.0
 10
13.316382
 20
3.184359
 30
0.0
 10
13.316382
 20
1.447439
 30
0.0
 10
7.309536
 20
1.447439
 30
0.0
 10
1.302690
 20
1.447439
 30
0.0
 10
1.302690
 20
7.960887
 30
0.0
 10
1.302690
 20
14.474335
 30
0.0
 10
3.763325
 20
14.474335
 30
0.0
 10
6.223961
 20
14.474335
 30
0.0
 10
6.223961
 20
15.198051
 30
0.0
 10
6.223961
 20
15.921767
 30
0.0
 10
3.763325
 20
15.921767
 30
0.0
 10
1.302690
 20
15.921767
 30
0.0
 10
1.302690
 20
22.435215
 30
0.0
 10
1.302690
 20
28.948663
 30
0.0
 10
3.763325
 20
28.948663
 30
0.0
 10
6.223961
 20
28.948663
 30
0.0
 10
6.223961
 20
29.600008
 30
0.0
 10
6.223961
 20
30.251352
 30
0.0
 10
3.763325
 20
30.251352
 30
0.0
 10
1.302690
 20
30.251352
 30
0.0
 10
1.302690
 20
36.837172
 30
0.0
 10
1.302690
 20
43.422991
 30
0.0
 10
3.763325
 20
43.422991
 30
0.0
 10
6.223961
 20
43.422991
 30
0.0
 10
6.223961
 20
44.074336
 30
0.0
 10
6.223961
 20
44.725681
 30
0.0
 10
3.763325
 20
44.725681
 30
0.0
 10
1.302690
 20
44.725681
 30
0.0
 10
1.302690
 20
51.311500
 30
0.0
 10
1.302690
 20
57.897319
 30
0.0
 10
9.118827
 20
57.897319
 30
0.0
 10
16.934964
 20
57.897319
 30
0.0
 10
16.934964
 20
56.160400
 30
0.0
 10
16.934964
 20
54.423481
 30
0.0
 10
10.855746
 20
54.423481
 30
0.0
 10
4.776528
 20
54.423481
 30
0.0
 10
4.776528
 20
53.699764
 30
0.0
 10
4.776528
 20
52.976048
 30
0.0
 10
11.507091
 20
52.976048
 30
0.0
 10
18.237654
 20
52.976048
 30
0.0
 10
18.237654
 20
55.436684
 30
0.0
 10
18.237654
 20
57.897319
 30
0.0
 10
22.362837
 20
57.897319
 30
0.0
 10
26.488021
 20
57.897319
 30
0.0
 10
26.488021
 20
54.857710
 30
0.0
 10
26.488021
 20
51.818102
 30
0.0
 10
27.211737
 20
51.818102
 30
0.0
 10
27.935454
 20
51.818102
 30
0.0
 10
27.935454
 20
54.857710
 30
0.0
 10
27.935454
 20
57.897319
 30
0.0
 10
29.600001
 20
57.897319
 30
0.0
 10
31.264549
 20
57.897319
 30
0.0
 10
31.264549
 20
54.857710
 30
0.0
 10
31.264549
 20
51.818102
 30
0.0
 10
31.915894
 20
51.818102
 30
0.0
 10
32.567239
 20
51.818102
 30
0.0
 10
32.567239
 20
54.857710
 30
0.0
 10
32.567239
 20
57.897319
 30
0.0
 10
36.764794
 20
57.897319
 30
0.0
 10
40.962349
 20
57.897319
 30
0.0
 10
40.962349
 20
55.436684
 30
0.0
 10
40.962349
 20
52.976048
 30
0.0
 10
46.969195
 20
52.976048
 30
0.0
 10
52.976042
 20
52.976048
 30
0.0
 10
52.976042
 20
51.239128
 30
0.0
 10
52.976042
 20
49.502209
 30
0.0
 10
45.232276
 20
49.502209
 30
0.0
 10
37.488510
 20
49.502209
 30
0.0
 10
37.488510
 20
51.962845
 30
0.0
 10
37.488510
 20
54.423481
 30
0.0
 10
36.764794
 20
54.423481
 30
0.0
 10
36.041077
 20
54.423481
 30
0.0
 10
36.041077
 20
51.311500
 30
0.0
 10
36.041077
 20
48.199519
 30
0.0
 10
42.120295
 20
48.199519
 30
0.0
 10
48.199513
 20
48.199519
 30
0.0
 10
48.199513
 20
43.350620
 30
0.0
 10
48.199513
 20
38.501720
 30
0.0
 10
50.587777
 20
38.501720
 30
0.0
 10
52.976042
 20
38.501720
 30
0.0
 10
52.976042
 20
36.764800
 30
0.0
 10
52.976042
 20
35.027881
 30
0.0
 10
50.587777
 20
35.027881
 30
0.0
 10
48.199513
 20
35.027881
 30
0.0
 10
48.199513
 20
32.639617
 30
0.0
 10
48.199513
 20
30.251352
 30
0.0
 10
45.738877
 20
30.251352
 30
0.0
 10
43.278242
 20
30.251352
 30
0.0
 10
43.278242
 20
29.600008
 30
0.0
 10
43.278242
 20
28.948663
 30
0.0
 10
45.738877
 20
28.948663
 30
0.0
 10
48.199513
 20
28.948663
 30
0.0
 10
48.199513
 20
26.560399
 30
0.0
 10
48.199513
 20
24.172135
 30
0.0
 10
50.587777
 20
24.172135
 30
0.0
 10
52.976042
 20
24.172135
 30
0.0
 10
52.976042
 20
22.435215
 30
0.0
 10
52.976042
 20
20.698296
 30
0.0
 10
50.587777
 20
20.698296
 30
0.0
 10
48.199513
 20
20.698296
 30
0.0
 10
48.199513
 20
15.198051
 30
0.0
 10
48.199513
 20
9.697806
 30
0.0
 10
50.587777
 20
9.697806
 30
0.0
 10
52.976042
 20
9.697806
 30
0.0
 10
52.976042
 20
7.960887
 30
0.0
 10
52.976042
 20
6.223967
 30
0.0
 10
50.587777
 20
6.223967
 30
0.0
 10
48.199513
 20
6.223967
 30
0.0
 10
48.199513
 20
5.572623
 30
0.0
 10
48.199513
 20
4.921278
 30
0.0
 10
51.239122
 20
4.921278
 30
0.0
 10
54.278731
 20
4.921278
 30
0.0
 10
54.278731
 20
7.960887
 30
0.0
 10
54.278731
 20
11.000496
 30
0.0
 10
51.890467
 20
11.000496
 30
0.0
 10
49.502203
 20
11.000496
 30
0.0
 10
49.502203
 20
15.198051
 30
0.0
 10
49.502203
 20
19.395606
 30
0.0
 10
51.890467
 20
19.395606
 30
0.0
 10
54.278731
 20
19.395606
 30
0.0
 10
54.278731
 20
22.435215
 30
0.0
 10
54.278731
 20
25.474824
 30
0.0
 10
51.890467
 20
25.474824
 30
0.0
 10
49.502203
 20
25.474824
 30
0.0
 10
49.502203
 20
29.600008
 30
0.0
 10
49.502203
 20
33.725191
 30
0.0
 10
51.890467
 20
33.725191
 30
0.0
 10
54.278731
 20
33.725191
 30
0.0
 10
54.278731
 20
36.837172
 30
0.0
 10
54.278731
 20
39.949152
 30
0.0
 10
51.890467
 20
39.949152
 30
0.0
 10
49.502203
 20
39.949152
 30
0.0
 10
49.502203
 20
44.074336
 30
0.0
 10
49.502203
 20
48.199519
 30
0.0
 10
51.890467
 20
48.199519
 30
0.0
 10
54.278731
 20
48.199519
 30
0.0
 10
54.278731
 20
51.311500
 30
0.0
 10
54.278731
 20
54.423481
 30
0.0
 10
48.271885
 20
54.423481
 30
0.0
 10
42.265039
 20
54.423481
 30
0.0
 10
42.265039
 20
56.160400
 30
0.0
 10
42.265039
 20
57.897319
 30
0.0
 10
50.008804
 20
57.897319
 30
0.0
 10
57.752570
 20
57.897319
 30
0.0
 10
57.752570
 20
51.311500
 30
0.0
 10
57.752570
 20
44.725681
 30
0.0
 10
55.364306
 20
44.725681
 30
0.0
 10
52.976042
 20
44.725681
 30
0.0
 10
52.976042
 20
44.074336
 30
0.0
 10
52.976042
 20
43.422991
 30
0.0
 10
55.364306
 20
43.422991
 30
0.0
 10
57.752570
 20
43.422991
 30
0.0
 10
57.752570
 20
36.837172
 30
0.0
 10
57.752570
 20
30.251352
 30
0.0
 10
55.364306
 20
30.251352
 30
0.0
 10
52.976042
 20
30.251352
 30
0.0
 10
52.976042
 20
29.600008
 30
0.0
 10
52.976042
 20
28.948663
 30
0.0
 10
55.364306
 20
28.948663
 30
0.0
 10
57.752570
 20
28.948663
 30
0.0
 10
57.752570
 20
22.435215
 30
0.0
 10
57.752570
 20
15.921767
 30
0.0
 10
55.364306
 20
15.921767
 30
0.0
 10
52.976042
 20
15.921767
 30
0.0
 10
52.976042
 20
15.198051
 30
0.0
 10
52.976042
 20
14.474335
 30
0.0
 10
55.364306
 20
14.474335
 30
0.0
 10
57.752570
 20
14.474335
 30
0.0
 10
57.752570
 20
7.960887
 30
0.0
 10
57.752570
 20
1.447439
 30
0.0
 10
44.580931
 20
1.447439
 30
0.0
 10
31.409292
 20
1.447439
 30
0.0
 10
31.409292
 20
7.960887
 30
0.0
 10
31.409292
 20
14.474335
 30
0.0
 10
35.244989
 20
14.474335
 30
0.0
 10
39.080686
 20
14.474335
 30
0.0
 10
39.080686
 20
12.737415
 30
0.0
 10
39.080686
 20
11.000496
 30
0.0
 10
36.981909
 20
11.000496
 30
0.0
 10
34.883131
 20
11.000496
 30
0.0
 10
34.883131
 20
10.349151
 30
0.0
 10
34.883131
 20
9.697806
 30
0.0
 10
36.981909
 20
9.697806
 30
0.0
 10
39.080686
 20
9.697806
 30
0.0
 10
39.080686
 20
7.960887
 30
0.0
 10
39.080686
 20
6.223967
 30
0.0
 10
36.981909
 20
6.223967
 30
0.0
 10
34.883131
 20
6.223967
 30
0.0
 10
34.883131
 20
5.572623
 30
0.0
 10
34.883131
 20
4.921278
 30
0.0
 10
39.804403
 20
4.921278
 30
0.0
 10
44.725674
 20
4.921278
 30
0.0
 10
44.725674
 20
5.572623
 30
0.0
 10
44.725674
 20
6.223967
 30
0.0
 10
42.554525
 20
6.223967
 30
0.0
 10
40.383376
 20
6.223967
 30
0.0
 10
40.383376
 20
7.960887
 30
0.0
 10
40.383376
 20
9.697806
 30
0.0
 10
42.554525
 20
9.697806
 30
0.0
 10
44.725674
 20
9.697806
 30
0.0
 10
44.725674
 20
10.349151
 30
0.0
 10
44.725674
 20
11.000496
 30
0.0
 10
42.554525
 20
11.000496
 30
0.0
 10
40.383376
 20
11.000496
 30
0.0
 10
40.383376
 20
12.737415
 30
0.0
 10
40.383376
 20
14.474335
 30
0.0
 10
42.554525
 20
14.474335
 30
0.0
 10
44.725674
 20
14.474335
 30
0.0
 10
44.725674
 20
19.974579
 30
0.0
 10
44.725674
 20
25.474824
 30
0.0
 10
44.001958
 20
25.474824
 30
0.0
 10
43.278242
 20
25.474824
 30
0.0
 10
43.278242
 20
20.698296
 30
0.0
 10
43.278242
 20
15.921767
 30
0.0
 10
36.185821
 20
15.921767
 30
0.0
 10
29.093400
 20
15.921767
 30
0.0
 10
29.093400
 20
17.658687
 30
0.0
 10
29.093400
 20
19.395606
 30
0.0
 10
30.830319
 20
19.395606
 30
0.0
 10
32.567239
 20
19.395606
 30
0.0
 10
32.567239
 20
20.046951
 30
0.0
 10
32.567239
 20
20.698296
 30
0.0
 10
30.830319
 20
20.698296
 30
0.0
 10
29.093400
 20
20.698296
 30
0.0
 10
29.093400
 20
24.316878
 30
0.0
 10
29.093400
 20
27.935460
 30
0.0
 10
28.514427
 20
27.935460
 30
0.0
 10
27.935454
 20
27.935460
 30
0.0
 10
27.935454
 20
29.600008
 30
0.0
 10
27.935454
 20
31.264555
 30
0.0
 10
29.600001
 20
31.264555
 30
0.0
 10
31.264549
 20
31.264555
 30
0.0
 10
31.264549
 20
29.600008
 30
0.0
 10
31.264549
 20
27.935460
 30
0.0
 10
30.685576
 20
27.935460
 30
0.0
 10
30.106603
 20
27.935460
 30
0.0
 10
30.106603
 20
24.823479
 30
0.0
 10
30.106603
 20
21.711499
 30
0.0
 10
31.915894
 20
21.711499
 30
0.0
 10
33.725185
 20
21.711499
 30
0.0
 10
33.725185
 20
19.974579
 30
0.0
 10
33.725185
 20
18.237660
 30
0.0
 10
31.915894
 20
18.237660
 30
0.0
 10
30.106603
 20
18.237660
 30
0.0
 10
30.106603
 20
17.586315
 30
0.0
 10
30.106603
 20
16.934970
 30
0.0
 10
36.185821
 20
16.934970
 30
0.0
 10
42.265039
 20
16.934970
 30
0.0
 10
42.265039
 20
21.783870
 30
0.0
 10
42.265039
 20
26.632770
 30
0.0
 10
44.001958
 20
26.632770
 30
0.0
 10
45.738877
 20
26.632770
 30
0.0
 10
45.738877
 20
20.046951
 30
0.0
 10
45.738877
 20
13.461132
 30
0.0
 10
43.640100
 20
13.461132
 30
0.0
 10
41.541322
 20
13.461132
 30
0.0
 10
41.541322
 20
12.809787
 30
0.0
 10
41.541322
 20
12.158442
 30
0.0
 10
43.640100
 20
12.158442
 30
0.0
 10
45.738877
 20
12.158442
 30
0.0
 10
45.738877
 20
10.421523
 30
0.0
 10
45.738877
 20
8.684603
 30
0.0
 10
43.640100
 20
8.684603
 30
0.0
 10
41.541322
 20
8.684603
 30
0.0
 10
41.541322
 20
7.960887
 30
0.0
 10
41.541322
 20
7.237170
 30
0.0
 10
43.640100
 20
7.237170
 30
0.0
 10
45.738877
 20
7.237170
 30
0.0
 10
45.738877
 20
5.500251
 30
0.0
 10
45.738877
 20
3.763332
 30
0.0
 10
39.804403
 20
3.763332
 30
0.0
 10
33.869928
 20
3.763332
 30
0.0
 10
33.869928
 20
5.500251
 30
0.0
 10
33.869928
 20
7.237170
 30
0.0
 10
35.968706
 20
7.237170
 30
0.0
 10
38.067483
 20
7.237170
 30
0.0
 10
38.067483
 20
7.960887
 30
0.0
 10
38.067483
 20
8.684603
 30
0.0
 10
35.968706
 20
8.684603
 30
0.0
 10
33.869928
 20
8.684603
 30
0.0
 10
33.869928
 20
10.421523
 30
0.0
 10
33.869928
 20
12.158442
 30
0.0
 10
35.968706
 20
12.158442
 30
0.0
 10
38.067483
 20
12.158442
 30
0.0
 10
38.067483
 20
12.809787
 30
0.0
 10
38.067483
 20
13.461132
 30
0.0
 10
35.244989
 20
13.461132
 30
0.0
 10
32.422495
 20
13.461132
 30
0.0
 10
32.422495
 20
7.960887
 30
0.0
 10
32.422495
 20
2.460642
 30
0.0
 10
44.580931
 20
2.460642
 30
0.0
 10
56.739367
 20
2.460642
 30
0.0
 10
56.739367
 20
7.960887
 30
0.0
 10
56.739367
 20
13.461132
 30
0.0
 10
54.351103
 20
13.461132
 30
0.0
 10
51.962839
 20
13.461132
 30
0.0
 10
51.962839
 20
15.198051
 30
0.0
 10
51.962839
 20
16.934970
 30
0.0
 10
54.351103
 20
16.934970
 30
0.0
 10
56.739367
 20
16.934970
 30
0.0
 10
56.739367
 20
22.435215
 30
0.0
 10
56.739367
 20
27.935460
 30
0.0
 10
54.351103
 20
27.935460
 30
0.0
 10
51.962839
 20
27.935460
 30
0.0
 10
51.962839
 20
29.600008
 30
0.0
 10
51.962839
 20
31.264555
 30
0.0
 10
54.351103
 20
31.264555
 30
0.0
 10
56.739367
 20
31.264555
 30
0.0
 10
56.739367
 20
36.764800
 30
0.0
 10
56.739367
 20
42.265045
 30
0.0
 10
54.351103
 20
42.265045
 30
0.0
 10
51.962839
 20
42.265045
 30
0.0
 10
51.962839
 20
44.001964
 30
0.0
 10
51.962839
 20
45.738884
 30
0.0
 10
54.351103
 20
45.738884
 30
0.0
 10
56.739367
 20
45.738884
 30
0.0
 10
56.739367
 20
51.239128
 30
0.0
 10
56.739367
 20
56.739373
 30
0.0
 10
50.008804
 20
56.739373
 30
0.0
 10
43.278242
 20
56.739373
 30
0.0
 10
43.278242
 20
56.088028
 30
0.0
 10
43.278242
 20
55.436684
 30
0.0
 10
49.357459
 20
55.436684
 30
0.0
 10
55.436677
 20
55.436684
 30
0.0
 10
55.436677
 20
51.311500
 30
0.0
 10
55.436677
 20
47.186317
 30
0.0
 10
52.976042
 20
47.186317
 30
0.0
 10
50.515406
 20
47.186317
 30
0.0
 10
50.515406
 20
44.074336
 30
0.0
 10
50.515406
 20
40.962355
 30
0.0
 10
52.976042
 20
40.962355
 30
0.0
 10
55.436677
 20
40.962355
 30
0.0
 10
55.436677
 20
36.837172
 30
0.0
 10
55.436677
 20
32.711988
 30
0.0
 10
52.976042
 20
32.711988
 30
0.0
 10
50.515406
 20
32.711988
 30
0.0
 10
50.515406
 20
29.672379
 30
0.0
 10
50.515406
 20
26.632770
 30
0.0
 10
52.976042
 20
26.632770
 30
0.0
 10
55.436677
 20
26.632770
 30
0.0
 10
55.436677
 20
22.435215
 30
0.0
 10
55.436677
 20
18.237660
 30
0.0
 10
52.976042
 20
18.237660
 30
0.0
 10
50.515406
 20
18.237660
 30
0.0
 10
50.515406
 20
15.198051
 30
0.0
 10
50.515406
 20
12.158442
 30
0.0
 10
52.976042
 20
12.158442
 30
0.0
 10
55.436677
 20
12.158442
 30
0.0
 10
55.436677
 20
7.960887
 30
0.0
 10
55.436677
 20
3.763332
 30
0.0
 10
51.239122
 20
3.763332
 30
0.0
 10
47.041567
 20
3.763332
 30
0.0
 10
47.041567
 20
5.500251
 30
0.0
 10
47.041567
 20
7.237170
 30
0.0
 10
49.502203
 20
7.237170
 30
0.0
 10
51.962839
 20
7.237170
 30
0.0
 10
51.962839
 20
7.960887
 30
0.0
 10
51.962839
 20
8.684603
 30
0.0
 10
49.502203
 20
8.684603
 30
0.0
 10
47.041567
 20
8.684603
 30
0.0
 10
47.041567
 20
15.198051
 30
0.0
 10
47.041567
 20
21.711499
 30
0.0
 10
49.502203
 20
21.711499
 30
0.0
 10
51.962839
 20
21.711499
 30
0.0
 10
51.962839
 20
22.435215
 30
0.0
 10
51.962839
 20
23.158932
 30
0.0
 10
49.502203
 20
23.158932
 30
0.0
 10
47.041567
 20
23.158932
 30
0.0
 10
47.041567
 20
25.547196
 30
0.0
 10
47.041567
 20
27.935460
 30
0.0
 10
44.653303
 20
27.935460
 30
0.0
 10
42.265039
 20
27.935460
 30
0.0
 10
42.265039
 20
29.600008
 30
0.0
 10
42.265039
 20
31.264555
 30
0.0
 10
44.653303
 20
31.264555
 30
0.0
 10
47.041567
 20
31.264555
 30
0.0
 10
47.041567
 20
33.725191
 30
0.0
 10
47.041567
 20
36.185827
 30
0.0
 10
49.502203
 20
36.185827
 30
0.0
 10
51.962839
 20
36.185827
 30
0.0
 10
51.962839
 20
36.837172
 30
0.0
 10
51.962839
 20
37.488517
 30
0.0
 10
49.502203
 20
37.488517
 30
0.0
 10
47.041567
 20
37.488517
 30
0.0
 10
47.041567
 20
42.337417
 30
0.0
 10
47.041567
 20
47.186317
 30
0.0
 10
41.034721
 20
47.186317
 30
0.0
 10
35.027874
 20
47.186317
 30
0.0
 10
35.027874
 20
51.311500
 30
0.0
 10
35.027874
 20
55.436684
 30
0.0
 10
36.764794
 20
55.436684
 30
0.0
 10
38.501713
 20
55.436684
 30
0.0
 10
38.501713
 20
53.048419
 30
0.0
 10
38.501713
 20
50.660155
 30
0.0
 10
45.232276
 20
50.660155
 30
0.0
 10
51.962839
 20
50.660155
 30
0.0
 10
51.962839
 20
51.311500
 30
0.0
 10
51.962839
 20
51.962845
 30
0.0
 10
45.883621
 20
51.962845
 30
0.0
 10
39.804403
 20
51.962845
 30
0.0
 10
39.804403
 20
54.351109
 30
0.0
 10
39.804403
 20
56.739373
 30
0.0
 10
36.764794
 20
56.739373
 30
0.0
 10
33.725185
 20
56.739373
 30
0.0
 10
33.725185
 20
53.772136
 30
0.0
 10
33.725185
 20
50.804899
 30
0.0
 10
31.988266
 20
50.804899
 30
0.0
 10
30.251346
 20
50.804899
 30
0.0
 10
30.251346
 20
53.772136
 30
0.0
 10
30.251346
 20
56.739373
 30
0.0
 10
29.600001
 20
56.739373
 30
0.0
 10
28.948657
 20
56.739373
 30
0.0
 10
28.948657
 20
53.772136
 30
0.0
 10
28.948657
 20
50.804899
 30
0.0
 10
27.211737
 20
50.804899
 30
0.0
 10
25.474818
 20
50.804899
 30
0.0
 10
25.474818
 20
53.772136
 30
0.0
 10
25.474818
 20
56.739373
 30
0.0
 10
22.362837
 20
56.739373
 30
0.0
 10
19.250857
 20
56.739373
 30
0.0
 10
19.250857
 20
54.351109
 30
0.0
 10
19.250857
 20
51.962845
 30
0.0
 10
11.507091
 20
51.962845
 30
0.0
 10
3.763325
 20
51.962845
 30
0.0
 10
3.763325
 20
53.699764
 30
0.0
 10
3.763325
 20
55.436684
 30
0.0
 10
9.770172
 20
55.436684
 30
0.0
 10
15.777018
 20
55.436684
 30
0.0
 10
15.777018
 20
56.088028
 30
0.0
 10
15.777018
 20
56.739373
 30
0.0
 10
9.118827
 20
56.739373
 30
0.0
 10
2.460636
 20
56.739373
 30
0.0
 10
2.460636
 20
51.239128
 30
0.0
 10
2.460636
 20
45.738884
 30
0.0
 10
4.848900
 20
45.738884
 30
0.0
 10
7.237164
 20
45.738884
 30
0.0
 10
7.237164
 20
44.001964
 30
0.0
 10
7.237164
 20
42.265045
 30
0.0
 10
4.848900
 20
42.265045
 30
0.0
 10
2.460636
 20
42.265045
 30
0.0
 10
2.460636
 20
36.764800
 30
0.0
 10
2.460636
 20
31.264555
 30
0.0
 10
4.848900
 20
31.264555
 30
0.0
 10
7.237164
 20
31.264555
 30
0.0
 10
7.237164
 20
29.600008
 30
0.0
 10
7.237164
 20
27.935460
 30
0.0
 10
4.848900
 20
27.935460
 30
0.0
 10
2.460636
 20
27.935460
 30
0.0
 10
2.460636
 20
22.435215
 30
0.0
 10
2.460636
 20
16.934970
 30
0.0
 10
4.848900
 20
16.934970
 30
0.0
 10
7.237164
 20
16.934970
 30
0.0
 10
7.237164
 20
15.198051
 30
0.0
 10
7.237164
 20
13.461132
 30
0.0
 10
4.848900
 20
13.461132
 30
0.0
 10
2.460636
 20
13.461132
 30
0.0
 10
2.460636
 20
7.960887
 30
0.0
 10
2.460636
 20
2.460642
 30
0.0
 10
7.309536
 20
2.460642
 30
0.0
 10
12.158436
 20
2.460642
 30
0.0
 10
12.158436
 20
3.111987
 30
0.0
 10
12.158436
 20
3.763332
 30
0.0
 10
7.960881
 20
3.763332
 30
0.0
 10
3.763325
 20
3.763332
 30
0.0
 10
3.763325
 20
5.500251
 30
0.0
 10
3.763325
 20
7.237170
 30
0.0
 10
7.960881
 20
7.237170
 30
0.0
 10
12.158436
 20
7.237170
 30
0.0
 10
12.158436
 20
7.960887
 30
0.0
 10
12.158436
 20
8.684603
 30
0.0
 10
7.960881
 20
8.684603
 30
0.0
 10
3.763325
 20
8.684603
 30
0.0
 10
3.763325
 20
10.421523
 30
0.0
 10
3.763325
 20
12.158442
 30
0.0
 10
6.151590
 20
12.158442
 30
0.0
 10
8.539854
 20
12.158442
 30
0.0
 10
8.539854
 20
15.198051
 30
0.0
 10
8.539854
 20
18.237660
 30
0.0
 10
6.151590
 20
18.237660
 30
0.0
 10
3.763325
 20
18.237660
 30
0.0
 10
3.763325
 20
22.435215
 30
0.0
 10
3.763325
 20
26.632770
 30
0.0
 10
6.151590
 20
26.632770
 30
0.0
 10
8.539854
 20
26.632770
 30
0.0
 10
8.539854
 20
29.672379
 30
0.0
 10
8.539854
 20
32.711988
 30
0.0
 10
6.151590
 20
32.711988
 30
0.0
 10
3.763325
 20
32.711988
 30
0.0
 10
3.763325
 20
36.837172
 30
0.0
 10
3.763325
 20
40.962355
 30
0.0
 10
6.151590
 20
40.962355
 30
0.0
 10
8.539854
 20
40.962355
 30
0.0
 10
8.539854
 20
44.074336
 30
0.0
 10
8.539854
 20
47.186317
 30
0.0
 10
6.151590
 20
47.186317
 30
0.0
 10
3.763325
 20
47.186317
 30
0.0
 10
3.763325
 20
48.923236
 30
0.0
 10
3.763325
 20
50.660155
 30
0.0
 10
12.230807
 20
50.660155
 30
0.0
 10
20.698289
 20
50.660155
 30
0.0
 10
20.698289
 20
53.048419
 30
0.0
 10
20.698289
 20
55.436684
 30
0.0
 10
22.435209
 20
55.436684
 30
0.0
 10
24.172128
 20
55.436684
 30
0.0
 10
24.172128
 20
51.311500
 30
0.0
 10
24.172128
 20
47.186317
 30
0.0
 10
18.092910
 20
47.186317
 30
0.0
 10
12.013692
 20
47.186317
 30
0.0
 10
12.013692
 20
42.337417
 30
0.0
 10
12.013692
 20
37.488517
 30
0.0
 10
9.625428
 20
37.488517
 30
0.0
 10
7.237164
 20
37.488517
 30
0.0
 10
7.237164
 20
36.837172
 30
0.0
 10
7.237164
 20
36.185827
 30
0.0
 10
10.349145
 20
36.185827
 30
0.0
 10
13.461125
 20
36.185827
 30
0.0
 10
13.461125
 20
40.962355
 30
0.0
 10
13.461125
 20
45.738884
 30
0.0
 10
19.467972
 20
45.738884
 30
0.0
 10
25.474818
 20
45.738884
 30
0.0
 10
25.474818
 20
47.548175
 30
0.0
 10
25.474818
 20
49.357466
 30
0.0
 10
29.600001
 20
49.357466
 30
0.0
 10
33.725185
 20
49.357466
 30
0.0
 10
33.725185
 20
47.548175
 30
0.0
 10
33.725185
 20
45.738884
 30
0.0
 10
39.732031
 20
45.738884
 30
0.0
 10
45.738877
 20
45.738884
 30
0.0
 10
45.738877
 20
39.225436
 30
0.0
 10
45.738877
 20
32.711988
 30
0.0
 10
44.001958
 20
32.711988
 30
0.0
 10
42.265039
 20
32.711988
 30
0.0
 10
42.265039
 20
37.488517
 30
0.0
 10
42.265039
 20
42.265045
 30
0.0
 10
39.804403
 20
42.265045
 30
0.0
 10
37.343767
 20
42.265045
 30
0.0
 10
37.343767
 20
41.613700
 30
0.0
 10
37.343767
 20
40.962355
 30
0.0
 10
39.153058
 20
40.962355
 30
0.0
 10
40.962349
 20
40.962355
 30
0.0
 10
40.962349
 20
35.606854
 30
0.0
 10
40.962349
 20
30.251352
 30
0.0
 10
38.501713
 20
30.251352
 30
0.0
 10
36.041077
 20
30.251352
 30
0.0
 10
36.041077
 20
29.600008
 30
0.0
 10
36.041077
 20
28.948663
 30
0.0
 10
38.501713
 20
28.948663
 30
0.0
 10
40.962349
 20
28.948663
 30
0.0
 10
40.962349
 20
23.593161
 30
0.0
 10
40.962349
 20
18.237660
 30
0.0
 10
37.995112
 20
18.237660
 30
0.0
 10
35.027874
 20
18.237660
 30
0.0
 10
35.027874
 20
19.974579
 30
0.0
 10
35.027874
 20
21.711499
 30
0.0
 10
36.258192
 20
21.711499
 30
0.0
 10
37.488510
 20
21.711499
 30
0.0
 10
37.488510
 20
23.593161
 30
0.0
 10
37.488510
 20
25.474824
 30
0.0
 10
36.764794
 20
25.474824
 30
0.0
 10
36.041077
 20
25.474824
 30
0.0
 10
36.041077
 20
24.316878
 30
0.0
 10
36.041077
 20
23.158932
 30
0.0
 10
33.725185
 20
23.158932
 30
0.0
 10
31.409292
 20
23.158932
 30
0.0
 10
31.409292
 20
24.895851
 30
0.0
 10
31.409292
 20
26.632770
 30
0.0
 10
31.988266
 20
26.632770
 30
0.0
 10
32.567239
 20
26.632770
 30
0.0
 10
32.567239
 20
29.672379
 30
0.0
 10
32.567239
 20
32.711988
 30
0.0
 10
31.409292
 20
32.711988
 30
0.0
 10
30.251346
 20
32.711988
 30
0.0
 10
30.251346
 20
34.448908
 30
0.0
 10
30.251346
 20
36.185827
 30
0.0
 10
33.146212
 20
36.185827
 30
0.0
 10
36.041077
 20
36.185827
 30
0.0
 10
36.041077
 20
34.955509
 30
0.0
 10
36.041077
 20
33.725191
 30
0.0
 10
36.764794
 20
33.725191
 30
0.0
 10
37.488510
 20
33.725191
 30
0.0
 10
37.488510
 20
35.606854
 30
0.0
 10
37.488510
 20
37.488517
 30
0.0
 10
33.869928
 20
37.488517
 30
0.0
 10
30.251346
 20
37.488517
 30
0.0
 10
30.251346
 20
39.225436
 30
0.0
 10
30.251346
 20
40.962355
 30
0.0
 10
32.060637
 20
40.962355
 30
0.0
 10
33.869928
 20
40.962355
 30
0.0
 10
33.869928
 20
41.613700
 30
0.0
 10
33.869928
 20
42.265045
 30
0.0
 10
32.060637
 20
42.265045
 30
0.0
 10
30.251346
 20
42.265045
 30
0.0
 10
30.251346
 20
44.074336
 30
0.0
 10
30.251346
 20
45.883627
 30
0.0
 10
29.600001
 20
45.883627
 30
0.0
 10
28.948657
 20
45.883627
 30
0.0
 10
28.948657
 20
44.074336
 30
0.0
 10
28.948657
 20
42.265045
 30
0.0
 10
27.139366
 20
42.265045
 30
0.0
 10
25.330075
 20
42.265045
 30
0.0
 10
25.330075
 20
41.613700
 30
0.0
 10
25.330075
 20
40.962355
 30
0.0
 10
27.139366
 20
40.962355
 30
0.0
 10
28.948657
 20
40.962355
 30
0.0
 10
28.948657
 20
39.225436
 30
0.0
 10
28.948657
 20
37.488517
 30
0.0
 10
25.330075
 20
37.488517
 30
0.0
 10
21.711492
 20
37.488517
 30
0.0
 10
21.711492
 20
35.100252
 30
0.0
 10
21.711492
 20
32.711988
 30
0.0
 10
19.974573
 20
32.711988
 30
0.0
 10
18.237654
 20
32.711988
 30
0.0
 10
18.237654
 20
36.837172
 30
0.0
 10
18.237654
 20
40.962355
 30
0.0
 10
20.046945
 20
40.962355
 30
0.0
 10
21.856236
 20
40.962355
 30
0.0
 10
21.856236
 20
41.613700
 30
0.0
 10
21.856236
 20
42.265045
 30
0.0
 10
19.395600
 20
42.265045
 30
0.0
 10
16.934964
 20
42.265045
 30
0.0
 10
16.934964
 20
37.488517
 30
0.0
 10
16.934964
 20
32.711988
 30
0.0
 10
14.474328
 20
32.711988
 30
0.0
 10
12.013692
 20
32.711988
 30
0.0
 10
12.013692
 20
31.988272
 30
0.0
 10
12.013692
 20
31.264555
 30
0.0
 10
14.474328
 20
31.264555
 30
0.0
 10
16.934964
 20
31.264555
 30
0.0
 10
16.934964
 20
29.600008
 30
0.0
 10
16.934964
 20
27.935460
 30
0.0
 10
14.474328
 20
27.935460
 30
0.0
 10
12.013692
 20
27.935460
 30
0.0
 10
12.013692
 20
27.284115
 30
0.0
 10
12.013692
 20
26.632770
 30
0.0
 10
14.474328
 20
26.632770
 30
0.0
 10
16.934964
 20
26.632770
 30
0.0
 10
16.934964
 20
21.783870
 30
0.0
 10
16.934964
 20
16.934970
 30
0.0
 10
20.625918
 20
16.934970
 30
0.0
 10
24.316872
 20
16.934970
 30
0.0
 10
24.316872
 20
17.586315
 30
0.0
 10
24.316872
 20
18.237660
 30
0.0
 10
21.277263
 20
18.237660
 30
0.0
 10
18.237654
 20
18.237660
 30
0.0
 10
18.237654
 20
22.435215
 30
0.0
 10
18.237654
 20
26.632770
 30
0.0
 10
19.974573
 20
26.632770
 30
0.0
 10
21.711492
 20
26.632770
 30
0.0
 10
21.711492
 20
24.172135
 30
0.0
 10
21.711492
 20
21.711499
 30
0.0
 10
23.014182
 20
21.711499
 30
0.0
 10
24.316872
 20
21.711499
 30
0.0
 10
24.316872
 20
22.435215
 30
0.0
 10
24.316872
 20
23.158932
 30
0.0
 10
23.665527
 20
23.158932
 30
0.0
 10
23.014182
 20
23.158932
 30
0.0
 10
23.014182
 20
25.547196
 30
0.0
 10
23.014182
 20
27.935460
 30
0.0
 10
20.625918
 20
27.935460
 30
0.0
 10
18.237654
 20
27.935460
 30
0.0
 10
18.237654
 20
29.600008
 30
0.0
 10
18.237654
 20
31.264555
 30
0.0
 10
20.625918
 20
31.264555
 30
0.0
 10
23.014182
 20
31.264555
 30
0.0
 10
23.014182
 20
33.725191
 30
0.0
 10
23.014182
 20
36.185827
 30
0.0
 10
25.981419
 20
36.185827
 30
0.0
 10
28.948657
 20
36.185827
 30
0.0
 10
28.948657
 20
34.448908
 30
0.0
 10
28.948657
 20
32.711988
 30
0.0
 10
27.718339
 20
32.711988
 30
0.0
 10
26.488021
 20
32.711988
 30
0.0
 10
26.488021
 20
29.672379
 30
0.0
 10
26.488021
 20
26.632770
 30
0.0
 10
27.139366
 20
26.632770
 30
0.0
 10
27.790710
 20
26.632770
 30
0.0
 10
27.790710
 20
20.046951
 30
0.0
 10
27.790710
 20
13.461132
 30
0.0
 10
20.625918
 20
13.461132
 30
0.0
 10
13.461125
 20
13.461132
 30
0.0
 10
13.461125
 20
18.310032
 30
0.0
 10
13.461125
 20
23.158932
 30
0.0
 10
10.349145
 20
23.158932
 30
0.0
 10
7.237164
 20
23.158932
 30
0.0
 10
7.237164
 20
22.435215
 30
0.0
 10
7.237164
 20
21.711499
 30
0.0
 10
9.625428
 20
21.711499
 30
0.0
 10
12.013692
 20
21.711499
 30
0.0
 10
12.013692
 20
16.934970
 30
0.0
 10
12.013692
 20
12.158442
 30
0.0
 10
16.283619
 20
12.158442
 30
0.0
 10
20.553546
 20
12.158442
 30
0.0
 10
20.553546
 20
10.421523
 30
0.0
 10
20.553546
 20
8.684603
 30
0.0
 10
18.092910
 20
8.684603
 30
0.0
 10
15.632275
 20
8.684603
 30
0.0
 10
15.632275
 20
7.960887
 30
0.0
 10
15.632275
 20
7.237170
 30
0.0
 10
18.092910
 20
7.237170
 30
0.0
 10
20.553546
 20
7.237170
 30
0.0
 10
20.553546
 20
5.500251
 30
0.0
 10
20.553546
 20
3.763332
 30
0.0
 10
18.092910
 20
3.763332
 30
0.0
 10
15.632275
 20
3.763332
 30
0.0
 10
15.632275
 20
3.111987
 30
0.0
 10
15.632275
 20
2.460642
 30
0.0
 10
21.132519
 20
2.460642
 30
0.0
 10
26.632764
 20
2.460642
 30
0.0
 10
26.632764
 20
3.111987
 30
0.0
 10
26.632764
 20
3.763332
 30
0.0
 10
24.244500
 20
3.763332
 30
0.0
 10
21.856236
 20
3.763332
 30
0.0
 10
21.856236
 20
5.500251
 30
0.0
 10
21.856236
 20
7.237170
 30
0.0
 10
24.244500
 20
7.237170
 30
0.0
 10
26.632764
 20
7.237170
 30
0.0
 10
26.632764
 20
7.960887
 30
0.0
 10
26.632764
 20
8.684603
 30
0.0
 10
24.244500
 20
8.684603
 30
0.0
 10
21.856236
 20
8.684603
 30
0.0
 10
21.856236
 20
10.421523
 30
0.0
 10
21.856236
 20
12.158442
 30
0.0
 10
25.981419
 20
12.158442
 30
0.0
 10
30.106603
 20
12.158442
 30
0.0
 10
30.106603
 20
6.079224
 30
0.0
 10
30.106603
 20
0.000006
 30
0.0
 10
44.653303
 20
0.000006
 30
0.0
 10
59.200003
 20
0.000006
 30
0.0
 10
59.200003
 20
29.600008
 30
0.0
 10
59.200003
 20
59.200009
 30
0.0
 10
29.600001
 20
59.200009
 30
0.0
 10
0.000000
 20
59.200009
 30
0.0
 10
0.000000
 20
29.600008
 30
0.0
 10
0.000000
 20
29.600008
 30
0.0
  0
LWPOLYLINE
  5
101
100
AcDbEntity
  8
0
 62
7
100
AcDbPolyline
 90
26
 70
0
 10
68.690717
 20
7.916105
 30
0.0
 10
68.611695
 20
7.291829
 30
0.0
 10
68.350921
 20
6.722869
 30
0.0
 10
68.119781
 20
6.473949
 30
0.0
 10
67.805668
 20
6.280345
 30
0.0
 10
67.408581
 20
6.155885
 30
0.0
 10
66.944326
 20
6.114398
 30
0.0
 10
66.375366
 20
6.114398
 30
0.0
 10
66.375366
 20
7.299732
 30
0.0
 10
66.928521
 20
7.299732
 30
0.0
 10
67.270292
 20
7.337267
 30
0.0
 10
67.505384
 20
7.449874
 30
0.0
 10
67.635770
 20
7.647429
 30
0.0
 10
67.679232
 20
7.939812
 30
0.0
 10
67.635770
 20
8.212438
 30
0.0
 10
67.505384
 20
8.413945
 30
0.0
 10
67.293999
 20
8.538405
 30
0.0
 10
67.007544
 20
8.579891
 30
0.0
 10
62.748245
 20
8.579891
 30
0.0
 10
62.748245
 20
9.765225
 30
0.0
 10
67.007544
 20
9.765225
 30
0.0
 10
67.722695
 20
9.644716
 30
0.0
 10
68.256095
 20
9.283189
 30
0.0
 10
68.582061
 20
8.700400
 30
0.0
 10
68.690717
 20
7.916105
 30
0.0
 10
68.690717
 20
7.916105
 30
0.0
  0
LWPOLYLINE
  5
102
100
AcDbEntity
  8
0
 62
7
100
AcDbPolyline
 90
26
 70
0
 10
64.170645
 20
12.817579
 30
0.0
 10
64.322763
 20
13.708555
 30
0.0
 10
64.512910
 20
14.069587
 30
0.0
 10
64.779117
 20
14.374317
 30
0.0
 10
65.109528
 20
14.619779
 30
0.0
 10
65.500194
 20
14.795110
 30
0.0
 10
66.462290
 20
14.935374
 30
0.0
 10
67.382899
 20
14.793134
 30
0.0
 10
67.763194
 20
14.615334
 30
0.0
 10
68.090148
 20
14.366414
 30
0.0
 10
68.352897
 20
14.056746
 30
0.0
 10
68.540575
 20
13.696701
 30
0.0
 10
68.690717
 20
12.825481
 30
0.0
 10
68.540575
 20
11.944384
 30
0.0
 10
68.352897
 20
11.583845
 30
0.0
 10
68.090148
 20
11.276646
 30
0.0
 10
67.758255
 20
11.031183
 30
0.0
 10
67.371046
 20
10.855853
 30
0.0
 10
66.430681
 20
10.715588
 30
0.0
 10
65.492292
 20
10.855853
 30
0.0
 10
65.107553
 20
11.031183
 30
0.0
 10
64.779117
 20
11.276646
 30
0.0
 10
64.512910
 20
11.583351
 30
0.0
 10
64.322763
 20
11.942408
 30
0.0
 10
64.170645
 20
12.817579
 30
0.0
 10
64.170645
 20
12.817579
 30
0.0
  0
LWPOLYLINE
  5
103
100
AcDbEntity
  8
0
 62
7
100
AcDbPolyline
 90
18
 70
0
 10
65.063597
 20
12.825481
 30
0.0
 10
65.158423
 20
12.418517
 30
0.0
 10
65.442903
 20
12.098477
 30
0.0
 10
65.879501
 20
11.891044
 30
0.0
 10
66.430681
 20
11.821899
 30
0.0
 10
66.981861
 20
11.891044
 30
0.0
 10
67.418459
 20
12.098477
 30
0.0
 10
67.702939
 20
12.418517
 30
0.0
 10
67.797766
 20
12.825481
 30
0.0
 10
67.704915
 20
13.226519
 30
0.0
 10
67.426361
 20
13.544583
 30
0.0
 10
66.991739
 20
13.757943
 30
0.0
 10
66.446486
 20
13.829063
 30
0.0
 10
65.879501
 20
13.759919
 30
0.0
 10
65.442903
 20
13.552486
 30
0.0
 10
65.158423
 20
13.236397
 30
0.0
 10
65.063597
 20
12.825481
 30
0.0
 10
65.063597
 20
12.825481
 30
0.0
  0
LWPOLYLINE
  5
104
100
AcDbEntity
  8
0
 62
7
100
AcDbPolyline
 90
25
 70
0
 10
68.714424
 20
16.913151
 30
0.0
 10
68.682815
 20
16.913151
 30
0.0
 10
64.241765
 20
15.324804
 30
0.0
 10
64.241765
 20
16.541746
 30
0.0
 10
67.347339
 20
17.482111
 30
0.0
 10
64.241765
 20
18.367160
 30
0.0
 10
64.241765
 20
19.505080
 30
0.0
 10
69.291286
 20
17.750786
 30
0.0
 10
69.394015
 20
17.719177
 30
0.0
 10
69.528353
 20
17.663862
 30
0.0
 10
69.662690
 20
17.600644
 30
0.0
 10
69.804930
 20
17.513720
 30
0.0
 10
69.931366
 20
17.387284
 30
0.0
 10
70.057802
 20
17.205533
 30
0.0
 10
70.152628
 20
16.984271
 30
0.0
 10
70.215846
 20
16.691889
 30
0.0
 10
70.239553
 20
16.328386
 30
0.0
 10
70.207944
 20
15.933275
 30
0.0
 10
69.378210
 20
15.933275
 30
0.0
 10
69.425624
 20
16.225658
 30
0.0
 10
69.374259
 20
16.494333
 30
0.0
 10
69.220166
 20
16.715595
 30
0.0
 10
68.991001
 20
16.863762
 30
0.0
 10
68.714424
 20
16.913151
 30
0.0
 10
68.714424
 20
16.913151
 30
0.0
  0
LWPOLYLINE
  5
105
100
AcDbEntity
  8
0
 62
7
100
AcDbPolyline
 90
32
 70
0
 10
64.170645
 20
21.874388
 30
0.0
 10
64.233863
 20
22.411740
 30
0.0
 10
64.463028
 20
22.941188
 30
0.0
 10
64.889748
 20
23.415322
 30
0.0
 10
65.569339
 20
23.747215
 30
0.0
 10
66.533410
 20
23.873650
 30
0.0
 10
66.723063
 20
23.865748
 30
0.0
 10
66.723063
 20
21.005144
 30
0.0
 10
67.149784
 20
21.044655
 30
0.0
 10
67.497481
 20
21.171091
 30
0.0
 10
67.758255
 20
21.439766
 30
0.0
 10
67.845179
 20
21.890193
 30
0.0
 10
67.710841
 20
22.417666
 30
0.0
 10
67.307828
 20
22.735731
 30
0.0
 10
67.307828
 20
23.826237
 30
0.0
 10
67.876788
 20
23.555586
 30
0.0
 10
68.319313
 20
23.107135
 30
0.0
 10
68.597866
 20
22.524346
 30
0.0
 10
68.690717
 20
21.850682
 30
0.0
 10
68.544526
 20
21.038729
 30
0.0
 10
68.361787
 20
20.705354
 30
0.0
 10
68.105952
 20
20.420380
 30
0.0
 10
67.404630
 20
20.029220
 30
0.0
 10
66.485997
 20
19.898833
 30
0.0
 10
65.525877
 20
20.031195
 30
0.0
 10
65.131753
 20
20.196648
 30
0.0
 10
64.794921
 20
20.428282
 30
0.0
 10
64.521800
 20
20.717207
 30
0.0
 10
64.326714
 20
21.054533
 30
0.0
 10
64.209663
 20
21.440260
 30
0.0
 10
64.170645
 20
21.874388
 30
0.0
 10
64.170645
 20
21.874388
 30
0.0
  0
LWPOLYLINE
  5
106
100
AcDbEntity
  8
0
 62
7
100
AcDbPolyline
 90
11
 70
0
 10
65.988157
 20
22.719926
 30
0.0
 10
65.575266
 20
22.634977
 30
0.0
 10
65.269054
 20
22.459153
 30
0.0
 10
65.079401
 20
22.202331
 30
0.0
 10
65.016183
 20
21.858584
 30
0.0
 10
65.076932
 20
21.533605
 30
0.0
 10
65.259177
 20
21.285673
 30
0.0
 10
65.562918
 20
21.114787
 30
0.0
 10
65.988157
 20
21.020949
 30
0.0
 10
65.988157
 20
22.719926
 30
0.0
 10
65.988157
 20
22.719926
 30
0.0
  0
LWPOLYLINE
  5
107
100
AcDbEntity
  8
0
 62
7
100
AcDbPolyline
 90
26
 70
0
 10
68.508966
 20
28.527935
 30
0.0
 10
68.508966
 20
27.421624
 30
0.0
 10
68.003224
 20
27.421624
 30
0.0
 10
68.304002
 20
27.169740
 30
0.0
 10
68.518844
 20
26.872419
 30
0.0
 10
68.647749
 20
26.529660
 30
0.0
 10
68.690717
 20
26.141464
 30
0.0
 10
68.593915
 20
25.536944
 30
0.0
 10
68.303508
 20
25.082566
 30
0.0
 10
67.837277
 20
24.804013
 30
0.0
 10
67.213001
 20
24.711162
 30
0.0
 10
64.241765
 20
24.711162
 30
0.0
 10
64.241765
 20
25.817473
 30
0.0
 10
66.983837
 20
25.817473
 30
0.0
 10
67.319187
 20
25.861923
 30
0.0
 10
67.558724
 20
25.995273
 30
0.0
 10
67.702445
 20
26.217523
 30
0.0
 10
67.750352
 20
26.528673
 30
0.0
 10
67.693061
 20
26.892175
 30
0.0
 10
67.521188
 20
27.176655
 30
0.0
 10
67.254488
 20
27.360381
 30
0.0
 10
66.912717
 20
27.421624
 30
0.0
 10
64.241765
 20
27.421624
 30
0.0
 10
64.241765
 20
28.527935
 30
0.0
 10
68.508966
 20
28.527935
 30
0.0
 10
68.508966
 20
28.527935
 30
0.0
  0
LWPOLYLINE
  5
108
100
AcDbEntity
  8
0
 62
7
100
AcDbPolyline
 90
14
 70
0
 10
66.359561
 20
31.841188
 30
0.0
 10
68.508966
 20
33.263588
 30
0.0
 10
68.508966
 20
31.936015
 30
0.0
 10
67.181392
 20
31.216912
 30
0.0
 10
68.508966
 20
30.489910
 30
0.0
 10
68.508966
 20
29.162336
 30
0.0
 10
66.359561
 20
30.584736
 30
0.0
 10
64.241765
 20
29.193945
 30
0.0
 10
64.241765
 20
30.521518
 30
0.0
 10
65.529828
 20
31.216912
 30
0.0
 10
64.241765
 20
31.904406
 30
0.0
 10
64.241765
 20
33.231979
 30
0.0
 10
66.359561
 20
31.841188
 30
0.0
 10
66.359561
 20
31.841188
 30
0.0
  0
LWPOLYLINE
  5
109
100
AcDbEntity
  8
0
 62
7
100
AcDbPolyline
 90
12
 70
0
 10
68.508966
 20
39.705256
 30
0.0
 10
64.526245
 20
37.389906
 30
0.0
 10
68.508966
 20
37.389906
 30
0.0
 10
68.508966
 20
36.204573
 30
0.0
 10
62.748245
 20
36.204573
 30
0.0
 10
62.748245
 20
37.421515
 30
0.0
 10
66.667748
 20
39.705256
 30
0.0
 10
62.748245
 20
39.705256
 30
0.0
 10
62.748245
 20
40.890590
 30
0.0
 10
68.508966
 20
40.890590
 30
0.0
 10
68.508966
 20
39.705256
 30
0.0
 10
68.508966
 20
39.705256
 30
0.0
  0
LWPOLYLINE
  5
10a
100
AcDbEntity
  8
0
 62
7
100
AcDbPolyline
 90
26
 70
0
 10
64.170645
 20
43.948006
 30
0.0
 10
64.322763
 20
44.838982
 30
0.0
 10
64.512910
 20
45.200015
 30
0.0
 10
64.779117
 20
45.504744
 30
0.0
 10
65.109528
 20
45.750207
 30
0.0
 10
65.500194
 20
45.925537
 30
0.0
 10
66.462290
 20
46.065802
 30
0.0
 10
67.382899
 20
45.923562
 30
0.0
 10
67.763194
 20
45.745762
 30
0.0
 10
68.090148
 20
45.496842
 30
0.0
 10
68.352897
 20
45.187174
 30
0.0
 10
68.540575
 20
44.827129
 30
0.0
 10
68.690717
 20
43.955909
 30
0.0
 10
68.540575
 20
43.074811
 30
0.0
 10
68.352897
 20
42.714272
 30
0.0
 10
68.090148
 20
42.407074
 30
0.0
 10
67.758255
 20
42.161611
 30
0.0
 10
67.371046
 20
41.986280
 30
0.0
 10
66.430681
 20
41.846016
 30
0.0
 10
65.492292
 20
41.986280
 30
0.0
 10
65.107553
 20
42.161611
 30
0.0
 10
64.779117
 20
42.407074
 30
0.0
 10
64.512910
 20
42.713779
 30
0.0
 10
64.322763
 20
43.072836
 30
0.0
 10
64.170645
 20
43.948006
 30
0.0
 10
64.170645
 20
43.948006
 30
0.0
  0
LWPOLYLINE
  5
10b
100
AcDbEntity
  8
0
 62
7
100
AcDbPolyline
 90
18
 70
0
 10
65.063597
 20
43.955909
 30
0.0
 10
65.158423
 20
43.548944
 30
0.0
 10
65.442903
 20
43.228904
 30
0.0
 10
65.879501
 20
43.021471
 30
0.0
 10
66.430681
 20
42.952327
 30
0.0
 10
66.981861
 20
43.021471
 30
0.0
 10
67.418459
 20
43.228904
 30
0.0
 10
67.702939
 20
43.548944
 30
0.0
 10
67.797766
 20
43.955909
 30
0.0
 10
67.704915
 20
44.356946
 30
0.0
 10
67.426361
 20
44.675011
 30
0.0
 10
66.991739
 20
44.888371
 30
0.0
 10
66.446486
 20
44.959491
 30
0.0
 10
65.879501
 20
44.890346
 30
0.0
 10
65.442903
 20
44.682913
 30
0.0
 10
65.158423
 20
44.366824
 30
0.0
 10
65.063597
 20
43.955909
 30
0.0
 10
65.063597
 20
43.955909
 30
0.0
  0
LWPOLYLINE
  5
10c
100
AcDbEntity
  8
0
 62
7
100
AcDbPolyline
 90
32
 70
0
 10
64.170645
 20
48.667855
 30
0.0
 10
64.233863
 20
49.205206
 30
0.0
 10
64.463028
 20
49.734655
 30
0.0
 10
64.889748
 20
50.208788
 30
0.0
 10
65.569339
 20
50.540682
 30
0.0
 10
66.533410
 20
50.667117
 30
0.0
 10
66.723063
 20
50.659215
 30
0.0
 10
66.723063
 20
47.798611
 30
0.0
 10
67.149784
 20
47.838122
 30
0.0
 10
67.497481
 20
47.964557
 30
0.0
 10
67.758255
 20
48.233233
 30
0.0
 10
67.845179
 20
48.683660
 30
0.0
 10
67.710841
 20
49.211133
 30
0.0
 10
67.307828
 20
49.529197
 30
0.0
 10
67.307828
 20
50.619704
 30
0.0
 10
67.876788
 20
50.349053
 30
0.0
 10
68.319313
 20
49.900602
 30
0.0
 10
68.597866
 20
49.317813
 30
0.0
 10
68.690717
 20
48.644148
 30
0.0
 10
68.544526
 20
47.832195
 30
0.0
 10
68.361787
 20
47.498821
 30
0.0
 10
68.105952
 20
47.213847
 30
0.0
 10
67.404630
 20
46.822687
 30
0.0
 10
66.485997
 20
46.692300
 30
0.0
 10
65.525877
 20
46.824662
 30
0.0
 10
65.131753
 20
46.990115
 30
0.0
 10
64.794921
 20
47.221749
 30
0.0
 10
64.521800
 20
47.510674
 30
0.0
 10
64.326714
 20
47.848000
 30
0.0
 10
64.209663
 20
48.233727
 30
0.0
 10
64.170645
 20
48.667855
 30
0.0
 10
64.170645
 20
48.667855
 30
0.0
  0
LWPOLYLINE
  5
10d
100
AcDbEntity
  8
0
 62
7
100
AcDbPolyline
 90
11
 70
0
 10
65.988157
 20
49.513393
 30
0.0
 10
65.575266
 20
49.428444
 30
0.0
 10
65.269054
 20
49.252620
 30
0.0
 10
65.079401
 20
48.995797
 30
0.0
 10
65.016183
 20
48.652051
 30
0.0
 10
65.076932
 20
48.327072
 30
0.0
 10
65.259177
 20
48.079140
 30
0.0
 10
65.562918
 20
47.908254
 30
0.0
 10
65.988157
 20
47.814416
 30
0.0
 10
65.988157
 20
49.513393
 30
0.0
 10
65.988157
 20
49.513393
 30
0.0
  0
LWPOLYLINE
  5
10e
100
AcDbEntity
  8
0
 62
7
100
AcDbPolyline
 90
6
 70
0
 10
62.748245
 20
52.610940
 30
0.0
 10
68.508966
 20
52.610940
 30
0.0
 10
68.508966
 20
51.504629
 30
0.0
 10
62.748245
 20
51.504629
 30
0.0
 10
62.748245
 20
52.610940
 30
0.0
 10
62.748245
 20
52.610940
 30
0.0
  0
LWPOLYLINE
  5
10f
100
AcDbEntity
  8
0
 62
7
100
AcDbPolyline
 90
21
 70
0
 10
77.861811
 20
8.214132
 30
0.0
 10
80.503412
 20
8.214132
 30
0.0
 10
80.503412
 20
6.690132
 30
0.0
 10
73.096771
 20
6.690132
 30
0.0
 10
73.096771
 20
9.961651
 30
0.0
 10
73.244091
 20
10.982731
 30
0.0
 10
73.428241
 20
11.390401
 30
0.0
 10
73.686051
 20
11.729491
 30
0.0
 10
74.013711
 20
12.000636
 30
0.0
 10
74.407411
 20
12.194311
 30
0.0
 10
74.867151
 20
12.310516
 30
0.0
 10
75.392931
 20
12.349251
 30
0.0
 10
76.406391
 20
12.196851
 30
0.0
 10
76.827396
 20
12.006351
 30
0.0
 10
77.191251
 20
11.739651
 30
0.0
 10
77.484621
 20
11.409451
 30
0.0
 10
77.694171
 20
11.028451
 30
0.0
 10
77.819901
 20
10.596651
 30
0.0
 10
77.861811
 20
10.114051
 30
0.0
 10
77.861811
 20
8.214132
 30
0.0
 10
77.861811
 20
8.214132
 30
0.0
  0
LWPOLYLINE
  5
110
100
AcDbEntity
  8
0
 62
7
100
AcDbPolyline
 90
13
 70
0
 10
76.591811
 20
8.214132
 30
0.0
 10
76.591811
 20
9.636531
 30
0.0
 10
76.522596
 20
10.156596
 30
0.0
 10
76.314951
 20
10.528071
 30
0.0
 10
75.968876
 20
10.750956
 30
0.0
 10
75.484371
 20
10.825251
 30
0.0
 10
74.989071
 20
10.751591
 30
0.0
 10
74.641091
 20
10.530611
 30
0.0
 10
74.435351
 20
10.164851
 30
0.0
 10
74.366771
 20
9.636531
 30
0.0
 10
74.366771
 20
8.214132
 30
0.0
 10
76.591811
 20
8.214132
 30
0.0
 10
76.591811
 20
8.214132
 30
0.0
  0
LWPOLYLINE
  5
111
100
AcDbEntity
  8
0
 62
7
100
AcDbPolyline
 90
14
 70
0
 10
77.140451
 20
18.036150
 30
0.0
 10
77.140451
 20
15.099910
 30
0.0
 10
80.503412
 20
15.099910
 30
0.0
 10
80.503412
 20
13.575910
 30
0.0
 10
73.096771
 20
13.575910
 30
0.0
 10
73.096771
 20
15.099910
 30
0.0
 10
75.870451
 20
15.099910
 30
0.0
 10
75.870451
 20
18.025990
 30
0.0
 10
73.096771
 20
18.025990
 30
0.0
 10
73.096771
 20
19.560150
 30
0.0
 10
80.503412
 20
19.560150
 30
0.0
 10
80.503412
 20
18.036150
 30
0.0
 10
77.140451
 20
18.036150
 30
0.0
 10
77.140451
 20
18.036150
 30
0.0
  0
LWPOLYLINE
  5
112
100
AcDbEntity
  8
0
 62
7
100
AcDbPolyline
 90
6
 70
0
 10
73.096771
 20
22.700066
 30
0.0
 10
80.503412
 20
22.700066
 30
0.0
 10
80.503412
 20
21.176066
 30
0.0
 10
73.096771
 20
21.176066
 30
0.0
 10
73.096771
 20
22.700066
 30
0.0
 10
73.096771
 20
22.700066
 30
0.0
  0
LWPOLYLINE
  5
113
100
AcDbEntity
  8
0
 62
7
100
AcDbPolyline
 90
8
 70
0
 10
73.096771
 20
25.855223
 30
0.0
 10
79.233411
 20
25.855223
 30
0.0
 10
79.233411
 20
29.401062
 30
0.0
 10
80.503412
 20
29.401062
 30
0.0
 10
80.503412
 20
24.331223
 30
0.0
 10
73.096771
 20
24.331223
 30
0.0
 10
73.096771
 20
25.855223
 30
0.0
 10
73.096771
 20
25.855223
 30
0.0
  0
LWPOLYLINE
  5
114
100
AcDbEntity
  8
0
 62
7
100
AcDbPolyline
 90
6
 70
0
 10
73.096771
 20
32.145690
 30
0.0
 10
80.503412
 20
32.145690
 30
0.0
 10
80.503412
 20
30.621690
 30
0.0
 10
73.096771
 20
30.621690
 30
0.0
 10
73.096771
 20
32.145690
 30
0.0
 10
73.096771
 20
32.145690
 30
0.0
  0
LWPOLYLINE
  5
115
100
AcDbEntity
  8
0
 62
7
100
AcDbPolyline
 90
21
 70
0
 10
77.861811
 20
35.300847
 30
0.0
 10
80.503412
 20
35.300847
 30
0.0
 10
80.503412
 20
33.776847
 30
0.0
 10
73.096771
 20
33.776847
 30
0.0
 10
73.096771
 20
37.048366
 30
0.0
 10
73.244091
 20
38.069446
 30
0.0
 10
73.428241
 20
38.477116
 30
0.0
 10
73.686051
 20
38.816206
 30
0.0
 10
74.013711
 20
39.087351
 30
0.0
 10
74.407411
 20
39.281026
 30
0.0
 10
74.867151
 20
39.397231
 30
0.0
 10
75.392931
 20
39.435966
 30
0.0
 10
76.406391
 20
39.283566
 30
0.0
 10
76.827396
 20
39.093066
 30
0.0
 10
77.191251
 20
38.826366
 30
0.0
 10
77.484621
 20
38.496166
 30
0.0
 10
77.694171
 20
38.115166
 30
0.0
 10
77.819901
 20
37.683366
 30
0.0
 10
77.861811
 20
37.200766
 30
0.0
 10
77.861811
 20
35.300847
 30
0.0
 10
77.861811
 20
35.300847
 30
0.0
  0
LWPOLYLINE
  5
116
100
AcDbEntity
  8
0
 62
7
100
AcDbPolyline
 90
13
 70
0
 10
76.591811
 20
35.300847
 30
0.0
 10
76.591811
 20
36.723246
 30
0.0
 10
76.522596
 20
37.243311
 30
0.0
 10
76.314951
 20
37.614786
 30
0.0
 10
75.968876
 20
37.837671
 30
0.0
 10
75.484371
 20
37.911966
 30
0.0
 10
74.989071
 20
37.838306
 30
0.0
 10
74.641091
 20
37.617326
 30
0.0
 10
74.435351
 20
37.251566
 30
0.0
 10
74.366771
 20
36.723246
 30
0.0
 10
74.366771
 20
35.300847
 30
0.0
 10
76.591811
 20
35.300847
 30
0.0
 10
76.591811
 20
35.300847
 30
0.0
  0
LWPOLYLINE
  5
117
100
AcDbEntity
  8
0
 62
7
100
AcDbPolyline
 90
21
 70
0
 10
77.861811
 20
42.186627
 30
0.0
 10
80.503412
 20
42.186627
 30
0.0
 10
80.503412
 20
40.662627
 30
0.0
 10
73.096771
 20
40.662627
 30
0.0
 10
73.096771
 20
43.934147
 30
0.0
 10
73.244091
 20
44.955227
 30
0.0
 10
73.428241
 20
45.362897
 30
0.0
 10
73.686051
 20
45.701987
 30
0.0
 10
74.013711
 20
45.973132
 30
0.0
 10
74.407411
 20
46.166807
 30
0.0
 10
74.867151
 20
46.283012
 30
0.0
 10
75.392931
 20
46.321747
 30
0.0
 10
76.406391
 20
46.169347
 30
0.0
 10
76.827396
 20
45.978847
 30
0.0
 10
77.191251
 20
45.712147
 30
0.0
 10
77.484621
 20
45.381947
 30
0.0
 10
77.694171
 20
45.000947
 30
0.0
 10
77.819901
 20
44.569147
 30
0.0
 10
77.861811
 20
44.086547
 30
0.0
 10
77.861811
 20
42.186627
 30
0.0
 10
77.861811
 20
42.186627
 30
0.0
  0
LWPOLYLINE
  5
118
100
AcDbEntity
  8
0
 62
7
100
AcDbPolyline
 90
13
 70
0
 10
76.591811
 20
42.186627
 30
0.0
 10
76.591811
 20
43.609027
 30
0.0
 10
76.522596
 20
44.129092
 30
0.0
 10
76.314951
 20
44.500567
 30
0.0
 10
75.968876
 20
44.723452
 30
0.0
 10
75.484371
 20
44.797747
 30
0.0
 10
74.989071
 20
44.724087
 30
0.0
 10
74.641091
 20
44.503107
 30
0.0
 10
74.435351
 20
44.137347
 30
0.0
 10
74.366771
 20
43.609027
 30
0.0
 10
74.366771
 20
42.186627
 30
0.0
 10
76.591811
 20
42.186627
 30
0.0
 10
76.591811
 20
42.186627
 30
0.0
  0
LWPOLYLINE
  5
119
100
AcDbEntity
  8
0
 62
7
100
AcDbPolyline
 90
14
 70
0
 10
77.313171
 20
49.072408
 30
0.0
 10
79.233411
 20
49.072408
 30
0.0
 10
79.233411
 20
53.085607
 30
0.0
 10
80.503412
 20
53.085607
 30
0.0
 10
80.503412
 20
47.548408
 30
0.0
 10
73.096771
 20
47.548408
 30
0.0
 10
73.096771
 20
52.902727
 30
0.0
 10
74.366771
 20
52.902727
 30
0.0
 10
74.366771
 20
49.072408
 30
0.0
 10
76.043171
 20
49.072408
 30
0.0
 10
76.043171
 20
52.618247
 30
0.0
 10
77.313171
 20
52.618247
 30
0.0
 10
77.313171
 20
49.072408
 30
0.0
 10
77.313171
 20
49.072408
 30
0.0
  0
ENDSEC
  0
SECTION
  2
OBJECTS
  0
DICTIONARY
  5
C
330
0
100
AcDbDictionary
  3
ACAD_GROUP
350
D
  3
ACAD_MLINESTYLE
350
17
  0
DICTIONARY
  5
D
330
C
100
AcDbDictionary
  0
DICTIONARY
  5
1A
330
C
100
AcDbDictionary
  0
DICTIONARY
  5
17
330
C
100
AcDbDictionary
  3
STANDARD
350
18
  0
DICTIONARY
  5
19
330
C
100
AcDbDictionary
  0
ENDSEC
  0
EOF
