solid OpenSCAD_Model
  facet normal 0 0 -1
    outer loop
      vertex 0 141.732 0
      vertex 113.386 141.732 0
      vertex 113.386 28.3467 0
    endloop
  endfacet
  facet normal 0 0 -1
    outer loop
      vertex 0 141.732 0
      vertex 113.386 28.3467 0
      vertex 0 28.3467 0
    endloop
  endfacet
  facet normal 0 -0 1
    outer loop
      vertex 113.386 28.3467 0.2
      vertex 113.386 141.732 0.2
      vertex 0 141.732 0.2
    endloop
  endfacet
  facet normal 0 0 1
    outer loop
      vertex 0 28.3467 0.2
      vertex 113.386 28.3467 0.2
      vertex 0 141.732 0.2
    endloop
  endfacet
  facet normal 0 1 0
    outer loop
      vertex 0 141.732 0
      vertex 113.386 141.732 0.2
      vertex 113.386 141.732 0
    endloop
  endfacet
  facet normal 0 1 0
    outer loop
      vertex 0 141.732 0
      vertex 0 141.732 0.2
      vertex 113.386 141.732 0.2
    endloop
  endfacet
  facet normal -1 0 0
    outer loop
      vertex 0 28.3467 0
      vertex 0 141.732 0.2
      vertex 0 141.732 0
    endloop
  endfacet
  facet normal -1 0 0
    outer loop
      vertex 0 28.3467 0
      vertex 0 28.3467 0.2
      vertex 0 141.732 0.2
    endloop
  endfacet
  facet normal 0 -1 0
    outer loop
      vertex 113.386 28.3467 0
      vertex 0 28.3467 0.2
      vertex 0 28.3467 0
    endloop
  endfacet
  facet normal 0 -1 0
    outer loop
      vertex 113.386 28.3467 0
      vertex 113.386 28.3467 0.2
      vertex 0 28.3467 0.2
    endloop
  endfacet
  facet normal 1 0 0
    outer loop
      vertex 113.386 141.732 0
      vertex 113.386 28.3467 0.2
      vertex 113.386 28.3467 0
    endloop
  endfacet
  facet normal 1 0 -0
    outer loop
      vertex 113.386 141.732 0
      vertex 113.386 141.732 0.2
      vertex 113.386 28.3467 0.2
    endloop
  endfacet
endsolid OpenSCAD_Model
