<?xml version="1.0" encoding="UTF-8" standalone="no"?>
<!-- Created with Inkscape (http://www.inkscape.org/) -->

<svg
   xmlns:dc="http://purl.org/dc/elements/1.1/"
   xmlns:cc="http://creativecommons.org/ns#"
   xmlns:rdf="http://www.w3.org/1999/02/22-rdf-syntax-ns#"
   xmlns:svg="http://www.w3.org/2000/svg"
   xmlns="http://www.w3.org/2000/svg"
   xmlns:sodipodi="http://sodipodi.sourceforge.net/DTD/sodipodi-0.dtd"
   xmlns:inkscape="http://www.inkscape.org/namespaces/inkscape"
   width="3200"
   height="850"
   id="svg2"
   version="1.1"
   inkscape:version="0.48.3.1 r9886"
   sodipodi:docname="Plot_-_Angry_Birds_-_Red.svg"
   style="display:inline">
  <sodipodi:namedview
     id="base"
     pagecolor="#ffffff"
     bordercolor="#666666"
     borderopacity="1.0"
     inkscape:pageopacity="0.0"
     inkscape:pageshadow="2"
     inkscape:zoom="0.24296875"
     inkscape:cx="1359.504"
     inkscape:cy="203.32232"
     inkscape:document-units="px"
     inkscape:current-layer="layer3"
     showgrid="false"
     inkscape:window-width="1600"
     inkscape:window-height="849"
     inkscape:window-x="0"
     inkscape:window-y="26"
     inkscape:window-maximized="1" />
  <defs
     id="defs4" />
  <metadata
     id="metadata7">
    <rdf:RDF>
      <cc:Work
         rdf:about="">
        <dc:format>image/svg+xml</dc:format>
        <dc:type
           rdf:resource="http://purl.org/dc/dcmitype/StillImage" />
        <dc:title />
      </cc:Work>
    </rdf:RDF>
  </metadata>
  <g
     transform="translate(0,150)"
     inkscape:groupmode="layer"
     id="layer3"
     inkscape:label="4 - Black"
     style="display:inline">
    <g
       transform="matrix(1.2776781,0,0,1.3454137,-491.25783,-287.89384)"
       style="stroke:#000000"
       id="g3123">
      <path
         inkscape:connector-curvature="0"
         transform="matrix(0.99159124,-0.04212491,0.04451179,1.0785535,-1.3998846,48.329437)"
         style="fill:none;stroke:#000000;stroke-width:1;stroke-linecap:round;stroke-linejoin:round;stroke-miterlimit:4;stroke-opacity:1"
         d="m 1827.685,361.51913 c 0,10.58527 -18.995,19.16632 -42.4265,19.16632 -23.4314,0 -42.4264,-8.58105 -42.4264,-19.16632 0,-10.58526 18.995,-19.16631 42.4264,-19.16631 22.742,0 41.4392,8.1007 42.3894,18.3655"
         id="path3103" />
      <path
         inkscape:connector-curvature="0"
         style="fill:none;stroke:#000000;stroke-width:0.96501601"
         d="m 1749.8159,350.99786 -0.914,20.36284 m 7.8758,4.27731 1.2891,-28.71825 m 8.1777,-2.44782 -1.5138,33.7232 m 7.9986,1.54296 1.6461,-36.66876 m 8.0943,-0.58951 -1.7059,38.00093 m 8.066,0.0421 1.7029,-37.9364 m 8.0313,0.8143 -1.6366,36.45803 m 8.1346,-1.48599 1.4973,-33.35574 m 7.9499,2.62764 -1.2649,28.1779 m 8.2646,-4.38275 0.8554,-19.05696"
         transform="matrix(0.99159124,-0.04212491,0.04451179,1.0785535,-1.3998846,48.329437)"
         id="path3126" />
    </g>
    <g
       transform="matrix(1.2776781,0,0,1.3454137,-491.25783,-287.89384)"
       style="stroke:#000000"
       id="g3128">
      <path
         inkscape:connector-curvature="0"
         transform="matrix(1.0459081,0,0,1,-92.653096,0)"
         style="fill:none;stroke:#000000;stroke-width:1;stroke-linecap:round;stroke-linejoin:round;stroke-miterlimit:4;stroke-opacity:1"
         d="m 2018.2316,362.63562 c 0,8.73541 -11.0803,15.81686 -24.7487,15.81686 -13.6683,0 -24.7487,-7.08145 -24.7487,-15.81686 0,-8.73541 11.0804,-15.81686 24.7487,-15.81686 13.2661,0 24.1728,6.68504 24.7271,15.15599"
         id="path3101" />
      <path
         inkscape:connector-curvature="0"
         style="fill:none;stroke:#000000;stroke-width:0.97829998"
         d="m 1975.2968,351.98291 0,21.30542 m 7.6488,3.6076 0,-28.52062 m 7.6489,-1.37046 0,31.26154 m 7.6488,-0.12061 0,-31.02875 m 7.6489,1.89492 0,27.23461 m 7.6489,-4.40827 0,-18.45505"
         transform="matrix(1.0459081,0,0,1,-92.653096,0)"
         id="path3131" />
    </g>
    <g
       transform="matrix(1.2776781,0,0,1.3454137,-491.25783,-287.89384)"
       id="g3365"
       style="stroke:#000000">
      <path
         inkscape:connector-curvature="0"
         id="path3304"
         d="m 1628.5938,184.9375 c -37.4671,18.10914 -71.5252,39.64869 -89.3438,77.40625 33.7714,14.84326 69.4465,26.82982 107.1875,35.71875 l -16.375,5.21875 c -20.4319,25.52605 -51.1336,63.24755 -2.9687,109.40625 l -3.7188,15.625 c 63.0656,-13.95966 128.7796,-23.15663 201.7188,-19.34375 -105.9194,43.91598 -161.2627,82.44404 -159.2188,120.96875 1.7881,33.70472 28.9598,47.01235 244.8125,116.46875 83.1641,-23.71962 138.8825,-56.57735 206.1563,-85.59375 42.4281,11.78286 85.1372,23.22123 119.8437,44.65625 45.9314,-108.10035 -85.4994,-153.44183 -215.0937,-206.90625 41.8292,-18.4273 115.514,-15.62517 186.0624,-14.90625 L 2194.25,371 c -2.2403,-20.09672 -5.3965,-40.18453 -19.3438,-60.28125 8.366,-18.07506 83.18,-5.48025 97.5,-37.96875 -13.954,-20.07335 -31.8749,-41.95503 -56.5624,-66.96875 -62.9941,28.25211 -119.9825,56.99365 -276.875,98.96875 -98.2852,-30.53488 -191.3992,-51.65809 -310.375,-119.8125 z m 28.2812,114.625 253.0625,48.375 c 24.3036,5.75903 6.3836,22.76813 3.7187,35.71875 l -56.5624,18.625 c -156.3079,-9.61804 -146.6502,6.85906 -203.2188,2.96875 -33.4813,-19.62276 -50.6939,-71.65397 3,-105.6875 z m 484.5312,14.875 c 22.6332,15.33172 28.4251,34.53944 25.3126,55.8125 -62.9712,1.57387 -124.5855,4.69828 -171.9376,23.84375 l -46.875,-11 -8.9374,-29.21875 202.4374,-39.4375 z m -212.375,79.875 c 6.0777,-0.12516 10.8643,1.03807 15.1876,2.53125 103.8563,17.79724 173.2629,59.2361 226.3124,90 35.2018,21.66345 58.8264,49.235 51.5626,92.625 -26.1883,-4.29582 -50.6174,-18.3735 -80.5313,-24.90625 -166.477,-36.35607 -410.2215,-23.54194 -435.7813,-55.09375 21.1808,-43.35938 138.5698,-83.20832 206.3126,-102.09375 6.6834,-2.07817 12.2104,-2.96515 16.9374,-3.0625 z m -233.0937,123.34375 136.2187,19.71875 c -38.1498,6.66149 -75.7563,14.23665 -110.9062,26.03125 -22.7292,-7.89527 -35.2267,-21.03843 -25.3125,-45.75 z m 227.8437,24.78125 c 57.0898,0.25725 113.2522,7.51841 172,15.46875 -59.0915,26.91315 -123.4427,55.70956 -187.375,68.375 -57.3021,-8.67513 -131.9487,-32.6183 -162.0937,-57.34375 62.3668,-20.03199 120.379,-26.75725 177.4687,-26.5 z"
         style="fill:none;stroke:#000000;stroke-width:1px;stroke-linecap:butt;stroke-linejoin:miter;stroke-opacity:1" />
      <path
         inkscape:connector-curvature="0"
         id="path3368"
         d="m 1544.6793,252.2591 0,12.397 m 8,3.38904 0,-27.60215 m 8,-9.50272 0,40.29716 m 8,3.09353 0,-51.26186 m 8,-6.89306 0,61.13606 m 8,2.80933 0,-69.94969 m 8,-5.34312 0,78.03275 m 8,2.56984 0,-85.65586 m 8,-4.49766 0,92.6273 m 0,101.45894 0,-54.85969 m 8,-143.57165 0,99.34199 m 0,111.04281 0,-80.34224 m 8,-134.06798 0,105.58542 m 0,46.12274 0,-28.4869 m 0,57.76369 0,42.25422 m 0,17.89219 0,-5.20634 m 8,-235.62264 0,107.44865 m 0,27.22103 0,-19.43197 m 0,82.8115 0,41.09938 m 8,-129.72043 0,-104.9792 m 0,108.23913 0,12.4776 m 0,112.30251 0,-29.79783 m 8,-198.77245 0,109.23907 m 0,117.68915 0,-21.2474 m 8,-201.43223 0,99.33783 m 0,121.86289 0,-16.16437 m 8,-200.85135 0,96.5133 m 0,119.02351 0,-14.31596 m 8,-197.05566 0,93.87738 m 0,116.05682 0,-12.80326 m 0,99.07382 0,45.36561 m 8,-246.16372 0,-91.47667 m 0,192.92874 0,11.82751 m 0,141.03096 0,-64.89195 m 8,-276.96528 0,89.07595 m 0,110.50235 0,-11.19945 m 0,80.23053 0,78.99906 m 8,-257.00322 0,-86.78749 m 0,183.67179 0,10.87292 m 0,102.83499 0,-39.71541 m 0,69.23318 0,21.69693 m 8,-260.27765 0,-84.63048 m 0,179.08587 0,10.78224 m 0,104.98338 0,-47.19492 m 0,83.51775 0,17.82054 m 8,-262.83511 0,-82.47347 m 0,174.48136 0,10.71014 m 0,76.21727 0,-23.08688 m 0,38.57848 0,15.4229 m 0,56.78508 0,-16.97892 m 8,-328.65062 0,80.52393 m 0,100.20362 0,-10.54335 m 0,59.37734 0,20.08012 m 0,40.36087 0,-13.26305 m 0,55.20242 0,17.28303 m 8,-267.17174 0,-78.59685 m 0,166.11726 0,10.44503 m 0,63.00005 0,-18.47796 m 0,54.57354 0,12.04633 m 0,61.38187 0,-22.7366 m 8,-322.978 0,76.7546 m 0,95.72725 0,-10.34672 m 0,50.93184 0,17.29468 m 0,55.12915 0,-11.34378 m 0,46.35116 0,28.47647 m 8,-270.69078 0,-75.04121 m 0,158.48516 0,10.04511 m 0,53.491 0,-16.67413 m 0,67.03995 0,11.01911 m 0,65.41643 0,-33.8632 m 8,-311.71677 0,73.32781 m 0,91.50904 0,-9.90374 m 0,42.87517 0,16.18844 m 0,67.32489 0,-10.92992 m 0,39.15477 0,12.94801 m 0,26.11339 0,-19.46129 m 8,-326.08698 0,71.79749 m 0,89.57299 0,-9.63163 m 0,38.90929 0,15.84845 m 0,72.92349 0,-10.84073 m 0,35.82847 0,12.64653 m 0,31.48011 0,-17.37548 m 8,-328.11128 0,70.27906 m 0,87.63694 0,-9.33104 m 0,35.00723 0,15.75565 m 0,78.1826 0,-11.07529 m 0,32.98739 0,12.18358 m 0,36.72657 0,-15.76981 m 8,-329.62606 0,68.8515 m 0,85.90107 0,-9.08735 m 0,31.1356 0,15.59252 m 0,83.33835 0,-11.33446 m 0,30.22577 0,12.00032 m 0,41.63847 0,-14.59074 m 8,-330.79722 0,67.50694 m 0,84.28485 0,-8.96331 m 0,27.33043 0,15.70494 m 0,88.15207 0,-11.59443 m 0,27.65589 0,11.66452 m 0,46.4529 0,-13.71551 m 8,-331.63575 0,66.19267 m 0,82.66862 0,-8.69553 m 0,23.50604 0,15.73469 m 0,92.92396 0,-12.0619 m 0,25.2935 0,11.34474 m 0,51.15568 0,-13.01969 m 8,-332.38175 0,65.0609 m 0,81.16145 0,-8.52792 m 0,19.75067 0,15.92303 m 0,97.45935 0,-12.52936 m 0,22.93112 0,11.37062 m 0,55.5128 0,-12.53237 m 8,-332.91926 0,63.92914 m 0,79.87971 0,-8.53765 m 0,16.00853 0,16.10154 m 0,101.94324 0,-12.99682 m 0,20.69744 0,11.2678 m 0,59.86991 0,-12.22076 m 8,-333.28104 0,62.79737 m 0,78.59797 0,-8.46164 m 0,12.2914 0,16.34775 m 0,106.24869 0,-13.57159 m 0,18.64813 0,11.16884 m 0,64.14609 0,-12.07499 m 8,-333.47699 0,61.6656 m 0,77.31624 0,-8.38562 m 0,8.57426 0,16.64364 m 0,110.50445 0,-14.19024 m 0,16.64272 0,11.33694 m 0,68.1552 0,-12.22466 m 8,-333.46891 0,60.62525 m 0,89.66581 0,-21.89707 m 0,121.70413 0,26.14236 m 0,72.1643 0,-12.39385 m 8,-333.54564 0,59.68923 m 0,85.22866 0,-18.54895 m 0,121.80329 0,24.45662 m 0,75.98924 0,-12.56786 m 8,-333.58494 0,58.7532 m 0,80.91255 0,-15.32185 m 0,121.90245 0,22.95117 m 0,79.55831 0,-13.00596 m 8,-333.28458 0,57.81718 m 0,76.65984 0,-12.15816 m 0,122.00161 0,21.44573 m 0,83.12737 0,-13.44407 m 8,-332.98421 0,56.88115 m 0,72.55312 0,-12.05567 m 0,125.01598 0,20.16331 m 0,86.47342 0,-13.95163 m 8,-332.68383 0,56.01457 m 0,68.4464 0,-12.11248 m 0,128.18351 0,18.97732 m 0,89.72917 0,-14.75162 m 8,-332.10164 0,55.15861 m 0,64.33967 0,-12.16928 m 0,131.33067 0,17.81171 m 0,92.98491 0,-15.5516 m 8,-331.51945 0,54.30263 m 0,60.35222 0,-12.34535 m 0,134.47782 0,16.93649 m 0,95.95026 0,-16.46867 m 8,-330.82017 0,53.44667 m 0,56.48216 0,-12.63882 m 0,137.62497 0,16.06339 m 0,98.9135 0,-17.65042 m 8,-329.84419 0,52.57868 m 0,52.6121 0,-12.93229 m 0,140.77212 0,15.26969 m 0,101.79734 0,-18.83218 m 8,-328.83992 0,51.97079 m 0,48.46138 0,-13.23347 m 0,143.91926 0,14.66614 m 0,103.24968 0,-20.44384 m 8,-326.1644 0,54.38219 m 0,41.64468 0,-28.75305 m 0,161.93149 0,14.06258 m 0,100.95763 0,-19.77696 m 8,-322.02301 0,92.70381 m 0,148.1979 0,-13.60905 m 0,92.78838 0,19.268 m 8,-246.08904 0,-90.83446 m 0,225.38001 0,13.25055 m 0,95.70894 0,-18.79725 m 8,-316.40707 0,49.57148 m 0,44.1683 0,-24.38655 m 0,157.47686 0,12.81968 m 0,92.87217 0,-18.37625 m 8,-316.32969 0,50.19698 m 0,47.2391 0,-14.22927 m 0,146.39819 0,12.58907 m 0,89.73189 0,-17.85765 m 8,-316.2523 0,50.82246 m 0,50.30991 0,-13.86423 m 0,145.11176 0,12.37143 m 0,86.44148 0,-17.4047 m 8,-315.98894 0,51.46478 m 0,53.57255 0,-13.69103 m 0,143.82535 0,12.20628 m 0,83.04319 0,-17.06791 m 8,-315.63086 0,52.18393 m 0,56.92825 0,-13.61089 m 0,142.59962 0,12.11886 m 0,79.25627 0,-16.48091 m 8,-315.27278 0,52.90307 m 0,60.39387 0,-13.64067 m 0,141.41417 0,11.99116 m 0,75.46936 0,-16.06972 m 8,-314.73889 0,53.62221 m 0,64.03377 0,-13.84473 m 0,140.22872 0,11.96214 m 0,71.58377 0,-15.79723 m 8,-314.15966 0,54.43472 m 0,67.7285 0,-17.70906 m 0,142.6487 0,11.99627 m 0,67.42435 0,-15.31405 m 8,-313.58867 0,55.25545 m 0,71.65046 0,-22.83998 m 0,146.14039 0,11.99806 m 0,63.19255 0,-14.91122 m 8,-312.86496 0,56.07619 m 0,75.59832 0,-27.68214 m 0,149.42527 0,12.06394 m 0,58.7888 0,-14.61178 m 8,-312.13779 0,56.99688 m 0,60.17755 0,-12.88286 m 0,15.35478 0,17.14902 m 0,132.07432 0,-12.1408 m 0,52.20254 0,14.19494 m 8,-267.688 0,-57.92719 m 0,104.84218 0,11.92809 m 0,25.17724 0,-16.53401 m 0,134.63627 0,12.21767 m 0,49.6524 0,-13.83715 m 8,-310.59624 0,58.88224 m 0,58.0617 0,-11.25208 m 0,25.51353 0,16.16977 m 0,128.31475 0,-12.29452 m 0,43.79627 0,13.54637 m 8,-263.4143 0,-59.98945 m 0,106.8719 0,10.81701 m 0,35.3058 0,-15.84527 m 0,129.90469 0,12.21043 m 0,40.3989 0,-13.21065 m 8,-309.11853 0,61.09666 m 0,57.73984 0,-10.58661 m 0,34.8436 0,15.74545 m 0,124.08099 0,-12.18305 m 0,34.83998 0,12.98049 m 8,-259.0192 0,-62.20387 m 0,109.81132 0,10.44575 m 0,44.50273 0,-15.72226 m 0,125.38209 0,12.21754 m 0,30.81406 0,-12.7926 m 8,-307.32435 0,63.31109 m 0,58.56954 0,-10.50788 m 0,43.6341 0,15.85096 m 0,119.4966 0,-12.25203 m 0,25.63803 0,12.63132 m 8,-254.61915 0,-64.47536 m 0,113.23188 0,10.50422 m 0,53.40444 0,-16.05912 m 0,120.89791 0,12.14939 m 0,21.23893 0,-12.48841 m 8,-305.80308 0,65.8407 m 0,60.26725 0,-10.72383 m 0,51.97293 0,16.37982 m 0,114.36721 0,-11.94488 m 0,16.05994 0,12.3455 m 8,-250.28245 0,-67.20604 m 0,117.53637 0,10.94345 m 0,62.03993 0,-16.82682 m 0,116.64614 0,23.51536 m 8,-248.2069 0,-68.57137 m 0,119.92359 0,10.96079 m 0,66.51595 0,-17.28004 m 0,114.39864 0,18.69395 m 8,-246.20001 0,-69.93873 m 0,122.32683 0,11.2489 m 0,70.93592 0,-17.96198 m 0,112.23875 0,13.78492 m 8,-244.19312 0,-71.5676 m 0,125.00774 0,11.52086 m 0,75.35588 0,-18.51132 m 0,110.08013 0,11.53091 m 8,-244.97511 0,-73.19648 m 0,127.84891 0,11.63257 m 0,79.82324 0,-18.99654 m 0,107.87405 0,12.24089 m 8,-248.78514 0,-74.82536 m 0,130.69006 0,11.94233 m 0,84.34021 0,-19.72942 m 0,105.77813 0,12.84071 m 8,-249.5969 0,-79.53314 m 0,133.63251 0,12.23476 m 0,88.85386 0,-20.16931 m 0,103.53227 0,13.29747 m 8,-244.90025 0,-89.90284 m 0,136.81901 0,12.43664 m 0,93.41959 0,-20.59485 m 0,101.45237 0,13.60324 m 8,-236.87324 0,-103.68429 m 0,140.00551 0,12.72711 m 0,97.99114 0,-21.02529 m 0,99.73947 0,13.53025 m 8,-190.15013 0,-156.25296 m 0,237.61385 0,21.17181 m 0,90.14611 0,-13.29879 m 8,-339.22989 0,84.86415 m 0,75.07116 0,-69.78985 m 0,155.84035 0,21.40186 m 0,87.76516 0,-13.04407 m 8,-345.70566 0,83.93401 m 0,79.68364 0,-54.71836 m 0,145.77365 0,21.96447 m 0,84.92701 0,-12.97189 m 8,-352.18944 0,85.33687 m 0,81.96313 0,-24.29528 m 0,120.73511 0,22.91026 m 0,81.43917 0,-12.97689 m 8,-358.70928 0,87.49013 m 0,83.49222 0,-6.51207 m 0,108.81758 0,24.51474 m 0,77.1154 0,-13.50434 m 8,-365.01056 0,89.90621 m 0,220.89885 0,-27.3457 m 0,83.93021 0,14.46009 m 8,-293.0541 0,-91.13763 m 0,293.20537 0,33.48148 m 0,61.32801 0,-16.3367 m 8,-363.26032 0,81.54047 m 0,302.03533 0,-89.96672 m 8,-285.19125 0,71.72429 m 0,307.97372 0,-83.68562 m 8,-286.91953 0,60.86359 m 0,301.37468 0,-59.77685 m 8,-293.27202 0,49.31484 m 8,-3.31628 0,-36.02126 m 8,10.40985 0,20.59355"
         style="fill:none;stroke:#000000;stroke-width:1" />
    </g>
    <g
       style="stroke:#000000"
       transform="matrix(1.5699926,0,0,1.3591,-968.89459,-203.50144)"
       id="g3474">
      <path
         style="fill:none;stroke:#000000;stroke-width:1px;stroke-linecap:butt;stroke-linejoin:miter;stroke-opacity:1"
         d="m 950.52632,285.26316 -75.26316,-88.94737 c -25.77378,9.04152 -51.39853,18.97723 -75.78947,36.31579 l 0,8.94737 c 34.82638,23.11859 65.03408,34.69047 97.36842,51.57894 L 714.21053,245.26316 c -24.52194,24.53217 -42.29462,48.13313 -43.68421,69.47368 77.27077,9.15793 146.18489,14.01036 215.26315,18.94737 -39.68012,9.39298 -90.9419,8.35386 -117.89473,22.63158 L 802.63158,400 c 39.90153,-20.54781 82.05384,-36.59407 124.73684,-51.57895 2.88216,-29.88219 13.31214,-50.07097 23.1579,-63.15789 z"
         id="path3421"
         inkscape:connector-curvature="0"
         sodipodi:nodetypes="cccccccccccc" />
      <path
         inkscape:connector-curvature="0"
         style="fill:none;stroke:#000000;stroke-width:1"
         d="m 677.40262,292.15612 0,23.32648 m 8,0.86764 0,-37.54549 m 8,-10.62038 0,49.0335 m 8,0.86763 0,-59.26658 m 8,-8.58899 0,68.72321 m 8,0.86763 0,-73.72049 m 8,2.09798 0,72.49015 m 8,0.7562 0,-71.14837 m 8,2.09799 0,69.77779 m 8,0.72741 0,-68.40722 m 8,2.09798 0,67.03665 m 8,0.7274 0,-65.66607 m 8,2.09799 0,64.29549 m 0,38.16072 0,-9.49694 m 8,-90.86129 0,62.92278 m 0,47.49606 0,-22.37507 m 8,-85.94579 0,61.45317 m 0,56.92829 0,-34.62166 m 8,-81.66182 0,59.98357 m 0,66.36052 0,-46.34238 m 8,-118.42398 0,16.68472 m 0,82.34949 0,-58.51395 m 0,76.40034 0,53.04184 m 8,-148.25607 0,-26.71937 m 0,47.63124 0,57.04434 m 0,66.31657 0,-50.24396 m 8,-125.30283 0,35.92985 m 0,73.92875 0,-55.57474 m 0,69.8884 0,47.50704 m 8,-131.29067 0,-44.54485 m 0,60.53806 0,54.10513 m 0,57.45904 0,-44.77314 m 8,-131.14153 0,52.65724 m 0,66.4049 0,-52.61366 m 0,63.70558 0,42.14876 m 8,-115.59011 0,-60.1972 m 0,72.03096 0,51.09443 m 0,49.14697 0,-39.62127 m 8,-135.89028 0,67.39386 m 0,59.54948 0,-49.57521 m 0,57.53468 0,37.2122 m 8,-100.84756 0,-74.28228 m 0,82.48094 0,48.05599 m 0,41.26655 0,-35.06089 m 8,-139.66729 0,81.08057 m 0,52.95982 0,-46.53676 m 0,50.96132 0,33.09169 m 8,-86.53971 0,-84.631 m 0,89.21568 0,45.01754 m 0,33.83855 0,-31.54729 m 8,-127.06994 0,79.16119 m 0,46.19624 0,-43.49831 m 0,43.604 0,30.05518 m 8,-72.37238 0,-73.69137 m 0,74.50255 0,68.46227 m 8,-2.93924 0,-130.57104 m 8,9.45455 0,118.23335 m 8,-2.88313 0,-105.89568 m 8,9.45455 0,93.55799 m 8,-30.47377 0,-53.62968 m 8,9.45455 0,25.29119 m 8,-12.91713 0,-2.91952"
         id="path3477" />
    </g>
  </g>
  <eggbot
     serialport="/dev/ttyACM0"
     layer="0"
     node="0"
     lastpath="0"
     lastpathnc="0"
     totaldeltax="0"
     totaldeltay="0"
     id="eggbot4463" />
</svg>
