  0
SECTION
  2
HEADER
  9
$ACADVER
  1
AC1014
  9
$HANDSEED
  5
FFFF
  9
$MEASUREMENT
 70
     1
  0
ENDSEC
  0
SECTION
  2
TABLES
  0
TABLE
  2
VPORT
  5
8
330
0
100
AcDbSymbolTable
 70
     4
  0
VPORT
  5
2E
330
8
100
AcDbSymbolTableRecord
100
AcDbViewportTableRecord
  2
*ACTIVE
 70
     0
 10
0.0
 20
0.0
 11
1.0
 21
1.0
 12
210.0
 22
148.5
 13
0.0
 23
0.0
 14
10.0
 24
10.0
 15
10.0
 25
10.0
 16
0.0
 26
0.0
 36
1.0
 17
0.0
 27
0.0
 37
0.0
 40
341.0
 41
1.24
 42
50.0
 43
0.0
 44
0.0
 50
0.0
 51
0.0
 71
     0
 72
   100
 73
     1
 74
     3
 75
     0
 76
     0
 77
     0
 78
     0
  0
ENDTAB
  0
TABLE
  2
LTYPE
  5
5
330
0
100
AcDbSymbolTable
 70
     1
  0
LTYPE
  5
14
330
5
100
AcDbSymbolTableRecord
100
AcDbLinetypeTableRecord
  2
BYBLOCK
 70
     0
  3

 72
    65
 73
     0
 40
0.0
  0
LTYPE
  5
15
330
5
100
AcDbSymbolTableRecord
100
AcDbLinetypeTableRecord
  2
BYLAYER
 70
     0
  3

 72
    65
 73
     0
 40
0.0
  0
LTYPE
  5
16
330
5
100
AcDbSymbolTableRecord
100
AcDbLinetypeTableRecord
  2
CONTINUOUS
 70
     0
  3
Solid line
 72
    65
 73
     0
 40
0.0
  0
ENDTAB
  0
TABLE
  2
LAYER
  5
2
100
AcDbSymbolTable
 70
2
  0
LAYER
  5
50
100
AcDbSymbolTableRecord
100
AcDbLayerTableRecord
  2
0
 70
0
  6
CONTINUOUS
  0
LAYER
  5
51
100
AcDbSymbolTableRecord
100
AcDbLayerTableRecord
  2
Layer_1
 70
0
  6
CONTINUOUS
  0
ENDTAB
  0
TABLE
  2
STYLE
  5
3
330
0
100
AcDbSymbolTable
 70
     1
  0
STYLE
  5
11
330
3
100
AcDbSymbolTableRecord
100
AcDbTextStyleTableRecord
  2
STANDARD
 70
     0
 40
0.0
 41
1.0
 50
0.0
 71
     0
 42
2.5
  3
txt
  4

  0
ENDTAB
  0
TABLE
  2
VIEW
  5
6
330
0
100
AcDbSymbolTable
 70
     0
  0
ENDTAB
  0
TABLE
  2
UCS
  5
7
330
0
100
AcDbSymbolTable
 70
     0
  0
ENDTAB
  0
TABLE
  2
APPID
  5
9
330
0
100
AcDbSymbolTable
 70
     2
  0
APPID
  5
12
330
9
100
AcDbSymbolTableRecord
100
AcDbRegAppTableRecord
  2
ACAD
 70
     0
  0
ENDTAB
  0
TABLE
  2
DIMSTYLE
  5
A
330
0
100
AcDbSymbolTable
 70
     1
  0
DIMSTYLE
105
27
330
A
100
AcDbSymbolTableRecord
100
AcDbDimStyleTableRecord
  2
ISO-25
 70
     0
  3

  4

  5

  6

  7

 40
1.0
 41
2.5
 42
0.625
 43
3.75
 44
1.25
 45
0.0
 46
0.0
 47
0.0
 48
0.0
140
2.5
141
2.5
142
0.0
143
0.03937007874016
144
1.0
145
0.0
146
1.0
147
0.625
 71
     0
 72
     0
 73
     0
 74
     0
 75
     0
 76
     0
 77
     1
 78
     8
170
     0
171
     3
172
     1
173
     0
174
     0
175
     0
176
     0
177
     0
178
     0
270
     2
271
     2
272
     2
273
     2
274
     3
340
11
275
     0
280
     0
281
     0
282
     0
283
     0
284
     8
285
     0
286
     0
287
     3
288
     0
  0
ENDTAB
  0
TABLE
  2
BLOCK_RECORD
  5
1
330
0
100
AcDbSymbolTable
 70
     1
  0
BLOCK_RECORD
  5
1F
330
1
100
AcDbSymbolTableRecord
100
AcDbBlockTableRecord
  2
*MODEL_SPACE
  0
BLOCK_RECORD
  5
1B
330
1
100
AcDbSymbolTableRecord
100
AcDbBlockTableRecord
  2
*PAPER_SPACE
  0
ENDTAB
  0
ENDSEC
  0
SECTION
  2
BLOCKS
  0
BLOCK
  5
20
330
1F
100
AcDbEntity
  8
0
100
AcDbBlockBegin
  2
*MODEL_SPACE
 70
     0
 10
0.0
 20
0.0
 30
0.0
  3
*MODEL_SPACE
  1

  0
ENDBLK
  5
21
330
1F
100
AcDbEntity
  8
0
100
AcDbBlockEnd
  0
BLOCK
  5
1C
330
1B
100
AcDbEntity
 67
     1
  8
0
100
AcDbBlockBegin
  2
*PAPER_SPACE
  1

  0
ENDBLK
  5
1D
330
1B
100
AcDbEntity
 67
     1
  8
0
100
AcDbBlockEnd
  0
ENDSEC
  0
SECTION
  2
ENTITIES
  0
LWPOLYLINE
  5
100
100
AcDbEntity
  8
Layer_1
 62
7
100
AcDbPolyline
 90
157
 70
0
 10
20.383385
 20
0.057151
 30
0.0
 10
20.374026
 20
0.097514
 30
0.0
 10
20.363558
 20
0.114301
 30
0.0
 10
20.352300
 20
0.131401
 30
0.0
 10
20.334657
 20
0.185376
 30
0.0
 10
20.313360
 20
0.279959
 30
0.0
 10
20.297916
 20
0.473514
 30
0.0
 10
20.280754
 20
1.231901
 30
0.0
 10
20.270696
 20
2.273302
 30
0.0
 10
20.253642
 20
2.765107
 30
0.0
 10
20.238543
 20
2.934984
 30
0.0
 10
20.220941
 20
3.025777
 30
0.0
 10
20.199886
 20
3.054439
 30
0.0
 10
20.155525
 20
3.060692
 30
0.0
 10
20.009621
 20
3.040856
 30
0.0
 10
19.923498
 20
3.028493
 30
0.0
 10
19.853290
 20
3.029462
 30
0.0
 10
19.786903
 20
3.031514
 30
0.0
 10
19.713370
 20
3.024610
 30
0.0
 10
19.491971
 20
2.994734
 30
0.0
 10
19.228068
 20
2.972279
 30
0.0
 10
19.012168
 20
2.946046
 30
0.0
 10
18.745750
 20
2.913872
 30
0.0
 10
18.425075
 20
2.887772
 30
0.0
 10
18.354410
 20
2.884589
 30
0.0
 10
18.333000
 20
2.893760
 30
0.0
 10
18.319393
 20
2.908302
 30
0.0
 10
18.287073
 20
2.889015
 30
0.0
 10
18.269500
 20
2.853540
 30
0.0
 10
18.262570
 20
2.840346
 30
0.0
 10
18.243756
 20
2.831446
 30
0.0
 10
18.182323
 20
2.829759
 30
0.0
 10
18.158244
 20
2.841653
 30
0.0
 10
18.160656
 20
2.886521
 30
0.0
 10
18.180437
 20
2.950356
 30
0.0
 10
18.194911
 20
2.966425
 30
0.0
 10
18.212364
 20
2.971802
 30
0.0
 10
18.228345
 20
2.983927
 30
0.0
 10
18.244363
 20
3.013077
 30
0.0
 10
18.291822
 20
3.101606
 30
0.0
 10
18.313550
 20
3.144877
 30
0.0
 10
18.311258
 20
3.182400
 30
0.0
 10
18.281434
 20
3.222684
 30
0.0
 10
18.220567
 20
3.274240
 30
0.0
 10
18.088706
 20
3.383854
 30
0.0
 10
18.020247
 20
3.439512
 30
0.0
 10
18.003558
 20
3.455032
 30
0.0
 10
18.024018
 20
3.480938
 30
0.0
 10
18.051584
 20
3.508831
 30
0.0
 10
18.157368
 20
3.475210
 30
0.0
 10
18.288550
 20
3.441508
 30
0.0
 10
18.376293
 20
3.422515
 30
0.0
 10
18.474718
 20
3.403602
 30
0.0
 10
18.504669
 20
3.410188
 30
0.0
 10
18.510800
 20
3.442359
 30
0.0
 10
18.524665
 20
3.500446
 30
0.0
 10
18.560583
 20
3.575270
 30
0.0
 10
18.610037
 20
3.651738
 30
0.0
 10
18.664510
 20
3.714757
 30
0.0
 10
18.717991
 20
3.773403
 30
0.0
 10
18.723355
 20
3.794667
 30
0.0
 10
18.720119
 20
3.821400
 30
0.0
 10
18.700850
 20
3.941035
 30
0.0
 10
18.677039
 20
4.030879
 30
0.0
 10
18.669944
 20
4.076126
 30
0.0
 10
18.675726
 20
4.182679
 30
0.0
 10
18.683070
 20
4.400323
 30
0.0
 10
18.683627
 20
4.467668
 30
0.0
 10
18.697437
 20
4.497865
 30
0.0
 10
18.717346
 20
4.504630
 30
0.0
 10
18.740316
 20
4.482476
 30
0.0
 10
18.764519
 20
4.440697
 30
0.0
 10
18.793146
 20
4.400582
 30
0.0
 10
18.899615
 20
4.285094
 30
0.0
 10
18.938319
 20
4.253235
 30
0.0
 10
18.975815
 20
4.235546
 30
0.0
 10
19.199972
 20
4.176489
 30
0.0
 10
19.265362
 20
4.161738
 30
0.0
 10
19.332515
 20
4.156145
 30
0.0
 10
19.400815
 20
4.159718
 30
0.0
 10
19.469651
 20
4.172465
 30
0.0
 10
19.540601
 20
4.205683
 30
0.0
 10
19.623368
 20
4.265717
 30
0.0
 10
19.700042
 20
4.337734
 30
0.0
 10
19.752713
 20
4.406902
 30
0.0
 10
19.779538
 20
4.442305
 30
0.0
 10
19.813963
 20
4.447315
 30
0.0
 10
19.863094
 20
4.431062
 30
0.0
 10
19.883670
 20
4.351984
 30
0.0
 10
19.898342
 20
4.196814
 30
0.0
 10
19.903641
 20
4.022765
 30
0.0
 10
19.896095
 20
3.887046
 30
0.0
 10
19.887762
 20
3.803490
 30
0.0
 10
19.894697
 20
3.784197
 30
0.0
 10
19.910641
 20
3.766561
 30
0.0
 10
20.008023
 20
3.664402
 30
0.0
 10
20.060201
 20
3.598889
 30
0.0
 10
20.093887
 20
3.553981
 30
0.0
 10
20.118205
 20
3.519265
 30
0.0
 10
20.118680
 20
3.506421
 30
0.0
 10
20.111027
 20
3.496335
 30
0.0
 10
20.070323
 20
3.483684
 30
0.0
 10
19.994062
 20
3.479802
 30
0.0
 10
19.901002
 20
3.485608
 30
0.0
 10
19.877876
 20
3.498836
 30
0.0
 10
19.853580
 20
3.524252
 30
0.0
 10
19.818016
 20
3.555645
 30
0.0
 10
19.787770
 20
3.568702
 30
0.0
 10
19.749232
 20
3.551311
 30
0.0
 10
19.695964
 20
3.510980
 30
0.0
 10
19.648757
 20
3.465470
 30
0.0
 10
19.628401
 20
3.432545
 30
0.0
 10
19.632299
 20
3.422485
 30
0.0
 10
19.648058
 20
3.417570
 30
0.0
 10
19.739526
 20
3.420542
 30
0.0
 10
20.013383
 20
3.436965
 30
0.0
 10
20.176115
 20
3.445503
 30
0.0
 10
20.167394
 20
3.529328
 30
0.0
 10
20.154968
 20
3.617363
 30
0.0
 10
20.167904
 20
3.661813
 30
0.0
 10
20.178896
 20
3.740790
 30
0.0
 10
20.173716
 20
3.930652
 30
0.0
 10
20.155443
 20
4.229102
 30
0.0
 10
20.141554
 20
4.457702
 30
0.0
 10
20.125669
 20
4.714452
 30
0.0
 10
20.127159
 20
4.930352
 30
0.0
 10
20.131722
 20
5.177603
 30
0.0
 10
20.116552
 20
5.393402
 30
0.0
 10
20.108389
 20
5.433751
 30
0.0
 10
20.189069
 20
5.408296
 30
0.0
 10
20.267910
 20
5.389749
 30
0.0
 10
20.339600
 20
5.398040
 30
0.0
 10
20.469895
 20
5.444206
 30
0.0
 10
20.601655
 20
5.525204
 30
0.0
 10
20.666860
 20
5.573905
 30
0.0
 10
20.715955
 20
5.531937
 30
0.0
 10
20.833259
 20
5.455444
 30
0.0
 10
20.908803
 20
5.428587
 30
0.0
 10
20.941213
 20
5.431034
 30
0.0
 10
20.979770
 20
5.443257
 30
0.0
 10
20.985941
 20
5.431256
 30
0.0
 10
20.990721
 20
5.374994
 30
0.0
 10
20.996809
 20
5.040012
 30
0.0
 10
21.000000
 20
2.852511
 30
0.0
 10
20.996809
 20
0.906804
 30
0.0
 10
20.987300
 20
0.254001
 30
0.0
 10
20.978330
 20
0.244675
 30
0.0
 10
20.974600
 20
0.222251
 30
0.0
 10
20.978330
 20
0.199828
 30
0.0
 10
20.987300
 20
0.190501
 30
0.0
 10
20.996402
 20
0.163514
 30
0.0
 10
21.000000
 20
0.095251
 30
0.0
 10
21.000000
 20
0.000001
 30
0.0
 10
20.695978
 20
0.000001
 30
0.0
 10
20.391955
 20
0.000001
 30
0.0
 10
20.383385
 20
0.057151
 30
0.0
 10
20.383385
 20
0.057151
 30
0.0
  0
LWPOLYLINE
  5
101
100
AcDbEntity
  8
Layer_1
 62
7
100
AcDbPolyline
 90
20
 70
0
 10
18.755275
 20
3.352629
 30
0.0
 10
18.849313
 20
3.356685
 30
0.0
 10
18.863465
 20
3.364337
 30
0.0
 10
18.866400
 20
3.378202
 30
0.0
 10
18.862669
 20
3.396141
 30
0.0
 10
18.853700
 20
3.403602
 30
0.0
 10
18.844612
 20
3.411996
 30
0.0
 10
18.840596
 20
3.432177
 30
0.0
 10
18.823391
 20
3.481904
 30
0.0
 10
18.806542
 20
3.498747
 30
0.0
 10
18.787839
 20
3.505202
 30
0.0
 10
18.765650
 20
3.495570
 30
0.0
 10
18.738438
 20
3.472411
 30
0.0
 10
18.647337
 20
3.405736
 30
0.0
 10
18.608391
 20
3.379270
 30
0.0
 10
18.588255
 20
3.356723
 30
0.0
 10
18.589720
 20
3.343448
 30
0.0
 10
18.615575
 20
3.344798
 30
0.0
 10
18.755275
 20
3.352629
 30
0.0
 10
18.755275
 20
3.352629
 30
0.0
  0
LWPOLYLINE
  5
102
100
AcDbEntity
  8
Layer_1
 62
7
100
AcDbPolyline
 90
27
 70
0
 10
19.334080
 20
3.411837
 30
0.0
 10
19.485525
 20
3.443987
 30
0.0
 10
19.541286
 20
3.460155
 30
0.0
 10
19.550191
 20
3.471739
 30
0.0
 10
19.552200
 20
3.489591
 30
0.0
 10
19.538427
 20
3.527374
 30
0.0
 10
19.496518
 20
3.575609
 30
0.0
 10
19.393367
 20
3.660924
 30
0.0
 10
19.318462
 20
3.708402
 30
0.0
 10
19.291850
 20
3.670302
 30
0.0
 10
19.272977
 20
3.643081
 30
0.0
 10
19.252596
 20
3.634262
 30
0.0
 10
19.228578
 20
3.643885
 30
0.0
 10
19.198794
 20
3.671987
 30
0.0
 10
19.163247
 20
3.711771
 30
0.0
 10
19.099032
 20
3.665637
 30
0.0
 10
19.022189
 20
3.619503
 30
0.0
 10
18.976082
 20
3.586021
 30
0.0
 10
18.949646
 20
3.548027
 30
0.0
 10
18.942600
 20
3.497614
 30
0.0
 10
18.943863
 20
3.465788
 30
0.0
 10
18.951526
 20
3.445649
 30
0.0
 10
19.009275
 20
3.409868
 30
0.0
 10
19.079318
 20
3.383883
 30
0.0
 10
19.162630
 20
3.384838
 30
0.0
 10
19.334080
 20
3.411838
 30
0.0
 10
19.334080
 20
3.411837
 30
0.0
  0
LWPOLYLINE
  5
103
100
AcDbEntity
  8
Layer_1
 62
7
100
AcDbPolyline
 90
14
 70
0
 10
18.703986
 20
3.544593
 30
0.0
 10
18.741587
 20
3.592532
 30
0.0
 10
18.749644
 20
3.630209
 30
0.0
 10
18.740664
 20
3.655264
 30
0.0
 10
18.722963
 20
3.667266
 30
0.0
 10
18.699482
 20
3.665484
 30
0.0
 10
18.673162
 20
3.649190
 30
0.0
 10
18.626716
 20
3.580613
 30
0.0
 10
18.599979
 20
3.508377
 30
0.0
 10
18.609269
 20
3.492746
 30
0.0
 10
18.633867
 20
3.495023
 30
0.0
 10
18.667523
 20
3.513030
 30
0.0
 10
18.703986
 20
3.544593
 30
0.0
 10
18.703986
 20
3.544593
 30
0.0
  0
LWPOLYLINE
  5
104
100
AcDbEntity
  8
Layer_1
 62
7
100
AcDbPolyline
 90
14
 70
0
 10
20.007022
 20
3.559156
 30
0.0
 10
19.992126
 20
3.594100
 30
0.0
 10
19.950256
 20
3.639525
 30
0.0
 10
19.899471
 20
3.678903
 30
0.0
 10
19.857834
 20
3.695702
 30
0.0
 10
19.848787
 20
3.685573
 30
0.0
 10
19.844832
 20
3.661775
 30
0.0
 10
19.854019
 20
3.612707
 30
0.0
 10
19.907800
 20
3.564937
 30
0.0
 10
19.942919
 20
3.543149
 30
0.0
 10
19.973193
 20
3.534804
 30
0.0
 10
19.995576
 20
3.540081
 30
0.0
 10
20.007022
 20
3.559156
 30
0.0
 10
20.007022
 20
3.559156
 30
0.0
  0
LWPOLYLINE
  5
105
100
AcDbEntity
  8
Layer_1
 62
7
100
AcDbPolyline
 90
91
 70
0
 10
19.702507
 20
3.589381
 30
0.0
 10
19.732162
 20
3.635146
 30
0.0
 10
19.705439
 20
3.699450
 30
0.0
 10
19.689721
 20
3.742711
 30
0.0
 10
19.691065
 20
3.767597
 30
0.0
 10
19.713904
 20
3.781154
 30
0.0
 10
19.762669
 20
3.790426
 30
0.0
 10
19.816538
 20
3.798504
 30
0.0
 10
19.825497
 20
3.934428
 30
0.0
 10
19.835030
 20
4.108452
 30
0.0
 10
19.816725
 20
4.215882
 30
0.0
 10
19.799910
 20
4.261252
 30
0.0
 10
19.784254
 20
4.279902
 30
0.0
 10
19.733285
 20
4.244977
 30
0.0
 10
19.638762
 20
4.169949
 30
0.0
 10
19.526461
 20
4.105637
 30
0.0
 10
19.464200
 20
4.083884
 30
0.0
 10
19.397863
 20
4.070190
 30
0.0
 10
19.345109
 20
4.067052
 30
0.0
 10
19.323600
 20
4.076965
 30
0.0
 10
19.310785
 20
4.087456
 30
0.0
 10
19.267692
 20
4.085191
 30
0.0
 10
19.207278
 20
4.085206
 30
0.0
 10
19.137517
 20
4.101164
 30
0.0
 10
18.979055
 20
4.146196
 30
0.0
 10
18.900478
 20
4.174350
 30
0.0
 10
18.839355
 20
4.223493
 30
0.0
 10
18.767304
 20
4.279647
 30
0.0
 10
18.756344
 20
4.257693
 30
0.0
 10
18.752577
 20
4.197618
 30
0.0
 10
18.766709
 20
4.000502
 30
0.0
 10
18.789393
 20
3.812667
 30
0.0
 10
18.803891
 20
3.736430
 30
0.0
 10
18.826701
 20
3.661563
 30
0.0
 10
18.851853
 20
3.604486
 30
0.0
 10
18.873379
 20
3.581619
 30
0.0
 10
18.887341
 20
3.594059
 30
0.0
 10
18.902201
 20
3.624264
 30
0.0
 10
18.927782
 20
3.664419
 30
0.0
 10
18.977746
 20
3.698027
 30
0.0
 10
19.021039
 20
3.725287
 30
0.0
 10
19.041406
 20
3.748936
 30
0.0
 10
19.037472
 20
3.765598
 30
0.0
 10
19.007863
 20
3.771902
 30
0.0
 10
18.955531
 20
3.778053
 30
0.0
 10
18.913002
 20
3.795001
 30
0.0
 10
18.881199
 20
3.820493
 30
0.0
 10
18.861049
 20
3.852273
 30
0.0
 10
18.853475
 20
3.888087
 30
0.0
 10
18.859403
 20
3.925679
 30
0.0
 10
18.879757
 20
3.962796
 30
0.0
 10
18.915462
 20
3.997181
 30
0.0
 10
18.960146
 20
4.021915
 30
0.0
 10
19.007902
 20
4.032774
 30
0.0
 10
19.057828
 20
4.029687
 30
0.0
 10
19.109026
 20
4.012583
 30
0.0
 10
19.146360
 20
3.990830
 30
0.0
 10
19.175071
 20
3.963589
 30
0.0
 10
19.197114
 20
3.928456
 30
0.0
 10
19.214447
 20
3.883027
 30
0.0
 10
19.229128
 20
3.866378
 30
0.0
 10
19.259536
 20
3.860802
 30
0.0
 10
19.294102
 20
3.869165
 30
0.0
 10
19.316320
 20
3.904974
 30
0.0
 10
19.340447
 20
3.943223
 30
0.0
 10
19.377143
 20
3.973389
 30
0.0
 10
19.425715
 20
3.995052
 30
0.0
 10
19.485470
 20
4.007791
 30
0.0
 10
19.545134
 20
4.010359
 30
0.0
 10
19.575309
 20
3.992538
 30
0.0
 10
19.625879
 20
3.918735
 30
0.0
 10
19.637451
 20
3.881857
 30
0.0
 10
19.641105
 20
3.842199
 30
0.0
 10
19.636221
 20
3.793676
 30
0.0
 10
19.626892
 20
3.786205
 30
0.0
 10
19.610104
 20
3.784602
 30
0.0
 10
19.571255
 20
3.771902
 30
0.0
 10
19.544131
 20
3.761514
 30
0.0
 10
19.494263
 20
3.759514
 30
0.0
 10
19.441430
 20
3.765196
 30
0.0
 10
19.405407
 20
3.777848
 30
0.0
 10
19.364615
 20
3.795990
 30
0.0
 10
19.353096
 20
3.790196
 30
0.0
 10
19.349005
 20
3.774581
 30
0.0
 10
19.371518
 20
3.746091
 30
0.0
 10
19.441080
 20
3.705547
 30
0.0
 10
19.522740
 20
3.655811
 30
0.0
 10
19.589774
 20
3.601268
 30
0.0
 10
19.659624
 20
3.543459
 30
0.0
 10
19.702512
 20
3.589381
 30
0.0
 10
19.702507
 20
3.589381
 30
0.0
  0
LWPOLYLINE
  5
106
100
AcDbEntity
  8
Layer_1
 62
7
100
AcDbPolyline
 90
18
 70
0
 10
19.578434
 20
3.823149
 30
0.0
 10
19.596258
 20
3.840318
 30
0.0
 10
19.602366
 20
3.862243
 30
0.0
 10
19.596692
 20
3.882536
 30
0.0
 10
19.579171
 20
3.894811
 30
0.0
 10
19.557520
 20
3.908224
 30
0.0
 10
19.538924
 20
3.931722
 30
0.0
 10
19.524783
 20
3.951515
 30
0.0
 10
19.506193
 20
3.960419
 30
0.0
 10
19.434722
 20
3.949034
 30
0.0
 10
19.397177
 20
3.932697
 30
0.0
 10
19.387271
 20
3.907830
 30
0.0
 10
19.397298
 20
3.847095
 30
0.0
 10
19.408605
 20
3.828052
 30
0.0
 10
19.423325
 20
3.818506
 30
0.0
 10
19.507294
 20
3.811883
 30
0.0
 10
19.578431
 20
3.823149
 30
0.0
 10
19.578434
 20
3.823149
 30
0.0
  0
LWPOLYLINE
  5
107
100
AcDbEntity
  8
Layer_1
 62
7
100
AcDbPolyline
 90
10
 70
0
 10
19.430026
 20
3.866544
 30
0.0
 10
19.430519
 20
3.894927
 30
0.0
 10
19.450259
 20
3.910044
 30
0.0
 10
19.477614
 20
3.908535
 30
0.0
 10
19.500953
 20
3.887037
 30
0.0
 10
19.511385
 20
3.854146
 30
0.0
 10
19.475601
 20
3.848102
 30
0.0
 10
19.446098
 20
3.853382
 30
0.0
 10
19.430026
 20
3.866544
 30
0.0
 10
19.430026
 20
3.866544
 30
0.0
  0
LWPOLYLINE
  5
108
100
AcDbEntity
  8
Layer_1
 62
7
100
AcDbPolyline
 90
17
 70
0
 10
19.117225
 20
3.860085
 30
0.0
 10
19.138508
 20
3.885658
 30
0.0
 10
19.142947
 20
3.910263
 30
0.0
 10
19.133230
 20
3.932316
 30
0.0
 10
19.112046
 20
3.950234
 30
0.0
 10
19.082083
 20
3.962433
 30
0.0
 10
19.046029
 20
3.967331
 30
0.0
 10
19.006575
 20
3.963345
 30
0.0
 10
18.966408
 20
3.948891
 30
0.0
 10
18.925740
 20
3.921456
 30
0.0
 10
18.919595
 20
3.888781
 30
0.0
 10
18.930742
 20
3.860076
 30
0.0
 10
18.961650
 20
3.846490
 30
0.0
 10
19.055687
 20
3.838455
 30
0.0
 10
19.090849
 20
3.845591
 30
0.0
 10
19.117225
 20
3.860085
 30
0.0
 10
19.117225
 20
3.860085
 30
0.0
  0
LWPOLYLINE
  5
109
100
AcDbEntity
  8
Layer_1
 62
7
100
AcDbPolyline
 90
13
 70
0
 10
18.990225
 20
3.882257
 30
0.0
 10
18.974331
 20
3.891246
 30
0.0
 10
18.968687
 20
3.904686
 30
0.0
 10
18.973421
 20
3.918724
 30
0.0
 10
18.988658
 20
3.929512
 30
0.0
 10
19.007384
 20
3.930957
 30
0.0
 10
19.025360
 20
3.923302
 30
0.0
 10
19.038870
 20
3.909123
 30
0.0
 10
19.044199
 20
3.890997
 30
0.0
 10
19.041593
 20
3.880709
 30
0.0
 10
19.032751
 20
3.875989
 30
0.0
 10
18.990224
 20
3.882257
 30
0.0
 10
18.990225
 20
3.882257
 30
0.0
  0
LWPOLYLINE
  5
10a
100
AcDbEntity
  8
Layer_1
 62
7
100
AcDbPolyline
 90
200
 70
0
 10
3.378970
 20
0.720726
 30
0.0
 10
3.364916
 20
0.822326
 30
0.0
 10
3.364035
 20
0.852078
 30
0.0
 10
3.371825
 20
0.863601
 30
0.0
 10
3.381200
 20
0.869197
 30
0.0
 10
3.385100
 20
0.882651
 30
0.0
 10
3.372999
 20
0.901701
 30
0.0
 10
3.366416
 20
0.919563
 30
0.0
 10
3.368418
 20
0.965201
 30
0.0
 10
3.369246
 20
1.017076
 30
0.0
 10
3.363612
 20
1.026812
 30
0.0
 10
3.353811
 20
1.025671
 30
0.0
 10
3.321302
 20
0.990537
 30
0.0
 10
3.270908
 20
0.911226
 30
0.0
 10
3.162745
 20
0.745224
 30
0.0
 10
3.126632
 20
0.709375
 30
0.0
 10
3.097225
 20
0.698501
 30
0.0
 10
3.076375
 20
0.703162
 30
0.0
 10
3.068652
 20
0.716396
 30
0.0
 10
3.074131
 20
0.737082
 30
0.0
 10
3.092887
 20
0.764098
 30
0.0
 10
3.175052
 20
0.869369
 30
0.0
 10
3.232926
 20
0.965892
 30
0.0
 10
3.315279
 20
1.092235
 30
0.0
 10
3.361899
 20
1.148036
 30
0.0
 10
3.353314
 20
1.250293
 30
0.0
 10
3.333473
 20
1.403351
 30
0.0
 10
3.321691
 20
1.574802
 30
0.0
 10
3.314201
 20
1.738768
 30
0.0
 10
3.295832
 20
1.916743
 30
0.0
 10
3.270828
 20
2.075772
 30
0.0
 10
3.243433
 20
2.182899
 30
0.0
 10
3.235004
 20
2.199626
 30
0.0
 10
3.221254
 20
2.207756
 30
0.0
 10
3.146484
 20
2.205538
 30
0.0
 10
2.915200
 20
2.179016
 30
0.0
 10
2.619925
 20
2.159552
 30
0.0
 10
2.492307
 20
2.155345
 30
0.0
 10
2.474140
 20
2.147556
 30
0.0
 10
2.470700
 20
2.133203
 30
0.0
 10
2.464720
 20
2.110637
 30
0.0
 10
2.449074
 20
2.100329
 30
0.0
 10
2.427207
 20
2.102981
 30
0.0
 10
2.402561
 20
2.119296
 30
0.0
 10
2.371009
 20
2.138528
 30
0.0
 10
2.335324
 20
2.146302
 30
0.0
 10
2.305622
 20
2.151964
 30
0.0
 10
2.279844
 20
2.166928
 30
0.0
 10
2.261675
 20
2.188157
 30
0.0
 10
2.254800
 20
2.212619
 30
0.0
 10
2.259349
 20
2.227022
 30
0.0
 10
2.272177
 20
2.238163
 30
0.0
 10
2.317750
 20
2.247902
 30
0.0
 10
2.335906
 20
2.259359
 30
0.0
 10
2.348327
 20
2.286376
 30
0.0
 10
2.351984
 20
2.317924
 30
0.0
 10
2.343850
 20
2.342972
 30
0.0
 10
2.318995
 20
2.476230
 30
0.0
 10
2.304070
 20
2.573389
 30
0.0
 10
2.282712
 20
2.621103
 30
0.0
 10
2.264980
 20
2.654341
 30
0.0
 10
2.264641
 20
2.705102
 30
0.0
 10
2.284538
 20
2.769256
 30
0.0
 10
2.321983
 20
2.810770
 30
0.0
 10
2.366681
 20
2.822920
 30
0.0
 10
2.388533
 20
2.815881
 30
0.0
 10
2.408338
 20
2.798980
 30
0.0
 10
2.425225
 20
2.787825
 30
0.0
 10
2.450992
 20
2.782336
 30
0.0
 10
2.518325
 20
2.789307
 30
0.0
 10
2.537550
 20
2.800775
 30
0.0
 10
2.546146
 20
2.818401
 30
0.0
 10
2.543213
 20
2.836502
 30
0.0
 10
2.527850
 20
2.849395
 30
0.0
 10
2.514891
 20
2.861486
 30
0.0
 10
2.509336
 20
2.880802
 30
0.0
 10
2.511708
 20
2.900888
 30
0.0
 10
2.522528
 20
2.915288
 30
0.0
 10
2.530140
 20
2.931511
 30
0.0
 10
2.527516
 20
2.957377
 30
0.0
 10
2.516968
 20
2.983717
 30
0.0
 10
2.500808
 20
3.001361
 30
0.0
 10
2.487974
 20
3.021372
 30
0.0
 10
2.490256
 20
3.065993
 30
0.0
 10
2.492193
 20
3.112708
 30
0.0
 10
2.478185
 20
3.140302
 30
0.0
 10
2.458000
 20
3.178231
 30
0.0
 10
2.426250
 20
3.225802
 30
0.0
 10
2.402495
 20
3.258333
 30
0.0
 10
2.394500
 20
3.296194
 30
0.0
 10
2.402058
 20
3.331562
 30
0.0
 10
2.443875
 20
3.343381
 30
0.0
 10
2.549871
 20
3.343241
 30
0.0
 10
2.595128
 20
3.335989
 30
0.0
 10
2.617792
 20
3.325718
 30
0.0
 10
2.700048
 20
3.314702
 30
0.0
 10
2.750611
 20
3.316657
 30
0.0
 10
2.772127
 20
3.330091
 30
0.0
 10
2.768736
 20
3.366363
 30
0.0
 10
2.744580
 20
3.436831
 30
0.0
 10
2.715000
 20
3.505656
 30
0.0
 10
2.683091
 20
3.551003
 30
0.0
 10
2.644910
 20
3.576879
 30
0.0
 10
2.596515
 20
3.587288
 30
0.0
 10
2.549278
 20
3.596258
 30
0.0
 10
2.536531
 20
3.624492
 30
0.0
 10
2.532513
 20
3.657602
 30
0.0
 10
2.768306
 20
3.657602
 30
0.0
 10
2.967236
 20
3.661072
 30
0.0
 10
2.997533
 20
3.667757
 30
0.0
 10
3.003818
 20
3.679827
 30
0.0
 10
2.978700
 20
3.733802
 30
0.0
 10
2.960804
 20
3.770039
 30
0.0
 10
2.953583
 20
3.813177
 30
0.0
 10
2.948872
 20
3.849643
 30
0.0
 10
2.934250
 20
3.860802
 30
0.0
 10
2.919915
 20
3.870525
 30
0.0
 10
2.915200
 20
3.900087
 30
0.0
 10
2.915200
 20
3.939372
 30
0.0
 10
3.178725
 20
3.932652
 30
0.0
 10
3.446726
 20
3.925117
 30
0.0
 10
3.447206
 20
3.825877
 30
0.0
 10
3.449739
 20
3.732763
 30
0.0
 10
3.477999
 20
3.660521
 30
0.0
 10
3.530916
 20
3.571621
 30
0.0
 10
3.590900
 20
3.486152
 30
0.0
 10
3.636850
 20
3.430389
 30
0.0
 10
3.663185
 20
3.421110
 30
0.0
 10
3.704796
 20
3.416231
 30
0.0
 10
3.787019
 20
3.399627
 30
0.0
 10
3.799795
 20
3.342548
 30
0.0
 10
3.816150
 20
3.238502
 30
0.0
 10
3.842695
 20
3.098802
 30
0.0
 10
3.868970
 20
2.974862
 30
0.0
 10
3.888143
 20
2.940212
 30
0.0
 10
3.933642
 20
2.936762
 30
0.0
 10
3.974761
 20
2.934667
 30
0.0
 10
3.994257
 20
2.921002
 30
0.0
 10
4.025784
 20
2.855843
 30
0.0
 10
4.039567
 20
2.829873
 30
0.0
 10
4.053790
 20
2.816307
 30
0.0
 10
4.112949
 20
2.811393
 30
0.0
 10
4.163744
 20
2.807370
 30
0.0
 10
4.176965
 20
2.800322
 30
0.0
 10
4.182125
 20
2.789262
 30
0.0
 10
4.168432
 20
2.753140
 30
0.0
 10
4.123004
 20
2.695077
 30
0.0
 10
4.084074
 20
2.647320
 30
0.0
 10
4.066240
 20
2.609077
 30
0.0
 10
4.065695
 20
2.562850
 30
0.0
 10
4.078633
 20
2.491142
 30
0.0
 10
4.086577
 20
2.473113
 30
0.0
 10
4.108254
 20
2.466193
 30
0.0
 10
4.238063
 20
2.483523
 30
0.0
 10
4.278644
 20
2.485238
 30
0.0
 10
4.298975
 20
2.464798
 30
0.0
 10
4.307606
 20
2.441701
 30
0.0
 10
4.303524
 20
2.425425
 30
0.0
 10
4.285284
 20
2.414188
 30
0.0
 10
4.251438
 20
2.406208
 30
0.0
 10
4.058209
 20
2.366331
 30
0.0
 10
3.699395
 20
2.290496
 30
0.0
 10
3.496953
 20
2.260461
 30
0.0
 10
3.334427
 20
2.235274
 30
0.0
 10
3.329801
 20
2.193412
 30
0.0
 10
3.346752
 20
2.075330
 30
0.0
 10
3.381175
 20
1.765302
 30
0.0
 10
3.391772
 20
1.636501
 30
0.0
 10
3.409402
 20
1.591080
 30
0.0
 10
3.422360
 20
1.578087
 30
0.0
 10
3.405920
 20
1.575205
 30
0.0
 10
3.388083
 20
1.567070
 30
0.0
 10
3.389311
 20
1.533527
 30
0.0
 10
3.411451
 20
1.349088
 30
0.0
 10
3.437588
 20
1.199115
 30
0.0
 10
3.448609
 20
1.167653
 30
0.0
 10
3.457399
 20
1.147972
 30
0.0
 10
3.492204
 20
1.143001
 30
0.0
 10
3.527273
 20
1.137630
 30
0.0
 10
3.543063
 20
1.120110
 30
0.0
 10
3.709018
 20
0.937142
 30
0.0
 10
3.837912
 20
0.799984
 30
0.0
 10
3.861494
 20
0.764611
 30
0.0
 10
3.867709
 20
0.739048
 30
0.0
 10
3.861020
 20
0.707133
 30
0.0
 10
3.821311
 20
0.705342
 30
0.0
 10
3.767336
 20
0.720489
 30
0.0
 10
3.620206
 20
0.901701
 30
0.0
 10
3.529005
 20
1.006476
 30
0.0
 10
3.480687
 20
1.062780
 30
0.0
 10
3.451490
 20
1.079667
 30
0.0
 10
3.438950
 20
1.056783
 30
0.0
 10
3.440605
 20
0.993776
 30
0.0
 10
3.456892
 20
0.784226
 30
0.0
 10
3.465003
 20
0.660401
 30
0.0
 10
3.425833
 20
0.660401
 30
0.0
 10
3.403853
 20
0.661774
 30
0.0
 10
3.391201
 20
0.669089
 30
0.0
 10
3.378979
 20
0.720726
 30
0.0
 10
3.378970
 20
0.720726
 30
0.0
  0
LWPOLYLINE
  5
10b
100
AcDbEntity
  8
Layer_1
 62
7
100
AcDbPolyline
 90
45
 70
0
 10
2.851700
 20
2.247807
 30
0.0
 10
3.377375
 20
2.313707
 30
0.0
 10
3.804042
 20
2.381111
 30
0.0
 10
3.940567
 20
2.419829
 30
0.0
 10
3.986597
 20
2.444623
 30
0.0
 10
3.994700
 20
2.488698
 30
0.0
 10
3.989907
 20
2.527926
 30
0.0
 10
3.976017
 20
2.552436
 30
0.0
 10
3.953762
 20
2.561544
 30
0.0
 10
3.923877
 20
2.554569
 30
0.0
 10
3.870364
 20
2.539937
 30
0.0
 10
3.815031
 20
2.545285
 30
0.0
 10
3.755186
 20
2.571345
 30
0.0
 10
3.688136
 20
2.618853
 30
0.0
 10
3.621454
 20
2.664002
 30
0.0
 10
3.605948
 20
2.664305
 30
0.0
 10
3.601000
 20
2.650238
 30
0.0
 10
3.585742
 20
2.617208
 30
0.0
 10
3.547528
 20
2.572683
 30
0.0
 10
3.497699
 20
2.528137
 30
0.0
 10
3.447598
 20
2.495045
 30
0.0
 10
3.382979
 20
2.470928
 30
0.0
 10
3.311291
 20
2.463802
 30
0.0
 10
3.236175
 20
2.472393
 30
0.0
 10
3.159292
 20
2.513794
 30
0.0
 10
3.098399
 20
2.558664
 30
0.0
 10
3.060613
 20
2.596344
 30
0.0
 10
3.041838
 20
2.618487
 30
0.0
 10
3.024083
 20
2.627622
 30
0.0
 10
3.009062
 20
2.623487
 30
0.0
 10
2.998487
 20
2.605821
 30
0.0
 10
2.971682
 20
2.569703
 30
0.0
 10
2.918194
 20
2.520412
 30
0.0
 10
2.854728
 20
2.471915
 30
0.0
 10
2.797991
 20
2.438180
 30
0.0
 10
2.729261
 20
2.418761
 30
0.0
 10
2.621695
 20
2.413281
 30
0.0
 10
2.499637
 20
2.412999
 30
0.0
 10
2.491630
 20
2.346324
 30
0.0
 10
2.484039
 20
2.278351
 30
0.0
 10
2.491829
 20
2.245793
 30
0.0
 10
2.528418
 20
2.235774
 30
0.0
 10
2.607225
 20
2.235419
 30
0.0
 10
2.851700
 20
2.247803
 30
0.0
 10
2.851700
 20
2.247807
 30
0.0
  0
LWPOLYLINE
  5
10c
100
AcDbEntity
  8
Layer_1
 62
7
100
AcDbPolyline
 90
15
 70
0
 10
2.807250
 20
2.806689
 30
0.0
 10
3.302550
 20
2.863738
 30
0.0
 10
3.767016
 20
2.917052
 30
0.0
 10
3.814267
 20
2.934130
 30
0.0
 10
3.816900
 20
2.959469
 30
0.0
 10
3.804753
 20
3.003210
 30
0.0
 10
3.496778
 20
2.954020
 30
0.0
 10
3.048550
 20
2.883342
 30
0.0
 10
2.763908
 20
2.846901
 30
0.0
 10
2.679277
 20
2.827777
 30
0.0
 10
2.648500
 20
2.810841
 30
0.0
 10
2.658318
 20
2.799151
 30
0.0
 10
2.687911
 20
2.794566
 30
0.0
 10
2.807250
 20
2.806689
 30
0.0
 10
2.807250
 20
2.806689
 30
0.0
  0
LWPOLYLINE
  5
10d
100
AcDbEntity
  8
Layer_1
 62
7
100
AcDbPolyline
 90
23
 70
0
 10
2.813990
 20
2.965436
 30
0.0
 10
3.061250
 20
3.010970
 30
0.0
 10
3.213650
 20
3.041732
 30
0.0
 10
3.521617
 20
3.107323
 30
0.0
 10
3.753383
 20
3.155952
 30
0.0
 10
3.753392
 20
3.216277
 30
0.0
 10
3.748295
 20
3.268204
 30
0.0
 10
3.737347
 20
3.275338
 30
0.0
 10
3.716740
 20
3.276602
 30
0.0
 10
3.573865
 20
3.244589
 30
0.0
 10
3.308900
 20
3.182521
 30
0.0
 10
2.999418
 20
3.113028
 30
0.0
 10
2.850502
 20
3.080870
 30
0.0
 10
2.704140
 20
3.058935
 30
0.0
 10
2.612907
 20
3.047936
 30
0.0
 10
2.567881
 20
3.033811
 30
0.0
 10
2.559406
 20
3.023222
 30
0.0
 10
2.558534
 20
3.009027
 30
0.0
 10
2.574338
 20
2.966050
 30
0.0
 10
2.589484
 20
2.943420
 30
0.0
 10
2.620958
 20
2.935809
 30
0.0
 10
2.813990
 20
2.965437
 30
0.0
 10
2.813990
 20
2.965436
 30
0.0
  0
LWPOLYLINE
  5
10e
100
AcDbEntity
  8
Layer_1
 62
7
100
AcDbPolyline
 90
22
 70
0
 10
2.871487
 20
3.225691
 30
0.0
 10
3.078524
 20
3.247805
 30
0.0
 10
3.268508
 20
3.280915
 30
0.0
 10
3.407435
 20
3.317784
 30
0.0
 10
3.447126
 20
3.335369
 30
0.0
 10
3.461300
 20
3.351180
 30
0.0
 10
3.451279
 20
3.360219
 30
0.0
 10
3.423936
 20
3.364922
 30
0.0
 10
3.333616
 20
3.362737
 30
0.0
 10
3.223000
 20
3.347465
 30
0.0
 10
3.124750
 20
3.321941
 30
0.0
 10
3.068852
 20
3.303670
 30
0.0
 10
3.008804
 20
3.293948
 30
0.0
 10
2.753275
 20
3.289358
 30
0.0
 10
2.499901
 20
3.282653
 30
0.0
 10
2.480732
 20
3.276694
 30
0.0
 10
2.473399
 20
3.267959
 30
0.0
 10
2.482579
 20
3.240038
 30
0.0
 10
2.513489
 20
3.223502
 30
0.0
 10
2.586209
 20
3.215687
 30
0.0
 10
2.871487
 20
3.225691
 30
0.0
 10
2.871487
 20
3.225691
 30
0.0
  0
LWPOLYLINE
  5
10f
100
AcDbEntity
  8
Layer_1
 62
7
100
AcDbPolyline
 90
48
 70
0
 10
2.976880
 20
3.384552
 30
0.0
 10
2.996043
 20
3.419283
 30
0.0
 10
3.044135
 20
3.428113
 30
0.0
 10
3.068427
 20
3.422351
 30
0.0
 10
3.085251
 20
3.410550
 30
0.0
 10
3.098470
 20
3.401614
 30
0.0
 10
3.125461
 20
3.397140
 30
0.0
 10
3.248575
 20
3.399737
 30
0.0
 10
3.397800
 20
3.407377
 30
0.0
 10
3.397800
 20
3.462193
 30
0.0
 10
3.403234
 20
3.508190
 30
0.0
 10
3.423200
 20
3.530602
 30
0.0
 10
3.442358
 20
3.537624
 30
0.0
 10
3.448600
 20
3.531048
 30
0.0
 10
3.454196
 20
3.521763
 30
0.0
 10
3.467650
 20
3.517901
 30
0.0
 10
3.480551
 20
3.522996
 30
0.0
 10
3.485966
 20
3.536848
 30
0.0
 10
3.473554
 20
3.582236
 30
0.0
 10
3.448622
 20
3.601994
 30
0.0
 10
3.387042
 20
3.606801
 30
0.0
 10
3.320685
 20
3.600701
 30
0.0
 10
3.284951
 20
3.567948
 30
0.0
 10
3.256076
 20
3.541366
 30
0.0
 10
3.224847
 20
3.532027
 30
0.0
 10
3.196361
 20
3.540042
 30
0.0
 10
3.175714
 20
3.565526
 30
0.0
 10
3.164642
 20
3.581803
 30
0.0
 10
3.136616
 20
3.590313
 30
0.0
 10
2.950289
 20
3.594101
 30
0.0
 10
2.737572
 20
3.584576
 30
0.0
 10
2.744432
 20
3.547798
 30
0.0
 10
2.759733
 20
3.524580
 30
0.0
 10
2.777839
 20
3.519667
 30
0.0
 10
2.793119
 20
3.537802
 30
0.0
 10
2.807744
 20
3.551590
 30
0.0
 10
2.835752
 20
3.553677
 30
0.0
 10
2.865192
 20
3.542083
 30
0.0
 10
2.871397
 20
3.498851
 30
0.0
 10
2.866668
 20
3.456713
 30
0.0
 10
2.854376
 20
3.426736
 30
0.0
 10
2.843963
 20
3.403859
 30
0.0
 10
2.845268
 20
3.378459
 30
0.0
 10
2.862791
 20
3.356953
 30
0.0
 10
2.912974
 20
3.355324
 30
0.0
 10
2.961285
 20
3.363449
 30
0.0
 10
2.976880
 20
3.384551
 30
0.0
 10
2.976880
 20
3.384552
 30
0.0
  0
LWPOLYLINE
  5
110
100
AcDbEntity
  8
Layer_1
 62
7
100
AcDbPolyline
 90
10
 70
0
 10
3.524800
 20
3.460752
 30
0.0
 10
3.520264
 20
3.494619
 30
0.0
 10
3.505750
 20
3.505202
 30
0.0
 10
3.491236
 20
3.494619
 30
0.0
 10
3.486700
 20
3.460752
 30
0.0
 10
3.491236
 20
3.426886
 30
0.0
 10
3.505750
 20
3.416302
 30
0.0
 10
3.520264
 20
3.426886
 30
0.0
 10
3.524800
 20
3.460752
 30
0.0
 10
3.524800
 20
3.460752
 30
0.0
  0
LWPOLYLINE
  5
111
100
AcDbEntity
  8
Layer_1
 62
7
100
AcDbPolyline
 90
14
 70
0
 10
3.370075
 20
3.652243
 30
0.0
 10
3.380997
 20
3.665493
 30
0.0
 10
3.382775
 20
3.691402
 30
0.0
 10
3.370009
 20
3.721457
 30
0.0
 10
3.334300
 20
3.741308
 30
0.0
 10
3.268204
 20
3.752758
 30
0.0
 10
3.174654
 20
3.757970
 30
0.0
 10
3.091077
 20
3.756214
 30
0.0
 10
3.054900
 20
3.746759
 30
0.0
 10
3.075319
 20
3.683285
 30
0.0
 10
3.095738
 20
3.632254
 30
0.0
 10
3.224544
 20
3.639641
 30
0.0
 10
3.370075
 20
3.652243
 30
0.0
 10
3.370075
 20
3.652243
 30
0.0
  0
LWPOLYLINE
  5
112
100
AcDbEntity
  8
Layer_1
 62
7
100
AcDbPolyline
 90
108
 70
0
 10
20.187200
 20
5.453248
 30
0.0
 10
20.091950
 20
5.479494
 30
0.0
 10
19.913356
 20
5.659909
 30
0.0
 10
19.776452
 20
5.791096
 30
0.0
 10
19.701999
 20
5.848546
 30
0.0
 10
19.666629
 20
5.848775
 30
0.0
 10
19.626592
 20
5.834671
 30
0.0
 10
19.548551
 20
5.805577
 30
0.0
 10
19.467837
 20
5.800354
 30
0.0
 10
19.378053
 20
5.819524
 30
0.0
 10
19.272800
 20
5.863613
 30
0.0
 10
19.175788
 20
5.923149
 30
0.0
 10
19.087011
 20
5.999172
 30
0.0
 10
19.015216
 20
6.082975
 30
0.0
 10
18.969149
 20
6.165852
 30
0.0
 10
18.929769
 20
6.267452
 30
0.0
 10
18.892162
 20
6.430415
 30
0.0
 10
18.868353
 20
6.542928
 30
0.0
 10
18.847688
 20
6.602283
 30
0.0
 10
18.820282
 20
6.625451
 30
0.0
 10
18.776249
 20
6.629402
 30
0.0
 10
18.661953
 20
6.642347
 30
0.0
 10
18.542729
 20
6.677225
 30
0.0
 10
18.434330
 20
6.728103
 30
0.0
 10
18.352508
 20
6.789045
 30
0.0
 10
18.319426
 20
6.833668
 30
0.0
 10
18.291900
 20
6.893141
 30
0.0
 10
18.255359
 20
7.043559
 30
0.0
 10
18.246581
 20
7.214134
 30
0.0
 10
18.253756
 20
7.298804
 30
0.0
 10
18.269257
 20
7.378702
 30
0.0
 10
18.308143
 20
7.543802
 30
0.0
 10
18.326868
 20
7.632702
 30
0.0
 10
18.329207
 20
7.650855
 30
0.0
 10
18.321208
 20
7.663319
 30
0.0
 10
18.250513
 20
7.688478
 30
0.0
 10
18.196138
 20
7.708728
 30
0.0
 10
18.147861
 20
7.737810
 30
0.0
 10
18.104371
 20
7.777752
 30
0.0
 10
18.064356
 20
7.830586
 30
0.0
 10
17.989511
 20
7.983053
 30
0.0
 10
17.912836
 20
8.211454
 30
0.0
 10
17.902991
 20
8.278094
 30
0.0
 10
17.915419
 20
8.347044
 30
0.0
 10
17.952414
 20
8.425128
 30
0.0
 10
18.016271
 20
8.519171
 30
0.0
 10
18.085500
 20
8.598317
 30
0.0
 10
18.166308
 20
8.646523
 30
0.0
 10
18.375634
 20
8.737689
 30
0.0
 10
18.494925
 20
8.772892
 30
0.0
 10
18.529349
 20
8.778725
 30
0.0
 10
18.544851
 20
8.790644
 30
0.0
 10
18.544200
 20
8.815504
 30
0.0
 10
18.530163
 20
8.860162
 30
0.0
 10
18.516407
 20
8.933995
 30
0.0
 10
18.509228
 20
9.037962
 30
0.0
 10
18.506659
 20
9.163052
 30
0.0
 10
18.588870
 20
9.309965
 30
0.0
 10
18.706278
 20
9.502550
 30
0.0
 10
18.757980
 20
9.565792
 30
0.0
 10
18.821421
 20
9.629547
 30
0.0
 10
18.890103
 20
9.684759
 30
0.0
 10
18.969080
 20
9.726396
 30
0.0
 10
19.068022
 20
9.758463
 30
0.0
 10
19.196601
 20
9.784968
 30
0.0
 10
19.392267
 20
9.818605
 30
0.0
 10
19.447131
 20
9.831705
 30
0.0
 10
19.488821
 20
9.849640
 30
0.0
 10
19.517181
 20
9.872319
 30
0.0
 10
19.532056
 20
9.899652
 30
0.0
 10
19.554748
 20
9.940670
 30
0.0
 10
19.597500
 20
9.991675
 30
0.0
 10
19.648340
 20
10.039963
 30
0.0
 10
19.695295
 20
10.072834
 30
0.0
 10
19.825732
 20
10.160376
 30
0.0
 10
19.908786
 20
10.214366
 30
0.0
 10
20.009439
 20
10.236974
 30
0.0
 10
20.144177
 20
10.246911
 30
0.0
 10
20.273748
 20
10.235551
 30
0.0
 10
20.402918
 20
10.202068
 30
0.0
 10
20.536451
 20
10.145637
 30
0.0
 10
20.590647
 20
10.110359
 30
0.0
 10
20.625351
 20
10.067237
 30
0.0
 10
20.648313
 20
10.034128
 30
0.0
 10
20.667853
 20
10.020336
 30
0.0
 10
20.741947
 20
10.070470
 30
0.0
 10
20.792717
 20
10.109212
 30
0.0
 10
20.841469
 20
10.133321
 30
0.0
 10
20.890924
 20
10.143756
 30
0.0
 10
20.943803
 20
10.141473
 30
0.0
 10
21.000001
 20
10.133046
 30
0.0
 10
21.000001
 20
7.818112
 30
0.0
 10
21.000001
 20
5.503179
 30
0.0
 10
20.967653
 20
5.488441
 30
0.0
 10
20.916347
 20
5.473702
 30
0.0
 10
20.882287
 20
5.482746
 30
0.0
 10
20.834080
 20
5.506966
 30
0.0
 10
20.725582
 20
5.583468
 30
0.0
 10
20.653015
 20
5.635367
 30
0.0
 10
20.636101
 20
5.633630
 30
0.0
 10
20.625983
 20
5.615394
 30
0.0
 10
20.590266
 20
5.573118
 30
0.0
 10
20.517693
 20
5.522307
 30
0.0
 10
20.427669
 20
5.474708
 30
0.0
 10
20.339601
 20
5.442065
 30
0.0
 10
20.275708
 20
5.434312
 30
0.0
 10
20.187201
 20
5.453248
 30
0.0
 10
20.187200
 20
5.453248
 30
0.0
  0
LWPOLYLINE
  5
113
100
AcDbEntity
  8
Layer_1
 62
7
100
AcDbPolyline
 90
269
 70
0
 10
3.855000
 20
7.041453
 30
0.0
 10
3.720078
 20
7.079848
 30
0.0
 10
3.620313
 20
7.129981
 30
0.0
 10
3.512100
 20
7.196271
 30
0.0
 10
3.483703
 20
7.220722
 30
0.0
 10
3.459030
 20
7.239804
 30
0.0
 10
3.419760
 20
7.245796
 30
0.0
 10
3.371272
 20
7.238761
 30
0.0
 10
3.318945
 20
7.218764
 30
0.0
 10
3.244712
 20
7.173934
 30
0.0
 10
3.220108
 20
7.162006
 30
0.0
 10
3.177230
 20
7.154500
 30
0.0
 10
3.136514
 20
7.153497
 30
0.0
 10
3.118400
 20
7.161075
 30
0.0
 10
3.111337
 20
7.171264
 30
0.0
 10
3.094358
 20
7.175502
 30
0.0
 10
3.071523
 20
7.182259
 30
0.0
 10
3.062436
 20
7.201074
 30
0.0
 10
3.067291
 20
7.229758
 30
0.0
 10
3.086283
 20
7.266125
 30
0.0
 10
3.119010
 20
7.337154
 30
0.0
 10
3.138272
 20
7.393454
 30
0.0
 10
3.182722
 20
7.469954
 30
0.0
 10
3.235405
 20
7.540915
 30
0.0
 10
3.279369
 20
7.580601
 30
0.0
 10
3.311014
 20
7.595020
 30
0.0
 10
3.303154
 20
7.737686
 30
0.0
 10
3.292892
 20
8.004029
 30
0.0
 10
3.293497
 20
8.385176
 30
0.0
 10
3.298980
 20
8.643094
 30
0.0
 10
3.304304
 20
8.696271
 30
0.0
 10
3.312075
 20
8.711668
 30
0.0
 10
3.351495
 20
8.676264
 30
0.0
 10
3.414141
 20
8.594036
 30
0.0
 10
3.476130
 20
8.498959
 30
0.0
 10
3.513579
 20
8.425008
 30
0.0
 10
3.544129
 20
8.343474
 30
0.0
 10
3.576968
 20
8.285228
 30
0.0
 10
3.619843
 20
8.239649
 30
0.0
 10
3.680500
 20
8.196114
 30
0.0
 10
3.734435
 20
8.170862
 30
0.0
 10
3.803838
 20
8.152297
 30
0.0
 10
3.971596
 20
8.135529
 30
0.0
 10
4.148873
 20
8.146404
 30
0.0
 10
4.230174
 20
8.162395
 30
0.0
 10
4.300768
 20
8.185521
 30
0.0
 10
4.455557
 20
8.258567
 30
0.0
 10
4.575295
 20
8.333593
 30
0.0
 10
4.661102
 20
8.411432
 30
0.0
 10
4.714099
 20
8.492917
 30
0.0
 10
4.744000
 20
8.586399
 30
0.0
 10
4.759039
 20
8.638658
 30
0.0
 10
4.774867
 20
8.655216
 30
0.0
 10
4.793595
 20
8.661401
 30
0.0
 10
4.809706
 20
8.655361
 30
0.0
 10
4.823754
 20
8.627831
 30
0.0
 10
4.864865
 20
8.451851
 30
0.0
 10
4.896525
 20
8.312151
 30
0.0
 10
4.953912
 20
8.029576
 30
0.0
 10
4.964513
 20
7.990919
 30
0.0
 10
4.979118
 20
7.976780
 30
0.0
 10
4.995150
 20
7.987452
 30
0.0
 10
5.010031
 20
8.023226
 30
0.0
 10
5.020092
 20
8.069851
 30
0.0
 10
5.021737
 20
8.117584
 30
0.0
 10
4.996942
 20
8.269847
 30
0.0
 10
4.977766
 20
8.388712
 30
0.0
 10
4.984242
 20
8.476529
 30
0.0
 10
4.998000
 20
8.607975
 30
0.0
 10
5.025235
 20
8.772035
 30
0.0
 10
5.048130
 20
8.935319
 30
0.0
 10
5.050168
 20
9.118646
 30
0.0
 10
5.033194
 20
9.279495
 30
0.0
 10
5.018154
 20
9.338203
 30
0.0
 10
4.999053
 20
9.375347
 30
0.0
 10
4.984937
 20
9.403389
 30
0.0
 10
4.978064
 20
9.439203
 30
0.0
 10
4.966036
 20
9.485911
 30
0.0
 10
4.939546
 20
9.540146
 30
0.0
 10
4.806240
 20
9.760346
 30
0.0
 10
4.753777
 20
9.861551
 30
0.0
 10
4.729389
 20
9.904414
 30
0.0
 10
4.685476
 20
9.909271
 30
0.0
 10
4.648188
 20
9.913672
 30
0.0
 10
4.613845
 20
9.928963
 30
0.0
 10
4.588674
 20
9.951219
 30
0.0
 10
4.578900
 20
9.976510
 30
0.0
 10
4.559850
 20
10.007601
 30
0.0
 10
4.540800
 20
10.041438
 30
0.0
 10
4.532650
 20
10.068042
 30
0.0
 10
4.508531
 20
10.089169
 30
0.0
 10
4.468943
 20
10.104532
 30
0.0
 10
4.414382
 20
10.113847
 30
0.0
 10
4.267178
 20
10.140953
 30
0.0
 10
4.113638
 20
10.186844
 30
0.0
 10
3.992849
 20
10.237732
 30
0.0
 10
3.956952
 20
10.260739
 30
0.0
 10
3.943900
 20
10.279825
 30
0.0
 10
3.938911
 20
10.293863
 30
0.0
 10
3.926916
 20
10.299701
 30
0.0
 10
3.864656
 20
10.349141
 30
0.0
 10
3.783192
 20
10.445751
 30
0.0
 10
3.753130
 20
10.501564
 30
0.0
 10
3.733332
 20
10.566071
 30
0.0
 10
3.724602
 20
10.635505
 30
0.0
 10
3.727741
 20
10.706101
 30
0.0
 10
3.744987
 20
10.799269
 30
0.0
 10
3.770652
 20
10.887472
 30
0.0
 10
3.803737
 20
10.969093
 30
0.0
 10
3.843247
 20
11.042514
 30
0.0
 10
3.888183
 20
11.106118
 30
0.0
 10
3.937550
 20
11.158286
 30
0.0
 10
3.990349
 20
11.197402
 30
0.0
 10
4.045585
 20
11.221847
 30
0.0
 10
4.094917
 20
11.236414
 30
0.0
 10
4.121387
 20
11.120222
 30
0.0
 10
4.153577
 20
11.011775
 30
0.0
 10
4.206598
 20
10.931532
 30
0.0
 10
4.272314
 20
10.864847
 30
0.0
 10
4.349821
 20
10.807990
 30
0.0
 10
4.439169
 20
10.762170
 30
0.0
 10
4.542084
 20
10.721295
 30
0.0
 10
4.639772
 20
10.691946
 30
0.0
 10
4.713441
 20
10.680701
 30
0.0
 10
4.767018
 20
10.680701
 30
0.0
 10
4.765043
 20
10.600892
 30
0.0
 10
4.768869
 20
10.530212
 30
0.0
 10
4.787892
 20
10.483417
 30
0.0
 10
4.800739
 20
10.458946
 30
0.0
 10
4.807743
 20
10.427861
 30
0.0
 10
4.809013
 20
10.305543
 30
0.0
 10
4.805305
 20
10.165334
 30
0.0
 10
4.857205
 20
10.111853
 30
0.0
 10
4.895559
 20
10.064714
 30
0.0
 10
4.906677
 20
10.029767
 30
0.0
 10
4.890484
 20
10.006135
 30
0.0
 10
4.846904
 20
9.992943
 30
0.0
 10
4.810527
 20
9.980445
 30
0.0
 10
4.799946
 20
9.951356
 30
0.0
 10
4.815695
 20
9.897044
 30
0.0
 10
4.858309
 20
9.808877
 30
0.0
 10
4.982557
 20
9.590345
 30
0.0
 10
5.044257
 20
9.477376
 30
0.0
 10
5.055519
 20
9.453186
 30
0.0
 10
5.069088
 20
9.450486
 30
0.0
 10
5.081860
 20
9.467582
 30
0.0
 10
5.090733
 20
9.502776
 30
0.0
 10
5.113130
 20
9.766686
 30
0.0
 10
5.120872
 20
9.934122
 30
0.0
 10
5.115394
 20
10.066255
 30
0.0
 10
5.094871
 20
10.180368
 30
0.0
 10
5.057479
 20
10.293741
 30
0.0
 10
5.022599
 20
10.376849
 30
0.0
 10
4.993924
 20
10.424801
 30
0.0
 10
4.963692
 20
10.446812
 30
0.0
 10
4.924146
 20
10.452101
 30
0.0
 10
4.868361
 20
10.466313
 30
0.0
 10
4.827393
 20
10.504409
 30
0.0
 10
4.805805
 20
10.559586
 30
0.0
 10
4.808161
 20
10.625037
 30
0.0
 10
4.818934
 20
10.678032
 30
0.0
 10
4.816523
 20
10.706003
 30
0.0
 10
4.796283
 20
10.716932
 30
0.0
 10
4.753565
 20
10.718801
 30
0.0
 10
4.672584
 20
10.729478
 30
0.0
 10
4.571732
 20
10.757785
 30
0.0
 10
4.467663
 20
10.798143
 30
0.0
 10
4.377035
 20
10.844969
 30
0.0
 10
4.303566
 20
10.899892
 30
0.0
 10
4.240982
 20
10.961779
 30
0.0
 10
4.191295
 20
11.037686
 30
0.0
 10
4.159583
 20
11.145238
 30
0.0
 10
4.139541
 20
11.261306
 30
0.0
 10
4.153795
 20
11.374502
 30
0.0
 10
4.172485
 20
11.451094
 30
0.0
 10
4.199155
 20
11.520347
 30
0.0
 10
4.234198
 20
11.582687
 30
0.0
 10
4.278003
 20
11.638543
 30
0.0
 10
4.330964
 20
11.688341
 30
0.0
 10
4.393470
 20
11.732508
 30
0.0
 10
4.465913
 20
11.771473
 30
0.0
 10
4.548686
 20
11.805661
 30
0.0
 10
4.618794
 20
11.825832
 30
0.0
 10
4.688849
 20
11.835429
 30
0.0
 10
4.758952
 20
11.834426
 30
0.0
 10
4.829204
 20
11.822800
 30
0.0
 10
4.899704
 20
11.800527
 30
0.0
 10
4.970553
 20
11.767583
 30
0.0
 10
5.041850
 20
11.723942
 30
0.0
 10
5.113697
 20
11.669583
 30
0.0
 10
5.221562
 20
11.556310
 30
0.0
 10
5.261582
 20
11.500408
 30
0.0
 10
5.277409
 20
11.463753
 30
0.0
 10
5.287659
 20
11.442701
 30
0.0
 10
5.321198
 20
11.352917
 30
0.0
 10
5.337788
 20
11.261556
 30
0.0
 10
5.334844
 20
11.165592
 30
0.0
 10
5.322562
 20
11.039568
 30
0.0
 10
5.311366
 20
11.002527
 30
0.0
 10
5.302809
 20
10.965393
 30
0.0
 10
5.293284
 20
10.932585
 30
0.0
 10
5.246988
 20
10.850000
 30
0.0
 10
5.217415
 20
10.796514
 30
0.0
 10
5.184771
 20
10.756141
 30
0.0
 10
5.148267
 20
10.728099
 30
0.0
 10
5.107113
 20
10.711606
 30
0.0
 10
5.067001
 20
10.692013
 30
0.0
 10
5.088444
 20
10.592522
 30
0.0
 10
5.116855
 20
10.504305
 30
0.0
 10
5.086404
 20
10.479647
 30
0.0
 10
5.062879
 20
10.452533
 30
0.0
 10
5.076430
 20
10.412271
 30
0.0
 10
5.137373
 20
10.272146
 30
0.0
 10
5.162728
 20
10.203397
 30
0.0
 10
5.175192
 20
10.129842
 30
0.0
 10
5.173430
 20
9.817101
 30
0.0
 10
5.171158
 20
9.447556
 30
0.0
 10
5.181216
 20
9.190889
 30
0.0
 10
5.192871
 20
9.132652
 30
0.0
 10
5.200777
 20
9.122393
 30
0.0
 10
5.211603
 20
9.121187
 30
0.0
 10
5.229608
 20
9.138324
 30
0.0
 10
5.241307
 20
9.182249
 30
0.0
 10
5.269845
 20
9.313249
 30
0.0
 10
5.284413
 20
9.354089
 30
0.0
 10
5.294590
 20
9.362925
 30
0.0
 10
5.302103
 20
9.327995
 30
0.0
 10
5.304080
 20
9.268246
 30
0.0
 10
5.292192
 20
9.143677
 30
0.0
 10
5.277563
 20
9.051039
 30
0.0
 10
5.269713
 20
8.939691
 30
0.0
 10
5.269585
 20
8.835167
 30
0.0
 10
5.278123
 20
8.763001
 30
0.0
 10
5.289882
 20
8.705370
 30
0.0
 10
5.293001
 20
8.639981
 30
0.0
 10
5.272501
 20
8.439151
 30
0.0
 10
5.224452
 20
8.203504
 30
0.0
 10
5.197347
 20
8.108898
 30
0.0
 10
5.177036
 20
8.064501
 30
0.0
 10
5.133129
 20
8.005444
 30
0.0
 10
5.093363
 20
7.917193
 30
0.0
 10
5.061114
 20
7.832899
 30
0.0
 10
5.048812
 20
7.786829
 30
0.0
 10
5.044714
 20
7.766545
 30
0.0
 10
5.032594
 20
7.750556
 30
0.0
 10
4.985312
 20
7.732343
 30
0.0
 10
4.959814
 20
7.721473
 30
0.0
 10
4.953562
 20
7.690659
 30
0.0
 10
4.961109
 20
7.658312
 30
0.0
 10
4.994346
 20
7.642798
 30
0.0
 10
5.046837
 20
7.610342
 30
0.0
 10
5.124521
 20
7.530785
 30
0.0
 10
5.213912
 20
7.423181
 30
0.0
 10
5.168660
 20
7.374567
 30
0.0
 10
5.103094
 20
7.332397
 30
0.0
 10
4.922401
 20
7.330184
 30
0.0
 10
4.771904
 20
7.335550
 30
0.0
 10
4.751609
 20
7.301191
 30
0.0
 10
4.731312
 20
7.248874
 30
0.0
 10
4.717320
 20
7.216449
 30
0.0
 10
4.681393
 20
7.177398
 30
0.0
 10
4.632600
 20
7.139916
 30
0.0
 10
4.580012
 20
7.112197
 30
0.0
 10
4.487176
 20
7.088412
 30
0.0
 10
4.340772
 20
7.062888
 30
0.0
 10
4.032812
 20
7.028807
 30
0.0
 10
3.941293
 20
7.030651
 30
0.0
 10
3.855012
 20
7.041453
 30
0.0
 10
3.855000
 20
7.041453
 30
0.0
  0
LWPOLYLINE
  5
114
100
AcDbEntity
  8
Layer_1
 62
7
100
AcDbPolyline
 90
67
 70
0
 10
3.538711
 20
7.335541
 30
0.0
 10
3.583074
 20
7.366002
 30
0.0
 10
3.717344
 20
7.411232
 30
0.0
 10
3.835866
 20
7.456462
 30
0.0
 10
4.148723
 20
7.452507
 30
0.0
 10
4.461578
 20
7.448552
 30
0.0
 10
4.564623
 20
7.394577
 30
0.0
 10
4.675053
 20
7.344338
 30
0.0
 10
4.700361
 20
7.344721
 30
0.0
 10
4.718245
 20
7.359225
 30
0.0
 10
4.724088
 20
7.370857
 30
0.0
 10
4.721849
 20
7.385040
 30
0.0
 10
4.688050
 20
7.433558
 30
0.0
 10
4.642400
 20
7.502280
 30
0.0
 10
4.623350
 20
7.531102
 30
0.0
 10
4.609896
 20
7.551348
 30
0.0
 10
4.604300
 20
7.577821
 30
0.0
 10
4.618987
 20
7.607976
 30
0.0
 10
4.659512
 20
7.633379
 30
0.0
 10
4.720568
 20
7.651745
 30
0.0
 10
4.796852
 20
7.660788
 30
0.0
 10
4.880003
 20
7.664452
 30
0.0
 10
4.888080
 20
7.804252
 30
0.0
 10
4.889743
 20
7.917368
 30
0.0
 10
4.881231
 20
8.030064
 30
0.0
 10
4.862135
 20
8.145716
 30
0.0
 10
4.832048
 20
8.267702
 30
0.0
 10
4.798562
 20
8.404227
 30
0.0
 10
4.789686
 20
8.433325
 30
0.0
 10
4.777534
 20
8.445322
 30
0.0
 10
4.712250
 20
8.383748
 30
0.0
 10
4.605288
 20
8.280519
 30
0.0
 10
4.468762
 20
8.187821
 30
0.0
 10
4.316504
 20
8.113648
 30
0.0
 10
4.162349
 20
8.065993
 30
0.0
 10
4.027909
 20
8.052179
 30
0.0
 10
3.877527
 20
8.058615
 30
0.0
 10
3.737156
 20
8.082586
 30
0.0
 10
3.632750
 20
8.121378
 30
0.0
 10
3.567017
 20
8.166000
 30
0.0
 10
3.519910
 20
8.216117
 30
0.0
 10
3.484681
 20
8.281172
 30
0.0
 10
3.454581
 20
8.370602
 30
0.0
 10
3.424281
 20
8.463063
 30
0.0
 10
3.402725
 20
8.504957
 30
0.0
 10
3.379653
 20
8.541671
 30
0.0
 10
3.370358
 20
8.563445
 30
0.0
 10
3.358876
 20
8.572502
 30
0.0
 10
3.350932
 20
8.540857
 30
0.0
 10
3.352738
 20
8.448677
 30
0.0
 10
3.367430
 20
7.998646
 30
0.0
 10
3.375220
 20
7.672440
 30
0.0
 10
3.401280
 20
7.696720
 30
0.0
 10
3.466884
 20
7.733513
 30
0.0
 10
3.532361
 20
7.744778
 30
0.0
 10
3.554627
 20
7.724234
 30
0.0
 10
3.575023
 20
7.681929
 30
0.0
 10
3.587639
 20
7.634013
 30
0.0
 10
3.586567
 20
7.596635
 30
0.0
 10
3.562209
 20
7.488032
 30
0.0
 10
3.541577
 20
7.413163
 30
0.0
 10
3.498370
 20
7.358646
 30
0.0
 10
3.448600
 20
7.301686
 30
0.0
 10
3.458909
 20
7.295170
 30
0.0
 10
3.483599
 20
7.300984
 30
0.0
 10
3.538711
 20
7.335541
 30
0.0
 10
3.538711
 20
7.335541
 30
0.0
  0
LWPOLYLINE
  5
115
100
AcDbEntity
  8
Layer_1
 62
7
100
AcDbPolyline
 90
49
 70
0
 10
4.051625
 20
7.544036
 30
0.0
 10
4.028553
 20
7.565658
 30
0.0
 10
4.002913
 20
7.576930
 30
0.0
 10
3.884374
 20
7.581902
 30
0.0
 10
3.789318
 20
7.585385
 30
0.0
 10
3.753400
 20
7.594602
 30
0.0
 10
3.744281
 20
7.603571
 30
0.0
 10
3.722359
 20
7.607302
 30
0.0
 10
3.688683
 20
7.615908
 30
0.0
 10
3.656363
 20
7.640424
 30
0.0
 10
3.627306
 20
7.678892
 30
0.0
 10
3.603419
 20
7.729357
 30
0.0
 10
3.589765
 20
7.778465
 30
0.0
 10
3.591816
 20
7.816657
 30
0.0
 10
3.611325
 20
7.849735
 30
0.0
 10
3.650048
 20
7.883498
 30
0.0
 10
3.745917
 20
7.934171
 30
0.0
 10
3.851793
 20
7.958740
 30
0.0
 10
3.952391
 20
7.955620
 30
0.0
 10
3.995935
 20
7.943179
 30
0.0
 10
4.032428
 20
7.923221
 30
0.0
 10
4.070061
 20
7.887500
 30
0.0
 10
4.097672
 20
7.845102
 30
0.0
 10
4.112899
 20
7.800806
 30
0.0
 10
4.113383
 20
7.759392
 30
0.0
 10
4.111341
 20
7.726341
 30
0.0
 10
4.135247
 20
7.723657
 30
0.0
 10
4.161109
 20
7.737489
 30
0.0
 10
4.175562
 20
7.778479
 30
0.0
 10
4.206447
 20
7.845522
 30
0.0
 10
4.264239
 20
7.900084
 30
0.0
 10
4.340993
 20
7.936774
 30
0.0
 10
4.428761
 20
7.950202
 30
0.0
 10
4.488398
 20
7.942323
 30
0.0
 10
4.536313
 20
7.902577
 30
0.0
 10
4.574468
 20
7.854889
 30
0.0
 10
4.603824
 20
7.804426
 30
0.0
 10
4.620608
 20
7.759026
 30
0.0
 10
4.621047
 20
7.726530
 30
0.0
 10
4.602608
 20
7.693621
 30
0.0
 10
4.573035
 20
7.662887
 30
0.0
 10
4.477399
 20
7.605337
 30
0.0
 10
4.392804
 20
7.573997
 30
0.0
 10
4.297045
 20
7.582284
 30
0.0
 10
4.199340
 20
7.597483
 30
0.0
 10
4.143623
 20
7.551826
 30
0.0
 10
4.087904
 20
7.506169
 30
0.0
 10
4.051625
 20
7.544036
 30
0.0
 10
4.051625
 20
7.544036
 30
0.0
  0
LWPOLYLINE
  5
116
100
AcDbEntity
  8
Layer_1
 62
7
100
AcDbPolyline
 90
23
 70
0
 10
3.905800
 20
7.643814
 30
0.0
 10
3.942850
 20
7.662338
 30
0.0
 10
3.974974
 20
7.677619
 30
0.0
 10
4.007393
 20
7.707320
 30
0.0
 10
4.034715
 20
7.745330
 30
0.0
 10
4.051551
 20
7.785539
 30
0.0
 10
4.053586
 20
7.809901
 30
0.0
 10
4.047320
 20
7.831938
 30
0.0
 10
4.011782
 20
7.867900
 30
0.0
 10
3.948731
 20
7.891147
 30
0.0
 10
3.861957
 20
7.899402
 30
0.0
 10
3.784925
 20
7.892152
 30
0.0
 10
3.719909
 20
7.858127
 30
0.0
 10
3.668831
 20
7.816194
 30
0.0
 10
3.654374
 20
7.772005
 30
0.0
 10
3.658592
 20
7.733570
 30
0.0
 10
3.678519
 20
7.701178
 30
0.0
 10
3.714557
 20
7.674406
 30
0.0
 10
3.767108
 20
7.652828
 30
0.0
 10
3.860806
 20
7.634622
 30
0.0
 10
3.893262
 20
7.635542
 30
0.0
 10
3.905800
 20
7.643814
 30
0.0
 10
3.905800
 20
7.643814
 30
0.0
  0
LWPOLYLINE
  5
117
100
AcDbEntity
  8
Layer_1
 62
7
100
AcDbPolyline
 90
13
 70
0
 10
3.799817
 20
7.770227
 30
0.0
 10
3.780074
 20
7.808558
 30
0.0
 10
3.787050
 20
7.823291
 30
0.0
 10
3.805383
 20
7.836535
 30
0.0
 10
3.848689
 20
7.846085
 30
0.0
 10
3.883098
 20
7.832737
 30
0.0
 10
3.898576
 20
7.804795
 30
0.0
 10
3.885088
 20
7.770566
 30
0.0
 10
3.864127
 20
7.753725
 30
0.0
 10
3.842380
 20
7.748053
 30
0.0
 10
3.820669
 20
7.753552
 30
0.0
 10
3.799817
 20
7.770227
 30
0.0
 10
3.799817
 20
7.770227
 30
0.0
  0
LWPOLYLINE
  5
118
100
AcDbEntity
  8
Layer_1
 62
7
100
AcDbPolyline
 90
20
 70
0
 10
4.426579
 20
7.648768
 30
0.0
 10
4.514355
 20
7.696237
 30
0.0
 10
4.542787
 20
7.723415
 30
0.0
 10
4.553500
 20
7.747141
 30
0.0
 10
4.544665
 20
7.785586
 30
0.0
 10
4.520979
 20
7.824196
 30
0.0
 10
4.486672
 20
7.857709
 30
0.0
 10
4.445974
 20
7.880865
 30
0.0
 10
4.404769
 20
7.893286
 30
0.0
 10
4.370377
 20
7.893136
 30
0.0
 10
4.334312
 20
7.878654
 30
0.0
 10
4.288087
 20
7.848076
 30
0.0
 10
4.244706
 20
7.808032
 30
0.0
 10
4.236000
 20
7.758788
 30
0.0
 10
4.247959
 20
7.687512
 30
0.0
 10
4.261596
 20
7.660516
 30
0.0
 10
4.279175
 20
7.642421
 30
0.0
 10
4.342394
 20
7.633673
 30
0.0
 10
4.426579
 20
7.648768
 30
0.0
 10
4.426579
 20
7.648768
 30
0.0
  0
LWPOLYLINE
  5
119
100
AcDbEntity
  8
Layer_1
 62
7
100
AcDbPolyline
 90
14
 70
0
 10
4.305371
 20
7.723115
 30
0.0
 10
4.303564
 20
7.751720
 30
0.0
 10
4.313739
 20
7.779837
 30
0.0
 10
4.333261
 20
7.802922
 30
0.0
 10
4.359492
 20
7.816431
 30
0.0
 10
4.395994
 20
7.815637
 30
0.0
 10
4.419197
 20
7.795772
 30
0.0
 10
4.426013
 20
7.762320
 30
0.0
 10
4.413352
 20
7.720767
 30
0.0
 10
4.390012
 20
7.700863
 30
0.0
 10
4.356511
 20
7.694787
 30
0.0
 10
4.324435
 20
7.702289
 30
0.0
 10
4.305371
 20
7.723115
 30
0.0
 10
4.305371
 20
7.723115
 30
0.0
  0
LWPOLYLINE
  5
11a
100
AcDbEntity
  8
Layer_1
 62
7
100
AcDbPolyline
 90
18
 70
0
 10
5.157651
 20
8.378827
 30
0.0
 10
5.196362
 20
8.484344
 30
0.0
 10
5.212492
 20
8.581138
 30
0.0
 10
5.206933
 20
8.686276
 30
0.0
 10
5.180581
 20
8.816823
 30
0.0
 10
5.150600
 20
8.922262
 30
0.0
 10
5.129818
 20
8.966148
 30
0.0
 10
5.115662
 20
8.937965
 30
0.0
 10
5.101621
 20
8.867777
 30
0.0
 10
5.075707
 20
8.712202
 30
0.0
 10
5.056264
 20
8.567110
 30
0.0
 10
5.053353
 20
8.422718
 30
0.0
 10
5.065750
 20
8.311942
 30
0.0
 10
5.077307
 20
8.279448
 30
0.0
 10
5.092232
 20
8.267702
 30
0.0
 10
5.118484
 20
8.300345
 30
0.0
 10
5.157651
 20
8.378827
 30
0.0
 10
5.157651
 20
8.378827
 30
0.0
  0
LWPOLYLINE
  5
11b
100
AcDbEntity
  8
Layer_1
 62
7
100
AcDbPolyline
 90
10
 70
0
 10
4.702725
 20
10.015607
 30
0.0
 10
4.721624
 20
10.025818
 30
0.0
 10
4.730618
 20
10.040138
 30
0.0
 10
4.728307
 20
10.052890
 30
0.0
 10
4.713289
 20
10.058402
 30
0.0
 10
4.672225
 20
10.048658
 30
0.0
 10
4.655100
 20
10.025293
 30
0.0
 10
4.663296
 20
10.008903
 30
0.0
 10
4.702725
 20
10.015607
 30
0.0
 10
4.702725
 20
10.015607
 30
0.0
  0
LWPOLYLINE
  5
11c
100
AcDbEntity
  8
Layer_1
 62
7
100
AcDbPolyline
 90
10
 70
0
 10
4.782100
 20
10.064752
 30
0.0
 10
4.776504
 20
10.078206
 30
0.0
 10
4.763050
 20
10.083802
 30
0.0
 10
4.749596
 20
10.078206
 30
0.0
 10
4.744000
 20
10.064752
 30
0.0
 10
4.749596
 20
10.051298
 30
0.0
 10
4.763050
 20
10.045702
 30
0.0
 10
4.776504
 20
10.051298
 30
0.0
 10
4.782100
 20
10.064752
 30
0.0
 10
4.782100
 20
10.064752
 30
0.0
  0
LWPOLYLINE
  5
11d
100
AcDbEntity
  8
Layer_1
 62
7
100
AcDbPolyline
 90
15
 70
0
 10
4.956195
 20
10.535816
 30
0.0
 10
4.976814
 20
10.541394
 30
0.0
 10
4.988090
 20
10.550841
 30
0.0
 10
4.993767
 20
10.600553
 30
0.0
 10
4.988314
 20
10.649194
 30
0.0
 10
4.965573
 20
10.670622
 30
0.0
 10
4.930536
 20
10.676738
 30
0.0
 10
4.897771
 20
10.665948
 30
0.0
 10
4.872665
 20
10.641529
 30
0.0
 10
4.860609
 20
10.606759
 30
0.0
 10
4.861894
 20
10.564775
 30
0.0
 10
4.876914
 20
10.539951
 30
0.0
 10
4.907678
 20
10.530795
 30
0.0
 10
4.956195
 20
10.535816
 30
0.0
 10
4.956195
 20
10.535816
 30
0.0
  0
LWPOLYLINE
  5
11e
100
AcDbEntity
  8
Layer_1
 62
7
100
AcDbPolyline
 90
342
 70
0
 10
15.812050
 20
7.391725
 30
0.0
 10
15.602500
 20
7.416407
 30
0.0
 10
15.486587
 20
7.432413
 30
0.0
 10
15.399428
 20
7.452721
 30
0.0
 10
15.331928
 20
7.480138
 30
0.0
 10
15.274993
 20
7.517469
 30
0.0
 10
15.157838
 20
7.630190
 30
0.0
 10
15.110534
 20
7.690092
 30
0.0
 10
15.077249
 20
7.744880
 30
0.0
 10
15.050315
 20
7.799907
 30
0.0
 10
14.953243
 20
7.791314
 30
0.0
 10
14.878090
 20
7.788291
 30
0.0
 10
14.847585
 20
7.796612
 30
0.0
 10
14.832363
 20
7.806422
 30
0.0
 10
14.807823
 20
7.810502
 30
0.0
 10
14.767168
 20
7.819535
 30
0.0
 10
14.726802
 20
7.845091
 30
0.0
 10
14.689477
 20
7.884853
 30
0.0
 10
14.657947
 20
7.936507
 30
0.0
 10
14.622770
 20
8.039102
 30
0.0
 10
14.613263
 20
8.108968
 30
0.0
 10
14.601291
 20
8.123714
 30
0.0
 10
14.583082
 20
8.128196
 30
0.0
 10
14.564785
 20
8.130790
 30
0.0
 10
14.572446
 20
8.139596
 30
0.0
 10
14.582550
 20
8.149230
 30
0.0
 10
14.583428
 20
8.167009
 30
0.0
 10
14.550554
 20
8.267702
 30
0.0
 10
14.512715
 20
8.431813
 30
0.0
 10
14.497600
 20
8.622363
 30
0.0
 10
14.494815
 20
8.690639
 30
0.0
 10
14.478589
 20
8.749139
 30
0.0
 10
14.437115
 20
8.825448
 30
0.0
 10
14.358586
 20
8.947152
 30
0.0
 10
14.313961
 20
9.028199
 30
0.0
 10
14.256721
 20
9.162645
 30
0.0
 10
14.197896
 20
9.372195
 30
0.0
 10
14.157764
 20
9.556169
 30
0.0
 10
14.137096
 20
9.723431
 30
0.0
 10
14.134857
 20
9.889007
 30
0.0
 10
14.150013
 20
10.067927
 30
0.0
 10
14.158238
 20
10.134602
 30
0.0
 10
14.120338
 20
10.134602
 30
0.0
 10
14.086473
 20
10.141932
 30
0.0
 10
14.058875
 20
10.160638
 30
0.0
 10
14.042034
 20
10.189079
 30
0.0
 10
14.052582
 20
10.227313
 30
0.0
 10
14.071001
 20
10.316958
 30
0.0
 10
14.069873
 20
10.346013
 30
0.0
 10
14.058773
 20
10.367060
 30
0.0
 10
13.970550
 20
10.423379
 30
0.0
 10
13.841718
 20
10.510215
 30
0.0
 10
13.705977
 20
10.624330
 30
0.0
 10
13.583284
 20
10.747408
 30
0.0
 10
13.493595
 20
10.861133
 30
0.0
 10
13.430276
 20
10.986494
 30
0.0
 10
13.398494
 20
11.125202
 30
0.0
 10
13.376797
 20
11.211199
 30
0.0
 10
13.368207
 20
11.249254
 30
0.0
 10
13.372833
 20
11.311471
 30
0.0
 10
13.387931
 20
11.379704
 30
0.0
 10
13.410757
 20
11.435803
 30
0.0
 10
13.459482
 20
11.504986
 30
0.0
 10
13.519703
 20
11.567673
 30
0.0
 10
13.589121
 20
11.622664
 30
0.0
 10
13.665441
 20
11.668762
 30
0.0
 10
13.746367
 20
11.704767
 30
0.0
 10
13.829601
 20
11.729479
 30
0.0
 10
13.912847
 20
11.741700
 30
0.0
 10
13.993809
 20
11.740231
 30
0.0
 10
14.055132
 20
11.729047
 30
0.0
 10
14.062914
 20
11.719791
 30
0.0
 10
14.061641
 20
11.704860
 30
0.0
 10
14.033847
 20
11.575083
 30
0.0
 10
14.012279
 20
11.472515
 30
0.0
 10
14.053302
 20
11.327433
 30
0.0
 10
14.100201
 20
11.189529
 30
0.0
 10
14.155354
 20
11.061702
 30
0.0
 10
14.191731
 20
10.992577
 30
0.0
 10
14.221949
 20
10.948323
 30
0.0
 10
14.259286
 20
10.913373
 30
0.0
 10
14.317021
 20
10.872159
 30
0.0
 10
14.417657
 20
10.803266
 30
0.0
 10
14.425971
 20
10.620284
 30
0.0
 10
14.434285
 20
10.437301
 30
0.0
 10
14.377194
 20
10.378026
 30
0.0
 10
14.319950
 20
10.304338
 30
0.0
 10
14.348487
 20
10.271127
 30
0.0
 10
14.395107
 20
10.218821
 30
0.0
 10
14.405728
 20
10.185819
 30
0.0
 10
14.384590
 20
10.155025
 30
0.0
 10
14.357221
 20
10.134455
 30
0.0
 10
14.331771
 20
10.131113
 30
0.0
 10
14.264373
 20
10.129414
 30
0.0
 10
14.226356
 20
10.113536
 30
0.0
 10
14.207607
 20
10.067647
 30
0.0
 10
14.189102
 20
9.839520
 30
0.0
 10
14.187363
 20
9.708796
 30
0.0
 10
14.193093
 20
9.639533
 30
0.0
 10
14.268393
 20
9.315453
 30
0.0
 10
14.327982
 20
9.145360
 30
0.0
 10
14.414504
 20
8.972553
 30
0.0
 10
14.534174
 20
8.779091
 30
0.0
 10
14.547249
 20
8.729916
 30
0.0
 10
14.548400
 20
8.668775
 30
0.0
 10
14.552203
 20
8.591723
 30
0.0
 10
14.558036
 20
8.576702
 30
0.0
 10
14.567450
 20
8.572503
 30
0.0
 10
14.576655
 20
8.582231
 30
0.0
 10
14.582902
 20
8.609622
 30
0.0
 10
14.586697
 20
8.706632
 30
0.0
 10
14.579178
 20
8.842008
 30
0.0
 10
14.560692
 20
8.994226
 30
0.0
 10
14.540598
 20
9.178860
 30
0.0
 10
14.538467
 20
9.422003
 30
0.0
 10
14.526997
 20
9.893303
 30
0.0
 10
14.506703
 20
10.285059
 30
0.0
 10
14.499011
 20
10.424218
 30
0.0
 10
14.486370
 20
10.476594
 30
0.0
 10
14.473140
 20
10.527990
 30
0.0
 10
14.463446
 20
10.659144
 30
0.0
 10
14.455616
 20
10.832364
 30
0.0
 10
14.350988
 20
10.905200
 30
0.0
 10
14.290583
 20
10.948819
 30
0.0
 10
14.252539
 20
10.984591
 30
0.0
 10
14.222802
 20
11.029178
 30
0.0
 10
14.187320
 20
11.099244
 30
0.0
 10
14.135055
 20
11.222348
 30
0.0
 10
14.092307
 20
11.348113
 30
0.0
 10
14.056337
 20
11.475774
 30
0.0
 10
14.081638
 20
11.595763
 30
0.0
 10
14.122378
 20
11.734803
 30
0.0
 10
14.154329
 20
11.795564
 30
0.0
 10
14.179847
 20
11.834616
 30
0.0
 10
14.222421
 20
11.881713
 30
0.0
 10
14.266546
 20
11.921345
 30
0.0
 10
14.296719
 20
11.938003
 30
0.0
 10
14.333950
 20
11.962028
 30
0.0
 10
14.419144
 20
12.007676
 30
0.0
 10
14.516650
 20
12.045645
 30
0.0
 10
14.639858
 20
12.078405
 30
0.0
 10
14.718636
 20
12.088466
 30
0.0
 10
14.773208
 20
12.074240
 30
0.0
 10
14.864064
 20
12.045330
 30
0.0
 10
14.919970
 20
12.027814
 30
0.0
 10
14.978067
 20
11.998705
 30
0.0
 10
15.030751
 20
11.962485
 30
0.0
 10
15.070415
 20
11.923642
 30
0.0
 10
15.140787
 20
11.796221
 30
0.0
 10
15.167071
 20
11.707575
 30
0.0
 10
15.171661
 20
11.584199
 30
0.0
 10
15.166552
 20
11.480486
 30
0.0
 10
15.152743
 20
11.389667
 30
0.0
 10
15.129206
 20
11.306972
 30
0.0
 10
15.094916
 20
11.227628
 30
0.0
 10
15.025529
 20
11.118073
 30
0.0
 10
14.936014
 20
11.017842
 30
0.0
 10
14.836074
 20
10.936246
 30
0.0
 10
14.735410
 20
10.882597
 30
0.0
 10
14.659628
 20
10.854256
 30
0.0
 10
14.668024
 20
10.772298
 30
0.0
 10
14.679085
 20
10.675996
 30
0.0
 10
14.661891
 20
10.664467
 30
0.0
 10
14.609854
 20
10.657878
 30
0.0
 10
14.553705
 20
10.650437
 30
0.0
 10
14.530733
 20
10.635275
 30
0.0
 10
14.543119
 20
10.524751
 30
0.0
 10
14.558537
 20
10.400928
 30
0.0
 10
14.567785
 20
10.229853
 30
0.0
 10
14.585975
 20
9.823453
 30
0.0
 10
14.599435
 20
9.436103
 30
0.0
 10
14.619359
 20
9.067803
 30
0.0
 10
14.644576
 20
8.699503
 30
0.0
 10
14.664310
 20
8.415093
 30
0.0
 10
14.695714
 20
8.169278
 30
0.0
 10
14.706330
 20
8.143389
 30
0.0
 10
14.720910
 20
8.143204
 30
0.0
 10
14.736627
 20
8.166562
 30
0.0
 10
14.750656
 20
8.211299
 30
0.0
 10
14.759139
 20
8.270914
 30
0.0
 10
14.760035
 20
8.351521
 30
0.0
 10
14.737150
 20
8.636003
 30
0.0
 10
14.715371
 20
8.790247
 30
0.0
 10
14.677457
 20
8.936258
 30
0.0
 10
14.649596
 20
9.162742
 30
0.0
 10
14.641102
 20
9.347390
 30
0.0
 10
14.652080
 20
9.410546
 30
0.0
 10
14.676491
 20
9.494790
 30
0.0
 10
14.680621
 20
9.555115
 30
0.0
 10
14.679251
 20
9.570041
 30
0.0
 10
14.688328
 20
9.575803
 30
0.0
 10
14.698259
 20
9.585163
 30
0.0
 10
14.696355
 20
9.613903
 30
0.0
 10
14.694504
 20
9.641012
 30
0.0
 10
14.701117
 20
9.652003
 30
0.0
 10
14.709864
 20
9.662262
 30
0.0
 10
14.713502
 20
9.686928
 30
0.0
 10
14.742080
 20
9.858522
 30
0.0
 10
14.790825
 20
10.074067
 30
0.0
 10
14.800574
 20
10.131099
 30
0.0
 10
14.772054
 20
10.171236
 30
0.0
 10
14.748425
 20
10.202727
 30
0.0
 10
14.742461
 20
10.229156
 30
0.0
 10
14.754118
 20
10.250152
 30
0.0
 10
14.783350
 20
10.265342
 30
0.0
 10
14.845882
 20
10.300626
 30
0.0
 10
14.869307
 20
10.322536
 30
0.0
 10
14.878600
 20
10.340284
 30
0.0
 10
14.808750
 20
10.493610
 30
0.0
 10
14.738900
 20
10.657384
 30
0.0
 10
14.725734
 20
10.682974
 30
0.0
 10
14.718206
 20
10.704811
 30
0.0
 10
14.720904
 20
10.758288
 30
0.0
 10
14.729240
 20
10.829213
 30
0.0
 10
14.803576
 20
10.863334
 30
0.0
 10
14.892404
 20
10.919256
 30
0.0
 10
14.984470
 20
11.002500
 30
0.0
 10
15.068143
 20
11.101037
 30
0.0
 10
15.131792
 20
11.202836
 30
0.0
 10
15.183400
 20
11.328460
 30
0.0
 10
15.199394
 20
11.348776
 30
0.0
 10
15.242425
 20
11.359986
 30
0.0
 10
15.379895
 20
11.358191
 30
0.0
 10
15.536398
 20
11.329280
 30
0.0
 10
15.603222
 20
11.306595
 30
0.0
 10
15.652525
 20
11.279459
 30
0.0
 10
15.742200
 20
11.214826
 30
0.0
 10
15.801408
 20
11.162336
 30
0.0
 10
15.876639
 20
11.081020
 30
0.0
 10
15.946000
 20
10.996054
 30
0.0
 10
15.987600
 20
10.932612
 30
0.0
 10
16.017090
 20
10.809270
 30
0.0
 10
16.017773
 20
10.733521
 30
0.0
 10
15.989428
 20
10.661931
 30
0.0
 10
15.913304
 20
10.555448
 30
0.0
 10
15.786650
 20
10.433579
 30
0.0
 10
15.715613
 20
10.386753
 30
0.0
 10
15.617228
 20
10.344179
 30
0.0
 10
15.489997
 20
10.305317
 30
0.0
 10
15.332423
 20
10.269625
 30
0.0
 10
15.185941
 20
10.245259
 30
0.0
 10
15.147270
 20
10.246662
 30
0.0
 10
15.110173
 20
10.255784
 30
0.0
 10
15.043700
 20
10.274163
 30
0.0
 10
15.035625
 20
10.191625
 30
0.0
 10
15.029793
 20
10.127678
 30
0.0
 10
15.018196
 20
10.090027
 30
0.0
 10
14.999476
 20
10.077311
 30
0.0
 10
14.974750
 20
10.071676
 30
0.0
 10
14.951136
 20
10.073661
 30
0.0
 10
14.935750
 20
10.083803
 30
0.0
 10
14.917742
 20
10.096525
 30
0.0
 10
14.893033
 20
10.096386
 30
0.0
 10
14.869016
 20
10.085117
 30
0.0
 10
14.853084
 20
10.064449
 30
0.0
 10
14.799318
 20
9.839481
 30
0.0
 10
14.757273
 20
9.556753
 30
0.0
 10
14.725283
 20
9.401586
 30
0.0
 10
14.701993
 20
9.314288
 30
0.0
 10
14.692097
 20
9.221123
 30
0.0
 10
14.695697
 20
9.125218
 30
0.0
 10
14.712898
 20
9.029703
 30
0.0
 10
14.769688
 20
8.798034
 30
0.0
 10
14.790637
 20
8.667753
 30
0.0
 10
14.816804
 20
8.345677
 30
0.0
 10
14.816847
 20
8.230552
 30
0.0
 10
14.807628
 20
8.162925
 30
0.0
 10
14.791138
 20
8.101648
 30
0.0
 10
14.796764
 20
8.070366
 30
0.0
 10
14.825925
 20
8.067693
 30
0.0
 10
14.880045
 20
8.092241
 30
0.0
 10
14.929400
 20
8.119980
 30
0.0
 10
14.929400
 20
8.287060
 30
0.0
 10
14.933625
 20
8.415953
 30
0.0
 10
14.949024
 20
8.526197
 30
0.0
 10
14.979684
 20
8.637446
 30
0.0
 10
15.029693
 20
8.769353
 30
0.0
 10
15.066493
 20
8.870458
 30
0.0
 10
15.081800
 20
8.935200
 30
0.0
 10
15.086534
 20
8.969104
 30
0.0
 10
15.098768
 20
8.996207
 30
0.0
 10
15.115553
 20
9.012134
 30
0.0
 10
15.133938
 20
9.012510
 30
0.0
 10
15.208800
 20
8.968382
 30
0.0
 10
15.241184
 20
8.946821
 30
0.0
 10
15.259098
 20
8.927386
 30
0.0
 10
15.273276
 20
8.857463
 30
0.0
 10
15.285369
 20
8.795135
 30
0.0
 10
15.309274
 20
8.738445
 30
0.0
 10
15.345517
 20
8.686448
 30
0.0
 10
15.394619
 20
8.638199
 30
0.0
 10
15.491161
 20
8.566630
 30
0.0
 10
15.525147
 20
8.551579
 30
0.0
 10
15.555337
 20
8.547103
 30
0.0
 10
15.598978
 20
8.532845
 30
0.0
 10
15.648763
 20
8.521589
 30
0.0
 10
15.741093
 20
8.524521
 30
0.0
 10
15.847950
 20
8.539168
 30
0.0
 10
15.941314
 20
8.563058
 30
0.0
 10
16.050708
 20
8.612565
 30
0.0
 10
16.148389
 20
8.676763
 30
0.0
 10
16.228141
 20
8.750806
 30
0.0
 10
16.283744
 20
8.829849
 30
0.0
 10
16.299948
 20
8.884016
 30
0.0
 10
16.307670
 20
8.959853
 30
0.0
 10
16.319697
 20
9.070978
 30
0.0
 10
16.330537
 20
9.084907
 30
0.0
 10
16.346728
 20
9.091972
 30
0.0
 10
16.384645
 20
9.083483
 30
0.0
 10
16.401436
 20
9.061030
 30
0.0
 10
16.415226
 20
9.021541
 30
0.0
 10
16.428000
 20
8.914127
 30
0.0
 10
16.448363
 20
8.766797
 30
0.0
 10
16.465570
 20
8.644623
 30
0.0
 10
16.475424
 20
8.409396
 30
0.0
 10
16.482122
 20
8.125639
 30
0.0
 10
16.528086
 20
8.078474
 30
0.0
 10
16.653986
 20
7.931849
 30
0.0
 10
16.743250
 20
7.802820
 30
0.0
 10
16.764817
 20
7.746997
 30
0.0
 10
16.776732
 20
7.688325
 30
0.0
 10
16.778046
 20
7.634847
 30
0.0
 10
16.767810
 20
7.594603
 30
0.0
 10
16.745822
 20
7.569710
 30
0.0
 10
16.707005
 20
7.566852
 30
0.0
 10
16.666768
 20
7.578681
 30
0.0
 10
16.616670
 20
7.603927
 30
0.0
 10
16.568429
 20
7.635787
 30
0.0
 10
16.533763
 20
7.667456
 30
0.0
 10
16.508363
 20
7.682305
 30
0.0
 10
16.468201
 20
7.692451
 30
0.0
 10
16.421875
 20
7.691898
 30
0.0
 10
16.396190
 20
7.656450
 30
0.0
 10
16.350353
 20
7.592757
 30
0.0
 10
16.278980
 20
7.523775
 30
0.0
 10
16.195804
 20
7.461194
 30
0.0
 10
16.114557
 20
7.416704
 30
0.0
 10
16.047953
 20
7.393084
 30
0.0
 10
15.984043
 20
7.381767
 30
0.0
 10
15.909763
 20
7.381674
 30
0.0
 10
15.812050
 20
7.391726
 30
0.0
 10
15.812050
 20
7.391725
 30
0.0
  0
LWPOLYLINE
  5
11f
100
AcDbEntity
  8
Layer_1
 62
7
100
AcDbPolyline
 90
80
 70
0
 10
16.383985
 20
7.731127
 30
0.0
 10
16.352238
 20
7.791452
 30
0.0
 10
16.289679
 20
7.895865
 30
0.0
 10
16.263018
 20
7.961616
 30
0.0
 10
16.251145
 20
8.022854
 30
0.0
 10
16.254020
 20
8.080112
 30
0.0
 10
16.271602
 20
8.133921
 30
0.0
 10
16.285049
 20
8.159100
 30
0.0
 10
16.299467
 20
8.172509
 30
0.0
 10
16.360502
 20
8.178802
 30
0.0
 10
16.428000
 20
8.178802
 30
0.0
 10
16.428010
 20
8.378827
 30
0.0
 10
16.422828
 20
8.555632
 30
0.0
 10
16.406993
 20
8.684780
 30
0.0
 10
16.389569
 20
8.755236
 30
0.0
 10
16.371208
 20
8.792948
 30
0.0
 10
16.350820
 20
8.799149
 30
0.0
 10
16.327318
 20
8.775073
 30
0.0
 10
16.249054
 20
8.674424
 30
0.0
 10
16.205989
 20
8.631055
 30
0.0
 10
16.150622
 20
8.588200
 30
0.0
 10
16.016438
 20
8.510528
 30
0.0
 10
15.873418
 20
8.454399
 30
0.0
 10
15.807004
 20
8.438472
 30
0.0
 10
15.748474
 20
8.432802
 30
0.0
 10
15.690126
 20
8.441772
 30
0.0
 10
15.625986
 20
8.464428
 30
0.0
 10
15.564949
 20
8.486882
 30
0.0
 10
15.513600
 20
8.496457
 30
0.0
 10
15.461112
 20
8.505175
 30
0.0
 10
15.407705
 20
8.528766
 30
0.0
 10
15.355624
 20
8.564779
 30
0.0
 10
15.307116
 20
8.610767
 30
0.0
 10
15.264424
 20
8.664277
 30
0.0
 10
15.229796
 20
8.722860
 30
0.0
 10
15.205476
 20
8.784067
 30
0.0
 10
15.193711
 20
8.845446
 30
0.0
 10
15.185755
 20
8.884426
 30
0.0
 10
15.169792
 20
8.899916
 30
0.0
 10
15.153108
 20
8.894426
 30
0.0
 10
15.134404
 20
8.869176
 30
0.0
 10
15.082268
 20
8.743952
 30
0.0
 10
15.035989
 20
8.625051
 30
0.0
 10
15.013105
 20
8.556594
 30
0.0
 10
14.995501
 20
8.470892
 30
0.0
 10
14.980200
 20
8.273360
 30
0.0
 10
14.980200
 20
8.140979
 30
0.0
 10
15.091325
 20
8.148591
 30
0.0
 10
15.202450
 20
8.156203
 30
0.0
 10
15.291148
 20
8.104003
 30
0.0
 10
15.395923
 20
8.051802
 30
0.0
 10
15.408214
 20
8.046653
 30
0.0
 10
15.411151
 20
8.032645
 30
0.0
 10
15.389775
 20
7.986694
 30
0.0
 10
15.354421
 20
7.932521
 30
0.0
 10
15.331711
 20
7.911778
 30
0.0
 10
15.287903
 20
7.888256
 30
0.0
 10
15.160419
 20
7.843612
 30
0.0
 10
15.122920
 20
7.829714
 30
0.0
 10
15.109619
 20
7.816639
 30
0.0
 10
15.122584
 20
7.807182
 30
0.0
 10
15.150134
 20
7.805478
 30
0.0
 10
15.232697
 20
7.820833
 30
0.0
 10
15.324726
 20
7.853705
 30
0.0
 10
15.393642
 20
7.895093
 30
0.0
 10
15.460990
 20
7.930755
 30
0.0
 10
15.546795
 20
7.963639
 30
0.0
 10
15.618787
 20
7.983840
 30
0.0
 10
15.773460
 20
7.988418
 30
0.0
 10
15.951750
 20
7.988531
 30
0.0
 10
16.062611
 20
7.934534
 30
0.0
 10
16.152249
 20
7.884737
 30
0.0
 10
16.187933
 20
7.845621
 30
0.0
 10
16.219017
 20
7.807528
 30
0.0
 10
16.275405
 20
7.758292
 30
0.0
 10
16.334925
 20
7.715514
 30
0.0
 10
16.375401
 20
7.696797
 30
0.0
 10
16.386741
 20
7.704301
 30
0.0
 10
16.383985
 20
7.731124
 30
0.0
 10
16.383985
 20
7.731127
 30
0.0
  0
LWPOLYLINE
  5
120
100
AcDbEntity
  8
Layer_1
 62
7
100
AcDbPolyline
 90
56
 70
0
 10
15.667040
 20
8.060428
 30
0.0
 10
15.615200
 20
8.103322
 30
0.0
 10
15.609846
 20
8.112682
 30
0.0
 10
15.594958
 20
8.114522
 30
0.0
 10
15.543626
 20
8.096330
 30
0.0
 10
15.505761
 20
8.081684
 30
0.0
 10
15.467844
 20
8.079144
 30
0.0
 10
15.425162
 20
8.089146
 30
0.0
 10
15.373002
 20
8.112127
 30
0.0
 10
15.312670
 20
8.151092
 30
0.0
 10
15.282516
 20
8.204202
 30
0.0
 10
15.262438
 20
8.287253
 30
0.0
 10
15.265778
 20
8.362170
 30
0.0
 10
15.291410
 20
8.423658
 30
0.0
 10
15.338210
 20
8.466421
 30
0.0
 10
15.391110
 20
8.479905
 30
0.0
 10
15.467851
 20
8.482941
 30
0.0
 10
15.547564
 20
8.476045
 30
0.0
 10
15.609376
 20
8.459730
 30
0.0
 10
15.654493
 20
8.432426
 30
0.0
 10
15.692858
 20
8.396822
 30
0.0
 10
15.719513
 20
8.358551
 30
0.0
 10
15.729500
 20
8.323247
 30
0.0
 10
15.710049
 20
8.254942
 30
0.0
 10
15.673753
 20
8.201221
 30
0.0
 10
15.685700
 20
8.194575
 30
0.0
 10
15.734229
 20
8.191696
 30
0.0
 10
15.793005
 20
8.194847
 30
0.0
 10
15.798739
 20
8.200552
 30
0.0
 10
15.793115
 20
8.210413
 30
0.0
 10
15.783512
 20
8.237730
 30
0.0
 10
15.786551
 20
8.275416
 30
0.0
 10
15.800706
 20
8.316480
 30
0.0
 10
15.824450
 20
8.353930
 30
0.0
 10
15.864964
 20
8.389676
 30
0.0
 10
15.915643
 20
8.410047
 30
0.0
 10
15.980624
 20
8.415985
 30
0.0
 10
16.064044
 20
8.408430
 30
0.0
 10
16.161425
 20
8.387219
 30
0.0
 10
16.222769
 20
8.342913
 30
0.0
 10
16.260081
 20
8.300151
 30
0.0
 10
16.275600
 20
8.267220
 30
0.0
 10
16.267669
 20
8.231080
 30
0.0
 10
16.248610
 20
8.189409
 30
0.0
 10
16.225518
 20
8.155013
 30
0.0
 10
16.205492
 20
8.140702
 30
0.0
 10
16.186700
 20
8.129381
 30
0.0
 10
16.167478
 20
8.108952
 30
0.0
 10
16.116393
 20
8.090519
 30
0.0
 10
16.043311
 20
8.076647
 30
0.0
 10
15.958100
 20
8.069906
 30
0.0
 10
15.855476
 20
8.062193
 30
0.0
 10
15.778165
 20
8.048119
 30
0.0
 10
15.719923
 20
8.036452
 30
0.0
 10
15.667040
 20
8.060428
 30
0.0
 10
15.667040
 20
8.060428
 30
0.0
  0
LWPOLYLINE
  5
121
100
AcDbEntity
  8
Layer_1
 62
7
100
AcDbPolyline
 90
22
 70
0
 10
16.132697
 20
8.158096
 30
0.0
 10
16.186108
 20
8.199118
 30
0.0
 10
16.196349
 20
8.222746
 30
0.0
 10
16.197143
 20
8.250649
 30
0.0
 10
16.183700
 20
8.283796
 30
0.0
 10
16.152806
 20
8.312957
 30
0.0
 10
16.105102
 20
8.335191
 30
0.0
 10
16.043143
 20
8.353402
 30
0.0
 10
15.987534
 20
8.362759
 30
0.0
 10
15.958883
 20
8.358429
 30
0.0
 10
15.911963
 20
8.327067
 30
0.0
 10
15.884010
 20
8.305256
 30
0.0
 10
15.865612
 20
8.276710
 30
0.0
 10
15.859523
 20
8.247883
 30
0.0
 10
15.868496
 20
8.225225
 30
0.0
 10
15.881900
 20
8.193137
 30
0.0
 10
15.904125
 20
8.149727
 30
0.0
 10
15.937344
 20
8.130584
 30
0.0
 10
16.011122
 20
8.132033
 30
0.0
 10
16.081803
 20
8.142589
 30
0.0
 10
16.132697
 20
8.158096
 30
0.0
 10
16.132697
 20
8.158096
 30
0.0
  0
LWPOLYLINE
  5
122
100
AcDbEntity
  8
Layer_1
 62
7
100
AcDbPolyline
 90
13
 70
0
 10
15.995765
 20
8.230414
 30
0.0
 10
15.989967
 20
8.261465
 30
0.0
 10
16.005478
 20
8.283519
 30
0.0
 10
16.036619
 20
8.292765
 30
0.0
 10
16.077711
 20
8.285393
 30
0.0
 10
16.092633
 20
8.276664
 30
0.0
 10
16.096436
 20
8.265345
 30
0.0
 10
16.070005
 20
8.230097
 30
0.0
 10
16.046009
 20
8.211622
 30
0.0
 10
16.026296
 20
8.205513
 30
0.0
 10
16.009877
 20
8.211777
 30
0.0
 10
15.995765
 20
8.230416
 30
0.0
 10
15.995765
 20
8.230414
 30
0.0
  0
LWPOLYLINE
  5
123
100
AcDbEntity
  8
Layer_1
 62
7
100
AcDbPolyline
 90
23
 70
0
 10
15.559453
 20
8.173799
 30
0.0
 10
15.637771
 20
8.240711
 30
0.0
 10
15.657639
 20
8.272038
 30
0.0
 10
15.664647
 20
8.301914
 30
0.0
 10
15.658793
 20
8.330319
 30
0.0
 10
15.640078
 20
8.357229
 30
0.0
 10
15.564059
 20
8.406475
 30
0.0
 10
15.501835
 20
8.427180
 30
0.0
 10
15.442768
 20
8.432905
 30
0.0
 10
15.391489
 20
8.423793
 30
0.0
 10
15.352630
 20
8.399987
 30
0.0
 10
15.326559
 20
8.362290
 30
0.0
 10
15.327141
 20
8.305306
 30
0.0
 10
15.336956
 20
8.256831
 30
0.0
 10
15.353256
 20
8.216993
 30
0.0
 10
15.374823
 20
8.188008
 30
0.0
 10
15.400436
 20
8.172092
 30
0.0
 10
15.424700
 20
8.152546
 30
0.0
 10
15.438979
 20
8.140912
 30
0.0
 10
15.474006
 20
8.141808
 30
0.0
 10
15.518069
 20
8.153386
 30
0.0
 10
15.559453
 20
8.173799
 30
0.0
 10
15.559453
 20
8.173799
 30
0.0
  0
LWPOLYLINE
  5
124
100
AcDbEntity
  8
Layer_1
 62
7
100
AcDbPolyline
 90
12
 70
0
 10
15.504075
 20
8.275836
 30
0.0
 10
15.492400
 20
8.287014
 30
0.0
 10
15.488854
 20
8.305229
 30
0.0
 10
15.505858
 20
8.350497
 30
0.0
 10
15.526373
 20
8.367710
 30
0.0
 10
15.557492
 20
8.359167
 30
0.0
 10
15.583691
 20
8.339729
 30
0.0
 10
15.587457
 20
8.308870
 30
0.0
 10
15.577579
 20
8.280902
 30
0.0
 10
15.551699
 20
8.271603
 30
0.0
 10
15.504074
 20
8.275836
 30
0.0
 10
15.504075
 20
8.275836
 30
0.0
  0
LWPOLYLINE
  5
125
100
AcDbEntity
  8
Layer_1
 62
7
100
AcDbPolyline
 90
13
 70
0
 10
14.959495
 20
10.188577
 30
0.0
 10
14.966607
 20
10.221614
 30
0.0
 10
14.964007
 20
10.239892
 30
0.0
 10
14.949246
 20
10.246992
 30
0.0
 10
14.919875
 20
10.246494
 30
0.0
 10
14.881417
 20
10.237864
 30
0.0
 10
14.868480
 20
10.216183
 30
0.0
 10
14.873084
 20
10.192946
 30
0.0
 10
14.893880
 20
10.175767
 30
0.0
 10
14.940015
 20
10.162466
 30
0.0
 10
14.951875
 20
10.170358
 30
0.0
 10
14.959495
 20
10.188577
 30
0.0
 10
14.959495
 20
10.188577
 30
0.0
  0
LWPOLYLINE
  5
126
100
AcDbEntity
  8
Layer_1
 62
7
100
AcDbPolyline
 90
14
 70
0
 10
14.611900
 20
10.755863
 30
0.0
 10
14.606747
 20
10.792243
 30
0.0
 10
14.591365
 20
10.813895
 30
0.0
 10
14.565874
 20
10.820740
 30
0.0
 10
14.530389
 20
10.812693
 30
0.0
 10
14.515494
 20
10.800070
 30
0.0
 10
14.510996
 20
10.781141
 30
0.0
 10
14.516728
 20
10.761119
 30
0.0
 10
14.532525
 20
10.745219
 30
0.0
 10
14.560964
 20
10.733712
 30
0.0
 10
14.586468
 20
10.732024
 30
0.0
 10
14.604843
 20
10.739596
 30
0.0
 10
14.611900
 20
10.755863
 30
0.0
 10
14.611900
 20
10.755863
 30
0.0
  0
LWPOLYLINE
  5
127
100
AcDbEntity
  8
Layer_1
 62
7
100
AcDbPolyline
 90
99
 70
0
 10
5.386499
 20
9.567937
 30
0.0
 10
5.382521
 20
9.642826
 30
0.0
 10
5.388503
 20
9.675887
 30
0.0
 10
5.409538
 20
9.723073
 30
0.0
 10
5.430159
 20
9.852589
 30
0.0
 10
5.513222
 20
10.242552
 30
0.0
 10
5.600357
 20
10.615540
 30
0.0
 10
5.602520
 20
10.661563
 30
0.0
 10
5.587828
 20
10.676447
 30
0.0
 10
5.543223
 20
10.693402
 30
0.0
 10
5.506503
 20
10.711843
 30
0.0
 10
5.498480
 20
10.731774
 30
0.0
 10
5.499625
 20
10.755003
 30
0.0
 10
5.508265
 20
10.774267
 30
0.0
 10
5.522728
 20
10.782303
 30
0.0
 10
5.544024
 20
10.795433
 30
0.0
 10
5.572304
 20
10.826092
 30
0.0
 10
5.597013
 20
10.861182
 30
0.0
 10
5.607595
 20
10.887605
 30
0.0
 10
5.583566
 20
10.927112
 30
0.0
 10
5.534265
 20
11.004630
 30
0.0
 10
5.447625
 20
11.182352
 30
0.0
 10
5.437828
 20
11.219680
 30
0.0
 10
5.434679
 20
11.267994
 30
0.0
 10
5.448190
 20
11.356369
 30
0.0
 10
5.449206
 20
11.391294
 30
0.0
 10
5.448779
 20
11.400693
 30
0.0
 10
5.459366
 20
11.404602
 30
0.0
 10
5.475180
 20
11.417541
 30
0.0
 10
5.486668
 20
11.452227
 30
0.0
 10
5.518644
 20
11.550652
 30
0.0
 10
5.573784
 20
11.674116
 30
0.0
 10
5.627945
 20
11.779101
 30
0.0
 10
5.688782
 20
11.862122
 30
0.0
 10
5.758512
 20
11.925667
 30
0.0
 10
5.839356
 20
11.972226
 30
0.0
 10
5.890929
 20
12.000355
 30
0.0
 10
5.912381
 20
12.022212
 30
0.0
 10
5.919039
 20
12.034494
 30
0.0
 10
5.935046
 20
12.039602
 30
0.0
 10
6.027180
 20
12.064019
 30
0.0
 10
6.113702
 20
12.088815
 30
0.0
 10
6.193302
 20
12.099148
 30
0.0
 10
6.269858
 20
12.095176
 30
0.0
 10
6.347246
 20
12.077058
 30
0.0
 10
6.469159
 20
12.031137
 30
0.0
 10
6.565425
 20
11.976731
 30
0.0
 10
6.644976
 20
11.907562
 30
0.0
 10
6.716745
 20
11.817352
 30
0.0
 10
6.782045
 20
11.712957
 30
0.0
 10
6.824734
 20
11.619042
 30
0.0
 10
6.848156
 20
11.526164
 30
0.0
 10
6.855652
 20
11.424880
 30
0.0
 10
6.847937
 20
11.328996
 30
0.0
 10
6.818440
 20
11.233036
 30
0.0
 10
6.759469
 20
11.118717
 30
0.0
 10
6.663337
 20
10.967755
 30
0.0
 10
6.566960
 20
10.830383
 30
0.0
 10
6.489689
 20
10.739685
 30
0.0
 10
6.417752
 20
10.681965
 30
0.0
 10
6.337379
 20
10.643525
 30
0.0
 10
6.238829
 20
10.618524
 30
0.0
 10
6.203960
 20
10.622551
 30
0.0
 10
6.172798
 20
10.637374
 30
0.0
 10
6.140268
 20
10.650398
 30
0.0
 10
6.104283
 20
10.649260
 30
0.0
 10
6.054775
 20
10.647752
 30
0.0
 10
5.990724
 20
10.656347
 30
0.0
 10
5.931968
 20
10.671248
 30
0.0
 10
5.898346
 20
10.688661
 30
0.0
 10
5.860026
 20
10.706102
 30
0.0
 10
5.840453
 20
10.694086
 30
0.0
 10
5.834351
 20
10.666959
 30
0.0
 10
5.841474
 20
10.638098
 30
0.0
 10
5.861578
 20
10.620882
 30
0.0
 10
5.885846
 20
10.605194
 30
0.0
 10
5.874278
 20
10.585452
 30
0.0
 10
5.861578
 20
10.549142
 30
0.0
 10
5.846784
 20
10.507004
 30
0.0
 10
5.830338
 20
10.494661
 30
0.0
 10
5.809680
 20
10.490202
 30
0.0
 10
5.791213
 20
10.502945
 30
0.0
 10
5.779843
 20
10.546327
 30
0.0
 10
5.765906
 20
10.594890
 30
0.0
 10
5.732058
 20
10.616177
 30
0.0
 10
5.676773
 20
10.629902
 30
0.0
 10
5.661627
 20
10.618707
 30
0.0
 10
5.647495
 20
10.590024
 30
0.0
 10
5.632978
 20
10.509595
 30
0.0
 10
5.600898
 20
10.362265
 30
0.0
 10
5.525821
 20
10.073091
 30
0.0
 10
5.480888
 20
9.823452
 30
0.0
 10
5.461827
 20
9.707644
 30
0.0
 10
5.436483
 20
9.607552
 30
0.0
 10
5.401558
 20
9.493252
 30
0.0
 10
5.398783
 20
9.491287
 30
0.0
 10
5.395016
 20
9.504713
 30
0.0
 10
5.386476
 20
9.567937
 30
0.0
 10
5.386499
 20
9.567937
 30
0.0
  0
LWPOLYLINE
  5
128
100
AcDbEntity
  8
Layer_1
 62
7
100
AcDbPolyline
 90
16
 70
0
 10
5.785400
 20
10.732111
 30
0.0
 10
5.778973
 20
10.790080
 30
0.0
 10
5.750475
 20
10.826960
 30
0.0
 10
5.718870
 20
10.848490
 30
0.0
 10
5.688410
 20
10.856767
 30
0.0
 10
5.659695
 20
10.851756
 30
0.0
 10
5.633322
 20
10.833425
 30
0.0
 10
5.602128
 20
10.780717
 30
0.0
 10
5.594312
 20
10.754384
 30
0.0
 10
5.596549
 20
10.740377
 30
0.0
 10
5.694490
 20
10.692533
 30
0.0
 10
5.763175
 20
10.668173
 30
0.0
 10
5.774349
 20
10.670699
 30
0.0
 10
5.781133
 20
10.680344
 30
0.0
 10
5.785400
 20
10.732111
 30
0.0
 10
5.785400
 20
10.732111
 30
0.0
  0
ENDSEC
  0
SECTION
  2
OBJECTS
  0
DICTIONARY
  5
C
330
0
100
AcDbDictionary
  3
ACAD_GROUP
350
D
  3
ACAD_MLINESTYLE
350
17
  0
DICTIONARY
  5
D
330
C
100
AcDbDictionary
  0
DICTIONARY
  5
1A
330
C
100
AcDbDictionary
  0
DICTIONARY
  5
17
330
C
100
AcDbDictionary
  3
STANDARD
350
18
  0
DICTIONARY
  5
19
330
C
100
AcDbDictionary
  0
ENDSEC
  0
EOF
