  0
SECTION
  2
HEADER
  9
$ACADVER
  1
AC1014
  9
$HANDSEED
  5
FFFF
  9
$MEASUREMENT
 70
     1
  0
ENDSEC
  0
SECTION
  2
TABLES
  0
TABLE
  2
VPORT
  5
8
330
0
100
AcDbSymbolTable
 70
     4
  0
VPORT
  5
2E
330
8
100
AcDbSymbolTableRecord
100
AcDbViewportTableRecord
  2
*ACTIVE
 70
     0
 10
0.0
 20
0.0
 11
1.0
 21
1.0
 12
210.0
 22
148.5
 13
0.0
 23
0.0
 14
10.0
 24
10.0
 15
10.0
 25
10.0
 16
0.0
 26
0.0
 36
1.0
 17
0.0
 27
0.0
 37
0.0
 40
341.0
 41
1.24
 42
50.0
 43
0.0
 44
0.0
 50
0.0
 51
0.0
 71
     0
 72
   100
 73
     1
 74
     3
 75
     0
 76
     0
 77
     0
 78
     0
  0
ENDTAB
  0
TABLE
  2
LTYPE
  5
5
330
0
100
AcDbSymbolTable
 70
     1
  0
LTYPE
  5
14
330
5
100
AcDbSymbolTableRecord
100
AcDbLinetypeTableRecord
  2
BYBLOCK
 70
     0
  3

 72
    65
 73
     0
 40
0.0
  0
LTYPE
  5
15
330
5
100
AcDbSymbolTableRecord
100
AcDbLinetypeTableRecord
  2
BYLAYER
 70
     0
  3

 72
    65
 73
     0
 40
0.0
  0
LTYPE
  5
16
330
5
100
AcDbSymbolTableRecord
100
AcDbLinetypeTableRecord
  2
CONTINUOUS
 70
     0
  3
Solid line
 72
    65
 73
     0
 40
0.0
  0
ENDTAB
  0
TABLE
  2
LAYER
  5
2
100
AcDbSymbolTable
 70
2
  0
LAYER
  5
50
100
AcDbSymbolTableRecord
100
AcDbLayerTableRecord
  2
0
 70
0
  6
CONTINUOUS
  0
LAYER
  5
51
100
AcDbSymbolTableRecord
100
AcDbLayerTableRecord
  2
Layer_1
 70
0
  6
CONTINUOUS
  0
ENDTAB
  0
TABLE
  2
STYLE
  5
3
330
0
100
AcDbSymbolTable
 70
     1
  0
STYLE
  5
11
330
3
100
AcDbSymbolTableRecord
100
AcDbTextStyleTableRecord
  2
STANDARD
 70
     0
 40
0.0
 41
1.0
 50
0.0
 71
     0
 42
2.5
  3
txt
  4

  0
ENDTAB
  0
TABLE
  2
VIEW
  5
6
330
0
100
AcDbSymbolTable
 70
     0
  0
ENDTAB
  0
TABLE
  2
UCS
  5
7
330
0
100
AcDbSymbolTable
 70
     0
  0
ENDTAB
  0
TABLE
  2
APPID
  5
9
330
0
100
AcDbSymbolTable
 70
     2
  0
APPID
  5
12
330
9
100
AcDbSymbolTableRecord
100
AcDbRegAppTableRecord
  2
ACAD
 70
     0
  0
ENDTAB
  0
TABLE
  2
DIMSTYLE
  5
A
330
0
100
AcDbSymbolTable
 70
     1
  0
DIMSTYLE
105
27
330
A
100
AcDbSymbolTableRecord
100
AcDbDimStyleTableRecord
  2
ISO-25
 70
     0
  3

  4

  5

  6

  7

 40
1.0
 41
2.5
 42
0.625
 43
3.75
 44
1.25
 45
0.0
 46
0.0
 47
0.0
 48
0.0
140
2.5
141
2.5
142
0.0
143
0.03937007874016
144
1.0
145
0.0
146
1.0
147
0.625
 71
     0
 72
     0
 73
     0
 74
     0
 75
     0
 76
     0
 77
     1
 78
     8
170
     0
171
     3
172
     1
173
     0
174
     0
175
     0
176
     0
177
     0
178
     0
270
     2
271
     2
272
     2
273
     2
274
     3
340
11
275
     0
280
     0
281
     0
282
     0
283
     0
284
     8
285
     0
286
     0
287
     3
288
     0
  0
ENDTAB
  0
TABLE
  2
BLOCK_RECORD
  5
1
330
0
100
AcDbSymbolTable
 70
     1
  0
BLOCK_RECORD
  5
1F
330
1
100
AcDbSymbolTableRecord
100
AcDbBlockTableRecord
  2
*MODEL_SPACE
  0
BLOCK_RECORD
  5
1B
330
1
100
AcDbSymbolTableRecord
100
AcDbBlockTableRecord
  2
*PAPER_SPACE
  0
ENDTAB
  0
ENDSEC
  0
SECTION
  2
BLOCKS
  0
BLOCK
  5
20
330
1F
100
AcDbEntity
  8
0
100
AcDbBlockBegin
  2
*MODEL_SPACE
 70
     0
 10
0.0
 20
0.0
 30
0.0
  3
*MODEL_SPACE
  1

  0
ENDBLK
  5
21
330
1F
100
AcDbEntity
  8
0
100
AcDbBlockEnd
  0
BLOCK
  5
1C
330
1B
100
AcDbEntity
 67
     1
  8
0
100
AcDbBlockBegin
  2
*PAPER_SPACE
  1

  0
ENDBLK
  5
1D
330
1B
100
AcDbEntity
 67
     1
  8
0
100
AcDbBlockEnd
  0
ENDSEC
  0
SECTION
  2
ENTITIES
  0
LWPOLYLINE
  5
100
100
AcDbEntity
  8
Layer_1
 62
7
100
AcDbPolyline
 90
178
 70
0
 10
3.293748
 20
4.365592
 30
0.0
 10
3.257110
 20
4.378292
 30
0.0
 10
3.227735
 20
4.388014
 30
0.0
 10
3.197535
 20
4.411389
 30
0.0
 10
3.138173
 20
4.455525
 30
0.0
 10
3.116381
 20
4.467584
 30
0.0
 10
3.111739
 20
4.480744
 30
0.0
 10
3.124418
 20
4.495601
 30
0.0
 10
3.154590
 20
4.512750
 30
0.0
 10
3.197359
 20
4.527429
 30
0.0
 10
3.228433
 20
4.506996
 30
0.0
 10
3.263814
 20
4.486185
 30
0.0
 10
3.314257
 20
4.479892
 30
0.0
 10
3.362714
 20
4.483771
 30
0.0
 10
3.401518
 20
4.495408
 30
0.0
 10
3.430660
 20
4.514797
 30
0.0
 10
3.450133
 20
4.541937
 30
0.0
 10
3.460710
 20
4.591687
 30
0.0
 10
3.464828
 20
4.664199
 30
0.0
 10
3.462190
 20
4.731505
 30
0.0
 10
3.452503
 20
4.765642
 30
0.0
 10
3.439803
 20
4.804491
 30
0.0
 10
3.432278
 20
4.830000
 30
0.0
 10
3.397323
 20
4.835492
 30
0.0
 10
3.360053
 20
4.828700
 30
0.0
 10
3.331853
 20
4.810092
 30
0.0
 10
3.294163
 20
4.784692
 30
0.0
 10
3.242874
 20
4.746508
 30
0.0
 10
3.212202
 20
4.720982
 30
0.0
 10
3.193508
 20
4.721108
 30
0.0
 10
3.168026
 20
4.730351
 30
0.0
 10
3.127115
 20
4.733573
 30
0.0
 10
3.087385
 20
4.730703
 30
0.0
 10
3.065447
 20
4.721667
 30
0.0
 10
3.047551
 20
4.719871
 30
0.0
 10
3.013510
 20
4.734367
 30
0.0
 10
2.967359
 20
4.751971
 30
0.0
 10
2.918717
 20
4.759293
 30
0.0
 10
2.874629
 20
4.752922
 30
0.0
 10
2.868303
 20
4.708493
 30
0.0
 10
2.873483
 20
4.665898
 30
0.0
 10
2.900370
 20
4.657693
 30
0.0
 10
2.926662
 20
4.650489
 30
0.0
 10
2.942272
 20
4.626841
 30
0.0
 10
2.948184
 20
4.583694
 30
0.0
 10
2.945384
 20
4.517993
 30
0.0
 10
2.938153
 20
4.435443
 30
0.0
 10
2.874653
 20
4.435443
 30
0.0
 10
2.820106
 20
4.440494
 30
0.0
 10
2.810992
 20
4.450585
 30
0.0
 10
2.807259
 20
4.469074
 30
0.0
 10
2.797739
 20
4.495346
 30
0.0
 10
2.778684
 20
4.509160
 30
0.0
 10
2.761253
 20
4.519664
 30
0.0
 10
2.754003
 20
4.535854
 30
0.0
 10
2.748985
 20
4.550148
 30
0.0
 10
2.736921
 20
4.556093
 30
0.0
 10
2.696853
 20
4.581493
 30
0.0
 10
2.672448
 20
4.599432
 30
0.0
 10
2.646053
 20
4.606893
 30
0.0
 10
2.619659
 20
4.599432
 30
0.0
 10
2.595253
 20
4.581493
 30
0.0
 10
2.578586
 20
4.568028
 30
0.0
 10
2.552359
 20
4.560352
 30
0.0
 10
2.430560
 20
4.556093
 30
0.0
 10
2.303605
 20
4.560743
 30
0.0
 10
2.278162
 20
4.571147
 30
0.0
 10
2.257905
 20
4.591018
 30
0.0
 10
2.221517
 20
4.638337
 30
0.0
 10
2.202918
 20
4.704796
 30
0.0
 10
2.196137
 20
4.837166
 30
0.0
 10
2.195203
 20
5.082221
 30
0.0
 10
2.198541
 20
5.378751
 30
0.0
 10
2.207903
 20
5.489543
 30
0.0
 10
2.216873
 20
5.511479
 30
0.0
 10
2.220603
 20
5.553196
 30
0.0
 10
2.227419
 20
5.603470
 30
0.0
 10
2.263998
 20
5.629592
 30
0.0
 10
2.305213
 20
5.642925
 30
0.0
 10
2.343373
 20
5.646063
 30
0.0
 10
2.374045
 20
5.634138
 30
0.0
 10
2.383135
 20
5.590485
 30
0.0
 10
2.380478
 20
5.545067
 30
0.0
 10
2.360910
 20
5.515492
 30
0.0
 10
2.341848
 20
5.487097
 30
0.0
 10
2.334903
 20
5.450224
 30
0.0
 10
2.331173
 20
5.418445
 30
0.0
 10
2.322203
 20
5.400643
 30
0.0
 10
2.313234
 20
5.376886
 30
0.0
 10
2.309503
 20
5.330793
 30
0.0
 10
2.313234
 20
5.284699
 30
0.0
 10
2.322203
 20
5.260943
 30
0.0
 10
2.331505
 20
5.236240
 30
0.0
 10
2.334605
 20
5.191093
 30
0.0
 10
2.331505
 20
5.145945
 30
0.0
 10
2.322203
 20
5.121243
 30
0.0
 10
2.313234
 20
5.103082
 30
0.0
 10
2.309503
 20
5.070443
 30
0.0
 10
2.305773
 20
5.037803
 30
0.0
 10
2.296803
 20
5.019643
 30
0.0
 10
2.287834
 20
4.988425
 30
0.0
 10
2.284103
 20
4.924393
 30
0.0
 10
2.287834
 20
4.860360
 30
0.0
 10
2.296803
 20
4.829143
 30
0.0
 10
2.305773
 20
4.811508
 30
0.0
 10
2.309503
 20
4.780133
 30
0.0
 10
2.314266
 20
4.742075
 30
0.0
 10
2.334906
 20
4.720433
 30
0.0
 10
2.380946
 20
4.710732
 30
0.0
 10
2.461912
 20
4.708493
 30
0.0
 10
2.552517
 20
4.711760
 30
0.0
 10
2.611167
 20
4.722700
 30
0.0
 10
2.642787
 20
4.743017
 30
0.0
 10
2.652305
 20
4.774418
 30
0.0
 10
2.639703
 20
4.816443
 30
0.0
 10
2.630734
 20
4.834388
 30
0.0
 10
2.627003
 20
4.866511
 30
0.0
 10
2.621419
 20
4.900908
 30
0.0
 10
2.601603
 20
4.915372
 30
0.0
 10
2.582893
 20
4.927889
 30
0.0
 10
2.576203
 20
4.950960
 30
0.0
 10
2.568195
 20
4.979928
 30
0.0
 10
2.548941
 20
5.008927
 30
0.0
 10
2.530867
 20
5.035057
 30
0.0
 10
2.535022
 20
5.054195
 30
0.0
 10
2.552762
 20
5.102193
 30
0.0
 10
2.565063
 20
5.128687
 30
0.0
 10
2.603503
 20
5.137808
 30
0.0
 10
2.645504
 20
5.134218
 30
0.0
 10
2.670178
 20
5.100932
 30
0.0
 10
2.690503
 20
5.046513
 30
0.0
 10
2.731778
 20
4.947185
 30
0.0
 10
2.770472
 20
4.878878
 30
0.0
 10
2.785768
 20
4.865223
 30
0.0
 10
2.801628
 20
4.861214
 30
0.0
 10
2.824627
 20
4.868248
 30
0.0
 10
2.830203
 20
4.898243
 30
0.0
 10
2.817503
 20
4.943443
 30
0.0
 10
2.804803
 20
4.979752
 30
0.0
 10
2.789563
 20
5.023453
 30
0.0
 10
2.780673
 20
5.038693
 30
0.0
 10
2.789563
 20
5.053933
 30
0.0
 10
2.804803
 20
5.095891
 30
0.0
 10
2.816891
 20
5.127062
 30
0.0
 10
2.849250
 20
5.164620
 30
0.0
 10
2.896023
 20
5.202949
 30
0.0
 10
2.951356
 20
5.236435
 30
0.0
 10
3.015169
 20
5.260141
 30
0.0
 10
3.085606
 20
5.267293
 30
0.0
 10
3.139679
 20
5.271023
 30
0.0
 10
3.166753
 20
5.279993
 30
0.0
 10
3.183911
 20
5.290075
 30
0.0
 10
3.213558
 20
5.291968
 30
0.0
 10
3.285453
 20
5.272713
 30
0.0
 10
3.318789
 20
5.247055
 30
0.0
 10
3.325503
 20
5.198889
 30
0.0
 10
3.333078
 20
5.148492
 30
0.0
 10
3.363603
 20
5.108543
 30
0.0
 10
3.401703
 20
5.057335
 30
0.0
 10
3.427103
 20
5.019643
 30
0.0
 10
3.452503
 20
4.981788
 30
0.0
 10
3.484191
 20
4.937151
 30
0.0
 10
3.544901
 20
4.848071
 30
0.0
 10
3.569506
 20
4.796124
 30
0.0
 10
3.579503
 20
4.759339
 30
0.0
 10
3.591504
 20
4.726908
 30
0.0
 10
3.600853
 20
4.683899
 30
0.0
 10
3.606481
 20
4.597436
 30
0.0
 10
3.604362
 20
4.493336
 30
0.0
 10
3.595774
 20
4.468719
 30
0.0
 10
3.579625
 20
4.448273
 30
0.0
 10
3.535076
 20
4.411961
 30
0.0
 10
3.478435
 20
4.381553
 30
0.0
 10
3.417948
 20
4.360660
 30
0.0
 10
3.361859
 20
4.352893
 30
0.0
 10
3.316998
 20
4.356623
 30
0.0
 10
3.293753
 20
4.365593
 30
0.0
 10
3.293748
 20
4.365592
 30
0.0
  0
LWPOLYLINE
  5
101
100
AcDbEntity
  8
Layer_1
 62
7
100
AcDbPolyline
 90
24
 70
0
 10
3.232604
 20
4.863105
 30
0.0
 10
3.257527
 20
4.910845
 30
0.0
 10
3.259907
 20
4.974699
 30
0.0
 10
3.241629
 20
5.039408
 30
0.0
 10
3.204583
 20
5.089710
 30
0.0
 10
3.185696
 20
5.119621
 30
0.0
 10
3.179424
 20
5.133532
 30
0.0
 10
3.162524
 20
5.145351
 30
0.0
 10
3.107069
 20
5.161163
 30
0.0
 10
3.039789
 20
5.163956
 30
0.0
 10
2.981142
 20
5.150628
 30
0.0
 10
2.955597
 20
5.132426
 30
0.0
 10
2.937103
 20
5.106652
 30
0.0
 10
2.921434
 20
5.040854
 30
0.0
 10
2.934460
 20
4.970154
 30
0.0
 10
2.951837
 20
4.938254
 30
0.0
 10
2.976510
 20
4.911473
 30
0.0
 10
2.995298
 20
4.881398
 30
0.0
 10
3.004941
 20
4.864277
 30
0.0
 10
3.032056
 20
4.850572
 30
0.0
 10
3.127829
 20
4.837051
 30
0.0
 10
3.194231
 20
4.841188
 30
0.0
 10
3.232604
 20
4.863105
 30
0.0
 10
3.232604
 20
4.863105
 30
0.0
  0
LWPOLYLINE
  5
102
100
AcDbEntity
  8
Layer_1
 62
7
100
AcDbPolyline
 90
254
 70
0
 10
8.532182
 20
7.230268
 30
0.0
 10
8.520706
 20
7.295347
 30
0.0
 10
8.537583
 20
7.382711
 30
0.0
 10
8.570821
 20
7.534241
 30
0.0
 10
8.611951
 20
7.703411
 30
0.0
 10
8.679620
 20
7.907705
 30
0.0
 10
8.709668
 20
7.989068
 30
0.0
 10
8.620901
 20
8.093626
 30
0.0
 10
8.510945
 20
8.214017
 30
0.0
 10
8.487357
 20
8.220331
 30
0.0
 10
8.465450
 20
8.204443
 30
0.0
 10
8.411060
 20
8.165310
 30
0.0
 10
8.297298
 20
8.131794
 30
0.0
 10
8.176393
 20
8.112091
 30
0.0
 10
8.139365
 20
8.112091
 30
0.0
 10
8.195750
 20
8.060115
 30
0.0
 10
8.329091
 20
7.913342
 30
0.0
 10
8.375064
 20
7.847222
 30
0.0
 10
8.392795
 20
7.804671
 30
0.0
 10
8.388138
 20
7.778612
 30
0.0
 10
8.374375
 20
7.758182
 30
0.0
 10
8.351822
 20
7.743438
 30
0.0
 10
8.320792
 20
7.734434
 30
0.0
 10
8.234559
 20
7.733864
 30
0.0
 10
8.118190
 20
7.756909
 30
0.0
 10
8.016671
 20
7.789748
 30
0.0
 10
7.935722
 20
7.832026
 30
0.0
 10
7.861430
 20
7.892998
 30
0.0
 10
7.779882
 20
7.981916
 30
0.0
 10
7.742037
 20
8.015141
 30
0.0
 10
7.695238
 20
8.023191
 30
0.0
 10
7.622311
 20
8.031269
 30
0.0
 10
7.623048
 20
8.024480
 30
0.0
 10
7.642254
 20
8.000025
 30
0.0
 10
7.722870
 20
7.913566
 30
0.0
 10
7.824075
 20
7.803319
 30
0.0
 10
7.842082
 20
7.772635
 30
0.0
 10
7.846695
 20
7.747032
 30
0.0
 10
7.839585
 20
7.711112
 30
0.0
 10
7.816170
 20
7.686276
 30
0.0
 10
7.795849
 20
7.674343
 30
0.0
 10
7.766160
 20
7.674770
 30
0.0
 10
7.567295
 20
7.734119
 30
0.0
 10
7.479348
 20
7.765606
 30
0.0
 10
7.407174
 20
7.801805
 30
0.0
 10
7.340908
 20
7.848635
 30
0.0
 10
7.270682
 20
7.912014
 30
0.0
 10
7.183373
 20
7.988832
 30
0.0
 10
7.106116
 20
8.044152
 30
0.0
 10
7.036014
 20
8.084162
 30
0.0
 10
7.028282
 20
8.053348
 30
0.0
 10
7.007290
 20
8.015882
 30
0.0
 10
6.965075
 20
7.969624
 30
0.0
 10
6.909854
 20
7.922453
 30
0.0
 10
6.849844
 20
7.882247
 30
0.0
 10
6.750994
 20
7.838974
 30
0.0
 10
6.660365
 20
7.825933
 30
0.0
 10
6.580203
 20
7.843072
 30
0.0
 10
6.512752
 20
7.890335
 30
0.0
 10
6.475274
 20
7.941590
 30
0.0
 10
6.469089
 20
8.020755
 30
0.0
 10
6.477456
 20
8.098019
 30
0.0
 10
6.504090
 20
8.164815
 30
0.0
 10
6.552305
 20
8.226850
 30
0.0
 10
6.625415
 20
8.289831
 30
0.0
 10
6.727539
 20
8.354758
 30
0.0
 10
6.771358
 20
8.371451
 30
0.0
 10
6.811864
 20
8.377668
 30
0.0
 10
6.850194
 20
8.373437
 30
0.0
 10
6.887483
 20
8.358789
 30
0.0
 10
6.963486
 20
8.298350
 30
0.0
 10
7.027545
 20
8.232741
 30
0.0
 10
7.033895
 20
8.308941
 30
0.0
 10
7.043454
 20
8.367947
 30
0.0
 10
7.063394
 20
8.414343
 30
0.0
 10
7.097434
 20
8.454065
 30
0.0
 10
7.149296
 20
8.493048
 30
0.0
 10
7.217921
 20
8.526107
 30
0.0
 10
7.314393
 20
8.545556
 30
0.0
 10
7.430446
 20
8.554708
 30
0.0
 10
7.547102
 20
8.552840
 30
0.0
 10
7.650456
 20
8.540829
 30
0.0
 10
7.726604
 20
8.519553
 30
0.0
 10
7.783061
 20
8.499243
 30
0.0
 10
7.797678
 20
8.503657
 30
0.0
 10
7.813929
 20
8.517535
 30
0.0
 10
7.853760
 20
8.546355
 30
0.0
 10
7.907064
 20
8.572811
 30
0.0
 10
8.035539
 20
8.614245
 30
0.0
 10
8.162252
 20
8.633074
 30
0.0
 10
8.213351
 20
8.631274
 30
0.0
 10
8.250095
 20
8.620538
 30
0.0
 10
8.330396
 20
8.583066
 30
0.0
 10
8.404976
 20
8.538171
 30
0.0
 10
8.437877
 20
8.518492
 30
0.0
 10
8.460523
 20
8.505178
 30
0.0
 10
8.492475
 20
8.471719
 30
0.0
 10
8.551579
 20
8.383282
 30
0.0
 10
8.633894
 20
8.283005
 30
0.0
 10
8.723351
 20
8.203288
 30
0.0
 10
8.736499
 20
8.212808
 30
0.0
 10
8.752284
 20
8.241388
 30
0.0
 10
8.801213
 20
8.321642
 30
0.0
 10
8.827805
 20
8.364150
 30
0.0
 10
8.847836
 20
8.412847
 30
0.0
 10
8.873471
 20
8.465310
 30
0.0
 10
8.912803
 20
8.507526
 30
0.0
 10
8.957496
 20
8.532798
 30
0.0
 10
8.999214
 20
8.534433
 30
0.0
 10
9.026324
 20
8.518547
 30
0.0
 10
9.036776
 20
8.489624
 30
0.0
 10
9.031008
 20
8.440380
 30
0.0
 10
9.009456
 20
8.363528
 30
0.0
 10
8.963954
 20
8.182530
 30
0.0
 10
8.907121
 20
7.948558
 30
0.0
 10
8.831188
 20
7.724742
 30
0.0
 10
8.773321
 20
7.569204
 30
0.0
 10
8.737332
 20
7.464466
 30
0.0
 10
8.771438
 20
7.455080
 30
0.0
 10
8.853093
 20
7.446314
 30
0.0
 10
8.971792
 20
7.446803
 30
0.0
 10
9.089329
 20
7.455121
 30
0.0
 10
9.167495
 20
7.469846
 30
0.0
 10
9.281795
 20
7.502021
 30
0.0
 10
9.727520
 20
7.596929
 30
0.0
 10
9.788623
 20
7.619109
 30
0.0
 10
9.844550
 20
7.649574
 30
0.0
 10
9.970770
 20
7.754755
 30
0.0
 10
10.028800
 20
7.815500
 30
0.0
 10
10.053867
 20
7.863835
 30
0.0
 10
10.049323
 20
7.916207
 30
0.0
 10
10.018519
 20
7.989067
 30
0.0
 10
9.970684
 20
8.065750
 30
0.0
 10
9.901044
 20
8.138249
 30
0.0
 10
9.821381
 20
8.202962
 30
0.0
 10
9.749300
 20
8.241487
 30
0.0
 10
9.663366
 20
8.261806
 30
0.0
 10
9.542145
 20
8.271902
 30
0.0
 10
9.420880
 20
8.281702
 30
0.0
 10
9.361170
 20
8.293125
 30
0.0
 10
9.348436
 20
8.314063
 30
0.0
 10
9.346281
 20
8.344184
 30
0.0
 10
9.354183
 20
8.377701
 30
0.0
 10
9.371618
 20
8.408829
 30
0.0
 10
9.392755
 20
8.429607
 30
0.0
 10
9.414701
 20
8.440428
 30
0.0
 10
9.435670
 20
8.440826
 30
0.0
 10
9.453880
 20
8.430334
 30
0.0
 10
9.504085
 20
8.415984
 30
0.0
 10
9.599863
 20
8.405106
 30
0.0
 10
9.704822
 20
8.400506
 30
0.0
 10
9.782570
 20
8.404990
 30
0.0
 10
9.834047
 20
8.418178
 30
0.0
 10
9.873750
 20
8.437292
 30
0.0
 10
9.906630
 20
8.465561
 30
0.0
 10
9.937634
 20
8.506217
 30
0.0
 10
9.962088
 20
8.561751
 30
0.0
 10
9.964944
 20
8.625738
 30
0.0
 10
9.945619
 20
8.703192
 30
0.0
 10
9.903528
 20
8.799125
 30
0.0
 10
9.852044
 20
8.884689
 30
0.0
 10
9.778167
 20
8.973579
 30
0.0
 10
9.669912
 20
9.078555
 30
0.0
 10
9.515292
 20
9.212375
 30
0.0
 10
9.306110
 20
9.371252
 30
0.0
 10
9.213910
 20
9.433337
 30
0.0
 10
9.166250
 20
9.458292
 30
0.0
 10
9.146227
 20
9.410060
 30
0.0
 10
9.125046
 20
9.313050
 30
0.0
 10
9.131125
 20
9.116200
 30
0.0
 10
9.148253
 20
8.835992
 30
0.0
 10
9.163176
 20
8.566561
 30
0.0
 10
9.180353
 20
8.385142
 30
0.0
 10
9.212027
 20
8.105264
 30
0.0
 10
9.243767
 20
7.876827
 30
0.0
 10
9.261597
 20
7.806816
 30
0.0
 10
9.281741
 20
7.761297
 30
0.0
 10
9.290705
 20
7.733868
 30
0.0
 10
9.289676
 20
7.702770
 30
0.0
 10
9.280029
 20
7.675519
 30
0.0
 10
9.263140
 20
7.659636
 30
0.0
 10
9.210650
 20
7.669704
 30
0.0
 10
9.192121
 20
7.681988
 30
0.0
 10
9.178236
 20
7.701144
 30
0.0
 10
9.153229
 20
7.781892
 30
0.0
 10
9.128613
 20
7.915506
 30
0.0
 10
9.103873
 20
8.112193
 30
0.0
 10
9.053167
 20
8.702642
 30
0.0
 10
9.027685
 20
8.975692
 30
0.0
 10
9.007927
 20
9.147142
 30
0.0
 10
8.994439
 20
9.286842
 30
0.0
 10
9.003267
 20
9.424196
 30
0.0
 10
9.013040
 20
9.515382
 30
0.0
 10
8.915008
 20
9.544273
 30
0.0
 10
8.836580
 20
9.570489
 30
0.0
 10
8.801108
 20
9.602313
 30
0.0
 10
8.787020
 20
9.636269
 30
0.0
 10
8.801701
 20
9.671017
 30
0.0
 10
8.823944
 20
9.694723
 30
0.0
 10
8.852749
 20
9.708754
 30
0.0
 10
8.881828
 20
9.711309
 30
0.0
 10
8.904893
 20
9.700585
 30
0.0
 10
8.953517
 20
9.686892
 30
0.0
 10
8.981168
 20
9.681864
 30
0.0
 10
8.998602
 20
9.669775
 30
0.0
 10
9.031888
 20
9.649813
 30
0.0
 10
9.097656
 20
9.625857
 30
0.0
 10
9.182826
 20
9.593175
 30
0.0
 10
9.262756
 20
9.552232
 30
0.0
 10
9.396106
 20
9.473141
 30
0.0
 10
9.545926
 20
9.369788
 30
0.0
 10
9.610711
 20
9.316933
 30
0.0
 10
9.637629
 20
9.287242
 30
0.0
 10
9.763712
 20
9.162540
 30
0.0
 10
9.891820
 20
9.033770
 30
0.0
 10
9.983859
 20
8.905791
 30
0.0
 10
10.041338
 20
8.776003
 30
0.0
 10
10.065766
 20
8.641803
 30
0.0
 10
10.066964
 20
8.549003
 30
0.0
 10
10.054921
 20
8.479144
 30
0.0
 10
10.026036
 20
8.420953
 30
0.0
 10
9.976705
 20
8.363155
 30
0.0
 10
9.910456
 20
8.296248
 30
0.0
 10
9.988022
 20
8.222945
 30
0.0
 10
10.057627
 20
8.145415
 30
0.0
 10
10.111847
 20
8.059713
 30
0.0
 10
10.150205
 20
7.969519
 30
0.0
 10
10.158106
 20
7.878305
 30
0.0
 10
10.154780
 20
7.813058
 30
0.0
 10
10.137860
 20
7.763362
 30
0.0
 10
10.096932
 20
7.710810
 30
0.0
 10
10.021581
 20
7.636995
 30
0.0
 10
9.942206
 20
7.547436
 30
0.0
 10
9.934133
 20
7.519881
 30
0.0
 10
9.903566
 20
7.499534
 30
0.0
 10
9.840986
 20
7.482584
 30
0.0
 10
9.736876
 20
7.465220
 30
0.0
 10
9.449398
 20
7.414204
 30
0.0
 10
9.173856
 20
7.350739
 30
0.0
 10
8.956393
 20
7.311384
 30
0.0
 10
8.844060
 20
7.301627
 30
0.0
 10
8.817827
 20
7.305818
 30
0.0
 10
8.797993
 20
7.316494
 30
0.0
 10
8.740956
 20
7.336279
 30
0.0
 10
8.679595
 20
7.329683
 30
0.0
 10
8.664828
 20
7.313124
 30
0.0
 10
8.659506
 20
7.280852
 30
0.0
 10
8.655098
 20
7.253385
 30
0.0
 10
8.643254
 20
7.230312
 30
0.0
 10
8.605557
 20
7.200640
 30
0.0
 10
8.563006
 20
7.198428
 30
0.0
 10
8.545095
 20
7.209680
 30
0.0
 10
8.532193
 20
7.230269
 30
0.0
 10
8.532182
 20
7.230268
 30
0.0
  0
LWPOLYLINE
  5
103
100
AcDbEntity
  8
Layer_1
 62
7
100
AcDbPolyline
 90
14
 70
0
 10
7.526203
 20
7.939896
 30
0.0
 10
7.413756
 20
8.040208
 30
0.0
 10
7.380981
 20
8.057280
 30
0.0
 10
7.348127
 20
8.063173
 30
0.0
 10
7.293695
 20
8.067641
 30
0.0
 10
7.366996
 20
7.995938
 30
0.0
 10
7.440295
 20
7.912951
 30
0.0
 10
7.463885
 20
7.889324
 30
0.0
 10
7.519607
 20
7.859187
 30
0.0
 10
7.584885
 20
7.833043
 30
0.0
 10
7.637145
 20
7.821389
 30
0.0
 10
7.609795
 20
7.856075
 30
0.0
 10
7.526203
 20
7.939896
 30
0.0
 10
7.526203
 20
7.939896
 30
0.0
  0
LWPOLYLINE
  5
104
100
AcDbEntity
  8
Layer_1
 62
7
100
AcDbPolyline
 90
14
 70
0
 10
8.203892
 20
7.881251
 30
0.0
 10
8.084549
 20
8.004284
 30
0.0
 10
8.017085
 20
8.062208
 30
0.0
 10
7.978490
 20
8.086691
 30
0.0
 10
7.914564
 20
8.067318
 30
0.0
 10
7.872095
 20
8.038157
 30
0.0
 10
7.890137
 20
8.011624
 30
0.0
 10
7.933162
 20
7.970721
 30
0.0
 10
8.027546
 20
7.903509
 30
0.0
 10
8.134092
 20
7.862145
 30
0.0
 10
8.199986
 20
7.846626
 30
0.0
 10
8.229425
 20
7.845393
 30
0.0
 10
8.203892
 20
7.881252
 30
0.0
 10
8.203892
 20
7.881251
 30
0.0
  0
LWPOLYLINE
  5
105
100
AcDbEntity
  8
Layer_1
 62
7
100
AcDbPolyline
 90
19
 70
0
 10
6.805298
 20
7.982798
 30
0.0
 10
6.875730
 20
8.032176
 30
0.0
 10
6.919064
 20
8.082801
 30
0.0
 10
6.909688
 20
8.111417
 30
0.0
 10
6.887027
 20
8.146804
 30
0.0
 10
6.820171
 20
8.213647
 30
0.0
 10
6.768608
 20
8.244844
 30
0.0
 10
6.752722
 20
8.243549
 30
0.0
 10
6.734183
 20
8.233082
 30
0.0
 10
6.653957
 20
8.167577
 30
0.0
 10
6.601349
 20
8.098074
 30
0.0
 10
6.581139
 20
8.033385
 30
0.0
 10
6.584677
 20
8.005598
 30
0.0
 10
6.598107
 20
7.982318
 30
0.0
 10
6.631933
 20
7.955015
 30
0.0
 10
6.672818
 20
7.945983
 30
0.0
 10
6.728146
 20
7.955238
 30
0.0
 10
6.805298
 20
7.982797
 30
0.0
 10
6.805298
 20
7.982798
 30
0.0
  0
LWPOLYLINE
  5
106
100
AcDbEntity
  8
Layer_1
 62
7
100
AcDbPolyline
 90
33
 70
0
 10
7.223119
 20
8.190644
 30
0.0
 10
7.205700
 20
8.201914
 30
0.0
 10
7.195522
 20
8.217628
 30
0.0
 10
7.194728
 20
8.255055
 30
0.0
 10
7.216402
 20
8.288264
 30
0.0
 10
7.256210
 20
8.302591
 30
0.0
 10
7.328457
 20
8.269923
 30
0.0
 10
7.427595
 20
8.194461
 30
0.0
 10
7.466194
 20
8.173367
 30
0.0
 10
7.526740
 20
8.155133
 30
0.0
 10
7.669936
 20
8.137524
 30
0.0
 10
7.713345
 20
8.137552
 30
0.0
 10
7.712583
 20
8.265842
 30
0.0
 10
7.710700
 20
8.349433
 30
0.0
 10
7.698876
 20
8.394483
 30
0.0
 10
7.665878
 20
8.418223
 30
0.0
 10
7.600473
 20
8.437886
 30
0.0
 10
7.519470
 20
8.448834
 30
0.0
 10
7.417510
 20
8.448089
 30
0.0
 10
7.317302
 20
8.436983
 30
0.0
 10
7.241557
 20
8.416848
 30
0.0
 10
7.169730
 20
8.375406
 30
0.0
 10
7.149307
 20
8.352263
 30
0.0
 10
7.138958
 20
8.326195
 30
0.0
 10
7.138494
 20
8.296220
 30
0.0
 10
7.147725
 20
8.261356
 30
0.0
 10
7.194516
 20
8.173030
 30
0.0
 10
7.225593
 20
8.130141
 30
0.0
 10
7.231972
 20
8.133278
 30
0.0
 10
7.237120
 20
8.150188
 30
0.0
 10
7.238270
 20
8.176720
 30
0.0
 10
7.223122
 20
8.190640
 30
0.0
 10
7.223119
 20
8.190644
 30
0.0
  0
LWPOLYLINE
  5
107
100
AcDbEntity
  8
Layer_1
 62
7
100
AcDbPolyline
 90
10
 70
0
 10
7.846246
 20
8.237471
 30
0.0
 10
7.828232
 20
8.302579
 30
0.0
 10
7.810667
 20
8.334316
 30
0.0
 10
7.801884
 20
8.299320
 30
0.0
 10
7.801602
 20
8.219026
 30
0.0
 10
7.811949
 20
8.185135
 30
0.0
 10
7.828399
 20
8.188914
 30
0.0
 10
7.841192
 20
8.209443
 30
0.0
 10
7.846249
 20
8.237471
 30
0.0
 10
7.846246
 20
8.237471
 30
0.0
  0
LWPOLYLINE
  5
108
100
AcDbEntity
  8
Layer_1
 62
7
100
AcDbPolyline
 90
22
 70
0
 10
8.246745
 20
8.231592
 30
0.0
 10
8.338715
 20
8.256034
 30
0.0
 10
8.391566
 20
8.280835
 30
0.0
 10
8.408888
 20
8.308688
 30
0.0
 10
8.394268
 20
8.342285
 30
0.0
 10
8.350975
 20
8.418911
 30
0.0
 10
8.330784
 20
8.449663
 30
0.0
 10
8.299371
 20
8.475119
 30
0.0
 10
8.211054
 20
8.508459
 30
0.0
 10
8.102383
 20
8.515572
 30
0.0
 10
7.989714
 20
8.493099
 30
0.0
 10
7.927662
 20
8.468528
 30
0.0
 10
7.897060
 20
8.446892
 30
0.0
 10
7.894029
 20
8.422930
 30
0.0
 10
7.914691
 20
8.391382
 30
0.0
 10
7.948295
 20
8.330728
 30
0.0
 10
7.962110
 20
8.301950
 30
0.0
 10
7.995325
 20
8.261852
 30
0.0
 10
8.045121
 20
8.221579
 30
0.0
 10
8.106450
 20
8.214138
 30
0.0
 10
8.246745
 20
8.231592
 30
0.0
 10
8.246745
 20
8.231592
 30
0.0
  0
LWPOLYLINE
  5
109
100
AcDbEntity
  8
Layer_1
 62
7
100
AcDbPolyline
 90
217
 70
0
 10
13.727429
 20
7.296669
 30
0.0
 10
13.646787
 20
7.303329
 30
0.0
 10
13.603604
 20
7.314101
 30
0.0
 10
13.590910
 20
7.333113
 30
0.0
 10
13.587878
 20
7.357708
 30
0.0
 10
13.594194
 20
7.383117
 30
0.0
 10
13.609546
 20
7.404572
 30
0.0
 10
13.625806
 20
7.414779
 30
0.0
 10
13.651218
 20
7.419183
 30
0.0
 10
13.765095
 20
7.412365
 30
0.0
 10
13.951669
 20
7.399656
 30
0.0
 10
14.114146
 20
7.411882
 30
0.0
 10
14.260946
 20
7.436679
 30
0.0
 10
14.311678
 20
7.456105
 30
0.0
 10
14.363191
 20
7.484872
 30
0.0
 10
14.390328
 20
7.505271
 30
0.0
 10
14.408448
 20
7.528384
 30
0.0
 10
14.417325
 20
7.555739
 30
0.0
 10
14.416735
 20
7.588862
 30
0.0
 10
14.386247
 20
7.678525
 30
0.0
 10
14.315176
 20
7.809589
 30
0.0
 10
14.257611
 20
7.907137
 30
0.0
 10
14.211279
 20
7.883003
 30
0.0
 10
14.150084
 20
7.864142
 30
0.0
 10
14.042723
 20
7.861656
 30
0.0
 10
13.947630
 20
7.860465
 30
0.0
 10
13.929567
 20
7.855986
 30
0.0
 10
13.926669
 20
7.848405
 30
0.0
 10
13.917502
 20
7.813890
 30
0.0
 10
13.885962
 20
7.799570
 30
0.0
 10
13.838311
 20
7.802630
 30
0.0
 10
13.785754
 20
7.820706
 30
0.0
 10
13.739496
 20
7.851435
 30
0.0
 10
13.613758
 20
7.958829
 30
0.0
 10
13.532470
 20
8.025279
 30
0.0
 10
13.516194
 20
7.977936
 30
0.0
 10
13.482910
 20
7.923571
 30
0.0
 10
13.419682
 20
7.856842
 30
0.0
 10
13.363580
 20
7.810273
 30
0.0
 10
13.317517
 20
7.786143
 30
0.0
 10
13.273522
 20
7.781944
 30
0.0
 10
13.223626
 20
7.795170
 30
0.0
 10
13.193481
 20
7.801880
 30
0.0
 10
13.177718
 20
7.788820
 30
0.0
 10
13.163293
 20
7.773967
 30
0.0
 10
13.143563
 20
7.768496
 30
0.0
 10
13.095880
 20
7.781502
 30
0.0
 10
13.050056
 20
7.819454
 30
0.0
 10
13.021475
 20
7.873967
 30
0.0
 10
13.013227
 20
7.897474
 30
0.0
 10
12.997677
 20
7.906278
 30
0.0
 10
12.907646
 20
7.882583
 30
0.0
 10
12.696816
 20
7.822937
 30
0.0
 10
12.610751
 20
7.810805
 30
0.0
 10
12.521279
 20
7.807291
 30
0.0
 10
12.429661
 20
7.810976
 30
0.0
 10
12.387041
 20
7.819839
 30
0.0
 10
12.358837
 20
7.912840
 30
0.0
 10
12.342496
 20
8.021034
 30
0.0
 10
12.329994
 20
8.071668
 30
0.0
 10
12.300528
 20
8.135613
 30
0.0
 10
12.266157
 20
8.190433
 30
0.0
 10
12.238941
 20
8.213691
 30
0.0
 10
12.189120
 20
8.176568
 30
0.0
 10
12.159199
 20
8.135291
 30
0.0
 10
12.151996
 20
8.080910
 30
0.0
 10
12.146591
 20
8.026633
 30
0.0
 10
12.133594
 20
7.978334
 30
0.0
 10
12.111564
 20
7.942797
 30
0.0
 10
12.077999
 20
7.934291
 30
0.0
 10
12.050426
 20
7.937675
 30
0.0
 10
12.030420
 20
7.949142
 30
0.0
 10
12.015917
 20
7.970664
 30
0.0
 10
12.004855
 20
8.004213
 30
0.0
 10
11.978882
 20
8.076893
 30
0.0
 10
11.932122
 20
8.172476
 30
0.0
 10
11.908487
 20
8.205814
 30
0.0
 10
11.875941
 20
8.191526
 30
0.0
 10
11.827253
 20
8.174446
 30
0.0
 10
11.736570
 20
8.172289
 30
0.0
 10
11.649516
 20
8.171424
 30
0.0
 10
11.639621
 20
8.165171
 30
0.0
 10
11.643350
 20
8.153239
 30
0.0
 10
11.694796
 20
8.016841
 30
0.0
 10
11.746215
 20
7.880489
 30
0.0
 10
11.756187
 20
7.854467
 30
0.0
 10
11.756659
 20
7.829910
 30
0.0
 10
11.747580
 20
7.806546
 30
0.0
 10
11.728903
 20
7.784105
 30
0.0
 10
11.684576
 20
7.757768
 30
0.0
 10
11.645082
 20
7.760635
 30
0.0
 10
11.616747
 20
7.789726
 30
0.0
 10
11.605896
 20
7.842061
 30
0.0
 10
11.571934
 20
7.975513
 30
0.0
 10
11.510661
 20
8.153366
 30
0.0
 10
11.496065
 20
8.169063
 30
0.0
 10
11.473728
 20
8.175591
 30
0.0
 10
11.448099
 20
8.180043
 30
0.0
 10
11.429883
 20
8.193458
 30
0.0
 10
11.419006
 20
8.215926
 30
0.0
 10
11.415396
 20
8.247535
 30
0.0
 10
11.421557
 20
8.282238
 30
0.0
 10
11.440796
 20
8.302591
 30
0.0
 10
11.458037
 20
8.315181
 30
0.0
 10
11.464787
 20
8.330696
 30
0.0
 10
11.447827
 20
8.381955
 30
0.0
 10
11.390592
 20
8.534355
 30
0.0
 10
11.339033
 20
8.673894
 30
0.0
 10
11.326960
 20
8.710395
 30
0.0
 10
11.332002
 20
8.741944
 30
0.0
 10
11.352088
 20
8.764117
 30
0.0
 10
11.385151
 20
8.772491
 30
0.0
 10
11.409906
 20
8.762583
 30
0.0
 10
11.435188
 20
8.736014
 30
0.0
 10
11.457529
 20
8.697521
 30
0.0
 10
11.473462
 20
8.651841
 30
0.0
 10
11.517373
 20
8.537387
 30
0.0
 10
11.570528
 20
8.405604
 30
0.0
 10
11.593196
 20
8.321198
 30
0.0
 10
11.597860
 20
8.307786
 30
0.0
 10
11.609071
 20
8.301670
 30
0.0
 10
11.798058
 20
8.293115
 30
0.0
 10
11.859896
 20
8.296900
 30
0.0
 10
11.780236
 20
8.457757
 30
0.0
 10
11.641994
 20
8.686252
 30
0.0
 10
11.621310
 20
8.735712
 30
0.0
 10
11.622292
 20
8.781651
 30
0.0
 10
11.642138
 20
8.813589
 30
0.0
 10
11.678044
 20
8.821043
 30
0.0
 10
11.709049
 20
8.796565
 30
0.0
 10
11.755297
 20
8.735289
 30
0.0
 10
11.878826
 20
8.524084
 30
0.0
 10
11.975687
 20
8.351675
 30
0.0
 10
12.025819
 20
8.256425
 30
0.0
 10
12.052389
 20
8.194641
 30
0.0
 10
12.069044
 20
8.234049
 30
0.0
 10
12.097530
 20
8.271716
 30
0.0
 10
12.144540
 20
8.306040
 30
0.0
 10
12.199746
 20
8.331030
 30
0.0
 10
12.252820
 20
8.340691
 30
0.0
 10
12.287046
 20
8.335517
 30
0.0
 10
12.318738
 20
8.317548
 30
0.0
 10
12.392846
 20
8.228544
 30
0.0
 10
12.421882
 20
8.186247
 30
0.0
 10
12.467971
 20
8.231252
 30
0.0
 10
12.547115
 20
8.283828
 30
0.0
 10
12.645593
 20
8.315357
 30
0.0
 10
12.745220
 20
8.322304
 30
0.0
 10
12.789781
 20
8.315457
 30
0.0
 10
12.827810
 20
8.301139
 30
0.0
 10
12.834755
 20
8.299453
 30
0.0
 10
12.836384
 20
8.304936
 30
0.0
 10
12.822620
 20
8.339559
 30
0.0
 10
12.719509
 20
8.518491
 30
0.0
 10
12.644491
 20
8.645491
 30
0.0
 10
12.583628
 20
8.753441
 30
0.0
 10
12.521228
 20
8.898215
 30
0.0
 10
12.501998
 20
8.968931
 30
0.0
 10
12.494896
 20
9.025798
 30
0.0
 10
12.501481
 20
9.070872
 30
0.0
 10
12.527929
 20
9.098350
 30
0.0
 10
12.559719
 20
9.111898
 30
0.0
 10
12.583791
 20
9.104852
 30
0.0
 10
12.601111
 20
9.076383
 30
0.0
 10
12.612644
 20
9.025665
 30
0.0
 10
12.635062
 20
8.946419
 30
0.0
 10
12.681525
 20
8.836865
 30
0.0
 10
12.826673
 20
8.569291
 30
0.0
 10
12.989360
 20
8.275592
 30
0.0
 10
13.070686
 20
8.115242
 30
0.0
 10
13.101630
 20
8.152016
 30
0.0
 10
13.190604
 20
8.222798
 30
0.0
 10
13.254390
 20
8.250324
 30
0.0
 10
13.338094
 20
8.255427
 30
0.0
 10
13.414768
 20
8.249318
 30
0.0
 10
13.449036
 20
8.227520
 30
0.0
 10
13.481182
 20
8.200561
 30
0.0
 10
13.545964
 20
8.173080
 30
0.0
 10
13.642155
 20
8.114042
 30
0.0
 10
13.707098
 20
8.075942
 30
0.0
 10
13.690958
 20
8.177571
 30
0.0
 10
13.677829
 20
8.260334
 30
0.0
 10
13.687705
 20
8.295046
 30
0.0
 10
13.709744
 20
8.311526
 30
0.0
 10
13.735803
 20
8.313039
 30
0.0
 10
13.765521
 20
8.299662
 30
0.0
 10
13.798539
 20
8.271471
 30
0.0
 10
13.838135
 20
8.219628
 30
0.0
 10
13.837962
 20
8.200182
 30
0.0
 10
13.826709
 20
8.177609
 30
0.0
 10
13.821377
 20
8.146850
 30
0.0
 10
13.842949
 20
8.093154
 30
0.0
 10
13.873853
 20
8.042855
 30
0.0
 10
13.905143
 20
8.008171
 30
0.0
 10
13.963508
 20
7.983920
 30
0.0
 10
14.040417
 20
7.976159
 30
0.0
 10
14.119285
 20
7.984796
 30
0.0
 10
14.183532
 20
8.009737
 30
0.0
 10
14.195093
 20
8.027553
 30
0.0
 10
14.180357
 20
8.067321
 30
0.0
 10
14.158596
 20
8.142304
 30
0.0
 10
14.171684
 20
8.179746
 30
0.0
 10
14.202669
 20
8.205655
 30
0.0
 10
14.239132
 20
8.213766
 30
0.0
 10
14.268656
 20
8.197816
 30
0.0
 10
14.316380
 20
8.099391
 30
0.0
 10
14.390677
 20
7.939553
 30
0.0
 10
14.481488
 20
7.765900
 30
0.0
 10
14.530502
 20
7.662577
 30
0.0
 10
14.548761
 20
7.580383
 30
0.0
 10
14.548149
 20
7.509292
 30
0.0
 10
14.509174
 20
7.454833
 30
0.0
 10
14.391163
 20
7.348250
 30
0.0
 10
14.319475
 20
7.292941
 30
0.0
 10
14.077111
 20
7.292939
 30
0.0
 10
13.727429
 20
7.296668
 30
0.0
 10
13.727429
 20
7.296669
 30
0.0
  0
LWPOLYLINE
  5
10a
100
AcDbEntity
  8
Layer_1
 62
7
100
AcDbPolyline
 90
24
 70
0
 10
12.810556
 20
7.975775
 30
0.0
 10
12.914137
 20
8.008256
 30
0.0
 10
12.960666
 20
8.030749
 30
0.0
 10
12.940316
 20
8.097589
 30
0.0
 10
12.914064
 20
8.149048
 30
0.0
 10
12.877249
 20
8.127920
 30
0.0
 10
12.847845
 20
8.116945
 30
0.0
 10
12.823964
 20
8.120145
 30
0.0
 10
12.806734
 20
8.136969
 30
0.0
 10
12.797284
 20
8.166870
 30
0.0
 10
12.784095
 20
8.191324
 30
0.0
 10
12.757768
 20
8.211403
 30
0.0
 10
12.694613
 20
8.221856
 30
0.0
 10
12.622264
 20
8.204346
 30
0.0
 10
12.552715
 20
8.163781
 30
0.0
 10
12.497960
 20
8.105069
 30
0.0
 10
12.476340
 20
8.059259
 30
0.0
 10
12.485242
 20
8.002785
 30
0.0
 10
12.503557
 20
7.956623
 30
0.0
 10
12.526516
 20
7.933411
 30
0.0
 10
12.563290
 20
7.927298
 30
0.0
 10
12.620674
 20
7.931991
 30
0.0
 10
12.810556
 20
7.975775
 30
0.0
 10
12.810556
 20
7.975775
 30
0.0
  0
LWPOLYLINE
  5
10b
100
AcDbEntity
  8
Layer_1
 62
7
100
AcDbPolyline
 90
24
 70
0
 10
13.343955
 20
7.939689
 30
0.0
 10
13.389254
 20
7.983857
 30
0.0
 10
13.403801
 20
8.012646
 30
0.0
 10
13.408893
 20
8.039664
 30
0.0
 10
13.390240
 20
8.079051
 30
0.0
 10
13.371893
 20
8.095366
 30
0.0
 10
13.353243
 20
8.087601
 30
0.0
 10
13.331402
 20
8.077831
 30
0.0
 10
13.305220
 20
8.076192
 30
0.0
 10
13.282298
 20
8.086690
 30
0.0
 10
13.276362
 20
8.114165
 30
0.0
 10
13.271946
 20
8.140969
 30
0.0
 10
13.241295
 20
8.129641
 30
0.0
 10
13.214392
 20
8.108863
 30
0.0
 10
13.213485
 20
8.080725
 30
0.0
 10
13.212833
 20
8.047659
 30
0.0
 10
13.197751
 20
8.010267
 30
0.0
 10
13.181144
 20
7.972350
 30
0.0
 10
13.204329
 20
7.945984
 30
0.0
 10
13.234302
 20
7.929279
 30
0.0
 10
13.269254
 20
7.922586
 30
0.0
 10
13.306651
 20
7.926017
 30
0.0
 10
13.343955
 20
7.939689
 30
0.0
 10
13.343955
 20
7.939689
 30
0.0
  0
LWPOLYLINE
  5
10c
100
AcDbEntity
  8
Layer_1
 62
7
100
AcDbPolyline
 90
21
 70
0
 10
10.458007
 20
7.711595
 30
0.0
 10
10.437495
 20
7.774041
 30
0.0
 10
10.392342
 20
7.940125
 30
0.0
 10
10.359365
 20
8.054827
 30
0.0
 10
10.351067
 20
8.128504
 30
0.0
 10
10.360839
 20
8.175139
 30
0.0
 10
10.405116
 20
8.181941
 30
0.0
 10
10.434100
 20
8.180806
 30
0.0
 10
10.451047
 20
8.173621
 30
0.0
 10
10.473095
 20
8.118441
 30
0.0
 10
10.529752
 20
7.931595
 30
0.0
 10
10.571830
 20
7.818089
 30
0.0
 10
10.586019
 20
7.783235
 30
0.0
 10
10.587816
 20
7.755087
 30
0.0
 10
10.576740
 20
7.730938
 30
0.0
 10
10.552311
 20
7.708080
 30
0.0
 10
10.520693
 20
7.688098
 30
0.0
 10
10.496468
 20
7.681947
 30
0.0
 10
10.476589
 20
7.689742
 30
0.0
 10
10.458007
 20
7.711595
 30
0.0
 10
10.458007
 20
7.711595
 30
0.0
  0
LWPOLYLINE
  5
10d
100
AcDbEntity
  8
Layer_1
 62
7
100
AcDbPolyline
 90
89
 70
0
 10
5.608870
 20
7.715216
 30
0.0
 10
5.576734
 20
7.780775
 30
0.0
 10
5.539818
 20
7.902367
 30
0.0
 10
5.466230
 20
8.258141
 30
0.0
 10
5.429484
 20
8.435941
 30
0.0
 10
5.377212
 20
8.696416
 30
0.0
 10
5.339489
 20
8.956641
 30
0.0
 10
5.313384
 20
9.223341
 30
0.0
 10
5.280897
 20
9.566241
 30
0.0
 10
5.255844
 20
9.807541
 30
0.0
 10
5.231525
 20
9.972641
 30
0.0
 10
5.190558
 20
10.203591
 30
0.0
 10
5.170975
 20
10.322441
 30
0.0
 10
5.171801
 20
10.349801
 30
0.0
 10
5.179012
 20
10.365516
 30
0.0
 10
5.197168
 20
10.379907
 30
0.0
 10
5.217955
 20
10.384581
 30
0.0
 10
5.238798
 20
10.379561
 30
0.0
 10
5.257120
 20
10.364867
 30
0.0
 10
5.289851
 20
10.298321
 30
0.0
 10
5.306506
 20
10.224065
 30
0.0
 10
5.318895
 20
10.166915
 30
0.0
 10
5.344341
 20
9.991693
 30
0.0
 10
5.393671
 20
9.481823
 30
0.0
 10
5.426512
 20
9.225403
 30
0.0
 10
5.455516
 20
9.032843
 30
0.0
 10
5.465448
 20
8.943943
 30
0.0
 10
5.634067
 20
8.947563
 30
0.0
 10
5.834919
 20
8.963438
 30
0.0
 10
5.903674
 20
8.975693
 30
0.0
 10
5.947819
 20
8.988024
 30
0.0
 10
6.019501
 20
9.008854
 30
0.0
 10
6.066358
 20
9.019066
 30
0.0
 10
6.089060
 20
9.031685
 30
0.0
 10
6.068952
 20
9.146143
 30
0.0
 10
6.030505
 20
9.361805
 30
0.0
 10
5.998885
 20
9.648793
 30
0.0
 10
5.950809
 20
10.065367
 30
0.0
 10
5.922668
 20
10.228611
 30
0.0
 10
5.904301
 20
10.363959
 30
0.0
 10
5.906544
 20
10.422815
 30
0.0
 10
5.916744
 20
10.462428
 30
0.0
 10
5.933593
 20
10.478851
 30
0.0
 10
5.957704
 20
10.486204
 30
0.0
 10
5.982719
 20
10.483842
 30
0.0
 10
6.002280
 20
10.471118
 30
0.0
 10
6.021146
 20
10.398093
 30
0.0
 10
6.053701
 20
10.163143
 30
0.0
 10
6.106894
 20
9.763093
 30
0.0
 10
6.161912
 20
9.313135
 30
0.0
 10
6.183311
 20
9.185243
 30
0.0
 10
6.226038
 20
8.939519
 30
0.0
 10
6.252018
 20
8.683593
 30
0.0
 10
6.269612
 20
8.505793
 30
0.0
 10
6.385436
 20
7.927178
 30
0.0
 10
6.397244
 20
7.838657
 30
0.0
 10
6.394531
 20
7.782270
 30
0.0
 10
6.375929
 20
7.752491
 30
0.0
 10
6.340071
 20
7.743793
 30
0.0
 10
6.312367
 20
7.754693
 30
0.0
 10
6.285642
 20
7.781061
 30
0.0
 10
6.267202
 20
7.813399
 30
0.0
 10
6.264357
 20
7.842209
 30
0.0
 10
6.260120
 20
7.918801
 30
0.0
 10
6.238443
 20
8.074399
 30
0.0
 10
6.170865
 20
8.442293
 30
0.0
 10
6.137603
 20
8.642195
 30
0.0
 10
6.119498
 20
8.814719
 30
0.0
 10
6.119498
 20
8.865224
 30
0.0
 10
6.002023
 20
8.857506
 30
0.0
 10
5.821048
 20
8.837025
 30
0.0
 10
5.680627
 20
8.820011
 30
0.0
 10
5.513389
 20
8.811071
 30
0.0
 10
5.479213
 20
8.804765
 30
0.0
 10
5.478958
 20
8.769318
 30
0.0
 10
5.535721
 20
8.480393
 30
0.0
 10
5.571998
 20
8.302593
 30
0.0
 10
5.643762
 20
7.976466
 30
0.0
 10
5.677190
 20
7.879188
 30
0.0
 10
5.707984
 20
7.829241
 30
0.0
 10
5.729711
 20
7.803140
 30
0.0
 10
5.737147
 20
7.775684
 30
0.0
 10
5.730284
 20
7.747848
 30
0.0
 10
5.709113
 20
7.720606
 30
0.0
 10
5.682134
 20
7.701465
 30
0.0
 10
5.655449
 20
7.694133
 30
0.0
 10
5.630538
 20
7.698691
 30
0.0
 10
5.608882
 20
7.715218
 30
0.0
 10
5.608870
 20
7.715216
 30
0.0
  0
LWPOLYLINE
  5
10e
100
AcDbEntity
  8
Layer_1
 62
7
100
AcDbPolyline
 90
44
 70
0
 10
11.046928
 20
7.786374
 30
0.0
 10
10.885085
 20
7.862356
 30
0.0
 10
10.742848
 20
7.954825
 30
0.0
 10
10.697566
 20
8.003845
 30
0.0
 10
10.672236
 20
8.056060
 30
0.0
 10
10.667900
 20
8.107815
 30
0.0
 10
10.685602
 20
8.155455
 30
0.0
 10
10.698757
 20
8.181597
 30
0.0
 10
10.685602
 20
8.192709
 30
0.0
 10
10.672039
 20
8.208187
 30
0.0
 10
10.666534
 20
8.235172
 30
0.0
 10
10.669497
 20
8.264586
 30
0.0
 10
10.681335
 20
8.287351
 30
0.0
 10
10.701313
 20
8.299484
 30
0.0
 10
10.725138
 20
8.301452
 30
0.0
 10
10.750561
 20
8.293527
 30
0.0
 10
10.775335
 20
8.275980
 30
0.0
 10
10.792846
 20
8.261155
 30
0.0
 10
10.809637
 20
8.255735
 30
0.0
 10
10.877753
 20
8.271515
 30
0.0
 10
10.961897
 20
8.287784
 30
0.0
 10
11.061601
 20
8.294952
 30
0.0
 10
11.155739
 20
8.291446
 30
0.0
 10
11.198126
 20
8.272048
 30
0.0
 10
11.217862
 20
8.247741
 30
0.0
 10
11.223538
 20
8.223816
 30
0.0
 10
11.215203
 20
8.201148
 30
0.0
 10
11.192908
 20
8.180617
 30
0.0
 10
11.149905
 20
8.165525
 30
0.0
 10
11.073412
 20
8.168279
 30
0.0
 10
10.983802
 20
8.166487
 30
0.0
 10
10.979701
 20
8.154717
 30
0.0
 10
11.004488
 20
8.136506
 30
0.0
 10
11.061391
 20
8.090575
 30
0.0
 10
11.135326
 20
8.013898
 30
0.0
 10
11.202235
 20
7.933334
 30
0.0
 10
11.238058
 20
7.875743
 30
0.0
 10
11.246309
 20
7.832024
 30
0.0
 10
11.228259
 20
7.796378
 30
0.0
 10
11.200758
 20
7.771210
 30
0.0
 10
11.164251
 20
7.761312
 30
0.0
 10
11.114415
 20
7.766446
 30
0.0
 10
11.046928
 20
7.786374
 30
0.0
 10
11.046928
 20
7.786374
 30
0.0
  0
LWPOLYLINE
  5
10f
100
AcDbEntity
  8
Layer_1
 62
7
100
AcDbPolyline
 90
17
 70
0
 10
11.086648
 20
7.905716
 30
0.0
 10
11.059080
 20
7.941330
 30
0.0
 10
11.013992
 20
7.983564
 30
0.0
 10
10.897190
 20
8.065965
 30
0.0
 10
10.810998
 20
8.109141
 30
0.0
 10
10.795295
 20
8.104913
 30
0.0
 10
10.786367
 20
8.085500
 30
0.0
 10
10.787868
 20
8.056676
 30
0.0
 10
10.812698
 20
8.022617
 30
0.0
 10
10.853287
 20
7.990072
 30
0.0
 10
10.908274
 20
7.957222
 30
0.0
 10
10.963278
 20
7.931701
 30
0.0
 10
11.003912
 20
7.921142
 30
0.0
 10
11.059795
 20
7.902541
 30
0.0
 10
11.093908
 20
7.885495
 30
0.0
 10
11.086648
 20
7.905716
 30
0.0
 10
11.086648
 20
7.905716
 30
0.0
  0
LWPOLYLINE
  5
110
100
AcDbEntity
  8
Layer_1
 62
7
100
AcDbPolyline
 90
14
 70
0
 10
10.246363
 20
8.240274
 30
0.0
 10
10.237400
 20
8.285735
 30
0.0
 10
10.253943
 20
8.324383
 30
0.0
 10
10.287894
 20
8.346475
 30
0.0
 10
10.331154
 20
8.342270
 30
0.0
 10
10.353967
 20
8.319479
 30
0.0
 10
10.362853
 20
8.285362
 30
0.0
 10
10.357283
 20
8.250841
 30
0.0
 10
10.336730
 20
8.226838
 30
0.0
 10
10.308397
 20
8.216110
 30
0.0
 10
10.282774
 20
8.214940
 30
0.0
 10
10.261537
 20
8.223077
 30
0.0
 10
10.246363
 20
8.240274
 30
0.0
 10
10.246363
 20
8.240274
 30
0.0
  0
ENDSEC
  0
SECTION
  2
OBJECTS
  0
DICTIONARY
  5
C
330
0
100
AcDbDictionary
  3
ACAD_GROUP
350
D
  3
ACAD_MLINESTYLE
350
17
  0
DICTIONARY
  5
D
330
C
100
AcDbDictionary
  0
DICTIONARY
  5
1A
330
C
100
AcDbDictionary
  0
DICTIONARY
  5
17
330
C
100
AcDbDictionary
  3
STANDARD
350
18
  0
DICTIONARY
  5
19
330
C
100
AcDbDictionary
  0
ENDSEC
  0
EOF
