  0
SECTION
  2
HEADER
  9
$ACADVER
  1
AC1014
  9
$HANDSEED
  5
FFFF
  9
$MEASUREMENT
 70
     1
  0
ENDSEC
  0
SECTION
  2
TABLES
  0
TABLE
  2
VPORT
  5
8
330
0
100
AcDbSymbolTable
 70
     4
  0
VPORT
  5
2E
330
8
100
AcDbSymbolTableRecord
100
AcDbViewportTableRecord
  2
*ACTIVE
 70
     0
 10
0.0
 20
0.0
 11
1.0
 21
1.0
 12
210.0
 22
148.5
 13
0.0
 23
0.0
 14
10.0
 24
10.0
 15
10.0
 25
10.0
 16
0.0
 26
0.0
 36
1.0
 17
0.0
 27
0.0
 37
0.0
 40
341.0
 41
1.24
 42
50.0
 43
0.0
 44
0.0
 50
0.0
 51
0.0
 71
     0
 72
   100
 73
     1
 74
     3
 75
     0
 76
     0
 77
     0
 78
     0
  0
ENDTAB
  0
TABLE
  2
LTYPE
  5
5
330
0
100
AcDbSymbolTable
 70
     1
  0
LTYPE
  5
14
330
5
100
AcDbSymbolTableRecord
100
AcDbLinetypeTableRecord
  2
BYBLOCK
 70
     0
  3

 72
    65
 73
     0
 40
0.0
  0
LTYPE
  5
15
330
5
100
AcDbSymbolTableRecord
100
AcDbLinetypeTableRecord
  2
BYLAYER
 70
     0
  3

 72
    65
 73
     0
 40
0.0
  0
LTYPE
  5
16
330
5
100
AcDbSymbolTableRecord
100
AcDbLinetypeTableRecord
  2
CONTINUOUS
 70
     0
  3
Solid line
 72
    65
 73
     0
 40
0.0
  0
ENDTAB
  0
TABLE
  2
LAYER
  5
2
100
AcDbSymbolTable
 70
2
  0
LAYER
  5
50
100
AcDbSymbolTableRecord
100
AcDbLayerTableRecord
  2
0
 70
0
  6
CONTINUOUS
  0
LAYER
  5
51
100
AcDbSymbolTableRecord
100
AcDbLayerTableRecord
  2
Layer_1
 70
0
  6
CONTINUOUS
  0
ENDTAB
  0
TABLE
  2
STYLE
  5
3
330
0
100
AcDbSymbolTable
 70
     1
  0
STYLE
  5
11
330
3
100
AcDbSymbolTableRecord
100
AcDbTextStyleTableRecord
  2
STANDARD
 70
     0
 40
0.0
 41
1.0
 50
0.0
 71
     0
 42
2.5
  3
txt
  4

  0
ENDTAB
  0
TABLE
  2
VIEW
  5
6
330
0
100
AcDbSymbolTable
 70
     0
  0
ENDTAB
  0
TABLE
  2
UCS
  5
7
330
0
100
AcDbSymbolTable
 70
     0
  0
ENDTAB
  0
TABLE
  2
APPID
  5
9
330
0
100
AcDbSymbolTable
 70
     2
  0
APPID
  5
12
330
9
100
AcDbSymbolTableRecord
100
AcDbRegAppTableRecord
  2
ACAD
 70
     0
  0
ENDTAB
  0
TABLE
  2
DIMSTYLE
  5
A
330
0
100
AcDbSymbolTable
 70
     1
  0
DIMSTYLE
105
27
330
A
100
AcDbSymbolTableRecord
100
AcDbDimStyleTableRecord
  2
ISO-25
 70
     0
  3

  4

  5

  6

  7

 40
1.0
 41
2.5
 42
0.625
 43
3.75
 44
1.25
 45
0.0
 46
0.0
 47
0.0
 48
0.0
140
2.5
141
2.5
142
0.0
143
0.03937007874016
144
1.0
145
0.0
146
1.0
147
0.625
 71
     0
 72
     0
 73
     0
 74
     0
 75
     0
 76
     0
 77
     1
 78
     8
170
     0
171
     3
172
     1
173
     0
174
     0
175
     0
176
     0
177
     0
178
     0
270
     2
271
     2
272
     2
273
     2
274
     3
340
11
275
     0
280
     0
281
     0
282
     0
283
     0
284
     8
285
     0
286
     0
287
     3
288
     0
  0
ENDTAB
  0
TABLE
  2
BLOCK_RECORD
  5
1
330
0
100
AcDbSymbolTable
 70
     1
  0
BLOCK_RECORD
  5
1F
330
1
100
AcDbSymbolTableRecord
100
AcDbBlockTableRecord
  2
*MODEL_SPACE
  0
BLOCK_RECORD
  5
1B
330
1
100
AcDbSymbolTableRecord
100
AcDbBlockTableRecord
  2
*PAPER_SPACE
  0
ENDTAB
  0
ENDSEC
  0
SECTION
  2
BLOCKS
  0
BLOCK
  5
20
330
1F
100
AcDbEntity
  8
0
100
AcDbBlockBegin
  2
*MODEL_SPACE
 70
     0
 10
0.0
 20
0.0
 30
0.0
  3
*MODEL_SPACE
  1

  0
ENDBLK
  5
21
330
1F
100
AcDbEntity
  8
0
100
AcDbBlockEnd
  0
BLOCK
  5
1C
330
1B
100
AcDbEntity
 67
     1
  8
0
100
AcDbBlockBegin
  2
*PAPER_SPACE
  1

  0
ENDBLK
  5
1D
330
1B
100
AcDbEntity
 67
     1
  8
0
100
AcDbBlockEnd
  0
ENDSEC
  0
SECTION
  2
ENTITIES
  0
LWPOLYLINE
  5
100
100
AcDbEntity
  8
Layer_1
 62
7
100
AcDbPolyline
 90
106
 70
0
 10
6.193234
 20
12.113520
 30
0.0
 10
6.122991
 20
12.105364
 30
0.0
 10
6.054693
 20
12.087381
 30
0.0
 10
5.918619
 20
12.049910
 30
0.0
 10
5.900161
 20
12.026007
 30
0.0
 10
5.876285
 20
12.006640
 30
0.0
 10
5.807565
 20
11.971983
 30
0.0
 10
5.743485
 20
11.929515
 30
0.0
 10
5.686607
 20
11.878250
 30
0.0
 10
5.639490
 20
11.817197
 30
0.0
 10
5.557234
 20
11.664180
 30
0.0
 10
5.490955
 20
11.503399
 30
0.0
 10
5.477917
 20
11.450904
 30
0.0
 10
5.467440
 20
11.427717
 30
0.0
 10
5.445621
 20
11.414745
 30
0.0
 10
5.443495
 20
11.386630
 30
0.0
 10
5.444633
 20
11.371574
 30
0.0
 10
5.438290
 20
11.357253
 30
0.0
 10
5.427998
 20
11.298188
 30
0.0
 10
5.429547
 20
11.238439
 30
0.0
 10
5.443274
 20
11.180380
 30
0.0
 10
5.469515
 20
11.126384
 30
0.0
 10
5.526454
 20
11.011370
 30
0.0
 10
5.597316
 20
10.905146
 30
0.0
 10
5.593929
 20
10.877600
 30
0.0
 10
5.579201
 20
10.852510
 30
0.0
 10
5.539438
 20
10.808132
 30
0.0
 10
5.507797
 20
10.789306
 30
0.0
 10
5.496089
 20
10.776045
 30
0.0
 10
5.491592
 20
10.757255
 30
0.0
 10
5.493055
 20
10.729594
 30
0.0
 10
5.508267
 20
10.708588
 30
0.0
 10
5.531957
 20
10.695186
 30
0.0
 10
5.558854
 20
10.690340
 30
0.0
 10
5.580102
 20
10.681903
 30
0.0
 10
5.593040
 20
10.666314
 30
0.0
 10
5.597508
 20
10.646132
 30
0.0
 10
5.593347
 20
10.623916
 30
0.0
 10
5.491366
 20
10.187990
 30
0.0
 10
5.443114
 20
9.969165
 30
0.0
 10
5.406088
 20
9.748240
 30
0.0
 10
5.401445
 20
9.722058
 30
0.0
 10
5.389735
 20
9.698944
 30
0.0
 10
5.378542
 20
9.675953
 30
0.0
 10
5.375451
 20
9.650139
 30
0.0
 10
5.379364
 20
9.569166
 30
0.0
 10
5.395846
 20
9.490783
 30
0.0
 10
5.408949
 20
9.499738
 30
0.0
 10
5.414735
 20
9.517777
 30
0.0
 10
5.424955
 20
9.556108
 30
0.0
 10
5.463671
 20
9.691291
 30
0.0
 10
5.488332
 20
9.829657
 30
0.0
 10
5.509836
 20
9.968828
 30
0.0
 10
5.539078
 20
10.106425
 30
0.0
 10
5.592379
 20
10.311116
 30
0.0
 10
5.620020
 20
10.413142
 30
0.0
 10
5.640035
 20
10.516760
 30
0.0
 10
5.648129
 20
10.577957
 30
0.0
 10
5.658796
 20
10.606566
 30
0.0
 10
5.677131
 20
10.630090
 30
0.0
 10
5.739830
 20
10.612866
 30
0.0
 10
5.763107
 20
10.593168
 30
0.0
 10
5.771411
 20
10.561453
 30
0.0
 10
5.784534
 20
10.509241
 30
0.0
 10
5.801534
 20
10.492182
 30
0.0
 10
5.828109
 20
10.493499
 30
0.0
 10
5.851237
 20
10.508094
 30
0.0
 10
5.863431
 20
10.531058
 30
0.0
 10
5.875349
 20
10.583677
 30
0.0
 10
5.888280
 20
10.594390
 30
0.0
 10
5.892526
 20
10.609184
 30
0.0
 10
5.887618
 20
10.623283
 30
0.0
 10
5.873088
 20
10.631909
 30
0.0
 10
5.858756
 20
10.635918
 30
0.0
 10
5.848707
 20
10.646388
 30
0.0
 10
5.841467
 20
10.676489
 30
0.0
 10
5.851387
 20
10.701759
 30
0.0
 10
5.862790
 20
10.706192
 30
0.0
 10
5.878490
 20
10.701748
 30
0.0
 10
5.924295
 20
10.674434
 30
0.0
 10
5.975604
 20
10.658696
 30
0.0
 10
6.083046
 20
10.647233
 30
0.0
 10
6.136503
 20
10.650079
 30
0.0
 10
6.185407
 20
10.629428
 30
0.0
 10
6.240877
 20
10.619346
 30
0.0
 10
6.296568
 20
10.628646
 30
0.0
 10
6.402530
 20
10.672258
 30
0.0
 10
6.494091
 20
10.742092
 30
0.0
 10
6.569863
 20
10.828677
 30
0.0
 10
6.701042
 20
11.019274
 30
0.0
 10
6.763999
 20
11.118954
 30
0.0
 10
6.818672
 20
11.224244
 30
0.0
 10
6.854844
 20
11.335603
 30
0.0
 10
6.862801
 20
11.393702
 30
0.0
 10
6.862302
 20
11.453491
 30
0.0
 10
6.857545
 20
11.520062
 30
0.0
 10
6.844383
 20
11.584731
 30
0.0
 10
6.796855
 20
11.707799
 30
0.0
 10
6.727741
 20
11.821565
 30
0.0
 10
6.645066
 20
11.924896
 30
0.0
 10
6.561179
 20
11.994804
 30
0.0
 10
6.465835
 20
12.048275
 30
0.0
 10
6.363008
 20
12.086632
 30
0.0
 10
6.256672
 20
12.111202
 30
0.0
 10
6.193234
 20
12.113522
 30
0.0
 10
6.193234
 20
12.113520
 30
0.0
  0
LWPOLYLINE
  5
101
100
AcDbEntity
  8
Layer_1
 62
7
100
AcDbPolyline
 90
349
 70
0
 10
14.703557
 20
12.102551
 30
0.0
 10
14.612936
 20
12.087447
 30
0.0
 10
14.524438
 20
12.062874
 30
0.0
 10
14.354859
 20
11.992473
 30
0.0
 10
14.314659
 20
11.964296
 30
0.0
 10
14.271790
 20
11.941266
 30
0.0
 10
14.184966
 20
11.859065
 30
0.0
 10
14.150443
 20
11.810392
 30
0.0
 10
14.123789
 20
11.756774
 30
0.0
 10
14.096700
 20
11.694431
 30
0.0
 10
14.079434
 20
11.628272
 30
0.0
 10
14.051441
 20
11.494068
 30
0.0
 10
14.068877
 20
11.409388
 30
0.0
 10
14.094023
 20
11.325117
 30
0.0
 10
14.159134
 20
11.150580
 30
0.0
 10
14.199021
 20
11.066515
 30
0.0
 10
14.247316
 20
10.987167
 30
0.0
 10
14.344789
 20
10.907583
 30
0.0
 10
14.448730
 20
10.835858
 30
0.0
 10
14.456117
 20
10.659771
 30
0.0
 10
14.462214
 20
10.571966
 30
0.0
 10
14.476622
 20
10.485396
 30
0.0
 10
14.490703
 20
10.443126
 30
0.0
 10
14.495651
 20
10.398150
 30
0.0
 10
14.499153
 20
10.306819
 30
0.0
 10
14.522344
 20
9.843595
 30
0.0
 10
14.531228
 20
9.611919
 30
0.0
 10
14.530898
 20
9.379991
 30
0.0
 10
14.537467
 20
9.140575
 30
0.0
 10
14.566656
 20
8.902772
 30
0.0
 10
14.579241
 20
8.747318
 30
0.0
 10
14.579444
 20
8.669372
 30
0.0
 10
14.570108
 20
8.592192
 30
0.0
 10
14.562734
 20
8.589994
 30
0.0
 10
14.558693
 20
8.601743
 30
0.0
 10
14.556273
 20
8.629013
 30
0.0
 10
14.553679
 20
8.734723
 30
0.0
 10
14.542557
 20
8.785650
 30
0.0
 10
14.517628
 20
8.832526
 30
0.0
 10
14.410806
 20
9.001756
 30
0.0
 10
14.363163
 20
9.089561
 30
0.0
 10
14.323702
 20
9.181646
 30
0.0
 10
14.283382
 20
9.296593
 30
0.0
 10
14.255655
 20
9.415228
 30
0.0
 10
14.230687
 20
9.534747
 30
0.0
 10
14.198644
 20
9.652344
 30
0.0
 10
14.195969
 20
9.859511
 30
0.0
 10
14.212991
 20
10.065727
 30
0.0
 10
14.218642
 20
10.091983
 30
0.0
 10
14.231839
 20
10.113914
 30
0.0
 10
14.252192
 20
10.128245
 30
0.0
 10
14.279310
 20
10.131698
 30
0.0
 10
14.337412
 20
10.131837
 30
0.0
 10
14.364777
 20
10.137231
 30
0.0
 10
14.387745
 20
10.155570
 30
0.0
 10
14.404657
 20
10.172878
 30
0.0
 10
14.411671
 20
10.194093
 30
0.0
 10
14.408974
 20
10.216449
 30
0.0
 10
14.396751
 20
10.237184
 30
0.0
 10
14.361640
 20
10.275845
 30
0.0
 10
14.327794
 20
10.313251
 30
0.0
 10
14.382999
 20
10.380995
 30
0.0
 10
14.441344
 20
10.444937
 30
0.0
 10
14.433210
 20
10.631635
 30
0.0
 10
14.421611
 20
10.816401
 30
0.0
 10
14.285454
 20
10.909516
 30
0.0
 10
14.224966
 20
10.964058
 30
0.0
 10
14.181336
 20
11.033745
 30
0.0
 10
14.129701
 20
11.142739
 30
0.0
 10
14.086113
 20
11.255460
 30
0.0
 10
14.021005
 20
11.487024
 30
0.0
 10
14.047030
 20
11.608120
 30
0.0
 10
14.069605
 20
11.729378
 30
0.0
 10
14.051271
 20
11.745555
 30
0.0
 10
14.026415
 20
11.751594
 30
0.0
 10
13.974189
 20
11.756278
 30
0.0
 10
13.892278
 20
11.753369
 30
0.0
 10
13.811626
 20
11.739356
 30
0.0
 10
13.733333
 20
11.715001
 30
0.0
 10
13.658496
 20
11.681062
 30
0.0
 10
13.588216
 20
11.638301
 30
0.0
 10
13.523590
 20
11.587477
 30
0.0
 10
13.465718
 20
11.529352
 30
0.0
 10
13.415698
 20
11.464685
 30
0.0
 10
13.388723
 20
11.410482
 30
0.0
 10
13.371045
 20
11.352217
 30
0.0
 10
13.362740
 20
11.291853
 30
0.0
 10
13.363884
 20
11.231355
 30
0.0
 10
13.384453
 20
11.169098
 30
0.0
 10
13.396437
 20
11.103853
 30
0.0
 10
13.408612
 20
11.038321
 30
0.0
 10
13.429754
 20
10.975206
 30
0.0
 10
13.499007
 20
10.848724
 30
0.0
 10
13.589368
 20
10.736462
 30
0.0
 10
13.692905
 20
10.634770
 30
0.0
 10
13.801687
 20
10.539998
 30
0.0
 10
13.922443
 20
10.452681
 30
0.0
 10
14.048989
 20
10.373995
 30
0.0
 10
14.063497
 20
10.342431
 30
0.0
 10
14.063675
 20
10.307248
 30
0.0
 10
14.045958
 20
10.237128
 30
0.0
 10
14.035285
 20
10.208848
 30
0.0
 10
14.040760
 20
10.181206
 30
0.0
 10
14.058343
 20
10.157906
 30
0.0
 10
14.083991
 20
10.142650
 30
0.0
 10
14.116579
 20
10.135112
 30
0.0
 10
14.150247
 20
10.134878
 30
0.0
 10
14.131271
 20
9.962278
 30
0.0
 10
14.127965
 20
9.788787
 30
0.0
 10
14.141918
 20
9.615987
 30
0.0
 10
14.174715
 20
9.445463
 30
0.0
 10
14.210614
 20
9.300166
 30
0.0
 10
14.255284
 20
9.157058
 30
0.0
 10
14.313821
 20
9.019672
 30
0.0
 10
14.391327
 20
8.891543
 30
0.0
 10
14.464756
 20
8.768402
 30
0.0
 10
14.487298
 20
8.701351
 30
0.0
 10
14.490568
 20
8.629564
 30
0.0
 10
14.496009
 20
8.516695
 30
0.0
 10
14.511322
 20
8.404839
 30
0.0
 10
14.536860
 20
8.294924
 30
0.0
 10
14.572974
 20
8.187875
 30
0.0
 10
14.577734
 20
8.173255
 30
0.0
 10
14.574532
 20
8.161228
 30
0.0
 10
14.556713
 20
8.140581
 30
0.0
 10
14.567297
 20
8.129943
 30
0.0
 10
14.584242
 20
8.127404
 30
0.0
 10
14.600432
 20
8.123364
 30
0.0
 10
14.608748
 20
8.108225
 30
0.0
 10
14.618955
 20
8.031925
 30
0.0
 10
14.643582
 20
7.958115
 30
0.0
 10
14.672759
 20
7.903374
 30
0.0
 10
14.713085
 20
7.855223
 30
0.0
 10
14.763928
 20
7.821149
 30
0.0
 10
14.824659
 20
7.808639
 30
0.0
 10
14.863403
 20
7.790771
 30
0.0
 10
14.906897
 20
7.788558
 30
0.0
 10
15.046138
 20
7.799709
 30
0.0
 10
15.096228
 20
7.707072
 30
0.0
 10
15.160136
 20
7.623112
 30
0.0
 10
15.235462
 20
7.549052
 30
0.0
 10
15.319810
 20
7.486114
 30
0.0
 10
15.430105
 20
7.444595
 30
0.0
 10
15.545992
 20
7.422860
 30
0.0
 10
15.781266
 20
7.395684
 30
0.0
 10
15.867868
 20
7.384828
 30
0.0
 10
15.955376
 20
7.381343
 30
0.0
 10
16.041488
 20
7.391225
 30
0.0
 10
16.123903
 20
7.420472
 30
0.0
 10
16.204586
 20
7.466405
 30
0.0
 10
16.279880
 20
7.521626
 30
0.0
 10
16.346824
 20
7.586284
 30
0.0
 10
16.402458
 20
7.660528
 30
0.0
 10
16.412747
 20
7.681371
 30
0.0
 10
16.430028
 20
7.693056
 30
0.0
 10
16.474353
 20
7.691627
 30
0.0
 10
16.513384
 20
7.678553
 30
0.0
 10
16.546177
 20
7.654093
 30
0.0
 10
16.577767
 20
7.626776
 30
0.0
 10
16.613187
 20
7.605131
 30
0.0
 10
16.683118
 20
7.572167
 30
0.0
 10
16.720411
 20
7.566080
 30
0.0
 10
16.756889
 20
7.575696
 30
0.0
 10
16.781225
 20
7.619861
 30
0.0
 10
16.786475
 20
7.670108
 30
0.0
 10
16.766922
 20
7.771212
 30
0.0
 10
16.729267
 20
7.847221
 30
0.0
 10
16.680883
 20
7.917112
 30
0.0
 10
16.572154
 20
8.048406
 30
0.0
 10
16.525224
 20
8.097299
 30
0.0
 10
16.502768
 20
8.121871
 30
0.0
 10
16.488777
 20
8.150003
 30
0.0
 10
16.482083
 20
8.455785
 30
0.0
 10
16.475382
 20
8.608476
 30
0.0
 10
16.458950
 20
8.760317
 30
0.0
 10
16.442107
 20
8.837726
 30
0.0
 10
16.436130
 20
8.916803
 30
0.0
 10
16.428749
 20
8.995482
 30
0.0
 10
16.407694
 20
9.071694
 30
0.0
 10
16.386342
 20
9.098517
 30
0.0
 10
16.353303
 20
9.106396
 30
0.0
 10
16.322752
 20
9.094897
 30
0.0
 10
16.308862
 20
9.063591
 30
0.0
 10
16.296045
 20
8.915453
 30
0.0
 10
16.278753
 20
8.844552
 30
0.0
 10
16.238912
 20
8.781865
 30
0.0
 10
16.188223
 20
8.727652
 30
0.0
 10
16.131790
 20
8.679999
 30
0.0
 10
16.005037
 20
8.604761
 30
0.0
 10
15.865343
 20
8.556930
 30
0.0
 10
15.719398
 20
8.537280
 30
0.0
 10
15.648363
 20
8.535939
 30
0.0
 10
15.613989
 20
8.542005
 30
0.0
 10
15.582249
 20
8.557024
 30
0.0
 10
15.516169
 20
8.570428
 30
0.0
 10
15.457819
 20
8.604424
 30
0.0
 10
15.392139
 20
8.655981
 30
0.0
 10
15.336132
 20
8.718232
 30
0.0
 10
15.296403
 20
8.790625
 30
0.0
 10
15.279559
 20
8.872612
 30
0.0
 10
15.276671
 20
8.905061
 30
0.0
 10
15.265712
 20
8.934943
 30
0.0
 10
15.246547
 20
8.959894
 30
0.0
 10
15.219040
 20
8.977548
 30
0.0
 10
15.169960
 20
9.008419
 30
0.0
 10
15.144813
 20
9.022344
 30
0.0
 10
15.117575
 20
9.027762
 30
0.0
 10
15.088277
 20
8.999770
 30
0.0
 10
15.076373
 20
8.961179
 30
0.0
 10
15.070601
 20
8.918893
 30
0.0
 10
15.059698
 20
8.879816
 30
0.0
 10
14.973390
 20
8.646019
 30
0.0
 10
14.940122
 20
8.526417
 30
0.0
 10
14.925168
 20
8.402676
 30
0.0
 10
14.922335
 20
8.131431
 30
0.0
 10
14.863908
 20
8.098193
 30
0.0
 10
14.833488
 20
8.084756
 30
0.0
 10
14.801619
 20
8.082814
 30
0.0
 10
14.800194
 20
8.119316
 30
0.0
 10
14.809472
 20
8.155623
 30
0.0
 10
14.820269
 20
8.192244
 30
0.0
 10
14.823399
 20
8.229685
 30
0.0
 10
14.814812
 20
8.512555
 30
0.0
 10
14.779294
 20
8.793352
 30
0.0
 10
14.716617
 20
9.054791
 30
0.0
 10
14.698862
 20
9.186675
 30
0.0
 10
14.699530
 20
9.253295
 30
0.0
 10
14.708904
 20
9.320512
 30
0.0
 10
14.745813
 20
9.459219
 30
0.0
 10
14.760618
 20
9.529334
 30
0.0
 10
14.768174
 20
9.600865
 30
0.0
 10
14.804714
 20
9.839990
 30
0.0
 10
14.829538
 20
9.958289
 30
0.0
 10
14.862142
 20
10.074300
 30
0.0
 10
14.878455
 20
10.090658
 30
0.0
 10
14.899825
 20
10.097398
 30
0.0
 10
14.921481
 20
10.093705
 30
0.0
 10
14.938651
 20
10.078764
 30
0.0
 10
14.971494
 20
10.071286
 30
0.0
 10
15.003968
 20
10.079343
 30
0.0
 10
15.028314
 20
10.100905
 30
0.0
 10
15.036767
 20
10.133941
 30
0.0
 10
15.042689
 20
10.204415
 30
0.0
 10
15.049114
 20
10.273123
 30
0.0
 10
15.145146
 20
10.248162
 30
0.0
 10
15.194250
 20
10.245353
 30
0.0
 10
15.243583
 20
10.252948
 30
0.0
 10
15.515465
 20
10.311549
 30
0.0
 10
15.646947
 20
10.355449
 30
0.0
 10
15.770032
 20
10.419242
 30
0.0
 10
15.848420
 20
10.486987
 30
0.0
 10
15.922115
 20
10.561289
 30
0.0
 10
15.983439
 20
10.644674
 30
0.0
 10
16.024710
 20
10.739671
 30
0.0
 10
16.024665
 20
10.812345
 30
0.0
 10
16.013032
 20
10.884618
 30
0.0
 10
15.987875
 20
10.952815
 30
0.0
 10
15.947255
 20
11.013260
 30
0.0
 10
15.821810
 20
11.158935
 30
0.0
 10
15.751203
 20
11.223915
 30
0.0
 10
15.673207
 20
11.280256
 30
0.0
 10
15.594381
 20
11.324722
 30
0.0
 10
15.507963
 20
11.351880
 30
0.0
 10
15.327661
 20
11.376487
 30
0.0
 10
15.249122
 20
11.375878
 30
0.0
 10
15.211271
 20
11.368157
 30
0.0
 10
15.179422
 20
11.347552
 30
0.0
 10
15.125667
 20
11.214050
 30
0.0
 10
15.047771
 20
11.092554
 30
0.0
 10
14.950054
 20
10.985843
 30
0.0
 10
14.836835
 20
10.896698
 30
0.0
 10
14.778190
 20
10.867107
 30
0.0
 10
14.722244
 20
10.837347
 30
0.0
 10
14.712682
 20
10.760341
 30
0.0
 10
14.710741
 20
10.721842
 30
0.0
 10
14.719873
 20
10.685432
 30
0.0
 10
14.736106
 20
10.650789
 30
0.0
 10
14.749762
 20
10.612704
 30
0.0
 10
14.811414
 20
10.479582
 30
0.0
 10
14.871237
 20
10.345938
 30
0.0
 10
14.847004
 20
10.317065
 30
0.0
 10
14.816163
 20
10.296602
 30
0.0
 10
14.749087
 20
10.262374
 30
0.0
 10
14.735581
 20
10.233056
 30
0.0
 10
14.744276
 20
10.203303
 30
0.0
 10
14.786515
 20
10.151800
 30
0.0
 10
14.792920
 20
10.121181
 30
0.0
 10
14.786942
 20
10.089624
 30
0.0
 10
14.769689
 20
10.026383
 30
0.0
 10
14.731301
 20
9.846986
 30
0.0
 10
14.700525
 20
9.666731
 30
0.0
 10
14.687624
 20
9.651627
 30
0.0
 10
14.688046
 20
9.630416
 30
0.0
 10
14.691373
 20
9.608194
 30
0.0
 10
14.687186
 20
9.590057
 30
0.0
 10
14.672997
 20
9.578638
 30
0.0
 10
14.672719
 20
9.559833
 30
0.0
 10
14.676270
 20
9.538666
 30
0.0
 10
14.673571
 20
9.520163
 30
0.0
 10
14.639392
 20
9.388767
 30
0.0
 10
14.632246
 20
9.321560
 30
0.0
 10
14.635941
 20
9.253548
 30
0.0
 10
14.654435
 20
9.046942
 30
0.0
 10
14.670802
 20
8.944752
 30
0.0
 10
14.697597
 20
8.844602
 30
0.0
 10
14.720875
 20
8.716843
 30
0.0
 10
14.736450
 20
8.587911
 30
0.0
 10
14.753461
 20
8.328656
 30
0.0
 10
14.747718
 20
8.236975
 30
0.0
 10
14.736509
 20
8.192898
 30
0.0
 10
14.713479
 20
8.154747
 30
0.0
 10
14.698422
 20
8.199848
 30
0.0
 10
14.690666
 20
8.248017
 30
0.0
 10
14.679379
 20
8.345467
 30
0.0
 10
14.661197
 20
8.546668
 30
0.0
 10
14.649355
 20
8.748527
 30
0.0
 10
14.619591
 20
9.151562
 30
0.0
 10
14.604152
 20
9.538823
 30
0.0
 10
14.587526
 20
9.926078
 30
0.0
 10
14.574036
 20
10.265759
 30
0.0
 10
14.562784
 20
10.435175
 30
0.0
 10
14.538413
 20
10.603245
 30
0.0
 10
14.535009
 20
10.623231
 30
0.0
 10
14.540157
 20
10.640021
 30
0.0
 10
14.553105
 20
10.651249
 30
0.0
 10
14.573101
 20
10.654551
 30
0.0
 10
14.633261
 20
10.659378
 30
0.0
 10
14.662596
 20
10.664397
 30
0.0
 10
14.686139
 20
10.680250
 30
0.0
 10
14.667177
 20
10.856805
 30
0.0
 10
14.739019
 20
10.883135
 30
0.0
 10
14.806859
 20
10.917728
 30
0.0
 10
14.929188
 20
11.008346
 30
0.0
 10
15.031471
 20
11.121944
 30
0.0
 10
15.111015
 20
11.251805
 30
0.0
 10
15.152178
 20
11.365786
 30
0.0
 10
15.173626
 20
11.484982
 30
0.0
 10
15.179051
 20
11.606486
 30
0.0
 10
15.172145
 20
11.727394
 30
0.0
 10
15.150904
 20
11.795840
 30
0.0
 10
15.122100
 20
11.862223
 30
0.0
 10
15.084034
 20
11.923189
 30
0.0
 10
15.035003
 20
11.975386
 30
0.0
 10
14.982207
 20
12.012359
 30
0.0
 10
14.924469
 20
12.039980
 30
0.0
 10
14.801750
 20
12.078157
 30
0.0
 10
14.753902
 20
12.096281
 30
0.0
 10
14.703557
 20
12.102551
 30
0.0
 10
14.703557
 20
12.102551
 30
0.0
  0
LWPOLYLINE
  5
102
100
AcDbEntity
  8
Layer_1
 62
7
100
AcDbPolyline
 90
266
 70
0
 10
4.701922
 20
11.850370
 30
0.0
 10
4.596209
 20
11.834382
 30
0.0
 10
4.494628
 20
11.800292
 30
0.0
 10
4.399238
 20
11.750892
 30
0.0
 10
4.312102
 20
11.688974
 30
0.0
 10
4.232054
 20
11.599188
 30
0.0
 10
4.176962
 20
11.492702
 30
0.0
 10
4.144682
 20
11.376300
 30
0.0
 10
4.133067
 20
11.256766
 30
0.0
 10
4.147376
 20
11.172914
 30
0.0
 10
4.167886
 20
11.089659
 30
0.0
 10
4.201099
 20
11.011936
 30
0.0
 10
4.253518
 20
10.944679
 30
0.0
 10
4.352971
 20
10.860655
 30
0.0
 10
4.466599
 20
10.797451
 30
0.0
 10
4.589260
 20
10.752172
 30
0.0
 10
4.715812
 20
10.721922
 30
0.0
 10
4.766551
 20
10.719746
 30
0.0
 10
4.791216
 20
10.717675
 30
0.0
 10
4.811779
 20
10.706323
 30
0.0
 10
4.798946
 20
10.613477
 30
0.0
 10
4.798196
 20
10.566346
 30
0.0
 10
4.813709
 20
10.520949
 30
0.0
 10
4.838164
 20
10.486969
 30
0.0
 10
4.872141
 20
10.464556
 30
0.0
 10
4.911781
 20
10.452563
 30
0.0
 10
4.953222
 20
10.449842
 30
0.0
 10
4.990889
 20
10.423958
 30
0.0
 10
5.015238
 20
10.385152
 30
0.0
 10
5.050897
 20
10.298423
 30
0.0
 10
5.082010
 20
10.209980
 30
0.0
 10
5.101513
 20
10.119520
 30
0.0
 10
5.113846
 20
9.934469
 30
0.0
 10
5.104213
 20
9.747118
 30
0.0
 10
5.088932
 20
9.561315
 30
0.0
 10
5.083741
 20
9.508467
 30
0.0
 10
5.077439
 20
9.483255
 30
0.0
 10
5.062417
 20
9.463994
 30
0.0
 10
4.974527
 20
9.625492
 30
0.0
 10
4.882575
 20
9.785759
 30
0.0
 10
4.835023
 20
9.876611
 30
0.0
 10
4.815917
 20
9.923571
 30
0.0
 10
4.808583
 20
9.973262
 30
0.0
 10
4.833035
 20
9.990161
 30
0.0
 10
4.865032
 20
9.997511
 30
0.0
 10
4.894945
 20
10.007565
 30
0.0
 10
4.913148
 20
10.032572
 30
0.0
 10
4.901922
 20
10.074973
 30
0.0
 10
4.875426
 20
10.110760
 30
0.0
 10
4.812386
 20
10.175392
 30
0.0
 10
4.816880
 20
10.318971
 30
0.0
 10
4.817137
 20
10.390701
 30
0.0
 10
4.809629
 20
10.461804
 30
0.0
 10
4.780589
 20
10.525303
 30
0.0
 10
4.772183
 20
10.558825
 30
0.0
 10
4.771945
 20
10.594260
 30
0.0
 10
4.774219
 20
10.649406
 30
0.0
 10
4.774518
 20
10.676010
 30
0.0
 10
4.767020
 20
10.695078
 30
0.0
 10
4.666354
 20
10.701460
 30
0.0
 10
4.568585
 20
10.726149
 30
0.0
 10
4.382259
 20
10.805147
 30
0.0
 10
4.294657
 20
10.862670
 30
0.0
 10
4.218287
 20
10.935355
 30
0.0
 10
4.160791
 20
11.022288
 30
0.0
 10
4.141509
 20
11.070813
 30
0.0
 10
4.129811
 20
11.122556
 30
0.0
 10
4.100160
 20
11.252577
 30
0.0
 10
4.023445
 20
11.229073
 30
0.0
 10
3.955077
 20
11.188548
 30
0.0
 10
3.896233
 20
11.134522
 30
0.0
 10
3.848089
 20
11.070511
 30
0.0
 10
3.793313
 20
10.969563
 30
0.0
 10
3.752049
 20
10.861959
 30
0.0
 10
3.726283
 20
10.749838
 30
0.0
 10
3.718003
 20
10.635340
 30
0.0
 10
3.729757
 20
10.555462
 30
0.0
 10
3.759352
 20
10.481152
 30
0.0
 10
3.803122
 20
10.413572
 30
0.0
 10
3.857405
 20
10.353887
 30
0.0
 10
3.893434
 20
10.319791
 30
0.0
 10
3.934850
 20
10.294730
 30
0.0
 10
3.952239
 20
10.263243
 30
0.0
 10
3.982182
 20
10.241923
 30
0.0
 10
4.050594
 20
10.210633
 30
0.0
 10
4.151925
 20
10.173471
 30
0.0
 10
4.255832
 20
10.144233
 30
0.0
 10
4.467324
 20
10.104947
 30
0.0
 10
4.514593
 20
10.083278
 30
0.0
 10
4.530225
 20
10.063617
 30
0.0
 10
4.535730
 20
10.037919
 30
0.0
 10
4.559322
 20
10.004639
 30
0.0
 10
4.570783
 20
9.988183
 30
0.0
 10
4.575142
 20
9.967970
 30
0.0
 10
4.601419
 20
9.935937
 30
0.0
 10
4.637620
 20
9.917466
 30
0.0
 10
4.719946
 20
9.908604
 30
0.0
 10
4.739502
 20
9.884518
 30
0.0
 10
4.753010
 20
9.855520
 30
0.0
 10
4.781186
 20
9.797589
 30
0.0
 10
4.874584
 20
9.641476
 30
0.0
 10
4.921481
 20
9.563844
 30
0.0
 10
4.961760
 20
9.484191
 30
0.0
 10
4.975425
 20
9.421428
 30
0.0
 10
4.985087
 20
9.391158
 30
0.0
 10
5.002720
 20
9.364059
 30
0.0
 10
5.029495
 20
9.266444
 30
0.0
 10
5.041558
 20
9.165151
 30
0.0
 10
5.041942
 20
8.960224
 30
0.0
 10
5.032489
 20
8.859794
 30
0.0
 10
5.013840
 20
8.760663
 30
0.0
 10
4.995598
 20
8.661503
 30
0.0
 10
4.987366
 20
8.560990
 30
0.0
 10
4.971894
 20
8.433530
 30
0.0
 10
4.972562
 20
8.369661
 30
0.0
 10
4.983935
 20
8.306194
 30
0.0
 10
5.012731
 20
8.148395
 30
0.0
 10
5.011995
 20
8.069932
 30
0.0
 10
4.986128
 20
7.994785
 30
0.0
 10
4.971682
 20
7.999725
 30
0.0
 10
4.964423
 20
8.017898
 30
0.0
 10
4.957427
 20
8.059048
 30
0.0
 10
4.899788
 20
8.338972
 30
0.0
 10
4.836384
 20
8.617671
 30
0.0
 10
4.817853
 20
8.662641
 30
0.0
 10
4.799738
 20
8.675296
 30
0.0
 10
4.775784
 20
8.671236
 30
0.0
 10
4.748551
 20
8.641637
 30
0.0
 10
4.737238
 20
8.603257
 30
0.0
 10
4.730347
 20
8.562136
 30
0.0
 10
4.716381
 20
8.524316
 30
0.0
 10
4.690135
 20
8.471395
 30
0.0
 10
4.656210
 20
8.424449
 30
0.0
 10
4.570700
 20
8.345724
 30
0.0
 10
4.470607
 20
8.282623
 30
0.0
 10
4.366684
 20
8.229629
 30
0.0
 10
4.231091
 20
8.178140
 30
0.0
 10
4.088165
 20
8.153201
 30
0.0
 10
3.942377
 20
8.151078
 30
0.0
 10
3.798198
 20
8.168036
 30
0.0
 10
3.710204
 20
8.195957
 30
0.0
 10
3.632728
 20
8.245310
 30
0.0
 10
3.571738
 20
8.313315
 30
0.0
 10
3.533206
 20
8.397193
 30
0.0
 10
3.498288
 20
8.480523
 30
0.0
 10
3.452653
 20
8.558612
 30
0.0
 10
3.343561
 20
8.703151
 30
0.0
 10
3.320330
 20
8.723070
 30
0.0
 10
3.307513
 20
8.724558
 30
0.0
 10
3.299188
 20
8.712247
 30
0.0
 10
3.286703
 20
8.471629
 30
0.0
 10
3.285459
 20
8.230267
 30
0.0
 10
3.288431
 20
7.918357
 30
0.0
 10
3.303708
 20
7.606784
 30
0.0
 10
3.252269
 20
7.575693
 30
0.0
 10
3.211416
 20
7.531468
 30
0.0
 10
3.145306
 20
7.429292
 30
0.0
 10
3.125322
 20
7.389440
 30
0.0
 10
3.111719
 20
7.347146
 30
0.0
 10
3.097101
 20
7.305396
 30
0.0
 10
3.074072
 20
7.267180
 30
0.0
 10
3.061268
 20
7.242704
 30
0.0
 10
3.055738
 20
7.214088
 30
0.0
 10
3.062585
 20
7.189266
 30
0.0
 10
3.086915
 20
7.176175
 30
0.0
 10
3.101817
 20
7.175028
 30
0.0
 10
3.111800
 20
7.166071
 30
0.0
 10
3.121647
 20
7.156570
 30
0.0
 10
3.136139
 20
7.153796
 30
0.0
 10
3.209323
 20
7.159462
 30
0.0
 10
3.243406
 20
7.171750
 30
0.0
 10
3.273226
 20
7.192987
 30
0.0
 10
3.368062
 20
7.238113
 30
0.0
 10
3.419031
 20
7.246007
 30
0.0
 10
3.469073
 20
7.233667
 30
0.0
 10
3.502856
 20
7.201832
 30
0.0
 10
3.542682
 20
7.177376
 30
0.0
 10
3.622283
 20
7.127502
 30
0.0
 10
3.749827
 20
7.068695
 30
0.0
 10
3.886203
 20
7.037099
 30
0.0
 10
4.026722
 20
7.028907
 30
0.0
 10
4.166697
 20
7.040315
 30
0.0
 10
4.379864
 20
7.068773
 30
0.0
 10
4.485528
 20
7.088239
 30
0.0
 10
4.589235
 20
7.115781
 30
0.0
 10
4.677209
 20
7.170729
 30
0.0
 10
4.713321
 20
7.207586
 30
0.0
 10
4.738136
 20
7.252298
 30
0.0
 10
4.752469
 20
7.295496
 30
0.0
 10
4.775784
 20
7.335641
 30
0.0
 10
4.944185
 20
7.329355
 30
0.0
 10
5.028357
 20
7.328538
 30
0.0
 10
5.111860
 20
7.335359
 30
0.0
 10
5.173988
 20
7.376038
 30
0.0
 10
5.201016
 20
7.401325
 30
0.0
 10
5.221441
 20
7.431381
 30
0.0
 10
5.128541
 20
7.545319
 30
0.0
 10
5.021405
 20
7.645528
 30
0.0
 10
4.979424
 20
7.662788
 30
0.0
 10
4.963482
 20
7.675214
 30
0.0
 10
4.960606
 20
7.698169
 30
0.0
 10
4.966433
 20
7.723155
 30
0.0
 10
4.987984
 20
7.733391
 30
0.0
 10
5.015057
 20
7.739659
 30
0.0
 10
5.037446
 20
7.752739
 30
0.0
 10
5.051963
 20
7.774647
 30
0.0
 10
5.057562
 20
7.800490
 30
0.0
 10
5.062239
 20
7.827042
 30
0.0
 10
5.073991
 20
7.851076
 30
0.0
 10
5.118981
 20
7.968956
 30
0.0
 10
5.148079
 20
8.024494
 30
0.0
 10
5.187376
 20
8.073492
 30
0.0
 10
5.222470
 20
8.175799
 30
0.0
 10
5.249046
 20
8.280841
 30
0.0
 10
5.286161
 20
8.494442
 30
0.0
 10
5.299593
 20
8.647287
 30
0.0
 10
5.295283
 20
8.723620
 30
0.0
 10
5.280115
 20
8.798856
 30
0.0
 10
5.275405
 20
8.901141
 30
0.0
 10
5.279985
 20
9.003815
 30
0.0
 10
5.307762
 20
9.207837
 30
0.0
 10
5.311704
 20
9.293876
 30
0.0
 10
5.309185
 20
9.336637
 30
0.0
 10
5.297785
 20
9.377226
 30
0.0
 10
5.281862
 20
9.371128
 30
0.0
 10
5.272851
 20
9.354052
 30
0.0
 10
5.261194
 20
9.315630
 30
0.0
 10
5.241491
 20
9.226018
 30
0.0
 10
5.232540
 20
9.181167
 30
0.0
 10
5.216535
 20
9.138935
 30
0.0
 10
5.201529
 20
9.139545
 30
0.0
 10
5.194578
 20
9.155155
 30
0.0
 10
5.188980
 20
9.193264
 30
0.0
 10
5.178227
 20
9.421505
 30
0.0
 10
5.178037
 20
9.650347
 30
0.0
 10
5.183869
 20
10.108181
 30
0.0
 10
5.172242
 20
10.200296
 30
0.0
 10
5.142068
 20
10.287853
 30
0.0
 10
5.069912
 20
10.458986
 30
0.0
 10
5.087536
 20
10.478989
 30
0.0
 10
5.109512
 20
10.495893
 30
0.0
 10
5.122936
 20
10.514757
 30
0.0
 10
5.114904
 20
10.540643
 30
0.0
 10
5.090016
 20
10.617937
 30
0.0
 10
5.074046
 20
10.696670
 30
0.0
 10
5.146741
 20
10.727581
 30
0.0
 10
5.179886
 20
10.748537
 30
0.0
 10
5.207054
 20
10.777754
 30
0.0
 10
5.258240
 20
10.863361
 30
0.0
 10
5.306880
 20
10.949843
 30
0.0
 10
5.314977
 20
10.996205
 30
0.0
 10
5.328842
 20
11.041106
 30
0.0
 10
5.344637
 20
11.216370
 30
0.0
 10
5.340886
 20
11.303708
 30
0.0
 10
5.320312
 20
11.389309
 30
0.0
 10
5.306827
 20
11.429947
 30
0.0
 10
5.285051
 20
11.464678
 30
0.0
 10
5.269443
 20
11.508360
 30
0.0
 10
5.243728
 20
11.547590
 30
0.0
 10
5.182757
 20
11.619683
 30
0.0
 10
5.081391
 20
11.711474
 30
0.0
 10
4.965376
 20
11.785895
 30
0.0
 10
4.837842
 20
11.834880
 30
0.0
 10
4.770734
 20
11.847314
 30
0.0
 10
4.701921
 20
11.850363
 30
0.0
 10
4.701922
 20
11.850370
 30
0.0
  0
LWPOLYLINE
  5
103
100
AcDbEntity
  8
Layer_1
 62
7
100
AcDbPolyline
 90
14
 70
0
 10
5.688156
 20
10.857025
 30
0.0
 10
5.727086
 20
10.843698
 30
0.0
 10
5.757825
 20
10.816834
 30
0.0
 10
5.776275
 20
10.780632
 30
0.0
 10
5.778335
 20
10.739286
 30
0.0
 10
5.776610
 20
10.698406
 30
0.0
 10
5.768329
 20
10.683992
 30
0.0
 10
5.748969
 20
10.686234
 30
0.0
 10
5.671515
 20
10.717355
 30
0.0
 10
5.600843
 20
10.756594
 30
0.0
 10
5.628280
 20
10.823464
 30
0.0
 10
5.653738
 20
10.847992
 30
0.0
 10
5.688156
 20
10.857025
 30
0.0
 10
5.688156
 20
10.857025
 30
0.0
  0
LWPOLYLINE
  5
104
100
AcDbEntity
  8
Layer_1
 62
7
100
AcDbPolyline
 90
12
 70
0
 10
14.566415
 20
10.820976
 30
0.0
 10
14.592075
 20
10.810398
 30
0.0
 10
14.604664
 20
10.782463
 30
0.0
 10
14.600141
 20
10.755044
 30
0.0
 10
14.590199
 20
10.747112
 30
0.0
 10
14.574463
 20
10.746010
 30
0.0
 10
14.548126
 20
10.751529
 30
0.0
 10
14.526241
 20
10.768924
 30
0.0
 10
14.518105
 20
10.791716
 30
0.0
 10
14.533011
 20
10.813424
 30
0.0
 10
14.566415
 20
10.820976
 30
0.0
 10
14.566415
 20
10.820976
 30
0.0
  0
LWPOLYLINE
  5
105
100
AcDbEntity
  8
Layer_1
 62
7
100
AcDbPolyline
 90
12
 70
0
 10
4.946441
 20
10.676447
 30
0.0
 10
4.975769
 20
10.661509
 30
0.0
 10
4.986699
 20
10.632123
 30
0.0
 10
4.983151
 20
10.564220
 30
0.0
 10
4.934147
 20
10.545489
 30
0.0
 10
4.881121
 20
10.552975
 30
0.0
 10
4.865813
 20
10.593500
 30
0.0
 10
4.874563
 20
10.636492
 30
0.0
 10
4.902923
 20
10.668593
 30
0.0
 10
4.923065
 20
10.676386
 30
0.0
 10
4.946441
 20
10.676447
 30
0.0
 10
4.946441
 20
10.676447
 30
0.0
  0
LWPOLYLINE
  5
106
100
AcDbEntity
  8
Layer_1
 62
7
100
AcDbPolyline
 90
103
 70
0
 10
20.111034
 20
10.260776
 30
0.0
 10
19.961930
 20
10.244029
 30
0.0
 10
19.891471
 20
10.220998
 30
0.0
 10
19.829269
 20
10.179231
 30
0.0
 10
19.699635
 20
10.090990
 30
0.0
 10
19.635880
 20
10.045889
 30
0.0
 10
19.580214
 20
9.990625
 30
0.0
 10
19.541548
 20
9.939947
 30
0.0
 10
19.511588
 20
9.883965
 30
0.0
 10
19.453509
 20
9.848944
 30
0.0
 10
19.387660
 20
9.831346
 30
0.0
 10
19.251857
 20
9.808951
 30
0.0
 10
19.131793
 20
9.787779
 30
0.0
 10
19.012922
 20
9.756919
 30
0.0
 10
18.902149
 20
9.707862
 30
0.0
 10
18.851958
 20
9.673850
 30
0.0
 10
18.806380
 20
9.632097
 30
0.0
 10
18.712628
 20
9.529182
 30
0.0
 10
18.635263
 20
9.413631
 30
0.0
 10
18.499612
 20
9.170196
 30
0.0
 10
18.504797
 20
8.989936
 30
0.0
 10
18.515623
 20
8.900734
 30
0.0
 10
18.538748
 20
8.813725
 30
0.0
 10
18.530502
 20
8.795152
 30
0.0
 10
18.510407
 20
8.788505
 30
0.0
 10
18.464314
 20
8.781573
 30
0.0
 10
18.282162
 20
8.714685
 30
0.0
 10
18.107256
 20
8.630446
 30
0.0
 10
18.052542
 20
8.582437
 30
0.0
 10
18.005922
 20
8.526223
 30
0.0
 10
17.928098
 20
8.402321
 30
0.0
 10
17.904400
 20
8.344607
 30
0.0
 10
17.896967
 20
8.283614
 30
0.0
 10
17.903730
 20
8.222075
 30
0.0
 10
17.922618
 20
8.162725
 30
0.0
 10
18.001704
 20
7.941050
 30
0.0
 10
18.056474
 20
7.837684
 30
0.0
 10
18.132227
 20
7.748447
 30
0.0
 10
18.174828
 20
7.718629
 30
0.0
 10
18.222351
 20
7.698338
 30
0.0
 10
18.319474
 20
7.662843
 30
0.0
 10
18.311137
 20
7.597684
 30
0.0
 10
18.296871
 20
7.531776
 30
0.0
 10
18.252930
 20
7.339306
 30
0.0
 10
18.240008
 20
7.241420
 30
0.0
 10
18.239906
 20
7.142397
 30
0.0
 10
18.248775
 20
7.049660
 30
0.0
 10
18.266084
 20
6.957161
 30
0.0
 10
18.297225
 20
6.869495
 30
0.0
 10
18.347586
 20
6.791261
 30
0.0
 10
18.437583
 20
6.725837
 30
0.0
 10
18.538307
 20
6.677932
 30
0.0
 10
18.645741
 20
6.646450
 30
0.0
 10
18.755868
 20
6.630299
 30
0.0
 10
18.815362
 20
6.625473
 30
0.0
 10
18.839076
 20
6.610922
 30
0.0
 10
18.851728
 20
6.582957
 30
0.0
 10
18.898244
 20
6.374076
 30
0.0
 10
18.924274
 20
6.270504
 30
0.0
 10
18.962577
 20
6.170538
 30
0.0
 10
19.024738
 20
6.066357
 30
0.0
 10
19.106964
 20
5.976826
 30
0.0
 10
19.204107
 20
5.902860
 30
0.0
 10
19.311021
 20
5.845376
 30
0.0
 10
19.390110
 20
5.815095
 30
0.0
 10
19.473648
 20
5.801011
 30
0.0
 10
19.557126
 20
5.807424
 30
0.0
 10
19.636037
 20
5.838634
 30
0.0
 10
19.665279
 20
5.849275
 30
0.0
 10
19.694807
 20
5.848046
 30
0.0
 10
19.722378
 20
5.836411
 30
0.0
 10
19.745744
 20
5.815831
 30
0.0
 10
19.920335
 20
5.650253
 30
0.0
 10
20.090088
 20
5.480030
 30
0.0
 10
20.229004
 20
5.442277
 30
0.0
 10
20.299471
 20
5.435292
 30
0.0
 10
20.369380
 20
5.451159
 30
0.0
 10
20.508692
 20
5.515245
 30
0.0
 10
20.572382
 20
5.557672
 30
0.0
 10
20.627688
 20
5.610117
 30
0.0
 10
20.642920
 20
5.634160
 30
0.0
 10
20.655053
 20
5.635739
 30
0.0
 10
20.669140
 20
5.626323
 30
0.0
 10
20.785502
 20
5.536152
 30
0.0
 10
20.848035
 20
5.498103
 30
0.0
 10
20.916856
 20
5.473967
 30
0.0
 10
20.965741
 20
5.486735
 30
0.0
 10
21.007035
 20
5.510512
 30
0.0
 10
21.007035
 20
10.146398
 30
0.0
 10
20.947438
 20
10.156456
 30
0.0
 10
20.887008
 20
10.156807
 30
0.0
 10
20.828865
 20
10.143837
 30
0.0
 10
20.776131
 20
10.113932
 30
0.0
 10
20.723294
 20
10.071074
 30
0.0
 10
20.666604
 20
10.035218
 30
0.0
 10
20.619385
 20
10.094586
 30
0.0
 10
20.595293
 20
10.123842
 30
0.0
 10
20.563779
 20
10.145815
 30
0.0
 10
20.457204
 20
10.196735
 30
0.0
 10
20.345086
 20
10.234280
 30
0.0
 10
20.229129
 20
10.256333
 30
0.0
 10
20.111034
 20
10.260776
 30
0.0
 10
20.111034
 20
10.260776
 30
0.0
  0
LWPOLYLINE
  5
107
100
AcDbEntity
  8
Layer_1
 62
7
100
AcDbPolyline
 90
10
 70
0
 10
14.936997
 20
10.247712
 30
0.0
 10
14.957005
 20
10.241339
 30
0.0
 10
14.960074
 20
10.220792
 30
0.0
 10
14.940966
 20
10.177432
 30
0.0
 10
14.914942
 20
10.180521
 30
0.0
 10
14.889510
 20
10.194214
 30
0.0
 10
14.875846
 20
10.214935
 30
0.0
 10
14.885128
 20
10.239113
 30
0.0
 10
14.936997
 20
10.247712
 30
0.0
 10
14.936997
 20
10.247712
 30
0.0
  0
LWPOLYLINE
  5
108
100
AcDbEntity
  8
Layer_1
 62
7
100
AcDbPolyline
 90
8
 70
0
 10
4.765422
 20
10.083780
 30
0.0
 10
4.774530
 20
10.068721
 30
0.0
 10
4.763051
 20
10.063701
 30
0.0
 10
4.751573
 20
10.068721
 30
0.0
 10
4.760681
 20
10.083780
 30
0.0
 10
4.763052
 20
10.084062
 30
0.0
 10
4.765422
 20
10.083780
 30
0.0
 10
4.765422
 20
10.083780
 30
0.0
  0
LWPOLYLINE
  5
109
100
AcDbEntity
  8
Layer_1
 62
7
100
AcDbPolyline
 90
11
 70
0
 10
4.717135
 20
10.058314
 30
0.0
 10
4.723126
 20
10.047806
 30
0.0
 10
4.714950
 20
10.036867
 30
0.0
 10
4.686984
 20
10.026178
 30
0.0
 10
4.673739
 20
10.021565
 30
0.0
 10
4.664459
 20
10.025527
 30
0.0
 10
4.662087
 20
10.034679
 30
0.0
 10
4.669565
 20
10.045636
 30
0.0
 10
4.692169
 20
10.056164
 30
0.0
 10
4.717135
 20
10.058314
 30
0.0
 10
4.717135
 20
10.058314
 30
0.0
  0
LWPOLYLINE
  5
10a
100
AcDbEntity
  8
Layer_1
 62
7
100
AcDbPolyline
 90
17
 70
0
 10
5.131759
 20
8.958915
 30
0.0
 10
5.188566
 20
8.761508
 30
0.0
 10
5.203110
 20
8.660134
 30
0.0
 10
5.202509
 20
8.557697
 30
0.0
 10
5.162441
 20
8.413653
 30
0.0
 10
5.130825
 20
8.345681
 30
0.0
 10
5.091520
 20
8.282354
 30
0.0
 10
5.072913
 20
8.318823
 30
0.0
 10
5.065004
 20
8.360046
 30
0.0
 10
5.060110
 20
8.444518
 30
0.0
 10
5.062857
 20
8.566844
 30
0.0
 10
5.077517
 20
8.688174
 30
0.0
 10
5.118806
 20
8.929260
 30
0.0
 10
5.124136
 20
8.950129
 30
0.0
 10
5.127636
 20
8.960124
 30
0.0
 10
5.131759
 20
8.958915
 30
0.0
 10
5.131759
 20
8.958915
 30
0.0
  0
LWPOLYLINE
  5
10b
100
AcDbEntity
  8
Layer_1
 62
7
100
AcDbPolyline
 90
123
 70
0
 10
15.168397
 20
8.900211
 30
0.0
 10
15.183233
 20
8.874498
 30
0.0
 10
15.188632
 20
8.844067
 30
0.0
 10
15.200895
 20
8.782486
 30
0.0
 10
15.243678
 20
8.691173
 30
0.0
 10
15.304542
 20
8.609621
 30
0.0
 10
15.381609
 20
8.544369
 30
0.0
 10
15.472999
 20
8.501958
 30
0.0
 10
15.558823
 20
8.488563
 30
0.0
 10
15.441314
 20
8.498236
 30
0.0
 10
15.382849
 20
8.493173
 30
0.0
 10
15.327312
 20
8.475444
 30
0.0
 10
15.297286
 20
8.449469
 30
0.0
 10
15.275733
 20
8.418082
 30
0.0
 10
15.255086
 20
8.344473
 30
0.0
 10
15.259445
 20
8.265423
 30
0.0
 10
15.282885
 20
8.191734
 30
0.0
 10
15.311485
 20
8.150643
 30
0.0
 10
15.352002
 20
8.121212
 30
0.0
 10
15.445989
 20
8.082979
 30
0.0
 10
15.486842
 20
8.078623
 30
0.0
 10
15.525739
 20
8.089005
 30
0.0
 10
15.602755
 20
8.114839
 30
0.0
 10
15.646050
 20
8.072490
 30
0.0
 10
15.700981
 20
8.041528
 30
0.0
 10
15.739928
 20
8.038067
 30
0.0
 10
15.778372
 20
8.046691
 30
0.0
 10
15.816982
 20
8.057971
 30
0.0
 10
15.856424
 20
8.062474
 30
0.0
 10
16.021494
 20
8.074377
 30
0.0
 10
16.103060
 20
8.086991
 30
0.0
 10
16.180263
 20
8.115887
 30
0.0
 10
16.193848
 20
8.133635
 30
0.0
 10
16.200831
 20
8.140814
 30
0.0
 10
16.212785
 20
8.142510
 30
0.0
 10
16.240088
 20
8.170227
 30
0.0
 10
16.261302
 20
8.203730
 30
0.0
 10
16.282183
 20
8.279157
 30
0.0
 10
16.252114
 20
8.329438
 30
0.0
 10
16.210631
 20
8.371752
 30
0.0
 10
16.160143
 20
8.402138
 30
0.0
 10
16.103063
 20
8.416635
 30
0.0
 10
16.028311
 20
8.427660
 30
0.0
 10
15.951073
 20
8.429434
 30
0.0
 10
15.878786
 20
8.412046
 30
0.0
 10
15.846823
 20
8.393070
 30
0.0
 10
15.818886
 20
8.365587
 30
0.0
 10
15.796371
 20
8.330222
 30
0.0
 10
15.780325
 20
8.289765
 30
0.0
 10
15.776533
 20
8.248055
 30
0.0
 10
15.790774
 20
8.208932
 30
0.0
 10
15.685217
 20
8.209262
 30
0.0
 10
15.712263
 20
8.250025
 30
0.0
 10
15.731144
 20
8.296644
 30
0.0
 10
15.734159
 20
8.344552
 30
0.0
 10
15.713604
 20
8.389179
 30
0.0
 10
15.680692
 20
8.426801
 30
0.0
 10
15.641285
 20
8.457584
 30
0.0
 10
15.684660
 20
8.442203
 30
0.0
 10
15.728819
 20
8.435015
 30
0.0
 10
15.818024
 20
8.440497
 30
0.0
 10
15.905984
 20
8.464588
 30
0.0
 10
15.989780
 20
8.497847
 30
0.0
 10
16.081900
 20
8.543747
 30
0.0
 10
16.168263
 20
8.599740
 30
0.0
 10
16.245505
 20
8.667116
 30
0.0
 10
16.310262
 20
8.747162
 30
0.0
 10
16.332999
 20
8.779583
 30
0.0
 10
16.345527
 20
8.793976
 30
0.0
 10
16.362164
 20
8.798952
 30
0.0
 10
16.386767
 20
8.747819
 30
0.0
 10
16.400525
 20
8.692181
 30
0.0
 10
16.414547
 20
8.577820
 30
0.0
 10
16.421057
 20
8.385583
 30
0.0
 10
16.420924
 20
8.193166
 30
0.0
 10
16.348864
 20
8.194044
 30
0.0
 10
16.313424
 20
8.191090
 30
0.0
 10
16.282679
 20
8.174976
 30
0.0
 10
16.261943
 20
8.138768
 30
0.0
 10
16.249405
 20
8.100371
 30
0.0
 10
16.245665
 20
8.020078
 30
0.0
 10
16.264938
 20
7.940229
 30
0.0
 10
16.300703
 20
7.866957
 30
0.0
 10
16.322290
 20
7.828623
 30
0.0
 10
16.349165
 20
7.791928
 30
0.0
 10
16.371185
 20
7.753873
 30
0.0
 10
16.378204
 20
7.711459
 30
0.0
 10
16.332064
 20
7.732935
 30
0.0
 10
16.289824
 20
7.762347
 30
0.0
 10
16.213005
 20
7.831018
 30
0.0
 10
16.172986
 20
7.883214
 30
0.0
 10
16.118913
 20
7.920866
 30
0.0
 10
16.032713
 20
7.965035
 30
0.0
 10
15.944674
 20
8.002883
 30
0.0
 10
15.759852
 20
8.003459
 30
0.0
 10
15.667573
 20
8.001341
 30
0.0
 10
15.576131
 20
7.990374
 30
0.0
 10
15.422287
 20
7.930402
 30
0.0
 10
15.339129
 20
7.876583
 30
0.0
 10
15.247069
 20
7.839766
 30
0.0
 10
15.182322
 20
7.823365
 30
0.0
 10
15.149415
 20
7.819870
 30
0.0
 10
15.117410
 20
7.824900
 30
0.0
 10
15.240830
 20
7.869265
 30
0.0
 10
15.301711
 20
7.893618
 30
0.0
 10
15.356086
 20
7.930071
 30
0.0
 10
15.396182
 20
7.989438
 30
0.0
 10
15.412962
 20
8.020358
 30
0.0
 10
15.415948
 20
8.054756
 30
0.0
 10
15.377286
 20
8.074516
 30
0.0
 10
15.336598
 20
8.093869
 30
0.0
 10
15.266306
 20
8.134930
 30
0.0
 10
15.194927
 20
8.170085
 30
0.0
 10
14.987268
 20
8.155849
 30
0.0
 10
14.987168
 20
8.291900
 30
0.0
 10
14.995905
 20
8.427812
 30
0.0
 10
15.020099
 20
8.561037
 30
0.0
 10
15.066371
 20
8.689029
 30
0.0
 10
15.105849
 20
8.795794
 30
0.0
 10
15.127883
 20
8.848120
 30
0.0
 10
15.157483
 20
8.896187
 30
0.0
 10
15.168397
 20
8.900210
 30
0.0
 10
15.168397
 20
8.900211
 30
0.0
  0
LWPOLYLINE
  5
10c
100
AcDbEntity
  8
Layer_1
 62
7
100
AcDbPolyline
 90
62
 70
0
 10
3.362083
 20
8.569923
 30
0.0
 10
3.379374
 20
8.531566
 30
0.0
 10
3.404204
 20
8.498388
 30
0.0
 10
3.437646
 20
8.408453
 30
0.0
 10
3.467222
 20
8.315452
 30
0.0
 10
3.507681
 20
8.229083
 30
0.0
 10
3.536599
 20
8.191415
 30
0.0
 10
3.573767
 20
8.159040
 30
0.0
 10
3.670051
 20
8.104141
 30
0.0
 10
3.776220
 20
8.073086
 30
0.0
 10
3.887198
 20
8.058314
 30
0.0
 10
3.997909
 20
8.052263
 30
0.0
 10
4.083849
 20
8.055395
 30
0.0
 10
4.168367
 20
8.068146
 30
0.0
 10
4.331675
 20
8.118814
 30
0.0
 10
4.484906
 20
8.196885
 30
0.0
 10
4.625137
 20
8.294976
 30
0.0
 10
4.701956
 20
8.369665
 30
0.0
 10
4.777438
 20
8.445348
 30
0.0
 10
4.802621
 20
8.363535
 30
0.0
 10
4.823592
 20
8.279351
 30
0.0
 10
4.857895
 20
8.140502
 30
0.0
 10
4.877485
 20
7.999126
 30
0.0
 10
4.883067
 20
7.856344
 30
0.0
 10
4.875345
 20
7.713276
 30
0.0
 10
4.872131
 20
7.685121
 30
0.0
 10
4.849926
 20
7.676257
 30
0.0
 10
4.789358
 20
7.674694
 30
0.0
 10
4.686430
 20
7.658446
 30
0.0
 10
4.639155
 20
7.638279
 30
0.0
 10
4.601655
 20
7.603477
 30
0.0
 10
4.597278
 20
7.576918
 30
0.0
 10
4.605965
 20
7.552287
 30
0.0
 10
4.635555
 20
7.507896
 30
0.0
 10
4.653478
 20
7.473713
 30
0.0
 10
4.678243
 20
7.443014
 30
0.0
 10
4.701921
 20
7.412137
 30
0.0
 10
4.716584
 20
7.377423
 30
0.0
 10
4.691503
 20
7.358564
 30
0.0
 10
4.660538
 20
7.362799
 30
0.0
 10
4.599466
 20
7.391852
 30
0.0
 10
4.527665
 20
7.429866
 30
0.0
 10
4.454647
 20
7.463007
 30
0.0
 10
3.833316
 20
7.470358
 30
0.0
 10
3.565591
 20
7.374061
 30
0.0
 10
3.513600
 20
7.332338
 30
0.0
 10
3.485978
 20
7.316229
 30
0.0
 10
3.458435
 20
7.312215
 30
0.0
 10
3.526515
 20
7.386747
 30
0.0
 10
3.553236
 20
7.428504
 30
0.0
 10
3.566069
 20
7.477513
 30
0.0
 10
3.587679
 20
7.575648
 30
0.0
 10
3.595313
 20
7.624308
 30
0.0
 10
3.587504
 20
7.673646
 30
0.0
 10
3.559973
 20
7.736617
 30
0.0
 10
3.535818
 20
7.757489
 30
0.0
 10
3.502036
 20
7.757983
 30
0.0
 10
3.437144
 20
7.735836
 30
0.0
 10
3.381871
 20
7.695640
 30
0.0
 10
3.358004
 20
8.547929
 30
0.0
 10
3.362083
 20
8.569923
 30
0.0
 10
3.362083
 20
8.569923
 30
0.0
  0
LWPOLYLINE
  5
10d
100
AcDbEntity
  8
Layer_1
 62
7
100
AcDbPolyline
 90
15
 70
0
 10
15.443233
 20
8.433166
 30
0.0
 10
15.495479
 20
8.428362
 30
0.0
 10
15.546186
 20
8.413990
 30
0.0
 10
15.593413
 20
8.390686
 30
0.0
 10
15.635221
 20
8.359083
 30
0.0
 10
15.589189
 20
8.360525
 30
0.0
 10
15.547162
 20
8.378369
 30
0.0
 10
15.518900
 20
8.379517
 30
0.0
 10
15.498355
 20
8.359083
 30
0.0
 10
15.332108
 20
8.359800
 30
0.0
 10
15.347254
 20
8.391855
 30
0.0
 10
15.374272
 20
8.414888
 30
0.0
 10
15.407990
 20
8.428718
 30
0.0
 10
15.443233
 20
8.433167
 30
0.0
 10
15.443233
 20
8.433166
 30
0.0
  0
LWPOLYLINE
  5
10e
100
AcDbEntity
  8
Layer_1
 62
7
100
AcDbPolyline
 90
18
 70
0
 10
15.977471
 20
8.363382
 30
0.0
 10
16.083390
 20
8.343443
 30
0.0
 10
16.132806
 20
8.322814
 30
0.0
 10
16.174916
 20
8.290291
 30
0.0
 10
16.125374
 20
8.287617
 30
0.0
 10
16.101550
 20
8.289102
 30
0.0
 10
16.079942
 20
8.299386
 30
0.0
 10
16.031099
 20
8.306729
 30
0.0
 10
16.007711
 20
8.299989
 30
0.0
 10
15.989212
 20
8.283787
 30
0.0
 10
15.925419
 20
8.280650
 30
0.0
 10
15.894952
 20
8.280054
 30
0.0
 10
15.874724
 20
8.286431
 30
0.0
 10
15.893057
 20
8.311227
 30
0.0
 10
15.917643
 20
8.329706
 30
0.0
 10
15.969533
 20
8.362940
 30
0.0
 10
15.977471
 20
8.363380
 30
0.0
 10
15.977471
 20
8.363382
 30
0.0
  0
LWPOLYLINE
  5
10f
100
AcDbEntity
  8
Layer_1
 62
7
100
AcDbPolyline
 90
24
 70
0
 10
15.482094
 20
8.316750
 30
0.0
 10
15.488278
 20
8.288256
 30
0.0
 10
15.511169
 20
8.273975
 30
0.0
 10
15.541530
 20
8.270747
 30
0.0
 10
15.570123
 20
8.275408
 30
0.0
 10
15.584969
 20
8.285521
 30
0.0
 10
15.591063
 20
8.302797
 30
0.0
 10
15.598070
 20
8.316715
 30
0.0
 10
15.615653
 20
8.316750
 30
0.0
 10
15.638838
 20
8.319490
 30
0.0
 10
15.653198
 20
8.312523
 30
0.0
 10
15.657082
 20
8.297775
 30
0.0
 10
15.648836
 20
8.277172
 30
0.0
 10
15.608231
 20
8.227824
 30
0.0
 10
15.557447
 20
8.187610
 30
0.0
 10
15.499096
 20
8.161999
 30
0.0
 10
15.435792
 20
8.156456
 30
0.0
 10
15.417575
 20
8.178490
 30
0.0
 10
15.390592
 20
8.191789
 30
0.0
 10
15.366131
 20
8.216953
 30
0.0
 10
15.349793
 20
8.247954
 30
0.0
 10
15.333927
 20
8.316750
 30
0.0
 10
15.482094
 20
8.316750
 30
0.0
 10
15.482094
 20
8.316750
 30
0.0
  0
LWPOLYLINE
  5
110
100
AcDbEntity
  8
Layer_1
 62
7
100
AcDbPolyline
 90
19
 70
0
 10
16.190626
 20
8.248123
 30
0.0
 10
16.174752
 20
8.204308
 30
0.0
 10
16.138097
 20
8.175889
 30
0.0
 10
16.091491
 20
8.159195
 30
0.0
 10
16.045766
 20
8.150558
 30
0.0
 10
15.964290
 20
8.142725
 30
0.0
 10
15.926005
 20
8.149839
 30
0.0
 10
15.897655
 20
8.177843
 30
0.0
 10
15.887559
 20
8.208420
 30
0.0
 10
15.873732
 20
8.237319
 30
0.0
 10
15.986842
 20
8.240296
 30
0.0
 10
15.998888
 20
8.219128
 30
0.0
 10
16.018748
 20
8.207961
 30
0.0
 10
16.041451
 20
8.208208
 30
0.0
 10
16.062027
 20
8.221279
 30
0.0
 10
16.088750
 20
8.241692
 30
0.0
 10
16.121219
 20
8.247416
 30
0.0
 10
16.190626
 20
8.248123
 30
0.0
 10
16.190626
 20
8.248123
 30
0.0
  0
LWPOLYLINE
  5
111
100
AcDbEntity
  8
Layer_1
 62
7
100
AcDbPolyline
 90
50
 70
0
 10
3.871240
 20
7.974665
 30
0.0
 10
3.793320
 20
7.962863
 30
0.0
 10
3.717664
 20
7.938135
 30
0.0
 10
3.649233
 20
7.899014
 30
0.0
 10
3.592987
 20
7.844027
 30
0.0
 10
3.582250
 20
7.796791
 30
0.0
 10
3.590629
 20
7.748886
 30
0.0
 10
3.635761
 20
7.660913
 30
0.0
 10
3.681650
 20
7.619701
 30
0.0
 10
3.741263
 20
7.604524
 30
0.0
 10
3.765138
 20
7.589096
 30
0.0
 10
3.794703
 20
7.584237
 30
0.0
 10
3.856026
 20
7.582365
 30
0.0
 10
3.945274
 20
7.582866
 30
0.0
 10
3.989264
 20
7.579341
 30
0.0
 10
4.029604
 20
7.563073
 30
0.0
 10
4.065762
 20
7.523689
 30
0.0
 10
4.083828
 20
7.509763
 30
0.0
 10
4.103295
 20
7.516959
 30
0.0
 10
4.154855
 20
7.560096
 30
0.0
 10
4.208335
 20
7.596274
 30
0.0
 10
4.335642
 20
7.576090
 30
0.0
 10
4.398991
 20
7.575790
 30
0.0
 10
4.459519
 20
7.596711
 30
0.0
 10
4.560856
 20
7.651473
 30
0.0
 10
4.602726
 20
7.689901
 30
0.0
 10
4.629768
 20
7.740014
 30
0.0
 10
4.617043
 20
7.799202
 30
0.0
 10
4.589445
 20
7.853560
 30
0.0
 10
4.551788
 20
7.902532
 30
0.0
 10
4.508886
 20
7.945562
 30
0.0
 10
4.463377
 20
7.962906
 30
0.0
 10
4.414254
 20
7.965030
 30
0.0
 10
4.317614
 20
7.943357
 30
0.0
 10
4.262126
 20
7.914818
 30
0.0
 10
4.215093
 20
7.873962
 30
0.0
 10
4.180502
 20
7.822714
 30
0.0
 10
4.162337
 20
7.763000
 30
0.0
 10
4.154340
 20
7.747612
 30
0.0
 10
4.136080
 20
7.737366
 30
0.0
 10
4.119898
 20
7.737581
 30
0.0
 10
4.118129
 20
7.753574
 30
0.0
 10
4.120827
 20
7.793733
 30
0.0
 10
4.113503
 20
7.832518
 30
0.0
 10
4.074170
 20
7.901419
 30
0.0
 10
4.010898
 20
7.951183
 30
0.0
 10
3.973650
 20
7.966048
 30
0.0
 10
3.934455
 20
7.972718
 30
0.0
 10
3.871240
 20
7.974665
 30
0.0
 10
3.871240
 20
7.974665
 30
0.0
  0
LWPOLYLINE
  5
112
100
AcDbEntity
  8
Layer_1
 62
7
100
AcDbPolyline
 90
18
 70
0
 10
3.861869
 20
7.899645
 30
0.0
 10
3.914010
 20
7.896524
 30
0.0
 10
3.967890
 20
7.886823
 30
0.0
 10
4.014648
 20
7.864254
 30
0.0
 10
4.045424
 20
7.822530
 30
0.0
 10
3.902825
 20
7.824184
 30
0.0
 10
3.877198
 20
7.852255
 30
0.0
 10
3.839931
 20
7.860539
 30
0.0
 10
3.802154
 20
7.850645
 30
0.0
 10
3.774998
 20
7.824184
 30
0.0
 10
3.717998
 20
7.823707
 30
0.0
 10
3.692615
 20
7.824719
 30
0.0
 10
3.687311
 20
7.828102
 30
0.0
 10
3.689449
 20
7.834381
 30
0.0
 10
3.769241
 20
7.885197
 30
0.0
 10
3.813998
 20
7.898412
 30
0.0
 10
3.861869
 20
7.899645
 30
0.0
 10
3.861869
 20
7.899645
 30
0.0
  0
LWPOLYLINE
  5
113
100
AcDbEntity
  8
Layer_1
 62
7
100
AcDbPolyline
 90
20
 70
0
 10
4.387674
 20
7.895125
 30
0.0
 10
4.434801
 20
7.885180
 30
0.0
 10
4.477442
 20
7.862841
 30
0.0
 10
4.512723
 20
7.830323
 30
0.0
 10
4.537770
 20
7.789843
 30
0.0
 10
4.480750
 20
7.788101
 30
0.0
 10
4.452598
 20
7.787694
 30
0.0
 10
4.429842
 20
7.794308
 30
0.0
 10
4.420403
 20
7.813326
 30
0.0
 10
4.405930
 20
7.825624
 30
0.0
 10
4.368491
 20
7.832091
 30
0.0
 10
4.330749
 20
7.817778
 30
0.0
 10
4.305929
 20
7.786756
 30
0.0
 10
4.256437
 20
7.786952
 30
0.0
 10
4.245523
 20
7.797417
 30
0.0
 10
4.257676
 20
7.820172
 30
0.0
 10
4.317273
 20
7.868086
 30
0.0
 10
4.351060
 20
7.886111
 30
0.0
 10
4.387674
 20
7.895125
 30
0.0
 10
4.387674
 20
7.895125
 30
0.0
  0
LWPOLYLINE
  5
114
100
AcDbEntity
  8
Layer_1
 62
7
100
AcDbPolyline
 90
20
 70
0
 10
3.788723
 20
7.779921
 30
0.0
 10
3.811646
 20
7.757358
 30
0.0
 10
3.841473
 20
7.749431
 30
0.0
 10
3.871424
 20
7.756433
 30
0.0
 10
3.894722
 20
7.778654
 30
0.0
 10
4.038369
 20
7.776890
 30
0.0
 10
4.017571
 20
7.738719
 30
0.0
 10
3.989149
 20
7.706177
 30
0.0
 10
3.954043
 20
7.681596
 30
0.0
 10
3.913188
 20
7.667308
 30
0.0
 10
3.892041
 20
7.650912
 30
0.0
 10
3.864575
 20
7.648918
 30
0.0
 10
3.755001
 20
7.670821
 30
0.0
 10
3.706010
 20
7.695381
 30
0.0
 10
3.668338
 20
7.735604
 30
0.0
 10
3.660535
 20
7.769286
 30
0.0
 10
3.665623
 20
7.781516
 30
0.0
 10
3.682888
 20
7.781162
 30
0.0
 10
3.788723
 20
7.779923
 30
0.0
 10
3.788723
 20
7.779921
 30
0.0
  0
LWPOLYLINE
  5
115
100
AcDbEntity
  8
Layer_1
 62
7
100
AcDbPolyline
 90
17
 70
0
 10
4.543337
 20
7.744864
 30
0.0
 10
4.492157
 20
7.696366
 30
0.0
 10
4.428222
 20
7.663876
 30
0.0
 10
4.357710
 20
7.649086
 30
0.0
 10
4.286801
 20
7.653693
 30
0.0
 10
4.268345
 20
7.670540
 30
0.0
 10
4.256245
 20
7.692558
 30
0.0
 10
4.244578
 20
7.741887
 30
0.0
 10
4.281977
 20
7.743087
 30
0.0
 10
4.295922
 20
7.737955
 30
0.0
 10
4.301849
 20
7.721051
 30
0.0
 10
4.332852
 20
7.698668
 30
0.0
 10
4.372155
 20
7.695697
 30
0.0
 10
4.407765
 20
7.711190
 30
0.0
 10
4.427692
 20
7.744202
 30
0.0
 10
4.543337
 20
7.744863
 30
0.0
 10
4.543337
 20
7.744864
 30
0.0
  0
LWPOLYLINE
  5
116
100
AcDbEntity
  8
Layer_1
 62
7
100
AcDbPolyline
 90
161
 70
0
 10
20.662635
 20
5.586911
 30
0.0
 10
20.573640
 20
5.521127
 30
0.0
 10
20.477914
 20
5.463465
 30
0.0
 10
20.375895
 20
5.421829
 30
0.0
 10
20.268020
 20
5.404128
 30
0.0
 10
20.182983
 20
5.424600
 30
0.0
 10
20.099128
 20
5.451367
 30
0.0
 10
20.117451
 20
5.330149
 30
0.0
 10
20.124831
 20
5.207639
 30
0.0
 10
20.122004
 20
4.961833
 30
0.0
 10
20.115549
 20
4.817206
 30
0.0
 10
20.121552
 20
4.672634
 30
0.0
 10
20.138385
 20
4.383409
 30
0.0
 10
20.161499
 20
4.045403
 30
0.0
 10
20.169529
 20
3.876256
 30
0.0
 10
20.169253
 20
3.707008
 30
0.0
 10
20.154015
 20
3.651728
 30
0.0
 10
20.148194
 20
3.624317
 30
0.0
 10
20.153202
 20
3.595976
 30
0.0
 10
20.168361
 20
3.459495
 30
0.0
 10
19.648951
 20
3.431935
 30
0.0
 10
19.636402
 20
3.438920
 30
0.0
 10
19.641100
 20
3.452507
 30
0.0
 10
19.663999
 20
3.478898
 30
0.0
 10
19.723194
 20
3.532170
 30
0.0
 10
19.755918
 20
3.554334
 30
0.0
 10
19.792266
 20
3.568250
 30
0.0
 10
19.827823
 20
3.546309
 30
0.0
 10
19.858198
 20
3.515929
 30
0.0
 10
19.890468
 20
3.489911
 30
0.0
 10
19.931707
 20
3.481058
 30
0.0
 10
20.027684
 20
3.479865
 30
0.0
 10
20.075039
 20
3.484661
 30
0.0
 10
20.119027
 20
3.501278
 30
0.0
 10
20.125242
 20
3.526690
 30
0.0
 10
20.112931
 20
3.550589
 30
0.0
 10
20.075812
 20
3.593055
 30
0.0
 10
20.037002
 20
3.649773
 30
0.0
 10
19.990899
 20
3.701273
 30
0.0
 10
19.896997
 20
3.802407
 30
0.0
 10
19.904117
 20
3.910053
 30
0.0
 10
19.910563
 20
4.018425
 30
0.0
 10
19.904584
 20
4.226495
 30
0.0
 10
19.894507
 20
4.329974
 30
0.0
 10
19.874949
 20
4.431894
 30
0.0
 10
19.857035
 20
4.450056
 30
0.0
 10
19.832276
 20
4.459770
 30
0.0
 10
19.779423
 20
4.457691
 30
0.0
 10
19.734987
 20
4.401361
 30
0.0
 10
19.689815
 20
4.344619
 30
0.0
 10
19.624150
 20
4.282785
 30
0.0
 10
19.551475
 20
4.227897
 30
0.0
 10
19.471306
 20
4.188297
 30
0.0
 10
19.383155
 20
4.172327
 30
0.0
 10
19.277585
 20
4.175032
 30
0.0
 10
19.174681
 20
4.197531
 30
0.0
 10
19.072729
 20
4.227314
 30
0.0
 10
18.970019
 20
4.251868
 30
0.0
 10
18.916531
 20
4.286809
 30
0.0
 10
18.870563
 20
4.331529
 30
0.0
 10
18.785362
 20
4.428036
 30
0.0
 10
18.755296
 20
4.481336
 30
0.0
 10
18.737165
 20
4.505373
 30
0.0
 10
18.711278
 20
4.519703
 30
0.0
 10
18.684139
 20
4.498610
 30
0.0
 10
18.675005
 20
4.465603
 30
0.0
 10
18.676494
 20
4.393208
 30
0.0
 10
18.670379
 20
4.222448
 30
0.0
 10
18.664976
 20
4.051887
 30
0.0
 10
18.684906
 20
3.991474
 30
0.0
 10
18.697410
 20
3.928898
 30
0.0
 10
18.716294
 20
3.802241
 30
0.0
 10
18.698324
 20
3.766139
 30
0.0
 10
18.670283
 20
3.736056
 30
0.0
 10
18.639578
 20
3.707334
 30
0.0
 10
18.613616
 20
3.675315
 30
0.0
 10
18.538200
 20
3.556177
 30
0.0
 10
18.512189
 20
3.491059
 30
0.0
 10
18.499501
 20
3.422344
 30
0.0
 10
18.443360
 20
3.421082
 30
0.0
 10
18.387693
 20
3.433447
 30
0.0
 10
18.331956
 20
3.449106
 30
0.0
 10
18.275602
 20
3.457729
 30
0.0
 10
18.159700
 20
3.489661
 30
0.0
 10
18.046568
 20
3.521122
 30
0.0
 10
18.013837
 20
3.489288
 30
0.0
 10
17.999993
 20
3.471878
 30
0.0
 10
18.000651
 20
3.451723
 30
0.0
 10
18.125837
 20
3.350509
 30
0.0
 10
18.250628
 20
3.248380
 30
0.0
 10
18.277681
 20
3.224736
 30
0.0
 10
18.299529
 20
3.195404
 30
0.0
 10
18.308160
 20
3.162607
 30
0.0
 10
18.295562
 20
3.128572
 30
0.0
 10
18.255572
 20
3.058463
 30
0.0
 10
18.215515
 20
2.987986
 30
0.0
 10
18.182730
 20
2.971640
 30
0.0
 10
18.164226
 20
2.940214
 30
0.0
 10
18.149865
 20
2.865341
 30
0.0
 10
18.156201
 20
2.840732
 30
0.0
 10
18.178141
 20
2.829970
 30
0.0
 10
18.232052
 20
2.829236
 30
0.0
 10
18.266099
 20
2.842676
 30
0.0
 10
18.280944
 20
2.875648
 30
0.0
 10
18.305947
 20
2.903434
 30
0.0
 10
18.320757
 20
2.906452
 30
0.0
 10
18.329562
 20
2.892350
 30
0.0
 10
18.369870
 20
2.884384
 30
0.0
 10
18.411873
 20
2.886159
 30
0.0
 10
18.495997
 20
2.894004
 30
0.0
 10
18.788637
 20
2.917458
 30
0.0
 10
18.934427
 20
2.933347
 30
0.0
 10
19.078868
 20
2.958391
 30
0.0
 10
19.409383
 20
2.987361
 30
0.0
 10
19.738425
 20
3.028174
 30
0.0
 10
19.870792
 20
3.029221
 30
0.0
 10
19.936875
 20
3.029389
 30
0.0
 10
20.002466
 20
3.039602
 30
0.0
 10
20.100905
 20
3.056996
 30
0.0
 10
20.150406
 20
3.060727
 30
0.0
 10
20.199063
 20
3.053966
 30
0.0
 10
20.220152
 20
3.010842
 30
0.0
 10
20.229664
 20
2.963010
 30
0.0
 10
20.239467
 20
2.865285
 30
0.0
 10
20.258185
 20
2.520166
 30
0.0
 10
20.265407
 20
2.174613
 30
0.0
 10
20.271346
 20
1.483260
 30
0.0
 10
20.277752
 20
0.900186
 30
0.0
 10
20.285552
 20
0.608783
 30
0.0
 10
20.302780
 20
0.317835
 30
0.0
 10
20.316226
 20
0.230474
 30
0.0
 10
20.344033
 20
0.146746
 30
0.0
 10
20.346949
 20
0.129323
 30
0.0
 10
20.357151
 20
0.115881
 30
0.0
 10
20.367864
 20
0.102410
 30
0.0
 10
20.372310
 20
0.084900
 30
0.0
 10
20.379308
 20
0.030729
 30
0.0
 10
20.385882
 20
0.007757
 30
0.0
 10
20.406045
 20
0.000233
 30
0.0
 10
21.007035
 20
0.000233
 30
0.0
 10
21.007647
 20
0.102430
 30
0.0
 10
21.005456
 20
0.153302
 30
0.0
 10
20.993861
 20
0.202143
 30
0.0
 10
20.983180
 20
0.214862
 30
0.0
 10
20.981358
 20
0.232428
 30
0.0
 10
20.995074
 20
0.263163
 30
0.0
 10
21.004129
 20
0.909142
 30
0.0
 10
21.005883
 20
1.555266
 30
0.0
 10
21.007282
 20
3.367696
 30
0.0
 10
21.002473
 20
5.180112
 30
0.0
 10
21.000622
 20
5.317361
 30
0.0
 10
20.988404
 20
5.453241
 30
0.0
 10
20.971715
 20
5.455310
 30
0.0
 10
20.953955
 20
5.450035
 30
0.0
 10
20.916746
 20
5.442602
 30
0.0
 10
20.859519
 20
5.458032
 30
0.0
 10
20.806435
 20
5.484659
 30
0.0
 10
20.709627
 20
5.553917
 30
0.0
 10
20.686194
 20
5.574967
 30
0.0
 10
20.662636
 20
5.586910
 30
0.0
 10
20.662635
 20
5.586911
 30
0.0
  0
LWPOLYLINE
  5
117
100
AcDbEntity
  8
Layer_1
 62
7
100
AcDbPolyline
 90
94
 70
0
 10
19.786313
 20
4.277609
 30
0.0
 10
19.807362
 20
4.230772
 30
0.0
 10
19.820075
 20
4.182322
 30
0.0
 10
19.827136
 20
4.082092
 30
0.0
 10
19.814265
 20
3.878833
 30
0.0
 10
19.814622
 20
3.845975
 30
0.0
 10
19.806625
 20
3.820833
 30
0.0
 10
19.787532
 20
3.805866
 30
0.0
 10
19.754599
 20
3.803538
 30
0.0
 10
19.701827
 20
3.791183
 30
0.0
 10
19.683638
 20
3.774890
 30
0.0
 10
19.682960
 20
3.748112
 30
0.0
 10
19.704767
 20
3.691876
 30
0.0
 10
19.720408
 20
3.637241
 30
0.0
 10
19.692806
 20
3.594661
 30
0.0
 10
19.658817
 20
3.558384
 30
0.0
 10
19.565313
 20
3.638570
 30
0.0
 10
19.516854
 20
3.676538
 30
0.0
 10
19.464018
 20
3.708590
 30
0.0
 10
19.403047
 20
3.740539
 30
0.0
 10
19.375118
 20
3.759590
 30
0.0
 10
19.356310
 20
3.785980
 30
0.0
 10
19.368604
 20
3.795803
 30
0.0
 10
19.384707
 20
3.790346
 30
0.0
 10
19.418102
 20
3.771208
 30
0.0
 10
19.497585
 20
3.758871
 30
0.0
 10
19.537565
 20
3.760979
 30
0.0
 10
19.575143
 20
3.772862
 30
0.0
 10
19.594521
 20
3.782558
 30
0.0
 10
19.618412
 20
3.785705
 30
0.0
 10
19.638576
 20
3.792747
 30
0.0
 10
19.646778
 20
3.814128
 30
0.0
 10
19.646920
 20
3.873843
 30
0.0
 10
19.630882
 20
3.931616
 30
0.0
 10
19.600060
 20
3.982670
 30
0.0
 10
19.555850
 20
4.022232
 30
0.0
 10
19.493734
 20
4.023378
 30
0.0
 10
19.431456
 20
4.012038
 30
0.0
 10
19.374241
 20
3.986654
 30
0.0
 10
19.327316
 20
3.945668
 30
0.0
 10
19.299241
 20
3.895123
 30
0.0
 10
19.280090
 20
3.877183
 30
0.0
 10
19.250753
 20
3.875553
 30
0.0
 10
19.227029
 20
3.885943
 30
0.0
 10
19.214630
 20
3.908362
 30
0.0
 10
19.205768
 20
3.935088
 30
0.0
 10
19.192655
 20
3.958401
 30
0.0
 10
19.164265
 20
3.992281
 30
0.0
 10
19.128860
 20
4.018376
 30
0.0
 10
19.088519
 20
4.036261
 30
0.0
 10
19.045324
 20
4.045509
 30
0.0
 10
19.001356
 20
4.045694
 30
0.0
 10
18.958696
 20
4.036392
 30
0.0
 10
18.919426
 20
4.017175
 30
0.0
 10
18.885625
 20
3.987618
 30
0.0
 10
18.855211
 20
3.943260
 30
0.0
 10
18.847528
 20
3.890790
 30
0.0
 10
18.862560
 20
3.840336
 30
0.0
 10
18.900290
 20
3.802021
 30
0.0
 10
18.931516
 20
3.785027
 30
0.0
 10
18.965770
 20
3.776856
 30
0.0
 10
19.034842
 20
3.765586
 30
0.0
 10
19.011320
 20
3.733770
 30
0.0
 10
18.975996
 20
3.711807
 30
0.0
 10
18.938804
 20
3.690619
 30
0.0
 10
18.909678
 20
3.661133
 30
0.0
 10
18.892363
 20
3.625616
 30
0.0
 10
18.883680
 20
3.608521
 30
0.0
 10
18.870414
 20
3.598071
 30
0.0
 10
18.823480
 20
3.698912
 30
0.0
 10
18.798430
 20
3.807256
 30
0.0
 10
18.771389
 20
4.029653
 30
0.0
 10
18.760325
 20
4.154755
 30
0.0
 10
18.759690
 20
4.217590
 30
0.0
 10
18.767998
 20
4.279484
 30
0.0
 10
18.813000
 20
4.245550
 30
0.0
 10
18.855237
 20
4.207218
 30
0.0
 10
18.900212
 20
4.173434
 30
0.0
 10
18.953427
 20
4.153145
 30
0.0
 10
19.098406
 20
4.111783
 30
0.0
 10
19.171075
 20
4.092487
 30
0.0
 10
19.245677
 20
4.083763
 30
0.0
 10
19.289591
 20
4.088487
 30
0.0
 10
19.309584
 20
4.086551
 30
0.0
 10
19.323568
 20
4.072723
 30
0.0
 10
19.371731
 20
4.067637
 30
0.0
 10
19.420367
 20
4.073337
 30
0.0
 10
19.515005
 20
4.100394
 30
0.0
 10
19.585267
 20
4.135167
 30
0.0
 10
19.650943
 20
4.177608
 30
0.0
 10
19.773194
 20
4.275294
 30
0.0
 10
19.779966
 20
4.278908
 30
0.0
 10
19.786313
 20
4.277609
 30
0.0
 10
19.786313
 20
4.277609
 30
0.0
  0
LWPOLYLINE
  5
118
100
AcDbEntity
  8
Layer_1
 62
7
100
AcDbPolyline
 90
10
 70
0
 10
19.045756
 20
3.967606
 30
0.0
 10
19.093196
 20
3.958929
 30
0.0
 10
19.131029
 20
3.930399
 30
0.0
 10
19.067567
 20
3.932290
 30
0.0
 10
19.007005
 20
3.945447
 30
0.0
 10
18.977320
 20
3.939696
 30
0.0
 10
18.947309
 20
3.937454
 30
0.0
 10
18.994321
 20
3.959978
 30
0.0
 10
19.045756
 20
3.967606
 30
0.0
 10
19.045756
 20
3.967606
 30
0.0
  0
LWPOLYLINE
  5
119
100
AcDbEntity
  8
Layer_1
 62
7
100
AcDbPolyline
 90
15
 70
0
 10
19.493673
 20
3.961322
 30
0.0
 10
19.515385
 20
3.956375
 30
0.0
 10
19.529911
 20
3.940604
 30
0.0
 10
19.558386
 20
3.905649
 30
0.0
 10
19.516217
 20
3.907034
 30
0.0
 10
19.479011
 20
3.922682
 30
0.0
 10
19.458165
 20
3.926084
 30
0.0
 10
19.439207
 20
3.918868
 30
0.0
 10
19.420382
 20
3.910862
 30
0.0
 10
19.399934
 20
3.911889
 30
0.0
 10
19.397394
 20
3.928062
 30
0.0
 10
19.412288
 20
3.940733
 30
0.0
 10
19.454868
 20
3.954377
 30
0.0
 10
19.493673
 20
3.961322
 30
0.0
 10
19.493673
 20
3.961322
 30
0.0
  0
LWPOLYLINE
  5
11a
100
AcDbEntity
  8
Layer_1
 62
7
100
AcDbPolyline
 90
200
 70
0
 10
2.908157
 20
3.946660
 30
0.0
 10
2.908916
 20
3.892973
 30
0.0
 10
2.917826
 20
3.869683
 30
0.0
 10
2.940458
 20
3.857749
 30
0.0
 10
2.951721
 20
3.787222
 30
0.0
 10
2.962600
 20
3.753445
 30
0.0
 10
2.982405
 20
3.723252
 30
0.0
 10
2.995597
 20
3.693387
 30
0.0
 10
2.993092
 20
3.680680
 30
0.0
 10
2.976728
 20
3.676619
 30
0.0
 10
2.750733
 20
3.671621
 30
0.0
 10
2.524566
 20
3.671989
 30
0.0
 10
2.532309
 20
3.617973
 30
0.0
 10
2.546249
 20
3.597123
 30
0.0
 10
2.572730
 20
3.589881
 30
0.0
 10
2.616428
 20
3.585469
 30
0.0
 10
2.656516
 20
3.569135
 30
0.0
 10
2.689527
 20
3.541499
 30
0.0
 10
2.711992
 20
3.503180
 30
0.0
 10
2.746036
 20
3.422378
 30
0.0
 10
2.759158
 20
3.380776
 30
0.0
 10
2.764730
 20
3.338173
 30
0.0
 10
2.732058
 20
3.329450
 30
0.0
 10
2.697239
 20
3.328190
 30
0.0
 10
2.627974
 20
3.335693
 30
0.0
 10
2.582941
 20
3.353126
 30
0.0
 10
2.534369
 20
3.359920
 30
0.0
 10
2.435842
 20
3.356649
 30
0.0
 10
2.414317
 20
3.353592
 30
0.0
 10
2.397365
 20
3.342480
 30
0.0
 10
2.387547
 20
3.325083
 30
0.0
 10
2.387424
 20
3.303171
 30
0.0
 10
2.394651
 20
3.265295
 30
0.0
 10
2.416596
 20
3.234235
 30
0.0
 10
2.440878
 20
3.204128
 30
0.0
 10
2.455113
 20
3.169115
 30
0.0
 10
2.481607
 20
3.124963
 30
0.0
 10
2.487285
 20
3.100744
 30
0.0
 10
2.483280
 20
3.074251
 30
0.0
 10
2.481596
 20
3.028311
 30
0.0
 10
2.490124
 20
3.007974
 30
0.0
 10
2.507588
 20
2.992506
 30
0.0
 10
2.522671
 20
2.952446
 30
0.0
 10
2.519929
 20
2.932255
 30
0.0
 10
2.507092
 20
2.915391
 30
0.0
 10
2.501715
 20
2.893153
 30
0.0
 10
2.506462
 20
2.871796
 30
0.0
 10
2.537023
 20
2.840315
 30
0.0
 10
2.532482
 20
2.814226
 30
0.0
 10
2.509517
 20
2.801214
 30
0.0
 10
2.451254
 20
2.796714
 30
0.0
 10
2.424406
 20
2.804656
 30
0.0
 10
2.401076
 20
2.821529
 30
0.0
 10
2.377065
 20
2.835930
 30
0.0
 10
2.348176
 20
2.836457
 30
0.0
 10
2.298238
 20
2.806681
 30
0.0
 10
2.267283
 20
2.756733
 30
0.0
 10
2.256091
 20
2.697603
 30
0.0
 10
2.265439
 20
2.640279
 30
0.0
 10
2.295723
 20
2.582599
 30
0.0
 10
2.308728
 20
2.518560
 30
0.0
 10
2.325811
 20
2.387410
 30
0.0
 10
2.342012
 20
2.331692
 30
0.0
 10
2.344483
 20
2.303988
 30
0.0
 10
2.333679
 20
2.276146
 30
0.0
 10
2.315059
 20
2.263240
 30
0.0
 10
2.290941
 20
2.258178
 30
0.0
 10
2.267480
 20
2.251476
 30
0.0
 10
2.250832
 20
2.233648
 30
0.0
 10
2.253513
 20
2.196122
 30
0.0
 10
2.277104
 20
2.167438
 30
0.0
 10
2.312379
 20
2.149666
 30
0.0
 10
2.350116
 20
2.144876
 30
0.0
 10
2.378873
 20
2.134353
 30
0.0
 10
2.405235
 20
2.115443
 30
0.0
 10
2.432091
 20
2.101457
 30
0.0
 10
2.462333
 20
2.105710
 30
0.0
 10
2.473645
 20
2.119622
 30
0.0
 10
2.477420
 20
2.137945
 30
0.0
 10
2.483367
 20
2.152925
 30
0.0
 10
2.501194
 20
2.156808
 30
0.0
 10
2.761990
 20
2.165828
 30
0.0
 10
3.021574
 20
2.192252
 30
0.0
 10
3.123889
 20
2.204229
 30
0.0
 10
3.225766
 20
2.205811
 30
0.0
 10
3.248914
 20
2.148992
 30
0.0
 10
3.263183
 20
2.088687
 30
0.0
 10
3.283037
 20
1.965867
 30
0.0
 10
3.308716
 20
1.713030
 30
0.0
 10
3.320079
 20
1.459026
 30
0.0
 10
3.354640
 20
1.157621
 30
0.0
 10
3.302039
 20
1.095076
 30
0.0
 10
3.256802
 20
1.027259
 30
0.0
 10
3.173731
 20
0.887368
 30
0.0
 10
3.116079
 20
0.812023
 30
0.0
 10
3.086450
 20
0.775074
 30
0.0
 10
3.062772
 20
0.734508
 30
0.0
 10
3.067947
 20
0.709240
 30
0.0
 10
3.090170
 20
0.699338
 30
0.0
 10
3.117918
 20
0.702873
 30
0.0
 10
3.139667
 20
0.717916
 30
0.0
 10
3.199203
 20
0.789318
 30
0.0
 10
3.248705
 20
0.868279
 30
0.0
 10
3.296756
 20
0.948333
 30
0.0
 10
3.351940
 20
1.023015
 30
0.0
 10
3.361868
 20
1.025056
 30
0.0
 10
3.364157
 20
1.012197
 30
0.0
 10
3.362377
 20
0.982863
 30
0.0
 10
3.358512
 20
0.935991
 30
0.0
 10
3.362094
 20
0.913878
 30
0.0
 10
3.376469
 20
0.897889
 30
0.0
 10
3.376825
 20
0.884587
 30
0.0
 10
3.368001
 20
0.875979
 30
0.0
 10
3.358381
 20
0.867233
 30
0.0
 10
3.356349
 20
0.853515
 30
0.0
 10
3.365967
 20
0.763949
 30
0.0
 10
3.383138
 20
0.675859
 30
0.0
 10
3.401571
 20
0.662622
 30
0.0
 10
3.424808
 20
0.659974
 30
0.0
 10
3.472545
 20
0.660644
 30
0.0
 10
3.445977
 20
1.063585
 30
0.0
 10
3.452255
 20
1.078290
 30
0.0
 10
3.465286
 20
1.074393
 30
0.0
 10
3.490534
 20
1.049504
 30
0.0
 10
3.622988
 20
0.895248
 30
0.0
 10
3.690311
 20
0.818291
 30
0.0
 10
3.751926
 20
0.737107
 30
0.0
 10
3.773040
 20
0.716736
 30
0.0
 10
3.801300
 20
0.706974
 30
0.0
 10
3.861869
 20
0.706836
 30
0.0
 10
3.875087
 20
0.731695
 30
0.0
 10
3.872851
 20
0.760433
 30
0.0
 10
3.843293
 20
0.811899
 30
0.0
 10
3.686447
 20
0.977496
 30
0.0
 10
3.607988
 20
1.060123
 30
0.0
 10
3.536266
 20
1.147975
 30
0.0
 10
3.516384
 20
1.155907
 30
0.0
 10
3.493706
 20
1.156578
 30
0.0
 10
3.472257
 20
1.158280
 30
0.0
 10
3.456064
 20
1.169305
 30
0.0
 10
3.443173
 20
1.215051
 30
0.0
 10
3.431173
 20
1.261597
 30
0.0
 10
3.395045
 20
1.572520
 30
0.0
 10
3.420837
 20
1.577357
 30
0.0
 10
3.428929
 20
1.583633
 30
0.0
 10
3.423873
 20
1.595561
 30
0.0
 10
3.402840
 20
1.625439
 30
0.0
 10
3.395223
 20
1.661994
 30
0.0
 10
3.390184
 20
1.737819
 30
0.0
 10
3.369018
 20
1.973725
 30
0.0
 10
3.336485
 20
2.208118
 30
0.0
 10
3.337668
 20
2.231496
 30
0.0
 10
3.355114
 20
2.241644
 30
0.0
 10
3.403119
 20
2.248577
 30
0.0
 10
3.572235
 20
2.269903
 30
0.0
 10
3.740065
 20
2.298981
 30
0.0
 10
4.073500
 20
2.369715
 30
0.0
 10
4.187672
 20
2.393107
 30
0.0
 10
4.300306
 20
2.420840
 30
0.0
 10
4.314178
 20
2.446047
 30
0.0
 10
4.306437
 20
2.475410
 30
0.0
 10
4.284215
 20
2.497362
 30
0.0
 10
4.254645
 20
2.500337
 30
0.0
 10
4.172648
 20
2.486177
 30
0.0
 10
4.131604
 20
2.481197
 30
0.0
 10
4.091395
 20
2.485663
 30
0.0
 10
4.071693
 20
2.579194
 30
0.0
 10
4.077022
 20
2.625527
 30
0.0
 10
4.101745
 20
2.666357
 30
0.0
 10
4.155495
 20
2.729402
 30
0.0
 10
4.178503
 20
2.763316
 30
0.0
 10
4.188188
 20
2.802116
 30
0.0
 10
4.165280
 20
2.821556
 30
0.0
 10
4.134526
 20
2.826306
 30
0.0
 10
4.070338
 20
2.826259
 30
0.0
 10
4.044687
 20
2.843033
 30
0.0
 10
4.028688
 20
2.870611
 30
0.0
 10
4.001384
 20
2.929777
 30
0.0
 10
3.976674
 20
2.949242
 30
0.0
 10
3.944206
 20
2.950784
 30
0.0
 10
3.910974
 20
2.950064
 30
0.0
 10
3.883972
 20
2.962740
 30
0.0
 10
3.845517
 20
3.127346
 30
0.0
 10
3.813833
 20
3.294042
 30
0.0
 10
3.806824
 20
3.358131
 30
0.0
 10
3.801681
 20
3.389599
 30
0.0
 10
3.785911
 20
3.415729
 30
0.0
 10
3.738997
 20
3.426798
 30
0.0
 10
3.689391
 20
3.431322
 30
0.0
 10
3.644140
 20
3.443415
 30
0.0
 10
3.610294
 20
3.477189
 30
0.0
 10
3.518058
 20
3.611259
 30
0.0
 10
3.478550
 20
3.681490
 30
0.0
 10
3.454300
 20
3.758585
 30
0.0
 10
3.455083
 20
3.849312
 30
0.0
 10
3.451656
 20
3.939328
 30
0.0
 10
2.908157
 20
3.953880
 30
0.0
 10
2.908157
 20
3.946825
 30
0.0
 10
2.908157
 20
3.946655
 30
0.0
 10
2.908157
 20
3.946660
 30
0.0
  0
LWPOLYLINE
  5
11b
100
AcDbEntity
  8
Layer_1
 62
7
100
AcDbPolyline
 90
14
 70
0
 10
18.969357
 20
3.894184
 30
0.0
 10
19.010128
 20
3.876392
 30
0.0
 10
19.032203
 20
3.876486
 30
0.0
 10
19.049449
 20
3.887790
 30
0.0
 10
19.095251
 20
3.891064
 30
0.0
 10
19.117213
 20
3.888454
 30
0.0
 10
19.119453
 20
3.878915
 30
0.0
 10
19.078684
 20
3.857061
 30
0.0
 10
19.032416
 20
3.851356
 30
0.0
 10
18.940143
 20
3.868883
 30
0.0
 10
18.927320
 20
3.887017
 30
0.0
 10
18.932578
 20
3.894562
 30
0.0
 10
18.969357
 20
3.894184
 30
0.0
 10
18.969357
 20
3.894184
 30
0.0
  0
LWPOLYLINE
  5
11c
100
AcDbEntity
  8
Layer_1
 62
7
100
AcDbPolyline
 90
15
 70
0
 10
19.424992
 20
3.868442
 30
0.0
 10
19.444859
 20
3.854202
 30
0.0
 10
19.470021
 20
3.847632
 30
0.0
 10
19.495861
 20
3.849056
 30
0.0
 10
19.517761
 20
3.858796
 30
0.0
 10
19.568359
 20
3.865147
 30
0.0
 10
19.589521
 20
3.858712
 30
0.0
 10
19.581236
 20
3.840796
 30
0.0
 10
19.542814
 20
3.829068
 30
0.0
 10
19.502143
 20
3.825346
 30
0.0
 10
19.421078
 20
3.834322
 30
0.0
 10
19.401644
 20
3.861335
 30
0.0
 10
19.404285
 20
3.870993
 30
0.0
 10
19.424992
 20
3.868442
 30
0.0
 10
19.424992
 20
3.868442
 30
0.0
  0
LWPOLYLINE
  5
11d
100
AcDbEntity
  8
Layer_1
 62
7
100
AcDbPolyline
 90
12
 70
0
 10
3.157085
 20
3.758475
 30
0.0
 10
3.264406
 20
3.754349
 30
0.0
 10
3.316824
 20
3.745723
 30
0.0
 10
3.364949
 20
3.723803
 30
0.0
 10
3.374682
 20
3.705168
 30
0.0
 10
3.375863
 20
3.683369
 30
0.0
 10
3.366731
 20
3.666648
 30
0.0
 10
3.345525
 20
3.663246
 30
0.0
 10
3.100421
 20
3.646909
 30
0.0
 10
3.062828
 20
3.751860
 30
0.0
 10
3.157085
 20
3.758475
 30
0.0
 10
3.157085
 20
3.758475
 30
0.0
  0
LWPOLYLINE
  5
11e
100
AcDbEntity
  8
Layer_1
 62
7
100
AcDbPolyline
 90
26
 70
0
 10
19.193537
 20
3.674635
 30
0.0
 10
19.235726
 20
3.639403
 30
0.0
 10
19.260795
 20
3.635747
 30
0.0
 10
19.283385
 20
3.651208
 30
0.0
 10
19.320040
 20
3.708094
 30
0.0
 10
19.437139
 20
3.626419
 30
0.0
 10
19.490232
 20
3.578707
 30
0.0
 10
19.536231
 20
3.524527
 30
0.0
 10
19.545574
 20
3.502759
 30
0.0
 10
19.541990
 20
3.481963
 30
0.0
 10
19.527491
 20
3.466879
 30
0.0
 10
19.504091
 20
3.462252
 30
0.0
 10
19.293516
 20
3.418123
 30
0.0
 10
19.187439
 20
3.401675
 30
0.0
 10
19.080262
 20
3.398200
 30
0.0
 10
19.011275
 20
3.422719
 30
0.0
 10
18.979460
 20
3.440502
 30
0.0
 10
18.953151
 20
3.464622
 30
0.0
 10
18.948684
 20
3.506664
 30
0.0
 10
18.955961
 20
3.547639
 30
0.0
 10
18.975504
 20
3.583816
 30
0.0
 10
19.007832
 20
3.611466
 30
0.0
 10
19.087405
 20
3.656275
 30
0.0
 10
19.162227
 20
3.709637
 30
0.0
 10
19.193537
 20
3.674635
 30
0.0
 10
19.193537
 20
3.674635
 30
0.0
  0
LWPOLYLINE
  5
11f
100
AcDbEntity
  8
Layer_1
 62
7
100
AcDbPolyline
 90
13
 70
0
 10
19.860893
 20
3.695747
 30
0.0
 10
19.941528
 20
3.646290
 30
0.0
 10
19.974436
 20
3.611619
 30
0.0
 10
19.999854
 20
3.571999
 30
0.0
 10
19.985504
 20
3.551533
 30
0.0
 10
19.960796
 20
3.551293
 30
0.0
 10
19.911990
 20
3.577897
 30
0.0
 10
19.864619
 20
3.620580
 30
0.0
 10
19.851736
 20
3.648122
 30
0.0
 10
19.853066
 20
3.680698
 30
0.0
 10
19.855080
 20
3.690253
 30
0.0
 10
19.860893
 20
3.695747
 30
0.0
 10
19.860893
 20
3.695747
 30
0.0
  0
LWPOLYLINE
  5
120
100
AcDbEntity
  8
Layer_1
 62
7
100
AcDbPolyline
 90
14
 70
0
 10
18.718003
 20
3.668296
 30
0.0
 10
18.740331
 20
3.647438
 30
0.0
 10
18.740672
 20
3.618384
 30
0.0
 10
18.726780
 20
3.588441
 30
0.0
 10
18.706407
 20
3.564917
 30
0.0
 10
18.662574
 20
3.524746
 30
0.0
 10
18.636687
 20
3.510961
 30
0.0
 10
18.608422
 20
3.509160
 30
0.0
 10
18.616141
 20
3.547736
 30
0.0
 10
18.632117
 20
3.584671
 30
0.0
 10
18.677709
 20
3.651098
 30
0.0
 10
18.696256
 20
3.663849
 30
0.0
 10
18.718003
 20
3.668296
 30
0.0
 10
18.718003
 20
3.668296
 30
0.0
  0
LWPOLYLINE
  5
121
100
AcDbEntity
  8
Layer_1
 62
7
100
AcDbPolyline
 90
52
 70
0
 10
3.387052
 20
3.607056
 30
0.0
 10
3.445800
 20
3.601675
 30
0.0
 10
3.468194
 20
3.586129
 30
0.0
 10
3.478113
 20
3.557391
 30
0.0
 10
3.479353
 20
3.542736
 30
0.0
 10
3.470681
 20
3.534219
 30
0.0
 10
3.459510
 20
3.534642
 30
0.0
 10
3.453254
 20
3.546808
 30
0.0
 10
3.430076
 20
3.549584
 30
0.0
 10
3.409297
 20
3.536571
 30
0.0
 10
3.395046
 20
3.514461
 30
0.0
 10
3.391448
 20
3.489945
 30
0.0
 10
3.391836
 20
3.440458
 30
0.0
 10
3.385493
 20
3.422436
 30
0.0
 10
3.362561
 20
3.419956
 30
0.0
 10
3.229607
 20
3.412522
 30
0.0
 10
3.163172
 20
3.410839
 30
0.0
 10
3.097389
 20
3.417052
 30
0.0
 10
3.064513
 20
3.438557
 30
0.0
 10
3.024021
 20
3.442782
 30
0.0
 10
2.988381
 20
3.428299
 30
0.0
 10
2.970058
 20
3.393680
 30
0.0
 10
2.955452
 20
3.376254
 30
0.0
 10
2.932261
 20
3.370425
 30
0.0
 10
2.882360
 20
3.368655
 30
0.0
 10
2.858679
 20
3.375870
 30
0.0
 10
2.850967
 20
3.396757
 30
0.0
 10
2.855328
 20
3.422431
 30
0.0
 10
2.867863
 20
3.444007
 30
0.0
 10
2.879386
 20
3.503800
 30
0.0
 10
2.877066
 20
3.533833
 30
0.0
 10
2.864445
 20
3.560148
 30
0.0
 10
2.839966
 20
3.568229
 30
0.0
 10
2.814384
 20
3.567317
 30
0.0
 10
2.792238
 20
3.556537
 30
0.0
 10
2.778070
 20
3.535012
 30
0.0
 10
2.762316
 20
3.539721
 30
0.0
 10
2.750710
 20
3.556356
 30
0.0
 10
2.746247
 20
3.575592
 30
0.0
 10
2.751926
 20
3.588105
 30
0.0
 10
2.948592
 20
3.595029
 30
0.0
 10
3.145179
 20
3.589141
 30
0.0
 10
3.163156
 20
3.578663
 30
0.0
 10
3.175549
 20
3.560913
 30
0.0
 10
3.188605
 20
3.543565
 30
0.0
 10
3.208569
 20
3.534295
 30
0.0
 10
3.242725
 20
3.534791
 30
0.0
 10
3.270933
 20
3.551633
 30
0.0
 10
3.319253
 20
3.599724
 30
0.0
 10
3.352671
 20
3.606463
 30
0.0
 10
3.387052
 20
3.607056
 30
0.0
 10
3.387052
 20
3.607056
 30
0.0
  0
LWPOLYLINE
  5
122
100
AcDbEntity
  8
Layer_1
 62
7
100
AcDbPolyline
 90
10
 70
0
 10
3.508375
 20
3.505026
 30
0.0
 10
3.518798
 20
3.466469
 30
0.0
 10
3.515861
 20
3.445928
 30
0.0
 10
3.505731
 20
3.430777
 30
0.0
 10
3.495879
 20
3.445991
 30
0.0
 10
3.492736
 20
3.466503
 30
0.0
 10
3.503086
 20
3.505026
 30
0.0
 10
3.505731
 20
3.505413
 30
0.0
 10
3.508375
 20
3.505026
 30
0.0
 10
3.508375
 20
3.505026
 30
0.0
  0
LWPOLYLINE
  5
123
100
AcDbEntity
  8
Layer_1
 62
7
100
AcDbPolyline
 90
17
 70
0
 10
18.791039
 20
3.505139
 30
0.0
 10
18.815056
 20
3.489859
 30
0.0
 10
18.827272
 20
3.465745
 30
0.0
 10
18.841145
 20
3.411322
 30
0.0
 10
18.853355
 20
3.402635
 30
0.0
 10
18.859190
 20
3.388515
 30
0.0
 10
18.856167
 20
3.375422
 30
0.0
 10
18.841805
 20
3.369816
 30
0.0
 10
18.716652
 20
3.365996
 30
0.0
 10
18.593372
 20
3.357854
 30
0.0
 10
18.626634
 20
3.391354
 30
0.0
 10
18.666601
 20
3.417630
 30
0.0
 10
18.707478
 20
3.443247
 30
0.0
 10
18.743468
 20
3.474767
 30
0.0
 10
18.765074
 20
3.494120
 30
0.0
 10
18.791038
 20
3.505139
 30
0.0
 10
18.791039
 20
3.505139
 30
0.0
  0
LWPOLYLINE
  5
124
100
AcDbEntity
  8
Layer_1
 62
7
100
AcDbPolyline
 90
21
 70
0
 10
3.399785
 20
3.366068
 30
0.0
 10
3.429608
 20
3.364968
 30
0.0
 10
3.452371
 20
3.355650
 30
0.0
 10
3.385541
 20
3.325206
 30
0.0
 10
3.314574
 20
3.305201
 30
0.0
 10
3.169529
 20
3.276549
 30
0.0
 10
2.858489
 20
3.238603
 30
0.0
 10
2.701845
 20
3.230896
 30
0.0
 10
2.545016
 20
3.232894
 30
0.0
 10
2.501219
 20
3.242386
 30
0.0
 10
2.485423
 20
3.255641
 30
0.0
 10
2.482343
 20
3.276605
 30
0.0
 10
2.548916
 20
3.287553
 30
0.0
 10
2.616898
 20
3.289858
 30
0.0
 10
2.753265
 20
3.289614
 30
0.0
 10
2.952897
 20
3.290661
 30
0.0
 10
3.051623
 20
3.300677
 30
0.0
 10
3.147019
 20
3.329219
 30
0.0
 10
3.272191
 20
3.355905
 30
0.0
 10
3.399785
 20
3.366068
 30
0.0
 10
3.399785
 20
3.366068
 30
0.0
  0
LWPOLYLINE
  5
125
100
AcDbEntity
  8
Layer_1
 62
7
100
AcDbPolyline
 90
22
 70
0
 10
3.717230
 20
3.276881
 30
0.0
 10
3.739665
 20
3.272176
 30
0.0
 10
3.746641
 20
3.251975
 30
0.0
 10
3.746335
 20
3.202357
 30
0.0
 10
3.742188
 20
3.172692
 30
0.0
 10
3.716228
 20
3.160738
 30
0.0
 10
3.649663
 20
3.148722
 30
0.0
 10
3.142953
 20
3.042162
 30
0.0
 10
2.633541
 20
2.950672
 30
0.0
 10
2.603671
 20
2.952919
 30
0.0
 10
2.582326
 20
2.972214
 30
0.0
 10
2.569928
 20
3.000554
 30
0.0
 10
2.566899
 20
3.029936
 30
0.0
 10
2.608023
 20
3.047187
 30
0.0
 10
2.652953
 20
3.054469
 30
0.0
 10
2.744266
 20
3.063997
 30
0.0
 10
2.904344
 20
3.091983
 30
0.0
 10
3.062891
 20
3.127836
 30
0.0
 10
3.380438
 20
3.197175
 30
0.0
 10
3.548689
 20
3.238379
 30
0.0
 10
3.717230
 20
3.276881
 30
0.0
 10
3.717230
 20
3.276881
 30
0.0
  0
LWPOLYLINE
  5
126
100
AcDbEntity
  8
Layer_1
 62
7
100
AcDbPolyline
 90
18
 70
0
 10
3.801787
 20
3.003643
 30
0.0
 10
3.810935
 20
2.961086
 30
0.0
 10
3.804494
 20
2.942824
 30
0.0
 10
3.784203
 20
2.935238
 30
0.0
 10
3.399449
 20
2.887899
 30
0.0
 10
3.013863
 20
2.846398
 30
0.0
 10
2.846529
 20
2.825753
 30
0.0
 10
2.679016
 20
2.809450
 30
0.0
 10
2.659728
 20
2.813498
 30
0.0
 10
2.662676
 20
2.820787
 30
0.0
 10
2.695127
 20
2.832264
 30
0.0
 10
2.855712
 20
2.861262
 30
0.0
 10
3.017837
 20
2.881074
 30
0.0
 10
3.180205
 20
2.899979
 30
0.0
 10
3.341521
 20
2.926256
 30
0.0
 10
3.571308
 20
2.968184
 30
0.0
 10
3.801787
 20
3.003643
 30
0.0
 10
3.801787
 20
3.003643
 30
0.0
  0
LWPOLYLINE
  5
127
100
AcDbEntity
  8
Layer_1
 62
7
100
AcDbPolyline
 90
45
 70
0
 10
3.616083
 20
2.665638
 30
0.0
 10
3.672202
 20
2.629628
 30
0.0
 10
3.726719
 20
2.589183
 30
0.0
 10
3.784331
 20
2.555551
 30
0.0
 10
3.849733
 20
2.539979
 30
0.0
 10
3.881241
 20
2.540671
 30
0.0
 10
3.911709
 20
2.550991
 30
0.0
 10
3.941536
 20
2.559494
 30
0.0
 10
3.971120
 20
2.554734
 30
0.0
 10
3.988768
 20
2.502962
 30
0.0
 10
3.986746
 20
2.475183
 30
0.0
 10
3.975695
 20
2.451215
 30
0.0
 10
3.855764
 20
2.408398
 30
0.0
 10
3.731417
 20
2.381288
 30
0.0
 10
3.478803
 20
2.342732
 30
0.0
 10
3.001763
 20
2.278229
 30
0.0
 10
2.762408
 20
2.255836
 30
0.0
 10
2.522000
 20
2.250783
 30
0.0
 10
2.496909
 20
2.260099
 30
0.0
 10
2.490536
 20
2.284495
 30
0.0
 10
2.497229
 20
2.341695
 30
0.0
 10
2.506064
 20
2.400252
 30
0.0
 10
2.522727
 20
2.415727
 30
0.0
 10
2.555269
 20
2.413354
 30
0.0
 10
2.713651
 20
2.417431
 30
0.0
 10
2.789867
 20
2.434658
 30
0.0
 10
2.858768
 20
2.473484
 30
0.0
 10
2.946142
 20
2.542143
 30
0.0
 10
2.984722
 20
2.581706
 30
0.0
 10
3.015864
 20
2.626833
 30
0.0
 10
3.038437
 20
2.618487
 30
0.0
 10
3.055826
 20
2.599975
 30
0.0
 10
3.091802
 20
2.562371
 30
0.0
 10
3.143550
 20
2.522692
 30
0.0
 10
3.199588
 20
2.488551
 30
0.0
 10
3.260179
 20
2.466822
 30
0.0
 10
3.325588
 20
2.464377
 30
0.0
 10
3.409721
 20
2.478977
 30
0.0
 10
3.485730
 20
2.517430
 30
0.0
 10
3.551164
 20
2.573430
 30
0.0
 10
3.603570
 20
2.640668
 30
0.0
 10
3.607458
 20
2.657054
 30
0.0
 10
3.609211
 20
2.664546
 30
0.0
 10
3.616083
 20
2.665638
 30
0.0
 10
3.616083
 20
2.665638
 30
0.0
  0
ENDSEC
  0
SECTION
  2
OBJECTS
  0
DICTIONARY
  5
C
330
0
100
AcDbDictionary
  3
ACAD_GROUP
350
D
  3
ACAD_MLINESTYLE
350
17
  0
DICTIONARY
  5
D
330
C
100
AcDbDictionary
  0
DICTIONARY
  5
1A
330
C
100
AcDbDictionary
  0
DICTIONARY
  5
17
330
C
100
AcDbDictionary
  3
STANDARD
350
18
  0
DICTIONARY
  5
19
330
C
100
AcDbDictionary
  0
ENDSEC
  0
EOF
