  0
SECTION
  2
HEADER
  9
$ACADVER
  1
AC1014
  9
$HANDSEED
  5
FFFF
  9
$MEASUREMENT
 70
     1
  0
ENDSEC
  0
SECTION
  2
TABLES
  0
TABLE
  2
VPORT
  5
8
330
0
100
AcDbSymbolTable
 70
     4
  0
VPORT
  5
2E
330
8
100
AcDbSymbolTableRecord
100
AcDbViewportTableRecord
  2
*ACTIVE
 70
     0
 10
0.0
 20
0.0
 11
1.0
 21
1.0
 12
210.0
 22
148.5
 13
0.0
 23
0.0
 14
10.0
 24
10.0
 15
10.0
 25
10.0
 16
0.0
 26
0.0
 36
1.0
 17
0.0
 27
0.0
 37
0.0
 40
341.0
 41
1.24
 42
50.0
 43
0.0
 44
0.0
 50
0.0
 51
0.0
 71
     0
 72
   100
 73
     1
 74
     3
 75
     0
 76
     0
 77
     0
 78
     0
  0
ENDTAB
  0
TABLE
  2
LTYPE
  5
5
330
0
100
AcDbSymbolTable
 70
     1
  0
LTYPE
  5
14
330
5
100
AcDbSymbolTableRecord
100
AcDbLinetypeTableRecord
  2
BYBLOCK
 70
     0
  3

 72
    65
 73
     0
 40
0.0
  0
LTYPE
  5
15
330
5
100
AcDbSymbolTableRecord
100
AcDbLinetypeTableRecord
  2
BYLAYER
 70
     0
  3

 72
    65
 73
     0
 40
0.0
  0
LTYPE
  5
16
330
5
100
AcDbSymbolTableRecord
100
AcDbLinetypeTableRecord
  2
CONTINUOUS
 70
     0
  3
Solid line
 72
    65
 73
     0
 40
0.0
  0
ENDTAB
  0
TABLE
  2
LAYER
  5
2
100
AcDbSymbolTable
 70
2
  0
LAYER
  5
50
100
AcDbSymbolTableRecord
100
AcDbLayerTableRecord
  2
0
 70
0
  6
CONTINUOUS
  0
LAYER
  5
51
100
AcDbSymbolTableRecord
100
AcDbLayerTableRecord
  2
Layer_1
 70
0
  6
CONTINUOUS
  0
ENDTAB
  0
TABLE
  2
STYLE
  5
3
330
0
100
AcDbSymbolTable
 70
     1
  0
STYLE
  5
11
330
3
100
AcDbSymbolTableRecord
100
AcDbTextStyleTableRecord
  2
STANDARD
 70
     0
 40
0.0
 41
1.0
 50
0.0
 71
     0
 42
2.5
  3
txt
  4

  0
ENDTAB
  0
TABLE
  2
VIEW
  5
6
330
0
100
AcDbSymbolTable
 70
     0
  0
ENDTAB
  0
TABLE
  2
UCS
  5
7
330
0
100
AcDbSymbolTable
 70
     0
  0
ENDTAB
  0
TABLE
  2
APPID
  5
9
330
0
100
AcDbSymbolTable
 70
     2
  0
APPID
  5
12
330
9
100
AcDbSymbolTableRecord
100
AcDbRegAppTableRecord
  2
ACAD
 70
     0
  0
ENDTAB
  0
TABLE
  2
DIMSTYLE
  5
A
330
0
100
AcDbSymbolTable
 70
     1
  0
DIMSTYLE
105
27
330
A
100
AcDbSymbolTableRecord
100
AcDbDimStyleTableRecord
  2
ISO-25
 70
     0
  3

  4

  5

  6

  7

 40
1.0
 41
2.5
 42
0.625
 43
3.75
 44
1.25
 45
0.0
 46
0.0
 47
0.0
 48
0.0
140
2.5
141
2.5
142
0.0
143
0.03937007874016
144
1.0
145
0.0
146
1.0
147
0.625
 71
     0
 72
     0
 73
     0
 74
     0
 75
     0
 76
     0
 77
     1
 78
     8
170
     0
171
     3
172
     1
173
     0
174
     0
175
     0
176
     0
177
     0
178
     0
270
     2
271
     2
272
     2
273
     2
274
     3
340
11
275
     0
280
     0
281
     0
282
     0
283
     0
284
     8
285
     0
286
     0
287
     3
288
     0
  0
ENDTAB
  0
TABLE
  2
BLOCK_RECORD
  5
1
330
0
100
AcDbSymbolTable
 70
     1
  0
BLOCK_RECORD
  5
1F
330
1
100
AcDbSymbolTableRecord
100
AcDbBlockTableRecord
  2
*MODEL_SPACE
  0
BLOCK_RECORD
  5
1B
330
1
100
AcDbSymbolTableRecord
100
AcDbBlockTableRecord
  2
*PAPER_SPACE
  0
ENDTAB
  0
ENDSEC
  0
SECTION
  2
BLOCKS
  0
BLOCK
  5
20
330
1F
100
AcDbEntity
  8
0
100
AcDbBlockBegin
  2
*MODEL_SPACE
 70
     0
 10
0.0
 20
0.0
 30
0.0
  3
*MODEL_SPACE
  1

  0
ENDBLK
  5
21
330
1F
100
AcDbEntity
  8
0
100
AcDbBlockEnd
  0
BLOCK
  5
1C
330
1B
100
AcDbEntity
 67
     1
  8
0
100
AcDbBlockBegin
  2
*PAPER_SPACE
  1

  0
ENDBLK
  5
1D
330
1B
100
AcDbEntity
 67
     1
  8
0
100
AcDbBlockEnd
  0
ENDSEC
  0
SECTION
  2
ENTITIES
  0
LWPOLYLINE
  5
100
100
AcDbEntity
  8
Layer_1
 62
7
100
AcDbPolyline
 90
332
 70
0
 10
5.052329
 20
14.730702
 30
0.0
 10
5.026983
 20
14.725521
 30
0.0
 10
5.012362
 20
14.706006
 30
0.0
 10
5.011124
 20
14.681090
 30
0.0
 10
5.025926
 20
14.659706
 30
0.0
 10
5.040353
 20
14.582102
 30
0.0
 10
5.039548
 20
14.502272
 30
0.0
 10
5.013158
 20
14.404539
 30
0.0
 10
4.998845
 20
14.356221
 30
0.0
 10
4.973445
 20
14.312444
 30
0.0
 10
4.917630
 20
14.212171
 30
0.0
 10
4.881157
 20
14.169060
 30
0.0
 10
4.833001
 20
14.137980
 30
0.0
 10
4.811270
 20
14.102588
 30
0.0
 10
4.813339
 20
14.082622
 30
0.0
 10
4.827764
 20
14.067370
 30
0.0
 10
4.833305
 20
14.026316
 30
0.0
 10
4.821430
 20
13.986197
 30
0.0
 10
4.798046
 20
13.950642
 30
0.0
 10
4.769060
 20
13.923282
 30
0.0
 10
4.763406
 20
13.939893
 30
0.0
 10
4.751155
 20
13.949190
 30
0.0
 10
4.736128
 20
13.949291
 30
0.0
 10
4.722151
 20
13.938313
 30
0.0
 10
4.701317
 20
13.922485
 30
0.0
 10
4.685336
 20
13.900094
 30
0.0
 10
4.681809
 20
13.876201
 30
0.0
 10
4.698339
 20
13.855868
 30
0.0
 10
4.706662
 20
13.837754
 30
0.0
 10
4.696095
 20
13.820242
 30
0.0
 10
4.665042
 20
13.787552
 30
0.0
 10
4.566453
 20
13.686919
 30
0.0
 10
4.509183
 20
13.647483
 30
0.0
 10
4.442740
 20
13.626012
 30
0.0
 10
4.426232
 20
13.614292
 30
0.0
 10
4.417260
 20
13.596884
 30
0.0
 10
4.408859
 20
13.578663
 30
0.0
 10
4.394060
 20
13.564505
 30
0.0
 10
4.244054
 20
13.448123
 30
0.0
 10
4.096184
 20
13.328310
 30
0.0
 10
4.028869
 20
13.281529
 30
0.0
 10
3.951442
 20
13.255981
 30
0.0
 10
3.934641
 20
13.248483
 30
0.0
 10
3.922765
 20
13.235734
 30
0.0
 10
3.899187
 20
13.210726
 30
0.0
 10
3.888818
 20
13.185105
 30
0.0
 10
3.867568
 20
13.168433
 30
0.0
 10
3.630966
 20
12.982413
 30
0.0
 10
3.581462
 20
12.951663
 30
0.0
 10
3.555276
 20
12.940746
 30
0.0
 10
3.525573
 20
12.938315
 30
0.0
 10
3.491159
 20
12.925830
 30
0.0
 10
3.466414
 20
12.899409
 30
0.0
 10
3.443564
 20
12.869469
 30
0.0
 10
3.414834
 20
12.846428
 30
0.0
 10
3.232983
 20
12.752845
 30
0.0
 10
3.046483
 20
12.667152
 30
0.0
 10
2.607028
 20
12.468294
 30
0.0
 10
2.542345
 20
12.460418
 30
0.0
 10
2.509879
 20
12.458603
 30
0.0
 10
2.479532
 20
12.449718
 30
0.0
 10
2.464680
 20
12.416837
 30
0.0
 10
2.454925
 20
12.403366
 30
0.0
 10
2.436826
 20
12.397310
 30
0.0
 10
2.246527
 20
12.335112
 30
0.0
 10
2.150556
 20
12.306699
 30
0.0
 10
2.056808
 20
12.271869
 30
0.0
 10
1.930459
 20
12.239792
 30
0.0
 10
1.867781
 20
12.222727
 30
0.0
 10
1.807600
 20
12.198584
 30
0.0
 10
1.750101
 20
12.184132
 30
0.0
 10
1.695098
 20
12.161929
 30
0.0
 10
1.570472
 20
12.124779
 30
0.0
 10
1.443003
 20
12.098560
 30
0.0
 10
1.315419
 20
12.072456
 30
0.0
 10
1.190448
 20
12.035654
 30
0.0
 10
0.936913
 20
11.972352
 30
0.0
 10
0.684283
 20
11.906230
 30
0.0
 10
0.559884
 20
11.878419
 30
0.0
 10
0.434000
 20
11.858863
 30
0.0
 10
0.307993
 20
11.840196
 30
0.0
 10
0.183224
 20
11.815049
 30
0.0
 10
0.157538
 20
11.801096
 30
0.0
 10
0.145321
 20
11.774262
 30
0.0
 10
0.150002
 20
11.747427
 30
0.0
 10
0.175011
 20
11.733469
 30
0.0
 10
0.253055
 20
11.746434
 30
0.0
 10
0.329682
 20
11.766838
 30
0.0
 10
0.406506
 20
11.785050
 30
0.0
 10
0.485139
 20
11.791439
 30
0.0
 10
0.516447
 20
11.791418
 30
0.0
 10
0.522227
 20
11.783598
 30
0.0
 10
0.511032
 20
11.769408
 30
0.0
 10
0.498447
 20
11.739947
 30
0.0
 10
0.492724
 20
11.708080
 30
0.0
 10
0.485345
 20
11.643346
 30
0.0
 10
0.407755
 20
11.656365
 30
0.0
 10
0.332828
 20
11.680216
 30
0.0
 10
0.258436
 20
11.706247
 30
0.0
 10
0.182452
 20
11.725807
 30
0.0
 10
0.154681
 20
11.719031
 30
0.0
 10
0.145461
 20
11.693566
 30
0.0
 10
0.152007
 20
11.662973
 30
0.0
 10
0.171538
 20
11.640810
 30
0.0
 10
0.260834
 20
11.611184
 30
0.0
 10
0.348301
 20
11.574865
 30
0.0
 10
0.483775
 20
11.526766
 30
0.0
 10
0.551816
 20
11.503399
 30
0.0
 10
0.622154
 20
11.486987
 30
0.0
 10
0.936647
 20
11.374952
 30
0.0
 10
1.072626
 20
11.319502
 30
0.0
 10
1.207217
 20
11.261849
 30
0.0
 10
1.237896
 20
11.272346
 30
0.0
 10
1.254625
 20
11.298372
 30
0.0
 10
1.261295
 20
11.363734
 30
0.0
 10
1.273032
 20
11.425226
 30
0.0
 10
1.296573
 20
11.482790
 30
0.0
 10
1.311137
 20
11.585358
 30
0.0
 10
1.318805
 20
11.689061
 30
0.0
 10
1.329067
 20
11.791930
 30
0.0
 10
1.351415
 20
11.891999
 30
0.0
 10
1.370873
 20
11.956763
 30
0.0
 10
1.384236
 20
11.986111
 30
0.0
 10
1.412489
 20
12.005053
 30
0.0
 10
1.508959
 20
12.037886
 30
0.0
 10
1.609604
 20
12.054607
 30
0.0
 10
1.651273
 20
12.022129
 30
0.0
 10
1.698596
 20
11.998420
 30
0.0
 10
1.795672
 20
11.954774
 30
0.0
 10
1.988234
 20
11.887368
 30
0.0
 10
2.096296
 20
11.848631
 30
0.0
 10
2.150483
 20
11.830543
 30
0.0
 10
2.207836
 20
11.825230
 30
0.0
 10
2.276727
 20
11.810051
 30
0.0
 10
2.343062
 20
11.786481
 30
0.0
 10
2.468728
 20
11.722996
 30
0.0
 10
2.565114
 20
11.699676
 30
0.0
 10
2.659219
 20
11.667651
 30
0.0
 10
2.756762
 20
11.631739
 30
0.0
 10
2.856122
 20
11.605257
 30
0.0
 10
2.881663
 20
11.633549
 30
0.0
 10
2.888966
 20
11.670975
 30
0.0
 10
2.879108
 20
11.749234
 30
0.0
 10
2.846473
 20
11.846317
 30
0.0
 10
2.826230
 20
11.946312
 30
0.0
 10
2.793180
 20
12.099475
 30
0.0
 10
2.784248
 20
12.255745
 30
0.0
 10
2.789795
 20
12.368030
 30
0.0
 10
2.803371
 20
12.479704
 30
0.0
 10
3.038023
 20
12.578537
 30
0.0
 10
3.123684
 20
12.538147
 30
0.0
 10
3.214303
 20
12.510644
 30
0.0
 10
3.400510
 20
12.473267
 30
0.0
 10
3.424070
 20
12.465083
 30
0.0
 10
3.435621
 20
12.444256
 30
0.0
 10
3.446068
 20
12.421229
 30
0.0
 10
3.466318
 20
12.406448
 30
0.0
 10
3.503985
 20
12.400612
 30
0.0
 10
3.540869
 20
12.407405
 30
0.0
 10
3.612610
 20
12.432190
 30
0.0
 10
3.757249
 20
12.399833
 30
0.0
 10
3.788455
 20
12.389432
 30
0.0
 10
3.815256
 20
12.371690
 30
0.0
 10
3.865287
 20
12.330546
 30
0.0
 10
3.887107
 20
12.323683
 30
0.0
 10
3.908497
 20
12.326901
 30
0.0
 10
3.947859
 20
12.346365
 30
0.0
 10
4.006671
 20
12.353372
 30
0.0
 10
4.065228
 20
12.347717
 30
0.0
 10
4.176503
 20
12.309379
 30
0.0
 10
4.229833
 20
12.322489
 30
0.0
 10
4.256155
 20
12.327966
 30
0.0
 10
4.283444
 20
12.322193
 30
0.0
 10
4.433069
 20
12.298090
 30
0.0
 10
4.508364
 20
12.293741
 30
0.0
 10
4.582551
 20
12.302623
 30
0.0
 10
4.595944
 20
12.329585
 30
0.0
 10
4.590011
 20
12.359188
 30
0.0
 10
4.561801
 20
12.416461
 30
0.0
 10
4.528427
 20
12.460460
 30
0.0
 10
4.502941
 20
12.508850
 30
0.0
 10
4.460257
 20
12.580372
 30
0.0
 10
4.409723
 20
12.646447
 30
0.0
 10
4.290418
 20
12.792020
 30
0.0
 10
4.264365
 20
12.833642
 30
0.0
 10
4.236641
 20
12.871177
 30
0.0
 10
4.199867
 20
12.919102
 30
0.0
 10
4.162558
 20
12.967750
 30
0.0
 10
4.132175
 20
13.003285
 30
0.0
 10
4.108098
 20
13.042330
 30
0.0
 10
4.126453
 20
13.042141
 30
0.0
 10
4.140504
 20
13.051581
 30
0.0
 10
4.146399
 20
13.066924
 30
0.0
 10
4.140288
 20
13.084443
 30
0.0
 10
4.126570
 20
13.120235
 30
0.0
 10
4.110950
 20
13.128898
 30
0.0
 10
4.091286
 20
13.125122
 30
0.0
 10
4.074491
 20
13.123804
 30
0.0
 10
4.068014
 20
13.135358
 30
0.0
 10
4.065378
 20
13.168613
 30
0.0
 10
4.078311
 20
13.206314
 30
0.0
 10
4.104376
 20
13.235059
 30
0.0
 10
4.172590
 20
13.275935
 30
0.0
 10
4.254355
 20
13.346623
 30
0.0
 10
4.338561
 20
13.409494
 30
0.0
 10
4.343268
 20
13.382942
 30
0.0
 10
4.362978
 20
13.367658
 30
0.0
 10
4.415962
 20
13.356315
 30
0.0
 10
4.602003
 20
13.323160
 30
0.0
 10
4.790448
 20
13.308657
 30
0.0
 10
4.874327
 20
13.299700
 30
0.0
 10
4.957403
 20
13.285855
 30
0.0
 10
5.029913
 20
13.284927
 30
0.0
 10
5.101545
 20
13.273669
 30
0.0
 10
5.173028
 20
13.260162
 30
0.0
 10
5.245093
 20
13.252488
 30
0.0
 10
5.484539
 20
13.222065
 30
0.0
 10
5.604751
 20
13.217892
 30
0.0
 10
5.724647
 20
13.230129
 30
0.0
 10
5.788294
 20
13.234529
 30
0.0
 10
5.818755
 20
13.241387
 30
0.0
 10
5.842772
 20
13.259564
 30
0.0
 10
5.839825
 20
13.288852
 30
0.0
 10
5.823083
 20
13.313956
 30
0.0
 10
5.782193
 20
13.360712
 30
0.0
 10
5.624037
 20
13.520738
 30
0.0
 10
5.462433
 20
13.676558
 30
0.0
 10
5.446096
 20
13.717407
 30
0.0
 10
5.430083
 20
13.730323
 30
0.0
 10
5.407312
 20
13.732562
 30
0.0
 10
5.363107
 20
13.754017
 30
0.0
 10
5.324797
 20
13.785292
 30
0.0
 10
5.286909
 20
13.817722
 30
0.0
 10
5.243972
 20
13.842640
 30
0.0
 10
5.198999
 20
13.869379
 30
0.0
 10
5.162186
 20
13.903604
 30
0.0
 10
5.174961
 20
13.919249
 30
0.0
 10
5.171943
 20
13.937904
 30
0.0
 10
5.157860
 20
13.950597
 30
0.0
 10
5.137437
 20
13.948362
 30
0.0
 10
5.100895
 20
13.952885
 30
0.0
 10
5.070168
 20
13.972499
 30
0.0
 10
5.016170
 20
14.024706
 30
0.0
 10
5.002089
 20
14.055608
 30
0.0
 10
5.000925
 20
14.089727
 30
0.0
 10
5.018870
 20
14.156612
 30
0.0
 10
5.030227
 20
14.177111
 30
0.0
 10
5.041581
 20
14.195582
 30
0.0
 10
5.058258
 20
14.238531
 30
0.0
 10
5.067938
 20
14.258808
 30
0.0
 10
5.084300
 20
14.274792
 30
0.0
 10
5.099079
 20
14.310882
 30
0.0
 10
5.111318
 20
14.322661
 30
0.0
 10
5.131207
 20
14.322194
 30
0.0
 10
5.537502
 20
14.319709
 30
0.0
 10
5.740202
 20
14.330291
 30
0.0
 10
5.941845
 20
14.355049
 30
0.0
 10
6.126483
 20
14.381383
 30
0.0
 10
6.219155
 20
14.385645
 30
0.0
 10
6.311581
 20
14.375499
 30
0.0
 10
6.341736
 20
14.380698
 30
0.0
 10
6.365685
 20
14.398807
 30
0.0
 10
6.389493
 20
14.417587
 30
0.0
 10
6.419223
 20
14.424799
 30
0.0
 10
6.528754
 20
14.427491
 30
0.0
 10
6.637018
 20
14.440487
 30
0.0
 10
6.665671
 20
14.460500
 30
0.0
 10
6.674277
 20
14.492265
 30
0.0
 10
6.664723
 20
14.525150
 30
0.0
 10
6.638892
 20
14.548526
 30
0.0
 10
6.464009
 20
14.635386
 30
0.0
 10
6.376454
 20
14.678756
 30
0.0
 10
6.286247
 20
14.715561
 30
0.0
 10
6.169383
 20
14.729099
 30
0.0
 10
6.051627
 20
14.724970
 30
0.0
 10
6.257647
 20
14.638978
 30
0.0
 10
6.459762
 20
14.544239
 30
0.0
 10
6.501693
 20
14.522389
 30
0.0
 10
6.520194
 20
14.511167
 30
0.0
 10
6.525438
 20
14.501945
 30
0.0
 10
6.303202
 20
14.482049
 30
0.0
 10
6.236385
 20
14.509353
 30
0.0
 10
6.177561
 20
14.551691
 30
0.0
 10
6.121404
 20
14.599103
 30
0.0
 10
6.062590
 20
14.641633
 30
0.0
 10
5.967292
 20
14.697633
 30
0.0
 10
5.916162
 20
14.718136
 30
0.0
 10
5.862505
 20
14.729048
 30
0.0
 10
5.844817
 20
14.726072
 30
0.0
 10
5.833339
 20
14.714272
 30
0.0
 10
5.832310
 20
14.699505
 30
0.0
 10
5.845968
 20
14.687626
 30
0.0
 10
5.942043
 20
14.620614
 30
0.0
 10
5.989416
 20
14.586522
 30
0.0
 10
6.039721
 20
14.558613
 30
0.0
 10
6.069026
 20
14.527671
 30
0.0
 10
6.103555
 20
14.502341
 30
0.0
 10
6.171737
 20
14.450134
 30
0.0
 10
6.077185
 20
14.439290
 30
0.0
 10
6.030098
 20
14.433932
 30
0.0
 10
5.983442
 20
14.435582
 30
0.0
 10
5.892897
 20
14.471815
 30
0.0
 10
5.847616
 20
14.489526
 30
0.0
 10
5.804833
 20
14.513632
 30
0.0
 10
5.500149
 20
14.709017
 30
0.0
 10
5.469701
 20
14.724544
 30
0.0
 10
5.435455
 20
14.730372
 30
0.0
 10
5.365199
 20
14.727340
 30
0.0
 10
5.340143
 20
14.719288
 30
0.0
 10
5.335654
 20
14.711600
 30
0.0
 10
5.343646
 20
14.700440
 30
0.0
 10
5.401518
 20
14.671971
 30
0.0
 10
5.457527
 20
14.639972
 30
0.0
 10
5.547823
 20
14.585175
 30
0.0
 10
5.634302
 20
14.526036
 30
0.0
 10
5.729396
 20
14.468871
 30
0.0
 10
5.775936
 20
14.439018
 30
0.0
 10
5.816920
 20
14.402509
 30
0.0
 10
5.711224
 20
14.392155
 30
0.0
 10
5.605804
 20
14.394571
 30
0.0
 10
5.556256
 20
14.459494
 30
0.0
 10
5.524302
 20
14.484841
 30
0.0
 10
5.488726
 20
14.502223
 30
0.0
 10
5.439049
 20
14.509319
 30
0.0
 10
5.396350
 20
14.533098
 30
0.0
 10
5.321212
 20
14.598851
 30
0.0
 10
5.263858
 20
14.623529
 30
0.0
 10
5.213752
 20
14.661263
 30
0.0
 10
5.158431
 20
14.693578
 30
0.0
 10
5.101332
 20
14.722654
 30
0.0
 10
5.052329
 20
14.730702
 30
0.0
 10
5.052329
 20
14.730702
 30
0.0
  0
LWPOLYLINE
  5
101
100
AcDbEntity
  8
Layer_1
 62
7
100
AcDbPolyline
 90
285
 70
0
 10
14.037965
 20
14.730759
 30
0.0
 10
13.947830
 20
14.722386
 30
0.0
 10
13.905631
 20
14.708738
 30
0.0
 10
13.870947
 20
14.680764
 30
0.0
 10
13.829436
 20
14.668643
 30
0.0
 10
13.790959
 20
14.648224
 30
0.0
 10
13.714105
 20
14.606204
 30
0.0
 10
13.441040
 20
14.472235
 30
0.0
 10
13.173696
 20
14.328676
 30
0.0
 10
13.020824
 20
14.247453
 30
0.0
 10
12.876830
 20
14.152754
 30
0.0
 10
12.821446
 20
14.118265
 30
0.0
 10
12.764933
 20
14.085782
 30
0.0
 10
12.742642
 20
14.070140
 30
0.0
 10
12.731522
 20
14.045292
 30
0.0
 10
12.735647
 20
14.021024
 30
0.0
 10
12.759091
 20
14.007123
 30
0.0
 10
12.923125
 20
14.015772
 30
0.0
 10
13.513070
 20
14.019840
 30
0.0
 10
13.807998
 20
14.023012
 30
0.0
 10
14.102689
 20
14.036363
 30
0.0
 10
14.215572
 20
14.045549
 30
0.0
 10
14.324762
 20
14.069797
 30
0.0
 10
14.351539
 20
14.067785
 30
0.0
 10
14.372975
 20
14.049605
 30
0.0
 10
14.411248
 20
14.004312
 30
0.0
 10
14.472546
 20
13.936080
 30
0.0
 10
14.528161
 20
13.863311
 30
0.0
 10
14.468865
 20
13.819595
 30
0.0
 10
14.427013
 20
13.759132
 30
0.0
 10
14.365641
 20
13.686495
 30
0.0
 10
14.311983
 20
13.608996
 30
0.0
 10
14.302204
 20
13.578183
 30
0.0
 10
14.285896
 20
13.551228
 30
0.0
 10
14.256906
 20
13.495013
 30
0.0
 10
14.236209
 20
13.470187
 30
0.0
 10
14.225431
 20
13.438936
 30
0.0
 10
14.198667
 20
13.394930
 30
0.0
 10
14.178415
 20
13.347264
 30
0.0
 10
14.161280
 20
13.301497
 30
0.0
 10
14.135526
 20
13.260465
 30
0.0
 10
14.079353
 20
13.180462
 30
0.0
 10
14.049543
 20
13.147406
 30
0.0
 10
14.011918
 20
13.122959
 30
0.0
 10
13.974375
 20
13.098809
 30
0.0
 10
13.944810
 20
13.066640
 30
0.0
 10
13.961265
 20
13.042062
 30
0.0
 10
13.986105
 20
13.022398
 30
0.0
 10
14.046729
 20
13.003856
 30
0.0
 10
14.517426
 20
13.034311
 30
0.0
 10
14.988506
 20
13.062603
 30
0.0
 10
15.190260
 20
13.071434
 30
0.0
 10
15.291002
 20
13.072048
 30
0.0
 10
15.390262
 20
13.064932
 30
0.0
 10
15.407062
 20
13.052211
 30
0.0
 10
15.427293
 20
13.044490
 30
0.0
 10
15.446096
 20
13.035524
 30
0.0
 10
15.458612
 20
13.019071
 30
0.0
 10
15.560837
 20
12.966795
 30
0.0
 10
15.655672
 20
12.902488
 30
0.0
 10
15.610739
 20
12.891267
 30
0.0
 10
15.594552
 20
12.878252
 30
0.0
 10
15.592888
 20
12.855415
 30
0.0
 10
15.599445
 20
12.766823
 30
0.0
 10
15.599032
 20
12.722519
 30
0.0
 10
15.591014
 20
12.680294
 30
0.0
 10
15.577501
 20
12.655577
 30
0.0
 10
15.573058
 20
12.627206
 30
0.0
 10
15.567999
 20
12.599103
 30
0.0
 10
15.552640
 20
12.575191
 30
0.0
 10
15.525809
 20
12.490910
 30
0.0
 10
15.503502
 20
12.405023
 30
0.0
 10
15.473231
 20
12.323353
 30
0.0
 10
15.422508
 20
12.251724
 30
0.0
 10
15.387975
 20
12.204215
 30
0.0
 10
15.367653
 20
12.184402
 30
0.0
 10
15.340432
 20
12.172459
 30
0.0
 10
15.317584
 20
12.147138
 30
0.0
 10
15.318877
 20
12.113465
 30
0.0
 10
15.338168
 20
12.083147
 30
0.0
 10
15.369316
 20
12.067893
 30
0.0
 10
15.424442
 20
12.066613
 30
0.0
 10
15.479628
 20
12.072927
 30
0.0
 10
15.589824
 20
12.088229
 30
0.0
 10
15.899193
 20
12.130312
 30
0.0
 10
16.210029
 20
12.157025
 30
0.0
 10
16.557044
 20
12.205306
 30
0.0
 10
16.730744
 20
12.224542
 30
0.0
 10
16.905483
 20
12.230592
 30
0.0
 10
16.959540
 20
12.235660
 30
0.0
 10
16.985430
 20
12.242031
 30
0.0
 10
17.007031
 20
12.255472
 30
0.0
 10
17.009939
 20
12.269077
 30
0.0
 10
17.006367
 20
12.281356
 30
0.0
 10
17.007084
 20
12.286909
 30
0.0
 10
17.022856
 20
12.280336
 30
0.0
 10
17.334351
 20
12.189657
 30
0.0
 10
17.642951
 20
12.090623
 30
0.0
 10
17.939853
 20
11.991109
 30
0.0
 10
18.282659
 20
11.898912
 30
0.0
 10
18.453895
 20
11.852577
 30
0.0
 10
18.622313
 20
11.796971
 30
0.0
 10
18.507384
 20
11.766254
 30
0.0
 10
18.395501
 20
11.725456
 30
0.0
 10
18.173676
 20
11.638004
 30
0.0
 10
17.896385
 20
11.524397
 30
0.0
 10
17.754408
 20
11.478579
 30
0.0
 10
17.607538
 20
11.451537
 30
0.0
 10
17.553238
 20
11.443988
 30
0.0
 10
17.530423
 20
11.451039
 30
0.0
 10
17.521977
 20
11.475502
 30
0.0
 10
17.513268
 20
11.552287
 30
0.0
 10
17.560310
 20
11.522293
 30
0.0
 10
17.614752
 20
11.515779
 30
0.0
 10
17.726478
 20
11.529466
 30
0.0
 10
17.761120
 20
11.545027
 30
0.0
 10
17.768277
 20
11.560382
 30
0.0
 10
17.759716
 20
11.577091
 30
0.0
 10
17.650227
 20
11.634010
 30
0.0
 10
17.592355
 20
11.652827
 30
0.0
 10
17.562364
 20
11.653608
 30
0.0
 10
17.531568
 20
11.646269
 30
0.0
 10
17.512923
 20
11.626261
 30
0.0
 10
17.496180
 20
11.605589
 30
0.0
 10
17.489424
 20
11.640897
 30
0.0
 10
17.486671
 20
11.689204
 30
0.0
 10
17.484553
 20
11.735442
 30
0.0
 10
17.487857
 20
11.768914
 30
0.0
 10
17.529776
 20
11.744677
 30
0.0
 10
17.576786
 20
11.734290
 30
0.0
 10
17.674057
 20
11.726305
 30
0.0
 10
17.673356
 20
11.815531
 30
0.0
 10
17.663562
 20
11.857151
 30
0.0
 10
17.632661
 20
11.887812
 30
0.0
 10
17.596039
 20
11.895204
 30
0.0
 10
17.558876
 20
11.893721
 30
0.0
 10
17.484439
 20
11.890733
 30
0.0
 10
17.480144
 20
11.920874
 30
0.0
 10
17.466084
 20
11.947563
 30
0.0
 10
17.526863
 20
11.952027
 30
0.0
 10
17.588172
 20
11.949485
 30
0.0
 10
17.649511
 20
11.947442
 30
0.0
 10
17.710382
 20
11.953406
 30
0.0
 10
17.730269
 20
11.960983
 30
0.0
 10
17.744793
 20
11.976437
 30
0.0
 10
17.747789
 20
11.994404
 30
0.0
 10
17.733092
 20
12.009520
 30
0.0
 10
17.705425
 20
12.020038
 30
0.0
 10
17.681791
 20
12.037832
 30
0.0
 10
17.657845
 20
12.055305
 30
0.0
 10
17.629243
 20
12.064862
 30
0.0
 10
17.548900
 20
12.073187
 30
0.0
 10
17.509809
 20
12.078263
 30
0.0
 10
17.474903
 20
12.093966
 30
0.0
 10
17.450707
 20
12.126504
 30
0.0
 10
17.415342
 20
12.148326
 30
0.0
 10
17.376176
 20
12.153028
 30
0.0
 10
17.340572
 20
12.134205
 30
0.0
 10
17.334436
 20
12.099211
 30
0.0
 10
17.344709
 20
12.064578
 30
0.0
 10
17.358810
 20
12.029582
 30
0.0
 10
17.364160
 20
11.993501
 30
0.0
 10
17.366689
 20
11.916817
 30
0.0
 10
17.374146
 20
11.879686
 30
0.0
 10
17.390843
 20
11.845423
 30
0.0
 10
17.388293
 20
11.816757
 30
0.0
 10
17.378469
 20
11.789560
 30
0.0
 10
17.368561
 20
11.762140
 30
0.0
 10
17.365763
 20
11.732810
 30
0.0
 10
17.370168
 20
11.676009
 30
0.0
 10
17.391571
 20
11.623418
 30
0.0
 10
17.410775
 20
11.479453
 30
0.0
 10
17.430820
 20
11.409618
 30
0.0
 10
17.458918
 20
11.343045
 30
0.0
 10
17.485246
 20
11.325834
 30
0.0
 10
17.516079
 20
11.327225
 30
0.0
 10
17.579304
 20
11.343745
 30
0.0
 10
17.787723
 20
11.402655
 30
0.0
 10
17.992698
 20
11.472072
 30
0.0
 10
18.348211
 20
11.613844
 30
0.0
 10
18.474637
 20
11.659517
 30
0.0
 10
18.537157
 20
11.683642
 30
0.0
 10
18.602359
 20
11.700013
 30
0.0
 10
18.712756
 20
11.726231
 30
0.0
 10
18.823057
 20
11.751115
 30
0.0
 10
18.926789
 20
11.742050
 30
0.0
 10
19.028558
 20
11.718589
 30
0.0
 10
19.058720
 20
11.700391
 30
0.0
 10
19.083126
 20
11.675574
 30
0.0
 10
19.121273
 20
11.617661
 30
0.0
 10
19.163347
 20
11.571362
 30
0.0
 10
19.205057
 20
11.522680
 30
0.0
 10
19.316835
 20
11.402992
 30
0.0
 10
19.368714
 20
11.339913
 30
0.0
 10
19.414134
 20
11.272270
 30
0.0
 10
19.425074
 20
11.259461
 30
0.0
 10
19.428323
 20
11.244538
 30
0.0
 10
19.432070
 20
11.230527
 30
0.0
 10
19.444506
 20
11.220455
 30
0.0
 10
19.465799
 20
11.192668
 30
0.0
 10
19.478477
 20
11.160362
 30
0.0
 10
19.492406
 20
11.092022
 30
0.0
 10
19.517313
 20
11.070104
 30
0.0
 10
19.549472
 20
11.061446
 30
0.0
 10
19.617697
 20
11.061540
 30
0.0
 10
19.640409
 20
11.077787
 30
0.0
 10
19.658451
 20
11.099627
 30
0.0
 10
19.677330
 20
11.120562
 30
0.0
 10
19.702552
 20
11.134092
 30
0.0
 10
19.821235
 20
11.181420
 30
0.0
 10
19.937347
 20
11.234677
 30
0.0
 10
20.192266
 20
11.361176
 30
0.0
 10
20.314697
 20
11.433234
 30
0.0
 10
20.430030
 20
11.516434
 30
0.0
 10
20.470990
 20
11.541341
 30
0.0
 10
20.514583
 20
11.558115
 30
0.0
 10
20.607186
 20
11.575042
 30
0.0
 10
20.702877
 20
11.582762
 30
0.0
 10
20.796692
 20
11.596825
 30
0.0
 10
20.851566
 20
11.610221
 30
0.0
 10
20.877085
 20
11.620761
 30
0.0
 10
20.894477
 20
11.640592
 30
0.0
 10
20.885634
 20
11.664846
 30
0.0
 10
20.863419
 20
11.677150
 30
0.0
 10
20.809108
 20
11.679683
 30
0.0
 10
20.724351
 20
11.663045
 30
0.0
 10
20.638037
 20
11.657489
 30
0.0
 10
20.464366
 20
11.655424
 30
0.0
 10
20.132529
 20
11.653353
 30
0.0
 10
19.967487
 20
11.664691
 30
0.0
 10
19.804788
 20
11.695433
 30
0.0
 10
19.629480
 20
11.721008
 30
0.0
 10
19.453211
 20
11.740116
 30
0.0
 10
19.277312
 20
11.761442
 30
0.0
 10
19.103113
 20
11.793672
 30
0.0
 10
18.870622
 20
11.822983
 30
0.0
 10
18.642174
 20
11.873743
 30
0.0
 10
18.412944
 20
11.936265
 30
0.0
 10
18.183049
 20
11.996015
 30
0.0
 10
17.614441
 20
12.176415
 30
0.0
 10
17.043705
 20
12.349784
 30
0.0
 10
16.777195
 20
12.451725
 30
0.0
 10
16.513802
 20
12.560353
 30
0.0
 10
16.321710
 20
12.648134
 30
0.0
 10
16.132804
 20
12.742063
 30
0.0
 10
16.078854
 20
12.778081
 30
0.0
 10
16.016773
 20
12.794837
 30
0.0
 10
15.945168
 20
12.826241
 30
0.0
 10
15.879117
 20
12.867793
 30
0.0
 10
15.814124
 20
12.911376
 30
0.0
 10
15.745689
 20
12.948878
 30
0.0
 10
15.630594
 20
13.019502
 30
0.0
 10
15.513844
 20
13.084776
 30
0.0
 10
15.504642
 20
13.097335
 30
0.0
 10
15.489459
 20
13.103614
 30
0.0
 10
15.477993
 20
13.110988
 30
0.0
 10
15.479945
 20
13.126833
 30
0.0
 10
15.466280
 20
13.155152
 30
0.0
 10
15.436834
 20
13.165729
 30
0.0
 10
15.402580
 20
13.170969
 30
0.0
 10
15.374497
 20
13.183278
 30
0.0
 10
15.015270
 20
13.477186
 30
0.0
 10
14.873504
 20
13.636228
 30
0.0
 10
14.802102
 20
13.715157
 30
0.0
 10
14.724447
 20
13.788130
 30
0.0
 10
14.613936
 20
13.903319
 30
0.0
 10
14.515608
 20
14.028713
 30
0.0
 10
14.405708
 20
14.148876
 30
0.0
 10
14.355647
 20
14.212865
 30
0.0
 10
14.312902
 20
14.282141
 30
0.0
 10
14.265676
 20
14.350757
 30
0.0
 10
14.227511
 20
14.425474
 30
0.0
 10
14.190096
 20
14.500220
 30
0.0
 10
14.145122
 20
14.568923
 30
0.0
 10
14.146549
 20
14.598151
 30
0.0
 10
14.130625
 20
14.620076
 30
0.0
 10
14.131777
 20
14.646818
 30
0.0
 10
14.145603
 20
14.670733
 30
0.0
 10
14.160360
 20
14.693448
 30
0.0
 10
14.164304
 20
14.716593
 30
0.0
 10
14.140674
 20
14.728065
 30
0.0
 10
14.113642
 20
14.730153
 30
0.0
 10
14.058691
 20
14.730801
 30
0.0
 10
14.037966
 20
14.730773
 30
0.0
 10
14.037965
 20
14.730759
 30
0.0
  0
LWPOLYLINE
  5
102
100
AcDbEntity
  8
Layer_1
 62
7
100
AcDbPolyline
 90
55
 70
0
 10
14.020271
 20
14.668141
 30
0.0
 10
14.035582
 20
14.635424
 30
0.0
 10
14.040216
 20
14.598852
 30
0.0
 10
14.044683
 20
14.561899
 30
0.0
 10
14.059491
 20
14.528033
 30
0.0
 10
14.108221
 20
14.444243
 30
0.0
 10
14.143523
 20
14.354113
 30
0.0
 10
14.161046
 20
14.331786
 30
0.0
 10
14.173454
 20
14.306047
 30
0.0
 10
14.191005
 20
14.290923
 30
0.0
 10
14.202999
 20
14.270329
 30
0.0
 10
14.246460
 20
14.215598
 30
0.0
 10
14.264912
 20
14.186477
 30
0.0
 10
14.276972
 20
14.153857
 30
0.0
 10
14.288546
 20
14.143422
 30
0.0
 10
14.277778
 20
14.139653
 30
0.0
 10
14.239737
 20
14.136678
 30
0.0
 10
13.895728
 20
14.107158
 30
0.0
 10
13.723267
 20
14.100175
 30
0.0
 10
13.550856
 20
14.104027
 30
0.0
 10
13.452134
 20
14.134723
 30
0.0
 10
13.401661
 20
14.144542
 30
0.0
 10
13.350710
 20
14.138257
 30
0.0
 10
13.310311
 20
14.115492
 30
0.0
 10
13.264746
 20
14.106892
 30
0.0
 10
13.170526
 20
14.100716
 30
0.0
 10
13.066966
 20
14.096861
 30
0.0
 10
12.963426
 20
14.100002
 30
0.0
 10
13.025372
 20
14.149487
 30
0.0
 10
13.093348
 20
14.189960
 30
0.0
 10
13.132607
 20
14.145834
 30
0.0
 10
13.157588
 20
14.131069
 30
0.0
 10
13.186746
 20
14.123871
 30
0.0
 10
13.225634
 20
14.114370
 30
0.0
 10
13.267454
 20
14.113380
 30
0.0
 10
13.304302
 20
14.126219
 30
0.0
 10
13.328275
 20
14.158210
 30
0.0
 10
13.327210
 20
14.195180
 30
0.0
 10
13.307024
 20
14.224675
 30
0.0
 10
13.274933
 20
14.243303
 30
0.0
 10
13.238152
 20
14.247672
 30
0.0
 10
13.206204
 20
14.248627
 30
0.0
 10
13.204698
 20
14.253364
 30
0.0
 10
13.219190
 20
14.264429
 30
0.0
 10
13.290971
 20
14.304695
 30
0.0
 10
13.361183
 20
14.346505
 30
0.0
 10
13.402572
 20
14.369990
 30
0.0
 10
13.422224
 20
14.383971
 30
0.0
 10
13.445464
 20
14.391484
 30
0.0
 10
13.579551
 20
14.461052
 30
0.0
 10
13.716143
 20
14.524799
 30
0.0
 10
13.861515
 20
14.592153
 30
0.0
 10
14.003073
 20
14.666265
 30
0.0
 10
14.020271
 20
14.668139
 30
0.0
 10
14.020271
 20
14.668141
 30
0.0
  0
LWPOLYLINE
  5
103
100
AcDbEntity
  8
Layer_1
 62
7
100
AcDbPolyline
 90
18
 70
0
 10
5.161690
 20
14.593396
 30
0.0
 10
5.252569
 20
14.536774
 30
0.0
 10
5.337638
 20
14.472129
 30
0.0
 10
5.293593
 20
14.463977
 30
0.0
 10
5.246058
 20
14.463750
 30
0.0
 10
5.201292
 20
14.457307
 30
0.0
 10
5.165549
 20
14.430512
 30
0.0
 10
5.166705
 20
14.402227
 30
0.0
 10
5.161180
 20
14.392371
 30
0.0
 10
5.145981
 20
14.390218
 30
0.0
 10
5.134471
 20
14.416607
 30
0.0
 10
5.139444
 20
14.445279
 30
0.0
 10
5.148897
 20
14.475084
 30
0.0
 10
5.150832
 20
14.504871
 30
0.0
 10
5.150493
 20
14.550494
 30
0.0
 10
5.155076
 20
14.595711
 30
0.0
 10
5.161690
 20
14.593397
 30
0.0
 10
5.161690
 20
14.593396
 30
0.0
  0
LWPOLYLINE
  5
104
100
AcDbEntity
  8
Layer_1
 62
7
100
AcDbPolyline
 90
20
 70
0
 10
13.759712
 20
14.493516
 30
0.0
 10
13.735659
 20
14.488143
 30
0.0
 10
13.717669
 20
14.475672
 30
0.0
 10
13.700358
 20
14.437628
 30
0.0
 10
13.708738
 20
14.395776
 30
0.0
 10
13.722862
 20
14.378544
 30
0.0
 10
13.743768
 20
14.366506
 30
0.0
 10
13.784259
 20
14.341949
 30
0.0
 10
13.821448
 20
14.313268
 30
0.0
 10
13.842863
 20
14.309773
 30
0.0
 10
13.860138
 20
14.318868
 30
0.0
 10
13.869216
 20
14.336256
 30
0.0
 10
13.866041
 20
14.357641
 30
0.0
 10
13.897438
 20
14.402407
 30
0.0
 10
13.908959
 20
14.425858
 30
0.0
 10
13.902807
 20
14.452119
 30
0.0
 10
13.873661
 20
14.477190
 30
0.0
 10
13.837397
 20
14.489546
 30
0.0
 10
13.759712
 20
14.493516
 30
0.0
 10
13.759712
 20
14.493516
 30
0.0
  0
LWPOLYLINE
  5
105
100
AcDbEntity
  8
Layer_1
 62
7
100
AcDbPolyline
 90
11
 70
0
 10
5.379145
 20
14.416621
 30
0.0
 10
5.434119
 20
14.405533
 30
0.0
 10
5.484317
 20
14.379910
 30
0.0
 10
5.370220
 20
14.377574
 30
0.0
 10
5.313765
 20
14.383315
 30
0.0
 10
5.259862
 20
14.399589
 30
0.0
 10
5.262730
 20
14.408542
 30
0.0
 10
5.280260
 20
14.410637
 30
0.0
 10
5.317850
 20
14.413645
 30
0.0
 10
5.379145
 20
14.416621
 30
0.0
 10
5.379145
 20
14.416621
 30
0.0
  0
LWPOLYLINE
  5
106
100
AcDbEntity
  8
Layer_1
 62
7
100
AcDbPolyline
 90
16
 70
0
 10
13.529414
 20
14.311559
 30
0.0
 10
13.497928
 20
14.306323
 30
0.0
 10
13.467448
 20
14.292040
 30
0.0
 10
13.447005
 20
14.268913
 30
0.0
 10
13.445629
 20
14.237146
 30
0.0
 10
13.478403
 20
14.200518
 30
0.0
 10
13.521688
 20
14.179005
 30
0.0
 10
13.569690
 20
14.174794
 30
0.0
 10
13.616616
 20
14.190072
 30
0.0
 10
13.663504
 20
14.212738
 30
0.0
 10
13.679725
 20
14.231755
 30
0.0
 10
13.682983
 20
14.256052
 30
0.0
 10
13.650654
 20
14.282359
 30
0.0
 10
13.612264
 20
14.298830
 30
0.0
 10
13.529414
 20
14.311559
 30
0.0
 10
13.529414
 20
14.311559
 30
0.0
  0
LWPOLYLINE
  5
107
100
AcDbEntity
  8
Layer_1
 62
7
100
AcDbPolyline
 90
18
 70
0
 10
13.966858
 20
14.247729
 30
0.0
 10
13.917200
 20
14.236185
 30
0.0
 10
13.898970
 20
14.219424
 30
0.0
 10
13.892058
 20
14.195363
 30
0.0
 10
13.880870
 20
14.177354
 30
0.0
 10
13.889698
 20
14.158189
 30
0.0
 10
13.909610
 20
14.143856
 30
0.0
 10
13.931675
 20
14.140342
 30
0.0
 10
14.046964
 20
14.129351
 30
0.0
 10
14.104259
 20
14.133457
 30
0.0
 10
14.158240
 20
14.151432
 30
0.0
 10
14.166600
 20
14.177536
 30
0.0
 10
14.154578
 20
14.200736
 30
0.0
 10
14.130676
 20
14.216812
 30
0.0
 10
14.103394
 20
14.221546
 30
0.0
 10
14.035986
 20
14.240094
 30
0.0
 10
13.966858
 20
14.247729
 30
0.0
 10
13.966858
 20
14.247729
 30
0.0
  0
LWPOLYLINE
  5
108
100
AcDbEntity
  8
Layer_1
 62
7
100
AcDbPolyline
 90
12
 70
0
 10
5.109159
 20
14.056126
 30
0.0
 10
5.094175
 20
14.050821
 30
0.0
 10
5.090783
 20
14.038493
 30
0.0
 10
5.096966
 20
14.025295
 30
0.0
 10
5.110703
 20
14.017376
 30
0.0
 10
5.150420
 20
14.006354
 30
0.0
 10
5.168355
 20
14.012484
 30
0.0
 10
5.176574
 20
14.030881
 30
0.0
 10
5.166967
 20
14.047754
 30
0.0
 10
5.149337
 20
14.055231
 30
0.0
 10
5.109160
 20
14.056126
 30
0.0
 10
5.109159
 20
14.056126
 30
0.0
  0
LWPOLYLINE
  5
109
100
AcDbEntity
  8
Layer_1
 62
7
100
AcDbPolyline
 90
36
 70
0
 10
4.934149
 20
13.977744
 30
0.0
 10
4.949669
 20
13.968573
 30
0.0
 10
4.959142
 20
13.953003
 30
0.0
 10
4.967886
 20
13.936947
 30
0.0
 10
4.981223
 20
13.926315
 30
0.0
 10
4.990790
 20
13.902066
 30
0.0
 10
5.006781
 20
13.883554
 30
0.0
 10
5.018577
 20
13.849145
 30
0.0
 10
5.038384
 20
13.819600
 30
0.0
 10
5.049696
 20
13.759078
 30
0.0
 10
5.060438
 20
13.697648
 30
0.0
 10
5.071240
 20
13.587963
 30
0.0
 10
5.094295
 20
13.480931
 30
0.0
 10
5.094381
 20
13.451088
 30
0.0
 10
5.107564
 20
13.425504
 30
0.0
 10
5.115440
 20
13.379352
 30
0.0
 10
5.125605
 20
13.358920
 30
0.0
 10
5.143555
 20
13.344122
 30
0.0
 10
5.065701
 20
13.350281
 30
0.0
 10
4.989325
 20
13.367714
 30
0.0
 10
4.966512
 20
13.386160
 30
0.0
 10
4.954855
 20
13.413171
 30
0.0
 10
4.946074
 20
13.442934
 30
0.0
 10
4.931889
 20
13.469633
 30
0.0
 10
4.912010
 20
13.504984
 30
0.0
 10
4.900301
 20
13.543991
 30
0.0
 10
4.889270
 20
13.583412
 30
0.0
 10
4.871421
 20
13.620005
 30
0.0
 10
4.852339
 20
13.694572
 30
0.0
 10
4.822583
 20
13.764644
 30
0.0
 10
4.823183
 20
13.824691
 30
0.0
 10
4.845352
 20
13.879563
 30
0.0
 10
4.880679
 20
13.929396
 30
0.0
 10
4.920754
 20
13.974326
 30
0.0
 10
4.934149
 20
13.977744
 30
0.0
 10
4.934149
 20
13.977744
 30
0.0
  0
LWPOLYLINE
  5
10a
100
AcDbEntity
  8
Layer_1
 62
7
100
AcDbPolyline
 90
26
 70
0
 10
5.153202
 20
13.801575
 30
0.0
 10
5.222569
 20
13.759040
 30
0.0
 10
5.286293
 20
13.708391
 30
0.0
 10
5.343265
 20
13.650467
 30
0.0
 10
5.392374
 20
13.586105
 30
0.0
 10
5.378622
 20
13.574882
 30
0.0
 10
5.382061
 20
13.560099
 30
0.0
 10
5.399926
 20
13.527842
 30
0.0
 10
5.416596
 20
13.449214
 30
0.0
 10
5.445566
 20
13.374383
 30
0.0
 10
5.460351
 20
13.332021
 30
0.0
 10
5.461811
 20
13.314391
 30
0.0
 10
5.446337
 20
13.310552
 30
0.0
 10
5.350821
 20
13.311503
 30
0.0
 10
5.304205
 20
13.316954
 30
0.0
 10
5.262782
 20
13.334310
 30
0.0
 10
5.221364
 20
13.393276
 30
0.0
 10
5.202609
 20
13.423372
 30
0.0
 10
5.195423
 20
13.458774
 30
0.0
 10
5.168137
 20
13.549112
 30
0.0
 10
5.154221
 20
13.641781
 30
0.0
 10
5.144724
 20
13.724047
 30
0.0
 10
5.143113
 20
13.806701
 30
0.0
 10
5.149403
 20
13.803505
 30
0.0
 10
5.153200
 20
13.801575
 30
0.0
 10
5.153202
 20
13.801575
 30
0.0
  0
LWPOLYLINE
  5
10b
100
AcDbEntity
  8
Layer_1
 62
7
100
AcDbPolyline
 90
10
 70
0
 10
4.562244
 20
13.776715
 30
0.0
 10
4.545850
 20
13.775046
 30
0.0
 10
4.536092
 20
13.764001
 30
0.0
 10
4.535937
 20
13.750081
 30
0.0
 10
4.548353
 20
13.739784
 30
0.0
 10
4.584523
 20
13.741600
 30
0.0
 10
4.596428
 20
13.752224
 30
0.0
 10
4.593443
 20
13.769219
 30
0.0
 10
4.562244
 20
13.776715
 30
0.0
 10
4.562244
 20
13.776715
 30
0.0
  0
LWPOLYLINE
  5
10c
100
AcDbEntity
  8
Layer_1
 62
7
100
AcDbPolyline
 90
70
 70
0
 10
14.610237
 20
13.760069
 30
0.0
 10
14.657194
 20
13.734150
 30
0.0
 10
14.696489
 20
13.697446
 30
0.0
 10
14.767884
 20
13.617524
 30
0.0
 10
14.735564
 20
13.640627
 30
0.0
 10
14.698242
 20
13.648992
 30
0.0
 10
14.659209
 20
13.645413
 30
0.0
 10
14.621757
 20
13.632683
 30
0.0
 10
14.567603
 20
13.601925
 30
0.0
 10
14.547532
 20
13.579194
 30
0.0
 10
14.540012
 20
13.551323
 30
0.0
 10
14.556555
 20
13.530641
 30
0.0
 10
14.564431
 20
13.506289
 30
0.0
 10
14.590959
 20
13.498877
 30
0.0
 10
14.616521
 20
13.488705
 30
0.0
 10
14.695768
 20
13.477322
 30
0.0
 10
14.774003
 20
13.463350
 30
0.0
 10
14.800103
 20
13.476203
 30
0.0
 10
14.817650
 20
13.499128
 30
0.0
 10
14.825404
 20
13.527398
 30
0.0
 10
14.822124
 20
13.556284
 30
0.0
 10
14.954695
 20
13.419816
 30
0.0
 10
15.099881
 20
13.296993
 30
0.0
 10
15.053005
 20
13.297486
 30
0.0
 10
15.006627
 20
13.284351
 30
0.0
 10
14.970192
 20
13.256563
 30
0.0
 10
14.953148
 20
13.213098
 30
0.0
 10
14.967158
 20
13.171845
 30
0.0
 10
15.003805
 20
13.147724
 30
0.0
 10
14.859867
 20
13.144412
 30
0.0
 10
14.789261
 20
13.154585
 30
0.0
 10
14.722353
 20
13.180007
 30
0.0
 10
14.668024
 20
13.195307
 30
0.0
 10
14.610427
 20
13.200069
 30
0.0
 10
14.555174
 20
13.189664
 30
0.0
 10
14.507876
 20
13.159465
 30
0.0
 10
14.493480
 20
13.119651
 30
0.0
 10
14.482099
 20
13.106468
 30
0.0
 10
14.459534
 20
13.105721
 30
0.0
 10
14.427188
 20
13.106813
 30
0.0
 10
14.397457
 20
13.116412
 30
0.0
 10
14.342401
 20
13.148716
 30
0.0
 10
14.278944
 20
13.161348
 30
0.0
 10
14.247769
 20
13.167665
 30
0.0
 10
14.221575
 20
13.182340
 30
0.0
 10
14.254068
 20
13.230592
 30
0.0
 10
14.268256
 20
13.255622
 30
0.0
 10
14.275373
 20
13.283157
 30
0.0
 10
14.310049
 20
13.288546
 30
0.0
 10
14.344777
 20
13.280227
 30
0.0
 10
14.379819
 20
13.268026
 30
0.0
 10
14.415437
 20
13.261770
 30
0.0
 10
14.448269
 20
13.259281
 30
0.0
 10
14.481348
 20
13.268126
 30
0.0
 10
14.504564
 20
13.288646
 30
0.0
 10
14.507806
 20
13.321182
 30
0.0
 10
14.486521
 20
13.357057
 30
0.0
 10
14.454342
 20
13.384302
 30
0.0
 10
14.375695
 20
13.415008
 30
0.0
 10
14.358794
 20
13.418047
 30
0.0
 10
14.353495
 20
13.427952
 30
0.0
 10
14.368860
 20
13.453869
 30
0.0
 10
14.397718
 20
13.505915
 30
0.0
 10
14.421163
 20
13.560931
 30
0.0
 10
14.447378
 20
13.613947
 30
0.0
 10
14.484549
 20
13.659990
 30
0.0
 10
14.535451
 20
13.730490
 30
0.0
 10
14.568316
 20
13.756185
 30
0.0
 10
14.610237
 20
13.760069
 30
0.0
 10
14.610237
 20
13.760069
 30
0.0
  0
LWPOLYLINE
  5
10d
100
AcDbEntity
  8
Layer_1
 62
7
100
AcDbPolyline
 90
25
 70
0
 10
4.745468
 20
13.735870
 30
0.0
 10
4.762616
 20
13.705048
 30
0.0
 10
4.772638
 20
13.670882
 30
0.0
 10
4.796400
 20
13.603523
 30
0.0
 10
4.819783
 20
13.523300
 30
0.0
 10
4.851632
 20
13.446482
 30
0.0
 10
4.834216
 20
13.410145
 30
0.0
 10
4.838250
 20
13.392476
 30
0.0
 10
4.854498
 20
13.380943
 30
0.0
 10
4.766058
 20
13.372718
 30
0.0
 10
4.682298
 20
13.382707
 30
0.0
 10
4.688925
 20
13.402821
 30
0.0
 10
4.679925
 20
13.419746
 30
0.0
 10
4.661610
 20
13.429506
 30
0.0
 10
4.640296
 20
13.428127
 30
0.0
 10
4.608847
 20
13.448558
 30
0.0
 10
4.586524
 20
13.479484
 30
0.0
 10
4.559488
 20
13.551599
 30
0.0
 10
4.566784
 20
13.583293
 30
0.0
 10
4.589893
 20
13.605807
 30
0.0
 10
4.618624
 20
13.625423
 30
0.0
 10
4.642787
 20
13.648424
 30
0.0
 10
4.691371
 20
13.696201
 30
0.0
 10
4.745468
 20
13.735870
 30
0.0
 10
4.745468
 20
13.735870
 30
0.0
  0
LWPOLYLINE
  5
10e
100
AcDbEntity
  8
Layer_1
 62
7
100
AcDbPolyline
 90
14
 70
0
 10
5.500192
 20
13.513896
 30
0.0
 10
5.557502
 20
13.473449
 30
0.0
 10
5.607194
 20
13.424057
 30
0.0
 10
5.694495
 20
13.313805
 30
0.0
 10
5.627820
 20
13.302810
 30
0.0
 10
5.594246
 20
13.302594
 30
0.0
 10
5.562920
 20
13.311270
 30
0.0
 10
5.545522
 20
13.343821
 30
0.0
 10
5.537185
 20
13.379957
 30
0.0
 10
5.528032
 20
13.415208
 30
0.0
 10
5.508184
 20
13.445105
 30
0.0
 10
5.498038
 20
13.482321
 30
0.0
 10
5.500192
 20
13.513897
 30
0.0
 10
5.500192
 20
13.513896
 30
0.0
  0
LWPOLYLINE
  5
10f
100
AcDbEntity
  8
Layer_1
 62
7
100
AcDbPolyline
 90
12
 70
0
 10
4.465561
 20
13.507722
 30
0.0
 10
4.493090
 20
13.458279
 30
0.0
 10
4.506095
 20
13.433013
 30
0.0
 10
4.525533
 20
13.412252
 30
0.0
 10
4.477061
 20
13.418058
 30
0.0
 10
4.457073
 20
13.427811
 30
0.0
 10
4.450733
 20
13.449569
 30
0.0
 10
4.436210
 20
13.478241
 30
0.0
 10
4.435979
 20
13.491108
 30
0.0
 10
4.449629
 20
13.501879
 30
0.0
 10
4.465560
 20
13.507722
 30
0.0
 10
4.465561
 20
13.507722
 30
0.0
  0
LWPOLYLINE
  5
110
100
AcDbEntity
  8
Layer_1
 62
7
100
AcDbPolyline
 90
16
 70
0
 10
14.642483
 20
13.356689
 30
0.0
 10
14.610155
 20
13.352470
 30
0.0
 10
14.580245
 20
13.336438
 30
0.0
 10
14.563015
 20
13.311129
 30
0.0
 10
14.568730
 20
13.279078
 30
0.0
 10
14.593081
 20
13.254188
 30
0.0
 10
14.622205
 20
13.235974
 30
0.0
 10
14.689204
 20
13.218955
 30
0.0
 10
14.758598
 20
13.226788
 30
0.0
 10
14.819258
 20
13.258242
 30
0.0
 10
14.822981
 20
13.285800
 30
0.0
 10
14.806525
 20
13.307749
 30
0.0
 10
14.754876
 20
13.336405
 30
0.0
 10
14.699854
 20
13.353081
 30
0.0
 10
14.642483
 20
13.356689
 30
0.0
 10
14.642483
 20
13.356689
 30
0.0
  0
LWPOLYLINE
  5
111
100
AcDbEntity
  8
Layer_1
 62
7
100
AcDbPolyline
 90
11
 70
0
 10
15.200423
 20
13.205215
 30
0.0
 10
15.235088
 20
13.186021
 30
0.0
 10
15.263482
 20
13.158693
 30
0.0
 10
15.226353
 20
13.151343
 30
0.0
 10
15.197281
 20
13.155000
 30
0.0
 10
15.203991
 20
13.180662
 30
0.0
 10
15.197585
 20
13.191192
 30
0.0
 10
15.184438
 20
13.194963
 30
0.0
 10
15.189176
 20
13.206527
 30
0.0
 10
15.200423
 20
13.205215
 30
0.0
 10
15.200423
 20
13.205215
 30
0.0
  0
LWPOLYLINE
  5
112
100
AcDbEntity
  8
Layer_1
 62
7
100
AcDbPolyline
 90
23
 70
0
 10
3.876311
 20
13.071601
 30
0.0
 10
3.958531
 20
12.997923
 30
0.0
 10
4.028502
 20
12.912189
 30
0.0
 10
4.044176
 20
12.851483
 30
0.0
 10
4.052554
 20
12.821468
 30
0.0
 10
4.067693
 20
12.793954
 30
0.0
 10
4.083336
 20
12.704909
 30
0.0
 10
4.091129
 20
12.614546
 30
0.0
 10
4.094262
 20
12.432797
 30
0.0
 10
4.011921
 20
12.433482
 30
0.0
 10
3.972119
 20
12.438859
 30
0.0
 10
3.938775
 20
12.459679
 30
0.0
 10
3.921836
 20
12.527045
 30
0.0
 10
3.916297
 20
12.596453
 30
0.0
 10
3.913526
 20
12.666548
 30
0.0
 10
3.904894
 20
12.735976
 30
0.0
 10
3.881540
 20
12.837688
 30
0.0
 10
3.870774
 20
12.941440
 30
0.0
 10
3.864589
 20
13.002103
 30
0.0
 10
3.857810
 20
13.031021
 30
0.0
 10
3.844561
 20
13.053631
 30
0.0
 10
3.876311
 20
13.071601
 30
0.0
 10
3.876311
 20
13.071601
 30
0.0
  0
LWPOLYLINE
  5
113
100
AcDbEntity
  8
Layer_1
 62
7
100
AcDbPolyline
 90
23
 70
0
 10
3.784203
 20
12.979934
 30
0.0
 10
3.790328
 20
12.922785
 30
0.0
 10
3.794245
 20
12.894519
 30
0.0
 10
3.804984
 20
12.868037
 30
0.0
 10
3.802984
 20
12.802922
 30
0.0
 10
3.806331
 20
12.771135
 30
0.0
 10
3.819316
 20
12.741368
 30
0.0
 10
3.828219
 20
12.614636
 30
0.0
 10
3.824773
 20
12.487423
 30
0.0
 10
3.807517
 20
12.474185
 30
0.0
 10
3.783135
 20
12.478530
 30
0.0
 10
3.732156
 20
12.494906
 30
0.0
 10
3.650838
 20
12.513817
 30
0.0
 10
3.569174
 20
12.528378
 30
0.0
 10
3.582772
 20
12.677128
 30
0.0
 10
3.579059
 20
12.752335
 30
0.0
 10
3.566584
 20
12.826365
 30
0.0
 10
3.598121
 20
12.867045
 30
0.0
 10
3.639712
 20
12.896813
 30
0.0
 10
3.684164
 20
12.923686
 30
0.0
 10
3.724286
 20
12.955680
 30
0.0
 10
3.784203
 20
12.979934
 30
0.0
 10
3.784203
 20
12.979934
 30
0.0
  0
LWPOLYLINE
  5
114
100
AcDbEntity
  8
Layer_1
 62
7
100
AcDbPolyline
 90
23
 70
0
 10
4.122594
 20
12.889920
 30
0.0
 10
4.147357
 20
12.852670
 30
0.0
 10
4.174356
 20
12.818748
 30
0.0
 10
4.185556
 20
12.792528
 30
0.0
 10
4.203495
 20
12.771409
 30
0.0
 10
4.238154
 20
12.727156
 30
0.0
 10
4.296424
 20
12.653467
 30
0.0
 10
4.324038
 20
12.616124
 30
0.0
 10
4.343085
 20
12.573308
 30
0.0
 10
4.365731
 20
12.525807
 30
0.0
 10
4.395914
 20
12.482407
 30
0.0
 10
4.422928
 20
12.438168
 30
0.0
 10
4.436070
 20
12.388149
 30
0.0
 10
4.340940
 20
12.395527
 30
0.0
 10
4.244634
 20
12.418355
 30
0.0
 10
4.204001
 20
12.471106
 30
0.0
 10
4.187943
 20
12.498944
 30
0.0
 10
4.186024
 20
12.532175
 30
0.0
 10
4.172241
 20
12.709122
 30
0.0
 10
4.154440
 20
12.795748
 30
0.0
 10
4.124965
 20
12.879282
 30
0.0
 10
4.122594
 20
12.889920
 30
0.0
 10
4.122594
 20
12.889920
 30
0.0
  0
LWPOLYLINE
  5
115
100
AcDbEntity
  8
Layer_1
 62
7
100
AcDbPolyline
 90
64
 70
0
 10
15.747670
 20
12.847752
 30
0.0
 10
15.958620
 20
12.724004
 30
0.0
 10
16.026155
 20
12.682158
 30
0.0
 10
16.098977
 20
12.650493
 30
0.0
 10
16.244877
 20
12.589018
 30
0.0
 10
16.643945
 20
12.423868
 30
0.0
 10
16.588141
 20
12.432389
 30
0.0
 10
16.531560
 20
12.422103
 30
0.0
 10
16.483836
 20
12.392993
 30
0.0
 10
16.454603
 20
12.345044
 30
0.0
 10
16.456021
 20
12.323417
 30
0.0
 10
16.468062
 20
12.306740
 30
0.0
 10
16.504598
 20
12.283363
 30
0.0
 10
16.273967
 20
12.247507
 30
0.0
 10
16.041815
 20
12.221347
 30
0.0
 10
15.577399
 20
12.168986
 30
0.0
 10
15.538149
 20
12.167333
 30
0.0
 10
15.521221
 20
12.170391
 30
0.0
 10
15.517041
 20
12.184199
 30
0.0
 10
15.556244
 20
12.205524
 30
0.0
 10
15.601891
 20
12.206000
 30
0.0
 10
15.649303
 20
12.203137
 30
0.0
 10
15.693797
 20
12.214443
 30
0.0
 10
15.716165
 20
12.230418
 30
0.0
 10
15.727572
 20
12.254311
 30
0.0
 10
15.725555
 20
12.279869
 30
0.0
 10
15.707651
 20
12.300836
 30
0.0
 10
15.660311
 20
12.323258
 30
0.0
 10
15.608157
 20
12.332256
 30
0.0
 10
15.609398
 20
12.361989
 30
0.0
 10
15.618578
 20
12.390459
 30
0.0
 10
15.637318
 20
12.410251
 30
0.0
 10
15.667239
 20
12.413955
 30
0.0
 10
15.772512
 20
12.413140
 30
0.0
 10
15.823344
 20
12.421923
 30
0.0
 10
15.866897
 20
12.449444
 30
0.0
 10
15.875400
 20
12.475473
 30
0.0
 10
15.868308
 20
12.500267
 30
0.0
 10
15.849912
 20
12.519762
 30
0.0
 10
15.824506
 20
12.529892
 30
0.0
 10
15.786764
 20
12.540664
 30
0.0
 10
15.747102
 20
12.544484
 30
0.0
 10
15.707944
 20
12.548457
 30
0.0
 10
15.671712
 20
12.559687
 30
0.0
 10
15.676421
 20
12.584414
 30
0.0
 10
15.693422
 20
12.602563
 30
0.0
 10
15.717363
 20
12.611603
 30
0.0
 10
15.742889
 20
12.609004
 30
0.0
 10
15.830291
 20
12.609336
 30
0.0
 10
15.871606
 20
12.621854
 30
0.0
 10
15.908349
 20
12.645842
 30
0.0
 10
15.939743
 20
12.670865
 30
0.0
 10
15.943815
 20
12.688666
 30
0.0
 10
15.932944
 20
12.706281
 30
0.0
 10
15.888034
 20
12.744598
 30
0.0
 10
15.833936
 20
12.766147
 30
0.0
 10
15.775197
 20
12.775188
 30
0.0
 10
15.716361
 20
12.775984
 30
0.0
 10
15.727278
 20
12.793145
 30
0.0
 10
15.729239
 20
12.814558
 30
0.0
 10
15.731238
 20
12.834901
 30
0.0
 10
15.742268
 20
12.848855
 30
0.0
 10
15.747670
 20
12.847751
 30
0.0
 10
15.747670
 20
12.847752
 30
0.0
  0
LWPOLYLINE
  5
116
100
AcDbEntity
  8
Layer_1
 62
7
100
AcDbPolyline
 90
18
 70
0
 10
3.478940
 20
12.767220
 30
0.0
 10
3.492401
 20
12.717788
 30
0.0
 10
3.493047
 20
12.667011
 30
0.0
 10
3.479767
 20
12.565144
 30
0.0
 10
3.346462
 20
12.569949
 30
0.0
 10
3.282025
 20
12.585645
 30
0.0
 10
3.222515
 20
12.614533
 30
0.0
 10
3.214286
 20
12.625593
 30
0.0
 10
3.199382
 20
12.631331
 30
0.0
 10
3.189114
 20
12.636551
 30
0.0
 10
3.194789
 20
12.646063
 30
0.0
 10
3.287751
 20
12.698321
 30
0.0
 10
3.384683
 20
12.744179
 30
0.0
 10
3.428550
 20
12.763197
 30
0.0
 10
3.474751
 20
12.774882
 30
0.0
 10
3.478136
 20
12.768691
 30
0.0
 10
3.478940
 20
12.767221
 30
0.0
 10
3.478940
 20
12.767220
 30
0.0
  0
LWPOLYLINE
  5
117
100
AcDbEntity
  8
Layer_1
 62
7
100
AcDbPolyline
 90
18
 70
0
 10
16.132804
 20
12.595792
 30
0.0
 10
16.094310
 20
12.582133
 30
0.0
 10
16.062820
 20
12.553764
 30
0.0
 10
16.048215
 20
12.517042
 30
0.0
 10
16.060374
 20
12.478328
 30
0.0
 10
16.079343
 20
12.454595
 30
0.0
 10
16.102747
 20
12.438189
 30
0.0
 10
16.158511
 20
12.423735
 30
0.0
 10
16.218964
 20
12.427716
 30
0.0
 10
16.275403
 20
12.442885
 30
0.0
 10
16.316482
 20
12.463769
 30
0.0
 10
16.334502
 20
12.475543
 30
0.0
 10
16.342355
 20
12.488550
 30
0.0
 10
16.298449
 20
12.529533
 30
0.0
 10
16.247435
 20
12.561280
 30
0.0
 10
16.191493
 20
12.583473
 30
0.0
 10
16.132804
 20
12.595792
 30
0.0
 10
16.132804
 20
12.595792
 30
0.0
  0
LWPOLYLINE
  5
118
100
AcDbEntity
  8
Layer_1
 62
7
100
AcDbPolyline
 90
19
 70
0
 10
2.687009
 20
12.426237
 30
0.0
 10
2.688103
 20
12.329067
 30
0.0
 10
2.689628
 20
12.231232
 30
0.0
 10
2.709413
 20
12.064880
 30
0.0
 10
2.744281
 20
11.901645
 30
0.0
 10
2.755493
 20
11.823057
 30
0.0
 10
2.779503
 20
11.747801
 30
0.0
 10
2.659591
 20
11.759562
 30
0.0
 10
2.602614
 20
11.779082
 30
0.0
 10
2.551741
 20
11.811025
 30
0.0
 10
2.544650
 20
11.927842
 30
0.0
 10
2.546429
 20
12.045220
 30
0.0
 10
2.560719
 20
12.279841
 30
0.0
 10
2.575306
 20
12.337023
 30
0.0
 10
2.602894
 20
12.389415
 30
0.0
 10
2.646176
 20
12.404485
 30
0.0
 10
2.686403
 20
12.428055
 30
0.0
 10
2.687010
 20
12.426238
 30
0.0
 10
2.687009
 20
12.426237
 30
0.0
  0
LWPOLYLINE
  5
119
100
AcDbEntity
  8
Layer_1
 62
7
100
AcDbPolyline
 90
18
 70
0
 10
16.020907
 20
12.402644
 30
0.0
 10
15.994275
 20
12.398092
 30
0.0
 10
15.974983
 20
12.380089
 30
0.0
 10
15.968883
 20
12.355573
 30
0.0
 10
15.981826
 20
12.331483
 30
0.0
 10
16.009759
 20
12.302341
 30
0.0
 10
16.044755
 20
12.283911
 30
0.0
 10
16.122496
 20
12.264841
 30
0.0
 10
16.159916
 20
12.254905
 30
0.0
 10
16.200261
 20
12.253821
 30
0.0
 10
16.235664
 20
12.266419
 30
0.0
 10
16.258260
 20
12.297528
 30
0.0
 10
16.247691
 20
12.329986
 30
0.0
 10
16.220896
 20
12.351318
 30
0.0
 10
16.155147
 20
12.379646
 30
0.0
 10
16.089138
 20
12.398000
 30
0.0
 10
16.020907
 20
12.402644
 30
0.0
 10
16.020907
 20
12.402644
 30
0.0
  0
LWPOLYLINE
  5
11a
100
AcDbEntity
  8
Layer_1
 62
7
100
AcDbPolyline
 90
11
 70
0
 10
16.722218
 20
12.390187
 30
0.0
 10
16.921538
 20
12.313623
 30
0.0
 10
16.832274
 20
12.312072
 30
0.0
 10
16.743054
 20
12.311749
 30
0.0
 10
16.768144
 20
12.335261
 30
0.0
 10
16.768398
 20
12.350918
 30
0.0
 10
16.755629
 20
12.364076
 30
0.0
 10
16.725372
 20
12.386082
 30
0.0
 10
16.713263
 20
12.394216
 30
0.0
 10
16.722218
 20
12.390187
 30
0.0
 10
16.722218
 20
12.390187
 30
0.0
  0
LWPOLYLINE
  5
11b
100
AcDbEntity
  8
Layer_1
 62
7
100
AcDbPolyline
 90
26
 70
0
 10
2.460129
 20
12.326908
 30
0.0
 10
2.464974
 20
12.301948
 30
0.0
 10
2.462413
 20
12.275472
 30
0.0
 10
2.458187
 20
12.221857
 30
0.0
 10
2.454307
 20
12.039967
 30
0.0
 10
2.451605
 20
11.949207
 30
0.0
 10
2.441884
 20
11.859642
 30
0.0
 10
2.415933
 20
11.851841
 30
0.0
 10
2.388279
 20
11.857924
 30
0.0
 10
2.332585
 20
11.877178
 30
0.0
 10
2.265050
 20
11.894582
 30
0.0
 10
2.232651
 20
11.905140
 30
0.0
 10
2.207948
 20
11.927276
 30
0.0
 10
2.213649
 20
11.946087
 30
0.0
 10
2.221784
 20
11.967791
 30
0.0
 10
2.223675
 20
12.010177
 30
0.0
 10
2.217757
 20
12.052104
 30
0.0
 10
2.212811
 20
12.093931
 30
0.0
 10
2.217617
 20
12.136019
 30
0.0
 10
2.228056
 20
12.189403
 30
0.0
 10
2.252544
 20
12.237489
 30
0.0
 10
2.290322
 20
12.274817
 30
0.0
 10
2.340626
 20
12.295929
 30
0.0
 10
2.400394
 20
12.314219
 30
0.0
 10
2.460129
 20
12.326908
 30
0.0
 10
2.460129
 20
12.326908
 30
0.0
  0
LWPOLYLINE
  5
11c
100
AcDbEntity
  8
Layer_1
 62
7
100
AcDbPolyline
 90
15
 70
0
 10
2.117328
 20
12.177694
 30
0.0
 10
2.108674
 20
11.935710
 30
0.0
 10
2.029933
 20
11.951950
 30
0.0
 10
1.955216
 20
11.982067
 30
0.0
 10
1.932253
 20
11.996758
 30
0.0
 10
1.917780
 20
12.017956
 30
0.0
 10
1.912056
 20
12.070151
 30
0.0
 10
1.914816
 20
12.102581
 30
0.0
 10
1.927710
 20
12.131646
 30
0.0
 10
1.949881
 20
12.153742
 30
0.0
 10
1.980475
 20
12.165269
 30
0.0
 10
2.047694
 20
12.192276
 30
0.0
 10
2.117163
 20
12.212530
 30
0.0
 10
2.117332
 20
12.177694
 30
0.0
 10
2.117328
 20
12.177694
 30
0.0
  0
LWPOLYLINE
  5
11d
100
AcDbEntity
  8
Layer_1
 62
7
100
AcDbPolyline
 90
8
 70
0
 10
1.814105
 20
12.122903
 30
0.0
 10
1.822550
 20
12.079749
 30
0.0
 10
1.810356
 20
12.040937
 30
0.0
 10
1.760413
 20
12.057625
 30
0.0
 10
1.717697
 20
12.088286
 30
0.0
 10
1.766653
 20
12.103677
 30
0.0
 10
1.814105
 20
12.122903
 30
0.0
 10
1.814105
 20
12.122903
 30
0.0
  0
LWPOLYLINE
  5
11e
100
AcDbEntity
  8
Layer_1
 62
7
100
AcDbPolyline
 90
6
 70
0
 10
17.485927
 20
12.022802
 30
0.0
 10
17.474580
 20
12.017320
 30
0.0
 10
17.471652
 20
12.019638
 30
0.0
 10
17.481738
 20
12.022971
 30
0.0
 10
17.485927
 20
12.022802
 30
0.0
 10
17.485927
 20
12.022802
 30
0.0
  0
LWPOLYLINE
  5
11f
100
AcDbEntity
  8
Layer_1
 62
7
100
AcDbPolyline
 90
29
 70
0
 10
1.272425
 20
11.980579
 30
0.0
 10
1.271136
 20
11.941444
 30
0.0
 10
1.261952
 20
11.901259
 30
0.0
 10
1.241756
 20
11.851553
 30
0.0
 10
1.236074
 20
11.798375
 30
0.0
 10
1.233069
 20
11.690033
 30
0.0
 10
1.222989
 20
11.572867
 30
0.0
 10
1.198067
 20
11.459129
 30
0.0
 10
1.186860
 20
11.438413
 30
0.0
 10
1.181837
 20
11.413543
 30
0.0
 10
1.174828
 20
11.391802
 30
0.0
 10
1.157663
 20
11.380471
 30
0.0
 10
1.111434
 20
11.395984
 30
0.0
 10
1.088719
 20
11.403278
 30
0.0
 10
1.071673
 20
11.417016
 30
0.0
 10
1.080788
 20
11.440181
 30
0.0
 10
1.079375
 20
11.465641
 30
0.0
 10
1.078776
 20
11.490853
 30
0.0
 10
1.090335
 20
11.513278
 30
0.0
 10
1.114000
 20
11.609270
 30
0.0
 10
1.127469
 20
11.656528
 30
0.0
 10
1.148603
 20
11.701148
 30
0.0
 10
1.173250
 20
11.798008
 30
0.0
 10
1.204571
 20
11.892715
 30
0.0
 10
1.214178
 20
11.950980
 30
0.0
 10
1.229000
 20
11.972813
 30
0.0
 10
1.258094
 20
11.979918
 30
0.0
 10
1.272425
 20
11.980578
 30
0.0
 10
1.272425
 20
11.980579
 30
0.0
  0
LWPOLYLINE
  5
120
100
AcDbEntity
  8
Layer_1
 62
7
100
AcDbPolyline
 90
25
 70
0
 10
1.102431
 20
11.941222
 30
0.0
 10
1.110223
 20
11.920845
 30
0.0
 10
1.108792
 20
11.900181
 30
0.0
 10
1.089611
 20
11.863667
 30
0.0
 10
1.074462
 20
11.760537
 30
0.0
 10
1.061062
 20
11.711020
 30
0.0
 10
1.037109
 20
11.665177
 30
0.0
 10
1.008622
 20
11.560855
 30
0.0
 10
0.992618
 20
11.509503
 30
0.0
 10
0.965840
 20
11.463153
 30
0.0
 10
0.943827
 20
11.459758
 30
0.0
 10
0.921090
 20
11.465105
 30
0.0
 10
0.878362
 20
11.486359
 30
0.0
 10
0.874760
 20
11.537966
 30
0.0
 10
0.877315
 20
11.592082
 30
0.0
 10
0.884108
 20
11.646981
 30
0.0
 10
0.900079
 20
11.699873
 30
0.0
 10
0.917250
 20
11.752724
 30
0.0
 10
0.927641
 20
11.807497
 30
0.0
 10
0.950528
 20
11.875253
 30
0.0
 10
0.973490
 20
11.901046
 30
0.0
 10
1.006393
 20
11.916390
 30
0.0
 10
1.053535
 20
11.933146
 30
0.0
 10
1.102431
 20
11.941222
 30
0.0
 10
1.102431
 20
11.941222
 30
0.0
  0
LWPOLYLINE
  5
121
100
AcDbEntity
  8
Layer_1
 62
7
100
AcDbPolyline
 90
19
 70
0
 10
17.918080
 20
11.938468
 30
0.0
 10
17.885013
 20
11.933279
 30
0.0
 10
17.852975
 20
11.919999
 30
0.0
 10
17.829016
 20
11.897653
 30
0.0
 10
17.820184
 20
11.865266
 30
0.0
 10
17.835693
 20
11.850764
 30
0.0
 10
17.844869
 20
11.829765
 30
0.0
 10
17.856256
 20
11.811107
 30
0.0
 10
17.878393
 20
11.803627
 30
0.0
 10
17.960827
 20
11.793874
 30
0.0
 10
18.001859
 20
11.798861
 30
0.0
 10
18.039512
 20
11.813948
 30
0.0
 10
18.049412
 20
11.834723
 30
0.0
 10
18.050988
 20
11.855944
 30
0.0
 10
18.034267
 20
11.895764
 30
0.0
 10
17.999555
 20
11.925488
 30
0.0
 10
17.957057
 20
11.937195
 30
0.0
 10
17.918080
 20
11.938468
 30
0.0
 10
17.918080
 20
11.938468
 30
0.0
  0
LWPOLYLINE
  5
122
100
AcDbEntity
  8
Layer_1
 62
7
100
AcDbPolyline
 90
20
 70
0
 10
18.217445
 20
11.888471
 30
0.0
 10
18.183297
 20
11.884891
 30
0.0
 10
18.149926
 20
11.872348
 30
0.0
 10
18.125550
 20
11.849883
 30
0.0
 10
18.118391
 20
11.816537
 30
0.0
 10
18.147694
 20
11.778910
 30
0.0
 10
18.185864
 20
11.749370
 30
0.0
 10
18.229668
 20
11.728788
 30
0.0
 10
18.275873
 20
11.718035
 30
0.0
 10
18.295598
 20
11.724802
 30
0.0
 10
18.309335
 20
11.739540
 30
0.0
 10
18.322559
 20
11.755402
 30
0.0
 10
18.340745
 20
11.765544
 30
0.0
 10
18.385854
 20
11.805003
 30
0.0
 10
18.394819
 20
11.830964
 30
0.0
 10
18.382203
 20
11.856941
 30
0.0
 10
18.346236
 20
11.879887
 30
0.0
 10
18.304280
 20
11.887836
 30
0.0
 10
18.217445
 20
11.888471
 30
0.0
 10
18.217445
 20
11.888471
 30
0.0
  0
LWPOLYLINE
  5
123
100
AcDbEntity
  8
Layer_1
 62
7
100
AcDbPolyline
 90
20
 70
0
 10
0.834816
 20
11.869068
 30
0.0
 10
0.843190
 20
11.850961
 30
0.0
 10
0.841202
 20
11.828973
 30
0.0
 10
0.833416
 20
11.783939
 30
0.0
 10
0.823842
 20
11.733464
 30
0.0
 10
0.807194
 20
11.685337
 30
0.0
 10
0.791522
 20
11.636962
 30
0.0
 10
0.784876
 20
11.585743
 30
0.0
 10
0.774162
 20
11.544475
 30
0.0
 10
0.759576
 20
11.533687
 30
0.0
 10
0.737608
 20
11.537567
 30
0.0
 10
0.651144
 20
11.569109
 30
0.0
 10
0.570729
 20
11.614627
 30
0.0
 10
0.572141
 20
11.672285
 30
0.0
 10
0.587184
 20
11.728017
 30
0.0
 10
0.612699
 20
11.779902
 30
0.0
 10
0.645529
 20
11.826018
 30
0.0
 10
0.806704
 20
11.866588
 30
0.0
 10
0.834816
 20
11.869068
 30
0.0
 10
0.834816
 20
11.869068
 30
0.0
  0
LWPOLYLINE
  5
124
100
AcDbEntity
  8
Layer_1
 62
7
100
AcDbPolyline
 90
17
 70
0
 10
18.023252
 20
11.784126
 30
0.0
 10
17.944519
 20
11.770127
 30
0.0
 10
17.908948
 20
11.752027
 30
0.0
 10
17.878668
 20
11.725697
 30
0.0
 10
17.930731
 20
11.677509
 30
0.0
 10
17.994541
 20
11.645205
 30
0.0
 10
18.063625
 20
11.635797
 30
0.0
 10
18.098122
 20
11.641871
 30
0.0
 10
18.131510
 20
11.656299
 30
0.0
 10
18.158729
 20
11.675841
 30
0.0
 10
18.176282
 20
11.705123
 30
0.0
 10
18.177606
 20
11.736490
 30
0.0
 10
18.156136
 20
11.762291
 30
0.0
 10
18.124985
 20
11.775992
 30
0.0
 10
18.091595
 20
11.782367
 30
0.0
 10
18.023252
 20
11.784126
 30
0.0
 10
18.023252
 20
11.784126
 30
0.0
  0
LWPOLYLINE
  5
125
100
AcDbEntity
  8
Layer_1
 62
7
100
AcDbPolyline
 90
79
 70
0
 10
19.219389
 20
11.690199
 30
0.0
 10
19.800315
 20
11.617328
 30
0.0
 10
19.760213
 20
11.611110
 30
0.0
 10
19.720605
 20
11.597424
 30
0.0
 10
19.688179
 20
11.574066
 30
0.0
 10
19.669621
 20
11.538835
 30
0.0
 10
19.690909
 20
11.511998
 30
0.0
 10
19.722037
 20
11.497290
 30
0.0
 10
19.791385
 20
11.483438
 30
0.0
 10
19.835485
 20
11.487621
 30
0.0
 10
19.877452
 20
11.504270
 30
0.0
 10
19.911043
 20
11.532690
 30
0.0
 10
19.930015
 20
11.572184
 30
0.0
 10
19.918651
 20
11.594478
 30
0.0
 10
19.917935
 20
11.599349
 30
0.0
 10
19.931889
 20
11.595941
 30
0.0
 10
19.971745
 20
11.582030
 30
0.0
 10
19.994066
 20
11.546662
 30
0.0
 10
20.029632
 20
11.500267
 30
0.0
 10
20.077906
 20
11.465990
 30
0.0
 10
20.133165
 20
11.452117
 30
0.0
 10
20.189683
 20
11.466936
 30
0.0
 10
20.219649
 20
11.480604
 30
0.0
 10
20.226477
 20
11.483022
 30
0.0
 10
20.215931
 20
11.473296
 30
0.0
 10
20.134459
 20
11.424986
 30
0.0
 10
20.044888
 20
11.392928
 30
0.0
 10
20.012118
 20
11.427233
 30
0.0
 10
19.967921
 20
11.445335
 30
0.0
 10
19.919047
 20
11.449926
 30
0.0
 10
19.872248
 20
11.443695
 30
0.0
 10
19.852452
 20
11.418236
 30
0.0
 10
19.854463
 20
11.387986
 30
0.0
 10
19.871955
 20
11.360130
 30
0.0
 10
19.898599
 20
11.341850
 30
0.0
 10
19.916251
 20
11.333213
 30
0.0
 10
19.919059
 20
11.323731
 30
0.0
 10
19.892094
 20
11.305504
 30
0.0
 10
19.798054
 20
11.265928
 30
0.0
 10
19.782497
 20
11.299160
 30
0.0
 10
19.758813
 20
11.326214
 30
0.0
 10
19.728227
 20
11.344152
 30
0.0
 10
19.691962
 20
11.350035
 30
0.0
 10
19.655646
 20
11.347997
 30
0.0
 10
19.620149
 20
11.334560
 30
0.0
 10
19.594289
 20
11.310108
 30
0.0
 10
19.586884
 20
11.275023
 30
0.0
 10
19.600622
 20
11.252506
 30
0.0
 10
19.623293
 20
11.239255
 30
0.0
 10
19.671330
 20
11.219516
 30
0.0
 10
19.631812
 20
11.202040
 30
0.0
 10
19.591391
 20
11.211298
 30
0.0
 10
19.557315
 20
11.238872
 30
0.0
 10
19.536833
 20
11.276346
 30
0.0
 10
19.528228
 20
11.299931
 30
0.0
 10
19.513077
 20
11.319915
 30
0.0
 10
19.487499
 20
11.360407
 30
0.0
 10
19.529076
 20
11.367489
 30
0.0
 10
19.567757
 20
11.387341
 30
0.0
 10
19.597508
 20
11.417552
 30
0.0
 10
19.612295
 20
11.455712
 30
0.0
 10
19.593853
 20
11.481261
 30
0.0
 10
19.567060
 20
11.498656
 30
0.0
 10
19.505194
 20
11.517228
 30
0.0
 10
19.478505
 20
11.514186
 30
0.0
 10
19.467792
 20
11.512028
 30
0.0
 10
19.467325
 20
11.516180
 30
0.0
 10
19.474476
 20
11.547498
 30
0.0
 10
19.454978
 20
11.571578
 30
0.0
 10
19.456851
 20
11.603355
 30
0.0
 10
19.441972
 20
11.629365
 30
0.0
 10
19.416506
 20
11.648312
 30
0.0
 10
19.386618
 20
11.658900
 30
0.0
 10
19.347445
 20
11.668857
 30
0.0
 10
19.307813
 20
11.666053
 30
0.0
 10
19.233114
 20
11.636125
 30
0.0
 10
19.222501
 20
11.664389
 30
0.0
 10
19.219388
 20
11.690199
 30
0.0
 10
19.219389
 20
11.690199
 30
0.0
  0
LWPOLYLINE
  5
126
100
AcDbEntity
  8
Layer_1
 62
7
100
AcDbPolyline
 90
12
 70
0
 10
20.310409
 20
11.572900
 30
0.0
 10
20.326008
 20
11.571235
 30
0.0
 10
20.323643
 20
11.560117
 30
0.0
 10
20.301314
 20
11.535638
 30
0.0
 10
20.271386
 20
11.510655
 30
0.0
 10
20.248342
 20
11.498266
 30
0.0
 10
20.261325
 20
11.511448
 30
0.0
 10
20.267649
 20
11.527937
 30
0.0
 10
20.271108
 20
11.563033
 30
0.0
 10
20.289753
 20
11.571169
 30
0.0
 10
20.310409
 20
11.572900
 30
0.0
 10
20.310409
 20
11.572900
 30
0.0
  0
LWPOLYLINE
  5
127
100
AcDbEntity
  8
Layer_1
 62
7
100
AcDbPolyline
 90
8
 70
0
 10
19.416007
 20
11.480296
 30
0.0
 10
19.405370
 20
11.470976
 30
0.0
 10
19.397879
 20
11.472775
 30
0.0
 10
19.398570
 20
11.478430
 30
0.0
 10
19.412479
 20
11.480683
 30
0.0
 10
19.418543
 20
11.482446
 30
0.0
 10
19.416008
 20
11.480296
 30
0.0
 10
19.416007
 20
11.480296
 30
0.0
  0
LWPOLYLINE
  5
128
100
AcDbEntity
  8
Layer_1
 62
7
100
AcDbPolyline
 90
9
 70
0
 10
16.095597
 20
6.736703
 30
0.0
 10
16.083275
 20
6.718601
 30
0.0
 10
16.085938
 20
6.695141
 30
0.0
 10
16.099259
 20
6.680583
 30
0.0
 10
16.118913
 20
6.689188
 30
0.0
 10
16.119834
 20
6.721879
 30
0.0
 10
16.111082
 20
6.734555
 30
0.0
 10
16.095597
 20
6.736703
 30
0.0
 10
16.095597
 20
6.736703
 30
0.0
  0
LWPOLYLINE
  5
129
100
AcDbEntity
  8
Layer_1
 62
7
100
AcDbPolyline
 90
946
 70
0
 10
12.163723
 20
6.482923
 30
0.0
 10
12.035193
 20
6.464854
 30
0.0
 10
11.908637
 20
6.435517
 30
0.0
 10
11.787372
 20
6.390633
 30
0.0
 10
11.674714
 20
6.325922
 30
0.0
 10
11.598069
 20
6.268108
 30
0.0
 10
11.529835
 20
6.200777
 30
0.0
 10
11.471151
 20
6.125043
 30
0.0
 10
11.423155
 20
6.042022
 30
0.0
 10
11.377838
 20
5.991804
 30
0.0
 10
11.357218
 20
5.965907
 30
0.0
 10
11.346326
 20
5.933527
 30
0.0
 10
11.310952
 20
5.712525
 30
0.0
 10
11.287004
 20
5.489352
 30
0.0
 10
11.270552
 20
5.379864
 30
0.0
 10
11.248485
 20
5.271462
 30
0.0
 10
11.269354
 20
5.237112
 30
0.0
 10
11.287788
 20
5.229302
 30
0.0
 10
11.307796
 20
5.232491
 30
0.0
 10
11.315698
 20
4.955472
 30
0.0
 10
11.329588
 20
4.818330
 30
0.0
 10
11.367768
 20
4.685741
 30
0.0
 10
11.375597
 20
4.603747
 30
0.0
 10
11.376012
 20
4.520988
 30
0.0
 10
11.377817
 20
4.438447
 30
0.0
 10
11.389817
 20
4.357106
 30
0.0
 10
11.422326
 20
4.299374
 30
0.0
 10
11.438556
 20
4.270585
 30
0.0
 10
11.448521
 20
4.238540
 30
0.0
 10
11.460768
 20
4.210339
 30
0.0
 10
11.482107
 20
4.187917
 30
0.0
 10
11.508800
 20
4.179011
 30
0.0
 10
11.537108
 20
4.191357
 30
0.0
 10
11.567197
 20
4.236351
 30
0.0
 10
11.575949
 20
4.289649
 30
0.0
 10
11.574366
 20
4.400043
 30
0.0
 10
11.554024
 20
4.932740
 30
0.0
 10
11.572108
 20
4.780237
 30
0.0
 10
11.582620
 20
4.625941
 30
0.0
 10
11.600547
 20
4.459902
 30
0.0
 10
11.616033
 20
4.377991
 30
0.0
 10
11.640509
 20
4.298622
 30
0.0
 10
11.659489
 20
4.276408
 30
0.0
 10
11.686590
 20
4.266018
 30
0.0
 10
11.712851
 20
4.271201
 30
0.0
 10
11.729310
 20
4.295701
 30
0.0
 10
11.754943
 20
4.378664
 30
0.0
 10
11.768574
 20
4.464413
 30
0.0
 10
11.779877
 20
4.638116
 30
0.0
 10
11.779737
 20
4.724028
 30
0.0
 10
11.787077
 20
4.809489
 30
0.0
 10
11.805188
 20
4.698648
 30
0.0
 10
11.815589
 20
4.586219
 30
0.0
 10
11.824328
 20
4.486112
 30
0.0
 10
11.846940
 20
4.389353
 30
0.0
 10
11.869848
 20
4.381565
 30
0.0
 10
11.889479
 20
4.393650
 30
0.0
 10
11.902094
 20
4.416458
 30
0.0
 10
11.903956
 20
4.440841
 30
0.0
 10
11.933933
 20
4.631231
 30
0.0
 10
11.952773
 20
4.823324
 30
0.0
 10
11.952783
 20
4.596754
 30
0.0
 10
11.942079
 20
4.370611
 30
0.0
 10
11.928665
 20
4.331230
 30
0.0
 10
11.904551
 20
4.296345
 30
0.0
 10
11.871420
 20
4.270881
 30
0.0
 10
11.830954
 20
4.259762
 30
0.0
 10
11.800318
 20
4.223774
 30
0.0
 10
11.762435
 20
4.194093
 30
0.0
 10
11.534089
 20
4.063461
 30
0.0
 10
11.301162
 20
3.940681
 30
0.0
 10
10.830846
 20
3.703404
 30
0.0
 10
10.603343
 20
3.606296
 30
0.0
 10
10.565163
 20
3.618111
 30
0.0
 10
10.532731
 20
3.642069
 30
0.0
 10
10.472202
 20
3.697289
 30
0.0
 10
10.356122
 20
3.793623
 30
0.0
 10
10.231720
 20
3.879015
 30
0.0
 10
10.106565
 20
3.963376
 30
0.0
 10
9.988221
 20
4.056618
 30
0.0
 10
9.934676
 20
4.108826
 30
0.0
 10
9.888353
 20
4.164511
 30
0.0
 10
9.886473
 20
4.334915
 30
0.0
 10
9.873589
 20
4.504777
 30
0.0
 10
9.908662
 20
4.500549
 30
0.0
 10
9.939404
 20
4.514589
 30
0.0
 10
9.955458
 20
4.492491
 30
0.0
 10
9.962156
 20
4.465226
 30
0.0
 10
9.973083
 20
4.408645
 30
0.0
 10
9.997611
 20
4.285781
 30
0.0
 10
10.021359
 20
4.228759
 30
0.0
 10
10.062270
 20
4.182867
 30
0.0
 10
10.086798
 20
4.183439
 30
0.0
 10
10.103286
 20
4.199323
 30
0.0
 10
10.114029
 20
4.247304
 30
0.0
 10
10.124482
 20
4.327448
 30
0.0
 10
10.140983
 20
4.405834
 30
0.0
 10
10.149852
 20
4.330185
 30
0.0
 10
10.167245
 20
4.298153
 30
0.0
 10
10.199798
 20
4.281755
 30
0.0
 10
10.230034
 20
4.299445
 30
0.0
 10
10.243414
 20
4.331777
 30
0.0
 10
10.255305
 20
4.401534
 30
0.0
 10
10.280760
 20
4.371609
 30
0.0
 10
10.301106
 20
4.337557
 30
0.0
 10
10.322544
 20
4.304612
 30
0.0
 10
10.351272
 20
4.278007
 30
0.0
 10
10.382483
 20
4.288041
 30
0.0
 10
10.406303
 20
4.310343
 30
0.0
 10
10.447625
 20
4.363115
 30
0.0
 10
10.473734
 20
4.398121
 30
0.0
 10
10.491955
 20
4.407593
 30
0.0
 10
10.513880
 20
4.405062
 30
0.0
 10
10.542357
 20
4.419663
 30
0.0
 10
10.551585
 20
4.448802
 30
0.0
 10
10.550371
 20
4.514864
 30
0.0
 10
10.577970
 20
4.536133
 30
0.0
 10
10.589444
 20
4.568194
 30
0.0
 10
10.588219
 20
4.639744
 30
0.0
 10
10.578908
 20
4.719681
 30
0.0
 10
10.589066
 20
4.798629
 30
0.0
 10
10.578456
 20
5.055362
 30
0.0
 10
10.564868
 20
5.312032
 30
0.0
 10
10.551686
 20
5.428613
 30
0.0
 10
10.536214
 20
5.484860
 30
0.0
 10
10.511841
 20
5.537368
 30
0.0
 10
10.518947
 20
5.546794
 30
0.0
 10
10.531373
 20
5.551875
 30
0.0
 10
10.542990
 20
5.558426
 30
0.0
 10
10.547670
 20
5.572260
 30
0.0
 10
10.536342
 20
5.604589
 30
0.0
 10
10.510976
 20
5.627977
 30
0.0
 10
10.481136
 20
5.648657
 30
0.0
 10
10.456388
 20
5.672857
 30
0.0
 10
10.308936
 20
5.836146
 30
0.0
 10
10.173505
 20
6.009043
 30
0.0
 10
10.143165
 20
6.041908
 30
0.0
 10
10.102470
 20
6.060510
 30
0.0
 10
10.014025
 20
6.084547
 30
0.0
 10
9.862148
 20
6.111634
 30
0.0
 10
9.785224
 20
6.114625
 30
0.0
 10
9.708996
 20
6.105892
 30
0.0
 10
9.637130
 20
6.072914
 30
0.0
 10
9.565735
 20
6.046416
 30
0.0
 10
9.542676
 20
6.056123
 30
0.0
 10
9.519742
 20
6.046537
 30
0.0
 10
9.484816
 20
6.005626
 30
0.0
 10
9.433120
 20
5.953685
 30
0.0
 10
9.375272
 20
5.907821
 30
0.0
 10
9.320189
 20
5.859500
 30
0.0
 10
9.276788
 20
5.800188
 30
0.0
 10
9.218696
 20
5.703145
 30
0.0
 10
9.185683
 20
5.658086
 30
0.0
 10
9.142291
 20
5.623137
 30
0.0
 10
9.125619
 20
5.588439
 30
0.0
 10
9.118213
 20
5.550218
 30
0.0
 10
9.107344
 20
5.472601
 30
0.0
 10
9.066830
 20
5.125390
 30
0.0
 10
9.082951
 20
5.056040
 30
0.0
 10
9.091158
 20
4.985496
 30
0.0
 10
9.089117
 20
4.900471
 30
0.0
 10
9.078185
 20
4.815758
 30
0.0
 10
9.067630
 20
4.731081
 30
0.0
 10
9.066720
 20
4.646163
 30
0.0
 10
9.113285
 20
4.444864
 30
0.0
 10
9.184129
 20
4.251052
 30
0.0
 10
9.241021
 20
4.167675
 30
0.0
 10
9.303632
 20
4.089712
 30
0.0
 10
9.339591
 20
4.087702
 30
0.0
 10
9.370990
 20
4.106634
 30
0.0
 10
9.380380
 20
4.078353
 30
0.0
 10
9.399045
 20
4.053226
 30
0.0
 10
9.424023
 20
4.040402
 30
0.0
 10
9.452350
 20
4.049032
 30
0.0
 10
9.479699
 20
4.092432
 30
0.0
 10
9.489829
 20
4.142817
 30
0.0
 10
9.495923
 20
4.195162
 30
0.0
 10
9.511165
 20
4.244438
 30
0.0
 10
9.519718
 20
4.267771
 30
0.0
 10
9.538891
 20
4.248407
 30
0.0
 10
9.558779
 20
4.239235
 30
0.0
 10
9.578248
 20
4.244754
 30
0.0
 10
9.602997
 20
4.279826
 30
0.0
 10
9.617415
 20
4.217266
 30
0.0
 10
9.636725
 20
4.193952
 30
0.0
 10
9.667655
 20
4.186615
 30
0.0
 10
9.687831
 20
4.197506
 30
0.0
 10
9.694298
 20
4.217681
 30
0.0
 10
9.688933
 20
4.263300
 30
0.0
 10
9.677739
 20
4.405922
 30
0.0
 10
9.675371
 20
4.548874
 30
0.0
 10
9.696455
 20
4.340222
 30
0.0
 10
9.701443
 20
4.235623
 30
0.0
 10
9.695798
 20
4.131214
 30
0.0
 10
9.660330
 20
4.066411
 30
0.0
 10
9.607192
 20
4.015253
 30
0.0
 10
9.487934
 20
3.924968
 30
0.0
 10
9.335243
 20
3.812501
 30
0.0
 10
9.177376
 20
3.707543
 30
0.0
 10
9.014825
 20
3.609996
 30
0.0
 10
8.848085
 20
3.519762
 30
0.0
 10
8.758899
 20
3.469090
 30
0.0
 10
8.671664
 20
3.415906
 30
0.0
 10
8.653957
 20
3.397038
 30
0.0
 10
8.632048
 20
3.387413
 30
0.0
 10
8.582278
 20
3.389250
 30
0.0
 10
8.348090
 20
3.423099
 30
0.0
 10
8.117818
 20
3.476567
 30
0.0
 10
7.890631
 20
3.543242
 30
0.0
 10
7.665696
 20
3.616714
 30
0.0
 10
7.666885
 20
3.783973
 30
0.0
 10
7.664805
 20
3.867334
 30
0.0
 10
7.651705
 20
3.949117
 30
0.0
 10
7.624458
 20
3.990501
 30
0.0
 10
7.618448
 20
4.039094
 30
0.0
 10
7.614929
 20
4.503344
 30
0.0
 10
7.798649
 20
4.512027
 30
0.0
 10
7.980804
 20
4.544588
 30
0.0
 10
8.068424
 20
4.572319
 30
0.0
 10
8.152208
 20
4.609016
 30
0.0
 10
8.231007
 20
4.655677
 30
0.0
 10
8.303672
 20
4.713302
 30
0.0
 10
8.358977
 20
4.776195
 30
0.0
 10
8.399366
 20
4.848789
 30
0.0
 10
8.425836
 20
4.927930
 30
0.0
 10
8.439381
 20
5.010462
 30
0.0
 10
8.446460
 20
5.091344
 30
0.0
 10
8.445590
 20
5.172538
 30
0.0
 10
8.447264
 20
5.334466
 30
0.0
 10
8.461309
 20
5.347962
 30
0.0
 10
8.483695
 20
5.346770
 30
0.0
 10
8.507474
 20
5.345352
 30
0.0
 10
8.525702
 20
5.358168
 30
0.0
 10
8.526886
 20
5.388272
 30
0.0
 10
8.510922
 20
5.413226
 30
0.0
 10
8.484710
 20
5.430384
 30
0.0
 10
8.455146
 20
5.437103
 30
0.0
 10
8.435396
 20
5.511376
 30
0.0
 10
8.428444
 20
5.589208
 30
0.0
 10
8.419258
 20
5.666365
 30
0.0
 10
8.392804
 20
5.738617
 30
0.0
 10
8.365559
 20
5.772932
 30
0.0
 10
8.355077
 20
5.816098
 30
0.0
 10
8.348616
 20
5.844954
 30
0.0
 10
8.334261
 20
5.870687
 30
0.0
 10
8.312433
 20
5.888313
 30
0.0
 10
8.283553
 20
5.892847
 30
0.0
 10
8.276537
 20
5.908718
 30
0.0
 10
8.276161
 20
5.928424
 30
0.0
 10
8.278494
 20
5.968322
 30
0.0
 10
8.279723
 20
6.024666
 30
0.0
 10
8.274437
 20
6.051630
 30
0.0
 10
8.259134
 20
6.072929
 30
0.0
 10
8.231559
 20
6.068008
 30
0.0
 10
8.213259
 20
6.046271
 30
0.0
 10
8.189571
 20
5.990798
 30
0.0
 10
8.179692
 20
5.965461
 30
0.0
 10
8.177147
 20
5.979582
 30
0.0
 10
8.178868
 20
6.041327
 30
0.0
 10
8.177006
 20
6.116471
 30
0.0
 10
8.170856
 20
6.153265
 30
0.0
 10
8.156057
 20
6.186810
 30
0.0
 10
8.132829
 20
6.189776
 30
0.0
 10
8.116219
 20
6.174081
 30
0.0
 10
8.097005
 20
6.127757
 30
0.0
 10
8.052594
 20
6.017587
 30
0.0
 10
8.058008
 20
6.102126
 30
0.0
 10
8.058986
 20
6.144313
 30
0.0
 10
8.051603
 20
6.185487
 30
0.0
 10
8.023293
 20
6.197412
 30
0.0
 10
7.995656
 20
6.187741
 30
0.0
 10
7.975309
 20
6.164031
 30
0.0
 10
7.968866
 20
6.133839
 30
0.0
 10
7.960787
 20
6.095583
 30
0.0
 10
7.956401
 20
6.081118
 30
0.0
 10
7.954038
 20
6.088253
 30
0.0
 10
7.958539
 20
6.170536
 30
0.0
 10
7.957678
 20
6.211403
 30
0.0
 10
7.947864
 20
6.250476
 30
0.0
 10
7.918175
 20
6.261148
 30
0.0
 10
7.888313
 20
6.253539
 30
0.0
 10
7.865130
 20
6.232354
 30
0.0
 10
7.855481
 20
6.202300
 30
0.0
 10
7.846690
 20
6.186997
 30
0.0
 10
7.844836
 20
6.197752
 30
0.0
 10
7.848370
 20
6.238128
 30
0.0
 10
7.846526
 20
6.265458
 30
0.0
 10
7.829820
 20
6.285766
 30
0.0
 10
7.805769
 20
6.292687
 30
0.0
 10
7.781893
 20
6.279855
 30
0.0
 10
7.770539
 20
6.262773
 30
0.0
 10
7.766435
 20
6.242340
 30
0.0
 10
7.761254
 20
6.223163
 30
0.0
 10
7.746671
 20
6.209851
 30
0.0
 10
7.758893
 20
6.260974
 30
0.0
 10
7.756146
 20
6.284235
 30
0.0
 10
7.734930
 20
6.297880
 30
0.0
 10
7.710152
 20
6.294935
 30
0.0
 10
7.690287
 20
6.279043
 30
0.0
 10
7.665422
 20
6.243034
 30
0.0
 10
7.656533
 20
6.268235
 30
0.0
 10
7.638457
 20
6.288085
 30
0.0
 10
7.615095
 20
6.296159
 30
0.0
 10
7.590346
 20
6.286029
 30
0.0
 10
7.583483
 20
6.275490
 30
0.0
 10
7.575785
 20
6.279332
 30
0.0
 10
7.566231
 20
6.287584
 30
0.0
 10
7.553801
 20
6.290273
 30
0.0
 10
7.522092
 20
6.274386
 30
0.0
 10
7.502479
 20
6.244658
 30
0.0
 10
7.486781
 20
6.210301
 30
0.0
 10
7.466819
 20
6.180526
 30
0.0
 10
7.465948
 20
6.255946
 30
0.0
 10
7.460649
 20
6.292365
 30
0.0
 10
7.440305
 20
6.323732
 30
0.0
 10
7.413568
 20
6.308611
 30
0.0
 10
7.401772
 20
6.280343
 30
0.0
 10
7.395326
 20
6.247399
 30
0.0
 10
7.384640
 20
6.218251
 30
0.0
 10
7.380918
 20
6.211887
 30
0.0
 10
7.383110
 20
6.226229
 30
0.0
 10
7.386286
 20
6.266075
 30
0.0
 10
7.377226
 20
6.289630
 30
0.0
 10
7.355971
 20
6.295795
 30
0.0
 10
7.332841
 20
6.287197
 30
0.0
 10
7.318156
 20
6.266462
 30
0.0
 10
7.293142
 20
6.182843
 30
0.0
 10
7.275106
 20
6.097955
 30
0.0
 10
7.273881
 20
6.166484
 30
0.0
 10
7.263426
 20
6.197986
 30
0.0
 10
7.239773
 20
6.221042
 30
0.0
 10
7.218635
 20
6.211554
 30
0.0
 10
7.208479
 20
6.188479
 30
0.0
 10
7.199975
 20
6.149825
 30
0.0
 10
7.192925
 20
6.168546
 30
0.0
 10
7.177293
 20
6.179429
 30
0.0
 10
7.158836
 20
6.179782
 30
0.0
 10
7.143310
 20
6.166912
 30
0.0
 10
7.130318
 20
6.149661
 30
0.0
 10
7.121961
 20
6.128816
 30
0.0
 10
7.111284
 20
6.111268
 30
0.0
 10
7.091331
 20
6.103908
 30
0.0
 10
7.065448
 20
6.082244
 30
0.0
 10
7.056762
 20
6.050435
 30
0.0
 10
7.050375
 20
5.981594
 30
0.0
 10
7.043535
 20
5.947055
 30
0.0
 10
7.038687
 20
5.941874
 30
0.0
 10
7.032240
 20
5.958388
 30
0.0
 10
7.021660
 20
5.979902
 30
0.0
 10
7.003134
 20
5.997190
 30
0.0
 10
6.981673
 20
6.003386
 30
0.0
 10
6.962291
 20
5.991626
 30
0.0
 10
6.952272
 20
5.955354
 30
0.0
 10
6.950862
 20
5.917506
 30
0.0
 10
6.954068
 20
5.841302
 30
0.0
 10
6.963856
 20
5.787946
 30
0.0
 10
6.962808
 20
5.762081
 30
0.0
 10
6.951294
 20
5.736880
 30
0.0
 10
6.904585
 20
5.615071
 30
0.0
 10
6.874758
 20
5.487870
 30
0.0
 10
6.862355
 20
5.469758
 30
0.0
 10
6.842213
 20
5.461682
 30
0.0
 10
6.820787
 20
5.454299
 30
0.0
 10
6.804534
 20
5.438261
 30
0.0
 10
6.797826
 20
5.402425
 30
0.0
 10
6.812647
 20
5.368870
 30
0.0
 10
6.834435
 20
5.335836
 30
0.0
 10
6.848631
 20
5.301559
 30
0.0
 10
6.876240
 20
5.178884
 30
0.0
 10
6.918380
 20
5.060125
 30
0.0
 10
7.026893
 20
4.832170
 30
0.0
 10
7.078591
 20
4.740723
 30
0.0
 10
7.146756
 20
4.661205
 30
0.0
 10
7.229025
 20
4.596514
 30
0.0
 10
7.323037
 20
4.549551
 30
0.0
 10
7.378721
 20
4.531176
 30
0.0
 10
7.431376
 20
4.511337
 30
0.0
 10
7.434566
 20
4.432080
 30
0.0
 10
7.433743
 20
4.352095
 30
0.0
 10
7.434774
 20
4.161456
 30
0.0
 10
7.425754
 20
3.971587
 30
0.0
 10
7.401160
 20
3.929686
 30
0.0
 10
7.395598
 20
3.881459
 30
0.0
 10
7.397164
 20
3.830960
 30
0.0
 10
7.393949
 20
3.782245
 30
0.0
 10
7.190361
 20
3.924340
 30
0.0
 10
6.993367
 20
4.076284
 30
0.0
 10
6.869212
 20
4.196214
 30
0.0
 10
6.767052
 20
4.334783
 30
0.0
 10
6.729662
 20
4.357636
 30
0.0
 10
6.686193
 20
4.366994
 30
0.0
 10
6.641290
 20
4.364508
 30
0.0
 10
6.599604
 20
4.351828
 30
0.0
 10
6.558014
 20
4.314111
 30
0.0
 10
6.534183
 20
4.261708
 30
0.0
 10
6.534846
 20
4.206571
 30
0.0
 10
6.546468
 20
4.181713
 30
0.0
 10
6.566740
 20
4.160654
 30
0.0
 10
6.619251
 20
4.149034
 30
0.0
 10
6.644282
 20
4.142084
 30
0.0
 10
6.664109
 20
4.123028
 30
0.0
 10
6.843320
 20
3.948449
 30
0.0
 10
6.938902
 20
3.867970
 30
0.0
 10
7.040354
 20
3.794695
 30
0.0
 10
7.169425
 20
3.702371
 30
0.0
 10
7.227893
 20
3.649495
 30
0.0
 10
7.278194
 20
3.588658
 30
0.0
 10
7.320878
 20
3.556056
 30
0.0
 10
7.371680
 20
3.538552
 30
0.0
 10
7.391142
 20
3.504273
 30
0.0
 10
7.399147
 20
3.465104
 30
0.0
 10
7.407914
 20
3.384502
 30
0.0
 10
7.430298
 20
3.119963
 30
0.0
 10
7.467293
 20
2.856961
 30
0.0
 10
7.491021
 20
2.599846
 30
0.0
 10
7.507499
 20
2.342085
 30
0.0
 10
7.552754
 20
2.102967
 30
0.0
 10
7.576195
 20
2.071167
 30
0.0
 10
7.582902
 20
2.055631
 30
0.0
 10
7.574410
 20
2.038598
 30
0.0
 10
7.450796
 20
1.844000
 30
0.0
 10
7.338339
 20
1.642740
 30
0.0
 10
7.201874
 20
1.411054
 30
0.0
 10
7.051148
 20
1.187784
 30
0.0
 10
6.981576
 20
1.104621
 30
0.0
 10
6.950068
 20
1.061488
 30
0.0
 10
6.933136
 20
1.010336
 30
0.0
 10
6.901605
 20
0.934124
 30
0.0
 10
6.873902
 20
0.856198
 30
0.0
 10
6.849862
 20
0.771874
 30
0.0
 10
6.814968
 20
0.691858
 30
0.0
 10
6.738058
 20
0.534484
 30
0.0
 10
6.738593
 20
0.477938
 30
0.0
 10
6.764935
 20
0.427605
 30
0.0
 10
6.809920
 20
0.395337
 30
0.0
 10
6.837164
 20
0.389681
 30
0.0
 10
6.866381
 20
0.392987
 30
0.0
 10
6.904302
 20
0.399601
 30
0.0
 10
6.938055
 20
0.418421
 30
0.0
 10
6.960390
 20
0.447909
 30
0.0
 10
6.964057
 20
0.486526
 30
0.0
 10
6.973049
 20
0.563935
 30
0.0
 10
7.001125
 20
0.636389
 30
0.0
 10
7.045890
 20
0.699962
 30
0.0
 10
7.104947
 20
0.750726
 30
0.0
 10
7.123062
 20
0.774790
 30
0.0
 10
7.131873
 20
0.803975
 30
0.0
 10
7.131947
 20
0.833669
 30
0.0
 10
7.123854
 20
0.859260
 30
0.0
 10
7.168034
 20
0.876796
 30
0.0
 10
7.198768
 20
0.914690
 30
0.0
 10
7.206556
 20
0.960146
 30
0.0
 10
7.198876
 20
0.981712
 30
0.0
 10
7.181897
 20
1.000371
 30
0.0
 10
7.176049
 20
1.030037
 30
0.0
 10
7.188023
 20
1.058586
 30
0.0
 10
7.223912
 20
1.112791
 30
0.0
 10
7.435736
 20
1.457891
 30
0.0
 10
7.637807
 20
1.808232
 30
0.0
 10
7.651882
 20
1.831349
 30
0.0
 10
7.663192
 20
1.830991
 30
0.0
 10
7.680366
 20
1.789751
 30
0.0
 10
7.725306
 20
1.681326
 30
0.0
 10
7.782152
 20
1.579921
 30
0.0
 10
7.917354
 20
1.389718
 30
0.0
 10
8.057552
 20
1.202240
 30
0.0
 10
8.120643
 20
1.104241
 30
0.0
 10
8.174325
 20
1.000586
 30
0.0
 10
8.282235
 20
0.778053
 30
0.0
 10
8.392200
 20
0.556698
 30
0.0
 10
8.425042
 20
0.537345
 30
0.0
 10
8.463520
 20
0.529863
 30
0.0
 10
8.502057
 20
0.534737
 30
0.0
 10
8.535075
 20
0.552453
 30
0.0
 10
8.563811
 20
0.607815
 30
0.0
 10
8.564459
 20
0.669541
 30
0.0
 10
8.542675
 20
0.729212
 30
0.0
 10
8.504113
 20
0.778406
 30
0.0
 10
8.426343
 20
0.905470
 30
0.0
 10
8.361684
 20
1.040081
 30
0.0
 10
8.295464
 20
1.173737
 30
0.0
 10
8.213012
 20
1.297935
 30
0.0
 10
8.000183
 20
1.580071
 30
0.0
 10
7.906255
 20
1.728464
 30
0.0
 10
7.869603
 20
1.808058
 30
0.0
 10
7.842565
 20
1.892608
 30
0.0
 10
7.827964
 20
1.954603
 30
0.0
 10
7.826223
 20
2.014869
 30
0.0
 10
7.860375
 20
2.064098
 30
0.0
 10
7.872537
 20
2.123016
 30
0.0
 10
7.864999
 20
2.183689
 30
0.0
 10
7.840048
 20
2.238181
 30
0.0
 10
7.820287
 20
2.279794
 30
0.0
 10
7.812964
 20
2.326197
 30
0.0
 10
7.808931
 20
2.374067
 30
0.0
 10
7.799037
 20
2.420081
 30
0.0
 10
7.783359
 20
2.562711
 30
0.0
 10
7.776345
 20
2.706395
 30
0.0
 10
7.766860
 20
2.849874
 30
0.0
 10
7.743769
 20
2.991889
 30
0.0
 10
7.717174
 20
3.194634
 30
0.0
 10
7.712566
 20
3.296535
 30
0.0
 10
7.717953
 20
3.397827
 30
0.0
 10
7.768772
 20
3.386099
 30
0.0
 10
7.819881
 20
3.370657
 30
0.0
 10
8.115034
 20
3.280169
 30
0.0
 10
8.265062
 20
3.244545
 30
0.0
 10
8.417391
 20
3.219509
 30
0.0
 10
8.534989
 20
3.200064
 30
0.0
 10
8.650334
 20
3.171609
 30
0.0
 10
8.687174
 20
3.171370
 30
0.0
 10
8.721358
 20
3.182827
 30
0.0
 10
8.750691
 20
3.204054
 30
0.0
 10
8.772980
 20
3.233124
 30
0.0
 10
8.830594
 20
3.267902
 30
0.0
 10
8.884100
 20
3.308535
 30
0.0
 10
8.964215
 20
3.358291
 30
0.0
 10
9.048694
 20
3.400112
 30
0.0
 10
9.133485
 20
3.441562
 30
0.0
 10
9.214537
 20
3.490202
 30
0.0
 10
9.281759
 20
3.520173
 30
0.0
 10
9.350598
 20
3.544340
 30
0.0
 10
9.394883
 20
3.598223
 30
0.0
 10
9.446109
 20
3.645346
 30
0.0
 10
9.697919
 20
3.846076
 30
0.0
 10
9.708664
 20
3.603561
 30
0.0
 10
9.733831
 20
3.361962
 30
0.0
 10
9.764506
 20
3.093676
 30
0.0
 10
9.772388
 20
2.823681
 30
0.0
 10
9.782545
 20
2.383035
 30
0.0
 10
9.792999
 20
1.942457
 30
0.0
 10
9.789174
 20
1.905442
 30
0.0
 10
9.775493
 20
1.870715
 30
0.0
 10
9.761258
 20
1.836061
 30
0.0
 10
9.755769
 20
1.799265
 30
0.0
 10
9.728727
 20
1.729101
 30
0.0
 10
9.693830
 20
1.663300
 30
0.0
 10
9.608411
 20
1.540330
 30
0.0
 10
9.515393
 20
1.421457
 30
0.0
 10
9.430654
 20
1.297780
 30
0.0
 10
9.294665
 20
1.053066
 30
0.0
 10
9.226944
 20
0.930651
 30
0.0
 10
9.152924
 20
0.812143
 30
0.0
 10
9.087833
 20
0.706920
 30
0.0
 10
9.061266
 20
0.651417
 30
0.0
 10
9.046989
 20
0.591809
 30
0.0
 10
9.058592
 20
0.537093
 30
0.0
 10
9.092734
 20
0.492388
 30
0.0
 10
9.141482
 20
0.468100
 30
0.0
 10
9.168854
 20
0.466865
 30
0.0
 10
9.196905
 20
0.474636
 30
0.0
 10
9.231764
 20
0.502009
 30
0.0
 10
9.249918
 20
0.541379
 30
0.0
 10
9.271058
 20
0.628024
 30
0.0
 10
9.356150
 20
0.773363
 30
0.0
 10
9.451330
 20
0.934847
 30
0.0
 10
9.539607
 20
1.100748
 30
0.0
 10
9.633757
 20
1.262573
 30
0.0
 10
9.746555
 20
1.411828
 30
0.0
 10
9.826504
 20
1.516372
 30
0.0
 10
9.898727
 20
1.626331
 30
0.0
 10
9.984309
 20
1.535943
 30
0.0
 10
10.055415
 20
1.434563
 30
0.0
 10
10.171523
 20
1.214849
 30
0.0
 10
10.300167
 20
0.895309
 30
0.0
 10
10.366144
 20
0.736317
 30
0.0
 10
10.442258
 20
0.581785
 30
0.0
 10
10.490047
 20
0.496631
 30
0.0
 10
10.525280
 20
0.465322
 30
0.0
 10
10.572587
 20
0.454116
 30
0.0
 10
10.611771
 20
0.464323
 30
0.0
 10
10.642874
 20
0.489553
 30
0.0
 10
10.660279
 20
0.524956
 30
0.0
 10
10.658371
 20
0.565681
 30
0.0
 10
10.634519
 20
0.630371
 30
0.0
 10
10.603715
 20
0.692172
 30
0.0
 10
10.542699
 20
0.816421
 30
0.0
 10
10.423157
 20
1.108672
 30
0.0
 10
10.362562
 20
1.254348
 30
0.0
 10
10.293121
 20
1.396253
 30
0.0
 10
10.242565
 20
1.487091
 30
0.0
 10
10.185112
 20
1.573493
 30
0.0
 10
10.056644
 20
1.736694
 30
0.0
 10
9.999004
 20
1.822251
 30
0.0
 10
9.980468
 20
1.869115
 30
0.0
 10
9.977895
 20
1.920561
 30
0.0
 10
9.956915
 20
2.615126
 30
0.0
 10
9.945851
 20
2.962366
 30
0.0
 10
9.926600
 20
3.309186
 30
0.0
 10
9.893892
 20
3.585383
 30
0.0
 10
9.882493
 20
3.723725
 30
0.0
 10
9.881143
 20
3.862171
 30
0.0
 10
10.011421
 20
3.786391
 30
0.0
 10
10.136999
 20
3.701222
 30
0.0
 10
10.353902
 20
3.539242
 30
0.0
 10
10.562255
 20
3.366601
 30
0.0
 10
10.605272
 20
3.351692
 30
0.0
 10
10.651766
 20
3.351076
 30
0.0
 10
10.694190
 20
3.366415
 30
0.0
 10
10.724998
 20
3.399371
 30
0.0
 10
10.767895
 20
3.420919
 30
0.0
 10
10.789128
 20
3.431690
 30
0.0
 10
10.805145
 20
3.450413
 30
0.0
 10
10.832718
 20
3.482040
 30
0.0
 10
10.868834
 20
3.503003
 30
0.0
 10
10.945607
 20
3.539851
 30
0.0
 10
11.437781
 20
3.786972
 30
0.0
 10
11.680168
 20
3.917357
 30
0.0
 10
11.914715
 20
4.061361
 30
0.0
 10
11.948736
 20
4.086592
 30
0.0
 10
11.965743
 20
4.098540
 30
0.0
 10
11.983423
 20
4.101398
 30
0.0
 10
12.006122
 20
3.906481
 30
0.0
 10
12.014921
 20
3.709604
 30
0.0
 10
12.013954
 20
3.399188
 30
0.0
 10
11.995345
 20
3.089489
 30
0.0
 10
11.979593
 20
3.039186
 30
0.0
 10
11.954668
 20
2.992792
 30
0.0
 10
11.903550
 20
2.899988
 30
0.0
 10
11.749005
 20
2.588341
 30
0.0
 10
11.605688
 20
2.271057
 30
0.0
 10
11.338189
 20
1.629646
 30
0.0
 10
11.193101
 20
1.293694
 30
0.0
 10
11.059559
 20
0.952921
 30
0.0
 10
10.989096
 20
0.739847
 30
0.0
 10
10.960354
 20
0.631434
 30
0.0
 10
10.939145
 20
0.521474
 30
0.0
 10
10.944775
 20
0.481621
 30
0.0
 10
10.963506
 20
0.446611
 30
0.0
 10
10.992950
 20
0.420628
 30
0.0
 10
11.030718
 20
0.407857
 30
0.0
 10
11.094511
 20
0.372250
 30
0.0
 10
11.129648
 20
0.366435
 30
0.0
 10
11.165773
 20
0.374450
 30
0.0
 10
11.311114
 20
0.393877
 30
0.0
 10
11.457859
 20
0.396862
 30
0.0
 10
11.751030
 20
0.373519
 30
0.0
 10
11.794710
 20
0.358066
 30
0.0
 10
11.841840
 20
0.350759
 30
0.0
 10
11.888103
 20
0.355962
 30
0.0
 10
11.929183
 20
0.378040
 30
0.0
 10
12.007410
 20
0.397863
 30
0.0
 10
12.088952
 20
0.403662
 30
0.0
 10
12.253346
 20
0.404315
 30
0.0
 10
12.454938
 20
0.424042
 30
0.0
 10
12.656512
 20
0.441927
 30
0.0
 10
12.730168
 20
0.373648
 30
0.0
 10
12.774430
 20
0.353498
 30
0.0
 10
12.824743
 20
0.354006
 30
0.0
 10
12.852097
 20
0.356106
 30
0.0
 10
12.877175
 20
0.367610
 30
0.0
 10
12.893249
 20
0.387636
 30
0.0
 10
12.893589
 20
0.415302
 30
0.0
 10
12.905814
 20
0.435777
 30
0.0
 10
12.929658
 20
0.441195
 30
0.0
 10
12.983645
 20
0.442186
 30
0.0
 10
13.151580
 20
0.452391
 30
0.0
 10
13.235427
 20
0.453903
 30
0.0
 10
13.318191
 20
0.445398
 30
0.0
 10
13.344266
 20
0.431440
 30
0.0
 10
13.373481
 20
0.426854
 30
0.0
 10
13.431554
 20
0.441784
 30
0.0
 10
13.455527
 20
0.459294
 30
0.0
 10
13.472869
 20
0.482163
 30
0.0
 10
13.481135
 20
0.509388
 30
0.0
 10
13.477884
 20
0.539965
 30
0.0
 10
13.452161
 20
0.636610
 30
0.0
 10
13.419285
 20
0.731002
 30
0.0
 10
13.347002
 20
0.917830
 30
0.0
 10
13.228596
 20
1.190374
 30
0.0
 10
13.158748
 20
1.321396
 30
0.0
 10
13.079569
 20
1.447177
 30
0.0
 10
12.913500
 20
1.745477
 30
0.0
 10
12.759237
 20
2.050271
 30
0.0
 10
12.601370
 20
2.352981
 30
0.0
 10
12.424492
 20
2.645030
 30
0.0
 10
12.309583
 20
2.816965
 30
0.0
 10
12.257319
 20
2.905562
 30
0.0
 10
12.217855
 20
3.000227
 30
0.0
 10
12.229988
 20
3.040013
 30
0.0
 10
12.252444
 20
3.076904
 30
0.0
 10
12.271038
 20
3.114624
 30
0.0
 10
12.271580
 20
3.156899
 30
0.0
 10
12.250603
 20
3.489516
 30
0.0
 10
12.237983
 20
3.655587
 30
0.0
 10
12.210924
 20
3.819473
 30
0.0
 10
12.200549
 20
3.913018
 30
0.0
 10
12.200381
 20
4.005038
 30
0.0
 10
12.254478
 20
3.979617
 30
0.0
 10
12.303333
 20
3.944747
 30
0.0
 10
12.397193
 20
3.868230
 30
0.0
 10
12.844850
 20
3.485341
 30
0.0
 10
12.902310
 20
3.415934
 30
0.0
 10
12.935032
 20
3.385975
 30
0.0
 10
12.976509
 20
3.368591
 30
0.0
 10
13.008155
 20
3.344172
 30
0.0
 10
13.032609
 20
3.311882
 30
0.0
 10
13.080415
 20
3.245769
 30
0.0
 10
13.192327
 20
3.111394
 30
0.0
 10
13.307276
 20
2.979832
 30
0.0
 10
13.353617
 20
2.909434
 30
0.0
 10
13.386056
 20
2.884819
 30
0.0
 10
13.427331
 20
2.876700
 30
0.0
 10
13.488804
 20
2.844763
 30
0.0
 10
13.519595
 20
2.829203
 30
0.0
 10
13.552908
 20
2.820045
 30
0.0
 10
13.724050
 20
2.719548
 30
0.0
 10
13.739973
 20
2.717714
 30
0.0
 10
13.753884
 20
2.724673
 30
0.0
 10
13.766025
 20
2.728616
 30
0.0
 10
13.776636
 20
2.717731
 30
0.0
 10
13.802711
 20
2.692809
 30
0.0
 10
13.833830
 20
2.676225
 30
0.0
 10
13.895568
 20
2.641636
 30
0.0
 10
13.972430
 20
2.582192
 30
0.0
 10
14.003588
 20
2.546994
 30
0.0
 10
14.018399
 20
2.501213
 30
0.0
 10
14.032588
 20
2.419976
 30
0.0
 10
14.046289
 20
2.381953
 30
0.0
 10
14.072473
 20
2.352165
 30
0.0
 10
14.099261
 20
2.357154
 30
0.0
 10
14.113251
 20
2.378957
 30
0.0
 10
14.118169
 20
2.435619
 30
0.0
 10
14.118968
 20
2.472313
 30
0.0
 10
14.127811
 20
2.482750
 30
0.0
 10
14.145068
 20
2.476243
 30
0.0
 10
14.186047
 20
2.451465
 30
0.0
 10
14.220081
 20
2.418852
 30
0.0
 10
14.275651
 20
2.342518
 30
0.0
 10
14.307061
 20
2.332296
 30
0.0
 10
14.319063
 20
2.325048
 30
0.0
 10
14.318977
 20
2.308894
 30
0.0
 10
14.352972
 20
1.907872
 30
0.0
 10
14.391407
 20
1.507758
 30
0.0
 10
14.373290
 20
1.440329
 30
0.0
 10
14.339706
 20
1.379882
 30
0.0
 10
14.257346
 20
1.266041
 30
0.0
 10
14.118610
 20
1.072354
 30
0.0
 10
14.046734
 20
0.977674
 30
0.0
 10
13.969245
 20
0.887999
 30
0.0
 10
13.923642
 20
0.824336
 30
0.0
 10
13.913415
 20
0.788058
 30
0.0
 10
13.922984
 20
0.751437
 30
0.0
 10
13.952624
 20
0.728864
 30
0.0
 10
13.988301
 20
0.716124
 30
0.0
 10
14.026031
 20
0.713416
 30
0.0
 10
14.061832
 20
0.720937
 30
0.0
 10
14.109959
 20
0.752462
 30
0.0
 10
14.131008
 20
0.771045
 30
0.0
 10
14.146667
 20
0.795808
 30
0.0
 10
14.233190
 20
0.927184
 30
0.0
 10
14.331819
 20
1.050359
 30
0.0
 10
14.427789
 20
1.175216
 30
0.0
 10
14.506335
 20
1.311637
 30
0.0
 10
14.532884
 20
1.321734
 30
0.0
 10
14.558437
 20
1.309504
 30
0.0
 10
14.605093
 20
1.269185
 30
0.0
 10
14.704041
 20
1.195655
 30
0.0
 10
14.808014
 20
1.129108
 30
0.0
 10
14.909750
 20
1.059787
 30
0.0
 10
15.001988
 20
0.977932
 30
0.0
 10
15.060337
 20
0.912214
 30
0.0
 10
15.116914
 20
0.845818
 30
0.0
 10
15.150431
 20
0.835816
 30
0.0
 10
15.183575
 20
0.843838
 30
0.0
 10
15.208441
 20
0.866558
 30
0.0
 10
15.217127
 20
0.900651
 30
0.0
 10
15.219848
 20
0.952038
 30
0.0
 10
15.205555
 20
1.000841
 30
0.0
 10
15.176764
 20
1.042944
 30
0.0
 10
15.135988
 20
1.074229
 30
0.0
 10
15.093549
 20
1.123701
 30
0.0
 10
15.044148
 20
1.165282
 30
0.0
 10
14.792468
 20
1.416355
 30
0.0
 10
14.711251
 20
1.490285
 30
0.0
 10
14.614898
 20
1.542273
 30
0.0
 10
14.594504
 20
1.547524
 30
0.0
 10
14.571673
 20
1.547669
 30
0.0
 10
14.553913
 20
1.551984
 30
0.0
 10
14.548736
 20
1.569748
 30
0.0
 10
14.506823
 20
1.885652
 30
0.0
 10
14.495448
 20
2.044164
 30
0.0
 10
14.500202
 20
2.203494
 30
0.0
 10
14.495145
 20
2.455187
 30
0.0
 10
14.623857
 20
2.564638
 30
0.0
 10
14.692062
 20
2.613836
 30
0.0
 10
14.765571
 20
2.652246
 30
0.0
 10
14.773654
 20
2.627133
 30
0.0
 10
14.775111
 20
2.599704
 30
0.0
 10
14.778210
 20
2.544424
 30
0.0
 10
14.793777
 20
2.475635
 30
0.0
 10
14.810893
 20
2.445682
 30
0.0
 10
14.837670
 20
2.425531
 30
0.0
 10
14.860450
 20
2.438754
 30
0.0
 10
14.868627
 20
2.464277
 30
0.0
 10
14.869645
 20
2.521388
 30
0.0
 10
14.864790
 20
2.715912
 30
0.0
 10
14.977170
 20
2.829356
 30
0.0
 10
15.071904
 20
2.957542
 30
0.0
 10
15.157431
 20
3.047912
 30
0.0
 10
15.196281
 20
3.095782
 30
0.0
 10
15.220875
 20
3.151868
 30
0.0
 10
15.206818
 20
3.187886
 30
0.0
 10
15.174272
 20
3.206665
 30
0.0
 10
15.135248
 20
3.206713
 30
0.0
 10
15.101758
 20
3.186539
 30
0.0
 10
15.050363
 20
3.145769
 30
0.0
 10
15.003034
 20
3.099322
 30
0.0
 10
14.956105
 20
3.053365
 30
0.0
 10
14.905911
 20
3.014064
 30
0.0
 10
14.932271
 20
3.056432
 30
0.0
 10
14.943352
 20
3.078528
 30
0.0
 10
14.943780
 20
3.104670
 30
0.0
 10
14.955476
 20
3.410045
 30
0.0
 10
14.956071
 20
3.715651
 30
0.0
 10
14.940073
 20
3.803462
 30
0.0
 10
14.927960
 20
3.891764
 30
0.0
 10
14.911192
 20
3.974682
 30
0.0
 10
14.902220
 20
4.015734
 30
0.0
 10
14.900674
 20
4.057570
 30
0.0
 10
14.879531
 20
4.083023
 30
0.0
 10
14.868167
 20
4.095226
 30
0.0
 10
14.862861
 20
4.112250
 30
0.0
 10
14.842237
 20
4.176615
 30
0.0
 10
14.800298
 20
4.229659
 30
0.0
 10
14.613273
 20
4.430974
 30
0.0
 10
14.517983
 20
4.463121
 30
0.0
 10
14.470781
 20
4.479307
 30
0.0
 10
14.425637
 20
4.502290
 30
0.0
 10
14.372211
 20
4.520815
 30
0.0
 10
14.317526
 20
4.530645
 30
0.0
 10
14.206537
 20
4.528108
 30
0.0
 10
14.096994
 20
4.502440
 30
0.0
 10
13.993216
 20
4.461406
 30
0.0
 10
13.914180
 20
4.412347
 30
0.0
 10
13.849673
 20
4.346573
 30
0.0
 10
13.798257
 20
4.269186
 30
0.0
 10
13.758492
 20
4.185287
 30
0.0
 10
13.729013
 20
4.100310
 30
0.0
 10
13.714252
 20
4.011976
 30
0.0
 10
13.714081
 20
3.922388
 30
0.0
 10
13.728371
 20
3.833650
 30
0.0
 10
13.753173
 20
3.724523
 30
0.0
 10
13.788917
 20
3.618626
 30
0.0
 10
13.866758
 20
3.409016
 30
0.0
 10
13.913885
 20
3.184519
 30
0.0
 10
13.970066
 20
2.961798
 30
0.0
 10
13.997397
 20
2.866544
 30
0.0
 10
14.006475
 20
2.818185
 30
0.0
 10
14.006162
 20
2.769986
 30
0.0
 10
13.979972
 20
2.771430
 30
0.0
 10
13.959105
 20
2.788067
 30
0.0
 10
13.939575
 20
2.809445
 30
0.0
 10
13.917393
 20
2.825112
 30
0.0
 10
13.839153
 20
2.887596
 30
0.0
 10
13.768258
 20
2.957895
 30
0.0
 10
13.729192
 20
2.969220
 30
0.0
 10
13.691804
 20
2.954643
 30
0.0
 10
13.646049
 20
3.000009
 30
0.0
 10
13.592969
 20
3.037231
 30
0.0
 10
13.485864
 20
3.110828
 30
0.0
 10
13.358278
 20
3.225742
 30
0.0
 10
13.247596
 20
3.356539
 30
0.0
 10
13.142761
 20
3.492853
 30
0.0
 10
13.032716
 20
3.624314
 30
0.0
 10
12.985800
 20
3.667099
 30
0.0
 10
12.966311
 20
3.690730
 30
0.0
 10
12.956715
 20
3.721236
 30
0.0
 10
12.935356
 20
3.756649
 30
0.0
 10
12.900377
 20
3.777679
 30
0.0
 10
12.859265
 20
3.783148
 30
0.0
 10
12.819506
 20
3.771875
 30
0.0
 10
12.715095
 20
3.848489
 30
0.0
 10
12.615811
 20
3.931709
 30
0.0
 10
12.417253
 20
4.098309
 30
0.0
 10
12.302321
 20
4.192161
 30
0.0
 10
12.248945
 20
4.243398
 30
0.0
 10
12.203192
 20
4.301097
 30
0.0
 10
12.198054
 20
4.345474
 30
0.0
 10
12.190986
 20
4.365816
 30
0.0
 10
12.174088
 20
4.379865
 30
0.0
 10
12.160090
 20
4.491367
 30
0.0
 10
12.154103
 20
4.603662
 30
0.0
 10
12.148236
 20
4.828665
 30
0.0
 10
12.151076
 20
4.868280
 30
0.0
 10
12.154977
 20
4.883846
 30
0.0
 10
12.162788
 20
4.879487
 30
0.0
 10
12.187912
 20
4.754245
 30
0.0
 10
12.204385
 20
4.627021
 30
0.0
 10
12.243651
 20
4.297955
 30
0.0
 10
12.299965
 20
4.352215
 30
0.0
 10
12.352076
 20
4.409300
 30
0.0
 10
12.351159
 20
4.606384
 30
0.0
 10
12.353632
 20
4.704577
 30
0.0
 10
12.367234
 20
4.801049
 30
0.0
 10
12.377352
 20
4.842836
 30
0.0
 10
12.379374
 20
4.886738
 30
0.0
 10
12.381927
 20
4.929839
 30
0.0
 10
12.393637
 20
4.969225
 30
0.0
 10
12.422600
 20
4.769556
 30
0.0
 10
12.455701
 20
4.569256
 30
0.0
 10
12.470720
 20
4.494434
 30
0.0
 10
12.493517
 20
4.422805
 30
0.0
 10
12.506985
 20
4.417627
 30
0.0
 10
12.520865
 20
4.423761
 30
0.0
 10
12.532978
 20
4.429446
 30
0.0
 10
12.541142
 20
4.422918
 30
0.0
 10
12.552288
 20
4.404670
 30
0.0
 10
12.570214
 20
4.392121
 30
0.0
 10
12.589329
 20
4.390829
 30
0.0
 10
12.604045
 20
4.406350
 30
0.0
 10
12.622774
 20
4.475278
 30
0.0
 10
12.628864
 20
4.546569
 30
0.0
 10
12.630401
 20
4.690365
 30
0.0
 10
12.624795
 20
4.854644
 30
0.0
 10
12.623880
 20
5.018947
 30
0.0
 10
12.637380
 20
4.892832
 30
0.0
 10
12.640120
 20
4.765466
 30
0.0
 10
12.644290
 20
4.638226
 30
0.0
 10
12.662079
 20
4.512490
 30
0.0
 10
12.680584
 20
4.487223
 30
0.0
 10
12.708268
 20
4.468140
 30
0.0
 10
12.738476
 20
4.462522
 30
0.0
 10
12.764550
 20
4.477653
 30
0.0
 10
12.783030
 20
4.530628
 30
0.0
 10
12.791249
 20
4.557307
 30
0.0
 10
12.807269
 20
4.580124
 30
0.0
 10
12.820155
 20
4.658918
 30
0.0
 10
12.822744
 20
4.738776
 30
0.0
 10
12.822535
 20
4.898940
 30
0.0
 10
12.824069
 20
4.941261
 30
0.0
 10
12.831857
 20
4.958249
 30
0.0
 10
12.850539
 20
4.964432
 30
0.0
 10
12.868812
 20
4.994136
 30
0.0
 10
12.871369
 20
5.029848
 30
0.0
 10
12.866321
 20
5.103048
 30
0.0
 10
12.863087
 20
5.268138
 30
0.0
 10
12.867774
 20
5.433224
 30
0.0
 10
12.885707
 20
5.762812
 30
0.0
 10
12.698239
 20
6.187192
 30
0.0
 10
12.606516
 20
6.340651
 30
0.0
 10
12.516741
 20
6.388499
 30
0.0
 10
12.422591
 20
6.427301
 30
0.0
 10
12.226509
 20
6.481597
 30
0.0
 10
12.163725
 20
6.482920
 30
0.0
 10
12.163723
 20
6.482923
 30
0.0
  0
LWPOLYLINE
  5
12a
100
AcDbEntity
  8
Layer_1
 62
7
100
AcDbPolyline
 90
88
 70
0
 10
12.387020
 20
6.136539
 30
0.0
 10
12.393886
 20
6.108114
 30
0.0
 10
12.411583
 20
6.083026
 30
0.0
 10
12.436139
 20
6.070679
 30
0.0
 10
12.463584
 20
6.080481
 30
0.0
 10
12.481604
 20
6.101284
 30
0.0
 10
12.488005
 20
6.102071
 30
0.0
 10
12.489161
 20
6.086048
 30
0.0
 10
12.502879
 20
6.054238
 30
0.0
 10
12.531235
 20
6.035720
 30
0.0
 10
12.563731
 20
6.034967
 30
0.0
 10
12.589868
 20
6.056448
 30
0.0
 10
12.600719
 20
5.995170
 30
0.0
 10
12.621771
 20
5.936348
 30
0.0
 10
12.643022
 20
5.877464
 30
0.0
 10
12.654471
 20
5.816003
 30
0.0
 10
12.671688
 20
5.739026
 30
0.0
 10
12.688011
 20
5.703561
 30
0.0
 10
12.713450
 20
5.673574
 30
0.0
 10
12.699000
 20
5.572127
 30
0.0
 10
12.692779
 20
5.469955
 30
0.0
 10
12.685590
 20
5.417918
 30
0.0
 10
12.664262
 20
5.371199
 30
0.0
 10
12.597750
 20
5.290975
 30
0.0
 10
12.511476
 20
5.204927
 30
0.0
 10
12.417975
 20
5.126215
 30
0.0
 10
12.316177
 20
5.059920
 30
0.0
 10
12.205009
 20
5.011123
 30
0.0
 10
12.109629
 20
5.006510
 30
0.0
 10
12.014142
 20
5.018275
 30
0.0
 10
11.828088
 20
5.068284
 30
0.0
 10
11.686256
 20
5.142463
 30
0.0
 10
11.549779
 20
5.226428
 30
0.0
 10
11.503861
 20
5.281678
 30
0.0
 10
11.471077
 20
5.345430
 30
0.0
 10
11.454506
 20
5.414765
 30
0.0
 10
11.457230
 20
5.486767
 30
0.0
 10
11.486586
 20
5.704547
 30
0.0
 10
11.508368
 20
5.811803
 30
0.0
 10
11.548842
 20
5.913573
 30
0.0
 10
11.559723
 20
5.929579
 30
0.0
 10
11.560730
 20
5.927097
 30
0.0
 10
11.548182
 20
5.898911
 30
0.0
 10
11.527248
 20
5.853059
 30
0.0
 10
11.528032
 20
5.829944
 30
0.0
 10
11.545316
 20
5.814299
 30
0.0
 10
11.576565
 20
5.822889
 30
0.0
 10
11.598350
 20
5.847087
 30
0.0
 10
11.631305
 20
5.906738
 30
0.0
 10
11.647561
 20
5.937637
 30
0.0
 10
11.656921
 20
5.950652
 30
0.0
 10
11.664764
 20
5.948520
 30
0.0
 10
11.679981
 20
5.931437
 30
0.0
 10
11.700819
 20
5.929025
 30
0.0
 10
11.721710
 20
5.937959
 30
0.0
 10
11.737083
 20
5.954914
 30
0.0
 10
11.755624
 20
5.977644
 30
0.0
 10
11.780172
 20
5.991510
 30
0.0
 10
11.805970
 20
6.003887
 30
0.0
 10
11.828263
 20
6.022153
 30
0.0
 10
11.868961
 20
6.055544
 30
0.0
 10
11.893401
 20
6.061830
 30
0.0
 10
11.919315
 20
6.055731
 30
0.0
 10
11.937708
 20
6.057935
 30
0.0
 10
11.953475
 20
6.066609
 30
0.0
 10
11.969305
 20
6.073413
 30
0.0
 10
11.987886
 20
6.070008
 30
0.0
 10
12.005377
 20
6.068201
 30
0.0
 10
12.021661
 20
6.074472
 30
0.0
 10
12.041740
 20
6.094206
 30
0.0
 10
12.038566
 20
6.060542
 30
0.0
 10
12.051823
 20
6.027037
 30
0.0
 10
12.077126
 20
6.006625
 30
0.0
 10
12.110091
 20
6.012240
 30
0.0
 10
12.156182
 20
6.061128
 30
0.0
 10
12.185140
 20
6.072853
 30
0.0
 10
12.218019
 20
6.064495
 30
0.0
 10
12.241857
 20
6.065050
 30
0.0
 10
12.260146
 20
6.078804
 30
0.0
 10
12.290724
 20
6.116420
 30
0.0
 10
12.309076
 20
6.098249
 30
0.0
 10
12.332899
 20
6.095856
 30
0.0
 10
12.356471
 20
6.105743
 30
0.0
 10
12.374068
 20
6.124413
 30
0.0
 10
12.382266
 20
6.134971
 30
0.0
 10
12.386298
 20
6.139837
 30
0.0
 10
12.387021
 20
6.136539
 30
0.0
 10
12.387020
 20
6.136539
 30
0.0
  0
LWPOLYLINE
  5
12b
100
AcDbEntity
  8
Layer_1
 62
7
100
AcDbPolyline
 90
105
 70
0
 10
7.866173
 20
6.018359
 30
0.0
 10
7.871455
 20
5.954584
 30
0.0
 10
7.885215
 20
5.928031
 30
0.0
 10
7.913522
 20
5.916494
 30
0.0
 10
7.943463
 20
5.929703
 30
0.0
 10
7.968203
 20
5.951772
 30
0.0
 10
7.971225
 20
5.893046
 30
0.0
 10
7.983669
 20
5.868173
 30
0.0
 10
8.009158
 20
5.855475
 30
0.0
 10
8.042113
 20
5.870807
 30
0.0
 10
8.067428
 20
5.897377
 30
0.0
 10
8.103140
 20
5.957560
 30
0.0
 10
8.095520
 20
5.875372
 30
0.0
 10
8.094994
 20
5.834309
 30
0.0
 10
8.104628
 20
5.794896
 30
0.0
 10
8.127959
 20
5.778377
 30
0.0
 10
8.154447
 20
5.781329
 30
0.0
 10
8.179081
 20
5.797182
 30
0.0
 10
8.196846
 20
5.819370
 30
0.0
 10
8.200186
 20
5.762119
 30
0.0
 10
8.213437
 20
5.738908
 30
0.0
 10
8.239510
 20
5.730018
 30
0.0
 10
8.265887
 20
5.743112
 30
0.0
 10
8.287852
 20
5.763257
 30
0.0
 10
8.319555
 20
5.605623
 30
0.0
 10
8.348706
 20
5.448127
 30
0.0
 10
8.334101
 20
5.433664
 30
0.0
 10
8.312574
 20
5.430065
 30
0.0
 10
8.266856
 20
5.425815
 30
0.0
 10
8.219889
 20
5.425054
 30
0.0
 10
8.202765
 20
5.435376
 30
0.0
 10
8.198665
 20
5.458104
 30
0.0
 10
8.186521
 20
5.483959
 30
0.0
 10
8.161693
 20
5.493860
 30
0.0
 10
8.103658
 20
5.499336
 30
0.0
 10
7.916391
 20
5.526036
 30
0.0
 10
7.727596
 20
5.539077
 30
0.0
 10
7.735535
 20
5.477105
 30
0.0
 10
7.738474
 20
5.446981
 30
0.0
 10
7.733512
 20
5.423429
 30
0.0
 10
7.639903
 20
5.415328
 30
0.0
 10
7.546026
 20
5.412518
 30
0.0
 10
7.560030
 20
5.447248
 30
0.0
 10
7.556347
 20
5.464893
 30
0.0
 10
7.543766
 20
5.479546
 30
0.0
 10
7.532609
 20
5.519688
 30
0.0
 10
7.518796
 20
5.532053
 30
0.0
 10
7.497205
 20
5.530685
 30
0.0
 10
7.375446
 20
5.518561
 30
0.0
 10
7.314737
 20
5.520434
 30
0.0
 10
7.255976
 20
5.533896
 30
0.0
 10
7.204976
 20
5.564848
 30
0.0
 10
7.177460
 20
5.565129
 30
0.0
 10
7.153891
 20
5.546243
 30
0.0
 10
7.132734
 20
5.512831
 30
0.0
 10
7.127180
 20
5.474476
 30
0.0
 10
7.132969
 20
5.435183
 30
0.0
 10
7.145843
 20
5.398958
 30
0.0
 10
7.065444
 20
5.412294
 30
0.0
 10
6.984668
 20
5.429771
 30
0.0
 10
6.962066
 20
5.437831
 30
0.0
 10
6.959669
 20
5.458300
 30
0.0
 10
6.971549
 20
5.509091
 30
0.0
 10
6.988711
 20
5.592959
 30
0.0
 10
7.018553
 20
5.673263
 30
0.0
 10
7.100037
 20
5.823780
 30
0.0
 10
7.124426
 20
5.851171
 30
0.0
 10
7.146119
 20
5.875870
 30
0.0
 10
7.171993
 20
5.873055
 30
0.0
 10
7.196636
 20
5.882808
 30
0.0
 10
7.221432
 20
5.893227
 30
0.0
 10
7.247763
 20
5.892406
 30
0.0
 10
7.269294
 20
5.904909
 30
0.0
 10
7.286666
 20
5.923511
 30
0.0
 10
7.305175
 20
5.939335
 30
0.0
 10
7.330115
 20
5.943504
 30
0.0
 10
7.353797
 20
5.961138
 30
0.0
 10
7.363989
 20
5.964507
 30
0.0
 10
7.374212
 20
5.953481
 30
0.0
 10
7.405266
 20
5.949811
 30
0.0
 10
7.431585
 20
5.965201
 30
0.0
 10
7.451487
 20
5.991543
 30
0.0
 10
7.463288
 20
6.020729
 30
0.0
 10
7.483861
 20
5.999487
 30
0.0
 10
7.511518
 20
5.994944
 30
0.0
 10
7.538017
 20
6.005580
 30
0.0
 10
7.555120
 20
6.029879
 30
0.0
 10
7.555045
 20
6.004486
 30
0.0
 10
7.566766
 20
5.981829
 30
0.0
 10
7.586527
 20
5.970050
 30
0.0
 10
7.610573
 20
5.977293
 30
0.0
 10
7.625025
 20
5.984412
 30
0.0
 10
7.635322
 20
5.974064
 30
0.0
 10
7.646198
 20
5.959929
 30
0.0
 10
7.662387
 20
5.955686
 30
0.0
 10
7.688119
 20
5.964665
 30
0.0
 10
7.707998
 20
5.983241
 30
0.0
 10
7.737793
 20
6.030155
 30
0.0
 10
7.750581
 20
5.980129
 30
0.0
 10
7.767511
 20
5.963658
 30
0.0
 10
7.792915
 20
5.964009
 30
0.0
 10
7.834249
 20
6.003089
 30
0.0
 10
7.866171
 20
6.050770
 30
0.0
 10
7.866171
 20
6.018359
 30
0.0
 10
7.866173
 20
6.018359
 30
0.0
  0
LWPOLYLINE
  5
12c
100
AcDbEntity
  8
Layer_1
 62
7
100
AcDbPolyline
 90
46
 70
0
 10
9.924190
 20
5.852608
 30
0.0
 10
9.942751
 20
5.824286
 30
0.0
 10
9.954043
 20
5.791696
 30
0.0
 10
9.966725
 20
5.759885
 30
0.0
 10
9.989456
 20
5.733899
 30
0.0
 10
10.159103
 20
5.575756
 30
0.0
 10
10.345429
 20
5.437654
 30
0.0
 10
10.402899
 20
5.407074
 30
0.0
 10
10.422883
 20
5.383645
 30
0.0
 10
10.428651
 20
5.351004
 30
0.0
 10
10.450531
 20
5.156927
 30
0.0
 10
10.447270
 20
5.059584
 30
0.0
 10
10.428453
 20
4.964160
 30
0.0
 10
10.402420
 20
4.914929
 30
0.0
 10
10.388980
 20
4.891425
 30
0.0
 10
10.367820
 20
4.872493
 30
0.0
 10
10.279265
 20
4.813382
 30
0.0
 10
10.185132
 20
4.763391
 30
0.0
 10
9.990634
 20
4.675979
 30
0.0
 10
9.908894
 20
4.644826
 30
0.0
 10
9.867152
 20
4.638213
 30
0.0
 10
9.824526
 20
4.647548
 30
0.0
 10
9.694212
 20
4.692384
 30
0.0
 10
9.570692
 20
4.753475
 30
0.0
 10
9.453625
 20
4.826974
 30
0.0
 10
9.342669
 20
4.909038
 30
0.0
 10
9.299496
 20
4.951344
 30
0.0
 10
9.246538
 20
4.978601
 30
0.0
 10
9.214523
 20
5.024421
 30
0.0
 10
9.190865
 20
5.075285
 30
0.0
 10
9.186690
 20
5.148486
 30
0.0
 10
9.188205
 20
5.184832
 30
0.0
 10
9.198913
 20
5.219152
 30
0.0
 10
9.221831
 20
5.246386
 30
0.0
 10
9.232978
 20
5.280778
 30
0.0
 10
9.321819
 20
5.327805
 30
0.0
 10
9.418216
 20
5.358912
 30
0.0
 10
9.481856
 20
5.376276
 30
0.0
 10
9.542922
 20
5.400863
 30
0.0
 10
9.598798
 20
5.434775
 30
0.0
 10
9.646870
 20
5.480115
 30
0.0
 10
9.715146
 20
5.557154
 30
0.0
 10
9.777812
 20
5.638816
 30
0.0
 10
9.897730
 20
5.806241
 30
0.0
 10
9.924202
 20
5.852608
 30
0.0
 10
9.924190
 20
5.852608
 30
0.0
  0
LWPOLYLINE
  5
12d
100
AcDbEntity
  8
Layer_1
 62
7
100
AcDbPolyline
 90
13
 70
0
 10
12.293369
 20
5.736964
 30
0.0
 10
12.259988
 20
5.724081
 30
0.0
 10
12.242873
 20
5.691969
 30
0.0
 10
12.246293
 20
5.657053
 30
0.0
 10
12.257038
 20
5.643677
 30
0.0
 10
12.274517
 20
5.635760
 30
0.0
 10
12.310207
 20
5.642299
 30
0.0
 10
12.333487
 20
5.669682
 30
0.0
 10
12.337301
 20
5.704219
 30
0.0
 10
12.329702
 20
5.719894
 30
0.0
 10
12.314591
 20
5.732223
 30
0.0
 10
12.293369
 20
5.736964
 30
0.0
 10
12.293369
 20
5.736964
 30
0.0
  0
LWPOLYLINE
  5
12e
100
AcDbEntity
  8
Layer_1
 62
7
100
AcDbPolyline
 90
14
 70
0
 10
11.808906
 20
5.714253
 30
0.0
 10
11.791336
 20
5.710182
 30
0.0
 10
11.778761
 20
5.699402
 30
0.0
 10
11.768742
 20
5.666956
 30
0.0
 10
11.779135
 20
5.635393
 30
0.0
 10
11.792076
 20
5.625718
 30
0.0
 10
11.810229
 20
5.623193
 30
0.0
 10
11.836758
 20
5.629336
 30
0.0
 10
11.861651
 20
5.644451
 30
0.0
 10
11.874489
 20
5.665996
 30
0.0
 10
11.864854
 20
5.691433
 30
0.0
 10
11.839694
 20
5.709654
 30
0.0
 10
11.808906
 20
5.714253
 30
0.0
 10
11.808906
 20
5.714253
 30
0.0
  0
LWPOLYLINE
  5
12f
100
AcDbEntity
  8
Layer_1
 62
7
100
AcDbPolyline
 90
19
 70
0
 10
7.218826
 20
5.460474
 30
0.0
 10
7.275845
 20
5.443303
 30
0.0
 10
7.334820
 20
5.439409
 30
0.0
 10
7.452651
 20
5.454135
 30
0.0
 10
7.465600
 20
5.440921
 30
0.0
 10
7.468082
 20
5.421067
 30
0.0
 10
7.469519
 20
5.379115
 30
0.0
 10
7.469308
 20
5.352699
 30
0.0
 10
7.460462
 20
5.328479
 30
0.0
 10
7.442727
 20
5.312189
 30
0.0
 10
7.415851
 20
5.309563
 30
0.0
 10
7.333493
 20
5.307371
 30
0.0
 10
7.251733
 20
5.314126
 30
0.0
 10
7.237097
 20
5.381441
 30
0.0
 10
7.209951
 20
5.444434
 30
0.0
 10
7.207557
 20
5.461119
 30
0.0
 10
7.209966
 20
5.465531
 30
0.0
 10
7.218826
 20
5.460474
 30
0.0
 10
7.218826
 20
5.460474
 30
0.0
  0
LWPOLYLINE
  5
130
100
AcDbEntity
  8
Layer_1
 62
7
100
AcDbPolyline
 90
17
 70
0
 10
7.870087
 20
5.453308
 30
0.0
 10
7.999981
 20
5.443676
 30
0.0
 10
8.063513
 20
5.430874
 30
0.0
 10
8.122709
 20
5.406069
 30
0.0
 10
8.132894
 20
5.356246
 30
0.0
 10
8.123812
 20
5.308118
 30
0.0
 10
8.026579
 20
5.291167
 30
0.0
 10
7.928022
 20
5.283517
 30
0.0
 10
7.885079
 20
5.292197
 30
0.0
 10
7.854988
 20
5.322010
 30
0.0
 10
7.834886
 20
5.362829
 30
0.0
 10
7.821912
 20
5.404526
 30
0.0
 10
7.818238
 20
5.440605
 30
0.0
 10
7.823190
 20
5.454027
 30
0.0
 10
7.840255
 20
5.455047
 30
0.0
 10
7.870088
 20
5.453309
 30
0.0
 10
7.870087
 20
5.453308
 30
0.0
  0
LWPOLYLINE
  5
131
100
AcDbEntity
  8
Layer_1
 62
7
100
AcDbPolyline
 90
13
 70
0
 10
7.372670
 20
5.429606
 30
0.0
 10
7.339993
 20
5.420975
 30
0.0
 10
7.315569
 20
5.395971
 30
0.0
 10
7.308533
 20
5.364730
 30
0.0
 10
7.328022
 20
5.337387
 30
0.0
 10
7.396175
 20
5.329311
 30
0.0
 10
7.430100
 20
5.332180
 30
0.0
 10
7.462408
 20
5.343451
 30
0.0
 10
7.452126
 20
5.372294
 30
0.0
 10
7.432501
 20
5.396324
 30
0.0
 10
7.380222
 20
5.429165
 30
0.0
 10
7.372670
 20
5.429605
 30
0.0
 10
7.372670
 20
5.429606
 30
0.0
  0
LWPOLYLINE
  5
132
100
AcDbEntity
  8
Layer_1
 62
7
100
AcDbPolyline
 90
12
 70
0
 10
7.964124
 20
5.416652
 30
0.0
 10
7.934356
 20
5.406298
 30
0.0
 10
7.912002
 20
5.382666
 30
0.0
 10
7.905016
 20
5.353661
 30
0.0
 10
7.921350
 20
5.327190
 30
0.0
 10
7.989492
 20
5.316536
 30
0.0
 10
8.057114
 20
5.328787
 30
0.0
 10
8.051396
 20
5.356589
 30
0.0
 10
8.033849
 20
5.379121
 30
0.0
 10
7.986889
 20
5.413840
 30
0.0
 10
7.964124
 20
5.416651
 30
0.0
 10
7.964124
 20
5.416652
 30
0.0
  0
LWPOLYLINE
  5
133
100
AcDbEntity
  8
Layer_1
 62
7
100
AcDbPolyline
 90
12
 70
0
 10
9.704035
 20
5.403974
 30
0.0
 10
9.674278
 20
5.393605
 30
0.0
 10
9.651933
 20
5.369961
 30
0.0
 10
9.644932
 20
5.340945
 30
0.0
 10
9.661206
 20
5.314457
 30
0.0
 10
9.729247
 20
5.303818
 30
0.0
 10
9.796805
 20
5.315834
 30
0.0
 10
9.791399
 20
5.343715
 30
0.0
 10
9.773874
 20
5.366309
 30
0.0
 10
9.726800
 20
5.401107
 30
0.0
 10
9.704035
 20
5.403974
 30
0.0
 10
9.704035
 20
5.403974
 30
0.0
  0
LWPOLYLINE
  5
134
100
AcDbEntity
  8
Layer_1
 62
7
100
AcDbPolyline
 90
58
 70
0
 10
6.947738
 20
5.354475
 30
0.0
 10
7.003614
 20
5.342657
 30
0.0
 10
7.061577
 20
5.337204
 30
0.0
 10
7.117493
 20
5.326965
 30
0.0
 10
7.167232
 20
5.300787
 30
0.0
 10
7.178528
 20
5.254085
 30
0.0
 10
7.188783
 20
5.234303
 30
0.0
 10
7.210558
 20
5.227200
 30
0.0
 10
7.546634
 20
5.228523
 30
0.0
 10
7.542272
 20
5.276166
 30
0.0
 10
7.541507
 20
5.323553
 30
0.0
 10
7.767009
 20
5.342129
 30
0.0
 10
7.783216
 20
5.284243
 30
0.0
 10
7.792034
 20
5.225216
 30
0.0
 10
7.827851
 20
5.208992
 30
0.0
 10
7.867240
 20
5.204889
 30
0.0
 10
7.947577
 20
5.205202
 30
0.0
 10
8.057978
 20
5.215389
 30
0.0
 10
8.112548
 20
5.215531
 30
0.0
 10
8.165593
 20
5.202780
 30
0.0
 10
8.187771
 20
5.204744
 30
0.0
 10
8.204236
 20
5.217211
 30
0.0
 10
8.212997
 20
5.236408
 30
0.0
 10
8.212061
 20
5.258563
 30
0.0
 10
8.207000
 20
5.306334
 30
0.0
 10
8.212224
 20
5.325611
 30
0.0
 10
8.233812
 20
5.330357
 30
0.0
 10
8.345730
 20
5.343010
 30
0.0
 10
8.353666
 20
5.209748
 30
0.0
 10
8.353770
 20
5.074471
 30
0.0
 10
8.332050
 20
4.943436
 30
0.0
 10
8.308634
 20
4.881464
 30
0.0
 10
8.274514
 20
4.822899
 30
0.0
 10
8.206303
 20
4.751718
 30
0.0
 10
8.124112
 20
4.698518
 30
0.0
 10
8.032582
 20
4.662064
 30
0.0
 10
7.936357
 20
4.641121
 30
0.0
 10
7.764614
 20
4.607136
 30
0.0
 10
7.677997
 20
4.598469
 30
0.0
 10
7.591668
 20
4.602727
 30
0.0
 10
7.565643
 20
4.638517
 30
0.0
 10
7.546676
 20
4.647195
 30
0.0
 10
7.523979
 20
4.643793
 30
0.0
 10
7.487711
 20
4.621074
 30
0.0
 10
7.468441
 20
4.615255
 30
0.0
 10
7.446802
 20
4.619429
 30
0.0
 10
7.389886
 20
4.630221
 30
0.0
 10
7.335970
 20
4.649314
 30
0.0
 10
7.238712
 20
4.708901
 30
0.0
 10
7.158189
 20
4.791199
 30
0.0
 10
7.097559
 20
4.889217
 30
0.0
 10
7.043815
 20
4.994847
 30
0.0
 10
6.997004
 20
5.104421
 30
0.0
 10
6.961031
 20
5.217388
 30
0.0
 10
6.939801
 20
5.333198
 30
0.0
 10
6.940141
 20
5.346535
 30
0.0
 10
6.947738
 20
5.354475
 30
0.0
 10
6.947738
 20
5.354475
 30
0.0
  0
LWPOLYLINE
  5
135
100
AcDbEntity
  8
Layer_1
 62
7
100
AcDbPolyline
 90
12
 70
0
 10
10.097768
 20
5.353152
 30
0.0
 10
10.067997
 20
5.342820
 30
0.0
 10
10.045624
 20
5.319187
 30
0.0
 10
10.038615
 20
5.290171
 30
0.0
 10
10.054939
 20
5.263689
 30
0.0
 10
10.123001
 20
5.253000
 30
0.0
 10
10.190593
 20
5.265066
 30
0.0
 10
10.185101
 20
5.292954
 30
0.0
 10
10.167602
 20
5.315573
 30
0.0
 10
10.120533
 20
5.350340
 30
0.0
 10
10.097768
 20
5.353150
 30
0.0
 10
10.097768
 20
5.353152
 30
0.0
  0
LWPOLYLINE
  5
136
100
AcDbEntity
  8
Layer_1
 62
7
100
AcDbPolyline
 90
31
 70
0
 10
11.766848
 20
5.288549
 30
0.0
 10
11.742716
 20
5.278768
 30
0.0
 10
11.733818
 20
5.256406
 30
0.0
 10
11.737832
 20
5.230129
 30
0.0
 10
11.752436
 20
5.208604
 30
0.0
 10
11.810169
 20
5.133096
 30
0.0
 10
11.886192
 20
5.075304
 30
0.0
 10
11.974689
 20
5.043352
 30
0.0
 10
12.021798
 20
5.039606
 30
0.0
 10
12.069845
 20
5.045366
 30
0.0
 10
12.167798
 20
5.061028
 30
0.0
 10
12.264070
 20
5.088045
 30
0.0
 10
12.353548
 20
5.130335
 30
0.0
 10
12.431118
 20
5.191811
 30
0.0
 10
12.431889
 20
5.220614
 30
0.0
 10
12.411994
 20
5.240435
 30
0.0
 10
12.382051
 20
5.250523
 30
0.0
 10
12.352680
 20
5.250129
 30
0.0
 10
12.310627
 20
5.234110
 30
0.0
 10
12.273769
 20
5.207577
 30
0.0
 10
12.236680
 20
5.181193
 30
0.0
 10
12.193936
 20
5.165618
 30
0.0
 10
12.121305
 20
5.145466
 30
0.0
 10
12.044916
 20
5.135039
 30
0.0
 10
11.970514
 20
5.143085
 30
0.0
 10
11.935853
 20
5.156770
 30
0.0
 10
11.903843
 20
5.178355
 30
0.0
 10
11.840967
 20
5.242239
 30
0.0
 10
11.807007
 20
5.270890
 30
0.0
 10
11.766848
 20
5.288549
 30
0.0
 10
11.766848
 20
5.288549
 30
0.0
  0
LWPOLYLINE
  5
137
100
AcDbEntity
  8
Layer_1
 62
7
100
AcDbPolyline
 90
30
 70
0
 10
9.704641
 20
5.176818
 30
0.0
 10
9.672686
 20
5.160400
 30
0.0
 10
9.658624
 20
5.128639
 30
0.0
 10
9.660158
 20
5.054834
 30
0.0
 10
9.683033
 20
4.973928
 30
0.0
 10
9.720210
 20
4.897362
 30
0.0
 10
9.772919
 20
4.832132
 30
0.0
 10
9.842390
 20
4.785234
 30
0.0
 10
9.950801
 20
4.769250
 30
0.0
 10
10.059561
 20
4.783667
 30
0.0
 10
10.161875
 20
4.824610
 30
0.0
 10
10.250951
 20
4.888201
 30
0.0
 10
10.268089
 20
4.914261
 30
0.0
 10
10.278525
 20
4.945097
 30
0.0
 10
10.278206
 20
4.975859
 30
0.0
 10
10.263077
 20
5.001697
 30
0.0
 10
10.223127
 20
4.994541
 30
0.0
 10
10.189474
 20
4.971708
 30
0.0
 10
10.125575
 20
4.918416
 30
0.0
 10
10.063363
 20
4.887047
 30
0.0
 10
9.994617
 20
4.872239
 30
0.0
 10
9.924288
 20
4.873751
 30
0.0
 10
9.857328
 20
4.891343
 30
0.0
 10
9.805671
 20
4.940471
 30
0.0
 10
9.772616
 20
5.002128
 30
0.0
 10
9.753516
 20
5.070900
 30
0.0
 10
9.743723
 20
5.141375
 30
0.0
 10
9.731037
 20
5.167452
 30
0.0
 10
9.704641
 20
5.176818
 30
0.0
 10
9.704641
 20
5.176818
 30
0.0
  0
LWPOLYLINE
  5
138
100
AcDbEntity
  8
Layer_1
 62
7
100
AcDbPolyline
 90
29
 70
0
 10
7.545200
 20
4.964434
 30
0.0
 10
7.506003
 20
4.946437
 30
0.0
 10
7.480291
 20
4.910991
 30
0.0
 10
7.475409
 20
4.869503
 30
0.0
 10
7.483074
 20
4.850057
 30
0.0
 10
7.498701
 20
4.833378
 30
0.0
 10
7.556046
 20
4.787015
 30
0.0
 10
7.623859
 20
4.758872
 30
0.0
 10
7.696554
 20
4.751171
 30
0.0
 10
7.768545
 20
4.766133
 30
0.0
 10
7.848519
 20
4.788929
 30
0.0
 10
7.926777
 20
4.819761
 30
0.0
 10
7.998116
 20
4.862289
 30
0.0
 10
8.057334
 20
4.920172
 30
0.0
 10
8.057662
 20
4.941693
 30
0.0
 10
8.045033
 20
4.956779
 30
0.0
 10
8.025160
 20
4.963992
 30
0.0
 10
8.003756
 20
4.961899
 30
0.0
 10
7.935363
 20
4.941104
 30
0.0
 10
7.872390
 20
4.906137
 30
0.0
 10
7.808980
 20
4.872208
 30
0.0
 10
7.739278
 20
4.854529
 30
0.0
 10
7.662352
 20
4.847773
 30
0.0
 10
7.625803
 20
4.857516
 30
0.0
 10
7.599054
 20
4.883020
 30
0.0
 10
7.586692
 20
4.935025
 30
0.0
 10
7.569917
 20
4.955015
 30
0.0
 10
7.545200
 20
4.964434
 30
0.0
 10
7.545200
 20
4.964434
 30
0.0
  0
LWPOLYLINE
  5
139
100
AcDbEntity
  8
Layer_1
 62
7
100
AcDbPolyline
 90
66
 70
0
 10
14.293233
 20
4.181599
 30
0.0
 10
14.433116
 20
4.132796
 30
0.0
 10
14.499141
 20
4.100732
 30
0.0
 10
14.557150
 20
4.054710
 30
0.0
 10
14.676292
 20
3.943608
 30
0.0
 10
14.788059
 20
3.824852
 30
0.0
 10
14.799713
 20
3.760861
 30
0.0
 10
14.785158
 20
3.697611
 30
0.0
 10
14.754580
 20
3.637788
 30
0.0
 10
14.718165
 20
3.584081
 30
0.0
 10
14.711416
 20
3.576375
 30
0.0
 10
14.712015
 20
3.586142
 30
0.0
 10
14.712286
 20
3.602099
 30
0.0
 10
14.704550
 20
3.612965
 30
0.0
 10
14.675445
 20
3.618909
 30
0.0
 10
14.645160
 20
3.612126
 30
0.0
 10
14.587074
 20
3.586010
 30
0.0
 10
14.490884
 20
3.538958
 30
0.0
 10
14.439282
 20
3.526035
 30
0.0
 10
14.385341
 20
3.525267
 30
0.0
 10
14.335986
 20
3.529379
 30
0.0
 10
14.288310
 20
3.542751
 30
0.0
 10
14.245067
 20
3.566052
 30
0.0
 10
14.209007
 20
3.599956
 30
0.0
 10
14.177438
 20
3.609308
 30
0.0
 10
14.148296
 20
3.596650
 30
0.0
 10
14.130051
 20
3.569852
 30
0.0
 10
14.131176
 20
3.536787
 30
0.0
 10
14.160536
 20
3.486636
 30
0.0
 10
14.208673
 20
3.454479
 30
0.0
 10
14.266096
 20
3.435406
 30
0.0
 10
14.323317
 20
3.424508
 30
0.0
 10
14.387723
 20
3.415734
 30
0.0
 10
14.453356
 20
3.413428
 30
0.0
 10
14.516749
 20
3.424158
 30
0.0
 10
14.574435
 20
3.454494
 30
0.0
 10
14.598990
 20
3.464402
 30
0.0
 10
14.587747
 20
3.447545
 30
0.0
 10
14.531786
 20
3.404262
 30
0.0
 10
14.469125
 20
3.370093
 30
0.0
 10
14.401723
 20
3.347696
 30
0.0
 10
14.331542
 20
3.339727
 30
0.0
 10
14.325533
 20
3.345184
 30
0.0
 10
14.333557
 20
3.357251
 30
0.0
 10
14.340312
 20
3.371346
 30
0.0
 10
14.330495
 20
3.382888
 30
0.0
 10
14.222632
 20
3.388949
 30
0.0
 10
14.169744
 20
3.399189
 30
0.0
 10
14.118608
 20
3.417669
 30
0.0
 10
14.100390
 20
3.443268
 30
0.0
 10
14.091482
 20
3.475333
 30
0.0
 10
14.085104
 20
3.542840
 30
0.0
 10
14.091939
 20
3.731908
 30
0.0
 10
14.109055
 20
3.824580
 30
0.0
 10
14.139752
 20
3.913679
 30
0.0
 10
14.158996
 20
3.997346
 30
0.0
 10
14.198920
 20
4.068820
 30
0.0
 10
14.220530
 20
4.060261
 30
0.0
 10
14.241235
 20
4.067651
 30
0.0
 10
14.252680
 20
4.085497
 30
0.0
 10
14.246508
 20
4.108305
 30
0.0
 10
14.238207
 20
4.158921
 30
0.0
 10
14.245346
 20
4.181407
 30
0.0
 10
14.266775
 20
4.192237
 30
0.0
 10
14.293233
 20
4.181599
 30
0.0
 10
14.293233
 20
4.181599
 30
0.0
  0
LWPOLYLINE
  5
13a
100
AcDbEntity
  8
Layer_1
 62
7
100
AcDbPolyline
 90
13
 70
0
 10
14.269641
 20
3.894856
 30
0.0
 10
14.238548
 20
3.879672
 30
0.0
 10
14.214648
 20
3.852405
 30
0.0
 10
14.206794
 20
3.820277
 30
0.0
 10
14.223835
 20
3.790511
 30
0.0
 10
14.251200
 20
3.773141
 30
0.0
 10
14.282535
 20
3.773239
 30
0.0
 10
14.308359
 20
3.789318
 30
0.0
 10
14.319195
 20
3.819891
 30
0.0
 10
14.310925
 20
3.870612
 30
0.0
 10
14.294742
 20
3.889154
 30
0.0
 10
14.269641
 20
3.894856
 30
0.0
 10
14.269641
 20
3.894856
 30
0.0
  0
LWPOLYLINE
  5
13b
100
AcDbEntity
  8
Layer_1
 62
7
100
AcDbPolyline
 90
15
 70
0
 10
14.497348
 20
3.840286
 30
0.0
 10
14.477499
 20
3.835602
 30
0.0
 10
14.462919
 20
3.824097
 30
0.0
 10
14.449951
 20
3.789263
 30
0.0
 10
14.459207
 20
3.753068
 30
0.0
 10
14.472408
 20
3.739863
 30
0.0
 10
14.491450
 20
3.732799
 30
0.0
 10
14.511171
 20
3.735145
 30
0.0
 10
14.527165
 20
3.745487
 30
0.0
 10
14.545521
 20
3.780502
 30
0.0
 10
14.541609
 20
3.818538
 30
0.0
 10
14.529769
 20
3.832655
 30
0.0
 10
14.510522
 20
3.840286
 30
0.0
 10
14.497348
 20
3.840286
 30
0.0
 10
14.497348
 20
3.840286
 30
0.0
  0
LWPOLYLINE
  5
13c
100
AcDbEntity
  8
Layer_1
 62
7
100
AcDbPolyline
 90
8
 70
0
 10
14.812147
 20
3.522345
 30
0.0
 10
14.812173
 20
3.503275
 30
0.0
 10
14.806793
 20
3.503295
 30
0.0
 10
14.804076
 20
3.515072
 30
0.0
 10
14.812090
 20
3.531275
 30
0.0
 10
14.812147
 20
3.524219
 30
0.0
 10
14.812158
 20
3.522345
 30
0.0
 10
14.812147
 20
3.522345
 30
0.0
  0
LWPOLYLINE
  5
13d
100
AcDbEntity
  8
Layer_1
 62
7
100
AcDbPolyline
 90
7
 70
0
 10
14.723897
 20
3.378643
 30
0.0
 10
14.719818
 20
3.280692
 30
0.0
 10
14.707242
 20
3.346764
 30
0.0
 10
14.708951
 20
3.379677
 30
0.0
 10
14.722576
 20
3.409732
 30
0.0
 10
14.723899
 20
3.378643
 30
0.0
 10
14.723897
 20
3.378643
 30
0.0
  0
LWPOLYLINE
  5
13e
100
AcDbEntity
  8
Layer_1
 62
7
100
AcDbPolyline
 90
13
 70
0
 10
14.163201
 20
3.257927
 30
0.0
 10
14.188473
 20
3.252031
 30
0.0
 10
14.208659
 20
3.239324
 30
0.0
 10
14.236514
 20
3.199207
 30
0.0
 10
14.252255
 20
3.149039
 30
0.0
 10
14.261373
 20
3.100279
 30
0.0
 10
14.274326
 20
2.983642
 30
0.0
 10
14.257073
 20
3.060280
 30
0.0
 10
14.248089
 20
3.138368
 30
0.0
 10
14.200749
 20
3.200396
 30
0.0
 10
14.148153
 20
3.258478
 30
0.0
 10
14.163201
 20
3.257928
 30
0.0
 10
14.163201
 20
3.257927
 30
0.0
  0
LWPOLYLINE
  5
13f
100
AcDbEntity
  8
Layer_1
 62
7
100
AcDbPolyline
 90
7
 70
0
 10
14.450329
 20
3.234004
 30
0.0
 10
14.467344
 20
3.224436
 30
0.0
 10
14.464226
 20
3.221063
 30
0.0
 10
14.454145
 20
3.224160
 30
0.0
 10
14.450273
 20
3.234004
 30
0.0
 10
14.450329
 20
3.234004
 30
0.0
 10
14.450329
 20
3.234004
 30
0.0
  0
LWPOLYLINE
  5
140
100
AcDbEntity
  8
Layer_1
 62
7
100
AcDbPolyline
 90
8
 70
0
 10
14.393774
 20
3.187426
 30
0.0
 10
14.414707
 20
2.984358
 30
0.0
 10
14.428336
 20
2.782339
 30
0.0
 10
14.405626
 20
2.935321
 30
0.0
 10
14.391092
 20
3.089250
 30
0.0
 10
14.388478
 20
3.140632
 30
0.0
 10
14.393773
 20
3.187426
 30
0.0
 10
14.393774
 20
3.187426
 30
0.0
  0
LWPOLYLINE
  5
141
100
AcDbEntity
  8
Layer_1
 62
7
100
AcDbPolyline
 90
8
 70
0
 10
14.601583
 20
2.973720
 30
0.0
 10
14.602480
 20
2.917600
 30
0.0
 10
14.601529
 20
2.900471
 30
0.0
 10
14.600149
 20
2.918875
 30
0.0
 10
14.599820
 20
2.964421
 30
0.0
 10
14.600321
 20
2.983007
 30
0.0
 10
14.601583
 20
2.973720
 30
0.0
 10
14.601583
 20
2.973720
 30
0.0
  0
LWPOLYLINE
  5
142
100
AcDbEntity
  8
Layer_1
 62
7
100
AcDbPolyline
 90
7
 70
0
 10
14.138066
 20
2.825168
 30
0.0
 10
14.145510
 20
2.756647
 30
0.0
 10
14.140767
 20
2.688136
 30
0.0
 10
14.133591
 20
2.759291
 30
0.0
 10
14.137184
 20
2.830901
 30
0.0
 10
14.138064
 20
2.825168
 30
0.0
 10
14.138066
 20
2.825168
 30
0.0
  0
LWPOLYLINE
  5
143
100
AcDbEntity
  8
Layer_1
 62
7
100
AcDbPolyline
 90
31
 70
0
 10
12.115161
 20
2.768062
 30
0.0
 10
12.259169
 20
2.566595
 30
0.0
 10
12.389012
 20
2.355958
 30
0.0
 10
12.507557
 20
2.138556
 30
0.0
 10
12.617674
 20
1.916794
 30
0.0
 10
12.769075
 20
1.616930
 30
0.0
 10
12.851133
 20
1.470493
 30
0.0
 10
12.940440
 20
1.328234
 30
0.0
 10
13.100260
 20
1.025255
 30
0.0
 10
13.231427
 20
0.708889
 30
0.0
 10
13.242440
 20
0.665787
 30
0.0
 10
13.236497
 20
0.649791
 30
0.0
 10
13.213898
 20
0.644892
 30
0.0
 10
13.009145
 20
0.628156
 30
0.0
 10
12.802501
 20
0.621234
 30
0.0
 10
11.981319
 20
0.591541
 30
0.0
 10
11.570623
 20
0.581630
 30
0.0
 10
11.159850
 20
0.581613
 30
0.0
 10
11.146479
 20
0.591734
 30
0.0
 10
11.148640
 20
0.609659
 30
0.0
 10
11.160868
 20
0.648364
 30
0.0
 10
11.273696
 20
0.985510
 30
0.0
 10
11.406881
 20
1.315187
 30
0.0
 10
11.548238
 20
1.641880
 30
0.0
 10
11.685578
 20
1.970076
 30
0.0
 10
11.813529
 20
2.268187
 30
0.0
 10
11.959552
 20
2.557608
 30
0.0
 10
12.017307
 20
2.684041
 30
0.0
 10
12.087764
 20
2.803505
 30
0.0
 10
12.115160
 20
2.768062
 30
0.0
 10
12.115161
 20
2.768062
 30
0.0
  0
ENDSEC
  0
SECTION
  2
OBJECTS
  0
DICTIONARY
  5
C
330
0
100
AcDbDictionary
  3
ACAD_GROUP
350
D
  3
ACAD_MLINESTYLE
350
17
  0
DICTIONARY
  5
D
330
C
100
AcDbDictionary
  0
DICTIONARY
  5
1A
330
C
100
AcDbDictionary
  0
DICTIONARY
  5
17
330
C
100
AcDbDictionary
  3
STANDARD
350
18
  0
DICTIONARY
  5
19
330
C
100
AcDbDictionary
  0
ENDSEC
  0
EOF
