<?xml version="1.0" standalone="no"?>
<!DOCTYPE svg PUBLIC "-//W3C//DTD SVG 20010904//EN"
 "http://www.w3.org/TR/2001/REC-SVG-20010904/DTD/svg10.dtd">
<svg version="1.0" xmlns="http://www.w3.org/2000/svg"
 width="1930.000000pt" height="520.000000pt" viewBox="0 0 1930.000000 520.000000"
 preserveAspectRatio="xMidYMid meet">
<metadata>
Created by potrace 1.11, written by Peter Selinger 2001-2013
</metadata>
<g transform="translate(0.000000,520.000000) scale(0.100000,-0.100000)"
fill="#000000" stroke="none">
<path d="M0 2600 l0 -2600 9650 0 9650 0 0 2600 0 2600 -9650 0 -9650 0 0
-2600z m931 2323 c24 -42 56 -97 70 -122 14 -26 49 -84 78 -131 55 -92 61
-118 33 -158 -11 -15 -51 -84 -90 -154 -77 -137 -93 -195 -49 -183 12 4 28 14
35 23 18 24 167 253 181 280 12 22 13 22 271 22 l260 0 0 -24 c0 -22 -34 -80
-213 -368 l-29 -48 -208 0 c-165 0 -210 -3 -219 -14 -9 -11 -4 -18 24 -35 33
-19 51 -21 225 -21 l189 0 20 -29 c12 -16 21 -31 21 -34 0 -5 31 -60 112 -202
37 -64 98 -183 98 -190 0 -3 -56 -5 -125 -5 l-125 0 0 -170 0 -169 43 -29
c113 -78 614 -358 623 -349 11 11 -28 108 -59 149 -39 50 -41 52 -147 80 -82
22 -86 25 -118 72 -46 70 -41 80 41 84 56 2 67 6 67 20 0 36 -29 59 -102 81
-142 43 -156 50 -167 83 -22 63 -18 68 54 68 58 0 65 2 65 19 0 11 -4 23 -10
26 -5 3 -10 19 -10 35 0 33 25 54 81 70 28 8 39 7 62 -11 16 -11 30 -19 32
-17 1 1 12 22 24 45 26 53 37 59 63 37 54 -49 67 -119 38 -203 -20 -56 -21
-68 -10 -102 7 -21 21 -46 31 -55 18 -16 20 -15 39 30 18 38 25 46 48 46 22 0
32 -9 51 -46 26 -49 25 -65 -11 -191 -11 -38 -9 -47 15 -105 36 -84 65 -130
77 -123 6 4 10 144 10 375 l0 369 -64 45 c-35 26 -66 46 -69 46 -7 0 -201 116
-241 143 -17 12 -33 23 -35 24 -2 1 -1 13 3 26 7 28 59 57 101 57 14 0 82 -30
151 -66 68 -36 129 -62 134 -59 6 3 10 17 10 29 0 19 -19 35 -96 81 -108 64
-115 81 -54 123 30 20 43 23 93 19 l57 -5 0 52 c0 29 6 60 13 70 15 20 90 33
131 22 25 -6 26 -10 26 -77 0 -78 -3 -76 66 -48 17 7 42 9 57 5 33 -8 92 -59
84 -72 -3 -6 -49 -39 -101 -74 -99 -67 -111 -80 -101 -111 8 -23 13 -20 176
77 59 35 114 64 123 64 26 0 93 -37 100 -55 13 -34 27 -24 -276 -216 l-118
-74 0 -380 1 -380 25 40 c37 58 74 144 74 170 0 13 -9 44 -20 70 -13 30 -20
69 -20 109 0 78 16 102 68 97 7 0 24 -26 39 -56 15 -30 31 -55 35 -55 4 0 15
14 23 31 18 33 14 68 -12 120 -24 48 -14 161 17 194 13 14 30 25 37 25 7 0 25
-25 40 -55 15 -30 31 -55 36 -55 4 0 16 14 25 30 21 37 52 47 95 29 48 -20 58
-37 52 -91 l-6 -48 62 0 62 0 -6 -37 c-10 -59 -36 -84 -128 -123 -109 -45
-116 -50 -124 -82 l-7 -28 56 0 56 0 0 -48 c0 -67 -31 -96 -129 -118 -51 -12
-84 -26 -107 -46 -35 -31 -102 -153 -90 -165 9 -9 11 -8 351 197 l275 165 0
258 0 257 33 0 c34 0 68 -22 85 -55 6 -11 14 -94 18 -183 l7 -163 31 3 c46 4
61 43 61 152 0 72 3 91 17 99 27 18 64 -7 103 -67 27 -43 39 -53 55 -49 11 3
23 9 26 14 3 5 11 9 19 9 7 0 60 31 117 69 95 63 192 122 239 146 10 5 19 15
19 22 0 13 -47 53 -64 53 -20 0 -130 61 -148 82 -25 28 -22 53 12 126 l30 64
42 -7 c24 -4 79 -27 124 -51 45 -24 88 -44 98 -44 14 0 16 22 16 220 l0 220
25 0 c31 0 129 -43 172 -76 l33 -25 2 -252 3 -251 54 -38 c95 -66 91 -74 91
201 0 151 4 242 10 246 15 9 158 -73 178 -102 13 -22 18 -69 25 -271 7 -203
12 -250 25 -268 28 -37 169 -125 234 -145 64 -20 106 -16 171 17 l27 15 0 213
c0 208 -1 213 -22 233 -25 22 -165 113 -174 113 -15 0 -176 115 -195 138 -19
25 -21 37 -17 134 3 59 7 110 10 114 7 7 78 -29 135 -67 23 -16 44 -29 47 -29
3 0 49 -27 103 -60 53 -33 101 -60 105 -60 4 0 8 33 8 73 l0 72 -167 105
c-232 146 -239 152 -247 195 -10 49 4 176 19 181 10 4 91 -36 322 -162 34 -19
67 -34 73 -34 6 0 10 49 10 135 l0 135 110 0 109 0 10 -37 c6 -21 11 -82 11
-135 0 -53 4 -99 8 -102 8 -5 95 42 242 129 88 52 140 76 150 70 6 -3 10 -57
10 -118 l0 -112 -133 -84 c-72 -46 -143 -91 -157 -101 -14 -10 -44 -27 -67
-38 -22 -12 -43 -28 -47 -37 -14 -39 0 -155 19 -155 6 0 60 28 119 63 210 123
253 147 265 147 7 0 11 -34 11 -109 0 -96 -2 -111 -22 -136 -22 -29 -138 -106
-305 -205 l-93 -55 0 -187 0 -187 34 -27 c19 -15 54 -35 78 -45 36 -14 48 -15
79 -4 40 15 183 102 242 147 l37 30 0 253 c0 191 3 257 13 265 6 6 45 31 85
56 55 35 78 45 97 40 l25 -6 0 -229 c0 -125 3 -230 6 -234 4 -3 33 7 65 24
l59 29 0 265 0 266 93 59 c98 63 120 71 132 43 4 -10 10 -110 12 -223 4 -215
7 -250 23 -250 5 0 45 21 89 47 71 43 78 50 77 78 l-1 30 160 3 c88 1 169 0
181 -2 13 -4 33 -29 53 -68 60 -114 139 -207 194 -227 42 -16 320 -15 315 1
-3 7 -76 56 -164 109 -127 77 -159 101 -159 118 0 18 23 34 120 86 227 122
283 148 299 142 14 -6 16 -32 16 -203 0 -152 3 -195 13 -192 11 4 34 38 121
181 34 55 36 64 36 144 l0 85 -60 100 -60 99 18 43 c11 23 54 97 97 165 62 96
83 121 98 119 14 -2 41 -41 88 -123 83 -145 89 -187 39 -262 -17 -24 -30 -47
-30 -51 0 -4 -9 -18 -20 -32 -17 -22 -20 -41 -20 -143 0 -109 2 -122 26 -165
46 -83 95 -162 101 -162 3 0 12 8 19 18 10 13 13 66 14 215 l0 198 23 -7 c92
-28 427 -224 427 -249 0 -8 -12 -22 -27 -33 -27 -19 -206 -120 -268 -150 -36
-18 -65 -42 -65 -54 0 -4 79 -8 175 -8 197 0 220 5 278 65 37 38 173 233 166
239 -2 1 -25 15 -51 30 -45 25 -48 30 -48 66 0 38 26 80 48 80 5 0 63 -27 130
-60 68 -33 127 -60 132 -60 6 0 10 49 10 120 0 133 1 135 63 104 65 -33 67
-38 67 -151 0 -57 4 -111 9 -121 5 -9 12 -25 15 -35 6 -19 52 -41 67 -31 5 3
9 57 9 120 0 92 3 116 15 120 19 8 103 -33 114 -54 5 -10 12 -74 16 -144 6
-111 9 -129 28 -146 21 -19 170 -92 188 -92 5 0 9 56 9 125 0 117 1 125 20
125 21 0 165 -61 214 -91 17 -10 34 -19 39 -19 4 0 7 48 7 108 l0 107 -130 70
-130 70 0 68 c0 48 4 67 13 67 7 0 46 -20 87 -44 41 -24 94 -47 118 -51 l42
-7 0 39 c0 36 -4 40 -52 69 -29 17 -84 46 -123 63 -38 18 -76 40 -82 49 -15
19 -17 128 -3 137 5 3 63 -21 128 -54 66 -33 122 -57 126 -54 3 4 6 69 6 145
l0 138 55 0 c42 0 56 -4 63 -17 5 -10 12 -69 14 -130 2 -62 8 -116 12 -120 4
-4 58 19 122 50 63 31 119 57 124 57 6 0 10 -30 10 -70 l0 -70 -57 -30 c-32
-16 -87 -47 -123 -68 -64 -37 -65 -39 -68 -85 -2 -26 0 -47 4 -47 3 0 54 26
113 57 125 66 141 66 141 -1 0 -36 -6 -52 -31 -81 -17 -19 -35 -35 -39 -35 -4
0 -51 -25 -104 -56 l-96 -56 0 -88 c0 -97 5 -120 26 -120 8 0 59 25 115 56 74
41 107 54 125 50 24 -6 24 -8 24 -130 l0 -125 61 24 c34 14 83 38 110 56 l48
31 3 146 3 146 40 23 c22 12 50 23 63 23 22 0 22 -2 22 -119 0 -71 4 -122 10
-126 6 -4 25 2 43 12 l32 19 5 130 c4 101 9 136 23 157 21 33 52 53 95 61 l32
6 0 -120 c0 -114 1 -120 20 -120 12 0 34 7 50 15 l30 16 0 114 0 115 41 22
c23 13 49 28 58 33 57 35 130 75 138 75 5 0 36 -32 68 -71 53 -63 251 -249
276 -257 30 -11 -11 232 -61 361 -16 43 -30 88 -30 100 0 17 21 35 92 80 51
31 102 57 113 57 25 0 154 -71 178 -97 14 -16 15 -25 7 -49 -38 -111 -87 -465
-64 -464 29 2 280 226 321 288 9 12 24 22 35 22 10 0 62 -28 116 -62 l96 -61
81 16 c136 29 130 31 247 -85 l103 -103 3 115 c1 63 7 119 12 124 9 9 124 -46
183 -87 16 -10 31 -17 33 -14 3 3 -6 57 -20 121 -41 180 -44 169 80 302 85 91
112 114 133 114 39 0 231 -200 231 -241 0 -15 -11 -74 -25 -131 -39 -159 -40
-156 53 -107 42 23 81 45 86 50 6 5 20 9 32 9 18 0 22 -7 28 -52 3 -29 6 -86
6 -126 l0 -74 107 101 c92 87 110 101 132 96 90 -20 306 -94 315 -108 7 -11 6
-30 -6 -66 -9 -28 -13 -51 -8 -51 4 0 28 -19 54 -41 45 -40 50 -42 119 -43 63
-1 81 3 144 34 40 19 72 38 73 42 0 9 -84 26 -168 34 -46 4 -80 12 -94 23
l-21 18 79 103 c43 57 97 123 119 148 l39 44 21 -25 c13 -14 32 -65 45 -121
13 -53 32 -103 41 -112 16 -15 18 -13 28 23 19 64 25 186 12 225 -7 20 -24 44
-39 54 -15 10 -48 35 -74 57 -43 36 -48 44 -48 81 0 38 12 136 25 214 10 55
21 50 200 -93 l29 -23 -12 -59 c-17 -85 -16 -203 3 -230 20 -28 164 -147 171
-140 3 2 -16 66 -42 142 -32 96 -43 140 -36 147 8 8 37 7 99 -2 48 -6 117 -16
152 -21 78 -11 101 -17 101 -30 0 -5 -41 -64 -91 -130 -50 -66 -89 -122 -87
-124 2 -2 46 14 98 35 139 57 183 114 195 251 7 75 8 77 44 97 49 27 208 92
226 92 7 0 16 -4 19 -9 10 -15 -30 -228 -47 -254 -10 -16 -43 -36 -87 -54 -58
-23 -77 -36 -100 -70 -16 -23 -38 -55 -50 -71 -19 -26 -50 -146 -50 -194 0
-40 32 -12 116 102 52 72 94 120 103 118 23 -5 131 -282 131 -339 0 -24 -28
-25 -180 -4 -61 9 -115 13 -121 10 -5 -4 11 -23 37 -43 26 -20 69 -56 96 -79
68 -59 111 -60 252 -6 76 29 96 34 118 25 19 -7 30 -7 34 0 4 6 29 8 59 6 42
-4 75 -18 170 -73 140 -81 140 -81 136 61 -2 88 10 167 29 179 10 6 52 -11
102 -44 l38 -24 0 -168 0 -168 45 -27 c71 -41 74 -37 77 133 l3 148 28 3 c18
2 43 -6 67 -22 43 -28 39 -15 61 -226 18 -172 20 -182 57 -207 30 -20 149 -72
199 -88 l23 -6 0 150 c0 143 1 151 21 162 33 17 75 4 161 -52 44 -28 95 -57
113 -65 66 -27 65 -29 65 124 0 120 -2 141 -18 155 -9 8 -69 41 -133 72 -64
30 -129 69 -145 86 -25 27 -29 37 -29 92 0 56 2 62 22 65 11 2 80 -26 152 -62
72 -36 135 -66 141 -66 18 0 11 83 -9 117 -15 24 -49 46 -145 92 -152 75 -168
92 -164 174 5 94 13 95 172 13 74 -38 139 -65 145 -62 7 5 11 63 11 174 0 92
4 174 10 182 11 18 114 18 136 0 11 -10 14 -46 14 -176 0 -140 2 -164 15 -164
8 0 73 30 143 67 81 42 135 64 145 60 14 -5 17 -20 17 -80 0 -88 1 -87 -125
-150 -152 -77 -184 -108 -185 -184 0 -54 12 -55 89 -9 102 61 199 108 210 102
6 -4 11 -39 11 -82 l0 -75 -74 -47 c-41 -26 -110 -69 -153 -97 l-78 -50 -3
-134 c-1 -79 1 -138 7 -144 11 -11 94 29 198 95 49 31 69 39 100 36 l38 -3 3
-157 3 -157 43 19 c101 43 195 93 215 114 19 20 21 35 23 205 l3 183 59 24
c35 14 64 20 69 15 10 -10 24 -106 34 -223 3 -44 10 -78 16 -78 6 0 28 12 49
26 l38 27 0 178 0 178 28 19 c30 22 127 54 136 45 3 -4 6 -73 6 -155 l0 -148
28 0 c15 0 59 18 97 41 140 82 182 100 210 89 29 -11 55 -63 55 -108 0 -39
-26 -60 -152 -127 -58 -30 -111 -62 -117 -69 -9 -11 13 -27 114 -82 96 -51
127 -73 131 -91 10 -39 -11 -71 -53 -82 -71 -20 -78 -18 -287 92 -48 26 -97
47 -108 47 -31 0 -88 -39 -88 -60 0 -19 8 -23 183 -105 98 -45 103 -89 15
-138 l-58 -32 -152 75 c-84 41 -154 78 -156 82 -6 14 -41 8 -79 -13 -71 -39
-183 -112 -183 -119 0 -14 74 -63 238 -157 23 -14 42 -30 42 -37 0 -7 -63 -53
-140 -101 -77 -49 -140 -92 -140 -96 0 -12 237 -129 261 -129 32 0 96 34 139
75 58 53 112 85 147 85 45 0 143 -56 143 -81 0 -20 -17 -33 -164 -126 l-89
-57 27 -23 c32 -27 67 -37 99 -29 12 3 74 35 137 71 129 74 146 80 194 71 39
-7 113 -67 103 -83 -4 -6 -42 -32 -85 -56 -42 -25 -97 -60 -121 -77 l-45 -33
30 -24 c16 -13 74 -46 129 -72 55 -27 109 -58 119 -70 19 -21 19 -22 -7 -78
-24 -54 -29 -58 -63 -61 -29 -3 -63 10 -159 57 -67 34 -130 61 -139 61 -14 0
-16 -19 -16 -165 0 -195 1 -194 -97 -146 -88 44 -97 67 -88 212 13 187 -5 252
-72 265 l-33 7 0 -167 c0 -140 -2 -168 -15 -173 -11 -4 5 -18 51 -47 37 -23
72 -49 78 -58 8 -13 -1 -74 -32 -235 -42 -220 -58 -363 -40 -363 32 0 284 224
362 323 21 26 44 47 51 47 7 0 67 -36 134 -80 l121 -80 0 -109 c0 -129 -8
-158 -47 -166 -68 -15 -193 -48 -253 -67 -71 -23 -270 -113 -270 -122 0 -11
244 -124 320 -149 41 -13 108 -30 148 -37 l73 -13 -3 -135 -3 -135 -95 -59
c-52 -33 -101 -62 -108 -65 -7 -3 -62 42 -125 103 -61 59 -148 134 -192 167
-44 32 -91 67 -105 78 -22 18 -25 18 -28 3 -12 -56 74 -393 118 -466 32 -53
27 -70 -37 -108 -32 -19 -80 -49 -108 -67 -27 -18 -58 -33 -69 -33 -11 0 -49
19 -85 42 -69 46 -92 60 -128 79 -27 14 -28 32 -9 91 50 149 115 528 91 528
-32 0 -300 -243 -331 -300 -7 -14 -29 -43 -48 -65 l-35 -40 -53 28 c-29 16
-88 52 -131 79 l-78 51 3 131 3 131 50 11 c79 17 230 72 353 127 l114 51 -79
39 c-84 43 -299 117 -339 117 -14 0 -24 -6 -24 -15 0 -32 -65 -45 -110 -22
-25 12 -25 15 -35 189 -6 97 -14 180 -17 184 -4 3 -71 -29 -149 -71 -107 -58
-147 -75 -159 -68 -20 13 -25 96 -9 136 14 34 83 81 181 121 37 16 83 43 102
61 33 30 36 38 36 87 0 30 -3 57 -6 61 -4 3 -61 -23 -129 -58 -86 -46 -133
-65 -158 -65 l-37 0 0 49 c0 79 9 91 126 160 60 36 128 78 151 93 l43 29 0
139 c0 83 -4 140 -10 140 -5 0 -69 -31 -143 -70 -95 -50 -144 -70 -170 -70
l-37 0 0 161 0 161 -27 -7 c-15 -3 -76 -36 -135 -73 l-108 -67 -2 -183 -3
-184 -41 -29 c-22 -16 -53 -31 -70 -32 l-29 -2 -11 153 c-6 85 -16 158 -23
165 -8 8 -22 3 -53 -20 l-43 -31 -3 -180 -2 -181 -33 -27 c-17 -15 -52 -36
-76 -47 -43 -19 -45 -19 -58 -1 -9 13 -13 59 -13 166 0 95 -4 148 -10 148 -6
0 -38 -14 -72 -31 l-61 -31 57 -57 c31 -31 56 -63 56 -71 0 -8 -11 -51 -25
-95 -14 -44 -25 -94 -25 -112 l0 -32 73 39 c39 22 82 40 94 40 22 0 27 -21 36
-165 l2 -40 90 87 90 86 55 -18 c30 -10 93 -28 140 -41 47 -12 91 -28 99 -35
12 -11 9 -31 -24 -141 -20 -70 -42 -133 -49 -139 -6 -6 -66 -24 -134 -39 -72
-17 -121 -33 -119 -39 2 -6 33 -27 70 -47 37 -19 75 -43 85 -53 16 -16 16 -18
-8 -36 -14 -11 -54 -36 -89 -57 l-65 -38 50 -13 c27 -7 88 -25 136 -39 l87
-26 25 -101 c13 -56 30 -120 37 -144 7 -25 8 -47 3 -52 -11 -11 -248 -80 -272
-80 -9 0 -60 42 -112 92 l-95 93 -5 -90 c-4 -75 -8 -90 -22 -93 -10 -2 -56 18
-103 43 -47 26 -85 43 -85 38 0 -4 13 -57 30 -118 16 -60 30 -116 30 -124 0
-19 -200 -221 -220 -221 -9 0 -58 41 -109 91 l-94 91 6 66 c4 37 15 96 26 131
11 36 19 67 17 69 -5 5 -84 -33 -121 -58 -16 -11 -40 -20 -52 -20 -22 0 -23 3
-23 102 l0 103 -84 -84 c-83 -82 -84 -83 -127 -79 -55 6 -240 56 -256 70 -7 6
-13 22 -13 37 0 31 45 203 63 240 12 26 12 26 -48 41 l-60 15 -12 50 c-7 28
-28 115 -47 194 -19 79 -41 148 -48 152 -7 5 -37 9 -66 9 -46 0 -53 -2 -48
-17 15 -53 65 -272 68 -298 3 -30 3 -30 -47 -29 -27 1 -69 7 -92 13 -37 10
-44 16 -52 49 -5 20 -26 108 -47 194 -31 131 -41 160 -60 173 -31 20 -199 65
-245 65 -38 0 -109 -43 -128 -78 -12 -23 41 -271 61 -283 13 -9 301 -103 349
-114 23 -6 29 -16 48 -86 12 -44 19 -89 16 -100 -7 -21 -3 -22 -155 18 -148
39 -204 52 -209 47 -2 -2 1 -28 8 -56 l11 -53 191 -60 c111 -35 194 -66 199
-75 4 -8 16 -48 25 -88 14 -58 16 -76 6 -82 -7 -4 -89 12 -183 37 -94 24 -175
40 -179 36 -7 -7 16 -129 40 -210 11 -38 10 -39 -95 -49 l-71 -6 -26 73 c-14
41 -30 87 -34 103 -5 17 -14 31 -21 34 -6 2 -52 -34 -103 -80 -190 -172 -185
-171 -213 -51 -18 81 -18 83 0 111 11 16 74 79 140 140 l122 111 -10 48 c-6
26 -13 52 -17 56 -7 7 -66 -38 -194 -148 -88 -75 -113 -71 -138 23 -20 76 -17
80 91 179 47 42 109 98 138 125 l53 50 -23 130 c-24 145 -38 172 -96 188 -71
19 -81 15 -195 -85 -88 -79 -106 -100 -102 -118 19 -80 69 -300 78 -339 9 -41
8 -50 -8 -68 -27 -30 -133 -93 -148 -87 -7 2 -29 78 -50 168 -22 90 -41 170
-43 177 -3 10 -20 1 -53 -27 l-50 -42 14 -47 c30 -102 76 -328 70 -349 -5 -22
-107 -113 -126 -113 -18 0 -61 115 -87 233 -18 81 -30 117 -40 117 -8 0 -50
-34 -94 -75 -45 -43 -88 -75 -100 -75 -11 0 -41 22 -67 48 -46 48 -49 49 -122
56 -41 4 -147 1 -237 -5 -123 -10 -165 -10 -174 -1 -9 9 -7 39 6 122 10 61 15
114 12 118 -8 7 -67 -23 -94 -48 -10 -10 -33 -21 -50 -25 -30 -6 -38 -1 -150
107 -119 114 -160 149 -286 239 -82 59 -92 54 -82 -45 14 -121 77 -360 117
-438 11 -21 19 -51 19 -68 0 -25 -8 -35 -43 -58 -24 -15 -63 -36 -85 -46 -65
-29 -58 -37 71 -87 80 -31 87 -36 87 -61 0 -16 -24 -62 -63 -120 -59 -88 -122
-197 -191 -333 -17 -33 -38 -60 -46 -60 -9 0 -64 98 -150 268 l-135 268 22 18
c11 10 52 28 90 40 83 28 94 37 55 46 -17 3 -47 21 -68 39 -45 39 -46 45 -15
231 38 226 53 395 34 395 -27 0 -128 -88 -268 -233 -153 -157 -166 -169 -183
-155 -19 17 -143 81 -147 76 -1 -2 8 -52 20 -113 12 -60 21 -113 19 -116 -2
-4 -99 -9 -216 -13 -117 -4 -226 -9 -242 -13 l-28 -5 56 -57 c31 -31 56 -60
56 -63 0 -16 -49 -31 -191 -58 -83 -15 -152 -30 -154 -32 -2 -2 23 -34 55 -70
33 -36 60 -75 60 -86 0 -19 -91 -113 -143 -147 l-28 -18 -58 57 c-54 53 -58
56 -73 39 -9 -10 -30 -58 -49 -108 -37 -101 -45 -115 -66 -115 -21 0 -159 135
-172 169 -10 23 -6 44 29 144 22 64 40 123 40 131 0 12 -69 62 -75 54 -1 -2
-10 -28 -20 -58 -40 -123 -56 -160 -73 -160 -9 0 -47 30 -84 67 -82 81 -82 81
-34 248 l35 120 -26 27 c-35 36 -47 25 -75 -66 -26 -85 -44 -116 -69 -116 -11
0 -57 38 -107 90 -94 98 -107 102 -122 37 -8 -36 -7 -38 101 -149 75 -79 109
-120 109 -137 0 -30 -35 -101 -72 -144 l-28 -32 -93 95 c-52 53 -99 94 -106
92 -6 -2 -18 -16 -25 -31 -14 -26 -12 -28 95 -141 69 -73 108 -123 109 -137 0
-32 -37 -124 -64 -157 -33 -40 -55 -32 -158 59 -48 41 -89 75 -92 75 -3 0 -6
-6 -6 -12 0 -7 -11 -36 -24 -65 -17 -37 -32 -54 -49 -58 -30 -8 -180 31 -208
54 -20 16 -21 18 -5 71 23 76 21 90 -10 90 -15 0 -67 -9 -116 -21 -50 -12
-100 -18 -115 -14 -25 6 -26 8 -21 74 6 82 37 144 82 164 17 8 90 27 161 42
91 20 135 34 148 48 17 19 24 57 10 57 -5 -1 -62 -9 -128 -18 -66 -10 -131
-16 -143 -14 -22 4 -23 8 -17 51 9 59 58 166 81 179 11 5 55 17 99 27 221 47
212 44 225 76 21 51 6 54 -130 29 -93 -17 -124 -20 -130 -11 -7 12 15 103 39
164 13 34 -1 43 -53 33 -34 -6 -34 -7 -92 -172 -39 -114 -64 -170 -78 -179
-20 -13 -42 -18 -149 -30 l-49 -5 5 53 c2 28 18 90 35 137 18 47 32 98 32 114
0 27 -2 28 -32 22 -52 -10 -77 -44 -99 -132 -11 -43 -25 -96 -30 -116 -11 -44
-50 -93 -91 -114 -39 -20 -177 -46 -205 -39 -32 8 -30 35 10 141 41 112 62
183 54 191 -4 3 -42 0 -87 -7 l-80 -12 0 -140 0 -139 -32 -19 c-50 -29 -138
-78 -185 -102 l-43 -22 -82 80 c-109 104 -170 154 -300 242 l-108 73 0 -35 c0
-90 58 -310 114 -431 47 -101 46 -119 -1 -144 -21 -11 -76 -42 -123 -70 -47
-28 -91 -51 -98 -51 -12 0 -54 23 -204 111 -69 40 -70 44 -29 173 16 50 37
128 45 174 9 45 23 117 31 160 18 94 19 162 4 162 -46 0 -293 -217 -421 -370
l-46 -55 -53 27 c-30 16 -94 52 -144 82 l-90 53 0 139 0 138 35 9 c175 44 343
103 505 176 l40 18 -50 26 c-120 60 -296 118 -429 142 -49 8 -95 20 -103 26
-10 9 -13 47 -13 154 l0 142 60 32 60 32 -2 197 -3 196 -30 17 c-16 10 -49 22
-72 27 l-43 10 0 -224 0 -224 -23 -5 c-25 -7 -92 19 -156 59 l-41 26 0 259 0
259 -52 40 c-66 50 -116 80 -195 116 l-62 29 -46 -18 c-26 -9 -62 -31 -81 -47
l-34 -30 0 -172 0 -172 28 -25 c15 -14 52 -41 82 -60 30 -20 110 -71 177 -115
l123 -79 0 -111 c0 -81 -4 -115 -13 -123 -10 -8 -36 2 -106 44 -51 30 -95 55
-96 55 -2 0 -41 23 -88 50 -47 28 -90 50 -96 50 -7 0 -11 -27 -11 -74 l0 -75
37 -26 c43 -29 254 -166 325 -210 l48 -30 0 -122 c0 -87 -3 -123 -12 -123 -6
0 -63 31 -127 68 -159 94 -249 142 -266 142 -13 0 -15 -26 -15 -161 l0 -161
-47 6 c-27 3 -73 8 -105 12 l-56 6 -7 117 c-9 173 -8 166 -30 169 -12 2 -58
-21 -105 -50 -47 -30 -116 -71 -155 -92 -38 -22 -71 -43 -73 -48 -2 -4 -11
-17 -20 -29 l-17 -20 -40 30 c-22 17 -45 35 -51 40 -18 15 -24 2 -24 -55 l0
-52 -52 -12 c-100 -24 -278 -94 -278 -110 0 -17 118 -53 225 -69 l110 -17 8
-54 c4 -30 8 -59 10 -63 1 -5 23 8 47 27 25 20 53 36 62 36 19 0 51 -41 78
-102 10 -24 39 -72 64 -107 73 -102 78 -99 -145 -100 l-190 0 5 27 c13 69 17
112 11 112 -4 0 -19 -8 -33 -19 -56 -39 -66 -37 -140 31 -37 35 -88 76 -113
93 -24 16 -46 32 -49 36 -11 12 -55 39 -64 39 -22 0 18 -188 60 -279 13 -30
22 -62 19 -71 -3 -10 -31 -29 -62 -42 l-57 -25 67 -23 c80 -28 84 -44 34 -111
-36 -48 -109 -168 -128 -211 -7 -16 -18 -28 -25 -28 -11 0 -58 80 -160 267
-26 48 -23 68 11 77 13 3 36 11 51 16 l27 11 -34 17 c-44 22 -46 46 -20 203
23 133 25 169 12 169 -15 0 -63 -41 -163 -138 -53 -52 -101 -92 -105 -90 -4 2
-25 12 -45 23 -21 10 -40 16 -44 12 -3 -3 -1 -29 5 -58 6 -29 8 -56 4 -60 -13
-12 -370 -23 -377 -11 -7 11 18 57 74 138 19 28 48 78 64 112 35 74 58 80 115
30 l36 -32 3 66 c3 75 -1 71 106 93 75 15 246 75 246 85 0 8 -178 63 -280 87
l-75 18 -5 57 -5 58 -50 -40 c-27 -22 -56 -40 -62 -40 -7 0 -24 23 -39 52 -14
28 -42 75 -60 103 l-35 52 -46 -24 c-88 -44 -83 -57 -83 224 l0 247 -48 45
c-26 25 -68 56 -92 69 -25 13 -79 44 -120 69 -198 121 -369 213 -395 213 -11
0 -7 -16 16 -67 39 -90 91 -138 167 -154 31 -6 67 -18 79 -25 26 -16 87 -120
78 -134 -3 -5 -31 -10 -61 -10 -53 0 -55 -1 -48 -22 11 -37 21 -44 90 -63 41
-11 80 -30 101 -48 36 -32 77 -100 66 -111 -4 -3 -33 -6 -66 -6 -57 0 -59 -1
-52 -22 20 -64 18 -76 -16 -108 -53 -47 -65 -47 -108 2 l-38 43 -24 -50 c-30
-62 -55 -69 -86 -23 -32 48 -37 96 -18 148 42 112 42 120 12 146 -16 13 -32
22 -36 19 -5 -2 -14 -25 -21 -50 -7 -25 -17 -48 -22 -51 -13 -8 -55 33 -85 83
l-24 42 20 69 c12 38 21 87 21 109 0 42 -36 122 -71 158 -19 19 -19 15 -19
-363 l0 -382 69 -45 c38 -24 119 -70 180 -101 70 -36 120 -68 133 -86 19 -28
19 -30 2 -49 -9 -10 -34 -24 -55 -29 -41 -11 -35 -14 -212 84 -80 45 -117 44
-117 -3 0 -25 10 -36 78 -79 101 -65 109 -75 88 -106 -18 -28 -60 -39 -127
-34 l-44 3 -5 -55 c-3 -30 -9 -61 -13 -67 -5 -8 -31 -13 -68 -13 l-59 0 0 65
c0 70 -2 73 -56 53 -27 -10 -40 -8 -88 12 -49 19 -56 26 -56 49 0 23 14 37 85
86 78 53 85 61 85 92 0 53 -21 47 -157 -45 -70 -47 -91 -56 -138 -60 -66 -5
-105 14 -105 53 0 14 4 25 8 25 7 0 89 50 222 134 19 13 65 42 103 66 l67 42
0 387 -1 386 -24 -30 c-30 -36 -65 -125 -65 -164 0 -15 7 -49 16 -75 25 -73
15 -149 -23 -188 -17 -17 -36 -27 -42 -24 -6 4 -23 30 -37 57 -14 28 -30 49
-37 46 -24 -8 -31 -85 -14 -141 21 -65 22 -126 3 -171 -12 -29 -20 -35 -45
-35 -26 0 -33 6 -51 47 l-20 47 -39 -38 -39 -38 -41 21 c-50 26 -75 62 -67 95
6 25 5 25 -61 28 -81 4 -87 14 -50 92 l23 50 99 25 c89 23 102 29 122 60 38
57 33 64 -42 56 -95 -10 -104 1 -64 74 43 77 57 87 133 95 100 10 109 16 156
101 23 42 40 78 37 81 -4 5 -145 -78 -472 -276 -66 -40 -130 -80 -142 -89 -22
-15 -22 -22 -23 -183 0 -92 4 -169 8 -172 5 -3 55 -19 112 -35 56 -16 107 -34
113 -40 7 -7 -3 -51 -32 -139 -48 -148 -26 -130 -213 -172 -54 -12 -95 -26
-92 -31 3 -5 29 -21 57 -35 69 -35 107 -63 107 -77 0 -7 -37 -32 -81 -56 -44
-24 -76 -48 -72 -52 4 -4 51 -20 103 -34 150 -41 139 -30 178 -189 19 -78 30
-142 25 -147 -5 -5 -71 -23 -146 -41 l-138 -32 -92 92 c-51 51 -96 92 -100 92
-4 0 -7 -38 -7 -84 0 -67 -3 -85 -16 -90 -9 -3 -51 14 -100 40 -62 33 -84 41
-84 30 0 -8 9 -54 20 -101 31 -133 32 -132 -59 -214 l-79 -71 -63 0 -63 0 -68
67 c-50 50 -68 75 -68 94 0 15 13 71 29 125 16 54 28 101 25 103 -2 2 -37 -12
-78 -32 -108 -54 -106 -55 -106 64 l0 101 -88 -81 c-69 -64 -93 -81 -117 -81
-30 1 -239 59 -262 73 -20 13 -14 73 16 177 32 111 30 109 173 142 54 12 98
25 98 30 0 4 -29 23 -63 42 -35 20 -71 44 -81 55 -19 21 -16 25 59 67 70 39
85 48 85 55 0 3 -42 18 -92 33 -51 15 -103 31 -115 36 -24 10 -32 32 -65 188
-19 89 -20 105 -7 116 12 12 218 56 261 56 9 0 56 -39 105 -86 l88 -86 2 44
c6 99 15 148 27 148 14 0 111 -48 146 -73 14 -9 27 -17 31 -17 4 0 -2 37 -12
83 -22 96 -24 167 -6 189 26 33 187 168 199 168 8 0 34 -21 58 -46 25 -25 59
-55 75 -67 26 -18 24 -14 -12 27 -37 42 -43 55 -43 93 0 27 5 46 13 49 8 3 62
-18 120 -45 89 -43 110 -49 132 -41 51 19 8 58 -164 147 -47 24 -89 50 -93 56
-14 22 -9 124 6 136 15 13 46 -2 203 -96 40 -24 74 -43 77 -43 2 0 35 -18 72
-40 38 -22 74 -40 79 -40 6 0 40 17 76 38 35 21 136 80 224 132 88 51 188 111
222 132 34 21 65 38 68 38 3 0 24 12 46 27 52 34 38 43 -73 43 l-86 0 -54 -42
c-29 -23 -60 -51 -68 -61 -13 -15 -27 -18 -90 -15 -74 3 -75 3 -78 31 -2 17 4
37 14 48 16 17 16 22 4 29 -8 6 -19 10 -25 10 -21 -1 -93 -39 -126 -67 -19
-17 -48 -38 -66 -47 -33 -17 -98 -22 -107 -8 -2 4 4 27 15 51 10 24 19 45 19
46 0 2 -14 8 -30 14 -57 20 -65 115 -12 148 15 9 29 18 31 20 2 1 -8 18 -23
37 -45 59 -33 86 39 86 53 0 101 -26 146 -80 40 -48 44 -50 92 -50 43 0 48 2
42 18 -4 9 -9 34 -12 56 -7 47 4 56 72 56 49 0 53 -2 115 -65 l64 -65 108 0
c60 0 108 4 108 9 0 5 -28 25 -62 44 -35 18 -135 76 -223 127 -88 51 -176 102
-195 113 -19 10 -66 38 -104 60 l-68 41 -52 -29 c-28 -15 -58 -34 -67 -41 -8
-8 -19 -14 -23 -14 -3 0 -35 -18 -69 -39 -233 -146 -250 -149 -245 -49 l3 63
140 92 c77 51 141 97 144 104 4 13 -17 29 -40 29 -8 0 -58 -27 -110 -60 -51
-33 -104 -60 -116 -60 -22 0 -23 4 -23 69 0 63 2 72 26 90 14 11 34 23 45 26
25 8 24 26 -5 47 l-24 17 -63 -104 c-41 -68 -70 -105 -81 -105 -14 0 -98 106
-98 124 0 2 -33 58 -73 123 -40 65 -79 132 -86 150 -15 38 -26 15 121 263 47
80 62 119 52 144 -5 13 -11 12 -47 -5 -43 -21 -49 -29 -188 -251 l-54 -87
-227 -1 -228 0 0 83 c0 66 4 87 20 107 11 14 20 29 20 33 0 4 8 20 19 35 10
15 42 64 71 110 l53 82 206 0 c199 0 207 1 245 24 l39 23 -39 27 c-38 26 -39
26 -234 26 l-195 0 -30 52 c-16 28 -41 70 -53 92 -13 23 -37 61 -52 86 -60 96
-70 120 -70 170 l0 50 233 0 c213 0 235 -2 250 -18 20 -22 109 -168 142 -233
25 -49 76 -99 101 -99 35 0 12 62 -76 209 -49 82 -90 160 -90 173 0 35 238
428 259 428 11 0 34 -29 62 -77z"/>
<path d="M13358 4419 c-41 -69 -48 -88 -48 -134 0 -30 11 -87 24 -127 13 -40
34 -119 47 -175 13 -57 27 -103 30 -103 6 0 45 141 93 338 l23 92 -21 38 c-39
71 -91 152 -96 152 -3 -1 -26 -37 -52 -81z"/>
<path d="M12800 4145 c0 -19 82 -173 102 -191 26 -24 403 -143 414 -131 3 2
-65 76 -149 163 l-154 159 -107 3 c-58 2 -106 1 -106 -3z"/>
<path d="M15042 4134 c-95 -42 -96 -200 -1 -250 43 -22 106 -20 138 4 48 35
73 83 68 129 -11 102 -109 159 -205 117z"/>
<path d="M12445 4133 c-56 -13 -238 -78 -297 -105 -51 -23 -65 -34 -58 -43 29
-35 351 -155 415 -155 53 0 55 -5 55 -114 0 -66 -4 -108 -12 -119 -14 -18
-176 -117 -192 -117 -5 0 -28 20 -50 43 -77 82 -306 267 -331 267 -20 0 47
-270 92 -372 40 -91 38 -97 -42 -139 l-43 -23 25 -51 c29 -56 117 -210 157
-273 37 -60 34 -68 -31 -87 -64 -19 -135 -55 -131 -67 2 -4 32 -25 68 -46 35
-22 69 -46 74 -55 7 -11 -2 -62 -31 -174 -48 -183 -70 -321 -65 -411 4 -75 1
-75 107 3 91 67 223 198 282 277 54 73 90 83 164 44 28 -14 54 -26 57 -26 4 0
6 52 4 116 -2 64 0 120 5 124 4 5 91 4 193 -1 102 -6 200 -7 219 -4 33 6 33 6
26 51 l-6 44 53 0 c29 -1 75 -9 103 -18 l50 -17 21 -85 c12 -47 32 -133 45
-191 l23 -106 45 -17 c26 -9 56 -16 69 -16 28 0 29 -13 -25 213 -23 94 -33
151 -27 157 14 14 142 -23 164 -46 17 -19 44 -98 82 -244 35 -136 36 -139 86
-164 94 -47 217 -59 281 -27 55 29 65 44 52 83 -6 18 -22 87 -37 153 -14 66
-29 123 -33 127 -3 4 -60 23 -126 42 -175 50 -238 73 -256 95 -21 26 -46 158
-32 172 11 11 100 -9 275 -62 43 -12 80 -20 83 -17 10 10 -16 108 -29 108 -7
0 -77 20 -155 45 -78 25 -147 45 -152 45 -5 0 -9 -19 -9 -42 0 -41 -5 -47
-117 -160 -65 -65 -122 -118 -127 -118 -5 0 -58 48 -117 107 l-109 107 0 50
c0 28 11 95 25 149 34 132 34 131 -12 112 -21 -9 -62 -31 -90 -50 -83 -55 -83
-55 -83 90 0 69 -3 125 -7 125 -5 0 -51 -45 -103 -100 -79 -83 -101 -100 -125
-100 -43 0 -307 77 -317 92 -4 7 -8 24 -8 38 0 31 67 292 78 300 7 6 73 26
220 66 l63 17 -73 48 c-40 27 -78 49 -84 49 -6 0 -19 9 -29 20 -24 26 -15 36
91 102 46 29 84 55 84 58 0 3 -51 20 -113 38 -160 47 -159 46 -181 125 -20 68
-24 71 -71 60z"/>
<path d="M13657 3984 c-76 -80 -136 -148 -134 -150 9 -9 373 87 403 106 20 13
49 54 96 138 l30 52 -129 0 -128 0 -138 -146z"/>
<path d="M11285 4074 c-87 -50 -105 -62 -105 -74 0 -4 39 -28 88 -53 l87 -45
65 23 c83 29 213 92 203 98 -22 14 -234 97 -245 97 -7 0 -49 -21 -93 -46z"/>
<path d="M14440 4019 c-25 -4 -76 -19 -114 -34 -39 -14 -79 -24 -91 -21 -19 5
-221 -47 -234 -60 -8 -8 24 -31 81 -59 78 -38 119 -67 116 -80 -2 -8 -46 -42
-98 -76 l-95 -63 60 -18 c33 -11 98 -30 145 -44 47 -13 90 -31 96 -39 6 -8 21
-59 33 -115 l23 -100 30 22 c30 21 31 21 44 3 8 -10 14 -27 14 -38 0 -10 5
-15 10 -12 6 3 10 18 10 33 0 38 7 45 85 81 85 39 130 73 150 111 15 30 49
228 43 256 -3 16 -10 7 -117 -141 -30 -41 -61 -75 -68 -75 -18 0 -26 19 -83
185 l-50 148 135 -7 c81 -5 135 -4 135 2 0 5 -21 27 -47 48 -119 98 -138 106
-213 93z"/>
<path d="M950 3872 c0 -24 13 -60 38 -102 42 -74 127 -216 145 -243 10 -15 7
-27 -15 -67 -23 -41 -25 -49 -12 -54 22 -9 31 -1 38 35 7 39 41 86 65 94 21 6
22 4 -75 170 -16 28 -36 63 -44 78 -24 47 -78 104 -110 115 -30 11 -30 11 -30
-26z"/>
<path d="M10951 3894 c-14 -10 -19 -20 -13 -26 13 -13 108 -65 165 -90 41 -18
48 -25 45 -47 -3 -29 -58 -71 -93 -71 -12 0 -76 27 -143 60 -66 33 -130 60
-142 60 -26 0 -128 -53 -161 -83 -18 -17 -20 -22 -8 -29 113 -66 204 -129 207
-144 2 -13 -10 -26 -35 -40 -21 -12 -71 -41 -111 -65 -65 -40 -70 -45 -55 -58
33 -25 168 -84 194 -84 14 0 64 23 111 52 96 59 135 68 193 48 32 -11 40 -19
40 -38 0 -24 -1 -25 -140 -112 -25 -16 -45 -32 -45 -36 0 -4 14 -15 31 -25 39
-23 74 -17 148 28 140 83 162 88 229 46 57 -35 41 -57 -98 -133 -19 -11 -43
-25 -53 -32 -18 -13 -18 -14 5 -29 12 -8 55 -29 93 -47 88 -40 115 -64 115
-101 0 -46 -26 -88 -55 -88 -14 0 -75 25 -136 55 -61 30 -115 55 -120 55 -5 0
-9 -57 -9 -129 0 -78 -4 -132 -10 -136 -13 -8 -105 22 -119 39 -6 7 -16 79
-23 160 -7 81 -17 154 -23 161 -5 8 -22 17 -37 21 l-28 6 0 -130 c0 -108 -3
-131 -16 -136 -23 -9 -108 39 -122 69 -7 16 -12 77 -12 160 0 74 -4 135 -8
135 -5 0 -51 23 -101 50 -51 28 -97 48 -102 45 -5 -4 -9 -64 -9 -135 0 -101
-3 -129 -14 -133 -8 -3 -67 21 -131 54 l-116 59 3 -111 3 -111 35 -19 c19 -10
74 -39 123 -65 l87 -48 0 -63 c0 -44 -4 -63 -12 -63 -7 1 -44 16 -83 35 -38
18 -71 33 -72 31 -1 -1 -9 -18 -17 -37 l-14 -34 104 -55 104 -55 0 -67 c0 -37
-5 -70 -11 -73 -5 -4 -64 20 -129 54 l-119 60 -3 -152 -3 -152 -65 -1 c-36 -1
-90 -6 -120 -12 -30 -6 -88 -13 -128 -16 -106 -9 -152 -38 -152 -97 0 -25 11
-24 148 6 61 13 78 13 100 3 42 -20 40 -57 -8 -144 -44 -81 -43 -104 6 -104
40 0 80 48 104 125 13 39 38 105 58 147 31 71 38 79 76 92 49 18 137 29 160
20 24 -9 21 -26 -30 -173 -33 -98 -42 -136 -33 -141 12 -8 67 4 81 18 6 6 67
168 101 271 13 40 47 63 132 87 l62 18 -35 60 c-19 34 -48 86 -65 116 -17 30
-43 73 -59 94 -15 21 -28 47 -28 58 0 17 13 18 293 16 l292 -3 1 -100 c1 -55
2 -103 3 -108 1 -4 28 6 60 23 37 18 67 27 78 23 10 -4 77 -59 148 -123 146
-130 227 -194 298 -234 l47 -27 0 59 c0 112 -37 283 -94 437 -8 22 -15 58 -16
80 0 39 2 42 65 80 36 22 76 48 88 57 22 16 22 17 2 24 -11 4 -59 22 -107 40
-48 19 -92 34 -98 34 -20 0 -9 34 30 96 22 35 40 66 40 69 0 2 17 33 38 67 21
35 50 84 65 110 l27 47 -60 36 c-70 43 -71 45 -35 160 29 92 65 286 65 352 l0
44 -31 -18 c-47 -27 -214 -188 -276 -265 -40 -51 -58 -66 -71 -61 -9 4 -60 33
-112 65 l-95 59 -5 112 -5 112 -65 32 c-72 36 -124 41 -159 17z"/>
<path d="M10305 3833 c-83 -42 -95 -58 -95 -124 0 -32 3 -60 8 -62 4 -3 33 10
65 29 32 19 62 34 67 34 6 0 10 34 10 75 0 41 -1 75 -2 75 -2 -1 -25 -12 -53
-27z"/>
<path d="M15620 3836 c-97 -40 -170 -77 -170 -87 0 -17 51 -29 128 -29 82 0
148 -12 164 -28 12 -12 -12 -56 -65 -122 -18 -21 -54 -70 -82 -109 -29 -41
-57 -71 -68 -71 -19 0 -48 58 -94 187 -42 118 -68 100 -68 -47 0 -125 15 -159
102 -231 l75 -61 -7 -61 c-16 -143 -29 -202 -48 -205 -11 -2 -54 26 -108 69
l-90 73 7 108 c10 160 8 165 -92 249 -46 40 -87 69 -90 66 -7 -6 36 -143 69
-220 14 -34 17 -51 9 -59 -11 -11 -310 18 -333 33 -21 13 -1 52 75 154 70 92
88 125 69 125 -5 0 -37 -18 -73 -40 -36 -22 -74 -40 -85 -40 -13 0 -37 -24
-68 -64 -41 -55 -49 -73 -63 -150 -11 -58 -24 -96 -38 -112 -25 -28 -212 -108
-234 -99 -10 4 -13 15 -9 39 5 33 4 33 -76 -44 -45 -43 -101 -93 -124 -111
-28 -22 -42 -42 -42 -58 -1 -38 21 -101 35 -101 7 0 72 52 145 116 72 63 135
112 139 107 9 -10 40 -140 40 -167 0 -21 -130 -158 -206 -217 -87 -67 -86 -64
-49 -213 18 -70 39 -134 47 -142 7 -8 39 -19 71 -25 54 -11 59 -10 94 13 56
37 181 156 188 178 3 11 -3 54 -15 97 -11 43 -31 126 -43 185 l-24 107 61 60
c34 34 67 61 73 61 20 0 32 -34 68 -192 19 -83 38 -155 42 -159 4 -4 28 9 52
30 l44 38 -36 149 c-20 82 -41 171 -47 198 l-11 50 63 63 c34 35 70 63 80 63
24 0 43 -47 84 -209 19 -74 38 -139 43 -144 10 -10 125 87 144 119 4 8 23 14
42 14 27 0 40 -8 64 -37 47 -57 42 -78 -39 -158 -38 -38 -70 -72 -70 -76 0 -3
51 -21 113 -39 107 -32 242 -82 255 -95 4 -4 -19 -31 -50 -61 -68 -66 -82 -67
-248 -24 -63 17 -145 38 -182 47 l-67 17 -40 -27 c-73 -49 -74 -48 179 -128
l165 -52 -69 -63 c-64 -60 -71 -64 -116 -64 -52 0 -112 16 -180 48 -107 51
-170 63 -213 41 -12 -7 -53 -42 -92 -80 -38 -37 -80 -76 -93 -86 l-24 -18 21
-79 c11 -43 23 -82 28 -86 4 -3 63 -21 131 -39 110 -30 126 -32 155 -20 17 7
79 61 137 119 122 124 159 142 238 121 49 -13 82 -36 82 -57 0 -7 -57 -67
-127 -134 -120 -115 -127 -123 -108 -136 27 -20 104 -18 136 4 14 9 68 60 120
113 122 124 156 138 259 107 38 -11 71 -27 75 -36 3 -9 -12 -32 -40 -59 -25
-25 -45 -48 -44 -52 0 -3 33 -34 72 -69 l72 -63 3 95 c3 117 5 117 127 51 l82
-45 -23 97 c-34 139 -32 171 11 213 31 30 34 38 29 68 -6 29 -2 38 27 69 45
46 97 81 197 133 45 23 82 48 82 54 0 12 -16 23 -78 57 -20 11 -68 40 -107 63
-60 38 -70 48 -70 72 0 23 7 33 35 46 66 33 109 25 243 -48 116 -63 125 -65
175 -60 99 9 108 42 25 86 -106 55 -186 105 -196 121 -15 24 -1 48 38 64 64
28 96 20 244 -59 102 -55 145 -73 162 -69 34 9 192 99 212 121 16 17 15 20
-11 44 -15 14 -72 46 -127 72 -56 26 -108 59 -119 72 -18 25 -18 26 3 48 12
13 64 45 117 72 103 53 147 87 142 111 -2 8 -23 26 -48 40 -25 14 -76 44 -115
66 -38 22 -74 40 -81 40 -6 0 -84 -39 -174 -87 -148 -80 -166 -88 -202 -82
-52 8 -98 43 -98 73 0 27 32 49 130 90 105 44 140 69 140 101 0 22 -8 31 -40
46 -56 27 -86 17 -208 -69 -140 -98 -164 -106 -239 -74 -101 43 -80 85 81 169
47 25 99 55 114 68 31 26 36 19 -70 82 -37 22 -75 40 -85 40 -10 0 -45 -13
-78 -28 -33 -16 -77 -34 -97 -41 l-38 -13 -74 62 c-69 57 -120 81 -166 79 -8
0 -40 -11 -70 -23z"/>
<path d="M9927 3843 c-4 -3 -7 -33 -7 -65 l0 -58 60 -30 c33 -16 64 -30 70
-30 5 0 10 24 10 54 0 48 -3 57 -27 74 -59 40 -100 61 -106 55z"/>
<path d="M6793 3770 c-40 -28 -75 -55 -78 -60 -5 -9 169 -131 235 -165 15 -8
48 -30 73 -49 l45 -34 4 59 c2 32 7 61 11 65 3 4 21 4 40 0 31 -6 57 -22 208
-128 36 -25 65 -38 87 -38 l32 0 -26 53 c-65 127 -144 225 -202 248 -13 5 -84
9 -157 9 -132 0 -134 0 -152 25 -51 73 -40 72 -120 15z"/>
<path d="M9359 3714 c-96 -66 -145 -78 -209 -49 -30 14 -40 24 -40 42 0 23 0
23 -134 23 l-134 0 -48 -33 c-33 -22 -68 -62 -106 -118 -62 -90 -118 -190
-118 -208 0 -31 71 1 199 88 94 64 147 90 189 91 22 0 22 -1 22 -160 l0 -160
44 0 c33 0 66 -12 137 -50 52 -27 103 -50 115 -50 28 0 84 20 84 30 0 7 -83
59 -179 112 -37 20 -40 50 -9 72 41 29 91 20 208 -39 60 -30 118 -55 129 -55
21 0 146 63 174 88 24 21 16 27 -106 87 -88 43 -102 54 -105 77 -4 37 22 60
109 93 77 30 109 50 109 69 0 13 -85 71 -135 92 -67 28 -106 19 -196 -42z"/>
<path d="M13655 3560 l170 -170 107 0 c60 0 108 3 108 8 0 8 -48 104 -75 149
-26 44 -54 57 -246 114 -96 28 -187 55 -204 60 -23 7 10 -31 140 -161z"/>
<path d="M13262 3709 c-13 -5 -78 -20 -145 -33 -203 -40 -219 -51 -291 -194
l-36 -72 121 0 120 0 111 108 c60 59 128 128 150 155 38 44 39 47 16 46 -12 0
-33 -4 -46 -10z"/>
<path d="M13360 3456 l-52 -214 16 -48 c18 -54 72 -154 84 -154 10 0 94 137
109 177 13 35 15 23 -67 328 -18 66 -33 121 -35 123 -1 1 -26 -94 -55 -212z"/>
<path d="M7905 3619 c-72 -38 -93 -59 -120 -113 -85 -175 34 -368 226 -367
106 0 192 60 229 158 49 131 -2 258 -130 323 -55 28 -151 27 -205 -1z"/>
<path d="M9767 3544 c-54 -34 -57 -37 -42 -54 21 -23 116 -54 146 -47 13 3 43
20 67 38 49 36 46 46 -19 80 -55 27 -87 24 -152 -17z"/>
<path d="M10363 3561 c-47 -29 -44 -57 10 -81 50 -23 88 -25 126 -6 54 28 55
40 10 71 -56 37 -105 42 -146 16z"/>
<path d="M6395 3542 c-39 -24 -61 -52 -49 -60 27 -19 230 -151 342 -222 28
-18 52 -37 52 -41 0 -5 -35 -31 -77 -58 -67 -44 -85 -51 -129 -51 -58 0 -98
22 -234 130 -95 75 -130 96 -180 104 -38 7 -32 10 -220 -108 l-110 -69 0 -112
0 -112 28 -14 c15 -7 50 -27 77 -45 202 -125 219 -125 399 6 117 86 166 109
224 110 117 0 221 -104 143 -144 -16 -9 -75 -46 -132 -84 -57 -37 -125 -80
-151 -95 -27 -15 -48 -30 -48 -33 0 -20 25 -44 60 -58 49 -20 90 -20 134 -2
35 15 137 84 148 101 3 5 44 67 89 138 l83 127 153 0 c151 0 153 0 215 31 35
18 83 53 108 79 46 48 130 193 119 205 -11 10 -88 -25 -191 -87 -64 -38 -113
-60 -143 -64 l-44 -7 -3 142 -3 141 -39 -27 c-24 -16 -58 -28 -87 -31 -41 -4
-55 1 -115 35 -68 40 -176 101 -285 162 -65 36 -92 38 -134 13z"/>
<path d="M4190 3486 c-264 -165 -289 -175 -370 -154 -21 6 -30 1 -54 -28 -27
-35 -27 -35 -9 -61 45 -64 53 -80 53 -115 0 -36 -2 -38 -30 -38 -17 0 -66 18
-110 40 -82 41 -104 46 -130 30 -12 -8 -10 -14 13 -38 30 -31 168 -116 216
-133 31 -11 31 -12 31 -80 0 -69 0 -69 -27 -69 -29 0 -42 7 -262 135 l-135 77
-46 -19 c-25 -11 -146 -82 -268 -159 -122 -76 -247 -154 -277 -172 -32 -19
-53 -38 -49 -44 4 -6 32 -9 75 -6 70 5 84 11 184 83 50 35 64 40 127 43 38 3
74 0 80 -6 6 -6 -1 -26 -21 -59 -17 -28 -31 -54 -31 -58 0 -4 21 -5 46 -2 38
4 55 13 98 55 65 64 104 83 174 85 69 2 76 -12 32 -68 -16 -21 -30 -42 -30
-46 0 -5 13 -21 30 -35 54 -49 49 -126 -9 -139 -33 -7 -33 -19 1 -67 35 -51 3
-75 -78 -58 -43 9 -64 21 -110 66 -51 48 -62 54 -101 54 -48 0 -53 -11 -28
-61 9 -16 13 -34 10 -39 -3 -6 -40 -10 -82 -10 l-76 0 -58 55 -58 55 -105 0
c-58 0 -106 -3 -106 -7 0 -8 67 -49 365 -224 77 -45 167 -99 201 -120 69 -45
113 -50 159 -19 96 66 366 220 375 215 5 -3 10 -37 10 -74 l0 -68 -127 -83
c-140 -91 -161 -110 -136 -123 34 -20 82 -8 160 37 44 25 92 46 108 46 26 0
27 -2 22 -37 -4 -20 -22 -62 -42 -94 -19 -31 -35 -61 -35 -67 0 -5 16 -22 35
-36 41 -31 46 -70 16 -107 -18 -22 -22 -23 -71 -13 -54 11 -80 1 -80 -30 0 -7
-11 -30 -25 -50 l-24 -36 69 0 70 0 0 -60 c0 -33 2 -60 5 -60 2 0 20 7 39 17
l35 16 83 -69 c87 -73 203 -154 221 -154 16 0 -1 121 -29 202 -14 40 -28 89
-31 109 -5 35 -3 37 47 66 29 17 48 33 44 35 -5 3 -34 13 -64 23 -30 10 -58
22 -61 28 -7 10 16 53 93 172 73 113 88 148 88 210 0 41 -4 57 -15 61 -9 4
-61 -22 -126 -60 -77 -48 -118 -66 -137 -64 -30 3 -66 50 -84 110 -11 37 -10
41 18 67 16 16 58 43 94 62 72 36 110 66 110 85 0 7 -21 26 -47 41 -57 32
-268 165 -300 188 -46 32 -26 58 99 129 58 32 78 33 128 1 22 -14 42 -25 46
-25 3 0 31 -15 62 -34 171 -101 241 -136 273 -136 48 1 119 35 119 58 0 24
-138 115 -228 151 -119 47 -167 125 -104 169 44 32 104 53 152 54 37 1 59 -7
120 -45 185 -112 286 -167 306 -167 30 0 276 145 296 174 4 6 8 49 8 94 0 80
-1 85 -30 112 -60 56 -239 160 -276 160 -6 0 -83 -44 -170 -97 -190 -116 -250
-146 -275 -140 -10 3 -50 25 -89 48 -51 33 -69 49 -67 63 2 16 207 164 357
257 35 21 -76 79 -151 79 -23 -1 -61 -17 -119 -54z"/>
<path d="M17780 3524 c-45 -20 -68 -41 -91 -86 -18 -36 -25 -110 -13 -142 11
-29 90 -11 157 36 26 19 27 22 27 114 0 91 -1 94 -22 94 -13 -1 -39 -8 -58
-16z"/>
<path d="M1290 3417 c0 -108 1 -114 23 -124 43 -19 47 -9 47 118 l0 119 -35 0
-35 0 0 -113z"/>
<path d="M17326 3522 c-3 -3 -6 -38 -6 -78 0 -84 4 -89 108 -138 75 -36 84
-30 86 50 0 55 -1 58 -41 94 -42 37 -136 83 -147 72z"/>
<path d="M10217 3383 c-4 -3 -7 -34 -7 -67 l0 -61 61 -39 c34 -22 71 -40 83
-40 19 -1 21 4 19 59 -3 71 -21 100 -84 132 -47 24 -62 27 -72 16z"/>
<path d="M10007 3356 c-84 -35 -87 -39 -87 -112 0 -35 4 -64 9 -64 19 0 142
61 146 73 2 7 6 38 9 70 7 67 6 67 -77 33z"/>
<path d="M13830 3196 c0 -114 1 -116 73 -116 22 0 27 4 23 18 -3 9 -10 46 -17
81 -11 59 -47 121 -70 121 -5 0 -9 -47 -9 -104z"/>
<path d="M5330 3234 c-19 -8 -49 -26 -67 -40 l-33 -25 0 -98 c0 -93 1 -98 28
-123 15 -14 55 -40 89 -57 l61 -30 49 27 c103 57 103 57 103 170 l0 100 -72
46 c-76 49 -103 54 -158 30z"/>
<path d="M8570 3235 c0 -3 12 -29 26 -58 39 -76 105 -150 183 -201 63 -42 74
-46 131 -46 52 0 72 5 124 35 59 33 104 71 95 79 -2 2 -37 22 -76 44 -73 41
-73 41 -73 16 0 -21 -5 -24 -34 -24 -20 0 -61 14 -98 34 -35 18 -102 54 -150
80 -77 41 -128 57 -128 41z"/>
<path d="M9700 3184 c-133 -73 -130 -69 -129 -154 l0 -75 74 -60 c40 -33 78
-61 84 -63 6 -2 22 22 36 53 23 52 25 70 25 196 0 105 -3 139 -12 139 -7 0
-42 -16 -78 -36z"/>
<path d="M17153 3154 c-92 -49 -103 -59 -78 -79 27 -21 142 -75 161 -75 8 0
49 23 90 51 l76 51 -24 25 c-31 33 -90 63 -127 63 -16 0 -60 -16 -98 -36z"/>
<path d="M17880 3173 c-14 -9 -37 -27 -52 -41 -33 -30 -27 -42 36 -74 72 -37
171 -23 219 30 18 19 17 20 -9 41 -38 30 -111 61 -143 61 -15 0 -38 -7 -51
-17z"/>
<path d="M9941 3021 l-114 -58 55 -11 c79 -15 169 -58 175 -82 12 -47 23 -1
23 101 0 81 -3 109 -12 108 -7 0 -64 -26 -127 -58z"/>
<path d="M9377 2999 l-37 -30 0 -134 0 -133 -29 -25 c-16 -13 -31 -33 -33 -43
-3 -18 -15 -19 -170 -22 l-167 -2 -12 -43 c-6 -23 -20 -69 -30 -102 -25 -79
-24 -91 8 -112 25 -17 26 -17 42 7 22 33 56 117 72 178 8 35 18 52 29 52 23 0
170 -152 170 -176 0 -12 -9 -47 -21 -80 -11 -32 -31 -95 -44 -139 l-24 -80 31
-32 c31 -32 48 -35 48 -7 0 30 68 162 89 174 20 10 29 5 83 -45 84 -78 107
-92 119 -74 5 8 9 27 9 43 0 24 -19 49 -99 131 -109 112 -122 138 -101 213 6
23 21 54 34 68 28 34 60 28 114 -20 20 -18 62 -49 92 -70 50 -33 56 -35 68
-19 21 30 13 53 -34 96 -135 121 -165 153 -170 174 -3 12 1 44 10 70 12 36 15
66 10 125 -4 43 -10 81 -14 83 -4 2 -23 -10 -43 -26z"/>
<path d="M17457 2924 c-42 -15 -105 -65 -124 -98 -15 -25 -17 -110 -3 -136 8
-16 15 -17 52 -8 46 10 105 42 126 66 7 10 12 48 12 104 0 97 1 96 -63 72z"/>
<path d="M17680 2851 l0 -88 78 -52 c87 -57 107 -62 116 -28 7 28 8 115 0 142
-7 26 -140 115 -171 115 -22 0 -23 -2 -23 -89z"/>
<path d="M7293 2895 c-47 -20 -112 -89 -179 -191 -49 -74 -64 -90 -88 -92 -16
-2 -52 -18 -80 -36 -28 -19 -93 -59 -143 -91 -51 -32 -93 -63 -93 -70 0 -26
37 -55 117 -90 l81 -37 105 61 c57 34 114 61 126 61 24 0 181 -82 219 -115
l25 -21 -32 -125 c-50 -201 -62 -267 -68 -389 l-6 -114 26 17 c131 86 221 159
330 268 59 60 115 109 123 109 9 0 54 -23 100 -51 47 -29 86 -50 88 -48 2 2
-25 55 -60 118 -35 63 -64 123 -64 133 0 11 26 63 57 116 55 92 58 101 61 174
4 75 3 80 -37 154 -52 95 -123 204 -133 204 -4 0 -8 -86 -8 -190 0 -162 -2
-192 -15 -196 -18 -7 -63 15 -235 116 -120 70 -170 105 -170 121 0 6 42 33
248 160 85 53 74 59 -105 59 -113 -1 -167 -5 -190 -15z"/>
<path d="M8374 2881 c10 -11 75 -52 144 -92 70 -40 138 -80 152 -90 l26 -17
18 69 c10 38 22 71 27 74 19 12 8 32 -30 53 -35 20 -53 22 -196 22 -156 0
-158 0 -141 -19z"/>
<path d="M8221 2827 c-6 -8 -33 -59 -60 -114 -27 -56 -54 -104 -60 -108 -17
-10 -14 -217 2 -239 13 -18 19 -17 152 12 76 17 143 36 149 42 7 7 4 16 -11
31 -20 20 -22 20 -52 4 -18 -9 -42 -15 -54 -13 -22 3 -22 6 -25 189 -2 142 -6
190 -16 198 -10 8 -16 8 -25 -2z"/>
<path d="M5050 2722 c-25 -14 -89 -52 -142 -85 l-98 -59 0 -267 c0 -247 -1
-269 -18 -284 -25 -23 -130 -65 -181 -73 l-41 -7 0 237 c0 130 -2 236 -5 236
-3 0 -32 -14 -65 -30 l-60 -30 0 -265 c0 -255 -1 -265 -20 -275 -16 -9 -18
-15 -10 -31 15 -27 7 -35 -50 -49 -28 -7 -52 -16 -55 -20 -3 -5 14 -19 37 -32
52 -28 56 -46 29 -126 -25 -74 -43 -186 -39 -242 l3 -42 65 48 c36 26 97 80
137 121 74 75 90 82 133 58 14 -8 28 -14 33 -15 4 0 7 32 7 71 l0 70 93 -7 94
-6 104 62 c57 35 139 85 182 112 l77 50 0 74 c0 50 -4 74 -12 74 -6 0 -43 -17
-82 -39 -39 -21 -107 -58 -151 -81 -44 -24 -84 -47 -89 -51 -6 -5 -23 -9 -38
-9 -40 0 -51 35 -43 133 7 73 9 80 41 104 18 15 50 36 71 48 21 11 82 47 136
80 54 33 115 70 135 81 l37 22 7 183 c9 213 8 216 -82 262 -65 33 -82 33 -140
-1z"/>
<path d="M18038 2578 c-3 -156 -4 -163 -24 -166 -11 -2 -81 27 -155 63 -75 36
-143 65 -152 65 -23 0 -31 -39 -24 -131 6 -93 33 -156 81 -193 18 -13 78 -45
132 -69 110 -50 122 -65 123 -159 1 -43 -1 -48 -21 -48 -13 0 -83 29 -157 65
-73 36 -135 65 -137 65 -2 0 -4 -21 -4 -47 0 -41 4 -50 42 -86 46 -43 113 -78
135 -70 8 3 21 -4 29 -16 8 -11 21 -21 27 -21 7 0 29 -11 50 -25 30 -21 37
-32 37 -58 0 -27 12 -44 73 -103 114 -111 175 -164 188 -164 29 0 -16 260 -78
442 -26 77 -34 114 -27 125 5 8 50 40 99 70 50 30 94 58 98 62 5 5 -8 18 -27
29 l-36 21 0 190 0 190 -34 26 c-35 26 -201 105 -223 105 -9 0 -13 -42 -15
-162z"/>
<path d="M12766 2213 c-3 -4 -6 -46 -6 -93 0 -58 -4 -91 -12 -98 -7 -5 -53
-22 -103 -37 -121 -36 -306 -109 -355 -140 -22 -14 -44 -25 -49 -25 -5 0 -14
-7 -21 -14 -10 -13 0 -21 58 -50 82 -41 142 -57 319 -86 73 -11 139 -23 147
-26 18 -7 26 -49 26 -133 0 -36 4 -72 8 -78 9 -15 30 -1 124 80 30 26 62 47
69 47 14 0 79 -100 79 -121 0 -14 16 -11 29 5 22 27 59 26 177 -5 245 -63 237
-61 275 -50 38 11 85 54 75 69 -8 13 -140 50 -218 61 -76 11 -128 40 -128 73
0 28 60 83 114 103 44 17 47 17 143 -9 54 -14 127 -35 163 -46 95 -29 105 -27
174 34 152 134 146 126 135 176 -23 107 -22 105 -115 135 -46 15 -110 29 -142
32 l-57 5 -85 -79 c-130 -120 -206 -183 -221 -183 -8 0 -47 10 -86 21 -54 16
-73 26 -73 39 0 9 56 72 125 139 69 67 125 126 125 131 0 14 -80 33 -116 27
-24 -4 -69 -39 -164 -124 -72 -65 -139 -121 -148 -125 -32 -12 -101 -8 -137 9
-59 28 -50 47 97 187 80 77 128 130 122 135 -5 5 -28 12 -51 16 l-42 7 -33
-66 c-20 -41 -38 -66 -49 -66 -9 0 -50 29 -91 64 -42 36 -79 62 -82 59z"/>
<path d="M6570 2131 l0 -78 87 -93 c97 -103 331 -303 344 -294 28 17 -34 355
-83 451 -11 21 -11 21 -35 -8 -14 -16 -34 -29 -46 -29 -11 0 -71 29 -132 65
-62 36 -117 65 -124 65 -7 0 -11 -27 -11 -79z"/>
<path d="M10933 2130 c-44 -38 -87 -70 -95 -70 -8 0 -22 16 -32 36 -9 20 -19
35 -21 33 -2 -2 -17 -46 -33 -96 -22 -68 -27 -95 -18 -102 7 -6 35 -4 79 7 47
11 70 13 78 5 5 -5 21 -56 35 -113 30 -122 29 -123 -66 -146 -105 -24 -106
-21 39 -165 71 -71 134 -129 140 -129 7 0 11 38 11 115 l0 114 68 20 c37 10
108 29 157 41 103 26 279 93 315 120 l25 19 -55 24 c-95 42 -261 94 -370 117
-163 34 -150 23 -150 140 0 77 -3 100 -13 100 -8 0 -50 -31 -94 -70z"/>
<path d="M8450 2164 c-151 -25 -203 -29 -230 -14 -15 8 -20 6 -26 -13 -3 -12
-40 -75 -80 -140 -71 -112 -74 -120 -74 -177 l0 -60 59 0 59 0 113 -121 c113
-121 114 -121 153 -116 21 3 43 10 48 15 7 7 -28 50 -101 125 -61 63 -111 117
-111 120 0 11 131 47 171 47 54 0 100 -21 137 -61 107 -120 136 -147 175 -167
37 -18 50 -20 72 -12 l28 11 -87 88 c-56 58 -84 94 -80 104 5 15 71 36 182 58
34 7 62 16 62 20 0 17 -53 69 -70 69 -11 0 -80 -13 -153 -30 -74 -16 -144 -30
-156 -30 -23 0 -117 82 -153 133 -15 21 -17 31 -8 41 6 8 76 26 155 41 l144
27 -22 34 c-26 40 -23 40 -207 8z"/>
<path d="M14235 2082 c-16 -11 -42 -32 -57 -48 l-26 -29 15 -72 c15 -67 18
-72 52 -87 20 -9 56 -20 80 -25 41 -9 46 -7 93 27 27 20 51 47 55 60 3 12 -3
51 -12 86 -16 60 -21 66 -56 80 -67 27 -111 29 -144 8z"/>
<path d="M16141 1914 c-24 -36 -45 -81 -48 -99 -4 -26 48 -243 84 -345 7 -21
15 3 63 190 l41 160 -47 77 c-26 43 -48 79 -49 81 -1 1 -21 -28 -44 -64z"/>
<path d="M9419 1889 c-160 -24 -262 -191 -215 -351 45 -155 222 -233 376 -167
41 18 63 36 96 82 24 32 49 78 55 100 14 51 6 134 -16 176 -22 43 -80 106
-118 130 -42 25 -120 39 -178 30z"/>
<path d="M3437 1864 c-4 -4 -7 -63 -7 -131 l0 -123 45 0 45 0 0 114 c0 79 -4
117 -13 124 -17 15 -61 25 -70 16z"/>
<path d="M1313 1822 c-9 -5 -13 -50 -15 -142 -3 -128 -4 -135 -23 -133 -18 2
-20 -3 -17 -48 l4 -49 25 20 c14 10 42 35 62 53 l38 34 -5 131 c-4 122 -6 131
-26 136 -27 7 -29 7 -43 -2z"/>
<path d="M15680 1662 c33 -16 35 -20 35 -68 0 -51 12 -77 45 -94 9 -5 84 -28
166 -50 82 -23 157 -44 167 -47 27 -8 -237 255 -268 267 -15 6 -61 10 -103 10
l-77 0 35 -18z"/>
<path d="M854 1613 c-56 -87 -59 -99 -40 -168 8 -33 28 -108 43 -168 15 -59
30 -102 33 -95 4 7 29 85 55 174 l48 161 -43 77 c-24 42 -47 76 -52 76 -4 0
-24 -26 -44 -57z"/>
<path d="M16440 1583 c-42 -43 -95 -99 -119 -124 l-43 -47 143 34 c212 50 210
49 244 96 33 46 64 99 65 111 0 4 -48 7 -108 7 l-107 0 -75 -77z"/>
<path d="M10443 1603 c-13 -2 -23 -9 -23 -15 0 -5 43 -55 95 -111 52 -56 95
-107 95 -114 0 -21 -56 -43 -107 -43 -72 1 -125 31 -228 130 -77 75 -99 90
-125 90 -17 0 -41 -5 -52 -11 -19 -10 -17 -15 43 -75 39 -39 60 -67 54 -73 -6
-5 -64 -20 -129 -35 -66 -14 -121 -28 -123 -30 -9 -8 28 -66 41 -66 8 0 88 11
177 25 90 14 172 25 183 23 12 -2 55 -38 96 -81 l75 -79 -22 -17 c-12 -10 -56
-23 -100 -30 -94 -15 -195 -40 -206 -50 -5 -5 6 -20 23 -35 47 -39 106 -35
324 23 l69 18 89 149 c91 153 102 180 70 170 -14 -5 -49 25 -141 119 -68 69
-130 124 -139 124 -10 -1 -27 -4 -39 -6z"/>
<path d="M7945 1579 c-173 -37 -329 -85 -469 -148 l-89 -39 34 -21 c95 -58
372 -160 480 -176 l46 -7 -14 74 c-8 40 -16 92 -20 115 -6 47 -15 41 125 73
28 7 52 17 52 24 0 6 -24 35 -52 62 -51 50 -54 51 -93 43z"/>
<path d="M15426 1532 c-5 -8 60 -321 68 -330 4 -3 156 34 162 40 2 2 -27 22
-64 43 -73 42 -102 64 -102 77 0 7 32 29 138 94 l33 21 -102 27 c-56 15 -107
30 -114 32 -7 3 -16 1 -19 -4z"/>
<path d="M365 1379 c11 -35 62 -123 82 -141 10 -9 59 -28 108 -43 50 -14 126
-37 170 -50 44 -13 81 -22 82 -21 1 1 -58 62 -131 135 l-134 133 -92 6 -92 5
7 -24z"/>
<path d="M1130 1275 c-58 -53 -116 -108 -130 -122 l-25 -25 25 5 c14 3 94 20
179 38 l154 33 39 50 c22 27 46 62 54 78 l15 28 -53 0 c-29 0 -76 3 -103 6
l-50 6 -105 -97z"/>
<path d="M16063 1310 c-12 -5 -73 -19 -135 -30 -168 -32 -187 -43 -242 -137
l-45 -78 92 -3 c51 -2 101 -1 112 2 18 5 187 163 245 229 25 28 16 34 -27 17z"/>
<path d="M16400 1181 l145 -140 93 -1 c50 0 92 3 92 6 0 13 -62 120 -83 145
-13 14 -32 28 -43 31 -10 3 -84 24 -164 46 -80 22 -154 44 -165 47 -11 4 45
-56 125 -134z"/>
<path d="M16166 1205 c-9 -38 -29 -119 -45 -180 -31 -122 -29 -140 25 -233 27
-45 40 -49 58 -17 6 10 26 43 44 71 17 29 32 60 32 69 0 12 -51 205 -90 335
-6 21 -10 14 -24 -45z"/>
<path d="M765 1034 c-5 -2 -63 -12 -127 -23 -166 -28 -197 -44 -253 -130 -25
-38 -45 -72 -45 -75 0 -3 45 -6 101 -6 94 0 103 2 142 29 52 36 217 189 217
202 0 9 -17 11 -35 3z"/>
<path d="M1100 901 l145 -140 93 -1 93 0 -38 70 c-21 39 -47 79 -58 89 -11 9
-94 39 -185 66 -91 26 -172 50 -180 53 -8 2 50 -59 130 -137z"/>
<path d="M858 902 c-15 -48 -37 -124 -49 -169 l-22 -83 24 -60 c23 -59 54
-109 62 -100 40 49 97 143 97 161 0 13 -9 58 -19 99 -21 84 -62 234 -65 237
-1 1 -14 -37 -28 -85z"/>
</g>
</svg>
