<?xml version="1.0" standalone="no"?>
<!DOCTYPE svg PUBLIC "-//W3C//DTD SVG 20010904//EN"
 "http://www.w3.org/TR/2001/REC-SVG-20010904/DTD/svg10.dtd">
<svg version="1.0" xmlns="http://www.w3.org/2000/svg"
 width="1920.000000pt" height="480.000000pt" viewBox="0 0 1920.000000 480.000000"
 preserveAspectRatio="xMidYMid meet">
<metadata>
Created by potrace 1.11, written by Peter Selinger 2001-2013
</metadata>
<g transform="translate(0.000000,480.000000) scale(0.100000,-0.100000)"
fill="#000000" stroke="none">
<path d="M0 4565 l0 -235 239 0 c191 0 241 -3 250 -14 16 -19 101 -161 131
-219 27 -52 81 -107 105 -107 36 0 14 61 -75 209 -49 82 -90 160 -90 173 1 13
11 40 23 60 38 64 179 301 199 336 l20 32 -401 0 -401 0 0 -235z"/>
<path d="M840 4795 c0 -3 27 -50 60 -106 33 -55 60 -102 60 -104 0 -1 27 -47
60 -101 33 -54 60 -108 60 -120 0 -12 -18 -51 -40 -87 -140 -231 -174 -318
-116 -301 11 3 27 13 34 22 18 23 166 252 181 280 12 22 14 22 271 22 l260 0
0 -25 c0 -14 -15 -49 -34 -78 -56 -88 -139 -220 -151 -241 -6 -12 -21 -38 -34
-58 l-23 -38 -208 0 c-168 0 -210 -3 -219 -14 -10 -12 -6 -18 21 -33 28 -15
65 -19 228 -23 l195 -5 88 -155 c116 -206 157 -286 150 -294 -4 -3 -60 -6
-125 -6 l-118 0 0 -172 1 -173 47 -29 c58 -35 215 -127 302 -176 36 -20 94
-54 130 -75 94 -55 181 -97 187 -91 8 7 -16 76 -42 121 -35 60 -63 81 -139 99
-95 23 -121 39 -152 91 -37 64 -29 75 51 75 57 0 65 2 65 19 0 43 -42 67 -181
105 -65 18 -88 39 -96 90 l-6 36 65 0 c36 0 67 3 71 6 3 4 0 19 -8 35 -22 42
-18 62 18 85 50 34 81 37 111 13 15 -12 29 -20 30 -18 2 2 13 23 25 46 29 58
40 61 72 25 52 -58 55 -101 18 -227 -10 -35 -9 -46 9 -88 11 -26 26 -47 32
-47 6 0 20 20 31 45 17 38 24 45 47 45 23 0 32 -8 50 -45 27 -56 27 -71 2
-142 -26 -75 -25 -93 7 -167 33 -75 62 -118 74 -111 5 4 9 160 9 375 l0 368
-48 36 c-26 19 -102 66 -168 104 -199 115 -209 124 -186 158 12 18 69 44 97
44 14 0 82 -30 150 -66 69 -36 129 -63 135 -59 5 3 10 17 10 29 0 19 -19 35
-95 80 -52 31 -95 62 -95 67 0 48 64 83 137 76 l53 -6 0 53 c0 29 6 60 13 70
15 20 90 33 131 22 25 -6 26 -10 26 -76 0 -39 4 -70 10 -70 5 0 25 8 44 17 29
14 42 14 74 5 40 -12 88 -54 79 -69 -3 -5 -49 -38 -101 -73 -96 -65 -112 -83
-100 -113 5 -15 10 -14 47 5 23 11 57 31 77 43 154 96 160 98 202 86 43 -13
78 -43 78 -66 0 -8 -26 -32 -57 -52 -66 -41 -262 -166 -310 -197 l-33 -21 0
-380 1 -380 25 40 c14 22 39 69 55 103 l29 64 -25 62 c-40 100 -32 211 15 216
33 5 41 -2 67 -55 15 -30 31 -55 35 -55 4 0 15 14 23 31 18 33 14 68 -12 120
-24 48 -14 161 17 194 13 14 30 25 37 25 7 0 25 -25 40 -55 15 -30 31 -55 36
-55 4 0 16 14 25 30 20 36 52 47 91 30 51 -21 64 -43 57 -95 l-7 -45 60 0 c57
0 61 -2 61 -22 0 -13 -10 -41 -23 -62 -19 -35 -33 -44 -117 -78 -96 -39 -120
-57 -120 -90 0 -15 9 -18 55 -18 l55 0 0 -44 c0 -70 -32 -101 -126 -122 -53
-11 -86 -25 -108 -45 -32 -27 -77 -101 -91 -148 -6 -21 -4 -23 13 -19 11 3 47
22 79 42 61 39 175 108 441 266 l92 55 0 257 0 258 33 0 c34 0 68 -22 85 -55
6 -11 14 -94 18 -183 l7 -163 31 3 c46 4 61 43 61 152 0 72 3 91 17 99 27 18
64 -7 103 -68 20 -30 38 -55 41 -55 3 0 19 7 35 15 16 8 44 22 62 31 17 9 41
24 52 34 25 20 161 106 232 146 29 16 53 34 53 40 0 18 -31 39 -118 79 -123
57 -132 78 -82 183 l30 64 42 -7 c24 -4 79 -27 124 -51 45 -24 88 -44 98 -44
14 0 16 22 16 220 l0 220 25 0 c31 0 129 -43 172 -76 l33 -25 0 -247 c0 -136
4 -252 8 -257 15 -22 112 -76 129 -73 17 3 18 22 21 246 1 133 5 242 8 242 4
0 40 -19 81 -41 107 -59 109 -65 117 -353 6 -192 10 -233 24 -252 26 -37 169
-125 235 -146 63 -19 106 -15 170 18 l27 15 0 212 c0 176 -3 216 -16 235 -8
12 -20 22 -25 22 -6 0 -42 20 -80 45 -38 25 -72 45 -75 45 -15 0 -176 115
-195 138 -19 25 -21 37 -17 134 3 59 7 110 10 114 7 7 78 -29 135 -67 23 -16
44 -29 47 -29 3 0 49 -27 103 -60 53 -33 101 -60 105 -60 4 0 8 33 8 73 l0 73
-122 76 c-239 149 -282 181 -290 213 -12 44 1 185 18 192 7 3 28 -4 46 -15 18
-11 68 -38 111 -61 42 -22 111 -59 152 -81 41 -22 79 -40 85 -40 6 0 10 48 10
135 l0 135 109 0 c94 0 110 -2 116 -17 3 -10 9 -67 12 -128 2 -60 7 -116 9
-123 3 -10 19 -5 62 19 282 161 321 181 332 174 6 -4 10 -54 10 -119 l0 -112
-95 -59 c-52 -33 -121 -77 -153 -97 -31 -20 -79 -50 -107 -65 -56 -31 -62 -47
-50 -140 7 -59 19 -65 63 -35 15 11 74 45 132 78 58 32 125 71 149 86 70 44
71 43 71 -81 0 -103 -2 -111 -25 -140 -25 -29 -146 -109 -312 -207 l-83 -48 0
-187 0 -188 34 -27 c19 -15 54 -35 78 -45 36 -14 48 -15 79 -4 40 15 183 102
242 147 l37 30 0 252 c0 287 -11 253 102 325 52 33 74 42 93 37 l25 -6 0 -229
c0 -125 3 -230 6 -234 4 -3 33 7 65 24 l59 29 0 264 0 264 93 61 c97 64 120
72 132 44 5 -10 10 -118 13 -241 3 -167 8 -225 17 -228 7 -3 49 16 94 43 63
38 79 52 75 66 -13 41 9 47 182 47 155 0 164 -1 183 -22 12 -12 24 -31 27 -42
21 -68 139 -210 191 -232 44 -19 323 -20 322 -1 0 6 -73 55 -162 109 -178 106
-197 127 -135 152 18 8 76 38 129 68 183 102 245 132 262 125 15 -6 17 -28 17
-203 0 -152 3 -195 13 -192 6 3 44 56 84 119 l72 114 0 89 1 89 -60 99 -59 98
19 44 c10 25 53 99 96 166 61 95 82 120 97 118 14 -2 41 -41 88 -123 83 -145
89 -187 39 -262 -17 -24 -30 -47 -30 -51 0 -4 -9 -18 -20 -32 -17 -22 -20 -41
-20 -143 0 -109 2 -122 26 -165 46 -83 95 -162 101 -162 3 0 12 8 19 18 10 13
13 65 14 209 0 105 4 194 9 197 25 16 441 -220 441 -249 0 -17 -35 -42 -135
-95 -44 -24 -97 -54 -117 -67 -21 -13 -42 -23 -46 -23 -14 0 -62 -40 -62 -51
0 -5 74 -9 175 -9 197 0 220 5 278 65 37 38 173 233 166 239 -2 1 -25 15 -52
30 -44 25 -47 30 -47 66 0 38 26 80 48 80 5 0 63 -27 130 -60 68 -33 127 -60
132 -60 6 0 10 49 10 120 0 133 1 135 63 104 65 -33 67 -37 67 -155 0 -61 4
-110 10 -114 6 -3 10 -15 10 -25 0 -23 44 -55 65 -46 12 4 15 27 15 121 0 92
3 117 15 121 18 7 104 -35 115 -56 4 -8 11 -73 15 -143 5 -97 11 -131 23 -144
16 -16 176 -93 193 -93 5 0 9 56 9 125 0 117 1 125 20 125 21 0 165 -61 214
-91 17 -10 34 -19 39 -19 4 0 7 48 7 108 l0 107 -130 70 -130 70 0 68 c0 48 4
67 13 67 7 0 46 -20 87 -44 41 -24 94 -47 118 -51 l43 -7 -3 43 -3 43 -127 64
-128 64 0 74 0 73 43 -18 c23 -10 78 -37 121 -59 44 -23 83 -39 88 -36 4 3 8
68 8 145 l0 139 55 0 c42 0 56 -4 63 -17 5 -10 12 -69 14 -130 2 -62 8 -116
12 -120 4 -4 59 19 122 50 63 32 119 55 125 52 5 -4 9 -35 9 -70 l0 -65 -57
-30 c-32 -16 -87 -47 -123 -68 -64 -37 -65 -39 -68 -85 -2 -26 0 -47 4 -47 4
0 53 25 109 55 110 59 129 64 139 39 18 -47 -13 -125 -59 -149 -11 -6 -51 -28
-90 -50 -38 -22 -79 -45 -90 -50 -17 -9 -20 -22 -23 -95 -3 -99 2 -130 24
-130 9 0 61 25 116 56 74 42 105 54 124 50 24 -6 24 -7 24 -131 l0 -125 53 21
c28 11 77 35 107 53 l55 32 5 149 5 149 40 23 c22 12 50 23 63 23 22 0 22 -2
22 -119 0 -71 4 -122 10 -126 6 -4 25 2 43 12 l32 19 5 130 c4 101 9 136 23
157 21 33 52 53 95 61 l32 6 0 -120 c0 -114 1 -120 20 -120 12 0 34 7 50 15
l30 16 0 113 0 113 114 67 c62 36 117 66 123 66 5 0 32 -29 61 -64 45 -57 258
-256 283 -264 30 -11 -12 240 -61 364 -44 111 -45 110 62 177 51 31 101 57
112 57 22 0 158 -73 177 -96 11 -13 9 -34 -10 -122 -34 -161 -62 -341 -59
-374 l3 -29 52 39 c124 93 243 202 280 260 9 12 24 22 35 22 10 0 62 -28 116
-62 l97 -62 81 17 c131 27 124 30 243 -85 l106 -103 3 118 c2 83 6 119 15 123
12 4 137 -58 202 -101 29 -20 29 -20 21 0 -16 41 -56 235 -56 270 0 33 11 49
106 151 84 90 112 114 133 114 36 0 231 -205 231 -244 0 -13 -11 -71 -25 -128
-39 -159 -40 -156 53 -107 42 23 81 45 86 50 6 5 20 9 33 9 21 0 23 -4 23 -57
0 -32 3 -89 7 -126 l6 -69 76 74 c42 40 90 86 108 102 l31 28 89 -27 c48 -15
120 -36 158 -47 96 -28 102 -34 84 -100 l-14 -53 53 -44 c52 -42 56 -44 125
-45 63 -1 81 3 144 34 40 19 73 38 73 42 0 9 -84 26 -168 34 -46 4 -80 12 -94
23 l-21 18 100 129 c56 71 110 137 121 147 19 17 20 17 39 -7 11 -13 30 -68
43 -120 13 -56 30 -102 41 -112 22 -20 23 -18 39 70 21 124 9 202 -38 232 -15
10 -48 35 -74 57 -43 36 -48 44 -48 81 0 38 12 136 25 214 8 45 30 42 106 -18
100 -79 121 -102 114 -125 -3 -11 -9 -68 -12 -127 -5 -88 -3 -112 10 -132 19
-28 166 -150 173 -143 3 2 -16 66 -41 141 -26 75 -43 141 -39 147 3 6 22 9 43
6 288 -38 311 -42 311 -57 0 -5 -41 -64 -91 -131 -50 -66 -89 -122 -87 -124 2
-2 46 14 98 35 139 57 183 114 195 251 7 75 8 77 44 97 63 35 222 94 237 88
11 -4 14 -14 10 -33 -3 -16 -10 -64 -17 -108 -16 -112 -34 -138 -120 -172 -57
-23 -76 -36 -99 -70 -16 -23 -38 -55 -50 -71 -12 -16 -28 -62 -36 -103 -18
-93 -18 -109 0 -109 16 0 17 1 121 144 38 53 75 96 82 96 8 0 22 -20 33 -44
41 -97 90 -236 96 -276 l7 -43 -78 6 c-42 4 -106 12 -140 18 -109 21 -109 9 0
-81 95 -78 109 -85 170 -81 33 2 124 29 140 41 6 4 29 14 52 20 34 11 45 10
58 0 12 -10 18 -10 30 0 33 27 105 7 229 -65 141 -81 141 -81 137 61 -3 90 10
167 30 179 5 4 39 -10 74 -30 l65 -36 0 -169 0 -169 45 -27 c71 -41 74 -37 77
133 l3 148 28 3 c18 2 43 -6 67 -22 42 -28 45 -36 55 -186 9 -136 25 -217 45
-235 20 -18 208 -105 228 -105 9 0 12 37 12 150 0 142 1 150 21 161 33 17 75
4 161 -51 65 -42 158 -90 174 -90 2 0 4 65 4 143 0 124 -2 146 -17 160 -10 8
-70 41 -134 72 -64 30 -129 69 -145 86 -25 27 -29 37 -29 92 0 56 2 62 22 65
11 2 80 -26 152 -62 72 -36 136 -66 142 -66 19 0 6 106 -16 130 -10 11 -74 48
-141 81 -150 73 -166 90 -162 172 5 94 14 95 172 13 73 -38 138 -66 144 -62 8
5 12 58 12 174 0 92 4 174 10 182 11 18 114 18 136 0 11 -10 14 -46 14 -176 0
-141 2 -164 15 -164 9 0 68 27 131 60 65 34 128 60 144 60 l30 0 0 -73 c0 -88
1 -87 -125 -150 -108 -54 -151 -86 -177 -128 -23 -37 -21 -92 4 -97 9 -2 68
26 132 62 63 36 127 66 141 66 25 0 25 -1 25 -75 l0 -74 -43 -29 c-23 -16 -85
-55 -137 -86 -147 -89 -140 -78 -140 -222 0 -155 4 -160 93 -114 34 18 90 50
124 72 49 31 69 39 100 36 l38 -3 3 -158 3 -157 32 14 c89 37 207 100 226 120
19 20 21 35 23 205 l3 183 59 24 c38 15 63 21 69 15 6 -6 16 -72 24 -148 7
-76 16 -144 18 -151 4 -10 18 -4 50 19 l45 32 0 178 0 178 28 19 c33 23 86 42
118 42 l24 0 0 -150 0 -150 28 0 c15 0 63 21 107 46 149 86 171 95 200 84 29
-11 55 -63 55 -109 0 -37 -30 -62 -155 -126 -50 -26 -98 -55 -108 -64 -18 -18
-15 -20 90 -76 59 -32 118 -67 131 -78 41 -37 23 -90 -36 -107 -70 -19 -79
-16 -284 93 -48 26 -97 47 -109 47 -32 0 -89 -39 -89 -60 0 -19 8 -23 183
-105 98 -46 103 -89 14 -138 l-57 -32 -164 83 c-90 45 -170 82 -178 82 -22 0
-223 -128 -223 -142 0 -13 32 -35 184 -128 50 -30 91 -60 91 -66 0 -6 -63 -51
-140 -99 -77 -49 -140 -92 -140 -96 0 -3 54 -34 121 -69 160 -82 152 -84 329
53 76 57 107 60 185 16 88 -49 85 -53 -108 -176 -94 -60 -97 -67 -36 -99 52
-26 55 -25 261 89 89 50 155 52 211 6 20 -17 37 -34 37 -39 0 -4 -45 -36 -100
-70 -55 -33 -112 -71 -127 -84 l-26 -23 45 -31 c24 -17 82 -48 129 -70 46 -21
93 -49 103 -61 19 -21 19 -22 -9 -81 -27 -57 -30 -60 -66 -60 -26 0 -76 20
-165 65 -71 36 -132 65 -136 65 -5 0 -8 -72 -8 -159 0 -164 -3 -191 -24 -191
-24 0 -136 62 -146 80 -6 10 -10 91 -10 180 0 116 -4 170 -14 195 -15 36 -42
55 -75 55 -20 0 -21 -5 -21 -165 0 -140 -2 -167 -15 -172 -11 -4 5 -18 51 -47
37 -23 72 -49 78 -59 8 -13 2 -57 -23 -179 -18 -90 -37 -185 -41 -213 -13 -82
-18 -205 -8 -205 33 0 336 273 384 345 9 14 22 25 29 25 7 0 67 -36 134 -80
l123 -81 -4 -125 c-3 -111 -5 -127 -22 -140 -11 -8 -29 -14 -41 -14 -70 0
-480 -148 -500 -180 -13 -21 275 -148 395 -175 41 -10 89 -20 105 -24 l30 -7
0 -134 0 -134 -107 -64 -108 -64 -112 107 c-62 59 -151 136 -198 171 -47 35
-94 71 -105 79 -18 15 -20 14 -23 -1 -12 -57 74 -398 119 -470 25 -41 24 -68
-3 -83 -37 -19 -60 -33 -129 -78 -36 -24 -74 -43 -85 -43 -10 0 -68 32 -128
71 -92 60 -107 74 -103 92 3 12 18 74 35 137 49 188 88 440 68 440 -39 0 -266
-211 -352 -327 -30 -40 -59 -73 -65 -73 -13 0 -83 39 -182 103 l-78 50 3 131
3 131 50 11 c79 17 230 72 353 127 l114 51 -78 39 c-88 44 -298 117 -338 117
-16 0 -26 -6 -26 -15 0 -32 -65 -45 -110 -22 -25 12 -25 15 -35 189 -6 97 -14
180 -17 184 -4 3 -71 -29 -149 -71 -164 -89 -172 -89 -177 -4 -4 86 15 107
163 180 69 34 134 73 145 86 14 18 20 41 20 78 0 28 -3 55 -6 58 -4 4 -62 -23
-129 -58 -86 -46 -133 -65 -159 -65 l-36 0 0 49 c0 79 9 91 126 160 60 36 128
78 151 93 l43 29 0 139 c0 82 -4 140 -9 140 -6 0 -72 -32 -147 -71 -100 -51
-145 -69 -168 -67 l-31 3 -3 158 c-2 122 -5 157 -16 157 -18 0 -96 -42 -183
-98 l-72 -47 -3 -184 -3 -183 -41 -29 c-22 -16 -53 -31 -70 -32 l-29 -2 -11
153 c-6 85 -16 158 -23 165 -8 8 -22 3 -53 -20 l-43 -31 -3 -180 -2 -181 -33
-27 c-39 -33 -113 -67 -127 -59 -6 4 -10 70 -10 161 0 123 -3 156 -14 160 -13
5 -136 -50 -136 -61 0 -3 25 -31 56 -61 42 -42 55 -62 51 -78 -3 -11 -14 -54
-26 -93 -12 -40 -21 -86 -21 -103 l0 -29 73 39 c39 22 82 40 95 40 21 0 22 -4
23 -72 1 -40 4 -86 8 -103 l6 -30 90 86 90 86 38 -13 c22 -8 85 -26 140 -40
56 -15 108 -33 116 -40 12 -11 9 -31 -24 -141 -20 -70 -42 -133 -49 -139 -6
-6 -66 -23 -133 -39 -68 -16 -123 -32 -123 -37 0 -10 64 -50 107 -67 17 -7 40
-22 50 -33 17 -19 17 -20 -7 -38 -14 -11 -54 -36 -89 -57 l-65 -38 50 -13 c27
-7 88 -25 135 -39 l87 -25 32 -127 c47 -185 51 -170 -55 -203 -49 -15 -114
-33 -143 -39 l-53 -12 -92 91 c-51 51 -98 92 -105 92 -9 0 -12 -25 -12 -90 0
-74 -3 -90 -15 -90 -8 0 -53 21 -100 46 -47 25 -85 42 -85 37 0 -4 14 -59 30
-122 17 -62 30 -118 30 -124 0 -17 -203 -217 -220 -217 -8 0 -57 42 -108 93
-86 86 -92 95 -92 133 0 35 28 160 46 209 6 14 3 16 -17 10 -13 -4 -49 -22
-81 -41 -31 -19 -65 -34 -77 -34 -20 0 -21 5 -21 102 l0 103 -84 -84 -84 -84
-49 6 c-80 10 -245 61 -257 79 -7 12 -7 34 2 76 15 72 52 193 63 208 5 7 -12
14 -52 23 -70 14 -65 6 -103 181 -15 69 -31 136 -36 150 -4 14 -11 37 -14 51
-3 14 -17 31 -31 37 -28 13 -105 16 -105 5 0 -4 16 -70 34 -147 19 -78 36
-154 38 -171 3 -30 3 -30 -47 -29 -27 1 -69 7 -92 13 -37 10 -44 16 -52 49 -5
20 -26 108 -47 195 -29 124 -42 162 -58 172 -29 19 -203 65 -247 65 -38 0
-109 -43 -128 -78 -12 -23 41 -271 61 -283 16 -11 349 -119 364 -119 14 0 57
-161 48 -183 -7 -18 -15 -18 -114 10 -119 33 -244 62 -249 58 -2 -3 1 -29 8
-58 l12 -53 67 -21 c37 -12 121 -38 187 -58 66 -20 124 -40 128 -44 5 -5 18
-46 29 -91 25 -100 21 -105 -71 -80 -181 50 -274 71 -282 63 -4 -4 3 -57 16
-117 14 -60 25 -112 25 -116 0 -13 -170 -40 -170 -27 -1 18 -71 202 -78 205
-6 2 -52 -34 -103 -80 -190 -172 -185 -171 -213 -51 -18 81 -18 83 0 111 11
16 74 79 140 140 l122 111 -10 48 c-6 26 -13 52 -18 56 -4 4 -29 -10 -56 -32
-27 -22 -85 -69 -129 -105 -81 -67 -104 -76 -123 -53 -16 19 -35 114 -28 140
3 12 45 58 93 101 48 43 112 101 141 129 l53 50 -25 141 c-27 151 -31 158 -96
176 -69 19 -80 15 -193 -85 -88 -79 -106 -100 -102 -118 23 -95 78 -337 82
-360 4 -19 -1 -34 -13 -48 -26 -29 -133 -92 -147 -86 -7 2 -29 78 -50 168 -21
90 -41 170 -43 177 -3 10 -19 1 -53 -27 l-48 -41 14 -57 c46 -185 73 -320 68
-340 -5 -22 -107 -113 -126 -113 -22 0 -80 173 -105 312 -4 24 -12 38 -21 38
-8 0 -51 -34 -95 -75 -45 -43 -88 -75 -100 -75 -11 0 -41 22 -67 48 -46 48
-49 49 -122 56 -41 4 -147 1 -237 -5 -105 -8 -166 -9 -173 -2 -6 6 -4 48 6
118 8 60 15 112 15 117 0 16 -26 7 -77 -27 -91 -61 -89 -61 -211 57 -124 120
-242 218 -344 283 -27 17 -27 17 -34 -10 -16 -62 62 -398 117 -507 41 -80 24
-109 -94 -162 -83 -38 -79 -45 56 -97 80 -31 87 -36 87 -61 0 -17 -23 -62 -63
-120 -59 -87 -119 -190 -191 -333 -17 -33 -37 -60 -45 -60 -9 0 -67 102 -148
260 -73 143 -132 263 -133 267 -1 17 44 45 110 68 40 14 74 28 76 31 2 4 -8
10 -24 14 -36 9 -91 52 -102 80 -8 21 -4 50 40 305 16 87 24 280 13 280 -28 0
-120 -80 -268 -232 -153 -158 -166 -170 -183 -156 -19 17 -143 81 -147 76 -1
-2 8 -52 20 -113 l21 -110 -35 -7 c-20 -3 -115 -9 -211 -12 -96 -4 -190 -9
-208 -12 l-33 -5 50 -55 c28 -31 51 -59 51 -64 0 -20 -39 -33 -180 -59 -83
-16 -153 -31 -155 -33 -2 -2 23 -34 55 -70 33 -36 60 -75 60 -86 0 -19 -91
-113 -143 -147 l-28 -18 -58 57 c-54 53 -58 56 -73 39 -15 -18 -68 -142 -68
-161 0 -14 -40 -62 -52 -62 -17 0 -155 140 -168 169 -9 23 -5 44 29 142 23 63
41 121 41 131 0 13 -68 65 -75 56 -1 -2 -10 -28 -20 -58 -40 -125 -56 -160
-73 -160 -10 0 -48 30 -85 68 -53 53 -67 74 -67 98 0 29 39 180 62 237 10 25
8 31 -17 57 -37 39 -49 28 -77 -64 -44 -146 -63 -149 -173 -26 -44 49 -82 89
-85 89 -16 2 -33 -21 -40 -53 l-8 -38 109 -113 c74 -76 109 -120 109 -135 0
-30 -36 -101 -72 -143 l-28 -32 -93 95 c-52 53 -99 94 -106 92 -6 -2 -18 -16
-25 -31 -14 -26 -12 -28 95 -141 66 -70 108 -123 109 -136 1 -58 -68 -184
-101 -184 -10 0 -61 36 -113 80 -53 44 -98 80 -101 80 -3 0 -5 -6 -5 -12 0 -7
-11 -36 -24 -65 -17 -36 -32 -54 -49 -58 -29 -8 -182 32 -209 54 -18 16 -18
18 -1 83 9 37 14 70 10 74 -4 5 -40 2 -80 -6 -40 -7 -101 -15 -136 -18 l-64
-4 5 70 c5 73 33 138 69 160 11 7 47 19 82 26 34 8 98 22 142 31 83 18 115 40
115 77 0 19 -4 20 -47 13 -248 -39 -249 -39 -245 25 1 23 16 71 32 106 33 74
33 74 197 109 163 35 159 34 172 61 22 50 16 57 -41 50 -29 -4 -88 -14 -131
-23 -62 -13 -80 -14 -86 -4 -7 11 13 101 38 164 13 34 -1 43 -53 33 -38 -7
-34 1 -97 -186 -25 -74 -52 -136 -67 -152 -25 -27 -30 -28 -155 -42 l-49 -6 5
53 c2 28 18 90 36 136 17 46 31 97 31 113 0 29 -2 30 -32 24 -56 -11 -77 -43
-107 -162 -31 -121 -38 -139 -73 -171 -40 -38 -203 -82 -248 -68 -29 9 -25 38
20 159 21 59 42 122 46 141 7 41 8 41 -97 24 l-69 -12 0 -139 0 -139 -32 -19
c-51 -29 -138 -78 -186 -102 l-42 -22 -78 76 c-85 83 -208 188 -220 188 -5 0
-17 8 -28 18 -10 9 -52 38 -92 65 l-72 47 0 -45 c0 -86 57 -297 115 -421 44
-97 45 -118 3 -140 -18 -9 -69 -39 -114 -65 -80 -48 -136 -62 -159 -40 -6 5
-26 17 -45 28 -19 10 -65 36 -102 58 -79 46 -81 52 -44 160 27 80 47 165 76
319 24 128 26 196 7 196 -45 0 -290 -216 -419 -370 l-46 -55 -53 27 c-30 16
-94 52 -144 82 l-90 53 0 139 0 139 55 13 c94 22 281 83 360 117 41 17 94 40
118 50 23 10 42 21 42 24 0 4 -12 12 -27 18 -261 108 -309 124 -447 148 -49 8
-95 20 -103 26 -10 9 -13 47 -13 154 l0 142 60 32 60 32 -2 197 -3 196 -30 17
c-16 10 -49 22 -72 27 l-43 10 0 -224 0 -224 -23 -5 c-24 -6 -96 22 -159 62
l-38 23 0 260 0 260 -67 50 c-74 53 -218 130 -246 130 -25 0 -97 -38 -129 -68
l-28 -26 0 -171 0 -171 28 -25 c15 -14 52 -41 82 -60 30 -20 110 -71 177 -115
l123 -79 0 -111 c0 -143 -4 -147 -96 -93 -160 95 -294 169 -304 169 -6 0 -10
-29 -10 -74 l0 -75 38 -26 c42 -29 253 -166 324 -210 l48 -30 0 -122 c0 -87
-3 -123 -12 -123 -6 0 -63 31 -127 69 -163 96 -267 151 -275 144 -3 -4 -6 -78
-6 -166 l0 -159 -47 6 c-27 3 -73 8 -105 12 l-56 6 -7 117 c-9 170 -8 165 -28
169 -10 2 -54 -18 -98 -45 -157 -94 -174 -104 -206 -120 -17 -9 -36 -26 -42
-39 -15 -33 -35 -30 -85 11 -24 19 -46 32 -49 28 -4 -3 -7 -30 -7 -59 l0 -52
-52 -12 c-98 -23 -278 -94 -278 -110 0 -17 117 -53 222 -69 l113 -17 3 -62 c2
-34 7 -62 11 -62 5 0 28 16 52 35 24 19 52 35 61 35 19 0 51 -41 78 -102 10
-24 39 -72 64 -107 73 -102 78 -99 -145 -100 l-190 0 5 27 c22 116 19 128 -25
93 -51 -39 -65 -37 -127 22 -64 60 -218 177 -234 177 -26 0 19 -206 64 -293
10 -21 16 -46 13 -56 -3 -10 -31 -30 -62 -43 l-57 -25 67 -23 c80 -28 84 -44
34 -111 -18 -24 -52 -78 -76 -119 -67 -115 -71 -120 -80 -120 -8 0 -73 112
-157 268 -26 49 -23 68 11 76 13 3 37 11 52 17 l28 11 -33 13 c-18 8 -35 22
-39 31 -3 9 -1 51 5 93 29 189 35 242 29 247 -11 11 -52 -21 -159 -123 -59
-58 -111 -103 -116 -101 -4 2 -24 12 -44 23 -21 10 -40 16 -44 12 -3 -3 -1
-29 5 -58 6 -28 10 -53 8 -55 -5 -5 -242 -24 -309 -24 -55 0 -68 3 -68 15 0
21 22 63 68 128 20 29 50 81 66 115 35 73 50 77 111 31 l40 -30 3 65 c3 73 -1
69 106 91 79 16 246 74 246 84 0 9 -210 74 -295 93 l-60 13 -5 57 -5 58 -50
-40 c-27 -22 -56 -40 -62 -40 -7 0 -24 23 -39 52 -14 28 -42 75 -60 103 l-35
52 -37 -18 c-20 -10 -49 -21 -64 -25 l-28 -6 0 246 0 245 -31 35 c-28 33 -115
91 -229 154 -25 13 -49 28 -55 32 -49 37 -344 194 -352 187 -2 -3 13 -40 34
-83 45 -94 95 -138 170 -149 26 -4 56 -11 65 -16 22 -12 91 -126 83 -139 -3
-5 -31 -10 -61 -10 -53 0 -55 -1 -48 -22 11 -37 21 -44 90 -63 75 -20 125 -58
155 -117 l19 -38 -65 0 c-70 0 -76 -6 -54 -54 17 -37 4 -70 -41 -101 l-41 -28
-44 43 -43 43 -24 -49 c-30 -63 -54 -68 -88 -18 -32 48 -33 122 -2 181 29 56
28 87 -5 113 -31 24 -34 22 -57 -43 -10 -26 -21 -47 -26 -47 -12 0 -67 65 -85
100 -15 29 -14 36 11 120 l27 89 -22 54 c-12 30 -35 69 -51 88 l-29 34 -1
-383 0 -382 70 -46 c39 -25 114 -67 168 -95 54 -27 113 -64 132 -84 33 -34 33
-35 15 -55 -10 -11 -35 -25 -56 -30 -41 -11 -35 -14 -212 84 -80 45 -117 44
-117 -3 0 -25 10 -36 78 -79 101 -65 109 -75 88 -106 -18 -28 -60 -39 -127
-34 l-44 3 -5 -55 c-3 -30 -9 -61 -13 -67 -5 -8 -31 -13 -68 -13 l-59 0 0 66
0 66 -27 -6 c-64 -16 -80 -15 -123 6 -33 17 -46 30 -48 48 -3 22 9 34 83 84
78 54 85 62 85 93 0 53 -21 47 -155 -43 -93 -62 -147 -76 -208 -51 -29 13 -37
21 -37 41 0 15 4 26 8 26 8 0 51 26 275 168 l117 74 0 386 -1 387 -24 -30
c-30 -36 -65 -125 -65 -164 0 -15 7 -49 16 -75 25 -73 15 -149 -24 -188 -37
-37 -51 -31 -79 38 -38 93 -80 6 -49 -104 20 -72 20 -122 2 -167 -12 -29 -20
-35 -45 -35 -26 0 -33 6 -51 47 l-20 47 -39 -38 -39 -38 -33 17 c-56 29 -69
45 -69 87 l0 38 -65 0 c-77 0 -86 10 -61 73 25 66 28 68 132 96 91 24 100 29
126 66 15 22 27 44 28 49 0 4 -34 5 -75 1 -65 -6 -76 -5 -82 10 -8 21 44 122
72 140 11 7 54 16 95 20 41 4 81 12 87 17 18 14 96 158 90 164 -6 6 -422 -241
-585 -347 l-52 -34 2 -170 3 -170 55 -17 c30 -9 81 -24 113 -33 52 -15 57 -19
57 -45 0 -43 -59 -223 -80 -240 -9 -9 -72 -29 -138 -44 -67 -16 -119 -33 -116
-37 3 -5 29 -21 57 -35 109 -55 130 -82 79 -103 -15 -6 -52 -27 -82 -46 l-55
-34 30 -11 c17 -6 71 -22 120 -36 50 -13 95 -31 102 -40 17 -24 76 -275 66
-285 -4 -4 -70 -23 -146 -40 l-138 -33 -92 92 c-51 51 -96 92 -100 92 -4 0 -7
-38 -7 -84 0 -66 -3 -85 -15 -90 -9 -3 -53 14 -100 40 -97 52 -94 55 -65 -71
31 -132 31 -130 -57 -212 l-78 -72 9163 -1 9162 0 0 2400 0 2400 -9180 0
c-5049 0 -9180 -2 -9180 -5z"/>
<path d="M13308 4219 c-59 -99 -62 -142 -19 -280 16 -52 37 -131 47 -177 10
-45 22 -82 25 -82 6 0 44 140 93 338 l23 92 -21 38 c-39 71 -91 152 -96 152
-3 -1 -26 -37 -52 -81z"/>
<path d="M0 3872 c0 -199 2 -362 4 -362 3 0 21 28 42 63 20 34 59 97 87 140
l50 77 206 0 c199 0 207 1 245 24 l39 23 -39 27 c-38 26 -40 26 -234 26 l-195
1 -75 127 c-41 69 -85 144 -97 165 -12 21 -24 41 -27 45 -3 3 -6 -157 -6 -356z"/>
<path d="M12750 3945 c0 -19 82 -173 102 -192 14 -13 77 -38 163 -63 77 -22
167 -49 200 -60 33 -10 61 -17 63 -16 1 2 -69 77 -156 167 l-159 164 -107 3
c-58 2 -106 1 -106 -3z"/>
<path d="M14992 3934 c-96 -42 -95 -206 2 -253 40 -19 105 -16 135 7 48 35 73
83 68 129 -11 102 -109 159 -205 117z"/>
<path d="M12350 3920 c-87 -24 -171 -55 -252 -92 -51 -23 -65 -34 -58 -43 30
-36 312 -140 433 -160 l37 -6 0 -100 c0 -55 -4 -109 -10 -119 -5 -10 -31 -30
-57 -45 -27 -15 -67 -38 -91 -52 -41 -23 -45 -24 -68 -8 -14 9 -27 22 -30 29
-11 28 -305 266 -328 266 -23 0 41 -259 92 -374 l34 -80 -33 -28 c-19 -15 -38
-28 -44 -28 -5 0 -18 -7 -28 -14 -17 -13 -17 -15 1 -47 80 -142 120 -212 154
-266 21 -34 38 -69 38 -77 0 -9 -21 -21 -57 -31 -67 -20 -133 -52 -133 -64 0
-5 24 -23 53 -40 104 -61 106 -67 52 -260 -39 -142 -62 -295 -57 -389 3 -48 7
-62 17 -58 67 25 301 239 378 343 50 68 86 77 158 39 28 -14 54 -26 57 -26 4
0 6 52 4 116 -2 64 0 120 5 124 4 5 96 4 203 -2 107 -5 205 -6 218 -3 22 5 24
9 17 50 l-6 45 53 0 c75 -1 150 -29 159 -60 14 -49 79 -329 79 -344 0 -8 20
-21 47 -30 49 -17 93 -21 93 -8 0 6 -41 183 -72 310 -6 26 -6 48 -1 53 13 13
141 -25 163 -47 15 -16 71 -195 108 -344 10 -44 61 -74 169 -101 95 -24 113
-24 161 1 63 33 74 51 63 96 -5 22 -21 89 -35 149 -14 61 -28 115 -30 122 -3
7 -24 17 -48 23 -83 22 -268 80 -302 94 -45 19 -57 43 -63 133 l-6 75 34 -7
c19 -4 72 -18 119 -32 151 -43 201 -56 206 -51 9 10 -18 108 -30 108 -7 0 -66
17 -132 39 -65 21 -134 42 -151 45 l-33 8 0 -44 c0 -41 -4 -47 -117 -160 -65
-65 -122 -118 -127 -118 -5 0 -58 48 -117 107 l-109 107 0 50 c0 43 23 148 56
255 6 21 5 23 -17 16 -35 -11 -78 -34 -126 -66 -71 -49 -73 -47 -73 96 0 69
-3 125 -7 125 -5 0 -51 -45 -103 -100 -105 -110 -115 -115 -202 -86 -24 8 -81
24 -128 37 -107 27 -124 41 -117 94 7 66 69 287 81 290 36 11 160 46 214 61
l63 17 -73 48 c-40 27 -78 49 -84 49 -6 0 -19 9 -29 20 -23 26 -16 33 90 101
47 30 85 56 85 59 0 3 -17 11 -37 17 -150 44 -220 66 -229 74 -6 5 -19 38 -29
74 -20 74 -17 72 -115 45z"/>
<path d="M13607 3784 c-76 -80 -136 -148 -134 -150 9 -10 372 87 404 106 18
12 79 102 112 168 l12 22 -128 0 -128 0 -138 -146z"/>
<path d="M11221 3867 c-46 -29 -86 -57 -88 -63 -2 -6 36 -32 84 -57 l88 -45
75 27 c105 38 201 84 192 92 -13 13 -231 99 -249 99 -10 -1 -56 -24 -102 -53z"/>
<path d="M14315 3799 c-44 -17 -105 -32 -135 -34 -30 -2 -75 -10 -100 -18 -25
-9 -64 -21 -88 -27 -24 -6 -42 -16 -40 -22 2 -6 47 -35 99 -64 53 -30 94 -59
94 -67 0 -8 -43 -43 -95 -77 -110 -72 -117 -60 75 -116 66 -19 125 -41 131
-49 6 -8 21 -59 33 -115 l23 -100 30 22 c30 21 31 21 44 3 8 -10 14 -27 14
-38 0 -10 5 -15 10 -12 6 3 10 19 10 34 0 35 9 43 107 90 86 42 127 82 142
139 13 50 35 221 29 227 -4 5 -22 -19 -117 -150 -30 -41 -61 -75 -68 -75 -8 0
-20 15 -28 33 -25 61 -95 269 -95 284 0 14 17 15 130 8 83 -4 130 -3 130 3 0
12 -126 116 -166 137 -42 21 -78 18 -169 -16z"/>
<path d="M896 3703 c-16 -16 -2 -59 45 -140 28 -48 54 -92 59 -98 4 -5 19 -30
32 -55 14 -25 34 -59 44 -76 17 -31 17 -31 -9 -77 -23 -39 -24 -46 -11 -51 23
-9 31 -1 38 38 7 35 48 88 76 98 11 3 12 7 2 19 -13 14 -105 169 -132 222 -35
69 -122 141 -144 120z"/>
<path d="M10901 3694 c-30 -21 -24 -27 97 -89 82 -43 97 -54 97 -75 0 -28 -54
-70 -90 -70 -13 0 -82 30 -154 66 l-130 66 -82 -44 c-95 -50 -110 -69 -74 -92
13 -9 27 -16 30 -16 17 0 165 -104 165 -116 0 -12 -68 -59 -184 -128 l-39 -23
45 -27 c25 -14 73 -38 108 -52 l62 -25 41 20 c23 11 67 36 97 56 64 41 106 51
154 35 72 -23 72 -55 0 -98 -80 -47 -134 -84 -134 -91 0 -4 14 -15 31 -25 39
-23 74 -17 148 28 140 83 162 88 229 46 52 -32 42 -49 -67 -115 -55 -32 -97
-63 -94 -68 3 -5 48 -30 101 -56 118 -57 134 -78 112 -143 -22 -62 -44 -61
-179 6 -61 31 -115 56 -120 56 -5 0 -12 -61 -16 -135 -4 -74 -9 -135 -12 -135
-17 0 -104 34 -113 44 -5 7 -15 79 -22 160 -7 81 -17 154 -23 161 -5 8 -22 17
-37 21 l-28 6 0 -130 c0 -108 -3 -131 -16 -136 -23 -9 -108 39 -122 69 -7 16
-12 77 -12 158 l0 132 -102 52 c-55 29 -105 50 -109 47 -5 -3 -9 -63 -9 -134
0 -98 -3 -129 -13 -133 -8 -3 -66 21 -131 54 l-117 59 3 -112 3 -112 55 -28
c30 -15 85 -44 123 -65 l67 -37 0 -63 c0 -35 -4 -63 -9 -63 -7 0 -118 49 -152
67 -4 2 -13 -13 -22 -34 l-15 -37 102 -56 101 -55 3 -64 c2 -35 -1 -68 -7 -74
-7 -7 -50 10 -130 51 l-120 61 -3 -152 -3 -152 -65 -1 c-36 -1 -90 -6 -120
-12 -30 -6 -88 -13 -129 -16 -114 -10 -150 -34 -151 -100 0 -21 16 -20 148 9
61 13 78 13 100 3 42 -20 40 -57 -8 -144 -44 -81 -43 -104 5 -104 43 0 80 44
105 122 12 40 38 108 57 150 32 71 39 79 77 92 49 18 137 29 160 20 23 -9 21
-24 -30 -172 -49 -145 -48 -157 9 -141 42 12 44 14 77 110 74 213 74 212 121
236 24 12 65 27 90 34 l46 12 -65 116 c-36 64 -78 134 -94 155 -15 21 -28 47
-28 58 0 17 13 18 293 16 l292 -3 1 -100 c1 -55 2 -103 3 -108 1 -4 28 6 60
23 37 18 67 27 78 23 10 -4 77 -59 148 -123 152 -136 231 -198 299 -235 l49
-27 -6 93 c-7 121 -38 269 -72 350 -14 35 -28 89 -31 119 l-6 55 64 39 c35 22
73 45 86 53 12 8 21 17 18 21 -2 4 -54 26 -115 47 -62 22 -111 46 -111 53 0 7
29 61 64 120 114 191 144 247 140 254 -3 4 -29 21 -59 38 -65 37 -65 41 -29
154 28 90 64 285 64 353 l0 44 -32 -18 c-35 -20 -244 -224 -298 -291 l-35 -43
-110 65 -110 65 -5 113 -5 113 -65 32 c-72 36 -124 41 -159 17z"/>
<path d="M695 3678 c-41 -20 -49 -30 -186 -250 l-54 -87 -227 -1 -228 0 1
-1412 1 -1413 27 95 c32 110 29 108 172 141 55 13 99 27 99 31 0 4 -29 23 -64
43 -97 54 -107 77 -49 106 57 28 113 63 113 69 0 7 -91 38 -178 60 -51 13 -53
18 -90 179 -18 81 -22 118 -15 130 7 10 48 24 119 38 163 32 150 35 251 -63
l88 -86 2 44 c2 24 6 67 9 96 5 52 7 54 32 47 14 -3 56 -24 93 -46 37 -21 70
-39 72 -39 3 0 -4 37 -14 83 -10 45 -19 103 -19 129 0 46 1 47 96 135 52 48
103 90 111 91 9 2 41 -20 72 -50 75 -73 105 -93 59 -40 -34 38 -38 48 -38 97
0 30 4 55 9 55 5 0 56 -23 114 -50 90 -44 108 -49 131 -40 52 19 9 58 -166
148 l-88 45 0 73 c0 40 4 75 9 79 10 5 45 -13 291 -154 68 -39 130 -71 137
-71 8 0 42 17 76 38 34 22 134 81 222 132 88 51 188 110 222 131 34 22 65 39
68 39 3 0 24 12 46 27 52 34 38 43 -72 43 -84 0 -87 -1 -137 -38 -28 -21 -59
-49 -69 -61 -16 -20 -26 -22 -93 -19 -72 3 -75 4 -78 29 -2 14 4 31 12 39 22
17 20 37 -4 45 -25 8 -96 -23 -141 -62 -48 -42 -92 -63 -134 -63 -30 0 -35 3
-35 23 1 12 7 33 15 47 20 34 19 37 -15 49 -57 20 -65 115 -12 148 15 9 29 18
31 20 2 1 -8 18 -23 37 -14 19 -26 44 -26 56 0 21 3 22 76 18 l76 -3 51 -58
c50 -55 54 -58 101 -57 46 0 48 1 41 23 -4 12 -8 38 -9 57 l-1 35 64 3 64 3
59 -60 59 -61 110 0 c75 0 109 4 107 11 -2 6 -30 25 -63 43 -33 18 -132 75
-220 126 -88 51 -179 104 -203 117 -24 13 -69 40 -100 59 -31 18 -61 34 -66
34 -4 0 -63 -33 -130 -72 -339 -204 -326 -200 -326 -99 0 69 -8 61 174 177
111 71 129 89 105 105 -26 16 -46 9 -142 -51 -52 -33 -105 -60 -116 -60 -19 0
-21 6 -21 69 0 63 2 72 26 90 14 11 35 23 45 26 25 8 21 33 -7 51 -20 14 -24
9 -85 -91 -41 -68 -70 -105 -81 -105 -14 0 -98 106 -98 123 0 3 -29 52 -64
109 -86 140 -109 187 -101 206 6 16 34 65 131 228 69 118 69 166 -1 132z"/>
<path d="M10235 3622 l-70 -37 -3 -59 c-5 -89 -1 -92 60 -56 29 18 61 34 71
37 14 4 17 18 17 79 0 41 -1 74 -2 74 -2 0 -34 -17 -73 -38z"/>
<path d="M15570 3636 c-30 -13 -81 -35 -112 -50 -94 -45 -78 -58 83 -67 109
-6 159 -18 159 -39 0 -5 -24 -41 -52 -79 -29 -39 -75 -103 -103 -141 -58 -81
-79 -87 -101 -32 -8 20 -23 55 -33 77 -10 22 -26 63 -35 92 -34 104 -62 68
-60 -77 2 -120 17 -152 100 -220 l69 -57 -3 -64 c-5 -114 -25 -203 -45 -207
-11 -2 -54 26 -108 69 l-90 73 7 108 c10 159 8 165 -90 248 -46 38 -88 70 -93
70 -9 0 55 -201 79 -248 22 -42 3 -46 -166 -26 -85 9 -161 21 -167 25 -21 12
-2 51 75 154 67 89 87 125 71 125 -7 0 -70 -34 -110 -60 -16 -10 -39 -19 -50
-20 -33 -1 -113 -116 -126 -181 -6 -30 -15 -71 -19 -93 -4 -21 -16 -46 -26
-57 -25 -24 -213 -102 -231 -95 -10 4 -12 15 -7 43 l7 38 -94 -90 c-52 -50
-109 -103 -126 -117 -19 -16 -33 -36 -33 -49 0 -37 22 -99 36 -99 7 0 72 52
144 115 72 64 135 113 139 111 4 -3 16 -44 26 -90 l18 -86 -27 -34 c-14 -19
-65 -69 -113 -113 -48 -43 -102 -92 -119 -110 l-31 -32 23 -98 c44 -191 42
-187 128 -204 53 -11 58 -10 93 13 55 36 181 156 188 177 3 11 -10 86 -30 168
-20 81 -39 164 -44 185 -8 35 -7 38 54 98 42 41 69 61 79 57 17 -7 27 -38 67
-216 15 -68 31 -127 36 -131 4 -5 28 8 52 29 l45 38 -32 129 c-17 71 -39 160
-47 198 l-16 69 63 64 c34 34 70 63 79 63 23 0 56 -81 86 -214 24 -106 37
-146 49 -146 3 0 40 31 82 70 92 84 115 89 161 33 47 -57 42 -77 -41 -160 -40
-40 -70 -74 -67 -76 2 -2 65 -23 139 -46 147 -47 230 -79 230 -91 0 -4 -24
-30 -54 -59 -66 -61 -84 -63 -226 -26 -52 14 -134 35 -182 47 l-86 22 -41 -27
c-73 -49 -74 -48 179 -128 l164 -52 -68 -64 c-66 -61 -70 -63 -120 -63 -51 1
-94 14 -214 65 -74 31 -120 40 -157 31 -15 -4 -59 -38 -98 -75 -40 -38 -85
-79 -101 -93 l-28 -24 17 -69 c10 -39 21 -77 25 -85 7 -13 74 -35 219 -73 38
-10 48 -8 85 11 23 13 79 62 123 111 92 100 128 121 205 121 58 0 95 -15 112
-43 10 -16 -6 -35 -119 -144 -122 -117 -128 -126 -110 -139 23 -17 98 -18 128
-2 12 6 68 57 124 114 131 130 160 143 263 112 38 -11 72 -28 75 -36 3 -9 -11
-31 -40 -58 -25 -24 -45 -47 -44 -51 0 -5 33 -36 72 -71 l72 -63 3 95 c3 117
5 117 127 51 l82 -45 -23 97 c-34 139 -32 171 11 213 31 30 34 38 29 68 -6 29
-2 38 27 69 45 46 97 81 197 133 45 23 82 48 82 54 0 10 -52 45 -159 106 -85
49 -101 62 -101 86 0 33 40 57 104 62 50 4 61 0 176 -62 133 -71 191 -83 238
-50 35 24 26 41 -35 74 -32 16 -89 49 -128 72 -56 35 -70 48 -70 68 0 19 9 30
35 42 64 32 98 24 249 -57 119 -63 143 -73 168 -66 37 11 172 88 201 114 l22
21 -22 24 c-13 13 -68 46 -123 72 -55 26 -111 59 -124 74 l-24 26 22 24 c12
13 65 45 117 72 53 27 107 59 120 71 45 41 43 44 -166 161 l-56 31 -169 -90
c-155 -84 -172 -90 -209 -84 -54 8 -99 44 -94 76 3 24 41 47 197 118 50 23 81
53 81 77 0 7 -19 22 -42 34 -69 36 -82 31 -261 -95 -100 -69 -127 -75 -201
-40 -89 42 -77 70 66 150 127 71 153 89 153 104 0 11 -51 45 -132 88 -37 19
-46 17 -174 -38 l-77 -32 -75 62 c-105 87 -142 96 -237 57z"/>
<path d="M9876 3643 c-3 -3 -6 -33 -6 -65 l0 -58 70 -35 70 -35 0 58 c0 44 -5
63 -17 74 -31 26 -110 68 -117 61z"/>
<path d="M6738 3568 c-43 -29 -77 -56 -78 -60 0 -10 54 -48 175 -123 53 -33
115 -74 138 -91 l42 -31 10 61 c7 45 15 62 27 64 25 5 107 -39 185 -99 74 -57
127 -83 149 -75 12 5 9 16 -12 58 -39 77 -91 158 -128 197 -49 53 -79 61 -230
61 -133 0 -135 0 -153 25 -51 72 -39 71 -125 13z"/>
<path d="M9350 3544 c-25 -15 -54 -35 -65 -44 -58 -51 -128 -63 -190 -33 -25
12 -35 23 -35 40 0 23 -1 23 -134 23 l-134 0 -48 -33 c-33 -22 -68 -62 -106
-118 -62 -90 -118 -190 -118 -208 0 -31 71 1 197 87 88 60 155 92 194 92 18 0
19 -10 19 -160 l0 -160 44 0 c33 0 66 -12 137 -50 52 -27 103 -50 115 -50 28
0 84 20 84 30 0 7 -83 59 -179 112 -57 31 -34 77 42 85 37 5 58 -2 155 -51 61
-31 122 -56 134 -56 25 0 157 70 177 93 15 19 17 17 -113 82 -87 43 -101 54
-104 77 -4 38 22 60 109 93 78 29 109 50 109 71 0 7 -32 32 -71 55 -94 56
-154 62 -219 23z"/>
<path d="M13605 3360 l170 -170 107 0 c64 0 108 4 108 10 0 11 -65 134 -91
171 -19 27 -27 31 -229 89 -74 22 -157 46 -185 55 l-50 15 170 -170z"/>
<path d="M13200 3508 c-19 -5 -86 -20 -148 -33 -189 -40 -205 -52 -276 -192
l-36 -73 121 0 120 0 111 108 c60 59 128 128 150 155 38 44 39 47 16 46 -12
-1 -39 -5 -58 -11z"/>
<path d="M13330 3343 c-76 -311 -73 -293 -56 -348 17 -54 72 -155 84 -155 10
0 94 137 109 177 10 28 8 48 -17 140 -49 189 -82 308 -85 311 -2 2 -17 -54
-35 -125z"/>
<path d="M7844 3414 c-66 -35 -80 -49 -110 -110 -84 -172 35 -366 226 -366
105 0 193 61 230 159 25 68 25 118 0 187 -51 135 -218 198 -346 130z"/>
<path d="M9717 3344 c-54 -34 -57 -37 -42 -54 21 -24 116 -54 146 -47 38 10
109 65 103 80 -7 19 -89 57 -122 57 -15 0 -54 -16 -85 -36z"/>
<path d="M10313 3361 c-47 -29 -44 -57 10 -81 50 -23 88 -25 126 -6 55 29 57
42 10 72 -57 36 -105 41 -146 15z"/>
<path d="M6345 3342 c-16 -11 -36 -26 -44 -36 -16 -19 -15 -21 89 -87 36 -23
108 -70 160 -104 52 -34 105 -67 118 -74 12 -6 22 -16 22 -21 0 -5 -35 -32
-77 -59 -125 -81 -171 -72 -350 69 -109 86 -142 105 -193 114 -38 7 -32 10
-220 -108 l-110 -69 0 -113 0 -114 28 -12 c15 -7 50 -26 77 -44 134 -83 166
-96 216 -92 50 5 84 24 209 117 80 59 148 91 198 91 117 0 221 -104 143 -144
-16 -9 -75 -46 -132 -84 -57 -37 -125 -80 -151 -95 -27 -15 -48 -30 -48 -33 0
-20 25 -44 60 -58 47 -19 87 -20 127 -5 33 12 163 100 163 109 0 9 136 219
157 242 14 16 35 18 164 18 146 0 149 0 211 31 35 18 83 53 108 79 45 48 130
193 119 205 -11 10 -99 -30 -197 -89 -60 -36 -110 -59 -138 -63 l-43 -6 -3
142 -3 141 -39 -27 c-24 -16 -58 -28 -87 -31 -41 -4 -55 1 -115 35 -68 40
-176 101 -285 162 -65 36 -92 38 -134 13z"/>
<path d="M4150 3292 c-279 -172 -293 -178 -362 -163 -41 9 -44 8 -70 -22 -33
-39 -34 -48 -7 -73 31 -28 49 -68 49 -109 0 -32 -2 -35 -31 -35 -17 0 -65 18
-106 40 -77 41 -106 47 -133 30 -12 -7 -10 -14 15 -40 30 -31 179 -122 223
-135 20 -6 22 -12 22 -76 0 -68 -1 -69 -26 -69 -27 0 -49 11 -263 135 l-134
78 -48 -21 c-76 -31 -600 -363 -593 -374 4 -6 34 -9 75 -6 70 5 84 11 185 83
53 38 60 40 129 40 40 0 76 -3 80 -6 3 -4 -8 -29 -24 -57 -17 -27 -31 -53 -31
-57 0 -4 21 -5 46 -2 38 4 55 13 98 55 65 64 104 83 174 85 69 2 76 -12 32
-68 -16 -21 -30 -42 -30 -46 0 -5 13 -21 29 -35 55 -49 53 -113 -5 -135 l-35
-14 21 -37 c40 -74 21 -96 -66 -78 -43 9 -64 21 -110 66 -52 49 -61 54 -102
54 -43 0 -44 -1 -38 -27 4 -16 10 -40 13 -55 l5 -28 -80 0 c-62 0 -83 4 -90
15 -4 9 -30 34 -56 55 l-48 40 -104 0 c-57 0 -104 -3 -104 -7 0 -7 224 -144
329 -203 55 -31 177 -104 237 -142 79 -50 108 -49 193 3 213 132 327 199 336
196 6 -2 11 -35 13 -74 l3 -70 -68 -43 c-224 -142 -250 -170 -156 -172 30 0
60 11 120 46 88 51 133 59 133 26 0 -29 -26 -88 -55 -126 -33 -43 -32 -57 10
-88 41 -31 46 -70 16 -107 -18 -22 -22 -23 -69 -13 -56 11 -82 3 -82 -25 0
-10 -11 -35 -25 -55 l-24 -36 71 0 71 0 -5 -64 -6 -65 43 21 43 21 82 -68
c127 -106 215 -164 228 -150 11 11 -17 165 -43 228 -38 95 -35 110 27 146 59
33 60 32 -40 62 -23 7 -42 18 -42 26 0 19 22 60 84 156 82 125 96 159 96 222
0 41 -4 57 -16 62 -9 3 -59 -21 -125 -61 -77 -47 -118 -66 -137 -64 -30 3 -66
50 -84 110 -11 37 -10 41 18 67 16 16 58 43 94 62 72 36 110 66 110 85 0 7
-17 22 -37 35 -21 12 -92 56 -158 97 -66 41 -130 81 -142 89 -15 9 -23 23 -23
41 0 24 10 34 79 75 43 26 88 47 100 47 12 0 39 -11 61 -25 22 -14 43 -25 47
-25 5 0 24 -10 43 -23 19 -13 69 -42 111 -64 41 -23 91 -50 110 -62 42 -26 91
-26 147 -1 64 29 57 48 -40 111 -45 29 -112 64 -147 78 -73 29 -131 80 -131
114 0 49 96 107 180 109 37 1 59 -7 120 -45 184 -112 286 -167 306 -167 32 0
276 143 296 174 4 6 8 49 8 95 l0 83 -37 35 c-47 43 -189 128 -240 143 -38 11
-39 11 -198 -86 -190 -116 -252 -147 -276 -141 -10 3 -50 25 -89 48 -51 32
-69 49 -67 63 2 16 199 157 357 257 13 8 10 13 -13 32 -28 24 -109 57 -137 57
-9 0 -58 -26 -110 -58z"/>
<path d="M17743 3329 c-60 -23 -93 -58 -119 -124 -14 -38 -15 -52 -5 -85 9
-32 17 -40 35 -40 29 0 91 25 129 52 26 19 27 22 27 119 0 54 -3 99 -7 98 -5
0 -31 -9 -60 -20z"/>
<path d="M1240 3217 c0 -108 1 -114 23 -124 43 -19 47 -9 47 118 l0 119 -35 0
-35 0 0 -113z"/>
<path d="M17276 3323 c-3 -4 -6 -39 -6 -79 0 -84 4 -89 108 -138 75 -36 84
-30 86 48 0 45 -4 60 -24 81 -40 43 -150 102 -164 88z"/>
<path d="M9967 3160 c-37 -15 -74 -33 -82 -40 -19 -16 -21 -140 -2 -139 6 0
41 14 77 32 l65 32 7 65 c4 36 7 68 5 71 -1 4 -32 -6 -70 -21z"/>
<path d="M10160 3123 l0 -68 61 -39 c34 -22 71 -40 83 -40 19 -1 21 4 19 59
-3 71 -21 100 -84 132 -73 37 -79 34 -79 -44z"/>
<path d="M13780 3004 c0 -123 0 -124 73 -124 22 0 27 4 23 18 -3 9 -10 46 -17
81 -9 50 -20 73 -45 100 l-33 36 -1 -111z"/>
<path d="M5280 3034 c-19 -8 -49 -26 -67 -40 l-33 -25 0 -98 c0 -93 1 -98 28
-123 15 -14 55 -40 89 -57 l63 -31 52 30 c99 57 98 55 98 168 l0 100 -72 46
c-76 49 -103 54 -158 30z"/>
<path d="M8520 3035 c0 -3 12 -29 26 -58 39 -76 105 -150 183 -201 63 -42 74
-46 131 -46 50 0 72 6 118 31 56 30 102 66 102 79 0 4 -34 25 -75 47 -75 41
-75 41 -75 17 0 -21 -5 -24 -34 -24 -20 0 -61 14 -98 34 -35 18 -102 54 -150
80 -77 41 -128 57 -128 41z"/>
<path d="M9650 2984 c-133 -73 -130 -69 -129 -154 l0 -75 74 -60 c40 -33 78
-61 84 -63 6 -2 22 22 36 52 23 51 25 69 25 196 0 106 -3 140 -12 140 -7 0
-42 -16 -78 -36z"/>
<path d="M17103 2954 c-92 -49 -103 -59 -78 -79 30 -24 138 -75 158 -75 10 0
52 23 93 51 l76 51 -24 25 c-31 33 -90 63 -127 63 -16 0 -60 -16 -98 -36z"/>
<path d="M17830 2973 c-14 -9 -37 -27 -52 -41 -33 -30 -27 -42 36 -74 72 -37
171 -23 219 30 18 19 17 20 -9 41 -38 30 -111 61 -143 61 -15 0 -38 -7 -51
-17z"/>
<path d="M9890 2821 l-115 -58 44 -8 c71 -12 174 -58 187 -83 18 -37 24 -14
24 100 0 80 -3 108 -12 107 -7 0 -65 -26 -128 -58z"/>
<path d="M9327 2799 l-37 -30 0 -134 0 -133 -29 -25 c-16 -13 -31 -33 -33 -43
-3 -18 -15 -19 -170 -22 l-166 -2 -21 -68 c-48 -160 -48 -162 -22 -183 13 -11
29 -18 35 -16 17 6 63 106 82 180 13 47 23 67 34 67 24 0 170 -152 170 -177 0
-12 -9 -46 -20 -75 -11 -29 -31 -91 -45 -136 l-24 -84 27 -34 c31 -38 40 -42
49 -16 31 89 69 166 89 179 23 15 26 13 85 -41 85 -79 108 -93 120 -75 5 8 9
27 9 43 0 24 -19 49 -99 131 -113 117 -124 141 -97 223 31 92 71 103 144 38
32 -28 99 -76 139 -100 8 -4 18 5 29 26 l16 32 -40 35 c-149 132 -183 165
-188 187 -3 13 1 45 10 71 12 36 15 66 10 125 -4 43 -10 81 -14 83 -4 2 -23
-10 -43 -26z"/>
<path d="M17630 2656 l0 -93 78 -52 c114 -74 122 -71 122 53 l0 72 -67 47
c-58 39 -112 67 -129 67 -2 0 -4 -42 -4 -94z"/>
<path d="M17406 2724 c-89 -32 -136 -91 -136 -169 0 -72 11 -85 62 -73 46 10
105 42 126 66 7 10 12 48 12 104 0 97 1 96 -64 72z"/>
<path d="M7217 2679 c-52 -34 -87 -76 -162 -188 -41 -62 -55 -77 -79 -79 -16
-2 -52 -18 -80 -36 -28 -19 -93 -59 -143 -91 -51 -32 -93 -63 -93 -69 0 -28
34 -55 114 -90 l86 -38 103 61 c57 33 113 61 125 61 25 0 181 -82 219 -114
l24 -21 -16 -65 c-51 -201 -76 -334 -82 -444 -5 -101 -4 -118 8 -111 109 65
274 200 372 306 43 46 82 79 93 79 10 0 55 -23 99 -50 44 -28 83 -50 88 -50 7
0 -34 79 -95 183 -15 26 -28 56 -28 66 0 10 26 63 57 117 54 93 58 104 61 175
4 69 1 81 -28 140 -40 77 -131 219 -142 219 -4 0 -8 -86 -8 -190 0 -156 -3
-192 -14 -196 -18 -7 -73 21 -236 116 -120 70 -170 105 -170 121 0 6 42 33
248 160 85 53 75 59 -111 59 l-164 0 -46 -31z"/>
<path d="M8324 2681 c16 -18 125 -85 226 -139 25 -14 57 -33 71 -43 l26 -18
12 52 c6 29 20 67 31 84 21 35 19 38 -37 67 -26 13 -64 16 -189 16 -154 0
-157 0 -140 -19z"/>
<path d="M8171 2627 c-6 -8 -33 -59 -60 -114 -27 -56 -54 -104 -60 -108 -17
-10 -14 -217 2 -239 13 -18 19 -18 147 10 73 16 140 34 149 41 14 11 14 14 -5
33 -21 21 -23 21 -53 5 -18 -9 -42 -15 -54 -13 -22 3 -22 6 -25 189 -2 142 -6
190 -16 198 -10 8 -16 8 -25 -2z"/>
<path d="M4975 2508 c-38 -21 -103 -59 -142 -84 l-73 -45 -1 -267 0 -267 -30
-24 c-33 -25 -151 -70 -186 -71 l-23 0 0 239 0 239 -65 -35 -65 -34 0 -264 c0
-255 -1 -265 -20 -275 -17 -9 -18 -14 -9 -31 14 -26 9 -31 -52 -49 -28 -8 -51
-19 -51 -25 0 -5 16 -18 36 -28 20 -10 39 -24 43 -32 3 -8 -7 -57 -21 -108
-15 -52 -30 -134 -33 -183 l-6 -88 29 18 c65 42 172 133 192 163 12 18 34 40
48 50 26 17 28 17 97 -12 15 -6 17 0 17 65 l0 71 93 -7 94 -6 104 62 c57 35
139 85 182 112 l77 50 0 74 c0 53 -4 74 -12 74 -7 0 -58 -25 -112 -55 -55 -30
-101 -55 -103 -55 -3 0 -32 -16 -65 -36 -106 -61 -134 -37 -122 104 6 67 9 75
40 100 18 15 50 36 71 47 49 26 296 175 304 183 4 4 9 89 12 189 l6 182 -24
30 c-28 33 -104 71 -137 70 -13 -1 -54 -19 -93 -41z"/>
<path d="M17988 2382 c-3 -160 -4 -167 -24 -170 -11 -2 -81 27 -155 63 -74 36
-142 65 -151 65 -24 0 -32 -38 -25 -131 6 -94 33 -156 83 -194 19 -14 78 -46
132 -69 108 -48 120 -64 121 -158 1 -43 -1 -48 -21 -48 -12 0 -82 29 -155 65
-73 36 -135 65 -138 65 -3 0 -5 -21 -5 -47 0 -41 4 -50 42 -86 46 -43 113 -78
135 -70 8 3 21 -4 29 -16 8 -11 19 -21 25 -21 5 0 27 -11 49 -25 33 -21 40
-31 40 -58 0 -27 12 -44 73 -103 114 -111 175 -164 188 -164 9 0 10 21 5 81
-8 101 -36 223 -83 362 -26 76 -34 113 -27 124 5 8 50 40 99 70 50 30 94 58
98 62 5 5 -8 18 -27 29 l-36 21 0 190 0 190 -32 24 c-41 30 -58 39 -158 82
l-80 34 -2 -167z"/>
<path d="M12716 2013 c-3 -4 -6 -46 -6 -93 0 -58 -4 -91 -12 -98 -7 -5 -62
-25 -123 -43 -60 -17 -117 -36 -125 -40 -8 -5 -50 -22 -93 -39 -42 -16 -95
-41 -117 -55 -22 -14 -44 -25 -49 -25 -5 0 -14 -7 -21 -15 -10 -13 0 -21 71
-54 80 -38 113 -47 334 -86 50 -9 100 -18 111 -20 26 -6 34 -39 34 -134 0 -36
4 -72 8 -78 9 -15 30 -1 124 80 30 26 62 47 70 47 8 0 30 -28 48 -62 41 -78
37 -74 57 -56 33 29 60 29 179 -3 229 -60 236 -61 275 -50 38 11 85 54 75 69
-8 13 -140 50 -218 61 -76 11 -128 40 -128 73 0 28 60 83 114 103 49 19 50 19
303 -54 40 -12 82 -21 94 -21 20 0 74 43 186 147 41 38 42 39 32 83 -22 101
-24 105 -92 128 -34 11 -93 28 -130 37 -81 20 -65 29 -237 -125 -69 -62 -135
-117 -146 -122 -31 -14 -174 29 -174 53 0 9 56 71 125 138 69 67 125 126 125
131 0 14 -80 33 -116 27 -24 -4 -69 -39 -164 -124 -72 -65 -139 -121 -148
-125 -30 -12 -91 -8 -132 8 -67 27 -58 45 92 188 80 77 128 130 122 135 -5 5
-28 12 -51 16 l-42 7 -33 -66 c-20 -41 -38 -66 -49 -66 -9 0 -50 29 -91 64
-42 36 -79 62 -82 59z"/>
<path d="M6520 1931 l0 -78 87 -93 c86 -91 327 -300 346 -300 26 0 -8 217 -64
398 -26 86 -27 86 -56 52 -13 -16 -34 -30 -45 -30 -11 0 -70 29 -133 65 -62
36 -118 65 -124 65 -7 0 -11 -28 -11 -79z"/>
<path d="M10883 1930 c-44 -38 -87 -70 -95 -70 -8 0 -22 16 -32 36 -9 20 -19
35 -21 33 -2 -2 -17 -47 -34 -99 -23 -71 -27 -96 -18 -102 7 -4 17 -6 22 -4
47 17 127 28 136 19 6 -6 22 -57 35 -114 29 -122 28 -123 -69 -145 -36 -9 -70
-21 -76 -28 -8 -10 21 -44 118 -139 71 -70 134 -127 140 -127 7 0 11 37 11
109 0 76 4 112 13 119 7 6 35 16 62 22 28 6 73 17 100 25 28 8 84 24 125 36
41 12 93 29 115 39 22 10 56 25 75 33 19 8 44 22 55 30 19 15 18 17 -35 40
-96 43 -292 105 -385 122 -144 27 -135 18 -135 135 0 77 -3 100 -13 100 -8 0
-50 -31 -94 -70z"/>
<path d="M8488 1980 c-15 -4 -84 -16 -154 -26 -95 -13 -134 -15 -155 -7 -25
10 -29 9 -35 -11 -4 -11 -40 -74 -80 -139 -71 -112 -74 -120 -74 -177 l0 -60
59 0 59 0 113 -121 c113 -121 114 -121 153 -116 21 3 43 10 48 15 7 7 -28 50
-101 125 -61 63 -111 117 -111 120 0 11 135 47 174 47 61 0 97 -23 183 -117
96 -105 153 -141 197 -123 l30 11 -82 82 c-48 48 -82 91 -82 102 0 22 51 41
178 66 34 7 62 16 62 20 0 17 -53 69 -70 69 -11 0 -80 -13 -153 -30 -74 -16
-144 -30 -155 -30 -25 0 -75 42 -133 111 -32 39 -39 52 -30 63 7 8 76 26 156
41 l144 27 -22 34 c-18 28 -28 34 -57 33 -19 0 -47 -4 -62 -9z"/>
<path d="M14190 1884 c-19 -12 -47 -35 -62 -50 l-26 -29 15 -72 c15 -67 18
-72 52 -87 20 -9 57 -21 83 -27 51 -12 45 -15 129 64 23 21 24 44 3 118 -17
62 -21 65 -114 92 -43 13 -48 12 -80 -9z"/>
<path d="M16087 1708 c-29 -45 -47 -85 -47 -103 0 -16 18 -95 41 -175 49 -178
48 -174 55 -167 5 4 60 208 91 334 3 14 -10 47 -42 100 -26 43 -49 79 -50 81
-1 1 -23 -30 -48 -70z"/>
<path d="M9369 1689 c-86 -13 -156 -64 -196 -142 -95 -188 34 -400 243 -399
94 1 156 32 210 105 24 32 49 78 55 100 14 51 6 134 -16 176 -22 43 -80 106
-118 130 -42 25 -120 39 -178 30z"/>
<path d="M3387 1663 c-4 -3 -7 -62 -7 -130 l0 -123 45 0 45 0 0 118 c0 118 0
119 -25 130 -29 13 -49 15 -58 5z"/>
<path d="M1263 1624 c-10 -4 -13 -42 -13 -139 0 -131 0 -134 -22 -137 -21 -3
-23 -7 -18 -51 l5 -47 61 52 61 53 -5 130 c-2 72 -5 131 -6 132 -4 6 -53 11
-63 7z"/>
<path d="M796 1401 c-48 -79 -48 -82 -38 -128 9 -43 67 -272 75 -298 4 -10 26
59 83 251 l27 91 -36 64 c-63 112 -56 111 -111 20z"/>
<path d="M15630 1462 c33 -16 35 -20 35 -69 0 -75 23 -94 153 -127 57 -15 130
-36 164 -47 33 -10 64 -19 69 -19 16 0 -250 260 -276 270 -15 6 -61 10 -103
10 l-77 0 35 -18z"/>
<path d="M16346 1338 c-63 -67 -114 -124 -112 -126 2 -2 26 4 52 12 27 8 102
27 168 42 93 22 124 33 143 53 25 26 83 119 83 134 0 4 -49 7 -109 7 l-109 0
-116 -122z"/>
<path d="M10393 1403 c-13 -2 -23 -9 -23 -15 0 -5 43 -55 95 -111 52 -56 95
-107 95 -114 0 -21 -56 -43 -107 -43 -72 1 -125 30 -226 128 -51 49 -102 92
-114 96 -13 4 -34 1 -54 -9 l-32 -17 64 -64 c39 -39 60 -67 54 -73 -6 -5 -64
-20 -129 -35 -66 -14 -121 -28 -123 -30 -3 -2 3 -18 12 -36 16 -30 19 -32 63
-27 26 2 105 14 177 26 71 12 139 21 150 19 11 -2 54 -38 95 -81 l75 -79 -22
-17 c-12 -10 -56 -23 -100 -30 -117 -19 -213 -42 -213 -51 0 -4 14 -20 31 -34
47 -40 92 -36 337 26 59 15 66 24 180 224 56 99 62 119 34 110 -14 -5 -49 25
-141 119 -68 69 -130 124 -139 124 -10 -1 -27 -4 -39 -6z"/>
<path d="M7830 1365 c-124 -27 -281 -79 -404 -134 l-89 -39 34 -21 c95 -58
372 -160 480 -176 l46 -7 -14 74 c-8 40 -16 92 -20 115 -6 47 -15 41 125 73
28 7 52 17 52 24 0 6 -24 35 -52 63 l-53 50 -105 -22z"/>
<path d="M15374 1325 c-4 -9 -1 -33 5 -53 6 -20 23 -89 37 -152 14 -63 27
-116 29 -118 1 -2 21 1 44 7 23 6 60 16 83 22 l41 11 -62 39 c-34 21 -65 39
-70 39 -4 0 -16 10 -27 21 -22 25 -26 20 89 93 l68 43 -102 27 c-56 15 -108
30 -115 33 -8 3 -17 -2 -20 -12z"/>
<path d="M315 1179 c12 -40 56 -117 79 -137 19 -18 87 -41 291 -101 38 -11 70
-19 72 -18 1 2 -58 63 -131 136 l-134 133 -92 6 -92 5 7 -24z"/>
<path d="M1051 1050 c-69 -66 -122 -120 -119 -120 5 0 171 34 301 63 41 8 55
18 89 60 21 28 46 63 54 79 l15 28 -49 0 c-27 0 -76 2 -108 5 l-59 6 -124
-121z"/>
<path d="M16000 1109 c-19 -6 -85 -20 -146 -33 -61 -13 -124 -30 -140 -37 -19
-9 -46 -42 -76 -94 l-48 -80 101 -3 c74 -2 107 1 123 11 36 24 162 145 206
197 43 51 41 55 -20 39z"/>
<path d="M16350 980 l145 -139 93 -1 c50 0 92 2 92 5 0 3 -13 32 -29 63 -33
66 -82 122 -105 122 -17 0 -212 52 -284 76 -23 8 -46 14 -50 14 -4 0 58 -63
138 -140z"/>
<path d="M16130 1064 c-1 -5 -20 -85 -44 -178 -49 -189 -49 -194 10 -294 27
-45 40 -49 58 -17 6 10 26 43 44 73 40 64 40 60 -18 267 -39 141 -49 171 -50
149z"/>
<path d="M719 836 c-2 -2 -62 -14 -133 -25 -165 -28 -195 -43 -251 -131 -25
-38 -45 -71 -45 -74 0 -3 45 -6 101 -6 94 0 103 2 142 29 52 36 217 189 217
202 0 9 -23 13 -31 5z"/>
<path d="M1050 700 l145 -139 92 -1 91 0 -15 39 c-8 21 -31 60 -51 86 l-37 48
-180 53 c-99 30 -182 54 -185 54 -3 0 60 -63 140 -140z"/>
<path d="M828 775 c-4 -11 -24 -83 -46 -160 -22 -77 -41 -144 -43 -150 -9 -25
70 -191 84 -175 40 49 97 143 97 162 0 23 -43 198 -73 298 -10 35 -14 41 -19
25z"/>
<path d="M390 440 c-81 -77 -87 -81 -125 -77 -43 4 -219 52 -247 68 -17 9 -18
-4 -18 -211 l0 -220 372 0 372 0 -67 68 c-47 47 -67 75 -67 92 0 14 13 70 29
125 16 55 27 102 25 105 -3 2 -38 -12 -78 -33 -106 -55 -105 -55 -108 63 l-3
101 -85 -81z"/>
</g>
</svg>
