<?xml version="1.0" encoding="UTF-8" standalone="no"?>
<!-- Created with Inkscape (http://www.inkscape.org/) -->
<svg
   xmlns:dc="http://purl.org/dc/elements/1.1/"
   xmlns:cc="http://creativecommons.org/ns#"
   xmlns:rdf="http://www.w3.org/1999/02/22-rdf-syntax-ns#"
   xmlns:svg="http://www.w3.org/2000/svg"
   xmlns="http://www.w3.org/2000/svg"
   xmlns:xlink="http://www.w3.org/1999/xlink"
   xmlns:sodipodi="http://sodipodi.sourceforge.net/DTD/sodipodi-0.dtd"
   xmlns:inkscape="http://www.inkscape.org/namespaces/inkscape"
   id="svg2618"
   sodipodi:version="0.32"
   inkscape:version="0.46"
   width="530"
   height="513"
   version="1.0"
   sodipodi:docname="snowflakes.svg"
   inkscape:output_extension="org.inkscape.output.svg.inkscape">
  <metadata
     id="metadata2623">
    <rdf:RDF>
      <cc:Work
         rdf:about="">
        <dc:format>image/svg+xml</dc:format>
        <dc:type
           rdf:resource="http://purl.org/dc/dcmitype/StillImage" />
      </cc:Work>
    </rdf:RDF>
  </metadata>
  <defs
     id="defs2621">
    <inkscape:perspective
       sodipodi:type="inkscape:persp3d"
       inkscape:vp_x="0 : 526.18109 : 1"
       inkscape:vp_y="0 : 1000 : 0"
       inkscape:vp_z="744.09448 : 526.18109 : 1"
       inkscape:persp3d-origin="372.04724 : 350.78739 : 1"
       id="perspective2625" />
  </defs>
  <sodipodi:namedview
     inkscape:window-height="669"
     inkscape:window-width="640"
     inkscape:pageshadow="2"
     inkscape:pageopacity="0.0"
     guidetolerance="10.0"
     gridtolerance="10.0"
     objecttolerance="10.0"
     borderopacity="1.0"
     bordercolor="#666666"
     pagecolor="#ffffff"
     id="base"
     showgrid="false"
     inkscape:zoom="0.9005848"
     inkscape:cx="265"
     inkscape:cy="256.5"
     inkscape:window-x="175"
     inkscape:window-y="61"
     inkscape:current-layer="svg2618" />
  <image
     xlink:href="snowflakes.jpg"
     sodipodi:absref="C:\Users\biohazzard\Documents\SVG Files\Yo, Make me!\snowflakes.jpg"
     width="530"
     height="513"
     id="image2627"
     x="0"
     y="0" />
  <path
     style="fill:#000000"
     d="M 354.79569,483.25 L 354.5,476.5 L 348.32516,482.33053 L 342.15033,488.16105 L 338.88437,485.03993 L 335.61841,481.91881 L 345.30921,472.19151 L 355,462.46422 L 355,455.23211 C 355,451.25445 354.71615,448 354.36922,448 C 354.0223,448 347.35464,454.04506 339.55221,461.43348 L 325.36598,474.86695 L 322.43299,472.49034 L 319.5,470.11372 L 337.25,452.29672 L 355,434.47972 L 355,426.15653 C 355,421.4385 354.59614,417.97772 354.06762,418.16667 C 353.55482,418.35 348.59404,422.6625 343.04369,427.75 C 337.49333,432.8375 332.59709,437 332.16316,437 C 331.72922,437 330.12468,435.6958 328.59752,434.10179 L 325.82085,431.20357 L 337.73741,419.6318 C 344.29152,413.26732 350.85683,407.11386 352.32699,405.95743 C 354.96815,403.87989 355,403.70677 355,391.42742 C 355,384.52155 354.59088,379 354.07918,379 C 353.35938,379 334.58532,389.37206 333.16999,390.55165 C 332.98848,390.70292 330.4287,399.23796 327.48159,409.51841 C 324.53448,419.79885 321.91591,428.41742 321.66255,428.67078 C 321.40918,428.92415 319.30978,428.62196 316.9972,427.99925 C 312.05641,426.66883 312.06246,427.46111 316.86151,410.23332 C 320.29655,397.90207 320.44626,397 319.05775,397 C 317.0906,397 305.0539,405.25482 304.50658,406.97926 C 304.19135,407.97248 301.28635,418.77052 298.05104,430.9749 C 294.81574,443.17927 291.93789,453.39544 291.65584,453.6775 C 290.48309,454.85024 285.00088,452.7781 285.02326,451.17054 C 285.03605,450.25175 287.0242,441.63491 289.44137,432.02201 C 291.85854,422.40912 293.61338,414.18345 293.341,413.74274 C 292.91707,413.0568 283.0534,417.94031 280.6975,420.00254 C 280.25612,420.3889 278.37069,425.77631 276.50764,431.97457 C 271.89139,447.33263 272.6018,446.10575 269.04345,444.8653 C 267.36753,444.28107 265.72873,443.3701 265.40168,442.84091 C 265.07462,442.31172 265.38175,438.98733 266.08419,435.45338 C 266.78663,431.91943 267.09699,428.76365 266.77388,428.44055 C 266.45077,428.11744 263.8073,429.21185 260.89949,430.87257 L 255.61257,433.89205 L 253.80628,430.92186 C 252.81283,429.28825 252,427.51901 252,426.99023 C 252,426.46144 254.7,424.66583 258,423 C 261.3,421.33417 264,419.56344 264,419.06506 C 264,418.56668 262.5375,417.8767 260.75,417.53177 C 258.9625,417.18684 255.33177,416.42384 252.68172,415.8362 L 247.86344,414.76776 L 248.54596,410.63388 C 248.92135,408.36025 249.32978,406.3848 249.45358,406.24399 C 249.57739,406.10318 255.68693,407.76411 263.03034,409.93493 L 276.38199,413.88189 L 282.38997,409.69094 C 285.69436,407.38593 288.36759,405.05 288.3305,404.5 C 288.25735,403.41557 286.83774,402.98947 264.75,397.42235 C 255.18225,395.01084 250,393.24608 250,392.39939 C 250,391.68148 250.52518,389.94147 251.16706,388.53269 C 252.06731,386.55686 252.81032,386.12272 254.41706,386.63372 C 255.56268,386.99807 266.55888,389.89356 278.85307,393.06814 L 301.20613,398.8401 L 308.07324,394.67005 C 311.85014,392.37652 314.95376,390.03083 314.97017,389.4574 C 314.98658,388.88398 312.8625,387.86033 310.25,387.18264 C 303.64828,385.47012 286.54662,380.73906 286.28248,380.55219 C 285.83358,380.23459 288.36021,373.00029 288.91778,373.00674 C 289.238,373.01044 298.00141,375.03544 308.39201,377.50674 C 318.78262,379.97803 327.9045,382 328.66286,382 C 330.68593,382 350.00181,370.65005 349.69224,369.64321 C 349.54735,369.17198 344.49483,366.17036 338.4644,362.97294 L 327.5,357.15946 L 309,362.55783 C 298.825,365.52694 289.96552,367.76594 289.31227,367.53338 C 288.24084,367.15196 285.65318,360.01348 286.33808,359.32859 C 286.59034,359.07633 291.89247,357.51562 309.75,352.43716 C 312.6375,351.616 315,350.52655 315,350.01618 C 315,349.5058 311.79471,347.21623 307.87713,344.92824 L 300.75426,340.76826 L 279.46435,346.42892 C 267.7549,349.54229 256.8076,352.48159 255.13702,352.9607 C 252.27039,353.78284 252.03401,353.63307 250.93303,350.29709 C 250.01646,347.51985 250.03673,346.59534 251.02761,345.98294 C 251.72123,345.55425 259.31128,343.54841 267.89437,341.52551 C 287.11075,336.99651 287.9687,336.74104 288.12985,335.5 C 288.29623,334.21865 278.07973,328.09034 275.69151,328.03893 C 274.69683,328.01752 268.45476,329.37042 261.82023,331.04539 C 255.18569,332.72035 249.62715,333.95785 249.4679,333.79539 C 249.30866,333.63292 248.8706,331.85218 248.49444,329.83818 L 247.8105,326.17637 L 254.90525,323.89135 C 258.80736,322.63459 261.99954,321.13241 261.99898,320.55317 C 261.99842,319.97393 259.74842,318.23654 256.99898,316.69231 C 254.24954,315.14809 252,313.33571 252,312.66482 C 252,311.68882 253.67757,308.66066 255.61833,306.13341 C 255.77316,305.93179 258.22138,307.19528 261.05882,308.94118 C 263.89626,310.68707 266.46631,311.86702 266.77004,311.56329 C 267.07377,311.25956 266.75373,307.82961 266.05882,303.94118 C 265.36392,300.05274 264.95391,296.74206 265.14768,296.58411 C 265.34146,296.42615 266.98288,295.79641 268.79529,295.18469 C 271.31152,294.33541 272.19298,294.35942 272.52371,295.28623 C 273.22367,297.24773 280,319.13708 280,319.43665 C 280,320.11732 291.9449,328 292.97634,328 C 293.61348,328 293.91387,327.2125 293.64388,326.25 C 293.37389,325.2875 291.22657,316.25841 288.87206,306.18537 C 284.28552,286.56328 284.30676,286.05274 289.71146,286.01531 C 291.42764,286.00343 292.14665,286.83984 292.92194,289.75 C 294.9699,297.4373 304.22655,331.55778 304.67205,333.06149 C 305.19722,334.83412 318.79061,343.54272 319.66598,342.66736 C 319.97974,342.3536 318.53938,335.75395 316.46519,328.00148 C 314.23482,319.66531 313.0629,313.54847 313.59696,313.03085 C 314.09363,312.54948 316.12499,311.85726 318.11108,311.49259 C 321.09382,310.94491 321.8135,311.14888 322.24707,312.66477 C 322.53577,313.67415 324.90351,322.15 327.50872,331.5 C 330.11393,340.85 332.60889,349.19935 333.05307,350.0541 C 333.9116,351.70619 351.79751,362 353.80954,362 C 354.66845,362 355,358.41756 355,349.13684 L 355,336.27368 L 349.75,331.45101 C 346.8625,328.79854 340.30352,322.60955 335.17449,317.6977 L 325.84898,308.76707 L 328.61158,305.88353 C 330.13101,304.29759 331.86093,303 332.45585,303 C 333.05077,303 338.02064,307.5 343.5,313 C 348.97936,318.5 353.80842,323 354.23124,323 C 354.65406,323 355,319.05781 355,314.23958 L 355,305.47916 L 337.02619,287.52616 L 319.05238,269.57315 L 321.2005,267.28658 C 322.38197,266.02896 323.69903,265 324.1273,265 C 324.55558,265 331.33963,271.07239 339.20299,278.4942 C 347.06635,285.91601 353.8375,291.99101 354.25,291.9942 C 354.6625,291.99739 355,288.7054 355,284.67867 L 355,277.35734 L 345.2559,267.69201 L 335.51179,258.02667 L 338.71268,254.82578 L 341.91357,251.62489 L 347.87783,256.81245 C 351.15817,259.6656 354.08115,262 354.37333,262 C 354.66551,262 355.03854,259.1875 355.20228,255.75 L 355.5,249.5 L 359,249.5 C 362.7913,249.5 362.59295,249.00588 362.91385,259.25 C 362.96123,260.7625 363.36017,262 363.80038,262 C 364.24059,262 367.12521,259.75 370.21064,257 C 373.29607,254.25 376.18149,252 376.62269,252 C 377.06389,252 378.42723,253.2375 379.65234,254.75 L 381.87982,257.5 L 372.31981,267.13845 L 362.75979,276.77689 L 362.78977,283.96498 C 362.80625,287.91843 363.06178,291.39511 363.35759,291.69093 C 363.65341,291.98675 370.48661,286.07115 378.54248,278.54515 C 393.06979,264.97337 393.20712,264.87631 395.34475,266.6701 C 396.53014,267.66482 397.67772,268.5862 397.89494,268.71761 C 398.11215,268.84902 390.34965,277.23936 380.64494,287.3628 L 363,305.76907 L 363,314.38453 C 363,319.12304 363.32982,323 363.73293,323 C 364.13603,323 369.0778,318.40375 374.71463,312.7861 L 384.96341,302.5722 L 388.3468,305.85152 L 391.7302,309.13083 L 377.6151,322.40898 L 363.5,335.68712 L 363.22012,348.34356 C 363.06619,355.3046 363.24388,361 363.61499,361 C 364.21557,361 384.90896,350.2012 385.89733,349.37201 C 386.11587,349.18867 388.44376,340.66457 391.07044,330.42956 C 393.69711,320.19456 396.10291,311.56376 396.41666,311.25001 C 397.20338,310.46329 405,312.88259 405,313.91343 C 405,314.37166 403.425,319.94202 401.5,326.292 C 398.09295,337.53082 397.40173,341 398.56952,341 C 398.88275,341 402.47528,339.61112 406.5529,337.9136 L 413.96677,334.8272 L 415.9329,328.1636 C 417.67674,322.2534 421.0981,309.55371 425.7716,291.64348 L 427.2998,285.78697 L 430.7738,286.35072 C 432.6845,286.66078 434.39475,287.06142 434.57435,287.24102 C 434.75395,287.42062 432.4482,295.8554 429.45045,305.98498 C 426.4527,316.11455 424,324.95863 424,325.63848 C 424,326.79863 436.24026,321.99943 438.33712,320.01714 C 438.79754,319.58187 440.62581,313.66246 442.39993,306.86288 C 445.20807,296.10031 445.87638,294.536 447.56281,294.77815 C 454.91461,295.83375 455.14326,296.36396 452.08274,305.25952 C 451.02824,308.32446 450.42196,311.08862 450.73543,311.4021 C 451.04891,311.71557 453.73838,310.58004 456.71202,308.87869 C 459.68567,307.17734 462.25973,305.94613 462.43215,306.14266 C 462.60458,306.3392 463.52031,308.02222 464.46713,309.8827 C 466.37907,313.63967 466.7236,313.12806 459.24979,317.63008 C 456.91217,319.0382 455.20445,320.5218 455.45486,320.92697 C 455.70527,321.33214 459.07891,322.22993 462.95183,322.92206 C 466.82475,323.61418 470.24011,324.57948 470.54151,325.06716 C 470.84291,325.55484 470.58997,327.80903 469.97941,330.07647 C 469.02274,333.62926 468.56734,334.11803 466.68465,333.61269 C 465.48309,333.29018 459.69167,331.79434 453.81482,330.2886 L 443.12964,327.5509 L 436.06482,330.96864 C 432.17917,332.8484 429,334.87738 429,335.47748 C 429,336.07758 437.32241,338.54999 447.49425,340.97172 C 457.66609,343.39344 466.49782,345.68964 467.12033,346.07437 C 467.89329,346.55208 467.97438,347.8612 467.37608,350.20317 L 466.5,353.63246 L 442.36353,347.18351 L 418.22705,340.73457 L 410.61353,344.93733 C 406.42609,347.24885 403,349.54562 403,350.04126 C 403,350.91795 409.19333,352.9758 423.5,356.85277 C 430.39825,358.72214 430.49768,358.79673 430.34066,361.9842 C 430.25302,363.76316 429.80302,365.59393 429.34066,366.05256 C 428.8783,366.5112 419.95,364.70081 409.5,362.02949 L 390.5,357.17253 L 384,360.75396 C 374.25719,366.12215 370,368.92043 370,369.95625 C 370,370.95946 389.11035,382 390.84684,382 C 391.42294,382 400.12443,379.99136 410.1835,377.53635 C 420.24256,375.08134 428.80791,373.40791 429.2176,373.8176 C 429.6273,374.2273 430.23295,375.91477 430.56351,377.56754 L 431.16452,380.57258 L 417.59109,384.53629 C 410.1257,386.71633 404.15959,388.95 404.33305,389.5 C 404.50652,390.05 407.67486,392.36739 411.37381,394.64974 L 418.09917,398.79949 L 423.79959,397.42462 C 426.93481,396.66844 437.91713,393.83257 448.20473,391.1227 L 466.90947,386.19565 L 468.0544,389.66483 C 468.68411,391.57287 469.00794,393.3254 468.77401,393.55932 C 468.34543,393.9879 431.14612,402.98073 429.75,402.99326 C 429.3375,402.99697 429.00668,403.5625 429.01485,404.25 C 429.02302,404.9375 432.21505,406.95831 436.10825,408.74069 L 443.18679,411.98138 L 455.70098,408.99069 C 462.58378,407.34581 468.37441,406 468.56904,406 C 469.21173,406 471.14221,414.19112 470.6221,414.71123 C 470.34196,414.99138 467.05727,415.86107 463.32279,416.64388 C 459.58831,417.42669 456.15787,418.44213 455.69959,418.90041 C 455.2413,419.3587 457.37142,421.14743 460.43317,422.87538 C 463.49493,424.60332 466,426.2606 466,426.55821 C 466,427.94188 462.84084,433 461.97663,433 C 461.44203,433 458.79005,431.40898 456.08333,429.4644 C 453.37662,427.51982 450.92351,426.31474 450.63199,426.78644 C 450.34046,427.25815 451.16521,430.98666 452.46478,435.07204 L 454.82762,442.5 L 452.66381,443.64754 C 451.47371,444.27869 449.39258,444.95369 448.03907,445.14754 C 445.723,445.47925 445.44739,444.99135 443.35679,436.85834 C 438.63473,418.48826 439.68576,420.37049 431.98429,416.49209 C 428.17039,414.57144 424.81369,413 424.52496,413 C 423.39946,413 424.17429,416.33223 428.85725,431.63142 C 435.57964,453.59341 435.41223,452.65613 432.74041,453.37222 C 427.46502,454.78612 427.65782,455.16686 421.03203,430.25 C 417.5585,417.1875 414.21781,405.97613 413.60826,405.33585 C 411.89222,403.53328 399.12713,396.78519 398.14891,397.16348 C 397.67029,397.34857 398.99839,403.575 401.10023,411 C 403.20206,418.425 404.93936,425.04444 404.96087,425.70986 C 405.00248,426.99647 397.37926,429.7126 396.41971,428.75305 C 396.10765,428.44098 393.8525,420.38138 391.40828,410.84283 C 388.96406,401.30427 386.73646,392.77392 386.45806,391.88649 C 386.0294,390.52011 367.00254,377 365.50831,377 C 365.22874,377 365.00147,382.9625 365.00327,390.25 L 365.00655,403.5 L 378.47153,417 L 391.93651,430.5 L 388.41361,434 L 384.8907,437.5 L 375.69535,427.71689 C 370.63791,422.33618 366.1625,417.94868 365.75,417.96689 C 365.3375,417.9851 365,421.87671 365,426.6149 L 365,435.22981 L 381.63994,452.63153 C 397.91534,469.65201 398.24057,470.0767 396.48496,472.01662 C 395.49774,473.10748 394.24885,474 393.70964,474 C 392.80887,474 386.03505,468.05189 370.5,453.61957 C 367.2,450.55382 364.22175,448.03524 363.88167,448.02274 C 362.91637,447.98724 362.07189,456.07927 362.68809,459.45997 C 363.07001,461.55535 366.18822,465.48933 372.723,472.12018 L 382.2038,481.74035 L 379.3519,484.87563 L 376.5,488.01092 L 370,482.46043 L 363.5,476.90994 L 363.20431,483.45497 L 362.90862,490 L 359,490 L 355.09138,490 L 354.79569,483.25 z M 118.62724,422.47099 C 118.28226,421.57198 118,417.91073 118,414.33488 C 118,410.75903 117.63307,407.98333 117.18459,408.16667 C 116.73612,408.35 113.36727,410.075 109.69827,412 C 102.32374,415.86916 99.772223,415.56244 99.19206,410.73704 C 98.85991,407.97444 101.90263,405.43291 112.74898,399.41319 C 117.66968,396.6822 117.99803,396.25877 117.99898,392.64301 C 117.99985,389.35808 117.74045,388.89429 116.25,389.51602 C 109.57057,392.3023 109.15566,392.37407 107.52961,391.02457 C 104.32776,388.36727 106.03974,384.77138 112.25,381.10972 C 117.7031,377.8945 118,377.51605 118,373.78027 C 118,369.94679 117.92157,369.85831 115.07728,370.48303 C 112.53008,371.04249 112.22007,370.87447 112.6644,369.17534 C 112.94481,368.10305 112.69825,366.93154 112.11649,366.57199 C 111.00954,365.88786 105.07636,368.52032 104.89584,369.77568 C 104.77352,370.62634 104.25427,378.49623 104.10416,381.77475 C 103.97364,384.62519 99.783455,386.48966 96.934525,384.96496 C 95.521193,384.20857 95,382.86145 95,379.96482 C 95,375.73257 94.464398,375.37565 90.692383,377.0943 C 88.449031,378.11644 88.252563,378.85827 87.712904,388.3443 C 87.030452,400.34032 86.574901,401.8176 83.305063,402.63828 C 79.380533,403.62328 77.938755,401.22946 77.289993,392.65134 L 76.711769,385.00589 L 71.178303,388.00295 C 65.077888,391.30707 61.869131,391.75217 60.039826,389.54799 C 57.957778,387.03927 59.850357,384.35841 66.027885,381.06582 C 69.312548,379.31511 72,377.57083 72,377.18964 C 72,376.80845 70.0875,375.48065 67.75,374.23898 C 65.4125,372.99731 62.23243,370.96896 60.683179,369.73155 C 58.189684,367.73995 57.985971,367.1671 58.908428,364.74085 C 60.400742,360.81577 63.326511,361.18183 74.390701,366.67796 C 83.778991,371.34158 83.816273,371.3504 86.555837,369.55537 L 89.303824,367.75482 L 85.401912,364.44844 C 82.179564,361.7179 81.685801,360.83654 82.566831,359.38786 C 84.93835,355.48836 86.634563,355.39053 93.466028,358.75928 C 99.891832,361.92799 100.03649,361.95024 103.49295,360.30197 C 107.50973,358.3865 107.81752,357.50789 105,356 C 103.9,355.4113 103,354.52579 103,354.0322 C 103,353.53862 103.9,352.84913 105,352.5 C 107.87409,351.5878 107.4828,350.60066 103.49295,348.69803 C 100.03649,347.04976 99.891832,347.07201 93.466028,350.24072 C 86.634563,353.60947 84.93835,353.51164 82.566831,349.61214 C 81.687727,348.16663 82.159883,347.29855 85.250044,344.67897 C 87.312569,342.93054 89.000069,341.21709 89.000044,340.87132 C 89.00002,340.52555 87.704644,339.70609 86.121431,339.0503 C 83.510911,337.96899 82.395347,338.2836 74.141413,342.42898 C 64.382483,347.33021 61.98452,347.84166 59.660448,345.51759 C 57.096943,342.95409 58.943425,340.08349 65.629437,336.23804 C 69.133247,334.22282 72,332.24625 72,331.84565 C 72,331.44505 69.330279,329.69434 66.067287,327.95518 C 59.653161,324.53649 58.43808,322.91847 60.03877,319.92756 C 61.514136,317.17081 65.188313,317.52481 71.382326,321.0205 L 76.734355,324.041 L 77.221387,316.452 C 77.799566,307.44275 79.377657,305.04337 83.720443,306.57065 C 86.931898,307.70005 87.849955,311.19324 87.94237,322.63499 C 87.994453,329.08319 88.237253,329.92543 90.464817,331.38499 C 94.172446,333.81432 95,333.38554 95,329.03518 C 95,325.22578 96.793414,323 99.86283,323 C 102.02325,323 104,326.31902 104,329.94643 C 104,337.02458 105.08264,339.99137 108.26639,341.63776 C 111.36898,343.24217 112.94556,342.44432 112.98469,339.25 C 113.00331,337.73011 113.55528,337.69163 116.06574,339.03518 C 117.8417,339.98565 118,339.7107 118,335.67546 C 118,331.38488 117.8635,331.20008 112.25,327.89028 C 107.76539,325.24609 106.43055,323.89667 106.18439,321.75845 C 105.73242,317.83231 109.5018,316.17389 113.81173,318.40264 C 117.96873,320.55231 118.00094,320.53572 117.9934,316.25 C 117.98697,312.59539 117.77403,312.37937 109.62198,307.7574 C 100.15919,302.39227 98.710525,301.02659 99.173236,297.90717 C 99.841628,293.40113 102.38262,293.25594 110.47726,297.26127 L 118,300.98363 L 118.01531,294.24181 C 118.03411,285.9653 118.71276,284.75644 123.10486,285.17582 L 126.5,285.5 L 126.79206,293.25 C 126.9527,297.5125 127.35945,301 127.69596,301 C 128.03247,301 131.19657,299.38451 134.7273,297.41001 C 141.72022,293.49935 145.34774,293.39774 146.31211,297.08551 C 147.23546,300.61642 146.09495,301.8669 137.13085,307.15198 C 127.5558,312.79728 127.03722,313.31495 127.01531,317.25 C 126.99775,320.40454 127.90395,320.61815 132.09964,318.44847 C 135.824,316.52253 138.80328,317.36801 139.60934,320.57964 C 140.39678,323.71703 139.39678,324.83837 132.54605,328.5 C 127.04217,331.44175 126.93869,331.57766 127.2166,335.5 C 127.49829,339.47582 127.89961,339.77104 131.25,338.4671 C 132.56871,337.95388 133,338.29075 133,339.83399 C 133,342.81741 134.42399,343.23756 137.85727,341.26713 C 140.61243,339.68588 140.94913,338.92645 141.51677,333.01283 C 141.8606,329.43077 142.32478,325.92729 142.54828,325.22732 C 143.18044,323.24745 145.88548,322.62679 148.56377,323.8471 C 150.55752,324.75551 151,325.68752 151,328.97856 C 151,333.53586 151.02878,333.5536 155.04966,331.47432 C 157.9914,329.95309 158.00004,329.92175 158.01474,320.72432 C 158.03104,310.52508 159.30395,306.67859 162.83007,306.17324 C 166.89757,305.5903 168,307.60524 168,315.62244 C 168,320.1992 168.4065,323 169.07077,323 C 169.65969,323 172.795,321.5375 176.03812,319.75 C 182.77727,316.03561 185.5,316.56019 185.5,321.57299 C 185.5,323.99458 184.66504,324.89436 180,327.5 C 176.975,329.1896 174.5,330.9685 174.5,331.45312 C 174.5,331.93773 177.2,333.98106 180.5,335.99385 C 186.69275,339.77103 188.3474,342.67156 185.95432,345.55504 C 184.0159,347.89069 181.26921,347.26944 172.44723,342.5 C 163.46197,337.64229 161.5751,337.2475 158.5,339.58181 C 156.52099,341.08408 156.52624,341.12025 159,343.02777 C 160.375,344.08804 161.8375,344.96553 162.25,344.97776 C 162.6625,344.98999 163,346.35965 163,348.02144 C 163,350.23925 162.36247,351.33336 160.60305,352.135 C 158.58397,353.05496 157.23679,352.71049 152.05761,349.95002 C 146.00618,346.72464 145.85459,346.69892 142.45456,348.32028 C 138.45181,350.22906 138.1258,351.46178 141.19005,353.10171 L 143.3801,354.27379 L 141.11377,356.10896 C 138.47673,358.2443 138.85201,359.28184 142.8622,360.94292 C 145.44713,362.01363 146.45816,361.79751 152.03579,358.98193 C 157.22714,356.36135 158.70772,356.00143 160.65214,356.88737 C 164.22977,358.51744 163.85132,363.0659 159.94612,365.37276 C 156.39804,367.46866 156.54504,369.10478 160.40396,370.46845 C 162.75996,371.30101 164.44984,370.74438 172.44787,366.50127 C 180.81645,362.06157 182.01496,361.68579 184.37563,362.76138 C 188.74249,364.75105 187.91819,368.46175 182.32079,372.01152 C 179.74722,373.64362 176.79745,375.2469 175.76574,375.57435 C 172.88994,376.4871 174.13689,378.20839 180.07939,381.52889 C 184.63218,384.07286 185.54915,385.05978 185.80698,387.69341 C 186.27637,392.48787 183.18384,392.92611 175.88392,389.09959 C 172.63168,387.39482 169.52734,386 168.98538,386 C 168.42819,386 168,389.17219 168,393.3 C 168,401.08843 167.08495,403 163.3567,403 C 159.31595,403 158,399.51236 158,388.80317 L 158,379.05136 L 155.04966,377.52568 C 151.04432,375.45444 151,375.47933 151,379.8 C 151,384.10175 149.5985,386 146.42244,386 C 143.13057,386 142.10985,384.0317 141.39106,376.29776 C 140.75967,369.50427 140.61013,369.18451 137.33383,367.62215 C 132.96761,365.54005 133,365.53269 133,368.60699 C 133,370.68263 132.64332,371.07516 131.25,370.5329 C 127.91784,369.23606 127.49858,369.51716 127.18931,373.2554 C 126.88997,376.87366 127.0992,377.14755 132.9187,380.7554 C 139.27728,384.69745 140.40881,386.13661 139.47152,389.08972 C 138.62712,391.75021 135.63606,392.2926 131.45128,390.54409 C 129.41874,389.69484 127.58571,389 127.37788,389 C 127.17004,389 127,390.55432 127,392.45405 C 127,395.75058 127.42974,396.16456 136.42256,401.53105 C 146.23829,407.38862 147.22479,408.42438 146.31211,411.91449 C 145.34134,415.62671 141.71951,415.50026 134.57475,411.50468 C 127.08518,407.31627 127.18467,407.24619 126.7738,417 L 126.5,423.5 L 122.87724,423.80278 C 120.25272,424.02213 119.08165,423.65516 118.62724,422.47099 z M 126.57531,361.23469 C 127.16673,360.83061 128.44512,359.13253 129.41618,357.46117 C 131.13084,354.50993 131.11862,354.31537 128.99209,350.71117 C 127.07357,347.45951 126.3295,347 122.98278,347 C 119.68822,347 118.86247,347.48645 116.97619,350.53852 C 115.05967,353.63953 114.94215,354.44613 116.02577,357.06222 C 116.70585,358.70406 117.99076,360.47305 118.88114,360.99329 C 120.81865,362.12537 125.07618,362.25894 126.57531,361.23469 z M 105.73294,243.75502 L 93.975735,232.64365 L 103.48787,222.9619 C 112.28366,214.00927 113,212.98092 113,209.30674 C 113,207.12137 112.68986,205.0232 112.31081,204.64414 C 111.93175,204.26508 109.79425,205.73587 107.56081,207.91255 L 103.5,211.87015 L 101.04323,209.85735 L 98.586462,207.84455 L 105.79323,200.79298 L 113,193.74141 L 112.98469,188.1207 C 112.97627,185.02932 112.63877,182.01009 112.23469,181.41131 C 111.74154,180.68055 109.55318,181.33809 105.57845,183.41131 C 99.736988,186.45823 99.633474,186.58791 97.924775,193 C 96.972106,196.575 95.915731,200.7375 95.577273,202.25 C 94.90229,205.26637 94.351505,205.46434 90.601336,204.03853 C 88.081544,203.0805 88.077684,203.05988 89.525412,198.28853 C 90.324529,195.65484 90.983222,193.13654 90.989176,192.69231 C 90.995129,192.24809 88.825262,193.10711 86.167249,194.60125 C 81.563916,197.18891 81.27545,197.60703 80.09066,203.40894 C 78.880092,209.33708 76.515928,217.84362 75.167437,221.12326 C 74.567071,222.5834 73.294108,222.45667 62.5,219.86214 C 42.162961,214.97381 42.707985,215.22762 43.389946,210.96287 C 43.711215,208.95377 44.621376,205.10271 45.412526,202.40498 C 46.203676,199.70724 47.605446,194.4774 48.527572,190.78312 L 50.204163,184.06624 L 54.852082,184.64365 C 57.408437,184.96123 61.363383,185.82431 63.640851,186.56161 C 71.696577,189.16955 77.75014,189.44068 82.0403,187.3857 C 84.205514,186.34856 85.982217,185.23437 85.988527,184.90971 C 85.994837,184.58506 83.525,183.72569 80.5,183 C 74.931639,181.66417 73.885984,180.30855 75.931273,177.07696 C 76.69827,175.86509 78.145475,175.98227 85.683729,177.8666 L 94.535537,180.07927 L 99.017768,177.53005 C 101.483,176.12798 104.2875,174.70766 105.25,174.37378 C 108.2442,173.33514 107.22007,172.08977 100.75,168.90165 L 94.5,165.82198 L 85.522722,168.35226 C 76.106853,171.00617 74.69381,170.75723 75.244272,166.54151 C 75.432099,165.10303 76.953802,164.16347 80.975319,163.00293 L 86.450638,161.42286 L 81.618863,158.72232 L 76.787088,156.02179 L 63.416441,159.84529 L 50.045793,163.66878 L 49.05674,160.58439 C 48.512761,158.88798 47.62847,155.7 47.091649,153.5 C 45.694695,147.77499 42.297602,135.7953 41.514372,133.83199 C 40.811476,132.07005 40.529746,132.1767 63.348167,125.56651 C 68.214659,124.15675 72.55813,123.22691 73.000325,123.5002 C 73.750305,123.96371 75.509945,129.31299 79.496782,143.24931 C 80.929314,148.25685 81.69206,149.32127 85.408617,151.49931 C 90.150608,154.27831 91.814572,154.68643 90.130714,152.6575 C 89.517917,151.91913 88.900317,149.14975 88.758269,146.50334 C 88.519469,142.05439 88.699881,141.63642 91.151619,140.95863 C 93.646459,140.26893 93.874257,140.49977 95.004372,144.86279 C 98.454806,158.18386 98.647217,158.50952 105.05048,161.86602 C 108.3388,163.58971 111.24766,165 111.51462,165 C 111.78158,165 112,161.89452 112,158.09892 L 112,151.19785 L 104.75,144.68095 L 97.5,138.16405 L 99.899382,135.60857 L 102.29876,133.05308 L 106.89938,137.5336 L 111.5,142.01413 L 111.80713,136.86658 L 112.11426,131.71904 L 105.62553,125.51138 C 102.05672,122.09717 97.418512,117.90572 95.318395,116.19704 L 91.5,113.09035 L 103.27613,101.41383 C 116.75165,88.052283 114.13212,88.343623 124.97967,99 C 128.05894,102.025 132.49989,106.21043 134.84845,108.30095 L 139.11856,112.1019 L 129.49359,121.21095 L 119.86862,130.32 L 120.09994,134.91 C 120.22716,137.4345 120.5343,139.8796 120.78246,140.34355 C 121.03062,140.8075 123.11948,139.3363 125.42437,137.07423 L 129.61507,132.96136 L 131.78924,135.27566 L 133.96341,137.58995 L 126.96919,144.53057 L 119.97498,151.47119 L 120.11403,158.23559 C 120.1905,161.95602 120.44595,165 120.6817,165 C 120.91744,165 123.79335,163.55966 127.0726,161.79925 C 132.90528,158.66808 133.07575,158.45614 134.91498,152.04925 C 135.94903,148.44716 137.08577,144.21863 137.44106,142.65251 C 138.00965,140.14617 138.41129,139.88509 140.79352,140.47328 C 144.89842,141.48681 145.2481,142.33946 143.42619,146.89286 C 142.50409,149.19742 142.02828,151.36162 142.36884,151.70218 C 143.05423,152.38756 149.82003,149.04721 150.75948,147.55962 C 151.43644,146.48767 156.97319,126.53764 157.43676,123.5 C 157.60463,122.4 158.13753,121.57359 158.62099,121.66353 C 160.27336,121.97093 173.49212,125.21969 178.5,126.54917 C 181.25,127.27924 184.9625,128.16509 186.75,128.51774 C 190.73219,129.30336 190.86632,130.82075 187.92151,141.77108 C 185.53774,150.63514 182.72492,160.3485 182.40415,160.82386 C 182.28395,161.00199 177.53135,160.00793 171.8428,158.61485 C 158.91423,155.44873 155.32514,155.22231 151.31341,157.31975 C 146.42461,159.87574 146.61572,160.59574 152.53455,161.92032 C 156.51109,162.81023 157.99583,163.60064 157.98469,164.82172 C 157.94801,168.84103 156.74644,169.1716 148.42284,167.45231 C 144.07435,166.5541 140.22309,165.63788 139.86448,165.41624 C 137.98877,164.25699 125.18693,171.63228 126.67296,173.01603 C 129.20022,175.36935 138.91571,179.62667 140.1643,178.92793 C 140.94063,178.49347 144.25875,177.49082 147.5379,176.6998 C 150.81706,175.90879 154.23387,174.95017 155.13082,174.56954 C 156.33497,174.05855 157.02744,174.63997 157.77759,176.79184 C 158.73946,179.55107 158.59485,179.79386 155.06075,181.3531 C 153.00772,182.25889 150.35417,183 149.16398,183 C 147.97379,183 147,183.45 147,184 C 147,184.55 147.83931,185 148.86514,185 C 149.89097,185 151.86504,185.8926 153.25197,186.98356 C 156.03599,189.17347 154.62979,189.41704 176.5,182.95679 L 182.5,181.18445 L 183.78008,184.1589 C 184.48412,185.79485 185.69329,189.46585 186.46713,192.31668 C 187.24097,195.16751 188.80244,200.7568 189.93706,204.73734 C 192.39434,213.35814 192.36801,213 190.54464,213 C 188.77786,213 171.11534,217.95597 168.96625,219.05474 C 168.12269,219.48602 165.57444,220.11603 163.30346,220.45474 C 159.27513,221.05556 159.15691,220.99044 158.45689,217.78529 C 157.13635,211.73891 151.87007,196.51413 150.67812,195.29688 C 150.03015,194.63516 147.85802,193.41064 145.85116,192.57572 L 142.20233,191.0577 L 143.75391,195.90961 C 145.59554,201.66856 144.96664,204 141.57153,204 C 139.48915,204 138.89004,203.30249 137.92113,199.75 C 134.2656,186.34703 134.27608,186.36486 128.42344,183.59376 C 125.41048,182.16719 122.50763,181 121.97266,181 C 121.4377,181 121,183.90697 121,187.45993 C 121,193.87742 121.0312,193.94898 125.75,198.35457 C 128.3625,200.79367 131.62109,203.69377 132.99131,204.79926 C 135.4487,206.78185 135.4568,206.83776 133.58632,208.90461 C 131.08053,211.67349 130.66446,211.59509 126.13168,207.5 C 124.00094,205.575 121.97464,204 121.6288,204 C 121.28296,204 120.98761,205.9125 120.97246,208.25 C 120.94586,212.35423 121.29741,212.83388 131.22246,222.23478 L 141.5,231.96956 L 131.06285,241.99917 C 125.32241,247.51545 119.9202,252.66723 119.05792,253.44758 C 117.67303,254.70089 116.11868,253.57025 105.73294,243.75502 z M 123.71855,237.78416 C 128.49872,233.06337 130.25557,230.0369 128.25,229.97796 C 127.8375,229.96583 125.29713,227.94378 122.60473,225.4845 L 117.70947,221.01308 L 113.10473,225.21345 C 105.2386,232.38882 105.27235,232.15839 111.24579,237.90349 C 114.1356,240.68284 116.93585,242.96656 117.46855,242.97843 C 118.00126,242.99029 120.81376,240.65287 123.71855,237.78416 z M 70.224085,209.5 C 71.801709,203.98848 72.711089,197 71.850655,197 C 71.382795,197 70.8875,197.00041 70.75,197.00091 C 70.6125,197.00141 67.379479,196.10943 63.565509,195.01873 C 59.75154,193.92804 56.568513,193.14013 56.492116,193.26782 C 55.907597,194.24485 53.786443,204.08053 53.659125,206.40426 C 53.50982,209.12928 53.870293,209.41623 59.5,211.05387 C 67.529257,213.38951 69.179177,213.15045 70.224085,209.5 z M 175.09476,208.9026 C 178.89264,207.74903 182,206.44817 182,206.0118 C 182,205.57544 181.10988,203.25677 180.02196,200.8592 C 178.93404,198.46164 178.03404,195.25393 178.02196,193.73095 C 177.99733,190.62566 178.01706,190.6255 166.72601,193.82259 C 161.42808,195.32272 160.985,195.66675 161.35199,197.99535 C 162.14702,203.03993 165.49976,211 166.82948,211 C 167.57751,211 171.29688,210.05617 175.09476,208.9026 z M 65.75,150.82519 C 69.1875,149.61791 72,148.09314 72,147.43681 C 72,144.388 67.044409,133.52722 65.818332,133.88892 C 65.09325,134.10283 61.8,134.92102 58.5,135.70711 C 55.2,136.4932 52.169048,137.45914 51.764551,137.85363 C 51.360054,138.24813 51.922554,140.92227 53.014551,143.79618 C 54.106548,146.67008 55,149.91663 55,151.01073 C 55,153.65891 57.820118,153.61023 65.75,150.82519 z M 178.01506,146.55887 C 178.02334,145.42649 178.65609,142.70118 179.42118,140.50262 C 180.99876,135.96928 180.72709,135 177.87888,135 C 176.77718,135 173.65888,134.27488 170.94931,133.38863 C 168.23975,132.50238 165.4552,131.99584 164.76142,132.263 C 163.52915,132.73751 161.68879,138.25312 160.599,144.73783 C 160.11144,147.63904 160.33792,148.03485 162.77743,148.54492 C 164.27485,148.85801 167.75,149.71091 170.5,150.44025 C 174.89355,151.60549 175.65161,151.57538 176.75,150.19204 C 177.4375,149.32617 178.00678,147.69125 178.01506,146.55887 z M 121.82219,117.64541 L 127.14438,112.3526 L 121.32219,106.70901 L 115.5,101.06541 L 109.74215,106.75917 C 106.57534,109.89073 104.10035,112.80104 104.24217,113.22652 C 104.52267,114.068 115.18368,122.83989 116,122.90086 C 116.275,122.92141 118.89498,120.55645 121.82219,117.64541 z M 325.5503,210.03857 C 325.76124,201.80978 325.57625,194.85614 325.1392,194.58603 C 324.70216,194.31592 319.26661,197.48813 313.0602,201.63538 C 306.85379,205.78262 301.41573,208.79876 300.97561,208.33791 C 300.53549,207.87706 299.05123,204.7091 297.67726,201.298 L 295.17912,195.09599 L 298.83956,193.91312 C 308.45019,190.80746 319.39024,181.96302 323.47092,174 C 328.76955,163.66025 330.41182,150.68154 327.90224,138.97975 C 327.01111,134.82455 326.49347,133.98785 325.15224,134.53468 C 324.24351,134.90517 322.28291,135.57417 320.79535,136.02134 C 314.96151,137.77504 305.25598,143.71797 300.43537,148.48825 C 297.49797,151.39498 293.92783,156.43172 291.93537,160.48 C 288.58968,167.27778 288.50026,167.77763 288.50977,179.627 L 288.51954,191.79401 L 284.50977,192.35766 C 282.3044,192.66767 278.97515,193.23274 277.11145,193.61337 L 273.7229,194.30542 L 274.40076,182.90271 C 274.77359,176.63122 275.32169,170.2625 275.61877,168.75 C 275.91585,167.2375 275.71876,166 275.18079,166 C 274.64282,166 268.52778,169.35928 261.59182,173.46506 L 248.98098,180.93012 L 246.68143,177.21506 C 240.22975,166.79198 239.84076,165.99997 241.16844,165.99023 C 244.48635,165.96589 266.86159,153.58549 266.95919,151.72 C 266.98164,151.291 261.375,148.19653 254.5,144.8434 C 247.625,141.49026 242.01432,138.46626 242.03183,138.12339 C 242.04933,137.78053 244.26431,135.025 246.95399,132 L 251.84433,126.5 L 254.67217,129.09084 C 261.83333,135.65185 273.26701,140.11951 283,140.15981 C 294.15182,140.20599 306.77405,134.87422 317.5,125.58663 L 320.5,122.98894 L 317,119.94138 C 308.39053,112.44487 298.96441,107.85077 288.05247,105.83295 C 278.65522,104.09523 263.84391,108.80809 255.39855,116.22322 L 251.72327,119.45016 L 247.80806,114.97508 C 241.01062,107.2056 240.626,107.99395 254.54012,101.17639 C 261.39305,97.81863 266.99248,94.717813 266.98328,94.285686 C 266.95902,93.145745 250.1203,83.231967 244.73838,81.189029 L 240.16048,79.45129 L 244.40989,72.475645 C 246.74707,68.63904 248.88577,65.5 249.16256,65.5 C 249.43935,65.5 255.15081,68.7625 261.85469,72.75 C 268.55857,76.7375 274.51952,80 275.10124,80 C 275.71934,80 275.93443,78.857096 275.61877,77.25 C 275.32169,75.7375 274.77359,69.36878 274.40076,63.09729 L 273.7229,51.69458 L 277.11145,52.386634 C 278.97515,52.767265 282.32343,53.334942 284.55208,53.64814 L 288.60415,54.217591 L 288.55208,66.358796 C 288.50213,78.002319 288.63152,78.777666 291.70861,85.273829 C 296.16353,94.678789 303.37299,101.62679 314.02471,106.78061 C 326.87814,112.99972 326.6207,112.99585 327.90889,106.98925 C 331.52329,90.135879 326.85703,72.896914 315.82982,62.364448 C 311.71085,58.430287 300.84975,52.00672 298.30902,52.002145 C 297.65398,52.000965 296.83107,51.53568 296.48033,50.968177 C 295.71096,49.723313 300.12673,37 301.32814,37 C 301.79346,37 306.88985,40.175584 312.65345,44.056853 C 318.41706,47.938121 323.74282,51.347816 324.48848,51.633952 C 325.60092,52.060836 325.7938,49.358767 325.56329,36.577099 L 325.28235,21 L 333.39118,20.998622 L 341.5,20.997244 L 341.17777,36.624823 L 340.85554,52.252401 L 344.67777,49.90933 C 346.78,48.620641 352.00489,45.188851 356.28863,42.28313 C 360.57238,39.377408 364.44996,37 364.90547,37 C 365.36099,37 366.83001,40.075833 368.16997,43.835183 L 370.60626,50.670367 L 363.05313,54.045209 C 343.39881,62.82703 334.02105,82.229756 338.10265,105.66809 C 338.70912,109.15064 339.37384,112 339.57983,112 C 339.78581,112 342.86554,110.90423 346.42367,109.56495 C 359.64714,104.58765 369.25181,96.29561 374.73363,85.123988 C 377.30174,79.890316 377.4935,78.626277 377.49663,66.910679 L 377.5,54.321358 L 384.32878,53.150352 C 388.08461,52.506299 391.46179,52.167366 391.83361,52.397168 C 392.20544,52.626971 392.11618,58.727804 391.63525,65.954577 C 391.15432,73.181349 391.01125,79.344579 391.31731,79.650643 C 391.62337,79.956707 397.58302,76.766357 404.56098,72.560976 C 411.53893,68.355594 417.34218,65.046492 417.45708,65.207414 C 417.75359,65.622662 425.2416,78.350888 425.70108,79.220683 C 425.91048,79.617059 424.82589,80.232861 423.2909,80.589131 C 420.01779,81.348816 399.0195,93.154405 399.00791,94.241434 C 399.00356,94.649223 404.625,97.725811 411.5,101.0783 C 418.375,104.43078 424,107.40969 424,107.69808 C 424,107.98648 422.10922,110.53489 419.79827,113.36122 C 417.48731,116.18755 415.46214,118.68767 415.29788,118.91705 C 415.13362,119.14643 413.29636,117.96565 411.21508,116.29309 C 405.48939,111.69179 397.52447,108.00176 389.87609,106.40703 C 378.06808,103.94498 365.98359,107.45462 353.05026,117.10218 C 349.17262,119.99469 346,122.63753 346,122.97516 C 346,124.76711 362.09855,135.42935 367.86744,137.45818 C 382.94863,142.76203 395.91329,140.58096 410.34796,130.3116 C 413.01433,128.41464 415.28605,127.006 415.39622,127.18129 C 415.50639,127.35658 417.48731,129.81245 419.79827,132.63878 C 422.10922,135.46511 424,138.06086 424,138.40712 C 424,138.75337 418.375,141.7553 411.5,145.07807 C 404.625,148.40084 399,151.29578 399,151.51128 C 399,152.817 417.39574,163.33366 423.76526,165.66934 L 426.03052,166.5 L 422.26526,172.87375 C 420.19437,176.37932 417.92756,179.46878 417.22791,179.73922 C 416.52826,180.00966 410.60092,177.02897 404.05606,173.11547 C 397.51119,169.20196 391.85082,166 391.47746,166 C 390.95168,166 391.66985,187.55657 392.36033,192.5 C 392.51302,193.59325 390.14642,193.59258 382.5,192.4972 L 377.5,191.78092 L 377.5,179.14046 C 377.5,167.29792 377.32189,166.13718 374.67849,160.75234 C 370.05207,151.32795 363.39095,144.92018 352.76117,139.66862 C 338.83934,132.79066 339.42026,132.76567 338.1084,140.29893 C 336.58177,149.06548 336.71889,155.22769 338.61214,162.93611 C 341.95774,176.55791 350.03247,186.07143 363.32589,192.05347 L 370.76022,195.39892 L 368.29539,201.94946 C 366.93974,205.55226 365.64703,208.68416 365.4227,208.90925 C 365.19838,209.13433 359.83974,205.87183 353.51462,201.65925 C 347.1895,197.44666 341.67366,193.99918 341.2572,193.99818 C 340.84074,193.99718 340.60598,196.58468 340.73552,199.74818 C 340.86506,202.91168 341.09006,209.88785 341.23552,215.25077 L 341.5,225.00155 L 333.33339,225.00077 L 325.16677,225 L 325.5503,210.03857 z"
     id="path2629" />
</svg>
