<?xml version="1.0" encoding="UTF-8" ?>
<!DOCTYPE svg PUBLIC "-//W3C//DTD SVG 1.1//EN" "http://www.w3.org/Graphics/SVG/1.1/DTD/svg11.dtd">
<svg width="1277pt" height="783pt" viewBox="0 0 1277 783" version="1.1" xmlns="http://www.w3.org/2000/svg">
<path fill="#feffff" d=" M 0.00 0.00 L 1277.00 0.00 L 1277.00 276.55 C 1268.15 272.02 1258.68 268.71 1249.01 266.46 C 1203.99 258.00 1156.04 264.07 1115.31 285.39 C 1090.40 298.16 1068.34 315.93 1048.97 336.03 C 1051.70 322.84 1055.82 309.99 1060.10 297.23 C 1064.59 283.07 1070.57 269.47 1076.03 255.69 C 1063.24 281.04 1054.67 308.29 1048.02 335.83 C 1047.46 338.02 1045.68 339.55 1044.29 341.22 C 1034.70 351.57 1026.01 362.70 1017.65 374.05 C 1011.41 369.75 1004.56 366.09 996.98 364.95 C 989.16 363.47 981.09 365.01 973.77 367.91 C 978.17 367.08 982.49 365.68 987.00 365.64 C 997.62 365.34 1008.37 368.67 1017.05 374.77 C 1011.51 383.27 1005.60 391.53 1000.25 400.15 C 995.50 399.87 990.83 402.32 988.63 406.58 C 986.53 410.28 987.65 414.74 989.41 418.34 C 969.48 454.00 952.80 491.35 934.05 527.63 C 925.12 545.08 915.34 562.11 904.39 578.38 C 902.55 581.22 899.61 583.00 896.91 584.90 C 886.60 592.31 876.81 600.41 866.65 608.00 C 868.67 605.40 872.71 600.21 874.73 597.61 C 860.62 613.74 838.18 622.57 816.93 618.53 C 817.85 622.58 820.92 625.98 824.85 627.31 C 829.39 629.17 834.40 628.49 839.16 628.33 C 822.82 639.28 805.46 648.69 787.42 656.54 C 780.55 659.32 773.87 662.66 766.70 664.62 C 766.56 664.02 766.28 662.81 766.14 662.21 C 786.89 655.19 807.08 646.25 825.75 634.74 C 816.74 637.22 808.16 641.07 799.19 643.73 C 806.31 635.48 811.64 625.14 811.69 614.04 C 812.20 602.18 807.74 590.06 799.31 581.65 C 794.40 576.88 787.38 573.21 780.39 574.85 C 774.43 576.49 768.58 579.85 765.30 585.25 C 762.89 589.18 763.24 594.18 764.79 598.37 C 764.97 599.29 765.52 599.78 766.44 599.84 C 768.64 597.26 770.75 594.10 774.36 593.49 C 780.84 592.26 786.86 596.36 790.95 600.99 C 799.21 610.26 801.40 624.57 795.76 635.71 C 793.15 641.14 789.10 645.87 783.95 649.02 C 776.81 653.59 768.84 656.66 760.88 659.48 C 738.06 642.50 713.00 628.62 686.66 617.92 C 686.94 584.81 675.02 552.10 654.77 526.04 C 651.81 521.89 648.16 518.30 645.11 514.23 C 649.25 510.40 652.89 505.73 653.87 500.02 C 658.52 476.35 642.38 451.24 619.34 444.70 C 604.20 440.16 587.49 441.01 572.93 447.19 C 561.16 452.21 551.22 461.28 545.04 472.48 C 512.87 472.04 480.98 477.06 448.96 479.48 C 436.31 480.17 423.69 481.55 411.00 481.17 C 403.98 481.57 397.01 480.07 390.00 480.64 C 390.78 481.21 391.58 481.76 392.40 482.30 C 403.57 482.03 414.79 482.95 425.96 482.05 C 465.68 480.53 504.99 472.73 544.78 472.74 C 535.95 489.25 534.52 508.81 537.89 526.99 C 539.43 534.61 541.14 542.29 544.61 549.30 C 551.95 564.54 563.90 577.07 577.12 587.39 C 568.18 579.16 558.69 571.16 552.21 560.70 C 542.16 544.42 536.73 525.17 537.39 506.01 C 537.40 493.47 541.15 480.82 548.68 470.71 C 558.47 456.91 573.99 447.32 590.70 444.70 C 606.61 442.58 624.08 445.67 636.42 456.49 C 648.69 467.42 652.15 485.36 649.31 501.00 C 648.89 505.47 646.43 509.35 643.60 512.71 C 635.37 504.49 626.83 496.42 616.89 490.28 C 603.52 482.28 588.42 476.47 572.81 475.25 C 585.79 476.54 598.09 481.43 609.74 487.07 C 604.32 487.53 598.83 490.29 596.60 495.48 C 592.62 504.99 596.76 517.19 605.87 522.12 C 611.85 524.56 618.48 525.00 624.87 524.60 C 632.08 524.03 638.48 520.13 643.86 515.52 C 669.06 542.95 684.80 579.54 684.62 617.02 C 667.38 611.02 650.02 604.67 631.85 602.19 C 649.97 605.28 667.27 611.70 684.47 618.00 C 684.76 624.35 684.03 630.68 683.32 636.98 C 681.30 636.45 679.29 635.90 677.30 635.35 C 658.85 629.69 640.53 623.42 623.09 615.10 C 621.73 614.50 620.36 613.96 618.98 613.48 C 627.12 618.63 636.38 621.74 644.91 626.19 C 621.66 621.28 597.43 616.10 573.78 621.66 C 581.83 621.10 589.88 620.14 597.97 620.73 C 624.32 622.45 650.13 628.94 675.14 637.15 C 677.69 637.91 680.21 638.78 682.73 639.65 C 682.62 640.72 682.52 641.81 682.42 642.90 C 664.43 640.02 646.29 637.30 628.01 637.66 C 604.98 638.14 581.51 642.26 561.09 653.37 C 600.71 653.55 640.34 653.35 679.96 653.46 C 678.05 661.77 674.91 669.71 671.79 677.63 C 658.60 679.60 645.31 680.90 632.02 681.98 C 644.64 682.94 657.28 682.01 669.89 681.53 C 668.77 683.83 667.59 686.12 666.33 688.36 C 636.36 691.36 606.11 691.64 576.08 689.39 C 557.71 687.91 539.48 684.78 521.02 684.73 C 500.05 684.47 478.99 686.48 458.59 691.43 C 441.80 695.73 425.34 702.09 410.90 711.79 C 457.53 693.37 508.92 689.07 558.47 694.81 C 592.73 698.90 627.42 699.84 661.79 696.59 C 660.52 698.60 659.22 700.60 657.88 702.57 C 646.92 702.83 635.96 703.68 625.00 702.97 C 597.29 702.26 569.62 700.29 542.02 697.70 C 501.49 695.72 459.60 700.78 422.90 718.98 C 395.11 732.63 371.57 755.15 357.80 782.98 L 359.03 783.00 L 0.00 783.00 L 0.00 523.67 C 37.72 575.73 88.77 619.07 148.66 643.27 C 154.62 645.84 160.87 647.61 166.91 649.96 C 169.61 651.04 172.47 651.70 175.39 651.76 C 139.67 640.45 106.24 622.28 76.79 599.16 C 47.15 576.05 21.34 548.17 0.00 517.26 L 0.00 0.00 Z" />
<path fill="#377f7d" d=" M 291.95 57.91 C 307.65 38.61 324.65 20.29 343.13 3.63 C 314.25 32.31 287.86 63.70 266.39 98.35 C 239.96 140.63 220.51 188.13 215.49 238.03 C 212.45 268.87 215.28 300.32 224.22 330.01 C 230.65 351.85 240.50 372.51 251.98 392.11 C 236.11 367.84 223.75 341.12 216.93 312.89 C 211.15 289.77 209.34 265.76 210.89 242.01 C 213.07 211.36 221.27 181.34 233.29 153.13 C 248.08 118.76 268.44 86.96 291.95 57.91 Z" />
<path fill="#5eaba4" d=" M 1035.70 22.65 C 1039.10 16.66 1048.42 15.96 1052.72 21.33 C 1057.87 26.65 1054.83 36.91 1047.43 38.20 C 1046.12 38.30 1044.82 38.41 1043.54 38.54 C 1036.09 38.23 1031.57 28.77 1035.70 22.65 Z" />
<path fill="#5eaba4" d=" M 1011.74 39.77 C 1013.47 36.56 1018.72 36.29 1020.71 39.38 C 1022.58 41.59 1021.69 44.95 1019.69 46.78 C 1017.82 47.14 1015.91 47.34 1014.03 47.45 C 1011.38 45.89 1010.43 42.51 1011.74 39.77 Z" />
<path fill="#b6ded5" d=" M 1043.54 38.54 C 1044.82 38.41 1046.12 38.30 1047.43 38.20 C 1056.15 39.30 1064.99 40.43 1073.12 44.02 L 1072.69 44.40 C 1072.30 44.76 1071.51 45.47 1071.12 45.83 C 1061.32 41.84 1050.59 39.96 1040.06 41.35 C 1027.85 43.96 1016.18 50.57 1008.80 60.79 C 1002.84 70.00 999.85 81.05 1000.20 92.00 C 999.46 90.84 998.68 89.71 997.86 88.62 C 997.77 88.47 997.58 88.18 997.48 88.03 C 997.35 77.44 1000.58 66.61 1007.48 58.45 C 1010.48 54.45 1014.41 51.32 1018.30 48.22 C 1016.85 47.96 1015.45 47.70 1014.03 47.45 C 1015.91 47.34 1017.82 47.14 1019.69 46.78 C 1023.38 45.69 1026.50 43.26 1030.18 42.11 C 1034.46 40.30 1039.15 40.00 1043.54 38.54 Z" />
<path fill="#5eaba4" d=" M 1071.12 45.83 C 1071.51 45.47 1072.30 44.76 1072.69 44.40 C 1086.16 48.92 1095.38 61.00 1100.38 73.82 C 1105.35 87.23 1108.27 101.49 1108.42 115.79 C 1107.77 115.12 1107.17 114.41 1106.61 113.68 C 1107.35 111.83 1106.77 109.85 1106.65 107.95 C 1104.65 91.86 1100.31 75.59 1090.78 62.23 C 1085.60 55.40 1079.14 49.16 1071.12 45.83 Z" />
<path fill="#5eaba4" d=" M 998.52 61.77 C 999.09 59.93 1000.85 60.52 1002.28 60.65 C 1002.35 61.54 1002.44 62.44 1002.53 63.34 C 1001.87 63.65 1000.57 64.26 999.91 64.57 C 999.56 63.87 998.87 62.47 998.52 61.77 Z" />
<path fill="#5eaba4" d=" M 1045.47 68.63 C 1053.97 67.40 1062.55 71.60 1068.16 77.86 C 1074.39 84.29 1076.19 93.83 1075.20 102.48 C 1074.90 105.19 1073.64 107.65 1072.39 110.03 C 1074.14 99.72 1074.08 88.05 1067.07 79.58 C 1068.79 86.82 1071.19 94.24 1069.75 101.77 C 1068.45 112.66 1061.37 122.64 1051.61 127.58 C 1044.17 131.40 1035.33 131.57 1027.35 129.53 C 1020.51 127.58 1013.72 124.51 1008.81 119.22 C 1001.09 111.11 997.84 99.62 997.86 88.62 C 998.68 89.71 999.46 90.84 1000.20 92.00 C 1000.95 101.17 1005.36 109.74 1011.62 116.37 C 1018.66 122.91 1028.46 126.31 1038.03 125.86 C 1044.89 126.00 1051.89 123.67 1056.95 118.95 C 1066.63 109.41 1068.23 92.30 1059.09 81.87 C 1054.77 76.71 1047.56 74.50 1041.04 75.76 C 1037.30 76.63 1034.35 79.18 1031.91 81.99 C 1034.36 75.98 1038.70 69.97 1045.47 68.63 Z" />
<path fill="#b6ded5" d=" M 182.19 93.43 C 185.76 93.30 187.84 96.87 189.37 99.59 C 191.68 104.51 193.37 110.62 190.87 115.78 C 189.53 118.51 185.78 117.78 184.15 115.77 C 179.84 111.06 177.83 104.34 178.66 98.02 C 178.81 96.03 180.02 93.71 182.19 93.43 Z" />
<path fill="#b6ded5" d=" M 204.25 96.36 C 206.45 94.93 209.56 96.44 209.84 99.03 C 210.53 103.14 208.86 107.32 206.90 110.87 C 204.79 114.19 202.02 117.85 197.93 118.63 C 194.98 118.94 193.55 115.46 193.95 113.01 C 194.71 106.38 198.35 99.72 204.25 96.36 Z" />
<path fill="#b6ded5" d=" M 163.34 108.39 C 169.14 107.33 174.93 110.08 179.32 113.69 C 181.36 115.52 183.69 117.83 183.53 120.80 C 183.41 123.49 180.14 124.27 177.95 124.09 C 171.72 123.43 165.60 120.19 161.94 115.05 C 160.12 112.96 160.25 109.11 163.34 108.39 Z" />
<path fill="#b6ded5" d=" M 211.29 114.35 C 214.75 113.48 218.54 113.07 221.99 114.19 C 224.10 114.85 225.58 117.31 224.37 119.38 C 222.51 122.60 218.96 124.35 215.61 125.62 C 211.34 126.99 206.40 127.93 202.21 125.83 C 200.16 124.84 199.92 122.04 201.29 120.39 C 203.67 117.18 207.57 115.51 211.29 114.35 Z" />
<path fill="#5eaba4" d=" M 1107.26 115.72 C 1107.85 115.82 1109.02 116.01 1109.61 116.10 C 1108.10 117.72 1108.91 120.03 1108.77 121.99 C 1109.37 150.42 1105.38 178.94 1097.14 206.16 C 1094.09 215.74 1090.47 225.16 1085.98 234.16 C 1091.57 220.42 1097.01 206.53 1100.25 192.01 C 1105.90 167.06 1109.14 141.32 1107.26 115.72 Z" />
<path fill="#b6ded5" d=" M 973.22 117.29 C 974.97 116.66 977.03 117.28 978.23 118.71 C 982.66 123.54 984.62 130.49 983.54 136.94 C 983.24 138.69 981.98 140.66 980.03 140.67 C 977.45 140.73 975.58 138.59 974.30 136.62 C 971.40 132.03 969.89 126.38 970.83 120.98 C 971.22 119.61 971.74 117.85 973.22 117.29 Z" />
<path fill="#5eaba4" d=" M 188.32 119.41 C 193.11 116.90 199.18 120.74 199.37 126.02 C 200.19 132.23 191.92 136.90 187.02 132.99 C 182.11 129.82 182.63 121.41 188.32 119.41 Z" />
<path fill="#b6ded5" d=" M 997.34 119.41 C 999.99 118.79 1001.77 121.68 1001.57 124.03 C 1001.41 129.60 998.69 134.94 994.78 138.84 C 992.92 140.57 990.27 142.58 987.64 141.34 C 984.71 138.99 985.75 134.77 986.70 131.69 C 988.57 126.60 991.89 121.13 997.34 119.41 Z" />
<path fill="#b6ded5" d=" M 170.36 126.53 C 173.19 126.01 176.12 125.90 178.96 126.38 C 181.14 126.73 183.36 128.99 182.40 131.29 C 180.58 135.23 176.24 137.15 172.36 138.47 C 168.33 139.56 163.57 140.39 159.79 138.14 C 157.67 137.04 157.90 133.97 159.42 132.46 C 162.23 129.27 166.30 127.49 170.36 126.53 Z" />
<path fill="#b6ded5" d=" M 202.17 129.27 C 206.75 128.23 211.54 130.28 215.43 132.64 C 218.57 134.87 222.34 137.80 222.29 142.05 C 221.42 145.18 217.58 145.14 215.00 144.72 C 209.27 143.65 203.66 140.48 200.39 135.57 C 198.74 133.46 199.21 129.84 202.17 129.27 Z" />
<path fill="#b6ded5" d=" M 956.31 131.48 C 961.75 130.82 967.09 133.41 971.24 136.74 C 973.27 138.59 975.67 140.85 975.60 143.82 C 975.35 146.45 972.25 147.38 970.03 147.10 C 963.57 146.33 957.20 142.85 953.74 137.24 C 952.34 134.96 953.54 131.82 956.31 131.48 Z" />
<path fill="#b6ded5" d=" M 185.23 134.45 C 187.77 134.08 188.99 136.88 189.12 138.98 C 188.82 145.37 185.58 151.54 180.60 155.53 C 178.65 157.18 175.02 158.14 173.63 155.33 C 172.01 150.89 173.97 146.06 176.13 142.16 C 178.23 138.82 181.01 134.98 185.23 134.45 Z" />
<path fill="#b6ded5" d=" M 194.35 135.45 C 196.53 135.04 198.45 136.66 199.75 138.22 C 203.59 143.21 205.35 149.84 204.17 156.05 C 203.74 158.35 201.26 160.49 198.91 159.33 C 195.57 157.64 193.76 154.04 192.46 150.70 C 191.26 146.85 190.18 142.59 191.55 138.63 C 192.04 137.31 192.78 135.68 194.35 135.45 Z" />
<path fill="#b6ded5" d=" M 1003.31 137.39 C 1006.82 136.60 1010.78 136.07 1014.11 137.77 C 1016.73 138.88 1016.26 142.68 1014.35 144.25 C 1009.42 148.82 1002.22 150.75 995.65 149.52 C 993.28 149.16 991.28 146.73 992.45 144.36 C 994.60 140.42 999.21 138.61 1003.31 137.39 Z" />
<path fill="#5eaba4" d=" M 980.29 142.47 C 983.32 141.05 987.27 141.87 989.35 144.54 C 992.00 148.20 991.35 154.72 986.62 156.37 C 983.37 157.22 978.97 157.29 977.12 153.93 C 974.19 150.19 975.78 144.09 980.29 142.47 Z" />
<path fill="#b6ded5" d=" M 963.26 149.33 C 966.42 148.67 969.99 148.51 972.91 150.12 C 975.22 151.34 974.89 154.61 973.17 156.20 C 968.78 160.66 962.12 162.58 955.98 162.12 C 953.43 161.96 949.63 160.14 950.93 157.00 C 953.10 152.34 958.60 150.49 963.26 149.33 Z" />
<path fill="#b6ded5" d=" M 993.32 152.31 C 998.09 150.85 1003.15 153.23 1007.19 155.70 C 1010.20 157.92 1014.00 160.85 1013.47 165.06 C 1012.61 167.41 1009.77 167.70 1007.63 167.51 C 1001.68 166.77 995.86 163.63 992.33 158.73 C 990.89 156.82 990.55 153.21 993.32 152.31 Z" />
<path fill="#b6ded5" d=" M 976.35 157.38 C 978.23 156.84 980.47 157.90 980.71 159.98 C 981.59 165.62 978.89 171.21 975.35 175.45 C 973.29 177.76 970.33 180.41 967.00 179.16 C 964.18 176.66 965.21 172.41 966.19 169.28 C 968.06 164.41 971.17 159.16 976.35 157.38 Z" />
<path fill="#b6ded5" d=" M 986.16 158.27 C 988.47 157.77 990.42 159.60 991.72 161.29 C 994.83 165.48 996.37 170.82 996.18 176.01 C 995.95 178.42 995.06 182.10 991.97 181.91 C 989.38 181.78 987.72 179.51 986.42 177.55 C 983.93 173.51 982.52 168.68 982.84 163.92 C 983.05 161.75 983.79 158.95 986.16 158.27 Z" />
<path fill="#b6ded5" d=" M 82.33 208.44 C 86.46 207.61 89.65 211.20 91.83 214.19 C 95.93 220.49 98.15 228.17 97.60 235.70 C 97.21 238.59 96.41 242.04 93.70 243.62 C 90.38 245.45 86.90 242.66 84.77 240.26 C 79.55 233.71 76.89 225.06 77.48 216.71 C 77.93 213.59 78.87 209.43 82.33 208.44 Z" />
<path fill="#b6ded5" d=" M 116.31 212.48 C 118.57 211.30 121.53 211.89 122.97 214.04 C 125.01 217.22 124.50 221.25 123.66 224.73 C 121.87 231.63 118.07 238.13 112.56 242.70 C 110.16 244.57 106.99 246.48 103.87 245.30 C 100.92 243.91 100.30 240.31 100.44 237.38 C 100.94 230.65 103.91 224.27 108.09 219.05 C 110.36 216.37 112.94 213.71 116.31 212.48 Z" />
<path fill="#b6ded5" d=" M 55.24 230.45 C 60.02 229.17 65.00 230.66 69.42 232.53 C 75.29 235.19 81.09 239.04 84.12 244.91 C 85.60 247.64 85.24 251.89 81.90 253.00 C 75.88 254.93 69.42 252.72 64.03 249.93 C 59.04 247.17 54.06 243.46 51.75 238.09 C 50.31 235.05 51.84 231.16 55.24 230.45 Z" />
<path fill="#b6ded5" d=" M 130.35 238.44 C 135.04 237.96 140.49 237.48 144.45 240.54 C 146.74 242.30 146.64 245.68 144.97 247.83 C 140.90 253.34 134.15 256.07 127.66 257.53 C 122.52 258.57 116.60 258.93 112.05 255.89 C 109.07 253.83 109.99 249.44 112.23 247.18 C 116.89 242.13 123.69 239.53 130.35 238.44 Z" />
<path fill="#5eaba4" d=" M 92.37 246.50 C 97.93 244.03 105.03 246.89 107.50 252.39 C 110.53 258.22 107.30 265.99 101.26 268.33 C 96.64 269.48 91.04 269.10 87.91 265.04 C 82.72 259.41 85.15 249.17 92.37 246.50 Z" />
<path fill="#b6ded5" d=" M 497.51 254.54 C 499.41 253.25 501.61 254.77 502.71 256.37 C 505.80 260.66 507.25 266.93 504.23 271.63 C 499.79 271.51 497.59 267.04 496.64 263.31 C 496.08 260.45 495.56 256.99 497.51 254.54 Z" />
<path fill="#b6ded5" d=" M 514.32 256.38 C 515.80 255.07 518.63 255.83 518.66 257.98 C 519.32 262.91 516.64 267.87 512.89 270.93 C 511.40 272.13 508.24 272.81 507.62 270.39 C 506.65 265.02 509.72 259.17 514.32 256.38 Z" />
<path fill="#5eaba4" d=" M 1048.02 335.83 C 1054.67 308.29 1063.24 281.04 1076.03 255.69 C 1070.57 269.47 1064.59 283.07 1060.10 297.23 C 1055.82 309.99 1051.70 322.84 1048.97 336.03 C 1068.34 315.93 1090.40 298.16 1115.31 285.39 C 1156.04 264.07 1203.99 258.00 1249.01 266.46 C 1258.68 268.71 1268.15 272.02 1277.00 276.55 L 1277.00 277.10 C 1267.85 272.67 1258.13 269.45 1248.21 267.30 C 1221.04 263.06 1193.01 263.01 1166.10 269.06 C 1143.99 273.88 1122.79 282.63 1103.48 294.41 C 1083.33 306.62 1065.27 322.06 1049.11 339.15 C 1047.65 340.74 1047.33 342.95 1046.86 344.98 C 1040.81 374.24 1038.93 404.18 1038.26 433.99 C 1038.05 461.34 1038.71 488.86 1043.75 515.81 C 1057.50 514.57 1071.34 513.88 1085.11 515.41 C 1074.13 499.11 1065.37 481.31 1059.70 462.48 C 1052.59 438.71 1049.18 413.80 1049.74 388.99 C 1049.58 378.96 1049.91 368.93 1051.39 359.00 C 1051.63 351.87 1053.22 344.89 1053.64 337.78 C 1052.95 352.55 1049.83 367.19 1050.21 382.04 C 1050.24 390.04 1050.12 398.05 1050.38 406.05 C 1052.08 429.25 1056.10 452.49 1064.64 474.22 C 1070.22 488.85 1077.71 502.77 1086.85 515.49 C 1116.07 518.77 1144.52 527.88 1170.57 541.44 C 1172.59 542.43 1174.58 543.83 1176.94 543.79 C 1210.57 544.64 1244.38 547.81 1277.00 556.35 L 1277.00 572.22 C 1250.88 563.47 1223.64 558.19 1196.17 556.35 C 1214.25 567.97 1230.88 581.73 1246.40 596.56 C 1249.09 598.94 1251.20 602.29 1254.82 603.37 C 1262.23 605.96 1269.69 608.47 1277.00 611.37 L 1277.00 615.34 C 1271.62 614.01 1266.45 611.81 1260.86 611.38 C 1266.35 617.56 1271.91 623.70 1277.00 630.22 L 1277.00 636.56 C 1270.95 629.41 1265.06 622.13 1258.82 615.15 C 1256.80 613.07 1255.16 610.04 1252.01 609.68 C 1231.31 605.79 1210.91 600.22 1191.17 592.88 C 1183.79 590.45 1176.97 586.13 1169.10 585.44 C 1134.36 580.50 1099.05 578.92 1064.06 581.81 C 1077.10 615.03 1095.76 646.01 1118.62 673.41 C 1120.32 675.40 1122.11 677.32 1123.90 679.24 C 1134.64 668.63 1143.26 656.14 1150.83 643.13 C 1144.18 655.55 1136.47 667.56 1126.66 677.72 C 1125.87 678.73 1124.27 680.11 1125.63 681.36 C 1130.61 687.05 1136.00 692.44 1141.42 697.71 C 1141.75 697.76 1142.42 697.86 1142.75 697.91 C 1150.74 690.68 1156.72 681.19 1159.96 670.91 C 1157.65 681.93 1151.10 691.54 1143.31 699.48 C 1169.73 725.00 1200.84 745.41 1234.01 761.04 C 1247.44 768.08 1262.18 772.16 1277.00 775.06 L 1277.00 783.00 L 1182.45 783.00 C 1158.60 763.16 1136.80 740.90 1117.21 716.85 C 1093.36 727.60 1067.25 732.35 1041.30 734.26 C 1043.04 733.18 1046.57 733.40 1046.63 730.69 C 1070.30 728.78 1094.30 725.28 1116.10 715.39 C 1111.56 709.89 1107.41 704.11 1103.12 698.44 C 1083.71 711.78 1061.47 720.97 1038.34 725.31 C 1037.62 724.78 1036.20 723.73 1035.49 723.20 C 1059.23 719.75 1082.63 711.75 1102.22 697.67 C 1096.32 688.02 1089.35 679.02 1083.95 669.04 C 1067.72 642.63 1055.85 613.63 1048.33 583.58 C 1044.92 584.07 1041.54 584.61 1038.14 585.07 C 1037.47 584.68 1036.14 583.91 1035.48 583.52 C 1039.52 582.77 1043.62 582.42 1047.73 582.08 C 1047.23 577.98 1046.27 573.97 1045.40 569.95 C 1026.31 573.81 1007.55 579.18 988.80 584.41 C 987.85 580.80 984.73 578.43 982.78 575.40 C 1002.49 568.65 1022.65 563.20 1042.96 558.55 C 1040.89 545.16 1038.99 531.76 1037.59 518.29 C 1025.54 520.28 1013.80 523.76 1002.29 527.80 C 1001.88 527.81 1001.07 527.84 1000.66 527.85 C 1012.37 522.60 1024.86 519.21 1037.48 516.99 C 1032.74 458.78 1035.91 399.96 1046.32 342.50 C 1036.42 352.75 1027.57 364.03 1019.38 375.69 C 1027.64 383.06 1033.56 393.70 1033.06 405.00 C 1032.43 412.58 1029.27 420.35 1023.07 425.03 C 1016.74 429.84 1007.90 430.35 1000.69 427.36 C 996.83 425.99 993.82 423.16 990.59 420.78 C 970.56 456.26 954.41 493.76 935.19 529.66 C 934.90 529.16 934.34 528.14 934.05 527.63 C 952.80 491.35 969.48 454.00 989.41 418.34 C 987.65 414.74 986.53 410.28 988.63 406.58 C 990.83 402.32 995.50 399.87 1000.25 400.15 C 1005.60 391.53 1011.51 383.27 1017.05 374.77 C 1008.37 368.67 997.62 365.34 987.00 365.64 C 982.49 365.68 978.17 367.08 973.77 367.91 C 981.09 365.01 989.16 363.47 996.98 364.95 C 1004.56 366.09 1011.41 369.75 1017.65 374.05 C 1026.01 362.70 1034.70 351.57 1044.29 341.22 C 1045.68 339.55 1047.46 338.02 1048.02 335.83 Z" />
<path fill="#b6ded5" d=" M 65.31 257.38 C 70.56 256.32 76.58 255.72 81.34 258.67 C 83.69 260.14 84.29 263.45 82.71 265.70 C 79.26 271.26 72.78 273.95 66.73 275.67 C 61.32 276.84 55.18 277.59 50.11 274.88 C 47.13 273.33 46.70 269.29 48.78 266.81 C 52.67 261.54 59.15 258.93 65.31 257.38 Z" />
<path fill="#5eaba4" d=" M 1000.42 258.64 C 1008.14 254.82 1017.70 263.44 1014.66 271.50 C 1012.70 279.24 1001.58 281.51 996.55 275.48 C 991.65 270.41 993.80 261.06 1000.42 258.64 Z" />
<path fill="#b6ded5" d=" M 113.29 261.31 C 119.55 260.20 125.88 262.66 131.25 265.74 C 135.94 268.64 140.70 272.48 142.32 277.97 C 143.22 280.99 140.92 283.99 137.96 284.49 C 131.13 285.64 124.38 282.82 118.69 279.28 C 114.29 276.31 109.63 272.46 108.64 266.97 C 108.14 264.10 110.60 261.70 113.29 261.31 Z" />
<path fill="#feffff" d=" M 1166.10 269.06 C 1193.01 263.01 1221.04 263.06 1248.21 267.30 C 1258.13 269.45 1267.85 272.67 1277.00 277.10 L 1277.00 556.35 C 1244.38 547.81 1210.57 544.64 1176.94 543.79 C 1174.58 543.83 1172.59 542.43 1170.57 541.44 C 1144.52 527.88 1116.07 518.77 1086.85 515.49 C 1077.71 502.77 1070.22 488.85 1064.64 474.22 C 1056.10 452.49 1052.08 429.25 1050.38 406.05 C 1050.12 398.05 1050.24 390.04 1050.21 382.04 C 1049.83 367.19 1052.95 352.55 1053.64 337.78 C 1053.22 344.89 1051.63 351.87 1051.39 359.00 C 1049.91 368.93 1049.58 378.96 1049.74 388.99 C 1049.18 413.80 1052.59 438.71 1059.70 462.48 C 1065.37 481.31 1074.13 499.11 1085.11 515.41 C 1071.34 513.88 1057.50 514.57 1043.75 515.81 C 1038.71 488.86 1038.05 461.34 1038.26 433.99 C 1038.93 404.18 1040.81 374.24 1046.86 344.98 C 1047.33 342.95 1047.65 340.74 1049.11 339.15 C 1065.27 322.06 1083.33 306.62 1103.48 294.41 C 1122.79 282.63 1143.99 273.88 1166.10 269.06 Z" />
<path fill="#b6ded5" d=" M 483.72 265.73 C 486.32 263.51 490.15 264.84 492.94 266.08 C 496.35 267.86 500.73 270.96 499.49 275.42 C 494.55 277.21 489.24 274.73 485.64 271.32 C 484.32 269.90 482.59 267.73 483.72 265.73 Z" />
<path fill="#b6ded5" d=" M 86.26 269.31 C 88.02 268.99 90.21 269.06 91.38 270.64 C 93.79 273.44 93.46 277.52 92.78 280.92 C 91.19 287.88 87.52 294.46 82.21 299.26 C 79.63 301.50 76.12 303.62 72.60 302.39 C 70.21 301.21 69.40 298.39 69.38 295.91 C 69.23 289.33 72.07 283.04 75.78 277.75 C 78.47 274.16 81.79 270.55 86.26 269.31 Z" />
<path fill="#b6ded5" d=" M 511.43 276.20 C 512.64 271.48 517.59 269.20 522.03 268.61 C 524.40 268.43 527.30 268.18 529.12 270.04 C 530.42 272.26 528.14 274.29 526.49 275.46 C 522.08 278.27 515.88 279.62 511.43 276.20 Z" />
<path fill="#b6ded5" d=" M 100.17 271.06 C 102.80 269.70 105.74 271.46 107.66 273.27 C 112.17 277.71 114.57 283.87 115.77 289.98 C 116.50 294.69 116.87 299.99 114.21 304.19 C 112.67 306.84 108.91 307.09 106.57 305.38 C 102.07 302.29 99.50 297.15 97.76 292.12 C 96.26 287.16 95.21 281.81 96.48 276.69 C 97.02 274.49 98.04 272.13 100.17 271.06 Z" />
<path fill="#5eaba4" d=" M 503.47 282.84 C 498.62 281.61 499.18 273.34 504.05 272.45 C 506.55 271.75 508.71 273.14 510.53 274.67 C 511.01 277.64 511.34 282.53 507.21 282.76 C 505.96 282.82 504.71 282.84 503.47 282.84 Z" />
<path fill="#b6ded5" d=" M 484.96 279.95 C 489.33 277.41 495.67 275.97 499.75 279.78 C 497.82 284.90 492.04 287.06 486.96 287.26 C 484.79 287.43 482.85 286.41 481.21 285.11 C 481.73 282.95 482.93 280.97 484.96 279.95 Z" />
<path fill="#b6ded5" d=" M 512.16 280.32 C 516.58 278.29 521.67 281.08 525.05 284.00 C 526.71 285.49 528.95 288.58 526.67 290.48 C 522.08 292.29 517.05 289.48 513.63 286.48 C 512.11 285.04 510.09 282.06 512.16 280.32 Z" />
<path fill="#b6ded5" d=" M 503.47 282.84 C 504.71 282.84 505.96 282.82 507.21 282.76 C 509.82 284.81 512.69 286.91 513.73 290.23 C 514.96 293.68 515.91 298.32 513.29 301.34 C 511.22 302.50 509.24 300.53 508.12 298.98 C 505.18 294.72 504.00 288.72 506.80 284.11 C 505.58 283.94 504.47 283.52 503.47 282.84 Z" />
<path fill="#b6ded5" d=" M 499.22 284.10 C 500.38 283.41 502.86 282.89 503.28 284.71 C 504.75 289.47 502.01 294.49 498.77 297.86 C 497.24 299.43 493.91 301.04 492.52 298.45 C 491.32 292.95 494.64 287.06 499.22 284.10 Z" />
<path fill="#b6ded5" d=" M 1173.23 322.41 C 1177.37 322.67 1180.46 326.02 1182.78 329.17 C 1188.22 337.23 1190.89 347.30 1189.56 356.98 C 1188.99 359.94 1187.74 363.30 1184.80 364.62 C 1181.96 366.05 1178.81 364.21 1176.61 362.43 C 1172.00 358.20 1169.25 352.31 1167.49 346.40 C 1165.78 339.98 1164.77 332.86 1167.54 326.58 C 1168.47 324.30 1170.67 322.40 1173.23 322.41 Z" />
<path fill="#b6ded5" d=" M 1212.25 327.38 C 1215.01 326.07 1218.77 326.84 1220.27 329.67 C 1222.36 333.68 1221.65 338.50 1220.65 342.73 C 1218.39 350.69 1213.93 358.21 1207.47 363.48 C 1204.57 365.80 1200.53 367.82 1196.83 366.18 C 1193.71 364.32 1193.07 360.25 1193.27 356.92 C 1193.62 350.64 1196.18 344.68 1199.41 339.36 C 1202.57 334.40 1206.65 329.61 1212.25 327.38 Z" />
<path fill="#5eaba4" d=" M 1004.25 344.37 C 1011.95 341.37 1020.64 349.93 1017.59 357.68 C 1015.50 365.31 1004.49 367.56 999.51 361.47 C 994.28 356.17 997.10 346.27 1004.25 344.37 Z" />
<path fill="#feffff" d=" M 1019.38 375.69 C 1027.57 364.03 1036.42 352.75 1046.32 342.50 C 1035.91 399.96 1032.74 458.78 1037.48 516.99 C 1024.86 519.21 1012.37 522.60 1000.66 527.85 C 967.82 540.19 937.02 557.49 907.98 577.05 C 912.12 569.35 917.26 562.23 921.47 554.55 C 926.35 546.43 930.51 537.90 935.19 529.66 C 954.41 493.76 970.56 456.26 990.59 420.78 C 993.82 423.16 996.83 425.99 1000.69 427.36 C 1007.90 430.35 1016.74 429.84 1023.07 425.03 C 1029.27 420.35 1032.43 412.58 1033.06 405.00 C 1033.56 393.70 1027.64 383.06 1019.38 375.69 Z" />
<path fill="#b6ded5" d=" M 1138.25 349.30 C 1143.45 347.19 1149.31 348.62 1154.39 350.46 C 1161.78 353.35 1168.91 357.92 1173.22 364.75 C 1175.12 367.68 1175.93 372.42 1172.68 374.74 C 1167.74 377.86 1161.48 376.37 1156.29 374.70 C 1148.03 371.62 1139.70 366.53 1135.64 358.41 C 1133.82 355.29 1134.70 350.71 1138.25 349.30 Z" />
<path fill="#b6ded5" d=" M 1230.12 358.10 C 1234.81 357.40 1239.84 357.66 1244.14 359.84 C 1246.75 361.10 1248.41 364.27 1247.31 367.09 C 1245.53 371.73 1241.17 374.69 1236.98 376.96 C 1229.47 380.71 1220.81 382.75 1212.44 381.33 C 1209.13 380.61 1205.17 378.82 1204.72 375.03 C 1204.49 371.26 1207.37 368.29 1210.04 366.04 C 1215.80 361.57 1222.92 359.03 1230.12 358.10 Z" />
<path fill="#5eaba4" d=" M 959.30 364.39 C 962.07 362.29 966.38 365.83 965.02 368.96 C 964.37 371.75 960.37 372.51 958.49 370.56 C 956.71 368.91 957.13 365.51 959.30 364.39 Z" />
<path fill="#5eaba4" d=" M 1184.41 367.60 C 1192.58 364.32 1203.01 371.03 1202.77 380.00 C 1203.79 387.70 1196.69 395.05 1189.02 394.67 C 1181.71 395.10 1174.70 388.46 1175.16 381.06 C 1174.60 375.12 1178.79 369.35 1184.41 367.60 Z" />
<path fill="#b6ded5" d=" M 797.63 372.56 C 799.40 370.04 802.31 372.80 803.34 374.64 C 805.55 378.53 807.00 384.33 803.23 387.75 C 797.81 385.28 795.25 377.88 797.63 372.56 Z" />
<path fill="#b6ded5" d=" M 810.57 375.67 C 811.91 374.07 814.23 372.38 816.33 373.69 C 818.14 376.44 816.73 379.79 815.38 382.41 C 813.86 385.31 811.20 388.26 807.59 387.66 C 805.54 383.53 807.86 378.88 810.57 375.67 Z" />
<path fill="#5eaba4" d=" M 941.60 393.58 C 946.83 387.19 952.58 381.06 959.55 376.54 C 955.79 381.13 951.25 385.06 947.88 389.97 C 937.94 405.59 934.71 424.90 937.30 443.10 C 937.85 448.09 940.12 452.63 941.43 457.43 C 938.57 457.61 936.44 455.15 934.94 453.04 C 931.13 446.76 929.25 439.33 929.71 431.99 C 929.82 420.42 934.89 409.79 939.95 399.68 C 932.24 410.74 925.34 422.73 922.48 436.05 C 921.97 437.79 921.94 439.79 920.68 441.22 C 920.46 439.71 920.23 438.22 920.08 436.72 C 924.19 421.09 931.57 406.28 941.60 393.58 Z" />
<path fill="#feffff" d=" M 1012.87 385.01 C 1014.79 382.23 1016.40 379.21 1018.81 376.80 C 1025.61 385.37 1031.80 395.61 1031.22 406.95 C 1030.80 416.02 1023.69 423.34 1015.67 426.68 C 1007.05 429.91 996.79 425.82 992.13 418.02 C 994.65 413.64 997.32 409.35 999.97 405.05 C 1001.07 406.30 1002.18 407.56 1003.32 408.82 C 1004.85 406.20 1004.00 403.42 1002.24 401.17 C 1005.58 395.65 1009.27 390.36 1012.87 385.01 Z" />
<path fill="#b6ded5" d=" M 1153.24 380.44 C 1158.56 379.45 1164.40 379.20 1169.39 381.67 C 1172.00 382.88 1174.10 386.05 1172.93 388.95 C 1171.58 392.87 1168.16 395.60 1164.76 397.73 C 1157.05 402.27 1147.85 404.58 1138.91 403.44 C 1135.64 402.98 1131.95 401.55 1130.61 398.27 C 1129.61 395.09 1131.55 391.94 1133.75 389.77 C 1138.98 384.59 1146.15 381.93 1153.24 380.44 Z" />
<path fill="#b6ded5" d=" M 787.24 381.27 C 791.15 380.61 795.03 382.54 797.87 385.12 C 799.20 386.26 800.15 387.99 799.82 389.80 C 799.15 391.80 796.59 391.37 794.98 391.20 C 791.15 390.29 787.15 388.12 785.51 384.37 C 784.81 383.03 785.80 381.45 787.24 381.27 Z" />
<path fill="#b6ded5" d=" M 810.42 391.13 C 812.36 386.24 818.08 384.24 822.98 384.58 C 824.53 384.61 826.47 385.40 826.63 387.18 C 826.51 389.09 824.76 390.36 823.27 391.28 C 819.33 393.37 813.96 394.59 810.42 391.13 Z" />
<path fill="#b6ded5" d=" M 1208.31 385.46 C 1215.96 384.13 1223.61 387.05 1230.11 390.90 C 1235.34 394.13 1240.48 398.34 1242.70 404.26 C 1243.83 406.82 1243.12 410.22 1240.66 411.73 C 1236.76 414.14 1231.88 413.50 1227.67 412.45 C 1219.57 410.26 1211.91 405.89 1206.49 399.41 C 1204.37 396.82 1202.59 393.51 1203.20 390.06 C 1203.56 387.54 1206.01 386.01 1208.31 385.46 Z" />
<path fill="#5eaba4" d=" M 801.08 395.90 C 798.63 392.52 801.55 386.98 805.99 388.24 C 809.97 388.22 810.22 392.77 809.65 395.72 C 807.54 398.17 803.09 398.75 801.08 395.90 Z" />
<path fill="#b6ded5" d=" M 785.08 396.08 C 788.96 392.86 795.81 390.62 799.82 394.78 C 797.87 400.14 791.13 402.08 786.00 401.05 C 783.42 400.65 783.04 397.46 785.08 396.08 Z" />
<path fill="#b6ded5" d=" M 810.21 395.63 C 814.75 392.81 820.33 395.99 823.57 399.40 C 825.15 400.72 825.69 404.47 822.99 404.70 C 817.57 405.23 810.56 401.57 810.21 395.63 Z" />
<path fill="#b6ded5" d=" M 1175.23 395.36 C 1178.26 393.81 1182.37 395.08 1183.66 398.31 C 1185.23 402.27 1184.62 406.72 1183.64 410.75 C 1181.38 418.71 1176.90 426.18 1170.46 431.45 C 1167.67 433.60 1164.03 435.59 1160.43 434.40 C 1157.00 432.75 1156.06 428.50 1156.28 425.03 C 1156.69 418.25 1159.44 411.80 1163.14 406.18 C 1166.20 401.69 1170.04 397.37 1175.23 395.36 Z" />
<path fill="#b6ded5" d=" M 495.35 396.44 C 497.62 395.40 500.06 396.81 501.41 398.66 C 504.76 402.97 506.53 408.53 506.26 413.98 C 506.09 416.05 505.47 418.52 503.44 419.51 C 501.80 420.20 499.97 419.40 498.80 418.22 C 494.78 414.27 493.09 408.51 492.85 403.01 C 492.98 400.70 493.33 397.89 495.35 396.44 Z" />
<path fill="#5eaba4" d=" M 1020.23 397.24 C 1024.19 394.79 1029.72 398.50 1029.28 403.04 C 1029.09 407.32 1023.80 410.20 1020.14 407.90 C 1016.04 405.90 1015.99 399.10 1020.23 397.24 Z" />
<path fill="#b6ded5" d=" M 1192.37 397.36 C 1194.90 395.54 1198.24 396.77 1200.45 398.53 C 1205.55 402.55 1208.38 408.70 1210.32 414.75 C 1212.10 421.18 1213.09 428.28 1210.57 434.67 C 1209.53 437.30 1206.88 439.58 1203.91 439.18 C 1198.97 438.07 1195.75 433.72 1193.36 429.58 C 1189.75 423.02 1187.74 415.50 1187.95 408.00 C 1188.24 404.18 1189.00 399.71 1192.37 397.36 Z" />
<path fill="#b6ded5" d=" M 800.19 398.29 C 801.49 397.87 803.28 398.27 803.38 399.92 C 804.08 403.32 802.44 406.74 800.45 409.42 C 799.07 411.14 797.03 413.15 794.61 412.51 C 792.75 411.29 793.24 408.70 793.61 406.86 C 794.62 403.39 796.71 399.72 800.19 398.29 Z" />
<path fill="#b6ded5" d=" M 517.39 399.38 C 518.71 398.50 520.42 398.21 521.93 398.77 C 524.28 400.36 523.99 403.51 523.64 405.96 C 522.64 410.97 519.88 415.65 515.97 418.94 C 514.35 420.34 511.98 421.34 509.90 420.33 C 507.61 418.49 508.02 415.22 508.54 412.67 C 509.85 407.44 512.80 402.36 517.39 399.38 Z" />
<path fill="#b6ded5" d=" M 805.96 398.60 C 809.76 398.27 811.96 401.89 812.89 405.06 C 813.84 408.25 814.38 412.60 811.14 414.71 C 805.32 412.07 803.41 404.14 805.96 398.60 Z" />
<path fill="#feffff" d=" M 990.97 415.30 C 989.95 410.61 992.64 404.77 997.78 404.17 C 995.66 407.97 993.44 411.72 990.97 415.30 Z" />
<path fill="#b6ded5" d=" M 479.35 410.45 C 485.16 410.21 490.81 413.12 494.96 417.04 C 496.99 418.96 499.07 422.40 496.99 425.00 C 493.82 427.30 489.67 425.89 486.37 424.65 C 481.98 422.71 477.36 419.77 475.65 415.06 C 474.84 412.56 477.01 410.59 479.35 410.45 Z" />
<path fill="#377f7d" d=" M 264.79 410.83 C 272.89 420.45 280.69 430.49 290.40 438.60 C 317.18 463.61 353.13 477.53 389.46 480.04 L 390.12 481.77 C 374.89 480.36 359.68 477.84 345.19 472.82 C 312.32 462.07 284.47 438.94 264.79 410.83 Z" />
<path fill="#5eaba4" d=" M 839.17 413.21 C 843.32 411.30 848.51 415.54 847.38 420.02 C 846.86 424.53 840.73 426.71 837.42 423.63 C 833.81 420.93 834.87 414.58 839.17 413.21 Z" />
<path fill="#b6ded5" d=" M 526.32 416.33 C 529.93 415.52 534.28 415.09 537.41 417.48 C 539.67 419.78 537.55 423.00 535.40 424.46 C 530.22 428.21 523.13 430.26 516.91 428.22 C 514.41 427.50 513.77 424.26 515.42 422.40 C 518.11 419.07 522.24 417.30 526.32 416.33 Z" />
<path fill="#377f7d" d=" M 591.47 417.71 C 597.96 414.03 607.23 419.44 606.76 426.99 C 607.26 433.89 599.45 439.53 593.03 437.09 C 587.75 435.51 584.34 429.31 586.19 424.05 C 586.94 421.30 589.09 419.15 591.47 417.71 Z" />
<path fill="#5eaba4" d=" M 502.46 421.61 C 505.47 420.94 509.54 420.55 511.54 423.47 C 515.00 427.13 513.53 434.00 508.67 435.56 C 505.82 435.88 502.13 436.47 500.13 433.85 C 496.84 430.30 497.66 423.43 502.46 421.61 Z" />
<path fill="#377f7d" d=" M 833.98 430.96 C 844.02 424.25 856.57 421.72 868.44 423.90 C 887.47 427.10 903.83 440.31 913.11 456.95 C 914.00 458.39 914.43 460.36 916.17 461.06 C 916.20 452.79 918.24 444.73 920.08 436.72 C 920.23 438.22 920.46 439.71 920.68 441.22 C 920.96 447.18 919.40 453.04 919.68 459.01 C 919.93 478.37 922.31 498.03 918.15 517.17 C 913.60 537.46 903.67 556.08 892.18 573.25 C 890.84 575.62 888.84 577.68 888.13 580.36 C 887.78 580.40 887.07 580.47 886.71 580.50 C 886.46 582.60 883.82 583.35 884.23 585.70 C 883.62 586.20 883.02 586.72 882.43 587.24 C 882.56 588.69 881.29 589.46 880.50 590.42 C 880.19 591.45 879.89 592.48 879.60 593.52 C 879.68 592.77 879.83 591.29 879.91 590.55 C 880.69 589.53 881.96 588.67 881.81 587.20 C 882.35 586.68 882.90 586.16 883.46 585.65 C 883.38 583.42 885.13 581.86 886.20 580.10 C 890.01 574.78 893.16 569.04 896.66 563.51 C 898.34 560.78 900.24 558.12 901.19 555.01 C 897.71 558.51 894.40 562.46 889.68 564.32 C 891.19 562.53 893.88 561.43 894.49 559.09 C 893.42 554.54 892.50 549.89 890.11 545.82 C 893.18 549.24 893.61 553.89 894.68 558.15 L 895.63 559.08 C 900.26 553.66 904.43 547.78 907.30 541.23 C 908.52 538.17 910.61 535.33 910.66 531.93 C 908.10 535.87 903.81 539.28 898.83 538.55 C 903.35 533.39 908.13 528.34 911.15 522.08 C 917.87 509.47 918.12 493.92 912.58 480.83 C 909.78 474.07 904.93 467.98 898.40 464.53 C 891.58 460.69 883.19 460.33 875.78 462.50 C 869.50 464.72 863.75 469.56 861.55 475.97 C 861.66 480.02 860.58 484.47 862.84 488.12 C 865.17 493.13 870.26 497.10 875.98 496.79 C 879.66 497.15 883.89 495.83 885.44 492.18 C 886.90 487.31 879.22 486.46 880.39 481.74 C 883.64 479.57 888.50 481.35 889.57 485.10 C 889.87 487.61 889.78 490.37 888.52 492.63 C 885.09 497.44 878.62 499.75 872.95 497.98 C 868.34 496.48 863.90 493.37 861.98 488.79 C 861.47 488.56 860.45 488.10 859.94 487.87 C 857.98 492.51 854.76 496.96 849.99 498.97 C 847.74 500.26 845.00 499.58 842.64 500.53 C 839.53 501.56 836.57 499.75 833.61 499.11 C 829.54 498.11 825.93 495.76 822.92 492.91 C 827.53 496.59 832.96 499.45 838.98 499.71 C 842.13 500.08 845.09 498.80 848.17 498.36 C 849.31 497.34 850.72 496.78 852.11 496.17 C 852.93 494.15 854.02 490.93 856.80 491.56 C 861.32 487.59 859.48 481.19 860.34 475.92 C 860.57 474.10 859.03 472.62 857.33 473.54 C 854.29 468.77 848.66 465.73 842.98 466.18 C 837.28 465.69 832.67 472.69 835.29 477.76 C 837.46 482.23 842.72 484.25 844.51 489.01 C 843.78 491.62 841.95 493.96 839.11 494.33 C 829.62 495.78 819.86 489.69 816.34 480.88 C 808.82 462.84 817.70 440.91 833.98 430.96 Z" />
<path fill="#feffff" d=" M 836.60 433.73 C 854.54 422.61 879.35 425.37 895.41 438.67 C 904.97 447.09 911.40 458.61 915.27 470.64 C 917.87 478.22 918.03 486.42 917.24 494.32 C 915.96 481.40 909.01 467.78 896.58 462.47 C 884.00 457.45 866.73 461.50 861.01 474.73 C 857.70 464.96 848.53 457.07 838.02 456.72 C 831.52 456.94 824.47 458.67 820.33 464.09 C 821.33 452.45 826.80 440.51 836.60 433.73 Z" />
<path fill="#b6ded5" d=" M 486.22 428.33 C 489.33 428.05 492.92 427.53 495.64 429.47 C 497.43 430.63 497.15 433.41 495.91 434.89 C 492.91 438.29 488.48 440.08 484.13 440.97 C 480.64 441.62 476.50 441.76 473.71 439.22 C 472.55 437.42 473.30 435.08 474.79 433.74 C 477.86 430.73 482.02 429.02 486.22 428.33 Z" />
<path fill="#377f7d" d=" M 630.52 429.63 C 634.15 428.22 639.02 430.84 638.67 435.02 C 639.34 439.63 633.30 443.10 629.60 440.35 C 625.35 438.04 626.11 431.32 630.52 429.63 Z" />
<path fill="#b6ded5" d=" M 689.09 430.06 C 690.87 428.75 693.26 429.90 694.72 431.20 C 698.80 435.16 700.83 440.80 701.55 446.34 C 701.80 449.68 701.81 453.60 699.24 456.15 C 697.27 457.58 694.47 456.70 692.94 455.03 C 689.03 450.99 686.97 445.42 686.35 439.91 C 686.16 436.54 686.06 432.29 689.09 430.06 Z" />
<path fill="#b6ded5" d=" M 515.31 431.54 C 519.09 429.84 523.28 431.63 526.80 433.19 C 530.49 435.16 534.49 437.89 535.78 442.07 C 536.69 444.95 533.59 446.97 531.03 446.66 C 524.60 446.24 518.22 442.86 514.54 437.52 C 513.07 435.75 513.02 432.61 515.31 431.54 Z" />
<path fill="#b6ded5" d=" M 717.37 432.43 C 720.00 431.92 721.98 434.52 721.87 436.96 C 722.09 444.42 718.09 451.74 712.31 456.31 C 710.15 458.23 705.67 458.97 704.39 455.71 C 702.68 451.08 704.85 446.12 706.89 441.96 C 709.27 437.91 712.46 433.34 717.37 432.43 Z" />
<path fill="#b6ded5" d=" M 499.33 436.33 C 502.00 435.78 503.52 438.77 503.36 441.05 C 503.00 447.42 499.65 453.63 494.48 457.39 C 492.84 458.59 490.07 459.27 488.58 457.47 C 486.70 454.52 487.67 450.76 488.76 447.70 C 490.80 442.98 493.99 437.60 499.33 436.33 Z" />
<path fill="#b6ded5" d=" M 508.32 437.39 C 510.54 436.86 512.60 438.38 513.86 440.08 C 517.50 444.84 519.22 451.11 518.26 457.06 C 517.83 458.69 516.96 460.84 514.97 460.90 C 512.81 461.26 511.07 459.65 509.86 458.10 C 506.30 453.46 504.65 447.38 505.48 441.59 C 505.77 439.91 506.49 437.89 508.32 437.39 Z" />
<path fill="#377f7d" d=" M 572.93 447.19 C 587.49 441.01 604.20 440.16 619.34 444.70 C 642.38 451.24 658.52 476.35 653.87 500.02 C 652.89 505.73 649.25 510.40 645.11 514.23 C 648.16 518.30 651.81 521.89 654.77 526.04 C 675.02 552.10 686.94 584.81 686.66 617.92 C 713.00 628.62 738.06 642.50 760.88 659.48 C 768.84 656.66 776.81 653.59 783.95 649.02 C 789.10 645.87 793.15 641.14 795.76 635.71 C 801.40 624.57 799.21 610.26 790.95 600.99 C 786.86 596.36 780.84 592.26 774.36 593.49 C 770.75 594.10 768.64 597.26 766.44 599.84 C 765.52 599.78 764.97 599.29 764.79 598.37 C 763.24 594.18 762.89 589.18 765.30 585.25 C 768.58 579.85 774.43 576.49 780.39 574.85 C 787.38 573.21 794.40 576.88 799.31 581.65 C 807.74 590.06 812.20 602.18 811.69 614.04 C 811.64 625.14 806.31 635.48 799.19 643.73 C 808.16 641.07 816.74 637.22 825.75 634.74 C 807.08 646.25 786.89 655.19 766.14 662.21 C 766.28 662.81 766.56 664.02 766.70 664.62 C 773.87 662.66 780.55 659.32 787.42 656.54 C 805.46 648.69 822.82 639.28 839.16 628.33 C 834.40 628.49 829.39 629.17 824.85 627.31 C 820.92 625.98 817.85 622.58 816.93 618.53 C 838.18 622.57 860.62 613.74 874.73 597.61 C 872.71 600.21 868.67 605.40 866.65 608.00 C 876.81 600.41 886.60 592.31 896.91 584.90 C 899.61 583.00 902.55 581.22 904.39 578.38 C 915.34 562.11 925.12 545.08 934.05 527.63 C 934.34 528.14 934.90 529.16 935.19 529.66 C 930.51 537.90 926.35 546.43 921.47 554.55 C 917.26 562.23 912.12 569.35 907.98 577.05 C 937.02 557.49 967.82 540.19 1000.66 527.85 C 1001.07 527.84 1001.88 527.81 1002.29 527.80 C 968.40 540.38 936.73 558.42 907.38 579.42 C 903.33 582.10 901.37 586.74 898.42 590.43 C 891.09 601.08 882.75 610.97 874.82 621.16 C 909.59 603.23 945.67 587.84 982.78 575.40 C 984.73 578.43 987.85 580.80 988.80 584.41 C 948.27 596.22 908.76 611.35 870.02 628.08 C 867.99 628.85 866.33 630.29 864.95 631.93 C 862.20 635.15 858.93 637.94 856.61 641.52 C 902.49 620.55 949.58 601.45 998.84 590.01 C 1010.94 587.26 1023.23 585.48 1035.48 583.52 C 1036.14 583.91 1037.47 584.68 1038.14 585.07 C 1016.95 587.86 996.18 593.11 975.58 598.70 C 964.40 602.11 953.14 605.28 942.13 609.22 C 934.17 611.93 926.29 614.89 918.27 617.41 C 924.50 617.97 930.89 618.56 936.62 621.30 C 944.55 625.11 952.23 630.91 955.45 639.40 C 958.09 645.23 957.97 651.76 957.65 658.02 C 957.27 665.31 952.42 671.44 946.98 675.89 C 941.56 680.31 933.89 682.64 927.13 680.14 C 918.43 677.69 911.74 669.11 912.15 659.98 C 911.94 655.31 915.24 651.49 918.40 648.44 C 922.05 644.82 927.80 643.15 932.66 645.20 C 936.83 647.11 940.83 650.40 942.06 655.01 C 943.73 661.87 939.14 669.73 932.04 671.01 C 926.15 672.67 920.29 668.22 918.50 662.79 C 918.03 660.11 918.21 657.38 918.36 654.70 C 918.92 658.22 918.44 662.24 920.68 665.27 C 923.53 668.89 928.62 670.08 933.00 669.17 C 938.55 666.70 942.29 659.23 939.37 653.57 C 935.66 647.84 926.89 646.94 921.35 650.38 C 913.46 655.70 914.81 669.48 923.43 673.38 C 932.40 677.29 944.72 674.46 949.52 665.45 C 953.18 658.35 952.72 649.81 950.27 642.40 C 946.37 632.20 936.29 625.61 925.97 623.23 C 919.29 621.50 912.51 623.87 906.27 626.11 C 895.62 630.02 885.85 637.68 881.47 648.39 C 876.66 660.36 878.63 673.96 883.43 685.59 C 888.77 698.31 899.02 708.48 911.07 714.96 C 916.93 718.22 923.20 720.88 929.87 721.91 C 964.66 728.54 1000.53 728.54 1035.49 723.20 C 1036.20 723.73 1037.62 724.78 1038.34 725.31 C 1021.30 728.78 1003.92 729.89 986.57 729.86 C 1006.52 731.51 1026.64 732.14 1046.63 730.69 C 1046.57 733.40 1043.04 733.18 1041.30 734.26 C 1028.56 734.82 1015.82 735.94 1003.05 735.44 C 955.28 733.57 908.61 721.40 863.30 706.83 C 843.70 700.58 824.47 693.24 805.07 686.41 C 802.89 688.09 800.58 689.59 798.22 690.99 C 826.03 717.80 850.24 748.65 868.06 783.00 L 863.37 783.00 C 859.94 774.97 855.15 767.60 850.72 760.10 C 835.14 735.51 816.58 712.86 795.82 692.47 C 771.01 706.66 743.59 715.83 715.69 721.67 C 690.17 727.11 664.20 730.28 638.15 731.65 C 634.49 731.97 632.53 735.71 629.92 737.88 C 609.86 756.37 586.67 771.31 562.05 783.00 L 560.42 783.00 C 576.22 775.59 591.30 766.65 605.47 756.46 C 611.90 751.49 618.60 746.78 624.26 740.91 C 608.87 741.29 593.43 741.78 578.04 740.96 C 567.95 740.48 557.86 740.62 547.77 740.72 C 547.01 743.02 546.02 746.17 542.98 745.87 C 540.05 746.49 538.57 743.67 537.56 741.48 C 518.90 743.17 500.21 746.66 482.86 753.92 C 466.85 760.52 452.05 770.28 440.23 783.00 L 436.44 783.00 C 446.93 769.96 460.72 759.79 475.76 752.58 C 492.76 744.31 511.39 739.86 530.12 737.86 C 552.76 735.70 575.41 738.55 597.98 740.05 C 607.03 740.61 616.10 740.30 625.16 740.49 C 628.16 737.78 631.03 734.92 633.94 732.10 C 608.63 732.96 583.26 733.08 558.02 730.97 C 537.01 728.97 515.64 730.81 495.36 736.66 C 492.90 737.47 492.79 741.28 489.97 741.54 C 487.74 741.97 485.72 739.65 483.54 740.65 C 474.42 744.30 465.46 748.52 457.34 754.09 C 457.31 757.53 456.22 761.26 453.11 763.15 C 450.44 765.15 446.99 764.54 443.93 764.16 C 437.26 769.80 431.26 776.18 425.82 783.00 L 423.05 783.00 C 428.72 775.72 434.94 768.85 442.00 762.88 C 440.45 760.52 438.47 757.99 438.91 754.99 C 439.15 749.99 444.05 745.80 449.05 746.54 C 452.45 746.64 454.66 749.50 456.70 751.85 C 465.29 746.20 474.73 742.07 484.20 738.15 C 484.63 736.16 484.84 733.63 487.11 732.86 C 489.49 731.56 491.86 733.30 493.50 734.95 C 507.10 731.63 520.93 728.96 534.97 728.67 C 549.37 728.05 563.65 730.67 578.04 730.66 C 597.15 731.89 616.32 731.02 635.45 730.40 C 637.15 728.70 638.83 726.98 640.49 725.24 C 597.60 725.70 554.77 718.42 511.90 722.51 C 488.17 724.71 465.28 732.84 444.76 744.82 C 428.61 754.35 413.47 766.67 403.82 783.00 L 359.03 783.00 L 357.80 782.98 C 371.57 755.15 395.11 732.63 422.90 718.98 C 459.60 700.78 501.49 695.72 542.02 697.70 C 569.62 700.29 597.29 702.26 625.00 702.97 C 635.96 703.68 646.92 702.83 657.88 702.57 C 659.22 700.60 660.52 698.60 661.79 696.59 C 627.42 699.84 592.73 698.90 558.47 694.81 C 508.92 689.07 457.53 693.37 410.90 711.79 C 425.34 702.09 441.80 695.73 458.59 691.43 C 478.99 686.48 500.05 684.47 521.02 684.73 C 539.48 684.78 557.71 687.91 576.08 689.39 C 606.11 691.64 636.36 691.36 666.33 688.36 C 667.59 686.12 668.77 683.83 669.89 681.53 C 657.28 682.01 644.64 682.94 632.02 681.98 C 645.31 680.90 658.60 679.60 671.79 677.63 C 674.91 669.71 678.05 661.77 679.96 653.46 C 640.34 653.35 600.71 653.55 561.09 653.37 C 581.51 642.26 604.98 638.14 628.01 637.66 C 646.29 637.30 664.43 640.02 682.42 642.90 C 682.52 641.81 682.62 640.72 682.73 639.65 C 680.21 638.78 677.69 637.91 675.14 637.15 C 675.68 636.70 676.76 635.80 677.30 635.35 C 679.29 635.90 681.30 636.45 683.32 636.98 C 684.03 630.68 684.76 624.35 684.47 618.00 C 667.27 611.70 649.97 605.28 631.85 602.19 C 650.02 604.67 667.38 611.02 684.62 617.02 C 684.80 579.54 669.06 542.95 643.86 515.52 C 638.48 520.13 632.08 524.03 624.87 524.60 C 618.48 525.00 611.85 524.56 605.87 522.12 C 596.76 517.19 592.62 504.99 596.60 495.48 C 598.83 490.29 604.32 487.53 609.74 487.07 C 598.09 481.43 585.79 476.54 572.81 475.25 C 588.42 476.47 603.52 482.28 616.89 490.28 C 626.83 496.42 635.37 504.49 643.60 512.71 C 646.43 509.35 648.89 505.47 649.31 501.00 C 652.15 485.36 648.69 467.42 636.42 456.49 C 624.08 445.67 606.61 442.58 590.70 444.70 C 573.99 447.32 558.47 456.91 548.68 470.71 C 541.15 480.82 537.40 493.47 537.39 506.01 C 536.73 525.17 542.16 544.42 552.21 560.70 C 558.69 571.16 568.18 579.16 577.12 587.39 C 563.90 577.07 551.95 564.54 544.61 549.30 C 541.14 542.29 539.43 534.61 537.89 526.99 C 534.52 508.81 535.95 489.25 544.78 472.74 C 504.99 472.73 465.68 480.53 425.96 482.05 C 414.79 482.95 403.57 482.03 392.40 482.30 C 391.58 481.76 390.78 481.21 390.00 480.64 C 397.01 480.07 403.98 481.57 411.00 481.17 C 423.69 481.55 436.31 480.17 448.96 479.48 C 480.98 477.06 512.87 472.04 545.04 472.48 C 551.22 461.28 561.16 452.21 572.93 447.19 Z" />
<path fill="#377f7d" d=" M 556.35 445.89 C 557.23 444.23 558.84 442.75 560.88 443.47 C 563.87 444.23 563.23 449.66 559.97 449.40 C 557.80 449.86 557.02 447.38 556.35 445.89 Z" />
<path fill="#377f7d" d=" M 805.98 444.08 C 807.26 441.14 812.18 442.80 811.60 445.88 C 811.60 448.47 808.74 448.85 806.76 448.53 C 806.21 447.18 804.68 445.48 805.98 444.08 Z" />
<path fill="#b6ded5" d=" M 666.98 447.96 C 669.28 445.35 673.25 446.17 676.27 446.73 C 683.06 448.68 690.09 452.95 692.41 460.01 C 691.80 462.53 689.71 464.30 687.08 464.30 C 680.32 464.05 673.76 460.84 669.11 455.97 C 667.17 453.93 665.30 450.69 666.98 447.96 Z" />
<path fill="#b6ded5" d=" M 727.31 452.45 C 730.97 452.14 735.45 451.86 738.09 454.96 C 739.74 457.67 737.41 460.67 735.26 462.27 C 729.55 466.44 721.98 468.63 714.99 467.02 C 712.20 466.44 710.04 463.38 711.69 460.70 C 715.17 455.65 721.48 453.39 727.31 452.45 Z" />
<path fill="#5eaba4" d=" M 698.34 458.47 C 701.95 457.67 706.11 458.47 708.27 461.72 C 712.45 467.11 708.14 476.45 701.02 475.73 C 694.56 476.27 690.15 468.58 692.99 463.01 C 694.18 460.99 696.02 459.12 698.34 458.47 Z" />
<path fill="#feffff" d=" M 831.76 464.79 C 837.20 461.39 844.73 459.76 850.43 463.50 C 853.62 465.61 857.24 468.23 857.97 472.25 C 854.51 468.09 849.78 464.25 844.06 464.40 C 837.11 464.01 829.10 467.81 827.21 474.95 C 826.64 470.97 828.31 466.92 831.76 464.79 Z" />
<path fill="#b6ded5" d=" M 680.34 466.47 C 683.72 466.22 687.66 466.22 690.23 468.80 C 691.91 471.29 690.18 474.39 688.05 475.97 C 682.48 480.39 674.94 482.53 667.90 481.28 C 665.04 480.95 662.14 477.90 663.92 475.05 C 667.38 469.57 674.21 467.29 680.34 466.47 Z" />
<path fill="#b6ded5" d=" M 712.27 470.36 C 715.40 468.97 718.95 469.94 722.05 470.95 C 727.42 472.95 732.76 476.34 735.40 481.60 C 736.73 484.24 734.90 487.54 731.93 487.69 C 724.41 488.27 717.03 484.29 712.17 478.74 C 710.07 476.57 708.81 471.88 712.27 470.36 Z" />
<path fill="#b6ded5" d=" M 692.27 476.30 C 693.79 475.53 695.74 475.90 696.97 477.06 C 699.34 480.24 698.14 484.46 697.02 487.90 C 694.97 493.30 691.56 498.79 686.11 501.25 C 683.90 502.31 681.02 501.14 680.49 498.68 C 679.40 493.30 681.58 487.87 684.44 483.40 C 686.42 480.48 688.90 477.61 692.27 476.30 Z" />
<path fill="#b6ded5" d=" M 703.36 477.45 C 706.46 476.11 709.29 478.64 710.95 481.00 C 714.67 486.35 716.52 493.15 715.52 499.63 C 715.18 502.60 712.14 505.81 709.07 503.90 C 704.33 500.93 702.10 495.25 700.91 490.01 C 700.18 485.84 699.68 480.39 703.36 477.45 Z" />
<path fill="#feffff" d=" M 605.59 494.50 C 608.52 492.66 612.00 491.98 615.11 490.49 C 624.95 496.85 633.78 504.71 641.75 513.28 C 641.69 513.58 641.57 514.19 641.51 514.49 C 633.49 521.18 622.58 524.82 612.17 523.13 C 604.36 521.35 599.20 513.64 598.67 505.95 C 598.76 501.26 601.54 496.84 605.59 494.50 Z" />
<path fill="#feffff" d=" M 1044.74 517.48 C 1058.36 515.22 1072.38 515.09 1086.09 516.64 C 1093.95 527.54 1102.91 537.63 1112.85 546.67 C 1100.11 548.63 1087.20 549.79 1074.52 552.30 C 1067.78 553.12 1061.22 554.98 1054.51 555.92 C 1052.89 550.29 1050.80 544.79 1049.79 539.00 C 1048.22 531.80 1046.27 524.69 1044.74 517.48 Z" />
<path fill="#b6ded5" d=" M 1043.13 517.14 C 1043.53 517.22 1044.34 517.39 1044.74 517.48 C 1046.27 524.69 1048.22 531.80 1049.79 539.00 C 1048.16 544.52 1051.92 549.82 1052.66 555.26 C 1053.46 556.95 1051.44 556.86 1050.35 557.14 C 1047.27 543.94 1044.59 530.61 1043.13 517.14 Z" />
<path fill="#feffff" d=" M 1087.87 516.84 C 1117.06 519.52 1145.31 529.54 1170.89 543.63 C 1152.25 543.89 1133.61 544.89 1115.05 546.61 C 1104.83 537.89 1095.71 527.77 1087.87 516.84 Z" />
<path fill="#377f7d" d=" M 0.00 517.26 C 21.34 548.17 47.15 576.05 76.79 599.16 C 106.24 622.28 139.67 640.45 175.39 651.76 C 172.47 651.70 169.61 651.04 166.91 649.96 C 160.87 647.61 154.62 645.84 148.66 643.27 C 88.77 619.07 37.72 575.73 0.00 523.67 L 0.00 517.26 Z" />
<path fill="#feffff" d=" M 1002.29 527.80 C 1013.80 523.76 1025.54 520.28 1037.59 518.29 C 1038.99 531.76 1040.89 545.16 1042.96 558.55 C 1022.65 563.20 1002.49 568.65 982.78 575.40 C 945.67 587.84 909.59 603.23 874.82 621.16 C 882.75 610.97 891.09 601.08 898.42 590.43 C 901.37 586.74 903.33 582.10 907.38 579.42 C 936.73 558.42 968.40 540.38 1002.29 527.80 Z" />
<path fill="#377f7d" d=" M 861.94 535.07 C 870.69 532.95 881.01 534.65 886.92 541.98 C 881.40 536.56 873.63 533.84 865.93 534.89 C 859.25 535.20 853.61 539.89 850.22 545.36 C 846.43 552.55 847.43 562.70 854.08 567.93 C 859.53 572.76 869.55 571.37 872.69 564.53 C 874.40 561.25 873.42 557.34 870.80 554.87 C 870.03 558.48 867.87 561.79 864.01 562.47 C 861.83 561.61 859.59 560.38 858.68 558.08 C 857.57 553.82 861.90 549.96 865.97 550.24 C 870.64 549.82 874.15 554.00 875.37 558.09 C 876.41 564.81 870.90 571.75 864.08 572.19 C 857.87 572.27 851.81 568.67 848.80 563.26 C 846.45 559.31 847.30 554.47 847.54 550.12 C 849.44 543.16 855.17 537.42 861.94 535.07 Z" />
<path fill="#b6ded5" d=" M 101.65 552.59 C 104.10 551.37 106.45 553.41 107.78 555.31 C 110.32 558.97 111.61 563.54 111.36 567.98 C 111.27 570.25 110.07 572.32 108.07 573.40 C 102.92 571.60 100.66 566.01 99.83 561.05 C 99.49 558.20 99.41 554.72 101.65 552.59 Z" />
<path fill="#b6ded5" d=" M 123.32 554.39 C 125.12 553.97 126.63 555.54 126.65 557.29 C 127.23 563.37 123.81 569.47 118.89 572.91 C 117.36 574.00 114.50 574.45 113.63 572.34 C 112.28 568.17 113.93 563.70 116.19 560.18 C 117.92 557.64 120.18 555.03 123.32 554.39 Z" />
<path fill="#feffff" d=" M 1127.89 557.06 C 1147.19 555.43 1166.61 554.84 1185.97 555.73 C 1188.10 555.88 1190.41 555.63 1192.41 556.60 C 1211.42 569.04 1228.46 584.18 1244.80 599.91 C 1222.81 593.47 1200.63 587.46 1177.97 583.93 C 1174.46 583.32 1170.81 583.03 1167.62 581.33 C 1153.73 574.41 1140.01 566.82 1127.89 557.06 Z" />
<path fill="#feffff" d=" M 1196.17 556.35 C 1223.64 558.19 1250.88 563.47 1277.00 572.22 L 1277.00 611.37 C 1269.69 608.47 1262.23 605.96 1254.82 603.37 C 1251.20 602.29 1249.09 598.94 1246.40 596.56 C 1230.88 581.73 1214.25 567.97 1196.17 556.35 Z" />
<path fill="#feffff" d=" M 1058.40 567.04 C 1080.46 562.82 1102.67 559.08 1125.07 557.41 C 1129.41 559.64 1133.10 563.16 1137.31 565.74 C 1146.31 571.65 1155.65 577.06 1165.35 581.77 C 1131.61 577.71 1097.40 576.86 1063.59 580.36 C 1061.35 576.14 1059.97 571.53 1058.40 567.04 Z" />
<path fill="#377f7d" d=" M 750.38 561.63 C 755.83 559.57 762.01 565.42 759.84 570.92 C 758.59 576.04 751.42 577.95 747.72 574.26 C 743.44 570.80 745.02 563.03 750.38 561.63 Z" />
<path fill="#b6ded5" d=" M 84.46 568.32 C 83.95 565.34 87.80 564.31 90.07 564.83 C 96.24 565.92 102.84 569.63 104.50 576.10 C 102.28 579.42 97.80 578.74 94.60 577.51 C 90.34 575.81 85.81 572.98 84.46 568.32 Z" />
<path fill="#377f7d" d=" M 802.35 567.43 C 806.59 565.79 811.29 570.81 808.81 574.81 C 807.19 578.65 800.96 578.57 799.37 574.74 C 797.80 572.09 799.50 568.30 802.35 567.43 Z" />
<path fill="#feffff" d=" M 1053.29 568.32 C 1054.02 568.11 1055.46 567.70 1056.19 567.50 C 1057.63 571.84 1059.07 576.20 1060.70 580.48 C 1059.50 580.59 1058.32 580.70 1057.15 580.81 C 1055.81 576.66 1054.54 572.49 1053.29 568.32 Z" />
<path fill="#b6ded5" d=" M 132.25 569.46 C 134.79 569.40 138.01 569.57 139.47 572.01 C 139.99 575.11 137.00 577.25 134.64 578.60 C 130.26 580.74 124.78 582.36 120.17 580.02 C 118.26 579.26 118.17 576.77 119.43 575.39 C 122.44 571.52 127.52 569.89 132.25 569.46 Z" />
<path fill="#377f7d" d=" M 763.49 571.98 C 763.93 568.82 767.19 567.72 769.64 569.64 C 769.73 571.20 769.61 572.76 769.27 574.30 C 767.80 574.50 766.33 574.55 764.87 574.38 C 764.53 573.78 763.84 572.58 763.49 571.98 Z" />
<path fill="#feffff" d=" M 988.80 584.41 C 1007.55 579.18 1026.31 573.81 1045.40 569.95 C 1046.27 573.97 1047.23 577.98 1047.73 582.08 C 1043.62 582.42 1039.52 582.77 1035.48 583.52 C 1023.23 585.48 1010.94 587.26 998.84 590.01 C 949.58 601.45 902.49 620.55 856.61 641.52 C 858.93 637.94 862.20 635.15 864.95 631.93 C 866.33 630.29 867.99 628.85 870.02 628.08 C 908.76 611.35 948.27 596.22 988.80 584.41 Z" />
<path fill="#5eaba4" d=" M 108.37 574.46 C 112.40 573.09 117.39 575.45 117.57 580.00 C 118.45 585.21 111.78 589.50 107.46 586.35 C 102.77 583.96 103.39 576.06 108.37 574.46 Z" />
<path fill="#b6ded5" d=" M 94.30 580.40 C 97.00 580.10 99.97 580.09 102.33 581.64 C 104.53 583.60 102.46 586.31 100.74 587.73 C 96.47 591.04 90.70 592.55 85.38 591.45 C 83.26 591.02 81.36 588.82 82.69 586.71 C 85.25 582.89 89.92 581.07 94.30 580.40 Z" />
<path fill="#feffff" d=" M 1064.06 581.81 C 1099.05 578.92 1134.36 580.50 1169.10 585.44 C 1176.97 586.13 1183.79 590.45 1191.17 592.88 C 1210.91 600.22 1231.31 605.79 1252.01 609.68 C 1255.16 610.04 1256.80 613.07 1258.82 615.15 C 1265.06 622.13 1270.95 629.41 1277.00 636.56 L 1277.00 775.06 C 1262.18 772.16 1247.44 768.08 1234.01 761.04 C 1200.84 745.41 1169.73 725.00 1143.31 699.48 C 1151.10 691.54 1157.65 681.93 1159.96 670.91 C 1156.72 681.19 1150.74 690.68 1142.75 697.91 C 1142.42 697.86 1141.75 697.76 1141.42 697.71 C 1136.00 692.44 1130.61 687.05 1125.63 681.36 C 1124.27 680.11 1125.87 678.73 1126.66 677.72 C 1136.47 667.56 1144.18 655.55 1150.83 643.13 C 1143.26 656.14 1134.64 668.63 1123.90 679.24 C 1122.11 677.32 1120.32 675.40 1118.62 673.41 C 1095.76 646.01 1077.10 615.03 1064.06 581.81 Z" />
<path fill="#feffff" d=" M 1057.98 582.48 C 1059.08 582.39 1060.19 582.31 1061.32 582.23 C 1068.21 600.34 1076.49 617.93 1086.31 634.63 C 1096.09 651.75 1107.90 667.59 1120.19 682.96 C 1117.69 685.42 1115.15 687.88 1112.22 689.82 C 1090.71 665.04 1075.17 635.51 1064.70 604.53 C 1062.31 597.23 1059.44 590.03 1057.98 582.48 Z" />
<path fill="#b6ded5" d=" M 119.30 583.31 C 123.10 581.78 127.26 583.58 130.64 585.38 C 133.73 587.31 137.29 590.04 137.40 594.02 C 136.80 596.42 133.77 596.72 131.70 596.46 C 126.38 595.51 120.92 592.64 118.30 587.74 C 117.28 586.30 117.57 584.01 119.30 583.31 Z" />
<path fill="#feffff" d=" M 1038.14 585.07 C 1041.54 584.61 1044.92 584.07 1048.33 583.58 C 1055.85 613.63 1067.72 642.63 1083.95 669.04 C 1089.35 679.02 1096.32 688.02 1102.22 697.67 C 1082.63 711.75 1059.23 719.75 1035.49 723.20 C 1000.53 728.54 964.66 728.54 929.87 721.91 C 923.20 720.88 916.93 718.22 911.07 714.96 C 899.02 708.48 888.77 698.31 883.43 685.59 C 878.63 673.96 876.66 660.36 881.47 648.39 C 885.85 637.68 895.62 630.02 906.27 626.11 C 912.51 623.87 919.29 621.50 925.97 623.23 C 936.29 625.61 946.37 632.20 950.27 642.40 C 952.72 649.81 953.18 658.35 949.52 665.45 C 944.72 674.46 932.40 677.29 923.43 673.38 C 914.81 669.48 913.46 655.70 921.35 650.38 C 926.89 646.94 935.66 647.84 939.37 653.57 C 942.29 659.23 938.55 666.70 933.00 669.17 C 928.62 670.08 923.53 668.89 920.68 665.27 C 918.44 662.24 918.92 658.22 918.36 654.70 C 918.21 657.38 918.03 660.11 918.50 662.79 C 920.29 668.22 926.15 672.67 932.04 671.01 C 939.14 669.73 943.73 661.87 942.06 655.01 C 940.83 650.40 936.83 647.11 932.66 645.20 C 927.80 643.15 922.05 644.82 918.40 648.44 C 915.24 651.49 911.94 655.31 912.15 659.98 C 911.74 669.11 918.43 677.69 927.13 680.14 C 933.89 682.64 941.56 680.31 946.98 675.89 C 952.42 671.44 957.27 665.31 957.65 658.02 C 957.97 651.76 958.09 645.23 955.45 639.40 C 952.23 630.91 944.55 625.11 936.62 621.30 C 930.89 618.56 924.50 617.97 918.27 617.41 C 926.29 614.89 934.17 611.93 942.13 609.22 C 953.14 605.28 964.40 602.11 975.58 598.70 C 996.18 593.11 1016.95 587.86 1038.14 585.07 Z" />
<path fill="#feffff" d=" M 889.06 593.19 C 892.37 590.60 895.65 587.98 899.16 585.67 C 890.96 598.38 881.26 610.06 871.54 621.63 C 869.32 624.49 865.93 625.91 862.85 627.62 C 853.55 632.43 844.61 637.93 835.38 642.82 C 851.69 624.67 869.97 608.37 889.06 593.19 Z" />
<path fill="#b6ded5" d=" M 103.21 588.25 C 104.93 587.01 107.99 587.11 108.49 589.56 C 109.62 595.60 106.19 601.76 101.63 605.53 C 99.90 607.15 95.95 607.79 95.33 604.79 C 94.25 598.39 97.93 591.73 103.21 588.25 Z" />
<path fill="#b6ded5" d=" M 113.29 588.36 C 116.05 587.87 117.96 590.62 119.32 592.61 C 121.66 596.93 123.33 602.40 121.29 607.15 C 120.81 608.80 118.68 609.82 117.19 608.76 C 112.83 606.15 111.07 600.77 110.48 595.99 C 110.33 593.36 110.48 589.51 113.29 588.36 Z" />
<path fill="#feffff" d=" M 1185.42 589.08 C 1193.81 589.67 1201.83 592.47 1209.95 594.47 C 1222.12 597.45 1234.05 601.28 1246.02 604.97 C 1248.24 605.82 1251.01 606.06 1252.39 608.30 C 1229.53 604.09 1207.01 597.73 1185.42 589.08 Z" />
<path fill="#377f7d" d=" M 586.31 594.30 C 587.20 594.75 588.00 595.38 588.84 595.96 C 594.86 597.16 601.05 596.56 607.09 597.64 C 601.07 597.04 595.00 597.30 589.00 596.44 C 576.67 595.90 564.32 596.13 552.00 596.60 C 505.93 599.60 460.84 612.03 418.58 630.36 C 378.11 647.99 335.14 660.60 291.03 664.29 C 286.47 664.52 281.88 665.18 277.33 664.52 C 279.40 663.48 281.78 663.78 284.01 663.61 C 325.98 660.37 367.05 649.08 405.81 632.88 C 423.20 625.46 440.73 618.29 458.82 612.73 C 499.54 599.87 542.47 593.36 585.18 595.87 C 585.46 595.48 586.03 594.69 586.31 594.30 Z" />
<path fill="#feffff" d=" M 1260.86 611.38 C 1266.45 611.81 1271.62 614.01 1277.00 615.34 L 1277.00 630.22 C 1271.91 623.70 1266.35 617.56 1260.86 611.38 Z" />
<path fill="#5eaba4" d=" M 618.98 613.48 C 620.36 613.96 621.73 614.50 623.09 615.10 C 640.53 623.42 658.85 629.69 677.30 635.35 C 676.76 635.80 675.68 636.70 675.14 637.15 C 650.13 628.94 624.32 622.45 597.97 620.73 C 589.88 620.14 581.83 621.10 573.78 621.66 C 597.43 616.10 621.66 621.28 644.91 626.19 C 636.38 621.74 627.12 618.63 618.98 613.48 Z" />
<path fill="#feffff" d=" M 686.57 619.23 C 712.10 629.66 736.17 643.70 758.16 660.32 C 756.02 660.97 753.71 662.37 751.46 661.40 C 729.58 652.99 707.81 644.13 685.29 637.58 C 685.85 631.47 686.64 625.38 686.57 619.23 Z" />
<path fill="#b6ded5" d=" M 558.49 630.57 C 559.98 627.33 563.27 625.21 566.70 624.55 C 564.25 626.91 561.55 629.04 558.49 630.57 Z" />
<path fill="#feffff" d=" M 838.86 629.87 C 841.14 627.62 843.98 626.12 846.97 625.04 C 827.66 642.11 806.09 656.61 783.00 668.07 C 780.12 669.33 777.02 672.04 773.82 670.01 C 797.05 659.43 819.55 646.73 838.86 629.87 Z" />
<path fill="#feffff" d=" M 880.74 632.87 C 885.52 630.95 890.09 628.44 895.09 627.10 C 886.02 633.83 877.68 642.70 874.84 653.93 C 871.24 667.30 875.89 681.41 883.04 692.78 C 888.97 703.27 897.81 712.61 909.43 716.60 C 905.42 716.75 901.74 715.03 897.95 714.03 C 886.85 710.98 875.97 707.19 864.91 703.99 C 845.90 698.39 827.39 691.26 808.96 684.01 C 824.53 672.43 838.39 658.77 852.47 645.49 C 861.61 640.70 871.32 637.08 880.74 632.87 Z" />
<path fill="#feffff" d=" M 837.20 643.26 C 845.52 639.54 853.54 635.03 862.15 632.04 C 858.17 636.37 854.36 640.99 849.72 644.63 C 838.50 649.94 827.42 655.57 816.17 660.80 C 820.52 656.59 825.33 652.88 829.45 648.42 C 831.52 646.03 834.32 644.48 837.20 643.26 Z" />
<path fill="#b6ded5" d=" M 209.37 635.41 C 211.81 634.00 214.70 635.75 216.49 637.48 C 221.75 642.90 224.07 650.64 224.33 658.06 C 224.34 661.44 223.68 665.59 220.49 667.45 C 216.97 668.91 213.64 666.02 211.66 663.39 C 207.59 657.84 205.52 650.84 205.63 644.00 C 205.80 640.89 206.43 637.10 209.37 635.41 Z" />
<path fill="#377f7d" d=" M 968.55 637.77 C 975.02 634.78 983.34 639.07 984.83 645.97 C 987.00 653.19 980.50 661.24 972.99 660.65 C 965.55 660.97 959.55 653.00 961.58 645.88 C 962.38 642.24 965.14 639.20 968.55 637.77 Z" />
<path fill="#b6ded5" d=" M 236.69 641.80 C 239.01 639.76 242.13 637.64 245.36 638.58 C 248.02 639.44 248.74 642.52 248.70 645.01 C 248.86 651.78 245.36 657.88 241.57 663.25 C 243.66 663.72 245.84 664.92 248.02 664.20 C 253.77 662.44 260.39 660.97 266.06 663.79 C 268.57 664.80 269.54 667.94 268.31 670.29 C 266.83 673.03 264.26 675.01 261.61 676.55 C 255.52 679.91 248.32 681.59 241.41 680.39 C 238.43 679.89 234.79 677.45 235.79 673.96 C 237.15 669.60 241.50 667.44 245.10 665.19 C 243.41 665.13 241.72 664.98 240.04 665.18 C 237.15 666.78 234.56 669.74 230.94 669.25 C 227.78 668.54 226.51 664.85 226.66 661.98 C 227.47 654.37 231.08 647.02 236.69 641.80 Z" />
<path fill="#feffff" d=" M 684.64 640.38 C 695.23 643.79 705.79 647.39 716.08 651.63 C 705.70 648.07 694.92 646.00 684.29 643.39 C 684.37 642.64 684.55 641.13 684.64 640.38 Z" />
<path fill="#feffff" d=" M 808.69 666.74 C 820.89 659.93 833.66 654.19 846.32 648.27 C 833.95 660.65 820.95 672.53 806.88 682.98 C 802.16 681.58 797.69 679.51 793.08 677.82 C 798.16 673.97 803.62 670.63 808.69 666.74 Z" />
<path fill="#feffff" d=" M 682.10 653.39 C 692.71 653.49 703.32 653.39 713.93 653.43 C 717.33 653.52 720.97 652.85 724.13 654.49 C 731.72 657.77 739.68 660.19 747.08 663.88 C 730.83 667.79 714.50 671.45 697.96 673.91 C 690.00 675.16 682.02 676.21 674.09 677.59 C 676.59 669.48 680.10 661.68 682.10 653.39 Z" />
<path fill="#377f7d" d=" M 554.68 654.76 C 556.36 653.25 558.57 653.30 560.71 653.50 C 550.02 659.54 540.14 667.17 532.01 676.40 C 537.59 667.47 546.08 660.67 554.68 654.76 Z" />
<path fill="#b6ded5" d=" M 185.21 655.33 C 189.73 653.95 194.48 655.63 198.67 657.35 C 204.30 659.91 209.91 663.84 212.34 669.74 C 213.49 672.35 211.96 675.63 209.14 676.26 C 203.34 677.63 197.38 675.48 192.37 672.64 C 187.79 669.94 183.19 666.27 181.65 660.96 C 180.97 658.46 182.84 655.97 185.21 655.33 Z" />
<path fill="#377f7d" d=" M 468.55 659.94 C 468.17 657.13 471.42 657.01 473.30 657.67 C 473.52 658.96 474.10 660.37 473.33 661.61 C 471.93 663.42 468.21 662.44 468.55 659.94 Z" />
<path fill="#377f7d" d=" M 961.38 661.50 C 965.25 658.31 971.37 663.57 969.09 667.92 C 967.70 671.73 961.59 671.94 959.67 668.54 C 958.73 666.16 958.92 662.87 961.38 661.50 Z" />
<path fill="#feffff" d=" M 759.55 665.02 C 760.18 664.61 761.43 663.78 762.05 663.37 C 763.06 664.08 764.08 664.84 765.05 665.65 C 763.18 665.73 761.35 665.45 759.55 665.02 Z" />
<path fill="#377f7d" d=" M 459.36 666.62 C 464.72 663.26 472.15 669.07 470.36 675.07 C 469.19 680.67 461.22 682.72 457.47 678.47 C 453.96 675.08 455.08 668.80 459.36 666.62 Z" />
<path fill="#feffff" d=" M 671.80 681.48 C 698.93 679.17 725.93 674.72 752.01 666.78 C 754.14 665.66 756.17 667.23 758.17 667.92 C 729.23 677.97 699.08 684.68 668.62 687.86 C 669.75 685.77 670.79 683.63 671.80 681.48 Z" />
<path fill="#5eaba4" d=" M 220.47 669.66 C 228.57 666.95 237.11 676.02 233.60 683.89 C 231.07 691.79 219.06 693.17 214.67 686.24 C 210.29 680.53 213.61 671.49 220.47 669.66 Z" />
<path fill="#377f7d" d=" M 560.49 670.77 C 565.28 668.62 571.60 672.55 570.91 677.97 C 571.34 683.26 564.88 686.86 560.35 684.56 C 554.52 682.35 554.76 672.98 560.49 670.77 Z" />
<path fill="#feffff" d=" M 765.11 673.25 C 766.91 672.53 770.16 671.19 771.06 673.79 C 741.73 686.60 710.71 695.67 678.97 699.98 C 672.81 701.13 666.56 701.68 660.31 701.96 C 661.45 700.12 662.61 698.29 663.76 696.47 C 698.35 693.14 732.68 685.88 765.11 673.25 Z" />
<path fill="#377f7d" d=" M 507.39 673.43 C 510.38 672.20 514.16 674.58 513.67 677.96 C 513.80 681.70 508.56 683.85 506.01 681.09 C 503.36 679.04 504.41 674.51 507.39 673.43 Z" />
<path fill="#377f7d" d=" M 602.34 676.37 C 605.09 673.88 610.21 676.20 609.79 680.00 C 610.07 683.61 605.02 686.06 602.40 683.53 C 600.00 681.90 600.00 678.03 602.34 676.37 Z" />
<path fill="#377f7d" d=" M 396.42 678.64 C 403.59 676.44 411.82 682.39 411.71 689.94 C 412.29 697.16 405.07 703.45 398.01 702.31 C 392.14 701.55 387.21 696.03 387.54 690.05 C 387.45 684.76 391.47 680.09 396.42 678.64 Z" />
<path fill="#377f7d" d=" M 575.46 678.47 C 578.15 675.45 582.75 680.09 579.91 682.84 C 577.24 685.76 572.34 681.25 575.46 678.47 Z" />
<path fill="#b6ded5" d=" M 193.27 680.34 C 197.41 679.27 201.82 678.96 206.04 679.80 C 208.88 680.39 212.21 682.79 211.23 686.11 C 209.80 690.40 205.61 692.89 201.76 694.75 C 195.69 697.47 188.56 698.84 182.09 696.87 C 179.11 696.06 177.16 692.69 178.73 689.83 C 181.73 684.57 187.71 681.99 193.27 680.34 Z" />
<path fill="#feffff" d=" M 788.05 680.01 C 793.20 681.27 797.96 683.71 803.00 685.31 C 801.10 686.95 798.96 688.27 796.82 689.57 C 794.33 687.25 791.88 684.89 789.33 682.65 C 788.50 681.98 788.07 681.10 788.05 680.01 Z" />
<path fill="#feffff" d=" M 699.94 715.15 C 729.42 707.43 758.51 697.37 785.12 682.35 C 788.01 685.00 790.89 687.69 793.64 690.50 C 793.65 690.73 793.66 691.18 793.67 691.41 C 767.23 706.48 737.82 715.70 708.05 721.42 C 685.03 726.25 661.56 728.50 638.14 730.25 C 639.16 728.02 641.16 726.51 642.85 724.81 C 662.29 724.73 681.25 720.00 699.94 715.15 Z" />
<path fill="#b6ded5" d=" M 237.16 684.09 C 241.78 682.32 246.92 683.92 251.31 685.71 C 256.88 688.36 262.61 692.12 265.03 698.06 C 266.07 700.23 265.27 703.14 263.03 704.20 C 258.54 706.41 253.33 704.66 248.95 703.01 C 243.10 700.38 237.10 696.45 234.65 690.25 C 233.62 687.87 234.80 685.09 237.16 684.09 Z" />
<path fill="#feffff" d=" M 1113.16 690.81 C 1116.01 688.65 1118.11 685.42 1121.47 684.00 C 1126.62 690.37 1132.25 696.33 1138.00 702.15 C 1135.47 704.25 1132.80 706.15 1130.01 707.87 C 1124.26 702.31 1118.35 696.90 1113.16 690.81 Z" />
<path fill="#feffff" d=" M 798.22 690.99 C 800.58 689.59 802.89 688.09 805.07 686.41 C 824.47 693.24 843.70 700.58 863.30 706.83 C 908.61 721.40 955.28 733.57 1003.05 735.44 C 1015.82 735.94 1028.56 734.82 1041.30 734.26 C 1067.25 732.35 1093.36 727.60 1117.21 716.85 C 1136.80 740.90 1158.60 763.16 1182.45 783.00 L 868.06 783.00 C 850.24 748.65 826.03 717.80 798.22 690.99 Z" />
<path fill="#377f7d" d=" M 932.34 690.32 C 933.77 690.30 935.20 690.31 936.65 690.36 C 936.67 691.78 936.67 693.22 936.68 694.67 C 935.21 694.68 933.76 694.69 932.31 694.70 C 932.29 693.23 932.30 691.77 932.34 690.32 Z" />
<path fill="#b6ded5" d=" M 213.24 691.18 C 215.26 690.23 217.95 691.00 219.06 692.96 C 220.83 695.85 220.32 699.44 219.58 702.57 C 217.92 708.71 214.62 714.53 209.82 718.74 C 207.42 720.63 204.19 722.69 201.07 721.31 C 197.12 718.66 198.23 713.04 199.09 709.10 C 201.43 701.82 205.85 694.19 213.24 691.18 Z" />
<path fill="#377f7d" d=" M 350.23 698.83 C 348.02 695.22 351.27 691.08 355.00 690.55 C 358.28 691.19 361.51 694.46 360.03 697.98 C 358.86 702.28 352.12 702.84 350.23 698.83 Z" />
<path fill="#b6ded5" d=" M 227.23 692.33 C 231.47 691.49 234.57 695.42 236.61 698.57 C 240.45 705.13 242.64 713.23 240.60 720.73 C 239.85 724.13 235.84 726.62 232.74 724.31 C 225.99 719.60 223.25 710.87 222.71 702.99 C 222.66 699.18 223.14 693.93 227.23 692.33 Z" />
<path fill="#feffff" d=" M 715.69 721.67 C 743.59 715.83 771.01 706.66 795.82 692.47 C 816.58 712.86 835.14 735.51 850.72 760.10 C 855.15 767.60 859.94 774.97 863.37 783.00 L 562.05 783.00 C 586.67 771.31 609.86 756.37 629.92 737.88 C 632.53 735.71 634.49 731.97 638.15 731.65 C 664.20 730.28 690.17 727.11 715.69 721.67 Z" />
<path fill="#feffff" d=" M 1038.34 725.31 C 1061.47 720.97 1083.71 711.78 1103.12 698.44 C 1107.41 704.11 1111.56 709.89 1116.10 715.39 C 1094.30 725.28 1070.30 728.78 1046.63 730.69 C 1026.64 732.14 1006.52 731.51 986.57 729.86 C 1003.92 729.89 1021.30 728.78 1038.34 725.31 Z" />
<path fill="#377f7d" d=" M 388.38 702.55 C 392.36 700.52 397.52 704.65 395.80 708.94 C 394.98 712.76 389.45 714.02 386.91 711.14 C 384.29 708.81 385.10 703.87 388.38 702.55 Z" />
<path fill="#feffff" d=" M 1131.42 708.99 C 1133.93 707.04 1136.49 705.15 1139.05 703.27 C 1152.66 716.99 1167.28 729.74 1183.01 740.97 C 1164.38 732.90 1146.64 722.49 1131.42 708.99 Z" />
<path fill="#feffff" d=" M 511.90 722.51 C 554.77 718.42 597.60 725.70 640.49 725.24 C 638.83 726.98 637.15 728.70 635.45 730.40 C 616.32 731.02 597.15 731.89 578.04 730.66 C 563.65 730.67 549.37 728.05 534.97 728.67 C 520.93 728.96 507.10 731.63 493.50 734.95 C 491.86 733.30 489.49 731.56 487.11 732.86 C 484.84 733.63 484.63 736.16 484.20 738.15 C 474.73 742.07 465.29 746.20 456.70 751.85 C 454.66 749.50 452.45 746.64 449.05 746.54 C 444.05 745.80 439.15 749.99 438.91 754.99 C 438.47 757.99 440.45 760.52 442.00 762.88 C 434.94 768.85 428.72 775.72 423.05 783.00 L 403.82 783.00 C 413.47 766.67 428.61 754.35 444.76 744.82 C 465.28 732.84 488.17 724.71 511.90 722.51 Z" />
<path fill="#feffff" d=" M 495.36 736.66 C 515.64 730.81 537.01 728.97 558.02 730.97 C 583.26 733.08 608.63 732.96 633.94 732.10 C 631.03 734.92 628.16 737.78 625.16 740.49 C 616.10 740.30 607.03 740.61 597.98 740.05 C 575.41 738.55 552.76 735.70 530.12 737.86 C 511.39 739.86 492.76 744.31 475.76 752.58 C 460.72 759.79 446.93 769.96 436.44 783.00 L 425.82 783.00 C 431.26 776.18 437.26 769.80 443.93 764.16 C 446.99 764.54 450.44 765.15 453.11 763.15 C 456.22 761.26 457.31 757.53 457.34 754.09 C 465.46 748.52 474.42 744.30 483.54 740.65 C 485.72 739.65 487.74 741.97 489.97 741.54 C 492.79 741.28 492.90 737.47 495.36 736.66 Z" />
<path fill="#377f7d" d=" M 359.42 731.71 C 361.13 730.69 363.74 731.81 363.54 733.97 C 363.90 735.87 361.79 737.14 360.12 736.59 C 357.82 736.32 357.60 732.71 359.42 731.71 Z" />
<path fill="#feffff" d=" M 482.86 753.92 C 500.21 746.66 518.90 743.17 537.56 741.48 C 538.57 743.67 540.05 746.49 542.98 745.87 C 546.02 746.17 547.01 743.02 547.77 740.72 C 557.86 740.62 567.95 740.48 578.04 740.96 C 593.43 741.78 608.87 741.29 624.26 740.91 C 618.60 746.78 611.90 751.49 605.47 756.46 C 591.30 766.65 576.22 775.59 560.42 783.00 L 440.23 783.00 C 452.05 770.28 466.85 760.52 482.86 753.92 Z" />
<path fill="#377f7d" d=" M 351.39 754.55 C 356.43 752.14 363.00 755.67 363.91 761.15 C 365.77 768.17 357.23 774.85 350.88 771.16 C 343.95 768.17 344.30 757.13 351.39 754.55 Z" />
<path fill="#377f7d" d=" M 470.29 763.25 C 471.25 760.67 475.21 761.66 475.37 764.15 C 475.75 765.79 474.05 766.56 473.11 767.55 C 471.20 767.06 469.22 765.42 470.29 763.25 Z" />
</svg>
