  0
SECTION
  2
HEADER
  9
$ACADVER
  1
AC1014
  9
$HANDSEED
  5
FFFF
  9
$MEASUREMENT
 70
     1
  0
ENDSEC
  0
SECTION
  2
TABLES
  0
TABLE
  2
VPORT
  5
8
330
0
100
AcDbSymbolTable
 70
     4
  0
VPORT
  5
2E
330
8
100
AcDbSymbolTableRecord
100
AcDbViewportTableRecord
  2
*ACTIVE
 70
     0
 10
0.0
 20
0.0
 11
1.0
 21
1.0
 12
210.0
 22
148.5
 13
0.0
 23
0.0
 14
10.0
 24
10.0
 15
10.0
 25
10.0
 16
0.0
 26
0.0
 36
1.0
 17
0.0
 27
0.0
 37
0.0
 40
341.0
 41
1.24
 42
50.0
 43
0.0
 44
0.0
 50
0.0
 51
0.0
 71
     0
 72
   100
 73
     1
 74
     3
 75
     0
 76
     0
 77
     0
 78
     0
  0
ENDTAB
  0
TABLE
  2
LTYPE
  5
5
330
0
100
AcDbSymbolTable
 70
     1
  0
LTYPE
  5
14
330
5
100
AcDbSymbolTableRecord
100
AcDbLinetypeTableRecord
  2
BYBLOCK
 70
     0
  3

 72
    65
 73
     0
 40
0.0
  0
LTYPE
  5
15
330
5
100
AcDbSymbolTableRecord
100
AcDbLinetypeTableRecord
  2
BYLAYER
 70
     0
  3

 72
    65
 73
     0
 40
0.0
  0
LTYPE
  5
16
330
5
100
AcDbSymbolTableRecord
100
AcDbLinetypeTableRecord
  2
CONTINUOUS
 70
     0
  3
Solid line
 72
    65
 73
     0
 40
0.0
  0
ENDTAB
  0
TABLE
  2
LAYER
  5
2
100
AcDbSymbolTable
 70
1
  0
LAYER
  5
50
100
AcDbSymbolTableRecord
100
AcDbLayerTableRecord
  2
0
 70
0
  6
CONTINUOUS
  0
ENDTAB
  0
TABLE
  2
STYLE
  5
3
330
0
100
AcDbSymbolTable
 70
     1
  0
STYLE
  5
11
330
3
100
AcDbSymbolTableRecord
100
AcDbTextStyleTableRecord
  2
STANDARD
 70
     0
 40
0.0
 41
1.0
 50
0.0
 71
     0
 42
2.5
  3
txt
  4

  0
ENDTAB
  0
TABLE
  2
VIEW
  5
6
330
0
100
AcDbSymbolTable
 70
     0
  0
ENDTAB
  0
TABLE
  2
UCS
  5
7
330
0
100
AcDbSymbolTable
 70
     0
  0
ENDTAB
  0
TABLE
  2
APPID
  5
9
330
0
100
AcDbSymbolTable
 70
     2
  0
APPID
  5
12
330
9
100
AcDbSymbolTableRecord
100
AcDbRegAppTableRecord
  2
ACAD
 70
     0
  0
ENDTAB
  0
TABLE
  2
DIMSTYLE
  5
A
330
0
100
AcDbSymbolTable
 70
     1
  0
DIMSTYLE
105
27
330
A
100
AcDbSymbolTableRecord
100
AcDbDimStyleTableRecord
  2
ISO-25
 70
     0
  3

  4

  5

  6

  7

 40
1.0
 41
2.5
 42
0.625
 43
3.75
 44
1.25
 45
0.0
 46
0.0
 47
0.0
 48
0.0
140
2.5
141
2.5
142
0.0
143
0.03937007874016
144
1.0
145
0.0
146
1.0
147
0.625
 71
     0
 72
     0
 73
     0
 74
     0
 75
     0
 76
     0
 77
     1
 78
     8
170
     0
171
     3
172
     1
173
     0
174
     0
175
     0
176
     0
177
     0
178
     0
270
     2
271
     2
272
     2
273
     2
274
     3
340
11
275
     0
280
     0
281
     0
282
     0
283
     0
284
     8
285
     0
286
     0
287
     3
288
     0
  0
ENDTAB
  0
TABLE
  2
BLOCK_RECORD
  5
1
330
0
100
AcDbSymbolTable
 70
     1
  0
BLOCK_RECORD
  5
1F
330
1
100
AcDbSymbolTableRecord
100
AcDbBlockTableRecord
  2
*MODEL_SPACE
  0
BLOCK_RECORD
  5
1B
330
1
100
AcDbSymbolTableRecord
100
AcDbBlockTableRecord
  2
*PAPER_SPACE
  0
ENDTAB
  0
ENDSEC
  0
SECTION
  2
BLOCKS
  0
BLOCK
  5
20
330
1F
100
AcDbEntity
  8
0
100
AcDbBlockBegin
  2
*MODEL_SPACE
 70
     0
 10
0.0
 20
0.0
 30
0.0
  3
*MODEL_SPACE
  1

  0
ENDBLK
  5
21
330
1F
100
AcDbEntity
  8
0
100
AcDbBlockEnd
  0
BLOCK
  5
1C
330
1B
100
AcDbEntity
 67
     1
  8
0
100
AcDbBlockBegin
  2
*PAPER_SPACE
  1

  0
ENDBLK
  5
1D
330
1B
100
AcDbEntity
 67
     1
  8
0
100
AcDbBlockEnd
  0
ENDSEC
  0
SECTION
  2
ENTITIES
  0
LWPOLYLINE
  5
100
100
AcDbEntity
  8
0
 62
7
100
AcDbPolyline
 90
34
 70
0
 10
1.349044
 20
5.600937
 30
0.0
 10
0.003252
 20
5.596748
 30
0.0
 10
-0.000937
 20
4.250956
 30
0.0
 10
0.003252
 20
4.255145
 30
0.0
 10
0.003252
 20
1.346768
 30
0.0
 10
0.000000
 20
1.350020
 30
0.0
 10
0.000000
 20
1.199979
 30
0.0
 10
0.003252
 20
1.196727
 30
0.0
 10
0.003252
 20
0.003236
 30
0.0
 10
1.196743
 20
0.003236
 30
0.0
 10
1.199996
 20
-0.000016
 30
0.0
 10
1.349981
 20
-0.000016
 30
0.0
 10
1.346729
 20
0.003236
 30
0.0
 10
4.253232
 20
0.003236
 30
0.0
 10
4.249980
 20
-0.000016
 30
0.0
 10
4.400021
 20
-0.000016
 30
0.0
 10
4.403273
 20
0.003236
 30
0.0
 10
5.596764
 20
0.003236
 30
0.0
 10
5.596764
 20
1.196727
 30
0.0
 10
5.600016
 20
1.199979
 30
0.0
 10
5.600016
 20
1.350020
 30
0.0
 10
5.596764
 20
1.346768
 30
0.0
 10
5.596764
 20
4.253271
 30
0.0
 10
5.600016
 20
4.250019
 30
0.0
 10
5.600016
 20
4.400004
 30
0.0
 10
5.596764
 20
4.403257
 30
0.0
 10
5.596764
 20
5.596748
 30
0.0
 10
4.403273
 20
5.596748
 30
0.0
 10
4.400021
 20
5.600000
 30
0.0
 10
4.249980
 20
5.600000
 30
0.0
 10
4.253232
 20
5.596748
 30
0.0
 10
1.344855
 20
5.596748
 30
0.0
 10
1.349044
 20
5.600937
 30
0.0
 10
1.349044
 20
5.600937
 30
0.0
  0
LWPOLYLINE
  5
101
100
AcDbEntity
  8
0
 62
7
100
AcDbPolyline
 90
74
 70
0
 10
1.294915
 20
5.546808
 30
0.0
 10
4.303172
 20
5.546808
 30
0.0
 10
5.546824
 20
4.303211
 30
0.0
 10
5.546824
 20
1.296828
 30
0.0
 10
5.449039
 20
1.199042
 30
0.0
 10
5.449039
 20
2.736437
 30
0.0
 10
5.449976
 20
2.799992
 30
0.0
 10
5.436291
 20
3.070891
 30
0.0
 10
5.396127
 20
3.333976
 30
0.0
 10
5.330815
 20
3.587914
 30
0.0
 10
5.241690
 20
3.831371
 30
0.0
 10
5.130084
 20
4.063015
 30
0.0
 10
4.997331
 20
4.281510
 30
0.0
 10
4.844763
 20
4.485525
 30
0.0
 10
4.673715
 20
4.673726
 30
0.0
 10
4.485520
 20
4.844779
 30
0.0
 10
4.281510
 20
4.997352
 30
0.0
 10
4.063018
 20
5.130109
 30
0.0
 10
3.831379
 20
5.241719
 30
0.0
 10
3.587926
 20
5.330848
 30
0.0
 10
3.333990
 20
5.396163
 30
0.0
 10
3.070907
 20
5.436329
 30
0.0
 10
2.800008
 20
5.450014
 30
0.0
 10
2.609250
 20
5.443231
 30
0.0
 10
2.422160
 20
5.423193
 30
0.0
 10
2.239192
 20
5.390371
 30
0.0
 10
2.060801
 20
5.345235
 30
0.0
 10
1.887440
 20
5.288253
 30
0.0
 10
1.719562
 20
5.219896
 30
0.0
 10
1.557621
 20
5.140633
 30
0.0
 10
1.402071
 20
5.050934
 30
0.0
 10
1.399040
 20
5.050934
 30
0.0
 10
1.074098
 20
4.725993
 30
0.0
 10
0.649056
 20
5.150980
 30
0.0
 10
0.449020
 20
4.950944
 30
0.0
 10
0.874007
 20
4.525902
 30
0.0
 10
0.549066
 20
4.200960
 30
0.0
 10
0.549066
 20
4.197929
 30
0.0
 10
0.459367
 20
4.042379
 30
0.0
 10
0.380104
 20
3.880438
 30
0.0
 10
0.311747
 20
3.712560
 30
0.0
 10
0.254765
 20
3.539199
 30
0.0
 10
0.209629
 20
3.360808
 30
0.0
 10
0.176807
 20
3.177840
 30
0.0
 10
0.156769
 20
2.990750
 30
0.0
 10
0.149986
 20
2.799992
 30
0.0
 10
0.163671
 20
2.529093
 30
0.0
 10
0.203837
 20
2.266010
 30
0.0
 10
0.269152
 20
2.012074
 30
0.0
 10
0.358281
 20
1.768621
 30
0.0
 10
0.469891
 20
1.536982
 30
0.0
 10
0.602648
 20
1.318490
 30
0.0
 10
0.755221
 20
1.114480
 30
0.0
 10
0.926274
 20
0.926285
 30
0.0
 10
1.114475
 20
0.755237
 30
0.0
 10
1.318490
 20
0.602669
 30
0.0
 10
1.536985
 20
0.469916
 30
0.0
 10
1.768629
 20
0.358310
 30
0.0
 10
2.012086
 20
0.269185
 30
0.0
 10
2.266024
 20
0.203873
 30
0.0
 10
2.529109
 20
0.163709
 30
0.0
 10
2.800008
 20
0.150024
 30
0.0
 10
2.863563
 20
0.150961
 30
0.0
 10
4.400958
 20
0.150961
 30
0.0
 10
4.303172
 20
0.053176
 30
0.0
 10
1.296789
 20
0.053176
 30
0.0
 10
0.053192
 20
1.296828
 30
0.0
 10
0.053192
 20
4.305085
 30
0.0
 10
0.549066
 20
4.800958
 30
0.0
 10
0.099053
 20
5.250970
 30
0.0
 10
0.349030
 20
5.500947
 30
0.0
 10
0.799042
 20
5.050934
 30
0.0
 10
1.294915
 20
5.546808
 30
0.0
 10
1.294915
 20
5.546808
 30
0.0
  0
LWPOLYLINE
  5
102
100
AcDbEntity
  8
0
 62
7
100
AcDbPolyline
 90
5
 70
0
 10
4.453213
 20
5.546808
 30
0.0
 10
5.546824
 20
5.546808
 30
0.0
 10
5.546824
 20
4.453197
 30
0.0
 10
4.453213
 20
5.546808
 30
0.0
 10
4.453213
 20
5.546808
 30
0.0
  0
LWPOLYLINE
  5
103
100
AcDbEntity
  8
0
 62
7
100
AcDbPolyline
 90
70
 70
0
 10
2.800008
 20
5.400460
 30
0.0
 10
3.065879
 20
5.387043
 30
0.0
 10
3.324060
 20
5.347664
 30
0.0
 10
3.573248
 20
5.283626
 30
0.0
 10
3.812136
 20
5.196234
 30
0.0
 10
4.039421
 20
5.086795
 30
0.0
 10
4.253796
 20
4.956612
 30
0.0
 10
4.453958
 20
4.806990
 30
0.0
 10
4.638601
 20
4.639235
 30
0.0
 10
4.806421
 20
4.454652
 30
0.0
 10
4.956111
 20
4.254544
 30
0.0
 10
5.086368
 20
4.040219
 30
0.0
 10
5.195887
 20
3.812979
 30
0.0
 10
5.283362
 20
3.574131
 30
0.0
 10
5.347488
 20
3.324979
 30
0.0
 10
5.386962
 20
3.066829
 30
0.0
 10
5.400477
 20
2.800984
 30
0.0
 10
5.399043
 20
2.800984
 30
0.0
 10
5.399043
 20
2.718798
 30
0.0
 10
5.396122
 20
2.650943
 30
0.0
 10
5.399043
 20
2.650943
 30
0.0
 10
5.399043
 20
1.149047
 30
0.0
 10
4.450953
 20
0.200957
 30
0.0
 10
2.949057
 20
0.200957
 30
0.0
 10
2.949057
 20
0.203878
 30
0.0
 10
2.881202
 20
0.200957
 30
0.0
 10
2.799016
 20
0.200957
 30
0.0
 10
2.799016
 20
0.199523
 30
0.0
 10
2.533171
 20
0.213038
 30
0.0
 10
2.275021
 20
0.252512
 30
0.0
 10
2.025869
 20
0.316638
 30
0.0
 10
1.787021
 20
0.404113
 30
0.0
 10
1.559781
 20
0.513632
 30
0.0
 10
1.345456
 20
0.643889
 30
0.0
 10
1.145348
 20
0.793579
 30
0.0
 10
0.960765
 20
0.961399
 30
0.0
 10
0.793010
 20
1.146042
 30
0.0
 10
0.643388
 20
1.346204
 30
0.0
 10
0.513205
 20
1.560579
 30
0.0
 10
0.403766
 20
1.787864
 30
0.0
 10
0.316374
 20
2.026752
 30
0.0
 10
0.252336
 20
2.275940
 30
0.0
 10
0.212957
 20
2.534121
 30
0.0
 10
0.199540
 20
2.799992
 30
0.0
 10
0.205454
 20
2.976489
 30
0.0
 10
0.222937
 20
3.149799
 30
0.0
 10
0.251601
 20
3.319552
 30
0.0
 10
0.291058
 20
3.485378
 30
0.0
 10
0.340921
 20
3.646907
 30
0.0
 10
0.400802
 20
3.803770
 30
0.0
 10
0.470313
 20
3.955597
 30
0.0
 10
0.549066
 20
4.102017
 30
0.0
 10
0.549066
 20
4.100970
 30
0.0
 10
0.924057
 20
4.475962
 30
0.0
 10
0.949027
 20
4.450937
 30
0.0
 10
1.049018
 20
4.450937
 30
0.0
 10
1.149063
 20
4.550982
 30
0.0
 10
1.149063
 20
4.650973
 30
0.0
 10
1.124038
 20
4.675943
 30
0.0
 10
1.499030
 20
5.050934
 30
0.0
 10
1.497983
 20
5.050934
 30
0.0
 10
1.644403
 20
5.129687
 30
0.0
 10
1.796230
 20
5.199198
 30
0.0
 10
1.953093
 20
5.259079
 30
0.0
 10
2.114622
 20
5.308942
 30
0.0
 10
2.280448
 20
5.348399
 30
0.0
 10
2.450201
 20
5.377063
 30
0.0
 10
2.623511
 20
5.394546
 30
0.0
 10
2.800008
 20
5.400460
 30
0.0
 10
2.800008
 20
5.400460
 30
0.0
  0
LWPOLYLINE
  5
104
100
AcDbEntity
  8
0
 62
7
100
AcDbPolyline
 90
5
 70
0
 10
0.053192
 20
1.146787
 30
0.0
 10
1.146803
 20
0.053176
 30
0.0
 10
0.053192
 20
0.053176
 30
0.0
 10
0.053192
 20
1.146787
 30
0.0
 10
0.053192
 20
1.146787
 30
0.0
  0
LWPOLYLINE
  5
105
100
AcDbEntity
  8
0
 62
7
100
AcDbPolyline
 90
5
 70
0
 10
5.546824
 20
1.146787
 30
0.0
 10
5.546824
 20
0.053176
 30
0.0
 10
4.453213
 20
0.053176
 30
0.0
 10
5.546824
 20
1.146787
 30
0.0
 10
5.546824
 20
1.146787
 30
0.0
  0
ENDSEC
  0
SECTION
  2
OBJECTS
  0
DICTIONARY
  5
C
330
0
100
AcDbDictionary
  3
ACAD_GROUP
350
D
  3
ACAD_MLINESTYLE
350
17
  0
DICTIONARY
  5
D
330
C
100
AcDbDictionary
  0
DICTIONARY
  5
1A
330
C
100
AcDbDictionary
  0
DICTIONARY
  5
17
330
C
100
AcDbDictionary
  3
STANDARD
350
18
  0
DICTIONARY
  5
19
330
C
100
AcDbDictionary
  0
ENDSEC
  0
EOF
