  0
SECTION
  2
HEADER
  9
$ACADVER
  1
AC1014
  9
$HANDSEED
  5
FFFF
  9
$MEASUREMENT
 70
     1
  0
ENDSEC
  0
SECTION
  2
TABLES
  0
TABLE
  2
VPORT
  5
8
330
0
100
AcDbSymbolTable
 70
     4
  0
VPORT
  5
2E
330
8
100
AcDbSymbolTableRecord
100
AcDbViewportTableRecord
  2
*ACTIVE
 70
     0
 10
0.0
 20
0.0
 11
1.0
 21
1.0
 12
210.0
 22
148.5
 13
0.0
 23
0.0
 14
10.0
 24
10.0
 15
10.0
 25
10.0
 16
0.0
 26
0.0
 36
1.0
 17
0.0
 27
0.0
 37
0.0
 40
341.0
 41
1.24
 42
50.0
 43
0.0
 44
0.0
 50
0.0
 51
0.0
 71
     0
 72
   100
 73
     1
 74
     3
 75
     0
 76
     0
 77
     0
 78
     0
  0
ENDTAB
  0
TABLE
  2
LTYPE
  5
5
330
0
100
AcDbSymbolTable
 70
     1
  0
LTYPE
  5
14
330
5
100
AcDbSymbolTableRecord
100
AcDbLinetypeTableRecord
  2
BYBLOCK
 70
     0
  3

 72
    65
 73
     0
 40
0.0
  0
LTYPE
  5
15
330
5
100
AcDbSymbolTableRecord
100
AcDbLinetypeTableRecord
  2
BYLAYER
 70
     0
  3

 72
    65
 73
     0
 40
0.0
  0
LTYPE
  5
16
330
5
100
AcDbSymbolTableRecord
100
AcDbLinetypeTableRecord
  2
CONTINUOUS
 70
     0
  3
Solid line
 72
    65
 73
     0
 40
0.0
  0
ENDTAB
  0
TABLE
  2
LAYER
  5
2
100
AcDbSymbolTable
 70
2
  0
LAYER
  5
50
100
AcDbSymbolTableRecord
100
AcDbLayerTableRecord
  2
0
 70
0
  6
CONTINUOUS
  0
LAYER
  5
51
100
AcDbSymbolTableRecord
100
AcDbLayerTableRecord
  2
Layer_1
 70
0
  6
CONTINUOUS
  0
ENDTAB
  0
TABLE
  2
STYLE
  5
3
330
0
100
AcDbSymbolTable
 70
     1
  0
STYLE
  5
11
330
3
100
AcDbSymbolTableRecord
100
AcDbTextStyleTableRecord
  2
STANDARD
 70
     0
 40
0.0
 41
1.0
 50
0.0
 71
     0
 42
2.5
  3
txt
  4

  0
ENDTAB
  0
TABLE
  2
VIEW
  5
6
330
0
100
AcDbSymbolTable
 70
     0
  0
ENDTAB
  0
TABLE
  2
UCS
  5
7
330
0
100
AcDbSymbolTable
 70
     0
  0
ENDTAB
  0
TABLE
  2
APPID
  5
9
330
0
100
AcDbSymbolTable
 70
     2
  0
APPID
  5
12
330
9
100
AcDbSymbolTableRecord
100
AcDbRegAppTableRecord
  2
ACAD
 70
     0
  0
ENDTAB
  0
TABLE
  2
DIMSTYLE
  5
A
330
0
100
AcDbSymbolTable
 70
     1
  0
DIMSTYLE
105
27
330
A
100
AcDbSymbolTableRecord
100
AcDbDimStyleTableRecord
  2
ISO-25
 70
     0
  3

  4

  5

  6

  7

 40
1.0
 41
2.5
 42
0.625
 43
3.75
 44
1.25
 45
0.0
 46
0.0
 47
0.0
 48
0.0
140
2.5
141
2.5
142
0.0
143
0.03937007874016
144
1.0
145
0.0
146
1.0
147
0.625
 71
     0
 72
     0
 73
     0
 74
     0
 75
     0
 76
     0
 77
     1
 78
     8
170
     0
171
     3
172
     1
173
     0
174
     0
175
     0
176
     0
177
     0
178
     0
270
     2
271
     2
272
     2
273
     2
274
     3
340
11
275
     0
280
     0
281
     0
282
     0
283
     0
284
     8
285
     0
286
     0
287
     3
288
     0
  0
ENDTAB
  0
TABLE
  2
BLOCK_RECORD
  5
1
330
0
100
AcDbSymbolTable
 70
     1
  0
BLOCK_RECORD
  5
1F
330
1
100
AcDbSymbolTableRecord
100
AcDbBlockTableRecord
  2
*MODEL_SPACE
  0
BLOCK_RECORD
  5
1B
330
1
100
AcDbSymbolTableRecord
100
AcDbBlockTableRecord
  2
*PAPER_SPACE
  0
ENDTAB
  0
ENDSEC
  0
SECTION
  2
BLOCKS
  0
BLOCK
  5
20
330
1F
100
AcDbEntity
  8
0
100
AcDbBlockBegin
  2
*MODEL_SPACE
 70
     0
 10
0.0
 20
0.0
 30
0.0
  3
*MODEL_SPACE
  1

  0
ENDBLK
  5
21
330
1F
100
AcDbEntity
  8
0
100
AcDbBlockEnd
  0
BLOCK
  5
1C
330
1B
100
AcDbEntity
 67
     1
  8
0
100
AcDbBlockBegin
  2
*PAPER_SPACE
  1

  0
ENDBLK
  5
1D
330
1B
100
AcDbEntity
 67
     1
  8
0
100
AcDbBlockEnd
  0
ENDSEC
  0
SECTION
  2
ENTITIES
  0
LWPOLYLINE
  5
100
100
AcDbEntity
  8
Layer_1
 62
7
100
AcDbPolyline
 90
36
 70
1
 10
-0.034270
 20
1.756989
 30
0.0
 10
-0.193517
 20
0.972939
 30
0.0
 10
-0.640664
 20
1.636328
 30
0.0
 10
-0.704051
 20
1.610090
 30
0.0
 10
-0.551146
 20
0.824772
 30
0.0
 10
-1.218116
 20
1.266628
 30
0.0
 10
-1.266622
 20
1.218120
 30
0.0
 10
-0.824713
 20
0.551096
 30
0.0
 10
-1.610086
 20
0.704057
 30
0.0
 10
-1.636378
 20
0.640667
 30
0.0
 10
-0.644576
 20
-0.029004
 30
0.0
 10
-0.605440
 20
0.028985
 30
0.0
 10
-1.454644
 20
0.602412
 30
0.0
 10
-0.674178
 20
0.450444
 30
0.0
 10
-1.113110
 20
1.113113
 30
0.0
 10
-0.450438
 20
0.674181
 30
0.0
 10
-0.602409
 20
1.454371
 30
0.0
 10
-0.158183
 20
0.795229
 30
0.0
 10
0.000014
 20
1.574205
 30
0.0
 10
0.158157
 20
0.795229
 30
0.0
 10
0.602384
 20
1.454317
 30
0.0
 10
0.450469
 20
0.674181
 30
0.0
 10
1.113084
 20
1.113060
 30
0.0
 10
0.672442
 20
0.447907
 30
0.0
 10
1.882580
 20
0.715854
 30
0.0
 10
1.867422
 20
0.784149
 30
0.0
 10
0.826508
 20
0.553687
 30
0.0
 10
1.266596
 20
1.218120
 30
0.0
 10
1.218091
 20
1.266628
 30
0.0
 10
0.551121
 20
0.824772
 30
0.0
 10
0.704026
 20
1.610090
 30
0.0
 10
0.640692
 20
1.636328
 30
0.0
 10
0.193492
 20
0.972885
 30
0.0
 10
0.034301
 20
1.756989
 30
0.0
 10
-0.034270
 20
1.756989
 30
0.0
 10
-0.034270
 20
1.756989
 30
0.0
  0
LWPOLYLINE
  5
101
100
AcDbEntity
  8
Layer_1
 62
7
100
AcDbPolyline
 90
36
 70
1
 10
0.644607
 20
0.028985
 30
0.0
 10
0.605415
 20
-0.029004
 30
0.0
 10
1.454782
 20
-0.602488
 30
0.0
 10
0.674150
 20
-0.450463
 30
0.0
 10
1.113084
 20
-1.113078
 30
0.0
 10
0.450469
 20
-0.674147
 30
0.0
 10
0.602384
 20
-1.454282
 30
0.0
 10
0.158157
 20
-0.795248
 30
0.0
 10
0.000014
 20
-1.574170
 30
0.0
 10
-0.158183
 20
-0.795248
 30
0.0
 10
-0.602409
 20
-1.454336
 30
0.0
 10
-0.450438
 20
-0.674147
 30
0.0
 10
-1.113110
 20
-1.113078
 30
0.0
 10
-0.672468
 20
-0.447872
 30
0.0
 10
-1.882552
 20
-0.715820
 30
0.0
 10
-1.867448
 20
-0.784168
 30
0.0
 10
-0.826476
 20
-0.553705
 30
0.0
 10
-1.266622
 20
-1.218085
 30
0.0
 10
-1.218116
 20
-1.266593
 30
0.0
 10
-0.551146
 20
-0.824794
 30
0.0
 10
-0.704051
 20
-1.610111
 30
0.0
 10
-0.640664
 20
-1.636347
 30
0.0
 10
-0.193517
 20
-0.972904
 30
0.0
 10
-0.034270
 20
-1.756954
 30
0.0
 10
0.034301
 20
-1.756954
 30
0.0
 10
0.193545
 20
-0.972851
 30
0.0
 10
0.640692
 20
-1.636347
 30
0.0
 10
0.704026
 20
-1.610111
 30
0.0
 10
0.551121
 20
-0.824794
 30
0.0
 10
1.218091
 20
-1.266593
 30
0.0
 10
1.266596
 20
-1.218085
 30
0.0
 10
0.824797
 20
-0.551115
 30
0.0
 10
1.610114
 20
-0.704023
 30
0.0
 10
1.636353
 20
-0.640686
 30
0.0
 10
0.644607
 20
0.028985
 30
0.0
 10
0.644607
 20
0.028985
 30
0.0
  0
ENDSEC
  0
SECTION
  2
OBJECTS
  0
DICTIONARY
  5
C
330
0
100
AcDbDictionary
  3
ACAD_GROUP
350
D
  3
ACAD_MLINESTYLE
350
17
  0
DICTIONARY
  5
D
330
C
100
AcDbDictionary
  0
DICTIONARY
  5
1A
330
C
100
AcDbDictionary
  0
DICTIONARY
  5
17
330
C
100
AcDbDictionary
  3
STANDARD
350
18
  0
DICTIONARY
  5
19
330
C
100
AcDbDictionary
  0
ENDSEC
  0
EOF
