  0
SECTION
  2
HEADER
  9
$ACADVER
  1
AC1014
  9
$HANDSEED
  5
FFFF
  9
$MEASUREMENT
 70
     1
  0
ENDSEC
  0
SECTION
  2
TABLES
  0
TABLE
  2
VPORT
  5
8
330
0
100
AcDbSymbolTable
 70
     4
  0
VPORT
  5
2E
330
8
100
AcDbSymbolTableRecord
100
AcDbViewportTableRecord
  2
*ACTIVE
 70
     0
 10
0.0
 20
0.0
 11
1.0
 21
1.0
 12
210.0
 22
148.5
 13
0.0
 23
0.0
 14
10.0
 24
10.0
 15
10.0
 25
10.0
 16
0.0
 26
0.0
 36
1.0
 17
0.0
 27
0.0
 37
0.0
 40
341.0
 41
1.24
 42
50.0
 43
0.0
 44
0.0
 50
0.0
 51
0.0
 71
     0
 72
   100
 73
     1
 74
     3
 75
     0
 76
     0
 77
     0
 78
     0
  0
ENDTAB
  0
TABLE
  2
LTYPE
  5
5
330
0
100
AcDbSymbolTable
 70
     1
  0
LTYPE
  5
14
330
5
100
AcDbSymbolTableRecord
100
AcDbLinetypeTableRecord
  2
BYBLOCK
 70
     0
  3

 72
    65
 73
     0
 40
0.0
  0
LTYPE
  5
15
330
5
100
AcDbSymbolTableRecord
100
AcDbLinetypeTableRecord
  2
BYLAYER
 70
     0
  3

 72
    65
 73
     0
 40
0.0
  0
LTYPE
  5
16
330
5
100
AcDbSymbolTableRecord
100
AcDbLinetypeTableRecord
  2
CONTINUOUS
 70
     0
  3
Solid line
 72
    65
 73
     0
 40
0.0
  0
ENDTAB
  0
TABLE
  2
LAYER
  5
2
100
AcDbSymbolTable
 70
2
  0
LAYER
  5
50
100
AcDbSymbolTableRecord
100
AcDbLayerTableRecord
  2
0
 70
0
  6
CONTINUOUS
  0
LAYER
  5
51
100
AcDbSymbolTableRecord
100
AcDbLayerTableRecord
  2
Layer_1
 70
0
  6
CONTINUOUS
  0
ENDTAB
  0
TABLE
  2
STYLE
  5
3
330
0
100
AcDbSymbolTable
 70
     1
  0
STYLE
  5
11
330
3
100
AcDbSymbolTableRecord
100
AcDbTextStyleTableRecord
  2
STANDARD
 70
     0
 40
0.0
 41
1.0
 50
0.0
 71
     0
 42
2.5
  3
txt
  4

  0
ENDTAB
  0
TABLE
  2
VIEW
  5
6
330
0
100
AcDbSymbolTable
 70
     0
  0
ENDTAB
  0
TABLE
  2
UCS
  5
7
330
0
100
AcDbSymbolTable
 70
     0
  0
ENDTAB
  0
TABLE
  2
APPID
  5
9
330
0
100
AcDbSymbolTable
 70
     2
  0
APPID
  5
12
330
9
100
AcDbSymbolTableRecord
100
AcDbRegAppTableRecord
  2
ACAD
 70
     0
  0
ENDTAB
  0
TABLE
  2
DIMSTYLE
  5
A
330
0
100
AcDbSymbolTable
 70
     1
  0
DIMSTYLE
105
27
330
A
100
AcDbSymbolTableRecord
100
AcDbDimStyleTableRecord
  2
ISO-25
 70
     0
  3

  4

  5

  6

  7

 40
1.0
 41
2.5
 42
0.625
 43
3.75
 44
1.25
 45
0.0
 46
0.0
 47
0.0
 48
0.0
140
2.5
141
2.5
142
0.0
143
0.03937007874016
144
1.0
145
0.0
146
1.0
147
0.625
 71
     0
 72
     0
 73
     0
 74
     0
 75
     0
 76
     0
 77
     1
 78
     8
170
     0
171
     3
172
     1
173
     0
174
     0
175
     0
176
     0
177
     0
178
     0
270
     2
271
     2
272
     2
273
     2
274
     3
340
11
275
     0
280
     0
281
     0
282
     0
283
     0
284
     8
285
     0
286
     0
287
     3
288
     0
  0
ENDTAB
  0
TABLE
  2
BLOCK_RECORD
  5
1
330
0
100
AcDbSymbolTable
 70
     1
  0
BLOCK_RECORD
  5
1F
330
1
100
AcDbSymbolTableRecord
100
AcDbBlockTableRecord
  2
*MODEL_SPACE
  0
BLOCK_RECORD
  5
1B
330
1
100
AcDbSymbolTableRecord
100
AcDbBlockTableRecord
  2
*PAPER_SPACE
  0
ENDTAB
  0
ENDSEC
  0
SECTION
  2
BLOCKS
  0
BLOCK
  5
20
330
1F
100
AcDbEntity
  8
0
100
AcDbBlockBegin
  2
*MODEL_SPACE
 70
     0
 10
0.0
 20
0.0
 30
0.0
  3
*MODEL_SPACE
  1

  0
ENDBLK
  5
21
330
1F
100
AcDbEntity
  8
0
100
AcDbBlockEnd
  0
BLOCK
  5
1C
330
1B
100
AcDbEntity
 67
     1
  8
0
100
AcDbBlockBegin
  2
*PAPER_SPACE
  1

  0
ENDBLK
  5
1D
330
1B
100
AcDbEntity
 67
     1
  8
0
100
AcDbBlockEnd
  0
ENDSEC
  0
SECTION
  2
ENTITIES
  0
LWPOLYLINE
  5
100
100
AcDbEntity
  8
Layer_1
 62
7
100
AcDbPolyline
 90
30
 70
0
 10
-1.925009
 20
0.749997
 30
0.0
 10
-1.975004
 20
0.650006
 30
0.0
 10
-1.899984
 20
0.574986
 30
0.0
 10
-1.949979
 20
0.474995
 30
0.0
 10
-2.167048
 20
0.474995
 30
0.0
 10
-2.195931
 20
0.395676
 30
0.0
 10
-2.252210
 20
0.175465
 30
0.0
 10
-2.286606
 20
-0.050258
 30
0.0
 10
-2.298402
 20
-0.280004
 30
0.0
 10
-2.288095
 20
-0.472378
 30
0.0
 10
-2.261747
 20
-0.663209
 30
0.0
 10
-0.574973
 20
-2.349983
 30
0.0
 10
-0.324997
 20
-2.349983
 30
0.0
 10
-0.283710
 20
-2.349983
 30
0.0
 10
-0.132512
 20
-2.074981
 30
0.0
 10
-0.425042
 20
-2.074981
 30
0.0
 10
-0.550003
 20
-1.950021
 30
0.0
 10
-0.550003
 20
-0.250018
 30
0.0
 10
-0.574973
 20
-0.250018
 30
0.0
 10
-1.966901
 20
-0.250018
 30
0.0
 10
-1.954499
 20
-0.056817
 30
0.0
 10
-1.923521
 20
0.132856
 30
0.0
 10
-1.874408
 20
0.317734
 30
0.0
 10
-1.807766
 20
0.496603
 30
0.0
 10
-1.724146
 20
0.668196
 30
0.0
 10
-1.719957
 20
0.674976
 30
0.0
 10
-1.724973
 20
0.674976
 30
0.0
 10
-1.799993
 20
0.749997
 30
0.0
 10
-1.925009
 20
0.749997
 30
0.0
 10
-1.925009
 20
0.749997
 30
0.0
  0
LWPOLYLINE
  5
101
100
AcDbEntity
  8
Layer_1
 62
7
100
AcDbPolyline
 90
44
 70
0
 10
1.799993
 20
0.749997
 30
0.0
 10
1.724973
 20
0.674976
 30
0.0
 10
1.718689
 20
0.674976
 30
0.0
 10
1.723264
 20
0.667535
 30
0.0
 10
1.807049
 20
0.496162
 30
0.0
 10
1.873856
 20
0.317403
 30
0.0
 10
1.923135
 20
0.132636
 30
0.0
 10
1.954334
 20
-0.056927
 30
0.0
 10
1.966901
 20
-0.250018
 30
0.0
 10
0.575028
 20
-0.250018
 30
0.0
 10
0.575028
 20
-0.924981
 30
0.0
 10
1.700003
 20
-0.924981
 30
0.0
 10
1.700003
 20
-1.264199
 30
0.0
 10
1.570412
 20
-1.460542
 30
0.0
 10
1.418828
 20
-1.639466
 30
0.0
 10
1.247125
 20
-1.799043
 30
0.0
 10
1.056900
 20
-1.937563
 30
0.0
 10
1.215650
 20
-2.226125
 30
0.0
 10
1.338571
 20
-2.143938
 30
0.0
 10
1.455098
 20
-2.054752
 30
0.0
 10
1.565010
 20
-1.958840
 30
0.0
 10
1.668143
 20
-1.856700
 30
0.0
 10
1.764275
 20
-1.748662
 30
0.0
 10
1.853186
 20
-1.635112
 30
0.0
 10
1.934655
 20
-1.516435
 30
0.0
 10
2.008463
 20
-1.392963
 30
0.0
 10
2.074444
 20
-1.265136
 30
0.0
 10
2.132321
 20
-1.133340
 30
0.0
 10
2.181986
 20
-0.997907
 30
0.0
 10
2.223106
 20
-0.859276
 30
0.0
 10
2.255518
 20
-0.717779
 30
0.0
 10
2.279000
 20
-0.573802
 30
0.0
 10
2.293386
 20
-0.427785
 30
0.0
 10
2.298402
 20
-0.280004
 30
0.0
 10
2.286827
 20
-0.050147
 30
0.0
 10
2.252596
 20
0.175686
 30
0.0
 10
2.196483
 20
0.395951
 30
0.0
 10
2.167764
 20
0.474995
 30
0.0
 10
1.949979
 20
0.474995
 30
0.0
 10
1.899984
 20
0.574986
 30
0.0
 10
1.975004
 20
0.650006
 30
0.0
 10
1.925009
 20
0.749997
 30
0.0
 10
1.799993
 20
0.749997
 30
0.0
 10
1.799993
 20
0.749997
 30
0.0
  0
ENDSEC
  0
SECTION
  2
OBJECTS
  0
DICTIONARY
  5
C
330
0
100
AcDbDictionary
  3
ACAD_GROUP
350
D
  3
ACAD_MLINESTYLE
350
17
  0
DICTIONARY
  5
D
330
C
100
AcDbDictionary
  0
DICTIONARY
  5
1A
330
C
100
AcDbDictionary
  0
DICTIONARY
  5
17
330
C
100
AcDbDictionary
  3
STANDARD
350
18
  0
DICTIONARY
  5
19
330
C
100
AcDbDictionary
  0
ENDSEC
  0
EOF
