<?xml version="1.0" encoding="UTF-8" standalone="no"?>
<!-- Created with Inkscape (http://www.inkscape.org/) -->

<svg
   xmlns:dc="http://purl.org/dc/elements/1.1/"
   xmlns:cc="http://creativecommons.org/ns#"
   xmlns:rdf="http://www.w3.org/1999/02/22-rdf-syntax-ns#"
   xmlns:svg="http://www.w3.org/2000/svg"
   xmlns="http://www.w3.org/2000/svg"
   xmlns:sodipodi="http://sodipodi.sourceforge.net/DTD/sodipodi-0.dtd"
   xmlns:inkscape="http://www.inkscape.org/namespaces/inkscape"
   width="22.999998mm"
   height="24.499998mm"
   viewBox="0 0 81.496058 86.81102"
   id="svg2"
   version="1.1"
   inkscape:version="0.91 r13725"
   sodipodi:docname="spring-ball-cut.svg">
  <sodipodi:namedview
     id="base"
     pagecolor="#ffffff"
     bordercolor="#666666"
     borderopacity="1.0"
     inkscape:pageopacity="0.0"
     inkscape:pageshadow="2"
     inkscape:zoom="11.313708"
     inkscape:cx="-3.9873905"
     inkscape:cy="1.422543"
     inkscape:document-units="px"
     inkscape:current-layer="layer1"
     showgrid="true"
     inkscape:snap-grids="true"
     inkscape:window-width="1920"
     inkscape:window-height="1029"
     inkscape:window-x="1600"
     inkscape:window-y="25"
     inkscape:window-maximized="1"
     inkscape:snap-bbox="true"
     inkscape:bbox-paths="true"
     inkscape:bbox-nodes="true"
     inkscape:snap-bbox-edge-midpoints="true"
     inkscape:snap-bbox-midpoints="true"
     inkscape:snap-global="true"
     inkscape:object-paths="true"
     inkscape:object-nodes="true"
     inkscape:snap-smooth-nodes="true"
     inkscape:snap-intersection-paths="true"
     showguides="true"
     inkscape:snap-center="true"
     fit-margin-top="0"
     fit-margin-left="0"
     fit-margin-right="0"
     fit-margin-bottom="0">
    <inkscape:grid
       spacingy="0.44291339"
       spacingx="0.4429134"
       empopacity="0.25098039"
       empcolor="#2828ff"
       opacity="0.25098039"
       color="#5b5bff"
       originy="-2365.1575"
       originx="2090.5513"
       id="grid4136"
       type="xygrid" />
  </sodipodi:namedview>
  <defs
     id="defs4" />
  <metadata
     id="metadata7">
    <rdf:RDF>
      <cc:Work
         rdf:about="">
        <dc:format>image/svg+xml</dc:format>
        <dc:type
           rdf:resource="http://purl.org/dc/dcmitype/StillImage" />
        <dc:title></dc:title>
      </cc:Work>
    </rdf:RDF>
  </metadata>
  <g
     transform="translate(2090.5513,1399.6063)"
     id="layer1"
     inkscape:groupmode="layer"
     inkscape:label="Layer 1">
    <path
       inkscape:connector-curvature="0"
       id="path4171-5-3-6-2-9-1"
       d="M-2069.1309 -1320.1797L-2069.1309 -1318.6992L-2068.3906 -1318.6992L-2055.1191 -1318.6992L-2054.3789 -1318.6992L-2054.3789 -1320.1797L-2055.1191 -1320.1797L-2068.3906 -1320.1797L-2069.1309 -1320.1797L-2069.1309 -1320.1797M-2061.1719 -1317.5215L-2061.1719 -1316.041L-2060.4336 -1316.041L-2047.1602 -1316.041L-2046.4219 -1316.041L-2046.4219 -1317.5215L-2047.1602 -1317.5215L-2060.4336 -1317.5215L-2061.1719 -1317.5215L-2061.1719 -1317.5215M-2068.6875 -1314.8633L-2068.6875 -1313.3848L-2067.9473 -1313.3848L-2054.6758 -1313.3848L-2053.9355 -1313.3848L-2053.9355 -1314.8633L-2054.6758 -1314.8633L-2067.9473 -1314.8633L-2068.6875 -1314.8633L-2068.6875 -1314.8633M-2060.7305 -1312.207L-2060.7305 -1310.7266L-2059.9902 -1310.7266L-2046.7188 -1310.7266L-2045.9785 -1310.7266L-2045.9785 -1312.207L-2046.7188 -1312.207L-2059.9902 -1312.207L-2060.7305 -1312.207L-2060.7305 -1312.207M-2068.6875 -1309.5488L-2068.6875 -1308.0703L-2067.9473 -1308.0703L-2054.6758 -1308.0703L-2053.9355 -1308.0703L-2053.9355 -1309.5488L-2054.6758 -1309.5488L-2067.9473 -1309.5488L-2068.6875 -1309.5488L-2068.6875 -1309.5488M-2061.6152 -1306.8906L-2061.6152 -1305.4121L-2060.877 -1305.4121L-2047.6035 -1305.4121L-2046.8633 -1305.4121L-2046.8633 -1306.8906L-2047.6035 -1306.8906L-2060.877 -1306.8906L-2061.6152 -1306.8906L-2061.6152 -1306.8906"
       style="color:#000000;font-style:normal;font-variant:normal;font-weight:normal;font-stretch:normal;font-size:medium;line-height:normal;font-family:sans-serif;text-indent:0;text-align:start;text-decoration:none;text-decoration-line:none;text-decoration-style:solid;text-decoration-color:#000000;letter-spacing:normal;word-spacing:normal;text-transform:none;direction:ltr;block-progression:tb;writing-mode:lr-tb;baseline-shift:baseline;text-anchor:start;white-space:normal;clip-rule:nonzero;display:inline;overflow:visible;visibility:visible;opacity:1;isolation:auto;mix-blend-mode:normal;color-interpolation:sRGB;color-interpolation-filters:linearRGB;solid-color:#000000;solid-opacity:1;fill:#000000;fill-opacity:1;fill-rule:evenodd;stroke:none;stroke-width:1.47948873;stroke-linecap:square;stroke-linejoin:miter;stroke-miterlimit:4;stroke-dasharray:none;stroke-dashoffset:0;stroke-opacity:1;color-rendering:auto;image-rendering:auto;shape-rendering:auto;text-rendering:auto;enable-background:accumulate" />
    <path
       style="color:#000000;clip-rule:nonzero;display:inline;overflow:visible;visibility:visible;opacity:1;isolation:auto;mix-blend-mode:normal;color-interpolation:sRGB;color-interpolation-filters:linearRGB;solid-color:#000000;solid-opacity:1;fill:#000000;fill-opacity:1;fill-rule:evenodd;stroke:none;stroke-width:1.41732287;stroke-linecap:square;stroke-linejoin:miter;stroke-miterlimit:4;stroke-dasharray:none;stroke-dashoffset:0;stroke-opacity:1;color-rendering:auto;image-rendering:auto;shape-rendering:auto;text-rendering:auto;enable-background:accumulate"
       d="m -2123.3267,-1328.2977 0,1.4922 -1.7187,0 0,1.4433 1.7187,0 0,2.9746 -3.0586,0 0,1.4649 3.0586,0 0,2.9648 -3.9434,0 0,1.4649 3.9434,0 0,2.9648 -4.3867,0 0,1.4649 4.3867,0 0,2.9648 -3.9434,0 0,1.4629 3.9434,0 0,2.9648 -3.0586,0 0,1.4649 3.0586,0 0,2.9648 -1.7285,0 0,1.4649 1.7285,0 0,1.4824 3.0996,0 0,-31.0039 z m -11.3242,3.707 0,1.4434 10.2734,0 0,-1.4434 z m -0.2695,4.418 0,1.4648 10.5429,0 0,-1.4648 z m 0,4.4297 0,1.4648 10.5429,0 0,-1.4648 z m 0,4.4297 0,1.4648 10.5429,0 0,-1.4648 z m 0,4.4297 0,1.4628 10.5429,0 0,-1.4628 z m 0,4.4277 0,1.4648 10.5429,0 0,-1.4648 z m 0,4.4297 0,1.4648 10.5429,0 0,-1.4648 z"
       id="rect4446"
       inkscape:connector-curvature="0"
       sodipodi:nodetypes="cccccccccccccccccccccccccccccccccccccccccccccccccccccccccccccccccccc" />
  </g>
</svg>
