solid OpenSCAD_Model
  facet normal 1 -0 0
    outer loop
      vertex -6.385 -16 11.5
      vertex -6.385 -15.3593 10.5
      vertex -6.385 -15.3593 11.5
    endloop
  endfacet
  facet normal 1 0 0
    outer loop
      vertex -6.385 -16 10
      vertex -6.385 -15.3593 10.5
      vertex -6.385 -16 11.5
    endloop
  endfacet
  facet normal 1 0 0
    outer loop
      vertex -6.385 -15.3593 10.5
      vertex -6.385 -16 10
      vertex -6.385 -15.3593 10
    endloop
  endfacet
  facet normal 1 0 0
    outer loop
      vertex -6.385 12.085 13
      vertex -6.385 -11.115 13
      vertex -6.385 12.085 11.5
    endloop
  endfacet
  facet normal 1 -0 0
    outer loop
      vertex -6.385 12.085 11.5
      vertex -6.385 16.97 10
      vertex -6.385 16.97 11.5
    endloop
  endfacet
  facet normal 1 0 0
    outer loop
      vertex -6.385 -11.115 11.5
      vertex -6.385 12.085 11.5
      vertex -6.385 -11.115 13
    endloop
  endfacet
  facet normal 1 0 0
    outer loop
      vertex -6.385 -13.1259 10
      vertex -6.385 12.085 11.5
      vertex -6.385 -11.115 11.5
    endloop
  endfacet
  facet normal 1 0 0
    outer loop
      vertex -6.385 -13.1259 10.5
      vertex -6.385 -11.115 11.5
      vertex -6.385 -13.1259 11.5
    endloop
  endfacet
  facet normal 1 0 0
    outer loop
      vertex -6.385 -13.1259 10
      vertex -6.385 -11.115 11.5
      vertex -6.385 -13.1259 10.5
    endloop
  endfacet
  facet normal 1 0 0
    outer loop
      vertex -6.385 12.085 11.5
      vertex -6.385 -13.1259 10
      vertex -6.385 16.97 10
    endloop
  endfacet
  facet normal 1 -0 0
    outer loop
      vertex -6.385 -15.3593 10.5
      vertex -6.385 -13.1259 10
      vertex -6.385 -13.1259 10.5
    endloop
  endfacet
  facet normal 1 0 0
    outer loop
      vertex -6.385 -13.1259 10
      vertex -6.385 -15.3593 10.5
      vertex -6.385 -15.3593 10
    endloop
  endfacet
  facet normal -1 0 0
    outer loop
      vertex 6.385 -16 10
      vertex 6.385 -15.3593 10.5
      vertex 6.385 -15.3593 10
    endloop
  endfacet
  facet normal -1 0 0
    outer loop
      vertex 6.385 -16 11.5
      vertex 6.385 -15.3593 10.5
      vertex 6.385 -16 10
    endloop
  endfacet
  facet normal -1 0 0
    outer loop
      vertex 6.385 -15.3593 10.5
      vertex 6.385 -16 11.5
      vertex 6.385 -15.3593 11.5
    endloop
  endfacet
  facet normal -1 0 0
    outer loop
      vertex 6.385 16.97 10
      vertex 6.385 12.085 11.5
      vertex 6.385 16.97 11.5
    endloop
  endfacet
  facet normal -1 0 0
    outer loop
      vertex 6.385 12.085 11.5
      vertex 6.385 -11.115 11.5
      vertex 6.385 12.085 13
    endloop
  endfacet
  facet normal -1 0 0
    outer loop
      vertex 6.385 -13.1259 10
      vertex 6.385 12.085 11.5
      vertex 6.385 16.97 10
    endloop
  endfacet
  facet normal -1 -0 0
    outer loop
      vertex 6.385 12.085 11.5
      vertex 6.385 -13.1259 10
      vertex 6.385 -11.115 11.5
    endloop
  endfacet
  facet normal -1 0 0
    outer loop
      vertex 6.385 -13.1259 10.5
      vertex 6.385 -11.115 11.5
      vertex 6.385 -13.1259 10
    endloop
  endfacet
  facet normal -1 -0 0
    outer loop
      vertex 6.385 -11.115 11.5
      vertex 6.385 -13.1259 10.5
      vertex 6.385 -13.1259 11.5
    endloop
  endfacet
  facet normal -1 -0 0
    outer loop
      vertex 6.385 12.085 13
      vertex 6.385 -11.115 11.5
      vertex 6.385 -11.115 13
    endloop
  endfacet
  facet normal -1 0 0
    outer loop
      vertex 6.385 -15.3593 10
      vertex 6.385 -13.1259 10.5
      vertex 6.385 -13.1259 10
    endloop
  endfacet
  facet normal -1 -0 0
    outer loop
      vertex 6.385 -13.1259 10.5
      vertex 6.385 -15.3593 10
      vertex 6.385 -15.3593 10.5
    endloop
  endfacet
  facet normal 0 -1 0
    outer loop
      vertex -6.385 16.97 10
      vertex 6.385 16.97 11.5
      vertex -6.385 16.97 11.5
    endloop
  endfacet
  facet normal 0 -1 -0
    outer loop
      vertex 6.385 16.97 11.5
      vertex -6.385 16.97 10
      vertex 6.385 16.97 10
    endloop
  endfacet
  facet normal 0 1 -0
    outer loop
      vertex -3.94577 -16 10.5
      vertex -6.385 -16 11.5
      vertex -3.94577 -16 11.5
    endloop
  endfacet
  facet normal 0 1 0
    outer loop
      vertex -6.385 -16 10
      vertex -3.94577 -16 10.5
      vertex -3.94577 -16 10
    endloop
  endfacet
  facet normal 0 1 0
    outer loop
      vertex -3.94577 -16 10.5
      vertex -6.385 -16 10
      vertex -6.385 -16 11.5
    endloop
  endfacet
  facet normal 0 1 0
    outer loop
      vertex 6.385 -16 11.5
      vertex 3.94577 -16 10.5
      vertex 3.94577 -16 11.5
    endloop
  endfacet
  facet normal 0 1 -0
    outer loop
      vertex 6.385 -16 10
      vertex 3.94577 -16 10.5
      vertex 6.385 -16 11.5
    endloop
  endfacet
  facet normal 0 1 0
    outer loop
      vertex 3.94577 -16 10.5
      vertex 6.385 -16 10
      vertex 3.94577 -16 10
    endloop
  endfacet
  facet normal 0 1 -0
    outer loop
      vertex 0.5 -16 10.5
      vertex -0.5 -16 13
      vertex 0.5 -16 13
    endloop
  endfacet
  facet normal 0 1 0
    outer loop
      vertex 0.5 -16 10.5
      vertex -0.5 -16 10.5
      vertex -0.5 -16 13
    endloop
  endfacet
  facet normal 0 1 -0
    outer loop
      vertex 0.5 -16 10
      vertex -0.5 -16 10.5
      vertex 0.5 -16 10.5
    endloop
  endfacet
  facet normal 0 1 0
    outer loop
      vertex -0.5 -16 10.5
      vertex 0.5 -16 10
      vertex -0.5 -16 10
    endloop
  endfacet
  facet normal 0 1 -0
    outer loop
      vertex -0.5 -16 10
      vertex -3.94577 -16 10.5
      vertex -0.5 -16 10.5
    endloop
  endfacet
  facet normal 0 1 0
    outer loop
      vertex -3.94577 -16 10.5
      vertex -0.5 -16 10
      vertex -3.94577 -16 10
    endloop
  endfacet
  facet normal 0 1 -0
    outer loop
      vertex 3.94577 -16 10
      vertex 0.5 -16 10.5
      vertex 3.94577 -16 10.5
    endloop
  endfacet
  facet normal 0 1 0
    outer loop
      vertex 0.5 -16 10.5
      vertex 3.94577 -16 10
      vertex 0.5 -16 10
    endloop
  endfacet
  facet normal -1 0 0
    outer loop
      vertex -7.5 20 10
      vertex -7.5 19.235 10.5
      vertex -7.5 20 10.5
    endloop
  endfacet
  facet normal -1 0 0
    outer loop
      vertex -7.5 19.235 10.5
      vertex -7.5 -12.6616 10.5
      vertex -7.5 19.235 13
    endloop
  endfacet
  facet normal -1 0 0
    outer loop
      vertex -7.5 20 10
      vertex -7.5 -12.6616 10.5
      vertex -7.5 19.235 10.5
    endloop
  endfacet
  facet normal -1 0 0
    outer loop
      vertex -7.5 -20 10
      vertex -7.5 -12.6616 10.5
      vertex -7.5 20 10
    endloop
  endfacet
  facet normal -1 -0 0
    outer loop
      vertex -7.5 -12.6616 10.5
      vertex -7.5 -20 10
      vertex -7.5 -14.9535 10.5
    endloop
  endfacet
  facet normal -1 0 0
    outer loop
      vertex -7.5 -20 13
      vertex -7.5 -14.9535 10.5
      vertex -7.5 -20 10
    endloop
  endfacet
  facet normal -1 0 0
    outer loop
      vertex -7.5 -14.9535 10.5
      vertex -7.5 -20 13
      vertex -7.5 -14.9535 13
    endloop
  endfacet
  facet normal -1 -0 0
    outer loop
      vertex -7.5 19.235 13
      vertex -7.5 -12.6616 10.5
      vertex -7.5 -12.6616 13
    endloop
  endfacet
  facet normal -0 0 1
    outer loop
      vertex -7.5 20 10.5
      vertex 7.5 19.235 10.5
      vertex 7.5 20 10.5
    endloop
  endfacet
  facet normal 0 0 1
    outer loop
      vertex 7.5 19.235 10.5
      vertex -7.5 20 10.5
      vertex -7.5 19.235 10.5
    endloop
  endfacet
  facet normal 0 0 1
    outer loop
      vertex 3.45283 -19.6656 10.5
      vertex 3.74374 -20 10.5
      vertex 3.67701 -19.9146 10.5
    endloop
  endfacet
  facet normal 0 0 1
    outer loop
      vertex 3.21183 -19.4329 10.5
      vertex 3.74374 -20 10.5
      vertex 3.45283 -19.6656 10.5
    endloop
  endfacet
  facet normal 0 0 1
    outer loop
      vertex 2.95517 -19.2175 10.5
      vertex 3.74374 -20 10.5
      vertex 3.21183 -19.4329 10.5
    endloop
  endfacet
  facet normal 0 0 1
    outer loop
      vertex 2.68413 -19.0206 10.5
      vertex 3.74374 -20 10.5
      vertex 2.95517 -19.2175 10.5
    endloop
  endfacet
  facet normal 0 0 1
    outer loop
      vertex 2.4 -18.8431 10.5
      vertex 3.74374 -20 10.5
      vertex 2.68413 -19.0206 10.5
    endloop
  endfacet
  facet normal 0 0 1
    outer loop
      vertex 2.10418 -18.6858 10.5
      vertex 3.74374 -20 10.5
      vertex 2.4 -18.8431 10.5
    endloop
  endfacet
  facet normal 0 0 1
    outer loop
      vertex 1.79811 -18.5495 10.5
      vertex 3.74374 -20 10.5
      vertex 2.10418 -18.6858 10.5
    endloop
  endfacet
  facet normal 0 0 1
    outer loop
      vertex 1.48328 -18.4349 10.5
      vertex 3.74374 -20 10.5
      vertex 1.79811 -18.5495 10.5
    endloop
  endfacet
  facet normal 0 0 1
    outer loop
      vertex 1.16122 -18.3426 10.5
      vertex 3.74374 -20 10.5
      vertex 1.48328 -18.4349 10.5
    endloop
  endfacet
  facet normal 0 0 1
    outer loop
      vertex 0.833509 -18.2729 10.5
      vertex 3.74374 -20 10.5
      vertex 1.16122 -18.3426 10.5
    endloop
  endfacet
  facet normal 0 0 1
    outer loop
      vertex 0.501736 -18.2263 10.5
      vertex 3.74374 -20 10.5
      vertex 0.833509 -18.2729 10.5
    endloop
  endfacet
  facet normal 0 0 1
    outer loop
      vertex 0.167517 -18.2029 10.5
      vertex 3.74374 -20 10.5
      vertex 0.501736 -18.2263 10.5
    endloop
  endfacet
  facet normal -0 0 1
    outer loop
      vertex -0.167517 -18.2029 10.5
      vertex 3.74374 -20 10.5
      vertex 0.167517 -18.2029 10.5
    endloop
  endfacet
  facet normal -0 0 1
    outer loop
      vertex -0.501736 -18.2263 10.5
      vertex 3.74374 -20 10.5
      vertex -0.167517 -18.2029 10.5
    endloop
  endfacet
  facet normal -0 0 1
    outer loop
      vertex -0.833509 -18.2729 10.5
      vertex 3.74374 -20 10.5
      vertex -0.501736 -18.2263 10.5
    endloop
  endfacet
  facet normal -0 0 1
    outer loop
      vertex -1.16122 -18.3426 10.5
      vertex 3.74374 -20 10.5
      vertex -0.833509 -18.2729 10.5
    endloop
  endfacet
  facet normal -0 0 1
    outer loop
      vertex -1.48328 -18.4349 10.5
      vertex 3.74374 -20 10.5
      vertex -1.16122 -18.3426 10.5
    endloop
  endfacet
  facet normal -0 0 1
    outer loop
      vertex -1.79811 -18.5495 10.5
      vertex 3.74374 -20 10.5
      vertex -1.48328 -18.4349 10.5
    endloop
  endfacet
  facet normal -0 0 1
    outer loop
      vertex -2.10418 -18.6858 10.5
      vertex 3.74374 -20 10.5
      vertex -1.79811 -18.5495 10.5
    endloop
  endfacet
  facet normal -0 0 1
    outer loop
      vertex -2.4 -18.8431 10.5
      vertex 3.74374 -20 10.5
      vertex -2.10418 -18.6858 10.5
    endloop
  endfacet
  facet normal -0 0 1
    outer loop
      vertex -2.68413 -19.0206 10.5
      vertex 3.74374 -20 10.5
      vertex -2.4 -18.8431 10.5
    endloop
  endfacet
  facet normal -0 0 1
    outer loop
      vertex -2.95517 -19.2175 10.5
      vertex 3.74374 -20 10.5
      vertex -2.68413 -19.0206 10.5
    endloop
  endfacet
  facet normal -0 0 1
    outer loop
      vertex -3.21183 -19.4329 10.5
      vertex 3.74374 -20 10.5
      vertex -2.95517 -19.2175 10.5
    endloop
  endfacet
  facet normal -0 0 1
    outer loop
      vertex -3.45283 -19.6656 10.5
      vertex 3.74374 -20 10.5
      vertex -3.21183 -19.4329 10.5
    endloop
  endfacet
  facet normal 0 0 1
    outer loop
      vertex -3.74374 -20 10.5
      vertex -3.45283 -19.6656 10.5
      vertex -3.67701 -19.9146 10.5
    endloop
  endfacet
  facet normal 0 0 1
    outer loop
      vertex -3.45283 -19.6656 10.5
      vertex -3.74374 -20 10.5
      vertex 3.74374 -20 10.5
    endloop
  endfacet
  facet normal 0 0 1
    outer loop
      vertex -7.5 -14.9535 10.5
      vertex -6.385 -13.1259 10.5
      vertex -6.78038 -12.982 10.5
    endloop
  endfacet
  facet normal 0 0 1
    outer loop
      vertex -7.5 -14.9535 10.5
      vertex -6.78038 -12.982 10.5
      vertex -7.5 -12.6616 10.5
    endloop
  endfacet
  facet normal 0 0 1
    outer loop
      vertex -6.385 -13.1259 10.5
      vertex -7.5 -14.9535 10.5
      vertex -6.385 -15.3593 10.5
    endloop
  endfacet
  facet normal 0 0 1
    outer loop
      vertex -0.5 -16 10.5
      vertex -0.704968 -16.3877 10.5
      vertex -0.5 -16.3877 10.5
    endloop
  endfacet
  facet normal 0 0 1
    outer loop
      vertex -0.5 -16 10.5
      vertex -2.11147 -16.2893 10.5
      vertex -0.704968 -16.3877 10.5
    endloop
  endfacet
  facet normal 0 0 1
    outer loop
      vertex -0.5 -16 10.5
      vertex -3.50769 -16.0931 10.5
      vertex -2.11147 -16.2893 10.5
    endloop
  endfacet
  facet normal 0 -0 1
    outer loop
      vertex -3.50769 -16.0931 10.5
      vertex -0.5 -16 10.5
      vertex -3.94577 -16 10.5
    endloop
  endfacet
  facet normal -0 0 1
    outer loop
      vertex 0.5 -16 10.5
      vertex 3.50769 -16.0931 10.5
      vertex 3.94577 -16 10.5
    endloop
  endfacet
  facet normal 0 0 1
    outer loop
      vertex 3.50769 -16.0931 10.5
      vertex 0.5 -16 10.5
      vertex 2.11147 -16.2893 10.5
    endloop
  endfacet
  facet normal 0 0 1
    outer loop
      vertex 2.11147 -16.2893 10.5
      vertex 0.5 -16 10.5
      vertex 0.704968 -16.3877 10.5
    endloop
  endfacet
  facet normal 0 0 1
    outer loop
      vertex 0.704968 -16.3877 10.5
      vertex 0.5 -16 10.5
      vertex 0.5 -16.3877 10.5
    endloop
  endfacet
  facet normal -0 0 1
    outer loop
      vertex 6.78038 -12.982 10.5
      vertex 7.5 -14.9535 10.5
      vertex 7.5 -12.6616 10.5
    endloop
  endfacet
  facet normal -0 0 1
    outer loop
      vertex 6.385 -13.1259 10.5
      vertex 7.5 -14.9535 10.5
      vertex 6.78038 -12.982 10.5
    endloop
  endfacet
  facet normal 0 0 1
    outer loop
      vertex 7.5 -14.9535 10.5
      vertex 6.385 -13.1259 10.5
      vertex 6.385 -15.3593 10.5
    endloop
  endfacet
  facet normal 1 0 0
    outer loop
      vertex 7.5 -14.9535 13
      vertex 7.5 -20 13
      vertex 7.5 -14.9535 10.5
    endloop
  endfacet
  facet normal 1 0 0
    outer loop
      vertex 7.5 19.235 13
      vertex 7.5 -12.6616 13
      vertex 7.5 19.235 10.5
    endloop
  endfacet
  facet normal 1 -0 0
    outer loop
      vertex 7.5 19.235 10.5
      vertex 7.5 20 10
      vertex 7.5 20 10.5
    endloop
  endfacet
  facet normal 1 0 0
    outer loop
      vertex 7.5 -12.6616 10.5
      vertex 7.5 19.235 10.5
      vertex 7.5 -12.6616 13
    endloop
  endfacet
  facet normal 1 0 0
    outer loop
      vertex 7.5 19.235 10.5
      vertex 7.5 -12.6616 10.5
      vertex 7.5 20 10
    endloop
  endfacet
  facet normal 1 0 0
    outer loop
      vertex 7.5 -20 10
      vertex 7.5 -12.6616 10.5
      vertex 7.5 -14.9535 10.5
    endloop
  endfacet
  facet normal 1 0 0
    outer loop
      vertex 7.5 -12.6616 10.5
      vertex 7.5 -20 10
      vertex 7.5 20 10
    endloop
  endfacet
  facet normal 1 0 0
    outer loop
      vertex 7.5 -20 10
      vertex 7.5 -14.9535 10.5
      vertex 7.5 -20 13
    endloop
  endfacet
  facet normal 0 1 -0
    outer loop
      vertex 7.5 20 10
      vertex -7.5 20 10.5
      vertex 7.5 20 10.5
    endloop
  endfacet
  facet normal 0 1 0
    outer loop
      vertex -7.5 20 10.5
      vertex 7.5 20 10
      vertex -7.5 20 10
    endloop
  endfacet
  facet normal 0 0 -1
    outer loop
      vertex 6.385 -15.3593 10
      vertex 7.5 -20 10
      vertex 6.385 -16 10
    endloop
  endfacet
  facet normal 0 0 -1
    outer loop
      vertex 7.5 -20 10
      vertex 3.94577 -16 10
      vertex 6.385 -16 10
    endloop
  endfacet
  facet normal 0 0 -1
    outer loop
      vertex 7.5 -20 10
      vertex 0.5 -16 10
      vertex 3.94577 -16 10
    endloop
  endfacet
  facet normal 0 0 -1
    outer loop
      vertex 7.5 -20 10
      vertex -0.5 -16 10
      vertex 0.5 -16 10
    endloop
  endfacet
  facet normal 0 0 -1
    outer loop
      vertex -7.5 -20 10
      vertex -0.5 -16 10
      vertex 7.5 -20 10
    endloop
  endfacet
  facet normal -0 0 -1
    outer loop
      vertex -0.5 -16 10
      vertex -7.5 -20 10
      vertex -3.94577 -16 10
    endloop
  endfacet
  facet normal 0 0 -1
    outer loop
      vertex -7.5 -20 10
      vertex -6.385 -15.3593 10
      vertex -6.385 -16 10
    endloop
  endfacet
  facet normal -0 0 -1
    outer loop
      vertex -6.385 -15.3593 10
      vertex -7.5 -20 10
      vertex -6.385 -13.1259 10
    endloop
  endfacet
  facet normal -0 0 -1
    outer loop
      vertex -6.385 -13.1259 10
      vertex -7.5 -20 10
      vertex -7.5 20 10
    endloop
  endfacet
  facet normal -0 0 -1
    outer loop
      vertex -3.94577 -16 10
      vertex -7.5 -20 10
      vertex -6.385 -16 10
    endloop
  endfacet
  facet normal 0 0 -1
    outer loop
      vertex 6.385 -13.1259 10
      vertex 7.5 -20 10
      vertex 6.385 -15.3593 10
    endloop
  endfacet
  facet normal 0 0 -1
    outer loop
      vertex 7.5 -20 10
      vertex 6.385 -13.1259 10
      vertex 7.5 20 10
    endloop
  endfacet
  facet normal 0 0 -1
    outer loop
      vertex 6.385 16.97 10
      vertex 7.5 20 10
      vertex 6.385 -13.1259 10
    endloop
  endfacet
  facet normal 0 0 -1
    outer loop
      vertex -6.385 16.97 10
      vertex 7.5 20 10
      vertex 6.385 16.97 10
    endloop
  endfacet
  facet normal 0 0 -1
    outer loop
      vertex -6.385 16.97 10
      vertex -7.5 20 10
      vertex 7.5 20 10
    endloop
  endfacet
  facet normal 0 0 -1
    outer loop
      vertex -6.385 -13.1259 10
      vertex -7.5 20 10
      vertex -6.385 16.97 10
    endloop
  endfacet
  facet normal 0 0 -1
    outer loop
      vertex -4.6925 -12.35 10
      vertex -3.1925 -10.85 10
      vertex -3.1925 -12.35 10
    endloop
  endfacet
  facet normal -0 0 -1
    outer loop
      vertex -3.1925 -10.85 10
      vertex -4.6925 -12.35 10
      vertex -4.6925 -10.85 10
    endloop
  endfacet
  facet normal 0 0 -1
    outer loop
      vertex 3.1925 -12.35 10
      vertex 4.6925 -10.85 10
      vertex 4.6925 -12.35 10
    endloop
  endfacet
  facet normal -0 0 -1
    outer loop
      vertex 4.6925 -10.85 10
      vertex 3.1925 -12.35 10
      vertex 3.1925 -10.85 10
    endloop
  endfacet
  facet normal 0 -1 0
    outer loop
      vertex -7.5 -20 13
      vertex -3.74374 -20 10.5
      vertex -3.74374 -20 13
    endloop
  endfacet
  facet normal 0 -1 -0
    outer loop
      vertex -3.74374 -20 10.5
      vertex -7.5 -20 10
      vertex 3.74374 -20 10.5
    endloop
  endfacet
  facet normal 0 -1 0
    outer loop
      vertex -7.5 -20 10
      vertex -3.74374 -20 10.5
      vertex -7.5 -20 13
    endloop
  endfacet
  facet normal 0 -1 0
    outer loop
      vertex 3.74374 -20 10.5
      vertex 7.5 -20 13
      vertex 3.74374 -20 13
    endloop
  endfacet
  facet normal 0 -1 0
    outer loop
      vertex 3.74374 -20 10.5
      vertex 7.5 -20 10
      vertex 7.5 -20 13
    endloop
  endfacet
  facet normal 0 -1 0
    outer loop
      vertex 7.5 -20 10
      vertex 3.74374 -20 10.5
      vertex -7.5 -20 10
    endloop
  endfacet
  facet normal 0 1 -0
    outer loop
      vertex 7.5 19.235 10.5
      vertex -7.5 19.235 13
      vertex 7.5 19.235 13
    endloop
  endfacet
  facet normal 0 1 0
    outer loop
      vertex -7.5 19.235 13
      vertex 7.5 19.235 10.5
      vertex -7.5 19.235 10.5
    endloop
  endfacet
  facet normal 0 0 -1
    outer loop
      vertex -4.37879 -13.7624 11.5
      vertex -3.1925 -12.35 11.5
      vertex -3.1925 -14.0145 11.5
    endloop
  endfacet
  facet normal 0 0 -1
    outer loop
      vertex -4.37879 -13.7624 11.5
      vertex -4.6925 -12.35 11.5
      vertex -3.1925 -12.35 11.5
    endloop
  endfacet
  facet normal 0 0 -1
    outer loop
      vertex -5.59321 -13.4141 11.5
      vertex -4.6925 -12.35 11.5
      vertex -4.37879 -13.7624 11.5
    endloop
  endfacet
  facet normal 0 0 -1
    outer loop
      vertex -6.385 -13.1259 11.5
      vertex -4.6925 -12.35 11.5
      vertex -5.59321 -13.4141 11.5
    endloop
  endfacet
  facet normal -0 0 -1
    outer loop
      vertex -4.6925 -12.35 11.5
      vertex -6.385 -13.1259 11.5
      vertex -6.385 -11.115 11.5
    endloop
  endfacet
  facet normal 0 0 -1
    outer loop
      vertex -4.6925 -12.35 11.5
      vertex -6.385 -11.115 11.5
      vertex -4.6925 -11.115 11.5
    endloop
  endfacet
  facet normal 0 0 -1
    outer loop
      vertex -6.385 -16 11.5
      vertex -4.88682 -15.8 11.5
      vertex -3.94577 -16 11.5
    endloop
  endfacet
  facet normal 0 0 -1
    outer loop
      vertex -6.385 -16 11.5
      vertex -6.24214 -15.4113 11.5
      vertex -4.88682 -15.8 11.5
    endloop
  endfacet
  facet normal -0 0 -1
    outer loop
      vertex -6.24214 -15.4113 11.5
      vertex -6.385 -16 11.5
      vertex -6.385 -15.3593 11.5
    endloop
  endfacet
  facet normal 0 0 -1
    outer loop
      vertex 4.37879 -13.7624 11.5
      vertex 4.6925 -12.35 11.5
      vertex 5.59321 -13.4141 11.5
    endloop
  endfacet
  facet normal 0 0 -1
    outer loop
      vertex 3.1925 -12.35 11.5
      vertex 4.37879 -13.7624 11.5
      vertex 3.1925 -14.0145 11.5
    endloop
  endfacet
  facet normal 0 0 -1
    outer loop
      vertex 4.37879 -13.7624 11.5
      vertex 3.1925 -12.35 11.5
      vertex 4.6925 -12.35 11.5
    endloop
  endfacet
  facet normal 0 0 -1
    outer loop
      vertex 4.6925 -12.35 11.5
      vertex 6.385 -13.1259 11.5
      vertex 5.59321 -13.4141 11.5
    endloop
  endfacet
  facet normal 0 0 -1
    outer loop
      vertex 6.385 -13.1259 11.5
      vertex 4.6925 -12.35 11.5
      vertex 6.385 -11.115 11.5
    endloop
  endfacet
  facet normal -0 0 -1
    outer loop
      vertex 6.385 -11.115 11.5
      vertex 4.6925 -12.35 11.5
      vertex 4.6925 -11.115 11.5
    endloop
  endfacet
  facet normal 0 0 -1
    outer loop
      vertex 6.385 -16 11.5
      vertex 6.24214 -15.4113 11.5
      vertex 6.385 -15.3593 11.5
    endloop
  endfacet
  facet normal 0 0 -1
    outer loop
      vertex 6.385 -16 11.5
      vertex 4.88682 -15.8 11.5
      vertex 6.24214 -15.4113 11.5
    endloop
  endfacet
  facet normal 0 -0 -1
    outer loop
      vertex 4.88682 -15.8 11.5
      vertex 6.385 -16 11.5
      vertex 3.94577 -16 11.5
    endloop
  endfacet
  facet normal 0 0 -1
    outer loop
      vertex -6.385 12.085 11.5
      vertex 6.385 16.97 11.5
      vertex 6.385 12.085 11.5
    endloop
  endfacet
  facet normal -0 0 -1
    outer loop
      vertex 6.385 16.97 11.5
      vertex -6.385 12.085 11.5
      vertex -6.385 16.97 11.5
    endloop
  endfacet
  facet normal 0 1 -0
    outer loop
      vertex -4.6925 -11.115 11.5
      vertex -6.385 -11.115 13
      vertex -4.6925 -11.115 13
    endloop
  endfacet
  facet normal 0 1 0
    outer loop
      vertex -6.385 -11.115 13
      vertex -4.6925 -11.115 11.5
      vertex -6.385 -11.115 11.5
    endloop
  endfacet
  facet normal 0 1 -0
    outer loop
      vertex 6.385 -11.115 11.5
      vertex 4.6925 -11.115 13
      vertex 6.385 -11.115 13
    endloop
  endfacet
  facet normal 0 1 0
    outer loop
      vertex 4.6925 -11.115 13
      vertex 6.385 -11.115 11.5
      vertex 4.6925 -11.115 11.5
    endloop
  endfacet
  facet normal 0 -1 0
    outer loop
      vertex -6.385 12.085 11.5
      vertex 6.385 12.085 13
      vertex -6.385 12.085 13
    endloop
  endfacet
  facet normal 0 -1 -0
    outer loop
      vertex 6.385 12.085 13
      vertex -6.385 12.085 11.5
      vertex 6.385 12.085 11.5
    endloop
  endfacet
  facet normal 1 0 0
    outer loop
      vertex -3.1925 -10.85 13
      vertex -3.1925 -12.35 11.5
      vertex -3.1925 -10.85 10
    endloop
  endfacet
  facet normal 1 -0 0
    outer loop
      vertex -3.1925 -14.0145 13
      vertex -3.1925 -12.35 11.5
      vertex -3.1925 -10.85 13
    endloop
  endfacet
  facet normal 1 0 0
    outer loop
      vertex -3.1925 -12.35 11.5
      vertex -3.1925 -14.0145 13
      vertex -3.1925 -14.0145 11.5
    endloop
  endfacet
  facet normal 1 0 0
    outer loop
      vertex -3.1925 -10.85 10
      vertex -3.1925 -12.35 11.5
      vertex -3.1925 -12.35 10
    endloop
  endfacet
  facet normal -1 0 0
    outer loop
      vertex 3.1925 -12.35 11.5
      vertex 3.1925 -10.85 10
      vertex 3.1925 -12.35 10
    endloop
  endfacet
  facet normal -1 0 0
    outer loop
      vertex 3.1925 -10.85 10
      vertex 3.1925 -12.35 11.5
      vertex 3.1925 -10.85 13
    endloop
  endfacet
  facet normal -1 0 0
    outer loop
      vertex 3.1925 -14.0145 13
      vertex 3.1925 -12.35 11.5
      vertex 3.1925 -14.0145 11.5
    endloop
  endfacet
  facet normal -1 0 0
    outer loop
      vertex 3.1925 -12.35 11.5
      vertex 3.1925 -14.0145 13
      vertex 3.1925 -10.85 13
    endloop
  endfacet
  facet normal 0 1 -0
    outer loop
      vertex 0.704968 -16.3877 10.5
      vertex 0.5 -16.3877 13
      vertex 0.704968 -16.3877 13
    endloop
  endfacet
  facet normal 0 1 0
    outer loop
      vertex 0.5 -16.3877 13
      vertex 0.704968 -16.3877 10.5
      vertex 0.5 -16.3877 10.5
    endloop
  endfacet
  facet normal 0 1 -0
    outer loop
      vertex -0.5 -16.3877 10.5
      vertex -0.704968 -16.3877 13
      vertex -0.5 -16.3877 13
    endloop
  endfacet
  facet normal 0 1 0
    outer loop
      vertex -0.704968 -16.3877 13
      vertex -0.5 -16.3877 10.5
      vertex -0.704968 -16.3877 10.5
    endloop
  endfacet
  facet normal -0.275682 0.961249 0
    outer loop
      vertex 6.24214 -15.4113 11.5
      vertex 4.88682 -15.8 13
      vertex 6.24214 -15.4113 13
    endloop
  endfacet
  facet normal -0.275682 0.961249 0
    outer loop
      vertex 4.88682 -15.8 13
      vertex 6.24214 -15.4113 11.5
      vertex 4.88682 -15.8 11.5
    endloop
  endfacet
  facet normal -0.207903 0.97815 0
    outer loop
      vertex 4.88682 -15.8 13
      vertex 4.88682 -15.8 11.5
      vertex 4.8695 -15.8037 13
    endloop
  endfacet
  facet normal -0.207887 0.978153 1.86799e-07
    outer loop
      vertex 4.88682 -15.8 11.5
      vertex 3.95218 -15.9986 13
      vertex 4.8695 -15.8037 13
    endloop
  endfacet
  facet normal -0.207886 0.978153 8.10216e-07
    outer loop
      vertex 3.95218 -15.9986 13
      vertex 4.88682 -15.8 11.5
      vertex 3.94577 -16 11.5
    endloop
  endfacet
  facet normal -0.207861 0.978158 6.96537e-07
    outer loop
      vertex 3.95218 -15.9986 13
      vertex 3.94577 -16 11.5
      vertex 3.93473 -16.0023 13
    endloop
  endfacet
  facet normal -0.207873 0.978156 6.0102e-07
    outer loop
      vertex 3.94577 -16 11.5
      vertex 3.50769 -16.0931 13
      vertex 3.93473 -16.0023 13
    endloop
  endfacet
  facet normal -0.207875 0.978155 0
    outer loop
      vertex 3.50769 -16.0931 10.5
      vertex 3.94577 -16 11.5
      vertex 3.94577 -16 10.5
    endloop
  endfacet
  facet normal -0.207875 0.978155 0
    outer loop
      vertex 3.94577 -16 11.5
      vertex 3.50769 -16.0931 10.5
      vertex 3.50769 -16.0931 13
    endloop
  endfacet
  facet normal -0.0697904 0.997562 0
    outer loop
      vertex 2.11147 -16.2893 10.5
      vertex 0.704968 -16.3877 13
      vertex 2.11147 -16.2893 13
    endloop
  endfacet
  facet normal -0.0697904 0.997562 0
    outer loop
      vertex 0.704968 -16.3877 13
      vertex 2.11147 -16.2893 10.5
      vertex 0.704968 -16.3877 10.5
    endloop
  endfacet
  facet normal 0.34204 0.939685 -0
    outer loop
      vertex -6.24214 -15.4113 11.5
      vertex -6.38196 -15.3604 13
      vertex -6.24214 -15.4113 13
    endloop
  endfacet
  facet normal 0.34204 0.939685 -2.99996e-08
    outer loop
      vertex -6.38196 -15.3604 13
      vertex -6.24214 -15.4113 11.5
      vertex -6.385 -15.3593 11.5
    endloop
  endfacet
  facet normal 0.342009 0.939697 4.27287e-08
    outer loop
      vertex -6.38196 -15.3604 13
      vertex -6.385 -15.3593 11.5
      vertex -6.41015 -15.3501 13
    endloop
  endfacet
  facet normal 0.341998 0.939701 -1.51354e-07
    outer loop
      vertex -6.385 -15.3593 11.5
      vertex -7.5 -14.9535 13
      vertex -6.41015 -15.3501 13
    endloop
  endfacet
  facet normal 0.341998 0.939701 0
    outer loop
      vertex -7.5 -14.9535 10.5
      vertex -6.385 -15.3593 11.5
      vertex -6.385 -15.3593 10.5
    endloop
  endfacet
  facet normal 0.341998 0.939701 0
    outer loop
      vertex -6.385 -15.3593 11.5
      vertex -7.5 -14.9535 10.5
      vertex -7.5 -14.9535 13
    endloop
  endfacet
  facet normal -0.342009 0.939697 4.27287e-08
    outer loop
      vertex 6.41015 -15.3501 13
      vertex 6.385 -15.3593 11.5
      vertex 6.38196 -15.3604 13
    endloop
  endfacet
  facet normal -0.341998 0.939701 -1.51354e-07
    outer loop
      vertex 7.5 -14.9535 13
      vertex 6.385 -15.3593 11.5
      vertex 6.41015 -15.3501 13
    endloop
  endfacet
  facet normal -0.341998 0.939701 0
    outer loop
      vertex 7.5 -14.9535 10.5
      vertex 6.385 -15.3593 11.5
      vertex 7.5 -14.9535 13
    endloop
  endfacet
  facet normal -0.341998 0.939701 0
    outer loop
      vertex 6.385 -15.3593 11.5
      vertex 7.5 -14.9535 10.5
      vertex 6.385 -15.3593 10.5
    endloop
  endfacet
  facet normal -0.34204 0.939685 -3.06517e-08
    outer loop
      vertex 6.385 -15.3593 11.5
      vertex 6.24214 -15.4113 13
      vertex 6.38196 -15.3604 13
    endloop
  endfacet
  facet normal -0.34204 0.939685 0
    outer loop
      vertex 6.24214 -15.4113 13
      vertex 6.385 -15.3593 11.5
      vertex 6.24214 -15.4113 11.5
    endloop
  endfacet
  facet normal -0.139155 0.990271 0
    outer loop
      vertex 3.50769 -16.0931 10.5
      vertex 2.11147 -16.2893 13
      vertex 3.50769 -16.0931 13
    endloop
  endfacet
  facet normal -0.139155 0.990271 0
    outer loop
      vertex 2.11147 -16.2893 13
      vertex 3.50769 -16.0931 10.5
      vertex 2.11147 -16.2893 10.5
    endloop
  endfacet
  facet normal 0.0697904 0.997562 -0
    outer loop
      vertex -0.704968 -16.3877 10.5
      vertex -2.11147 -16.2893 13
      vertex -0.704968 -16.3877 13
    endloop
  endfacet
  facet normal 0.0697904 0.997562 0
    outer loop
      vertex -2.11147 -16.2893 13
      vertex -0.704968 -16.3877 10.5
      vertex -2.11147 -16.2893 10.5
    endloop
  endfacet
  facet normal 0.139155 0.990271 -0
    outer loop
      vertex -2.11147 -16.2893 10.5
      vertex -3.50769 -16.0931 13
      vertex -2.11147 -16.2893 13
    endloop
  endfacet
  facet normal 0.139155 0.990271 0
    outer loop
      vertex -3.50769 -16.0931 13
      vertex -2.11147 -16.2893 10.5
      vertex -3.50769 -16.0931 10.5
    endloop
  endfacet
  facet normal 0.275682 0.961249 -0
    outer loop
      vertex -4.88682 -15.8 11.5
      vertex -6.24214 -15.4113 13
      vertex -4.88682 -15.8 13
    endloop
  endfacet
  facet normal 0.275682 0.961249 0
    outer loop
      vertex -6.24214 -15.4113 13
      vertex -4.88682 -15.8 11.5
      vertex -6.24214 -15.4113 11.5
    endloop
  endfacet
  facet normal 0.207861 0.978158 6.96537e-07
    outer loop
      vertex -3.93473 -16.0023 13
      vertex -3.94577 -16 11.5
      vertex -3.95218 -15.9986 13
    endloop
  endfacet
  facet normal 0.207873 0.978156 6.0102e-07
    outer loop
      vertex -3.50769 -16.0931 13
      vertex -3.94577 -16 11.5
      vertex -3.93473 -16.0023 13
    endloop
  endfacet
  facet normal 0.207875 0.978155 -0
    outer loop
      vertex -3.50769 -16.0931 10.5
      vertex -3.94577 -16 11.5
      vertex -3.50769 -16.0931 13
    endloop
  endfacet
  facet normal 0.207875 0.978155 0
    outer loop
      vertex -3.94577 -16 11.5
      vertex -3.50769 -16.0931 10.5
      vertex -3.94577 -16 10.5
    endloop
  endfacet
  facet normal 0.207887 0.978153 8.14491e-07
    outer loop
      vertex -3.94577 -16 11.5
      vertex -4.8695 -15.8037 13
      vertex -3.95218 -15.9986 13
    endloop
  endfacet
  facet normal 0.207886 0.978153 1.98348e-07
    outer loop
      vertex -4.8695 -15.8037 13
      vertex -3.94577 -16 11.5
      vertex -4.88682 -15.8 11.5
    endloop
  endfacet
  facet normal 0.207903 0.97815 0
    outer loop
      vertex -4.88682 -15.8 13
      vertex -4.8695 -15.8037 13
      vertex -4.88682 -15.8 11.5
    endloop
  endfacet
  facet normal 0.406699 -0.913562 0
    outer loop
      vertex 6.78038 -12.982 10.5
      vertex 7.5 -12.6616 13
      vertex 6.78038 -12.982 13
    endloop
  endfacet
  facet normal 0.406699 -0.913562 0
    outer loop
      vertex 7.5 -12.6616 13
      vertex 6.78038 -12.982 10.5
      vertex 7.5 -12.6616 10.5
    endloop
  endfacet
  facet normal 0.342015 -0.939695 0
    outer loop
      vertex 5.62103 -13.404 13
      vertex 5.59321 -13.4141 13
      vertex 5.59321 -13.4141 11.5
    endloop
  endfacet
  facet normal 0.342033 -0.939688 -3.89448e-07
    outer loop
      vertex 6.385 -13.1259 11.5
      vertex 5.62103 -13.404 13
      vertex 5.59321 -13.4141 11.5
    endloop
  endfacet
  facet normal 0.342033 -0.939688 -5.0684e-07
    outer loop
      vertex 5.62103 -13.404 13
      vertex 6.385 -13.1259 11.5
      vertex 6.39427 -13.1225 13
    endloop
  endfacet
  facet normal 0.342007 -0.939697 -3.27644e-07
    outer loop
      vertex 6.385 -13.1259 11.5
      vertex 6.78038 -12.982 13
      vertex 6.39427 -13.1225 13
    endloop
  endfacet
  facet normal 0.342006 -0.939698 0
    outer loop
      vertex 6.78038 -12.982 10.5
      vertex 6.385 -13.1259 11.5
      vertex 6.385 -13.1259 10.5
    endloop
  endfacet
  facet normal 0.342006 -0.939698 0
    outer loop
      vertex 6.385 -13.1259 11.5
      vertex 6.78038 -12.982 10.5
      vertex 6.78038 -12.982 13
    endloop
  endfacet
  facet normal 0.207859 -0.978159 -3.82882e-07
    outer loop
      vertex 4.37879 -13.7624 11.5
      vertex 4.37428 -13.7634 13
      vertex 4.29199 -13.7808 13
    endloop
  endfacet
  facet normal 0.207869 -0.978157 0
    outer loop
      vertex 3.1925 -14.0145 11.5
      vertex 4.29199 -13.7808 13
      vertex 3.1925 -14.0145 13
    endloop
  endfacet
  facet normal 0.207869 -0.978157 2.10457e-07
    outer loop
      vertex 4.29199 -13.7808 13
      vertex 3.1925 -14.0145 11.5
      vertex 4.37879 -13.7624 11.5
    endloop
  endfacet
  facet normal 0.207981 -0.978133 0
    outer loop
      vertex 4.37879 -13.7624 11.5
      vertex 4.37879 -13.7624 13
      vertex 4.37428 -13.7634 13
    endloop
  endfacet
  facet normal -0.207981 -0.978133 0
    outer loop
      vertex -4.37428 -13.7634 13
      vertex -4.37879 -13.7624 13
      vertex -4.37879 -13.7624 11.5
    endloop
  endfacet
  facet normal -0.207859 -0.978159 -3.82882e-07
    outer loop
      vertex -4.29199 -13.7808 13
      vertex -4.37428 -13.7634 13
      vertex -4.37879 -13.7624 11.5
    endloop
  endfacet
  facet normal -0.207869 -0.978157 2.10457e-07
    outer loop
      vertex -3.1925 -14.0145 11.5
      vertex -4.29199 -13.7808 13
      vertex -4.37879 -13.7624 11.5
    endloop
  endfacet
  facet normal -0.207869 -0.978157 0
    outer loop
      vertex -4.29199 -13.7808 13
      vertex -3.1925 -14.0145 11.5
      vertex -3.1925 -14.0145 13
    endloop
  endfacet
  facet normal 0.275689 -0.961247 0
    outer loop
      vertex 4.37879 -13.7624 11.5
      vertex 5.59321 -13.4141 13
      vertex 4.37879 -13.7624 13
    endloop
  endfacet
  facet normal 0.275689 -0.961247 0
    outer loop
      vertex 5.59321 -13.4141 13
      vertex 4.37879 -13.7624 11.5
      vertex 5.59321 -13.4141 11.5
    endloop
  endfacet
  facet normal -0.275689 -0.961247 0
    outer loop
      vertex -5.59321 -13.4141 11.5
      vertex -4.37879 -13.7624 13
      vertex -5.59321 -13.4141 13
    endloop
  endfacet
  facet normal -0.275689 -0.961247 -0
    outer loop
      vertex -4.37879 -13.7624 13
      vertex -5.59321 -13.4141 11.5
      vertex -4.37879 -13.7624 11.5
    endloop
  endfacet
  facet normal -0.342015 -0.939695 -3.78561e-07
    outer loop
      vertex -6.385 -13.1259 11.5
      vertex -6.36644 -13.1327 13
      vertex -6.39427 -13.1225 13
    endloop
  endfacet
  facet normal -0.342007 -0.939697 -3.27644e-07
    outer loop
      vertex -6.78038 -12.982 13
      vertex -6.385 -13.1259 11.5
      vertex -6.39427 -13.1225 13
    endloop
  endfacet
  facet normal -0.342006 -0.939698 0
    outer loop
      vertex -6.78038 -12.982 10.5
      vertex -6.385 -13.1259 11.5
      vertex -6.78038 -12.982 13
    endloop
  endfacet
  facet normal -0.342006 -0.939698 -0
    outer loop
      vertex -6.385 -13.1259 11.5
      vertex -6.78038 -12.982 10.5
      vertex -6.385 -13.1259 10.5
    endloop
  endfacet
  facet normal -0.342033 -0.939688 -1.18815e-07
    outer loop
      vertex -5.59321 -13.4141 11.5
      vertex -6.36644 -13.1327 13
      vertex -6.385 -13.1259 11.5
    endloop
  endfacet
  facet normal -0.342033 -0.939688 0
    outer loop
      vertex -6.36644 -13.1327 13
      vertex -5.59321 -13.4141 11.5
      vertex -5.59321 -13.4141 13
    endloop
  endfacet
  facet normal -0.406699 -0.913562 0
    outer loop
      vertex -7.5 -12.6616 10.5
      vertex -6.78038 -12.982 13
      vertex -7.5 -12.6616 13
    endloop
  endfacet
  facet normal -0.406699 -0.913562 -0
    outer loop
      vertex -6.78038 -12.982 13
      vertex -7.5 -12.6616 10.5
      vertex -6.78038 -12.982 10.5
    endloop
  endfacet
  facet normal -1 0 0
    outer loop
      vertex -0.5 -16.3877 10.5
      vertex -0.5 -16 13
      vertex -0.5 -16 10.5
    endloop
  endfacet
  facet normal -1 -0 0
    outer loop
      vertex -0.5 -16 13
      vertex -0.5 -16.3877 10.5
      vertex -0.5 -16.3877 13
    endloop
  endfacet
  facet normal 1 -0 0
    outer loop
      vertex 0.5 -16.3877 13
      vertex 0.5 -16 10.5
      vertex 0.5 -16 13
    endloop
  endfacet
  facet normal 1 0 0
    outer loop
      vertex 0.5 -16 10.5
      vertex 0.5 -16.3877 13
      vertex 0.5 -16.3877 10.5
    endloop
  endfacet
  facet normal -0.342053 -0.939681 0
    outer loop
      vertex 1.48328 -18.4349 10.5
      vertex 1.79811 -18.5495 13
      vertex 1.48328 -18.4349 13
    endloop
  endfacet
  facet normal -0.342053 -0.939681 -0
    outer loop
      vertex 1.79811 -18.5495 13
      vertex 1.48328 -18.4349 10.5
      vertex 1.79811 -18.5495 10.5
    endloop
  endfacet
  facet normal 0.342053 -0.939681 0
    outer loop
      vertex -1.79811 -18.5495 10.5
      vertex -1.48328 -18.4349 13
      vertex -1.79811 -18.5495 13
    endloop
  endfacet
  facet normal 0.342053 -0.939681 0
    outer loop
      vertex -1.48328 -18.4349 13
      vertex -1.79811 -18.5495 10.5
      vertex -1.48328 -18.4349 10.5
    endloop
  endfacet
  facet normal -0.0698411 -0.997558 0
    outer loop
      vertex 0.167517 -18.2029 10.5
      vertex 0.501736 -18.2263 13
      vertex 0.167517 -18.2029 13
    endloop
  endfacet
  facet normal -0.0698411 -0.997558 -0
    outer loop
      vertex 0.501736 -18.2263 13
      vertex 0.167517 -18.2029 10.5
      vertex 0.501736 -18.2263 10.5
    endloop
  endfacet
  facet normal -0.529824 -0.848108 0
    outer loop
      vertex 2.4 -18.8431 10.5
      vertex 2.68413 -19.0206 13
      vertex 2.4 -18.8431 13
    endloop
  endfacet
  facet normal -0.529824 -0.848108 -0
    outer loop
      vertex 2.68413 -19.0206 13
      vertex 2.4 -18.8431 10.5
      vertex 2.68413 -19.0206 10.5
    endloop
  endfacet
  facet normal 0.743176 -0.669096 0
    outer loop
      vertex -3.67701 -19.9146 13
      vertex -3.45283 -19.6656 10.5
      vertex -3.45283 -19.6656 13
    endloop
  endfacet
  facet normal 0.743176 -0.669096 0
    outer loop
      vertex -3.45283 -19.6656 10.5
      vertex -3.67701 -19.9146 13
      vertex -3.67701 -19.9146 10.5
    endloop
  endfacet
  facet normal 0.208035 -0.978121 0
    outer loop
      vertex -1.16122 -18.3426 10.5
      vertex -0.833509 -18.2729 13
      vertex -1.16122 -18.3426 13
    endloop
  endfacet
  facet normal 0.208035 -0.978121 0
    outer loop
      vertex -0.833509 -18.2729 13
      vertex -1.16122 -18.3426 10.5
      vertex -0.833509 -18.2729 10.5
    endloop
  endfacet
  facet normal -0.694611 -0.719386 0
    outer loop
      vertex 3.21183 -19.4329 10.5
      vertex 3.45283 -19.6656 13
      vertex 3.21183 -19.4329 13
    endloop
  endfacet
  facet normal -0.694611 -0.719386 -0
    outer loop
      vertex 3.45283 -19.6656 13
      vertex 3.21183 -19.4329 10.5
      vertex 3.45283 -19.6656 10.5
    endloop
  endfacet
  facet normal 0 -1 0
    outer loop
      vertex -0.167517 -18.2029 10.5
      vertex 0.167517 -18.2029 13
      vertex -0.167517 -18.2029 13
    endloop
  endfacet
  facet normal 0 -1 -0
    outer loop
      vertex 0.167517 -18.2029 13
      vertex -0.167517 -18.2029 10.5
      vertex 0.167517 -18.2029 10.5
    endloop
  endfacet
  facet normal -0.275498 -0.961302 0
    outer loop
      vertex 1.16122 -18.3426 10.5
      vertex 1.48328 -18.4349 13
      vertex 1.16122 -18.3426 13
    endloop
  endfacet
  facet normal -0.275498 -0.961302 -0
    outer loop
      vertex 1.48328 -18.4349 13
      vertex 1.16122 -18.3426 10.5
      vertex 1.48328 -18.4349 10.5
    endloop
  endfacet
  facet normal -0.139093 -0.990279 0
    outer loop
      vertex 0.501736 -18.2263 10.5
      vertex 0.833509 -18.2729 13
      vertex 0.501736 -18.2263 13
    endloop
  endfacet
  facet normal -0.139093 -0.990279 -0
    outer loop
      vertex 0.833509 -18.2729 13
      vertex 0.501736 -18.2263 10.5
      vertex 0.833509 -18.2729 10.5
    endloop
  endfacet
  facet normal -0.587741 -0.809049 0
    outer loop
      vertex 2.68413 -19.0206 10.5
      vertex 2.95517 -19.2175 13
      vertex 2.68413 -19.0206 13
    endloop
  endfacet
  facet normal -0.587741 -0.809049 -0
    outer loop
      vertex 2.95517 -19.2175 13
      vertex 2.68413 -19.0206 10.5
      vertex 2.95517 -19.2175 10.5
    endloop
  endfacet
  facet normal 0.787992 -0.615686 0
    outer loop
      vertex -3.74374 -20 13
      vertex -3.67701 -19.9146 10.5
      vertex -3.67701 -19.9146 13
    endloop
  endfacet
  facet normal 0.787992 -0.615686 0
    outer loop
      vertex -3.67701 -19.9146 10.5
      vertex -3.74374 -20 13
      vertex -3.74374 -20 10.5
    endloop
  endfacet
  facet normal 0.275498 -0.961302 0
    outer loop
      vertex -1.48328 -18.4349 10.5
      vertex -1.16122 -18.3426 13
      vertex -1.48328 -18.4349 13
    endloop
  endfacet
  facet normal 0.275498 -0.961302 0
    outer loop
      vertex -1.16122 -18.3426 13
      vertex -1.48328 -18.4349 10.5
      vertex -1.16122 -18.3426 10.5
    endloop
  endfacet
  facet normal 0.0698411 -0.997558 0
    outer loop
      vertex -0.501736 -18.2263 10.5
      vertex -0.167517 -18.2029 13
      vertex -0.501736 -18.2263 13
    endloop
  endfacet
  facet normal 0.0698411 -0.997558 0
    outer loop
      vertex -0.167517 -18.2029 13
      vertex -0.501736 -18.2263 10.5
      vertex -0.167517 -18.2029 10.5
    endloop
  endfacet
  facet normal 0.529824 -0.848108 0
    outer loop
      vertex -2.68413 -19.0206 10.5
      vertex -2.4 -18.8431 13
      vertex -2.68413 -19.0206 13
    endloop
  endfacet
  facet normal 0.529824 -0.848108 0
    outer loop
      vertex -2.4 -18.8431 13
      vertex -2.68413 -19.0206 10.5
      vertex -2.4 -18.8431 10.5
    endloop
  endfacet
  facet normal 0.406806 -0.913515 0
    outer loop
      vertex -2.10418 -18.6858 10.5
      vertex -1.79811 -18.5495 13
      vertex -2.10418 -18.6858 13
    endloop
  endfacet
  facet normal 0.406806 -0.913515 0
    outer loop
      vertex -1.79811 -18.5495 13
      vertex -2.10418 -18.6858 10.5
      vertex -1.79811 -18.5495 10.5
    endloop
  endfacet
  facet normal 0.694611 -0.719386 0
    outer loop
      vertex -3.45283 -19.6656 10.5
      vertex -3.21183 -19.4329 13
      vertex -3.45283 -19.6656 13
    endloop
  endfacet
  facet normal 0.694611 -0.719386 0
    outer loop
      vertex -3.21183 -19.4329 13
      vertex -3.45283 -19.6656 10.5
      vertex -3.21183 -19.4329 10.5
    endloop
  endfacet
  facet normal -0.787992 -0.615686 0
    outer loop
      vertex 3.74374 -20 10.5
      vertex 3.67701 -19.9146 13
      vertex 3.67701 -19.9146 10.5
    endloop
  endfacet
  facet normal -0.787992 -0.615686 0
    outer loop
      vertex 3.67701 -19.9146 13
      vertex 3.74374 -20 10.5
      vertex 3.74374 -20 13
    endloop
  endfacet
  facet normal -0.743176 -0.669096 0
    outer loop
      vertex 3.67701 -19.9146 10.5
      vertex 3.45283 -19.6656 13
      vertex 3.45283 -19.6656 10.5
    endloop
  endfacet
  facet normal -0.743176 -0.669096 0
    outer loop
      vertex 3.45283 -19.6656 13
      vertex 3.67701 -19.9146 10.5
      vertex 3.67701 -19.9146 13
    endloop
  endfacet
  facet normal -0.208035 -0.978121 0
    outer loop
      vertex 0.833509 -18.2729 10.5
      vertex 1.16122 -18.3426 13
      vertex 0.833509 -18.2729 13
    endloop
  endfacet
  facet normal -0.208035 -0.978121 -0
    outer loop
      vertex 1.16122 -18.3426 13
      vertex 0.833509 -18.2729 10.5
      vertex 1.16122 -18.3426 10.5
    endloop
  endfacet
  facet normal -0.469496 -0.882935 0
    outer loop
      vertex 2.10418 -18.6858 10.5
      vertex 2.4 -18.8431 13
      vertex 2.10418 -18.6858 13
    endloop
  endfacet
  facet normal -0.469496 -0.882935 -0
    outer loop
      vertex 2.4 -18.8431 13
      vertex 2.10418 -18.6858 10.5
      vertex 2.4 -18.8431 10.5
    endloop
  endfacet
  facet normal -0.406806 -0.913515 0
    outer loop
      vertex 1.79811 -18.5495 10.5
      vertex 2.10418 -18.6858 13
      vertex 1.79811 -18.5495 13
    endloop
  endfacet
  facet normal -0.406806 -0.913515 -0
    outer loop
      vertex 2.10418 -18.6858 13
      vertex 1.79811 -18.5495 10.5
      vertex 2.10418 -18.6858 10.5
    endloop
  endfacet
  facet normal -0.642854 -0.765989 0
    outer loop
      vertex 2.95517 -19.2175 10.5
      vertex 3.21183 -19.4329 13
      vertex 2.95517 -19.2175 13
    endloop
  endfacet
  facet normal -0.642854 -0.765989 -0
    outer loop
      vertex 3.21183 -19.4329 13
      vertex 2.95517 -19.2175 10.5
      vertex 3.21183 -19.4329 10.5
    endloop
  endfacet
  facet normal 0.469496 -0.882935 0
    outer loop
      vertex -2.4 -18.8431 10.5
      vertex -2.10418 -18.6858 13
      vertex -2.4 -18.8431 13
    endloop
  endfacet
  facet normal 0.469496 -0.882935 0
    outer loop
      vertex -2.10418 -18.6858 13
      vertex -2.4 -18.8431 10.5
      vertex -2.10418 -18.6858 10.5
    endloop
  endfacet
  facet normal 0.587741 -0.809049 0
    outer loop
      vertex -2.95517 -19.2175 10.5
      vertex -2.68413 -19.0206 13
      vertex -2.95517 -19.2175 13
    endloop
  endfacet
  facet normal 0.587741 -0.809049 0
    outer loop
      vertex -2.68413 -19.0206 13
      vertex -2.95517 -19.2175 10.5
      vertex -2.68413 -19.0206 10.5
    endloop
  endfacet
  facet normal 0.642854 -0.765989 0
    outer loop
      vertex -3.21183 -19.4329 10.5
      vertex -2.95517 -19.2175 13
      vertex -3.21183 -19.4329 13
    endloop
  endfacet
  facet normal 0.642854 -0.765989 0
    outer loop
      vertex -2.95517 -19.2175 13
      vertex -3.21183 -19.4329 10.5
      vertex -2.95517 -19.2175 10.5
    endloop
  endfacet
  facet normal 0.139093 -0.990279 0
    outer loop
      vertex -0.833509 -18.2729 10.5
      vertex -0.501736 -18.2263 13
      vertex -0.833509 -18.2729 13
    endloop
  endfacet
  facet normal 0.139093 -0.990279 0
    outer loop
      vertex -0.501736 -18.2263 13
      vertex -0.833509 -18.2729 10.5
      vertex -0.501736 -18.2263 10.5
    endloop
  endfacet
  facet normal 1 0 0
    outer loop
      vertex 4.6925 -11.115 11.5
      vertex 4.6925 -10.85 13
      vertex 4.6925 -11.115 13
    endloop
  endfacet
  facet normal 1 0 0
    outer loop
      vertex 4.6925 -10.85 13
      vertex 4.6925 -11.115 11.5
      vertex 4.6925 -10.85 10
    endloop
  endfacet
  facet normal 1 0 0
    outer loop
      vertex 4.6925 -12.35 10
      vertex 4.6925 -11.115 11.5
      vertex 4.6925 -12.35 11.5
    endloop
  endfacet
  facet normal 1 0 0
    outer loop
      vertex 4.6925 -11.115 11.5
      vertex 4.6925 -12.35 10
      vertex 4.6925 -10.85 10
    endloop
  endfacet
  facet normal 0 1 -0
    outer loop
      vertex 4.6925 -10.85 10
      vertex 3.1925 -10.85 13
      vertex 4.6925 -10.85 13
    endloop
  endfacet
  facet normal 0 1 0
    outer loop
      vertex 3.1925 -10.85 13
      vertex 4.6925 -10.85 10
      vertex 3.1925 -10.85 10
    endloop
  endfacet
  facet normal 0 -1 0
    outer loop
      vertex 3.1925 -12.35 10
      vertex 4.6925 -12.35 11.5
      vertex 3.1925 -12.35 11.5
    endloop
  endfacet
  facet normal 0 -1 -0
    outer loop
      vertex 4.6925 -12.35 11.5
      vertex 3.1925 -12.35 10
      vertex 4.6925 -12.35 10
    endloop
  endfacet
  facet normal -1 0 0
    outer loop
      vertex -4.6925 -10.85 10
      vertex -4.6925 -11.115 11.5
      vertex -4.6925 -10.85 13
    endloop
  endfacet
  facet normal -1 0 0
    outer loop
      vertex -4.6925 -12.35 10
      vertex -4.6925 -11.115 11.5
      vertex -4.6925 -10.85 10
    endloop
  endfacet
  facet normal -1 -0 0
    outer loop
      vertex -4.6925 -11.115 11.5
      vertex -4.6925 -12.35 10
      vertex -4.6925 -12.35 11.5
    endloop
  endfacet
  facet normal -1 -0 0
    outer loop
      vertex -4.6925 -10.85 13
      vertex -4.6925 -11.115 11.5
      vertex -4.6925 -11.115 13
    endloop
  endfacet
  facet normal 0 -1 0
    outer loop
      vertex -4.6925 -12.35 10
      vertex -3.1925 -12.35 11.5
      vertex -4.6925 -12.35 11.5
    endloop
  endfacet
  facet normal 0 -1 -0
    outer loop
      vertex -3.1925 -12.35 11.5
      vertex -4.6925 -12.35 10
      vertex -3.1925 -12.35 10
    endloop
  endfacet
  facet normal 0 1 -0
    outer loop
      vertex -3.1925 -10.85 10
      vertex -4.6925 -10.85 13
      vertex -3.1925 -10.85 13
    endloop
  endfacet
  facet normal 0 1 0
    outer loop
      vertex -4.6925 -10.85 13
      vertex -3.1925 -10.85 10
      vertex -4.6925 -10.85 10
    endloop
  endfacet
  facet normal 0 0 1
    outer loop
      vertex -0.5 -16.3877 13
      vertex 0.5 -16.3877 13
      vertex 0.5 -16 13
    endloop
  endfacet
  facet normal 0 0 1
    outer loop
      vertex 0.5 -16.3877 13
      vertex -0.5 -16.3877 13
      vertex 0.167517 -18.2029 13
    endloop
  endfacet
  facet normal 0 0 1
    outer loop
      vertex -0.5 -16.3877 13
      vertex 0.5 -16 13
      vertex -0.5 -16 13
    endloop
  endfacet
  facet normal 0 0 1
    outer loop
      vertex 0.167517 -18.2029 13
      vertex -0.5 -16.3877 13
      vertex -0.167517 -18.2029 13
    endloop
  endfacet
  facet normal 0 0 1
    outer loop
      vertex -0.5 -16.3877 13
      vertex -0.501736 -18.2263 13
      vertex -0.167517 -18.2029 13
    endloop
  endfacet
  facet normal -0 0 1
    outer loop
      vertex -0.704968 -16.3877 13
      vertex -0.501736 -18.2263 13
      vertex -0.5 -16.3877 13
    endloop
  endfacet
  facet normal 0 0 1
    outer loop
      vertex -0.704968 -16.3877 13
      vertex -0.833509 -18.2729 13
      vertex -0.501736 -18.2263 13
    endloop
  endfacet
  facet normal 0 0 1
    outer loop
      vertex -0.704968 -16.3877 13
      vertex -1.16122 -18.3426 13
      vertex -0.833509 -18.2729 13
    endloop
  endfacet
  facet normal 0 0 1
    outer loop
      vertex -2.11147 -16.2893 13
      vertex -1.16122 -18.3426 13
      vertex -0.704968 -16.3877 13
    endloop
  endfacet
  facet normal 0 0 1
    outer loop
      vertex -1.16122 -18.3426 13
      vertex -2.11147 -16.2893 13
      vertex -1.48328 -18.4349 13
    endloop
  endfacet
  facet normal 0 0 1
    outer loop
      vertex -1.48328 -18.4349 13
      vertex -2.11147 -16.2893 13
      vertex -1.79811 -18.5495 13
    endloop
  endfacet
  facet normal 0 0 1
    outer loop
      vertex -1.79811 -18.5495 13
      vertex -2.11147 -16.2893 13
      vertex -2.10418 -18.6858 13
    endloop
  endfacet
  facet normal 0 0 1
    outer loop
      vertex -2.11147 -16.2893 13
      vertex -2.4 -18.8431 13
      vertex -2.10418 -18.6858 13
    endloop
  endfacet
  facet normal 0 0 1
    outer loop
      vertex -3.50769 -16.0931 13
      vertex -2.4 -18.8431 13
      vertex -2.11147 -16.2893 13
    endloop
  endfacet
  facet normal 0 0 1
    outer loop
      vertex -2.4 -18.8431 13
      vertex -3.50769 -16.0931 13
      vertex -2.68413 -19.0206 13
    endloop
  endfacet
  facet normal 0 0 1
    outer loop
      vertex -2.68413 -19.0206 13
      vertex -3.50769 -16.0931 13
      vertex -2.95517 -19.2175 13
    endloop
  endfacet
  facet normal 0 0 1
    outer loop
      vertex -3.93473 -16.0023 13
      vertex -2.95517 -19.2175 13
      vertex -3.50769 -16.0931 13
    endloop
  endfacet
  facet normal 0 0 1
    outer loop
      vertex -2.95517 -19.2175 13
      vertex -3.93473 -16.0023 13
      vertex -3.21183 -19.4329 13
    endloop
  endfacet
  facet normal 0 0 1
    outer loop
      vertex -3.95218 -15.9986 13
      vertex -3.21183 -19.4329 13
      vertex -3.93473 -16.0023 13
    endloop
  endfacet
  facet normal 0 0 1
    outer loop
      vertex -3.21183 -19.4329 13
      vertex -3.95218 -15.9986 13
      vertex -3.45283 -19.6656 13
    endloop
  endfacet
  facet normal 0 0 1
    outer loop
      vertex -4.8695 -15.8037 13
      vertex -3.45283 -19.6656 13
      vertex -3.95218 -15.9986 13
    endloop
  endfacet
  facet normal 0 0 1
    outer loop
      vertex -3.45283 -19.6656 13
      vertex -4.8695 -15.8037 13
      vertex -3.67701 -19.9146 13
    endloop
  endfacet
  facet normal 0 0 1
    outer loop
      vertex -4.88682 -15.8 13
      vertex -3.67701 -19.9146 13
      vertex -4.8695 -15.8037 13
    endloop
  endfacet
  facet normal 0 0 1
    outer loop
      vertex -7.5 -20 13
      vertex -3.67701 -19.9146 13
      vertex -4.88682 -15.8 13
    endloop
  endfacet
  facet normal 0 0 1
    outer loop
      vertex -7.5 -20 13
      vertex -4.88682 -15.8 13
      vertex -6.24214 -15.4113 13
    endloop
  endfacet
  facet normal 0 0 1
    outer loop
      vertex -7.5 -20 13
      vertex -6.24214 -15.4113 13
      vertex -6.38196 -15.3604 13
    endloop
  endfacet
  facet normal 0 0 1
    outer loop
      vertex -7.5 -20 13
      vertex -6.38196 -15.3604 13
      vertex -6.41015 -15.3501 13
    endloop
  endfacet
  facet normal 0 0 1
    outer loop
      vertex -7.5 -20 13
      vertex -6.41015 -15.3501 13
      vertex -7.5 -14.9535 13
    endloop
  endfacet
  facet normal 0 0 1
    outer loop
      vertex -3.67701 -19.9146 13
      vertex -7.5 -20 13
      vertex -3.74374 -20 13
    endloop
  endfacet
  facet normal -0 0 1
    outer loop
      vertex 6.41015 -15.3501 13
      vertex 7.5 -20 13
      vertex 7.5 -14.9535 13
    endloop
  endfacet
  facet normal -0 0 1
    outer loop
      vertex 6.38196 -15.3604 13
      vertex 7.5 -20 13
      vertex 6.41015 -15.3501 13
    endloop
  endfacet
  facet normal -0 0 1
    outer loop
      vertex 6.24214 -15.4113 13
      vertex 7.5 -20 13
      vertex 6.38196 -15.3604 13
    endloop
  endfacet
  facet normal -0 0 1
    outer loop
      vertex 4.88682 -15.8 13
      vertex 7.5 -20 13
      vertex 6.24214 -15.4113 13
    endloop
  endfacet
  facet normal 0 0 1
    outer loop
      vertex 3.67701 -19.9146 13
      vertex 4.88682 -15.8 13
      vertex 4.8695 -15.8037 13
    endloop
  endfacet
  facet normal 0 0 1
    outer loop
      vertex 3.45283 -19.6656 13
      vertex 4.8695 -15.8037 13
      vertex 3.95218 -15.9986 13
    endloop
  endfacet
  facet normal 0 0 1
    outer loop
      vertex 3.21183 -19.4329 13
      vertex 3.95218 -15.9986 13
      vertex 3.93473 -16.0023 13
    endloop
  endfacet
  facet normal 0 0 1
    outer loop
      vertex 4.88682 -15.8 13
      vertex 3.67701 -19.9146 13
      vertex 7.5 -20 13
    endloop
  endfacet
  facet normal 0 0 1
    outer loop
      vertex 7.5 -20 13
      vertex 3.67701 -19.9146 13
      vertex 3.74374 -20 13
    endloop
  endfacet
  facet normal 0 0 1
    outer loop
      vertex 2.95517 -19.2175 13
      vertex 3.93473 -16.0023 13
      vertex 3.50769 -16.0931 13
    endloop
  endfacet
  facet normal 0 0 1
    outer loop
      vertex 4.8695 -15.8037 13
      vertex 3.45283 -19.6656 13
      vertex 3.67701 -19.9146 13
    endloop
  endfacet
  facet normal 0 0 1
    outer loop
      vertex 3.95218 -15.9986 13
      vertex 3.21183 -19.4329 13
      vertex 3.45283 -19.6656 13
    endloop
  endfacet
  facet normal 0 0 1
    outer loop
      vertex 3.93473 -16.0023 13
      vertex 2.95517 -19.2175 13
      vertex 3.21183 -19.4329 13
    endloop
  endfacet
  facet normal 0 0 1
    outer loop
      vertex 3.50769 -16.0931 13
      vertex 2.68413 -19.0206 13
      vertex 2.95517 -19.2175 13
    endloop
  endfacet
  facet normal 0 0 1
    outer loop
      vertex 3.50769 -16.0931 13
      vertex 2.4 -18.8431 13
      vertex 2.68413 -19.0206 13
    endloop
  endfacet
  facet normal -0 0 1
    outer loop
      vertex 2.11147 -16.2893 13
      vertex 2.4 -18.8431 13
      vertex 3.50769 -16.0931 13
    endloop
  endfacet
  facet normal 0 0 1
    outer loop
      vertex 2.11147 -16.2893 13
      vertex 2.10418 -18.6858 13
      vertex 2.4 -18.8431 13
    endloop
  endfacet
  facet normal 0 0 1
    outer loop
      vertex 2.11147 -16.2893 13
      vertex 1.79811 -18.5495 13
      vertex 2.10418 -18.6858 13
    endloop
  endfacet
  facet normal 0 0 1
    outer loop
      vertex 2.11147 -16.2893 13
      vertex 1.48328 -18.4349 13
      vertex 1.79811 -18.5495 13
    endloop
  endfacet
  facet normal 0 0 1
    outer loop
      vertex 2.11147 -16.2893 13
      vertex 1.16122 -18.3426 13
      vertex 1.48328 -18.4349 13
    endloop
  endfacet
  facet normal -0 0 1
    outer loop
      vertex 0.704968 -16.3877 13
      vertex 1.16122 -18.3426 13
      vertex 2.11147 -16.2893 13
    endloop
  endfacet
  facet normal 0 0 1
    outer loop
      vertex 1.16122 -18.3426 13
      vertex 0.704968 -16.3877 13
      vertex 0.833509 -18.2729 13
    endloop
  endfacet
  facet normal 0 0 1
    outer loop
      vertex 0.704968 -16.3877 13
      vertex 0.501736 -18.2263 13
      vertex 0.833509 -18.2729 13
    endloop
  endfacet
  facet normal -0 0 1
    outer loop
      vertex 0.5 -16.3877 13
      vertex 0.501736 -18.2263 13
      vertex 0.704968 -16.3877 13
    endloop
  endfacet
  facet normal 0 0 1
    outer loop
      vertex 0.501736 -18.2263 13
      vertex 0.5 -16.3877 13
      vertex 0.167517 -18.2029 13
    endloop
  endfacet
  facet normal -0 0 1
    outer loop
      vertex 3.1925 -10.85 13
      vertex 4.6925 -11.115 13
      vertex 4.6925 -10.85 13
    endloop
  endfacet
  facet normal 0 0 1
    outer loop
      vertex 4.6925 -11.115 13
      vertex 4.37428 -13.7634 13
      vertex 4.37879 -13.7624 13
    endloop
  endfacet
  facet normal 0 0 1
    outer loop
      vertex 4.6925 -11.115 13
      vertex 4.29199 -13.7808 13
      vertex 4.37428 -13.7634 13
    endloop
  endfacet
  facet normal 0 0 1
    outer loop
      vertex 4.6925 -11.115 13
      vertex 3.1925 -10.85 13
      vertex 4.29199 -13.7808 13
    endloop
  endfacet
  facet normal 0 0 1
    outer loop
      vertex 4.29199 -13.7808 13
      vertex 3.1925 -10.85 13
      vertex 3.1925 -14.0145 13
    endloop
  endfacet
  facet normal -0 0 1
    outer loop
      vertex 6.385 12.085 13
      vertex 7.5 -12.6616 13
      vertex 7.5 19.235 13
    endloop
  endfacet
  facet normal -0 0 1
    outer loop
      vertex 6.385 -11.115 13
      vertex 7.5 -12.6616 13
      vertex 6.385 12.085 13
    endloop
  endfacet
  facet normal 0 0 1
    outer loop
      vertex 7.5 -12.6616 13
      vertex 6.385 -11.115 13
      vertex 6.78038 -12.982 13
    endloop
  endfacet
  facet normal 0 0 1
    outer loop
      vertex 7.5 19.235 13
      vertex -6.385 12.085 13
      vertex 6.385 12.085 13
    endloop
  endfacet
  facet normal 0 0 1
    outer loop
      vertex -7.5 -12.6616 13
      vertex -6.385 -11.115 13
      vertex -6.385 12.085 13
    endloop
  endfacet
  facet normal 0 -0 1
    outer loop
      vertex -6.78038 -12.982 13
      vertex -6.385 -11.115 13
      vertex -7.5 -12.6616 13
    endloop
  endfacet
  facet normal -0 0 1
    outer loop
      vertex -7.5 19.235 13
      vertex -6.385 12.085 13
      vertex 7.5 19.235 13
    endloop
  endfacet
  facet normal 0 0 1
    outer loop
      vertex -7.5 -12.6616 13
      vertex -6.385 12.085 13
      vertex -7.5 19.235 13
    endloop
  endfacet
  facet normal 0 0 1
    outer loop
      vertex -6.385 -11.115 13
      vertex -6.78038 -12.982 13
      vertex -6.39427 -13.1225 13
    endloop
  endfacet
  facet normal 0 0 1
    outer loop
      vertex 6.78038 -12.982 13
      vertex 6.385 -11.115 13
      vertex 6.39427 -13.1225 13
    endloop
  endfacet
  facet normal 0 0 1
    outer loop
      vertex 6.385 -11.115 13
      vertex 5.62103 -13.404 13
      vertex 6.39427 -13.1225 13
    endloop
  endfacet
  facet normal -0 0 1
    outer loop
      vertex 4.6925 -11.115 13
      vertex 5.62103 -13.404 13
      vertex 6.385 -11.115 13
    endloop
  endfacet
  facet normal 0 0 1
    outer loop
      vertex 5.62103 -13.404 13
      vertex 4.6925 -11.115 13
      vertex 5.59321 -13.4141 13
    endloop
  endfacet
  facet normal 0 0 1
    outer loop
      vertex 5.59321 -13.4141 13
      vertex 4.6925 -11.115 13
      vertex 4.37879 -13.7624 13
    endloop
  endfacet
  facet normal 0 0 1
    outer loop
      vertex -3.1925 -10.85 13
      vertex -4.29199 -13.7808 13
      vertex -3.1925 -14.0145 13
    endloop
  endfacet
  facet normal -0 0 1
    outer loop
      vertex -4.6925 -11.115 13
      vertex -4.29199 -13.7808 13
      vertex -3.1925 -10.85 13
    endloop
  endfacet
  facet normal 0 0 1
    outer loop
      vertex -4.29199 -13.7808 13
      vertex -4.6925 -11.115 13
      vertex -4.37428 -13.7634 13
    endloop
  endfacet
  facet normal 0 0 1
    outer loop
      vertex -4.6925 -11.115 13
      vertex -3.1925 -10.85 13
      vertex -4.6925 -10.85 13
    endloop
  endfacet
  facet normal 0 0 1
    outer loop
      vertex -4.37428 -13.7634 13
      vertex -4.6925 -11.115 13
      vertex -4.37879 -13.7624 13
    endloop
  endfacet
  facet normal 0 0 1
    outer loop
      vertex -4.6925 -11.115 13
      vertex -5.59321 -13.4141 13
      vertex -4.37879 -13.7624 13
    endloop
  endfacet
  facet normal -0 0 1
    outer loop
      vertex -6.385 -11.115 13
      vertex -5.59321 -13.4141 13
      vertex -4.6925 -11.115 13
    endloop
  endfacet
  facet normal 0 0 1
    outer loop
      vertex -5.59321 -13.4141 13
      vertex -6.385 -11.115 13
      vertex -6.36644 -13.1327 13
    endloop
  endfacet
  facet normal 0 0 1
    outer loop
      vertex -6.36644 -13.1327 13
      vertex -6.385 -11.115 13
      vertex -6.39427 -13.1225 13
    endloop
  endfacet
endsolid OpenSCAD_Model
