  0
SECTION
  2
HEADER
  9
$ACADVER
  1
AC1014
  9
$HANDSEED
  5
FFFF
  9
$MEASUREMENT
 70
     1
  0
ENDSEC
  0
SECTION
  2
TABLES
  0
TABLE
  2
VPORT
  5
8
330
0
100
AcDbSymbolTable
 70
     4
  0
VPORT
  5
2E
330
8
100
AcDbSymbolTableRecord
100
AcDbViewportTableRecord
  2
*ACTIVE
 70
     0
 10
0.0
 20
0.0
 11
1.0
 21
1.0
 12
210.0
 22
148.5
 13
0.0
 23
0.0
 14
10.0
 24
10.0
 15
10.0
 25
10.0
 16
0.0
 26
0.0
 36
1.0
 17
0.0
 27
0.0
 37
0.0
 40
341.0
 41
1.24
 42
50.0
 43
0.0
 44
0.0
 50
0.0
 51
0.0
 71
     0
 72
   100
 73
     1
 74
     3
 75
     0
 76
     0
 77
     0
 78
     0
  0
ENDTAB
  0
TABLE
  2
LTYPE
  5
5
330
0
100
AcDbSymbolTable
 70
     1
  0
LTYPE
  5
14
330
5
100
AcDbSymbolTableRecord
100
AcDbLinetypeTableRecord
  2
BYBLOCK
 70
     0
  3

 72
    65
 73
     0
 40
0.0
  0
LTYPE
  5
15
330
5
100
AcDbSymbolTableRecord
100
AcDbLinetypeTableRecord
  2
BYLAYER
 70
     0
  3

 72
    65
 73
     0
 40
0.0
  0
LTYPE
  5
16
330
5
100
AcDbSymbolTableRecord
100
AcDbLinetypeTableRecord
  2
CONTINUOUS
 70
     0
  3
Solid line
 72
    65
 73
     0
 40
0.0
  0
ENDTAB
  0
TABLE
  2
LAYER
  5
2
100
AcDbSymbolTable
 70
2
  0
LAYER
  5
50
100
AcDbSymbolTableRecord
100
AcDbLayerTableRecord
  2
0
 70
0
  6
CONTINUOUS
  0
LAYER
  5
51
100
AcDbSymbolTableRecord
100
AcDbLayerTableRecord
  2
Layer_1
 70
0
  6
CONTINUOUS
  0
ENDTAB
  0
TABLE
  2
STYLE
  5
3
330
0
100
AcDbSymbolTable
 70
     1
  0
STYLE
  5
11
330
3
100
AcDbSymbolTableRecord
100
AcDbTextStyleTableRecord
  2
STANDARD
 70
     0
 40
0.0
 41
1.0
 50
0.0
 71
     0
 42
2.5
  3
txt
  4

  0
ENDTAB
  0
TABLE
  2
VIEW
  5
6
330
0
100
AcDbSymbolTable
 70
     0
  0
ENDTAB
  0
TABLE
  2
UCS
  5
7
330
0
100
AcDbSymbolTable
 70
     0
  0
ENDTAB
  0
TABLE
  2
APPID
  5
9
330
0
100
AcDbSymbolTable
 70
     2
  0
APPID
  5
12
330
9
100
AcDbSymbolTableRecord
100
AcDbRegAppTableRecord
  2
ACAD
 70
     0
  0
ENDTAB
  0
TABLE
  2
DIMSTYLE
  5
A
330
0
100
AcDbSymbolTable
 70
     1
  0
DIMSTYLE
105
27
330
A
100
AcDbSymbolTableRecord
100
AcDbDimStyleTableRecord
  2
ISO-25
 70
     0
  3

  4

  5

  6

  7

 40
1.0
 41
2.5
 42
0.625
 43
3.75
 44
1.25
 45
0.0
 46
0.0
 47
0.0
 48
0.0
140
2.5
141
2.5
142
0.0
143
0.03937007874016
144
1.0
145
0.0
146
1.0
147
0.625
 71
     0
 72
     0
 73
     0
 74
     0
 75
     0
 76
     0
 77
     1
 78
     8
170
     0
171
     3
172
     1
173
     0
174
     0
175
     0
176
     0
177
     0
178
     0
270
     2
271
     2
272
     2
273
     2
274
     3
340
11
275
     0
280
     0
281
     0
282
     0
283
     0
284
     8
285
     0
286
     0
287
     3
288
     0
  0
ENDTAB
  0
TABLE
  2
BLOCK_RECORD
  5
1
330
0
100
AcDbSymbolTable
 70
     1
  0
BLOCK_RECORD
  5
1F
330
1
100
AcDbSymbolTableRecord
100
AcDbBlockTableRecord
  2
*MODEL_SPACE
  0
BLOCK_RECORD
  5
1B
330
1
100
AcDbSymbolTableRecord
100
AcDbBlockTableRecord
  2
*PAPER_SPACE
  0
ENDTAB
  0
ENDSEC
  0
SECTION
  2
BLOCKS
  0
BLOCK
  5
20
330
1F
100
AcDbEntity
  8
0
100
AcDbBlockBegin
  2
*MODEL_SPACE
 70
     0
 10
0.0
 20
0.0
 30
0.0
  3
*MODEL_SPACE
  1

  0
ENDBLK
  5
21
330
1F
100
AcDbEntity
  8
0
100
AcDbBlockEnd
  0
BLOCK
  5
1C
330
1B
100
AcDbEntity
 67
     1
  8
0
100
AcDbBlockBegin
  2
*PAPER_SPACE
  1

  0
ENDBLK
  5
1D
330
1B
100
AcDbEntity
 67
     1
  8
0
100
AcDbBlockEnd
  0
ENDSEC
  0
SECTION
  2
ENTITIES
  0
LWPOLYLINE
  5
100
100
AcDbEntity
  8
Layer_1
 62
7
100
AcDbPolyline
 90
7
 70
0
 10
-0.000000
 20
9.079234
 30
0.0
 10
-0.000000
 20
9.062918
 30
0.0
 10
-0.000000
 20
0.000002
 30
0.0
 10
22.030035
 20
0.000002
 30
0.0
 10
22.030035
 20
9.079234
 30
0.0
 10
-0.000000
 20
9.079234
 30
0.0
 10
-0.000000
 20
9.079234
 30
0.0
  0
LWPOLYLINE
  5
101
100
AcDbEntity
  8
Layer_1
 62
7
100
AcDbPolyline
 90
15
 70
0
 10
0.164979
 20
8.914200
 30
0.0
 10
0.388937
 20
8.914200
 30
0.0
 10
0.625574
 20
8.310730
 30
0.0
 10
0.873015
 20
8.914200
 30
0.0
 10
1.024709
 20
8.914200
 30
0.0
 10
1.277552
 20
8.310730
 30
0.0
 10
1.503329
 20
8.914200
 30
0.0
 10
1.696585
 20
8.914200
 30
0.0
 10
1.337138
 20
8.014231
 30
0.0
 10
1.190845
 20
8.014231
 30
0.0
 10
0.934420
 20
8.636884
 30
0.0
 10
0.674302
 20
8.014231
 30
0.0
 10
0.524426
 20
8.014231
 30
0.0
 10
0.164979
 20
8.914200
 30
0.0
 10
0.164979
 20
8.914200
 30
0.0
  0
LWPOLYLINE
  5
102
100
AcDbEntity
  8
Layer_1
 62
7
100
AcDbPolyline
 90
34
 70
0
 10
2.038890
 20
8.914200
 30
0.0
 10
2.702498
 20
8.914200
 30
0.0
 10
2.702498
 20
8.760742
 30
0.0
 10
2.103989
 20
8.760742
 30
0.0
 10
2.073947
 20
8.754072
 30
0.0
 10
2.046993
 20
8.735055
 30
0.0
 10
2.029591
 20
8.708288
 30
0.0
 10
2.022519
 20
8.675579
 30
0.0
 10
2.022519
 20
8.560155
 30
0.0
 10
2.419174
 20
8.560155
 30
0.0
 10
2.419174
 20
8.406641
 30
0.0
 10
2.022519
 20
8.406641
 30
0.0
 10
2.022519
 20
8.268617
 30
0.0
 10
2.029594
 20
8.235908
 30
0.0
 10
2.046993
 20
8.209141
 30
0.0
 10
2.073947
 20
8.190124
 30
0.0
 10
2.105091
 20
8.183399
 30
0.0
 10
2.710822
 20
8.183399
 30
0.0
 10
2.710822
 20
8.014231
 30
0.0
 10
2.038890
 20
8.014231
 30
0.0
 10
1.995174
 20
8.018816
 30
0.0
 10
1.954504
 20
8.031971
 30
0.0
 10
1.885733
 20
8.080409
 30
0.0
 10
1.839439
 20
8.152367
 30
0.0
 10
1.826865
 20
8.194924
 30
0.0
 10
1.822483
 20
8.240670
 30
0.0
 10
1.822483
 20
8.687761
 30
0.0
 10
1.826865
 20
8.733507
 30
0.0
 10
1.839439
 20
8.776064
 30
0.0
 10
1.885733
 20
8.848023
 30
0.0
 10
1.954504
 20
8.896460
 30
0.0
 10
1.995174
 20
8.909616
 30
0.0
 10
2.038890
 20
8.914200
 30
0.0
 10
2.038890
 20
8.914200
 30
0.0
  0
LWPOLYLINE
  5
103
100
AcDbEntity
  8
Layer_1
 62
7
100
AcDbPolyline
 90
11
 70
0
 10
2.835010
 20
8.914200
 30
0.0
 10
3.101688
 20
8.914200
 30
0.0
 10
3.396754
 20
8.568864
 30
0.0
 10
3.693418
 20
8.914200
 30
0.0
 10
3.928401
 20
8.914200
 30
0.0
 10
3.483405
 20
8.422351
 30
0.0
 10
3.483405
 20
8.014231
 30
0.0
 10
3.281715
 20
8.014231
 30
0.0
 10
3.281715
 20
8.417114
 30
0.0
 10
2.835010
 20
8.914200
 30
0.0
 10
2.835010
 20
8.914200
 30
0.0
  0
LWPOLYLINE
  5
104
100
AcDbEntity
  8
Layer_1
 62
7
100
AcDbPolyline
 90
18
 70
0
 10
4.120941
 20
8.914200
 30
0.0
 10
4.320977
 20
8.914200
 30
0.0
 10
4.320977
 20
8.271373
 30
0.0
 10
4.327751
 20
8.237064
 30
0.0
 10
4.345726
 20
8.209086
 30
0.0
 10
4.372681
 20
8.190069
 30
0.0
 10
4.403383
 20
8.183399
 30
0.0
 10
4.966009
 20
8.183399
 30
0.0
 10
4.966009
 20
8.014231
 30
0.0
 10
4.337348
 20
8.014231
 30
0.0
 10
4.293631
 20
8.018813
 30
0.0
 10
4.252961
 20
8.031963
 30
0.0
 10
4.184190
 20
8.080381
 30
0.0
 10
4.137897
 20
8.152320
 30
0.0
 10
4.125322
 20
8.194871
 30
0.0
 10
4.120941
 20
8.240615
 30
0.0
 10
4.120941
 20
8.914200
 30
0.0
 10
4.120941
 20
8.914200
 30
0.0
  0
LWPOLYLINE
  5
105
100
AcDbEntity
  8
Layer_1
 62
7
100
AcDbPolyline
 90
16
 70
0
 10
5.621404
 20
8.914200
 30
0.0
 10
5.701440
 20
8.914200
 30
0.0
 10
5.749506
 20
8.902735
 30
0.0
 10
5.774862
 20
8.881789
 30
0.0
 10
5.781311
 20
8.871591
 30
0.0
 10
6.251277
 20
8.014231
 30
0.0
 10
6.026271
 20
8.014231
 30
0.0
 10
5.922918
 20
8.211290
 30
0.0
 10
5.377877
 20
8.211290
 30
0.0
 10
5.277886
 20
8.014231
 30
0.0
 10
5.077850
 20
8.014231
 30
0.0
 10
5.541477
 20
8.871481
 30
0.0
 10
5.547982
 20
8.881789
 30
0.0
 10
5.573338
 20
8.902735
 30
0.0
 10
5.621404
 20
8.914200
 30
0.0
 10
5.621404
 20
8.914200
 30
0.0
  0
LWPOLYLINE
  5
106
100
AcDbEntity
  8
Layer_1
 62
7
100
AcDbPolyline
 90
31
 70
0
 10
6.529806
 20
8.914200
 30
0.0
 10
6.529862
 20
8.914200
 30
0.0
 10
6.529972
 20
8.914200
 30
0.0
 10
6.561381
 20
8.909192
 30
0.0
 10
6.589503
 20
8.894908
 30
0.0
 10
7.172523
 20
8.383986
 30
0.0
 10
7.270860
 20
8.286311
 30
0.0
 10
7.262592
 20
8.441533
 30
0.0
 10
7.262592
 20
8.914200
 30
0.0
 10
7.442564
 20
8.914200
 30
0.0
 10
7.442564
 20
8.108930
 30
0.0
 10
7.442564
 20
8.106890
 30
0.0
 10
7.434195
 20
8.070711
 30
0.0
 10
7.412869
 20
8.041282
 30
0.0
 10
7.381669
 20
8.021493
 30
0.0
 10
7.343676
 20
8.014231
 30
0.0
 10
7.312637
 20
8.019069
 30
0.0
 10
7.284751
 20
8.032972
 30
0.0
 10
7.284475
 20
8.033083
 30
0.0
 10
6.674170
 20
8.570628
 30
0.0
 10
6.602512
 20
8.643884
 30
0.0
 10
6.610835
 20
8.506080
 30
0.0
 10
6.610835
 20
8.014231
 30
0.0
 10
6.430808
 20
8.014231
 30
0.0
 10
6.430808
 20
8.822147
 30
0.0
 10
6.431084
 20
8.822147
 30
0.0
 10
6.439611
 20
8.858095
 30
0.0
 10
6.460936
 20
8.887311
 30
0.0
 10
6.492015
 20
8.906958
 30
0.0
 10
6.529806
 20
8.914200
 30
0.0
 10
6.529806
 20
8.914200
 30
0.0
  0
LWPOLYLINE
  5
107
100
AcDbEntity
  8
Layer_1
 62
7
100
AcDbPolyline
 90
21
 70
0
 10
7.673523
 20
8.914200
 30
0.0
 10
8.226888
 20
8.914200
 30
0.0
 10
8.332518
 20
8.907664
 30
0.0
 10
8.426066
 20
8.888052
 30
0.0
 10
8.507530
 20
8.855359
 30
0.0
 10
8.576910
 20
8.809580
 30
0.0
 10
8.638890
 20
8.745148
 30
0.0
 10
8.683159
 20
8.666972
 30
0.0
 10
8.709719
 20
8.575062
 30
0.0
 10
8.718572
 20
8.469425
 30
0.0
 10
8.706697
 20
8.347224
 30
0.0
 10
8.671072
 20
8.242245
 30
0.0
 10
8.611696
 20
8.154490
 30
0.0
 10
8.528568
 20
8.083960
 30
0.0
 10
8.465860
 20
8.053443
 30
0.0
 10
8.386072
 20
8.031654
 30
0.0
 10
8.289200
 20
8.018586
 30
0.0
 10
8.175239
 20
8.014231
 30
0.0
 10
7.673523
 20
8.014231
 30
0.0
 10
7.673523
 20
8.914200
 30
0.0
 10
7.673523
 20
8.914200
 30
0.0
  0
LWPOLYLINE
  5
108
100
AcDbEntity
  8
Layer_1
 62
7
100
AcDbPolyline
 90
11
 70
0
 10
9.515684
 20
8.914200
 30
0.0
 10
9.782362
 20
8.914200
 30
0.0
 10
10.077373
 20
8.568864
 30
0.0
 10
10.374092
 20
8.914200
 30
0.0
 10
10.609075
 20
8.914200
 30
0.0
 10
10.164079
 20
8.422351
 30
0.0
 10
10.164079
 20
8.014231
 30
0.0
 10
9.962389
 20
8.014231
 30
0.0
 10
9.962389
 20
8.417114
 30
0.0
 10
9.515684
 20
8.914200
 30
0.0
 10
9.515684
 20
8.914200
 30
0.0
  0
LWPOLYLINE
  5
109
100
AcDbEntity
  8
Layer_1
 62
7
100
AcDbPolyline
 90
22
 70
0
 10
10.801615
 20
8.914200
 30
0.0
 10
11.001651
 20
8.914200
 30
0.0
 10
11.001651
 20
8.183399
 30
0.0
 10
11.571662
 20
8.183399
 30
0.0
 10
11.571662
 20
8.914200
 30
0.0
 10
11.771698
 20
8.914200
 30
0.0
 10
11.771698
 20
8.227000
 30
0.0
 10
11.760022
 20
8.121922
 30
0.0
 10
11.745431
 20
8.084755
 30
0.0
 10
11.725010
 20
8.057832
 30
0.0
 10
11.697715
 20
8.038756
 30
0.0
 10
11.660834
 20
8.025131
 30
0.0
 10
11.558323
 20
8.014231
 30
0.0
 10
11.014990
 20
8.014231
 30
0.0
 10
10.912067
 20
8.025131
 30
0.0
 10
10.874669
 20
8.038756
 30
0.0
 10
10.846649
 20
8.057832
 30
0.0
 10
10.826955
 20
8.084755
 30
0.0
 10
10.812881
 20
8.121922
 30
0.0
 10
10.801615
 20
8.227000
 30
0.0
 10
10.801615
 20
8.914200
 30
0.0
 10
10.801615
 20
8.914200
 30
0.0
  0
LWPOLYLINE
  5
10a
100
AcDbEntity
  8
Layer_1
 62
7
100
AcDbPolyline
 90
10
 70
0
 10
11.975648
 20
8.914200
 30
0.0
 10
12.967339
 20
8.914200
 30
0.0
 10
12.967339
 20
8.753741
 30
0.0
 10
12.570630
 20
8.753741
 30
0.0
 10
12.570630
 20
8.014231
 30
0.0
 10
12.370649
 20
8.014231
 30
0.0
 10
12.370649
 20
8.753741
 30
0.0
 10
11.975648
 20
8.753741
 30
0.0
 10
11.975648
 20
8.914200
 30
0.0
 10
11.975648
 20
8.914200
 30
0.0
  0
LWPOLYLINE
  5
10b
100
AcDbEntity
  8
Layer_1
 62
7
100
AcDbPolyline
 90
16
 70
0
 10
13.437912
 20
8.914200
 30
0.0
 10
13.518004
 20
8.914200
 30
0.0
 10
13.566069
 20
8.902735
 30
0.0
 10
13.591480
 20
8.881789
 30
0.0
 10
13.597158
 20
8.872804
 30
0.0
 10
14.067841
 20
8.014231
 30
0.0
 10
13.842835
 20
8.014231
 30
0.0
 10
13.739482
 20
8.211290
 30
0.0
 10
13.194495
 20
8.211290
 30
0.0
 10
13.094450
 20
8.014231
 30
0.0
 10
12.894469
 20
8.014231
 30
0.0
 10
13.358647
 20
8.872639
 30
0.0
 10
13.364435
 20
8.881789
 30
0.0
 10
13.389846
 20
8.902735
 30
0.0
 10
13.437912
 20
8.914200
 30
0.0
 10
13.437912
 20
8.914200
 30
0.0
  0
LWPOLYLINE
  5
10c
100
AcDbEntity
  8
Layer_1
 62
7
100
AcDbPolyline
 90
29
 70
0
 10
14.403696
 20
8.914200
 30
0.0
 10
14.403751
 20
8.914200
 30
0.0
 10
14.403917
 20
8.914200
 30
0.0
 10
14.435297
 20
8.909184
 30
0.0
 10
14.463393
 20
8.894908
 30
0.0
 10
15.046413
 20
8.383986
 30
0.0
 10
15.144695
 20
8.286311
 30
0.0
 10
15.136427
 20
8.441533
 30
0.0
 10
15.136427
 20
8.914200
 30
0.0
 10
15.316398
 20
8.914200
 30
0.0
 10
15.316398
 20
8.106890
 30
0.0
 10
15.308029
 20
8.070711
 30
0.0
 10
15.286704
 20
8.041282
 30
0.0
 10
15.255504
 20
8.021493
 30
0.0
 10
15.217510
 20
8.014231
 30
0.0
 10
15.186375
 20
8.019097
 30
0.0
 10
15.158420
 20
8.033083
 30
0.0
 10
14.548170
 20
8.570628
 30
0.0
 10
14.476512
 20
8.643884
 30
0.0
 10
14.484835
 20
8.506080
 30
0.0
 10
14.484835
 20
8.014231
 30
0.0
 10
14.304808
 20
8.014231
 30
0.0
 10
14.304808
 20
8.822147
 30
0.0
 10
14.305084
 20
8.822147
 30
0.0
 10
14.313600
 20
8.858070
 30
0.0
 10
14.334896
 20
8.887274
 30
0.0
 10
14.365940
 20
8.906928
 30
0.0
 10
14.403696
 20
8.914200
 30
0.0
 10
14.403696
 20
8.914200
 30
0.0
  0
LWPOLYLINE
  5
10d
100
AcDbEntity
  8
Layer_1
 62
7
100
AcDbPolyline
 90
6
 70
0
 10
15.658758
 20
8.914200
 30
0.0
 10
15.858739
 20
8.914200
 30
0.0
 10
15.858739
 20
8.014231
 30
0.0
 10
15.658758
 20
8.014231
 30
0.0
 10
15.658758
 20
8.914200
 30
0.0
 10
15.658758
 20
8.914200
 30
0.0
  0
LWPOLYLINE
  5
10e
100
AcDbEntity
  8
Layer_1
 62
7
100
AcDbPolyline
 90
22
 70
0
 10
17.114187
 20
8.914200
 30
0.0
 10
17.842012
 20
8.914200
 30
0.0
 10
17.842012
 20
8.753741
 30
0.0
 10
17.100792
 20
8.753741
 30
0.0
 10
17.100792
 20
8.183399
 30
0.0
 10
17.842012
 20
8.183399
 30
0.0
 10
17.842012
 20
8.014231
 30
0.0
 10
17.114187
 20
8.014231
 30
0.0
 10
17.011237
 20
8.025131
 30
0.0
 10
16.973821
 20
8.038756
 30
0.0
 10
16.945791
 20
8.057832
 30
0.0
 10
16.926105
 20
8.084755
 30
0.0
 10
16.912050
 20
8.121922
 30
0.0
 10
16.900812
 20
8.227000
 30
0.0
 10
16.900812
 20
8.701431
 30
0.0
 10
16.912050
 20
8.806509
 30
0.0
 10
16.926105
 20
8.843676
 30
0.0
 10
16.945791
 20
8.870599
 30
0.0
 10
16.973821
 20
8.889675
 30
0.0
 10
17.011237
 20
8.903301
 30
0.0
 10
17.114187
 20
8.914200
 30
0.0
 10
17.114187
 20
8.914200
 30
0.0
  0
LWPOLYLINE
  5
10f
100
AcDbEntity
  8
Layer_1
 62
7
100
AcDbPolyline
 90
30
 70
0
 10
18.408275
 20
8.914200
 30
0.0
 10
19.041621
 20
8.914200
 30
0.0
 10
19.144134
 20
8.903301
 30
0.0
 10
19.181015
 20
8.889675
 30
0.0
 10
19.208309
 20
8.870599
 30
0.0
 10
19.228722
 20
8.843676
 30
0.0
 10
19.243294
 20
8.806509
 30
0.0
 10
19.254942
 20
8.701431
 30
0.0
 10
19.254942
 20
8.227000
 30
0.0
 10
19.243294
 20
8.121922
 30
0.0
 10
19.228722
 20
8.084755
 30
0.0
 10
19.208309
 20
8.057832
 30
0.0
 10
19.181015
 20
8.038756
 30
0.0
 10
19.144134
 20
8.025131
 30
0.0
 10
19.041621
 20
8.014231
 30
0.0
 10
18.408275
 20
8.014231
 30
0.0
 10
18.305354
 20
8.025131
 30
0.0
 10
18.267957
 20
8.038756
 30
0.0
 10
18.239934
 20
8.057832
 30
0.0
 10
18.220241
 20
8.084755
 30
0.0
 10
18.206167
 20
8.121922
 30
0.0
 10
18.194900
 20
8.227000
 30
0.0
 10
18.194900
 20
8.701431
 30
0.0
 10
18.206167
 20
8.806509
 30
0.0
 10
18.220241
 20
8.843676
 30
0.0
 10
18.239934
 20
8.870599
 30
0.0
 10
18.267957
 20
8.889675
 30
0.0
 10
18.305354
 20
8.903301
 30
0.0
 10
18.408275
 20
8.914200
 30
0.0
 10
18.408275
 20
8.914200
 30
0.0
  0
LWPOLYLINE
  5
110
100
AcDbEntity
  8
Layer_1
 62
7
100
AcDbPolyline
 90
21
 70
0
 10
19.637595
 20
8.914200
 30
0.0
 10
20.374295
 20
8.914200
 30
0.0
 10
20.458878
 20
8.903301
 30
0.0
 10
20.519287
 20
8.870602
 30
0.0
 10
20.555527
 20
8.816101
 30
0.0
 10
20.567606
 20
8.739796
 30
0.0
 10
20.567606
 20
8.528735
 30
0.0
 10
20.561358
 20
8.469541
 30
0.0
 10
20.542613
 20
8.422770
 30
0.0
 10
20.511366
 20
8.388426
 30
0.0
 10
20.467615
 20
8.366513
 30
0.0
 10
20.396793
 20
8.357370
 30
0.0
 10
20.260965
 20
8.354331
 30
0.0
 10
20.657619
 20
8.014231
 30
0.0
 10
20.370932
 20
8.014231
 30
0.0
 10
20.024273
 20
8.354331
 30
0.0
 10
19.834269
 20
8.354331
 30
0.0
 10
19.834269
 20
8.014231
 30
0.0
 10
19.637595
 20
8.014231
 30
0.0
 10
19.637595
 20
8.914200
 30
0.0
 10
19.637595
 20
8.914200
 30
0.0
  0
LWPOLYLINE
  5
111
100
AcDbEntity
  8
Layer_1
 62
7
100
AcDbPolyline
 90
16
 70
0
 10
20.934936
 20
8.914200
 30
0.0
 10
21.671635
 20
8.914200
 30
0.0
 10
21.756227
 20
8.903301
 30
0.0
 10
21.816654
 20
8.870602
 30
0.0
 10
21.852914
 20
8.816101
 30
0.0
 10
21.865001
 20
8.739796
 30
0.0
 10
21.865001
 20
8.539208
 30
0.0
 10
21.852914
 20
8.462903
 30
0.0
 10
21.816654
 20
8.408402
 30
0.0
 10
21.756227
 20
8.375703
 30
0.0
 10
21.671635
 20
8.364804
 30
0.0
 10
21.131609
 20
8.364804
 30
0.0
 10
21.131609
 20
8.014231
 30
0.0
 10
20.934936
 20
8.014231
 30
0.0
 10
20.934936
 20
8.914200
 30
0.0
 10
20.934936
 20
8.914200
 30
0.0
  0
LWPOLYLINE
  5
112
100
AcDbEntity
  8
Layer_1
 62
7
100
AcDbPolyline
 90
14
 70
0
 10
19.834269
 20
8.758978
 30
0.0
 10
19.834269
 20
8.507789
 30
0.0
 10
20.284281
 20
8.507789
 30
0.0
 10
20.323860
 20
8.510855
 30
0.0
 10
20.349270
 20
8.520026
 30
0.0
 10
20.368033
 20
8.541833
 30
0.0
 10
20.374295
 20
8.579337
 30
0.0
 10
20.374295
 20
8.687485
 30
0.0
 10
20.368033
 20
8.724962
 30
0.0
 10
20.349270
 20
8.746741
 30
0.0
 10
20.323860
 20
8.755912
 30
0.0
 10
20.284281
 20
8.758978
 30
0.0
 10
19.834269
 20
8.758978
 30
0.0
 10
19.834269
 20
8.758978
 30
0.0
  0
LWPOLYLINE
  5
113
100
AcDbEntity
  8
Layer_1
 62
7
100
AcDbPolyline
 90
14
 70
0
 10
21.131609
 20
8.758978
 30
0.0
 10
21.131609
 20
8.520026
 30
0.0
 10
21.581677
 20
8.520026
 30
0.0
 10
21.621253
 20
8.523065
 30
0.0
 10
21.646665
 20
8.532208
 30
0.0
 10
21.665401
 20
8.554015
 30
0.0
 10
21.671635
 20
8.591519
 30
0.0
 10
21.671635
 20
8.687485
 30
0.0
 10
21.665400
 20
8.724962
 30
0.0
 10
21.646665
 20
8.746741
 30
0.0
 10
21.621253
 20
8.755912
 30
0.0
 10
21.581677
 20
8.758978
 30
0.0
 10
21.131609
 20
8.758978
 30
0.0
 10
21.131609
 20
8.758978
 30
0.0
  0
LWPOLYLINE
  5
114
100
AcDbEntity
  8
Layer_1
 62
7
100
AcDbPolyline
 90
20
 70
0
 10
7.873559
 20
8.753741
 30
0.0
 10
7.873559
 20
8.183399
 30
0.0
 10
8.131914
 20
8.183399
 30
0.0
 10
8.290255
 20
8.195609
 30
0.0
 10
8.350673
 20
8.210871
 30
0.0
 10
8.398592
 20
8.232237
 30
0.0
 10
8.448176
 20
8.272138
 30
0.0
 10
8.483591
 20
8.325560
 30
0.0
 10
8.504839
 20
8.392500
 30
0.0
 10
8.511922
 20
8.472952
 30
0.0
 10
8.507493
 20
8.538766
 30
0.0
 10
8.494207
 20
8.595803
 30
0.0
 10
8.472065
 20
8.644064
 30
0.0
 10
8.441068
 20
8.683549
 30
0.0
 10
8.401216
 20
8.714259
 30
0.0
 10
8.352511
 20
8.736194
 30
0.0
 10
8.294952
 20
8.749355
 30
0.0
 10
8.228542
 20
8.753741
 30
0.0
 10
7.873559
 20
8.753741
 30
0.0
 10
7.873559
 20
8.753741
 30
0.0
  0
LWPOLYLINE
  5
115
100
AcDbEntity
  8
Layer_1
 62
7
100
AcDbPolyline
 90
6
 70
0
 10
18.394936
 20
8.753741
 30
0.0
 10
18.394936
 20
8.183399
 30
0.0
 10
19.054961
 20
8.183399
 30
0.0
 10
19.054961
 20
8.753741
 30
0.0
 10
18.394936
 20
8.753741
 30
0.0
 10
18.394936
 20
8.753741
 30
0.0
  0
LWPOLYLINE
  5
116
100
AcDbEntity
  8
Layer_1
 62
7
100
AcDbPolyline
 90
5
 70
0
 10
5.654587
 20
8.739796
 30
0.0
 10
5.462929
 20
8.373513
 30
0.0
 10
5.839575
 20
8.373513
 30
0.0
 10
5.654587
 20
8.739796
 30
0.0
 10
5.654587
 20
8.739796
 30
0.0
  0
LWPOLYLINE
  5
117
100
AcDbEntity
  8
Layer_1
 62
7
100
AcDbPolyline
 90
5
 70
0
 10
13.471150
 20
8.739796
 30
0.0
 10
13.279437
 20
8.373513
 30
0.0
 10
13.656138
 20
8.373513
 30
0.0
 10
13.471150
 20
8.739796
 30
0.0
 10
13.471150
 20
8.739796
 30
0.0
  0
LWPOLYLINE
  5
118
100
AcDbEntity
  8
Layer_1
 62
7
100
AcDbPolyline
 90
6
 70
0
 10
9.072783
 20
8.568864
 30
0.0
 10
9.461169
 20
8.568864
 30
0.0
 10
9.461169
 20
8.389223
 30
0.0
 10
9.072783
 20
8.389223
 30
0.0
 10
9.072783
 20
8.568864
 30
0.0
 10
9.072783
 20
8.568864
 30
0.0
  0
LWPOLYLINE
  5
119
100
AcDbEntity
  8
Layer_1
 62
7
100
AcDbPolyline
 90
13
 70
0
 10
0.029986
 20
7.864245
 30
0.0
 10
21.999994
 20
7.864245
 30
0.0
 10
21.999994
 20
7.133168
 30
0.0
 10
19.464404
 20
7.133168
 30
0.0
 10
15.660798
 20
3.329618
 30
0.0
 10
11.857247
 20
7.133168
 30
0.0
 10
11.015045
 20
7.133168
 30
0.0
 10
10.172843
 20
7.133168
 30
0.0
 10
6.369292
 20
3.329618
 30
0.0
 10
2.565687
 20
7.133168
 30
0.0
 10
0.029986
 20
7.133168
 30
0.0
 10
0.029986
 20
7.864245
 30
0.0
 10
0.029986
 20
7.864245
 30
0.0
  0
LWPOLYLINE
  5
11a
100
AcDbEntity
  8
Layer_1
 62
7
100
AcDbPolyline
 90
7
 70
0
 10
4.776831
 20
7.133168
 30
0.0
 10
4.776831
 20
6.310700
 30
0.0
 10
6.391396
 20
4.696136
 30
0.0
 10
8.043499
 20
6.348293
 30
0.0
 10
7.258623
 20
7.133168
 30
0.0
 10
4.776831
 20
7.133168
 30
0.0
 10
4.776831
 20
7.133168
 30
0.0
  0
LWPOLYLINE
  5
11b
100
AcDbEntity
  8
Layer_1
 62
7
100
AcDbPolyline
 90
7
 70
0
 10
14.771467
 20
7.133168
 30
0.0
 10
13.986536
 20
6.348293
 30
0.0
 10
15.638694
 20
4.696136
 30
0.0
 10
17.253259
 20
6.310700
 30
0.0
 10
17.253259
 20
7.133168
 30
0.0
 10
14.771467
 20
7.133168
 30
0.0
 10
14.771467
 20
7.133168
 30
0.0
  0
LWPOLYLINE
  5
11c
100
AcDbEntity
  8
Layer_1
 62
7
100
AcDbPolyline
 90
11
 70
0
 10
0.029986
 20
6.065740
 30
0.0
 10
5.331520
 20
0.764207
 30
0.0
 10
7.407010
 20
0.764207
 30
0.0
 10
11.015045
 20
4.372241
 30
0.0
 10
14.623025
 20
0.764207
 30
0.0
 10
16.698516
 20
0.764207
 30
0.0
 10
21.999994
 20
6.065630
 30
0.0
 10
21.999994
 20
0.032744
 30
0.0
 10
0.029986
 20
0.032744
 30
0.0
 10
0.029986
 20
6.065740
 30
0.0
 10
0.029986
 20
6.065740
 30
0.0
  0
LWPOLYLINE
  5
11d
100
AcDbEntity
  8
Layer_1
 62
7
100
AcDbPolyline
 90
10
 70
0
 10
11.015045
 20
3.027772
 30
0.0
 10
9.582602
 20
1.595384
 30
0.0
 10
9.582602
 20
1.504930
 30
0.0
 10
9.582602
 20
0.764207
 30
0.0
 10
11.015045
 20
0.764207
 30
0.0
 10
12.447433
 20
0.764207
 30
0.0
 10
12.447433
 20
1.504930
 30
0.0
 10
12.447433
 20
1.595384
 30
0.0
 10
11.015045
 20
3.027772
 30
0.0
 10
11.015045
 20
3.027772
 30
0.0
  0
ENDSEC
  0
SECTION
  2
OBJECTS
  0
DICTIONARY
  5
C
330
0
100
AcDbDictionary
  3
ACAD_GROUP
350
D
  3
ACAD_MLINESTYLE
350
17
  0
DICTIONARY
  5
D
330
C
100
AcDbDictionary
  0
DICTIONARY
  5
1A
330
C
100
AcDbDictionary
  0
DICTIONARY
  5
17
330
C
100
AcDbDictionary
  3
STANDARD
350
18
  0
DICTIONARY
  5
19
330
C
100
AcDbDictionary
  0
ENDSEC
  0
EOF
