<?xml version="1.0" encoding="UTF-8" standalone="no"?>
<!-- Created with Inkscape (http://www.inkscape.org/) -->

<svg
   xmlns:dc="http://purl.org/dc/elements/1.1/"
   xmlns:cc="http://creativecommons.org/ns#"
   xmlns:rdf="http://www.w3.org/1999/02/22-rdf-syntax-ns#"
   xmlns:svg="http://www.w3.org/2000/svg"
   xmlns="http://www.w3.org/2000/svg"
   xmlns:sodipodi="http://sodipodi.sourceforge.net/DTD/sodipodi-0.dtd"
   xmlns:inkscape="http://www.inkscape.org/namespaces/inkscape"
   width="50.000008mm"
   height="12.999999mm"
   viewBox="0 0 177.1654 46.06299"
   id="svg2"
   version="1.1"
   inkscape:version="0.91 r13725"
   sodipodi:docname="design.svg">
  <sodipodi:namedview
     id="base"
     pagecolor="#ffffff"
     bordercolor="#666666"
     borderopacity="1.0"
     inkscape:pageopacity="0.0"
     inkscape:pageshadow="2"
     inkscape:zoom="5.6568542"
     inkscape:cx="84.913076"
     inkscape:cy="34.915603"
     inkscape:document-units="mm"
     inkscape:current-layer="layer1"
     showgrid="true"
     fit-margin-top="0"
     fit-margin-left="0"
     fit-margin-right="0"
     fit-margin-bottom="0"
     inkscape:window-width="1920"
     inkscape:window-height="1029"
     inkscape:window-x="1600"
     inkscape:window-y="25"
     inkscape:window-maximized="1"
     showguides="false"
     inkscape:snap-global="false"
     inkscape:snap-bbox="true"
     inkscape:bbox-paths="true"
     inkscape:bbox-nodes="true"
     inkscape:snap-bbox-edge-midpoints="true"
     inkscape:snap-bbox-midpoints="true"
     inkscape:object-paths="true"
     inkscape:snap-intersection-paths="true"
     inkscape:object-nodes="true"
     inkscape:snap-smooth-nodes="true"
     inkscape:snap-object-midpoints="true"
     inkscape:snap-center="true">
    <inkscape:grid
       type="xygrid"
       id="grid4319"
       empcolor="#3f3fff"
       empopacity="0.26666667"
       color="#3f3fff"
       opacity="0.19215686"
       originx="-969.78365"
       originy="-718.93704" />
  </sodipodi:namedview>
  <defs
     id="defs4" />
  <metadata
     id="metadata7">
    <rdf:RDF>
      <cc:Work
         rdf:about="">
        <dc:format>image/svg+xml</dc:format>
        <dc:type
           rdf:resource="http://purl.org/dc/dcmitype/StillImage" />
        <dc:title></dc:title>
      </cc:Work>
    </rdf:RDF>
  </metadata>
  <g
     inkscape:label="Layer 1"
     inkscape:groupmode="layer"
     id="layer1"
     transform="translate(-969.78351,-287.36218)">
    <g
       id="layer1-0"
       inkscape:label="Layer 1"
       transform="matrix(0.34003939,0,0,0.34003939,-98.835389,-17.02608)">
      <g
         id="g4531"
         transform="matrix(0.99506107,0,0,0.99995048,1539.2753,-107.54376)">
        <g
           transform="matrix(0.3574934,0,0,0.41524149,1100.2387,663.7409)"
           id="g4519">
          <g
             transform="matrix(1.0493589,0,0,1.0493589,-84.522912,-55.326559)"
             id="g4523" />
        </g>
      </g>
    </g>
    <path
       style="fill:#000080;fill-opacity:0.61904764;stroke:none;stroke-width:0.70866144;stroke-linecap:square;stroke-linejoin:miter;stroke-miterlimit:4;stroke-dasharray:none;stroke-opacity:1"
       d="m 969.99965,287.36218 c -0.1192,0 -0.21614,0.0902 -0.21614,0.20332 l 0,45.65635 c 0,0.11312 0.0969,0.20332 0.21614,0.20332 l 176.73505,0 c 0.1191,0 0.2142,-0.0902 0.2142,-0.20332 l 0,-45.65635 c 0,-0.11312 -0.095,-0.20332 -0.2142,-0.20332 z m 17.74025,4.52712 9.21424,0.0324 0.52516,0.29689 c 0.34008,0.19147 0.63238,0.47142 0.83232,0.79711 l 0.30713,0.50201 0.0208,16.64205 c 0.0175,13.66709 -0.006,16.7344 -0.12893,17.17107 -0.206,0.73232 -0.93922,1.37395 -1.75753,1.53663 -0.40339,0.0799 -3.42921,0.10676 -9.74129,0.0863 -9.13123,-0.0298 -9.15614,-0.0289 -9.59912,-0.2573 -0.5574,-0.2873 -0.88349,-0.62058 -1.10342,-1.12459 -0.15263,-0.34989 -0.17254,-2.2714 -0.17254,-17.20165 0,-16.51565 0.003,-16.81599 0.21803,-17.21964 0.30771,-0.5776 0.93883,-1.04262 1.60586,-1.18037 0.38745,-0.08 3.41923,-0.10394 9.77923,-0.081 z m 53.3432,0.30409 -0.089,1.49885 -0.086,1.54922 -3.1188,0.0863 c -0.944,0.0261 -1.8848,0.0723 -2.6448,0.12415 -0.7599,0.0519 -1.2977,0.0975 -1.5907,0.17274 -0.5373,0.13805 -1.0317,0.46923 -1.4087,0.86908 -0.3769,0.39985 -0.6483,0.86898 -0.6483,1.3567 0,0.20694 0.1584,0.43897 0.3697,0.5452 0.2111,0.1062 0.4681,0.15941 0.8399,0.20152 0.7433,0.0842 1.9436,0.10617 3.9132,0.10617 l 4.461,0 -0.087,1.47725 -0.086,1.52764 -4.4459,0.17813 -5.3238,0.21052 1.0276,1.41248 c 0.3354,0.46085 0.6845,0.79714 1.3726,0.96265 0.6883,0.16553 1.7106,0.22011 3.6137,0.30948 l 3.7558,0.17813 0.086,1.52764 0.087,1.47725 -4.2014,-0.018 c -1.4584,-0.006 -2.702,-0.0533 -3.678,-0.14215 -0.9761,-0.0889 -1.6926,-0.22523 -2.0457,-0.36526 -1.7144,-0.68015 -2.416,-1.43869 -3.3501,-3.65085 -1.5637,-3.70334 -0.5446,-8.3323 2.1955,-10.35158 0.6967,-0.51343 1.0174,-0.73532 1.8125,-0.87988 0.7951,-0.1446 2.0773,-0.18719 4.535,-0.24651 l 4.7341,-0.11695 z m -33.8428,0.0485 0,0 7.5325,0 7.5535,0 0,1.59241 0,1.58881 -2.5823,0 -3.2249,0 0,6.58018 0,5.96119 -1.8979,0 -1.8959,0 0,-5.945 0,-6.54958 -2.9577,-0.12236 -2.3547,-0.10076 -0.087,-1.52403 -0.087,-1.48086 z m 70.7519,0 5.6649,0 0,1.59241 0,1.58881 -4.9804,0 c -2.213,0 -3.5489,0.0246 -4.3834,0.11156 -0.4173,0.0434 -0.7118,0.0995 -0.9462,0.19973 -0.2343,0.10024 -0.4133,0.27938 -0.4815,0.47682 -0.1212,0.35146 -0.1702,0.68866 -0.042,1.00044 0.1285,0.31176 0.4224,0.53603 0.8133,0.68734 0.7818,0.30258 2.0437,0.41444 4.1085,0.49122 2.973,0.1105 4.2268,0.3315 4.9825,0.78091 0.8992,0.5346 1.5477,1.61615 1.803,2.85555 0.2555,1.23939 0.1164,2.61943 -0.4816,3.71022 -0.5855,1.06826 -0.9737,1.55317 -2.1291,1.85872 -1.1555,0.30554 -3.1138,0.36886 -6.6338,0.36886 l -6.0102,0 0,-1.59061 0,-1.59241 4.9276,0 c 2.7274,0 4.2991,-0.0459 5.227,-0.30408 0.464,-0.12906 0.8092,-0.33664 0.9595,-0.66576 0.1501,-0.32911 0.084,-0.68328 -0.046,-1.05801 -0.085,-0.24783 -0.2412,-0.47942 -0.4759,-0.65136 -0.2345,-0.17197 -0.5333,-0.28699 -0.9176,-0.37247 -0.7684,-0.17086 -1.9008,-0.22685 -3.6781,-0.2465 -0.8314,-0.009 -1.723,-0.0727 -2.4836,-0.16374 -0.761,-0.091 -1.4084,-0.22169 -1.6647,-0.32388 -2.2243,-0.88753 -3.203,-4.14825 -1.877,-6.56758 0.5448,-0.99399 0.9994,-1.47727 2.2012,-1.79034 1.2017,-0.31304 3.1678,-0.39585 6.5429,-0.39585 z m 13.0938,0 1.8959,0 1.8978,0 0,7.86309 0,7.8595 -1.8978,0 -1.8959,0 0,-7.8595 z m 20.211,0 4.025,0 0,1.59241 0,1.58881 -3.6193,0 c -1.8789,0 -2.878,0.006 -3.5701,0.14395 -0.692,0.13757 -1.0628,0.45678 -1.4788,0.91947 -0.2535,0.28214 -0.4577,0.57939 -0.5914,0.85288 -0.067,0.13674 -0.1163,0.26746 -0.1423,0.39765 -0.026,0.13019 -0.039,0.27076 0.047,0.42465 0.098,0.17642 0.2056,0.18803 0.3053,0.22311 0.1,0.0351 0.2111,0.0616 0.345,0.0863 0.2682,0.0495 0.623,0.09 1.0561,0.12416 0.8659,0.0683 2.0422,0.10796 3.3824,0.10796 l 4.2657,0 0,1.59061 0,1.59242 -4.3132,0 c -2.1047,0 -3.2531,0.0109 -3.9246,0.10795 -0.3359,0.0485 -0.5766,0.10871 -0.7584,0.28789 -0.1818,0.17919 -0.1908,0.43273 -0.1592,0.61538 0.062,0.35112 0.2254,0.67278 0.4986,0.92486 0.2732,0.25207 0.6437,0.43653 1.1092,0.57398 0.9307,0.27489 2.2688,0.37661 4.1994,0.37966 l 3.3482,0.006 0,1.59242 0,1.59061 -4.2014,-0.0162 c -1.4344,-0.006 -2.6757,-0.0555 -3.6514,-0.14395 -0.976,-0.0883 -1.6959,-0.2237 -2.0345,-0.35806 -1.6285,-0.6464 -2.0111,-1.02052 -2.9766,-2.88793 -1.5514,-3.00095 -1.477,-6.39285 0.1934,-9.19821 0.8055,-1.35266 1.4879,-2.0907 2.6562,-2.53526 1.1682,-0.44457 8.4518,-0.58119 5.6632,-0.58119 l 0.3261,0 0,-0.002 z m 10.7674,0 0,0 5.739,0.0108 c 3.4271,0.005 5.5268,0.12159 6.8387,0.48223 1.3118,0.36061 1.8434,0.90393 2.3225,1.93428 0.8754,1.88334 0.4369,4.52144 -0.9044,5.75967 -0.1277,0.1178 -0.238,0.22714 -0.3184,0.37067 -0.081,0.14354 -0.1152,0.32734 -0.084,0.49662 0.064,0.33858 0.2872,0.62772 0.6616,1.12278 0.4382,0.57936 0.8666,1.73382 0.9916,2.75659 0.122,0.99925 0.2892,2.08872 0.3925,2.50467 0.031,0.12556 0.018,0.17715 0.025,0.16194 0.01,-0.0151 0.029,-0.009 -0.087,0.0234 -0.2326,0.0653 -0.8668,0.099 -1.9832,0.099 l -2.26,0 -0.4342,-2.11961 c -0.2959,-1.44055 -0.602,-2.35535 -1.3234,-2.90953 -0.7214,-0.55421 -1.7396,-0.66177 -3.3235,-0.66575 l -2.4609,-0.007 0,3.15963 0,2.54246 -1.8959,0 -1.8979,0 0,-7.8613 0,-7.86129 z m -68.1415,0.0666 0,0 0.049,0 c 0.6864,0 1.45,0.007 2.3053,0.0216 l 5.7391,0.0972 0,1.40708 0,1.40708 -5.0299,0.099 c -2.2685,0.0443 -3.614,0.0911 -4.4478,0.19792 -0.4171,0.0533 -0.7099,0.11878 -0.9423,0.23032 -0.2324,0.11152 -0.3992,0.30175 -0.4664,0.49661 -0.1176,0.34116 -0.1704,0.66554 -0.049,0.97165 0.1215,0.3061 0.4079,0.52677 0.7888,0.67295 0.7619,0.29234 1.9989,0.40174 4.0572,0.48762 2.2304,0.093 3.6715,0.27678 4.6185,0.63877 0.9473,0.36194 1.4252,0.86866 1.8354,1.75075 0.3521,0.75757 0.5181,1.78667 0.4833,2.76018 -0.035,0.97349 -0.2764,1.8933 -0.6502,2.4219 -0.6784,0.95928 -1.1059,1.40088 -2.26,1.67338 -1.1541,0.27255 -3.0593,0.32388 -6.4992,0.32388 l -6.0101,0 0.085,-1.47725 0.089,-1.52223 4.8745,-0.0972 c 2.6717,-0.054 4.2163,-0.13457 5.1304,-0.40665 0.4569,-0.13604 0.7937,-0.3449 0.944,-0.66935 0.1504,-0.32447 0.09,-0.6725 -0.036,-1.03823 -0.086,-0.24924 -0.242,-0.48283 -0.4779,-0.65495 -0.2355,-0.17214 -0.5382,-0.28664 -0.9232,-0.37067 -0.7701,-0.16802 -1.8977,-0.21892 -3.6687,-0.22671 -2.2518,-0.0101 -3.3591,-0.19698 -4.3549,-0.69995 -2.2331,-1.12779 -2.9983,-3.95199 -1.6703,-6.37504 0.4893,-0.89254 0.9042,-1.3708 1.8049,-1.68598 0.8927,-0.31236 2.3159,-0.42983 4.6792,-0.43364 z m -58.82869,2.24917 c -0.0764,0.0299 -3.43049,1.70214 -7.45671,3.71383 -5.15214,2.57421 -7.38979,3.74414 -7.55149,3.95134 -0.21449,0.27486 -0.23421,0.45954 -0.26544,2.78538 l -0.0322,2.49208 1.94901,0 1.94903,0 0,-1.19656 0,-1.19836 5.77312,-2.76378 5.7731,-2.76378 0,-2.53527 c 0,-1.98756 -0.0297,-2.52744 -0.13842,-2.48488 z m 130.76589,0.86548 0,0.31129 0,1.51864 0,1.82992 2.8022,-0.006 c 0.6895,-0.003 1.4014,-0.0295 1.9965,-0.072 0.5949,-0.0426 1.0464,-0.0891 1.3327,-0.17454 1.1527,-0.34367 1.6368,-1.78222 0.9328,-2.726 -0.2295,-0.3076 -0.628,-0.46131 -1.2077,-0.55419 -0.5798,-0.0929 -1.3762,-0.12775 -2.5007,-0.12775 l -3.3558,0 z m -133.33297,7.50503 c -0.023,0 -0.75841,0.3493 -1.63619,0.77551 l -1.59639,0.77372 -0.0322,1.56542 -0.0303,1.56362 1.66842,0 1.66843,0 0,-2.33913 c 0,-1.2866 -0.0187,-2.33914 -0.0417,-2.33914 z m -12.72741,6.59276 0,8.1348 0,8.133 1.94334,0 1.93954,0 0.0303,-3.2676 0.0284,-3.27119 5.74655,-0.027 5.74848,-0.027 0,-2.33914 0,-2.33914 -5.77501,0 -5.77501,0 0,-2.49747 0,-2.49929 -1.94144,0 -1.94523,0 z m 38.19048,3.38096 3.3142,7.63998 c 0.9349,2.15479 1.7827,4.1503 2.3984,5.63192 0.3077,0.7408 0.5584,1.35402 0.7299,1.79034 0.084,0.21521 0.1496,0.38558 0.1934,0.50741 -0.089,0.0253 -0.1948,0.0532 -0.3565,0.0774 -0.398,0.0593 -0.9688,0.099 -1.5963,0.099 l -2.114,0 -0.7223,-1.70577 -0.8779,-2.09262 -3.024,0 -3.0298,0 -0.8133,2.10162 -0.656,1.69677 -2.1556,0 c -0.6489,0 -1.2381,-0.018 -1.6589,-0.045 -0.1273,-0.008 -0.2003,-0.0176 -0.292,-0.027 0.04,-0.10113 0.078,-0.19714 0.1384,-0.34547 0.1707,-0.41896 0.4167,-1.01597 0.7223,-1.74716 0.6113,-1.46241 1.4554,-3.46122 2.3831,-5.63912 l 3.2971,-7.73714 2.0723,-0.10436 2.0475,-0.10076 z m 19.1532,0.0251 0.021,0 5.2271,0 0,1.39988 0,1.40169 -3.7332,0 c -1.1211,0 -2.2599,0.0277 -3.1984,0.072 -0.9384,0.0441 -1.6474,0.0977 -2.0172,0.17993 -0.48,0.1068 -0.8298,0.20554 -1.0561,0.48942 -0.2261,0.2839 -0.2224,0.63354 -0.1762,1.07601 l 0.1326,1.25593 4.2052,0.21593 c 2.3483,0.12072 3.7756,0.32977 4.6716,0.77191 0.896,0.44217 1.3313,1.1054 1.7518,2.33014 0.991,2.88649 -0.4166,5.6044 -3.1302,6.18791 -0.3436,0.074 -1.2697,0.16149 -2.4116,0.22133 -1.1419,0.0598 -2.5197,0.0981 -3.8526,0.10256 l -4.5444,0.0162 0,-1.59061 0,-1.58881 4.2601,0 c 1.2651,0 2.4756,-0.0266 3.4108,-0.0684 0.4677,-0.021 0.8656,-0.0473 1.1717,-0.0755 0.153,-0.0141 0.2831,-0.0283 0.3905,-0.045 0.1074,-0.0166 0.1815,-0.0251 0.2825,-0.0684 0.2662,-0.11362 0.4254,-0.33499 0.5441,-0.58298 0.1187,-0.24795 0.1877,-0.53668 0.1877,-0.83309 0,-0.28688 -0.015,-0.5546 -0.1648,-0.80071 -0.1497,-0.24612 -0.4211,-0.41515 -0.7755,-0.5236 -0.7087,-0.21693 -1.8577,-0.28792 -3.9872,-0.39766 -2.2781,-0.11742 -3.7938,-0.50217 -4.7171,-1.20195 -0.9232,-0.69976 -1.3281,-1.72718 -1.348,-3.32337 -0.022,-1.80597 0.7282,-3.09485 2.3207,-3.99813 0.4468,-0.25352 0.9069,-0.40349 1.8636,-0.49841 0.9525,-0.0945 6.955,-0.12409 4.6716,-0.12416 z m 11.3078,0 1.7253,0 1.7272,0 0,2.73139 0,3.35036 3.0562,0 3.0582,0 0,-3.35036 0,-2.73139 1.7253,0 1.7252,0 0,7.8613 0,7.85949 -1.7252,0 -1.7253,0 0,-2.92032 0,-3.53749 -3.0582,0 -3.0562,0 0,3.53749 0,2.92032 -1.7272,0 -1.7253,0 0,-7.85949 z m 18.9067,0 0,0 5.3143,0 c 3.3421,0 5.2084,0.0892 6.3249,0.48942 1.1163,0.40021 1.5674,1.07554 2.2068,2.48848 0.9839,2.17495 0.7861,3.70368 -0.7091,5.51857 -0.61,0.74045 -1.2198,1.18365 -2.1973,1.47185 -0.9776,0.28827 -2.333,0.40486 -4.3512,0.41745 l -2.9691,0.018 0,2.96711 0,2.34993 -1.7253,0 c -0.5593,0 -1.0683,-0.0119 -1.4333,-0.0288 -0.1307,-0.006 -0.2143,-0.0129 -0.3015,-0.0198 0,-0.10986 -2e-4,-0.15588 -0.01,-0.41385 -0.01,-0.42122 -0.013,-1.02506 -0.021,-1.76515 -0.016,-1.48015 -0.035,-3.51046 -0.057,-5.73089 l -0.076,-7.76233 z m 59.0577,0 1.9206,0 1.9263,0 0,5.59054 0,6.09974 1.0692,0.45344 c 0.3398,0.14366 0.8705,0.21789 1.5642,0.28609 0.6937,0.0682 1.5202,0.11156 2.3244,0.11156 l 2.5595,0 0,1.58881 0,1.58522 -3.0031,-0.0342 c -0.9083,-0.0107 -1.859,-0.0527 -2.6544,-0.11156 -0.7955,-0.059 -1.4555,-0.14371 -1.6949,-0.20692 -1.3656,-0.36098 -2.5254,-1.22701 -3.2269,-2.41651 -0.222,-0.3766 -0.3673,-0.83939 -0.4702,-1.8767 -0.103,-1.03726 -0.1572,-2.62766 -0.2048,-5.19109 z m -32.7873,0.006 c 3.1915,0 4.6765,0.52578 6.1125,2.12322 1.3155,1.46326 1.9367,3.3385 1.9168,5.91981 -0.02,2.44182 -0.6305,4.24674 -1.803,5.47357 -1.1725,1.22682 -2.9326,1.9084 -5.3617,2.03506 -0.6993,0.0365 -1.4534,0.0369 -2.0969,0.007 -0.6434,-0.03 -1.1946,-0.0984 -1.4068,-0.16014 -2.0319,-0.59862 -3.5078,-1.80963 -4.3834,-3.48531 -0.8758,-1.6761 -1.1428,-3.82971 -0.6825,-6.29588 0.3208,-1.71922 0.6561,-2.4561 1.5926,-3.49791 1.4322,-1.59324 2.9214,-2.11982 6.1124,-2.11962 3.191,2e-4 0,2e-4 0,2e-4 z m 20.1201,0.0144 c 1.4114,0.005 2.8433,0.14489 3.6327,0.38866 2.5957,0.80162 4.1301,3.63911 4.3587,6.67914 0.2287,3.04 -0.8619,6.20017 -3.3103,7.58959 -0.6695,0.38002 -2.1065,0.71678 -3.5624,0.86189 -1.4561,0.14513 -2.9617,0.10448 -3.7749,-0.13496 -3.2025,-0.94305 -4.8325,-2.94881 -5.2574,-6.50999 -0.4778,-4.0073 1.4181,-7.61057 4.3151,-8.50546 0.7716,-0.23834 2.1874,-0.37316 3.5985,-0.36887 z m -42.7674,2.78358 0,0.30949 0,1.89829 0,2.20959 2.9879,0 c 0.8212,0 1.5409,-0.0446 2.1007,-0.12776 0.2801,-0.0415 0.5206,-0.0922 0.7205,-0.15654 0.2001,-0.0643 0.3652,-0.12836 0.5007,-0.2789 0.4185,-0.46568 0.5314,-1.15659 0.4757,-1.80652 -0.056,-0.64992 -0.2731,-1.2909 -0.8039,-1.60682 -0.3045,-0.18134 -0.7288,-0.24859 -1.3024,-0.32207 -0.5736,-0.0735 -1.2625,-0.11876 -1.9414,-0.11876 z m 22.5374,0.004 c -0.6125,-0.003 -1.0885,0.0555 -1.5206,0.24831 -0.4319,0.19278 -0.7935,0.50772 -1.2058,0.96624 -0.448,0.49843 -0.7353,0.895 -0.8911,1.41607 -0.1558,0.52111 -0.1805,1.13224 -0.1782,2.11063 0.01,1.91213 0.3049,3.29021 1.0447,4.18346 0.7398,0.89317 1.9108,1.21484 3.3975,1.05081 1.1419,-0.126 1.9197,-0.50866 2.4989,-1.25774 1.082,-1.39933 1.3499,-3.64834 0.7754,-5.82445 -0.2713,-1.02711 -0.6542,-1.76627 -1.2968,-2.24017 -0.6427,-0.4739 -1.4965,-0.64865 -2.624,-0.65316 z m 20.4879,0.009 c -1.8528,-0.0157 -3.2136,0.62483 -3.8203,1.8857 -0.3757,0.78078 -0.4143,2.17742 -0.3128,3.57168 0.051,0.69715 0.1459,1.38502 0.2805,1.96848 0.1348,0.58348 0.292,1.05665 0.5537,1.37828 1.011,1.24273 3.1601,1.61567 4.8232,0.91227 0.7297,-0.30856 1.2846,-0.87714 1.6419,-1.64999 0.3572,-0.77286 0.5289,-1.74986 0.5384,-2.93112 0.014,-1.69787 -0.2323,-2.9593 -0.8436,-3.83078 -0.6114,-0.8715 -1.6005,-1.2939 -2.861,-1.30452 z m -97.9669,1.28113 -0.2996,0.63696 -0.7963,1.69137 c -0.2205,0.46919 -0.4213,0.92756 -0.5706,1.29192 -0.075,0.18221 -0.1372,0.34013 -0.1821,0.46784 -0.045,0.12728 -0.076,0.18822 -0.084,0.32567 -0.01,0.1288 0.064,0.23805 0.1252,0.29509 0.061,0.0572 0.1186,0.0871 0.1783,0.11336 0.1189,0.0524 0.2504,0.0848 0.4056,0.11336 0.3103,0.0571 0.7124,0.0882 1.1584,0.0882 0.3673,0 0.6521,-0.003 0.8835,-0.0216 0.2314,-0.0196 0.4173,-0.0459 0.5915,-0.15834 0.1743,-0.11242 0.266,-0.33541 0.2655,-0.51281 0,-0.17743 -0.046,-0.3431 -0.1024,-0.5488 -0.1401,-0.50497 -0.4782,-1.38768 -0.7678,-2.02065 l -0.8058,-1.76155 z"
       id="rect4139-6"
       inkscape:connector-curvature="0"
       sodipodi:nodetypes="ssssssssscccccccccccsscccccccccssccsccccccsccccccccccccccccccccccccccccccccccccsccccccccccscccscccccccccssccccccccccccccscccsccccscccscccccccccccccccsccccccccccccccccsccccccccccccccscccccccccccccccssccccccccccccccccscccccccccsccccccccccsscccccccccsccccccccccccccccccccccccccscccccccsccccccccccccccsccccccccccccccscccccsccscccscccccccccccccccccccccccccccccsccscccccscccscccccccccssccccccccccccccccccczcccsscccccsccccsccccccscccccccccccccccscccccccccccccccscccccc" />
  </g>
</svg>
