  0
SECTION
  2
HEADER
  9
$ACADVER
  1
AC1014
  9
$HANDSEED
  5
FFFF
  9
$MEASUREMENT
 70
     1
  0
ENDSEC
  0
SECTION
  2
TABLES
  0
TABLE
  2
VPORT
  5
8
330
0
100
AcDbSymbolTable
 70
     4
  0
VPORT
  5
2E
330
8
100
AcDbSymbolTableRecord
100
AcDbViewportTableRecord
  2
*ACTIVE
 70
     0
 10
0.0
 20
0.0
 11
1.0
 21
1.0
 12
210.0
 22
148.5
 13
0.0
 23
0.0
 14
10.0
 24
10.0
 15
10.0
 25
10.0
 16
0.0
 26
0.0
 36
1.0
 17
0.0
 27
0.0
 37
0.0
 40
341.0
 41
1.24
 42
50.0
 43
0.0
 44
0.0
 50
0.0
 51
0.0
 71
     0
 72
   100
 73
     1
 74
     3
 75
     0
 76
     0
 77
     0
 78
     0
  0
ENDTAB
  0
TABLE
  2
LTYPE
  5
5
330
0
100
AcDbSymbolTable
 70
     1
  0
LTYPE
  5
14
330
5
100
AcDbSymbolTableRecord
100
AcDbLinetypeTableRecord
  2
BYBLOCK
 70
     0
  3

 72
    65
 73
     0
 40
0.0
  0
LTYPE
  5
15
330
5
100
AcDbSymbolTableRecord
100
AcDbLinetypeTableRecord
  2
BYLAYER
 70
     0
  3

 72
    65
 73
     0
 40
0.0
  0
LTYPE
  5
16
330
5
100
AcDbSymbolTableRecord
100
AcDbLinetypeTableRecord
  2
CONTINUOUS
 70
     0
  3
Solid line
 72
    65
 73
     0
 40
0.0
  0
ENDTAB
  0
TABLE
  2
LAYER
  5
2
100
AcDbSymbolTable
 70
2
  0
LAYER
  5
50
100
AcDbSymbolTableRecord
100
AcDbLayerTableRecord
  2
0
 70
0
  6
CONTINUOUS
  0
LAYER
  5
51
100
AcDbSymbolTableRecord
100
AcDbLayerTableRecord
  2
Layer_1
 70
0
  6
CONTINUOUS
  0
ENDTAB
  0
TABLE
  2
STYLE
  5
3
330
0
100
AcDbSymbolTable
 70
     1
  0
STYLE
  5
11
330
3
100
AcDbSymbolTableRecord
100
AcDbTextStyleTableRecord
  2
STANDARD
 70
     0
 40
0.0
 41
1.0
 50
0.0
 71
     0
 42
2.5
  3
txt
  4

  0
ENDTAB
  0
TABLE
  2
VIEW
  5
6
330
0
100
AcDbSymbolTable
 70
     0
  0
ENDTAB
  0
TABLE
  2
UCS
  5
7
330
0
100
AcDbSymbolTable
 70
     0
  0
ENDTAB
  0
TABLE
  2
APPID
  5
9
330
0
100
AcDbSymbolTable
 70
     2
  0
APPID
  5
12
330
9
100
AcDbSymbolTableRecord
100
AcDbRegAppTableRecord
  2
ACAD
 70
     0
  0
ENDTAB
  0
TABLE
  2
DIMSTYLE
  5
A
330
0
100
AcDbSymbolTable
 70
     1
  0
DIMSTYLE
105
27
330
A
100
AcDbSymbolTableRecord
100
AcDbDimStyleTableRecord
  2
ISO-25
 70
     0
  3

  4

  5

  6

  7

 40
1.0
 41
2.5
 42
0.625
 43
3.75
 44
1.25
 45
0.0
 46
0.0
 47
0.0
 48
0.0
140
2.5
141
2.5
142
0.0
143
0.03937007874016
144
1.0
145
0.0
146
1.0
147
0.625
 71
     0
 72
     0
 73
     0
 74
     0
 75
     0
 76
     0
 77
     1
 78
     8
170
     0
171
     3
172
     1
173
     0
174
     0
175
     0
176
     0
177
     0
178
     0
270
     2
271
     2
272
     2
273
     2
274
     3
340
11
275
     0
280
     0
281
     0
282
     0
283
     0
284
     8
285
     0
286
     0
287
     3
288
     0
  0
ENDTAB
  0
TABLE
  2
BLOCK_RECORD
  5
1
330
0
100
AcDbSymbolTable
 70
     1
  0
BLOCK_RECORD
  5
1F
330
1
100
AcDbSymbolTableRecord
100
AcDbBlockTableRecord
  2
*MODEL_SPACE
  0
BLOCK_RECORD
  5
1B
330
1
100
AcDbSymbolTableRecord
100
AcDbBlockTableRecord
  2
*PAPER_SPACE
  0
ENDTAB
  0
ENDSEC
  0
SECTION
  2
BLOCKS
  0
BLOCK
  5
20
330
1F
100
AcDbEntity
  8
0
100
AcDbBlockBegin
  2
*MODEL_SPACE
 70
     0
 10
0.0
 20
0.0
 30
0.0
  3
*MODEL_SPACE
  1

  0
ENDBLK
  5
21
330
1F
100
AcDbEntity
  8
0
100
AcDbBlockEnd
  0
BLOCK
  5
1C
330
1B
100
AcDbEntity
 67
     1
  8
0
100
AcDbBlockBegin
  2
*PAPER_SPACE
  1

  0
ENDBLK
  5
1D
330
1B
100
AcDbEntity
 67
     1
  8
0
100
AcDbBlockEnd
  0
ENDSEC
  0
SECTION
  2
ENTITIES
  0
LWPOLYLINE
  5
100
100
AcDbEntity
  8
Layer_1
 62
7
100
AcDbPolyline
 90
9
 70
0
 10
0.172912
 20
36.850391
 30
0.0
 10
0.000000
 20
36.687735
 30
0.0
 10
0.000000
 20
0.162655
 30
0.0
 10
0.172912
 20
-0.000001
 30
0.0
 10
141.560952
 20
-0.000001
 30
0.0
 10
141.732312
 20
0.162655
 30
0.0
 10
141.732312
 20
36.687735
 30
0.0
 10
141.560952
 20
36.850391
 30
0.0
 10
0.172912
 20
36.850391
 30
0.0
  0
LWPOLYLINE
  5
101
100
AcDbEntity
  8
Layer_1
 62
7
100
AcDbPolyline
 90
27
 70
0
 10
14.365112
 20
33.228695
 30
0.0
 10
21.736504
 20
33.202775
 30
0.0
 10
22.156632
 20
32.965263
 30
0.0
 10
22.822488
 20
32.327575
 30
0.0
 10
23.068192
 20
31.925967
 30
0.0
 10
23.084832
 20
18.612327
 30
0.0
 10
23.075389
 20
7.774773
 30
0.0
 10
22.981688
 20
4.875471
 30
0.0
 10
22.784532
 20
4.454536
 30
0.0
 10
22.462369
 20
4.089927
 30
0.0
 10
22.048360
 20
3.810764
 30
0.0
 10
21.575664
 20
3.646167
 30
0.0
 10
13.782632
 20
3.577127
 30
0.0
 10
7.336509
 20
3.620467
 30
0.0
 10
6.425468
 20
3.677072
 30
0.0
 10
6.103336
 20
3.782967
 30
0.0
 10
5.560727
 20
4.167790
 30
0.0
 10
5.220600
 20
4.682639
 30
0.0
 10
5.105795
 20
7.189191
 30
0.0
 10
5.082568
 20
18.443959
 30
0.0
 10
5.105271
 20
30.165415
 30
0.0
 10
5.157166
 20
31.788995
 30
0.0
 10
5.256992
 20
32.219671
 30
0.0
 10
5.791540
 20
32.823774
 30
0.0
 10
6.541680
 20
33.163967
 30
0.0
 10
14.365064
 20
33.228767
 30
0.0
 10
14.365112
 20
33.228695
 30
0.0
  0
LWPOLYLINE
  5
102
100
AcDbEntity
  8
Layer_1
 62
7
100
AcDbPolyline
 90
48
 70
0
 10
57.039672
 20
32.985423
 30
0.0
 10
56.968472
 20
31.786343
 30
0.0
 10
56.899672
 20
30.546967
 30
0.0
 10
54.404632
 20
30.477927
 30
0.0
 10
52.288792
 20
30.378607
 30
0.0
 10
51.016232
 20
30.240415
 30
0.0
 10
50.404662
 20
29.971323
 30
0.0
 10
49.889272
 20
29.545151
 30
0.0
 10
49.516882
 20
29.028832
 30
0.0
 10
49.370632
 20
28.459791
 30
0.0
 10
49.455122
 20
28.211498
 30
0.0
 10
49.666392
 20
28.023631
 30
0.0
 10
50.338312
 20
27.862415
 30
0.0
 10
53.468872
 20
27.777479
 30
0.0
 10
57.037672
 20
27.777479
 30
0.0
 10
56.968072
 20
26.595679
 30
0.0
 10
56.899272
 20
25.373567
 30
0.0
 10
53.342552
 20
25.231063
 30
0.0
 10
49.083512
 20
25.062647
 30
0.0
 10
49.905592
 20
23.932663
 30
0.0
 10
50.348822
 20
23.459001
 30
0.0
 10
51.003672
 20
23.162543
 30
0.0
 10
52.084712
 20
23.015903
 30
0.0
 10
53.894632
 20
22.914959
 30
0.0
 10
56.899272
 20
22.772455
 30
0.0
 10
56.968072
 20
21.550343
 30
0.0
 10
57.037672
 20
20.368543
 30
0.0
 10
53.676552
 20
20.382943
 30
0.0
 10
50.734152
 20
20.496663
 30
0.0
 10
49.097592
 20
20.788871
 30
0.0
 10
48.205306
 20
21.225910
 30
0.0
 10
47.523462
 20
21.789608
 30
0.0
 10
46.958663
 20
22.583107
 30
0.0
 10
46.417512
 20
23.709551
 30
0.0
 10
46.043910
 20
24.849740
 30
0.0
 10
45.855939
 20
26.026207
 30
0.0
 10
45.845520
 20
27.205808
 30
0.0
 10
46.004572
 20
28.355401
 30
0.0
 10
46.325017
 20
29.441841
 30
0.0
 10
46.798775
 20
30.431986
 30
0.0
 10
47.417766
 20
31.292692
 30
0.0
 10
48.173912
 20
31.990815
 30
0.0
 10
48.869392
 20
32.453428
 30
0.0
 10
49.623912
 20
32.694719
 30
0.0
 10
50.939132
 20
32.818907
 30
0.0
 10
53.251912
 20
32.891927
 30
0.0
 10
57.039192
 20
32.985487
 30
0.0
 10
57.039672
 20
32.985423
 30
0.0
  0
LWPOLYLINE
  5
103
100
AcDbEntity
  8
Layer_1
 62
7
100
AcDbPolyline
 90
19
 70
0
 10
29.965432
 20
32.946623
 30
0.0
 10
29.965432
 20
32.946623
 30
0.0
 10
35.991432
 20
32.946623
 30
0.0
 10
42.034232
 20
32.946623
 30
0.0
 10
42.034232
 20
31.672695
 30
0.0
 10
42.034232
 20
30.401647
 30
0.0
 10
39.968392
 20
30.401647
 30
0.0
 10
37.388472
 20
30.401647
 30
0.0
 10
37.388472
 20
25.137503
 30
0.0
 10
37.388472
 20
20.368551
 30
0.0
 10
35.870152
 20
20.368551
 30
0.0
 10
34.353432
 20
20.368551
 30
0.0
 10
34.353432
 20
25.124551
 30
0.0
 10
34.353432
 20
30.364215
 30
0.0
 10
31.987272
 20
30.462103
 30
0.0
 10
30.103512
 20
30.542711
 30
0.0
 10
30.033912
 20
31.761935
 30
0.0
 10
29.964312
 20
32.946623
 30
0.0
 10
29.965432
 20
32.946623
 30
0.0
  0
LWPOLYLINE
  5
104
100
AcDbEntity
  8
Layer_1
 62
7
100
AcDbPolyline
 90
60
 70
0
 10
86.566952
 20
32.946623
 30
0.0
 10
91.098872
 20
32.946623
 30
0.0
 10
91.098872
 20
31.672695
 30
0.0
 10
91.098872
 20
30.401647
 30
0.0
 10
87.114552
 20
30.401647
 30
0.0
 10
83.607832
 20
30.312399
 30
0.0
 10
82.850872
 20
30.152615
 30
0.0
 10
82.465672
 20
29.771159
 30
0.0
 10
82.374052
 20
29.359079
 30
0.0
 10
82.432072
 20
28.970807
 30
0.0
 10
82.678672
 20
28.647736
 30
0.0
 10
83.082712
 20
28.420935
 30
0.0
 10
84.341212
 20
28.156707
 30
0.0
 10
86.369512
 20
28.027959
 30
0.0
 10
89.027702
 20
27.817268
 30
0.0
 10
89.812113
 20
27.640089
 30
0.0
 10
90.355512
 20
27.403231
 30
0.0
 10
90.855646
 20
27.005292
 30
0.0
 10
91.269882
 20
26.472451
 30
0.0
 10
91.587533
 20
25.833890
 30
0.0
 10
91.797912
 20
25.118791
 30
0.0
 10
91.891218
 20
24.359433
 30
0.0
 10
91.861322
 20
23.590123
 30
0.0
 10
91.703401
 20
22.843103
 30
0.0
 10
91.412632
 20
22.150615
 30
0.0
 10
90.731962
 20
21.178314
 30
0.0
 10
90.299568
 20
20.878923
 30
0.0
 10
89.709352
 20
20.663639
 30
0.0
 10
87.765182
 20
20.424433
 30
0.0
 10
84.402312
 20
20.368551
 30
0.0
 10
79.594152
 20
20.368551
 30
0.0
 10
79.594152
 20
21.641039
 30
0.0
 10
79.594152
 20
22.914967
 30
0.0
 10
83.536232
 20
22.914967
 30
0.0
 10
86.166882
 20
22.959145
 30
0.0
 10
87.717832
 20
23.158231
 30
0.0
 10
88.195742
 20
23.364517
 30
0.0
 10
88.485432
 20
23.690839
 30
0.0
 10
88.551062
 20
24.100357
 30
0.0
 10
88.448632
 20
24.537247
 30
0.0
 10
88.067912
 20
25.058335
 30
0.0
 10
87.333832
 20
25.356311
 30
0.0
 10
86.165262
 20
25.500274
 30
0.0
 10
84.391352
 20
25.553511
 30
0.0
 10
82.404472
 20
25.684503
 30
0.0
 10
81.072712
 20
25.943607
 30
0.0
 10
80.453787
 20
26.293838
 30
0.0
 10
79.938211
 20
26.791921
 30
0.0
 10
79.535913
 20
27.407720
 30
0.0
 10
79.256822
 20
28.111099
 30
0.0
 10
79.110867
 20
28.871920
 30
0.0
 10
79.107978
 20
29.660047
 30
0.0
 10
79.258083
 20
30.445343
 30
0.0
 10
79.571112
 20
31.197671
 30
0.0
 10
80.254492
 20
32.118083
 30
0.0
 10
80.712604
 20
32.412313
 30
0.0
 10
81.332072
 20
32.629943
 30
0.0
 10
83.297212
 20
32.882195
 30
0.0
 10
86.566392
 20
32.946623
 30
0.0
 10
86.566952
 20
32.946623
 30
0.0
  0
LWPOLYLINE
  5
105
100
AcDbEntity
  8
Layer_1
 62
7
100
AcDbPolyline
 90
9
 70
0
 10
97.041992
 20
32.946623
 30
0.0
 10
98.558712
 20
32.946623
 30
0.0
 10
100.076952
 20
32.946623
 30
0.0
 10
100.076952
 20
26.656151
 30
0.0
 10
100.076952
 20
20.368551
 30
0.0
 10
98.558712
 20
20.368551
 30
0.0
 10
97.041992
 20
20.368551
 30
0.0
 10
97.041992
 20
26.656151
 30
0.0
 10
97.041992
 20
32.946623
 30
0.0
  0
LWPOLYLINE
  5
106
100
AcDbEntity
  8
Layer_1
 62
7
100
AcDbPolyline
 90
59
 70
0
 10
113.210792
 20
32.946623
 30
0.0
 10
116.430792
 20
32.946623
 30
0.0
 10
116.430792
 20
31.672695
 30
0.0
 10
116.430792
 20
30.401647
 30
0.0
 10
113.535352
 20
30.401647
 30
0.0
 10
111.751272
 20
30.385452
 30
0.0
 10
110.679272
 20
30.286487
 30
0.0
 10
110.004952
 20
30.016235
 30
0.0
 10
109.496232
 20
29.550911
 30
0.0
 10
109.023112
 20
28.868607
 30
0.0
 10
108.909272
 20
28.550487
 30
0.0
 10
108.946872
 20
28.210767
 30
0.0
 10
109.191112
 20
28.032279
 30
0.0
 10
109.467112
 20
27.963239
 30
0.0
 10
110.311992
 20
27.863911
 30
0.0
 10
113.017912
 20
27.777543
 30
0.0
 10
116.430472
 20
27.777543
 30
0.0
 10
116.430472
 20
26.505055
 30
0.0
 10
116.430472
 20
25.231119
 30
0.0
 10
112.979912
 20
25.231119
 30
0.0
 10
109.840232
 20
25.144759
 30
0.0
 10
109.490642
 20
25.068807
 30
0.0
 10
109.233512
 20
24.914447
 30
0.0
 10
109.105812
 20
24.669333
 30
0.0
 10
109.106152
 20
24.422143
 30
0.0
 10
109.242232
 20
24.022487
 30
0.0
 10
109.505032
 20
23.682255
 30
0.0
 10
110.392392
 20
23.223071
 30
0.0
 10
111.772182
 20
22.989655
 30
0.0
 10
113.751912
 20
22.919343
 30
0.0
 10
116.430472
 20
22.914543
 30
0.0
 10
116.430472
 20
21.640607
 30
0.0
 10
116.430472
 20
20.368119
 30
0.0
 10
113.069352
 20
20.381079
 30
0.0
 10
110.148232
 20
20.496239
 30
0.0
 10
108.520632
 20
20.782687
 30
0.0
 10
107.707557
 20
21.151754
 30
0.0
 10
107.131092
 20
21.571556
 30
0.0
 10
106.654077
 20
22.174509
 30
0.0
 10
106.139352
 20
23.093031
 30
0.0
 10
105.734853
 20
24.006449
 30
0.0
 10
105.452009
 20
24.940025
 30
0.0
 10
105.290542
 20
25.884594
 30
0.0
 10
105.250172
 20
26.830992
 30
0.0
 10
105.330619
 20
27.770055
 30
0.0
 10
105.531604
 20
28.692620
 30
0.0
 10
105.852849
 20
29.589523
 30
0.0
 10
106.294072
 20
30.451599
 30
0.0
 10
107.247712
 20
31.738133
 30
0.0
 10
107.783324
 20
32.165035
 30
0.0
 10
108.419032
 20
32.479807
 30
0.0
 10
109.834917
 20
32.702498
 30
0.0
 10
111.871352
 20
32.845654
 30
0.0
 10
113.314267
 20
32.922124
 30
0.0
 10
113.433758
 20
32.939368
 30
0.0
 10
112.949592
 20
32.944759
 30
0.0
 10
113.210472
 20
32.944759
 30
0.0
 10
113.210472
 20
32.946359
 30
0.0
 10
113.210792
 20
32.946623
 30
0.0
  0
LWPOLYLINE
  5
107
100
AcDbEntity
  8
Layer_1
 62
7
100
AcDbPolyline
 90
39
 70
0
 10
121.824712
 20
32.946623
 30
0.0
 10
121.824712
 20
32.946623
 30
0.0
 10
126.415912
 20
32.937983
 30
0.0
 10
129.785952
 20
32.851783
 30
0.0
 10
131.886872
 20
32.552199
 30
0.0
 10
132.566018
 20
32.304622
 30
0.0
 10
133.065682
 20
31.979409
 30
0.0
 10
133.440441
 20
31.553734
 30
0.0
 10
133.744872
 20
31.004775
 30
0.0
 10
134.078166
 20
29.788490
 30
0.0
 10
134.048122
 20
28.507374
 30
0.0
 10
133.685573
 20
27.323024
 30
0.0
 10
133.021352
 20
26.397039
 30
0.0
 10
132.766632
 20
26.100503
 30
0.0
 10
132.699432
 20
25.703207
 30
0.0
 10
132.870952
 20
25.301039
 30
0.0
 10
133.228712
 20
24.804983
 30
0.0
 10
133.719312
 20
23.835370
 30
0.0
 10
134.021992
 20
22.599711
 30
0.0
 10
134.335992
 20
20.595975
 30
0.0
 10
134.355992
 20
20.466423
 30
0.0
 10
134.286392
 20
20.447703
 30
0.0
 10
132.699832
 20
20.368503
 30
0.0
 10
130.891832
 20
20.368503
 30
0.0
 10
130.544472
 20
22.064191
 30
0.0
 10
130.142762
 20
23.493914
 30
0.0
 10
129.861361
 20
24.003150
 30
0.0
 10
129.485752
 20
24.391815
 30
0.0
 10
129.005031
 20
24.661632
 30
0.0
 10
128.415102
 20
24.823184
 30
0.0
 10
126.826952
 20
24.924415
 30
0.0
 10
124.858232
 20
24.930015
 30
0.0
 10
124.858232
 20
22.402311
 30
0.0
 10
124.858232
 20
20.368343
 30
0.0
 10
123.341512
 20
20.368343
 30
0.0
 10
121.823192
 20
20.368343
 30
0.0
 10
121.823192
 20
26.657383
 30
0.0
 10
121.823192
 20
32.946415
 30
0.0
 10
121.824712
 20
32.946623
 30
0.0
  0
LWPOLYLINE
  5
108
100
AcDbEntity
  8
Layer_1
 62
7
100
AcDbPolyline
 90
59
 70
0
 10
67.311512
 20
32.893343
 30
0.0
 10
67.311512
 20
32.893343
 30
0.0
 10
67.350712
 20
32.893343
 30
0.0
 10
69.194952
 20
32.876063
 30
0.0
 10
73.786232
 20
32.798303
 30
0.0
 10
73.786232
 20
31.672639
 30
0.0
 10
73.786232
 20
30.546975
 30
0.0
 10
69.762312
 20
30.467775
 30
0.0
 10
66.204072
 20
30.309439
 30
0.0
 10
65.450232
 20
30.125183
 30
0.0
 10
65.077112
 20
29.727895
 30
0.0
 10
64.985812
 20
29.328720
 30
0.0
 10
65.037912
 20
28.950575
 30
0.0
 10
65.275612
 20
28.633419
 30
0.0
 10
65.668952
 20
28.412215
 30
0.0
 10
66.902912
 20
28.155229
 30
0.0
 10
68.914712
 20
28.022119
 30
0.0
 10
71.147132
 20
27.847308
 30
0.0
 10
72.609512
 20
27.511103
 30
0.0
 10
73.504802
 20
26.966848
 30
0.0
 10
74.077832
 20
26.110503
 30
0.0
 10
74.387222
 20
25.071213
 30
0.0
 10
74.464472
 20
23.902359
 30
0.0
 10
74.306032
 20
22.800132
 30
0.0
 10
73.944312
 20
21.964839
 30
0.0
 10
73.183022
 20
21.089453
 30
0.0
 10
72.732001
 20
20.819357
 30
0.0
 10
72.136312
 20
20.626135
 30
0.0
 10
70.222372
 20
20.414818
 30
0.0
 10
66.936952
 20
20.367031
 30
0.0
 10
62.128872
 20
20.367031
 30
0.0
 10
62.196872
 20
21.548831
 30
0.0
 10
62.268072
 20
22.766615
 30
0.0
 10
66.167672
 20
22.844375
 30
0.0
 10
68.747112
 20
22.941611
 30
0.0
 10
70.271992
 20
23.169695
 30
0.0
 10
70.741572
 20
23.380912
 30
0.0
 10
71.027192
 20
23.705175
 30
0.0
 10
71.095712
 20
24.108089
 30
0.0
 10
70.998392
 20
24.535759
 30
0.0
 10
70.616072
 20
25.059719
 30
0.0
 10
69.877512
 20
25.356255
 30
0.0
 10
68.710302
 20
25.495008
 30
0.0
 10
66.942552
 20
25.537623
 30
0.0
 10
64.823792
 20
25.669742
 30
0.0
 10
63.458632
 20
26.097583
 30
0.0
 10
62.844725
 20
26.496258
 30
0.0
 10
62.346773
 20
27.002499
 30
0.0
 10
61.970638
 20
27.596641
 30
0.0
 10
61.722182
 20
28.259021
 30
0.0
 10
61.607267
 20
28.969973
 30
0.0
 10
61.631756
 20
29.709832
 30
0.0
 10
61.801510
 20
30.458934
 30
0.0
 10
62.122392
 20
31.197615
 30
0.0
 10
62.720932
 20
32.045215
 30
0.0
 10
63.566312
 20
32.546399
 30
0.0
 10
64.996812
 20
32.812420
 30
0.0
 10
67.309672
 20
32.893311
 30
0.0
 10
67.311512
 20
32.893343
 30
0.0
  0
LWPOLYLINE
  5
109
100
AcDbEntity
  8
Layer_1
 62
7
100
AcDbPolyline
 90
17
 70
0
 10
20.248560
 20
31.094007
 30
0.0
 10
14.283192
 20
28.122943
 30
0.0
 10
9.765464
 20
25.832304
 30
0.0
 10
8.242000
 20
24.961871
 30
0.0
 10
8.080846
 20
24.463013
 30
0.0
 10
8.029648
 20
22.733567
 30
0.0
 10
8.003888
 20
20.739903
 30
0.0
 10
9.563096
 20
20.739903
 30
0.0
 10
11.122320
 20
20.739903
 30
0.0
 10
11.122320
 20
21.697151
 30
0.0
 10
11.122320
 20
22.655839
 30
0.0
 10
15.740816
 20
24.866863
 30
0.0
 10
20.359296
 20
27.077887
 30
0.0
 10
20.359296
 20
29.106103
 30
0.0
 10
20.336544
 20
30.709091
 30
0.0
 10
20.248560
 20
31.094007
 30
0.0
 10
20.248560
 20
31.094007
 30
0.0
  0
LWPOLYLINE
  5
10a
100
AcDbEntity
  8
Layer_1
 62
7
100
AcDbPolyline
 90
16
 70
0
 10
124.861272
 20
30.401623
 30
0.0
 10
124.861272
 20
30.152591
 30
0.0
 10
124.861272
 20
28.937679
 30
0.0
 10
124.861272
 20
27.473743
 30
0.0
 10
127.103032
 20
27.478543
 30
0.0
 10
128.700232
 20
27.536143
 30
0.0
 10
129.766392
 20
27.675775
 30
0.0
 10
130.351228
 20
28.026338
 30
0.0
 10
130.696522
 20
28.586142
 30
0.0
 10
130.763311
 20
29.235962
 30
0.0
 10
130.512632
 20
29.856575
 30
0.0
 10
130.134612
 20
30.142667
 30
0.0
 10
129.546472
 20
30.299927
 30
0.0
 10
127.545912
 20
30.402127
 30
0.0
 10
124.861272
 20
30.402127
 30
0.0
 10
124.861272
 20
30.401623
 30
0.0
  0
LWPOLYLINE
  5
10b
100
AcDbEntity
  8
Layer_1
 62
7
100
AcDbPolyline
 90
10
 70
0
 10
18.194896
 20
24.397599
 30
0.0
 10
16.885944
 20
23.777191
 30
0.0
 10
15.608832
 20
23.158215
 30
0.0
 10
15.583072
 20
21.905879
 30
0.0
 10
15.558832
 20
20.654983
 30
0.0
 10
16.893568
 20
20.654983
 30
0.0
 10
18.228312
 20
20.654983
 30
0.0
 10
18.228312
 20
22.526287
 30
0.0
 10
18.194952
 20
24.397599
 30
0.0
 10
18.194896
 20
24.397599
 30
0.0
  0
LWPOLYLINE
  5
10c
100
AcDbEntity
  8
Layer_1
 62
7
100
AcDbPolyline
 90
18
 70
0
 10
8.012968
 20
19.123391
 30
0.0
 10
8.012968
 20
12.615551
 30
0.0
 10
8.012968
 20
6.109151
 30
0.0
 10
9.567640
 20
6.109151
 30
0.0
 10
11.119272
 20
6.109151
 30
0.0
 10
11.143512
 20
8.723231
 30
0.0
 10
11.166232
 20
11.340183
 30
0.0
 10
15.763472
 20
11.361783
 30
0.0
 10
20.362256
 20
11.383383
 30
0.0
 10
20.362256
 20
13.254695
 30
0.0
 10
20.362256
 20
15.126007
 30
0.0
 10
15.742248
 20
15.126007
 30
0.0
 10
11.122240
 20
15.126007
 30
0.0
 10
11.122240
 20
17.123983
 30
0.0
 10
11.122240
 20
19.123415
 30
0.0
 10
9.569088
 20
19.123415
 30
0.0
 10
8.012904
 20
19.123415
 30
0.0
 10
8.012968
 20
19.123391
 30
0.0
  0
LWPOLYLINE
  5
10d
100
AcDbEntity
  8
Layer_1
 62
7
100
AcDbPolyline
 90
24
 70
0
 10
38.565352
 20
16.418623
 30
0.0
 10
41.216712
 20
10.306639
 30
0.0
 10
43.135432
 20
5.801103
 30
0.0
 10
43.719352
 20
4.368831
 30
0.0
 10
43.874072
 20
3.962903
 30
0.0
 10
43.588872
 20
3.900983
 30
0.0
 10
42.311832
 20
3.821783
 30
0.0
 10
40.620632
 20
3.821783
 30
0.0
 10
40.042792
 20
5.186399
 30
0.0
 10
39.340472
 20
6.860495
 30
0.0
 10
36.921272
 20
6.860495
 30
0.0
 10
34.497432
 20
6.860495
 30
0.0
 10
33.846792
 20
5.179199
 30
0.0
 10
33.321992
 20
3.821783
 30
0.0
 10
31.597512
 20
3.821783
 30
0.0
 10
30.270392
 20
3.857783
 30
0.0
 10
30.036792
 20
3.879383
 30
0.0
 10
30.147512
 20
4.155759
 30
0.0
 10
30.725352
 20
5.553487
 30
0.0
 10
32.631832
 20
10.064783
 30
0.0
 10
35.269512
 20
16.254495
 30
0.0
 10
36.927352
 20
16.337983
 30
0.0
 10
38.565352
 20
16.418591
 30
0.0
 10
38.565352
 20
16.418623
 30
0.0
  0
LWPOLYLINE
  5
10e
100
AcDbEntity
  8
Layer_1
 62
7
100
AcDbPolyline
 90
63
 70
0
 10
53.887912
 20
16.398543
 30
0.0
 10
53.904712
 20
16.398543
 30
0.0
 10
58.086392
 20
16.398543
 30
0.0
 10
58.086392
 20
15.278639
 30
0.0
 10
58.086392
 20
14.157287
 30
0.0
 10
55.099832
 20
14.157287
 30
0.0
 10
52.541112
 20
14.099687
 30
0.0
 10
50.927352
 20
13.955743
 30
0.0
 10
50.428802
 20
13.813099
 30
0.0
 10
50.082472
 20
13.564207
 30
0.0
 10
49.930302
 20
13.181374
 30
0.0
 10
49.941512
 20
12.703399
 30
0.0
 10
50.047592
 20
11.698655
 30
0.0
 10
53.411752
 20
11.525911
 30
0.0
 10
55.716082
 20
11.313573
 30
0.0
 10
57.149032
 20
10.908383
 30
0.0
 10
57.623101
 20
10.605666
 30
0.0
 10
57.992402
 20
10.211098
 30
0.0
 10
58.550472
 20
9.044271
 30
0.0
 10
58.759532
 20
8.187717
 30
0.0
 10
58.798939
 20
7.362237
 30
0.0
 10
58.678939
 20
6.586259
 30
0.0
 10
58.409772
 20
5.878213
 30
0.0
 10
58.001683
 20
5.256529
 30
0.0
 10
57.464914
 20
4.739636
 30
0.0
 10
56.809710
 20
4.345964
 30
0.0
 10
56.046312
 20
4.093943
 30
0.0
 10
54.117032
 20
3.916879
 30
0.0
 10
51.034952
 20
3.834831
 30
0.0
 10
47.399432
 20
3.821871
 30
0.0
 10
47.399432
 20
5.094359
 30
0.0
 10
47.399432
 20
6.365407
 30
0.0
 10
50.807512
 20
6.365407
 30
0.0
 10
53.536152
 20
6.420127
 30
0.0
 10
54.473512
 20
6.480527
 30
0.0
 10
54.785912
 20
6.516527
 30
0.0
 10
55.011912
 20
6.571247
 30
0.0
 10
55.273802
 20
6.764128
 30
0.0
 10
55.447192
 20
7.037631
 30
0.0
 10
55.597352
 20
7.704103
 30
0.0
 10
55.465512
 20
8.344671
 30
0.0
 10
55.216722
 20
8.595412
 30
0.0
 10
54.845112
 20
8.763551
 30
0.0
 10
53.676472
 20
8.954772
 30
0.0
 10
51.655352
 20
9.081679
 30
0.0
 10
49.362072
 20
9.387751
 30
0.0
 10
48.526637
 20
9.670029
 30
0.0
 10
47.881672
 20
10.043239
 30
0.0
 10
47.403831
 20
10.515258
 30
0.0
 10
47.071482
 20
11.103658
 30
0.0
 10
46.874628
 20
11.826522
 30
0.0
 10
46.803272
 20
12.701935
 30
0.0
 10
46.906778
 20
13.709597
 30
0.0
 10
47.247202
 20
14.571994
 30
0.0
 10
47.829801
 20
15.298987
 30
0.0
 10
48.659832
 20
15.900439
 30
0.0
 10
49.252302
 20
16.147383
 30
0.0
 10
50.150712
 20
16.299167
 30
0.0
 10
52.990122
 20
16.377160
 30
0.0
 10
54.181846
 20
16.393582
 30
0.0
 10
54.283128
 20
16.397312
 30
0.0
 10
53.887992
 20
16.398495
 30
0.0
 10
53.887912
 20
16.398543
 30
0.0
  0
LWPOLYLINE
  5
10f
100
AcDbEntity
  8
Layer_1
 62
7
100
AcDbPolyline
 90
25
 70
0
 10
62.934152
 20
16.398543
 30
0.0
 10
64.314392
 20
16.398543
 30
0.0
 10
65.696152
 20
16.398543
 30
0.0
 10
65.696152
 20
14.213431
 30
0.0
 10
65.696152
 20
11.533143
 30
0.0
 10
68.141112
 20
11.533143
 30
0.0
 10
70.587672
 20
11.533143
 30
0.0
 10
70.587672
 20
14.213431
 30
0.0
 10
70.587672
 20
16.398543
 30
0.0
 10
71.967912
 20
16.398543
 30
0.0
 10
73.348072
 20
16.398543
 30
0.0
 10
73.348072
 20
10.109503
 30
0.0
 10
73.348072
 20
3.821911
 30
0.0
 10
71.967912
 20
3.821911
 30
0.0
 10
70.587672
 20
3.821911
 30
0.0
 10
70.587672
 20
6.158167
 30
0.0
 10
70.587672
 20
8.988159
 30
0.0
 10
68.141112
 20
8.988159
 30
0.0
 10
65.696152
 20
8.988159
 30
0.0
 10
65.696152
 20
6.158167
 30
0.0
 10
65.696152
 20
3.821911
 30
0.0
 10
64.314392
 20
3.821911
 30
0.0
 10
62.934152
 20
3.821911
 30
0.0
 10
62.934152
 20
10.109503
 30
0.0
 10
62.934152
 20
16.398543
 30
0.0
  0
LWPOLYLINE
  5
110
100
AcDbEntity
  8
Layer_1
 62
7
100
AcDbPolyline
 90
28
 70
0
 10
78.059512
 20
16.398543
 30
0.0
 10
78.059512
 20
16.398543
 30
0.0
 10
82.310952
 20
16.398543
 30
0.0
 10
85.508592
 20
16.322841
 30
0.0
 10
86.579427
 20
16.203259
 30
0.0
 10
87.370872
 20
16.007007
 30
0.0
 10
87.951541
 20
15.719832
 30
0.0
 10
88.396662
 20
15.315434
 30
0.0
 10
89.136312
 20
14.016223
 30
0.0
 10
89.547951
 20
12.796531
 30
0.0
 10
89.596402
 20
11.700777
 30
0.0
 10
89.272988
 20
10.659032
 30
0.0
 10
88.569032
 20
9.601367
 30
0.0
 10
87.800362
 20
8.876952
 30
0.0
 10
86.811192
 20
8.423887
 30
0.0
 10
85.382892
 20
8.174203
 30
0.0
 10
83.330232
 20
8.089927
 30
0.0
 10
80.954952
 20
8.075527
 30
0.0
 10
80.954952
 20
5.701839
 30
0.0
 10
80.954952
 20
3.821895
 30
0.0
 10
79.574712
 20
3.821895
 30
0.0
 10
78.428072
 20
3.844935
 30
0.0
 10
78.186872
 20
3.860775
 30
0.0
 10
78.178872
 20
4.191855
 30
0.0
 10
78.162072
 20
5.603975
 30
0.0
 10
78.116472
 20
10.188687
 30
0.0
 10
78.055672
 20
16.398551
 30
0.0
 10
78.059512
 20
16.398543
 30
0.0
  0
LWPOLYLINE
  5
111
100
AcDbEntity
  8
Layer_1
 62
7
100
AcDbPolyline
 90
22
 70
0
 10
125.305672
 20
16.398543
 30
0.0
 10
126.842152
 20
16.398543
 30
0.0
 10
128.383192
 20
16.398543
 30
0.0
 10
128.383192
 20
11.926111
 30
0.0
 10
128.383192
 20
7.046319
 30
0.0
 10
129.238552
 20
6.683567
 30
0.0
 10
130.489912
 20
6.454695
 30
0.0
 10
132.349432
 20
6.365447
 30
0.0
 10
134.397032
 20
6.365447
 30
0.0
 10
134.397032
 20
5.094399
 30
0.0
 10
134.397032
 20
3.826223
 30
0.0
 10
131.994552
 20
3.853583
 30
0.0
 10
129.871032
 20
3.942831
 30
0.0
 10
128.515112
 20
4.108367
 30
0.0
 10
127.729778
 20
4.398443
 30
0.0
 10
127.025122
 20
4.826415
 30
0.0
 10
126.420081
 20
5.378665
 30
0.0
 10
125.933592
 20
6.041575
 30
0.0
 10
125.709782
 20
6.594042
 30
0.0
 10
125.557432
 20
7.542935
 30
0.0
 10
125.393592
 20
11.695807
 30
0.0
 10
125.305672
 20
16.398543
 30
0.0
  0
LWPOLYLINE
  5
112
100
AcDbEntity
  8
Layer_1
 62
7
100
AcDbPolyline
 90
39
 70
0
 10
99.075832
 20
16.393743
 30
0.0
 10
100.755476
 20
16.308052
 30
0.0
 10
102.047482
 20
16.023687
 30
0.0
 10
103.076163
 20
15.499705
 30
0.0
 10
103.965832
 20
14.695167
 30
0.0
 10
104.651652
 20
13.751738
 30
0.0
 10
105.133172
 20
12.662658
 30
0.0
 10
105.414382
 20
11.405870
 30
0.0
 10
105.499272
 20
9.959319
 30
0.0
 10
105.399053
 20
8.589027
 30
0.0
 10
105.123822
 20
7.405394
 30
0.0
 10
104.675716
 20
6.404009
 30
0.0
 10
104.056872
 20
5.580463
 30
0.0
 10
103.264214
 20
4.926278
 30
0.0
 10
102.289172
 20
4.436391
 30
0.0
 10
101.125639
 20
4.111528
 30
0.0
 10
99.767512
 20
3.952415
 30
0.0
 10
98.089992
 20
3.946815
 30
0.0
 10
96.964552
 20
4.074927
 30
0.0
 10
95.829366
 20
4.524111
 30
0.0
 10
94.864302
 20
5.145933
 30
0.0
 10
94.072683
 20
5.929314
 30
0.0
 10
93.457832
 20
6.863175
 30
0.0
 10
93.025153
 20
7.938399
 30
0.0
 10
92.784002
 20
9.144506
 30
0.0
 10
92.743266
 20
10.469123
 30
0.0
 10
92.911832
 20
11.899879
 30
0.0
 10
93.364162
 20
13.502266
 30
0.0
 10
93.706858
 20
14.102769
 30
0.0
 10
94.185912
 20
14.698207
 30
0.0
 10
95.074342
 20
15.500900
 30
0.0
 10
96.103232
 20
16.024087
 30
0.0
 10
97.395942
 20
16.308257
 30
0.0
 10
99.075832
 20
16.393903
 30
0.0
 10
100.152795
 20
16.393810
 30
0.0
 10
100.197668
 20
16.393782
 30
0.0
 10
100.033132
 20
16.393763
 30
0.0
 10
99.075832
 20
16.393743
 30
0.0
 10
99.075832
 20
16.393743
 30
0.0
  0
LWPOLYLINE
  5
113
100
AcDbEntity
  8
Layer_1
 62
7
100
AcDbPolyline
 90
37
 70
0
 10
115.171912
 20
16.382223
 30
0.0
 10
116.811592
 20
16.298390
 30
0.0
 10
118.078072
 20
16.071295
 30
0.0
 10
118.816601
 20
15.757328
 30
0.0
 10
119.473241
 20
15.307859
 30
0.0
 10
120.045698
 20
14.740074
 30
0.0
 10
120.531682
 20
14.071162
 30
0.0
 10
121.235058
 20
12.498703
 30
0.0
 10
121.565032
 20
10.727983
 30
0.0
 10
121.503876
 20
8.909594
 30
0.0
 10
121.044042
 20
7.196973
 30
0.0
 10
120.663719
 20
6.424644
 30
0.0
 10
120.182643
 20
5.731939
 30
0.0
 10
119.600455
 20
5.136585
 30
0.0
 10
118.916792
 20
4.656311
 30
0.0
 10
117.727752
 20
4.241082
 30
0.0
 10
116.066872
 20
3.966799
 30
0.0
 10
114.364042
 20
3.905412
 30
0.0
 10
113.046952
 20
4.074767
 30
0.0
 10
112.144597
 20
4.398303
 30
0.0
 10
111.356734
 20
4.806162
 30
0.0
 10
110.679921
 20
5.302963
 30
0.0
 10
110.110712
 20
5.893324
 30
0.0
 10
109.645663
 20
6.581865
 30
0.0
 10
109.281329
 20
7.373205
 30
0.0
 10
108.841032
 20
9.282759
 30
0.0
 10
108.784561
 20
10.466197
 30
0.0
 10
108.893250
 20
11.597730
 30
0.0
 10
109.154229
 20
12.655754
 30
0.0
 10
109.554632
 20
13.618666
 30
0.0
 10
110.081590
 20
14.464862
 30
0.0
 10
110.722235
 20
15.172740
 30
0.0
 10
111.463698
 20
15.720696
 30
0.0
 10
112.293112
 20
16.087127
 30
0.0
 10
113.540662
 20
16.307464
 30
0.0
 10
115.171912
 20
16.382223
 30
0.0
 10
115.171912
 20
16.382223
 30
0.0
  0
LWPOLYLINE
  5
114
100
AcDbEntity
  8
Layer_1
 62
7
100
AcDbPolyline
 90
16
 70
0
 10
80.957992
 20
14.155359
 30
0.0
 10
80.957992
 20
13.907767
 30
0.0
 10
80.957992
 20
12.389135
 30
0.0
 10
80.957992
 20
10.621463
 30
0.0
 10
83.348312
 20
10.621463
 30
0.0
 10
85.028872
 20
10.723671
 30
0.0
 10
85.605272
 20
10.848903
 30
0.0
 10
86.005832
 20
11.072023
 30
0.0
 10
86.338372
 20
11.739356
 30
0.0
 10
86.386392
 20
12.517239
 30
0.0
 10
86.207272
 20
13.260167
 30
0.0
 10
85.743272
 20
13.802695
 30
0.0
 10
85.303042
 20
13.963881
 30
0.0
 10
84.701352
 20
14.060351
 30
0.0
 10
83.148232
 20
14.155359
 30
0.0
 10
80.957992
 20
14.155359
 30
0.0
  0
LWPOLYLINE
  5
115
100
AcDbEntity
  8
Layer_1
 62
7
100
AcDbPolyline
 90
28
 70
0
 10
98.987912
 20
14.152159
 30
0.0
 10
98.325552
 20
14.111578
 30
0.0
 10
97.771432
 20
13.953511
 30
0.0
 10
97.283232
 20
13.646737
 30
0.0
 10
96.806792
 20
13.180519
 30
0.0
 10
96.362692
 20
12.620883
 30
0.0
 10
96.093912
 20
12.047663
 30
0.0
 10
95.975202
 20
11.340595
 30
0.0
 10
95.951352
 20
10.359159
 30
0.0
 10
96.150292
 20
8.380111
 30
0.0
 10
96.407967
 20
7.621681
 30
0.0
 10
96.787112
 20
7.012391
 30
0.0
 10
97.294228
 20
6.561141
 30
0.0
 10
97.922042
 20
6.274907
 30
0.0
 10
98.661891
 20
6.147252
 30
0.0
 10
99.505112
 20
6.171743
 30
0.0
 10
100.673482
 20
6.487915
 30
0.0
 10
101.124853
 20
6.782078
 30
0.0
 10
101.504232
 20
7.177935
 30
0.0
 10
102.030963
 20
8.133453
 30
0.0
 10
102.311342
 20
9.274681
 30
0.0
 10
102.343246
 20
10.532426
 30
0.0
 10
102.124552
 20
11.837495
 30
0.0
 10
101.717222
 20
12.899526
 30
0.0
 10
101.087112
 20
13.629631
 30
0.0
 10
100.182952
 20
14.031712
 30
0.0
 10
98.987912
 20
14.152159
 30
0.0
 10
98.987912
 20
14.152159
 30
0.0
  0
LWPOLYLINE
  5
116
100
AcDbEntity
  8
Layer_1
 62
7
100
AcDbPolyline
 90
27
 70
0
 10
115.378232
 20
14.144959
 30
0.0
 10
114.343628
 20
14.056393
 30
0.0
 10
113.476282
 20
13.773650
 30
0.0
 10
112.795851
 20
13.299421
 30
0.0
 10
112.321992
 20
12.636399
 30
0.0
 10
112.144675
 20
12.083280
 30
0.0
 10
112.053712
 20
11.391771
 30
0.0
 10
112.071752
 20
9.779055
 30
0.0
 10
112.296152
 20
8.204271
 30
0.0
 10
112.479562
 20
7.574404
 30
0.0
 10
112.739112
 20
7.101647
 30
0.0
 10
113.496126
 20
6.489059
 30
0.0
 10
114.472762
 20
6.152900
 30
0.0
 10
115.547213
 20
6.108660
 30
0.0
 10
116.597672
 20
6.371831
 30
0.0
 10
117.366152
 20
6.892540
 30
0.0
 10
117.911192
 20
7.691823
 30
0.0
 10
118.230862
 20
8.741751
 30
0.0
 10
118.341912
 20
10.036719
 30
0.0
 10
118.192062
 20
11.816948
 30
0.0
 10
117.980371
 20
12.519381
 30
0.0
 10
117.667032
 20
13.101343
 30
0.0
 10
117.244866
 20
13.557344
 30
0.0
 10
116.717362
 20
13.881415
 30
0.0
 10
116.092493
 20
14.076353
 30
0.0
 10
115.378232
 20
14.144959
 30
0.0
 10
115.378232
 20
14.144959
 30
0.0
  0
LWPOLYLINE
  5
117
100
AcDbEntity
  8
Layer_1
 62
7
100
AcDbPolyline
 90
18
 70
0
 10
37.004712
 20
13.120055
 30
0.0
 10
36.765032
 20
12.610487
 30
0.0
 10
36.127992
 20
11.257391
 30
0.0
 10
35.671512
 20
10.223855
 30
0.0
 10
35.525832
 20
9.849583
 30
0.0
 10
35.458632
 20
9.589047
 30
0.0
 10
35.558792
 20
9.352975
 30
0.0
 10
35.701432
 20
9.262287
 30
0.0
 10
36.025912
 20
9.171599
 30
0.0
 10
36.952632
 20
9.101039
 30
0.0
 10
37.659432
 20
9.118319
 30
0.0
 10
38.132632
 20
9.244991
 30
0.0
 10
38.291272
 20
9.430621
 30
0.0
 10
38.345032
 20
9.655239
 30
0.0
 10
38.263112
 20
10.094279
 30
0.0
 10
37.648872
 20
11.710799
 30
0.0
 10
37.004232
 20
13.120039
 30
0.0
 10
37.004712
 20
13.120055
 30
0.0
  0
ENDSEC
  0
SECTION
  2
OBJECTS
  0
DICTIONARY
  5
C
330
0
100
AcDbDictionary
  3
ACAD_GROUP
350
D
  3
ACAD_MLINESTYLE
350
17
  0
DICTIONARY
  5
D
330
C
100
AcDbDictionary
  0
DICTIONARY
  5
1A
330
C
100
AcDbDictionary
  0
DICTIONARY
  5
17
330
C
100
AcDbDictionary
  3
STANDARD
350
18
  0
DICTIONARY
  5
19
330
C
100
AcDbDictionary
  0
ENDSEC
  0
EOF
