<?xml version="1.0" encoding="utf-8"?>
<!-- Generator: Adobe Illustrator 15.1.0, SVG Export Plug-In . SVG Version: 6.00 Build 0)  -->
<!DOCTYPE svg PUBLIC "-//W3C//DTD SVG 1.1//EN" "http://www.w3.org/Graphics/SVG/1.1/DTD/svg11.dtd">
<svg version="1.1" id="Layer_1" xmlns="http://www.w3.org/2000/svg" xmlns:xlink="http://www.w3.org/1999/xlink" x="0px" y="0px"
	 width="612px" height="792px" viewBox="0 0 612 792" enable-background="new 0 0 612 792" xml:space="preserve">
<path fill-rule="evenodd" clip-rule="evenodd" stroke="#000000" stroke-width="2.9999" stroke-linecap="round" stroke-linejoin="round" stroke-miterlimit="22.9256" d="
	M125.904,109.876l171.41,49.701c8.026,2.327,12.825,10.548,11.061,18.6l126.778,36.76c6.157,1.785,9.734,8.284,7.949,14.44
	l-0.577,1.991l97.712,28.333c5.438-4.698,13.077-6.655,20.455-4.516v0c11.575,3.356,18.3,15.573,14.943,27.147l-8.676,29.922
	c-3.356,11.575-15.572,18.3-27.147,14.943h-0.001c-7.378-2.14-12.784-7.879-14.866-14.757l-97.713-28.333l-0.577,1.991
	c-1.785,6.157-8.284,9.734-14.44,7.949l-56.481-16.376v60.716c0,6.12-5.007,11.127-11.127,11.127h-14.372v24.573h43.363
	c4.33,0,7.872,3.542,7.872,7.873v53.801c0,4.33-3.542,7.873-7.872,7.873h-2.03l72.489,216.551h-25.562l-84.677-216.551h-11.1
	l-7.006,268.912h-23.813l-6.369-268.912h-11.737l-84.677,216.551h-25.562l72.49-216.551h-2.03c-4.331,0-7.873-3.543-7.873-7.873
	v-53.801c0-4.331,3.542-7.873,7.873-7.873h43.363v-24.573h-14.373c-6.121,0-11.127-5.007-11.127-11.127v-75.438L94.73,217.387
	l-2.123,7.32c-1.259,4.341-5.841,6.864-10.183,5.605l-39.997-11.597c-4.341-1.259-6.864-5.841-5.604-10.183L72.243,86.38
	c1.259-4.341,5.841-6.864,10.183-5.604l39.997,11.597c4.341,1.259,6.864,5.841,5.605,10.182L125.904,109.876z"/>
</svg>
