  0
SECTION
  2
HEADER
  9
$ACADVER
  1
AC1014
  9
$HANDSEED
  5
FFFF
  9
$MEASUREMENT
 70
     1
  0
ENDSEC
  0
SECTION
  2
TABLES
  0
TABLE
  2
VPORT
  5
8
330
0
100
AcDbSymbolTable
 70
     4
  0
VPORT
  5
2E
330
8
100
AcDbSymbolTableRecord
100
AcDbViewportTableRecord
  2
*ACTIVE
 70
     0
 10
0.0
 20
0.0
 11
1.0
 21
1.0
 12
210.0
 22
148.5
 13
0.0
 23
0.0
 14
10.0
 24
10.0
 15
10.0
 25
10.0
 16
0.0
 26
0.0
 36
1.0
 17
0.0
 27
0.0
 37
0.0
 40
341.0
 41
1.24
 42
50.0
 43
0.0
 44
0.0
 50
0.0
 51
0.0
 71
     0
 72
   100
 73
     1
 74
     3
 75
     0
 76
     0
 77
     0
 78
     0
  0
ENDTAB
  0
TABLE
  2
LTYPE
  5
5
330
0
100
AcDbSymbolTable
 70
     1
  0
LTYPE
  5
14
330
5
100
AcDbSymbolTableRecord
100
AcDbLinetypeTableRecord
  2
BYBLOCK
 70
     0
  3

 72
    65
 73
     0
 40
0.0
  0
LTYPE
  5
15
330
5
100
AcDbSymbolTableRecord
100
AcDbLinetypeTableRecord
  2
BYLAYER
 70
     0
  3

 72
    65
 73
     0
 40
0.0
  0
LTYPE
  5
16
330
5
100
AcDbSymbolTableRecord
100
AcDbLinetypeTableRecord
  2
CONTINUOUS
 70
     0
  3
Solid line
 72
    65
 73
     0
 40
0.0
  0
ENDTAB
  0
TABLE
  2
LAYER
  5
2
100
AcDbSymbolTable
 70
2
  0
LAYER
  5
50
100
AcDbSymbolTableRecord
100
AcDbLayerTableRecord
  2
0
 70
0
  6
CONTINUOUS
  0
LAYER
  5
51
100
AcDbSymbolTableRecord
100
AcDbLayerTableRecord
  2
Layer_1
 70
0
  6
CONTINUOUS
  0
ENDTAB
  0
TABLE
  2
STYLE
  5
3
330
0
100
AcDbSymbolTable
 70
     1
  0
STYLE
  5
11
330
3
100
AcDbSymbolTableRecord
100
AcDbTextStyleTableRecord
  2
STANDARD
 70
     0
 40
0.0
 41
1.0
 50
0.0
 71
     0
 42
2.5
  3
txt
  4

  0
ENDTAB
  0
TABLE
  2
VIEW
  5
6
330
0
100
AcDbSymbolTable
 70
     0
  0
ENDTAB
  0
TABLE
  2
UCS
  5
7
330
0
100
AcDbSymbolTable
 70
     0
  0
ENDTAB
  0
TABLE
  2
APPID
  5
9
330
0
100
AcDbSymbolTable
 70
     2
  0
APPID
  5
12
330
9
100
AcDbSymbolTableRecord
100
AcDbRegAppTableRecord
  2
ACAD
 70
     0
  0
ENDTAB
  0
TABLE
  2
DIMSTYLE
  5
A
330
0
100
AcDbSymbolTable
 70
     1
  0
DIMSTYLE
105
27
330
A
100
AcDbSymbolTableRecord
100
AcDbDimStyleTableRecord
  2
ISO-25
 70
     0
  3

  4

  5

  6

  7

 40
1.0
 41
2.5
 42
0.625
 43
3.75
 44
1.25
 45
0.0
 46
0.0
 47
0.0
 48
0.0
140
2.5
141
2.5
142
0.0
143
0.03937007874016
144
1.0
145
0.0
146
1.0
147
0.625
 71
     0
 72
     0
 73
     0
 74
     0
 75
     0
 76
     0
 77
     1
 78
     8
170
     0
171
     3
172
     1
173
     0
174
     0
175
     0
176
     0
177
     0
178
     0
270
     2
271
     2
272
     2
273
     2
274
     3
340
11
275
     0
280
     0
281
     0
282
     0
283
     0
284
     8
285
     0
286
     0
287
     3
288
     0
  0
ENDTAB
  0
TABLE
  2
BLOCK_RECORD
  5
1
330
0
100
AcDbSymbolTable
 70
     1
  0
BLOCK_RECORD
  5
1F
330
1
100
AcDbSymbolTableRecord
100
AcDbBlockTableRecord
  2
*MODEL_SPACE
  0
BLOCK_RECORD
  5
1B
330
1
100
AcDbSymbolTableRecord
100
AcDbBlockTableRecord
  2
*PAPER_SPACE
  0
ENDTAB
  0
ENDSEC
  0
SECTION
  2
BLOCKS
  0
BLOCK
  5
20
330
1F
100
AcDbEntity
  8
0
100
AcDbBlockBegin
  2
*MODEL_SPACE
 70
     0
 10
0.0
 20
0.0
 30
0.0
  3
*MODEL_SPACE
  1

  0
ENDBLK
  5
21
330
1F
100
AcDbEntity
  8
0
100
AcDbBlockEnd
  0
BLOCK
  5
1C
330
1B
100
AcDbEntity
 67
     1
  8
0
100
AcDbBlockBegin
  2
*PAPER_SPACE
  1

  0
ENDBLK
  5
1D
330
1B
100
AcDbEntity
 67
     1
  8
0
100
AcDbBlockEnd
  0
ENDSEC
  0
SECTION
  2
ENTITIES
  0
LWPOLYLINE
  5
100
100
AcDbEntity
  8
Layer_1
 62
7
100
AcDbPolyline
 90
7
 70
1
 10
7.971669
 20
0.799980
 30
0.0
 10
7.971669
 20
0.028333
 30
0.0
 10
6.999986
 20
0.028333
 30
0.0
 10
6.999986
 20
0.000001
 30
0.0
 10
8.000001
 20
0.000001
 30
0.0
 10
8.000001
 20
0.799980
 30
0.0
 10
7.971669
 20
0.799980
 30
0.0
  0
LWPOLYLINE
  5
101
100
AcDbEntity
  8
Layer_1
 62
7
100
AcDbPolyline
 90
7
 70
1
 10
0.000000
 20
0.799979
 30
0.0
 10
0.000000
 20
0.000000
 30
0.0
 10
1.000015
 20
0.000000
 30
0.0
 10
1.000015
 20
0.028333
 30
0.0
 10
0.028335
 20
0.028333
 30
0.0
 10
0.028335
 20
0.799979
 30
0.0
 10
0.000000
 20
0.799979
 30
0.0
  0
LWPOLYLINE
  5
102
100
AcDbEntity
  8
Layer_1
 62
7
100
AcDbPolyline
 90
7
 70
1
 10
0.000000
 20
8.000002
 30
0.0
 10
0.000000
 20
6.999990
 30
0.0
 10
0.028335
 20
6.999990
 30
0.0
 10
0.028335
 20
7.971616
 30
0.0
 10
1.000015
 20
7.971616
 30
0.0
 10
1.000015
 20
8.000002
 30
0.0
 10
0.000000
 20
8.000002
 30
0.0
  0
LWPOLYLINE
  5
103
100
AcDbEntity
  8
Layer_1
 62
7
100
AcDbPolyline
 90
8
 70
1
 10
6.999986
 20
8.000002
 30
0.0
 10
6.999986
 20
7.971615
 30
0.0
 10
7.971669
 20
7.971615
 30
0.0
 10
7.971669
 20
6.999988
 30
0.0
 10
8.000001
 20
6.999988
 30
0.0
 10
8.000001
 20
7.985781
 30
0.0
 10
8.000001
 20
8.000002
 30
0.0
 10
6.999986
 20
8.000002
 30
0.0
  0
LWPOLYLINE
  5
104
100
AcDbEntity
  8
Layer_1
 62
7
100
AcDbPolyline
 90
98
 70
0
 10
3.999972
 20
7.499924
 30
0.0
 10
3.819863
 20
7.495370
 30
0.0
 10
3.642118
 20
7.481854
 30
0.0
 10
3.466958
 20
7.459596
 30
0.0
 10
3.294601
 20
7.428816
 30
0.0
 10
3.125269
 20
7.389734
 30
0.0
 10
2.959181
 20
7.342571
 30
0.0
 10
2.796557
 20
7.287545
 30
0.0
 10
2.637616
 20
7.224876
 30
0.0
 10
2.331667
 20
7.077493
 30
0.0
 10
2.043092
 20
6.902179
 30
0.0
 10
1.773651
 20
6.700694
 30
0.0
 10
1.525102
 20
6.474798
 30
0.0
 10
1.299206
 20
6.226250
 30
0.0
 10
1.097722
 20
5.956808
 30
0.0
 10
0.922408
 20
5.668233
 30
0.0
 10
0.775024
 20
5.362284
 30
0.0
 10
0.712356
 20
5.203343
 30
0.0
 10
0.657330
 20
5.040719
 30
0.0
 10
0.610166
 20
4.874631
 30
0.0
 10
0.571084
 20
4.705299
 30
0.0
 10
0.540305
 20
4.532943
 30
0.0
 10
0.518047
 20
4.357782
 30
0.0
 10
0.504531
 20
4.180037
 30
0.0
 10
0.499976
 20
3.999928
 30
0.0
 10
0.504531
 20
3.819819
 30
0.0
 10
0.518047
 20
3.642074
 30
0.0
 10
0.540305
 20
3.466913
 30
0.0
 10
0.571084
 20
3.294557
 30
0.0
 10
0.610166
 20
3.125225
 30
0.0
 10
0.657330
 20
2.959137
 30
0.0
 10
0.712356
 20
2.796512
 30
0.0
 10
0.775024
 20
2.637572
 30
0.0
 10
0.922408
 20
2.331623
 30
0.0
 10
1.097722
 20
2.043048
 30
0.0
 10
1.299206
 20
1.773606
 30
0.0
 10
1.525102
 20
1.525058
 30
0.0
 10
1.773651
 20
1.299162
 30
0.0
 10
2.043092
 20
1.097677
 30
0.0
 10
2.331667
 20
0.922363
 30
0.0
 10
2.637616
 20
0.774979
 30
0.0
 10
2.796557
 20
0.712311
 30
0.0
 10
2.959181
 20
0.657285
 30
0.0
 10
3.125269
 20
0.610121
 30
0.0
 10
3.294601
 20
0.571039
 30
0.0
 10
3.466958
 20
0.540260
 30
0.0
 10
3.642118
 20
0.518002
 30
0.0
 10
3.819863
 20
0.504486
 30
0.0
 10
3.999972
 20
0.499931
 30
0.0
 10
4.180082
 20
0.504486
 30
0.0
 10
4.357827
 20
0.518001
 30
0.0
 10
4.532987
 20
0.540259
 30
0.0
 10
4.705344
 20
0.571039
 30
0.0
 10
4.874676
 20
0.610121
 30
0.0
 10
5.040764
 20
0.657284
 30
0.0
 10
5.203389
 20
0.712310
 30
0.0
 10
5.362329
 20
0.774979
 30
0.0
 10
5.668279
 20
0.922362
 30
0.0
 10
5.956854
 20
1.097676
 30
0.0
 10
6.226295
 20
1.299161
 30
0.0
 10
6.474844
 20
1.525057
 30
0.0
 10
6.700740
 20
1.773605
 30
0.0
 10
6.902225
 20
2.043047
 30
0.0
 10
7.077539
 20
2.331622
 30
0.0
 10
7.224923
 20
2.637571
 30
0.0
 10
7.287591
 20
2.796512
 30
0.0
 10
7.342617
 20
2.959136
 30
0.0
 10
7.389781
 20
3.125224
 30
0.0
 10
7.428863
 20
3.294557
 30
0.0
 10
7.459643
 20
3.466913
 30
0.0
 10
7.481900
 20
3.642074
 30
0.0
 10
7.495417
 20
3.819819
 30
0.0
 10
7.499971
 20
3.999928
 30
0.0
 10
7.495417
 20
4.180037
 30
0.0
 10
7.481900
 20
4.357782
 30
0.0
 10
7.459643
 20
4.532943
 30
0.0
 10
7.428863
 20
4.705299
 30
0.0
 10
7.389781
 20
4.874632
 30
0.0
 10
7.342617
 20
5.040720
 30
0.0
 10
7.287591
 20
5.203344
 30
0.0
 10
7.224923
 20
5.362284
 30
0.0
 10
7.077539
 20
5.668234
 30
0.0
 10
6.902225
 20
5.956809
 30
0.0
 10
6.700740
 20
6.226251
 30
0.0
 10
6.474844
 20
6.474799
 30
0.0
 10
6.226295
 20
6.700695
 30
0.0
 10
5.956854
 20
6.902180
 30
0.0
 10
5.668279
 20
7.077493
 30
0.0
 10
5.362329
 20
7.224877
 30
0.0
 10
5.203388
 20
7.287545
 30
0.0
 10
5.040764
 20
7.342571
 30
0.0
 10
4.874676
 20
7.389735
 30
0.0
 10
4.705344
 20
7.428817
 30
0.0
 10
4.532987
 20
7.459596
 30
0.0
 10
4.357827
 20
7.481854
 30
0.0
 10
4.180082
 20
7.495370
 30
0.0
 10
3.999972
 20
7.499924
 30
0.0
 10
3.999972
 20
7.499924
 30
0.0
  0
LWPOLYLINE
  5
105
100
AcDbEntity
  8
Layer_1
 62
7
100
AcDbPolyline
 90
127
 70
0
 10
3.991319
 20
7.174763
 30
0.0
 10
3.991319
 20
7.174763
 30
0.0
 10
4.008682
 20
7.174706
 30
0.0
 10
4.315435
 20
7.159217
 30
0.0
 10
4.333017
 20
7.157397
 30
0.0
 10
4.630894
 20
7.111977
 30
0.0
 10
4.648036
 20
7.108449
 30
0.0
 10
4.935550
 20
7.034531
 30
0.0
 10
4.952142
 20
7.029350
 30
0.0
 10
5.227752
 20
6.928477
 30
0.0
 10
5.243514
 20
6.921808
 30
0.0
 10
5.505783
 20
6.795469
 30
0.0
 10
5.520667
 20
6.787366
 30
0.0
 10
5.768052
 20
6.637105
 30
0.0
 10
5.781997
 20
6.627734
 30
0.0
 10
6.012956
 20
6.454983
 30
0.0
 10
6.025856
 20
6.444345
 30
0.0
 10
6.238900
 20
6.250758
 30
0.0
 10
6.250697
 20
6.238962
 30
0.0
 10
6.444282
 20
6.025917
 30
0.0
 10
6.454922
 20
6.013019
 30
0.0
 10
6.627673
 20
5.782060
 30
0.0
 10
6.637043
 20
5.768114
 30
0.0
 10
6.787303
 20
5.520784
 30
0.0
 10
6.795406
 20
5.505846
 30
0.0
 10
6.921746
 20
5.243577
 30
0.0
 10
6.928414
 20
5.227813
 30
0.0
 10
7.029286
 20
4.952205
 30
0.0
 10
7.034468
 20
4.935613
 30
0.0
 10
7.108388
 20
4.648100
 30
0.0
 10
7.111915
 20
4.630957
 30
0.0
 10
7.157336
 20
4.333080
 30
0.0
 10
7.159086
 20
4.315496
 30
0.0
 10
7.167355
 20
4.151234
 30
0.0
 10
7.175079
 20
4.107940
 30
0.0
 10
7.171766
 20
4.064087
 30
0.0
 10
7.174588
 20
4.008745
 30
0.0
 10
7.174588
 20
3.991437
 30
0.0
 10
7.162405
 20
3.740469
 30
0.0
 10
7.161078
 20
3.725916
 30
0.0
 10
7.127948
 20
3.476822
 30
0.0
 10
7.116424
 20
3.431757
 30
0.0
 10
7.093900
 20
3.391945
 30
0.0
 10
7.061835
 20
3.359323
 30
0.0
 10
7.021689
 20
3.335828
 30
0.0
 10
6.976774
 20
3.323730
 30
0.0
 10
6.931032
 20
3.323794
 30
0.0
 10
6.886867
 20
3.335701
 30
0.0
 10
6.846682
 20
3.359129
 30
0.0
 10
6.814082
 20
3.392310
 30
0.0
 10
6.791670
 20
3.432185
 30
0.0
 10
6.780347
 20
3.476503
 30
0.0
 10
6.781015
 20
3.523014
 30
0.0
 10
6.813149
 20
3.764777
 30
0.0
 10
6.824559
 20
3.999760
 30
0.0
 10
6.822697
 20
4.038125
 30
0.0
 10
5.977077
 20
5.030368
 30
0.0
 10
5.960708
 20
5.053022
 30
0.0
 10
5.844842
 20
5.243743
 30
0.0
 10
5.716685
 20
5.415061
 30
0.0
 10
5.573093
 20
5.573094
 30
0.0
 10
5.415060
 20
5.716741
 30
0.0
 10
5.243743
 20
5.844843
 30
0.0
 10
5.060298
 20
5.956299
 30
0.0
 10
4.865884
 20
6.049950
 30
0.0
 10
4.661603
 20
6.124695
 30
0.0
 10
4.448449
 20
6.179486
 30
0.0
 10
4.227632
 20
6.213220
 30
0.0
 10
3.999924
 20
6.224686
 30
0.0
 10
3.772216
 20
6.213220
 30
0.0
 10
3.551346
 20
6.179486
 30
0.0
 10
3.338246
 20
6.124695
 30
0.0
 10
3.133965
 20
6.049950
 30
0.0
 10
2.939497
 20
5.956299
 30
0.0
 10
2.756052
 20
5.844843
 30
0.0
 10
2.584789
 20
5.716741
 30
0.0
 10
2.426756
 20
5.573094
 30
0.0
 10
2.283110
 20
5.415061
 30
0.0
 10
2.155007
 20
5.243743
 30
0.0
 10
2.043551
 20
5.060298
 30
0.0
 10
1.949955
 20
4.865885
 30
0.0
 10
1.875155
 20
4.661604
 30
0.0
 10
1.820364
 20
4.448505
 30
0.0
 10
1.786630
 20
4.227633
 30
0.0
 10
1.775164
 20
4.000587
 30
0.0
 10
1.788724
 20
3.767809
 30
0.0
 10
1.828137
 20
3.528361
 30
0.0
 10
1.824654
 20
3.459711
 30
0.0
 10
1.796346
 20
3.399642
 30
0.0
 10
1.747758
 20
3.354378
 30
0.0
 10
1.683433
 20
3.330146
 30
0.0
 10
1.614734
 20
3.332466
 30
0.0
 10
1.554195
 20
3.359754
 30
0.0
 10
1.508116
 20
3.407570
 30
0.0
 10
1.482798
 20
3.471476
 30
0.0
 10
1.441845
 20
3.720019
 30
0.0
 10
1.439870
 20
3.738264
 30
0.0
 10
1.425315
 20
3.989728
 30
0.0
 10
1.425033
 20
4.008745
 30
0.0
 10
1.428008
 20
4.067174
 30
0.0
 10
1.427528
 20
4.069158
 30
0.0
 10
1.189623
 20
5.399130
 30
0.0
 10
1.189857
 20
5.462060
 30
0.0
 10
1.212334
 20
5.520838
 30
0.0
 10
1.362594
 20
5.768169
 30
0.0
 10
1.371964
 20
5.782115
 30
0.0
 10
1.544715
 20
6.013074
 30
0.0
 10
1.555355
 20
6.025972
 30
0.0
 10
1.748996
 20
6.238962
 30
0.0
 10
1.760793
 20
6.250758
 30
0.0
 10
1.973837
 20
6.444345
 30
0.0
 10
1.986734
 20
6.454983
 30
0.0
 10
2.217694
 20
6.627734
 30
0.0
 10
2.231638
 20
6.637105
 30
0.0
 10
2.478969
 20
6.787366
 30
0.0
 10
2.493907
 20
6.795469
 30
0.0
 10
2.756177
 20
6.921807
 30
0.0
 10
2.771942
 20
6.928477
 30
0.0
 10
3.047548
 20
7.029349
 30
0.0
 10
3.064140
 20
7.034531
 30
0.0
 10
3.351654
 20
7.108449
 30
0.0
 10
3.368796
 20
7.111977
 30
0.0
 10
3.666673
 20
7.157397
 30
0.0
 10
3.684256
 20
7.159217
 30
0.0
 10
3.991009
 20
7.174706
 30
0.0
 10
3.991291
 20
7.174762
 30
0.0
 10
3.991319
 20
7.174763
 30
0.0
  0
LWPOLYLINE
  5
106
100
AcDbEntity
  8
Layer_1
 62
7
100
AcDbPolyline
 90
76
 70
0
 10
3.999972
 20
6.824686
 30
0.0
 10
3.710917
 20
6.810078
 30
0.0
 10
3.430459
 20
6.767304
 30
0.0
 10
3.159867
 20
6.697741
 30
0.0
 10
2.900466
 20
6.602766
 30
0.0
 10
2.653631
 20
6.483869
 30
0.0
 10
2.420688
 20
6.342372
 30
0.0
 10
2.203233
 20
6.179709
 30
0.0
 10
2.002536
 20
5.997367
 30
0.0
 10
1.820192
 20
5.796669
 30
0.0
 10
1.657528
 20
5.579215
 30
0.0
 10
1.545963
 20
5.395605
 30
0.0
 10
1.619882
 20
4.982359
 30
0.0
 10
1.624237
 20
4.994265
 30
0.0
 10
1.630906
 20
5.010085
 30
0.0
 10
1.731998
 20
5.219878
 30
0.0
 10
1.740100
 20
5.234760
 30
0.0
 10
1.860321
 20
5.432647
 30
0.0
 10
1.869691
 20
5.446592
 30
0.0
 10
2.007881
 20
5.631360
 30
0.0
 10
2.018521
 20
5.644258
 30
0.0
 10
2.173410
 20
5.814694
 30
0.0
 10
2.185207
 20
5.826490
 30
0.0
 10
2.355644
 20
5.981381
 30
0.0
 10
2.368542
 20
5.992020
 30
0.0
 10
2.553310
 20
6.130210
 30
0.0
 10
2.567254
 20
6.139580
 30
0.0
 10
2.765140
 20
6.259800
 30
0.0
 10
2.780024
 20
6.267903
 30
0.0
 10
2.989817
 20
6.368996
 30
0.0
 10
3.005636
 20
6.375666
 30
0.0
 10
3.226122
 20
6.456364
 30
0.0
 10
3.242714
 20
6.461490
 30
0.0
 10
3.472736
 20
6.520635
 30
0.0
 10
3.489878
 20
6.524163
 30
0.0
 10
3.728170
 20
6.560543
 30
0.0
 10
3.745752
 20
6.562307
 30
0.0
 10
3.991153
 20
6.574710
 30
0.0
 10
4.008792
 20
6.574710
 30
0.0
 10
4.254195
 20
6.562307
 30
0.0
 10
4.271778
 20
6.560543
 30
0.0
 10
4.510069
 20
6.524163
 30
0.0
 10
4.527265
 20
6.520635
 30
0.0
 10
4.757177
 20
6.461490
 30
0.0
 10
4.773826
 20
6.456364
 30
0.0
 10
4.994312
 20
6.375666
 30
0.0
 10
5.010130
 20
6.368996
 30
0.0
 10
5.219923
 20
6.267903
 30
0.0
 10
5.234807
 20
6.259800
 30
0.0
 10
5.432637
 20
6.139580
 30
0.0
 10
5.446638
 20
6.130210
 30
0.0
 10
5.631459
 20
5.992020
 30
0.0
 10
5.644303
 20
5.981381
 30
0.0
 10
5.814740
 20
5.826490
 30
0.0
 10
5.826534
 20
5.814694
 30
0.0
 10
5.981426
 20
5.644258
 30
0.0
 10
5.992120
 20
5.631360
 30
0.0
 10
6.130256
 20
5.446592
 30
0.0
 10
6.139626
 20
5.432647
 30
0.0
 10
6.252568
 20
5.246722
 30
0.0
 10
6.740285
 20
4.674450
 30
0.0
 10
6.697785
 20
4.840035
 30
0.0
 10
6.602758
 20
5.099437
 30
0.0
 10
6.483861
 20
5.346271
 30
0.0
 10
6.342417
 20
5.579215
 30
0.0
 10
6.179699
 20
5.796669
 30
0.0
 10
5.997358
 20
5.997367
 30
0.0
 10
5.796661
 20
6.179709
 30
0.0
 10
5.579206
 20
6.342372
 30
0.0
 10
5.346263
 20
6.483869
 30
0.0
 10
5.099428
 20
6.602766
 30
0.0
 10
4.840026
 20
6.697741
 30
0.0
 10
4.569435
 20
6.767304
 30
0.0
 10
4.288976
 20
6.810078
 30
0.0
 10
3.999972
 20
6.824686
 30
0.0
 10
3.999972
 20
6.824686
 30
0.0
  0
LWPOLYLINE
  5
107
100
AcDbEntity
  8
Layer_1
 62
7
100
AcDbPolyline
 90
44
 70
0
 10
3.999972
 20
5.724074
 30
0.0
 10
4.177242
 20
5.715145
 30
0.0
 10
4.348229
 20
5.689017
 30
0.0
 10
4.513154
 20
5.646628
 30
0.0
 10
4.671077
 20
5.588861
 30
0.0
 10
4.821448
 20
5.516431
 30
0.0
 10
4.963606
 20
5.430056
 30
0.0
 10
5.096504
 20
5.330672
 30
0.0
 10
5.219150
 20
5.219216
 30
0.0
 10
5.322392
 20
5.105666
 30
0.0
 10
5.242136
 20
5.049160
 30
0.0
 10
5.171151
 20
4.981873
 30
0.0
 10
5.110758
 20
4.904907
 30
0.0
 10
5.062274
 20
4.819364
 30
0.0
 10
4.963117
 20
4.933931
 30
0.0
 10
4.852315
 20
5.037117
 30
0.0
 10
4.730886
 20
5.127721
 30
0.0
 10
4.599847
 20
5.204544
 30
0.0
 10
4.460218
 20
5.266385
 30
0.0
 10
4.313016
 20
5.312045
 30
0.0
 10
4.159262
 20
5.340323
 30
0.0
 10
3.999972
 20
5.350020
 30
0.0
 10
3.840678
 20
5.340334
 30
0.0
 10
3.686918
 20
5.312066
 30
0.0
 10
3.539710
 20
5.266415
 30
0.0
 10
3.400074
 20
5.204581
 30
0.0
 10
3.269027
 20
5.127765
 30
0.0
 10
3.147590
 20
5.037165
 30
0.0
 10
3.036779
 20
4.933984
 30
0.0
 10
2.937614
 20
4.819420
 30
0.0
 10
2.889135
 20
4.904943
 30
0.0
 10
2.828756
 20
4.981894
 30
0.0
 10
2.757791
 20
5.049170
 30
0.0
 10
2.677552
 20
5.105666
 30
0.0
 10
2.780738
 20
5.219161
 30
0.0
 10
2.903440
 20
5.330727
 30
0.0
 10
3.036282
 20
5.430056
 30
0.0
 10
3.178387
 20
5.516376
 30
0.0
 10
3.328868
 20
5.588861
 30
0.0
 10
3.486791
 20
5.646684
 30
0.0
 10
3.651659
 20
5.689017
 30
0.0
 10
3.822700
 20
5.715145
 30
0.0
 10
3.999972
 20
5.724074
 30
0.0
 10
3.999972
 20
5.724074
 30
0.0
  0
LWPOLYLINE
  5
108
100
AcDbEntity
  8
Layer_1
 62
7
100
AcDbPolyline
 90
36
 70
0
 10
3.999972
 20
4.849957
 30
0.0
 10
4.086876
 20
4.845566
 30
0.0
 10
4.171269
 20
4.832684
 30
0.0
 10
4.330816
 20
4.783155
 30
0.0
 10
4.475195
 20
4.704787
 30
0.0
 10
4.600987
 20
4.600998
 30
0.0
 10
4.704776
 20
4.475205
 30
0.0
 10
4.783144
 20
4.330827
 30
0.0
 10
4.832674
 20
4.171280
 30
0.0
 10
4.845556
 20
4.086887
 30
0.0
 10
4.849947
 20
3.999983
 30
0.0
 10
4.833469
 20
3.833381
 30
0.0
 10
4.785255
 20
3.674699
 30
0.0
 10
4.707152
 20
3.528397
 30
0.0
 10
4.601007
 20
3.398933
 30
0.0
 10
4.471549
 20
3.292779
 30
0.0
 10
4.325252
 20
3.214667
 30
0.0
 10
4.166573
 20
3.166443
 30
0.0
 10
3.999972
 20
3.149954
 30
0.0
 10
3.833363
 20
3.166433
 30
0.0
 10
3.674676
 20
3.214651
 30
0.0
 10
3.528369
 20
3.292760
 30
0.0
 10
3.398903
 20
3.398914
 30
0.0
 10
3.292750
 20
3.528380
 30
0.0
 10
3.214641
 20
3.674687
 30
0.0
 10
3.166423
 20
3.833374
 30
0.0
 10
3.149944
 20
3.999983
 30
0.0
 10
3.166433
 20
4.166584
 30
0.0
 10
3.214657
 20
4.325262
 30
0.0
 10
3.292769
 20
4.471560
 30
0.0
 10
3.398923
 20
4.601017
 30
0.0
 10
3.528387
 20
4.707162
 30
0.0
 10
3.674689
 20
4.785265
 30
0.0
 10
3.833370
 20
4.833479
 30
0.0
 10
3.999972
 20
4.849957
 30
0.0
 10
3.999972
 20
4.849957
 30
0.0
  0
LWPOLYLINE
  5
109
100
AcDbEntity
  8
Layer_1
 62
7
100
AcDbPolyline
 90
18
 70
0
 10
2.349966
 20
4.699916
 30
0.0
 10
2.408345
 20
4.688126
 30
0.0
 10
2.456018
 20
4.655983
 30
0.0
 10
2.488162
 20
4.608310
 30
0.0
 10
2.499953
 20
4.549931
 30
0.0
 10
2.488162
 20
4.491552
 30
0.0
 10
2.456018
 20
4.443878
 30
0.0
 10
2.408345
 20
4.411735
 30
0.0
 10
2.349966
 20
4.399945
 30
0.0
 10
2.291587
 20
4.411735
 30
0.0
 10
2.243913
 20
4.443878
 30
0.0
 10
2.211769
 20
4.491552
 30
0.0
 10
2.199979
 20
4.549931
 30
0.0
 10
2.211769
 20
4.608310
 30
0.0
 10
2.243913
 20
4.655983
 30
0.0
 10
2.291587
 20
4.688126
 30
0.0
 10
2.349966
 20
4.699916
 30
0.0
 10
2.349966
 20
4.699916
 30
0.0
  0
LWPOLYLINE
  5
10a
100
AcDbEntity
  8
Layer_1
 62
7
100
AcDbPolyline
 90
18
 70
0
 10
5.649982
 20
4.699916
 30
0.0
 10
5.708360
 20
4.688125
 30
0.0
 10
5.756032
 20
4.655982
 30
0.0
 10
5.788176
 20
4.608309
 30
0.0
 10
5.799966
 20
4.549931
 30
0.0
 10
5.788176
 20
4.491552
 30
0.0
 10
5.756032
 20
4.443879
 30
0.0
 10
5.708360
 20
4.411736
 30
0.0
 10
5.649982
 20
4.399945
 30
0.0
 10
5.591603
 20
4.411735
 30
0.0
 10
5.543929
 20
4.443878
 30
0.0
 10
5.511785
 20
4.491552
 30
0.0
 10
5.499995
 20
4.549931
 30
0.0
 10
5.511785
 20
4.608310
 30
0.0
 10
5.543929
 20
4.655983
 30
0.0
 10
5.591603
 20
4.688126
 30
0.0
 10
5.649982
 20
4.699916
 30
0.0
 10
5.649982
 20
4.699916
 30
0.0
  0
LWPOLYLINE
  5
10b
100
AcDbEntity
  8
Layer_1
 62
7
100
AcDbPolyline
 90
40
 70
0
 10
6.113388
 20
4.099808
 30
0.0
 10
6.317338
 20
3.860470
 30
0.0
 10
6.314911
 20
3.810034
 30
0.0
 10
6.285532
 20
3.588997
 30
0.0
 10
6.286576
 20
3.596383
 30
0.0
 10
6.280217
 20
3.472037
 30
0.0
 10
6.296982
 20
3.351556
 30
0.0
 10
6.334898
 20
3.237455
 30
0.0
 10
6.391992
 20
3.132252
 30
0.0
 10
6.466291
 20
3.038463
 30
0.0
 10
6.555823
 20
2.958606
 30
0.0
 10
6.658615
 20
2.895198
 30
0.0
 10
6.772693
 20
2.850754
 30
0.0
 10
6.666739
 20
2.622644
 30
0.0
 10
6.542426
 20
2.405832
 30
0.0
 10
6.400982
 20
2.200958
 30
0.0
 10
6.243636
 20
2.008663
 30
0.0
 10
6.201514
 20
2.087809
 30
0.0
 10
6.149318
 20
2.160312
 30
0.0
 10
6.088052
 20
2.225156
 30
0.0
 10
6.018719
 20
2.281324
 30
0.0
 10
5.942323
 20
2.327802
 30
0.0
 10
5.859868
 20
2.363571
 30
0.0
 10
5.772356
 20
2.387617
 30
0.0
 10
5.680792
 20
2.398923
 30
0.0
 10
5.085755
 20
3.203918
 30
0.0
 10
5.194334
 20
3.376864
 30
0.0
 10
5.276253
 20
3.565602
 30
0.0
 10
5.328751
 20
3.767457
 30
0.0
 10
5.343106
 20
3.872467
 30
0.0
 10
5.349071
 20
3.979753
 30
0.0
 10
5.419195
 20
3.946593
 30
0.0
 10
5.492985
 20
3.921497
 30
0.0
 10
5.570072
 20
3.905603
 30
0.0
 10
5.650089
 20
3.900048
 30
0.0
 10
5.781611
 20
3.914082
 30
0.0
 10
5.904581
 20
3.954105
 30
0.0
 10
6.016129
 20
4.017040
 30
0.0
 10
6.113385
 20
4.099808
 30
0.0
 10
6.113388
 20
4.099808
 30
0.0
  0
LWPOLYLINE
  5
10c
100
AcDbEntity
  8
Layer_1
 62
7
100
AcDbPolyline
 90
44
 70
0
 10
2.651150
 20
3.979698
 30
0.0
 10
2.657113
 20
3.872440
 30
0.0
 10
2.671457
 20
3.767456
 30
0.0
 10
2.723915
 20
3.565645
 30
0.0
 10
2.805778
 20
3.376944
 30
0.0
 10
2.914300
 20
3.204028
 30
0.0
 10
2.319209
 20
2.398868
 30
0.0
 10
2.227684
 20
2.387534
 30
0.0
 10
2.140214
 20
2.363474
 30
0.0
 10
2.057800
 20
2.327702
 30
0.0
 10
1.981444
 20
2.281233
 30
0.0
 10
1.912148
 20
2.225081
 30
0.0
 10
1.850914
 20
2.160259
 30
0.0
 10
1.798743
 20
2.087781
 30
0.0
 10
1.756639
 20
2.008663
 30
0.0
 10
1.566811
 20
2.245379
 30
0.0
 10
1.401305
 20
2.500751
 30
0.0
 10
1.261978
 20
2.773297
 30
0.0
 10
1.150688
 20
3.061539
 30
0.0
 10
1.210545
 20
3.001802
 30
0.0
 10
1.277000
 20
2.949748
 30
0.0
 10
1.349174
 20
2.906061
 30
0.0
 10
1.426185
 20
2.871420
 30
0.0
 10
1.507155
 20
2.846510
 30
0.0
 10
1.591203
 20
2.832010
 30
0.0
 10
1.677449
 20
2.828605
 30
0.0
 10
1.765015
 20
2.836974
 30
0.0
 10
1.893884
 20
2.872016
 30
0.0
 10
2.010576
 20
2.930786
 30
0.0
 10
2.112734
 20
3.010060
 30
0.0
 10
2.198006
 20
3.106614
 30
0.0
 10
2.264035
 20
3.217222
 30
0.0
 10
2.308467
 20
3.338659
 30
0.0
 10
2.328947
 20
3.467701
 30
0.0
 10
2.323121
 20
3.601124
 30
0.0
 10
2.321794
 20
3.609667
 30
0.0
 10
2.286680
 20
3.823208
 30
0.0
 10
2.281775
 20
3.907158
 30
0.0
 10
2.350180
 20
3.900048
 30
0.0
 10
2.430178
 20
3.905597
 30
0.0
 10
2.507252
 20
3.921477
 30
0.0
 10
2.581030
 20
3.946555
 30
0.0
 10
2.651145
 20
3.979698
 30
0.0
 10
2.651150
 20
3.979698
 30
0.0
  0
LWPOLYLINE
  5
10d
100
AcDbEntity
  8
Layer_1
 62
7
100
AcDbPolyline
 90
36
 70
0
 10
3.556189
 20
2.726510
 30
0.0
 10
3.662508
 20
2.693751
 30
0.0
 10
3.772201
 20
2.669782
 30
0.0
 10
3.884875
 20
2.655063
 30
0.0
 10
4.000139
 20
2.650057
 30
0.0
 10
4.115341
 20
2.655065
 30
0.0
 10
4.227960
 20
2.669775
 30
0.0
 10
4.337601
 20
2.693726
 30
0.0
 10
4.443868
 20
2.726455
 30
0.0
 10
5.028319
 20
1.935737
 30
0.0
 10
5.007400
 20
1.844795
 30
0.0
 10
5.000154
 20
1.749977
 30
0.0
 10
5.016449
 20
1.609418
 30
0.0
 10
5.062647
 20
1.479215
 30
0.0
 10
5.134718
 20
1.362657
 30
0.0
 10
5.228632
 20
1.263034
 30
0.0
 10
4.940244
 20
1.151237
 30
0.0
 10
4.638358
 20
1.068733
 30
0.0
 10
4.482826
 20
1.039134
 30
0.0
 10
4.324486
 20
1.017660
 30
0.0
 10
4.163527
 20
1.004580
 30
0.0
 10
4.000139
 20
1.000159
 30
0.0
 10
3.836750
 20
1.004579
 30
0.0
 10
3.675792
 20
1.017659
 30
0.0
 10
3.517452
 20
1.039132
 30
0.0
 10
3.361920
 20
1.068731
 30
0.0
 10
3.060034
 20
1.151237
 30
0.0
 10
2.771645
 20
1.263034
 30
0.0
 10
2.865559
 20
1.362657
 30
0.0
 10
2.937631
 20
1.479215
 30
0.0
 10
2.983829
 20
1.609418
 30
0.0
 10
3.000124
 20
1.749977
 30
0.0
 10
2.992864
 20
1.844911
 30
0.0
 10
2.971902
 20
1.935957
 30
0.0
 10
3.556189
 20
2.726510
 30
0.0
 10
3.556189
 20
2.726510
 30
0.0
  0
LWPOLYLINE
  5
10e
100
AcDbEntity
  8
Layer_1
 62
7
100
AcDbPolyline
 90
18
 70
0
 10
2.349966
 20
1.899963
 30
0.0
 10
2.407374
 20
1.888537
 30
0.0
 10
2.456038
 20
1.856010
 30
0.0
 10
2.488548
 20
1.807334
 30
0.0
 10
2.499953
 20
1.749922
 30
0.0
 10
2.488162
 20
1.691543
 30
0.0
 10
2.456018
 20
1.643870
 30
0.0
 10
2.408345
 20
1.611727
 30
0.0
 10
2.349966
 20
1.599937
 30
0.0
 10
2.291587
 20
1.611727
 30
0.0
 10
2.243913
 20
1.643870
 30
0.0
 10
2.211769
 20
1.691543
 30
0.0
 10
2.199979
 20
1.749922
 30
0.0
 10
2.211384
 20
1.807334
 30
0.0
 10
2.243894
 20
1.856010
 30
0.0
 10
2.292558
 20
1.888537
 30
0.0
 10
2.349966
 20
1.899963
 30
0.0
 10
2.349966
 20
1.899963
 30
0.0
  0
LWPOLYLINE
  5
10f
100
AcDbEntity
  8
Layer_1
 62
7
100
AcDbPolyline
 90
18
 70
0
 10
5.649982
 20
1.899963
 30
0.0
 10
5.707389
 20
1.888536
 30
0.0
 10
5.756052
 20
1.856009
 30
0.0
 10
5.788561
 20
1.807334
 30
0.0
 10
5.799966
 20
1.749922
 30
0.0
 10
5.788176
 20
1.691544
 30
0.0
 10
5.756032
 20
1.643871
 30
0.0
 10
5.708360
 20
1.611728
 30
0.0
 10
5.649982
 20
1.599937
 30
0.0
 10
5.591603
 20
1.611727
 30
0.0
 10
5.543929
 20
1.643870
 30
0.0
 10
5.511785
 20
1.691543
 30
0.0
 10
5.499995
 20
1.749922
 30
0.0
 10
5.511400
 20
1.807334
 30
0.0
 10
5.543910
 20
1.856010
 30
0.0
 10
5.592574
 20
1.888537
 30
0.0
 10
5.649982
 20
1.899963
 30
0.0
 10
5.649982
 20
1.899963
 30
0.0
  0
ENDSEC
  0
SECTION
  2
OBJECTS
  0
DICTIONARY
  5
C
330
0
100
AcDbDictionary
  3
ACAD_GROUP
350
D
  3
ACAD_MLINESTYLE
350
17
  0
DICTIONARY
  5
D
330
C
100
AcDbDictionary
  0
DICTIONARY
  5
1A
330
C
100
AcDbDictionary
  0
DICTIONARY
  5
17
330
C
100
AcDbDictionary
  3
STANDARD
350
18
  0
DICTIONARY
  5
19
330
C
100
AcDbDictionary
  0
ENDSEC
  0
EOF
