  0
SECTION
  2
HEADER
  9
$ACADVER
  1
AC1014
  9
$HANDSEED
  5
FFFF
  9
$MEASUREMENT
 70
     1
  0
ENDSEC
  0
SECTION
  2
TABLES
  0
TABLE
  2
VPORT
  5
8
330
0
100
AcDbSymbolTable
 70
     4
  0
VPORT
  5
2E
330
8
100
AcDbSymbolTableRecord
100
AcDbViewportTableRecord
  2
*ACTIVE
 70
     0
 10
0.0
 20
0.0
 11
1.0
 21
1.0
 12
210.0
 22
148.5
 13
0.0
 23
0.0
 14
10.0
 24
10.0
 15
10.0
 25
10.0
 16
0.0
 26
0.0
 36
1.0
 17
0.0
 27
0.0
 37
0.0
 40
341.0
 41
1.24
 42
50.0
 43
0.0
 44
0.0
 50
0.0
 51
0.0
 71
     0
 72
   100
 73
     1
 74
     3
 75
     0
 76
     0
 77
     0
 78
     0
  0
ENDTAB
  0
TABLE
  2
LTYPE
  5
5
330
0
100
AcDbSymbolTable
 70
     1
  0
LTYPE
  5
14
330
5
100
AcDbSymbolTableRecord
100
AcDbLinetypeTableRecord
  2
BYBLOCK
 70
     0
  3

 72
    65
 73
     0
 40
0.0
  0
LTYPE
  5
15
330
5
100
AcDbSymbolTableRecord
100
AcDbLinetypeTableRecord
  2
BYLAYER
 70
     0
  3

 72
    65
 73
     0
 40
0.0
  0
LTYPE
  5
16
330
5
100
AcDbSymbolTableRecord
100
AcDbLinetypeTableRecord
  2
CONTINUOUS
 70
     0
  3
Solid line
 72
    65
 73
     0
 40
0.0
  0
ENDTAB
  0
TABLE
  2
LAYER
  5
2
100
AcDbSymbolTable
 70
2
  0
LAYER
  5
50
100
AcDbSymbolTableRecord
100
AcDbLayerTableRecord
  2
0
 70
0
  6
CONTINUOUS
  0
LAYER
  5
51
100
AcDbSymbolTableRecord
100
AcDbLayerTableRecord
  2
Layer_1
 70
0
  6
CONTINUOUS
  0
ENDTAB
  0
TABLE
  2
STYLE
  5
3
330
0
100
AcDbSymbolTable
 70
     1
  0
STYLE
  5
11
330
3
100
AcDbSymbolTableRecord
100
AcDbTextStyleTableRecord
  2
STANDARD
 70
     0
 40
0.0
 41
1.0
 50
0.0
 71
     0
 42
2.5
  3
txt
  4

  0
ENDTAB
  0
TABLE
  2
VIEW
  5
6
330
0
100
AcDbSymbolTable
 70
     0
  0
ENDTAB
  0
TABLE
  2
UCS
  5
7
330
0
100
AcDbSymbolTable
 70
     0
  0
ENDTAB
  0
TABLE
  2
APPID
  5
9
330
0
100
AcDbSymbolTable
 70
     2
  0
APPID
  5
12
330
9
100
AcDbSymbolTableRecord
100
AcDbRegAppTableRecord
  2
ACAD
 70
     0
  0
ENDTAB
  0
TABLE
  2
DIMSTYLE
  5
A
330
0
100
AcDbSymbolTable
 70
     1
  0
DIMSTYLE
105
27
330
A
100
AcDbSymbolTableRecord
100
AcDbDimStyleTableRecord
  2
ISO-25
 70
     0
  3

  4

  5

  6

  7

 40
1.0
 41
2.5
 42
0.625
 43
3.75
 44
1.25
 45
0.0
 46
0.0
 47
0.0
 48
0.0
140
2.5
141
2.5
142
0.0
143
0.03937007874016
144
1.0
145
0.0
146
1.0
147
0.625
 71
     0
 72
     0
 73
     0
 74
     0
 75
     0
 76
     0
 77
     1
 78
     8
170
     0
171
     3
172
     1
173
     0
174
     0
175
     0
176
     0
177
     0
178
     0
270
     2
271
     2
272
     2
273
     2
274
     3
340
11
275
     0
280
     0
281
     0
282
     0
283
     0
284
     8
285
     0
286
     0
287
     3
288
     0
  0
ENDTAB
  0
TABLE
  2
BLOCK_RECORD
  5
1
330
0
100
AcDbSymbolTable
 70
     1
  0
BLOCK_RECORD
  5
1F
330
1
100
AcDbSymbolTableRecord
100
AcDbBlockTableRecord
  2
*MODEL_SPACE
  0
BLOCK_RECORD
  5
1B
330
1
100
AcDbSymbolTableRecord
100
AcDbBlockTableRecord
  2
*PAPER_SPACE
  0
ENDTAB
  0
ENDSEC
  0
SECTION
  2
BLOCKS
  0
BLOCK
  5
20
330
1F
100
AcDbEntity
  8
0
100
AcDbBlockBegin
  2
*MODEL_SPACE
 70
     0
 10
0.0
 20
0.0
 30
0.0
  3
*MODEL_SPACE
  1

  0
ENDBLK
  5
21
330
1F
100
AcDbEntity
  8
0
100
AcDbBlockEnd
  0
BLOCK
  5
1C
330
1B
100
AcDbEntity
 67
     1
  8
0
100
AcDbBlockBegin
  2
*PAPER_SPACE
  1

  0
ENDBLK
  5
1D
330
1B
100
AcDbEntity
 67
     1
  8
0
100
AcDbBlockEnd
  0
ENDSEC
  0
SECTION
  2
ENTITIES
  0
LWPOLYLINE
  5
100
100
AcDbEntity
  8
Layer_1
 62
7
100
AcDbPolyline
 90
7
 70
1
 10
7.971672
 20
0.799979
 30
0.0
 10
7.971672
 20
0.028333
 30
0.0
 10
6.999987
 20
0.028333
 30
0.0
 10
6.999987
 20
0.000000
 30
0.0
 10
8.000004
 20
0.000000
 30
0.0
 10
8.000004
 20
0.799979
 30
0.0
 10
7.971672
 20
0.799979
 30
0.0
  0
LWPOLYLINE
  5
101
100
AcDbEntity
  8
Layer_1
 62
7
100
AcDbPolyline
 90
7
 70
1
 10
0.000000
 20
0.799979
 30
0.0
 10
0.000000
 20
0.000000
 30
0.0
 10
1.000015
 20
0.000000
 30
0.0
 10
1.000015
 20
0.028332
 30
0.0
 10
0.028335
 20
0.028332
 30
0.0
 10
0.028335
 20
0.799979
 30
0.0
 10
0.000000
 20
0.799979
 30
0.0
  0
LWPOLYLINE
  5
102
100
AcDbEntity
  8
Layer_1
 62
7
100
AcDbPolyline
 90
7
 70
1
 10
0.000000
 20
8.000003
 30
0.0
 10
0.000000
 20
6.999991
 30
0.0
 10
0.028335
 20
6.999991
 30
0.0
 10
0.028335
 20
7.971617
 30
0.0
 10
1.000015
 20
7.971617
 30
0.0
 10
1.000015
 20
8.000003
 30
0.0
 10
0.000000
 20
8.000003
 30
0.0
  0
LWPOLYLINE
  5
103
100
AcDbEntity
  8
Layer_1
 62
7
100
AcDbPolyline
 90
8
 70
1
 10
6.999987
 20
8.000003
 30
0.0
 10
6.999987
 20
7.971615
 30
0.0
 10
7.971672
 20
7.971615
 30
0.0
 10
7.971672
 20
6.999988
 30
0.0
 10
8.000004
 20
6.999988
 30
0.0
 10
8.000004
 20
7.985782
 30
0.0
 10
8.000004
 20
8.000003
 30
0.0
 10
6.999987
 20
8.000003
 30
0.0
  0
LWPOLYLINE
  5
104
100
AcDbEntity
  8
Layer_1
 62
7
100
AcDbPolyline
 90
87
 70
0
 10
2.699995
 20
5.500003
 30
0.0
 10
2.699995
 20
5.169990
 30
0.0
 10
2.350031
 20
5.169990
 30
0.0
 10
2.252028
 20
5.160295
 30
0.0
 10
2.158685
 20
5.131931
 30
0.0
 10
2.072624
 20
5.085985
 30
0.0
 10
1.996470
 20
5.023544
 30
0.0
 10
1.934028
 20
4.947389
 30
0.0
 10
1.888082
 20
4.861328
 30
0.0
 10
1.859718
 20
4.767985
 30
0.0
 10
1.850023
 20
4.669983
 30
0.0
 10
1.859718
 20
4.571980
 30
0.0
 10
1.888082
 20
4.478637
 30
0.0
 10
1.934028
 20
4.392577
 30
0.0
 10
1.996470
 20
4.316422
 30
0.0
 10
2.072624
 20
4.253980
 30
0.0
 10
2.158685
 20
4.208034
 30
0.0
 10
2.252028
 20
4.179670
 30
0.0
 10
2.350031
 20
4.169975
 30
0.0
 10
2.699995
 20
4.169975
 30
0.0
 10
2.699995
 20
4.049976
 30
0.0
 10
2.699995
 20
2.370037
 30
0.0
 10
2.350031
 20
2.370037
 30
0.0
 10
2.252028
 20
2.360342
 30
0.0
 10
2.158685
 20
2.331978
 30
0.0
 10
2.072624
 20
2.286032
 30
0.0
 10
1.996470
 20
2.223590
 30
0.0
 10
1.934028
 20
2.147436
 30
0.0
 10
1.888082
 20
2.061375
 30
0.0
 10
1.859718
 20
1.968032
 30
0.0
 10
1.850023
 20
1.870029
 30
0.0
 10
1.859718
 20
1.772027
 30
0.0
 10
1.888082
 20
1.678684
 30
0.0
 10
1.934028
 20
1.592623
 30
0.0
 10
1.996470
 20
1.516469
 30
0.0
 10
2.072624
 20
1.454027
 30
0.0
 10
2.158685
 20
1.408081
 30
0.0
 10
2.252028
 20
1.379717
 30
0.0
 10
2.350031
 20
1.370022
 30
0.0
 10
2.699995
 20
1.370022
 30
0.0
 10
2.699995
 20
1.250024
 30
0.0
 10
2.699995
 20
0.800009
 30
0.0
 10
5.299967
 20
0.800009
 30
0.0
 10
5.299967
 20
1.250024
 30
0.0
 10
5.299967
 20
1.370022
 30
0.0
 10
5.649990
 20
1.370022
 30
0.0
 10
5.747993
 20
1.379717
 30
0.0
 10
5.841336
 20
1.408081
 30
0.0
 10
5.927397
 20
1.454027
 30
0.0
 10
6.003552
 20
1.516468
 30
0.0
 10
6.065993
 20
1.592623
 30
0.0
 10
6.111940
 20
1.678684
 30
0.0
 10
6.140303
 20
1.772027
 30
0.0
 10
6.149998
 20
1.870029
 30
0.0
 10
6.140303
 20
1.968032
 30
0.0
 10
6.111940
 20
2.061375
 30
0.0
 10
6.065993
 20
2.147436
 30
0.0
 10
6.003552
 20
2.223591
 30
0.0
 10
5.927397
 20
2.286032
 30
0.0
 10
5.841336
 20
2.331978
 30
0.0
 10
5.747993
 20
2.360342
 30
0.0
 10
5.649990
 20
2.370037
 30
0.0
 10
5.299967
 20
2.370037
 30
0.0
 10
5.299967
 20
4.049976
 30
0.0
 10
5.299967
 20
4.169975
 30
0.0
 10
5.649990
 20
4.169975
 30
0.0
 10
5.747993
 20
4.179670
 30
0.0
 10
5.841336
 20
4.208034
 30
0.0
 10
5.927397
 20
4.253980
 30
0.0
 10
6.003552
 20
4.316422
 30
0.0
 10
6.065993
 20
4.392576
 30
0.0
 10
6.111940
 20
4.478637
 30
0.0
 10
6.140303
 20
4.571980
 30
0.0
 10
6.149998
 20
4.669983
 30
0.0
 10
6.140303
 20
4.767985
 30
0.0
 10
6.111940
 20
4.861329
 30
0.0
 10
6.065993
 20
4.947389
 30
0.0
 10
6.003552
 20
5.023544
 30
0.0
 10
5.927397
 20
5.085986
 30
0.0
 10
5.841336
 20
5.131932
 30
0.0
 10
5.747993
 20
5.160295
 30
0.0
 10
5.649990
 20
5.169990
 30
0.0
 10
5.299967
 20
5.169990
 30
0.0
 10
5.299967
 20
5.400012
 30
0.0
 10
5.299967
 20
5.500003
 30
0.0
 10
2.699995
 20
5.500003
 30
0.0
 10
2.699995
 20
5.500003
 30
0.0
  0
LWPOLYLINE
  5
105
100
AcDbEntity
  8
Layer_1
 62
7
100
AcDbPolyline
 90
14
 70
0
 10
2.999966
 20
5.199976
 30
0.0
 10
4.999996
 20
5.199976
 30
0.0
 10
4.999996
 20
5.049990
 30
0.0
 10
4.999996
 20
4.049976
 30
0.0
 10
4.999996
 20
2.250037
 30
0.0
 10
4.999996
 20
1.250024
 30
0.0
 10
4.999996
 20
1.099980
 30
0.0
 10
2.999966
 20
1.099980
 30
0.0
 10
2.999966
 20
1.250024
 30
0.0
 10
2.999966
 20
2.250037
 30
0.0
 10
2.999966
 20
4.049976
 30
0.0
 10
2.999966
 20
5.049990
 30
0.0
 10
2.999966
 20
5.199976
 30
0.0
 10
2.999966
 20
5.199976
 30
0.0
  0
LWPOLYLINE
  5
106
100
AcDbEntity
  8
Layer_1
 62
7
100
AcDbPolyline
 90
18
 70
0
 10
2.349974
 20
4.819968
 30
0.0
 10
2.408353
 20
4.808178
 30
0.0
 10
2.456027
 20
4.776035
 30
0.0
 10
2.488171
 20
4.728362
 30
0.0
 10
2.499961
 20
4.669983
 30
0.0
 10
2.488171
 20
4.611604
 30
0.0
 10
2.456027
 20
4.563931
 30
0.0
 10
2.408353
 20
4.531787
 30
0.0
 10
2.349974
 20
4.519997
 30
0.0
 10
2.291595
 20
4.531787
 30
0.0
 10
2.243922
 20
4.563931
 30
0.0
 10
2.211778
 20
4.611604
 30
0.0
 10
2.199987
 20
4.669983
 30
0.0
 10
2.211778
 20
4.728362
 30
0.0
 10
2.243922
 20
4.776035
 30
0.0
 10
2.291595
 20
4.808178
 30
0.0
 10
2.349974
 20
4.819968
 30
0.0
 10
2.349974
 20
4.819968
 30
0.0
  0
LWPOLYLINE
  5
107
100
AcDbEntity
  8
Layer_1
 62
7
100
AcDbPolyline
 90
18
 70
0
 10
5.649990
 20
4.819968
 30
0.0
 10
5.708369
 20
4.808178
 30
0.0
 10
5.756041
 20
4.776034
 30
0.0
 10
5.788185
 20
4.728361
 30
0.0
 10
5.799975
 20
4.669983
 30
0.0
 10
5.788185
 20
4.611604
 30
0.0
 10
5.756041
 20
4.563931
 30
0.0
 10
5.708369
 20
4.531788
 30
0.0
 10
5.649990
 20
4.519997
 30
0.0
 10
5.591611
 20
4.531787
 30
0.0
 10
5.543938
 20
4.563931
 30
0.0
 10
5.511794
 20
4.611604
 30
0.0
 10
5.500003
 20
4.669983
 30
0.0
 10
5.511794
 20
4.728362
 30
0.0
 10
5.543938
 20
4.776035
 30
0.0
 10
5.591611
 20
4.808178
 30
0.0
 10
5.649990
 20
4.819968
 30
0.0
 10
5.649990
 20
4.819968
 30
0.0
  0
LWPOLYLINE
  5
108
100
AcDbEntity
  8
Layer_1
 62
7
100
AcDbPolyline
 90
18
 70
0
 10
2.349974
 20
2.020016
 30
0.0
 10
2.407382
 20
2.008591
 30
0.0
 10
2.456046
 20
1.976064
 30
0.0
 10
2.488556
 20
1.927388
 30
0.0
 10
2.499961
 20
1.869976
 30
0.0
 10
2.488171
 20
1.811596
 30
0.0
 10
2.456027
 20
1.763923
 30
0.0
 10
2.408354
 20
1.731779
 30
0.0
 10
2.349974
 20
1.719989
 30
0.0
 10
2.291595
 20
1.731779
 30
0.0
 10
2.243921
 20
1.763923
 30
0.0
 10
2.211777
 20
1.811596
 30
0.0
 10
2.199987
 20
1.869976
 30
0.0
 10
2.211392
 20
1.927388
 30
0.0
 10
2.243902
 20
1.976064
 30
0.0
 10
2.292566
 20
2.008591
 30
0.0
 10
2.349974
 20
2.020016
 30
0.0
 10
2.349974
 20
2.020016
 30
0.0
  0
LWPOLYLINE
  5
109
100
AcDbEntity
  8
Layer_1
 62
7
100
AcDbPolyline
 90
18
 70
0
 10
5.649990
 20
2.020016
 30
0.0
 10
5.707397
 20
2.008590
 30
0.0
 10
5.756061
 20
1.976063
 30
0.0
 10
5.788570
 20
1.927387
 30
0.0
 10
5.799975
 20
1.869976
 30
0.0
 10
5.788185
 20
1.811597
 30
0.0
 10
5.756042
 20
1.763924
 30
0.0
 10
5.708369
 20
1.731780
 30
0.0
 10
5.649990
 20
1.719989
 30
0.0
 10
5.591611
 20
1.731779
 30
0.0
 10
5.543937
 20
1.763923
 30
0.0
 10
5.511793
 20
1.811596
 30
0.0
 10
5.500003
 20
1.869976
 30
0.0
 10
5.511408
 20
1.927388
 30
0.0
 10
5.543918
 20
1.976064
 30
0.0
 10
5.592582
 20
2.008591
 30
0.0
 10
5.649990
 20
2.020016
 30
0.0
 10
5.649990
 20
2.020016
 30
0.0
  0
ENDSEC
  0
SECTION
  2
OBJECTS
  0
DICTIONARY
  5
C
330
0
100
AcDbDictionary
  3
ACAD_GROUP
350
D
  3
ACAD_MLINESTYLE
350
17
  0
DICTIONARY
  5
D
330
C
100
AcDbDictionary
  0
DICTIONARY
  5
1A
330
C
100
AcDbDictionary
  0
DICTIONARY
  5
17
330
C
100
AcDbDictionary
  3
STANDARD
350
18
  0
DICTIONARY
  5
19
330
C
100
AcDbDictionary
  0
ENDSEC
  0
EOF
