  0
SECTION
  2
HEADER
  9
$ACADVER
  1
AC1014
  9
$HANDSEED
  5
FFFF
  9
$MEASUREMENT
 70
     1
  0
ENDSEC
  0
SECTION
  2
TABLES
  0
TABLE
  2
VPORT
  5
8
330
0
100
AcDbSymbolTable
 70
     4
  0
VPORT
  5
2E
330
8
100
AcDbSymbolTableRecord
100
AcDbViewportTableRecord
  2
*ACTIVE
 70
     0
 10
0.0
 20
0.0
 11
1.0
 21
1.0
 12
210.0
 22
148.5
 13
0.0
 23
0.0
 14
10.0
 24
10.0
 15
10.0
 25
10.0
 16
0.0
 26
0.0
 36
1.0
 17
0.0
 27
0.0
 37
0.0
 40
341.0
 41
1.24
 42
50.0
 43
0.0
 44
0.0
 50
0.0
 51
0.0
 71
     0
 72
   100
 73
     1
 74
     3
 75
     0
 76
     0
 77
     0
 78
     0
  0
ENDTAB
  0
TABLE
  2
LTYPE
  5
5
330
0
100
AcDbSymbolTable
 70
     1
  0
LTYPE
  5
14
330
5
100
AcDbSymbolTableRecord
100
AcDbLinetypeTableRecord
  2
BYBLOCK
 70
     0
  3

 72
    65
 73
     0
 40
0.0
  0
LTYPE
  5
15
330
5
100
AcDbSymbolTableRecord
100
AcDbLinetypeTableRecord
  2
BYLAYER
 70
     0
  3

 72
    65
 73
     0
 40
0.0
  0
LTYPE
  5
16
330
5
100
AcDbSymbolTableRecord
100
AcDbLinetypeTableRecord
  2
CONTINUOUS
 70
     0
  3
Solid line
 72
    65
 73
     0
 40
0.0
  0
ENDTAB
  0
TABLE
  2
LAYER
  5
2
100
AcDbSymbolTable
 70
2
  0
LAYER
  5
50
100
AcDbSymbolTableRecord
100
AcDbLayerTableRecord
  2
0
 70
0
  6
CONTINUOUS
  0
LAYER
  5
51
100
AcDbSymbolTableRecord
100
AcDbLayerTableRecord
  2
Layer_1
 70
0
  6
CONTINUOUS
  0
ENDTAB
  0
TABLE
  2
STYLE
  5
3
330
0
100
AcDbSymbolTable
 70
     1
  0
STYLE
  5
11
330
3
100
AcDbSymbolTableRecord
100
AcDbTextStyleTableRecord
  2
STANDARD
 70
     0
 40
0.0
 41
1.0
 50
0.0
 71
     0
 42
2.5
  3
txt
  4

  0
ENDTAB
  0
TABLE
  2
VIEW
  5
6
330
0
100
AcDbSymbolTable
 70
     0
  0
ENDTAB
  0
TABLE
  2
UCS
  5
7
330
0
100
AcDbSymbolTable
 70
     0
  0
ENDTAB
  0
TABLE
  2
APPID
  5
9
330
0
100
AcDbSymbolTable
 70
     2
  0
APPID
  5
12
330
9
100
AcDbSymbolTableRecord
100
AcDbRegAppTableRecord
  2
ACAD
 70
     0
  0
ENDTAB
  0
TABLE
  2
DIMSTYLE
  5
A
330
0
100
AcDbSymbolTable
 70
     1
  0
DIMSTYLE
105
27
330
A
100
AcDbSymbolTableRecord
100
AcDbDimStyleTableRecord
  2
ISO-25
 70
     0
  3

  4

  5

  6

  7

 40
1.0
 41
2.5
 42
0.625
 43
3.75
 44
1.25
 45
0.0
 46
0.0
 47
0.0
 48
0.0
140
2.5
141
2.5
142
0.0
143
0.03937007874016
144
1.0
145
0.0
146
1.0
147
0.625
 71
     0
 72
     0
 73
     0
 74
     0
 75
     0
 76
     0
 77
     1
 78
     8
170
     0
171
     3
172
     1
173
     0
174
     0
175
     0
176
     0
177
     0
178
     0
270
     2
271
     2
272
     2
273
     2
274
     3
340
11
275
     0
280
     0
281
     0
282
     0
283
     0
284
     8
285
     0
286
     0
287
     3
288
     0
  0
ENDTAB
  0
TABLE
  2
BLOCK_RECORD
  5
1
330
0
100
AcDbSymbolTable
 70
     1
  0
BLOCK_RECORD
  5
1F
330
1
100
AcDbSymbolTableRecord
100
AcDbBlockTableRecord
  2
*MODEL_SPACE
  0
BLOCK_RECORD
  5
1B
330
1
100
AcDbSymbolTableRecord
100
AcDbBlockTableRecord
  2
*PAPER_SPACE
  0
ENDTAB
  0
ENDSEC
  0
SECTION
  2
BLOCKS
  0
BLOCK
  5
20
330
1F
100
AcDbEntity
  8
0
100
AcDbBlockBegin
  2
*MODEL_SPACE
 70
     0
 10
0.0
 20
0.0
 30
0.0
  3
*MODEL_SPACE
  1

  0
ENDBLK
  5
21
330
1F
100
AcDbEntity
  8
0
100
AcDbBlockEnd
  0
BLOCK
  5
1C
330
1B
100
AcDbEntity
 67
     1
  8
0
100
AcDbBlockBegin
  2
*PAPER_SPACE
  1

  0
ENDBLK
  5
1D
330
1B
100
AcDbEntity
 67
     1
  8
0
100
AcDbBlockEnd
  0
ENDSEC
  0
SECTION
  2
ENTITIES
  0
LWPOLYLINE
  5
100
100
AcDbEntity
  8
Layer_1
 62
7
100
AcDbPolyline
 90
7
 70
1
 10
7.971671
 20
0.799978
 30
0.0
 10
7.971671
 20
0.028332
 30
0.0
 10
6.999986
 20
0.028332
 30
0.0
 10
6.999986
 20
-0.000000
 30
0.0
 10
8.000004
 20
-0.000000
 30
0.0
 10
8.000004
 20
0.799978
 30
0.0
 10
7.971671
 20
0.799978
 30
0.0
  0
LWPOLYLINE
  5
101
100
AcDbEntity
  8
Layer_1
 62
7
100
AcDbPolyline
 90
7
 70
1
 10
0.000000
 20
0.799975
 30
0.0
 10
0.000000
 20
-0.000000
 30
0.0
 10
1.000015
 20
-0.000000
 30
0.0
 10
1.000015
 20
0.028332
 30
0.0
 10
0.028335
 20
0.028332
 30
0.0
 10
0.028335
 20
0.799975
 30
0.0
 10
0.000000
 20
0.799975
 30
0.0
  0
LWPOLYLINE
  5
102
100
AcDbEntity
  8
Layer_1
 62
7
100
AcDbPolyline
 90
7
 70
1
 10
0.000000
 20
8.000002
 30
0.0
 10
0.000000
 20
6.999990
 30
0.0
 10
0.028335
 20
6.999990
 30
0.0
 10
0.028335
 20
7.971616
 30
0.0
 10
1.000015
 20
7.971616
 30
0.0
 10
1.000015
 20
8.000002
 30
0.0
 10
0.000000
 20
8.000002
 30
0.0
  0
LWPOLYLINE
  5
103
100
AcDbEntity
  8
Layer_1
 62
7
100
AcDbPolyline
 90
8
 70
1
 10
6.999986
 20
8.000002
 30
0.0
 10
6.999986
 20
7.971615
 30
0.0
 10
7.971671
 20
7.971615
 30
0.0
 10
7.971671
 20
6.999987
 30
0.0
 10
8.000004
 20
6.999987
 30
0.0
 10
8.000004
 20
7.985781
 30
0.0
 10
8.000004
 20
8.000002
 30
0.0
 10
6.999986
 20
8.000002
 30
0.0
  0
LWPOLYLINE
  5
104
100
AcDbEntity
  8
Layer_1
 62
7
100
AcDbPolyline
 90
40
 70
0
 10
3.549984
 20
5.975019
 30
0.0
 10
3.474579
 20
5.967375
 30
0.0
 10
3.404268
 20
5.945466
 30
0.0
 10
3.340581
 20
5.910819
 30
0.0
 10
3.285045
 20
5.864963
 30
0.0
 10
3.239190
 20
5.809427
 30
0.0
 10
3.204544
 20
5.745740
 30
0.0
 10
3.182635
 20
5.675429
 30
0.0
 10
3.174992
 20
5.600024
 30
0.0
 10
3.182636
 20
5.524620
 30
0.0
 10
3.204545
 20
5.454311
 30
0.0
 10
3.239192
 20
5.390624
 30
0.0
 10
3.285047
 20
5.335088
 30
0.0
 10
3.340583
 20
5.289233
 30
0.0
 10
3.404270
 20
5.254586
 30
0.0
 10
3.474580
 20
5.232676
 30
0.0
 10
3.549984
 20
5.225033
 30
0.0
 10
3.924975
 20
5.225033
 30
0.0
 10
3.924975
 20
5.550031
 30
0.0
 10
4.074959
 20
5.550031
 30
0.0
 10
4.074959
 20
5.225033
 30
0.0
 10
4.450007
 20
5.225033
 30
0.0
 10
4.525411
 20
5.232676
 30
0.0
 10
4.595721
 20
5.254586
 30
0.0
 10
4.659408
 20
5.289233
 30
0.0
 10
4.714943
 20
5.335088
 30
0.0
 10
4.760799
 20
5.390624
 30
0.0
 10
4.795446
 20
5.454311
 30
0.0
 10
4.817355
 20
5.524620
 30
0.0
 10
4.824999
 20
5.600024
 30
0.0
 10
4.817356
 20
5.675429
 30
0.0
 10
4.795447
 20
5.745739
 30
0.0
 10
4.760801
 20
5.809426
 30
0.0
 10
4.714945
 20
5.864962
 30
0.0
 10
4.659410
 20
5.910817
 30
0.0
 10
4.595722
 20
5.945464
 30
0.0
 10
4.525412
 20
5.967374
 30
0.0
 10
4.450007
 20
5.975019
 30
0.0
 10
3.549984
 20
5.975019
 30
0.0
 10
3.549984
 20
5.975019
 30
0.0
  0
LWPOLYLINE
  5
105
100
AcDbEntity
  8
Layer_1
 62
7
100
AcDbPolyline
 90
18
 70
0
 10
3.549984
 20
5.750011
 30
0.0
 10
3.608362
 20
5.738220
 30
0.0
 10
3.656034
 20
5.706076
 30
0.0
 10
3.688178
 20
5.658403
 30
0.0
 10
3.699968
 20
5.600024
 30
0.0
 10
3.688177
 20
5.541647
 30
0.0
 10
3.656033
 20
5.493975
 30
0.0
 10
3.608361
 20
5.461831
 30
0.0
 10
3.549984
 20
5.450040
 30
0.0
 10
3.491605
 20
5.461831
 30
0.0
 10
3.443932
 20
5.493974
 30
0.0
 10
3.411788
 20
5.541646
 30
0.0
 10
3.399997
 20
5.600024
 30
0.0
 10
3.411787
 20
5.658403
 30
0.0
 10
3.443931
 20
5.706077
 30
0.0
 10
3.491604
 20
5.738221
 30
0.0
 10
3.549984
 20
5.750011
 30
0.0
 10
3.549984
 20
5.750011
 30
0.0
  0
LWPOLYLINE
  5
106
100
AcDbEntity
  8
Layer_1
 62
7
100
AcDbPolyline
 90
18
 70
0
 10
4.450007
 20
5.750011
 30
0.0
 10
4.508386
 20
5.738221
 30
0.0
 10
4.556060
 20
5.706077
 30
0.0
 10
4.588204
 20
5.658403
 30
0.0
 10
4.599994
 20
5.600024
 30
0.0
 10
4.588203
 20
5.541646
 30
0.0
 10
4.556059
 20
5.493974
 30
0.0
 10
4.508386
 20
5.461831
 30
0.0
 10
4.450007
 20
5.450040
 30
0.0
 10
4.392596
 20
5.461446
 30
0.0
 10
4.343921
 20
5.493955
 30
0.0
 10
4.311393
 20
5.542618
 30
0.0
 10
4.299967
 20
5.600024
 30
0.0
 10
4.311393
 20
5.657432
 30
0.0
 10
4.343920
 20
5.706096
 30
0.0
 10
4.392595
 20
5.738606
 30
0.0
 10
4.450007
 20
5.750011
 30
0.0
 10
4.450007
 20
5.750011
 30
0.0
  0
LWPOLYLINE
  5
107
100
AcDbEntity
  8
Layer_1
 62
7
100
AcDbPolyline
 90
40
 70
0
 10
3.549984
 20
1.175034
 30
0.0
 10
3.474579
 20
1.167390
 30
0.0
 10
3.404269
 20
1.145481
 30
0.0
 10
3.340582
 20
1.110835
 30
0.0
 10
3.285046
 20
1.064980
 30
0.0
 10
3.239191
 20
1.009444
 30
0.0
 10
3.204545
 20
0.945757
 30
0.0
 10
3.182636
 20
0.875447
 30
0.0
 10
3.174992
 20
0.800042
 30
0.0
 10
3.182636
 20
0.724638
 30
0.0
 10
3.204545
 20
0.654329
 30
0.0
 10
3.239191
 20
0.590642
 30
0.0
 10
3.285046
 20
0.535106
 30
0.0
 10
3.340582
 20
0.489251
 30
0.0
 10
3.404269
 20
0.454604
 30
0.0
 10
3.474579
 20
0.432694
 30
0.0
 10
3.549984
 20
0.425051
 30
0.0
 10
4.450007
 20
0.425051
 30
0.0
 10
4.525411
 20
0.432694
 30
0.0
 10
4.595721
 20
0.454604
 30
0.0
 10
4.659408
 20
0.489251
 30
0.0
 10
4.714943
 20
0.535106
 30
0.0
 10
4.760799
 20
0.590642
 30
0.0
 10
4.795446
 20
0.654329
 30
0.0
 10
4.817355
 20
0.724638
 30
0.0
 10
4.824999
 20
0.800042
 30
0.0
 10
4.817355
 20
0.875447
 30
0.0
 10
4.795446
 20
0.945757
 30
0.0
 10
4.760799
 20
1.009444
 30
0.0
 10
4.714943
 20
1.064980
 30
0.0
 10
4.659408
 20
1.110835
 30
0.0
 10
4.595721
 20
1.145481
 30
0.0
 10
4.525411
 20
1.167390
 30
0.0
 10
4.450007
 20
1.175034
 30
0.0
 10
4.074959
 20
1.175034
 30
0.0
 10
4.074959
 20
0.850038
 30
0.0
 10
3.924975
 20
0.850038
 30
0.0
 10
3.924975
 20
1.175034
 30
0.0
 10
3.549984
 20
1.175034
 30
0.0
 10
3.549984
 20
1.175034
 30
0.0
  0
LWPOLYLINE
  5
108
100
AcDbEntity
  8
Layer_1
 62
7
100
AcDbPolyline
 90
18
 70
0
 10
3.549984
 20
0.950029
 30
0.0
 10
3.608362
 20
0.938238
 30
0.0
 10
3.656034
 20
0.906094
 30
0.0
 10
3.688178
 20
0.858421
 30
0.0
 10
3.699968
 20
0.800042
 30
0.0
 10
3.688563
 20
0.742631
 30
0.0
 10
3.656053
 20
0.693956
 30
0.0
 10
3.607390
 20
0.661429
 30
0.0
 10
3.549984
 20
0.650002
 30
0.0
 10
3.492576
 20
0.661428
 30
0.0
 10
3.443912
 20
0.693955
 30
0.0
 10
3.411402
 20
0.742631
 30
0.0
 10
3.399997
 20
0.800042
 30
0.0
 10
3.411787
 20
0.858421
 30
0.0
 10
3.443931
 20
0.906095
 30
0.0
 10
3.491604
 20
0.938239
 30
0.0
 10
3.549984
 20
0.950029
 30
0.0
 10
3.549984
 20
0.950029
 30
0.0
  0
LWPOLYLINE
  5
109
100
AcDbEntity
  8
Layer_1
 62
7
100
AcDbPolyline
 90
18
 70
0
 10
4.450007
 20
0.950029
 30
0.0
 10
4.508386
 20
0.938239
 30
0.0
 10
4.556060
 20
0.906095
 30
0.0
 10
4.588204
 20
0.858421
 30
0.0
 10
4.599994
 20
0.800042
 30
0.0
 10
4.588589
 20
0.742631
 30
0.0
 10
4.556079
 20
0.693955
 30
0.0
 10
4.507415
 20
0.661428
 30
0.0
 10
4.450007
 20
0.650002
 30
0.0
 10
4.392583
 20
0.661413
 30
0.0
 10
4.343901
 20
0.693936
 30
0.0
 10
4.311377
 20
0.742618
 30
0.0
 10
4.299967
 20
0.800042
 30
0.0
 10
4.311393
 20
0.857450
 30
0.0
 10
4.343920
 20
0.906114
 30
0.0
 10
4.392595
 20
0.938624
 30
0.0
 10
4.450007
 20
0.950029
 30
0.0
 10
4.450007
 20
0.950029
 30
0.0
  0
ENDSEC
  0
SECTION
  2
OBJECTS
  0
DICTIONARY
  5
C
330
0
100
AcDbDictionary
  3
ACAD_GROUP
350
D
  3
ACAD_MLINESTYLE
350
17
  0
DICTIONARY
  5
D
330
C
100
AcDbDictionary
  0
DICTIONARY
  5
1A
330
C
100
AcDbDictionary
  0
DICTIONARY
  5
17
330
C
100
AcDbDictionary
  3
STANDARD
350
18
  0
DICTIONARY
  5
19
330
C
100
AcDbDictionary
  0
ENDSEC
  0
EOF
