  0
SECTION
  2
HEADER
  9
$ACADVER
  1
AC1014
  9
$HANDSEED
  5
FFFF
  9
$MEASUREMENT
 70
     1
  0
ENDSEC
  0
SECTION
  2
TABLES
  0
TABLE
  2
VPORT
  5
8
330
0
100
AcDbSymbolTable
 70
     4
  0
VPORT
  5
2E
330
8
100
AcDbSymbolTableRecord
100
AcDbViewportTableRecord
  2
*ACTIVE
 70
     0
 10
0.0
 20
0.0
 11
1.0
 21
1.0
 12
210.0
 22
148.5
 13
0.0
 23
0.0
 14
10.0
 24
10.0
 15
10.0
 25
10.0
 16
0.0
 26
0.0
 36
1.0
 17
0.0
 27
0.0
 37
0.0
 40
341.0
 41
1.24
 42
50.0
 43
0.0
 44
0.0
 50
0.0
 51
0.0
 71
     0
 72
   100
 73
     1
 74
     3
 75
     0
 76
     0
 77
     0
 78
     0
  0
ENDTAB
  0
TABLE
  2
LTYPE
  5
5
330
0
100
AcDbSymbolTable
 70
     1
  0
LTYPE
  5
14
330
5
100
AcDbSymbolTableRecord
100
AcDbLinetypeTableRecord
  2
BYBLOCK
 70
     0
  3

 72
    65
 73
     0
 40
0.0
  0
LTYPE
  5
15
330
5
100
AcDbSymbolTableRecord
100
AcDbLinetypeTableRecord
  2
BYLAYER
 70
     0
  3

 72
    65
 73
     0
 40
0.0
  0
LTYPE
  5
16
330
5
100
AcDbSymbolTableRecord
100
AcDbLinetypeTableRecord
  2
CONTINUOUS
 70
     0
  3
Solid line
 72
    65
 73
     0
 40
0.0
  0
ENDTAB
  0
TABLE
  2
LAYER
  5
2
100
AcDbSymbolTable
 70
2
  0
LAYER
  5
50
100
AcDbSymbolTableRecord
100
AcDbLayerTableRecord
  2
0
 70
0
  6
CONTINUOUS
  0
LAYER
  5
51
100
AcDbSymbolTableRecord
100
AcDbLayerTableRecord
  2
Layer_1
 70
0
  6
CONTINUOUS
  0
ENDTAB
  0
TABLE
  2
STYLE
  5
3
330
0
100
AcDbSymbolTable
 70
     1
  0
STYLE
  5
11
330
3
100
AcDbSymbolTableRecord
100
AcDbTextStyleTableRecord
  2
STANDARD
 70
     0
 40
0.0
 41
1.0
 50
0.0
 71
     0
 42
2.5
  3
txt
  4

  0
ENDTAB
  0
TABLE
  2
VIEW
  5
6
330
0
100
AcDbSymbolTable
 70
     0
  0
ENDTAB
  0
TABLE
  2
UCS
  5
7
330
0
100
AcDbSymbolTable
 70
     0
  0
ENDTAB
  0
TABLE
  2
APPID
  5
9
330
0
100
AcDbSymbolTable
 70
     2
  0
APPID
  5
12
330
9
100
AcDbSymbolTableRecord
100
AcDbRegAppTableRecord
  2
ACAD
 70
     0
  0
ENDTAB
  0
TABLE
  2
DIMSTYLE
  5
A
330
0
100
AcDbSymbolTable
 70
     1
  0
DIMSTYLE
105
27
330
A
100
AcDbSymbolTableRecord
100
AcDbDimStyleTableRecord
  2
ISO-25
 70
     0
  3

  4

  5

  6

  7

 40
1.0
 41
2.5
 42
0.625
 43
3.75
 44
1.25
 45
0.0
 46
0.0
 47
0.0
 48
0.0
140
2.5
141
2.5
142
0.0
143
0.03937007874016
144
1.0
145
0.0
146
1.0
147
0.625
 71
     0
 72
     0
 73
     0
 74
     0
 75
     0
 76
     0
 77
     1
 78
     8
170
     0
171
     3
172
     1
173
     0
174
     0
175
     0
176
     0
177
     0
178
     0
270
     2
271
     2
272
     2
273
     2
274
     3
340
11
275
     0
280
     0
281
     0
282
     0
283
     0
284
     8
285
     0
286
     0
287
     3
288
     0
  0
ENDTAB
  0
TABLE
  2
BLOCK_RECORD
  5
1
330
0
100
AcDbSymbolTable
 70
     1
  0
BLOCK_RECORD
  5
1F
330
1
100
AcDbSymbolTableRecord
100
AcDbBlockTableRecord
  2
*MODEL_SPACE
  0
BLOCK_RECORD
  5
1B
330
1
100
AcDbSymbolTableRecord
100
AcDbBlockTableRecord
  2
*PAPER_SPACE
  0
ENDTAB
  0
ENDSEC
  0
SECTION
  2
BLOCKS
  0
BLOCK
  5
20
330
1F
100
AcDbEntity
  8
0
100
AcDbBlockBegin
  2
*MODEL_SPACE
 70
     0
 10
0.0
 20
0.0
 30
0.0
  3
*MODEL_SPACE
  1

  0
ENDBLK
  5
21
330
1F
100
AcDbEntity
  8
0
100
AcDbBlockEnd
  0
BLOCK
  5
1C
330
1B
100
AcDbEntity
 67
     1
  8
0
100
AcDbBlockBegin
  2
*PAPER_SPACE
  1

  0
ENDBLK
  5
1D
330
1B
100
AcDbEntity
 67
     1
  8
0
100
AcDbBlockEnd
  0
ENDSEC
  0
SECTION
  2
ENTITIES
  0
LWPOLYLINE
  5
100
100
AcDbEntity
  8
Layer_1
 62
7
100
AcDbPolyline
 90
44
 70
0
 10
4.123919
 20
11.000008
 30
0.0
 10
3.812900
 20
10.874470
 30
0.0
 10
3.510359
 20
10.729690
 30
0.0
 10
3.479656
 20
10.713705
 30
0.0
 10
3.479374
 20
10.713705
 30
0.0
 10
3.259011
 20
10.589037
 30
0.0
 10
3.044794
 20
10.454083
 30
0.0
 10
3.018942
 20
10.436721
 30
0.0
 10
2.812997
 20
10.291284
 30
0.0
 10
2.614131
 20
10.136307
 30
0.0
 10
2.594839
 20
10.120598
 30
0.0
 10
2.398780
 20
9.950654
 30
0.0
 10
2.211191
 20
9.771405
 30
0.0
 10
2.203145
 20
9.763246
 30
0.0
 10
2.023225
 20
9.572737
 30
0.0
 10
1.852848
 20
9.373646
 30
0.0
 10
1.847720
 20
9.367364
 30
0.0
 10
1.716017
 20
9.197280
 30
0.0
 10
1.591405
 20
9.022254
 30
0.0
 10
1.474012
 20
8.842512
 30
0.0
 10
1.363967
 20
8.658279
 30
0.0
 10
1.261399
 20
8.469782
 30
0.0
 10
1.166436
 20
8.277245
 30
0.0
 10
1.079208
 20
8.080895
 30
0.0
 10
0.999843
 20
7.880956
 30
0.0
 10
0.999843
 20
7.511640
 30
0.0
 10
1.104414
 20
7.821394
 30
0.0
 10
1.227213
 20
8.121929
 30
0.0
 10
1.367595
 20
8.412602
 30
0.0
 10
1.524910
 20
8.692766
 30
0.0
 10
1.698512
 20
8.961776
 30
0.0
 10
1.887754
 20
9.218986
 30
0.0
 10
2.091988
 20
9.463751
 30
0.0
 10
2.310567
 20
9.695426
 30
0.0
 10
2.542845
 20
9.913365
 30
0.0
 10
2.788173
 20
10.116923
 30
0.0
 10
3.045905
 20
10.305454
 30
0.0
 10
3.315393
 20
10.478313
 30
0.0
 10
3.595991
 20
10.634855
 30
0.0
 10
3.887050
 20
10.774433
 30
0.0
 10
4.187923
 20
10.896403
 30
0.0
 10
4.497965
 20
11.000118
 30
0.0
 10
4.123800
 20
11.000118
 30
0.0
 10
4.123919
 20
11.000008
 30
0.0
  0
LWPOLYLINE
  5
101
100
AcDbEntity
  8
Layer_1
 62
7
100
AcDbPolyline
 90
57
 70
0
 10
7.511299
 20
11.000008
 30
0.0
 10
7.821697
 20
10.895181
 30
0.0
 10
8.124036
 20
10.771496
 30
0.0
 10
8.417498
 20
10.629450
 30
0.0
 10
8.701263
 20
10.469539
 30
0.0
 10
8.974515
 20
10.292259
 30
0.0
 10
9.236433
 20
10.098105
 30
0.0
 10
9.486201
 20
9.887574
 30
0.0
 10
9.722999
 20
9.661160
 30
0.0
 10
9.722999
 20
9.661160
 30
0.0
 10
9.878483
 20
9.493713
 30
0.0
 10
10.026498
 20
9.319626
 30
0.0
 10
10.069991
 20
9.270734
 30
0.0
 10
10.069991
 20
9.270734
 30
0.0
 10
10.215975
 20
9.078542
 30
0.0
 10
10.352930
 20
8.879814
 30
0.0
 10
10.353212
 20
8.879532
 30
0.0
 10
10.376309
 20
8.847672
 30
0.0
 10
10.487985
 20
8.655518
 30
0.0
 10
10.488323
 20
8.655179
 30
0.0
 10
10.618961
 20
8.430448
 30
0.0
 10
10.619243
 20
8.430110
 30
0.0
 10
10.639033
 20
8.396099
 30
0.0
 10
10.729155
 20
8.197717
 30
0.0
 10
10.785546
 20
8.077662
 30
0.0
 10
10.786110
 20
8.076449
 30
0.0
 10
10.786110
 20
8.076166
 30
0.0
 10
10.838750
 20
7.956222
 30
0.0
 10
10.924777
 20
7.730903
 30
0.0
 10
11.000314
 20
7.501855
 30
0.0
 10
11.000314
 20
7.875083
 30
0.0
 10
10.875241
 20
8.178969
 30
0.0
 10
10.875241
 20
8.177981
 30
0.0
 10
10.860857
 20
8.209674
 30
0.0
 10
10.731486
 20
8.485558
 30
0.0
 10
10.726911
 20
8.493387
 30
0.0
 10
10.725472
 20
8.495588
 30
0.0
 10
10.675089
 20
8.584773
 30
0.0
 10
10.459508
 20
8.945764
 30
0.0
 10
10.454053
 20
8.953259
 30
0.0
 10
10.451457
 20
8.956457
 30
0.0
 10
10.419817
 20
9.003365
 30
0.0
 10
10.285017
 20
9.193557
 30
0.0
 10
10.142059
 20
9.377696
 30
0.0
 10
10.121389
 20
9.400903
 30
0.0
 10
10.092174
 20
9.436015
 30
0.0
 10
9.862783
 20
9.691612
 30
0.0
 10
9.618243
 20
9.931249
 30
0.0
 10
9.359412
 20
10.154319
 30
0.0
 10
9.087148
 20
10.360215
 30
0.0
 10
8.802309
 20
10.548330
 30
0.0
 10
8.505752
 20
10.718057
 30
0.0
 10
8.198336
 20
10.868791
 30
0.0
 10
7.880917
 20
10.999924
 30
0.0
 10
7.511601
 20
10.999924
 30
0.0
 10
7.511206
 20
10.999924
 30
0.0
 10
7.511299
 20
11.000008
 30
0.0
  0
LWPOLYLINE
  5
102
100
AcDbEntity
  8
Layer_1
 62
7
100
AcDbPolyline
 90
5
 70
0
 10
10.996913
 20
7.510483
 30
0.0
 10
10.999944
 20
7.501720
 30
0.0
 10
10.999944
 20
7.502002
 30
0.0
 10
10.996913
 20
7.510545
 30
0.0
 10
10.996913
 20
7.510483
 30
0.0
  0
LWPOLYLINE
  5
103
100
AcDbEntity
  8
Layer_1
 62
7
100
AcDbPolyline
 90
44
 70
0
 10
0.999961
 20
4.498147
 30
0.0
 10
0.999961
 20
4.123926
 30
0.0
 10
1.125549
 20
3.812852
 30
0.0
 10
1.270387
 20
3.510260
 30
0.0
 10
1.286315
 20
3.479667
 30
0.0
 10
1.286315
 20
3.479384
 30
0.0
 10
1.411058
 20
3.258826
 30
0.0
 10
1.546104
 20
3.044421
 30
0.0
 10
1.563026
 20
3.019340
 30
0.0
 10
1.708850
 20
2.812823
 30
0.0
 10
1.864267
 20
2.613425
 30
0.0
 10
1.878928
 20
2.595456
 30
0.0
 10
2.048870
 20
2.399342
 30
0.0
 10
2.228122
 20
2.211699
 30
0.0
 10
2.237438
 20
2.202659
 30
0.0
 10
2.427789
 20
2.022885
 30
0.0
 10
2.626707
 20
1.852639
 30
0.0
 10
2.632219
 20
1.848117
 30
0.0
 10
2.802322
 20
1.716371
 30
0.0
 10
2.977370
 20
1.591718
 30
0.0
 10
3.157136
 20
1.474286
 30
0.0
 10
3.341396
 20
1.364205
 30
0.0
 10
3.529922
 20
1.261604
 30
0.0
 10
3.722490
 20
1.166610
 30
0.0
 10
3.918874
 20
1.079354
 30
0.0
 10
4.118847
 20
0.999963
 30
0.0
 10
4.488327
 20
0.999963
 30
0.0
 10
4.178573
 20
1.104535
 30
0.0
 10
3.878038
 20
1.227334
 30
0.0
 10
3.587365
 20
1.367715
 30
0.0
 10
3.307201
 20
1.525031
 30
0.0
 10
3.038191
 20
1.698633
 30
0.0
 10
2.780981
 20
1.887875
 30
0.0
 10
2.536216
 20
2.092110
 30
0.0
 10
2.304541
 20
2.310689
 30
0.0
 10
2.086602
 20
2.542967
 30
0.0
 10
1.883044
 20
2.788295
 30
0.0
 10
1.694513
 20
3.046027
 30
0.0
 10
1.521655
 20
3.315515
 30
0.0
 10
1.365114
 20
3.596112
 30
0.0
 10
1.225536
 20
3.887171
 30
0.0
 10
1.103567
 20
4.188045
 30
0.0
 10
0.999851
 20
4.498085
 30
0.0
 10
0.999961
 20
4.498147
 30
0.0
  0
LWPOLYLINE
  5
104
100
AcDbEntity
  8
Layer_1
 62
7
100
AcDbPolyline
 90
43
 70
0
 10
10.999944
 20
4.488721
 30
0.0
 10
10.895384
 20
4.178952
 30
0.0
 10
10.772593
 20
3.878400
 30
0.0
 10
10.632220
 20
3.587711
 30
0.0
 10
10.474910
 20
3.307531
 30
0.0
 10
10.301312
 20
3.038506
 30
0.0
 10
10.112073
 20
2.781280
 30
0.0
 10
9.907840
 20
2.536499
 30
0.0
 10
9.689260
 20
2.304809
 30
0.0
 10
9.456981
 20
2.086856
 30
0.0
 10
9.211650
 20
1.883285
 30
0.0
 10
8.953915
 20
1.694740
 30
0.0
 10
8.684421
 20
1.521869
 30
0.0
 10
8.403818
 20
1.365317
 30
0.0
 10
8.112752
 20
1.225728
 30
0.0
 10
7.811870
 20
1.103749
 30
0.0
 10
7.501819
 20
1.000026
 30
0.0
 10
7.876371
 20
1.000026
 30
0.0
 10
8.186369
 20
1.125211
 30
0.0
 10
8.487943
 20
1.269514
 30
0.0
 10
8.522174
 20
1.287373
 30
0.0
 10
8.741118
 20
1.411253
 30
0.0
 10
8.953997
 20
1.545287
 30
0.0
 10
8.982273
 20
1.564360
 30
0.0
 10
9.187023
 20
1.709022
 30
0.0
 10
9.384772
 20
1.863118
 30
0.0
 10
9.405716
 20
1.880096
 30
0.0
 10
9.600655
 20
2.049154
 30
0.0
 10
9.787215
 20
2.227416
 30
0.0
 10
9.798352
 20
2.238716
 30
0.0
 10
9.976645
 20
2.427591
 30
0.0
 10
10.145562
 20
2.624897
 30
0.0
 10
10.153224
 20
2.634267
 30
0.0
 10
10.284722
 20
2.804179
 30
0.0
 10
10.409146
 20
2.979019
 30
0.0
 10
10.526367
 20
3.158563
 30
0.0
 10
10.636257
 20
3.342586
 30
0.0
 10
10.738688
 20
3.530863
 30
0.0
 10
10.833532
 20
3.723168
 30
0.0
 10
10.920660
 20
3.919278
 30
0.0
 10
10.999944
 20
4.118968
 30
0.0
 10
10.999944
 20
4.488721
 30
0.0
 10
10.999944
 20
4.488721
 30
0.0
  0
LWPOLYLINE
  5
105
100
AcDbEntity
  8
Layer_1
 62
7
100
AcDbPolyline
 90
8
 70
0
 10
0.000000
 20
12.000012
 30
0.0
 10
0.000000
 20
10.999997
 30
0.0
 10
0.028332
 20
10.999997
 30
0.0
 10
0.028332
 20
11.971623
 30
0.0
 10
1.000015
 20
11.971623
 30
0.0
 10
1.000015
 20
12.000012
 30
0.0
 10
0.000000
 20
12.000012
 30
0.0
 10
0.000000
 20
12.000012
 30
0.0
  0
LWPOLYLINE
  5
106
100
AcDbEntity
  8
Layer_1
 62
7
100
AcDbPolyline
 90
9
 70
0
 10
10.999998
 20
12.000012
 30
0.0
 10
10.999998
 20
11.971623
 30
0.0
 10
11.971680
 20
11.971623
 30
0.0
 10
11.971680
 20
10.999997
 30
0.0
 10
12.000013
 20
10.999997
 30
0.0
 10
12.000013
 20
11.985791
 30
0.0
 10
12.000013
 20
12.000012
 30
0.0
 10
10.999998
 20
12.000012
 30
0.0
 10
10.999998
 20
12.000012
 30
0.0
  0
LWPOLYLINE
  5
107
100
AcDbEntity
  8
Layer_1
 62
7
100
AcDbPolyline
 90
8
 70
0
 10
0.000056
 20
0.799978
 30
0.0
 10
0.000056
 20
-0.000001
 30
0.0
 10
1.000071
 20
-0.000001
 30
0.0
 10
1.000071
 20
0.028332
 30
0.0
 10
0.028389
 20
0.028332
 30
0.0
 10
0.028389
 20
0.799978
 30
0.0
 10
0.000056
 20
0.799978
 30
0.0
 10
0.000056
 20
0.799978
 30
0.0
  0
LWPOLYLINE
  5
108
100
AcDbEntity
  8
Layer_1
 62
7
100
AcDbPolyline
 90
8
 70
0
 10
11.971680
 20
0.799978
 30
0.0
 10
11.971680
 20
0.028332
 30
0.0
 10
10.999998
 20
0.028332
 30
0.0
 10
10.999998
 20
-0.000001
 30
0.0
 10
12.000013
 20
-0.000001
 30
0.0
 10
12.000013
 20
0.799978
 30
0.0
 10
11.971680
 20
0.799978
 30
0.0
 10
11.971680
 20
0.799978
 30
0.0
  0
ENDSEC
  0
SECTION
  2
OBJECTS
  0
DICTIONARY
  5
C
330
0
100
AcDbDictionary
  3
ACAD_GROUP
350
D
  3
ACAD_MLINESTYLE
350
17
  0
DICTIONARY
  5
D
330
C
100
AcDbDictionary
  0
DICTIONARY
  5
1A
330
C
100
AcDbDictionary
  0
DICTIONARY
  5
17
330
C
100
AcDbDictionary
  3
STANDARD
350
18
  0
DICTIONARY
  5
19
330
C
100
AcDbDictionary
  0
ENDSEC
  0
EOF
