  0
SECTION
  2
HEADER
  9
$ACADVER
  1
AC1014
  9
$HANDSEED
  5
FFFF
  9
$MEASUREMENT
 70
     1
  0
ENDSEC
  0
SECTION
  2
TABLES
  0
TABLE
  2
VPORT
  5
8
330
0
100
AcDbSymbolTable
 70
     4
  0
VPORT
  5
2E
330
8
100
AcDbSymbolTableRecord
100
AcDbViewportTableRecord
  2
*ACTIVE
 70
     0
 10
0.0
 20
0.0
 11
1.0
 21
1.0
 12
210.0
 22
148.5
 13
0.0
 23
0.0
 14
10.0
 24
10.0
 15
10.0
 25
10.0
 16
0.0
 26
0.0
 36
1.0
 17
0.0
 27
0.0
 37
0.0
 40
341.0
 41
1.24
 42
50.0
 43
0.0
 44
0.0
 50
0.0
 51
0.0
 71
     0
 72
   100
 73
     1
 74
     3
 75
     0
 76
     0
 77
     0
 78
     0
  0
ENDTAB
  0
TABLE
  2
LTYPE
  5
5
330
0
100
AcDbSymbolTable
 70
     1
  0
LTYPE
  5
14
330
5
100
AcDbSymbolTableRecord
100
AcDbLinetypeTableRecord
  2
BYBLOCK
 70
     0
  3

 72
    65
 73
     0
 40
0.0
  0
LTYPE
  5
15
330
5
100
AcDbSymbolTableRecord
100
AcDbLinetypeTableRecord
  2
BYLAYER
 70
     0
  3

 72
    65
 73
     0
 40
0.0
  0
LTYPE
  5
16
330
5
100
AcDbSymbolTableRecord
100
AcDbLinetypeTableRecord
  2
CONTINUOUS
 70
     0
  3
Solid line
 72
    65
 73
     0
 40
0.0
  0
ENDTAB
  0
TABLE
  2
LAYER
  5
2
100
AcDbSymbolTable
 70
2
  0
LAYER
  5
50
100
AcDbSymbolTableRecord
100
AcDbLayerTableRecord
  2
0
 70
0
  6
CONTINUOUS
  0
LAYER
  5
51
100
AcDbSymbolTableRecord
100
AcDbLayerTableRecord
  2
Layer_1
 70
0
  6
CONTINUOUS
  0
ENDTAB
  0
TABLE
  2
STYLE
  5
3
330
0
100
AcDbSymbolTable
 70
     1
  0
STYLE
  5
11
330
3
100
AcDbSymbolTableRecord
100
AcDbTextStyleTableRecord
  2
STANDARD
 70
     0
 40
0.0
 41
1.0
 50
0.0
 71
     0
 42
2.5
  3
txt
  4

  0
ENDTAB
  0
TABLE
  2
VIEW
  5
6
330
0
100
AcDbSymbolTable
 70
     0
  0
ENDTAB
  0
TABLE
  2
UCS
  5
7
330
0
100
AcDbSymbolTable
 70
     0
  0
ENDTAB
  0
TABLE
  2
APPID
  5
9
330
0
100
AcDbSymbolTable
 70
     2
  0
APPID
  5
12
330
9
100
AcDbSymbolTableRecord
100
AcDbRegAppTableRecord
  2
ACAD
 70
     0
  0
ENDTAB
  0
TABLE
  2
DIMSTYLE
  5
A
330
0
100
AcDbSymbolTable
 70
     1
  0
DIMSTYLE
105
27
330
A
100
AcDbSymbolTableRecord
100
AcDbDimStyleTableRecord
  2
ISO-25
 70
     0
  3

  4

  5

  6

  7

 40
1.0
 41
2.5
 42
0.625
 43
3.75
 44
1.25
 45
0.0
 46
0.0
 47
0.0
 48
0.0
140
2.5
141
2.5
142
0.0
143
0.03937007874016
144
1.0
145
0.0
146
1.0
147
0.625
 71
     0
 72
     0
 73
     0
 74
     0
 75
     0
 76
     0
 77
     1
 78
     8
170
     0
171
     3
172
     1
173
     0
174
     0
175
     0
176
     0
177
     0
178
     0
270
     2
271
     2
272
     2
273
     2
274
     3
340
11
275
     0
280
     0
281
     0
282
     0
283
     0
284
     8
285
     0
286
     0
287
     3
288
     0
  0
ENDTAB
  0
TABLE
  2
BLOCK_RECORD
  5
1
330
0
100
AcDbSymbolTable
 70
     1
  0
BLOCK_RECORD
  5
1F
330
1
100
AcDbSymbolTableRecord
100
AcDbBlockTableRecord
  2
*MODEL_SPACE
  0
BLOCK_RECORD
  5
1B
330
1
100
AcDbSymbolTableRecord
100
AcDbBlockTableRecord
  2
*PAPER_SPACE
  0
ENDTAB
  0
ENDSEC
  0
SECTION
  2
BLOCKS
  0
BLOCK
  5
20
330
1F
100
AcDbEntity
  8
0
100
AcDbBlockBegin
  2
*MODEL_SPACE
 70
     0
 10
0.0
 20
0.0
 30
0.0
  3
*MODEL_SPACE
  1

  0
ENDBLK
  5
21
330
1F
100
AcDbEntity
  8
0
100
AcDbBlockEnd
  0
BLOCK
  5
1C
330
1B
100
AcDbEntity
 67
     1
  8
0
100
AcDbBlockBegin
  2
*PAPER_SPACE
  1

  0
ENDBLK
  5
1D
330
1B
100
AcDbEntity
 67
     1
  8
0
100
AcDbBlockEnd
  0
ENDSEC
  0
SECTION
  2
ENTITIES
  0
LWPOLYLINE
  5
100
100
AcDbEntity
  8
Layer_1
 62
7
100
AcDbPolyline
 90
157
 70
0
 10
4.148028
 20
10.874997
 30
0.0
 10
3.854335
 20
10.755743
 30
0.0
 10
3.568425
 20
10.618902
 30
0.0
 10
3.538603
 20
10.603413
 30
0.0
 10
3.537784
 20
10.602973
 30
0.0
 10
3.323529
 20
10.481751
 30
0.0
 10
3.115224
 20
10.350571
 30
0.0
 10
3.115224
 20
10.350515
 30
0.0
 10
3.087499
 20
10.331884
 30
0.0
 10
2.887345
 20
10.190509
 30
0.0
 10
2.694041
 20
10.039905
 30
0.0
 10
2.674088
 20
10.023699
 30
0.0
 10
2.482878
 20
9.857906
 30
0.0
 10
2.299921
 20
9.683048
 30
0.0
 10
2.299639
 20
9.682823
 30
0.0
 10
2.292033
 20
9.675106
 30
0.0
 10
2.116330
 20
9.489044
 30
0.0
 10
1.949948
 20
9.294602
 30
0.0
 10
1.949610
 20
9.294215
 30
0.0
 10
1.945145
 20
9.288758
 30
0.0
 10
1.944863
 20
9.288428
 30
0.0
 10
1.697612
 20
8.955656
 30
0.0
 10
1.477978
 20
8.604840
 30
0.0
 10
1.286803
 20
8.237736
 30
0.0
 10
1.124928
 20
7.856095
 30
0.0
 10
1.124928
 20
7.324944
 30
0.0
 10
1.799894
 20
7.324944
 30
0.0
 10
1.848542
 20
7.315125
 30
0.0
 10
1.888273
 20
7.288347
 30
0.0
 10
1.915068
 20
7.248627
 30
0.0
 10
1.924907
 20
7.199983
 30
0.0
 10
1.924907
 20
4.799992
 30
0.0
 10
1.915392
 20
4.752151
 30
0.0
 10
1.888292
 20
4.711593
 30
0.0
 10
1.847735
 20
4.684493
 30
0.0
 10
1.799894
 20
4.674976
 30
0.0
 10
1.124928
 20
4.674976
 30
0.0
 10
1.124928
 20
4.148070
 30
0.0
 10
1.243966
 20
3.854889
 30
0.0
 10
1.380528
 20
3.569459
 30
0.0
 10
1.380867
 20
3.568742
 30
0.0
 10
1.397239
 20
3.537323
 30
0.0
 10
1.397239
 20
3.537266
 30
0.0
 10
1.518589
 20
3.322785
 30
0.0
 10
1.649915
 20
3.114264
 30
0.0
 10
1.667388
 20
3.088302
 30
0.0
 10
1.809279
 20
2.887379
 30
0.0
 10
1.960470
 20
2.693356
 30
0.0
 10
1.975791
 20
2.674559
 30
0.0
 10
1.975791
 20
2.674503
 30
0.0
 10
2.141767
 20
2.483036
 30
0.0
 10
2.316829
 20
2.299842
 30
0.0
 10
2.316829
 20
2.299729
 30
0.0
 10
2.324658
 20
2.292122
 30
0.0
 10
2.324658
 20
2.292066
 30
0.0
 10
2.510877
 20
2.116162
 30
0.0
 10
2.705494
 20
1.949596
 30
0.0
 10
2.705776
 20
1.949426
 30
0.0
 10
2.710628
 20
1.945402
 30
0.0
 10
2.710628
 20
1.945346
 30
0.0
 10
2.710910
 20
1.945177
 30
0.0
 10
3.043796
 20
1.697820
 30
0.0
 10
3.394746
 20
1.478112
 30
0.0
 10
3.761999
 20
1.286885
 30
0.0
 10
4.143794
 20
1.124968
 30
0.0
 10
4.487863
 20
1.124968
 30
0.0
 10
4.487863
 20
1.124968
 30
0.0
 10
4.674725
 20
1.125194
 30
0.0
 10
4.674725
 20
1.799992
 30
0.0
 10
4.684559
 20
1.848623
 30
0.0
 10
4.711340
 20
1.888337
 30
0.0
 10
4.751054
 20
1.915118
 30
0.0
 10
4.799684
 20
1.924952
 30
0.0
 10
7.199677
 20
1.924952
 30
0.0
 10
7.248326
 20
1.915134
 30
0.0
 10
7.288058
 20
1.888357
 30
0.0
 10
7.314853
 20
1.848637
 30
0.0
 10
7.324693
 20
1.799992
 30
0.0
 10
7.324693
 20
1.126903
 30
0.0
 10
7.856780
 20
1.126734
 30
0.0
 10
8.147311
 20
1.245042
 30
0.0
 10
8.430211
 20
1.380568
 30
0.0
 10
8.462898
 20
1.397546
 30
0.0
 10
8.676726
 20
1.518539
 30
0.0
 10
8.884631
 20
1.649451
 30
0.0
 10
8.912246
 20
1.668082
 30
0.0
 10
9.112200
 20
1.809355
 30
0.0
 10
9.305317
 20
1.959840
 30
0.0
 10
9.325713
 20
1.976432
 30
0.0
 10
9.325713
 20
1.976488
 30
0.0
 10
9.516605
 20
2.141966
 30
0.0
 10
9.699274
 20
2.316478
 30
0.0
 10
9.708037
 20
2.325463
 30
0.0
 10
9.883042
 20
2.510813
 30
0.0
 10
10.048798
 20
2.704479
 30
0.0
 10
10.049080
 20
2.704704
 30
0.0
 10
10.055088
 20
2.712091
 30
0.0
 10
10.302219
 20
3.044773
 30
0.0
 10
10.521744
 20
3.395483
 30
0.0
 10
10.712828
 20
3.762470
 30
0.0
 10
10.874636
 20
4.143983
 30
0.0
 10
10.874636
 20
4.488713
 30
0.0
 10
10.874636
 20
4.489263
 30
0.0
 10
10.875229
 20
4.674967
 30
0.0
 10
10.199603
 20
4.674967
 30
0.0
 10
10.150959
 20
4.684807
 30
0.0
 10
10.111239
 20
4.711603
 30
0.0
 10
10.084461
 20
4.751334
 30
0.0
 10
10.074644
 20
4.799983
 30
0.0
 10
10.074644
 20
7.199974
 30
0.0
 10
10.084477
 20
7.248605
 30
0.0
 10
10.111259
 20
7.288319
 30
0.0
 10
10.150972
 20
7.315101
 30
0.0
 10
10.199603
 20
7.324935
 30
0.0
 10
10.874622
 20
7.324935
 30
0.0
 10
10.874622
 20
7.851676
 30
0.0
 10
10.763331
 20
8.121937
 30
0.0
 10
10.761609
 20
8.125134
 30
0.0
 10
10.743804
 20
8.164215
 30
0.0
 10
10.743409
 20
8.165152
 30
0.0
 10
10.621094
 20
8.425987
 30
0.0
 10
10.618723
 20
8.430121
 30
0.0
 10
10.615525
 20
8.435413
 30
0.0
 10
10.564429
 20
8.525922
 30
0.0
 10
10.563103
 20
8.528293
 30
0.0
 10
10.355901
 20
8.875173
 30
0.0
 10
10.354348
 20
8.877323
 30
0.0
 10
10.354010
 20
8.877710
 30
0.0
 10
10.346624
 20
8.887797
 30
0.0
 10
10.314818
 20
8.934981
 30
0.0
 10
10.184626
 20
9.118529
 30
0.0
 10
10.046653
 20
9.296303
 30
0.0
 10
10.027910
 20
9.317359
 30
0.0
 10
10.023942
 20
9.322044
 30
0.0
 10
9.993736
 20
9.358314
 30
0.0
 10
9.771661
 20
9.605547
 30
0.0
 10
9.535044
 20
9.837433
 30
0.0
 10
9.284706
 20
10.053410
 30
0.0
 10
9.021469
 20
10.252916
 30
0.0
 10
8.746154
 20
10.435389
 30
0.0
 10
8.459583
 20
10.600266
 30
0.0
 10
8.162577
 20
10.746984
 30
0.0
 10
7.855956
 20
10.874983
 30
0.0
 10
7.324586
 20
10.874983
 30
0.0
 10
7.324586
 20
10.200020
 30
0.0
 10
7.314801
 20
10.151465
 30
0.0
 10
7.288116
 20
10.111779
 30
0.0
 10
7.248518
 20
10.084962
 30
0.0
 10
7.199996
 20
10.075018
 30
0.0
 10
4.800003
 20
10.075018
 30
0.0
 10
4.752161
 20
10.084533
 30
0.0
 10
4.711603
 20
10.111633
 30
0.0
 10
4.684503
 20
10.152192
 30
0.0
 10
4.674987
 20
10.200034
 30
0.0
 10
4.674987
 20
10.874997
 30
0.0
 10
4.148028
 20
10.874997
 30
0.0
 10
4.148028
 20
10.874997
 30
0.0
  0
LWPOLYLINE
  5
101
100
AcDbEntity
  8
Layer_1
 62
7
100
AcDbPolyline
 90
34
 70
0
 10
7.999974
 20
10.624965
 30
0.0
 10
8.125512
 20
10.612210
 30
0.0
 10
8.242635
 20
10.575650
 30
0.0
 10
8.348779
 20
10.517849
 30
0.0
 10
8.441377
 20
10.441372
 30
0.0
 10
8.517864
 20
10.348785
 30
0.0
 10
8.575674
 20
10.242650
 30
0.0
 10
8.612240
 20
10.125533
 30
0.0
 10
8.624998
 20
9.999998
 30
0.0
 10
8.612240
 20
9.874460
 30
0.0
 10
8.575674
 20
9.757337
 30
0.0
 10
8.517864
 20
9.651193
 30
0.0
 10
8.441377
 20
9.558595
 30
0.0
 10
8.348779
 20
9.482108
 30
0.0
 10
8.242635
 20
9.424299
 30
0.0
 10
8.125512
 20
9.387732
 30
0.0
 10
7.999974
 20
9.374975
 30
0.0
 10
7.874437
 20
9.387732
 30
0.0
 10
7.757313
 20
9.424299
 30
0.0
 10
7.651170
 20
9.482108
 30
0.0
 10
7.558571
 20
9.558595
 30
0.0
 10
7.482085
 20
9.651193
 30
0.0
 10
7.424275
 20
9.757337
 30
0.0
 10
7.387709
 20
9.874460
 30
0.0
 10
7.374951
 20
9.999998
 30
0.0
 10
7.387709
 20
10.125533
 30
0.0
 10
7.424275
 20
10.242650
 30
0.0
 10
7.482085
 20
10.348785
 30
0.0
 10
7.558571
 20
10.441372
 30
0.0
 10
7.651170
 20
10.517849
 30
0.0
 10
7.757313
 20
10.575650
 30
0.0
 10
7.874437
 20
10.612210
 30
0.0
 10
7.999974
 20
10.624965
 30
0.0
 10
7.999974
 20
10.624965
 30
0.0
  0
LWPOLYLINE
  5
102
100
AcDbEntity
  8
Layer_1
 62
7
100
AcDbPolyline
 90
32
 70
0
 10
4.068926
 20
10.095468
 30
0.0
 10
4.124267
 20
10.092012
 30
0.0
 10
4.178011
 20
10.078325
 30
0.0
 10
4.232329
 20
10.052377
 30
0.0
 10
4.279019
 20
10.016937
 30
0.0
 10
4.317353
 20
9.973622
 30
0.0
 10
4.346603
 20
9.924050
 30
0.0
 10
4.366041
 20
9.869840
 30
0.0
 10
4.374939
 20
9.812610
 30
0.0
 10
4.372570
 20
9.753978
 30
0.0
 10
4.358204
 20
9.695561
 30
0.0
 10
4.332357
 20
9.641229
 30
0.0
 10
4.297081
 20
9.594323
 30
0.0
 10
4.253965
 20
9.555635
 30
0.0
 10
4.204596
 20
9.525958
 30
0.0
 10
4.150564
 20
9.506085
 30
0.0
 10
4.093458
 20
9.496809
 30
0.0
 10
4.034866
 20
9.498923
 30
0.0
 10
3.976377
 20
9.513219
 30
0.0
 10
3.922049
 20
9.539156
 30
0.0
 10
3.875351
 20
9.574591
 30
0.0
 10
3.837011
 20
9.617904
 30
0.0
 10
3.807756
 20
9.667477
 30
0.0
 10
3.788314
 20
9.721690
 30
0.0
 10
3.779410
 20
9.778925
 30
0.0
 10
3.781774
 20
9.837562
 30
0.0
 10
3.796130
 20
9.895983
 30
0.0
 10
3.838844
 20
9.975439
 30
0.0
 10
3.901821
 20
10.037678
 30
0.0
 10
3.980138
 20
10.078941
 30
0.0
 10
4.068870
 20
10.095468
 30
0.0
 10
4.068926
 20
10.095468
 30
0.0
  0
LWPOLYLINE
  5
103
100
AcDbEntity
  8
Layer_1
 62
7
100
AcDbPolyline
 90
34
 70
0
 10
9.169323
 20
9.794284
 30
0.0
 10
9.294851
 20
9.781530
 30
0.0
 10
9.411968
 20
9.744973
 30
0.0
 10
9.518107
 20
9.687178
 30
0.0
 10
9.610703
 20
9.610709
 30
0.0
 10
9.687191
 20
9.518129
 30
0.0
 10
9.745004
 20
9.412004
 30
0.0
 10
9.781578
 20
9.294896
 30
0.0
 10
9.794346
 20
9.169371
 30
0.0
 10
9.781589
 20
9.043834
 30
0.0
 10
9.745022
 20
8.926710
 30
0.0
 10
9.687212
 20
8.820567
 30
0.0
 10
9.610726
 20
8.727969
 30
0.0
 10
9.518127
 20
8.651482
 30
0.0
 10
9.411984
 20
8.593672
 30
0.0
 10
9.294860
 20
8.557106
 30
0.0
 10
9.169323
 20
8.544348
 30
0.0
 10
9.043785
 20
8.557106
 30
0.0
 10
8.926662
 20
8.593672
 30
0.0
 10
8.820518
 20
8.651482
 30
0.0
 10
8.727920
 20
8.727969
 30
0.0
 10
8.651433
 20
8.820567
 30
0.0
 10
8.593623
 20
8.926710
 30
0.0
 10
8.557057
 20
9.043834
 30
0.0
 10
8.544299
 20
9.169371
 30
0.0
 10
8.557059
 20
9.294896
 30
0.0
 10
8.593629
 20
9.412004
 30
0.0
 10
8.651442
 20
9.518129
 30
0.0
 10
8.727931
 20
9.610709
 30
0.0
 10
8.820531
 20
9.687178
 30
0.0
 10
8.926673
 20
9.744973
 30
0.0
 10
9.043793
 20
9.781530
 30
0.0
 10
9.169323
 20
9.794284
 30
0.0
 10
9.169323
 20
9.794284
 30
0.0
  0
LWPOLYLINE
  5
104
100
AcDbEntity
  8
Layer_1
 62
7
100
AcDbPolyline
 90
114
 70
0
 10
6.000001
 20
9.624951
 30
0.0
 10
6.216172
 20
9.618405
 30
0.0
 10
6.428958
 20
9.599162
 30
0.0
 10
6.638064
 20
9.567816
 30
0.0
 10
6.843193
 20
9.524960
 30
0.0
 10
7.171333
 20
9.524960
 30
0.0
 10
7.212123
 20
9.518125
 30
0.0
 10
7.412300
 20
9.442518
 30
0.0
 10
7.606683
 20
9.356085
 30
0.0
 10
7.794912
 20
9.259184
 30
0.0
 10
7.976628
 20
9.152177
 30
0.0
 10
8.151470
 20
9.035423
 30
0.0
 10
8.319079
 20
8.909281
 30
0.0
 10
8.479094
 20
8.774113
 30
0.0
 10
8.631157
 20
8.630276
 30
0.0
 10
8.774907
 20
8.478132
 30
0.0
 10
8.909985
 20
8.318041
 30
0.0
 10
9.036031
 20
8.150361
 30
0.0
 10
9.152685
 20
7.975453
 30
0.0
 10
9.259587
 20
7.793677
 30
0.0
 10
9.356378
 20
7.605393
 30
0.0
 10
9.442697
 20
7.410960
 30
0.0
 10
9.518186
 20
7.210738
 30
0.0
 10
9.525021
 20
7.170003
 30
0.0
 10
9.525021
 20
6.842857
 30
0.0
 10
9.567859
 20
6.637803
 30
0.0
 10
9.599207
 20
6.428783
 30
0.0
 10
9.618461
 20
6.216083
 30
0.0
 10
9.625013
 20
5.999994
 30
0.0
 10
9.618461
 20
5.783894
 30
0.0
 10
9.599208
 20
5.571178
 30
0.0
 10
9.567860
 20
5.362141
 30
0.0
 10
9.525021
 20
5.157075
 30
0.0
 10
9.525021
 20
4.828771
 30
0.0
 10
9.518186
 20
4.787982
 30
0.0
 10
9.442581
 20
4.587794
 30
0.0
 10
9.356148
 20
4.393401
 30
0.0
 10
9.259246
 20
4.205162
 30
0.0
 10
9.152235
 20
4.023437
 30
0.0
 10
9.035476
 20
3.848586
 30
0.0
 10
8.909328
 20
3.680968
 30
0.0
 10
8.774152
 20
3.520945
 30
0.0
 10
8.630307
 20
3.368874
 30
0.0
 10
8.478153
 20
3.225117
 30
0.0
 10
8.318052
 20
3.090033
 30
0.0
 10
8.150362
 20
2.963981
 30
0.0
 10
7.975444
 20
2.847322
 30
0.0
 10
7.793657
 20
2.740415
 30
0.0
 10
7.605363
 20
2.643620
 30
0.0
 10
7.410920
 20
2.557298
 30
0.0
 10
7.210689
 20
2.481807
 30
0.0
 10
7.169953
 20
2.474972
 30
0.0
 10
6.842920
 20
2.474972
 30
0.0
 10
6.637854
 20
2.432134
 30
0.0
 10
6.428816
 20
2.400786
 30
0.0
 10
6.216100
 20
2.381534
 30
0.0
 10
6.000001
 20
2.374982
 30
0.0
 10
5.783909
 20
2.381534
 30
0.0
 10
5.571213
 20
2.400786
 30
0.0
 10
5.362194
 20
2.432134
 30
0.0
 10
5.157136
 20
2.474972
 30
0.0
 10
4.828779
 20
2.474972
 30
0.0
 10
4.787989
 20
2.481807
 30
0.0
 10
4.587806
 20
2.557407
 30
0.0
 10
4.393417
 20
2.643835
 30
0.0
 10
4.205181
 20
2.740732
 30
0.0
 10
4.023459
 20
2.847736
 30
0.0
 10
3.848610
 20
2.964489
 30
0.0
 10
3.680995
 20
3.090631
 30
0.0
 10
3.520972
 20
3.225800
 30
0.0
 10
3.368902
 20
3.369638
 30
0.0
 10
3.225144
 20
3.521784
 30
0.0
 10
3.090059
 20
3.681878
 30
0.0
 10
2.964006
 20
3.849561
 30
0.0
 10
2.847344
 20
4.024471
 30
0.0
 10
2.740435
 20
4.206250
 30
0.0
 10
2.643636
 20
4.394536
 30
0.0
 10
2.557309
 20
4.588971
 30
0.0
 10
2.481813
 20
4.789194
 30
0.0
 10
2.474978
 20
4.829929
 30
0.0
 10
2.474978
 20
5.157075
 30
0.0
 10
2.432142
 20
5.362143
 30
0.0
 10
2.400796
 20
5.571181
 30
0.0
 10
2.381545
 20
5.783896
 30
0.0
 10
2.374989
 20
5.999994
 30
0.0
 10
2.381547
 20
6.216080
 30
0.0
 10
2.400799
 20
6.428780
 30
0.0
 10
2.432144
 20
6.637802
 30
0.0
 10
2.474978
 20
6.842857
 30
0.0
 10
2.474978
 20
7.171381
 30
0.0
 10
2.481870
 20
7.212171
 30
0.0
 10
2.557472
 20
7.412338
 30
0.0
 10
2.643900
 20
7.606711
 30
0.0
 10
2.740794
 20
7.794931
 30
0.0
 10
2.847793
 20
7.976639
 30
0.0
 10
2.964539
 20
8.151473
 30
0.0
 10
3.090671
 20
8.319076
 30
0.0
 10
3.225830
 20
8.479086
 30
0.0
 10
3.369656
 20
8.631144
 30
0.0
 10
3.521789
 20
8.774891
 30
0.0
 10
3.681869
 20
8.909967
 30
0.0
 10
3.849536
 20
9.036012
 30
0.0
 10
4.024431
 20
9.152666
 30
0.0
 10
4.206193
 20
9.259569
 30
0.0
 10
4.394464
 20
9.356363
 30
0.0
 10
4.588883
 20
9.442686
 30
0.0
 10
4.789090
 20
9.518180
 30
0.0
 10
4.829826
 20
9.524960
 30
0.0
 10
5.156862
 20
9.524960
 30
0.0
 10
5.361983
 20
9.567816
 30
0.0
 10
5.571070
 20
9.599162
 30
0.0
 10
5.783837
 20
9.618404
 30
0.0
 10
6.000001
 20
9.624951
 30
0.0
 10
6.000001
 20
9.624951
 30
0.0
  0
LWPOLYLINE
  5
105
100
AcDbEntity
  8
Layer_1
 62
7
100
AcDbPolyline
 90
34
 70
0
 10
2.913966
 20
9.229454
 30
0.0
 10
2.973869
 20
9.223291
 30
0.0
 10
3.029774
 20
9.205614
 30
0.0
 10
3.080453
 20
9.177704
 30
0.0
 10
3.124675
 20
9.140842
 30
0.0
 10
3.161210
 20
9.096308
 30
0.0
 10
3.188828
 20
9.045383
 30
0.0
 10
3.206299
 20
8.989347
 30
0.0
 10
3.212393
 20
8.929482
 30
0.0
 10
3.206296
 20
8.869618
 30
0.0
 10
3.188823
 20
8.813577
 30
0.0
 10
3.161205
 20
8.762643
 30
0.0
 10
3.124671
 20
8.718098
 30
0.0
 10
3.080450
 20
8.681225
 30
0.0
 10
3.029773
 20
8.653305
 30
0.0
 10
2.973868
 20
8.635621
 30
0.0
 10
2.913966
 20
8.629456
 30
0.0
 10
2.854076
 20
8.635642
 30
0.0
 10
2.798182
 20
8.653337
 30
0.0
 10
2.747512
 20
8.681261
 30
0.0
 10
2.703298
 20
8.718133
 30
0.0
 10
2.666769
 20
8.762672
 30
0.0
 10
2.639155
 20
8.813597
 30
0.0
 10
2.621686
 20
8.869627
 30
0.0
 10
2.615592
 20
8.929482
 30
0.0
 10
2.621686
 20
8.989335
 30
0.0
 10
2.639155
 20
9.045359
 30
0.0
 10
2.666769
 20
9.096275
 30
0.0
 10
2.703298
 20
9.140804
 30
0.0
 10
2.747512
 20
9.177666
 30
0.0
 10
2.798182
 20
9.205581
 30
0.0
 10
2.854076
 20
9.223270
 30
0.0
 10
2.913966
 20
9.229454
 30
0.0
 10
2.913966
 20
9.229454
 30
0.0
  0
LWPOLYLINE
  5
106
100
AcDbEntity
  8
Layer_1
 62
7
100
AcDbPolyline
 90
34
 70
0
 10
1.999995
 20
8.624991
 30
0.0
 10
2.125533
 20
8.612236
 30
0.0
 10
2.242657
 20
8.575675
 30
0.0
 10
2.348801
 20
8.517875
 30
0.0
 10
2.441399
 20
8.441398
 30
0.0
 10
2.517885
 20
8.348810
 30
0.0
 10
2.575695
 20
8.242675
 30
0.0
 10
2.612261
 20
8.125558
 30
0.0
 10
2.625018
 20
8.000023
 30
0.0
 10
2.612261
 20
7.874486
 30
0.0
 10
2.575695
 20
7.757362
 30
0.0
 10
2.517885
 20
7.651219
 30
0.0
 10
2.441399
 20
7.558621
 30
0.0
 10
2.348801
 20
7.482134
 30
0.0
 10
2.242657
 20
7.424324
 30
0.0
 10
2.125533
 20
7.387758
 30
0.0
 10
1.999995
 20
7.375000
 30
0.0
 10
1.874458
 20
7.387758
 30
0.0
 10
1.757336
 20
7.424325
 30
0.0
 10
1.651192
 20
7.482135
 30
0.0
 10
1.558594
 20
7.558622
 30
0.0
 10
1.482108
 20
7.651220
 30
0.0
 10
1.424298
 20
7.757363
 30
0.0
 10
1.387732
 20
7.874486
 30
0.0
 10
1.374974
 20
8.000023
 30
0.0
 10
1.387732
 20
8.125558
 30
0.0
 10
1.424298
 20
8.242675
 30
0.0
 10
1.482108
 20
8.348809
 30
0.0
 10
1.558594
 20
8.441397
 30
0.0
 10
1.651192
 20
8.517874
 30
0.0
 10
1.757336
 20
8.575675
 30
0.0
 10
1.874458
 20
8.612235
 30
0.0
 10
1.999995
 20
8.624991
 30
0.0
 10
1.999995
 20
8.624991
 30
0.0
  0
LWPOLYLINE
  5
107
100
AcDbEntity
  8
Layer_1
 62
7
100
AcDbPolyline
 90
34
 70
0
 10
10.000004
 20
8.624991
 30
0.0
 10
10.125542
 20
8.612236
 30
0.0
 10
10.242665
 20
8.575675
 30
0.0
 10
10.348809
 20
8.517875
 30
0.0
 10
10.441407
 20
8.441398
 30
0.0
 10
10.517894
 20
8.348810
 30
0.0
 10
10.575704
 20
8.242675
 30
0.0
 10
10.612270
 20
8.125558
 30
0.0
 10
10.625028
 20
8.000023
 30
0.0
 10
10.612270
 20
7.874486
 30
0.0
 10
10.575704
 20
7.757362
 30
0.0
 10
10.517894
 20
7.651219
 30
0.0
 10
10.441407
 20
7.558621
 30
0.0
 10
10.348809
 20
7.482134
 30
0.0
 10
10.242665
 20
7.424324
 30
0.0
 10
10.125542
 20
7.387758
 30
0.0
 10
10.000004
 20
7.375000
 30
0.0
 10
9.874467
 20
7.387758
 30
0.0
 10
9.757343
 20
7.424324
 30
0.0
 10
9.651200
 20
7.482134
 30
0.0
 10
9.558601
 20
7.558621
 30
0.0
 10
9.482115
 20
7.651219
 30
0.0
 10
9.424305
 20
7.757362
 30
0.0
 10
9.387738
 20
7.874486
 30
0.0
 10
9.374981
 20
8.000023
 30
0.0
 10
9.387738
 20
8.125558
 30
0.0
 10
9.424305
 20
8.242675
 30
0.0
 10
9.482115
 20
8.348810
 30
0.0
 10
9.558601
 20
8.441398
 30
0.0
 10
9.651200
 20
8.517875
 30
0.0
 10
9.757343
 20
8.575675
 30
0.0
 10
9.874467
 20
8.612236
 30
0.0
 10
10.000004
 20
8.624991
 30
0.0
 10
10.000004
 20
8.624991
 30
0.0
  0
LWPOLYLINE
  5
108
100
AcDbEntity
  8
Layer_1
 62
7
100
AcDbPolyline
 90
34
 70
0
 10
1.999995
 20
4.624987
 30
0.0
 10
2.125533
 20
4.612232
 30
0.0
 10
2.242657
 20
4.575671
 30
0.0
 10
2.348801
 20
4.517871
 30
0.0
 10
2.441399
 20
4.441394
 30
0.0
 10
2.517885
 20
4.348806
 30
0.0
 10
2.575695
 20
4.242671
 30
0.0
 10
2.612261
 20
4.125554
 30
0.0
 10
2.625018
 20
4.000019
 30
0.0
 10
2.612261
 20
3.874482
 30
0.0
 10
2.575695
 20
3.757358
 30
0.0
 10
2.517885
 20
3.651215
 30
0.0
 10
2.441399
 20
3.558617
 30
0.0
 10
2.348801
 20
3.482130
 30
0.0
 10
2.242657
 20
3.424320
 30
0.0
 10
2.125533
 20
3.387754
 30
0.0
 10
1.999995
 20
3.374996
 30
0.0
 10
1.874458
 20
3.387755
 30
0.0
 10
1.757336
 20
3.424321
 30
0.0
 10
1.651192
 20
3.482131
 30
0.0
 10
1.558594
 20
3.558618
 30
0.0
 10
1.482108
 20
3.651216
 30
0.0
 10
1.424298
 20
3.757359
 30
0.0
 10
1.387732
 20
3.874482
 30
0.0
 10
1.374974
 20
4.000019
 30
0.0
 10
1.387732
 20
4.125554
 30
0.0
 10
1.424298
 20
4.242671
 30
0.0
 10
1.482108
 20
4.348805
 30
0.0
 10
1.558594
 20
4.441393
 30
0.0
 10
1.651192
 20
4.517870
 30
0.0
 10
1.757336
 20
4.575671
 30
0.0
 10
1.874458
 20
4.612231
 30
0.0
 10
1.999995
 20
4.624987
 30
0.0
 10
1.999995
 20
4.624987
 30
0.0
  0
LWPOLYLINE
  5
109
100
AcDbEntity
  8
Layer_1
 62
7
100
AcDbPolyline
 90
34
 70
0
 10
10.000004
 20
4.624987
 30
0.0
 10
10.125542
 20
4.612232
 30
0.0
 10
10.242665
 20
4.575671
 30
0.0
 10
10.348809
 20
4.517871
 30
0.0
 10
10.441407
 20
4.441394
 30
0.0
 10
10.517894
 20
4.348806
 30
0.0
 10
10.575704
 20
4.242671
 30
0.0
 10
10.612270
 20
4.125554
 30
0.0
 10
10.625028
 20
4.000019
 30
0.0
 10
10.612270
 20
3.874482
 30
0.0
 10
10.575704
 20
3.757358
 30
0.0
 10
10.517894
 20
3.651215
 30
0.0
 10
10.441407
 20
3.558617
 30
0.0
 10
10.348809
 20
3.482130
 30
0.0
 10
10.242665
 20
3.424320
 30
0.0
 10
10.125542
 20
3.387754
 30
0.0
 10
10.000004
 20
3.374996
 30
0.0
 10
9.874467
 20
3.387754
 30
0.0
 10
9.757343
 20
3.424320
 30
0.0
 10
9.651200
 20
3.482130
 30
0.0
 10
9.558601
 20
3.558617
 30
0.0
 10
9.482115
 20
3.651215
 30
0.0
 10
9.424305
 20
3.757358
 30
0.0
 10
9.387738
 20
3.874482
 30
0.0
 10
9.374981
 20
4.000019
 30
0.0
 10
9.387738
 20
4.125554
 30
0.0
 10
9.424305
 20
4.242671
 30
0.0
 10
9.482115
 20
4.348806
 30
0.0
 10
9.558601
 20
4.441394
 30
0.0
 10
9.651200
 20
4.517871
 30
0.0
 10
9.757343
 20
4.575672
 30
0.0
 10
9.874467
 20
4.612232
 30
0.0
 10
10.000004
 20
4.624987
 30
0.0
 10
10.000004
 20
4.624987
 30
0.0
  0
LWPOLYLINE
  5
10a
100
AcDbEntity
  8
Layer_1
 62
7
100
AcDbPolyline
 90
34
 70
0
 10
2.830676
 20
3.455639
 30
0.0
 10
2.956204
 20
3.442873
 30
0.0
 10
3.073318
 20
3.406306
 30
0.0
 10
3.179453
 20
3.348501
 30
0.0
 10
3.272043
 20
3.272024
 30
0.0
 10
3.348523
 20
3.179438
 30
0.0
 10
3.406327
 20
3.073308
 30
0.0
 10
3.442890
 20
2.956197
 30
0.0
 10
3.455646
 20
2.830671
 30
0.0
 10
3.442890
 20
2.705142
 30
0.0
 10
3.406327
 20
2.588026
 30
0.0
 10
3.348523
 20
2.481887
 30
0.0
 10
3.272043
 20
2.389291
 30
0.0
 10
3.179453
 20
2.312803
 30
0.0
 10
3.073318
 20
2.254990
 30
0.0
 10
2.956204
 20
2.218417
 30
0.0
 10
2.830676
 20
2.205648
 30
0.0
 10
2.705139
 20
2.218406
 30
0.0
 10
2.588016
 20
2.254972
 30
0.0
 10
2.481873
 20
2.312782
 30
0.0
 10
2.389275
 20
2.389269
 30
0.0
 10
2.312789
 20
2.481867
 30
0.0
 10
2.254980
 20
2.588010
 30
0.0
 10
2.218413
 20
2.705134
 30
0.0
 10
2.205656
 20
2.830671
 30
0.0
 10
2.218413
 20
2.956206
 30
0.0
 10
2.254980
 20
3.073323
 30
0.0
 10
2.312789
 20
3.179458
 30
0.0
 10
2.389275
 20
3.272046
 30
0.0
 10
2.481873
 20
3.348523
 30
0.0
 10
2.588016
 20
3.406323
 30
0.0
 10
2.705139
 20
3.442884
 30
0.0
 10
2.830676
 20
3.455639
 30
0.0
 10
2.830676
 20
3.455639
 30
0.0
  0
LWPOLYLINE
  5
10b
100
AcDbEntity
  8
Layer_1
 62
7
100
AcDbPolyline
 90
34
 70
0
 10
9.169323
 20
3.455639
 30
0.0
 10
9.294860
 20
3.442884
 30
0.0
 10
9.411984
 20
3.406323
 30
0.0
 10
9.518127
 20
3.348523
 30
0.0
 10
9.610726
 20
3.272046
 30
0.0
 10
9.687212
 20
3.179458
 30
0.0
 10
9.745022
 20
3.073323
 30
0.0
 10
9.781589
 20
2.956206
 30
0.0
 10
9.794346
 20
2.830671
 30
0.0
 10
9.781589
 20
2.705134
 30
0.0
 10
9.745022
 20
2.588010
 30
0.0
 10
9.687212
 20
2.481867
 30
0.0
 10
9.610726
 20
2.389269
 30
0.0
 10
9.518127
 20
2.312782
 30
0.0
 10
9.411984
 20
2.254972
 30
0.0
 10
9.294860
 20
2.218406
 30
0.0
 10
9.169323
 20
2.205648
 30
0.0
 10
9.043785
 20
2.218406
 30
0.0
 10
8.926662
 20
2.254972
 30
0.0
 10
8.820518
 20
2.312782
 30
0.0
 10
8.727920
 20
2.389269
 30
0.0
 10
8.651433
 20
2.481867
 30
0.0
 10
8.593623
 20
2.588010
 30
0.0
 10
8.557057
 20
2.705134
 30
0.0
 10
8.544299
 20
2.830671
 30
0.0
 10
8.557057
 20
2.956206
 30
0.0
 10
8.593623
 20
3.073323
 30
0.0
 10
8.651433
 20
3.179458
 30
0.0
 10
8.727920
 20
3.272046
 30
0.0
 10
8.820518
 20
3.348523
 30
0.0
 10
8.926662
 20
3.406323
 30
0.0
 10
9.043785
 20
3.442884
 30
0.0
 10
9.169323
 20
3.455639
 30
0.0
 10
9.169323
 20
3.455639
 30
0.0
  0
LWPOLYLINE
  5
10c
100
AcDbEntity
  8
Layer_1
 62
7
100
AcDbPolyline
 90
34
 70
0
 10
3.999971
 20
2.624958
 30
0.0
 10
4.125508
 20
2.612202
 30
0.0
 10
4.242632
 20
2.575642
 30
0.0
 10
4.348775
 20
2.517841
 30
0.0
 10
4.441373
 20
2.441365
 30
0.0
 10
4.517860
 20
2.348777
 30
0.0
 10
4.575669
 20
2.242642
 30
0.0
 10
4.612236
 20
2.125525
 30
0.0
 10
4.624995
 20
1.999990
 30
0.0
 10
4.612234
 20
1.874462
 30
0.0
 10
4.575664
 20
1.757349
 30
0.0
 10
4.517852
 20
1.651214
 30
0.0
 10
4.441362
 20
1.558625
 30
0.0
 10
4.348763
 20
1.482145
 30
0.0
 10
4.242621
 20
1.424341
 30
0.0
 10
4.125501
 20
1.387778
 30
0.0
 10
3.999971
 20
1.375022
 30
0.0
 10
3.874442
 20
1.387778
 30
0.0
 10
3.757326
 20
1.424341
 30
0.0
 10
3.651186
 20
1.482145
 30
0.0
 10
3.558590
 20
1.558625
 30
0.0
 10
3.482103
 20
1.651214
 30
0.0
 10
3.424290
 20
1.757349
 30
0.0
 10
3.387716
 20
1.874462
 30
0.0
 10
3.374948
 20
1.999990
 30
0.0
 10
3.387705
 20
2.125525
 30
0.0
 10
3.424272
 20
2.242642
 30
0.0
 10
3.482081
 20
2.348777
 30
0.0
 10
3.558568
 20
2.441365
 30
0.0
 10
3.651166
 20
2.517841
 30
0.0
 10
3.757310
 20
2.575642
 30
0.0
 10
3.874434
 20
2.612202
 30
0.0
 10
3.999971
 20
2.624958
 30
0.0
 10
3.999971
 20
2.624958
 30
0.0
  0
LWPOLYLINE
  5
10d
100
AcDbEntity
  8
Layer_1
 62
7
100
AcDbPolyline
 90
34
 70
0
 10
7.999974
 20
2.624958
 30
0.0
 10
8.125512
 20
2.612202
 30
0.0
 10
8.242635
 20
2.575642
 30
0.0
 10
8.348779
 20
2.517841
 30
0.0
 10
8.441377
 20
2.441365
 30
0.0
 10
8.517864
 20
2.348777
 30
0.0
 10
8.575674
 20
2.242642
 30
0.0
 10
8.612240
 20
2.125525
 30
0.0
 10
8.624998
 20
1.999990
 30
0.0
 10
8.612238
 20
1.874462
 30
0.0
 10
8.575668
 20
1.757349
 30
0.0
 10
8.517855
 20
1.651214
 30
0.0
 10
8.441366
 20
1.558625
 30
0.0
 10
8.348767
 20
1.482145
 30
0.0
 10
8.242624
 20
1.424341
 30
0.0
 10
8.125504
 20
1.387778
 30
0.0
 10
7.999974
 20
1.375022
 30
0.0
 10
7.874446
 20
1.387778
 30
0.0
 10
7.757329
 20
1.424341
 30
0.0
 10
7.651190
 20
1.482145
 30
0.0
 10
7.558594
 20
1.558625
 30
0.0
 10
7.482106
 20
1.651214
 30
0.0
 10
7.424293
 20
1.757349
 30
0.0
 10
7.387719
 20
1.874462
 30
0.0
 10
7.374951
 20
1.999990
 30
0.0
 10
7.387709
 20
2.125525
 30
0.0
 10
7.424275
 20
2.242642
 30
0.0
 10
7.482085
 20
2.348777
 30
0.0
 10
7.558571
 20
2.441365
 30
0.0
 10
7.651170
 20
2.517841
 30
0.0
 10
7.757313
 20
2.575642
 30
0.0
 10
7.874437
 20
2.612202
 30
0.0
 10
7.999974
 20
2.624958
 30
0.0
 10
7.999974
 20
2.624958
 30
0.0
  0
LWPOLYLINE
  5
10e
100
AcDbEntity
  8
Layer_1
 62
7
100
AcDbPolyline
 90
8
 70
1
 10
0.000000
 20
12.000011
 30
0.0
 10
0.000000
 20
10.999996
 30
0.0
 10
0.028332
 20
10.999996
 30
0.0
 10
0.028332
 20
11.971623
 30
0.0
 10
1.000015
 20
11.971623
 30
0.0
 10
1.000015
 20
12.000011
 30
0.0
 10
0.000000
 20
12.000011
 30
0.0
 10
0.000000
 20
12.000011
 30
0.0
  0
LWPOLYLINE
  5
10f
100
AcDbEntity
  8
Layer_1
 62
7
100
AcDbPolyline
 90
9
 70
1
 10
10.999997
 20
12.000011
 30
0.0
 10
10.999997
 20
11.971623
 30
0.0
 10
11.971680
 20
11.971623
 30
0.0
 10
11.971680
 20
10.999996
 30
0.0
 10
12.000012
 20
10.999996
 30
0.0
 10
12.000012
 20
11.985790
 30
0.0
 10
12.000012
 20
12.000011
 30
0.0
 10
10.999997
 20
12.000011
 30
0.0
 10
10.999997
 20
12.000011
 30
0.0
  0
LWPOLYLINE
  5
110
100
AcDbEntity
  8
Layer_1
 62
7
100
AcDbPolyline
 90
8
 70
1
 10
0.000056
 20
0.799978
 30
0.0
 10
0.000056
 20
-0.000000
 30
0.0
 10
1.000071
 20
-0.000000
 30
0.0
 10
1.000071
 20
0.028332
 30
0.0
 10
0.028389
 20
0.028332
 30
0.0
 10
0.028389
 20
0.799978
 30
0.0
 10
0.000056
 20
0.799978
 30
0.0
 10
0.000056
 20
0.799978
 30
0.0
  0
LWPOLYLINE
  5
111
100
AcDbEntity
  8
Layer_1
 62
7
100
AcDbPolyline
 90
8
 70
1
 10
11.971680
 20
0.799978
 30
0.0
 10
11.971680
 20
0.028332
 30
0.0
 10
10.999997
 20
0.028332
 30
0.0
 10
10.999997
 20
-0.000000
 30
0.0
 10
12.000012
 20
-0.000000
 30
0.0
 10
12.000012
 20
0.799978
 30
0.0
 10
11.971680
 20
0.799978
 30
0.0
 10
11.971680
 20
0.799978
 30
0.0
  0
ENDSEC
  0
SECTION
  2
OBJECTS
  0
DICTIONARY
  5
C
330
0
100
AcDbDictionary
  3
ACAD_GROUP
350
D
  3
ACAD_MLINESTYLE
350
17
  0
DICTIONARY
  5
D
330
C
100
AcDbDictionary
  0
DICTIONARY
  5
1A
330
C
100
AcDbDictionary
  0
DICTIONARY
  5
17
330
C
100
AcDbDictionary
  3
STANDARD
350
18
  0
DICTIONARY
  5
19
330
C
100
AcDbDictionary
  0
ENDSEC
  0
EOF
