  0
SECTION
  2
HEADER
  9
$ACADVER
  1
AC1014
  9
$HANDSEED
  5
FFFF
  9
$MEASUREMENT
 70
     1
  0
ENDSEC
  0
SECTION
  2
TABLES
  0
TABLE
  2
VPORT
  5
8
330
0
100
AcDbSymbolTable
 70
     4
  0
VPORT
  5
2E
330
8
100
AcDbSymbolTableRecord
100
AcDbViewportTableRecord
  2
*ACTIVE
 70
     0
 10
0.0
 20
0.0
 11
1.0
 21
1.0
 12
210.0
 22
148.5
 13
0.0
 23
0.0
 14
10.0
 24
10.0
 15
10.0
 25
10.0
 16
0.0
 26
0.0
 36
1.0
 17
0.0
 27
0.0
 37
0.0
 40
341.0
 41
1.24
 42
50.0
 43
0.0
 44
0.0
 50
0.0
 51
0.0
 71
     0
 72
   100
 73
     1
 74
     3
 75
     0
 76
     0
 77
     0
 78
     0
  0
ENDTAB
  0
TABLE
  2
LTYPE
  5
5
330
0
100
AcDbSymbolTable
 70
     1
  0
LTYPE
  5
14
330
5
100
AcDbSymbolTableRecord
100
AcDbLinetypeTableRecord
  2
BYBLOCK
 70
     0
  3

 72
    65
 73
     0
 40
0.0
  0
LTYPE
  5
15
330
5
100
AcDbSymbolTableRecord
100
AcDbLinetypeTableRecord
  2
BYLAYER
 70
     0
  3

 72
    65
 73
     0
 40
0.0
  0
LTYPE
  5
16
330
5
100
AcDbSymbolTableRecord
100
AcDbLinetypeTableRecord
  2
CONTINUOUS
 70
     0
  3
Solid line
 72
    65
 73
     0
 40
0.0
  0
ENDTAB
  0
TABLE
  2
LAYER
  5
2
100
AcDbSymbolTable
 70
2
  0
LAYER
  5
50
100
AcDbSymbolTableRecord
100
AcDbLayerTableRecord
  2
0
 70
0
  6
CONTINUOUS
  0
LAYER
  5
51
100
AcDbSymbolTableRecord
100
AcDbLayerTableRecord
  2
Layer_1
 70
0
  6
CONTINUOUS
  0
ENDTAB
  0
TABLE
  2
STYLE
  5
3
330
0
100
AcDbSymbolTable
 70
     1
  0
STYLE
  5
11
330
3
100
AcDbSymbolTableRecord
100
AcDbTextStyleTableRecord
  2
STANDARD
 70
     0
 40
0.0
 41
1.0
 50
0.0
 71
     0
 42
2.5
  3
txt
  4

  0
ENDTAB
  0
TABLE
  2
VIEW
  5
6
330
0
100
AcDbSymbolTable
 70
     0
  0
ENDTAB
  0
TABLE
  2
UCS
  5
7
330
0
100
AcDbSymbolTable
 70
     0
  0
ENDTAB
  0
TABLE
  2
APPID
  5
9
330
0
100
AcDbSymbolTable
 70
     2
  0
APPID
  5
12
330
9
100
AcDbSymbolTableRecord
100
AcDbRegAppTableRecord
  2
ACAD
 70
     0
  0
ENDTAB
  0
TABLE
  2
DIMSTYLE
  5
A
330
0
100
AcDbSymbolTable
 70
     1
  0
DIMSTYLE
105
27
330
A
100
AcDbSymbolTableRecord
100
AcDbDimStyleTableRecord
  2
ISO-25
 70
     0
  3

  4

  5

  6

  7

 40
1.0
 41
2.5
 42
0.625
 43
3.75
 44
1.25
 45
0.0
 46
0.0
 47
0.0
 48
0.0
140
2.5
141
2.5
142
0.0
143
0.03937007874016
144
1.0
145
0.0
146
1.0
147
0.625
 71
     0
 72
     0
 73
     0
 74
     0
 75
     0
 76
     0
 77
     1
 78
     8
170
     0
171
     3
172
     1
173
     0
174
     0
175
     0
176
     0
177
     0
178
     0
270
     2
271
     2
272
     2
273
     2
274
     3
340
11
275
     0
280
     0
281
     0
282
     0
283
     0
284
     8
285
     0
286
     0
287
     3
288
     0
  0
ENDTAB
  0
TABLE
  2
BLOCK_RECORD
  5
1
330
0
100
AcDbSymbolTable
 70
     1
  0
BLOCK_RECORD
  5
1F
330
1
100
AcDbSymbolTableRecord
100
AcDbBlockTableRecord
  2
*MODEL_SPACE
  0
BLOCK_RECORD
  5
1B
330
1
100
AcDbSymbolTableRecord
100
AcDbBlockTableRecord
  2
*PAPER_SPACE
  0
ENDTAB
  0
ENDSEC
  0
SECTION
  2
BLOCKS
  0
BLOCK
  5
20
330
1F
100
AcDbEntity
  8
0
100
AcDbBlockBegin
  2
*MODEL_SPACE
 70
     0
 10
0.0
 20
0.0
 30
0.0
  3
*MODEL_SPACE
  1

  0
ENDBLK
  5
21
330
1F
100
AcDbEntity
  8
0
100
AcDbBlockEnd
  0
BLOCK
  5
1C
330
1B
100
AcDbEntity
 67
     1
  8
0
100
AcDbBlockBegin
  2
*PAPER_SPACE
  1

  0
ENDBLK
  5
1D
330
1B
100
AcDbEntity
 67
     1
  8
0
100
AcDbBlockEnd
  0
ENDSEC
  0
SECTION
  2
ENTITIES
  0
LWPOLYLINE
  5
100
100
AcDbEntity
  8
Layer_1
 62
7
100
AcDbPolyline
 90
419
 70
0
 10
5.884838
 20
11.212982
 30
0.0
 10
5.888696
 20
11.211051
 30
0.0
 10
5.999764
 20
11.212485
 30
0.0
 10
6.122080
 20
11.210941
 30
0.0
 10
6.122362
 20
11.212815
 30
0.0
 10
6.125890
 20
11.210885
 30
0.0
 10
6.359327
 20
11.199916
 30
0.0
 10
6.359609
 20
11.201846
 30
0.0
 10
6.363191
 20
11.199642
 30
0.0
 10
6.595694
 20
11.178310
 30
0.0
 10
6.595976
 20
11.180074
 30
0.0
 10
6.599171
 20
11.177923
 30
0.0
 10
6.830793
 20
11.146173
 30
0.0
 10
6.831132
 20
11.147550
 30
0.0
 10
6.833616
 20
11.145676
 30
0.0
 10
7.064298
 20
11.103288
 30
0.0
 10
7.064580
 20
11.104391
 30
0.0
 10
7.066443
 20
11.102848
 30
0.0
 10
7.295472
 20
11.049766
 30
0.0
 10
7.295754
 20
11.050646
 30
0.0
 10
7.297194
 20
11.049323
 30
0.0
 10
7.523909
 20
10.985437
 30
0.0
 10
7.524304
 20
10.986430
 30
0.0
 10
7.525912
 20
10.984833
 30
0.0
 10
7.749210
 20
10.910750
 30
0.0
 10
7.749718
 20
10.911907
 30
0.0
 10
7.751580
 20
10.909923
 30
0.0
 10
7.970796
 20
10.825807
 30
0.0
 10
7.971473
 20
10.827185
 30
0.0
 10
7.973562
 20
10.824704
 30
0.0
 10
8.188370
 20
10.730942
 30
0.0
 10
8.189132
 20
10.732429
 30
0.0
 10
8.191389
 20
10.729508
 30
0.0
 10
8.401236
 20
10.626266
 30
0.0
 10
8.402223
 20
10.627919
 30
0.0
 10
8.404651
 20
10.624447
 30
0.0
 10
8.609262
 20
10.511999
 30
0.0
 10
8.610419
 20
10.513763
 30
0.0
 10
8.612959
 20
10.509794
 30
0.0
 10
8.811781
 20
10.388416
 30
0.0
 10
8.813105
 20
10.390237
 30
0.0
 10
8.815585
 20
10.385937
 30
0.0
 10
9.008401
 20
10.255630
 30
0.0
 10
9.010055
 20
10.257670
 30
0.0
 10
9.012589
 20
10.252709
 30
0.0
 10
9.198789
 20
10.113968
 30
0.0
 10
9.200720
 20
10.116229
 30
0.0
 10
9.203364
 20
10.110441
 30
0.0
 10
9.382509
 20
9.963928
 30
0.0
 10
9.384767
 20
9.966299
 30
0.0
 10
9.387420
 20
9.959795
 30
0.0
 10
9.559234
 20
9.805840
 30
0.0
 10
9.561718
 20
9.808211
 30
0.0
 10
9.564145
 20
9.801265
 30
0.0
 10
9.728793
 20
9.639870
 30
0.0
 10
9.731390
 20
9.642130
 30
0.0
 10
9.733535
 20
9.634965
 30
0.0
 10
9.890684
 20
9.466403
 30
0.0
 10
9.893281
 20
9.468497
 30
0.0
 10
9.895031
 20
9.461441
 30
0.0
 10
10.044521
 20
9.285824
 30
0.0
 10
10.047174
 20
9.287754
 30
0.0
 10
10.048613
 20
9.280809
 30
0.0
 10
10.190164
 20
9.098522
 30
0.0
 10
10.192592
 20
9.100120
 30
0.0
 10
10.193579
 20
9.093836
 30
0.0
 10
10.327194
 20
8.904769
 30
0.0
 10
10.329339
 20
8.906036
 30
0.0
 10
10.329960
 20
8.900634
 30
0.0
 10
10.455250
 20
8.705008
 30
0.0
 10
10.457112
 20
8.706001
 30
0.0
 10
10.457394
 20
8.701537
 30
0.0
 10
10.573868
 20
8.499516
 30
0.0
 10
10.575617
 20
8.500343
 30
0.0
 10
10.575617
 20
8.496209
 30
0.0
 10
10.682994
 20
8.288787
 30
0.0
 10
10.684603
 20
8.289447
 30
0.0
 10
10.684603
 20
8.285754
 30
0.0
 10
10.782608
 20
8.073315
 30
0.0
 10
10.784047
 20
8.073866
 30
0.0
 10
10.783765
 20
8.070559
 30
0.0
 10
10.872182
 20
7.853490
 30
0.0
 10
10.873509
 20
7.853930
 30
0.0
 10
10.873170
 20
7.850954
 30
0.0
 10
10.951605
 20
7.629916
 30
0.0
 10
10.952762
 20
7.630247
 30
0.0
 10
10.952311
 20
7.627712
 30
0.0
 10
11.020772
 20
7.402927
 30
0.0
 10
11.021816
 20
7.403153
 30
0.0
 10
11.021308
 20
7.400838
 30
0.0
 10
11.079517
 20
7.172966
 30
0.0
 10
11.080448
 20
7.173135
 30
0.0
 10
11.079940
 20
7.171151
 30
0.0
 10
11.127345
 20
6.940468
 30
0.0
 10
11.128615
 20
6.940637
 30
0.0
 10
11.127796
 20
6.938046
 30
0.0
 10
11.164454
 20
6.706150
 30
0.0
 10
11.166063
 20
6.706263
 30
0.0
 10
11.164906
 20
6.703066
 30
0.0
 10
11.191031
 20
6.470288
 30
0.0
 10
11.192894
 20
6.470344
 30
0.0
 10
11.191342
 20
6.466541
 30
0.0
 10
11.206943
 20
6.233542
 30
0.0
 10
11.208862
 20
6.233542
 30
0.0
 10
11.207056
 20
6.229684
 30
0.0
 10
11.212401
 20
5.999992
 30
0.0
 10
11.212401
 20
5.996354
 30
0.0
 10
11.214207
 20
5.996241
 30
0.0
 10
11.212345
 20
5.992658
 30
0.0
 10
11.206723
 20
5.759108
 30
0.0
 10
11.208585
 20
5.758939
 30
0.0
 10
11.206553
 20
5.755466
 30
0.0
 10
11.190402
 20
5.522357
 30
0.0
 10
11.192208
 20
5.522075
 30
0.0
 10
11.190063
 20
5.518713
 30
0.0
 10
11.163495
 20
5.286596
 30
0.0
 10
11.165160
 20
5.286266
 30
0.0
 10
11.163015
 20
5.283289
 30
0.0
 10
11.125973
 20
5.052164
 30
0.0
 10
11.127243
 20
5.051882
 30
0.0
 10
11.125522
 20
5.049678
 30
0.0
 10
11.077897
 20
4.819766
 30
0.0
 10
11.078828
 20
4.819484
 30
0.0
 10
11.077445
 20
4.817830
 30
0.0
 10
11.018853
 20
4.589847
 30
0.0
 10
11.019841
 20
4.589517
 30
0.0
 10
11.018289
 20
4.587863
 30
0.0
 10
10.949277
 20
4.362968
 30
0.0
 10
10.950377
 20
4.362527
 30
0.0
 10
10.948571
 20
4.360763
 30
0.0
 10
10.869526
 20
4.139505
 30
0.0
 10
10.870740
 20
4.138955
 30
0.0
 10
10.868595
 20
4.137025
 30
0.0
 10
10.779574
 20
3.919846
 30
0.0
 10
10.781013
 20
3.919129
 30
0.0
 10
10.778304
 20
3.916925
 30
0.0
 10
10.679746
 20
3.704597
 30
0.0
 10
10.681355
 20
3.703717
 30
0.0
 10
10.678157
 20
3.701346
 30
0.0
 10
10.570283
 20
3.494089
 30
0.0
 10
10.572005
 20
3.493042
 30
0.0
 10
10.568257
 20
3.490561
 30
0.0
 10
10.451344
 20
3.288761
 30
0.0
 10
10.453150
 20
3.287494
 30
0.0
 10
10.448908
 20
3.284960
 30
0.0
 10
10.323119
 20
3.089058
 30
0.0
 10
10.325038
 20
3.087624
 30
0.0
 10
10.320463
 20
3.085143
 30
0.0
 10
10.185801
 20
2.895580
 30
0.0
 10
10.188002
 20
2.893763
 30
0.0
 10
10.182547
 20
2.891118
 30
0.0
 10
10.039945
 20
2.708500
 30
0.0
 10
10.042260
 20
2.706406
 30
0.0
 10
10.036088
 20
2.703762
 30
0.0
 10
9.885827
 20
2.528255
 30
0.0
 10
9.888197
 20
2.525884
 30
0.0
 10
9.881526
 20
2.523350
 30
0.0
 10
9.723713
 20
2.355009
 30
0.0
 10
9.726027
 20
2.352474
 30
0.0
 10
9.718971
 20
2.350160
 30
0.0
 10
9.553993
 20
2.189315
 30
0.0
 10
9.556194
 20
2.186671
 30
0.0
 10
9.549028
 20
2.184687
 30
0.0
 10
9.376941
 20
2.031394
 30
0.0
 10
9.378916
 20
2.028750
 30
0.0
 10
9.371914
 20
2.027152
 30
0.0
 10
9.192935
 20
1.881576
 30
0.0
 10
9.194646
 20
1.879095
 30
0.0
 10
9.188141
 20
1.877882
 30
0.0
 10
9.002326
 20
1.740188
 30
0.0
 10
9.003760
 20
1.737928
 30
0.0
 10
8.997917
 20
1.737157
 30
0.0
 10
8.805598
 20
1.607567
 30
0.0
 10
8.806702
 20
1.605636
 30
0.0
 10
8.801796
 20
1.605196
 30
0.0
 10
8.602863
 20
1.484259
 30
0.0
 10
8.603794
 20
1.482442
 30
0.0
 10
8.599439
 20
1.482272
 30
0.0
 10
8.394718
 20
1.370320
 30
0.0
 10
8.395480
 20
1.368557
 30
0.0
 10
8.391402
 20
1.368557
 30
0.0
 10
8.181556
 20
1.265920
 30
0.0
 10
8.182148
 20
1.264323
 30
0.0
 10
8.178510
 20
1.264492
 30
0.0
 10
7.963813
 20
1.171337
 30
0.0
 10
7.964321
 20
1.169960
 30
0.0
 10
7.961233
 20
1.170242
 30
0.0
 10
7.742124
 20
1.086788
 30
0.0
 10
7.742519
 20
1.085520
 30
0.0
 10
7.739697
 20
1.085907
 30
0.0
 10
7.516730
 20
1.012485
 30
0.0
 10
7.517013
 20
1.011382
 30
0.0
 10
7.514585
 20
1.011822
 30
0.0
 10
7.288147
 20
0.948432
 30
0.0
 10
7.288430
 20
0.947439
 30
0.0
 10
7.286285
 20
0.947936
 30
0.0
 10
7.056979
 20
0.895074
 30
0.0
 10
7.057261
 20
0.894081
 30
0.0
 10
7.055286
 20
0.894631
 30
0.0
 10
6.823610
 20
0.852629
 30
0.0
 10
6.823892
 20
0.851195
 30
0.0
 10
6.820968
 20
0.852186
 30
0.0
 10
6.588578
 20
0.820822
 30
0.0
 10
6.588578
 20
0.819058
 30
0.0
 10
6.584993
 20
0.820435
 30
0.0
 10
6.352160
 20
0.799599
 30
0.0
 10
6.352160
 20
0.797669
 30
0.0
 10
6.348302
 20
0.799322
 30
0.0
 10
6.115082
 20
0.788960
 30
0.0
 10
6.115082
 20
0.787029
 30
0.0
 10
6.111335
 20
0.788903
 30
0.0
 10
6.000153
 20
0.787469
 30
0.0
 10
5.877838
 20
0.789013
 30
0.0
 10
5.877555
 20
0.787196
 30
0.0
 10
5.874137
 20
0.789070
 30
0.0
 10
5.640697
 20
0.800039
 30
0.0
 10
5.640415
 20
0.798165
 30
0.0
 10
5.636941
 20
0.800315
 30
0.0
 10
5.404274
 20
0.821647
 30
0.0
 10
5.403992
 20
0.819883
 30
0.0
 10
5.400741
 20
0.822088
 30
0.0
 10
5.169121
 20
0.853838
 30
0.0
 10
5.168782
 20
0.852404
 30
0.0
 10
5.166186
 20
0.854334
 30
0.0
 10
4.935670
 20
0.896612
 30
0.0
 10
4.935387
 20
0.895565
 30
0.0
 10
4.933525
 20
0.897109
 30
0.0
 10
4.704440
 20
0.950191
 30
0.0
 10
4.704157
 20
0.949311
 30
0.0
 10
4.702718
 20
0.950634
 30
0.0
 10
4.476004
 20
1.014575
 30
0.0
 10
4.475608
 20
1.013528
 30
0.0
 10
4.473887
 20
1.015182
 30
0.0
 10
4.250700
 20
1.089210
 30
0.0
 10
4.250249
 20
1.088107
 30
0.0
 10
4.248499
 20
1.089981
 30
0.0
 10
4.029116
 20
1.174151
 30
0.0
 10
4.028524
 20
1.172828
 30
0.0
 10
4.026548
 20
1.175198
 30
0.0
 10
3.811574
 20
1.269070
 30
0.0
 10
3.810812
 20
1.267583
 30
0.0
 10
3.808611
 20
1.270449
 30
0.0
 10
3.598708
 20
1.373747
 30
0.0
 10
3.597720
 20
1.372093
 30
0.0
 10
3.595293
 20
1.375510
 30
0.0
 10
3.390738
 20
1.488014
 30
0.0
 10
3.389581
 20
1.486196
 30
0.0
 10
3.387041
 20
1.490165
 30
0.0
 10
3.188165
 20
1.611542
 30
0.0
 10
3.186838
 20
1.609725
 30
0.0
 10
3.184355
 20
1.614024
 30
0.0
 10
2.991541
 20
1.744387
 30
0.0
 10
2.989875
 20
1.742293
 30
0.0
 10
2.987279
 20
1.747364
 30
0.0
 10
2.801187
 20
1.885994
 30
0.0
 10
2.799212
 20
1.883734
 30
0.0
 10
2.796502
 20
1.889577
 30
0.0
 10
2.617470
 20
2.036034
 30
0.0
 10
2.615212
 20
2.033664
 30
0.0
 10
2.612559
 20
2.040113
 30
0.0
 10
2.440635
 20
2.194233
 30
0.0
 10
2.438208
 20
2.191862
 30
0.0
 10
2.435781
 20
2.198752
 30
0.0
 10
2.271133
 20
2.360148
 30
0.0
 10
2.268536
 20
2.357888
 30
0.0
 10
2.266391
 20
2.365053
 30
0.0
 10
2.109295
 20
2.533615
 30
0.0
 10
2.106642
 20
2.531464
 30
0.0
 10
2.104836
 20
2.538685
 30
0.0
 10
1.955402
 20
2.714192
 30
0.0
 10
1.952806
 20
2.712318
 30
0.0
 10
1.951423
 20
2.719098
 30
0.0
 10
1.809818
 20
2.901496
 30
0.0
 10
1.807391
 20
2.899898
 30
0.0
 10
1.806403
 20
2.906127
 30
0.0
 10
1.672788
 20
3.095249
 30
0.0
 10
1.670586
 20
3.093925
 30
0.0
 10
1.669965
 20
3.099492
 30
0.0
 10
1.544729
 20
3.295009
 30
0.0
 10
1.542810
 20
3.294015
 30
0.0
 10
1.542528
 20
3.298590
 30
0.0
 10
1.426055
 20
3.500500
 30
0.0
 10
1.424305
 20
3.499673
 30
0.0
 10
1.424305
 20
3.503807
 30
0.0
 10
1.316984
 20
3.711230
 30
0.0
 10
1.315319
 20
3.710513
 30
0.0
 10
1.315319
 20
3.714316
 30
0.0
 10
1.217368
 20
3.926644
 30
0.0
 10
1.215873
 20
3.926094
 30
0.0
 10
1.216155
 20
3.929456
 30
0.0
 10
1.127794
 20
4.146470
 30
0.0
 10
1.126524
 20
4.146030
 30
0.0
 10
1.126863
 20
4.148951
 30
0.0
 10
1.048368
 20
4.370099
 30
0.0
 10
1.047155
 20
4.369768
 30
0.0
 10
1.047606
 20
4.372413
 30
0.0
 10
0.979201
 20
4.597088
 30
0.0
 10
0.978100
 20
4.596862
 30
0.0
 10
0.978608
 20
4.599286
 30
0.0
 10
0.920400
 20
4.827048
 30
0.0
 10
0.919469
 20
4.826879
 30
0.0
 10
0.920033
 20
4.828973
 30
0.0
 10
0.872575
 20
5.059491
 30
0.0
 10
0.871361
 20
5.059322
 30
0.0
 10
0.872123
 20
5.061857
 30
0.0
 10
0.835465
 20
5.293808
 30
0.0
 10
0.833857
 20
5.293695
 30
0.0
 10
0.835014
 20
5.296947
 30
0.0
 10
0.808942
 20
5.529670
 30
0.0
 10
0.807023
 20
5.529614
 30
0.0
 10
0.808632
 20
5.533527
 30
0.0
 10
0.793030
 20
5.766471
 30
0.0
 10
0.791055
 20
5.766471
 30
0.0
 10
0.792917
 20
5.770440
 30
0.0
 10
0.787572
 20
5.999966
 30
0.0
 10
0.787572
 20
6.003659
 30
0.0
 10
0.785709
 20
6.003772
 30
0.0
 10
0.787629
 20
6.007465
 30
0.0
 10
0.793250
 20
6.240905
 30
0.0
 10
0.791331
 20
6.241131
 30
0.0
 10
0.793420
 20
6.244714
 30
0.0
 10
0.809571
 20
6.477657
 30
0.0
 10
0.807709
 20
6.477940
 30
0.0
 10
0.809910
 20
6.481412
 30
0.0
 10
0.836478
 20
6.713419
 30
0.0
 10
0.834813
 20
6.713749
 30
0.0
 10
0.836902
 20
6.716671
 30
0.0
 10
0.873943
 20
6.947795
 30
0.0
 10
0.872673
 20
6.948077
 30
0.0
 10
0.874395
 20
6.950282
 30
0.0
 10
0.922074
 20
7.180194
 30
0.0
 10
0.921086
 20
7.180476
 30
0.0
 10
0.922582
 20
7.182183
 30
0.0
 10
0.981120
 20
7.410111
 30
0.0
 10
0.980189
 20
7.410441
 30
0.0
 10
0.981685
 20
7.412038
 30
0.0
 10
1.050696
 20
7.637045
 30
0.0
 10
1.049539
 20
7.637485
 30
0.0
 10
1.051402
 20
7.639305
 30
0.0
 10
1.130500
 20
7.860563
 30
0.0
 10
1.129174
 20
7.861113
 30
0.0
 10
1.131488
 20
7.863154
 30
0.0
 10
1.220399
 20
8.080112
 30
0.0
 10
1.218960
 20
8.080829
 30
0.0
 10
1.221669
 20
8.082979
 30
0.0
 10
1.320227
 20
8.295418
 30
0.0
 10
1.318618
 20
8.296298
 30
0.0
 10
1.321816
 20
8.298612
 30
0.0
 10
1.429690
 20
8.505925
 30
0.0
 10
1.427968
 20
8.506972
 30
0.0
 10
1.431606
 20
8.509396
 30
0.0
 10
1.548630
 20
8.711196
 30
0.0
 10
1.546767
 20
8.712463
 30
0.0
 10
1.551011
 20
8.715054
 30
0.0
 10
1.676798
 20
8.910846
 30
0.0
 10
1.674879
 20
8.912333
 30
0.0
 10
1.679507
 20
8.914867
 30
0.0
 10
1.814116
 20
9.104375
 30
0.0
 10
1.811915
 20
9.106195
 30
0.0
 10
1.817426
 20
9.108840
 30
0.0
 10
1.959971
 20
9.291512
 30
0.0
 10
1.957657
 20
9.293606
 30
0.0
 10
1.963829
 20
9.296251
 30
0.0
 10
2.114146
 20
9.471758
 30
0.0
 10
2.111719
 20
9.474182
 30
0.0
 10
2.118555
 20
9.476773
 30
0.0
 10
2.276258
 20
9.645004
 30
0.0
 10
2.273887
 20
9.647538
 30
0.0
 10
2.280996
 20
9.649852
 30
0.0
 10
2.445975
 20
9.810697
 30
0.0
 10
2.443774
 20
9.813341
 30
0.0
 10
2.450939
 20
9.815325
 30
0.0
 10
2.623030
 20
9.968618
 30
0.0
 10
2.621054
 20
9.971263
 30
0.0
 10
2.628053
 20
9.972860
 30
0.0
 10
2.806976
 20
10.118436
 30
0.0
 10
2.805254
 20
10.120917
 30
0.0
 10
2.811813
 20
10.122131
 30
0.0
 10
2.997575
 20
10.259769
 30
0.0
 10
2.996135
 20
10.262083
 30
0.0
 10
3.002034
 20
10.262854
 30
0.0
 10
3.194298
 20
10.392390
 30
0.0
 10
3.193197
 20
10.394320
 30
0.0
 10
3.198158
 20
10.394760
 30
0.0
 10
3.397091
 20
10.515752
 30
0.0
 10
3.396160
 20
10.517570
 30
0.0
 10
3.400458
 20
10.517739
 30
0.0
 10
3.605292
 20
10.629691
 30
0.0
 10
3.604530
 20
10.631401
 30
0.0
 10
3.608445
 20
10.631401
 30
0.0
 10
3.818347
 20
10.734092
 30
0.0
 10
3.817726
 20
10.735636
 30
0.0
 10
3.821254
 20
10.735467
 30
0.0
 10
4.036062
 20
10.828622
 30
0.0
 10
4.035582
 20
10.830056
 30
0.0
 10
4.038777
 20
10.829774
 30
0.0
 10
4.257832
 20
10.913228
 30
0.0
 10
4.257437
 20
10.914442
 30
0.0
 10
4.260203
 20
10.914055
 30
0.0
 10
4.483170
 20
10.987532
 30
0.0
 10
4.482887
 20
10.988689
 30
0.0
 10
4.485427
 20
10.988192
 30
0.0
 10
4.711756
 20
11.051527
 30
0.0
 10
4.711473
 20
11.052521
 30
0.0
 10
4.713618
 20
11.052024
 30
0.0
 10
4.942924
 20
11.104886
 30
0.0
 10
4.942642
 20
11.105933
 30
0.0
 10
4.944730
 20
11.105326
 30
0.0
 10
5.176293
 20
11.147384
 30
0.0
 10
5.176011
 20
11.148761
 30
0.0
 10
5.178833
 20
11.147824
 30
0.0
 10
5.411390
 20
11.179133
 30
0.0
 10
5.411390
 20
11.180897
 30
0.0
 10
5.414918
 20
11.179573
 30
0.0
 10
5.647751
 20
11.200354
 30
0.0
 10
5.647751
 20
11.202338
 30
0.0
 10
5.651719
 20
11.200627
 30
0.0
 10
5.884829
 20
11.210990
 30
0.0
 10
5.884838
 20
11.212982
 30
0.0
  0
LWPOLYLINE
  5
101
100
AcDbEntity
  8
Layer_1
 62
7
100
AcDbPolyline
 90
274
 70
0
 10
5.954070
 20
10.741031
 30
0.0
 10
5.955340
 20
10.650742
 30
0.0
 10
5.738325
 20
10.734031
 30
0.0
 10
5.743673
 20
10.643852
 30
0.0
 10
5.523130
 20
10.717218
 30
0.0
 10
5.532557
 20
10.627425
 30
0.0
 10
5.308986
 20
10.690650
 30
0.0
 10
5.322490
 20
10.601353
 30
0.0
 10
5.096159
 20
10.654380
 30
0.0
 10
5.113745
 20
10.565745
 30
0.0
 10
4.885210
 20
10.608353
 30
0.0
 10
4.906819
 20
10.520710
 30
0.0
 10
4.676687
 20
10.552846
 30
0.0
 10
4.702262
 20
10.466250
 30
0.0
 10
4.470806
 20
10.487968
 30
0.0
 10
4.500298
 20
10.402585
 30
0.0
 10
4.268125
 20
10.413719
 30
0.0
 10
4.301419
 20
10.329769
 30
0.0
 10
4.069026
 20
10.330320
 30
0.0
 10
4.106124
 20
10.247968
 30
0.0
 10
3.873951
 20
10.237936
 30
0.0
 10
3.914741
 20
10.157403
 30
0.0
 10
3.683231
 20
10.136843
 30
0.0
 10
3.727715
 20
10.058185
 30
0.0
 10
3.497416
 20
10.027041
 30
0.0
 10
3.545371
 20
9.950587
 30
0.0
 10
3.316672
 20
9.909025
 30
0.0
 10
3.368102
 20
9.834777
 30
0.0
 10
3.141550
 20
9.782797
 30
0.0
 10
3.196231
 20
9.711029
 30
0.0
 10
2.972327
 20
9.648797
 30
0.0
 10
3.030262
 20
9.579564
 30
0.0
 10
2.809389
 20
9.507245
 30
0.0
 10
2.870465
 20
9.440713
 30
0.0
 10
2.653120
 20
9.358417
 30
0.0
 10
2.717117
 20
9.294696
 30
0.0
 10
2.503686
 20
9.202588
 30
0.0
 10
2.570494
 20
9.141844
 30
0.0
 10
2.361582
 20
9.040145
 30
0.0
 10
2.431090
 20
8.982543
 30
0.0
 10
2.226920
 20
8.871418
 30
0.0
 10
2.299019
 20
8.817013
 30
0.0
 10
2.100140
 20
8.696738
 30
0.0
 10
2.174666
 20
8.645640
 30
0.0
 10
1.981409
 20
8.516380
 30
0.0
 10
2.058193
 20
8.468810
 30
0.0
 10
1.871054
 20
8.330952
 30
0.0
 10
1.949935
 20
8.286854
 30
0.0
 10
1.769302
 20
8.140617
 30
0.0
 10
1.850001
 20
8.100158
 30
0.0
 10
1.676256
 20
7.945817
 30
0.0
 10
1.758772
 20
7.909106
 30
0.0
 10
1.592140
 20
7.747049
 30
0.0
 10
1.676256
 20
7.714142
 30
0.0
 10
1.517229
 20
7.544643
 30
0.0
 10
1.602669
 20
7.515539
 30
0.0
 10
1.451525
 20
7.338985
 30
0.0
 10
1.538232
 20
7.313849
 30
0.0
 10
1.395357
 20
7.130625
 30
0.0
 10
1.483112
 20
7.109403
 30
0.0
 10
1.348669
 20
6.919841
 30
0.0
 10
1.437304
 20
6.902698
 30
0.0
 10
1.311628
 20
6.707182
 30
0.0
 10
1.400923
 20
6.694118
 30
0.0
 10
1.284232
 20
6.493089
 30
0.0
 10
1.374081
 20
6.484050
 30
0.0
 10
1.266647
 20
6.277950
 30
0.0
 10
1.356882
 20
6.273044
 30
0.0
 10
1.258988
 20
6.062205
 30
0.0
 10
1.349276
 20
6.061431
 30
0.0
 10
1.261025
 20
5.846402
 30
0.0
 10
1.351260
 20
5.849709
 30
0.0
 10
1.272932
 20
5.630877
 30
0.0
 10
1.362944
 20
5.638263
 30
0.0
 10
1.294649
 20
5.416124
 30
0.0
 10
1.384167
 20
5.427644
 30
0.0
 10
1.326069
 20
5.202583
 30
0.0
 10
1.415034
 20
5.218127
 30
0.0
 10
1.367245
 20
4.990696
 30
0.0
 10
1.455330
 20
5.010264
 30
0.0
 10
1.417958
 20
4.780903
 30
0.0
 10
1.505105
 20
4.804440
 30
0.0
 10
1.478204
 20
4.573591
 30
0.0
 10
1.564251
 20
4.601097
 30
0.0
 10
1.547769
 20
4.369256
 30
0.0
 10
1.632489
 20
4.400675
 30
0.0
 10
1.626647
 20
4.168338
 30
0.0
 10
1.709826
 20
4.203560
 30
0.0
 10
1.714511
 20
3.971168
 30
0.0
 10
1.795980
 20
4.010139
 30
0.0
 10
1.811305
 20
3.778242
 30
0.0
 10
1.890900
 20
3.820906
 30
0.0
 10
1.916752
 20
3.589947
 30
0.0
 10
1.994306
 20
3.636084
 30
0.0
 10
2.030688
 20
3.406558
 30
0.0
 10
2.106095
 20
3.456278
 30
0.0
 10
2.152836
 20
3.228626
 30
0.0
 10
2.225929
 20
3.281653
 30
0.0
 10
2.282980
 20
3.056371
 30
0.0
 10
2.353536
 20
3.112705
 30
0.0
 10
2.420784
 20
2.890290
 30
0.0
 10
2.488692
 20
2.949766
 30
0.0
 10
2.566027
 20
2.730603
 30
0.0
 10
2.631237
 20
2.793110
 30
0.0
 10
2.718384
 20
2.577751
 30
0.0
 10
2.780670
 20
2.643125
 30
0.0
 10
2.877574
 20
2.431899
 30
0.0
 10
2.936719
 20
2.500084
 30
0.0
 10
3.043216
 20
2.293489
 30
0.0
 10
3.099217
 20
2.364320
 30
0.0
 10
3.215027
 20
2.162796
 30
0.0
 10
3.267724
 20
2.236107
 30
0.0
 10
3.392576
 20
2.039985
 30
0.0
 10
3.441855
 20
2.115612
 30
0.0
 10
3.575467
 20
1.925442
 30
0.0
 10
3.621275
 20
2.003219
 30
0.0
 10
3.763376
 20
1.819334
 30
0.0
 10
3.805710
 20
1.899095
 30
0.0
 10
3.956027
 20
1.721824
 30
0.0
 10
3.994612
 20
1.803514
 30
0.0
 10
4.152866
 20
1.633298
 30
0.0
 10
4.187647
 20
1.716587
 30
0.0
 10
4.353509
 20
1.553758
 30
0.0
 10
4.384485
 20
1.638535
 30
0.0
 10
4.557569
 20
1.483423
 30
0.0
 10
4.584688
 20
1.569523
 30
0.0
 10
4.764658
 20
1.422459
 30
0.0
 10
4.787866
 20
1.509716
 30
0.0
 10
4.974287
 20
1.370975
 30
0.0
 10
4.993470
 20
1.459225
 30
0.0
 10
5.186008
 20
1.329083
 30
0.0
 10
5.201166
 20
1.418104
 30
0.0
 10
5.399438
 20
1.296892
 30
0.0
 10
5.410518
 20
1.386519
 30
0.0
 10
5.614139
 20
1.274512
 30
0.0
 10
5.621082
 20
1.364471
 30
0.0
 10
5.829607
 20
1.261834
 30
0.0
 10
5.832474
 20
1.352068
 30
0.0
 10
6.045465
 20
1.258968
 30
0.0
 10
6.044195
 20
1.349257
 30
0.0
 10
6.261210
 20
1.265968
 30
0.0
 10
6.255861
 20
1.356092
 30
0.0
 10
6.476404
 20
1.282725
 30
0.0
 10
6.466978
 20
1.372574
 30
0.0
 10
6.690605
 20
1.309294
 30
0.0
 10
6.677101
 20
1.398646
 30
0.0
 10
6.903375
 20
1.345619
 30
0.0
 10
6.885846
 20
1.434254
 30
0.0
 10
7.114325
 20
1.391646
 30
0.0
 10
7.092718
 20
1.479234
 30
0.0
 10
7.322904
 20
1.447098
 30
0.0
 10
7.297329
 20
1.533694
 30
0.0
 10
7.528785
 20
1.512031
 30
0.0
 10
7.499293
 20
1.597359
 30
0.0
 10
7.731409
 20
1.586280
 30
0.0
 10
7.698119
 20
1.670230
 30
0.0
 10
7.930509
 20
1.669679
 30
0.0
 10
7.893414
 20
1.751976
 30
0.0
 10
8.125584
 20
1.762063
 30
0.0
 10
8.084794
 20
1.842541
 30
0.0
 10
8.316304
 20
1.863156
 30
0.0
 10
8.271823
 20
1.941814
 30
0.0
 10
8.502175
 20
1.972903
 30
0.0
 10
8.454220
 20
2.049412
 30
0.0
 10
8.682862
 20
2.090973
 30
0.0
 10
8.631490
 20
2.165222
 30
0.0
 10
8.857984
 20
2.217147
 30
0.0
 10
8.803304
 20
2.288970
 30
0.0
 10
9.027207
 20
2.351147
 30
0.0
 10
8.969275
 20
2.420435
 30
0.0
 10
9.190202
 20
2.492699
 30
0.0
 10
9.129127
 20
2.559286
 30
0.0
 10
9.346473
 20
2.641582
 30
0.0
 10
9.282476
 20
2.705303
 30
0.0
 10
9.495850
 20
2.797411
 30
0.0
 10
9.429042
 20
2.858100
 30
0.0
 10
9.638065
 20
2.959799
 30
0.0
 10
9.568500
 20
3.017401
 30
0.0
 10
9.772671
 20
3.128581
 30
0.0
 10
9.700518
 20
3.182986
 30
0.0
 10
9.899397
 20
3.303261
 30
0.0
 10
9.824927
 20
3.354304
 30
0.0
 10
10.018071
 20
3.483564
 30
0.0
 10
9.941397
 20
3.531133
 30
0.0
 10
10.128479
 20
3.668992
 30
0.0
 10
10.049658
 20
3.713145
 30
0.0
 10
10.230291
 20
3.859382
 30
0.0
 10
10.149536
 20
3.899841
 30
0.0
 10
10.323334
 20
4.054182
 30
0.0
 10
10.240874
 20
4.090837
 30
0.0
 10
10.407450
 20
4.252950
 30
0.0
 10
10.323334
 20
4.285912
 30
0.0
 10
10.482361
 20
4.455356
 30
0.0
 10
10.396867
 20
4.484405
 30
0.0
 10
10.548011
 20
4.660960
 30
0.0
 10
10.461304
 20
4.686150
 30
0.0
 10
10.604289
 20
4.869374
 30
0.0
 10
10.516425
 20
4.890541
 30
0.0
 10
10.650924
 20
5.080104
 30
0.0
 10
10.562286
 20
5.097301
 30
0.0
 10
10.688019
 20
5.292818
 30
0.0
 10
10.598611
 20
5.305881
 30
0.0
 10
10.715250
 20
5.506854
 30
0.0
 10
10.625456
 20
5.515894
 30
0.0
 10
10.732833
 20
5.721994
 30
0.0
 10
10.642708
 20
5.726955
 30
0.0
 10
10.740659
 20
5.937739
 30
0.0
 10
10.650317
 20
5.938566
 30
0.0
 10
10.738565
 20
6.153595
 30
0.0
 10
10.648276
 20
6.150343
 30
0.0
 10
10.726661
 20
6.369121
 30
0.0
 10
10.636590
 20
6.361734
 30
0.0
 10
10.704941
 20
6.583874
 30
0.0
 10
10.615369
 20
6.572409
 30
0.0
 10
10.673521
 20
6.797415
 30
0.0
 10
10.584500
 20
6.781871
 30
0.0
 10
10.632348
 20
7.009302
 30
0.0
 10
10.544207
 20
6.989734
 30
0.0
 10
10.581579
 20
7.219094
 30
0.0
 10
10.494431
 20
7.195503
 30
0.0
 10
10.521386
 20
7.426407
 30
0.0
 10
10.435396
 20
7.398846
 30
0.0
 10
10.451768
 20
7.630742
 30
0.0
 10
10.367101
 20
7.599323
 30
0.0
 10
10.372890
 20
7.831660
 30
0.0
 10
10.289820
 20
7.796437
 30
0.0
 10
10.285025
 20
8.028775
 30
0.0
 10
10.203556
 20
7.989804
 30
0.0
 10
10.188232
 20
8.221755
 30
0.0
 10
10.108636
 20
8.179146
 30
0.0
 10
10.082785
 20
8.410105
 30
0.0
 10
10.005230
 20
8.363858
 30
0.0
 10
9.968849
 20
8.593384
 30
0.0
 10
9.893442
 20
8.543665
 30
0.0
 10
9.846700
 20
8.771372
 30
0.0
 10
9.773664
 20
8.718290
 30
0.0
 10
9.716556
 20
8.943571
 30
0.0
 10
9.646001
 20
8.887237
 30
0.0
 10
9.578753
 20
9.109708
 30
0.0
 10
9.510845
 20
9.050232
 30
0.0
 10
9.433507
 20
9.269395
 30
0.0
 10
9.368410
 20
9.206832
 30
0.0
 10
9.281152
 20
9.422302
 30
0.0
 10
9.218865
 20
9.356818
 30
0.0
 10
9.121961
 20
9.568043
 30
0.0
 10
9.062816
 20
9.499858
 30
0.0
 10
8.956376
 20
9.706509
 30
0.0
 10
8.900318
 20
9.635677
 30
0.0
 10
8.784618
 20
9.837202
 30
0.0
 10
8.731868
 20
9.763945
 30
0.0
 10
8.607072
 20
9.959957
 30
0.0
 10
8.557683
 20
9.884330
 30
0.0
 10
8.424067
 20
10.074555
 30
0.0
 10
8.378263
 20
9.996779
 30
0.0
 10
8.236158
 20
10.180664
 30
0.0
 10
8.193881
 20
10.100848
 30
0.0
 10
8.043508
 20
10.278119
 30
0.0
 10
8.004922
 20
10.196484
 30
0.0
 10
7.846669
 20
10.366699
 30
0.0
 10
7.811888
 20
10.283411
 30
0.0
 10
7.646082
 20
10.446295
 30
0.0
 10
7.615049
 20
10.361408
 30
0.0
 10
7.441968
 20
10.516575
 30
0.0
 10
7.414846
 20
10.430420
 30
0.0
 10
7.234876
 20
10.577539
 30
0.0
 10
7.211725
 20
10.490282
 30
0.0
 10
7.025250
 20
10.629023
 30
0.0
 10
7.006067
 20
10.540773
 30
0.0
 10
6.813527
 20
10.670859
 30
0.0
 10
6.798369
 20
10.581838
 30
0.0
 10
6.600096
 20
10.703051
 30
0.0
 10
6.589016
 20
10.613423
 30
0.0
 10
6.385399
 20
10.725540
 30
0.0
 10
5.954070
 20
10.741031
 30
0.0
  0
LWPOLYLINE
  5
102
100
AcDbEntity
  8
Layer_1
 62
7
100
AcDbPolyline
 90
8
 70
1
 10
12.000014
 20
12.000011
 30
0.0
 10
12.000014
 20
10.999996
 30
0.0
 10
11.971681
 20
10.999996
 30
0.0
 10
11.971681
 20
11.971623
 30
0.0
 10
10.999999
 20
11.971623
 30
0.0
 10
10.999999
 20
12.000011
 30
0.0
 10
12.000014
 20
12.000011
 30
0.0
 10
12.000014
 20
12.000011
 30
0.0
  0
LWPOLYLINE
  5
103
100
AcDbEntity
  8
Layer_1
 62
7
100
AcDbPolyline
 90
9
 70
1
 10
1.000015
 20
12.000011
 30
0.0
 10
1.000015
 20
11.971623
 30
0.0
 10
0.028332
 20
11.971623
 30
0.0
 10
0.028332
 20
10.999996
 30
0.0
 10
-0.000000
 20
10.999996
 30
0.0
 10
-0.000000
 20
11.985790
 30
0.0
 10
-0.000000
 20
12.000011
 30
0.0
 10
1.000015
 20
12.000011
 30
0.0
 10
1.000015
 20
12.000011
 30
0.0
  0
LWPOLYLINE
  5
104
100
AcDbEntity
  8
Layer_1
 62
7
100
AcDbPolyline
 90
8
 70
1
 10
11.999957
 20
0.799978
 30
0.0
 10
11.999957
 20
-0.000001
 30
0.0
 10
10.999942
 20
-0.000001
 30
0.0
 10
10.999942
 20
0.028332
 30
0.0
 10
11.971625
 20
0.028332
 30
0.0
 10
11.971625
 20
0.799978
 30
0.0
 10
11.999957
 20
0.799978
 30
0.0
 10
11.999957
 20
0.799978
 30
0.0
  0
LWPOLYLINE
  5
105
100
AcDbEntity
  8
Layer_1
 62
7
100
AcDbPolyline
 90
8
 70
1
 10
0.028332
 20
0.799978
 30
0.0
 10
0.028332
 20
0.028332
 30
0.0
 10
1.000015
 20
0.028332
 30
0.0
 10
1.000015
 20
-0.000001
 30
0.0
 10
0.000000
 20
-0.000001
 30
0.0
 10
0.000000
 20
0.799978
 30
0.0
 10
0.028332
 20
0.799978
 30
0.0
 10
0.028332
 20
0.799978
 30
0.0
  0
ENDSEC
  0
SECTION
  2
OBJECTS
  0
DICTIONARY
  5
C
330
0
100
AcDbDictionary
  3
ACAD_GROUP
350
D
  3
ACAD_MLINESTYLE
350
17
  0
DICTIONARY
  5
D
330
C
100
AcDbDictionary
  0
DICTIONARY
  5
1A
330
C
100
AcDbDictionary
  0
DICTIONARY
  5
17
330
C
100
AcDbDictionary
  3
STANDARD
350
18
  0
DICTIONARY
  5
19
330
C
100
AcDbDictionary
  0
ENDSEC
  0
EOF
