  0
SECTION
  2
HEADER
  9
$ACADVER
  1
AC1014
  9
$HANDSEED
  5
FFFF
  9
$MEASUREMENT
 70
     1
  0
ENDSEC
  0
SECTION
  2
TABLES
  0
TABLE
  2
VPORT
  5
8
330
0
100
AcDbSymbolTable
 70
     4
  0
VPORT
  5
2E
330
8
100
AcDbSymbolTableRecord
100
AcDbViewportTableRecord
  2
*ACTIVE
 70
     0
 10
0.0
 20
0.0
 11
1.0
 21
1.0
 12
210.0
 22
148.5
 13
0.0
 23
0.0
 14
10.0
 24
10.0
 15
10.0
 25
10.0
 16
0.0
 26
0.0
 36
1.0
 17
0.0
 27
0.0
 37
0.0
 40
341.0
 41
1.24
 42
50.0
 43
0.0
 44
0.0
 50
0.0
 51
0.0
 71
     0
 72
   100
 73
     1
 74
     3
 75
     0
 76
     0
 77
     0
 78
     0
  0
ENDTAB
  0
TABLE
  2
LTYPE
  5
5
330
0
100
AcDbSymbolTable
 70
     1
  0
LTYPE
  5
14
330
5
100
AcDbSymbolTableRecord
100
AcDbLinetypeTableRecord
  2
BYBLOCK
 70
     0
  3

 72
    65
 73
     0
 40
0.0
  0
LTYPE
  5
15
330
5
100
AcDbSymbolTableRecord
100
AcDbLinetypeTableRecord
  2
BYLAYER
 70
     0
  3

 72
    65
 73
     0
 40
0.0
  0
LTYPE
  5
16
330
5
100
AcDbSymbolTableRecord
100
AcDbLinetypeTableRecord
  2
CONTINUOUS
 70
     0
  3
Solid line
 72
    65
 73
     0
 40
0.0
  0
ENDTAB
  0
TABLE
  2
LAYER
  5
2
100
AcDbSymbolTable
 70
2
  0
LAYER
  5
50
100
AcDbSymbolTableRecord
100
AcDbLayerTableRecord
  2
0
 70
0
  6
CONTINUOUS
  0
LAYER
  5
51
100
AcDbSymbolTableRecord
100
AcDbLayerTableRecord
  2
Layer_1
 70
0
  6
CONTINUOUS
  0
ENDTAB
  0
TABLE
  2
STYLE
  5
3
330
0
100
AcDbSymbolTable
 70
     1
  0
STYLE
  5
11
330
3
100
AcDbSymbolTableRecord
100
AcDbTextStyleTableRecord
  2
STANDARD
 70
     0
 40
0.0
 41
1.0
 50
0.0
 71
     0
 42
2.5
  3
txt
  4

  0
ENDTAB
  0
TABLE
  2
VIEW
  5
6
330
0
100
AcDbSymbolTable
 70
     0
  0
ENDTAB
  0
TABLE
  2
UCS
  5
7
330
0
100
AcDbSymbolTable
 70
     0
  0
ENDTAB
  0
TABLE
  2
APPID
  5
9
330
0
100
AcDbSymbolTable
 70
     2
  0
APPID
  5
12
330
9
100
AcDbSymbolTableRecord
100
AcDbRegAppTableRecord
  2
ACAD
 70
     0
  0
ENDTAB
  0
TABLE
  2
DIMSTYLE
  5
A
330
0
100
AcDbSymbolTable
 70
     1
  0
DIMSTYLE
105
27
330
A
100
AcDbSymbolTableRecord
100
AcDbDimStyleTableRecord
  2
ISO-25
 70
     0
  3

  4

  5

  6

  7

 40
1.0
 41
2.5
 42
0.625
 43
3.75
 44
1.25
 45
0.0
 46
0.0
 47
0.0
 48
0.0
140
2.5
141
2.5
142
0.0
143
0.03937007874016
144
1.0
145
0.0
146
1.0
147
0.625
 71
     0
 72
     0
 73
     0
 74
     0
 75
     0
 76
     0
 77
     1
 78
     8
170
     0
171
     3
172
     1
173
     0
174
     0
175
     0
176
     0
177
     0
178
     0
270
     2
271
     2
272
     2
273
     2
274
     3
340
11
275
     0
280
     0
281
     0
282
     0
283
     0
284
     8
285
     0
286
     0
287
     3
288
     0
  0
ENDTAB
  0
TABLE
  2
BLOCK_RECORD
  5
1
330
0
100
AcDbSymbolTable
 70
     1
  0
BLOCK_RECORD
  5
1F
330
1
100
AcDbSymbolTableRecord
100
AcDbBlockTableRecord
  2
*MODEL_SPACE
  0
BLOCK_RECORD
  5
1B
330
1
100
AcDbSymbolTableRecord
100
AcDbBlockTableRecord
  2
*PAPER_SPACE
  0
ENDTAB
  0
ENDSEC
  0
SECTION
  2
BLOCKS
  0
BLOCK
  5
20
330
1F
100
AcDbEntity
  8
0
100
AcDbBlockBegin
  2
*MODEL_SPACE
 70
     0
 10
0.0
 20
0.0
 30
0.0
  3
*MODEL_SPACE
  1

  0
ENDBLK
  5
21
330
1F
100
AcDbEntity
  8
0
100
AcDbBlockEnd
  0
BLOCK
  5
1C
330
1B
100
AcDbEntity
 67
     1
  8
0
100
AcDbBlockBegin
  2
*PAPER_SPACE
  1

  0
ENDBLK
  5
1D
330
1B
100
AcDbEntity
 67
     1
  8
0
100
AcDbBlockEnd
  0
ENDSEC
  0
SECTION
  2
ENTITIES
  0
LWPOLYLINE
  5
100
100
AcDbEntity
  8
Layer_1
 62
7
100
AcDbPolyline
 90
420
 70
0
 10
5.884864
 20
11.212962
 30
0.0
 10
5.884864
 20
11.210921
 30
0.0
 10
5.651754
 20
11.200558
 30
0.0
 10
5.647786
 20
11.202266
 30
0.0
 10
5.647786
 20
11.200335
 30
0.0
 10
5.414953
 20
11.179555
 30
0.0
 10
5.411425
 20
11.180878
 30
0.0
 10
5.411425
 20
11.179114
 30
0.0
 10
5.178868
 20
11.147805
 30
0.0
 10
5.176046
 20
11.148742
 30
0.0
 10
5.176328
 20
11.147365
 30
0.0
 10
4.944765
 20
11.105307
 30
0.0
 10
4.942676
 20
11.105857
 30
0.0
 10
4.942959
 20
11.104867
 30
0.0
 10
4.713653
 20
11.051950
 30
0.0
 10
4.711508
 20
11.052500
 30
0.0
 10
4.711790
 20
11.051507
 30
0.0
 10
4.485462
 20
10.988172
 30
0.0
 10
4.482922
 20
10.988669
 30
0.0
 10
4.483204
 20
10.987512
 30
0.0
 10
4.260238
 20
10.914035
 30
0.0
 10
4.257472
 20
10.914422
 30
0.0
 10
4.257867
 20
10.913208
 30
0.0
 10
4.038814
 20
10.829754
 30
0.0
 10
4.035617
 20
10.830036
 30
0.0
 10
4.036125
 20
10.828603
 30
0.0
 10
3.821317
 20
10.735447
 30
0.0
 10
3.817789
 20
10.735730
 30
0.0
 10
3.818382
 20
10.734186
 30
0.0
 10
3.608479
 20
10.631495
 30
0.0
 10
3.604568
 20
10.631495
 30
0.0
 10
3.605330
 20
10.629784
 30
0.0
 10
3.400498
 20
10.517833
 30
0.0
 10
3.396200
 20
10.517550
 30
0.0
 10
3.397131
 20
10.515733
 30
0.0
 10
3.198197
 20
10.394741
 30
0.0
 10
3.193236
 20
10.394301
 30
0.0
 10
3.194340
 20
10.392370
 30
0.0
 10
3.002076
 20
10.262835
 30
0.0
 10
2.996178
 20
10.262065
 30
0.0
 10
2.997611
 20
10.259750
 30
0.0
 10
2.811851
 20
10.122112
 30
0.0
 10
2.805292
 20
10.120898
 30
0.0
 10
2.807002
 20
10.118418
 30
0.0
 10
2.628078
 20
9.972842
 30
0.0
 10
2.621077
 20
9.971244
 30
0.0
 10
2.623061
 20
9.968600
 30
0.0
 10
2.450972
 20
9.815307
 30
0.0
 10
2.443806
 20
9.813323
 30
0.0
 10
2.446010
 20
9.810679
 30
0.0
 10
2.281032
 20
9.649834
 30
0.0
 10
2.273921
 20
9.647520
 30
0.0
 10
2.276292
 20
9.644985
 30
0.0
 10
2.118589
 20
9.476754
 30
0.0
 10
2.111754
 20
9.474164
 30
0.0
 10
2.114178
 20
9.471739
 30
0.0
 10
1.963862
 20
9.296232
 30
0.0
 10
1.957688
 20
9.293588
 30
0.0
 10
1.960003
 20
9.291494
 30
0.0
 10
1.817458
 20
9.108821
 30
0.0
 10
1.811946
 20
9.106177
 30
0.0
 10
1.814150
 20
9.104359
 30
0.0
 10
1.679544
 20
8.914851
 30
0.0
 10
1.674914
 20
8.912314
 30
0.0
 10
1.676844
 20
8.910827
 30
0.0
 10
1.551057
 20
8.715035
 30
0.0
 10
1.546812
 20
8.712444
 30
0.0
 10
1.548686
 20
8.711177
 30
0.0
 10
1.431663
 20
8.509377
 30
0.0
 10
1.428025
 20
8.506953
 30
0.0
 10
1.429733
 20
8.505906
 30
0.0
 10
1.321860
 20
8.298594
 30
0.0
 10
1.318663
 20
8.296280
 30
0.0
 10
1.320260
 20
8.295399
 30
0.0
 10
1.221703
 20
8.082961
 30
0.0
 10
1.219002
 20
8.080810
 30
0.0
 10
1.220436
 20
8.080093
 30
0.0
 10
1.131525
 20
7.863135
 30
0.0
 10
1.129210
 20
7.861095
 30
0.0
 10
1.130534
 20
7.860544
 30
0.0
 10
1.051434
 20
7.639286
 30
0.0
 10
1.049560
 20
7.637466
 30
0.0
 10
1.050718
 20
7.637026
 30
0.0
 10
0.981705
 20
7.412020
 30
0.0
 10
0.980218
 20
7.410422
 30
0.0
 10
0.981155
 20
7.410092
 30
0.0
 10
0.922616
 20
7.182165
 30
0.0
 10
0.921129
 20
7.180454
 30
0.0
 10
0.922122
 20
7.180172
 30
0.0
 10
0.874442
 20
6.950260
 30
0.0
 10
0.872732
 20
6.948056
 30
0.0
 10
0.873999
 20
6.947774
 30
0.0
 10
0.836957
 20
6.716650
 30
0.0
 10
0.834863
 20
6.713728
 30
0.0
 10
0.836517
 20
6.713398
 30
0.0
 10
0.809948
 20
6.481391
 30
0.0
 10
0.807744
 20
6.477919
 30
0.0
 10
0.809618
 20
6.477636
 30
0.0
 10
0.793468
 20
6.244693
 30
0.0
 10
0.791374
 20
6.241110
 30
0.0
 10
0.793304
 20
6.240884
 30
0.0
 10
0.787682
 20
6.007445
 30
0.0
 10
0.785751
 20
6.003751
 30
0.0
 10
0.787625
 20
6.003639
 30
0.0
 10
0.787625
 20
5.999945
 30
0.0
 10
0.792972
 20
5.770419
 30
0.0
 10
0.791098
 20
5.766451
 30
0.0
 10
0.793082
 20
5.766451
 30
0.0
 10
0.808682
 20
5.533507
 30
0.0
 10
0.807084
 20
5.529594
 30
0.0
 10
0.809015
 20
5.529650
 30
0.0
 10
0.835087
 20
5.296927
 30
0.0
 10
0.833930
 20
5.293675
 30
0.0
 10
0.835527
 20
5.293788
 30
0.0
 10
0.872183
 20
5.061836
 30
0.0
 10
0.871413
 20
5.059302
 30
0.0
 10
0.872626
 20
5.059471
 30
0.0
 10
0.920086
 20
4.828953
 30
0.0
 10
0.919536
 20
4.826859
 30
0.0
 10
0.920473
 20
4.827028
 30
0.0
 10
0.978681
 20
4.599266
 30
0.0
 10
0.978131
 20
4.596841
 30
0.0
 10
0.979234
 20
4.597067
 30
0.0
 10
1.047640
 20
4.372392
 30
0.0
 10
1.047200
 20
4.369747
 30
0.0
 10
1.048413
 20
4.370078
 30
0.0
 10
1.126906
 20
4.148930
 30
0.0
 10
1.126576
 20
4.146009
 30
0.0
 10
1.127843
 20
4.146449
 30
0.0
 10
1.216203
 20
3.929436
 30
0.0
 10
1.215921
 20
3.926073
 30
0.0
 10
1.217408
 20
3.926624
 30
0.0
 10
1.315359
 20
3.714295
 30
0.0
 10
1.315359
 20
3.710492
 30
0.0
 10
1.317013
 20
3.711209
 30
0.0
 10
1.424334
 20
3.503787
 30
0.0
 10
1.424334
 20
3.499652
 30
0.0
 10
1.426098
 20
3.500479
 30
0.0
 10
1.542570
 20
3.298569
 30
0.0
 10
1.542852
 20
3.293994
 30
0.0
 10
1.544783
 20
3.294987
 30
0.0
 10
1.670019
 20
3.099471
 30
0.0
 10
1.670626
 20
3.093904
 30
0.0
 10
1.672830
 20
3.095228
 30
0.0
 10
1.806444
 20
2.906105
 30
0.0
 10
1.807438
 20
2.899877
 30
0.0
 10
1.809862
 20
2.901474
 30
0.0
 10
1.951469
 20
2.719077
 30
0.0
 10
1.952847
 20
2.712297
 30
0.0
 10
1.955437
 20
2.714171
 30
0.0
 10
2.104872
 20
2.538664
 30
0.0
 10
2.106692
 20
2.531443
 30
0.0
 10
2.109337
 20
2.533594
 30
0.0
 10
2.266433
 20
2.365032
 30
0.0
 10
2.268583
 20
2.357866
 30
0.0
 10
2.271174
 20
2.360127
 30
0.0
 10
2.435822
 20
2.198731
 30
0.0
 10
2.438246
 20
2.191841
 30
0.0
 10
2.440671
 20
2.194211
 30
0.0
 10
2.612595
 20
2.040092
 30
0.0
 10
2.615239
 20
2.033642
 30
0.0
 10
2.617500
 20
2.036013
 30
0.0
 10
2.796535
 20
1.889555
 30
0.0
 10
2.799292
 20
1.883712
 30
0.0
 10
2.801222
 20
1.885973
 30
0.0
 10
2.987313
 20
1.747342
 30
0.0
 10
2.989957
 20
1.742271
 30
0.0
 10
2.991611
 20
1.744365
 30
0.0
 10
3.184426
 20
1.614002
 30
0.0
 10
3.186907
 20
1.609703
 30
0.0
 10
3.188231
 20
1.611521
 30
0.0
 10
3.387110
 20
1.490143
 30
0.0
 10
3.389650
 20
1.486174
 30
0.0
 10
3.390807
 20
1.487994
 30
0.0
 10
3.595362
 20
1.375491
 30
0.0
 10
3.597789
 20
1.372074
 30
0.0
 10
3.598776
 20
1.373728
 30
0.0
 10
3.808679
 20
1.270430
 30
0.0
 10
3.810881
 20
1.267564
 30
0.0
 10
3.811643
 20
1.269051
 30
0.0
 10
4.026617
 20
1.175179
 30
0.0
 10
4.028536
 20
1.172808
 30
0.0
 10
4.029129
 20
1.174132
 30
0.0
 10
4.248511
 20
1.089961
 30
0.0
 10
4.250261
 20
1.088087
 30
0.0
 10
4.250713
 20
1.089191
 30
0.0
 10
4.473900
 20
1.015163
 30
0.0
 10
4.475621
 20
1.013509
 30
0.0
 10
4.476016
 20
1.014556
 30
0.0
 10
4.702731
 20
0.950615
 30
0.0
 10
4.704227
 20
0.949291
 30
0.0
 10
4.704509
 20
0.950172
 30
0.0
 10
4.933594
 20
0.897090
 30
0.0
 10
4.935457
 20
0.895546
 30
0.0
 10
4.935739
 20
0.896593
 30
0.0
 10
5.166258
 20
0.854315
 30
0.0
 10
5.168855
 20
0.852384
 30
0.0
 10
5.169194
 20
0.853818
 30
0.0
 10
5.400816
 20
0.822068
 30
0.0
 10
5.404067
 20
0.819864
 30
0.0
 10
5.404350
 20
0.821628
 30
0.0
 10
5.637016
 20
0.800296
 30
0.0
 10
5.640488
 20
0.798145
 30
0.0
 10
5.640770
 20
0.800019
 30
0.0
 10
5.874210
 20
0.789050
 30
0.0
 10
5.877628
 20
0.787176
 30
0.0
 10
5.877910
 20
0.788993
 30
0.0
 10
6.000222
 20
0.787450
 30
0.0
 10
6.111404
 20
0.788883
 30
0.0
 10
6.115152
 20
0.787009
 30
0.0
 10
6.115152
 20
0.788940
 30
0.0
 10
6.348372
 20
0.799302
 30
0.0
 10
6.352230
 20
0.797649
 30
0.0
 10
6.352230
 20
0.799579
 30
0.0
 10
6.585063
 20
0.820415
 30
0.0
 10
6.588644
 20
0.819038
 30
0.0
 10
6.588644
 20
0.820802
 30
0.0
 10
6.821037
 20
0.852166
 30
0.0
 10
6.823958
 20
0.851172
 30
0.0
 10
6.823676
 20
0.852606
 30
0.0
 10
7.055352
 20
0.894609
 30
0.0
 10
7.057328
 20
0.894058
 30
0.0
 10
7.057046
 20
0.895052
 30
0.0
 10
7.286351
 20
0.947913
 30
0.0
 10
7.288496
 20
0.947417
 30
0.0
 10
7.288214
 20
0.948410
 30
0.0
 10
7.514655
 20
1.011800
 30
0.0
 10
7.517082
 20
1.011359
 30
0.0
 10
7.516800
 20
1.012463
 30
0.0
 10
7.739767
 20
1.085885
 30
0.0
 10
7.742589
 20
1.085498
 30
0.0
 10
7.742194
 20
1.086765
 30
0.0
 10
7.961303
 20
1.170219
 30
0.0
 10
7.964390
 20
1.169937
 30
0.0
 10
7.963854
 20
1.171314
 30
0.0
 10
8.178552
 20
1.264470
 30
0.0
 10
8.182189
 20
1.264301
 30
0.0
 10
8.181625
 20
1.265898
 30
0.0
 10
8.391471
 20
1.368534
 30
0.0
 10
8.395549
 20
1.368534
 30
0.0
 10
8.394787
 20
1.370298
 30
0.0
 10
8.599509
 20
1.482250
 30
0.0
 10
8.603863
 20
1.482419
 30
0.0
 10
8.602932
 20
1.484237
 30
0.0
 10
8.801865
 20
1.605173
 30
0.0
 10
8.806773
 20
1.605614
 30
0.0
 10
8.805672
 20
1.607544
 30
0.0
 10
8.997990
 20
1.737135
 30
0.0
 10
9.003834
 20
1.737908
 30
0.0
 10
9.002395
 20
1.740168
 30
0.0
 10
9.188210
 20
1.877862
 30
0.0
 10
9.194713
 20
1.879076
 30
0.0
 10
9.192991
 20
1.881556
 30
0.0
 10
9.371914
 20
2.027132
 30
0.0
 10
9.378970
 20
2.028730
 30
0.0
 10
9.376994
 20
2.031374
 30
0.0
 10
9.549085
 20
2.184667
 30
0.0
 10
9.556250
 20
2.186651
 30
0.0
 10
9.554049
 20
2.189295
 30
0.0
 10
9.719028
 20
2.350140
 30
0.0
 10
9.726083
 20
2.352454
 30
0.0
 10
9.723769
 20
2.354989
 30
0.0
 10
9.881582
 20
2.523330
 30
0.0
 10
9.888254
 20
2.525864
 30
0.0
 10
9.885883
 20
2.528235
 30
0.0
 10
10.036144
 20
2.703742
 30
0.0
 10
10.042316
 20
2.706386
 30
0.0
 10
10.040002
 20
2.708480
 30
0.0
 10
10.182603
 20
2.891098
 30
0.0
 10
10.188059
 20
2.893742
 30
0.0
 10
10.185857
 20
2.895562
 30
0.0
 10
10.320520
 20
3.085125
 30
0.0
 10
10.325094
 20
3.087606
 30
0.0
 10
10.323175
 20
3.089040
 30
0.0
 10
10.448965
 20
3.284941
 30
0.0
 10
10.453206
 20
3.287479
 30
0.0
 10
10.451400
 20
3.288746
 30
0.0
 10
10.568313
 20
3.490546
 30
0.0
 10
10.572061
 20
3.493026
 30
0.0
 10
10.570340
 20
3.494073
 30
0.0
 10
10.678214
 20
3.701330
 30
0.0
 10
10.681411
 20
3.703701
 30
0.0
 10
10.679803
 20
3.704582
 30
0.0
 10
10.778360
 20
3.916910
 30
0.0
 10
10.781070
 20
3.919114
 30
0.0
 10
10.779630
 20
3.919831
 30
0.0
 10
10.868652
 20
4.137009
 30
0.0
 10
10.870796
 20
4.138940
 30
0.0
 10
10.869583
 20
4.139490
 30
0.0
 10
10.948625
 20
4.360748
 30
0.0
 10
10.950431
 20
4.362512
 30
0.0
 10
10.949330
 20
4.362952
 30
0.0
 10
11.018342
 20
4.587848
 30
0.0
 10
11.019894
 20
4.589502
 30
0.0
 10
11.018907
 20
4.589832
 30
0.0
 10
11.077499
 20
4.817815
 30
0.0
 10
11.078882
 20
4.819469
 30
0.0
 10
11.077950
 20
4.819751
 30
0.0
 10
11.125575
 20
5.049663
 30
0.0
 10
11.127297
 20
5.051867
 30
0.0
 10
11.126027
 20
5.052149
 30
0.0
 10
11.163069
 20
5.283274
 30
0.0
 10
11.165213
 20
5.286250
 30
0.0
 10
11.163548
 20
5.286580
 30
0.0
 10
11.190117
 20
5.518697
 30
0.0
 10
11.192262
 20
5.522060
 30
0.0
 10
11.190455
 20
5.522342
 30
0.0
 10
11.206607
 20
5.755451
 30
0.0
 10
11.208639
 20
5.758923
 30
0.0
 10
11.206776
 20
5.759093
 30
0.0
 10
11.212398
 20
5.992643
 30
0.0
 10
11.214261
 20
5.996225
 30
0.0
 10
11.212455
 20
5.996338
 30
0.0
 10
11.212455
 20
5.999976
 30
0.0
 10
11.207107
 20
6.229668
 30
0.0
 10
11.208913
 20
6.233526
 30
0.0
 10
11.206994
 20
6.233526
 30
0.0
 10
11.191395
 20
6.466525
 30
0.0
 10
11.192947
 20
6.470328
 30
0.0
 10
11.191085
 20
6.470272
 30
0.0
 10
11.164957
 20
6.703050
 30
0.0
 10
11.166114
 20
6.706247
 30
0.0
 10
11.164505
 20
6.706134
 30
0.0
 10
11.127847
 20
6.938031
 30
0.0
 10
11.128666
 20
6.940621
 30
0.0
 10
11.127396
 20
6.940452
 30
0.0
 10
11.079991
 20
7.171136
 30
0.0
 10
11.080499
 20
7.173120
 30
0.0
 10
11.079567
 20
7.172950
 30
0.0
 10
11.021359
 20
7.400823
 30
0.0
 10
11.021895
 20
7.403137
 30
0.0
 10
11.020851
 20
7.402911
 30
0.0
 10
10.952390
 20
7.627697
 30
0.0
 10
10.952841
 20
7.630231
 30
0.0
 10
10.951684
 20
7.629901
 30
0.0
 10
10.873246
 20
7.850938
 30
0.0
 10
10.873585
 20
7.853915
 30
0.0
 10
10.872258
 20
7.853475
 30
0.0
 10
10.783844
 20
8.070543
 30
0.0
 10
10.784126
 20
8.073851
 30
0.0
 10
10.782687
 20
8.073300
 30
0.0
 10
10.684679
 20
8.285739
 30
0.0
 10
10.684679
 20
8.289432
 30
0.0
 10
10.683071
 20
8.288771
 30
0.0
 10
10.575694
 20
8.496194
 30
0.0
 10
10.575694
 20
8.500328
 30
0.0
 10
10.573944
 20
8.499501
 30
0.0
 10
10.457471
 20
8.701521
 30
0.0
 10
10.457188
 20
8.705986
 30
0.0
 10
10.455326
 20
8.704993
 30
0.0
 10
10.330033
 20
8.900619
 30
0.0
 10
10.329412
 20
8.906021
 30
0.0
 10
10.327267
 20
8.904754
 30
0.0
 10
10.193652
 20
9.093821
 30
0.0
 10
10.192664
 20
9.100105
 30
0.0
 10
10.190237
 20
9.098507
 30
0.0
 10
10.048686
 20
9.280794
 30
0.0
 10
10.047247
 20
9.287739
 30
0.0
 10
10.044594
 20
9.285809
 30
0.0
 10
9.895106
 20
9.461426
 30
0.0
 10
9.893356
 20
9.468482
 30
0.0
 10
9.890760
 20
9.466388
 30
0.0
 10
9.733607
 20
9.634949
 30
0.0
 10
9.731462
 20
9.642115
 30
0.0
 10
9.728866
 20
9.639855
 30
0.0
 10
9.564218
 20
9.801250
 30
0.0
 10
9.561790
 20
9.808196
 30
0.0
 10
9.559307
 20
9.805825
 30
0.0
 10
9.387493
 20
9.959779
 30
0.0
 10
9.384840
 20
9.966284
 30
0.0
 10
9.382582
 20
9.963913
 30
0.0
 10
9.203436
 20
10.110426
 30
0.0
 10
9.200783
 20
10.116214
 30
0.0
 10
9.198864
 20
10.113953
 30
0.0
 10
9.012665
 20
10.252694
 30
0.0
 10
9.010125
 20
10.257655
 30
0.0
 10
9.008404
 20
10.255615
 30
0.0
 10
8.815589
 20
10.385922
 30
0.0
 10
8.813106
 20
10.390222
 30
0.0
 10
8.811779
 20
10.388401
 30
0.0
 10
8.612957
 20
10.509779
 30
0.0
 10
8.610417
 20
10.513747
 30
0.0
 10
8.609259
 20
10.511984
 30
0.0
 10
8.404648
 20
10.624432
 30
0.0
 10
8.402221
 20
10.627904
 30
0.0
 10
8.401233
 20
10.626251
 30
0.0
 10
8.191387
 20
10.729493
 30
0.0
 10
8.189129
 20
10.732415
 30
0.0
 10
8.188424
 20
10.730927
 30
0.0
 10
7.973616
 20
10.824689
 30
0.0
 10
7.971528
 20
10.827170
 30
0.0
 10
7.970822
 20
10.825792
 30
0.0
 10
7.751603
 20
10.909908
 30
0.0
 10
7.749797
 20
10.911892
 30
0.0
 10
7.749232
 20
10.910735
 30
0.0
 10
7.525935
 20
10.984818
 30
0.0
 10
7.524327
 20
10.986416
 30
0.0
 10
7.523932
 20
10.985422
 30
0.0
 10
7.297217
 20
11.049308
 30
0.0
 10
7.295777
 20
11.050632
 30
0.0
 10
7.295495
 20
11.049751
 30
0.0
 10
7.066466
 20
11.102833
 30
0.0
 10
7.064604
 20
11.104377
 30
0.0
 10
7.064321
 20
11.103330
 30
0.0
 10
6.833639
 20
11.145663
 30
0.0
 10
6.831155
 20
11.147537
 30
0.0
 10
6.830816
 20
11.146160
 30
0.0
 10
6.599194
 20
11.177910
 30
0.0
 10
6.595999
 20
11.180060
 30
0.0
 10
6.595717
 20
11.178296
 30
0.0
 10
6.363214
 20
11.199628
 30
0.0
 10
6.359632
 20
11.201833
 30
0.0
 10
6.359350
 20
11.199902
 30
0.0
 10
6.125910
 20
11.210872
 30
0.0
 10
6.122382
 20
11.212802
 30
0.0
 10
6.122100
 20
11.210928
 30
0.0
 10
5.999785
 20
11.212525
 30
0.0
 10
5.888713
 20
11.211092
 30
0.0
 10
5.884855
 20
11.212966
 30
0.0
 10
5.884864
 20
11.212962
 30
0.0
  0
LWPOLYLINE
  5
101
100
AcDbEntity
  8
Layer_1
 62
7
100
AcDbPolyline
 90
130
 70
0
 10
6.000013
 20
11.100018
 30
0.0
 10
6.252908
 20
11.093750
 30
0.0
 10
6.504087
 20
11.075062
 30
0.0
 10
6.753131
 20
11.044127
 30
0.0
 10
6.999623
 20
11.001118
 30
0.0
 10
7.243144
 20
10.946209
 30
0.0
 10
7.483276
 20
10.879571
 30
0.0
 10
7.719602
 20
10.801379
 30
0.0
 10
7.951704
 20
10.711805
 30
0.0
 10
8.179163
 20
10.611023
 30
0.0
 10
8.401561
 20
10.499206
 30
0.0
 10
8.618481
 20
10.376527
 30
0.0
 10
8.829503
 20
10.243159
 30
0.0
 10
9.034211
 20
10.099276
 30
0.0
 10
9.232187
 20
9.945050
 30
0.0
 10
9.423012
 20
9.780654
 30
0.0
 10
9.606267
 20
9.606262
 30
0.0
 10
9.780659
 20
9.423007
 30
0.0
 10
9.945055
 20
9.232182
 30
0.0
 10
10.099281
 20
9.034207
 30
0.0
 10
10.243164
 20
8.829498
 30
0.0
 10
10.376532
 20
8.618476
 30
0.0
 10
10.499211
 20
8.401556
 30
0.0
 10
10.611028
 20
8.179158
 30
0.0
 10
10.711810
 20
7.951699
 30
0.0
 10
10.801384
 20
7.719598
 30
0.0
 10
10.879576
 20
7.483272
 30
0.0
 10
10.946214
 20
7.243139
 30
0.0
 10
11.001124
 20
6.999618
 30
0.0
 10
11.044133
 20
6.753126
 30
0.0
 10
11.075068
 20
6.504082
 30
0.0
 10
11.093756
 20
6.252904
 30
0.0
 10
11.100023
 20
6.000009
 30
0.0
 10
11.093756
 20
5.747114
 30
0.0
 10
11.075068
 20
5.495935
 30
0.0
 10
11.044133
 20
5.246891
 30
0.0
 10
11.001124
 20
5.000399
 30
0.0
 10
10.946214
 20
4.756878
 30
0.0
 10
10.879576
 20
4.516746
 30
0.0
 10
10.801384
 20
4.280419
 30
0.0
 10
10.711810
 20
4.048318
 30
0.0
 10
10.611028
 20
3.820859
 30
0.0
 10
10.499211
 20
3.598461
 30
0.0
 10
10.376532
 20
3.381541
 30
0.0
 10
10.243164
 20
3.170519
 30
0.0
 10
10.099281
 20
2.965810
 30
0.0
 10
9.945055
 20
2.767835
 30
0.0
 10
9.780659
 20
2.577010
 30
0.0
 10
9.606267
 20
2.393755
 30
0.0
 10
9.423012
 20
2.219363
 30
0.0
 10
9.232187
 20
2.054967
 30
0.0
 10
9.034212
 20
1.900741
 30
0.0
 10
8.829503
 20
1.756858
 30
0.0
 10
8.618481
 20
1.623490
 30
0.0
 10
8.401561
 20
1.500811
 30
0.0
 10
8.179163
 20
1.388994
 30
0.0
 10
7.951704
 20
1.288212
 30
0.0
 10
7.719603
 20
1.198638
 30
0.0
 10
7.483276
 20
1.120446
 30
0.0
 10
7.243144
 20
1.053808
 30
0.0
 10
6.999623
 20
0.998898
 30
0.0
 10
6.753131
 20
0.955889
 30
0.0
 10
6.504087
 20
0.924955
 30
0.0
 10
6.252908
 20
0.906267
 30
0.0
 10
6.000013
 20
0.899999
 30
0.0
 10
5.747118
 20
0.906267
 30
0.0
 10
5.495940
 20
0.924955
 30
0.0
 10
5.246896
 20
0.955889
 30
0.0
 10
5.000404
 20
0.998898
 30
0.0
 10
4.756883
 20
1.053808
 30
0.0
 10
4.516750
 20
1.120446
 30
0.0
 10
4.280424
 20
1.198638
 30
0.0
 10
4.048323
 20
1.288212
 30
0.0
 10
3.820864
 20
1.388994
 30
0.0
 10
3.598466
 20
1.500811
 30
0.0
 10
3.381546
 20
1.623490
 30
0.0
 10
3.170523
 20
1.756858
 30
0.0
 10
2.965815
 20
1.900741
 30
0.0
 10
2.767840
 20
2.054967
 30
0.0
 10
2.577015
 20
2.219363
 30
0.0
 10
2.393759
 20
2.393755
 30
0.0
 10
2.219368
 20
2.577010
 30
0.0
 10
2.054972
 20
2.767835
 30
0.0
 10
1.900746
 20
2.965810
 30
0.0
 10
1.756862
 20
3.170519
 30
0.0
 10
1.623495
 20
3.381541
 30
0.0
 10
1.500816
 20
3.598461
 30
0.0
 10
1.388998
 20
3.820859
 30
0.0
 10
1.288216
 20
4.048318
 30
0.0
 10
1.198643
 20
4.280419
 30
0.0
 10
1.120451
 20
4.516746
 30
0.0
 10
1.053813
 20
4.756878
 30
0.0
 10
0.998903
 20
5.000399
 30
0.0
 10
0.955894
 20
5.246891
 30
0.0
 10
0.924959
 20
5.495935
 30
0.0
 10
0.906271
 20
5.747114
 30
0.0
 10
0.900004
 20
6.000009
 30
0.0
 10
0.906271
 20
6.252904
 30
0.0
 10
0.924959
 20
6.504082
 30
0.0
 10
0.955894
 20
6.753126
 30
0.0
 10
0.998903
 20
6.999618
 30
0.0
 10
1.053813
 20
7.243139
 30
0.0
 10
1.120451
 20
7.483272
 30
0.0
 10
1.198643
 20
7.719598
 30
0.0
 10
1.288217
 20
7.951699
 30
0.0
 10
1.388999
 20
8.179158
 30
0.0
 10
1.500816
 20
8.401556
 30
0.0
 10
1.623495
 20
8.618476
 30
0.0
 10
1.756863
 20
8.829498
 30
0.0
 10
1.900746
 20
9.034207
 30
0.0
 10
2.054972
 20
9.232182
 30
0.0
 10
2.219368
 20
9.423007
 30
0.0
 10
2.393759
 20
9.606262
 30
0.0
 10
2.577015
 20
9.780654
 30
0.0
 10
2.767840
 20
9.945050
 30
0.0
 10
2.965815
 20
10.099276
 30
0.0
 10
3.170523
 20
10.243159
 30
0.0
 10
3.381546
 20
10.376527
 30
0.0
 10
3.598466
 20
10.499206
 30
0.0
 10
3.820864
 20
10.611023
 30
0.0
 10
4.048323
 20
10.711805
 30
0.0
 10
4.280424
 20
10.801379
 30
0.0
 10
4.516750
 20
10.879571
 30
0.0
 10
4.756883
 20
10.946209
 30
0.0
 10
5.000404
 20
11.001118
 30
0.0
 10
5.246896
 20
11.044127
 30
0.0
 10
5.495940
 20
11.075062
 30
0.0
 10
5.747118
 20
11.093750
 30
0.0
 10
6.000013
 20
11.100018
 30
0.0
 10
6.000013
 20
11.100018
 30
0.0
  0
LWPOLYLINE
  5
102
100
AcDbEntity
  8
Layer_1
 62
7
100
AcDbPolyline
 90
8
 70
0
 10
12.000013
 20
12.000011
 30
0.0
 10
12.000013
 20
10.999996
 30
0.0
 10
11.971681
 20
10.999996
 30
0.0
 10
11.971681
 20
11.971622
 30
0.0
 10
10.999998
 20
11.971622
 30
0.0
 10
10.999998
 20
12.000011
 30
0.0
 10
12.000013
 20
12.000011
 30
0.0
 10
12.000013
 20
12.000011
 30
0.0
  0
LWPOLYLINE
  5
103
100
AcDbEntity
  8
Layer_1
 62
7
100
AcDbPolyline
 90
9
 70
0
 10
1.000015
 20
12.000011
 30
0.0
 10
1.000015
 20
11.971622
 30
0.0
 10
0.028332
 20
11.971622
 30
0.0
 10
0.028332
 20
10.999996
 30
0.0
 10
0.000000
 20
10.999996
 30
0.0
 10
0.000000
 20
11.985790
 30
0.0
 10
0.000000
 20
12.000011
 30
0.0
 10
1.000015
 20
12.000011
 30
0.0
 10
1.000015
 20
12.000011
 30
0.0
  0
LWPOLYLINE
  5
104
100
AcDbEntity
  8
Layer_1
 62
7
100
AcDbPolyline
 90
8
 70
0
 10
11.999957
 20
0.799978
 30
0.0
 10
11.999957
 20
-0.000001
 30
0.0
 10
10.999942
 20
-0.000001
 30
0.0
 10
10.999942
 20
0.028332
 30
0.0
 10
11.971625
 20
0.028332
 30
0.0
 10
11.971625
 20
0.799978
 30
0.0
 10
11.999957
 20
0.799978
 30
0.0
 10
11.999957
 20
0.799978
 30
0.0
  0
LWPOLYLINE
  5
105
100
AcDbEntity
  8
Layer_1
 62
7
100
AcDbPolyline
 90
8
 70
0
 10
0.028332
 20
0.799978
 30
0.0
 10
0.028332
 20
0.028332
 30
0.0
 10
1.000015
 20
0.028332
 30
0.0
 10
1.000015
 20
-0.000001
 30
0.0
 10
0.000000
 20
-0.000001
 30
0.0
 10
0.000000
 20
0.799978
 30
0.0
 10
0.028332
 20
0.799978
 30
0.0
 10
0.028332
 20
0.799978
 30
0.0
  0
ENDSEC
  0
SECTION
  2
OBJECTS
  0
DICTIONARY
  5
C
330
0
100
AcDbDictionary
  3
ACAD_GROUP
350
D
  3
ACAD_MLINESTYLE
350
17
  0
DICTIONARY
  5
D
330
C
100
AcDbDictionary
  0
DICTIONARY
  5
1A
330
C
100
AcDbDictionary
  0
DICTIONARY
  5
17
330
C
100
AcDbDictionary
  3
STANDARD
350
18
  0
DICTIONARY
  5
19
330
C
100
AcDbDictionary
  0
ENDSEC
  0
EOF
