  0
SECTION
  2
HEADER
  9
$ACADVER
  1
AC1014
  9
$HANDSEED
  5
FFFF
  9
$MEASUREMENT
 70
     1
  0
ENDSEC
  0
SECTION
  2
TABLES
  0
TABLE
  2
VPORT
  5
8
330
0
100
AcDbSymbolTable
 70
     4
  0
VPORT
  5
2E
330
8
100
AcDbSymbolTableRecord
100
AcDbViewportTableRecord
  2
*ACTIVE
 70
     0
 10
0.0
 20
0.0
 11
1.0
 21
1.0
 12
210.0
 22
148.5
 13
0.0
 23
0.0
 14
10.0
 24
10.0
 15
10.0
 25
10.0
 16
0.0
 26
0.0
 36
1.0
 17
0.0
 27
0.0
 37
0.0
 40
341.0
 41
1.24
 42
50.0
 43
0.0
 44
0.0
 50
0.0
 51
0.0
 71
     0
 72
   100
 73
     1
 74
     3
 75
     0
 76
     0
 77
     0
 78
     0
  0
ENDTAB
  0
TABLE
  2
LTYPE
  5
5
330
0
100
AcDbSymbolTable
 70
     1
  0
LTYPE
  5
14
330
5
100
AcDbSymbolTableRecord
100
AcDbLinetypeTableRecord
  2
BYBLOCK
 70
     0
  3

 72
    65
 73
     0
 40
0.0
  0
LTYPE
  5
15
330
5
100
AcDbSymbolTableRecord
100
AcDbLinetypeTableRecord
  2
BYLAYER
 70
     0
  3

 72
    65
 73
     0
 40
0.0
  0
LTYPE
  5
16
330
5
100
AcDbSymbolTableRecord
100
AcDbLinetypeTableRecord
  2
CONTINUOUS
 70
     0
  3
Solid line
 72
    65
 73
     0
 40
0.0
  0
ENDTAB
  0
TABLE
  2
LAYER
  5
2
100
AcDbSymbolTable
 70
2
  0
LAYER
  5
50
100
AcDbSymbolTableRecord
100
AcDbLayerTableRecord
  2
0
 70
0
  6
CONTINUOUS
  0
LAYER
  5
51
100
AcDbSymbolTableRecord
100
AcDbLayerTableRecord
  2
Layer_1
 70
0
  6
CONTINUOUS
  0
ENDTAB
  0
TABLE
  2
STYLE
  5
3
330
0
100
AcDbSymbolTable
 70
     1
  0
STYLE
  5
11
330
3
100
AcDbSymbolTableRecord
100
AcDbTextStyleTableRecord
  2
STANDARD
 70
     0
 40
0.0
 41
1.0
 50
0.0
 71
     0
 42
2.5
  3
txt
  4

  0
ENDTAB
  0
TABLE
  2
VIEW
  5
6
330
0
100
AcDbSymbolTable
 70
     0
  0
ENDTAB
  0
TABLE
  2
UCS
  5
7
330
0
100
AcDbSymbolTable
 70
     0
  0
ENDTAB
  0
TABLE
  2
APPID
  5
9
330
0
100
AcDbSymbolTable
 70
     2
  0
APPID
  5
12
330
9
100
AcDbSymbolTableRecord
100
AcDbRegAppTableRecord
  2
ACAD
 70
     0
  0
ENDTAB
  0
TABLE
  2
DIMSTYLE
  5
A
330
0
100
AcDbSymbolTable
 70
     1
  0
DIMSTYLE
105
27
330
A
100
AcDbSymbolTableRecord
100
AcDbDimStyleTableRecord
  2
ISO-25
 70
     0
  3

  4

  5

  6

  7

 40
1.0
 41
2.5
 42
0.625
 43
3.75
 44
1.25
 45
0.0
 46
0.0
 47
0.0
 48
0.0
140
2.5
141
2.5
142
0.0
143
0.03937007874016
144
1.0
145
0.0
146
1.0
147
0.625
 71
     0
 72
     0
 73
     0
 74
     0
 75
     0
 76
     0
 77
     1
 78
     8
170
     0
171
     3
172
     1
173
     0
174
     0
175
     0
176
     0
177
     0
178
     0
270
     2
271
     2
272
     2
273
     2
274
     3
340
11
275
     0
280
     0
281
     0
282
     0
283
     0
284
     8
285
     0
286
     0
287
     3
288
     0
  0
ENDTAB
  0
TABLE
  2
BLOCK_RECORD
  5
1
330
0
100
AcDbSymbolTable
 70
     1
  0
BLOCK_RECORD
  5
1F
330
1
100
AcDbSymbolTableRecord
100
AcDbBlockTableRecord
  2
*MODEL_SPACE
  0
BLOCK_RECORD
  5
1B
330
1
100
AcDbSymbolTableRecord
100
AcDbBlockTableRecord
  2
*PAPER_SPACE
  0
ENDTAB
  0
ENDSEC
  0
SECTION
  2
BLOCKS
  0
BLOCK
  5
20
330
1F
100
AcDbEntity
  8
0
100
AcDbBlockBegin
  2
*MODEL_SPACE
 70
     0
 10
0.0
 20
0.0
 30
0.0
  3
*MODEL_SPACE
  1

  0
ENDBLK
  5
21
330
1F
100
AcDbEntity
  8
0
100
AcDbBlockEnd
  0
BLOCK
  5
1C
330
1B
100
AcDbEntity
 67
     1
  8
0
100
AcDbBlockBegin
  2
*PAPER_SPACE
  1

  0
ENDBLK
  5
1D
330
1B
100
AcDbEntity
 67
     1
  8
0
100
AcDbBlockEnd
  0
ENDSEC
  0
SECTION
  2
ENTITIES
  0
LWPOLYLINE
  5
100
100
AcDbEntity
  8
Layer_1
 62
7
100
AcDbPolyline
 90
35
 70
0
 10
7.672996
 20
2.396109
 30
0.0
 10
7.645654
 20
2.395826
 30
0.0
 10
7.645654
 20
2.395826
 30
0.0
 10
7.594396
 20
2.390389
 30
0.0
 10
7.545277
 20
2.376337
 30
0.0
 10
7.456879
 20
2.325806
 30
0.0
 10
7.387297
 20
2.251056
 30
0.0
 10
7.343369
 20
2.158912
 30
0.0
 10
7.330793
 20
2.064769
 30
0.0
 10
7.344582
 20
1.971169
 30
0.0
 10
7.344582
 20
1.971169
 30
0.0
 10
7.344582
 20
1.971169
 30
0.0
 10
7.388085
 20
1.881152
 30
0.0
 10
7.456131
 20
1.807862
 30
0.0
 10
7.542403
 20
1.757796
 30
0.0
 10
7.590399
 20
1.743503
 30
0.0
 10
7.640582
 20
1.737453
 30
0.0
 10
7.700815
 20
1.738707
 30
0.0
 10
7.759387
 20
1.751595
 30
0.0
 10
7.814689
 20
1.774978
 30
0.0
 10
7.865113
 20
1.807723
 30
0.0
 10
7.909052
 20
1.848692
 30
0.0
 10
7.944895
 20
1.896750
 30
0.0
 10
7.971035
 20
1.950761
 30
0.0
 10
7.985864
 20
2.009588
 30
0.0
 10
7.991394
 20
2.069796
 30
0.0
 10
7.985040
 20
2.129606
 30
0.0
 10
7.967798
 20
2.187310
 30
0.0
 10
7.940663
 20
2.241195
 30
0.0
 10
7.904629
 20
2.289553
 30
0.0
 10
7.860692
 20
2.330674
 30
0.0
 10
7.809847
 20
2.362846
 30
0.0
 10
7.753087
 20
2.384360
 30
0.0
 10
7.672996
 20
2.396210
 30
0.0
 10
7.672996
 20
2.396109
 30
0.0
  0
LWPOLYLINE
  5
101
100
AcDbEntity
  8
Layer_1
 62
7
100
AcDbPolyline
 90
34
 70
0
 10
7.659601
 20
2.236091
 30
0.0
 10
7.659884
 20
2.236091
 30
0.0
 10
7.660166
 20
2.236091
 30
0.0
 10
7.714298
 20
2.228156
 30
0.0
 10
7.762520
 20
2.201625
 30
0.0
 10
7.800590
 20
2.161101
 30
0.0
 10
7.824264
 20
2.111185
 30
0.0
 10
7.824264
 20
2.110903
 30
0.0
 10
7.824264
 20
2.110621
 30
0.0
 10
7.830737
 20
2.070808
 30
0.0
 10
7.826736
 20
2.030335
 30
0.0
 10
7.813258
 20
1.991697
 30
0.0
 10
7.791300
 20
1.957386
 30
0.0
 10
7.741483
 20
1.918309
 30
0.0
 10
7.680310
 20
1.899329
 30
0.0
 10
7.616878
 20
1.902556
 30
0.0
 10
7.560287
 20
1.930100
 30
0.0
 10
7.559836
 20
1.930439
 30
0.0
 10
7.559271
 20
1.930834
 30
0.0
 10
7.525958
 20
1.962767
 30
0.0
 10
7.503629
 20
2.003358
 30
0.0
 10
7.492971
 20
2.048850
 30
0.0
 10
7.494668
 20
2.095483
 30
0.0
 10
7.494668
 20
2.095765
 30
0.0
 10
7.494668
 20
2.096047
 30
0.0
 10
7.505064
 20
2.133532
 30
0.0
 10
7.523971
 20
2.167510
 30
0.0
 10
7.550235
 20
2.196018
 30
0.0
 10
7.582699
 20
2.217095
 30
0.0
 10
7.582981
 20
2.217095
 30
0.0
 10
7.583263
 20
2.217095
 30
0.0
 10
7.620144
 20
2.230900
 30
0.0
 10
7.659441
 20
2.235891
 30
0.0
 10
7.659601
 20
2.236091
 30
0.0
  0
LWPOLYLINE
  5
102
100
AcDbEntity
  8
Layer_1
 62
7
100
AcDbPolyline
 90
8
 70
1
 10
0.000000
 20
8.000001
 30
0.0
 10
0.000000
 20
6.999986
 30
0.0
 10
0.028332
 20
6.999986
 30
0.0
 10
0.028332
 20
7.971615
 30
0.0
 10
1.000016
 20
7.971615
 30
0.0
 10
1.000016
 20
8.000001
 30
0.0
 10
0.000000
 20
8.000001
 30
0.0
 10
0.000000
 20
8.000001
 30
0.0
  0
LWPOLYLINE
  5
103
100
AcDbEntity
  8
Layer_1
 62
7
100
AcDbPolyline
 90
9
 70
1
 10
7.999985
 20
8.000001
 30
0.0
 10
7.999985
 20
7.971615
 30
0.0
 10
8.971668
 20
7.971615
 30
0.0
 10
8.971668
 20
6.999986
 30
0.0
 10
9.000000
 20
6.999986
 30
0.0
 10
9.000000
 20
7.985779
 30
0.0
 10
9.000000
 20
8.000001
 30
0.0
 10
7.999985
 20
8.000001
 30
0.0
 10
7.999985
 20
8.000001
 30
0.0
  0
LWPOLYLINE
  5
104
100
AcDbEntity
  8
Layer_1
 62
7
100
AcDbPolyline
 90
8
 70
1
 10
0.000010
 20
0.799979
 30
0.0
 10
0.000010
 20
0.000000
 30
0.0
 10
1.000024
 20
0.000000
 30
0.0
 10
1.000024
 20
0.028332
 30
0.0
 10
0.028342
 20
0.028332
 30
0.0
 10
0.028342
 20
0.799979
 30
0.0
 10
0.000010
 20
0.799979
 30
0.0
 10
0.000010
 20
0.799979
 30
0.0
  0
LWPOLYLINE
  5
105
100
AcDbEntity
  8
Layer_1
 62
7
100
AcDbPolyline
 90
8
 70
1
 10
8.971668
 20
0.799979
 30
0.0
 10
8.971668
 20
0.028332
 30
0.0
 10
7.999985
 20
0.028332
 30
0.0
 10
7.999985
 20
0.000000
 30
0.0
 10
9.000000
 20
0.000000
 30
0.0
 10
9.000000
 20
0.799979
 30
0.0
 10
8.971668
 20
0.799979
 30
0.0
 10
8.971668
 20
0.799979
 30
0.0
  0
LWPOLYLINE
  5
106
100
AcDbEntity
  8
Layer_1
 62
7
100
AcDbPolyline
 90
31
 70
0
 10
3.994791
 20
1.186631
 30
0.0
 10
3.968663
 20
1.186349
 30
0.0
 10
3.920015
 20
1.181187
 30
0.0
 10
3.873265
 20
1.167759
 30
0.0
 10
3.788863
 20
1.119435
 30
0.0
 10
3.722262
 20
1.048042
 30
0.0
 10
3.680268
 20
0.960241
 30
0.0
 10
3.668300
 20
0.870483
 30
0.0
 10
3.681481
 20
0.780821
 30
0.0
 10
3.723085
 20
0.695001
 30
0.0
 10
3.788233
 20
0.624986
 30
0.0
 10
3.870629
 20
0.577120
 30
0.0
 10
3.963979
 20
0.557744
 30
0.0
 10
4.021234
 20
0.558936
 30
0.0
 10
4.077067
 20
0.571299
 30
0.0
 10
4.129897
 20
0.593714
 30
0.0
 10
4.178143
 20
0.625058
 30
0.0
 10
4.220223
 20
0.664211
 30
0.0
 10
4.254556
 20
0.710052
 30
0.0
 10
4.279562
 20
0.761459
 30
0.0
 10
4.293658
 20
0.817312
 30
0.0
 10
4.298926
 20
0.874500
 30
0.0
 10
4.292805
 20
0.931493
 30
0.0
 10
4.276275
 20
0.986608
 30
0.0
 10
4.250318
 20
1.038165
 30
0.0
 10
4.215915
 20
1.084481
 30
0.0
 10
4.174049
 20
1.123873
 30
0.0
 10
4.125701
 20
1.154661
 30
0.0
 10
4.071852
 20
1.175162
 30
0.0
 10
3.994792
 20
1.186569
 30
0.0
 10
3.994791
 20
1.186631
 30
0.0
  0
LWPOLYLINE
  5
107
100
AcDbEntity
  8
Layer_1
 62
7
100
AcDbPolyline
 90
24
 70
0
 10
3.981893
 20
1.056600
 30
0.0
 10
4.041542
 20
1.048055
 30
0.0
 10
4.094178
 20
1.019279
 30
0.0
 10
4.135498
 20
0.975195
 30
0.0
 10
4.161203
 20
0.920727
 30
0.0
 10
4.168405
 20
0.876901
 30
0.0
 10
4.164085
 20
0.832724
 30
0.0
 10
4.149367
 20
0.790711
 30
0.0
 10
4.125374
 20
0.753378
 30
0.0
 10
4.071022
 20
0.710455
 30
0.0
 10
4.004609
 20
0.689715
 30
0.0
 10
3.935602
 20
0.693475
 30
0.0
 10
3.873468
 20
0.724052
 30
0.0
 10
3.836678
 20
0.759160
 30
0.0
 10
3.812203
 20
0.803446
 30
0.0
 10
3.800625
 20
0.852959
 30
0.0
 10
3.802527
 20
0.903749
 30
0.0
 10
3.813866
 20
0.944749
 30
0.0
 10
3.834498
 20
0.981839
 30
0.0
 10
3.863260
 20
1.012972
 30
0.0
 10
3.898990
 20
1.036097
 30
0.0
 10
3.939238
 20
1.051182
 30
0.0
 10
3.981893
 20
1.056600
 30
0.0
 10
3.981893
 20
1.056600
 30
0.0
  0
LWPOLYLINE
  5
108
100
AcDbEntity
  8
Layer_1
 62
7
100
AcDbPolyline
 90
34
 70
0
 10
1.722737
 20
4.329717
 30
0.0
 10
1.695396
 20
4.329435
 30
0.0
 10
1.644137
 20
4.324000
 30
0.0
 10
1.595018
 20
4.309955
 30
0.0
 10
1.506619
 20
4.259443
 30
0.0
 10
1.437037
 20
4.184714
 30
0.0
 10
1.393110
 20
4.092580
 30
0.0
 10
1.380534
 20
3.998435
 30
0.0
 10
1.394323
 20
3.904835
 30
0.0
 10
1.394323
 20
3.904552
 30
0.0
 10
1.394323
 20
3.904552
 30
0.0
 10
1.437812
 20
3.814572
 30
0.0
 10
1.505834
 20
3.741313
 30
0.0
 10
1.592073
 20
3.691260
 30
0.0
 10
1.640051
 20
3.676960
 30
0.0
 10
1.690216
 20
3.670892
 30
0.0
 10
1.750466
 20
3.672121
 30
0.0
 10
1.809055
 20
3.684987
 30
0.0
 10
1.864375
 20
3.708355
 30
0.0
 10
1.914817
 20
3.741089
 30
0.0
 10
1.958770
 20
3.782054
 30
0.0
 10
1.994625
 20
3.830113
 30
0.0
 10
2.020774
 20
3.884132
 30
0.0
 10
2.035607
 20
3.942974
 30
0.0
 10
2.041133
 20
4.003180
 30
0.0
 10
2.034776
 20
4.062990
 30
0.0
 10
2.017533
 20
4.120693
 30
0.0
 10
1.990398
 20
4.174579
 30
0.0
 10
1.954365
 20
4.222938
 30
0.0
 10
1.910429
 20
4.264059
 30
0.0
 10
1.859586
 20
4.296231
 30
0.0
 10
1.802829
 20
4.317746
 30
0.0
 10
1.722738
 20
4.329596
 30
0.0
 10
1.722737
 20
4.329717
 30
0.0
  0
LWPOLYLINE
  5
109
100
AcDbEntity
  8
Layer_1
 62
7
100
AcDbPolyline
 90
35
 70
0
 10
1.709342
 20
4.169754
 30
0.0
 10
1.709624
 20
4.169754
 30
0.0
 10
1.709907
 20
4.169754
 30
0.0
 10
1.709963
 20
4.169754
 30
0.0
 10
1.764096
 20
4.161811
 30
0.0
 10
1.812318
 20
4.135261
 30
0.0
 10
1.850387
 20
4.094718
 30
0.0
 10
1.874060
 20
4.044794
 30
0.0
 10
1.874116
 20
4.044512
 30
0.0
 10
1.874229
 20
4.044230
 30
0.0
 10
1.880701
 20
4.004397
 30
0.0
 10
1.876688
 20
3.963906
 30
0.0
 10
1.863191
 20
3.925253
 30
0.0
 10
1.841212
 20
3.890935
 30
0.0
 10
1.791393
 20
3.851884
 30
0.0
 10
1.730234
 20
3.832906
 30
0.0
 10
1.666824
 20
3.836121
 30
0.0
 10
1.610252
 20
3.863650
 30
0.0
 10
1.609812
 20
3.864045
 30
0.0
 10
1.609315
 20
3.864384
 30
0.0
 10
1.575993
 20
3.896325
 30
0.0
 10
1.553646
 20
3.936935
 30
0.0
 10
1.542969
 20
3.982446
 30
0.0
 10
1.544658
 20
4.029089
 30
0.0
 10
1.544658
 20
4.029371
 30
0.0
 10
1.544658
 20
4.029653
 30
0.0
 10
1.555054
 20
4.067130
 30
0.0
 10
1.573961
 20
4.101089
 30
0.0
 10
1.600223
 20
4.129578
 30
0.0
 10
1.632687
 20
4.150645
 30
0.0
 10
1.632969
 20
4.150645
 30
0.0
 10
1.633195
 20
4.150927
 30
0.0
 10
1.670079
 20
4.164733
 30
0.0
 10
1.709373
 20
4.169723
 30
0.0
 10
1.709342
 20
4.169754
 30
0.0
  0
LWPOLYLINE
  5
10a
100
AcDbEntity
  8
Layer_1
 62
7
100
AcDbPolyline
 90
34
 70
0
 10
3.995452
 20
7.457919
 30
0.0
 10
3.968112
 20
7.457637
 30
0.0
 10
3.916855
 20
7.452202
 30
0.0
 10
3.867742
 20
7.438156
 30
0.0
 10
3.779362
 20
7.387644
 30
0.0
 10
3.709799
 20
7.312913
 30
0.0
 10
3.665881
 20
7.220779
 30
0.0
 10
3.653308
 20
7.126635
 30
0.0
 10
3.667094
 20
7.033037
 30
0.0
 10
3.667094
 20
7.033037
 30
0.0
 10
3.667094
 20
7.032754
 30
0.0
 10
3.710598
 20
6.942746
 30
0.0
 10
3.778645
 20
6.869475
 30
0.0
 10
3.864916
 20
6.819429
 30
0.0
 10
3.912913
 20
6.805142
 30
0.0
 10
3.963097
 20
6.799094
 30
0.0
 10
4.023311
 20
6.800348
 30
0.0
 10
4.081865
 20
6.813225
 30
0.0
 10
4.137150
 20
6.836590
 30
0.0
 10
4.187560
 20
6.869310
 30
0.0
 10
4.231489
 20
6.910251
 30
0.0
 10
4.267331
 20
6.958279
 30
0.0
 10
4.293477
 20
7.012261
 30
0.0
 10
4.308323
 20
7.071063
 30
0.0
 10
4.313869
 20
7.131283
 30
0.0
 10
4.307526
 20
7.191108
 30
0.0
 10
4.290288
 20
7.248828
 30
0.0
 10
4.263152
 20
7.302732
 30
0.0
 10
4.227114
 20
7.351107
 30
0.0
 10
4.183170
 20
7.392241
 30
0.0
 10
4.132314
 20
7.424425
 30
0.0
 10
4.075545
 20
7.445945
 30
0.0
 10
3.995453
 20
7.457852
 30
0.0
 10
3.995452
 20
7.457919
 30
0.0
  0
LWPOLYLINE
  5
10b
100
AcDbEntity
  8
Layer_1
 62
7
100
AcDbPolyline
 90
34
 70
0
 10
3.982113
 20
7.297902
 30
0.0
 10
3.982395
 20
7.297902
 30
0.0
 10
3.982677
 20
7.297902
 30
0.0
 10
4.036810
 20
7.289958
 30
0.0
 10
4.085032
 20
7.263408
 30
0.0
 10
4.123101
 20
7.222864
 30
0.0
 10
4.146774
 20
7.172940
 30
0.0
 10
4.146887
 20
7.172658
 30
0.0
 10
4.147000
 20
7.172375
 30
0.0
 10
4.153464
 20
7.132562
 30
0.0
 10
4.149444
 20
7.092088
 30
0.0
 10
4.135948
 20
7.053449
 30
0.0
 10
4.113982
 20
7.019137
 30
0.0
 10
4.064166
 20
6.980054
 30
0.0
 10
4.002992
 20
6.961056
 30
0.0
 10
3.939560
 20
6.964264
 30
0.0
 10
3.882968
 20
6.991798
 30
0.0
 10
3.882528
 20
6.992193
 30
0.0
 10
3.882031
 20
6.992532
 30
0.0
 10
3.848709
 20
7.024472
 30
0.0
 10
3.826362
 20
7.065081
 30
0.0
 10
3.815685
 20
7.110591
 30
0.0
 10
3.817374
 20
7.157234
 30
0.0
 10
3.817374
 20
7.157516
 30
0.0
 10
3.817374
 20
7.157799
 30
0.0
 10
3.827778
 20
7.195275
 30
0.0
 10
3.846704
 20
7.229234
 30
0.0
 10
3.872986
 20
7.257723
 30
0.0
 10
3.905458
 20
7.278790
 30
0.0
 10
3.905683
 20
7.278790
 30
0.0
 10
3.905966
 20
7.279072
 30
0.0
 10
3.942849
 20
7.292880
 30
0.0
 10
3.982144
 20
7.297871
 30
0.0
 10
3.982113
 20
7.297902
 30
0.0
  0
LWPOLYLINE
  5
10c
100
AcDbEntity
  8
Layer_1
 62
7
100
AcDbPolyline
 90
31
 70
0
 10
7.672169
 20
6.248112
 30
0.0
 10
7.645987
 20
6.247829
 30
0.0
 10
7.597339
 20
6.242659
 30
0.0
 10
7.550588
 20
6.229227
 30
0.0
 10
7.466186
 20
6.180905
 30
0.0
 10
7.399585
 20
6.109518
 30
0.0
 10
7.357590
 20
6.021722
 30
0.0
 10
7.345650
 20
5.931963
 30
0.0
 10
7.358860
 20
5.842299
 30
0.0
 10
7.400463
 20
5.756479
 30
0.0
 10
7.465612
 20
5.686465
 30
0.0
 10
7.548009
 20
5.638600
 30
0.0
 10
7.641359
 20
5.619225
 30
0.0
 10
7.698611
 20
5.620416
 30
0.0
 10
7.754438
 20
5.632780
 30
0.0
 10
7.807259
 20
5.655194
 30
0.0
 10
7.855495
 20
5.686538
 30
0.0
 10
7.897565
 20
5.725691
 30
0.0
 10
7.931890
 20
5.771531
 30
0.0
 10
7.956890
 20
5.822938
 30
0.0
 10
7.970986
 20
5.878790
 30
0.0
 10
7.976253
 20
5.935979
 30
0.0
 10
7.970131
 20
5.992972
 30
0.0
 10
7.953600
 20
6.048087
 30
0.0
 10
7.927643
 20
6.099644
 30
0.0
 10
7.893240
 20
6.145959
 30
0.0
 10
7.851374
 20
6.185351
 30
0.0
 10
7.803025
 20
6.216139
 30
0.0
 10
7.749176
 20
6.236639
 30
0.0
 10
7.672172
 20
6.248050
 30
0.0
 10
7.672169
 20
6.248112
 30
0.0
  0
LWPOLYLINE
  5
10d
100
AcDbEntity
  8
Layer_1
 62
7
100
AcDbPolyline
 90
25
 70
0
 10
7.674539
 20
6.118081
 30
0.0
 10
7.729389
 20
6.105509
 30
0.0
 10
7.777366
 20
6.075971
 30
0.0
 10
7.814927
 20
6.033519
 30
0.0
 10
7.838525
 20
5.982205
 30
0.0
 10
7.845734
 20
5.938379
 30
0.0
 10
7.841430
 20
5.894203
 30
0.0
 10
7.826731
 20
5.852190
 30
0.0
 10
7.802750
 20
5.814855
 30
0.0
 10
7.748400
 20
5.771934
 30
0.0
 10
7.681988
 20
5.751194
 30
0.0
 10
7.612981
 20
5.754954
 30
0.0
 10
7.550847
 20
5.785533
 30
0.0
 10
7.514049
 20
5.820630
 30
0.0
 10
7.489554
 20
5.864897
 30
0.0
 10
7.477956
 20
5.914392
 30
0.0
 10
7.479848
 20
5.965173
 30
0.0
 10
7.491196
 20
6.006173
 30
0.0
 10
7.511847
 20
6.043264
 30
0.0
 10
7.540629
 20
6.074396
 30
0.0
 10
7.576368
 20
6.097521
 30
0.0
 10
7.616588
 20
6.112606
 30
0.0
 10
7.659215
 20
6.118024
 30
0.0
 10
7.674539
 20
6.118024
 30
0.0
 10
7.674539
 20
6.118081
 30
0.0
  0
ENDSEC
  0
SECTION
  2
OBJECTS
  0
DICTIONARY
  5
C
330
0
100
AcDbDictionary
  3
ACAD_GROUP
350
D
  3
ACAD_MLINESTYLE
350
17
  0
DICTIONARY
  5
D
330
C
100
AcDbDictionary
  0
DICTIONARY
  5
1A
330
C
100
AcDbDictionary
  0
DICTIONARY
  5
17
330
C
100
AcDbDictionary
  3
STANDARD
350
18
  0
DICTIONARY
  5
19
330
C
100
AcDbDictionary
  0
ENDSEC
  0
EOF
