  0
SECTION
  2
HEADER
  9
$ACADVER
  1
AC1014
  9
$HANDSEED
  5
FFFF
  9
$MEASUREMENT
 70
     1
  0
ENDSEC
  0
SECTION
  2
TABLES
  0
TABLE
  2
VPORT
  5
8
330
0
100
AcDbSymbolTable
 70
     4
  0
VPORT
  5
2E
330
8
100
AcDbSymbolTableRecord
100
AcDbViewportTableRecord
  2
*ACTIVE
 70
     0
 10
0.0
 20
0.0
 11
1.0
 21
1.0
 12
210.0
 22
148.5
 13
0.0
 23
0.0
 14
10.0
 24
10.0
 15
10.0
 25
10.0
 16
0.0
 26
0.0
 36
1.0
 17
0.0
 27
0.0
 37
0.0
 40
341.0
 41
1.24
 42
50.0
 43
0.0
 44
0.0
 50
0.0
 51
0.0
 71
     0
 72
   100
 73
     1
 74
     3
 75
     0
 76
     0
 77
     0
 78
     0
  0
ENDTAB
  0
TABLE
  2
LTYPE
  5
5
330
0
100
AcDbSymbolTable
 70
     1
  0
LTYPE
  5
14
330
5
100
AcDbSymbolTableRecord
100
AcDbLinetypeTableRecord
  2
BYBLOCK
 70
     0
  3

 72
    65
 73
     0
 40
0.0
  0
LTYPE
  5
15
330
5
100
AcDbSymbolTableRecord
100
AcDbLinetypeTableRecord
  2
BYLAYER
 70
     0
  3

 72
    65
 73
     0
 40
0.0
  0
LTYPE
  5
16
330
5
100
AcDbSymbolTableRecord
100
AcDbLinetypeTableRecord
  2
CONTINUOUS
 70
     0
  3
Solid line
 72
    65
 73
     0
 40
0.0
  0
ENDTAB
  0
TABLE
  2
LAYER
  5
2
100
AcDbSymbolTable
 70
2
  0
LAYER
  5
50
100
AcDbSymbolTableRecord
100
AcDbLayerTableRecord
  2
0
 70
0
  6
CONTINUOUS
  0
LAYER
  5
51
100
AcDbSymbolTableRecord
100
AcDbLayerTableRecord
  2
Layer_1
 70
0
  6
CONTINUOUS
  0
ENDTAB
  0
TABLE
  2
STYLE
  5
3
330
0
100
AcDbSymbolTable
 70
     1
  0
STYLE
  5
11
330
3
100
AcDbSymbolTableRecord
100
AcDbTextStyleTableRecord
  2
STANDARD
 70
     0
 40
0.0
 41
1.0
 50
0.0
 71
     0
 42
2.5
  3
txt
  4

  0
ENDTAB
  0
TABLE
  2
VIEW
  5
6
330
0
100
AcDbSymbolTable
 70
     0
  0
ENDTAB
  0
TABLE
  2
UCS
  5
7
330
0
100
AcDbSymbolTable
 70
     0
  0
ENDTAB
  0
TABLE
  2
APPID
  5
9
330
0
100
AcDbSymbolTable
 70
     2
  0
APPID
  5
12
330
9
100
AcDbSymbolTableRecord
100
AcDbRegAppTableRecord
  2
ACAD
 70
     0
  0
ENDTAB
  0
TABLE
  2
DIMSTYLE
  5
A
330
0
100
AcDbSymbolTable
 70
     1
  0
DIMSTYLE
105
27
330
A
100
AcDbSymbolTableRecord
100
AcDbDimStyleTableRecord
  2
ISO-25
 70
     0
  3

  4

  5

  6

  7

 40
1.0
 41
2.5
 42
0.625
 43
3.75
 44
1.25
 45
0.0
 46
0.0
 47
0.0
 48
0.0
140
2.5
141
2.5
142
0.0
143
0.03937007874016
144
1.0
145
0.0
146
1.0
147
0.625
 71
     0
 72
     0
 73
     0
 74
     0
 75
     0
 76
     0
 77
     1
 78
     8
170
     0
171
     3
172
     1
173
     0
174
     0
175
     0
176
     0
177
     0
178
     0
270
     2
271
     2
272
     2
273
     2
274
     3
340
11
275
     0
280
     0
281
     0
282
     0
283
     0
284
     8
285
     0
286
     0
287
     3
288
     0
  0
ENDTAB
  0
TABLE
  2
BLOCK_RECORD
  5
1
330
0
100
AcDbSymbolTable
 70
     1
  0
BLOCK_RECORD
  5
1F
330
1
100
AcDbSymbolTableRecord
100
AcDbBlockTableRecord
  2
*MODEL_SPACE
  0
BLOCK_RECORD
  5
1B
330
1
100
AcDbSymbolTableRecord
100
AcDbBlockTableRecord
  2
*PAPER_SPACE
  0
ENDTAB
  0
ENDSEC
  0
SECTION
  2
BLOCKS
  0
BLOCK
  5
20
330
1F
100
AcDbEntity
  8
0
100
AcDbBlockBegin
  2
*MODEL_SPACE
 70
     0
 10
0.0
 20
0.0
 30
0.0
  3
*MODEL_SPACE
  1

  0
ENDBLK
  5
21
330
1F
100
AcDbEntity
  8
0
100
AcDbBlockEnd
  0
BLOCK
  5
1C
330
1B
100
AcDbEntity
 67
     1
  8
0
100
AcDbBlockBegin
  2
*PAPER_SPACE
  1

  0
ENDBLK
  5
1D
330
1B
100
AcDbEntity
 67
     1
  8
0
100
AcDbBlockEnd
  0
ENDSEC
  0
SECTION
  2
ENTITIES
  0
LWPOLYLINE
  5
100
100
AcDbEntity
  8
Layer_1
 62
7
100
AcDbPolyline
 90
326
 70
0
 10
0.000000
 20
9.500059
 30
0.0
 10
0.000000
 20
0.000085
 30
0.0
 10
0.000000
 20
-0.000026
 30
0.0
 10
0.500007
 20
-0.000026
 30
0.0
 10
1.100005
 20
-0.000026
 30
0.0
 10
3.499996
 20
-0.000026
 30
0.0
 10
3.499996
 20
0.000085
 30
0.0
 10
3.499996
 20
0.500037
 30
0.0
 10
3.394715
 20
0.500037
 30
0.0
 10
3.375643
 20
0.506431
 30
0.0
 10
2.902203
 20
0.530629
 30
0.0
 10
2.902038
 20
0.535480
 30
0.0
 10
3.371784
 20
0.599200
 30
0.0
 10
3.395869
 20
0.612744
 30
0.0
 10
3.404140
 20
0.639109
 30
0.0
 10
3.398022
 20
0.722673
 30
0.0
 10
3.385968
 20
0.747539
 30
0.0
 10
3.360153
 20
0.757399
 30
0.0
 10
2.886108
 20
0.751832
 30
0.0
 10
2.885612
 20
0.756628
 30
0.0
 10
3.350452
 20
0.849783
 30
0.0
 10
3.373651
 20
0.864793
 30
0.0
 10
3.380273
 20
0.891620
 30
0.0
 10
3.368862
 20
0.974633
 30
0.0
 10
3.355302
 20
0.998683
 30
0.0
 10
3.328954
 20
1.006934
 30
0.0
 10
2.856177
 20
0.971602
 30
0.0
 10
2.855350
 20
0.976397
 30
0.0
 10
3.313410
 20
1.098491
 30
0.0
 10
3.335623
 20
1.114944
 30
0.0
 10
3.340530
 20
1.142148
 30
0.0
 10
3.323994
 20
1.224279
 30
0.0
 10
3.308931
 20
1.247430
 30
0.0
 10
3.282101
 20
1.253989
 30
0.0
 10
2.812466
 20
1.189056
 30
0.0
 10
2.811363
 20
1.193796
 30
0.0
 10
3.260879
 20
1.344388
 30
0.0
 10
3.282021
 20
1.362222
 30
0.0
 10
3.285188
 20
1.389698
 30
0.0
 10
3.263525
 20
1.470617
 30
0.0
 10
3.247022
 20
1.492783
 30
0.0
 10
3.219814
 20
1.497626
 30
0.0
 10
2.755194
 20
1.403369
 30
0.0
 10
2.753816
 20
1.407999
 30
0.0
 10
3.192970
 20
1.586537
 30
0.0
 10
3.212941
 20
1.605633
 30
0.0
 10
3.214412
 20
1.633225
 30
0.0
 10
3.187678
 20
1.712655
 30
0.0
 10
3.169830
 20
1.733763
 30
0.0
 10
3.142368
 20
1.736909
 30
0.0
 10
2.684639
 20
1.613602
 30
0.0
 10
2.682930
 20
1.618122
 30
0.0
 10
3.110012
 20
1.823946
 30
0.0
 10
3.128725
 20
1.844241
 30
0.0
 10
3.128477
 20
1.871846
 30
0.0
 10
3.096783
 20
1.949457
 30
0.0
 10
3.077660
 20
1.969362
 30
0.0
 10
3.050095
 20
1.970789
 30
0.0
 10
2.600964
 20
1.819040
 30
0.0
 10
2.598980
 20
1.823395
 30
0.0
 10
3.012281
 20
2.055621
 30
0.0
 10
3.029707
 20
2.077065
 30
0.0
 10
3.027715
 20
2.104625
 30
0.0
 10
2.991225
 20
2.180086
 30
0.0
 10
2.970881
 20
2.198758
 30
0.0
 10
2.943269
 20
2.198441
 30
0.0
 10
2.504557
 20
2.018745
 30
0.0
 10
2.502352
 20
2.023045
 30
0.0
 10
2.900274
 20
2.280738
 30
0.0
 10
2.916273
 20
2.303257
 30
0.0
 10
2.912511
 20
2.330623
 30
0.0
 10
2.871391
 20
2.403604
 30
0.0
 10
2.849922
 20
2.420966
 30
0.0
 10
2.822388
 20
2.418928
 30
0.0
 10
2.395802
 20
2.212056
 30
0.0
 10
2.393322
 20
2.216191
 30
0.0
 10
2.774266
 20
2.498358
 30
0.0
 10
2.788849
 20
2.521855
 30
0.0
 10
2.783362
 20
2.548959
 30
0.0
 10
2.737776
 20
2.619184
 30
0.0
 10
2.724138
 20
2.631767
 30
0.0
 10
2.706136
 20
2.636272
 30
0.0
 10
2.687891
 20
2.631421
 30
0.0
 10
2.274976
 20
2.398092
 30
0.0
 10
2.266377
 20
2.410163
 30
0.0
 10
2.634368
 20
2.707378
 30
0.0
 10
2.647870
 20
2.730865
 30
0.0
 10
2.642030
 20
2.757318
 30
0.0
 10
2.601516
 20
2.818228
 30
0.0
 10
2.579394
 20
2.833863
 30
0.0
 10
2.552513
 20
2.830520
 30
0.0
 10
2.135959
 20
2.606506
 30
0.0
 10
2.129014
 20
2.617751
 30
0.0
 10
2.514920
 20
2.891264
 30
0.0
 10
2.529839
 20
2.913851
 30
0.0
 10
2.525668
 20
2.940598
 30
0.0
 10
2.489123
 20
3.003932
 30
0.0
 10
2.468028
 20
3.020908
 30
0.0
 10
2.441002
 20
3.019256
 30
0.0
 10
2.011164
 20
2.821811
 30
0.0
 10
2.004880
 20
2.833552
 30
0.0
 10
2.407212
 20
3.082260
 30
0.0
 10
2.423527
 20
3.103864
 30
0.0
 10
2.421048
 20
3.130822
 30
0.0
 10
2.388526
 20
3.196361
 30
0.0
 10
2.368531
 20
3.214623
 30
0.0
 10
2.341452
 20
3.214662
 30
0.0
 10
1.900094
 20
3.044612
 30
0.0
 10
1.894582
 20
3.056684
 30
0.0
 10
2.311742
 20
3.279650
 30
0.0
 10
2.329398
 20
3.300196
 30
0.0
 10
2.328609
 20
3.327275
 30
0.0
 10
2.300276
 20
3.394689
 30
0.0
 10
2.281457
 20
3.414183
 30
0.0
 10
2.254415
 20
3.415911
 30
0.0
 10
1.803301
 20
3.273918
 30
0.0
 10
1.798505
 20
3.286320
 30
0.0
 10
2.228839
 20
3.482608
 30
0.0
 10
2.247760
 20
3.501998
 30
0.0
 10
2.248683
 20
3.529075
 30
0.0
 10
2.224595
 20
3.598198
 30
0.0
 10
2.207055
 20
3.618793
 30
0.0
 10
2.180222
 20
3.622231
 30
0.0
 10
1.721004
 20
3.508846
 30
0.0
 10
1.717091
 20
3.521523
 30
0.0
 10
2.158835
 20
3.690416
 30
0.0
 10
2.178935
 20
3.708589
 30
0.0
 10
2.181545
 20
3.735560
 30
0.0
 10
2.161866
 20
3.806006
 30
0.0
 10
2.145674
 20
3.827706
 30
0.0
 10
2.119092
 20
3.832850
 30
0.0
 10
1.653701
 20
3.748514
 30
0.0
 10
1.650504
 20
3.761357
 30
0.0
 10
2.102059
 20
3.902248
 30
0.0
 10
2.123229
 20
3.919121
 30
0.0
 10
2.127526
 20
3.945849
 30
0.0
 10
2.112367
 20
4.017397
 30
0.0
 10
2.097535
 20
4.040067
 30
0.0
 10
2.071302
 20
4.046832
 30
0.0
 10
1.601501
 20
3.991875
 30
0.0
 10
1.599186
 20
4.004939
 30
0.0
 10
2.058624
 20
4.117167
 30
0.0
 10
2.080845
 20
4.132649
 30
0.0
 10
2.086846
 20
4.159059
 30
0.0
 10
2.076152
 20
4.231434
 30
0.0
 10
2.062798
 20
4.254981
 30
0.0
 10
2.037071
 20
4.263404
 30
0.0
 10
1.564735
 20
4.238048
 30
0.0
 10
1.563247
 20
4.251222
 30
0.0
 10
2.028858
 20
4.334401
 30
0.0
 10
2.051996
 20
4.348482
 30
0.0
 10
2.059616
 20
4.374474
 30
0.0
 10
2.053497
 20
4.447345
 30
0.0
 10
2.041642
 20
4.471721
 30
0.0
 10
2.016456
 20
4.481741
 30
0.0
 10
1.543513
 20
4.486040
 30
0.0
 10
1.542796
 20
4.499324
 30
0.0
 10
2.012707
 20
4.553068
 30
0.0
 10
2.036690
 20
4.565650
 30
0.0
 10
2.045946
 20
4.591102
 30
0.0
 10
2.044402
 20
4.664248
 30
0.0
 10
2.034112
 20
4.689313
 30
0.0
 10
2.009621
 20
4.700904
 30
0.0
 10
1.537891
 20
4.734914
 30
0.0
 10
1.538001
 20
4.748198
 30
0.0
 10
2.010392
 20
4.772341
 30
0.0
 10
2.035117
 20
4.783400
 30
0.0
 10
2.045946
 20
4.808225
 30
0.0
 10
2.048977
 20
4.881316
 30
0.0
 10
2.040256
 20
4.906933
 30
0.0
 10
2.016566
 20
4.920012
 30
0.0
 10
1.547868
 20
4.983622
 30
0.0
 10
1.548860
 20
4.996851
 30
0.0
 10
2.021803
 20
4.991339
 30
0.0
 10
2.047148
 20
5.000830
 30
0.0
 10
2.059506
 20
5.024908
 30
0.0
 10
2.067168
 20
5.097669
 30
0.0
 10
2.060076
 20
5.123802
 30
0.0
 10
2.037237
 20
5.138348
 30
0.0
 10
1.573499
 20
5.231228
 30
0.0
 10
1.575318
 20
5.244347
 30
0.0
 10
2.046938
 20
5.209124
 30
0.0
 10
2.072870
 20
5.216986
 30
0.0
 10
2.086736
 20
5.240268
 30
0.0
 10
2.098918
 20
5.312422
 30
0.0
 10
2.093480
 20
5.338967
 30
0.0
 10
2.071577
 20
5.354921
 30
0.0
 10
1.614620
 20
5.476739
 30
0.0
 10
1.617210
 20
5.489748
 30
0.0
 10
2.085743
 20
5.424925
 30
0.0
 10
2.112089
 20
5.431174
 30
0.0
 10
2.127360
 20
5.453533
 30
0.0
 10
2.144062
 20
5.524750
 30
0.0
 10
2.140323
 20
5.551589
 30
0.0
 10
2.119478
 20
5.568902
 30
0.0
 10
1.671009
 20
5.719164
 30
0.0
 10
1.674482
 20
5.731952
 30
0.0
 10
2.137999
 20
5.637914
 30
0.0
 10
2.164673
 20
5.642487
 30
0.0
 10
2.181324
 20
5.663822
 30
0.0
 10
2.202491
 20
5.733881
 30
0.0
 10
2.200409
 20
5.760857
 30
0.0
 10
2.180718
 20
5.779412
 30
0.0
 10
1.742557
 20
5.957564
 30
0.0
 10
1.746801
 20
5.970132
 30
0.0
 10
2.203483
 20
5.847156
 30
0.0
 10
2.230430
 20
5.850028
 30
0.0
 10
2.248407
 20
5.870307
 30
0.0
 10
2.273928
 20
5.938878
 30
0.0
 10
2.273549
 20
5.965966
 30
0.0
 10
2.255022
 20
5.985731
 30
0.0
 10
1.828932
 20
6.191004
 30
0.0
 10
1.833948
 20
6.203296
 30
0.0
 10
2.282031
 20
6.051877
 30
0.0
 10
2.309113
 20
6.053046
 30
0.0
 10
2.328333
 20
6.072162
 30
0.0
 10
2.358044
 20
6.138969
 30
0.0
 10
2.359391
 20
6.166021
 30
0.0
 10
2.342169
 20
6.186925
 30
0.0
 10
1.929805
 20
6.418601
 30
0.0
 10
1.935592
 20
6.430507
 30
0.0
 10
2.373257
 20
6.251252
 30
0.0
 10
2.400351
 20
6.250740
 30
0.0
 10
2.420717
 20
6.268615
 30
0.0
 10
2.454617
 20
6.333438
 30
0.0
 10
2.457646
 20
6.360342
 30
0.0
 10
2.441773
 20
6.382276
 30
0.0
 10
2.044733
 20
6.639362
 30
0.0
 10
2.051237
 20
6.650938
 30
0.0
 10
2.476831
 20
6.444508
 30
0.0
 10
2.503832
 20
6.442290
 30
0.0
 10
2.525283
 20
6.458839
 30
0.0
 10
2.563206
 20
6.521402
 30
0.0
 10
2.567920
 20
6.548109
 30
0.0
 10
2.553395
 20
6.571012
 30
0.0
 10
2.173332
 20
6.852517
 30
0.0
 10
2.180553
 20
6.863597
 30
0.0
 10
2.592365
 20
6.630929
 30
0.0
 10
2.619153
 20
6.627027
 30
0.0
 10
2.641589
 20
6.642174
 30
0.0
 10
2.683371
 20
6.702256
 30
0.0
 10
2.689721
 20
6.728572
 30
0.0
 10
2.676701
 20
6.752306
 30
0.0
 10
2.313561
 20
7.058341
 30
0.0
 10
2.316648
 20
7.062971
 30
0.0
 10
2.734193
 20
6.838461
 30
0.0
 10
2.761617
 20
6.835256
 30
0.0
 10
2.783803
 20
6.851691
 30
0.0
 10
2.827955
 20
6.922908
 30
0.0
 10
2.832845
 20
6.950120
 30
0.0
 10
2.817757
 20
6.973289
 30
0.0
 10
2.430970
 20
7.247408
 30
0.0
 10
2.433395
 20
7.251597
 30
0.0
 10
2.864225
 20
7.053711
 30
0.0
 10
2.891790
 20
7.052237
 30
0.0
 10
2.912897
 20
7.070027
 30
0.0
 10
2.952474
 20
7.143890
 30
0.0
 10
2.955632
 20
7.171337
 30
0.0
 10
2.939135
 20
7.193499
 30
0.0
 10
2.535921
 20
7.442814
 30
0.0
 10
2.538071
 20
7.447113
 30
0.0
 10
2.980476
 20
7.276678
 30
0.0
 10
3.008092
 20
7.276932
 30
0.0
 10
3.028046
 20
7.296025
 30
0.0
 10
3.062883
 20
7.372203
 30
0.0
 10
3.064334
 20
7.399781
 30
0.0
 10
3.046512
 20
7.420875
 30
0.0
 10
2.628415
 20
7.644393
 30
0.0
 10
2.630289
 20
7.648858
 30
0.0
 10
3.082451
 20
7.506534
 30
0.0
 10
3.110028
 20
7.508516
 30
0.0
 10
3.128753
 20
7.528859
 30
0.0
 10
3.158739
 20
7.607076
 30
0.0
 10
3.158438
 20
7.634672
 30
0.0
 10
3.139336
 20
7.654591
 30
0.0
 10
2.708010
 20
7.851375
 30
0.0
 10
2.709609
 20
7.855950
 30
0.0
 10
3.169874
 20
7.742289
 30
0.0
 10
3.197242
 20
7.746020
 30
0.0
 10
3.214632
 20
7.767480
 30
0.0
 10
3.239713
 20
7.847461
 30
0.0
 10
3.237664
 20
7.875032
 30
0.0
 10
3.217278
 20
7.893708
 30
0.0
 10
2.774487
 20
8.062986
 30
0.0
 10
2.775810
 20
8.067671
 30
0.0
 10
3.242304
 20
7.983115
 30
0.0
 10
3.269392
 20
7.988549
 30
0.0
 10
3.285408
 20
8.011062
 30
0.0
 10
3.305362
 20
8.092421
 30
0.0
 10
3.301610
 20
8.119804
 30
0.0
 10
3.280117
 20
8.137180
 30
0.0
 10
2.827569
 20
8.278401
 30
0.0
 10
2.828561
 20
8.283086
 30
0.0
 10
3.299409
 20
8.228020
 30
0.0
 10
3.326115
 20
8.235135
 30
0.0
 10
3.340695
 20
8.258612
 30
0.0
 10
3.355523
 20
8.341074
 30
0.0
 10
3.350047
 20
8.368144
 30
0.0
 10
3.327521
 20
8.384124
 30
0.0
 10
2.866981
 20
8.496627
 30
0.0
 10
2.867698
 20
8.501423
 30
0.0
 10
3.341081
 20
8.476012
 30
0.0
 10
3.367265
 20
8.484804
 30
0.0
 10
3.380328
 20
8.509140
 30
0.0
 10
3.389974
 20
8.592373
 30
0.0
 10
3.382818
 20
8.619060
 30
0.0
 10
3.359326
 20
8.633604
 30
0.0
 10
2.892612
 20
8.716948
 30
0.0
 10
2.893054
 20
8.721744
 30
0.0
 10
3.367099
 20
8.726098
 30
0.0
 10
3.392692
 20
8.736524
 30
0.0
 10
3.404195
 20
8.761652
 30
0.0
 10
3.408550
 20
8.845326
 30
0.0
 10
3.399718
 20
8.871492
 30
0.0
 10
3.375367
 20
8.884517
 30
0.0
 10
2.904408
 20
8.938426
 30
0.0
 10
2.904519
 20
8.943277
 30
0.0
 10
3.377406
 20
8.977397
 30
0.0
 10
3.396458
 20
8.984273
 30
0.0
 10
3.409156
 20
9.000052
 30
0.0
 10
3.499996
 20
9.000052
 30
0.0
 10
3.499996
 20
9.500059
 30
0.0
 10
1.100005
 20
9.500059
 30
0.0
 10
0.500007
 20
9.500059
 30
0.0
 10
0.000000
 20
9.500059
 30
0.0
 10
0.000000
 20
9.500059
 30
0.0
  0
LWPOLYLINE
  5
101
100
AcDbEntity
  8
Layer_1
 62
7
100
AcDbPolyline
 90
325
 70
0
 10
1.100005
 20
9.000052
 30
0.0
 10
2.837270
 20
9.000052
 30
0.0
 10
2.830215
 20
8.978996
 30
0.0
 10
2.828672
 20
8.905849
 30
0.0
 10
2.837928
 20
8.880398
 30
0.0
 10
2.861910
 20
8.867816
 30
0.0
 10
3.331821
 20
8.814017
 30
0.0
 10
3.331159
 20
8.800788
 30
0.0
 10
2.858162
 20
8.796433
 30
0.0
 10
2.833027
 20
8.786415
 30
0.0
 10
2.821175
 20
8.762092
 30
0.0
 10
2.815001
 20
8.689167
 30
0.0
 10
2.822662
 20
8.663193
 30
0.0
 10
2.845814
 20
8.649148
 30
0.0
 10
3.311426
 20
8.565970
 30
0.0
 10
3.309882
 20
8.552796
 30
0.0
 10
2.837601
 20
8.578152
 30
0.0
 10
2.811840
 20
8.569748
 30
0.0
 10
2.798465
 20
8.546181
 30
0.0
 10
2.787771
 20
8.473807
 30
0.0
 10
2.793752
 20
8.447363
 30
0.0
 10
2.815993
 20
8.431859
 30
0.0
 10
3.275431
 20
8.319632
 30
0.0
 10
3.273116
 20
8.306623
 30
0.0
 10
2.803371
 20
8.361579
 30
0.0
 10
2.777122
 20
8.354794
 30
0.0
 10
2.762305
 20
8.332089
 30
0.0
 10
2.747092
 20
8.260542
 30
0.0
 10
2.751409
 20
8.233799
 30
0.0
 10
2.772613
 20
8.216941
 30
0.0
 10
3.224113
 20
8.076050
 30
0.0
 10
3.220971
 20
8.063207
 30
0.0
 10
2.755525
 20
8.147543
 30
0.0
 10
2.728957
 20
8.142420
 30
0.0
 10
2.712751
 20
8.120754
 30
0.0
 10
2.693072
 20
8.050253
 30
0.0
 10
2.695705
 20
8.023315
 30
0.0
 10
2.715783
 20
8.005164
 30
0.0
 10
3.157582
 20
7.836216
 30
0.0
 10
3.153613
 20
7.823538
 30
0.0
 10
2.694451
 20
7.936978
 30
0.0
 10
2.667570
 20
7.933541
 30
0.0
 10
2.650023
 20
7.912890
 30
0.0
 10
2.625990
 20
7.843823
 30
0.0
 10
2.626912
 20
7.816746
 30
0.0
 10
2.645833
 20
7.797356
 30
0.0
 10
3.076112
 20
7.601013
 30
0.0
 10
3.071371
 20
7.588610
 30
0.0
 10
2.620202
 20
7.730658
 30
0.0
 10
2.593194
 20
7.728909
 30
0.0
 10
2.574396
 20
7.709437
 30
0.0
 10
2.546008
 20
7.641968
 30
0.0
 10
2.545242
 20
7.614877
 30
0.0
 10
2.562931
 20
7.594343
 30
0.0
 10
2.980035
 20
7.371376
 30
0.0
 10
2.974523
 20
7.359305
 30
0.0
 10
2.533165
 20
7.529410
 30
0.0
 10
2.506073
 20
7.529349
 30
0.0
 10
2.486091
 20
7.511054
 30
0.0
 10
2.453569
 20
7.445570
 30
0.0
 10
2.451090
 20
7.418569
 30
0.0
 10
2.467460
 20
7.396953
 30
0.0
 10
2.869737
 20
7.148244
 30
0.0
 10
2.863453
 20
7.136559
 30
0.0
 10
2.433671
 20
7.334004
 30
0.0
 10
2.406644
 20
7.335656
 30
0.0
 10
2.385549
 20
7.318680
 30
0.0
 10
2.348949
 20
7.255346
 30
0.0
 10
2.344778
 20
7.228557
 30
0.0
 10
2.359753
 20
7.205957
 30
0.0
 10
2.745658
 20
6.932444
 30
0.0
 10
2.738658
 20
6.921199
 30
0.0
 10
2.322105
 20
7.145213
 30
0.0
 10
2.295234
 20
7.148580
 30
0.0
 10
2.273102
 20
7.132976
 30
0.0
 10
2.235619
 20
7.076586
 30
0.0
 10
2.226056
 20
7.049955
 30
0.0
 10
2.237824
 20
7.024221
 30
0.0
 10
2.238761
 20
7.023394
 30
0.0
 10
2.239753
 20
7.022512
 30
0.0
 10
2.240911
 20
7.021575
 30
0.0
 10
2.602232
 20
6.716974
 30
0.0
 10
2.599476
 20
6.713005
 30
0.0
 10
2.186781
 20
6.946279
 30
0.0
 10
2.159384
 20
6.950066
 30
0.0
 10
2.136841
 20
6.934042
 30
0.0
 10
2.091256
 20
6.863762
 30
0.0
 10
2.085794
 20
6.836688
 30
0.0
 10
2.100351
 20
6.813216
 30
0.0
 10
2.481351
 20
6.531049
 30
0.0
 10
2.478815
 20
6.526914
 30
0.0
 10
2.052285
 20
6.733786
 30
0.0
 10
2.024718
 20
6.735848
 30
0.0
 10
2.003227
 20
6.718462
 30
0.0
 10
1.962106
 20
6.645481
 30
0.0
 10
1.958368
 20
6.618103
 30
0.0
 10
1.974398
 20
6.595596
 30
0.0
 10
2.372320
 20
6.337903
 30
0.0
 10
2.370060
 20
6.333603
 30
0.0
 10
1.931403
 20
6.513299
 30
0.0
 10
1.903759
 20
6.513640
 30
0.0
 10
1.883392
 20
6.494944
 30
0.0
 10
1.846957
 20
6.419483
 30
0.0
 10
1.844942
 20
6.391936
 30
0.0
 10
1.862336
 20
6.370480
 30
0.0
 10
2.275637
 20
6.138308
 30
0.0
 10
2.273653
 20
6.133843
 30
0.0
 10
1.824578
 20
6.285648
 30
0.0
 10
1.796966
 20
6.284222
 30
0.0
 10
1.777835
 20
6.264260
 30
0.0
 10
1.746195
 20
6.186705
 30
0.0
 10
1.745901
 20
6.159080
 30
0.0
 10
1.764605
 20
6.138749
 30
0.0
 10
2.191687
 20
5.932980
 30
0.0
 10
2.190033
 20
5.928460
 30
0.0
 10
1.732249
 20
6.051712
 30
0.0
 10
1.704801
 20
6.048587
 30
0.0
 10
1.686939
 20
6.027513
 30
0.0
 10
1.660205
 20
5.948083
 30
0.0
 10
1.661676
 20
5.920491
 30
0.0
 10
1.681648
 20
5.901395
 30
0.0
 10
2.120801
 20
5.722802
 30
0.0
 10
2.119423
 20
5.718171
 30
0.0
 10
1.654803
 20
5.812484
 30
0.0
 10
1.627615
 20
5.807599
 30
0.0
 10
1.611147
 20
5.785420
 30
0.0
 10
1.589484
 20
5.704501
 30
0.0
 10
1.592653
 20
5.677073
 30
0.0
 10
1.613738
 20
5.659246
 30
0.0
 10
2.063254
 20
5.508599
 30
0.0
 10
2.062151
 20
5.503914
 30
0.0
 10
1.592571
 20
5.568847
 30
0.0
 10
1.565741
 20
5.562288
 30
0.0
 10
1.550679
 20
5.539137
 30
0.0
 10
1.534087
 20
5.457006
 30
0.0
 10
1.538994
 20
5.429802
 30
0.0
 10
1.561207
 20
5.413349
 30
0.0
 10
2.019267
 20
5.291255
 30
0.0
 10
2.018440
 20
5.286460
 30
0.0
 10
1.545718
 20
5.321793
 30
0.0
 10
1.519335
 20
5.313561
 30
0.0
 10
1.505755
 20
5.289491
 30
0.0
 10
1.494400
 20
5.206478
 30
0.0
 10
1.501000
 20
5.179667
 30
0.0
 10
1.524165
 20
5.164641
 30
0.0
 10
1.989005
 20
5.071486
 30
0.0
 10
1.988509
 20
5.066690
 30
0.0
 10
1.514464
 20
5.072258
 30
0.0
 10
1.488684
 20
5.062379
 30
0.0
 10
1.476651
 20
5.037531
 30
0.0
 10
1.470477
 20
4.953967
 30
0.0
 10
1.478748
 20
4.927602
 30
0.0
 10
1.502833
 20
4.914059
 30
0.0
 10
1.972634
 20
4.850283
 30
0.0
 10
1.972414
 20
4.845487
 30
0.0
 10
1.498975
 20
4.821289
 30
0.0
 10
1.473812
 20
4.809804
 30
0.0
 10
1.463366
 20
4.784192
 30
0.0
 10
1.462484
 20
4.700463
 30
0.0
 10
1.472403
 20
4.674647
 30
0.0
 10
1.497321
 20
4.662649
 30
0.0
 10
1.970154
 20
4.628529
 30
0.0
 10
1.970264
 20
4.623678
 30
0.0
 10
1.499250
 20
4.569825
 30
0.0
 10
1.474879
 20
4.556779
 30
0.0
 10
1.466067
 20
4.530578
 30
0.0
 10
1.470422
 20
4.446904
 30
0.0
 10
1.481943
 20
4.421811
 30
0.0
 10
1.507519
 20
4.411405
 30
0.0
 10
1.981619
 20
4.407051
 30
0.0
 10
1.982005
 20
4.402200
 30
0.0
 10
1.515346
 20
4.318856
 30
0.0
 10
1.491819
 20
4.304329
 30
0.0
 10
1.484643
 20
4.277625
 30
0.0
 10
1.494290
 20
4.194392
 30
0.0
 10
1.507352
 20
4.170056
 30
0.0
 10
1.533536
 20
4.161264
 30
0.0
 10
2.006920
 20
4.186675
 30
0.0
 10
2.007636
 20
4.181934
 30
0.0
 10
1.547151
 20
4.069431
 30
0.0
 10
1.524570
 20
4.053446
 30
0.0
 10
1.519094
 20
4.026326
 30
0.0
 10
1.533922
 20
3.943865
 30
0.0
 10
1.548502
 20
3.920387
 30
0.0
 10
1.575208
 20
3.913272
 30
0.0
 10
2.046056
 20
3.968394
 30
0.0
 10
2.047048
 20
3.963653
 30
0.0
 10
1.594500
 20
3.822432
 30
0.0
 10
1.573029
 20
3.805077
 30
0.0
 10
1.569255
 20
3.777728
 30
0.0
 10
1.589264
 20
3.696369
 30
0.0
 10
1.605280
 20
3.673857
 30
0.0
 10
1.632369
 20
3.668422
 30
0.0
 10
2.098807
 20
3.752924
 30
0.0
 10
2.100130
 20
3.748294
 30
0.0
 10
1.657339
 20
3.578960
 30
0.0
 10
1.636986
 20
3.560271
 30
0.0
 10
1.634960
 20
3.532713
 30
0.0
 10
1.659985
 20
3.452787
 30
0.0
 10
1.677375
 20
3.431328
 30
0.0
 10
1.704743
 20
3.427596
 30
0.0
 10
2.165008
 20
3.541257
 30
0.0
 10
2.166607
 20
3.536682
 30
0.0
 10
1.735336
 20
3.339898
 30
0.0
 10
1.716178
 20
3.319970
 30
0.0
 10
1.715878
 20
3.292328
 30
0.0
 10
1.745864
 20
3.214111
 30
0.0
 10
1.764589
 20
3.193769
 30
0.0
 10
1.792166
 20
3.191787
 30
0.0
 10
2.244328
 20
3.334110
 30
0.0
 10
2.246202
 20
3.329700
 30
0.0
 10
1.828161
 20
3.106183
 30
0.0
 10
1.810306
 20
3.085100
 30
0.0
 10
1.811734
 20
3.057510
 30
0.0
 10
1.846571
 20
2.981332
 30
0.0
 10
1.866534
 20
2.962183
 30
0.0
 10
1.894196
 20
2.961930
 30
0.0
 10
2.336546
 20
3.132421
 30
0.0
 10
2.338696
 20
3.128066
 30
0.0
 10
1.935482
 20
2.878751
 30
0.0
 10
1.918985
 20
2.856589
 30
0.0
 10
1.922143
 20
2.829142
 30
0.0
 10
1.961720
 20
2.755334
 30
0.0
 10
1.982838
 20
2.737487
 30
0.0
 10
2.010447
 20
2.738963
 30
0.0
 10
2.441222
 20
2.936849
 30
0.0
 10
2.443648
 20
2.932660
 30
0.0
 10
2.056860
 20
2.658541
 30
0.0
 10
2.041798
 20
2.635397
 30
0.0
 10
2.046662
 20
2.608215
 30
0.0
 10
2.090815
 20
2.536998
 30
0.0
 10
2.112989
 20
2.520532
 30
0.0
 10
2.140424
 20
2.523714
 30
0.0
 10
2.557970
 20
2.748279
 30
0.0
 10
2.560615
 20
2.744255
 30
0.0
 10
2.191852
 20
2.446378
 30
0.0
 10
2.178252
 20
2.422300
 30
0.0
 10
2.184852
 20
2.395446
 30
0.0
 10
2.231375
 20
2.329962
 30
0.0
 10
2.250888
 20
2.313590
 30
0.0
 10
2.261526
 20
2.311330
 30
0.0
 10
2.261857
 20
2.311220
 30
0.0
 10
2.262077
 20
2.311220
 30
0.0
 10
2.265605
 20
2.311220
 30
0.0
 10
2.268416
 20
2.311496
 30
0.0
 10
2.270015
 20
2.311716
 30
0.0
 10
2.270290
 20
2.311771
 30
0.0
 10
2.270952
 20
2.311937
 30
0.0
 10
2.273928
 20
2.312598
 30
0.0
 10
2.277511
 20
2.313756
 30
0.0
 10
2.280929
 20
2.315299
 30
0.0
 10
2.284291
 20
2.317173
 30
0.0
 10
2.694065
 20
2.548794
 30
0.0
 10
2.701286
 20
2.537659
 30
0.0
 10
2.321223
 20
2.256154
 30
0.0
 10
2.306753
 20
2.233265
 30
0.0
 10
2.311466
 20
2.206599
 30
0.0
 10
2.349335
 20
2.143981
 30
0.0
 10
2.370797
 20
2.127463
 30
0.0
 10
2.397786
 20
2.129705
 30
0.0
 10
2.823380
 20
2.336080
 30
0.0
 10
2.829884
 20
2.324504
 30
0.0
 10
2.432899
 20
2.067418
 30
0.0
 10
2.416995
 20
2.045496
 30
0.0
 10
2.420000
 20
2.018580
 30
0.0
 10
2.453900
 20
1.953757
 30
0.0
 10
2.474266
 20
1.935881
 30
0.0
 10
2.501360
 20
1.936394
 30
0.0
 10
2.939080
 20
2.115649
 30
0.0
 10
2.944812
 20
2.103743
 30
0.0
 10
2.532448
 20
1.872067
 30
0.0
 10
2.515226
 20
1.851163
 30
0.0
 10
2.516573
 20
1.824111
 30
0.0
 10
2.546339
 20
1.757304
 30
0.0
 10
2.565537
 20
1.738211
 30
0.0
 10
2.592586
 20
1.737019
 30
0.0
 10
3.040669
 20
1.888438
 30
0.0
 10
3.045685
 20
1.876201
 30
0.0
 10
2.619595
 20
1.670873
 30
0.0
 10
2.601101
 20
1.651095
 30
0.0
 10
2.600744
 20
1.624020
 30
0.0
 10
2.626210
 20
1.555449
 30
0.0
 10
2.644187
 20
1.535170
 30
0.0
 10
2.671134
 20
1.532298
 30
0.0
 10
3.127816
 20
1.655274
 30
0.0
 10
3.132060
 20
1.642706
 30
0.0
 10
2.693899
 20
1.464553
 30
0.0
 10
2.674186
 20
1.445976
 30
0.0
 10
2.672126
 20
1.418968
 30
0.0
 10
2.693293
 20
1.348964
 30
0.0
 10
2.709966
 20
1.327608
 30
0.0
 10
2.736674
 20
1.323056
 30
0.0
 10
3.200191
 20
1.417094
 30
0.0
 10
3.203608
 20
1.404306
 30
0.0
 10
2.755139
 20
1.254044
 30
0.0
 10
2.734294
 20
1.236731
 30
0.0
 10
2.730555
 20
1.209892
 30
0.0
 10
2.747257
 20
1.138675
 30
0.0
 10
2.762549
 20
1.116296
 30
0.0
 10
2.788929
 20
1.110067
 30
0.0
 10
3.257407
 20
1.174890
 30
0.0
 10
3.260052
 20
1.161881
 30
0.0
 10
2.803040
 20
1.040063
 30
0.0
 10
2.781137
 20
1.024109
 30
0.0
 10
2.775700
 20
0.997564
 30
0.0
 10
2.787937
 20
0.925410
 30
0.0
 10
2.801782
 20
0.902148
 30
0.0
 10
2.827679
 20
0.894266
 30
0.0
 10
3.299354
 20
0.929489
 30
0.0
 10
3.301173
 20
0.916370
 30
0.0
 10
2.837381
 20
0.823490
 30
0.0
 10
2.814521
 20
0.808923
 30
0.0
 10
2.807450
 20
0.782755
 30
0.0
 10
2.815112
 20
0.710050
 30
0.0
 10
2.827452
 20
0.685937
 30
0.0
 10
2.852815
 20
0.676426
 30
0.0
 10
3.325757
 20
0.681993
 30
0.0
 10
3.326749
 20
0.668764
 30
0.0
 10
2.858051
 20
0.605209
 30
0.0
 10
2.834342
 20
0.592109
 30
0.0
 10
2.825640
 20
0.566458
 30
0.0
 10
2.828451
 20
0.500037
 30
0.0
 10
1.100005
 20
0.500037
 30
0.0
 10
1.100005
 20
9.000052
 30
0.0
 10
1.100005
 20
9.000052
 30
0.0
  0
ENDSEC
  0
SECTION
  2
OBJECTS
  0
DICTIONARY
  5
C
330
0
100
AcDbDictionary
  3
ACAD_GROUP
350
D
  3
ACAD_MLINESTYLE
350
17
  0
DICTIONARY
  5
D
330
C
100
AcDbDictionary
  0
DICTIONARY
  5
1A
330
C
100
AcDbDictionary
  0
DICTIONARY
  5
17
330
C
100
AcDbDictionary
  3
STANDARD
350
18
  0
DICTIONARY
  5
19
330
C
100
AcDbDictionary
  0
ENDSEC
  0
EOF
