  0
SECTION
  2
HEADER
  9
$ACADVER
  1
AC1014
  9
$HANDSEED
  5
FFFF
  9
$MEASUREMENT
 70
     1
  0
ENDSEC
  0
SECTION
  2
TABLES
  0
TABLE
  2
VPORT
  5
8
330
0
100
AcDbSymbolTable
 70
     4
  0
VPORT
  5
2E
330
8
100
AcDbSymbolTableRecord
100
AcDbViewportTableRecord
  2
*ACTIVE
 70
     0
 10
0.0
 20
0.0
 11
1.0
 21
1.0
 12
210.0
 22
148.5
 13
0.0
 23
0.0
 14
10.0
 24
10.0
 15
10.0
 25
10.0
 16
0.0
 26
0.0
 36
1.0
 17
0.0
 27
0.0
 37
0.0
 40
341.0
 41
1.24
 42
50.0
 43
0.0
 44
0.0
 50
0.0
 51
0.0
 71
     0
 72
   100
 73
     1
 74
     3
 75
     0
 76
     0
 77
     0
 78
     0
  0
ENDTAB
  0
TABLE
  2
LTYPE
  5
5
330
0
100
AcDbSymbolTable
 70
     1
  0
LTYPE
  5
14
330
5
100
AcDbSymbolTableRecord
100
AcDbLinetypeTableRecord
  2
BYBLOCK
 70
     0
  3

 72
    65
 73
     0
 40
0.0
  0
LTYPE
  5
15
330
5
100
AcDbSymbolTableRecord
100
AcDbLinetypeTableRecord
  2
BYLAYER
 70
     0
  3

 72
    65
 73
     0
 40
0.0
  0
LTYPE
  5
16
330
5
100
AcDbSymbolTableRecord
100
AcDbLinetypeTableRecord
  2
CONTINUOUS
 70
     0
  3
Solid line
 72
    65
 73
     0
 40
0.0
  0
ENDTAB
  0
TABLE
  2
LAYER
  5
2
100
AcDbSymbolTable
 70
2
  0
LAYER
  5
50
100
AcDbSymbolTableRecord
100
AcDbLayerTableRecord
  2
0
 70
0
  6
CONTINUOUS
  0
LAYER
  5
51
100
AcDbSymbolTableRecord
100
AcDbLayerTableRecord
  2
Layer_1
 70
0
  6
CONTINUOUS
  0
ENDTAB
  0
TABLE
  2
STYLE
  5
3
330
0
100
AcDbSymbolTable
 70
     1
  0
STYLE
  5
11
330
3
100
AcDbSymbolTableRecord
100
AcDbTextStyleTableRecord
  2
STANDARD
 70
     0
 40
0.0
 41
1.0
 50
0.0
 71
     0
 42
2.5
  3
txt
  4

  0
ENDTAB
  0
TABLE
  2
VIEW
  5
6
330
0
100
AcDbSymbolTable
 70
     0
  0
ENDTAB
  0
TABLE
  2
UCS
  5
7
330
0
100
AcDbSymbolTable
 70
     0
  0
ENDTAB
  0
TABLE
  2
APPID
  5
9
330
0
100
AcDbSymbolTable
 70
     2
  0
APPID
  5
12
330
9
100
AcDbSymbolTableRecord
100
AcDbRegAppTableRecord
  2
ACAD
 70
     0
  0
ENDTAB
  0
TABLE
  2
DIMSTYLE
  5
A
330
0
100
AcDbSymbolTable
 70
     1
  0
DIMSTYLE
105
27
330
A
100
AcDbSymbolTableRecord
100
AcDbDimStyleTableRecord
  2
ISO-25
 70
     0
  3

  4

  5

  6

  7

 40
1.0
 41
2.5
 42
0.625
 43
3.75
 44
1.25
 45
0.0
 46
0.0
 47
0.0
 48
0.0
140
2.5
141
2.5
142
0.0
143
0.03937007874016
144
1.0
145
0.0
146
1.0
147
0.625
 71
     0
 72
     0
 73
     0
 74
     0
 75
     0
 76
     0
 77
     1
 78
     8
170
     0
171
     3
172
     1
173
     0
174
     0
175
     0
176
     0
177
     0
178
     0
270
     2
271
     2
272
     2
273
     2
274
     3
340
11
275
     0
280
     0
281
     0
282
     0
283
     0
284
     8
285
     0
286
     0
287
     3
288
     0
  0
ENDTAB
  0
TABLE
  2
BLOCK_RECORD
  5
1
330
0
100
AcDbSymbolTable
 70
     1
  0
BLOCK_RECORD
  5
1F
330
1
100
AcDbSymbolTableRecord
100
AcDbBlockTableRecord
  2
*MODEL_SPACE
  0
BLOCK_RECORD
  5
1B
330
1
100
AcDbSymbolTableRecord
100
AcDbBlockTableRecord
  2
*PAPER_SPACE
  0
ENDTAB
  0
ENDSEC
  0
SECTION
  2
BLOCKS
  0
BLOCK
  5
20
330
1F
100
AcDbEntity
  8
0
100
AcDbBlockBegin
  2
*MODEL_SPACE
 70
     0
 10
0.0
 20
0.0
 30
0.0
  3
*MODEL_SPACE
  1

  0
ENDBLK
  5
21
330
1F
100
AcDbEntity
  8
0
100
AcDbBlockEnd
  0
BLOCK
  5
1C
330
1B
100
AcDbEntity
 67
     1
  8
0
100
AcDbBlockBegin
  2
*PAPER_SPACE
  1

  0
ENDBLK
  5
1D
330
1B
100
AcDbEntity
 67
     1
  8
0
100
AcDbBlockEnd
  0
ENDSEC
  0
SECTION
  2
ENTITIES
  0
LWPOLYLINE
  5
100
100
AcDbEntity
  8
Layer_1
 62
7
100
AcDbPolyline
 90
142
 70
0
 10
1.554041
 20
5.999997
 30
0.0
 10
0.654017
 20
4.800001
 30
0.0
 10
0.551822
 20
4.544513
 30
0.0
 10
0.509102
 20
4.572239
 30
0.0
 10
0.345722
 20
4.320609
 30
0.0
 10
0.391969
 20
4.290568
 30
0.0
 10
0.351620
 20
4.215989
 30
0.0
 10
0.297711
 20
4.243439
 30
0.0
 10
0.161506
 20
3.976155
 30
0.0
 10
0.217344
 20
3.947712
 30
0.0
 10
0.179806
 20
3.860896
 30
0.0
 10
0.111180
 20
3.883165
 30
0.0
 10
0.018466
 20
3.597856
 30
0.0
 10
0.082296
 20
3.577075
 30
0.0
 10
0.063059
 20
3.515559
 30
0.0
 10
0.060964
 20
3.505968
 30
0.0
 10
-0.018631
 20
3.518591
 30
0.0
 10
-0.065539
 20
3.222313
 30
0.0
 10
0.009426
 20
3.210407
 30
0.0
 10
0.005292
 20
3.149993
 30
0.0
 10
-0.065539
 20
3.149993
 30
0.0
 10
-0.065539
 20
2.850022
 30
0.0
 10
0.005733
 20
2.850022
 30
0.0
 10
0.010197
 20
2.789719
 30
0.0
 10
-0.065539
 20
2.777703
 30
0.0
 10
-0.018631
 20
2.481424
 30
0.0
 10
0.060689
 20
2.493992
 30
0.0
 10
0.064051
 20
2.478282
 30
0.0
 10
0.080202
 20
2.422224
 30
0.0
 10
0.018466
 20
2.402160
 30
0.0
 10
0.111180
 20
2.116851
 30
0.0
 10
0.178318
 20
2.138679
 30
0.0
 10
0.190996
 20
2.104614
 30
0.0
 10
0.215966
 20
2.051587
 30
0.0
 10
0.161506
 20
2.023861
 30
0.0
 10
0.297711
 20
1.756576
 30
0.0
 10
0.351234
 20
1.783806
 30
0.0
 10
0.392796
 20
1.709943
 30
0.0
 10
0.345722
 20
1.679351
 30
0.0
 10
0.509102
 20
1.427776
 30
0.0
 10
0.551822
 20
1.455503
 30
0.0
 10
0.654017
 20
1.200014
 30
0.0
 10
1.554041
 20
0.000018
 30
0.0
 10
1.654032
 20
0.100009
 30
0.0
 10
0.802184
 20
1.235788
 30
0.0
 10
0.831784
 20
1.273877
 30
0.0
 10
0.837902
 20
1.321943
 30
0.0
 10
0.838454
 20
1.322109
 30
0.0
 10
0.837406
 20
1.325251
 30
0.0
 10
0.836965
 20
1.328723
 30
0.0
 10
0.835036
 20
1.332582
 30
0.0
 10
0.745794
 20
1.607417
 30
0.0
 10
0.750424
 20
1.608906
 30
0.0
 10
0.744030
 20
1.612819
 30
0.0
 10
0.741219
 20
1.621363
 30
0.0
 10
0.755385
 20
1.635915
 30
0.0
 10
0.766906
 20
1.626545
 30
0.0
 10
0.857195
 20
1.348567
 30
0.0
 10
0.863148
 20
1.330377
 30
0.0
 10
0.863203
 20
1.330156
 30
0.0
 10
0.863258
 20
1.330156
 30
0.0
 10
0.888614
 20
1.300501
 30
0.0
 10
0.924609
 20
1.284075
 30
0.0
 10
0.963800
 20
1.283634
 30
0.0
 10
0.998471
 20
1.301989
 30
0.0
 10
1.023607
 20
1.338976
 30
0.0
 10
1.027796
 20
1.383624
 30
0.0
 10
1.028623
 20
1.383900
 30
0.0
 10
1.026528
 20
1.390404
 30
0.0
 10
1.023552
 20
1.399444
 30
0.0
 10
0.935908
 20
1.669154
 30
0.0
 10
0.940484
 20
1.670642
 30
0.0
 10
0.934089
 20
1.674886
 30
0.0
 10
0.931499
 20
1.682768
 30
0.0
 10
0.936515
 20
1.693793
 30
0.0
 10
0.947980
 20
1.697431
 30
0.0
 10
0.957075
 20
1.688501
 30
0.0
 10
1.049293
 20
1.404626
 30
0.0
 10
1.049293
 20
1.404570
 30
0.0
 10
1.050120
 20
1.402200
 30
0.0
 10
1.053428
 20
1.391948
 30
0.0
 10
1.053813
 20
1.392058
 30
0.0
 10
1.080492
 20
1.360804
 30
0.0
 10
1.119077
 20
1.345094
 30
0.0
 10
1.160308
 20
1.347299
 30
0.0
 10
1.194924
 20
1.369899
 30
0.0
 10
1.215264
 20
1.404901
 30
0.0
 10
1.218076
 20
1.445415
 30
0.0
 10
1.218847
 20
1.445691
 30
0.0
 10
1.216532
 20
1.452746
 30
0.0
 10
1.213335
 20
1.462613
 30
0.0
 10
1.201208
 20
1.499986
 30
0.0
 10
2.109942
 20
1.499986
 30
0.0
 10
2.109942
 20
4.499975
 30
0.0
 10
1.201208
 20
4.499975
 30
0.0
 10
1.213390
 20
4.537457
 30
0.0
 10
1.216587
 20
4.547269
 30
0.0
 10
1.218847
 20
4.554325
 30
0.0
 10
1.218076
 20
4.554600
 30
0.0
 10
1.215264
 20
4.595059
 30
0.0
 10
1.194924
 20
4.630117
 30
0.0
 10
1.160363
 20
4.652717
 30
0.0
 10
1.119132
 20
4.654921
 30
0.0
 10
1.080547
 20
4.639157
 30
0.0
 10
1.053868
 20
4.607958
 30
0.0
 10
1.053428
 20
4.608068
 30
0.0
 10
1.050010
 20
4.597595
 30
0.0
 10
1.049293
 20
4.595445
 30
0.0
 10
1.049293
 20
4.595390
 30
0.0
 10
0.957075
 20
4.311459
 30
0.0
 10
0.947980
 20
4.302585
 30
0.0
 10
0.936515
 20
4.306223
 30
0.0
 10
0.931499
 20
4.317247
 30
0.0
 10
0.934089
 20
4.325074
 30
0.0
 10
0.940484
 20
4.329319
 30
0.0
 10
0.935908
 20
4.330807
 30
0.0
 10
1.023497
 20
4.600406
 30
0.0
 10
1.026528
 20
4.609611
 30
0.0
 10
1.028623
 20
4.616116
 30
0.0
 10
1.027796
 20
4.616391
 30
0.0
 10
1.023607
 20
4.660985
 30
0.0
 10
0.998471
 20
4.697971
 30
0.0
 10
0.963800
 20
4.716327
 30
0.0
 10
0.924609
 20
4.715886
 30
0.0
 10
0.888614
 20
4.699460
 30
0.0
 10
0.863258
 20
4.669859
 30
0.0
 10
0.863203
 20
4.669859
 30
0.0
 10
0.863148
 20
4.669639
 30
0.0
 10
0.857250
 20
4.651504
 30
0.0
 10
0.766851
 20
4.373416
 30
0.0
 10
0.755385
 20
4.364100
 30
0.0
 10
0.741219
 20
4.378652
 30
0.0
 10
0.744030
 20
4.387196
 30
0.0
 10
0.750424
 20
4.391110
 30
0.0
 10
0.745794
 20
4.392598
 30
0.0
 10
0.835753
 20
4.669584
 30
0.0
 10
0.838233
 20
4.704476
 30
0.0
 10
0.826106
 20
4.737879
 30
0.0
 10
0.802184
 20
4.764172
 30
0.0
 10
1.654032
 20
5.900006
 30
0.0
 10
1.554041
 20
5.999997
 30
0.0
 10
1.554041
 20
5.999997
 30
0.0
  0
LWPOLYLINE
  5
101
100
AcDbEntity
  8
Layer_1
 62
7
100
AcDbPolyline
 90
152
 70
0
 10
0.757260
 20
4.704200
 30
0.0
 10
0.764646
 20
4.691412
 30
0.0
 10
0.764701
 20
4.690254
 30
0.0
 10
0.671876
 20
4.404615
 30
0.0
 10
0.669396
 20
4.396898
 30
0.0
 10
0.668734
 20
4.394913
 30
0.0
 10
0.667963
 20
4.392653
 30
0.0
 10
0.668845
 20
4.392378
 30
0.0
 10
0.669286
 20
4.362557
 30
0.0
 10
0.679318
 20
4.334390
 30
0.0
 10
0.697783
 20
4.311128
 30
0.0
 10
0.723470
 20
4.295915
 30
0.0
 10
0.754503
 20
4.290127
 30
0.0
 10
0.785482
 20
4.296301
 30
0.0
 10
0.812602
 20
4.312672
 30
0.0
 10
0.832059
 20
4.337532
 30
0.0
 10
0.832776
 20
4.339075
 30
0.0
 10
0.833437
 20
4.338855
 30
0.0
 10
0.835146
 20
4.344146
 30
0.0
 10
0.836083
 20
4.347068
 30
0.0
 10
0.930231
 20
4.636676
 30
0.0
 10
0.938444
 20
4.644448
 30
0.0
 10
0.950130
 20
4.640921
 30
0.0
 10
0.955311
 20
4.629896
 30
0.0
 10
0.952610
 20
4.621628
 30
0.0
 10
0.946547
 20
4.617549
 30
0.0
 10
0.950846
 20
4.616171
 30
0.0
 10
0.861274
 20
4.340343
 30
0.0
 10
0.859730
 20
4.335657
 30
0.0
 10
0.858904
 20
4.333122
 30
0.0
 10
0.858132
 20
4.330862
 30
0.0
 10
0.859069
 20
4.330531
 30
0.0
 10
0.859510
 20
4.300710
 30
0.0
 10
0.869597
 20
4.272543
 30
0.0
 10
0.888063
 20
4.249227
 30
0.0
 10
0.913694
 20
4.234069
 30
0.0
 10
0.945169
 20
4.228336
 30
0.0
 10
0.976478
 20
4.234840
 30
0.0
 10
1.003763
 20
4.251763
 30
0.0
 10
1.023000
 20
4.277284
 30
0.0
 10
1.023662
 20
4.277063
 30
0.0
 10
1.024544
 20
4.279764
 30
0.0
 10
1.026969
 20
4.287261
 30
0.0
 10
1.120290
 20
4.574499
 30
0.0
 10
1.130046
 20
4.582767
 30
0.0
 10
1.140905
 20
4.578688
 30
0.0
 10
1.145480
 20
4.568050
 30
0.0
 10
1.142835
 20
4.559947
 30
0.0
 10
1.136496
 20
4.555813
 30
0.0
 10
1.141016
 20
4.554325
 30
0.0
 10
1.126188
 20
4.508574
 30
0.0
 10
1.128999
 20
4.499975
 30
0.0
 10
1.126353
 20
4.499975
 30
0.0
 10
1.109927
 20
4.399984
 30
0.0
 10
1.109927
 20
4.299994
 30
0.0
 10
1.609934
 20
4.000023
 30
0.0
 10
1.609934
 20
2.099984
 30
0.0
 10
1.109927
 20
1.700022
 30
0.0
 10
1.109927
 20
1.599976
 30
0.0
 10
1.125141
 20
1.499986
 30
0.0
 10
1.128999
 20
1.499986
 30
0.0
 10
1.126188
 20
1.491387
 30
0.0
 10
1.141071
 20
1.445636
 30
0.0
 10
1.136496
 20
1.444148
 30
0.0
 10
1.142890
 20
1.440013
 30
0.0
 10
1.145480
 20
1.431966
 30
0.0
 10
1.140905
 20
1.421272
 30
0.0
 10
1.130046
 20
1.417193
 30
0.0
 10
1.120290
 20
1.425516
 30
0.0
 10
1.026969
 20
1.712700
 30
0.0
 10
1.024544
 20
1.720251
 30
0.0
 10
1.023662
 20
1.722897
 30
0.0
 10
1.023056
 20
1.722677
 30
0.0
 10
1.003818
 20
1.748198
 30
0.0
 10
0.976533
 20
1.765175
 30
0.0
 10
0.945169
 20
1.771680
 30
0.0
 10
0.913694
 20
1.765947
 30
0.0
 10
0.888063
 20
1.750734
 30
0.0
 10
0.869597
 20
1.727417
 30
0.0
 10
0.859510
 20
1.699250
 30
0.0
 10
0.859069
 20
1.669484
 30
0.0
 10
0.858132
 20
1.669154
 30
0.0
 10
0.858904
 20
1.666838
 30
0.0
 10
0.859730
 20
1.664248
 30
0.0
 10
0.861109
 20
1.660059
 30
0.0
 10
0.950846
 20
1.383789
 30
0.0
 10
0.946547
 20
1.382412
 30
0.0
 10
0.952610
 20
1.378332
 30
0.0
 10
0.955256
 20
1.370119
 30
0.0
 10
0.950075
 20
1.359095
 30
0.0
 10
0.938444
 20
1.355567
 30
0.0
 10
0.930231
 20
1.363284
 30
0.0
 10
0.836083
 20
1.652893
 30
0.0
 10
0.835091
 20
1.655924
 30
0.0
 10
0.833437
 20
1.661106
 30
0.0
 10
0.832776
 20
1.660885
 30
0.0
 10
0.832059
 20
1.662429
 30
0.0
 10
0.812602
 20
1.687234
 30
0.0
 10
0.785482
 20
1.703660
 30
0.0
 10
0.754503
 20
1.709833
 30
0.0
 10
0.723470
 20
1.704101
 30
0.0
 10
0.697783
 20
1.688887
 30
0.0
 10
0.679318
 20
1.665571
 30
0.0
 10
0.669230
 20
1.637404
 30
0.0
 10
0.668790
 20
1.607638
 30
0.0
 10
0.667963
 20
1.607307
 30
0.0
 10
0.668734
 20
1.604992
 30
0.0
 10
0.669396
 20
1.603008
 30
0.0
 10
0.671821
 20
1.595456
 30
0.0
 10
0.764480
 20
1.310368
 30
0.0
 10
0.764536
 20
1.307060
 30
0.0
 10
0.757425
 20
1.295485
 30
0.0
 10
0.744251
 20
1.313068
 30
0.0
 10
0.736589
 20
1.326959
 30
0.0
 10
0.552207
 20
1.590275
 30
0.0
 10
0.416774
 20
1.817210
 30
0.0
 10
0.475919
 20
1.847362
 30
0.0
 10
0.339714
 20
2.114646
 30
0.0
 10
0.281175
 20
2.084825
 30
0.0
 10
0.249370
 20
2.156428
 30
0.0
 10
0.247606
 20
2.161168
 30
0.0
 10
0.301349
 20
2.178642
 30
0.0
 10
0.208635
 20
2.463951
 30
0.0
 10
0.150427
 20
2.445044
 30
0.0
 10
0.145686
 20
2.460478
 30
0.0
 10
0.134882
 20
2.505733
 30
0.0
 10
0.178924
 20
2.512678
 30
0.0
 10
0.131961
 20
2.809012
 30
0.0
 10
0.083674
 20
2.801350
 30
0.0
 10
0.079430
 20
2.850022
 30
0.0
 10
0.134441
 20
2.850022
 30
0.0
 10
0.134441
 20
3.149993
 30
0.0
 10
0.079540
 20
3.149993
 30
0.0
 10
0.081580
 20
3.186098
 30
0.0
 10
0.083178
 20
3.198721
 30
0.0
 10
0.131961
 20
3.191004
 30
0.0
 10
0.178924
 20
3.487282
 30
0.0
 10
0.134111
 20
3.494393
 30
0.0
 10
0.150702
 20
3.554861
 30
0.0
 10
0.208635
 20
3.536009
 30
0.0
 10
0.301349
 20
3.821374
 30
0.0
 10
0.248488
 20
3.838572
 30
0.0
 10
0.274560
 20
3.902733
 30
0.0
 10
0.280844
 20
3.915356
 30
0.0
 10
0.339714
 20
3.885370
 30
0.0
 10
0.475919
 20
4.152654
 30
0.0
 10
0.415286
 20
4.183522
 30
0.0
 10
0.570563
 20
4.437687
 30
0.0
 10
0.747283
 20
4.687388
 30
0.0
 10
0.745574
 20
4.688656
 30
0.0
 10
0.757260
 20
4.704200
 30
0.0
 10
0.757260
 20
4.704200
 30
0.0
  0
ENDSEC
  0
SECTION
  2
OBJECTS
  0
DICTIONARY
  5
C
330
0
100
AcDbDictionary
  3
ACAD_GROUP
350
D
  3
ACAD_MLINESTYLE
350
17
  0
DICTIONARY
  5
D
330
C
100
AcDbDictionary
  0
DICTIONARY
  5
1A
330
C
100
AcDbDictionary
  0
DICTIONARY
  5
17
330
C
100
AcDbDictionary
  3
STANDARD
350
18
  0
DICTIONARY
  5
19
330
C
100
AcDbDictionary
  0
ENDSEC
  0
EOF
