999
Inkscape export via OpenSCAD DXF Export
  0
SECTION
  2
HEADER
  9
$ACADVER
  1
AC1014
  9
$HANDSEED
  5
FFFF
  9
$MEASUREMENT
 70
     1
  0
ENDSEC
  0
SECTION
  2
TABLES
  0
TABLE
  2
VPORT
  5
8
330
0
100
AcDbSymbolTable
 70
     4
  0
VPORT
  5
2E
330
8
100
AcDbSymbolTableRecord
100
AcDbViewportTableRecord
  2
*ACTIVE
 70
     0
 10
0.0
 20
0.0
 11
1.0
 21
1.0
 12
210.0
 22
148.5
 13
0.0
 23
0.0
 14
10.0
 24
10.0
 15
10.0
 25
10.0
 16
0.0
 26
0.0
 36
1.0
 17
0.0
 27
0.0
 37
0.0
 40
341.0
 41
1.24
 42
50.0
 43
0.0
 44
0.0
 50
0.0
 51
0.0
 71
     0
 72
   100
 73
     1
 74
     3
 75
     0
 76
     0
 77
     0
 78
     0
  0
ENDTAB
  0
TABLE
  2
LTYPE
  5
5
330
0
100
AcDbSymbolTable
 70
     1
  0
LTYPE
  5
14
330
5
100
AcDbSymbolTableRecord
100
AcDbLinetypeTableRecord
  2
BYBLOCK
 70
     0
  3

 72
    65
 73
     0
 40
0.0
  0
LTYPE
  5
15
330
5
100
AcDbSymbolTableRecord
100
AcDbLinetypeTableRecord
  2
BYLAYER
 70
     0
  3

 72
    65
 73
     0
 40
0.0
  0
LTYPE
  5
16
330
5
100
AcDbSymbolTableRecord
100
AcDbLinetypeTableRecord
  2
CONTINUOUS
 70
     0
  3
Solid line
 72
    65
 73
     0
 40
0.0
  0
ENDTAB
  0
TABLE
0
TABLE
2
LAYER
5
2
330
0
100
AcDbSymbolTable
70
1
0
LAYER
5
10
330
2
100
AcDbSymbolTableRecord
100
AcDbLayerTableRecord
2
Layer_1
70
0
62
7
6
CONTINUOUS
0
ENDTAB
0
ENDSEC
  0
ENDTAB
  0
TABLE
  2
STYLE
  5
3
330
0
100
AcDbSymbolTable
 70
     1
  0
STYLE
  5
11
330
3
100
AcDbSymbolTableRecord
100
AcDbTextStyleTableRecord
  2
STANDARD
 70
     0
 40
0.0
 41
1.0
 50
0.0
 71
     0
 42
2.5
  3
txt
  4

  0
ENDTAB
  0
TABLE
  2
VIEW
  5
6
330
0
100
AcDbSymbolTable
 70
     0
  0
ENDTAB
  0
TABLE
  2
UCS
  5
7
330
0
100
AcDbSymbolTable
 70
     0
  0
ENDTAB
  0
TABLE
  2
APPID
  5
9
330
0
100
AcDbSymbolTable
 70
     2
  0
APPID
  5
12
330
9
100
AcDbSymbolTableRecord
100
AcDbRegAppTableRecord
  2
ACAD
 70
     0
  0
ENDTAB
  0
TABLE
  2
DIMSTYLE
  5
A
330
0
100
AcDbSymbolTable
 70
     1
  0
DIMSTYLE
105
27
330
A
100
AcDbSymbolTableRecord
100
AcDbDimStyleTableRecord
  2
ISO-25
 70
     0
  3

  4

  5

  6

  7

 40
1.0
 41
2.5
 42
0.625
 43
3.75
 44
1.25
 45
0.0
 46
0.0
 47
0.0
 48
0.0
140
2.5
141
2.5
142
0.0
143
0.03937007874016
144
1.0
145
0.0
146
1.0
147
0.625
 71
     0
 72
     0
 73
     0
 74
     0
 75
     0
 76
     0
 77
     1
 78
     8
170
     0
171
     3
172
     1
173
     0
174
     0
175
     0
176
     0
177
     0
178
     0
270
     2
271
     2
272
     2
273
     2
274
     3
340
11
275
     0
280
     0
281
     0
282
     0
283
     0
284
     8
285
     0
286
     0
287
     3
288
     0
  0
ENDTAB
  0
TABLE
  2
BLOCK_RECORD
  5
1
330
0
100
AcDbSymbolTable
 70
     1
  0
BLOCK_RECORD
  5
1F
330
1
100
AcDbSymbolTableRecord
100
AcDbBlockTableRecord
  2
*MODEL_SPACE
  0
BLOCK_RECORD
  5
1B
330
1
100
AcDbSymbolTableRecord
100
AcDbBlockTableRecord
  2
*PAPER_SPACE
  0
ENDTAB
  0
ENDSEC
  0
SECTION
  2
BLOCKS
  0
BLOCK
  5
20
330
1F
100
AcDbEntity
  8
0
100
AcDbBlockBegin
  2
*MODEL_SPACE
 70
     0
 10
0.0
 20
0.0
 30
0.0
  3
*MODEL_SPACE
  1

  0
ENDBLK
  5
21
330
1F
100
AcDbEntity
  8
0
100
AcDbBlockEnd
  0
BLOCK
  5
1C
330
1B
100
AcDbEntity
 67
     1
  8
0
100
AcDbBlockBegin
  2
*PAPER_SPACE
  1

  0
ENDBLK
  5
1D
330
1B
100
AcDbEntity
 67
     1
  8
0
100
AcDbBlockEnd
  0
ENDSEC
  0
SECTION
  2
ENTITIES
0
DIMENSION
5
83
100
AcDbEntity
62
256
370
-1
6
ByLayer
1
total_width
3
Standard
70
0
71
5
72
1
41
1.0
100
AcDbAlignedDimension
13
0.000000
23
0.000000
33
0.0
14
14.675536
24
0.000000
34
0.0
50
0.000000
100
AcDbRotatedDimension
0
DIMENSION
5
83
100
AcDbEntity
62
256
370
-1
6
ByLayer
1
total_minx
3
Standard
70
0
71
5
72
1
41
1.0
100
AcDbAlignedDimension
13
0.000000
23
0.000000
33
0.0
14
0.000000
24
0.000000
34
0.0
50
0.000000
100
AcDbRotatedDimension
0
DIMENSION
5
83
100
AcDbEntity
62
256
370
-1
6
ByLayer
1
total_maxx
3
Standard
70
0
71
5
72
1
41
1.0
100
AcDbAlignedDimension
13
0.000000
23
0.000000
33
0.0
14
14.675536
24
0.000000
34
0.0
50
0.000000
100
AcDbRotatedDimension
0
DIMENSION
5
83
100
AcDbEntity
62
256
370
-1
6
ByLayer
1
total_height
3
Standard
70
0
71
5
72
1
41
1.0
100
AcDbAlignedDimension
13
0.000000
23
0.000025
33
0.0
14
0.000000
24
10.159975
34
0.0
50
90.000000
100
AcDbRotatedDimension
0
DIMENSION
5
83
100
AcDbEntity
62
256
370
-1
6
ByLayer
1
total_miny
3
Standard
70
0
71
5
72
1
41
1.0
100
AcDbAlignedDimension
13
0.000025
23
0.000000
33
0.0
14
0.000000
24
0.000000
34
0.0
50
0.000000
100
AcDbRotatedDimension
0
DIMENSION
5
83
100
AcDbEntity
62
256
370
-1
6
ByLayer
1
total_maxy
3
Standard
70
0
71
5
72
1
41
1.0
100
AcDbAlignedDimension
13
0.000000
23
0.000000
33
0.0
14
10.159975
24
0.000000
34
0.0
50
0.000000
100
AcDbRotatedDimension
0
DIMENSION
8
Layer_1
5
83
100
AcDbEntity
62
256
370
-1
6
ByLayer
1
Layer_1_width
3
Standard
70
0
71
5
72
1
41
1.0
100
AcDbAlignedDimension
13
0.000000
23
0.000000
33
0.0
14
14.675536
24
0.000000
34
0.0
50
0.000000
100
AcDbRotatedDimension
0
DIMENSION
8
Layer_1
5
83
100
AcDbEntity
62
256
370
-1
6
ByLayer
1
Layer_1_minx
3
Standard
70
0
71
5
72
1
41
1.0
100
AcDbAlignedDimension
13
0.000000
23
0.000000
33
0.0
14
0.000000
24
0.000000
34
0.0
50
0.000000
100
AcDbRotatedDimension
0
DIMENSION
8
Layer_1
5
83
100
AcDbEntity
62
256
370
-1
6
ByLayer
1
Layer_1_maxx
3
Standard
70
0
71
5
72
1
41
1.0
100
AcDbAlignedDimension
13
0.000000
23
0.000000
33
0.0
14
14.675536
24
0.000000
34
0.0
50
0.000000
100
AcDbRotatedDimension
0
DIMENSION
8
Layer_1
5
83
100
AcDbEntity
62
256
370
-1
6
ByLayer
1
Layer_1_height
3
Standard
70
0
71
5
72
1
41
1.0
100
AcDbAlignedDimension
13
0.000000
23
0.000025
33
0.0
14
0.000000
24
10.159975
34
0.0
50
90.000000
100
AcDbRotatedDimension
0
DIMENSION
8
Layer_1
5
83
100
AcDbEntity
62
256
370
-1
6
ByLayer
1
Layer_1_miny
3
Standard
70
0
71
5
72
1
41
1.0
100
AcDbAlignedDimension
13
0.000025
23
0.000000
33
0.0
14
0.000000
24
0.000000
34
0.0
50
0.000000
100
AcDbRotatedDimension
0
DIMENSION
8
Layer_1
5
83
100
AcDbEntity
62
256
370
-1
6
ByLayer
1
Layer_1_maxy
3
Standard
70
0
71
5
72
1
41
1.0
100
AcDbAlignedDimension
13
0.000000
23
0.000000
33
0.0
14
10.159975
24
0.000000
34
0.0
50
0.000000
100
AcDbRotatedDimension
62
0
0
LWPOLYLINE
100
AcDbPolyline
8
Layer_1
90
282
70
0
10
6.208947
20
10.159960
30
0.0
10
5.932217
20
10.151691
30
0.0
10
5.657796
20
10.128521
30
0.0
10
5.386222
20
10.090709
30
0.0
10
5.118033
20
10.038501
30
0.0
10
4.853771
20
9.972142
30
0.0
10
4.593973
20
9.891889
30
0.0
10
4.339180
20
9.797985
30
0.0
10
4.089929
20
9.690681
30
0.0
10
3.846760
20
9.570229
30
0.0
10
3.610213
20
9.436876
30
0.0
10
3.380826
20
9.290871
30
0.0
10
3.159138
20
9.132466
30
0.0
10
2.945690
20
8.961905
30
0.0
10
2.741019
20
8.779445
30
0.0
10
2.545665
20
8.585330
30
0.0
10
2.360168
20
8.379810
30
0.0
10
2.259331
20
8.463650
30
0.0
10
2.151861
20
8.537324
30
0.0
10
2.038534
20
8.600525
30
0.0
10
1.920125
20
8.652956
30
0.0
10
1.797409
20
8.694316
30
0.0
10
1.671161
20
8.724299
30
0.0
10
1.542157
20
8.742615
30
0.0
10
1.411171
20
8.748937
30
0.0
10
1.266884
20
8.741656
30
0.0
10
1.126766
20
8.720263
30
0.0
10
0.991524
20
8.685493
30
0.0
10
0.861869
20
8.638040
30
0.0
10
0.738511
20
8.578619
30
0.0
10
0.622157
20
8.507936
30
0.0
10
0.513519
20
8.426698
30
0.0
10
0.413305
20
8.335617
30
0.0
10
0.322225
20
8.235402
30
0.0
10
0.240988
20
8.126767
30
0.0
10
0.170303
20
8.010412
30
0.0
10
0.110881
20
7.887053
30
0.0
10
0.063430
20
7.757400
30
0.0
10
0.028660
20
7.622156
30
0.0
10
0.007280
20
7.482038
30
0.0
10
0.000000
20
7.337766
30
0.0
10
0.007280
20
7.193480
30
0.0
10
0.028660
20
7.053360
30
0.0
10
0.063430
20
6.918119
30
0.0
10
0.110881
20
6.788463
30
0.0
10
0.170303
20
6.665107
30
0.0
10
0.240988
20
6.548752
30
0.0
10
0.322225
20
6.440114
30
0.0
10
0.413305
20
6.339899
30
0.0
10
0.513519
20
6.248821
30
0.0
10
0.622157
20
6.167583
30
0.0
10
0.738511
20
6.096897
30
0.0
10
0.861869
20
6.037476
30
0.0
10
0.991524
20
5.990026
30
0.0
10
1.126766
20
5.955256
30
0.0
10
1.266884
20
5.933863
30
0.0
10
1.411171
20
5.926582
30
0.0
10
1.569953
20
5.935698
30
0.0
10
1.725241
20
5.962283
30
0.0
10
1.875708
20
6.005723
30
0.0
10
2.020030
20
6.065373
30
0.0
10
2.156882
20
6.140594
30
0.0
10
2.284938
20
6.230755
30
0.0
10
2.402874
20
6.335217
30
0.0
10
2.509364
20
6.453347
30
0.0
10
2.627323
20
6.737319
30
0.0
10
2.765349
20
7.008368
30
0.0
10
2.922379
20
7.265755
30
0.0
10
3.097347
20
7.508737
30
0.0
10
3.289191
20
7.736572
30
0.0
10
3.496847
20
7.948521
30
0.0
10
3.719249
20
8.143841
30
0.0
10
3.955335
20
8.321791
30
0.0
10
4.204040
20
8.481630
30
0.0
10
4.464301
20
8.622614
30
0.0
10
4.735053
20
8.744006
30
0.0
10
5.015233
20
8.845065
30
0.0
10
5.303776
20
8.925044
30
0.0
10
5.599619
20
8.983207
30
0.0
10
5.901697
20
9.018809
30
0.0
10
6.208947
20
9.031114
30
0.0
10
6.608585
20
9.011133
30
0.0
10
6.996803
20
8.952509
30
0.0
10
7.371681
20
8.857161
30
0.0
10
7.731301
20
8.727008
30
0.0
10
8.073745
20
8.563977
30
0.0
10
8.397093
20
8.369989
30
0.0
10
8.699427
20
8.146968
30
0.0
10
8.978829
20
7.896835
30
0.0
10
9.233379
20
7.621513
30
0.0
10
9.461159
20
7.322927
30
0.0
10
9.660249
20
7.003000
30
0.0
10
9.828732
20
6.663653
30
0.0
10
9.964689
20
6.306812
30
0.0
10
10.066201
20
5.934394
30
0.0
10
10.131348
20
5.548328
30
0.0
10
10.158213
20
5.150536
30
0.0
10
12.427082
20
5.150536
30
0.0
10
12.465230
20
5.236108
30
0.0
10
12.527434
20
5.302992
30
0.0
10
12.607716
20
5.346550
30
0.0
10
12.700099
20
5.362157
30
0.0
10
12.756972
20
5.356428
30
0.0
10
12.809943
20
5.339975
30
0.0
10
12.899643
20
5.279494
30
0.0
10
12.960123
20
5.189796
30
0.0
10
12.976568
20
5.136823
30
0.0
10
12.982306
20
5.079949
30
0.0
10
12.976568
20
5.023079
30
0.0
10
12.960123
20
4.970105
30
0.0
10
12.899644
20
4.880407
30
0.0
10
12.809943
20
4.819927
30
0.0
10
12.756972
20
4.803473
30
0.0
10
12.700100
20
4.797744
30
0.0
10
12.607673
20
4.813323
30
0.0
10
12.527346
20
4.856872
30
0.0
10
12.465106
20
4.923770
30
0.0
10
12.426937
20
5.009374
30
0.0
10
10.158214
20
5.009374
30
0.0
10
10.131349
20
4.611582
30
0.0
10
10.066201
20
4.225513
30
0.0
10
9.964689
20
3.853098
30
0.0
10
9.828732
20
3.496256
30
0.0
10
9.660249
20
3.156910
30
0.0
10
9.461159
20
2.836980
30
0.0
10
9.233379
20
2.538394
30
0.0
10
8.978829
20
2.263075
30
0.0
10
8.699427
20
2.012942
30
0.0
10
8.397093
20
1.789918
30
0.0
10
8.073745
20
1.595930
30
0.0
10
7.731301
20
1.432899
30
0.0
10
7.371681
20
1.302749
30
0.0
10
6.996803
20
1.207397
30
0.0
10
6.608586
20
1.148774
30
0.0
10
6.208948
20
1.128793
30
0.0
10
5.901531
20
1.140900
30
0.0
10
5.599277
20
1.176350
30
0.0
10
5.303255
20
1.234381
30
0.0
10
5.014530
20
1.314255
30
0.0
10
4.734166
20
1.415232
30
0.0
10
4.463230
20
1.536565
30
0.0
10
4.202788
20
1.677518
30
0.0
10
3.953906
20
1.837343
30
0.0
10
3.717648
20
2.015304
30
0.0
10
3.495083
20
2.210652
30
0.0
10
3.287273
20
2.422652
30
0.0
10
3.095287
20
2.650558
30
0.0
10
2.920189
20
2.893627
30
0.0
10
2.763046
20
3.151121
30
0.0
10
2.624922
20
3.422294
30
0.0
10
2.506885
20
3.706405
30
0.0
10
2.400631
20
3.824331
30
0.0
10
2.282970
20
3.928649
30
0.0
10
2.155217
20
4.018729
30
0.0
10
2.018689
20
4.093930
30
0.0
10
1.874704
20
4.153625
30
0.0
10
1.724578
20
4.197181
30
0.0
10
1.569628
20
4.223964
30
0.0
10
1.411171
20
4.233333
30
0.0
10
1.266884
20
4.226052
30
0.0
10
1.126766
20
4.204660
30
0.0
10
0.991524
20
4.169890
30
0.0
10
0.861869
20
4.122440
30
0.0
10
0.738511
20
4.063015
30
0.0
10
0.622157
20
3.992332
30
0.0
10
0.513519
20
3.911095
30
0.0
10
0.413305
20
3.820016
30
0.0
10
0.322225
20
3.719802
30
0.0
10
0.240988
20
3.611163
30
0.0
10
0.170303
20
3.494809
30
0.0
10
0.110881
20
3.371452
30
0.0
10
0.063430
20
3.241796
30
0.0
10
0.028660
20
3.106555
30
0.0
10
0.007280
20
2.966435
30
0.0
10
0.000000
20
2.822194
30
0.0
10
0.007294
20
2.677919
30
0.0
10
0.028685
20
2.537813
30
0.0
10
0.063465
20
2.402583
30
0.0
10
0.110923
20
2.272939
30
0.0
10
0.170350
20
2.149594
30
0.0
10
0.241038
20
2.033253
30
0.0
10
0.322276
20
1.924626
30
0.0
10
0.413356
20
1.824423
30
0.0
10
0.513568
20
1.733352
30
0.0
10
0.622203
20
1.652126
30
0.0
10
0.738552
20
1.581449
30
0.0
10
0.861904
20
1.522036
30
0.0
10
0.991552
20
1.474591
30
0.0
10
1.126785
20
1.439824
30
0.0
10
1.266895
20
1.418460
30
0.0
10
1.411171
20
1.411179
30
0.0
10
1.542189
20
1.417472
30
0.0
10
1.671227
20
1.435760
30
0.0
10
1.797511
20
1.465718
30
0.0
10
1.920265
20
1.507055
30
0.0
10
2.038712
20
1.559473
30
0.0
10
2.152078
20
1.622668
30
0.0
10
2.259585
20
1.696336
30
0.0
10
2.360459
20
1.780179
30
0.0
10
2.545943
20
1.574673
30
0.0
10
2.741283
20
1.380569
30
0.0
10
2.945938
20
1.198118
30
0.0
10
3.159371
20
1.027568
30
0.0
10
3.381041
20
0.869168
30
0.0
10
3.610410
20
0.723169
30
0.0
10
3.846938
20
0.589819
30
0.0
10
4.090088
20
0.469367
30
0.0
10
4.339319
20
0.362063
30
0.0
10
4.594093
20
0.268156
30
0.0
10
4.853871
20
0.187898
30
0.0
10
5.118113
20
0.121533
30
0.0
10
5.386281
20
0.069317
30
0.0
10
5.657835
20
0.031493
30
0.0
10
5.932237
20
0.008323
30
0.0
10
6.208947
20
0.000025
30
0.0
10
6.629350
20
0.017664
30
0.0
10
7.041759
20
0.069108
30
0.0
10
7.444583
20
0.153165
30
0.0
10
7.836232
20
0.268636
30
0.0
10
8.215112
20
0.414325
30
0.0
10
8.579634
20
0.589034
30
0.0
10
8.928206
20
0.791566
30
0.0
10
9.259237
20
1.020724
30
0.0
10
9.571135
20
1.275311
30
0.0
10
9.862310
20
1.554127
30
0.0
10
10.131169
20
1.855981
30
0.0
10
10.376122
20
2.179667
30
0.0
10
10.595576
20
2.523995
30
0.0
10
10.787942
20
2.887766
30
0.0
10
10.951628
20
3.269779
30
0.0
10
11.085042
20
3.668841
30
0.0
10
13.264510
20
3.668841
30
0.0
10
13.409186
20
3.676094
30
0.0
10
13.549590
20
3.697402
30
0.0
10
13.685022
20
3.732070
30
0.0
10
13.814786
20
3.779390
30
0.0
10
13.938182
20
3.838671
30
0.0
10
14.054512
20
3.909207
30
0.0
10
14.163078
20
3.990300
30
0.0
10
14.263181
20
4.081258
30
0.0
10
14.354123
20
4.181373
30
0.0
10
14.435205
20
4.289953
30
0.0
10
14.505729
20
4.406293
30
0.0
10
14.564997
20
4.529701
30
0.0
10
14.612310
20
4.659475
30
0.0
10
14.646969
20
4.794913
30
0.0
10
14.668277
20
4.935322
30
0.0
10
14.675536
20
5.080000
30
0.0
10
14.668277
20
5.224678
30
0.0
10
14.646969
20
5.365087
30
0.0
10
14.612310
20
5.500525
30
0.0
10
14.564997
20
5.630299
30
0.0
10
14.505729
20
5.753707
30
0.0
10
14.435205
20
5.870047
30
0.0
10
14.354123
20
5.978627
30
0.0
10
14.263181
20
6.078745
30
0.0
10
14.163078
20
6.169700
30
0.0
10
14.054512
20
6.250796
30
0.0
10
13.938182
20
6.321332
30
0.0
10
13.814786
20
6.380610
30
0.0
10
13.685022
20
6.427933
30
0.0
10
13.549590
20
6.462598
30
0.0
10
13.409186
20
6.483906
30
0.0
10
13.264510
20
6.491159
30
0.0
10
11.086500
20
6.491159
30
0.0
10
10.953051
20
6.890314
30
0.0
10
10.789317
20
7.272412
30
0.0
10
10.596890
20
7.636253
30
0.0
10
10.377364
20
7.980643
30
0.0
10
10.132331
20
8.304380
30
0.0
10
9.863383
20
8.606271
30
0.0
10
9.572112
20
8.885115
30
0.0
10
9.260112
20
9.139713
30
0.0
10
8.928975
20
9.368872
30
0.0
10
8.580293
20
9.571389
30
0.0
10
8.215659
20
9.746067
30
0.0
10
7.836666
20
9.891711
30
0.0
10
7.444906
20
10.007120
30
0.0
10
7.041971
20
10.091101
30
0.0
10
6.629454
20
10.142449
30
0.0
10
6.208947
20
10.159975
30
0.0
10
6.208947
20
10.159975
30
0.0
62
0
0
LWPOLYLINE
100
AcDbPolyline
8
Layer_1
90
34
70
0
10
1.411171
20
7.902188
30
0.0
10
1.524916
20
7.890702
30
0.0
10
1.630859
20
7.857812
30
0.0
10
1.726730
20
7.805773
30
0.0
10
1.810260
20
7.736854
30
0.0
10
1.879179
20
7.653325
30
0.0
10
1.931218
20
7.557454
30
0.0
10
1.964109
20
7.451511
30
0.0
10
1.975581
20
7.337764
30
0.0
10
1.964109
20
7.224020
30
0.0
10
1.931218
20
7.118076
30
0.0
10
1.879178
20
7.022205
30
0.0
10
1.810259
20
6.938676
30
0.0
10
1.726730
20
6.869755
30
0.0
10
1.630859
20
6.817716
30
0.0
10
1.524916
20
6.784825
30
0.0
10
1.411171
20
6.773367
30
0.0
10
1.297426
20
6.784825
30
0.0
10
1.191483
20
6.817716
30
0.0
10
1.095613
20
6.869757
30
0.0
10
1.012083
20
6.938676
30
0.0
10
0.943164
20
7.022205
30
0.0
10
0.891125
20
7.118076
30
0.0
10
0.858234
20
7.224017
30
0.0
10
0.846761
20
7.337764
30
0.0
10
0.858234
20
7.451508
30
0.0
10
0.891124
20
7.557451
30
0.0
10
0.943164
20
7.653322
30
0.0
10
1.012083
20
7.736851
30
0.0
10
1.095612
20
7.805770
30
0.0
10
1.191483
20
7.857809
30
0.0
10
1.297426
20
7.890702
30
0.0
10
1.411171
20
7.902188
30
0.0
10
1.411171
20
7.902188
30
0.0
62
0
0
LWPOLYLINE
100
AcDbPolyline
8
Layer_1
90
34
70
0
10
1.411171
20
3.386616
30
0.0
10
1.524916
20
3.375158
30
0.0
10
1.630859
20
3.342267
30
0.0
10
1.726729
20
3.290229
30
0.0
10
1.810259
20
3.221307
30
0.0
10
1.879178
20
3.137778
30
0.0
10
1.931218
20
3.041907
30
0.0
10
1.964109
20
2.935966
30
0.0
10
1.975581
20
2.822219
30
0.0
10
1.964109
20
2.708475
30
0.0
10
1.931218
20
2.602532
30
0.0
10
1.879179
20
2.506661
30
0.0
10
1.810260
20
2.423132
30
0.0
10
1.726730
20
2.354213
30
0.0
10
1.630859
20
2.302171
30
0.0
10
1.524916
20
2.269281
30
0.0
10
1.411171
20
2.257823
30
0.0
10
1.297426
20
2.269281
30
0.0
10
1.191483
20
2.302174
30
0.0
10
1.095612
20
2.354213
30
0.0
10
1.012083
20
2.423132
30
0.0
10
0.943164
20
2.506661
30
0.0
10
0.891124
20
2.602532
30
0.0
10
0.858234
20
2.708475
30
0.0
10
0.846761
20
2.822219
30
0.0
10
0.858234
20
2.935966
30
0.0
10
0.891125
20
3.041907
30
0.0
10
0.943164
20
3.137778
30
0.0
10
1.012083
20
3.221307
30
0.0
10
1.095613
20
3.290226
30
0.0
10
1.191483
20
3.342267
30
0.0
10
1.297426
20
3.375158
30
0.0
10
1.411171
20
3.386616
30
0.0
10
1.411171
20
3.386616
30
0.0
  0
ENDSEC
  0
SECTION
  2
OBJECTS
  0
DICTIONARY
  5
C
330
0
100
AcDbDictionary
  3
ACAD_GROUP
350
D
  3
ACAD_MLINESTYLE
350
17
  0
DICTIONARY
  5
D
330
C
100
AcDbDictionary
  0
DICTIONARY
  5
1A
330
C
100
AcDbDictionary
  0
DICTIONARY
  5
17
330
C
100
AcDbDictionary
  3
STANDARD
350
18
  0
DICTIONARY
  5
19
330
C
100
AcDbDictionary
  0
ENDSEC
  0
EOF
