solid OpenSCAD_Model
  facet normal 0 0 -1
    outer loop
      vertex 35.1855 21.0449 0
      vertex 35 20.0098 0
      vertex 35 20.8594 0
    endloop
  endfacet
  facet normal 0 -0 -1
    outer loop
      vertex 37.4121 21.6406 0
      vertex 40 14.0039 0
      vertex 35 20.0098 0
    endloop
  endfacet
  facet normal 0 -0 -1
    outer loop
      vertex 40 14.0039 0
      vertex 40 12.6855 0
      vertex 38.0762 11.709 0
    endloop
  endfacet
  facet normal 0 0 -1
    outer loop
      vertex 30.7617 28.1543 0
      vertex 33.0957 22.5586 0
      vertex 31.0645 22.0117 0
    endloop
  endfacet
  facet normal 0 0 -1
    outer loop
      vertex 44.1406 30 0
      vertex 40.6055 26.4648 0
      vertex 39.1895 27.8809 0
    endloop
  endfacet
  facet normal 0 0 -1
    outer loop
      vertex 42.002 14.0039 0
      vertex 40 14.0039 0
      vertex 42.1875 14.1211 0
    endloop
  endfacet
  facet normal -0 0 -1
    outer loop
      vertex 42.1875 14.1211 0
      vertex 40 14.0039 0
      vertex 43.1934 14.9609 0
    endloop
  endfacet
  facet normal 0 0 -1
    outer loop
      vertex 43.1934 14.9609 0
      vertex 43.7988 17.1289 0
      vertex 44.1406 15.8691 0
    endloop
  endfacet
  facet normal -0 0 -1
    outer loop
      vertex 43.1934 14.9609 0
      vertex 40 14.0039 0
      vertex 43.7988 17.1289 0
    endloop
  endfacet
  facet normal 0 0 -1
    outer loop
      vertex 44.6582 24.6094 0
      vertex 47.3145 20 0
      vertex 46.5625 18.7988 0
    endloop
  endfacet
  facet normal -0 0 -1
    outer loop
      vertex 45.7324 17.6465 0
      vertex 43.7988 17.1289 0
      vertex 46.5625 18.7988 0
    endloop
  endfacet
  facet normal 0 0 -1
    outer loop
      vertex 43.7988 17.1289 0
      vertex 44.6582 24.6094 0
      vertex 46.5625 18.7988 0
    endloop
  endfacet
  facet normal 0 0 -1
    outer loop
      vertex 21.1328 43.3594 0
      vertex 25.4102 43.2617 0
      vertex 22.0117 37.0215 0
    endloop
  endfacet
  facet normal 0 -0 -1
    outer loop
      vertex 16.7871 23.2031 0
      vertex 19.3945 20.8105 0
      vertex 16.6406 21.1426 0
    endloop
  endfacet
  facet normal -0 0 -1
    outer loop
      vertex 46.3965 25.6055 0
      vertex 44.6582 24.6094 0
      vertex 44.1406 30 0
    endloop
  endfacet
  facet normal 0 0 -1
    outer loop
      vertex 48.3887 22.1582 0
      vertex 46.3965 25.6055 0
      vertex 48.8965 23.4766 0
    endloop
  endfacet
  facet normal 0 0 -1
    outer loop
      vertex 48.8965 23.4766 0
      vertex 46.3965 25.6055 0
      vertex 49.3164 24.8242 0
    endloop
  endfacet
  facet normal 0 0 -1
    outer loop
      vertex 49.3164 24.8242 0
      vertex 46.3965 25.6055 0
      vertex 44.1406 30 0
    endloop
  endfacet
  facet normal 0 0 -1
    outer loop
      vertex 30 32.002 0
      vertex 27.3438 43.7793 0
      vertex 29.0039 44.0039 0
    endloop
  endfacet
  facet normal -0 0 -1
    outer loop
      vertex 45.5566 31.416 0
      vertex 44.1406 30 0
      vertex 43.6621 33.6621 0
    endloop
  endfacet
  facet normal 0 0 -1
    outer loop
      vertex 49.8047 27.1582 0
      vertex 45.5566 31.416 0
      vertex 49.9512 28.584 0
    endloop
  endfacet
  facet normal 0 0 -1
    outer loop
      vertex 49.9512 28.584 0
      vertex 45.5566 31.416 0
      vertex 49.9902 30.0098 0
    endloop
  endfacet
  facet normal 0 0 -1
    outer loop
      vertex 49.9902 30.0098 0
      vertex 45.5566 31.416 0
      vertex 43.6621 33.6621 0
    endloop
  endfacet
  facet normal -0 0 -1
    outer loop
      vertex 30.9961 44.0039 0
      vertex 30 32.002 0
      vertex 29.0039 44.0039 0
    endloop
  endfacet
  facet normal -0 0 -1
    outer loop
      vertex 44.6582 35.3906 0
      vertex 43.6621 33.6621 0
      vertex 42.002 40 0
    endloop
  endfacet
  facet normal 0 0 -1
    outer loop
      vertex 49.8438 32.4023 0
      vertex 44.6582 35.3906 0
      vertex 49.6387 33.7988 0
    endloop
  endfacet
  facet normal 0 0 -1
    outer loop
      vertex 49.6387 33.7988 0
      vertex 46.1133 36.0352 0
      vertex 49.3262 35.1758 0
    endloop
  endfacet
  facet normal 0 0 -1
    outer loop
      vertex 49.6387 33.7988 0
      vertex 44.6582 35.3906 0
      vertex 46.1133 36.0352 0
    endloop
  endfacet
  facet normal -0 0 -1
    outer loop
      vertex 46.1133 36.0352 0
      vertex 44.6582 35.3906 0
      vertex 46.6309 37.9688 0
    endloop
  endfacet
  facet normal 0 0 -1
    outer loop
      vertex 46.6309 37.9688 0
      vertex 42.002 40 0
      vertex 47.3145 40 0
    endloop
  endfacet
  facet normal 0 0 -1
    outer loop
      vertex 48.5547 37.4512 0
      vertex 46.6309 37.9688 0
      vertex 47.9785 38.75 0
    endloop
  endfacet
  facet normal -0 0 -1
    outer loop
      vertex 47.9785 38.75 0
      vertex 46.6309 37.9688 0
      vertex 47.3145 40 0
    endloop
  endfacet
  facet normal -0 0 -1
    outer loop
      vertex 46.6309 37.9688 0
      vertex 44.6582 35.3906 0
      vertex 42.002 40 0
    endloop
  endfacet
  facet normal 0 0 -1
    outer loop
      vertex 42.002 40 0
      vertex 39.0039 42.7637 0
      vertex 42.002 42.002 0
    endloop
  endfacet
  facet normal 0 0 -1
    outer loop
      vertex 46.0059 42.002 0
      vertex 42.002 42.002 0
      vertex 45.8789 42.1875 0
    endloop
  endfacet
  facet normal -0 0 -1
    outer loop
      vertex 45.8789 42.1875 0
      vertex 42.002 42.002 0
      vertex 45.0391 43.1934 0
    endloop
  endfacet
  facet normal -0 0 -1
    outer loop
      vertex 45.0391 43.1934 0
      vertex 42.002 42.002 0
      vertex 44.1309 44.1406 0
    endloop
  endfacet
  facet normal 0 0 -1
    outer loop
      vertex 44.1309 44.1406 0
      vertex 42.002 42.002 0
      vertex 39.0039 42.7637 0
    endloop
  endfacet
  facet normal 0 0 -1
    outer loop
      vertex 39.0039 42.7637 0
      vertex 37.1289 45.6641 0
      vertex 38.4863 44.6973 0
    endloop
  endfacet
  facet normal 0 0 -1
    outer loop
      vertex 30.9961 49.9805 0
      vertex 34.2383 48.3887 0
      vertex 30.9961 44.0039 0
    endloop
  endfacet
  facet normal -0 0 -1
    outer loop
      vertex 42.3438 45.7324 0
      vertex 38.4863 44.6973 0
      vertex 41.2012 46.5625 0
    endloop
  endfacet
  facet normal -0 0 -1
    outer loop
      vertex 41.2012 46.5625 0
      vertex 38.4863 44.6973 0
      vertex 40 47.3145 0
    endloop
  endfacet
  facet normal 0 0 -1
    outer loop
      vertex 40 47.3145 0
      vertex 38.4863 44.6973 0
      vertex 37.1289 45.6641 0
    endloop
  endfacet
  facet normal 0 0 -1
    outer loop
      vertex 30.9961 44.0039 0
      vertex 34.2383 48.3887 0
      vertex 36.123 47.3926 0
    endloop
  endfacet
  facet normal 0 0 -1
    outer loop
      vertex 36.123 47.3926 0
      vertex 34.2383 48.3887 0
      vertex 35.1758 49.3164 0
    endloop
  endfacet
  facet normal -0 0 -1
    outer loop
      vertex 37.8418 48.3887 0
      vertex 36.123 47.3926 0
      vertex 36.5234 48.8965 0
    endloop
  endfacet
  facet normal -0 0 -1
    outer loop
      vertex 36.5234 48.8965 0
      vertex 36.123 47.3926 0
      vertex 35.1758 49.3164 0
    endloop
  endfacet
  facet normal 0 0 -1
    outer loop
      vertex 30.9961 44.0039 0
      vertex 36.123 47.3926 0
      vertex 37.1289 45.6641 0
    endloop
  endfacet
  facet normal 0 0 -1
    outer loop
      vertex 34.2383 48.3887 0
      vertex 30.9961 49.9805 0
      vertex 32.832 49.7949 0
    endloop
  endfacet
  facet normal 0 0 -1
    outer loop
      vertex 39.0039 42.7637 0
      vertex 30.9961 44.0039 0
      vertex 37.1289 45.6641 0
    endloop
  endfacet
  facet normal 0 0 -1
    outer loop
      vertex 27.3438 43.7793 0
      vertex 22.0117 37.0215 0
      vertex 25.4102 43.2617 0
    endloop
  endfacet
  facet normal -0 0 -1
    outer loop
      vertex 23.8965 18.0176 0
      vertex 19.1309 13.2129 0
      vertex 20.8105 19.3945 0
    endloop
  endfacet
  facet normal 0 0 -1
    outer loop
      vertex 12.3535 33.6914 0
      vertex 12.8711 35.625 0
      vertex 15.1465 33.5547 0
    endloop
  endfacet
  facet normal 0 0 -1
    outer loop
      vertex 20.8105 19.3945 0
      vertex 21.9043 21.6211 0
      vertex 22.998 20.0098 0
    endloop
  endfacet
  facet normal 0 0 -1
    outer loop
      vertex 25.4102 43.2617 0
      vertex 21.1328 43.3594 0
      vertex 22.8613 44.3555 0
    endloop
  endfacet
  facet normal 0 -0 -1
    outer loop
      vertex 16.9824 39.9902 0
      vertex 17.5781 35.5469 0
      vertex 13.916 38.1348 0
    endloop
  endfacet
  facet normal 0 0 -1
    outer loop
      vertex 16.9824 39.9902 0
      vertex 16.5625 42.0215 0
      vertex 18.916 40.5078 0
    endloop
  endfacet
  facet normal -0 0 -1
    outer loop
      vertex 15.8398 34.541 0
      vertex 15.1465 33.5547 0
      vertex 12.8711 35.625 0
    endloop
  endfacet
  facet normal -0 0 -1
    outer loop
      vertex 15.1465 33.5547 0
      vertex 13.7402 32.1387 0
      vertex 12.3535 33.6914 0
    endloop
  endfacet
  facet normal -0 0 -1
    outer loop
      vertex 19.6973 26.1719 0
      vertex 17.3047 25.1367 0
      vertex 13.7402 32.1387 0
    endloop
  endfacet
  facet normal 0 0 -1
    outer loop
      vertex 17.3047 25.1367 0
      vertex 15.6445 22.8711 0
      vertex 12.8711 24.375 0
    endloop
  endfacet
  facet normal 0 0 -1
    outer loop
      vertex 17.3047 25.1367 0
      vertex 16.7871 23.2031 0
      vertex 15.6445 22.8711 0
    endloop
  endfacet
  facet normal -0 0 -1
    outer loop
      vertex 29.2188 28.1543 0
      vertex 25.0977 23.6133 0
      vertex 28.584 28.584 0
    endloop
  endfacet
  facet normal 0 -0 -1
    outer loop
      vertex 25.4688 15.8496 0
      vertex 26.4648 15.1562 0
      vertex 23.4375 11.1133 0
    endloop
  endfacet
  facet normal 0 0 -1
    outer loop
      vertex 22.998 20.0098 0
      vertex 21.9043 21.6211 0
      vertex 22.2949 21.7285 0
    endloop
  endfacet
  facet normal 0 0 -1
    outer loop
      vertex 20.8105 19.3945 0
      vertex 17.8223 14.1309 0
      vertex 16.582 15.166 0
    endloop
  endfacet
  facet normal 0 0 -1
    outer loop
      vertex 28.9551 22.0117 0
      vertex 26.9238 22.5586 0
      vertex 29.2188 28.1543 0
    endloop
  endfacet
  facet normal 0 0 -1
    outer loop
      vertex 22.0117 37.0215 0
      vertex 28.1543 30.7617 0
      vertex 22.0117 28.9551 0
    endloop
  endfacet
  facet normal 0 0 -1
    outer loop
      vertex 24.9707 10.6543 0
      vertex 27.8809 13.7402 0
      vertex 26.5332 10.3125 0
    endloop
  endfacet
  facet normal 0 0 -1
    outer loop
      vertex 20.8105 19.3945 0
      vertex 19.1309 13.2129 0
      vertex 17.8223 14.1309 0
    endloop
  endfacet
  facet normal -0 0 -1
    outer loop
      vertex 24.4727 17.5781 0
      vertex 20.5078 12.3926 0
      vertex 23.8965 18.0176 0
    endloop
  endfacet
  facet normal 0 0 -1
    outer loop
      vertex 23.4375 11.1133 0
      vertex 21.9434 11.6992 0
      vertex 25.4688 15.8496 0
    endloop
  endfacet
  facet normal 0 0 -1
    outer loop
      vertex 24.9707 10.6543 0
      vertex 23.4375 11.1133 0
      vertex 26.4648 15.1562 0
    endloop
  endfacet
  facet normal -0 0 -1
    outer loop
      vertex 27.8809 13.7402 0
      vertex 24.9707 10.6543 0
      vertex 26.4648 15.1562 0
    endloop
  endfacet
  facet normal 0 0 -1
    outer loop
      vertex 28.1348 10.0977 0
      vertex 26.5332 10.3125 0
      vertex 27.8809 13.7402 0
    endloop
  endfacet
  facet normal -0 0 -1
    outer loop
      vertex 30 11.9629 0
      vertex 28.1348 10.0977 0
      vertex 27.8809 13.7402 0
    endloop
  endfacet
  facet normal 0 0 -1
    outer loop
      vertex 31.8652 10.0977 0
      vertex 30 11.9629 0
      vertex 33.9941 10.4102 0
    endloop
  endfacet
  facet normal -0 -0 -1
    outer loop
      vertex 35 20.0098 0
      vertex 36.0742 10.957 0
      vertex 34.1504 20.0098 0
    endloop
  endfacet
  facet normal -0 0 -1
    outer loop
      vertex 40 14.0039 0
      vertex 38.0762 11.709 0
      vertex 35 20.0098 0
    endloop
  endfacet
  facet normal 0 0 -1
    outer loop
      vertex 20.5078 12.3926 0
      vertex 24.4727 17.5781 0
      vertex 25.4688 15.8496 0
    endloop
  endfacet
  facet normal 0 -0 -1
    outer loop
      vertex 29.2188 28.1543 0
      vertex 30 27.998 0
      vertex 28.9551 22.0117 0
    endloop
  endfacet
  facet normal 0 0 -1
    outer loop
      vertex 20.5078 12.3926 0
      vertex 25.4688 15.8496 0
      vertex 21.9434 11.6992 0
    endloop
  endfacet
  facet normal 0 0 -1
    outer loop
      vertex 37.4121 21.6406 0
      vertex 37.1582 22.5977 0
      vertex 39.3262 23.8477 0
    endloop
  endfacet
  facet normal 0 0 -1
    outer loop
      vertex 23.8965 18.0176 0
      vertex 20.5078 12.3926 0
      vertex 19.1309 13.2129 0
    endloop
  endfacet
  facet normal -0 -0 -1
    outer loop
      vertex 23.3789 19.9512 0
      vertex 23.8965 18.0176 0
      vertex 22.998 20.0098 0
    endloop
  endfacet
  facet normal -0 -0 -1
    outer loop
      vertex 22.998 21.5332 0
      vertex 22.998 20.0098 0
      vertex 22.2949 21.7285 0
    endloop
  endfacet
  facet normal 0 -0 -1
    outer loop
      vertex 22.998 20.0098 0
      vertex 23.8965 18.0176 0
      vertex 20.8105 19.3945 0
    endloop
  endfacet
  facet normal 0 0 -1
    outer loop
      vertex 18.9355 24.8535 0
      vertex 17.3047 25.1367 0
      vertex 19.6973 26.1719 0
    endloop
  endfacet
  facet normal 0 0 -1
    outer loop
      vertex 17.3047 25.1367 0
      vertex 12.3535 26.3086 0
      vertex 12.002 29.0039 0
    endloop
  endfacet
  facet normal 0 0 -1
    outer loop
      vertex 20.8105 19.3945 0
      vertex 19.3945 20.8105 0
      vertex 21.9043 21.6211 0
    endloop
  endfacet
  facet normal -0 0 -1
    outer loop
      vertex 21.9043 21.6211 0
      vertex 19.3945 20.8105 0
      vertex 21.8457 21.8457 0
    endloop
  endfacet
  facet normal -0 0 -1
    outer loop
      vertex 21.8457 21.8457 0
      vertex 19.3945 20.8105 0
      vertex 16.7871 23.2031 0
    endloop
  endfacet
  facet normal -0 0 -1
    outer loop
      vertex 17.3047 25.1367 0
      vertex 12.8711 24.375 0
      vertex 12.3535 26.3086 0
    endloop
  endfacet
  facet normal 0 0 -1
    outer loop
      vertex 16.7871 23.2031 0
      vertex 16.6406 21.1426 0
      vertex 15.6445 22.8711 0
    endloop
  endfacet
  facet normal 0 0 -1
    outer loop
      vertex 17.3047 25.1367 0
      vertex 12.002 29.0039 0
      vertex 13.7402 32.1387 0
    endloop
  endfacet
  facet normal 0 -0 -1
    outer loop
      vertex 13.916 38.1348 0
      vertex 15.8398 34.541 0
      vertex 12.8711 35.625 0
    endloop
  endfacet
  facet normal 0 -0 -1
    outer loop
      vertex 12.3535 33.6914 0
      vertex 13.7402 32.1387 0
      vertex 12.002 31.0059 0
    endloop
  endfacet
  facet normal 0 0 -1
    outer loop
      vertex 13.7402 32.1387 0
      vertex 12.002 29.0039 0
      vertex 12.002 31.0059 0
    endloop
  endfacet
  facet normal 0 0 -1
    outer loop
      vertex 15.8398 34.541 0
      vertex 13.916 38.1348 0
      vertex 17.5781 35.5469 0
    endloop
  endfacet
  facet normal 0 0 -1
    outer loop
      vertex 14.9121 39.8633 0
      vertex 16.5625 42.0215 0
      vertex 16.9824 39.9902 0
    endloop
  endfacet
  facet normal 0 -0 -1
    outer loop
      vertex 14.9121 39.8633 0
      vertex 16.9824 39.9902 0
      vertex 13.916 38.1348 0
    endloop
  endfacet
  facet normal 0 0 -1
    outer loop
      vertex 20.0098 37.0215 0
      vertex 18.916 40.5078 0
      vertex 22.0117 37.0215 0
    endloop
  endfacet
  facet normal 0 0 -1
    outer loop
      vertex 16.5625 42.0215 0
      vertex 17.9785 43.4375 0
      vertex 18.916 40.5078 0
    endloop
  endfacet
  facet normal 0 0 -1
    outer loop
      vertex 18.916 40.5078 0
      vertex 17.9785 43.4375 0
      vertex 21.1328 43.3594 0
    endloop
  endfacet
  facet normal 0 0 -1
    outer loop
      vertex 22.0117 37.0215 0
      vertex 18.916 40.5078 0
      vertex 21.1328 43.3594 0
    endloop
  endfacet
  facet normal 0 0 -1
    outer loop
      vertex 30.7617 28.1543 0
      vertex 31.416 28.584 0
      vertex 34.9219 23.6133 0
    endloop
  endfacet
  facet normal 0 0 -1
    outer loop
      vertex 26.9238 22.5586 0
      vertex 25.0977 23.6133 0
      vertex 29.2188 28.1543 0
    endloop
  endfacet
  facet normal 0 0 -1
    outer loop
      vertex 28.9551 22.0117 0
      vertex 30 27.998 0
      vertex 31.0645 22.0117 0
    endloop
  endfacet
  facet normal 0 0 -1
    outer loop
      vertex 28.584 28.584 0
      vertex 25.0977 23.6133 0
      vertex 23.6035 25.0977 0
    endloop
  endfacet
  facet normal 0 -0 -1
    outer loop
      vertex 28.1543 29.2188 0
      vertex 28.584 28.584 0
      vertex 23.6035 25.0977 0
    endloop
  endfacet
  facet normal 0 0 -1
    outer loop
      vertex 40.6055 26.4648 0
      vertex 39.3262 23.8477 0
      vertex 38.8379 24.6973 0
    endloop
  endfacet
  facet normal 0 0 -1
    outer loop
      vertex 29.2383 31.8457 0
      vertex 22.0117 37.0215 0
      vertex 27.3438 43.7793 0
    endloop
  endfacet
  facet normal 0 0 -1
    outer loop
      vertex 30 11.9629 0
      vertex 27.8809 13.7402 0
      vertex 34.1504 20.0098 0
    endloop
  endfacet
  facet normal -0 0 -1
    outer loop
      vertex 43.7988 17.1289 0
      vertex 40 14.0039 0
      vertex 37.4121 21.6406 0
    endloop
  endfacet
  facet normal -0 0 -1
    outer loop
      vertex 44.1406 30 0
      vertex 39.1895 27.8809 0
      vertex 43.6621 33.6621 0
    endloop
  endfacet
  facet normal -0 0 -1
    outer loop
      vertex 39.0039 42.7637 0
      vertex 30.7617 31.8457 0
      vertex 30.9961 44.0039 0
    endloop
  endfacet
  facet normal 0 0 -1
    outer loop
      vertex 44.6582 24.6094 0
      vertex 40.6055 26.4648 0
      vertex 44.1406 30 0
    endloop
  endfacet
  facet normal 0 0 -1
    outer loop
      vertex 39.3262 23.8477 0
      vertex 40.6055 26.4648 0
      vertex 44.6582 24.6094 0
    endloop
  endfacet
  facet normal 0 0 -1
    outer loop
      vertex 43.7988 17.1289 0
      vertex 39.3262 23.8477 0
      vertex 44.6582 24.6094 0
    endloop
  endfacet
  facet normal 0 0 -1
    outer loop
      vertex 37.4121 21.6406 0
      vertex 39.3262 23.8477 0
      vertex 43.7988 17.1289 0
    endloop
  endfacet
  facet normal 0 0 -1
    outer loop
      vertex 35 20.0098 0
      vertex 35.1855 21.0449 0
      vertex 37.4121 21.6406 0
    endloop
  endfacet
  facet normal 0 0 -1
    outer loop
      vertex 34.1504 20.0098 0
      vertex 33.9941 10.4102 0
      vertex 30 11.9629 0
    endloop
  endfacet
  facet normal -0 0 -1
    outer loop
      vertex 38.0762 11.709 0
      vertex 36.0742 10.957 0
      vertex 35 20.0098 0
    endloop
  endfacet
  facet normal -0 0 -1
    outer loop
      vertex 36.0742 10.957 0
      vertex 33.9941 10.4102 0
      vertex 34.1504 20.0098 0
    endloop
  endfacet
  facet normal -0 0 -1
    outer loop
      vertex 42.002 40 0
      vertex 31.416 31.416 0
      vertex 39.0039 42.7637 0
    endloop
  endfacet
  facet normal 0 0 -1
    outer loop
      vertex 22.5488 26.9238 0
      vertex 28.1543 29.2188 0
      vertex 23.6035 25.0977 0
    endloop
  endfacet
  facet normal 0 0 -1
    outer loop
      vertex 22.5488 26.9238 0
      vertex 22.0117 28.9551 0
      vertex 28.1543 29.2188 0
    endloop
  endfacet
  facet normal -0 0 -1
    outer loop
      vertex 28.1543 29.2188 0
      vertex 22.0117 28.9551 0
      vertex 27.998 30 0
    endloop
  endfacet
  facet normal 0 0 -1
    outer loop
      vertex 28.1543 30.7617 0
      vertex 22.0117 37.0215 0
      vertex 28.584 31.416 0
    endloop
  endfacet
  facet normal -0 0 -1
    outer loop
      vertex 27.998 30 0
      vertex 22.0117 28.9551 0
      vertex 28.1543 30.7617 0
    endloop
  endfacet
  facet normal 0 0 -1
    outer loop
      vertex 28.584 31.416 0
      vertex 22.0117 37.0215 0
      vertex 29.2383 31.8457 0
    endloop
  endfacet
  facet normal 0 0 -1
    outer loop
      vertex 29.2383 31.8457 0
      vertex 27.3438 43.7793 0
      vertex 30 32.002 0
    endloop
  endfacet
  facet normal 0 0 -1
    outer loop
      vertex 30.9961 44.0039 0
      vertex 30.7617 31.8457 0
      vertex 30 32.002 0
    endloop
  endfacet
  facet normal 0 0 -1
    outer loop
      vertex 39.0039 42.7637 0
      vertex 31.416 31.416 0
      vertex 30.7617 31.8457 0
    endloop
  endfacet
  facet normal 0 -0 -1
    outer loop
      vertex 42.002 40 0
      vertex 43.6621 33.6621 0
      vertex 31.416 31.416 0
    endloop
  endfacet
  facet normal 0 0 -1
    outer loop
      vertex 31.416 31.416 0
      vertex 43.6621 33.6621 0
      vertex 31.8457 30.7617 0
    endloop
  endfacet
  facet normal 0 0 -1
    outer loop
      vertex 32.002 30 0
      vertex 31.8457 30.7617 0
      vertex 39.1895 27.8809 0
    endloop
  endfacet
  facet normal 0 0 -1
    outer loop
      vertex 31.8457 30.7617 0
      vertex 43.6621 33.6621 0
      vertex 39.1895 27.8809 0
    endloop
  endfacet
  facet normal 0 -0 -1
    outer loop
      vertex 32.002 30 0
      vertex 39.1895 27.8809 0
      vertex 31.8457 29.2383 0
    endloop
  endfacet
  facet normal 0 0 -1
    outer loop
      vertex 31.8457 29.2383 0
      vertex 39.1895 27.8809 0
      vertex 34.9219 23.6133 0
    endloop
  endfacet
  facet normal 0 0 -1
    outer loop
      vertex 31.416 28.584 0
      vertex 31.8457 29.2383 0
      vertex 34.9219 23.6133 0
    endloop
  endfacet
  facet normal 0 0 -1
    outer loop
      vertex 30 27.998 0
      vertex 30.7617 28.1543 0
      vertex 31.0645 22.0117 0
    endloop
  endfacet
  facet normal 0 0 -1
    outer loop
      vertex 30.7617 28.1543 0
      vertex 34.9219 23.6133 0
      vertex 33.0957 22.5586 0
    endloop
  endfacet
  facet normal -0 0 1
    outer loop
      vertex 35 20.8594 2.5
      vertex 35 20.0098 2.5
      vertex 35.1855 21.0449 2.5
    endloop
  endfacet
  facet normal -0 0 1
    outer loop
      vertex 35 20.0098 2.5
      vertex 40 14.0039 2.5
      vertex 37.4121 21.6406 2.5
    endloop
  endfacet
  facet normal 0 0 1
    outer loop
      vertex 38.0762 11.709 2.5
      vertex 40 12.6855 2.5
      vertex 40 14.0039 2.5
    endloop
  endfacet
  facet normal 0 -0 1
    outer loop
      vertex 31.0645 22.0117 2.5
      vertex 33.0957 22.5586 2.5
      vertex 30.7617 28.1543 2.5
    endloop
  endfacet
  facet normal -0 0 1
    outer loop
      vertex 39.1895 27.8809 2.5
      vertex 40.6055 26.4648 2.5
      vertex 44.1406 30 2.5
    endloop
  endfacet
  facet normal 0 0 1
    outer loop
      vertex 42.1875 14.1211 2.5
      vertex 40 14.0039 2.5
      vertex 42.002 14.0039 2.5
    endloop
  endfacet
  facet normal 0 0 1
    outer loop
      vertex 43.1934 14.9609 2.5
      vertex 40 14.0039 2.5
      vertex 42.1875 14.1211 2.5
    endloop
  endfacet
  facet normal 0 0 1
    outer loop
      vertex 44.1406 15.8691 2.5
      vertex 43.7988 17.1289 2.5
      vertex 43.1934 14.9609 2.5
    endloop
  endfacet
  facet normal 0 0 1
    outer loop
      vertex 43.7988 17.1289 2.5
      vertex 40 14.0039 2.5
      vertex 43.1934 14.9609 2.5
    endloop
  endfacet
  facet normal 0 -0 1
    outer loop
      vertex 46.5625 18.7988 2.5
      vertex 47.3145 20 2.5
      vertex 44.6582 24.6094 2.5
    endloop
  endfacet
  facet normal 0 0 1
    outer loop
      vertex 46.5625 18.7988 2.5
      vertex 43.7988 17.1289 2.5
      vertex 45.7324 17.6465 2.5
    endloop
  endfacet
  facet normal 0 0 1
    outer loop
      vertex 46.5625 18.7988 2.5
      vertex 44.6582 24.6094 2.5
      vertex 43.7988 17.1289 2.5
    endloop
  endfacet
  facet normal 0 -0 1
    outer loop
      vertex 22.0117 37.0215 2.5
      vertex 25.4102 43.2617 2.5
      vertex 21.1328 43.3594 2.5
    endloop
  endfacet
  facet normal -0 0 1
    outer loop
      vertex 16.6406 21.1426 2.5
      vertex 19.3945 20.8105 2.5
      vertex 16.7871 23.2031 2.5
    endloop
  endfacet
  facet normal 0 0 1
    outer loop
      vertex 44.1406 30 2.5
      vertex 44.6582 24.6094 2.5
      vertex 46.3965 25.6055 2.5
    endloop
  endfacet
  facet normal 0 0 1
    outer loop
      vertex 48.8965 23.4766 2.5
      vertex 46.3965 25.6055 2.5
      vertex 48.3887 22.1582 2.5
    endloop
  endfacet
  facet normal 0 0 1
    outer loop
      vertex 49.3164 24.8242 2.5
      vertex 46.3965 25.6055 2.5
      vertex 48.8965 23.4766 2.5
    endloop
  endfacet
  facet normal 0 0 1
    outer loop
      vertex 44.1406 30 2.5
      vertex 46.3965 25.6055 2.5
      vertex 49.3164 24.8242 2.5
    endloop
  endfacet
  facet normal 0 0 1
    outer loop
      vertex 29.0039 44.0039 2.5
      vertex 27.3438 43.7793 2.5
      vertex 30 32.002 2.5
    endloop
  endfacet
  facet normal 0 0 1
    outer loop
      vertex 43.6621 33.6621 2.5
      vertex 44.1406 30 2.5
      vertex 45.5566 31.416 2.5
    endloop
  endfacet
  facet normal 0 0 1
    outer loop
      vertex 49.9512 28.584 2.5
      vertex 45.5566 31.416 2.5
      vertex 49.8047 27.1582 2.5
    endloop
  endfacet
  facet normal 0 0 1
    outer loop
      vertex 49.9902 30.0098 2.5
      vertex 45.5566 31.416 2.5
      vertex 49.9512 28.584 2.5
    endloop
  endfacet
  facet normal 0 0 1
    outer loop
      vertex 43.6621 33.6621 2.5
      vertex 45.5566 31.416 2.5
      vertex 49.9902 30.0098 2.5
    endloop
  endfacet
  facet normal -0 0 1
    outer loop
      vertex 29.0039 44.0039 2.5
      vertex 30 32.002 2.5
      vertex 30.9961 44.0039 2.5
    endloop
  endfacet
  facet normal 0 0 1
    outer loop
      vertex 42.002 40 2.5
      vertex 43.6621 33.6621 2.5
      vertex 44.6582 35.3906 2.5
    endloop
  endfacet
  facet normal 0 0 1
    outer loop
      vertex 49.6387 33.7988 2.5
      vertex 44.6582 35.3906 2.5
      vertex 49.8438 32.4023 2.5
    endloop
  endfacet
  facet normal 0 0 1
    outer loop
      vertex 49.3262 35.1758 2.5
      vertex 46.1133 36.0352 2.5
      vertex 49.6387 33.7988 2.5
    endloop
  endfacet
  facet normal 0 0 1
    outer loop
      vertex 46.1133 36.0352 2.5
      vertex 44.6582 35.3906 2.5
      vertex 49.6387 33.7988 2.5
    endloop
  endfacet
  facet normal 0 0 1
    outer loop
      vertex 46.6309 37.9688 2.5
      vertex 44.6582 35.3906 2.5
      vertex 46.1133 36.0352 2.5
    endloop
  endfacet
  facet normal 0 0 1
    outer loop
      vertex 47.3145 40 2.5
      vertex 42.002 40 2.5
      vertex 46.6309 37.9688 2.5
    endloop
  endfacet
  facet normal 0 0 1
    outer loop
      vertex 47.9785 38.75 2.5
      vertex 46.6309 37.9688 2.5
      vertex 48.5547 37.4512 2.5
    endloop
  endfacet
  facet normal 0 0 1
    outer loop
      vertex 47.3145 40 2.5
      vertex 46.6309 37.9688 2.5
      vertex 47.9785 38.75 2.5
    endloop
  endfacet
  facet normal 0 0 1
    outer loop
      vertex 42.002 40 2.5
      vertex 44.6582 35.3906 2.5
      vertex 46.6309 37.9688 2.5
    endloop
  endfacet
  facet normal 0 0 1
    outer loop
      vertex 42.002 42.002 2.5
      vertex 39.0039 42.7637 2.5
      vertex 42.002 40 2.5
    endloop
  endfacet
  facet normal 0 0 1
    outer loop
      vertex 45.8789 42.1875 2.5
      vertex 42.002 42.002 2.5
      vertex 46.0059 42.002 2.5
    endloop
  endfacet
  facet normal 0 0 1
    outer loop
      vertex 45.0391 43.1934 2.5
      vertex 42.002 42.002 2.5
      vertex 45.8789 42.1875 2.5
    endloop
  endfacet
  facet normal 0 0 1
    outer loop
      vertex 44.1309 44.1406 2.5
      vertex 42.002 42.002 2.5
      vertex 45.0391 43.1934 2.5
    endloop
  endfacet
  facet normal -0 0 1
    outer loop
      vertex 39.0039 42.7637 2.5
      vertex 42.002 42.002 2.5
      vertex 44.1309 44.1406 2.5
    endloop
  endfacet
  facet normal 0 0 1
    outer loop
      vertex 38.4863 44.6973 2.5
      vertex 37.1289 45.6641 2.5
      vertex 39.0039 42.7637 2.5
    endloop
  endfacet
  facet normal 0 0 1
    outer loop
      vertex 30.9961 44.0039 2.5
      vertex 34.2383 48.3887 2.5
      vertex 30.9961 49.9805 2.5
    endloop
  endfacet
  facet normal 0 0 1
    outer loop
      vertex 41.2012 46.5625 2.5
      vertex 38.4863 44.6973 2.5
      vertex 42.3438 45.7324 2.5
    endloop
  endfacet
  facet normal 0 0 1
    outer loop
      vertex 40 47.3145 2.5
      vertex 38.4863 44.6973 2.5
      vertex 41.2012 46.5625 2.5
    endloop
  endfacet
  facet normal -0 0 1
    outer loop
      vertex 37.1289 45.6641 2.5
      vertex 38.4863 44.6973 2.5
      vertex 40 47.3145 2.5
    endloop
  endfacet
  facet normal 0 0 1
    outer loop
      vertex 36.123 47.3926 2.5
      vertex 34.2383 48.3887 2.5
      vertex 30.9961 44.0039 2.5
    endloop
  endfacet
  facet normal 0 0 1
    outer loop
      vertex 35.1758 49.3164 2.5
      vertex 34.2383 48.3887 2.5
      vertex 36.123 47.3926 2.5
    endloop
  endfacet
  facet normal 0 0 1
    outer loop
      vertex 36.5234 48.8965 2.5
      vertex 36.123 47.3926 2.5
      vertex 37.8418 48.3887 2.5
    endloop
  endfacet
  facet normal 0 0 1
    outer loop
      vertex 35.1758 49.3164 2.5
      vertex 36.123 47.3926 2.5
      vertex 36.5234 48.8965 2.5
    endloop
  endfacet
  facet normal 0 0 1
    outer loop
      vertex 37.1289 45.6641 2.5
      vertex 36.123 47.3926 2.5
      vertex 30.9961 44.0039 2.5
    endloop
  endfacet
  facet normal 0 0 1
    outer loop
      vertex 32.832 49.7949 2.5
      vertex 30.9961 49.9805 2.5
      vertex 34.2383 48.3887 2.5
    endloop
  endfacet
  facet normal 0 0 1
    outer loop
      vertex 37.1289 45.6641 2.5
      vertex 30.9961 44.0039 2.5
      vertex 39.0039 42.7637 2.5
    endloop
  endfacet
  facet normal -0 0 1
    outer loop
      vertex 25.4102 43.2617 2.5
      vertex 22.0117 37.0215 2.5
      vertex 27.3438 43.7793 2.5
    endloop
  endfacet
  facet normal 0 0 1
    outer loop
      vertex 20.8105 19.3945 2.5
      vertex 19.1309 13.2129 2.5
      vertex 23.8965 18.0176 2.5
    endloop
  endfacet
  facet normal 0 0 1
    outer loop
      vertex 15.1465 33.5547 2.5
      vertex 12.8711 35.625 2.5
      vertex 12.3535 33.6914 2.5
    endloop
  endfacet
  facet normal 0 0 1
    outer loop
      vertex 22.998 20.0098 2.5
      vertex 21.9043 21.6211 2.5
      vertex 20.8105 19.3945 2.5
    endloop
  endfacet
  facet normal 0 0 1
    outer loop
      vertex 22.8613 44.3555 2.5
      vertex 21.1328 43.3594 2.5
      vertex 25.4102 43.2617 2.5
    endloop
  endfacet
  facet normal -0 0 1
    outer loop
      vertex 13.916 38.1348 2.5
      vertex 17.5781 35.5469 2.5
      vertex 16.9824 39.9902 2.5
    endloop
  endfacet
  facet normal 0 0 1
    outer loop
      vertex 18.916 40.5078 2.5
      vertex 16.5625 42.0215 2.5
      vertex 16.9824 39.9902 2.5
    endloop
  endfacet
  facet normal 0 0 1
    outer loop
      vertex 12.8711 35.625 2.5
      vertex 15.1465 33.5547 2.5
      vertex 15.8398 34.541 2.5
    endloop
  endfacet
  facet normal 0 0 1
    outer loop
      vertex 12.3535 33.6914 2.5
      vertex 13.7402 32.1387 2.5
      vertex 15.1465 33.5547 2.5
    endloop
  endfacet
  facet normal 0 0 1
    outer loop
      vertex 13.7402 32.1387 2.5
      vertex 17.3047 25.1367 2.5
      vertex 19.6973 26.1719 2.5
    endloop
  endfacet
  facet normal -0 0 1
    outer loop
      vertex 12.8711 24.375 2.5
      vertex 15.6445 22.8711 2.5
      vertex 17.3047 25.1367 2.5
    endloop
  endfacet
  facet normal 0 0 1
    outer loop
      vertex 15.6445 22.8711 2.5
      vertex 16.7871 23.2031 2.5
      vertex 17.3047 25.1367 2.5
    endloop
  endfacet
  facet normal 0 0 1
    outer loop
      vertex 28.584 28.584 2.5
      vertex 25.0977 23.6133 2.5
      vertex 29.2188 28.1543 2.5
    endloop
  endfacet
  facet normal 0 0 1
    outer loop
      vertex 23.4375 11.1133 2.5
      vertex 26.4648 15.1562 2.5
      vertex 25.4688 15.8496 2.5
    endloop
  endfacet
  facet normal 0 0 1
    outer loop
      vertex 22.2949 21.7285 2.5
      vertex 21.9043 21.6211 2.5
      vertex 22.998 20.0098 2.5
    endloop
  endfacet
  facet normal -0 0 1
    outer loop
      vertex 16.582 15.166 2.5
      vertex 17.8223 14.1309 2.5
      vertex 20.8105 19.3945 2.5
    endloop
  endfacet
  facet normal 0 0 1
    outer loop
      vertex 29.2188 28.1543 2.5
      vertex 26.9238 22.5586 2.5
      vertex 28.9551 22.0117 2.5
    endloop
  endfacet
  facet normal 0 0 1
    outer loop
      vertex 22.0117 28.9551 2.5
      vertex 28.1543 30.7617 2.5
      vertex 22.0117 37.0215 2.5
    endloop
  endfacet
  facet normal 0 -0 1
    outer loop
      vertex 26.5332 10.3125 2.5
      vertex 27.8809 13.7402 2.5
      vertex 24.9707 10.6543 2.5
    endloop
  endfacet
  facet normal -0 0 1
    outer loop
      vertex 17.8223 14.1309 2.5
      vertex 19.1309 13.2129 2.5
      vertex 20.8105 19.3945 2.5
    endloop
  endfacet
  facet normal 0 0 1
    outer loop
      vertex 23.8965 18.0176 2.5
      vertex 20.5078 12.3926 2.5
      vertex 24.4727 17.5781 2.5
    endloop
  endfacet
  facet normal 0 0 1
    outer loop
      vertex 25.4688 15.8496 2.5
      vertex 21.9434 11.6992 2.5
      vertex 23.4375 11.1133 2.5
    endloop
  endfacet
  facet normal 0 0 1
    outer loop
      vertex 26.4648 15.1562 2.5
      vertex 23.4375 11.1133 2.5
      vertex 24.9707 10.6543 2.5
    endloop
  endfacet
  facet normal 0 0 1
    outer loop
      vertex 26.4648 15.1562 2.5
      vertex 24.9707 10.6543 2.5
      vertex 27.8809 13.7402 2.5
    endloop
  endfacet
  facet normal 0 0 1
    outer loop
      vertex 27.8809 13.7402 2.5
      vertex 26.5332 10.3125 2.5
      vertex 28.1348 10.0977 2.5
    endloop
  endfacet
  facet normal 0 0 1
    outer loop
      vertex 27.8809 13.7402 2.5
      vertex 28.1348 10.0977 2.5
      vertex 30 11.9629 2.5
    endloop
  endfacet
  facet normal 0 0 1
    outer loop
      vertex 33.9941 10.4102 2.5
      vertex 30 11.9629 2.5
      vertex 31.8652 10.0977 2.5
    endloop
  endfacet
  facet normal -0 0 1
    outer loop
      vertex 34.1504 20.0098 2.5
      vertex 36.0742 10.957 2.5
      vertex 35 20.0098 2.5
    endloop
  endfacet
  facet normal 0 0 1
    outer loop
      vertex 35 20.0098 2.5
      vertex 38.0762 11.709 2.5
      vertex 40 14.0039 2.5
    endloop
  endfacet
  facet normal 0 0 1
    outer loop
      vertex 25.4688 15.8496 2.5
      vertex 24.4727 17.5781 2.5
      vertex 20.5078 12.3926 2.5
    endloop
  endfacet
  facet normal 0 0 1
    outer loop
      vertex 28.9551 22.0117 2.5
      vertex 30 27.998 2.5
      vertex 29.2188 28.1543 2.5
    endloop
  endfacet
  facet normal 0 -0 1
    outer loop
      vertex 21.9434 11.6992 2.5
      vertex 25.4688 15.8496 2.5
      vertex 20.5078 12.3926 2.5
    endloop
  endfacet
  facet normal 0 0 1
    outer loop
      vertex 39.3262 23.8477 2.5
      vertex 37.1582 22.5977 2.5
      vertex 37.4121 21.6406 2.5
    endloop
  endfacet
  facet normal -0 0 1
    outer loop
      vertex 19.1309 13.2129 2.5
      vertex 20.5078 12.3926 2.5
      vertex 23.8965 18.0176 2.5
    endloop
  endfacet
  facet normal 0 0 1
    outer loop
      vertex 22.998 20.0098 2.5
      vertex 23.8965 18.0176 2.5
      vertex 23.3789 19.9512 2.5
    endloop
  endfacet
  facet normal 0 0 1
    outer loop
      vertex 22.2949 21.7285 2.5
      vertex 22.998 20.0098 2.5
      vertex 22.998 21.5332 2.5
    endloop
  endfacet
  facet normal -0 0 1
    outer loop
      vertex 20.8105 19.3945 2.5
      vertex 23.8965 18.0176 2.5
      vertex 22.998 20.0098 2.5
    endloop
  endfacet
  facet normal 0 0 1
    outer loop
      vertex 19.6973 26.1719 2.5
      vertex 17.3047 25.1367 2.5
      vertex 18.9355 24.8535 2.5
    endloop
  endfacet
  facet normal 0 0 1
    outer loop
      vertex 12.002 29.0039 2.5
      vertex 12.3535 26.3086 2.5
      vertex 17.3047 25.1367 2.5
    endloop
  endfacet
  facet normal 0 0 1
    outer loop
      vertex 21.9043 21.6211 2.5
      vertex 19.3945 20.8105 2.5
      vertex 20.8105 19.3945 2.5
    endloop
  endfacet
  facet normal 0 0 1
    outer loop
      vertex 21.8457 21.8457 2.5
      vertex 19.3945 20.8105 2.5
      vertex 21.9043 21.6211 2.5
    endloop
  endfacet
  facet normal 0 0 1
    outer loop
      vertex 16.7871 23.2031 2.5
      vertex 19.3945 20.8105 2.5
      vertex 21.8457 21.8457 2.5
    endloop
  endfacet
  facet normal 0 0 1
    outer loop
      vertex 12.3535 26.3086 2.5
      vertex 12.8711 24.375 2.5
      vertex 17.3047 25.1367 2.5
    endloop
  endfacet
  facet normal -0 0 1
    outer loop
      vertex 15.6445 22.8711 2.5
      vertex 16.6406 21.1426 2.5
      vertex 16.7871 23.2031 2.5
    endloop
  endfacet
  facet normal 0 0 1
    outer loop
      vertex 13.7402 32.1387 2.5
      vertex 12.002 29.0039 2.5
      vertex 17.3047 25.1367 2.5
    endloop
  endfacet
  facet normal -0 0 1
    outer loop
      vertex 12.8711 35.625 2.5
      vertex 15.8398 34.541 2.5
      vertex 13.916 38.1348 2.5
    endloop
  endfacet
  facet normal 0 0 1
    outer loop
      vertex 12.002 31.0059 2.5
      vertex 13.7402 32.1387 2.5
      vertex 12.3535 33.6914 2.5
    endloop
  endfacet
  facet normal -0 0 1
    outer loop
      vertex 12.002 31.0059 2.5
      vertex 12.002 29.0039 2.5
      vertex 13.7402 32.1387 2.5
    endloop
  endfacet
  facet normal 0 0 1
    outer loop
      vertex 17.5781 35.5469 2.5
      vertex 13.916 38.1348 2.5
      vertex 15.8398 34.541 2.5
    endloop
  endfacet
  facet normal 0 0 1
    outer loop
      vertex 16.9824 39.9902 2.5
      vertex 16.5625 42.0215 2.5
      vertex 14.9121 39.8633 2.5
    endloop
  endfacet
  facet normal 0 0 1
    outer loop
      vertex 13.916 38.1348 2.5
      vertex 16.9824 39.9902 2.5
      vertex 14.9121 39.8633 2.5
    endloop
  endfacet
  facet normal 0 0 1
    outer loop
      vertex 22.0117 37.0215 2.5
      vertex 18.916 40.5078 2.5
      vertex 20.0098 37.0215 2.5
    endloop
  endfacet
  facet normal 0 0 1
    outer loop
      vertex 18.916 40.5078 2.5
      vertex 17.9785 43.4375 2.5
      vertex 16.5625 42.0215 2.5
    endloop
  endfacet
  facet normal 0 0 1
    outer loop
      vertex 21.1328 43.3594 2.5
      vertex 17.9785 43.4375 2.5
      vertex 18.916 40.5078 2.5
    endloop
  endfacet
  facet normal 0 0 1
    outer loop
      vertex 21.1328 43.3594 2.5
      vertex 18.916 40.5078 2.5
      vertex 22.0117 37.0215 2.5
    endloop
  endfacet
  facet normal 0 0 1
    outer loop
      vertex 34.9219 23.6133 2.5
      vertex 31.416 28.584 2.5
      vertex 30.7617 28.1543 2.5
    endloop
  endfacet
  facet normal 0 0 1
    outer loop
      vertex 29.2188 28.1543 2.5
      vertex 25.0977 23.6133 2.5
      vertex 26.9238 22.5586 2.5
    endloop
  endfacet
  facet normal 0 0 1
    outer loop
      vertex 31.0645 22.0117 2.5
      vertex 30 27.998 2.5
      vertex 28.9551 22.0117 2.5
    endloop
  endfacet
  facet normal -0 0 1
    outer loop
      vertex 23.6035 25.0977 2.5
      vertex 25.0977 23.6133 2.5
      vertex 28.584 28.584 2.5
    endloop
  endfacet
  facet normal 0 0 1
    outer loop
      vertex 23.6035 25.0977 2.5
      vertex 28.584 28.584 2.5
      vertex 28.1543 29.2188 2.5
    endloop
  endfacet
  facet normal -0 0 1
    outer loop
      vertex 38.8379 24.6973 2.5
      vertex 39.3262 23.8477 2.5
      vertex 40.6055 26.4648 2.5
    endloop
  endfacet
  facet normal 0 0 1
    outer loop
      vertex 27.3438 43.7793 2.5
      vertex 22.0117 37.0215 2.5
      vertex 29.2383 31.8457 2.5
    endloop
  endfacet
  facet normal 0 0 1
    outer loop
      vertex 34.1504 20.0098 2.5
      vertex 27.8809 13.7402 2.5
      vertex 30 11.9629 2.5
    endloop
  endfacet
  facet normal 0 0 1
    outer loop
      vertex 37.4121 21.6406 2.5
      vertex 40 14.0039 2.5
      vertex 43.7988 17.1289 2.5
    endloop
  endfacet
  facet normal 0 0 1
    outer loop
      vertex 43.6621 33.6621 2.5
      vertex 39.1895 27.8809 2.5
      vertex 44.1406 30 2.5
    endloop
  endfacet
  facet normal 0 0 1
    outer loop
      vertex 30.9961 44.0039 2.5
      vertex 30.7617 31.8457 2.5
      vertex 39.0039 42.7637 2.5
    endloop
  endfacet
  facet normal 0 0 1
    outer loop
      vertex 44.1406 30 2.5
      vertex 40.6055 26.4648 2.5
      vertex 44.6582 24.6094 2.5
    endloop
  endfacet
  facet normal 0 0 1
    outer loop
      vertex 44.6582 24.6094 2.5
      vertex 40.6055 26.4648 2.5
      vertex 39.3262 23.8477 2.5
    endloop
  endfacet
  facet normal 0 0 1
    outer loop
      vertex 44.6582 24.6094 2.5
      vertex 39.3262 23.8477 2.5
      vertex 43.7988 17.1289 2.5
    endloop
  endfacet
  facet normal 0 0 1
    outer loop
      vertex 43.7988 17.1289 2.5
      vertex 39.3262 23.8477 2.5
      vertex 37.4121 21.6406 2.5
    endloop
  endfacet
  facet normal 0 0 1
    outer loop
      vertex 37.4121 21.6406 2.5
      vertex 35.1855 21.0449 2.5
      vertex 35 20.0098 2.5
    endloop
  endfacet
  facet normal -0 0 1
    outer loop
      vertex 30 11.9629 2.5
      vertex 33.9941 10.4102 2.5
      vertex 34.1504 20.0098 2.5
    endloop
  endfacet
  facet normal 0 0 1
    outer loop
      vertex 35 20.0098 2.5
      vertex 36.0742 10.957 2.5
      vertex 38.0762 11.709 2.5
    endloop
  endfacet
  facet normal 0 0 1
    outer loop
      vertex 34.1504 20.0098 2.5
      vertex 33.9941 10.4102 2.5
      vertex 36.0742 10.957 2.5
    endloop
  endfacet
  facet normal 0 0 1
    outer loop
      vertex 39.0039 42.7637 2.5
      vertex 31.416 31.416 2.5
      vertex 42.002 40 2.5
    endloop
  endfacet
  facet normal 0 -0 1
    outer loop
      vertex 23.6035 25.0977 2.5
      vertex 28.1543 29.2188 2.5
      vertex 22.5488 26.9238 2.5
    endloop
  endfacet
  facet normal 0 0 1
    outer loop
      vertex 28.1543 29.2188 2.5
      vertex 22.0117 28.9551 2.5
      vertex 22.5488 26.9238 2.5
    endloop
  endfacet
  facet normal 0 0 1
    outer loop
      vertex 27.998 30 2.5
      vertex 22.0117 28.9551 2.5
      vertex 28.1543 29.2188 2.5
    endloop
  endfacet
  facet normal 0 0 1
    outer loop
      vertex 28.584 31.416 2.5
      vertex 22.0117 37.0215 2.5
      vertex 28.1543 30.7617 2.5
    endloop
  endfacet
  facet normal 0 0 1
    outer loop
      vertex 28.1543 30.7617 2.5
      vertex 22.0117 28.9551 2.5
      vertex 27.998 30 2.5
    endloop
  endfacet
  facet normal 0 0 1
    outer loop
      vertex 29.2383 31.8457 2.5
      vertex 22.0117 37.0215 2.5
      vertex 28.584 31.416 2.5
    endloop
  endfacet
  facet normal 0 0 1
    outer loop
      vertex 30 32.002 2.5
      vertex 27.3438 43.7793 2.5
      vertex 29.2383 31.8457 2.5
    endloop
  endfacet
  facet normal -0 0 1
    outer loop
      vertex 30 32.002 2.5
      vertex 30.7617 31.8457 2.5
      vertex 30.9961 44.0039 2.5
    endloop
  endfacet
  facet normal -0 0 1
    outer loop
      vertex 30.7617 31.8457 2.5
      vertex 31.416 31.416 2.5
      vertex 39.0039 42.7637 2.5
    endloop
  endfacet
  facet normal 0 0 1
    outer loop
      vertex 31.416 31.416 2.5
      vertex 43.6621 33.6621 2.5
      vertex 42.002 40 2.5
    endloop
  endfacet
  facet normal 0 -0 1
    outer loop
      vertex 31.8457 30.7617 2.5
      vertex 43.6621 33.6621 2.5
      vertex 31.416 31.416 2.5
    endloop
  endfacet
  facet normal 0 0 1
    outer loop
      vertex 39.1895 27.8809 2.5
      vertex 31.8457 30.7617 2.5
      vertex 32.002 30 2.5
    endloop
  endfacet
  facet normal 0 -0 1
    outer loop
      vertex 39.1895 27.8809 2.5
      vertex 43.6621 33.6621 2.5
      vertex 31.8457 30.7617 2.5
    endloop
  endfacet
  facet normal -0 0 1
    outer loop
      vertex 31.8457 29.2383 2.5
      vertex 39.1895 27.8809 2.5
      vertex 32.002 30 2.5
    endloop
  endfacet
  facet normal 0 -0 1
    outer loop
      vertex 34.9219 23.6133 2.5
      vertex 39.1895 27.8809 2.5
      vertex 31.8457 29.2383 2.5
    endloop
  endfacet
  facet normal 0 0 1
    outer loop
      vertex 34.9219 23.6133 2.5
      vertex 31.8457 29.2383 2.5
      vertex 31.416 28.584 2.5
    endloop
  endfacet
  facet normal 0 0 1
    outer loop
      vertex 31.0645 22.0117 2.5
      vertex 30.7617 28.1543 2.5
      vertex 30 27.998 2.5
    endloop
  endfacet
  facet normal 0 -0 1
    outer loop
      vertex 33.0957 22.5586 2.5
      vertex 34.9219 23.6133 2.5
      vertex 30.7617 28.1543 2.5
    endloop
  endfacet
  facet normal 0.25427 -0.967133 0
    outer loop
      vertex 36.0742 10.957 0
      vertex 33.9941 10.4102 2.5
      vertex 33.9941 10.4102 0
    endloop
  endfacet
  facet normal 0.25427 -0.967133 0
    outer loop
      vertex 36.0742 10.957 0
      vertex 36.0742 10.957 2.5
      vertex 33.9941 10.4102 2.5
    endloop
  endfacet
  facet normal 0.351624 -0.936141 0
    outer loop
      vertex 38.0762 11.709 0
      vertex 36.0742 10.957 2.5
      vertex 36.0742 10.957 0
    endloop
  endfacet
  facet normal 0.351624 -0.936141 0
    outer loop
      vertex 38.0762 11.709 0
      vertex 38.0762 11.709 2.5
      vertex 36.0742 10.957 2.5
    endloop
  endfacet
  facet normal 0.452637 -0.891695 0
    outer loop
      vertex 40 12.6855 0
      vertex 38.0762 11.709 2.5
      vertex 38.0762 11.709 0
    endloop
  endfacet
  facet normal 0.452637 -0.891695 0
    outer loop
      vertex 40 12.6855 0
      vertex 40 12.6855 2.5
      vertex 38.0762 11.709 2.5
    endloop
  endfacet
  facet normal 1 0 0
    outer loop
      vertex 40 14.0039 0
      vertex 40 12.6855 2.5
      vertex 40 12.6855 0
    endloop
  endfacet
  facet normal 1 0 -0
    outer loop
      vertex 40 14.0039 0
      vertex 40 14.0039 2.5
      vertex 40 12.6855 2.5
    endloop
  endfacet
  facet normal 0 -1 0
    outer loop
      vertex 42.002 14.0039 0
      vertex 40 14.0039 2.5
      vertex 40 14.0039 0
    endloop
  endfacet
  facet normal 0 -1 0
    outer loop
      vertex 42.002 14.0039 0
      vertex 42.002 14.0039 2.5
      vertex 40 14.0039 2.5
    endloop
  endfacet
  facet normal 0.533993 -0.845489 0
    outer loop
      vertex 42.1875 14.1211 0
      vertex 42.002 14.0039 2.5
      vertex 42.002 14.0039 0
    endloop
  endfacet
  facet normal 0.533993 -0.845489 0
    outer loop
      vertex 42.1875 14.1211 0
      vertex 42.1875 14.1211 2.5
      vertex 42.002 14.0039 2.5
    endloop
  endfacet
  facet normal 0.640917 -0.76761 0
    outer loop
      vertex 43.1934 14.9609 0
      vertex 42.1875 14.1211 2.5
      vertex 42.1875 14.1211 0
    endloop
  endfacet
  facet normal 0.640917 -0.76761 0
    outer loop
      vertex 43.1934 14.9609 0
      vertex 43.1934 14.9609 2.5
      vertex 42.1875 14.1211 2.5
    endloop
  endfacet
  facet normal 0.692067 -0.721833 0
    outer loop
      vertex 44.1406 15.8691 0
      vertex 43.1934 14.9609 2.5
      vertex 43.1934 14.9609 0
    endloop
  endfacet
  facet normal 0.692067 -0.721833 0
    outer loop
      vertex 44.1406 15.8691 0
      vertex 44.1406 15.8691 2.5
      vertex 43.1934 14.9609 2.5
    endloop
  endfacet
  facet normal 0.965108 0.261851 0
    outer loop
      vertex 43.7988 17.1289 0
      vertex 44.1406 15.8691 2.5
      vertex 44.1406 15.8691 0
    endloop
  endfacet
  facet normal 0.965108 0.261851 -0
    outer loop
      vertex 43.7988 17.1289 0
      vertex 43.7988 17.1289 2.5
      vertex 44.1406 15.8691 2.5
    endloop
  endfacet
  facet normal 0.258574 -0.965992 0
    outer loop
      vertex 45.7324 17.6465 0
      vertex 43.7988 17.1289 2.5
      vertex 43.7988 17.1289 0
    endloop
  endfacet
  facet normal 0.258574 -0.965992 0
    outer loop
      vertex 45.7324 17.6465 0
      vertex 45.7324 17.6465 2.5
      vertex 43.7988 17.1289 2.5
    endloop
  endfacet
  facet normal 0.811404 -0.584486 0
    outer loop
      vertex 46.5625 18.7988 0
      vertex 45.7324 17.6465 2.5
      vertex 45.7324 17.6465 0
    endloop
  endfacet
  facet normal 0.811404 -0.584486 0
    outer loop
      vertex 46.5625 18.7988 0
      vertex 46.5625 18.7988 2.5
      vertex 45.7324 17.6465 2.5
    endloop
  endfacet
  facet normal 0.847611 -0.530618 0
    outer loop
      vertex 47.3145 20 0
      vertex 46.5625 18.7988 2.5
      vertex 46.5625 18.7988 0
    endloop
  endfacet
  facet normal 0.847611 -0.530618 0
    outer loop
      vertex 47.3145 20 0
      vertex 47.3145 20 2.5
      vertex 46.5625 18.7988 2.5
    endloop
  endfacet
  facet normal 0.86643 0.499299 0
    outer loop
      vertex 44.6582 24.6094 0
      vertex 47.3145 20 2.5
      vertex 47.3145 20 0
    endloop
  endfacet
  facet normal 0.86643 0.499299 -0
    outer loop
      vertex 44.6582 24.6094 0
      vertex 44.6582 24.6094 2.5
      vertex 47.3145 20 2.5
    endloop
  endfacet
  facet normal 0.497188 -0.867643 0
    outer loop
      vertex 46.3965 25.6055 0
      vertex 44.6582 24.6094 2.5
      vertex 44.6582 24.6094 0
    endloop
  endfacet
  facet normal 0.497188 -0.867643 0
    outer loop
      vertex 46.3965 25.6055 0
      vertex 46.3965 25.6055 2.5
      vertex 44.6582 24.6094 2.5
    endloop
  endfacet
  facet normal -0.865818 -0.500359 0
    outer loop
      vertex 48.3887 22.1582 0
      vertex 46.3965 25.6055 2.5
      vertex 46.3965 25.6055 0
    endloop
  endfacet
  facet normal -0.865818 -0.500359 0
    outer loop
      vertex 48.3887 22.1582 0
      vertex 48.3887 22.1582 2.5
      vertex 46.3965 25.6055 2.5
    endloop
  endfacet
  facet normal 0.933167 -0.359442 0
    outer loop
      vertex 48.8965 23.4766 0
      vertex 48.3887 22.1582 2.5
      vertex 48.3887 22.1582 0
    endloop
  endfacet
  facet normal 0.933167 -0.359442 0
    outer loop
      vertex 48.8965 23.4766 0
      vertex 48.8965 23.4766 2.5
      vertex 48.3887 22.1582 2.5
    endloop
  endfacet
  facet normal 0.954726 -0.297487 0
    outer loop
      vertex 49.3164 24.8242 0
      vertex 48.8965 23.4766 2.5
      vertex 48.8965 23.4766 0
    endloop
  endfacet
  facet normal 0.954726 -0.297487 0
    outer loop
      vertex 49.3164 24.8242 0
      vertex 49.3164 24.8242 2.5
      vertex 48.8965 23.4766 2.5
    endloop
  endfacet
  facet normal 0.707107 0.707107 0
    outer loop
      vertex 44.1406 30 0
      vertex 49.3164 24.8242 2.5
      vertex 49.3164 24.8242 0
    endloop
  endfacet
  facet normal 0.707107 0.707107 -0
    outer loop
      vertex 44.1406 30 0
      vertex 44.1406 30 2.5
      vertex 49.3164 24.8242 2.5
    endloop
  endfacet
  facet normal 0.707107 -0.707107 0
    outer loop
      vertex 45.5566 31.416 0
      vertex 44.1406 30 2.5
      vertex 44.1406 30 0
    endloop
  endfacet
  facet normal 0.707107 -0.707107 0
    outer loop
      vertex 45.5566 31.416 0
      vertex 45.5566 31.416 2.5
      vertex 44.1406 30 2.5
    endloop
  endfacet
  facet normal -0.707918 -0.706294 0
    outer loop
      vertex 49.8047 27.1582 0
      vertex 45.5566 31.416 2.5
      vertex 45.5566 31.416 0
    endloop
  endfacet
  facet normal -0.707918 -0.706294 0
    outer loop
      vertex 49.8047 27.1582 0
      vertex 49.8047 27.1582 2.5
      vertex 45.5566 31.416 2.5
    endloop
  endfacet
  facet normal 0.994764 -0.102202 0
    outer loop
      vertex 49.9512 28.584 0
      vertex 49.8047 27.1582 2.5
      vertex 49.8047 27.1582 0
    endloop
  endfacet
  facet normal 0.994764 -0.102202 0
    outer loop
      vertex 49.9512 28.584 0
      vertex 49.9512 28.584 2.5
      vertex 49.8047 27.1582 2.5
    endloop
  endfacet
  facet normal 0.999625 -0.027387 0
    outer loop
      vertex 49.9902 30.0098 0
      vertex 49.9512 28.584 2.5
      vertex 49.9512 28.584 0
    endloop
  endfacet
  facet normal 0.999625 -0.027387 0
    outer loop
      vertex 49.9902 30.0098 0
      vertex 49.9902 30.0098 2.5
      vertex 49.9512 28.584 2.5
    endloop
  endfacet
  facet normal 0.499877 0.866097 0
    outer loop
      vertex 43.6621 33.6621 0
      vertex 49.9902 30.0098 2.5
      vertex 49.9902 30.0098 0
    endloop
  endfacet
  facet normal 0.499877 0.866097 -0
    outer loop
      vertex 43.6621 33.6621 0
      vertex 43.6621 33.6621 2.5
      vertex 49.9902 30.0098 2.5
    endloop
  endfacet
  facet normal 0.86643 -0.499299 0
    outer loop
      vertex 44.6582 35.3906 0
      vertex 43.6621 33.6621 2.5
      vertex 43.6621 33.6621 0
    endloop
  endfacet
  facet normal 0.86643 -0.499299 0
    outer loop
      vertex 44.6582 35.3906 0
      vertex 44.6582 35.3906 2.5
      vertex 43.6621 33.6621 2.5
    endloop
  endfacet
  facet normal -0.499299 -0.86643 0
    outer loop
      vertex 49.8438 32.4023 0
      vertex 44.6582 35.3906 2.5
      vertex 44.6582 35.3906 0
    endloop
  endfacet
  facet normal -0.499299 -0.86643 0
    outer loop
      vertex 49.8438 32.4023 0
      vertex 49.8438 32.4023 2.5
      vertex 44.6582 35.3906 2.5
    endloop
  endfacet
  facet normal 0.989388 0.145295 0
    outer loop
      vertex 49.6387 33.7988 0
      vertex 49.8438 32.4023 2.5
      vertex 49.8438 32.4023 0
    endloop
  endfacet
  facet normal 0.989388 0.145295 -0
    outer loop
      vertex 49.6387 33.7988 0
      vertex 49.6387 33.7988 2.5
      vertex 49.8438 32.4023 2.5
    endloop
  endfacet
  facet normal 0.975201 0.221322 0
    outer loop
      vertex 49.3262 35.1758 0
      vertex 49.6387 33.7988 2.5
      vertex 49.6387 33.7988 0
    endloop
  endfacet
  facet normal 0.975201 0.221322 -0
    outer loop
      vertex 49.3262 35.1758 0
      vertex 49.3262 35.1758 2.5
      vertex 49.6387 33.7988 2.5
    endloop
  endfacet
  facet normal 0.258394 0.96604 0
    outer loop
      vertex 46.1133 36.0352 0
      vertex 49.3262 35.1758 2.5
      vertex 49.3262 35.1758 0
    endloop
  endfacet
  facet normal 0.258394 0.96604 -0
    outer loop
      vertex 46.1133 36.0352 0
      vertex 46.1133 36.0352 2.5
      vertex 49.3262 35.1758 2.5
    endloop
  endfacet
  facet normal 0.965992 -0.258574 0
    outer loop
      vertex 46.6309 37.9688 0
      vertex 46.1133 36.0352 2.5
      vertex 46.1133 36.0352 0
    endloop
  endfacet
  facet normal 0.965992 -0.258574 0
    outer loop
      vertex 46.6309 37.9688 0
      vertex 46.6309 37.9688 2.5
      vertex 46.1133 36.0352 2.5
    endloop
  endfacet
  facet normal -0.259798 -0.965663 0
    outer loop
      vertex 48.5547 37.4512 0
      vertex 46.6309 37.9688 2.5
      vertex 46.6309 37.9688 0
    endloop
  endfacet
  facet normal -0.259798 -0.965663 0
    outer loop
      vertex 48.5547 37.4512 0
      vertex 48.5547 37.4512 2.5
      vertex 46.6309 37.9688 2.5
    endloop
  endfacet
  facet normal 0.914095 0.405501 0
    outer loop
      vertex 47.9785 38.75 0
      vertex 48.5547 37.4512 2.5
      vertex 48.5547 37.4512 0
    endloop
  endfacet
  facet normal 0.914095 0.405501 -0
    outer loop
      vertex 47.9785 38.75 0
      vertex 47.9785 38.75 2.5
      vertex 48.5547 37.4512 2.5
    endloop
  endfacet
  facet normal 0.883116 0.469155 0
    outer loop
      vertex 47.3145 40 0
      vertex 47.9785 38.75 2.5
      vertex 47.9785 38.75 0
    endloop
  endfacet
  facet normal 0.883116 0.469155 -0
    outer loop
      vertex 47.3145 40 0
      vertex 47.3145 40 2.5
      vertex 47.9785 38.75 2.5
    endloop
  endfacet
  facet normal 0 1 0
    outer loop
      vertex 42.002 40 0
      vertex 47.3145 40 2.5
      vertex 47.3145 40 0
    endloop
  endfacet
  facet normal 0 1 0
    outer loop
      vertex 42.002 40 0
      vertex 42.002 40 2.5
      vertex 47.3145 40 2.5
    endloop
  endfacet
  facet normal 1 0 0
    outer loop
      vertex 42.002 42.002 0
      vertex 42.002 40 2.5
      vertex 42.002 40 0
    endloop
  endfacet
  facet normal 1 0 -0
    outer loop
      vertex 42.002 42.002 0
      vertex 42.002 42.002 2.5
      vertex 42.002 40 2.5
    endloop
  endfacet
  facet normal 0 -1 0
    outer loop
      vertex 46.0059 42.002 0
      vertex 42.002 42.002 2.5
      vertex 42.002 42.002 0
    endloop
  endfacet
  facet normal 0 -1 0
    outer loop
      vertex 46.0059 42.002 0
      vertex 46.0059 42.002 2.5
      vertex 42.002 42.002 2.5
    endloop
  endfacet
  facet normal 0.825307 0.564684 0
    outer loop
      vertex 45.8789 42.1875 0
      vertex 46.0059 42.002 2.5
      vertex 46.0059 42.002 0
    endloop
  endfacet
  facet normal 0.825307 0.564684 -0
    outer loop
      vertex 45.8789 42.1875 0
      vertex 45.8789 42.1875 2.5
      vertex 46.0059 42.002 2.5
    endloop
  endfacet
  facet normal 0.76761 0.640917 0
    outer loop
      vertex 45.0391 43.1934 0
      vertex 45.8789 42.1875 2.5
      vertex 45.8789 42.1875 0
    endloop
  endfacet
  facet normal 0.76761 0.640917 -0
    outer loop
      vertex 45.0391 43.1934 0
      vertex 45.0391 43.1934 2.5
      vertex 45.8789 42.1875 2.5
    endloop
  endfacet
  facet normal 0.721833 0.692067 0
    outer loop
      vertex 44.1309 44.1406 0
      vertex 45.0391 43.1934 2.5
      vertex 45.0391 43.1934 0
    endloop
  endfacet
  facet normal 0.721833 0.692067 -0
    outer loop
      vertex 44.1309 44.1406 0
      vertex 44.1309 44.1406 2.5
      vertex 45.0391 43.1934 2.5
    endloop
  endfacet
  facet normal -0.25938 0.965775 0
    outer loop
      vertex 39.0039 42.7637 0
      vertex 44.1309 44.1406 2.5
      vertex 44.1309 44.1406 0
    endloop
  endfacet
  facet normal -0.25938 0.965775 0
    outer loop
      vertex 39.0039 42.7637 0
      vertex 39.0039 42.7637 2.5
      vertex 44.1309 44.1406 2.5
    endloop
  endfacet
  facet normal 0.965992 0.258574 0
    outer loop
      vertex 38.4863 44.6973 0
      vertex 39.0039 42.7637 2.5
      vertex 39.0039 42.7637 0
    endloop
  endfacet
  facet normal 0.965992 0.258574 -0
    outer loop
      vertex 38.4863 44.6973 0
      vertex 38.4863 44.6973 2.5
      vertex 39.0039 42.7637 2.5
    endloop
  endfacet
  facet normal 0.259184 -0.965828 0
    outer loop
      vertex 42.3438 45.7324 0
      vertex 38.4863 44.6973 2.5
      vertex 38.4863 44.6973 0
    endloop
  endfacet
  facet normal 0.259184 -0.965828 0
    outer loop
      vertex 42.3438 45.7324 0
      vertex 42.3438 45.7324 2.5
      vertex 38.4863 44.6973 2.5
    endloop
  endfacet
  facet normal 0.58776 0.809035 0
    outer loop
      vertex 41.2012 46.5625 0
      vertex 42.3438 45.7324 2.5
      vertex 42.3438 45.7324 0
    endloop
  endfacet
  facet normal 0.58776 0.809035 -0
    outer loop
      vertex 41.2012 46.5625 0
      vertex 41.2012 46.5625 2.5
      vertex 42.3438 45.7324 2.5
    endloop
  endfacet
  facet normal 0.530618 0.847611 0
    outer loop
      vertex 40 47.3145 0
      vertex 41.2012 46.5625 2.5
      vertex 41.2012 46.5625 0
    endloop
  endfacet
  facet normal 0.530618 0.847611 -0
    outer loop
      vertex 40 47.3145 0
      vertex 40 47.3145 2.5
      vertex 41.2012 46.5625 2.5
    endloop
  endfacet
  facet normal -0.49836 0.86697 0
    outer loop
      vertex 37.1289 45.6641 0
      vertex 40 47.3145 2.5
      vertex 40 47.3145 0
    endloop
  endfacet
  facet normal -0.49836 0.86697 0
    outer loop
      vertex 37.1289 45.6641 0
      vertex 37.1289 45.6641 2.5
      vertex 40 47.3145 2.5
    endloop
  endfacet
  facet normal 0.86431 0.50296 0
    outer loop
      vertex 36.123 47.3926 0
      vertex 37.1289 45.6641 2.5
      vertex 37.1289 45.6641 0
    endloop
  endfacet
  facet normal 0.86431 0.50296 -0
    outer loop
      vertex 36.123 47.3926 0
      vertex 36.123 47.3926 2.5
      vertex 37.1289 45.6641 2.5
    endloop
  endfacet
  facet normal 0.501424 -0.865202 0
    outer loop
      vertex 37.8418 48.3887 0
      vertex 36.123 47.3926 2.5
      vertex 36.123 47.3926 0
    endloop
  endfacet
  facet normal 0.501424 -0.865202 0
    outer loop
      vertex 37.8418 48.3887 0
      vertex 37.8418 48.3887 2.5
      vertex 36.123 47.3926 2.5
    endloop
  endfacet
  facet normal 0.359442 0.933167 0
    outer loop
      vertex 36.5234 48.8965 0
      vertex 37.8418 48.3887 2.5
      vertex 37.8418 48.3887 0
    endloop
  endfacet
  facet normal 0.359442 0.933167 -0
    outer loop
      vertex 36.5234 48.8965 0
      vertex 36.5234 48.8965 2.5
      vertex 37.8418 48.3887 2.5
    endloop
  endfacet
  facet normal 0.297487 0.954726 0
    outer loop
      vertex 35.1758 49.3164 0
      vertex 36.5234 48.8965 2.5
      vertex 36.5234 48.8965 0
    endloop
  endfacet
  facet normal 0.297487 0.954726 -0
    outer loop
      vertex 35.1758 49.3164 0
      vertex 35.1758 49.3164 2.5
      vertex 36.5234 48.8965 2.5
    endloop
  endfacet
  facet normal -0.703395 0.710799 0
    outer loop
      vertex 34.2383 48.3887 0
      vertex 35.1758 49.3164 2.5
      vertex 35.1758 49.3164 0
    endloop
  endfacet
  facet normal -0.703395 0.710799 0
    outer loop
      vertex 34.2383 48.3887 0
      vertex 34.2383 48.3887 2.5
      vertex 35.1758 49.3164 2.5
    endloop
  endfacet
  facet normal 0.707107 0.707107 0
    outer loop
      vertex 32.832 49.7949 0
      vertex 34.2383 48.3887 2.5
      vertex 34.2383 48.3887 0
    endloop
  endfacet
  facet normal 0.707107 0.707107 -0
    outer loop
      vertex 32.832 49.7949 0
      vertex 32.832 49.7949 2.5
      vertex 34.2383 48.3887 2.5
    endloop
  endfacet
  facet normal 0.100552 0.994932 0
    outer loop
      vertex 30.9961 49.9805 0
      vertex 32.832 49.7949 2.5
      vertex 32.832 49.7949 0
    endloop
  endfacet
  facet normal 0.100552 0.994932 -0
    outer loop
      vertex 30.9961 49.9805 0
      vertex 30.9961 49.9805 2.5
      vertex 32.832 49.7949 2.5
    endloop
  endfacet
  facet normal -1 0 0
    outer loop
      vertex 30.9961 44.0039 0
      vertex 30.9961 49.9805 2.5
      vertex 30.9961 49.9805 0
    endloop
  endfacet
  facet normal -1 0 0
    outer loop
      vertex 30.9961 44.0039 0
      vertex 30.9961 44.0039 2.5
      vertex 30.9961 49.9805 2.5
    endloop
  endfacet
  facet normal 0 1 0
    outer loop
      vertex 29.0039 44.0039 0
      vertex 30.9961 44.0039 2.5
      vertex 30.9961 44.0039 0
    endloop
  endfacet
  facet normal 0 1 0
    outer loop
      vertex 29.0039 44.0039 0
      vertex 29.0039 44.0039 2.5
      vertex 30.9961 44.0039 2.5
    endloop
  endfacet
  facet normal -0.134073 0.990972 0
    outer loop
      vertex 27.3438 43.7793 0
      vertex 29.0039 44.0039 2.5
      vertex 29.0039 44.0039 0
    endloop
  endfacet
  facet normal -0.134073 0.990972 0
    outer loop
      vertex 27.3438 43.7793 0
      vertex 27.3438 43.7793 2.5
      vertex 29.0039 44.0039 2.5
    endloop
  endfacet
  facet normal -0.258574 0.965992 0
    outer loop
      vertex 25.4102 43.2617 0
      vertex 27.3438 43.7793 2.5
      vertex 27.3438 43.7793 0
    endloop
  endfacet
  facet normal -0.258574 0.965992 0
    outer loop
      vertex 25.4102 43.2617 0
      vertex 25.4102 43.2617 2.5
      vertex 27.3438 43.7793 2.5
    endloop
  endfacet
  facet normal 0.394344 0.918963 0
    outer loop
      vertex 22.8613 44.3555 0
      vertex 25.4102 43.2617 2.5
      vertex 25.4102 43.2617 0
    endloop
  endfacet
  facet normal 0.394344 0.918963 -0
    outer loop
      vertex 22.8613 44.3555 0
      vertex 22.8613 44.3555 2.5
      vertex 25.4102 43.2617 2.5
    endloop
  endfacet
  facet normal -0.499299 0.86643 0
    outer loop
      vertex 21.1328 43.3594 0
      vertex 22.8613 44.3555 2.5
      vertex 22.8613 44.3555 0
    endloop
  endfacet
  facet normal -0.499299 0.86643 0
    outer loop
      vertex 21.1328 43.3594 0
      vertex 21.1328 43.3594 2.5
      vertex 22.8613 44.3555 2.5
    endloop
  endfacet
  facet normal 0.0247602 0.999693 0
    outer loop
      vertex 17.9785 43.4375 0
      vertex 21.1328 43.3594 2.5
      vertex 21.1328 43.3594 0
    endloop
  endfacet
  facet normal 0.0247602 0.999693 -0
    outer loop
      vertex 17.9785 43.4375 0
      vertex 17.9785 43.4375 2.5
      vertex 21.1328 43.3594 2.5
    endloop
  endfacet
  facet normal -0.707107 0.707107 0
    outer loop
      vertex 16.5625 42.0215 0
      vertex 17.9785 43.4375 2.5
      vertex 17.9785 43.4375 0
    endloop
  endfacet
  facet normal -0.707107 0.707107 0
    outer loop
      vertex 16.5625 42.0215 0
      vertex 16.5625 42.0215 2.5
      vertex 17.9785 43.4375 2.5
    endloop
  endfacet
  facet normal -0.794358 0.60745 0
    outer loop
      vertex 14.9121 39.8633 0
      vertex 16.5625 42.0215 2.5
      vertex 16.5625 42.0215 0
    endloop
  endfacet
  facet normal -0.794358 0.60745 0
    outer loop
      vertex 14.9121 39.8633 0
      vertex 14.9121 39.8633 2.5
      vertex 16.5625 42.0215 2.5
    endloop
  endfacet
  facet normal -0.86643 0.499299 0
    outer loop
      vertex 13.916 38.1348 0
      vertex 14.9121 39.8633 2.5
      vertex 14.9121 39.8633 0
    endloop
  endfacet
  facet normal -0.86643 0.499299 0
    outer loop
      vertex 13.916 38.1348 0
      vertex 13.916 38.1348 2.5
      vertex 14.9121 39.8633 2.5
    endloop
  endfacet
  facet normal -0.923183 0.38436 0
    outer loop
      vertex 12.8711 35.625 0
      vertex 13.916 38.1348 2.5
      vertex 13.916 38.1348 0
    endloop
  endfacet
  facet normal -0.923183 0.38436 0
    outer loop
      vertex 12.8711 35.625 0
      vertex 12.8711 35.625 2.5
      vertex 13.916 38.1348 2.5
    endloop
  endfacet
  facet normal -0.965992 0.258574 0
    outer loop
      vertex 12.3535 33.6914 0
      vertex 12.8711 35.625 2.5
      vertex 12.8711 35.625 0
    endloop
  endfacet
  facet normal -0.965992 0.258574 0
    outer loop
      vertex 12.3535 33.6914 0
      vertex 12.3535 33.6914 2.5
      vertex 12.8711 35.625 2.5
    endloop
  endfacet
  facet normal -0.99154 0.129802 0
    outer loop
      vertex 12.002 31.0059 0
      vertex 12.3535 33.6914 2.5
      vertex 12.3535 33.6914 0
    endloop
  endfacet
  facet normal -0.99154 0.129802 0
    outer loop
      vertex 12.002 31.0059 0
      vertex 12.002 31.0059 2.5
      vertex 12.3535 33.6914 2.5
    endloop
  endfacet
  facet normal -1 0 0
    outer loop
      vertex 12.002 29.0039 0
      vertex 12.002 31.0059 2.5
      vertex 12.002 31.0059 0
    endloop
  endfacet
  facet normal -1 0 0
    outer loop
      vertex 12.002 29.0039 0
      vertex 12.002 29.0039 2.5
      vertex 12.002 31.0059 2.5
    endloop
  endfacet
  facet normal -0.9916 -0.129339 0
    outer loop
      vertex 12.3535 26.3086 0
      vertex 12.002 29.0039 2.5
      vertex 12.002 29.0039 0
    endloop
  endfacet
  facet normal -0.9916 -0.129339 0
    outer loop
      vertex 12.3535 26.3086 0
      vertex 12.3535 26.3086 2.5
      vertex 12.002 29.0039 2.5
    endloop
  endfacet
  facet normal -0.965992 -0.258574 0
    outer loop
      vertex 12.8711 24.375 0
      vertex 12.3535 26.3086 2.5
      vertex 12.3535 26.3086 0
    endloop
  endfacet
  facet normal -0.965992 -0.258574 0
    outer loop
      vertex 12.8711 24.375 0
      vertex 12.8711 24.375 2.5
      vertex 12.3535 26.3086 2.5
    endloop
  endfacet
  facet normal -0.476682 -0.879076 0
    outer loop
      vertex 15.6445 22.8711 0
      vertex 12.8711 24.375 2.5
      vertex 12.8711 24.375 0
    endloop
  endfacet
  facet normal -0.476682 -0.879076 0
    outer loop
      vertex 15.6445 22.8711 0
      vertex 15.6445 22.8711 2.5
      vertex 12.8711 24.375 2.5
    endloop
  endfacet
  facet normal -0.86643 -0.499299 0
    outer loop
      vertex 16.6406 21.1426 0
      vertex 15.6445 22.8711 2.5
      vertex 15.6445 22.8711 0
    endloop
  endfacet
  facet normal -0.86643 -0.499299 0
    outer loop
      vertex 16.6406 21.1426 0
      vertex 16.6406 21.1426 2.5
      vertex 15.6445 22.8711 2.5
    endloop
  endfacet
  facet normal -0.119701 -0.99281 0
    outer loop
      vertex 19.3945 20.8105 0
      vertex 16.6406 21.1426 2.5
      vertex 16.6406 21.1426 0
    endloop
  endfacet
  facet normal -0.119701 -0.99281 0
    outer loop
      vertex 19.3945 20.8105 0
      vertex 19.3945 20.8105 2.5
      vertex 16.6406 21.1426 2.5
    endloop
  endfacet
  facet normal -0.707107 -0.707107 0
    outer loop
      vertex 20.8105 19.3945 0
      vertex 19.3945 20.8105 2.5
      vertex 19.3945 20.8105 0
    endloop
  endfacet
  facet normal -0.707107 -0.707107 0
    outer loop
      vertex 20.8105 19.3945 0
      vertex 20.8105 19.3945 2.5
      vertex 19.3945 20.8105 2.5
    endloop
  endfacet
  facet normal -0.707107 0.707107 0
    outer loop
      vertex 16.582 15.166 0
      vertex 20.8105 19.3945 2.5
      vertex 20.8105 19.3945 0
    endloop
  endfacet
  facet normal -0.707107 0.707107 0
    outer loop
      vertex 16.582 15.166 0
      vertex 16.582 15.166 2.5
      vertex 20.8105 19.3945 2.5
    endloop
  endfacet
  facet normal -0.640779 -0.767726 0
    outer loop
      vertex 17.8223 14.1309 0
      vertex 16.582 15.166 2.5
      vertex 16.582 15.166 0
    endloop
  endfacet
  facet normal -0.640779 -0.767726 0
    outer loop
      vertex 17.8223 14.1309 0
      vertex 17.8223 14.1309 2.5
      vertex 16.582 15.166 2.5
    endloop
  endfacet
  facet normal -0.574282 -0.818657 0
    outer loop
      vertex 19.1309 13.2129 0
      vertex 17.8223 14.1309 2.5
      vertex 17.8223 14.1309 0
    endloop
  endfacet
  facet normal -0.574282 -0.818657 0
    outer loop
      vertex 19.1309 13.2129 0
      vertex 19.1309 13.2129 2.5
      vertex 17.8223 14.1309 2.5
    endloop
  endfacet
  facet normal -0.511805 -0.859102 0
    outer loop
      vertex 20.5078 12.3926 0
      vertex 19.1309 13.2129 2.5
      vertex 19.1309 13.2129 0
    endloop
  endfacet
  facet normal -0.511805 -0.859102 0
    outer loop
      vertex 20.5078 12.3926 0
      vertex 20.5078 12.3926 2.5
      vertex 19.1309 13.2129 2.5
    endloop
  endfacet
  facet normal -0.43492 -0.900469 0
    outer loop
      vertex 21.9434 11.6992 0
      vertex 20.5078 12.3926 2.5
      vertex 20.5078 12.3926 0
    endloop
  endfacet
  facet normal -0.43492 -0.900469 0
    outer loop
      vertex 21.9434 11.6992 0
      vertex 21.9434 11.6992 2.5
      vertex 20.5078 12.3926 2.5
    endloop
  endfacet
  facet normal -0.365088 -0.930973 0
    outer loop
      vertex 23.4375 11.1133 0
      vertex 21.9434 11.6992 2.5
      vertex 21.9434 11.6992 0
    endloop
  endfacet
  facet normal -0.365088 -0.930973 0
    outer loop
      vertex 23.4375 11.1133 0
      vertex 23.4375 11.1133 2.5
      vertex 21.9434 11.6992 2.5
    endloop
  endfacet
  facet normal -0.286788 -0.957994 0
    outer loop
      vertex 24.9707 10.6543 0
      vertex 23.4375 11.1133 2.5
      vertex 23.4375 11.1133 0
    endloop
  endfacet
  facet normal -0.286788 -0.957994 0
    outer loop
      vertex 24.9707 10.6543 0
      vertex 24.9707 10.6543 2.5
      vertex 23.4375 11.1133 2.5
    endloop
  endfacet
  facet normal -0.213697 -0.9769 0
    outer loop
      vertex 26.5332 10.3125 0
      vertex 24.9707 10.6543 2.5
      vertex 24.9707 10.6543 0
    endloop
  endfacet
  facet normal -0.213697 -0.9769 0
    outer loop
      vertex 26.5332 10.3125 0
      vertex 26.5332 10.3125 2.5
      vertex 24.9707 10.6543 2.5
    endloop
  endfacet
  facet normal -0.132955 -0.991122 0
    outer loop
      vertex 28.1348 10.0977 0
      vertex 26.5332 10.3125 2.5
      vertex 26.5332 10.3125 0
    endloop
  endfacet
  facet normal -0.132955 -0.991122 0
    outer loop
      vertex 28.1348 10.0977 0
      vertex 28.1348 10.0977 2.5
      vertex 26.5332 10.3125 2.5
    endloop
  endfacet
  facet normal 0.707107 -0.707107 0
    outer loop
      vertex 30 11.9629 0
      vertex 28.1348 10.0977 2.5
      vertex 28.1348 10.0977 0
    endloop
  endfacet
  facet normal 0.707107 -0.707107 0
    outer loop
      vertex 30 11.9629 0
      vertex 30 11.9629 2.5
      vertex 28.1348 10.0977 2.5
    endloop
  endfacet
  facet normal -0.707107 -0.707107 0
    outer loop
      vertex 31.8652 10.0977 0
      vertex 30 11.9629 2.5
      vertex 30 11.9629 0
    endloop
  endfacet
  facet normal -0.707107 -0.707107 0
    outer loop
      vertex 31.8652 10.0977 0
      vertex 31.8652 10.0977 2.5
      vertex 30 11.9629 2.5
    endloop
  endfacet
  facet normal 0.145233 -0.989398 0
    outer loop
      vertex 33.9941 10.4102 0
      vertex 31.8652 10.0977 2.5
      vertex 31.8652 10.0977 0
    endloop
  endfacet
  facet normal 0.145233 -0.989398 0
    outer loop
      vertex 33.9941 10.4102 0
      vertex 33.9941 10.4102 2.5
      vertex 31.8652 10.0977 2.5
    endloop
  endfacet
  facet normal 0.5713 0.820741 -0
    outer loop
      vertex 25.4688 15.8496 0
      vertex 25.4688 15.8496 2.5
      vertex 26.4648 15.1562 0
    endloop
  endfacet
  facet normal 0.5713 0.820741 0
    outer loop
      vertex 26.4648 15.1562 2.5
      vertex 26.4648 15.1562 0
      vertex 25.4688 15.8496 2.5
    endloop
  endfacet
  facet normal 0.86643 0.499299 -0
    outer loop
      vertex 24.4727 17.5781 0
      vertex 24.4727 17.5781 2.5
      vertex 25.4688 15.8496 0
    endloop
  endfacet
  facet normal 0.86643 0.499299 0
    outer loop
      vertex 25.4688 15.8496 2.5
      vertex 25.4688 15.8496 0
      vertex 24.4727 17.5781 2.5
    endloop
  endfacet
  facet normal 0.606449 0.795122 -0
    outer loop
      vertex 23.8965 18.0176 0
      vertex 23.8965 18.0176 2.5
      vertex 24.4727 17.5781 0
    endloop
  endfacet
  facet normal 0.606449 0.795122 0
    outer loop
      vertex 24.4727 17.5781 2.5
      vertex 24.4727 17.5781 0
      vertex 23.8965 18.0176 2.5
    endloop
  endfacet
  facet normal 0.965992 0.258574 -0
    outer loop
      vertex 23.3789 19.9512 0
      vertex 23.3789 19.9512 2.5
      vertex 23.8965 18.0176 0
    endloop
  endfacet
  facet normal 0.965992 0.258574 0
    outer loop
      vertex 23.8965 18.0176 2.5
      vertex 23.8965 18.0176 0
      vertex 23.3789 19.9512 2.5
    endloop
  endfacet
  facet normal 0.152057 0.988372 -0
    outer loop
      vertex 22.998 20.0098 0
      vertex 22.998 20.0098 2.5
      vertex 23.3789 19.9512 0
    endloop
  endfacet
  facet normal 0.152057 0.988372 0
    outer loop
      vertex 23.3789 19.9512 2.5
      vertex 23.3789 19.9512 0
      vertex 22.998 20.0098 2.5
    endloop
  endfacet
  facet normal 1 0 -0
    outer loop
      vertex 22.998 21.5332 0
      vertex 22.998 21.5332 2.5
      vertex 22.998 20.0098 0
    endloop
  endfacet
  facet normal 1 -0 0
    outer loop
      vertex 22.998 20.0098 2.5
      vertex 22.998 20.0098 0
      vertex 22.998 21.5332 2.5
    endloop
  endfacet
  facet normal 0.267644 0.963518 -0
    outer loop
      vertex 22.2949 21.7285 0
      vertex 22.2949 21.7285 2.5
      vertex 22.998 21.5332 0
    endloop
  endfacet
  facet normal 0.267644 0.963518 0
    outer loop
      vertex 22.998 21.5332 2.5
      vertex 22.998 21.5332 0
      vertex 22.2949 21.7285 2.5
    endloop
  endfacet
  facet normal -0.265156 0.964205 0
    outer loop
      vertex 21.9043 21.6211 0
      vertex 21.9043 21.6211 2.5
      vertex 22.2949 21.7285 0
    endloop
  endfacet
  facet normal -0.265156 0.964205 0
    outer loop
      vertex 22.2949 21.7285 2.5
      vertex 22.2949 21.7285 0
      vertex 21.9043 21.6211 2.5
    endloop
  endfacet
  facet normal 0.967617 0.252422 -0
    outer loop
      vertex 21.8457 21.8457 0
      vertex 21.8457 21.8457 2.5
      vertex 21.9043 21.6211 0
    endloop
  endfacet
  facet normal 0.967617 0.252422 0
    outer loop
      vertex 21.9043 21.6211 2.5
      vertex 21.9043 21.6211 0
      vertex 21.8457 21.8457 2.5
    endloop
  endfacet
  facet normal 0.259171 0.965831 -0
    outer loop
      vertex 16.7871 23.2031 0
      vertex 16.7871 23.2031 2.5
      vertex 21.8457 21.8457 0
    endloop
  endfacet
  facet normal 0.259171 0.965831 0
    outer loop
      vertex 21.8457 21.8457 2.5
      vertex 21.8457 21.8457 0
      vertex 16.7871 23.2031 2.5
    endloop
  endfacet
  facet normal 0.965992 -0.258574 0
    outer loop
      vertex 17.3047 25.1367 0
      vertex 17.3047 25.1367 2.5
      vertex 16.7871 23.2031 0
    endloop
  endfacet
  facet normal 0.965992 -0.258574 0
    outer loop
      vertex 16.7871 23.2031 2.5
      vertex 16.7871 23.2031 0
      vertex 17.3047 25.1367 2.5
    endloop
  endfacet
  facet normal -0.171092 -0.985255 0
    outer loop
      vertex 18.9355 24.8535 0
      vertex 18.9355 24.8535 2.5
      vertex 17.3047 25.1367 0
    endloop
  endfacet
  facet normal -0.171092 -0.985255 -0
    outer loop
      vertex 17.3047 25.1367 2.5
      vertex 17.3047 25.1367 0
      vertex 18.9355 24.8535 2.5
    endloop
  endfacet
  facet normal 0.865865 -0.500278 0
    outer loop
      vertex 19.6973 26.1719 0
      vertex 19.6973 26.1719 2.5
      vertex 18.9355 24.8535 0
    endloop
  endfacet
  facet normal 0.865865 -0.500278 0
    outer loop
      vertex 18.9355 24.8535 2.5
      vertex 18.9355 24.8535 0
      vertex 19.6973 26.1719 2.5
    endloop
  endfacet
  facet normal 0.707686 0.706527 -0
    outer loop
      vertex 13.7402 32.1387 0
      vertex 13.7402 32.1387 2.5
      vertex 19.6973 26.1719 0
    endloop
  endfacet
  facet normal 0.707686 0.706527 0
    outer loop
      vertex 19.6973 26.1719 2.5
      vertex 19.6973 26.1719 0
      vertex 13.7402 32.1387 2.5
    endloop
  endfacet
  facet normal 0.709549 -0.704656 0
    outer loop
      vertex 15.1465 33.5547 0
      vertex 15.1465 33.5547 2.5
      vertex 13.7402 32.1387 0
    endloop
  endfacet
  facet normal 0.709549 -0.704656 0
    outer loop
      vertex 13.7402 32.1387 2.5
      vertex 13.7402 32.1387 0
      vertex 15.1465 33.5547 2.5
    endloop
  endfacet
  facet normal 0.818089 -0.575092 0
    outer loop
      vertex 15.8398 34.541 0
      vertex 15.8398 34.541 2.5
      vertex 15.1465 33.5547 0
    endloop
  endfacet
  facet normal 0.818089 -0.575092 0
    outer loop
      vertex 15.1465 33.5547 2.5
      vertex 15.1465 33.5547 0
      vertex 15.8398 34.541 2.5
    endloop
  endfacet
  facet normal 0.500845 -0.865537 0
    outer loop
      vertex 17.5781 35.5469 0
      vertex 17.5781 35.5469 2.5
      vertex 15.8398 34.541 0
    endloop
  endfacet
  facet normal 0.500845 -0.865537 0
    outer loop
      vertex 15.8398 34.541 2.5
      vertex 15.8398 34.541 0
      vertex 17.5781 35.5469 2.5
    endloop
  endfacet
  facet normal 0.991133 0.132877 -0
    outer loop
      vertex 16.9824 39.9902 0
      vertex 16.9824 39.9902 2.5
      vertex 17.5781 35.5469 0
    endloop
  endfacet
  facet normal 0.991133 0.132877 0
    outer loop
      vertex 17.5781 35.5469 2.5
      vertex 17.5781 35.5469 0
      vertex 16.9824 39.9902 2.5
    endloop
  endfacet
  facet normal 0.258574 -0.965992 0
    outer loop
      vertex 18.916 40.5078 0
      vertex 18.916 40.5078 2.5
      vertex 16.9824 39.9902 0
    endloop
  endfacet
  facet normal 0.258574 -0.965992 0
    outer loop
      vertex 16.9824 39.9902 2.5
      vertex 16.9824 39.9902 0
      vertex 18.916 40.5078 2.5
    endloop
  endfacet
  facet normal -0.954146 -0.29934 0
    outer loop
      vertex 20.0098 37.0215 0
      vertex 20.0098 37.0215 2.5
      vertex 18.916 40.5078 0
    endloop
  endfacet
  facet normal -0.954146 -0.29934 -0
    outer loop
      vertex 18.916 40.5078 2.5
      vertex 18.916 40.5078 0
      vertex 20.0098 37.0215 2.5
    endloop
  endfacet
  facet normal 0 -1 0
    outer loop
      vertex 22.0117 37.0215 0
      vertex 22.0117 37.0215 2.5
      vertex 20.0098 37.0215 0
    endloop
  endfacet
  facet normal 0 -1 0
    outer loop
      vertex 20.0098 37.0215 2.5
      vertex 20.0098 37.0215 0
      vertex 22.0117 37.0215 2.5
    endloop
  endfacet
  facet normal -1 0 0
    outer loop
      vertex 22.0117 28.9551 0
      vertex 22.0117 28.9551 2.5
      vertex 22.0117 37.0215 0
    endloop
  endfacet
  facet normal -1 -0 -0
    outer loop
      vertex 22.0117 37.0215 2.5
      vertex 22.0117 37.0215 0
      vertex 22.0117 28.9551 2.5
    endloop
  endfacet
  facet normal -0.966773 -0.255637 0
    outer loop
      vertex 22.5488 26.9238 0
      vertex 22.5488 26.9238 2.5
      vertex 22.0117 28.9551 0
    endloop
  endfacet
  facet normal -0.966773 -0.255637 -0
    outer loop
      vertex 22.0117 28.9551 2.5
      vertex 22.0117 28.9551 0
      vertex 22.5488 26.9238 2.5
    endloop
  endfacet
  facet normal -0.865954 -0.500123 0
    outer loop
      vertex 23.6035 25.0977 0
      vertex 23.6035 25.0977 2.5
      vertex 22.5488 26.9238 0
    endloop
  endfacet
  facet normal -0.865954 -0.500123 -0
    outer loop
      vertex 22.5488 26.9238 2.5
      vertex 22.5488 26.9238 0
      vertex 23.6035 25.0977 2.5
    endloop
  endfacet
  facet normal -0.704785 -0.709421 0
    outer loop
      vertex 25.0977 23.6133 0
      vertex 25.0977 23.6133 2.5
      vertex 23.6035 25.0977 0
    endloop
  endfacet
  facet normal -0.704785 -0.709421 -0
    outer loop
      vertex 23.6035 25.0977 2.5
      vertex 23.6035 25.0977 0
      vertex 25.0977 23.6133 2.5
    endloop
  endfacet
  facet normal -0.500123 -0.865954 0
    outer loop
      vertex 26.9238 22.5586 0
      vertex 26.9238 22.5586 2.5
      vertex 25.0977 23.6133 0
    endloop
  endfacet
  facet normal -0.500123 -0.865954 -0
    outer loop
      vertex 25.0977 23.6133 2.5
      vertex 25.0977 23.6133 0
      vertex 26.9238 22.5586 2.5
    endloop
  endfacet
  facet normal -0.259973 -0.965616 0
    outer loop
      vertex 28.9551 22.0117 0
      vertex 28.9551 22.0117 2.5
      vertex 26.9238 22.5586 0
    endloop
  endfacet
  facet normal -0.259973 -0.965616 -0
    outer loop
      vertex 26.9238 22.5586 2.5
      vertex 26.9238 22.5586 0
      vertex 28.9551 22.0117 2.5
    endloop
  endfacet
  facet normal 0 -1 0
    outer loop
      vertex 31.0645 22.0117 0
      vertex 31.0645 22.0117 2.5
      vertex 28.9551 22.0117 0
    endloop
  endfacet
  facet normal 0 -1 0
    outer loop
      vertex 28.9551 22.0117 2.5
      vertex 28.9551 22.0117 0
      vertex 31.0645 22.0117 2.5
    endloop
  endfacet
  facet normal 0.259973 -0.965616 0
    outer loop
      vertex 33.0957 22.5586 0
      vertex 33.0957 22.5586 2.5
      vertex 31.0645 22.0117 0
    endloop
  endfacet
  facet normal 0.259973 -0.965616 0
    outer loop
      vertex 31.0645 22.0117 2.5
      vertex 31.0645 22.0117 0
      vertex 33.0957 22.5586 2.5
    endloop
  endfacet
  facet normal 0.500123 -0.865954 0
    outer loop
      vertex 34.9219 23.6133 0
      vertex 34.9219 23.6133 2.5
      vertex 33.0957 22.5586 0
    endloop
  endfacet
  facet normal 0.500123 -0.865954 0
    outer loop
      vertex 33.0957 22.5586 2.5
      vertex 33.0957 22.5586 0
      vertex 34.9219 23.6133 2.5
    endloop
  endfacet
  facet normal 0.707107 -0.707107 0
    outer loop
      vertex 39.1895 27.8809 0
      vertex 39.1895 27.8809 2.5
      vertex 34.9219 23.6133 0
    endloop
  endfacet
  facet normal 0.707107 -0.707107 0
    outer loop
      vertex 34.9219 23.6133 2.5
      vertex 34.9219 23.6133 0
      vertex 39.1895 27.8809 2.5
    endloop
  endfacet
  facet normal -0.707107 -0.707107 0
    outer loop
      vertex 40.6055 26.4648 0
      vertex 40.6055 26.4648 2.5
      vertex 39.1895 27.8809 0
    endloop
  endfacet
  facet normal -0.707107 -0.707107 -0
    outer loop
      vertex 39.1895 27.8809 2.5
      vertex 39.1895 27.8809 0
      vertex 40.6055 26.4648 2.5
    endloop
  endfacet
  facet normal -0.707107 0.707107 0
    outer loop
      vertex 38.8379 24.6973 0
      vertex 38.8379 24.6973 2.5
      vertex 40.6055 26.4648 0
    endloop
  endfacet
  facet normal -0.707107 0.707107 0
    outer loop
      vertex 40.6055 26.4648 2.5
      vertex 40.6055 26.4648 0
      vertex 38.8379 24.6973 2.5
    endloop
  endfacet
  facet normal -0.867014 -0.498284 0
    outer loop
      vertex 39.3262 23.8477 0
      vertex 39.3262 23.8477 2.5
      vertex 38.8379 24.6973 0
    endloop
  endfacet
  facet normal -0.867014 -0.498284 -0
    outer loop
      vertex 38.8379 24.6973 2.5
      vertex 38.8379 24.6973 0
      vertex 39.3262 23.8477 2.5
    endloop
  endfacet
  facet normal -0.499497 0.866315 0
    outer loop
      vertex 37.1582 22.5977 0
      vertex 37.1582 22.5977 2.5
      vertex 39.3262 23.8477 0
    endloop
  endfacet
  facet normal -0.499497 0.866315 0
    outer loop
      vertex 39.3262 23.8477 2.5
      vertex 39.3262 23.8477 0
      vertex 37.1582 22.5977 2.5
    endloop
  endfacet
  facet normal -0.966562 -0.256435 0
    outer loop
      vertex 37.4121 21.6406 0
      vertex 37.4121 21.6406 2.5
      vertex 37.1582 22.5977 0
    endloop
  endfacet
  facet normal -0.966562 -0.256435 -0
    outer loop
      vertex 37.1582 22.5977 2.5
      vertex 37.1582 22.5977 0
      vertex 37.4121 21.6406 2.5
    endloop
  endfacet
  facet normal -0.258454 0.966024 0
    outer loop
      vertex 35.1855 21.0449 0
      vertex 35.1855 21.0449 2.5
      vertex 37.4121 21.6406 0
    endloop
  endfacet
  facet normal -0.258454 0.966024 0
    outer loop
      vertex 37.4121 21.6406 2.5
      vertex 37.4121 21.6406 0
      vertex 35.1855 21.0449 2.5
    endloop
  endfacet
  facet normal -0.707107 0.707107 0
    outer loop
      vertex 35 20.8594 0
      vertex 35 20.8594 2.5
      vertex 35.1855 21.0449 0
    endloop
  endfacet
  facet normal -0.707107 0.707107 0
    outer loop
      vertex 35.1855 21.0449 2.5
      vertex 35.1855 21.0449 0
      vertex 35 20.8594 2.5
    endloop
  endfacet
  facet normal -1 0 0
    outer loop
      vertex 35 20.0098 0
      vertex 35 20.0098 2.5
      vertex 35 20.8594 0
    endloop
  endfacet
  facet normal -1 -0 -0
    outer loop
      vertex 35 20.8594 2.5
      vertex 35 20.8594 0
      vertex 35 20.0098 2.5
    endloop
  endfacet
  facet normal 0 1 0
    outer loop
      vertex 34.1504 20.0098 0
      vertex 34.1504 20.0098 2.5
      vertex 35 20.0098 0
    endloop
  endfacet
  facet normal 0 1 0
    outer loop
      vertex 35 20.0098 2.5
      vertex 35 20.0098 0
      vertex 34.1504 20.0098 2.5
    endloop
  endfacet
  facet normal -0.707107 0.707107 0
    outer loop
      vertex 27.8809 13.7402 0
      vertex 27.8809 13.7402 2.5
      vertex 34.1504 20.0098 0
    endloop
  endfacet
  facet normal -0.707107 0.707107 0
    outer loop
      vertex 34.1504 20.0098 2.5
      vertex 34.1504 20.0098 0
      vertex 27.8809 13.7402 2.5
    endloop
  endfacet
  facet normal 0.707107 0.707107 -0
    outer loop
      vertex 26.4648 15.1562 0
      vertex 26.4648 15.1562 2.5
      vertex 27.8809 13.7402 0
    endloop
  endfacet
  facet normal 0.707107 0.707107 0
    outer loop
      vertex 27.8809 13.7402 2.5
      vertex 27.8809 13.7402 0
      vertex 26.4648 15.1562 2.5
    endloop
  endfacet
  facet normal 0.560566 0.828109 -0
    outer loop
      vertex 28.584 28.584 0
      vertex 28.584 28.584 2.5
      vertex 29.2188 28.1543 0
    endloop
  endfacet
  facet normal 0.560566 0.828109 0
    outer loop
      vertex 29.2188 28.1543 2.5
      vertex 29.2188 28.1543 0
      vertex 28.584 28.584 2.5
    endloop
  endfacet
  facet normal 0.828109 0.560566 -0
    outer loop
      vertex 28.1543 29.2188 0
      vertex 28.1543 29.2188 2.5
      vertex 28.584 28.584 0
    endloop
  endfacet
  facet normal 0.828109 0.560566 0
    outer loop
      vertex 28.584 28.584 2.5
      vertex 28.584 28.584 0
      vertex 28.1543 29.2188 2.5
    endloop
  endfacet
  facet normal 0.980581 0.196116 -0
    outer loop
      vertex 27.998 30 0
      vertex 27.998 30 2.5
      vertex 28.1543 29.2188 0
    endloop
  endfacet
  facet normal 0.980581 0.196116 0
    outer loop
      vertex 28.1543 29.2188 2.5
      vertex 28.1543 29.2188 0
      vertex 27.998 30 2.5
    endloop
  endfacet
  facet normal 0.979603 -0.200944 0
    outer loop
      vertex 28.1543 30.7617 0
      vertex 28.1543 30.7617 2.5
      vertex 27.998 30 0
    endloop
  endfacet
  facet normal 0.979603 -0.200944 0
    outer loop
      vertex 27.998 30 2.5
      vertex 27.998 30 0
      vertex 28.1543 30.7617 2.5
    endloop
  endfacet
  facet normal 0.835869 -0.548929 0
    outer loop
      vertex 28.584 31.416 0
      vertex 28.584 31.416 2.5
      vertex 28.1543 30.7617 0
    endloop
  endfacet
  facet normal 0.835869 -0.548929 0
    outer loop
      vertex 28.1543 30.7617 2.5
      vertex 28.1543 30.7617 0
      vertex 28.584 31.416 2.5
    endloop
  endfacet
  facet normal 0.548929 -0.835869 0
    outer loop
      vertex 29.2383 31.8457 0
      vertex 29.2383 31.8457 2.5
      vertex 28.584 31.416 0
    endloop
  endfacet
  facet normal 0.548929 -0.835869 0
    outer loop
      vertex 28.584 31.416 2.5
      vertex 28.584 31.416 0
      vertex 29.2383 31.8457 2.5
    endloop
  endfacet
  facet normal 0.200944 -0.979603 0
    outer loop
      vertex 30 32.002 0
      vertex 30 32.002 2.5
      vertex 29.2383 31.8457 0
    endloop
  endfacet
  facet normal 0.200944 -0.979603 0
    outer loop
      vertex 29.2383 31.8457 2.5
      vertex 29.2383 31.8457 0
      vertex 30 32.002 2.5
    endloop
  endfacet
  facet normal -0.200944 -0.979603 0
    outer loop
      vertex 30.7617 31.8457 0
      vertex 30.7617 31.8457 2.5
      vertex 30 32.002 0
    endloop
  endfacet
  facet normal -0.200944 -0.979603 -0
    outer loop
      vertex 30 32.002 2.5
      vertex 30 32.002 0
      vertex 30.7617 31.8457 2.5
    endloop
  endfacet
  facet normal -0.548929 -0.835869 0
    outer loop
      vertex 31.416 31.416 0
      vertex 31.416 31.416 2.5
      vertex 30.7617 31.8457 0
    endloop
  endfacet
  facet normal -0.548929 -0.835869 -0
    outer loop
      vertex 30.7617 31.8457 2.5
      vertex 30.7617 31.8457 0
      vertex 31.416 31.416 2.5
    endloop
  endfacet
  facet normal -0.835869 -0.548929 0
    outer loop
      vertex 31.8457 30.7617 0
      vertex 31.8457 30.7617 2.5
      vertex 31.416 31.416 0
    endloop
  endfacet
  facet normal -0.835869 -0.548929 -0
    outer loop
      vertex 31.416 31.416 2.5
      vertex 31.416 31.416 0
      vertex 31.8457 30.7617 2.5
    endloop
  endfacet
  facet normal -0.979603 -0.200944 0
    outer loop
      vertex 32.002 30 0
      vertex 32.002 30 2.5
      vertex 31.8457 30.7617 0
    endloop
  endfacet
  facet normal -0.979603 -0.200944 -0
    outer loop
      vertex 31.8457 30.7617 2.5
      vertex 31.8457 30.7617 0
      vertex 32.002 30 2.5
    endloop
  endfacet
  facet normal -0.979603 0.200944 0
    outer loop
      vertex 31.8457 29.2383 0
      vertex 31.8457 29.2383 2.5
      vertex 32.002 30 0
    endloop
  endfacet
  facet normal -0.979603 0.200944 0
    outer loop
      vertex 32.002 30 2.5
      vertex 32.002 30 0
      vertex 31.8457 29.2383 2.5
    endloop
  endfacet
  facet normal -0.835869 0.548929 0
    outer loop
      vertex 31.416 28.584 0
      vertex 31.416 28.584 2.5
      vertex 31.8457 29.2383 0
    endloop
  endfacet
  facet normal -0.835869 0.548929 0
    outer loop
      vertex 31.8457 29.2383 2.5
      vertex 31.8457 29.2383 0
      vertex 31.416 28.584 2.5
    endloop
  endfacet
  facet normal -0.548929 0.835869 0
    outer loop
      vertex 30.7617 28.1543 0
      vertex 30.7617 28.1543 2.5
      vertex 31.416 28.584 0
    endloop
  endfacet
  facet normal -0.548929 0.835869 0
    outer loop
      vertex 31.416 28.584 2.5
      vertex 31.416 28.584 0
      vertex 30.7617 28.1543 2.5
    endloop
  endfacet
  facet normal -0.200944 0.979603 0
    outer loop
      vertex 30 27.998 0
      vertex 30 27.998 2.5
      vertex 30.7617 28.1543 0
    endloop
  endfacet
  facet normal -0.200944 0.979603 0
    outer loop
      vertex 30.7617 28.1543 2.5
      vertex 30.7617 28.1543 0
      vertex 30 27.998 2.5
    endloop
  endfacet
  facet normal 0.196116 0.980581 -0
    outer loop
      vertex 29.2188 28.1543 0
      vertex 29.2188 28.1543 2.5
      vertex 30 27.998 0
    endloop
  endfacet
  facet normal 0.196116 0.980581 0
    outer loop
      vertex 30 27.998 2.5
      vertex 30 27.998 0
      vertex 29.2188 28.1543 2.5
    endloop
  endfacet
endsolid OpenSCAD_Model
