  0
SECTION
  2
HEADER
  9
$ACADVER
  1
AC1014
  9
$HANDSEED
  5
FFFF
  9
$MEASUREMENT
 70
     1
  0
ENDSEC
  0
SECTION
  2
TABLES
  0
TABLE
  2
VPORT
  5
8
330
0
100
AcDbSymbolTable
 70
     4
  0
VPORT
  5
2E
330
8
100
AcDbSymbolTableRecord
100
AcDbViewportTableRecord
  2
*ACTIVE
 70
     0
 10
0.0
 20
0.0
 11
1.0
 21
1.0
 12
210.0
 22
148.5
 13
0.0
 23
0.0
 14
10.0
 24
10.0
 15
10.0
 25
10.0
 16
0.0
 26
0.0
 36
1.0
 17
0.0
 27
0.0
 37
0.0
 40
341.0
 41
1.24
 42
50.0
 43
0.0
 44
0.0
 50
0.0
 51
0.0
 71
     0
 72
   100
 73
     1
 74
     3
 75
     0
 76
     0
 77
     0
 78
     0
  0
ENDTAB
  0
TABLE
  2
LTYPE
  5
5
330
0
100
AcDbSymbolTable
 70
     1
  0
LTYPE
  5
14
330
5
100
AcDbSymbolTableRecord
100
AcDbLinetypeTableRecord
  2
BYBLOCK
 70
     0
  3

 72
    65
 73
     0
 40
0.0
  0
LTYPE
  5
15
330
5
100
AcDbSymbolTableRecord
100
AcDbLinetypeTableRecord
  2
BYLAYER
 70
     0
  3

 72
    65
 73
     0
 40
0.0
  0
LTYPE
  5
16
330
5
100
AcDbSymbolTableRecord
100
AcDbLinetypeTableRecord
  2
CONTINUOUS
 70
     0
  3
Solid line
 72
    65
 73
     0
 40
0.0
  0
ENDTAB
  0
TABLE
  2
LAYER
  5
2
100
AcDbSymbolTable
 70
2
  0
LAYER
  5
50
100
AcDbSymbolTableRecord
100
AcDbLayerTableRecord
  2
0
 70
0
  6
CONTINUOUS
  0
LAYER
  5
51
100
AcDbSymbolTableRecord
100
AcDbLayerTableRecord
  2
Layer_1
 70
0
  6
CONTINUOUS
  0
ENDTAB
  0
TABLE
  2
STYLE
  5
3
330
0
100
AcDbSymbolTable
 70
     1
  0
STYLE
  5
11
330
3
100
AcDbSymbolTableRecord
100
AcDbTextStyleTableRecord
  2
STANDARD
 70
     0
 40
0.0
 41
1.0
 50
0.0
 71
     0
 42
2.5
  3
txt
  4

  0
ENDTAB
  0
TABLE
  2
VIEW
  5
6
330
0
100
AcDbSymbolTable
 70
     0
  0
ENDTAB
  0
TABLE
  2
UCS
  5
7
330
0
100
AcDbSymbolTable
 70
     0
  0
ENDTAB
  0
TABLE
  2
APPID
  5
9
330
0
100
AcDbSymbolTable
 70
     2
  0
APPID
  5
12
330
9
100
AcDbSymbolTableRecord
100
AcDbRegAppTableRecord
  2
ACAD
 70
     0
  0
ENDTAB
  0
TABLE
  2
DIMSTYLE
  5
A
330
0
100
AcDbSymbolTable
 70
     1
  0
DIMSTYLE
105
27
330
A
100
AcDbSymbolTableRecord
100
AcDbDimStyleTableRecord
  2
ISO-25
 70
     0
  3

  4

  5

  6

  7

 40
1.0
 41
2.5
 42
0.625
 43
3.75
 44
1.25
 45
0.0
 46
0.0
 47
0.0
 48
0.0
140
2.5
141
2.5
142
0.0
143
0.03937007874016
144
1.0
145
0.0
146
1.0
147
0.625
 71
     0
 72
     0
 73
     0
 74
     0
 75
     0
 76
     0
 77
     1
 78
     8
170
     0
171
     3
172
     1
173
     0
174
     0
175
     0
176
     0
177
     0
178
     0
270
     2
271
     2
272
     2
273
     2
274
     3
340
11
275
     0
280
     0
281
     0
282
     0
283
     0
284
     8
285
     0
286
     0
287
     3
288
     0
  0
ENDTAB
  0
TABLE
  2
BLOCK_RECORD
  5
1
330
0
100
AcDbSymbolTable
 70
     1
  0
BLOCK_RECORD
  5
1F
330
1
100
AcDbSymbolTableRecord
100
AcDbBlockTableRecord
  2
*MODEL_SPACE
  0
BLOCK_RECORD
  5
1B
330
1
100
AcDbSymbolTableRecord
100
AcDbBlockTableRecord
  2
*PAPER_SPACE
  0
ENDTAB
  0
ENDSEC
  0
SECTION
  2
BLOCKS
  0
BLOCK
  5
20
330
1F
100
AcDbEntity
  8
0
100
AcDbBlockBegin
  2
*MODEL_SPACE
 70
     0
 10
0.0
 20
0.0
 30
0.0
  3
*MODEL_SPACE
  1

  0
ENDBLK
  5
21
330
1F
100
AcDbEntity
  8
0
100
AcDbBlockEnd
  0
BLOCK
  5
1C
330
1B
100
AcDbEntity
 67
     1
  8
0
100
AcDbBlockBegin
  2
*PAPER_SPACE
  1

  0
ENDBLK
  5
1D
330
1B
100
AcDbEntity
 67
     1
  8
0
100
AcDbBlockEnd
  0
ENDSEC
  0
SECTION
  2
ENTITIES
  0
LWPOLYLINE
  5
100
100
AcDbEntity
  8
Layer_1
 62
7
100
AcDbPolyline
 90
72
 70
0
 10
1.346988
 20
5.886941
 30
0.0
 10
1.346988
 20
5.883469
 30
0.0
 10
1.093630
 20
5.850877
 30
0.0
 10
0.869525
 20
5.802841
 30
0.0
 10
0.673661
 20
5.740815
 30
0.0
 10
0.505030
 20
5.666257
 30
0.0
 10
0.362620
 20
5.580625
 30
0.0
 10
0.245422
 20
5.485373
 30
0.0
 10
0.152425
 20
5.381961
 30
0.0
 10
0.082620
 20
5.271843
 30
0.0
 10
0.034995
 20
5.156478
 30
0.0
 10
0.008541
 20
5.037322
 30
0.0
 10
0.002247
 20
4.915831
 30
0.0
 10
0.015104
 20
4.793464
 30
0.0
 10
0.046101
 20
4.671675
 30
0.0
 10
0.094229
 20
4.551923
 30
0.0
 10
0.158476
 20
4.435665
 30
0.0
 10
0.237832
 20
4.324356
 30
0.0
 10
0.328770
 20
4.153084
 30
0.0
 10
0.400831
 20
3.978276
 30
0.0
 10
0.456356
 20
3.804761
 30
0.0
 10
0.497681
 20
3.637367
 30
0.0
 10
0.547081
 20
3.340257
 30
0.0
 10
0.567735
 20
3.125573
 30
0.0
 10
0.625392
 20
0.542027
 30
0.0
 10
0.644198
 20
0.409645
 30
0.0
 10
0.688416
 20
0.297387
 30
0.0
 10
0.752035
 20
0.204495
 30
0.0
 10
0.829043
 20
0.130208
 30
0.0
 10
0.913429
 20
0.073767
 30
0.0
 10
0.999184
 20
0.034414
 30
0.0
 10
1.080296
 20
0.011388
 30
0.0
 10
1.150755
 20
0.003931
 30
0.0
 10
1.346988
 20
0.006522
 30
0.0
 10
1.346988
 20
0.001947
 30
0.0
 10
5.405531
 20
0.001947
 30
0.0
 10
5.405531
 20
0.006522
 30
0.0
 10
5.601763
 20
0.003931
 30
0.0
 10
5.672222
 20
0.011388
 30
0.0
 10
5.753334
 20
0.034414
 30
0.0
 10
5.839089
 20
0.073767
 30
0.0
 10
5.923476
 20
0.130208
 30
0.0
 10
6.000484
 20
0.204495
 30
0.0
 10
6.064102
 20
0.297387
 30
0.0
 10
6.108320
 20
0.409645
 30
0.0
 10
6.127127
 20
0.542027
 30
0.0
 10
6.184784
 20
3.125573
 30
0.0
 10
6.205437
 20
3.340257
 30
0.0
 10
6.254838
 20
3.637367
 30
0.0
 10
6.296162
 20
3.804761
 30
0.0
 10
6.351687
 20
3.978276
 30
0.0
 10
6.423749
 20
4.153084
 30
0.0
 10
6.514686
 20
4.324356
 30
0.0
 10
6.594043
 20
4.435665
 30
0.0
 10
6.658290
 20
4.551923
 30
0.0
 10
6.706417
 20
4.671675
 30
0.0
 10
6.737414
 20
4.793464
 30
0.0
 10
6.750271
 20
4.915831
 30
0.0
 10
6.743977
 20
5.037322
 30
0.0
 10
6.717523
 20
5.156478
 30
0.0
 10
6.669899
 20
5.271843
 30
0.0
 10
6.600093
 20
5.381961
 30
0.0
 10
6.507096
 20
5.485373
 30
0.0
 10
6.389898
 20
5.580625
 30
0.0
 10
6.247488
 20
5.666257
 30
0.0
 10
6.078857
 20
5.740815
 30
0.0
 10
5.882994
 20
5.802841
 30
0.0
 10
5.658888
 20
5.850877
 30
0.0
 10
5.405531
 20
5.883469
 30
0.0
 10
5.405531
 20
5.886941
 30
0.0
 10
1.346988
 20
5.886941
 30
0.0
 10
1.346988
 20
5.886941
 30
0.0
  0
LWPOLYLINE
  5
101
100
AcDbEntity
  8
Layer_1
 62
7
100
AcDbPolyline
 90
66
 70
0
 10
3.376287
 20
4.444466
 30
0.0
 10
3.529652
 20
4.436718
 30
0.0
 10
3.678587
 20
4.413985
 30
0.0
 10
3.822337
 20
4.377020
 30
0.0
 10
3.960149
 20
4.326577
 30
0.0
 10
4.091269
 20
4.263410
 30
0.0
 10
4.214942
 20
4.188273
 30
0.0
 10
4.330415
 20
4.101921
 30
0.0
 10
4.436933
 20
4.005107
 30
0.0
 10
4.533744
 20
3.898584
 30
0.0
 10
4.620092
 20
3.783108
 30
0.0
 10
4.695224
 20
3.659432
 30
0.0
 10
4.758386
 20
3.528311
 30
0.0
 10
4.808824
 20
3.390497
 30
0.0
 10
4.845784
 20
3.246745
 30
0.0
 10
4.868512
 20
3.097809
 30
0.0
 10
4.876254
 20
2.944444
 30
0.0
 10
4.868512
 20
2.791078
 30
0.0
 10
4.845784
 20
2.642143
 30
0.0
 10
4.808824
 20
2.498391
 30
0.0
 10
4.758386
 20
2.360577
 30
0.0
 10
4.695224
 20
2.229455
 30
0.0
 10
4.620092
 20
2.105779
 30
0.0
 10
4.533744
 20
1.990303
 30
0.0
 10
4.436933
 20
1.883781
 30
0.0
 10
4.330415
 20
1.786967
 30
0.0
 10
4.214942
 20
1.700614
 30
0.0
 10
4.091269
 20
1.625478
 30
0.0
 10
3.960149
 20
1.562311
 30
0.0
 10
3.822337
 20
1.511868
 30
0.0
 10
3.678587
 20
1.474903
 30
0.0
 10
3.529652
 20
1.452169
 30
0.0
 10
3.376287
 20
1.444422
 30
0.0
 10
3.228027
 20
1.451760
 30
0.0
 10
3.082279
 20
1.473507
 30
0.0
 10
2.940025
 20
1.509255
 30
0.0
 10
2.802250
 20
1.558598
 30
0.0
 10
2.669936
 20
1.621128
 30
0.0
 10
2.544069
 20
1.696436
 30
0.0
 10
2.425630
 20
1.784117
 30
0.0
 10
2.315605
 20
1.883761
 30
0.0
 10
2.215960
 20
1.993787
 30
0.0
 10
2.128279
 20
2.112226
 30
0.0
 10
2.052971
 20
2.238093
 30
0.0
 10
1.990441
 20
2.370407
 30
0.0
 10
1.941098
 20
2.508182
 30
0.0
 10
1.905350
 20
2.650436
 30
0.0
 10
1.883603
 20
2.796184
 30
0.0
 10
1.876265
 20
2.944444
 30
0.0
 10
1.883603
 20
3.092703
 30
0.0
 10
1.905350
 20
3.238452
 30
0.0
 10
1.941098
 20
3.380705
 30
0.0
 10
1.990441
 20
3.518481
 30
0.0
 10
2.052971
 20
3.650794
 30
0.0
 10
2.128279
 20
3.776662
 30
0.0
 10
2.215960
 20
3.895101
 30
0.0
 10
2.315605
 20
4.005126
 30
0.0
 10
2.425630
 20
4.104771
 30
0.0
 10
2.544069
 20
4.192451
 30
0.0
 10
2.669936
 20
4.267760
 30
0.0
 10
2.802250
 20
4.330289
 30
0.0
 10
2.940025
 20
4.379632
 30
0.0
 10
3.082279
 20
4.415381
 30
0.0
 10
3.228027
 20
4.437128
 30
0.0
 10
3.376287
 20
4.444466
 30
0.0
 10
3.376287
 20
4.444466
 30
0.0
  0
ENDSEC
  0
SECTION
  2
OBJECTS
  0
DICTIONARY
  5
C
330
0
100
AcDbDictionary
  3
ACAD_GROUP
350
D
  3
ACAD_MLINESTYLE
350
17
  0
DICTIONARY
  5
D
330
C
100
AcDbDictionary
  0
DICTIONARY
  5
1A
330
C
100
AcDbDictionary
  0
DICTIONARY
  5
17
330
C
100
AcDbDictionary
  3
STANDARD
350
18
  0
DICTIONARY
  5
19
330
C
100
AcDbDictionary
  0
ENDSEC
  0
EOF
