  0
SECTION
  2
HEADER
  9
$ACADVER
  1
AC1014
  9
$HANDSEED
  5
FFFF
  9
$MEASUREMENT
 70
     1
  0
ENDSEC
  0
SECTION
  2
TABLES
  0
TABLE
  2
VPORT
  5
8
330
0
100
AcDbSymbolTable
 70
     4
  0
VPORT
  5
2E
330
8
100
AcDbSymbolTableRecord
100
AcDbViewportTableRecord
  2
*ACTIVE
 70
     0
 10
0.0
 20
0.0
 11
1.0
 21
1.0
 12
210.0
 22
148.5
 13
0.0
 23
0.0
 14
10.0
 24
10.0
 15
10.0
 25
10.0
 16
0.0
 26
0.0
 36
1.0
 17
0.0
 27
0.0
 37
0.0
 40
341.0
 41
1.24
 42
50.0
 43
0.0
 44
0.0
 50
0.0
 51
0.0
 71
     0
 72
   100
 73
     1
 74
     3
 75
     0
 76
     0
 77
     0
 78
     0
  0
ENDTAB
  0
TABLE
  2
LTYPE
  5
5
330
0
100
AcDbSymbolTable
 70
     1
  0
LTYPE
  5
14
330
5
100
AcDbSymbolTableRecord
100
AcDbLinetypeTableRecord
  2
BYBLOCK
 70
     0
  3

 72
    65
 73
     0
 40
0.0
  0
LTYPE
  5
15
330
5
100
AcDbSymbolTableRecord
100
AcDbLinetypeTableRecord
  2
BYLAYER
 70
     0
  3

 72
    65
 73
     0
 40
0.0
  0
LTYPE
  5
16
330
5
100
AcDbSymbolTableRecord
100
AcDbLinetypeTableRecord
  2
CONTINUOUS
 70
     0
  3
Solid line
 72
    65
 73
     0
 40
0.0
  0
ENDTAB
  0
TABLE
  2
LAYER
  5
2
100
AcDbSymbolTable
 70
2
  0
LAYER
  5
50
100
AcDbSymbolTableRecord
100
AcDbLayerTableRecord
  2
0
 70
0
  6
CONTINUOUS
  0
LAYER
  5
51
100
AcDbSymbolTableRecord
100
AcDbLayerTableRecord
  2
Layer_1
 70
0
  6
CONTINUOUS
  0
ENDTAB
  0
TABLE
  2
STYLE
  5
3
330
0
100
AcDbSymbolTable
 70
     1
  0
STYLE
  5
11
330
3
100
AcDbSymbolTableRecord
100
AcDbTextStyleTableRecord
  2
STANDARD
 70
     0
 40
0.0
 41
1.0
 50
0.0
 71
     0
 42
2.5
  3
txt
  4

  0
ENDTAB
  0
TABLE
  2
VIEW
  5
6
330
0
100
AcDbSymbolTable
 70
     0
  0
ENDTAB
  0
TABLE
  2
UCS
  5
7
330
0
100
AcDbSymbolTable
 70
     0
  0
ENDTAB
  0
TABLE
  2
APPID
  5
9
330
0
100
AcDbSymbolTable
 70
     2
  0
APPID
  5
12
330
9
100
AcDbSymbolTableRecord
100
AcDbRegAppTableRecord
  2
ACAD
 70
     0
  0
ENDTAB
  0
TABLE
  2
DIMSTYLE
  5
A
330
0
100
AcDbSymbolTable
 70
     1
  0
DIMSTYLE
105
27
330
A
100
AcDbSymbolTableRecord
100
AcDbDimStyleTableRecord
  2
ISO-25
 70
     0
  3

  4

  5

  6

  7

 40
1.0
 41
2.5
 42
0.625
 43
3.75
 44
1.25
 45
0.0
 46
0.0
 47
0.0
 48
0.0
140
2.5
141
2.5
142
0.0
143
0.03937007874016
144
1.0
145
0.0
146
1.0
147
0.625
 71
     0
 72
     0
 73
     0
 74
     0
 75
     0
 76
     0
 77
     1
 78
     8
170
     0
171
     3
172
     1
173
     0
174
     0
175
     0
176
     0
177
     0
178
     0
270
     2
271
     2
272
     2
273
     2
274
     3
340
11
275
     0
280
     0
281
     0
282
     0
283
     0
284
     8
285
     0
286
     0
287
     3
288
     0
  0
ENDTAB
  0
TABLE
  2
BLOCK_RECORD
  5
1
330
0
100
AcDbSymbolTable
 70
     1
  0
BLOCK_RECORD
  5
1F
330
1
100
AcDbSymbolTableRecord
100
AcDbBlockTableRecord
  2
*MODEL_SPACE
  0
BLOCK_RECORD
  5
1B
330
1
100
AcDbSymbolTableRecord
100
AcDbBlockTableRecord
  2
*PAPER_SPACE
  0
ENDTAB
  0
ENDSEC
  0
SECTION
  2
BLOCKS
  0
BLOCK
  5
20
330
1F
100
AcDbEntity
  8
0
100
AcDbBlockBegin
  2
*MODEL_SPACE
 70
     0
 10
0.0
 20
0.0
 30
0.0
  3
*MODEL_SPACE
  1

  0
ENDBLK
  5
21
330
1F
100
AcDbEntity
  8
0
100
AcDbBlockEnd
  0
BLOCK
  5
1C
330
1B
100
AcDbEntity
 67
     1
  8
0
100
AcDbBlockBegin
  2
*PAPER_SPACE
  1

  0
ENDBLK
  5
1D
330
1B
100
AcDbEntity
 67
     1
  8
0
100
AcDbBlockEnd
  0
ENDSEC
  0
SECTION
  2
ENTITIES
  0
LWPOLYLINE
  5
100
100
AcDbEntity
  8
Layer_1
 62
7
100
AcDbPolyline
 90
35
 70
0
 10
1.320567
 20
5.878784
 30
0.0
 10
1.071644
 20
5.844850
 30
0.0
 10
0.851510
 20
5.795800
 30
0.0
 10
0.659173
 20
5.733065
 30
0.0
 10
0.493645
 20
5.658072
 30
0.0
 10
0.353934
 20
5.572253
 30
0.0
 10
0.239050
 20
5.477035
 30
0.0
 10
0.148001
 20
5.373848
 30
0.0
 10
0.079799
 20
5.264121
 30
0.0
 10
0.033452
 20
5.149284
 30
0.0
 10
0.007969
 20
5.030765
 30
0.0
 10
0.002360
 20
4.909993
 30
0.0
 10
0.015635
 20
4.788399
 30
0.0
 10
0.046803
 20
4.667410
 30
0.0
 10
0.094874
 20
4.548457
 30
0.0
 10
0.158856
 20
4.432968
 30
0.0
 10
0.237760
 20
4.322373
 30
0.0
 10
0.328695
 20
4.151101
 30
0.0
 10
0.400751
 20
3.976293
 30
0.0
 10
0.456266
 20
3.802778
 30
0.0
 10
0.497581
 20
3.635384
 30
0.0
 10
0.546962
 20
3.338274
 30
0.0
 10
0.567607
 20
3.123590
 30
0.0
 10
0.625320
 20
0.540044
 30
0.0
 10
0.644126
 20
0.407662
 30
0.0
 10
0.688344
 20
0.295404
 30
0.0
 10
0.751962
 20
0.202512
 30
0.0
 10
0.828971
 20
0.128224
 30
0.0
 10
0.913357
 20
0.071784
 30
0.0
 10
0.999112
 20
0.032430
 30
0.0
 10
1.080225
 20
0.009405
 30
0.0
 10
1.150683
 20
0.001948
 30
0.0
 10
1.320567
 20
0.004208
 30
0.0
 10
1.320567
 20
5.878785
 30
0.0
 10
1.320567
 20
5.878784
 30
0.0
  0
LWPOLYLINE
  5
101
100
AcDbEntity
  8
Layer_1
 62
7
100
AcDbPolyline
 90
35
 70
0
 10
5.430208
 20
5.878950
 30
0.0
 10
5.430208
 20
0.004208
 30
0.0
 10
5.601691
 20
0.001947
 30
0.0
 10
5.672150
 20
0.009404
 30
0.0
 10
5.753262
 20
0.032430
 30
0.0
 10
5.839017
 20
0.071783
 30
0.0
 10
5.923404
 20
0.128224
 30
0.0
 10
6.000412
 20
0.202511
 30
0.0
 10
6.064030
 20
0.295403
 30
0.0
 10
6.108248
 20
0.407661
 30
0.0
 10
6.127054
 20
0.540043
 30
0.0
 10
6.184711
 20
3.123589
 30
0.0
 10
6.205365
 20
3.338273
 30
0.0
 10
6.254766
 20
3.635383
 30
0.0
 10
6.296090
 20
3.802777
 30
0.0
 10
6.351615
 20
3.976292
 30
0.0
 10
6.423677
 20
4.151100
 30
0.0
 10
6.514614
 20
4.322372
 30
0.0
 10
6.593544
 20
4.433009
 30
0.0
 10
6.657540
 20
4.548543
 30
0.0
 10
6.705611
 20
4.667544
 30
0.0
 10
6.736765
 20
4.788579
 30
0.0
 10
6.750011
 20
4.910219
 30
0.0
 10
6.744357
 20
5.031033
 30
0.0
 10
6.718813
 20
5.149590
 30
0.0
 10
6.672385
 20
5.264459
 30
0.0
 10
6.604083
 20
5.374209
 30
0.0
 10
6.512916
 20
5.477410
 30
0.0
 10
6.397891
 20
5.572630
 30
0.0
 10
6.258018
 20
5.658439
 30
0.0
 10
6.092304
 20
5.733407
 30
0.0
 10
5.899759
 20
5.796101
 30
0.0
 10
5.679391
 20
5.845092
 30
0.0
 10
5.430208
 20
5.878949
 30
0.0
 10
5.430208
 20
5.878950
 30
0.0
  0
LWPOLYLINE
  5
102
100
AcDbEntity
  8
Layer_1
 62
7
100
AcDbPolyline
 90
5
 70
0
 10
1.420999
 20
5.885454
 30
0.0
 10
1.420999
 20
0.000459
 30
0.0
 10
5.331375
 20
0.000459
 30
0.0
 10
5.331375
 20
5.885454
 30
0.0
 10
1.420999
 20
5.885454
 30
0.0
  0
LWPOLYLINE
  5
103
100
AcDbEntity
  8
Layer_1
 62
7
100
AcDbPolyline
 90
66
 70
0
 10
3.376160
 20
4.442979
 30
0.0
 10
3.529529
 20
4.435236
 30
0.0
 10
3.678468
 20
4.412507
 30
0.0
 10
3.822223
 20
4.375546
 30
0.0
 10
3.960040
 20
4.325106
 30
0.0
 10
4.091164
 20
4.261941
 30
0.0
 10
4.214842
 20
4.186805
 30
0.0
 10
4.330319
 20
4.100453
 30
0.0
 10
4.436842
 20
4.003639
 30
0.0
 10
4.533656
 20
3.897116
 30
0.0
 10
4.620008
 20
3.781639
 30
0.0
 10
4.695143
 20
3.657961
 30
0.0
 10
4.758308
 20
3.526837
 30
0.0
 10
4.808749
 20
3.389020
 30
0.0
 10
4.845710
 20
3.245266
 30
0.0
 10
4.868439
 20
3.096326
 30
0.0
 10
4.876182
 20
2.942957
 30
0.0
 10
4.868439
 20
2.789587
 30
0.0
 10
4.845710
 20
2.640648
 30
0.0
 10
4.808749
 20
2.496893
 30
0.0
 10
4.758308
 20
2.359077
 30
0.0
 10
4.695143
 20
2.227952
 30
0.0
 10
4.620008
 20
2.104275
 30
0.0
 10
4.533656
 20
1.988797
 30
0.0
 10
4.436842
 20
1.882274
 30
0.0
 10
4.330319
 20
1.785460
 30
0.0
 10
4.214842
 20
1.699108
 30
0.0
 10
4.091164
 20
1.623973
 30
0.0
 10
3.960040
 20
1.560808
 30
0.0
 10
3.822223
 20
1.510368
 30
0.0
 10
3.678468
 20
1.473406
 30
0.0
 10
3.529529
 20
1.450677
 30
0.0
 10
3.376160
 20
1.442935
 30
0.0
 10
3.222790
 20
1.450677
 30
0.0
 10
3.073851
 20
1.473406
 30
0.0
 10
2.930096
 20
1.510368
 30
0.0
 10
2.792279
 20
1.560808
 30
0.0
 10
2.661155
 20
1.623973
 30
0.0
 10
2.537477
 20
1.699108
 30
0.0
 10
2.422000
 20
1.785460
 30
0.0
 10
2.315477
 20
1.882274
 30
0.0
 10
2.218663
 20
1.988797
 30
0.0
 10
2.132311
 20
2.104275
 30
0.0
 10
2.057175
 20
2.227952
 30
0.0
 10
1.994010
 20
2.359077
 30
0.0
 10
1.943570
 20
2.496893
 30
0.0
 10
1.906609
 20
2.640648
 30
0.0
 10
1.883879
 20
2.789587
 30
0.0
 10
1.876137
 20
2.942957
 30
0.0
 10
1.883879
 20
3.096326
 30
0.0
 10
1.906609
 20
3.245266
 30
0.0
 10
1.943570
 20
3.389020
 30
0.0
 10
1.994010
 20
3.526837
 30
0.0
 10
2.057175
 20
3.657961
 30
0.0
 10
2.132311
 20
3.781639
 30
0.0
 10
2.218663
 20
3.897116
 30
0.0
 10
2.315477
 20
4.003639
 30
0.0
 10
2.422000
 20
4.100454
 30
0.0
 10
2.537477
 20
4.186805
 30
0.0
 10
2.661155
 20
4.261941
 30
0.0
 10
2.792279
 20
4.325106
 30
0.0
 10
2.930096
 20
4.375546
 30
0.0
 10
3.073851
 20
4.412508
 30
0.0
 10
3.222790
 20
4.435237
 30
0.0
 10
3.376160
 20
4.442979
 30
0.0
 10
3.376160
 20
4.442979
 30
0.0
  0
ENDSEC
  0
SECTION
  2
OBJECTS
  0
DICTIONARY
  5
C
330
0
100
AcDbDictionary
  3
ACAD_GROUP
350
D
  3
ACAD_MLINESTYLE
350
17
  0
DICTIONARY
  5
D
330
C
100
AcDbDictionary
  0
DICTIONARY
  5
1A
330
C
100
AcDbDictionary
  0
DICTIONARY
  5
17
330
C
100
AcDbDictionary
  3
STANDARD
350
18
  0
DICTIONARY
  5
19
330
C
100
AcDbDictionary
  0
ENDSEC
  0
EOF
