<?xml version="1.0" standalone="no"?>
<!DOCTYPE svg PUBLIC "-//W3C//DTD SVG 20010904//EN"
 "http://www.w3.org/TR/2001/REC-SVG-20010904/DTD/svg10.dtd">
<svg version="1.0" xmlns="http://www.w3.org/2000/svg"
 width="1440.000000pt" height="658.000000pt" viewBox="0 0 1440.000000 658.000000"
 preserveAspectRatio="xMidYMid meet">
<metadata>
Created by potrace 1.11, written by Peter Selinger 2001-2013
</metadata>
<g transform="translate(0.000000,658.000000) scale(0.100000,-0.100000)"
fill="#000000" stroke="none">
<path d="M7390 6559 c0 -12 8 -23 20 -26 18 -5 20 -14 20 -83 0 -69 -2 -78
-20 -83 -17 -4 -20 -14 -20 -57 0 -43 3 -53 20 -57 11 -3 20 -14 20 -24 0 -11
7 -19 15 -19 8 0 15 -9 15 -20 0 -11 7 -20 15 -20 8 0 15 -7 15 -15 0 -8 9
-19 20 -25 11 -6 20 -17 20 -25 0 -8 7 -15 15 -15 11 0 15 -11 15 -40 0 -29 4
-40 15 -40 10 0 15 -11 15 -35 0 -24 -5 -35 -14 -35 -8 0 -31 -26 -50 -59 -20
-32 -43 -64 -51 -71 -12 -10 -15 -40 -15 -151 0 -81 -4 -140 -10 -144 -5 -3
-10 -21 -10 -40 0 -19 -4 -36 -9 -39 -8 -5 -17 -46 -25 -119 -1 -15 -6 -30 -9
-34 -4 -3 -7 -16 -7 -27 0 -12 -9 -32 -20 -46 -11 -14 -20 -33 -20 -42 0 -9
-4 -20 -10 -23 -5 -3 -10 -15 -10 -27 0 -11 -9 -33 -21 -50 -12 -16 -18 -32
-15 -35 3 -3 2 -11 -2 -17 -5 -6 -14 -31 -22 -56 -7 -25 -17 -49 -22 -54 -4
-6 -8 -19 -8 -29 0 -11 -16 -41 -35 -67 -19 -26 -35 -55 -35 -64 0 -9 -6 -19
-14 -22 -7 -3 -33 -34 -57 -69 -24 -36 -50 -65 -57 -65 -7 0 -15 -7 -18 -15
-4 -8 -12 -15 -19 -15 -7 0 -16 -7 -19 -16 -3 -8 -10 -12 -16 -9 -6 3 -13 -1
-16 -9 -3 -9 -16 -16 -29 -16 -13 0 -25 -7 -29 -15 -3 -9 -19 -15 -41 -15 -19
0 -35 -4 -35 -10 0 -5 -26 -10 -57 -10 -54 0 -59 -2 -75 -31 -10 -17 -18 -35
-18 -41 0 -15 -54 -88 -65 -88 -6 0 -19 -13 -28 -30 -10 -16 -25 -30 -33 -30
-8 0 -14 -4 -14 -10 0 -5 -7 -10 -15 -10 -7 0 -18 -7 -22 -15 -6 -11 -34 -15
-111 -18 -92 -3 -104 -6 -118 -25 -8 -12 -21 -22 -29 -22 -8 0 -19 -16 -26
-35 -7 -19 -18 -35 -24 -35 -7 0 -18 -11 -25 -25 -7 -14 -17 -25 -22 -25 -5 0
-24 -11 -42 -25 -40 -30 -76 -32 -99 -5 -9 11 -23 17 -32 14 -9 -4 -17 1 -21
11 -4 9 -13 14 -20 11 -13 -5 -37 23 -64 76 -7 16 -24 35 -36 43 -36 23 -128
10 -147 -22 -4 -7 -17 -13 -27 -13 -10 0 -23 -6 -27 -12 -10 -16 -48 -38 -65
-38 -7 0 -26 -16 -42 -35 -22 -26 -32 -32 -42 -24 -16 13 -34 4 -34 -17 0 -10
-7 -13 -24 -8 -16 4 -25 1 -29 -10 -4 -9 -13 -16 -21 -16 -8 0 -16 -5 -18 -11
-5 -16 -77 -17 -83 -1 -3 7 -24 12 -55 12 -31 0 -52 5 -55 13 -3 6 -22 13 -42
15 -20 1 -45 10 -55 18 -10 10 -26 14 -38 11 -13 -3 -23 0 -27 9 -3 9 -20 14
-48 14 -29 0 -45 5 -49 15 -4 11 -20 15 -56 15 -36 0 -52 -4 -56 -15 -4 -9
-19 -15 -39 -15 -20 0 -35 -6 -39 -15 -4 -11 -13 -14 -29 -10 -15 4 -28 1 -36
-9 -8 -10 -29 -16 -53 -16 -25 0 -41 -5 -44 -15 -4 -8 -18 -15 -34 -15 -15 0
-30 -7 -34 -15 -3 -8 -12 -12 -20 -9 -15 6 -106 -112 -106 -138 0 -8 -18 -40
-40 -72 -22 -31 -40 -63 -40 -70 0 -7 -36 -65 -80 -129 -44 -64 -80 -125 -80
-135 0 -10 -9 -27 -20 -37 -11 -10 -20 -28 -20 -39 0 -12 -6 -31 -14 -42 -8
-11 -17 -38 -21 -60 -4 -21 -13 -49 -21 -61 -8 -12 -14 -32 -14 -44 0 -12 -11
-37 -25 -55 -14 -18 -25 -39 -25 -47 0 -7 -36 -66 -80 -130 -44 -64 -80 -125
-80 -135 0 -10 -9 -27 -20 -37 -11 -10 -20 -28 -20 -39 0 -12 -7 -30 -15 -40
-8 -11 -15 -32 -15 -47 0 -14 -7 -32 -15 -39 -8 -7 -15 -25 -15 -40 0 -15 -9
-39 -20 -53 -11 -14 -20 -34 -20 -46 0 -26 -117 -221 -133 -221 -7 0 -28 -28
-47 -62 -19 -34 -42 -63 -50 -65 -8 -2 -33 -35 -54 -73 -21 -38 -43 -68 -48
-67 -6 1 -36 -41 -68 -93 -32 -52 -65 -96 -72 -98 -8 -2 -22 -18 -31 -37 -9
-19 -23 -35 -31 -35 -8 0 -16 -7 -20 -15 -3 -8 -12 -15 -20 -15 -7 0 -16 -7
-20 -15 -3 -8 -12 -15 -20 -15 -8 0 -18 -9 -21 -20 -3 -11 -12 -20 -20 -20 -7
0 -15 -7 -19 -15 -3 -8 -16 -15 -30 -15 -13 0 -26 -7 -30 -15 -3 -8 -12 -15
-20 -15 -8 0 -18 -9 -21 -20 -4 -11 -10 -18 -15 -15 -5 3 -15 -3 -22 -15 -7
-11 -18 -20 -24 -20 -7 0 -14 -7 -18 -15 -3 -9 -18 -15 -40 -15 -21 0 -36 -6
-40 -15 -3 -9 -18 -15 -40 -15 -26 0 -36 -5 -41 -20 -5 -15 -12 -19 -25 -15
-13 4 -22 -1 -30 -15 -6 -11 -17 -20 -24 -20 -8 0 -16 -7 -20 -15 -3 -8 -16
-15 -30 -15 -15 0 -27 -7 -31 -19 -4 -13 -12 -17 -25 -14 -12 3 -23 -3 -32
-16 -10 -17 -23 -21 -64 -21 -37 0 -54 -4 -58 -15 -3 -9 -18 -15 -40 -15 -26
0 -36 -5 -41 -19 -3 -12 -12 -18 -20 -15 -7 3 -16 -3 -19 -13 -5 -16 -20 -18
-156 -18 -135 0 -151 2 -156 17 -3 10 -12 18 -20 18 -8 0 -17 7 -20 15 -5 11
-23 15 -70 15 -48 0 -66 4 -70 15 -5 11 -24 15 -79 15 -66 0 -74 2 -80 21 -6
17 -13 20 -41 17 -26 -3 -35 0 -40 14 -3 11 -15 18 -30 18 -14 0 -27 7 -30 15
-9 22 -139 22 -148 0 -8 -21 -124 -21 -132 0 -4 8 -11 15 -18 15 -6 0 -17 9
-24 21 -9 13 -19 18 -32 14 -13 -4 -20 0 -25 15 -4 13 -15 20 -31 20 -14 0
-27 7 -30 15 -4 8 -12 15 -19 15 -7 0 -15 7 -19 15 -3 8 -16 15 -30 15 -16 0
-27 7 -31 21 -4 12 -13 18 -20 15 -8 -3 -17 3 -20 15 -4 10 -13 19 -21 19 -8
0 -17 7 -20 15 -4 8 -11 15 -18 15 -6 0 -17 9 -24 20 -7 12 -17 18 -22 15 -5
-3 -11 4 -15 15 -5 16 -15 20 -51 20 -30 0 -46 5 -50 15 -5 11 -23 15 -79 15
-56 0 -74 4 -79 15 -3 10 -19 15 -48 15 l-43 0 -60 100 -60 100 -46 0 c-33 0
-49 -5 -53 -15 -4 -11 -21 -15 -61 -15 l-55 0 0 -35 0 -35 59 0 c51 0 61 3 66
20 5 15 15 20 44 20 36 0 38 -2 96 -100 l60 -100 41 0 c28 0 44 -5 48 -15 4
-11 23 -15 80 -15 67 0 75 -2 81 -21 6 -18 13 -20 51 -17 35 2 45 0 50 -14 3
-10 12 -18 20 -18 8 0 17 -7 20 -15 4 -8 11 -15 18 -15 6 0 17 -9 24 -20 7
-12 17 -18 22 -15 5 3 11 -4 15 -15 3 -11 13 -20 21 -20 8 0 17 -7 20 -15 4
-8 16 -15 29 -15 13 0 25 -7 29 -15 3 -8 12 -15 20 -15 8 0 18 -9 21 -21 5
-16 13 -20 31 -16 17 3 25 -1 29 -14 4 -12 16 -19 31 -19 14 0 27 -7 30 -15 4
-8 11 -15 18 -15 6 0 17 -9 24 -20 18 -29 126 -29 144 0 19 30 118 29 136 -1
9 -13 20 -19 32 -16 13 3 21 -1 25 -14 5 -14 16 -19 41 -19 22 0 37 -6 40 -15
5 -11 23 -15 76 -15 55 0 74 -4 83 -17 10 -13 26 -16 73 -14 53 2 61 0 67 -18
3 -12 13 -21 21 -21 8 0 17 -7 20 -15 4 -8 13 -15 20 -15 8 0 17 -7 20 -15 4
-8 11 -15 18 -15 6 0 17 -9 24 -20 7 -12 17 -18 22 -15 5 3 11 -4 15 -15 5
-17 15 -20 61 -20 39 0 56 -4 60 -15 5 -11 24 -15 80 -15 57 0 76 -4 80 -15 4
-8 17 -15 29 -15 15 0 26 -8 30 -21 5 -16 13 -20 31 -16 17 3 25 -1 29 -14 5
-14 16 -19 41 -19 22 0 37 -6 40 -15 4 -8 17 -15 30 -15 13 0 28 -9 35 -21 7
-13 17 -19 29 -16 13 3 23 -5 36 -29 10 -19 24 -34 31 -34 6 0 24 -22 40 -50
15 -27 34 -50 41 -50 7 0 15 -7 18 -15 4 -8 16 -15 28 -15 12 0 27 -9 34 -21
10 -16 21 -20 43 -17 21 3 30 0 35 -14 3 -10 12 -18 20 -18 8 0 26 -22 42 -50
l27 -50 67 0 c56 0 68 3 72 18 5 16 15 18 65 14 52 -4 60 -2 70 17 10 17 21
21 65 21 39 0 55 4 60 15 4 11 21 15 60 15 46 0 56 3 61 20 8 26 22 26 30 0 4
-13 15 -20 31 -20 14 0 27 -7 30 -15 4 -10 20 -15 50 -15 34 0 46 -5 55 -21 9
-18 18 -21 60 -17 41 4 50 2 54 -13 5 -16 17 -19 71 -19 48 0 66 -4 70 -15 8
-21 100 -21 108 0 4 12 25 15 100 15 86 0 95 2 101 20 3 11 12 20 20 20 7 0
15 7 19 15 4 12 25 15 100 15 74 0 95 3 100 15 3 8 16 15 30 15 15 0 27 7 31
19 4 13 12 17 25 14 12 -3 23 3 32 16 10 16 23 21 60 21 46 0 47 -1 75 -50 25
-44 32 -50 60 -50 23 0 36 -6 44 -21 9 -18 18 -21 60 -17 41 4 50 2 54 -13 5
-16 17 -19 61 -19 39 0 56 -4 60 -15 4 -8 13 -15 20 -15 8 0 17 -7 20 -15 4
-8 11 -15 18 -15 6 0 17 -9 24 -20 7 -12 17 -18 22 -15 5 3 11 -4 15 -15 4
-13 15 -20 31 -20 14 0 27 -7 30 -15 9 -22 219 -22 228 0 3 8 16 15 30 15 15
0 27 7 31 19 4 13 12 17 25 14 12 -3 23 3 32 16 12 20 21 21 204 21 161 0 193
2 198 15 4 11 21 15 58 15 l53 0 48 83 c43 73 51 82 78 82 19 0 31 -6 35 -17
3 -10 12 -18 20 -18 8 0 17 -7 20 -15 4 -8 12 -15 20 -15 8 0 22 -16 31 -35
16 -33 20 -35 64 -35 39 0 49 4 54 20 5 15 12 19 25 15 13 -4 22 1 30 15 8 15
21 20 52 20 26 0 45 6 53 16 10 14 46 16 293 16 187 0 280 4 275 11 -3 5 0 8
8 5 8 -3 15 -10 15 -16 1 -7 2 -16 3 -22 0 -5 8 -10 16 -10 9 0 18 -7 21 -15
4 -8 11 -15 18 -15 6 0 17 -9 24 -20 7 -12 16 -19 20 -16 5 3 44 -55 88 -129
43 -74 84 -134 90 -134 7 -1 19 -12 28 -26 9 -14 23 -25 30 -25 8 0 21 -11 30
-25 11 -17 26 -25 46 -25 26 0 30 4 30 29 0 16 6 31 15 35 9 3 15 18 15 36 0
16 5 30 10 30 6 0 10 13 10 29 0 17 5 33 10 36 6 3 10 17 10 30 0 14 17 53 38
87 21 35 41 71 45 81 4 11 16 21 26 24 10 2 24 17 31 31 11 25 13 25 24 9 7
-9 23 -17 35 -17 12 0 24 -7 27 -15 4 -9 19 -15 40 -15 23 0 37 -6 44 -20 10
-18 21 -20 118 -20 l108 0 23 31 c14 19 21 40 18 55 -2 15 3 30 14 40 10 9 16
20 14 25 -7 10 77 99 93 99 7 0 12 7 12 15 0 8 7 15 15 15 8 0 19 9 25 20 6
11 15 18 20 15 5 -3 14 4 20 16 9 15 19 20 36 16 18 -3 24 0 24 14 0 15 7 17
54 12 46 -5 56 -3 76 17 15 15 29 20 45 16 18 -5 25 -1 30 14 3 11 10 20 15
20 5 0 18 15 30 34 l21 35 134 -3 c102 -1 136 1 139 11 3 7 12 13 21 13 8 0
15 9 15 19 0 11 5 23 10 26 6 3 10 1 10 -4 0 -24 32 -9 41 19 6 17 15 30 20
30 5 0 9 6 9 13 0 6 4 18 9 26 7 11 18 7 56 -19 25 -17 49 -38 52 -46 3 -8 9
-12 13 -9 5 3 11 -4 15 -15 5 -15 12 -19 26 -15 15 5 19 2 19 -14 0 -18 6 -21
41 -21 27 0 46 -6 53 -16 10 -13 35 -16 147 -16 l134 0 39 66 c39 64 41 66 80
66 l41 1 69 114 c37 63 74 115 81 115 7 0 15 7 19 15 3 8 11 15 18 15 8 0 22
16 32 35 11 19 24 35 30 35 6 0 42 52 80 115 38 63 74 115 80 115 6 0 19 14
28 30 9 17 24 30 32 30 8 0 18 9 21 20 3 11 12 20 18 20 23 0 87 119 87 160 0
21 5 42 10 45 6 3 10 17 10 30 0 13 5 27 10 30 6 3 10 19 10 35 0 16 5 32 10
35 6 3 10 17 10 30 0 22 135 256 152 263 5 2 8 17 8 32 0 16 5 32 10 35 6 3
10 26 10 50 0 24 5 47 10 50 6 3 10 16 10 28 0 12 9 37 20 55 11 18 20 41 20
52 0 10 5 22 10 25 6 3 10 19 10 35 0 16 5 32 10 35 6 3 10 33 10 65 0 32 5
62 10 65 6 3 10 32 10 64 0 46 6 66 30 104 17 26 30 55 30 64 0 17 32 73 142
251 32 51 58 104 58 118 0 13 5 24 10 24 6 0 10 13 10 29 0 17 5 33 10 36 6 3
10 18 10 33 0 15 9 38 20 52 11 14 20 37 20 52 0 15 5 30 10 33 6 3 10 17 10
30 0 13 5 27 10 30 6 3 10 19 10 34 0 24 3 28 24 24 18 -4 26 0 31 17 6 18 13
21 37 18 21 -4 33 0 41 14 7 10 16 18 22 18 12 0 41 53 49 92 3 15 13 33 21
42 8 8 15 26 15 40 0 14 5 28 10 31 6 3 10 18 10 33 0 15 9 38 20 52 11 14 20
35 20 48 0 12 6 22 14 22 8 0 17 9 21 19 3 12 12 18 20 15 7 -3 16 3 20 15 3
12 12 21 20 21 7 0 15 7 19 15 3 8 12 15 20 15 7 0 16 7 20 15 3 8 12 15 20
15 8 0 17 9 21 20 5 15 12 18 35 14 22 -5 31 -1 42 15 16 27 40 27 56 0 9 -13
19 -18 32 -14 13 4 20 0 25 -15 9 -29 81 -29 90 0 5 15 12 18 35 14 22 -5 31
-1 42 15 7 12 17 21 23 21 6 0 19 16 29 35 10 19 23 32 27 29 5 -3 23 18 40
46 17 27 37 50 44 50 8 0 17 9 20 20 3 11 13 20 21 20 8 0 17 7 20 15 4 8 12
15 19 15 7 0 15 7 19 15 7 19 45 19 52 0 9 -22 179 -22 188 0 3 10 19 15 46
15 35 0 40 -3 40 -22 0 -13 9 -34 20 -48 11 -14 20 -36 20 -50 0 -14 11 -38
25 -55 l25 -30 19 22 c12 15 30 23 49 23 17 0 32 6 36 15 3 9 18 15 40 15 21
0 36 6 40 15 3 10 19 15 46 15 27 0 43 -5 46 -15 5 -11 24 -15 80 -15 57 0 76
-4 80 -15 5 -11 23 -15 78 -15 61 0 73 -3 84 -21 11 -17 21 -20 63 -17 40 2
50 0 55 -14 3 -11 15 -18 30 -18 14 0 27 -7 30 -15 4 -9 19 -15 38 -15 21 0
35 -7 44 -21 9 -13 19 -18 32 -14 13 4 20 0 25 -15 6 -18 15 -20 85 -20 66 0
80 3 84 18 5 13 17 17 56 17 39 0 51 -4 56 -17 3 -10 12 -18 20 -18 8 0 17 -7
20 -15 4 -8 13 -15 20 -15 8 0 17 -7 20 -15 4 -8 12 -15 19 -15 8 0 17 -9 20
-21 4 -12 13 -18 20 -15 8 3 17 -3 20 -15 5 -14 15 -19 40 -19 21 0 38 -6 43
-16 6 -10 19 -14 38 -12 23 2 29 8 29 28 0 19 -6 26 -25 28 -13 2 -31 13 -38
24 -11 14 -23 19 -43 16 -21 -3 -30 0 -35 14 -3 10 -12 18 -20 18 -8 0 -17 7
-20 15 -4 8 -12 15 -19 15 -7 0 -15 7 -19 15 -3 8 -12 15 -20 15 -8 0 -18 9
-21 21 -4 12 -13 18 -20 15 -8 -3 -17 3 -20 15 -5 16 -16 19 -65 19 -47 0 -60
-3 -64 -17 -5 -15 -18 -18 -76 -18 -58 0 -71 3 -76 18 -3 10 -15 17 -30 17
-14 0 -27 7 -30 15 -4 9 -19 15 -38 15 -21 0 -35 7 -44 21 -9 13 -20 19 -32
16 -13 -3 -21 1 -25 14 -5 16 -16 19 -61 19 -39 0 -56 4 -60 15 -5 11 -23 15
-76 15 -56 0 -74 4 -84 17 -10 15 -25 17 -82 15 -64 -3 -71 -2 -77 17 -5 18
-14 21 -55 21 -41 0 -50 -3 -55 -21 -6 -17 -13 -20 -36 -15 -22 4 -32 1 -41
-14 -9 -13 -24 -20 -44 -20 -19 0 -34 -6 -38 -15 -8 -23 -26 -18 -26 8 0 12
-9 33 -20 47 -11 14 -20 36 -20 48 0 13 -9 37 -21 53 -16 24 -28 29 -60 29
-28 0 -42 -6 -51 -20 -11 -17 -24 -20 -88 -20 -64 0 -77 3 -88 20 -7 11 -21
20 -32 20 -11 0 -25 -9 -32 -20 -7 -11 -18 -20 -24 -20 -7 0 -14 -7 -18 -15
-3 -8 -12 -15 -20 -15 -7 0 -16 -7 -20 -15 -3 -8 -11 -15 -18 -15 -7 0 -26
-23 -41 -50 -16 -28 -34 -50 -40 -50 -7 0 -21 -16 -31 -35 -11 -19 -25 -35
-32 -35 -6 0 -14 -7 -18 -15 -3 -9 -18 -15 -40 -15 -24 0 -36 -5 -40 -17 -4
-12 -16 -18 -36 -18 -20 0 -32 6 -36 18 -3 10 -15 17 -30 17 -14 0 -27 7 -30
15 -8 20 -60 20 -68 0 -3 -9 -18 -15 -40 -15 -26 0 -36 -5 -41 -19 -3 -12 -12
-18 -20 -15 -7 3 -16 -3 -20 -15 -3 -12 -13 -21 -21 -21 -8 0 -17 -7 -20 -15
-4 -8 -12 -15 -19 -15 -7 0 -15 -7 -19 -15 -3 -8 -12 -15 -20 -15 -8 0 -18 -9
-21 -20 -4 -11 -10 -18 -15 -15 -12 8 -50 -49 -50 -77 0 -12 -9 -34 -20 -48
-11 -14 -20 -35 -20 -48 0 -12 -4 -30 -9 -40 -6 -9 -12 -29 -15 -44 -4 -15
-13 -33 -21 -42 -8 -8 -15 -26 -15 -40 0 -17 -6 -26 -15 -26 -9 0 -18 -7 -21
-15 -4 -9 -19 -15 -39 -15 -20 0 -35 -6 -39 -15 -4 -12 -33 -15 -170 -15 -148
0 -165 -2 -170 -17 -5 -16 -21 -18 -136 -18 -115 0 -131 2 -136 18 -5 15 -24
17 -210 17 -173 0 -206 2 -210 15 -5 11 -21 15 -60 15 -39 0 -56 4 -60 15 -4
9 -19 15 -38 15 -21 0 -35 7 -44 21 -10 16 -21 20 -43 17 -21 -3 -30 0 -35 14
-4 14 -16 18 -50 18 -30 0 -46 5 -50 15 -5 13 -35 15 -184 15 -149 0 -179 -2
-184 -15 -4 -12 -24 -15 -90 -15 -72 0 -85 -3 -90 -17 -5 -14 -17 -18 -56 -18
-39 0 -51 4 -56 18 -3 9 -12 17 -20 17 -8 0 -17 7 -20 15 -4 8 -12 15 -20 15
-8 0 -22 16 -31 35 -9 19 -23 35 -30 35 -8 0 -16 7 -19 15 -4 8 -13 15 -20 15
-8 0 -17 7 -20 15 -4 8 -11 15 -18 15 -6 0 -17 9 -24 20 -7 12 -17 18 -22 15
-5 -3 -11 4 -15 15 -6 19 -15 20 -185 20 -170 0 -179 -1 -185 -20 -8 -26 -22
-26 -30 0 -3 11 -13 20 -20 20 -18 0 -95 129 -95 157 0 12 -4 25 -10 28 -5 3
-10 19 -10 35 0 16 -4 32 -10 35 -5 3 -10 26 -10 50 0 24 -4 47 -10 50 -5 3
-10 26 -10 51 0 24 -4 44 -10 44 -6 0 -10 28 -10 64 0 36 -4 68 -10 71 -5 3
-10 15 -10 25 0 25 -32 80 -47 80 -17 0 -133 196 -133 225 0 13 -4 27 -10 30
-5 3 -10 17 -10 30 0 13 -4 27 -10 30 -5 3 -10 19 -10 35 0 16 -4 32 -10 35
-5 3 -10 26 -10 50 0 24 -4 47 -10 50 -5 3 -10 19 -10 36 0 16 -3 29 -7 29 -5
0 -30 39 -58 85 -27 47 -55 85 -61 85 -6 0 -19 16 -30 35 -10 19 -24 35 -30
35 -7 0 -22 16 -35 36 -15 25 -27 34 -40 31 -12 -3 -20 2 -24 14 -4 10 -13 19
-21 19 -8 0 -17 7 -20 15 -4 8 -13 15 -20 15 -8 0 -17 7 -20 15 -4 8 -12 15
-19 15 -8 0 -17 9 -20 21 -4 11 -12 18 -19 16 -7 -3 -21 8 -30 24 -11 19 -25
29 -42 29 -21 0 -24 5 -24 34 0 24 -5 35 -18 38 -15 4 -18 12 -14 37 4 27 1
33 -17 38 -12 3 -21 13 -21 24 0 11 -7 19 -15 19 -8 0 -15 9 -15 20 0 11 -7
20 -15 20 -8 0 -15 7 -15 15 0 8 -9 19 -20 25 -11 6 -20 17 -20 25 0 8 -7 15
-15 15 -12 0 -15 13 -15 60 0 47 3 60 15 60 12 0 15 16 15 80 0 64 -3 80 -15
80 -9 0 -15 9 -15 25 0 18 -5 25 -20 25 -14 0 -20 -7 -20 -21z m-72 -2284 c-4
-19 0 -26 22 -34 24 -8 29 -6 39 15 7 16 19 24 37 24 23 0 25 -3 23 -34 -4
-41 6 -57 16 -27 8 25 43 28 52 5 3 -9 0 -20 -8 -25 -11 -7 -10 -11 6 -23 30
-23 54 -20 48 4 -4 16 0 20 21 20 15 0 26 6 26 13 0 7 6 25 13 40 9 21 19 27
46 27 19 0 42 -7 51 -15 10 -9 40 -18 69 -22 38 -4 51 -10 51 -22 0 -12 5 -10
18 7 16 20 24 23 55 17 41 -8 47 -22 17 -48 -21 -18 -27 -47 -10 -47 6 0 10
-7 10 -15 0 -8 -7 -15 -15 -15 -8 0 -15 6 -15 14 0 16 -21 26 -53 26 -20 0
-20 -1 -2 -14 23 -16 14 -43 -17 -55 -13 -5 -42 -27 -66 -49 -34 -31 -54 -42
-92 -47 -27 -4 -63 -18 -81 -31 -18 -13 -41 -24 -51 -24 -9 0 -33 -13 -51 -30
-38 -33 -55 -37 -63 -15 -5 13 -8 13 -27 0 -31 -22 -52 -19 -91 15 -28 25 -43
31 -87 32 -42 0 -57 6 -75 25 -19 20 -26 23 -43 14 -33 -18 -48 -13 -70 25
-16 26 -27 35 -43 32 -27 -4 -37 -37 -15 -49 9 -6 17 -32 22 -74 6 -56 9 -65
27 -65 18 0 19 -4 14 -36 -5 -22 -3 -41 5 -50 10 -12 3 -14 -44 -14 -45 0 -58
4 -67 19 -5 11 -23 32 -38 48 -29 28 -29 29 -28 148 1 70 7 129 14 141 10 19
9 23 -8 27 -30 8 -25 37 5 37 14 0 25 -4 25 -9 0 -5 11 -12 25 -15 31 -8 61
20 57 52 -3 18 1 22 22 22 19 0 26 5 26 19 0 27 26 44 55 37 14 -3 36 -9 50
-12 19 -5 25 -2 25 10 0 14 8 15 54 10 35 -4 56 -3 60 5 4 6 19 11 33 11 22 0
25 -4 21 -25z m712 -70 c0 -29 4 -35 21 -35 33 0 22 -44 -12 -48 -17 -2 -29
-11 -32 -24 -5 -17 -11 -20 -35 -15 -23 5 -31 2 -34 -11 -3 -9 -25 -27 -50
-39 -25 -13 -65 -40 -89 -60 -120 -103 -159 -123 -159 -84 0 20 92 111 112
111 8 0 36 23 63 50 39 40 56 50 82 50 18 0 33 5 33 10 0 6 14 10 30 10 17 0
30 5 30 10 0 6 -7 10 -15 10 -20 0 -19 21 3 64 23 48 52 48 52 1z m-1259 -19
c9 -18 7 -30 -6 -55 -9 -18 -23 -35 -31 -38 -7 -3 -14 -17 -14 -32 0 -14 -9
-53 -19 -86 -15 -48 -23 -61 -42 -63 -14 -3 -28 3 -36 14 -13 18 -15 17 -37
-10 -19 -25 -28 -28 -54 -23 -28 6 -34 2 -59 -33 -32 -46 -54 -50 -81 -16
l-19 25 -22 -30 c-25 -34 -47 -37 -56 -9 -10 31 -53 16 -102 -36 -23 -24 -53
-46 -66 -49 -19 -5 -26 -15 -30 -41 -3 -19 -13 -41 -22 -50 -9 -9 -14 -21 -12
-27 2 -7 -17 -22 -43 -34 -25 -12 -54 -31 -64 -42 -25 -27 -164 -77 -177 -64
-8 8 -8 17 0 31 6 12 13 47 15 79 7 94 32 146 158 328 4 5 36 9 70 8 44 -1 56
1 38 7 -24 8 -23 8 8 9 18 1 41 10 52 21 11 11 23 20 26 20 3 0 30 25 59 55
57 57 77 65 111 40 12 -8 39 -18 61 -23 32 -7 45 -6 63 8 l23 18 -24 7 c-13 4
-27 13 -31 19 -5 8 -11 7 -20 -2 -13 -13 -46 -16 -72 -6 -23 9 -20 24 4 24 11
0 20 5 20 10 0 13 66 13 91 -1 16 -8 29 -7 54 6 33 15 79 13 90 -5 7 -12 77 1
93 17 7 7 20 13 28 13 8 0 14 6 14 14 0 14 14 24 38 25 7 1 17 -10 23 -23z
m1379 -55 c0 -5 8 -11 18 -15 9 -3 24 -9 32 -14 8 -5 42 -22 75 -37 l59 -27
17 21 c10 12 27 21 38 21 17 0 21 -7 22 -37 1 -21 3 -30 6 -20 4 14 16 17 64
17 51 0 59 -3 59 -19 0 -14 6 -17 24 -14 15 3 31 -2 43 -14 11 -11 25 -17 32
-15 7 2 23 0 34 -6 12 -6 30 -13 40 -16 9 -3 17 -12 17 -21 0 -8 5 -15 10 -15
6 0 10 -7 10 -15 0 -8 -7 -15 -15 -15 -8 0 -15 7 -15 15 0 11 -12 15 -44 15
-24 0 -50 2 -58 3 -7 2 -10 2 -5 0 16 -10 5 -29 -29 -51 -20 -13 -42 -21 -50
-18 -8 3 -14 -1 -14 -9 0 -8 -9 -15 -20 -15 -19 0 -82 -28 -182 -81 -20 -10
-44 -19 -52 -19 -8 0 -30 -8 -48 -19 -48 -27 -133 -36 -160 -16 -27 18 -79 20
-97 3 -10 -11 -15 -10 -24 3 -19 25 -46 30 -72 13 -15 -10 -25 -12 -30 -5 -3
6 -27 20 -52 32 -44 20 -48 20 -88 4 -24 -9 -46 -23 -49 -32 -10 -26 26 -76
62 -87 27 -8 38 -5 69 17 44 31 56 27 47 -18 -7 -39 6 -51 38 -34 19 10 24 8
40 -11 22 -28 17 -33 -44 -50 -48 -13 -48 -13 -87 23 -56 51 -93 67 -149 67
-73 0 -83 17 -48 83 58 111 71 126 184 219 100 81 163 120 186 114 11 -3 27 5
42 21 20 22 30 25 61 20 21 -4 56 -19 78 -35 23 -16 55 -32 73 -35 28 -6 32
-4 32 14 0 12 -4 17 -11 14 -15 -10 -99 17 -99 32 0 8 -12 13 -30 13 -38 0
-39 20 -2 42 29 19 62 23 62 9z m-2390 -19 c0 -5 -6 -16 -13 -26 -16 -22 -10
-66 8 -66 8 0 16 -8 18 -17 3 -12 5 -10 6 7 0 14 10 31 21 38 11 7 20 20 20
30 1 15 2 14 12 -3 6 -11 16 -23 22 -27 8 -6 7 -11 -3 -17 -9 -6 -10 -11 -2
-15 6 -4 11 -1 11 6 1 8 6 6 15 -6 17 -22 11 -58 -16 -98 -11 -14 -19 -32 -19
-40 0 -8 -12 -25 -26 -39 -14 -13 -31 -38 -38 -54 -13 -30 -48 -69 -122 -135
-21 -19 -44 -44 -51 -55 -11 -19 -12 -19 -43 -2 -31 17 -32 17 -63 -8 -18 -14
-39 -32 -48 -40 -9 -8 -23 -15 -32 -15 -21 0 -22 33 -2 50 17 14 20 46 5 55
-5 3 -10 20 -10 37 0 21 -6 31 -20 35 -23 6 -25 19 -5 53 8 14 14 36 15 51 0
14 5 30 12 37 24 24 37 13 41 -35 3 -40 4 -37 5 19 1 37 7 70 12 73 6 3 10 15
10 26 0 22 22 49 39 49 18 0 13 -112 -5 -139 -12 -17 -13 -26 -5 -34 8 -8 11
-5 11 10 0 12 5 25 10 28 6 3 10 34 10 68 0 70 15 96 67 116 17 7 34 19 37 27
3 8 11 14 17 14 7 0 8 -4 2 -12 -5 -7 -6 -26 -2 -43 l7 -30 1 33 c1 25 6 35
21 39 11 3 20 14 20 24 0 11 7 19 15 19 8 0 15 5 15 10 0 6 5 10 10 10 6 0 10
-4 10 -8z m-370 -234 c0 -11 -8 -22 -20 -25 -13 -4 -22 -17 -26 -42 -3 -20
-10 -54 -14 -76 -6 -25 -5 -42 1 -46 6 -3 9 -17 7 -30 -2 -17 -9 -24 -27 -24
-24 0 -60 -52 -61 -87 0 -11 -8 -18 -20 -18 -18 0 -20 6 -19 68 1 81 22 126
57 119 21 -4 22 -1 22 54 0 66 21 112 59 126 32 12 41 8 41 -19z m3320 -12 c0
-17 -43 -46 -68 -46 -11 0 -25 -7 -32 -15 -16 -19 -2 -19 45 1 21 9 49 14 62
11 14 -3 23 1 23 8 0 14 22 25 51 25 32 0 24 -38 -8 -43 -16 -3 -4 -3 24 -2
29 2 55 -1 58 -6 4 -5 14 -9 23 -9 9 0 28 -9 42 -20 14 -11 32 -20 41 -20 20
0 69 -23 69 -32 0 -5 18 -8 40 -8 33 0 40 3 40 20 0 15 7 20 25 20 32 0 45
-28 22 -45 -21 -15 -22 -31 -1 -39 27 -10 34 -7 34 19 0 20 5 25 25 25 28 0
43 -23 27 -43 -6 -6 -12 -23 -14 -37 -3 -23 -7 -25 -46 -22 -28 2 -41 -1 -37
-8 3 -5 15 -10 26 -10 10 0 19 -4 19 -9 0 -4 27 -14 60 -21 47 -10 60 -17 60
-31 0 -11 -4 -19 -10 -19 -14 0 -13 -33 1 -47 19 -19 2 -43 -31 -43 -33 0 -43
25 -12 33 13 4 13 5 -4 6 -16 1 -23 -6 -27 -29 -11 -53 -103 -72 -302 -62 -33
2 -74 0 -91 -4 -21 -4 -40 -1 -55 9 -34 21 -267 43 -283 26 -8 -8 -8 -13 1
-16 24 -9 58 -41 51 -49 -4 -3 -30 3 -57 15 -27 11 -65 21 -84 21 -19 0 -40 7
-47 16 -8 8 -28 21 -46 29 -18 7 -62 36 -97 64 -53 41 -72 50 -103 49 -33 0
-67 6 -142 28 -7 2 -10 8 -7 14 4 6 12 7 22 2 10 -6 33 -2 64 9 27 11 62 19
77 19 25 1 82 39 82 57 0 4 37 28 81 53 44 25 103 60 130 78 27 17 55 32 62
32 8 0 36 9 61 21 26 11 54 18 62 15 8 -3 14 1 14 9 0 11 11 15 40 15 27 0 40
-4 40 -14z m-3470 -91 c0 -14 -5 -25 -11 -25 -17 0 -38 -32 -39 -57 0 -14 -6
-23 -16 -23 -14 0 -14 -2 0 -22 12 -16 16 -47 16 -113 0 -49 5 -141 10 -204
l10 -115 -32 -33 c-19 -20 -26 -31 -15 -27 30 11 45 -14 52 -86 5 -55 3 -76
-10 -102 -16 -32 -16 -33 9 -55 15 -12 26 -27 26 -33 0 -7 -16 -30 -35 -53
-21 -24 -42 -65 -51 -97 -19 -64 -28 -76 -68 -86 -27 -6 -28 -6 -16 16 15 27
1 45 -28 36 -14 -5 -27 -24 -37 -57 -9 -27 -26 -54 -37 -60 -11 -6 -26 -25
-33 -43 -7 -17 -23 -40 -35 -51 -26 -24 -85 -44 -109 -38 -11 3 -27 -4 -39
-17 -15 -16 -26 -20 -42 -15 -19 6 -21 12 -16 44 3 20 13 41 21 47 14 10 13
14 -10 32 -25 20 -34 65 -15 77 18 11 11 23 -10 18 -23 -6 -28 15 -8 35 9 9 8
12 -5 12 -9 0 -17 7 -17 15 0 7 -7 18 -17 23 -20 12 -10 42 14 42 24 0 56 -38
49 -56 -4 -10 2 -14 18 -14 18 0 27 -8 35 -30 5 -16 12 -30 15 -30 12 0 5 39
-9 54 -8 8 -15 18 -15 23 0 4 -16 23 -35 42 -19 19 -35 40 -35 48 0 7 -9 21
-20 30 -26 23 -26 43 1 43 14 0 24 -10 32 -30 11 -28 37 -42 37 -20 0 6 -4 10
-10 10 -5 0 -10 11 -10 25 0 14 -4 25 -9 25 -19 0 -41 32 -41 61 0 19 -5 29
-15 29 -11 0 -14 12 -12 55 2 45 0 56 -15 61 -22 7 -24 30 -3 38 8 3 15 11 15
18 0 10 -3 9 -9 -1 -13 -21 -41 -5 -41 22 0 29 22 50 47 45 12 -2 18 -12 18
-31 -1 -19 4 -27 17 -27 11 0 18 -7 18 -20 0 -12 7 -20 16 -20 12 0 15 -6 10
-25 -5 -18 -2 -25 9 -25 8 0 15 -9 15 -19 0 -14 5 -18 20 -14 17 5 17 7 5 20
-8 8 -15 23 -15 33 0 10 -7 25 -15 33 -8 8 -19 36 -26 61 -6 25 -15 49 -20 52
-5 3 -9 25 -9 48 0 37 4 45 22 50 18 4 20 8 10 18 -18 18 -14 38 8 38 13 0 20
-7 20 -20 0 -11 7 -23 15 -26 21 -8 19 -51 -2 -63 -17 -9 -17 -10 0 -16 9 -4
17 -16 17 -26 0 -11 7 -22 15 -25 8 -4 15 -17 15 -30 0 -13 5 -24 10 -24 6 0
10 -9 10 -19 0 -10 7 -21 15 -25 9 -3 15 -19 16 -43 0 -21 4 -47 9 -58 7 -17
9 -15 9 11 1 24 7 34 24 39 19 6 19 8 5 12 -10 2 -18 13 -18 23 0 10 -4 22
-10 25 -5 3 -10 17 -10 31 0 15 -6 24 -15 24 -10 0 -15 10 -15 33 0 58 -12
107 -26 107 -8 0 -14 10 -14 24 0 13 -7 26 -15 30 -19 7 -20 42 -1 49 11 5 13
19 9 62 -6 52 -4 57 13 53 14 -2 19 -12 20 -41 0 -21 6 -43 12 -49 15 -15 16
-48 2 -48 -5 0 -10 -4 -10 -10 0 -5 7 -10 15 -10 9 0 15 -9 15 -24 0 -27 18
-45 29 -29 3 6 13 13 21 16 12 4 11 6 -2 6 -11 1 -18 9 -18 20 0 11 -4 23 -10
26 -5 3 -10 14 -10 25 0 10 -7 20 -15 24 -11 4 -15 21 -15 68 0 69 16 111 43
116 15 3 16 -6 15 -77 -1 -44 1 -83 5 -87 4 -4 7 -18 7 -31 0 -14 6 -23 15
-23 9 0 15 -9 15 -25 0 -30 20 -33 38 -5 7 11 8 20 3 20 -5 0 -12 18 -16 39
-4 27 -13 41 -26 44 -14 4 -19 14 -19 41 0 36 15 47 36 26 7 -7 19 -7 35 -1
21 9 21 10 4 10 -23 1 -45 58 -45 116 0 28 4 35 20 35 16 0 20 -7 20 -35 0
-22 6 -38 15 -41 8 -4 15 -17 15 -30 0 -15 6 -24 15 -24 17 0 20 25 5 35 -5 3
-10 22 -10 41 0 19 -4 34 -10 34 -5 0 -10 7 -10 16 0 12 7 14 30 9 29 -6 30
-5 30 29 0 26 5 36 20 41 40 13 54 -23 23 -57 -15 -17 -15 -19 0 -36 11 -12
17 -36 17 -69 0 -28 6 -55 13 -61 9 -8 13 14 15 106 2 64 5 118 7 120 2 2 19
-1 39 -6 32 -9 36 -8 36 9 0 10 7 19 15 19 9 0 15 -9 15 -25z m1378 -7 c19
-19 14 -44 -13 -62 -33 -21 -47 -51 -56 -112 -5 -40 -48 -152 -66 -173 -2 -3
-38 -6 -81 -8 -42 -2 -103 -12 -135 -23 -31 -11 -66 -20 -77 -20 -11 0 -43 -9
-72 -21 -29 -11 -80 -24 -113 -29 -33 -4 -78 -15 -101 -23 -22 -9 -62 -17 -90
-19 l-49 -3 3 50 c3 32 11 58 23 71 10 11 19 25 19 30 0 19 55 50 165 94 61
23 124 51 141 61 16 10 55 25 85 33 56 14 137 44 154 56 6 4 28 11 50 14 75
13 115 27 115 39 0 13 57 55 76 56 5 1 15 -4 22 -11z m470 -84 c103 -3 212
-12 242 -19 30 -7 76 -16 101 -19 26 -4 54 -15 64 -26 16 -17 16 -19 -2 -28
-10 -5 -45 -15 -78 -22 -130 -26 -217 -80 -230 -142 -9 -38 -18 -41 -62 -23
l-37 16 29 24 c17 13 34 24 38 25 15 0 137 113 137 127 0 7 -9 13 -21 13 -24
0 -119 -29 -135 -42 -23 -17 -333 -27 -413 -13 -29 6 -33 9 -28 33 11 58 -19
70 -54 21 -16 -23 -24 -28 -30 -17 -14 21 -10 44 10 69 17 21 31 25 108 30 48
4 107 5 131 3 24 -2 128 -7 230 -10z m615 -124 c9 -8 -3 -25 -58 -87 -29 -32
-33 -34 -105 -34 -55 -1 -90 -7 -130 -24 -68 -29 -99 -33 -127 -17 -47 26 -16
75 67 108 125 50 325 80 353 54z m272 -81 c5 -5 34 -9 65 -9 55 0 172 -31 197
-52 7 -6 13 -16 13 -23 0 -18 -104 -65 -142 -65 -18 0 -41 -9 -54 -21 -15 -14
-29 -19 -43 -14 -32 10 -25 20 22 32 46 13 116 61 117 81 0 13 -14 11 -107
-14 -29 -8 -64 -12 -78 -8 -14 3 -51 3 -82 -1 -43 -5 -63 -13 -82 -34 -23 -24
-30 -26 -58 -19 -45 12 -42 33 15 86 63 60 115 84 167 76 22 -3 44 -10 50 -15z
m405 -160 c41 -6 78 -13 82 -15 15 -9 39 -66 35 -79 -11 -26 -118 -35 -146
-12 -18 15 -81 37 -107 37 -18 0 -105 58 -93 61 74 18 118 26 134 23 11 -2 54
-9 95 -15z m987 -15 c75 -33 83 -38 83 -51 0 -7 -9 -13 -20 -13 -22 0 -26 -20
-9 -37 14 -14 39 -6 39 13 0 10 12 14 38 14 50 0 82 -10 82 -25 0 -8 14 -12
38 -11 34 1 37 -1 37 -26 1 -15 4 -30 8 -34 14 -14 7 -34 -13 -34 -11 0 -20 7
-20 15 0 8 -7 15 -15 15 -8 0 -15 5 -15 10 0 6 -11 10 -25 10 -14 0 -34 9 -45
20 -21 21 -40 26 -40 11 0 -5 29 -23 65 -40 36 -16 65 -34 65 -39 0 -6 14 -12
30 -14 20 -3 30 0 30 9 0 8 12 13 30 13 23 0 30 4 30 20 0 13 7 20 20 20 13 0
20 -7 20 -20 0 -13 -7 -20 -20 -20 -11 0 -20 -7 -20 -14 0 -24 -45 -66 -71
-66 -40 0 -69 11 -69 26 0 8 -10 14 -25 14 -14 0 -34 9 -45 20 -15 15 -20 16
-20 6 0 -8 -3 -21 -6 -30 -4 -11 0 -16 14 -16 12 0 24 -4 27 -10 3 -5 15 -10
27 -10 17 0 20 -5 16 -30 -3 -16 -1 -30 4 -30 4 0 8 5 8 10 0 6 14 10 31 10
28 0 31 -3 27 -25 -4 -21 1 -28 29 -42 19 -9 37 -23 40 -31 8 -20 -17 -34 -49
-28 -47 9 -31 -11 37 -45 53 -26 65 -37 63 -53 -2 -17 -10 -21 -40 -20 -21 1
-35 -3 -32 -7 3 -5 16 -9 30 -9 15 0 24 -6 24 -15 0 -13 -23 -15 -167 -11 -93
2 -179 7 -193 11 -17 4 -35 24 -57 63 -53 96 -120 155 -226 198 -55 23 -74 37
-107 80 -38 50 -121 104 -161 104 -9 0 -22 7 -29 15 -10 12 -8 16 14 25 14 5
39 7 56 4 30 -6 87 3 77 12 -15 15 -148 34 -198 29 -51 -5 -59 -3 -100 27 -37
28 -41 33 -23 36 11 2 40 -2 65 -8 66 -17 210 -32 239 -25 14 4 79 10 145 15
66 5 138 13 160 18 59 14 70 14 112 -4z m-3812 -41 c-10 -38 -11 -122 -2 -153
14 -46 -9 -61 -80 -54 -79 9 -87 29 -43 106 16 29 34 63 39 74 12 27 49 54 74
54 16 0 18 -5 12 -27z m690 -24 c5 -5 11 -38 13 -73 l4 -64 -47 -21 c-63 -28
-91 -27 -111 4 -12 18 -22 23 -42 19 -21 -3 -36 4 -64 31 -21 19 -38 39 -38
44 0 11 83 47 152 66 53 14 114 12 133 -6z m1580 -48 c33 -14 46 -30 73 -82
31 -64 38 -106 23 -159 -6 -21 7 -38 104 -135 163 -163 215 -275 216 -461 0
-100 -12 -161 -47 -241 -88 -202 -323 -397 -583 -482 -35 -11 -70 -26 -77 -32
-7 -5 -18 -9 -26 -8 -7 2 -35 -1 -63 -4 -198 -29 -472 -25 -583 8 -80 24 -192
65 -224 81 -14 8 -37 14 -50 14 -77 1 -294 154 -381 268 -63 84 -87 128 -114
217 -96 312 71 627 436 819 193 101 495 157 731 136 151 -13 146 -14 160 20
13 32 13 32 75 36 46 3 265 20 280 22 6 1 28 -7 50 -17z m-1890 -56 c17 -16
25 -35 25 -58 0 -19 7 -40 15 -47 41 -34 0 -132 -62 -149 -64 -18 -77 -14
-110 32 -17 23 -42 47 -55 53 -12 6 -51 24 -85 39 -35 16 -63 32 -63 35 0 20
107 82 180 105 73 22 127 19 155 -10z m2807 -35 c16 -19 41 -47 55 -62 13 -15
22 -32 18 -38 -3 -5 -31 -22 -62 -36 -45 -22 -57 -24 -64 -13 -7 11 -12 12
-28 2 -16 -10 -22 -8 -39 10 -10 12 -22 35 -26 50 -4 17 -17 32 -34 38 -51 21
-77 38 -77 51 0 22 66 38 148 35 76 -2 80 -3 109 -37z m-3116 -111 c19 -11 43
-34 54 -50 19 -26 20 -34 11 -84 -11 -56 -24 -85 -66 -144 -14 -19 -25 -42
-25 -51 0 -29 -46 -123 -79 -160 l-31 -35 -41 45 c-134 144 -174 181 -193 178
-16 -2 -21 -10 -21 -33 0 -26 -3 -30 -24 -27 -134 15 14 225 243 346 79 41
123 45 172 15z m3399 -63 c19 -8 35 -21 35 -28 0 -7 24 -34 52 -59 l53 -46
-14 -54 c-27 -105 -19 -98 -116 -97 -63 1 -85 5 -85 14 0 17 -24 29 -72 38
-25 5 -44 16 -58 36 -23 33 -52 119 -44 132 7 10 100 58 134 69 40 12 78 10
115 -5z m587 -261 c3 -3 43 -7 89 -9 88 -4 139 -20 139 -43 0 -24 -32 -27 -69
-7 -29 16 -44 18 -76 11 -71 -15 -245 5 -245 29 0 9 19 14 63 17 34 2 69 4 78
5 9 1 18 0 21 -3z m-4385 -83 c73 -59 163 -151 163 -167 0 -32 -56 -2 -79 43
-13 24 -41 30 -41 9 0 -7 18 -33 40 -57 50 -55 59 -85 34 -106 -73 -59 -205
-58 -254 1 -8 10 -11 49 -9 128 4 106 6 116 32 150 15 20 36 37 47 37 10 0 40
-17 67 -38z m3538 -18 c14 -22 22 -25 51 -21 27 5 36 2 45 -14 5 -11 7 -29 4
-39 -5 -16 -2 -20 19 -20 14 0 44 7 66 16 36 15 41 15 55 0 9 -9 32 -16 51
-16 19 0 49 -7 65 -16 25 -12 30 -20 24 -37 -4 -12 -12 -43 -18 -69 -7 -25
-22 -57 -35 -70 -12 -14 -22 -31 -22 -40 0 -13 -11 -15 -67 -11 -62 5 -70 3
-94 -19 -23 -22 -39 -26 -115 -31 -49 -3 -91 -3 -94 -1 -2 3 10 48 28 102 36
108 43 207 17 252 -30 52 -12 82 20 34z m790 -45 c50 -6 114 -13 143 -16 32
-3 52 -10 52 -17 0 -8 10 -11 30 -8 33 5 39 -12 20 -49 -15 -27 -36 -24 -80
11 -41 33 -65 37 -93 16 -17 -13 -15 -15 19 -37 25 -15 53 -23 89 -23 57 -1
95 -24 95 -58 0 -24 -19 -23 -47 3 -18 18 -25 20 -38 9 -19 -16 -19 -36 0 -44
28 -10 17 -36 -16 -36 l-31 0 30 -25 c17 -14 39 -25 51 -25 31 0 26 -28 -6
-32 -22 -2 -29 -10 -36 -41 -12 -50 -38 -63 -89 -46 -27 9 -42 9 -49 2 -8 -8
-5 -13 10 -18 12 -3 21 -11 21 -16 0 -5 13 -9 29 -9 35 0 61 -9 61 -21 0 -5
-10 -19 -21 -30 -20 -20 -25 -21 -78 -9 -31 7 -69 19 -86 27 -21 11 -26 11
-17 2 6 -7 12 -26 12 -43 0 -16 5 -44 12 -62 9 -26 18 -33 47 -37 58 -8 111
-31 117 -49 3 -10 10 -18 15 -18 5 0 9 -13 9 -30 0 -25 -4 -30 -25 -30 -14 0
-25 5 -25 10 0 6 -7 10 -15 10 -20 0 -19 -12 5 -38 11 -12 20 -29 20 -38 0
-14 -7 -16 -37 -11 -33 5 -36 4 -20 -7 9 -7 17 -20 17 -29 0 -9 5 -19 10 -22
6 -3 10 -17 10 -31 0 -15 6 -24 15 -24 8 0 15 -9 15 -20 0 -10 7 -23 17 -28
19 -11 12 -39 -12 -48 -18 -7 -44 21 -45 47 0 9 -7 19 -15 23 -8 3 -15 16 -15
30 0 13 -7 26 -15 30 -8 3 -15 15 -15 26 0 11 -4 20 -10 20 -15 0 -12 -40 4
-46 8 -3 16 -27 20 -55 4 -30 13 -52 21 -56 9 -3 15 -18 15 -34 0 -42 -26 -37
-71 14 -35 37 -39 40 -39 19 0 -12 7 -25 15 -28 25 -10 18 -44 -9 -44 -13 0
-26 6 -28 12 -3 9 -33 13 -99 14 -103 0 -203 24 -278 65 -24 13 -64 34 -89 47
-24 13 -51 29 -59 37 -17 18 -29 19 -39 4 -8 -13 33 -48 56 -49 8 0 61 -23
117 -51 113 -55 131 -79 60 -79 -48 0 -169 54 -201 89 -11 12 -27 21 -38 21
-10 0 -18 4 -18 9 0 10 -124 91 -140 91 -20 0 -9 -16 44 -62 30 -27 63 -48 74
-48 11 0 25 -7 32 -14 6 -8 33 -22 58 -30 30 -10 57 -29 75 -51 15 -19 35 -35
44 -35 8 0 54 -17 102 -39 47 -21 101 -42 118 -46 18 -3 39 -15 46 -25 7 -10
24 -20 37 -22 19 -2 28 -13 38 -43 7 -22 17 -42 21 -45 5 -3 10 -41 12 -85 5
-93 -12 -109 -40 -38 -23 60 -35 69 -51 38 -8 -16 -22 -25 -37 -25 -14 0 -23
-6 -23 -15 0 -8 -4 -15 -10 -15 -5 0 -10 7 -10 15 0 28 -43 15 -98 -30 -59
-49 -86 -56 -102 -25 -17 33 -26 23 -25 -30 0 -45 -2 -50 -22 -50 -13 0 -23 5
-23 10 0 6 -6 10 -14 10 -8 0 -17 6 -19 13 -4 7 -6 6 -6 -4 -1 -23 -22 -29
-106 -29 -60 0 -76 -3 -85 -17 -8 -13 -13 -14 -16 -5 -3 6 -12 12 -20 12 -8 0
-14 -6 -13 -12 1 -7 -1 -20 -4 -28 -3 -8 -7 -24 -9 -34 -3 -18 -7 -17 -39 12
-20 18 -41 32 -47 32 -6 0 -17 8 -24 18 -7 9 -20 23 -29 29 -13 11 -15 9 -15
-10 2 -58 -112 2 -148 78 -9 19 -34 55 -56 80 -55 64 -67 117 -20 87 30 -18
24 0 -10 33 -16 16 -30 33 -30 39 0 5 -10 20 -22 33 -18 19 -20 28 -12 41 6 9
20 18 30 20 87 15 254 144 356 276 37 47 37 49 18 65 -12 10 -20 32 -22 61 -3
42 -1 45 28 55 62 21 168 92 215 144 26 29 53 51 60 49 8 -3 -4 -22 -34 -54
-26 -27 -50 -57 -53 -66 -3 -10 -9 -18 -14 -18 -12 0 -64 -69 -57 -76 11 -12
44 17 112 96 39 46 78 91 87 101 9 10 27 37 39 61 22 45 86 118 103 118 5 0
33 -11 62 -25 29 -14 84 -29 124 -35 39 -5 87 -17 108 -25 l37 -15 -25 20
c-14 11 -34 20 -45 20 -11 0 -31 7 -45 15 -48 27 -86 42 -137 54 -29 7 -53 16
-53 19 0 3 27 33 60 68 68 70 120 172 120 234 0 44 31 75 65 65 11 -3 61 -11
110 -16z m-3676 -208 c7 -16 10 -44 6 -62 -5 -30 2 -121 21 -246 6 -39 5 -43
-15 -43 -18 0 -21 -5 -19 -27 2 -17 -2 -28 -9 -28 -19 0 -95 96 -89 112 3 8
12 58 20 112 15 97 50 211 66 211 4 0 13 -13 19 -29z m-908 -67 c5 -15 7 -35
4 -44 -4 -13 5 -24 32 -41 92 -55 100 -80 54 -170 -17 -33 -31 -82 -35 -119
-4 -37 -19 -87 -35 -119 -16 -31 -26 -62 -24 -69 7 -20 -25 -62 -47 -62 -11 0
-20 7 -20 15 0 9 -8 18 -17 22 -51 17 -123 57 -123 68 0 7 -9 11 -23 8 -13 -3
-30 2 -38 9 -23 23 -44 27 -93 16 -40 -8 -50 -7 -66 7 -14 13 -28 15 -64 10
-45 -7 -46 -7 -46 19 0 27 1 27 57 24 51 -3 58 -1 61 17 3 11 9 23 16 27 8 6
7 8 -1 8 -7 0 -13 7 -13 15 0 21 43 19 90 -5 22 -11 51 -20 65 -20 18 0 25 5
25 20 0 16 -7 20 -30 20 -19 0 -34 7 -42 20 -8 12 -24 20 -41 20 -22 0 -28 4
-25 17 4 23 38 30 52 11 6 -8 21 -17 34 -20 17 -5 22 -2 22 13 0 10 4 19 9 19
5 0 11 9 14 20 4 15 -1 22 -19 26 -35 9 -30 55 6 65 23 7 23 7 -7 8 -17 1 -35
6 -38 11 -3 6 -15 10 -26 10 -10 0 -19 4 -19 9 0 5 -13 11 -29 14 -16 3 -36
13 -44 22 -26 25 -55 19 -59 -12 -2 -21 -9 -29 -27 -31 -13 -2 -28 1 -34 7 -6
6 -19 11 -29 11 -11 0 -18 7 -18 20 0 18 7 20 55 20 48 0 55 2 55 20 0 16 7
20 35 20 19 0 35 -4 35 -9 0 -5 15 -14 33 -21 17 -6 40 -16 49 -21 9 -5 30 -6
46 -3 25 5 30 2 36 -20 6 -26 29 -35 41 -16 3 6 -3 10 -14 10 -17 0 -21 6 -21
31 0 31 0 31 53 29 81 -4 83 -3 63 19 -22 24 -8 34 37 26 24 -5 37 -2 46 9 19
23 30 20 42 -10z m529 -43 c11 -35 11 -43 -4 -65 -20 -32 -8 -97 29 -156 14
-22 25 -43 25 -47 0 -16 68 -81 128 -121 34 -24 62 -49 62 -56 0 -7 -13 -30
-29 -50 -17 -21 -28 -43 -25 -51 3 -7 0 -23 -6 -36 -12 -21 -16 -22 -114 -16
-55 3 -146 2 -201 -2 -96 -7 -101 -6 -140 18 -22 15 -50 37 -63 51 -16 17 -25
21 -29 13 -5 -14 -32 -18 -34 -5 -3 13 -7 75 -12 180 l-5 103 39 52 c50 67
101 93 209 106 89 10 116 27 106 64 -2 10 2 35 11 55 13 32 17 34 27 20 7 -9
18 -35 26 -57z m3308 -53 c-3 -7 -29 -23 -59 -35 -82 -33 -72 -48 36 -48 89 0
89 0 100 -29 8 -25 6 -31 -18 -50 -15 -12 -27 -27 -27 -33 0 -6 -9 -22 -20
-35 -11 -12 -29 -35 -40 -50 -26 -34 -114 -65 -135 -48 -8 7 -15 18 -15 25 0
13 -38 48 -76 71 -16 10 -17 15 -6 30 6 11 23 43 36 72 14 28 29 52 35 52 6 0
26 14 46 31 51 45 153 78 143 47z m-359 -440 c9 -15 28 -37 44 -48 48 -37 30
-102 -45 -163 -44 -35 -108 -77 -119 -77 -4 0 -6 33 -5 73 1 91 -6 112 -34 95
-15 -9 -22 -10 -31 -1 -9 9 -6 18 12 36 13 13 29 33 35 43 6 11 20 20 31 22
11 2 31 14 44 28 28 30 47 28 68 -8z m-2631 -13 c11 -14 29 -25 40 -25 11 0
44 -11 74 -25 29 -14 59 -25 66 -25 7 0 28 -11 46 -25 36 -27 52 -31 58 -14 2
7 33 -7 73 -33 39 -24 78 -47 87 -51 23 -8 33 -70 18 -107 -12 -29 -15 -30
-75 -30 -74 0 -195 25 -247 51 -64 33 -79 17 -31 -33 30 -32 18 -36 -33 -12
-55 26 -69 63 -68 181 0 95 -1 102 -16 88 -22 -20 -30 -10 -30 42 0 49 10 54
38 18z m-651 -102 c24 -48 36 -62 78 -83 36 -18 51 -32 53 -49 4 -23 2 -24
-43 -17 -26 3 -63 15 -81 27 l-34 21 0 -26 c0 -19 5 -26 19 -26 10 0 34 -7 53
-14 19 -8 44 -13 55 -10 12 3 31 1 42 -6 17 -9 33 -7 80 11 52 18 66 20 111
10 28 -6 68 -11 89 -11 21 0 58 -7 81 -15 23 -8 55 -15 70 -15 15 0 33 -6 39
-14 10 -12 5 -19 -28 -38 -23 -13 -41 -28 -41 -35 0 -18 61 2 82 27 9 11 26
20 38 20 31 0 129 -49 143 -71 6 -10 21 -19 32 -19 21 0 127 -32 183 -56 26
-11 32 -19 27 -32 -4 -9 -10 -28 -13 -42 -2 -14 -8 -29 -12 -35 -5 -5 -24 -40
-44 -77 -30 -57 -33 -68 -20 -78 10 -9 14 -33 14 -81 0 -67 -1 -69 -26 -69
-14 0 -34 5 -44 10 -13 7 -21 7 -25 0 -3 -5 -16 -10 -28 -10 -13 0 -34 -15
-52 -36 -23 -27 -40 -37 -71 -41 l-42 -5 -7 43 c-5 27 -4 44 3 47 7 2 5 13 -4
30 -8 15 -14 41 -15 57 l-1 30 -9 -30 c-9 -29 -6 -85 7 -132 5 -19 2 -23 -17
-24 -13 0 -18 -3 -11 -6 6 -2 12 -11 12 -19 0 -8 7 -14 15 -14 8 0 15 -7 15
-15 0 -8 -7 -15 -15 -15 -8 0 -15 7 -15 15 0 10 -11 15 -35 15 -28 0 -35 4
-35 19 0 11 4 21 10 23 5 2 13 37 16 78 7 68 6 74 -9 62 -17 -14 -87 -7 -87 9
0 5 -6 9 -12 9 -7 0 -26 7 -43 16 -16 9 -43 20 -60 23 -29 6 -30 9 -33 65 -3
51 1 64 30 109 18 29 52 76 76 105 23 28 38 52 33 52 -5 0 -11 12 -13 26 l-3
26 -27 -21 c-29 -23 -63 -27 -72 -8 -3 8 -13 2 -28 -17 -67 -85 -134 -137
-198 -151 -23 -5 -35 -3 -42 6 -7 11 -11 11 -15 2 -7 -19 -33 -15 -33 5 0 22
-34 52 -60 52 -26 0 -26 20 0 48 11 12 20 25 20 29 0 4 19 27 43 52 34 36 36
40 9 18 -19 -15 -38 -27 -43 -27 -5 0 -18 -18 -29 -40 -11 -22 -24 -40 -29
-40 -5 0 -11 -9 -14 -20 -8 -31 -47 -27 -47 5 0 19 -8 28 -27 36 -19 7 -29 7
-31 0 -6 -17 -42 -13 -42 5 0 27 20 54 41 54 11 0 17 5 14 10 -10 17 5 70 21
70 8 0 14 7 14 15 0 8 6 15 13 15 6 0 21 7 31 15 18 14 16 15 -27 15 -43 0
-47 -2 -47 -24 0 -15 -7 -27 -19 -31 -28 -9 -51 5 -51 31 0 20 5 24 30 24 27
0 29 2 18 19 -10 16 -9 23 5 39 9 10 22 33 28 51 10 27 16 32 35 28 22 -4 24
-1 24 34 0 58 24 50 57 -18z m2983 -153 c0 -24 -42 -111 -62 -127 -7 -6 -49
-30 -93 -53 -83 -44 -95 -54 -95 -82 0 -12 8 -18 24 -18 34 0 56 10 56 25 0
11 56 45 73 45 3 0 29 16 58 36 36 24 55 32 58 23 5 -17 -44 -55 -106 -80 -29
-12 -53 -25 -53 -30 0 -5 3 -9 7 -9 17 0 137 53 169 75 44 30 59 31 81 5 10
-11 25 -20 35 -20 11 0 18 -8 18 -20 0 -11 -7 -20 -15 -20 -8 0 -15 7 -15 15
0 8 -7 15 -15 15 -11 0 -12 -5 -5 -25 15 -40 56 -98 89 -128 17 -15 31 -34 31
-43 0 -16 96 -114 144 -147 14 -10 26 -26 26 -35 0 -10 5 -23 11 -29 16 -16
-18 -63 -46 -63 -13 0 -25 -7 -29 -15 -3 -8 -12 -15 -21 -15 -8 0 -15 -7 -15
-15 0 -8 -4 -15 -10 -15 -5 0 -10 5 -10 12 0 13 -14 2 -16 -13 -1 -5 -2 -14
-3 -19 0 -6 -9 -10 -18 -8 -13 2 -19 -5 -21 -25 -2 -19 -9 -27 -23 -27 -12 0
-19 -7 -19 -19 0 -11 -5 -23 -11 -26 -5 -4 -14 -18 -19 -31 -6 -14 -17 -27
-25 -30 -19 -8 -45 13 -45 36 0 10 -8 20 -19 23 -22 5 -118 123 -162 199 -17
29 -39 62 -48 73 -23 26 -80 126 -108 190 l-22 50 -1 -36 c0 -19 -4 -39 -9
-45 -10 -11 4 -297 18 -373 15 -76 14 -87 -14 -115 -14 -14 -25 -30 -25 -36 0
-5 -9 -10 -21 -10 -17 0 -20 4 -15 24 4 15 0 28 -9 36 -11 9 -15 9 -15 1 0 -6
-11 -16 -25 -21 -14 -5 -25 -16 -25 -25 0 -8 -9 -15 -20 -15 -27 0 -91 31
-114 55 -27 29 -103 194 -111 240 -4 22 -13 58 -21 80 -10 27 -14 69 -12 125
l3 85 38 12 c21 7 68 18 105 23 37 6 104 25 149 42 67 25 81 34 74 47 -6 10
-1 34 15 69 13 30 24 67 24 83 0 31 23 49 62 49 13 0 34 8 48 17 50 35 126 73
148 73 16 0 22 -6 22 -20z m-1366 -146 c34 -9 78 -14 101 -11 37 5 167 -21
182 -37 4 -3 1 -17 -7 -30 -14 -27 -45 -42 -100 -51 -40 -6 -164 -43 -197 -58
-30 -14 -29 -22 5 -36 55 -22 119 -30 194 -24 48 4 82 2 90 -5 8 -6 80 -9 196
-8 l182 3 2 -91 c3 -144 -6 -214 -29 -233 -13 -10 -13 -15 6 -39 31 -40 25
-128 -10 -139 -28 -9 -36 -70 -13 -97 18 -21 18 -21 -14 1 -23 16 -40 21 -61
16 -21 -4 -30 -2 -34 9 -4 9 -13 16 -22 16 -8 0 -15 7 -15 15 0 10 -11 15 -35
15 -19 0 -40 6 -47 14 -11 11 -14 11 -23 -1 -8 -11 -17 -12 -36 -5 -16 6 -31
7 -42 1 -14 -8 -17 -6 -17 15 0 14 -4 28 -10 31 -5 3 -10 18 -10 33 -1 22 -2
24 -10 10 -9 -14 -22 -16 -84 -11 -49 4 -75 2 -80 -6 -4 -6 -20 -11 -35 -11
-20 0 -34 -8 -45 -25 -22 -34 -67 -32 -135 5 -30 17 -62 30 -72 30 -35 0 -38
56 -8 185 43 189 49 218 46 222 -2 2 -17 -39 -33 -92 -32 -108 -54 -126 -54
-43 0 57 -10 55 -28 -7 -33 -113 -56 -183 -69 -209 -14 -28 -16 -28 -81 -24
-38 2 -67 9 -70 16 -2 7 -9 12 -15 12 -6 0 -19 7 -29 17 -17 15 -18 14 -18
-41 0 -49 -2 -57 -17 -54 -15 3 -19 19 -26 98 -8 105 2 187 35 290 23 72 67
160 79 160 5 0 8 10 6 23 -2 25 5 25 93 2 30 -8 85 -17 122 -20 39 -4 72 -12
79 -21 6 -8 18 -14 25 -14 9 0 14 -12 15 -32 1 -18 3 -25 6 -15 2 9 9 17 14
17 5 0 9 7 9 15 0 9 11 20 25 25 19 7 25 17 25 38 0 16 5 43 11 61 8 24 8 39
-1 61 -12 29 -7 50 12 50 5 0 38 -7 72 -16z m908 -7 c9 -14 -1 -69 -16 -83
-21 -21 -175 -62 -177 -47 -5 48 -3 106 6 111 5 4 28 15 50 24 43 18 124 15
137 -5z m-252 -51 c0 -7 -9 -25 -20 -38 -17 -22 -30 -26 -102 -33 -69 -6 -89
-12 -122 -36 -22 -16 -41 -28 -42 -26 -1 1 0 35 3 75 l6 72 138 0 c111 0 139
-3 139 -14z m-1900 -102 c0 -8 -10 -38 -21 -65 -18 -40 -26 -49 -48 -50 -18
-1 -21 -3 -8 -6 14 -4 17 -10 12 -26 -4 -12 -12 -43 -18 -69 -12 -52 -13 -53
-51 -38 -26 10 -36 40 -13 40 8 0 12 20 12 67 0 44 -4 68 -12 70 -7 3 -13 13
-13 24 0 16 6 19 35 17 27 -2 42 4 62 25 30 30 63 36 63 11z m2478 -356 c23
-29 71 -96 108 -148 36 -52 80 -107 97 -121 19 -16 28 -32 24 -41 -3 -9 0 -21
6 -27 8 -8 8 -11 -1 -11 -6 0 -19 11 -28 25 -9 14 -23 25 -31 25 -9 0 -33 16
-54 35 -22 19 -48 35 -59 35 -16 0 -20 7 -20 30 0 20 -11 40 -34 64 -19 19
-40 52 -46 75 -6 22 -15 43 -20 46 -15 10 -12 65 4 65 7 0 32 -24 54 -52z"/>
<path d="M5970 3768 c-40 -15 -60 -39 -60 -73 0 -18 -7 -38 -14 -45 -8 -6 -24
-27 -35 -45 l-19 -33 26 -5 c17 -3 35 2 50 14 14 10 29 16 34 13 16 -10 53 4
66 27 8 12 20 44 27 71 11 44 11 50 -4 55 -9 3 -23 12 -31 18 -10 9 -23 10
-40 3z"/>
<path d="M4978 3115 c-2 -12 -12 -21 -25 -23 -20 -3 -23 -9 -23 -46 0 -42 -21
-76 -47 -76 -14 0 -24 -26 -17 -45 9 -23 31 -18 38 10 7 28 46 36 46 9 0 -24
25 -11 28 15 3 18 8 22 27 17 14 -4 27 0 36 10 22 26 67 46 72 31 7 -16 56 42
57 65 0 11 -10 20 -27 24 -16 4 -31 12 -35 17 -3 6 -34 11 -67 11 -53 1 -61
-1 -63 -19z"/>
<path d="M7116 3070 c-12 -33 -67 -214 -116 -380 -29 -96 -70 -232 -92 -303
l-39 -127 58 -101 c88 -152 103 -178 167 -285 32 -54 82 -138 110 -186 48 -83
66 -103 66 -76 0 6 9 21 19 32 11 12 29 61 41 111 22 92 81 307 98 360 6 17
19 61 31 99 l20 68 -70 157 c-83 184 -214 477 -257 576 -19 42 -33 64 -36 55z"/>
</g>
</svg>
