<?xml version="1.0" encoding="UTF-8" standalone="no"?>
<!-- Created with Inkscape (http://www.inkscape.org/) -->

<svg
   xmlns:dc="http://purl.org/dc/elements/1.1/"
   xmlns:cc="http://creativecommons.org/ns#"
   xmlns:rdf="http://www.w3.org/1999/02/22-rdf-syntax-ns#"
   xmlns:svg="http://www.w3.org/2000/svg"
   xmlns="http://www.w3.org/2000/svg"
   xmlns:sodipodi="http://sodipodi.sourceforge.net/DTD/sodipodi-0.dtd"
   xmlns:inkscape="http://www.inkscape.org/namespaces/inkscape"
   width="36.499992mm"
   height="51.280487mm"
   viewBox="0 0 36.499992 51.280487"
   version="1.1"
   id="svg8"
   inkscape:version="0.92.3 (2405546, 2018-03-11)"
   sodipodi:docname="base.svg">
  <defs
     id="defs2" />
  <sodipodi:namedview
     id="base"
     pagecolor="#ffffff"
     bordercolor="#666666"
     borderopacity="1.0"
     inkscape:pageopacity="0.0"
     inkscape:pageshadow="2"
     inkscape:zoom="1.979899"
     inkscape:cx="-20.088952"
     inkscape:cy="29.167586"
     inkscape:document-units="mm"
     inkscape:current-layer="layer1"
     showgrid="false"
     inkscape:window-width="1920"
     inkscape:window-height="1026"
     inkscape:window-x="1600"
     inkscape:window-y="27"
     inkscape:window-maximized="1"
     fit-margin-top="0"
     fit-margin-left="0"
     fit-margin-right="0"
     fit-margin-bottom="0" />
  <metadata
     id="metadata5">
    <rdf:RDF>
      <cc:Work
         rdf:about="">
        <dc:format>image/svg+xml</dc:format>
        <dc:type
           rdf:resource="http://purl.org/dc/dcmitype/StillImage" />
        <dc:title></dc:title>
      </cc:Work>
    </rdf:RDF>
  </metadata>
  <g
     inkscape:label="Layer 1"
     inkscape:groupmode="layer"
     id="layer1"
     transform="translate(-86.577627,-108.07791)">
    <path
       style="fill:#000000;stroke-width:0.99999994"
       d="m 100.21279,108.07797 c -1.672591,-0.007 -3.228392,0.63538 -4.469291,1.68219 -2.295443,2.21362 -3.531451,5.3182 -4.72673,8.23174 -0.752985,2.10438 -1.366941,4.26911 -2.041072,6.38242 -0.985483,3.77007 -2.100646,7.57746 -2.353903,11.47869 -0.0639,4.13274 0.002,8.27165 -0.02229,12.40627 0.05414,0.94501 -0.01174,1.90734 -0.0217,2.86192 -4.9e-5,0.13773 -6.9e-5,0.27546 -1.77e-4,0.41318 0.0089,0.89366 0.09033,1.77733 0.389544,2.63025 0.08382,0.23802 0.180833,0.46584 0.289232,0.68437 1.235978,1.96249 3.729502,3.04452 5.890215,3.70599 1.8018,0.56419 3.652532,0.75209 5.518777,0.80341 h 3.121845 c 1.0161,-0.0147 2.03136,-0.0304 3.04043,-0.009 1.00904,-0.0212 2.02429,-0.006 3.04038,0.009 h 3.12181 c 1.86624,-0.0513 3.71697,-0.23922 5.51876,-0.80341 2.16072,-0.66147 4.65425,-1.7435 5.89023,-3.70599 0.1084,-0.21853 0.20542,-0.44635 0.28923,-0.68437 0.2992,-0.85292 0.3802,-1.73659 0.38954,-2.63025 -7e-5,-0.13772 -8e-5,-0.27545 -1.7e-4,-0.41318 -0.01,-0.95458 -0.0758,-1.91691 -0.0217,-2.86192 -0.0247,-4.13462 0.0417,-8.27353 -0.0223,-12.40627 -0.25325,-3.90123 -1.36842,-7.70862 -2.3539,-11.47869 -0.67413,-2.11331 -1.2881,-4.27804 -2.04108,-6.38242 -1.19527,-2.91354 -2.43129,-6.01812 -4.72672,-8.23174 -1.2409,-1.04681 -2.7967,-1.68918 -4.46929,-1.68219 -0.38559,3e-5 -0.77117,-10e-6 -1.15676,0 -0.60566,0.018 -1.20947,0.0355 -1.79763,0 -1.10701,-6e-5 -2.21403,-4e-5 -3.32103,0 -0.58816,0.0355 -1.19198,0.018 -1.79764,0 -0.38558,-10e-6 -0.77117,3e-5 -1.15675,0 z m -1.563926,0.0969 c -0.01154,0.002 -0.02308,0.004 -0.03461,0.006 0.0144,0.006 0.03067,0.006 0.03461,-0.006 z m 12.357706,0 c 0.004,0.0125 0.0201,0.0117 0.0345,0.006 -0.0115,-0.002 -0.023,-0.004 -0.0345,-0.006 z m -15.7093,1.99223 c -0.0357,0.0352 -0.071,0.0708 -0.106121,0.10677 0.02534,-0.0163 0.06499,-0.0533 0.106121,-0.10677 z m 19.06084,0 c 0.0411,0.0534 0.0809,0.0905 0.10612,0.10677 -0.0351,-0.0359 -0.0704,-0.0715 -0.10612,-0.10677 z m -19.947421,1.03827 c -0.0069,0.01 -0.0141,0.0197 -0.0211,0.0296 0.01893,-0.009 0.03432,-0.0231 0.0211,-0.0296 z m 20.834011,0 c -0.0132,0.007 0.002,0.0203 0.0211,0.0296 -0.007,-0.01 -0.014,-0.0197 -0.0211,-0.0296 z m -20.900941,0.0949 c -0.01095,0.0158 -0.02189,0.0318 -0.03274,0.0476 0.02022,-0.007 0.03738,-0.0225 0.03274,-0.0476 z m 20.967871,0 c -0.005,0.025 0.0125,0.0403 0.0327,0.0476 -0.0109,-0.0159 -0.0217,-0.0318 -0.0327,-0.0476 z"
       id="path826"
       inkscape:connector-curvature="0" />
  </g>
</svg>
