solid OpenSCAD_Model
  facet normal -0 0 1
    outer loop
      vertex -1.5 -50.9689 2
      vertex 1.5 -53.5 2
      vertex 1.5 -50.9689 2
    endloop
  endfacet
  facet normal 0 0 1
    outer loop
      vertex 1.5 -53.5 2
      vertex -1.5 -50.9689 2
      vertex -1.5 -53.5 2
    endloop
  endfacet
  facet normal -0 0 1
    outer loop
      vertex -1.5 53.5 2
      vertex 1.5 50.9689 2
      vertex 1.5 53.5 2
    endloop
  endfacet
  facet normal 0 0 1
    outer loop
      vertex 1.5 50.9689 2
      vertex -1.5 53.5 2
      vertex -1.5 50.9689 2
    endloop
  endfacet
  facet normal 0 0 1
    outer loop
      vertex -50.1771 8.95 2
      vertex -53.5 10.5 2
      vertex -50.1771 -8.95 2
    endloop
  endfacet
  facet normal -0 0 1
    outer loop
      vertex -53.5 10.5 2
      vertex -50.1771 8.95 2
      vertex -49.9038 10.5 2
    endloop
  endfacet
  facet normal -0 0 1
    outer loop
      vertex -50.1771 8.95 2
      vertex 15 2.45 2
      vertex 15 8.95 2
    endloop
  endfacet
  facet normal 0 0 1
    outer loop
      vertex 15 2.45 2
      vertex -50.1771 8.95 2
      vertex 15 -2.45 2
    endloop
  endfacet
  facet normal 0 0 1
    outer loop
      vertex -50.1771 -8.95 2
      vertex 15 -2.45 2
      vertex -50.1771 8.95 2
    endloop
  endfacet
  facet normal 0 0 1
    outer loop
      vertex 15 -2.45 2
      vertex -50.1771 -8.95 2
      vertex 15 -8.95 2
    endloop
  endfacet
  facet normal -0 0 1
    outer loop
      vertex 15 2.45 2
      vertex 50.9144 -2.45 2
      vertex 50.9144 2.45 2
    endloop
  endfacet
  facet normal 0 0 1
    outer loop
      vertex 50.9144 -2.45 2
      vertex 15 2.45 2
      vertex 15 -2.45 2
    endloop
  endfacet
  facet normal 0 0 1
    outer loop
      vertex 53.5 4 2
      vertex 50.9144 2.45 2
      vertex 53.5 -4 2
    endloop
  endfacet
  facet normal 0 0 1
    outer loop
      vertex 53.5 4 2
      vertex 50.8758 3.55758 2
      vertex 50.9144 2.45 2
    endloop
  endfacet
  facet normal 0 -0 1
    outer loop
      vertex 50.8758 3.55758 2
      vertex 53.5 4 2
      vertex 50.8293 4 2
    endloop
  endfacet
  facet normal -0 0 1
    outer loop
      vertex 50.9144 -2.45 2
      vertex 53.5 -4 2
      vertex 50.9144 2.45 2
    endloop
  endfacet
  facet normal -0 0 1
    outer loop
      vertex 50.8758 -3.55758 2
      vertex 53.5 -4 2
      vertex 50.9144 -2.45 2
    endloop
  endfacet
  facet normal 0 0 1
    outer loop
      vertex 53.5 -4 2
      vertex 50.8758 -3.55758 2
      vertex 50.8293 -4 2
    endloop
  endfacet
  facet normal 0 0 1
    outer loop
      vertex -50.1771 -8.95 2
      vertex -53.5 -10.5 2
      vertex -49.9038 -10.5 2
    endloop
  endfacet
  facet normal 0 0 1
    outer loop
      vertex -53.5 -10.5 2
      vertex -50.1771 -8.95 2
      vertex -53.5 10.5 2
    endloop
  endfacet
  facet normal 0 0 1
    outer loop
      vertex 16 -9.5 12
      vertex -49.9919 -10 12
      vertex 16 -10 12
    endloop
  endfacet
  facet normal 0 -0 1
    outer loop
      vertex -49.9919 -10 12
      vertex 16 -9.5 12
      vertex -50.0801 -9.5 12
    endloop
  endfacet
  facet normal -0 0 1
    outer loop
      vertex -49.9919 10 12
      vertex 16 9.5 12
      vertex 16 10 12
    endloop
  endfacet
  facet normal 0 0 1
    outer loop
      vertex 16 9.5 12
      vertex -49.9919 10 12
      vertex -50.0801 9.5 12
    endloop
  endfacet
  facet normal 0 0 1
    outer loop
      vertex 16 3 12
      vertex 50.8778 3.5 12
      vertex 16 3.5 12
    endloop
  endfacet
  facet normal 0 0 1
    outer loop
      vertex 50.8778 3.5 12
      vertex 16 3 12
      vertex 50.8952 3 12
    endloop
  endfacet
  facet normal -0 0 1
    outer loop
      vertex 16 -3 12
      vertex 50.8778 -3.5 12
      vertex 50.8952 -3 12
    endloop
  endfacet
  facet normal 0 0 1
    outer loop
      vertex 50.8778 -3.5 12
      vertex 16 -3 12
      vertex 16 -3.5 12
    endloop
  endfacet
  facet normal 0 0.998752 0.0499376
    outer loop
      vertex 50.8758 3.55758 10.8484
      vertex 16 3.5 12
      vertex 50.8778 3.5 12
    endloop
  endfacet
  facet normal -0 0.998752 0.0499376
    outer loop
      vertex 16 4 2
      vertex 50.8758 3.55758 10.8484
      vertex 50.8293 4 2
    endloop
  endfacet
  facet normal 0 0.998752 0.0499376
    outer loop
      vertex 50.8758 3.55758 10.8484
      vertex 16 4 2
      vertex 16 3.5 12
    endloop
  endfacet
  facet normal 0 -0.998752 0.0499376
    outer loop
      vertex 16 -3.5 12
      vertex 50.8758 -3.55758 10.8484
      vertex 50.8778 -3.5 12
    endloop
  endfacet
  facet normal 0 -0.998752 0.0499376
    outer loop
      vertex 16 -4 2
      vertex 50.8758 -3.55758 10.8484
      vertex 16 -3.5 12
    endloop
  endfacet
  facet normal 0 -0.998752 0.0499376
    outer loop
      vertex 50.8758 -3.55758 10.8484
      vertex 16 -4 2
      vertex 50.8293 -4 2
    endloop
  endfacet
  facet normal 1 0 0
    outer loop
      vertex 16 9.5 12
      vertex 16 3.5 12
      vertex 16 4 2
    endloop
  endfacet
  facet normal 1 0 0
    outer loop
      vertex 16 9.5 12
      vertex 16 2.75 17
      vertex 16 3.5 12
    endloop
  endfacet
  facet normal 1 0 0
    outer loop
      vertex 16 3.5 12
      vertex 16 2.75 17
      vertex 16 3 12
    endloop
  endfacet
  facet normal 1 0 0
    outer loop
      vertex 16 8 42
      vertex 16 -2.75 17
      vertex 16 2.75 17
    endloop
  endfacet
  facet normal 1 0 0
    outer loop
      vertex 16 -2.75 17
      vertex 16 -3.5 12
      vertex 16 -3 12
    endloop
  endfacet
  facet normal 1 -0 0
    outer loop
      vertex 16 -8 42
      vertex 16 -2.75 17
      vertex 16 8 42
    endloop
  endfacet
  facet normal 1 0 0
    outer loop
      vertex 16 -9.5 12
      vertex 16 -2.75 17
      vertex 16 -8 42
    endloop
  endfacet
  facet normal 1 0 0
    outer loop
      vertex 16 -2.75 17
      vertex 16 -9.5 12
      vertex 16 -3.5 12
    endloop
  endfacet
  facet normal 1 0 0
    outer loop
      vertex 16 -3.5 12
      vertex 16 -9.5 12
      vertex 16 -4 2
    endloop
  endfacet
  facet normal 1 0 0
    outer loop
      vertex 16 -10.5 2
      vertex 16 -4 2
      vertex 16 -9.5 12
    endloop
  endfacet
  facet normal 1 0 0
    outer loop
      vertex 16 -10.5 2
      vertex 16 -9.5 12
      vertex 16 -10 12
    endloop
  endfacet
  facet normal 1 0 0
    outer loop
      vertex 16 -4 2
      vertex 16 -10.5 2
      vertex 16 -4 0
    endloop
  endfacet
  facet normal 1 0 0
    outer loop
      vertex 16 -4 0
      vertex 16 -10.5 2
      vertex 16 -10.5 0
    endloop
  endfacet
  facet normal 1 -0 0
    outer loop
      vertex 16 9.5 12
      vertex 16 10.5 2
      vertex 16 10 12
    endloop
  endfacet
  facet normal 1 0 0
    outer loop
      vertex 16 4 2
      vertex 16 10.5 2
      vertex 16 9.5 12
    endloop
  endfacet
  facet normal 1 -0 0
    outer loop
      vertex 16 2.75 17
      vertex 16 9.5 12
      vertex 16 8 42
    endloop
  endfacet
  facet normal 1 0 0
    outer loop
      vertex 16 10.5 2
      vertex 16 4 2
      vertex 16 10.5 0
    endloop
  endfacet
  facet normal 1 0 0
    outer loop
      vertex 16 10.5 0
      vertex 16 4 2
      vertex 16 4 0
    endloop
  endfacet
  facet normal 0 -0.998752 0.0499377
    outer loop
      vertex -49.9919 -10 12
      vertex -1.5 -10.35 5
      vertex 16 -10 12
    endloop
  endfacet
  facet normal -7.86686e-09 -0.998752 0.0499376
    outer loop
      vertex -49.9038 -10.5 2
      vertex -1.5 -10.35 5
      vertex -49.9919 -10 12
    endloop
  endfacet
  facet normal 0 -0.998752 0.0499375
    outer loop
      vertex -1.5 -10.35 5
      vertex -49.9038 -10.5 2
      vertex -1.5 -10.5 2
    endloop
  endfacet
  facet normal 0 -0.998752 0.0499377
    outer loop
      vertex 1.5 -10.35 5
      vertex 16 -10 12
      vertex -1.5 -10.35 5
    endloop
  endfacet
  facet normal 0 -0.998752 0.0499375
    outer loop
      vertex 16 -10.5 2
      vertex 1.5 -10.35 5
      vertex 1.5 -10.5 2
    endloop
  endfacet
  facet normal 2.62754e-08 -0.998752 0.0499376
    outer loop
      vertex 1.5 -10.35 5
      vertex 16 -10.5 2
      vertex 16 -10 12
    endloop
  endfacet
  facet normal -0 0.998752 0.0499377
    outer loop
      vertex -1.5 10.35 5
      vertex 16 10 12
      vertex 1.5 10.35 5
    endloop
  endfacet
  facet normal 2.62754e-08 0.998752 0.0499376
    outer loop
      vertex 16 10.5 2
      vertex 1.5 10.35 5
      vertex 16 10 12
    endloop
  endfacet
  facet normal 0 0.998752 0.0499375
    outer loop
      vertex 1.5 10.35 5
      vertex 16 10.5 2
      vertex 1.5 10.5 2
    endloop
  endfacet
  facet normal 0 0.998752 0.0499377
    outer loop
      vertex 16 10 12
      vertex -1.5 10.35 5
      vertex -49.9919 10 12
    endloop
  endfacet
  facet normal -0 0.998752 0.0499375
    outer loop
      vertex -49.9038 10.5 2
      vertex -1.5 10.35 5
      vertex -1.5 10.5 2
    endloop
  endfacet
  facet normal -7.86686e-09 0.998752 0.0499376
    outer loop
      vertex -1.5 10.35 5
      vertex -49.9038 10.5 2
      vertex -49.9919 10 12
    endloop
  endfacet
  facet normal -1 0 0
    outer loop
      vertex -1.5 -10.5 0
      vertex -1.5 -50.9689 2
      vertex -1.5 -10.5 2
    endloop
  endfacet
  facet normal -1 0 0
    outer loop
      vertex -1.5 -53.5 0
      vertex -1.5 -50.9689 2
      vertex -1.5 -10.5 0
    endloop
  endfacet
  facet normal -1 -0 0
    outer loop
      vertex -1.5 -50.9689 2
      vertex -1.5 -53.5 0
      vertex -1.5 -53.5 2
    endloop
  endfacet
  facet normal -1 0 0
    outer loop
      vertex -1.5 -50.9689 5
      vertex -1.5 -10.5 2
      vertex -1.5 -50.9689 2
    endloop
  endfacet
  facet normal -1 0 0
    outer loop
      vertex -1.5 -10.5 2
      vertex -1.5 -50.9689 5
      vertex -1.5 -10.35 5
    endloop
  endfacet
  facet normal -1 0 0
    outer loop
      vertex -1.5 53.5 0
      vertex -1.5 50.9689 2
      vertex -1.5 53.5 2
    endloop
  endfacet
  facet normal -1 0 0
    outer loop
      vertex -1.5 10.5 0
      vertex -1.5 50.9689 2
      vertex -1.5 53.5 0
    endloop
  endfacet
  facet normal -1 0 0
    outer loop
      vertex -1.5 10.5 2
      vertex -1.5 50.9689 2
      vertex -1.5 10.5 0
    endloop
  endfacet
  facet normal -1 0 0
    outer loop
      vertex -1.5 50.9689 2
      vertex -1.5 10.5 2
      vertex -1.5 50.9689 5
    endloop
  endfacet
  facet normal -1 -0 0
    outer loop
      vertex -1.5 50.9689 5
      vertex -1.5 10.5 2
      vertex -1.5 10.35 5
    endloop
  endfacet
  facet normal -0 0 1
    outer loop
      vertex -1.5 -10.35 5
      vertex 1.5 -50.9689 5
      vertex 1.5 -10.35 5
    endloop
  endfacet
  facet normal 0 0 1
    outer loop
      vertex 1.5 -50.9689 5
      vertex -1.5 -10.35 5
      vertex -1.5 -50.9689 5
    endloop
  endfacet
  facet normal -0 0 1
    outer loop
      vertex -1.5 50.9689 5
      vertex 1.5 10.35 5
      vertex 1.5 50.9689 5
    endloop
  endfacet
  facet normal 0 0 1
    outer loop
      vertex 1.5 10.35 5
      vertex -1.5 50.9689 5
      vertex -1.5 10.35 5
    endloop
  endfacet
  facet normal 1 -0 0
    outer loop
      vertex 1.5 -50.9689 5
      vertex 1.5 -10.5 2
      vertex 1.5 -10.35 5
    endloop
  endfacet
  facet normal 1 0 0
    outer loop
      vertex 1.5 -50.9689 2
      vertex 1.5 -10.5 2
      vertex 1.5 -50.9689 5
    endloop
  endfacet
  facet normal 1 0 0
    outer loop
      vertex 1.5 -10.5 2
      vertex 1.5 -50.9689 2
      vertex 1.5 -10.5 0
    endloop
  endfacet
  facet normal 1 0 0
    outer loop
      vertex 1.5 -53.5 0
      vertex 1.5 -50.9689 2
      vertex 1.5 -53.5 2
    endloop
  endfacet
  facet normal 1 0 0
    outer loop
      vertex 1.5 -50.9689 2
      vertex 1.5 -53.5 0
      vertex 1.5 -10.5 0
    endloop
  endfacet
  facet normal 1 0 0
    outer loop
      vertex 1.5 50.9689 5
      vertex 1.5 10.5 2
      vertex 1.5 50.9689 2
    endloop
  endfacet
  facet normal 1 0 -0
    outer loop
      vertex 1.5 10.5 2
      vertex 1.5 50.9689 5
      vertex 1.5 10.35 5
    endloop
  endfacet
  facet normal 1 -0 0
    outer loop
      vertex 1.5 50.9689 2
      vertex 1.5 53.5 0
      vertex 1.5 53.5 2
    endloop
  endfacet
  facet normal 1 0 0
    outer loop
      vertex 1.5 10.5 0
      vertex 1.5 50.9689 2
      vertex 1.5 10.5 2
    endloop
  endfacet
  facet normal 1 0 0
    outer loop
      vertex 1.5 50.9689 2
      vertex 1.5 10.5 0
      vertex 1.5 53.5 0
    endloop
  endfacet
  facet normal -0 0 1
    outer loop
      vertex 16 2.75 17
      vertex 51 0 17
      vertex 50.904 2.75 17
    endloop
  endfacet
  facet normal 0 0 1
    outer loop
      vertex 16 -2.75 17
      vertex 51 0 17
      vertex 16 2.75 17
    endloop
  endfacet
  facet normal 0 0 1
    outer loop
      vertex 51 0 17
      vertex 16 -2.75 17
      vertex 50.904 -2.75 17
    endloop
  endfacet
  facet normal 0 0.998752 0.0499376
    outer loop
      vertex 50.8952 3 12
      vertex 16 2.75 17
      vertex 50.904 2.75 17
    endloop
  endfacet
  facet normal 0 0.998752 0.0499376
    outer loop
      vertex 16 2.75 17
      vertex 50.8952 3 12
      vertex 16 3 12
    endloop
  endfacet
  facet normal 0 -0.998752 0.0499376
    outer loop
      vertex 16 -3 12
      vertex 50.904 -2.75 17
      vertex 16 -2.75 17
    endloop
  endfacet
  facet normal 0 -0.998752 0.0499376
    outer loop
      vertex 50.904 -2.75 17
      vertex 16 -3 12
      vertex 50.8952 -3 12
    endloop
  endfacet
  facet normal 0 0 1
    outer loop
      vertex -50.8758 3.55758 42
      vertex 16 8 42
      vertex -50.3446 8 42
    endloop
  endfacet
  facet normal 0 0 1
    outer loop
      vertex -51 0 42
      vertex 16 8 42
      vertex -50.8758 3.55758 42
    endloop
  endfacet
  facet normal 0 0 1
    outer loop
      vertex -50.8758 3.55758 42
      vertex -50.3446 8 42
      vertex -50.5037 7.09783 42
    endloop
  endfacet
  facet normal 0 0 1
    outer loop
      vertex 16 8 42
      vertex -51 0 42
      vertex 16 -8 42
    endloop
  endfacet
  facet normal 0 0 1
    outer loop
      vertex 16 -8 42
      vertex -50.8758 -3.55758 42
      vertex -50.3446 -8 42
    endloop
  endfacet
  facet normal 0 0 1
    outer loop
      vertex -50.3446 -8 42
      vertex -50.8758 -3.55758 42
      vertex -50.5037 -7.09783 42
    endloop
  endfacet
  facet normal 0 0 1
    outer loop
      vertex 16 -8 42
      vertex -51 0 42
      vertex -50.8758 -3.55758 42
    endloop
  endfacet
  facet normal 0 0.998752 0.0499376
    outer loop
      vertex 16 9.5 12
      vertex -50.3446 8 42
      vertex 16 8 42
    endloop
  endfacet
  facet normal 0 0.998752 0.0499376
    outer loop
      vertex -50.3446 8 42
      vertex 16 9.5 12
      vertex -50.0801 9.5 12
    endloop
  endfacet
  facet normal 0 -0.998752 0.0499376
    outer loop
      vertex -50.0801 -9.5 12
      vertex 16 -8 42
      vertex -50.3446 -8 42
    endloop
  endfacet
  facet normal 0 -0.998752 0.0499376
    outer loop
      vertex 16 -8 42
      vertex -50.0801 -9.5 12
      vertex 16 -9.5 12
    endloop
  endfacet
  facet normal -1 0 0
    outer loop
      vertex -53.5 -10.5 0
      vertex -53.5 10.5 2
      vertex -53.5 10.5 0
    endloop
  endfacet
  facet normal -1 -0 0
    outer loop
      vertex -53.5 10.5 2
      vertex -53.5 -10.5 0
      vertex -53.5 -10.5 2
    endloop
  endfacet
  facet normal 1 -0 0
    outer loop
      vertex 53.5 -4 2
      vertex 53.5 4 0
      vertex 53.5 4 2
    endloop
  endfacet
  facet normal 1 0 0
    outer loop
      vertex 53.5 4 0
      vertex 53.5 -4 2
      vertex 53.5 -4 0
    endloop
  endfacet
  facet normal 0 1 -0
    outer loop
      vertex 53.5 4 0
      vertex 50.8293 4 2
      vertex 53.5 4 2
    endloop
  endfacet
  facet normal 0 1 0
    outer loop
      vertex 16 4 0
      vertex 50.8293 4 2
      vertex 53.5 4 0
    endloop
  endfacet
  facet normal 0 1 0
    outer loop
      vertex 50.8293 4 2
      vertex 16 4 0
      vertex 16 4 2
    endloop
  endfacet
  facet normal 0 0 -1
    outer loop
      vertex -53.5 -10.5 0
      vertex -1.5 10.5 0
      vertex -1.5 -10.5 0
    endloop
  endfacet
  facet normal -0 0 -1
    outer loop
      vertex -1.5 10.5 0
      vertex -53.5 -10.5 0
      vertex -53.5 10.5 0
    endloop
  endfacet
  facet normal 0 0 -1
    outer loop
      vertex -1.5 -10.5 0
      vertex 1.5 -10.5 0
      vertex 1.5 -53.5 0
    endloop
  endfacet
  facet normal 0 0 -1
    outer loop
      vertex 1.5 -10.5 0
      vertex -1.5 -10.5 0
      vertex 1.5 10.5 0
    endloop
  endfacet
  facet normal 0 0 -1
    outer loop
      vertex -1.5 -10.5 0
      vertex 1.5 -53.5 0
      vertex -1.5 -53.5 0
    endloop
  endfacet
  facet normal 0 0 -1
    outer loop
      vertex -1.5 10.5 0
      vertex 1.5 10.5 0
      vertex -1.5 -10.5 0
    endloop
  endfacet
  facet normal 0 0 -1
    outer loop
      vertex 1.5 10.5 0
      vertex -1.5 10.5 0
      vertex 1.5 53.5 0
    endloop
  endfacet
  facet normal -0 0 -1
    outer loop
      vertex 1.5 53.5 0
      vertex -1.5 10.5 0
      vertex -1.5 53.5 0
    endloop
  endfacet
  facet normal 0 0 -1
    outer loop
      vertex 1.5 -10.5 0
      vertex 16 -4 0
      vertex 16 -10.5 0
    endloop
  endfacet
  facet normal -0 0 -1
    outer loop
      vertex 16 -4 0
      vertex 1.5 -10.5 0
      vertex 16 4 0
    endloop
  endfacet
  facet normal 0 0 -1
    outer loop
      vertex 1.5 10.5 0
      vertex 16 4 0
      vertex 1.5 -10.5 0
    endloop
  endfacet
  facet normal 0 0 -1
    outer loop
      vertex 16 4 0
      vertex 1.5 10.5 0
      vertex 16 10.5 0
    endloop
  endfacet
  facet normal 0 0 -1
    outer loop
      vertex 16 -4 0
      vertex 53.5 4 0
      vertex 53.5 -4 0
    endloop
  endfacet
  facet normal -0 0 -1
    outer loop
      vertex 53.5 4 0
      vertex 16 -4 0
      vertex 16 4 0
    endloop
  endfacet
  facet normal 0 -1 0
    outer loop
      vertex 16 -4 0
      vertex 50.8293 -4 2
      vertex 16 -4 2
    endloop
  endfacet
  facet normal 0 -1 0
    outer loop
      vertex 53.5 -4 0
      vertex 50.8293 -4 2
      vertex 16 -4 0
    endloop
  endfacet
  facet normal 0 -1 0
    outer loop
      vertex 50.8293 -4 2
      vertex 53.5 -4 0
      vertex 53.5 -4 2
    endloop
  endfacet
  facet normal 0 1 -0
    outer loop
      vertex 16 10.5 0
      vertex 1.5 10.5 2
      vertex 16 10.5 2
    endloop
  endfacet
  facet normal 0 1 0
    outer loop
      vertex 1.5 10.5 2
      vertex 16 10.5 0
      vertex 1.5 10.5 0
    endloop
  endfacet
  facet normal 0 1 -0
    outer loop
      vertex -1.5 10.5 0
      vertex -49.9038 10.5 2
      vertex -1.5 10.5 2
    endloop
  endfacet
  facet normal 0 1 0
    outer loop
      vertex -53.5 10.5 0
      vertex -49.9038 10.5 2
      vertex -1.5 10.5 0
    endloop
  endfacet
  facet normal 0 1 0
    outer loop
      vertex -49.9038 10.5 2
      vertex -53.5 10.5 0
      vertex -53.5 10.5 2
    endloop
  endfacet
  facet normal 0 -1 0
    outer loop
      vertex -53.5 -10.5 0
      vertex -49.9038 -10.5 2
      vertex -53.5 -10.5 2
    endloop
  endfacet
  facet normal 0 -1 0
    outer loop
      vertex -1.5 -10.5 0
      vertex -49.9038 -10.5 2
      vertex -53.5 -10.5 0
    endloop
  endfacet
  facet normal 0 -1 0
    outer loop
      vertex -49.9038 -10.5 2
      vertex -1.5 -10.5 0
      vertex -1.5 -10.5 2
    endloop
  endfacet
  facet normal 0 -1 0
    outer loop
      vertex 1.5 -10.5 0
      vertex 16 -10.5 2
      vertex 1.5 -10.5 2
    endloop
  endfacet
  facet normal 0 -1 -0
    outer loop
      vertex 16 -10.5 2
      vertex 1.5 -10.5 0
      vertex 16 -10.5 0
    endloop
  endfacet
  facet normal 0 -1 0
    outer loop
      vertex -1.5 -53.5 0
      vertex 1.5 -53.5 2
      vertex -1.5 -53.5 2
    endloop
  endfacet
  facet normal 0 -1 -0
    outer loop
      vertex 1.5 -53.5 2
      vertex -1.5 -53.5 0
      vertex 1.5 -53.5 0
    endloop
  endfacet
  facet normal 0 1 -0
    outer loop
      vertex 1.5 53.5 0
      vertex -1.5 53.5 2
      vertex 1.5 53.5 2
    endloop
  endfacet
  facet normal 0 1 0
    outer loop
      vertex -1.5 53.5 2
      vertex 1.5 53.5 0
      vertex -1.5 53.5 0
    endloop
  endfacet
  facet normal 0 0.998752 -0.0499376
    outer loop
      vertex 50.9144 -2.45 2
      vertex 15 -1.75 16
      vertex 50.9389 -1.75 16
    endloop
  endfacet
  facet normal 0 0.998752 -0.0499376
    outer loop
      vertex 15 -1.75 16
      vertex 50.9144 -2.45 2
      vertex 15 -2.45 2
    endloop
  endfacet
  facet normal 0 0 -1
    outer loop
      vertex 15 -1.75 16
      vertex 51 0 16
      vertex 50.9389 -1.75 16
    endloop
  endfacet
  facet normal 0 0 -1
    outer loop
      vertex 15 1.75 16
      vertex 51 0 16
      vertex 15 -1.75 16
    endloop
  endfacet
  facet normal 0 0 -1
    outer loop
      vertex 51 0 16
      vertex 15 1.75 16
      vertex 50.9389 1.75 16
    endloop
  endfacet
  facet normal 0 -0.998752 -0.0499376
    outer loop
      vertex 15 2.45 2
      vertex 50.9389 1.75 16
      vertex 15 1.75 16
    endloop
  endfacet
  facet normal 0 -0.998752 -0.0499376
    outer loop
      vertex 50.9389 1.75 16
      vertex 15 2.45 2
      vertex 50.9144 2.45 2
    endloop
  endfacet
  facet normal -1 0 0
    outer loop
      vertex 15 1.75 16
      vertex 15 8.95 2
      vertex 15 2.45 2
    endloop
  endfacet
  facet normal -1 0 0
    outer loop
      vertex 15 8.95 2
      vertex 15 1.75 16
      vertex 15 7 41
    endloop
  endfacet
  facet normal -1 0 0
    outer loop
      vertex 15 -1.75 16
      vertex 15 7 41
      vertex 15 1.75 16
    endloop
  endfacet
  facet normal -1 0 0
    outer loop
      vertex 15 -1.75 16
      vertex 15 -7 41
      vertex 15 7 41
    endloop
  endfacet
  facet normal -1 0 0
    outer loop
      vertex 15 -8.95 2
      vertex 15 -1.75 16
      vertex 15 -2.45 2
    endloop
  endfacet
  facet normal -1 -0 0
    outer loop
      vertex 15 -1.75 16
      vertex 15 -8.95 2
      vertex 15 -7 41
    endloop
  endfacet
  facet normal 0 0.998752 -0.0499376
    outer loop
      vertex 15 -7 41
      vertex -50.5037 -7.09783 39.0434
      vertex -50.514 -7 41
    endloop
  endfacet
  facet normal -1.45898e-10 0.998752 -0.0499376
    outer loop
      vertex 15 -8.95 2
      vertex -50.5037 -7.09783 39.0434
      vertex 15 -7 41
    endloop
  endfacet
  facet normal 0 0.998752 -0.0499376
    outer loop
      vertex -50.5037 -7.09783 39.0434
      vertex 15 -8.95 2
      vertex -50.1771 -8.95 2
    endloop
  endfacet
  facet normal 0 0 -1
    outer loop
      vertex -50.8758 -3.55758 41
      vertex 15 -7 41
      vertex -50.514 -7 41
    endloop
  endfacet
  facet normal 0 0 -1
    outer loop
      vertex -51 0 41
      vertex 15 -7 41
      vertex -50.8758 -3.55758 41
    endloop
  endfacet
  facet normal 0 0 -1
    outer loop
      vertex 15 -7 41
      vertex -51 0 41
      vertex 15 7 41
    endloop
  endfacet
  facet normal -0 0 -1
    outer loop
      vertex 15 7 41
      vertex -50.8758 3.55758 41
      vertex -50.514 7 41
    endloop
  endfacet
  facet normal 0 0 -1
    outer loop
      vertex 15 7 41
      vertex -51 0 41
      vertex -50.8758 3.55758 41
    endloop
  endfacet
  facet normal 0 -0.998752 -0.0499376
    outer loop
      vertex -50.5037 7.09783 39.0434
      vertex 15 7 41
      vertex -50.514 7 41
    endloop
  endfacet
  facet normal -0 -0.998752 -0.0499376
    outer loop
      vertex 15 8.95 2
      vertex -50.5037 7.09783 39.0434
      vertex -50.1771 8.95 2
    endloop
  endfacet
  facet normal -1.45898e-10 -0.998752 -0.0499376
    outer loop
      vertex -50.5037 7.09783 39.0434
      vertex 15 8.95 2
      vertex 15 7 41
    endloop
  endfacet
  facet normal 0.999391 0.0348985 2.88897e-07
    outer loop
      vertex 50.8952 3 12
      vertex 50.8758 3.55758 10.8484
      vertex 50.8778 3.5 12
    endloop
  endfacet
  facet normal 0.999391 0.0348981 1.32324e-07
    outer loop
      vertex 50.9144 2.45 2
      vertex 50.8758 3.55758 10.8484
      vertex 50.8952 3 12
    endloop
  endfacet
  facet normal 0.999391 0.0348992 0
    outer loop
      vertex 50.8758 3.55758 10.8484
      vertex 50.9144 2.45 2
      vertex 50.8758 3.55758 2
    endloop
  endfacet
  facet normal 0.999391 0.0348988 -3.63083e-07
    outer loop
      vertex 50.9389 1.75 16
      vertex 50.8952 3 12
      vertex 50.904 2.75 17
    endloop
  endfacet
  facet normal 0.999391 0.0349001 2.6076e-08
    outer loop
      vertex 50.8952 3 12
      vertex 50.9389 1.75 16
      vertex 50.9144 2.45 2
    endloop
  endfacet
  facet normal 0.999391 0.0348992 -6.93159e-07
    outer loop
      vertex 51 0 17
      vertex 50.9389 1.75 16
      vertex 50.904 2.75 17
    endloop
  endfacet
  facet normal 0.999391 0.0348996 0
    outer loop
      vertex 50.9389 1.75 16
      vertex 51 0 17
      vertex 51 0 16
    endloop
  endfacet
  facet normal -0.999391 0.0348994 0
    outer loop
      vertex -51 0 41
      vertex -50.8758 3.55758 42
      vertex -50.8758 3.55758 41
    endloop
  endfacet
  facet normal -0.999391 0.0348994 0
    outer loop
      vertex -50.8758 3.55758 42
      vertex -51 0 41
      vertex -51 0 42
    endloop
  endfacet
  facet normal 0 1 -0
    outer loop
      vertex 1.5 50.9689 2
      vertex -1.5 50.9689 5
      vertex 1.5 50.9689 5
    endloop
  endfacet
  facet normal 0 1 0
    outer loop
      vertex -1.5 50.9689 5
      vertex 1.5 50.9689 2
      vertex -1.5 50.9689 2
    endloop
  endfacet
  facet normal 0 -1 0
    outer loop
      vertex -1.5 -50.9689 2
      vertex 1.5 -50.9689 5
      vertex -1.5 -50.9689 5
    endloop
  endfacet
  facet normal 0 -1 -0
    outer loop
      vertex 1.5 -50.9689 5
      vertex -1.5 -50.9689 2
      vertex 1.5 -50.9689 2
    endloop
  endfacet
  facet normal 0.994522 0.104531 -0
    outer loop
      vertex 50.8758 3.55758 2
      vertex 50.8293 4 2
      vertex 50.8758 3.55758 10.8484
    endloop
  endfacet
  facet normal -0.984807 0.173652 3.75674e-07
    outer loop
      vertex -49.9038 10.5 2
      vertex -50.0801 9.5 12
      vertex -49.9919 10 12
    endloop
  endfacet
  facet normal -0.984808 0.173646 -1.59678e-07
    outer loop
      vertex -50.1771 8.95 2
      vertex -50.0801 9.5 12
      vertex -49.9038 10.5 2
    endloop
  endfacet
  facet normal -0.984808 0.173646 -1.20958e-07
    outer loop
      vertex -50.5037 7.09783 39.0434
      vertex -50.0801 9.5 12
      vertex -50.1771 8.95 2
    endloop
  endfacet
  facet normal -0.984808 0.173647 3.58271e-08
    outer loop
      vertex -50.0801 9.5 12
      vertex -50.5037 7.09783 39.0434
      vertex -50.3446 8 42
    endloop
  endfacet
  facet normal -0.984808 0.173648 0
    outer loop
      vertex -50.3446 8 42
      vertex -50.5037 7.09783 39.0434
      vertex -50.5037 7.09783 42
    endloop
  endfacet
  facet normal -0.994519 0.104552 0
    outer loop
      vertex -50.514 7 41
      vertex -50.5037 7.09783 42
      vertex -50.5037 7.09783 39.0434
    endloop
  endfacet
  facet normal -0.994522 0.104528 0
    outer loop
      vertex -50.8758 3.55758 42
      vertex -50.514 7 41
      vertex -50.8758 3.55758 41
    endloop
  endfacet
  facet normal -0.994522 0.104529 2.22942e-06
    outer loop
      vertex -50.514 7 41
      vertex -50.8758 3.55758 42
      vertex -50.5037 7.09783 42
    endloop
  endfacet
  facet normal 0.999391 -0.0348996 0
    outer loop
      vertex 51 0 17
      vertex 50.9389 -1.75 16
      vertex 51 0 16
    endloop
  endfacet
  facet normal 0.999391 -0.0348992 -6.93159e-07
    outer loop
      vertex 50.904 -2.75 17
      vertex 50.9389 -1.75 16
      vertex 51 0 17
    endloop
  endfacet
  facet normal 0.999391 -0.0348988 -3.63083e-07
    outer loop
      vertex 50.8952 -3 12
      vertex 50.9389 -1.75 16
      vertex 50.904 -2.75 17
    endloop
  endfacet
  facet normal 0.999391 -0.0349001 2.6076e-08
    outer loop
      vertex 50.9389 -1.75 16
      vertex 50.8952 -3 12
      vertex 50.9144 -2.45 2
    endloop
  endfacet
  facet normal 0.999391 -0.0348985 2.88897e-07
    outer loop
      vertex 50.8758 -3.55758 10.8484
      vertex 50.8952 -3 12
      vertex 50.8778 -3.5 12
    endloop
  endfacet
  facet normal 0.999391 -0.0348981 1.32324e-07
    outer loop
      vertex 50.8952 -3 12
      vertex 50.8758 -3.55758 10.8484
      vertex 50.9144 -2.45 2
    endloop
  endfacet
  facet normal 0.999391 -0.0348992 0
    outer loop
      vertex 50.9144 -2.45 2
      vertex 50.8758 -3.55758 10.8484
      vertex 50.8758 -3.55758 2
    endloop
  endfacet
  facet normal 0.994522 -0.104531 0
    outer loop
      vertex 50.8758 -3.55758 10.8484
      vertex 50.8293 -4 2
      vertex 50.8758 -3.55758 2
    endloop
  endfacet
  facet normal -0.994522 -0.104528 0
    outer loop
      vertex -50.514 -7 41
      vertex -50.8758 -3.55758 42
      vertex -50.8758 -3.55758 41
    endloop
  endfacet
  facet normal -0.994522 -0.104529 2.22942e-06
    outer loop
      vertex -50.514 -7 41
      vertex -50.5037 -7.09783 42
      vertex -50.8758 -3.55758 42
    endloop
  endfacet
  facet normal -0.994519 -0.104552 -0
    outer loop
      vertex -50.5037 -7.09783 42
      vertex -50.514 -7 41
      vertex -50.5037 -7.09783 39.0434
    endloop
  endfacet
  facet normal -0.999391 -0.0348994 0
    outer loop
      vertex -50.8758 -3.55758 41
      vertex -51 0 42
      vertex -51 0 41
    endloop
  endfacet
  facet normal -0.999391 -0.0348994 0
    outer loop
      vertex -51 0 42
      vertex -50.8758 -3.55758 41
      vertex -50.8758 -3.55758 42
    endloop
  endfacet
  facet normal -0.984808 -0.173648 0
    outer loop
      vertex -50.5037 -7.09783 39.0434
      vertex -50.3446 -8 42
      vertex -50.5037 -7.09783 42
    endloop
  endfacet
  facet normal -0.984808 -0.173646 -1.20958e-07
    outer loop
      vertex -50.0801 -9.5 12
      vertex -50.5037 -7.09783 39.0434
      vertex -50.1771 -8.95 2
    endloop
  endfacet
  facet normal -0.984808 -0.173647 3.58271e-08
    outer loop
      vertex -50.5037 -7.09783 39.0434
      vertex -50.0801 -9.5 12
      vertex -50.3446 -8 42
    endloop
  endfacet
  facet normal -0.984807 -0.173652 -4.54121e-07
    outer loop
      vertex -50.1771 -8.95 2
      vertex -49.9919 -10 12
      vertex -50.0801 -9.5 12
    endloop
  endfacet
  facet normal -0.984808 -0.173646 1.07998e-07
    outer loop
      vertex -49.9919 -10 12
      vertex -50.1771 -8.95 2
      vertex -49.9038 -10.5 2
    endloop
  endfacet
endsolid OpenSCAD_Model
