<?xml version="1.0" encoding="UTF-8" standalone="no"?>
<!-- Created with Inkscape (http://www.inkscape.org/) -->

<svg
   xmlns:dc="http://purl.org/dc/elements/1.1/"
   xmlns:cc="http://creativecommons.org/ns#"
   xmlns:rdf="http://www.w3.org/1999/02/22-rdf-syntax-ns#"
   xmlns:svg="http://www.w3.org/2000/svg"
   xmlns="http://www.w3.org/2000/svg"
   xmlns:sodipodi="http://sodipodi.sourceforge.net/DTD/sodipodi-0.dtd"
   xmlns:inkscape="http://www.inkscape.org/namespaces/inkscape"
   width="46mm"
   height="14mm"
   viewBox="0 0 46 14"
   version="1.1"
   id="svg8"
   inkscape:version="0.92.1 r15371"
   sodipodi:docname="fablab-label.svg">
  <defs
     id="defs2" />
  <sodipodi:namedview
     id="base"
     pagecolor="#ffffff"
     bordercolor="#666666"
     borderopacity="1.0"
     inkscape:pageopacity="0.0"
     inkscape:pageshadow="2"
     inkscape:zoom="5.6"
     inkscape:cx="71.84983"
     inkscape:cy="42.957249"
     inkscape:document-units="mm"
     inkscape:current-layer="layer1"
     showgrid="false"
     inkscape:window-width="1920"
     inkscape:window-height="1017"
     inkscape:window-x="-8"
     inkscape:window-y="-8"
     inkscape:window-maximized="1"
     inkscape:measure-start="0,0"
     inkscape:measure-end="0,0"
     fit-margin-top="0"
     fit-margin-left="0"
     fit-margin-right="0"
     fit-margin-bottom="0"
     showborder="true" />
  <metadata
     id="metadata5">
    <rdf:RDF>
      <cc:Work
         rdf:about="">
        <dc:format>image/svg+xml</dc:format>
        <dc:type
           rdf:resource="http://purl.org/dc/dcmitype/StillImage" />
        <dc:title></dc:title>
      </cc:Work>
    </rdf:RDF>
  </metadata>
  <g
     inkscape:label="Layer 1"
     inkscape:groupmode="layer"
     id="layer1"
     transform="translate(0.78499116,-281.53134)">
    <g
       aria-label="FABLAB
FRIBOURG"
       style="font-style:normal;font-weight:normal;font-size:8.72805786px;line-height:1.25;font-family:sans-serif;letter-spacing:0px;word-spacing:0px;fill:none;fill-opacity:1;stroke:#000000;stroke-width:0.03527778;stroke-miterlimit:4;stroke-dasharray:none;stroke-opacity:1"
       id="text4487-2-0"
       transform="matrix(-1,0,0,1,44.430017,0)">
      <path
         d="m 8.5458566,284.82539 h 1.4081266 v 1.0561 H 8.5458566 Z m 0,-1.95217 h 1.8945704 v 1.06249 H 8.5458566 Z m -1.9585761,4.95404 v -4.95404 H 7.982606 v 4.95404 z"
         style="font-style:normal;font-variant:normal;font-weight:normal;font-stretch:normal;font-size:6.40057564px;font-family:'Sargento Gorila';-inkscape-font-specification:'Sargento Gorila';text-align:center;letter-spacing:1.09100723px;text-anchor:middle;fill:none;stroke:#000000;stroke-width:0.03527778;stroke-miterlimit:4;stroke-dasharray:none;stroke-opacity:1"
         id="path4610"
         inkscape:connector-curvature="0" />
      <path
         d="m 13.155881,282.87322 h 1.241711 l 1.657749,4.95404 H 14.59601 l -0.185617,-0.64645 H 13.3671 l 0.307227,-1.0369 h 0.454441 z m -0.55045,4.95404 h -1.382524 l 1.497734,-4.4932 0.608055,2.02258 z"
         style="font-style:normal;font-variant:normal;font-weight:normal;font-stretch:normal;font-size:6.40057564px;font-family:'Sargento Gorila';-inkscape-font-specification:'Sargento Gorila';text-align:center;letter-spacing:1.09100723px;text-anchor:middle;fill:none;stroke:#000000;stroke-width:0.03527778;stroke-miterlimit:4;stroke-dasharray:none;stroke-opacity:1"
         id="path4612"
         inkscape:connector-curvature="0" />
      <path
         d="M 18.790396,287.82726 H 17.39507 v -4.95404 h 1.395326 z m 1.286515,-1.61294 q 0,-0.16001 -0.0512,-0.26242 -0.0512,-0.10241 -0.147213,-0.16002 -0.09601,-0.064 -0.230421,-0.0896 -0.134412,-0.0256 -0.294427,-0.032 v -0.94088 q 0.115211,0 0.211219,-0.0128 0.09601,-0.0192 0.166415,-0.064 0.07681,-0.0448 0.115211,-0.12161 0.0448,-0.0832 0.0448,-0.21762 0,-0.13441 -0.0448,-0.21122 -0.0448,-0.0768 -0.121611,-0.12161 -0.07681,-0.0448 -0.172816,-0.0576 -0.09601,-0.0192 -0.198418,-0.0192 v -1.03049 q 0.249623,0 0.582453,0.0256 0.33923,0.0256 0.640057,0.14721 0.307228,0.11522 0.518447,0.37124 0.211219,0.24962 0.211219,0.69766 0,0.26883 -0.08961,0.45444 -0.08321,0.18562 -0.204818,0.31363 -0.121611,0.12161 -0.262424,0.19842 -0.134412,0.0768 -0.236821,0.11521 0.11521,0.0384 0.281625,0.10881 0.172815,0.0704 0.326429,0.21122 0.153614,0.14081 0.262424,0.35843 0.10881,0.21762 0.10881,0.54405 0,0.33283 -0.10241,0.56965 -0.102409,0.23042 -0.275224,0.39043 -0.172816,0.15362 -0.396836,0.24323 -0.21762,0.0896 -0.454441,0.13441 -0.236821,0.0448 -0.473642,0.0576 -0.230421,0.0128 -0.428839,0.0128 v -1.04969 q 0.128012,0 0.256023,-0.0192 0.128012,-0.0256 0.230421,-0.0832 0.102409,-0.064 0.166415,-0.17281 0.064,-0.10881 0.064,-0.28803 z"
         style="font-style:normal;font-variant:normal;font-weight:normal;font-stretch:normal;font-size:6.40057564px;font-family:'Sargento Gorila';-inkscape-font-specification:'Sargento Gorila';text-align:center;letter-spacing:1.09100723px;text-anchor:middle;fill:none;stroke:#000000;stroke-width:0.03527778;stroke-miterlimit:4;stroke-dasharray:none;stroke-opacity:1"
         id="path4614"
         inkscape:connector-curvature="0" />
      <path
         d="m 24.932558,286.73277 h 1.568141 v 1.09449 h -1.568141 z m -1.958576,1.09449 v -4.95404 h 1.395326 v 4.95404 z"
         style="font-style:normal;font-variant:normal;font-weight:normal;font-stretch:normal;font-size:6.40057564px;font-family:'Sargento Gorila';-inkscape-font-specification:'Sargento Gorila';text-align:center;letter-spacing:1.09100723px;text-anchor:middle;fill:none;stroke:#000000;stroke-width:0.03527778;stroke-miterlimit:4;stroke-dasharray:none;stroke-opacity:1"
         id="path4616"
         inkscape:connector-curvature="0" />
      <path
         d="m 29.605087,282.87322 h 1.241712 l 1.657749,4.95404 H 31.045216 L 30.8596,287.18081 h -1.043294 l 0.307227,-1.0369 h 0.454441 z m -0.55045,4.95404 h -1.382524 l 1.497735,-4.4932 0.608054,2.02258 z"
         style="font-style:normal;font-variant:normal;font-weight:normal;font-stretch:normal;font-size:6.40057564px;font-family:'Sargento Gorila';-inkscape-font-specification:'Sargento Gorila';text-align:center;letter-spacing:1.09100723px;text-anchor:middle;fill:none;stroke:#000000;stroke-width:0.03527778;stroke-miterlimit:4;stroke-dasharray:none;stroke-opacity:1"
         id="path4618"
         inkscape:connector-curvature="0" />
      <path
         d="m 35.239602,287.82726 h -1.395325 v -4.95404 h 1.395325 z m 1.286516,-1.61294 q 0,-0.16001 -0.0512,-0.26242 -0.0512,-0.10241 -0.147213,-0.16002 -0.09601,-0.064 -0.230421,-0.0896 -0.134412,-0.0256 -0.294426,-0.032 v -0.94088 q 0.11521,0 0.211219,-0.0128 0.09601,-0.0192 0.166415,-0.064 0.07681,-0.0448 0.11521,-0.12161 0.0448,-0.0832 0.0448,-0.21762 0,-0.13441 -0.0448,-0.21122 -0.0448,-0.0768 -0.121611,-0.12161 -0.07681,-0.0448 -0.172815,-0.0576 -0.09601,-0.0192 -0.198418,-0.0192 v -1.03049 q 0.249622,0 0.582452,0.0256 0.339231,0.0256 0.640058,0.14721 0.307227,0.11522 0.518446,0.37124 0.211219,0.24962 0.211219,0.69766 0,0.26883 -0.08961,0.45444 -0.08321,0.18562 -0.204818,0.31363 -0.121611,0.12161 -0.262424,0.19842 -0.134412,0.0768 -0.236821,0.11521 0.11521,0.0384 0.281625,0.10881 0.172816,0.0704 0.32643,0.21122 0.153613,0.14081 0.262423,0.35843 0.10881,0.21762 0.10881,0.54405 0,0.33283 -0.102409,0.56965 -0.102409,0.23042 -0.275225,0.39043 -0.172815,0.15362 -0.396836,0.24323 -0.217619,0.0896 -0.45444,0.13441 -0.236822,0.0448 -0.473643,0.0576 -0.230421,0.0128 -0.428839,0.0128 v -1.04969 q 0.128012,0 0.256023,-0.0192 0.128012,-0.0256 0.230421,-0.0832 0.102409,-0.064 0.166415,-0.17281 0.06401,-0.10881 0.06401,-0.28803 z"
         style="font-style:normal;font-variant:normal;font-weight:normal;font-stretch:normal;font-size:6.40057564px;font-family:'Sargento Gorila';-inkscape-font-specification:'Sargento Gorila';text-align:center;letter-spacing:1.09100723px;text-anchor:middle;fill:none;stroke:#000000;stroke-width:0.03527778;stroke-miterlimit:4;stroke-dasharray:none;stroke-opacity:1"
         id="path4620"
         inkscape:connector-curvature="0" />
      <path
         d="m 3.2732233,291.11716 h 1.4081266 v 1.05609 H 3.2732233 Z m 0,-1.95218 h 1.8945704 v 1.0625 H 3.2732233 Z m -1.9585761,4.95405 v -4.95405 h 1.3953254 v 4.95405 z"
         style="font-style:normal;font-variant:normal;font-weight:normal;font-stretch:normal;font-size:6.40057564px;font-family:'Sargento Gorila';-inkscape-font-specification:'Sargento Gorila';text-align:center;letter-spacing:1.09100723px;text-anchor:middle;fill:none;stroke:#000000;stroke-width:0.03527778;stroke-miterlimit:4;stroke-dasharray:none;stroke-opacity:1"
         id="path4622"
         inkscape:connector-curvature="0" />
      <path
         d="M 8.5021028,289.16498 H 9.116558 q 0.3584322,0 0.6400576,0.12161 0.2880254,0.12161 0.4864434,0.32643 0.198418,0.20482 0.300827,0.48004 0.10881,0.26883 0.10881,0.56966 0,0.44164 -0.134412,0.72966 -0.134412,0.28803 -0.294426,0.45444 -0.192018,0.19842 -0.428839,0.30083 l 1.1073,1.97138 H 9.3341776 l -0.8320748,-1.67695 v -1.0561 q 0.134412,-0.006 0.2624236,-0.032 0.134412,-0.0256 0.2368213,-0.0896 0.1088097,-0.0704 0.1728155,-0.18562 0.064006,-0.12161 0.064006,-0.31363 0,-0.28162 -0.1856167,-0.41603 -0.1792162,-0.13441 -0.4416398,-0.13441 H 8.5021028 Z m -0.5632507,4.95405 H 6.5435266 v -4.95405 h 1.3953255 z"
         style="font-style:normal;font-variant:normal;font-weight:normal;font-stretch:normal;font-size:6.40057564px;font-family:'Sargento Gorila';-inkscape-font-specification:'Sargento Gorila';text-align:center;letter-spacing:1.09100723px;text-anchor:middle;fill:none;stroke:#000000;stroke-width:0.03527778;stroke-miterlimit:4;stroke-dasharray:none;stroke-opacity:1"
         id="path4624"
         inkscape:connector-curvature="0" />
      <path
         d="m 12.134638,289.16498 h 1.414528 v 4.95405 h -1.414528 z"
         style="font-style:normal;font-variant:normal;font-weight:normal;font-stretch:normal;font-size:6.40057564px;font-family:'Sargento Gorila';-inkscape-font-specification:'Sargento Gorila';text-align:center;letter-spacing:1.09100723px;text-anchor:middle;fill:none;stroke:#000000;stroke-width:0.03527778;stroke-miterlimit:4;stroke-dasharray:none;stroke-opacity:1"
         id="path4626"
         inkscape:connector-curvature="0" />
      <path
         d="m 16.508941,294.11903 h -1.395326 v -4.95405 h 1.395326 z m 1.286516,-1.61295 q 0,-0.16001 -0.0512,-0.26242 -0.0512,-0.10241 -0.147213,-0.16002 -0.09601,-0.064 -0.230421,-0.0896 -0.134412,-0.0256 -0.294426,-0.032 v -0.94088 q 0.11521,0 0.211219,-0.0128 0.09601,-0.0192 0.166415,-0.064 0.07681,-0.0448 0.11521,-0.12161 0.0448,-0.0832 0.0448,-0.21762 0,-0.13441 -0.0448,-0.21122 -0.0448,-0.0768 -0.121611,-0.12161 -0.07681,-0.0448 -0.172816,-0.0576 -0.09601,-0.0192 -0.198417,-0.0192 v -1.03049 q 0.249622,0 0.582452,0.0256 0.339231,0.0256 0.640058,0.14722 0.307227,0.11521 0.518446,0.37123 0.211219,0.24962 0.211219,0.69766 0,0.26883 -0.08961,0.45444 -0.08321,0.18562 -0.204818,0.31363 -0.121611,0.12161 -0.262424,0.19842 -0.134412,0.0768 -0.236821,0.11521 0.11521,0.0384 0.281625,0.10881 0.172816,0.0704 0.326429,0.21122 0.153614,0.14081 0.262424,0.35843 0.10881,0.21762 0.10881,0.54405 0,0.33283 -0.102409,0.56965 -0.10241,0.23042 -0.275225,0.39044 -0.172816,0.15361 -0.396836,0.24322 -0.217619,0.0896 -0.454441,0.13441 -0.236821,0.0448 -0.473642,0.0576 -0.230421,0.0128 -0.428839,0.0128 v -1.0497 q 0.128012,0 0.256023,-0.0192 0.128012,-0.0256 0.230421,-0.0832 0.102409,-0.064 0.166415,-0.17281 0.06401,-0.10881 0.06401,-0.28803 z"
         style="font-style:normal;font-variant:normal;font-weight:normal;font-stretch:normal;font-size:6.40057564px;font-family:'Sargento Gorila';-inkscape-font-specification:'Sargento Gorila';text-align:center;letter-spacing:1.09100723px;text-anchor:middle;fill:none;stroke:#000000;stroke-width:0.03527778;stroke-miterlimit:4;stroke-dasharray:none;stroke-opacity:1"
         id="path4628"
         inkscape:connector-curvature="0" />
      <path
         d="m 22.794916,290.4387 q -0.403236,0.0896 -0.659259,0.40323 -0.249623,0.30723 -0.249623,0.78727 0,0.21122 0.06401,0.40964 0.07041,0.19202 0.192017,0.35203 0.121611,0.16002 0.288026,0.28163 0.166415,0.11521 0.364833,0.16641 v 1.35052 q -0.518446,-0.0448 -0.947285,-0.24962 -0.422438,-0.21122 -0.729666,-0.54405 -0.307227,-0.33923 -0.473642,-0.78727 -0.166415,-0.44804 -0.166415,-0.97929 0,-0.51204 0.166415,-0.96008 0.172815,-0.44804 0.480043,-0.78727 0.307228,-0.34564 0.729666,-0.56326 0.428838,-0.21762 0.940884,-0.26882 z m 1.472133,1.1905 q 0,-0.24962 -0.07041,-0.44804 -0.07041,-0.20482 -0.192017,-0.35843 -0.121611,-0.15361 -0.288026,-0.24962 -0.166415,-0.10241 -0.358432,-0.14082 v -1.38252 q 0.505645,0.0448 0.928083,0.25602 0.428839,0.20482 0.736066,0.54405 0.307228,0.33923 0.480044,0.79367 0.172815,0.45444 0.172815,0.98569 0,0.54405 -0.172815,0.99849 -0.172816,0.44804 -0.480044,0.78087 -0.307227,0.33283 -0.736066,0.53765 -0.422438,0.19842 -0.928083,0.24322 v -1.33772 q 0.192017,-0.0512 0.358432,-0.16641 0.166415,-0.11521 0.288026,-0.27523 0.121611,-0.16641 0.192017,-0.36483 0.07041,-0.19842 0.07041,-0.41604 z"
         style="font-style:normal;font-variant:normal;font-weight:normal;font-stretch:normal;font-size:6.40057564px;font-family:'Sargento Gorila';-inkscape-font-specification:'Sargento Gorila';text-align:center;letter-spacing:1.09100723px;text-anchor:middle;fill:none;stroke:#000000;stroke-width:0.03527778;stroke-miterlimit:4;stroke-dasharray:none;stroke-opacity:1"
         id="path4630"
         inkscape:connector-curvature="0" />
      <path
         d="m 29.482426,292.90932 q 0.160014,-0.0512 0.249622,-0.15362 0.09601,-0.10241 0.140813,-0.23042 0.0448,-0.13441 0.0512,-0.27522 0.0128,-0.14722 0.0128,-0.28163 v -2.80345 h 1.395325 v 2.82906 q 0,0.34563 -0.07681,0.71686 -0.07041,0.37123 -0.275224,0.68486 -0.198418,0.30723 -0.563251,0.52485 -0.358432,0.21762 -0.934484,0.26242 z m -2.419418,-3.74434 h 1.401726 v 2.80345 q 0,0.13441 0.0128,0.28163 0.0128,0.14081 0.0576,0.27522 0.0448,0.12801 0.134412,0.23042 0.08961,0.10241 0.243222,0.15362 v 1.27371 q -0.601654,-0.0448 -0.966487,-0.25602 -0.364833,-0.21762 -0.563251,-0.52485 -0.192017,-0.31363 -0.256023,-0.68486 -0.06401,-0.37123 -0.06401,-0.72326 z"
         style="font-style:normal;font-variant:normal;font-weight:normal;font-stretch:normal;font-size:6.40057564px;font-family:'Sargento Gorila';-inkscape-font-specification:'Sargento Gorila';text-align:center;letter-spacing:1.09100723px;text-anchor:middle;fill:none;stroke:#000000;stroke-width:0.03527778;stroke-miterlimit:4;stroke-dasharray:none;stroke-opacity:1"
         id="path4632"
         inkscape:connector-curvature="0" />
      <path
         d="m 34.87152,289.16498 h 0.614456 q 0.358432,0 0.640057,0.12161 0.288026,0.12161 0.486444,0.32643 0.198418,0.20482 0.300827,0.48004 0.10881,0.26883 0.10881,0.56966 0,0.44164 -0.134412,0.72966 -0.134412,0.28803 -0.294427,0.45444 -0.192017,0.19842 -0.428838,0.30083 l 1.107299,1.97138 h -1.568141 l -0.832075,-1.67695 v -1.0561 q 0.134413,-0.006 0.262424,-0.032 0.134412,-0.0256 0.236821,-0.0896 0.10881,-0.0704 0.172816,-0.18562 0.06401,-0.12161 0.06401,-0.31363 0,-0.28162 -0.185617,-0.41603 -0.179216,-0.13441 -0.44164,-0.13441 h -0.10881 z m -0.56325,4.95405 h -1.395326 v -4.95405 h 1.395326 z"
         style="font-style:normal;font-variant:normal;font-weight:normal;font-stretch:normal;font-size:6.40057564px;font-family:'Sargento Gorila';-inkscape-font-specification:'Sargento Gorila';text-align:center;letter-spacing:1.09100723px;text-anchor:middle;fill:none;stroke:#000000;stroke-width:0.03527778;stroke-miterlimit:4;stroke-dasharray:none;stroke-opacity:1"
         id="path4634"
         inkscape:connector-curvature="0" />
      <path
         d="m 40.823964,289.03697 q 0.582452,0.032 1.056095,0.28162 0.473642,0.24963 0.800072,0.66566 l -1.1073,0.86408 q -0.134412,-0.18561 -0.33283,-0.30083 -0.192017,-0.12161 -0.416037,-0.15361 z m -0.563251,5.13326 q -0.499245,-0.0576 -0.908882,-0.26242 -0.409636,-0.20482 -0.704063,-0.53125 -0.294426,-0.33283 -0.454441,-0.76807 -0.160014,-0.44164 -0.160014,-0.96009 0,-0.49924 0.160014,-0.94088 0.166415,-0.44804 0.460842,-0.78727 0.300827,-0.34563 0.704063,-0.56965 0.409637,-0.22402 0.902481,-0.29443 v 1.38893 q -0.364833,0.11521 -0.595253,0.43523 -0.22402,0.32003 -0.22402,0.76807 0,0.20482 0.05761,0.39044 0.064,0.17922 0.172815,0.33283 0.10881,0.15361 0.256023,0.27522 0.153614,0.11521 0.33283,0.17922 z m 2.854657,-0.0512 h -1.126501 v -0.33283 q -0.256023,0.16641 -0.55045,0.27522 -0.288026,0.10241 -0.614455,0.12801 v -1.30571 q 0.281625,-0.0256 0.44804,-0.10241 0.166415,-0.0832 0.262424,-0.17282 0.10881,-0.10241 0.160014,-0.22402 h -0.723265 v -1.0625 h 2.144193 z"
         style="font-style:normal;font-variant:normal;font-weight:normal;font-stretch:normal;font-size:6.40057564px;font-family:'Sargento Gorila';-inkscape-font-specification:'Sargento Gorila';text-align:center;letter-spacing:1.09100723px;text-anchor:middle;fill:none;stroke:#000000;stroke-width:0.03527778;stroke-miterlimit:4;stroke-dasharray:none;stroke-opacity:1"
         id="path4636"
         inkscape:connector-curvature="0" />
    </g>
    <rect
       style="fill:none;fill-opacity:1;stroke:#000000;stroke-width:0.03527778;stroke-miterlimit:4;stroke-dasharray:none;stroke-dashoffset:0;stroke-opacity:1"
       id="rect4578"
       width="45.900871"
       height="13.900872"
       x="-0.73542738"
       y="281.5809" />
    <text
       xml:space="preserve"
       style="font-style:normal;font-weight:normal;font-size:8.72805786px;line-height:1.25;font-family:sans-serif;letter-spacing:0px;word-spacing:0px;fill:#000000;fill-opacity:1;stroke:none;stroke-width:0.03527778;stroke-miterlimit:4;stroke-dasharray:none"
       x="22.669411"
       y="265.68698"
       id="text4487-2-0-6"><tspan
         sodipodi:role="line"
         id="tspan4485-4-5-8"
         x="23.214914"
         y="265.68698"
         style="font-style:normal;font-variant:normal;font-weight:normal;font-stretch:normal;font-size:6.40057564px;font-family:'Sargento Gorila';-inkscape-font-specification:'Sargento Gorila';text-align:center;letter-spacing:1.09100723px;text-anchor:middle;stroke-width:0.03527778;stroke-miterlimit:4;stroke-dasharray:none"
         dy="4.6183109">FABLAB</tspan><tspan
         sodipodi:role="line"
         x="23.214914"
         y="276.59705"
         style="font-style:normal;font-variant:normal;font-weight:normal;font-stretch:normal;font-size:6.40057564px;font-family:'Sargento Gorila';-inkscape-font-specification:'Sargento Gorila';text-align:center;letter-spacing:1.09100723px;text-anchor:middle;stroke-width:0.03527778;stroke-miterlimit:4;stroke-dasharray:none"
         id="tspan4489-1-3-0">FRIBOURG</tspan></text>
  </g>
</svg>
