  0
SECTION
  2
HEADER
  9
$ACADVER
  1
AC1014
  9
$HANDSEED
  5
FFFF
  9
$MEASUREMENT
 70
     1
  0
ENDSEC
  0
SECTION
  2
TABLES
  0
TABLE
  2
VPORT
  5
8
330
0
100
AcDbSymbolTable
 70
     4
  0
VPORT
  5
2E
330
8
100
AcDbSymbolTableRecord
100
AcDbViewportTableRecord
  2
*ACTIVE
 70
     0
 10
0.0
 20
0.0
 11
1.0
 21
1.0
 12
210.0
 22
148.5
 13
0.0
 23
0.0
 14
10.0
 24
10.0
 15
10.0
 25
10.0
 16
0.0
 26
0.0
 36
1.0
 17
0.0
 27
0.0
 37
0.0
 40
341.0
 41
1.24
 42
50.0
 43
0.0
 44
0.0
 50
0.0
 51
0.0
 71
     0
 72
   100
 73
     1
 74
     3
 75
     0
 76
     0
 77
     0
 78
     0
  0
ENDTAB
  0
TABLE
  2
LTYPE
  5
5
330
0
100
AcDbSymbolTable
 70
     1
  0
LTYPE
  5
14
330
5
100
AcDbSymbolTableRecord
100
AcDbLinetypeTableRecord
  2
BYBLOCK
 70
     0
  3

 72
    65
 73
     0
 40
0.0
  0
LTYPE
  5
15
330
5
100
AcDbSymbolTableRecord
100
AcDbLinetypeTableRecord
  2
BYLAYER
 70
     0
  3

 72
    65
 73
     0
 40
0.0
  0
LTYPE
  5
16
330
5
100
AcDbSymbolTableRecord
100
AcDbLinetypeTableRecord
  2
CONTINUOUS
 70
     0
  3
Solid line
 72
    65
 73
     0
 40
0.0
  0
ENDTAB
  0
TABLE
  2
LAYER
  5
2
100
AcDbSymbolTable
 70
2
  0
LAYER
  5
50
100
AcDbSymbolTableRecord
100
AcDbLayerTableRecord
  2
0
 70
0
  6
CONTINUOUS
  0
LAYER
  5
51
100
AcDbSymbolTableRecord
100
AcDbLayerTableRecord
  2
Layer_1
 70
0
  6
CONTINUOUS
  0
ENDTAB
  0
TABLE
  2
STYLE
  5
3
330
0
100
AcDbSymbolTable
 70
     1
  0
STYLE
  5
11
330
3
100
AcDbSymbolTableRecord
100
AcDbTextStyleTableRecord
  2
STANDARD
 70
     0
 40
0.0
 41
1.0
 50
0.0
 71
     0
 42
2.5
  3
txt
  4

  0
ENDTAB
  0
TABLE
  2
VIEW
  5
6
330
0
100
AcDbSymbolTable
 70
     0
  0
ENDTAB
  0
TABLE
  2
UCS
  5
7
330
0
100
AcDbSymbolTable
 70
     0
  0
ENDTAB
  0
TABLE
  2
APPID
  5
9
330
0
100
AcDbSymbolTable
 70
     2
  0
APPID
  5
12
330
9
100
AcDbSymbolTableRecord
100
AcDbRegAppTableRecord
  2
ACAD
 70
     0
  0
ENDTAB
  0
TABLE
  2
DIMSTYLE
  5
A
330
0
100
AcDbSymbolTable
 70
     1
  0
DIMSTYLE
105
27
330
A
100
AcDbSymbolTableRecord
100
AcDbDimStyleTableRecord
  2
ISO-25
 70
     0
  3

  4

  5

  6

  7

 40
1.0
 41
2.5
 42
0.625
 43
3.75
 44
1.25
 45
0.0
 46
0.0
 47
0.0
 48
0.0
140
2.5
141
2.5
142
0.0
143
0.03937007874016
144
1.0
145
0.0
146
1.0
147
0.625
 71
     0
 72
     0
 73
     0
 74
     0
 75
     0
 76
     0
 77
     1
 78
     8
170
     0
171
     3
172
     1
173
     0
174
     0
175
     0
176
     0
177
     0
178
     0
270
     2
271
     2
272
     2
273
     2
274
     3
340
11
275
     0
280
     0
281
     0
282
     0
283
     0
284
     8
285
     0
286
     0
287
     3
288
     0
  0
ENDTAB
  0
TABLE
  2
BLOCK_RECORD
  5
1
330
0
100
AcDbSymbolTable
 70
     1
  0
BLOCK_RECORD
  5
1F
330
1
100
AcDbSymbolTableRecord
100
AcDbBlockTableRecord
  2
*MODEL_SPACE
  0
BLOCK_RECORD
  5
1B
330
1
100
AcDbSymbolTableRecord
100
AcDbBlockTableRecord
  2
*PAPER_SPACE
  0
ENDTAB
  0
ENDSEC
  0
SECTION
  2
BLOCKS
  0
BLOCK
  5
20
330
1F
100
AcDbEntity
  8
0
100
AcDbBlockBegin
  2
*MODEL_SPACE
 70
     0
 10
0.0
 20
0.0
 30
0.0
  3
*MODEL_SPACE
  1

  0
ENDBLK
  5
21
330
1F
100
AcDbEntity
  8
0
100
AcDbBlockEnd
  0
BLOCK
  5
1C
330
1B
100
AcDbEntity
 67
     1
  8
0
100
AcDbBlockBegin
  2
*PAPER_SPACE
  1

  0
ENDBLK
  5
1D
330
1B
100
AcDbEntity
 67
     1
  8
0
100
AcDbBlockEnd
  0
ENDSEC
  0
SECTION
  2
ENTITIES
  0
LWPOLYLINE
  5
100
100
AcDbEntity
  8
Layer_1
 62
7
100
AcDbPolyline
 90
102
 70
0
 10
0.849974
 20
11.600010
 30
0.0
 10
0.698828
 20
11.584770
 30
0.0
 10
0.558049
 20
11.541068
 30
0.0
 10
0.430655
 20
11.471919
 30
0.0
 10
0.319660
 20
11.380340
 30
0.0
 10
0.228081
 20
11.269345
 30
0.0
 10
0.158932
 20
11.141951
 30
0.0
 10
0.115230
 20
11.001172
 30
0.0
 10
0.099990
 20
10.850026
 30
0.0
 10
0.112783
 20
10.712436
 30
0.0
 10
0.149425
 20
10.582739
 30
0.0
 10
0.207772
 20
10.463386
 30
0.0
 10
0.285677
 20
10.356827
 30
0.0
 10
0.380996
 20
10.265512
 30
0.0
 10
0.491583
 20
10.191892
 30
0.0
 10
0.615294
 20
10.138418
 30
0.0
 10
0.749984
 20
10.107539
 30
0.0
 10
0.749984
 20
1.592421
 30
0.0
 10
0.615301
 20
1.561544
 30
0.0
 10
0.491596
 20
1.508074
 30
0.0
 10
0.381012
 20
1.434461
 30
0.0
 10
0.285695
 20
1.343154
 30
0.0
 10
0.207789
 20
1.236603
 30
0.0
 10
0.149440
 20
1.117258
 30
0.0
 10
0.112792
 20
0.987570
 30
0.0
 10
0.099990
 20
0.849989
 30
0.0
 10
0.115230
 20
0.698842
 30
0.0
 10
0.158932
 20
0.558064
 30
0.0
 10
0.228081
 20
0.430670
 30
0.0
 10
0.319660
 20
0.319675
 30
0.0
 10
0.430655
 20
0.228096
 30
0.0
 10
0.558049
 20
0.158947
 30
0.0
 10
0.698828
 20
0.115245
 30
0.0
 10
0.849974
 20
0.100005
 30
0.0
 10
0.987564
 20
0.112798
 30
0.0
 10
1.117261
 20
0.149440
 30
0.0
 10
1.236614
 20
0.207786
 30
0.0
 10
1.343173
 20
0.285692
 30
0.0
 10
1.434488
 20
0.381011
 30
0.0
 10
1.508108
 20
0.491598
 30
0.0
 10
1.561582
 20
0.615309
 30
0.0
 10
1.592461
 20
0.749998
 30
0.0
 10
6.107576
 20
0.749998
 30
0.0
 10
6.138452
 20
0.615316
 30
0.0
 10
6.191922
 20
0.491611
 30
0.0
 10
6.265535
 20
0.381027
 30
0.0
 10
6.356843
 20
0.285710
 30
0.0
 10
6.463393
 20
0.207804
 30
0.0
 10
6.582738
 20
0.149455
 30
0.0
 10
6.712426
 20
0.112807
 30
0.0
 10
6.850007
 20
0.100005
 30
0.0
 10
7.001154
 20
0.115245
 30
0.0
 10
7.141932
 20
0.158947
 30
0.0
 10
7.269326
 20
0.228096
 30
0.0
 10
7.380321
 20
0.319675
 30
0.0
 10
7.471901
 20
0.430670
 30
0.0
 10
7.541049
 20
0.558064
 30
0.0
 10
7.584751
 20
0.698842
 30
0.0
 10
7.599991
 20
0.849989
 30
0.0
 10
7.587181
 20
0.987562
 30
0.0
 10
7.550527
 20
1.117241
 30
0.0
 10
7.492175
 20
1.236577
 30
0.0
 10
7.414268
 20
1.343119
 30
0.0
 10
7.318953
 20
1.434419
 30
0.0
 10
7.208373
 20
1.508026
 30
0.0
 10
7.084673
 20
1.561492
 30
0.0
 10
6.949998
 20
1.592365
 30
0.0
 10
6.949998
 20
10.107539
 30
0.0
 10
7.084687
 20
10.138418
 30
0.0
 10
7.208398
 20
10.191892
 30
0.0
 10
7.318986
 20
10.265512
 30
0.0
 10
7.414305
 20
10.356827
 30
0.0
 10
7.492210
 20
10.463386
 30
0.0
 10
7.550556
 20
10.582739
 30
0.0
 10
7.587198
 20
10.712436
 30
0.0
 10
7.599991
 20
10.850026
 30
0.0
 10
7.584751
 20
11.001172
 30
0.0
 10
7.541049
 20
11.141951
 30
0.0
 10
7.471901
 20
11.269345
 30
0.0
 10
7.380321
 20
11.380340
 30
0.0
 10
7.269326
 20
11.471919
 30
0.0
 10
7.141932
 20
11.541068
 30
0.0
 10
7.001154
 20
11.584770
 30
0.0
 10
6.850007
 20
11.600010
 30
0.0
 10
6.712434
 20
11.587199
 30
0.0
 10
6.582755
 20
11.550546
 30
0.0
 10
6.463419
 20
11.492193
 30
0.0
 10
6.356877
 20
11.414287
 30
0.0
 10
6.265577
 20
11.318971
 30
0.0
 10
6.191970
 20
11.208391
 30
0.0
 10
6.138505
 20
11.084691
 30
0.0
 10
6.107631
 20
10.950016
 30
0.0
 10
1.592461
 20
10.950016
 30
0.0
 10
1.561582
 20
11.084706
 30
0.0
 10
1.508108
 20
11.208417
 30
0.0
 10
1.434488
 20
11.319004
 30
0.0
 10
1.343173
 20
11.414323
 30
0.0
 10
1.236614
 20
11.492228
 30
0.0
 10
1.117261
 20
11.550575
 30
0.0
 10
0.987564
 20
11.587217
 30
0.0
 10
0.849974
 20
11.600010
 30
0.0
 10
0.849974
 20
11.600010
 30
0.0
  0
LWPOLYLINE
  5
101
100
AcDbEntity
  8
Layer_1
 62
7
100
AcDbPolyline
 90
17
 70
0
 10
1.592406
 20
10.749980
 30
0.0
 10
6.107741
 20
10.749980
 30
0.0
 10
6.140333
 20
10.610506
 30
0.0
 10
6.198223
 20
10.480879
 30
0.0
 10
6.279498
 20
10.364481
 30
0.0
 10
6.382246
 20
10.264691
 30
0.0
 10
4.146572
 20
6.538585
 30
0.0
 10
4.001427
 20
6.584412
 30
0.0
 10
3.850018
 20
6.599991
 30
0.0
 10
3.698752
 20
6.584136
 30
0.0
 10
3.553795
 20
6.538090
 30
0.0
 10
1.318121
 20
10.264194
 30
0.0
 10
1.420872
 20
10.364108
 30
0.0
 10
1.502111
 20
10.480636
 30
0.0
 10
1.559927
 20
10.610390
 30
0.0
 10
1.592406
 20
10.749980
 30
0.0
 10
1.592406
 20
10.749980
 30
0.0
  0
LWPOLYLINE
  5
102
100
AcDbEntity
  8
Layer_1
 62
7
100
AcDbPolyline
 90
25
 70
0
 10
1.146252
 20
10.161944
 30
0.0
 10
3.381926
 20
6.435839
 30
0.0
 10
3.318669
 20
6.379169
 30
0.0
 10
3.262729
 20
6.316340
 30
0.0
 10
3.214450
 20
6.248067
 30
0.0
 10
3.174174
 20
6.175062
 30
0.0
 10
3.142246
 20
6.098041
 30
0.0
 10
3.119008
 20
6.017715
 30
0.0
 10
3.104805
 20
5.934800
 30
0.0
 10
3.099980
 20
5.850007
 30
0.0
 10
3.104881
 20
5.765267
 30
0.0
 10
3.119148
 20
5.682408
 30
0.0
 10
3.142437
 20
5.602144
 30
0.0
 10
3.174406
 20
5.525187
 30
0.0
 10
3.214710
 20
5.452249
 30
0.0
 10
3.263006
 20
5.384042
 30
0.0
 10
3.318951
 20
5.321279
 30
0.0
 10
3.382202
 20
5.264672
 30
0.0
 10
1.146528
 20
1.538622
 30
0.0
 10
1.050111
 20
1.572253
 30
0.0
 10
0.950020
 20
1.592476
 30
0.0
 10
0.950020
 20
10.107815
 30
0.0
 10
1.049981
 20
10.128191
 30
0.0
 10
1.146252
 20
10.161944
 30
0.0
 10
1.146252
 20
10.161944
 30
0.0
  0
LWPOLYLINE
  5
103
100
AcDbEntity
  8
Layer_1
 62
7
100
AcDbPolyline
 90
25
 70
0
 10
6.553453
 20
10.161338
 30
0.0
 10
6.649897
 20
10.127703
 30
0.0
 10
6.750017
 20
10.107484
 30
0.0
 10
6.750017
 20
1.592145
 30
0.0
 10
6.650058
 20
1.571796
 30
0.0
 10
6.553784
 20
1.538071
 30
0.0
 10
4.318110
 20
5.264231
 30
0.0
 10
4.381355
 20
5.320900
 30
0.0
 10
4.437283
 20
5.383725
 30
0.0
 10
4.485553
 20
5.451993
 30
0.0
 10
4.525820
 20
5.524990
 30
0.0
 10
4.557742
 20
5.602004
 30
0.0
 10
4.580975
 20
5.682320
 30
0.0
 10
4.595176
 20
5.765226
 30
0.0
 10
4.600002
 20
5.850007
 30
0.0
 10
4.595101
 20
5.934738
 30
0.0
 10
4.580836
 20
6.017586
 30
0.0
 10
4.557551
 20
6.097841
 30
0.0
 10
4.525589
 20
6.174790
 30
0.0
 10
4.485293
 20
6.247721
 30
0.0
 10
4.437006
 20
6.315922
 30
0.0
 10
4.381072
 20
6.378682
 30
0.0
 10
4.317835
 20
6.435288
 30
0.0
 10
6.553453
 20
10.161338
 30
0.0
 10
6.553453
 20
10.161338
 30
0.0
  0
LWPOLYLINE
  5
104
100
AcDbEntity
  8
Layer_1
 62
7
100
AcDbPolyline
 90
17
 70
0
 10
4.146241
 20
5.161925
 30
0.0
 10
6.381915
 20
1.435820
 30
0.0
 10
6.279158
 20
1.335895
 30
0.0
 10
6.197915
 20
1.219353
 30
0.0
 10
6.140102
 20
1.089585
 30
0.0
 10
6.107631
 20
0.949979
 30
0.0
 10
1.592296
 20
0.949979
 30
0.0
 10
1.559715
 20
1.089448
 30
0.0
 10
1.501839
 20
1.219073
 30
0.0
 10
1.420578
 20
1.335474
 30
0.0
 10
1.317845
 20
1.435269
 30
0.0
 10
3.553465
 20
5.161374
 30
0.0
 10
3.698613
 20
5.115576
 30
0.0
 10
3.850018
 20
5.100024
 30
0.0
 10
4.001284
 20
5.115879
 30
0.0
 10
4.146241
 20
5.161925
 30
0.0
 10
4.146241
 20
5.161925
 30
0.0
  0
ENDSEC
  0
SECTION
  2
OBJECTS
  0
DICTIONARY
  5
C
330
0
100
AcDbDictionary
  3
ACAD_GROUP
350
D
  3
ACAD_MLINESTYLE
350
17
  0
DICTIONARY
  5
D
330
C
100
AcDbDictionary
  0
DICTIONARY
  5
1A
330
C
100
AcDbDictionary
  0
DICTIONARY
  5
17
330
C
100
AcDbDictionary
  3
STANDARD
350
18
  0
DICTIONARY
  5
19
330
C
100
AcDbDictionary
  0
ENDSEC
  0
EOF
