  0
SECTION
  2
HEADER
  9
$ACADVER
  1
AC1014
  9
$HANDSEED
  5
FFFF
  9
$MEASUREMENT
 70
     1
  0
ENDSEC
  0
SECTION
  2
TABLES
  0
TABLE
  2
VPORT
  5
8
330
0
100
AcDbSymbolTable
 70
     4
  0
VPORT
  5
2E
330
8
100
AcDbSymbolTableRecord
100
AcDbViewportTableRecord
  2
*ACTIVE
 70
     0
 10
0.0
 20
0.0
 11
1.0
 21
1.0
 12
210.0
 22
148.5
 13
0.0
 23
0.0
 14
10.0
 24
10.0
 15
10.0
 25
10.0
 16
0.0
 26
0.0
 36
1.0
 17
0.0
 27
0.0
 37
0.0
 40
341.0
 41
1.24
 42
50.0
 43
0.0
 44
0.0
 50
0.0
 51
0.0
 71
     0
 72
   100
 73
     1
 74
     3
 75
     0
 76
     0
 77
     0
 78
     0
  0
ENDTAB
  0
TABLE
  2
LTYPE
  5
5
330
0
100
AcDbSymbolTable
 70
     1
  0
LTYPE
  5
14
330
5
100
AcDbSymbolTableRecord
100
AcDbLinetypeTableRecord
  2
BYBLOCK
 70
     0
  3

 72
    65
 73
     0
 40
0.0
  0
LTYPE
  5
15
330
5
100
AcDbSymbolTableRecord
100
AcDbLinetypeTableRecord
  2
BYLAYER
 70
     0
  3

 72
    65
 73
     0
 40
0.0
  0
LTYPE
  5
16
330
5
100
AcDbSymbolTableRecord
100
AcDbLinetypeTableRecord
  2
CONTINUOUS
 70
     0
  3
Solid line
 72
    65
 73
     0
 40
0.0
  0
ENDTAB
  0
TABLE
  2
LAYER
  5
2
100
AcDbSymbolTable
 70
2
  0
LAYER
  5
50
100
AcDbSymbolTableRecord
100
AcDbLayerTableRecord
  2
0
 70
0
  6
CONTINUOUS
  0
LAYER
  5
51
100
AcDbSymbolTableRecord
100
AcDbLayerTableRecord
  2
Layer_1
 70
0
  6
CONTINUOUS
  0
ENDTAB
  0
TABLE
  2
STYLE
  5
3
330
0
100
AcDbSymbolTable
 70
     1
  0
STYLE
  5
11
330
3
100
AcDbSymbolTableRecord
100
AcDbTextStyleTableRecord
  2
STANDARD
 70
     0
 40
0.0
 41
1.0
 50
0.0
 71
     0
 42
2.5
  3
txt
  4

  0
ENDTAB
  0
TABLE
  2
VIEW
  5
6
330
0
100
AcDbSymbolTable
 70
     0
  0
ENDTAB
  0
TABLE
  2
UCS
  5
7
330
0
100
AcDbSymbolTable
 70
     0
  0
ENDTAB
  0
TABLE
  2
APPID
  5
9
330
0
100
AcDbSymbolTable
 70
     2
  0
APPID
  5
12
330
9
100
AcDbSymbolTableRecord
100
AcDbRegAppTableRecord
  2
ACAD
 70
     0
  0
ENDTAB
  0
TABLE
  2
DIMSTYLE
  5
A
330
0
100
AcDbSymbolTable
 70
     1
  0
DIMSTYLE
105
27
330
A
100
AcDbSymbolTableRecord
100
AcDbDimStyleTableRecord
  2
ISO-25
 70
     0
  3

  4

  5

  6

  7

 40
1.0
 41
2.5
 42
0.625
 43
3.75
 44
1.25
 45
0.0
 46
0.0
 47
0.0
 48
0.0
140
2.5
141
2.5
142
0.0
143
0.03937007874016
144
1.0
145
0.0
146
1.0
147
0.625
 71
     0
 72
     0
 73
     0
 74
     0
 75
     0
 76
     0
 77
     1
 78
     8
170
     0
171
     3
172
     1
173
     0
174
     0
175
     0
176
     0
177
     0
178
     0
270
     2
271
     2
272
     2
273
     2
274
     3
340
11
275
     0
280
     0
281
     0
282
     0
283
     0
284
     8
285
     0
286
     0
287
     3
288
     0
  0
ENDTAB
  0
TABLE
  2
BLOCK_RECORD
  5
1
330
0
100
AcDbSymbolTable
 70
     1
  0
BLOCK_RECORD
  5
1F
330
1
100
AcDbSymbolTableRecord
100
AcDbBlockTableRecord
  2
*MODEL_SPACE
  0
BLOCK_RECORD
  5
1B
330
1
100
AcDbSymbolTableRecord
100
AcDbBlockTableRecord
  2
*PAPER_SPACE
  0
ENDTAB
  0
ENDSEC
  0
SECTION
  2
BLOCKS
  0
BLOCK
  5
20
330
1F
100
AcDbEntity
  8
0
100
AcDbBlockBegin
  2
*MODEL_SPACE
 70
     0
 10
0.0
 20
0.0
 30
0.0
  3
*MODEL_SPACE
  1

  0
ENDBLK
  5
21
330
1F
100
AcDbEntity
  8
0
100
AcDbBlockEnd
  0
BLOCK
  5
1C
330
1B
100
AcDbEntity
 67
     1
  8
0
100
AcDbBlockBegin
  2
*PAPER_SPACE
  1

  0
ENDBLK
  5
1D
330
1B
100
AcDbEntity
 67
     1
  8
0
100
AcDbBlockEnd
  0
ENDSEC
  0
SECTION
  2
ENTITIES
  0
LWPOLYLINE
  5
100
100
AcDbEntity
  8
Layer_1
 62
7
100
AcDbPolyline
 90
8
 70
1
 10
6.749942
 20
5.999947
 30
0.0
 10
6.749942
 20
5.249943
 30
0.0
 10
6.728693
 20
5.249943
 30
0.0
 10
6.728693
 20
5.978658
 30
0.0
 10
5.999936
 20
5.978658
 30
0.0
 10
5.999936
 20
5.999947
 30
0.0
 10
6.749942
 20
5.999947
 30
0.0
 10
6.749942
 20
5.999947
 30
0.0
  0
LWPOLYLINE
  5
101
100
AcDbEntity
  8
Layer_1
 62
7
100
AcDbPolyline
 90
9
 70
1
 10
0.750004
 20
5.999947
 30
0.0
 10
0.750004
 20
5.978658
 30
0.0
 10
0.021249
 20
5.978658
 30
0.0
 10
0.021249
 20
5.249943
 30
0.0
 10
0.000000
 20
5.249943
 30
0.0
 10
0.000000
 20
5.989281
 30
0.0
 10
0.000000
 20
5.999947
 30
0.0
 10
0.750004
 20
5.999947
 30
0.0
 10
0.750004
 20
5.999947
 30
0.0
  0
LWPOLYLINE
  5
102
100
AcDbEntity
  8
Layer_1
 62
7
100
AcDbPolyline
 90
8
 70
1
 10
6.749935
 20
0.599979
 30
0.0
 10
6.749935
 20
-0.000000
 30
0.0
 10
5.999931
 20
-0.000000
 30
0.0
 10
5.999931
 20
0.021248
 30
0.0
 10
6.728686
 20
0.021248
 30
0.0
 10
6.728686
 20
0.599979
 30
0.0
 10
6.749935
 20
0.599979
 30
0.0
 10
6.749935
 20
0.599979
 30
0.0
  0
LWPOLYLINE
  5
103
100
AcDbEntity
  8
Layer_1
 62
7
100
AcDbPolyline
 90
8
 70
1
 10
0.021249
 20
0.599979
 30
0.0
 10
0.021249
 20
0.021248
 30
0.0
 10
0.750004
 20
0.021248
 30
0.0
 10
0.750004
 20
-0.000000
 30
0.0
 10
0.000000
 20
-0.000000
 30
0.0
 10
0.000000
 20
0.599979
 30
0.0
 10
0.021249
 20
0.599979
 30
0.0
 10
0.021249
 20
0.599979
 30
0.0
  0
LWPOLYLINE
  5
104
100
AcDbEntity
  8
Layer_1
 62
7
100
AcDbPolyline
 90
9
 70
1
 10
0.750004
 20
5.999947
 30
0.0
 10
0.750004
 20
5.978658
 30
0.0
 10
0.021249
 20
5.978657
 30
0.0
 10
0.021249
 20
5.249943
 30
0.0
 10
0.000000
 20
5.249941
 30
0.0
 10
0.000000
 20
5.989280
 30
0.0
 10
0.000000
 20
5.999947
 30
0.0
 10
0.750004
 20
5.999947
 30
0.0
 10
0.750004
 20
5.999947
 30
0.0
  0
LWPOLYLINE
  5
105
100
AcDbEntity
  8
Layer_1
 62
7
100
AcDbPolyline
 90
34
 70
0
 10
0.982429
 20
4.964433
 30
0.0
 10
0.867491
 20
4.946400
 30
0.0
 10
0.760796
 20
4.903696
 30
0.0
 10
0.666223
 20
4.838403
 30
0.0
 10
0.587648
 20
4.752601
 30
0.0
 10
0.535109
 20
4.662484
 30
0.0
 10
0.502566
 20
4.566640
 30
0.0
 10
0.489562
 20
4.467959
 30
0.0
 10
0.495639
 20
4.369336
 30
0.0
 10
0.520337
 20
4.273662
 30
0.0
 10
0.563200
 20
4.183831
 30
0.0
 10
0.623768
 20
4.102734
 30
0.0
 10
0.701584
 20
4.033265
 30
0.0
 10
0.791701
 20
3.980725
 30
0.0
 10
0.887546
 20
3.948183
 30
0.0
 10
0.986226
 20
3.935179
 30
0.0
 10
1.084849
 20
3.941255
 30
0.0
 10
1.180523
 20
3.965953
 30
0.0
 10
1.270355
 20
4.008816
 30
0.0
 10
1.351451
 20
4.069385
 30
0.0
 10
1.420921
 20
4.147201
 30
0.0
 10
1.473460
 20
4.237318
 30
0.0
 10
1.506003
 20
4.333162
 30
0.0
 10
1.519007
 20
4.431843
 30
0.0
 10
1.512931
 20
4.530466
 30
0.0
 10
1.488232
 20
4.626140
 30
0.0
 10
1.445369
 20
4.715971
 30
0.0
 10
1.384801
 20
4.797068
 30
0.0
 10
1.306984
 20
4.866537
 30
0.0
 10
1.232932
 20
4.911351
 30
0.0
 10
1.152993
 20
4.942956
 30
0.0
 10
1.068911
 20
4.960825
 30
0.0
 10
0.982429
 20
4.964433
 30
0.0
 10
0.982429
 20
4.964433
 30
0.0
  0
LWPOLYLINE
  5
106
100
AcDbEntity
  8
Layer_1
 62
7
100
AcDbPolyline
 90
34
 70
0
 10
5.466786
 20
3.514957
 30
0.0
 10
5.363003
 20
3.504493
 30
0.0
 10
5.266341
 20
3.474483
 30
0.0
 10
5.178869
 20
3.426998
 30
0.0
 10
5.102659
 20
3.364110
 30
0.0
 10
5.039780
 20
3.287890
 30
0.0
 10
4.992304
 20
3.200410
 30
0.0
 10
4.962300
 20
3.103742
 30
0.0
 10
4.951840
 20
2.999957
 30
0.0
 10
4.962300
 20
2.896173
 30
0.0
 10
4.992304
 20
2.799508
 30
0.0
 10
5.039780
 20
2.712031
 30
0.0
 10
5.102659
 20
2.635814
 30
0.0
 10
5.178869
 20
2.572927
 30
0.0
 10
5.266341
 20
2.525441
 30
0.0
 10
5.363003
 20
2.495428
 30
0.0
 10
5.466786
 20
2.484956
 30
0.0
 10
5.570577
 20
2.495418
 30
0.0
 10
5.667249
 20
2.525425
 30
0.0
 10
5.754730
 20
2.572908
 30
0.0
 10
5.830949
 20
2.635794
 30
0.0
 10
5.893835
 20
2.712013
 30
0.0
 10
5.941318
 20
2.799494
 30
0.0
 10
5.971325
 20
2.896166
 30
0.0
 10
5.981787
 20
2.999957
 30
0.0
 10
5.971325
 20
3.103748
 30
0.0
 10
5.941318
 20
3.200420
 30
0.0
 10
5.893835
 20
3.287901
 30
0.0
 10
5.830949
 20
3.364120
 30
0.0
 10
5.754730
 20
3.427006
 30
0.0
 10
5.667249
 20
3.474488
 30
0.0
 10
5.570577
 20
3.504496
 30
0.0
 10
5.466786
 20
3.514957
 30
0.0
 10
5.466786
 20
3.514957
 30
0.0
  0
LWPOLYLINE
  5
107
100
AcDbEntity
  8
Layer_1
 62
7
100
AcDbPolyline
 90
34
 70
0
 10
0.989762
 20
2.064765
 30
0.0
 10
0.912785
 20
2.056762
 30
0.0
 10
0.838283
 20
2.037452
 30
0.0
 10
0.767490
 20
2.007256
 30
0.0
 10
0.701641
 20
1.966594
 30
0.0
 10
0.623825
 20
1.897124
 30
0.0
 10
0.563257
 20
1.816027
 30
0.0
 10
0.520394
 20
1.726196
 30
0.0
 10
0.495696
 20
1.630522
 30
0.0
 10
0.489619
 20
1.531899
 30
0.0
 10
0.502623
 20
1.433219
 30
0.0
 10
0.535166
 20
1.337375
 30
0.0
 10
0.587705
 20
1.247258
 30
0.0
 10
0.657174
 20
1.169442
 30
0.0
 10
0.738271
 20
1.108873
 30
0.0
 10
0.828102
 20
1.066010
 30
0.0
 10
0.923776
 20
1.041312
 30
0.0
 10
1.022399
 20
1.035236
 30
0.0
 10
1.121080
 20
1.048240
 30
0.0
 10
1.216924
 20
1.080783
 30
0.0
 10
1.307041
 20
1.133323
 30
0.0
 10
1.384857
 20
1.202792
 30
0.0
 10
1.445426
 20
1.283888
 30
0.0
 10
1.488288
 20
1.373719
 30
0.0
 10
1.512987
 20
1.469393
 30
0.0
 10
1.519063
 20
1.568016
 30
0.0
 10
1.506059
 20
1.666696
 30
0.0
 10
1.473517
 20
1.762540
 30
0.0
 10
1.420978
 20
1.852657
 30
0.0
 10
1.335345
 20
1.944501
 30
0.0
 10
1.231627
 20
2.012092
 30
0.0
 10
1.114781
 20
2.052993
 30
0.0
 10
0.989762
 20
2.064765
 30
0.0
 10
0.989762
 20
2.064765
 30
0.0
  0
ENDSEC
  0
SECTION
  2
OBJECTS
  0
DICTIONARY
  5
C
330
0
100
AcDbDictionary
  3
ACAD_GROUP
350
D
  3
ACAD_MLINESTYLE
350
17
  0
DICTIONARY
  5
D
330
C
100
AcDbDictionary
  0
DICTIONARY
  5
1A
330
C
100
AcDbDictionary
  0
DICTIONARY
  5
17
330
C
100
AcDbDictionary
  3
STANDARD
350
18
  0
DICTIONARY
  5
19
330
C
100
AcDbDictionary
  0
ENDSEC
  0
EOF
