  0
SECTION
  2
HEADER
  9
$ACADVER
  1
AC1014
  9
$HANDSEED
  5
FFFF
  9
$MEASUREMENT
 70
     1
  0
ENDSEC
  0
SECTION
  2
TABLES
  0
TABLE
  2
VPORT
  5
8
330
0
100
AcDbSymbolTable
 70
     4
  0
VPORT
  5
2E
330
8
100
AcDbSymbolTableRecord
100
AcDbViewportTableRecord
  2
*ACTIVE
 70
     0
 10
0.0
 20
0.0
 11
1.0
 21
1.0
 12
210.0
 22
148.5
 13
0.0
 23
0.0
 14
10.0
 24
10.0
 15
10.0
 25
10.0
 16
0.0
 26
0.0
 36
1.0
 17
0.0
 27
0.0
 37
0.0
 40
341.0
 41
1.24
 42
50.0
 43
0.0
 44
0.0
 50
0.0
 51
0.0
 71
     0
 72
   100
 73
     1
 74
     3
 75
     0
 76
     0
 77
     0
 78
     0
  0
ENDTAB
  0
TABLE
  2
LTYPE
  5
5
330
0
100
AcDbSymbolTable
 70
     1
  0
LTYPE
  5
14
330
5
100
AcDbSymbolTableRecord
100
AcDbLinetypeTableRecord
  2
BYBLOCK
 70
     0
  3

 72
    65
 73
     0
 40
0.0
  0
LTYPE
  5
15
330
5
100
AcDbSymbolTableRecord
100
AcDbLinetypeTableRecord
  2
BYLAYER
 70
     0
  3

 72
    65
 73
     0
 40
0.0
  0
LTYPE
  5
16
330
5
100
AcDbSymbolTableRecord
100
AcDbLinetypeTableRecord
  2
CONTINUOUS
 70
     0
  3
Solid line
 72
    65
 73
     0
 40
0.0
  0
ENDTAB
  0
TABLE
  2
LAYER
  5
2
100
AcDbSymbolTable
 70
2
  0
LAYER
  5
50
100
AcDbSymbolTableRecord
100
AcDbLayerTableRecord
  2
0
 70
0
  6
CONTINUOUS
  0
LAYER
  5
51
100
AcDbSymbolTableRecord
100
AcDbLayerTableRecord
  2
Layer_1
 70
0
  6
CONTINUOUS
  0
ENDTAB
  0
TABLE
  2
STYLE
  5
3
330
0
100
AcDbSymbolTable
 70
     1
  0
STYLE
  5
11
330
3
100
AcDbSymbolTableRecord
100
AcDbTextStyleTableRecord
  2
STANDARD
 70
     0
 40
0.0
 41
1.0
 50
0.0
 71
     0
 42
2.5
  3
txt
  4

  0
ENDTAB
  0
TABLE
  2
VIEW
  5
6
330
0
100
AcDbSymbolTable
 70
     0
  0
ENDTAB
  0
TABLE
  2
UCS
  5
7
330
0
100
AcDbSymbolTable
 70
     0
  0
ENDTAB
  0
TABLE
  2
APPID
  5
9
330
0
100
AcDbSymbolTable
 70
     2
  0
APPID
  5
12
330
9
100
AcDbSymbolTableRecord
100
AcDbRegAppTableRecord
  2
ACAD
 70
     0
  0
ENDTAB
  0
TABLE
  2
DIMSTYLE
  5
A
330
0
100
AcDbSymbolTable
 70
     1
  0
DIMSTYLE
105
27
330
A
100
AcDbSymbolTableRecord
100
AcDbDimStyleTableRecord
  2
ISO-25
 70
     0
  3

  4

  5

  6

  7

 40
1.0
 41
2.5
 42
0.625
 43
3.75
 44
1.25
 45
0.0
 46
0.0
 47
0.0
 48
0.0
140
2.5
141
2.5
142
0.0
143
0.03937007874016
144
1.0
145
0.0
146
1.0
147
0.625
 71
     0
 72
     0
 73
     0
 74
     0
 75
     0
 76
     0
 77
     1
 78
     8
170
     0
171
     3
172
     1
173
     0
174
     0
175
     0
176
     0
177
     0
178
     0
270
     2
271
     2
272
     2
273
     2
274
     3
340
11
275
     0
280
     0
281
     0
282
     0
283
     0
284
     8
285
     0
286
     0
287
     3
288
     0
  0
ENDTAB
  0
TABLE
  2
BLOCK_RECORD
  5
1
330
0
100
AcDbSymbolTable
 70
     1
  0
BLOCK_RECORD
  5
1F
330
1
100
AcDbSymbolTableRecord
100
AcDbBlockTableRecord
  2
*MODEL_SPACE
  0
BLOCK_RECORD
  5
1B
330
1
100
AcDbSymbolTableRecord
100
AcDbBlockTableRecord
  2
*PAPER_SPACE
  0
ENDTAB
  0
ENDSEC
  0
SECTION
  2
BLOCKS
  0
BLOCK
  5
20
330
1F
100
AcDbEntity
  8
0
100
AcDbBlockBegin
  2
*MODEL_SPACE
 70
     0
 10
0.0
 20
0.0
 30
0.0
  3
*MODEL_SPACE
  1

  0
ENDBLK
  5
21
330
1F
100
AcDbEntity
  8
0
100
AcDbBlockEnd
  0
BLOCK
  5
1C
330
1B
100
AcDbEntity
 67
     1
  8
0
100
AcDbBlockBegin
  2
*PAPER_SPACE
  1

  0
ENDBLK
  5
1D
330
1B
100
AcDbEntity
 67
     1
  8
0
100
AcDbBlockEnd
  0
ENDSEC
  0
SECTION
  2
ENTITIES
  0
LWPOLYLINE
  5
100
100
AcDbEntity
  8
Layer_1
 62
7
100
AcDbPolyline
 90
8
 70
1
 10
6.749942
 20
5.999949
 30
0.0
 10
6.749942
 20
5.249944
 30
0.0
 10
6.728693
 20
5.249944
 30
0.0
 10
6.728693
 20
5.978659
 30
0.0
 10
5.999936
 20
5.978659
 30
0.0
 10
5.999936
 20
5.999949
 30
0.0
 10
6.749942
 20
5.999949
 30
0.0
 10
6.749942
 20
5.999949
 30
0.0
  0
LWPOLYLINE
  5
101
100
AcDbEntity
  8
Layer_1
 62
7
100
AcDbPolyline
 90
9
 70
1
 10
0.750005
 20
5.999949
 30
0.0
 10
0.750005
 20
5.978659
 30
0.0
 10
0.021249
 20
5.978659
 30
0.0
 10
0.021249
 20
5.249944
 30
0.0
 10
0.000000
 20
5.249944
 30
0.0
 10
0.000000
 20
5.989283
 30
0.0
 10
0.000000
 20
5.999949
 30
0.0
 10
0.750005
 20
5.999949
 30
0.0
 10
0.750005
 20
5.999949
 30
0.0
  0
LWPOLYLINE
  5
102
100
AcDbEntity
  8
Layer_1
 62
7
100
AcDbPolyline
 90
8
 70
1
 10
6.749935
 20
0.599979
 30
0.0
 10
6.749935
 20
0.000000
 30
0.0
 10
5.999930
 20
0.000000
 30
0.0
 10
5.999930
 20
0.021249
 30
0.0
 10
6.728686
 20
0.021249
 30
0.0
 10
6.728686
 20
0.599979
 30
0.0
 10
6.749935
 20
0.599979
 30
0.0
 10
6.749935
 20
0.599979
 30
0.0
  0
LWPOLYLINE
  5
103
100
AcDbEntity
  8
Layer_1
 62
7
100
AcDbPolyline
 90
8
 70
1
 10
0.021249
 20
0.599979
 30
0.0
 10
0.021249
 20
0.021249
 30
0.0
 10
0.750005
 20
0.021249
 30
0.0
 10
0.750005
 20
0.000000
 30
0.0
 10
0.000000
 20
0.000000
 30
0.0
 10
0.000000
 20
0.599979
 30
0.0
 10
0.021249
 20
0.599979
 30
0.0
 10
0.021249
 20
0.599979
 30
0.0
  0
LWPOLYLINE
  5
104
100
AcDbEntity
  8
Layer_1
 62
7
100
AcDbPolyline
 90
9
 70
1
 10
0.750005
 20
5.999949
 30
0.0
 10
0.750005
 20
5.978659
 30
0.0
 10
0.021249
 20
5.978659
 30
0.0
 10
0.021249
 20
5.249944
 30
0.0
 10
0.000000
 20
5.249943
 30
0.0
 10
0.000000
 20
5.989282
 30
0.0
 10
0.000000
 20
5.999949
 30
0.0
 10
0.750005
 20
5.999949
 30
0.0
 10
0.750005
 20
5.999949
 30
0.0
  0
LWPOLYLINE
  5
105
100
AcDbEntity
  8
Layer_1
 62
7
100
AcDbPolyline
 90
18
 70
0
 10
0.752133
 20
4.599863
 30
0.0
 10
0.693754
 20
4.588072
 30
0.0
 10
0.646081
 20
4.555928
 30
0.0
 10
0.613938
 20
4.508255
 30
0.0
 10
0.602148
 20
4.449877
 30
0.0
 10
0.613938
 20
4.391498
 30
0.0
 10
0.646081
 20
4.343825
 30
0.0
 10
0.693754
 20
4.311681
 30
0.0
 10
0.752133
 20
4.299891
 30
0.0
 10
0.809545
 20
4.311296
 30
0.0
 10
0.858221
 20
4.343805
 30
0.0
 10
0.890748
 20
4.392469
 30
0.0
 10
0.902174
 20
4.449877
 30
0.0
 10
0.890748
 20
4.507284
 30
0.0
 10
0.858221
 20
4.555948
 30
0.0
 10
0.809545
 20
4.588457
 30
0.0
 10
0.752133
 20
4.599863
 30
0.0
 10
0.752133
 20
4.599863
 30
0.0
  0
LWPOLYLINE
  5
106
100
AcDbEntity
  8
Layer_1
 62
7
100
AcDbPolyline
 90
18
 70
0
 10
5.718914
 20
3.149946
 30
0.0
 10
5.660535
 20
3.138155
 30
0.0
 10
5.612862
 20
3.106011
 30
0.0
 10
5.580718
 20
3.058338
 30
0.0
 10
5.568928
 20
2.999960
 30
0.0
 10
5.580718
 20
2.941581
 30
0.0
 10
5.612862
 20
2.893908
 30
0.0
 10
5.660535
 20
2.861765
 30
0.0
 10
5.718914
 20
2.849974
 30
0.0
 10
5.777292
 20
2.861765
 30
0.0
 10
5.824965
 20
2.893908
 30
0.0
 10
5.857109
 20
2.941581
 30
0.0
 10
5.868899
 20
2.999960
 30
0.0
 10
5.857109
 20
3.058338
 30
0.0
 10
5.824965
 20
3.106011
 30
0.0
 10
5.777292
 20
3.138155
 30
0.0
 10
5.718914
 20
3.149946
 30
0.0
 10
5.718914
 20
3.149946
 30
0.0
  0
LWPOLYLINE
  5
107
100
AcDbEntity
  8
Layer_1
 62
7
100
AcDbPolyline
 90
18
 70
0
 10
0.752188
 20
1.699974
 30
0.0
 10
0.694781
 20
1.688548
 30
0.0
 10
0.646117
 20
1.656021
 30
0.0
 10
0.613608
 20
1.607345
 30
0.0
 10
0.602203
 20
1.549933
 30
0.0
 10
0.613993
 20
1.491554
 30
0.0
 10
0.646136
 20
1.443881
 30
0.0
 10
0.693810
 20
1.411738
 30
0.0
 10
0.752188
 20
1.399947
 30
0.0
 10
0.809600
 20
1.411352
 30
0.0
 10
0.858276
 20
1.443862
 30
0.0
 10
0.890803
 20
1.492526
 30
0.0
 10
0.902229
 20
1.549933
 30
0.0
 10
0.890819
 20
1.607358
 30
0.0
 10
0.858295
 20
1.656040
 30
0.0
 10
0.809613
 20
1.688564
 30
0.0
 10
0.752188
 20
1.699974
 30
0.0
 10
0.752188
 20
1.699974
 30
0.0
  0
ENDSEC
  0
SECTION
  2
OBJECTS
  0
DICTIONARY
  5
C
330
0
100
AcDbDictionary
  3
ACAD_GROUP
350
D
  3
ACAD_MLINESTYLE
350
17
  0
DICTIONARY
  5
D
330
C
100
AcDbDictionary
  0
DICTIONARY
  5
1A
330
C
100
AcDbDictionary
  0
DICTIONARY
  5
17
330
C
100
AcDbDictionary
  3
STANDARD
350
18
  0
DICTIONARY
  5
19
330
C
100
AcDbDictionary
  0
ENDSEC
  0
EOF
