  0
SECTION
  2
HEADER
  9
$ACADVER
  1
AC1014
  9
$HANDSEED
  5
FFFF
  9
$MEASUREMENT
 70
     1
  0
ENDSEC
  0
SECTION
  2
TABLES
  0
TABLE
  2
VPORT
  5
8
330
0
100
AcDbSymbolTable
 70
     4
  0
VPORT
  5
2E
330
8
100
AcDbSymbolTableRecord
100
AcDbViewportTableRecord
  2
*ACTIVE
 70
     0
 10
0.0
 20
0.0
 11
1.0
 21
1.0
 12
210.0
 22
148.5
 13
0.0
 23
0.0
 14
10.0
 24
10.0
 15
10.0
 25
10.0
 16
0.0
 26
0.0
 36
1.0
 17
0.0
 27
0.0
 37
0.0
 40
341.0
 41
1.24
 42
50.0
 43
0.0
 44
0.0
 50
0.0
 51
0.0
 71
     0
 72
   100
 73
     1
 74
     3
 75
     0
 76
     0
 77
     0
 78
     0
  0
ENDTAB
  0
TABLE
  2
LTYPE
  5
5
330
0
100
AcDbSymbolTable
 70
     1
  0
LTYPE
  5
14
330
5
100
AcDbSymbolTableRecord
100
AcDbLinetypeTableRecord
  2
BYBLOCK
 70
     0
  3

 72
    65
 73
     0
 40
0.0
  0
LTYPE
  5
15
330
5
100
AcDbSymbolTableRecord
100
AcDbLinetypeTableRecord
  2
BYLAYER
 70
     0
  3

 72
    65
 73
     0
 40
0.0
  0
LTYPE
  5
16
330
5
100
AcDbSymbolTableRecord
100
AcDbLinetypeTableRecord
  2
CONTINUOUS
 70
     0
  3
Solid line
 72
    65
 73
     0
 40
0.0
  0
ENDTAB
  0
TABLE
  2
LAYER
  5
2
100
AcDbSymbolTable
 70
2
  0
LAYER
  5
50
100
AcDbSymbolTableRecord
100
AcDbLayerTableRecord
  2
0
 70
0
  6
CONTINUOUS
  0
LAYER
  5
51
100
AcDbSymbolTableRecord
100
AcDbLayerTableRecord
  2
Layer_1
 70
0
  6
CONTINUOUS
  0
ENDTAB
  0
TABLE
  2
STYLE
  5
3
330
0
100
AcDbSymbolTable
 70
     1
  0
STYLE
  5
11
330
3
100
AcDbSymbolTableRecord
100
AcDbTextStyleTableRecord
  2
STANDARD
 70
     0
 40
0.0
 41
1.0
 50
0.0
 71
     0
 42
2.5
  3
txt
  4

  0
ENDTAB
  0
TABLE
  2
VIEW
  5
6
330
0
100
AcDbSymbolTable
 70
     0
  0
ENDTAB
  0
TABLE
  2
UCS
  5
7
330
0
100
AcDbSymbolTable
 70
     0
  0
ENDTAB
  0
TABLE
  2
APPID
  5
9
330
0
100
AcDbSymbolTable
 70
     2
  0
APPID
  5
12
330
9
100
AcDbSymbolTableRecord
100
AcDbRegAppTableRecord
  2
ACAD
 70
     0
  0
ENDTAB
  0
TABLE
  2
DIMSTYLE
  5
A
330
0
100
AcDbSymbolTable
 70
     1
  0
DIMSTYLE
105
27
330
A
100
AcDbSymbolTableRecord
100
AcDbDimStyleTableRecord
  2
ISO-25
 70
     0
  3

  4

  5

  6

  7

 40
1.0
 41
2.5
 42
0.625
 43
3.75
 44
1.25
 45
0.0
 46
0.0
 47
0.0
 48
0.0
140
2.5
141
2.5
142
0.0
143
0.03937007874016
144
1.0
145
0.0
146
1.0
147
0.625
 71
     0
 72
     0
 73
     0
 74
     0
 75
     0
 76
     0
 77
     1
 78
     8
170
     0
171
     3
172
     1
173
     0
174
     0
175
     0
176
     0
177
     0
178
     0
270
     2
271
     2
272
     2
273
     2
274
     3
340
11
275
     0
280
     0
281
     0
282
     0
283
     0
284
     8
285
     0
286
     0
287
     3
288
     0
  0
ENDTAB
  0
TABLE
  2
BLOCK_RECORD
  5
1
330
0
100
AcDbSymbolTable
 70
     1
  0
BLOCK_RECORD
  5
1F
330
1
100
AcDbSymbolTableRecord
100
AcDbBlockTableRecord
  2
*MODEL_SPACE
  0
BLOCK_RECORD
  5
1B
330
1
100
AcDbSymbolTableRecord
100
AcDbBlockTableRecord
  2
*PAPER_SPACE
  0
ENDTAB
  0
ENDSEC
  0
SECTION
  2
BLOCKS
  0
BLOCK
  5
20
330
1F
100
AcDbEntity
  8
0
100
AcDbBlockBegin
  2
*MODEL_SPACE
 70
     0
 10
0.0
 20
0.0
 30
0.0
  3
*MODEL_SPACE
  1

  0
ENDBLK
  5
21
330
1F
100
AcDbEntity
  8
0
100
AcDbBlockEnd
  0
BLOCK
  5
1C
330
1B
100
AcDbEntity
 67
     1
  8
0
100
AcDbBlockBegin
  2
*PAPER_SPACE
  1

  0
ENDBLK
  5
1D
330
1B
100
AcDbEntity
 67
     1
  8
0
100
AcDbBlockEnd
  0
ENDSEC
  0
SECTION
  2
ENTITIES
  0
LWPOLYLINE
  5
100
100
AcDbEntity
  8
Layer_1
 62
7
100
AcDbPolyline
 90
8
 70
1
 10
6.749942
 20
5.999948
 30
0.0
 10
6.749942
 20
5.249943
 30
0.0
 10
6.728692
 20
5.249943
 30
0.0
 10
6.728692
 20
5.978659
 30
0.0
 10
5.999936
 20
5.978659
 30
0.0
 10
5.999936
 20
5.999948
 30
0.0
 10
6.749942
 20
5.999948
 30
0.0
 10
6.749942
 20
5.999948
 30
0.0
  0
LWPOLYLINE
  5
101
100
AcDbEntity
  8
Layer_1
 62
7
100
AcDbPolyline
 90
9
 70
1
 10
0.750004
 20
5.999948
 30
0.0
 10
0.750004
 20
5.978659
 30
0.0
 10
0.021249
 20
5.978659
 30
0.0
 10
0.021249
 20
5.249943
 30
0.0
 10
0.000000
 20
5.249943
 30
0.0
 10
0.000000
 20
5.989282
 30
0.0
 10
0.000000
 20
5.999948
 30
0.0
 10
0.750004
 20
5.999948
 30
0.0
 10
0.750004
 20
5.999948
 30
0.0
  0
LWPOLYLINE
  5
102
100
AcDbEntity
  8
Layer_1
 62
7
100
AcDbPolyline
 90
8
 70
1
 10
6.749935
 20
0.599979
 30
0.0
 10
6.749935
 20
0.000000
 30
0.0
 10
5.999930
 20
0.000000
 30
0.0
 10
5.999930
 20
0.021249
 30
0.0
 10
6.728686
 20
0.021249
 30
0.0
 10
6.728686
 20
0.599979
 30
0.0
 10
6.749935
 20
0.599979
 30
0.0
 10
6.749935
 20
0.599979
 30
0.0
  0
LWPOLYLINE
  5
103
100
AcDbEntity
  8
Layer_1
 62
7
100
AcDbPolyline
 90
8
 70
1
 10
0.021249
 20
0.599979
 30
0.0
 10
0.021249
 20
0.021249
 30
0.0
 10
0.750004
 20
0.021249
 30
0.0
 10
0.750004
 20
0.000000
 30
0.0
 10
-0.000000
 20
0.000000
 30
0.0
 10
-0.000000
 20
0.599979
 30
0.0
 10
0.021249
 20
0.599979
 30
0.0
 10
0.021249
 20
0.599979
 30
0.0
  0
LWPOLYLINE
  5
104
100
AcDbEntity
  8
Layer_1
 62
7
100
AcDbPolyline
 90
9
 70
1
 10
0.750004
 20
5.999948
 30
0.0
 10
0.750004
 20
5.978659
 30
0.0
 10
0.021249
 20
5.978657
 30
0.0
 10
0.021249
 20
5.249943
 30
0.0
 10
0.000000
 20
5.249942
 30
0.0
 10
0.000000
 20
5.989281
 30
0.0
 10
0.000000
 20
5.999948
 30
0.0
 10
0.750004
 20
5.999948
 30
0.0
 10
0.750004
 20
5.999948
 30
0.0
  0
LWPOLYLINE
  5
105
100
AcDbEntity
  8
Layer_1
 62
7
100
AcDbPolyline
 90
36
 70
0
 10
3.784589
 20
5.860545
 30
0.0
 10
3.699147
 20
5.857183
 30
0.0
 10
3.617102
 20
5.840199
 30
0.0
 10
3.539815
 20
5.810538
 30
0.0
 10
3.468648
 20
5.769145
 30
0.0
 10
3.404966
 20
5.716967
 30
0.0
 10
3.350131
 20
5.654949
 30
0.0
 10
3.305506
 20
5.584037
 30
0.0
 10
3.272454
 20
5.505176
 30
0.0
 10
3.250758
 20
5.406086
 30
0.0
 10
3.248834
 20
5.305619
 30
0.0
 10
3.266452
 20
5.206690
 30
0.0
 10
3.303382
 20
5.112214
 30
0.0
 10
3.358112
 20
5.026808
 30
0.0
 10
3.427795
 20
4.954409
 30
0.0
 10
3.510208
 20
4.896917
 30
0.0
 10
3.603128
 20
4.856230
 30
0.0
 10
3.702218
 20
4.834535
 30
0.0
 10
3.802685
 20
4.832610
 30
0.0
 10
3.901614
 20
4.850228
 30
0.0
 10
3.996089
 20
4.887159
 30
0.0
 10
4.081495
 20
4.941888
 30
0.0
 10
4.153894
 20
5.011571
 30
0.0
 10
4.211386
 20
5.093984
 30
0.0
 10
4.252073
 20
5.186904
 30
0.0
 10
4.274186
 20
5.288844
 30
0.0
 10
4.275511
 20
5.390052
 30
0.0
 10
4.257380
 20
5.487917
 30
0.0
 10
4.221120
 20
5.579831
 30
0.0
 10
4.168063
 20
5.663186
 30
0.0
 10
4.099537
 20
5.735370
 30
0.0
 10
4.016873
 20
5.793776
 30
0.0
 10
3.921399
 20
5.835795
 30
0.0
 10
3.853833
 20
5.852808
 30
0.0
 10
3.784589
 20
5.860545
 30
0.0
 10
3.784589
 20
5.860545
 30
0.0
  0
LWPOLYLINE
  5
106
100
AcDbEntity
  8
Layer_1
 62
7
100
AcDbPolyline
 90
34
 70
0
 10
0.982430
 20
4.964434
 30
0.0
 10
0.867492
 20
4.946401
 30
0.0
 10
0.760797
 20
4.903697
 30
0.0
 10
0.666223
 20
4.838404
 30
0.0
 10
0.587649
 20
4.752602
 30
0.0
 10
0.535110
 20
4.662485
 30
0.0
 10
0.502567
 20
4.566640
 30
0.0
 10
0.489563
 20
4.467960
 30
0.0
 10
0.495639
 20
4.369337
 30
0.0
 10
0.520337
 20
4.273663
 30
0.0
 10
0.563200
 20
4.183832
 30
0.0
 10
0.623768
 20
4.102735
 30
0.0
 10
0.701585
 20
4.033265
 30
0.0
 10
0.791701
 20
3.980726
 30
0.0
 10
0.887546
 20
3.948183
 30
0.0
 10
0.986226
 20
3.935179
 30
0.0
 10
1.084849
 20
3.941256
 30
0.0
 10
1.180523
 20
3.965954
 30
0.0
 10
1.270355
 20
4.008817
 30
0.0
 10
1.351451
 20
4.069385
 30
0.0
 10
1.420921
 20
4.147202
 30
0.0
 10
1.473460
 20
4.237318
 30
0.0
 10
1.506003
 20
4.333163
 30
0.0
 10
1.519007
 20
4.431843
 30
0.0
 10
1.512931
 20
4.530466
 30
0.0
 10
1.488233
 20
4.626140
 30
0.0
 10
1.445370
 20
4.715972
 30
0.0
 10
1.384802
 20
4.797069
 30
0.0
 10
1.306985
 20
4.866538
 30
0.0
 10
1.232933
 20
4.911352
 30
0.0
 10
1.152994
 20
4.942956
 30
0.0
 10
1.068911
 20
4.960826
 30
0.0
 10
0.982430
 20
4.964434
 30
0.0
 10
0.982430
 20
4.964434
 30
0.0
  0
LWPOLYLINE
  5
107
100
AcDbEntity
  8
Layer_1
 62
7
100
AcDbPolyline
 90
34
 70
0
 10
5.466785
 20
3.514958
 30
0.0
 10
5.363003
 20
3.504487
 30
0.0
 10
5.266340
 20
3.474473
 30
0.0
 10
5.178869
 20
3.426987
 30
0.0
 10
5.102658
 20
3.364101
 30
0.0
 10
5.039780
 20
3.287884
 30
0.0
 10
4.992304
 20
3.200407
 30
0.0
 10
4.962300
 20
3.103741
 30
0.0
 10
4.951840
 20
2.999958
 30
0.0
 10
4.962300
 20
2.896174
 30
0.0
 10
4.992304
 20
2.799508
 30
0.0
 10
5.039780
 20
2.712031
 30
0.0
 10
5.102658
 20
2.635814
 30
0.0
 10
5.178869
 20
2.572928
 30
0.0
 10
5.266340
 20
2.525442
 30
0.0
 10
5.363003
 20
2.495428
 30
0.0
 10
5.466785
 20
2.484957
 30
0.0
 10
5.567727
 20
2.494943
 30
0.0
 10
5.663869
 20
2.524157
 30
0.0
 10
5.752510
 20
2.571481
 30
0.0
 10
5.830949
 20
2.635795
 30
0.0
 10
5.895263
 20
2.714233
 30
0.0
 10
5.942587
 20
2.802874
 30
0.0
 10
5.971801
 20
2.899016
 30
0.0
 10
5.981787
 20
2.999958
 30
0.0
 10
5.971801
 20
3.100899
 30
0.0
 10
5.942587
 20
3.197041
 30
0.0
 10
5.895263
 20
3.285682
 30
0.0
 10
5.830949
 20
3.364120
 30
0.0
 10
5.752510
 20
3.428435
 30
0.0
 10
5.663869
 20
3.475758
 30
0.0
 10
5.567727
 20
3.504972
 30
0.0
 10
5.466785
 20
3.514958
 30
0.0
 10
5.466785
 20
3.514958
 30
0.0
  0
LWPOLYLINE
  5
108
100
AcDbEntity
  8
Layer_1
 62
7
100
AcDbPolyline
 90
34
 70
0
 10
0.989762
 20
2.064766
 30
0.0
 10
0.912785
 20
2.056763
 30
0.0
 10
0.838283
 20
2.037453
 30
0.0
 10
0.767490
 20
2.007257
 30
0.0
 10
0.701641
 20
1.966594
 30
0.0
 10
0.623825
 20
1.897125
 30
0.0
 10
0.563257
 20
1.816028
 30
0.0
 10
0.520394
 20
1.726197
 30
0.0
 10
0.495695
 20
1.630523
 30
0.0
 10
0.489619
 20
1.531900
 30
0.0
 10
0.502623
 20
1.433220
 30
0.0
 10
0.535166
 20
1.337375
 30
0.0
 10
0.587705
 20
1.247259
 30
0.0
 10
0.657174
 20
1.169442
 30
0.0
 10
0.738271
 20
1.108874
 30
0.0
 10
0.828103
 20
1.066011
 30
0.0
 10
0.923776
 20
1.041313
 30
0.0
 10
1.022399
 20
1.035236
 30
0.0
 10
1.121080
 20
1.048240
 30
0.0
 10
1.216924
 20
1.080783
 30
0.0
 10
1.307041
 20
1.133322
 30
0.0
 10
1.384857
 20
1.202792
 30
0.0
 10
1.445426
 20
1.283889
 30
0.0
 10
1.488288
 20
1.373720
 30
0.0
 10
1.512987
 20
1.469393
 30
0.0
 10
1.519063
 20
1.568016
 30
0.0
 10
1.506059
 20
1.666697
 30
0.0
 10
1.473517
 20
1.762541
 30
0.0
 10
1.420978
 20
1.852658
 30
0.0
 10
1.335345
 20
1.944502
 30
0.0
 10
1.231627
 20
2.012093
 30
0.0
 10
1.114781
 20
2.052994
 30
0.0
 10
0.989762
 20
2.064766
 30
0.0
 10
0.989762
 20
2.064766
 30
0.0
  0
LWPOLYLINE
  5
109
100
AcDbEntity
  8
Layer_1
 62
7
100
AcDbPolyline
 90
36
 70
0
 10
3.755042
 20
1.168820
 30
0.0
 10
3.678168
 20
1.161958
 30
0.0
 10
3.603182
 20
1.143685
 30
0.0
 10
3.510262
 20
1.102998
 30
0.0
 10
3.427849
 20
1.045506
 30
0.0
 10
3.358165
 20
0.973107
 30
0.0
 10
3.303436
 20
0.887700
 30
0.0
 10
3.266506
 20
0.793225
 30
0.0
 10
3.248888
 20
0.694296
 30
0.0
 10
3.250812
 20
0.593829
 30
0.0
 10
3.272508
 20
0.494739
 30
0.0
 10
3.313202
 20
0.401827
 30
0.0
 10
3.370699
 20
0.319422
 30
0.0
 10
3.443101
 20
0.249747
 30
0.0
 10
3.528507
 20
0.195027
 30
0.0
 10
3.622981
 20
0.158104
 30
0.0
 10
3.721908
 20
0.140492
 30
0.0
 10
3.822371
 20
0.142421
 30
0.0
 10
3.921455
 20
0.164120
 30
0.0
 10
4.016920
 20
0.206146
 30
0.0
 10
4.099576
 20
0.264557
 30
0.0
 10
4.168093
 20
0.336744
 30
0.0
 10
4.221142
 20
0.420098
 30
0.0
 10
4.257393
 20
0.512011
 30
0.0
 10
4.275519
 20
0.609873
 30
0.0
 10
4.274188
 20
0.711076
 30
0.0
 10
4.252073
 20
0.813011
 30
0.0
 10
4.219945
 20
0.890082
 30
0.0
 10
4.176727
 20
0.959643
 30
0.0
 10
4.123677
 20
1.020794
 30
0.0
 10
4.062056
 20
1.072631
 30
0.0
 10
3.993122
 20
1.114254
 30
0.0
 10
3.918136
 20
1.144761
 30
0.0
 10
3.838356
 20
1.163250
 30
0.0
 10
3.755042
 20
1.168820
 30
0.0
 10
3.755042
 20
1.168820
 30
0.0
  0
ENDSEC
  0
SECTION
  2
OBJECTS
  0
DICTIONARY
  5
C
330
0
100
AcDbDictionary
  3
ACAD_GROUP
350
D
  3
ACAD_MLINESTYLE
350
17
  0
DICTIONARY
  5
D
330
C
100
AcDbDictionary
  0
DICTIONARY
  5
1A
330
C
100
AcDbDictionary
  0
DICTIONARY
  5
17
330
C
100
AcDbDictionary
  3
STANDARD
350
18
  0
DICTIONARY
  5
19
330
C
100
AcDbDictionary
  0
ENDSEC
  0
EOF
