  0
SECTION
  2
HEADER
  9
$ACADVER
  1
AC1014
  9
$HANDSEED
  5
FFFF
  9
$MEASUREMENT
 70
     1
  0
ENDSEC
  0
SECTION
  2
TABLES
  0
TABLE
  2
VPORT
  5
8
330
0
100
AcDbSymbolTable
 70
     4
  0
VPORT
  5
2E
330
8
100
AcDbSymbolTableRecord
100
AcDbViewportTableRecord
  2
*ACTIVE
 70
     0
 10
0.0
 20
0.0
 11
1.0
 21
1.0
 12
210.0
 22
148.5
 13
0.0
 23
0.0
 14
10.0
 24
10.0
 15
10.0
 25
10.0
 16
0.0
 26
0.0
 36
1.0
 17
0.0
 27
0.0
 37
0.0
 40
341.0
 41
1.24
 42
50.0
 43
0.0
 44
0.0
 50
0.0
 51
0.0
 71
     0
 72
   100
 73
     1
 74
     3
 75
     0
 76
     0
 77
     0
 78
     0
  0
ENDTAB
  0
TABLE
  2
LTYPE
  5
5
330
0
100
AcDbSymbolTable
 70
     1
  0
LTYPE
  5
14
330
5
100
AcDbSymbolTableRecord
100
AcDbLinetypeTableRecord
  2
BYBLOCK
 70
     0
  3

 72
    65
 73
     0
 40
0.0
  0
LTYPE
  5
15
330
5
100
AcDbSymbolTableRecord
100
AcDbLinetypeTableRecord
  2
BYLAYER
 70
     0
  3

 72
    65
 73
     0
 40
0.0
  0
LTYPE
  5
16
330
5
100
AcDbSymbolTableRecord
100
AcDbLinetypeTableRecord
  2
CONTINUOUS
 70
     0
  3
Solid line
 72
    65
 73
     0
 40
0.0
  0
ENDTAB
  0
TABLE
  2
LAYER
  5
2
100
AcDbSymbolTable
 70
2
  0
LAYER
  5
50
100
AcDbSymbolTableRecord
100
AcDbLayerTableRecord
  2
0
 70
0
  6
CONTINUOUS
  0
LAYER
  5
51
100
AcDbSymbolTableRecord
100
AcDbLayerTableRecord
  2
Layer_1
 70
0
  6
CONTINUOUS
  0
ENDTAB
  0
TABLE
  2
STYLE
  5
3
330
0
100
AcDbSymbolTable
 70
     1
  0
STYLE
  5
11
330
3
100
AcDbSymbolTableRecord
100
AcDbTextStyleTableRecord
  2
STANDARD
 70
     0
 40
0.0
 41
1.0
 50
0.0
 71
     0
 42
2.5
  3
txt
  4

  0
ENDTAB
  0
TABLE
  2
VIEW
  5
6
330
0
100
AcDbSymbolTable
 70
     0
  0
ENDTAB
  0
TABLE
  2
UCS
  5
7
330
0
100
AcDbSymbolTable
 70
     0
  0
ENDTAB
  0
TABLE
  2
APPID
  5
9
330
0
100
AcDbSymbolTable
 70
     2
  0
APPID
  5
12
330
9
100
AcDbSymbolTableRecord
100
AcDbRegAppTableRecord
  2
ACAD
 70
     0
  0
ENDTAB
  0
TABLE
  2
DIMSTYLE
  5
A
330
0
100
AcDbSymbolTable
 70
     1
  0
DIMSTYLE
105
27
330
A
100
AcDbSymbolTableRecord
100
AcDbDimStyleTableRecord
  2
ISO-25
 70
     0
  3

  4

  5

  6

  7

 40
1.0
 41
2.5
 42
0.625
 43
3.75
 44
1.25
 45
0.0
 46
0.0
 47
0.0
 48
0.0
140
2.5
141
2.5
142
0.0
143
0.03937007874016
144
1.0
145
0.0
146
1.0
147
0.625
 71
     0
 72
     0
 73
     0
 74
     0
 75
     0
 76
     0
 77
     1
 78
     8
170
     0
171
     3
172
     1
173
     0
174
     0
175
     0
176
     0
177
     0
178
     0
270
     2
271
     2
272
     2
273
     2
274
     3
340
11
275
     0
280
     0
281
     0
282
     0
283
     0
284
     8
285
     0
286
     0
287
     3
288
     0
  0
ENDTAB
  0
TABLE
  2
BLOCK_RECORD
  5
1
330
0
100
AcDbSymbolTable
 70
     1
  0
BLOCK_RECORD
  5
1F
330
1
100
AcDbSymbolTableRecord
100
AcDbBlockTableRecord
  2
*MODEL_SPACE
  0
BLOCK_RECORD
  5
1B
330
1
100
AcDbSymbolTableRecord
100
AcDbBlockTableRecord
  2
*PAPER_SPACE
  0
ENDTAB
  0
ENDSEC
  0
SECTION
  2
BLOCKS
  0
BLOCK
  5
20
330
1F
100
AcDbEntity
  8
0
100
AcDbBlockBegin
  2
*MODEL_SPACE
 70
     0
 10
0.0
 20
0.0
 30
0.0
  3
*MODEL_SPACE
  1

  0
ENDBLK
  5
21
330
1F
100
AcDbEntity
  8
0
100
AcDbBlockEnd
  0
BLOCK
  5
1C
330
1B
100
AcDbEntity
 67
     1
  8
0
100
AcDbBlockBegin
  2
*PAPER_SPACE
  1

  0
ENDBLK
  5
1D
330
1B
100
AcDbEntity
 67
     1
  8
0
100
AcDbBlockEnd
  0
ENDSEC
  0
SECTION
  2
ENTITIES
  0
LWPOLYLINE
  5
100
100
AcDbEntity
  8
Layer_1
 62
7
100
AcDbPolyline
 90
146
 70
0
 10
3.784585
 20
5.860538
 30
0.0
 10
3.699144
 20
5.857177
 30
0.0
 10
3.617098
 20
5.840193
 30
0.0
 10
3.539811
 20
5.810531
 30
0.0
 10
3.468645
 20
5.769139
 30
0.0
 10
3.404963
 20
5.716961
 30
0.0
 10
3.350128
 20
5.654943
 30
0.0
 10
3.305503
 20
5.584031
 30
0.0
 10
3.272451
 20
5.505170
 30
0.0
 10
3.252886
 20
5.419917
 30
0.0
 10
3.248032
 20
5.332583
 30
0.0
 10
3.000040
 20
5.349948
 30
0.0
 10
2.783285
 20
5.339436
 30
0.0
 10
2.569777
 20
5.309228
 30
0.0
 10
2.360784
 20
5.259812
 30
0.0
 10
2.157574
 20
5.191679
 30
0.0
 10
1.961415
 20
5.105320
 30
0.0
 10
1.773574
 20
5.001225
 30
0.0
 10
1.595319
 20
4.879885
 30
0.0
 10
1.427919
 20
4.741790
 30
0.0
 10
1.372749
 20
4.809298
 30
0.0
 10
1.306982
 20
4.866532
 30
0.0
 10
1.232930
 20
4.911345
 30
0.0
 10
1.152990
 20
4.942950
 30
0.0
 10
1.068908
 20
4.960819
 30
0.0
 10
0.982427
 20
4.964426
 30
0.0
 10
0.867489
 20
4.946394
 30
0.0
 10
0.760794
 20
4.903691
 30
0.0
 10
0.666221
 20
4.838398
 30
0.0
 10
0.587646
 20
4.752596
 30
0.0
 10
0.535107
 20
4.662479
 30
0.0
 10
0.502564
 20
4.566635
 30
0.0
 10
0.489560
 20
4.467954
 30
0.0
 10
0.495637
 20
4.369331
 30
0.0
 10
0.520335
 20
4.273658
 30
0.0
 10
0.563198
 20
4.183826
 30
0.0
 10
0.623766
 20
4.102729
 30
0.0
 10
0.701583
 20
4.033260
 30
0.0
 10
0.776362
 20
3.988431
 30
0.0
 10
0.857632
 20
3.956859
 30
0.0
 10
0.768185
 20
3.726822
 30
0.0
 10
0.703502
 20
3.489331
 30
0.0
 10
0.664015
 20
3.246377
 30
0.0
 10
0.650154
 20
2.999951
 30
0.0
 10
0.663997
 20
2.753513
 30
0.0
 10
0.703469
 20
2.510545
 30
0.0
 10
0.768140
 20
2.273040
 30
0.0
 10
0.857576
 20
2.042986
 30
0.0
 10
0.776364
 20
2.011407
 30
0.0
 10
0.701638
 20
1.966589
 30
0.0
 10
0.623821
 20
1.897119
 30
0.0
 10
0.563253
 20
1.816022
 30
0.0
 10
0.520390
 20
1.726191
 30
0.0
 10
0.495692
 20
1.630517
 30
0.0
 10
0.489615
 20
1.531894
 30
0.0
 10
0.502619
 20
1.433214
 30
0.0
 10
0.535162
 20
1.337369
 30
0.0
 10
0.587701
 20
1.247252
 30
0.0
 10
0.657171
 20
1.169436
 30
0.0
 10
0.738268
 20
1.108868
 30
0.0
 10
0.828099
 20
1.066005
 30
0.0
 10
0.923773
 20
1.041307
 30
0.0
 10
1.022396
 20
1.035230
 30
0.0
 10
1.121076
 20
1.048234
 30
0.0
 10
1.216921
 20
1.080777
 30
0.0
 10
1.307037
 20
1.133316
 30
0.0
 10
1.372847
 20
1.190651
 30
0.0
 10
1.428029
 20
1.258276
 30
0.0
 10
1.595410
 20
1.120167
 30
0.0
 10
1.773647
 20
0.998811
 30
0.0
 10
1.961471
 20
0.894698
 30
0.0
 10
2.157616
 20
0.808319
 30
0.0
 10
2.360812
 20
0.740165
 30
0.0
 10
2.569794
 20
0.690725
 30
0.0
 10
2.783292
 20
0.660492
 30
0.0
 10
3.000040
 20
0.649954
 30
0.0
 10
3.248032
 20
0.665499
 30
0.0
 10
3.253067
 20
0.579083
 30
0.0
 10
3.272506
 20
0.494732
 30
0.0
 10
3.313200
 20
0.401820
 30
0.0
 10
3.370697
 20
0.319416
 30
0.0
 10
3.443099
 20
0.249742
 30
0.0
 10
3.528505
 20
0.195021
 30
0.0
 10
3.622979
 20
0.158098
 30
0.0
 10
3.721904
 20
0.140487
 30
0.0
 10
3.822367
 20
0.142416
 30
0.0
 10
3.921451
 20
0.164114
 30
0.0
 10
4.016917
 20
0.206140
 30
0.0
 10
4.099572
 20
0.264551
 30
0.0
 10
4.168090
 20
0.336738
 30
0.0
 10
4.221139
 20
0.420092
 30
0.0
 10
4.257391
 20
0.512005
 30
0.0
 10
4.275516
 20
0.609868
 30
0.0
 10
4.274186
 20
0.711071
 30
0.0
 10
4.252070
 20
0.813005
 30
0.0
 10
4.217597
 20
0.893832
 30
0.0
 10
4.169884
 20
0.967621
 30
0.0
 10
4.378551
 20
1.102782
 30
0.0
 10
4.570230
 20
1.257855
 30
0.0
 10
4.743728
 20
1.431197
 30
0.0
 10
4.897847
 20
1.621168
 30
0.0
 10
5.031393
 20
1.826125
 30
0.0
 10
5.143168
 20
2.044427
 30
0.0
 10
5.231976
 20
2.274430
 30
0.0
 10
5.296623
 20
2.514495
 30
0.0
 10
5.380456
 20
2.492538
 30
0.0
 10
5.466783
 20
2.484949
 30
0.0
 10
5.567725
 20
2.494935
 30
0.0
 10
5.663867
 20
2.524149
 30
0.0
 10
5.752508
 20
2.571473
 30
0.0
 10
5.830947
 20
2.635787
 30
0.0
 10
5.895261
 20
2.714226
 30
0.0
 10
5.942584
 20
2.802867
 30
0.0
 10
5.971798
 20
2.899009
 30
0.0
 10
5.981784
 20
2.999951
 30
0.0
 10
5.971798
 20
3.100892
 30
0.0
 10
5.942584
 20
3.197034
 30
0.0
 10
5.895260
 20
3.285675
 30
0.0
 10
5.830946
 20
3.364113
 30
0.0
 10
5.752507
 20
3.428427
 30
0.0
 10
5.663866
 20
3.475750
 30
0.0
 10
5.567725
 20
3.504964
 30
0.0
 10
5.466783
 20
3.514950
 30
0.0
 10
5.378925
 20
3.507066
 30
0.0
 10
5.293702
 20
3.484304
 30
0.0
 10
5.229730
 20
3.724524
 30
0.0
 10
5.141573
 20
3.954754
 30
0.0
 10
5.030421
 20
4.173347
 30
0.0
 10
4.897465
 20
4.378661
 30
0.0
 10
4.743897
 20
4.569048
 30
0.0
 10
4.570908
 20
4.742866
 30
0.0
 10
4.379687
 20
4.898469
 30
0.0
 10
4.171427
 20
5.034212
 30
0.0
 10
4.218194
 20
5.107150
 30
0.0
 10
4.252070
 20
5.186897
 30
0.0
 10
4.274183
 20
5.288837
 30
0.0
 10
4.275509
 20
5.390044
 30
0.0
 10
4.257377
 20
5.487910
 30
0.0
 10
4.221118
 20
5.579824
 30
0.0
 10
4.168060
 20
5.663178
 30
0.0
 10
4.099535
 20
5.735363
 30
0.0
 10
4.016870
 20
5.793769
 30
0.0
 10
3.921396
 20
5.835788
 30
0.0
 10
3.853830
 20
5.852801
 30
0.0
 10
3.784585
 20
5.860538
 30
0.0
 10
3.784585
 20
5.860538
 30
0.0
  0
LWPOLYLINE
  5
101
100
AcDbEntity
  8
Layer_1
 62
7
100
AcDbPolyline
 90
24
 70
0
 10
3.538412
 20
5.651516
 30
0.0
 10
3.965494
 20
5.512719
 30
0.0
 10
4.110353
 20
5.467191
 30
0.0
 10
4.123969
 20
5.455790
 30
0.0
 10
4.131412
 20
5.440012
 30
0.0
 10
4.136591
 20
5.404408
 30
0.0
 10
4.140882
 20
5.339483
 30
0.0
 10
4.134222
 20
5.274946
 30
0.0
 10
4.099770
 20
5.149248
 30
0.0
 10
4.035498
 20
4.950536
 30
0.0
 10
4.011294
 20
4.902776
 30
0.0
 10
3.990590
 20
4.886513
 30
0.0
 10
3.964557
 20
4.881083
 30
0.0
 10
3.655986
 20
4.978374
 30
0.0
 10
3.368472
 20
5.070316
 30
0.0
 10
3.318382
 20
5.096034
 30
0.0
 10
3.302261
 20
5.118693
 30
0.0
 10
3.298137
 20
5.146437
 30
0.0
 10
3.385339
 20
5.423975
 30
0.0
 10
3.409521
 20
5.489401
 30
0.0
 10
3.442667
 20
5.551023
 30
0.0
 10
3.485417
 20
5.606007
 30
0.0
 10
3.538412
 20
5.651516
 30
0.0
 10
3.538412
 20
5.651516
 30
0.0
  0
LWPOLYLINE
  5
102
100
AcDbEntity
  8
Layer_1
 62
7
100
AcDbPolyline
 90
66
 70
0
 10
3.000040
 20
4.949985
 30
0.0
 10
3.199413
 20
4.939912
 30
0.0
 10
3.393027
 20
4.910357
 30
0.0
 10
3.579901
 20
4.862301
 30
0.0
 10
3.759055
 20
4.796724
 30
0.0
 10
3.929508
 20
4.714606
 30
0.0
 10
4.090281
 20
4.616927
 30
0.0
 10
4.240394
 20
4.504669
 30
0.0
 10
4.378866
 20
4.378809
 30
0.0
 10
4.504717
 20
4.240330
 30
0.0
 10
4.616968
 20
4.090211
 30
0.0
 10
4.714637
 20
3.929433
 30
0.0
 10
4.796745
 20
3.758975
 30
0.0
 10
4.862312
 20
3.579817
 30
0.0
 10
4.910358
 20
3.392941
 30
0.0
 10
4.939902
 20
3.199325
 30
0.0
 10
4.949964
 20
2.999951
 30
0.0
 10
4.939897
 20
2.800581
 30
0.0
 10
4.910348
 20
2.606970
 30
0.0
 10
4.862299
 20
2.420098
 30
0.0
 10
4.796730
 20
2.240945
 30
0.0
 10
4.714620
 20
2.070491
 30
0.0
 10
4.616949
 20
1.909717
 30
0.0
 10
4.504698
 20
1.759602
 30
0.0
 10
4.378847
 20
1.621127
 30
0.0
 10
4.240376
 20
1.495272
 30
0.0
 10
4.090264
 20
1.383017
 30
0.0
 10
3.929493
 20
1.285341
 30
0.0
 10
3.759042
 20
1.203226
 30
0.0
 10
3.579891
 20
1.137652
 30
0.0
 10
3.393020
 20
1.089597
 30
0.0
 10
3.199410
 20
1.060044
 30
0.0
 10
3.000040
 20
1.049970
 30
0.0
 10
2.807305
 20
1.059508
 30
0.0
 10
2.617833
 20
1.087776
 30
0.0
 10
2.432905
 20
1.134246
 30
0.0
 10
2.253798
 20
1.198389
 30
0.0
 10
2.081792
 20
1.279674
 30
0.0
 10
1.918164
 20
1.377572
 30
0.0
 10
1.764195
 20
1.491553
 30
0.0
 10
1.621161
 20
1.621088
 30
0.0
 10
1.491623
 20
1.764118
 30
0.0
 10
1.377637
 20
1.918085
 30
0.0
 10
1.279735
 20
2.081709
 30
0.0
 10
1.198445
 20
2.253714
 30
0.0
 10
1.134297
 20
2.432819
 30
0.0
 10
1.087822
 20
2.617746
 30
0.0
 10
1.059548
 20
2.807216
 30
0.0
 10
1.050006
 20
2.999951
 30
0.0
 10
1.059543
 20
3.192690
 30
0.0
 10
1.087813
 20
3.382164
 30
0.0
 10
1.134285
 20
3.567095
 30
0.0
 10
1.198429
 20
3.746205
 30
0.0
 10
1.279717
 20
3.918214
 30
0.0
 10
1.377618
 20
4.081843
 30
0.0
 10
1.491603
 20
4.235814
 30
0.0
 10
1.621142
 20
4.378848
 30
0.0
 10
1.764177
 20
4.508387
 30
0.0
 10
1.918148
 20
4.622372
 30
0.0
 10
2.081777
 20
4.720274
 30
0.0
 10
2.253786
 20
4.801561
 30
0.0
 10
2.432896
 20
4.865706
 30
0.0
 10
2.617827
 20
4.912178
 30
0.0
 10
2.807301
 20
4.940448
 30
0.0
 10
3.000040
 20
4.949985
 30
0.0
 10
3.000040
 20
4.949985
 30
0.0
  0
LWPOLYLINE
  5
103
100
AcDbEntity
  8
Layer_1
 62
7
100
AcDbPolyline
 90
24
 70
0
 10
1.029004
 20
4.829984
 30
0.0
 10
1.064503
 20
4.823922
 30
0.0
 10
1.127575
 20
4.807947
 30
0.0
 10
1.186894
 20
4.781684
 30
0.0
 10
1.295793
 20
4.710096
 30
0.0
 10
1.464850
 20
4.587561
 30
0.0
 10
1.502804
 20
4.549765
 30
0.0
 10
1.511881
 20
4.525038
 30
0.0
 10
1.509003
 20
4.498596
 30
0.0
 10
1.321148
 20
4.235224
 30
0.0
 10
1.144870
 20
3.990153
 30
0.0
 10
1.104922
 20
3.950456
 30
0.0
 10
1.078386
 20
3.942123
 30
0.0
 10
1.050722
 20
3.946773
 30
0.0
 10
0.813700
 20
4.115499
 30
0.0
 10
0.758947
 20
4.158717
 30
0.0
 10
0.710579
 20
4.209289
 30
0.0
 10
0.671494
 20
4.266944
 30
0.0
 10
0.644587
 20
4.331411
 30
0.0
 10
0.908564
 20
4.694662
 30
0.0
 10
0.996648
 20
4.818354
 30
0.0
 10
1.011695
 20
4.827778
 30
0.0
 10
1.029004
 20
4.829984
 30
0.0
 10
1.029004
 20
4.829984
 30
0.0
  0
LWPOLYLINE
  5
104
100
AcDbEntity
  8
Layer_1
 62
7
100
AcDbPolyline
 90
24
 70
0
 10
5.424450
 20
3.382548
 30
0.0
 10
5.494145
 20
3.379770
 30
0.0
 10
5.562993
 20
3.367279
 30
0.0
 10
5.628494
 20
3.343598
 30
0.0
 10
5.688151
 20
3.307254
 30
0.0
 10
5.688151
 20
2.858233
 30
0.0
 10
5.689585
 20
2.706372
 30
0.0
 10
5.682951
 20
2.689897
 30
0.0
 10
5.670248
 20
2.677936
 30
0.0
 10
5.637992
 20
2.662001
 30
0.0
 10
5.577570
 20
2.637858
 30
0.0
 10
5.514132
 20
2.624251
 30
0.0
 10
5.383937
 20
2.618178
 30
0.0
 10
5.175136
 20
2.617895
 30
0.0
 10
5.122207
 20
2.626167
 30
0.0
 10
5.100324
 20
2.640836
 30
0.0
 10
5.087107
 20
2.663920
 30
0.0
 10
5.084296
 20
2.987429
 30
0.0
 10
5.082862
 20
3.289330
 30
0.0
 10
5.091841
 20
3.344909
 30
0.0
 10
5.108408
 20
3.367236
 30
0.0
 10
5.133519
 20
3.379729
 30
0.0
 10
5.424450
 20
3.382551
 30
0.0
 10
5.424450
 20
3.382548
 30
0.0
  0
LWPOLYLINE
  5
105
100
AcDbEntity
  8
Layer_1
 62
7
100
AcDbPolyline
 90
24
 70
0
 10
1.076629
 20
2.056767
 30
0.0
 10
1.114002
 20
2.045080
 30
0.0
 10
1.306376
 20
1.784962
 30
0.0
 10
1.485025
 20
1.541601
 30
0.0
 10
1.510416
 20
1.491358
 30
0.0
 10
1.510128
 20
1.463557
 30
0.0
 10
1.497151
 20
1.438689
 30
0.0
 10
1.263491
 20
1.265385
 30
0.0
 10
1.205463
 20
1.226672
 30
0.0
 10
1.142408
 20
1.196308
 30
0.0
 10
1.075485
 20
1.176960
 30
0.0
 10
1.005853
 20
1.171295
 30
0.0
 10
0.741932
 20
1.534546
 30
0.0
 10
0.651532
 20
1.656584
 30
0.0
 10
0.647215
 20
1.673817
 30
0.0
 10
0.650459
 20
1.690971
 30
0.0
 10
0.667187
 20
1.722839
 30
0.0
 10
0.701874
 20
1.777884
 30
0.0
 10
0.745190
 20
1.826175
 30
0.0
 10
0.846938
 20
1.907607
 30
0.0
 10
1.015720
 20
2.030529
 30
0.0
 10
1.043973
 20
2.048408
 30
0.0
 10
1.076629
 20
2.056767
 30
0.0
 10
1.076629
 20
2.056767
 30
0.0
  0
LWPOLYLINE
  5
106
100
AcDbEntity
  8
Layer_1
 62
7
100
AcDbPolyline
 90
24
 70
0
 10
3.960092
 20
1.117882
 30
0.0
 10
3.994675
 20
1.111421
 30
0.0
 10
4.020450
 20
1.088226
 30
0.0
 10
4.113054
 20
0.812399
 30
0.0
 10
4.131950
 20
0.745253
 30
0.0
 10
4.141360
 20
0.675915
 30
0.0
 10
4.139097
 20
0.606302
 30
0.0
 10
4.122976
 20
0.538333
 30
0.0
 10
3.695894
 20
0.399592
 30
0.0
 10
3.551917
 20
0.351307
 30
0.0
 10
3.534196
 20
0.352521
 30
0.0
 10
3.518892
 20
0.360897
 30
0.0
 10
3.493764
 20
0.386638
 30
0.0
 10
3.452126
 20
0.436645
 30
0.0
 10
3.419570
 20
0.492779
 30
0.0
 10
3.373543
 20
0.614733
 30
0.0
 10
3.308776
 20
0.813225
 30
0.0
 10
3.300296
 20
0.866122
 30
0.0
 10
3.307493
 20
0.891471
 30
0.0
 10
3.325367
 20
0.911176
 30
0.0
 10
3.632174
 20
1.013812
 30
0.0
 10
3.918806
 20
1.108455
 30
0.0
 10
3.960092
 20
1.117882
 30
0.0
 10
3.960092
 20
1.117882
 30
0.0
  0
LWPOLYLINE
  5
107
100
AcDbEntity
  8
Layer_1
 62
7
100
AcDbPolyline
 90
8
 70
1
 10
6.749942
 20
5.999948
 30
0.0
 10
6.749942
 20
5.249943
 30
0.0
 10
6.728693
 20
5.249943
 30
0.0
 10
6.728693
 20
5.978659
 30
0.0
 10
5.999937
 20
5.978659
 30
0.0
 10
5.999937
 20
5.999948
 30
0.0
 10
6.749942
 20
5.999948
 30
0.0
 10
6.749942
 20
5.999948
 30
0.0
  0
LWPOLYLINE
  5
108
100
AcDbEntity
  8
Layer_1
 62
7
100
AcDbPolyline
 90
9
 70
1
 10
0.750004
 20
5.999948
 30
0.0
 10
0.750004
 20
5.978659
 30
0.0
 10
0.021249
 20
5.978659
 30
0.0
 10
0.021249
 20
5.249943
 30
0.0
 10
0.000000
 20
5.249943
 30
0.0
 10
0.000000
 20
5.989282
 30
0.0
 10
0.000000
 20
5.999948
 30
0.0
 10
0.750004
 20
5.999948
 30
0.0
 10
0.750004
 20
5.999948
 30
0.0
  0
LWPOLYLINE
  5
109
100
AcDbEntity
  8
Layer_1
 62
7
100
AcDbPolyline
 90
8
 70
1
 10
6.749936
 20
0.599979
 30
0.0
 10
6.749936
 20
0.000000
 30
0.0
 10
5.999931
 20
0.000000
 30
0.0
 10
5.999931
 20
0.021249
 30
0.0
 10
6.728687
 20
0.021249
 30
0.0
 10
6.728687
 20
0.599979
 30
0.0
 10
6.749936
 20
0.599979
 30
0.0
 10
6.749936
 20
0.599979
 30
0.0
  0
LWPOLYLINE
  5
10a
100
AcDbEntity
  8
Layer_1
 62
7
100
AcDbPolyline
 90
8
 70
1
 10
0.021249
 20
0.599979
 30
0.0
 10
0.021249
 20
0.021249
 30
0.0
 10
0.750004
 20
0.021249
 30
0.0
 10
0.750004
 20
0.000000
 30
0.0
 10
0.000000
 20
0.000000
 30
0.0
 10
0.000000
 20
0.599979
 30
0.0
 10
0.021249
 20
0.599979
 30
0.0
 10
0.021249
 20
0.599979
 30
0.0
  0
LWPOLYLINE
  5
10b
100
AcDbEntity
  8
Layer_1
 62
7
100
AcDbPolyline
 90
9
 70
1
 10
0.750004
 20
5.999948
 30
0.0
 10
0.750004
 20
5.978659
 30
0.0
 10
0.021249
 20
5.978657
 30
0.0
 10
0.021249
 20
5.249943
 30
0.0
 10
0.000000
 20
5.249942
 30
0.0
 10
0.000000
 20
5.989281
 30
0.0
 10
0.000000
 20
5.999948
 30
0.0
 10
0.750004
 20
5.999948
 30
0.0
 10
0.750004
 20
5.999948
 30
0.0
  0
ENDSEC
  0
SECTION
  2
OBJECTS
  0
DICTIONARY
  5
C
330
0
100
AcDbDictionary
  3
ACAD_GROUP
350
D
  3
ACAD_MLINESTYLE
350
17
  0
DICTIONARY
  5
D
330
C
100
AcDbDictionary
  0
DICTIONARY
  5
1A
330
C
100
AcDbDictionary
  0
DICTIONARY
  5
17
330
C
100
AcDbDictionary
  3
STANDARD
350
18
  0
DICTIONARY
  5
19
330
C
100
AcDbDictionary
  0
ENDSEC
  0
EOF
