  0
SECTION
  2
HEADER
  9
$ACADVER
  1
AC1014
  9
$HANDSEED
  5
FFFF
  9
$MEASUREMENT
 70
     1
  0
ENDSEC
  0
SECTION
  2
TABLES
  0
TABLE
  2
VPORT
  5
8
330
0
100
AcDbSymbolTable
 70
     4
  0
VPORT
  5
2E
330
8
100
AcDbSymbolTableRecord
100
AcDbViewportTableRecord
  2
*ACTIVE
 70
     0
 10
0.0
 20
0.0
 11
1.0
 21
1.0
 12
210.0
 22
148.5
 13
0.0
 23
0.0
 14
10.0
 24
10.0
 15
10.0
 25
10.0
 16
0.0
 26
0.0
 36
1.0
 17
0.0
 27
0.0
 37
0.0
 40
341.0
 41
1.24
 42
50.0
 43
0.0
 44
0.0
 50
0.0
 51
0.0
 71
     0
 72
   100
 73
     1
 74
     3
 75
     0
 76
     0
 77
     0
 78
     0
  0
ENDTAB
  0
TABLE
  2
LTYPE
  5
5
330
0
100
AcDbSymbolTable
 70
     1
  0
LTYPE
  5
14
330
5
100
AcDbSymbolTableRecord
100
AcDbLinetypeTableRecord
  2
BYBLOCK
 70
     0
  3

 72
    65
 73
     0
 40
0.0
  0
LTYPE
  5
15
330
5
100
AcDbSymbolTableRecord
100
AcDbLinetypeTableRecord
  2
BYLAYER
 70
     0
  3

 72
    65
 73
     0
 40
0.0
  0
LTYPE
  5
16
330
5
100
AcDbSymbolTableRecord
100
AcDbLinetypeTableRecord
  2
CONTINUOUS
 70
     0
  3
Solid line
 72
    65
 73
     0
 40
0.0
  0
ENDTAB
  0
TABLE
  2
LAYER
  5
2
100
AcDbSymbolTable
 70
2
  0
LAYER
  5
50
100
AcDbSymbolTableRecord
100
AcDbLayerTableRecord
  2
0
 70
0
  6
CONTINUOUS
  0
LAYER
  5
51
100
AcDbSymbolTableRecord
100
AcDbLayerTableRecord
  2
Layer_1
 70
0
  6
CONTINUOUS
  0
ENDTAB
  0
TABLE
  2
STYLE
  5
3
330
0
100
AcDbSymbolTable
 70
     1
  0
STYLE
  5
11
330
3
100
AcDbSymbolTableRecord
100
AcDbTextStyleTableRecord
  2
STANDARD
 70
     0
 40
0.0
 41
1.0
 50
0.0
 71
     0
 42
2.5
  3
txt
  4

  0
ENDTAB
  0
TABLE
  2
VIEW
  5
6
330
0
100
AcDbSymbolTable
 70
     0
  0
ENDTAB
  0
TABLE
  2
UCS
  5
7
330
0
100
AcDbSymbolTable
 70
     0
  0
ENDTAB
  0
TABLE
  2
APPID
  5
9
330
0
100
AcDbSymbolTable
 70
     2
  0
APPID
  5
12
330
9
100
AcDbSymbolTableRecord
100
AcDbRegAppTableRecord
  2
ACAD
 70
     0
  0
ENDTAB
  0
TABLE
  2
DIMSTYLE
  5
A
330
0
100
AcDbSymbolTable
 70
     1
  0
DIMSTYLE
105
27
330
A
100
AcDbSymbolTableRecord
100
AcDbDimStyleTableRecord
  2
ISO-25
 70
     0
  3

  4

  5

  6

  7

 40
1.0
 41
2.5
 42
0.625
 43
3.75
 44
1.25
 45
0.0
 46
0.0
 47
0.0
 48
0.0
140
2.5
141
2.5
142
0.0
143
0.03937007874016
144
1.0
145
0.0
146
1.0
147
0.625
 71
     0
 72
     0
 73
     0
 74
     0
 75
     0
 76
     0
 77
     1
 78
     8
170
     0
171
     3
172
     1
173
     0
174
     0
175
     0
176
     0
177
     0
178
     0
270
     2
271
     2
272
     2
273
     2
274
     3
340
11
275
     0
280
     0
281
     0
282
     0
283
     0
284
     8
285
     0
286
     0
287
     3
288
     0
  0
ENDTAB
  0
TABLE
  2
BLOCK_RECORD
  5
1
330
0
100
AcDbSymbolTable
 70
     1
  0
BLOCK_RECORD
  5
1F
330
1
100
AcDbSymbolTableRecord
100
AcDbBlockTableRecord
  2
*MODEL_SPACE
  0
BLOCK_RECORD
  5
1B
330
1
100
AcDbSymbolTableRecord
100
AcDbBlockTableRecord
  2
*PAPER_SPACE
  0
ENDTAB
  0
ENDSEC
  0
SECTION
  2
BLOCKS
  0
BLOCK
  5
20
330
1F
100
AcDbEntity
  8
0
100
AcDbBlockBegin
  2
*MODEL_SPACE
 70
     0
 10
0.0
 20
0.0
 30
0.0
  3
*MODEL_SPACE
  1

  0
ENDBLK
  5
21
330
1F
100
AcDbEntity
  8
0
100
AcDbBlockEnd
  0
BLOCK
  5
1C
330
1B
100
AcDbEntity
 67
     1
  8
0
100
AcDbBlockBegin
  2
*PAPER_SPACE
  1

  0
ENDBLK
  5
1D
330
1B
100
AcDbEntity
 67
     1
  8
0
100
AcDbBlockEnd
  0
ENDSEC
  0
SECTION
  2
ENTITIES
  0
LWPOLYLINE
  5
100
100
AcDbEntity
  8
Layer_1
 62
7
100
AcDbPolyline
 90
8
 70
1
 10
5.999999
 20
6.000005
 30
0.0
 10
5.999999
 20
4.999990
 30
0.0
 10
5.971667
 20
4.999990
 30
0.0
 10
5.971667
 20
5.971619
 30
0.0
 10
4.999984
 20
5.971619
 30
0.0
 10
4.999984
 20
6.000005
 30
0.0
 10
5.999999
 20
6.000005
 30
0.0
 10
5.999999
 20
6.000005
 30
0.0
  0
LWPOLYLINE
  5
101
100
AcDbEntity
  8
Layer_1
 62
7
100
AcDbPolyline
 90
9
 70
1
 10
1.000015
 20
6.000005
 30
0.0
 10
1.000015
 20
5.971619
 30
0.0
 10
0.028332
 20
5.971619
 30
0.0
 10
0.028332
 20
4.999990
 30
0.0
 10
-0.000000
 20
4.999990
 30
0.0
 10
-0.000000
 20
5.985784
 30
0.0
 10
-0.000000
 20
6.000005
 30
0.0
 10
1.000015
 20
6.000005
 30
0.0
 10
1.000015
 20
6.000005
 30
0.0
  0
LWPOLYLINE
  5
102
100
AcDbEntity
  8
Layer_1
 62
7
100
AcDbPolyline
 90
8
 70
1
 10
5.999999
 20
0.799984
 30
0.0
 10
5.999999
 20
0.000006
 30
0.0
 10
4.999984
 20
0.000006
 30
0.0
 10
4.999984
 20
0.028338
 30
0.0
 10
5.971667
 20
0.028338
 30
0.0
 10
5.971667
 20
0.799984
 30
0.0
 10
5.999999
 20
0.799984
 30
0.0
 10
5.999999
 20
0.799984
 30
0.0
  0
LWPOLYLINE
  5
103
100
AcDbEntity
  8
Layer_1
 62
7
100
AcDbPolyline
 90
8
 70
1
 10
0.028332
 20
0.799984
 30
0.0
 10
0.028332
 20
0.028338
 30
0.0
 10
1.000015
 20
0.028338
 30
0.0
 10
1.000015
 20
0.000006
 30
0.0
 10
-0.000000
 20
0.000006
 30
0.0
 10
-0.000000
 20
0.799984
 30
0.0
 10
0.028332
 20
0.799984
 30
0.0
 10
0.028332
 20
0.799984
 30
0.0
  0
LWPOLYLINE
  5
104
100
AcDbEntity
  8
Layer_1
 62
7
100
AcDbPolyline
 90
8
 70
1
 10
6.000001
 20
5.999999
 30
0.0
 10
6.000001
 20
4.999984
 30
0.0
 10
5.971668
 20
4.999984
 30
0.0
 10
5.971668
 20
5.971613
 30
0.0
 10
4.999986
 20
5.971613
 30
0.0
 10
4.999986
 20
5.999999
 30
0.0
 10
6.000001
 20
5.999999
 30
0.0
 10
6.000001
 20
5.999999
 30
0.0
  0
LWPOLYLINE
  5
105
100
AcDbEntity
  8
Layer_1
 62
7
100
AcDbPolyline
 90
9
 70
1
 10
1.000016
 20
5.999999
 30
0.0
 10
1.000016
 20
5.971613
 30
0.0
 10
0.028334
 20
5.971613
 30
0.0
 10
0.028334
 20
4.999984
 30
0.0
 10
0.000001
 20
4.999984
 30
0.0
 10
0.000001
 20
5.985778
 30
0.0
 10
0.000001
 20
5.999999
 30
0.0
 10
1.000016
 20
5.999999
 30
0.0
 10
1.000016
 20
5.999999
 30
0.0
  0
LWPOLYLINE
  5
106
100
AcDbEntity
  8
Layer_1
 62
7
100
AcDbPolyline
 90
8
 70
1
 10
6.000001
 20
0.799979
 30
0.0
 10
6.000001
 20
0.000000
 30
0.0
 10
4.999986
 20
0.000000
 30
0.0
 10
4.999986
 20
0.028332
 30
0.0
 10
5.971668
 20
0.028332
 30
0.0
 10
5.971668
 20
0.799979
 30
0.0
 10
6.000001
 20
0.799979
 30
0.0
 10
6.000001
 20
0.799979
 30
0.0
  0
LWPOLYLINE
  5
107
100
AcDbEntity
  8
Layer_1
 62
7
100
AcDbPolyline
 90
8
 70
1
 10
0.028334
 20
0.799979
 30
0.0
 10
0.028334
 20
0.028332
 30
0.0
 10
1.000016
 20
0.028332
 30
0.0
 10
1.000016
 20
0.000000
 30
0.0
 10
0.000001
 20
0.000000
 30
0.0
 10
0.000001
 20
0.799979
 30
0.0
 10
0.028334
 20
0.799979
 30
0.0
 10
0.028334
 20
0.799979
 30
0.0
  0
LWPOLYLINE
  5
108
100
AcDbEntity
  8
Layer_1
 62
7
100
AcDbPolyline
 90
16
 70
0
 10
2.856797
 20
4.075004
 30
0.0
 10
2.700197
 20
4.055227
 30
0.0
 10
2.546260
 20
4.021742
 30
0.0
 10
2.395883
 20
3.974788
 30
0.0
 10
2.249964
 20
3.914600
 30
0.0
 10
2.249964
 20
1.526515
 30
0.0
 10
2.251508
 20
1.524971
 30
0.0
 10
3.748498
 20
1.524971
 30
0.0
 10
3.749986
 20
1.526515
 30
0.0
 10
3.749986
 20
3.912120
 30
0.0
 10
3.599131
 20
3.974326
 30
0.0
 10
3.443545
 20
4.022380
 30
0.0
 10
3.284221
 20
4.056025
 30
0.0
 10
3.122152
 20
4.075004
 30
0.0
 10
2.856797
 20
4.075004
 30
0.0
 10
2.856797
 20
4.075004
 30
0.0
  0
LWPOLYLINE
  5
109
100
AcDbEntity
  8
Layer_1
 62
7
100
AcDbPolyline
 90
11
 70
0
 10
2.575016
 20
3.918844
 30
0.0
 10
3.424990
 20
3.918844
 30
0.0
 10
3.424990
 20
3.818799
 30
0.0
 10
3.060802
 20
3.818799
 30
0.0
 10
3.034162
 20
3.841725
 30
0.0
 10
3.000003
 20
3.849998
 30
0.0
 10
2.965844
 20
3.841725
 30
0.0
 10
2.939204
 20
3.818799
 30
0.0
 10
2.575016
 20
3.818799
 30
0.0
 10
2.575016
 20
3.918844
 30
0.0
 10
2.575016
 20
3.918844
 30
0.0
  0
LWPOLYLINE
  5
10a
100
AcDbEntity
  8
Layer_1
 62
7
100
AcDbPolyline
 90
17
 70
0
 10
2.580252
 20
3.767977
 30
0.0
 10
2.925424
 20
3.767977
 30
0.0
 10
2.933170
 20
3.741126
 30
0.0
 10
2.949575
 20
3.719578
 30
0.0
 10
2.972550
 20
3.705238
 30
0.0
 10
3.000003
 20
3.700012
 30
0.0
 10
3.027474
 20
3.705223
 30
0.0
 10
3.050465
 20
3.719559
 30
0.0
 10
3.066885
 20
3.741113
 30
0.0
 10
3.074638
 20
3.767977
 30
0.0
 10
3.419643
 20
3.767977
 30
0.0
 10
3.419643
 20
3.400316
 30
0.0
 10
3.419643
 20
3.399820
 30
0.0
 10
3.419587
 20
1.778640
 30
0.0
 10
2.580251
 20
1.778640
 30
0.0
 10
2.580251
 20
3.767976
 30
0.0
 10
2.580252
 20
3.767977
 30
0.0
  0
LWPOLYLINE
  5
10b
100
AcDbEntity
  8
Layer_1
 62
7
100
AcDbPolyline
 90
10
 70
0
 10
2.400005
 20
3.750007
 30
0.0
 10
2.435355
 20
3.735363
 30
0.0
 10
2.450000
 20
3.700012
 30
0.0
 10
2.435355
 20
3.664661
 30
0.0
 10
2.400005
 20
3.650017
 30
0.0
 10
2.364655
 20
3.664661
 30
0.0
 10
2.350010
 20
3.700012
 30
0.0
 10
2.364655
 20
3.735363
 30
0.0
 10
2.400005
 20
3.750007
 30
0.0
 10
2.400005
 20
3.750007
 30
0.0
  0
LWPOLYLINE
  5
10c
100
AcDbEntity
  8
Layer_1
 62
7
100
AcDbPolyline
 90
10
 70
0
 10
3.600001
 20
3.750007
 30
0.0
 10
3.635351
 20
3.735363
 30
0.0
 10
3.649996
 20
3.700012
 30
0.0
 10
3.635351
 20
3.664661
 30
0.0
 10
3.600001
 20
3.650017
 30
0.0
 10
3.564650
 20
3.664661
 30
0.0
 10
3.550006
 20
3.700012
 30
0.0
 10
3.564650
 20
3.735363
 30
0.0
 10
3.600001
 20
3.750007
 30
0.0
 10
3.600001
 20
3.750007
 30
0.0
  0
LWPOLYLINE
  5
10d
100
AcDbEntity
  8
Layer_1
 62
7
100
AcDbPolyline
 90
10
 70
0
 10
2.400005
 20
3.550026
 30
0.0
 10
2.435375
 20
3.535362
 30
0.0
 10
2.450000
 20
3.499976
 30
0.0
 10
2.435355
 20
3.464625
 30
0.0
 10
2.400005
 20
3.449981
 30
0.0
 10
2.364655
 20
3.464625
 30
0.0
 10
2.350010
 20
3.499976
 30
0.0
 10
2.364635
 20
3.535362
 30
0.0
 10
2.400005
 20
3.550026
 30
0.0
 10
2.400005
 20
3.550026
 30
0.0
  0
LWPOLYLINE
  5
10e
100
AcDbEntity
  8
Layer_1
 62
7
100
AcDbPolyline
 90
10
 70
0
 10
3.600001
 20
3.550026
 30
0.0
 10
3.635371
 20
3.535362
 30
0.0
 10
3.649996
 20
3.499976
 30
0.0
 10
3.635351
 20
3.464625
 30
0.0
 10
3.600001
 20
3.449981
 30
0.0
 10
3.564650
 20
3.464625
 30
0.0
 10
3.550006
 20
3.499976
 30
0.0
 10
3.564630
 20
3.535362
 30
0.0
 10
3.600001
 20
3.550026
 30
0.0
 10
3.600001
 20
3.550026
 30
0.0
  0
LWPOLYLINE
  5
10f
100
AcDbEntity
  8
Layer_1
 62
7
100
AcDbPolyline
 90
10
 70
0
 10
2.400005
 20
3.349990
 30
0.0
 10
2.435355
 20
3.335346
 30
0.0
 10
2.450000
 20
3.299995
 30
0.0
 10
2.435355
 20
3.264644
 30
0.0
 10
2.400005
 20
3.250000
 30
0.0
 10
2.364655
 20
3.264644
 30
0.0
 10
2.350010
 20
3.299995
 30
0.0
 10
2.364655
 20
3.335346
 30
0.0
 10
2.400005
 20
3.349990
 30
0.0
 10
2.400005
 20
3.349990
 30
0.0
  0
LWPOLYLINE
  5
110
100
AcDbEntity
  8
Layer_1
 62
7
100
AcDbPolyline
 90
10
 70
0
 10
3.600001
 20
3.349990
 30
0.0
 10
3.635351
 20
3.335346
 30
0.0
 10
3.649996
 20
3.299995
 30
0.0
 10
3.635351
 20
3.264644
 30
0.0
 10
3.600001
 20
3.250000
 30
0.0
 10
3.564650
 20
3.264644
 30
0.0
 10
3.550006
 20
3.299995
 30
0.0
 10
3.564650
 20
3.335346
 30
0.0
 10
3.600001
 20
3.349990
 30
0.0
 10
3.600001
 20
3.349990
 30
0.0
  0
LWPOLYLINE
  5
111
100
AcDbEntity
  8
Layer_1
 62
7
100
AcDbPolyline
 90
10
 70
0
 10
2.400005
 20
3.150010
 30
0.0
 10
2.435355
 20
3.135365
 30
0.0
 10
2.450000
 20
3.100014
 30
0.0
 10
2.435355
 20
3.064664
 30
0.0
 10
2.400005
 20
3.050019
 30
0.0
 10
2.364655
 20
3.064664
 30
0.0
 10
2.350010
 20
3.100014
 30
0.0
 10
2.364655
 20
3.135365
 30
0.0
 10
2.400005
 20
3.150010
 30
0.0
 10
2.400005
 20
3.150010
 30
0.0
  0
LWPOLYLINE
  5
112
100
AcDbEntity
  8
Layer_1
 62
7
100
AcDbPolyline
 90
10
 70
0
 10
3.600001
 20
3.150010
 30
0.0
 10
3.635351
 20
3.135365
 30
0.0
 10
3.649996
 20
3.100014
 30
0.0
 10
3.635351
 20
3.064664
 30
0.0
 10
3.600001
 20
3.050019
 30
0.0
 10
3.564650
 20
3.064664
 30
0.0
 10
3.550006
 20
3.100014
 30
0.0
 10
3.564650
 20
3.135365
 30
0.0
 10
3.600001
 20
3.150010
 30
0.0
 10
3.600001
 20
3.150010
 30
0.0
  0
LWPOLYLINE
  5
113
100
AcDbEntity
  8
Layer_1
 62
7
100
AcDbPolyline
 90
10
 70
0
 10
2.400005
 20
2.950029
 30
0.0
 10
2.435375
 20
2.935365
 30
0.0
 10
2.450000
 20
2.899978
 30
0.0
 10
2.435355
 20
2.864628
 30
0.0
 10
2.400005
 20
2.849983
 30
0.0
 10
2.364655
 20
2.864628
 30
0.0
 10
2.350010
 20
2.899978
 30
0.0
 10
2.364635
 20
2.935365
 30
0.0
 10
2.400005
 20
2.950029
 30
0.0
 10
2.400005
 20
2.950029
 30
0.0
  0
LWPOLYLINE
  5
114
100
AcDbEntity
  8
Layer_1
 62
7
100
AcDbPolyline
 90
10
 70
0
 10
3.600001
 20
2.950029
 30
0.0
 10
3.635371
 20
2.935365
 30
0.0
 10
3.649996
 20
2.899978
 30
0.0
 10
3.635351
 20
2.864628
 30
0.0
 10
3.600001
 20
2.849983
 30
0.0
 10
3.564650
 20
2.864628
 30
0.0
 10
3.550006
 20
2.899978
 30
0.0
 10
3.564630
 20
2.935365
 30
0.0
 10
3.600001
 20
2.950029
 30
0.0
 10
3.600001
 20
2.950029
 30
0.0
  0
LWPOLYLINE
  5
115
100
AcDbEntity
  8
Layer_1
 62
7
100
AcDbPolyline
 90
10
 70
0
 10
2.400005
 20
2.749993
 30
0.0
 10
2.435355
 20
2.735348
 30
0.0
 10
2.450000
 20
2.699997
 30
0.0
 10
2.435355
 20
2.664647
 30
0.0
 10
2.400005
 20
2.650002
 30
0.0
 10
2.364655
 20
2.664647
 30
0.0
 10
2.350010
 20
2.699997
 30
0.0
 10
2.364655
 20
2.735348
 30
0.0
 10
2.400005
 20
2.749993
 30
0.0
 10
2.400005
 20
2.749993
 30
0.0
  0
LWPOLYLINE
  5
116
100
AcDbEntity
  8
Layer_1
 62
7
100
AcDbPolyline
 90
10
 70
0
 10
3.600001
 20
2.749993
 30
0.0
 10
3.635351
 20
2.735348
 30
0.0
 10
3.649996
 20
2.699997
 30
0.0
 10
3.635351
 20
2.664647
 30
0.0
 10
3.600001
 20
2.650002
 30
0.0
 10
3.564650
 20
2.664647
 30
0.0
 10
3.550006
 20
2.699997
 30
0.0
 10
3.564650
 20
2.735348
 30
0.0
 10
3.600001
 20
2.749993
 30
0.0
 10
3.600001
 20
2.749993
 30
0.0
  0
LWPOLYLINE
  5
117
100
AcDbEntity
  8
Layer_1
 62
7
100
AcDbPolyline
 90
10
 70
0
 10
2.400005
 20
2.550012
 30
0.0
 10
2.435355
 20
2.535367
 30
0.0
 10
2.450000
 20
2.500016
 30
0.0
 10
2.435355
 20
2.464666
 30
0.0
 10
2.400005
 20
2.450021
 30
0.0
 10
2.364655
 20
2.464666
 30
0.0
 10
2.350010
 20
2.500016
 30
0.0
 10
2.364655
 20
2.535367
 30
0.0
 10
2.400005
 20
2.550012
 30
0.0
 10
2.400005
 20
2.550012
 30
0.0
  0
LWPOLYLINE
  5
118
100
AcDbEntity
  8
Layer_1
 62
7
100
AcDbPolyline
 90
10
 70
0
 10
3.600001
 20
2.550012
 30
0.0
 10
3.635351
 20
2.535367
 30
0.0
 10
3.649996
 20
2.500016
 30
0.0
 10
3.635351
 20
2.464666
 30
0.0
 10
3.600001
 20
2.450021
 30
0.0
 10
3.564650
 20
2.464666
 30
0.0
 10
3.550006
 20
2.500016
 30
0.0
 10
3.564650
 20
2.535367
 30
0.0
 10
3.600001
 20
2.550012
 30
0.0
 10
3.600001
 20
2.550012
 30
0.0
  0
LWPOLYLINE
  5
119
100
AcDbEntity
  8
Layer_1
 62
7
100
AcDbPolyline
 90
10
 70
0
 10
2.400005
 20
2.349976
 30
0.0
 10
2.435355
 20
2.335331
 30
0.0
 10
2.450000
 20
2.299980
 30
0.0
 10
2.435355
 20
2.264630
 30
0.0
 10
2.400005
 20
2.249985
 30
0.0
 10
2.364655
 20
2.264630
 30
0.0
 10
2.350010
 20
2.299980
 30
0.0
 10
2.364655
 20
2.335331
 30
0.0
 10
2.400005
 20
2.349976
 30
0.0
 10
2.400005
 20
2.349976
 30
0.0
  0
LWPOLYLINE
  5
11a
100
AcDbEntity
  8
Layer_1
 62
7
100
AcDbPolyline
 90
10
 70
0
 10
3.600001
 20
2.349976
 30
0.0
 10
3.635351
 20
2.335331
 30
0.0
 10
3.649996
 20
2.299980
 30
0.0
 10
3.635351
 20
2.264630
 30
0.0
 10
3.600001
 20
2.249985
 30
0.0
 10
3.564650
 20
2.264630
 30
0.0
 10
3.550006
 20
2.299980
 30
0.0
 10
3.564650
 20
2.335331
 30
0.0
 10
3.600001
 20
2.349976
 30
0.0
 10
3.600001
 20
2.349976
 30
0.0
  0
LWPOLYLINE
  5
11b
100
AcDbEntity
  8
Layer_1
 62
7
100
AcDbPolyline
 90
10
 70
0
 10
2.400005
 20
2.149995
 30
0.0
 10
2.435355
 20
2.135350
 30
0.0
 10
2.450000
 20
2.100000
 30
0.0
 10
2.435355
 20
2.064649
 30
0.0
 10
2.400005
 20
2.050004
 30
0.0
 10
2.364655
 20
2.064649
 30
0.0
 10
2.350010
 20
2.100000
 30
0.0
 10
2.364655
 20
2.135350
 30
0.0
 10
2.400005
 20
2.149995
 30
0.0
 10
2.400005
 20
2.149995
 30
0.0
  0
LWPOLYLINE
  5
11c
100
AcDbEntity
  8
Layer_1
 62
7
100
AcDbPolyline
 90
10
 70
0
 10
3.600001
 20
2.149995
 30
0.0
 10
3.635351
 20
2.135350
 30
0.0
 10
3.649996
 20
2.100000
 30
0.0
 10
3.635351
 20
2.064649
 30
0.0
 10
3.600001
 20
2.050004
 30
0.0
 10
3.564650
 20
2.064649
 30
0.0
 10
3.550006
 20
2.100000
 30
0.0
 10
3.564650
 20
2.135350
 30
0.0
 10
3.600001
 20
2.149995
 30
0.0
 10
3.600001
 20
2.149995
 30
0.0
  0
LWPOLYLINE
  5
11d
100
AcDbEntity
  8
Layer_1
 62
7
100
AcDbPolyline
 90
10
 70
0
 10
2.400005
 20
1.950014
 30
0.0
 10
2.435355
 20
1.935369
 30
0.0
 10
2.450000
 20
1.900019
 30
0.0
 10
2.435355
 20
1.864668
 30
0.0
 10
2.400005
 20
1.850023
 30
0.0
 10
2.364655
 20
1.864668
 30
0.0
 10
2.350010
 20
1.900019
 30
0.0
 10
2.364655
 20
1.935369
 30
0.0
 10
2.400005
 20
1.950014
 30
0.0
 10
2.400005
 20
1.950014
 30
0.0
  0
LWPOLYLINE
  5
11e
100
AcDbEntity
  8
Layer_1
 62
7
100
AcDbPolyline
 90
10
 70
0
 10
3.600001
 20
1.950014
 30
0.0
 10
3.635351
 20
1.935369
 30
0.0
 10
3.649996
 20
1.900019
 30
0.0
 10
3.635351
 20
1.864668
 30
0.0
 10
3.600001
 20
1.850023
 30
0.0
 10
3.564650
 20
1.864668
 30
0.0
 10
3.550006
 20
1.900019
 30
0.0
 10
3.564650
 20
1.935369
 30
0.0
 10
3.600001
 20
1.950014
 30
0.0
 10
3.600001
 20
1.950014
 30
0.0
  0
LWPOLYLINE
  5
11f
100
AcDbEntity
  8
Layer_1
 62
7
100
AcDbPolyline
 90
10
 70
0
 10
2.400005
 20
1.749978
 30
0.0
 10
2.435355
 20
1.735333
 30
0.0
 10
2.450000
 20
1.699983
 30
0.0
 10
2.435355
 20
1.664632
 30
0.0
 10
2.400005
 20
1.649987
 30
0.0
 10
2.364655
 20
1.664632
 30
0.0
 10
2.350010
 20
1.699983
 30
0.0
 10
2.364655
 20
1.735333
 30
0.0
 10
2.400005
 20
1.749978
 30
0.0
 10
2.400005
 20
1.749978
 30
0.0
  0
LWPOLYLINE
  5
120
100
AcDbEntity
  8
Layer_1
 62
7
100
AcDbPolyline
 90
10
 70
0
 10
3.600001
 20
1.749978
 30
0.0
 10
3.635351
 20
1.735333
 30
0.0
 10
3.649996
 20
1.699983
 30
0.0
 10
3.635351
 20
1.664632
 30
0.0
 10
3.600001
 20
1.649987
 30
0.0
 10
3.564650
 20
1.664632
 30
0.0
 10
3.550006
 20
1.699983
 30
0.0
 10
3.564650
 20
1.735333
 30
0.0
 10
3.600001
 20
1.749978
 30
0.0
 10
3.600001
 20
1.749978
 30
0.0
  0
ENDSEC
  0
SECTION
  2
OBJECTS
  0
DICTIONARY
  5
C
330
0
100
AcDbDictionary
  3
ACAD_GROUP
350
D
  3
ACAD_MLINESTYLE
350
17
  0
DICTIONARY
  5
D
330
C
100
AcDbDictionary
  0
DICTIONARY
  5
1A
330
C
100
AcDbDictionary
  0
DICTIONARY
  5
17
330
C
100
AcDbDictionary
  3
STANDARD
350
18
  0
DICTIONARY
  5
19
330
C
100
AcDbDictionary
  0
ENDSEC
  0
EOF
