  0
SECTION
  2
HEADER
  9
$ACADVER
  1
AC1014
  9
$HANDSEED
  5
FFFF
  9
$MEASUREMENT
 70
     1
  0
ENDSEC
  0
SECTION
  2
TABLES
  0
TABLE
  2
VPORT
  5
8
330
0
100
AcDbSymbolTable
 70
     4
  0
VPORT
  5
2E
330
8
100
AcDbSymbolTableRecord
100
AcDbViewportTableRecord
  2
*ACTIVE
 70
     0
 10
0.0
 20
0.0
 11
1.0
 21
1.0
 12
210.0
 22
148.5
 13
0.0
 23
0.0
 14
10.0
 24
10.0
 15
10.0
 25
10.0
 16
0.0
 26
0.0
 36
1.0
 17
0.0
 27
0.0
 37
0.0
 40
341.0
 41
1.24
 42
50.0
 43
0.0
 44
0.0
 50
0.0
 51
0.0
 71
     0
 72
   100
 73
     1
 74
     3
 75
     0
 76
     0
 77
     0
 78
     0
  0
ENDTAB
  0
TABLE
  2
LTYPE
  5
5
330
0
100
AcDbSymbolTable
 70
     1
  0
LTYPE
  5
14
330
5
100
AcDbSymbolTableRecord
100
AcDbLinetypeTableRecord
  2
BYBLOCK
 70
     0
  3

 72
    65
 73
     0
 40
0.0
  0
LTYPE
  5
15
330
5
100
AcDbSymbolTableRecord
100
AcDbLinetypeTableRecord
  2
BYLAYER
 70
     0
  3

 72
    65
 73
     0
 40
0.0
  0
LTYPE
  5
16
330
5
100
AcDbSymbolTableRecord
100
AcDbLinetypeTableRecord
  2
CONTINUOUS
 70
     0
  3
Solid line
 72
    65
 73
     0
 40
0.0
  0
ENDTAB
  0
TABLE
  2
LAYER
  5
2
100
AcDbSymbolTable
 70
2
  0
LAYER
  5
50
100
AcDbSymbolTableRecord
100
AcDbLayerTableRecord
  2
0
 70
0
  6
CONTINUOUS
  0
LAYER
  5
51
100
AcDbSymbolTableRecord
100
AcDbLayerTableRecord
  2
Layer_1
 70
0
  6
CONTINUOUS
  0
ENDTAB
  0
TABLE
  2
STYLE
  5
3
330
0
100
AcDbSymbolTable
 70
     1
  0
STYLE
  5
11
330
3
100
AcDbSymbolTableRecord
100
AcDbTextStyleTableRecord
  2
STANDARD
 70
     0
 40
0.0
 41
1.0
 50
0.0
 71
     0
 42
2.5
  3
txt
  4

  0
ENDTAB
  0
TABLE
  2
VIEW
  5
6
330
0
100
AcDbSymbolTable
 70
     0
  0
ENDTAB
  0
TABLE
  2
UCS
  5
7
330
0
100
AcDbSymbolTable
 70
     0
  0
ENDTAB
  0
TABLE
  2
APPID
  5
9
330
0
100
AcDbSymbolTable
 70
     2
  0
APPID
  5
12
330
9
100
AcDbSymbolTableRecord
100
AcDbRegAppTableRecord
  2
ACAD
 70
     0
  0
ENDTAB
  0
TABLE
  2
DIMSTYLE
  5
A
330
0
100
AcDbSymbolTable
 70
     1
  0
DIMSTYLE
105
27
330
A
100
AcDbSymbolTableRecord
100
AcDbDimStyleTableRecord
  2
ISO-25
 70
     0
  3

  4

  5

  6

  7

 40
1.0
 41
2.5
 42
0.625
 43
3.75
 44
1.25
 45
0.0
 46
0.0
 47
0.0
 48
0.0
140
2.5
141
2.5
142
0.0
143
0.03937007874016
144
1.0
145
0.0
146
1.0
147
0.625
 71
     0
 72
     0
 73
     0
 74
     0
 75
     0
 76
     0
 77
     1
 78
     8
170
     0
171
     3
172
     1
173
     0
174
     0
175
     0
176
     0
177
     0
178
     0
270
     2
271
     2
272
     2
273
     2
274
     3
340
11
275
     0
280
     0
281
     0
282
     0
283
     0
284
     8
285
     0
286
     0
287
     3
288
     0
  0
ENDTAB
  0
TABLE
  2
BLOCK_RECORD
  5
1
330
0
100
AcDbSymbolTable
 70
     1
  0
BLOCK_RECORD
  5
1F
330
1
100
AcDbSymbolTableRecord
100
AcDbBlockTableRecord
  2
*MODEL_SPACE
  0
BLOCK_RECORD
  5
1B
330
1
100
AcDbSymbolTableRecord
100
AcDbBlockTableRecord
  2
*PAPER_SPACE
  0
ENDTAB
  0
ENDSEC
  0
SECTION
  2
BLOCKS
  0
BLOCK
  5
20
330
1F
100
AcDbEntity
  8
0
100
AcDbBlockBegin
  2
*MODEL_SPACE
 70
     0
 10
0.0
 20
0.0
 30
0.0
  3
*MODEL_SPACE
  1

  0
ENDBLK
  5
21
330
1F
100
AcDbEntity
  8
0
100
AcDbBlockEnd
  0
BLOCK
  5
1C
330
1B
100
AcDbEntity
 67
     1
  8
0
100
AcDbBlockBegin
  2
*PAPER_SPACE
  1

  0
ENDBLK
  5
1D
330
1B
100
AcDbEntity
 67
     1
  8
0
100
AcDbBlockEnd
  0
ENDSEC
  0
SECTION
  2
ENTITIES
  0
LWPOLYLINE
  5
100
100
AcDbEntity
  8
Layer_1
 62
7
100
AcDbPolyline
 90
8
 70
1
 10
5.999999
 20
6.000001
 30
0.0
 10
5.999999
 20
4.999987
 30
0.0
 10
5.971667
 20
4.999987
 30
0.0
 10
5.971667
 20
5.971616
 30
0.0
 10
4.999984
 20
5.971616
 30
0.0
 10
4.999984
 20
6.000001
 30
0.0
 10
5.999999
 20
6.000001
 30
0.0
 10
5.999999
 20
6.000001
 30
0.0
  0
LWPOLYLINE
  5
101
100
AcDbEntity
  8
Layer_1
 62
7
100
AcDbPolyline
 90
9
 70
1
 10
1.000015
 20
6.000001
 30
0.0
 10
1.000015
 20
5.971616
 30
0.0
 10
0.028332
 20
5.971616
 30
0.0
 10
0.028332
 20
4.999987
 30
0.0
 10
-0.000000
 20
4.999987
 30
0.0
 10
-0.000000
 20
5.985780
 30
0.0
 10
-0.000000
 20
6.000001
 30
0.0
 10
1.000015
 20
6.000001
 30
0.0
 10
1.000015
 20
6.000001
 30
0.0
  0
LWPOLYLINE
  5
102
100
AcDbEntity
  8
Layer_1
 62
7
100
AcDbPolyline
 90
8
 70
1
 10
5.999999
 20
0.799981
 30
0.0
 10
5.999999
 20
0.000002
 30
0.0
 10
4.999984
 20
0.000002
 30
0.0
 10
4.999984
 20
0.028334
 30
0.0
 10
5.971667
 20
0.028334
 30
0.0
 10
5.971667
 20
0.799981
 30
0.0
 10
5.999999
 20
0.799981
 30
0.0
 10
5.999999
 20
0.799981
 30
0.0
  0
LWPOLYLINE
  5
103
100
AcDbEntity
  8
Layer_1
 62
7
100
AcDbPolyline
 90
8
 70
1
 10
0.028332
 20
0.799981
 30
0.0
 10
0.028332
 20
0.028334
 30
0.0
 10
1.000015
 20
0.028334
 30
0.0
 10
1.000015
 20
0.000002
 30
0.0
 10
-0.000000
 20
0.000002
 30
0.0
 10
-0.000000
 20
0.799981
 30
0.0
 10
0.028332
 20
0.799981
 30
0.0
 10
0.028332
 20
0.799981
 30
0.0
  0
LWPOLYLINE
  5
104
100
AcDbEntity
  8
Layer_1
 62
7
100
AcDbPolyline
 90
8
 70
1
 10
6.000001
 20
5.999999
 30
0.0
 10
6.000001
 20
4.999984
 30
0.0
 10
5.971668
 20
4.999984
 30
0.0
 10
5.971668
 20
5.971613
 30
0.0
 10
4.999986
 20
5.971613
 30
0.0
 10
4.999986
 20
5.999999
 30
0.0
 10
6.000001
 20
5.999999
 30
0.0
 10
6.000001
 20
5.999999
 30
0.0
  0
LWPOLYLINE
  5
105
100
AcDbEntity
  8
Layer_1
 62
7
100
AcDbPolyline
 90
9
 70
1
 10
1.000016
 20
5.999999
 30
0.0
 10
1.000016
 20
5.971613
 30
0.0
 10
0.028334
 20
5.971613
 30
0.0
 10
0.028334
 20
4.999984
 30
0.0
 10
0.000001
 20
4.999984
 30
0.0
 10
0.000001
 20
5.985778
 30
0.0
 10
0.000001
 20
5.999999
 30
0.0
 10
1.000016
 20
5.999999
 30
0.0
 10
1.000016
 20
5.999999
 30
0.0
  0
LWPOLYLINE
  5
106
100
AcDbEntity
  8
Layer_1
 62
7
100
AcDbPolyline
 90
8
 70
1
 10
6.000001
 20
0.799978
 30
0.0
 10
6.000001
 20
-0.000000
 30
0.0
 10
4.999986
 20
-0.000000
 30
0.0
 10
4.999986
 20
0.028332
 30
0.0
 10
5.971668
 20
0.028332
 30
0.0
 10
5.971668
 20
0.799978
 30
0.0
 10
6.000001
 20
0.799978
 30
0.0
 10
6.000001
 20
0.799978
 30
0.0
  0
LWPOLYLINE
  5
107
100
AcDbEntity
  8
Layer_1
 62
7
100
AcDbPolyline
 90
8
 70
1
 10
0.028334
 20
0.799978
 30
0.0
 10
0.028334
 20
0.028332
 30
0.0
 10
1.000016
 20
0.028332
 30
0.0
 10
1.000016
 20
-0.000000
 30
0.0
 10
0.000001
 20
-0.000000
 30
0.0
 10
0.000001
 20
0.799978
 30
0.0
 10
0.028334
 20
0.799978
 30
0.0
 10
0.028334
 20
0.799978
 30
0.0
  0
LWPOLYLINE
  5
108
100
AcDbEntity
  8
Layer_1
 62
7
100
AcDbPolyline
 90
23
 70
0
 10
2.855906
 20
4.075003
 30
0.0
 10
2.842842
 20
4.073295
 30
0.0
 10
2.695502
 20
4.053838
 30
0.0
 10
2.654326
 20
4.045790
 30
0.0
 10
2.533996
 20
4.017457
 30
0.0
 10
2.478599
 20
4.001417
 30
0.0
 10
2.376459
 20
3.966304
 30
0.0
 10
2.249073
 20
3.914600
 30
0.0
 10
2.249073
 20
1.526515
 30
0.0
 10
2.250616
 20
1.524972
 30
0.0
 10
2.251497
 20
1.524972
 30
0.0
 10
3.747605
 20
1.524972
 30
0.0
 10
3.748486
 20
1.524972
 30
0.0
 10
3.749973
 20
1.526515
 30
0.0
 10
3.749973
 20
3.913388
 30
0.0
 10
3.599704
 20
3.975091
 30
0.0
 10
3.444764
 20
4.022763
 30
0.0
 10
3.286131
 20
4.056152
 30
0.0
 10
3.124785
 20
4.075004
 30
0.0
 10
3.121257
 20
4.075004
 30
0.0
 10
2.859430
 20
4.075004
 30
0.0
 10
2.855902
 20
4.075004
 30
0.0
 10
2.855906
 20
4.075003
 30
0.0
  0
LWPOLYLINE
  5
109
100
AcDbEntity
  8
Layer_1
 62
7
100
AcDbPolyline
 90
11
 70
0
 10
2.580243
 20
3.918843
 30
0.0
 10
3.419634
 20
3.918843
 30
0.0
 10
3.419634
 20
3.818798
 30
0.0
 10
3.060792
 20
3.818798
 30
0.0
 10
3.034153
 20
3.841724
 30
0.0
 10
2.999993
 20
3.849997
 30
0.0
 10
2.965834
 20
3.841724
 30
0.0
 10
2.939194
 20
3.818798
 30
0.0
 10
2.580243
 20
3.818798
 30
0.0
 10
2.580243
 20
3.918843
 30
0.0
 10
2.580243
 20
3.918843
 30
0.0
  0
LWPOLYLINE
  5
10a
100
AcDbEntity
  8
Layer_1
 62
7
100
AcDbPolyline
 90
17
 70
0
 10
2.580243
 20
3.767976
 30
0.0
 10
2.925414
 20
3.767976
 30
0.0
 10
2.933160
 20
3.741124
 30
0.0
 10
2.949566
 20
3.719577
 30
0.0
 10
2.972540
 20
3.705237
 30
0.0
 10
2.999993
 20
3.700011
 30
0.0
 10
3.027464
 20
3.705222
 30
0.0
 10
3.050456
 20
3.719558
 30
0.0
 10
3.066875
 20
3.741112
 30
0.0
 10
3.074628
 20
3.767976
 30
0.0
 10
3.418752
 20
3.767976
 30
0.0
 10
3.418752
 20
3.400315
 30
0.0
 10
3.418752
 20
3.399819
 30
0.0
 10
3.418752
 20
2.600005
 30
0.0
 10
2.580243
 20
2.600005
 30
0.0
 10
2.580243
 20
3.767975
 30
0.0
 10
2.580243
 20
3.767976
 30
0.0
  0
LWPOLYLINE
  5
10b
100
AcDbEntity
  8
Layer_1
 62
7
100
AcDbPolyline
 90
10
 70
0
 10
2.399996
 20
3.750006
 30
0.0
 10
2.435346
 20
3.735362
 30
0.0
 10
2.449991
 20
3.700011
 30
0.0
 10
2.435346
 20
3.664660
 30
0.0
 10
2.399996
 20
3.650016
 30
0.0
 10
2.364645
 20
3.664660
 30
0.0
 10
2.350000
 20
3.700011
 30
0.0
 10
2.364645
 20
3.735362
 30
0.0
 10
2.399996
 20
3.750006
 30
0.0
 10
2.399996
 20
3.750006
 30
0.0
  0
LWPOLYLINE
  5
10c
100
AcDbEntity
  8
Layer_1
 62
7
100
AcDbPolyline
 90
10
 70
0
 10
3.599991
 20
3.750006
 30
0.0
 10
3.635342
 20
3.735362
 30
0.0
 10
3.649987
 20
3.700011
 30
0.0
 10
3.635342
 20
3.664660
 30
0.0
 10
3.599991
 20
3.650016
 30
0.0
 10
3.564641
 20
3.664660
 30
0.0
 10
3.549996
 20
3.700011
 30
0.0
 10
3.564641
 20
3.735362
 30
0.0
 10
3.599991
 20
3.750006
 30
0.0
 10
3.599991
 20
3.750006
 30
0.0
  0
LWPOLYLINE
  5
10d
100
AcDbEntity
  8
Layer_1
 62
7
100
AcDbPolyline
 90
10
 70
0
 10
2.399996
 20
3.550025
 30
0.0
 10
2.435365
 20
3.535361
 30
0.0
 10
2.449991
 20
3.499975
 30
0.0
 10
2.435346
 20
3.464624
 30
0.0
 10
2.399996
 20
3.449980
 30
0.0
 10
2.364645
 20
3.464624
 30
0.0
 10
2.350000
 20
3.499975
 30
0.0
 10
2.364626
 20
3.535361
 30
0.0
 10
2.399996
 20
3.550025
 30
0.0
 10
2.399996
 20
3.550025
 30
0.0
  0
LWPOLYLINE
  5
10e
100
AcDbEntity
  8
Layer_1
 62
7
100
AcDbPolyline
 90
10
 70
0
 10
3.599991
 20
3.550025
 30
0.0
 10
3.635361
 20
3.535361
 30
0.0
 10
3.649987
 20
3.499975
 30
0.0
 10
3.635342
 20
3.464624
 30
0.0
 10
3.599991
 20
3.449980
 30
0.0
 10
3.564641
 20
3.464624
 30
0.0
 10
3.549996
 20
3.499975
 30
0.0
 10
3.564621
 20
3.535361
 30
0.0
 10
3.599991
 20
3.550025
 30
0.0
 10
3.599991
 20
3.550025
 30
0.0
  0
LWPOLYLINE
  5
10f
100
AcDbEntity
  8
Layer_1
 62
7
100
AcDbPolyline
 90
10
 70
0
 10
2.399996
 20
3.349989
 30
0.0
 10
2.435346
 20
3.335345
 30
0.0
 10
2.449991
 20
3.299994
 30
0.0
 10
2.435346
 20
3.264644
 30
0.0
 10
2.399996
 20
3.249999
 30
0.0
 10
2.364645
 20
3.264644
 30
0.0
 10
2.350000
 20
3.299994
 30
0.0
 10
2.364645
 20
3.335345
 30
0.0
 10
2.399996
 20
3.349989
 30
0.0
 10
2.399996
 20
3.349989
 30
0.0
  0
LWPOLYLINE
  5
110
100
AcDbEntity
  8
Layer_1
 62
7
100
AcDbPolyline
 90
10
 70
0
 10
3.599991
 20
3.349989
 30
0.0
 10
3.635342
 20
3.335345
 30
0.0
 10
3.649987
 20
3.299994
 30
0.0
 10
3.635342
 20
3.264643
 30
0.0
 10
3.599991
 20
3.249999
 30
0.0
 10
3.564641
 20
3.264644
 30
0.0
 10
3.549996
 20
3.299994
 30
0.0
 10
3.564641
 20
3.335345
 30
0.0
 10
3.599991
 20
3.349989
 30
0.0
 10
3.599991
 20
3.349989
 30
0.0
  0
LWPOLYLINE
  5
111
100
AcDbEntity
  8
Layer_1
 62
7
100
AcDbPolyline
 90
10
 70
0
 10
2.399996
 20
3.150009
 30
0.0
 10
2.435346
 20
3.135364
 30
0.0
 10
2.449991
 20
3.100013
 30
0.0
 10
2.435346
 20
3.064663
 30
0.0
 10
2.399996
 20
3.050018
 30
0.0
 10
2.364645
 20
3.064663
 30
0.0
 10
2.350000
 20
3.100013
 30
0.0
 10
2.364645
 20
3.135364
 30
0.0
 10
2.399996
 20
3.150009
 30
0.0
 10
2.399996
 20
3.150009
 30
0.0
  0
LWPOLYLINE
  5
112
100
AcDbEntity
  8
Layer_1
 62
7
100
AcDbPolyline
 90
10
 70
0
 10
3.599991
 20
3.150009
 30
0.0
 10
3.635342
 20
3.135364
 30
0.0
 10
3.649987
 20
3.100013
 30
0.0
 10
3.635342
 20
3.064663
 30
0.0
 10
3.599991
 20
3.050018
 30
0.0
 10
3.564641
 20
3.064663
 30
0.0
 10
3.549996
 20
3.100013
 30
0.0
 10
3.564641
 20
3.135364
 30
0.0
 10
3.599991
 20
3.150009
 30
0.0
 10
3.599991
 20
3.150009
 30
0.0
  0
LWPOLYLINE
  5
113
100
AcDbEntity
  8
Layer_1
 62
7
100
AcDbPolyline
 90
10
 70
0
 10
2.399996
 20
2.950028
 30
0.0
 10
2.435366
 20
2.935363
 30
0.0
 10
2.449991
 20
2.899977
 30
0.0
 10
2.435346
 20
2.864627
 30
0.0
 10
2.399996
 20
2.849982
 30
0.0
 10
2.364645
 20
2.864627
 30
0.0
 10
2.350000
 20
2.899977
 30
0.0
 10
2.364626
 20
2.935363
 30
0.0
 10
2.399996
 20
2.950028
 30
0.0
 10
2.399996
 20
2.950028
 30
0.0
  0
LWPOLYLINE
  5
114
100
AcDbEntity
  8
Layer_1
 62
7
100
AcDbPolyline
 90
10
 70
0
 10
3.599991
 20
2.950028
 30
0.0
 10
3.635361
 20
2.935363
 30
0.0
 10
3.649987
 20
2.899977
 30
0.0
 10
3.635342
 20
2.864627
 30
0.0
 10
3.599991
 20
2.849982
 30
0.0
 10
3.564641
 20
2.864627
 30
0.0
 10
3.549996
 20
2.899977
 30
0.0
 10
3.564621
 20
2.935363
 30
0.0
 10
3.599991
 20
2.950028
 30
0.0
 10
3.599991
 20
2.950028
 30
0.0
  0
LWPOLYLINE
  5
115
100
AcDbEntity
  8
Layer_1
 62
7
100
AcDbPolyline
 90
10
 70
0
 10
2.399996
 20
2.749992
 30
0.0
 10
2.435346
 20
2.735347
 30
0.0
 10
2.449991
 20
2.699996
 30
0.0
 10
2.435346
 20
2.664646
 30
0.0
 10
2.399996
 20
2.650001
 30
0.0
 10
2.364645
 20
2.664646
 30
0.0
 10
2.350000
 20
2.699996
 30
0.0
 10
2.364645
 20
2.735347
 30
0.0
 10
2.399996
 20
2.749992
 30
0.0
 10
2.399996
 20
2.749992
 30
0.0
  0
LWPOLYLINE
  5
116
100
AcDbEntity
  8
Layer_1
 62
7
100
AcDbPolyline
 90
10
 70
0
 10
3.599991
 20
2.749992
 30
0.0
 10
3.635342
 20
2.735347
 30
0.0
 10
3.649987
 20
2.699996
 30
0.0
 10
3.635342
 20
2.664646
 30
0.0
 10
3.599991
 20
2.650001
 30
0.0
 10
3.564641
 20
2.664646
 30
0.0
 10
3.549996
 20
2.699996
 30
0.0
 10
3.564641
 20
2.735347
 30
0.0
 10
3.599991
 20
2.749992
 30
0.0
 10
3.599991
 20
2.749992
 30
0.0
  0
LWPOLYLINE
  5
117
100
AcDbEntity
  8
Layer_1
 62
7
100
AcDbPolyline
 90
10
 70
0
 10
2.399996
 20
2.550011
 30
0.0
 10
2.435346
 20
2.535366
 30
0.0
 10
2.449991
 20
2.500015
 30
0.0
 10
2.435346
 20
2.464665
 30
0.0
 10
2.399996
 20
2.450020
 30
0.0
 10
2.364645
 20
2.464665
 30
0.0
 10
2.350000
 20
2.500015
 30
0.0
 10
2.364645
 20
2.535366
 30
0.0
 10
2.399996
 20
2.550011
 30
0.0
 10
2.399996
 20
2.550011
 30
0.0
  0
LWPOLYLINE
  5
118
100
AcDbEntity
  8
Layer_1
 62
7
100
AcDbPolyline
 90
10
 70
0
 10
3.599991
 20
2.550011
 30
0.0
 10
3.635342
 20
2.535366
 30
0.0
 10
3.649987
 20
2.500015
 30
0.0
 10
3.635342
 20
2.464665
 30
0.0
 10
3.599991
 20
2.450020
 30
0.0
 10
3.564641
 20
2.464665
 30
0.0
 10
3.549996
 20
2.500015
 30
0.0
 10
3.564641
 20
2.535366
 30
0.0
 10
3.599991
 20
2.550011
 30
0.0
 10
3.599991
 20
2.550011
 30
0.0
  0
LWPOLYLINE
  5
119
100
AcDbEntity
  8
Layer_1
 62
7
100
AcDbPolyline
 90
26
 70
0
 10
2.999993
 20
2.510268
 30
0.0
 10
3.044328
 20
2.505797
 30
0.0
 10
3.085622
 20
2.492977
 30
0.0
 10
3.155547
 20
2.445831
 30
0.0
 10
3.202693
 20
2.375906
 30
0.0
 10
3.215512
 20
2.334613
 30
0.0
 10
3.219983
 20
2.290278
 30
0.0
 10
3.215512
 20
2.245943
 30
0.0
 10
3.202693
 20
2.204650
 30
0.0
 10
3.155547
 20
2.134724
 30
0.0
 10
3.085622
 20
2.087578
 30
0.0
 10
3.044328
 20
2.074759
 30
0.0
 10
2.999993
 20
2.070288
 30
0.0
 10
2.955659
 20
2.074759
 30
0.0
 10
2.914365
 20
2.087578
 30
0.0
 10
2.844440
 20
2.134724
 30
0.0
 10
2.797294
 20
2.204649
 30
0.0
 10
2.784474
 20
2.245943
 30
0.0
 10
2.780003
 20
2.290278
 30
0.0
 10
2.784474
 20
2.334613
 30
0.0
 10
2.797294
 20
2.375906
 30
0.0
 10
2.844440
 20
2.445832
 30
0.0
 10
2.914365
 20
2.492978
 30
0.0
 10
2.955659
 20
2.505797
 30
0.0
 10
2.999993
 20
2.510268
 30
0.0
 10
2.999993
 20
2.510268
 30
0.0
  0
LWPOLYLINE
  5
11a
100
AcDbEntity
  8
Layer_1
 62
7
100
AcDbPolyline
 90
10
 70
0
 10
2.399996
 20
2.349975
 30
0.0
 10
2.435346
 20
2.335330
 30
0.0
 10
2.449991
 20
2.299979
 30
0.0
 10
2.435346
 20
2.264629
 30
0.0
 10
2.399996
 20
2.249984
 30
0.0
 10
2.364645
 20
2.264629
 30
0.0
 10
2.350000
 20
2.299979
 30
0.0
 10
2.364645
 20
2.335330
 30
0.0
 10
2.399996
 20
2.349975
 30
0.0
 10
2.399996
 20
2.349975
 30
0.0
  0
LWPOLYLINE
  5
11b
100
AcDbEntity
  8
Layer_1
 62
7
100
AcDbPolyline
 90
10
 70
0
 10
3.599991
 20
2.349975
 30
0.0
 10
3.635342
 20
2.335330
 30
0.0
 10
3.649987
 20
2.299979
 30
0.0
 10
3.635342
 20
2.264629
 30
0.0
 10
3.599991
 20
2.249984
 30
0.0
 10
3.564641
 20
2.264629
 30
0.0
 10
3.549996
 20
2.299979
 30
0.0
 10
3.564641
 20
2.335330
 30
0.0
 10
3.599991
 20
2.349975
 30
0.0
 10
3.599991
 20
2.349975
 30
0.0
  0
LWPOLYLINE
  5
11c
100
AcDbEntity
  8
Layer_1
 62
7
100
AcDbPolyline
 90
10
 70
0
 10
2.399996
 20
2.149994
 30
0.0
 10
2.435346
 20
2.135349
 30
0.0
 10
2.449991
 20
2.099999
 30
0.0
 10
2.435346
 20
2.064648
 30
0.0
 10
2.399996
 20
2.050003
 30
0.0
 10
2.364645
 20
2.064648
 30
0.0
 10
2.350000
 20
2.099999
 30
0.0
 10
2.364645
 20
2.135349
 30
0.0
 10
2.399996
 20
2.149994
 30
0.0
 10
2.399996
 20
2.149994
 30
0.0
  0
LWPOLYLINE
  5
11d
100
AcDbEntity
  8
Layer_1
 62
7
100
AcDbPolyline
 90
10
 70
0
 10
3.599991
 20
2.149994
 30
0.0
 10
3.635342
 20
2.135349
 30
0.0
 10
3.649987
 20
2.099999
 30
0.0
 10
3.635342
 20
2.064648
 30
0.0
 10
3.599991
 20
2.050003
 30
0.0
 10
3.564641
 20
2.064648
 30
0.0
 10
3.549996
 20
2.099999
 30
0.0
 10
3.564641
 20
2.135349
 30
0.0
 10
3.599991
 20
2.149994
 30
0.0
 10
3.599991
 20
2.149994
 30
0.0
  0
LWPOLYLINE
  5
11e
100
AcDbEntity
  8
Layer_1
 62
7
100
AcDbPolyline
 90
6
 70
0
 10
2.580243
 20
2.000008
 30
0.0
 10
3.418696
 20
2.000008
 30
0.0
 10
3.418696
 20
1.778640
 30
0.0
 10
2.580243
 20
1.778640
 30
0.0
 10
2.580243
 20
2.000008
 30
0.0
 10
2.580243
 20
2.000008
 30
0.0
  0
LWPOLYLINE
  5
11f
100
AcDbEntity
  8
Layer_1
 62
7
100
AcDbPolyline
 90
10
 70
0
 10
2.399996
 20
1.950013
 30
0.0
 10
2.435346
 20
1.935368
 30
0.0
 10
2.449991
 20
1.900018
 30
0.0
 10
2.435346
 20
1.864667
 30
0.0
 10
2.399996
 20
1.850022
 30
0.0
 10
2.364645
 20
1.864667
 30
0.0
 10
2.350000
 20
1.900018
 30
0.0
 10
2.364645
 20
1.935368
 30
0.0
 10
2.399996
 20
1.950013
 30
0.0
 10
2.399996
 20
1.950013
 30
0.0
  0
LWPOLYLINE
  5
120
100
AcDbEntity
  8
Layer_1
 62
7
100
AcDbPolyline
 90
10
 70
0
 10
3.599991
 20
1.950013
 30
0.0
 10
3.635342
 20
1.935368
 30
0.0
 10
3.649987
 20
1.900018
 30
0.0
 10
3.635342
 20
1.864667
 30
0.0
 10
3.599991
 20
1.850022
 30
0.0
 10
3.564641
 20
1.864667
 30
0.0
 10
3.549996
 20
1.900018
 30
0.0
 10
3.564641
 20
1.935368
 30
0.0
 10
3.599991
 20
1.950013
 30
0.0
 10
3.599991
 20
1.950013
 30
0.0
  0
LWPOLYLINE
  5
121
100
AcDbEntity
  8
Layer_1
 62
7
100
AcDbPolyline
 90
10
 70
0
 10
2.399996
 20
1.749977
 30
0.0
 10
2.435346
 20
1.735332
 30
0.0
 10
2.449991
 20
1.699982
 30
0.0
 10
2.435346
 20
1.664631
 30
0.0
 10
2.399996
 20
1.649986
 30
0.0
 10
2.364645
 20
1.664631
 30
0.0
 10
2.350000
 20
1.699982
 30
0.0
 10
2.364645
 20
1.735332
 30
0.0
 10
2.399996
 20
1.749977
 30
0.0
 10
2.399996
 20
1.749977
 30
0.0
  0
LWPOLYLINE
  5
122
100
AcDbEntity
  8
Layer_1
 62
7
100
AcDbPolyline
 90
10
 70
0
 10
3.599991
 20
1.749977
 30
0.0
 10
3.635342
 20
1.735332
 30
0.0
 10
3.649987
 20
1.699982
 30
0.0
 10
3.635342
 20
1.664631
 30
0.0
 10
3.599991
 20
1.649986
 30
0.0
 10
3.564641
 20
1.664631
 30
0.0
 10
3.549996
 20
1.699982
 30
0.0
 10
3.564641
 20
1.735332
 30
0.0
 10
3.599991
 20
1.749977
 30
0.0
 10
3.599991
 20
1.749977
 30
0.0
  0
ENDSEC
  0
SECTION
  2
OBJECTS
  0
DICTIONARY
  5
C
330
0
100
AcDbDictionary
  3
ACAD_GROUP
350
D
  3
ACAD_MLINESTYLE
350
17
  0
DICTIONARY
  5
D
330
C
100
AcDbDictionary
  0
DICTIONARY
  5
1A
330
C
100
AcDbDictionary
  0
DICTIONARY
  5
17
330
C
100
AcDbDictionary
  3
STANDARD
350
18
  0
DICTIONARY
  5
19
330
C
100
AcDbDictionary
  0
ENDSEC
  0
EOF
