  0
SECTION
  2
HEADER
  9
$ACADVER
  1
AC1014
  9
$HANDSEED
  5
FFFF
  9
$MEASUREMENT
 70
     1
  0
ENDSEC
  0
SECTION
  2
TABLES
  0
TABLE
  2
VPORT
  5
8
330
0
100
AcDbSymbolTable
 70
     4
  0
VPORT
  5
2E
330
8
100
AcDbSymbolTableRecord
100
AcDbViewportTableRecord
  2
*ACTIVE
 70
     0
 10
0.0
 20
0.0
 11
1.0
 21
1.0
 12
210.0
 22
148.5
 13
0.0
 23
0.0
 14
10.0
 24
10.0
 15
10.0
 25
10.0
 16
0.0
 26
0.0
 36
1.0
 17
0.0
 27
0.0
 37
0.0
 40
341.0
 41
1.24
 42
50.0
 43
0.0
 44
0.0
 50
0.0
 51
0.0
 71
     0
 72
   100
 73
     1
 74
     3
 75
     0
 76
     0
 77
     0
 78
     0
  0
ENDTAB
  0
TABLE
  2
LTYPE
  5
5
330
0
100
AcDbSymbolTable
 70
     1
  0
LTYPE
  5
14
330
5
100
AcDbSymbolTableRecord
100
AcDbLinetypeTableRecord
  2
BYBLOCK
 70
     0
  3

 72
    65
 73
     0
 40
0.0
  0
LTYPE
  5
15
330
5
100
AcDbSymbolTableRecord
100
AcDbLinetypeTableRecord
  2
BYLAYER
 70
     0
  3

 72
    65
 73
     0
 40
0.0
  0
LTYPE
  5
16
330
5
100
AcDbSymbolTableRecord
100
AcDbLinetypeTableRecord
  2
CONTINUOUS
 70
     0
  3
Solid line
 72
    65
 73
     0
 40
0.0
  0
ENDTAB
  0
TABLE
  2
LAYER
  5
2
100
AcDbSymbolTable
 70
2
  0
LAYER
  5
50
100
AcDbSymbolTableRecord
100
AcDbLayerTableRecord
  2
0
 70
0
  6
CONTINUOUS
  0
LAYER
  5
51
100
AcDbSymbolTableRecord
100
AcDbLayerTableRecord
  2
Layer_1
 70
0
  6
CONTINUOUS
  0
ENDTAB
  0
TABLE
  2
STYLE
  5
3
330
0
100
AcDbSymbolTable
 70
     1
  0
STYLE
  5
11
330
3
100
AcDbSymbolTableRecord
100
AcDbTextStyleTableRecord
  2
STANDARD
 70
     0
 40
0.0
 41
1.0
 50
0.0
 71
     0
 42
2.5
  3
txt
  4

  0
ENDTAB
  0
TABLE
  2
VIEW
  5
6
330
0
100
AcDbSymbolTable
 70
     0
  0
ENDTAB
  0
TABLE
  2
UCS
  5
7
330
0
100
AcDbSymbolTable
 70
     0
  0
ENDTAB
  0
TABLE
  2
APPID
  5
9
330
0
100
AcDbSymbolTable
 70
     2
  0
APPID
  5
12
330
9
100
AcDbSymbolTableRecord
100
AcDbRegAppTableRecord
  2
ACAD
 70
     0
  0
ENDTAB
  0
TABLE
  2
DIMSTYLE
  5
A
330
0
100
AcDbSymbolTable
 70
     1
  0
DIMSTYLE
105
27
330
A
100
AcDbSymbolTableRecord
100
AcDbDimStyleTableRecord
  2
ISO-25
 70
     0
  3

  4

  5

  6

  7

 40
1.0
 41
2.5
 42
0.625
 43
3.75
 44
1.25
 45
0.0
 46
0.0
 47
0.0
 48
0.0
140
2.5
141
2.5
142
0.0
143
0.03937007874016
144
1.0
145
0.0
146
1.0
147
0.625
 71
     0
 72
     0
 73
     0
 74
     0
 75
     0
 76
     0
 77
     1
 78
     8
170
     0
171
     3
172
     1
173
     0
174
     0
175
     0
176
     0
177
     0
178
     0
270
     2
271
     2
272
     2
273
     2
274
     3
340
11
275
     0
280
     0
281
     0
282
     0
283
     0
284
     8
285
     0
286
     0
287
     3
288
     0
  0
ENDTAB
  0
TABLE
  2
BLOCK_RECORD
  5
1
330
0
100
AcDbSymbolTable
 70
     1
  0
BLOCK_RECORD
  5
1F
330
1
100
AcDbSymbolTableRecord
100
AcDbBlockTableRecord
  2
*MODEL_SPACE
  0
BLOCK_RECORD
  5
1B
330
1
100
AcDbSymbolTableRecord
100
AcDbBlockTableRecord
  2
*PAPER_SPACE
  0
ENDTAB
  0
ENDSEC
  0
SECTION
  2
BLOCKS
  0
BLOCK
  5
20
330
1F
100
AcDbEntity
  8
0
100
AcDbBlockBegin
  2
*MODEL_SPACE
 70
     0
 10
0.0
 20
0.0
 30
0.0
  3
*MODEL_SPACE
  1

  0
ENDBLK
  5
21
330
1F
100
AcDbEntity
  8
0
100
AcDbBlockEnd
  0
BLOCK
  5
1C
330
1B
100
AcDbEntity
 67
     1
  8
0
100
AcDbBlockBegin
  2
*PAPER_SPACE
  1

  0
ENDBLK
  5
1D
330
1B
100
AcDbEntity
 67
     1
  8
0
100
AcDbBlockEnd
  0
ENDSEC
  0
SECTION
  2
ENTITIES
  0
LWPOLYLINE
  5
100
100
AcDbEntity
  8
Layer_1
 62
7
100
AcDbPolyline
 90
8
 70
1
 10
6.749943
 20
5.999947
 30
0.0
 10
6.749943
 20
5.249943
 30
0.0
 10
6.728691
 20
5.249943
 30
0.0
 10
6.728691
 20
5.978658
 30
0.0
 10
5.999934
 20
5.978658
 30
0.0
 10
5.999934
 20
5.999947
 30
0.0
 10
6.749943
 20
5.999947
 30
0.0
 10
6.749943
 20
5.999947
 30
0.0
  0
LWPOLYLINE
  5
101
100
AcDbEntity
  8
Layer_1
 62
7
100
AcDbPolyline
 90
9
 70
1
 10
0.750003
 20
5.999947
 30
0.0
 10
0.750003
 20
5.978658
 30
0.0
 10
0.021249
 20
5.978658
 30
0.0
 10
0.021249
 20
5.249943
 30
0.0
 10
0.000000
 20
5.249943
 30
0.0
 10
0.000000
 20
5.989282
 30
0.0
 10
0.000000
 20
5.999947
 30
0.0
 10
0.750003
 20
5.999947
 30
0.0
 10
0.750003
 20
5.999947
 30
0.0
  0
LWPOLYLINE
  5
102
100
AcDbEntity
  8
Layer_1
 62
7
100
AcDbPolyline
 90
8
 70
1
 10
6.749934
 20
0.599979
 30
0.0
 10
6.749934
 20
-0.000000
 30
0.0
 10
5.999929
 20
-0.000000
 30
0.0
 10
5.999929
 20
0.021249
 30
0.0
 10
6.728686
 20
0.021249
 30
0.0
 10
6.728686
 20
0.599979
 30
0.0
 10
6.749934
 20
0.599979
 30
0.0
 10
6.749934
 20
0.599979
 30
0.0
  0
SPLINE
  5
103
100
AcDbEntity
  8
Layer_1
 62
7
100
AcDbSpline
 70
0
 71
3
 72
10
 73
6
 74
4
 40
0.000000
 40
0.000000
 40
0.000000
 40
0.000000
 40
0.088240
 40
0.177527
 40
0.264908
 40
0.264908
 40
0.264908
 40
0.264908
 10
4.110284
 20
4.910881
 30
0.0
 10
4.087139
 20
4.891504
 30
0.0
 10
4.040573
 20
4.852521
 30
0.0
 10
4.033756
 20
4.749472
 30
0.0
 10
4.080837
 20
4.709752
 30
0.0
 10
4.104124
 20
4.690107
 30
0.0
 11
4.110284
 21
4.910881
 31
0.0
 11
4.051224
 21
4.845321
 31
0.0
 11
4.046894
 21
4.756139
 31
0.0
 11
4.104124
 21
4.690107
 31
0.0
  0
SPLINE
  5
104
100
AcDbEntity
  8
Layer_1
 62
7
100
AcDbSpline
 70
0
 71
3
 72
10
 73
6
 74
4
 40
0.000000
 40
0.000000
 40
0.000000
 40
0.000000
 40
0.082358
 40
0.164841
 40
0.247609
 40
0.247609
 40
0.247609
 40
0.247609
 10
4.104124
 20
4.690107
 30
0.0
 10
4.130960
 20
4.681009
 30
0.0
 10
4.184675
 20
4.662800
 30
0.0
 10
4.267941
 20
4.708105
 30
0.0
 10
4.282257
 20
4.763073
 30
0.0
 10
4.289428
 20
4.790605
 30
0.0
 11
4.104124
 21
4.690107
 31
0.0
 11
4.185063
 21
4.674888
 31
0.0
 11
4.257567
 21
4.714215
 31
0.0
 11
4.289428
 21
4.790605
 31
0.0
  0
LWPOLYLINE
  5
105
100
AcDbEntity
  8
Layer_1
 62
7
100
AcDbPolyline
 90
8
 70
1
 10
0.021249
 20
0.599979
 30
0.0
 10
0.021249
 20
0.021249
 30
0.0
 10
0.750003
 20
0.021249
 30
0.0
 10
0.750003
 20
-0.000000
 30
0.0
 10
-0.000000
 20
-0.000000
 30
0.0
 10
-0.000000
 20
0.599979
 30
0.0
 10
0.021249
 20
0.599979
 30
0.0
 10
0.021249
 20
0.599979
 30
0.0
  0
SPLINE
  5
106
100
AcDbEntity
  8
Layer_1
 62
7
100
AcDbSpline
 70
0
 71
3
 72
13
 73
9
 74
7
 40
0.000000
 40
0.000000
 40
0.000000
 40
0.000000
 40
0.057222
 40
0.118354
 40
0.178785
 40
0.191325
 40
0.204274
 40
0.216128
 40
0.216128
 40
0.216128
 40
0.216128
 10
4.289428
 20
4.790605
 30
0.0
 10
4.274833
 20
4.802954
 30
0.0
 10
4.244646
 20
4.828498
 30
0.0
 10
4.192402
 20
4.857614
 30
0.0
 10
4.155946
 20
4.883539
 30
0.0
 10
4.131332
 20
4.898196
 30
0.0
 10
4.121602
 20
4.906117
 30
0.0
 10
4.113944
 20
4.909340
 30
0.0
 10
4.110284
 20
4.910881
 30
0.0
 11
4.289428
 21
4.790605
 31
0.0
 11
4.244615
 21
4.826188
 31
0.0
 11
4.192823
 21
4.858665
 31
0.0
 11
4.142195
 21
4.891660
 31
0.0
 11
4.131609
 21
4.898383
 31
0.0
 11
4.120991
 21
4.905794
 31
0.0
 11
4.110284
 21
4.910881
 31
0.0
  0
SPLINE
  5
107
100
AcDbEntity
  8
Layer_1
 62
7
100
AcDbSpline
 70
0
 71
3
 72
10
 73
6
 74
4
 40
0.000000
 40
0.000000
 40
0.000000
 40
0.000000
 40
0.068949
 40
0.137899
 40
0.206848
 40
0.206848
 40
0.206848
 40
0.206848
 10
1.687858
 20
4.780463
 30
0.0
 10
1.669952
 20
4.766056
 30
0.0
 10
1.634138
 20
4.737241
 30
0.0
 10
1.580408
 20
4.694032
 30
0.0
 10
1.544590
 20
4.665222
 30
0.0
 10
1.526681
 20
4.650817
 30
0.0
 11
1.687858
 21
4.780463
 31
0.0
 11
1.634137
 21
4.737243
 31
0.0
 11
1.580408
 21
4.694031
 31
0.0
 11
1.526681
 21
4.650817
 31
0.0
  0
LWPOLYLINE
  5
108
100
AcDbEntity
  8
Layer_1
 62
7
100
AcDbPolyline
 90
2
 70
1
 10
4.110284
 20
4.910881
 30
0.0
 10
4.110284
 20
4.910881
 30
0.0
  0
SPLINE
  5
109
100
AcDbEntity
  8
Layer_1
 62
7
100
AcDbSpline
 70
0
 71
3
 72
13
 73
9
 74
7
 40
0.000000
 40
0.000000
 40
0.000000
 40
0.000000
 40
0.088918
 40
0.178623
 40
0.267850
 40
0.353922
 40
0.439132
 40
0.523121
 40
0.523121
 40
0.523121
 40
0.523121
 10
1.526681
 20
4.650817
 30
0.0
 10
1.536480
 20
4.621425
 30
0.0
 10
1.556163
 20
4.562379
 30
0.0
 10
1.651268
 20
4.527595
 30
0.0
 10
1.740675
 20
4.562660
 30
0.0
 10
1.783468
 20
4.645273
 30
0.0
 10
1.766372
 20
4.739667
 30
0.0
 10
1.713903
 20
4.766930
 30
0.0
 10
1.687858
 20
4.780463
 30
0.0
 11
1.526681
 21
4.650817
 31
0.0
 11
1.566915
 21
4.571523
 31
0.0
 11
1.650642
 21
4.539324
 31
0.0
 11
1.733877
 21
4.571471
 31
0.0
 11
1.773608
 21
4.647824
 31
0.0
 11
1.755857
 21
4.731164
 31
0.0
 11
1.687858
 21
4.780463
 31
0.0
  0
SPLINE
  5
10a
100
AcDbEntity
  8
Layer_1
 62
7
100
AcDbSpline
 70
0
 71
3
 72
13
 73
9
 74
7
 40
0.000000
 40
0.000000
 40
0.000000
 40
0.000000
 40
0.054549
 40
0.107992
 40
0.162173
 40
0.226010
 40
0.290046
 40
0.354214
 40
0.354214
 40
0.354214
 40
0.354214
 10
5.003306
 20
2.554215
 30
0.0
 10
4.989865
 20
2.541741
 30
0.0
 10
4.963255
 20
2.517046
 30
0.0
 10
4.941864
 20
2.465222
 30
0.0
 10
4.945510
 20
2.406014
 30
0.0
 10
4.979865
 20
2.353064
 30
0.0
 10
5.038755
 20
2.319057
 30
0.0
 10
5.082173
 20
2.323949
 30
0.0
 10
5.103904
 20
2.326398
 30
0.0
 11
5.003306
 21
2.554215
 31
0.0
 11
4.966138
 21
2.514289
 31
0.0
 11
4.946026
 21
2.464774
 31
0.0
 11
4.949469
 21
2.410703
 31
0.0
 11
4.983586
 21
2.356747
 31
0.0
 11
5.039738
 21
2.325965
 31
0.0
 11
5.103904
 21
2.326398
 31
0.0
  0
SPLINE
  5
10b
100
AcDbEntity
  8
Layer_1
 62
7
100
AcDbSpline
 70
0
 71
3
 72
10
 73
6
 74
4
 40
0.000000
 40
0.000000
 40
0.000000
 40
0.000000
 40
0.070872
 40
0.141896
 40
0.212878
 40
0.212878
 40
0.212878
 40
0.212878
 10
5.103904
 20
2.326398
 30
0.0
 10
5.111764
 20
2.348701
 30
0.0
 10
5.127499
 20
2.393355
 30
0.0
 10
5.142754
 20
2.462750
 30
0.0
 10
5.154669
 20
2.508554
 30
0.0
 10
5.160625
 20
2.531450
 30
0.0
 11
5.103904
 21
2.326398
 31
0.0
 11
5.126094
 21
2.393707
 31
0.0
 11
5.143192
 21
2.462641
 31
0.0
 11
5.160625
 21
2.531450
 31
0.0
  0
LWPOLYLINE
  5
10c
100
AcDbEntity
  8
Layer_1
 62
7
100
AcDbPolyline
 90
2
 70
1
 10
1.687858
 20
4.780463
 30
0.0
 10
1.687858
 20
4.780463
 30
0.0
  0
SPLINE
  5
10d
100
AcDbEntity
  8
Layer_1
 62
7
100
AcDbSpline
 70
0
 71
3
 72
10
 73
6
 74
4
 40
0.000000
 40
0.000000
 40
0.000000
 40
0.000000
 40
0.057218
 40
0.111772
 40
0.169003
 40
0.169003
 40
0.169003
 40
0.169003
 10
5.160625
 20
2.531450
 30
0.0
 10
5.145287
 20
2.543115
 30
0.0
 10
5.115323
 20
2.565901
 30
0.0
 10
5.056474
 20
2.574859
 30
0.0
 10
5.021309
 20
2.561205
 30
0.0
 10
5.003306
 20
2.554215
 30
0.0
 11
5.160625
 21
2.531450
 31
0.0
 11
5.112262
 21
2.562025
 31
0.0
 11
5.058302
 21
2.570054
 31
0.0
 11
5.003306
 21
2.554215
 31
0.0
  0
SPLINE
  5
10e
100
AcDbEntity
  8
Layer_1
 62
7
100
AcDbSpline
 70
0
 71
3
 72
13
 73
9
 74
7
 40
0.000000
 40
0.000000
 40
0.000000
 40
0.000000
 40
0.043855
 40
0.081591
 40
0.127053
 40
0.171833
 40
0.216613
 40
0.261394
 40
0.261394
 40
0.261394
 40
0.261394
 10
0.941623
 20
2.342383
 30
0.0
 10
0.928060
 20
2.333966
 30
0.0
 10
0.902826
 20
2.318307
 30
0.0
 10
0.908266
 20
2.270658
 30
0.0
 10
0.928546
 20
2.234111
 30
0.0
 10
0.943310
 20
2.191188
 30
0.0
 10
0.959745
 20
2.149630
 30
0.0
 10
0.970411
 20
2.121734
 30
0.0
 10
0.975744
 20
2.107786
 30
0.0
 11
0.941623
 21
2.342383
 31
0.0
 11
0.909233
 21
2.312817
 31
0.0
 11
0.909915
 21
2.275086
 31
0.0
 11
0.927529
 21
2.233176
 31
0.0
 11
0.943601
 21
2.191379
 31
0.0
 11
0.959672
 21
2.149583
 31
0.0
 11
0.975744
 21
2.107786
 31
0.0
  0
LWPOLYLINE
  5
10f
100
AcDbEntity
  8
Layer_1
 62
7
100
AcDbPolyline
 90
2
 70
1
 10
5.003306
 20
2.554215
 30
0.0
 10
5.003306
 20
2.554215
 30
0.0
  0
SPLINE
  5
110
100
AcDbEntity
  8
Layer_1
 62
7
100
AcDbSpline
 70
0
 71
3
 72
13
 73
9
 74
7
 40
0.000000
 40
0.000000
 40
0.000000
 40
0.000000
 40
0.086308
 40
0.173620
 40
0.259437
 40
0.329333
 40
0.396498
 40
0.467051
 40
0.467051
 40
0.467051
 40
0.467051
 10
0.975744
 20
2.107786
 30
0.0
 10
1.005417
 20
2.109224
 30
0.0
 10
1.065108
 20
2.112117
 30
0.0
 10
1.129150
 20
2.185566
 30
0.0
 10
1.125141
 20
2.273161
 30
0.0
 10
1.079320
 20
2.336006
 30
0.0
 10
1.009728
 20
2.362131
 30
0.0
 10
0.964694
 20
2.349073
 30
0.0
 10
0.941623
 20
2.342383
 30
0.0
 11
0.975744
 21
2.107786
 31
0.0
 11
1.060603
 21
2.123532
 31
0.0
 11
1.117923
 21
2.189394
 31
0.0
 11
1.115935
 21
2.275188
 31
0.0
 11
1.074138
 21
2.331210
 31
0.0
 11
1.011132
 21
2.354477
 31
0.0
 11
0.941623
 21
2.342383
 31
0.0
  0
SPLINE
  5
111
100
AcDbEntity
  8
Layer_1
 62
7
100
AcDbSpline
 70
0
 71
3
 72
10
 73
6
 74
4
 40
0.000000
 40
0.000000
 40
0.000000
 40
0.000000
 40
0.076940
 40
0.153956
 40
0.229505
 40
0.229505
 40
0.229505
 40
0.229505
 10
3.073778
 20
0.981212
 30
0.0
 10
3.051802
 20
0.967416
 30
0.0
 10
3.007829
 20
0.939810
 30
0.0
 10
2.976390
 20
0.859800
 30
0.0
 10
3.000087
 20
0.812635
 30
0.0
 10
3.011822
 20
0.789279
 30
0.0
 11
3.073778
 21
0.981212
 31
0.0
 11
3.013566
 21
0.933314
 31
0.0
 11
2.987554
 21
0.860823
 31
0.0
 11
3.011822
 21
0.789279
 31
0.0
  0
SPLINE
  5
112
100
AcDbEntity
  8
Layer_1
 62
7
100
AcDbSpline
 70
0
 71
3
 72
10
 73
6
 74
4
 40
0.000000
 40
0.000000
 40
0.000000
 40
0.000000
 40
0.070462
 40
0.140965
 40
0.211460
 40
0.211460
 40
0.211460
 40
0.211460
 10
3.011822
 20
0.789279
 30
0.0
 10
3.035293
 20
0.790171
 30
0.0
 10
3.082250
 20
0.791956
 30
0.0
 10
3.152595
 20
0.796493
 30
0.0
 10
3.199527
 20
0.798996
 30
0.0
 10
3.222992
 20
0.800248
 30
0.0
 11
3.011822
 21
0.789279
 31
0.0
 11
3.082220
 21
0.792265
 31
0.0
 11
3.152605
 21
0.796363
 31
0.0
 11
3.222992
 21
0.800248
 31
0.0
  0
LWPOLYLINE
  5
113
100
AcDbEntity
  8
Layer_1
 62
7
100
AcDbPolyline
 90
2
 70
1
 10
0.941623
 20
2.342383
 30
0.0
 10
0.941623
 20
2.342383
 30
0.0
  0
LWPOLYLINE
  5
114
100
AcDbEntity
  8
Layer_1
 62
7
100
AcDbPolyline
 90
2
 70
1
 10
3.073778
 20
0.981212
 30
0.0
 10
3.073778
 20
0.981212
 30
0.0
  0
SPLINE
  5
115
100
AcDbEntity
  8
Layer_1
 62
7
100
AcDbSpline
 70
0
 71
3
 72
13
 73
9
 74
7
 40
0.000000
 40
0.000000
 40
0.000000
 40
0.000000
 40
0.085761
 40
0.172275
 40
0.258070
 40
0.269423
 40
0.281007
 40
0.292486
 40
0.292486
 40
0.292486
 40
0.292486
 10
3.222992
 20
0.800248
 30
0.0
 10
3.230712
 20
0.828763
 30
0.0
 10
3.246220
 20
0.886043
 30
0.0
 10
3.195927
 20
0.968876
 30
0.0
 10
3.132636
 20
0.986650
 30
0.0
 10
3.096283
 20
0.986051
 30
0.0
 10
3.085138
 20
0.983069
 30
0.0
 10
3.077553
 20
0.981829
 30
0.0
 10
3.073778
 20
0.981212
 30
0.0
 11
3.222992
 21
0.800248
 31
0.0
 11
3.233989
 21
0.885301
 31
0.0
 11
3.189283
 21
0.959368
 31
0.0
 11
3.107761
 21
0.986105
 31
0.0
 11
3.096419
 21
0.985597
 31
0.0
 11
3.085074
 21
0.983252
 31
0.0
 11
3.073778
 21
0.981212
 31
0.0
  0
LWPOLYLINE
  5
116
100
AcDbEntity
  8
Layer_1
 62
7
100
AcDbPolyline
 90
9
 70
1
 10
0.750003
 20
5.999947
 30
0.0
 10
0.750003
 20
5.978658
 30
0.0
 10
0.021249
 20
5.978658
 30
0.0
 10
0.021249
 20
5.249943
 30
0.0
 10
0.000000
 20
5.249943
 30
0.0
 10
0.000000
 20
5.989282
 30
0.0
 10
0.000000
 20
5.999947
 30
0.0
 10
0.750003
 20
5.999947
 30
0.0
 10
0.750003
 20
5.999947
 30
0.0
  0
ENDSEC
  0
SECTION
  2
OBJECTS
  0
DICTIONARY
  5
C
330
0
100
AcDbDictionary
  3
ACAD_GROUP
350
D
  3
ACAD_MLINESTYLE
350
17
  0
DICTIONARY
  5
D
330
C
100
AcDbDictionary
  0
DICTIONARY
  5
1A
330
C
100
AcDbDictionary
  0
DICTIONARY
  5
17
330
C
100
AcDbDictionary
  3
STANDARD
350
18
  0
DICTIONARY
  5
19
330
C
100
AcDbDictionary
  0
ENDSEC
  0
EOF
