  0
SECTION
  2
HEADER
  9
$ACADVER
  1
AC1014
  9
$HANDSEED
  5
FFFF
  9
$MEASUREMENT
 70
     1
  0
ENDSEC
  0
SECTION
  2
TABLES
  0
TABLE
  2
VPORT
  5
8
330
0
100
AcDbSymbolTable
 70
     4
  0
VPORT
  5
2E
330
8
100
AcDbSymbolTableRecord
100
AcDbViewportTableRecord
  2
*ACTIVE
 70
     0
 10
0.0
 20
0.0
 11
1.0
 21
1.0
 12
210.0
 22
148.5
 13
0.0
 23
0.0
 14
10.0
 24
10.0
 15
10.0
 25
10.0
 16
0.0
 26
0.0
 36
1.0
 17
0.0
 27
0.0
 37
0.0
 40
341.0
 41
1.24
 42
50.0
 43
0.0
 44
0.0
 50
0.0
 51
0.0
 71
     0
 72
   100
 73
     1
 74
     3
 75
     0
 76
     0
 77
     0
 78
     0
  0
ENDTAB
  0
TABLE
  2
LTYPE
  5
5
330
0
100
AcDbSymbolTable
 70
     1
  0
LTYPE
  5
14
330
5
100
AcDbSymbolTableRecord
100
AcDbLinetypeTableRecord
  2
BYBLOCK
 70
     0
  3

 72
    65
 73
     0
 40
0.0
  0
LTYPE
  5
15
330
5
100
AcDbSymbolTableRecord
100
AcDbLinetypeTableRecord
  2
BYLAYER
 70
     0
  3

 72
    65
 73
     0
 40
0.0
  0
LTYPE
  5
16
330
5
100
AcDbSymbolTableRecord
100
AcDbLinetypeTableRecord
  2
CONTINUOUS
 70
     0
  3
Solid line
 72
    65
 73
     0
 40
0.0
  0
ENDTAB
  0
TABLE
  2
LAYER
  5
2
100
AcDbSymbolTable
 70
2
  0
LAYER
  5
50
100
AcDbSymbolTableRecord
100
AcDbLayerTableRecord
  2
0
 70
0
  6
CONTINUOUS
  0
LAYER
  5
51
100
AcDbSymbolTableRecord
100
AcDbLayerTableRecord
  2
Layer_1
 70
0
  6
CONTINUOUS
  0
ENDTAB
  0
TABLE
  2
STYLE
  5
3
330
0
100
AcDbSymbolTable
 70
     1
  0
STYLE
  5
11
330
3
100
AcDbSymbolTableRecord
100
AcDbTextStyleTableRecord
  2
STANDARD
 70
     0
 40
0.0
 41
1.0
 50
0.0
 71
     0
 42
2.5
  3
txt
  4

  0
ENDTAB
  0
TABLE
  2
VIEW
  5
6
330
0
100
AcDbSymbolTable
 70
     0
  0
ENDTAB
  0
TABLE
  2
UCS
  5
7
330
0
100
AcDbSymbolTable
 70
     0
  0
ENDTAB
  0
TABLE
  2
APPID
  5
9
330
0
100
AcDbSymbolTable
 70
     2
  0
APPID
  5
12
330
9
100
AcDbSymbolTableRecord
100
AcDbRegAppTableRecord
  2
ACAD
 70
     0
  0
ENDTAB
  0
TABLE
  2
DIMSTYLE
  5
A
330
0
100
AcDbSymbolTable
 70
     1
  0
DIMSTYLE
105
27
330
A
100
AcDbSymbolTableRecord
100
AcDbDimStyleTableRecord
  2
ISO-25
 70
     0
  3

  4

  5

  6

  7

 40
1.0
 41
2.5
 42
0.625
 43
3.75
 44
1.25
 45
0.0
 46
0.0
 47
0.0
 48
0.0
140
2.5
141
2.5
142
0.0
143
0.03937007874016
144
1.0
145
0.0
146
1.0
147
0.625
 71
     0
 72
     0
 73
     0
 74
     0
 75
     0
 76
     0
 77
     1
 78
     8
170
     0
171
     3
172
     1
173
     0
174
     0
175
     0
176
     0
177
     0
178
     0
270
     2
271
     2
272
     2
273
     2
274
     3
340
11
275
     0
280
     0
281
     0
282
     0
283
     0
284
     8
285
     0
286
     0
287
     3
288
     0
  0
ENDTAB
  0
TABLE
  2
BLOCK_RECORD
  5
1
330
0
100
AcDbSymbolTable
 70
     1
  0
BLOCK_RECORD
  5
1F
330
1
100
AcDbSymbolTableRecord
100
AcDbBlockTableRecord
  2
*MODEL_SPACE
  0
BLOCK_RECORD
  5
1B
330
1
100
AcDbSymbolTableRecord
100
AcDbBlockTableRecord
  2
*PAPER_SPACE
  0
ENDTAB
  0
ENDSEC
  0
SECTION
  2
BLOCKS
  0
BLOCK
  5
20
330
1F
100
AcDbEntity
  8
0
100
AcDbBlockBegin
  2
*MODEL_SPACE
 70
     0
 10
0.0
 20
0.0
 30
0.0
  3
*MODEL_SPACE
  1

  0
ENDBLK
  5
21
330
1F
100
AcDbEntity
  8
0
100
AcDbBlockEnd
  0
BLOCK
  5
1C
330
1B
100
AcDbEntity
 67
     1
  8
0
100
AcDbBlockBegin
  2
*PAPER_SPACE
  1

  0
ENDBLK
  5
1D
330
1B
100
AcDbEntity
 67
     1
  8
0
100
AcDbBlockEnd
  0
ENDSEC
  0
SECTION
  2
ENTITIES
  0
LWPOLYLINE
  5
100
100
AcDbEntity
  8
Layer_1
 62
7
100
AcDbPolyline
 90
8
 70
1
 10
5.999999
 20
6.000003
 30
0.0
 10
5.999999
 20
4.999988
 30
0.0
 10
5.971667
 20
4.999988
 30
0.0
 10
5.971667
 20
5.971617
 30
0.0
 10
4.999984
 20
5.971617
 30
0.0
 10
4.999984
 20
6.000003
 30
0.0
 10
5.999999
 20
6.000003
 30
0.0
 10
5.999999
 20
6.000003
 30
0.0
  0
LWPOLYLINE
  5
101
100
AcDbEntity
  8
Layer_1
 62
7
100
AcDbPolyline
 90
9
 70
1
 10
1.000015
 20
6.000003
 30
0.0
 10
1.000015
 20
5.971617
 30
0.0
 10
0.028332
 20
5.971617
 30
0.0
 10
0.028332
 20
4.999988
 30
0.0
 10
-0.000000
 20
4.999988
 30
0.0
 10
-0.000000
 20
5.985782
 30
0.0
 10
-0.000000
 20
6.000003
 30
0.0
 10
1.000015
 20
6.000003
 30
0.0
 10
1.000015
 20
6.000003
 30
0.0
  0
LWPOLYLINE
  5
102
100
AcDbEntity
  8
Layer_1
 62
7
100
AcDbPolyline
 90
8
 70
1
 10
5.999999
 20
0.799982
 30
0.0
 10
5.999999
 20
0.000003
 30
0.0
 10
4.999984
 20
0.000003
 30
0.0
 10
4.999984
 20
0.028336
 30
0.0
 10
5.971667
 20
0.028336
 30
0.0
 10
5.971667
 20
0.799982
 30
0.0
 10
5.999999
 20
0.799982
 30
0.0
 10
5.999999
 20
0.799982
 30
0.0
  0
LWPOLYLINE
  5
103
100
AcDbEntity
  8
Layer_1
 62
7
100
AcDbPolyline
 90
8
 70
1
 10
0.028332
 20
0.799982
 30
0.0
 10
0.028332
 20
0.028336
 30
0.0
 10
1.000015
 20
0.028336
 30
0.0
 10
1.000015
 20
0.000003
 30
0.0
 10
-0.000000
 20
0.000003
 30
0.0
 10
-0.000000
 20
0.799982
 30
0.0
 10
0.028332
 20
0.799982
 30
0.0
 10
0.028332
 20
0.799982
 30
0.0
  0
LWPOLYLINE
  5
104
100
AcDbEntity
  8
Layer_1
 62
7
100
AcDbPolyline
 90
8
 70
1
 10
6.000001
 20
5.999999
 30
0.0
 10
6.000001
 20
4.999984
 30
0.0
 10
5.971668
 20
4.999984
 30
0.0
 10
5.971668
 20
5.971613
 30
0.0
 10
4.999986
 20
5.971613
 30
0.0
 10
4.999986
 20
5.999999
 30
0.0
 10
6.000001
 20
5.999999
 30
0.0
 10
6.000001
 20
5.999999
 30
0.0
  0
LWPOLYLINE
  5
105
100
AcDbEntity
  8
Layer_1
 62
7
100
AcDbPolyline
 90
9
 70
1
 10
1.000016
 20
5.999999
 30
0.0
 10
1.000016
 20
5.971613
 30
0.0
 10
0.028334
 20
5.971613
 30
0.0
 10
0.028334
 20
4.999984
 30
0.0
 10
0.000001
 20
4.999984
 30
0.0
 10
0.000001
 20
5.985778
 30
0.0
 10
0.000001
 20
5.999999
 30
0.0
 10
1.000016
 20
5.999999
 30
0.0
 10
1.000016
 20
5.999999
 30
0.0
  0
LWPOLYLINE
  5
106
100
AcDbEntity
  8
Layer_1
 62
7
100
AcDbPolyline
 90
8
 70
1
 10
6.000001
 20
0.799979
 30
0.0
 10
6.000001
 20
0.000000
 30
0.0
 10
4.999986
 20
0.000000
 30
0.0
 10
4.999986
 20
0.028332
 30
0.0
 10
5.971668
 20
0.028332
 30
0.0
 10
5.971668
 20
0.799979
 30
0.0
 10
6.000001
 20
0.799979
 30
0.0
 10
6.000001
 20
0.799979
 30
0.0
  0
LWPOLYLINE
  5
107
100
AcDbEntity
  8
Layer_1
 62
7
100
AcDbPolyline
 90
8
 70
1
 10
0.028334
 20
0.799979
 30
0.0
 10
0.028334
 20
0.028332
 30
0.0
 10
1.000016
 20
0.028332
 30
0.0
 10
1.000016
 20
0.000000
 30
0.0
 10
0.000001
 20
0.000000
 30
0.0
 10
0.000001
 20
0.799979
 30
0.0
 10
0.028334
 20
0.799979
 30
0.0
 10
0.028334
 20
0.799979
 30
0.0
  0
LWPOLYLINE
  5
108
100
AcDbEntity
  8
Layer_1
 62
7
100
AcDbPolyline
 90
531
 70
0
 10
3.043684
 20
2.755706
 30
0.0
 10
3.043684
 20
2.755706
 30
0.0
 10
3.039981
 20
2.750769
 30
0.0
 10
3.035203
 20
2.744112
 30
0.0
 10
3.030800
 20
2.737399
 30
0.0
 10
3.026612
 20
2.730582
 30
0.0
 10
3.022906
 20
2.723711
 30
0.0
 10
3.019415
 20
2.716839
 30
0.0
 10
3.016356
 20
2.709912
 30
0.0
 10
3.015114
 20
2.702881
 30
0.0
 10
3.015735
 20
2.695847
 30
0.0
 10
3.016017
 20
2.688816
 30
0.0
 10
3.015622
 20
2.681726
 30
0.0
 10
3.014550
 20
2.674695
 30
0.0
 10
3.013760
 20
2.671259
 30
0.0
 10
3.012687
 20
2.667768
 30
0.0
 10
3.011333
 20
2.664280
 30
0.0
 10
3.009470
 20
2.660844
 30
0.0
 10
3.008341
 20
2.659086
 30
0.0
 10
3.006930
 20
2.657381
 30
0.0
 10
3.005180
 20
2.655677
 30
0.0
 10
3.002866
 20
2.653918
 30
0.0
 10
2.996905
 20
2.652214
 30
0.0
 10
2.927651
 20
2.644966
 30
0.0
 10
2.921422
 20
2.645459
 30
0.0
 10
2.918798
 20
2.646642
 30
0.0
 10
2.916766
 20
2.647988
 30
0.0
 10
2.915100
 20
2.649391
 30
0.0
 10
2.913520
 20
2.650903
 30
0.0
 10
2.910980
 20
2.653911
 30
0.0
 10
2.908948
 20
2.657077
 30
0.0
 10
2.907198
 20
2.660246
 30
0.0
 10
2.905646
 20
2.663468
 30
0.0
 10
2.903219
 20
2.670125
 30
0.0
 10
2.901356
 20
2.676942
 30
0.0
 10
2.900058
 20
2.683869
 30
0.0
 10
2.899211
 20
2.691008
 30
0.0
 10
2.896587
 20
2.697506
 30
0.0
 10
2.892130
 20
2.703679
 30
0.0
 10
2.887355
 20
2.709691
 30
0.0
 10
2.882255
 20
2.715543
 30
0.0
 10
2.876777
 20
2.721395
 30
0.0
 10
2.871031
 20
2.727085
 30
0.0
 10
2.865020
 20
2.732615
 30
0.0
 10
2.860296
 20
2.736694
 30
0.0
 10
2.804571
 20
2.715273
 30
0.0
 10
2.803894
 20
2.709100
 30
0.0
 10
2.803103
 20
2.700941
 30
0.0
 10
2.802595
 20
2.692940
 30
0.0
 10
2.802313
 20
2.684941
 30
0.0
 10
2.802595
 20
2.677157
 30
0.0
 10
2.803047
 20
2.669427
 30
0.0
 10
2.803894
 20
2.661910
 30
0.0
 10
2.806208
 20
2.655200
 30
0.0
 10
2.810450
 20
2.649455
 30
0.0
 10
2.814045
 20
2.643388
 30
0.0
 10
2.817268
 20
2.637160
 30
0.0
 10
2.819921
 20
2.630505
 30
0.0
 10
2.820993
 20
2.627121
 30
0.0
 10
2.821727
 20
2.623523
 30
0.0
 10
2.822235
 20
2.619821
 30
0.0
 10
2.822517
 20
2.615901
 30
0.0
 10
2.822517
 20
2.613866
 30
0.0
 10
2.822122
 20
2.611611
 30
0.0
 10
2.821530
 20
2.609303
 30
0.0
 10
2.820344
 20
2.606664
 30
0.0
 10
2.816049
 20
2.602046
 30
0.0
 10
2.759678
 20
2.561192
 30
0.0
 10
2.754149
 20
2.558400
 30
0.0
 10
2.751197
 20
2.558118
 30
0.0
 10
2.748770
 20
2.558400
 30
0.0
 10
2.746625
 20
2.558894
 30
0.0
 10
2.744593
 20
2.559388
 30
0.0
 10
2.740887
 20
2.560734
 30
0.0
 10
2.737560
 20
2.562411
 30
0.0
 10
2.734337
 20
2.564279
 30
0.0
 10
2.731441
 20
2.566314
 30
0.0
 10
2.725966
 20
2.570770
 30
0.0
 10
2.720971
 20
2.575764
 30
0.0
 10
2.716408
 20
2.581132
 30
0.0
 10
2.712222
 20
2.586877
 30
0.0
 10
2.706583
 20
2.591278
 30
0.0
 10
2.699658
 20
2.594285
 30
0.0
 10
2.692520
 20
2.597130
 30
0.0
 10
2.685109
 20
2.599769
 30
0.0
 10
2.677486
 20
2.602024
 30
0.0
 10
2.669703
 20
2.604059
 30
0.0
 10
2.661702
 20
2.605763
 30
0.0
 10
2.655580
 20
2.606946
 30
0.0
 10
2.617999
 20
2.560616
 30
0.0
 10
2.620483
 20
2.554871
 30
0.0
 10
2.623867
 20
2.547356
 30
0.0
 10
2.627516
 20
2.540160
 30
0.0
 10
2.631275
 20
2.533236
 30
0.0
 10
2.635302
 20
2.526523
 30
0.0
 10
2.639595
 20
2.520190
 30
0.0
 10
2.644051
 20
2.514016
 30
0.0
 10
2.649529
 20
2.509454
 30
0.0
 10
2.655970
 20
2.506447
 30
0.0
 10
2.662091
 20
2.503118
 30
0.0
 10
2.668049
 20
2.499198
 30
0.0
 10
2.673634
 20
2.494797
 30
0.0
 10
2.676259
 20
2.492379
 30
0.0
 10
2.678686
 20
2.489683
 30
0.0
 10
2.681056
 20
2.486676
 30
0.0
 10
2.683088
 20
2.483348
 30
0.0
 10
2.684048
 20
2.481533
 30
0.0
 10
2.684838
 20
2.479498
 30
0.0
 10
2.685459
 20
2.477190
 30
0.0
 10
2.685798
 20
2.474237
 30
0.0
 10
2.684330
 20
2.468226
 30
0.0
 10
2.656037
 20
2.404607
 30
0.0
 10
2.652495
 20
2.399453
 30
0.0
 10
2.650068
 20
2.397748
 30
0.0
 10
2.647923
 20
2.396732
 30
0.0
 10
2.645891
 20
2.395990
 30
0.0
 10
2.643859
 20
2.395414
 30
0.0
 10
2.640047
 20
2.394726
 30
0.0
 10
2.636239
 20
2.394443
 30
0.0
 10
2.632641
 20
2.394443
 30
0.0
 10
2.629046
 20
2.394726
 30
0.0
 10
2.622010
 20
2.395908
 30
0.0
 10
2.615301
 20
2.397723
 30
0.0
 10
2.608537
 20
2.400088
 30
0.0
 10
2.602037
 20
2.402933
 30
0.0
 10
2.595007
 20
2.403895
 30
0.0
 10
2.587488
 20
2.403099
 30
0.0
 10
2.579868
 20
2.401917
 30
0.0
 10
2.572189
 20
2.400460
 30
0.0
 10
2.564456
 20
2.398646
 30
0.0
 10
2.556673
 20
2.396611
 30
0.0
 10
2.548889
 20
2.394028
 30
0.0
 10
2.542928
 20
2.392104
 30
0.0
 10
2.533640
 20
2.333102
 30
0.0
 10
2.538636
 20
2.329290
 30
0.0
 10
2.545293
 20
2.324620
 30
0.0
 10
2.552002
 20
2.320164
 30
0.0
 10
2.558823
 20
2.316030
 30
0.0
 10
2.565639
 20
2.312217
 30
0.0
 10
2.572567
 20
2.308836
 30
0.0
 10
2.579490
 20
2.305829
 30
0.0
 10
2.586523
 20
2.304537
 30
0.0
 10
2.593556
 20
2.305112
 30
0.0
 10
2.600536
 20
2.305443
 30
0.0
 10
2.607676
 20
2.304974
 30
0.0
 10
2.614709
 20
2.304012
 30
0.0
 10
2.618090
 20
2.303323
 30
0.0
 10
2.621634
 20
2.302251
 30
0.0
 10
2.625126
 20
2.300684
 30
0.0
 10
2.628614
 20
2.298926
 30
0.0
 10
2.630279
 20
2.297854
 30
0.0
 10
2.632029
 20
2.296397
 30
0.0
 10
2.633778
 20
2.294693
 30
0.0
 10
2.635472
 20
2.292328
 30
0.0
 10
2.637222
 20
2.286368
 30
0.0
 10
2.644415
 20
2.217059
 30
0.0
 10
2.643907
 20
2.210940
 30
0.0
 10
2.642779
 20
2.208301
 30
0.0
 10
2.641367
 20
2.206213
 30
0.0
 10
2.640013
 20
2.204508
 30
0.0
 10
2.638545
 20
2.202996
 30
0.0
 10
2.635486
 20
2.200467
 30
0.0
 10
2.632370
 20
2.198432
 30
0.0
 10
2.629150
 20
2.196674
 30
0.0
 10
2.625930
 20
2.195108
 30
0.0
 10
2.619326
 20
2.192689
 30
0.0
 10
2.612507
 20
2.190874
 30
0.0
 10
2.605582
 20
2.189582
 30
0.0
 10
2.598444
 20
2.188729
 30
0.0
 10
2.591894
 20
2.185980
 30
0.0
 10
2.585772
 20
2.181577
 30
0.0
 10
2.579705
 20
2.176799
 30
0.0
 10
2.573854
 20
2.171646
 30
0.0
 10
2.568001
 20
2.166277
 30
0.0
 10
2.562365
 20
2.160532
 30
0.0
 10
2.556780
 20
2.154466
 30
0.0
 10
2.552702
 20
2.149796
 30
0.0
 10
2.574176
 20
2.094016
 30
0.0
 10
2.580297
 20
2.093274
 30
0.0
 10
2.588510
 20
2.092532
 30
0.0
 10
2.596508
 20
2.092038
 30
0.0
 10
2.604509
 20
2.092038
 30
0.0
 10
2.612293
 20
2.092038
 30
0.0
 10
2.619972
 20
2.092532
 30
0.0
 10
2.627488
 20
2.093274
 30
0.0
 10
2.634250
 20
2.095749
 30
0.0
 10
2.639996
 20
2.099828
 30
0.0
 10
2.646007
 20
2.103533
 30
0.0
 10
2.652289
 20
2.106755
 30
0.0
 10
2.658893
 20
2.109394
 30
0.0
 10
2.662328
 20
2.110356
 30
0.0
 10
2.665924
 20
2.111262
 30
0.0
 10
2.669629
 20
2.111756
 30
0.0
 10
2.673549
 20
2.112038
 30
0.0
 10
2.675581
 20
2.111756
 30
0.0
 10
2.677783
 20
2.111426
 30
0.0
 10
2.680153
 20
2.110847
 30
0.0
 10
2.682778
 20
2.109721
 30
0.0
 10
2.687339
 20
2.105425
 30
0.0
 10
2.728193
 20
2.049054
 30
0.0
 10
2.730931
 20
2.043364
 30
0.0
 10
2.731269
 20
2.040573
 30
0.0
 10
2.730987
 20
2.038098
 30
0.0
 10
2.730592
 20
2.035899
 30
0.0
 10
2.730084
 20
2.033921
 30
0.0
 10
2.728673
 20
2.030216
 30
0.0
 10
2.727008
 20
2.026835
 30
0.0
 10
2.725202
 20
2.023720
 30
0.0
 10
2.723170
 20
2.020768
 30
0.0
 10
2.718662
 20
2.015290
 30
0.0
 10
2.713721
 20
2.010350
 30
0.0
 10
2.708353
 20
2.005735
 30
0.0
 10
2.702610
 20
2.001439
 30
0.0
 10
2.698204
 20
1.995804
 30
0.0
 10
2.695201
 20
1.988985
 30
0.0
 10
2.692354
 20
1.981791
 30
0.0
 10
2.689814
 20
1.974435
 30
0.0
 10
2.687443
 20
1.966865
 30
0.0
 10
2.685411
 20
1.958974
 30
0.0
 10
2.683633
 20
1.950975
 30
0.0
 10
2.682448
 20
1.944909
 30
0.0
 10
2.728780
 20
1.907273
 30
0.0
 10
2.734523
 20
1.909691
 30
0.0
 10
2.742039
 20
1.913127
 30
0.0
 10
2.749286
 20
1.916726
 30
0.0
 10
2.756212
 20
1.920645
 30
0.0
 10
2.762923
 20
1.924617
 30
0.0
 10
2.769256
 20
1.928913
 30
0.0
 10
2.775378
 20
1.933314
 30
0.0
 10
2.779995
 20
1.938790
 30
0.0
 10
2.783001
 20
1.945232
 30
0.0
 10
2.786328
 20
1.951461
 30
0.0
 10
2.790197
 20
1.957421
 30
0.0
 10
2.794597
 20
1.962948
 30
0.0
 10
2.797081
 20
1.965477
 30
0.0
 10
2.799705
 20
1.968062
 30
0.0
 10
2.802711
 20
1.970371
 30
0.0
 10
2.806041
 20
1.972405
 30
0.0
 10
2.807848
 20
1.973368
 30
0.0
 10
2.809880
 20
1.974164
 30
0.0
 10
2.812250
 20
1.974768
 30
0.0
 10
2.815149
 20
1.975151
 30
0.0
 10
2.821216
 20
1.973695
 30
0.0
 10
2.884781
 20
1.945402
 30
0.0
 10
2.889935
 20
1.941804
 30
0.0
 10
2.891600
 20
1.939439
 30
0.0
 10
2.892672
 20
1.937294
 30
0.0
 10
2.893462
 20
1.935150
 30
0.0
 10
2.894083
 20
1.933225
 30
0.0
 10
2.894704
 20
1.929305
 30
0.0
 10
2.895043
 20
1.925603
 30
0.0
 10
2.895043
 20
1.921897
 30
0.0
 10
2.894704
 20
1.918406
 30
0.0
 10
2.893519
 20
1.911375
 30
0.0
 10
2.891656
 20
1.904555
 30
0.0
 10
2.889342
 20
1.897953
 30
0.0
 10
2.886494
 20
1.891403
 30
0.0
 10
2.885535
 20
1.884371
 30
0.0
 10
2.886269
 20
1.876802
 30
0.0
 10
2.887454
 20
1.869176
 30
0.0
 10
2.888921
 20
1.861554
 30
0.0
 10
2.890784
 20
1.853770
 30
0.0
 10
2.892816
 20
1.846038
 30
0.0
 10
2.895356
 20
1.838146
 30
0.0
 10
2.897388
 20
1.832294
 30
0.0
 10
2.956282
 20
1.822954
 30
0.0
 10
2.960095
 20
1.827945
 30
0.0
 10
2.964766
 20
1.834658
 30
0.0
 10
2.969276
 20
1.841367
 30
0.0
 10
2.973357
 20
1.848187
 30
0.0
 10
2.977167
 20
1.855004
 30
0.0
 10
2.980604
 20
1.861876
 30
0.0
 10
2.983610
 20
1.868802
 30
0.0
 10
2.984908
 20
1.875782
 30
0.0
 10
2.984315
 20
1.882920
 30
0.0
 10
2.984033
 20
1.889954
 30
0.0
 10
2.984428
 20
1.896933
 30
0.0
 10
2.985444
 20
1.903967
 30
0.0
 10
2.986178
 20
1.907510
 30
0.0
 10
2.987363
 20
1.910998
 30
0.0
 10
2.988718
 20
1.914434
 30
0.0
 10
2.990581
 20
1.917925
 30
0.0
 10
2.991653
 20
1.919683
 30
0.0
 10
2.993121
 20
1.921388
 30
0.0
 10
2.994758
 20
1.923065
 30
0.0
 10
2.997072
 20
1.924823
 30
0.0
 10
3.003032
 20
1.926581
 30
0.0
 10
3.072394
 20
1.933882
 30
0.0
 10
3.078513
 20
1.933388
 30
0.0
 10
3.081137
 20
1.932205
 30
0.0
 10
3.083169
 20
1.930859
 30
0.0
 10
3.084919
 20
1.929346
 30
0.0
 10
3.086387
 20
1.927890
 30
0.0
 10
3.088927
 20
1.924990
 30
0.0
 10
3.090959
 20
1.921823
 30
0.0
 10
3.092821
 20
1.918657
 30
0.0
 10
3.094289
 20
1.915435
 30
0.0
 10
3.096773
 20
1.908671
 30
0.0
 10
3.098579
 20
1.901958
 30
0.0
 10
3.099877
 20
1.894927
 30
0.0
 10
3.100724
 20
1.887893
 30
0.0
 10
3.103461
 20
1.881398
 30
0.0
 10
3.107867
 20
1.875224
 30
0.0
 10
3.112642
 20
1.869210
 30
0.0
 10
3.117795
 20
1.863251
 30
0.0
 10
3.123166
 20
1.857509
 30
0.0
 10
3.128909
 20
1.851816
 30
0.0
 10
3.134977
 20
1.846285
 30
0.0
 10
3.139645
 20
1.842206
 30
0.0
 10
3.195426
 20
1.863520
 30
0.0
 10
3.196160
 20
1.869801
 30
0.0
 10
3.196950
 20
1.877855
 30
0.0
 10
3.197458
 20
1.885961
 30
0.0
 10
3.197458
 20
1.893959
 30
0.0
 10
3.197458
 20
1.901744
 30
0.0
 10
3.196950
 20
1.909369
 30
0.0
 10
3.196160
 20
1.916991
 30
0.0
 10
3.193733
 20
1.923596
 30
0.0
 10
3.189655
 20
1.929446
 30
0.0
 10
3.185949
 20
1.935512
 30
0.0
 10
3.182729
 20
1.941741
 30
0.0
 10
3.180076
 20
1.948291
 30
0.0
 10
3.179060
 20
1.951779
 30
0.0
 10
3.178213
 20
1.955270
 30
0.0
 10
3.177734
 20
1.958975
 30
0.0
 10
3.177451
 20
1.963000
 30
0.0
 10
3.177734
 20
1.964978
 30
0.0
 10
3.178016
 20
1.967123
 30
0.0
 10
3.178608
 20
1.969488
 30
0.0
 10
3.179794
 20
1.972237
 30
0.0
 10
3.184086
 20
1.976745
 30
0.0
 10
3.240457
 20
2.017709
 30
0.0
 10
3.246096
 20
2.020348
 30
0.0
 10
3.248941
 20
2.020630
 30
0.0
 10
3.251368
 20
2.020630
 30
0.0
 10
3.253626
 20
2.020246
 30
0.0
 10
3.255545
 20
2.019752
 30
0.0
 10
3.259251
 20
2.018349
 30
0.0
 10
3.262688
 20
2.016727
 30
0.0
 10
3.265798
 20
2.014858
 30
0.0
 10
3.268699
 20
2.012824
 30
0.0
 10
3.274175
 20
2.008261
 30
0.0
 10
3.279170
 20
2.003269
 30
0.0
 10
3.283731
 20
1.997901
 30
0.0
 10
3.288026
 20
1.992263
 30
0.0
 10
3.293662
 20
1.987860
 30
0.0
 10
3.300534
 20
1.984748
 30
0.0
 10
3.307728
 20
1.981900
 30
0.0
 10
3.315139
 20
1.979372
 30
0.0
 10
3.322762
 20
1.977117
 30
0.0
 10
3.330546
 20
1.975082
 30
0.0
 10
3.338544
 20
1.973267
 30
0.0
 10
3.344612
 20
1.972085
 30
0.0
 10
3.382246
 20
2.018524
 30
0.0
 10
3.379762
 20
2.024269
 30
0.0
 10
3.376379
 20
2.031677
 30
0.0
 10
3.372727
 20
2.038870
 30
0.0
 10
3.368863
 20
2.045905
 30
0.0
 10
3.364836
 20
2.052507
 30
0.0
 10
3.360540
 20
2.058950
 30
0.0
 10
3.356191
 20
2.065124
 30
0.0
 10
3.350716
 20
2.069687
 30
0.0
 10
3.344276
 20
2.072639
 30
0.0
 10
3.338047
 20
2.076022
 30
0.0
 10
3.332087
 20
2.079832
 30
0.0
 10
3.326558
 20
2.084236
 30
0.0
 10
3.323961
 20
2.086764
 30
0.0
 10
3.321421
 20
2.089403
 30
0.0
 10
3.319051
 20
2.092356
 30
0.0
 10
3.317019
 20
2.095632
 30
0.0
 10
3.316059
 20
2.097500
 30
0.0
 10
3.315325
 20
2.099645
 30
0.0
 10
3.314733
 20
2.101954
 30
0.0
 10
3.314281
 20
2.104799
 30
0.0
 10
3.315805
 20
2.110813
 30
0.0
 10
3.344152
 20
2.174484
 30
0.0
 10
3.347693
 20
2.179583
 30
0.0
 10
3.350008
 20
2.181342
 30
0.0
 10
3.352153
 20
2.182414
 30
0.0
 10
3.354297
 20
2.183156
 30
0.0
 10
3.356217
 20
2.183732
 30
0.0
 10
3.360137
 20
2.184421
 30
0.0
 10
3.363837
 20
2.184703
 30
0.0
 10
3.367542
 20
2.184703
 30
0.0
 10
3.371087
 20
2.184421
 30
0.0
 10
3.378066
 20
2.183128
 30
0.0
 10
3.384882
 20
2.181423
 30
0.0
 10
3.391540
 20
2.179058
 30
0.0
 10
3.398090
 20
2.176213
 30
0.0
 10
3.405069
 20
2.175251
 30
0.0
 10
3.412695
 20
2.176047
 30
0.0
 10
3.420315
 20
2.177119
 30
0.0
 10
3.427887
 20
2.178686
 30
0.0
 10
3.435727
 20
2.180390
 30
0.0
 10
3.443403
 20
2.182535
 30
0.0
 10
3.451294
 20
2.185010
 30
0.0
 10
3.457148
 20
2.187045
 30
0.0
 10
3.466543
 20
2.246047
 30
0.0
 10
3.461548
 20
2.249749
 30
0.0
 10
3.454836
 20
2.254529
 30
0.0
 10
3.448074
 20
2.258985
 30
0.0
 10
3.441360
 20
2.263119
 30
0.0
 10
3.434437
 20
2.266822
 30
0.0
 10
3.427616
 20
2.270313
 30
0.0
 10
3.420693
 20
2.273320
 30
0.0
 10
3.413660
 20
2.274612
 30
0.0
 10
3.406573
 20
2.273924
 30
0.0
 10
3.399541
 20
2.273642
 30
0.0
 10
3.392508
 20
2.274025
 30
0.0
 10
3.385475
 20
2.275098
 30
0.0
 10
3.381986
 20
2.275840
 30
0.0
 10
3.378495
 20
2.276912
 30
0.0
 10
3.375058
 20
2.278315
 30
0.0
 10
3.371569
 20
2.280130
 30
0.0
 10
3.369820
 20
2.281312
 30
0.0
 10
3.368070
 20
2.282715
 30
0.0
 10
3.366377
 20
2.284420
 30
0.0
 10
3.364683
 20
2.286785
 30
0.0
 10
3.362933
 20
2.292744
 30
0.0
 10
3.355632
 20
2.361946
 30
0.0
 10
3.356140
 20
2.368172
 30
0.0
 10
3.357326
 20
2.370811
 30
0.0
 10
3.358680
 20
2.372899
 30
0.0
 10
3.360148
 20
2.374575
 30
0.0
 10
3.361672
 20
2.376088
 30
0.0
 10
3.364568
 20
2.378671
 30
0.0
 10
3.367683
 20
2.380705
 30
0.0
 10
3.370903
 20
2.382410
 30
0.0
 10
3.374126
 20
2.383976
 30
0.0
 10
3.380835
 20
2.386449
 30
0.0
 10
3.387600
 20
2.388263
 30
0.0
 10
3.394579
 20
2.389499
 30
0.0
 10
3.401612
 20
2.390352
 30
0.0
 10
3.408270
 20
2.393044
 30
0.0
 10
3.414281
 20
2.397500
 30
0.0
 10
3.420349
 20
2.402280
 30
0.0
 10
3.426306
 20
2.407327
 30
0.0
 10
3.432053
 20
2.412802
 30
0.0
 10
3.437691
 20
2.418547
 30
0.0
 10
3.443274
 20
2.424613
 30
0.0
 10
3.447352
 20
2.429284
 30
0.0
 10
3.425985
 20
2.485064
 30
0.0
 10
3.419756
 20
2.485750
 30
0.0
 10
3.411651
 20
2.486492
 30
0.0
 10
3.403596
 20
2.486986
 30
0.0
 10
3.395654
 20
2.487268
 30
0.0
 10
3.387763
 20
2.486986
 30
0.0
 10
3.380191
 20
2.486602
 30
0.0
 10
3.372566
 20
2.485750
 30
0.0
 10
3.365911
 20
2.483385
 30
0.0
 10
3.360060
 20
2.479198
 30
0.0
 10
3.354046
 20
2.475600
 30
0.0
 10
3.347820
 20
2.472379
 30
0.0
 10
3.341270
 20
2.469740
 30
0.0
 10
3.337779
 20
2.468668
 30
0.0
 10
3.334237
 20
2.467872
 30
0.0
 10
3.330532
 20
2.467378
 30
0.0
 10
3.326665
 20
2.467096
 30
0.0
 10
3.324520
 20
2.467096
 30
0.0
 10
3.322375
 20
2.467536
 30
0.0
 10
3.320005
 20
2.468114
 30
0.0
 10
3.317267
 20
2.469240
 30
0.0
 10
3.312814
 20
2.473534
 30
0.0
 10
3.271852
 20
2.529905
 30
0.0
 10
3.269227
 20
2.535488
 30
0.0
 10
3.268945
 20
2.538387
 30
0.0
 10
3.268945
 20
2.540862
 30
0.0
 10
3.269340
 20
2.543007
 30
0.0
 10
3.269848
 20
2.545042
 30
0.0
 10
3.271259
 20
2.548745
 30
0.0
 10
3.272924
 20
2.552021
 30
0.0
 10
3.274731
 20
2.555243
 30
0.0
 10
3.276763
 20
2.558195
 30
0.0
 10
3.281377
 20
2.563671
 30
0.0
 10
3.286319
 20
2.568610
 30
0.0
 10
3.291686
 20
2.573228
 30
0.0
 10
3.297379
 20
2.577414
 30
0.0
 10
3.301728
 20
2.583052
 30
0.0
 10
3.304894
 20
2.589976
 30
0.0
 10
3.307688
 20
2.597117
 30
0.0
 10
3.310228
 20
2.604525
 30
0.0
 10
3.312486
 20
2.612095
 30
0.0
 10
3.314518
 20
2.619934
 30
0.0
 10
3.316381
 20
2.627881
 30
0.0
 10
3.317566
 20
2.634055
 30
0.0
 10
3.271127
 20
2.671580
 30
0.0
 10
3.265381
 20
2.669162
 30
0.0
 10
3.257972
 20
2.665726
 30
0.0
 10
3.250725
 20
2.662127
 30
0.0
 10
3.243745
 20
2.658318
 30
0.0
 10
3.237088
 20
2.654343
 30
0.0
 10
3.230647
 20
2.650049
 30
0.0
 10
3.224526
 20
2.645539
 30
0.0
 10
3.219963
 20
2.640171
 30
0.0
 10
3.217010
 20
2.633675
 30
0.0
 10
3.213627
 20
2.627502
 30
0.0
 10
3.209817
 20
2.621542
 30
0.0
 10
3.205414
 20
2.616012
 30
0.0
 10
3.202874
 20
2.613319
 30
0.0
 10
3.200249
 20
2.610844
 30
0.0
 10
3.197297
 20
2.608536
 30
0.0
 10
3.193970
 20
2.606501
 30
0.0
 10
3.192164
 20
2.605595
 30
0.0
 10
3.190019
 20
2.604799
 30
0.0
 10
3.187648
 20
2.604110
 30
0.0
 10
3.184854
 20
2.603828
 30
0.0
 10
3.178786
 20
2.605285
 30
0.0
 10
3.115117
 20
2.633577
 30
0.0
 10
3.110068
 20
2.637065
 30
0.0
 10
3.108318
 20
2.639540
 30
0.0
 10
3.107246
 20
2.641685
 30
0.0
 10
3.106456
 20
2.643720
 30
0.0
 10
3.105919
 20
2.645755
 30
0.0
 10
3.105242
 20
2.649567
 30
0.0
 10
3.104960
 20
2.653325
 30
0.0
 10
3.104960
 20
2.656975
 30
0.0
 10
3.105298
 20
2.660573
 30
0.0
 10
3.106540
 20
2.667607
 30
0.0
 10
3.108318
 20
2.674317
 30
0.0
 10
3.110745
 20
2.681026
 30
0.0
 10
3.113483
 20
2.687577
 30
0.0
 10
3.114442
 20
2.694611
 30
0.0
 10
3.113709
 20
2.702126
 30
0.0
 10
3.112636
 20
2.709696
 30
0.0
 10
3.111084
 20
2.717428
 30
0.0
 10
3.109306
 20
2.725105
 30
0.0
 10
3.107161
 20
2.732942
 30
0.0
 10
3.104734
 20
2.740726
 30
0.0
 10
3.102702
 20
2.746685
 30
0.0
 10
3.043701
 20
2.755921
 30
0.0
 10
3.043684
 20
2.755706
 30
0.0
  0
ENDSEC
  0
SECTION
  2
OBJECTS
  0
DICTIONARY
  5
C
330
0
100
AcDbDictionary
  3
ACAD_GROUP
350
D
  3
ACAD_MLINESTYLE
350
17
  0
DICTIONARY
  5
D
330
C
100
AcDbDictionary
  0
DICTIONARY
  5
1A
330
C
100
AcDbDictionary
  0
DICTIONARY
  5
17
330
C
100
AcDbDictionary
  3
STANDARD
350
18
  0
DICTIONARY
  5
19
330
C
100
AcDbDictionary
  0
ENDSEC
  0
EOF
