<?xml version="1.0" encoding="ISO-8859-1" standalone="no"?>
<!DOCTYPE svg PUBLIC "-//W3C//DTD SVG 1.1//EN"
    "http://www.w3.org/Graphics/SVG/1.1/DTD/svg11.dtd">
<svg xmlns="http://www.w3.org/2000/svg"
     xmlns:xlink="http://www.w3.org/1999/xlink" xml:space="preserve"
         width="213px" height="146px"
         viewBox="0 0 213 146"
         zoomAndPan="disable" preserveAspectRatio="none" >
<!-- Made with the gear generator.  http://woodgears.ca/gear   2017-03-17T22:59:16 -->
<!-- G1:Toothspacing=23.56  Teeth=18  Slop=.5  Spur gear  Angle=20.0  Addendum=.2 -->
<!-- G2:Toothspacing=23.56  Teeth=9  Slop=.5  Spur gear  Angle=20.0  Addendum=.2 -->
<!-- G2:Toothspacing=23.56  Teeth=9  Slop=.5  Spur gear  Angle=20.0  Addendum=.2 -->
<polygon id="G1Gear" data-id="0" class="gear" fill="none" fill-opacity="0.2" stroke="#000"  stroke-miterlimit="10"
points =" 133.67 78.98 134.04 78.17 134.34 77.87 134.65 77.67 135.23 77.39 135.81 77.21 136.39 77.1 137.53 77.01
 138.66 77.07 139.79 77.13 140.94 76.77 142.1 76.35 143.25 75.88 144.41 75.35 145.27 74.92 145.18 68.36
 144.3 67.95 143.14 67.46 141.97 67.01 140.8 66.63 139.63 66.3 138.51 66.4 137.38 66.48 136.24 66.43
 135.66 66.33 135.08 66.17 134.48 65.91 134.17 65.71 133.86 65.42 133.47 64.63 132.16 57.73 132.22 56.84
 132.41 56.46 132.62 56.16 133.08 55.7 133.56 55.33 134.07 55.03 135.11 54.56 136.19 54.22 137.27 53.9
 138.23 53.17 139.18 52.38 140.1 51.54 141 50.64 141.66 49.94 139.34 43.82 138.38 43.73 137.11 43.66
 135.86 43.65 134.63 43.68 133.42 43.78 132.4 44.25 131.37 44.72 130.28 45.06 129.7 45.16 129.1 45.21
 128.45 45.17 128.09 45.09 127.69 44.93 127.06 44.31 123.46 38.27 123.22 37.42 123.27 37 123.37 36.65
 123.64 36.05 123.97 35.54 124.33 35.09 125.15 34.29 126.05 33.61 126.96 32.93 127.61 31.91 128.23 30.85
 128.81 29.74 129.35 28.6 129.74 27.71 125.45 22.75 124.52 23 123.31 23.37 122.13 23.78 120.98 24.23
 119.88 24.73 119.08 25.53 118.27 26.32 117.36 27.01 116.86 27.31 116.31 27.56 115.68 27.74 115.32 27.79
 114.89 27.77 114.08 27.41 108.64 22.97 108.12 22.25 108.02 21.84 107.99 21.47 108.04 20.82 108.18 20.23
 108.37 19.68 108.87 18.65 109.48 17.7 110.1 16.75 110.36 15.57 110.58 14.36 110.75 13.12 110.86 11.86
 110.92 10.9 105.2 7.7 104.41 8.25 103.39 9.01 102.43 9.8 101.51 10.62 100.65 11.47 100.16 12.49
 99.67 13.51 99.06 14.47 98.68 14.92 98.25 15.35 97.73 15.73 97.4 15.9 96.99 16.03 96.11 15.97
 89.48 13.66 88.75 13.16 88.51 12.8 88.36 12.47 88.18 11.84 88.11 11.24 88.1 10.66 88.21 9.52
 88.46 8.42 88.72 7.32 88.57 6.12 88.36 4.91 88.09 3.68 87.77 2.46 87.49 1.53 81.02 0.48
 80.47 1.27 79.77 2.34 79.14 3.41 78.55 4.49 78.03 5.59 77.93 6.71 77.82 7.84 77.57 8.95
 77.37 9.5 77.11 10.05 76.75 10.59 76.5 10.86 76.16 11.12 75.31 11.36 68.29 11.46 67.43 11.24
 67.08 10.99 66.83 10.73 66.45 10.2 66.17 9.66 65.96 9.11 65.68 8.01 65.54 6.88 65.4 5.76
 64.85 4.69 64.24 3.62 63.57 2.56 62.85 1.52 62.27 0.75 55.83 1.97 55.58 2.91 55.3 4.14
 55.06 5.37 54.89 6.59 54.77 7.79 55.06 8.88 55.34 9.98 55.48 11.11 55.49 11.7 55.43 12.3
 55.27 12.93 55.13 13.27 54.9 13.63 54.19 14.15 47.62 16.64 46.74 16.73 46.33 16.61 46 16.46
 45.46 16.09 45.02 15.67 44.63 15.23 43.99 14.29 43.47 13.28 42.96 12.28 42.08 11.45 41.14 10.66
 40.15 9.9 39.11 9.16 38.3 8.63 32.67 11.99 32.76 12.95 32.91 14.21 33.11 15.44 33.36 16.65
 33.66 17.82 34.31 18.75 34.94 19.68 35.47 20.7 35.67 21.24 35.83 21.83 35.9 22.48 35.88 22.84
 35.79 23.26 35.29 23.99 29.97 28.58 29.18 28.97 28.75 29 28.39 28.96 27.76 28.8 27.2 28.56
 26.69 28.28 25.76 27.61 24.93 26.84 24.1 26.07 22.99 25.6 21.83 25.18 20.64 24.8 19.42 24.46
 18.48 24.24 14.34 29.32 14.74 30.2 15.32 31.33 15.93 32.42 16.58 33.46 17.26 34.46 18.18 35.11
 19.1 35.77 19.94 36.55 20.32 36.99 20.67 37.49 20.95 38.08 21.06 38.43 21.12 38.85 20.9 39.71
 17.48 45.84 16.86 46.47 16.47 46.65 16.11 46.74 15.46 46.8 14.86 46.77 14.28 46.68 13.18 46.37
 12.14 45.93 11.1 45.49 9.89 45.42 8.66 45.42 7.41 45.47 6.15 45.58 5.19 45.69 3.03 51.88
 3.72 52.56 4.64 53.43 5.59 54.24 6.55 55.01 7.54 55.71 8.63 56.01 9.72 56.31 10.77 56.75
 11.28 57.04 11.78 57.39 12.25 57.84 12.47 58.13 12.67 58.51 12.75 59.39 11.63 66.33 11.27 67.13
 10.96 67.43 10.66 67.64 10.07 67.92 9.49 68.1 8.92 68.21 7.78 68.29 6.65 68.24 5.52 68.18
 4.36 68.53 3.21 68.95 2.05 69.43 0.9 69.96 0.04 70.39 0.13 76.94 1 77.35 2.17 77.85
 3.34 78.29 4.51 78.68 5.67 79 6.8 78.91 7.92 78.82 9.07 78.88 9.64 78.97 10.23 79.13
 10.82 79.4 11.13 79.6 11.45 79.88 11.83 80.68 13.15 87.58 13.08 88.46 12.89 88.85 12.68 89.14
 12.23 89.61 11.74 89.97 11.24 90.27 10.2 90.74 9.12 91.08 8.04 91.41 7.07 92.14 6.13 92.93
 5.21 93.77 4.3 94.66 3.64 95.36 5.97 101.49 6.93 101.57 8.2 101.64 9.45 101.66 10.68 101.62
 11.88 101.53 12.91 101.05 13.94 100.59 15.03 100.25 15.6 100.14 16.21 100.09 16.86 100.14 17.22 100.22
 17.61 100.38 18.25 101 21.84 107.03 22.08 107.88 22.04 108.31 21.94 108.66 21.67 109.25 21.34 109.76
 20.97 110.22 20.15 111.01 19.25 111.7 18.35 112.38 17.69 113.39 17.07 114.46 16.5 115.56 15.95 116.71
 15.57 117.6 19.85 122.56 20.78 122.31 22 121.94 23.18 121.53 24.32 121.07 25.42 120.57 26.22 119.78
 27.03 118.99 27.94 118.29 28.45 118 29 117.74 29.62 117.56 29.99 117.52 30.41 117.53 31.22 117.9
 36.66 122.34 37.18 123.05 37.28 123.47 37.31 123.83 37.26 124.48 37.12 125.07 36.93 125.63 36.44 126.66
 35.83 127.61 35.21 128.55 34.94 129.73 34.72 130.94 34.56 132.18 34.44 133.45 34.38 134.41 40.11 137.61
 40.9 137.05 41.91 136.29 42.88 135.5 43.8 134.68 44.66 133.84 45.14 132.81 45.63 131.79 46.25 130.83
 46.62 130.38 47.05 129.95 47.58 129.57 47.9 129.4 48.31 129.27 49.19 129.34 55.83 131.65 56.56 132.14
 56.8 132.5 56.95 132.83 57.12 133.46 57.2 134.06 57.21 134.65 57.09 135.78 56.84 136.89 56.59 137.99
 56.74 139.19 56.95 140.4 57.22 141.62 57.54 142.85 57.81 143.77 64.28 144.82 64.84 144.03 65.53 142.97
 66.17 141.89 66.75 140.81 67.27 139.72 67.38 138.59 67.49 137.47 67.74 136.35 67.93 135.8 68.2 135.25
 68.56 134.71 68.81 134.45 69.14 134.18 70 133.94 77.02 133.84 77.88 134.06 78.22 134.31 78.48 134.57
 78.86 135.11 79.13 135.65 79.34 136.19 79.62 137.3 79.77 138.42 79.9 139.54 80.45 140.62 81.07 141.69
 81.73 142.74 82.46 143.78 83.03 144.56 89.47 143.33 89.72 142.4 90.01 141.16 90.24 139.93 90.42 138.72
 90.54 137.51 90.25 136.42 89.97 135.33 89.82 134.19 89.82 133.61 89.88 133 90.03 132.37 90.17 132.03
 90.4 131.67 91.12 131.15 97.68 128.66 98.56 128.57 98.98 128.69 99.3 128.85 99.84 129.22 100.29 129.63
 100.67 130.07 101.31 131.02 101.83 132.02 102.34 133.03 103.23 133.85 104.17 134.64 105.16 135.41 106.19 136.14
 107 136.67 112.63 133.32 112.55 132.35 112.39 131.09 112.19 129.86 111.94 128.66 111.64 127.49 111 126.56
 110.36 125.62 109.84 124.61 109.63 124.06 109.48 123.47 109.41 122.83 109.43 122.46 109.52 122.04 110.01 121.31
 115.33 116.72 116.13 116.34 116.55 116.31 116.92 116.34 117.55 116.51 118.11 116.74 118.62 117.03 119.55 117.69
 120.38 118.46 121.2 119.23 122.32 119.7 123.47 120.13 124.66 120.51 125.89 120.84 126.83 121.06 130.97 115.98
 130.56 115.11 129.99 113.98 129.38 112.89 128.73 111.84 128.05 110.84 127.12 110.19 126.2 109.53 125.36 108.76
 124.98 108.31 124.64 107.81 124.35 107.23 124.24 106.88 124.19 106.46 124.4 105.6 127.83 99.47 128.45 98.83
 128.84 98.66 129.19 98.57 129.84 98.51 130.45 98.54 131.02 98.63 132.12 98.94 133.17 99.37 134.21 99.82
 135.41 99.88 136.64 99.88 137.89 99.83 139.16 99.73 140.12 99.62 142.27 93.43 141.59 92.74 140.66 91.88
 139.72 91.06 138.75 90.3 137.77 89.6 136.68 89.3 135.59 88.99 134.53 88.55 134.02 88.26 133.53 87.91
 133.06 87.46 132.84 87.17 132.64 86.79 132.55 85.91"/>
<polygon id="G1Gear" data-id="0" class="gear" fill="none" fill-opacity="0.2" stroke="#000"  stroke-miterlimit="10"
points =" 109.68 79.2 119.46 79.07 122.42 82.56 121.61 86 120.56 89.37 119.28 92.67 117.78 95.86 116.05 98.95
 114.12 101.9 111.98 104.72 109.66 107.38 107.15 109.87 104.48 112.18 101.65 114.3 98.68 116.21 94.4 114.6
 91.25 105.34 93.15 99.95 97.15 96.43 100.55 92.33 103.27 87.75 105.25 82.8"/>
<polygon id="G1Gear" data-id="0" class="gear" fill="none" fill-opacity="0.2" stroke="#000"  stroke-miterlimit="10"
points =" 77.86 109.89 81.02 119.15 78.61 123.05 75.09 123.34 71.55 123.39 68.03 123.19 64.52 122.74 61.06 122.05
 57.65 121.13 54.31 119.97 51.06 118.58 47.92 116.96 44.9 115.13 42.01 113.1 39.27 110.87 39.48 106.3
 47.31 100.44 53.02 100.58 57.61 103.29 62.56 105.26 67.76 106.44 73.07 106.79"/>
<polygon id="G1Gear" data-id="0" class="gear" fill="none" fill-opacity="0.2" stroke="#000"  stroke-miterlimit="10"
points =" 38.85 89.12 31.01 94.98 26.57 93.89 25.2 90.63 24.06 87.29 23.16 83.87 22.5 80.4 22.09 76.89
 21.91 73.36 21.99 69.83 22.31 66.31 22.87 62.82 23.67 59.38 24.72 56.01 25.99 52.71 30.4 51.5
 38.4 57.14 40.03 62.61 38.86 67.81 38.52 73.13 39.01 78.44 40.32 83.6"/>
<polygon id="G1Gear" data-id="0" class="gear" fill="none" fill-opacity="0.2" stroke="#000"  stroke-miterlimit="10"
points =" 46.55 45.59 38.55 39.95 38.21 35.38 40.89 33.08 43.72 30.96 46.69 29.05 49.79 27.35 53 25.87
 56.3 24.62 59.68 23.59 63.13 22.81 66.62 22.27 70.14 21.97 73.67 21.92 77.2 22.11 79.71 25.94
 76.82 35.28 72.12 38.52 66.81 39.02 61.65 40.34 56.76 42.44 52.25 45.28"/>
<polygon id="G1Gear" data-id="0" class="gear" fill="none" fill-opacity="0.2" stroke="#000"  stroke-miterlimit="10"
points =" 90.33 39.46 93.22 30.12 97.46 28.38 100.48 30.22 103.36 32.25 106.1 34.49 108.67 36.91 111.07 39.5
 113.29 42.26 115.3 45.16 117.11 48.19 118.71 51.34 120.08 54.6 121.22 57.94 122.12 61.36 119.26 64.93
 109.48 65.07 104.95 61.6 102.84 56.71 99.99 52.2 96.47 48.2 92.38 44.79"/>
<circle id="G1_sh" cx="72.65" cy="72.65" r="20" stroke="#000"  fill="none"/>
<polygon id="G2Gear" data-id="0" class="gear" fill="none" fill-opacity="0.2" stroke="#000"  stroke-miterlimit="10"
points =" 146.31 72.32 146.33 76.07 146.17 76.36 146.01 76.57 145.85 76.75 145.68 76.9 145.34 77.15 144.99 77.34
 144.63 77.51 144.27 77.64 143.54 77.83 142.8 77.95 142.04 78 141.28 78 140.54 78.14 139.84 78.57
 139.16 79.04 138.49 79.57 137.84 80.13 137.2 80.74 136.58 81.39 136.12 81.91 138.1 87.88 138.78 88.01
 139.67 88.16 140.55 88.26 141.41 88.33 142.26 88.35 143.09 88.32 143.9 88.24 144.57 87.91 145.18 87.45
 145.82 87.04 146.49 86.69 147.19 86.41 147.56 86.3 147.94 86.22 148.34 86.17 148.76 86.16 148.99 86.18
 149.22 86.22 149.48 86.29 149.77 86.43 152.01 89.45 152.27 89.79 152.55 90.13 154.98 93 155.04 93.31
 155.06 93.58 155.04 93.82 155.01 94.05 154.91 94.46 154.77 94.83 154.6 95.19 154.41 95.52 153.97 96.14
 153.48 96.71 152.93 97.23 152.35 97.72 151.87 98.31 151.61 99.08 151.4 99.88 151.22 100.71 151.09 101.56
 150.99 102.44 150.93 103.34 150.91 104.03 156.26 107.33 156.87 107 157.64 106.54 158.38 106.05 159.09 105.55
 159.75 105.01 160.37 104.46 160.94 103.88 161.25 103.2 161.42 102.45 161.64 101.73 161.93 101.03 162.28 100.36
 162.49 100.04 162.73 99.73 163 99.44 163.32 99.16 163.51 99.03 163.72 98.91 163.96 98.8 164.28 98.72
 167.93 99.6 168.35 99.69 168.78 99.77 172.48 100.4 172.74 100.6 172.92 100.8 173.06 100.99 173.18 101.18
 173.37 101.56 173.5 101.94 173.6 102.32 173.67 102.7 173.73 103.45 173.72 104.21 173.64 104.96 173.5 105.71
 173.52 106.47 173.81 107.22 174.16 107.97 174.56 108.72 175.01 109.47 175.5 110.2 176.03 110.93 176.46 111.47
 182.68 110.55 182.93 109.91 183.23 109.06 183.48 108.21 183.7 107.37 183.86 106.54 183.98 105.72 184.05 104.91
 183.84 104.19 183.49 103.5 183.2 102.81 182.97 102.09 182.81 101.35 182.77 100.97 182.75 100.58 182.77 100.18
 182.84 99.76 182.9 99.54 182.98 99.31 183.1 99.07 183.28 98.81 186.64 97.13 187.03 96.93 187.41 96.72
 190.65 94.82 190.98 94.81 191.24 94.84 191.48 94.9 191.69 94.97 192.08 95.14 192.42 95.35 192.74 95.57
 193.04 95.82 193.57 96.36 194.04 96.94 194.47 97.57 194.85 98.23 195.34 98.8 196.05 99.19 196.81 99.54
 197.59 99.86 198.41 100.14 199.26 100.39 200.14 100.61 200.81 100.75 204.99 96.04 204.77 95.39 204.45 94.55
 204.1 93.73 203.72 92.96 203.32 92.21 202.88 91.51 202.41 90.84 201.78 90.42 201.08 90.12 200.41 89.78
 199.77 89.37 199.17 88.91 198.89 88.64 198.63 88.36 198.39 88.04 198.17 87.67 198.07 87.47 197.99 87.24
 197.93 86.98 197.9 86.66 199.4 83.22 199.56 82.81 199.72 82.41 200.98 78.87 201.23 78.65 201.45 78.51
 201.67 78.4 201.87 78.31 202.28 78.2 202.68 78.13 203.07 78.1 203.45 78.1 204.2 78.17 204.94 78.31
 205.67 78.52 206.39 78.79 207.13 78.91 207.93 78.74 208.73 78.53 209.54 78.27 210.35 77.96 211.16 77.6
 211.97 77.21 212.57 76.88 212.75 70.59 212.16 70.23 211.38 69.79 210.59 69.39 209.8 69.04 209.01 68.73
 208.22 68.47 207.43 68.26 206.68 68.34 205.95 68.57 205.21 68.73 204.47 68.84 203.71 68.86 203.33 68.84
 202.94 68.79 202.55 68.7 202.15 68.56 201.94 68.47 201.73 68.34 201.52 68.19 201.29 67.96 200.22 64.36
 200.09 63.94 199.95 63.53 198.64 60.01 198.69 59.69 198.77 59.43 198.86 59.21 198.97 59.01 199.21 58.66
 199.47 58.35 199.75 58.08 200.04 57.83 200.66 57.4 201.32 57.04 202.01 56.73 202.73 56.47 203.38 56.08
 203.88 55.45 204.36 54.77 204.81 54.05 205.23 53.29 205.62 52.5 205.99 51.67 206.24 51.03 202.34 46.1
 201.66 46.2 200.77 46.37 199.91 46.57 199.08 46.81 198.27 47.08 197.5 47.39 196.77 47.74 196.24 48.28
 195.83 48.92 195.37 49.52 194.86 50.08 194.3 50.59 193.99 50.82 193.66 51.03 193.3 51.21 192.91 51.36
 192.69 51.42 192.45 51.46 192.19 51.48 191.86 51.45 188.73 49.38 188.36 49.15 187.99 48.92 184.73 47.06
 184.56 46.79 184.45 46.54 184.38 46.31 184.34 46.09 184.29 45.67 184.3 45.27 184.33 44.88 184.4 44.5
 184.6 43.77 184.87 43.06 185.2 42.38 185.58 41.72 185.83 41.01 185.81 40.2 185.74 39.37 185.62 38.53
 185.45 37.68 185.25 36.82 185 35.96 184.78 35.3 178.62 34.04 178.16 34.55 177.59 35.25 177.06 35.96
 176.58 36.68 176.13 37.4 175.74 38.13 175.4 38.87 175.35 39.62 175.44 40.38 175.48 41.14 175.45 41.89
 175.34 42.64 175.26 43.01 175.14 43.39 174.98 43.76 174.78 44.13 174.65 44.31 174.49 44.5 174.3 44.68
 174.03 44.87 170.3 45.29 169.87 45.35 169.44 45.42 165.75 46.09 165.44 45.99 165.2 45.87 165 45.74
 164.82 45.6 164.52 45.3 164.26 44.99 164.04 44.67 163.85 44.34 163.53 43.65 163.28 42.94 163.1 42.2
 162.97 41.45 162.7 40.75 162.16 40.14 161.58 39.55 160.95 38.98 160.27 38.44 159.56 37.91 158.81 37.41
 158.23 37.05 152.69 40.04 152.68 40.73 152.69 41.63 152.74 42.51 152.82 43.37 152.95 44.21 153.12 45.03
 153.34 45.81 153.78 46.42 154.34 46.94 154.85 47.5 155.32 48.09 155.72 48.73 155.89 49.08 156.04 49.44
 156.16 49.82 156.24 50.24 156.26 50.46 156.26 50.7 156.23 50.97 156.14 51.28 153.56 54.01 153.27 54.33
 152.98 54.66 150.58 57.55 150.28 57.67 150.02 57.73 149.78 57.76 149.55 57.76 149.13 57.73 148.74 57.66
 148.36 57.56 148 57.43 147.31 57.1 146.67 56.72 146.06 56.27 145.47 55.78 144.81 55.41 144.01 55.29
 143.18 55.22 142.33 55.19 141.47 55.2 140.59 55.26 139.69 55.35 139.01 55.45 136.69 61.3 137.12 61.84
 137.71 62.53 138.31 63.17 138.94 63.77 139.57 64.33 140.23 64.85 140.89 65.31 141.63 65.49 142.39 65.53
 143.14 65.63 143.88 65.79 144.6 66.02 144.95 66.17 145.29 66.35 145.63 66.57 145.96 66.84 146.12 67
 146.28 67.18 146.42 67.4 146.56 67.7 146.33 71.45 146.32 71.88"/>
<circle id="G2_sh" cx="173.9" cy="72.65" r="20" stroke="#000"  fill="none"/>
</svg>
