  0
SECTION
  2
HEADER
  9
$ACADVER
  1
AC1014
  9
$HANDSEED
  5
FFFF
  9
$MEASUREMENT
 70
     1
  0
ENDSEC
  0
SECTION
  2
TABLES
  0
TABLE
  2
VPORT
  5
8
330
0
100
AcDbSymbolTable
 70
     4
  0
VPORT
  5
2E
330
8
100
AcDbSymbolTableRecord
100
AcDbViewportTableRecord
  2
*ACTIVE
 70
     0
 10
0.0
 20
0.0
 11
1.0
 21
1.0
 12
210.0
 22
148.5
 13
0.0
 23
0.0
 14
10.0
 24
10.0
 15
10.0
 25
10.0
 16
0.0
 26
0.0
 36
1.0
 17
0.0
 27
0.0
 37
0.0
 40
341.0
 41
1.24
 42
50.0
 43
0.0
 44
0.0
 50
0.0
 51
0.0
 71
     0
 72
   100
 73
     1
 74
     3
 75
     0
 76
     0
 77
     0
 78
     0
  0
ENDTAB
  0
TABLE
  2
LTYPE
  5
5
330
0
100
AcDbSymbolTable
 70
     1
  0
LTYPE
  5
14
330
5
100
AcDbSymbolTableRecord
100
AcDbLinetypeTableRecord
  2
BYBLOCK
 70
     0
  3

 72
    65
 73
     0
 40
0.0
  0
LTYPE
  5
15
330
5
100
AcDbSymbolTableRecord
100
AcDbLinetypeTableRecord
  2
BYLAYER
 70
     0
  3

 72
    65
 73
     0
 40
0.0
  0
LTYPE
  5
16
330
5
100
AcDbSymbolTableRecord
100
AcDbLinetypeTableRecord
  2
CONTINUOUS
 70
     0
  3
Solid line
 72
    65
 73
     0
 40
0.0
  0
ENDTAB
  0
TABLE
  2
LAYER
  5
2
100
AcDbSymbolTable
 70
2
  0
LAYER
  5
50
100
AcDbSymbolTableRecord
100
AcDbLayerTableRecord
  2
0
 70
0
  6
CONTINUOUS
  0
LAYER
  5
51
100
AcDbSymbolTableRecord
100
AcDbLayerTableRecord
  2
Layer_1
 70
0
  6
CONTINUOUS
  0
ENDTAB
  0
TABLE
  2
STYLE
  5
3
330
0
100
AcDbSymbolTable
 70
     1
  0
STYLE
  5
11
330
3
100
AcDbSymbolTableRecord
100
AcDbTextStyleTableRecord
  2
STANDARD
 70
     0
 40
0.0
 41
1.0
 50
0.0
 71
     0
 42
2.5
  3
txt
  4

  0
ENDTAB
  0
TABLE
  2
VIEW
  5
6
330
0
100
AcDbSymbolTable
 70
     0
  0
ENDTAB
  0
TABLE
  2
UCS
  5
7
330
0
100
AcDbSymbolTable
 70
     0
  0
ENDTAB
  0
TABLE
  2
APPID
  5
9
330
0
100
AcDbSymbolTable
 70
     2
  0
APPID
  5
12
330
9
100
AcDbSymbolTableRecord
100
AcDbRegAppTableRecord
  2
ACAD
 70
     0
  0
ENDTAB
  0
TABLE
  2
DIMSTYLE
  5
A
330
0
100
AcDbSymbolTable
 70
     1
  0
DIMSTYLE
105
27
330
A
100
AcDbSymbolTableRecord
100
AcDbDimStyleTableRecord
  2
ISO-25
 70
     0
  3

  4

  5

  6

  7

 40
1.0
 41
2.5
 42
0.625
 43
3.75
 44
1.25
 45
0.0
 46
0.0
 47
0.0
 48
0.0
140
2.5
141
2.5
142
0.0
143
0.03937007874016
144
1.0
145
0.0
146
1.0
147
0.625
 71
     0
 72
     0
 73
     0
 74
     0
 75
     0
 76
     0
 77
     1
 78
     8
170
     0
171
     3
172
     1
173
     0
174
     0
175
     0
176
     0
177
     0
178
     0
270
     2
271
     2
272
     2
273
     2
274
     3
340
11
275
     0
280
     0
281
     0
282
     0
283
     0
284
     8
285
     0
286
     0
287
     3
288
     0
  0
ENDTAB
  0
TABLE
  2
BLOCK_RECORD
  5
1
330
0
100
AcDbSymbolTable
 70
     1
  0
BLOCK_RECORD
  5
1F
330
1
100
AcDbSymbolTableRecord
100
AcDbBlockTableRecord
  2
*MODEL_SPACE
  0
BLOCK_RECORD
  5
1B
330
1
100
AcDbSymbolTableRecord
100
AcDbBlockTableRecord
  2
*PAPER_SPACE
  0
ENDTAB
  0
ENDSEC
  0
SECTION
  2
BLOCKS
  0
BLOCK
  5
20
330
1F
100
AcDbEntity
  8
0
100
AcDbBlockBegin
  2
*MODEL_SPACE
 70
     0
 10
0.0
 20
0.0
 30
0.0
  3
*MODEL_SPACE
  1

  0
ENDBLK
  5
21
330
1F
100
AcDbEntity
  8
0
100
AcDbBlockEnd
  0
BLOCK
  5
1C
330
1B
100
AcDbEntity
 67
     1
  8
0
100
AcDbBlockBegin
  2
*PAPER_SPACE
  1

  0
ENDBLK
  5
1D
330
1B
100
AcDbEntity
 67
     1
  8
0
100
AcDbBlockEnd
  0
ENDSEC
  0
SECTION
  2
ENTITIES
  0
LWPOLYLINE
  5
100
100
AcDbEntity
  8
Layer_1
 62
7
100
AcDbPolyline
 90
12
 70
0
 10
1.406843
 20
7.406088
 30
0.0
 10
0.903925
 20
6.903170
 30
0.0
 10
0.978371
 20
6.828724
 30
0.0
 10
1.190911
 20
7.041265
 30
0.0
 10
1.242010
 20
6.990166
 30
0.0
 10
1.297941
 20
7.046098
 30
0.0
 10
1.246843
 20
7.097197
 30
0.0
 10
1.425357
 20
7.275710
 30
0.0
 10
1.476455
 20
7.224612
 30
0.0
 10
1.532387
 20
7.280543
 30
0.0
 10
1.406843
 20
7.406088
 30
0.0
 10
1.406843
 20
7.406088
 30
0.0
  0
LWPOLYLINE
  5
101
100
AcDbEntity
  8
Layer_1
 62
7
100
AcDbPolyline
 90
31
 70
0
 10
1.605507
 20
7.204851
 30
0.0
 10
1.548172
 20
7.147516
 30
0.0
 10
1.568386
 20
7.112551
 30
0.0
 10
1.577444
 20
7.078488
 30
0.0
 10
1.570476
 20
7.030065
 30
0.0
 10
1.538740
 20
6.984515
 30
0.0
 10
1.493007
 20
6.952597
 30
0.0
 10
1.444065
 20
6.945109
 30
0.0
 10
1.410002
 20
6.954167
 30
0.0
 10
1.375037
 20
6.974381
 30
0.0
 10
1.310726
 20
6.910069
 30
0.0
 10
1.325147
 20
6.874054
 30
0.0
 10
1.326288
 20
6.822885
 30
0.0
 10
1.311155
 20
6.753967
 30
0.0
 10
1.252533
 20
6.554562
 30
0.0
 10
1.332514
 20
6.474581
 30
0.0
 10
1.394409
 20
6.687550
 30
0.0
 10
1.415378
 20
6.799960
 30
0.0
 10
1.412572
 20
6.842837
 30
0.0
 10
1.400606
 20
6.878030
 30
0.0
 10
1.458064
 20
6.854431
 30
0.0
 10
1.514068
 20
6.851487
 30
0.0
 10
1.567692
 20
6.868628
 30
0.0
 10
1.617239
 20
6.906015
 30
0.0
 10
1.648422
 20
6.942998
 30
0.0
 10
1.669208
 20
6.981189
 30
0.0
 10
1.679601
 20
7.020595
 30
0.0
 10
1.679602
 20
7.061221
 30
0.0
 10
1.656731
 20
7.131033
 30
0.0
 10
1.605507
 20
7.204851
 30
0.0
 10
1.605507
 20
7.204851
 30
0.0
  0
LWPOLYLINE
  5
102
100
AcDbEntity
  8
Layer_1
 62
7
100
AcDbPolyline
 90
32
 70
0
 10
2.286003
 20
6.540725
 30
0.0
 10
2.229721
 20
6.484442
 30
0.0
 10
2.262312
 20
6.415830
 30
0.0
 10
2.269126
 20
6.341047
 30
0.0
 10
2.259788
 20
6.290120
 30
0.0
 10
2.239486
 20
6.240124
 30
0.0
 10
2.208230
 20
6.191059
 30
0.0
 10
2.166033
 20
6.142927
 30
0.0
 10
2.118056
 20
6.100885
 30
0.0
 10
2.069115
 20
6.069753
 30
0.0
 10
2.019201
 20
6.049533
 30
0.0
 10
1.968303
 20
6.040224
 30
0.0
 10
1.893501
 20
6.047018
 30
0.0
 10
1.824869
 20
6.079590
 30
0.0
 10
1.768586
 20
6.023307
 30
0.0
 10
1.819596
 20
5.988148
 30
0.0
 10
1.872710
 20
5.963111
 30
0.0
 10
1.927939
 20
5.948274
 30
0.0
 10
1.985297
 20
5.943717
 30
0.0
 10
2.054130
 20
5.951935
 30
0.0
 10
2.120276
 20
5.974794
 30
0.0
 10
2.183742
 20
6.012292
 30
0.0
 10
2.244532
 20
6.064428
 30
0.0
 10
2.296801
 20
6.125351
 30
0.0
 10
2.334354
 20
6.188872
 30
0.0
 10
2.357184
 20
6.254989
 30
0.0
 10
2.365282
 20
6.323702
 30
0.0
 10
2.360849
 20
6.381184
 30
0.0
 10
2.346103
 20
6.436504
 30
0.0
 10
2.321128
 20
6.489679
 30
0.0
 10
2.286003
 20
6.540725
 30
0.0
 10
2.286003
 20
6.540725
 30
0.0
  0
LWPOLYLINE
  5
103
100
AcDbEntity
  8
Layer_1
 62
7
100
AcDbPolyline
 90
32
 70
0
 10
2.211480
 20
6.615092
 30
0.0
 10
2.160432
 20
6.650127
 30
0.0
 10
2.107269
 20
6.675089
 30
0.0
 10
2.051974
 20
6.689892
 30
0.0
 10
1.994535
 20
6.694449
 30
0.0
 10
1.925822
 20
6.686351
 30
0.0
 10
1.859705
 20
6.663521
 30
0.0
 10
1.796184
 20
6.625968
 30
0.0
 10
1.735261
 20
6.573699
 30
0.0
 10
1.682998
 20
6.512782
 30
0.0
 10
1.645458
 20
6.449275
 30
0.0
 10
1.622642
 20
6.383171
 30
0.0
 10
1.614550
 20
6.314464
 30
0.0
 10
1.619224
 20
6.257142
 30
0.0
 10
1.634104
 20
6.201925
 30
0.0
 10
1.659115
 20
6.148811
 30
0.0
 10
1.694180
 20
6.097792
 30
0.0
 10
1.750540
 20
6.154153
 30
0.0
 10
1.718175
 20
6.222659
 30
0.0
 10
1.711057
 20
6.297471
 30
0.0
 10
1.720366
 20
6.348368
 30
0.0
 10
1.740587
 20
6.398282
 30
0.0
 10
1.771718
 20
6.447224
 30
0.0
 10
1.813761
 20
6.495200
 30
0.0
 10
1.861892
 20
6.537398
 30
0.0
 10
1.910957
 20
6.568653
 30
0.0
 10
1.960953
 20
6.588955
 30
0.0
 10
2.011880
 20
6.598294
 30
0.0
 10
2.086671
 20
6.591156
 30
0.0
 10
2.155158
 20
6.558771
 30
0.0
 10
2.211480
 20
6.615092
 30
0.0
 10
2.211480
 20
6.615092
 30
0.0
  0
LWPOLYLINE
  5
104
100
AcDbEntity
  8
Layer_1
 62
7
100
AcDbPolyline
 90
54
 70
0
 10
2.644272
 20
5.306295
 30
0.0
 10
2.779352
 20
5.441375
 30
0.0
 10
2.657743
 20
5.562985
 30
0.0
 10
2.713661
 20
5.618903
 30
0.0
 10
2.908974
 20
5.423590
 30
0.0
 10
2.693048
 20
5.207665
 30
0.0
 10
2.623130
 20
5.228401
 30
0.0
 10
2.555527
 20
5.260297
 30
0.0
 10
2.491205
 20
5.303397
 30
0.0
 10
2.430456
 20
5.357072
 30
0.0
 10
2.373762
 20
5.422357
 30
0.0
 10
2.332659
 20
5.489229
 30
0.0
 10
2.307148
 20
5.557689
 30
0.0
 10
2.297229
 20
5.627737
 30
0.0
 10
2.303364
 20
5.697395
 30
0.0
 10
2.325311
 20
5.764716
 30
0.0
 10
2.363070
 20
5.829698
 30
0.0
 10
2.416640
 20
5.892344
 30
0.0
 10
2.479412
 20
5.946041
 30
0.0
 10
2.544437
 20
5.983842
 30
0.0
 10
2.611715
 20
6.005746
 30
0.0
 10
2.681247
 20
6.011755
 30
0.0
 10
2.751443
 20
6.001983
 30
0.0
 10
2.820008
 20
5.976578
 30
0.0
 10
2.886944
 20
5.935538
 30
0.0
 10
2.952249
 20
5.878865
 30
0.0
 10
3.001638
 20
5.823412
 30
0.0
 10
3.042200
 20
5.764659
 30
0.0
 10
3.073920
 20
5.702960
 30
0.0
 10
3.096043
 20
5.639403
 30
0.0
 10
3.023618
 20
5.566979
 30
0.0
 10
3.009098
 20
5.637586
 30
0.0
 10
2.984082
 20
5.702856
 30
0.0
 10
2.948579
 20
5.762614
 30
0.0
 10
2.902595
 20
5.816682
 30
0.0
 10
2.852020
 20
5.860815
 30
0.0
 10
2.801267
 20
5.892240
 30
0.0
 10
2.750336
 20
5.910959
 30
0.0
 10
2.699228
 20
5.916971
 30
0.0
 10
2.648212
 20
5.910131
 30
0.0
 10
2.597191
 20
5.890664
 30
0.0
 10
2.546165
 20
5.858571
 30
0.0
 10
2.495134
 20
5.813850
 30
0.0
 10
2.450561
 20
5.762966
 30
0.0
 10
2.418573
 20
5.712045
 30
0.0
 10
2.399169
 20
5.661088
 30
0.0
 10
2.392350
 20
5.610093
 30
0.0
 10
2.398362
 20
5.558985
 30
0.0
 10
2.417080
 20
5.508054
 30
0.0
 10
2.448506
 20
5.457301
 30
0.0
 10
2.492639
 20
5.406726
 30
0.0
 10
2.569089
 20
5.342403
 30
0.0
 10
2.644272
 20
5.306295
 30
0.0
 10
2.644272
 20
5.306295
 30
0.0
  0
LWPOLYLINE
  5
105
100
AcDbEntity
  8
Layer_1
 62
7
100
AcDbPolyline
 90
14
 70
0
 10
3.372830
 20
5.440093
 30
0.0
 10
3.720708
 20
5.092215
 30
0.0
 10
3.663442
 20
5.034950
 30
0.0
 10
3.390004
 20
5.308387
 30
0.0
 10
3.241113
 20
5.159496
 30
0.0
 10
3.503127
 20
4.897482
 30
0.0
 10
3.445861
 20
4.840217
 30
0.0
 10
3.183847
 20
5.102231
 30
0.0
 10
3.001607
 20
4.919991
 30
0.0
 10
3.281679
 20
4.639919
 30
0.0
 10
3.224413
 20
4.582653
 30
0.0
 10
2.869901
 20
4.937165
 30
0.0
 10
3.372830
 20
5.440093
 30
0.0
 10
3.372830
 20
5.440093
 30
0.0
  0
LWPOLYLINE
  5
106
100
AcDbEntity
  8
Layer_1
 62
7
100
AcDbPolyline
 90
12
 70
0
 10
3.937762
 20
4.875168
 30
0.0
 10
3.434845
 20
4.372250
 30
0.0
 10
3.509290
 20
4.297804
 30
0.0
 10
3.721831
 20
4.510345
 30
0.0
 10
3.776554
 20
4.455621
 30
0.0
 10
3.832486
 20
4.511553
 30
0.0
 10
3.777763
 20
4.566277
 30
0.0
 10
3.956276
 20
4.744790
 30
0.0
 10
4.011000
 20
4.690067
 30
0.0
 10
4.066932
 20
4.745999
 30
0.0
 10
3.937762
 20
4.875168
 30
0.0
 10
3.937762
 20
4.875168
 30
0.0
  0
LWPOLYLINE
  5
107
100
AcDbEntity
  8
Layer_1
 62
7
100
AcDbPolyline
 90
31
 70
0
 10
4.139779
 20
4.669955
 30
0.0
 10
4.082054
 20
4.612230
 30
0.0
 10
4.100115
 20
4.579503
 30
0.0
 10
4.108364
 20
4.547568
 30
0.0
 10
4.101396
 20
4.499145
 30
0.0
 10
4.069660
 20
4.453595
 30
0.0
 10
4.023927
 20
4.421677
 30
0.0
 10
3.974985
 20
4.414189
 30
0.0
 10
3.943050
 20
4.422439
 30
0.0
 10
3.910323
 20
4.440499
 30
0.0
 10
3.844140
 20
4.374316
 30
0.0
 10
3.856067
 20
4.343134
 30
0.0
 10
3.857208
 20
4.291965
 30
0.0
 10
3.842074
 20
4.223047
 30
0.0
 10
3.783453
 20
4.023641
 30
0.0
 10
3.863434
 20
3.943661
 30
0.0
 10
3.925290
 20
4.156669
 30
0.0
 10
3.946298
 20
4.269039
 30
0.0
 10
3.943491
 20
4.311917
 30
0.0
 10
3.931526
 20
4.347110
 30
0.0
 10
3.988984
 20
4.323510
 30
0.0
 10
4.044988
 20
4.320567
 30
0.0
 10
4.098612
 20
4.337708
 30
0.0
 10
4.148159
 20
4.375095
 30
0.0
 10
4.179342
 20
4.412078
 30
0.0
 10
4.200128
 20
4.450269
 30
0.0
 10
4.210521
 20
4.489675
 30
0.0
 10
4.210522
 20
4.530301
 30
0.0
 10
4.188596
 20
4.598228
 30
0.0
 10
4.139779
 20
4.669955
 30
0.0
 10
4.139779
 20
4.669955
 30
0.0
  0
LWPOLYLINE
  5
108
100
AcDbEntity
  8
Layer_1
 62
7
100
AcDbPolyline
 90
15
 70
0
 10
4.877440
 20
3.935483
 30
0.0
 10
4.988363
 20
3.824560
 30
0.0
 10
4.786520
 20
3.341908
 30
0.0
 10
5.269909
 20
3.543014
 30
0.0
 10
5.380832
 20
3.432091
 30
0.0
 10
4.877903
 20
2.929163
 30
0.0
 10
4.805306
 20
3.001760
 30
0.0
 10
5.246926
 20
3.443381
 30
0.0
 10
4.760106
 20
3.240317
 30
0.0
 10
4.685297
 20
3.315125
 30
0.0
 10
4.888361
 20
3.801946
 30
0.0
 10
4.446741
 20
3.360325
 30
0.0
 10
4.374512
 20
3.432554
 30
0.0
 10
4.877440
 20
3.935483
 30
0.0
 10
4.877440
 20
3.935483
 30
0.0
  0
LWPOLYLINE
  5
109
100
AcDbEntity
  8
Layer_1
 62
7
100
AcDbPolyline
 90
14
 70
0
 10
5.616301
 20
3.196622
 30
0.0
 10
5.964179
 20
2.848744
 30
0.0
 10
5.906913
 20
2.791479
 30
0.0
 10
5.633475
 20
3.064917
 30
0.0
 10
5.484584
 20
2.916026
 30
0.0
 10
5.746598
 20
2.654012
 30
0.0
 10
5.689332
 20
2.596746
 30
0.0
 10
5.427318
 20
2.858760
 30
0.0
 10
5.245078
 20
2.676520
 30
0.0
 10
5.525149
 20
2.396449
 30
0.0
 10
5.467883
 20
2.339183
 30
0.0
 10
5.113372
 20
2.693694
 30
0.0
 10
5.616301
 20
3.196622
 30
0.0
 10
5.616301
 20
3.196622
 30
0.0
  0
LWPOLYLINE
  5
10a
100
AcDbEntity
  8
Layer_1
 62
7
100
AcDbPolyline
 90
6
 70
0
 10
6.181222
 20
2.631701
 30
0.0
 10
6.255662
 20
2.557261
 30
0.0
 10
5.752734
 20
2.054333
 30
0.0
 10
5.678294
 20
2.128773
 30
0.0
 10
6.181222
 20
2.631701
 30
0.0
 10
6.181222
 20
2.631701
 30
0.0
  0
LWPOLYLINE
  5
10b
100
AcDbEntity
  8
Layer_1
 62
7
100
AcDbPolyline
 90
14
 70
0
 10
6.491131
 20
2.321792
 30
0.0
 10
6.839009
 20
1.973914
 30
0.0
 10
6.781743
 20
1.916648
 30
0.0
 10
6.508305
 20
2.190086
 30
0.0
 10
6.359414
 20
2.041195
 30
0.0
 10
6.621428
 20
1.779181
 30
0.0
 10
6.564163
 20
1.721915
 30
0.0
 10
6.302149
 20
1.983929
 30
0.0
 10
6.119909
 20
1.801689
 30
0.0
 10
6.399980
 20
1.521618
 30
0.0
 10
6.342714
 20
1.464352
 30
0.0
 10
5.988203
 20
1.818864
 30
0.0
 10
6.491131
 20
2.321792
 30
0.0
 10
6.491131
 20
2.321792
 30
0.0
  0
LWPOLYLINE
  5
10c
100
AcDbEntity
  8
Layer_1
 62
7
100
AcDbPolyline
 90
12
 70
0
 10
7.056052
 20
1.756881
 30
0.0
 10
6.553123
 20
1.253952
 30
0.0
 10
6.627537
 20
1.179483
 30
0.0
 10
6.840141
 20
1.392086
 30
0.0
 10
6.906121
 20
1.326106
 30
0.0
 10
6.962014
 20
1.381999
 30
0.0
 10
6.896034
 20
1.447980
 30
0.0
 10
7.074572
 20
1.626518
 30
0.0
 10
7.140553
 20
1.560538
 30
0.0
 10
7.196501
 20
1.616431
 30
0.0
 10
7.056052
 20
1.756881
 30
0.0
 10
7.056052
 20
1.756881
 30
0.0
  0
LWPOLYLINE
  5
10d
100
AcDbEntity
  8
Layer_1
 62
7
100
AcDbPolyline
 90
32
 70
0
 10
7.257466
 20
1.547309
 30
0.0
 10
7.201187
 20
1.491030
 30
0.0
 10
7.209730
 20
1.480116
 30
0.0
 10
7.226708
 20
1.429293
 30
0.0
 10
7.219707
 20
1.380842
 30
0.0
 10
7.187957
 20
1.335256
 30
0.0
 10
7.142206
 20
1.303341
 30
0.0
 10
7.093259
 20
1.295844
 30
0.0
 10
7.042437
 20
1.312822
 30
0.0
 10
7.031523
 20
1.321366
 30
0.0
 10
6.962786
 20
1.252629
 30
0.0
 10
6.974362
 20
1.224848
 30
0.0
 10
6.975464
 20
1.173640
 30
0.0
 10
6.960360
 20
1.104738
 30
0.0
 10
6.901766
 20
0.905308
 30
0.0
 10
6.981693
 20
0.825382
 30
0.0
 10
7.043594
 20
1.038316
 30
0.0
 10
7.064595
 20
1.150709
 30
0.0
 10
7.061784
 20
1.193649
 30
0.0
 10
7.049823
 20
1.228816
 30
0.0
 10
7.107314
 20
1.205224
 30
0.0
 10
7.163318
 20
1.202248
 30
0.0
 10
7.216896
 20
1.219391
 30
0.0
 10
7.266451
 20
1.256763
 30
0.0
 10
7.297649
 20
1.293750
 30
0.0
 10
7.318430
 20
1.331949
 30
0.0
 10
7.328848
 20
1.371361
 30
0.0
 10
7.328848
 20
1.411985
 30
0.0
 10
7.318375
 20
1.453988
 30
0.0
 10
7.297429
 20
1.497479
 30
0.0
 10
7.257466
 20
1.547309
 30
0.0
 10
7.257466
 20
1.547309
 30
0.0
  0
LWPOLYLINE
  5
10e
100
AcDbEntity
  8
Layer_1
 62
7
100
AcDbPolyline
 90
6
 70
0
 10
0.996513
 20
4.641507
 30
0.0
 10
1.061569
 20
4.576452
 30
0.0
 10
0.622044
 20
4.136927
 30
0.0
 10
0.556989
 20
4.201982
 30
0.0
 10
0.996513
 20
4.641507
 30
0.0
 10
0.996513
 20
4.641507
 30
0.0
  0
LWPOLYLINE
  5
10f
100
AcDbEntity
  8
Layer_1
 62
7
100
AcDbPolyline
 90
35
 70
0
 10
1.635714
 20
4.001718
 30
0.0
 10
1.670370
 20
3.958414
 30
0.0
 10
1.691966
 20
3.910875
 30
0.0
 10
1.700501
 20
3.859101
 30
0.0
 10
1.695975
 20
3.803093
 30
0.0
 10
1.672026
 20
3.743435
 30
0.0
 10
1.673245
 20
3.742216
 30
0.0
 10
1.736873
 20
3.765875
 30
0.0
 10
1.803970
 20
3.769874
 30
0.0
 10
1.874378
 20
3.747156
 30
0.0
 10
1.934368
 20
3.703064
 30
0.0
 10
1.970545
 20
3.658644
 30
0.0
 10
1.994270
 20
3.610190
 30
0.0
 10
2.005541
 20
3.557704
 30
0.0
 10
2.004360
 20
3.501185
 30
0.0
 10
1.990400
 20
3.467748
 30
0.0
 10
1.971420
 20
3.442275
 30
0.0
 10
1.929769
 20
3.411174
 30
0.0
 10
1.878415
 20
3.391470
 30
0.0
 10
1.817356
 20
3.383163
 30
0.0
 10
1.746594
 20
3.386253
 30
0.0
 10
1.345000
 20
3.413971
 30
0.0
 10
1.342565
 20
3.416406
 30
0.0
 10
1.317353
 20
3.847288
 30
0.0
 10
1.317942
 20
3.907527
 30
0.0
 10
1.327532
 20
3.959723
 30
0.0
 10
1.346121
 20
4.003876
 30
0.0
 10
1.373709
 20
4.039986
 30
0.0
 10
1.408214
 20
4.064396
 30
0.0
 10
1.449610
 20
4.075512
 30
0.0
 10
1.497899
 20
4.073332
 30
0.0
 10
1.553080
 20
4.057857
 30
0.0
 10
1.597405
 20
4.033403
 30
0.0
 10
1.635716
 20
4.001716
 30
0.0
 10
1.635714
 20
4.001718
 30
0.0
  0
LWPOLYLINE
  5
110
100
AcDbEntity
  8
Layer_1
 62
7
100
AcDbPolyline
 90
8
 70
0
 10
2.507561
 20
3.130459
 30
0.0
 10
2.572617
 20
3.065404
 30
0.0
 10
2.183138
 20
2.675925
 30
0.0
 10
2.417274
 20
2.441790
 30
0.0
 10
2.367227
 20
2.391744
 30
0.0
 10
2.068037
 20
2.690934
 30
0.0
 10
2.507561
 20
3.130459
 30
0.0
 10
2.507561
 20
3.130459
 30
0.0
  0
LWPOLYLINE
  5
111
100
AcDbEntity
  8
Layer_1
 62
7
100
AcDbPolyline
 90
6
 70
0
 10
2.951023
 20
2.686997
 30
0.0
 10
3.016078
 20
2.621942
 30
0.0
 10
2.576553
 20
2.182417
 30
0.0
 10
2.511498
 20
2.247473
 30
0.0
 10
2.951023
 20
2.686997
 30
0.0
 10
2.951023
 20
2.686997
 30
0.0
  0
LWPOLYLINE
  5
112
100
AcDbEntity
  8
Layer_1
 62
7
100
AcDbPolyline
 90
12
 70
0
 10
3.221862
 20
2.416158
 30
0.0
 10
3.309461
 20
2.328559
 30
0.0
 10
3.154969
 20
1.747664
 30
0.0
 10
3.522663
 20
2.115358
 30
0.0
 10
3.585786
 20
2.052234
 30
0.0
 10
3.146261
 20
1.612710
 30
0.0
 10
3.058662
 20
1.700309
 30
0.0
 10
3.213154
 20
2.281204
 30
0.0
 10
2.845460
 20
1.913510
 30
0.0
 10
2.782337
 20
1.976633
 30
0.0
 10
3.221862
 20
2.416158
 30
0.0
 10
3.221862
 20
2.416158
 30
0.0
  0
LWPOLYLINE
  5
113
100
AcDbEntity
  8
Layer_1
 62
7
100
AcDbPolyline
 90
34
 70
0
 10
3.784162
 20
1.853858
 30
0.0
 10
3.849540
 20
1.788480
 30
0.0
 10
3.582528
 20
1.521468
 30
0.0
 10
3.528741
 20
1.453672
 30
0.0
 10
3.508688
 20
1.391590
 30
0.0
 10
3.511348
 20
1.361883
 30
0.0
 10
3.522219
 20
1.331693
 30
0.0
 10
3.568597
 20
1.269859
 30
0.0
 10
3.630188
 20
1.223723
 30
0.0
 10
3.660319
 20
1.212912
 30
0.0
 10
3.690006
 20
1.210272
 30
0.0
 10
3.752087
 20
1.230326
 30
0.0
 10
3.819884
 20
1.284113
 30
0.0
 10
4.086896
 20
1.551125
 30
0.0
 10
4.152273
 20
1.485747
 30
0.0
 10
3.877901
 20
1.211375
 30
0.0
 10
3.834633
 20
1.173944
 30
0.0
 10
3.790789
 20
1.147613
 30
0.0
 10
3.746371
 20
1.132380
 30
0.0
 10
3.701377
 20
1.128248
 30
0.0
 10
3.656221
 20
1.135023
 30
0.0
 10
3.610992
 20
1.152837
 30
0.0
 10
3.565690
 20
1.181689
 30
0.0
 10
3.520317
 20
1.221579
 30
0.0
 10
3.480265
 20
1.267114
 30
0.0
 10
3.451252
 20
1.312577
 30
0.0
 10
3.433277
 20
1.357966
 30
0.0
 10
3.426341
 20
1.403284
 30
0.0
 10
3.430614
 20
1.448137
 30
0.0
 10
3.445947
 20
1.492455
 30
0.0
 10
3.472339
 20
1.536238
 30
0.0
 10
3.509791
 20
1.579486
 30
0.0
 10
3.784162
 20
1.853858
 30
0.0
 10
3.784162
 20
1.853858
 30
0.0
  0
LWPOLYLINE
  5
114
100
AcDbEntity
  8
Layer_1
 62
7
100
AcDbPolyline
 90
14
 70
0
 10
4.327784
 20
1.310237
 30
0.0
 10
4.397670
 20
1.240350
 30
0.0
 10
4.353766
 20
0.957481
 30
0.0
 10
4.637280
 20
1.000740
 30
0.0
 10
4.707166
 20
0.930854
 30
0.0
 10
4.341501
 20
0.874363
 30
0.0
 10
4.277947
 20
0.481023
 30
0.0
 10
4.208061
 20
0.550910
 30
0.0
 10
4.259735
 20
0.873111
 30
0.0
 10
3.936567
 20
0.822403
 30
0.0
 10
3.866359
 20
0.892612
 30
0.0
 10
4.272644
 20
0.955585
 30
0.0
 10
4.327784
 20
1.310237
 30
0.0
 10
4.327784
 20
1.310237
 30
0.0
  0
ENDSEC
  0
SECTION
  2
OBJECTS
  0
DICTIONARY
  5
C
330
0
100
AcDbDictionary
  3
ACAD_GROUP
350
D
  3
ACAD_MLINESTYLE
350
17
  0
DICTIONARY
  5
D
330
C
100
AcDbDictionary
  0
DICTIONARY
  5
1A
330
C
100
AcDbDictionary
  0
DICTIONARY
  5
17
330
C
100
AcDbDictionary
  3
STANDARD
350
18
  0
DICTIONARY
  5
19
330
C
100
AcDbDictionary
  0
ENDSEC
  0
EOF
