<?xml version="1.0" encoding="UTF-8" standalone="no"?>
<!-- Created with Inkscape (http://www.inkscape.org/) -->

<svg
   xmlns:osb="http://www.openswatchbook.org/uri/2009/osb"
   xmlns:dc="http://purl.org/dc/elements/1.1/"
   xmlns:cc="http://creativecommons.org/ns#"
   xmlns:rdf="http://www.w3.org/1999/02/22-rdf-syntax-ns#"
   xmlns:svg="http://www.w3.org/2000/svg"
   xmlns="http://www.w3.org/2000/svg"
   xmlns:sodipodi="http://sodipodi.sourceforge.net/DTD/sodipodi-0.dtd"
   xmlns:inkscape="http://www.inkscape.org/namespaces/inkscape"
   width="80mm"
   height="80mm"
   viewBox="0 0 283.46456 283.46456"
   id="svg2"
   version="1.1"
   inkscape:version="0.91 r13725"
   sodipodi:docname="Roger.svg">
  <sodipodi:namedview
     id="base"
     pagecolor="#ffffff"
     bordercolor="#666666"
     borderopacity="1.0"
     inkscape:pageopacity="0.0"
     inkscape:pageshadow="2"
     inkscape:zoom="2"
     inkscape:cx="185.1245"
     inkscape:cy="97.654776"
     inkscape:document-units="px"
     inkscape:current-layer="text4185"
     showgrid="true"
     inkscape:snap-grids="true"
     inkscape:window-width="1920"
     inkscape:window-height="1029"
     inkscape:window-x="0"
     inkscape:window-y="25"
     inkscape:window-maximized="1"
     inkscape:snap-bbox="true"
     inkscape:bbox-paths="true"
     inkscape:bbox-nodes="true"
     inkscape:snap-bbox-edge-midpoints="true"
     inkscape:snap-bbox-midpoints="true"
     inkscape:snap-global="false"
     inkscape:object-paths="true"
     inkscape:object-nodes="true"
     inkscape:snap-smooth-nodes="true"
     inkscape:snap-intersection-paths="true"
     showguides="false"
     fit-margin-top="0"
     fit-margin-left="0"
     fit-margin-right="0"
     fit-margin-bottom="0"
     inkscape:showpageshadow="true"
     borderlayer="false">
    <inkscape:grid
       originy="-495.70863"
       originx="957.04722"
       empopacity="0.25098039"
       empcolor="#2c2cff"
       opacity="0.25098039"
       color="#7c7cff"
       id="grid4136"
       type="xygrid" />
  </sodipodi:namedview>
  <defs
     id="defs4">
    <linearGradient
       osb:paint="gradient"
       id="linearGradient5786">
      <stop
         id="stop5788"
         offset="0"
         style="stop-color:#000000;stop-opacity:1;" />
      <stop
         id="stop5790"
         offset="1"
         style="stop-color:#000000;stop-opacity:0;" />
    </linearGradient>
    <linearGradient
       osb:paint="solid"
       id="linearGradient4316">
      <stop
         id="stop4318"
         offset="0"
         style="stop-color:#000000;stop-opacity:1;" />
    </linearGradient>
    <linearGradient
       osb:paint="solid"
       id="linearGradient4310">
      <stop
         id="stop4312"
         offset="0"
         style="stop-color:#000000;stop-opacity:1;" />
    </linearGradient>
  </defs>
  <metadata
     id="metadata7">
    <rdf:RDF>
      <cc:Work
         rdf:about="">
        <dc:format>image/svg+xml</dc:format>
        <dc:type
           rdf:resource="http://purl.org/dc/dcmitype/StillImage" />
        <dc:title></dc:title>
      </cc:Work>
    </rdf:RDF>
  </metadata>
  <g
     transform="translate(957.04725,-273.18901)"
     id="layer1"
     inkscape:groupmode="layer"
     inkscape:label="Layer 1">
    <g
       id="text4250"
       style="font-style:normal;font-weight:normal;font-size:10px;line-height:125%;font-family:sans-serif;letter-spacing:0px;word-spacing:0px;fill:#000000;fill-opacity:1;stroke:none;stroke-width:1px;stroke-linecap:butt;stroke-linejoin:miter;stroke-opacity:1">
      <g
         id="text4185"
         style="font-style:normal;font-weight:normal;font-size:36.15800095px;line-height:125%;font-family:sans-serif;text-align:center;letter-spacing:0px;word-spacing:0px;text-anchor:middle;fill:#000000;fill-opacity:1;stroke:none;stroke-width:1px;stroke-linecap:butt;stroke-linejoin:miter;stroke-opacity:1"
         transform="matrix(0.73958695,0.73958695,-0.67605303,0.67605303,-274.89593,492.37001)">
        <path
           inkscape:connector-curvature="0"
           id="path4194"
           transform="matrix(0.95608336,0,0,1.0459339,-915.01695,285.73765)"
           d="M369.83789 33.8125L369.83789 59.013672L373.56836 59.013672L373.56836 48.363281L376.12891 48.363281L376.12891 45.560547L373.56836 45.560547L373.56836 36.615234L376.12891 36.615234L376.12891 33.8125L369.83789 33.8125L369.83789 33.8125M379.85742 33.87695L379.85742 36.749997L381.2399 37.119573875L382.32031 37.746091L383.35894 39.133902125L383.70508 41.070309L383.35894 43.015855125L382.32031 44.429685L381.23988875 45.056193L379.85742 45.425778L379.85742 48.648435L381.12109 49.18945L382.43173 50.442920375L383.7793 52.548825L387.30664 59.013669L391.31445 59.013669L387.5293 52.12695L385.23828 48.785153L384.09366375 47.781184L382.91211 47.199216L384.943005 46.350887375L386.41992 45.021481L387.33398625 43.24845575L387.63867 41.070309L387.493337812 39.3624347344L387.05727 37.884744375L386.330359688 36.6370435781L385.3125 35.619138L382.99033125 34.443053875L379.85742 33.87695L379.85742 33.87695"
           style="font-style:normal;font-variant:normal;font-weight:normal;font-stretch:normal;font-family:sans-serif;-inkscape-font-specification:sans-serif;letter-spacing:4.18373585px" />
        <path
           inkscape:connector-curvature="0"
           id="path4196"
           transform="matrix(0.95608336,0,0,1.0459339,-915.01695,285.73765)"
           d="M413.54688 33.466797L413.54688 36.287109L416.082525 37.189624375L418.12695 38.892578L419.168943281 40.4025199062L419.91292125 42.16384025L420.359128594 44.1762482188L420.50781 46.439453L420.359128594 48.694861375L419.91292125 50.7010845L419.168943281 52.458327875L418.12695 53.966797L416.08252875 55.670731625L413.54688 56.574219L413.54688 59.394531L415.705836406 58.9973965156L417.66390625 58.293950875L419.419417969 57.2819085469L420.9707 55.958984L422.489402812 54.0284602813L423.57397 51.79845575L424.224579687 49.2688325938L424.44141 46.439453L424.224579687 43.60343675L423.57397 41.07103175L422.489402812 38.842466375L420.9707 36.917969L419.419415156 35.5888501875L417.66391375 34.5722395L415.705850469 33.8657005625L413.54688 33.466797L413.54688 33.466797M409.81641 33.470697L407.659619062 33.87190175L405.7021875 34.5785005L403.945909687 35.593014L402.39258 36.917963L400.87387875 38.842460375L399.789315 41.07102575L399.13870875 43.60343075L398.92188 46.439447L399.138704531 49.2751585156L399.78931125 51.806892125L400.873877344 54.0347859219L402.39258 55.958978L403.9459125 57.2780807813L405.7021725 58.2887065L407.65959375 58.9928664688L409.81641 59.392572L409.81641 56.568353L407.28907 55.662835125L405.23633 53.966791L404.194340937 52.458321875L403.4503625 50.7010785L403.004152813 48.694855375L402.85547 46.439447L403.004152813 44.1762422188L403.4503625 42.16383425L404.194340937 40.4025139063L405.23633 38.892572L407.28907 37.19750775L409.81641 36.292963L409.81641 33.470697L409.81641 33.470697"
           style="font-style:normal;font-variant:normal;font-weight:normal;font-stretch:normal;font-family:sans-serif;-inkscape-font-specification:sans-serif;letter-spacing:4.18373585px" />
        <path
           inkscape:connector-curvature="0"
           id="path4198"
           style="font-style:normal;font-variant:normal;font-weight:normal;font-stretch:normal;font-family:sans-serif;-inkscape-font-specification:sans-serif;letter-spacing:4.18373585px"
           d="M-481.47915 343.70223L-481.47915 336.62246L-487.30539 336.62246L-487.30539 333.69169L-477.94809 333.69169L-477.94809 345.00872L-480.11969 346.29755L-482.50315 347.23328L-485.07641 347.78942L-487.81739 347.9748L-490.739339375 347.749695625L-493.3258375 347.0743825L-495.576884375 345.948860625L-497.49248 344.37313L-499.014144375 342.386908125L-500.1010475 340.0475825L-500.753189375 337.355153125L-500.97057 334.30962L-500.753189375 331.257464375L-500.1010475 328.5628275L-499.014144375 326.225709375L-497.49248 324.24611L-495.576884375 322.662653125L-493.3258375 321.5316125L-490.739339375 320.852988125L-487.81739 320.62678L-485.3059275 320.7856775L-482.92688 321.26237L-480.6890725 322.04803L-478.63665 323.13383L-478.63665 326.92972L-480.6758325 325.4599125L-482.8386 324.40501L-485.1205475 323.7694225L-487.51725 323.55756L-489.785955 323.72638875L-491.75452 324.232875L-493.422945 325.07701875L-494.79123 326.25882L-495.849441875 327.77496375L-496.6053075 329.622145L-497.058826875 331.80036375L-497.21 334.30962L-497.058826875 336.811150625L-496.6053075 338.9838525L-495.849441875 340.827725625L-494.79123 342.34277L-493.422945 343.52457125L-491.75452 344.368715L-489.785955 344.87520125L-487.51725 345.04403L-484.14509 344.72623L-481.47915 343.70223L-481.47915 343.70223" />
        <path
           inkscape:connector-curvature="0"
           id="path4200"
           style="font-style:normal;font-variant:normal;font-weight:normal;font-stretch:normal;font-family:sans-serif;-inkscape-font-specification:sans-serif;letter-spacing:4.18373585px"
           d="M-467.23191 321.10348L-450.56533 321.10348L-450.56533 324.10487L-463.66554 324.10487L-463.66554 331.9085L-451.11264 331.9085L-451.11264 334.9099L-463.66554 334.9099L-463.66554 344.4614L-450.24753 344.4614L-450.24753 347.4628L-467.23191 347.4628L-467.23191 321.10348L-467.23191 321.10348" />
        <path
           inkscape:connector-curvature="0"
           id="path4202"
           transform="matrix(0.95608336,0,0,1.0459339,-915.01695,285.73765)"
           d="M496.66211 33.8125L496.66211 59.013672L500.39258 59.013672L500.39258 48.363281L503.13477 48.363281L503.13477 45.560547L500.39258 45.560547L500.39258 36.615234L503.13477 36.615234L503.13477 33.8125L496.66211 33.8125L496.66211 33.8125M506.86523 33.89258L506.86523 36.785158L508.13770875 37.152641L509.14453 37.746096L510.18316 39.133907125L510.5293 41.070314L510.18316 43.015860125L509.14453 44.42969L508.13769375 45.023131375L506.86523 45.390627L506.86523 48.707033L507.94531 49.189455L509.25594625 50.442925375L510.60352 52.54883L514.13086 59.013674L518.13867 59.013674L514.35156 52.126955L512.0625 48.785158L510.91788 47.781189L509.73633 47.199221L511.76722875 46.350892375L513.24414 45.021486L514.15821 43.24846075L514.46289 41.070314L514.317559219 39.3624397344L513.88149375 37.884749375L513.154583906 36.6370485781L512.13672 35.619143L509.8854625 34.466585375L506.86523 33.89258L506.86523 33.89258"
           style="font-style:normal;font-variant:normal;font-weight:normal;font-stretch:normal;font-family:sans-serif;-inkscape-font-specification:sans-serif;letter-spacing:4.18373585px" />
        <path
           inkscape:connector-curvature="0"
           id="path4204"
           style="font-style:normal;font-variant:normal;font-weight:normal;font-stretch:normal;font-family:sans-serif;-inkscape-font-specification:sans-serif;letter-spacing:4.18373585px"
           d="M-395.14711 321.10348L-389.83288 321.10348L-383.10622 339.04123L-376.34425 321.10348L-371.03001 321.10348L-371.03001 347.4628L-374.5081 347.4628L-374.5081 324.31673L-381.30538 342.39574L-384.8894 342.39574L-391.68668 324.31673L-391.68668 347.4628L-395.14711 347.4628L-395.14711 321.10348L-395.14711 321.10348" />
        <path
           inkscape:connector-curvature="0"
           id="path4206"
           style="font-style:normal;font-variant:normal;font-weight:normal;font-stretch:normal;font-family:sans-serif;-inkscape-font-specification:sans-serif;letter-spacing:4.18373585px"
           d="M-359.74886 321.10348L-343.08228 321.10348L-343.08228 324.10487L-356.18249 324.10487L-356.18249 331.9085L-343.62959 331.9085L-343.62959 334.9099L-356.18249 334.9099L-356.18249 344.4614L-342.76449 344.4614L-342.76449 347.4628L-359.74886 347.4628L-359.74886 321.10348L-359.74886 321.10348" />
        <path
           inkscape:connector-curvature="0"
           id="path4208"
           style="font-style:normal;font-variant:normal;font-weight:normal;font-stretch:normal;font-family:sans-serif;-inkscape-font-specification:sans-serif;letter-spacing:4.18373585px"
           d="M-332.68389 321.10348L-329.11752 321.10348L-329.11752 347.4628L-332.68389 347.4628L-332.68389 321.10348L-332.68389 321.10348" />
        <path
           inkscape:connector-curvature="0"
           id="path4210"
           style="font-style:normal;font-variant:normal;font-weight:normal;font-stretch:normal;font-family:sans-serif;-inkscape-font-specification:sans-serif;letter-spacing:4.18373585px"
           d="M-317.83637 321.10348L-301.16979 321.10348L-301.16979 324.10487L-314.27 324.10487L-314.27 331.9085L-301.7171 331.9085L-301.7171 334.9099L-314.27 334.9099L-314.27 344.4614L-300.852 344.4614L-300.852 347.4628L-317.83637 347.4628L-317.83637 321.10348L-317.83637 321.10348" />
        <path
           style="font-style:normal;font-variant:normal;font-weight:normal;font-stretch:normal;font-family:sans-serif;-inkscape-font-specification:sans-serif;letter-spacing:4.18373585px"
           d="M 250.01758 221.21289 L 232.19727 239.0332 L 234.83398 241.67188 L 242.36719 234.13867 L 244.70508 236.47656 L 246.68555 234.49609 L 244.34766 232.1582 L 250.67383 225.83203 L 253.01172 228.16992 L 254.99414 226.18945 L 250.01758 221.21289 z M 257.1543 228.63867 L 255.16016 230.63281 L 255.46289 231.01953 L 256.06445 232.82031 L 255.81641 234.53711 L 254.69141 236.15234 L 253.07031 237.2832 L 251.33594 237.54883 L 249.53516 236.94727 L 249.14844 236.64453 L 246.71289 239.08008 L 247.12305 240.06445 L 247.16211 241.87891 L 246.62695 244.32031 L 244.55078 251.38672 L 247.38281 254.21875 L 249.57617 246.67383 L 250.32031 242.69141 L 250.2207 241.16992 L 249.79688 239.92383 L 251.83398 240.75977 L 253.81836 240.86523 L 255.7168 240.25781 L 257.47266 238.93359 L 258.57812 237.62305 L 259.31445 236.26953 L 259.68359 234.87305 L 259.68359 233.43359 L 259.3125 231.94531 L 258.57031 230.4043 L 257.1543 228.63867 z "
           transform="matrix(0.67605303,-0.73958695,0.67605303,0.73958695,-609.34845,342.40681)"
           id="path4212" />
        <g
           transform="matrix(0.8739311,0,0,0.8739311,-52.446565,44.683142)"
           id="g4305">
          <path
             d="M-517.8661 411.49848L-514.29974 411.49848L-514.29974 437.8578L-517.8661 437.8578L-517.8661 411.49848L-517.8661 411.49848"
             style="font-style:normal;font-variant:normal;font-weight:normal;font-stretch:normal;font-family:sans-serif;-inkscape-font-specification:sans-serif;letter-spacing:4.18373585px"
             id="path4214"
             inkscape:connector-curvature="0" />
          <path
             d="M-482.80872 411.51613L-480.67182125 411.775441875L-478.776835 412.5533775L-477.12376125 413.849936875L-475.7126 415.66512L-474.73381 418.17217L-474.66701 418.17217L-473.5714425 415.5547775L-471.8419 413.4229L-469.2892975 411.9928225L-466.43639 411.51613L-464.227190625 411.76330375L-462.2487825 412.504825L-460.501165625 413.74069375L-458.98434 415.47091L-458.45046 416.8921625L-458.2725 418.22514L-458.561684375 420.40667L-459.4292375 422.53744L-460.875159375 424.61745L-462.89945 426.6467L-474.66701 437.8578L-474.80047 437.8578L-487.30211 425.69332L-488.937113125 423.86931L-490.1049725 422.01661L-490.805688125 420.13522L-491.03926 418.22514L-490.76258875 416.45850625L-489.932575 414.883875L-488.54921875 413.50124625L-486.61252 412.31062L-484.727265 411.7147525L-482.80864 411.51613L-482.80872 411.51613"
             style="font-style:normal;font-variant:normal;font-weight:normal;font-stretch:normal;font-family:sans-serif;-inkscape-font-specification:sans-serif;letter-spacing:4.18373585px"
             id="path4216"
             inkscape:connector-curvature="0" />
          <path
             d="M-435.02982 411.49848L-431.46345 411.49848L-431.46345 434.8564L-418.62807 434.8564L-418.62807 437.8578L-435.02982 437.8578L-435.02982 411.49848L-435.02982 411.49848"
             style="font-style:normal;font-variant:normal;font-weight:normal;font-stretch:normal;font-family:sans-serif;-inkscape-font-specification:sans-serif;letter-spacing:4.18373585px"
             id="path4218"
             inkscape:connector-curvature="0" />
          <path
             d="M-410.71907 411.49848L-407.15271 411.49848L-407.15271 437.8578L-410.71907 437.8578L-410.71907 411.49848L-410.71907 411.49848"
             style="font-style:normal;font-variant:normal;font-weight:normal;font-stretch:normal;font-family:sans-serif;-inkscape-font-specification:sans-serif;letter-spacing:4.18373585px"
             id="path4220"
             inkscape:connector-curvature="0" />
          <path
             d="M-395.87155 411.49848L-391.06932 411.49848L-379.38153 433.54991L-379.38153 411.49848L-375.92109 411.49848L-375.92109 437.8578L-380.72333 437.8578L-392.41112 415.80636L-392.41112 437.8578L-395.87155 437.8578L-395.87155 411.49848L-395.87155 411.49848"
             style="font-style:normal;font-variant:normal;font-weight:normal;font-stretch:normal;font-family:sans-serif;-inkscape-font-specification:sans-serif;letter-spacing:4.18373585px"
             id="path4222"
             inkscape:connector-curvature="0" />
          <path
             d="M-365.04601 411.49848L-361.46199 411.49848L-361.46199 427.51181L-361.0779875 431.1576275L-359.92598 433.62054L-359.038801875 434.4315775L-357.9132775 435.01089L-354.94719 435.47434L-351.9943475 435.01089L-350.872134375 434.4315775L-349.98606 433.62054L-348.8340525 431.1576275L-348.45005 427.51181L-348.45005 411.49848L-344.86603 411.49848L-344.86603 427.95319L-345.02603125 430.37306625L-345.506035 432.477355L-346.30604125 434.26605625L-347.42605 435.73917L-348.84950625 436.890070625L-350.577515 437.7121425L-352.61007625 438.205385625L-354.94719 438.3698L-357.2931375 438.205385625L-359.33453 437.7121425L-361.0713675 436.890070625L-362.50365 435.73917L-363.6159325 434.26605625L-364.41042 432.477355L-364.8871125 430.37306625L-365.04601 427.95319L-365.04601 411.49848L-365.04601 411.49848"
             style="font-style:normal;font-variant:normal;font-weight:normal;font-stretch:normal;font-family:sans-serif;-inkscape-font-specification:sans-serif;letter-spacing:4.18373585px"
             id="path4224"
             inkscape:connector-curvature="0" />
          <path
             d="M-335.24446 411.49848L-331.41327 411.49848L-324.86316 421.29715L-318.27774 411.49848L-314.44655 411.49848L-322.92108 424.15731L-313.88158 437.8578L-317.71277 437.8578L-325.12799 426.6467L-332.59617 437.8578L-336.44502 437.8578L-327.03476 423.78655L-335.24446 411.49848L-335.24446 411.49848"
             style="font-style:normal;font-variant:normal;font-weight:normal;font-stretch:normal;font-family:sans-serif;-inkscape-font-specification:sans-serif;letter-spacing:4.18373585px"
             id="path4226"
             inkscape:connector-curvature="0" />
        </g>
      </g>
    </g>
  </g>
</svg>
