  0
SECTION
  2
HEADER
  9
$ACADVER
  1
AC1014
  9
$HANDSEED
  5
FFFF
  9
$MEASUREMENT
 70
     1
  0
ENDSEC
  0
SECTION
  2
TABLES
  0
TABLE
  2
VPORT
  5
8
330
0
100
AcDbSymbolTable
 70
     4
  0
VPORT
  5
2E
330
8
100
AcDbSymbolTableRecord
100
AcDbViewportTableRecord
  2
*ACTIVE
 70
     0
 10
0.0
 20
0.0
 11
1.0
 21
1.0
 12
210.0
 22
148.5
 13
0.0
 23
0.0
 14
10.0
 24
10.0
 15
10.0
 25
10.0
 16
0.0
 26
0.0
 36
1.0
 17
0.0
 27
0.0
 37
0.0
 40
341.0
 41
1.24
 42
50.0
 43
0.0
 44
0.0
 50
0.0
 51
0.0
 71
     0
 72
   100
 73
     1
 74
     3
 75
     0
 76
     0
 77
     0
 78
     0
  0
ENDTAB
  0
TABLE
  2
LTYPE
  5
5
330
0
100
AcDbSymbolTable
 70
     1
  0
LTYPE
  5
14
330
5
100
AcDbSymbolTableRecord
100
AcDbLinetypeTableRecord
  2
BYBLOCK
 70
     0
  3

 72
    65
 73
     0
 40
0.0
  0
LTYPE
  5
15
330
5
100
AcDbSymbolTableRecord
100
AcDbLinetypeTableRecord
  2
BYLAYER
 70
     0
  3

 72
    65
 73
     0
 40
0.0
  0
LTYPE
  5
16
330
5
100
AcDbSymbolTableRecord
100
AcDbLinetypeTableRecord
  2
CONTINUOUS
 70
     0
  3
Solid line
 72
    65
 73
     0
 40
0.0
  0
ENDTAB
  0
TABLE
  2
LAYER
  5
2
100
AcDbSymbolTable
 70
2
  0
LAYER
  5
50
100
AcDbSymbolTableRecord
100
AcDbLayerTableRecord
  2
0
 70
0
  6
CONTINUOUS
  0
LAYER
  5
51
100
AcDbSymbolTableRecord
100
AcDbLayerTableRecord
  2
Layer_1
 70
0
  6
CONTINUOUS
  0
ENDTAB
  0
TABLE
  2
STYLE
  5
3
330
0
100
AcDbSymbolTable
 70
     1
  0
STYLE
  5
11
330
3
100
AcDbSymbolTableRecord
100
AcDbTextStyleTableRecord
  2
STANDARD
 70
     0
 40
0.0
 41
1.0
 50
0.0
 71
     0
 42
2.5
  3
txt
  4

  0
ENDTAB
  0
TABLE
  2
VIEW
  5
6
330
0
100
AcDbSymbolTable
 70
     0
  0
ENDTAB
  0
TABLE
  2
UCS
  5
7
330
0
100
AcDbSymbolTable
 70
     0
  0
ENDTAB
  0
TABLE
  2
APPID
  5
9
330
0
100
AcDbSymbolTable
 70
     2
  0
APPID
  5
12
330
9
100
AcDbSymbolTableRecord
100
AcDbRegAppTableRecord
  2
ACAD
 70
     0
  0
ENDTAB
  0
TABLE
  2
DIMSTYLE
  5
A
330
0
100
AcDbSymbolTable
 70
     1
  0
DIMSTYLE
105
27
330
A
100
AcDbSymbolTableRecord
100
AcDbDimStyleTableRecord
  2
ISO-25
 70
     0
  3

  4

  5

  6

  7

 40
1.0
 41
2.5
 42
0.625
 43
3.75
 44
1.25
 45
0.0
 46
0.0
 47
0.0
 48
0.0
140
2.5
141
2.5
142
0.0
143
0.03937007874016
144
1.0
145
0.0
146
1.0
147
0.625
 71
     0
 72
     0
 73
     0
 74
     0
 75
     0
 76
     0
 77
     1
 78
     8
170
     0
171
     3
172
     1
173
     0
174
     0
175
     0
176
     0
177
     0
178
     0
270
     2
271
     2
272
     2
273
     2
274
     3
340
11
275
     0
280
     0
281
     0
282
     0
283
     0
284
     8
285
     0
286
     0
287
     3
288
     0
  0
ENDTAB
  0
TABLE
  2
BLOCK_RECORD
  5
1
330
0
100
AcDbSymbolTable
 70
     1
  0
BLOCK_RECORD
  5
1F
330
1
100
AcDbSymbolTableRecord
100
AcDbBlockTableRecord
  2
*MODEL_SPACE
  0
BLOCK_RECORD
  5
1B
330
1
100
AcDbSymbolTableRecord
100
AcDbBlockTableRecord
  2
*PAPER_SPACE
  0
ENDTAB
  0
ENDSEC
  0
SECTION
  2
BLOCKS
  0
BLOCK
  5
20
330
1F
100
AcDbEntity
  8
0
100
AcDbBlockBegin
  2
*MODEL_SPACE
 70
     0
 10
0.0
 20
0.0
 30
0.0
  3
*MODEL_SPACE
  1

  0
ENDBLK
  5
21
330
1F
100
AcDbEntity
  8
0
100
AcDbBlockEnd
  0
BLOCK
  5
1C
330
1B
100
AcDbEntity
 67
     1
  8
0
100
AcDbBlockBegin
  2
*PAPER_SPACE
  1

  0
ENDBLK
  5
1D
330
1B
100
AcDbEntity
 67
     1
  8
0
100
AcDbBlockEnd
  0
ENDSEC
  0
SECTION
  2
ENTITIES
  0
LWPOLYLINE
  5
100
100
AcDbEntity
  8
Layer_1
 62
7
100
AcDbPolyline
 90
543
 70
0
 10
3.023307
 20
4.746456
 30
0.0
 10
3.023251
 20
4.746456
 30
0.0
 10
2.955892
 20
4.745525
 30
0.0
 10
2.951703
 20
4.736595
 30
0.0
 10
2.946577
 20
4.724578
 30
0.0
 10
2.942057
 20
4.712507
 30
0.0
 10
2.938033
 20
4.700490
 30
0.0
 10
2.934726
 20
4.688583
 30
0.0
 10
2.935663
 20
4.676953
 30
0.0
 10
2.936656
 20
4.665433
 30
0.0
 10
2.935996
 20
4.653636
 30
0.0
 10
2.935059
 20
4.647737
 30
0.0
 10
2.933461
 20
4.641675
 30
0.0
 10
2.930650
 20
4.635610
 30
0.0
 10
2.928610
 20
4.632469
 30
0.0
 10
2.925744
 20
4.629162
 30
0.0
 10
2.917530
 20
4.625250
 30
0.0
 10
2.846589
 20
4.611689
 30
0.0
 10
2.837549
 20
4.612395
 30
0.0
 10
2.833525
 20
4.614314
 30
0.0
 10
2.830549
 20
4.616459
 30
0.0
 10
2.825698
 20
4.621090
 30
0.0
 10
2.822005
 20
4.626162
 30
0.0
 10
2.818918
 20
4.631287
 30
0.0
 10
2.814122
 20
4.641980
 30
0.0
 10
2.810595
 20
4.653060
 30
0.0
 10
2.807232
 20
4.664194
 30
0.0
 10
2.799736
 20
4.674170
 30
0.0
 10
2.791578
 20
4.683817
 30
0.0
 10
2.782979
 20
4.693299
 30
0.0
 10
2.773828
 20
4.702613
 30
0.0
 10
2.766608
 20
4.709395
 30
0.0
 10
2.703604
 20
4.685471
 30
0.0
 10
2.702833
 20
4.675604
 30
0.0
 10
2.702116
 20
4.662540
 30
0.0
 10
2.701834
 20
4.649696
 30
0.0
 10
2.702221
 20
4.637019
 30
0.0
 10
2.703158
 20
4.624728
 30
0.0
 10
2.708119
 20
4.614088
 30
0.0
 10
2.712804
 20
4.603561
 30
0.0
 10
2.716332
 20
4.592315
 30
0.0
 10
2.717489
 20
4.586473
 30
0.0
 10
2.717986
 20
4.580190
 30
0.0
 10
2.717489
 20
4.573519
 30
0.0
 10
2.716662
 20
4.569827
 30
0.0
 10
2.715008
 20
4.565803
 30
0.0
 10
2.708614
 20
4.559244
 30
0.0
 10
2.646657
 20
4.522312
 30
0.0
 10
2.637948
 20
4.519885
 30
0.0
 10
2.633484
 20
4.520280
 30
0.0
 10
2.629901
 20
4.521324
 30
0.0
 10
2.623837
 20
4.524090
 30
0.0
 10
2.618601
 20
4.527508
 30
0.0
 10
2.613860
 20
4.531256
 30
0.0
 10
2.605757
 20
4.539689
 30
0.0
 10
2.598647
 20
4.548948
 30
0.0
 10
2.591646
 20
4.558211
 30
0.0
 10
2.581283
 20
4.564990
 30
0.0
 10
2.570259
 20
4.571385
 30
0.0
 10
2.558959
 20
4.577227
 30
0.0
 10
2.547163
 20
4.582905
 30
0.0
 10
2.538013
 20
4.586817
 30
0.0
 10
2.487026
 20
4.542776
 30
0.0
 10
2.489617
 20
4.533240
 30
0.0
 10
2.493365
 20
4.520673
 30
0.0
 10
2.497609
 20
4.508545
 30
0.0
 10
2.502350
 20
4.496859
 30
0.0
 10
2.507476
 20
4.485558
 30
0.0
 10
2.515579
 20
4.477292
 30
0.0
 10
2.523682
 20
4.469023
 30
0.0
 10
2.530903
 20
4.459653
 30
0.0
 10
2.533879
 20
4.454415
 30
0.0
 10
2.536580
 20
4.448737
 30
0.0
 10
2.538400
 20
4.442398
 30
0.0
 10
2.538841
 20
4.438540
 30
0.0
 10
2.538841
 20
4.434242
 30
0.0
 10
2.535037
 20
4.425919
 30
0.0
 10
2.489397
 20
4.370025
 30
0.0
 10
2.482065
 20
4.364677
 30
0.0
 10
2.477766
 20
4.363633
 30
0.0
 10
2.474073
 20
4.363351
 30
0.0
 10
2.467403
 20
4.363830
 30
0.0
 10
2.461340
 20
4.365270
 30
0.0
 10
2.455552
 20
4.367189
 30
0.0
 10
2.444969
 20
4.372260
 30
0.0
 10
2.435212
 20
4.378489
 30
0.0
 10
2.425566
 20
4.384881
 30
0.0
 10
2.413439
 20
4.387647
 30
0.0
 10
2.400982
 20
4.389905
 30
0.0
 10
2.388249
 20
4.391570
 30
0.0
 10
2.375185
 20
4.392784
 30
0.0
 10
2.365318
 20
4.393461
 30
0.0
 10
2.332411
 20
4.334536
 30
0.0
 10
2.338143
 20
4.326433
 30
0.0
 10
2.345971
 20
4.316013
 30
0.0
 10
2.354073
 20
4.306093
 30
0.0
 10
2.362507
 20
4.296611
 30
0.0
 10
2.371161
 20
4.287738
 30
0.0
 10
2.381744
 20
4.282830
 30
0.0
 10
2.392217
 20
4.277815
 30
0.0
 10
2.402084
 20
4.271419
 30
0.0
 10
2.406714
 20
4.267618
 30
0.0
 10
2.411124
 20
4.263207
 30
0.0
 10
2.415038
 20
4.257751
 30
0.0
 10
2.416802
 20
4.254444
 30
0.0
 10
2.418125
 20
4.250253
 30
0.0
 10
2.417408
 20
4.241213
 30
0.0
 10
2.393706
 20
4.172918
 30
0.0
 10
2.388635
 20
4.165422
 30
0.0
 10
2.384942
 20
4.162995
 30
0.0
 10
2.381579
 20
4.161387
 30
0.0
 10
2.375075
 20
4.159665
 30
0.0
 10
2.368901
 20
4.158847
 30
0.0
 10
2.362838
 20
4.158847
 30
0.0
 10
2.351262
 20
4.160060
 30
0.0
 10
2.339852
 20
4.162657
 30
0.0
 10
2.328497
 20
4.165197
 30
0.0
 10
2.316205
 20
4.163644
 30
0.0
 10
2.303748
 20
4.161500
 30
0.0
 10
2.291235
 20
4.158677
 30
0.0
 10
2.278557
 20
4.155426
 30
0.0
 10
2.269131
 20
4.152604
 30
0.0
 10
2.258328
 20
4.086126
 30
0.0
 10
2.266430
 20
4.080338
 30
0.0
 10
2.277345
 20
4.073283
 30
0.0
 10
2.288424
 20
4.066667
 30
0.0
 10
2.299559
 20
4.060715
 30
0.0
 10
2.310748
 20
4.055370
 30
0.0
 10
2.322324
 20
4.054269
 30
0.0
 10
2.333844
 20
4.053112
 30
0.0
 10
2.345364
 20
4.050516
 30
0.0
 10
2.351042
 20
4.048597
 30
0.0
 10
2.356664
 20
4.045831
 30
0.0
 10
2.362232
 20
4.042080
 30
0.0
 10
2.364932
 20
4.039540
 30
0.0
 10
2.367690
 20
4.036122
 30
0.0
 10
2.370171
 20
4.027303
 30
0.0
 10
2.371164
 20
3.955150
 30
0.0
 10
2.368903
 20
3.946331
 30
0.0
 10
2.366313
 20
3.942803
 30
0.0
 10
2.363668
 20
3.940150
 30
0.0
 10
2.358101
 20
3.936235
 30
0.0
 10
2.352534
 20
3.933470
 30
0.0
 10
2.346966
 20
3.931268
 30
0.0
 10
2.335611
 20
3.928401
 30
0.0
 10
2.324091
 20
3.926849
 30
0.0
 10
2.312570
 20
3.925522
 30
0.0
 10
2.301436
 20
3.919847
 30
0.0
 10
2.290467
 20
3.913452
 30
0.0
 10
2.279663
 20
3.906673
 30
0.0
 10
2.268969
 20
3.899174
 30
0.0
 10
2.260977
 20
3.893332
 30
0.0
 10
2.273600
 20
3.827131
 30
0.0
 10
2.283191
 20
3.824535
 30
0.0
 10
2.295869
 20
3.821557
 30
0.0
 10
2.308547
 20
3.819187
 30
0.0
 10
2.321004
 20
3.817380
 30
0.0
 10
2.333407
 20
3.816167
 30
0.0
 10
2.344596
 20
3.819144
 30
0.0
 10
2.355841
 20
3.822012
 30
0.0
 10
2.367527
 20
3.823564
 30
0.0
 10
2.373535
 20
3.823564
 30
0.0
 10
2.379764
 20
3.822999
 30
0.0
 10
2.386268
 20
3.821391
 30
0.0
 10
2.389741
 20
3.819951
 30
0.0
 10
2.393434
 20
3.817581
 30
0.0
 10
2.398836
 20
3.810195
 30
0.0
 10
2.424412
 20
3.742781
 30
0.0
 10
2.425349
 20
3.733687
 30
0.0
 10
2.424082
 20
3.729386
 30
0.0
 10
2.422484
 20
3.726135
 30
0.0
 10
2.418681
 20
3.720567
 30
0.0
 10
2.414437
 20
3.715938
 30
0.0
 10
2.409916
 20
3.712024
 30
0.0
 10
2.400160
 20
3.705465
 30
0.0
 10
2.389907
 20
3.700117
 30
0.0
 10
2.379489
 20
3.694882
 30
0.0
 10
2.371056
 20
3.685729
 30
0.0
 10
2.362953
 20
3.676029
 30
0.0
 10
2.355015
 20
3.665886
 30
0.0
 10
2.347519
 20
3.655303
 30
0.0
 10
2.342062
 20
3.646980
 30
0.0
 10
2.376513
 20
3.589102
 30
0.0
 10
2.386490
 20
3.589921
 30
0.0
 10
2.399443
 20
3.591529
 30
0.0
 10
2.412066
 20
3.593618
 30
0.0
 10
2.424413
 20
3.596158
 30
0.0
 10
2.436430
 20
3.599245
 30
0.0
 10
2.446021
 20
3.605860
 30
0.0
 10
2.455667
 20
3.612419
 30
0.0
 10
2.466030
 20
3.617765
 30
0.0
 10
2.471708
 20
3.619909
 30
0.0
 10
2.477771
 20
3.621462
 30
0.0
 10
2.484331
 20
3.622167
 30
0.0
 10
2.488134
 20
3.621885
 30
0.0
 10
2.492488
 20
3.620954
 30
0.0
 10
2.499985
 20
3.615882
 30
0.0
 10
2.547169
 20
3.561202
 30
0.0
 10
2.551083
 20
3.552989
 30
0.0
 10
2.551365
 20
3.548691
 30
0.0
 10
2.551083
 20
3.544886
 30
0.0
 10
2.549319
 20
3.538381
 30
0.0
 10
2.546948
 20
3.532649
 30
0.0
 10
2.543972
 20
3.527414
 30
0.0
 10
2.537192
 20
3.517878
 30
0.0
 10
2.529254
 20
3.509332
 30
0.0
 10
2.521372
 20
3.500899
 30
0.0
 10
2.516521
 20
3.489379
 30
0.0
 10
2.512112
 20
3.477528
 30
0.0
 10
2.508198
 20
3.465291
 30
0.0
 10
2.504780
 20
3.452667
 30
0.0
 10
2.502520
 20
3.443021
 30
0.0
 10
2.554775
 20
3.400468
 30
0.0
 10
2.563705
 20
3.404659
 30
0.0
 10
2.575335
 20
3.410501
 30
0.0
 10
2.586525
 20
3.416786
 30
0.0
 10
2.597329
 20
3.423455
 30
0.0
 10
2.607581
 20
3.430454
 30
0.0
 10
2.614251
 20
3.440046
 30
0.0
 10
2.621031
 20
3.449473
 30
0.0
 10
2.628969
 20
3.458126
 30
0.0
 10
2.633599
 20
3.462040
 30
0.0
 10
2.638725
 20
3.465511
 30
0.0
 10
2.644734
 20
3.468489
 30
0.0
 10
2.648316
 20
3.469646
 30
0.0
 10
2.652616
 20
3.470154
 30
0.0
 10
2.661435
 20
3.468009
 30
0.0
 10
2.724494
 20
3.432731
 30
0.0
 10
2.731054
 20
3.426393
 30
0.0
 10
2.732764
 20
3.422368
 30
0.0
 10
2.733755
 20
3.418787
 30
0.0
 10
2.734361
 20
3.412115
 30
0.0
 10
2.734031
 20
3.405833
 30
0.0
 10
2.733094
 20
3.399988
 30
0.0
 10
2.729897
 20
3.388690
 30
0.0
 10
2.725487
 20
3.377884
 30
0.0
 10
2.720857
 20
3.367191
 30
0.0
 10
2.720251
 20
3.354844
 30
0.0
 10
2.720251
 20
3.342166
 30
0.0
 10
2.720747
 20
3.329322
 30
0.0
 10
2.721794
 20
3.316315
 30
0.0
 10
2.722951
 20
3.306448
 30
0.0
 10
2.786562
 20
3.284344
 30
0.0
 10
2.793617
 20
3.291290
 30
0.0
 10
2.802492
 20
3.300880
 30
0.0
 10
2.810925
 20
3.310526
 30
0.0
 10
2.818753
 20
3.320503
 30
0.0
 10
2.825918
 20
3.330592
 30
0.0
 10
2.829005
 20
3.341779
 30
0.0
 10
2.832202
 20
3.352970
 30
0.0
 10
2.836722
 20
3.363886
 30
0.0
 10
2.839699
 20
3.369121
 30
0.0
 10
2.843282
 20
3.374193
 30
0.0
 10
2.847912
 20
3.378988
 30
0.0
 10
2.850888
 20
3.381245
 30
0.0
 10
2.854802
 20
3.383277
 30
0.0
 10
2.863842
 20
3.384265
 30
0.0
 10
2.935114
 20
3.372745
 30
0.0
 10
2.943438
 20
3.368941
 30
0.0
 10
2.946524
 20
3.365856
 30
0.0
 10
2.948565
 20
3.362658
 30
0.0
 10
2.951431
 20
3.356703
 30
0.0
 10
2.953305
 20
3.350751
 30
0.0
 10
2.954408
 20
3.344743
 30
0.0
 10
2.955345
 20
3.333059
 30
0.0
 10
2.954739
 20
3.321426
 30
0.0
 10
2.954132
 20
3.309852
 30
0.0
 10
2.957825
 20
3.298001
 30
0.0
 10
2.962124
 20
3.286094
 30
0.0
 10
2.966975
 20
3.274244
 30
0.0
 10
2.972377
 20
3.262337
 30
0.0
 10
2.976842
 20
3.253517
 30
0.0
 10
3.044255
 20
3.254392
 30
0.0
 10
3.048500
 20
3.263488
 30
0.0
 10
3.053516
 20
3.275395
 30
0.0
 10
3.058146
 20
3.287412
 30
0.0
 10
3.062060
 20
3.299426
 30
0.0
 10
3.065422
 20
3.311500
 30
0.0
 10
3.064429
 20
3.322964
 30
0.0
 10
3.063602
 20
3.334594
 30
0.0
 10
3.064099
 20
3.346337
 30
0.0
 10
3.065146
 20
3.352289
 30
0.0
 10
3.066743
 20
3.358242
 30
0.0
 10
3.069444
 20
3.364417
 30
0.0
 10
3.071484
 20
3.367614
 30
0.0
 10
3.074461
 20
3.370809
 30
0.0
 10
3.082619
 20
3.374780
 30
0.0
 10
3.153560
 20
3.388228
 30
0.0
 10
3.162655
 20
3.387607
 30
0.0
 10
3.166569
 20
3.385688
 30
0.0
 10
3.169656
 20
3.383543
 30
0.0
 10
3.174396
 20
3.378801
 30
0.0
 10
3.178200
 20
3.373843
 30
0.0
 10
3.181286
 20
3.368605
 30
0.0
 10
3.186137
 20
3.357911
 30
0.0
 10
3.189610
 20
3.346831
 30
0.0
 10
3.192917
 20
3.335754
 30
0.0
 10
3.200414
 20
3.325831
 30
0.0
 10
3.208516
 20
3.316075
 30
0.0
 10
3.217170
 20
3.306648
 30
0.0
 10
3.226431
 20
3.297389
 30
0.0
 10
3.233597
 20
3.290607
 30
0.0
 10
3.296545
 20
3.314477
 30
0.0
 10
3.297482
 20
3.324344
 30
0.0
 10
3.298143
 20
3.337405
 30
0.0
 10
3.298143
 20
3.350249
 30
0.0
 10
3.297861
 20
3.362873
 30
0.0
 10
3.296814
 20
3.375330
 30
0.0
 10
3.292018
 20
3.385803
 30
0.0
 10
3.287168
 20
3.396387
 30
0.0
 10
3.283695
 20
3.407577
 30
0.0
 10
3.282648
 20
3.413529
 30
0.0
 10
3.282151
 20
3.419704
 30
0.0
 10
3.282538
 20
3.426426
 30
0.0
 10
3.283365
 20
3.430121
 30
0.0
 10
3.284962
 20
3.434199
 30
0.0
 10
3.291356
 20
3.440704
 30
0.0
 10
3.353423
 20
3.477692
 30
0.0
 10
3.362187
 20
3.480176
 30
0.0
 10
3.366487
 20
3.479639
 30
0.0
 10
3.370125
 20
3.478652
 30
0.0
 10
3.376243
 20
3.475829
 30
0.0
 10
3.381480
 20
3.472468
 30
0.0
 10
3.386110
 20
3.468774
 30
0.0
 10
3.394378
 20
3.460341
 30
0.0
 10
3.401324
 20
3.451081
 30
0.0
 10
3.408324
 20
3.441765
 30
0.0
 10
3.418797
 20
3.435040
 30
0.0
 10
3.429711
 20
3.428647
 30
0.0
 10
3.441121
 20
3.422693
 30
0.0
 10
3.452862
 20
3.417181
 30
0.0
 10
3.462012
 20
3.413156
 30
0.0
 10
3.512945
 20
3.457254
 30
0.0
 10
3.510408
 20
3.466790
 30
0.0
 10
3.506604
 20
3.479247
 30
0.0
 10
3.502415
 20
3.491374
 30
0.0
 10
3.497785
 20
3.503171
 30
0.0
 10
3.492659
 20
3.514525
 30
0.0
 10
3.484390
 20
3.522740
 30
0.0
 10
3.476287
 20
3.531063
 30
0.0
 10
3.469177
 20
3.540433
 30
0.0
 10
3.466090
 20
3.545558
 30
0.0
 10
3.463556
 20
3.551183
 30
0.0
 10
3.461682
 20
3.557685
 30
0.0
 10
3.461185
 20
3.561379
 30
0.0
 10
3.461467
 20
3.565788
 30
0.0
 10
3.465160
 20
3.574113
 30
0.0
 10
3.510801
 20
3.630061
 30
0.0
 10
3.518187
 20
3.635406
 30
0.0
 10
3.522432
 20
3.636394
 30
0.0
 10
3.526235
 20
3.636733
 30
0.0
 10
3.532905
 20
3.636225
 30
0.0
 10
3.538968
 20
3.634785
 30
0.0
 10
3.544645
 20
3.632810
 30
0.0
 10
3.555229
 20
3.627685
 30
0.0
 10
3.564985
 20
3.621402
 30
0.0
 10
3.574742
 20
3.615061
 30
0.0
 10
3.586869
 20
3.612352
 30
0.0
 10
3.599326
 20
3.610094
 30
0.0
 10
3.612059
 20
3.608344
 30
0.0
 10
3.625013
 20
3.607243
 30
0.0
 10
3.634879
 20
3.606594
 30
0.0
 10
3.667787
 20
3.665407
 30
0.0
 10
3.662109
 20
3.673512
 30
0.0
 10
3.654282
 20
3.684039
 30
0.0
 10
3.646179
 20
3.693905
 30
0.0
 10
3.637746
 20
3.703332
 30
0.0
 10
3.629037
 20
3.712205
 30
0.0
 10
3.618508
 20
3.717223
 30
0.0
 10
3.608035
 20
3.722238
 30
0.0
 10
3.598169
 20
3.728523
 30
0.0
 10
3.593538
 20
3.732434
 30
0.0
 10
3.589129
 20
3.736845
 30
0.0
 10
3.585215
 20
3.742191
 30
0.0
 10
3.583507
 20
3.745608
 30
0.0
 10
3.582130
 20
3.749799
 30
0.0
 10
3.582737
 20
3.758839
 30
0.0
 10
3.606494
 20
3.827024
 30
0.0
 10
3.611621
 20
3.834520
 30
0.0
 10
3.615314
 20
3.836947
 30
0.0
 10
3.618731
 20
3.838556
 30
0.0
 10
3.625181
 20
3.840362
 30
0.0
 10
3.631354
 20
3.841067
 30
0.0
 10
3.637307
 20
3.841067
 30
0.0
 10
3.649048
 20
3.839967
 30
0.0
 10
3.660348
 20
3.837370
 30
0.0
 10
3.671703
 20
3.834661
 30
0.0
 10
3.683995
 20
3.836270
 30
0.0
 10
3.696453
 20
3.838414
 30
0.0
 10
3.709076
 20
3.841180
 30
0.0
 10
3.721643
 20
3.844485
 30
0.0
 10
3.731179
 20
3.847352
 30
0.0
 10
3.741983
 20
3.913883
 30
0.0
 10
3.733880
 20
3.919505
 30
0.0
 10
3.722856
 20
3.926727
 30
0.0
 10
3.711832
 20
3.933176
 30
0.0
 10
3.700752
 20
3.939295
 30
0.0
 10
3.689452
 20
3.944586
 30
0.0
 10
3.677932
 20
3.945631
 30
0.0
 10
3.666301
 20
3.946731
 30
0.0
 10
3.654891
 20
3.949328
 30
0.0
 10
3.649269
 20
3.951360
 30
0.0
 10
3.643591
 20
3.954069
 30
0.0
 10
3.638024
 20
3.957761
 30
0.0
 10
3.635267
 20
3.960357
 30
0.0
 10
3.632622
 20
3.963831
 30
0.0
 10
3.630141
 20
3.972541
 30
0.0
 10
3.629094
 20
4.044750
 30
0.0
 10
3.631355
 20
4.053567
 30
0.0
 10
3.633946
 20
4.057151
 30
0.0
 10
3.636590
 20
4.059747
 30
0.0
 10
3.642047
 20
4.063662
 30
0.0
 10
3.647614
 20
4.066526
 30
0.0
 10
3.653237
 20
4.068671
 30
0.0
 10
3.664537
 20
4.071538
 30
0.0
 10
3.676167
 20
4.073034
 30
0.0
 10
3.687688
 20
4.074474
 30
0.0
 10
3.698712
 20
4.080095
 30
0.0
 10
3.709681
 20
4.086380
 30
0.0
 10
3.720595
 20
4.093270
 30
0.0
 10
3.731289
 20
4.100655
 30
0.0
 10
3.739171
 20
4.106664
 30
0.0
 10
3.726659
 20
4.172811
 30
0.0
 10
3.716957
 20
4.175407
 30
0.0
 10
3.704335
 20
4.178272
 30
0.0
 10
3.691712
 20
4.180756
 30
0.0
 10
3.679144
 20
4.182505
 30
0.0
 10
3.666852
 20
4.183719
 30
0.0
 10
3.655607
 20
4.180741
 30
0.0
 10
3.644307
 20
4.177874
 30
0.0
 10
3.632676
 20
4.176435
 30
0.0
 10
3.626613
 20
4.176435
 30
0.0
 10
3.620440
 20
4.177027
 30
0.0
 10
3.613990
 20
4.178693
 30
0.0
 10
3.610463
 20
4.180132
 30
0.0
 10
3.606770
 20
4.182446
 30
0.0
 10
3.601478
 20
4.189775
 30
0.0
 10
3.575846
 20
4.257300
 30
0.0
 10
3.574909
 20
4.266339
 30
0.0
 10
3.576123
 20
4.270584
 30
0.0
 10
3.577666
 20
4.273945
 30
0.0
 10
3.581470
 20
4.279514
 30
0.0
 10
3.585824
 20
4.284035
 30
0.0
 10
3.590344
 20
4.288056
 30
0.0
 10
3.599991
 20
4.294618
 30
0.0
 10
3.610353
 20
4.299963
 30
0.0
 10
3.620661
 20
4.305201
 30
0.0
 10
3.629205
 20
4.314241
 30
0.0
 10
3.637308
 20
4.323887
 30
0.0
 10
3.645135
 20
4.334084
 30
0.0
 10
3.652742
 20
4.344778
 30
0.0
 10
3.658199
 20
4.353100
 30
0.0
 10
3.623638
 20
4.410978
 30
0.0
 10
3.613771
 20
4.410047
 30
0.0
 10
3.600817
 20
4.408495
 30
0.0
 10
3.588194
 20
4.406463
 30
0.0
 10
3.575737
 20
4.403866
 30
0.0
 10
3.563721
 20
4.400779
 30
0.0
 10
3.554129
 20
4.394110
 30
0.0
 10
3.544593
 20
4.387658
 30
0.0
 10
3.534120
 20
4.382203
 30
0.0
 10
3.528553
 20
4.380115
 30
0.0
 10
3.522490
 20
4.378506
 30
0.0
 10
3.515820
 20
4.377800
 30
0.0
 10
3.512127
 20
4.378083
 30
0.0
 10
3.507772
 20
4.379014
 30
0.0
 10
3.500276
 20
4.384139
 30
0.0
 10
3.453092
 20
4.438820
 30
0.0
 10
3.449123
 20
4.446925
 30
0.0
 10
3.448793
 20
4.451390
 30
0.0
 10
3.449233
 20
4.455081
 30
0.0
 10
3.450830
 20
4.461530
 30
0.0
 10
3.453311
 20
4.467318
 30
0.0
 10
3.456177
 20
4.472556
 30
0.0
 10
3.463068
 20
4.482090
 30
0.0
 10
3.471005
 20
4.490636
 30
0.0
 10
3.478943
 20
4.499178
 30
0.0
 10
3.483738
 20
4.510589
 30
0.0
 10
3.488038
 20
4.522496
 30
0.0
 10
3.491951
 20
4.534733
 30
0.0
 10
3.495479
 20
4.547244
 30
0.0
 10
3.497740
 20
4.556947
 30
0.0
 10
3.445540
 20
4.599500
 30
0.0
 10
3.436499
 20
4.595365
 30
0.0
 10
3.424869
 20
4.589413
 30
0.0
 10
3.413624
 20
4.583128
 30
0.0
 10
3.402986
 20
4.576459
 30
0.0
 10
3.392678
 20
4.569457
 30
0.0
 10
3.386008
 20
4.560034
 30
0.0
 10
3.379228
 20
4.550551
 30
0.0
 10
3.371181
 20
4.541952
 30
0.0
 10
3.366660
 20
4.538040
 30
0.0
 10
3.361534
 20
4.534403
 30
0.0
 10
3.355471
 20
4.531535
 30
0.0
 10
3.351888
 20
4.530378
 30
0.0
 10
3.347533
 20
4.529757
 30
0.0
 10
3.338714
 20
4.532015
 30
0.0
 10
3.275710
 20
4.567183
 30
0.0
 10
3.269206
 20
4.573575
 30
0.0
 10
3.267388
 20
4.577546
 30
0.0
 10
3.266451
 20
4.581237
 30
0.0
 10
3.265791
 20
4.587963
 30
0.0
 10
3.266121
 20
4.594135
 30
0.0
 10
3.267058
 20
4.600090
 30
0.0
 10
3.270255
 20
4.611390
 30
0.0
 10
3.274775
 20
4.622083
 30
0.0
 10
3.279295
 20
4.632777
 30
0.0
 10
3.280012
 20
4.645178
 30
0.0
 10
3.280012
 20
4.657858
 30
0.0
 10
3.279461
 20
4.670699
 30
0.0
 10
3.278304
 20
4.683653
 30
0.0
 10
3.277201
 20
4.693520
 30
0.0
 10
3.213591
 20
4.715733
 30
0.0
 10
3.206590
 20
4.708624
 30
0.0
 10
3.197660
 20
4.699141
 30
0.0
 10
3.189282
 20
4.689385
 30
0.0
 10
3.181400
 20
4.679518
 30
0.0
 10
3.174179
 20
4.669378
 30
0.0
 10
3.171092
 20
4.658132
 30
0.0
 10
3.168060
 20
4.646942
 30
0.0
 10
3.163485
 20
4.636138
 30
0.0
 10
3.160509
 20
4.630903
 30
0.0
 10
3.156926
 20
4.625775
 30
0.0
 10
3.152296
 20
4.620926
 30
0.0
 10
3.149319
 20
4.618669
 30
0.0
 10
3.145405
 20
4.616637
 30
0.0
 10
3.136365
 20
4.615818
 30
0.0
 10
3.065038
 20
4.627338
 30
0.0
 10
3.056825
 20
4.631033
 30
0.0
 10
3.053738
 20
4.634230
 30
0.0
 10
3.051588
 20
4.637315
 30
0.0
 10
3.048666
 20
4.643380
 30
0.0
 10
3.046846
 20
4.649332
 30
0.0
 10
3.045743
 20
4.655177
 30
0.0
 10
3.044916
 20
4.666917
 30
0.0
 10
3.045412
 20
4.678491
 30
0.0
 10
3.046019
 20
4.690122
 30
0.0
 10
3.042436
 20
4.702085
 30
0.0
 10
3.038137
 20
4.713879
 30
0.0
 10
3.033176
 20
4.725842
 30
0.0
 10
3.027719
 20
4.737636
 30
0.0
 10
3.023309
 20
4.746456
 30
0.0
 10
3.023307
 20
4.746456
 30
0.0
  0
LWPOLYLINE
  5
101
100
AcDbEntity
  8
Layer_1
 62
7
100
AcDbPolyline
 90
24
 70
0
 10
2.992715
 20
4.521562
 30
0.0
 10
3.028985
 20
4.520800
 30
0.0
 10
3.065199
 20
4.517495
 30
0.0
 10
3.101084
 20
4.511760
 30
0.0
 10
3.136417
 20
4.503494
 30
0.0
 10
3.171088
 20
4.492687
 30
0.0
 10
3.204988
 20
4.479680
 30
0.0
 10
3.217445
 20
4.434315
 30
0.0
 10
3.159457
 20
4.352073
 30
0.0
 10
3.103233
 20
4.335371
 30
0.0
 10
3.049766
 20
4.347388
 30
0.0
 10
2.995085
 20
4.350862
 30
0.0
 10
2.940515
 20
4.345844
 30
0.0
 10
2.887433
 20
4.332340
 30
0.0
 10
2.830713
 20
4.347498
 30
0.0
 10
2.770465
 20
4.428087
 30
0.0
 10
2.781710
 20
4.473671
 30
0.0
 10
2.815223
 20
4.487782
 30
0.0
 10
2.849509
 20
4.499523
 30
0.0
 10
2.884677
 20
4.508729
 30
0.0
 10
2.920340
 20
4.515564
 30
0.0
 10
2.956445
 20
4.519752
 30
0.0
 10
2.992715
 20
4.521559
 30
0.0
 10
2.992715
 20
4.521562
 30
0.0
  0
LWPOLYLINE
  5
102
100
AcDbEntity
  8
Layer_1
 62
7
100
AcDbPolyline
 90
24
 70
0
 10
3.383141
 20
4.354046
 30
0.0
 10
3.406788
 20
4.326487
 30
0.0
 10
3.428561
 20
4.297381
 30
0.0
 10
3.448184
 20
4.266898
 30
0.0
 10
3.465658
 20
4.234985
 30
0.0
 10
3.480871
 20
4.202021
 30
0.0
 10
3.493714
 20
4.168121
 30
0.0
 10
3.504298
 20
4.133339
 30
0.0
 10
3.512345
 20
4.097898
 30
0.0
 10
3.517913
 20
4.062013
 30
0.0
 10
3.520999
 20
4.025799
 30
0.0
 10
3.521496
 20
3.989527
 30
0.0
 10
3.519566
 20
3.953259
 30
0.0
 10
3.480154
 20
3.927461
 30
0.0
 10
3.384187
 20
3.957171
 30
0.0
 10
3.350839
 20
4.005459
 30
0.0
 10
3.345713
 20
4.060029
 30
0.0
 10
3.332153
 20
4.113110
 30
0.0
 10
3.310545
 20
4.163382
 30
0.0
 10
3.281386
 20
4.209740
 30
0.0
 10
3.278189
 20
4.268332
 30
0.0
 10
3.336177
 20
4.350574
 30
0.0
 10
3.383140
 20
4.354046
 30
0.0
 10
3.383141
 20
4.354046
 30
0.0
  0
LWPOLYLINE
  5
103
100
AcDbEntity
  8
Layer_1
 62
7
100
AcDbPolyline
 90
24
 70
0
 10
2.607140
 20
4.343132
 30
0.0
 10
2.654103
 20
4.340987
 30
0.0
 10
2.714351
 20
4.260512
 30
0.0
 10
2.712917
 20
4.201807
 30
0.0
 10
2.685081
 20
4.154622
 30
0.0
 10
2.664796
 20
4.103746
 30
0.0
 10
2.652670
 20
4.050279
 30
0.0
 10
2.649087
 20
3.995708
 30
0.0
 10
2.617226
 20
3.946483
 30
0.0
 10
2.522031
 20
3.913962
 30
0.0
 10
2.481958
 20
3.938767
 30
0.0
 10
2.478982
 20
3.974925
 30
0.0
 10
2.478431
 20
4.011307
 30
0.0
 10
2.480472
 20
4.047521
 30
0.0
 10
2.485102
 20
4.083572
 30
0.0
 10
2.492213
 20
4.119124
 30
0.0
 10
2.501638
 20
4.154182
 30
0.0
 10
2.513600
 20
4.188522
 30
0.0
 10
2.527876
 20
4.221926
 30
0.0
 10
2.544523
 20
4.254227
 30
0.0
 10
2.563319
 20
4.285260
 30
0.0
 10
2.584210
 20
4.314972
 30
0.0
 10
2.607141
 20
4.343138
 30
0.0
 10
2.607140
 20
4.343132
 30
0.0
  0
LWPOLYLINE
  5
104
100
AcDbEntity
  8
Layer_1
 62
7
100
AcDbPolyline
 90
18
 70
0
 10
3.000156
 20
4.199983
 30
0.0
 10
3.077995
 20
4.184263
 30
0.0
 10
3.141559
 20
4.141404
 30
0.0
 10
3.184417
 20
4.077840
 30
0.0
 10
3.200137
 20
4.000001
 30
0.0
 10
3.184416
 20
3.922163
 30
0.0
 10
3.141558
 20
3.858599
 30
0.0
 10
3.077994
 20
3.815741
 30
0.0
 10
3.000156
 20
3.800021
 30
0.0
 10
2.922318
 20
3.815741
 30
0.0
 10
2.858754
 20
3.858599
 30
0.0
 10
2.815896
 20
3.922163
 30
0.0
 10
2.800175
 20
4.000001
 30
0.0
 10
2.815895
 20
4.077840
 30
0.0
 10
2.858753
 20
4.141405
 30
0.0
 10
2.922317
 20
4.184263
 30
0.0
 10
3.000156
 20
4.199983
 30
0.0
 10
3.000156
 20
4.199983
 30
0.0
  0
LWPOLYLINE
  5
105
100
AcDbEntity
  8
Layer_1
 62
7
100
AcDbPolyline
 90
24
 70
0
 10
3.341193
 20
3.818267
 30
0.0
 10
3.437215
 20
3.788554
 30
0.0
 10
3.455074
 20
3.745010
 30
0.0
 10
3.436167
 20
3.713921
 30
0.0
 10
3.415276
 20
3.684321
 30
0.0
 10
3.392291
 20
3.656152
 30
0.0
 10
3.367376
 20
3.629751
 30
0.0
 10
3.340752
 20
3.605056
 30
0.0
 10
3.312420
 20
3.582289
 30
0.0
 10
3.282599
 20
3.561619
 30
0.0
 10
3.251455
 20
3.542990
 30
0.0
 10
3.219044
 20
3.526562
 30
0.0
 10
3.185585
 20
3.512451
 30
0.0
 10
3.151244
 20
3.500710
 30
0.0
 10
3.116077
 20
3.491504
 30
0.0
 10
3.079366
 20
3.520883
 30
0.0
 10
3.077989
 20
3.621428
 30
0.0
 10
3.113597
 20
3.668003
 30
0.0
 10
3.163868
 20
3.689666
 30
0.0
 10
3.210225
 20
3.718992
 30
0.0
 10
3.251346
 20
3.755150
 30
0.0
 10
3.286403
 20
3.797210
 30
0.0
 10
3.341194
 20
3.818267
 30
0.0
 10
3.341193
 20
3.818267
 30
0.0
  0
LWPOLYLINE
  5
106
100
AcDbEntity
  8
Layer_1
 62
7
100
AcDbPolyline
 90
24
 70
0
 10
2.663970
 20
3.808840
 30
0.0
 10
2.719422
 20
3.789271
 30
0.0
 10
2.755582
 20
3.748151
 30
0.0
 10
2.797695
 20
3.713204
 30
0.0
 10
2.844769
 20
3.685258
 30
0.0
 10
2.895701
 20
3.664918
 30
0.0
 10
2.932687
 20
3.619387
 30
0.0
 10
2.934065
 20
3.518846
 30
0.0
 10
2.898180
 20
3.488419
 30
0.0
 10
2.862793
 20
3.496742
 30
0.0
 10
2.828176
 20
3.507546
 30
0.0
 10
2.794221
 20
3.520720
 30
0.0
 10
2.761424
 20
3.536098
 30
0.0
 10
2.729674
 20
3.553903
 30
0.0
 10
2.699357
 20
3.573746
 30
0.0
 10
2.670363
 20
3.595740
 30
0.0
 10
2.643023
 20
3.619551
 30
0.0
 10
2.617447
 20
3.645349
 30
0.0
 10
2.593689
 20
3.672801
 30
0.0
 10
2.571916
 20
3.701904
 30
0.0
 10
2.552238
 20
3.732440
 30
0.0
 10
2.568829
 20
3.776427
 30
0.0
 10
2.663969
 20
3.808840
 30
0.0
 10
2.663970
 20
3.808840
 30
0.0
  0
LWPOLYLINE
  5
107
100
AcDbEntity
  8
Layer_1
 62
7
100
AcDbPolyline
 90
408
 70
0
 10
2.905457
 20
2.388580
 30
0.0
 10
2.844107
 20
2.368240
 30
0.0
 10
2.842784
 20
2.361238
 30
0.0
 10
2.841240
 20
2.352088
 30
0.0
 10
2.840193
 20
2.343049
 30
0.0
 10
2.839476
 20
2.334229
 30
0.0
 10
2.839194
 20
2.325463
 30
0.0
 10
2.839524
 20
2.316921
 30
0.0
 10
2.840294
 20
2.308598
 30
0.0
 10
2.843712
 20
2.301706
 30
0.0
 10
2.848453
 20
2.295477
 30
0.0
 10
2.852642
 20
2.288865
 30
0.0
 10
2.856225
 20
2.281973
 30
0.0
 10
2.859091
 20
2.274807
 30
0.0
 10
2.860248
 20
2.271003
 30
0.0
 10
2.861075
 20
2.267091
 30
0.0
 10
2.861572
 20
2.262957
 30
0.0
 10
2.861572
 20
2.258656
 30
0.0
 10
2.861289
 20
2.256285
 30
0.0
 10
2.860903
 20
2.253914
 30
0.0
 10
2.860186
 20
2.251205
 30
0.0
 10
2.858752
 20
2.248228
 30
0.0
 10
2.827719
 20
2.225241
 30
0.0
 10
2.824246
 20
2.222531
 30
0.0
 10
2.820718
 20
2.219667
 30
0.0
 10
2.791228
 20
2.194642
 30
0.0
 10
2.788031
 20
2.194078
 30
0.0
 10
2.785274
 20
2.193795
 30
0.0
 10
2.782793
 20
2.194078
 30
0.0
 10
2.780423
 20
2.194360
 30
0.0
 10
2.776233
 20
2.195404
 30
0.0
 10
2.772430
 20
2.196843
 30
0.0
 10
2.768737
 20
2.198593
 30
0.0
 10
2.765319
 20
2.200512
 30
0.0
 10
2.758925
 20
2.205034
 30
0.0
 10
2.753082
 20
2.210049
 30
0.0
 10
2.747736
 20
2.215727
 30
0.0
 10
2.742719
 20
2.221679
 30
0.0
 10
2.736656
 20
2.226640
 30
0.0
 10
2.728719
 20
2.229293
 30
0.0
 10
2.720505
 20
2.231438
 30
0.0
 10
2.711962
 20
2.233301
 30
0.0
 10
2.703252
 20
2.234627
 30
0.0
 10
2.694212
 20
2.235672
 30
0.0
 10
2.684952
 20
2.236292
 30
0.0
 10
2.677841
 20
2.236575
 30
0.0
 10
2.643887
 20
2.181564
 30
0.0
 10
2.647304
 20
2.175335
 30
0.0
 10
2.652044
 20
2.167396
 30
0.0
 10
2.657061
 20
2.159790
 30
0.0
 10
2.662242
 20
2.152515
 30
0.0
 10
2.667754
 20
2.145733
 30
0.0
 10
2.673432
 20
2.139341
 30
0.0
 10
2.679385
 20
2.133496
 30
0.0
 10
2.686385
 20
2.130301
 30
0.0
 10
2.694102
 20
2.128551
 30
0.0
 10
2.701488
 20
2.126294
 30
0.0
 10
2.708654
 20
2.123316
 30
0.0
 10
2.715544
 20
2.119735
 30
0.0
 10
2.718852
 20
2.117590
 30
0.0
 10
2.722049
 20
2.115106
 30
0.0
 10
2.725025
 20
2.112340
 30
0.0
 10
2.727892
 20
2.109036
 30
0.0
 10
2.729269
 20
2.107117
 30
0.0
 10
2.730483
 20
2.104915
 30
0.0
 10
2.731586
 20
2.102488
 30
0.0
 10
2.732413
 20
2.099180
 30
0.0
 10
2.723373
 20
2.061645
 30
0.0
 10
2.722436
 20
2.057344
 30
0.0
 10
2.721609
 20
2.052936
 30
0.0
 10
2.715160
 20
2.014900
 30
0.0
 10
2.713066
 20
2.012191
 30
0.0
 10
2.711025
 20
2.010385
 30
0.0
 10
2.709041
 20
2.008946
 30
0.0
 10
2.707111
 20
2.007732
 30
0.0
 10
2.703197
 20
2.005756
 30
0.0
 10
2.699284
 20
2.004430
 30
0.0
 10
2.695370
 20
2.003386
 30
0.0
 10
2.691457
 20
2.002737
 30
0.0
 10
2.683739
 20
2.002059
 30
0.0
 10
2.675967
 20
2.002059
 30
0.0
 10
2.668250
 20
2.002878
 30
0.0
 10
2.660533
 20
2.004317
 30
0.0
 10
2.652706
 20
2.004035
 30
0.0
 10
2.644989
 20
2.001057
 30
0.0
 10
2.637327
 20
1.997473
 30
0.0
 10
2.629610
 20
1.993339
 30
0.0
 10
2.621893
 20
1.988710
 30
0.0
 10
2.614397
 20
1.983695
 30
0.0
 10
2.606845
 20
1.978237
 30
0.0
 10
2.601333
 20
1.973826
 30
0.0
 10
2.610758
 20
1.909886
 30
0.0
 10
2.617373
 20
1.907289
 30
0.0
 10
2.626082
 20
1.904202
 30
0.0
 10
2.634847
 20
1.901662
 30
0.0
 10
2.643445
 20
1.899404
 30
0.0
 10
2.651989
 20
1.897739
 30
0.0
 10
2.660423
 20
1.896469
 30
0.0
 10
2.668746
 20
1.895820
 30
0.0
 10
2.676133
 20
1.897964
 30
0.0
 10
2.683243
 20
1.901549
 30
0.0
 10
2.690354
 20
1.904526
 30
0.0
 10
2.697740
 20
1.906840
 30
0.0
 10
2.705347
 20
1.908505
 30
0.0
 10
2.709261
 20
1.908957
 30
0.0
 10
2.713284
 20
1.909239
 30
0.0
 10
2.717363
 20
1.908957
 30
0.0
 10
2.721663
 20
1.908251
 30
0.0
 10
2.723924
 20
1.907631
 30
0.0
 10
2.726294
 20
1.906812
 30
0.0
 10
2.728829
 20
1.905599
 30
0.0
 10
2.731473
 20
1.903792
 30
0.0
 10
2.748726
 20
1.869231
 30
0.0
 10
2.750767
 20
1.865207
 30
0.0
 10
2.752971
 20
1.861295
 30
0.0
 10
2.772484
 20
1.828002
 30
0.0
 10
2.772484
 20
1.824584
 30
0.0
 10
2.772154
 20
1.821931
 30
0.0
 10
2.771547
 20
1.819447
 30
0.0
 10
2.770830
 20
1.817303
 30
0.0
 10
2.769120
 20
1.813278
 30
0.0
 10
2.766916
 20
1.809804
 30
0.0
 10
2.764655
 20
1.806499
 30
0.0
 10
2.762121
 20
1.803412
 30
0.0
 10
2.756554
 20
1.797953
 30
0.0
 10
2.750600
 20
1.793158
 30
0.0
 10
2.744096
 20
1.788694
 30
0.0
 10
2.737316
 20
1.784836
 30
0.0
 10
2.731473
 20
1.779764
 30
0.0
 10
2.727449
 20
1.772488
 30
0.0
 10
2.723866
 20
1.764660
 30
0.0
 10
2.720559
 20
1.756667
 30
0.0
 10
2.717693
 20
1.748234
 30
0.0
 10
2.715102
 20
1.739471
 30
0.0
 10
2.712841
 20
1.730429
 30
0.0
 10
2.711408
 20
1.723540
 30
0.0
 10
2.759859
 20
1.680546
 30
0.0
 10
2.766529
 20
1.682804
 30
0.0
 10
2.775183
 20
1.686112
 30
0.0
 10
2.783617
 20
1.689696
 30
0.0
 10
2.791499
 20
1.693610
 30
0.0
 10
2.799216
 20
1.697742
 30
0.0
 10
2.806382
 20
1.702263
 30
0.0
 10
2.813272
 20
1.707058
 30
0.0
 10
2.817627
 20
1.713563
 30
0.0
 10
2.820713
 20
1.720729
 30
0.0
 10
2.824186
 20
1.727618
 30
0.0
 10
2.828431
 20
1.734233
 30
0.0
 10
2.833116
 20
1.740408
 30
0.0
 10
2.835927
 20
1.743273
 30
0.0
 10
2.838793
 20
1.745926
 30
0.0
 10
2.842101
 20
1.748409
 30
0.0
 10
2.845904
 20
1.750667
 30
0.0
 10
2.847944
 20
1.751655
 30
0.0
 10
2.850258
 20
1.752473
 30
0.0
 10
2.852959
 20
1.753066
 30
0.0
 10
2.856267
 20
1.753405
 30
0.0
 10
2.891599
 20
1.737970
 30
0.0
 10
2.895844
 20
1.736361
 30
0.0
 10
2.899923
 20
1.734696
 30
0.0
 10
2.936303
 20
1.721742
 30
0.0
 10
2.938564
 20
1.719146
 30
0.0
 10
2.939998
 20
1.716888
 30
0.0
 10
2.941155
 20
1.714687
 30
0.0
 10
2.942092
 20
1.712655
 30
0.0
 10
2.943249
 20
1.708410
 30
0.0
 10
2.943966
 20
1.704332
 30
0.0
 10
2.944248
 20
1.700307
 30
0.0
 10
2.944248
 20
1.696396
 30
0.0
 10
2.943531
 20
1.688677
 30
0.0
 10
2.942097
 20
1.681071
 30
0.0
 10
2.939947
 20
1.673575
 30
0.0
 10
2.937192
 20
1.666133
 30
0.0
 10
2.935925
 20
1.658581
 30
0.0
 10
2.937689
 20
1.650314
 30
0.0
 10
2.939839
 20
1.642099
 30
0.0
 10
2.942540
 20
1.633776
 30
0.0
 10
2.945737
 20
1.625454
 30
0.0
 10
2.949431
 20
1.617131
 30
0.0
 10
2.953454
 20
1.608805
 30
0.0
 10
2.956817
 20
1.602633
 30
0.0
 10
3.021474
 20
1.600827
 30
0.0
 10
3.025223
 20
1.606892
 30
0.0
 10
3.029742
 20
1.614884
 30
0.0
 10
3.033822
 20
1.623043
 30
0.0
 10
3.037405
 20
1.631146
 30
0.0
 10
3.040602
 20
1.639249
 30
0.0
 10
3.043302
 20
1.647351
 30
0.0
 10
3.045453
 20
1.655507
 30
0.0
 10
3.044626
 20
1.663226
 30
0.0
 10
3.042312
 20
1.670722
 30
0.0
 10
3.040658
 20
1.678328
 30
0.0
 10
3.039501
 20
1.685937
 30
0.0
 10
3.039219
 20
1.693763
 30
0.0
 10
3.039501
 20
1.697621
 30
0.0
 10
3.040051
 20
1.701645
 30
0.0
 10
3.040932
 20
1.705670
 30
0.0
 10
3.042419
 20
1.709748
 30
0.0
 10
3.043300
 20
1.711949
 30
0.0
 10
3.044677
 20
1.714094
 30
0.0
 10
3.046221
 20
1.716239
 30
0.0
 10
3.048591
 20
1.718609
 30
0.0
 10
3.085578
 20
1.729577
 30
0.0
 10
3.089877
 20
1.730959
 30
0.0
 10
3.094122
 20
1.732399
 30
0.0
 10
3.130281
 20
1.745847
 30
0.0
 10
3.133589
 20
1.745339
 30
0.0
 10
3.136233
 20
1.744520
 30
0.0
 10
3.138494
 20
1.743589
 30
0.0
 10
3.140534
 20
1.742432
 30
0.0
 10
3.144172
 20
1.740005
 30
0.0
 10
3.147314
 20
1.737295
 30
0.0
 10
3.150125
 20
1.734428
 30
0.0
 10
3.152660
 20
1.731453
 30
0.0
 10
3.157125
 20
1.725058
 30
0.0
 10
3.160818
 20
1.718279
 30
0.0
 10
3.164015
 20
1.711224
 30
0.0
 10
3.166659
 20
1.703781
 30
0.0
 10
3.170683
 20
1.697113
 30
0.0
 10
3.177132
 20
1.691985
 30
0.0
 10
3.184133
 20
1.687023
 30
0.0
 10
3.191574
 20
1.682395
 30
0.0
 10
3.199346
 20
1.678094
 30
0.0
 10
3.207449
 20
1.674072
 30
0.0
 10
3.215993
 20
1.670268
 30
0.0
 10
3.222608
 20
1.667728
 30
0.0
 10
3.273264
 20
1.707803
 30
0.0
 10
3.272271
 20
1.714802
 30
0.0
 10
3.270507
 20
1.723952
 30
0.0
 10
3.268466
 20
1.732771
 30
0.0
 10
3.265986
 20
1.741317
 30
0.0
 10
3.263175
 20
1.749640
 30
0.0
 10
3.260033
 20
1.757576
 30
0.0
 10
3.256395
 20
1.765074
 30
0.0
 10
3.250882
 20
1.770476
 30
0.0
 10
3.244268
 20
1.774721
 30
0.0
 10
3.238094
 20
1.779459
 30
0.0
 10
3.232362
 20
1.784697
 30
0.0
 10
3.227125
 20
1.790486
 30
0.0
 10
3.224754
 20
1.793627
 30
0.0
 10
3.222604
 20
1.797045
 30
0.0
 10
3.220730
 20
1.800736
 30
0.0
 10
3.219186
 20
1.804761
 30
0.0
 10
3.218579
 20
1.806962
 30
0.0
 10
3.218193
 20
1.809445
 30
0.0
 10
3.217910
 20
1.812155
 30
0.0
 10
3.218193
 20
1.815519
 30
0.0
 10
3.239469
 20
1.847709
 30
0.0
 10
3.241840
 20
1.851514
 30
0.0
 10
3.244211
 20
1.855315
 30
0.0
 10
3.263338
 20
1.888829
 30
0.0
 10
3.266093
 20
1.890550
 30
0.0
 10
3.268683
 20
1.891708
 30
0.0
 10
3.271054
 20
1.892413
 30
0.0
 10
3.273315
 20
1.892808
 30
0.0
 10
3.277614
 20
1.893344
 30
0.0
 10
3.281748
 20
1.893344
 30
0.0
 10
3.285772
 20
1.893006
 30
0.0
 10
3.289631
 20
1.892300
 30
0.0
 10
3.297127
 20
1.890268
 30
0.0
 10
3.304458
 20
1.887502
 30
0.0
 10
3.311459
 20
1.884088
 30
0.0
 10
3.318239
 20
1.880173
 30
0.0
 10
3.325515
 20
1.877577
 30
0.0
 10
3.333838
 20
1.877915
 30
0.0
 10
3.342382
 20
1.878565
 30
0.0
 10
3.351036
 20
1.879835
 30
0.0
 10
3.359745
 20
1.881584
 30
0.0
 10
3.368620
 20
1.883616
 30
0.0
 10
3.377439
 20
1.886213
 30
0.0
 10
3.384219
 20
1.888471
 30
0.0
 10
3.397173
 20
1.951750
 30
0.0
 10
3.391936
 20
1.956492
 30
0.0
 10
3.384715
 20
1.962334
 30
0.0
 10
3.377439
 20
1.967792
 30
0.0
 10
3.370053
 20
1.972751
 30
0.0
 10
3.362667
 20
1.977382
 30
0.0
 10
3.355115
 20
1.981350
 30
0.0
 10
3.347508
 20
1.984878
 30
0.0
 10
3.339791
 20
1.985386
 30
0.0
 10
3.332019
 20
1.984454
 30
0.0
 10
3.324192
 20
1.984059
 30
0.0
 10
3.316475
 20
1.984341
 30
0.0
 10
3.308758
 20
1.985499
 30
0.0
 10
3.304955
 20
1.986317
 30
0.0
 10
3.301041
 20
1.987531
 30
0.0
 10
3.297237
 20
1.989139
 30
0.0
 10
3.293434
 20
1.991228
 30
0.0
 10
3.291616
 20
1.992554
 30
0.0
 10
3.289632
 20
1.994219
 30
0.0
 10
3.287815
 20
1.996138
 30
0.0
 10
3.285831
 20
1.998961
 30
0.0
 10
3.281532
 20
2.037269
 30
0.0
 10
3.280925
 20
2.041678
 30
0.0
 10
3.280208
 20
2.046089
 30
0.0
 10
3.273318
 20
2.084011
 30
0.0
 10
3.274311
 20
2.087209
 30
0.0
 10
3.275578
 20
2.089692
 30
0.0
 10
3.276902
 20
2.091724
 30
0.0
 10
3.278336
 20
2.093587
 30
0.0
 10
3.281422
 20
2.096674
 30
0.0
 10
3.284619
 20
2.099327
 30
0.0
 10
3.287872
 20
2.101585
 30
0.0
 10
3.291289
 20
2.103561
 30
0.0
 10
3.298400
 20
2.106812
 30
0.0
 10
3.305676
 20
2.109408
 30
0.0
 10
3.313283
 20
2.111214
 30
0.0
 10
3.321000
 20
2.112541
 30
0.0
 10
3.328165
 20
2.115363
 30
0.0
 10
3.334449
 20
2.120928
 30
0.0
 10
3.340513
 20
2.126883
 30
0.0
 10
3.346411
 20
2.133332
 30
0.0
 10
3.351923
 20
2.140331
 30
0.0
 10
3.357380
 20
2.147607
 30
0.0
 10
3.362506
 20
2.155326
 30
0.0
 10
3.366254
 20
2.161278
 30
0.0
 10
3.335497
 20
2.218275
 30
0.0
 10
3.328386
 20
2.218275
 30
0.0
 10
3.319126
 20
2.218275
 30
0.0
 10
3.310086
 20
2.217711
 30
0.0
 10
3.301266
 20
2.216893
 30
0.0
 10
3.292612
 20
2.215566
 30
0.0
 10
3.284179
 20
2.213816
 30
0.0
 10
3.276186
 20
2.211559
 30
0.0
 10
3.269902
 20
2.207037
 30
0.0
 10
3.264555
 20
2.201305
 30
0.0
 10
3.258823
 20
2.196067
 30
0.0
 10
3.252759
 20
2.191219
 30
0.0
 10
3.246145
 20
2.187084
 30
0.0
 10
3.242562
 20
2.185363
 30
0.0
 10
3.238869
 20
2.183810
 30
0.0
 10
3.234955
 20
2.182540
 30
0.0
 10
3.230655
 20
2.181778
 30
0.0
 10
3.228395
 20
2.181440
 30
0.0
 10
3.225914
 20
2.181440
 30
0.0
 10
3.223103
 20
2.181778
 30
0.0
 10
3.219906
 20
2.182710
 30
0.0
 10
3.191849
 20
2.209222
 30
0.0
 10
3.188597
 20
2.212199
 30
0.0
 10
3.185179
 20
2.215177
 30
0.0
 10
3.155469
 20
2.239871
 30
0.0
 10
3.154255
 20
2.242959
 30
0.0
 10
3.153648
 20
2.245668
 30
0.0
 10
3.153318
 20
2.248151
 30
0.0
 10
3.153318
 20
2.250522
 30
0.0
 10
3.153648
 20
2.254823
 30
0.0
 10
3.154365
 20
2.258848
 30
0.0
 10
3.155412
 20
2.262759
 30
0.0
 10
3.156736
 20
2.266454
 30
0.0
 10
3.160098
 20
2.273509
 30
0.0
 10
3.164012
 20
2.280124
 30
0.0
 10
3.168642
 20
2.286353
 30
0.0
 10
3.173714
 20
2.292415
 30
0.0
 10
3.177462
 20
2.299194
 30
0.0
 10
3.178729
 20
2.307463
 30
0.0
 10
3.179446
 20
2.316006
 30
0.0
 10
3.179776
 20
2.324716
 30
0.0
 10
3.179776
 20
2.333535
 30
0.0
 10
3.179169
 20
2.342575
 30
0.0
 10
3.178232
 20
2.351837
 30
0.0
 10
3.177185
 20
2.358836
 30
0.0
 10
3.117048
 20
2.382704
 30
0.0
 10
3.111481
 20
2.378295
 30
0.0
 10
3.104425
 20
2.372230
 30
0.0
 10
3.097810
 20
2.366058
 30
0.0
 10
3.091692
 20
2.359553
 30
0.0
 10
3.085904
 20
2.353104
 30
0.0
 10
3.080557
 20
2.346269
 30
0.0
 10
3.075872
 20
2.339490
 30
0.0
 10
3.073998
 20
2.331938
 30
0.0
 10
3.073611
 20
2.324112
 30
0.0
 10
3.072564
 20
2.316393
 30
0.0
 10
3.070967
 20
2.308787
 30
0.0
 10
3.068596
 20
2.301401
 30
0.0
 10
3.066999
 20
2.297817
 30
0.0
 10
3.065179
 20
2.294289
 30
0.0
 10
3.062918
 20
2.290818
 30
0.0
 10
3.060107
 20
2.287400
 30
0.0
 10
3.058510
 20
2.285791
 30
0.0
 10
3.056636
 20
2.284126
 30
0.0
 10
3.054432
 20
2.282687
 30
0.0
 10
3.051290
 20
2.281248
 30
0.0
 10
3.012760
 20
2.283618
 30
0.0
 10
3.008350
 20
2.283618
 30
0.0
 10
3.003830
 20
2.283618
 30
0.0
 10
2.965300
 20
2.283280
 30
0.0
 10
2.962269
 20
2.284945
 30
0.0
 10
2.960118
 20
2.286610
 30
0.0
 10
2.958298
 20
2.288275
 30
0.0
 10
2.956754
 20
2.289997
 30
0.0
 10
2.954163
 20
2.293524
 30
0.0
 10
2.952233
 20
2.297106
 30
0.0
 10
2.950469
 20
2.300800
 30
0.0
 10
2.949145
 20
2.304491
 30
0.0
 10
2.947161
 20
2.312044
 30
0.0
 10
2.945948
 20
2.319652
 30
0.0
 10
2.945397
 20
2.327422
 30
0.0
 10
2.945397
 20
2.335251
 30
0.0
 10
2.943964
 20
2.342857
 30
0.0
 10
2.939554
 20
2.350022
 30
0.0
 10
2.934703
 20
2.357024
 30
0.0
 10
2.929246
 20
2.363913
 30
0.0
 10
2.923513
 20
2.370582
 30
0.0
 10
2.917230
 20
2.377198
 30
0.0
 10
2.910560
 20
2.383536
 30
0.0
 10
2.905213
 20
2.388278
 30
0.0
 10
2.905439
 20
2.388560
 30
0.0
 10
2.905457
 20
2.388580
 30
0.0
  0
LWPOLYLINE
  5
108
100
AcDbEntity
  8
Layer_1
 62
7
100
AcDbPolyline
 90
8
 70
1
 10
5.999999
 20
6.000004
 30
0.0
 10
5.999999
 20
4.999989
 30
0.0
 10
5.971667
 20
4.999989
 30
0.0
 10
5.971667
 20
5.971618
 30
0.0
 10
4.999984
 20
5.971618
 30
0.0
 10
4.999984
 20
6.000004
 30
0.0
 10
5.999999
 20
6.000004
 30
0.0
 10
5.999999
 20
6.000004
 30
0.0
  0
LWPOLYLINE
  5
109
100
AcDbEntity
  8
Layer_1
 62
7
100
AcDbPolyline
 90
9
 70
1
 10
1.000015
 20
6.000004
 30
0.0
 10
1.000015
 20
5.971618
 30
0.0
 10
0.028332
 20
5.971618
 30
0.0
 10
0.028332
 20
4.999989
 30
0.0
 10
-0.000000
 20
4.999989
 30
0.0
 10
-0.000000
 20
5.985783
 30
0.0
 10
-0.000000
 20
6.000004
 30
0.0
 10
1.000015
 20
6.000004
 30
0.0
 10
1.000015
 20
6.000004
 30
0.0
  0
LWPOLYLINE
  5
10a
100
AcDbEntity
  8
Layer_1
 62
7
100
AcDbPolyline
 90
8
 70
1
 10
5.999999
 20
0.799983
 30
0.0
 10
5.999999
 20
0.000005
 30
0.0
 10
4.999984
 20
0.000005
 30
0.0
 10
4.999984
 20
0.028337
 30
0.0
 10
5.971667
 20
0.028337
 30
0.0
 10
5.971667
 20
0.799983
 30
0.0
 10
5.999999
 20
0.799983
 30
0.0
 10
5.999999
 20
0.799983
 30
0.0
  0
LWPOLYLINE
  5
10b
100
AcDbEntity
  8
Layer_1
 62
7
100
AcDbPolyline
 90
8
 70
1
 10
0.028332
 20
0.799983
 30
0.0
 10
0.028332
 20
0.028337
 30
0.0
 10
1.000015
 20
0.028337
 30
0.0
 10
1.000015
 20
0.000005
 30
0.0
 10
-0.000000
 20
0.000005
 30
0.0
 10
-0.000000
 20
0.799983
 30
0.0
 10
0.028332
 20
0.799983
 30
0.0
 10
0.028332
 20
0.799983
 30
0.0
  0
LWPOLYLINE
  5
10c
100
AcDbEntity
  8
Layer_1
 62
7
100
AcDbPolyline
 90
8
 70
1
 10
6.000001
 20
5.999999
 30
0.0
 10
6.000001
 20
4.999984
 30
0.0
 10
5.971668
 20
4.999984
 30
0.0
 10
5.971668
 20
5.971613
 30
0.0
 10
4.999986
 20
5.971613
 30
0.0
 10
4.999986
 20
5.999999
 30
0.0
 10
6.000001
 20
5.999999
 30
0.0
 10
6.000001
 20
5.999999
 30
0.0
  0
LWPOLYLINE
  5
10d
100
AcDbEntity
  8
Layer_1
 62
7
100
AcDbPolyline
 90
9
 70
1
 10
1.000016
 20
5.999999
 30
0.0
 10
1.000016
 20
5.971613
 30
0.0
 10
0.028334
 20
5.971613
 30
0.0
 10
0.028334
 20
4.999984
 30
0.0
 10
0.000001
 20
4.999984
 30
0.0
 10
0.000001
 20
5.985778
 30
0.0
 10
0.000001
 20
5.999999
 30
0.0
 10
1.000016
 20
5.999999
 30
0.0
 10
1.000016
 20
5.999999
 30
0.0
  0
LWPOLYLINE
  5
10e
100
AcDbEntity
  8
Layer_1
 62
7
100
AcDbPolyline
 90
8
 70
1
 10
6.000001
 20
0.799979
 30
0.0
 10
6.000001
 20
-0.000000
 30
0.0
 10
4.999986
 20
-0.000000
 30
0.0
 10
4.999986
 20
0.028332
 30
0.0
 10
5.971668
 20
0.028332
 30
0.0
 10
5.971668
 20
0.799979
 30
0.0
 10
6.000001
 20
0.799979
 30
0.0
 10
6.000001
 20
0.799979
 30
0.0
  0
LWPOLYLINE
  5
10f
100
AcDbEntity
  8
Layer_1
 62
7
100
AcDbPolyline
 90
8
 70
1
 10
0.028334
 20
0.799979
 30
0.0
 10
0.028334
 20
0.028332
 30
0.0
 10
1.000016
 20
0.028332
 30
0.0
 10
1.000016
 20
-0.000000
 30
0.0
 10
0.000001
 20
-0.000000
 30
0.0
 10
0.000001
 20
0.799979
 30
0.0
 10
0.028334
 20
0.799979
 30
0.0
 10
0.028334
 20
0.799979
 30
0.0
  0
ENDSEC
  0
SECTION
  2
OBJECTS
  0
DICTIONARY
  5
C
330
0
100
AcDbDictionary
  3
ACAD_GROUP
350
D
  3
ACAD_MLINESTYLE
350
17
  0
DICTIONARY
  5
D
330
C
100
AcDbDictionary
  0
DICTIONARY
  5
1A
330
C
100
AcDbDictionary
  0
DICTIONARY
  5
17
330
C
100
AcDbDictionary
  3
STANDARD
350
18
  0
DICTIONARY
  5
19
330
C
100
AcDbDictionary
  0
ENDSEC
  0
EOF
