<?xml version="1.0" encoding="ISO-8859-1" standalone="no"?>
<!DOCTYPE svg PUBLIC "-//W3C//DTD SVG 1.1//EN"
    "http://www.w3.org/Graphics/SVG/1.1/DTD/svg11.dtd">
<svg xmlns="http://www.w3.org/2000/svg"
     xmlns:xlink="http://www.w3.org/1999/xlink" xml:space="preserve"
         width="226px" height="140px"
         viewBox="0 0 226 140"
         zoomAndPan="disable" preserveAspectRatio="none" >
<!-- Made with the gear generator.  http://woodgears.ca/gear   2017-03-16T22:20:46 -->
<!-- G1:Toothspacing=22.59  Teeth=18  Slop=.5  Spur gear  Angle=20.0  Addendum=.2 -->
<!-- G2:Toothspacing=22.59  Teeth=12  Slop=.5  Spur gear  Angle=20.0  Addendum=.2 -->
<!-- G2:Toothspacing=22.59  Teeth=12  Slop=.5  Spur gear  Angle=20.0  Addendum=.2 -->
<polygon id="G1Gear" data-id="0" class="gear" fill="none" fill-opacity="0.2" stroke="#000"  stroke-miterlimit="10"
points =" 128.06 63.01 127.77 59.17 127.99 58.84 128.22 58.59 128.7 58.21 129.19 57.91 129.7 57.68 130.73 57.34
 131.8 57.12 132.86 56.89 133.83 56.27 134.8 55.6 135.75 54.87 136.68 54.09 137.37 53.47 135.65 47.45
 134.74 47.3 133.53 47.13 132.34 47.01 131.16 46.95 130 46.95 128.98 47.31 127.97 47.69 126.91 47.95
 126.35 48.02 125.78 48.04 125.17 47.97 124.84 47.88 124.49 47.71 122.7 44.3 122.27 43.43 120.69 39.92
 120.78 39.53 120.9 39.22 121.22 38.7 121.59 38.25 121.99 37.86 122.84 37.19 123.77 36.62 124.68 36.04
 125.39 35.12 126.07 34.16 126.71 33.15 127.32 32.09 127.76 31.28 124.08 26.22 123.17 26.38 121.98 26.64
 120.82 26.93 119.69 27.28 118.6 27.67 117.77 28.36 116.94 29.06 116.04 29.67 115.54 29.93 115.01 30.14
 114.41 30.28 114.07 30.31 113.68 30.27 110.83 27.68 110.13 27.01 107.44 24.25 107.4 23.86 107.41 23.52
 107.53 22.92 107.72 22.38 107.96 21.87 108.54 20.95 109.21 20.1 109.87 19.24 110.23 18.14 110.53 17
 110.79 15.83 111 14.63 111.13 13.71 105.95 10.21 105.15 10.68 104.12 11.33 103.13 12 102.19 12.71
 101.29 13.45 100.75 14.39 100.21 15.33 99.57 16.21 99.19 16.62 98.76 17 98.25 17.34 97.94 17.48
 97.56 17.58 93.99 16.12 93.11 15.73 89.64 14.06 89.46 13.71 89.36 13.38 89.27 12.78 89.26 12.2
 89.31 11.65 89.54 10.58 89.88 9.55 90.21 8.52 90.16 7.36 90.06 6.19 89.9 5 89.69 3.8
 89.5 2.89 83.43 1.38 82.84 2.09 82.09 3.05 81.4 4.03 80.75 5.01 80.17 6.01 79.98 7.08
 79.8 8.15 79.49 9.2 79.28 9.71 79 10.22 78.64 10.71 78.39 10.95 78.07 11.17 74.22 11.02
 73.26 10.95 69.42 10.57 69.14 10.3 68.93 10.03 68.63 9.49 68.43 8.95 68.29 8.42 68.14 7.33
 68.11 6.25 68.06 5.17 67.62 4.1 67.13 3.03 66.57 1.97 65.97 0.91 65.48 0.12 59.25 0.78
 58.94 1.65 58.57 2.81 58.25 3.96 57.98 5.11 57.77 6.25 57.96 7.32 58.15 8.38 58.23 9.47
 58.2 10.03 58.12 10.6 57.94 11.19 57.79 11.49 57.57 11.81 53.9 12.99 52.97 13.25 49.23 14.2
 48.87 14.05 48.58 13.87 48.12 13.46 47.75 13.03 47.43 12.57 46.92 11.61 46.52 10.6 46.11 9.59
 45.33 8.74 44.5 7.9 43.61 7.1 42.68 6.31 41.95 5.74 36.33 8.48 36.33 9.41 36.38 10.62
 36.47 11.82 36.61 12.99 36.81 14.13 37.35 15.07 37.9 16.01 38.34 17 38.5 17.54 38.62 18.1
 38.65 18.71 38.62 19.05 38.52 19.43 35.47 21.79 34.69 22.35 31.5 24.53 31.11 24.5 30.78 24.43
 30.21 24.21 29.71 23.93 29.25 23.6 28.44 22.88 27.72 22.06 26.99 21.26 25.97 20.72 24.9 20.23
 23.79 19.77 22.65 19.35 21.77 19.06 17.42 23.56 17.74 24.43 18.2 25.56 18.7 26.65 19.23 27.7
 19.8 28.71 20.63 29.41 21.47 30.1 22.22 30.88 22.56 31.33 22.86 31.82 23.1 32.38 23.19 32.71
 23.22 33.1 21.16 36.36 20.62 37.16 18.38 40.29 18 40.4 17.66 40.45 17.05 40.43 16.48 40.34
 15.94 40.19 14.93 39.79 13.98 39.27 13.02 38.77 11.87 38.61 10.7 38.51 9.5 38.46 8.28 38.45
 7.36 38.48 4.81 44.2 5.41 44.91 6.23 45.81 7.06 46.66 7.93 47.47 8.81 48.22 9.83 48.59
 10.85 48.96 11.83 49.44 12.3 49.74 12.75 50.1 13.17 50.54 13.36 50.82 13.53 51.18 12.7 54.94
 12.47 55.88 11.43 59.59 11.11 59.83 10.81 59.99 10.23 60.18 9.67 60.29 9.11 60.33 8.02 60.3
 6.95 60.14 5.87 59.99 4.74 60.24 3.6 60.55 2.46 60.91 1.32 61.32 0.46 61.66 0.02 67.91
 0.82 68.37 1.9 68.94 2.98 69.45 4.07 69.91 5.15 70.32 6.24 70.32 7.32 70.31 8.41 70.43
 8.95 70.55 9.49 70.73 10.04 71.01 10.32 71.21 10.6 71.49 11.11 75.3 11.21 76.26 11.5 80.11
 11.29 80.44 11.06 80.69 10.58 81.07 10.09 81.36 9.58 81.6 8.54 81.94 7.48 82.15 6.42 82.38
 5.44 83 4.48 83.68 3.53 84.41 2.59 85.19 1.9 85.81 3.63 91.82 4.54 91.98 5.75 92.15
 6.94 92.26 8.11 92.32 9.27 92.33 10.29 91.96 11.31 91.59 12.37 91.32 12.92 91.25 13.5 91.24
 14.11 91.31 14.43 91.4 14.79 91.57 16.58 94.98 17 95.85 18.59 99.36 18.5 99.74 18.37 100.06
 18.05 100.58 17.69 101.02 17.29 101.42 16.43 102.09 15.51 102.66 14.59 103.24 13.88 104.15 13.21 105.12
 12.57 106.13 11.95 107.18 11.52 108 15.2 113.06 16.11 112.9 17.3 112.64 18.46 112.34 19.58 112
 20.67 111.61 21.51 110.91 22.33 110.21 23.24 109.6 23.73 109.35 24.27 109.14 24.87 109 25.2 108.97
 25.6 109 28.45 111.6 29.14 112.27 31.83 115.03 31.88 115.42 31.87 115.76 31.75 116.36 31.55 116.9
 31.32 117.4 30.74 118.33 30.07 119.18 29.4 120.04 29.05 121.14 28.75 122.28 28.49 123.45 28.27 124.65
 28.14 125.56 33.33 129.06 34.13 128.6 35.16 127.95 36.15 127.27 37.09 126.56 37.98 125.82 38.53 124.89
 39.06 123.94 39.71 123.06 40.08 122.65 40.51 122.27 41.03 121.94 41.34 121.79 41.72 121.69 45.28 123.15
 46.16 123.55 49.64 125.22 49.82 125.57 49.92 125.89 50.01 126.5 50.02 127.07 49.96 127.63 49.74 128.7
 49.4 129.73 49.07 130.76 49.11 131.92 49.22 133.09 49.37 134.28 49.58 135.48 49.77 136.38 55.84 137.9
 56.44 137.18 57.18 136.22 57.88 135.25 58.52 134.26 59.11 133.26 59.3 132.19 59.48 131.13 59.78 130.08
 60 129.56 60.27 129.06 60.64 128.57 60.88 128.33 61.21 128.1 65.05 128.26 66.02 128.33 69.85 128.71
 70.14 128.98 70.35 129.25 70.64 129.78 70.84 130.32 70.98 130.86 71.14 131.94 71.17 133.02 71.21 134.11
 71.65 135.18 72.15 136.25 72.7 137.31 73.31 138.36 73.8 139.15 80.02 138.5 80.34 137.63 80.71 136.47
 81.03 135.31 81.3 134.17 81.5 133.03 81.32 131.96 81.12 130.89 81.05 129.8 81.08 129.25 81.16 128.68
 81.34 128.09 81.48 127.78 81.71 127.46 85.38 126.29 86.31 126.02 90.04 125.07 90.41 125.23 90.69 125.41
 91.15 125.81 91.53 126.25 91.84 126.71 92.36 127.67 92.76 128.68 93.17 129.68 93.95 130.54 94.78 131.37
 95.66 132.18 96.59 132.96 97.32 133.54 102.95 130.79 102.94 129.87 102.9 128.65 102.81 127.46 102.66 126.29
 102.47 125.15 101.93 124.2 101.38 123.27 100.94 122.27 100.77 121.74 100.66 121.18 100.62 120.56 100.66 120.23
 100.76 119.84 103.81 117.49 104.59 116.92 107.77 114.75 108.17 114.77 108.5 114.84 109.07 115.07 109.57 115.35
 110.02 115.67 110.84 116.4 111.56 117.21 112.28 118.01 113.31 118.55 114.38 119.05 115.49 119.51 116.63 119.93
 117.51 120.21 121.85 115.71 121.53 114.84 121.08 113.72 120.58 112.63 120.05 111.58 119.47 110.57 118.64 109.87
 117.81 109.18 117.05 108.39 116.72 107.95 116.41 107.46 116.17 106.9 116.09 106.57 116.05 106.17 118.11 102.92
 118.65 102.12 120.9 98.99 121.28 98.87 121.61 98.83 122.23 98.84 122.79 98.94 123.33 99.08 124.34 99.49
 125.3 100.01 126.26 100.51 127.41 100.67 128.58 100.77 129.78 100.82 130.99 100.82 131.92 100.79 134.46 95.07
 133.87 94.37 133.05 93.47 132.21 92.61 131.35 91.81 130.47 91.06 129.45 90.68 128.43 90.32 127.45 89.84
 126.98 89.54 126.53 89.18 126.11 88.73 125.92 88.45 125.75 88.09 126.57 84.33 126.81 83.39 127.85 79.68
 128.16 79.45 128.46 79.29 129.04 79.09 129.61 78.99 130.16 78.94 131.26 78.98 132.33 79.14 133.4 79.28
 134.53 79.04 135.67 78.73 136.81 78.37 137.96 77.96 138.82 77.61 139.25 71.37 138.45 70.91 137.38 70.34
 136.29 69.82 135.21 69.36 134.12 68.96 133.04 68.96 131.96 68.96 130.87 68.85 130.33 68.72 129.78 68.54
 129.23 68.27 128.96 68.07 128.68 67.79 128.16 63.97"/>
<polygon id="G1Gear" data-id="0" class="gear" fill="none" fill-opacity="0.2" stroke="#000"  stroke-miterlimit="10"
points =" 106.35 66.16 114.54 63.81 118.16 66.3 118.27 69.68 118.15 73.07 117.79 76.43 117.2 79.77 116.38 83.05
 115.34 86.27 114.07 89.41 112.59 92.45 110.9 95.39 109 98.19 106.92 100.86 104.66 103.38 100.29 102.96
 95.53 95.9 95.95 90.46 98.93 86 101.17 81.11 102.6 75.94 103.18 70.6"/>
<polygon id="G1Gear" data-id="0" class="gear" fill="none" fill-opacity="0.2" stroke="#000"  stroke-miterlimit="10"
points =" 84.29 103.48 89.05 110.54 87.8 114.75 84.62 115.9 81.37 116.84 78.06 117.54 74.7 118.01 71.33 118.24
 67.94 118.24 64.56 118.01 61.21 117.54 57.9 116.83 54.64 115.9 51.46 114.75 48.37 113.37 47.42 109.09
 52.66 102.38 57.96 101.1 63.13 102.56 68.47 103.17 73.83 102.93 79.09 101.83"/>
<polygon id="G1Gear" data-id="0" class="gear" fill="none" fill-opacity="0.2" stroke="#000"  stroke-miterlimit="10"
points =" 41.98 94.03 36.73 100.74 32.35 100.86 30.27 98.19 28.38 95.38 26.68 92.45 25.2 89.4 23.93 86.26
 22.89 83.04 22.07 79.76 21.48 76.42 21.13 73.06 21.01 69.68 21.12 66.29 21.47 62.92 25.25 60.69
 33.25 63.61 36.11 68.25 36.32 73.62 37.38 78.89 39.27 83.92 41.94 88.58"/>
<polygon id="G1Gear" data-id="0" class="gear" fill="none" fill-opacity="0.2" stroke="#000"  stroke-miterlimit="10"
points =" 37.89 50.87 29.89 47.96 28.42 43.82 30.32 41.01 32.41 38.35 34.67 35.83 37.11 33.48 39.7 31.31
 42.44 29.32 45.31 27.53 48.3 25.94 51.39 24.56 54.57 23.4 57.83 22.46 61.14 21.75 64.43 24.66
 64.13 33.17 60.59 37.33 55.55 39.18 50.87 41.82 46.68 45.17 43.07 49.15"/>
<polygon id="G1Gear" data-id="0" class="gear" fill="none" fill-opacity="0.2" stroke="#000"  stroke-miterlimit="10"
points =" 77.68 33.64 77.97 25.13 81.46 22.46 84.71 23.4 87.89 24.56 90.98 25.94 93.97 27.53 96.84 29.32
 99.58 31.31 102.17 33.49 104.61 35.84 106.87 38.36 108.96 41.02 110.86 43.83 112.55 46.76 110.81 50.78
 102.62 53.13 97.57 51.05 94.25 46.83 90.3 43.2 85.81 40.24 80.91 38.03"/>
<circle id="G1_sh" cx="69.64" cy="69.64" r="20" stroke="#000"  fill="none"/>
<polygon id="G2Gear" data-id="0" class="gear" fill="none" fill-opacity="0.2" stroke="#000"  stroke-miterlimit="10"
points =" 142.2 57.83 141.84 58.35 141.59 58.53 141.37 58.64 141.16 58.72 140.95 58.78 140.56 58.85 140.17 58.87
 139.8 58.87 139.43 58.84 138.71 58.71 138.02 58.53 137.33 58.28 136.66 58 135.94 57.9 135.17 57.98
 134.39 58.09 133.6 58.25 132.81 58.43 132.01 58.65 131.21 58.9 130.6 59.11 129.65 65.16 130.16 65.54
 130.84 66.03 131.53 66.48 132.23 66.91 132.93 67.29 133.64 67.65 134.35 67.96 135.07 68.09 135.79 68.02
 136.51 68 137.24 68.04 137.96 68.15 138.31 68.23 138.67 68.34 139.03 68.48 139.38 68.67 139.56 68.79
 139.74 68.93 139.92 69.11 140.1 69.35 140.28 69.96 141.02 77.06 140.97 77.7 140.85 77.97 140.71 78.18
 140.57 78.35 140.42 78.51 140.11 78.77 139.79 78.98 139.46 79.16 139.13 79.32 138.45 79.57 137.75 79.76
 137.04 79.89 136.31 79.98 135.64 80.25 135.01 80.71 134.39 81.2 133.79 81.72 133.19 82.28 132.61 82.87
 132.04 83.49 131.62 83.97 133.82 89.69 134.45 89.76 135.29 89.84 136.11 89.89 136.93 89.91 137.73 89.89
 138.52 89.85 139.29 89.76 139.98 89.52 140.57 89.09 141.19 88.72 141.83 88.39 142.51 88.12 142.86 88.01
 143.23 87.93 143.61 87.88 144.01 87.86 144.22 87.87 144.45 87.91 144.69 87.97 144.96 88.09 145.43 88.53
 149.62 94.31 149.9 94.88 149.93 95.18 149.91 95.43 149.87 95.65 149.82 95.86 149.68 96.24 149.51 96.58
 149.32 96.91 149.11 97.21 148.65 97.77 148.14 98.28 147.59 98.75 147 99.18 146.55 99.76 146.24 100.47
 145.95 101.2 145.68 101.96 145.45 102.74 145.24 103.54 145.06 104.36 144.94 104.99 149.69 108.84 150.28 108.59
 151.05 108.24 151.79 107.87 152.5 107.48 153.19 107.07 153.84 106.63 154.47 106.17 154.94 105.61 155.25 104.95
 155.59 104.32 155.99 103.71 156.44 103.14 156.69 102.87 156.96 102.62 157.27 102.38 157.61 102.17 157.8 102.07
 158.01 101.99 158.25 101.92 158.55 101.89 159.17 102.04 165.69 104.94 166.22 105.3 166.39 105.55 166.5 105.77
 166.58 105.98 166.64 106.19 166.71 106.58 166.74 106.97 166.73 107.34 166.7 107.71 166.58 108.43 166.39 109.12
 166.15 109.81 165.86 110.48 165.76 111.2 165.84 111.97 165.96 112.75 166.11 113.54 166.3 114.33 166.51 115.13
 166.77 115.93 166.97 116.54 173.02 117.49 173.41 116.98 173.89 116.3 174.35 115.61 174.77 114.91 175.16 114.21
 175.51 113.5 175.82 112.79 175.95 112.07 175.89 111.35 175.87 110.63 175.91 109.9 176.01 109.18 176.09 108.83
 176.2 108.47 176.35 108.11 176.54 107.75 176.65 107.58 176.8 107.4 176.97 107.22 177.21 107.04 177.82 106.86
 184.93 106.12 185.56 106.17 185.83 106.29 186.04 106.43 186.22 106.57 186.37 106.72 186.63 107.03 186.84 107.35
 187.03 107.68 187.18 108.01 187.43 108.69 187.62 109.39 187.75 110.1 187.84 110.83 188.12 111.5 188.57 112.13
 189.06 112.75 189.59 113.35 190.14 113.95 190.73 114.53 191.35 115.1 191.83 115.52 197.55 113.32 197.63 112.69
 197.71 111.85 197.76 111.03 197.77 110.21 197.76 109.41 197.71 108.62 197.63 107.85 197.38 107.16 196.96 106.57
 196.58 105.95 196.25 105.31 195.98 104.63 195.88 104.28 195.79 103.91 195.74 103.53 195.72 103.13 195.74 102.92
 195.77 102.69 195.83 102.45 195.95 102.18 196.39 101.71 202.17 97.52 202.75 97.24 203.04 97.21 203.29 97.23
 203.52 97.27 203.72 97.32 204.1 97.46 204.45 97.63 204.77 97.82 205.07 98.03 205.63 98.49 206.14 99
 206.61 99.55 207.05 100.14 207.63 100.59 208.33 100.9 209.07 101.19 209.82 101.45 210.6 101.69 211.41 101.9
 212.23 102.08 212.85 102.2 216.71 97.45 216.46 96.86 216.11 96.09 215.74 95.35 215.34 94.64 214.93 93.95
 214.49 93.3 214.04 92.67 213.48 92.2 212.82 91.89 212.18 91.55 211.57 91.15 211 90.7 210.74 90.45
 210.48 90.18 210.24 89.87 210.03 89.53 209.93 89.34 209.85 89.13 209.79 88.89 209.75 88.59 209.9 87.97
 212.8 81.45 213.17 80.92 213.41 80.75 213.63 80.64 213.85 80.56 214.05 80.5 214.45 80.43 214.83 80.4
 215.21 80.41 215.57 80.44 216.29 80.56 216.99 80.75 217.67 80.99 218.34 81.28 219.06 81.38 219.84 81.3
 220.62 81.18 221.4 81.03 222.2 80.84 222.99 80.63 223.8 80.37 224.4 80.16 225.36 74.12 224.85 73.73
 224.16 73.25 223.47 72.79 222.77 72.37 222.07 71.98 221.37 71.63 220.66 71.32 219.94 71.19 219.21 71.25
 218.49 71.27 217.77 71.23 217.05 71.13 216.69 71.05 216.33 70.93 215.98 70.79 215.62 70.6 215.44 70.49
 215.26 70.34 215.09 70.17 214.91 69.93 214.73 69.32 213.98 62.21 214.03 61.58 214.15 61.31 214.29 61.1
 214.44 60.92 214.59 60.77 214.89 60.51 215.21 60.3 215.54 60.11 215.87 59.96 216.56 59.71 217.25 59.52
 217.97 59.39 218.69 59.3 219.36 59.02 219.99 58.57 220.61 58.08 221.22 57.55 221.81 57 222.39 56.41
 222.96 55.79 223.38 55.31 221.19 49.59 220.55 49.51 219.72 49.43 218.89 49.38 218.07 49.37 217.27 49.38
 216.49 49.43 215.71 49.51 215.03 49.76 214.43 50.18 213.81 50.56 213.17 50.89 212.5 51.16 212.14 51.26
 211.78 51.35 211.4 51.4 210.99 51.42 210.78 51.4 210.56 51.37 210.32 51.31 210.04 51.19 209.58 50.75
 205.38 44.97 205.11 44.39 205.08 44.1 205.09 43.85 205.13 43.62 205.18 43.42 205.32 43.04 205.49 42.69
 205.68 42.37 205.89 42.07 206.36 41.51 206.87 41 207.42 40.53 208 40.09 208.45 39.51 208.77 38.81
 209.06 38.07 209.32 37.31 209.55 36.53 209.76 35.73 209.95 34.91 210.07 34.29 205.31 30.43 204.72 30.68
 203.96 31.03 203.22 31.4 202.5 31.8 201.82 32.21 201.16 32.65 200.53 33.1 200.06 33.66 199.76 34.32
 199.41 34.96 199.02 35.57 198.57 36.14 198.31 36.4 198.04 36.66 197.74 36.9 197.4 37.11 197.21 37.21
 196.99 37.29 196.75 37.35 196.46 37.39 195.84 37.24 189.31 34.33 188.79 33.97 188.61 33.73 188.5 33.51
 188.42 33.29 188.36 33.09 188.29 32.69 188.27 32.31 188.27 31.93 188.3 31.57 188.43 30.85 188.61 30.15
 188.85 29.47 189.14 28.8 189.24 28.08 189.16 27.3 189.05 26.52 188.89 25.74 188.71 24.94 188.49 24.15
 188.24 23.34 188.03 22.74 181.98 21.78 181.6 22.29 181.11 22.98 180.65 23.67 180.23 24.36 179.85 25.07
 179.49 25.77 179.18 26.48 179.05 27.2 179.12 27.93 179.14 28.65 179.1 29.37 178.99 30.09 178.91 30.45
 178.8 30.81 178.66 31.16 178.47 31.52 178.35 31.7 178.21 31.88 178.03 32.05 177.79 32.23 177.18 32.41
 170.08 33.16 169.44 33.11 169.17 32.99 168.96 32.85 168.78 32.7 168.63 32.55 168.37 32.25 168.16 31.93
 167.98 31.6 167.82 31.27 167.57 30.58 167.38 29.89 167.25 29.17 167.16 28.45 166.89 27.77 166.43 27.15
 165.94 26.53 165.42 25.92 164.86 25.33 164.27 24.75 163.65 24.18 163.17 23.76 157.45 25.95 157.38 26.59
 157.3 27.42 157.25 28.25 157.23 29.06 157.25 29.87 157.29 30.65 157.38 31.43 157.62 32.11 158.05 32.71
 158.42 33.33 158.75 33.97 159.02 34.64 159.13 35 159.21 35.36 159.26 35.74 159.28 36.14 159.27 36.36
 159.23 36.58 159.17 36.82 159.05 37.1 158.61 37.56 152.83 41.76 152.26 42.03 151.96 42.06 151.71 42.05
 151.49 42.01 151.28 41.96 150.9 41.82 150.56 41.65 150.23 41.46 149.93 41.25 149.37 40.78 148.86 40.27
 148.39 39.72 147.96 39.14 147.38 38.69 146.67 38.37 145.94 38.08 145.18 37.82 144.4 37.59 143.6 37.38
 142.78 37.19 142.15 37.07 138.3 41.83 138.55 42.42 138.9 43.18 139.27 43.92 139.66 44.64 140.07 45.32
 140.51 45.98 140.97 46.61 141.52 47.08 142.19 47.38 142.82 47.73 143.43 48.12 144 48.57 144.27 48.83
 144.52 49.1 144.76 49.4 144.97 49.74 145.07 49.93 145.15 50.15 145.22 50.39 145.25 50.68 145.1 51.3
"/>
<circle id="G2_sh" cx="177.5" cy="69.64" r="20" stroke="#000"  fill="none"/>
</svg>
