  0
SECTION
  2
HEADER
  9
$ACADVER
  1
AC1014
  9
$HANDSEED
  5
FFFF
  9
$MEASUREMENT
 70
     1
  0
ENDSEC
  0
SECTION
  2
TABLES
  0
TABLE
  2
VPORT
  5
8
330
0
100
AcDbSymbolTable
 70
     4
  0
VPORT
  5
2E
330
8
100
AcDbSymbolTableRecord
100
AcDbViewportTableRecord
  2
*ACTIVE
 70
     0
 10
0.0
 20
0.0
 11
1.0
 21
1.0
 12
210.0
 22
148.5
 13
0.0
 23
0.0
 14
10.0
 24
10.0
 15
10.0
 25
10.0
 16
0.0
 26
0.0
 36
1.0
 17
0.0
 27
0.0
 37
0.0
 40
341.0
 41
1.24
 42
50.0
 43
0.0
 44
0.0
 50
0.0
 51
0.0
 71
     0
 72
   100
 73
     1
 74
     3
 75
     0
 76
     0
 77
     0
 78
     0
  0
ENDTAB
  0
TABLE
  2
LTYPE
  5
5
330
0
100
AcDbSymbolTable
 70
     1
  0
LTYPE
  5
14
330
5
100
AcDbSymbolTableRecord
100
AcDbLinetypeTableRecord
  2
BYBLOCK
 70
     0
  3

 72
    65
 73
     0
 40
0.0
  0
LTYPE
  5
15
330
5
100
AcDbSymbolTableRecord
100
AcDbLinetypeTableRecord
  2
BYLAYER
 70
     0
  3

 72
    65
 73
     0
 40
0.0
  0
LTYPE
  5
16
330
5
100
AcDbSymbolTableRecord
100
AcDbLinetypeTableRecord
  2
CONTINUOUS
 70
     0
  3
Solid line
 72
    65
 73
     0
 40
0.0
  0
ENDTAB
  0
TABLE
  2
LAYER
  5
2
100
AcDbSymbolTable
 70
2
  0
LAYER
  5
50
100
AcDbSymbolTableRecord
100
AcDbLayerTableRecord
  2
0
 70
0
  6
CONTINUOUS
  0
LAYER
  5
51
100
AcDbSymbolTableRecord
100
AcDbLayerTableRecord
  2
Layer_1
 70
0
  6
CONTINUOUS
  0
ENDTAB
  0
TABLE
  2
STYLE
  5
3
330
0
100
AcDbSymbolTable
 70
     1
  0
STYLE
  5
11
330
3
100
AcDbSymbolTableRecord
100
AcDbTextStyleTableRecord
  2
STANDARD
 70
     0
 40
0.0
 41
1.0
 50
0.0
 71
     0
 42
2.5
  3
txt
  4

  0
ENDTAB
  0
TABLE
  2
VIEW
  5
6
330
0
100
AcDbSymbolTable
 70
     0
  0
ENDTAB
  0
TABLE
  2
UCS
  5
7
330
0
100
AcDbSymbolTable
 70
     0
  0
ENDTAB
  0
TABLE
  2
APPID
  5
9
330
0
100
AcDbSymbolTable
 70
     2
  0
APPID
  5
12
330
9
100
AcDbSymbolTableRecord
100
AcDbRegAppTableRecord
  2
ACAD
 70
     0
  0
ENDTAB
  0
TABLE
  2
DIMSTYLE
  5
A
330
0
100
AcDbSymbolTable
 70
     1
  0
DIMSTYLE
105
27
330
A
100
AcDbSymbolTableRecord
100
AcDbDimStyleTableRecord
  2
ISO-25
 70
     0
  3

  4

  5

  6

  7

 40
1.0
 41
2.5
 42
0.625
 43
3.75
 44
1.25
 45
0.0
 46
0.0
 47
0.0
 48
0.0
140
2.5
141
2.5
142
0.0
143
0.03937007874016
144
1.0
145
0.0
146
1.0
147
0.625
 71
     0
 72
     0
 73
     0
 74
     0
 75
     0
 76
     0
 77
     1
 78
     8
170
     0
171
     3
172
     1
173
     0
174
     0
175
     0
176
     0
177
     0
178
     0
270
     2
271
     2
272
     2
273
     2
274
     3
340
11
275
     0
280
     0
281
     0
282
     0
283
     0
284
     8
285
     0
286
     0
287
     3
288
     0
  0
ENDTAB
  0
TABLE
  2
BLOCK_RECORD
  5
1
330
0
100
AcDbSymbolTable
 70
     1
  0
BLOCK_RECORD
  5
1F
330
1
100
AcDbSymbolTableRecord
100
AcDbBlockTableRecord
  2
*MODEL_SPACE
  0
BLOCK_RECORD
  5
1B
330
1
100
AcDbSymbolTableRecord
100
AcDbBlockTableRecord
  2
*PAPER_SPACE
  0
ENDTAB
  0
ENDSEC
  0
SECTION
  2
BLOCKS
  0
BLOCK
  5
20
330
1F
100
AcDbEntity
  8
0
100
AcDbBlockBegin
  2
*MODEL_SPACE
 70
     0
 10
0.0
 20
0.0
 30
0.0
  3
*MODEL_SPACE
  1

  0
ENDBLK
  5
21
330
1F
100
AcDbEntity
  8
0
100
AcDbBlockEnd
  0
BLOCK
  5
1C
330
1B
100
AcDbEntity
 67
     1
  8
0
100
AcDbBlockBegin
  2
*PAPER_SPACE
  1

  0
ENDBLK
  5
1D
330
1B
100
AcDbEntity
 67
     1
  8
0
100
AcDbBlockEnd
  0
ENDSEC
  0
SECTION
  2
ENTITIES
  0
LWPOLYLINE
  5
100
100
AcDbEntity
  8
Layer_1
 62
7
100
AcDbPolyline
 90
25
 70
0
 10
7.410703
 20
10.800634
 30
0.0
 10
7.410703
 20
10.800579
 30
0.0
 10
7.410703
 20
10.800303
 30
0.0
 10
3.301173
 20
10.800303
 30
0.0
 10
3.299905
 20
10.800579
 30
0.0
 10
3.299905
 20
10.800303
 30
0.0
 10
3.299795
 20
10.800303
 30
0.0
 10
3.299795
 20
10.800579
 30
0.0
 10
3.299740
 20
10.800579
 30
0.0
 10
3.296819
 20
10.800303
 30
0.0
 10
2.998115
 20
10.800303
 30
0.0
 10
1.999974
 20
10.800303
 30
0.0
 10
1.999864
 20
10.800303
 30
0.0
 10
1.999864
 20
10.700368
 30
0.0
 10
1.999864
 20
0.100388
 30
0.0
 10
1.999864
 20
0.000453
 30
0.0
 10
12.799880
 20
0.000453
 30
0.0
 10
12.799880
 20
0.100388
 30
0.0
 10
12.799880
 20
10.800358
 30
0.0
 10
8.462422
 20
10.800358
 30
0.0
 10
8.460162
 20
10.800358
 30
0.0
 10
8.373401
 20
10.800358
 30
0.0
 10
7.439091
 20
10.800358
 30
0.0
 10
7.410703
 20
10.800634
 30
0.0
 10
7.410703
 20
10.800634
 30
0.0
  0
LWPOLYLINE
  5
101
100
AcDbEntity
  8
Layer_1
 62
7
100
AcDbPolyline
 90
127
 70
0
 10
7.200415
 20
10.700588
 30
0.0
 10
7.495811
 20
10.700588
 30
0.0
 10
7.496307
 20
10.700092
 30
0.0
 10
10.364225
 20
10.700092
 30
0.0
 10
10.799079
 20
10.313586
 30
0.0
 10
11.164021
 20
9.953631
 30
0.0
 10
11.324514
 20
9.779079
 30
0.0
 10
11.472615
 20
9.605727
 30
0.0
 10
11.610020
 20
9.431765
 30
0.0
 10
11.738425
 20
9.255379
 30
0.0
 10
11.975014
 20
8.888089
 30
0.0
 10
12.195947
 20
8.489359
 30
0.0
 10
12.414787
 20
8.044692
 30
0.0
 10
12.645099
 20
7.539589
 30
0.0
 10
12.665081
 20
7.434823
 30
0.0
 10
12.656850
 20
7.337266
 30
0.0
 10
12.618627
 20
7.246654
 30
0.0
 10
12.548636
 20
7.162724
 30
0.0
 10
12.501258
 20
7.126327
 30
0.0
 10
12.443672
 20
7.093325
 30
0.0
 10
12.318780
 20
7.040850
 30
0.0
 10
12.259799
 20
7.022053
 30
0.0
 10
12.257319
 20
7.029715
 30
0.0
 10
12.215427
 20
7.009651
 30
0.0
 10
12.173479
 20
6.999619
 30
0.0
 10
12.175353
 20
6.990469
 30
0.0
 10
12.166203
 20
6.986059
 30
0.0
 10
12.277093
 20
6.604807
 30
0.0
 10
12.357982
 20
6.212477
 30
0.0
 10
12.407611
 20
5.810463
 30
0.0
 10
12.424723
 20
5.400157
 30
0.0
 10
12.418184
 20
5.141570
 30
0.0
 10
12.398779
 20
4.886378
 30
0.0
 10
12.366823
 20
4.634896
 30
0.0
 10
12.322632
 20
4.387441
 30
0.0
 10
12.266522
 20
4.144327
 30
0.0
 10
12.198809
 20
3.905871
 30
0.0
 10
12.119808
 20
3.672388
 30
0.0
 10
12.029835
 20
3.444194
 30
0.0
 10
11.929205
 20
3.221605
 30
0.0
 10
11.818235
 20
3.004937
 30
0.0
 10
11.697240
 20
2.794504
 30
0.0
 10
11.566536
 20
2.590624
 30
0.0
 10
11.426439
 20
2.393612
 30
0.0
 10
11.277264
 20
2.203783
 30
0.0
 10
11.119326
 20
2.021453
 30
0.0
 10
10.952943
 20
1.846938
 30
0.0
 10
10.778429
 20
1.680554
 30
0.0
 10
10.596100
 20
1.522616
 30
0.0
 10
10.406272
 20
1.373441
 30
0.0
 10
10.209260
 20
1.233343
 30
0.0
 10
10.005381
 20
1.102639
 30
0.0
 10
9.794949
 20
0.981644
 30
0.0
 10
9.578282
 20
0.870674
 30
0.0
 10
9.355694
 20
0.770045
 30
0.0
 10
9.127501
 20
0.680073
 30
0.0
 10
8.894019
 20
0.601072
 30
0.0
 10
8.655563
 20
0.533360
 30
0.0
 10
8.412450
 20
0.477251
 30
0.0
 10
8.164995
 20
0.433062
 30
0.0
 10
7.913513
 20
0.401108
 30
0.0
 10
7.658321
 20
0.381705
 30
0.0
 10
7.399734
 20
0.375169
 30
0.0
 10
7.141150
 20
0.381708
 30
0.0
 10
6.885960
 20
0.401114
 30
0.0
 10
6.634480
 20
0.433070
 30
0.0
 10
6.387026
 20
0.477261
 30
0.0
 10
6.143913
 20
0.533372
 30
0.0
 10
5.905457
 20
0.601086
 30
0.0
 10
5.671974
 20
0.680088
 30
0.0
 10
5.443780
 20
0.770061
 30
0.0
 10
5.221191
 20
0.870692
 30
0.0
 10
5.004521
 20
0.981662
 30
0.0
 10
4.794088
 20
1.102658
 30
0.0
 10
4.590206
 20
1.233363
 30
0.0
 10
4.393192
 20
1.373461
 30
0.0
 10
4.203361
 20
1.522637
 30
0.0
 10
4.021029
 20
1.680574
 30
0.0
 10
3.846511
 20
1.846958
 30
0.0
 10
3.680125
 20
2.021473
 30
0.0
 10
3.522184
 20
2.203802
 30
0.0
 10
3.373005
 20
2.393631
 30
0.0
 10
3.232904
 20
2.590642
 30
0.0
 10
3.102197
 20
2.794522
 30
0.0
 10
2.981199
 20
3.004953
 30
0.0
 10
2.870226
 20
3.221620
 30
0.0
 10
2.769593
 20
3.444208
 30
0.0
 10
2.679617
 20
3.672400
 30
0.0
 10
2.600613
 20
3.905882
 30
0.0
 10
2.532898
 20
4.144336
 30
0.0
 10
2.476786
 20
4.387448
 30
0.0
 10
2.432593
 20
4.634902
 30
0.0
 10
2.400636
 20
4.886382
 30
0.0
 10
2.381230
 20
5.141573
 30
0.0
 10
2.374690
 20
5.400157
 30
0.0
 10
2.384264
 20
5.710310
 30
0.0
 10
2.412413
 20
6.015678
 30
0.0
 10
2.458594
 20
6.315692
 30
0.0
 10
2.522265
 20
6.609784
 30
0.0
 10
2.602884
 20
6.897384
 30
0.0
 10
2.699909
 20
7.177922
 30
0.0
 10
2.812798
 20
7.450830
 30
0.0
 10
2.941009
 20
7.715537
 30
0.0
 10
2.941009
 20
7.709915
 30
0.0
 10
3.101440
 20
7.995776
 30
0.0
 10
3.279595
 20
8.269706
 30
0.0
 10
3.474698
 20
8.530927
 30
0.0
 10
3.685972
 20
8.778662
 30
0.0
 10
3.912641
 20
9.012134
 30
0.0
 10
4.153929
 20
9.230565
 30
0.0
 10
4.409057
 20
9.433180
 30
0.0
 10
4.677250
 20
9.619200
 30
0.0
 10
4.957730
 20
9.787849
 30
0.0
 10
5.249723
 20
9.938349
 30
0.0
 10
5.552449
 20
10.069924
 30
0.0
 10
5.865134
 20
10.181795
 30
0.0
 10
6.187000
 20
10.273187
 30
0.0
 10
6.517270
 20
10.343322
 30
0.0
 10
6.855169
 20
10.391423
 30
0.0
 10
7.199919
 20
10.416713
 30
0.0
 10
7.199919
 20
10.500552
 30
0.0
 10
7.199919
 20
10.515766
 30
0.0
 10
7.199919
 20
10.699596
 30
0.0
 10
7.199478
 20
10.700092
 30
0.0
 10
7.199919
 20
10.700092
 30
0.0
 10
7.200415
 20
10.700588
 30
0.0
 10
7.200415
 20
10.700588
 30
0.0
  0
LWPOLYLINE
  5
102
100
AcDbEntity
  8
Layer_1
 62
7
100
AcDbPolyline
 90
126
 70
0
 10
3.012777
 20
10.700313
 30
0.0
 10
3.296819
 20
10.700313
 30
0.0
 10
3.298086
 20
10.700313
 30
0.0
 10
3.298086
 20
10.700037
 30
0.0
 10
3.299740
 20
10.700037
 30
0.0
 10
3.299905
 20
10.700037
 30
0.0
 10
3.300401
 20
10.700037
 30
0.0
 10
3.301118
 20
10.700037
 30
0.0
 10
6.621418
 20
10.700037
 30
0.0
 10
6.800508
 20
10.700037
 30
0.0
 10
7.100480
 20
10.700037
 30
0.0
 10
7.099928
 20
10.699541
 30
0.0
 10
7.099928
 20
10.510695
 30
0.0
 10
6.866351
 20
10.491857
 30
0.0
 10
6.635839
 20
10.462689
 30
0.0
 10
6.408626
 20
10.423424
 30
0.0
 10
6.184946
 20
10.374293
 30
0.0
 10
5.965034
 20
10.315531
 30
0.0
 10
5.749126
 20
10.247370
 30
0.0
 10
5.537454
 20
10.170042
 30
0.0
 10
5.330255
 20
10.083781
 30
0.0
 10
5.127763
 20
9.988819
 30
0.0
 10
4.930212
 20
9.885389
 30
0.0
 10
4.737837
 20
9.773725
 30
0.0
 10
4.550873
 20
9.654058
 30
0.0
 10
4.369554
 20
9.526622
 30
0.0
 10
4.194115
 20
9.391649
 30
0.0
 10
4.024790
 20
9.249372
 30
0.0
 10
3.861814
 20
9.100025
 30
0.0
 10
3.859003
 20
9.100025
 30
0.0
 10
3.680029
 20
8.920256
 30
0.0
 10
3.510132
 20
8.731933
 30
0.0
 10
3.349652
 20
8.535418
 30
0.0
 10
3.198928
 20
8.331074
 30
0.0
 10
3.058301
 20
8.119263
 30
0.0
 10
2.928111
 20
7.900347
 30
0.0
 10
2.808697
 20
7.674690
 30
0.0
 10
2.700400
 20
7.442654
 30
0.0
 10
2.603560
 20
7.204601
 30
0.0
 10
2.518517
 20
6.960893
 30
0.0
 10
2.445611
 20
6.711894
 30
0.0
 10
2.385181
 20
6.457966
 30
0.0
 10
2.337568
 20
6.199471
 30
0.0
 10
2.303112
 20
5.936772
 30
0.0
 10
2.282153
 20
5.670232
 30
0.0
 10
2.275031
 20
5.400213
 30
0.0
 10
2.281703
 20
5.136586
 30
0.0
 10
2.301505
 20
4.876408
 30
0.0
 10
2.334112
 20
4.620002
 30
0.0
 10
2.379203
 20
4.367690
 30
0.0
 10
2.436455
 20
4.119795
 30
0.0
 10
2.505545
 20
3.876640
 30
0.0
 10
2.586150
 20
3.638547
 30
0.0
 10
2.677949
 20
3.405839
 30
0.0
 10
2.780617
 20
3.178838
 30
0.0
 10
2.893833
 20
2.957868
 30
0.0
 10
3.017274
 20
2.743250
 30
0.0
 10
3.150616
 20
2.535309
 30
0.0
 10
3.293539
 20
2.334365
 30
0.0
 10
3.445718
 20
2.140742
 30
0.0
 10
3.606831
 20
1.954763
 30
0.0
 10
3.776556
 20
1.776750
 30
0.0
 10
3.954569
 20
1.607026
 30
0.0
 10
4.140549
 20
1.445913
 30
0.0
 10
4.334172
 20
1.293735
 30
0.0
 10
4.535116
 20
1.150813
 30
0.0
 10
4.743057
 20
1.017471
 30
0.0
 10
4.957675
 20
0.894031
 30
0.0
 10
5.178645
 20
0.780816
 30
0.0
 10
5.405645
 20
0.678148
 30
0.0
 10
5.638353
 20
0.586350
 30
0.0
 10
5.876445
 20
0.505746
 30
0.0
 10
6.119600
 20
0.436656
 30
0.0
 10
6.367494
 20
0.379405
 30
0.0
 10
6.619804
 20
0.334314
 30
0.0
 10
6.876209
 20
0.301707
 30
0.0
 10
7.136385
 20
0.281906
 30
0.0
 10
7.400010
 20
0.275233
 30
0.0
 10
7.663639
 20
0.281903
 30
0.0
 10
7.923818
 20
0.301702
 30
0.0
 10
8.180227
 20
0.334306
 30
0.0
 10
8.432541
 20
0.379395
 30
0.0
 10
8.680438
 20
0.436644
 30
0.0
 10
8.923595
 20
0.505732
 30
0.0
 10
9.161691
 20
0.586336
 30
0.0
 10
9.394401
 20
0.678132
 30
0.0
 10
9.621404
 20
0.780799
 30
0.0
 10
9.842376
 20
0.894013
 30
0.0
 10
10.056996
 20
1.017452
 30
0.0
 10
10.264940
 20
1.150794
 30
0.0
 10
10.465886
 20
1.293715
 30
0.0
 10
10.659511
 20
1.445893
 30
0.0
 10
10.845492
 20
1.607006
 30
0.0
 10
11.023507
 20
1.776730
 30
0.0
 10
11.193234
 20
1.954743
 30
0.0
 10
11.354348
 20
2.140723
 30
0.0
 10
11.506529
 20
2.334346
 30
0.0
 10
11.649452
 20
2.535290
 30
0.0
 10
11.782796
 20
2.743233
 30
0.0
 10
11.906238
 20
2.957851
 30
0.0
 10
12.019454
 20
3.178823
 30
0.0
 10
12.122124
 20
3.405825
 30
0.0
 10
12.213923
 20
3.638534
 30
0.0
 10
12.294529
 20
3.876629
 30
0.0
 10
12.363619
 20
4.119785
 30
0.0
 10
12.420871
 20
4.367682
 30
0.0
 10
12.465962
 20
4.619996
 30
0.0
 10
12.498570
 20
4.876404
 30
0.0
 10
12.518372
 20
5.136584
 30
0.0
 10
12.525044
 20
5.400213
 30
0.0
 10
12.509566
 20
5.794147
 30
0.0
 10
12.464675
 20
6.180685
 30
0.0
 10
12.391415
 20
6.558634
 30
0.0
 10
12.290833
 20
6.926803
 30
0.0
 10
12.351522
 20
6.946261
 30
0.0
 10
12.489049
 20
7.003271
 30
0.0
 10
12.556439
 20
7.042256
 30
0.0
 10
12.616932
 20
7.089577
 30
0.0
 10
12.662836
 20
7.138501
 30
0.0
 10
12.700000
 20
7.190835
 30
0.0
 10
12.700000
 20
0.100333
 30
0.0
 10
2.100130
 20
0.100333
 30
0.0
 10
2.100130
 20
10.700037
 30
0.0
 10
3.012833
 20
10.700037
 30
0.0
 10
3.012777
 20
10.700313
 30
0.0
 10
3.012777
 20
10.700313
 30
0.0
  0
LWPOLYLINE
  5
103
100
AcDbEntity
  8
Layer_1
 62
7
100
AcDbPolyline
 90
12
 70
0
 10
10.517739
 20
10.700037
 30
0.0
 10
12.699945
 20
10.700037
 30
0.0
 10
12.699945
 20
7.661463
 30
0.0
 10
12.480400
 20
8.138718
 30
0.0
 10
12.268869
 20
8.563653
 30
0.0
 10
12.053741
 20
8.948509
 30
0.0
 10
11.823404
 20
9.305528
 30
0.0
 10
11.566247
 20
9.646949
 30
0.0
 10
11.270658
 20
9.985013
 30
0.0
 10
10.925026
 20
10.331963
 30
0.0
 10
10.517739
 20
10.700037
 30
0.0
 10
10.517739
 20
10.700037
 30
0.0
  0
LWPOLYLINE
  5
104
100
AcDbEntity
  8
Layer_1
 62
7
100
AcDbPolyline
 90
18
 70
0
 10
2.799843
 20
10.199975
 30
0.0
 10
2.722005
 20
10.184263
 30
0.0
 10
2.658441
 20
10.141423
 30
0.0
 10
2.615583
 20
10.077879
 30
0.0
 10
2.599862
 20
10.000049
 30
0.0
 10
2.615567
 20
9.922184
 30
0.0
 10
2.658421
 20
9.858583
 30
0.0
 10
2.721991
 20
9.815693
 30
0.0
 10
2.799843
 20
9.799958
 30
0.0
 10
2.877712
 20
9.815677
 30
0.0
 10
2.941300
 20
9.858564
 30
0.0
 10
2.984169
 20
9.922171
 30
0.0
 10
2.999879
 20
10.000049
 30
0.0
 10
2.984152
 20
10.077891
 30
0.0
 10
2.941280
 20
10.141442
 30
0.0
 10
2.877699
 20
10.184278
 30
0.0
 10
2.799843
 20
10.199975
 30
0.0
 10
2.799843
 20
10.199975
 30
0.0
  0
LWPOLYLINE
  5
105
100
AcDbEntity
  8
Layer_1
 62
7
100
AcDbPolyline
 90
18
 70
0
 10
11.999846
 20
10.199975
 30
0.0
 10
11.922008
 20
10.184264
 30
0.0
 10
11.858444
 20
10.141424
 30
0.0
 10
11.815586
 20
10.077879
 30
0.0
 10
11.799865
 20
10.000049
 30
0.0
 10
11.815570
 20
9.922185
 30
0.0
 10
11.858425
 20
9.858584
 30
0.0
 10
11.921996
 20
9.815693
 30
0.0
 10
11.999846
 20
9.799958
 30
0.0
 10
12.077715
 20
9.815677
 30
0.0
 10
12.141303
 20
9.858564
 30
0.0
 10
12.184172
 20
9.922171
 30
0.0
 10
12.199882
 20
10.000049
 30
0.0
 10
12.184156
 20
10.077892
 30
0.0
 10
12.141284
 20
10.141443
 30
0.0
 10
12.077703
 20
10.184279
 30
0.0
 10
11.999846
 20
10.199975
 30
0.0
 10
11.999846
 20
10.199975
 30
0.0
  0
LWPOLYLINE
  5
106
100
AcDbEntity
  8
Layer_1
 62
7
100
AcDbPolyline
 90
18
 70
0
 10
12.221159
 20
7.556512
 30
0.0
 10
12.162781
 20
7.544721
 30
0.0
 10
12.115108
 20
7.512578
 30
0.0
 10
12.082964
 20
7.464905
 30
0.0
 10
12.071174
 20
7.406526
 30
0.0
 10
12.082579
 20
7.349114
 30
0.0
 10
12.115088
 20
7.300439
 30
0.0
 10
12.163752
 20
7.267911
 30
0.0
 10
12.221159
 20
7.256485
 30
0.0
 10
12.278584
 20
7.267895
 30
0.0
 10
12.327266
 20
7.300419
 30
0.0
 10
12.359790
 20
7.349102
 30
0.0
 10
12.371200
 20
7.406526
 30
0.0
 10
12.359774
 20
7.463934
 30
0.0
 10
12.327247
 20
7.512597
 30
0.0
 10
12.278571
 20
7.545107
 30
0.0
 10
12.221159
 20
7.556512
 30
0.0
 10
12.221159
 20
7.556512
 30
0.0
  0
LWPOLYLINE
  5
107
100
AcDbEntity
  8
Layer_1
 62
7
100
AcDbPolyline
 90
18
 70
0
 10
2.799843
 20
1.000027
 30
0.0
 10
2.722005
 20
0.984306
 30
0.0
 10
2.658441
 20
0.941448
 30
0.0
 10
2.615582
 20
0.877884
 30
0.0
 10
2.599862
 20
0.800046
 30
0.0
 10
2.615582
 20
0.722216
 30
0.0
 10
2.658441
 20
0.658671
 30
0.0
 10
2.722005
 20
0.615832
 30
0.0
 10
2.799843
 20
0.600120
 30
0.0
 10
2.877699
 20
0.615816
 30
0.0
 10
2.941281
 20
0.658652
 30
0.0
 10
2.984153
 20
0.722203
 30
0.0
 10
2.999879
 20
0.800046
 30
0.0
 10
2.984153
 20
0.877898
 30
0.0
 10
2.941281
 20
0.941468
 30
0.0
 10
2.877699
 20
0.984322
 30
0.0
 10
2.799843
 20
1.000027
 30
0.0
 10
2.799843
 20
1.000027
 30
0.0
  0
LWPOLYLINE
  5
108
100
AcDbEntity
  8
Layer_1
 62
7
100
AcDbPolyline
 90
18
 70
0
 10
11.999846
 20
1.000027
 30
0.0
 10
11.922008
 20
0.984306
 30
0.0
 10
11.858444
 20
0.941448
 30
0.0
 10
11.815586
 20
0.877884
 30
0.0
 10
11.799865
 20
0.800046
 30
0.0
 10
11.815586
 20
0.722216
 30
0.0
 10
11.858444
 20
0.658671
 30
0.0
 10
11.922008
 20
0.615832
 30
0.0
 10
11.999846
 20
0.600120
 30
0.0
 10
12.077703
 20
0.615816
 30
0.0
 10
12.141284
 20
0.658652
 30
0.0
 10
12.184156
 20
0.722203
 30
0.0
 10
12.199882
 20
0.800046
 30
0.0
 10
12.184156
 20
0.877898
 30
0.0
 10
12.141284
 20
0.941468
 30
0.0
 10
12.077703
 20
0.984322
 30
0.0
 10
11.999846
 20
1.000027
 30
0.0
 10
11.999846
 20
1.000027
 30
0.0
  0
LWPOLYLINE
  5
109
100
AcDbEntity
  8
Layer_1
 62
7
100
AcDbPolyline
 90
8
 70
1
 10
13.000121
 20
10.800016
 30
0.0
 10
13.000121
 20
9.800001
 30
0.0
 10
13.028456
 20
9.800001
 30
0.0
 10
13.028456
 20
10.771628
 30
0.0
 10
14.000136
 20
10.771628
 30
0.0
 10
14.000136
 20
10.800016
 30
0.0
 10
13.000121
 20
10.800016
 30
0.0
 10
13.000121
 20
10.800016
 30
0.0
  0
LWPOLYLINE
  5
10a
100
AcDbEntity
  8
Layer_1
 62
7
100
AcDbPolyline
 90
9
 70
1
 10
17.000127
 20
10.800016
 30
0.0
 10
17.000127
 20
10.771628
 30
0.0
 10
17.971810
 20
10.771628
 30
0.0
 10
17.971810
 20
9.800001
 30
0.0
 10
18.000142
 20
9.800001
 30
0.0
 10
18.000142
 20
10.785795
 30
0.0
 10
18.000142
 20
10.800016
 30
0.0
 10
17.000127
 20
10.800016
 30
0.0
 10
17.000127
 20
10.800016
 30
0.0
  0
LWPOLYLINE
  5
10b
100
AcDbEntity
  8
Layer_1
 62
7
100
AcDbPolyline
 90
8
 70
1
 10
13.000121
 20
0.799979
 30
0.0
 10
13.000121
 20
-0.000000
 30
0.0
 10
14.000136
 20
-0.000000
 30
0.0
 10
14.000136
 20
0.028332
 30
0.0
 10
13.028456
 20
0.028332
 30
0.0
 10
13.028456
 20
0.799979
 30
0.0
 10
13.000121
 20
0.799979
 30
0.0
 10
13.000121
 20
0.799979
 30
0.0
  0
LWPOLYLINE
  5
10c
100
AcDbEntity
  8
Layer_1
 62
7
100
AcDbPolyline
 90
8
 70
1
 10
17.971810
 20
0.799979
 30
0.0
 10
17.971810
 20
0.028332
 30
0.0
 10
17.000127
 20
0.028332
 30
0.0
 10
17.000127
 20
-0.000000
 30
0.0
 10
18.000142
 20
-0.000000
 30
0.0
 10
18.000142
 20
0.799979
 30
0.0
 10
17.971810
 20
0.799979
 30
0.0
 10
17.971810
 20
0.799979
 30
0.0
  0
LWPOLYLINE
  5
10d
100
AcDbEntity
  8
Layer_1
 62
7
100
AcDbPolyline
 90
7
 70
1
 10
0.000000
 20
10.800295
 30
0.0
 10
0.000000
 20
9.800280
 30
0.0
 10
0.028335
 20
9.800280
 30
0.0
 10
0.028335
 20
10.771907
 30
0.0
 10
1.000015
 20
10.771907
 30
0.0
 10
1.000015
 20
10.800295
 30
0.0
 10
0.000000
 20
10.800295
 30
0.0
  0
LWPOLYLINE
  5
10e
100
AcDbEntity
  8
Layer_1
 62
7
100
AcDbPolyline
 90
7
 70
1
 10
0.000000
 20
0.800256
 30
0.0
 10
0.000000
 20
0.000277
 30
0.0
 10
1.000015
 20
0.000277
 30
0.0
 10
1.000015
 20
0.028610
 30
0.0
 10
0.028335
 20
0.028610
 30
0.0
 10
0.028335
 20
0.800256
 30
0.0
 10
0.000000
 20
0.800256
 30
0.0
  0
LWPOLYLINE
  5
10f
100
AcDbEntity
  8
Layer_1
 62
7
100
AcDbPolyline
 90
8
 70
1
 10
13.000121
 20
10.800016
 30
0.0
 10
13.000121
 20
9.800001
 30
0.0
 10
13.028456
 20
9.800001
 30
0.0
 10
13.028456
 20
10.771628
 30
0.0
 10
14.000136
 20
10.771628
 30
0.0
 10
14.000136
 20
10.800016
 30
0.0
 10
13.000121
 20
10.800016
 30
0.0
 10
13.000121
 20
10.800016
 30
0.0
  0
LWPOLYLINE
  5
110
100
AcDbEntity
  8
Layer_1
 62
7
100
AcDbPolyline
 90
9
 70
1
 10
17.000127
 20
10.800016
 30
0.0
 10
17.000127
 20
10.771628
 30
0.0
 10
17.971810
 20
10.771628
 30
0.0
 10
17.971810
 20
9.800001
 30
0.0
 10
18.000142
 20
9.800001
 30
0.0
 10
18.000142
 20
10.785795
 30
0.0
 10
18.000142
 20
10.800016
 30
0.0
 10
17.000127
 20
10.800016
 30
0.0
 10
17.000127
 20
10.800016
 30
0.0
  0
LWPOLYLINE
  5
111
100
AcDbEntity
  8
Layer_1
 62
7
100
AcDbPolyline
 90
8
 70
1
 10
13.000121
 20
0.799979
 30
0.0
 10
13.000121
 20
-0.000000
 30
0.0
 10
14.000136
 20
-0.000000
 30
0.0
 10
14.000136
 20
0.028332
 30
0.0
 10
13.028456
 20
0.028332
 30
0.0
 10
13.028456
 20
0.799979
 30
0.0
 10
13.000121
 20
0.799979
 30
0.0
 10
13.000121
 20
0.799979
 30
0.0
  0
LWPOLYLINE
  5
112
100
AcDbEntity
  8
Layer_1
 62
7
100
AcDbPolyline
 90
8
 70
1
 10
17.971810
 20
0.799979
 30
0.0
 10
17.971810
 20
0.028332
 30
0.0
 10
17.000127
 20
0.028332
 30
0.0
 10
17.000127
 20
-0.000000
 30
0.0
 10
18.000142
 20
-0.000000
 30
0.0
 10
18.000142
 20
0.799979
 30
0.0
 10
17.971810
 20
0.799979
 30
0.0
 10
17.971810
 20
0.799979
 30
0.0
  0
ENDSEC
  0
SECTION
  2
OBJECTS
  0
DICTIONARY
  5
C
330
0
100
AcDbDictionary
  3
ACAD_GROUP
350
D
  3
ACAD_MLINESTYLE
350
17
  0
DICTIONARY
  5
D
330
C
100
AcDbDictionary
  0
DICTIONARY
  5
1A
330
C
100
AcDbDictionary
  0
DICTIONARY
  5
17
330
C
100
AcDbDictionary
  3
STANDARD
350
18
  0
DICTIONARY
  5
19
330
C
100
AcDbDictionary
  0
ENDSEC
  0
EOF
