  0
SECTION
  2
HEADER
  9
$ACADVER
  1
AC1014
  9
$HANDSEED
  5
FFFF
  9
$MEASUREMENT
 70
     1
  0
ENDSEC
  0
SECTION
  2
TABLES
  0
TABLE
  2
VPORT
  5
8
330
0
100
AcDbSymbolTable
 70
     4
  0
VPORT
  5
2E
330
8
100
AcDbSymbolTableRecord
100
AcDbViewportTableRecord
  2
*ACTIVE
 70
     0
 10
0.0
 20
0.0
 11
1.0
 21
1.0
 12
210.0
 22
148.5
 13
0.0
 23
0.0
 14
10.0
 24
10.0
 15
10.0
 25
10.0
 16
0.0
 26
0.0
 36
1.0
 17
0.0
 27
0.0
 37
0.0
 40
341.0
 41
1.24
 42
50.0
 43
0.0
 44
0.0
 50
0.0
 51
0.0
 71
     0
 72
   100
 73
     1
 74
     3
 75
     0
 76
     0
 77
     0
 78
     0
  0
ENDTAB
  0
TABLE
  2
LTYPE
  5
5
330
0
100
AcDbSymbolTable
 70
     1
  0
LTYPE
  5
14
330
5
100
AcDbSymbolTableRecord
100
AcDbLinetypeTableRecord
  2
BYBLOCK
 70
     0
  3

 72
    65
 73
     0
 40
0.0
  0
LTYPE
  5
15
330
5
100
AcDbSymbolTableRecord
100
AcDbLinetypeTableRecord
  2
BYLAYER
 70
     0
  3

 72
    65
 73
     0
 40
0.0
  0
LTYPE
  5
16
330
5
100
AcDbSymbolTableRecord
100
AcDbLinetypeTableRecord
  2
CONTINUOUS
 70
     0
  3
Solid line
 72
    65
 73
     0
 40
0.0
  0
ENDTAB
  0
TABLE
  2
LAYER
  5
2
100
AcDbSymbolTable
 70
2
  0
LAYER
  5
50
100
AcDbSymbolTableRecord
100
AcDbLayerTableRecord
  2
0
 70
0
  6
CONTINUOUS
  0
LAYER
  5
51
100
AcDbSymbolTableRecord
100
AcDbLayerTableRecord
  2
Layer_1
 70
0
  6
CONTINUOUS
  0
ENDTAB
  0
TABLE
  2
STYLE
  5
3
330
0
100
AcDbSymbolTable
 70
     1
  0
STYLE
  5
11
330
3
100
AcDbSymbolTableRecord
100
AcDbTextStyleTableRecord
  2
STANDARD
 70
     0
 40
0.0
 41
1.0
 50
0.0
 71
     0
 42
2.5
  3
txt
  4

  0
ENDTAB
  0
TABLE
  2
VIEW
  5
6
330
0
100
AcDbSymbolTable
 70
     0
  0
ENDTAB
  0
TABLE
  2
UCS
  5
7
330
0
100
AcDbSymbolTable
 70
     0
  0
ENDTAB
  0
TABLE
  2
APPID
  5
9
330
0
100
AcDbSymbolTable
 70
     2
  0
APPID
  5
12
330
9
100
AcDbSymbolTableRecord
100
AcDbRegAppTableRecord
  2
ACAD
 70
     0
  0
ENDTAB
  0
TABLE
  2
DIMSTYLE
  5
A
330
0
100
AcDbSymbolTable
 70
     1
  0
DIMSTYLE
105
27
330
A
100
AcDbSymbolTableRecord
100
AcDbDimStyleTableRecord
  2
ISO-25
 70
     0
  3

  4

  5

  6

  7

 40
1.0
 41
2.5
 42
0.625
 43
3.75
 44
1.25
 45
0.0
 46
0.0
 47
0.0
 48
0.0
140
2.5
141
2.5
142
0.0
143
0.03937007874016
144
1.0
145
0.0
146
1.0
147
0.625
 71
     0
 72
     0
 73
     0
 74
     0
 75
     0
 76
     0
 77
     1
 78
     8
170
     0
171
     3
172
     1
173
     0
174
     0
175
     0
176
     0
177
     0
178
     0
270
     2
271
     2
272
     2
273
     2
274
     3
340
11
275
     0
280
     0
281
     0
282
     0
283
     0
284
     8
285
     0
286
     0
287
     3
288
     0
  0
ENDTAB
  0
TABLE
  2
BLOCK_RECORD
  5
1
330
0
100
AcDbSymbolTable
 70
     1
  0
BLOCK_RECORD
  5
1F
330
1
100
AcDbSymbolTableRecord
100
AcDbBlockTableRecord
  2
*MODEL_SPACE
  0
BLOCK_RECORD
  5
1B
330
1
100
AcDbSymbolTableRecord
100
AcDbBlockTableRecord
  2
*PAPER_SPACE
  0
ENDTAB
  0
ENDSEC
  0
SECTION
  2
BLOCKS
  0
BLOCK
  5
20
330
1F
100
AcDbEntity
  8
0
100
AcDbBlockBegin
  2
*MODEL_SPACE
 70
     0
 10
0.0
 20
0.0
 30
0.0
  3
*MODEL_SPACE
  1

  0
ENDBLK
  5
21
330
1F
100
AcDbEntity
  8
0
100
AcDbBlockEnd
  0
BLOCK
  5
1C
330
1B
100
AcDbEntity
 67
     1
  8
0
100
AcDbBlockBegin
  2
*PAPER_SPACE
  1

  0
ENDBLK
  5
1D
330
1B
100
AcDbEntity
 67
     1
  8
0
100
AcDbBlockEnd
  0
ENDSEC
  0
SECTION
  2
ENTITIES
  0
LWPOLYLINE
  5
100
100
AcDbEntity
  8
Layer_1
 62
7
100
AcDbPolyline
 90
25
 70
0
 10
7.410703
 20
10.800614
 30
0.0
 10
7.410760
 20
10.800559
 30
0.0
 10
7.410760
 20
10.800283
 30
0.0
 10
3.301229
 20
10.800283
 30
0.0
 10
3.299962
 20
10.800559
 30
0.0
 10
3.299962
 20
10.800283
 30
0.0
 10
3.299849
 20
10.800283
 30
0.0
 10
3.299849
 20
10.800559
 30
0.0
 10
3.299737
 20
10.800559
 30
0.0
 10
3.296815
 20
10.800283
 30
0.0
 10
2.998112
 20
10.800283
 30
0.0
 10
1.999971
 20
10.800283
 30
0.0
 10
1.999861
 20
10.800283
 30
0.0
 10
1.999861
 20
10.700348
 30
0.0
 10
1.999861
 20
0.100368
 30
0.0
 10
1.999861
 20
0.000433
 30
0.0
 10
12.799877
 20
0.000433
 30
0.0
 10
12.799877
 20
0.100368
 30
0.0
 10
12.799877
 20
10.800338
 30
0.0
 10
8.462419
 20
10.800338
 30
0.0
 10
8.460159
 20
10.800338
 30
0.0
 10
8.373453
 20
10.800338
 30
0.0
 10
7.439087
 20
10.800338
 30
0.0
 10
7.410700
 20
10.800614
 30
0.0
 10
7.410700
 20
10.800614
 30
0.0
  0
LWPOLYLINE
  5
101
100
AcDbEntity
  8
Layer_1
 62
7
100
AcDbPolyline
 90
128
 70
0
 10
7.200411
 20
10.700624
 30
0.0
 10
7.200468
 20
10.700567
 30
0.0
 10
7.495864
 20
10.700567
 30
0.0
 10
7.496304
 20
10.700071
 30
0.0
 10
10.364222
 20
10.700071
 30
0.0
 10
10.799076
 20
10.313565
 30
0.0
 10
11.164018
 20
9.953609
 30
0.0
 10
11.324510
 20
9.779057
 30
0.0
 10
11.472612
 20
9.605706
 30
0.0
 10
11.610017
 20
9.431744
 30
0.0
 10
11.738421
 20
9.255358
 30
0.0
 10
11.975011
 20
8.888068
 30
0.0
 10
12.195943
 20
8.489338
 30
0.0
 10
12.414784
 20
8.044670
 30
0.0
 10
12.645096
 20
7.539568
 30
0.0
 10
12.665078
 20
7.434802
 30
0.0
 10
12.656846
 20
7.337245
 30
0.0
 10
12.618624
 20
7.246632
 30
0.0
 10
12.548633
 20
7.162702
 30
0.0
 10
12.501255
 20
7.126306
 30
0.0
 10
12.443669
 20
7.093304
 30
0.0
 10
12.318776
 20
7.040829
 30
0.0
 10
12.259796
 20
7.022032
 30
0.0
 10
12.257315
 20
7.029694
 30
0.0
 10
12.215423
 20
7.009630
 30
0.0
 10
12.173475
 20
6.999598
 30
0.0
 10
12.175349
 20
6.990447
 30
0.0
 10
12.166199
 20
6.986038
 30
0.0
 10
12.277089
 20
6.604785
 30
0.0
 10
12.357978
 20
6.212456
 30
0.0
 10
12.407607
 20
5.810441
 30
0.0
 10
12.424719
 20
5.400136
 30
0.0
 10
12.418180
 20
5.141549
 30
0.0
 10
12.398775
 20
4.886357
 30
0.0
 10
12.366819
 20
4.634875
 30
0.0
 10
12.322628
 20
4.387419
 30
0.0
 10
12.266518
 20
4.144305
 30
0.0
 10
12.198805
 20
3.905849
 30
0.0
 10
12.119804
 20
3.672366
 30
0.0
 10
12.029831
 20
3.444173
 30
0.0
 10
11.929201
 20
3.221584
 30
0.0
 10
11.818231
 20
3.004915
 30
0.0
 10
11.697236
 20
2.794483
 30
0.0
 10
11.566532
 20
2.590603
 30
0.0
 10
11.426435
 20
2.393591
 30
0.0
 10
11.277260
 20
2.203762
 30
0.0
 10
11.119322
 20
2.021432
 30
0.0
 10
10.952939
 20
1.846917
 30
0.0
 10
10.778425
 20
1.680533
 30
0.0
 10
10.596096
 20
1.522595
 30
0.0
 10
10.406268
 20
1.373419
 30
0.0
 10
10.209256
 20
1.233322
 30
0.0
 10
10.005377
 20
1.102618
 30
0.0
 10
9.794946
 20
0.981623
 30
0.0
 10
9.578278
 20
0.870653
 30
0.0
 10
9.355690
 20
0.770024
 30
0.0
 10
9.127497
 20
0.680051
 30
0.0
 10
8.894015
 20
0.601051
 30
0.0
 10
8.655559
 20
0.533339
 30
0.0
 10
8.412446
 20
0.477230
 30
0.0
 10
8.164991
 20
0.433041
 30
0.0
 10
7.913509
 20
0.401087
 30
0.0
 10
7.658317
 20
0.381684
 30
0.0
 10
7.399730
 20
0.375148
 30
0.0
 10
7.141146
 20
0.381687
 30
0.0
 10
6.885956
 20
0.401092
 30
0.0
 10
6.634476
 20
0.433049
 30
0.0
 10
6.387022
 20
0.477240
 30
0.0
 10
6.143909
 20
0.533351
 30
0.0
 10
5.905453
 20
0.601064
 30
0.0
 10
5.671970
 20
0.680066
 30
0.0
 10
5.443776
 20
0.770040
 30
0.0
 10
5.221187
 20
0.870670
 30
0.0
 10
5.004517
 20
0.981641
 30
0.0
 10
4.794084
 20
1.102637
 30
0.0
 10
4.590202
 20
1.233341
 30
0.0
 10
4.393188
 20
1.373439
 30
0.0
 10
4.203357
 20
1.522615
 30
0.0
 10
4.021025
 20
1.680553
 30
0.0
 10
3.846507
 20
1.846937
 30
0.0
 10
3.680121
 20
2.021452
 30
0.0
 10
3.522180
 20
2.203781
 30
0.0
 10
3.373001
 20
2.393609
 30
0.0
 10
3.232900
 20
2.590621
 30
0.0
 10
3.102193
 20
2.794500
 30
0.0
 10
2.981195
 20
3.004931
 30
0.0
 10
2.870222
 20
3.221599
 30
0.0
 10
2.769589
 20
3.444187
 30
0.0
 10
2.679613
 20
3.672379
 30
0.0
 10
2.600609
 20
3.905860
 30
0.0
 10
2.532894
 20
4.144315
 30
0.0
 10
2.476782
 20
4.387427
 30
0.0
 10
2.432589
 20
4.634881
 30
0.0
 10
2.400632
 20
4.886361
 30
0.0
 10
2.381226
 20
5.141551
 30
0.0
 10
2.374686
 20
5.400136
 30
0.0
 10
2.384260
 20
5.710288
 30
0.0
 10
2.412409
 20
6.015656
 30
0.0
 10
2.458589
 20
6.315671
 30
0.0
 10
2.522261
 20
6.609763
 30
0.0
 10
2.602880
 20
6.897363
 30
0.0
 10
2.699905
 20
7.177901
 30
0.0
 10
2.812794
 20
7.450809
 30
0.0
 10
2.941005
 20
7.715516
 30
0.0
 10
2.941005
 20
7.709894
 30
0.0
 10
3.101436
 20
7.995755
 30
0.0
 10
3.279591
 20
8.269685
 30
0.0
 10
3.474694
 20
8.530905
 30
0.0
 10
3.685968
 20
8.778640
 30
0.0
 10
3.912638
 20
9.012112
 30
0.0
 10
4.153925
 20
9.230544
 30
0.0
 10
4.409053
 20
9.433158
 30
0.0
 10
4.677246
 20
9.619179
 30
0.0
 10
4.957727
 20
9.787827
 30
0.0
 10
5.249719
 20
9.938328
 30
0.0
 10
5.552445
 20
10.069902
 30
0.0
 10
5.865130
 20
10.181774
 30
0.0
 10
6.186996
 20
10.273166
 30
0.0
 10
6.517267
 20
10.343301
 30
0.0
 10
6.855165
 20
10.391402
 30
0.0
 10
7.199915
 20
10.416691
 30
0.0
 10
7.199915
 20
10.500531
 30
0.0
 10
7.199915
 20
10.515745
 30
0.0
 10
7.199915
 20
10.699575
 30
0.0
 10
7.199474
 20
10.700071
 30
0.0
 10
7.199915
 20
10.700071
 30
0.0
 10
7.200411
 20
10.700622
 30
0.0
 10
7.200411
 20
10.700622
 30
0.0
  0
LWPOLYLINE
  5
102
100
AcDbEntity
  8
Layer_1
 62
7
100
AcDbPolyline
 90
126
 70
0
 10
3.012774
 20
10.700291
 30
0.0
 10
3.296870
 20
10.700291
 30
0.0
 10
3.298137
 20
10.700291
 30
0.0
 10
3.298137
 20
10.700015
 30
0.0
 10
3.299791
 20
10.700015
 30
0.0
 10
3.299904
 20
10.700015
 30
0.0
 10
3.300455
 20
10.700015
 30
0.0
 10
3.301171
 20
10.700015
 30
0.0
 10
6.621417
 20
10.700015
 30
0.0
 10
6.800507
 20
10.700015
 30
0.0
 10
7.100478
 20
10.700015
 30
0.0
 10
7.099928
 20
10.699519
 30
0.0
 10
7.099928
 20
10.510672
 30
0.0
 10
6.866351
 20
10.491835
 30
0.0
 10
6.635838
 20
10.462667
 30
0.0
 10
6.408625
 20
10.423401
 30
0.0
 10
6.184945
 20
10.374271
 30
0.0
 10
5.965033
 20
10.315509
 30
0.0
 10
5.749125
 20
10.247347
 30
0.0
 10
5.537454
 20
10.170019
 30
0.0
 10
5.330255
 20
10.083758
 30
0.0
 10
5.127762
 20
9.988796
 30
0.0
 10
4.930212
 20
9.885367
 30
0.0
 10
4.737837
 20
9.773702
 30
0.0
 10
4.550872
 20
9.654035
 30
0.0
 10
4.369553
 20
9.526599
 30
0.0
 10
4.194114
 20
9.391626
 30
0.0
 10
4.024789
 20
9.249350
 30
0.0
 10
3.861813
 20
9.100002
 30
0.0
 10
3.859002
 20
9.100002
 30
0.0
 10
3.680029
 20
8.920234
 30
0.0
 10
3.510132
 20
8.731911
 30
0.0
 10
3.349651
 20
8.535396
 30
0.0
 10
3.198928
 20
8.331051
 30
0.0
 10
3.058301
 20
8.119240
 30
0.0
 10
2.928110
 20
7.900325
 30
0.0
 10
2.808697
 20
7.674668
 30
0.0
 10
2.700400
 20
7.442631
 30
0.0
 10
2.603560
 20
7.204578
 30
0.0
 10
2.518516
 20
6.960871
 30
0.0
 10
2.445610
 20
6.711872
 30
0.0
 10
2.385180
 20
6.457944
 30
0.0
 10
2.337567
 20
6.199449
 30
0.0
 10
2.303111
 20
5.936750
 30
0.0
 10
2.282152
 20
5.670210
 30
0.0
 10
2.275030
 20
5.400190
 30
0.0
 10
2.281703
 20
5.136563
 30
0.0
 10
2.301504
 20
4.876385
 30
0.0
 10
2.334111
 20
4.619979
 30
0.0
 10
2.379202
 20
4.367667
 30
0.0
 10
2.436454
 20
4.119772
 30
0.0
 10
2.505544
 20
3.876617
 30
0.0
 10
2.586150
 20
3.638524
 30
0.0
 10
2.677948
 20
3.405816
 30
0.0
 10
2.780616
 20
3.178816
 30
0.0
 10
2.893832
 20
2.957845
 30
0.0
 10
3.017273
 20
2.743228
 30
0.0
 10
3.150616
 20
2.535286
 30
0.0
 10
3.293538
 20
2.334343
 30
0.0
 10
3.445717
 20
2.140720
 30
0.0
 10
3.606830
 20
1.954741
 30
0.0
 10
3.776555
 20
1.776728
 30
0.0
 10
3.954569
 20
1.607003
 30
0.0
 10
4.140548
 20
1.445891
 30
0.0
 10
4.334171
 20
1.293713
 30
0.0
 10
4.535115
 20
1.150791
 30
0.0
 10
4.743057
 20
1.017449
 30
0.0
 10
4.957674
 20
0.894009
 30
0.0
 10
5.178644
 20
0.780793
 30
0.0
 10
5.405645
 20
0.678126
 30
0.0
 10
5.638352
 20
0.586328
 30
0.0
 10
5.876445
 20
0.505723
 30
0.0
 10
6.119599
 20
0.436634
 30
0.0
 10
6.367493
 20
0.379382
 30
0.0
 10
6.619804
 20
0.334292
 30
0.0
 10
6.876208
 20
0.301685
 30
0.0
 10
7.136385
 20
0.281884
 30
0.0
 10
7.400009
 20
0.275211
 30
0.0
 10
7.663638
 20
0.281881
 30
0.0
 10
7.923818
 20
0.301679
 30
0.0
 10
8.180226
 20
0.334284
 30
0.0
 10
8.432540
 20
0.379373
 30
0.0
 10
8.680437
 20
0.436622
 30
0.0
 10
8.923595
 20
0.505710
 30
0.0
 10
9.161690
 20
0.586313
 30
0.0
 10
9.394401
 20
0.678109
 30
0.0
 10
9.621403
 20
0.780776
 30
0.0
 10
9.842376
 20
0.893991
 30
0.0
 10
10.056995
 20
1.017430
 30
0.0
 10
10.264940
 20
1.150771
 30
0.0
 10
10.465885
 20
1.293693
 30
0.0
 10
10.659510
 20
1.445871
 30
0.0
 10
10.845492
 20
1.606983
 30
0.0
 10
11.023507
 20
1.776708
 30
0.0
 10
11.193233
 20
1.954721
 30
0.0
 10
11.354348
 20
2.140700
 30
0.0
 10
11.506528
 20
2.334324
 30
0.0
 10
11.649451
 20
2.535268
 30
0.0
 10
11.782796
 20
2.743211
 30
0.0
 10
11.906237
 20
2.957829
 30
0.0
 10
12.019454
 20
3.178800
 30
0.0
 10
12.122123
 20
3.405802
 30
0.0
 10
12.213922
 20
3.638512
 30
0.0
 10
12.294528
 20
3.876606
 30
0.0
 10
12.363618
 20
4.119763
 30
0.0
 10
12.420871
 20
4.367660
 30
0.0
 10
12.465962
 20
4.619973
 30
0.0
 10
12.498570
 20
4.876381
 30
0.0
 10
12.518371
 20
5.136561
 30
0.0
 10
12.525044
 20
5.400190
 30
0.0
 10
12.509565
 20
5.794124
 30
0.0
 10
12.464674
 20
6.180662
 30
0.0
 10
12.391415
 20
6.558612
 30
0.0
 10
12.290832
 20
6.926781
 30
0.0
 10
12.351521
 20
6.946239
 30
0.0
 10
12.489049
 20
7.003248
 30
0.0
 10
12.556438
 20
7.042233
 30
0.0
 10
12.616931
 20
7.089555
 30
0.0
 10
12.662835
 20
7.138479
 30
0.0
 10
12.699999
 20
7.190813
 30
0.0
 10
12.699999
 20
0.100310
 30
0.0
 10
2.100129
 20
0.100310
 30
0.0
 10
2.100129
 20
10.700015
 30
0.0
 10
3.012832
 20
10.700015
 30
0.0
 10
3.012776
 20
10.700291
 30
0.0
 10
3.012776
 20
10.700291
 30
0.0
  0
LWPOLYLINE
  5
103
100
AcDbEntity
  8
Layer_1
 62
7
100
AcDbPolyline
 90
12
 70
0
 10
10.517792
 20
10.700015
 30
0.0
 10
12.699998
 20
10.700015
 30
0.0
 10
12.699998
 20
7.661441
 30
0.0
 10
12.480455
 20
8.138698
 30
0.0
 10
12.268924
 20
8.563633
 30
0.0
 10
12.053796
 20
8.948489
 30
0.0
 10
11.823459
 20
9.305507
 30
0.0
 10
11.566302
 20
9.646928
 30
0.0
 10
11.270713
 20
9.984993
 30
0.0
 10
10.925081
 20
10.331942
 30
0.0
 10
10.517794
 20
10.700017
 30
0.0
 10
10.517794
 20
10.700017
 30
0.0
  0
LWPOLYLINE
  5
104
100
AcDbEntity
  8
Layer_1
 62
7
100
AcDbPolyline
 90
88
 70
0
 10
17.658016
 20
10.566788
 30
0.0
 10
17.658016
 20
10.566512
 30
0.0
 10
17.562987
 20
10.552676
 30
0.0
 10
17.399000
 20
10.502240
 30
0.0
 10
17.388747
 20
10.497610
 30
0.0
 10
16.966045
 20
10.335178
 30
0.0
 10
16.560411
 20
10.144813
 30
0.0
 10
16.172763
 20
9.927893
 30
0.0
 10
15.804018
 20
9.685798
 30
0.0
 10
15.455094
 20
9.419904
 30
0.0
 10
15.126910
 20
9.131592
 30
0.0
 10
14.820382
 20
8.822240
 30
0.0
 10
14.536429
 20
8.493226
 30
0.0
 10
14.507270
 20
8.457176
 30
0.0
 10
14.483567
 20
8.426970
 30
0.0
 10
14.273901
 20
8.144672
 30
0.0
 10
14.083330
 20
7.853430
 30
0.0
 10
14.066463
 20
7.825759
 30
0.0
 10
14.015861
 20
7.741423
 30
0.0
 10
13.949164
 20
7.625502
 30
0.0
 10
13.943927
 20
7.616297
 30
0.0
 10
13.859040
 20
7.460138
 30
0.0
 10
13.859867
 20
7.460420
 30
0.0
 10
13.424903
 20
6.505385
 30
0.0
 10
13.422753
 20
6.500699
 30
0.0
 10
13.420712
 20
6.496290
 30
0.0
 10
13.421042
 20
6.496290
 30
0.0
 10
13.407041
 20
6.455445
 30
0.0
 10
13.397600
 20
6.394782
 30
0.0
 10
13.400461
 20
6.335313
 30
0.0
 10
13.414725
 20
6.278548
 30
0.0
 10
13.439497
 20
6.225996
 30
0.0
 10
13.473878
 20
6.179167
 30
0.0
 10
13.516972
 20
6.139571
 30
0.0
 10
13.567881
 20
6.108717
 30
0.0
 10
13.625709
 20
6.088114
 30
0.0
 10
13.681449
 20
6.082265
 30
0.0
 10
13.729715
 20
6.092479
 30
0.0
 10
13.770991
 20
6.115809
 30
0.0
 10
13.805759
 20
6.149307
 30
0.0
 10
13.857703
 20
6.235015
 30
0.0
 10
13.889410
 20
6.326019
 30
0.0
 10
13.900159
 20
6.384944
 30
0.0
 10
13.974702
 20
6.684717
 30
0.0
 10
14.051909
 20
6.937376
 30
0.0
 10
14.233809
 20
7.428505
 30
0.0
 10
14.439964
 20
7.512620
 30
0.0
 10
14.617434
 20
7.586495
 30
0.0
 10
14.695987
 20
7.629899
 30
0.0
 10
14.761378
 20
7.683497
 30
0.0
 10
14.784294
 20
7.722216
 30
0.0
 10
14.797248
 20
7.774383
 30
0.0
 10
14.801781
 20
7.896115
 30
0.0
 10
14.784969
 20
8.048567
 30
0.0
 10
14.778851
 20
8.052977
 30
0.0
 10
14.659237
 20
8.133564
 30
0.0
 10
14.859825
 20
8.416558
 30
0.0
 10
14.858447
 20
8.417716
 30
0.0
 10
14.859991
 20
8.419369
 30
0.0
 10
15.139512
 20
9.006800
 30
0.0
 10
15.386564
 20
9.232775
 30
0.0
 10
15.646246
 20
9.445669
 30
0.0
 10
15.918131
 20
9.644839
 30
0.0
 10
16.201795
 20
9.829642
 30
0.0
 10
16.496808
 20
9.999436
 30
0.0
 10
16.802746
 20
10.153580
 30
0.0
 10
17.119181
 20
10.291429
 30
0.0
 10
17.445687
 20
10.412343
 30
0.0
 10
17.445687
 20
10.412674
 30
0.0
 10
17.585310
 20
10.455393
 30
0.0
 10
17.656425
 20
10.463577
 30
0.0
 10
17.694230
 20
10.458039
 30
0.0
 10
17.723954
 20
10.433866
 30
0.0
 10
17.736398
 20
10.417194
 30
0.0
 10
17.739155
 20
10.413060
 30
0.0
 10
17.744474
 20
10.391899
 30
0.0
 10
17.756298
 20
10.377008
 30
0.0
 10
17.790552
 20
10.365791
 30
0.0
 10
17.824091
 20
10.378911
 30
0.0
 10
17.835022
 20
10.394442
 30
0.0
 10
17.839091
 20
10.415871
 30
0.0
 10
17.824428
 20
10.464764
 30
0.0
 10
17.796806
 20
10.502308
 30
0.0
 10
17.749298
 20
10.541603
 30
0.0
 10
17.704832
 20
10.561249
 30
0.0
 10
17.658237
 20
10.566739
 30
0.0
 10
17.658011
 20
10.566795
 30
0.0
 10
17.658011
 20
10.566795
 30
0.0
  0
LWPOLYLINE
  5
105
100
AcDbEntity
  8
Layer_1
 62
7
100
AcDbPolyline
 90
18
 70
0
 10
2.799893
 20
10.199962
 30
0.0
 10
2.722055
 20
10.184250
 30
0.0
 10
2.658491
 20
10.141410
 30
0.0
 10
2.615633
 20
10.077866
 30
0.0
 10
2.599912
 20
10.000036
 30
0.0
 10
2.615617
 20
9.922171
 30
0.0
 10
2.658471
 20
9.858570
 30
0.0
 10
2.722041
 20
9.815680
 30
0.0
 10
2.799893
 20
9.799945
 30
0.0
 10
2.877762
 20
9.815664
 30
0.0
 10
2.941351
 20
9.858551
 30
0.0
 10
2.984219
 20
9.922158
 30
0.0
 10
2.999929
 20
10.000036
 30
0.0
 10
2.984203
 20
10.077878
 30
0.0
 10
2.941331
 20
10.141429
 30
0.0
 10
2.877749
 20
10.184265
 30
0.0
 10
2.799893
 20
10.199962
 30
0.0
 10
2.799893
 20
10.199962
 30
0.0
  0
LWPOLYLINE
  5
106
100
AcDbEntity
  8
Layer_1
 62
7
100
AcDbPolyline
 90
18
 70
0
 10
11.999897
 20
10.199962
 30
0.0
 10
11.922058
 20
10.184251
 30
0.0
 10
11.858495
 20
10.141411
 30
0.0
 10
11.815637
 20
10.077866
 30
0.0
 10
11.799916
 20
10.000036
 30
0.0
 10
11.815621
 20
9.922172
 30
0.0
 10
11.858476
 20
9.858571
 30
0.0
 10
11.922046
 20
9.815680
 30
0.0
 10
11.999897
 20
9.799945
 30
0.0
 10
12.077766
 20
9.815664
 30
0.0
 10
12.141354
 20
9.858551
 30
0.0
 10
12.184222
 20
9.922158
 30
0.0
 10
12.199933
 20
10.000036
 30
0.0
 10
12.184206
 20
10.077879
 30
0.0
 10
12.141335
 20
10.141430
 30
0.0
 10
12.077753
 20
10.184266
 30
0.0
 10
11.999897
 20
10.199962
 30
0.0
 10
11.999897
 20
10.199962
 30
0.0
  0
LWPOLYLINE
  5
107
100
AcDbEntity
  8
Layer_1
 62
7
100
AcDbPolyline
 90
18
 70
0
 10
12.221154
 20
7.556499
 30
0.0
 10
12.162776
 20
7.544708
 30
0.0
 10
12.115103
 20
7.512564
 30
0.0
 10
12.082959
 20
7.464891
 30
0.0
 10
12.071169
 20
7.406513
 30
0.0
 10
12.082959
 20
7.348134
 30
0.0
 10
12.115103
 20
7.300461
 30
0.0
 10
12.162776
 20
7.268317
 30
0.0
 10
12.221154
 20
7.256527
 30
0.0
 10
12.278566
 20
7.267932
 30
0.0
 10
12.327242
 20
7.300442
 30
0.0
 10
12.359769
 20
7.349105
 30
0.0
 10
12.371195
 20
7.406513
 30
0.0
 10
12.359769
 20
7.463921
 30
0.0
 10
12.327242
 20
7.512584
 30
0.0
 10
12.278566
 20
7.545094
 30
0.0
 10
12.221154
 20
7.556499
 30
0.0
 10
12.221154
 20
7.556499
 30
0.0
  0
LWPOLYLINE
  5
108
100
AcDbEntity
  8
Layer_1
 62
7
100
AcDbPolyline
 90
64
 70
0
 10
13.701553
 20
6.538900
 30
0.0
 10
13.701384
 20
6.538513
 30
0.0
 10
13.761682
 20
6.526647
 30
0.0
 10
13.813060
 20
6.492928
 30
0.0
 10
13.824691
 20
6.480360
 30
0.0
 10
13.825684
 20
6.479257
 30
0.0
 10
13.831086
 20
6.471925
 30
0.0
 10
13.831142
 20
6.471812
 30
0.0
 10
13.831529
 20
6.471262
 30
0.0
 10
13.839246
 20
6.459356
 30
0.0
 10
13.839246
 20
6.459073
 30
0.0
 10
13.854570
 20
6.423796
 30
0.0
 10
13.853743
 20
6.427764
 30
0.0
 10
13.854680
 20
6.423465
 30
0.0
 10
13.858980
 20
6.404283
 30
0.0
 10
13.859476
 20
6.402242
 30
0.0
 10
13.859251
 20
6.403786
 30
0.0
 10
13.859307
 20
6.403786
 30
0.0
 10
13.860244
 20
6.399707
 30
0.0
 10
13.861015
 20
6.389840
 30
0.0
 10
13.860298
 20
6.395628
 30
0.0
 10
13.859967
 20
6.358311
 30
0.0
 10
13.860628
 20
6.362445
 30
0.0
 10
13.859967
 20
6.358035
 30
0.0
 10
13.859471
 20
6.354617
 30
0.0
 10
13.859414
 20
6.354335
 30
0.0
 10
13.848556
 20
6.316301
 30
0.0
 10
13.841555
 20
6.301915
 30
0.0
 10
13.833562
 20
6.288851
 30
0.0
 10
13.833232
 20
6.288300
 30
0.0
 10
13.832792
 20
6.287750
 30
0.0
 10
13.823807
 20
6.275954
 30
0.0
 10
13.823525
 20
6.275567
 30
0.0
 10
13.823195
 20
6.275237
 30
0.0
 10
13.812721
 20
6.263992
 30
0.0
 10
13.801697
 20
6.254236
 30
0.0
 10
13.799933
 20
6.252858
 30
0.0
 10
13.789460
 20
6.245307
 30
0.0
 10
13.786703
 20
6.243543
 30
0.0
 10
13.776395
 20
6.237590
 30
0.0
 10
13.772151
 20
6.235386
 30
0.0
 10
13.763442
 20
6.231472
 30
0.0
 10
13.757103
 20
6.228881
 30
0.0
 10
13.748724
 20
6.226124
 30
0.0
 10
13.741228
 20
6.223974
 30
0.0
 10
13.734944
 20
6.222540
 30
0.0
 10
13.724361
 20
6.220610
 30
0.0
 10
13.722653
 20
6.220279
 30
0.0
 10
13.720943
 20
6.220279
 30
0.0
 10
13.701375
 20
6.218902
 30
0.0
 10
13.698674
 20
6.219184
 30
0.0
 10
13.696964
 20
6.219184
 30
0.0
 10
13.675191
 20
6.221335
 30
0.0
 10
13.659261
 20
6.224807
 30
0.0
 10
13.644654
 20
6.229603
 30
0.0
 10
13.602375
 20
6.253544
 30
0.0
 10
13.569837
 20
6.288217
 30
0.0
 10
13.548909
 20
6.330915
 30
0.0
 10
13.541466
 20
6.378927
 30
0.0
 10
13.553663
 20
6.440162
 30
0.0
 10
13.588368
 20
6.492066
 30
0.0
 10
13.640296
 20
6.526735
 30
0.0
 10
13.701539
 20
6.538890
 30
0.0
 10
13.701539
 20
6.538890
 30
0.0
  0
LWPOLYLINE
  5
109
100
AcDbEntity
  8
Layer_1
 62
7
100
AcDbPolyline
 90
5
 70
0
 10
13.860289
 20
6.395629
 30
0.0
 10
13.860007
 20
6.399763
 30
0.0
 10
13.859456
 20
6.402244
 30
0.0
 10
13.860283
 20
6.395629
 30
0.0
 10
13.860283
 20
6.395629
 30
0.0
  0
LWPOLYLINE
  5
10a
100
AcDbEntity
  8
Layer_1
 62
7
100
AcDbPolyline
 90
6
 70
0
 10
13.723251
 20
6.220177
 30
0.0
 10
13.723251
 20
6.219895
 30
0.0
 10
13.722591
 20
6.219895
 30
0.0
 10
13.721930
 20
6.219895
 30
0.0
 10
13.723254
 20
6.220177
 30
0.0
 10
13.723254
 20
6.220177
 30
0.0
  0
LWPOLYLINE
  5
10b
100
AcDbEntity
  8
Layer_1
 62
7
100
AcDbPolyline
 90
18
 70
0
 10
2.799876
 20
1.000003
 30
0.0
 10
2.722038
 20
0.984282
 30
0.0
 10
2.658474
 20
0.941424
 30
0.0
 10
2.615616
 20
0.877861
 30
0.0
 10
2.599895
 20
0.800023
 30
0.0
 10
2.615616
 20
0.722193
 30
0.0
 10
2.658474
 20
0.658648
 30
0.0
 10
2.722038
 20
0.615809
 30
0.0
 10
2.799876
 20
0.600097
 30
0.0
 10
2.877732
 20
0.615793
 30
0.0
 10
2.941314
 20
0.658629
 30
0.0
 10
2.984186
 20
0.722180
 30
0.0
 10
2.999912
 20
0.800023
 30
0.0
 10
2.984186
 20
0.877875
 30
0.0
 10
2.941314
 20
0.941445
 30
0.0
 10
2.877732
 20
0.984299
 30
0.0
 10
2.799876
 20
1.000003
 30
0.0
 10
2.799876
 20
1.000003
 30
0.0
  0
LWPOLYLINE
  5
10c
100
AcDbEntity
  8
Layer_1
 62
7
100
AcDbPolyline
 90
18
 70
0
 10
11.999879
 20
1.000003
 30
0.0
 10
11.922041
 20
0.984282
 30
0.0
 10
11.858477
 20
0.941424
 30
0.0
 10
11.815619
 20
0.877861
 30
0.0
 10
11.799898
 20
0.800023
 30
0.0
 10
11.815619
 20
0.722193
 30
0.0
 10
11.858477
 20
0.658648
 30
0.0
 10
11.922041
 20
0.615809
 30
0.0
 10
11.999879
 20
0.600097
 30
0.0
 10
12.077736
 20
0.615793
 30
0.0
 10
12.141317
 20
0.658629
 30
0.0
 10
12.184189
 20
0.722180
 30
0.0
 10
12.199915
 20
0.800023
 30
0.0
 10
12.184189
 20
0.877875
 30
0.0
 10
12.141317
 20
0.941445
 30
0.0
 10
12.077736
 20
0.984299
 30
0.0
 10
11.999879
 20
1.000003
 30
0.0
 10
11.999879
 20
1.000003
 30
0.0
  0
LWPOLYLINE
  5
10d
100
AcDbEntity
  8
Layer_1
 62
7
100
AcDbPolyline
 90
8
 70
1
 10
13.000120
 20
10.800016
 30
0.0
 10
13.000120
 20
9.800001
 30
0.0
 10
13.028455
 20
9.800001
 30
0.0
 10
13.028455
 20
10.771629
 30
0.0
 10
14.000135
 20
10.771629
 30
0.0
 10
14.000135
 20
10.800016
 30
0.0
 10
13.000120
 20
10.800016
 30
0.0
 10
13.000120
 20
10.800016
 30
0.0
  0
LWPOLYLINE
  5
10e
100
AcDbEntity
  8
Layer_1
 62
7
100
AcDbPolyline
 90
9
 70
1
 10
17.000126
 20
10.800016
 30
0.0
 10
17.000126
 20
10.771629
 30
0.0
 10
17.971809
 20
10.771629
 30
0.0
 10
17.971809
 20
9.800001
 30
0.0
 10
18.000141
 20
9.800001
 30
0.0
 10
18.000141
 20
10.785795
 30
0.0
 10
18.000141
 20
10.800016
 30
0.0
 10
17.000126
 20
10.800016
 30
0.0
 10
17.000126
 20
10.800016
 30
0.0
  0
LWPOLYLINE
  5
10f
100
AcDbEntity
  8
Layer_1
 62
7
100
AcDbPolyline
 90
8
 70
1
 10
13.000120
 20
0.799979
 30
0.0
 10
13.000120
 20
-0.000000
 30
0.0
 10
14.000135
 20
-0.000000
 30
0.0
 10
14.000135
 20
0.028332
 30
0.0
 10
13.028455
 20
0.028332
 30
0.0
 10
13.028455
 20
0.799979
 30
0.0
 10
13.000120
 20
0.799979
 30
0.0
 10
13.000120
 20
0.799979
 30
0.0
  0
LWPOLYLINE
  5
110
100
AcDbEntity
  8
Layer_1
 62
7
100
AcDbPolyline
 90
8
 70
1
 10
17.971809
 20
0.799979
 30
0.0
 10
17.971809
 20
0.028332
 30
0.0
 10
17.000126
 20
0.028332
 30
0.0
 10
17.000126
 20
-0.000000
 30
0.0
 10
18.000141
 20
-0.000000
 30
0.0
 10
18.000141
 20
0.799979
 30
0.0
 10
17.971809
 20
0.799979
 30
0.0
 10
17.971809
 20
0.799979
 30
0.0
  0
LWPOLYLINE
  5
111
100
AcDbEntity
  8
Layer_1
 62
7
100
AcDbPolyline
 90
7
 70
1
 10
0.000000
 20
10.800296
 30
0.0
 10
0.000000
 20
9.800281
 30
0.0
 10
0.028335
 20
9.800281
 30
0.0
 10
0.028335
 20
10.771907
 30
0.0
 10
1.000015
 20
10.771907
 30
0.0
 10
1.000015
 20
10.800296
 30
0.0
 10
0.000000
 20
10.800296
 30
0.0
  0
LWPOLYLINE
  5
112
100
AcDbEntity
  8
Layer_1
 62
7
100
AcDbPolyline
 90
7
 70
1
 10
0.000000
 20
0.800257
 30
0.0
 10
0.000000
 20
0.000278
 30
0.0
 10
1.000015
 20
0.000278
 30
0.0
 10
1.000015
 20
0.028610
 30
0.0
 10
0.028335
 20
0.028610
 30
0.0
 10
0.028335
 20
0.800257
 30
0.0
 10
0.000000
 20
0.800257
 30
0.0
  0
LWPOLYLINE
  5
113
100
AcDbEntity
  8
Layer_1
 62
7
100
AcDbPolyline
 90
8
 70
1
 10
13.000120
 20
10.800016
 30
0.0
 10
13.000120
 20
9.800001
 30
0.0
 10
13.028455
 20
9.800001
 30
0.0
 10
13.028455
 20
10.771629
 30
0.0
 10
14.000135
 20
10.771629
 30
0.0
 10
14.000135
 20
10.800016
 30
0.0
 10
13.000120
 20
10.800016
 30
0.0
 10
13.000120
 20
10.800016
 30
0.0
  0
LWPOLYLINE
  5
114
100
AcDbEntity
  8
Layer_1
 62
7
100
AcDbPolyline
 90
9
 70
1
 10
17.000126
 20
10.800016
 30
0.0
 10
17.000126
 20
10.771629
 30
0.0
 10
17.971809
 20
10.771629
 30
0.0
 10
17.971809
 20
9.800001
 30
0.0
 10
18.000141
 20
9.800001
 30
0.0
 10
18.000141
 20
10.785795
 30
0.0
 10
18.000141
 20
10.800016
 30
0.0
 10
17.000126
 20
10.800016
 30
0.0
 10
17.000126
 20
10.800016
 30
0.0
  0
LWPOLYLINE
  5
115
100
AcDbEntity
  8
Layer_1
 62
7
100
AcDbPolyline
 90
8
 70
1
 10
13.000120
 20
0.799979
 30
0.0
 10
13.000120
 20
-0.000000
 30
0.0
 10
14.000135
 20
-0.000000
 30
0.0
 10
14.000135
 20
0.028332
 30
0.0
 10
13.028455
 20
0.028332
 30
0.0
 10
13.028455
 20
0.799979
 30
0.0
 10
13.000120
 20
0.799979
 30
0.0
 10
13.000120
 20
0.799979
 30
0.0
  0
LWPOLYLINE
  5
116
100
AcDbEntity
  8
Layer_1
 62
7
100
AcDbPolyline
 90
8
 70
1
 10
17.971809
 20
0.799979
 30
0.0
 10
17.971809
 20
0.028332
 30
0.0
 10
17.000126
 20
0.028332
 30
0.0
 10
17.000126
 20
-0.000000
 30
0.0
 10
18.000141
 20
-0.000000
 30
0.0
 10
18.000141
 20
0.799979
 30
0.0
 10
17.971809
 20
0.799979
 30
0.0
 10
17.971809
 20
0.799979
 30
0.0
  0
ENDSEC
  0
SECTION
  2
OBJECTS
  0
DICTIONARY
  5
C
330
0
100
AcDbDictionary
  3
ACAD_GROUP
350
D
  3
ACAD_MLINESTYLE
350
17
  0
DICTIONARY
  5
D
330
C
100
AcDbDictionary
  0
DICTIONARY
  5
1A
330
C
100
AcDbDictionary
  0
DICTIONARY
  5
17
330
C
100
AcDbDictionary
  3
STANDARD
350
18
  0
DICTIONARY
  5
19
330
C
100
AcDbDictionary
  0
ENDSEC
  0
EOF
