solid OpenSCAD_Model
  facet normal -0 0 -1
    outer loop
      vertex 3.83789 0.351562 0
      vertex 2.91992 0 0
      vertex 3.45703 0.947266 0
    endloop
  endfacet
  facet normal 0 0 -1
    outer loop
      vertex 4.11133 1.01562 0
      vertex 4.72656 1.20117 0
      vertex 4.43359 0.537109 0
    endloop
  endfacet
  facet normal 0 0 -1
    outer loop
      vertex 2.91992 0 0
      vertex 2.62695 1.06445 0
      vertex 3.45703 0.947266 0
    endloop
  endfacet
  facet normal 0 0 -1
    outer loop
      vertex 6.25977 1.39648 0
      vertex 5.76172 1.89453 0
      vertex 6.72852 1.75781 0
    endloop
  endfacet
  facet normal 0 0 -1
    outer loop
      vertex 6.72852 1.75781 0
      vertex 6.15234 2.38281 0
      vertex 7.1875 2.25586 0
    endloop
  endfacet
  facet normal 0 0 -1
    outer loop
      vertex 6.45508 5.46875 0
      vertex 7.64648 5.625 0
      vertex 6.64062 4.85352 0
    endloop
  endfacet
  facet normal 0 0 -1
    outer loop
      vertex 6.70898 4.19922 0
      vertex 7.83203 4.93164 0
      vertex 7.89062 4.19922 0
    endloop
  endfacet
  facet normal 0 0 -1
    outer loop
      vertex 7.64648 5.625 0
      vertex 6.15234 6.01562 0
      vertex 5.76172 6.50391 0
    endloop
  endfacet
  facet normal 0 0 -1
    outer loop
      vertex 6.45508 2.92969 0
      vertex 6.64062 3.54492 0
      vertex 7.5293 2.77344 0
    endloop
  endfacet
  facet normal 0 0 -1
    outer loop
      vertex 7.64648 5.625 0
      vertex 5.76172 6.50391 0
      vertex 5.21484 8.26172 0
    endloop
  endfacet
  facet normal 0 0 -1
    outer loop
      vertex 7.1875 2.25586 0
      vertex 6.45508 2.92969 0
      vertex 7.5293 2.77344 0
    endloop
  endfacet
  facet normal 0 0 -1
    outer loop
      vertex 2.63672 13.8281 0
      vertex 5.55664 10.2246 0
      vertex 5.21484 8.26172 0
    endloop
  endfacet
  facet normal 0 0 -1
    outer loop
      vertex 2.63672 13.8281 0
      vertex 3.55469 14.3164 0
      vertex 5.55664 10.2246 0
    endloop
  endfacet
  facet normal -0 0 -1
    outer loop
      vertex 4.375 8.53516 0
      vertex 4.11133 7.38281 0
      vertex 3.45703 8.63281 0
    endloop
  endfacet
  facet normal 0 0 -1
    outer loop
      vertex 5.21484 8.26172 0
      vertex 5.55664 10.2246 0
      vertex 7.64648 5.625 0
    endloop
  endfacet
  facet normal 0 -0 -1
    outer loop
      vertex 3.45703 8.63281 0
      vertex 3.45703 7.45117 0
      vertex 2.44141 8.51562 0
    endloop
  endfacet
  facet normal 0 -0 -1
    outer loop
      vertex 2.44141 8.51562 0
      vertex 2.55859 7.32422 0
      vertex 1.51367 8.18359 0
    endloop
  endfacet
  facet normal 0 -0 -1
    outer loop
      vertex 1.51367 8.18359 0
      vertex 1.75781 6.97266 0
      vertex 0.683594 7.65625 0
    endloop
  endfacet
  facet normal 0 0 -1
    outer loop
      vertex 0.683594 7.65625 0
      vertex 1.75781 6.97266 0
      vertex 1.09375 6.43555 0
    endloop
  endfacet
  facet normal 0 0 -1
    outer loop
      vertex 0 6.96289 0
      vertex 0.683594 7.65625 0
      vertex 1.09375 6.43555 0
    endloop
  endfacet
  facet normal -0 0 -1
    outer loop
      vertex 1.09375 6.43555 0
      vertex 0.595703 5.73242 0
      vertex 0 6.96289 0
    endloop
  endfacet
  facet normal 0 0 -1
    outer loop
      vertex 1.51367 8.18359 0
      vertex 2.55859 7.32422 0
      vertex 1.75781 6.97266 0
    endloop
  endfacet
  facet normal 0 0 -1
    outer loop
      vertex 2.44141 8.51562 0
      vertex 3.45703 7.45117 0
      vertex 2.55859 7.32422 0
    endloop
  endfacet
  facet normal 0 0 -1
    outer loop
      vertex 3.45703 8.63281 0
      vertex 4.11133 7.38281 0
      vertex 3.45703 7.45117 0
    endloop
  endfacet
  facet normal 0 -0 -1
    outer loop
      vertex 4.375 8.53516 0
      vertex 4.72656 7.19727 0
      vertex 4.11133 7.38281 0
    endloop
  endfacet
  facet normal 0 0 -1
    outer loop
      vertex 4.375 8.53516 0
      vertex 5.21484 8.26172 0
      vertex 4.72656 7.19727 0
    endloop
  endfacet
  facet normal 0 0 -1
    outer loop
      vertex 4.72656 7.19727 0
      vertex 5.21484 8.26172 0
      vertex 5.27344 6.89453 0
    endloop
  endfacet
  facet normal 0 0 -1
    outer loop
      vertex 5.76172 6.50391 0
      vertex 5.27344 6.89453 0
      vertex 5.21484 8.26172 0
    endloop
  endfacet
  facet normal -0 0 -1
    outer loop
      vertex 7.64648 5.625 0
      vertex 6.45508 5.46875 0
      vertex 6.15234 6.01562 0
    endloop
  endfacet
  facet normal 0 0 -1
    outer loop
      vertex 7.83203 4.93164 0
      vertex 6.70898 4.19922 0
      vertex 6.64062 4.85352 0
    endloop
  endfacet
  facet normal -0 0 -1
    outer loop
      vertex 7.83203 4.93164 0
      vertex 6.64062 4.85352 0
      vertex 7.64648 5.625 0
    endloop
  endfacet
  facet normal 0 0 -1
    outer loop
      vertex 7.88086 3.88672 0
      vertex 6.70898 4.19922 0
      vertex 7.89062 4.19922 0
    endloop
  endfacet
  facet normal 0 0 -1
    outer loop
      vertex 7.88086 3.88672 0
      vertex 7.75391 3.31055 0
      vertex 6.64062 3.54492 0
    endloop
  endfacet
  facet normal -0 0 -1
    outer loop
      vertex 7.88086 3.88672 0
      vertex 6.64062 3.54492 0
      vertex 6.70898 4.19922 0
    endloop
  endfacet
  facet normal 0 0 -1
    outer loop
      vertex 6.64062 3.54492 0
      vertex 7.75391 3.31055 0
      vertex 7.5293 2.77344 0
    endloop
  endfacet
  facet normal 0 0 -1
    outer loop
      vertex 7.1875 2.25586 0
      vertex 6.15234 2.38281 0
      vertex 6.45508 2.92969 0
    endloop
  endfacet
  facet normal 0 0 -1
    outer loop
      vertex 6.72852 1.75781 0
      vertex 5.76172 1.89453 0
      vertex 6.15234 2.38281 0
    endloop
  endfacet
  facet normal -0 0 -1
    outer loop
      vertex 6.25977 1.39648 0
      vertex 5.68359 1.06445 0
      vertex 5.76172 1.89453 0
    endloop
  endfacet
  facet normal 0 0 -1
    outer loop
      vertex 5.76172 1.89453 0
      vertex 5.68359 1.06445 0
      vertex 5.27344 1.50391 0
    endloop
  endfacet
  facet normal 0 0 -1
    outer loop
      vertex 4.72656 1.20117 0
      vertex 5.27344 1.50391 0
      vertex 5.68359 1.06445 0
    endloop
  endfacet
  facet normal 0 0 -1
    outer loop
      vertex 4.43359 0.537109 0
      vertex 4.72656 1.20117 0
      vertex 5.68359 1.06445 0
    endloop
  endfacet
  facet normal 0 0 -1
    outer loop
      vertex 3.83789 0.351562 0
      vertex 4.11133 1.01562 0
      vertex 4.43359 0.537109 0
    endloop
  endfacet
  facet normal 0 0 -1
    outer loop
      vertex 3.83789 0.351562 0
      vertex 3.45703 0.947266 0
      vertex 4.11133 1.01562 0
    endloop
  endfacet
  facet normal 0 0 1
    outer loop
      vertex 3.45703 0.947266 2
      vertex 2.91992 0 2
      vertex 3.83789 0.351562 2
    endloop
  endfacet
  facet normal 0 -0 1
    outer loop
      vertex 4.43359 0.537109 2
      vertex 4.72656 1.20117 2
      vertex 4.11133 1.01562 2
    endloop
  endfacet
  facet normal 0 0 1
    outer loop
      vertex 3.45703 0.947266 2
      vertex 2.62695 1.06445 2
      vertex 2.91992 0 2
    endloop
  endfacet
  facet normal 0 0 1
    outer loop
      vertex 6.72852 1.75781 2
      vertex 5.76172 1.89453 2
      vertex 6.25977 1.39648 2
    endloop
  endfacet
  facet normal 0 0 1
    outer loop
      vertex 7.1875 2.25586 2
      vertex 6.15234 2.38281 2
      vertex 6.72852 1.75781 2
    endloop
  endfacet
  facet normal 0 -0 1
    outer loop
      vertex 6.64062 4.85352 2
      vertex 7.64648 5.625 2
      vertex 6.45508 5.46875 2
    endloop
  endfacet
  facet normal 0 0 1
    outer loop
      vertex 7.89062 4.19922 2
      vertex 7.83203 4.93164 2
      vertex 6.70898 4.19922 2
    endloop
  endfacet
  facet normal 0 0 1
    outer loop
      vertex 5.76172 6.50391 2
      vertex 6.15234 6.01562 2
      vertex 7.64648 5.625 2
    endloop
  endfacet
  facet normal 0 0 1
    outer loop
      vertex 7.5293 2.77344 2
      vertex 6.64062 3.54492 2
      vertex 6.45508 2.92969 2
    endloop
  endfacet
  facet normal 0 0 1
    outer loop
      vertex 5.21484 8.26172 2
      vertex 5.76172 6.50391 2
      vertex 7.64648 5.625 2
    endloop
  endfacet
  facet normal 0 0 1
    outer loop
      vertex 7.5293 2.77344 2
      vertex 6.45508 2.92969 2
      vertex 7.1875 2.25586 2
    endloop
  endfacet
  facet normal 0 -0 1
    outer loop
      vertex 5.21484 8.26172 2
      vertex 5.55664 10.2246 2
      vertex 2.63672 13.8281 2
    endloop
  endfacet
  facet normal 0 0 1
    outer loop
      vertex 5.55664 10.2246 2
      vertex 3.55469 14.3164 2
      vertex 2.63672 13.8281 2
    endloop
  endfacet
  facet normal 0 0 1
    outer loop
      vertex 3.45703 8.63281 2
      vertex 4.11133 7.38281 2
      vertex 4.375 8.53516 2
    endloop
  endfacet
  facet normal 0 0 1
    outer loop
      vertex 7.64648 5.625 2
      vertex 5.55664 10.2246 2
      vertex 5.21484 8.26172 2
    endloop
  endfacet
  facet normal -0 0 1
    outer loop
      vertex 2.44141 8.51562 2
      vertex 3.45703 7.45117 2
      vertex 3.45703 8.63281 2
    endloop
  endfacet
  facet normal -0 0 1
    outer loop
      vertex 1.51367 8.18359 2
      vertex 2.55859 7.32422 2
      vertex 2.44141 8.51562 2
    endloop
  endfacet
  facet normal -0 0 1
    outer loop
      vertex 0.683594 7.65625 2
      vertex 1.75781 6.97266 2
      vertex 1.51367 8.18359 2
    endloop
  endfacet
  facet normal 0 -0 1
    outer loop
      vertex 1.09375 6.43555 2
      vertex 1.75781 6.97266 2
      vertex 0.683594 7.65625 2
    endloop
  endfacet
  facet normal 0 0 1
    outer loop
      vertex 1.09375 6.43555 2
      vertex 0.683594 7.65625 2
      vertex 0 6.96289 2
    endloop
  endfacet
  facet normal 0 0 1
    outer loop
      vertex 0 6.96289 2
      vertex 0.595703 5.73242 2
      vertex 1.09375 6.43555 2
    endloop
  endfacet
  facet normal 0 -0 1
    outer loop
      vertex 1.75781 6.97266 2
      vertex 2.55859 7.32422 2
      vertex 1.51367 8.18359 2
    endloop
  endfacet
  facet normal 0 -0 1
    outer loop
      vertex 2.55859 7.32422 2
      vertex 3.45703 7.45117 2
      vertex 2.44141 8.51562 2
    endloop
  endfacet
  facet normal -0 0 1
    outer loop
      vertex 3.45703 7.45117 2
      vertex 4.11133 7.38281 2
      vertex 3.45703 8.63281 2
    endloop
  endfacet
  facet normal -0 0 1
    outer loop
      vertex 4.11133 7.38281 2
      vertex 4.72656 7.19727 2
      vertex 4.375 8.53516 2
    endloop
  endfacet
  facet normal 0 -0 1
    outer loop
      vertex 4.72656 7.19727 2
      vertex 5.21484 8.26172 2
      vertex 4.375 8.53516 2
    endloop
  endfacet
  facet normal 0 0 1
    outer loop
      vertex 5.27344 6.89453 2
      vertex 5.21484 8.26172 2
      vertex 4.72656 7.19727 2
    endloop
  endfacet
  facet normal 0 0 1
    outer loop
      vertex 5.21484 8.26172 2
      vertex 5.27344 6.89453 2
      vertex 5.76172 6.50391 2
    endloop
  endfacet
  facet normal 0 0 1
    outer loop
      vertex 6.15234 6.01562 2
      vertex 6.45508 5.46875 2
      vertex 7.64648 5.625 2
    endloop
  endfacet
  facet normal -0 0 1
    outer loop
      vertex 6.64062 4.85352 2
      vertex 6.70898 4.19922 2
      vertex 7.83203 4.93164 2
    endloop
  endfacet
  facet normal 0 0 1
    outer loop
      vertex 7.64648 5.625 2
      vertex 6.64062 4.85352 2
      vertex 7.83203 4.93164 2
    endloop
  endfacet
  facet normal 0 0 1
    outer loop
      vertex 7.89062 4.19922 2
      vertex 6.70898 4.19922 2
      vertex 7.88086 3.88672 2
    endloop
  endfacet
  facet normal -0 0 1
    outer loop
      vertex 6.64062 3.54492 2
      vertex 7.75391 3.31055 2
      vertex 7.88086 3.88672 2
    endloop
  endfacet
  facet normal 0 0 1
    outer loop
      vertex 6.70898 4.19922 2
      vertex 6.64062 3.54492 2
      vertex 7.88086 3.88672 2
    endloop
  endfacet
  facet normal 0 -0 1
    outer loop
      vertex 7.5293 2.77344 2
      vertex 7.75391 3.31055 2
      vertex 6.64062 3.54492 2
    endloop
  endfacet
  facet normal 0 0 1
    outer loop
      vertex 6.45508 2.92969 2
      vertex 6.15234 2.38281 2
      vertex 7.1875 2.25586 2
    endloop
  endfacet
  facet normal 0 0 1
    outer loop
      vertex 6.15234 2.38281 2
      vertex 5.76172 1.89453 2
      vertex 6.72852 1.75781 2
    endloop
  endfacet
  facet normal 0 0 1
    outer loop
      vertex 5.76172 1.89453 2
      vertex 5.68359 1.06445 2
      vertex 6.25977 1.39648 2
    endloop
  endfacet
  facet normal -0 0 1
    outer loop
      vertex 5.27344 1.50391 2
      vertex 5.68359 1.06445 2
      vertex 5.76172 1.89453 2
    endloop
  endfacet
  facet normal 0 0 1
    outer loop
      vertex 5.68359 1.06445 2
      vertex 5.27344 1.50391 2
      vertex 4.72656 1.20117 2
    endloop
  endfacet
  facet normal 0 0 1
    outer loop
      vertex 5.68359 1.06445 2
      vertex 4.72656 1.20117 2
      vertex 4.43359 0.537109 2
    endloop
  endfacet
  facet normal 0 0 1
    outer loop
      vertex 4.43359 0.537109 2
      vertex 4.11133 1.01562 2
      vertex 3.83789 0.351562 2
    endloop
  endfacet
  facet normal 0 0 1
    outer loop
      vertex 4.11133 1.01562 2
      vertex 3.45703 0.947266 2
      vertex 3.83789 0.351562 2
    endloop
  endfacet
  facet normal 0.357647 -0.933857 0
    outer loop
      vertex 3.83789 0.351562 0
      vertex 2.91992 0 2
      vertex 2.91992 0 0
    endloop
  endfacet
  facet normal 0.357647 -0.933857 0
    outer loop
      vertex 3.83789 0.351562 0
      vertex 3.83789 0.351562 2
      vertex 2.91992 0 2
    endloop
  endfacet
  facet normal 0.297384 -0.954758 0
    outer loop
      vertex 4.43359 0.537109 0
      vertex 3.83789 0.351562 2
      vertex 3.83789 0.351562 0
    endloop
  endfacet
  facet normal 0.297384 -0.954758 0
    outer loop
      vertex 4.43359 0.537109 0
      vertex 4.43359 0.537109 2
      vertex 3.83789 0.351562 2
    endloop
  endfacet
  facet normal 0.388701 -0.921364 0
    outer loop
      vertex 5.68359 1.06445 0
      vertex 4.43359 0.537109 2
      vertex 4.43359 0.537109 0
    endloop
  endfacet
  facet normal 0.388701 -0.921364 0
    outer loop
      vertex 5.68359 1.06445 0
      vertex 5.68359 1.06445 2
      vertex 4.43359 0.537109 2
    endloop
  endfacet
  facet normal 0.499299 -0.86643 0
    outer loop
      vertex 6.25977 1.39648 0
      vertex 5.68359 1.06445 2
      vertex 5.68359 1.06445 0
    endloop
  endfacet
  facet normal 0.499299 -0.86643 0
    outer loop
      vertex 6.25977 1.39648 0
      vertex 6.25977 1.39648 2
      vertex 5.68359 1.06445 2
    endloop
  endfacet
  facet normal 0.610508 -0.79201 0
    outer loop
      vertex 6.72852 1.75781 0
      vertex 6.25977 1.39648 2
      vertex 6.25977 1.39648 0
    endloop
  endfacet
  facet normal 0.610508 -0.79201 0
    outer loop
      vertex 6.72852 1.75781 0
      vertex 6.72852 1.75781 2
      vertex 6.25977 1.39648 2
    endloop
  endfacet
  facet normal 0.735356 -0.677681 0
    outer loop
      vertex 7.1875 2.25586 0
      vertex 6.72852 1.75781 2
      vertex 6.72852 1.75781 0
    endloop
  endfacet
  facet normal 0.735356 -0.677681 0
    outer loop
      vertex 7.1875 2.25586 0
      vertex 7.1875 2.25586 2
      vertex 6.72852 1.75781 2
    endloop
  endfacet
  facet normal 0.834465 -0.551062 0
    outer loop
      vertex 7.5293 2.77344 0
      vertex 7.1875 2.25586 2
      vertex 7.1875 2.25586 0
    endloop
  endfacet
  facet normal 0.834465 -0.551062 0
    outer loop
      vertex 7.5293 2.77344 0
      vertex 7.5293 2.77344 2
      vertex 7.1875 2.25586 2
    endloop
  endfacet
  facet normal 0.92258 -0.385806 0
    outer loop
      vertex 7.75391 3.31055 0
      vertex 7.5293 2.77344 2
      vertex 7.5293 2.77344 0
    endloop
  endfacet
  facet normal 0.92258 -0.385806 0
    outer loop
      vertex 7.75391 3.31055 0
      vertex 7.75391 3.31055 2
      vertex 7.5293 2.77344 2
    endloop
  endfacet
  facet normal 0.976575 -0.215178 0
    outer loop
      vertex 7.88086 3.88672 0
      vertex 7.75391 3.31055 2
      vertex 7.75391 3.31055 0
    endloop
  endfacet
  facet normal 0.976575 -0.215178 0
    outer loop
      vertex 7.88086 3.88672 0
      vertex 7.88086 3.88672 2
      vertex 7.75391 3.31055 2
    endloop
  endfacet
  facet normal 0.999512 -0.0312348 0
    outer loop
      vertex 7.89062 4.19922 0
      vertex 7.88086 3.88672 2
      vertex 7.88086 3.88672 0
    endloop
  endfacet
  facet normal 0.999512 -0.0312348 0
    outer loop
      vertex 7.89062 4.19922 0
      vertex 7.89062 4.19922 2
      vertex 7.88086 3.88672 2
    endloop
  endfacet
  facet normal 0.996815 0.0797452 0
    outer loop
      vertex 7.83203 4.93164 0
      vertex 7.89062 4.19922 2
      vertex 7.89062 4.19922 0
    endloop
  endfacet
  facet normal 0.996815 0.0797452 -0
    outer loop
      vertex 7.83203 4.93164 0
      vertex 7.83203 4.93164 2
      vertex 7.89062 4.19922 2
    endloop
  endfacet
  facet normal 0.966009 0.258509 0
    outer loop
      vertex 7.64648 5.625 0
      vertex 7.83203 4.93164 2
      vertex 7.83203 4.93164 0
    endloop
  endfacet
  facet normal 0.966009 0.258509 -0
    outer loop
      vertex 7.64648 5.625 0
      vertex 7.64648 5.625 2
      vertex 7.83203 4.93164 2
    endloop
  endfacet
  facet normal 0.910433 0.413657 0
    outer loop
      vertex 5.55664 10.2246 0
      vertex 7.64648 5.625 2
      vertex 7.64648 5.625 0
    endloop
  endfacet
  facet normal 0.910433 0.413657 -0
    outer loop
      vertex 5.55664 10.2246 0
      vertex 5.55664 10.2246 2
      vertex 7.64648 5.625 2
    endloop
  endfacet
  facet normal 0.898253 0.439479 0
    outer loop
      vertex 3.55469 14.3164 0
      vertex 5.55664 10.2246 2
      vertex 5.55664 10.2246 0
    endloop
  endfacet
  facet normal 0.898253 0.439479 -0
    outer loop
      vertex 3.55469 14.3164 0
      vertex 3.55469 14.3164 2
      vertex 5.55664 10.2246 2
    endloop
  endfacet
  facet normal -0.469613 0.882872 0
    outer loop
      vertex 2.63672 13.8281 0
      vertex 3.55469 14.3164 2
      vertex 3.55469 14.3164 0
    endloop
  endfacet
  facet normal -0.469613 0.882872 0
    outer loop
      vertex 2.63672 13.8281 0
      vertex 2.63672 13.8281 2
      vertex 3.55469 14.3164 2
    endloop
  endfacet
  facet normal -0.907399 -0.420269 0
    outer loop
      vertex 5.21484 8.26172 0
      vertex 2.63672 13.8281 2
      vertex 2.63672 13.8281 0
    endloop
  endfacet
  facet normal -0.907399 -0.420269 0
    outer loop
      vertex 5.21484 8.26172 0
      vertex 5.21484 8.26172 2
      vertex 2.63672 13.8281 2
    endloop
  endfacet
  facet normal 0.309586 0.950871 0
    outer loop
      vertex 4.375 8.53516 0
      vertex 5.21484 8.26172 2
      vertex 5.21484 8.26172 0
    endloop
  endfacet
  facet normal 0.309586 0.950871 -0
    outer loop
      vertex 4.375 8.53516 0
      vertex 4.375 8.53516 2
      vertex 5.21484 8.26172 2
    endloop
  endfacet
  facet normal 0.105786 0.994389 0
    outer loop
      vertex 3.45703 8.63281 0
      vertex 4.375 8.53516 2
      vertex 4.375 8.53516 0
    endloop
  endfacet
  facet normal 0.105786 0.994389 -0
    outer loop
      vertex 3.45703 8.63281 0
      vertex 3.45703 8.63281 2
      vertex 4.375 8.53516 2
    endloop
  endfacet
  facet normal -0.114624 0.993409 0
    outer loop
      vertex 2.44141 8.51562 0
      vertex 3.45703 8.63281 2
      vertex 3.45703 8.63281 0
    endloop
  endfacet
  facet normal -0.114624 0.993409 0
    outer loop
      vertex 2.44141 8.51562 0
      vertex 2.44141 8.51562 2
      vertex 3.45703 8.63281 2
    endloop
  endfacet
  facet normal -0.336964 0.941517 0
    outer loop
      vertex 1.51367 8.18359 0
      vertex 2.44141 8.51562 2
      vertex 2.44141 8.51562 0
    endloop
  endfacet
  facet normal -0.336964 0.941517 0
    outer loop
      vertex 1.51367 8.18359 0
      vertex 1.51367 8.18359 2
      vertex 2.44141 8.51562 2
    endloop
  endfacet
  facet normal -0.536233 0.84407 0
    outer loop
      vertex 0.683594 7.65625 0
      vertex 1.51367 8.18359 2
      vertex 1.51367 8.18359 0
    endloop
  endfacet
  facet normal -0.536233 0.84407 0
    outer loop
      vertex 0.683594 7.65625 0
      vertex 0.683594 7.65625 2
      vertex 1.51367 8.18359 2
    endloop
  endfacet
  facet normal -0.712104 0.702074 0
    outer loop
      vertex 0 6.96289 0
      vertex 0.683594 7.65625 2
      vertex 0.683594 7.65625 0
    endloop
  endfacet
  facet normal -0.712104 0.702074 0
    outer loop
      vertex 0 6.96289 0
      vertex 0 6.96289 2
      vertex 0.683594 7.65625 2
    endloop
  endfacet
  facet normal -0.900069 -0.435748 0
    outer loop
      vertex 0.595703 5.73242 0
      vertex 0 6.96289 2
      vertex 0 6.96289 0
    endloop
  endfacet
  facet normal -0.900069 -0.435748 0
    outer loop
      vertex 0.595703 5.73242 0
      vertex 0.595703 5.73242 2
      vertex 0 6.96289 2
    endloop
  endfacet
  facet normal 0.816024 -0.578017 0
    outer loop
      vertex 1.09375 6.43555 0
      vertex 0.595703 5.73242 2
      vertex 0.595703 5.73242 0
    endloop
  endfacet
  facet normal 0.816024 -0.578017 0
    outer loop
      vertex 1.09375 6.43555 0
      vertex 1.09375 6.43555 2
      vertex 0.595703 5.73242 2
    endloop
  endfacet
  facet normal 0.628869 -0.777511 0
    outer loop
      vertex 1.75781 6.97266 0
      vertex 1.09375 6.43555 2
      vertex 1.09375 6.43555 0
    endloop
  endfacet
  facet normal 0.628869 -0.777511 0
    outer loop
      vertex 1.75781 6.97266 0
      vertex 1.75781 6.97266 2
      vertex 1.09375 6.43555 2
    endloop
  endfacet
  facet normal 0.40199 -0.915644 0
    outer loop
      vertex 2.55859 7.32422 0
      vertex 1.75781 6.97266 2
      vertex 1.75781 6.97266 0
    endloop
  endfacet
  facet normal 0.40199 -0.915644 0
    outer loop
      vertex 2.55859 7.32422 0
      vertex 2.55859 7.32422 2
      vertex 1.75781 6.97266 2
    endloop
  endfacet
  facet normal 0.139914 -0.990164 0
    outer loop
      vertex 3.45703 7.45117 0
      vertex 2.55859 7.32422 2
      vertex 2.55859 7.32422 0
    endloop
  endfacet
  facet normal 0.139914 -0.990164 0
    outer loop
      vertex 3.45703 7.45117 0
      vertex 3.45703 7.45117 2
      vertex 2.55859 7.32422 2
    endloop
  endfacet
  facet normal -0.103912 -0.994586 0
    outer loop
      vertex 4.11133 7.38281 0
      vertex 3.45703 7.45117 2
      vertex 3.45703 7.45117 0
    endloop
  endfacet
  facet normal -0.103912 -0.994586 0
    outer loop
      vertex 4.11133 7.38281 0
      vertex 4.11133 7.38281 2
      vertex 3.45703 7.45117 2
    endloop
  endfacet
  facet normal -0.288742 -0.957407 0
    outer loop
      vertex 4.72656 7.19727 0
      vertex 4.11133 7.38281 2
      vertex 4.11133 7.38281 0
    endloop
  endfacet
  facet normal -0.288742 -0.957407 0
    outer loop
      vertex 4.72656 7.19727 0
      vertex 4.72656 7.19727 2
      vertex 4.11133 7.38281 2
    endloop
  endfacet
  facet normal -0.484316 -0.874893 0
    outer loop
      vertex 5.27344 6.89453 0
      vertex 4.72656 7.19727 2
      vertex 4.72656 7.19727 0
    endloop
  endfacet
  facet normal -0.484316 -0.874893 0
    outer loop
      vertex 5.27344 6.89453 0
      vertex 5.27344 6.89453 2
      vertex 4.72656 7.19727 2
    endloop
  endfacet
  facet normal -0.624695 -0.780869 0
    outer loop
      vertex 5.76172 6.50391 0
      vertex 5.27344 6.89453 2
      vertex 5.27344 6.89453 0
    endloop
  endfacet
  facet normal -0.624695 -0.780869 0
    outer loop
      vertex 5.76172 6.50391 0
      vertex 5.76172 6.50391 2
      vertex 5.27344 6.89453 2
    endloop
  endfacet
  facet normal -0.780869 -0.624695 0
    outer loop
      vertex 6.15234 6.01562 0
      vertex 5.76172 6.50391 2
      vertex 5.76172 6.50391 0
    endloop
  endfacet
  facet normal -0.780869 -0.624695 0
    outer loop
      vertex 6.15234 6.01562 0
      vertex 6.15234 6.01562 2
      vertex 5.76172 6.50391 2
    endloop
  endfacet
  facet normal -0.874893 -0.484316 0
    outer loop
      vertex 6.45508 5.46875 0
      vertex 6.15234 6.01562 2
      vertex 6.15234 6.01562 0
    endloop
  endfacet
  facet normal -0.874893 -0.484316 0
    outer loop
      vertex 6.45508 5.46875 0
      vertex 6.45508 5.46875 2
      vertex 6.15234 6.01562 2
    endloop
  endfacet
  facet normal -0.957407 -0.288742 0
    outer loop
      vertex 6.64062 4.85352 0
      vertex 6.45508 5.46875 2
      vertex 6.45508 5.46875 0
    endloop
  endfacet
  facet normal -0.957407 -0.288742 0
    outer loop
      vertex 6.64062 4.85352 0
      vertex 6.64062 4.85352 2
      vertex 6.45508 5.46875 2
    endloop
  endfacet
  facet normal -0.994586 -0.103912 0
    outer loop
      vertex 6.70898 4.19922 0
      vertex 6.64062 4.85352 2
      vertex 6.64062 4.85352 0
    endloop
  endfacet
  facet normal -0.994586 -0.103912 0
    outer loop
      vertex 6.70898 4.19922 0
      vertex 6.70898 4.19922 2
      vertex 6.64062 4.85352 2
    endloop
  endfacet
  facet normal -0.994586 0.103912 0
    outer loop
      vertex 6.64062 3.54492 0
      vertex 6.70898 4.19922 2
      vertex 6.70898 4.19922 0
    endloop
  endfacet
  facet normal -0.994586 0.103912 0
    outer loop
      vertex 6.64062 3.54492 0
      vertex 6.64062 3.54492 2
      vertex 6.70898 4.19922 2
    endloop
  endfacet
  facet normal -0.957407 0.288742 0
    outer loop
      vertex 6.45508 2.92969 0
      vertex 6.64062 3.54492 2
      vertex 6.64062 3.54492 0
    endloop
  endfacet
  facet normal -0.957407 0.288742 0
    outer loop
      vertex 6.45508 2.92969 0
      vertex 6.45508 2.92969 2
      vertex 6.64062 3.54492 2
    endloop
  endfacet
  facet normal -0.874893 0.484316 0
    outer loop
      vertex 6.15234 2.38281 0
      vertex 6.45508 2.92969 2
      vertex 6.45508 2.92969 0
    endloop
  endfacet
  facet normal -0.874893 0.484316 0
    outer loop
      vertex 6.15234 2.38281 0
      vertex 6.15234 2.38281 2
      vertex 6.45508 2.92969 2
    endloop
  endfacet
  facet normal -0.780869 0.624695 0
    outer loop
      vertex 5.76172 1.89453 0
      vertex 6.15234 2.38281 2
      vertex 6.15234 2.38281 0
    endloop
  endfacet
  facet normal -0.780869 0.624695 0
    outer loop
      vertex 5.76172 1.89453 0
      vertex 5.76172 1.89453 2
      vertex 6.15234 2.38281 2
    endloop
  endfacet
  facet normal -0.624695 0.780869 0
    outer loop
      vertex 5.27344 1.50391 0
      vertex 5.76172 1.89453 2
      vertex 5.76172 1.89453 0
    endloop
  endfacet
  facet normal -0.624695 0.780869 0
    outer loop
      vertex 5.27344 1.50391 0
      vertex 5.27344 1.50391 2
      vertex 5.76172 1.89453 2
    endloop
  endfacet
  facet normal -0.484316 0.874893 0
    outer loop
      vertex 4.72656 1.20117 0
      vertex 5.27344 1.50391 2
      vertex 5.27344 1.50391 0
    endloop
  endfacet
  facet normal -0.484316 0.874893 0
    outer loop
      vertex 4.72656 1.20117 0
      vertex 4.72656 1.20117 2
      vertex 5.27344 1.50391 2
    endloop
  endfacet
  facet normal -0.288742 0.957407 0
    outer loop
      vertex 4.11133 1.01562 0
      vertex 4.72656 1.20117 2
      vertex 4.72656 1.20117 0
    endloop
  endfacet
  facet normal -0.288742 0.957407 0
    outer loop
      vertex 4.11133 1.01562 0
      vertex 4.11133 1.01562 2
      vertex 4.72656 1.20117 2
    endloop
  endfacet
  facet normal -0.103912 0.994586 0
    outer loop
      vertex 3.45703 0.947266 0
      vertex 4.11133 1.01562 2
      vertex 4.11133 1.01562 0
    endloop
  endfacet
  facet normal -0.103912 0.994586 0
    outer loop
      vertex 3.45703 0.947266 0
      vertex 3.45703 0.947266 2
      vertex 4.11133 1.01562 2
    endloop
  endfacet
  facet normal 0.13979 0.990181 0
    outer loop
      vertex 2.62695 1.06445 0
      vertex 3.45703 0.947266 2
      vertex 3.45703 0.947266 0
    endloop
  endfacet
  facet normal 0.13979 0.990181 -0
    outer loop
      vertex 2.62695 1.06445 0
      vertex 2.62695 1.06445 2
      vertex 3.45703 0.947266 2
    endloop
  endfacet
  facet normal -0.964149 -0.265362 0
    outer loop
      vertex 2.91992 0 0
      vertex 2.62695 1.06445 2
      vertex 2.62695 1.06445 0
    endloop
  endfacet
  facet normal -0.964149 -0.265362 0
    outer loop
      vertex 2.91992 0 0
      vertex 2.91992 0 2
      vertex 2.62695 1.06445 2
    endloop
  endfacet
endsolid OpenSCAD_Model
