  0
SECTION
  2
HEADER
  9
$ACADVER
  1
AC1014
  9
$HANDSEED
  5
FFFF
  9
$MEASUREMENT
 70
     1
  0
ENDSEC
  0
SECTION
  2
TABLES
  0
TABLE
  2
VPORT
  5
8
330
0
100
AcDbSymbolTable
 70
     4
  0
VPORT
  5
2E
330
8
100
AcDbSymbolTableRecord
100
AcDbViewportTableRecord
  2
*ACTIVE
 70
     0
 10
0.0
 20
0.0
 11
1.0
 21
1.0
 12
210.0
 22
148.5
 13
0.0
 23
0.0
 14
10.0
 24
10.0
 15
10.0
 25
10.0
 16
0.0
 26
0.0
 36
1.0
 17
0.0
 27
0.0
 37
0.0
 40
341.0
 41
1.24
 42
50.0
 43
0.0
 44
0.0
 50
0.0
 51
0.0
 71
     0
 72
   100
 73
     1
 74
     3
 75
     0
 76
     0
 77
     0
 78
     0
  0
ENDTAB
  0
TABLE
  2
LTYPE
  5
5
330
0
100
AcDbSymbolTable
 70
     1
  0
LTYPE
  5
14
330
5
100
AcDbSymbolTableRecord
100
AcDbLinetypeTableRecord
  2
BYBLOCK
 70
     0
  3

 72
    65
 73
     0
 40
0.0
  0
LTYPE
  5
15
330
5
100
AcDbSymbolTableRecord
100
AcDbLinetypeTableRecord
  2
BYLAYER
 70
     0
  3

 72
    65
 73
     0
 40
0.0
  0
LTYPE
  5
16
330
5
100
AcDbSymbolTableRecord
100
AcDbLinetypeTableRecord
  2
CONTINUOUS
 70
     0
  3
Solid line
 72
    65
 73
     0
 40
0.0
  0
ENDTAB
  0
TABLE
  2
LAYER
  5
2
100
AcDbSymbolTable
 70
2
  0
LAYER
  5
50
100
AcDbSymbolTableRecord
100
AcDbLayerTableRecord
  2
0
 70
0
  6
CONTINUOUS
  0
LAYER
  5
51
100
AcDbSymbolTableRecord
100
AcDbLayerTableRecord
  2
Layer_1
 70
0
  6
CONTINUOUS
  0
ENDTAB
  0
TABLE
  2
STYLE
  5
3
330
0
100
AcDbSymbolTable
 70
     1
  0
STYLE
  5
11
330
3
100
AcDbSymbolTableRecord
100
AcDbTextStyleTableRecord
  2
STANDARD
 70
     0
 40
0.0
 41
1.0
 50
0.0
 71
     0
 42
2.5
  3
txt
  4

  0
ENDTAB
  0
TABLE
  2
VIEW
  5
6
330
0
100
AcDbSymbolTable
 70
     0
  0
ENDTAB
  0
TABLE
  2
UCS
  5
7
330
0
100
AcDbSymbolTable
 70
     0
  0
ENDTAB
  0
TABLE
  2
APPID
  5
9
330
0
100
AcDbSymbolTable
 70
     2
  0
APPID
  5
12
330
9
100
AcDbSymbolTableRecord
100
AcDbRegAppTableRecord
  2
ACAD
 70
     0
  0
ENDTAB
  0
TABLE
  2
DIMSTYLE
  5
A
330
0
100
AcDbSymbolTable
 70
     1
  0
DIMSTYLE
105
27
330
A
100
AcDbSymbolTableRecord
100
AcDbDimStyleTableRecord
  2
ISO-25
 70
     0
  3

  4

  5

  6

  7

 40
1.0
 41
2.5
 42
0.625
 43
3.75
 44
1.25
 45
0.0
 46
0.0
 47
0.0
 48
0.0
140
2.5
141
2.5
142
0.0
143
0.03937007874016
144
1.0
145
0.0
146
1.0
147
0.625
 71
     0
 72
     0
 73
     0
 74
     0
 75
     0
 76
     0
 77
     1
 78
     8
170
     0
171
     3
172
     1
173
     0
174
     0
175
     0
176
     0
177
     0
178
     0
270
     2
271
     2
272
     2
273
     2
274
     3
340
11
275
     0
280
     0
281
     0
282
     0
283
     0
284
     8
285
     0
286
     0
287
     3
288
     0
  0
ENDTAB
  0
TABLE
  2
BLOCK_RECORD
  5
1
330
0
100
AcDbSymbolTable
 70
     1
  0
BLOCK_RECORD
  5
1F
330
1
100
AcDbSymbolTableRecord
100
AcDbBlockTableRecord
  2
*MODEL_SPACE
  0
BLOCK_RECORD
  5
1B
330
1
100
AcDbSymbolTableRecord
100
AcDbBlockTableRecord
  2
*PAPER_SPACE
  0
ENDTAB
  0
ENDSEC
  0
SECTION
  2
BLOCKS
  0
BLOCK
  5
20
330
1F
100
AcDbEntity
  8
0
100
AcDbBlockBegin
  2
*MODEL_SPACE
 70
     0
 10
0.0
 20
0.0
 30
0.0
  3
*MODEL_SPACE
  1

  0
ENDBLK
  5
21
330
1F
100
AcDbEntity
  8
0
100
AcDbBlockEnd
  0
BLOCK
  5
1C
330
1B
100
AcDbEntity
 67
     1
  8
0
100
AcDbBlockBegin
  2
*PAPER_SPACE
  1

  0
ENDBLK
  5
1D
330
1B
100
AcDbEntity
 67
     1
  8
0
100
AcDbBlockEnd
  0
ENDSEC
  0
SECTION
  2
ENTITIES
  0
LWPOLYLINE
  5
100
100
AcDbEntity
  8
Layer_1
 62
7
100
AcDbPolyline
 90
8
 70
1
 10
5.999999
 20
5.999999
 30
0.0
 10
5.999999
 20
4.999984
 30
0.0
 10
5.971667
 20
4.999984
 30
0.0
 10
5.971667
 20
5.971613
 30
0.0
 10
4.999984
 20
5.971613
 30
0.0
 10
4.999984
 20
5.999999
 30
0.0
 10
5.999999
 20
5.999999
 30
0.0
 10
5.999999
 20
5.999999
 30
0.0
  0
LWPOLYLINE
  5
101
100
AcDbEntity
  8
Layer_1
 62
7
100
AcDbPolyline
 90
9
 70
1
 10
1.000015
 20
5.999999
 30
0.0
 10
1.000015
 20
5.971613
 30
0.0
 10
0.028332
 20
5.971613
 30
0.0
 10
0.028332
 20
4.999984
 30
0.0
 10
0.000000
 20
4.999984
 30
0.0
 10
0.000000
 20
5.985778
 30
0.0
 10
0.000000
 20
5.999999
 30
0.0
 10
1.000015
 20
5.999999
 30
0.0
 10
1.000015
 20
5.999999
 30
0.0
  0
LWPOLYLINE
  5
102
100
AcDbEntity
  8
Layer_1
 62
7
100
AcDbPolyline
 90
8
 70
1
 10
5.999999
 20
0.799979
 30
0.0
 10
5.999999
 20
-0.000000
 30
0.0
 10
4.999984
 20
-0.000000
 30
0.0
 10
4.999984
 20
0.028332
 30
0.0
 10
5.971667
 20
0.028332
 30
0.0
 10
5.971667
 20
0.799979
 30
0.0
 10
5.999999
 20
0.799979
 30
0.0
 10
5.999999
 20
0.799979
 30
0.0
  0
LWPOLYLINE
  5
103
100
AcDbEntity
  8
Layer_1
 62
7
100
AcDbPolyline
 90
8
 70
1
 10
0.028332
 20
0.799979
 30
0.0
 10
0.028332
 20
0.028332
 30
0.0
 10
1.000015
 20
0.028332
 30
0.0
 10
1.000015
 20
-0.000000
 30
0.0
 10
0.000000
 20
-0.000000
 30
0.0
 10
0.000000
 20
0.799979
 30
0.0
 10
0.028332
 20
0.799979
 30
0.0
 10
0.028332
 20
0.799979
 30
0.0
  0
LWPOLYLINE
  5
104
100
AcDbEntity
  8
Layer_1
 62
7
100
AcDbPolyline
 90
66
 70
0
 10
2.733385
 20
4.635661
 30
0.0
 10
2.602142
 20
4.629396
 30
0.0
 10
2.471875
 20
4.610601
 30
0.0
 10
2.343557
 20
4.579275
 30
0.0
 10
2.218161
 20
4.535417
 30
0.0
 10
2.096657
 20
4.479026
 30
0.0
 10
1.980020
 20
4.410103
 30
0.0
 10
1.869220
 20
4.328645
 30
0.0
 10
1.765230
 20
4.234652
 30
0.0
 10
1.671236
 20
4.130660
 30
0.0
 10
1.589772
 20
4.019855
 30
0.0
 10
1.520840
 20
3.903209
 30
0.0
 10
1.464440
 20
3.781697
 30
0.0
 10
1.420572
 20
3.656290
 30
0.0
 10
1.389236
 20
3.527963
 30
0.0
 10
1.370432
 20
3.397690
 30
0.0
 10
1.364161
 20
3.266443
 30
0.0
 10
1.370422
 20
3.135196
 30
0.0
 10
1.389216
 20
3.004922
 30
0.0
 10
1.420542
 20
2.876596
 30
0.0
 10
1.464402
 20
2.751189
 30
0.0
 10
1.520795
 20
2.629676
 30
0.0
 10
1.589721
 20
2.513030
 30
0.0
 10
1.671181
 20
2.402224
 30
0.0
 10
1.765174
 20
2.298233
 30
0.0
 10
1.869166
 20
2.204239
 30
0.0
 10
1.979971
 20
2.122777
 30
0.0
 10
2.096617
 20
2.053848
 30
0.0
 10
2.218130
 20
1.997451
 30
0.0
 10
2.343537
 20
1.953587
 30
0.0
 10
2.471863
 20
1.922256
 30
0.0
 10
2.602137
 20
1.903457
 30
0.0
 10
2.733384
 20
1.897190
 30
0.0
 10
2.864631
 20
1.903457
 30
0.0
 10
2.994904
 20
1.922255
 30
0.0
 10
3.123231
 20
1.953587
 30
0.0
 10
3.248637
 20
1.997451
 30
0.0
 10
3.370150
 20
2.053847
 30
0.0
 10
3.486796
 20
2.122776
 30
0.0
 10
3.597601
 20
2.204238
 30
0.0
 10
3.701593
 20
2.298233
 30
0.0
 10
3.795587
 20
2.402224
 30
0.0
 10
3.877049
 20
2.513030
 30
0.0
 10
3.945978
 20
2.629676
 30
0.0
 10
4.002374
 20
2.751189
 30
0.0
 10
4.046238
 20
2.876595
 30
0.0
 10
4.077569
 20
3.004922
 30
0.0
 10
4.096368
 20
3.135195
 30
0.0
 10
4.102635
 20
3.266442
 30
0.0
 10
4.096368
 20
3.397689
 30
0.0
 10
4.077569
 20
3.527963
 30
0.0
 10
4.046238
 20
3.656289
 30
0.0
 10
4.002374
 20
3.781696
 30
0.0
 10
3.945978
 20
3.903209
 30
0.0
 10
3.877049
 20
4.019855
 30
0.0
 10
3.795587
 20
4.130660
 30
0.0
 10
3.701593
 20
4.234652
 30
0.0
 10
3.597601
 20
4.328645
 30
0.0
 10
3.486795
 20
4.410102
 30
0.0
 10
3.370149
 20
4.479026
 30
0.0
 10
3.248635
 20
4.535417
 30
0.0
 10
3.123228
 20
4.579275
 30
0.0
 10
2.994902
 20
4.610601
 30
0.0
 10
2.864629
 20
4.629396
 30
0.0
 10
2.733384
 20
4.635661
 30
0.0
 10
2.733385
 20
4.635661
 30
0.0
  0
LWPOLYLINE
  5
105
100
AcDbEntity
  8
Layer_1
 62
7
100
AcDbPolyline
 90
66
 70
0
 10
2.733385
 20
4.161836
 30
0.0
 10
2.821884
 20
4.157455
 30
0.0
 10
2.908884
 20
4.144473
 30
0.0
 10
2.993798
 20
4.123134
 30
0.0
 10
3.076038
 20
4.093680
 30
0.0
 10
3.155019
 20
4.056355
 30
0.0
 10
3.230151
 20
4.011401
 30
0.0
 10
3.300849
 20
3.959063
 30
0.0
 10
3.366526
 20
3.899583
 30
0.0
 10
3.426006
 20
3.833907
 30
0.0
 10
3.478344
 20
3.763209
 30
0.0
 10
3.523297
 20
3.688076
 30
0.0
 10
3.560623
 20
3.609096
 30
0.0
 10
3.590077
 20
3.526855
 30
0.0
 10
3.611416
 20
3.441941
 30
0.0
 10
3.624398
 20
3.354941
 30
0.0
 10
3.628779
 20
3.266442
 30
0.0
 10
3.624398
 20
3.177943
 30
0.0
 10
3.611416
 20
3.090944
 30
0.0
 10
3.590077
 20
3.006030
 30
0.0
 10
3.560623
 20
2.923789
 30
0.0
 10
3.523297
 20
2.844809
 30
0.0
 10
3.478344
 20
2.769676
 30
0.0
 10
3.426006
 20
2.698978
 30
0.0
 10
3.366526
 20
2.633302
 30
0.0
 10
3.300849
 20
2.573822
 30
0.0
 10
3.230151
 20
2.521483
 30
0.0
 10
3.155019
 20
2.476530
 30
0.0
 10
3.076038
 20
2.439205
 30
0.0
 10
2.993798
 20
2.409751
 30
0.0
 10
2.908884
 20
2.388411
 30
0.0
 10
2.821884
 20
2.375429
 30
0.0
 10
2.733385
 20
2.371048
 30
0.0
 10
2.644886
 20
2.375429
 30
0.0
 10
2.557886
 20
2.388411
 30
0.0
 10
2.472972
 20
2.409751
 30
0.0
 10
2.390732
 20
2.439205
 30
0.0
 10
2.311751
 20
2.476530
 30
0.0
 10
2.236619
 20
2.521483
 30
0.0
 10
2.165921
 20
2.573822
 30
0.0
 10
2.100244
 20
2.633302
 30
0.0
 10
2.040764
 20
2.698978
 30
0.0
 10
1.988426
 20
2.769676
 30
0.0
 10
1.943473
 20
2.844809
 30
0.0
 10
1.906147
 20
2.923789
 30
0.0
 10
1.876693
 20
3.006030
 30
0.0
 10
1.855354
 20
3.090944
 30
0.0
 10
1.842372
 20
3.177943
 30
0.0
 10
1.837991
 20
3.266442
 30
0.0
 10
1.842372
 20
3.354941
 30
0.0
 10
1.855354
 20
3.441941
 30
0.0
 10
1.876693
 20
3.526855
 30
0.0
 10
1.906147
 20
3.609096
 30
0.0
 10
1.943473
 20
3.688076
 30
0.0
 10
1.988426
 20
3.763209
 30
0.0
 10
2.040764
 20
3.833907
 30
0.0
 10
2.100244
 20
3.899583
 30
0.0
 10
2.165921
 20
3.959063
 30
0.0
 10
2.236619
 20
4.011401
 30
0.0
 10
2.311751
 20
4.056355
 30
0.0
 10
2.390732
 20
4.093680
 30
0.0
 10
2.472972
 20
4.123134
 30
0.0
 10
2.557886
 20
4.144473
 30
0.0
 10
2.644886
 20
4.157455
 30
0.0
 10
2.733385
 20
4.161836
 30
0.0
 10
2.733385
 20
4.161836
 30
0.0
  0
LWPOLYLINE
  5
106
100
AcDbEntity
  8
Layer_1
 62
7
100
AcDbPolyline
 90
14
 70
1
 10
2.684887
 20
3.229141
 30
0.0
 10
2.722109
 20
3.266363
 30
0.0
 10
2.684887
 20
3.303585
 30
0.0
 10
2.696247
 20
3.314945
 30
0.0
 10
2.733469
 20
3.277723
 30
0.0
 10
2.770691
 20
3.314945
 30
0.0
 10
2.781918
 20
3.303718
 30
0.0
 10
2.744696
 20
3.266496
 30
0.0
 10
2.781918
 20
3.229274
 30
0.0
 10
2.770557
 20
3.217914
 30
0.0
 10
2.733335
 20
3.255136
 30
0.0
 10
2.696113
 20
3.217914
 30
0.0
 10
2.684887
 20
3.229141
 30
0.0
 10
2.684887
 20
3.229141
 30
0.0
  0
ENDSEC
  0
SECTION
  2
OBJECTS
  0
DICTIONARY
  5
C
330
0
100
AcDbDictionary
  3
ACAD_GROUP
350
D
  3
ACAD_MLINESTYLE
350
17
  0
DICTIONARY
  5
D
330
C
100
AcDbDictionary
  0
DICTIONARY
  5
1A
330
C
100
AcDbDictionary
  0
DICTIONARY
  5
17
330
C
100
AcDbDictionary
  3
STANDARD
350
18
  0
DICTIONARY
  5
19
330
C
100
AcDbDictionary
  0
ENDSEC
  0
EOF
