  0
SECTION
  2
HEADER
  9
$ACADVER
  1
AC1014
  9
$HANDSEED
  5
FFFF
  9
$MEASUREMENT
 70
     1
  0
ENDSEC
  0
SECTION
  2
TABLES
  0
TABLE
  2
VPORT
  5
8
330
0
100
AcDbSymbolTable
 70
     4
  0
VPORT
  5
2E
330
8
100
AcDbSymbolTableRecord
100
AcDbViewportTableRecord
  2
*ACTIVE
 70
     0
 10
0.0
 20
0.0
 11
1.0
 21
1.0
 12
210.0
 22
148.5
 13
0.0
 23
0.0
 14
10.0
 24
10.0
 15
10.0
 25
10.0
 16
0.0
 26
0.0
 36
1.0
 17
0.0
 27
0.0
 37
0.0
 40
341.0
 41
1.24
 42
50.0
 43
0.0
 44
0.0
 50
0.0
 51
0.0
 71
     0
 72
   100
 73
     1
 74
     3
 75
     0
 76
     0
 77
     0
 78
     0
  0
ENDTAB
  0
TABLE
  2
LTYPE
  5
5
330
0
100
AcDbSymbolTable
 70
     1
  0
LTYPE
  5
14
330
5
100
AcDbSymbolTableRecord
100
AcDbLinetypeTableRecord
  2
BYBLOCK
 70
     0
  3

 72
    65
 73
     0
 40
0.0
  0
LTYPE
  5
15
330
5
100
AcDbSymbolTableRecord
100
AcDbLinetypeTableRecord
  2
BYLAYER
 70
     0
  3

 72
    65
 73
     0
 40
0.0
  0
LTYPE
  5
16
330
5
100
AcDbSymbolTableRecord
100
AcDbLinetypeTableRecord
  2
CONTINUOUS
 70
     0
  3
Solid line
 72
    65
 73
     0
 40
0.0
  0
ENDTAB
  0
TABLE
  2
LAYER
  5
2
100
AcDbSymbolTable
 70
2
  0
LAYER
  5
50
100
AcDbSymbolTableRecord
100
AcDbLayerTableRecord
  2
0
 70
0
  6
CONTINUOUS
  0
LAYER
  5
51
100
AcDbSymbolTableRecord
100
AcDbLayerTableRecord
  2
Layer_1
 70
0
  6
CONTINUOUS
  0
ENDTAB
  0
TABLE
  2
STYLE
  5
3
330
0
100
AcDbSymbolTable
 70
     1
  0
STYLE
  5
11
330
3
100
AcDbSymbolTableRecord
100
AcDbTextStyleTableRecord
  2
STANDARD
 70
     0
 40
0.0
 41
1.0
 50
0.0
 71
     0
 42
2.5
  3
txt
  4

  0
ENDTAB
  0
TABLE
  2
VIEW
  5
6
330
0
100
AcDbSymbolTable
 70
     0
  0
ENDTAB
  0
TABLE
  2
UCS
  5
7
330
0
100
AcDbSymbolTable
 70
     0
  0
ENDTAB
  0
TABLE
  2
APPID
  5
9
330
0
100
AcDbSymbolTable
 70
     2
  0
APPID
  5
12
330
9
100
AcDbSymbolTableRecord
100
AcDbRegAppTableRecord
  2
ACAD
 70
     0
  0
ENDTAB
  0
TABLE
  2
DIMSTYLE
  5
A
330
0
100
AcDbSymbolTable
 70
     1
  0
DIMSTYLE
105
27
330
A
100
AcDbSymbolTableRecord
100
AcDbDimStyleTableRecord
  2
ISO-25
 70
     0
  3

  4

  5

  6

  7

 40
1.0
 41
2.5
 42
0.625
 43
3.75
 44
1.25
 45
0.0
 46
0.0
 47
0.0
 48
0.0
140
2.5
141
2.5
142
0.0
143
0.03937007874016
144
1.0
145
0.0
146
1.0
147
0.625
 71
     0
 72
     0
 73
     0
 74
     0
 75
     0
 76
     0
 77
     1
 78
     8
170
     0
171
     3
172
     1
173
     0
174
     0
175
     0
176
     0
177
     0
178
     0
270
     2
271
     2
272
     2
273
     2
274
     3
340
11
275
     0
280
     0
281
     0
282
     0
283
     0
284
     8
285
     0
286
     0
287
     3
288
     0
  0
ENDTAB
  0
TABLE
  2
BLOCK_RECORD
  5
1
330
0
100
AcDbSymbolTable
 70
     1
  0
BLOCK_RECORD
  5
1F
330
1
100
AcDbSymbolTableRecord
100
AcDbBlockTableRecord
  2
*MODEL_SPACE
  0
BLOCK_RECORD
  5
1B
330
1
100
AcDbSymbolTableRecord
100
AcDbBlockTableRecord
  2
*PAPER_SPACE
  0
ENDTAB
  0
ENDSEC
  0
SECTION
  2
BLOCKS
  0
BLOCK
  5
20
330
1F
100
AcDbEntity
  8
0
100
AcDbBlockBegin
  2
*MODEL_SPACE
 70
     0
 10
0.0
 20
0.0
 30
0.0
  3
*MODEL_SPACE
  1

  0
ENDBLK
  5
21
330
1F
100
AcDbEntity
  8
0
100
AcDbBlockEnd
  0
BLOCK
  5
1C
330
1B
100
AcDbEntity
 67
     1
  8
0
100
AcDbBlockBegin
  2
*PAPER_SPACE
  1

  0
ENDBLK
  5
1D
330
1B
100
AcDbEntity
 67
     1
  8
0
100
AcDbBlockEnd
  0
ENDSEC
  0
SECTION
  2
ENTITIES
  0
LWPOLYLINE
  5
100
100
AcDbEntity
  8
Layer_1
 62
7
100
AcDbPolyline
 90
8
 70
1
 10
5.999999
 20
5.999999
 30
0.0
 10
5.999999
 20
4.999984
 30
0.0
 10
5.971667
 20
4.999984
 30
0.0
 10
5.971667
 20
5.971613
 30
0.0
 10
4.999984
 20
5.971613
 30
0.0
 10
4.999984
 20
5.999999
 30
0.0
 10
5.999999
 20
5.999999
 30
0.0
 10
5.999999
 20
5.999999
 30
0.0
  0
LWPOLYLINE
  5
101
100
AcDbEntity
  8
Layer_1
 62
7
100
AcDbPolyline
 90
9
 70
1
 10
1.000015
 20
5.999999
 30
0.0
 10
1.000015
 20
5.971613
 30
0.0
 10
0.028332
 20
5.971613
 30
0.0
 10
0.028332
 20
4.999984
 30
0.0
 10
-0.000000
 20
4.999984
 30
0.0
 10
-0.000000
 20
5.985778
 30
0.0
 10
-0.000000
 20
5.999999
 30
0.0
 10
1.000015
 20
5.999999
 30
0.0
 10
1.000015
 20
5.999999
 30
0.0
  0
LWPOLYLINE
  5
102
100
AcDbEntity
  8
Layer_1
 62
7
100
AcDbPolyline
 90
8
 70
1
 10
5.999999
 20
0.799979
 30
0.0
 10
5.999999
 20
-0.000000
 30
0.0
 10
4.999984
 20
-0.000000
 30
0.0
 10
4.999984
 20
0.028332
 30
0.0
 10
5.971667
 20
0.028332
 30
0.0
 10
5.971667
 20
0.799979
 30
0.0
 10
5.999999
 20
0.799979
 30
0.0
 10
5.999999
 20
0.799979
 30
0.0
  0
LWPOLYLINE
  5
103
100
AcDbEntity
  8
Layer_1
 62
7
100
AcDbPolyline
 90
8
 70
1
 10
0.028332
 20
0.799979
 30
0.0
 10
0.028332
 20
0.028332
 30
0.0
 10
1.000015
 20
0.028332
 30
0.0
 10
1.000015
 20
-0.000000
 30
0.0
 10
-0.000000
 20
-0.000000
 30
0.0
 10
-0.000000
 20
0.799979
 30
0.0
 10
0.028332
 20
0.799979
 30
0.0
 10
0.028332
 20
0.799979
 30
0.0
  0
LWPOLYLINE
  5
104
100
AcDbEntity
  8
Layer_1
 62
7
100
AcDbPolyline
 90
66
 70
0
 10
3.000015
 20
5.200008
 30
0.0
 10
2.775264
 20
5.188637
 30
0.0
 10
2.556963
 20
5.155265
 30
0.0
 10
2.346222
 20
5.101002
 30
0.0
 10
2.144152
 20
5.026960
 30
0.0
 10
1.951864
 20
4.934249
 30
0.0
 10
1.770468
 20
4.823980
 30
0.0
 10
1.601077
 20
4.697265
 30
0.0
 10
1.444799
 20
4.555213
 30
0.0
 10
1.302747
 20
4.398936
 30
0.0
 10
1.176032
 20
4.229544
 30
0.0
 10
1.065763
 20
4.048149
 30
0.0
 10
0.973052
 20
3.855861
 30
0.0
 10
0.899010
 20
3.653791
 30
0.0
 10
0.844747
 20
3.443050
 30
0.0
 10
0.811375
 20
3.224749
 30
0.0
 10
0.800004
 20
2.999998
 30
0.0
 10
0.811375
 20
2.775247
 30
0.0
 10
0.844747
 20
2.556946
 30
0.0
 10
0.899010
 20
2.346205
 30
0.0
 10
0.973052
 20
2.144135
 30
0.0
 10
1.065763
 20
1.951847
 30
0.0
 10
1.176032
 20
1.770452
 30
0.0
 10
1.302747
 20
1.601060
 30
0.0
 10
1.444799
 20
1.444783
 30
0.0
 10
1.601077
 20
1.302731
 30
0.0
 10
1.770468
 20
1.176015
 30
0.0
 10
1.951864
 20
1.065746
 30
0.0
 10
2.144152
 20
0.973036
 30
0.0
 10
2.346222
 20
0.898993
 30
0.0
 10
2.556963
 20
0.844731
 30
0.0
 10
2.775264
 20
0.811358
 30
0.0
 10
3.000015
 20
0.799987
 30
0.0
 10
3.224765
 20
0.811358
 30
0.0
 10
3.443065
 20
0.844730
 30
0.0
 10
3.653803
 20
0.898993
 30
0.0
 10
3.855870
 20
0.973035
 30
0.0
 10
4.048154
 20
1.065746
 30
0.0
 10
4.229544
 20
1.176014
 30
0.0
 10
4.398931
 20
1.302730
 30
0.0
 10
4.555203
 20
1.444782
 30
0.0
 10
4.697250
 20
1.601059
 30
0.0
 10
4.823960
 20
1.770451
 30
0.0
 10
4.934224
 20
1.951846
 30
0.0
 10
5.026931
 20
2.144134
 30
0.0
 10
5.100970
 20
2.346204
 30
0.0
 10
5.155229
 20
2.556946
 30
0.0
 10
5.188600
 20
2.775247
 30
0.0
 10
5.199970
 20
2.999998
 30
0.0
 10
5.188600
 20
3.224749
 30
0.0
 10
5.155229
 20
3.443050
 30
0.0
 10
5.100970
 20
3.653791
 30
0.0
 10
5.026931
 20
3.855861
 30
0.0
 10
4.934224
 20
4.048149
 30
0.0
 10
4.823960
 20
4.229545
 30
0.0
 10
4.697250
 20
4.398937
 30
0.0
 10
4.555203
 20
4.555214
 30
0.0
 10
4.398931
 20
4.697266
 30
0.0
 10
4.229544
 20
4.823981
 30
0.0
 10
4.048154
 20
4.934250
 30
0.0
 10
3.855870
 20
5.026961
 30
0.0
 10
3.653803
 20
5.101003
 30
0.0
 10
3.443065
 20
5.155265
 30
0.0
 10
3.224765
 20
5.188637
 30
0.0
 10
3.000015
 20
5.200008
 30
0.0
 10
3.000015
 20
5.200008
 30
0.0
  0
LWPOLYLINE
  5
105
100
AcDbEntity
  8
Layer_1
 62
7
100
AcDbPolyline
 90
28
 70
0
 10
2.737471
 20
4.765816
 30
0.0
 10
2.737471
 20
3.959608
 30
0.0
 10
2.619010
 20
3.918571
 30
0.0
 10
2.505233
 20
3.862037
 30
0.0
 10
2.397649
 20
3.789948
 30
0.0
 10
2.297767
 20
3.702246
 30
0.0
 10
2.210058
 20
3.602353
 30
0.0
 10
2.137970
 20
3.494757
 30
0.0
 10
2.081440
 20
3.380967
 30
0.0
 10
2.040404
 20
3.262487
 30
0.0
 10
1.234197
 20
3.262487
 30
0.0
 10
1.259686
 20
3.399441
 30
0.0
 10
1.295814
 20
3.534410
 30
0.0
 10
1.342581
 20
3.666705
 30
0.0
 10
1.399990
 20
3.795638
 30
0.0
 10
1.468043
 20
3.920521
 30
0.0
 10
1.546741
 20
4.040667
 30
0.0
 10
1.636085
 20
4.155385
 30
0.0
 10
1.736078
 20
4.263990
 30
0.0
 10
1.844678
 20
4.363980
 30
0.0
 10
1.959385
 20
4.453319
 30
0.0
 10
2.079513
 20
4.532008
 30
0.0
 10
2.204377
 20
4.600051
 30
0.0
 10
2.333291
 20
4.657451
 30
0.0
 10
2.465568
 20
4.704210
 30
0.0
 10
2.600524
 20
4.740330
 30
0.0
 10
2.737471
 20
4.765816
 30
0.0
 10
2.737471
 20
4.765816
 30
0.0
  0
LWPOLYLINE
  5
106
100
AcDbEntity
  8
Layer_1
 62
7
100
AcDbPolyline
 90
28
 70
0
 10
3.262504
 20
4.765816
 30
0.0
 10
3.399453
 20
4.740331
 30
0.0
 10
3.534415
 20
4.704210
 30
0.0
 10
3.666701
 20
4.657451
 30
0.0
 10
3.795625
 20
4.600052
 30
0.0
 10
3.920499
 20
4.532009
 30
0.0
 10
4.040636
 20
4.453319
 30
0.0
 10
4.155349
 20
4.363980
 30
0.0
 10
4.263952
 20
4.263990
 30
0.0
 10
4.363946
 20
4.155382
 30
0.0
 10
4.453288
 20
4.040662
 30
0.0
 10
4.531978
 20
3.920518
 30
0.0
 10
4.600022
 20
3.795637
 30
0.0
 10
4.657420
 20
3.666706
 30
0.0
 10
4.704177
 20
3.534413
 30
0.0
 10
4.740296
 20
3.399444
 30
0.0
 10
4.765778
 20
3.262487
 30
0.0
 10
3.959570
 20
3.262487
 30
0.0
 10
3.918530
 20
3.380951
 30
0.0
 10
3.861998
 20
3.494726
 30
0.0
 10
3.789912
 20
3.602307
 30
0.0
 10
3.702208
 20
3.702191
 30
0.0
 10
3.602326
 20
3.789900
 30
0.0
 10
3.494743
 20
3.862006
 30
0.0
 10
3.380966
 20
3.918558
 30
0.0
 10
3.262504
 20
3.959608
 30
0.0
 10
3.262504
 20
4.765816
 30
0.0
 10
3.262504
 20
4.765816
 30
0.0
  0
LWPOLYLINE
  5
107
100
AcDbEntity
  8
Layer_1
 62
7
100
AcDbPolyline
 90
34
 70
0
 10
3.000015
 20
3.400015
 30
0.0
 10
3.080625
 20
3.391881
 30
0.0
 10
3.155705
 20
3.368568
 30
0.0
 10
3.223645
 20
3.331684
 30
0.0
 10
3.282839
 20
3.282838
 30
0.0
 10
3.331677
 20
3.223637
 30
0.0
 10
3.368551
 20
3.155692
 30
0.0
 10
3.391854
 20
3.080609
 30
0.0
 10
3.399977
 20
2.999998
 30
0.0
 10
3.391854
 20
2.919386
 30
0.0
 10
3.368551
 20
2.844304
 30
0.0
 10
3.331677
 20
2.776358
 30
0.0
 10
3.282839
 20
2.717158
 30
0.0
 10
3.223645
 20
2.668312
 30
0.0
 10
3.155705
 20
2.631428
 30
0.0
 10
3.080625
 20
2.608115
 30
0.0
 10
3.000015
 20
2.599981
 30
0.0
 10
2.921610
 20
2.607735
 30
0.0
 10
2.846933
 20
2.630426
 30
0.0
 10
2.778082
 20
2.667184
 30
0.0
 10
2.717155
 20
2.717138
 30
0.0
 10
2.667201
 20
2.778064
 30
0.0
 10
2.630443
 20
2.846915
 30
0.0
 10
2.607753
 20
2.921593
 30
0.0
 10
2.599998
 20
2.999998
 30
0.0
 10
2.607753
 20
3.078403
 30
0.0
 10
2.630443
 20
3.153080
 30
0.0
 10
2.667201
 20
3.221931
 30
0.0
 10
2.717155
 20
3.282857
 30
0.0
 10
2.778082
 20
3.332812
 30
0.0
 10
2.846933
 20
3.369570
 30
0.0
 10
2.921610
 20
3.392260
 30
0.0
 10
3.000015
 20
3.400015
 30
0.0
 10
3.000015
 20
3.400015
 30
0.0
  0
LWPOLYLINE
  5
108
100
AcDbEntity
  8
Layer_1
 62
7
100
AcDbPolyline
 90
28
 70
0
 10
1.234197
 20
2.737454
 30
0.0
 10
2.040459
 20
2.737454
 30
0.0
 10
2.081495
 20
2.619006
 30
0.0
 10
2.138013
 20
2.505243
 30
0.0
 10
2.210081
 20
2.397674
 30
0.0
 10
2.297767
 20
2.297805
 30
0.0
 10
2.397649
 20
2.210100
 30
0.0
 10
2.505229
 20
2.138013
 30
0.0
 10
2.619004
 20
2.081480
 30
0.0
 10
2.737471
 20
2.040442
 30
0.0
 10
2.737471
 20
1.234235
 30
0.0
 10
2.600525
 20
1.259716
 30
0.0
 10
2.465570
 20
1.295831
 30
0.0
 10
2.333292
 20
1.342583
 30
0.0
 10
2.204377
 20
1.399975
 30
0.0
 10
2.079512
 20
1.468010
 30
0.0
 10
1.959383
 20
1.546692
 30
0.0
 10
1.844676
 20
1.636023
 30
0.0
 10
1.736078
 20
1.736006
 30
0.0
 10
1.636080
 20
1.844608
 30
0.0
 10
1.546733
 20
1.959320
 30
0.0
 10
1.468034
 20
2.079456
 30
0.0
 10
1.399982
 20
2.204330
 30
0.0
 10
1.342574
 20
2.333253
 30
0.0
 10
1.295809
 20
2.465540
 30
0.0
 10
1.259683
 20
2.600502
 30
0.0
 10
1.234197
 20
2.737454
 30
0.0
 10
1.234197
 20
2.737454
 30
0.0
  0
LWPOLYLINE
  5
109
100
AcDbEntity
  8
Layer_1
 62
7
100
AcDbPolyline
 90
28
 70
0
 10
3.959570
 20
2.737454
 30
0.0
 10
4.765778
 20
2.737454
 30
0.0
 10
4.740289
 20
2.600512
 30
0.0
 10
4.704166
 20
2.465558
 30
0.0
 10
4.657406
 20
2.333279
 30
0.0
 10
4.600005
 20
2.204363
 30
0.0
 10
4.531962
 20
2.079496
 30
0.0
 10
4.453273
 20
1.959365
 30
0.0
 10
4.363938
 20
1.844658
 30
0.0
 10
4.263952
 20
1.736061
 30
0.0
 10
4.155350
 20
1.636072
 30
0.0
 10
4.040637
 20
1.546735
 30
0.0
 10
3.920501
 20
1.468047
 30
0.0
 10
3.795628
 20
1.400004
 30
0.0
 10
3.666704
 20
1.342604
 30
0.0
 10
3.534418
 20
1.295845
 30
0.0
 10
3.399455
 20
1.259722
 30
0.0
 10
3.262504
 20
1.234235
 30
0.0
 10
3.262504
 20
2.040442
 30
0.0
 10
3.380964
 20
2.081484
 30
0.0
 10
3.494743
 20
2.138020
 30
0.0
 10
3.602329
 20
2.210107
 30
0.0
 10
3.702208
 20
2.297805
 30
0.0
 10
3.789908
 20
2.397674
 30
0.0
 10
3.861994
 20
2.505245
 30
0.0
 10
3.918528
 20
2.619008
 30
0.0
 10
3.959570
 20
2.737454
 30
0.0
 10
3.959570
 20
2.737454
 30
0.0
  0
ENDSEC
  0
SECTION
  2
OBJECTS
  0
DICTIONARY
  5
C
330
0
100
AcDbDictionary
  3
ACAD_GROUP
350
D
  3
ACAD_MLINESTYLE
350
17
  0
DICTIONARY
  5
D
330
C
100
AcDbDictionary
  0
DICTIONARY
  5
1A
330
C
100
AcDbDictionary
  0
DICTIONARY
  5
17
330
C
100
AcDbDictionary
  3
STANDARD
350
18
  0
DICTIONARY
  5
19
330
C
100
AcDbDictionary
  0
ENDSEC
  0
EOF
