  0
SECTION
  2
HEADER
  9
$ACADVER
  1
AC1014
  9
$HANDSEED
  5
FFFF
  9
$MEASUREMENT
 70
     1
  0
ENDSEC
  0
SECTION
  2
TABLES
  0
TABLE
  2
VPORT
  5
8
330
0
100
AcDbSymbolTable
 70
     4
  0
VPORT
  5
2E
330
8
100
AcDbSymbolTableRecord
100
AcDbViewportTableRecord
  2
*ACTIVE
 70
     0
 10
0.0
 20
0.0
 11
1.0
 21
1.0
 12
210.0
 22
148.5
 13
0.0
 23
0.0
 14
10.0
 24
10.0
 15
10.0
 25
10.0
 16
0.0
 26
0.0
 36
1.0
 17
0.0
 27
0.0
 37
0.0
 40
341.0
 41
1.24
 42
50.0
 43
0.0
 44
0.0
 50
0.0
 51
0.0
 71
     0
 72
   100
 73
     1
 74
     3
 75
     0
 76
     0
 77
     0
 78
     0
  0
ENDTAB
  0
TABLE
  2
LTYPE
  5
5
330
0
100
AcDbSymbolTable
 70
     1
  0
LTYPE
  5
14
330
5
100
AcDbSymbolTableRecord
100
AcDbLinetypeTableRecord
  2
BYBLOCK
 70
     0
  3

 72
    65
 73
     0
 40
0.0
  0
LTYPE
  5
15
330
5
100
AcDbSymbolTableRecord
100
AcDbLinetypeTableRecord
  2
BYLAYER
 70
     0
  3

 72
    65
 73
     0
 40
0.0
  0
LTYPE
  5
16
330
5
100
AcDbSymbolTableRecord
100
AcDbLinetypeTableRecord
  2
CONTINUOUS
 70
     0
  3
Solid line
 72
    65
 73
     0
 40
0.0
  0
ENDTAB
  0
TABLE
  2
LAYER
  5
2
100
AcDbSymbolTable
 70
2
  0
LAYER
  5
50
100
AcDbSymbolTableRecord
100
AcDbLayerTableRecord
  2
0
 70
0
  6
CONTINUOUS
  0
LAYER
  5
51
100
AcDbSymbolTableRecord
100
AcDbLayerTableRecord
  2
Layer_1
 70
0
  6
CONTINUOUS
  0
ENDTAB
  0
TABLE
  2
STYLE
  5
3
330
0
100
AcDbSymbolTable
 70
     1
  0
STYLE
  5
11
330
3
100
AcDbSymbolTableRecord
100
AcDbTextStyleTableRecord
  2
STANDARD
 70
     0
 40
0.0
 41
1.0
 50
0.0
 71
     0
 42
2.5
  3
txt
  4

  0
ENDTAB
  0
TABLE
  2
VIEW
  5
6
330
0
100
AcDbSymbolTable
 70
     0
  0
ENDTAB
  0
TABLE
  2
UCS
  5
7
330
0
100
AcDbSymbolTable
 70
     0
  0
ENDTAB
  0
TABLE
  2
APPID
  5
9
330
0
100
AcDbSymbolTable
 70
     2
  0
APPID
  5
12
330
9
100
AcDbSymbolTableRecord
100
AcDbRegAppTableRecord
  2
ACAD
 70
     0
  0
ENDTAB
  0
TABLE
  2
DIMSTYLE
  5
A
330
0
100
AcDbSymbolTable
 70
     1
  0
DIMSTYLE
105
27
330
A
100
AcDbSymbolTableRecord
100
AcDbDimStyleTableRecord
  2
ISO-25
 70
     0
  3

  4

  5

  6

  7

 40
1.0
 41
2.5
 42
0.625
 43
3.75
 44
1.25
 45
0.0
 46
0.0
 47
0.0
 48
0.0
140
2.5
141
2.5
142
0.0
143
0.03937007874016
144
1.0
145
0.0
146
1.0
147
0.625
 71
     0
 72
     0
 73
     0
 74
     0
 75
     0
 76
     0
 77
     1
 78
     8
170
     0
171
     3
172
     1
173
     0
174
     0
175
     0
176
     0
177
     0
178
     0
270
     2
271
     2
272
     2
273
     2
274
     3
340
11
275
     0
280
     0
281
     0
282
     0
283
     0
284
     8
285
     0
286
     0
287
     3
288
     0
  0
ENDTAB
  0
TABLE
  2
BLOCK_RECORD
  5
1
330
0
100
AcDbSymbolTable
 70
     1
  0
BLOCK_RECORD
  5
1F
330
1
100
AcDbSymbolTableRecord
100
AcDbBlockTableRecord
  2
*MODEL_SPACE
  0
BLOCK_RECORD
  5
1B
330
1
100
AcDbSymbolTableRecord
100
AcDbBlockTableRecord
  2
*PAPER_SPACE
  0
ENDTAB
  0
ENDSEC
  0
SECTION
  2
BLOCKS
  0
BLOCK
  5
20
330
1F
100
AcDbEntity
  8
0
100
AcDbBlockBegin
  2
*MODEL_SPACE
 70
     0
 10
0.0
 20
0.0
 30
0.0
  3
*MODEL_SPACE
  1

  0
ENDBLK
  5
21
330
1F
100
AcDbEntity
  8
0
100
AcDbBlockEnd
  0
BLOCK
  5
1C
330
1B
100
AcDbEntity
 67
     1
  8
0
100
AcDbBlockBegin
  2
*PAPER_SPACE
  1

  0
ENDBLK
  5
1D
330
1B
100
AcDbEntity
 67
     1
  8
0
100
AcDbBlockEnd
  0
ENDSEC
  0
SECTION
  2
ENTITIES
  0
LWPOLYLINE
  5
100
100
AcDbEntity
  8
Layer_1
 62
7
100
AcDbPolyline
 90
66
 70
0
 10
3.000015
 20
5.200020
 30
0.0
 10
2.782610
 20
5.189257
 30
0.0
 10
2.568886
 20
5.157361
 30
0.0
 10
2.360287
 20
5.104930
 30
0.0
 10
2.158255
 20
5.032562
 30
0.0
 10
1.964233
 20
4.940853
 30
0.0
 10
1.779661
 20
4.830401
 30
0.0
 10
1.605985
 20
4.701805
 30
0.0
 10
1.444644
 20
4.555661
 30
0.0
 10
1.298525
 20
4.394292
 30
0.0
 10
1.169951
 20
4.220584
 30
0.0
 10
1.059518
 20
4.035980
 30
0.0
 10
0.967825
 20
3.841923
 30
0.0
 10
0.895468
 20
3.639854
 30
0.0
 10
0.843045
 20
3.431217
 30
0.0
 10
0.811154
 20
3.217455
 30
0.0
 10
0.800391
 20
3.000010
 30
0.0
 10
0.811154
 20
2.782564
 30
0.0
 10
0.843045
 20
2.568802
 30
0.0
 10
0.895468
 20
2.360165
 30
0.0
 10
0.967825
 20
2.158097
 30
0.0
 10
1.059518
 20
1.964039
 30
0.0
 10
1.169951
 20
1.779435
 30
0.0
 10
1.298525
 20
1.605727
 30
0.0
 10
1.444644
 20
1.444358
 30
0.0
 10
1.605984
 20
1.298214
 30
0.0
 10
1.779661
 20
1.169618
 30
0.0
 10
1.964232
 20
1.059166
 30
0.0
 10
2.158255
 20
0.967457
 30
0.0
 10
2.360287
 20
0.895089
 30
0.0
 10
2.568886
 20
0.842658
 30
0.0
 10
2.782610
 20
0.810762
 30
0.0
 10
3.000015
 20
0.799999
 30
0.0
 10
3.224910
 20
0.811360
 30
0.0
 10
3.443308
 20
0.844701
 30
0.0
 10
3.654104
 20
0.898914
 30
0.0
 10
3.856192
 20
0.972895
 30
0.0
 10
4.048466
 20
1.065538
 30
0.0
 10
4.229821
 20
1.175737
 30
0.0
 10
4.399151
 20
1.302385
 30
0.0
 10
4.555351
 20
1.444378
 30
0.0
 10
4.697315
 20
1.600609
 30
0.0
 10
4.823938
 20
1.769973
 30
0.0
 10
4.934113
 20
1.951363
 30
0.0
 10
5.026736
 20
2.143674
 30
0.0
 10
5.100700
 20
2.345800
 30
0.0
 10
5.154900
 20
2.556635
 30
0.0
 10
5.188230
 20
2.775074
 30
0.0
 10
5.199585
 20
3.000010
 30
0.0
 10
5.188230
 20
3.224946
 30
0.0
 10
5.154899
 20
3.443384
 30
0.0
 10
5.100699
 20
3.654219
 30
0.0
 10
5.026735
 20
3.856345
 30
0.0
 10
4.934113
 20
4.048656
 30
0.0
 10
4.823938
 20
4.230047
 30
0.0
 10
4.697315
 20
4.399410
 30
0.0
 10
4.555351
 20
4.555641
 30
0.0
 10
4.399151
 20
4.697634
 30
0.0
 10
4.229821
 20
4.824283
 30
0.0
 10
4.048466
 20
4.934481
 30
0.0
 10
3.856192
 20
5.027124
 30
0.0
 10
3.654104
 20
5.101105
 30
0.0
 10
3.443308
 20
5.155319
 30
0.0
 10
3.224910
 20
5.188659
 30
0.0
 10
3.000015
 20
5.200020
 30
0.0
 10
3.000015
 20
5.200020
 30
0.0
  0
LWPOLYLINE
  5
101
100
AcDbEntity
  8
Layer_1
 62
7
100
AcDbPolyline
 90
66
 70
0
 10
2.999629
 20
4.860086
 30
0.0
 10
3.183441
 20
4.850984
 30
0.0
 10
3.364141
 20
4.824016
 30
0.0
 10
3.540507
 20
4.779685
 30
0.0
 10
3.711321
 20
4.718498
 30
0.0
 10
3.875364
 20
4.640959
 30
0.0
 10
4.031415
 20
4.547573
 30
0.0
 10
4.178256
 20
4.438847
 30
0.0
 10
4.314666
 20
4.315285
 30
0.0
 10
4.438206
 20
4.178850
 30
0.0
 10
4.546914
 20
4.031983
 30
0.0
 10
4.640283
 20
3.875904
 30
0.0
 10
4.717808
 20
3.711832
 30
0.0
 10
4.778985
 20
3.540987
 30
0.0
 10
4.823309
 20
3.364588
 30
0.0
 10
4.850273
 20
3.183856
 30
0.0
 10
4.859374
 20
3.000010
 30
0.0
 10
4.850273
 20
2.816164
 30
0.0
 10
4.823309
 20
2.635431
 30
0.0
 10
4.778985
 20
2.459033
 30
0.0
 10
4.717808
 20
2.288188
 30
0.0
 10
4.640283
 20
2.124116
 30
0.0
 10
4.546914
 20
1.968036
 30
0.0
 10
4.438206
 20
1.821170
 30
0.0
 10
4.314666
 20
1.684735
 30
0.0
 10
4.178256
 20
1.561172
 30
0.0
 10
4.031415
 20
1.452446
 30
0.0
 10
3.875364
 20
1.359061
 30
0.0
 10
3.711321
 20
1.281522
 30
0.0
 10
3.540507
 20
1.220334
 30
0.0
 10
3.364141
 20
1.176004
 30
0.0
 10
3.183441
 20
1.149035
 30
0.0
 10
2.999629
 20
1.139934
 30
0.0
 10
2.815816
 20
1.149035
 30
0.0
 10
2.635117
 20
1.176004
 30
0.0
 10
2.458750
 20
1.220334
 30
0.0
 10
2.287936
 20
1.281522
 30
0.0
 10
2.123894
 20
1.359061
 30
0.0
 10
1.967842
 20
1.452446
 30
0.0
 10
1.821002
 20
1.561172
 30
0.0
 10
1.684592
 20
1.684735
 30
0.0
 10
1.561051
 20
1.821169
 30
0.0
 10
1.452344
 20
1.968036
 30
0.0
 10
1.358975
 20
2.124116
 30
0.0
 10
1.281449
 20
2.288188
 30
0.0
 10
1.220272
 20
2.459033
 30
0.0
 10
1.175949
 20
2.635431
 30
0.0
 10
1.148984
 20
2.816164
 30
0.0
 10
1.139883
 20
3.000010
 30
0.0
 10
1.148984
 20
3.183856
 30
0.0
 10
1.175949
 20
3.364588
 30
0.0
 10
1.220272
 20
3.540987
 30
0.0
 10
1.281449
 20
3.711832
 30
0.0
 10
1.358975
 20
3.875904
 30
0.0
 10
1.452344
 20
4.031983
 30
0.0
 10
1.561051
 20
4.178850
 30
0.0
 10
1.684592
 20
4.315285
 30
0.0
 10
1.821002
 20
4.438847
 30
0.0
 10
1.967842
 20
4.547574
 30
0.0
 10
2.123894
 20
4.640959
 30
0.0
 10
2.287936
 20
4.718498
 30
0.0
 10
2.458750
 20
4.779685
 30
0.0
 10
2.635117
 20
4.824016
 30
0.0
 10
2.815816
 20
4.850984
 30
0.0
 10
2.999629
 20
4.860086
 30
0.0
 10
2.999629
 20
4.860086
 30
0.0
  0
LWPOLYLINE
  5
102
100
AcDbEntity
  8
Layer_1
 62
7
100
AcDbPolyline
 90
8
 70
1
 10
5.999999
 20
5.999999
 30
0.0
 10
5.999999
 20
4.999984
 30
0.0
 10
5.971667
 20
4.999984
 30
0.0
 10
5.971667
 20
5.971613
 30
0.0
 10
4.999984
 20
5.971613
 30
0.0
 10
4.999984
 20
5.999999
 30
0.0
 10
5.999999
 20
5.999999
 30
0.0
 10
5.999999
 20
5.999999
 30
0.0
  0
LWPOLYLINE
  5
103
100
AcDbEntity
  8
Layer_1
 62
7
100
AcDbPolyline
 90
9
 70
1
 10
1.000015
 20
5.999999
 30
0.0
 10
1.000015
 20
5.971613
 30
0.0
 10
0.028332
 20
5.971613
 30
0.0
 10
0.028332
 20
4.999984
 30
0.0
 10
-0.000000
 20
4.999984
 30
0.0
 10
-0.000000
 20
5.985778
 30
0.0
 10
-0.000000
 20
5.999999
 30
0.0
 10
1.000015
 20
5.999999
 30
0.0
 10
1.000015
 20
5.999999
 30
0.0
  0
LWPOLYLINE
  5
104
100
AcDbEntity
  8
Layer_1
 62
7
100
AcDbPolyline
 90
8
 70
1
 10
5.999999
 20
0.799979
 30
0.0
 10
5.999999
 20
-0.000000
 30
0.0
 10
4.999984
 20
-0.000000
 30
0.0
 10
4.999984
 20
0.028332
 30
0.0
 10
5.971667
 20
0.028332
 30
0.0
 10
5.971667
 20
0.799979
 30
0.0
 10
5.999999
 20
0.799979
 30
0.0
 10
5.999999
 20
0.799979
 30
0.0
  0
LWPOLYLINE
  5
105
100
AcDbEntity
  8
Layer_1
 62
7
100
AcDbPolyline
 90
8
 70
1
 10
0.028332
 20
0.799979
 30
0.0
 10
0.028332
 20
0.028332
 30
0.0
 10
1.000015
 20
0.028332
 30
0.0
 10
1.000015
 20
-0.000000
 30
0.0
 10
-0.000000
 20
-0.000000
 30
0.0
 10
-0.000000
 20
0.799979
 30
0.0
 10
0.028332
 20
0.799979
 30
0.0
 10
0.028332
 20
0.799979
 30
0.0
  0
ENDSEC
  0
SECTION
  2
OBJECTS
  0
DICTIONARY
  5
C
330
0
100
AcDbDictionary
  3
ACAD_GROUP
350
D
  3
ACAD_MLINESTYLE
350
17
  0
DICTIONARY
  5
D
330
C
100
AcDbDictionary
  0
DICTIONARY
  5
1A
330
C
100
AcDbDictionary
  0
DICTIONARY
  5
17
330
C
100
AcDbDictionary
  3
STANDARD
350
18
  0
DICTIONARY
  5
19
330
C
100
AcDbDictionary
  0
ENDSEC
  0
EOF
