  0
SECTION
  2
HEADER
  9
$ACADVER
  1
AC1014
  9
$HANDSEED
  5
FFFF
  9
$MEASUREMENT
 70
     1
  0
ENDSEC
  0
SECTION
  2
TABLES
  0
TABLE
  2
VPORT
  5
8
330
0
100
AcDbSymbolTable
 70
     4
  0
VPORT
  5
2E
330
8
100
AcDbSymbolTableRecord
100
AcDbViewportTableRecord
  2
*ACTIVE
 70
     0
 10
0.0
 20
0.0
 11
1.0
 21
1.0
 12
210.0
 22
148.5
 13
0.0
 23
0.0
 14
10.0
 24
10.0
 15
10.0
 25
10.0
 16
0.0
 26
0.0
 36
1.0
 17
0.0
 27
0.0
 37
0.0
 40
341.0
 41
1.24
 42
50.0
 43
0.0
 44
0.0
 50
0.0
 51
0.0
 71
     0
 72
   100
 73
     1
 74
     3
 75
     0
 76
     0
 77
     0
 78
     0
  0
ENDTAB
  0
TABLE
  2
LTYPE
  5
5
330
0
100
AcDbSymbolTable
 70
     1
  0
LTYPE
  5
14
330
5
100
AcDbSymbolTableRecord
100
AcDbLinetypeTableRecord
  2
BYBLOCK
 70
     0
  3

 72
    65
 73
     0
 40
0.0
  0
LTYPE
  5
15
330
5
100
AcDbSymbolTableRecord
100
AcDbLinetypeTableRecord
  2
BYLAYER
 70
     0
  3

 72
    65
 73
     0
 40
0.0
  0
LTYPE
  5
16
330
5
100
AcDbSymbolTableRecord
100
AcDbLinetypeTableRecord
  2
CONTINUOUS
 70
     0
  3
Solid line
 72
    65
 73
     0
 40
0.0
  0
ENDTAB
  0
TABLE
  2
LAYER
  5
2
100
AcDbSymbolTable
 70
2
  0
LAYER
  5
50
100
AcDbSymbolTableRecord
100
AcDbLayerTableRecord
  2
0
 70
0
  6
CONTINUOUS
  0
LAYER
  5
51
100
AcDbSymbolTableRecord
100
AcDbLayerTableRecord
  2
Layer_1
 70
0
  6
CONTINUOUS
  0
ENDTAB
  0
TABLE
  2
STYLE
  5
3
330
0
100
AcDbSymbolTable
 70
     1
  0
STYLE
  5
11
330
3
100
AcDbSymbolTableRecord
100
AcDbTextStyleTableRecord
  2
STANDARD
 70
     0
 40
0.0
 41
1.0
 50
0.0
 71
     0
 42
2.5
  3
txt
  4

  0
ENDTAB
  0
TABLE
  2
VIEW
  5
6
330
0
100
AcDbSymbolTable
 70
     0
  0
ENDTAB
  0
TABLE
  2
UCS
  5
7
330
0
100
AcDbSymbolTable
 70
     0
  0
ENDTAB
  0
TABLE
  2
APPID
  5
9
330
0
100
AcDbSymbolTable
 70
     2
  0
APPID
  5
12
330
9
100
AcDbSymbolTableRecord
100
AcDbRegAppTableRecord
  2
ACAD
 70
     0
  0
ENDTAB
  0
TABLE
  2
DIMSTYLE
  5
A
330
0
100
AcDbSymbolTable
 70
     1
  0
DIMSTYLE
105
27
330
A
100
AcDbSymbolTableRecord
100
AcDbDimStyleTableRecord
  2
ISO-25
 70
     0
  3

  4

  5

  6

  7

 40
1.0
 41
2.5
 42
0.625
 43
3.75
 44
1.25
 45
0.0
 46
0.0
 47
0.0
 48
0.0
140
2.5
141
2.5
142
0.0
143
0.03937007874016
144
1.0
145
0.0
146
1.0
147
0.625
 71
     0
 72
     0
 73
     0
 74
     0
 75
     0
 76
     0
 77
     1
 78
     8
170
     0
171
     3
172
     1
173
     0
174
     0
175
     0
176
     0
177
     0
178
     0
270
     2
271
     2
272
     2
273
     2
274
     3
340
11
275
     0
280
     0
281
     0
282
     0
283
     0
284
     8
285
     0
286
     0
287
     3
288
     0
  0
ENDTAB
  0
TABLE
  2
BLOCK_RECORD
  5
1
330
0
100
AcDbSymbolTable
 70
     1
  0
BLOCK_RECORD
  5
1F
330
1
100
AcDbSymbolTableRecord
100
AcDbBlockTableRecord
  2
*MODEL_SPACE
  0
BLOCK_RECORD
  5
1B
330
1
100
AcDbSymbolTableRecord
100
AcDbBlockTableRecord
  2
*PAPER_SPACE
  0
ENDTAB
  0
ENDSEC
  0
SECTION
  2
BLOCKS
  0
BLOCK
  5
20
330
1F
100
AcDbEntity
  8
0
100
AcDbBlockBegin
  2
*MODEL_SPACE
 70
     0
 10
0.0
 20
0.0
 30
0.0
  3
*MODEL_SPACE
  1

  0
ENDBLK
  5
21
330
1F
100
AcDbEntity
  8
0
100
AcDbBlockEnd
  0
BLOCK
  5
1C
330
1B
100
AcDbEntity
 67
     1
  8
0
100
AcDbBlockBegin
  2
*PAPER_SPACE
  1

  0
ENDBLK
  5
1D
330
1B
100
AcDbEntity
 67
     1
  8
0
100
AcDbBlockEnd
  0
ENDSEC
  0
SECTION
  2
ENTITIES
  0
LWPOLYLINE
  5
100
100
AcDbEntity
  8
Layer_1
 62
7
100
AcDbPolyline
 90
21
 70
0
 10
3.000015
 20
5.029877
 30
0.0
 10
2.849975
 20
5.023759
 30
0.0
 10
2.849975
 20
5.024097
 30
0.0
 10
2.827320
 20
5.022065
 30
0.0
 10
2.778813
 20
5.017654
 30
0.0
 10
2.778483
 20
5.017654
 30
0.0
 10
2.707155
 20
5.008668
 30
0.0
 10
2.699990
 20
5.007793
 30
0.0
 10
2.699990
 20
4.835099
 30
0.0
 10
2.849302
 20
4.853706
 30
0.0
 10
2.999630
 20
4.860180
 30
0.0
 10
3.150349
 20
4.852963
 30
0.0
 10
3.299987
 20
4.833555
 30
0.0
 10
3.299987
 20
5.007793
 30
0.0
 10
3.294144
 20
5.008499
 30
0.0
 10
3.221108
 20
5.017705
 30
0.0
 10
3.175027
 20
5.021893
 30
0.0
 10
3.150002
 20
5.024207
 30
0.0
 10
3.150002
 20
5.023812
 30
0.0
 10
3.000016
 20
5.029931
 30
0.0
 10
3.000015
 20
5.029931
 30
0.0
  0
LWPOLYLINE
  5
101
100
AcDbEntity
  8
Layer_1
 62
7
100
AcDbPolyline
 90
20
 70
0
 10
0.992269
 20
3.299996
 30
0.0
 10
0.991552
 20
3.294154
 30
0.0
 10
0.982181
 20
3.219904
 30
0.0
 10
0.978323
 20
3.177407
 30
0.0
 10
0.975788
 20
3.150012
 30
0.0
 10
0.976229
 20
3.150012
 30
0.0
 10
0.970110
 20
3.000025
 30
0.0
 10
0.976229
 20
2.850041
 30
0.0
 10
0.975788
 20
2.850041
 30
0.0
 10
0.978323
 20
2.822202
 30
0.0
 10
0.982181
 20
2.780476
 30
0.0
 10
0.991552
 20
2.705899
 30
0.0
 10
0.992269
 20
2.700054
 30
0.0
 10
1.164965
 20
2.700054
 30
0.0
 10
1.146345
 20
2.849558
 30
0.0
 10
1.139884
 20
3.000081
 30
0.0
 10
1.147089
 20
3.150605
 30
0.0
 10
1.166453
 20
3.300053
 30
0.0
 10
0.992269
 20
3.300053
 30
0.0
 10
0.992269
 20
3.300053
 30
0.0
  0
LWPOLYLINE
  5
102
100
AcDbEntity
  8
Layer_1
 62
7
100
AcDbPolyline
 90
20
 70
0
 10
4.834295
 20
3.300053
 30
0.0
 10
4.852912
 20
3.150576
 30
0.0
 10
4.859375
 20
3.000081
 30
0.0
 10
4.852172
 20
2.849530
 30
0.0
 10
4.832806
 20
2.700054
 30
0.0
 10
5.007707
 20
2.700054
 30
0.0
 10
5.008257
 20
2.704795
 30
0.0
 10
5.017959
 20
2.781799
 30
0.0
 10
5.021542
 20
2.820882
 30
0.0
 10
5.024242
 20
2.850041
 30
0.0
 10
5.023746
 20
2.850041
 30
0.0
 10
5.029919
 20
3.000025
 30
0.0
 10
5.023801
 20
3.150012
 30
0.0
 10
5.024241
 20
3.150012
 30
0.0
 10
5.021597
 20
3.178731
 30
0.0
 10
5.017959
 20
3.218527
 30
0.0
 10
5.008257
 20
3.295258
 30
0.0
 10
5.007707
 20
3.299996
 30
0.0
 10
4.834295
 20
3.299996
 30
0.0
 10
4.834295
 20
3.299996
 30
0.0
  0
LWPOLYLINE
  5
103
100
AcDbEntity
  8
Layer_1
 62
7
100
AcDbPolyline
 90
20
 70
0
 10
2.699989
 20
1.166461
 30
0.0
 10
2.699989
 20
0.992223
 30
0.0
 10
2.705832
 20
0.991517
 30
0.0
 10
2.781899
 20
0.981927
 30
0.0
 10
2.820815
 20
0.978399
 30
0.0
 10
2.849975
 20
0.975747
 30
0.0
 10
2.849975
 20
0.976198
 30
0.0
 10
3.000015
 20
0.970026
 30
0.0
 10
3.150001
 20
0.976144
 30
0.0
 10
3.150001
 20
0.975749
 30
0.0
 10
3.178995
 20
0.978402
 30
0.0
 10
3.218131
 20
0.981930
 30
0.0
 10
3.294144
 20
0.991520
 30
0.0
 10
3.299987
 20
0.992226
 30
0.0
 10
3.299987
 20
1.165087
 30
0.0
 10
3.150318
 20
1.146423
 30
0.0
 10
2.999630
 20
1.139952
 30
0.0
 10
2.849273
 20
1.147140
 30
0.0
 10
2.699989
 20
1.166464
 30
0.0
 10
2.699989
 20
1.166461
 30
0.0
  0
LWPOLYLINE
  5
104
100
AcDbEntity
  8
Layer_1
 62
7
100
AcDbPolyline
 90
8
 70
1
 10
5.999999
 20
5.999999
 30
0.0
 10
5.999999
 20
4.999984
 30
0.0
 10
5.971667
 20
4.999984
 30
0.0
 10
5.971667
 20
5.971613
 30
0.0
 10
4.999984
 20
5.971613
 30
0.0
 10
4.999984
 20
5.999999
 30
0.0
 10
5.999999
 20
5.999999
 30
0.0
 10
5.999999
 20
5.999999
 30
0.0
  0
LWPOLYLINE
  5
105
100
AcDbEntity
  8
Layer_1
 62
7
100
AcDbPolyline
 90
9
 70
1
 10
1.000015
 20
5.999999
 30
0.0
 10
1.000015
 20
5.971613
 30
0.0
 10
0.028332
 20
5.971613
 30
0.0
 10
0.028332
 20
4.999984
 30
0.0
 10
0.000000
 20
4.999984
 30
0.0
 10
0.000000
 20
5.985778
 30
0.0
 10
0.000000
 20
5.999999
 30
0.0
 10
1.000015
 20
5.999999
 30
0.0
 10
1.000015
 20
5.999999
 30
0.0
  0
LWPOLYLINE
  5
106
100
AcDbEntity
  8
Layer_1
 62
7
100
AcDbPolyline
 90
8
 70
1
 10
5.999999
 20
0.799979
 30
0.0
 10
5.999999
 20
-0.000000
 30
0.0
 10
4.999984
 20
-0.000000
 30
0.0
 10
4.999984
 20
0.028332
 30
0.0
 10
5.971667
 20
0.028332
 30
0.0
 10
5.971667
 20
0.799979
 30
0.0
 10
5.999999
 20
0.799979
 30
0.0
 10
5.999999
 20
0.799979
 30
0.0
  0
LWPOLYLINE
  5
107
100
AcDbEntity
  8
Layer_1
 62
7
100
AcDbPolyline
 90
8
 70
1
 10
0.028332
 20
0.799979
 30
0.0
 10
0.028332
 20
0.028332
 30
0.0
 10
1.000015
 20
0.028332
 30
0.0
 10
1.000015
 20
-0.000000
 30
0.0
 10
0.000000
 20
-0.000000
 30
0.0
 10
0.000000
 20
0.799979
 30
0.0
 10
0.028332
 20
0.799979
 30
0.0
 10
0.028332
 20
0.799979
 30
0.0
  0
ENDSEC
  0
SECTION
  2
OBJECTS
  0
DICTIONARY
  5
C
330
0
100
AcDbDictionary
  3
ACAD_GROUP
350
D
  3
ACAD_MLINESTYLE
350
17
  0
DICTIONARY
  5
D
330
C
100
AcDbDictionary
  0
DICTIONARY
  5
1A
330
C
100
AcDbDictionary
  0
DICTIONARY
  5
17
330
C
100
AcDbDictionary
  3
STANDARD
350
18
  0
DICTIONARY
  5
19
330
C
100
AcDbDictionary
  0
ENDSEC
  0
EOF
