  0
SECTION
  2
HEADER
  9
$ACADVER
  1
AC1014
  9
$HANDSEED
  5
FFFF
  9
$MEASUREMENT
 70
     1
  0
ENDSEC
  0
SECTION
  2
TABLES
  0
TABLE
  2
VPORT
  5
8
330
0
100
AcDbSymbolTable
 70
     4
  0
VPORT
  5
2E
330
8
100
AcDbSymbolTableRecord
100
AcDbViewportTableRecord
  2
*ACTIVE
 70
     0
 10
0.0
 20
0.0
 11
1.0
 21
1.0
 12
210.0
 22
148.5
 13
0.0
 23
0.0
 14
10.0
 24
10.0
 15
10.0
 25
10.0
 16
0.0
 26
0.0
 36
1.0
 17
0.0
 27
0.0
 37
0.0
 40
341.0
 41
1.24
 42
50.0
 43
0.0
 44
0.0
 50
0.0
 51
0.0
 71
     0
 72
   100
 73
     1
 74
     3
 75
     0
 76
     0
 77
     0
 78
     0
  0
ENDTAB
  0
TABLE
  2
LTYPE
  5
5
330
0
100
AcDbSymbolTable
 70
     1
  0
LTYPE
  5
14
330
5
100
AcDbSymbolTableRecord
100
AcDbLinetypeTableRecord
  2
BYBLOCK
 70
     0
  3

 72
    65
 73
     0
 40
0.0
  0
LTYPE
  5
15
330
5
100
AcDbSymbolTableRecord
100
AcDbLinetypeTableRecord
  2
BYLAYER
 70
     0
  3

 72
    65
 73
     0
 40
0.0
  0
LTYPE
  5
16
330
5
100
AcDbSymbolTableRecord
100
AcDbLinetypeTableRecord
  2
CONTINUOUS
 70
     0
  3
Solid line
 72
    65
 73
     0
 40
0.0
  0
ENDTAB
  0
TABLE
  2
LAYER
  5
2
100
AcDbSymbolTable
 70
2
  0
LAYER
  5
50
100
AcDbSymbolTableRecord
100
AcDbLayerTableRecord
  2
0
 70
0
  6
CONTINUOUS
  0
LAYER
  5
51
100
AcDbSymbolTableRecord
100
AcDbLayerTableRecord
  2
Layer_1
 70
0
  6
CONTINUOUS
  0
ENDTAB
  0
TABLE
  2
STYLE
  5
3
330
0
100
AcDbSymbolTable
 70
     1
  0
STYLE
  5
11
330
3
100
AcDbSymbolTableRecord
100
AcDbTextStyleTableRecord
  2
STANDARD
 70
     0
 40
0.0
 41
1.0
 50
0.0
 71
     0
 42
2.5
  3
txt
  4

  0
ENDTAB
  0
TABLE
  2
VIEW
  5
6
330
0
100
AcDbSymbolTable
 70
     0
  0
ENDTAB
  0
TABLE
  2
UCS
  5
7
330
0
100
AcDbSymbolTable
 70
     0
  0
ENDTAB
  0
TABLE
  2
APPID
  5
9
330
0
100
AcDbSymbolTable
 70
     2
  0
APPID
  5
12
330
9
100
AcDbSymbolTableRecord
100
AcDbRegAppTableRecord
  2
ACAD
 70
     0
  0
ENDTAB
  0
TABLE
  2
DIMSTYLE
  5
A
330
0
100
AcDbSymbolTable
 70
     1
  0
DIMSTYLE
105
27
330
A
100
AcDbSymbolTableRecord
100
AcDbDimStyleTableRecord
  2
ISO-25
 70
     0
  3

  4

  5

  6

  7

 40
1.0
 41
2.5
 42
0.625
 43
3.75
 44
1.25
 45
0.0
 46
0.0
 47
0.0
 48
0.0
140
2.5
141
2.5
142
0.0
143
0.03937007874016
144
1.0
145
0.0
146
1.0
147
0.625
 71
     0
 72
     0
 73
     0
 74
     0
 75
     0
 76
     0
 77
     1
 78
     8
170
     0
171
     3
172
     1
173
     0
174
     0
175
     0
176
     0
177
     0
178
     0
270
     2
271
     2
272
     2
273
     2
274
     3
340
11
275
     0
280
     0
281
     0
282
     0
283
     0
284
     8
285
     0
286
     0
287
     3
288
     0
  0
ENDTAB
  0
TABLE
  2
BLOCK_RECORD
  5
1
330
0
100
AcDbSymbolTable
 70
     1
  0
BLOCK_RECORD
  5
1F
330
1
100
AcDbSymbolTableRecord
100
AcDbBlockTableRecord
  2
*MODEL_SPACE
  0
BLOCK_RECORD
  5
1B
330
1
100
AcDbSymbolTableRecord
100
AcDbBlockTableRecord
  2
*PAPER_SPACE
  0
ENDTAB
  0
ENDSEC
  0
SECTION
  2
BLOCKS
  0
BLOCK
  5
20
330
1F
100
AcDbEntity
  8
0
100
AcDbBlockBegin
  2
*MODEL_SPACE
 70
     0
 10
0.0
 20
0.0
 30
0.0
  3
*MODEL_SPACE
  1

  0
ENDBLK
  5
21
330
1F
100
AcDbEntity
  8
0
100
AcDbBlockEnd
  0
BLOCK
  5
1C
330
1B
100
AcDbEntity
 67
     1
  8
0
100
AcDbBlockBegin
  2
*PAPER_SPACE
  1

  0
ENDBLK
  5
1D
330
1B
100
AcDbEntity
 67
     1
  8
0
100
AcDbBlockEnd
  0
ENDSEC
  0
SECTION
  2
ENTITIES
  0
LWPOLYLINE
  5
100
100
AcDbEntity
  8
Layer_1
 62
7
100
AcDbPolyline
 90
8
 70
1
 10
5.999999
 20
5.999999
 30
0.0
 10
5.999999
 20
4.999984
 30
0.0
 10
5.971667
 20
4.999984
 30
0.0
 10
5.971667
 20
5.971613
 30
0.0
 10
4.999984
 20
5.971613
 30
0.0
 10
4.999984
 20
5.999999
 30
0.0
 10
5.999999
 20
5.999999
 30
0.0
 10
5.999999
 20
5.999999
 30
0.0
  0
LWPOLYLINE
  5
101
100
AcDbEntity
  8
Layer_1
 62
7
100
AcDbPolyline
 90
9
 70
1
 10
1.000015
 20
5.999999
 30
0.0
 10
1.000015
 20
5.971613
 30
0.0
 10
0.028332
 20
5.971613
 30
0.0
 10
0.028332
 20
4.999984
 30
0.0
 10
-0.000000
 20
4.999984
 30
0.0
 10
-0.000000
 20
5.985778
 30
0.0
 10
-0.000000
 20
5.999999
 30
0.0
 10
1.000015
 20
5.999999
 30
0.0
 10
1.000015
 20
5.999999
 30
0.0
  0
LWPOLYLINE
  5
102
100
AcDbEntity
  8
Layer_1
 62
7
100
AcDbPolyline
 90
8
 70
1
 10
5.999999
 20
0.799979
 30
0.0
 10
5.999999
 20
-0.000000
 30
0.0
 10
4.999984
 20
-0.000000
 30
0.0
 10
4.999984
 20
0.028332
 30
0.0
 10
5.971667
 20
0.028332
 30
0.0
 10
5.971667
 20
0.799979
 30
0.0
 10
5.999999
 20
0.799979
 30
0.0
 10
5.999999
 20
0.799979
 30
0.0
  0
LWPOLYLINE
  5
103
100
AcDbEntity
  8
Layer_1
 62
7
100
AcDbPolyline
 90
8
 70
1
 10
0.028332
 20
0.799979
 30
0.0
 10
0.028332
 20
0.028332
 30
0.0
 10
1.000015
 20
0.028332
 30
0.0
 10
1.000015
 20
-0.000000
 30
0.0
 10
-0.000000
 20
-0.000000
 30
0.0
 10
-0.000000
 20
0.799979
 30
0.0
 10
0.028332
 20
0.799979
 30
0.0
 10
0.028332
 20
0.799979
 30
0.0
  0
LWPOLYLINE
  5
104
100
AcDbEntity
  8
Layer_1
 62
7
100
AcDbPolyline
 90
66
 70
0
 10
3.000021
 20
5.200355
 30
0.0
 10
2.775470
 20
5.188968
 30
0.0
 10
2.557318
 20
5.155554
 30
0.0
 10
2.346679
 20
5.101227
 30
0.0
 10
2.144670
 20
5.027105
 30
0.0
 10
1.952408
 20
4.934305
 30
0.0
 10
1.771008
 20
4.823942
 30
0.0
 10
1.601587
 20
4.697134
 30
0.0
 10
1.445260
 20
4.554996
 30
0.0
 10
1.303145
 20
4.398645
 30
0.0
 10
1.176357
 20
4.229198
 30
0.0
 10
1.066012
 20
4.047771
 30
0.0
 10
0.973227
 20
3.855480
 30
0.0
 10
0.899118
 20
3.653443
 30
0.0
 10
0.844801
 20
3.442775
 30
0.0
 10
0.811393
 20
3.224593
 30
0.0
 10
0.800008
 20
3.000014
 30
0.0
 10
0.811393
 20
2.775434
 30
0.0
 10
0.844801
 20
2.557252
 30
0.0
 10
0.899118
 20
2.346585
 30
0.0
 10
0.973227
 20
2.144547
 30
0.0
 10
1.066012
 20
1.952257
 30
0.0
 10
1.176357
 20
1.770830
 30
0.0
 10
1.303145
 20
1.601382
 30
0.0
 10
1.445260
 20
1.445032
 30
0.0
 10
1.601587
 20
1.302894
 30
0.0
 10
1.771008
 20
1.176085
 30
0.0
 10
1.952408
 20
1.065723
 30
0.0
 10
2.144670
 20
0.972922
 30
0.0
 10
2.346679
 20
0.898801
 30
0.0
 10
2.557318
 20
0.844475
 30
0.0
 10
2.775470
 20
0.811060
 30
0.0
 10
3.000021
 20
0.799674
 30
0.0
 10
3.224570
 20
0.811060
 30
0.0
 10
3.442721
 20
0.844474
 30
0.0
 10
3.653357
 20
0.898800
 30
0.0
 10
3.855362
 20
0.972921
 30
0.0
 10
4.047620
 20
1.065721
 30
0.0
 10
4.229016
 20
1.176084
 30
0.0
 10
4.398432
 20
1.302892
 30
0.0
 10
4.554753
 20
1.445030
 30
0.0
 10
4.696863
 20
1.601381
 30
0.0
 10
4.823645
 20
1.770828
 30
0.0
 10
4.933985
 20
1.952255
 30
0.0
 10
5.026765
 20
2.144546
 30
0.0
 10
5.100871
 20
2.346584
 30
0.0
 10
5.155184
 20
2.557252
 30
0.0
 10
5.188591
 20
2.775434
 30
0.0
 10
5.199974
 20
3.000014
 30
0.0
 10
5.188590
 20
3.224593
 30
0.0
 10
5.155183
 20
3.442775
 30
0.0
 10
5.100869
 20
3.653443
 30
0.0
 10
5.026764
 20
3.855481
 30
0.0
 10
4.933983
 20
4.047772
 30
0.0
 10
4.823643
 20
4.229199
 30
0.0
 10
4.696861
 20
4.398646
 30
0.0
 10
4.554751
 20
4.554997
 30
0.0
 10
4.398430
 20
4.697135
 30
0.0
 10
4.229014
 20
4.823943
 30
0.0
 10
4.047619
 20
4.934306
 30
0.0
 10
3.855361
 20
5.027106
 30
0.0
 10
3.653356
 20
5.101228
 30
0.0
 10
3.442720
 20
5.155554
 30
0.0
 10
3.224570
 20
5.188969
 30
0.0
 10
3.000021
 20
5.200355
 30
0.0
 10
3.000021
 20
5.200355
 30
0.0
  0
LWPOLYLINE
  5
105
100
AcDbEntity
  8
Layer_1
 62
7
100
AcDbPolyline
 90
66
 70
0
 10
3.000021
 20
4.800338
 30
0.0
 10
3.184447
 20
4.791070
 30
0.0
 10
3.363458
 20
4.763861
 30
0.0
 10
3.536158
 20
4.719605
 30
0.0
 10
3.701652
 20
4.659198
 30
0.0
 10
3.859047
 20
4.583533
 30
0.0
 10
4.007448
 20
4.493505
 30
0.0
 10
4.145961
 20
4.390008
 30
0.0
 10
4.273691
 20
4.273936
 30
0.0
 10
4.389743
 20
4.146185
 30
0.0
 10
4.493224
 20
4.007648
 30
0.0
 10
4.583239
 20
3.859220
 30
0.0
 10
4.658893
 20
3.701795
 30
0.0
 10
4.719292
 20
3.536267
 30
0.0
 10
4.763541
 20
3.363532
 30
0.0
 10
4.790747
 20
3.184482
 30
0.0
 10
4.800014
 20
3.000014
 30
0.0
 10
4.790747
 20
2.815544
 30
0.0
 10
4.763541
 20
2.636493
 30
0.0
 10
4.719292
 20
2.463755
 30
0.0
 10
4.658893
 20
2.298224
 30
0.0
 10
4.583239
 20
2.140794
 30
0.0
 10
4.493224
 20
1.992361
 30
0.0
 10
4.389743
 20
1.853819
 30
0.0
 10
4.273691
 20
1.726063
 30
0.0
 10
4.145961
 20
1.609987
 30
0.0
 10
4.007448
 20
1.506485
 30
0.0
 10
3.859047
 20
1.416452
 30
0.0
 10
3.701652
 20
1.340783
 30
0.0
 10
3.536158
 20
1.280372
 30
0.0
 10
3.363458
 20
1.236113
 30
0.0
 10
3.184447
 20
1.208903
 30
0.0
 10
3.000021
 20
1.199633
 30
0.0
 10
2.815594
 20
1.208903
 30
0.0
 10
2.636583
 20
1.236114
 30
0.0
 10
2.463883
 20
1.280373
 30
0.0
 10
2.298388
 20
1.340784
 30
0.0
 10
2.140993
 20
1.416453
 30
0.0
 10
1.992591
 20
1.506486
 30
0.0
 10
1.854079
 20
1.609988
 30
0.0
 10
1.726349
 20
1.726064
 30
0.0
 10
1.610296
 20
1.853821
 30
0.0
 10
1.506816
 20
1.992363
 30
0.0
 10
1.416801
 20
2.140795
 30
0.0
 10
1.341147
 20
2.298224
 30
0.0
 10
1.280748
 20
2.463755
 30
0.0
 10
1.236499
 20
2.636493
 30
0.0
 10
1.209294
 20
2.815544
 30
0.0
 10
1.200027
 20
3.000014
 30
0.0
 10
1.209295
 20
3.184482
 30
0.0
 10
1.236500
 20
3.363531
 30
0.0
 10
1.280750
 20
3.536267
 30
0.0
 10
1.341148
 20
3.701794
 30
0.0
 10
1.416802
 20
3.859219
 30
0.0
 10
1.506817
 20
4.007647
 30
0.0
 10
1.610297
 20
4.146184
 30
0.0
 10
1.726350
 20
4.273936
 30
0.0
 10
1.854080
 20
4.390007
 30
0.0
 10
1.992592
 20
4.493504
 30
0.0
 10
2.140993
 20
4.583532
 30
0.0
 10
2.298388
 20
4.659197
 30
0.0
 10
2.463883
 20
4.719604
 30
0.0
 10
2.636583
 20
4.763860
 30
0.0
 10
2.815594
 20
4.791069
 30
0.0
 10
3.000021
 20
4.800338
 30
0.0
 10
3.000021
 20
4.800338
 30
0.0
  0
ENDSEC
  0
SECTION
  2
OBJECTS
  0
DICTIONARY
  5
C
330
0
100
AcDbDictionary
  3
ACAD_GROUP
350
D
  3
ACAD_MLINESTYLE
350
17
  0
DICTIONARY
  5
D
330
C
100
AcDbDictionary
  0
DICTIONARY
  5
1A
330
C
100
AcDbDictionary
  0
DICTIONARY
  5
17
330
C
100
AcDbDictionary
  3
STANDARD
350
18
  0
DICTIONARY
  5
19
330
C
100
AcDbDictionary
  0
ENDSEC
  0
EOF
