  0
SECTION
  2
HEADER
  9
$ACADVER
  1
AC1014
  9
$HANDSEED
  5
FFFF
  9
$MEASUREMENT
 70
     1
  0
ENDSEC
  0
SECTION
  2
TABLES
  0
TABLE
  2
VPORT
  5
8
330
0
100
AcDbSymbolTable
 70
     4
  0
VPORT
  5
2E
330
8
100
AcDbSymbolTableRecord
100
AcDbViewportTableRecord
  2
*ACTIVE
 70
     0
 10
0.0
 20
0.0
 11
1.0
 21
1.0
 12
210.0
 22
148.5
 13
0.0
 23
0.0
 14
10.0
 24
10.0
 15
10.0
 25
10.0
 16
0.0
 26
0.0
 36
1.0
 17
0.0
 27
0.0
 37
0.0
 40
341.0
 41
1.24
 42
50.0
 43
0.0
 44
0.0
 50
0.0
 51
0.0
 71
     0
 72
   100
 73
     1
 74
     3
 75
     0
 76
     0
 77
     0
 78
     0
  0
ENDTAB
  0
TABLE
  2
LTYPE
  5
5
330
0
100
AcDbSymbolTable
 70
     1
  0
LTYPE
  5
14
330
5
100
AcDbSymbolTableRecord
100
AcDbLinetypeTableRecord
  2
BYBLOCK
 70
     0
  3

 72
    65
 73
     0
 40
0.0
  0
LTYPE
  5
15
330
5
100
AcDbSymbolTableRecord
100
AcDbLinetypeTableRecord
  2
BYLAYER
 70
     0
  3

 72
    65
 73
     0
 40
0.0
  0
LTYPE
  5
16
330
5
100
AcDbSymbolTableRecord
100
AcDbLinetypeTableRecord
  2
CONTINUOUS
 70
     0
  3
Solid line
 72
    65
 73
     0
 40
0.0
  0
ENDTAB
  0
TABLE
  2
LAYER
  5
2
100
AcDbSymbolTable
 70
2
  0
LAYER
  5
50
100
AcDbSymbolTableRecord
100
AcDbLayerTableRecord
  2
0
 70
0
  6
CONTINUOUS
  0
LAYER
  5
51
100
AcDbSymbolTableRecord
100
AcDbLayerTableRecord
  2
Layer_1
 70
0
  6
CONTINUOUS
  0
ENDTAB
  0
TABLE
  2
STYLE
  5
3
330
0
100
AcDbSymbolTable
 70
     1
  0
STYLE
  5
11
330
3
100
AcDbSymbolTableRecord
100
AcDbTextStyleTableRecord
  2
STANDARD
 70
     0
 40
0.0
 41
1.0
 50
0.0
 71
     0
 42
2.5
  3
txt
  4

  0
ENDTAB
  0
TABLE
  2
VIEW
  5
6
330
0
100
AcDbSymbolTable
 70
     0
  0
ENDTAB
  0
TABLE
  2
UCS
  5
7
330
0
100
AcDbSymbolTable
 70
     0
  0
ENDTAB
  0
TABLE
  2
APPID
  5
9
330
0
100
AcDbSymbolTable
 70
     2
  0
APPID
  5
12
330
9
100
AcDbSymbolTableRecord
100
AcDbRegAppTableRecord
  2
ACAD
 70
     0
  0
ENDTAB
  0
TABLE
  2
DIMSTYLE
  5
A
330
0
100
AcDbSymbolTable
 70
     1
  0
DIMSTYLE
105
27
330
A
100
AcDbSymbolTableRecord
100
AcDbDimStyleTableRecord
  2
ISO-25
 70
     0
  3

  4

  5

  6

  7

 40
1.0
 41
2.5
 42
0.625
 43
3.75
 44
1.25
 45
0.0
 46
0.0
 47
0.0
 48
0.0
140
2.5
141
2.5
142
0.0
143
0.03937007874016
144
1.0
145
0.0
146
1.0
147
0.625
 71
     0
 72
     0
 73
     0
 74
     0
 75
     0
 76
     0
 77
     1
 78
     8
170
     0
171
     3
172
     1
173
     0
174
     0
175
     0
176
     0
177
     0
178
     0
270
     2
271
     2
272
     2
273
     2
274
     3
340
11
275
     0
280
     0
281
     0
282
     0
283
     0
284
     8
285
     0
286
     0
287
     3
288
     0
  0
ENDTAB
  0
TABLE
  2
BLOCK_RECORD
  5
1
330
0
100
AcDbSymbolTable
 70
     1
  0
BLOCK_RECORD
  5
1F
330
1
100
AcDbSymbolTableRecord
100
AcDbBlockTableRecord
  2
*MODEL_SPACE
  0
BLOCK_RECORD
  5
1B
330
1
100
AcDbSymbolTableRecord
100
AcDbBlockTableRecord
  2
*PAPER_SPACE
  0
ENDTAB
  0
ENDSEC
  0
SECTION
  2
BLOCKS
  0
BLOCK
  5
20
330
1F
100
AcDbEntity
  8
0
100
AcDbBlockBegin
  2
*MODEL_SPACE
 70
     0
 10
0.0
 20
0.0
 30
0.0
  3
*MODEL_SPACE
  1

  0
ENDBLK
  5
21
330
1F
100
AcDbEntity
  8
0
100
AcDbBlockEnd
  0
BLOCK
  5
1C
330
1B
100
AcDbEntity
 67
     1
  8
0
100
AcDbBlockBegin
  2
*PAPER_SPACE
  1

  0
ENDBLK
  5
1D
330
1B
100
AcDbEntity
 67
     1
  8
0
100
AcDbBlockEnd
  0
ENDSEC
  0
SECTION
  2
ENTITIES
  0
LWPOLYLINE
  5
100
100
AcDbEntity
  8
Layer_1
 62
7
100
AcDbPolyline
 90
87
 70
0
 10
3.100035
 20
4.998455
 30
0.0
 10
3.100035
 20
4.400001
 30
0.0
 10
2.899999
 20
4.400001
 30
0.0
 10
2.734248
 20
4.378173
 30
0.0
 10
2.541047
 20
4.326414
 30
0.0
 10
2.286606
 20
4.435609
 30
0.0
 10
2.113414
 20
4.335619
 30
0.0
 10
1.797954
 20
4.343501
 30
0.0
 10
1.656512
 20
4.202059
 30
0.0
 10
1.491148
 20
3.986589
 30
0.0
 10
1.391157
 20
3.813397
 30
0.0
 10
1.287308
 20
3.562594
 30
0.0
 10
1.235549
 20
3.369394
 30
0.0
 10
1.200106
 20
3.100290
 30
0.0
 10
1.200106
 20
2.900254
 30
0.0
 10
1.235549
 20
2.631096
 30
0.0
 10
1.287308
 20
2.437950
 30
0.0
 10
1.564459
 20
2.286972
 30
0.0
 10
1.664450
 20
2.113780
 30
0.0
 10
1.939396
 20
2.081148
 30
0.0
 10
2.080838
 20
1.939706
 30
0.0
 10
1.657725
 20
1.516648
 30
0.0
 10
1.781776
 20
1.413485
 30
0.0
 10
1.913077
 20
1.321074
 30
0.0
 10
2.050921
 20
1.239725
 30
0.0
 10
2.194597
 20
1.169750
 30
0.0
 10
2.343398
 20
1.111460
 30
0.0
 10
2.496614
 20
1.065166
 30
0.0
 10
2.653537
 20
1.031177
 30
0.0
 10
2.813458
 20
1.009806
 30
0.0
 10
2.999989
 20
1.196338
 30
0.0
 10
3.186631
 20
1.009696
 30
0.0
 10
3.399566
 20
1.041279
 30
0.0
 10
3.607290
 20
1.095362
 30
0.0
 10
3.808028
 20
1.171380
 30
0.0
 10
4.000004
 20
1.268767
 30
0.0
 10
4.000004
 20
1.400011
 30
0.0
 10
4.199985
 20
1.400011
 30
0.0
 10
4.199985
 20
1.399460
 30
0.0
 10
4.218395
 20
1.412193
 30
0.0
 10
4.319018
 20
1.496355
 30
0.0
 10
4.413912
 20
1.586929
 30
0.0
 10
4.380067
 20
1.713322
 30
0.0
 10
4.572882
 20
1.764971
 30
0.0
 10
4.656576
 20
1.879831
 30
0.0
 10
4.731908
 20
2.000340
 30
0.0
 10
4.466056
 20
2.460770
 30
0.0
 10
4.639248
 20
2.560761
 30
0.0
 10
4.838623
 20
2.215479
 30
0.0
 10
4.889973
 20
2.347252
 30
0.0
 10
4.931889
 20
2.482323
 30
0.0
 10
4.414242
 20
2.999969
 30
0.0
 10
4.555629
 20
3.141411
 30
0.0
 10
4.980892
 20
2.716148
 30
0.0
 10
4.994975
 20
2.858068
 30
0.0
 10
4.998916
 20
3.000631
 30
0.0
 10
4.366066
 20
3.366031
 30
0.0
 10
4.466056
 20
3.539223
 30
0.0
 10
4.984750
 20
3.239748
 30
0.0
 10
4.963637
 20
3.379490
 30
0.0
 10
4.932715
 20
3.517395
 30
0.0
 10
4.611136
 20
3.603550
 30
0.0
 10
4.662895
 20
3.796751
 30
0.0
 10
4.855380
 20
3.745157
 30
0.0
 10
4.797830
 20
3.874771
 30
0.0
 10
4.731246
 20
3.999984
 30
0.0
 10
4.200040
 20
3.999984
 30
0.0
 10
4.200040
 20
4.200020
 30
0.0
 10
4.600498
 20
4.200020
 30
0.0
 10
4.587820
 20
4.218375
 30
0.0
 10
4.503659
 20
4.319026
 30
0.0
 10
4.413085
 20
4.413947
 30
0.0
 10
3.900289
 20
4.276529
 30
0.0
 10
3.848530
 20
4.469674
 30
0.0
 10
4.234657
 20
4.573138
 30
0.0
 10
4.119980
 20
4.656680
 30
0.0
 10
3.999673
 20
4.731888
 30
0.0
 10
3.712435
 20
4.566027
 30
0.0
 10
3.612445
 20
4.739219
 30
0.0
 10
3.784534
 20
4.838603
 30
0.0
 10
3.652761
 20
4.889953
 30
0.0
 10
3.517691
 20
4.931868
 30
0.0
 10
3.424260
 20
4.838493
 30
0.0
 10
3.282873
 20
4.979879
 30
0.0
 10
3.283865
 20
4.980871
 30
0.0
 10
3.100035
 20
4.998455
 30
0.0
 10
3.100035
 20
4.998455
 30
0.0
  0
LWPOLYLINE
  5
101
100
AcDbEntity
  8
Layer_1
 62
7
100
AcDbPolyline
 90
45
 70
0
 10
1.891275
 20
4.050641
 30
0.0
 10
2.000746
 20
3.701997
 30
0.0
 10
2.200727
 20
3.701997
 30
0.0
 10
2.200727
 20
2.895734
 30
0.0
 10
2.255242
 20
2.692281
 30
0.0
 10
2.360579
 20
2.509828
 30
0.0
 10
2.509518
 20
2.360890
 30
0.0
 10
2.691970
 20
2.255553
 30
0.0
 10
2.895424
 20
2.201037
 30
0.0
 10
3.106043
 20
2.201093
 30
0.0
 10
3.309496
 20
2.255608
 30
0.0
 10
3.492004
 20
2.360890
 30
0.0
 10
3.919085
 20
2.788027
 30
0.0
 10
4.060527
 20
2.646585
 30
0.0
 10
3.883532
 20
2.469645
 30
0.0
 10
3.932756
 20
2.384427
 30
0.0
 10
3.716073
 20
2.259356
 30
0.0
 10
3.741594
 20
2.164271
 30
0.0
 10
3.645021
 20
2.138420
 30
0.0
 10
3.518407
 20
2.104465
 30
0.0
 10
3.499996
 20
2.086109
 30
0.0
 10
3.499996
 20
2.001057
 30
0.0
 10
3.414944
 20
2.001057
 30
0.0
 10
2.787937
 20
1.374049
 30
0.0
 10
2.646550
 20
1.515491
 30
0.0
 10
2.547276
 20
1.584558
 30
0.0
 10
2.447286
 20
1.757750
 30
0.0
 10
2.389298
 20
1.801958
 30
0.0
 10
2.337539
 20
1.995159
 30
0.0
 10
2.299780
 20
2.001057
 30
0.0
 10
2.299780
 20
2.153578
 30
0.0
 10
2.229611
 20
2.172429
 30
0.0
 10
2.190309
 20
2.161901
 30
0.0
 10
2.184246
 20
2.184556
 30
0.0
 10
1.678506
 20
2.320100
 30
0.0
 10
1.730265
 20
2.513246
 30
0.0
 10
1.893700
 20
2.485520
 30
0.0
 10
1.969988
 20
2.617591
 30
0.0
 10
1.373739
 20
3.213841
 30
0.0
 10
1.515125
 20
3.355282
 30
0.0
 10
1.584248
 20
3.454501
 30
0.0
 10
1.757440
 20
3.554492
 30
0.0
 10
1.698129
 20
3.998881
 30
0.0
 10
1.891275
 20
4.050641
 30
0.0
 10
1.891275
 20
4.050641
 30
0.0
  0
LWPOLYLINE
  5
102
100
AcDbEntity
  8
Layer_1
 62
7
100
AcDbPolyline
 90
18
 70
0
 10
2.999989
 20
3.200005
 30
0.0
 10
3.076545
 20
3.184788
 30
0.0
 10
3.141447
 20
3.141426
 30
0.0
 10
3.184808
 20
3.076525
 30
0.0
 10
3.200025
 20
2.999969
 30
0.0
 10
3.184792
 20
2.923430
 30
0.0
 10
3.141427
 20
2.858547
 30
0.0
 10
3.076533
 20
2.815200
 30
0.0
 10
2.999989
 20
2.799988
 30
0.0
 10
2.922151
 20
2.815709
 30
0.0
 10
2.858587
 20
2.858567
 30
0.0
 10
2.815729
 20
2.922131
 30
0.0
 10
2.800008
 20
2.999969
 30
0.0
 10
2.815220
 20
3.076512
 30
0.0
 10
2.858567
 20
3.141407
 30
0.0
 10
2.923450
 20
3.184772
 30
0.0
 10
2.999989
 20
3.200005
 30
0.0
 10
2.999989
 20
3.200005
 30
0.0
  0
ENDSEC
  0
SECTION
  2
OBJECTS
  0
DICTIONARY
  5
C
330
0
100
AcDbDictionary
  3
ACAD_GROUP
350
D
  3
ACAD_MLINESTYLE
350
17
  0
DICTIONARY
  5
D
330
C
100
AcDbDictionary
  0
DICTIONARY
  5
1A
330
C
100
AcDbDictionary
  0
DICTIONARY
  5
17
330
C
100
AcDbDictionary
  3
STANDARD
350
18
  0
DICTIONARY
  5
19
330
C
100
AcDbDictionary
  0
ENDSEC
  0
EOF
