<?xml version="1.0" encoding="UTF-8" standalone="no"?>
<!-- Created with Inkscape (http://www.inkscape.org/) -->

<svg
   xmlns:dc="http://purl.org/dc/elements/1.1/"
   xmlns:cc="http://creativecommons.org/ns#"
   xmlns:rdf="http://www.w3.org/1999/02/22-rdf-syntax-ns#"
   xmlns:svg="http://www.w3.org/2000/svg"
   xmlns="http://www.w3.org/2000/svg"
   xmlns:sodipodi="http://sodipodi.sourceforge.net/DTD/sodipodi-0.dtd"
   xmlns:inkscape="http://www.inkscape.org/namespaces/inkscape"
   inkscape:version="0.48.3.1 r9886"
   version="1.1"
   id="svg4007"
   height="1000"
   width="3200"
   sodipodi:docname="001-harry-potter--ornament.svg">
  <sodipodi:namedview
     id="base"
     pagecolor="#ffffff"
     bordercolor="#666666"
     borderopacity="1.0"
     inkscape:pageopacity="0.0"
     inkscape:pageshadow="2"
     inkscape:zoom="0.175"
     inkscape:cx="1285.5811"
     inkscape:cy="1396.1336"
     inkscape:document-units="px"
     inkscape:current-layer="layer1"
     showgrid="false"
     inkscape:window-width="1600"
     inkscape:window-height="849"
     inkscape:window-x="0"
     inkscape:window-y="26"
     inkscape:window-maximized="1" />
  <defs
     id="defs4009" />
  <metadata
     id="metadata4012">
    <rdf:RDF>
      <cc:Work
         rdf:about="">
        <dc:format>image/svg+xml</dc:format>
        <dc:type
           rdf:resource="http://purl.org/dc/dcmitype/StillImage" />
        <dc:title />
      </cc:Work>
    </rdf:RDF>
  </metadata>
  <g
     inkscape:label="Layer 1"
     inkscape:groupmode="layer"
     id="layer1"
     transform="translate(0,-52.362183)">
    <g
       id="g4676"
       style="stroke-width:4;stroke-miterlimit:4;stroke-dasharray:none" />
    <g
       style="fill:none;fill-opacity:1;stroke:#000000;stroke-opacity:1;stroke-width:4;stroke-miterlimit:4;stroke-dasharray:none"
       id="g5312">
      <g
         id="g5323"
         style="fill:none;stroke-width:4;stroke-miterlimit:4;stroke-dasharray:none">
        <path
           style="fill:none;fill-opacity:1;stroke:#000000;stroke-opacity:1;stroke-width:4;stroke-miterlimit:4;stroke-dasharray:none"
           d="m 1022.9145,253.74164 c 6.1516,44.49343 12.7643,88.92486 19.0532,133.39762 4.3856,29.22141 8.7375,58.48416 11.2781,87.88124 -10.5379,-5.03212 -20.4371,-11.84662 -32.2965,-14.07861 -0.1138,5.07353 0.974,10.06944 1.8512,15.06023 7.7466,41.48656 15.0831,83.06611 20.5057,124.87298 0.7178,5.91042 1.8683,11.80017 1.9937,17.77258 -1.2759,-0.43399 -2.6429,-0.72331 -3.5316,-1.70493 -6.6758,-6.23073 -13.1123,-12.66812 -19.8222,-18.85753 12.9528,72.81588 26.874,145.52844 39.5876,218.38565 0.5264,1.7966 0.9939,3.60824 1.3954,5.42477 -0.402,-1.81975 -0.8682,-3.62544 -1.3954,-5.42477 0.5809,11.42818 4.4029,22.47404 5.4397,33.84022 l -0.6551,0.67163 2.6771,0 c 1.7658,-7.51201 2.2329,-15.18934 2.5633,-22.83568 4.591,-44.67942 7.2909,-89.50863 11.0503,-134.25005 4.2036,7.95633 8.8402,15.706 13.2718,23.559 2.8708,4.73238 5.1834,9.75424 8.6011,14.20764 1.0138,0.16541 2.039,0.33073 3.0757,0.51664 0.081,-19.98373 0.2963,-39.9572 0.2849,-59.93076 0.524,-11.38685 -0.4671,-22.79428 0.6835,-34.15013 0.045,-22.09172 0.068,-44.16798 0.3987,-66.2597 8.1909,14.86903 16.217,29.78973 24.4646,44.63809 1.2531,-1.5086 3.645,-2.77955 3.1328,-4.95979 -2.5522,-37.9837 -5.5932,-75.95708 -7.5757,-113.97178 -0.9339,-7.63601 -0.7402,-15.34947 -1.0253,-23.01648 1.9597,0.65089 2.9053,2.41269 3.9872,3.90063 10.1505,14.90003 20.3748,29.75872 30.2745,44.79308 1.4126,1.95292 4.4087,1.38461 6.6074,1.39494 11.3694,-0.98162 22.4254,-3.91096 33.1795,-7.31048 16.0973,-5.29052 32.0972,-12.22902 44.002,-23.68819 8.4985,1.49827 16.8375,4.10216 24.7778,7.28469 0.1822,25.39824 -0.3136,50.80682 -0.1425,76.20507 0.6493,14.28005 -1.2642,28.92176 3.2469,42.82983 3.4521,9.9609 12.5141,17.00281 20.705,23.84318 14.5933,11.59351 29.8982,22.4275 45.1981,33.24604 6.6299,4.86679 15.7323,4.10736 23.6956,3.69397 9.5351,-0.65089 17.988,-4.96492 26.5436,-8.4471 8.0539,-3.36852 15.9661,-7.04703 23.7241,-10.95286 10.3098,-5.16645 19.1386,-12.79212 25.1765,-21.9574 3.8277,-5.62109 4.7336,-12.30126 5.9524,-18.67674 2.2784,-13.70141 3.3207,-27.55261 3.2182,-41.40902 0.5355,-25.00559 -4.215,-49.75799 -6.8352,-74.57759 l -0.5411,-0.77505 c -0.1825,-4.89771 -1.1905,-9.72317 -1.9083,-14.56938 -1.0822,-6.48897 -1.8455,-13.1641 -4.9555,-19.16743 -2.8252,-5.72442 -7.2796,-10.67388 -12.3035,-14.93111 -13.3629,-11.20077 -27.9275,-21.40975 -44.1158,-29.03542 -6.8463,-3.55443 -14.7699,-0.42357 -21.4457,1.85992 -23.3082,8.9587 -44.8452,21.2393 -66.1026,33.60777 -5.0013,2.72788 -9.2045,6.94891 -10.6516,12.16693 -1.23,4.4019 -3.7134,8.37998 -6.6074,12.0379 -7.849,-0.71297 -14.9521,-4.04536 -22.4709,-5.96728 2.9164,-34.80118 6.9378,-69.51448 9.6832,-104.33641 0.3988,-6.61305 2.2384,-13.67554 -0.9399,-19.96827 -3.3836,-7.35702 -9.3585,-13.32422 -14.6672,-19.55495 -19.6514,-21.87481 -39.1829,-43.84766 -59.5522,-65.17475 -4.3401,-0.57864 -8.6067,0.39265 -12.6168,1.80825 -13.2147,4.33982 -26.3613,8.92246 -39.7014,12.94199 -1.8797,0.58898 -3.8733,0.78522 -5.81,1.03329 -1.9708,-10.42593 0.7063,-20.92931 0.9114,-31.3862 -18.8995,-0.20665 -37.8503,0.79047 -56.7611,-0.12916 -13.3748,-0.7543 -26.7711,-0.92479 -40.1571,-1.42077 l -7.6042,0 z m 143.4264,44.68975 c 1.7793,-0.0405 3.5144,0.48309 5.0695,1.34328 1.0822,1.75659 1.4753,3.7405 1.6803,5.73475 5.9693,29.29375 7.8321,59.06281 9.6548,88.75953 0.5355,6.83004 -0.1367,13.76862 0.9114,20.53667 0.3645,14.23864 0.5012,28.47223 0.2848,42.70063 -3.543,0.57864 -7.1314,0.22732 -10.6516,-0.20666 -10.2985,-0.92996 -20.6254,0.48564 -30.7303,2.11824 -5.1949,0.52698 -10.3268,1.43115 -15.5216,1.88579 -1.2189,-40.60826 -0.5299,-81.24239 -0.9969,-121.85065 0.023,-9.27894 -0.04,-18.54233 0.029,-27.82135 -0.023,-2.32482 0.7974,-5.43502 3.8164,-5.838 11.3465,-3.11028 23.1316,-4.6808 34.6603,-7.1297 0.5925,-0.14738 1.2012,-0.21897 1.7944,-0.23253 z m -400.28984,7.56889 c -0.77475,-0.0169 -1.56354,0.0646 -2.27842,0.23244 -3.52007,0.77497 -6.87507,2.31457 -9.25603,4.85646 -16.75777,15.07569 -33.52694,30.14105 -50.35307,45.15474 -2.34676,1.89092 -4.90998,3.56484 -6.83525,5.83808 0.56961,0.86796 1.20182,1.75659 1.7943,2.63489 1.26443,-0.0413 2.55748,-0.0879 3.84479,-0.12912 2.79106,-0.84738 5.59352,-1.64814 8.43015,-2.40244 -0.39872,4.10216 0.87719,8.6073 -0.74049,12.45113 0.96833,1.54994 0.41012,3.46152 0.56961,5.16645 -0.581,45.13406 -1.27592,90.2578 -1.42401,135.41253 -1.09364,15.47867 -1.50377,31.102 -5.01253,46.34302 -1.17338,5.50743 -5.45116,9.80078 -9.65475,13.6652 -4.77338,4.12283 -9.7346,8.16819 -15.46482,11.1854 -0.15949,0.34098 -0.46708,1.02816 -0.62656,1.36915 3.20117,1.06428 6.29983,2.33523 9.39848,3.61651 5.94667,2.51089 12.6908,1.43148 19.02479,1.42073 4.84165,-0.94029 9.85417,-0.47531 14.75277,-1.03329 10.86806,-1.33294 21.9924,-2.00979 32.95168,-1.05916 6.74403,0.0517 13.60782,0.51664 20.42029,0.61997 4.57962,0.64064 9.21055,1.09537 13.86993,0.87838 -5.08098,-6.16874 -13.08387,-10.49309 -16.3762,-17.95344 -0.27341,-16.94594 -0.4215,-33.89188 -0.51264,-50.83782 -0.12531,-6.54072 0.39308,-13.09698 -0.48421,-19.6067 0.0342,-23.43492 -0.20496,-46.88033 -0.11391,-70.31524 0.14764,-18.99186 -0.72901,-37.97858 0.057,-56.9601 l 1.22461,-2.11825 c 3.34928,-1.54993 7.14284,-2.08724 10.82248,-1.23994 0.11393,0.6303 0.34177,1.90125 0.45569,2.53156 4.1809,11.88282 7.71245,23.95164 11.84779,35.85513 0.29619,1.40527 1.19051,3.22907 -0.19933,4.36568 -3.52015,3.35819 -6.95492,6.8145 -10.22445,10.35869 2.64297,1.69459 4.57388,7.15036 8.45859,4.90812 16.86039,-8.55564 33.14535,-18.03602 48.9576,-28.07959 3.14421,-2.18032 8.0656,-4.66022 6.60741,-8.98962 -2.82523,-11.20085 -8.6808,-21.51828 -13.67053,-32.00617 -4.43153,-8.5143 -8.82887,-17.11639 -14.63885,-24.92805 -2.00501,-2.7073 -4.95555,-5.79684 -8.94279,-5.26978 -4.27204,1.04354 -8.02578,3.28065 -11.76229,5.34723 -7.84916,4.56714 -15.40786,9.5528 -23.09752,14.33685 -1.07086,0.80596 -2.44366,0.7905 -3.73097,0.90417 -0.15949,-0.71297 -0.4955,-2.11312 -0.65499,-2.81568 -1.15061,-13.52575 -0.71205,-27.20137 -1.79421,-40.73746 -0.97407,-1.99135 -3.31464,-2.92024 -5.63918,-2.97066 z m 766.48874,9.09294 c -0.1964,0.007 -0.4101,0.0141 -0.6266,0.0516 -3.7366,2.58322 -6.4421,6.08095 -9.256,9.42881 -13.1465,16.10897 -28.1157,31.01413 -44.6569,44.30222 -16.9175,13.36051 -34.934,25.73932 -54.5398,35.64848 -0.2164,2.58322 -0.1196,5.16644 0.086,7.74966 16.1653,0 32.325,0.26874 48.5018,0.20666 0.9228,3.90584 1.5266,7.85821 1.7657,11.85704 3.0759,27.36149 3.3722,55.01751 2.7911,82.534 -0.581,26.5762 -3.8335,52.99732 -4.8132,79.56326 -1.2074,26.84477 -1.6061,53.70516 -1.9935,80.57067 0.045,4.99079 0.9626,10.19857 4.1296,14.41439 3.224,4.5878 8.2251,7.7962 13.3288,10.51376 20.0615,10.67379 41.0742,19.68928 61.8874,29.06121 1.8,0.64064 3.5601,1.819 5.6107,1.80825 2.6202,-1.62226 4.5113,-4.05049 6.6074,-6.19973 -10.1048,-6.02407 -19.9418,-12.59579 -28.4516,-20.40746 -5.2518,-6.2514 -3.543,-14.63137 -3.0759,-21.90573 1.0821,-28.57044 2.8081,-57.15122 4.0157,-85.71133 0.2961,-3.76117 -0.2506,-7.61534 0.6835,-11.31451 0.7633,-25.18126 2.079,-50.35218 2.6486,-75.53343 0.6607,-29.09742 -0.9968,-58.22072 0.9969,-87.28714 1.3101,-0.4649 2.6884,-0.84209 4.1581,-0.74909 10.606,-0.0827 21.2348,-0.25832 31.8408,-0.46498 -0.205,-3.25486 -0.5639,-6.5046 -0.9397,-9.73879 -0.9913,-2.97579 -0.4501,-6.13253 -1.3956,-9.11874 -0.2621,-1.81859 -0.4557,-3.65784 -0.6836,-5.47643 -11.0389,0.0413 -22.0664,-0.42365 -33.094,-0.30999 -1.3442,-8.33864 -0.4728,-16.8684 -0.9968,-25.28979 -0.1823,-14.32138 -0.8431,-28.63756 -0.9682,-42.95895 0.1069,-2.25712 -0.6144,-5.35657 -3.5602,-5.2439 z m -1158.57615,1.11074 c -11.12889,0.19592 -22.18752,1.78115 -33.32189,2.16991 -15.93753,1.11595 -31.95483,0.99196 -47.90375,0.25832 -9.79721,0.17566 -19.46909,-1.4466 -29.16377,-2.27323 -0.37594,2.84154 0.59239,5.92074 3.75939,7.07803 5.67326,2.45923 11.03894,6.83516 11.27817,12.94198 5.11506,58.34976 6.92065,116.93212 6.74987,175.47828 -16.07425,11.88282 -33.75478,21.95227 -51.89109,31.02446 -6.68717,2.99654 -13.43693,6.42194 -20.93293,7.36223 -1.15061,-14.0734 -1.1563,-28.19846 -2.07906,-42.26152 -0.45568,-11.03553 -0.50695,-22.08139 -0.712,-33.11692 -1.07086,-14.44538 -0.79746,-28.93209 -1.19618,-43.39814 -0.68352,-17.20426 -0.65504,-34.43952 -0.65504,-51.66445 0.0912,-6.56139 -0.0853,-13.17956 1.16768,-19.65829 1.72021,-6.24114 5.81571,-12.16702 12.27503,-15.16355 0.36456,-2.02525 0.74615,-4.06083 1.11069,-6.09641 -10.42373,0.0413 -20.85324,0.17045 -31.24282,0.90417 -12.15537,0.26857 -24.31073,0.32544 -36.45471,0.54243 -7.92889,0.80597 -15.91476,0.37199 -23.86644,0.46498 -5.32011,-0.10332 -10.663,0.34099 -15.94894,-0.36165 -3.85052,-0.22773 -7.74093,-0.57864 -11.59145,-0.25832 -2.34678,0.46498 -3.708134,2.5161 -3.901804,4.57235 10.981994,3.3581 21.428544,10.73579 23.752524,21.54399 1.41263,34.46019 3.12144,68.91526 4.0442,103.40645 1.03668,10.31222 0.64935,20.69678 1.02529,31.05033 1.13921,13.72208 0.74048,27.51137 1.25312,41.25411 -0.0797,6.70596 0.36456,13.43788 -0.34175,20.12326 -4.45431,-0.0413 -8.33332,-2.19578 -12.27499,-3.79729 -14.44518,-6.29273 -28.730864,-13.05044 -41.922914,-21.3375 -4.77329,-3.06887 -9.55798,-6.2204 -13.38572,-10.28115 11.4035,-6.83012 23.7867,-12.19281 35.48639,-18.54762 1.98222,-0.97129 1.4354,-3.19799 1.42401,-4.88225 -18.77417,2.33523 -37.95846,4.82546 -55.36559,11.98615 l 0,2.11825 c 3.88471,8.70029 8.86305,16.97181 14.411,24.87639 6.60741,8.94828 14.32557,17.89144 25.20502,22.75823 15.60717,7.47068 31.641544,14.1974 47.647434,20.92411 0.30759,19.10551 0.76328,38.21623 0.74049,57.32175 -0.59239,13.80466 -0.33607,27.62494 -1.28161,41.40902 -0.69492,7.01603 -0.78036,14.46605 -4.87012,20.71744 -6.69855,10.46722 -18.83683,16.73416 -30.901064,21.05331 -0.0912,0.88863 -0.2791,2.65035 -0.37025,3.53897 -2.49486,1.01263 0.84302,2.07171 2.05059,2.40236 33.834524,0.16541 67.708914,0.68205 101.475094,2.7383 10.15036,0.8163 20.3691,1.40527 30.35997,3.35811 3.10996,0.60972 6.10044,2.05112 9.36997,1.67913 1.61767,-1.98391 -1.27592,-4.31394 -3.07587,-5.39898 -7.84916,-4.27773 -17.27042,-8.73121 -19.82225,-17.41083 -1.03668,-7.915 -0.20506,-15.92307 -0.62656,-23.86898 -0.28481,-37.84938 -0.83732,-75.70917 -1.05378,-113.55847 25.66636,-5.16653 51.62329,-12.67333 72.59614,-27.56303 2.52904,18.13423 2.36955,36.44932 3.13283,54.68679 0.8544,27.22716 0.39872,54.50087 -1.02529,81.70737 -1.37844,15.02402 -2.10754,30.38903 -7.68967,44.74142 -4.39735,11.31451 -15.16853,19.20372 -26.34427,24.87647 -0.23915,3.22378 3.09874,5.56422 4.10115,8.55043 20.06148,-2.20091 40.32803,-1.5034 60.49203,-1.36915 21.41715,0.77497 42.75454,3.01208 63.90967,6.12228 1.90257,0.22732 3.7993,0.13986 5.72457,0.1292 0.88858,-1.49835 1.66324,-3.05341 2.22145,-4.67567 -4.27203,-3.82317 -10.5149,-5.26465 -14.35403,-9.58372 -10.66301,-10.8082 -13.1237,-25.99763 -14.29709,-39.9367 -0.51264,-17.86557 -0.6498,-35.72593 -0.68352,-53.60183 -0.55776,-15.16869 0.25062,-30.37358 -0.51264,-45.54218 0.12531,-35.54522 -0.35316,-71.0645 -0.22785,-106.60964 14.22873,-7.51201 30.82701,-9.82137 46.76456,-12.58034 -10.24149,8.84496 -21.06399,17.48846 -28.59416,28.49299 -2.79107,4.26749 -5.54796,9.26861 -3.98724,14.36272 3.65687,15.88165 10.0307,31.08134 15.46473,46.49801 5.02391,13.71174 9.92261,27.48036 14.92364,41.20244 1.18479,4.48439 6.7043,6.01887 11.02191,7.10382 5.91249,1.03329 12.94707,3.15153 18.25578,-0.56831 11.25539,-7.83233 22.54495,-15.65945 34.06237,-23.17146 0.7177,7.80125 0.71204,17.85515 9.54092,22.00906 8.62382,2.5108 19.19569,2.02524 26.25879,-3.61652 6.61881,-5.09411 9.95104,-12.78699 16.60392,-17.85011 9.75173,-7.65667 19.42927,-15.41667 28.96446,-23.30067 1.45819,-1.23994 3.06447,-2.54189 3.36066,-4.44314 -6.89222,1.65326 -14.47935,1.40527 -21.01841,-1.29161 0.0114,-13.20543 0.43864,-26.39541 0.54108,-39.60076 1.36705,-17.17335 0.73483,-34.40853 0.88293,-51.61287 -0.0684,-15.03428 -0.45568,-30.1203 -3.07586,-44.99966 -2.76828,-12.74045 -12.85603,-22.48445 -22.07224,-31.8253 -17.11093,-16.86336 -34.38125,-33.60777 -52.23267,-49.83041 -2.1645,-2.43815 -5.83849,-0.7543 -8.45867,0.0517 -19.27543,7.20203 -37.18381,17.12681 -54.16942,28.02793 -4.24924,2.59355 -8.04282,5.81229 -12.70219,7.8272 -1.1506,5.69343 1.85127,11.0252 3.78792,16.27431 6.76681,15.31334 16.67229,29.23175 26.23026,43.19148 1.82273,-0.53731 3.66251,-1.07462 5.49664,-1.6016 -0.43281,-7.42935 -1.14486,-15.12735 1.39558,-22.31904 1.10503,-3.1102 3.93026,-5.34731 6.94917,-6.94883 11.18704,-6.33414 22.92664,-11.81049 34.94521,-16.73928 2.34687,-1.05404 4.92148,-1.57068 7.46192,-2.11833 5.52508,41.26965 6.42505,82.90599 6.09468,124.43388 -0.27333,7.90466 0.0285,15.8042 -0.82588,23.68819 -0.31898,11.42818 -0.75188,22.90281 -1.93666,34.27933 -3.18978,2.61422 -6.81821,4.79446 -9.82564,7.59467 -1.40132,1.40528 -3.32084,2.09237 -5.3828,2.09237 -4.93278,-17.64849 -11.1813,-34.95609 -16.49002,-52.49108 -2.72271,-12.57505 -3.32659,-25.43437 -5.80996,-38.05083 -0.82034,-2.53156 1.85681,-4.13316 3.47448,-5.73476 6.43663,-5.54876 12.6908,-11.29385 19.53754,-16.42929 2.18729,-1.77726 5.00679,-2.61422 7.71811,-3.51319 0.15949,-0.88862 0.31323,-1.79792 0.48421,-2.68655 -8.6467,-2.53156 -17.99387,-1.84446 -26.97084,-2.19578 -24.96008,-0.67155 -50.08531,1.02296 -74.36195,6.50972 -1.53785,0.66131 -3.66251,-0.0568 -3.21822,-1.83404 -0.53544,-38.18003 -0.7918,-76.36007 -0.3702,-114.5401 0.0227,-7.17102 0.46133,-14.35759 1.50941,-21.46662 2.48347,-9.68192 6.99474,-18.92465 12.58826,-27.45962 1.90249,-3.02753 5.88972,-4.748 6.4935,-8.44709 -1.59207,-0.0362 -3.1948,-0.0539 -4.78468,-0.0259 z m 228.92417,14.72437 c -2.88931,0.0394 -5.20829,2.09568 -7.63271,3.30653 -24.47022,14.83803 -48.27406,30.53369 -72.1404,46.13636 0.20505,2.1699 3.29796,3.27552 5.32576,3.7715 11.49462,-1.32261 23.12595,-0.83655 34.68893,-0.82663 1.92527,12.85412 0.76901,25.91489 2.07901,38.8 0.21645,22.07106 0.56396,44.13691 0.54117,66.20796 -0.19367,4.15382 0.97972,8.24565 0.62657,12.39947 0.0679,29.28349 0.10826,58.5617 0.0854,87.85544 0.1367,1.48794 -0.34177,2.95521 -1.53784,4.02983 -3.28092,3.1102 -7.422,5.34211 -11.53454,7.43968 -4.07838,2.14924 -7.13146,5.66243 -8.88584,9.60959 3.34927,0.50631 6.7669,0.36165 10.13896,0.36165 31.76116,-0.031 63.49955,0.0827 95.23792,-0.61997 0.20506,-0.59931 0.63222,-1.80313 0.82598,-2.40236 -0.31908,-0.50639 -0.97981,-1.51901 -1.31019,-2.01499 -5.02382,-2.3559 -11.01615,-4.86679 -13.1009,-10.02291 -3.25806,-18.5062 -3.12709,-37.34819 -5.43969,-55.92673 -0.95693,-15.25134 -3.23535,-30.43036 -4.27203,-45.67137 -1.45774,-8.14232 -0.17088,-16.48609 -1.48098,-24.61807 -0.52403,-23.48675 -1.60054,-46.95787 -2.42076,-70.44453 -0.0229,-3.39952 -0.63231,-6.89204 0.31323,-10.22956 3.34928,-2.90354 7.56435,0.79563 8.31623,3.97816 3.58851,11.46951 7.41051,22.90802 10.90788,34.40853 1.53794,5.21811 3.4632,10.34835 4.44293,15.68012 0.22793,0.14474 0.71204,0.44952 0.93988,0.59418 -3.44041,3.52352 -6.86378,7.0677 -10.56611,10.38456 1.57211,1.4156 2.96758,3.01199 4.07262,4.779 2.05058,0.14458 3.70243,-1.05404 5.41125,-1.91167 15.2654,-8.24556 30.5536,-16.53262 45.45446,-25.31558 3.37206,-1.84959 5.1948,-5.09924 5.46821,-8.60209 -2.26704,-11.01486 -7.30799,-21.37363 -11.99014,-31.69618 -4.13542,-9.50626 -8.45302,-18.96598 -13.44268,-28.13126 -2.22154,-3.44085 -4.68788,-7.56367 -9.31308,-8.5763 -7.31372,-1.02295 -14.3996,1.99425 -20.44881,5.42477 -6.55046,3.79217 -13.27744,7.38289 -19.33804,11.80537 -0.41011,-0.27907 -1.2133,-0.83184 -1.62342,-1.11083 -0.1367,-1.20895 -0.26201,-2.41789 -0.39872,-3.61651 -1.77717,-10.26056 -1.76577,-20.85177 -4.21508,-30.99867 -4.38595,-1.42594 -8.53842,-3.54418 -13.18639,-4.23649 -0.19786,-0.0161 -0.40537,-0.002 -0.59804,0 z m 1036.25348,5.76063 c -3.3036,1.38461 -4.9726,4.37594 -6.5219,7.15549 -8.4871,15.33401 -17.6919,30.40449 -28.6511,44.40564 -12.7706,16.95627 -27.6829,32.47106 -43.5749,47.04044 -1.424,1.31228 -2.791,2.68143 -3.8163,4.26228 -1.367,2.64522 0.376,6.61825 3.9303,6.74225 8.1226,0.64064 16.3079,0.65618 24.4646,0.28411 1.0479,45.91937 2.3411,91.83361 2.1929,137.76331 -0.3759,10.67388 -0.6778,21.34775 -0.769,32.03196 0.045,27.60948 -0.3986,55.1983 1.3671,82.76646 0.1595,2.93454 3.1158,4.72213 5.2689,6.56138 16.04,10.78754 34.8484,17.50392 53.258,24.17897 20.0159,7.12969 40.3964,13.35009 60.9477,19.11584 2.5177,0.68197 5.6106,0.92484 7.7751,-0.74909 6.2542,-3.58551 9.6035,-9.76979 14.6958,-14.44026 8.4757,-7.87366 16.4388,-16.20718 25.4043,-23.63653 2.2443,-2.02516 5.9524,-3.56997 5.4968,-7.00049 -0.091,-2.63488 -3.3151,-2.67109 -5.3543,-3.02241 -19.3324,-1.0952 -38.6705,-2.21636 -58.0142,-3.12566 -8.3391,-0.26865 -16.8775,-1.40006 -25.0341,0.59419 2.3466,4.21581 8.1681,3.90062 12.5313,4.98557 12.5768,2.55223 25.4441,4.04016 37.7932,7.49135 0.4328,1.46727 1.6519,3.50806 -0.2279,4.57234 -7.4845,5.75542 -14.7356,11.85696 -22.8695,16.86841 -3.6797,0.98162 -6.8696,-2.13891 -10.139,-3.30653 -12.0757,-5.65209 -23.9577,-11.63483 -36.056,-17.25592 -1.367,-11.53151 -0.9398,-23.15601 -1.7372,-34.71852 -0.4103,-21.34775 -1.0538,-42.65938 -1.4526,-63.98638 -0.433,-11.7175 0.1822,-23.45566 -0.9113,-35.13183 -0.091,-25.49132 -0.6095,-50.99802 -0.5413,-76.48927 -0.056,-2.36623 0.2678,-4.77379 -0.4841,-7.07803 -0.2506,-15.34434 0.018,-30.70414 -0.1423,-46.0589 14.354,-1.15728 28.7763,-1.77205 43.176,-2.29902 1.4696,-6.71638 0.9455,-13.64975 1.31,-20.45913 -5.9693,0.19674 -11.9446,0.24287 -17.914,0.18087 -3.8277,-0.062 -7.6441,0.94542 -11.449,0.28411 -5.3999,0.43398 -10.8339,0.19633 -16.2338,0.30999 -0.6835,-16.96661 -1.8569,-33.90734 -2.6202,-50.8637 -0.262,-3.42018 0.2279,-6.89716 -0.6266,-10.25535 -0.5353,-8.74163 -0.336,-17.50912 -1.5094,-26.21975 -0.7404,-0.3719 -2.2214,-1.1262 -2.962,-1.49819 z m 278.1381,47.45376 c -0.7768,-0.003 -1.5664,0.23245 -2.3639,0.77497 -20.8247,16.28463 -41.2222,33.04458 -62.1724,49.18456 -3.4177,2.69688 -5.5138,6.35985 -7.9744,9.73879 0.068,1.2502 0.1424,2.52114 0.2563,3.77142 5.6505,0.20666 11.2838,-0.78009 16.9458,-0.49077 -0.3418,17.8759 1.1164,35.67435 1.0252,53.55025 0.3988,8.56596 -0.262,17.25072 0.7405,25.75469 0.2279,32.40394 1.088,64.77689 0.712,97.18083 -0.262,11.28352 -0.2677,23.18189 -5.8384,33.55603 -7.1656,9.64066 -16.6495,20.19046 -30.3314,21.28575 0.7062,2.3869 1.8512,4.66534 2.9334,6.94891 16.3705,-1.77726 32.7352,1.32782 48.3879,5.50231 12.4174,3.4511 24.9601,6.60263 37.651,9.14452 12.6794,2.78988 25.6777,4.13795 38.7331,4.10737 4.0555,0.7543 8.2706,0.33065 12.4173,0.56831 9.615,-0.14466 19.2526,0.44431 28.879,-0.0517 0.091,-2.27323 0.1999,-4.54647 0.2563,-6.81971 -4.4657,-0.40298 -8.8629,-1.22961 -13.2718,-1.75659 -1.8796,-0.47531 -3.7309,-0.76984 -5.5536,-1.21415 -10.5833,-2.21124 -21.138,-5.22324 -30.5025,-10.30702 -7.4161,-4.0195 -14.2059,-10.21923 -15.3222,-18.34088 -1.2304,-23.47633 -2.6088,-46.96299 -3.1898,-70.47032 -1.1051,-9.2066 -0.1481,-18.55787 -1.3102,-27.74381 -0.672,-10.68421 0.029,-21.48729 -1.1676,-32.10941 -0.5354,-31.06076 -2.2613,-62.07489 -2.7626,-93.12522 4.3518,-2.4489 8.5555,-5.10445 12.7592,-7.74967 2.0391,5.72442 3.9701,11.47463 5.9523,17.23005 3.9873,11.29385 7.7068,22.66003 11.7055,33.94363 0.3985,1.32261 0.9398,2.71234 0.598,4.10728 -4.6138,5.99308 -9.8143,11.64517 -14.2117,17.77258 2.005,1.70492 4.1126,3.37364 5.6391,5.5023 16.3477,-11.42826 32.6213,-22.97522 48.6728,-34.74439 5.5935,-4.6188 12.4515,-8.44197 15.892,-14.77603 0.9113,-4.35015 0.6037,-8.99474 -1.3101,-13.0969 -5.4112,-12.56487 -12.9472,-24.24617 -20.3065,-35.93267 -4.7618,-7.05736 -9.2446,-14.30072 -14.5534,-21.02743 -1.2531,-1.94258 -4.2378,-2.0407 -6.3796,-1.67913 -3.2125,0.35131 -5.2917,2.77442 -7.8889,4.21069 -11.7226,6.67505 -23.6842,13.01944 -35.5434,19.4775 -1.686,-9.10328 -1.5835,-18.41321 -3.4746,-27.48549 -0.3759,-2.24736 -2.3973,-4.38181 -4.7277,-4.39148 z m -152.5972,25.85802 c -3.0524,0.0786 -6.1018,0.40687 -8.9997,1.11083 -21.7703,15.40634 -42.84,31.68064 -64.7356,46.91132 -2.3354,9.90924 -2.5632,20.17493 -4.0442,30.19783 -0.1253,6.65438 -2.9733,13.00399 -2.905,19.65837 1.2873,27.18583 0.9854,54.382 1.3956,81.57817 -0.114,6.65438 -2.4778,13.05044 -2.7626,19.68416 4.2607,4.01949 8.1909,8.32831 12.4174,12.39947 15.1742,14.15606 30.3884,28.53944 48.3879,39.78163 2.8024,1.97358 6.4309,2.35069 9.8257,2.91908 8.658,0.7233 17.3957,1.63772 26.0879,0.4391 4.2151,0.23766 7.3935,-2.67101 9.7402,-5.50222 7.9062,-10.53955 16.8603,-20.392 25.4044,-30.5079 4.5568,-5.79675 10.1959,-10.97865 13.6136,-17.43671 -7.4961,-9.80591 -13.1693,-20.96552 -22.3286,-29.60382 -1.0367,0.0827 -3.1214,0.26353 -4.1581,0.33586 -0.7746,6.45806 -2.4493,12.756 -3.9872,19.08998 -4.4315,16.47063 -9.2561,33.01367 -17.4014,48.35793 -0.9227,1.5396 -1.9083,4.63955 -4.4145,3.09986 -12.5997,-6.42705 -21.8842,-18.11868 -25.1195,-30.86947 -1.9595,-10.61187 -1.3159,-21.44074 -2.307,-32.13529 -0.3189,-13.41209 -0.5867,-26.82418 -0.598,-40.2466 -0.1026,-1.73593 0.1709,-3.59585 -0.7975,-5.16645 1.1164,-1.59127 0.6608,-3.44598 0.2279,-5.14065 0.524,-7.27428 -1.9424,-15.19448 2.2499,-21.98319 12.0643,-0.12399 23.6898,3.1412 35.344,5.57976 6.9834,1.5396 13.9325,3.19807 20.9045,4.83059 1.4696,0.40298 2.9334,0.70263 4.4715,1.03329 5.0581,1.21928 10.156,2.31456 15.2369,3.51318 1.834,0.37207 4.2662,0.87317 5.6105,-0.74909 10.1277,-8.55564 16.3704,-20.06648 22.7272,-30.99868 -2.1872,-6.86104 -5.5308,-13.47409 -8.1169,-20.25246 -3.8618,-9.24794 -7.7693,-18.48034 -11.5059,-27.76969 -2.4037,-5.26977 -4.1012,-10.81333 -6.7214,-15.9901 -7.7352,-4.42248 -16.0514,-8.04933 -24.0373,-12.14115 -2.9961,-1.41561 -6.0036,-2.81055 -8.9998,-4.18482 -7.9174,-3.54418 -15.7153,-7.52747 -24.2366,-9.73879 -1.8072,-0.0967 -3.6367,-0.15028 -5.4683,-0.10333 z m -1.9935,18.10843 c 2.1419,0.0463 4.0094,1.02693 4.4429,3.3324 4.4315,10.33289 8.9314,20.61924 13.4426,30.92113 5.8329,13.02978 11.1301,26.27655 17.316,39.16166 -0.034,0.8783 -0.04,1.75659 -0.029,2.63489 -6.9493,0.32032 -13.8756,-0.86797 -20.7337,-1.54994 -9.8427,-0.51664 -19.6285,-1.78759 -29.4485,-2.53155 0.034,-10.53955 1.2759,-21.02223 1.7089,-31.54111 1.4125,-12.34789 0.3644,-25.38279 6.2086,-36.9143 1.1406,-2.10981 4.3377,-3.57237 7.0916,-3.51318 z m -848.88213,2.99654 c 5.87843,4.48447 12.59403,8.79841 20.47733,9.48039 -0.7861,1.798 -1.6177,3.60105 -2.3923,5.39897 -1.6291,4.12283 -3.1329,8.26631 -4.5569,12.45114 -1.5037,3.59584 -1.6974,7.574 -3.5885,11.05619 -3.9075,7.18136 -8.17377,14.17152 -12.38885,21.20822 -10.51499,16.81169 -20.45454,33.93321 -31.92638,50.21784 -2.35817,-1.78759 -2.5974,-4.69625 -3.58852,-7.15548 -6.83526,-21.8024 -13.1864,-43.73913 -19.50892,-65.66552 -0.82032,-2.59356 -0.5696,-5.56943 1.48098,-7.64634 4.06689,-5.3731 13.40275,-4.6188 16.54697,-10.79787 -16.16538,0.47531 -32.30798,2.53156 -48.53034,2.3249 -12.48574,0.7853 -25.09679,0.22732 -37.53697,1.34327 -3.93026,0.20666 -7.86054,0.32032 -11.79081,0.36166 -0.96833,1.14695 -1.69177,2.41277 -2.13607,3.79737 4.91,0.45465 10.63457,1.23474 13.92688,4.93392 2.69994,5.03212 4.39161,10.41555 6.52202,15.65433 2.00501,5.13544 3.75366,10.37943 5.72449,15.52512 3.83913,10.66355 7.57574,21.3633 11.33514,32.05784 8.66938,25.33625 17.47547,50.63116 25.46133,76.1534 0.45568,2.25257 1.49801,5.04246 -0.25627,7.02637 -3.82775,4.31915 -6.67012,9.25306 -10.11053,13.8202 -11.55159,16.77028 -23.39937,33.37011 -34.7459,50.24372 -31.2827,2.88288 -62.88437,1.13662 -93.98479,-2.68655 -9.45544,-1.51893 -19.36656,-2.06145 -28.13848,-5.86387 0.1481,-5.30086 2.81385,-10.15723 4.78469,-15.03444 1.02529,-1.77718 1.35565,-4.47406 3.93026,-4.90804 12.17815,-3.24461 24.5044,-6.06028 36.73952,-9.11882 1.5721,-0.53731 3.77643,-0.7233 4.12959,-2.63489 -3.24676,-2.19057 -7.59853,-0.7853 -11.27818,-1.75659 -14.83251,-1.11595 -29.63084,-2.73309 -44.48604,-3.6423 -10.27568,8.81395 -20.39185,18.01535 -28.02456,28.90622 -1.81143,3.29619 -4.95565,6.66984 -4.44292,10.51367 7.23389,3.54419 14.60467,6.85592 22.15754,9.84212 4.22646,1.64293 8.47007,3.31686 12.78767,4.8048 4.13533,1.52927 8.38458,2.78475 12.58827,4.15895 6.02642,1.84967 12.07562,3.69405 18.22735,5.19231 17.82864,4.7428 36.0845,8.02345 54.42579,10.61701 19.3209,2.08733 38.77295,3.59584 58.24204,3.25494 35.78259,-42.46826 66.99694,-87.9639 95.63667,-134.63756 10.85666,-17.74166 20.67103,-36.005 31.69853,-53.65358 12.2579,-19.92181 24.6297,-39.79196 35.2016,-60.49908 2.9846,-6.66471 6.9434,-12.94711 11.0788,-19.06418 0.1025,-0.86796 0.1994,-1.76692 0.3133,-2.63489 -4.7961,1.03329 -9.746,0.82663 -14.6104,0.67164 -8.6466,-0.99196 -17.2932,-1.85992 -26.031,-2.01491 -9.7516,-1.03329 -19.7139,0.12399 -29.36313,-1.6016 z m 458.38953,12.65779 c 1.5152,4.90812 0.1367,10.03324 -1.5949,14.72437 -3.805,7.55334 -10.5718,13.44309 -17.8856,18.23755 -6.5277,4.55681 -15.3621,5.12512 -21.4456,10.33289 -0.8314,-1.18828 -1.1905,-2.46435 -1.1108,-3.84896 0.023,-4.53614 -0.3531,-9.13948 0.9683,-13.56196 13.1237,-9.3306 27.2386,-17.45225 41.0686,-25.88389 z m -230.9748,29.34541 c 3.7936,0.16533 7.6783,-0.0413 11.3921,0.8783 10.1618,0.74396 20.2271,2.39723 30.1037,4.70146 l 0.9967,2.24745 c 0.045,0.85754 0.1081,1.71517 0.1994,2.58322 -3.7937,5.57976 -8.3902,10.63767 -12.9016,15.73178 -4.3062,1.42594 -6.5103,-2.64522 -9.1421,-4.80479 -7.0286,-6.99537 -14.0179,-14.0424 -20.6482,-21.33742 z m 235.1043,18.44421 c 3.1443,21.24442 6.2771,42.50439 8.0885,63.88314 0.6834,7.57392 0.051,15.20481 0.9968,22.75815 0.5241,6.23073 -0.7177,12.42013 -0.5126,18.65087 -0.1367,12.09981 -1.407,24.1583 -2.9906,36.16511 -1.1049,6.2514 -1.7257,12.71979 -4.5282,18.59921 -6.4252,3.34785 -12.8161,6.8145 -19.8223,9.06707 -1.7201,0.70263 -3.6168,0.78017 -5.4397,0.64585 -4.9098,-4.57748 -10.5036,-8.85008 -13.9554,-14.49193 -2.3012,-22.84602 -4.4198,-45.77983 -5.2972,-68.73951 -1.048,-7.15036 -0.6323,-14.40405 -0.9399,-21.59574 -1.3785,-18.04123 -0.8259,-36.16512 -0.9968,-54.24768 2.9278,-1.18828 5.8555,-2.38169 8.8859,-3.38406 5.4795,-2.33523 11.1927,-4.17961 16.6039,-6.69051 6.6074,-0.53731 13.2661,-0.54764 19.9076,-0.61997 z m -313.0832,331.89245 c 0.3757,1.82925 0.7203,3.66156 1.0254,5.50231 -0.3047,-1.83876 -0.6504,-3.67521 -1.0254,-5.50231 z m 1.6804,9.71292 c 0.6371,4.19383 1.2408,8.41221 2.0506,12.58025 -0.8113,-4.1773 -1.4119,-8.37609 -2.0506,-12.58025 z"
           id="path6"
           inkscape:connector-curvature="0" />
        <path
           id="path5326"
           d="M 45.936500,514.218355 l 0.000000,8.968130 M 51.936500,533.721822 l 0.000000,-21.609074 M 57.936500,510.331573 l 0.000000,32.426918 M 63.936500,525.395927 l 0.000000,-16.576164 M 63.936500,528.941340 l 0.000000,21.253670 M 69.936500,522.030353 l 0.000000,-14.486988 M 69.936500,533.580603 l 0.000000,22.838457 M 75.936500,518.941562 l 0.000000,-12.410135 M 75.936500,537.556989 l 0.000000,23.612384 M 81.936500,515.877179 l 0.000000,-10.340269 M 81.936500,541.094204 l 0.000000,23.509041 M 87.936500,512.820575 l 0.000000,-8.154786 M 87.936500,544.448091 l 0.000000,22.923557 M 93.936500,509.763972 l 0.000000,-5.884556 M 93.936500,547.602563 l 0.000000,22.491300 M 93.936500,731.669279 l 0.000000,-3.772478 M 99.936500,343.000539 l 0.000000,1.923262 M 99.936500,572.816079 l 0.000000,-22.267850 M 99.936500,724.074140 l 0.000000,8.366985 M 105.936500,347.309062 l 0.000000,-7.166942 M 105.936500,553.422227 l 0.000000,22.116067 M 105.936500,732.519145 l 0.000000,-11.143730 M 111.936500,340.261390 l 0.000000,10.501384 M 111.936500,578.101107 l 0.000000,-21.991002 M 111.936500,717.956505 l 0.000000,14.640659 M 117.936500,356.106651 l 0.000000,-15.416535 M 117.936500,558.762066 l 0.000000,21.887649 M 117.936500,732.675183 l 0.000000,-19.260225 M 123.936500,340.834447 l 0.000000,42.831717 M 123.936500,583.198324 l 0.000000,-22.057365 M 123.936500,706.818231 l 0.000000,25.934972 M 129.936500,585.746932 l 0.000000,-244.945478 M 129.936500,683.131002 l 0.000000,49.700220 M 135.936500,732.909241 l 0.000000,-392.098247 M 141.936500,340.828518 l 0.000000,392.158743 M 147.936500,733.091649 l 0.000000,-392.346368 M 153.936500,340.385923 l 0.000000,392.896383 M 159.936500,733.472962 l 0.000000,-393.218856 M 165.936500,340.164828 l 0.000000,393.498790 M 171.936500,733.854925 l 0.000000,-393.779374 M 177.936500,339.986274 l 0.000000,394.169823 M 183.936500,734.457269 l 0.000000,-394.560272 M 189.936500,339.807719 l 0.000000,394.950721 M 195.936500,735.059612 l 0.000000,-395.486492 M 201.936500,339.299524 l 0.000000,396.211493 M 207.936500,377.065906 l 0.000000,-38.002627 M 207.936500,394.729893 l 0.000000,341.274379 M 213.936500,350.819046 l 0.000000,-11.829616 M 213.936500,549.957270 l 0.000000,29.638660 M 213.936500,736.544935 l 0.000000,-20.931234 M 219.936500,338.915581 l 0.000000,6.827035 M 219.936500,578.314073 l 0.000000,-29.840305 M 219.936500,725.994255 l 0.000000,11.239702 M 225.936500,576.915610 l 0.000000,-30.733419 M 225.936500,730.233075 l 0.000000,7.977140 M 231.936500,575.442816 l 0.000000,-31.889066 M 231.936500,733.692156 l 0.000000,5.922545 M 237.936500,573.754067 l 0.000000,-33.189509 M 243.936500,537.451444 l 0.000000,34.480545 M 249.936500,569.959782 l 0.000000,-35.755022 M 255.936500,530.821544 l 0.000000,36.848498 M 255.936500,764.591625 l 0.000000,-7.856892 M 261.936500,527.336906 l 0.000000,37.846583 M 261.936500,766.557286 l 0.000000,-13.329782 M 267.936500,316.812622 l 0.000000,6.946266 M 267.936500,562.440275 l 0.000000,-38.834898 M 267.936500,748.735069 l 0.000000,17.360146 M 273.936500,327.663325 l 0.000000,-10.226721 M 273.936500,519.806384 l 0.000000,39.414963 M 273.936500,765.718758 l 0.000000,-23.078552 M 279.936500,318.020039 l 0.000000,34.783602 M 279.936500,555.641676 l 0.000000,-40.009830 M 279.936500,731.972964 l 0.000000,33.587565 M 285.936500,561.252138 l 0.000000,-242.772972 M 285.936500,701.530680 l 0.000000,63.871621 M 291.936500,765.393194 l 0.000000,-446.779036 M 297.936500,318.817196 l 0.000000,446.613860 M 303.936500,765.468920 l 0.000000,-446.438192 M 309.936500,319.118604 l 0.000000,446.388179 M 315.936500,765.544645 l 0.000000,-446.356767 M 321.936500,319.105431 l 0.000000,446.675690 M 327.936500,766.097521 l 0.000000,-447.096465 M 333.936500,318.718117 l 0.000000,447.702982 M 339.936500,766.923106 l 0.000000,-448.513028 M 345.936500,318.006142 l 0.000000,449.418971 M 351.936500,767.988751 l 0.000000,-450.399318 M 357.936500,317.167597 l 0.000000,451.489339 M 363.936500,340.043239 l 0.000000,-23.341049 M 363.936500,489.526164 l 0.000000,20.194865 M 363.936500,769.325120 l 0.000000,-32.553823 M 369.936500,316.381280 l 0.000000,12.101673 M 369.936500,507.329745 l 0.000000,-19.039189 M 369.936500,750.807529 l 0.000000,19.290237 M 375.936500,320.754580 l 0.000000,-4.539921 M 375.936500,487.248359 l 0.000000,18.163959 M 375.936500,550.679412 l 0.000000,-20.153647 M 375.936500,758.210038 l 0.000000,12.702781 M 381.936500,414.771932 l 0.000000,-13.131997 M 381.936500,486.308404 l 0.000000,17.539060 M 381.936500,568.986610 l 0.000000,-46.844550 M 381.936500,762.386169 l 0.000000,9.299942 M 387.936500,427.787756 l 0.000000,-29.847485 M 387.936500,485.517266 l 0.000000,17.098951 M 387.936500,585.470849 l 0.000000,-69.750212 M 387.936500,766.004970 l 0.000000,4.446330 M 393.936500,438.273053 l 0.000000,-44.258908 M 393.936500,484.879063 l 0.000000,16.519214 M 393.936500,602.020614 l 0.000000,-92.039269 M 399.936500,390.314764 l 0.000000,57.344610 M 399.936500,500.356949 l 0.000000,-16.010396 M 399.936500,504.657085 l 0.000000,113.928834 M 405.936500,456.577463 l 0.000000,-69.930790 M 405.936500,484.031112 l 0.000000,15.291776 M 405.936500,632.908608 l 0.000000,-133.402662 M 411.936500,383.293980 l 0.000000,78.288848 M 411.936500,636.077904 l 0.000000,-152.362234 M 417.936500,379.941288 l 0.000000,56.029864 M 417.936500,637.486299 l 0.000000,-154.055275 M 423.936500,376.944334 l 0.000000,54.229788 M 423.936500,638.375715 l 0.000000,-154.932603 M 429.936500,373.999390 l 0.000000,53.927504 M 429.936500,637.894987 l 0.000000,-154.439788 M 435.936500,371.322481 l 0.000000,53.529086 M 435.936500,507.771902 l 0.000000,-24.304617 M 435.936500,542.377582 l 0.000000,92.160030 M 441.936500,421.937793 l 0.000000,-53.100568 M 441.936500,483.587685 l 0.000000,18.961341 M 441.936500,630.389769 l 0.000000,-64.993039 M 447.936500,366.466491 l 0.000000,52.825403 M 447.936500,497.499834 l 0.000000,-13.788572 M 447.936500,584.146788 l 0.000000,42.095138 M 453.936500,416.645995 l 0.000000,-50.659881 M 453.936500,484.093517 l 0.000000,8.532787 M 453.936500,622.175666 l 0.000000,-18.373329 M 459.936500,371.352985 l 0.000000,42.782322 M 459.936500,489.285245 l 0.000000,-4.270090 M 459.936500,602.165669 l 0.000000,15.993891 M 465.936500,412.504395 l 0.000000,-35.542200 M 465.936500,597.453299 l 0.000000,16.690156 M 471.936500,499.547002 l 0.000000,-116.975596 M 471.936500,548.879800 l 0.000000,82.397460 M 477.936500,635.457479 l 0.000000,-247.276862 M 483.936500,393.884180 l 0.000000,242.623103 M 489.936500,636.493174 l 0.000000,-236.767635 M 495.936500,405.566899 l 0.000000,229.726892 M 501.936500,632.402944 l 0.000000,-220.994686 M 507.936500,417.280519 l 0.000000,209.671382 M 513.936500,619.596884 l 0.000000,-196.165957 M 519.936500,430.316657 l 0.000000,183.276032 M 525.936500,383.266387 l 0.000000,-4.733778 M 525.936500,439.198524 l 0.000000,169.567421 M 531.936500,383.864227 l 0.000000,-9.241072 M 531.936500,471.774509 l 0.000000,67.109642 M 531.936500,603.939201 l 0.000000,-18.963688 M 537.936500,370.713699 l 0.000000,12.718427 M 537.936500,599.112458 l 0.000000,-12.596666 M 543.936500,366.804244 l 0.000000,16.472629 M 543.936500,594.285714 l 0.000000,-7.355950 M 549.936500,362.894788 l 0.000000,20.355692 M 549.936500,589.302809 l 0.000000,-2.951521 M 549.936500,602.449944 l 0.000000,7.578144 M 555.936500,383.280319 l 0.000000,-24.294986 M 555.936500,598.648870 l 0.000000,11.369261 M 561.936500,383.310158 l 0.000000,-28.191583 M 561.936500,595.044033 l 0.000000,14.966777 M 567.936500,610.003490 l 0.000000,-258.708347 M 573.936500,347.471712 l 0.000000,262.524457 M 579.936500,609.988849 l 0.000000,-266.284816 M 585.936500,339.995144 l 0.000000,269.986385 M 591.936500,609.974209 l 0.000000,-273.687955 M 597.936500,332.694241 l 0.000000,277.272647 M 603.936500,609.941932 l 0.000000,-278.913864 M 609.936500,332.691635 l 0.000000,277.179490 M 615.936500,609.800317 l 0.000000,-274.906618 M 621.936500,370.225072 l 0.000000,239.504438 M 627.936500,387.688595 l 0.000000,-20.201686 M 627.936500,508.436202 l 0.000000,101.222500 M 633.936500,400.329114 l 0.000000,-36.463974 M 633.936500,575.552523 l 0.000000,34.035373 M 633.936500,667.832088 l 0.000000,-8.475043 M 639.936500,360.414527 l 0.000000,58.841379 M 639.936500,456.306353 l 0.000000,-5.948749 M 639.936500,599.536926 l 0.000000,9.980162 M 639.936500,670.640867 l 0.000000,-19.652613 M 645.936500,357.178890 l 0.000000,82.115296 M 645.936500,456.283336 l 0.000000,-11.860554 M 645.936500,603.343512 l 0.000000,6.102769 M 645.936500,673.282717 l 0.000000,-29.163490 M 651.936500,354.726675 l 0.000000,98.304272 M 651.936500,675.807267 l 0.000000,-37.741283 M 657.936500,353.560837 l 0.000000,96.201312 M 657.936500,678.137080 l 0.000000,-45.636692 M 663.936500,354.053216 l 0.000000,92.440134 M 663.936500,680.391502 l 0.000000,-53.140439 M 669.936500,359.168644 l 0.000000,84.042395 M 669.936500,682.485472 l 0.000000,-54.764251 M 675.936500,370.009991 l 0.000000,69.785638 M 675.936500,647.065427 l 0.000000,-18.874048 M 675.936500,666.333927 l 0.000000,18.133843 M 681.936500,436.380220 l 0.000000,-53.807373 M 681.936500,585.080352 l 0.000000,3.810892 M 681.936500,643.615200 l 0.000000,-14.953663 M 681.936500,667.717329 l 0.000000,18.645704 M 687.936500,432.964811 l 0.000000,-36.984360 M 687.936500,581.088610 l 0.000000,10.111418 M 687.936500,642.101437 l 0.000000,-12.957335 M 687.936500,668.715978 l 0.000000,19.452302 M 693.936500,429.235967 l 0.000000,-18.959124 M 693.936500,576.200378 l 0.000000,16.547708 M 693.936500,640.587675 l 0.000000,-10.931213 M 693.936500,669.585316 l 0.000000,20.200800 M 699.936500,364.689556 l 0.000000,-5.058008 M 699.936500,570.324405 l 0.000000,22.674486 M 699.936500,639.096571 l 0.000000,-8.927749 M 699.936500,670.385547 l 0.000000,20.949442 M 705.936500,363.741625 l 0.000000,-9.087629 M 705.936500,555.312537 l 0.000000,37.540200 M 705.936500,637.631853 l 0.000000,-6.950672 M 705.936500,671.010522 l 0.000000,21.794792 M 711.936500,592.296238 l 0.000000,-243.022817 M 711.936500,631.278570 l 0.000000,4.888565 M 711.936500,694.227980 l 0.000000,-22.592482 M 717.936500,343.892847 l 0.000000,248.105453 M 717.936500,634.526400 l 0.000000,-2.684542 M 717.936500,672.260472 l 0.000000,23.213711 M 723.936500,591.601658 l 0.000000,-253.089385 M 723.936500,672.785168 l 0.000000,23.935219 M 729.936500,590.970709 l 0.000000,-257.839010 M 729.936500,673.147441 l 0.000000,24.642754 M 735.936500,590.569483 l 0.000000,-262.818359 M 735.936500,673.509715 l 0.000000,25.341052 M 741.936500,590.358114 l 0.000000,-267.987564 M 741.936500,673.871989 l 0.000000,25.939081 M 747.936500,590.351755 l 0.000000,-273.361780 M 747.936500,674.126512 l 0.000000,26.595880 M 753.936500,590.659621 l 0.000000,-279.050220 M 753.936500,674.255627 l 0.000000,27.256685 M 759.936500,590.867662 l 0.000000,-283.383616 M 759.936500,674.297147 l 0.000000,27.809281 M 765.936500,591.049825 l 0.000000,-285.037857 M 765.936500,674.250862 l 0.000000,28.449682 M 771.936500,380.798576 l 0.000000,-67.470333 M 771.936500,428.313522 l 0.000000,162.918465 M 771.936500,703.159552 l 0.000000,-29.057441 M 777.936500,351.578181 l 0.000000,21.456872 M 777.936500,457.897809 l 0.000000,-4.258688 M 777.936500,581.005233 l 0.000000,10.596056 M 777.936500,703.613487 l 0.000000,-29.748527 M 783.936500,347.792055 l 0.000000,25.378180 M 783.936500,459.543670 l 0.000000,-6.088587 M 783.936500,586.711934 l 0.000000,5.416138 M 783.936500,703.966063 l 0.000000,-30.457411 M 789.936500,344.017771 l 0.000000,47.997010 M 789.936500,430.413259 l 0.000000,-8.142314 M 789.936500,453.221337 l 0.000000,12.579478 M 789.936500,704.231766 l 0.000000,-31.167109 M 795.936500,340.354745 l 0.000000,69.867489 M 795.936500,430.411300 l 0.000000,-14.219131 M 795.936500,452.855700 l 0.000000,28.251340 M 795.936500,704.471811 l 0.000000,-36.976389 M 801.936500,336.761736 l 0.000000,90.498850 M 801.936500,497.541453 l 0.000000,-44.893082 M 801.936500,658.767208 l 0.000000,45.733885 M 807.936500,424.076402 l 0.000000,-90.417111 M 807.936500,452.510309 l 0.000000,62.000237 M 807.936500,704.530374 l 0.000000,-54.491381 M 813.936500,331.905872 l 0.000000,88.814929 M 813.936500,531.682326 l 0.000000,-79.276280 M 813.936500,641.387009 l 0.000000,58.222007 M 819.936500,417.344459 l 0.000000,-82.226244 M 819.936500,452.219544 l 0.000000,97.022033 M 819.936500,692.311795 l 0.000000,-59.549427 M 825.936500,343.446236 l 0.000000,70.350358 M 825.936500,566.941965 l 0.000000,-114.965629 M 825.936500,624.137727 l 0.000000,60.709106 M 831.936500,410.233522 l 0.000000,-56.286102 M 831.936500,451.873036 l 0.000000,133.416880 M 831.936500,677.195987 l 0.000000,-61.625870 M 837.936500,365.476890 l 0.000000,41.030212 M 837.936500,604.896711 l 0.000000,-153.126974 M 837.936500,607.031619 l 0.000000,62.393966 M 843.936500,402.753687 l 0.000000,-24.930134 M 843.936500,451.426763 l 0.000000,209.996819 M 849.936500,397.201053 l 0.000000,-3.205280 M 849.936500,451.081854 l 0.000000,202.246136 M 855.936500,465.919478 l 0.000000,-15.244206 M 855.936500,466.130365 l 0.000000,178.849207 M 861.936500,457.254985 l 0.000000,-6.988215 M 861.936500,487.363092 l 0.000000,149.180026 M 867.936500,454.732623 l 0.000000,-4.765131 M 867.936500,507.703525 l 0.000000,120.152010 M 873.936500,450.245859 l 0.000000,-0.571823 M 873.936500,527.480621 l 0.000000,91.587000 M 879.936500,610.050839 l 0.000000,-69.880273 M 885.936500,531.294016 l 0.000000,69.612915 M 891.936500,591.573829 l 0.000000,-69.554675 M 897.936500,512.466037 l 0.000000,69.610376 M 903.936500,572.442932 l 0.000000,-69.707464 M 909.936500,493.004900 l 0.000000,69.379924 M 915.936500,432.632831 l 0.000000,-1.283678 M 915.936500,483.044331 l 0.000000,69.130285 M 921.936500,436.474447 l 0.000000,-4.509755 M 921.936500,472.665318 l 0.000000,69.288981 M 927.936500,439.180975 l 0.000000,-7.030725 M 927.936500,456.791869 l 0.000000,74.856316 M 933.936500,440.535916 l 0.000000,-8.297123 M 933.936500,441.370116 l 0.000000,80.293958 M 939.936500,511.781525 l 0.000000,-79.269442 M 945.936500,432.854365 l 0.000000,69.069769 M 951.936500,492.066744 l 0.000000,-58.893479 M 957.936500,433.575679 l 0.000000,48.402816 M 963.936500,471.563934 l 0.000000,-37.377538 M 969.936500,434.733239 l 0.000000,25.654174 M 975.936500,448.844573 l 0.000000,-14.021479 M 981.936500,434.341775 l 0.000000,4.782472 M 1023.936500,260.936712 l 0.000000,-7.195072 M 1023.936500,461.653925 l 0.000000,20.542849 M 1023.936500,609.014210 l 0.000000,-9.035454 M 1029.936500,253.741640 l 0.000000,49.436192 M 1029.936500,515.350957 l 0.000000,-51.790588 M 1029.936500,605.686758 l 0.000000,36.272554 M 1035.936500,345.144748 l 0.000000,-91.237598 M 1035.936500,466.201833 l 0.000000,84.739158 M 1035.936500,674.904416 l 0.000000,-63.509654 M 1041.936500,254.090446 l 0.000000,132.831573 M 1041.936500,591.132113 l 0.000000,-121.956291 M 1041.936500,617.052541 l 0.000000,90.794935 M 1047.936500,428.504396 l 0.000000,-174.230654 M 1047.936500,472.276639 l 0.000000,268.401269 M 1053.936500,773.813338 l 0.000000,-519.324070 M 1059.936500,254.730548 l 0.000000,552.772202 M 1065.936500,839.377451 l 0.000000,-584.405623 M 1071.936500,255.196092 l 0.000000,568.909466 M 1077.936500,754.079659 l 0.000000,-498.723266 M 1083.936500,255.516694 l 0.000000,440.775375 M 1089.936500,707.072655 l 0.000000,-451.547997 M 1095.936500,255.504732 l 0.000000,462.049296 M 1101.936500,727.956111 l 0.000000,-472.482306 M 1107.936500,255.430927 l 0.000000,411.982688 M 1113.936500,580.984207 l 0.000000,-325.596158 M 1119.936500,255.345171 l 0.000000,336.586631 M 1125.936500,276.017088 l 0.000000,-20.714795 M 1125.936500,281.608713 l 0.000000,321.270684 M 1131.936500,305.296344 l 0.000000,-19.562688 M 1131.936500,460.708503 l 0.000000,17.763220 M 1131.936500,613.826992 l 0.000000,-67.983210 M 1137.936500,283.856772 l 0.000000,19.983988 M 1137.936500,487.274451 l 0.000000,-27.294916 M 1143.936500,281.941713 l 0.000000,20.679581 M 1143.936500,473.183025 l 0.000000,-13.973155 M 1143.936500,475.985917 l 0.000000,20.091263 M 1149.936500,301.449255 l 0.000000,-21.422601 M 1149.936500,458.303533 l 0.000000,15.206072 M 1149.936500,504.949948 l 0.000000,-22.606475 M 1155.936500,278.061061 l 0.000000,22.244358 M 1155.936500,474.303891 l 0.000000,-16.689108 M 1155.936500,488.466381 l 0.000000,25.436548 M 1161.936500,299.161584 l 0.000000,-23.097456 M 1161.936500,457.191703 l 0.000000,17.757094 M 1161.936500,522.855910 l 0.000000,-28.345914 M 1167.936500,274.067194 l 0.000000,24.567623 M 1167.936500,475.785114 l 0.000000,-18.687142 M 1167.936500,499.326868 l 0.000000,25.298857 M 1173.936500,310.041781 l 0.000000,-37.937343 M 1173.936500,457.358314 l 0.000000,19.605462 M 1173.936500,523.963070 l 0.000000,-28.056365 M 1179.936500,270.880342 l 0.000000,84.479769 M 1179.936500,478.142439 l 0.000000,-20.428657 M 1179.936500,488.696671 l 0.000000,34.307871 M 1185.936500,521.785842 l 0.000000,-249.526593 M 1191.936500,278.643762 l 0.000000,241.595172 M 1197.936500,518.518687 l 0.000000,-233.490413 M 1203.936500,291.527179 l 0.000000,225.071914 M 1209.936500,514.436811 l 0.000000,-216.359651 M 1215.936500,304.651514 l 0.000000,207.500793 M 1221.936500,509.501026 l 0.000000,-198.181353 M 1227.936500,317.987832 l 0.000000,188.478821 M 1233.936500,502.933466 l 0.000000,-178.277474 M 1239.936500,331.324150 l 0.000000,167.415826 M 1245.936500,493.650678 l 0.000000,-155.571888 M 1251.936500,345.046775 l 0.000000,115.671994 M 1251.936500,494.864145 l 0.000000,-14.376685 M 1257.936500,353.959422 l 0.000000,43.292653 M 1257.936500,496.459593 l 0.000000,-14.116241 M 1263.936500,484.120718 l 0.000000,14.257304 M 1269.936500,500.598122 l 0.000000,-15.147208 M 1275.936500,481.020948 l 0.000000,143.428477 M 1281.936500,632.481497 l 0.000000,-163.918209 M 1287.936500,462.939612 l 0.000000,175.242173 M 1293.936500,643.259842 l 0.000000,-183.912562 M 1299.936500,455.897825 l 0.000000,192.046098 M 1305.936500,652.576837 l 0.000000,-200.126767 M 1311.936500,449.176524 l 0.000000,207.846598 M 1317.936500,661.441523 l 0.000000,-215.538545 M 1323.936500,442.720961 l 0.000000,223.006528 M 1329.936500,670.013455 l 0.000000,-230.260012 M 1335.936500,436.785924 l 0.000000,29.596584 M 1335.936500,500.340325 l 0.000000,-16.271074 M 1335.936500,622.824977 l 0.000000,51.474444 M 1341.936500,462.346644 l 0.000000,-28.370234 M 1341.936500,481.606349 l 0.000000,16.421454 M 1341.936500,678.349604 l 0.000000,-26.652180 M 1347.936500,431.335067 l 0.000000,27.220013 M 1347.936500,495.665014 l 0.000000,-16.355194 M 1347.936500,657.518045 l 0.000000,22.894263 M 1353.936500,454.829294 l 0.000000,-25.925212 M 1353.936500,475.855131 l 0.000000,17.340720 M 1353.936500,680.923200 l 0.000000,-19.606660 M 1359.936500,426.744078 l 0.000000,24.449059 M 1359.936500,492.001659 l 0.000000,-20.718056 M 1359.936500,659.800510 l 0.000000,21.083508 M 1365.936500,447.556981 l 0.000000,-22.421460 M 1365.936500,465.305996 l 0.000000,26.403327 M 1365.936500,680.435859 l 0.000000,-23.099626 M 1371.936500,424.690499 l 0.000000,19.230326 M 1371.936500,491.612843 l 0.000000,-37.354288 M 1371.936500,654.385920 l 0.000000,24.764103 M 1377.936500,502.858697 l 0.000000,-76.359596 M 1377.936500,650.162103 l 0.000000,27.052561 M 1383.936500,550.613595 l 0.000000,-120.984260 M 1383.936500,615.043189 l 0.000000,59.714059 M 1389.936500,672.299831 l 0.000000,-239.472409 M 1395.936500,436.551883 l 0.000000,233.106385 M 1401.936500,667.014853 l 0.000000,-226.607286 M 1407.936500,444.690005 l 0.000000,219.427147 M 1413.936500,661.196841 l 0.000000,-211.997876 M 1419.936500,453.991053 l 0.000000,203.717927 M 1425.936500,412.284173 l 0.000000,-9.112019 M 1425.936500,459.410790 l 0.000000,193.939559 M 1431.936500,412.309739 l 0.000000,-12.414261 M 1431.936500,466.931564 l 0.000000,180.918070 M 1437.936500,412.335304 l 0.000000,-15.721364 M 1437.936500,484.544727 l 0.000000,156.074564 M 1443.936500,412.360869 l 0.000000,-19.494032 M 1443.936500,526.913699 l 0.000000,98.170043 M 1449.936500,412.386434 l 0.000000,-23.266700 M 1455.936500,385.070374 l 0.000000,27.341625 M 1461.936500,412.437565 l 0.000000,-31.546296 M 1467.936500,376.530313 l 0.000000,35.932817 M 1473.936500,425.725634 l 0.000000,-53.758884 M 1473.936500,552.211977 l 0.000000,129.218002 M 1479.936500,687.411164 l 0.000000,-320.176552 M 1485.936500,362.148655 l 0.000000,329.036687 M 1491.936500,694.311363 l 0.000000,-337.421673 M 1497.936500,351.236173 l 0.000000,346.123581 M 1503.936500,700.354824 l 0.000000,-355.014863 M 1509.936500,339.062742 l 0.000000,364.123306 M 1515.936500,706.017272 l 0.000000,-373.634312 M 1521.936500,325.411070 l 0.000000,383.348380 M 1527.936500,711.457700 l 0.000000,-392.877565 M 1533.936500,315.365235 l 0.000000,268.447656 M 1533.936500,714.155950 l 0.000000,-17.085712 M 1539.936500,388.600341 l 0.000000,25.335604 M 1539.936500,716.854200 l 0.000000,-14.714051 M 1545.936500,388.646715 l 0.000000,24.995539 M 1545.936500,719.552451 l 0.000000,-12.931783 M 1551.936500,388.693090 l 0.000000,24.861545 M 1551.936500,722.170450 l 0.000000,-11.481574 M 1557.936500,388.750364 l 0.000000,24.716651 M 1557.936500,445.263221 l 0.000000,-7.435600 M 1557.936500,714.491263 l 0.000000,5.708012 M 1563.936500,413.379395 l 0.000000,-24.563007 M 1563.936500,431.930403 l 0.000000,14.511093 M 1569.936500,413.291776 l 0.000000,-24.409364 M 1569.936500,426.240257 l 0.000000,20.457463 M 1575.936500,446.754574 l 0.000000,-26.494712 M 1581.936500,414.114538 l 0.000000,32.523560 M 1587.936500,699.732614 l 0.000000,-292.213920 M 1593.936500,400.783830 l 0.000000,305.487619 M 1599.936500,709.989488 l 0.000000,-316.698445 M 1605.936500,385.589337 l 0.000000,327.694135 M 1611.936500,716.111722 l 0.000000,-338.642692 M 1617.936500,368.472855 l 0.000000,350.467119 M 1623.936500,721.398215 l 0.000000,-362.568946 M 1629.936500,348.554077 l 0.000000,375.242495 M 1635.936500,726.081193 l 0.000000,-387.059642 M 1641.936500,338.102782 l 0.000000,390.180619 M 1647.936500,730.447386 l 0.000000,-304.926063 M 1653.936500,425.495543 l 0.000000,21.630273 M 1653.936500,732.510312 l 0.000000,-21.204486 M 1659.936500,425.322957 l 0.000000,21.417373 M 1659.936500,734.573239 l 0.000000,-20.395892 M 1665.936500,425.440840 l 0.000000,20.914004 M 1665.936500,736.534191 l 0.000000,-19.485325 M 1671.936500,425.098567 l 0.000000,20.923447 M 1671.936500,738.463217 l 0.000000,-18.542831 M 1677.936500,424.897580 l 0.000000,20.870844 M 1677.936500,701.325028 l 0.000000,-4.609288 M 1677.936500,722.791906 l 0.000000,17.563816 M 1683.936500,445.514833 l 0.000000,-20.677832 M 1683.936500,600.058225 l 0.000000,10.387110 M 1683.936500,702.451831 l 0.000000,-5.960744 M 1683.936500,725.663426 l 0.000000,16.461794 M 1689.936500,445.261242 l 0.000000,-20.484821 M 1689.936500,463.394000 l 0.000000,153.042671 M 1689.936500,703.535842 l 0.000000,-6.833278 M 1689.936500,728.528818 l 0.000000,15.365898 M 1695.936500,622.365249 l 0.000000,-167.891845 M 1695.936500,696.965483 l 0.000000,7.647770 M 1695.936500,745.664213 l 0.000000,-14.361000 M 1701.936500,450.205145 l 0.000000,177.727592 M 1701.936500,705.690663 l 0.000000,-8.415037 M 1701.936500,729.877884 l 0.000000,17.555826 M 1707.936500,633.440044 l 0.000000,-187.517492 M 1707.936500,697.598891 l 0.000000,9.220681 M 1707.936500,749.140955 l 0.000000,-23.424001 M 1713.936500,441.531248 l 0.000000,197.228516 M 1713.936500,708.008464 l 0.000000,-10.086308 M 1713.936500,721.180504 l 0.000000,27.625105 M 1719.936500,643.933808 l 0.000000,-206.793865 M 1719.936500,698.245421 l 0.000000,11.218747 M 1719.936500,744.403736 l 0.000000,-27.894674 M 1725.936500,432.759278 l 0.000000,215.995916 M 1725.936500,737.771603 l 0.000000,-39.202916 M 1731.936500,428.392766 l 0.000000,225.058304 M 1731.936500,731.674707 l 0.000000,-32.782756 M 1737.936500,424.026255 l 0.000000,233.679678 M 1737.936500,725.930454 l 0.000000,-26.715238 M 1743.936500,419.659744 l 0.000000,241.932847 M 1743.936500,720.219959 l 0.000000,-20.681478 M 1749.936500,415.293232 l 0.000000,46.346392 M 1749.936500,516.996606 l 0.000000,-16.711590 M 1749.936500,615.830372 l 0.000000,47.807322 M 1749.936500,714.684979 l 0.000000,-14.823233 M 1755.936500,411.066400 l 0.000000,20.146549 M 1755.936500,517.315291 l 0.000000,-16.479428 M 1755.936500,633.919383 l 0.000000,30.515219 M 1755.936500,709.520015 l 0.000000,-9.240798 M 1761.936500,410.194059 l 0.000000,17.996087 M 1761.936500,517.981686 l 0.000000,-16.594976 M 1761.936500,641.891207 l 0.000000,22.976329 M 1767.936500,433.293029 l 0.000000,-23.230795 M 1767.936500,501.872839 l 0.000000,17.064484 M 1767.936500,665.191333 l 0.000000,-17.757006 M 1773.936500,411.285551 l 0.000000,35.808884 M 1773.936500,520.221988 l 0.000000,-17.868371 M 1773.936500,651.421791 l 0.000000,13.705822 M 1779.936500,460.895841 l 0.000000,-47.438496 M 1779.936500,502.922171 l 0.000000,18.584481 M 1779.936500,664.609303 l 0.000000,-14.699288 M 1785.936500,416.027377 l 0.000000,58.685057 M 1785.936500,522.810298 l 0.000000,-19.219860 M 1785.936500,637.246804 l 0.000000,25.014301 M 1791.936500,488.299055 l 0.000000,-69.562652 M 1791.936500,504.094497 l 0.000000,20.102274 M 1791.936500,655.544781 l 0.000000,-34.994376 M 1797.936500,421.493297 l 0.000000,104.089949 M 1797.936500,648.099845 l 0.000000,-48.304674 M 1803.936500,424.297500 l 0.000000,102.672219 M 1803.936500,640.985259 l 0.000000,-59.206369 M 1809.936500,427.243134 l 0.000000,101.113079 M 1809.936500,633.986758 l 0.000000,-47.979092 M 1815.936500,430.201236 l 0.000000,99.538531 M 1815.936500,626.981767 l 0.000000,-33.207730 M 1821.936500,433.318097 l 0.000000,97.805093 M 1821.936500,619.938696 l 0.000000,-17.453080 M 1827.936500,437.353645 l 0.000000,94.888194 M 1827.936500,611.504951 l 0.000000,-0.512152 M 1833.936500,451.646946 l 0.000000,76.864115 M 1833.936500,685.200584 l 0.000000,-7.837158 M 1839.936500,466.135368 l 0.000000,55.543311 M 1839.936500,684.939572 l 0.000000,-10.067990 M 1845.936500,442.191454 l 0.000000,5.391258 M 1845.936500,513.219366 l 0.000000,-32.607021 M 1845.936500,670.968060 l 0.000000,14.088314 M 1851.936500,447.386895 l 0.000000,-12.532311 M 1851.936500,495.064226 l 0.000000,8.260665 M 1851.936500,685.511950 l 0.000000,-20.237754 M 1857.936500,430.009012 l 0.000000,17.097163 M 1857.936500,686.313365 l 0.000000,-28.314658 M 1863.936500,425.280044 l 0.000000,117.831074 M 1863.936500,687.364011 l 0.000000,-51.819770 M 1869.936500,420.551075 l 0.000000,268.010676 M 1875.936500,690.013839 l 0.000000,-274.191732 M 1881.936500,411.093138 l 0.000000,280.420459 M 1887.936500,693.088098 l 0.000000,-286.747823 M 1893.936500,401.575995 l 0.000000,293.086604 M 1899.936500,696.174380 l 0.000000,-299.362665 M 1905.936500,392.047435 l 0.000000,305.468226 M 1911.936500,698.856941 l 0.000000,-311.573786 M 1917.936500,384.290023 l 0.000000,315.885608 M 1923.936500,701.319181 l 0.000000,-297.872239 M 1929.936500,413.605820 l 0.000000,25.847532 M 1929.936500,702.284155 l 0.000000,-100.271967 M 1935.936500,410.354711 l 0.000000,25.454368 M 1935.936500,703.084316 l 0.000000,-29.093307 M 1941.936500,407.103602 l 0.000000,41.594110 M 1941.936500,508.670729 l 0.000000,-1.446018 M 1941.936500,680.407941 l 0.000000,23.174532 M 1947.936500,466.090225 l 0.000000,-62.294781 M 1947.936500,499.591647 l 0.000000,13.264418 M 1947.936500,703.957638 l 0.000000,-19.559673 M 1953.936500,400.470436 l 0.000000,83.018600 M 1953.936500,508.623884 l 0.000000,-16.423691 M 1953.936500,687.300667 l 0.000000,16.802141 M 1959.936500,504.391704 l 0.000000,-107.246276 M 1959.936500,689.672816 l 0.000000,14.882826 M 1965.936500,500.159523 l 0.000000,-106.800843 M 1965.936500,691.648220 l 0.000000,13.036741 M 1971.936500,495.917296 l 0.000000,-103.648956 M 1971.936500,693.313269 l 0.000000,11.433327 M 1977.936500,491.582980 l 0.000000,-93.902286 M 1977.936500,694.699501 l 0.000000,10.091115 M 1983.936500,487.248664 l 0.000000,-81.101747 M 1983.936500,696.020864 l 0.000000,8.793701 M 1989.936500,482.914347 l 0.000000,-67.731284 M 1989.936500,696.843325 l 0.000000,7.905769 M 1995.936500,478.562461 l 0.000000,-53.656526 M 1995.936500,697.637455 l 0.000000,7.046169 M 2001.936500,473.939244 l 0.000000,-39.089048 M 2007.936500,446.320964 l 0.000000,22.429528"
           style="stroke:#000000;stroke-width:4;fill:none;stroke-miterlimit:4;stroke-dasharray:none" />
      </g>
      <g
         id="g5328"
         style="fill:none;stroke-width:4;stroke-miterlimit:4;stroke-dasharray:none">
        <path
           inkscape:connector-curvature="0"
           style="fill:none;fill-opacity:1;stroke:#000000;stroke-opacity:1;stroke-width:4;stroke-miterlimit:4;stroke-dasharray:none"
           d="m 2758.3653,240.00063 c -1.4163,0 -1.9698,1.42237 -1.2343,3.16082 1.7631,4.16712 -4.6813,4.16712 -8.4942,0 -3.6665,-4.00703 -8.0284,-4.0445 -12.4148,-0.0657 -2.8039,2.54321 -9.2294,2.92934 -34.9935,2.17306 -17.3677,-0.50982 -31.5811,-0.12854 -31.5811,0.85605 0,0.98458 -1.3068,1.76593 -2.9041,1.71212 -9.9861,-0.33638 -12.5189,0.79264 -12.3421,5.33388 0.158,4.07893 -1.1007,4.79359 -8.8573,5.07048 -4.9589,0.17701 -9.6634,1.12342 -10.4544,2.17307 -0.7914,1.04964 -7.7247,3.23779 -15.3914,4.80708 -13.9709,2.85972 -24.3938,8.86165 -24.3938,14.09199 0,1.53643 -1.5681,2.83156 -3.4848,2.83156 -1.9166,0 -3.4848,1.36877 -3.4848,3.02912 0,1.66036 -2.091,3.61046 -4.6465,4.34613 -2.5556,0.73569 -4.6465,2.63219 -4.6465,4.21443 0,1.58226 -2.0909,3.47876 -4.6464,4.21443 -2.5555,0.73569 -4.6464,2.2803 -4.6464,3.49007 0,1.20977 -3.9405,6.60858 -8.7848,11.98478 -4.8444,5.37618 -10.0809,12.18233 -11.6161,15.07975 -1.5352,2.89742 -3.7734,6.6904 -4.9368,8.42885 -1.1635,1.73846 -3.1554,6.95381 -4.4286,11.58968 -1.2733,4.63587 -4.6009,15.36875 -7.4052,23.9037 -4.1382,12.59353 -5.0909,20.93327 -5.1548,44.25148 -0.044,15.80339 1.0782,32.56964 2.4684,37.20549 1.3905,4.63589 2.7842,16.01485 3.122,25.28656 0.1998,5.46976 0.4126,9.1293 0.8712,11.98478 -11.234,8.95326 -7.9259,22.35762 -7.1876,24.69391 7.477,21.43101 21.217,88.82358 45.8835,89.22732 1.8784,3.83504 2.1782,8.42474 2.1782,10.00926 0.757,9.1495 5.0385,18.22976 4.8642,27.39378 -7.8496,12.54883 -16.8868,33.30855 -26.6445,43.92223 -2.1208,0.76782 -5.851,1.18158 -12.1968,1.77796 -12.1825,1.14493 -14.3808,2.75135 -21.4171,15.73825 -3.0284,5.58919 -6.5302,8.49005 -12.7052,10.33852 -4.7009,1.40717 -11.8195,5.24061 -15.827,8.56055 -4.0074,3.31989 -8.191,6.05826 -9.2201,6.05824 -1.0295,-2e-5 -6.4786,4.69049 -12.1244,10.40437 -6.8403,6.92261 -14.3023,11.80349 -22.3611,14.68464 -15.5997,5.57712 -28.9401,13.27154 -34.8483,20.08438 -2.5792,2.97399 -5.5128,5.39575 -6.6066,5.39973 -1.094,0.004 -8.9961,5.45642 -17.4968,12.11648 -9.584,7.50882 -26.6132,17.28494 -44.7944,25.74751 -37.6555,17.52662 -46.087,24.80635 -47.4809,47.41231 l 436.9106,0 c -0.3927,-0.51947 -0.7672,-1.06463 -1.1616,-1.58041 -8.8882,-11.61829 -10.3296,-17.76067 -2.8315,-12.11648 2.2079,1.66204 3.5575,1.85827 3.5575,0.46095 0,-1.23249 -1.0248,-2.89381 -2.3233,-3.62177 -1.2986,-0.72798 -1.8078,-2.17172 -1.089,-3.22667 0.7187,-1.05496 0.1463,-3.84809 -1.2342,-6.18994 -1.5321,-2.59649 -1.9694,-3.9238 -0.8712,-4.01688 1.098,-0.0931 3.7866,1.10307 8.5669,3.42422 4.0892,1.98569 10.8571,4.74115 15.1009,6.12409 6.4628,2.10618 7.5117,2.02183 6.4614,-0.46095 -0.6898,-1.63025 -0.2208,-2.96325 1.0164,-2.96327 1.2375,-2e-5 2.2507,1.65701 2.2507,3.68762 0,1.72642 2.3827,10.44803 5.5176,20.47949 l 182.9537,0 c -3.4145,-15.60325 -9.8134,-30.59455 -15.7545,-36.28359 -1.5064,-1.44249 -4.6351,-4.76131 -6.9697,-7.37524 -2.3345,-2.61396 -10.0337,-8.94546 -17.0609,-14.09199 -7.0277,-5.14656 -16.4369,-13.38241 -20.9091,-18.30642 -4.4722,-4.92401 -9.459,-9.01694 -11.108,-9.08736 -9.4898,-3.70467 -23.1959,-10.41471 -26.1362,-20.28193 -7.3772,-19.65214 -17.1433,-38.42554 -27.8059,-56.76306 -2.5825,-1.44759 -3.112,-9.42841 -0.944,-14.55294 27.329,-19.09241 18.1378,-71.31516 36.8811,-90.61018 2.4827,2.99692 15.6653,-26.78783 25.9911,-54.8534 11.4669,-31.16683 26.2428,-43.71844 6.1711,-42.40767 -3.0048,0.68406 -5.3724,0.27307 -5.3724,-0.92191 0,-1.18103 0.91,-2.10719 2.0328,-2.10721 4.4877,2e-5 13.1539,-27.3824 15.3187,-48.40006 0.7548,-7.32796 1.8225,-13.94994 2.3232,-14.68465 0.5006,-0.73465 1.2264,-8.74936 1.5972,-17.77961 0.3708,-9.03025 1.4339,-16.84521 2.396,-17.38451 2.512,-1.40823 -0.4789,-13.91654 -4.2836,-17.91131 -1.7722,-1.86059 -2.5488,-4.94239 -1.7424,-6.84845 0.8064,-1.90606 0.3942,-3.42422 -0.8712,-3.42422 -2.876,0 -5.8327,-7.82406 -5.5177,-14.55294 0.13,-2.7951 -1.4716,-6.2552 -3.5573,-7.63865 -2.3664,-1.56941 -3.2281,-3.87966 -2.2508,-6.18994 1.1881,-2.80826 2.3028,-3.1471 4.6464,-1.38286 6.6175,4.98141 5.4787,-0.63189 -2.1052,-10.20682 -9.1979,-11.61241 -9.7573,-13.50296 -3.3397,-11.65552 2.5556,0.73567 4.6465,0.36874 4.6465,-0.7902 0,-1.15897 -1.9912,-2.6567 -4.4288,-3.35838 -2.4375,-0.7017 -5.0186,-2.65181 -5.7353,-4.34613 -0.717,-1.69435 -2.9076,-3.09497 -4.8644,-3.09497 -1.9566,0 -3.5572,-1.29971 -3.5572,-2.83157 0,-3.0428 -17.6017,-10.73859 -29.6211,-12.97253 -4.1528,-0.77181 -7.5506,-2.6262 -7.5506,-4.14858 0,-1.52236 -1.568,-3.34978 -3.4848,-4.01688 -4.5839,-1.59543 -4.4779,-5.53143 0.1441,-5.53143 1.9919,0 2.9494,-1.00025 2.1053,-2.23892 -0.844,-1.23864 -6.6209,-2.01199 -12.8502,-1.71211 -6.2295,0.2999 -12.0413,-0.12222 -12.9229,-0.9219 -0.8816,-0.79969 -0.332,-1.44871 1.2341,-1.44871 1.5661,0 2.1251,-1.06328 1.2344,-2.37062 -1.0709,-1.57141 -6.214,-1.96196 -15.101,-1.11945 -9.5789,0.90808 -13.7563,0.52497 -14.5201,-1.31701 -0.6104,-1.47105 -2.0718,-0.29796 -3.4124,2.69986 -1.9104,4.27267 -2.6171,4.5944 -3.8477,1.84382 -2.3427,-5.23554 -0.4012,-13.46476 4.1381,-17.58207 2.2577,-2.04768 3.5035,-4.32918 2.7588,-5.00463 -0.7445,-0.67544 -3.9861,1.34649 -7.1873,4.47783 -6.7002,6.55398 -8.4164,7.13686 -6.3164,2.17306 0.9976,-2.35772 0.5934,-2.99997 -1.234,-1.97551 -1.6867,0.94538 -2.7859,0.12622 -2.8316,-2.23891 -0.09,-4.61665 -5.2337,-11.19457 -8.7846,-11.19457 z m -76.3759,54.1949 c 4.0717,0.002 53.0664,11.67752 44.1412,12.70913 -6.583,0.76087 -39.4947,-10.05735 -44.2864,-10.07512 -5.5533,-0.0211 -7.6096,-0.65818 -5.6628,-1.77796 1.0605,-0.60999 3.365,-0.85713 5.808,-0.85605 z m -21.4172,17.71376 c 0.807,-0.0301 1.7024,0.0908 2.5411,0.3951 1.8533,0.67268 1.327,1.15004 -1.3795,1.25117 -2.4492,0.0915 -49.0514,3.20252 -48.2794,2.50232 0.3859,-0.35012 46.3107,-4.11844 47.1178,-4.14859 z m 41.8179,21.07214 c 0.807,-0.0301 31.2782,3.51968 32.1622,3.68763 0.5595,0.1062 0.7767,0.20967 0.8712,0.2634 -1.7085,0.28814 -27.9562,-2.19275 -31.8718,-2.30477 -2.4498,-0.0702 -3.8212,-0.41925 -3.0492,-1.11945 0.3861,-0.35012 1.0806,-0.49665 1.8876,-0.52681 z m 38.0427,38.9176 c 1.5285,-0.006 2.4361,0.0278 2.5412,0.0657 1.8532,0.67268 -50.6551,2.59874 -53.3616,2.69987 -2.4491,0.0915 -3.8212,-0.41926 -3.0492,-1.11946 0.3861,-0.35012 1.0805,-0.49665 1.8876,-0.52681 0.7062,-0.0263 41.2836,-1.06827 51.982,-1.11945 z m -87.1932,30.35705 c 10.9989,4.37442 44.5041,2.79205 44.5041,3.95102 0,1.15897 -37.6882,3.16622 -43.0521,0.2634 -0.484,-0.26186 -1.6787,-0.94824 -2.4684,-2.10721 -0.7899,-1.15897 -0.3369,-2.10721 1.0164,-2.10721 z m -20.2557,5.46558 c 0.6865,-0.0301 1.0164,0.60056 1.0164,1.90966 0,2.13954 -2.3975,3.16082 -7.6956,3.16082 -4.2592,0 -7.7682,-1.07647 -7.7682,-2.37061 0,-1.38617 2.0737,-1.83298 5.0821,-1.11946 2.8083,0.66616 6.3172,0.30186 7.7681,-0.7902 0.6626,-0.4987 1.1853,-0.77215 1.5972,-0.79021 z m 90.6783,5.07048 c 1.2777,0 0.9453,1.46574 -0.726,3.29253 -2.516,2.74955 -2.4931,3.61675 0.2184,5.13633 7.8597,4.40593 -22.6682,21.07215 -38.6236,21.07213 -3.0807,2e-5 -5.5904,1.01684 -5.5904,2.30477 0,2.58258 14.0764,0.92909 20.6187,-2.43647 2.0788,-1.06937 10.8524,-4.30409 19.5296,-7.17769 15.5185,-5.13922 16.764,-4.62211 8.8573,3.88517 -3.5059,3.77227 -3.4587,3.90825 1.1617,1.71211 2.6907,-1.27895 7.8624,-5.70669 11.4709,-9.81171 6.1179,-6.95992 15.0282,-10.11172 15.0282,-5.33389 0,1.15899 -1.0455,2.10722 -2.3232,2.10722 -1.2778,2e-5 -2.3232,0.94824 -2.3232,2.10721 0,1.15899 0.9656,2.10724 2.1054,2.10722 3.4865,2e-5 20.8537,-13.52566 20.9815,-16.33091 0.1765,-3.859 7.1148,-3.21664 7.1148,0.65851 0,1.80685 1.0455,2.69179 2.3232,1.97551 9.3743,13.179 -34.1666,35.86833 -46.3916,39.37855 18.6429,3.02332 45.7057,-18.80397 53.3614,-35.55923 0,-1.53641 1.7667,-2.76572 3.9204,-2.76572 31.1516,11.80474 33.8732,50.41424 30.9279,74.87193 0,7.50086 -9.2781,13.03211 -27.8787,16.72601 -22.148,4.39841 -41.1083,12.78421 -45.1575,19.88683 -1.7197,3.01645 -5.3723,7.27734 -8.0586,9.48246 -2.6866,2.20509 -4.8644,5.39103 -4.8644,7.11184 0,1.72084 2.9621,5.87913 0.726,7.4411 l -26.2815,1.38286 c -4.4431,-0.11105 -6.9299,-2.24566 -10.5996,-9.02151 -7.1016,-13.11264 -21.8766,-20.20803 -37.8248,-20.15023 -9.5691,0.0348 -19.5629,2.6359 -28.5322,8.0996 -10.0196,6.10365 -20.5974,19.36894 -20.6185,25.87922 -0.023,3.57272 -1.756,3.07729 -10.5998,2.37062 -6.1172,-14.26517 -15.867,-26.63339 -25.2649,-39.51026 -6.4106,-7.33826 -7.1149,-9.56485 -7.1149,-23.17935 0,-18.54946 7.0268,-40.652 14.3025,-44.97583 l 5.1544,-3.02912 -4.9368,-4.41198 c -3.1917,-2.89478 -3.9674,-4.79286 -2.178,-5.33388 1.5173,-0.45874 2.7588,-2.15193 2.7588,-3.75348 0,-3.91063 13.6603,-17.77961 17.4969,-17.77961 1.6776,0 3.4072,-0.97415 3.8477,-2.17307 1.0868,-2.95726 34.4126,-4.99778 34.4126,-2.10721 0,1.20202 2.3089,2.17306 5.1548,2.17306 5.1544,0 5.1755,-0.019 -0.726,5.33389 -4.7951,4.34914 -8.423,5.45404 -19.094,5.79484 -20.1763,0.64436 -17.2423,4.19169 5.5903,6.71674 9.6567,1.06796 13.634,0.63937 17.2063,-1.90966 4.4238,-3.15682 4.339,-3.20322 -1.8876,-1.18531 -3.5971,1.16575 -8.8244,2.02676 -11.6162,1.97551 -4.1232,-0.0756 -3.4898,-0.80913 3.3396,-4.08272 9.8994,-4.74496 20.6186,-6.87348 20.6186,-4.08273 0,1.08224 -1.0454,1.97551 -2.3232,1.97551 -1.2777,2e-5 -2.3232,0.85325 -2.3232,1.90966 0,2.41786 4.2945,1.81653 11.108,-1.58041 2.9012,-1.44656 6.4646,-1.99747 7.9133,-1.1853 1.615,0.9053 1.9602,0.56956 0.944,-0.92191 -1.4652,-2.15014 8.4042,-3.81878 15.6818,-2.63402 1.0925,0.17785 3.1834,-0.5146 4.6464,-1.58041 1.4627,-1.06576 6.0268,-2.63642 10.0913,-3.42422 4.0645,-0.78782 8.6417,-2.74802 10.1642,-4.41198 1.5225,-1.66394 3.8042,-3.02912 5.082,-3.02912 z m -186.148,82.44473 c 1.0617,4.18111 -0.1069,4.48426 4.5738,9.02151 6.1082,5.92038 9.3362,11.5317 11.3984,20.01853 4.9958,20.56221 16.4318,37.13485 15.8993,23.04764 -0.4132,-10.93789 1.4684,-21.11111 4.211,-20.28193 12.9351,11.68438 18.7624,24.01665 26.2813,38.58835 -5.1873,0.14582 1.3059,4.10607 7.841,4.80708 4.5432,0.48738 7.509,2.87622 10.8175,8.75811 5.9568,10.5906 19.5569,20.58423 31.2908,22.98179 5.1675,1.05591 10.1398,1.9831 11.0353,2.10722 5.4079,0.74962 25.8311,-4.95229 31.073,-8.69226 9.2341,-6.58818 19.2967,-22.02622 17.7873,-27.26207 -0.8851,-3.07002 0.4089,-5.59537 4.2833,-8.29716 8.5255,-0.77874 16.9339,-2.73206 22.9418,0.0657 5.1371,3.64653 5.8189,6.0178 6.9696,23.70615 1.3338,20.50306 6.5883,32.70351 13.1409,30.4229 2.5744,-0.89608 7.8408,4.34667 7.8408,7.8362 0,2.46067 -7.9563,3.40072 -9.5107,1.11945 -2.3109,-3.39128 -7.8039,0.67155 -15.1734,11.26043 -4.0666,5.84264 -6.5558,7.5485 -9.5834,6.51919 -9.2694,-2.68615 -16.8028,-10.03234 -26.1361,-11.12872 -2.7066,2e-5 -4.2748,0.94826 -3.4849,2.10721 0.7897,1.15899 2.3579,2.10723 3.4849,2.10721 7.3506,-3.12826 18.0911,5.56113 25.1923,8.95566 2.391,1.14028 5.8858,3.37521 9.2928,3.29252 3.407,-0.0826 8.3508,0.51058 11.0353,1.31701 3.1447,0.94466 6.2056,0.29806 8.5669,-1.84381 2.0159,-1.82843 4.802,-3.2925 6.1711,-3.29252 1.3689,2e-5 2.4684,-1.54387 2.4684,-3.42423 0,-2.59041 0.7289,-2.8661 3.0493,-1.11945 2.2566,1.69875 4.3779,1.4823 8.0585,-0.85606 3.9907,-2.53519 4.7483,-4.52985 3.6301,-9.94341 -0.7697,-3.72678 -3.4732,-8.8409 -5.9533,-11.32627 -12.2253,-19.64218 -27.9109,-26.27925 9.0025,-15.2773 9.6005,2.01003 13.8259,1.83085 25.3378,-1.18531 7.5938,-1.98967 15.885,-5.18754 18.4405,-7.11184 4.6144,-3.47459 4.6435,-3.48797 0.2184,1.25115 -2.4513,2.62462 -4.7647,6.89169 -5.0821,9.48246 -0.3175,2.5908 -0.7397,4.74126 -0.9438,4.74123 -0.2046,3e-5 -0.7333,1.65695 -1.1616,3.68763 -1.0321,4.89154 -10.2991,22.20674 -12.3422,23.04765 -0.8838,0.36383 -3.6881,4.28615 -6.2436,8.7581 -12.341,21.59561 -10.4032,20.03121 -24.3939,19.88683 -7.0277,-0.0725 -18.0049,0.94645 -24.3937,2.23891 -6.389,1.29248 -16.5416,2.92526 -22.5787,3.68763 -7.7531,2.43617 -14.0653,1.94358 -22.0706,0.59265 -2.3005,-0.60266 -5.2691,-0.91398 -8.4944,-0.92191 -3.2254,-0.008 -6.7072,0.26733 -10.0914,0.85606 -6.6856,1.16303 -8.7374,2.03066 -5.0821,2.17306 3.3272,0.1296 9.0353,2.70524 12.6326,5.72899 5.4523,4.58332 8.0274,5.34318 15.6817,4.41198 5.0495,-0.61432 18.0144,-0.11442 19.457,-1.51456 2.0932,-0.28703 5.3429,0.0348 7.7681,0.0657 12.7413,2e-5 13.7914,1.25584 7.1876,8.69226 -3.5123,3.95499 -8.1555,5.49195 -22.6514,7.37525 l -18.2229,2.37061 17.4242,0.46095 c 9.5833,0.26046 23.1299,1.0892 30.0567,1.84382 11.3027,1.2313 12.6462,1.92304 13.0681,6.65089 0.2585,2.8974 -0.6552,7.16455 -1.9601,9.48246 -3.6061,6.40483 -20.5905,22.02207 -27.661,25.41826 -7.4815,3.5936 -39.4599,4.0893 -46.3917,0.72436 -7.7037,-3.73963 -8.3166,0.16331 -0.7987,5.07048 3.831,2.50054 9.2541,6.58995 12.0517,9.08736 2.7976,2.49738 5.6803,4.001 6.3888,3.35837 0.7086,-0.64264 3.1285,0.31774 5.3726,2.10721 2.2439,1.78947 8.6532,5.35801 14.2296,7.90205 5.5765,2.54402 10.597,6.27343 11.1805,8.29715 0.5834,2.02371 4.3593,4.7736 8.4216,6.12409 4.0625,1.35045 11.0645,4.5476 15.5366,7.11185 4.4722,2.56422 8.8041,4.68615 9.6561,4.74123 3.5798,0.23152 4.7279,3.29254 1.234,3.29252 -3.2448,-2e-5 -3.4325,0.81311 -1.1616,5.33388 2.0268,4.03445 2.058,5.90387 0,7.77035 -3.8215,3.46618 -10.4103,-4.52328 -6.8969,-8.363 2.8292,-3.09229 -0.8073,-3.61406 -4.1384,-0.59265 -1.4732,1.33618 -4.9796,0.54069 -10.0188,-2.23892 -4.2643,-2.35211 -7.1173,-4.87093 -6.3162,-5.59728 1.7912,-1.62471 -10.1123,-13.17007 -13.5764,-13.17009 -4.1326,-2e-5 -19.7586,30.21544 -21.3447,41.28822 -2.5829,18.03182 -3.5036,17.81543 -22.9417,-5.46559 -9.9164,-11.87699 -31.7257,-35.81216 -48.4973,-53.20714 -16.7715,-17.395 -35.1968,-36.58023 -40.9467,-42.67107 -5.75,-6.09086 -17.5112,-15.18943 -26.1362,-20.15023 -8.625,-4.9608 -15.6508,-9.52393 -15.609,-10.20681 9.961,-15.00037 21.543,-25.90124 26.6443,-42.67108 1.888,-10.84256 -2.8132,-27.04364 -5.2998,-38.12739 1.8809,-6.89078 0.4491,-11.22064 -5.3724,-11.85308 -26.3514,-19.13693 -31.1547,-57.14885 -41.1647,-86.26405 -2.99,-6.04256 1.9315,-14.13099 4.5013,-19.09662 z m 90.6781,8.75811 c -1.6976,0.14898 -9.5619,0.33321 -11.1805,1.38286 -25.262,16.38185 -3.1691,5.29492 16.2625,8.56055 8.1215,1.36488 25.4112,4.36254 57.282,14.55294 6.2858,2.00986 18.5858,2.13054 18.5858,0.19745 0,-3.02267 -7.866,-10.83434 -13.5037,-13.43349 -3.4366,-1.58416 -12.5164,-3.5877 -20.183,-4.41197 -7.6666,-0.82426 -18.1212,-1.94243 -23.2322,-2.50232 -5.1111,-0.55985 -12.7773,-2.01606 -17.0613,-3.22667 -3.1126,-0.87957 -5.2721,-1.26842 -6.9696,-1.11946 z m 32.1622,35.22997 c 1.2778,2e-5 2.3232,0.94827 2.3232,2.10722 0,1.15898 -1.0454,2.10723 -2.3232,2.10721 -1.2779,2e-5 -2.3233,-0.94823 -2.3233,-2.10721 0,-1.15895 1.0454,-2.1072 2.3233,-2.10722 z m 19.239,0.0657 c 0.9615,0.12622 2.0115,0.79732 2.9041,2.10721 0.8219,1.20613 3.4472,1.62243 5.8807,0.92191 9.449,-2.72021 21.1459,16.6179 17.5694,29.04003 -2.6583,9.23204 -10.698,18.29839 -19.9653,22.5867 -17.5671,8.12872 -35.4442,7.12406 -52.4177,-2.96327 -7.6311,-4.53513 -15.0099,-15.50899 -14.9557,-22.25744 0.058,-7.36992 7.5149,-21.3202 14.0845,-26.34017 4.7129,-3.60129 5.0314,-3.65838 2.178,-0.32926 -3.2237,3.76138 -3.0632,3.74037 5.5904,0.46096 4.9296,-1.86824 9.1749,-3.13653 9.3654,-2.83157 6.0738,9.72098 8.9715,12.18235 14.738,12.18233 7.422,2e-5 12.0517,-3.42823 12.0517,-8.88981 -0.2453,-2.63425 1.3215,-2.73282 2.9765,-3.68762 z m 104.908,2.04136 c 0.5634,2e-5 1.6786,0.94827 2.4684,2.10721 0.7897,1.15899 0.3367,2.10724 -1.0164,2.10722 -1.3532,2e-5 -2.4684,-0.94823 -2.4684,-2.10722 0,-1.15894 0.4528,-2.10719 1.0164,-2.10721 z m -7.7684,0.19745 c 1.3719,-0.0487 2.1056,1.16942 2.1056,3.68762 0,2.13834 2.1248,5.6409 4.7189,7.77035 5.8798,4.82649 16.2072,2.25086 19.6748,-4.87293 2.2783,-4.68063 5.8082,-6.40146 5.8082,-2.83157 0,3.29764 -6.5067,16.08592 -7.9136,15.5407 -0.7478,-0.28972 -3.2089,-0.49783 -5.445,-0.46095 -3.6283,0.0598 -3.5659,0.42666 0.5808,3.29252 2.5555,1.76618 4.3463,4.47178 3.993,6.05824 -2.3486,10.54519 28.5445,6.21497 35.7195,-5.00464 l 3.5576,-5.46558 -1.307,7.11184 c -2.0055,11.04555 -9.7869,20.56457 -20.6912,25.35242 -12.7896,5.61566 -32.5186,5.88515 -42.1808,0.5268 -7.8311,-4.34271 -14.4939,-10.8653 -11.108,-10.86532 2.5125,2e-5 2.9483,-1.78814 3.63,-13.69689 0.2653,-4.63585 1.4906,-9.09669 2.6864,-9.87756 1.2835,-0.83835 0.9445,-2.75664 -0.8713,-4.74123 -2.5876,-2.82786 -2.4159,-4.06005 1.0889,-7.5728 2.6048,-2.6106 4.5814,-3.90237 5.9532,-3.95102 z m 13.5038,126.3011 c 0.3325,-0.0259 0.6395,-0.019 0.9439,0 2.4347,0.14751 3.9423,1.74918 3.9204,4.67538 -0.023,2.6077 -1.0403,6.16362 -2.2507,7.90205 -3.2058,4.60507 -10.5579,4.25261 -13.9394,-0.6585 -2.5397,-3.68866 -2.1403,-4.78335 2.6137,-8.0996 3.3787,-2.35686 6.3851,-3.63762 8.7121,-3.81933 z m -75.6499,3.88539 c 4.1741,0.086 8.0528,1.32769 12.0517,0.98775 2.3334,-0.81214 3.4123,0.18881 3.4123,3.22668 0.093,2.42344 -4.4552,0.74498 -6.9696,0.9219 -3.3773,0.6988 -7.6873,-0.078 -10.3093,-1.84381 -4.4643,-3.00619 -4.4617,-3.45865 0,-3.22667 0.6091,-0.0417 1.2185,-0.0782 1.8149,-0.0658 z m 103.5285,33.97882 c 11.0511,17.76499 32.662,54.76443 36.5907,81.52282 -0.817,0.74104 -1.5245,0.23263 -1.5245,-1.11946 0,-1.35216 -1.0454,-2.43645 -2.3232,-2.43647 -1.2778,-2e-5 -2.3232,3.11579 -2.3232,6.9143 0,13.79228 -3.6482,15.71646 -36.1551,19.36002 -3.9095,0.43815 -13.1887,3.20952 -20.6186,6.18994 -18.1318,7.27311 -22.5176,7.20871 -14.8833,-0.32925 3.2279,-3.18718 8.3068,-9.11368 11.3258,-13.17009 20.1703,-22.65201 21.496,-47.03848 25.9185,-74.80607 2.553,-8.7107 3.3584,-13.1016 3.9929,-22.12574 z m -50.8204,38.52249 c 2.6484,-0.0539 -22.9576,11.89727 -47.1904,7.8362 -1.9573,-2.13905 7.9888,-1.75988 11.3983,-1.90966 1.1364,-0.0499 2.679,-0.0535 4.6466,0 5.1087,0.13887 28.5834,-2.89594 31.1455,-5.92654 z m 91.1139,68.02349 c 0.2044,-0.0428 0.362,-0.0261 0.508,0 0.974,0.17447 0.776,2.00655 0,6.65089 -0.7295,4.3665 -2.0615,15.55389 -2.9765,24.82561 l -1.6699,16.8577 -2.5409,-15.8041 c -3.0643,-19.09297 -1.9728,-27.89967 3.9929,-31.27895 1.1795,-0.66811 2.0742,-1.12276 2.6864,-1.25115 z m -76.013,28.31568 c 8.4699,-3e-5 15.0284,0.91961 15.0284,2.10721 0,1.15895 -2.3522,2.09444 -5.2272,2.10721 -2.875,0.0126 -8.974,0.6265 -13.5765,1.31701 -6.4176,0.96287 -8.7025,0.42366 -9.8009,-2.17306 -1.2248,-2.89474 0.7284,-3.35835 13.5762,-3.35837 z m 5.2272,12.84083 c 1.2525,-0.0352 2.6151,0.0126 4.0657,0.0657 7.505,0.27537 11.9535,1.20862 10.7449,2.30477 -2.3385,2.12112 -16.2783,3.58093 -20.6911,2.17306 -6.4567,-2.05995 -2.8862,-4.29785 5.8805,-4.54368 z"
           id="path5575" />
        <path
           id="path5331"
           d="M 2295.936500,864.399501 l 0.000000,0.324229 M 2301.936500,864.723730 l 0.000000,-20.754895 M 2307.936500,837.417291 l 0.000000,27.306439 M 2313.936500,864.723730 l 0.000000,-31.782277 M 2319.936500,829.146502 l 0.000000,35.577228 M 2325.936500,864.723730 l 0.000000,-38.799491 M 2331.936500,822.805163 l 0.000000,41.918567 M 2337.936500,864.723730 l 0.000000,-44.798969 M 2343.936500,817.038428 l 0.000000,47.685302 M 2349.936500,864.723730 l 0.000000,-50.629670 M 2355.936500,811.149691 l 0.000000,53.574039 M 2361.936500,864.723730 l 0.000000,-56.798621 M 2367.936500,804.659562 l 0.000000,60.064168 M 2373.936500,864.723730 l 0.000000,-63.652258 M 2379.936500,797.389638 l 0.000000,67.334092 M 2385.936500,864.723730 l 0.000000,-71.577105 M 2391.936500,788.771916 l 0.000000,75.951814 M 2397.936500,864.723730 l 0.000000,-80.404874 M 2403.936500,780.278724 l 0.000000,84.445006 M 2409.936500,864.723730 l 0.000000,-88.362860 M 2415.936500,770.543998 l 0.000000,94.179732 M 2421.936500,864.723730 l 0.000000,-98.645769 M 2427.936500,762.586138 l 0.000000,102.137592 M 2433.936500,864.723730 l 0.000000,-105.207095 M 2439.936500,756.874462 l 0.000000,107.849268 M 2445.936500,864.723730 l 0.000000,-110.278661 M 2451.936500,751.906458 l 0.000000,112.817272 M 2457.936500,864.723730 l 0.000000,-116.110109 M 2463.936500,744.313515 l 0.000000,120.410215 M 2469.936500,864.723730 l 0.000000,-125.868310 M 2475.936500,733.200651 l 0.000000,131.523079 M 2481.936500,864.723730 l 0.000000,-135.968214 M 2487.936500,724.976953 l 0.000000,139.746777 M 2493.936500,864.723730 l 0.000000,-144.159328 M 2499.936500,717.107127 l 0.000000,147.616603 M 2505.936500,864.723730 l 0.000000,-150.196449 M 2511.936500,711.933298 l 0.000000,152.790432 M 2517.936500,864.723730 l 0.000000,-158.592746 M 2523.936500,696.189568 l 0.000000,168.534162 M 2529.936500,454.086894 l 0.000000,-72.134995 M 2529.936500,495.291789 l 0.000000,30.987749 M 2529.936500,864.723730 l 0.000000,-174.156173 M 2535.936500,361.582934 l 0.000000,136.676459 M 2535.936500,546.617667 l 0.000000,-23.026753 M 2535.936500,688.787773 l 0.000000,175.935957 M 2541.936500,504.095203 l 0.000000,-161.534298 M 2541.936500,544.105471 l 0.000000,20.627111 M 2541.936500,864.723730 l 0.000000,-176.668993 M 2547.936500,330.913676 l 0.000000,180.386581 M 2547.936500,579.571397 l 0.000000,-17.241706 M 2547.936500,687.410681 l 0.000000,177.313049 M 2553.936500,525.848891 l 0.000000,-203.981193 M 2553.936500,575.948511 l 0.000000,14.762046 M 2553.936500,864.723730 l 0.000000,-179.491792 M 2559.936500,314.658667 l 0.000000,227.697229 M 2559.936500,598.622886 l 0.000000,-12.765605 M 2559.936500,677.140569 l 0.000000,13.701350 M 2559.936500,864.723730 l 0.000000,-169.928590 M 2565.936500,307.373844 l 0.000000,244.291599 M 2565.936500,603.292975 l 0.000000,-10.024241 M 2565.936500,666.999261 l 0.000000,15.501849 M 2565.936500,864.723730 l 0.000000,-166.048607 M 2571.936500,299.025428 l 0.000000,229.035379 M 2571.936500,605.010427 l 0.000000,-6.228746 M 2571.936500,656.069749 l 0.000000,18.399859 M 2571.936500,864.723730 l 0.000000,-162.407957 M 2577.936500,295.846685 l 0.000000,176.069564 M 2577.936500,531.268008 l 0.000000,-10.620272 M 2577.936500,601.923548 l 0.000000,28.659674 M 2577.936500,665.583621 l 0.000000,-20.158753 M 2577.936500,706.069464 l 0.000000,158.654266 M 2583.936500,459.262761 l 0.000000,-169.846513 M 2583.936500,528.567665 l 0.000000,9.782936 M 2583.936500,653.082542 l 0.000000,-20.885627 M 2583.936500,710.176166 l 0.000000,154.547564 M 2589.936500,435.514553 l 0.000000,-152.817823 M 2589.936500,450.038185 l 0.000000,4.080578 M 2589.936500,547.288986 l 0.000000,-10.418343 M 2589.936500,714.723698 l 0.000000,150.000032 M 2595.936500,428.384614 l 0.000000,-151.291897 M 2595.936500,545.673330 l 0.000000,12.352760 M 2595.936500,864.723730 l 0.000000,-144.923227 M 2601.936500,271.593676 l 0.000000,151.558409 M 2601.936500,568.940732 l 0.000000,-13.282598 M 2601.936500,725.674736 l 0.000000,139.048994 M 2607.936500,420.699771 l 0.000000,-151.981729 M 2607.936500,511.721007 l 0.000000,2.827955 M 2607.936500,570.489761 l 0.000000,-7.109704 M 2607.936500,731.927411 l 0.000000,132.796319 M 2613.936500,316.012674 l 0.000000,-49.358353 M 2613.936500,316.084638 l 0.000000,101.341052 M 2613.936500,514.026651 l 0.000000,-6.583345 M 2613.936500,563.614915 l 0.000000,9.541873 M 2613.936500,864.723730 l 0.000000,-126.543643 M 2619.936500,265.161196 l 0.000000,50.288864 M 2619.936500,409.080447 l 0.000000,-93.091532 M 2619.936500,411.692076 l 0.000000,4.776821 M 2619.936500,434.456574 l 0.000000,-3.433596 M 2619.936500,504.654716 l 0.000000,8.841771 M 2619.936500,562.139462 l 0.000000,-10.469898 M 2619.936500,574.598868 l 0.000000,6.735135 M 2619.936500,864.723730 l 0.000000,-120.290968 M 2625.936500,263.643720 l 0.000000,51.243726 M 2625.936500,409.610575 l 0.000000,-93.939820 M 2625.936500,412.769096 l 0.000000,3.144817 M 2625.936500,435.707839 l 0.000000,-5.266275 M 2625.936500,504.136946 l 0.000000,9.168687 M 2625.936500,550.161184 l 0.000000,-6.087898 M 2625.936500,584.250611 l 0.000000,4.269985 M 2625.936500,864.723730 l 0.000000,-114.038293 M 2631.936500,261.921003 l 0.000000,52.403829 M 2631.936500,408.239858 l 0.000000,-92.894748 M 2631.936500,412.063555 l 0.000000,3.555058 M 2631.936500,436.560297 l 0.000000,-6.479022 M 2631.936500,504.354919 l 0.000000,9.467593 M 2631.936500,543.076255 l 0.000000,-4.578180 M 2631.936500,589.845446 l 0.000000,3.850299 M 2631.936500,864.723730 l 0.000000,-107.785617 M 2637.936500,259.224641 l 0.000000,54.549867 M 2637.936500,415.621271 l 0.000000,-100.612348 M 2637.936500,429.475938 l 0.000000,4.385766 M 2637.936500,437.197355 l 0.000000,-1.432907 M 2637.936500,505.741234 l 0.000000,9.033770 M 2637.936500,543.451068 l 0.000000,-9.077304 M 2637.936500,593.274500 l 0.000000,4.231621 M 2637.936500,864.723730 l 0.000000,-101.532942 M 2643.936500,258.421084 l 0.000000,54.859014 M 2643.936500,416.738893 l 0.000000,-102.096405 M 2643.936500,427.620185 l 0.000000,3.367571 M 2643.936500,437.407153 l 0.000000,-2.070803 M 2643.936500,507.057523 l 0.000000,8.893618 M 2643.936500,541.317463 l 0.000000,-10.011743 M 2643.936500,595.874510 l 0.000000,4.474926 M 2643.936500,864.723730 l 0.000000,-95.198234 M 2649.936500,257.926364 l 0.000000,54.859325 M 2649.936500,419.133017 l 0.000000,-104.856965 M 2649.936500,423.132769 l 0.000000,5.459426 M 2649.936500,436.277946 l 0.000000,-2.319220 M 2649.936500,507.986827 l 0.000000,9.256625 M 2649.936500,539.847479 l 0.000000,-10.657973 M 2649.936500,597.727981 l 0.000000,4.470821 M 2649.936500,864.723730 l 0.000000,-88.783579 M 2655.936500,249.187058 l 0.000000,63.104221 M 2655.936500,402.989150 l 0.000000,-89.079534 M 2655.936500,406.789865 l 0.000000,20.140004 M 2655.936500,518.660745 l 0.000000,-9.919789 M 2655.936500,527.811120 l 0.000000,20.115042 M 2655.936500,603.344518 l 0.000000,-4.487850 M 2655.936500,782.354807 l 0.000000,82.368923 M 2661.936500,312.121417 l 0.000000,-64.243202 M 2661.936500,313.520821 l 0.000000,90.625802 M 2661.936500,426.779015 l 0.000000,-19.110634 M 2661.936500,429.102015 l 0.000000,3.601706 M 2661.936500,520.209239 l 0.000000,-10.822028 M 2661.936500,527.087657 l 0.000000,12.720283 M 2661.936500,551.611653 l 0.000000,-8.755232 M 2661.936500,599.275993 l 0.000000,5.007218 M 2661.936500,864.723730 l 0.000000,-75.954267 M 2667.936500,247.705033 l 0.000000,157.091223 M 2667.936500,430.506317 l 0.000000,-22.676197 M 2667.936500,510.033466 l 0.000000,11.724268 M 2667.936500,551.568702 l 0.000000,-24.588173 M 2667.936500,598.995580 l 0.000000,4.616233 M 2667.936500,864.723730 l 0.000000,-69.530097 M 2673.936500,245.406688 l 0.000000,159.791372 M 2673.936500,428.523475 l 0.000000,-20.674788 M 2673.936500,510.679721 l 0.000000,12.821822 M 2673.936500,548.952250 l 0.000000,-21.345962 M 2673.936500,598.019582 l 0.000000,4.192200 M 2673.936500,864.723730 l 0.000000,-62.855082 M 2679.936500,245.127628 l 0.000000,49.187194 M 2679.936500,405.444398 l 0.000000,-108.685272 M 2679.936500,407.771626 l 0.000000,18.288952 M 2679.936500,445.464216 l 0.000000,-2.108754 M 2679.936500,511.461327 l 0.000000,13.841605 M 2679.936500,539.432161 l 0.000000,-10.441533 M 2679.936500,596.346825 l 0.000000,4.143092 M 2679.936500,864.723730 l 0.000000,-56.180066 M 2685.936500,245.075406 l 0.000000,49.856593 M 2685.936500,405.575800 l 0.000000,-108.013097 M 2685.936500,407.454140 l 0.000000,17.563943 M 2685.936500,445.636510 l 0.000000,-3.427385 M 2685.936500,512.534951 l 0.000000,14.569370 M 2685.936500,542.616938 l 0.000000,-11.361248 M 2685.936500,593.964723 l 0.000000,4.539421 M 2685.936500,671.689034 l 0.000000,-0.939095 M 2685.936500,815.482636 l 0.000000,49.241094 M 2691.936500,296.055760 l 0.000000,-50.953503 M 2691.936500,299.080194 l 0.000000,73.863070 M 2691.936500,405.707202 l 0.000000,-31.135564 M 2691.936500,407.127309 l 0.000000,17.991716 M 2691.936500,444.636153 l 0.000000,-3.292352 M 2691.936500,513.969215 l 0.000000,14.807950 M 2691.936500,542.270405 l 0.000000,-7.652501 M 2691.936500,590.385455 l 0.000000,5.206718 M 2691.936500,673.342413 l 0.000000,-3.892350 M 2691.936500,743.186549 l 0.000000,5.465298 M 2691.936500,864.723730 l 0.000000,-42.300229 M 2697.936500,245.209803 l 0.000000,52.296148 M 2697.936500,372.814052 l 0.000000,-72.110419 M 2697.936500,374.331643 l 0.000000,49.524194 M 2697.936500,442.852334 l 0.000000,-3.107940 M 2697.936500,516.673791 l 0.000000,13.095885 M 2697.936500,546.051881 l 0.000000,-6.179172 M 2697.936500,585.026836 l 0.000000,5.161195 M 2697.936500,676.857985 l 0.000000,-8.033410 M 2697.936500,744.742655 l 0.000000,8.161106 M 2697.936500,864.723730 l 0.000000,-35.360172 M 2703.936500,245.326079 l 0.000000,53.630064 M 2703.936500,333.158736 l 0.000000,-30.842327 M 2703.936500,334.657587 l 0.000000,38.027253 M 2703.936500,421.429535 l 0.000000,-47.337887 M 2703.936500,437.511278 l 0.000000,2.901614 M 2703.936500,529.958647 l 0.000000,-8.636763 M 2703.936500,548.227117 l 0.000000,6.732075 M 2703.936500,582.752635 l 0.000000,-6.415375 M 2703.936500,629.886712 l 0.000000,3.977486 M 2703.936500,680.881917 l 0.000000,-12.058737 M 2703.936500,745.372118 l 0.000000,12.332033 M 2703.936500,864.723730 l 0.000000,-29.073156 M 2709.936500,245.452966 l 0.000000,54.987300 M 2709.936500,333.846680 l 0.000000,-30.009880 M 2709.936500,335.123757 l 0.000000,37.431871 M 2709.936500,419.845589 l 0.000000,-45.993936 M 2709.936500,434.790716 l 0.000000,3.382688 M 2709.936500,564.534787 l 0.000000,-9.512145 M 2709.936500,631.216538 l 0.000000,2.386529 M 2709.936500,671.839402 l 0.000000,-2.210701 M 2709.936500,672.806354 l 0.000000,9.369654 M 2709.936500,698.897805 l 0.000000,-0.306138 M 2709.936500,745.635447 l 0.000000,15.331581 M 2709.936500,864.723730 l 0.000000,-28.703002 M 2715.936500,245.579853 l 0.000000,56.513659 M 2715.936500,334.534623 l 0.000000,-29.177434 M 2715.936500,335.589927 l 0.000000,36.836489 M 2715.936500,417.602060 l 0.000000,-43.990402 M 2715.936500,431.461524 l 0.000000,4.620845 M 2715.936500,559.830258 l 0.000000,-3.926449 M 2715.936500,633.988604 l 0.000000,1.547101 M 2715.936500,671.860747 l 0.000000,-1.409395 M 2715.936500,676.390535 l 0.000000,5.376374 M 2715.936500,699.056532 l 0.000000,-1.245403 M 2715.936500,745.657756 l 0.000000,17.645763 M 2715.936500,864.723730 l 0.000000,-51.305681 M 2721.936500,245.518584 l 0.000000,58.441750 M 2721.936500,335.222567 l 0.000000,-28.645851 M 2721.936500,336.057045 l 0.000000,36.240160 M 2721.936500,413.328720 l 0.000000,-39.992652 M 2721.936500,417.325818 l 0.000000,3.054700 M 2721.936500,434.115422 l 0.000000,-7.115388 M 2721.936500,555.588106 l 0.000000,3.609851 M 2721.936500,638.708887 l 0.000000,-1.552591 M 2721.936500,670.655711 l 0.000000,1.855532 M 2721.936500,681.490249 l 0.000000,-4.528485 M 2721.936500,697.030591 l 0.000000,2.184668 M 2721.936500,750.653664 l 0.000000,-5.223888 M 2721.936500,752.287096 l 0.000000,14.704479 M 2721.936500,864.723730 l 0.000000,-64.329491 M 2727.936500,245.336989 l 0.000000,90.573522 M 2727.936500,372.167992 l 0.000000,-35.641271 M 2727.936500,373.041778 l 0.000000,59.244067 M 2727.936500,441.112061 l 0.000000,-2.232353 M 2727.936500,555.272402 l 0.000000,3.472929 M 2727.936500,642.033670 l 0.000000,-2.024333 M 2727.936500,669.936649 l 0.000000,2.539869 M 2727.936500,681.256191 l 0.000000,-4.057497 M 2727.936500,696.212414 l 0.000000,3.210967 M 2727.936500,750.240390 l 0.000000,-5.299146 M 2727.936500,752.812035 l 0.000000,17.216657 M 2727.936500,834.732685 l 0.000000,-44.760086 M 2727.936500,838.879712 l 0.000000,11.567871 M 2727.936500,864.723730 l 0.000000,-6.948993 M 2733.936500,244.336968 l 0.000000,92.261486 M 2733.936500,372.038780 l 0.000000,-35.170652 M 2733.936500,372.747487 l 0.000000,64.432615 M 2733.936500,559.143918 l 0.000000,-4.187219 M 2733.936500,640.740068 l 0.000000,4.361526 M 2733.936500,680.341400 l 0.000000,-11.630587 M 2733.936500,695.301538 l 0.000000,4.397645 M 2733.936500,750.143800 l 0.000000,-6.060052 M 2733.936500,752.695923 l 0.000000,20.444987 M 2733.936500,837.169614 l 0.000000,-53.431140 M 2739.936500,240.713460 l 0.000000,131.196108 M 2739.936500,431.444148 l 0.000000,-59.077375 M 2739.936500,456.396221 l 0.000000,1.266721 M 2739.936500,549.309947 l 0.000000,-4.016029 M 2739.936500,554.640995 l 0.000000,8.103831 M 2739.936500,646.351257 l 0.000000,-11.543956 M 2739.936500,667.826184 l 0.000000,12.516092 M 2739.936500,699.974985 l 0.000000,-5.996176 M 2739.936500,742.098489 l 0.000000,7.794463 M 2739.936500,777.759197 l 0.000000,-25.491263 M 2739.936500,787.528721 l 0.000000,52.308561 M 2745.936500,426.061138 l 0.000000,-185.050649 M 2745.936500,453.914042 l 0.000000,3.258203 M 2745.936500,598.882695 l 0.000000,-60.547169 M 2745.936500,627.141821 l 0.000000,19.701521 M 2745.936500,680.587528 l 0.000000,-13.737433 M 2745.936500,691.601548 l 0.000000,8.797690 M 2745.936500,749.280124 l 0.000000,-11.276654 M 2745.936500,751.408506 l 0.000000,32.430506 M 2745.936500,842.270716 l 0.000000,-48.683047 M 2751.936500,245.546786 l 0.000000,177.771883 M 2751.936500,431.374899 l 0.000000,-3.393119 M 2751.936500,451.054954 l 0.000000,4.545876 M 2751.936500,612.767563 l 0.000000,-81.713701 M 2751.936500,622.345895 l 0.000000,25.607502 M 2751.936500,681.604778 l 0.000000,-15.827733 M 2751.936500,685.156380 l 0.000000,15.716293 M 2751.936500,748.469206 l 0.000000,-15.562220 M 2751.936500,750.063420 l 0.000000,36.357963 M 2751.936500,844.404661 l 0.000000,-42.972960 M 2757.936500,240.120285 l 0.000000,189.381253 M 2757.936500,453.036379 l 0.000000,-5.218507 M 2757.936500,525.101520 l 0.000000,89.074944 M 2757.936500,646.223251 l 0.000000,-21.894847 M 2757.936500,664.755655 l 0.000000,36.722830 M 2757.936500,747.289254 l 0.000000,-20.044957 M 2757.936500,748.355152 l 0.000000,40.604487 M 2757.936500,840.576367 l 0.000000,-36.145009 M 2763.936500,243.751830 l 0.000000,181.512980 M 2763.936500,449.559555 l 0.000000,-5.374238 M 2763.936500,521.644316 l 0.000000,59.834128 M 2763.936500,595.256394 l 0.000000,-12.027317 M 2763.936500,599.675418 l 0.000000,19.436054 M 2763.936500,642.645467 l 0.000000,-19.273454 M 2763.936500,663.975120 l 0.000000,38.569443 M 2763.936500,745.833411 l 0.000000,-24.940697 M 2763.936500,746.187532 l 0.000000,45.810090 M 2763.936500,858.498750 l 0.000000,-54.057767 M 2769.936500,253.448824 l 0.000000,166.801378 M 2769.936500,445.441937 l 0.000000,-5.191902 M 2769.936500,518.886597 l 0.000000,27.544106 M 2769.936500,558.655949 l 0.000000,-5.271569 M 2769.936500,588.767285 l 0.000000,7.606611 M 2769.936500,637.721188 l 0.000000,-30.482153 M 2769.936500,663.443736 l 0.000000,131.738087 M 2769.936500,841.298628 l 0.000000,-27.737407 M 2769.936500,845.496683 l 0.000000,19.227047 M 2775.936500,413.085926 l 0.000000,-158.373881 M 2775.936500,435.560933 l 0.000000,4.919465 M 2775.936500,541.718223 l 0.000000,-25.145268 M 2775.936500,592.484722 l 0.000000,5.433877 M 2775.936500,638.382764 l 0.000000,-22.676647 M 2775.936500,663.157335 l 0.000000,134.454390 M 2775.936500,809.370935 l 0.000000,-8.869452 M 2775.936500,811.518652 l 0.000000,5.293908 M 2775.936500,840.654977 l 0.000000,-19.303754 M 2775.936500,846.371657 l 0.000000,18.352073 M 2781.936500,253.788307 l 0.000000,-4.139209 M 2781.936500,269.001353 l 0.000000,149.053158 M 2781.936500,434.390500 l 0.000000,-5.153461 M 2781.936500,514.580885 l 0.000000,36.803092 M 2781.936500,599.646525 l 0.000000,-5.025372 M 2781.936500,627.056184 l 0.000000,6.321398 M 2781.936500,671.413696 l 0.000000,-8.327953 M 2781.936500,682.482397 l 0.000000,127.799835 M 2781.936500,840.563440 l 0.000000,-20.812015 M 2781.936500,845.680870 l 0.000000,8.281089 M 2781.936500,864.723730 l 0.000000,-6.745514 M 2787.936500,268.256806 l 0.000000,158.178674 M 2787.936500,555.056172 l 0.000000,-42.141978 M 2787.936500,595.688599 l 0.000000,5.340770 M 2787.936500,668.327908 l 0.000000,-5.471084 M 2787.936500,683.514027 l 0.000000,119.443713 M 2787.936500,840.708226 l 0.000000,-23.170828 M 2787.936500,845.051376 l 0.000000,8.350947 M 2787.936500,864.723730 l 0.000000,-6.301197 M 2793.936500,268.517428 l 0.000000,150.658742 M 2793.936500,555.084941 l 0.000000,-43.590024 M 2793.936500,560.480601 l 0.000000,1.477081 M 2793.936500,601.712068 l 0.000000,-5.668838 M 2793.936500,658.790291 l 0.000000,10.243134 M 2793.936500,795.400818 l 0.000000,-117.239595 M 2793.936500,815.368817 l 0.000000,25.974564 M 2793.936500,853.607337 l 0.000000,-8.983593 M 2793.936500,858.002327 l 0.000000,6.721403 M 2799.936500,421.661310 l 0.000000,-153.564988 M 2799.936500,510.146428 l 0.000000,42.022295 M 2799.936500,567.934747 l 0.000000,-7.305253 M 2799.936500,595.821675 l 0.000000,5.631616 M 2799.936500,785.657175 l 0.000000,-136.732467 M 2799.936500,813.280160 l 0.000000,40.970832 M 2799.936500,864.723730 l 0.000000,-7.857317 M 2805.936500,267.722079 l 0.000000,157.974874 M 2805.936500,544.492237 l 0.000000,-35.825267 M 2805.936500,553.771476 l 0.000000,21.685706 M 2805.936500,600.374464 l 0.000000,-5.320867 M 2805.936500,638.933482 l 0.000000,131.713781 M 2805.936500,864.723730 l 0.000000,-53.340653 M 2811.936500,268.081733 l 0.000000,3.949747 M 2811.936500,431.452255 l 0.000000,-158.814260 M 2811.936500,506.717609 l 0.000000,68.809481 M 2811.936500,598.879954 l 0.000000,-5.193436 M 2811.936500,631.440421 l 0.000000,110.734274 M 2811.936500,864.723730 l 0.000000,-54.702759 M 2817.936500,273.938140 l 0.000000,166.377846 M 2817.936500,574.642014 l 0.000000,-70.660304 M 2817.936500,591.502275 l 0.000000,5.506173 M 2817.936500,707.724660 l 0.000000,-87.137980 M 2817.936500,809.266219 l 0.000000,55.457511 M 2823.936500,456.905963 l 0.000000,-182.933378 M 2823.936500,498.518525 l 0.000000,74.348751 M 2823.936500,594.711206 l 0.000000,-6.662860 M 2823.936500,602.921489 l 0.000000,83.465665 M 2823.936500,715.450520 l 0.000000,-11.220013 M 2823.936500,808.520176 l 0.000000,56.203554 M 2829.936500,570.157663 l 0.000000,-296.190366 M 2829.936500,582.767364 l 0.000000,8.661280 M 2829.936500,680.290728 l 0.000000,-87.855924 M 2829.936500,714.870482 l 0.000000,10.900375 M 2829.936500,864.723730 l 0.000000,-57.131045 M 2835.936500,274.739525 l 0.000000,3.186335 M 2835.936500,564.757524 l 0.000000,-281.203538 M 2835.936500,573.651638 l 0.000000,96.419856 M 2835.936500,736.958791 l 0.000000,-10.710927 M 2835.936500,806.346084 l 0.000000,58.377646 M 2841.936500,650.732309 l 0.000000,-360.692716 M 2841.936500,738.559138 l 0.000000,10.668181 M 2841.936500,864.723730 l 0.000000,-60.382623 M 2847.936500,291.887525 l 0.000000,330.115738 M 2847.936500,763.333761 l 0.000000,-11.010357 M 2847.936500,796.846408 l 0.000000,67.877322 M 2853.936500,604.495384 l 0.000000,-311.080097 M 2853.936500,764.974479 l 0.000000,18.028827 M 2853.936500,814.852431 l 0.000000,-27.346474 M 2853.936500,858.496888 l 0.000000,6.226842 M 2859.936500,597.276689 l 0.000000,-301.803632 M 2859.936500,770.648638 l 0.000000,94.075092 M 2865.936500,587.850945 l 0.000000,-290.106449 M 2865.936500,774.492752 l 0.000000,90.230978 M 2871.936500,574.718334 l 0.000000,-273.989978 M 2871.936500,777.406362 l 0.000000,87.317368 M 2877.936500,560.518650 l 0.000000,-253.668964 M 2877.936500,780.005312 l 0.000000,84.718418 M 2883.936500,545.026341 l 0.000000,-235.791376 M 2883.936500,784.551568 l 0.000000,80.172162 M 2889.936500,318.919763 l 0.000000,-4.303379 M 2889.936500,325.734085 l 0.000000,169.588285 M 2889.936500,530.299112 l 0.000000,-30.019644 M 2889.936500,790.595176 l 0.000000,74.128554 M 2895.936500,340.973982 l 0.000000,-7.109752 M 2895.936500,351.621800 l 0.000000,130.097337 M 2895.936500,517.631289 l 0.000000,-17.460315 M 2895.936500,796.288148 l 0.000000,68.435582 M 2901.936500,456.932215 l 0.000000,-86.459879 M 2901.936500,801.453920 l 0.000000,63.269810 M 2907.936500,404.564746 l 0.000000,-18.706001 M 2907.936500,806.196458 l 0.000000,58.527272 M 2913.936500,864.723730 l 0.000000,-53.867736 M 2919.936500,815.605366 l 0.000000,49.118364 M 2925.936500,864.723730 l 0.000000,-43.716005 M 2931.936500,827.346822 l 0.000000,37.376908 M 2937.936500,864.723730 l 0.000000,-29.542530 M 2943.936500,848.635132 l 0.000000,16.088598"
           style="stroke:#000000;stroke-width:4;fill:none;stroke-miterlimit:4;stroke-dasharray:none" />
      </g>
    </g>
  </g>
  <eggbot
     id="eggbot4784"
     totaldeltay="0"
     totaldeltax="0"
     lastpathnc="0"
     lastpath="0"
     node="0"
     layer="0"
     serialport="/dev/ttyACM0" />
</svg>
