<?xml version="1.0" encoding="UTF-8" standalone="no"?>
<!-- Created with Inkscape (http://www.inkscape.org/) -->

<svg
   xmlns:dc="http://purl.org/dc/elements/1.1/"
   xmlns:cc="http://creativecommons.org/ns#"
   xmlns:rdf="http://www.w3.org/1999/02/22-rdf-syntax-ns#"
   xmlns:svg="http://www.w3.org/2000/svg"
   xmlns="http://www.w3.org/2000/svg"
   xmlns:sodipodi="http://sodipodi.sourceforge.net/DTD/sodipodi-0.dtd"
   xmlns:inkscape="http://www.inkscape.org/namespaces/inkscape"
   inkscape:version="0.92.3 (2405546, 2018-03-11)"
   version="1.1"
   id="svg4007"
   height="1066.6666"
   width="3413.3333"
   sodipodi:docname="001--harry-potter--ornament.svg">
  <sodipodi:namedview
     id="base"
     pagecolor="#ffffff"
     bordercolor="#666666"
     borderopacity="1.0"
     inkscape:pageopacity="0.0"
     inkscape:pageshadow="2"
     inkscape:zoom="0.175"
     inkscape:cx="-360.13319"
     inkscape:cy="1396.1336"
     inkscape:document-units="px"
     inkscape:current-layer="layer1"
     showgrid="false"
     inkscape:window-width="1920"
     inkscape:window-height="1026"
     inkscape:window-x="1600"
     inkscape:window-y="27"
     inkscape:window-maximized="1" />
  <defs
     id="defs4009" />
  <metadata
     id="metadata4012">
    <rdf:RDF>
      <cc:Work
         rdf:about="">
        <dc:format>image/svg+xml</dc:format>
        <dc:type
           rdf:resource="http://purl.org/dc/dcmitype/StillImage" />
        <dc:title></dc:title>
      </cc:Work>
    </rdf:RDF>
  </metadata>
  <g
     inkscape:label="Layer 1"
     inkscape:groupmode="layer"
     id="layer1"
     transform="translate(0,-55.852995)">
    <g
       id="g4676"
       style="stroke-width:4;stroke-miterlimit:4;stroke-dasharray:none" />
    <g
       style="fill:none;fill-opacity:1;stroke:#000000;stroke-width:4;stroke-miterlimit:4;stroke-dasharray:none;stroke-opacity:1"
       id="g5312">
      <g
         id="g5323"
         style="fill:none;stroke-width:4;stroke-miterlimit:4;stroke-dasharray:none">
        <path
           style="fill:none;fill-opacity:1;stroke:#000000;stroke-width:4.26666689;stroke-miterlimit:4;stroke-dasharray:none;stroke-opacity:1"
           d="m 1091.1088,270.65775 c 6.5617,47.45966 13.6153,94.85318 20.3234,142.29079 4.678,31.16951 9.32,62.38311 12.03,93.73999 -11.2404,-5.36759 -21.7996,-12.63639 -34.4496,-15.01718 -0.1214,5.41176 1.0389,10.74074 1.9746,16.06424 8.263,44.25234 16.0886,88.60386 21.8727,133.19785 0.7657,6.30445 1.9929,12.58685 2.1267,18.95742 -1.361,-0.46292 -2.8191,-0.77153 -3.7671,-1.81859 -7.1208,-6.64612 -13.9864,-13.51266 -21.1437,-20.1147 13.8164,77.67027 28.6656,155.23033 42.2268,232.94469 0.5615,1.91637 1.0602,3.84879 1.4884,5.78642 -0.4288,-1.94106 -0.926,-3.86713 -1.4884,-5.78642 0.6196,12.19006 4.6964,23.97231 5.8024,36.09624 l -0.6988,0.7164 h 2.8556 c 1.8835,-8.01281 2.3817,-16.20196 2.7341,-24.35806 4.8971,-47.65805 7.777,-95.47587 11.787,-143.20005 4.4839,8.48675 9.4296,16.75307 14.1566,25.1296 3.0622,5.04787 5.529,10.40452 9.1745,15.15482 1.0814,0.17643 2.175,0.35277 3.2808,0.55108 0.086,-21.31598 0.316,-42.62102 0.3039,-63.92615 0.5589,-12.14597 -0.4983,-24.31389 0.729,-36.4268 0.048,-23.5645 0.073,-47.11251 0.4253,-70.67701 8.737,15.86029 17.2981,31.77571 26.0956,47.61396 1.3366,-1.60918 3.888,-2.96486 3.3416,-5.29044 -2.7223,-40.51595 -5.966,-81.02089 -8.0807,-121.5699 -0.9962,-8.14508 -0.7896,-16.37277 -1.0937,-24.55092 2.0904,0.69429 3.099,2.57354 4.2531,4.16068 10.8272,15.89336 21.7331,31.74263 32.2928,47.77928 1.5067,2.08312 4.7026,1.47692 7.0478,1.48794 12.1274,-1.04706 23.9205,-4.17169 35.3915,-7.79785 17.1705,-5.64322 34.237,-13.04429 46.9355,-25.2674 9.065,1.59815 17.96,4.37564 26.4296,7.77034 0.1944,27.09145 -0.3345,54.19394 -0.152,81.2854 0.6926,15.23206 -1.3484,30.84988 3.4634,45.68516 3.6822,10.62496 13.3484,18.13633 22.0853,25.43272 15.5662,12.36641 31.8914,23.92267 48.2113,35.46244 7.0719,5.19125 16.7812,4.38119 25.2753,3.94024 10.1708,-0.69428 19.1872,-5.29592 28.3132,-9.01024 8.5908,-3.59309 17.0305,-7.51683 25.3057,-11.68305 10.9971,-5.51088 20.4145,-13.64493 26.855,-23.42123 4.0828,-5.99583 5.0491,-13.12134 6.3492,-19.92185 2.4303,-14.61484 3.5421,-29.38946 3.4327,-44.16963 0.5712,-26.67263 -4.496,-53.07519 -7.2909,-79.54943 l -0.5771,-0.82672 c -0.1947,-5.22422 -1.2699,-10.37138 -2.0355,-15.54067 -1.1544,-6.92157 -1.9686,-14.0417 -5.2859,-20.44526 -3.0136,-6.10604 -7.7649,-11.38547 -13.1237,-15.92651 -14.2538,-11.94749 -29.7894,-22.83707 -47.0569,-30.97112 -7.3027,-3.79139 -15.7546,-0.45181 -22.8754,1.98392 -24.8621,9.55594 -47.8349,22.65525 -70.5095,35.84828 -5.3347,2.90974 -9.8181,7.41218 -11.3617,12.97806 -1.312,4.69536 -3.9609,8.93865 -7.0479,12.84043 -8.3722,-0.7605 -15.9489,-4.31505 -23.9689,-6.3651 3.1108,-37.12126 7.4003,-74.14878 10.3287,-111.29217 0.4254,-7.05392 2.3877,-14.58724 -1.0025,-21.29949 -3.6092,-7.84749 -9.9824,-14.2125 -15.645,-20.85861 -20.9615,-23.33313 -41.7951,-46.77084 -63.5224,-69.51973 -4.6294,-0.61722 -9.1805,0.41882 -13.4579,1.9288 -14.0957,4.62914 -28.1187,9.51729 -42.3482,13.80479 -2.005,0.62824 -4.1315,0.83756 -6.1973,1.10217 -2.1022,-11.12099 0.7534,-22.3246 0.9722,-33.47861 -20.1595,-0.22043 -40.3737,0.84317 -60.5452,-0.13777 -14.2665,-0.80459 -28.5559,-0.98645 -42.8343,-1.51549 z m 152.9882,47.66907 c 1.8979,-0.0432 3.7487,0.51529 5.4074,1.43283 1.1544,1.87369 1.5737,3.98986 1.7923,6.11706 6.3673,31.24667 8.3543,63.00034 10.2985,94.67684 0.5712,7.28537 -0.1458,14.68652 0.9722,21.90578 0.3888,15.18788 0.5346,30.37038 0.3037,45.54734 -3.7792,0.61721 -7.6068,0.24247 -11.3617,-0.22044 -10.985,-0.99196 -22.0004,0.51802 -32.7789,2.25946 -5.5413,0.56211 -11.0153,1.52656 -16.5564,2.0115 -1.3002,-43.31547 -0.5652,-86.65854 -1.0634,-129.97402 0.025,-9.89754 -0.043,-19.77849 0.031,-29.67611 -0.025,-2.47981 0.8505,-5.79735 4.0708,-6.2272 12.1029,-3.31763 24.6737,-4.99285 36.971,-7.60501 0.632,-0.15721 1.2812,-0.23357 1.914,-0.24803 z m -426.97587,8.07348 c -0.8264,-0.018 -1.66778,0.0689 -2.43031,0.24793 -3.75475,0.82664 -7.33341,2.46888 -9.8731,5.18023 -17.87496,16.08073 -35.76207,32.15045 -53.70994,48.16505 -2.50321,2.01699 -5.23732,3.8025 -7.29094,6.22729 0.60759,0.92582 1.28194,1.8737 1.91392,2.81055 1.34873,-0.044 2.72798,-0.0938 4.10111,-0.13773 2.97713,-0.90387 5.96642,-1.75801 8.99216,-2.5626 -0.4253,4.37564 0.93567,9.18112 -0.78985,13.2812 1.03288,1.65327 0.43746,3.69229 0.60758,5.51088 -0.61973,48.143 -1.36098,96.27499 -1.51894,144.44004 -1.16655,16.51058 -1.60403,33.17546 -5.3467,49.43255 -1.25161,5.87459 -5.81457,10.45417 -10.2984,14.57621 -5.09161,4.39769 -10.38358,8.71274 -16.49581,11.9311 -0.17012,0.36371 -0.49822,1.0967 -0.66833,1.46042 3.41458,1.13524 6.71982,2.49092 10.02504,3.85761 6.34312,2.67829 13.53686,1.52692 20.29311,1.51545 5.16443,-1.00298 10.51112,-0.507 15.73629,-1.10218 11.5926,-1.4218 23.45856,-2.14377 35.14846,-1.12977 7.19363,0.0552 14.51501,0.55109 21.78164,0.6613 4.88493,0.68335 9.82459,1.1684 14.79459,0.93694 -5.41971,-6.57999 -13.95612,-11.19263 -17.46794,-19.15033 -0.29164,-18.07567 -0.4496,-36.15134 -0.54682,-54.22701 -0.13366,-6.97677 0.41929,-13.97011 -0.51649,-20.91381 0.0365,-24.99725 -0.21862,-50.00569 -0.1215,-75.00293 0.15748,-20.25798 -0.77761,-40.51048 0.0608,-60.75744 l 1.30625,-2.25946 c 3.57256,-1.65326 7.61903,-2.22639 11.54398,-1.32261 0.12152,0.67232 0.36455,2.028 0.48607,2.70033 4.45962,12.67501 8.22661,25.54842 12.63764,38.24548 0.31593,1.49895 1.26988,3.44434 -0.21262,4.65672 -3.75483,3.58207 -7.41858,7.2688 -10.90608,11.04927 2.81917,1.80756 4.87881,7.62705 9.0225,5.23533 17.98441,-9.12602 35.35504,-19.23842 52.22144,-29.95156 3.35382,-2.32568 8.6033,-4.9709 7.0479,-9.58893 -3.01358,-11.94757 -9.25952,-22.95283 -14.5819,-34.13992 -4.72696,-9.08192 -9.41746,-18.25748 -15.61477,-26.58992 -2.13868,-2.88778 -5.28592,-6.18329 -9.53898,-5.62109 -4.55684,1.1131 -8.56083,3.49936 -12.54644,5.70371 -8.37244,4.87161 -16.43505,10.18965 -24.63736,15.29264 -1.14225,0.85969 -2.60657,0.8432 -3.9797,0.96445 -0.17012,-0.76051 -0.52853,-2.254 -0.69865,-3.0034 -1.22732,-14.42746 -0.75952,-29.01479 -1.91383,-43.45329 -1.039,-2.1241 -3.53561,-3.11492 -6.01512,-3.1687 z m 817.58797,9.69913 c -0.2095,0.007 -0.4374,0.015 -0.6684,0.055 -3.9857,2.75544 -6.8715,6.48635 -9.873,10.0574 -14.023,17.1829 -29.9901,33.08174 -47.634,47.2557 -18.0454,14.25121 -37.263,27.45528 -58.1758,38.02505 -0.2309,2.75543 -0.1276,5.51087 0.092,8.2663 17.243,0 34.48,0.28666 51.7353,0.22044 0.9843,4.16623 1.6283,8.38209 1.8834,12.64751 3.2809,29.18559 3.597,58.68534 2.9771,88.03627 -0.6197,28.34794 -4.089,56.53047 -5.134,84.86747 -1.2879,28.63442 -1.7132,57.28551 -2.1264,85.94205 0.048,5.32351 1.0267,10.87848 4.4049,15.37535 3.4389,4.89365 8.7734,8.31595 14.2174,11.21468 21.3989,11.38537 43.8124,21.0019 66.0132,30.99862 1.92,0.68335 3.7974,1.94027 5.9847,1.9288 2.7949,-1.73041 4.8121,-4.32052 7.0479,-6.61304 -10.7784,-6.42568 -21.2712,-13.43551 -30.3484,-21.76796 -5.6019,-6.66816 -3.7792,-15.6068 -3.2809,-23.36611 1.1542,-30.47514 2.9953,-60.9613 4.2834,-91.42542 0.3158,-4.01192 -0.2673,-8.12303 0.7291,-12.06881 0.8142,-26.86001 2.2176,-53.70899 2.8251,-80.56899 0.7048,-31.03725 -1.0632,-62.10211 1.0634,-93.10629 1.3974,-0.49589 2.8676,-0.89823 4.4353,-0.79903 11.3131,-0.0882 22.6505,-0.27554 33.9635,-0.49597 -0.2186,-3.47186 -0.6015,-6.93824 -1.0023,-10.38805 -1.0574,-3.17417 -0.4801,-6.54136 -1.4887,-9.72665 -0.2795,-1.93983 -0.486,-3.9017 -0.7291,-5.84153 -11.7749,0.044 -23.5375,-0.45189 -35.3003,-0.33065 -1.4338,-8.89455 -0.5043,-17.99296 -1.0633,-26.97578 -0.1944,-15.27614 -0.8993,-30.54673 -1.0327,-45.82288 0.114,-2.4076 -0.6554,-5.71368 -3.7975,-5.59349 z m -1235.81454,1.18479 c -11.87082,0.20899 -23.66669,1.8999 -35.54335,2.31457 -17.00003,1.19035 -34.08515,1.0581 -51.09733,0.27555 -10.45036,0.18737 -20.76703,-1.54304 -31.10802,-2.42478 -0.40101,3.03097 0.63188,6.31545 4.01001,7.5499 6.05148,2.62317 11.77487,7.29083 12.03005,13.80477 5.45606,62.23975 7.38203,124.7276 7.19986,187.17684 -17.14587,12.675 -36.0051,23.41575 -55.35049,33.09275 -7.13299,3.19631 -14.33273,6.85007 -22.32846,7.85305 -1.22732,-15.01163 -1.23339,-30.07836 -2.21767,-45.07896 -0.48606,-11.77123 -0.54074,-23.55348 -0.75946,-35.32471 -1.14225,-15.40841 -0.85063,-30.8609 -1.27593,-46.29135 -0.72909,-18.35121 -0.69871,-36.73549 -0.69871,-55.10875 0.0973,-6.99881 -0.091,-14.05819 1.24553,-20.96884 1.83489,-6.65721 6.20342,-12.97815 13.09336,-16.17445 0.38887,-2.16027 0.7959,-4.33155 1.18474,-6.50284 -11.11865,0.0441 -22.24346,0.18181 -33.32568,0.96445 -12.96572,0.28647 -25.93144,0.34713 -38.88502,0.57859 -8.45748,0.8597 -16.97574,0.39679 -25.45754,0.49598 -5.67478,-0.11021 -11.37386,0.36372 -17.0122,-0.38576 -4.10722,-0.24291 -8.25699,-0.61722 -12.36421,-0.27554 -2.50323,0.49598 -3.95535,2.68384 -4.16193,4.87717 11.71413,3.58197 22.85712,11.45151 25.33603,22.98026 1.5068,36.75753 3.32953,73.50961 4.31381,110.30021 1.10579,10.9997 0.69264,22.07657 1.09364,33.12035 1.21516,14.63689 0.78985,29.34546 1.33667,44.00439 -0.085,7.15302 0.38886,14.33374 -0.36454,21.46481 -4.75126,-0.0441 -8.88887,-2.34217 -13.09332,-4.05045 -15.40819,-6.71224 -30.646255,-13.92046 -44.717775,-22.76 -5.091509,-3.27346 -10.195179,-6.63509 -14.278101,-10.96656 12.163733,-7.28546 25.37248,-13.00566 37.852146,-19.78412 2.11437,-1.03605 1.5311,-3.41119 1.51895,-5.20774 -20.025784,2.49092 -40.489027,5.14716 -59.056632,12.78523 v 2.25947 c 4.14369,9.28031 9.45392,18.10326 15.371733,26.53481 7.047904,9.54483 15.280608,19.08421 26.885355,24.27545 16.647644,7.96872 33.750984,15.14389 50.823934,22.31905 0.32809,20.37921 0.81416,40.76398 0.78985,61.1432 -0.63188,14.72497 -0.35847,29.4666 -1.36705,44.16962 -0.74125,7.48377 -0.83238,15.43045 -5.19479,22.0986 -7.14512,11.16504 -20.09262,17.84977 -32.96114,22.45687 -0.0973,0.94787 -0.29771,2.82704 -0.394932,3.7749 -2.661184,1.08014 0.899222,2.20982 2.187292,2.56252 36.09016,0.17643 72.22285,0.72752 108.2401,2.92085 10.82705,0.87072 21.72704,1.49895 32.38397,3.58198 3.31729,0.65037 6.50714,2.18786 9.99464,1.79107 1.72551,-2.11617 -1.36098,-4.60153 -3.28093,-5.75891 -8.37244,-4.56291 -18.42178,-9.31329 -21.14373,-18.57155 -1.1058,-8.44267 -0.21874,-16.98461 -0.66834,-25.46024 -0.30379,-40.37268 -0.89314,-80.75645 -1.12403,-121.12904 27.37745,-5.51096 55.06485,-13.51822 77.43589,-29.40056 2.69764,19.34317 2.52752,38.87927 3.34168,58.33257 0.91136,29.04231 0.4253,58.13426 -1.09364,87.15453 -1.47034,16.02562 -2.24804,32.41496 -8.20232,47.72418 -4.6905,12.06881 -16.17976,20.48397 -28.10055,26.5349 -0.25509,3.4387 3.30532,5.93517 4.37456,9.12046 21.39891,-2.34764 43.01656,-1.60363 64.52483,-1.46043 22.84496,0.82664 45.60484,3.21289 68.17032,6.53044 2.0294,0.24247 4.05258,0.14918 6.1062,0.13781 0.94782,-1.59824 1.77413,-3.25697 2.36955,-4.98738 -4.55683,-4.07805 -11.21589,-5.61563 -15.31097,-10.22264 -11.37387,-11.52874 -13.99861,-27.7308 -15.25022,-42.59914 -0.54682,-19.05661 -0.69312,-38.10766 -0.72909,-57.17529 -0.59495,-16.17993 0.26733,-32.39848 -0.54682,-48.57832 0.13367,-37.91491 -0.3767,-75.80214 -0.24304,-113.71695 15.17731,-8.01281 32.88215,-10.47613 49.8822,-13.41903 -10.92426,9.43462 -22.46826,18.65435 -30.50044,30.39252 -2.97714,4.55199 -5.91782,9.88652 -4.25305,15.32023 3.90066,16.94043 10.69941,33.15343 16.49571,49.59788 5.35883,14.62586 10.58411,29.31239 15.91855,43.94927 1.26377,4.78335 7.15125,6.42013 11.7567,7.57741 6.30666,1.10218 13.81021,3.36163 19.47283,-0.6062 12.00575,-8.35448 24.04795,-16.70341 36.3332,-24.71622 0.76554,8.32133 0.75951,19.04549 10.17698,23.47633 9.19874,2.67819 20.4754,2.16025 28.00937,-3.85762 7.06007,-5.43372 10.61445,-13.63946 17.71085,-19.04012 10.40185,-8.16711 20.72456,-16.44445 30.89543,-24.85405 1.5554,-1.3226 3.26876,-2.71135 3.5847,-4.73935 -7.3517,1.76348 -15.44464,1.49896 -22.41964,-1.37771 0.0122,-14.0858 0.46789,-28.15511 0.57716,-42.24082 1.45818,-18.31824 0.78381,-36.70243 0.94179,-55.05372 -0.073,-16.03657 -0.48606,-32.12832 -3.28092,-47.99964 -2.95283,-13.58981 -13.7131,-23.98341 -23.54372,-33.94699 -18.25166,-17.98758 -36.67334,-35.84829 -55.71485,-53.15243 -2.3088,-2.6007 -6.22772,-0.80459 -9.02258,0.0551 -20.56046,7.68217 -39.66273,18.2686 -57.78072,29.89646 -4.53252,2.76645 -8.579,6.19978 -13.549,8.34901 -1.22731,6.073 1.97469,11.76022 4.04045,17.35927 7.21793,16.33423 17.78377,31.18053 27.97894,46.07091 1.94425,-0.57313 3.90668,-1.14626 5.86309,-1.70837 -0.46167,-7.92464 -1.22119,-16.13584 1.48861,-23.80698 1.1787,-3.31755 4.19228,-5.7038 7.41245,-7.41208 11.93284,-6.75642 24.45508,-12.59786 37.27489,-17.85524 2.50333,-1.12431 5.24958,-1.67539 7.95938,-2.25955 5.89342,44.02096 6.85339,88.43306 6.501,132.72947 -0.29156,8.43164 0.0304,16.85782 -0.88094,25.26741 -0.34025,12.19005 -0.80201,24.42966 -2.06577,36.56461 -3.40244,2.78851 -7.27276,5.1141 -10.48069,8.10099 -1.49474,1.49896 -3.54223,2.23186 -5.74165,2.23186 -5.26163,-18.82506 -11.92672,-37.2865 -17.58935,-55.99049 -2.90423,-13.41338 -3.54837,-27.12999 -6.19729,-40.58755 -0.87503,-2.70033 1.98059,-4.4087 3.70611,-6.11708 6.86574,-5.91867 13.53685,-12.04677 20.84004,-17.52457 2.33311,-1.89575 5.34058,-2.7885 8.23265,-3.74741 0.17012,-0.94786 0.33411,-1.91778 0.51649,-2.86565 -9.22315,-2.70033 -19.19346,-1.96742 -28.76889,-2.34216 -26.62409,-0.71632 -53.42434,1.09115 -79.31942,6.9437 -1.64037,0.70539 -3.90668,-0.0606 -3.43277,-1.95631 -0.57113,-40.72537 -0.84458,-81.45074 -0.39488,-122.17611 0.0242,-7.64909 0.49209,-15.31476 1.61004,-22.89773 2.64904,-10.32738 7.46106,-20.18629 13.42748,-29.29026 2.02932,-3.22936 6.28237,-5.06453 6.9264,-9.01023 -1.69821,-0.0386 -3.40779,-0.0575 -5.10366,-0.0276 z m 244.18578,15.706 c -3.08193,0.042 -5.55551,2.23539 -8.14156,3.52696 -26.10156,15.82724 -51.49233,32.56927 -76.94976,49.21212 0.21872,2.31456 3.51783,3.49389 5.68081,4.02293 12.26093,-1.41078 24.66768,-0.89232 37.00153,-0.88173 2.05362,13.71106 0.82028,27.64255 2.21761,41.38666 0.23088,23.54247 0.60156,47.07937 0.57725,70.62183 -0.20658,4.43074 1.04503,8.79536 0.66834,13.2261 0.0724,31.23572 0.11548,62.46581 0.0911,93.71247 0.14582,1.58713 -0.36455,3.15222 -1.64036,4.29848 -3.49965,3.31755 -7.9168,5.69825 -12.30351,7.93566 -4.35027,2.29252 -7.60689,6.03993 -9.47823,10.25023 3.57256,0.54006 7.21803,0.38576 10.81489,0.38576 33.87857,-0.0331 67.73286,0.0882 101.58712,-0.6613 0.21873,-0.63926 0.67437,-1.92334 0.88104,-2.56252 -0.34035,-0.54015 -1.04513,-1.62028 -1.39753,-2.14932 -5.35874,-2.51296 -11.75056,-5.19124 -13.9743,-10.6911 -3.47526,-19.73995 -3.33556,-39.83807 -5.80233,-59.65518 -1.02073,-16.2681 -3.45104,-32.45905 -4.55683,-48.71613 -1.55493,-8.68514 -0.18228,-17.58516 -1.57972,-26.25928 -0.55896,-25.05253 -1.70724,-50.08839 -2.58214,-75.14083 -0.0244,-3.62615 -0.67446,-7.35151 0.33411,-10.91153 3.57257,-3.09711 8.06864,0.84867 8.87065,4.24337 3.82774,12.23415 7.90454,24.43522 11.63507,36.70243 1.64047,5.56599 3.69408,11.03824 4.73912,16.72547 0.24313,0.15438 0.75951,0.47948 1.00254,0.63379 -3.66977,3.75842 -7.32136,7.53888 -11.27051,11.07686 1.67691,1.50997 3.16541,3.21279 4.34412,5.0976 2.18729,0.15422 3.94926,-1.12431 5.772,-2.03911 16.2831,-8.79527 32.59051,-17.6348 48.48476,-27.00329 3.59686,-1.97289 5.54112,-5.43919 5.83276,-9.17556 -2.41818,-11.74919 -7.79519,-22.79854 -12.78948,-33.80926 -4.41112,-10.14001 -9.01656,-20.23038 -14.33886,-30.00668 -2.36965,-3.67024 -5.00041,-8.06791 -9.93396,-9.14805 -7.8013,-1.09115 -15.35957,2.1272 -21.81206,5.78642 -6.98716,4.04498 -14.1626,7.87508 -20.62724,12.5924 -0.43745,-0.29768 -1.29419,-0.8873 -1.73165,-1.18489 -0.14581,-1.28955 -0.27948,-2.57908 -0.4253,-3.85761 -1.89565,-10.9446 -1.88349,-22.24189 -4.49609,-33.06525 -4.67834,-1.521 -9.10764,-3.78046 -14.06548,-4.51892 -0.21105,-0.0172 -0.43239,-0.002 -0.63791,0 z m 1105.33706,6.14467 c -3.5239,1.47692 -5.3041,4.66767 -6.9567,7.63252 -9.0529,16.35628 -18.8714,32.43146 -30.5612,47.36602 -13.622,18.08669 -29.5284,34.6358 -46.4799,50.17647 -1.5189,1.39976 -2.977,2.86019 -4.0707,4.54643 -1.4581,2.82157 0.4011,7.05947 4.1923,7.19173 8.6641,0.68335 17.3951,0.69993 26.0956,0.30305 1.1178,48.98067 2.4972,97.95586 2.3391,146.94754 -0.401,11.38547 -0.723,22.77093 -0.8203,34.16742 0.048,29.45011 -0.4251,58.87819 1.4583,88.28422 0.1701,3.13018 3.3235,5.03694 5.6201,6.99881 17.1094,11.50671 37.1717,18.67085 56.8086,25.7909 21.3503,7.605 43.0895,14.2401 65.0108,20.39023 2.6856,0.72743 5.9847,0.9865 8.2935,-0.79903 6.6711,-3.82454 10.2437,-10.42111 15.6755,-15.40294 9.0407,-8.39857 17.5347,-17.28766 27.0979,-25.2123 2.3939,-2.16017 6.3492,-3.80797 5.8633,-7.46719 -0.097,-2.81054 -3.5361,-2.84916 -5.7113,-3.22391 -20.6212,-1.16821 -41.2485,-2.36411 -61.8818,-3.33403 -8.895,-0.28656 -18.0027,-1.4934 -26.703,0.6338 2.503,4.49686 8.7126,4.16066 13.3667,5.31794 13.4152,2.72238 27.1404,4.3095 40.3127,7.99077 0.4617,1.56509 1.7621,3.74193 -0.2431,4.87717 -7.9834,6.13911 -15.7179,12.64742 -24.3941,17.99297 -3.925,1.04706 -7.3276,-2.28151 -10.8149,-3.52697 -12.8808,-6.02889 -25.5549,-12.41048 -38.4598,-18.40631 -1.4581,-12.30028 -1.0024,-24.69975 -1.853,-37.03309 -0.4376,-22.77093 -1.124,-45.50334 -1.5494,-68.25214 -0.4619,-12.49867 0.1943,-25.01937 -0.9721,-37.47395 -0.097,-27.19074 -0.6501,-54.39789 -0.5774,-81.58856 -0.06,-2.52397 0.2857,-5.09204 -0.5163,-7.54989 -0.2673,-16.3673 0.019,-32.75109 -0.1518,-49.1295 15.3109,-1.23443 30.6947,-1.89018 46.0544,-2.45229 1.5676,-7.16413 1.0085,-14.55973 1.3973,-21.82307 -6.3672,0.20986 -12.7409,0.25906 -19.1082,0.19293 -4.0829,-0.0661 -8.1538,1.00845 -12.2123,0.30305 -5.7599,0.46291 -11.5562,0.20942 -17.3161,0.33066 -0.729,-18.09772 -1.9807,-36.16783 -2.7948,-54.25462 -0.2795,-3.64819 0.243,-7.35697 -0.6684,-10.93904 -0.571,-9.3244 -0.3584,-18.67639 -1.61,-27.96773 -0.7898,-0.39669 -2.3695,-1.20128 -3.1595,-1.59807 z m 296.6806,50.61734 c -0.8286,-0.003 -1.6708,0.24795 -2.5215,0.82664 -22.213,17.37027 -43.9703,35.24755 -66.3172,52.46353 -3.6455,2.87667 -5.8814,6.78384 -8.506,10.38804 0.072,1.33355 0.1519,2.68922 0.2734,4.02285 6.0272,0.22044 12.036,-0.8321 18.0755,-0.52349 -0.3646,19.06763 1.1908,38.05264 1.0935,57.12027 0.4254,9.13702 -0.2794,18.40077 0.7899,27.47167 0.2431,34.5642 1.1605,69.09535 0.7595,103.65955 -0.2795,12.03576 -0.2856,24.72735 -6.2277,35.7931 -7.6433,10.28337 -17.7594,21.53649 -32.3535,22.7048 0.7533,2.54603 1.9747,4.97636 3.129,7.41217 17.4619,-1.89574 34.9176,1.41634 51.6138,5.86913 13.2452,3.68117 26.6241,7.04281 40.161,9.75416 13.5247,2.97587 27.3896,4.41381 41.3153,4.38119 4.3259,0.80459 8.822,0.35269 13.2452,0.6062 10.256,-0.15431 20.5361,0.47393 30.8042,-0.0552 0.097,-2.42478 0.2133,-4.84957 0.2734,-7.27436 -4.7634,-0.42984 -9.4537,-1.31158 -14.1566,-1.87369 -2.0049,-0.507 -3.9796,-0.82117 -5.9238,-1.2951 -11.2889,-2.35865 -22.5472,-5.57145 -32.536,-10.99415 -7.9105,-4.28747 -15.153,-10.90051 -16.3437,-19.56361 -1.3124,-25.04141 -2.7827,-50.09385 -3.4024,-75.16834 -1.1788,-9.82037 -0.158,-19.79506 -1.3976,-29.59339 -0.7168,-11.3965 0.031,-22.91978 -1.2454,-34.25004 -0.5711,-33.13148 -2.4121,-66.21322 -2.9468,-99.33357 4.6419,-2.61216 9.1259,-5.44475 13.6098,-8.26631 2.175,6.10604 4.2348,12.2396 6.3491,18.37872 4.2531,12.04677 8.2206,24.17069 12.4859,36.20653 0.4251,1.41079 1.0024,2.89317 0.6379,4.3811 -4.9214,6.39262 -10.4686,12.42152 -15.1592,18.95742 2.1387,1.81858 4.3868,3.59855 6.0151,5.86912 17.4375,-12.19014 34.796,-24.5069 51.9176,-37.06068 5.9664,-4.92672 13.2816,-9.00477 16.9515,-15.7611 0.972,-4.64016 0.6439,-9.59439 -1.3975,-13.97003 -5.7719,-13.40252 -13.8103,-25.86258 -21.6602,-38.32818 -5.0793,-7.52785 -9.8609,-15.2541 -15.5237,-22.42926 -1.3366,-2.07208 -4.5203,-2.17674 -6.8049,-1.79107 -3.4266,0.37473 -5.6444,2.95938 -8.4148,4.4914 -12.5041,7.12006 -25.2631,13.88741 -37.913,20.776 -1.7984,-9.71016 -1.689,-19.64075 -3.7062,-29.31785 -0.401,-2.39719 -2.5571,-4.67393 -5.0429,-4.68425 z m -162.7703,27.58189 c -3.2559,0.0838 -6.5086,0.434 -9.5997,1.18489 -23.2217,16.43343 -45.696,33.79268 -69.0513,50.03874 -2.4911,10.56986 -2.7341,21.51992 -4.3138,32.21102 -0.1337,7.098 -3.1715,13.87092 -3.0987,20.96893 1.3731,28.99821 1.0511,58.00746 1.4887,87.01671 -0.1216,7.09801 -2.643,13.92047 -2.9468,20.99644 4.5447,4.28745 8.7369,8.88353 13.2452,13.2261 16.1858,15.0998 32.4143,30.44207 51.6138,42.43374 2.9892,2.10515 6.8596,2.5074 10.4807,3.11368 9.2352,0.77152 18.5554,1.7469 27.8271,0.46838 4.4961,0.2535 7.8864,-2.84908 10.3896,-5.86904 8.4332,-11.24218 17.9843,-21.75146 27.098,-32.54176 4.8606,-6.1832 10.8756,-11.71056 14.5212,-18.59916 -7.9959,-10.45963 -14.0473,-22.36322 -23.8172,-31.5774 -1.1058,0.0882 -3.3295,0.2811 -4.4353,0.35825 -0.8263,6.88859 -2.6126,13.6064 -4.253,20.36264 -4.727,17.56867 -9.8732,35.21458 -18.5615,51.58179 -0.9842,1.64224 -2.0356,4.94886 -4.7088,3.30652 -13.4397,-6.85552 -23.3432,-19.32659 -26.7942,-32.92743 -2.0901,-11.31933 -1.4036,-22.87013 -2.4608,-34.27765 -0.3401,-14.30622 -0.6258,-28.61245 -0.6378,-42.9297 -0.1095,-1.85166 0.1823,-3.83558 -0.8507,-5.51088 1.1908,-1.69736 0.7049,-3.67571 0.2431,-5.48336 0.5589,-7.75923 -2.0719,-16.20745 2.3999,-23.44874 12.8686,-0.13225 25.2691,3.35062 37.7003,5.95175 7.4489,1.64224 14.8613,3.41127 22.2981,5.15263 1.5676,0.42984 3.1289,0.74947 4.7696,1.10217 5.3953,1.30057 10.8331,2.46887 16.2527,3.74739 1.9562,0.39688 4.5506,0.93138 5.9845,-0.79903 10.8029,-9.12601 17.4618,-21.40424 24.2424,-33.06525 -2.3331,-7.31845 -5.8996,-14.37237 -8.6581,-21.60263 -4.1192,-9.86447 -8.2872,-19.71236 -12.2729,-29.621 -2.564,-5.62109 -4.3746,-11.53422 -7.1695,-17.05611 -8.2509,-4.71731 -17.1215,-8.58595 -25.6398,-12.95056 -3.1958,-1.50998 -6.4038,-2.99792 -9.5998,-4.46381 -8.4452,-3.78045 -16.763,-8.0293 -25.8524,-10.38804 -1.9276,-0.10315 -3.8791,-0.1603 -5.8328,-0.11022 z m -2.1264,19.31566 c 2.2847,0.0494 4.2767,1.09539 4.7391,3.55456 4.7269,11.02175 9.5268,21.99386 14.3387,32.98254 6.2218,13.89843 11.8722,28.02832 18.4704,41.77244 -0.036,0.93685 -0.043,1.87369 -0.031,2.81055 -7.4126,0.34167 -14.8006,-0.92584 -22.1159,-1.65327 -10.4989,-0.55109 -20.9371,-1.90677 -31.4118,-2.70032 0.036,-11.24219 1.361,-22.42371 1.8229,-33.64385 1.5066,-13.17109 0.3887,-27.07498 6.6225,-39.37526 1.2166,-2.25046 4.6268,-3.81052 7.5643,-3.74739 z m -905.47429,3.19631 c 6.27032,4.78344 13.43363,9.38497 21.84248,10.11242 -0.8385,1.91786 -1.72554,3.84112 -2.55178,5.7589 -1.73771,4.39768 -3.34176,8.8174 -4.8607,13.28121 -1.60394,3.83557 -1.81056,8.07894 -3.82773,11.79327 -4.168,7.66012 -8.71869,15.11629 -13.21477,22.6221 -11.21599,17.93247 -21.81818,36.19543 -34.05481,53.5657 -2.51538,-1.90676 -2.77056,-5.00933 -3.82775,-7.63251 -7.29095,-23.25589 -14.0655,-46.65507 -20.80952,-70.04322 -0.87501,-2.76647 -0.60757,-5.94073 1.57971,-8.1561 4.33802,-5.73131 14.29627,-4.92672 17.65011,-11.51773 -17.24308,0.507 -34.46185,2.70033 -51.7657,2.4799 -13.31812,0.83765 -26.76991,0.24247 -40.03944,1.43282 -4.19227,0.22044 -8.38457,0.34167 -12.57686,0.38577 -1.03288,1.22341 -1.80455,2.57362 -2.27847,4.05053 5.23733,0.48496 11.34354,1.31705 14.85533,5.26284 2.87994,5.3676 4.68439,11.10992 6.95683,16.69796 2.13867,5.4778 4.0039,11.07139 6.10612,16.56012 4.09507,11.37446 8.08079,22.78752 12.09081,34.19503 9.24734,27.02534 18.64051,54.00657 27.15876,81.2303 0.48606,2.40274 1.59787,5.37862 -0.27336,7.49479 -4.08293,4.6071 -7.11479,9.86993 -10.78456,14.74155 -12.3217,17.8883 -24.95933,35.59478 -37.0623,53.5933 -33.36821,3.07507 -67.07666,1.21239 -100.25044,-2.86565 -10.0858,-1.6202 -20.65766,-2.19888 -30.01438,-6.2548 0.15798,-5.65425 3.00144,-10.83438 5.10367,-16.03673 1.09364,-1.89566 1.44603,-4.77233 4.19228,-5.23525 12.99003,-3.46091 26.13803,-6.4643 39.18882,-9.72674 1.67691,-0.57313 4.02819,-0.77152 4.4049,-2.81055 -3.46321,-2.33661 -8.1051,-0.83765 -12.03006,-1.87369 -15.82135,-1.19035 -31.60623,-2.9153 -47.45178,-3.88512 -10.96072,9.40154 -21.75131,19.21637 -29.89286,30.8333 -1.93219,3.51593 -5.28603,7.11449 -4.73912,11.21458 7.71615,3.78047 15.57832,7.31298 23.63471,10.49826 4.50823,1.75246 9.03474,3.53798 13.64018,5.12512 4.41102,1.63122 8.94356,2.9704 13.42749,4.43621 6.42818,1.97299 12.88066,3.94032 19.44251,5.53847 19.01721,5.05898 38.49013,8.55834 58.05417,11.32481 20.60896,2.22648 41.35782,3.83556 62.12485,3.47193 38.16809,-45.29947 71.4634,-93.82816 102.01244,-143.61339 11.58044,-18.92444 22.0491,-38.40534 33.81177,-57.23049 13.07514,-21.24993 26.27164,-42.44476 37.54834,-64.53235 3.1836,-7.10902 7.4063,-13.81025 11.8174,-20.33513 0.1094,-0.92582 0.2127,-1.88471 0.3342,-2.81054 -5.1158,1.10217 -10.3957,0.88173 -15.5844,0.71641 -9.2231,-1.05809 -18.4461,-1.98391 -27.7664,-2.14924 -10.40173,-1.10217 -21.02818,0.13226 -31.32069,-1.70837 z m 488.94879,13.50164 c 1.6163,5.23533 0.1459,10.70213 -1.7012,15.706 -4.0587,8.05689 -11.2766,14.33929 -19.078,19.45338 -6.9628,4.8606 -16.3862,5.4668 -22.8753,11.02175 -0.8868,-1.26749 -1.2698,-2.62864 -1.1848,-4.10555 0.025,-4.83855 -0.3767,-9.74878 1.0328,-14.46609 13.9986,-9.95264 29.0545,-18.61574 43.8065,-27.60949 z m -246.3731,31.30177 c 4.0465,0.17636 8.1902,-0.044 12.1516,0.93686 10.8392,0.79355 21.5756,2.55704 32.1106,5.01489 l 1.0632,2.39728 c 0.048,0.91471 0.1153,1.82951 0.2126,2.75543 -4.0466,5.95175 -8.9495,11.34685 -13.7617,16.78057 -4.5932,1.521 -6.9443,-2.82157 -9.7515,-5.12511 -7.4972,-7.46173 -14.9525,-14.97856 -22.0248,-22.75992 z m 250.7779,19.67383 c 3.354,22.66071 6.6956,45.33801 8.6278,68.14201 0.7289,8.07885 0.054,16.21847 1.0632,24.27536 0.5591,6.64612 -0.7655,13.24814 -0.5467,19.89427 -0.1459,12.90646 -1.5008,25.76885 -3.19,38.57611 -1.1786,6.66816 -1.8408,13.56778 -4.8301,19.83916 -6.8535,3.57104 -13.6705,7.2688 -21.1438,9.67154 -1.8348,0.74947 -3.8579,0.83218 -5.8023,0.68891 -5.2372,-4.88265 -11.2039,-9.44009 -14.8858,-15.45806 -2.4546,-24.36909 -4.7144,-48.83182 -5.6503,-73.32214 -1.1179,-7.62706 -0.6745,-15.36432 -1.0026,-23.03546 -1.4704,-19.24398 -0.881,-38.57613 -1.0633,-57.86419 3.123,-1.2675 6.2459,-2.54047 9.4783,-3.60967 5.8448,-2.49091 11.9389,-4.45825 17.7109,-7.13654 7.0479,-0.57313 14.1505,-0.58415 21.2347,-0.6613 z m -333.9554,354.01861 c 0.4008,1.9512 0.7683,3.90567 1.0938,5.86913 -0.325,-1.96134 -0.6938,-3.92022 -1.0938,-5.86913 z m 1.7925,10.36045 c 0.6795,4.47342 1.3235,8.97302 2.1873,13.41893 -0.8654,-4.45578 -1.5061,-8.93449 -2.1873,-13.41893 z"
           id="path6"
           inkscape:connector-curvature="0" />
        <path
           id="path5326"
           d="m 48.998933,548.49957 v 9.56601 m 6.4,11.23769 V 546.2536 m 6.4,-1.89993 v 34.58872 m 6.4,-18.52006 v -17.68125 m 0,21.46302 v 22.67058 m 6.4,-30.04231 v -15.45279 m 0,27.77306 v 24.36102 m 6.4,-39.976 v -13.23747 m 0,33.09393 v 25.18654 m 6.4,-48.31167 v -11.02962 m 0,37.92778 v 25.07632 m 6.4,-55.23486 v -8.69843 m 0,42.43445 v 24.4518 m 6.399997,-61.4482 v -6.27685 m 0,46.63802 v 23.99072 m 0,172.34711 v -4.02398 m 6.4,-410.55601 v 2.05148 m 0,243.0851 v -23.75237 m 0,185.0943 v 8.92479 m 6.4,-410.80754 v -7.64474 m 0,227.49879 v 23.59046 m 0,167.44624 V 769.4671 m 6.4,-406.52162 v 11.20147 m 0,242.49423 v -23.45707 m 0,172.63616 v 15.6167 m 6.4,-401.58988 v -16.4443 m 0,232.61008 v 23.34683 m 0,162.16049 v -20.54423 m 6.4,-397.41921 v 45.68715 m 0,212.83431 v -23.52785 m 0,155.38909 v 27.66396 m 6.4,-156.80668 V 363.52155 m 0,365.15152 v 53.01356 m 6.4,0.0832 V 363.53172 m 6.4,0.0187 v 418.30266 m 6.4,0.11134 V 363.46163 m 6.4,-0.38332 V 782.1678 m 6.4,0.20336 V 362.93772 m 6.4,-0.0953 v 419.73205 m 6.4,0.20405 V 362.74725 m 6.4,-0.0953 v 420.44784 m 6.4,0.32125 V 362.5568 m 6.4,-0.0953 v 421.28076 m 6.4,0.32125 V 362.21133 m 6.4,-0.29184 v 422.6256 m 6.4,-382.34145 V 361.6675 m 0,59.37772 v 364.026 m 6.4,-410.86423 v -12.61826 m 0,225.03236 v 31.61457 m 0,167.41227 v -22.32665 m 6.4,-401.81133 v 7.28218 m 0,248.07621 v -31.82965 m 0,189.35518 v 11.98902 m 6.4,-171.00624 v -32.78231 m 0,196.32093 v 8.50895 m 6.4,-173.61855 v -34.015 m 0,202.8143 v 6.31738 m 6.4,-176.91801 V 576.6022 m 6.4,-3.32066 v 36.77925 m 6.4,-2.10369 v -38.13869 m 6.4,-3.60877 v 39.30507 m 0,210.0497 v -8.3807 m 6.4,-244.69101 v 40.36969 m 0,214.79872 v -14.21844 m 6.4,-465.50921 v 7.40936 m 0,254.59348 v -41.42389 m 0,240.13833 v 18.51748 m 6.4,-467.66068 v -10.9085 m 0,215.8611 v 42.04263 m 0,220.26391 v -24.61712 m 6.4,-452.92818 v 37.1025 m 0,216.36058 v -42.67715 m 0,230.76385 v 35.82674 m 6.4,-217.92895 V 339.71111 m 0,408.58828 v 68.12973 m 6.4,-0.01 V 339.8551 m 6.4,0.21658 V 816.4598 m 6.4,0.0404 V 340.29945 m 6.4,0.0938 V 816.5406 m 6.4,0.0404 V 340.46707 m 6.4,-0.0879 v 476.45407 m 6.4,0.33749 V 340.2678 m 6.4,-0.30181 v 477.54985 m 6.4,0.53548 v -478.4139 m 6.4,-0.43087 v 479.38023 m 6.4,0.60122 V 338.76206 m 6.4,-0.44995 v 481.58863 m 6.4,-457.18795 v -24.89712 m 0,184.34557 v 21.54119 m 0,276.91103 v -34.72407 m 6.4,-448.41602 v 12.90844 m 0,190.76991 v -20.30846 m 0,280.01811 v 20.57625 m 6.4,-479.2994 v -4.84258 m 0,182.43594 v 19.37489 m 0,48.2849 v -21.49723 m 0,242.86324 v 13.54963 m 6.4,-379.88362 v -14.00746 m 0,90.31303 v 18.70833 m 0,69.48176 v -49.96752 m 0,256.26038 v 9.91994 m 6.4,-366.82491 v -31.83732 m 0,93.41547 v 18.23888 m 0,88.37827 v -74.40022 m 0,266.96995 v 4.74275 m 6.4,-354.32347 v -47.2095 m 0,96.92258 v 17.6205 m 0,107.33049 v -98.17521 m 6.4,-127.64437 v 61.16759 m 0,56.21075 v -17.07776 m 0,21.66457 v 121.52409 m 6.4,-172.80902 v -74.59285 m 0,103.87674 v 16.31123 m 0,142.49144 V 532.80635 m 6.4,-123.95944 v 83.50811 m 0,186.12807 V 515.96338 m 6.4,-110.69267 v 59.76518 m 0,214.9495 V 515.65975 m 6.4,-113.5858 v 57.84511 m 0,221.01504 V 515.67265 m 6.4,-116.73997 v 57.52267 m 0,223.96597 V 515.68555 m 6.4,-119.60824 v 57.0977 m 0,88.44835 v -25.92493 m 0,62.83766 v 98.30403 m 6.4,-226.77314 v -56.64061 m 0,122.4005 v 20.22543 m 0,136.36345 v -69.3259 m 6.4,-212.19226 v 56.34709 m 0,83.42181 v -14.70781 m 0,107.13123 v 44.90148 m 6.4,-223.56899 v -54.03722 m 0,125.98124 v 9.10163 m 0,138.186 v -19.59822 m 6.4,-247.94598 v 45.63448 m 0,80.15993 v -4.55477 m 0,124.96056 v 17.06015 m 6.4,-219.36552 V 402.093 m 0,235.19052 v 17.80284 m 6.4,-122.23623 V 408.07617 m 0,177.39562 v 87.89062 m 6.4,4.4589 V 414.05933 m 6.4,6.0838 V 678.9411 m 6.4,-0.015 V 426.37391 m 6.4,6.23078 v 245.04202 m 6.4,-3.08357 V 438.83548 m 6.4,6.26374 v 223.64947 m 6.4,-7.84535 V 451.65966 m 6.4,7.34478 v 195.49443 m 6.4,-245.68139 v -5.04936 m 0,64.7103 v 180.87192 m 6.4,-239.89516 v -9.85714 m 0,103.6281 v 71.58362 m 0,69.39205 v -20.22793 m 6.4,-228.54593 v 13.56632 m 0,230.05902 v -13.43645 m 6.4,-234.35898 v 17.5708 m 0,225.0761 v -7.84635 m 6.4,-238.97063 v 21.71273 m 0,219.78915 v -3.14828 m 0,17.17189 v 8.08336 m 6.4,-241.86429 v -25.91465 m 0,255.6411 v 12.12722 m 6.4,-241.82184 v -30.07102 m 0,255.92048 v 15.96457 m 6.4,-0.007 V 374.71482 m 6.4,-4.07833 v 280.02609 m 6.4,-0.007 V 366.61763 m 6.4,-3.95615 v 287.98549 m 6.4,-0.007 V 358.70533 m 6.4,-3.83147 v 295.75749 m 6.4,-0.0267 V 353.09661 m 6.4,1.77447 v 295.65811 m 6.4,-0.0755 V 357.21995 m 6.4,37.68679 v 255.4714 m 6.4,-236.84363 v -21.54847 m 0,150.34591 v 107.97066 m 6.4,-223.28489 v -38.8949 m 0,225.79987 v 36.3044 m 0,62.12714 v -9.04005 m 6.4,-318.87201 v 62.76413 m 0,39.52047 v -6.34533 m 0,159.12462 v 10.6455 m 0,65.1987 v -20.96279 m 6.4,-313.39665 v 87.58965 m 0,18.12176 v -12.65126 m 0,169.51544 v 6.50962 m 0,68.0922 v -31.10772 m 6.4,-308.6854 v 104.8579 m 0,237.62808 v -40.25738 m 6.4,-303.47215 v 102.61473 m 0,243.59993 v -48.67914 m 6.4,-297.01031 v 98.6028 m 0,249.49136 V 669.0678 m 6.4,-285.95458 v 89.64522 m 0,255.22606 v -58.4152 m 6.4,-274.89198 v 74.43802 m 0,221.08779 v -20.13232 m 0,40.68538 v 19.34276 m 6.4,-264.62672 v -57.39452 m 0,216.008 v 4.06495 m 0,58.37222 v -15.95057 m 0,41.65951 v 19.88875 m 6.4,-270.29144 v -39.44998 m 0,197.4487 v 10.78552 m 0,54.29483 v -13.82116 m 0,42.21001 v 20.74912 m 6.4,-276.19447 v -20.22307 m 0,176.98511 v 17.65089 m 0,51.02888 v -11.65995 m 0,42.59078 v 21.54752 m 6.4,-346.76966 v -5.39521 m 0,224.73904 v 24.18612 m 0,49.17086 v -9.52294 m 0,42.89785 v 22.34607 m 6.4,-349.43293 v -9.69346 m 0,214.03578 v 40.04288 m 0,47.76438 v -7.41405 m 0,43.01796 v 23.24778 m 6.4,-107.20967 V 372.55831 m 0,300.8055 v 5.21446 m 0,61.93158 V 716.4112 m 6.4,-349.59216 v 264.64581 m 0,45.36331 v -2.86351 m 0,43.11318 v 24.7613 m 6.4,-110.79736 V 361.07975 m 0,356.55776 v 25.53091 m 6.4,-112.79966 V 355.34048 m 0,362.68346 v 26.2856 m 6.4,-114.36876 V 349.60119 m 0,368.80918 v 27.03045 m 6.4,-115.7255 v -285.8534 m 0,374.93487 v 27.66835 m 6.4,-116.7566 V 338.12265 m 0,380.94563 v 28.36894 m 6.4,-117.40029 V 332.38336 m 0,386.82265 v 29.07379 m 6.4,-118.02096 V 327.98299 m 0,391.2673 v 29.66324 m 6.4,-118.46038 V 326.41277 m 0,392.78815 v 30.34632 m 6.4,-343.36209 v -71.96836 m 0,122.65096 v 173.77971 m 0,119.38939 v -30.9946 m 6.4,-344.02552 v 22.88732 m 0,90.52028 v -4.5426 m 0,135.85718 v 11.30247 m 0,119.47968 v -31.73177 m 6.4,-347.8111 v 27.07006 m 0,92.13166 v -6.49449 m 0,142.14064 v 5.77721 m 0,119.29386 v -32.4879 m 6.4,-351.45694 v 51.19681 m 0,40.95838 v -8.68514 m 0,33.01376 v 13.4181 m 0,254.32635 v -33.24491 m 6.4,-354.89058 v 74.52532 m 0,21.53501 v -15.16708 m 0,39.10777 v 30.13476 m 0,238.25576 v -39.44149 m 6.4,-352.78259 v 96.53211 m 0,74.96625 v -47.88595 m 0,219.86009 v 48.78281 m 6.4,-299.11967 v -96.44492 m 0,126.77442 v 66.13359 m 0,202.68781 v -58.12414 m 6.4,-339.34199 v 94.73592 m 0,118.35897 v -84.56137 m 0,201.57969 v 62.10348 m 6.4,-301.0822 v -87.708 m 0,124.90809 v 103.49018 m 0,152.60822 v -63.51938 m 6.4,-308.60387 v 75.04037 m 0,163.35506 V 482.1081 m 0,183.63881 v 64.75638 m 6.4,-292.92087 v -60.03851 m 0,104.454 v 142.31134 m 0,98.03314 v -65.73426 m 6.4,-266.76611 v 43.76555 m 0,211.61559 V 481.88772 m 0,165.61267 v 66.55356 m 6.4,-284.45001 v -26.59215 m 0,78.51009 v 223.99661 m 6.4,-281.83737 v -3.41897 m 0,60.89182 v 215.72922 m 6.4,-199.90241 v -16.26049 m 0,16.48543 v 190.77249 m 6.4,-200.23956 v -7.4541 m 0,39.56941 v 159.12537 m 6.4,-193.9312 v -5.08281 m 0,61.58511 v 128.16215 m 6.4,-189.45033 v -0.60994 m 0,82.99368 v 97.6928 m 6.4,-9.61789 v -74.53896 m 6.4,-9.46832 v 74.25377 m 6.4,-9.9553 v -74.19166 m 6.4,-10.18999 v 74.25106 m 6.4,-10.27571 v -74.35462 m 6.4,-10.37928 v 74.00525 m 6.4,-138.40212 v -1.36926 m 0,55.14153 v 73.73897 m 6.4,-123.41351 v -4.81041 m 0,43.414 v 73.90825 m 6.4,-109.62489 v -7.49943 m 0,26.28439 v 79.84673 m 6.4,-97.18641 v -8.85027 m 0,9.74008 v 85.64688 m 6.39997,-10.54138 v -84.55407 m 6.4,0.3651 v 73.67442 m 6.4,-10.51455 v -62.8197 m 6.4,0.42924 v 51.62966 m 6.4,-11.10886 v -39.86937 m 6.4,0.5833 v 27.36444 m 6.4,-12.31236 V 463.8113 m 6.4,-0.51341 v 5.10131 m 44.8,-190.06671 v -7.67474 m 0,221.77311 v 21.91236 m 0,135.27194 v -9.63782 m 6.4,-369.31959 v 52.73194 m 0,226.318 v -55.2433 m 0,151.60149 v 38.69072 m 6.4,-316.6022 v -97.32011 m 0,226.44766 v 90.38844 m 0,132.22766 v -67.74364 m 6.4,-381.1246 v 141.68701 m 0,217.8241 V 500.45421 m 0,157.73517 v 96.84793 m 6.4,-297.96595 V 271.22532 m 0,232.53643 v 286.29469 m 6.4,35.34446 V 271.45522 m 6.4,0.25737 v 589.62368 m 6.4,33.99968 v -623.366 m 6.4,0.23921 v 606.83677 m 6.4,-74.69429 V 272.38015 m 6.4,0.17099 v 470.1604 m 6.4,11.4993 v -481.6512 m 6.4,-0.0212 V 765.391 m 6.4,11.09555 V 272.50539 m 6.4,-0.0458 v 439.44819 m 6.4,-92.19136 v -347.3025 m 6.4,-0.0458 v 359.02576 m 6.4,-336.97569 V 272.3224 m 0,28.06018 v 342.68874 m 6.4,-317.42193 v -20.86686 m 0,186.63983 v 18.94743 m 0,144.37896 v -72.51542 m 6.4,-279.45282 v 21.31626 m 0,195.6626 v -29.11458 m 6.4,-189.90701 V 322.796 m 0,181.93251 v -14.90469 m 0,17.89445 v 21.43068 m 6.4,-207.60312 v -22.85078 m 0,190.16201 v 16.21982 m 0,33.53636 V 514.4997 m 6.4,-217.90124 v 23.72732 m 0,185.59837 v -17.80172 m 0,32.90838 v 27.13232 m 6.4,-229.05744 v -24.63728 m 0,193.20274 v 18.9409 m 0,51.10092 v -30.23564 m 6.4,-235.13899 v 26.20547 m 0,188.96031 v -19.93295 m 0,45.04416 v 26.98544 m 6.4,-228.88954 v -40.46649 m 0,197.60412 v 20.91251 m 0,50.13257 v -29.92679 m 6.4,-240.02812 v 90.11175 m 0,130.96782 v -21.79057 m 0,33.04842 v 36.59506 m 6.4,-1.29995 V 290.40987 m 6.4,6.81014 v 257.70152 m 6.4,-1.83493 V 304.03015 m 6.4,6.93218 v 240.0767 m 6.4,-2.30643 V 317.94897 m 6.4,7.01264 V 546.2958 m 6.4,-2.82803 V 332.07431 m 6.4,7.11271 v 201.04407 m 6.4,-3.76872 V 346.29972 m 6.4,7.11271 v 178.57688 m 6.4,-5.42858 V 360.61738 m 6.4,7.43252 v 123.38345 m 0,36.42173 v -15.33512 m 6.4,-134.96325 v 46.17883 m 0,105.82136 v -15.05733 m 6.4,1.89586 v 15.20779 m 6.4,2.36811 V 517.8143 m 6.4,-4.72529 v 152.99038 m 6.4,8.56754 V 499.80084 m 6.4,-5.99859 v 186.92498 m 6.4,5.4166 v -196.1734 m 6.4,-3.67942 v 204.84917 m 6.4,4.94178 V 482.61341 m 6.4,-3.49179 v 221.70304 m 6.4,4.71296 V 475.62985 m 6.4,-3.39416 v 237.87363 m 6.4,4.5717 V 469.07034 m 6.4,-3.16536 v 31.5697 m 0,36.22166 v -17.35581 m 0,148.00612 v 54.90606 m 6.4,-226.08296 v -30.26158 m 0,50.80527 v 17.51621 m 0,192.34326 v -28.429 m 6.4,-235.05317 v 29.03468 m 0,39.58392 v -17.44553 m 0,190.08878 v 24.42054 m 6.4,-240.62189 v -27.65355 m 0,50.08112 v 18.49676 m 0,200.24251 v -20.91377 m 6.4,-250.21062 v 26.07899 m 0,43.52909 v -22.09926 m 0,201.0847 v 22.48908 m 6.4,-248.88218 v -23.91622 m 0,42.84851 v 28.16354 m 0,201.30831 v -24.6396 m 6.4,-248.15545 v 20.51234 m 0,50.87149 v -39.84458 m 0,213.4692 v 26.41504 m 6.4,-188.04408 v -81.45024 m 0,238.57387 v 28.85606 m 6.4,-135.04113 V 458.2713 m 0,197.77477 v 63.695 m 6.4,-2.62125 V 461.68258 m 6.4,3.97276 v 248.64681 m 6.4,-2.81964 V 469.76807 m 6.4,4.56793 v 234.05563 m 6.4,-3.115 V 479.14556 m 6.4,5.11156 v 217.29913 m 6.4,-261.78647 v -9.71949 m 0,59.98789 v 206.86886 m 6.4,-257.10998 v -13.24188 m 0,71.50515 v 192.97928 m 6.4,-251.21529 v -16.76945 m 0,93.79284 v 166.47953 m 6.4,-243.47565 v -20.79363 m 0,142.98332 v 104.71471 m 6.4,-226.87713 v -24.81781 m 6.4,-4.31932 v 29.1644 m 6.4,0.0273 v -33.64938 m 6.4,-4.65169 v 38.32834 m 6.4,14.14667 v -57.3428 m 0,192.26157 v 137.83254 m 6.4,6.37992 V 391.71692 m 6.4,-5.42502 v 350.97246 m 6.4,3.33442 V 380.68234 m 6.4,-6.03043 V 743.8504 m 6.4,3.19474 V 368.36262 m 6.4,-6.6957 v 388.3982 m 6.4,3.01997 V 354.54182 m 6.4,-7.43668 v 408.90494 m 6.4,2.87813 V 339.81882 m 6.4,-3.42924 v 286.34417 m 0,139.0326 v -18.22476 m 6.4,-329.03456 v 27.02464 m 0,323.11281 v -15.69499 m 6.4,-334.393 v 26.66191 m 0,326.30421 v -13.7939 m 6.4,-339.12275 v 26.51898 m 0,329.19021 v -12.24701 m 6.4,-343.40109 v 26.36443 m 0,33.91595 v -7.9313 m 0,295.10788 v 6.08856 m 6.4,-327.27455 v -26.20054 m 0,45.98828 v 15.47851 m 6.4,-35.3597 V 414.8079 m 0,39.84838 v 21.82129 m 6.4,0.0606 v -28.26102 m 6.4,-6.55501 v 34.6918 m 6.4,269.96748 V 434.6866 m 6.4,-7.18385 v 325.85346 m 6.4,3.96591 V 419.51044 m 6.4,-8.21514 v 349.5404 m 6.4,3.0168 V 402.63363 m 6.4,-9.59592 V 766.8693 m 6.4,2.62213 V 382.75122 m 6.4,-10.9602 v 400.25865 m 6.4,2.43693 V 361.62299 m 6.4,-0.98002 v 416.19266 m 6.4,2.30825 V 453.88941 m 6.4,-0.0275 v 23.0723 m 0,304.41012 V 758.7262 m 6.4,-305.0484 v 22.8452 m 0,307.02177 v -21.75562 m 6.4,-307.98561 v 22.30827 m 0,309.52464 v -20.78434 m 6.4,-311.41366 v 22.31834 m 0,311.93729 v -19.77902 m 6.4,-314.691 v 22.26223 m 0,272.59372 v -4.91658 m 0,27.81459 v 18.73473 m 6.4,-314.49695 v -22.05633 m 0,186.90263 v 11.07959 m 0,98.14026 v -6.35812 m 0,31.11716 v 17.55924 m 6.4,-316.65491 v -21.85047 m 0,41.19208 v 163.24552 m 0,92.90578 v -7.28883 m 0,33.94801 v 16.39029 m 6.4,-129.63143 V 484.77163 m 0,258.65822 v 8.15762 m 0,43.78769 v -15.3184 m 6.4,-299.83793 v 189.57609 m 0,82.94178 v -8.97603 m 0,34.77574 v 18.72621 m 6.4,-121.59324 V 475.65072 m 0,268.45476 v 9.83539 m 0,45.14281 v -24.9856 m 6.4,-303.13141 v 210.37707 m 0,73.86528 V 744.4503 m 0,24.8089 v 29.46678 m 6.4,-111.86325 V 466.2826 m 0,278.51251 v 11.96667 m 0,37.26888 v -29.75433 m 6.4,-302.66643 v 230.39564 m 0,94.95083 v -41.81643 m 6.4,-288.18765 v 240.06218 m 0,83.43855 v -34.96827 m 6.4,-293.19008 v 249.25832 m 0,72.77282 v -28.49624 m 6.4,-298.19251 v 258.0617 m 0,62.53586 v -22.06024 m 6.4,-303.19493 v 49.43614 m 0,59.04746 v -17.8257 m 0,123.24838 v 50.99447 m 0,54.45045 V 746.5192 m 6.4,-308.04837 v 21.48965 m 0,91.8425 v -17.57806 m 0,141.95575 v 32.54957 m 0,48.0911 v -9.85684 m 6.4,-309.42417 v 19.19583 m 0,95.77764 v -17.70131 m 0,149.87147 v 24.50808 m 6.4,-247.01281 v -24.77952 m 0,97.93132 v 18.20211 m 0,156.00428 v -18.9408 m 6.4,-251.89203 v 38.19614 m 0,78.00273 v -19.0596 m 0,159.00605 v 14.61954 m 6.4,-217.84722 v -50.60106 m 0,95.42914 v 19.82345 m 0,152.64283 v -15.67925 m 6.4,-249.4748 v 62.59739 m 0,51.30439 v -20.50118 m 0,142.56678 v 26.68193 m 6.4,-185.55953 v -74.20016 m 0,91.04864 v 21.44242 m 0,140.10455 v -37.32734 m 6.4,-212.32758 v 111.02928 m 0,130.68437 v -51.52499 m 6.4,-187.19751 v 109.51703 m 0,121.61658 v -63.15346 m 6.4,-164.83814 v 107.85395 m 0,112.67258 v -51.17769 m 6.4,-166.19353 v 106.17443 m 0,103.7248 v -35.42157 m 6.4,-171.15301 V 566.5314 m 0,94.73655 v -18.61662 m 6.4,-176.14078 v 101.21408 m 0,84.54732 v -0.5463 m 6.4,-169.9689 v 81.98838 m 0,167.13549 v -8.35963 m 6.4,-225.30993 v 59.2462 m 0,174.14495 v -10.73919 m 6.4,-248.19214 v 5.75068 m 0,70.01243 v -34.78083 m 0,203.0461 v 15.02753 m 6.4,-253.51411 v -13.36779 m 0,64.22362 v 8.81137 m 0,194.33287 v -21.58694 m 6.4,-250.94953 v 18.23697 m 0,255.15433 v -30.20229 m 6.4,-248.23325 v 125.68649 m 0,153.86975 v -55.27442 m 6.4,-229.32604 v 285.87805 m 6.4,1.54889 V 443.54358 m 6.4,-5.04423 v 299.11516 m 6.4,1.67946 V 433.42962 m 6.4,-5.0819 v 312.62572 m 6.4,1.61257 V 423.26583 m 6.4,-5.0819 V 744.0167 m 6.4,1.4307 V 413.10204 m 6.4,-3.19269 v 336.94466 m 6.4,1.21978 V 430.3434 m 6.4,10.83614 v 27.5707 m 0,280.35286 V 642.14634 m 6.4,-204.43465 v 27.15133 m 0,285.09359 v -31.03287 m 6.4,-284.6799 v 44.36705 m 0,63.97122 v -1.54242 m 0,184.72878 v 24.7195 m 6.4,-253.32507 v -66.44776 m 0,102.18262 v 14.14871 m 0,203.84168 v -20.86366 m 6.4,-302.85602 v 88.55317 m 0,26.8105 v -17.5186 m 0,208.10717 V 751.043 m 6.4,-213.02519 V 423.62179 m 0,312.02922 v 15.87501 m 6.4,-218.02253 v -113.9209 m 0,318.17551 v 13.90586 m 6.4,-222.68551 V 418.41956 m 0,321.11459 v 12.19556 m 6.4,-227.37453 V 424.19274 m 0,316.82006 v 10.76386 m 6.4,-232.04476 v -86.50852 m 0,309.19887 v 9.37996 m 6.4,-236.69357 v -72.24671 m 0,300.43762 v 8.43281 m 6.4,-241.26574 v -57.23363 m 0,290.91363 v 7.51591 m 6.4,-246.12734 v -41.69498 m 6.4,12.23548 v 23.92483"
           style="fill:none;stroke:#000000;stroke-width:4.26666689;stroke-miterlimit:4;stroke-dasharray:none"
           inkscape:connector-curvature="0" />
      </g>
      <g
         id="g5328"
         style="fill:none;stroke-width:4;stroke-miterlimit:4;stroke-dasharray:none">
        <path
           inkscape:connector-curvature="0"
           style="fill:none;fill-opacity:1;stroke:#000000;stroke-width:4.26666689;stroke-miterlimit:4;stroke-dasharray:none;stroke-opacity:1"
           d="m 2942.2563,256.00067 c -1.5107,0 -2.1011,1.5172 -1.3166,3.37154 1.8807,4.44493 -4.9934,4.44493 -9.0604,0 -3.911,-4.27416 -8.5637,-4.31413 -13.2425,-0.0701 -2.9908,2.71276 -9.8447,3.12463 -37.3264,2.31793 -18.5255,-0.5438 -33.6865,-0.13711 -33.6865,0.91312 0,1.05022 -1.3939,1.88366 -3.0977,1.82627 -10.6519,-0.35881 -13.3535,0.84548 -13.1649,5.68947 0.1685,4.35086 -1.1741,5.11316 -9.4478,5.40851 -5.2895,0.18881 -10.3076,1.19831 -11.1514,2.31794 -0.8441,1.11962 -8.2396,3.45364 -16.4175,5.12755 -14.9023,3.05037 -26.02,9.45243 -26.02,15.03146 0,1.63886 -1.6727,3.02033 -3.7171,3.02033 -2.0444,0 -3.7172,1.46002 -3.7172,3.23106 0,1.77105 -2.2304,3.85116 -4.9562,4.63587 -2.726,0.78474 -4.9563,2.80767 -4.9563,4.49539 0,1.68775 -2.2303,3.71068 -4.9561,4.4954 -2.7259,0.78473 -4.9562,2.43232 -4.9562,3.72274 0,1.29042 -4.2032,7.04915 -9.3705,12.78376 -5.1673,5.7346 -10.7529,12.99449 -12.3905,16.08507 -1.6375,3.09058 -4.0249,7.13643 -5.2659,8.99077 -1.2411,1.85436 -3.3657,7.4174 -4.7238,12.36233 -1.3582,4.94493 -4.9077,16.39333 -7.8989,25.49728 -4.4141,13.4331 -5.4303,22.32882 -5.4985,47.20158 -0.047,16.85695 1.1501,34.74095 2.633,39.68585 1.4832,4.94495 2.9698,17.08251 3.3301,26.97233 0.2132,5.83441 0.4401,9.73792 0.9293,12.78377 -11.9829,9.55014 -8.4543,23.84813 -7.6668,26.34017 7.9755,22.85974 22.6315,94.74515 48.9424,95.17581 2.0037,4.09071 2.3235,8.98639 2.3235,10.67654 0.8074,9.75947 5.3744,19.44508 5.1884,29.22003 -8.3729,13.38542 -18.0126,35.52912 -28.4208,46.85038 -2.2622,0.81901 -6.241,1.26035 -13.0099,1.89649 -12.9947,1.22126 -15.3395,2.93478 -22.8449,16.78747 -3.2303,5.9618 -6.9655,9.05605 -13.5522,11.02775 -5.0143,1.50099 -12.6075,5.58999 -16.8821,9.13126 -4.2746,3.54121 -8.7371,6.46214 -9.8348,6.46212 -1.0981,-2e-5 -6.9105,5.00319 -12.9327,11.098 -7.2963,7.38411 -15.2558,12.59038 -23.8518,15.66361 -16.6397,5.94893 -30.8695,14.15631 -37.1716,21.42334 -2.7511,3.17226 -5.8803,5.75547 -7.047,5.75971 -1.1669,0.004 -9.5958,5.82018 -18.6633,12.92425 -10.2229,8.00941 -28.3874,18.43727 -47.7807,27.46401 -40.1658,18.69506 -49.1594,26.4601 -50.6462,50.57313 h 466.0379 c -0.4189,-0.5541 -0.8183,-1.13561 -1.239,-1.68577 -9.4808,-12.39284 -11.0183,-18.94472 -3.0203,-12.92425 2.3551,1.77285 3.7947,1.98216 3.7947,0.49168 0,-1.31465 -1.0931,-3.08673 -2.4782,-3.86322 -1.3852,-0.77651 -1.9283,-2.3165 -1.1616,-3.44178 0.7666,-1.12529 0.1561,-4.10463 -1.3165,-6.6026 -1.6342,-2.76959 -2.1007,-4.18539 -0.9293,-4.28467 1.1712,-0.0993 4.0391,1.1766 9.1381,3.6525 4.3618,2.11807 11.5809,5.05722 16.1076,6.53236 6.8936,2.24659 8.0125,2.15662 6.8922,-0.49168 -0.7358,-1.73893 -0.2356,-3.1608 1.0841,-3.16082 1.32,-2e-5 2.4008,1.76748 2.4008,3.93346 0,1.84151 2.5415,11.14456 5.8854,21.84479 h 195.1506 c -3.6421,-16.64347 -10.4676,-32.63419 -16.8048,-38.7025 -1.6068,-1.53865 -4.9441,-5.07873 -7.4343,-7.86692 -2.4902,-2.78822 -10.7026,-9.54182 -18.1983,-15.03146 -7.4962,-5.48966 -17.5327,-14.27457 -22.3031,-19.52684 -4.7703,-5.25228 -10.0896,-9.61807 -11.8485,-9.69319 -10.1225,-3.95165 -24.7423,-11.10902 -27.8786,-21.63406 -7.869,-20.96228 -18.2862,-40.98724 -29.6596,-60.54726 -2.7547,-1.5441 -3.3195,-10.05697 -1.007,-15.52314 29.151,-20.36523 19.347,-76.0695 39.3399,-96.65086 2.6482,3.19672 16.7096,-28.57368 27.7238,-58.51029 12.2314,-33.24462 27.9923,-46.633 6.5825,-45.23485 -3.2051,0.72967 -5.7305,0.29128 -5.7305,-0.98337 0,-1.25976 0.9706,-2.24767 2.1683,-2.24769 4.7869,2e-5 14.0308,-29.20789 16.3399,-51.62673 0.8051,-7.81649 1.944,-14.87993 2.4781,-15.66363 0.534,-0.78362 1.3082,-9.33265 1.7037,-18.96491 0.3955,-9.63227 1.5295,-17.96823 2.5557,-18.54348 2.6795,-1.50211 -0.5108,-14.84431 -4.5692,-19.1054 -1.8903,-1.98463 -2.7187,-5.27188 -1.8585,-7.30501 0.8601,-2.03313 0.4205,-3.6525 -0.9293,-3.6525 -3.0677,0 -6.2215,-8.34567 -5.8855,-15.52314 0.1386,-2.98144 -1.5698,-6.67221 -3.7945,-8.14789 -2.5242,-1.67404 -3.4433,-4.13831 -2.4009,-6.6026 1.2674,-2.99548 2.4564,-3.35691 4.9562,-1.47505 7.0587,5.3135 5.844,-0.67402 -2.2455,-10.88728 -9.8111,-12.38657 -10.4078,-14.40316 -3.5624,-12.43255 2.726,0.78471 4.9563,0.39332 4.9563,-0.84288 0,-1.23624 -2.124,-2.83382 -4.7241,-3.58228 -2.6,-0.74848 -5.3531,-2.82859 -6.1176,-4.63587 -0.7648,-1.8073 -3.1015,-3.3013 -5.1887,-3.3013 -2.0871,0 -3.7944,-1.38636 -3.7944,-3.02034 0,-3.24565 -18.7751,-11.4545 -31.5958,-13.83737 -4.4297,-0.82326 -8.054,-2.80128 -8.054,-4.42515 0,-1.62385 -1.6725,-3.5731 -3.7171,-4.28467 -4.8895,-1.70179 -4.7764,-5.90019 0.1537,-5.90019 2.1247,0 3.146,-1.06694 2.2457,-2.38818 -0.9003,-1.32122 -7.0623,-2.14613 -13.7069,-1.82625 -6.6448,0.31989 -12.8441,-0.13037 -13.7844,-0.98336 -0.9404,-0.85301 -0.3542,-1.54529 1.3163,-1.54529 1.6705,0 2.2668,-1.13417 1.3167,-2.52867 -1.1423,-1.67617 -6.6282,-2.09275 -16.1077,-1.19408 -10.2175,0.96862 -14.6734,0.55997 -15.4881,-1.40481 -0.6511,-1.56912 -2.2099,-0.31782 -3.6399,2.87985 -2.0378,4.55752 -2.7916,4.9007 -4.1042,1.96675 -2.4989,-5.58458 -0.428,-14.36242 4.4139,-18.75421 2.4083,-2.18419 3.7371,-4.61779 2.9428,-5.33827 -0.7942,-0.72047 -4.2519,1.43625 -7.6665,4.77635 -7.1469,6.99091 -8.9775,7.61265 -6.7375,2.31793 1.0641,-2.5149 0.633,-3.19997 -1.3162,-2.10721 -1.7992,1.0084 -2.9717,0.13463 -3.0204,-2.38817 -0.096,-4.92443 -5.5826,-11.94088 -9.3703,-11.94088 z m -81.4676,57.8079 c 4.3431,0.002 56.6042,12.45602 47.0839,13.5564 -7.0218,0.8116 -42.1276,-10.72784 -47.2388,-10.74679 -5.9235,-0.0225 -8.1169,-0.70206 -6.0403,-1.89649 1.1312,-0.65066 3.5893,-0.91428 6.1952,-0.91312 z m -22.845,18.89467 c 0.8608,-0.0321 1.8159,0.0969 2.7105,0.42144 1.9768,0.71753 1.4155,1.22671 -1.4715,1.33458 -2.6125,0.0976 -52.3215,3.41603 -51.498,2.66915 0.4116,-0.37347 49.3981,-4.39301 50.259,-4.42517 z m 44.6057,22.47695 c 0.8608,-0.0321 33.3635,3.75433 34.3064,3.93347 0.5968,0.11328 0.8285,0.22365 0.9293,0.28096 -1.8224,0.30735 -29.82,-2.33893 -33.9966,-2.45842 -2.6131,-0.0749 -4.076,-0.4472 -3.2525,-1.19408 0.4118,-0.37346 1.1526,-0.52976 2.0134,-0.56193 z m 40.5789,41.51211 c 1.6304,-0.006 2.5985,0.0297 2.7106,0.0701 1.9768,0.71752 -54.0321,2.77199 -56.919,2.87986 -2.6124,0.0976 -4.076,-0.44721 -3.2525,-1.19409 0.4119,-0.37346 1.1525,-0.52976 2.0135,-0.56193 0.7532,-0.0281 44.0358,-1.13949 55.4474,-1.19408 z m -93.0061,32.38085 c 11.7322,4.66605 47.4711,2.97819 47.4711,4.21442 0,1.23624 -40.2008,3.3773 -45.9223,0.28096 -0.5162,-0.27931 -1.7906,-1.01145 -2.6329,-2.24769 -0.8426,-1.23623 -0.3594,-2.24769 1.0841,-2.24769 z m -21.606,5.82995 c 0.7322,-0.0321 1.0841,0.6406 1.0841,2.03697 0,2.28218 -2.5573,3.37155 -8.2086,3.37155 -4.5432,0 -8.2861,-1.14824 -8.2861,-2.52865 0,-1.47859 2.2119,-1.95518 5.4209,-1.1941 2.9955,0.71058 6.7384,0.32199 8.286,-0.84288 0.7068,-0.53194 1.2643,-0.82362 1.7037,-0.84289 z m 96.7235,5.40852 c 1.3629,0 1.0083,1.56345 -0.7744,3.51203 -2.6838,2.93285 -2.6593,3.85786 0.2329,5.47875 8.3837,4.69966 -24.1794,22.47696 -41.1985,22.47694 -3.286,2e-5 -5.9631,1.08463 -5.9631,2.45842 0,2.75475 15.0149,0.99103 21.9933,-2.5989 2.2174,-1.14066 11.5759,-4.59103 20.8316,-7.6562 16.5531,-5.48184 17.8816,-4.93025 9.4478,4.14418 -3.7396,4.02375 -3.6893,4.1688 1.2391,1.82625 2.8701,-1.36422 8.3866,-6.08714 12.2357,-10.46583 6.5257,-7.42391 16.03,-10.78583 16.03,-5.68948 0,1.23626 -1.1152,2.2477 -2.478,2.2477 -1.363,2e-5 -2.4781,1.01146 -2.4781,2.24769 0,1.23626 1.0299,2.24773 2.2457,2.2477 3.719,3e-5 22.244,-14.42737 22.3803,-17.41963 0.1883,-4.11627 7.5891,-3.43109 7.5891,0.70241 0,1.9273 1.1152,2.87124 2.4781,2.10721 9.9993,14.0576 -36.4444,38.25955 -49.4844,42.00379 19.8858,3.22487 48.7528,-20.05757 56.9189,-37.92985 0,-1.63884 1.8844,-2.9501 4.1817,-2.9501 33.2284,12.59172 36.1314,53.77519 32.9898,79.86339 0,8.00092 -9.8967,13.90092 -29.7373,17.84108 -23.6245,4.69164 -43.8489,13.63649 -48.168,21.21262 -1.8344,3.21754 -5.7305,7.76249 -8.5958,10.11462 -2.8658,2.3521 -5.1887,5.75043 -5.1887,7.58596 0,1.83557 3.1595,6.27108 0.7744,7.93718 l -28.0336,1.47505 c -4.7393,-0.11846 -7.3919,-2.39537 -11.3063,-9.62295 -7.575,-13.98681 -23.335,-21.55523 -40.3464,-21.49358 -10.2071,0.0371 -20.8671,2.81163 -30.4344,8.63958 -10.6876,6.51056 -21.9705,20.6602 -21.993,27.6045 -0.025,3.8109 -1.8731,3.28244 -11.3065,2.52866 -6.525,-15.21618 -16.9248,-28.40895 -26.9492,-42.14428 -6.838,-7.82747 -7.5893,-10.2025 -7.5893,-24.72464 0,-19.78609 7.4953,-43.36213 15.256,-47.97422 l 5.4981,-3.23106 -5.2659,-4.70611 c -3.4045,-3.08776 -4.2319,-5.11238 -2.3232,-5.68947 1.6184,-0.48932 2.9427,-2.29539 2.9427,-4.00371 0,-4.17134 14.571,-18.96492 18.6633,-18.96492 1.7895,0 3.6344,-1.03909 4.1042,-2.31794 1.1593,-3.15441 36.7068,-5.33097 36.7068,-2.24769 0,1.28215 2.4628,2.31793 5.4985,2.31793 5.498,0 5.5205,-0.0203 -0.7744,5.68948 -5.1148,4.63908 -8.9846,5.81764 -20.367,6.18116 -21.5213,0.68732 -18.3917,4.47114 5.963,7.16453 10.3005,1.13915 14.543,0.68199 18.3534,-2.03697 4.7187,-3.36728 4.6283,-3.41677 -2.0134,-1.26433 -3.8369,1.24346 -9.4127,2.16187 -12.3906,2.10721 -4.3981,-0.0806 -3.7225,-0.86308 3.5622,-4.35491 10.5594,-5.06129 21.9932,-7.33171 21.9932,-4.35491 0,1.15439 -1.1151,2.10721 -2.4781,2.10721 -1.3629,2e-5 -2.4781,0.91014 -2.4781,2.03697 0,2.57905 4.5808,1.93764 11.8485,-1.68577 3.0947,-1.54299 6.8956,-2.13063 8.4409,-1.26432 1.7227,0.96566 2.0909,0.60753 1.0069,-0.98337 -1.5628,-2.29348 8.9645,-4.07336 16.7273,-2.80962 1.1653,0.18971 3.3956,-0.54891 4.9561,-1.68577 1.5603,-1.13681 6.4286,-2.81218 10.7641,-3.6525 4.3355,-0.84034 9.2178,-2.93122 10.8418,-4.70611 1.624,-1.77487 4.0578,-3.23106 5.4208,-3.23106 z m -198.5579,87.94104 c 1.1325,4.45985 -0.114,4.78321 4.8787,9.62295 6.5154,6.31507 9.9586,12.30048 12.1583,21.35309 5.3289,21.93303 17.5273,39.61051 16.9593,24.58415 -0.4408,-11.66708 1.5663,-22.51851 4.4917,-21.63406 13.7975,12.46334 20.0132,25.61776 28.0334,41.16091 -5.5331,0.15554 1.393,4.37981 8.3637,5.12755 4.8461,0.51988 8.0096,3.06797 11.5387,9.34199 6.3539,11.29664 20.8607,21.95651 33.3769,24.51391 5.512,1.1263 10.8157,2.1153 11.7709,2.2477 5.7685,0.79959 27.5532,-5.28244 33.1446,-9.27175 9.8497,-7.02739 20.5831,-23.49463 18.9731,-29.07954 -0.9441,-3.27469 0.4362,-5.96839 4.5688,-8.8503 9.0939,-0.83066 18.0629,-2.9142 24.4713,0.0701 5.4796,3.88963 6.2068,6.41899 7.4342,25.28656 1.4228,21.86993 7.0276,34.88374 14.017,32.45109 2.746,-0.95582 8.3635,4.63645 8.3635,8.35862 0,2.62471 -8.4867,3.62743 -10.1447,1.19408 -2.465,-3.61737 -8.3242,0.71632 -16.185,12.01112 -4.3377,6.23215 -6.9928,8.05173 -10.2223,6.9538 -9.8873,-2.86522 -17.923,-10.70116 -27.8785,-11.87063 -2.887,2e-5 -4.5598,1.01148 -3.7172,2.24769 0.8423,1.23626 2.5151,2.24771 3.7172,2.24769 7.8407,-3.33681 19.2972,5.93187 26.8718,9.5527 2.5504,1.2163 6.2782,3.60023 9.9123,3.51203 3.6342,-0.0881 8.9075,0.54461 11.771,1.40481 3.3544,1.00763 6.6193,0.31793 9.138,-1.96673 2.1503,-1.95033 5.1222,-3.512 6.5825,-3.51203 1.4602,3e-5 2.633,-1.64679 2.633,-3.65251 0,-2.7631 0.7775,-3.05717 3.2526,-1.19408 2.407,1.812 4.6697,1.58112 8.5957,-0.91313 4.2568,-2.7042 5.0649,-4.83184 3.8721,-10.6063 -0.821,-3.97523 -3.7047,-9.4303 -6.3502,-12.08136 -13.0403,-20.95166 -29.7716,-28.0312 9.6027,-16.29578 10.2405,2.14403 14.7476,1.9529 27.027,-1.26433 8.1,-2.12232 16.944,-5.53338 19.6699,-7.58597 4.922,-3.70623 4.953,-3.7205 0.2329,1.33456 -2.6147,2.7996 -5.0823,7.35114 -5.4209,10.11463 -0.3387,2.76352 -0.789,5.05734 -1.0067,5.05731 -0.2182,3e-5 -0.7822,1.76741 -1.239,3.93347 -1.101,5.21764 -10.9858,23.68719 -13.1651,24.58416 -0.9427,0.38809 -3.9339,4.57189 -6.6598,9.34197 -13.1637,23.03532 -11.0967,21.36663 -26.0202,21.21262 -7.4962,-0.0773 -19.2052,1.00955 -26.0199,2.38817 -6.8149,1.37865 -17.6444,3.12028 -24.084,3.93348 -8.2699,2.59858 -15.0029,2.07315 -23.5419,0.63216 -2.4539,-0.64284 -5.6204,-0.97492 -9.0607,-0.98338 -3.4404,-0.009 -7.1544,0.28516 -10.7642,0.91314 -7.1313,1.24056 -9.3199,2.16603 -5.4209,2.31793 3.549,0.13824 9.6377,2.88559 13.4748,6.11092 5.8158,4.88887 8.5625,5.69939 16.7271,4.70611 5.3862,-0.65527 19.2154,-0.12205 20.7542,-1.61553 2.2327,-0.30617 5.6991,0.0371 8.2859,0.0701 13.5908,2e-5 14.7109,1.33956 7.6668,9.27174 -3.7464,4.21866 -8.6992,5.85808 -24.1615,7.86694 l -19.4377,2.52865 18.5858,0.49168 c 10.2222,0.27782 24.6719,1.16181 32.0605,1.96674 12.0562,1.31339 13.4892,2.05124 13.9393,7.09428 0.2757,3.09056 -0.6989,7.64219 -2.0908,10.11463 -3.8465,6.83181 -21.9632,23.4902 -29.5051,27.11281 -7.9802,3.83317 -42.0905,4.36192 -49.4845,0.77265 -8.2172,-3.98894 -8.871,0.17419 -0.8519,5.40851 4.0864,2.66724 9.871,7.02928 12.8551,9.69318 2.9841,2.66388 6.059,4.26774 6.8148,3.58226 0.7558,-0.68548 3.337,0.33893 5.7307,2.2477 2.3935,1.90876 9.2301,5.71521 15.1783,8.42885 5.9482,2.71362 11.3034,6.69166 11.9258,8.85029 0.6223,2.15863 4.65,5.09184 8.9831,6.53236 4.3333,1.44048 11.8021,4.85078 16.5724,7.58598 4.7703,2.73517 9.391,4.99856 10.2998,5.05731 3.8184,0.24695 5.0431,3.51204 1.3163,3.51202 -3.4612,-2e-5 -3.6614,0.86732 -1.2391,5.68947 2.1619,4.30342 2.1952,6.29746 0,8.28838 -4.0762,3.69726 -11.1043,-4.82484 -7.3567,-8.92054 3.0178,-3.29844 -0.8611,-3.85499 -4.4143,-0.63216 -1.5714,1.42526 -5.3115,0.57674 -10.6867,-2.38818 -4.5486,-2.50892 -7.5918,-5.19566 -6.7373,-5.97043 1.9106,-1.73302 -10.7864,-14.04807 -14.4815,-14.0481 -4.4081,-2e-5 -21.0758,32.22981 -22.7676,44.04077 -2.7551,19.23394 -3.7372,19.00313 -24.4712,-5.82996 -10.5775,-12.66879 -33.8407,-38.19964 -51.7304,-56.75428 -17.8896,-18.55467 -37.5433,-39.01892 -43.6765,-45.51581 -6.1334,-6.49692 -18.6786,-16.20206 -27.8786,-21.49358 -9.2,-5.29152 -16.6942,-10.15886 -16.6496,-10.88726 10.625,-16.0004 22.9792,-27.62799 28.4206,-45.51582 2.0138,-11.5654 -3.0008,-28.84655 -5.6532,-40.66922 2.0063,-7.35016 0.4791,-11.96868 -5.7305,-12.64328 -28.1082,-20.41273 -33.2317,-60.95878 -43.909,-92.01499 -3.1894,-6.4454 2.0602,-15.07306 4.8013,-20.36973 z m 96.7233,9.34199 c -1.8108,0.15891 -10.1993,0.35542 -11.9258,1.47505 -26.9462,17.47397 -3.3804,5.64791 17.3466,9.13125 8.663,1.45587 27.1053,4.65338 61.1008,15.52314 6.7049,2.14385 19.8249,2.27257 19.8249,0.21061 0,-3.22418 -8.3904,-11.55663 -14.404,-14.32906 -3.6657,-1.68977 -13.3508,-3.82688 -21.5285,-4.7061 -8.1777,-0.87921 -19.3293,-2.07192 -24.781,-2.66914 -5.4519,-0.59717 -13.6291,-2.15046 -18.1987,-3.44178 -3.3201,-0.93821 -5.6236,-1.35298 -7.4343,-1.19409 z m 34.3064,37.57863 c 1.363,2e-5 2.478,1.01149 2.478,2.2477 0,1.23625 -1.115,2.24771 -2.478,2.24769 -1.3631,2e-5 -2.4782,-1.01144 -2.4782,-2.24769 0,-1.23621 1.1151,-2.24768 2.4782,-2.2477 z m 20.5216,0.0701 c 1.0256,0.13463 2.1456,0.85047 3.0977,2.24769 0.8767,1.28654 3.677,1.73059 6.2727,0.98337 10.079,-2.90156 22.5556,17.72576 18.7407,30.97603 -2.8355,9.84751 -11.4112,19.51829 -21.2963,24.09248 -18.7382,8.67064 -37.8072,7.599 -55.9122,-3.16082 -8.1399,-4.83747 -16.0106,-16.54292 -15.9528,-23.74127 0.062,-7.86125 8.0159,-22.74154 15.0235,-28.09618 5.0271,-3.84137 5.3668,-3.90227 2.3232,-0.35121 -3.4386,4.01214 -3.2674,3.98973 5.9631,0.49169 5.2582,-1.99279 9.7866,-3.34563 9.9898,-3.02034 6.4787,10.36905 9.5696,12.99451 15.7205,12.99449 7.9168,2e-5 12.8551,-3.65678 12.8551,-9.48247 -0.2616,-2.80987 1.4096,-2.91501 3.175,-3.93346 z m 111.9018,2.17745 c 0.601,2e-5 1.7905,1.01149 2.633,2.24769 0.8423,1.23626 0.3591,2.24772 -1.0842,2.2477 -1.4434,2e-5 -2.6329,-1.01144 -2.6329,-2.2477 0,-1.2362 0.483,-2.24767 1.0841,-2.24769 z m -8.2863,0.21061 c 1.4634,-0.0519 2.246,1.24739 2.246,3.93347 0,2.28089 2.2665,6.01696 5.0335,8.28837 6.2718,5.14825 17.2877,2.40092 20.9865,-5.19779 2.4301,-4.99268 6.1954,-6.82823 6.1954,-3.02034 0,3.51748 -6.9405,17.15831 -8.4412,16.57674 -0.7977,-0.30903 -3.4228,-0.53102 -5.808,-0.49168 -3.8702,0.0638 -3.8036,0.45511 0.6195,3.51202 2.7259,1.88393 4.6361,4.7699 4.2592,6.46213 -2.5052,11.2482 30.4475,6.6293 38.1008,-5.33829 l 3.7948,-5.82995 -1.3941,7.58596 c -2.1392,11.78192 -10.4394,21.93555 -22.0707,27.04259 -13.6422,5.99003 -34.6865,6.27749 -44.9928,0.56192 -8.3532,-4.63223 -15.4602,-11.58966 -11.8485,-11.58968 2.68,2e-5 3.1448,-1.90735 3.872,-14.61002 0.2829,-4.9449 1.5899,-9.70313 2.8655,-10.53606 1.369,-0.89424 1.0074,-2.94042 -0.9294,-5.05731 -2.7601,-3.01639 -2.577,-4.33072 1.1615,-8.07765 2.7784,-2.78464 4.8868,-4.16253 6.35,-4.21443 z m 14.4041,134.72118 c 0.3547,-0.0276 0.6821,-0.0203 1.0068,0 2.597,0.15734 4.2051,1.86579 4.1818,4.98707 -0.025,2.78155 -1.1097,6.57453 -2.4008,8.42885 -3.4195,4.91208 -11.2617,4.53612 -14.8687,-0.7024 -2.709,-3.93457 -2.2829,-5.10224 2.788,-8.63957 3.6039,-2.51398 6.8108,-3.88013 9.2929,-4.07395 z m -80.6932,4.14441 c 4.4523,0.0917 8.5896,1.41621 12.8551,1.0536 2.489,-0.86628 3.6398,0.2014 3.6398,3.4418 0.099,2.585 -4.7522,0.79464 -7.4342,0.98336 -3.6025,0.74538 -8.1998,-0.0832 -10.9966,-1.96674 -4.7619,-3.2066 -4.7592,-3.68922 0,-3.44178 0.6497,-0.0445 1.2997,-0.0834 1.9359,-0.0702 z m 110.4304,36.24408 c 11.7878,18.94932 34.8394,58.41539 39.03,86.95767 -0.8714,0.79045 -1.6261,0.24814 -1.6261,-1.19409 0,-1.4423 -1.1151,-2.59888 -2.4781,-2.5989 -1.363,-2e-5 -2.478,3.32351 -2.478,7.37525 0,14.71177 -3.8915,16.76423 -38.5655,20.65069 -4.1701,0.46736 -14.0679,3.42349 -21.9932,6.6026 -19.3405,7.75799 -24.0187,7.6893 -15.8755,-0.3512 3.4431,-3.39965 8.8606,-9.72125 12.0809,-14.04809 21.515,-24.16215 22.929,-50.17438 27.6464,-79.79314 2.7232,-9.29142 3.5823,-13.97504 4.2591,-23.60079 z m -54.2085,41.09065 c 2.825,-0.0575 -24.4881,12.69043 -50.3364,8.35862 -2.0878,-2.28166 8.5214,-1.87721 12.1582,-2.03697 1.2122,-0.0532 2.8576,-0.0571 4.9564,0 5.4493,0.14812 30.4889,-3.08901 33.2218,-6.32165 z m 97.1882,72.55839 c 0.218,-0.0457 0.3861,-0.0278 0.5419,0 1.0389,0.1861 0.8277,2.14032 0,7.09429 -0.7782,4.6576 -2.199,16.59081 -3.175,26.48065 l -1.7812,17.98154 -2.7103,-16.8577 c -3.2686,-20.36584 -2.1043,-29.75965 4.2591,-33.36422 1.2581,-0.71265 2.2125,-1.19761 2.8655,-1.33456 z m -81.0805,30.2034 c 9.0345,-4e-5 16.0303,0.98091 16.0303,2.24769 0,1.23621 -2.5091,2.23407 -5.5757,2.24769 -3.0667,0.0134 -9.5723,0.66826 -14.4816,1.40481 -6.8455,1.02706 -9.2827,0.4519 -10.4543,-2.31793 -1.3065,-3.08773 0.7769,-3.58224 14.4813,-3.58226 z m 5.5756,13.69688 c 1.336,-0.0375 2.7895,0.0134 4.3368,0.0701 8.0053,0.29373 12.7504,1.2892 11.4612,2.45842 -2.4944,2.26253 -17.3635,3.81966 -22.0705,2.31793 -6.8871,-2.19728 -3.0786,-4.58437 6.2725,-4.84659 z"
           id="path5575" />
        <path
           id="path5331"
           d="m 2448.9989,922.02613 v 0.34585 m 6.4,0 v -22.13855 m 6.4,-6.98832 v 29.12687 m 6.4,0 v -33.9011 m 6.4,-4.04795 v 37.94905 m 6.4,0 v -41.38612 m 6.4,-3.32702 v 44.71314 m 6.4,0 v -47.78557 m 6.4,-3.07875 v 50.86432 m 6.4,0 V 868.367 m 6.4,-3.14066 v 57.14564 m 6.4,0 v -60.5852 m 6.4,-3.48325 v 64.06845 m 6.4,0 v -67.89575 m 6.4,-3.92728 v 71.82303 m 6.4,0 v -76.34891 m 6.4,-4.66636 v 81.01527 m 6.4,0 v -85.7652 m 6.4,-4.30948 v 90.07468 m 6.4,0 v -94.25372 m 6.4,-6.20466 v 100.45838 m 6.4,0 V 817.14982 m 6.4,-3.7246 v 108.94676 m 6.4,0 v -112.2209 m 6.4,-2.81832 v 115.03922 m 6.4,0 V 804.74141 m 6.4,-2.70785 v 120.33842 m 6.4,0 V 798.52119 m 6.4,-4.58677 v 128.43756 m 6.4,0 V 788.11245 m 6.4,-6.03176 v 140.29129 m 6.4,0 V 777.33922 m 6.4,-4.03047 v 149.06323 m 6.4,0 V 768.60203 m 6.4,-3.68776 v 157.45771 m 6.4,0 V 762.16243 m 6.4,-2.76691 v 162.97646 m 6.4,0 v -169.1656 m 6.4,-10.60417 v 179.76977 m 6.4,-438.01263 v -76.94399 m 0,120.89588 v 33.0536 m 0,361.00714 V 736.6054 m 6.4,-350.91694 v 145.78822 m 0,51.58217 v -24.56188 m 0,176.20998 v 187.66503 m 6.4,-384.67043 V 365.3983 m 0,214.98087 v 22.00225 m 0,319.99056 V 733.92506 m 6.4,-380.95047 v 192.41235 m 0,72.82255 v -18.39115 m 0,133.41972 v 189.13392 m 6.4,-361.4665 V 343.32555 m 0,271.01953 v 15.74618 m 0,292.28072 V 730.91407 m 6.4,-395.27816 v 242.87705 m 0,60.01812 v -13.61665 m 0,97.36884 v 14.61478 m 0,185.47393 V 741.11482 m 6.4,-413.24939 v 260.57771 m 0,55.06936 v -10.69252 m 0,78.6459 v 16.5353 m 0,194.3708 V 745.25346 m 6.4,-426.293 v 244.3044 m 0,82.0796 v -6.644 m 0,61.10727 v 19.62652 m 0,202.93773 V 749.13682 m 6.4,-433.56703 v 187.80754 m 0,63.30855 v -11.32829 m 0,86.6942 v 30.57031 m 0,37.33376 v -21.50267 m 0,64.68757 v 169.23122 m 6.4,-432.4917 V 308.71067 m 0,255.09484 v 10.43513 m 0,122.38074 v -22.27801 m 0,83.17788 v 164.85073 m 6.4,-457.82313 V 301.54318 m 0,178.49755 v 4.35261 m 0,99.38158 v -11.1129 m 0,189.70993 v 160.00003 m 6.4,-465.4284 V 295.56557 m 0,286.48598 v 13.17628 m 0,327.14415 V 767.7872 m 6.4,-478.08727 v 161.6623 m 0,155.50788 v -14.1681 m 0,181.35105 v 148.31892 m 6.4,-473.62556 V 286.63258 m 0,259.20316 v 3.01648 m 0,59.67019 v -7.58368 m 0,179.78384 v 141.64941 m 6.4,-585.2918 v -52.64891 m 0,52.72568 v 108.09712 m 0,103.04102 v -7.02223 m 0,59.91638 v 10.178 m 0,311.00474 V 787.3921 m 6.4,-504.55349 v 53.64145 m 0,99.87242 v -99.29763 m 0,102.08337 v 5.09527 m 0,19.18685 v -3.66249 m 0,78.54052 v 9.43122 m 0,51.88583 v -11.16789 m 0,24.45793 v 7.18414 m 0,302.28238 V 794.06161 m 6.4,-512.84164 v 54.65998 m 0,101.03799 V 336.71547 m 0,103.57157 v 3.35446 m 0,21.11353 v -5.61737 m 0,78.60842 v 9.77993 m 0,39.31258 v -6.49375 m 0,42.85581 v 4.55466 m 0,294.61667 V 800.73114 m 6.4,-521.34874 v 55.89742 m 0,100.17603 v -99.08773 m 0,103.16633 v 3.79207 m 0,22.3378 v -6.91097 m 0,79.22523 v 10.09876 m 0,31.20399 v -4.88339 m 0,54.77054 v 4.10698 m 0,289.09652 V 807.40065 m 6.4,-530.89437 v 58.18653 m 0,108.63654 V 336.00951 m 0,122.09816 v 4.67814 m 0,3.55804 v -1.52844 m 0,74.6419 v 9.63602 m 0,30.58781 v -9.68246 m 0,62.82745 v 4.51373 m 0,285.03212 v -108.3018 m 6.4,-538.42103 v 58.51629 m 0,110.35604 V 335.61866 m 0,120.50953 v 3.59209 m 0,6.84735 v -2.20886 m 0,76.50258 v 9.48653 m 0,27.05741 V 566.7261 m 0,68.87338 v 4.77326 m 0,281.99924 V 820.8272 m 6.4,-545.70575 v 58.51662 m 0,113.43715 V 335.22779 m 0,116.11383 v 5.82338 m 0,8.19815 v -2.47384 m 0,78.96331 v 9.87373 m 0,24.11096 v -11.3685 m 0,73.1077 v 4.76888 m 0,280.02659 v -94.70249 m 6.4,-561.86996 v 67.31117 m 0,96.74439 v -95.01816 m 0,99.07226 v 21.48267 m 0,97.84627 v -10.58111 m 0,20.34151 v 21.45604 m 0,59.11292 v -4.78704 m 0,195.73135 v 87.86018 m 6.4,-589.44247 v -68.52609 m 0,70.01879 v 96.66752 m 0,24.14122 v -20.38468 m 0,22.86254 v 3.84182 m 0,93.33923 v -11.5435 m 0,18.88048 v 13.5683 m 0,12.59062 v -9.33891 m 0,60.18087 v 5.34104 m 0,277.80322 v -81.01789 m 6.4,-577.13539 v 167.56398 m 0,27.42406 v -24.18795 m 0,109.01691 v 12.50588 m 0,31.79837 v -26.22738 m 0,76.81605 v 4.92398 m 0,278.51938 v -74.16544 m 6.4,-586.4394 v 170.44412 m 0,24.88045 V 435.0386 m 0,109.68643 v 13.67661 m 0,27.14743 v -22.76903 m 0,75.10751 v 4.47168 m 0,280.01275 v -67.04542 m 6.4,-593.85709 v 52.46634 m 0,118.53822 V 316.54307 m 0,118.41334 v 19.50821 m 0,20.69721 v -2.24934 m 0,72.64626 v 14.76438 m 0,15.07117 v -11.13763 m 0,71.8466 v 4.41931 m 0,281.8494 v -59.92541 m 6.4,-601.0328 v 53.18036 m 0,118.02006 V 317.40021 m 0,117.21754 v 18.73487 m 0,21.99299 v -3.65588 m 0,75.01422 v 15.54066 m 0,16.54679 v -12.11866 m 0,66.88963 v 4.84205 m 0,78.06388 v -1.0017 m 0,154.38155 v 52.52383 m 6.4,-606.57917 v -54.3504 m 0,57.57646 v 78.78727 m 0,34.94821 v -33.21127 m 0,34.72605 v 19.19117 m 0,20.81826 v -3.51184 m 0,77.4671 v 15.79515 m 0,14.39279 v -8.16267 m 0,59.48539 v 5.55383 m 0,82.93359 v -4.15184 m 0,78.65226 v 5.82965 m 0,123.81001 v -45.12025 m 6.4,-615.69461 v 55.78256 m 0,80.32864 v -76.91778 m 0,78.53654 v 52.82582 m 0,20.26292 v -3.31514 m 0,82.05803 v 13.96895 m 0,17.36768 v -6.59112 m 0,48.16441 v 5.50527 m 0,92.44795 v -8.56898 m 0,80.9793 v 8.70517 m 0,119.27464 v -37.71752 m 6.4,-622.97331 v 57.2054 m 0,36.48277 v -32.89848 m 0,34.49726 v 40.5624 m 0,51.99433 v -50.49374 m 0,67.64761 v 3.09505 m 0,95.51548 v -9.21256 m 0,28.69892 v 7.18088 m 0,29.64635 v -6.84308 m 0,57.11942 v 4.24265 m 0,50.15224 v -12.86266 m 0,81.6522 v 13.15417 m 0,114.15422 v -31.01137 m 6.4,-629.54411 v 58.65312 m 0,35.63351 v -32.01054 m 0,33.37275 v 39.92733 m 0,50.44263 v -49.06021 m 0,65.00168 v 3.60819 m 0,134.78548 v -10.14629 m 0,81.27349 v 2.54563 m 0,40.78542 v -2.35808 m 0,3.3895 v 9.9943 m 0,17.83658 v -0.32654 m 0,50.18003 v 16.35369 m 0,110.67381 v -30.61653 m 6.4,-629.80361 v 60.28124 m 0,34.60385 v -31.12259 m 0,32.24825 v 39.29226 m 0,48.18735 v -46.9231 m 0,61.70652 v 4.92891 m 0,131.99775 v -4.18822 m 0,83.29045 v 1.65024 m 0,38.74672 v -1.50336 m 0,6.33512 v 5.73481 m 0,18.44226 v -1.32843 m 0,51.03641 v 18.82214 m 0,108.18156 v -54.72606 m 6.4,-605.75943 v 62.33786 m 0,33.34639 v -30.55557 m 0,31.44568 v 38.65617 m 0,43.76695 v -42.65883 m 0,46.9224 v 3.25835 m 0,14.65056 v -7.58975 m 0,137.16062 v 3.8505 m 0,84.81166 v -1.65609 m 0,35.7327 v 1.97923 m 0,9.57761 v -4.83039 m 0,21.40676 v 2.33031 m 0,54.86763 v -5.57214 m 0,7.31447 v 15.68477 m 0,104.24764 v -68.61812 m 6.4,-592.06107 v 96.61175 m 0,38.67465 v -38.01736 m 0,38.9494 v 63.19367 m 0,9.41463 v -2.38117 m 0,124.1522 v 3.70446 m 0,88.84089 v -2.15928 m 0,31.92246 v 2.7092 m 0,9.36498 v -4.328 m 0,20.2813 v 3.42504 m 0,54.20481 v -5.65243 m 0,8.39552 v 18.36443 m 0,69.01759 v -47.74409 m 0,52.16758 v 12.33907 m 0,15.22789 v -7.41226 m 6.4,-654.33362 v 98.41225 m 0,37.80302 v -37.51536 m 0,38.27131 v 68.72812 m 0,130.09474 v -4.46637 m 0,91.50226 v 4.65229 m 0,37.58913 v -12.40596 m 0,28.36345 v 4.69081 m 0,53.8076 v -6.46406 m 0,9.18632 v 21.80799 m 0,68.29728 V 835.9877 m 6.4,-579.22668 v 139.94252 m 0,63.50355 v -63.01587 m 0,89.63141 v 1.35117 m 0,97.75681 v -4.28376 m 0,9.97021 v 8.64409 m 0,89.18019 v -12.31355 m 0,35.22014 v 13.3505 m 0,20.94155 v -6.39592 m 0,51.32766 v 8.31409 m 0,29.724 v -27.19068 m 0,37.6115 v 55.7958 m 6.4,-441.36121 V 257.07786 m 0,227.09712 v 3.47541 m 0,151.15781 v -64.58363 m 0,94.7267 v 21.01496 m 0,35.9938 v -14.65327 m 0,26.40156 v 9.3842 m 0,52.13961 V 787.2037 m 0,14.29871 v 34.59253 m 0,62.32716 v -51.92859 m 6.4,-584.57693 v 189.62333 m 0,8.59332 v -3.61933 m 0,24.61138 v 4.84894 m 0,167.64451 v -87.16128 m 0,97.37818 v 27.31466 m 0,35.89481 v -16.88291 m 0,20.67128 v 16.76404 m 0,50.76965 v -16.5997 m 0,18.30019 v 38.78182 m 0,61.84883 v -45.83782 m 6.4,-598.73218 v 202.00668 m 0,25.10383 v -5.56642 m 0,82.4359 v 95.01327 m 0,34.18324 v -23.35451 m 0,43.12241 v 39.17102 m 0,48.86481 v -21.38128 m 0,22.51824 v 43.31146 m 0,55.05784 v -38.55467 m 6.4,-598.05817 V 453.6158 m 0,25.91439 v -5.73252 m 0,82.62294 v 63.82306 m 0,14.69648 v -12.82913 m 0,17.54276 v 20.73179 m 0,25.10293 v -20.55836 m 0,43.30999 v 41.14073 m 0,46.17478 v -26.60342 m 0,26.98115 v 48.86409 m 0,70.93454 v -57.66162 m 6.4,-587.72497 v 177.92147 m 0,26.87119 v -5.53804 m 0,83.87901 v 29.38037 m 0,13.04027 v -5.62301 m 0,37.74177 v 8.11372 m 0,44.10378 v -32.51431 m 0,59.95169 v 140.52062 m 0,49.19127 v -29.58658 m 0,34.0645 v 20.50885 m 6.4,-481.74699 V 271.69284 m 0,192.90549 v 5.24743 m 0,107.98701 v -26.82162 m 0,80.97255 v 5.79614 m 0,43.16177 v -24.18842 m 0,50.61463 v 143.41801 m 0,12.54317 v -9.46075 m 0,11.75164 v 5.64684 m 0,25.43192 v -20.59068 m 0,26.68847 v 19.57554 m 6.4,-651.66445 v -4.41516 m 0,20.6424 v 158.99004 m 0,17.42506 v -5.49703 m 0,91.03343 v 39.25664 m 0,51.48004 v -5.36039 m 0,34.59737 v 6.74282 m 0,40.57186 v -8.88315 m 0,20.68977 v 136.31982 m 0,32.29995 v -22.19947 m 0,27.65806 v 8.83317 m 0,11.47922 v -7.19521 m 6.4,-629.03617 v 168.72391 m 0,137.1954 v -44.95144 m 0,88.2927 v 5.69682 m 0,71.78511 v -5.83583 m 0,22.03436 v 127.40663 m 0,40.26719 v -24.71556 m 0,29.34825 v 8.90767 m 0,12.07617 v -6.72128 m 6.4,-629.23211 v 160.70266 m 0,144.96935 v -46.49602 m 0,52.25139 v 1.57556 m 0,42.40468 v -6.04676 m 0,66.93019 v 10.92602 m 0,134.79188 V 723.37197 m 0,146.35477 v 27.7062 m 0,13.08156 v -9.58251 m 0,14.2705 v 7.16949 m 6.4,-472.59992 V 285.96941 m 0,258.18678 v 44.82378 m 0,16.8171 v -7.79228 m 0,37.53834 v 6.00705 m 0,196.48415 V 692.18636 m 0,175.31248 v 43.70222 m 0,11.17092 v -8.38114 m 6.4,-628.42062 v 168.50653 m 0,126.71497 V 542.5781 m 0,48.11148 v 23.13141 m 0,26.57843 v -5.67558 m 0,46.80521 v 140.49469 m 0,100.34824 v -56.89669 m 6.4,-579.52144 v 4.21306 m 0,170.04882 V 290.81386 m 0,249.68492 v 73.39678 m 0,24.90972 v -5.53966 m 0,40.27083 v 118.11656 m 0,130.71897 v -58.34961 m 6.4,-571.82169 v 177.46971 m 0,143.28109 v -75.37099 m 0,93.35528 v 5.87324 m 0,118.09729 v -92.94717 m 0,201.25817 v 59.15468 m 6.4,-435.00562 V 292.23742 m 0,239.51567 v 79.30534 m 0,23.30019 v -7.10705 m 0,15.86469 v 89.03003 m 0,31.00093 v -11.96801 m 0,111.24232 v 59.95045 m 6.4,-314.20381 V 292.23179 m 0,329.38673 v 9.2387 m 0,94.78623 v -93.713 m 0,130.59806 v 11.62707 m 0,148.2164 V 861.4322 m 6.4,-568.3767 v 3.39875 m 0,305.95377 V 302.45759 m 0,309.43749 v 102.84784 m 0,71.34646 v -11.425 m 0,85.43811 v 62.26949 m 6.4,-228.25752 v -384.7389 m 0,478.42086 v 11.37939 m 0,123.19617 v -64.40813 m 6.4,-546.61716 v 352.12345 m 0,150.75254 v -11.74439 m 0,47.49121 v 72.40248 m 6.4,-277.57691 V 312.97631 m 0,502.99647 v 19.23075 m 0,33.9724 v -29.16957 m 0,75.72366 v 6.64196 m 6.4,-285.27684 V 315.17126 m 0,506.85396 v 100.34676 m 6.4,-295.33097 V 317.59413 m 0,508.53147 v 96.24638 m 6.4,-309.33909 V 320.77692 m 0,508.45653 v 93.13853 m 6.4,-324.48542 V 327.30634 m 0,504.69932 v 90.36632 m 6.4,-341.01055 V 329.85062 m 0,507.00439 v 85.51697 m 6.4,-582.1909 v -4.59027 m 0,11.85888 v 180.89417 m 0,37.30852 v -32.02095 m 0,309.6701 v 79.07045 m 6.4,-558.6664 v -7.58373 m 0,18.9414 v 138.7705 m 0,38.30629 V 533.5157 m 0,315.85833 v 72.99795 m 6.4,-434.97762 V 395.1705 m 0,459.71368 v 67.4878 m 6.4,-490.83625 v -19.95307 m 0,448.36023 v 62.42909 m 6.4,0 v -57.45892 m 6.4,5.066 v 52.39292 m 6.4,0 v -46.6304 m 6.4,6.76169 v 39.86871 m 6.4,0 v -31.51203 m 6.4,14.35086 v 17.16117"
           style="fill:none;stroke:#000000;stroke-width:4.26666689;stroke-miterlimit:4;stroke-dasharray:none"
           inkscape:connector-curvature="0" />
      </g>
    </g>
  </g>
  <eggbot
     id="eggbot4784"
     totaldeltay="0"
     totaldeltax="0"
     lastpathnc="0"
     lastpath="0"
     node="0"
     layer="0"
     serialport="/dev/ttyACM0" />
</svg>
