  0
SECTION
  2
HEADER
  9
$ACADVER
  1
AC1014
  9
$HANDSEED
  5
FFFF
  9
$MEASUREMENT
 70
     1
  0
ENDSEC
  0
SECTION
  2
TABLES
  0
TABLE
  2
VPORT
  5
8
330
0
100
AcDbSymbolTable
 70
     4
  0
VPORT
  5
2E
330
8
100
AcDbSymbolTableRecord
100
AcDbViewportTableRecord
  2
*ACTIVE
 70
     0
 10
0.0
 20
0.0
 11
1.0
 21
1.0
 12
210.0
 22
148.5
 13
0.0
 23
0.0
 14
10.0
 24
10.0
 15
10.0
 25
10.0
 16
0.0
 26
0.0
 36
1.0
 17
0.0
 27
0.0
 37
0.0
 40
341.0
 41
1.24
 42
50.0
 43
0.0
 44
0.0
 50
0.0
 51
0.0
 71
     0
 72
   100
 73
     1
 74
     3
 75
     0
 76
     0
 77
     0
 78
     0
  0
ENDTAB
  0
TABLE
  2
LTYPE
  5
5
330
0
100
AcDbSymbolTable
 70
     1
  0
LTYPE
  5
14
330
5
100
AcDbSymbolTableRecord
100
AcDbLinetypeTableRecord
  2
BYBLOCK
 70
     0
  3

 72
    65
 73
     0
 40
0.0
  0
LTYPE
  5
15
330
5
100
AcDbSymbolTableRecord
100
AcDbLinetypeTableRecord
  2
BYLAYER
 70
     0
  3

 72
    65
 73
     0
 40
0.0
  0
LTYPE
  5
16
330
5
100
AcDbSymbolTableRecord
100
AcDbLinetypeTableRecord
  2
CONTINUOUS
 70
     0
  3
Solid line
 72
    65
 73
     0
 40
0.0
  0
ENDTAB
  0
TABLE
  2
LAYER
  5
2
100
AcDbSymbolTable
 70
2
  0
LAYER
  5
50
100
AcDbSymbolTableRecord
100
AcDbLayerTableRecord
  2
0
 70
0
  6
CONTINUOUS
  0
LAYER
  5
51
100
AcDbSymbolTableRecord
100
AcDbLayerTableRecord
  2
Layer_1
 70
0
  6
CONTINUOUS
  0
ENDTAB
  0
TABLE
  2
STYLE
  5
3
330
0
100
AcDbSymbolTable
 70
     1
  0
STYLE
  5
11
330
3
100
AcDbSymbolTableRecord
100
AcDbTextStyleTableRecord
  2
STANDARD
 70
     0
 40
0.0
 41
1.0
 50
0.0
 71
     0
 42
2.5
  3
txt
  4

  0
ENDTAB
  0
TABLE
  2
VIEW
  5
6
330
0
100
AcDbSymbolTable
 70
     0
  0
ENDTAB
  0
TABLE
  2
UCS
  5
7
330
0
100
AcDbSymbolTable
 70
     0
  0
ENDTAB
  0
TABLE
  2
APPID
  5
9
330
0
100
AcDbSymbolTable
 70
     2
  0
APPID
  5
12
330
9
100
AcDbSymbolTableRecord
100
AcDbRegAppTableRecord
  2
ACAD
 70
     0
  0
ENDTAB
  0
TABLE
  2
DIMSTYLE
  5
A
330
0
100
AcDbSymbolTable
 70
     1
  0
DIMSTYLE
105
27
330
A
100
AcDbSymbolTableRecord
100
AcDbDimStyleTableRecord
  2
ISO-25
 70
     0
  3

  4

  5

  6

  7

 40
1.0
 41
2.5
 42
0.625
 43
3.75
 44
1.25
 45
0.0
 46
0.0
 47
0.0
 48
0.0
140
2.5
141
2.5
142
0.0
143
0.03937007874016
144
1.0
145
0.0
146
1.0
147
0.625
 71
     0
 72
     0
 73
     0
 74
     0
 75
     0
 76
     0
 77
     1
 78
     8
170
     0
171
     3
172
     1
173
     0
174
     0
175
     0
176
     0
177
     0
178
     0
270
     2
271
     2
272
     2
273
     2
274
     3
340
11
275
     0
280
     0
281
     0
282
     0
283
     0
284
     8
285
     0
286
     0
287
     3
288
     0
  0
ENDTAB
  0
TABLE
  2
BLOCK_RECORD
  5
1
330
0
100
AcDbSymbolTable
 70
     1
  0
BLOCK_RECORD
  5
1F
330
1
100
AcDbSymbolTableRecord
100
AcDbBlockTableRecord
  2
*MODEL_SPACE
  0
BLOCK_RECORD
  5
1B
330
1
100
AcDbSymbolTableRecord
100
AcDbBlockTableRecord
  2
*PAPER_SPACE
  0
ENDTAB
  0
ENDSEC
  0
SECTION
  2
BLOCKS
  0
BLOCK
  5
20
330
1F
100
AcDbEntity
  8
0
100
AcDbBlockBegin
  2
*MODEL_SPACE
 70
     0
 10
0.0
 20
0.0
 30
0.0
  3
*MODEL_SPACE
  1

  0
ENDBLK
  5
21
330
1F
100
AcDbEntity
  8
0
100
AcDbBlockEnd
  0
BLOCK
  5
1C
330
1B
100
AcDbEntity
 67
     1
  8
0
100
AcDbBlockBegin
  2
*PAPER_SPACE
  1

  0
ENDBLK
  5
1D
330
1B
100
AcDbEntity
 67
     1
  8
0
100
AcDbBlockEnd
  0
ENDSEC
  0
SECTION
  2
ENTITIES
  0
LWPOLYLINE
  5
100
100
AcDbEntity
  8
Layer_1
 62
7
100
AcDbPolyline
 90
9
 70
0
 10
0.000000
 20
8.450000
 30
0.0
 10
0.000000
 20
8.439306
 30
0.0
 10
0.000000
 20
7.700016
 30
0.0
 10
0.021222
 20
7.700016
 30
0.0
 10
0.021222
 20
8.428723
 30
0.0
 10
0.749984
 20
8.428723
 30
0.0
 10
0.749984
 20
8.450000
 30
0.0
 10
0.000000
 20
8.450000
 30
0.0
 10
0.000000
 20
8.450000
 30
0.0
  0
LWPOLYLINE
  5
101
100
AcDbEntity
  8
Layer_1
 62
7
100
AcDbPolyline
 90
8
 70
0
 10
10.300009
 20
8.450000
 30
0.0
 10
10.300009
 20
8.428723
 30
0.0
 10
11.028770
 20
8.428723
 30
0.0
 10
11.028770
 20
7.700016
 30
0.0
 10
11.049992
 20
7.700016
 30
0.0
 10
11.049992
 20
8.450000
 30
0.0
 10
10.300009
 20
8.450000
 30
0.0
 10
10.300009
 20
8.450000
 30
0.0
  0
LWPOLYLINE
  5
102
100
AcDbEntity
  8
Layer_1
 62
7
100
AcDbPolyline
 90
20
 70
0
 10
0.780025
 20
8.125003
 30
0.0
 10
0.780025
 20
8.060015
 30
0.0
 10
0.780025
 20
7.929984
 30
0.0
 10
0.845013
 20
7.929984
 30
0.0
 10
0.845013
 20
8.060015
 30
0.0
 10
1.430018
 20
8.060015
 30
0.0
 10
1.430018
 20
7.929984
 30
0.0
 10
1.495006
 20
7.929984
 30
0.0
 10
1.495006
 20
8.060015
 30
0.0
 10
2.080011
 20
8.060015
 30
0.0
 10
2.080011
 20
7.929984
 30
0.0
 10
2.144999
 20
7.929984
 30
0.0
 10
2.144999
 20
8.060015
 30
0.0
 10
2.730004
 20
8.060015
 30
0.0
 10
2.730004
 20
7.929984
 30
0.0
 10
2.794992
 20
7.929984
 30
0.0
 10
2.794992
 20
8.125003
 30
0.0
 10
0.845013
 20
8.125003
 30
0.0
 10
0.780025
 20
8.125003
 30
0.0
 10
0.780025
 20
8.125003
 30
0.0
  0
LWPOLYLINE
  5
103
100
AcDbEntity
  8
Layer_1
 62
7
100
AcDbPolyline
 90
16
 70
0
 10
5.980024
 20
8.125003
 30
0.0
 10
5.980024
 20
7.929984
 30
0.0
 10
6.045013
 20
7.929984
 30
0.0
 10
6.045013
 20
8.060015
 30
0.0
 10
6.630018
 20
8.060015
 30
0.0
 10
6.630018
 20
7.929984
 30
0.0
 10
6.695006
 20
7.929984
 30
0.0
 10
6.695006
 20
8.060015
 30
0.0
 10
7.280010
 20
8.060015
 30
0.0
 10
7.280010
 20
7.929984
 30
0.0
 10
7.344999
 20
7.929984
 30
0.0
 10
7.344999
 20
8.125003
 30
0.0
 10
7.280010
 20
8.125003
 30
0.0
 10
6.045013
 20
8.125003
 30
0.0
 10
5.980024
 20
8.125003
 30
0.0
 10
5.980024
 20
8.125003
 30
0.0
  0
LWPOLYLINE
  5
104
100
AcDbEntity
  8
Layer_1
 62
7
100
AcDbPolyline
 90
10
 70
0
 10
4.679983
 20
8.060015
 30
0.0
 10
4.679983
 20
7.995027
 30
0.0
 10
4.679983
 20
7.929984
 30
0.0
 10
4.745026
 20
7.929984
 30
0.0
 10
4.745026
 20
7.995027
 30
0.0
 10
4.875003
 20
7.995027
 30
0.0
 10
4.875003
 20
8.060015
 30
0.0
 10
4.745026
 20
8.060015
 30
0.0
 10
4.679983
 20
8.060015
 30
0.0
 10
4.679983
 20
8.060015
 30
0.0
  0
LWPOLYLINE
  5
105
100
AcDbEntity
  8
Layer_1
 62
7
100
AcDbPolyline
 90
9
 70
0
 10
3.379997
 20
7.669975
 30
0.0
 10
3.379997
 20
7.604987
 30
0.0
 10
3.444985
 20
7.604987
 30
0.0
 10
3.444985
 20
7.475010
 30
0.0
 10
3.509974
 20
7.475010
 30
0.0
 10
3.509974
 20
7.669975
 30
0.0
 10
3.444985
 20
7.669975
 30
0.0
 10
3.379997
 20
7.669975
 30
0.0
 10
3.379997
 20
7.669975
 30
0.0
  0
LWPOLYLINE
  5
106
100
AcDbEntity
  8
Layer_1
 62
7
100
AcDbPolyline
 90
24
 70
0
 10
5.329976
 20
7.669975
 30
0.0
 10
5.329976
 20
7.604987
 30
0.0
 10
5.395020
 20
7.604987
 30
0.0
 10
5.395020
 20
7.019982
 30
0.0
 10
5.329976
 20
7.019982
 30
0.0
 10
5.329976
 20
6.954994
 30
0.0
 10
5.395020
 20
6.954994
 30
0.0
 10
5.395020
 20
6.369989
 30
0.0
 10
5.329976
 20
6.369989
 30
0.0
 10
5.329976
 20
6.305001
 30
0.0
 10
5.395020
 20
6.305001
 30
0.0
 10
5.395020
 20
5.719996
 30
0.0
 10
5.329976
 20
5.719996
 30
0.0
 10
5.329976
 20
5.655008
 30
0.0
 10
5.395020
 20
5.655008
 30
0.0
 10
5.395020
 20
5.070003
 30
0.0
 10
5.329976
 20
5.070003
 30
0.0
 10
5.329976
 20
5.005015
 30
0.0
 10
5.460008
 20
5.005015
 30
0.0
 10
5.460008
 20
5.070003
 30
0.0
 10
5.460008
 20
7.604987
 30
0.0
 10
5.460008
 20
7.669975
 30
0.0
 10
5.329976
 20
7.669975
 30
0.0
 10
5.329976
 20
7.669975
 30
0.0
  0
LWPOLYLINE
  5
107
100
AcDbEntity
  8
Layer_1
 62
7
100
AcDbPolyline
 90
8
 70
0
 10
7.930004
 20
7.669975
 30
0.0
 10
7.930004
 20
7.604987
 30
0.0
 10
7.994992
 20
7.604987
 30
0.0
 10
7.994992
 20
7.475010
 30
0.0
 10
8.059980
 20
7.475010
 30
0.0
 10
8.059980
 20
7.669975
 30
0.0
 10
7.930004
 20
7.669975
 30
0.0
 10
7.930004
 20
7.669975
 30
0.0
  0
LWPOLYLINE
  5
108
100
AcDbEntity
  8
Layer_1
 62
7
100
AcDbPolyline
 90
9
 70
0
 10
8.579996
 20
7.475010
 30
0.0
 10
8.579996
 20
7.279990
 30
0.0
 10
8.644985
 20
7.279990
 30
0.0
 10
8.644985
 20
7.410022
 30
0.0
 10
8.840005
 20
7.410022
 30
0.0
 10
8.840005
 20
7.475010
 30
0.0
 10
8.644985
 20
7.475010
 30
0.0
 10
8.579996
 20
7.475010
 30
0.0
 10
8.579996
 20
7.475010
 30
0.0
  0
LWPOLYLINE
  5
109
100
AcDbEntity
  8
Layer_1
 62
7
100
AcDbPolyline
 90
9
 70
0
 10
0.389985
 20
7.344979
 30
0.0
 10
0.389985
 20
7.279990
 30
0.0
 10
0.389985
 20
7.150014
 30
0.0
 10
0.454973
 20
7.150014
 30
0.0
 10
0.454973
 20
7.279990
 30
0.0
 10
0.520016
 20
7.279990
 30
0.0
 10
0.520016
 20
7.344979
 30
0.0
 10
0.389985
 20
7.344979
 30
0.0
 10
0.389985
 20
7.344979
 30
0.0
  0
LWPOLYLINE
  5
10a
100
AcDbEntity
  8
Layer_1
 62
7
100
AcDbPolyline
 90
24
 70
0
 10
4.289998
 20
7.344979
 30
0.0
 10
4.289998
 20
4.680018
 30
0.0
 10
4.354987
 20
4.680018
 30
0.0
 10
4.419975
 20
4.680018
 30
0.0
 10
4.419975
 20
4.745006
 30
0.0
 10
4.354987
 20
4.745006
 30
0.0
 10
4.354987
 20
5.330011
 30
0.0
 10
4.419975
 20
5.330011
 30
0.0
 10
4.419975
 20
5.394999
 30
0.0
 10
4.354987
 20
5.394999
 30
0.0
 10
4.354987
 20
5.980004
 30
0.0
 10
4.419975
 20
5.980004
 30
0.0
 10
4.419975
 20
6.044993
 30
0.0
 10
4.354987
 20
6.044993
 30
0.0
 10
4.354987
 20
6.629997
 30
0.0
 10
4.419975
 20
6.629997
 30
0.0
 10
4.419975
 20
6.694986
 30
0.0
 10
4.354987
 20
6.694986
 30
0.0
 10
4.354987
 20
7.279990
 30
0.0
 10
4.419975
 20
7.279990
 30
0.0
 10
4.419975
 20
7.344979
 30
0.0
 10
4.354987
 20
7.344979
 30
0.0
 10
4.289998
 20
7.344979
 30
0.0
 10
4.289998
 20
7.344979
 30
0.0
  0
LWPOLYLINE
  5
10b
100
AcDbEntity
  8
Layer_1
 62
7
100
AcDbPolyline
 90
15
 70
0
 10
5.589984
 20
7.344979
 30
0.0
 10
5.589984
 20
7.279990
 30
0.0
 10
5.589984
 20
5.980004
 30
0.0
 10
5.720016
 20
5.980004
 30
0.0
 10
5.720016
 20
6.044993
 30
0.0
 10
5.655028
 20
6.044993
 30
0.0
 10
5.655028
 20
6.629997
 30
0.0
 10
5.720016
 20
6.629997
 30
0.0
 10
5.720016
 20
6.694986
 30
0.0
 10
5.655028
 20
6.694986
 30
0.0
 10
5.655028
 20
7.279990
 30
0.0
 10
5.720016
 20
7.279990
 30
0.0
 10
5.720016
 20
7.344979
 30
0.0
 10
5.589984
 20
7.344979
 30
0.0
 10
5.589984
 20
7.344979
 30
0.0
  0
LWPOLYLINE
  5
10c
100
AcDbEntity
  8
Layer_1
 62
7
100
AcDbPolyline
 90
12
 70
0
 10
1.105021
 20
7.019982
 30
0.0
 10
1.105021
 20
6.954994
 30
0.0
 10
1.105021
 20
6.890006
 30
0.0
 10
1.755014
 20
6.890006
 30
0.0
 10
1.755014
 20
6.954994
 30
0.0
 10
1.820003
 20
7.019982
 30
0.0
 10
1.755014
 20
7.019982
 30
0.0
 10
1.690026
 20
6.954994
 30
0.0
 10
1.170010
 20
6.954994
 30
0.0
 10
1.170010
 20
7.019982
 30
0.0
 10
1.105021
 20
7.019982
 30
0.0
 10
1.105021
 20
7.019982
 30
0.0
  0
LWPOLYLINE
  5
10d
100
AcDbEntity
  8
Layer_1
 62
7
100
AcDbPolyline
 90
9
 70
0
 10
3.055001
 20
7.019982
 30
0.0
 10
3.055001
 20
6.890006
 30
0.0
 10
3.119989
 20
6.890006
 30
0.0
 10
3.250020
 20
6.890006
 30
0.0
 10
3.250020
 20
6.954994
 30
0.0
 10
3.119989
 20
6.954994
 30
0.0
 10
3.119989
 20
7.019982
 30
0.0
 10
3.055001
 20
7.019982
 30
0.0
 10
3.055001
 20
7.019982
 30
0.0
  0
LWPOLYLINE
  5
10e
100
AcDbEntity
  8
Layer_1
 62
7
100
AcDbPolyline
 90
17
 70
0
 10
6.630018
 20
7.019982
 30
0.0
 10
6.630018
 20
6.954994
 30
0.0
 10
6.695006
 20
6.890006
 30
0.0
 10
6.955014
 20
6.890006
 30
0.0
 10
7.020002
 20
6.890006
 30
0.0
 10
7.605007
 20
6.890006
 30
0.0
 10
7.669995
 20
6.890006
 30
0.0
 10
7.669995
 20
7.019982
 30
0.0
 10
7.605007
 20
7.019982
 30
0.0
 10
7.605007
 20
6.954994
 30
0.0
 10
7.020002
 20
6.954994
 30
0.0
 10
7.020002
 20
7.019982
 30
0.0
 10
6.955014
 20
7.019982
 30
0.0
 10
6.955014
 20
6.954994
 30
0.0
 10
6.695006
 20
6.954994
 30
0.0
 10
6.630018
 20
7.019982
 30
0.0
 10
6.630018
 20
7.019982
 30
0.0
  0
LWPOLYLINE
  5
10f
100
AcDbEntity
  8
Layer_1
 62
7
100
AcDbPolyline
 90
11
 70
0
 10
9.229990
 20
7.019982
 30
0.0
 10
9.229990
 20
6.954994
 30
0.0
 10
9.360021
 20
6.954994
 30
0.0
 10
9.360021
 20
6.369989
 30
0.0
 10
9.229990
 20
6.369989
 30
0.0
 10
9.229990
 20
6.305001
 30
0.0
 10
9.425010
 20
6.305001
 30
0.0
 10
9.425010
 20
6.369989
 30
0.0
 10
9.425010
 20
7.019982
 30
0.0
 10
9.229990
 20
7.019982
 30
0.0
 10
9.229990
 20
7.019982
 30
0.0
  0
LWPOLYLINE
  5
110
100
AcDbEntity
  8
Layer_1
 62
7
100
AcDbPolyline
 90
17
 70
0
 10
7.280010
 20
6.825017
 30
0.0
 10
7.280010
 20
6.629997
 30
0.0
 10
7.344999
 20
6.629997
 30
0.0
 10
7.344999
 20
6.759974
 30
0.0
 10
7.930004
 20
6.759974
 30
0.0
 10
7.930004
 20
6.629997
 30
0.0
 10
7.994992
 20
6.629997
 30
0.0
 10
7.994992
 20
6.694986
 30
0.0
 10
8.255000
 20
6.694986
 30
0.0
 10
8.319988
 20
6.629997
 30
0.0
 10
8.319988
 20
6.694986
 30
0.0
 10
8.255000
 20
6.759974
 30
0.0
 10
7.994992
 20
6.759974
 30
0.0
 10
7.994992
 20
6.825017
 30
0.0
 10
7.344999
 20
6.825017
 30
0.0
 10
7.280010
 20
6.825017
 30
0.0
 10
7.280010
 20
6.825017
 30
0.0
  0
LWPOLYLINE
  5
111
100
AcDbEntity
  8
Layer_1
 62
7
100
AcDbPolyline
 90
9
 70
0
 10
2.405007
 20
6.369989
 30
0.0
 10
2.405007
 20
6.240013
 30
0.0
 10
2.469996
 20
6.240013
 30
0.0
 10
2.600027
 20
6.240013
 30
0.0
 10
2.600027
 20
6.305001
 30
0.0
 10
2.469996
 20
6.305001
 30
0.0
 10
2.469996
 20
6.369989
 30
0.0
 10
2.405007
 20
6.369989
 30
0.0
 10
2.405007
 20
6.369989
 30
0.0
  0
LWPOLYLINE
  5
112
100
AcDbEntity
  8
Layer_1
 62
7
100
AcDbPolyline
 90
8
 70
0
 10
6.630018
 20
6.369989
 30
0.0
 10
6.630018
 20
6.305001
 30
0.0
 10
6.695006
 20
6.305001
 30
0.0
 10
6.695006
 20
6.175024
 30
0.0
 10
6.759994
 20
6.175024
 30
0.0
 10
6.759994
 20
6.369989
 30
0.0
 10
6.630018
 20
6.369989
 30
0.0
 10
6.630018
 20
6.369989
 30
0.0
  0
LWPOLYLINE
  5
113
100
AcDbEntity
  8
Layer_1
 62
7
100
AcDbPolyline
 90
13
 70
0
 10
0.780025
 20
6.175024
 30
0.0
 10
0.780025
 20
6.109981
 30
0.0
 10
0.780025
 20
5.980004
 30
0.0
 10
0.845013
 20
5.980004
 30
0.0
 10
0.845013
 20
6.109981
 30
0.0
 10
1.430018
 20
6.109981
 30
0.0
 10
1.430018
 20
5.980004
 30
0.0
 10
1.495006
 20
5.980004
 30
0.0
 10
1.495006
 20
6.175024
 30
0.0
 10
1.430018
 20
6.175024
 30
0.0
 10
0.845013
 20
6.175024
 30
0.0
 10
0.780025
 20
6.175024
 30
0.0
 10
0.780025
 20
6.175024
 30
0.0
  0
LWPOLYLINE
  5
114
100
AcDbEntity
  8
Layer_1
 62
7
100
AcDbPolyline
 90
8
 70
0
 10
6.890026
 20
6.175024
 30
0.0
 10
6.890026
 20
5.980004
 30
0.0
 10
7.020002
 20
5.980004
 30
0.0
 10
7.020002
 20
6.044993
 30
0.0
 10
6.955014
 20
6.044993
 30
0.0
 10
6.955014
 20
6.175024
 30
0.0
 10
6.890026
 20
6.175024
 30
0.0
 10
6.890026
 20
6.175024
 30
0.0
  0
LWPOLYLINE
  5
115
100
AcDbEntity
  8
Layer_1
 62
7
100
AcDbPolyline
 90
10
 70
0
 10
9.879982
 20
6.175024
 30
0.0
 10
9.879982
 20
6.109981
 30
0.0
 10
9.879982
 20
5.980004
 30
0.0
 10
9.945026
 20
5.980004
 30
0.0
 10
9.945026
 20
6.109981
 30
0.0
 10
10.075003
 20
6.109981
 30
0.0
 10
10.075003
 20
6.175024
 30
0.0
 10
9.945026
 20
6.175024
 30
0.0
 10
9.879982
 20
6.175024
 30
0.0
 10
9.879982
 20
6.175024
 30
0.0
  0
LWPOLYLINE
  5
116
100
AcDbEntity
  8
Layer_1
 62
7
100
AcDbPolyline
 90
9
 70
0
 10
2.080011
 20
5.719996
 30
0.0
 10
2.080011
 20
5.655008
 30
0.0
 10
2.144999
 20
5.655008
 30
0.0
 10
2.144999
 20
5.524976
 30
0.0
 10
2.209987
 20
5.524976
 30
0.0
 10
2.209987
 20
5.719996
 30
0.0
 10
2.144999
 20
5.719996
 30
0.0
 10
2.080011
 20
5.719996
 30
0.0
 10
2.080011
 20
5.719996
 30
0.0
  0
LWPOLYLINE
  5
117
100
AcDbEntity
  8
Layer_1
 62
7
100
AcDbPolyline
 90
9
 70
0
 10
6.305021
 20
5.719996
 30
0.0
 10
6.305021
 20
5.590020
 30
0.0
 10
6.370009
 20
5.590020
 30
0.0
 10
6.499986
 20
5.590020
 30
0.0
 10
6.499986
 20
5.655008
 30
0.0
 10
6.370009
 20
5.655008
 30
0.0
 10
6.370009
 20
5.719996
 30
0.0
 10
6.305021
 20
5.719996
 30
0.0
 10
6.305021
 20
5.719996
 30
0.0
  0
LWPOLYLINE
  5
118
100
AcDbEntity
  8
Layer_1
 62
7
100
AcDbPolyline
 90
10
 70
0
 10
7.605007
 20
5.719996
 30
0.0
 10
7.540019
 20
5.655008
 30
0.0
 10
7.540019
 20
5.330011
 30
0.0
 10
7.669995
 20
5.330011
 30
0.0
 10
7.669995
 20
5.394999
 30
0.0
 10
7.605007
 20
5.394999
 30
0.0
 10
7.605007
 20
5.655008
 30
0.0
 10
7.669995
 20
5.719996
 30
0.0
 10
7.605007
 20
5.719996
 30
0.0
 10
7.605007
 20
5.719996
 30
0.0
  0
LWPOLYLINE
  5
119
100
AcDbEntity
  8
Layer_1
 62
7
100
AcDbPolyline
 90
11
 70
0
 10
8.579996
 20
5.719996
 30
0.0
 10
8.579996
 20
5.655008
 30
0.0
 10
8.644985
 20
5.590020
 30
0.0
 10
8.904993
 20
5.590020
 30
0.0
 10
8.969981
 20
5.590020
 30
0.0
 10
8.969981
 20
5.719996
 30
0.0
 10
8.904993
 20
5.719996
 30
0.0
 10
8.904993
 20
5.655008
 30
0.0
 10
8.644985
 20
5.655008
 30
0.0
 10
8.579996
 20
5.719996
 30
0.0
 10
8.579996
 20
5.719996
 30
0.0
  0
LWPOLYLINE
  5
11a
100
AcDbEntity
  8
Layer_1
 62
7
100
AcDbPolyline
 90
16
 70
0
 10
10.529976
 20
5.719996
 30
0.0
 10
10.529976
 20
5.655008
 30
0.0
 10
10.660007
 20
5.655008
 30
0.0
 10
10.660007
 20
5.070003
 30
0.0
 10
10.529976
 20
5.070003
 30
0.0
 10
10.529976
 20
5.005015
 30
0.0
 10
10.660007
 20
5.005015
 30
0.0
 10
10.660007
 20
4.420010
 30
0.0
 10
10.529976
 20
4.420010
 30
0.0
 10
10.529976
 20
4.355022
 30
0.0
 10
10.724996
 20
4.355022
 30
0.0
 10
10.724996
 20
4.420010
 30
0.0
 10
10.724996
 20
5.655008
 30
0.0
 10
10.724996
 20
5.719996
 30
0.0
 10
10.529976
 20
5.719996
 30
0.0
 10
10.529976
 20
5.719996
 30
0.0
  0
LWPOLYLINE
  5
11b
100
AcDbEntity
  8
Layer_1
 62
7
100
AcDbPolyline
 90
10
 70
0
 10
3.379997
 20
5.459988
 30
0.0
 10
3.379997
 20
5.394999
 30
0.0
 10
3.379997
 20
5.330011
 30
0.0
 10
3.444985
 20
5.330011
 30
0.0
 10
3.444985
 20
5.394999
 30
0.0
 10
3.575017
 20
5.394999
 30
0.0
 10
3.575017
 20
5.459988
 30
0.0
 10
3.444985
 20
5.459988
 30
0.0
 10
3.379997
 20
5.459988
 30
0.0
 10
3.379997
 20
5.459988
 30
0.0
  0
LWPOLYLINE
  5
11c
100
AcDbEntity
  8
Layer_1
 62
7
100
AcDbPolyline
 90
24
 70
0
 10
0.324997
 20
5.394999
 30
0.0
 10
0.324997
 20
5.330011
 30
0.0
 10
0.324997
 20
4.745006
 30
0.0
 10
0.324997
 20
4.680018
 30
0.0
 10
0.324997
 20
4.095013
 30
0.0
 10
0.324997
 20
4.030025
 30
0.0
 10
0.324997
 20
3.445020
 30
0.0
 10
0.324997
 20
3.379977
 30
0.0
 10
0.520016
 20
3.379977
 30
0.0
 10
0.520016
 20
3.445020
 30
0.0
 10
0.389985
 20
3.445020
 30
0.0
 10
0.389985
 20
4.030025
 30
0.0
 10
0.520016
 20
4.030025
 30
0.0
 10
0.520016
 20
4.095013
 30
0.0
 10
0.389985
 20
4.095013
 30
0.0
 10
0.389985
 20
4.680018
 30
0.0
 10
0.520016
 20
4.680018
 30
0.0
 10
0.520016
 20
4.745006
 30
0.0
 10
0.389985
 20
4.745006
 30
0.0
 10
0.389985
 20
5.330011
 30
0.0
 10
0.520016
 20
5.330011
 30
0.0
 10
0.520016
 20
5.394999
 30
0.0
 10
0.324997
 20
5.394999
 30
0.0
 10
0.324997
 20
5.394999
 30
0.0
  0
LWPOLYLINE
  5
11d
100
AcDbEntity
  8
Layer_1
 62
7
100
AcDbPolyline
 90
18
 70
0
 10
9.425010
 20
5.394999
 30
0.0
 10
9.425010
 20
5.330011
 30
0.0
 10
9.425010
 20
4.809995
 30
0.0
 10
9.294978
 20
4.809995
 30
0.0
 10
9.229990
 20
4.809995
 30
0.0
 10
9.229990
 20
4.680018
 30
0.0
 10
9.294978
 20
4.680018
 30
0.0
 10
9.294978
 20
4.745006
 30
0.0
 10
9.554986
 20
4.745006
 30
0.0
 10
9.619974
 20
4.680018
 30
0.0
 10
9.619974
 20
4.745006
 30
0.0
 10
9.554986
 20
4.809995
 30
0.0
 10
9.489998
 20
4.809995
 30
0.0
 10
9.489998
 20
5.330011
 30
0.0
 10
9.619974
 20
5.330011
 30
0.0
 10
9.619974
 20
5.394999
 30
0.0
 10
9.425010
 20
5.394999
 30
0.0
 10
9.425010
 20
5.394999
 30
0.0
  0
LWPOLYLINE
  5
11e
100
AcDbEntity
  8
Layer_1
 62
7
100
AcDbPolyline
 90
11
 70
0
 10
1.430018
 20
5.070003
 30
0.0
 10
1.430018
 20
5.005015
 30
0.0
 10
1.495006
 20
4.940026
 30
0.0
 10
1.755014
 20
4.940026
 30
0.0
 10
1.820003
 20
4.940026
 30
0.0
 10
1.820003
 20
5.070003
 30
0.0
 10
1.755014
 20
5.070003
 30
0.0
 10
1.755014
 20
5.005015
 30
0.0
 10
1.495006
 20
5.005015
 30
0.0
 10
1.430018
 20
5.070003
 30
0.0
 10
1.430018
 20
5.070003
 30
0.0
  0
LWPOLYLINE
  5
11f
100
AcDbEntity
  8
Layer_1
 62
7
100
AcDbPolyline
 90
12
 70
0
 10
4.029990
 20
5.070003
 30
0.0
 10
4.029990
 20
5.005015
 30
0.0
 10
4.094978
 20
5.005015
 30
0.0
 10
4.094978
 20
4.420010
 30
0.0
 10
4.029990
 20
4.420010
 30
0.0
 10
4.029990
 20
4.355022
 30
0.0
 10
4.160022
 20
4.355022
 30
0.0
 10
4.160022
 20
4.420010
 30
0.0
 10
4.160022
 20
5.005015
 30
0.0
 10
4.160022
 20
5.070003
 30
0.0
 10
4.029990
 20
5.070003
 30
0.0
 10
4.029990
 20
5.070003
 30
0.0
  0
LWPOLYLINE
  5
120
100
AcDbEntity
  8
Layer_1
 62
7
100
AcDbPolyline
 90
9
 70
0
 10
8.255000
 20
5.070003
 30
0.0
 10
8.255000
 20
4.940026
 30
0.0
 10
8.059980
 20
4.940026
 30
0.0
 10
8.059980
 20
4.874983
 30
0.0
 10
8.255000
 20
4.874983
 30
0.0
 10
8.319988
 20
4.874983
 30
0.0
 10
8.319988
 20
5.070003
 30
0.0
 10
8.255000
 20
5.070003
 30
0.0
 10
8.255000
 20
5.070003
 30
0.0
  0
LWPOLYLINE
  5
121
100
AcDbEntity
  8
Layer_1
 62
7
100
AcDbPolyline
 90
19
 70
0
 10
2.080011
 20
4.874983
 30
0.0
 10
2.080011
 20
4.809995
 30
0.0
 10
2.080011
 20
4.680018
 30
0.0
 10
2.144999
 20
4.680018
 30
0.0
 10
2.144999
 20
4.809995
 30
0.0
 10
2.730004
 20
4.809995
 30
0.0
 10
2.730004
 20
4.680018
 30
0.0
 10
2.794992
 20
4.680018
 30
0.0
 10
2.794992
 20
4.745006
 30
0.0
 10
3.055001
 20
4.745006
 30
0.0
 10
3.119989
 20
4.680018
 30
0.0
 10
3.119989
 20
4.745006
 30
0.0
 10
3.055001
 20
4.809995
 30
0.0
 10
2.794992
 20
4.809995
 30
0.0
 10
2.794992
 20
4.874983
 30
0.0
 10
2.730004
 20
4.874983
 30
0.0
 10
2.144999
 20
4.874983
 30
0.0
 10
2.080011
 20
4.874983
 30
0.0
 10
2.080011
 20
4.874983
 30
0.0
  0
LWPOLYLINE
  5
122
100
AcDbEntity
  8
Layer_1
 62
7
100
AcDbPolyline
 90
9
 70
0
 10
5.980024
 20
4.809995
 30
0.0
 10
5.980024
 20
4.680018
 30
0.0
 10
6.045013
 20
4.680018
 30
0.0
 10
6.045013
 20
4.745006
 30
0.0
 10
6.174989
 20
4.745006
 30
0.0
 10
6.174989
 20
4.809995
 30
0.0
 10
6.045013
 20
4.809995
 30
0.0
 10
5.980024
 20
4.809995
 30
0.0
 10
5.980024
 20
4.809995
 30
0.0
  0
LWPOLYLINE
  5
123
100
AcDbEntity
  8
Layer_1
 62
7
100
AcDbPolyline
 90
11
 70
0
 10
1.430018
 20
4.420010
 30
0.0
 10
1.430018
 20
4.355022
 30
0.0
 10
1.495006
 20
4.355022
 30
0.0
 10
1.495006
 20
3.770017
 30
0.0
 10
1.430018
 20
3.770017
 30
0.0
 10
1.430018
 20
3.704974
 30
0.0
 10
1.559994
 20
3.704974
 30
0.0
 10
1.559994
 20
3.770017
 30
0.0
 10
1.559994
 20
4.420010
 30
0.0
 10
1.430018
 20
4.420010
 30
0.0
 10
1.430018
 20
4.420010
 30
0.0
  0
LWPOLYLINE
  5
124
100
AcDbEntity
  8
Layer_1
 62
7
100
AcDbPolyline
 90
9
 70
0
 10
5.004980
 20
4.420010
 30
0.0
 10
5.004980
 20
4.289978
 30
0.0
 10
5.070023
 20
4.289978
 30
0.0
 10
5.199999
 20
4.289978
 30
0.0
 10
5.199999
 20
4.355022
 30
0.0
 10
5.070023
 20
4.355022
 30
0.0
 10
5.070023
 20
4.420010
 30
0.0
 10
5.004980
 20
4.420010
 30
0.0
 10
5.004980
 20
4.420010
 30
0.0
  0
LWPOLYLINE
  5
125
100
AcDbEntity
  8
Layer_1
 62
7
100
AcDbPolyline
 90
11
 70
0
 10
6.630018
 20
4.420010
 30
0.0
 10
6.630018
 20
4.355022
 30
0.0
 10
6.695006
 20
4.355022
 30
0.0
 10
6.695006
 20
4.095013
 30
0.0
 10
6.630018
 20
4.030025
 30
0.0
 10
6.695006
 20
4.030025
 30
0.0
 10
6.759994
 20
4.095013
 30
0.0
 10
6.759994
 20
4.355022
 30
0.0
 10
6.759994
 20
4.420010
 30
0.0
 10
6.630018
 20
4.420010
 30
0.0
 10
6.630018
 20
4.420010
 30
0.0
  0
LWPOLYLINE
  5
126
100
AcDbEntity
  8
Layer_1
 62
7
100
AcDbPolyline
 90
12
 70
0
 10
5.329976
 20
4.160002
 30
0.0
 10
5.329976
 20
4.030025
 30
0.0
 10
5.395020
 20
4.030025
 30
0.0
 10
5.395020
 20
4.095013
 30
0.0
 10
5.655028
 20
4.095013
 30
0.0
 10
5.720016
 20
4.030025
 30
0.0
 10
5.720016
 20
4.095013
 30
0.0
 10
5.655028
 20
4.160002
 30
0.0
 10
5.654973
 20
4.160002
 30
0.0
 10
5.395020
 20
4.160002
 30
0.0
 10
5.329976
 20
4.160002
 30
0.0
 10
5.329976
 20
4.160002
 30
0.0
  0
LWPOLYLINE
  5
127
100
AcDbEntity
  8
Layer_1
 62
7
100
AcDbPolyline
 90
11
 70
0
 10
1.690026
 20
4.095013
 30
0.0
 10
1.690026
 20
4.030025
 30
0.0
 10
1.690026
 20
3.379977
 30
0.0
 10
1.820003
 20
3.379977
 30
0.0
 10
1.820003
 20
3.445020
 30
0.0
 10
1.755014
 20
3.445020
 30
0.0
 10
1.755014
 20
4.030025
 30
0.0
 10
1.820003
 20
4.030025
 30
0.0
 10
1.820003
 20
4.095013
 30
0.0
 10
1.690026
 20
4.095013
 30
0.0
 10
1.690026
 20
4.095013
 30
0.0
  0
LWPOLYLINE
  5
128
100
AcDbEntity
  8
Layer_1
 62
7
100
AcDbPolyline
 90
12
 70
0
 10
8.775016
 20
4.095013
 30
0.0
 10
8.775016
 20
4.030025
 30
0.0
 10
8.775016
 20
3.445020
 30
0.0
 10
8.775016
 20
3.379977
 30
0.0
 10
8.969981
 20
3.379977
 30
0.0
 10
8.969981
 20
3.445020
 30
0.0
 10
8.840005
 20
3.445020
 30
0.0
 10
8.840005
 20
4.030025
 30
0.0
 10
8.969981
 20
4.030025
 30
0.0
 10
8.969981
 20
4.095013
 30
0.0
 10
8.775016
 20
4.095013
 30
0.0
 10
8.775016
 20
4.095013
 30
0.0
  0
LWPOLYLINE
  5
129
100
AcDbEntity
  8
Layer_1
 62
7
100
AcDbPolyline
 90
18
 70
0
 10
2.730004
 20
3.770017
 30
0.0
 10
2.730004
 20
3.704974
 30
0.0
 10
2.794992
 20
3.639985
 30
0.0
 10
3.055001
 20
3.639985
 30
0.0
 10
3.055001
 20
3.574997
 30
0.0
 10
3.119989
 20
3.574997
 30
0.0
 10
3.769982
 20
3.574997
 30
0.0
 10
3.769982
 20
3.639985
 30
0.0
 10
3.769982
 20
3.770017
 30
0.0
 10
3.704994
 20
3.770017
 30
0.0
 10
3.704994
 20
3.639985
 30
0.0
 10
3.119989
 20
3.639985
 30
0.0
 10
3.119989
 20
3.770017
 30
0.0
 10
3.055001
 20
3.770017
 30
0.0
 10
3.055001
 20
3.704974
 30
0.0
 10
2.794992
 20
3.704974
 30
0.0
 10
2.730004
 20
3.770017
 30
0.0
 10
2.730004
 20
3.770017
 30
0.0
  0
LWPOLYLINE
  5
12a
100
AcDbEntity
  8
Layer_1
 62
7
100
AcDbPolyline
 90
9
 70
0
 10
7.280010
 20
3.770017
 30
0.0
 10
7.280010
 20
3.704974
 30
0.0
 10
7.344999
 20
3.704974
 30
0.0
 10
7.344999
 20
3.574997
 30
0.0
 10
7.409987
 20
3.574997
 30
0.0
 10
7.409987
 20
3.770017
 30
0.0
 10
7.344999
 20
3.770017
 30
0.0
 10
7.280010
 20
3.770017
 30
0.0
 10
7.280010
 20
3.770017
 30
0.0
  0
LWPOLYLINE
  5
12b
100
AcDbEntity
  8
Layer_1
 62
7
100
AcDbPolyline
 90
11
 70
0
 10
9.879982
 20
3.770017
 30
0.0
 10
9.879982
 20
3.704974
 30
0.0
 10
9.945026
 20
3.639985
 30
0.0
 10
10.204979
 20
3.639985
 30
0.0
 10
10.270023
 20
3.639985
 30
0.0
 10
10.270023
 20
3.770017
 30
0.0
 10
10.204979
 20
3.770017
 30
0.0
 10
10.204979
 20
3.704974
 30
0.0
 10
9.945026
 20
3.704974
 30
0.0
 10
9.879982
 20
3.770017
 30
0.0
 10
9.879982
 20
3.770017
 30
0.0
  0
LWPOLYLINE
  5
12c
100
AcDbEntity
  8
Layer_1
 62
7
100
AcDbPolyline
 90
8
 70
0
 10
4.939991
 20
3.574997
 30
0.0
 10
4.939991
 20
3.379977
 30
0.0
 10
5.070023
 20
3.379977
 30
0.0
 10
5.070023
 20
3.445020
 30
0.0
 10
5.004980
 20
3.445020
 30
0.0
 10
5.004980
 20
3.574997
 30
0.0
 10
4.939991
 20
3.574997
 30
0.0
 10
4.939991
 20
3.574997
 30
0.0
  0
LWPOLYLINE
  5
12d
100
AcDbEntity
  8
Layer_1
 62
7
100
AcDbPolyline
 90
9
 70
0
 10
1.105021
 20
3.120024
 30
0.0
 10
1.105021
 20
2.989992
 30
0.0
 10
1.170010
 20
2.989992
 30
0.0
 10
1.299986
 20
2.989992
 30
0.0
 10
1.299986
 20
3.054980
 30
0.0
 10
1.170010
 20
3.054980
 30
0.0
 10
1.170010
 20
3.120024
 30
0.0
 10
1.105021
 20
3.120024
 30
0.0
 10
1.105021
 20
3.120024
 30
0.0
  0
LWPOLYLINE
  5
12e
100
AcDbEntity
  8
Layer_1
 62
7
100
AcDbPolyline
 90
9
 70
0
 10
2.405007
 20
3.120024
 30
0.0
 10
2.405007
 20
2.989992
 30
0.0
 10
2.469996
 20
2.989992
 30
0.0
 10
2.600027
 20
2.989992
 30
0.0
 10
2.600027
 20
3.054980
 30
0.0
 10
2.469996
 20
3.054980
 30
0.0
 10
2.469996
 20
3.120024
 30
0.0
 10
2.405007
 20
3.120024
 30
0.0
 10
2.405007
 20
3.120024
 30
0.0
  0
LWPOLYLINE
  5
12f
100
AcDbEntity
  8
Layer_1
 62
7
100
AcDbPolyline
 90
11
 70
0
 10
5.654973
 20
3.120024
 30
0.0
 10
5.589984
 20
3.054980
 30
0.0
 10
5.589984
 20
2.795027
 30
0.0
 10
5.589984
 20
2.729984
 30
0.0
 10
5.720016
 20
2.729984
 30
0.0
 10
5.720016
 20
2.795027
 30
0.0
 10
5.655028
 20
2.795027
 30
0.0
 10
5.655028
 20
3.054980
 30
0.0
 10
5.720016
 20
3.120024
 30
0.0
 10
5.654973
 20
3.120024
 30
0.0
 10
5.654973
 20
3.120024
 30
0.0
  0
LWPOLYLINE
  5
130
100
AcDbEntity
  8
Layer_1
 62
7
100
AcDbPolyline
 90
11
 70
0
 10
6.630018
 20
3.120024
 30
0.0
 10
6.630018
 20
3.054980
 30
0.0
 10
6.695006
 20
2.989992
 30
0.0
 10
6.955014
 20
2.989992
 30
0.0
 10
7.020002
 20
2.989992
 30
0.0
 10
7.020002
 20
3.120024
 30
0.0
 10
6.955014
 20
3.120024
 30
0.0
 10
6.955014
 20
3.054980
 30
0.0
 10
6.695006
 20
3.054980
 30
0.0
 10
6.630018
 20
3.120024
 30
0.0
 10
6.630018
 20
3.120024
 30
0.0
  0
LWPOLYLINE
  5
131
100
AcDbEntity
  8
Layer_1
 62
7
100
AcDbPolyline
 90
9
 70
0
 10
9.554986
 20
3.120024
 30
0.0
 10
9.554986
 20
3.054980
 30
0.0
 10
9.425010
 20
3.054980
 30
0.0
 10
9.425010
 20
2.989992
 30
0.0
 10
9.619974
 20
2.989992
 30
0.0
 10
9.619974
 20
3.054980
 30
0.0
 10
9.619974
 20
3.120024
 30
0.0
 10
9.554986
 20
3.120024
 30
0.0
 10
9.554986
 20
3.120024
 30
0.0
  0
LWPOLYLINE
  5
132
100
AcDbEntity
  8
Layer_1
 62
7
100
AcDbPolyline
 90
10
 70
0
 10
2.080011
 20
2.860016
 30
0.0
 10
2.080011
 20
2.794972
 30
0.0
 10
2.080011
 20
2.729984
 30
0.0
 10
2.144999
 20
2.729984
 30
0.0
 10
2.144999
 20
2.794972
 30
0.0
 10
2.274976
 20
2.794972
 30
0.0
 10
2.274976
 20
2.860016
 30
0.0
 10
2.144999
 20
2.860016
 30
0.0
 10
2.080011
 20
2.860016
 30
0.0
 10
2.080011
 20
2.860016
 30
0.0
  0
LWPOLYLINE
  5
133
100
AcDbEntity
  8
Layer_1
 62
7
100
AcDbPolyline
 90
9
 70
0
 10
4.029990
 20
2.860016
 30
0.0
 10
4.029990
 20
2.729984
 30
0.0
 10
4.094978
 20
2.729984
 30
0.0
 10
4.094978
 20
2.794972
 30
0.0
 10
4.225010
 20
2.794972
 30
0.0
 10
4.225010
 20
2.860016
 30
0.0
 10
4.094978
 20
2.860016
 30
0.0
 10
4.029990
 20
2.860016
 30
0.0
 10
4.029990
 20
2.860016
 30
0.0
  0
LWPOLYLINE
  5
134
100
AcDbEntity
  8
Layer_1
 62
7
100
AcDbPolyline
 90
10
 70
0
 10
9.229990
 20
2.860016
 30
0.0
 10
9.229990
 20
2.794972
 30
0.0
 10
9.229990
 20
2.729984
 30
0.0
 10
9.294978
 20
2.729984
 30
0.0
 10
9.294978
 20
2.794972
 30
0.0
 10
9.425010
 20
2.794972
 30
0.0
 10
9.425010
 20
2.860016
 30
0.0
 10
9.294978
 20
2.860016
 30
0.0
 10
9.229990
 20
2.860016
 30
0.0
 10
9.229990
 20
2.860016
 30
0.0
  0
LWPOLYLINE
  5
135
100
AcDbEntity
  8
Layer_1
 62
7
100
AcDbPolyline
 90
11
 70
0
 10
2.730004
 20
2.469976
 30
0.0
 10
2.730004
 20
2.404987
 30
0.0
 10
2.794992
 20
2.404987
 30
0.0
 10
2.794992
 20
1.819982
 30
0.0
 10
2.730004
 20
1.819982
 30
0.0
 10
2.730004
 20
1.754994
 30
0.0
 10
2.859980
 20
1.754994
 30
0.0
 10
2.859980
 20
1.819982
 30
0.0
 10
2.859980
 20
2.469976
 30
0.0
 10
2.730004
 20
2.469976
 30
0.0
 10
2.730004
 20
2.469976
 30
0.0
  0
LWPOLYLINE
  5
136
100
AcDbEntity
  8
Layer_1
 62
7
100
AcDbPolyline
 90
8
 70
0
 10
4.679983
 20
2.469976
 30
0.0
 10
4.679983
 20
2.404987
 30
0.0
 10
4.745026
 20
2.404987
 30
0.0
 10
4.745026
 20
2.275011
 30
0.0
 10
4.810015
 20
2.275011
 30
0.0
 10
4.810015
 20
2.469976
 30
0.0
 10
4.679983
 20
2.469976
 30
0.0
 10
4.679983
 20
2.469976
 30
0.0
  0
LWPOLYLINE
  5
137
100
AcDbEntity
  8
Layer_1
 62
7
100
AcDbPolyline
 90
9
 70
0
 10
6.305021
 20
2.469976
 30
0.0
 10
6.305021
 20
2.404987
 30
0.0
 10
6.305021
 20
2.339999
 30
0.0
 10
6.499986
 20
2.339999
 30
0.0
 10
6.499986
 20
2.404987
 30
0.0
 10
6.370009
 20
2.404987
 30
0.0
 10
6.370009
 20
2.469976
 30
0.0
 10
6.305021
 20
2.469976
 30
0.0
 10
6.305021
 20
2.469976
 30
0.0
  0
LWPOLYLINE
  5
138
100
AcDbEntity
  8
Layer_1
 62
7
100
AcDbPolyline
 90
16
 70
0
 10
9.879982
 20
2.469976
 30
0.0
 10
9.879982
 20
2.404987
 30
0.0
 10
9.944971
 20
2.404987
 30
0.0
 10
9.944971
 20
1.819982
 30
0.0
 10
9.879982
 20
1.819982
 30
0.0
 10
9.879982
 20
1.754994
 30
0.0
 10
9.944971
 20
1.754994
 30
0.0
 10
9.944971
 20
1.169990
 30
0.0
 10
9.879982
 20
1.169990
 30
0.0
 10
9.879982
 20
1.105001
 30
0.0
 10
10.010014
 20
1.105001
 30
0.0
 10
10.010014
 20
1.169990
 30
0.0
 10
10.010014
 20
2.404987
 30
0.0
 10
10.010014
 20
2.469976
 30
0.0
 10
9.879982
 20
2.469976
 30
0.0
 10
9.879982
 20
2.469976
 30
0.0
  0
LWPOLYLINE
  5
139
100
AcDbEntity
  8
Layer_1
 62
7
100
AcDbPolyline
 90
11
 70
0
 10
1.430018
 20
2.210023
 30
0.0
 10
1.430018
 20
2.079991
 30
0.0
 10
1.495006
 20
2.079991
 30
0.0
 10
1.495006
 20
2.144979
 30
0.0
 10
1.755014
 20
2.144979
 30
0.0
 10
1.820003
 20
2.079991
 30
0.0
 10
1.820003
 20
2.144979
 30
0.0
 10
1.755014
 20
2.210023
 30
0.0
 10
1.495006
 20
2.210023
 30
0.0
 10
1.430018
 20
2.210023
 30
0.0
 10
1.430018
 20
2.210023
 30
0.0
  0
LWPOLYLINE
  5
13a
100
AcDbEntity
  8
Layer_1
 62
7
100
AcDbPolyline
 90
9
 70
0
 10
5.980024
 20
2.210023
 30
0.0
 10
5.980024
 20
2.079991
 30
0.0
 10
6.045013
 20
2.079991
 30
0.0
 10
6.045013
 20
2.144979
 30
0.0
 10
6.174989
 20
2.144979
 30
0.0
 10
6.174989
 20
2.210023
 30
0.0
 10
6.045013
 20
2.210023
 30
0.0
 10
5.980024
 20
2.210023
 30
0.0
 10
5.980024
 20
2.210023
 30
0.0
  0
LWPOLYLINE
  5
13b
100
AcDbEntity
  8
Layer_1
 62
7
100
AcDbPolyline
 90
9
 70
0
 10
7.280010
 20
2.210023
 30
0.0
 10
7.280010
 20
2.079991
 30
0.0
 10
7.344999
 20
2.079991
 30
0.0
 10
7.344999
 20
2.144979
 30
0.0
 10
7.474975
 20
2.144979
 30
0.0
 10
7.474975
 20
2.210023
 30
0.0
 10
7.344999
 20
2.210023
 30
0.0
 10
7.280010
 20
2.210023
 30
0.0
 10
7.280010
 20
2.210023
 30
0.0
  0
LWPOLYLINE
  5
13c
100
AcDbEntity
  8
Layer_1
 62
7
100
AcDbPolyline
 90
11
 70
0
 10
8.579996
 20
2.210023
 30
0.0
 10
8.579996
 20
2.079991
 30
0.0
 10
8.644985
 20
2.079991
 30
0.0
 10
8.644985
 20
2.144979
 30
0.0
 10
8.904993
 20
2.144979
 30
0.0
 10
8.969981
 20
2.079991
 30
0.0
 10
8.969981
 20
2.144979
 30
0.0
 10
8.904993
 20
2.210023
 30
0.0
 10
8.644985
 20
2.210023
 30
0.0
 10
8.579996
 20
2.210023
 30
0.0
 10
8.579996
 20
2.210023
 30
0.0
  0
LWPOLYLINE
  5
13d
100
AcDbEntity
  8
Layer_1
 62
7
100
AcDbPolyline
 90
9
 70
0
 10
3.640005
 20
2.144979
 30
0.0
 10
3.640005
 20
2.079991
 30
0.0
 10
3.640005
 20
1.950014
 30
0.0
 10
3.704994
 20
1.950014
 30
0.0
 10
3.704994
 20
2.079991
 30
0.0
 10
3.769982
 20
2.079991
 30
0.0
 10
3.769982
 20
2.144979
 30
0.0
 10
3.640005
 20
2.144979
 30
0.0
 10
3.640005
 20
2.144979
 30
0.0
  0
LWPOLYLINE
  5
13e
100
AcDbEntity
  8
Layer_1
 62
7
100
AcDbPolyline
 90
9
 70
0
 10
6.695006
 20
1.950014
 30
0.0
 10
6.695006
 20
1.819982
 30
0.0
 10
6.630018
 20
1.819982
 30
0.0
 10
6.630018
 20
1.754994
 30
0.0
 10
6.759994
 20
1.754994
 30
0.0
 10
6.759994
 20
1.819982
 30
0.0
 10
6.759994
 20
1.950014
 30
0.0
 10
6.695006
 20
1.950014
 30
0.0
 10
6.695006
 20
1.950014
 30
0.0
  0
LWPOLYLINE
  5
13f
100
AcDbEntity
  8
Layer_1
 62
7
100
AcDbPolyline
 90
11
 70
0
 10
4.679983
 20
1.819982
 30
0.0
 10
4.679983
 20
1.754994
 30
0.0
 10
4.745026
 20
1.754994
 30
0.0
 10
4.745026
 20
1.494986
 30
0.0
 10
4.679983
 20
1.429998
 30
0.0
 10
4.745026
 20
1.429998
 30
0.0
 10
4.810015
 20
1.494986
 30
0.0
 10
4.810015
 20
1.754994
 30
0.0
 10
4.810015
 20
1.819982
 30
0.0
 10
4.679983
 20
1.819982
 30
0.0
 10
4.679983
 20
1.819982
 30
0.0
  0
LWPOLYLINE
  5
140
100
AcDbEntity
  8
Layer_1
 62
7
100
AcDbPolyline
 90
12
 70
0
 10
7.930004
 20
1.819982
 30
0.0
 10
7.930004
 20
1.754994
 30
0.0
 10
7.994992
 20
1.754994
 30
0.0
 10
7.994992
 20
1.169990
 30
0.0
 10
7.930004
 20
1.169990
 30
0.0
 10
7.930004
 20
1.105001
 30
0.0
 10
8.059980
 20
1.105001
 30
0.0
 10
8.059980
 20
1.169990
 30
0.0
 10
8.059980
 20
1.754994
 30
0.0
 10
8.059980
 20
1.819982
 30
0.0
 10
7.930004
 20
1.819982
 30
0.0
 10
7.930004
 20
1.819982
 30
0.0
  0
LWPOLYLINE
  5
141
100
AcDbEntity
  8
Layer_1
 62
7
100
AcDbPolyline
 90
11
 70
0
 10
0.780025
 20
1.559974
 30
0.0
 10
0.780025
 20
1.429998
 30
0.0
 10
0.845013
 20
1.429998
 30
0.0
 10
0.845013
 20
1.494986
 30
0.0
 10
1.105021
 20
1.494986
 30
0.0
 10
1.170010
 20
1.429998
 30
0.0
 10
1.170010
 20
1.494986
 30
0.0
 10
1.105021
 20
1.559974
 30
0.0
 10
0.845013
 20
1.559974
 30
0.0
 10
0.780025
 20
1.559974
 30
0.0
 10
0.780025
 20
1.559974
 30
0.0
  0
LWPOLYLINE
  5
142
100
AcDbEntity
  8
Layer_1
 62
7
100
AcDbPolyline
 90
11
 70
0
 10
3.379997
 20
1.559974
 30
0.0
 10
3.379997
 20
1.429998
 30
0.0
 10
3.444985
 20
1.429998
 30
0.0
 10
3.444985
 20
1.494986
 30
0.0
 10
3.704994
 20
1.494986
 30
0.0
 10
3.769982
 20
1.429998
 30
0.0
 10
3.769982
 20
1.494986
 30
0.0
 10
3.704994
 20
1.559974
 30
0.0
 10
3.444985
 20
1.559974
 30
0.0
 10
3.379997
 20
1.559974
 30
0.0
 10
3.379997
 20
1.559974
 30
0.0
  0
LWPOLYLINE
  5
143
100
AcDbEntity
  8
Layer_1
 62
7
100
AcDbPolyline
 90
13
 70
0
 10
6.695006
 20
1.559974
 30
0.0
 10
6.695006
 20
1.494986
 30
0.0
 10
6.630018
 20
1.429998
 30
0.0
 10
6.695006
 20
1.429998
 30
0.0
 10
6.759994
 20
1.494986
 30
0.0
 10
6.824982
 20
1.494986
 30
0.0
 10
6.824982
 20
1.429998
 30
0.0
 10
7.020002
 20
1.429998
 30
0.0
 10
7.020002
 20
1.494986
 30
0.0
 10
6.890026
 20
1.494986
 30
0.0
 10
6.890026
 20
1.559974
 30
0.0
 10
6.695006
 20
1.559974
 30
0.0
 10
6.695006
 20
1.559974
 30
0.0
  0
LWPOLYLINE
  5
144
100
AcDbEntity
  8
Layer_1
 62
7
100
AcDbPolyline
 90
11
 70
0
 10
5.589984
 20
1.494986
 30
0.0
 10
5.589984
 20
1.429998
 30
0.0
 10
5.589984
 20
0.780005
 30
0.0
 10
5.720016
 20
0.780005
 30
0.0
 10
5.720016
 20
0.844993
 30
0.0
 10
5.655028
 20
0.844993
 30
0.0
 10
5.655028
 20
1.429998
 30
0.0
 10
5.720016
 20
1.429998
 30
0.0
 10
5.720016
 20
1.494986
 30
0.0
 10
5.589984
 20
1.494986
 30
0.0
 10
5.589984
 20
1.494986
 30
0.0
  0
LWPOLYLINE
  5
145
100
AcDbEntity
  8
Layer_1
 62
7
100
AcDbPolyline
 90
12
 70
0
 10
8.190012
 20
1.494986
 30
0.0
 10
8.190012
 20
1.429998
 30
0.0
 10
8.190012
 20
0.844993
 30
0.0
 10
8.190012
 20
0.780005
 30
0.0
 10
8.319988
 20
0.780005
 30
0.0
 10
8.319988
 20
0.844993
 30
0.0
 10
8.255000
 20
0.844993
 30
0.0
 10
8.255000
 20
1.429998
 30
0.0
 10
8.319988
 20
1.429998
 30
0.0
 10
8.319988
 20
1.494986
 30
0.0
 10
8.190012
 20
1.494986
 30
0.0
 10
8.190012
 20
1.494986
 30
0.0
  0
LWPOLYLINE
  5
146
100
AcDbEntity
  8
Layer_1
 62
7
100
AcDbPolyline
 90
11
 70
0
 10
2.080011
 20
1.169990
 30
0.0
 10
2.080011
 20
1.105001
 30
0.0
 10
2.144999
 20
1.040013
 30
0.0
 10
2.405007
 20
1.040013
 30
0.0
 10
2.469996
 20
1.040013
 30
0.0
 10
2.469996
 20
1.169990
 30
0.0
 10
2.405007
 20
1.169990
 30
0.0
 10
2.405007
 20
1.105001
 30
0.0
 10
2.144999
 20
1.105001
 30
0.0
 10
2.080011
 20
1.169990
 30
0.0
 10
2.080011
 20
1.169990
 30
0.0
  0
LWPOLYLINE
  5
147
100
AcDbEntity
  8
Layer_1
 62
7
100
AcDbPolyline
 90
8
 70
0
 10
5.329976
 20
1.169990
 30
0.0
 10
5.329976
 20
1.105001
 30
0.0
 10
5.395020
 20
1.105001
 30
0.0
 10
5.395020
 20
0.975025
 30
0.0
 10
5.460008
 20
0.975025
 30
0.0
 10
5.460008
 20
1.169990
 30
0.0
 10
5.329976
 20
1.169990
 30
0.0
 10
5.329976
 20
1.169990
 30
0.0
  0
LWPOLYLINE
  5
148
100
AcDbEntity
  8
Layer_1
 62
7
100
AcDbPolyline
 90
9
 70
0
 10
0.389985
 20
0.844993
 30
0.0
 10
0.389985
 20
0.780005
 30
0.0
 10
0.389985
 20
0.649973
 30
0.0
 10
0.454973
 20
0.649973
 30
0.0
 10
0.454973
 20
0.780005
 30
0.0
 10
0.520016
 20
0.780005
 30
0.0
 10
0.520016
 20
0.844993
 30
0.0
 10
0.389985
 20
0.844993
 30
0.0
 10
0.389985
 20
0.844993
 30
0.0
  0
LWPOLYLINE
  5
149
100
AcDbEntity
  8
Layer_1
 62
7
100
AcDbPolyline
 90
9
 70
0
 10
2.990012
 20
0.844993
 30
0.0
 10
2.990012
 20
0.780005
 30
0.0
 10
2.990012
 20
0.649973
 30
0.0
 10
3.055001
 20
0.649973
 30
0.0
 10
3.055001
 20
0.780005
 30
0.0
 10
3.119989
 20
0.780005
 30
0.0
 10
3.119989
 20
0.844993
 30
0.0
 10
2.990012
 20
0.844993
 30
0.0
 10
2.990012
 20
0.844993
 30
0.0
  0
LWPOLYLINE
  5
14a
100
AcDbEntity
  8
Layer_1
 62
7
100
AcDbPolyline
 90
8
 70
0
 10
0.000000
 20
0.599978
 30
0.0
 10
0.000000
 20
-0.000020
 30
0.0
 10
0.749984
 20
-0.000020
 30
0.0
 10
0.749984
 20
0.021257
 30
0.0
 10
0.021222
 20
0.021257
 30
0.0
 10
0.021222
 20
0.599978
 30
0.0
 10
0.000000
 20
0.599978
 30
0.0
 10
0.000000
 20
0.599978
 30
0.0
  0
LWPOLYLINE
  5
14b
100
AcDbEntity
  8
Layer_1
 62
7
100
AcDbPolyline
 90
8
 70
0
 10
11.028770
 20
0.599978
 30
0.0
 10
11.028770
 20
0.021257
 30
0.0
 10
10.300009
 20
0.021257
 30
0.0
 10
10.300009
 20
-0.000020
 30
0.0
 10
11.049992
 20
-0.000020
 30
0.0
 10
11.049992
 20
0.599978
 30
0.0
 10
11.028770
 20
0.599978
 30
0.0
 10
11.028770
 20
0.599978
 30
0.0
  0
LWPOLYLINE
  5
14c
100
AcDbEntity
  8
Layer_1
 62
7
100
AcDbPolyline
 90
12
 70
0
 10
1.105021
 20
0.519996
 30
0.0
 10
1.105021
 20
0.324977
 30
0.0
 10
1.170010
 20
0.324977
 30
0.0
 10
1.820003
 20
0.324977
 30
0.0
 10
1.820003
 20
0.390020
 30
0.0
 10
1.820003
 20
0.519996
 30
0.0
 10
1.755014
 20
0.519996
 30
0.0
 10
1.755014
 20
0.390020
 30
0.0
 10
1.170010
 20
0.390020
 30
0.0
 10
1.170010
 20
0.519996
 30
0.0
 10
1.105021
 20
0.519996
 30
0.0
 10
1.105021
 20
0.519996
 30
0.0
  0
LWPOLYLINE
  5
14d
100
AcDbEntity
  8
Layer_1
 62
7
100
AcDbPolyline
 90
16
 70
0
 10
3.704994
 20
0.519996
 30
0.0
 10
3.704994
 20
0.324977
 30
0.0
 10
3.769982
 20
0.324977
 30
0.0
 10
5.004980
 20
0.324977
 30
0.0
 10
5.070023
 20
0.324977
 30
0.0
 10
5.070023
 20
0.519996
 30
0.0
 10
5.004980
 20
0.519996
 30
0.0
 10
5.004980
 20
0.390020
 30
0.0
 10
4.419975
 20
0.390020
 30
0.0
 10
4.419975
 20
0.519996
 30
0.0
 10
4.354987
 20
0.519996
 30
0.0
 10
4.354987
 20
0.390020
 30
0.0
 10
3.769982
 20
0.390020
 30
0.0
 10
3.769982
 20
0.519996
 30
0.0
 10
3.704994
 20
0.519996
 30
0.0
 10
3.704994
 20
0.519996
 30
0.0
  0
LWPOLYLINE
  5
14e
100
AcDbEntity
  8
Layer_1
 62
7
100
AcDbPolyline
 90
16
 70
0
 10
6.305021
 20
0.519996
 30
0.0
 10
6.305021
 20
0.324977
 30
0.0
 10
6.370009
 20
0.324977
 30
0.0
 10
7.669995
 20
0.324977
 30
0.0
 10
7.669995
 20
0.390020
 30
0.0
 10
7.669995
 20
0.519996
 30
0.0
 10
7.605007
 20
0.519996
 30
0.0
 10
7.605007
 20
0.390020
 30
0.0
 10
7.020002
 20
0.390020
 30
0.0
 10
7.020002
 20
0.519996
 30
0.0
 10
6.955014
 20
0.519996
 30
0.0
 10
6.955014
 20
0.390020
 30
0.0
 10
6.370009
 20
0.390020
 30
0.0
 10
6.370009
 20
0.519996
 30
0.0
 10
6.305021
 20
0.519996
 30
0.0
 10
6.305021
 20
0.519996
 30
0.0
  0
LWPOLYLINE
  5
14f
100
AcDbEntity
  8
Layer_1
 62
7
100
AcDbPolyline
 90
12
 70
0
 10
8.904993
 20
0.519996
 30
0.0
 10
8.904993
 20
0.324977
 30
0.0
 10
8.969981
 20
0.324977
 30
0.0
 10
9.554986
 20
0.324977
 30
0.0
 10
9.619974
 20
0.324977
 30
0.0
 10
9.619974
 20
0.519996
 30
0.0
 10
9.554986
 20
0.519996
 30
0.0
 10
9.554986
 20
0.390020
 30
0.0
 10
8.969981
 20
0.390020
 30
0.0
 10
8.969981
 20
0.519996
 30
0.0
 10
8.904993
 20
0.519996
 30
0.0
 10
8.904993
 20
0.519996
 30
0.0
  0
ENDSEC
  0
SECTION
  2
OBJECTS
  0
DICTIONARY
  5
C
330
0
100
AcDbDictionary
  3
ACAD_GROUP
350
D
  3
ACAD_MLINESTYLE
350
17
  0
DICTIONARY
  5
D
330
C
100
AcDbDictionary
  0
DICTIONARY
  5
1A
330
C
100
AcDbDictionary
  0
DICTIONARY
  5
17
330
C
100
AcDbDictionary
  3
STANDARD
350
18
  0
DICTIONARY
  5
19
330
C
100
AcDbDictionary
  0
ENDSEC
  0
EOF
