  0
SECTION
  2
HEADER
  9
$ACADVER
  1
AC1014
  9
$HANDSEED
  5
FFFF
  9
$MEASUREMENT
 70
     1
  0
ENDSEC
  0
SECTION
  2
TABLES
  0
TABLE
  2
VPORT
  5
8
330
0
100
AcDbSymbolTable
 70
     4
  0
VPORT
  5
2E
330
8
100
AcDbSymbolTableRecord
100
AcDbViewportTableRecord
  2
*ACTIVE
 70
     0
 10
0.0
 20
0.0
 11
1.0
 21
1.0
 12
210.0
 22
148.5
 13
0.0
 23
0.0
 14
10.0
 24
10.0
 15
10.0
 25
10.0
 16
0.0
 26
0.0
 36
1.0
 17
0.0
 27
0.0
 37
0.0
 40
341.0
 41
1.24
 42
50.0
 43
0.0
 44
0.0
 50
0.0
 51
0.0
 71
     0
 72
   100
 73
     1
 74
     3
 75
     0
 76
     0
 77
     0
 78
     0
  0
ENDTAB
  0
TABLE
  2
LTYPE
  5
5
330
0
100
AcDbSymbolTable
 70
     1
  0
LTYPE
  5
14
330
5
100
AcDbSymbolTableRecord
100
AcDbLinetypeTableRecord
  2
BYBLOCK
 70
     0
  3

 72
    65
 73
     0
 40
0.0
  0
LTYPE
  5
15
330
5
100
AcDbSymbolTableRecord
100
AcDbLinetypeTableRecord
  2
BYLAYER
 70
     0
  3

 72
    65
 73
     0
 40
0.0
  0
LTYPE
  5
16
330
5
100
AcDbSymbolTableRecord
100
AcDbLinetypeTableRecord
  2
CONTINUOUS
 70
     0
  3
Solid line
 72
    65
 73
     0
 40
0.0
  0
ENDTAB
  0
TABLE
  2
LAYER
  5
2
100
AcDbSymbolTable
 70
2
  0
LAYER
  5
50
100
AcDbSymbolTableRecord
100
AcDbLayerTableRecord
  2
0
 70
0
  6
CONTINUOUS
  0
LAYER
  5
51
100
AcDbSymbolTableRecord
100
AcDbLayerTableRecord
  2
Layer_1
 70
0
  6
CONTINUOUS
  0
ENDTAB
  0
TABLE
  2
STYLE
  5
3
330
0
100
AcDbSymbolTable
 70
     1
  0
STYLE
  5
11
330
3
100
AcDbSymbolTableRecord
100
AcDbTextStyleTableRecord
  2
STANDARD
 70
     0
 40
0.0
 41
1.0
 50
0.0
 71
     0
 42
2.5
  3
txt
  4

  0
ENDTAB
  0
TABLE
  2
VIEW
  5
6
330
0
100
AcDbSymbolTable
 70
     0
  0
ENDTAB
  0
TABLE
  2
UCS
  5
7
330
0
100
AcDbSymbolTable
 70
     0
  0
ENDTAB
  0
TABLE
  2
APPID
  5
9
330
0
100
AcDbSymbolTable
 70
     2
  0
APPID
  5
12
330
9
100
AcDbSymbolTableRecord
100
AcDbRegAppTableRecord
  2
ACAD
 70
     0
  0
ENDTAB
  0
TABLE
  2
DIMSTYLE
  5
A
330
0
100
AcDbSymbolTable
 70
     1
  0
DIMSTYLE
105
27
330
A
100
AcDbSymbolTableRecord
100
AcDbDimStyleTableRecord
  2
ISO-25
 70
     0
  3

  4

  5

  6

  7

 40
1.0
 41
2.5
 42
0.625
 43
3.75
 44
1.25
 45
0.0
 46
0.0
 47
0.0
 48
0.0
140
2.5
141
2.5
142
0.0
143
0.03937007874016
144
1.0
145
0.0
146
1.0
147
0.625
 71
     0
 72
     0
 73
     0
 74
     0
 75
     0
 76
     0
 77
     1
 78
     8
170
     0
171
     3
172
     1
173
     0
174
     0
175
     0
176
     0
177
     0
178
     0
270
     2
271
     2
272
     2
273
     2
274
     3
340
11
275
     0
280
     0
281
     0
282
     0
283
     0
284
     8
285
     0
286
     0
287
     3
288
     0
  0
ENDTAB
  0
TABLE
  2
BLOCK_RECORD
  5
1
330
0
100
AcDbSymbolTable
 70
     1
  0
BLOCK_RECORD
  5
1F
330
1
100
AcDbSymbolTableRecord
100
AcDbBlockTableRecord
  2
*MODEL_SPACE
  0
BLOCK_RECORD
  5
1B
330
1
100
AcDbSymbolTableRecord
100
AcDbBlockTableRecord
  2
*PAPER_SPACE
  0
ENDTAB
  0
ENDSEC
  0
SECTION
  2
BLOCKS
  0
BLOCK
  5
20
330
1F
100
AcDbEntity
  8
0
100
AcDbBlockBegin
  2
*MODEL_SPACE
 70
     0
 10
0.0
 20
0.0
 30
0.0
  3
*MODEL_SPACE
  1

  0
ENDBLK
  5
21
330
1F
100
AcDbEntity
  8
0
100
AcDbBlockEnd
  0
BLOCK
  5
1C
330
1B
100
AcDbEntity
 67
     1
  8
0
100
AcDbBlockBegin
  2
*PAPER_SPACE
  1

  0
ENDBLK
  5
1D
330
1B
100
AcDbEntity
 67
     1
  8
0
100
AcDbBlockEnd
  0
ENDSEC
  0
SECTION
  2
ENTITIES
  0
LWPOLYLINE
  5
100
100
AcDbEntity
  8
Layer_1
 62
7
100
AcDbPolyline
 90
7
 70
1
 10
11.050000
 20
8.450000
 30
0.0
 10
11.050000
 20
7.699996
 30
0.0
 10
11.028750
 20
7.699996
 30
0.0
 10
11.028750
 20
8.428711
 30
0.0
 10
10.299993
 20
8.428711
 30
0.0
 10
10.299993
 20
8.450000
 30
0.0
 10
11.050000
 20
8.450000
 30
0.0
  0
LWPOLYLINE
  5
101
100
AcDbEntity
  8
Layer_1
 62
7
100
AcDbPolyline
 90
8
 70
1
 10
0.750004
 20
8.450000
 30
0.0
 10
0.750004
 20
8.428711
 30
0.0
 10
0.021249
 20
8.428711
 30
0.0
 10
0.021249
 20
7.699995
 30
0.0
 10
0.000000
 20
7.699995
 30
0.0
 10
0.000000
 20
8.439334
 30
0.0
 10
0.000000
 20
8.450000
 30
0.0
 10
0.750004
 20
8.450000
 30
0.0
  0
LWPOLYLINE
  5
102
100
AcDbEntity
  8
Layer_1
 62
7
100
AcDbPolyline
 90
7
 70
1
 10
0.021249
 20
0.599978
 30
0.0
 10
0.021249
 20
0.021248
 30
0.0
 10
0.750004
 20
0.021248
 30
0.0
 10
0.750004
 20
-0.000000
 30
0.0
 10
0.000000
 20
-0.000000
 30
0.0
 10
0.000000
 20
0.599978
 30
0.0
 10
0.021249
 20
0.599978
 30
0.0
  0
LWPOLYLINE
  5
103
100
AcDbEntity
  8
Layer_1
 62
7
100
AcDbPolyline
 90
7
 70
1
 10
11.050000
 20
0.599978
 30
0.0
 10
11.050000
 20
-0.000000
 30
0.0
 10
10.299994
 20
-0.000000
 30
0.0
 10
10.299994
 20
0.021248
 30
0.0
 10
11.028751
 20
0.021248
 30
0.0
 10
11.028751
 20
0.599978
 30
0.0
 10
11.050000
 20
0.599978
 30
0.0
  0
LWPOLYLINE
  5
104
100
AcDbEntity
  8
Layer_1
 62
7
100
AcDbPolyline
 90
119
 70
1
 10
1.055577
 20
7.881422
 30
0.0
 10
0.900190
 20
7.678409
 30
0.0
 10
0.747062
 20
7.678409
 30
0.0
 10
0.828256
 20
7.792069
 30
0.0
 10
0.779529
 20
7.792069
 30
0.0
 10
0.657710
 20
7.792069
 30
0.0
 10
0.657710
 20
7.572851
 30
0.0
 10
0.568413
 20
7.637784
 30
0.0
 10
0.568413
 20
7.556590
 30
0.0
 10
0.771426
 20
7.401203
 30
0.0
 10
0.771426
 20
7.248020
 30
0.0
 10
0.657710
 20
7.329214
 30
0.0
 10
0.657710
 20
7.280542
 30
0.0
 10
0.657710
 20
7.158723
 30
0.0
 10
0.811995
 20
7.158723
 30
0.0
 10
0.811995
 20
7.313008
 30
0.0
 10
1.055577
 20
7.313008
 30
0.0
 10
1.055577
 20
7.272384
 30
0.0
 10
1.201760
 20
7.272384
 30
0.0
 10
1.120566
 20
7.158723
 30
0.0
 10
1.169293
 20
7.158723
 30
0.0
 10
1.218020
 20
7.158723
 30
0.0
 10
1.291056
 20
7.158723
 30
0.0
 10
1.307317
 20
7.158723
 30
0.0
 10
1.437239
 20
7.158723
 30
0.0
 10
1.461602
 20
7.158723
 30
0.0
 10
1.461602
 20
7.313008
 30
0.0
 10
1.705184
 20
7.313008
 30
0.0
 10
1.705184
 20
7.272384
 30
0.0
 10
1.851367
 20
7.272384
 30
0.0
 10
1.770173
 20
7.158723
 30
0.0
 10
1.818900
 20
7.158723
 30
0.0
 10
1.867628
 20
7.158723
 30
0.0
 10
1.940664
 20
7.158723
 30
0.0
 10
1.956869
 20
7.158723
 30
0.0
 10
1.956926
 20
7.158723
 30
0.0
 10
1.956926
 20
7.142462
 30
0.0
 10
1.956869
 20
7.142462
 30
0.0
 10
1.956869
 20
6.988177
 30
0.0
 10
2.111210
 20
6.988177
 30
0.0
 10
2.111210
 20
6.744595
 30
0.0
 10
2.070585
 20
6.744595
 30
0.0
 10
2.070585
 20
6.598413
 30
0.0
 10
1.956869
 20
6.679607
 30
0.0
 10
1.956869
 20
6.630934
 30
0.0
 10
1.956869
 20
6.509116
 30
0.0
 10
2.176143
 20
6.509116
 30
0.0
 10
2.111155
 20
6.419819
 30
0.0
 10
2.192349
 20
6.419819
 30
0.0
 10
2.347681
 20
6.622776
 30
0.0
 10
2.500919
 20
6.622776
 30
0.0
 10
2.419725
 20
6.509116
 30
0.0
 10
2.468452
 20
6.509116
 30
0.0
 10
2.590216
 20
6.509116
 30
0.0
 10
2.590216
 20
6.663401
 30
0.0
 10
2.435986
 20
6.663401
 30
0.0
 10
2.435986
 20
6.906983
 30
0.0
 10
2.476610
 20
6.906983
 30
0.0
 10
2.476610
 20
7.053165
 30
0.0
 10
2.590216
 20
6.971971
 30
0.0
 10
2.590216
 20
7.020699
 30
0.0
 10
2.590216
 20
7.069426
 30
0.0
 10
2.590272
 20
7.069426
 30
0.0
 10
2.590272
 20
7.158723
 30
0.0
 10
2.606478
 20
7.158723
 30
0.0
 10
2.736454
 20
7.158723
 30
0.0
 10
2.760818
 20
7.158723
 30
0.0
 10
2.760818
 20
7.313008
 30
0.0
 10
3.004400
 20
7.313008
 30
0.0
 10
3.004400
 20
7.272384
 30
0.0
 10
3.150527
 20
7.272384
 30
0.0
 10
3.069333
 20
7.158723
 30
0.0
 10
3.118061
 20
7.158723
 30
0.0
 10
3.239824
 20
7.158723
 30
0.0
 10
3.239824
 20
7.377941
 30
0.0
 10
3.329176
 20
7.313008
 30
0.0
 10
3.329176
 20
7.394202
 30
0.0
 10
3.126164
 20
7.549590
 30
0.0
 10
3.126164
 20
7.702773
 30
0.0
 10
3.239824
 20
7.621578
 30
0.0
 10
3.239824
 20
7.670306
 30
0.0
 10
3.239824
 20
7.792069
 30
0.0
 10
3.020606
 20
7.792069
 30
0.0
 10
3.085594
 20
7.881422
 30
0.0
 10
3.004345
 20
7.881422
 30
0.0
 10
2.848958
 20
7.678409
 30
0.0
 10
2.695830
 20
7.678409
 30
0.0
 10
2.777024
 20
7.792069
 30
0.0
 10
2.728296
 20
7.792069
 30
0.0
 10
2.679624
 20
7.792069
 30
0.0
 10
2.606478
 20
7.792069
 30
0.0
 10
2.590217
 20
7.792069
 30
0.0
 10
2.435987
 20
7.792069
 30
0.0
 10
2.370999
 20
7.792069
 30
0.0
 10
2.436042
 20
7.881422
 30
0.0
 10
2.354738
 20
7.881422
 30
0.0
 10
2.199350
 20
7.678409
 30
0.0
 10
2.046223
 20
7.678409
 30
0.0
 10
2.127417
 20
7.792069
 30
0.0
 10
2.078689
 20
7.792069
 30
0.0
 10
2.030017
 20
7.792069
 30
0.0
 10
1.956871
 20
7.792069
 30
0.0
 10
1.940665
 20
7.792069
 30
0.0
 10
1.786380
 20
7.792069
 30
0.0
 10
1.721447
 20
7.792069
 30
0.0
 10
1.786435
 20
7.881422
 30
0.0
 10
1.705186
 20
7.881422
 30
0.0
 10
1.549798
 20
7.678409
 30
0.0
 10
1.396671
 20
7.678409
 30
0.0
 10
1.477865
 20
7.792069
 30
0.0
 10
1.429137
 20
7.792069
 30
0.0
 10
1.380410
 20
7.792069
 30
0.0
 10
1.307319
 20
7.792069
 30
0.0
 10
1.291058
 20
7.792069
 30
0.0
 10
1.136828
 20
7.792069
 30
0.0
 10
1.071839
 20
7.792069
 30
0.0
 10
1.136828
 20
7.881422
 30
0.0
 10
1.055579
 20
7.881422
 30
0.0
 10
1.055577
 20
7.881422
 30
0.0
  0
LWPOLYLINE
  5
105
100
AcDbEntity
  8
Layer_1
 62
7
100
AcDbPolyline
 90
122
 70
1
 10
4.953165
 20
7.881422
 30
0.0
 10
4.797778
 20
7.678409
 30
0.0
 10
4.644650
 20
7.678409
 30
0.0
 10
4.725844
 20
7.792069
 30
0.0
 10
4.677117
 20
7.792069
 30
0.0
 10
4.555298
 20
7.792069
 30
0.0
 10
4.555298
 20
7.572851
 30
0.0
 10
4.466001
 20
7.637784
 30
0.0
 10
4.466001
 20
7.556590
 30
0.0
 10
4.669014
 20
7.401203
 30
0.0
 10
4.669014
 20
7.248020
 30
0.0
 10
4.555298
 20
7.329214
 30
0.0
 10
4.555298
 20
7.280542
 30
0.0
 10
4.555298
 20
7.231814
 30
0.0
 10
4.555298
 20
7.158723
 30
0.0
 10
4.555298
 20
7.142462
 30
0.0
 10
4.555298
 20
7.012541
 30
0.0
 10
4.555298
 20
6.923244
 30
0.0
 10
4.466001
 20
6.988177
 30
0.0
 10
4.466001
 20
6.906983
 30
0.0
 10
4.669014
 20
6.751595
 30
0.0
 10
4.669014
 20
6.598413
 30
0.0
 10
4.555298
 20
6.679607
 30
0.0
 10
4.555298
 20
6.630934
 30
0.0
 10
4.555298
 20
6.582207
 30
0.0
 10
4.555298
 20
6.509116
 30
0.0
 10
4.555298
 20
6.492855
 30
0.0
 10
4.555298
 20
6.362934
 30
0.0
 10
4.555298
 20
6.273637
 30
0.0
 10
4.466001
 20
6.338570
 30
0.0
 10
4.466001
 20
6.257376
 30
0.0
 10
4.669014
 20
6.101988
 30
0.0
 10
4.669014
 20
5.948806
 30
0.0
 10
4.555298
 20
6.029999
 30
0.0
 10
4.555298
 20
5.981327
 30
0.0
 10
4.555298
 20
5.932600
 30
0.0
 10
4.555298
 20
5.859509
 30
0.0
 10
4.555298
 20
5.843303
 30
0.0
 10
4.555298
 20
5.713381
 30
0.0
 10
4.555298
 20
5.624085
 30
0.0
 10
4.466001
 20
5.689018
 30
0.0
 10
4.466001
 20
5.607824
 30
0.0
 10
4.669014
 20
5.452436
 30
0.0
 10
4.669014
 20
5.299254
 30
0.0
 10
4.555298
 20
5.380448
 30
0.0
 10
4.555298
 20
5.331775
 30
0.0
 10
4.555298
 20
5.282993
 30
0.0
 10
4.555298
 20
5.209957
 30
0.0
 10
4.555298
 20
5.193696
 30
0.0
 10
4.555298
 20
5.063774
 30
0.0
 10
4.555298
 20
4.974477
 30
0.0
 10
4.466001
 20
5.039410
 30
0.0
 10
4.466001
 20
4.958217
 30
0.0
 10
4.669014
 20
4.802829
 30
0.0
 10
4.669014
 20
4.649646
 30
0.0
 10
4.555298
 20
4.730840
 30
0.0
 10
4.555298
 20
4.682168
 30
0.0
 10
4.555298
 20
4.560349
 30
0.0
 10
4.774571
 20
4.560349
 30
0.0
 10
4.709583
 20
4.471052
 30
0.0
 10
4.790777
 20
4.471052
 30
0.0
 10
4.946110
 20
4.674010
 30
0.0
 10
5.099348
 20
4.674010
 30
0.0
 10
5.018154
 20
4.560349
 30
0.0
 10
5.066881
 20
4.560349
 30
0.0
 10
5.188645
 20
4.560349
 30
0.0
 10
5.188645
 20
4.779568
 30
0.0
 10
5.277996
 20
4.714635
 30
0.0
 10
5.277996
 20
4.795828
 30
0.0
 10
5.074984
 20
4.951216
 30
0.0
 10
5.074984
 20
5.104399
 30
0.0
 10
5.188645
 20
5.023205
 30
0.0
 10
5.188645
 20
5.071932
 30
0.0
 10
5.188645
 20
5.120605
 30
0.0
 10
5.188701
 20
5.120605
 30
0.0
 10
5.188701
 20
5.364187
 30
0.0
 10
5.188645
 20
5.364187
 30
0.0
 10
5.188645
 20
5.429175
 30
0.0
 10
5.277996
 20
5.364242
 30
0.0
 10
5.277996
 20
5.445436
 30
0.0
 10
5.074984
 20
5.600823
 30
0.0
 10
5.074984
 20
5.754006
 30
0.0
 10
5.188645
 20
5.672812
 30
0.0
 10
5.188645
 20
5.721540
 30
0.0
 10
5.188645
 20
5.770212
 30
0.0
 10
5.188701
 20
5.770212
 30
0.0
 10
5.188701
 20
6.013794
 30
0.0
 10
5.188645
 20
6.013794
 30
0.0
 10
5.188645
 20
6.078727
 30
0.0
 10
5.277996
 20
6.013794
 30
0.0
 10
5.277996
 20
6.094988
 30
0.0
 10
5.074984
 20
6.250376
 30
0.0
 10
5.074984
 20
6.403558
 30
0.0
 10
5.188645
 20
6.322364
 30
0.0
 10
5.188645
 20
6.371092
 30
0.0
 10
5.188645
 20
6.419819
 30
0.0
 10
5.188701
 20
6.419819
 30
0.0
 10
5.188701
 20
6.663401
 30
0.0
 10
5.188645
 20
6.663401
 30
0.0
 10
5.188645
 20
6.728334
 30
0.0
 10
5.277996
 20
6.663401
 30
0.0
 10
5.277996
 20
6.744595
 30
0.0
 10
5.074984
 20
6.899982
 30
0.0
 10
5.074984
 20
7.053165
 30
0.0
 10
5.188645
 20
6.971971
 30
0.0
 10
5.188645
 20
7.020699
 30
0.0
 10
5.188645
 20
7.069426
 30
0.0
 10
5.188701
 20
7.069426
 30
0.0
 10
5.188701
 20
7.313008
 30
0.0
 10
5.188645
 20
7.313008
 30
0.0
 10
5.188645
 20
7.377941
 30
0.0
 10
5.277996
 20
7.313008
 30
0.0
 10
5.277996
 20
7.394202
 30
0.0
 10
5.074984
 20
7.549590
 30
0.0
 10
5.074984
 20
7.702773
 30
0.0
 10
5.188645
 20
7.621578
 30
0.0
 10
5.188645
 20
7.670306
 30
0.0
 10
5.188645
 20
7.792069
 30
0.0
 10
4.969426
 20
7.792069
 30
0.0
 10
5.034415
 20
7.881422
 30
0.0
 10
4.953165
 20
7.881422
 30
0.0
 10
4.953165
 20
7.881422
 30
0.0
  0
LWPOLYLINE
  5
106
100
AcDbEntity
  8
Layer_1
 62
7
100
AcDbPolyline
 90
120
 70
1
 10
6.252380
 20
7.881422
 30
0.0
 10
6.096992
 20
7.678409
 30
0.0
 10
5.943865
 20
7.678409
 30
0.0
 10
6.025059
 20
7.792069
 30
0.0
 10
5.976331
 20
7.792069
 30
0.0
 10
5.854513
 20
7.792069
 30
0.0
 10
5.854513
 20
7.572851
 30
0.0
 10
5.765216
 20
7.637784
 30
0.0
 10
5.765216
 20
7.556590
 30
0.0
 10
5.968228
 20
7.401203
 30
0.0
 10
5.968228
 20
7.248020
 30
0.0
 10
5.854513
 20
7.329214
 30
0.0
 10
5.854513
 20
7.280542
 30
0.0
 10
5.854513
 20
7.223656
 30
0.0
 10
5.854513
 20
7.158723
 30
0.0
 10
5.854513
 20
7.142462
 30
0.0
 10
5.854513
 20
7.004438
 30
0.0
 10
5.854513
 20
6.923244
 30
0.0
 10
5.765216
 20
6.988177
 30
0.0
 10
5.765216
 20
6.906983
 30
0.0
 10
5.968228
 20
6.751595
 30
0.0
 10
5.968228
 20
6.598413
 30
0.0
 10
5.854513
 20
6.679607
 30
0.0
 10
5.854513
 20
6.630934
 30
0.0
 10
5.854513
 20
6.574104
 30
0.0
 10
5.854513
 20
6.509116
 30
0.0
 10
5.854513
 20
6.492855
 30
0.0
 10
5.854513
 20
6.354831
 30
0.0
 10
5.854513
 20
6.273637
 30
0.0
 10
5.765216
 20
6.338570
 30
0.0
 10
5.765216
 20
6.257376
 30
0.0
 10
5.968228
 20
6.101988
 30
0.0
 10
5.968228
 20
5.948806
 30
0.0
 10
5.854513
 20
6.029999
 30
0.0
 10
5.854513
 20
5.981327
 30
0.0
 10
5.854513
 20
5.859509
 30
0.0
 10
6.073786
 20
5.859509
 30
0.0
 10
6.008798
 20
5.770212
 30
0.0
 10
6.089992
 20
5.770212
 30
0.0
 10
6.245324
 20
5.973169
 30
0.0
 10
6.398562
 20
5.973169
 30
0.0
 10
6.317368
 20
5.859509
 30
0.0
 10
6.366095
 20
5.859509
 30
0.0
 10
6.487859
 20
5.859509
 30
0.0
 10
6.487859
 20
6.013794
 30
0.0
 10
6.333574
 20
6.013794
 30
0.0
 10
6.333574
 20
6.257376
 30
0.0
 10
6.374198
 20
6.257376
 30
0.0
 10
6.374198
 20
6.403558
 30
0.0
 10
6.487859
 20
6.322364
 30
0.0
 10
6.487859
 20
6.371092
 30
0.0
 10
6.487859
 20
6.411661
 30
0.0
 10
6.487859
 20
6.492855
 30
0.0
 10
6.487859
 20
6.509116
 30
0.0
 10
6.487859
 20
6.655298
 30
0.0
 10
6.487859
 20
6.663401
 30
0.0
 10
6.333574
 20
6.663401
 30
0.0
 10
6.333574
 20
6.906983
 30
0.0
 10
6.374198
 20
6.906983
 30
0.0
 10
6.374198
 20
7.053165
 30
0.0
 10
6.487859
 20
6.971971
 30
0.0
 10
6.487859
 20
7.020699
 30
0.0
 10
6.487859
 20
7.061268
 30
0.0
 10
6.487859
 20
7.142462
 30
0.0
 10
6.487859
 20
7.158723
 30
0.0
 10
6.504120
 20
7.158723
 30
0.0
 10
6.634041
 20
7.158723
 30
0.0
 10
6.658405
 20
7.158723
 30
0.0
 10
6.658405
 20
7.313008
 30
0.0
 10
6.901987
 20
7.313008
 30
0.0
 10
6.901987
 20
7.272384
 30
0.0
 10
7.048169
 20
7.272384
 30
0.0
 10
6.966975
 20
7.158723
 30
0.0
 10
7.015703
 20
7.158723
 30
0.0
 10
7.072533
 20
7.158723
 30
0.0
 10
7.137466
 20
7.158723
 30
0.0
 10
7.153672
 20
7.158723
 30
0.0
 10
7.291751
 20
7.158723
 30
0.0
 10
7.308012
 20
7.158723
 30
0.0
 10
7.308012
 20
7.313008
 30
0.0
 10
7.551594
 20
7.313008
 30
0.0
 10
7.551594
 20
7.272384
 30
0.0
 10
7.697721
 20
7.272384
 30
0.0
 10
7.616527
 20
7.158723
 30
0.0
 10
7.665255
 20
7.158723
 30
0.0
 10
7.787018
 20
7.158723
 30
0.0
 10
7.787018
 20
7.377941
 30
0.0
 10
7.876370
 20
7.313008
 30
0.0
 10
7.876370
 20
7.394202
 30
0.0
 10
7.673357
 20
7.549590
 30
0.0
 10
7.673357
 20
7.702773
 30
0.0
 10
7.787018
 20
7.621578
 30
0.0
 10
7.787018
 20
7.670306
 30
0.0
 10
7.787018
 20
7.792069
 30
0.0
 10
7.567800
 20
7.792069
 30
0.0
 10
7.632788
 20
7.881422
 30
0.0
 10
7.551539
 20
7.881422
 30
0.0
 10
7.396151
 20
7.678409
 30
0.0
 10
7.243024
 20
7.678409
 30
0.0
 10
7.324218
 20
7.792069
 30
0.0
 10
7.275490
 20
7.792069
 30
0.0
 10
7.234921
 20
7.792069
 30
0.0
 10
7.153672
 20
7.792069
 30
0.0
 10
7.137466
 20
7.792069
 30
0.0
 10
6.991339
 20
7.792069
 30
0.0
 10
6.918248
 20
7.792069
 30
0.0
 10
6.983236
 20
7.881422
 30
0.0
 10
6.901987
 20
7.881422
 30
0.0
 10
6.746599
 20
7.678409
 30
0.0
 10
6.593472
 20
7.678409
 30
0.0
 10
6.674666
 20
7.792069
 30
0.0
 10
6.625938
 20
7.792069
 30
0.0
 10
6.577211
 20
7.792069
 30
0.0
 10
6.504120
 20
7.792069
 30
0.0
 10
6.487859
 20
7.792069
 30
0.0
 10
6.333574
 20
7.792069
 30
0.0
 10
6.268641
 20
7.792069
 30
0.0
 10
6.333629
 20
7.881422
 30
0.0
 10
6.252380
 20
7.881422
 30
0.0
 10
6.252380
 20
7.881422
 30
0.0
  0
LWPOLYLINE
  5
107
100
AcDbEntity
  8
Layer_1
 62
7
100
AcDbPolyline
 90
120
 70
1
 10
8.850754
 20
7.231814
 30
0.0
 10
8.695366
 20
7.028802
 30
0.0
 10
8.542238
 20
7.028802
 30
0.0
 10
8.623432
 20
7.142462
 30
0.0
 10
8.574705
 20
7.142462
 30
0.0
 10
8.452886
 20
7.142462
 30
0.0
 10
8.452886
 20
6.988177
 30
0.0
 10
8.607227
 20
6.988177
 30
0.0
 10
8.607227
 20
6.744595
 30
0.0
 10
8.566602
 20
6.744595
 30
0.0
 10
8.566602
 20
6.598413
 30
0.0
 10
8.452886
 20
6.679607
 30
0.0
 10
8.452886
 20
6.630934
 30
0.0
 10
8.452886
 20
6.509116
 30
0.0
 10
8.452943
 20
6.509116
 30
0.0
 10
8.452943
 20
6.492855
 30
0.0
 10
8.452886
 20
6.492855
 30
0.0
 10
8.436626
 20
6.492855
 30
0.0
 10
8.282395
 20
6.492855
 30
0.0
 10
8.282395
 20
6.338625
 30
0.0
 10
8.038813
 20
6.338625
 30
0.0
 10
8.038813
 20
6.379194
 30
0.0
 10
7.892631
 20
6.379194
 30
0.0
 10
7.973825
 20
6.492855
 30
0.0
 10
7.925098
 20
6.492855
 30
0.0
 10
7.876425
 20
6.492855
 30
0.0
 10
7.803279
 20
6.492855
 30
0.0
 10
7.787018
 20
6.492855
 30
0.0
 10
7.713982
 20
6.492855
 30
0.0
 10
7.713982
 20
6.374564
 30
0.0
 10
7.713982
 20
6.338625
 30
0.0
 10
7.673357
 20
6.338625
 30
0.0
 10
7.632788
 20
6.338625
 30
0.0
 10
7.470400
 20
6.338625
 30
0.0
 10
7.470400
 20
6.476208
 30
0.0
 10
7.396151
 20
6.379194
 30
0.0
 10
7.243024
 20
6.379194
 30
0.0
 10
7.324218
 20
6.492855
 30
0.0
 10
7.275490
 20
6.492855
 30
0.0
 10
7.153672
 20
6.492855
 30
0.0
 10
7.153672
 20
6.273637
 30
0.0
 10
7.064375
 20
6.338570
 30
0.0
 10
7.064375
 20
6.257376
 30
0.0
 10
7.267388
 20
6.101988
 30
0.0
 10
7.267388
 20
5.948806
 30
0.0
 10
7.153672
 20
6.029999
 30
0.0
 10
7.153672
 20
5.981327
 30
0.0
 10
7.153672
 20
5.859509
 30
0.0
 10
7.308012
 20
5.859509
 30
0.0
 10
7.308012
 20
6.013794
 30
0.0
 10
7.551594
 20
6.013794
 30
0.0
 10
7.551594
 20
5.973169
 30
0.0
 10
7.697721
 20
5.973169
 30
0.0
 10
7.616527
 20
5.859509
 30
0.0
 10
7.665255
 20
5.859509
 30
0.0
 10
7.713982
 20
5.859509
 30
0.0
 10
7.787018
 20
5.859509
 30
0.0
 10
7.803279
 20
5.859509
 30
0.0
 10
7.803336
 20
5.859509
 30
0.0
 10
7.803336
 20
5.843303
 30
0.0
 10
7.803279
 20
5.843303
 30
0.0
 10
7.803279
 20
5.689018
 30
0.0
 10
7.957619
 20
5.689018
 30
0.0
 10
7.957619
 20
5.445381
 30
0.0
 10
7.916995
 20
5.445381
 30
0.0
 10
7.916995
 20
5.299254
 30
0.0
 10
7.803279
 20
5.380448
 30
0.0
 10
7.803279
 20
5.331775
 30
0.0
 10
7.803279
 20
5.209957
 30
0.0
 10
8.022552
 20
5.209957
 30
0.0
 10
7.957564
 20
5.120660
 30
0.0
 10
8.038758
 20
5.120660
 30
0.0
 10
8.194091
 20
5.323617
 30
0.0
 10
8.347328
 20
5.323617
 30
0.0
 10
8.266135
 20
5.209957
 30
0.0
 10
8.314862
 20
5.209957
 30
0.0
 10
8.436626
 20
5.209957
 30
0.0
 10
8.436626
 20
5.364187
 30
0.0
 10
8.282395
 20
5.364187
 30
0.0
 10
8.282395
 20
5.607824
 30
0.0
 10
8.322965
 20
5.607824
 30
0.0
 10
8.322965
 20
5.754006
 30
0.0
 10
8.436626
 20
5.672812
 30
0.0
 10
8.436626
 20
5.721540
 30
0.0
 10
8.436626
 20
5.770212
 30
0.0
 10
8.436682
 20
5.770212
 30
0.0
 10
8.436682
 20
5.859509
 30
0.0
 10
8.452888
 20
5.859509
 30
0.0
 10
8.582864
 20
5.859509
 30
0.0
 10
8.607228
 20
5.859509
 30
0.0
 10
8.607228
 20
6.013794
 30
0.0
 10
8.850810
 20
6.013794
 30
0.0
 10
8.850810
 20
5.973169
 30
0.0
 10
8.996937
 20
5.973169
 30
0.0
 10
8.915743
 20
5.859509
 30
0.0
 10
8.964471
 20
5.859509
 30
0.0
 10
9.086234
 20
5.859509
 30
0.0
 10
9.086234
 20
6.078727
 30
0.0
 10
9.175586
 20
6.013794
 30
0.0
 10
9.175586
 20
6.094988
 30
0.0
 10
8.972573
 20
6.250376
 30
0.0
 10
8.972573
 20
6.403558
 30
0.0
 10
9.086234
 20
6.322364
 30
0.0
 10
9.086234
 20
6.371092
 30
0.0
 10
9.086234
 20
6.419819
 30
0.0
 10
9.086290
 20
6.419819
 30
0.0
 10
9.086290
 20
6.663401
 30
0.0
 10
9.086234
 20
6.663401
 30
0.0
 10
9.086234
 20
6.728334
 30
0.0
 10
9.175586
 20
6.663401
 30
0.0
 10
9.175586
 20
6.744595
 30
0.0
 10
8.972573
 20
6.899983
 30
0.0
 10
8.972573
 20
7.053165
 30
0.0
 10
9.086234
 20
6.971971
 30
0.0
 10
9.086234
 20
7.020699
 30
0.0
 10
9.086234
 20
7.142462
 30
0.0
 10
8.867016
 20
7.142462
 30
0.0
 10
8.932004
 20
7.231814
 30
0.0
 10
8.850755
 20
7.231814
 30
0.0
 10
8.850754
 20
7.231814
 30
0.0
  0
LWPOLYLINE
  5
108
100
AcDbEntity
  8
Layer_1
 62
7
100
AcDbPolyline
 90
120
 70
1
 10
1.055577
 20
5.932655
 30
0.0
 10
0.900190
 20
5.729643
 30
0.0
 10
0.747062
 20
5.729643
 30
0.0
 10
0.828256
 20
5.843303
 30
0.0
 10
0.779529
 20
5.843303
 30
0.0
 10
0.657710
 20
5.843303
 30
0.0
 10
0.657710
 20
5.624085
 30
0.0
 10
0.568413
 20
5.689018
 30
0.0
 10
0.568413
 20
5.607824
 30
0.0
 10
0.771426
 20
5.452436
 30
0.0
 10
0.771426
 20
5.299254
 30
0.0
 10
0.657710
 20
5.380448
 30
0.0
 10
0.657710
 20
5.331775
 30
0.0
 10
0.657710
 20
5.291095
 30
0.0
 10
0.657710
 20
5.209957
 30
0.0
 10
0.657710
 20
5.193696
 30
0.0
 10
0.657710
 20
5.047513
 30
0.0
 10
0.657710
 20
4.974477
 30
0.0
 10
0.568413
 20
5.039410
 30
0.0
 10
0.568413
 20
4.958217
 30
0.0
 10
0.771426
 20
4.802829
 30
0.0
 10
0.771426
 20
4.649646
 30
0.0
 10
0.657710
 20
4.730840
 30
0.0
 10
0.657710
 20
4.682168
 30
0.0
 10
0.657710
 20
4.641543
 30
0.0
 10
0.657710
 20
4.560349
 30
0.0
 10
0.657710
 20
4.544088
 30
0.0
 10
0.657710
 20
4.397906
 30
0.0
 10
0.657710
 20
4.324870
 30
0.0
 10
0.568413
 20
4.389804
 30
0.0
 10
0.568413
 20
4.308609
 30
0.0
 10
0.771426
 20
4.153222
 30
0.0
 10
0.771426
 20
4.000039
 30
0.0
 10
0.657710
 20
4.081233
 30
0.0
 10
0.657710
 20
4.032561
 30
0.0
 10
0.657710
 20
3.983778
 30
0.0
 10
0.657710
 20
3.910742
 30
0.0
 10
0.657710
 20
3.894481
 30
0.0
 10
0.657710
 20
3.740196
 30
0.0
 10
0.657710
 20
3.675263
 30
0.0
 10
0.568413
 20
3.740196
 30
0.0
 10
0.568413
 20
3.659002
 30
0.0
 10
0.771426
 20
3.503615
 30
0.0
 10
0.771426
 20
3.350432
 30
0.0
 10
0.657710
 20
3.431626
 30
0.0
 10
0.657710
 20
3.382953
 30
0.0
 10
0.657710
 20
3.261135
 30
0.0
 10
0.876984
 20
3.261135
 30
0.0
 10
0.811995
 20
3.171838
 30
0.0
 10
0.893189
 20
3.171838
 30
0.0
 10
1.048522
 20
3.374796
 30
0.0
 10
1.201760
 20
3.374796
 30
0.0
 10
1.120566
 20
3.261135
 30
0.0
 10
1.169293
 20
3.261135
 30
0.0
 10
1.291056
 20
3.261135
 30
0.0
 10
1.291056
 20
3.415420
 30
0.0
 10
1.136826
 20
3.415420
 30
0.0
 10
1.136826
 20
3.659002
 30
0.0
 10
1.177396
 20
3.659002
 30
0.0
 10
1.177396
 20
3.805184
 30
0.0
 10
1.291056
 20
3.723990
 30
0.0
 10
1.291056
 20
3.772718
 30
0.0
 10
1.291056
 20
3.821390
 30
0.0
 10
1.291056
 20
3.894481
 30
0.0
 10
1.291056
 20
3.910742
 30
0.0
 10
1.291056
 20
4.040664
 30
0.0
 10
1.291056
 20
4.065027
 30
0.0
 10
1.136826
 20
4.065027
 30
0.0
 10
1.136826
 20
4.308609
 30
0.0
 10
1.177396
 20
4.308609
 30
0.0
 10
1.177396
 20
4.454792
 30
0.0
 10
1.291056
 20
4.373598
 30
0.0
 10
1.291056
 20
4.422325
 30
0.0
 10
1.291056
 20
4.479100
 30
0.0
 10
1.291056
 20
4.544088
 30
0.0
 10
1.291056
 20
4.560349
 30
0.0
 10
1.291056
 20
4.698374
 30
0.0
 10
1.291056
 20
4.714579
 30
0.0
 10
1.136826
 20
4.714579
 30
0.0
 10
1.136826
 20
4.958217
 30
0.0
 10
1.177396
 20
4.958217
 30
0.0
 10
1.177396
 20
5.104399
 30
0.0
 10
1.291056
 20
5.023205
 30
0.0
 10
1.291056
 20
5.071932
 30
0.0
 10
1.291056
 20
5.128708
 30
0.0
 10
1.291056
 20
5.193696
 30
0.0
 10
1.291056
 20
5.209901
 30
0.0
 10
1.453499
 20
5.209901
 30
0.0
 10
1.453499
 20
5.209958
 30
0.0
 10
1.461602
 20
5.209958
 30
0.0
 10
1.461602
 20
5.364188
 30
0.0
 10
1.705184
 20
5.364188
 30
0.0
 10
1.705184
 20
5.323619
 30
0.0
 10
1.851367
 20
5.323619
 30
0.0
 10
1.770173
 20
5.209958
 30
0.0
 10
1.818900
 20
5.209958
 30
0.0
 10
1.940664
 20
5.209958
 30
0.0
 10
1.940664
 20
5.429176
 30
0.0
 10
2.030016
 20
5.364243
 30
0.0
 10
2.030016
 20
5.445437
 30
0.0
 10
1.827003
 20
5.600825
 30
0.0
 10
1.827003
 20
5.754008
 30
0.0
 10
1.940664
 20
5.672813
 30
0.0
 10
1.940664
 20
5.721541
 30
0.0
 10
1.940664
 20
5.843304
 30
0.0
 10
1.721445
 20
5.843304
 30
0.0
 10
1.786434
 20
5.932656
 30
0.0
 10
1.705184
 20
5.932656
 30
0.0
 10
1.549797
 20
5.729644
 30
0.0
 10
1.396669
 20
5.729644
 30
0.0
 10
1.477863
 20
5.843304
 30
0.0
 10
1.429136
 20
5.843304
 30
0.0
 10
1.396614
 20
5.843304
 30
0.0
 10
1.307317
 20
5.843304
 30
0.0
 10
1.291056
 20
5.843304
 30
0.0
 10
1.153032
 20
5.843304
 30
0.0
 10
1.071838
 20
5.843304
 30
0.0
 10
1.136826
 20
5.932656
 30
0.0
 10
1.055577
 20
5.932656
 30
0.0
 10
1.055577
 20
5.932655
 30
0.0
  0
LWPOLYLINE
  5
109
100
AcDbEntity
  8
Layer_1
 62
7
100
AcDbPolyline
 90
116
 70
1
 10
10.149968
 20
5.932655
 30
0.0
 10
9.994580
 20
5.729643
 30
0.0
 10
9.841453
 20
5.729643
 30
0.0
 10
9.922647
 20
5.843303
 30
0.0
 10
9.873919
 20
5.843303
 30
0.0
 10
9.752101
 20
5.843303
 30
0.0
 10
9.752101
 20
5.689018
 30
0.0
 10
9.906386
 20
5.689018
 30
0.0
 10
9.906386
 20
5.445381
 30
0.0
 10
9.865816
 20
5.445381
 30
0.0
 10
9.865816
 20
5.299254
 30
0.0
 10
9.752101
 20
5.380448
 30
0.0
 10
9.752101
 20
5.331775
 30
0.0
 10
9.752101
 20
5.282993
 30
0.0
 10
9.752101
 20
5.209957
 30
0.0
 10
9.752101
 20
5.193696
 30
0.0
 10
9.752101
 20
5.039410
 30
0.0
 10
9.906386
 20
5.039410
 30
0.0
 10
9.906386
 20
4.795773
 30
0.0
 10
9.865816
 20
4.795773
 30
0.0
 10
9.865816
 20
4.649646
 30
0.0
 10
9.752101
 20
4.730840
 30
0.0
 10
9.752101
 20
4.682168
 30
0.0
 10
9.752101
 20
4.633385
 30
0.0
 10
9.752101
 20
4.560349
 30
0.0
 10
9.752101
 20
4.544088
 30
0.0
 10
9.735840
 20
4.544088
 30
0.0
 10
9.581610
 20
4.544088
 30
0.0
 10
9.581610
 20
4.389804
 30
0.0
 10
9.337973
 20
4.389804
 30
0.0
 10
9.337973
 20
4.430428
 30
0.0
 10
9.191845
 20
4.430428
 30
0.0
 10
9.273040
 20
4.544088
 30
0.0
 10
9.224312
 20
4.544088
 30
0.0
 10
9.102494
 20
4.544088
 30
0.0
 10
9.102494
 20
4.324870
 30
0.0
 10
9.013196
 20
4.389804
 30
0.0
 10
9.013196
 20
4.308609
 30
0.0
 10
9.216209
 20
4.153222
 30
0.0
 10
9.216209
 20
4.000039
 30
0.0
 10
9.102494
 20
4.081233
 30
0.0
 10
9.102494
 20
4.032561
 30
0.0
 10
9.102494
 20
3.975675
 30
0.0
 10
9.102494
 20
3.910742
 30
0.0
 10
9.102494
 20
3.894481
 30
0.0
 10
9.102494
 20
3.732093
 30
0.0
 10
9.102494
 20
3.675263
 30
0.0
 10
9.013196
 20
3.740196
 30
0.0
 10
9.013196
 20
3.659002
 30
0.0
 10
9.216209
 20
3.503615
 30
0.0
 10
9.216209
 20
3.350432
 30
0.0
 10
9.102494
 20
3.431626
 30
0.0
 10
9.102494
 20
3.382953
 30
0.0
 10
9.102494
 20
3.261135
 30
0.0
 10
9.321767
 20
3.261135
 30
0.0
 10
9.256779
 20
3.171838
 30
0.0
 10
9.337973
 20
3.171838
 30
0.0
 10
9.493305
 20
3.374796
 30
0.0
 10
9.646543
 20
3.374796
 30
0.0
 10
9.565349
 20
3.261135
 30
0.0
 10
9.614076
 20
3.261135
 30
0.0
 10
9.735840
 20
3.261135
 30
0.0
 10
9.735840
 20
3.415420
 30
0.0
 10
9.581610
 20
3.415420
 30
0.0
 10
9.581610
 20
3.659002
 30
0.0
 10
9.622179
 20
3.659002
 30
0.0
 10
9.622179
 20
3.805184
 30
0.0
 10
9.735840
 20
3.723990
 30
0.0
 10
9.735840
 20
3.772718
 30
0.0
 10
9.735840
 20
3.813287
 30
0.0
 10
9.735896
 20
3.813287
 30
0.0
 10
9.735896
 20
3.910742
 30
0.0
 10
9.752102
 20
3.910742
 30
0.0
 10
9.882023
 20
3.910742
 30
0.0
 10
9.906387
 20
3.910742
 30
0.0
 10
9.906387
 20
4.065027
 30
0.0
 10
10.150024
 20
4.065027
 30
0.0
 10
10.150024
 20
4.024403
 30
0.0
 10
10.296151
 20
4.024403
 30
0.0
 10
10.214957
 20
3.910742
 30
0.0
 10
10.263685
 20
3.910742
 30
0.0
 10
10.385448
 20
3.910742
 30
0.0
 10
10.385448
 20
4.129960
 30
0.0
 10
10.474800
 20
4.065027
 30
0.0
 10
10.474800
 20
4.146221
 30
0.0
 10
10.271788
 20
4.301609
 30
0.0
 10
10.271788
 20
4.454792
 30
0.0
 10
10.385448
 20
4.373598
 30
0.0
 10
10.385448
 20
4.422325
 30
0.0
 10
10.385448
 20
4.470997
 30
0.0
 10
10.385505
 20
4.470997
 30
0.0
 10
10.385505
 20
4.690216
 30
0.0
 10
10.385448
 20
4.690216
 30
0.0
 10
10.385448
 20
4.779568
 30
0.0
 10
10.474800
 20
4.714635
 30
0.0
 10
10.474800
 20
4.795828
 30
0.0
 10
10.271788
 20
4.951216
 30
0.0
 10
10.271788
 20
5.104399
 30
0.0
 10
10.385448
 20
5.023205
 30
0.0
 10
10.385448
 20
5.071932
 30
0.0
 10
10.385448
 20
5.120605
 30
0.0
 10
10.385505
 20
5.120605
 30
0.0
 10
10.385505
 20
5.339823
 30
0.0
 10
10.385448
 20
5.339823
 30
0.0
 10
10.385448
 20
5.429175
 30
0.0
 10
10.474800
 20
5.364242
 30
0.0
 10
10.474800
 20
5.445436
 30
0.0
 10
10.271788
 20
5.600823
 30
0.0
 10
10.271788
 20
5.754006
 30
0.0
 10
10.385448
 20
5.672812
 30
0.0
 10
10.385448
 20
5.721540
 30
0.0
 10
10.385448
 20
5.843303
 30
0.0
 10
10.166230
 20
5.843303
 30
0.0
 10
10.231218
 20
5.932655
 30
0.0
 10
10.149969
 20
5.932655
 30
0.0
 10
10.149968
 20
5.932655
 30
0.0
  0
LWPOLYLINE
  5
10a
100
AcDbEntity
  8
Layer_1
 62
7
100
AcDbPolyline
 90
118
 70
1
 10
3.653951
 20
5.283048
 30
0.0
 10
3.498563
 20
5.080035
 30
0.0
 10
3.345436
 20
5.080035
 30
0.0
 10
3.426630
 20
5.193696
 30
0.0
 10
3.377902
 20
5.193696
 30
0.0
 10
3.256084
 20
5.193696
 30
0.0
 10
3.256084
 20
5.039410
 30
0.0
 10
3.410424
 20
5.039410
 30
0.0
 10
3.410424
 20
4.795773
 30
0.0
 10
3.369799
 20
4.795773
 30
0.0
 10
3.369799
 20
4.649646
 30
0.0
 10
3.256084
 20
4.730840
 30
0.0
 10
3.256084
 20
4.682168
 30
0.0
 10
3.256084
 20
4.560349
 30
0.0
 10
3.256140
 20
4.560349
 30
0.0
 10
3.256140
 20
4.544088
 30
0.0
 10
3.256084
 20
4.544088
 30
0.0
 10
3.239823
 20
4.544088
 30
0.0
 10
3.109957
 20
4.544088
 30
0.0
 10
3.085593
 20
4.544088
 30
0.0
 10
3.085593
 20
4.389804
 30
0.0
 10
2.842011
 20
4.389804
 30
0.0
 10
2.842011
 20
4.430428
 30
0.0
 10
2.695828
 20
4.430428
 30
0.0
 10
2.777023
 20
4.544088
 30
0.0
 10
2.728295
 20
4.544088
 30
0.0
 10
2.695828
 20
4.544088
 30
0.0
 10
2.606477
 20
4.544088
 30
0.0
 10
2.590216
 20
4.544088
 30
0.0
 10
2.452246
 20
4.544088
 30
0.0
 10
2.435986
 20
4.544088
 30
0.0
 10
2.435986
 20
4.389804
 30
0.0
 10
2.192404
 20
4.389804
 30
0.0
 10
2.192404
 20
4.430428
 30
0.0
 10
2.046221
 20
4.430428
 30
0.0
 10
2.127415
 20
4.544088
 30
0.0
 10
2.078688
 20
4.544088
 30
0.0
 10
1.956869
 20
4.544088
 30
0.0
 10
1.956869
 20
4.324870
 30
0.0
 10
1.867573
 20
4.389804
 30
0.0
 10
1.867573
 20
4.308609
 30
0.0
 10
2.070585
 20
4.153222
 30
0.0
 10
2.070585
 20
4.000039
 30
0.0
 10
1.956869
 20
4.081233
 30
0.0
 10
1.956869
 20
4.032561
 30
0.0
 10
1.956869
 20
3.910742
 30
0.0
 10
1.956926
 20
3.910742
 30
0.0
 10
1.956926
 20
3.894481
 30
0.0
 10
1.956869
 20
3.894481
 30
0.0
 10
1.956869
 20
3.675263
 30
0.0
 10
1.867573
 20
3.740196
 30
0.0
 10
1.867573
 20
3.659002
 30
0.0
 10
2.070585
 20
3.503615
 30
0.0
 10
2.070585
 20
3.350432
 30
0.0
 10
1.956869
 20
3.431626
 30
0.0
 10
1.956869
 20
3.382953
 30
0.0
 10
1.956869
 20
3.261135
 30
0.0
 10
2.176143
 20
3.261135
 30
0.0
 10
2.111155
 20
3.171838
 30
0.0
 10
2.192349
 20
3.171838
 30
0.0
 10
2.347681
 20
3.374796
 30
0.0
 10
2.500919
 20
3.374796
 30
0.0
 10
2.419725
 20
3.261135
 30
0.0
 10
2.468452
 20
3.261135
 30
0.0
 10
2.590216
 20
3.261135
 30
0.0
 10
2.590216
 20
3.415420
 30
0.0
 10
2.435986
 20
3.415420
 30
0.0
 10
2.435986
 20
3.659002
 30
0.0
 10
2.476610
 20
3.659002
 30
0.0
 10
2.476610
 20
3.805184
 30
0.0
 10
2.590216
 20
3.723990
 30
0.0
 10
2.590216
 20
3.772718
 30
0.0
 10
2.590216
 20
3.829493
 30
0.0
 10
2.590272
 20
3.829493
 30
0.0
 10
2.590272
 20
3.910742
 30
0.0
 10
2.606478
 20
3.910742
 30
0.0
 10
2.752660
 20
3.910742
 30
0.0
 10
2.760818
 20
3.910742
 30
0.0
 10
2.760818
 20
4.065027
 30
0.0
 10
3.004400
 20
4.065027
 30
0.0
 10
3.004400
 20
4.024403
 30
0.0
 10
3.150527
 20
4.024403
 30
0.0
 10
3.069333
 20
3.910742
 30
0.0
 10
3.118061
 20
3.910742
 30
0.0
 10
3.191152
 20
3.910742
 30
0.0
 10
3.239824
 20
3.910742
 30
0.0
 10
3.256085
 20
3.910742
 30
0.0
 10
3.410426
 20
3.910742
 30
0.0
 10
3.410426
 20
4.065027
 30
0.0
 10
3.654008
 20
4.065027
 30
0.0
 10
3.654008
 20
4.024403
 30
0.0
 10
3.800135
 20
4.024403
 30
0.0
 10
3.718941
 20
3.910742
 30
0.0
 10
3.767668
 20
3.910742
 30
0.0
 10
3.889431
 20
3.910742
 30
0.0
 10
3.889431
 20
4.129960
 30
0.0
 10
3.978784
 20
4.065027
 30
0.0
 10
3.978784
 20
4.146221
 30
0.0
 10
3.775771
 20
4.301609
 30
0.0
 10
3.775771
 20
4.454792
 30
0.0
 10
3.889431
 20
4.373598
 30
0.0
 10
3.889431
 20
4.422325
 30
0.0
 10
3.889431
 20
4.470997
 30
0.0
 10
3.889488
 20
4.470997
 30
0.0
 10
3.889488
 20
4.690216
 30
0.0
 10
3.889431
 20
4.690216
 30
0.0
 10
3.889431
 20
4.779568
 30
0.0
 10
3.978784
 20
4.714635
 30
0.0
 10
3.978784
 20
4.795828
 30
0.0
 10
3.775771
 20
4.951216
 30
0.0
 10
3.775771
 20
5.104399
 30
0.0
 10
3.889431
 20
5.023205
 30
0.0
 10
3.889431
 20
5.071932
 30
0.0
 10
3.889431
 20
5.193696
 30
0.0
 10
3.670213
 20
5.193696
 30
0.0
 10
3.735202
 20
5.283048
 30
0.0
 10
3.653952
 20
5.283048
 30
0.0
 10
3.653951
 20
5.283048
 30
0.0
  0
LWPOLYLINE
  5
10b
100
AcDbEntity
  8
Layer_1
 62
7
100
AcDbPolyline
 90
112
 70
1
 10
6.252380
 20
4.633441
 30
0.0
 10
6.096992
 20
4.430428
 30
0.0
 10
5.943865
 20
4.430428
 30
0.0
 10
6.025059
 20
4.544088
 30
0.0
 10
5.976331
 20
4.544088
 30
0.0
 10
5.854513
 20
4.544088
 30
0.0
 10
5.854513
 20
4.389804
 30
0.0
 10
6.008798
 20
4.389804
 30
0.0
 10
6.008798
 20
4.146221
 30
0.0
 10
5.968228
 20
4.146221
 30
0.0
 10
5.968228
 20
4.000039
 30
0.0
 10
5.854513
 20
4.081233
 30
0.0
 10
5.854513
 20
4.032561
 30
0.0
 10
5.854513
 20
3.983778
 30
0.0
 10
5.854513
 20
3.910742
 30
0.0
 10
5.854513
 20
3.894481
 30
0.0
 10
5.838252
 20
3.894481
 30
0.0
 10
5.684022
 20
3.894481
 30
0.0
 10
5.684022
 20
3.740196
 30
0.0
 10
5.440385
 20
3.740196
 30
0.0
 10
5.440385
 20
3.780821
 30
0.0
 10
5.294257
 20
3.780821
 30
0.0
 10
5.375451
 20
3.894481
 30
0.0
 10
5.326724
 20
3.894481
 30
0.0
 10
5.204905
 20
3.894481
 30
0.0
 10
5.204905
 20
3.675263
 30
0.0
 10
5.115609
 20
3.740196
 30
0.0
 10
5.115609
 20
3.659002
 30
0.0
 10
5.318621
 20
3.503615
 30
0.0
 10
5.318621
 20
3.350432
 30
0.0
 10
5.204905
 20
3.431626
 30
0.0
 10
5.204905
 20
3.382953
 30
0.0
 10
5.204905
 20
3.261135
 30
0.0
 10
5.359191
 20
3.261135
 30
0.0
 10
5.359191
 20
3.415420
 30
0.0
 10
5.602773
 20
3.415420
 30
0.0
 10
5.602773
 20
3.374796
 30
0.0
 10
5.748955
 20
3.374796
 30
0.0
 10
5.667761
 20
3.261135
 30
0.0
 10
5.716488
 20
3.261135
 30
0.0
 10
5.765216
 20
3.261135
 30
0.0
 10
5.838252
 20
3.261135
 30
0.0
 10
5.854513
 20
3.261135
 30
0.0
 10
5.854513
 20
3.244874
 30
0.0
 10
5.854513
 20
3.114953
 30
0.0
 10
5.854513
 20
3.090589
 30
0.0
 10
6.008798
 20
3.090589
 30
0.0
 10
6.008798
 20
2.847007
 30
0.0
 10
5.968228
 20
2.847007
 30
0.0
 10
5.968228
 20
2.700825
 30
0.0
 10
5.854513
 20
2.782019
 30
0.0
 10
5.854513
 20
2.733346
 30
0.0
 10
5.854513
 20
2.611528
 30
0.0
 10
6.073786
 20
2.611528
 30
0.0
 10
6.008798
 20
2.522231
 30
0.0
 10
6.089992
 20
2.522231
 30
0.0
 10
6.245324
 20
2.725188
 30
0.0
 10
6.398562
 20
2.725188
 30
0.0
 10
6.317368
 20
2.611528
 30
0.0
 10
6.366095
 20
2.611528
 30
0.0
 10
6.487859
 20
2.611528
 30
0.0
 10
6.487859
 20
2.765813
 30
0.0
 10
6.333574
 20
2.765813
 30
0.0
 10
6.333574
 20
3.009395
 30
0.0
 10
6.374198
 20
3.009395
 30
0.0
 10
6.374198
 20
3.155577
 30
0.0
 10
6.487859
 20
3.074383
 30
0.0
 10
6.487859
 20
3.123111
 30
0.0
 10
6.487859
 20
3.171783
 30
0.0
 10
6.487859
 20
3.244874
 30
0.0
 10
6.487859
 20
3.261135
 30
0.0
 10
6.504120
 20
3.261135
 30
0.0
 10
6.658405
 20
3.261135
 30
0.0
 10
6.658405
 20
3.415420
 30
0.0
 10
6.901987
 20
3.415420
 30
0.0
 10
6.901987
 20
3.374796
 30
0.0
 10
7.048169
 20
3.374796
 30
0.0
 10
6.966975
 20
3.261135
 30
0.0
 10
7.015703
 20
3.261135
 30
0.0
 10
7.137466
 20
3.261135
 30
0.0
 10
7.137466
 20
3.480353
 30
0.0
 10
7.226818
 20
3.415420
 30
0.0
 10
7.226818
 20
3.496614
 30
0.0
 10
7.023806
 20
3.652002
 30
0.0
 10
7.023806
 20
3.805184
 30
0.0
 10
7.137466
 20
3.723990
 30
0.0
 10
7.137466
 20
3.772718
 30
0.0
 10
7.137466
 20
3.894481
 30
0.0
 10
6.983181
 20
3.894481
 30
0.0
 10
6.983181
 20
3.740196
 30
0.0
 10
6.739599
 20
3.740196
 30
0.0
 10
6.739599
 20
3.780821
 30
0.0
 10
6.593472
 20
3.780821
 30
0.0
 10
6.674666
 20
3.894481
 30
0.0
 10
6.625938
 20
3.894481
 30
0.0
 10
6.577211
 20
3.894481
 30
0.0
 10
6.504120
 20
3.894481
 30
0.0
 10
6.487859
 20
3.894481
 30
0.0
 10
6.487859
 20
3.910742
 30
0.0
 10
6.487859
 20
4.040664
 30
0.0
 10
6.487859
 20
4.065027
 30
0.0
 10
6.252380
 20
4.065027
 30
0.0
 10
6.252380
 20
4.308609
 30
0.0
 10
6.374198
 20
4.308609
 30
0.0
 10
6.374198
 20
4.454792
 30
0.0
 10
6.487859
 20
4.373598
 30
0.0
 10
6.487859
 20
4.422325
 30
0.0
 10
6.487859
 20
4.544088
 30
0.0
 10
6.268641
 20
4.544088
 30
0.0
 10
6.333629
 20
4.633441
 30
0.0
 10
6.252380
 20
4.633441
 30
0.0
 10
6.252380
 20
4.633441
 30
0.0
  0
LWPOLYLINE
  5
10c
100
AcDbEntity
  8
Layer_1
 62
7
100
AcDbPolyline
 90
116
 70
1
 10
2.354737
 20
2.684619
 30
0.0
 10
2.199349
 20
2.481606
 30
0.0
 10
2.046221
 20
2.481606
 30
0.0
 10
2.127415
 20
2.595267
 30
0.0
 10
2.078688
 20
2.595267
 30
0.0
 10
1.956869
 20
2.595267
 30
0.0
 10
1.956869
 20
2.440982
 30
0.0
 10
2.111210
 20
2.440982
 30
0.0
 10
2.111210
 20
2.197400
 30
0.0
 10
2.070585
 20
2.197400
 30
0.0
 10
2.070585
 20
2.051217
 30
0.0
 10
1.956869
 20
2.132412
 30
0.0
 10
1.956869
 20
2.083739
 30
0.0
 10
1.956869
 20
1.961921
 30
0.0
 10
1.956926
 20
1.961921
 30
0.0
 10
1.956926
 20
1.945660
 30
0.0
 10
1.956869
 20
1.945660
 30
0.0
 10
1.940664
 20
1.945660
 30
0.0
 10
1.810742
 20
1.945660
 30
0.0
 10
1.786378
 20
1.945660
 30
0.0
 10
1.786378
 20
1.791374
 30
0.0
 10
1.542797
 20
1.791374
 30
0.0
 10
1.542797
 20
1.831999
 30
0.0
 10
1.396669
 20
1.831999
 30
0.0
 10
1.477863
 20
1.945660
 30
0.0
 10
1.429136
 20
1.945660
 30
0.0
 10
1.307317
 20
1.945660
 30
0.0
 10
1.307317
 20
1.791374
 30
0.0
 10
1.461602
 20
1.791374
 30
0.0
 10
1.461602
 20
1.547792
 30
0.0
 10
1.421033
 20
1.547792
 30
0.0
 10
1.421033
 20
1.401610
 30
0.0
 10
1.307317
 20
1.482804
 30
0.0
 10
1.307317
 20
1.434132
 30
0.0
 10
1.307317
 20
1.385405
 30
0.0
 10
1.307317
 20
1.312313
 30
0.0
 10
1.307317
 20
1.296052
 30
0.0
 10
1.291056
 20
1.296052
 30
0.0
 10
1.161135
 20
1.296052
 30
0.0
 10
1.136826
 20
1.296052
 30
0.0
 10
1.136826
 20
1.141823
 30
0.0
 10
0.893189
 20
1.141823
 30
0.0
 10
0.893189
 20
1.182392
 30
0.0
 10
0.747062
 20
1.182392
 30
0.0
 10
0.828256
 20
1.296052
 30
0.0
 10
0.779529
 20
1.296052
 30
0.0
 10
0.657710
 20
1.296052
 30
0.0
 10
0.657710
 20
1.076834
 30
0.0
 10
0.568413
 20
1.141768
 30
0.0
 10
0.568413
 20
1.060573
 30
0.0
 10
0.771426
 20
0.905186
 30
0.0
 10
0.771426
 20
0.752003
 30
0.0
 10
0.657710
 20
0.833197
 30
0.0
 10
0.657710
 20
0.784525
 30
0.0
 10
0.657710
 20
0.662706
 30
0.0
 10
0.876984
 20
0.662706
 30
0.0
 10
0.811995
 20
0.573409
 30
0.0
 10
0.893189
 20
0.573409
 30
0.0
 10
1.048522
 20
0.776367
 30
0.0
 10
1.201760
 20
0.776367
 30
0.0
 10
1.120566
 20
0.662706
 30
0.0
 10
1.169293
 20
0.662706
 30
0.0
 10
1.242384
 20
0.662706
 30
0.0
 10
1.291056
 20
0.662706
 30
0.0
 10
1.307317
 20
0.662706
 30
0.0
 10
1.461602
 20
0.662706
 30
0.0
 10
1.526591
 20
0.662706
 30
0.0
 10
1.461602
 20
0.573409
 30
0.0
 10
1.542797
 20
0.573409
 30
0.0
 10
1.698129
 20
0.776367
 30
0.0
 10
1.851367
 20
0.776367
 30
0.0
 10
1.770173
 20
0.662706
 30
0.0
 10
1.818900
 20
0.662706
 30
0.0
 10
1.940664
 20
0.662706
 30
0.0
 10
1.940664
 20
0.816991
 30
0.0
 10
1.786378
 20
0.816991
 30
0.0
 10
1.786378
 20
1.060573
 30
0.0
 10
1.827003
 20
1.060573
 30
0.0
 10
1.827003
 20
1.206756
 30
0.0
 10
1.940664
 20
1.125562
 30
0.0
 10
1.940664
 20
1.174289
 30
0.0
 10
1.940664
 20
1.223016
 30
0.0
 10
1.940664
 20
1.296052
 30
0.0
 10
1.940664
 20
1.312313
 30
0.0
 10
1.956869
 20
1.312313
 30
0.0
 10
2.111210
 20
1.312313
 30
0.0
 10
2.111210
 20
1.466599
 30
0.0
 10
2.354792
 20
1.466599
 30
0.0
 10
2.354792
 20
1.425974
 30
0.0
 10
2.500919
 20
1.425974
 30
0.0
 10
2.419725
 20
1.312313
 30
0.0
 10
2.468452
 20
1.312313
 30
0.0
 10
2.590216
 20
1.312313
 30
0.0
 10
2.590216
 20
1.531532
 30
0.0
 10
2.679568
 20
1.466599
 30
0.0
 10
2.679568
 20
1.547792
 30
0.0
 10
2.476610
 20
1.703180
 30
0.0
 10
2.476610
 20
1.856363
 30
0.0
 10
2.590216
 20
1.775169
 30
0.0
 10
2.590216
 20
1.823896
 30
0.0
 10
2.590216
 20
1.872624
 30
0.0
 10
2.590272
 20
1.872624
 30
0.0
 10
2.590272
 20
2.091842
 30
0.0
 10
2.590216
 20
2.091842
 30
0.0
 10
2.590216
 20
2.181139
 30
0.0
 10
2.679568
 20
2.116206
 30
0.0
 10
2.679568
 20
2.197400
 30
0.0
 10
2.476610
 20
2.352787
 30
0.0
 10
2.476610
 20
2.505970
 30
0.0
 10
2.590216
 20
2.424776
 30
0.0
 10
2.590216
 20
2.473504
 30
0.0
 10
2.590216
 20
2.595267
 30
0.0
 10
2.370997
 20
2.595267
 30
0.0
 10
2.436041
 20
2.684619
 30
0.0
 10
2.354737
 20
2.684619
 30
0.0
 10
2.354737
 20
2.684619
 30
0.0
  0
LWPOLYLINE
  5
10d
100
AcDbEntity
  8
Layer_1
 62
7
100
AcDbPolyline
 90
118
 70
1
 10
4.303558
 20
2.684619
 30
0.0
 10
4.148171
 20
2.481606
 30
0.0
 10
3.995043
 20
2.481606
 30
0.0
 10
4.076237
 20
2.595267
 30
0.0
 10
4.027510
 20
2.595267
 30
0.0
 10
3.905691
 20
2.595267
 30
0.0
 10
3.905691
 20
2.440982
 30
0.0
 10
4.059976
 20
2.440982
 30
0.0
 10
4.059976
 20
2.197400
 30
0.0
 10
4.019407
 20
2.197400
 30
0.0
 10
4.019407
 20
2.051217
 30
0.0
 10
3.905691
 20
2.132412
 30
0.0
 10
3.905691
 20
2.083739
 30
0.0
 10
3.905691
 20
1.961921
 30
0.0
 10
3.905747
 20
1.961921
 30
0.0
 10
3.905747
 20
1.945660
 30
0.0
 10
3.905691
 20
1.945660
 30
0.0
 10
3.905691
 20
1.791374
 30
0.0
 10
4.059976
 20
1.791374
 30
0.0
 10
4.059976
 20
1.547792
 30
0.0
 10
4.019407
 20
1.547792
 30
0.0
 10
4.019407
 20
1.401610
 30
0.0
 10
3.905691
 20
1.482804
 30
0.0
 10
3.905691
 20
1.434132
 30
0.0
 10
3.905691
 20
1.312313
 30
0.0
 10
3.905747
 20
1.312313
 30
0.0
 10
3.905747
 20
1.296107
 30
0.0
 10
3.759565
 20
1.296107
 30
0.0
 10
3.759565
 20
1.296051
 30
0.0
 10
3.735201
 20
1.296051
 30
0.0
 10
3.735201
 20
1.141821
 30
0.0
 10
3.491619
 20
1.141821
 30
0.0
 10
3.491619
 20
1.182391
 30
0.0
 10
3.345437
 20
1.182391
 30
0.0
 10
3.426631
 20
1.296051
 30
0.0
 10
3.377903
 20
1.296051
 30
0.0
 10
3.256085
 20
1.296051
 30
0.0
 10
3.256085
 20
1.076833
 30
0.0
 10
3.166788
 20
1.141766
 30
0.0
 10
3.166788
 20
1.060572
 30
0.0
 10
3.369801
 20
0.905184
 30
0.0
 10
3.369801
 20
0.752002
 30
0.0
 10
3.256085
 20
0.833196
 30
0.0
 10
3.256085
 20
0.784523
 30
0.0
 10
3.256085
 20
0.662705
 30
0.0
 10
3.475358
 20
0.662705
 30
0.0
 10
3.410370
 20
0.573408
 30
0.0
 10
3.491564
 20
0.573408
 30
0.0
 10
3.646896
 20
0.776365
 30
0.0
 10
3.800134
 20
0.776365
 30
0.0
 10
3.718940
 20
0.662705
 30
0.0
 10
3.767668
 20
0.662705
 30
0.0
 10
3.840759
 20
0.662705
 30
0.0
 10
3.889431
 20
0.662705
 30
0.0
 10
3.905692
 20
0.662705
 30
0.0
 10
4.059977
 20
0.662705
 30
0.0
 10
4.124966
 20
0.662705
 30
0.0
 10
4.059977
 20
0.573408
 30
0.0
 10
4.141171
 20
0.573408
 30
0.0
 10
4.296504
 20
0.776365
 30
0.0
 10
4.449742
 20
0.776365
 30
0.0
 10
4.368548
 20
0.662705
 30
0.0
 10
4.417275
 20
0.662705
 30
0.0
 10
4.457900
 20
0.662705
 30
0.0
 10
4.539038
 20
0.662705
 30
0.0
 10
4.555299
 20
0.662705
 30
0.0
 10
4.677118
 20
0.662705
 30
0.0
 10
4.774573
 20
0.662705
 30
0.0
 10
4.709584
 20
0.573408
 30
0.0
 10
4.790778
 20
0.573408
 30
0.0
 10
4.946111
 20
0.776365
 30
0.0
 10
5.099349
 20
0.776365
 30
0.0
 10
5.018155
 20
0.662705
 30
0.0
 10
5.066882
 20
0.662705
 30
0.0
 10
5.188646
 20
0.662705
 30
0.0
 10
5.188646
 20
0.881923
 30
0.0
 10
5.277998
 20
0.816990
 30
0.0
 10
5.277998
 20
0.898184
 30
0.0
 10
5.074985
 20
1.053572
 30
0.0
 10
5.074985
 20
1.206754
 30
0.0
 10
5.188646
 20
1.125560
 30
0.0
 10
5.188646
 20
1.174288
 30
0.0
 10
5.188646
 20
1.296051
 30
0.0
 10
5.034416
 20
1.296051
 30
0.0
 10
5.034416
 20
1.141821
 30
0.0
 10
4.790778
 20
1.141821
 30
0.0
 10
4.790778
 20
1.182391
 30
0.0
 10
4.644651
 20
1.182391
 30
0.0
 10
4.725845
 20
1.296051
 30
0.0
 10
4.677118
 20
1.296051
 30
0.0
 10
4.620288
 20
1.296051
 30
0.0
 10
4.620288
 20
1.296107
 30
0.0
 10
4.539093
 20
1.296107
 30
0.0
 10
4.539093
 20
1.442235
 30
0.0
 10
4.539037
 20
1.442235
 30
0.0
 10
4.539037
 20
1.466599
 30
0.0
 10
4.384807
 20
1.466599
 30
0.0
 10
4.384807
 20
1.710181
 30
0.0
 10
4.425377
 20
1.710181
 30
0.0
 10
4.425377
 20
1.856363
 30
0.0
 10
4.539037
 20
1.775169
 30
0.0
 10
4.539037
 20
1.823896
 30
0.0
 10
4.539037
 20
1.880727
 30
0.0
 10
4.539093
 20
1.880727
 30
0.0
 10
4.539093
 20
2.099945
 30
0.0
 10
4.539037
 20
2.099945
 30
0.0
 10
4.539037
 20
2.116206
 30
0.0
 10
4.384807
 20
2.116206
 30
0.0
 10
4.384807
 20
2.359788
 30
0.0
 10
4.425377
 20
2.359788
 30
0.0
 10
4.425377
 20
2.505970
 30
0.0
 10
4.539037
 20
2.424776
 30
0.0
 10
4.539037
 20
2.473504
 30
0.0
 10
4.539037
 20
2.595267
 30
0.0
 10
4.319819
 20
2.595267
 30
0.0
 10
4.384807
 20
2.684619
 30
0.0
 10
4.303558
 20
2.684619
 30
0.0
 10
4.303558
 20
2.684619
 30
0.0
  0
LWPOLYLINE
  5
10e
100
AcDbEntity
  8
Layer_1
 62
7
100
AcDbPolyline
 90
97
 70
1
 10
9.500361
 20
2.684619
 30
0.0
 10
9.344973
 20
2.481606
 30
0.0
 10
9.191845
 20
2.481606
 30
0.0
 10
9.273040
 20
2.595267
 30
0.0
 10
9.224312
 20
2.595267
 30
0.0
 10
9.102494
 20
2.595267
 30
0.0
 10
9.102494
 20
2.440982
 30
0.0
 10
9.256779
 20
2.440982
 30
0.0
 10
9.256779
 20
2.197400
 30
0.0
 10
9.216209
 20
2.197400
 30
0.0
 10
9.216209
 20
2.051217
 30
0.0
 10
9.102494
 20
2.132412
 30
0.0
 10
9.102494
 20
2.083739
 30
0.0
 10
9.102494
 20
2.035012
 30
0.0
 10
9.102494
 20
1.961921
 30
0.0
 10
9.102494
 20
1.945660
 30
0.0
 10
9.086232
 20
1.945660
 30
0.0
 10
8.932003
 20
1.945660
 30
0.0
 10
8.932003
 20
1.791374
 30
0.0
 10
8.688421
 20
1.791374
 30
0.0
 10
8.688421
 20
1.831999
 30
0.0
 10
8.542238
 20
1.831999
 30
0.0
 10
8.623432
 20
1.945660
 30
0.0
 10
8.574705
 20
1.945660
 30
0.0
 10
8.452886
 20
1.945660
 30
0.0
 10
8.452886
 20
1.726441
 30
0.0
 10
8.363590
 20
1.791374
 30
0.0
 10
8.363590
 20
1.710181
 30
0.0
 10
8.566602
 20
1.554793
 30
0.0
 10
8.566602
 20
1.401610
 30
0.0
 10
8.452886
 20
1.482804
 30
0.0
 10
8.452886
 20
1.434132
 30
0.0
 10
8.452886
 20
1.312313
 30
0.0
 10
8.452943
 20
1.312313
 30
0.0
 10
8.452943
 20
1.296052
 30
0.0
 10
8.452886
 20
1.296052
 30
0.0
 10
8.452886
 20
1.076834
 30
0.0
 10
8.363590
 20
1.141768
 30
0.0
 10
8.363590
 20
1.060573
 30
0.0
 10
8.566602
 20
0.905186
 30
0.0
 10
8.566602
 20
0.752003
 30
0.0
 10
8.452886
 20
0.833197
 30
0.0
 10
8.452886
 20
0.784525
 30
0.0
 10
8.452886
 20
0.662706
 30
0.0
 10
8.672160
 20
0.662706
 30
0.0
 10
8.607172
 20
0.573409
 30
0.0
 10
8.688365
 20
0.573409
 30
0.0
 10
8.843698
 20
0.776367
 30
0.0
 10
8.996936
 20
0.776367
 30
0.0
 10
8.915742
 20
0.662706
 30
0.0
 10
8.964469
 20
0.662706
 30
0.0
 10
9.013196
 20
0.662706
 30
0.0
 10
9.086232
 20
0.662706
 30
0.0
 10
9.102494
 20
0.662706
 30
0.0
 10
9.232415
 20
0.662706
 30
0.0
 10
9.321767
 20
0.662706
 30
0.0
 10
9.256779
 20
0.573409
 30
0.0
 10
9.337973
 20
0.573409
 30
0.0
 10
9.493305
 20
0.776367
 30
0.0
 10
9.646543
 20
0.776367
 30
0.0
 10
9.565349
 20
0.662706
 30
0.0
 10
9.614076
 20
0.662706
 30
0.0
 10
9.735840
 20
0.662706
 30
0.0
 10
9.735840
 20
0.881924
 30
0.0
 10
9.825192
 20
0.816991
 30
0.0
 10
9.825192
 20
0.898185
 30
0.0
 10
9.622179
 20
1.053573
 30
0.0
 10
9.622179
 20
1.206756
 30
0.0
 10
9.735840
 20
1.125562
 30
0.0
 10
9.735840
 20
1.174289
 30
0.0
 10
9.735840
 20
1.239222
 30
0.0
 10
9.735896
 20
1.239222
 30
0.0
 10
9.735896
 20
1.458496
 30
0.0
 10
9.735840
 20
1.458496
 30
0.0
 10
9.735840
 20
1.531532
 30
0.0
 10
9.825192
 20
1.466599
 30
0.0
 10
9.825192
 20
1.547792
 30
0.0
 10
9.622179
 20
1.703180
 30
0.0
 10
9.622179
 20
1.856363
 30
0.0
 10
9.735840
 20
1.775169
 30
0.0
 10
9.735840
 20
1.823896
 30
0.0
 10
9.735840
 20
1.872624
 30
0.0
 10
9.735896
 20
1.872624
 30
0.0
 10
9.735896
 20
2.091842
 30
0.0
 10
9.735840
 20
2.091842
 30
0.0
 10
9.735840
 20
2.181139
 30
0.0
 10
9.825192
 20
2.116206
 30
0.0
 10
9.825192
 20
2.197400
 30
0.0
 10
9.622179
 20
2.352787
 30
0.0
 10
9.622179
 20
2.505970
 30
0.0
 10
9.735840
 20
2.424776
 30
0.0
 10
9.735840
 20
2.473504
 30
0.0
 10
9.735840
 20
2.595267
 30
0.0
 10
9.516621
 20
2.595267
 30
0.0
 10
9.581610
 20
2.684619
 30
0.0
 10
9.500361
 20
2.684619
 30
0.0
 10
9.500361
 20
2.684619
 30
0.0
  0
LWPOLYLINE
  5
10f
100
AcDbEntity
  8
Layer_1
 62
7
100
AcDbPolyline
 90
110
 70
1
 10
6.252380
 20
2.035012
 30
0.0
 10
6.096992
 20
1.831999
 30
0.0
 10
5.943865
 20
1.831999
 30
0.0
 10
6.025059
 20
1.945660
 30
0.0
 10
5.976331
 20
1.945660
 30
0.0
 10
5.854513
 20
1.945660
 30
0.0
 10
5.854513
 20
1.726441
 30
0.0
 10
5.765216
 20
1.791374
 30
0.0
 10
5.765216
 20
1.710181
 30
0.0
 10
5.968228
 20
1.554793
 30
0.0
 10
5.968228
 20
1.401610
 30
0.0
 10
5.854513
 20
1.482804
 30
0.0
 10
5.854513
 20
1.434132
 30
0.0
 10
5.854513
 20
1.377302
 30
0.0
 10
5.854513
 20
1.312313
 30
0.0
 10
5.854513
 20
1.296052
 30
0.0
 10
5.854513
 20
1.133665
 30
0.0
 10
5.854513
 20
1.076834
 30
0.0
 10
5.765216
 20
1.141768
 30
0.0
 10
5.765216
 20
1.060573
 30
0.0
 10
5.968228
 20
0.905186
 30
0.0
 10
5.968228
 20
0.752003
 30
0.0
 10
5.854513
 20
0.833197
 30
0.0
 10
5.854513
 20
0.784525
 30
0.0
 10
5.854513
 20
0.662706
 30
0.0
 10
6.073786
 20
0.662706
 30
0.0
 10
6.008798
 20
0.573409
 30
0.0
 10
6.089992
 20
0.573409
 30
0.0
 10
6.245324
 20
0.776367
 30
0.0
 10
6.398562
 20
0.776367
 30
0.0
 10
6.317368
 20
0.662706
 30
0.0
 10
6.366095
 20
0.662706
 30
0.0
 10
6.422926
 20
0.662706
 30
0.0
 10
6.487859
 20
0.662706
 30
0.0
 10
6.504120
 20
0.662706
 30
0.0
 10
6.642144
 20
0.662706
 30
0.0
 10
6.723393
 20
0.662706
 30
0.0
 10
6.658405
 20
0.573409
 30
0.0
 10
6.739599
 20
0.573409
 30
0.0
 10
6.894931
 20
0.776367
 30
0.0
 10
7.048169
 20
0.776367
 30
0.0
 10
6.966975
 20
0.662706
 30
0.0
 10
7.015703
 20
0.662706
 30
0.0
 10
7.056272
 20
0.662706
 30
0.0
 10
7.137466
 20
0.662706
 30
0.0
 10
7.153672
 20
0.662706
 30
0.0
 10
7.275546
 20
0.662706
 30
0.0
 10
7.372945
 20
0.662706
 30
0.0
 10
7.307957
 20
0.573409
 30
0.0
 10
7.389151
 20
0.573409
 30
0.0
 10
7.544484
 20
0.776367
 30
0.0
 10
7.697721
 20
0.776367
 30
0.0
 10
7.616527
 20
0.662706
 30
0.0
 10
7.665255
 20
0.662706
 30
0.0
 10
7.787018
 20
0.662706
 30
0.0
 10
7.787018
 20
0.881924
 30
0.0
 10
7.876370
 20
0.816991
 30
0.0
 10
7.876370
 20
0.898185
 30
0.0
 10
7.673357
 20
1.053573
 30
0.0
 10
7.673357
 20
1.206756
 30
0.0
 10
7.787018
 20
1.125562
 30
0.0
 10
7.787018
 20
1.174289
 30
0.0
 10
7.787018
 20
1.231119
 30
0.0
 10
7.787075
 20
1.231119
 30
0.0
 10
7.787075
 20
1.450338
 30
0.0
 10
7.787018
 20
1.450338
 30
0.0
 10
7.787018
 20
1.531532
 30
0.0
 10
7.876370
 20
1.466599
 30
0.0
 10
7.876370
 20
1.547792
 30
0.0
 10
7.673357
 20
1.703180
 30
0.0
 10
7.673357
 20
1.856363
 30
0.0
 10
7.787018
 20
1.775169
 30
0.0
 10
7.787018
 20
1.823896
 30
0.0
 10
7.787018
 20
1.945660
 30
0.0
 10
7.567800
 20
1.945660
 30
0.0
 10
7.632788
 20
2.035012
 30
0.0
 10
7.551539
 20
2.035012
 30
0.0
 10
7.396151
 20
1.831999
 30
0.0
 10
7.267388
 20
1.831999
 30
0.0
 10
7.267388
 20
1.554793
 30
0.0
 10
7.267388
 20
1.401610
 30
0.0
 10
7.153672
 20
1.482804
 30
0.0
 10
7.153672
 20
1.434132
 30
0.0
 10
7.153672
 20
1.312313
 30
0.0
 10
7.153728
 20
1.312313
 30
0.0
 10
7.153728
 20
1.296052
 30
0.0
 10
7.153672
 20
1.296052
 30
0.0
 10
7.137466
 20
1.296052
 30
0.0
 10
6.975078
 20
1.296052
 30
0.0
 10
6.918248
 20
1.296052
 30
0.0
 10
6.983236
 20
1.385405
 30
0.0
 10
6.901987
 20
1.385405
 30
0.0
 10
6.746599
 20
1.182392
 30
0.0
 10
6.593472
 20
1.182392
 30
0.0
 10
6.674666
 20
1.296052
 30
0.0
 10
6.625938
 20
1.296052
 30
0.0
 10
6.585314
 20
1.296052
 30
0.0
 10
6.504120
 20
1.296052
 30
0.0
 10
6.487859
 20
1.296052
 30
0.0
 10
6.487859
 20
1.312313
 30
0.0
 10
6.487859
 20
1.434132
 30
0.0
 10
6.487859
 20
1.531532
 30
0.0
 10
6.487859
 20
1.612781
 30
0.0
 10
6.475677
 20
1.625514
 30
0.0
 10
6.374198
 20
1.703180
 30
0.0
 10
6.374198
 20
1.945660
 30
0.0
 10
6.268641
 20
1.945660
 30
0.0
 10
6.333629
 20
2.035012
 30
0.0
 10
6.252380
 20
2.035012
 30
0.0
 10
6.252380
 20
2.035012
 30
0.0
  0
ENDSEC
  0
SECTION
  2
OBJECTS
  0
DICTIONARY
  5
C
330
0
100
AcDbDictionary
  3
ACAD_GROUP
350
D
  3
ACAD_MLINESTYLE
350
17
  0
DICTIONARY
  5
D
330
C
100
AcDbDictionary
  0
DICTIONARY
  5
1A
330
C
100
AcDbDictionary
  0
DICTIONARY
  5
17
330
C
100
AcDbDictionary
  3
STANDARD
350
18
  0
DICTIONARY
  5
19
330
C
100
AcDbDictionary
  0
ENDSEC
  0
EOF
