  0
SECTION
  2
HEADER
  9
$ACADVER
  1
AC1014
  9
$HANDSEED
  5
FFFF
  9
$MEASUREMENT
 70
     1
  0
ENDSEC
  0
SECTION
  2
TABLES
  0
TABLE
  2
VPORT
  5
8
330
0
100
AcDbSymbolTable
 70
     4
  0
VPORT
  5
2E
330
8
100
AcDbSymbolTableRecord
100
AcDbViewportTableRecord
  2
*ACTIVE
 70
     0
 10
0.0
 20
0.0
 11
1.0
 21
1.0
 12
210.0
 22
148.5
 13
0.0
 23
0.0
 14
10.0
 24
10.0
 15
10.0
 25
10.0
 16
0.0
 26
0.0
 36
1.0
 17
0.0
 27
0.0
 37
0.0
 40
341.0
 41
1.24
 42
50.0
 43
0.0
 44
0.0
 50
0.0
 51
0.0
 71
     0
 72
   100
 73
     1
 74
     3
 75
     0
 76
     0
 77
     0
 78
     0
  0
ENDTAB
  0
TABLE
  2
LTYPE
  5
5
330
0
100
AcDbSymbolTable
 70
     1
  0
LTYPE
  5
14
330
5
100
AcDbSymbolTableRecord
100
AcDbLinetypeTableRecord
  2
BYBLOCK
 70
     0
  3

 72
    65
 73
     0
 40
0.0
  0
LTYPE
  5
15
330
5
100
AcDbSymbolTableRecord
100
AcDbLinetypeTableRecord
  2
BYLAYER
 70
     0
  3

 72
    65
 73
     0
 40
0.0
  0
LTYPE
  5
16
330
5
100
AcDbSymbolTableRecord
100
AcDbLinetypeTableRecord
  2
CONTINUOUS
 70
     0
  3
Solid line
 72
    65
 73
     0
 40
0.0
  0
ENDTAB
  0
TABLE
  2
LAYER
  5
2
100
AcDbSymbolTable
 70
2
  0
LAYER
  5
50
100
AcDbSymbolTableRecord
100
AcDbLayerTableRecord
  2
0
 70
0
  6
CONTINUOUS
  0
LAYER
  5
51
100
AcDbSymbolTableRecord
100
AcDbLayerTableRecord
  2
Layer_1
 70
0
  6
CONTINUOUS
  0
ENDTAB
  0
TABLE
  2
STYLE
  5
3
330
0
100
AcDbSymbolTable
 70
     1
  0
STYLE
  5
11
330
3
100
AcDbSymbolTableRecord
100
AcDbTextStyleTableRecord
  2
STANDARD
 70
     0
 40
0.0
 41
1.0
 50
0.0
 71
     0
 42
2.5
  3
txt
  4

  0
ENDTAB
  0
TABLE
  2
VIEW
  5
6
330
0
100
AcDbSymbolTable
 70
     0
  0
ENDTAB
  0
TABLE
  2
UCS
  5
7
330
0
100
AcDbSymbolTable
 70
     0
  0
ENDTAB
  0
TABLE
  2
APPID
  5
9
330
0
100
AcDbSymbolTable
 70
     2
  0
APPID
  5
12
330
9
100
AcDbSymbolTableRecord
100
AcDbRegAppTableRecord
  2
ACAD
 70
     0
  0
ENDTAB
  0
TABLE
  2
DIMSTYLE
  5
A
330
0
100
AcDbSymbolTable
 70
     1
  0
DIMSTYLE
105
27
330
A
100
AcDbSymbolTableRecord
100
AcDbDimStyleTableRecord
  2
ISO-25
 70
     0
  3

  4

  5

  6

  7

 40
1.0
 41
2.5
 42
0.625
 43
3.75
 44
1.25
 45
0.0
 46
0.0
 47
0.0
 48
0.0
140
2.5
141
2.5
142
0.0
143
0.03937007874016
144
1.0
145
0.0
146
1.0
147
0.625
 71
     0
 72
     0
 73
     0
 74
     0
 75
     0
 76
     0
 77
     1
 78
     8
170
     0
171
     3
172
     1
173
     0
174
     0
175
     0
176
     0
177
     0
178
     0
270
     2
271
     2
272
     2
273
     2
274
     3
340
11
275
     0
280
     0
281
     0
282
     0
283
     0
284
     8
285
     0
286
     0
287
     3
288
     0
  0
ENDTAB
  0
TABLE
  2
BLOCK_RECORD
  5
1
330
0
100
AcDbSymbolTable
 70
     1
  0
BLOCK_RECORD
  5
1F
330
1
100
AcDbSymbolTableRecord
100
AcDbBlockTableRecord
  2
*MODEL_SPACE
  0
BLOCK_RECORD
  5
1B
330
1
100
AcDbSymbolTableRecord
100
AcDbBlockTableRecord
  2
*PAPER_SPACE
  0
ENDTAB
  0
ENDSEC
  0
SECTION
  2
BLOCKS
  0
BLOCK
  5
20
330
1F
100
AcDbEntity
  8
0
100
AcDbBlockBegin
  2
*MODEL_SPACE
 70
     0
 10
0.0
 20
0.0
 30
0.0
  3
*MODEL_SPACE
  1

  0
ENDBLK
  5
21
330
1F
100
AcDbEntity
  8
0
100
AcDbBlockEnd
  0
BLOCK
  5
1C
330
1B
100
AcDbEntity
 67
     1
  8
0
100
AcDbBlockBegin
  2
*PAPER_SPACE
  1

  0
ENDBLK
  5
1D
330
1B
100
AcDbEntity
 67
     1
  8
0
100
AcDbBlockEnd
  0
ENDSEC
  0
SECTION
  2
ENTITIES
  0
LWPOLYLINE
  5
100
100
AcDbEntity
  8
Layer_1
 62
7
100
AcDbPolyline
 90
7
 70
1
 10
11.050000
 20
8.450000
 30
0.0
 10
11.050000
 20
7.699996
 30
0.0
 10
11.028750
 20
7.699996
 30
0.0
 10
11.028750
 20
8.428711
 30
0.0
 10
10.299993
 20
8.428711
 30
0.0
 10
10.299993
 20
8.450000
 30
0.0
 10
11.050000
 20
8.450000
 30
0.0
  0
LWPOLYLINE
  5
101
100
AcDbEntity
  8
Layer_1
 62
7
100
AcDbPolyline
 90
8
 70
1
 10
0.750004
 20
8.450000
 30
0.0
 10
0.750004
 20
8.428711
 30
0.0
 10
0.021249
 20
8.428711
 30
0.0
 10
0.021249
 20
7.699995
 30
0.0
 10
0.000000
 20
7.699995
 30
0.0
 10
0.000000
 20
8.439334
 30
0.0
 10
0.000000
 20
8.450000
 30
0.0
 10
0.750004
 20
8.450000
 30
0.0
  0
LWPOLYLINE
  5
102
100
AcDbEntity
  8
Layer_1
 62
7
100
AcDbPolyline
 90
7
 70
1
 10
0.021249
 20
0.599978
 30
0.0
 10
0.021249
 20
0.021248
 30
0.0
 10
0.750004
 20
0.021248
 30
0.0
 10
0.750004
 20
-0.000000
 30
0.0
 10
0.000000
 20
-0.000000
 30
0.0
 10
0.000000
 20
0.599978
 30
0.0
 10
0.021249
 20
0.599978
 30
0.0
  0
LWPOLYLINE
  5
103
100
AcDbEntity
  8
Layer_1
 62
7
100
AcDbPolyline
 90
7
 70
1
 10
11.050000
 20
0.599978
 30
0.0
 10
11.050000
 20
-0.000000
 30
0.0
 10
10.299994
 20
-0.000000
 30
0.0
 10
10.299994
 20
0.021248
 30
0.0
 10
11.028751
 20
0.021248
 30
0.0
 10
11.028751
 20
0.599978
 30
0.0
 10
11.050000
 20
0.599978
 30
0.0
  0
LWPOLYLINE
  5
104
100
AcDbEntity
  8
Layer_1
 62
7
100
AcDbPolyline
 90
21
 70
1
 10
1.105003
 20
5.980037
 30
0.0
 10
0.909984
 20
5.655040
 30
0.0
 10
0.714972
 20
5.655012
 30
0.0
 10
0.650031
 20
5.785020
 30
0.0
 10
0.519944
 20
5.719977
 30
0.0
 10
0.519944
 20
5.655044
 30
0.0
 10
0.844940
 20
5.460024
 30
0.0
 10
0.844968
 20
5.265012
 30
0.0
 10
0.714960
 20
5.200071
 30
0.0
 10
0.780004
 20
5.069984
 30
0.0
 10
0.844968
 20
5.070012
 30
0.0
 10
1.039969
 20
5.395012
 30
0.0
 10
1.234968
 20
5.395012
 30
0.0
 10
1.300020
 20
5.265004
 30
0.0
 10
1.429997
 20
5.330047
 30
0.0
 10
1.429997
 20
5.394980
 30
0.0
 10
1.105000
 20
5.590000
 30
0.0
 10
1.104972
 20
5.785012
 30
0.0
 10
1.234980
 20
5.850064
 30
0.0
 10
1.169936
 20
5.980040
 30
0.0
 10
1.105003
 20
5.980037
 30
0.0
  0
LWPOLYLINE
  5
105
100
AcDbEntity
  8
Layer_1
 62
7
100
AcDbPolyline
 90
21
 70
1
 10
1.755033
 20
5.980025
 30
0.0
 10
1.560014
 20
5.655028
 30
0.0
 10
1.365001
 20
5.655000
 30
0.0
 10
1.300060
 20
5.785008
 30
0.0
 10
1.169973
 20
5.719965
 30
0.0
 10
1.169973
 20
5.655032
 30
0.0
 10
1.494970
 20
5.460012
 30
0.0
 10
1.494998
 20
5.265000
 30
0.0
 10
1.364990
 20
5.200058
 30
0.0
 10
1.430033
 20
5.069971
 30
0.0
 10
1.494998
 20
5.070000
 30
0.0
 10
1.689998
 20
5.395000
 30
0.0
 10
1.884998
 20
5.395000
 30
0.0
 10
1.950050
 20
5.264992
 30
0.0
 10
2.080027
 20
5.330035
 30
0.0
 10
2.080027
 20
5.394968
 30
0.0
 10
1.755030
 20
5.589988
 30
0.0
 10
1.755001
 20
5.785000
 30
0.0
 10
1.885010
 20
5.850052
 30
0.0
 10
1.819966
 20
5.980028
 30
0.0
 10
1.755033
 20
5.980025
 30
0.0
  0
LWPOLYLINE
  5
106
100
AcDbEntity
  8
Layer_1
 62
7
100
AcDbPolyline
 90
21
 70
1
 10
1.105033
 20
5.330025
 30
0.0
 10
0.910013
 20
5.005028
 30
0.0
 10
0.715001
 20
5.005000
 30
0.0
 10
0.650060
 20
5.135008
 30
0.0
 10
0.519973
 20
5.069965
 30
0.0
 10
0.519973
 20
5.005032
 30
0.0
 10
0.844970
 20
4.810012
 30
0.0
 10
0.844998
 20
4.615000
 30
0.0
 10
0.714990
 20
4.550059
 30
0.0
 10
0.780033
 20
4.419972
 30
0.0
 10
0.844998
 20
4.420000
 30
0.0
 10
1.039998
 20
4.745000
 30
0.0
 10
1.234998
 20
4.745000
 30
0.0
 10
1.300050
 20
4.614992
 30
0.0
 10
1.430026
 20
4.680035
 30
0.0
 10
1.430026
 20
4.744968
 30
0.0
 10
1.105030
 20
4.939988
 30
0.0
 10
1.105001
 20
5.135000
 30
0.0
 10
1.235010
 20
5.200052
 30
0.0
 10
1.169966
 20
5.330028
 30
0.0
 10
1.105033
 20
5.330025
 30
0.0
  0
LWPOLYLINE
  5
107
100
AcDbEntity
  8
Layer_1
 62
7
100
AcDbPolyline
 90
21
 70
1
 10
1.105033
 20
4.680025
 30
0.0
 10
0.910013
 20
4.355028
 30
0.0
 10
0.715001
 20
4.355000
 30
0.0
 10
0.650060
 20
4.485008
 30
0.0
 10
0.519973
 20
4.419965
 30
0.0
 10
0.519973
 20
4.355032
 30
0.0
 10
0.844970
 20
4.160012
 30
0.0
 10
0.844998
 20
3.965000
 30
0.0
 10
0.714990
 20
3.900058
 30
0.0
 10
0.780033
 20
3.769972
 30
0.0
 10
0.844998
 20
3.770000
 30
0.0
 10
1.039998
 20
4.095000
 30
0.0
 10
1.234998
 20
4.095000
 30
0.0
 10
1.300050
 20
3.964992
 30
0.0
 10
1.430026
 20
4.030035
 30
0.0
 10
1.430026
 20
4.094968
 30
0.0
 10
1.105030
 20
4.289988
 30
0.0
 10
1.105001
 20
4.485000
 30
0.0
 10
1.235010
 20
4.550052
 30
0.0
 10
1.169966
 20
4.680028
 30
0.0
 10
1.105033
 20
4.680025
 30
0.0
  0
LWPOLYLINE
  5
108
100
AcDbEntity
  8
Layer_1
 62
7
100
AcDbPolyline
 90
21
 70
1
 10
1.105033
 20
4.030025
 30
0.0
 10
0.910013
 20
3.705028
 30
0.0
 10
0.715001
 20
3.705000
 30
0.0
 10
0.650060
 20
3.835008
 30
0.0
 10
0.519973
 20
3.769965
 30
0.0
 10
0.519973
 20
3.705032
 30
0.0
 10
0.844970
 20
3.510012
 30
0.0
 10
0.844998
 20
3.315000
 30
0.0
 10
0.714990
 20
3.250058
 30
0.0
 10
0.780033
 20
3.119971
 30
0.0
 10
0.844998
 20
3.120000
 30
0.0
 10
1.039998
 20
3.445000
 30
0.0
 10
1.234998
 20
3.445000
 30
0.0
 10
1.300050
 20
3.314992
 30
0.0
 10
1.430026
 20
3.380035
 30
0.0
 10
1.430026
 20
3.444968
 30
0.0
 10
1.105030
 20
3.639988
 30
0.0
 10
1.105001
 20
3.835000
 30
0.0
 10
1.235010
 20
3.900052
 30
0.0
 10
1.169966
 20
4.030028
 30
0.0
 10
1.105033
 20
4.030025
 30
0.0
  0
LWPOLYLINE
  5
109
100
AcDbEntity
  8
Layer_1
 62
7
100
AcDbPolyline
 90
21
 70
1
 10
2.405033
 20
4.030025
 30
0.0
 10
2.210013
 20
3.705028
 30
0.0
 10
2.015001
 20
3.705000
 30
0.0
 10
1.950060
 20
3.835008
 30
0.0
 10
1.819973
 20
3.769965
 30
0.0
 10
1.819973
 20
3.705032
 30
0.0
 10
2.144970
 20
3.510012
 30
0.0
 10
2.144998
 20
3.315000
 30
0.0
 10
2.014990
 20
3.250058
 30
0.0
 10
2.080033
 20
3.119971
 30
0.0
 10
2.144998
 20
3.120000
 30
0.0
 10
2.339998
 20
3.445000
 30
0.0
 10
2.534998
 20
3.445000
 30
0.0
 10
2.600050
 20
3.314992
 30
0.0
 10
2.730026
 20
3.380035
 30
0.0
 10
2.730026
 20
3.444968
 30
0.0
 10
2.405029
 20
3.639988
 30
0.0
 10
2.405001
 20
3.835000
 30
0.0
 10
2.535009
 20
3.900052
 30
0.0
 10
2.469966
 20
4.030028
 30
0.0
 10
2.405033
 20
4.030025
 30
0.0
  0
LWPOLYLINE
  5
10a
100
AcDbEntity
  8
Layer_1
 62
7
100
AcDbPolyline
 90
21
 70
1
 10
2.405033
 20
4.680025
 30
0.0
 10
2.210013
 20
4.355028
 30
0.0
 10
2.015001
 20
4.355000
 30
0.0
 10
1.950060
 20
4.485008
 30
0.0
 10
1.819973
 20
4.419965
 30
0.0
 10
1.819973
 20
4.355032
 30
0.0
 10
2.144970
 20
4.160012
 30
0.0
 10
2.144998
 20
3.965000
 30
0.0
 10
2.014990
 20
3.900058
 30
0.0
 10
2.080033
 20
3.769972
 30
0.0
 10
2.144998
 20
3.770000
 30
0.0
 10
2.339998
 20
4.095000
 30
0.0
 10
2.534998
 20
4.095000
 30
0.0
 10
2.600050
 20
3.964992
 30
0.0
 10
2.730026
 20
4.030035
 30
0.0
 10
2.730026
 20
4.094968
 30
0.0
 10
2.405029
 20
4.289988
 30
0.0
 10
2.405001
 20
4.485000
 30
0.0
 10
2.535009
 20
4.550052
 30
0.0
 10
2.469966
 20
4.680028
 30
0.0
 10
2.405033
 20
4.680025
 30
0.0
  0
LWPOLYLINE
  5
10b
100
AcDbEntity
  8
Layer_1
 62
7
100
AcDbPolyline
 90
21
 70
1
 10
3.055033
 20
4.680025
 30
0.0
 10
2.860013
 20
4.355028
 30
0.0
 10
2.665001
 20
4.355000
 30
0.0
 10
2.600060
 20
4.485008
 30
0.0
 10
2.469973
 20
4.419965
 30
0.0
 10
2.469973
 20
4.355032
 30
0.0
 10
2.794970
 20
4.160012
 30
0.0
 10
2.794998
 20
3.965000
 30
0.0
 10
2.664990
 20
3.900058
 30
0.0
 10
2.730033
 20
3.769972
 30
0.0
 10
2.794998
 20
3.770000
 30
0.0
 10
2.989998
 20
4.095000
 30
0.0
 10
3.184998
 20
4.095000
 30
0.0
 10
3.250050
 20
3.964992
 30
0.0
 10
3.380027
 20
4.030035
 30
0.0
 10
3.380027
 20
4.094968
 30
0.0
 10
3.055030
 20
4.289988
 30
0.0
 10
3.055001
 20
4.485000
 30
0.0
 10
3.185010
 20
4.550052
 30
0.0
 10
3.119966
 20
4.680028
 30
0.0
 10
3.055033
 20
4.680025
 30
0.0
  0
LWPOLYLINE
  5
10c
100
AcDbEntity
  8
Layer_1
 62
7
100
AcDbPolyline
 90
21
 70
1
 10
3.705033
 20
4.680025
 30
0.0
 10
3.510013
 20
4.355028
 30
0.0
 10
3.315001
 20
4.355000
 30
0.0
 10
3.250060
 20
4.485008
 30
0.0
 10
3.119973
 20
4.419965
 30
0.0
 10
3.119973
 20
4.355032
 30
0.0
 10
3.444970
 20
4.160012
 30
0.0
 10
3.444998
 20
3.965000
 30
0.0
 10
3.314990
 20
3.900058
 30
0.0
 10
3.380033
 20
3.769972
 30
0.0
 10
3.444998
 20
3.770000
 30
0.0
 10
3.639998
 20
4.095000
 30
0.0
 10
3.834998
 20
4.095000
 30
0.0
 10
3.900049
 20
3.964992
 30
0.0
 10
4.030026
 20
4.030035
 30
0.0
 10
4.030026
 20
4.094968
 30
0.0
 10
3.705029
 20
4.289988
 30
0.0
 10
3.705001
 20
4.485000
 30
0.0
 10
3.835009
 20
4.550052
 30
0.0
 10
3.769966
 20
4.680028
 30
0.0
 10
3.705033
 20
4.680025
 30
0.0
  0
LWPOLYLINE
  5
10d
100
AcDbEntity
  8
Layer_1
 62
7
100
AcDbPolyline
 90
21
 70
1
 10
3.705033
 20
5.330025
 30
0.0
 10
3.510013
 20
5.005028
 30
0.0
 10
3.315001
 20
5.005000
 30
0.0
 10
3.250060
 20
5.135008
 30
0.0
 10
3.119973
 20
5.069965
 30
0.0
 10
3.119973
 20
5.005032
 30
0.0
 10
3.444970
 20
4.810012
 30
0.0
 10
3.444998
 20
4.615000
 30
0.0
 10
3.314990
 20
4.550059
 30
0.0
 10
3.380033
 20
4.419972
 30
0.0
 10
3.444998
 20
4.420000
 30
0.0
 10
3.639998
 20
4.745000
 30
0.0
 10
3.834998
 20
4.745000
 30
0.0
 10
3.900049
 20
4.614992
 30
0.0
 10
4.030026
 20
4.680035
 30
0.0
 10
4.030026
 20
4.744968
 30
0.0
 10
3.705029
 20
4.939988
 30
0.0
 10
3.705001
 20
5.135000
 30
0.0
 10
3.835009
 20
5.200052
 30
0.0
 10
3.769966
 20
5.330028
 30
0.0
 10
3.705033
 20
5.330025
 30
0.0
  0
LWPOLYLINE
  5
10e
100
AcDbEntity
  8
Layer_1
 62
7
100
AcDbPolyline
 90
21
 70
1
 10
5.005033
 20
7.930025
 30
0.0
 10
4.810013
 20
7.605028
 30
0.0
 10
4.615001
 20
7.605000
 30
0.0
 10
4.550060
 20
7.735008
 30
0.0
 10
4.419973
 20
7.669965
 30
0.0
 10
4.419973
 20
7.605032
 30
0.0
 10
4.744969
 20
7.410012
 30
0.0
 10
4.744998
 20
7.215000
 30
0.0
 10
4.614990
 20
7.150058
 30
0.0
 10
4.680033
 20
7.019972
 30
0.0
 10
4.744998
 20
7.020000
 30
0.0
 10
4.939998
 20
7.345000
 30
0.0
 10
5.134998
 20
7.345000
 30
0.0
 10
5.200049
 20
7.214992
 30
0.0
 10
5.330026
 20
7.280035
 30
0.0
 10
5.330026
 20
7.344968
 30
0.0
 10
5.005029
 20
7.539988
 30
0.0
 10
5.005001
 20
7.735000
 30
0.0
 10
5.135009
 20
7.800052
 30
0.0
 10
5.069966
 20
7.930028
 30
0.0
 10
5.005033
 20
7.930025
 30
0.0
  0
LWPOLYLINE
  5
10f
100
AcDbEntity
  8
Layer_1
 62
7
100
AcDbPolyline
 90
21
 70
1
 10
5.005033
 20
7.280025
 30
0.0
 10
4.810013
 20
6.955028
 30
0.0
 10
4.615001
 20
6.955000
 30
0.0
 10
4.550060
 20
7.085008
 30
0.0
 10
4.419973
 20
7.019965
 30
0.0
 10
4.419973
 20
6.955032
 30
0.0
 10
4.744969
 20
6.760012
 30
0.0
 10
4.744998
 20
6.565000
 30
0.0
 10
4.614990
 20
6.500058
 30
0.0
 10
4.680033
 20
6.369971
 30
0.0
 10
4.744998
 20
6.370000
 30
0.0
 10
4.939998
 20
6.695000
 30
0.0
 10
5.134998
 20
6.695000
 30
0.0
 10
5.200049
 20
6.564991
 30
0.0
 10
5.330026
 20
6.630035
 30
0.0
 10
5.330026
 20
6.694968
 30
0.0
 10
5.005029
 20
6.889988
 30
0.0
 10
5.005001
 20
7.085000
 30
0.0
 10
5.135009
 20
7.150052
 30
0.0
 10
5.069966
 20
7.280028
 30
0.0
 10
5.005033
 20
7.280025
 30
0.0
  0
LWPOLYLINE
  5
110
100
AcDbEntity
  8
Layer_1
 62
7
100
AcDbPolyline
 90
21
 70
1
 10
5.005033
 20
6.630025
 30
0.0
 10
4.810013
 20
6.305028
 30
0.0
 10
4.615001
 20
6.305000
 30
0.0
 10
4.550060
 20
6.435008
 30
0.0
 10
4.419973
 20
6.369965
 30
0.0
 10
4.419973
 20
6.305032
 30
0.0
 10
4.744969
 20
6.110012
 30
0.0
 10
4.744998
 20
5.915000
 30
0.0
 10
4.614990
 20
5.850059
 30
0.0
 10
4.680033
 20
5.719972
 30
0.0
 10
4.744998
 20
5.720000
 30
0.0
 10
4.939998
 20
6.045000
 30
0.0
 10
5.134998
 20
6.045000
 30
0.0
 10
5.200049
 20
5.914992
 30
0.0
 10
5.330026
 20
5.980035
 30
0.0
 10
5.330026
 20
6.044968
 30
0.0
 10
5.005029
 20
6.239988
 30
0.0
 10
5.005001
 20
6.435000
 30
0.0
 10
5.135009
 20
6.500052
 30
0.0
 10
5.069966
 20
6.630028
 30
0.0
 10
5.005033
 20
6.630025
 30
0.0
  0
LWPOLYLINE
  5
111
100
AcDbEntity
  8
Layer_1
 62
7
100
AcDbPolyline
 90
21
 70
1
 10
5.005019
 20
5.979996
 30
0.0
 10
4.810000
 20
5.655000
 30
0.0
 10
4.614988
 20
5.654972
 30
0.0
 10
4.550046
 20
5.784980
 30
0.0
 10
4.419960
 20
5.719936
 30
0.0
 10
4.419960
 20
5.655003
 30
0.0
 10
4.744956
 20
5.459983
 30
0.0
 10
4.744984
 20
5.264972
 30
0.0
 10
4.614976
 20
5.200030
 30
0.0
 10
4.680019
 20
5.069943
 30
0.0
 10
4.744984
 20
5.069971
 30
0.0
 10
4.939984
 20
5.394972
 30
0.0
 10
5.134984
 20
5.394972
 30
0.0
 10
5.200036
 20
5.264963
 30
0.0
 10
5.330013
 20
5.330006
 30
0.0
 10
5.330013
 20
5.394939
 30
0.0
 10
5.005016
 20
5.589959
 30
0.0
 10
5.004988
 20
5.784972
 30
0.0
 10
5.134996
 20
5.850023
 30
0.0
 10
5.069952
 20
5.980000
 30
0.0
 10
5.005019
 20
5.979996
 30
0.0
  0
LWPOLYLINE
  5
112
100
AcDbEntity
  8
Layer_1
 62
7
100
AcDbPolyline
 90
21
 70
1
 10
5.005033
 20
5.330025
 30
0.0
 10
4.810013
 20
5.005028
 30
0.0
 10
4.615001
 20
5.005000
 30
0.0
 10
4.550060
 20
5.135008
 30
0.0
 10
4.419973
 20
5.069965
 30
0.0
 10
4.419973
 20
5.005032
 30
0.0
 10
4.744969
 20
4.810012
 30
0.0
 10
4.744998
 20
4.615000
 30
0.0
 10
4.614990
 20
4.550059
 30
0.0
 10
4.680033
 20
4.419972
 30
0.0
 10
4.744998
 20
4.420000
 30
0.0
 10
4.939998
 20
4.745000
 30
0.0
 10
5.134998
 20
4.745000
 30
0.0
 10
5.200049
 20
4.614992
 30
0.0
 10
5.330026
 20
4.680035
 30
0.0
 10
5.330026
 20
4.744968
 30
0.0
 10
5.005029
 20
4.939988
 30
0.0
 10
5.005001
 20
5.135000
 30
0.0
 10
5.135009
 20
5.200052
 30
0.0
 10
5.069966
 20
5.330028
 30
0.0
 10
5.005033
 20
5.330025
 30
0.0
  0
LWPOLYLINE
  5
113
100
AcDbEntity
  8
Layer_1
 62
7
100
AcDbPolyline
 90
21
 70
1
 10
6.305033
 20
7.930025
 30
0.0
 10
6.110013
 20
7.605028
 30
0.0
 10
5.915001
 20
7.605000
 30
0.0
 10
5.850060
 20
7.735008
 30
0.0
 10
5.719973
 20
7.669965
 30
0.0
 10
5.719973
 20
7.605032
 30
0.0
 10
6.044969
 20
7.410012
 30
0.0
 10
6.044998
 20
7.215000
 30
0.0
 10
5.914990
 20
7.150058
 30
0.0
 10
5.980033
 20
7.019972
 30
0.0
 10
6.044998
 20
7.020000
 30
0.0
 10
6.239998
 20
7.345000
 30
0.0
 10
6.434998
 20
7.345000
 30
0.0
 10
6.500049
 20
7.214992
 30
0.0
 10
6.630026
 20
7.280035
 30
0.0
 10
6.630026
 20
7.344968
 30
0.0
 10
6.305029
 20
7.539988
 30
0.0
 10
6.305001
 20
7.735000
 30
0.0
 10
6.435009
 20
7.800052
 30
0.0
 10
6.369966
 20
7.930028
 30
0.0
 10
6.305033
 20
7.930025
 30
0.0
  0
LWPOLYLINE
  5
114
100
AcDbEntity
  8
Layer_1
 62
7
100
AcDbPolyline
 90
21
 70
1
 10
6.955033
 20
7.930025
 30
0.0
 10
6.760013
 20
7.605028
 30
0.0
 10
6.565001
 20
7.605000
 30
0.0
 10
6.500060
 20
7.735008
 30
0.0
 10
6.369973
 20
7.669965
 30
0.0
 10
6.369973
 20
7.605032
 30
0.0
 10
6.694970
 20
7.410012
 30
0.0
 10
6.694998
 20
7.215000
 30
0.0
 10
6.564990
 20
7.150058
 30
0.0
 10
6.630033
 20
7.019972
 30
0.0
 10
6.694998
 20
7.020000
 30
0.0
 10
6.889998
 20
7.345000
 30
0.0
 10
7.084998
 20
7.345000
 30
0.0
 10
7.150049
 20
7.214992
 30
0.0
 10
7.280026
 20
7.280035
 30
0.0
 10
7.280026
 20
7.344968
 30
0.0
 10
6.955029
 20
7.539988
 30
0.0
 10
6.955001
 20
7.735000
 30
0.0
 10
7.085009
 20
7.800052
 30
0.0
 10
7.019966
 20
7.930028
 30
0.0
 10
6.955033
 20
7.930025
 30
0.0
  0
LWPOLYLINE
  5
115
100
AcDbEntity
  8
Layer_1
 62
7
100
AcDbPolyline
 90
21
 70
1
 10
7.605033
 20
7.930025
 30
0.0
 10
7.410013
 20
7.605028
 30
0.0
 10
7.215001
 20
7.605000
 30
0.0
 10
7.150060
 20
7.735008
 30
0.0
 10
7.019973
 20
7.669965
 30
0.0
 10
7.019973
 20
7.605032
 30
0.0
 10
7.344970
 20
7.410012
 30
0.0
 10
7.344998
 20
7.215000
 30
0.0
 10
7.214990
 20
7.150058
 30
0.0
 10
7.280033
 20
7.019972
 30
0.0
 10
7.344998
 20
7.020000
 30
0.0
 10
7.539998
 20
7.345000
 30
0.0
 10
7.734998
 20
7.345000
 30
0.0
 10
7.800050
 20
7.214992
 30
0.0
 10
7.930026
 20
7.280035
 30
0.0
 10
7.930026
 20
7.344968
 30
0.0
 10
7.605030
 20
7.539988
 30
0.0
 10
7.605001
 20
7.735000
 30
0.0
 10
7.735010
 20
7.800052
 30
0.0
 10
7.669966
 20
7.930028
 30
0.0
 10
7.605033
 20
7.930025
 30
0.0
  0
LWPOLYLINE
  5
116
100
AcDbEntity
  8
Layer_1
 62
7
100
AcDbPolyline
 90
21
 70
1
 10
6.305033
 20
7.280025
 30
0.0
 10
6.110013
 20
6.955028
 30
0.0
 10
5.915001
 20
6.955000
 30
0.0
 10
5.850060
 20
7.085008
 30
0.0
 10
5.719973
 20
7.019965
 30
0.0
 10
5.719973
 20
6.955032
 30
0.0
 10
6.044969
 20
6.760012
 30
0.0
 10
6.044998
 20
6.565000
 30
0.0
 10
5.914990
 20
6.500058
 30
0.0
 10
5.980033
 20
6.369971
 30
0.0
 10
6.044998
 20
6.370000
 30
0.0
 10
6.239998
 20
6.695000
 30
0.0
 10
6.434998
 20
6.695000
 30
0.0
 10
6.500049
 20
6.564991
 30
0.0
 10
6.630026
 20
6.630035
 30
0.0
 10
6.630026
 20
6.694968
 30
0.0
 10
6.305029
 20
6.889988
 30
0.0
 10
6.305001
 20
7.085000
 30
0.0
 10
6.435009
 20
7.150052
 30
0.0
 10
6.369966
 20
7.280028
 30
0.0
 10
6.305033
 20
7.280025
 30
0.0
  0
LWPOLYLINE
  5
117
100
AcDbEntity
  8
Layer_1
 62
7
100
AcDbPolyline
 90
21
 70
1
 10
6.305033
 20
6.630025
 30
0.0
 10
6.110013
 20
6.305028
 30
0.0
 10
5.915001
 20
6.305000
 30
0.0
 10
5.850060
 20
6.435008
 30
0.0
 10
5.719973
 20
6.369965
 30
0.0
 10
5.719973
 20
6.305032
 30
0.0
 10
6.044969
 20
6.110012
 30
0.0
 10
6.044998
 20
5.915000
 30
0.0
 10
5.914990
 20
5.850059
 30
0.0
 10
5.980033
 20
5.719972
 30
0.0
 10
6.044998
 20
5.720000
 30
0.0
 10
6.239998
 20
6.045000
 30
0.0
 10
6.434998
 20
6.045000
 30
0.0
 10
6.500049
 20
5.914992
 30
0.0
 10
6.630026
 20
5.980035
 30
0.0
 10
6.630026
 20
6.044968
 30
0.0
 10
6.305029
 20
6.239988
 30
0.0
 10
6.305001
 20
6.435000
 30
0.0
 10
6.435009
 20
6.500052
 30
0.0
 10
6.369966
 20
6.630028
 30
0.0
 10
6.305033
 20
6.630025
 30
0.0
  0
LWPOLYLINE
  5
118
100
AcDbEntity
  8
Layer_1
 62
7
100
AcDbPolyline
 90
21
 70
1
 10
7.605033
 20
6.630025
 30
0.0
 10
7.410013
 20
6.305028
 30
0.0
 10
7.215001
 20
6.305000
 30
0.0
 10
7.150060
 20
6.435008
 30
0.0
 10
7.019973
 20
6.369965
 30
0.0
 10
7.019973
 20
6.305032
 30
0.0
 10
7.344970
 20
6.110012
 30
0.0
 10
7.344998
 20
5.915000
 30
0.0
 10
7.214990
 20
5.850059
 30
0.0
 10
7.280033
 20
5.719972
 30
0.0
 10
7.344998
 20
5.720000
 30
0.0
 10
7.539998
 20
6.045000
 30
0.0
 10
7.734998
 20
6.045000
 30
0.0
 10
7.800050
 20
5.914992
 30
0.0
 10
7.930026
 20
5.980035
 30
0.0
 10
7.930026
 20
6.044968
 30
0.0
 10
7.605030
 20
6.239988
 30
0.0
 10
7.605001
 20
6.435000
 30
0.0
 10
7.735010
 20
6.500052
 30
0.0
 10
7.669966
 20
6.630028
 30
0.0
 10
7.605033
 20
6.630025
 30
0.0
  0
LWPOLYLINE
  5
119
100
AcDbEntity
  8
Layer_1
 62
7
100
AcDbPolyline
 90
21
 70
1
 10
8.255033
 20
6.630025
 30
0.0
 10
8.060013
 20
6.305028
 30
0.0
 10
7.865001
 20
6.305000
 30
0.0
 10
7.800060
 20
6.435008
 30
0.0
 10
7.669973
 20
6.369965
 30
0.0
 10
7.669973
 20
6.305032
 30
0.0
 10
7.994969
 20
6.110012
 30
0.0
 10
7.994998
 20
5.915000
 30
0.0
 10
7.864990
 20
5.850059
 30
0.0
 10
7.930033
 20
5.719972
 30
0.0
 10
7.994998
 20
5.720000
 30
0.0
 10
8.189998
 20
6.045000
 30
0.0
 10
8.384998
 20
6.045000
 30
0.0
 10
8.450049
 20
5.914992
 30
0.0
 10
8.580026
 20
5.980035
 30
0.0
 10
8.580026
 20
6.044968
 30
0.0
 10
8.255029
 20
6.239988
 30
0.0
 10
8.255001
 20
6.435000
 30
0.0
 10
8.385009
 20
6.500052
 30
0.0
 10
8.319966
 20
6.630028
 30
0.0
 10
8.255033
 20
6.630025
 30
0.0
  0
LWPOLYLINE
  5
11a
100
AcDbEntity
  8
Layer_1
 62
7
100
AcDbPolyline
 90
21
 70
1
 10
8.905033
 20
7.280025
 30
0.0
 10
8.710013
 20
6.955028
 30
0.0
 10
8.515001
 20
6.955000
 30
0.0
 10
8.450060
 20
7.085008
 30
0.0
 10
8.319973
 20
7.019965
 30
0.0
 10
8.319973
 20
6.955032
 30
0.0
 10
8.644970
 20
6.760012
 30
0.0
 10
8.644998
 20
6.565000
 30
0.0
 10
8.514990
 20
6.500058
 30
0.0
 10
8.580033
 20
6.369971
 30
0.0
 10
8.644998
 20
6.370000
 30
0.0
 10
8.839998
 20
6.695000
 30
0.0
 10
9.034998
 20
6.695000
 30
0.0
 10
9.100050
 20
6.564991
 30
0.0
 10
9.230026
 20
6.630035
 30
0.0
 10
9.230026
 20
6.694968
 30
0.0
 10
8.905029
 20
6.889988
 30
0.0
 10
8.905001
 20
7.085000
 30
0.0
 10
9.035009
 20
7.150052
 30
0.0
 10
8.969966
 20
7.280028
 30
0.0
 10
8.905033
 20
7.280025
 30
0.0
  0
LWPOLYLINE
  5
11b
100
AcDbEntity
  8
Layer_1
 62
7
100
AcDbPolyline
 90
21
 70
1
 10
8.905033
 20
6.630025
 30
0.0
 10
8.710013
 20
6.305028
 30
0.0
 10
8.515001
 20
6.305000
 30
0.0
 10
8.450060
 20
6.435008
 30
0.0
 10
8.319973
 20
6.369965
 30
0.0
 10
8.319973
 20
6.305032
 30
0.0
 10
8.644970
 20
6.110012
 30
0.0
 10
8.644998
 20
5.915000
 30
0.0
 10
8.514990
 20
5.850059
 30
0.0
 10
8.580033
 20
5.719972
 30
0.0
 10
8.644998
 20
5.720000
 30
0.0
 10
8.839998
 20
6.045000
 30
0.0
 10
9.034998
 20
6.045000
 30
0.0
 10
9.100050
 20
5.914992
 30
0.0
 10
9.230026
 20
5.980035
 30
0.0
 10
9.230026
 20
6.044968
 30
0.0
 10
8.905029
 20
6.239988
 30
0.0
 10
8.905001
 20
6.435000
 30
0.0
 10
9.035009
 20
6.500052
 30
0.0
 10
8.969966
 20
6.630028
 30
0.0
 10
8.905033
 20
6.630025
 30
0.0
  0
LWPOLYLINE
  5
11c
100
AcDbEntity
  8
Layer_1
 62
7
100
AcDbPolyline
 90
21
 70
1
 10
8.255033
 20
5.980025
 30
0.0
 10
8.060013
 20
5.655028
 30
0.0
 10
7.865001
 20
5.655000
 30
0.0
 10
7.800060
 20
5.785008
 30
0.0
 10
7.669973
 20
5.719965
 30
0.0
 10
7.669973
 20
5.655032
 30
0.0
 10
7.994969
 20
5.460012
 30
0.0
 10
7.994998
 20
5.265000
 30
0.0
 10
7.864990
 20
5.200058
 30
0.0
 10
7.930033
 20
5.069971
 30
0.0
 10
7.994998
 20
5.070000
 30
0.0
 10
8.189998
 20
5.395000
 30
0.0
 10
8.384998
 20
5.395000
 30
0.0
 10
8.450049
 20
5.264992
 30
0.0
 10
8.580026
 20
5.330035
 30
0.0
 10
8.580026
 20
5.394968
 30
0.0
 10
8.255029
 20
5.589988
 30
0.0
 10
8.255001
 20
5.785000
 30
0.0
 10
8.385009
 20
5.850052
 30
0.0
 10
8.319966
 20
5.980028
 30
0.0
 10
8.255033
 20
5.980025
 30
0.0
  0
LWPOLYLINE
  5
11d
100
AcDbEntity
  8
Layer_1
 62
7
100
AcDbPolyline
 90
21
 70
1
 10
10.205033
 20
5.980025
 30
0.0
 10
10.010013
 20
5.655028
 30
0.0
 10
9.815001
 20
5.655000
 30
0.0
 10
9.750060
 20
5.785008
 30
0.0
 10
9.619973
 20
5.719965
 30
0.0
 10
9.619973
 20
5.655032
 30
0.0
 10
9.944970
 20
5.460012
 30
0.0
 10
9.944998
 20
5.265000
 30
0.0
 10
9.814990
 20
5.200058
 30
0.0
 10
9.880033
 20
5.069971
 30
0.0
 10
9.944998
 20
5.070000
 30
0.0
 10
10.139998
 20
5.395000
 30
0.0
 10
10.334998
 20
5.395000
 30
0.0
 10
10.400049
 20
5.264992
 30
0.0
 10
10.530026
 20
5.330035
 30
0.0
 10
10.530026
 20
5.394968
 30
0.0
 10
10.205029
 20
5.589988
 30
0.0
 10
10.205001
 20
5.785000
 30
0.0
 10
10.335009
 20
5.850052
 30
0.0
 10
10.269966
 20
5.980028
 30
0.0
 10
10.205033
 20
5.980025
 30
0.0
  0
LWPOLYLINE
  5
11e
100
AcDbEntity
  8
Layer_1
 62
7
100
AcDbPolyline
 90
21
 70
1
 10
10.205033
 20
5.330025
 30
0.0
 10
10.010013
 20
5.005028
 30
0.0
 10
9.815001
 20
5.005000
 30
0.0
 10
9.750060
 20
5.135008
 30
0.0
 10
9.619973
 20
5.069965
 30
0.0
 10
9.619973
 20
5.005032
 30
0.0
 10
9.944970
 20
4.810012
 30
0.0
 10
9.944998
 20
4.615000
 30
0.0
 10
9.814990
 20
4.550059
 30
0.0
 10
9.880033
 20
4.419972
 30
0.0
 10
9.944998
 20
4.420000
 30
0.0
 10
10.139998
 20
4.745000
 30
0.0
 10
10.334998
 20
4.745000
 30
0.0
 10
10.400049
 20
4.614992
 30
0.0
 10
10.530026
 20
4.680035
 30
0.0
 10
10.530026
 20
4.744968
 30
0.0
 10
10.205029
 20
4.939988
 30
0.0
 10
10.205001
 20
5.135000
 30
0.0
 10
10.335009
 20
5.200052
 30
0.0
 10
10.269966
 20
5.330028
 30
0.0
 10
10.205033
 20
5.330025
 30
0.0
  0
LWPOLYLINE
  5
11f
100
AcDbEntity
  8
Layer_1
 62
7
100
AcDbPolyline
 90
21
 70
1
 10
10.205033
 20
4.680025
 30
0.0
 10
10.010013
 20
4.355028
 30
0.0
 10
9.815001
 20
4.355000
 30
0.0
 10
9.750060
 20
4.485008
 30
0.0
 10
9.619973
 20
4.419965
 30
0.0
 10
9.619973
 20
4.355032
 30
0.0
 10
9.944970
 20
4.160012
 30
0.0
 10
9.944998
 20
3.965000
 30
0.0
 10
9.814990
 20
3.900058
 30
0.0
 10
9.880033
 20
3.769972
 30
0.0
 10
9.944998
 20
3.770000
 30
0.0
 10
10.139998
 20
4.095000
 30
0.0
 10
10.334998
 20
4.095000
 30
0.0
 10
10.400049
 20
3.964992
 30
0.0
 10
10.530026
 20
4.030035
 30
0.0
 10
10.530026
 20
4.094968
 30
0.0
 10
10.205029
 20
4.289988
 30
0.0
 10
10.205001
 20
4.485000
 30
0.0
 10
10.335009
 20
4.550052
 30
0.0
 10
10.269966
 20
4.680028
 30
0.0
 10
10.205033
 20
4.680025
 30
0.0
  0
LWPOLYLINE
  5
120
100
AcDbEntity
  8
Layer_1
 62
7
100
AcDbPolyline
 90
21
 70
1
 10
9.555033
 20
4.680025
 30
0.0
 10
9.360013
 20
4.355028
 30
0.0
 10
9.165001
 20
4.355000
 30
0.0
 10
9.100060
 20
4.485008
 30
0.0
 10
8.969973
 20
4.419965
 30
0.0
 10
8.969973
 20
4.355032
 30
0.0
 10
9.294969
 20
4.160012
 30
0.0
 10
9.294998
 20
3.965000
 30
0.0
 10
9.164990
 20
3.900058
 30
0.0
 10
9.230033
 20
3.769972
 30
0.0
 10
9.294998
 20
3.770000
 30
0.0
 10
9.489998
 20
4.095000
 30
0.0
 10
9.684998
 20
4.095000
 30
0.0
 10
9.750049
 20
3.964992
 30
0.0
 10
9.880026
 20
4.030035
 30
0.0
 10
9.880026
 20
4.094968
 30
0.0
 10
9.555029
 20
4.289988
 30
0.0
 10
9.555001
 20
4.485000
 30
0.0
 10
9.685009
 20
4.550052
 30
0.0
 10
9.619966
 20
4.680028
 30
0.0
 10
9.555033
 20
4.680025
 30
0.0
  0
LWPOLYLINE
  5
121
100
AcDbEntity
  8
Layer_1
 62
7
100
AcDbPolyline
 90
21
 70
1
 10
9.555033
 20
4.030025
 30
0.0
 10
9.360013
 20
3.705028
 30
0.0
 10
9.165001
 20
3.705000
 30
0.0
 10
9.100060
 20
3.835008
 30
0.0
 10
8.969973
 20
3.769965
 30
0.0
 10
8.969973
 20
3.705032
 30
0.0
 10
9.294969
 20
3.510012
 30
0.0
 10
9.294998
 20
3.315000
 30
0.0
 10
9.164990
 20
3.250058
 30
0.0
 10
9.230033
 20
3.119971
 30
0.0
 10
9.294998
 20
3.120000
 30
0.0
 10
9.489998
 20
3.445000
 30
0.0
 10
9.684998
 20
3.445000
 30
0.0
 10
9.750049
 20
3.314992
 30
0.0
 10
9.880026
 20
3.380035
 30
0.0
 10
9.880026
 20
3.444968
 30
0.0
 10
9.555029
 20
3.639988
 30
0.0
 10
9.555001
 20
3.835000
 30
0.0
 10
9.685009
 20
3.900052
 30
0.0
 10
9.619966
 20
4.030028
 30
0.0
 10
9.555033
 20
4.030025
 30
0.0
  0
LWPOLYLINE
  5
122
100
AcDbEntity
  8
Layer_1
 62
7
100
AcDbPolyline
 90
21
 70
1
 10
6.305033
 20
4.030025
 30
0.0
 10
6.110013
 20
3.705028
 30
0.0
 10
5.915001
 20
3.705000
 30
0.0
 10
5.850060
 20
3.835008
 30
0.0
 10
5.719973
 20
3.769965
 30
0.0
 10
5.719973
 20
3.705032
 30
0.0
 10
6.044969
 20
3.510012
 30
0.0
 10
6.044998
 20
3.315000
 30
0.0
 10
5.914990
 20
3.250058
 30
0.0
 10
5.980033
 20
3.119971
 30
0.0
 10
6.044998
 20
3.120000
 30
0.0
 10
6.239998
 20
3.445000
 30
0.0
 10
6.434998
 20
3.445000
 30
0.0
 10
6.500049
 20
3.314992
 30
0.0
 10
6.630026
 20
3.380035
 30
0.0
 10
6.630026
 20
3.444968
 30
0.0
 10
6.305029
 20
3.639988
 30
0.0
 10
6.305001
 20
3.835000
 30
0.0
 10
6.435009
 20
3.900052
 30
0.0
 10
6.369966
 20
4.030028
 30
0.0
 10
6.305033
 20
4.030025
 30
0.0
  0
LWPOLYLINE
  5
123
100
AcDbEntity
  8
Layer_1
 62
7
100
AcDbPolyline
 90
21
 70
1
 10
6.305033
 20
4.680025
 30
0.0
 10
6.110013
 20
4.355028
 30
0.0
 10
5.915001
 20
4.355000
 30
0.0
 10
5.850060
 20
4.485008
 30
0.0
 10
5.719973
 20
4.419965
 30
0.0
 10
5.719973
 20
4.355032
 30
0.0
 10
6.044969
 20
4.160012
 30
0.0
 10
6.044998
 20
3.965000
 30
0.0
 10
5.914990
 20
3.900058
 30
0.0
 10
5.980033
 20
3.769972
 30
0.0
 10
6.044998
 20
3.770000
 30
0.0
 10
6.239998
 20
4.095000
 30
0.0
 10
6.434998
 20
4.095000
 30
0.0
 10
6.500049
 20
3.964992
 30
0.0
 10
6.630026
 20
4.030035
 30
0.0
 10
6.630026
 20
4.094968
 30
0.0
 10
6.305029
 20
4.289988
 30
0.0
 10
6.305001
 20
4.485000
 30
0.0
 10
6.435009
 20
4.550052
 30
0.0
 10
6.369966
 20
4.680028
 30
0.0
 10
6.305033
 20
4.680025
 30
0.0
  0
LWPOLYLINE
  5
124
100
AcDbEntity
  8
Layer_1
 62
7
100
AcDbPolyline
 90
21
 70
1
 10
5.655033
 20
4.030025
 30
0.0
 10
5.460013
 20
3.705028
 30
0.0
 10
5.265001
 20
3.705000
 30
0.0
 10
5.200060
 20
3.835008
 30
0.0
 10
5.069973
 20
3.769965
 30
0.0
 10
5.069973
 20
3.705032
 30
0.0
 10
5.394970
 20
3.510012
 30
0.0
 10
5.394998
 20
3.315000
 30
0.0
 10
5.264990
 20
3.250058
 30
0.0
 10
5.330033
 20
3.119971
 30
0.0
 10
5.394998
 20
3.120000
 30
0.0
 10
5.589998
 20
3.445000
 30
0.0
 10
5.784998
 20
3.445000
 30
0.0
 10
5.850050
 20
3.314992
 30
0.0
 10
5.980026
 20
3.380035
 30
0.0
 10
5.980026
 20
3.444968
 30
0.0
 10
5.655029
 20
3.639988
 30
0.0
 10
5.655001
 20
3.835000
 30
0.0
 10
5.785009
 20
3.900052
 30
0.0
 10
5.719966
 20
4.030028
 30
0.0
 10
5.655033
 20
4.030025
 30
0.0
  0
LWPOLYLINE
  5
125
100
AcDbEntity
  8
Layer_1
 62
7
100
AcDbPolyline
 90
21
 70
1
 10
6.955033
 20
4.030025
 30
0.0
 10
6.760013
 20
3.705028
 30
0.0
 10
6.565001
 20
3.705000
 30
0.0
 10
6.500060
 20
3.835008
 30
0.0
 10
6.369973
 20
3.769965
 30
0.0
 10
6.369973
 20
3.705032
 30
0.0
 10
6.694970
 20
3.510012
 30
0.0
 10
6.694998
 20
3.315000
 30
0.0
 10
6.564990
 20
3.250058
 30
0.0
 10
6.630033
 20
3.119971
 30
0.0
 10
6.694998
 20
3.120000
 30
0.0
 10
6.889998
 20
3.445000
 30
0.0
 10
7.084998
 20
3.445000
 30
0.0
 10
7.150049
 20
3.314992
 30
0.0
 10
7.280026
 20
3.380035
 30
0.0
 10
7.280026
 20
3.444968
 30
0.0
 10
6.955029
 20
3.639988
 30
0.0
 10
6.955001
 20
3.835000
 30
0.0
 10
7.085009
 20
3.900052
 30
0.0
 10
7.019966
 20
4.030028
 30
0.0
 10
6.955033
 20
4.030025
 30
0.0
  0
LWPOLYLINE
  5
126
100
AcDbEntity
  8
Layer_1
 62
7
100
AcDbPolyline
 90
21
 70
1
 10
6.305033
 20
3.380025
 30
0.0
 10
6.110013
 20
3.055028
 30
0.0
 10
5.915001
 20
3.055000
 30
0.0
 10
5.850060
 20
3.185008
 30
0.0
 10
5.719973
 20
3.119965
 30
0.0
 10
5.719973
 20
3.055032
 30
0.0
 10
6.044969
 20
2.860012
 30
0.0
 10
6.044998
 20
2.665000
 30
0.0
 10
5.914990
 20
2.600059
 30
0.0
 10
5.980033
 20
2.469972
 30
0.0
 10
6.044998
 20
2.470000
 30
0.0
 10
6.239998
 20
2.795000
 30
0.0
 10
6.434998
 20
2.795000
 30
0.0
 10
6.500049
 20
2.664992
 30
0.0
 10
6.630026
 20
2.730035
 30
0.0
 10
6.630026
 20
2.794968
 30
0.0
 10
6.305029
 20
2.989988
 30
0.0
 10
6.305001
 20
3.185000
 30
0.0
 10
6.435009
 20
3.250052
 30
0.0
 10
6.369966
 20
3.380028
 30
0.0
 10
6.305033
 20
3.380025
 30
0.0
  0
LWPOLYLINE
  5
127
100
AcDbEntity
  8
Layer_1
 62
7
100
AcDbPolyline
 90
21
 70
1
 10
9.555033
 20
2.730025
 30
0.0
 10
9.360013
 20
2.405028
 30
0.0
 10
9.165001
 20
2.405000
 30
0.0
 10
9.100060
 20
2.535008
 30
0.0
 10
8.969973
 20
2.469965
 30
0.0
 10
8.969973
 20
2.405032
 30
0.0
 10
9.294969
 20
2.210012
 30
0.0
 10
9.294998
 20
2.015000
 30
0.0
 10
9.164990
 20
1.950058
 30
0.0
 10
9.230033
 20
1.819971
 30
0.0
 10
9.294998
 20
1.820000
 30
0.0
 10
9.489998
 20
2.145000
 30
0.0
 10
9.684998
 20
2.145000
 30
0.0
 10
9.750049
 20
2.014992
 30
0.0
 10
9.880026
 20
2.080035
 30
0.0
 10
9.880026
 20
2.144968
 30
0.0
 10
9.555029
 20
2.339988
 30
0.0
 10
9.555001
 20
2.535000
 30
0.0
 10
9.685009
 20
2.600052
 30
0.0
 10
9.619966
 20
2.730028
 30
0.0
 10
9.555033
 20
2.730025
 30
0.0
  0
LWPOLYLINE
  5
128
100
AcDbEntity
  8
Layer_1
 62
7
100
AcDbPolyline
 90
21
 70
1
 10
9.555033
 20
2.080025
 30
0.0
 10
9.360013
 20
1.755028
 30
0.0
 10
9.165001
 20
1.755000
 30
0.0
 10
9.100060
 20
1.885008
 30
0.0
 10
8.969973
 20
1.819965
 30
0.0
 10
8.969973
 20
1.755032
 30
0.0
 10
9.294969
 20
1.560012
 30
0.0
 10
9.294998
 20
1.365000
 30
0.0
 10
9.164990
 20
1.300058
 30
0.0
 10
9.230033
 20
1.169971
 30
0.0
 10
9.294998
 20
1.170000
 30
0.0
 10
9.489998
 20
1.495000
 30
0.0
 10
9.684998
 20
1.495000
 30
0.0
 10
9.750049
 20
1.364991
 30
0.0
 10
9.880026
 20
1.430035
 30
0.0
 10
9.880026
 20
1.494968
 30
0.0
 10
9.555029
 20
1.689988
 30
0.0
 10
9.555001
 20
1.885000
 30
0.0
 10
9.685009
 20
1.950052
 30
0.0
 10
9.619966
 20
2.080028
 30
0.0
 10
9.555033
 20
2.080025
 30
0.0
  0
LWPOLYLINE
  5
129
100
AcDbEntity
  8
Layer_1
 62
7
100
AcDbPolyline
 90
21
 70
1
 10
9.555033
 20
1.430025
 30
0.0
 10
9.360013
 20
1.105028
 30
0.0
 10
9.165001
 20
1.105000
 30
0.0
 10
9.100060
 20
1.235008
 30
0.0
 10
8.969973
 20
1.169965
 30
0.0
 10
8.969973
 20
1.105032
 30
0.0
 10
9.294969
 20
0.910012
 30
0.0
 10
9.294998
 20
0.715000
 30
0.0
 10
9.164990
 20
0.650058
 30
0.0
 10
9.230033
 20
0.519972
 30
0.0
 10
9.294998
 20
0.520000
 30
0.0
 10
9.489998
 20
0.845000
 30
0.0
 10
9.684998
 20
0.845000
 30
0.0
 10
9.750049
 20
0.714992
 30
0.0
 10
9.880026
 20
0.780035
 30
0.0
 10
9.880026
 20
0.844968
 30
0.0
 10
9.555029
 20
1.039988
 30
0.0
 10
9.555001
 20
1.235000
 30
0.0
 10
9.685009
 20
1.300052
 30
0.0
 10
9.619966
 20
1.430028
 30
0.0
 10
9.555033
 20
1.430025
 30
0.0
  0
LWPOLYLINE
  5
12a
100
AcDbEntity
  8
Layer_1
 62
7
100
AcDbPolyline
 90
21
 70
1
 10
8.905033
 20
1.430025
 30
0.0
 10
8.710013
 20
1.105028
 30
0.0
 10
8.515001
 20
1.105000
 30
0.0
 10
8.450060
 20
1.235008
 30
0.0
 10
8.319973
 20
1.169965
 30
0.0
 10
8.319973
 20
1.105032
 30
0.0
 10
8.644970
 20
0.910012
 30
0.0
 10
8.644998
 20
0.715000
 30
0.0
 10
8.514990
 20
0.650058
 30
0.0
 10
8.580033
 20
0.519972
 30
0.0
 10
8.644998
 20
0.520000
 30
0.0
 10
8.839998
 20
0.845000
 30
0.0
 10
9.034998
 20
0.845000
 30
0.0
 10
9.100050
 20
0.714992
 30
0.0
 10
9.230026
 20
0.780035
 30
0.0
 10
9.230026
 20
0.844968
 30
0.0
 10
8.905029
 20
1.039988
 30
0.0
 10
8.905001
 20
1.235000
 30
0.0
 10
9.035009
 20
1.300052
 30
0.0
 10
8.969966
 20
1.430028
 30
0.0
 10
8.905033
 20
1.430025
 30
0.0
  0
LWPOLYLINE
  5
12b
100
AcDbEntity
  8
Layer_1
 62
7
100
AcDbPolyline
 90
21
 70
1
 10
8.905033
 20
2.080025
 30
0.0
 10
8.710013
 20
1.755028
 30
0.0
 10
8.515001
 20
1.755000
 30
0.0
 10
8.450060
 20
1.885008
 30
0.0
 10
8.319973
 20
1.819965
 30
0.0
 10
8.319973
 20
1.755032
 30
0.0
 10
8.644970
 20
1.560012
 30
0.0
 10
8.644998
 20
1.365000
 30
0.0
 10
8.514990
 20
1.300058
 30
0.0
 10
8.580033
 20
1.169971
 30
0.0
 10
8.644998
 20
1.170000
 30
0.0
 10
8.839998
 20
1.495000
 30
0.0
 10
9.034998
 20
1.495000
 30
0.0
 10
9.100050
 20
1.364991
 30
0.0
 10
9.230026
 20
1.430035
 30
0.0
 10
9.230026
 20
1.494968
 30
0.0
 10
8.905029
 20
1.689988
 30
0.0
 10
8.905001
 20
1.885000
 30
0.0
 10
9.035009
 20
1.950052
 30
0.0
 10
8.969966
 20
2.080028
 30
0.0
 10
8.905033
 20
2.080025
 30
0.0
  0
LWPOLYLINE
  5
12c
100
AcDbEntity
  8
Layer_1
 62
7
100
AcDbPolyline
 90
21
 70
1
 10
7.605033
 20
2.080025
 30
0.0
 10
7.410013
 20
1.755028
 30
0.0
 10
7.215001
 20
1.755000
 30
0.0
 10
7.150060
 20
1.885008
 30
0.0
 10
7.019973
 20
1.819965
 30
0.0
 10
7.019973
 20
1.755032
 30
0.0
 10
7.344970
 20
1.560012
 30
0.0
 10
7.344998
 20
1.365000
 30
0.0
 10
7.214990
 20
1.300058
 30
0.0
 10
7.280033
 20
1.169971
 30
0.0
 10
7.344998
 20
1.170000
 30
0.0
 10
7.539998
 20
1.495000
 30
0.0
 10
7.734998
 20
1.495000
 30
0.0
 10
7.800050
 20
1.364991
 30
0.0
 10
7.930026
 20
1.430035
 30
0.0
 10
7.930026
 20
1.494968
 30
0.0
 10
7.605030
 20
1.689988
 30
0.0
 10
7.605001
 20
1.885000
 30
0.0
 10
7.735010
 20
1.950052
 30
0.0
 10
7.669966
 20
2.080028
 30
0.0
 10
7.605033
 20
2.080025
 30
0.0
  0
LWPOLYLINE
  5
12d
100
AcDbEntity
  8
Layer_1
 62
7
100
AcDbPolyline
 90
21
 70
1
 10
7.605033
 20
1.430025
 30
0.0
 10
7.410013
 20
1.105028
 30
0.0
 10
7.215001
 20
1.105000
 30
0.0
 10
7.150060
 20
1.235008
 30
0.0
 10
7.019973
 20
1.169965
 30
0.0
 10
7.019973
 20
1.105032
 30
0.0
 10
7.344970
 20
0.910012
 30
0.0
 10
7.344998
 20
0.715000
 30
0.0
 10
7.214990
 20
0.650058
 30
0.0
 10
7.280033
 20
0.519972
 30
0.0
 10
7.344998
 20
0.520000
 30
0.0
 10
7.539998
 20
0.845000
 30
0.0
 10
7.734998
 20
0.845000
 30
0.0
 10
7.800050
 20
0.714992
 30
0.0
 10
7.930026
 20
0.780035
 30
0.0
 10
7.930026
 20
0.844968
 30
0.0
 10
7.605030
 20
1.039988
 30
0.0
 10
7.605001
 20
1.235000
 30
0.0
 10
7.735010
 20
1.300052
 30
0.0
 10
7.669966
 20
1.430028
 30
0.0
 10
7.605033
 20
1.430025
 30
0.0
  0
LWPOLYLINE
  5
12e
100
AcDbEntity
  8
Layer_1
 62
7
100
AcDbPolyline
 90
21
 70
1
 10
6.955033
 20
1.430025
 30
0.0
 10
6.760013
 20
1.105028
 30
0.0
 10
6.565001
 20
1.105000
 30
0.0
 10
6.500060
 20
1.235008
 30
0.0
 10
6.369973
 20
1.169965
 30
0.0
 10
6.369973
 20
1.105032
 30
0.0
 10
6.694970
 20
0.910012
 30
0.0
 10
6.694998
 20
0.715000
 30
0.0
 10
6.564990
 20
0.650058
 30
0.0
 10
6.630033
 20
0.519972
 30
0.0
 10
6.694998
 20
0.520000
 30
0.0
 10
6.889998
 20
0.845000
 30
0.0
 10
7.084998
 20
0.845000
 30
0.0
 10
7.150049
 20
0.714992
 30
0.0
 10
7.280026
 20
0.780035
 30
0.0
 10
7.280026
 20
0.844968
 30
0.0
 10
6.955029
 20
1.039988
 30
0.0
 10
6.955001
 20
1.235000
 30
0.0
 10
7.085009
 20
1.300052
 30
0.0
 10
7.019966
 20
1.430028
 30
0.0
 10
6.955033
 20
1.430025
 30
0.0
  0
LWPOLYLINE
  5
12f
100
AcDbEntity
  8
Layer_1
 62
7
100
AcDbPolyline
 90
21
 70
1
 10
6.305033
 20
1.430025
 30
0.0
 10
6.110013
 20
1.105028
 30
0.0
 10
5.915001
 20
1.105000
 30
0.0
 10
5.850060
 20
1.235008
 30
0.0
 10
5.719973
 20
1.169965
 30
0.0
 10
5.719973
 20
1.105032
 30
0.0
 10
6.044969
 20
0.910012
 30
0.0
 10
6.044998
 20
0.715000
 30
0.0
 10
5.914990
 20
0.650058
 30
0.0
 10
5.980033
 20
0.519972
 30
0.0
 10
6.044998
 20
0.520000
 30
0.0
 10
6.239998
 20
0.845000
 30
0.0
 10
6.434998
 20
0.845000
 30
0.0
 10
6.500049
 20
0.714992
 30
0.0
 10
6.630026
 20
0.780035
 30
0.0
 10
6.630026
 20
0.844968
 30
0.0
 10
6.305029
 20
1.039988
 30
0.0
 10
6.305001
 20
1.235000
 30
0.0
 10
6.435009
 20
1.300052
 30
0.0
 10
6.369966
 20
1.430028
 30
0.0
 10
6.305033
 20
1.430025
 30
0.0
  0
LWPOLYLINE
  5
130
100
AcDbEntity
  8
Layer_1
 62
7
100
AcDbPolyline
 90
21
 70
1
 10
6.305033
 20
2.080025
 30
0.0
 10
6.110013
 20
1.755028
 30
0.0
 10
5.915001
 20
1.755000
 30
0.0
 10
5.850060
 20
1.885008
 30
0.0
 10
5.719973
 20
1.819965
 30
0.0
 10
5.719973
 20
1.755032
 30
0.0
 10
6.044969
 20
1.560012
 30
0.0
 10
6.044998
 20
1.365000
 30
0.0
 10
5.914990
 20
1.300058
 30
0.0
 10
5.980033
 20
1.169971
 30
0.0
 10
6.044998
 20
1.170000
 30
0.0
 10
6.239998
 20
1.495000
 30
0.0
 10
6.434998
 20
1.495000
 30
0.0
 10
6.500049
 20
1.364991
 30
0.0
 10
6.630026
 20
1.430035
 30
0.0
 10
6.630026
 20
1.494968
 30
0.0
 10
6.305029
 20
1.689988
 30
0.0
 10
6.305001
 20
1.885000
 30
0.0
 10
6.435009
 20
1.950052
 30
0.0
 10
6.369966
 20
2.080028
 30
0.0
 10
6.305033
 20
2.080025
 30
0.0
  0
LWPOLYLINE
  5
131
100
AcDbEntity
  8
Layer_1
 62
7
100
AcDbPolyline
 90
21
 70
1
 10
5.005033
 20
1.430025
 30
0.0
 10
4.810013
 20
1.105028
 30
0.0
 10
4.615001
 20
1.105000
 30
0.0
 10
4.550060
 20
1.235008
 30
0.0
 10
4.419973
 20
1.169965
 30
0.0
 10
4.419973
 20
1.105032
 30
0.0
 10
4.744969
 20
0.910012
 30
0.0
 10
4.744998
 20
0.715000
 30
0.0
 10
4.614990
 20
0.650058
 30
0.0
 10
4.680033
 20
0.519972
 30
0.0
 10
4.744998
 20
0.520000
 30
0.0
 10
4.939998
 20
0.845000
 30
0.0
 10
5.134998
 20
0.845000
 30
0.0
 10
5.200049
 20
0.714992
 30
0.0
 10
5.330026
 20
0.780035
 30
0.0
 10
5.330026
 20
0.844968
 30
0.0
 10
5.005029
 20
1.039988
 30
0.0
 10
5.005001
 20
1.235000
 30
0.0
 10
5.135009
 20
1.300052
 30
0.0
 10
5.069966
 20
1.430028
 30
0.0
 10
5.005033
 20
1.430025
 30
0.0
  0
LWPOLYLINE
  5
132
100
AcDbEntity
  8
Layer_1
 62
7
100
AcDbPolyline
 90
21
 70
1
 10
4.355033
 20
1.430025
 30
0.0
 10
4.160013
 20
1.105028
 30
0.0
 10
3.965001
 20
1.105000
 30
0.0
 10
3.900060
 20
1.235008
 30
0.0
 10
3.769973
 20
1.169965
 30
0.0
 10
3.769973
 20
1.105032
 30
0.0
 10
4.094970
 20
0.910012
 30
0.0
 10
4.094998
 20
0.715000
 30
0.0
 10
3.964990
 20
0.650058
 30
0.0
 10
4.030033
 20
0.519972
 30
0.0
 10
4.094998
 20
0.520000
 30
0.0
 10
4.289998
 20
0.845000
 30
0.0
 10
4.484998
 20
0.845000
 30
0.0
 10
4.550050
 20
0.714992
 30
0.0
 10
4.680026
 20
0.780035
 30
0.0
 10
4.680026
 20
0.844968
 30
0.0
 10
4.355030
 20
1.039988
 30
0.0
 10
4.355001
 20
1.235000
 30
0.0
 10
4.485010
 20
1.300052
 30
0.0
 10
4.419966
 20
1.430028
 30
0.0
 10
4.355033
 20
1.430025
 30
0.0
  0
LWPOLYLINE
  5
133
100
AcDbEntity
  8
Layer_1
 62
7
100
AcDbPolyline
 90
21
 70
1
 10
4.355033
 20
2.080025
 30
0.0
 10
4.160013
 20
1.755028
 30
0.0
 10
3.965001
 20
1.755000
 30
0.0
 10
3.900060
 20
1.885008
 30
0.0
 10
3.769973
 20
1.819965
 30
0.0
 10
3.769973
 20
1.755032
 30
0.0
 10
4.094970
 20
1.560012
 30
0.0
 10
4.094998
 20
1.365000
 30
0.0
 10
3.964990
 20
1.300058
 30
0.0
 10
4.030033
 20
1.169971
 30
0.0
 10
4.094998
 20
1.170000
 30
0.0
 10
4.289998
 20
1.495000
 30
0.0
 10
4.484998
 20
1.495000
 30
0.0
 10
4.550050
 20
1.364991
 30
0.0
 10
4.680026
 20
1.430035
 30
0.0
 10
4.680026
 20
1.494968
 30
0.0
 10
4.355030
 20
1.689988
 30
0.0
 10
4.355001
 20
1.885000
 30
0.0
 10
4.485010
 20
1.950052
 30
0.0
 10
4.419966
 20
2.080028
 30
0.0
 10
4.355033
 20
2.080025
 30
0.0
  0
LWPOLYLINE
  5
134
100
AcDbEntity
  8
Layer_1
 62
7
100
AcDbPolyline
 90
21
 70
1
 10
4.355033
 20
2.730025
 30
0.0
 10
4.160013
 20
2.405028
 30
0.0
 10
3.965001
 20
2.405000
 30
0.0
 10
3.900060
 20
2.535008
 30
0.0
 10
3.769973
 20
2.469965
 30
0.0
 10
3.769973
 20
2.405032
 30
0.0
 10
4.094970
 20
2.210012
 30
0.0
 10
4.094998
 20
2.015000
 30
0.0
 10
3.964990
 20
1.950058
 30
0.0
 10
4.030033
 20
1.819971
 30
0.0
 10
4.094998
 20
1.820000
 30
0.0
 10
4.289998
 20
2.145000
 30
0.0
 10
4.484998
 20
2.145000
 30
0.0
 10
4.550050
 20
2.014992
 30
0.0
 10
4.680026
 20
2.080035
 30
0.0
 10
4.680026
 20
2.144968
 30
0.0
 10
4.355030
 20
2.339988
 30
0.0
 10
4.355001
 20
2.535000
 30
0.0
 10
4.485010
 20
2.600052
 30
0.0
 10
4.419966
 20
2.730028
 30
0.0
 10
4.355033
 20
2.730025
 30
0.0
  0
LWPOLYLINE
  5
135
100
AcDbEntity
  8
Layer_1
 62
7
100
AcDbPolyline
 90
21
 70
1
 10
3.705033
 20
1.430025
 30
0.0
 10
3.510013
 20
1.105028
 30
0.0
 10
3.315001
 20
1.105000
 30
0.0
 10
3.250060
 20
1.235008
 30
0.0
 10
3.119973
 20
1.169965
 30
0.0
 10
3.119973
 20
1.105032
 30
0.0
 10
3.444970
 20
0.910012
 30
0.0
 10
3.444998
 20
0.715000
 30
0.0
 10
3.314990
 20
0.650058
 30
0.0
 10
3.380033
 20
0.519972
 30
0.0
 10
3.444998
 20
0.520000
 30
0.0
 10
3.639998
 20
0.845000
 30
0.0
 10
3.834998
 20
0.845000
 30
0.0
 10
3.900049
 20
0.714992
 30
0.0
 10
4.030026
 20
0.780035
 30
0.0
 10
4.030026
 20
0.844968
 30
0.0
 10
3.705029
 20
1.039988
 30
0.0
 10
3.705001
 20
1.235000
 30
0.0
 10
3.835009
 20
1.300052
 30
0.0
 10
3.769966
 20
1.430028
 30
0.0
 10
3.705033
 20
1.430025
 30
0.0
  0
LWPOLYLINE
  5
136
100
AcDbEntity
  8
Layer_1
 62
7
100
AcDbPolyline
 90
21
 70
1
 10
2.405033
 20
2.730025
 30
0.0
 10
2.210013
 20
2.405028
 30
0.0
 10
2.015001
 20
2.405000
 30
0.0
 10
1.950060
 20
2.535008
 30
0.0
 10
1.819973
 20
2.469965
 30
0.0
 10
1.819973
 20
2.405032
 30
0.0
 10
2.144970
 20
2.210012
 30
0.0
 10
2.144998
 20
2.015000
 30
0.0
 10
2.014990
 20
1.950058
 30
0.0
 10
2.080033
 20
1.819971
 30
0.0
 10
2.144998
 20
1.820000
 30
0.0
 10
2.339998
 20
2.145000
 30
0.0
 10
2.534998
 20
2.145000
 30
0.0
 10
2.600050
 20
2.014992
 30
0.0
 10
2.730026
 20
2.080035
 30
0.0
 10
2.730026
 20
2.144968
 30
0.0
 10
2.405029
 20
2.339988
 30
0.0
 10
2.405001
 20
2.535000
 30
0.0
 10
2.535009
 20
2.600052
 30
0.0
 10
2.469966
 20
2.730028
 30
0.0
 10
2.405033
 20
2.730025
 30
0.0
  0
LWPOLYLINE
  5
137
100
AcDbEntity
  8
Layer_1
 62
7
100
AcDbPolyline
 90
21
 70
1
 10
2.405033
 20
2.080025
 30
0.0
 10
2.210013
 20
1.755028
 30
0.0
 10
2.015001
 20
1.755000
 30
0.0
 10
1.950060
 20
1.885008
 30
0.0
 10
1.819973
 20
1.819965
 30
0.0
 10
1.819973
 20
1.755032
 30
0.0
 10
2.144970
 20
1.560012
 30
0.0
 10
2.144998
 20
1.365000
 30
0.0
 10
2.014990
 20
1.300058
 30
0.0
 10
2.080033
 20
1.169971
 30
0.0
 10
2.144998
 20
1.170000
 30
0.0
 10
2.339998
 20
1.495000
 30
0.0
 10
2.534998
 20
1.495000
 30
0.0
 10
2.600050
 20
1.364991
 30
0.0
 10
2.730026
 20
1.430035
 30
0.0
 10
2.730026
 20
1.494968
 30
0.0
 10
2.405029
 20
1.689988
 30
0.0
 10
2.405001
 20
1.885000
 30
0.0
 10
2.535009
 20
1.950052
 30
0.0
 10
2.469966
 20
2.080028
 30
0.0
 10
2.405033
 20
2.080025
 30
0.0
  0
LWPOLYLINE
  5
138
100
AcDbEntity
  8
Layer_1
 62
7
100
AcDbPolyline
 90
21
 70
1
 10
1.755033
 20
2.080025
 30
0.0
 10
1.560014
 20
1.755028
 30
0.0
 10
1.365001
 20
1.755000
 30
0.0
 10
1.300060
 20
1.885008
 30
0.0
 10
1.169973
 20
1.819965
 30
0.0
 10
1.169973
 20
1.755032
 30
0.0
 10
1.494970
 20
1.560012
 30
0.0
 10
1.494998
 20
1.365000
 30
0.0
 10
1.364990
 20
1.300058
 30
0.0
 10
1.430033
 20
1.169971
 30
0.0
 10
1.494998
 20
1.170000
 30
0.0
 10
1.689998
 20
1.495000
 30
0.0
 10
1.884998
 20
1.495000
 30
0.0
 10
1.950050
 20
1.364991
 30
0.0
 10
2.080027
 20
1.430035
 30
0.0
 10
2.080027
 20
1.494968
 30
0.0
 10
1.755030
 20
1.689988
 30
0.0
 10
1.755001
 20
1.885000
 30
0.0
 10
1.885010
 20
1.950052
 30
0.0
 10
1.819966
 20
2.080028
 30
0.0
 10
1.755033
 20
2.080025
 30
0.0
  0
LWPOLYLINE
  5
139
100
AcDbEntity
  8
Layer_1
 62
7
100
AcDbPolyline
 90
21
 70
1
 10
1.755033
 20
1.430025
 30
0.0
 10
1.560014
 20
1.105028
 30
0.0
 10
1.365001
 20
1.105000
 30
0.0
 10
1.300060
 20
1.235008
 30
0.0
 10
1.169973
 20
1.169965
 30
0.0
 10
1.169973
 20
1.105032
 30
0.0
 10
1.494970
 20
0.910012
 30
0.0
 10
1.494998
 20
0.715000
 30
0.0
 10
1.364990
 20
0.650058
 30
0.0
 10
1.430033
 20
0.519972
 30
0.0
 10
1.494998
 20
0.520000
 30
0.0
 10
1.689998
 20
0.845000
 30
0.0
 10
1.884998
 20
0.845000
 30
0.0
 10
1.950050
 20
0.714992
 30
0.0
 10
2.080027
 20
0.780035
 30
0.0
 10
2.080027
 20
0.844968
 30
0.0
 10
1.755030
 20
1.039988
 30
0.0
 10
1.755001
 20
1.235000
 30
0.0
 10
1.885010
 20
1.300052
 30
0.0
 10
1.819966
 20
1.430028
 30
0.0
 10
1.755033
 20
1.430025
 30
0.0
  0
LWPOLYLINE
  5
13a
100
AcDbEntity
  8
Layer_1
 62
7
100
AcDbPolyline
 90
21
 70
1
 10
1.105033
 20
1.430025
 30
0.0
 10
0.910013
 20
1.105028
 30
0.0
 10
0.715001
 20
1.105000
 30
0.0
 10
0.650060
 20
1.235008
 30
0.0
 10
0.519973
 20
1.169965
 30
0.0
 10
0.519973
 20
1.105032
 30
0.0
 10
0.844970
 20
0.910012
 30
0.0
 10
0.844998
 20
0.715000
 30
0.0
 10
0.714990
 20
0.650058
 30
0.0
 10
0.780033
 20
0.519972
 30
0.0
 10
0.844998
 20
0.520000
 30
0.0
 10
1.039998
 20
0.845000
 30
0.0
 10
1.234998
 20
0.845000
 30
0.0
 10
1.300050
 20
0.714992
 30
0.0
 10
1.430026
 20
0.780035
 30
0.0
 10
1.430026
 20
0.844968
 30
0.0
 10
1.105030
 20
1.039988
 30
0.0
 10
1.105001
 20
1.235000
 30
0.0
 10
1.235010
 20
1.300052
 30
0.0
 10
1.169966
 20
1.430028
 30
0.0
 10
1.105033
 20
1.430025
 30
0.0
  0
LWPOLYLINE
  5
13b
100
AcDbEntity
  8
Layer_1
 62
7
100
AcDbPolyline
 90
21
 70
1
 10
1.105033
 20
7.930025
 30
0.0
 10
0.910013
 20
7.605028
 30
0.0
 10
0.715001
 20
7.605000
 30
0.0
 10
0.650060
 20
7.735008
 30
0.0
 10
0.519973
 20
7.669965
 30
0.0
 10
0.519973
 20
7.605032
 30
0.0
 10
0.844970
 20
7.410012
 30
0.0
 10
0.844998
 20
7.215000
 30
0.0
 10
0.714990
 20
7.150058
 30
0.0
 10
0.780033
 20
7.019972
 30
0.0
 10
0.844998
 20
7.020000
 30
0.0
 10
1.039998
 20
7.345000
 30
0.0
 10
1.234998
 20
7.345000
 30
0.0
 10
1.300050
 20
7.214992
 30
0.0
 10
1.430026
 20
7.280035
 30
0.0
 10
1.430026
 20
7.344968
 30
0.0
 10
1.105030
 20
7.539988
 30
0.0
 10
1.105001
 20
7.735000
 30
0.0
 10
1.235010
 20
7.800052
 30
0.0
 10
1.169966
 20
7.930028
 30
0.0
 10
1.105033
 20
7.930025
 30
0.0
  0
LWPOLYLINE
  5
13c
100
AcDbEntity
  8
Layer_1
 62
7
100
AcDbPolyline
 90
21
 70
1
 10
1.755033
 20
7.930025
 30
0.0
 10
1.560014
 20
7.605028
 30
0.0
 10
1.365001
 20
7.605000
 30
0.0
 10
1.300060
 20
7.735008
 30
0.0
 10
1.169973
 20
7.669965
 30
0.0
 10
1.169973
 20
7.605032
 30
0.0
 10
1.494970
 20
7.410012
 30
0.0
 10
1.494998
 20
7.215000
 30
0.0
 10
1.364990
 20
7.150058
 30
0.0
 10
1.430033
 20
7.019972
 30
0.0
 10
1.494998
 20
7.020000
 30
0.0
 10
1.689998
 20
7.345000
 30
0.0
 10
1.884998
 20
7.345000
 30
0.0
 10
1.950050
 20
7.214992
 30
0.0
 10
2.080027
 20
7.280035
 30
0.0
 10
2.080027
 20
7.344968
 30
0.0
 10
1.755030
 20
7.539988
 30
0.0
 10
1.755001
 20
7.735000
 30
0.0
 10
1.885010
 20
7.800052
 30
0.0
 10
1.819966
 20
7.930028
 30
0.0
 10
1.755033
 20
7.930025
 30
0.0
  0
LWPOLYLINE
  5
13d
100
AcDbEntity
  8
Layer_1
 62
7
100
AcDbPolyline
 90
21
 70
1
 10
2.405033
 20
7.930025
 30
0.0
 10
2.210013
 20
7.605028
 30
0.0
 10
2.015001
 20
7.605000
 30
0.0
 10
1.950060
 20
7.735008
 30
0.0
 10
1.819973
 20
7.669965
 30
0.0
 10
1.819973
 20
7.605032
 30
0.0
 10
2.144970
 20
7.410012
 30
0.0
 10
2.144998
 20
7.215000
 30
0.0
 10
2.014990
 20
7.150058
 30
0.0
 10
2.080033
 20
7.019972
 30
0.0
 10
2.144998
 20
7.020000
 30
0.0
 10
2.339998
 20
7.345000
 30
0.0
 10
2.534998
 20
7.345000
 30
0.0
 10
2.600050
 20
7.214992
 30
0.0
 10
2.730026
 20
7.280035
 30
0.0
 10
2.730026
 20
7.344968
 30
0.0
 10
2.405029
 20
7.539988
 30
0.0
 10
2.405001
 20
7.735000
 30
0.0
 10
2.535009
 20
7.800052
 30
0.0
 10
2.469966
 20
7.930028
 30
0.0
 10
2.405033
 20
7.930025
 30
0.0
  0
LWPOLYLINE
  5
13e
100
AcDbEntity
  8
Layer_1
 62
7
100
AcDbPolyline
 90
21
 70
1
 10
3.055033
 20
7.930025
 30
0.0
 10
2.860013
 20
7.605028
 30
0.0
 10
2.665001
 20
7.605000
 30
0.0
 10
2.600060
 20
7.735008
 30
0.0
 10
2.469973
 20
7.669965
 30
0.0
 10
2.469973
 20
7.605032
 30
0.0
 10
2.794970
 20
7.410012
 30
0.0
 10
2.794998
 20
7.215000
 30
0.0
 10
2.664990
 20
7.150058
 30
0.0
 10
2.730033
 20
7.019972
 30
0.0
 10
2.794998
 20
7.020000
 30
0.0
 10
2.989998
 20
7.345000
 30
0.0
 10
3.184998
 20
7.345000
 30
0.0
 10
3.250050
 20
7.214992
 30
0.0
 10
3.380027
 20
7.280035
 30
0.0
 10
3.380027
 20
7.344968
 30
0.0
 10
3.055030
 20
7.539988
 30
0.0
 10
3.055001
 20
7.735000
 30
0.0
 10
3.185010
 20
7.800052
 30
0.0
 10
3.119966
 20
7.930028
 30
0.0
 10
3.055033
 20
7.930025
 30
0.0
  0
LWPOLYLINE
  5
13f
100
AcDbEntity
  8
Layer_1
 62
7
100
AcDbPolyline
 90
21
 70
1
 10
2.405033
 20
7.280025
 30
0.0
 10
2.210013
 20
6.955028
 30
0.0
 10
2.015001
 20
6.955000
 30
0.0
 10
1.950060
 20
7.085008
 30
0.0
 10
1.819973
 20
7.019965
 30
0.0
 10
1.819973
 20
6.955032
 30
0.0
 10
2.144970
 20
6.760012
 30
0.0
 10
2.144998
 20
6.565000
 30
0.0
 10
2.014990
 20
6.500058
 30
0.0
 10
2.080033
 20
6.369971
 30
0.0
 10
2.144998
 20
6.370000
 30
0.0
 10
2.339998
 20
6.695000
 30
0.0
 10
2.534998
 20
6.695000
 30
0.0
 10
2.600050
 20
6.564991
 30
0.0
 10
2.730026
 20
6.630035
 30
0.0
 10
2.730026
 20
6.694968
 30
0.0
 10
2.405029
 20
6.889988
 30
0.0
 10
2.405001
 20
7.085000
 30
0.0
 10
2.535009
 20
7.150052
 30
0.0
 10
2.469966
 20
7.280028
 30
0.0
 10
2.405033
 20
7.280025
 30
0.0
  0
ENDSEC
  0
SECTION
  2
OBJECTS
  0
DICTIONARY
  5
C
330
0
100
AcDbDictionary
  3
ACAD_GROUP
350
D
  3
ACAD_MLINESTYLE
350
17
  0
DICTIONARY
  5
D
330
C
100
AcDbDictionary
  0
DICTIONARY
  5
1A
330
C
100
AcDbDictionary
  0
DICTIONARY
  5
17
330
C
100
AcDbDictionary
  3
STANDARD
350
18
  0
DICTIONARY
  5
19
330
C
100
AcDbDictionary
  0
ENDSEC
  0
EOF
