<?xml version="1.0" encoding="UTF-8" standalone="no"?>
<!-- Created with Inkscape (http://www.inkscape.org/) -->

<svg
   xmlns:dc="http://purl.org/dc/elements/1.1/"
   xmlns:cc="http://creativecommons.org/ns#"
   xmlns:rdf="http://www.w3.org/1999/02/22-rdf-syntax-ns#"
   xmlns:svg="http://www.w3.org/2000/svg"
   xmlns="http://www.w3.org/2000/svg"
   xmlns:sodipodi="http://sodipodi.sourceforge.net/DTD/sodipodi-0.dtd"
   xmlns:inkscape="http://www.inkscape.org/namespaces/inkscape"
   width="110.5mm"
   height="84.5mm"
   viewBox="0 0 391.53543 299.40945"
   id="svg2"
   version="1.1"
   inkscape:version="0.91 r13725"
   sodipodi:docname="pentominos-2.svg">
  <defs
     id="defs4" />
  <sodipodi:namedview
     id="base"
     pagecolor="#ffffff"
     bordercolor="#666666"
     borderopacity="1.0"
     inkscape:pageopacity="0.0"
     inkscape:pageshadow="2"
     inkscape:zoom="2"
     inkscape:cx="252.52795"
     inkscape:cy="138.07303"
     inkscape:document-units="px"
     inkscape:current-layer="layer1"
     showgrid="true"
     inkscape:snap-bbox="true"
     inkscape:bbox-paths="true"
     inkscape:bbox-nodes="true"
     inkscape:snap-bbox-edge-midpoints="false"
     inkscape:snap-bbox-midpoints="false"
     inkscape:object-paths="false"
     inkscape:snap-intersection-paths="true"
     inkscape:object-nodes="true"
     inkscape:snap-smooth-nodes="true"
     inkscape:snap-midpoints="false"
     inkscape:snap-object-midpoints="false"
     inkscape:snap-center="false"
     inkscape:snap-others="true"
     inkscape:snap-nodes="true"
     inkscape:window-width="1920"
     inkscape:window-height="1029"
     inkscape:window-x="1600"
     inkscape:window-y="25"
     inkscape:window-maximized="1"
     fit-margin-top="0"
     fit-margin-left="0"
     fit-margin-right="0"
     fit-margin-bottom="0"
     inkscape:snap-grids="true">
    <inkscape:grid
       type="xygrid"
       id="grid8079"
       color="#3f3fff"
       opacity="0.15686275"
       empcolor="#ff3fff"
       empopacity="0.2745098"
       spacingx="0.28771653"
       spacingy="0.28771653"
       originx="0"
       originy="0.17716535"
       visible="true" />
  </sodipodi:namedview>
  <metadata
     id="metadata7">
    <rdf:RDF>
      <cc:Work
         rdf:about="">
        <dc:format>image/svg+xml</dc:format>
        <dc:type
           rdf:resource="http://purl.org/dc/dcmitype/StillImage" />
        <dc:title></dc:title>
      </cc:Work>
    </rdf:RDF>
  </metadata>
  <g
     inkscape:groupmode="layer"
     id="layer4"
     inkscape:label="marks"
     style="display:inline"
     transform="translate(-230.31496,15.94489)">
    <path
       inkscape:connector-curvature="0"
       id="path4889-2-5-3-1"
       d="m 621.85038,292.32283 0,26.57496 -0.75295,0 0,-25.82062 -25.82208,0 0,-0.75434 z"
       style="color:#000000;font-style:normal;font-variant:normal;font-weight:normal;font-stretch:normal;font-size:medium;line-height:normal;font-family:sans-serif;text-indent:0;text-align:start;text-decoration:none;text-decoration-line:none;text-decoration-style:solid;text-decoration-color:#000000;letter-spacing:normal;word-spacing:normal;text-transform:none;direction:ltr;block-progression:tb;writing-mode:lr-tb;baseline-shift:baseline;text-anchor:start;white-space:normal;clip-rule:nonzero;display:inline;overflow:visible;visibility:visible;opacity:1;isolation:auto;mix-blend-mode:normal;color-interpolation:sRGB;color-interpolation-filters:linearRGB;solid-color:#000000;solid-opacity:1;fill:#ff0000;fill-opacity:1;fill-rule:nonzero;stroke:none;stroke-width:34.38693619;stroke-linecap:round;stroke-linejoin:round;stroke-miterlimit:4;stroke-dasharray:none;stroke-dashoffset:0;stroke-opacity:1;color-rendering:auto;image-rendering:auto;shape-rendering:auto;text-rendering:auto;enable-background:accumulate"
       transform="translate(0,-308.26772)"
       sodipodi:nodetypes="ccccccc" />
    <path
       inkscape:connector-curvature="0"
       id="path4887-0-1-7-9"
       d="m 256.88992,292.32284 0,0.75434 -25.82205,0 0,25.82062 -0.75291,0 0,-26.19704 0,-0.37792 z"
       style="color:#000000;font-style:normal;font-variant:normal;font-weight:normal;font-stretch:normal;font-size:medium;line-height:normal;font-family:sans-serif;text-indent:0;text-align:start;text-decoration:none;text-decoration-line:none;text-decoration-style:solid;text-decoration-color:#000000;letter-spacing:normal;word-spacing:normal;text-transform:none;direction:ltr;block-progression:tb;writing-mode:lr-tb;baseline-shift:baseline;text-anchor:start;white-space:normal;clip-rule:nonzero;display:inline;overflow:visible;visibility:visible;opacity:1;isolation:auto;mix-blend-mode:normal;color-interpolation:sRGB;color-interpolation-filters:linearRGB;solid-color:#000000;solid-opacity:1;fill:#ff0000;fill-opacity:1;fill-rule:nonzero;stroke:none;stroke-width:1.0042603;stroke-linecap:square;stroke-linejoin:miter;stroke-miterlimit:4;stroke-dasharray:none;stroke-dashoffset:0;stroke-opacity:1;color-rendering:auto;image-rendering:auto;shape-rendering:auto;text-rendering:auto;enable-background:accumulate"
       transform="translate(0,-308.26772)"
       sodipodi:nodetypes="cccccccc" />
    <path
       inkscape:connector-curvature="0"
       id="path8960-6-3-1-0-52-7"
       d="m 231.06788,570.4732 0,20.50618 25.82204,0 0,0.75291 -26.57496,0 0,-21.25909 z"
       style="color:#000000;font-style:normal;font-variant:normal;font-weight:normal;font-stretch:normal;font-size:medium;line-height:normal;font-family:sans-serif;text-indent:0;text-align:start;text-decoration:none;text-decoration-line:none;text-decoration-style:solid;text-decoration-color:#000000;letter-spacing:normal;word-spacing:normal;text-transform:none;direction:ltr;block-progression:tb;writing-mode:lr-tb;baseline-shift:baseline;text-anchor:start;white-space:normal;clip-rule:nonzero;display:inline;overflow:visible;visibility:visible;opacity:1;isolation:auto;mix-blend-mode:normal;color-interpolation:sRGB;color-interpolation-filters:linearRGB;solid-color:#000000;solid-opacity:1;fill:#ff0000;fill-opacity:1;fill-rule:nonzero;stroke:none;stroke-width:1.0042603;stroke-linecap:square;stroke-linejoin:miter;stroke-miterlimit:4;stroke-dasharray:none;stroke-dashoffset:0;stroke-opacity:1;color-rendering:auto;image-rendering:auto;shape-rendering:auto;text-rendering:auto;enable-background:accumulate"
       transform="translate(0,-308.26772)"
       sodipodi:nodetypes="ccccccc" />
    <path
       inkscape:connector-curvature="0"
       id="path4885-6-1-4-4"
       d="m 621.85038,570.4732 0,21.25909 -26.575,0 0,-0.75291 25.82208,0 0,-20.50618 z"
       style="color:#000000;font-style:normal;font-variant:normal;font-weight:normal;font-stretch:normal;font-size:medium;line-height:normal;font-family:sans-serif;text-indent:0;text-align:start;text-decoration:none;text-decoration-line:none;text-decoration-style:solid;text-decoration-color:#000000;letter-spacing:normal;word-spacing:normal;text-transform:none;direction:ltr;block-progression:tb;writing-mode:lr-tb;baseline-shift:baseline;text-anchor:start;white-space:normal;clip-rule:nonzero;display:inline;overflow:visible;visibility:visible;opacity:1;isolation:auto;mix-blend-mode:normal;color-interpolation:sRGB;color-interpolation-filters:linearRGB;solid-color:#000000;solid-opacity:1;fill:#ff0000;fill-opacity:1;fill-rule:nonzero;stroke:none;stroke-width:1.0042603;stroke-linecap:square;stroke-linejoin:miter;stroke-miterlimit:4;stroke-dasharray:none;stroke-dashoffset:0;stroke-opacity:1;color-rendering:auto;image-rendering:auto;shape-rendering:auto;text-rendering:auto;enable-background:accumulate"
       transform="translate(0,-308.26772)"
       sodipodi:nodetypes="ccccccc" />
  </g>
  <g
     inkscape:label="Layer 1"
     inkscape:groupmode="layer"
     id="layer1"
     transform="translate(-230.31496,-292.32283)"
     style="display:inline">
    <path
       style="fill:#00ff00;fill-opacity:0.73129255;fill-rule:evenodd;stroke:none;stroke-width:1px;stroke-linecap:butt;stroke-linejoin:miter;stroke-opacity:1"
       d="m 37.402344,20.146484 -5.50586,7.19336 -5.425781,0 2.876953,-4.027344 -1.726562,0 -4.316406,0 0,7.767578 -3.164063,-2.300781 0,2.876953 7.193359,5.505859 0,5.427735 -4.029296,-2.876953 0,1.724609 0,4.316406 5.466796,0 0,-5.466797 8.63086,0 0,1.439453 5.179687,0 -2.876953,4.027344 1.726563,0 1.726562,0 2.587891,0 0.576172,0 4.603515,0 0.863281,0 0,-5.466797 8.63086,0 0,1.439453 5.179687,0 -2.876953,4.027344 1.726563,0 1.726562,0 2.587891,0 0.574219,0 0.002,0 0,0.576172 -0.002,0 0,5.466797 5.46875,0 0,8.630859 -1.439453,0 0,5.179688 -4.029297,-2.876953 0,1.724609 0,4.316406 7.769531,0 -2.302734,3.164063 2.876953,0 5.503906,-7.191406 5.429687,0 -2.876953,4.027343 1.726563,0 4.314453,0 0,-5.466796 -5.464844,0 0,-8.63086 1.439453,0 0,-5.179687 4.025391,2.876953 0,-1.726563 0,-1.726562 0.002,0 0,-3.164063 0.574219,0 4.605469,0 0.863281,0 0,-5.466797 8.630864,0 0,1.439453 5.17773,0 -2.87695,4.027344 1.72656,0 4.31446,0 0,-7.767578 3.16601,2.300781 0,-2.876953 -7.19336,-5.505859 0,-5.427735 4.02735,2.876954 0,-1.726563 0,-4.314453 -7.76758,0 2.30273,-3.166016 -2.87891,0 -5.50585,7.19336 -5.425789,0 2.876954,-4.027344 -1.726563,0 -1.724609,0 -2.591797,0 -0.576172,0 -5.464844,0 -2.302734,0 2.304687,-3.166016 -2.880859,0 -5.505859,7.19336 -5.425782,0 2.876953,-4.027344 -1.726562,0 -1.724609,0 -2.591797,0 -0.574219,0 -5.466797,0 -2.300781,0 2.302734,-3.166016 -2.878906,0 -5.50586,7.19336 -5.425781,0 2.876953,-4.027344 -1.726562,0 -1.726563,0 -2.589843,0 -0.576172,0 -5.464844,0 -2.302734,0 2.302734,-3.166016 -2.878906,0 z m 138.103516,0 -5.50586,7.19336 -5.42578,0 2.87695,-4.027344 -1.72656,0 -4.31641,0 0,7.767578 -3.16406,-2.300781 0,2.876953 7.19336,5.505859 0,5.427735 -4.0293,-2.876953 0,1.724609 0,1.726562 0,2.589844 0,0.576172 0,4.603516 0,3.164062 -3.16406,-2.300781 0,2.876953 7.19336,5.50586 0,5.427734 -4.0293,-2.876953 0,1.724609 0,1.726563 0,2.589843 0,0.576172 0,4.603516 0,3.164062 -3.16406,-2.300781 0,2.876953 7.19336,5.50586 0,5.427734 -4.0293,-2.876953 0,1.724609 0,1.726563 0,2.589843 0,0.574219 0,4.603516 0,3.164063 -3.16406,-2.300782 0,2.876952 7.19336,5.50586 0,5.42773 -4.0293,-2.87695 0,1.72461 0,1.72852 0,2.58789 0,0.57617 0,4.60352 0,3.16406 -3.16406,-2.30078 0,2.87695 7.19336,5.50586 0,5.42773 -4.0293,-2.87695 0,1.72461 0,4.31641 7.76953,0 -2.30273,3.16406 2.87695,0 5.50391,-7.19141 5.42969,0 -2.87696,4.02735 1.72657,0 4.31445,0 0,-7.76758 3.16601,2.30078 0,-2.87695 -7.19335,-5.50586 0,-5.42774 4.02734,2.87696 0,-1.72657 0,-1.72461 0.002,0 0,-8.63086 -0.002,0 0,-2.30273 3.16601,2.30078 0,-2.87695 -7.19335,-5.50586 0,-5.427736 4.02734,2.876953 0,-1.726563 0,-1.724609 0.002,0 0,-8.630859 -0.002,0 0,-2.300782 3.16601,2.300782 0,-2.876954 -7.19335,-5.505859 0,-5.427734 4.02734,2.876953 0,-1.726563 0,-1.726562 0.002,0 0,-8.630859 -0.002,0 0,-2.300782 3.16601,2.300782 0,-2.876954 -7.19335,-5.505859 0,-5.427734 4.02734,2.876953 0,-1.726563 0,-1.726562 0.002,0 0,-8.63086 -0.002,0 0,-2.300781 3.16601,2.300781 0,-2.876953 -7.19335,-5.505859 0,-5.427735 4.02734,2.876954 0,-1.726563 0,-4.314453 -7.76758,0 2.30274,-3.166016 -2.87891,0 z m 46.03516,0 -5.50586,7.19336 -5.42578,0 2.87695,-4.027344 -1.72656,0 -4.31641,0 0,7.767578 -3.16406,-2.300781 0,2.876953 7.19336,5.505859 0,5.427735 -4.0293,-2.876953 0,1.724609 0,2.015625 0,2.300781 0,0.576172 0,4.890625 0,2.876953 -3.16406,-2.300781 0,2.876953 7.19336,5.50586 0,5.427734 -4.0293,-2.876953 0,1.724609 0,2.013672 0,2.302734 0,0.576172 0,4.890625 0,2.876953 -3.16406,-2.300781 0,2.876953 7.19336,5.50586 0,5.427734 -4.0293,-2.876953 0,1.724609 0,4.316406 7.76953,0 -2.30273,3.164063 2.87695,0 5.50391,-7.191406 5.42968,0 -2.87695,4.027343 1.72656,0 4.31446,0 0,-5.466796 -5.4668,0 0,-8.63086 1.43945,0 0,-5.179687 4.02735,2.876953 0,-1.726563 0,-1.4375 0,-2.876953 0,-0.576172 0,-5.179687 0,-0.287109 -5.4668,0 0,-8.63086 1.43945,0 0,-5.179687 4.02735,2.876953 0,-1.726563 0,-1.4375 0,-2.876953 0,-0.576172 0.57617,0 4.60351,0 0.86328,0 0,-5.466797 8.63086,0 0,1.439453 5.17969,0 -2.87695,4.027344 1.72656,0 2.01367,0 2.30078,0 0.57422,0 4.89258,0 0.57617,0 0,-5.466797 8.63086,0 0,1.439453 5.17774,0 -2.87696,4.027344 1.72657,0 4.31445,0 0,-7.767578 3.16601,2.300781 0,-2.876953 -7.19336,-5.505859 0,-5.427735 4.02735,2.876954 0,-1.726563 0,-4.314453 -7.76758,0 2.30273,-3.166016 -2.8789,0 -5.50586,7.19336 -5.42578,0 2.87695,-4.027344 -1.72656,0 -1.4375,0 -2.87891,0 -0.57422,0 -5.17773,0 -2.58984,0 2.30273,-3.166016 -2.87891,0 -5.50586,7.19336 -5.42578,0 2.87696,-4.027344 -1.72657,0 -1.72656,0 -2.58984,0 -0.57617,0 -5.4668,0 -2.30078,0 2.30273,-3.166016 -2.8789,0 z m 92.06836,23.017578 -5.50586,7.19336 -5.42579,0 2.87696,-4.027344 -1.72657,0 -4.3164,0 0,5.466797 5.46875,0 0,8.630859 -1.43945,0 0,5.179688 -4.0293,-2.876953 0,1.724609 0,4.316406 0.002,0 0,0.576172 -0.002,0 -0.57617,0 -5.46485,0 0,5.464844 -8.63086,0 0,-1.4375 -5.17968,0 2.87695,-4.027344 -1.72656,0 -1.72461,0 -2.5918,0 -0.57617,0 -2.58789,0 0,4.191406 0,1.273438 -1.43946,0 -1.4375,0 -5.7539,0 0,-4.875 -2.63086,3.4375 -5.42578,0 2.87695,-4.027344 -1.72656,0 -4.31641,0 0,7.767578 -3.16406,-2.300781 0,2.876953 7.19336,5.50586 0,5.427734 -4.0293,-2.876953 0,1.724609 0,4.316406 5.46875,0 0,-5.466796 8.63086,0 0,1.439453 5.17774,0 -2.87696,4.027343 1.72657,0 1.72656,0 2.58789,0 0.57617,0 0.002,0 0,0.574219 -0.002,0 0,5.466797 5.46875,0 0,8.632812 -1.43945,0 0,5.17773 -4.0293,-2.87695 0,1.72461 0,4.31641 7.76953,0 -2.30273,3.16406 2.87695,0 5.50391,-7.19141 5.42968,0 -2.87695,4.02735 1.72656,0 4.31446,0 0,-5.46485 -5.46485,0 0,-8.63281 1.4375,0 0,-5.179686 4.02735,2.876953 0,-1.726563 0,-1.724609 0.002,0 0,-3.164063 0.57422,0 4.60547,0 0.86328,0 0,-5.466796 8.63086,0 0,1.439453 5.17773,0 -2.87695,4.027343 1.72656,0 4.31445,0 0,-7.767578 3.16602,2.300782 0,-2.876954 -7.19336,-5.505859 0,-5.427734 4.02734,2.876953 0,-1.726563 0,-1.726562 0.002,0 0,-8.630859 -0.002,0 0,-2.300782 3.16602,2.300782 0,-2.876954 -7.19336,-5.505859 0,-5.427734 4.02734,2.876953 0,-1.726563 0,-4.314453 -7.76757,0 2.30273,-3.166016 -2.8789,0 z m -276.207036,46.033204 -5.50586,7.193359 -5.425781,0 2.876953,-4.027344 -1.726562,0 -4.316406,0 0,7.767579 -3.164063,-2.300782 0,2.876952 7.193359,5.50586 0,5.42773 -4.029296,-2.87695 0,1.72461 0,1.44141 0,2.875 0,0.57617 0,5.17969 0,2.58789 -3.164063,-2.30078 0,2.87695 7.193359,5.50586 0,5.42773 -4.029296,-2.87695 0,1.72461 0,1.43945 0,2.87696 0,0.57617 0,5.17968 0,2.5879 -3.164063,-2.30079 0,2.87696 7.193359,5.50586 0,5.42773 -4.029296,-2.87695 0,1.72461 0,1.72851 0,2.58789 0,0.57618 0,5.46679 0,2.30078 -3.164063,-2.30078 0,2.87696 7.193359,5.50585 0,5.42774 -4.029296,-2.87695 0,1.72461 0,4.3164 7.769531,0 -2.302735,3.16406 2.876954,0 5.503906,-7.1914 5.429687,0 -2.876953,4.02734 1.726563,0 4.314453,0 0,-5.4668 -5.464844,0 0,-8.63085 1.4375,0 0,-5.17969 4.027344,2.87695 0,-1.72656 0,-1.72461 0,-2.58984 0,-0.57618 0,-4.60351 0,-0.86328 -5.464844,0 0,-8.63086 1.4375,0 0,-5.17969 4.027344,2.87695 0,-1.72656 0,-2.01172 0,-2.30273 0,-0.57617 0,-4.89063 0,-0.57422 -5.464844,0 0,-8.63281 1.4375,0 0,-5.17969 4.027344,2.87696 0,-1.72657 0,-2.01172 0,-2.30273 0,-0.57422 5.755859,0 0,-0.002 0.287109,0 0,-5.46485 8.63086,0 0,1.4375 5.179687,0 -2.876953,4.02735 1.726563,0 4.314453,0 0,-7.76758 3.166016,2.30078 0,-2.87695 -7.19336,-5.50586 0,-5.427736 4.027344,2.876953 0,-1.726563 0,-4.314453 -7.767578,0 2.302734,-3.166015 -2.878906,0 -5.50586,7.193359 -5.425781,0 2.876953,-4.027344 -1.726562,0 -1.152344,0 -3.164062,0 -0.576172,0 -4.890625,0 -2.876953,0 2.302734,-3.166015 -2.878906,0 z m 322.242186,0 -5.50586,7.193359 -5.42578,0 2.87695,-4.027344 -1.72656,0 -4.3164,0 0,5.466797 5.46679,0 0,8.632812 -1.4375,0 0,5.17773 -4.02929,-2.87695 0,1.72461 0,1.72852 0,2.58789 0,0.57617 0,5.4668 5.46679,0 0,8.63281 -1.4375,0 0,5.17773 -4.02929,-2.87695 0,1.72461 0,1.72852 0,2.58789 0,0.57617 -0.57618,0 -5.46484,0 0,5.46679 -8.63281,0 0,-1.43945 -5.17774,0 2.87696,-4.02734 -1.72657,0 -4.3164,0 0,7.76758 -3.16407,-2.30079 0,2.87696 7.19336,5.50586 0,5.42773 -4.02929,-2.87695 0,1.72461 0,2.01562 0,2.30078 0,0.57618 0,5.7539 0,2.01367 -3.16407,-2.30078 0,2.87696 7.19336,5.50585 0,5.42774 -4.02929,-2.87695 0,1.72461 0,4.3164 7.76953,0 -2.30274,3.16406 2.87696,0 5.5039,-7.1914 5.42969,0 -2.87695,4.02734 1.72656,0 4.31445,0 0,-5.4668 -5.46484,0 0,-8.63085 1.4375,0 0,-5.17969 4.02734,2.87695 0,-1.72656 0,-1.4375 0.002,0 0,-3.45313 0.57422,0 4.60351,0 0.86328,0 0,-5.46679 8.63281,0 0,1.43945 5.17774,0 -2.87695,4.02734 1.72656,0 4.31445,0 0,-7.76757 3.16602,2.30078 0,-2.87696 -7.19336,-5.50586 0,-5.42773 4.02734,2.87695 0,-1.72656 0,-1.72461 0.002,0 0,-7.76758 -0.002,0 0,-3.16601 3.16602,2.30078 0,-2.87695 -7.19336,-5.50586 0,-5.42774 4.02734,2.87696 0,-1.72657 0,-1.72461 0.002,0 0,-7.76758 -0.002,0 0,-3.16601 3.16602,2.30078 0,-2.87695 -7.19336,-5.50586 0,-5.427736 4.02734,2.876953 0,-1.726563 0,-4.314453 -7.76758,0 2.30274,-3.166015 -2.87891,0 z m -230.17383,23.017574 -5.50586,7.19336 -5.42578,0 2.87696,-4.02734 -1.72657,0 -4.3164,0 0,5.4668 5.46875,0 0,8.63281 -1.43946,0 0,5.17773 -4.02929,-2.87695 0,1.72461 0,4.31641 0.002,0 0,0.57617 -0.002,0 -0.57617,0 -4.60157,0 -0.86328,0 0,5.46679 -8.63086,0 0,-1.43945 -5.179686,0 2.876954,-4.02734 -1.726563,0 -1.150391,0 -3.166015,0 -0.576172,0 -4.888672,0 -0.576172,0 0,5.46679 -8.630859,0 0,-1.43945 -5.179688,0 2.876953,-4.02734 -1.726562,0 -4.316406,0 0,7.76758 -3.164063,-2.30079 0,2.87696 7.19336,5.50586 0,5.42773 -4.029297,-2.87695 0,1.72461 0,4.3164 0.002,0 0,0.57618 -0.002,0 0,7.76757 -3.164063,-2.30078 0,2.87696 7.19336,5.50585 0,5.42774 -4.029297,-2.87695 0,1.72461 0,4.3164 7.769531,0 -2.302734,3.16406 2.876953,0 5.503906,-7.1914 5.429687,0 -2.876953,4.02734 1.726563,0 4.314453,0 0,-5.4668 -5.464844,0 0,-8.63085 1.439453,0 0,-5.17969 4.025391,2.87695 0,-1.72656 0,-2.01172 0.002,0 0,-2.87891 0.574219,0 5.179687,0 0.289063,0 0,-5.46679 8.630864,0 0,1.43945 5.17773,0 -2.87695,4.02734 1.72656,0 2.58985,0 1.72461,0 0.57617,0 5.46875,0 0,-5.46679 8.63086,0 0,1.43945 5.17773,0 -2.87695,4.02734 1.72656,0 4.31445,0 0,-7.76757 3.16602,2.30078 0,-2.87696 -7.19336,-5.50586 0,-5.42773 4.02734,2.87695 0,-1.72656 0,-1.72461 0.002,0 0,-7.76758 -0.002,0 0,-3.16601 3.16602,2.30078 0,-2.87695 -7.19336,-5.50586 0,-5.42774 4.02734,2.87696 0,-1.72657 0,-4.31445 -7.76757,0 2.30273,-3.16602 -2.87891,0 z m 92.07032,23.01758 -5.50586,7.19336 -5.42578,0 2.87695,-4.02734 -1.72656,0 -4.31641,0 0,5.46679 5.4668,0 0,8.63086 -1.4375,0 0,5.17969 -4.0293,-2.87695 0,1.72461 0,1.72851 0,2.58789 0,0.57618 -0.57617,0 -5.46485,0 0,5.46679 -8.63281,0 0,-1.43945 -5.17773,0 2.87695,-4.02734 -1.72656,0 -4.31641,0 0,7.76757 -3.16406,-2.30078 0,2.87696 7.19336,5.50585 0,5.42774 -4.0293,-2.87695 0,1.72461 0,4.3164 5.4668,0 0,-5.4668 8.63086,0 0,1.43946 5.17968,0 -2.87695,4.02734 1.72656,0 1.72657,0 2.58789,0 0.57617,0 0,0.57617 0,4.60352 0,0.86328 5.4668,0 0,8.63086 -1.4375,0 0,5.17969 -4.0293,-2.87696 0,1.72461 0,4.31641 7.76953,0 -2.30273,3.16406 2.87695,0 5.50391,-7.1914 5.42968,0 -2.87695,4.02734 1.72656,0 4.31446,0 0,-5.4668 -5.4668,0 0,-8.63086 1.43945,0 0,-5.17968 4.02735,2.87695 0,-1.72656 0,-1.72461 0,-2.58985 0,-0.57617 0.57617,0 5.46679,0 0,-5.4668 8.63086,0 0,1.43946 5.17969,0 -2.87695,4.02734 1.72656,0 4.31445,0 0,-7.76758 3.16602,2.30078 0,-2.87695 -7.19336,-5.50586 0,-5.42773 4.02734,2.87695 0,-1.72656 0,-4.31445 -5.46679,0 0,5.46679 -8.63086,0 0,-1.43945 -5.17774,0 2.87696,-4.02734 -1.72657,0 -1.72656,0 -2.58984,0 -0.57617,0 0,-0.57618 0,-4.60351 0,-0.86328 -8.34375,0 0,-8.63086 4.3164,0 0,-5.17969 4.02735,2.87695 0,-1.72656 0,-4.31445 -7.76758,0 2.30273,-3.16602 -2.8789,0 z m -138.105473,69.05274 -5.505859,7.19336 -5.425782,0 2.876953,-4.02735 -1.726562,0 -4.316406,0 0,5.4668 5.46875,0 0,8.63086 -1.439453,0 0,5.17969 -4.029297,-2.87696 0,1.72461 0,4.31641 0.002,0 0,0.57617 -0.002,0 -0.574219,0 -4.603516,0 -0.863281,0 0,5.4668 -8.630859,0 0,-1.43946 -5.177735,0 2.876953,-4.02734 -1.726562,0 -4.316406,0 0,5.4668 5.466796,0 0,8.63086 -1.4375,0 0,5.17968 -4.029296,-2.87695 0,1.72461 0,1.72656 0,2.58985 0,0.57617 -0.576172,0 -4.603516,0 -0.861328,0 0,5.46484 -8.632812,0 0,-1.4375 -5.177735,0 2.876953,-4.02734 -1.726562,0 -4.316406,0 0,7.76758 -3.164063,-2.30079 0,2.87696 7.193359,5.50586 0,5.42773 -4.029296,-2.87695 0,1.72461 0,4.3164 7.769531,0 -2.302735,3.16407 2.876954,0 5.503906,-7.19141 5.429687,0 -2.876953,4.02734 1.726563,0 2.589843,0 1.72461,0 0.576172,0 5.466796,0 2.302735,0 -2.302735,3.16407 2.876954,0 5.503906,-7.19141 5.429687,0 -2.876953,4.02734 1.726563,0 4.314453,0 0,-5.46679 -5.466797,0 0,-8.63086 1.439453,0 0,-5.17969 4.027344,2.87695 0,-1.72656 0,-1.72656 0,-2.58789 0,-0.57617 0.574219,0 5.46875,0 0,-5.4668 8.630859,0 0,1.43945 5.177734,0 -2.876953,4.02735 1.726563,0 4.314453,0 0,-7.76758 3.166015,2.30078 0,-2.87695 -7.191406,-5.50586 0,-5.42774 4.025391,2.87696 0,-1.72657 0,-1.72656 0.002,0 0,-7.76758 -0.002,0 0,-3.16406 3.166015,2.30078 0,-2.87695 -7.191406,-5.50586 0,-5.42774 4.025391,2.87696 0,-1.72657 0,-4.31445 -7.767578,0 2.304687,-3.16601 -2.880859,0 z m 69.052733,0 -5.50586,7.19336 -5.42578,0 2.87695,-4.02735 -1.72656,0 -4.31641,0 0,5.4668 5.4668,0 0,8.63086 -1.4375,0 0,5.17969 -4.0293,-2.87696 0,1.72461 0,4.31641 0.002,0 0,0.57617 -0.002,0 0,5.4668 5.4668,0 0,8.63086 -1.4375,0 0,5.17968 -4.0293,-2.87695 0,1.72461 0,4.31641 0.002,0 0,0.57422 -5.17969,0 0,0.002 -0.86328,0 0,5.46484 -8.63086,0 0,-1.4375 -5.17969,0 2.87696,-4.02734 -1.72657,0 -4.3164,0 0,7.76758 -3.16407,-2.30079 0,2.87696 7.19336,5.50586 0,5.42773 -4.02929,-2.87695 0,1.72461 0,4.3164 7.76953,0 -2.30274,3.16407 2.87696,0 5.5039,-7.19141 5.42969,0 -2.87695,4.02734 1.72656,0 2.58984,0 1.72461,0 0.57617,0 5.4668,0 2.30274,0 -2.30274,3.16407 2.87696,0 5.5039,-7.19141 5.42969,0 -2.87695,4.02734 1.72656,0 1.43945,0 2.875,0 0.57617,0 4.31641,0 3.45312,0 -2.30273,3.16407 2.87695,0 5.50391,-7.19141 5.42969,0 -2.87696,4.02734 1.72657,0 4.31445,0 0,-7.76757 3.16601,2.30078 0,-2.87696 -7.19335,-5.50586 0,-5.42773 4.02734,2.87695 0,-1.72656 0,-4.31445 -5.46484,0 0,5.46484 -8.63282,0 0,-1.4375 -5.17773,0 2.87695,-4.02734 -1.72656,0 -2.01367,0 0,-0.002 -2.87696,0 0,-5.17774 -0.002,0 0,-0.86328 -5.46484,0 0,-8.63086 1.4375,0 0,-5.17969 4.02734,2.87696 0,-1.72657 0,-2.01367 0.002,0 0,-7.76758 -0.002,0 0,-0.57617 -5.46484,0 0,-8.63086 1.4375,0 0,-5.17969 4.02734,2.87696 0,-1.72657 0,-4.31445 -7.76758,0 2.30274,-3.16601 -2.87891,0 z m 184.13867,0 -5.50586,7.19336 -5.42578,0 2.87696,-4.02735 -1.72657,0 -4.3164,0 0,5.4668 5.46679,0 0,8.63086 -1.4375,0 0,5.17969 -4.02929,-2.87696 0,1.72461 0,1.72656 0,2.58985 0,0.57617 -0.57618,0 -5.46484,0 0,5.4668 -8.63086,0 0,-1.43946 -5.17969,0 2.87696,-4.02734 -1.72657,0 -4.3164,0 0,7.76758 -3.16406,-2.30078 0,2.87695 7.19336,5.50586 0,5.42773 -4.0293,-2.87695 0,1.72461 0,4.31641 0.002,0 0,0.57617 -0.002,0 0,7.76758 -3.16406,-2.30079 0,2.87696 7.19336,5.50586 0,5.42773 -4.0293,-2.87695 0,1.72461 0,4.3164 7.76953,0 -2.30273,3.16407 2.87695,0 5.50391,-7.19141 5.42968,0 -2.87695,4.02734 1.72656,0 1.72656,0 2.58789,0 0.57618,0 4.60351,0 3.16602,0 -2.30274,3.16407 2.87696,0 5.5039,-7.19141 5.42969,0 -2.87695,4.02734 1.72656,0 4.31445,0 0,-7.76757 3.16602,2.30078 0,-2.87696 -7.19336,-5.50586 0,-5.42773 4.02734,2.87695 0,-1.72656 0,-2.30078 0.002,0 0,-7.76953 -0.002,0 0,-2.58789 3.16602,2.30078 0,-2.87695 -7.19336,-5.50586 0,-5.42774 4.02734,2.87696 0,-1.72657 0,-1.72656 0.002,0 0,-7.76758 -0.002,0 0,-3.16406 3.16602,2.30078 0,-2.87695 -7.19336,-5.50586 0,-5.42774 4.02734,2.87696 0,-1.72657 0,-4.31445 -7.76758,0 2.30274,-3.16601 -2.87891,0 z m -115.08593,23.01757 -5.50586,7.19336 -5.42578,0 2.87695,-4.02734 -1.72656,0 -4.31641,0 0,7.76758 -3.16406,-2.30078 0,2.87695 7.19336,5.50586 0,5.42773 -4.0293,-2.87695 0,1.72461 0,2.01367 0,2.30274 0,0.57617 0,5.7539 0,2.01368 -3.16406,-2.30079 0,2.87696 7.19336,5.50586 0,5.42773 -4.0293,-2.87695 0,1.72461 0,4.3164 7.76953,0 -2.30273,3.16407 2.87695,0 5.50391,-7.19141 5.42968,0 -2.87695,4.02734 1.72656,0 2.01367,0 2.30079,0 0.57617,0 4.89062,0 2.87891,0 -2.30274,3.16407 2.87696,0 5.5039,-7.19141 5.42969,0 -2.87695,4.02734 1.72656,0 1.4375,0 2.87695,0 0.57422,0 4.31836,0 3.45117,0 -2.30273,3.16407 2.87695,0 5.50391,-7.19141 5.42969,0 -2.87696,4.02734 1.72657,0 4.31445,0 0,-7.76757 3.16601,2.30078 0,-2.87696 -7.19336,-5.50586 0,-5.42773 4.02735,2.87695 0,-1.72656 0,-2.01367 0.002,0 0,-7.76758 -0.002,0 0,-2.87695 3.16601,2.30078 0,-2.87695 -7.19336,-5.50586 0,-5.42774 4.02735,2.87696 0,-1.72657 0,-4.31445 -7.76758,0 2.30273,-3.16602 -2.8789,0 -5.50586,7.19336 -4.5625,0 0,9.82227 0,5.42773 -4.0293,-2.87695 0,1.72461 0,4.31641 0.002,0 0,0.57617 -0.002,0 -0.57422,0 -5.7539,0 -2.01367,0 2.30273,-3.16602 -2.87891,0 -5.50586,7.19336 -5.42578,0 2.87696,-4.02734 -1.72657,0 -1.43945,0 -2.87695,0 -0.57617,0 0,-0.57617 0,-4.31641 0,-3.45117 0,-2.87891 -0.43165,-0.45117 -3.5957,-2.75195 0,-8.5918 -3.74023,0 2.30273,-3.16602 -2.8789,0 z"
       id="path11592-4-1-7"
       inkscape:connector-curvature="0"
       transform="translate(230.31496,292.32283)" />
  </g>
  <g
     inkscape:groupmode="layer"
     id="layer7"
     inkscape:label="Spacer"
     style="display:none">
    <g
       id="g14171-8-6-11-88"
       style="display:inline"
       transform="matrix(0,-1,1,0,-62.156685,529.25953)" />
    <g
       id="g14171-8-6-11-89"
       style="display:inline"
       transform="translate(-23.446776,-62.14959)" />
    <g
       id="g14171-8-6-11-33"
       style="display:inline"
       transform="translate(-45.888665,-62.14959)" />
    <g
       id="g14171-8-6-11-888"
       style="display:inline"
       transform="matrix(0,-1,1,0,-108.19133,529.83496)" />
    <g
       id="g14171-8-6-11-303"
       style="display:inline"
       transform="translate(-115.51607,-62.1496)" />
    <g
       id="g14171-8-6-11-5"
       style="display:inline"
       transform="translate(-137.38252,-62.1496)" />
    <g
       id="g14171-8-6-11-46"
       style="display:inline"
       transform="matrix(0,-1,1,0,-177.2433,529.54725)" />
    <g
       id="g14171-8-6-11-47"
       style="display:inline"
       transform="matrix(0,-1,1,0,-177.2433,506.24221)" />
    <g
       id="g14171-8-6-11-5-9"
       style="display:inline"
       transform="translate(-229.45182,-62.14959)" />
    <g
       id="g14171-8-6-11-46-8"
       style="display:inline"
       transform="matrix(0,-1,1,0,-269.3126,529.54725)" />
    <g
       id="g14171-8-6-11-5-1"
       style="display:inline"
       transform="translate(-206.43449,-85.16692)" />
    <g
       id="g14171-8-6-11-46-1"
       style="display:inline"
       transform="matrix(0,-1,1,0,-246.29527,506.52994)" />
    <g
       id="g14171-8-6-11-5-8"
       style="display:inline"
       transform="translate(-160.39985,-177.23621)" />
    <g
       id="g14171-8-6-11-46-6"
       style="display:inline"
       transform="matrix(0,-1,1,0,-200.26063,414.46064)" />
    <g
       id="g14171-8-6-11-5-2"
       style="display:inline"
       transform="translate(-183.70488,-177.23621)" />
    <g
       id="g14171-8-6-11-46-84"
       style="display:inline"
       transform="matrix(0,-1,1,0,-246.29528,437.19025)" />
    <g
       id="g14171-8-6-11-46-84-0"
       style="display:inline"
       transform="matrix(0,-1,1,0,-292.32992,437.47795)" />
    <g
       id="g14171-8-6-11-46-84-9"
       style="display:inline"
       transform="matrix(0,-1,1,0,-292.32992,414.17292)" />
    <g
       id="g14171-8-6-11-46-84-8"
       style="display:inline"
       transform="matrix(0,-1,1,0,-292.32992,391.15559)" />
    <path
       style="color:#000000;clip-rule:nonzero;display:inline;overflow:visible;visibility:visible;opacity:1;isolation:auto;mix-blend-mode:normal;color-interpolation:sRGB;color-interpolation-filters:linearRGB;solid-color:#000000;solid-opacity:1;fill:#000000;fill-opacity:0.41666667;fill-rule:nonzero;stroke:none;stroke-width:1.5;stroke-linecap:round;stroke-linejoin:round;stroke-miterlimit:4;stroke-dasharray:none;stroke-dashoffset:0;stroke-opacity:1;color-rendering:auto;image-rendering:auto;shape-rendering:auto;text-rendering:auto;enable-background:accumulate"
       d="m 23.304688,23.3125 0,7.767578 0,2.998047 4.029296,3.083984 0,5.427735 -4.029296,-2.876953 0,1.724609 0,4.316406 5.466796,0 0,-5.466797 8.63086,0 0,1.439453 5.179687,0 -2.876953,4.027344 12.083984,0 0,-5.466797 8.63086,0 0,1.439453 5.179687,0 -2.876953,4.027344 6.617188,0 0,0.576172 0,5.466797 5.466797,0 0,8.630859 -1.439453,0 0,5.179688 -4.027344,-2.875 0,6.039062 7.767578,0 2.996094,0 3.082031,-4.027343 5.429687,0 -2.876953,4.027343 6.041016,0 0,-5.466796 -5.464844,0 0,-8.63086 1.439453,0 0,-5.179687 4.025391,2.876953 0,-1.726563 0,-1.726562 0.002,0 0,-3.164063 0.574219,0 5.46875,0 0,-5.466797 8.630864,0 0,1.439453 5.17773,0 -2.87695,4.027344 6.04102,0 0,-7.767578 0.002,0.002 0,-3 -4.0293,-3.083984 0,-5.427735 4.02735,2.876954 0,-1.726563 0,-4.314453 -7.76758,0 -3,0 -3.08203,4.027344 -5.425789,0 2.876954,-4.027344 -14.386719,0 -3,0 -3.082031,4.027344 -5.425782,0 2.876953,-4.027344 -14.384765,0 -3,0 -3.082032,4.027344 -5.425781,0 2.876953,-4.027344 -14.386718,0 -3,0 -3.082032,4.027344 -5.425781,0 2.876953,-4.027344 -1.726562,0 -4.316406,0 z m 138.103512,0 0,7.767578 0,2.998047 4.0293,3.083984 0,5.427735 -4.0293,-2.876953 0,1.724609 0,1.726562 0,2.589844 0,0.576172 0,4.603516 0,3.164062 0,2.998047 4.0293,3.083985 0,5.427734 -4.0293,-2.876953 0,1.724609 0,1.726563 0,2.589843 0,0.576172 0,4.603516 0,3.164062 0,2.998047 4.0293,3.083985 0,5.427734 -4.0293,-2.876953 0,1.724609 0,1.726563 0,2.589843 0,0.574219 0,4.603516 0,3.164063 0,2.99805 4.0293,3.08398 0,5.42773 -4.0293,-2.87695 0,1.72461 0,1.72852 0,2.58789 0,0.57617 0,4.60352 0,3.16406 0,2.99804 4.0293,3.08399 0,5.42773 -4.0293,-2.87695 0,1.72461 0,4.31641 7.76953,0 -0.002,0.002 2.9961,0 3.08398,-4.0293 5.42969,0 -2.87696,4.02735 1.72657,0 4.31445,0 0,-7.76758 0.002,0.002 0,-3 -4.02929,-3.08398 0,-5.42774 4.02734,2.87696 0,-1.72657 0,-1.72461 0.002,0 0,-8.63086 -0.002,0 0,-2.30273 0.002,0.002 0,-3 -4.02929,-3.08398 0,-5.427736 4.02734,2.876953 0,-1.726563 0,-1.724609 0.002,0 0,-8.630859 -0.002,0 0,-2.300782 0.002,0.002 0,-3 -4.02929,-3.083985 0,-5.427734 4.02734,2.876953 0,-1.726563 0,-1.726562 0.002,0 0,-8.630859 -0.002,0 0,-2.300782 0.002,0.002 0,-3 -4.02929,-3.083984 0,-5.427734 4.02734,2.876953 0,-1.726563 0,-1.726562 0.002,0 0,-8.63086 -0.002,0 0,-2.300781 0.002,0.002 0,-3 -4.02929,-3.083984 0,-5.427735 4.02734,2.876954 0,-1.726563 0,-4.314453 -7.76758,0 -3,0 -3.08203,4.027344 -5.42578,0 2.87695,-4.027344 -1.72656,0 -4.31641,0 z m 46.03516,0 0,7.767578 0,2.998047 4.0293,3.083984 0,5.427735 -4.0293,-2.876953 0,1.724609 0,2.015625 0,2.300781 0,0.576172 0,4.890625 0,2.876953 0,2.998047 4.0293,3.083985 0,5.427734 -4.0293,-2.876953 0,1.724609 0,2.013672 0,2.302734 0,0.576172 0,4.890625 0,2.876953 0,2.998047 4.0293,3.083985 0,5.427734 -4.0293,-2.876953 0,1.724609 0,4.316406 7.76953,0 2.99609,0 3.08204,-4.027343 5.42968,0 -2.87695,4.027343 6.04102,0 0,-5.466796 -5.4668,0 0,-8.63086 1.43945,0 0,-5.179687 4.02735,2.876953 0,-1.726563 0,-1.4375 0,-2.876953 0,-0.576172 0,-5.179687 0,-0.287109 -5.4668,0 0,-8.63086 1.43945,0 0,-5.179687 4.02735,2.876953 0,-1.726563 0,-1.4375 0,-2.876953 0,-0.576172 0.57617,0 5.46679,0 0,-5.466797 8.63086,0 0,1.439453 5.17969,0 -2.87695,4.027344 12.08398,0 0,-5.466797 8.63086,0 0,1.439453 5.17774,0 -2.87696,4.027344 6.04102,0 0,-7.767578 0.002,0.002 0,-3 -4.0293,-3.083984 0,-5.427735 4.02735,2.876954 0,-1.726563 0,-4.314453 -7.76758,0 -3,0 -3.08203,4.027344 -5.42578,0 2.87695,-4.027344 -14.38476,0 -3,0 -3.08204,4.027344 -5.42578,0 2.87696,-4.027344 -14.38672,0 -3,0 -3.08203,4.027344 -5.42578,0 2.87695,-4.027344 -1.72656,0 -4.31641,0 z m 92.07031,23.017578 0,5.466797 5.4668,0 0,8.630859 -1.43945,0 0,5.179688 -4.02735,-2.875 0,6.039062 0,0.576172 -6.04297,0 0,5.464844 -8.63086,0 0,-1.4375 -5.17968,0 2.87695,-4.027344 -9.20703,0 0,4.191406 0,1.273438 -1.43946,0 -1.4375,0 -5.7539,0 0,-4.875 -2.63086,3.4375 -5.42578,0 2.87695,-4.027344 -1.72656,0 -4.31445,0 0,10.767578 4.02734,3.082032 0,5.427734 -4.02734,-2.875 0,6.039062 5.46679,0 0,-5.466796 8.63086,0 0,1.439453 5.17774,0 -2.87696,4.027343 6.61914,0 0,0.574219 0,5.466797 5.4668,0 0,8.632812 -1.43945,0 0,5.17773 -4.02735,-2.875 0,6.03907 7.76758,0 -0.002,0.002 2.99609,0 3.08399,-4.0293 5.42968,0 -2.87695,4.02735 1.72656,0 4.31446,0 0,-5.46485 -5.46485,0 0,-8.63281 1.4375,0 0,-5.179686 4.02735,2.876953 0,-1.726563 0,-1.724609 0.002,0 0,-3.164063 0.57422,0 5.46875,0 0,-5.466796 8.63086,0 0,1.439453 5.17773,0 -2.87695,4.027343 6.04101,0 0,-7.767578 0.002,0.002 0,-3 -4.0293,-3.083985 0,-5.427734 4.02734,2.876953 0,-1.726563 0,-1.726562 0.002,0 0,-8.630859 -0.002,0 0,-2.300782 0.002,0.002 0,-3 -4.0293,-3.083984 0,-5.427734 4.02734,2.876953 0,-1.726563 0,-4.314453 -7.76757,0 -3,0 -3.08203,4.027344 -5.42579,0 2.87696,-4.027344 -1.72657,0 -4.31445,0 z m -276.208982,46.033203 0,7.767579 0,2.99805 4.029296,3.08398 0,5.42773 -4.029296,-2.87695 0,1.72461 0,1.44141 0,2.875 0,0.57617 0,5.17969 0,2.58789 0,2.99804 4.029296,3.08399 0,5.42773 -4.029296,-2.87695 0,1.72461 0,1.43945 0,2.87696 0,0.57617 0,5.17968 0,2.5879 0,2.99804 4.029296,3.08399 0,5.42773 -4.029296,-2.87695 0,1.72461 0,1.72851 0,2.58789 0,0.57618 0,5.46679 0,2.30078 0,2.99805 4.029296,3.08398 0,5.42774 -4.029296,-2.87695 0,1.72461 0,4.3164 7.769531,0 2.996093,0 3.082032,-4.02734 5.429687,0 -2.876953,4.02734 6.041016,0 0,-5.4668 -5.464844,0 0,-8.63085 1.4375,0 0,-5.17969 4.027344,2.87695 0,-1.72656 0,-1.72461 0,-2.58984 0,-0.57618 0,-4.60351 0,-0.86328 -5.464844,0 0,-8.63086 1.4375,0 0,-5.17969 4.027344,2.87695 0,-1.72656 0,-2.01172 0,-2.30273 0,-0.57617 0,-4.89063 0,-0.57422 -5.464844,0 0,-8.63281 1.4375,0 0,-5.17969 4.027344,2.87696 0,-1.72657 0,-2.01172 0,-2.30273 0,-0.57422 5.755859,0 0,-0.002 0.287109,0 0,-5.46485 8.63086,0 0,1.4375 5.179687,0 -2.876953,4.02735 1.726563,0 4.314453,0 0,-7.76758 0,-3 -4.027344,-3.08203 0,-5.427736 4.027344,2.876953 0,-1.726563 0,-4.314453 -7.767578,0 -3,0 -3.082032,4.027344 -5.425781,0 2.876953,-4.027344 -14.386718,0 -3,0 -3.082032,4.027344 -5.425781,0 2.876953,-4.027344 -1.726562,0 -4.316406,0 z m 322.242192,0 0,5.466797 5.46679,0 0,8.632812 -1.4375,0 0,5.17773 -4.02929,-2.87695 0,1.72461 0,1.72852 0,2.58789 0,0.57617 0,5.4668 5.46679,0 0,8.63281 -1.4375,0 0,5.17773 -4.02929,-2.87695 0,1.72461 0,1.72852 0,2.58789 0,0.57617 -6.04102,0 0,5.46679 -8.63281,0 0,-1.43945 -5.17774,0 2.87696,-4.02734 -1.72657,0 -4.3164,0 0,7.76758 0,2.99804 4.02929,3.08399 0,5.42773 -4.02929,-2.87695 0,1.72461 0,2.01562 0,2.87696 0,5.7539 0,2.01367 0,2.99805 4.02929,3.08398 0,5.42774 -4.02929,-2.87695 0,1.72461 0,4.3164 7.76953,0 2.99609,0 3.08203,-4.02734 5.42969,0 -2.87695,4.02734 6.04101,0 0,-5.4668 -5.46484,0 0,-8.63085 1.4375,0 0,-5.17969 4.02734,2.87695 0,-1.72656 0,-1.4375 0.002,0 0,-3.45313 0.57422,0 5.46679,0 0,-5.46679 8.63281,0 0,1.43945 5.17774,0 -2.87695,4.02734 6.04101,0 0,-7.76757 0.002,0.002 0,-3 -4.02929,-3.08399 0,-5.42773 4.02734,2.87695 0,-1.72656 0,-1.72461 0.002,0 0,-7.76758 -0.002,0 0,-3.16601 0.002,0.002 0,-3 -4.02929,-3.08398 0,-5.42774 4.02734,2.87696 0,-1.72657 0,-1.72461 0.002,0 0,-7.76758 -0.002,0 0,-3.16601 0.002,0.002 0,-3 -4.02929,-3.08398 0,-5.427736 4.02734,2.876953 0,-1.726563 0,-4.314453 -7.76758,0 -3,0 -3.08203,4.027344 -5.42578,0 2.87695,-4.027344 -1.72656,0 -4.3164,0 z M 115.375,115.38086 l 0,5.4668 5.4668,0 0,8.63281 -1.43946,0 0,5.17773 -4.02734,-2.875 0,6.03907 0,0.57617 -6.04297,0 0,5.46679 -8.63086,0 0,-1.43945 -5.179686,0 2.876954,-4.02734 -12.083985,0 0,5.46679 -8.630859,0 0,-1.43945 -5.179688,0 2.876953,-4.02734 -1.726562,0 -4.314453,0 0,10.76758 4.027344,3.08203 0,5.42773 -4.027344,-2.875 0,6.03906 0,0.57618 0,10.76757 4.027344,3.08203 0,5.42774 -4.027344,-2.875 0,6.03906 7.767578,0 2.996094,0 3.082031,-4.02734 5.429687,0 -2.876953,4.02734 6.041016,0 0,-5.4668 -5.464844,0 0,-8.63085 1.439453,0 0,-5.17969 4.025391,2.87695 0,-1.72656 0,-2.01172 0.002,0 0,-2.87891 0.574219,0 5.46875,0 0,-5.46679 8.630864,0 0,1.43945 5.17773,0 -2.87695,4.02734 12.08594,0 0,-5.46679 8.63086,0 0,1.43945 5.17773,0 -2.87695,4.02734 6.04101,0 0,-7.76757 0.002,0.002 0,-3 -4.0293,-3.08399 0,-5.42773 4.02734,2.87695 0,-1.72656 0,-1.72461 0.002,0 0,-7.76758 -0.002,0 0,-3.16601 0.002,0.002 0,-3 -4.0293,-3.08398 0,-5.42774 4.02734,2.87696 0,-1.72657 0,-4.31445 -7.76757,0 -3,0 -3.08204,4.02734 -5.42578,0 2.87696,-4.02734 -1.72657,0 -4.31445,0 z m 92.06836,23.01758 0,5.46679 5.4668,0 0,8.63086 -1.4375,0 0,5.17969 -4.0293,-2.87695 0,1.72461 0,1.72851 0,3.16407 -6.04102,0 0,5.46679 -8.63281,0 0,-1.43945 -5.17773,0 2.87695,-4.02734 -1.72656,0 -4.31641,0 0,7.76757 0,2.99805 4.0293,3.08398 0,5.42774 -4.0293,-2.87695 0,1.72461 0,4.3164 5.4668,0 0,-5.4668 8.63086,0 0,1.43946 5.17968,0 -2.87695,4.02734 6.61719,0 0,0.57617 0,4.60352 0,0.86328 5.4668,0 0,8.63086 -1.4375,0 0,5.17969 -4.0293,-2.87696 0,1.72461 0,4.31641 7.76953,0 2.99609,0 3.08204,-4.02734 5.42968,0 -2.87695,4.02734 6.04102,0 0,-5.4668 -5.4668,0 0,-8.63086 1.43945,0 0,-5.17968 4.02735,2.87695 0,-1.72656 0,-1.72461 0,-2.58985 0,-0.57617 0.57617,0 5.46679,0 0,-5.4668 8.63086,0 0,1.43946 5.17969,0 -2.87695,4.02734 6.04101,0 0,-7.76758 0,-3 -4.02734,-3.08203 0,-5.42773 4.02734,2.87695 0,-1.72656 0,-4.31445 -5.46679,0 0,5.46679 -8.63086,0 0,-1.43945 -5.17774,0 2.87696,-4.02734 -6.04297,0 -0.57617,0 0,-0.57618 0,-4.60351 0,-0.86328 -8.34375,0 0,-8.63086 4.3164,0 0,-5.17969 4.02735,2.87695 0,-1.72656 0,-4.31445 -7.76758,0 -3,0 -3.08203,4.02734 -5.42578,0 2.87695,-4.02734 -1.72656,0 -4.31641,0 z m -138.103516,69.05273 0,5.4668 5.466797,0 0,8.63086 -1.439453,0 0,5.17969 -4.027344,-2.875 0,6.03906 0,0.57617 -6.042969,0 0,5.4668 -8.630859,0 0,-1.43946 -5.177735,0 2.876953,-4.02734 -1.726562,0 -4.316406,0 0,5.4668 5.466796,0 0,8.63086 -1.4375,0 0,5.17968 -4.029296,-2.87695 0,1.72461 0,1.72656 0,2.58985 0,0.57422 0,0.002 -0.576172,0 -4.603516,0 -0.861328,0 0,5.46484 -8.632812,0 0,-1.4375 -5.177735,0 2.876953,-4.02734 -1.726562,0 -4.316406,0 0,7.76758 0,2.99804 4.029296,3.08399 0,5.42773 -4.029296,-2.87695 0,1.72461 0,4.3164 7.769531,0 2.996093,0 3.082032,-4.02734 5.429687,0 -2.876953,4.02734 14.386719,0 2.996094,0 3.082031,-4.02734 5.429687,0 -2.876953,4.02734 6.041016,0 0,-5.46679 -5.466797,0 0,-8.63086 1.439453,0 0,-5.17969 4.027344,2.87695 0,-1.72656 0,-1.72656 0,-2.58789 0,-0.57617 0.574219,0 5.46875,0 0,-5.4668 8.630859,0 0,1.43945 5.177734,0 -2.876953,4.02735 6.041016,0 0,-7.76758 0.002,0.002 0,-3 -4.027344,-3.08398 0,-5.42774 4.025391,2.87696 0,-1.72657 0,-1.72656 0.002,0 0,-7.76758 -0.002,0 0,-3.16406 0.002,0.002 0,-3 -4.027344,-3.08398 0,-5.42774 4.025391,2.87696 0,-1.72657 0,-4.31445 -7.767578,0 -3,0 -3.082031,4.02735 -5.425782,0 2.876953,-4.02735 -1.726562,0 -4.314453,0 z m 69.052736,0 0,5.4668 5.46484,0 0,8.63086 -1.4375,0 0,5.17969 -4.02734,-2.875 0,6.03906 0,0.57617 0,5.4668 5.46484,0 0,8.63086 -1.4375,0 0,5.17968 -4.02734,-2.875 0,6.03907 0,0.57422 -5.17969,0 0,0.002 -0.86328,0 0,5.46484 -8.63086,0 0,-1.4375 -5.17969,0 2.87696,-4.02734 -1.72657,0 -4.31445,0 0.10352,10.84765 3.92382,3.00196 0,5.42773 -3.86914,-2.76172 0.0566,5.92578 7.55274,0 -0.0898,0.12305 2.9961,-0.006 3.17187,-4.14453 5.42969,0 -2.87695,4.02734 1.72656,0 2.58984,0 1.72461,0 0.57617,0 5.4668,0 2.30274,0 -0.0566,0.0762 2.99804,-0.006 3.13672,-4.09766 5.42969,0 -2.87695,4.02734 1.72656,0 1.43945,0 2.875,0 0.57617,0 4.31641,0 3.45312,0 -0.0215,0.0293 3,-0.006 3.09961,-4.05078 5.42969,0 -2.87696,4.02734 1.72657,0 4.31445,0 0,-7.76757 0.002,0.002 0,-3 -4.02929,-3.08399 0,-5.42773 4.02734,2.87695 0,-1.72656 0,-4.31445 -5.46484,0 0,5.46484 -8.63282,0 0,-1.4375 -5.17773,0 2.87695,-4.02734 -1.72656,0 -2.01367,0 0,-0.002 -2.87696,0 0,-5.17774 -0.002,0 0,-0.86328 -5.46484,0 0,-8.63086 1.4375,0 0,-5.17969 4.02734,2.87696 0,-1.72657 0,-2.01367 0.002,0 0,-7.76758 -0.002,0 0,-0.57617 -5.46484,0 0,-8.63086 1.4375,0 0,-5.17969 4.02734,2.87696 0,-1.72657 0,-4.31445 -7.76758,0 -3,0 -3.08203,4.02735 -5.42578,0 2.87695,-4.02735 -1.72656,0 -4.31445,0 z m 184.13672,0 0,5.4668 5.46679,0 0,8.63086 -1.4375,0 0,5.17969 -4.02929,-2.87696 0,1.72461 0,1.72656 0,2.58985 0,0.57617 -6.04102,0 0,5.4668 -8.63086,0 0,-1.43946 -5.17969,0 2.87696,-4.02734 -1.72657,0 -4.31445,0 0,10.76758 4.02735,3.08203 0,5.42773 -4.02735,-2.875 0,6.03907 0,0.57617 0,10.76758 4.02735,3.08203 0,5.42773 -4.02735,-2.875 0,6.03906 7.76758,0 2.99609,0 3.08204,-4.02734 5.42968,0 -2.87695,4.02734 14.38672,0 2.99609,0 3.08203,-4.02734 5.42969,0 -2.87695,4.02734 6.04101,0 0,-7.76757 0.002,0.002 0,-3 -4.0293,-3.08399 0,-5.42773 4.02734,2.87695 0,-1.72656 0,-2.30078 0.002,0 0,-7.76953 -0.002,0 0,-2.58789 0.002,0.002 0,-3 -4.0293,-3.08398 0,-5.42774 4.02734,2.87696 0,-1.72657 0,-1.72656 0.002,0 0,-7.76758 -0.002,0 0,-3.16406 0.002,0.002 0,-3 -4.0293,-3.08398 0,-5.42774 4.02734,2.87696 0,-1.72657 0,-4.31445 -7.76758,0 -3,0 -3.08203,4.02735 -5.42578,0 2.87696,-4.02735 -1.72657,0 -4.3164,0 z m -115.08594,23.01758 0,7.76758 0,2.99805 4.0293,3.08398 0,5.42773 -4.0293,-2.87695 0,1.72461 0,2.01367 0,2.30274 0,0.57617 0,5.7539 0,2.01368 0,2.99804 4.0293,3.08399 0,5.42773 -4.0293,-2.87695 0,1.72461 0,4.3164 7.76953,0 2.99609,0 3.08204,-4.02734 5.42968,0 -2.87695,4.02734 14.38672,0 2.99609,0 3.08203,-4.02734 5.42969,0 -2.87695,4.02734 14.38476,0 2.9961,0 3.08203,-4.02734 5.42969,0 -2.87696,4.02734 6.04102,0 0,-7.76757 0.002,0.002 0,-3 -4.0293,-3.08399 0,-5.42773 4.02735,2.87695 0,-1.72656 0,-2.01367 0.002,0 0,-7.76758 -0.002,0 0,-2.87695 0.002,0.002 0,-3 -4.0293,-3.08398 0,-5.42774 4.02735,2.87696 0,-1.72657 0,-4.31445 -7.76758,0 -3,0 -3.08203,4.02734 -4.5625,0 0,9.82227 0,5.42773 -4.02734,-2.875 0,6.03907 0,0.57422 0,0.002 -0.002,0 -0.57422,0 -5.7539,0 -2.01367,0 0.002,-0.002 -3,0 -3.08399,4.02929 -5.42578,0 2.87696,-4.02734 -1.72657,0 -1.43945,0 -2.87695,0 -0.57617,0 0,-0.002 0,-0.57422 0,-4.31641 0,-3.45117 0,-2.87891 -0.43165,-0.45117 -3.5957,-2.75195 0,-8.5918 -3.74023,0 -3,0 -3.08203,4.02734 -5.42578,0 2.87695,-4.02734 -1.72656,0 -4.31641,0 z"
       id="rect8083-6"
       inkscape:connector-curvature="0" />
  </g>
  <g
     inkscape:groupmode="layer"
     id="layer2"
     inkscape:label="bottom-top"
     style="display:inline"
     transform="translate(-230.31496,15.94489)">
    <path
       style="color:#000000;clip-rule:nonzero;display:inline;overflow:visible;visibility:visible;opacity:1;isolation:auto;mix-blend-mode:normal;color-interpolation:sRGB;color-interpolation-filters:linearRGB;solid-color:#000000;solid-opacity:1;fill:#000000;fill-opacity:0.41666667;fill-rule:nonzero;stroke:none;stroke-width:1.5;stroke-linecap:round;stroke-linejoin:round;stroke-miterlimit:4;stroke-dasharray:none;stroke-dashoffset:0;stroke-opacity:1;color-rendering:auto;image-rendering:auto;shape-rendering:auto;text-rendering:auto;enable-background:accumulate"
       d="m 253.62,7.3672372 0,22.4418898 46.03464,0 0,23.017323 22.44189,0 0,-23.017323 23.01733,0 0,-22.4418898 z"
       id="rect8083"
       inkscape:connector-curvature="0"
       sodipodi:nodetypes="ccccccccc" />
    <path
       style="color:#000000;clip-rule:nonzero;display:inline;overflow:visible;visibility:visible;opacity:1;isolation:auto;mix-blend-mode:normal;color-interpolation:sRGB;color-interpolation-filters:linearRGB;solid-color:#000000;solid-opacity:1;fill:#00ff00;fill-opacity:0.41666667;fill-rule:nonzero;stroke:none;stroke-width:1.5;stroke-linecap:round;stroke-linejoin:round;stroke-miterlimit:4;stroke-dasharray:none;stroke-dashoffset:0;stroke-opacity:1;color-rendering:auto;image-rendering:auto;shape-rendering:auto;text-rendering:auto;enable-background:accumulate"
       d="m 253.62,76.419205 0,91.493855 22.44189,0 0,-69.051965 23.01732,0 0,-22.44189 z"
       id="rect8147"
       inkscape:connector-curvature="0"
       sodipodi:nodetypes="ccccccc" />
    <path
       style="color:#000000;clip-rule:nonzero;display:inline;overflow:visible;visibility:visible;opacity:1;isolation:auto;mix-blend-mode:normal;color-interpolation:sRGB;color-interpolation-filters:linearRGB;solid-color:#000000;solid-opacity:1;fill:#ff00ff;fill-opacity:0.41666667;fill-rule:nonzero;stroke:none;stroke-width:1.5;stroke-linecap:round;stroke-linejoin:round;stroke-miterlimit:4;stroke-dasharray:none;stroke-dashoffset:0;stroke-opacity:1;color-rendering:auto;image-rendering:auto;shape-rendering:auto;text-rendering:auto;enable-background:accumulate"
       d="m 345.68929,99.436528 0,23.017322 -46.03465,0 0,45.45921 22.44189,0 0,-23.01732 46.03465,0 0,-45.459212 z"
       id="rect8147-3-1"
       inkscape:connector-curvature="0"
       sodipodi:nodetypes="ccccccccc" />
    <path
       style="color:#000000;clip-rule:nonzero;display:inline;overflow:visible;visibility:visible;opacity:1;isolation:auto;mix-blend-mode:normal;color-interpolation:sRGB;color-interpolation-filters:linearRGB;solid-color:#000000;solid-opacity:1;fill:#808000;fill-opacity:0.41666667;fill-rule:nonzero;stroke:none;stroke-width:1.5;stroke-linecap:round;stroke-linejoin:round;stroke-miterlimit:4;stroke-dasharray:none;stroke-dashoffset:0;stroke-opacity:1;color-rendering:auto;image-rendering:auto;shape-rendering:auto;text-rendering:auto;enable-background:accumulate"
       d="m 391.72393,7.3672372 0,114.5111828 22.44189,0 0,-114.5111828 z"
       id="rect8147-3-2"
       inkscape:connector-curvature="0"
       sodipodi:nodetypes="ccccc" />
    <path
       style="color:#000000;clip-rule:nonzero;display:inline;overflow:visible;visibility:visible;opacity:1;isolation:auto;mix-blend-mode:normal;color-interpolation:sRGB;color-interpolation-filters:linearRGB;solid-color:#000000;solid-opacity:1;fill:#ffff00;fill-opacity:0.41666667;fill-rule:nonzero;stroke:none;stroke-width:1.5;stroke-linecap:round;stroke-linejoin:round;stroke-miterlimit:4;stroke-dasharray:none;stroke-dashoffset:0;stroke-opacity:1;color-rendering:auto;image-rendering:auto;shape-rendering:auto;text-rendering:auto;enable-background:accumulate"
       d="m 437.75858,7.3672372 0,68.4765348 22.44189,0 0,-46.034645 46.03464,0 0,-22.4418898 z"
       id="rect8147-3-5"
       inkscape:connector-curvature="0"
       sodipodi:nodetypes="ccccccc" />
    <path
       style="color:#000000;clip-rule:nonzero;display:inline;overflow:visible;visibility:visible;opacity:1;isolation:auto;mix-blend-mode:normal;color-interpolation:sRGB;color-interpolation-filters:linearRGB;solid-color:#000000;solid-opacity:1;fill:#008080;fill-opacity:0.41666667;fill-rule:nonzero;stroke:none;stroke-width:1.5;stroke-linecap:round;stroke-linejoin:round;stroke-miterlimit:4;stroke-dasharray:none;stroke-dashoffset:0;stroke-opacity:1;color-rendering:auto;image-rendering:auto;shape-rendering:auto;text-rendering:auto;enable-background:accumulate"
       d="m 437.75858,122.45385 0,23.01732 -23.01732,0 0,22.44189 23.01732,0 0,23.01733 22.44189,0 0,-23.01733 23.01732,0 0,-22.44189 -23.01732,0 0,-23.01732 z"
       id="rect8147-3-29"
       inkscape:connector-curvature="0"
       sodipodi:nodetypes="ccccccccccccc" />
    <path
       style="color:#000000;clip-rule:nonzero;display:inline;overflow:visible;visibility:visible;opacity:1;isolation:auto;mix-blend-mode:normal;color-interpolation:sRGB;color-interpolation-filters:linearRGB;solid-color:#000000;solid-opacity:1;fill:#00ffff;fill-opacity:0.41666667;fill-rule:nonzero;stroke:none;stroke-width:1.5;stroke-linecap:round;stroke-linejoin:round;stroke-miterlimit:4;stroke-dasharray:none;stroke-dashoffset:0;stroke-opacity:1;color-rendering:auto;image-rendering:auto;shape-rendering:auto;text-rendering:auto;enable-background:accumulate"
       d="m 575.86251,76.419205 0,46.034645 -23.01732,0 0,45.45921 22.44189,0 0,-23.01732 23.01732,0 0,-68.476535 z"
       id="rect8147-3"
       inkscape:connector-curvature="0"
       sodipodi:nodetypes="ccccccccc" />
    <path
       style="color:#000000;clip-rule:nonzero;display:inline;overflow:visible;visibility:visible;opacity:1;isolation:auto;mix-blend-mode:normal;color-interpolation:sRGB;color-interpolation-filters:linearRGB;solid-color:#000000;solid-opacity:1;fill:#800000;fill-opacity:0.41666667;fill-rule:nonzero;stroke:none;stroke-width:1.5;stroke-linecap:round;stroke-linejoin:round;stroke-miterlimit:4;stroke-dasharray:none;stroke-dashoffset:0;stroke-opacity:1;color-rendering:auto;image-rendering:auto;shape-rendering:auto;text-rendering:auto;enable-background:accumulate"
       d="m 299.65464,191.50582 0,23.01732 -23.01732,0 0,23.01732 -23.01732,0 0,22.44189 45.45921,0 0,-23.01732 23.01732,0 0,-45.45921 z"
       id="rect8147-3-3"
       inkscape:connector-curvature="0"
       sodipodi:nodetypes="ccccccccccc" />
    <path
       style="color:#000000;clip-rule:nonzero;display:inline;overflow:visible;visibility:visible;opacity:1;isolation:auto;mix-blend-mode:normal;color-interpolation:sRGB;color-interpolation-filters:linearRGB;solid-color:#000000;solid-opacity:1;fill:#ff0000;fill-opacity:0.41666667;fill-rule:nonzero;stroke:none;stroke-width:1.5;stroke-linecap:round;stroke-linejoin:round;stroke-miterlimit:4;stroke-dasharray:none;stroke-dashoffset:0;stroke-opacity:1;color-rendering:auto;image-rendering:auto;shape-rendering:auto;text-rendering:auto;enable-background:accumulate"
       d="m 368.70661,191.50582 0,46.03464 -23.01732,0 0.21686,22.58054 68.25967,-0.13865 0,-22.44189 -23.01732,0 0,-46.03464 z"
       id="rect8147-3-6"
       inkscape:connector-curvature="0"
       sodipodi:nodetypes="ccccccccc" />
    <path
       style="color:#000000;clip-rule:nonzero;display:inline;overflow:visible;visibility:visible;opacity:1;isolation:auto;mix-blend-mode:normal;color-interpolation:sRGB;color-interpolation-filters:linearRGB;solid-color:#000000;solid-opacity:1;fill:#008000;fill-opacity:0.41666667;fill-rule:nonzero;stroke:none;stroke-width:1.5;stroke-linecap:round;stroke-linejoin:round;stroke-miterlimit:4;stroke-dasharray:none;stroke-dashoffset:0;stroke-opacity:1;color-rendering:auto;image-rendering:auto;shape-rendering:auto;text-rendering:auto;enable-background:accumulate"
       d="m 529.82787,30.38456 0,23.017323 -46.03465,0 0,22.441889 23.01733,0 0,23.017323 22.44189,0 0,-23.017323 23.01732,0 0,-45.459212 z"
       id="rect8147-3-9"
       inkscape:connector-curvature="0"
       sodipodi:nodetypes="ccccccccccc" />
    <path
       style="color:#000000;clip-rule:nonzero;display:inline;overflow:visible;visibility:visible;opacity:1;isolation:auto;mix-blend-mode:normal;color-interpolation:sRGB;color-interpolation-filters:linearRGB;solid-color:#000000;solid-opacity:1;fill:#000080;fill-opacity:0.41666667;fill-rule:nonzero;stroke:none;stroke-width:1.5;stroke-linecap:round;stroke-linejoin:round;stroke-miterlimit:4;stroke-dasharray:none;stroke-dashoffset:0;stroke-opacity:1;color-rendering:auto;image-rendering:auto;shape-rendering:auto;text-rendering:auto;enable-background:accumulate"
       d="m 552.84519,191.50582 0,23.01732 -23.01732,0 0,45.45921 45.45921,0 0,-68.47653 z"
       id="rect8147-3-7-8-0"
       inkscape:connector-curvature="0"
       sodipodi:nodetypes="ccccccc" />
    <path
       style="color:#000000;clip-rule:nonzero;display:inline;overflow:visible;visibility:visible;opacity:1;isolation:auto;mix-blend-mode:normal;color-interpolation:sRGB;color-interpolation-filters:linearRGB;solid-color:#000000;solid-opacity:1;fill:#800080;fill-opacity:0.41666667;fill-rule:nonzero;stroke:none;stroke-width:1.5;stroke-linecap:round;stroke-linejoin:round;stroke-miterlimit:4;stroke-dasharray:none;stroke-dashoffset:0;stroke-opacity:1;color-rendering:auto;image-rendering:auto;shape-rendering:auto;text-rendering:auto;enable-background:accumulate"
       d="m 437.75858,214.52314 0,45.45921 68.47653,0 0,-45.45921 -22.44189,0 0,23.01732 -23.59275,0 0,-23.01732 z"
       id="rect8147-3-7-8-0-3"
       inkscape:connector-curvature="0"
       sodipodi:nodetypes="ccccccccc" />
  </g>
  <g
     inkscape:groupmode="layer"
     id="layer8"
     inkscape:label="grip"
     style="display:none">
    <path
       style="display:inline;fill:#0000ff;fill-opacity:0.73129255;fill-rule:evenodd;stroke:none;stroke-width:1px;stroke-linecap:butt;stroke-linejoin:miter;stroke-opacity:1"
       d="m -40.528785,50.357035 -5.50586,7.19336 -5.42578,0 2.87695,-4.02734 -1.72656,0 -4.31641,0 0,7.76757 -3.16406,-2.30078 0,2.87696 7.19336,5.50585 0,5.42774 -4.0293,-2.87695 0,1.72461 0,4.3164 7.76953,0 -2.30273,3.16406 2.87695,0 5.50391,-7.1914 5.42968,0 -2.87695,4.02734 1.72656,0 4.31446,0 0,-7.76758 3.16601,2.30078 0,-2.87695 -7.19336,-5.50586 0,-5.42773 4.02735,2.87695 0,-1.72656 0,-4.31445 -7.76758,0 2.30273,-3.16602 z m 25.89453,0 0,0.002 0.002,-0.002 z"
       id="path11592-4-1-7-0"
       inkscape:connector-curvature="0"
       sodipodi:nodetypes="ccccccccccccccccccccccccccccccccccccc" />
  </g>
</svg>
