  0
SECTION
  2
HEADER
  9
$ACADVER
  1
AC1014
  9
$HANDSEED
  5
FFFF
  9
$MEASUREMENT
 70
     1
  0
ENDSEC
  0
SECTION
  2
TABLES
  0
TABLE
  2
VPORT
  5
8
330
0
100
AcDbSymbolTable
 70
     4
  0
VPORT
  5
2E
330
8
100
AcDbSymbolTableRecord
100
AcDbViewportTableRecord
  2
*ACTIVE
 70
     0
 10
0.0
 20
0.0
 11
1.0
 21
1.0
 12
210.0
 22
148.5
 13
0.0
 23
0.0
 14
10.0
 24
10.0
 15
10.0
 25
10.0
 16
0.0
 26
0.0
 36
1.0
 17
0.0
 27
0.0
 37
0.0
 40
341.0
 41
1.24
 42
50.0
 43
0.0
 44
0.0
 50
0.0
 51
0.0
 71
     0
 72
   100
 73
     1
 74
     3
 75
     0
 76
     0
 77
     0
 78
     0
  0
ENDTAB
  0
TABLE
  2
LTYPE
  5
5
330
0
100
AcDbSymbolTable
 70
     1
  0
LTYPE
  5
14
330
5
100
AcDbSymbolTableRecord
100
AcDbLinetypeTableRecord
  2
BYBLOCK
 70
     0
  3

 72
    65
 73
     0
 40
0.0
  0
LTYPE
  5
15
330
5
100
AcDbSymbolTableRecord
100
AcDbLinetypeTableRecord
  2
BYLAYER
 70
     0
  3

 72
    65
 73
     0
 40
0.0
  0
LTYPE
  5
16
330
5
100
AcDbSymbolTableRecord
100
AcDbLinetypeTableRecord
  2
CONTINUOUS
 70
     0
  3
Solid line
 72
    65
 73
     0
 40
0.0
  0
ENDTAB
  0
TABLE
  2
LAYER
  5
2
100
AcDbSymbolTable
 70
2
  0
LAYER
  5
50
100
AcDbSymbolTableRecord
100
AcDbLayerTableRecord
  2
0
 70
0
  6
CONTINUOUS
  0
LAYER
  5
51
100
AcDbSymbolTableRecord
100
AcDbLayerTableRecord
  2
Layer_1
 70
0
  6
CONTINUOUS
  0
ENDTAB
  0
TABLE
  2
STYLE
  5
3
330
0
100
AcDbSymbolTable
 70
     1
  0
STYLE
  5
11
330
3
100
AcDbSymbolTableRecord
100
AcDbTextStyleTableRecord
  2
STANDARD
 70
     0
 40
0.0
 41
1.0
 50
0.0
 71
     0
 42
2.5
  3
txt
  4

  0
ENDTAB
  0
TABLE
  2
VIEW
  5
6
330
0
100
AcDbSymbolTable
 70
     0
  0
ENDTAB
  0
TABLE
  2
UCS
  5
7
330
0
100
AcDbSymbolTable
 70
     0
  0
ENDTAB
  0
TABLE
  2
APPID
  5
9
330
0
100
AcDbSymbolTable
 70
     2
  0
APPID
  5
12
330
9
100
AcDbSymbolTableRecord
100
AcDbRegAppTableRecord
  2
ACAD
 70
     0
  0
ENDTAB
  0
TABLE
  2
DIMSTYLE
  5
A
330
0
100
AcDbSymbolTable
 70
     1
  0
DIMSTYLE
105
27
330
A
100
AcDbSymbolTableRecord
100
AcDbDimStyleTableRecord
  2
ISO-25
 70
     0
  3

  4

  5

  6

  7

 40
1.0
 41
2.5
 42
0.625
 43
3.75
 44
1.25
 45
0.0
 46
0.0
 47
0.0
 48
0.0
140
2.5
141
2.5
142
0.0
143
0.03937007874016
144
1.0
145
0.0
146
1.0
147
0.625
 71
     0
 72
     0
 73
     0
 74
     0
 75
     0
 76
     0
 77
     1
 78
     8
170
     0
171
     3
172
     1
173
     0
174
     0
175
     0
176
     0
177
     0
178
     0
270
     2
271
     2
272
     2
273
     2
274
     3
340
11
275
     0
280
     0
281
     0
282
     0
283
     0
284
     8
285
     0
286
     0
287
     3
288
     0
  0
ENDTAB
  0
TABLE
  2
BLOCK_RECORD
  5
1
330
0
100
AcDbSymbolTable
 70
     1
  0
BLOCK_RECORD
  5
1F
330
1
100
AcDbSymbolTableRecord
100
AcDbBlockTableRecord
  2
*MODEL_SPACE
  0
BLOCK_RECORD
  5
1B
330
1
100
AcDbSymbolTableRecord
100
AcDbBlockTableRecord
  2
*PAPER_SPACE
  0
ENDTAB
  0
ENDSEC
  0
SECTION
  2
BLOCKS
  0
BLOCK
  5
20
330
1F
100
AcDbEntity
  8
0
100
AcDbBlockBegin
  2
*MODEL_SPACE
 70
     0
 10
0.0
 20
0.0
 30
0.0
  3
*MODEL_SPACE
  1

  0
ENDBLK
  5
21
330
1F
100
AcDbEntity
  8
0
100
AcDbBlockEnd
  0
BLOCK
  5
1C
330
1B
100
AcDbEntity
 67
     1
  8
0
100
AcDbBlockBegin
  2
*PAPER_SPACE
  1

  0
ENDBLK
  5
1D
330
1B
100
AcDbEntity
 67
     1
  8
0
100
AcDbBlockEnd
  0
ENDSEC
  0
SECTION
  2
ENTITIES
  0
LWPOLYLINE
  5
100
100
AcDbEntity
  8
Layer_1
 62
7
100
AcDbPolyline
 90
7
 70
1
 10
11.050000
 20
8.450000
 30
0.0
 10
11.050000
 20
7.699996
 30
0.0
 10
11.028750
 20
7.699996
 30
0.0
 10
11.028750
 20
8.428711
 30
0.0
 10
10.299993
 20
8.428711
 30
0.0
 10
10.299993
 20
8.450000
 30
0.0
 10
11.050000
 20
8.450000
 30
0.0
  0
LWPOLYLINE
  5
101
100
AcDbEntity
  8
Layer_1
 62
7
100
AcDbPolyline
 90
8
 70
1
 10
0.750004
 20
8.450000
 30
0.0
 10
0.750004
 20
8.428711
 30
0.0
 10
0.021249
 20
8.428711
 30
0.0
 10
0.021249
 20
7.699995
 30
0.0
 10
0.000000
 20
7.699995
 30
0.0
 10
0.000000
 20
8.439334
 30
0.0
 10
0.000000
 20
8.450000
 30
0.0
 10
0.750004
 20
8.450000
 30
0.0
  0
LWPOLYLINE
  5
102
100
AcDbEntity
  8
Layer_1
 62
7
100
AcDbPolyline
 90
7
 70
1
 10
0.021249
 20
0.599978
 30
0.0
 10
0.021249
 20
0.021249
 30
0.0
 10
0.750004
 20
0.021249
 30
0.0
 10
0.750004
 20
0.000000
 30
0.0
 10
0.000000
 20
0.000000
 30
0.0
 10
0.000000
 20
0.599978
 30
0.0
 10
0.021249
 20
0.599978
 30
0.0
  0
LWPOLYLINE
  5
103
100
AcDbEntity
  8
Layer_1
 62
7
100
AcDbPolyline
 90
7
 70
1
 10
11.050000
 20
0.599978
 30
0.0
 10
11.050000
 20
0.000000
 30
0.0
 10
10.299994
 20
0.000000
 30
0.0
 10
10.299994
 20
0.021249
 30
0.0
 10
11.028751
 20
0.021249
 30
0.0
 10
11.028751
 20
0.599978
 30
0.0
 10
11.050000
 20
0.599978
 30
0.0
  0
LWPOLYLINE
  5
104
100
AcDbEntity
  8
Layer_1
 62
7
100
AcDbPolyline
 90
84
 70
1
 10
0.657710
 20
7.792069
 30
0.0
 10
0.657710
 20
7.572851
 30
0.0
 10
0.657710
 20
7.488240
 30
0.0
 10
0.771426
 20
7.401203
 30
0.0
 10
0.771426
 20
7.248020
 30
0.0
 10
0.657710
 20
7.329214
 30
0.0
 10
0.657710
 20
7.280542
 30
0.0
 10
0.657710
 20
7.158723
 30
0.0
 10
0.811995
 20
7.158723
 30
0.0
 10
0.811995
 20
7.313008
 30
0.0
 10
1.055577
 20
7.313008
 30
0.0
 10
1.055577
 20
7.272384
 30
0.0
 10
1.201760
 20
7.272384
 30
0.0
 10
1.120566
 20
7.158723
 30
0.0
 10
1.461602
 20
7.158723
 30
0.0
 10
1.461602
 20
7.313008
 30
0.0
 10
1.705184
 20
7.313008
 30
0.0
 10
1.705184
 20
7.272384
 30
0.0
 10
1.851367
 20
7.272384
 30
0.0
 10
1.770173
 20
7.158723
 30
0.0
 10
1.956924
 20
7.158723
 30
0.0
 10
1.956924
 20
7.142462
 30
0.0
 10
1.956924
 20
6.988177
 30
0.0
 10
2.111210
 20
6.988177
 30
0.0
 10
2.111210
 20
6.744595
 30
0.0
 10
2.070585
 20
6.744595
 30
0.0
 10
2.070585
 20
6.598413
 30
0.0
 10
1.956924
 20
6.679552
 30
0.0
 10
1.956924
 20
6.509116
 30
0.0
 10
2.176143
 20
6.509116
 30
0.0
 10
2.260699
 20
6.509116
 30
0.0
 10
2.347681
 20
6.622776
 30
0.0
 10
2.500919
 20
6.622776
 30
0.0
 10
2.419725
 20
6.509116
 30
0.0
 10
2.590216
 20
6.509116
 30
0.0
 10
2.590216
 20
6.663401
 30
0.0
 10
2.435986
 20
6.663401
 30
0.0
 10
2.435986
 20
6.906983
 30
0.0
 10
2.476610
 20
6.906983
 30
0.0
 10
2.476610
 20
7.053165
 30
0.0
 10
2.590216
 20
6.971971
 30
0.0
 10
2.590216
 20
7.020699
 30
0.0
 10
2.590216
 20
7.069426
 30
0.0
 10
2.590272
 20
7.069426
 30
0.0
 10
2.590272
 20
7.158723
 30
0.0
 10
2.606478
 20
7.158723
 30
0.0
 10
2.760818
 20
7.158723
 30
0.0
 10
2.760818
 20
7.313008
 30
0.0
 10
3.004400
 20
7.313008
 30
0.0
 10
3.004400
 20
7.272384
 30
0.0
 10
3.150527
 20
7.272384
 30
0.0
 10
3.069333
 20
7.158723
 30
0.0
 10
3.239824
 20
7.158723
 30
0.0
 10
3.239824
 20
7.377941
 30
0.0
 10
3.239881
 20
7.377885
 30
0.0
 10
3.239881
 20
7.462552
 30
0.0
 10
3.126165
 20
7.549589
 30
0.0
 10
3.126165
 20
7.702771
 30
0.0
 10
3.239826
 20
7.621577
 30
0.0
 10
3.239826
 20
7.670305
 30
0.0
 10
3.239826
 20
7.792068
 30
0.0
 10
3.020608
 20
7.792068
 30
0.0
 10
2.935941
 20
7.792068
 30
0.0
 10
2.848959
 20
7.678408
 30
0.0
 10
2.695831
 20
7.678408
 30
0.0
 10
2.777025
 20
7.792068
 30
0.0
 10
2.371000
 20
7.792068
 30
0.0
 10
2.286334
 20
7.792068
 30
0.0
 10
2.199352
 20
7.678408
 30
0.0
 10
2.046224
 20
7.678408
 30
0.0
 10
2.127418
 20
7.792068
 30
0.0
 10
1.721448
 20
7.792068
 30
0.0
 10
1.636781
 20
7.792068
 30
0.0
 10
1.549800
 20
7.678408
 30
0.0
 10
1.396672
 20
7.678408
 30
0.0
 10
1.477866
 20
7.792068
 30
0.0
 10
1.071841
 20
7.792068
 30
0.0
 10
0.987174
 20
7.792068
 30
0.0
 10
0.900192
 20
7.678408
 30
0.0
 10
0.747065
 20
7.678408
 30
0.0
 10
0.828259
 20
7.792068
 30
0.0
 10
0.779531
 20
7.792068
 30
0.0
 10
0.657713
 20
7.792068
 30
0.0
 10
0.657710
 20
7.792069
 30
0.0
  0
LWPOLYLINE
  5
105
100
AcDbEntity
  8
Layer_1
 62
7
100
AcDbPolyline
 90
116
 70
1
 10
4.555298
 20
7.792069
 30
0.0
 10
4.555298
 20
7.572851
 30
0.0
 10
4.555298
 20
7.488240
 30
0.0
 10
4.669014
 20
7.401203
 30
0.0
 10
4.669014
 20
7.248020
 30
0.0
 10
4.555298
 20
7.329214
 30
0.0
 10
4.555298
 20
7.280542
 30
0.0
 10
4.555298
 20
7.231814
 30
0.0
 10
4.555298
 20
7.158723
 30
0.0
 10
4.555298
 20
7.142462
 30
0.0
 10
4.555298
 20
7.012541
 30
0.0
 10
4.555298
 20
6.923244
 30
0.0
 10
4.555298
 20
6.838632
 30
0.0
 10
4.669014
 20
6.751595
 30
0.0
 10
4.669014
 20
6.598413
 30
0.0
 10
4.555298
 20
6.679607
 30
0.0
 10
4.555298
 20
6.630934
 30
0.0
 10
4.555298
 20
6.582207
 30
0.0
 10
4.555298
 20
6.509116
 30
0.0
 10
4.555298
 20
6.492855
 30
0.0
 10
4.555298
 20
6.362934
 30
0.0
 10
4.555298
 20
6.273637
 30
0.0
 10
4.555298
 20
6.189025
 30
0.0
 10
4.669014
 20
6.101988
 30
0.0
 10
4.669014
 20
5.948806
 30
0.0
 10
4.555298
 20
6.029999
 30
0.0
 10
4.555298
 20
5.981327
 30
0.0
 10
4.555298
 20
5.932600
 30
0.0
 10
4.555298
 20
5.859509
 30
0.0
 10
4.555298
 20
5.843303
 30
0.0
 10
4.555298
 20
5.713381
 30
0.0
 10
4.555298
 20
5.624085
 30
0.0
 10
4.555298
 20
5.539473
 30
0.0
 10
4.669014
 20
5.452436
 30
0.0
 10
4.669014
 20
5.299254
 30
0.0
 10
4.555298
 20
5.380448
 30
0.0
 10
4.555298
 20
5.331775
 30
0.0
 10
4.555298
 20
5.282993
 30
0.0
 10
4.555298
 20
5.209957
 30
0.0
 10
4.555298
 20
5.193696
 30
0.0
 10
4.555298
 20
5.063774
 30
0.0
 10
4.555298
 20
4.974477
 30
0.0
 10
4.555298
 20
4.889866
 30
0.0
 10
4.669014
 20
4.802829
 30
0.0
 10
4.669014
 20
4.649646
 30
0.0
 10
4.555298
 20
4.730840
 30
0.0
 10
4.555298
 20
4.682168
 30
0.0
 10
4.555298
 20
4.560349
 30
0.0
 10
4.774571
 20
4.560349
 30
0.0
 10
4.774515
 20
4.560293
 30
0.0
 10
4.859072
 20
4.560293
 30
0.0
 10
4.946108
 20
4.674009
 30
0.0
 10
5.099346
 20
4.674009
 30
0.0
 10
5.018152
 20
4.560348
 30
0.0
 10
5.066880
 20
4.560348
 30
0.0
 10
5.188643
 20
4.560348
 30
0.0
 10
5.188643
 20
4.779566
 30
0.0
 10
5.188700
 20
4.779510
 30
0.0
 10
5.188700
 20
4.864176
 30
0.0
 10
5.074984
 20
4.951213
 30
0.0
 10
5.074984
 20
5.104396
 30
0.0
 10
5.188645
 20
5.023202
 30
0.0
 10
5.188645
 20
5.071930
 30
0.0
 10
5.188645
 20
5.120602
 30
0.0
 10
5.188701
 20
5.120602
 30
0.0
 10
5.188701
 20
5.364184
 30
0.0
 10
5.188645
 20
5.364184
 30
0.0
 10
5.188645
 20
5.429172
 30
0.0
 10
5.188701
 20
5.429116
 30
0.0
 10
5.188701
 20
5.513782
 30
0.0
 10
5.074985
 20
5.600819
 30
0.0
 10
5.074985
 20
5.754002
 30
0.0
 10
5.188646
 20
5.672808
 30
0.0
 10
5.188646
 20
5.721535
 30
0.0
 10
5.188646
 20
5.770207
 30
0.0
 10
5.188702
 20
5.770207
 30
0.0
 10
5.188702
 20
6.013789
 30
0.0
 10
5.188646
 20
6.013789
 30
0.0
 10
5.188646
 20
6.078723
 30
0.0
 10
5.188702
 20
6.078666
 30
0.0
 10
5.188702
 20
6.163333
 30
0.0
 10
5.074987
 20
6.250370
 30
0.0
 10
5.074987
 20
6.403553
 30
0.0
 10
5.188647
 20
6.322359
 30
0.0
 10
5.188647
 20
6.371086
 30
0.0
 10
5.188647
 20
6.419814
 30
0.0
 10
5.188704
 20
6.419814
 30
0.0
 10
5.188704
 20
6.663396
 30
0.0
 10
5.188647
 20
6.663396
 30
0.0
 10
5.188647
 20
6.728329
 30
0.0
 10
5.188704
 20
6.728272
 30
0.0
 10
5.188704
 20
6.812939
 30
0.0
 10
5.074988
 20
6.899976
 30
0.0
 10
5.074988
 20
7.053159
 30
0.0
 10
5.188649
 20
6.971964
 30
0.0
 10
5.188649
 20
7.020692
 30
0.0
 10
5.188649
 20
7.069419
 30
0.0
 10
5.188705
 20
7.069419
 30
0.0
 10
5.188705
 20
7.313001
 30
0.0
 10
5.188649
 20
7.313001
 30
0.0
 10
5.188649
 20
7.377935
 30
0.0
 10
5.188705
 20
7.377878
 30
0.0
 10
5.188705
 20
7.462545
 30
0.0
 10
5.074990
 20
7.549582
 30
0.0
 10
5.074990
 20
7.702764
 30
0.0
 10
5.188650
 20
7.621570
 30
0.0
 10
5.188650
 20
7.670298
 30
0.0
 10
5.188650
 20
7.792061
 30
0.0
 10
4.969432
 20
7.792061
 30
0.0
 10
4.884765
 20
7.792061
 30
0.0
 10
4.797783
 20
7.678401
 30
0.0
 10
4.644656
 20
7.678401
 30
0.0
 10
4.725850
 20
7.792061
 30
0.0
 10
4.677122
 20
7.792061
 30
0.0
 10
4.555304
 20
7.792061
 30
0.0
 10
4.555298
 20
7.792069
 30
0.0
  0
LWPOLYLINE
  5
106
100
AcDbEntity
  8
Layer_1
 62
7
100
AcDbPolyline
 90
95
 70
1
 10
5.854513
 20
7.792069
 30
0.0
 10
5.854513
 20
7.572851
 30
0.0
 10
5.854513
 20
7.488240
 30
0.0
 10
5.968228
 20
7.401203
 30
0.0
 10
5.968228
 20
7.248020
 30
0.0
 10
5.854513
 20
7.329214
 30
0.0
 10
5.854513
 20
7.280542
 30
0.0
 10
5.854513
 20
7.223656
 30
0.0
 10
5.854513
 20
7.158723
 30
0.0
 10
5.854513
 20
7.142462
 30
0.0
 10
5.854513
 20
7.004438
 30
0.0
 10
5.854513
 20
6.923244
 30
0.0
 10
5.854513
 20
6.838632
 30
0.0
 10
5.968228
 20
6.751595
 30
0.0
 10
5.968228
 20
6.598413
 30
0.0
 10
5.854513
 20
6.679607
 30
0.0
 10
5.854513
 20
6.630934
 30
0.0
 10
5.854513
 20
6.574104
 30
0.0
 10
5.854513
 20
6.509116
 30
0.0
 10
5.854513
 20
6.492855
 30
0.0
 10
5.854513
 20
6.354831
 30
0.0
 10
5.854513
 20
6.273637
 30
0.0
 10
5.854513
 20
6.189025
 30
0.0
 10
5.968228
 20
6.101988
 30
0.0
 10
5.968228
 20
5.948806
 30
0.0
 10
5.854513
 20
6.029999
 30
0.0
 10
5.854513
 20
5.981327
 30
0.0
 10
5.854513
 20
5.859509
 30
0.0
 10
6.073786
 20
5.859509
 30
0.0
 10
6.158342
 20
5.859509
 30
0.0
 10
6.245324
 20
5.973169
 30
0.0
 10
6.398562
 20
5.973169
 30
0.0
 10
6.317368
 20
5.859509
 30
0.0
 10
6.487859
 20
5.859509
 30
0.0
 10
6.487859
 20
6.013794
 30
0.0
 10
6.333574
 20
6.013794
 30
0.0
 10
6.333574
 20
6.257376
 30
0.0
 10
6.374198
 20
6.257376
 30
0.0
 10
6.374198
 20
6.403558
 30
0.0
 10
6.487859
 20
6.322364
 30
0.0
 10
6.487859
 20
6.371092
 30
0.0
 10
6.487859
 20
6.411661
 30
0.0
 10
6.487859
 20
6.492855
 30
0.0
 10
6.487859
 20
6.509116
 30
0.0
 10
6.487859
 20
6.655298
 30
0.0
 10
6.487859
 20
6.663401
 30
0.0
 10
6.333574
 20
6.663401
 30
0.0
 10
6.333574
 20
6.906983
 30
0.0
 10
6.374198
 20
6.906983
 30
0.0
 10
6.374198
 20
7.053165
 30
0.0
 10
6.487859
 20
6.971971
 30
0.0
 10
6.487859
 20
7.020699
 30
0.0
 10
6.487859
 20
7.061268
 30
0.0
 10
6.487859
 20
7.142462
 30
0.0
 10
6.487859
 20
7.158723
 30
0.0
 10
6.504120
 20
7.158723
 30
0.0
 10
6.658405
 20
7.158723
 30
0.0
 10
6.658405
 20
7.313008
 30
0.0
 10
6.901987
 20
7.313008
 30
0.0
 10
6.901987
 20
7.272384
 30
0.0
 10
7.048169
 20
7.272384
 30
0.0
 10
6.966975
 20
7.158723
 30
0.0
 10
7.308012
 20
7.158723
 30
0.0
 10
7.308012
 20
7.313008
 30
0.0
 10
7.551594
 20
7.313008
 30
0.0
 10
7.551594
 20
7.272384
 30
0.0
 10
7.697721
 20
7.272384
 30
0.0
 10
7.616527
 20
7.158723
 30
0.0
 10
7.787018
 20
7.158723
 30
0.0
 10
7.787018
 20
7.377941
 30
0.0
 10
7.787075
 20
7.377885
 30
0.0
 10
7.787075
 20
7.462552
 30
0.0
 10
7.673359
 20
7.549589
 30
0.0
 10
7.673359
 20
7.702771
 30
0.0
 10
7.787020
 20
7.621577
 30
0.0
 10
7.787020
 20
7.670305
 30
0.0
 10
7.787020
 20
7.792068
 30
0.0
 10
7.567801
 20
7.792068
 30
0.0
 10
7.483135
 20
7.792068
 30
0.0
 10
7.396153
 20
7.678408
 30
0.0
 10
7.243025
 20
7.678408
 30
0.0
 10
7.324219
 20
7.792068
 30
0.0
 10
6.918249
 20
7.792068
 30
0.0
 10
6.833583
 20
7.792068
 30
0.0
 10
6.746601
 20
7.678408
 30
0.0
 10
6.593473
 20
7.678408
 30
0.0
 10
6.674667
 20
7.792068
 30
0.0
 10
6.268642
 20
7.792068
 30
0.0
 10
6.183975
 20
7.792068
 30
0.0
 10
6.096994
 20
7.678408
 30
0.0
 10
5.943866
 20
7.678408
 30
0.0
 10
6.025060
 20
7.792068
 30
0.0
 10
5.976333
 20
7.792068
 30
0.0
 10
5.854514
 20
7.792068
 30
0.0
 10
5.854513
 20
7.792069
 30
0.0
  0
LWPOLYLINE
  5
107
100
AcDbEntity
  8
Layer_1
 62
7
100
AcDbPolyline
 90
100
 70
1
 10
8.452941
 20
7.142462
 30
0.0
 10
8.452941
 20
6.988177
 30
0.0
 10
8.607227
 20
6.988177
 30
0.0
 10
8.607227
 20
6.744595
 30
0.0
 10
8.566602
 20
6.744595
 30
0.0
 10
8.566602
 20
6.598413
 30
0.0
 10
8.452941
 20
6.679552
 30
0.0
 10
8.452941
 20
6.509116
 30
0.0
 10
8.452941
 20
6.492855
 30
0.0
 10
8.282395
 20
6.492855
 30
0.0
 10
8.282395
 20
6.338625
 30
0.0
 10
8.038813
 20
6.338625
 30
0.0
 10
8.038813
 20
6.379194
 30
0.0
 10
7.892631
 20
6.379194
 30
0.0
 10
7.973825
 20
6.492855
 30
0.0
 10
7.713982
 20
6.492855
 30
0.0
 10
7.713982
 20
6.374564
 30
0.0
 10
7.713982
 20
6.338625
 30
0.0
 10
7.673357
 20
6.338625
 30
0.0
 10
7.632788
 20
6.338625
 30
0.0
 10
7.470400
 20
6.338625
 30
0.0
 10
7.470400
 20
6.476208
 30
0.0
 10
7.396151
 20
6.379194
 30
0.0
 10
7.243024
 20
6.379194
 30
0.0
 10
7.324218
 20
6.492855
 30
0.0
 10
7.275490
 20
6.492855
 30
0.0
 10
7.153727
 20
6.492855
 30
0.0
 10
7.153727
 20
6.188970
 30
0.0
 10
7.267388
 20
6.101988
 30
0.0
 10
7.267388
 20
5.948806
 30
0.0
 10
7.153727
 20
6.029944
 30
0.0
 10
7.153727
 20
5.859509
 30
0.0
 10
7.308012
 20
5.859509
 30
0.0
 10
7.308012
 20
6.013794
 30
0.0
 10
7.551594
 20
6.013794
 30
0.0
 10
7.551594
 20
5.973169
 30
0.0
 10
7.697721
 20
5.973169
 30
0.0
 10
7.616527
 20
5.859509
 30
0.0
 10
7.803334
 20
5.859509
 30
0.0
 10
7.803334
 20
5.843303
 30
0.0
 10
7.803334
 20
5.689018
 30
0.0
 10
7.957619
 20
5.689018
 30
0.0
 10
7.957619
 20
5.445381
 30
0.0
 10
7.916995
 20
5.445381
 30
0.0
 10
7.916995
 20
5.299254
 30
0.0
 10
7.803334
 20
5.380393
 30
0.0
 10
7.803334
 20
5.209957
 30
0.0
 10
8.022552
 20
5.209957
 30
0.0
 10
8.022496
 20
5.209900
 30
0.0
 10
8.107052
 20
5.209900
 30
0.0
 10
8.194089
 20
5.323616
 30
0.0
 10
8.347327
 20
5.323616
 30
0.0
 10
8.266133
 20
5.209955
 30
0.0
 10
8.314860
 20
5.209955
 30
0.0
 10
8.436624
 20
5.209955
 30
0.0
 10
8.436624
 20
5.364185
 30
0.0
 10
8.282394
 20
5.364185
 30
0.0
 10
8.282394
 20
5.607822
 30
0.0
 10
8.322963
 20
5.607822
 30
0.0
 10
8.322963
 20
5.754005
 30
0.0
 10
8.436624
 20
5.672811
 30
0.0
 10
8.436624
 20
5.721538
 30
0.0
 10
8.436624
 20
5.770211
 30
0.0
 10
8.436681
 20
5.770211
 30
0.0
 10
8.436681
 20
5.859507
 30
0.0
 10
8.452886
 20
5.859507
 30
0.0
 10
8.607227
 20
5.859507
 30
0.0
 10
8.607227
 20
6.013792
 30
0.0
 10
8.850809
 20
6.013792
 30
0.0
 10
8.850809
 20
5.973168
 30
0.0
 10
8.996936
 20
5.973168
 30
0.0
 10
8.915742
 20
5.859507
 30
0.0
 10
9.086232
 20
5.859507
 30
0.0
 10
9.086232
 20
6.078726
 30
0.0
 10
9.086289
 20
6.078669
 30
0.0
 10
9.086289
 20
6.163336
 30
0.0
 10
8.972573
 20
6.250373
 30
0.0
 10
8.972573
 20
6.403556
 30
0.0
 10
9.086234
 20
6.322361
 30
0.0
 10
9.086234
 20
6.371089
 30
0.0
 10
9.086234
 20
6.419816
 30
0.0
 10
9.086290
 20
6.419816
 30
0.0
 10
9.086290
 20
6.663398
 30
0.0
 10
9.086234
 20
6.663398
 30
0.0
 10
9.086234
 20
6.728332
 30
0.0
 10
9.086290
 20
6.728275
 30
0.0
 10
9.086290
 20
6.812942
 30
0.0
 10
8.972574
 20
6.899979
 30
0.0
 10
8.972574
 20
7.053161
 30
0.0
 10
9.086235
 20
6.971967
 30
0.0
 10
9.086235
 20
7.020695
 30
0.0
 10
9.086235
 20
7.142458
 30
0.0
 10
8.867017
 20
7.142458
 30
0.0
 10
8.782350
 20
7.142458
 30
0.0
 10
8.695368
 20
7.028798
 30
0.0
 10
8.542240
 20
7.028798
 30
0.0
 10
8.623435
 20
7.142458
 30
0.0
 10
8.574707
 20
7.142458
 30
0.0
 10
8.452944
 20
7.142458
 30
0.0
 10
8.452941
 20
7.142462
 30
0.0
  0
LWPOLYLINE
  5
108
100
AcDbEntity
  8
Layer_1
 62
7
100
AcDbPolyline
 90
106
 70
1
 10
0.657710
 20
5.843303
 30
0.0
 10
0.657710
 20
5.624085
 30
0.0
 10
0.657710
 20
5.539473
 30
0.0
 10
0.771426
 20
5.452436
 30
0.0
 10
0.771426
 20
5.299254
 30
0.0
 10
0.657710
 20
5.380448
 30
0.0
 10
0.657710
 20
5.331775
 30
0.0
 10
0.657710
 20
5.291095
 30
0.0
 10
0.657710
 20
5.209957
 30
0.0
 10
0.657710
 20
5.193696
 30
0.0
 10
0.657710
 20
5.047513
 30
0.0
 10
0.657710
 20
4.974477
 30
0.0
 10
0.657710
 20
4.889866
 30
0.0
 10
0.771426
 20
4.802829
 30
0.0
 10
0.771426
 20
4.649646
 30
0.0
 10
0.657710
 20
4.730840
 30
0.0
 10
0.657710
 20
4.682168
 30
0.0
 10
0.657710
 20
4.641543
 30
0.0
 10
0.657710
 20
4.560349
 30
0.0
 10
0.657710
 20
4.544088
 30
0.0
 10
0.657710
 20
4.397906
 30
0.0
 10
0.657710
 20
4.324870
 30
0.0
 10
0.657710
 20
4.240259
 30
0.0
 10
0.771426
 20
4.153222
 30
0.0
 10
0.771426
 20
4.000039
 30
0.0
 10
0.657710
 20
4.081233
 30
0.0
 10
0.657710
 20
4.032561
 30
0.0
 10
0.657710
 20
3.983778
 30
0.0
 10
0.657710
 20
3.910742
 30
0.0
 10
0.657710
 20
3.894481
 30
0.0
 10
0.657710
 20
3.740196
 30
0.0
 10
0.657710
 20
3.675263
 30
0.0
 10
0.657710
 20
3.590651
 30
0.0
 10
0.771426
 20
3.503615
 30
0.0
 10
0.771426
 20
3.350432
 30
0.0
 10
0.657710
 20
3.431626
 30
0.0
 10
0.657710
 20
3.382953
 30
0.0
 10
0.657710
 20
3.261135
 30
0.0
 10
0.876984
 20
3.261135
 30
0.0
 10
0.961540
 20
3.261135
 30
0.0
 10
1.048522
 20
3.374796
 30
0.0
 10
1.201760
 20
3.374796
 30
0.0
 10
1.120566
 20
3.261135
 30
0.0
 10
1.291056
 20
3.261135
 30
0.0
 10
1.291056
 20
3.415420
 30
0.0
 10
1.136826
 20
3.415420
 30
0.0
 10
1.136826
 20
3.659002
 30
0.0
 10
1.177396
 20
3.659002
 30
0.0
 10
1.177396
 20
3.805184
 30
0.0
 10
1.291056
 20
3.723990
 30
0.0
 10
1.291056
 20
3.772718
 30
0.0
 10
1.291056
 20
3.821390
 30
0.0
 10
1.291056
 20
3.894481
 30
0.0
 10
1.291056
 20
3.910742
 30
0.0
 10
1.291056
 20
4.040664
 30
0.0
 10
1.291056
 20
4.065027
 30
0.0
 10
1.136826
 20
4.065027
 30
0.0
 10
1.136826
 20
4.308609
 30
0.0
 10
1.177396
 20
4.308609
 30
0.0
 10
1.177396
 20
4.454792
 30
0.0
 10
1.291056
 20
4.373598
 30
0.0
 10
1.291056
 20
4.422325
 30
0.0
 10
1.291056
 20
4.479100
 30
0.0
 10
1.291056
 20
4.544088
 30
0.0
 10
1.291056
 20
4.560349
 30
0.0
 10
1.291056
 20
4.698374
 30
0.0
 10
1.291056
 20
4.714579
 30
0.0
 10
1.136826
 20
4.714579
 30
0.0
 10
1.136826
 20
4.958217
 30
0.0
 10
1.177396
 20
4.958217
 30
0.0
 10
1.177396
 20
5.104399
 30
0.0
 10
1.291056
 20
5.023205
 30
0.0
 10
1.291056
 20
5.071932
 30
0.0
 10
1.291056
 20
5.128708
 30
0.0
 10
1.291056
 20
5.193696
 30
0.0
 10
1.291056
 20
5.209901
 30
0.0
 10
1.453499
 20
5.209901
 30
0.0
 10
1.453499
 20
5.209958
 30
0.0
 10
1.461602
 20
5.209958
 30
0.0
 10
1.461602
 20
5.364188
 30
0.0
 10
1.705184
 20
5.364188
 30
0.0
 10
1.705184
 20
5.323619
 30
0.0
 10
1.851367
 20
5.323619
 30
0.0
 10
1.770173
 20
5.209958
 30
0.0
 10
1.818900
 20
5.209958
 30
0.0
 10
1.940664
 20
5.209958
 30
0.0
 10
1.940664
 20
5.429176
 30
0.0
 10
1.940664
 20
5.513843
 30
0.0
 10
1.827003
 20
5.600825
 30
0.0
 10
1.827003
 20
5.754008
 30
0.0
 10
1.940664
 20
5.672813
 30
0.0
 10
1.940664
 20
5.721541
 30
0.0
 10
1.940664
 20
5.843304
 30
0.0
 10
1.721445
 20
5.843304
 30
0.0
 10
1.636779
 20
5.843304
 30
0.0
 10
1.549797
 20
5.729644
 30
0.0
 10
1.396669
 20
5.729644
 30
0.0
 10
1.477863
 20
5.843304
 30
0.0
 10
1.071838
 20
5.843304
 30
0.0
 10
0.987172
 20
5.843304
 30
0.0
 10
0.900190
 20
5.729644
 30
0.0
 10
0.747062
 20
5.729644
 30
0.0
 10
0.828256
 20
5.843304
 30
0.0
 10
0.779529
 20
5.843304
 30
0.0
 10
0.657710
 20
5.843304
 30
0.0
 10
0.657710
 20
5.843303
 30
0.0
  0
LWPOLYLINE
  5
109
100
AcDbEntity
  8
Layer_1
 62
7
100
AcDbPolyline
 90
107
 70
1
 10
9.752101
 20
5.843303
 30
0.0
 10
9.752101
 20
5.689018
 30
0.0
 10
9.906386
 20
5.689018
 30
0.0
 10
9.906386
 20
5.445381
 30
0.0
 10
9.865816
 20
5.445381
 30
0.0
 10
9.865816
 20
5.299254
 30
0.0
 10
9.752101
 20
5.380448
 30
0.0
 10
9.752101
 20
5.331775
 30
0.0
 10
9.752101
 20
5.282993
 30
0.0
 10
9.752101
 20
5.209957
 30
0.0
 10
9.752101
 20
5.193696
 30
0.0
 10
9.752101
 20
5.039410
 30
0.0
 10
9.906386
 20
5.039410
 30
0.0
 10
9.906386
 20
4.795773
 30
0.0
 10
9.865816
 20
4.795773
 30
0.0
 10
9.865816
 20
4.649646
 30
0.0
 10
9.752101
 20
4.730840
 30
0.0
 10
9.752101
 20
4.682168
 30
0.0
 10
9.752101
 20
4.633385
 30
0.0
 10
9.752101
 20
4.560349
 30
0.0
 10
9.752101
 20
4.544088
 30
0.0
 10
9.581610
 20
4.544088
 30
0.0
 10
9.581610
 20
4.389804
 30
0.0
 10
9.337973
 20
4.389804
 30
0.0
 10
9.337973
 20
4.430428
 30
0.0
 10
9.191845
 20
4.430428
 30
0.0
 10
9.273040
 20
4.544088
 30
0.0
 10
9.224312
 20
4.544088
 30
0.0
 10
9.102494
 20
4.544088
 30
0.0
 10
9.102494
 20
4.324870
 30
0.0
 10
9.102494
 20
4.240259
 30
0.0
 10
9.216209
 20
4.153222
 30
0.0
 10
9.216209
 20
4.000039
 30
0.0
 10
9.102494
 20
4.081233
 30
0.0
 10
9.102494
 20
4.032561
 30
0.0
 10
9.102494
 20
3.975675
 30
0.0
 10
9.102494
 20
3.894481
 30
0.0
 10
9.102494
 20
3.732093
 30
0.0
 10
9.102494
 20
3.675263
 30
0.0
 10
9.102494
 20
3.590651
 30
0.0
 10
9.216209
 20
3.503615
 30
0.0
 10
9.216209
 20
3.350432
 30
0.0
 10
9.102494
 20
3.431626
 30
0.0
 10
9.102494
 20
3.382953
 30
0.0
 10
9.102494
 20
3.261135
 30
0.0
 10
9.321767
 20
3.261135
 30
0.0
 10
9.406323
 20
3.261135
 30
0.0
 10
9.493305
 20
3.374796
 30
0.0
 10
9.646543
 20
3.374796
 30
0.0
 10
9.565349
 20
3.261135
 30
0.0
 10
9.735840
 20
3.261135
 30
0.0
 10
9.735840
 20
3.415420
 30
0.0
 10
9.581610
 20
3.415420
 30
0.0
 10
9.581610
 20
3.659002
 30
0.0
 10
9.622179
 20
3.659002
 30
0.0
 10
9.622179
 20
3.805184
 30
0.0
 10
9.735840
 20
3.723990
 30
0.0
 10
9.735840
 20
3.772718
 30
0.0
 10
9.735840
 20
3.813287
 30
0.0
 10
9.735896
 20
3.813287
 30
0.0
 10
9.735896
 20
3.910742
 30
0.0
 10
9.752102
 20
3.910742
 30
0.0
 10
9.906387
 20
3.910742
 30
0.0
 10
9.906387
 20
4.065027
 30
0.0
 10
10.150024
 20
4.065027
 30
0.0
 10
10.150024
 20
4.024403
 30
0.0
 10
10.296151
 20
4.024403
 30
0.0
 10
10.214957
 20
3.910742
 30
0.0
 10
10.385448
 20
3.910742
 30
0.0
 10
10.385448
 20
4.129960
 30
0.0
 10
10.385505
 20
4.129904
 30
0.0
 10
10.385505
 20
4.214571
 30
0.0
 10
10.271789
 20
4.301608
 30
0.0
 10
10.271789
 20
4.454790
 30
0.0
 10
10.385450
 20
4.373596
 30
0.0
 10
10.385450
 20
4.422324
 30
0.0
 10
10.385450
 20
4.470996
 30
0.0
 10
10.385506
 20
4.470996
 30
0.0
 10
10.385506
 20
4.690214
 30
0.0
 10
10.385450
 20
4.690214
 30
0.0
 10
10.385450
 20
4.779566
 30
0.0
 10
10.385506
 20
4.779510
 30
0.0
 10
10.385506
 20
4.864176
 30
0.0
 10
10.271790
 20
4.951213
 30
0.0
 10
10.271790
 20
5.104396
 30
0.0
 10
10.385451
 20
5.023202
 30
0.0
 10
10.385451
 20
5.071930
 30
0.0
 10
10.385451
 20
5.120602
 30
0.0
 10
10.385507
 20
5.120602
 30
0.0
 10
10.385507
 20
5.339820
 30
0.0
 10
10.385451
 20
5.339820
 30
0.0
 10
10.385451
 20
5.429172
 30
0.0
 10
10.385507
 20
5.429116
 30
0.0
 10
10.385507
 20
5.513782
 30
0.0
 10
10.271792
 20
5.600819
 30
0.0
 10
10.271792
 20
5.754002
 30
0.0
 10
10.385452
 20
5.672808
 30
0.0
 10
10.385452
 20
5.721535
 30
0.0
 10
10.385452
 20
5.843299
 30
0.0
 10
10.166234
 20
5.843299
 30
0.0
 10
10.081567
 20
5.843299
 30
0.0
 10
9.994586
 20
5.729638
 30
0.0
 10
9.841458
 20
5.729638
 30
0.0
 10
9.922652
 20
5.843299
 30
0.0
 10
9.873925
 20
5.843299
 30
0.0
 10
9.752106
 20
5.843299
 30
0.0
 10
9.752101
 20
5.843303
 30
0.0
  0
LWPOLYLINE
  5
10a
100
AcDbEntity
  8
Layer_1
 62
7
100
AcDbPolyline
 90
91
 70
1
 10
3.256139
 20
5.193696
 30
0.0
 10
3.256139
 20
5.039410
 30
0.0
 10
3.410424
 20
5.039410
 30
0.0
 10
3.410424
 20
4.795773
 30
0.0
 10
3.369799
 20
4.795773
 30
0.0
 10
3.369799
 20
4.649646
 30
0.0
 10
3.256139
 20
4.730785
 30
0.0
 10
3.256139
 20
4.560349
 30
0.0
 10
3.256139
 20
4.544088
 30
0.0
 10
3.085593
 20
4.544088
 30
0.0
 10
3.085593
 20
4.389804
 30
0.0
 10
2.842011
 20
4.389804
 30
0.0
 10
2.842011
 20
4.430428
 30
0.0
 10
2.695828
 20
4.430428
 30
0.0
 10
2.777023
 20
4.544088
 30
0.0
 10
2.435986
 20
4.544088
 30
0.0
 10
2.435986
 20
4.389804
 30
0.0
 10
2.192404
 20
4.389804
 30
0.0
 10
2.192404
 20
4.430428
 30
0.0
 10
2.046221
 20
4.430428
 30
0.0
 10
2.127415
 20
4.544088
 30
0.0
 10
2.078688
 20
4.544088
 30
0.0
 10
1.956924
 20
4.544088
 30
0.0
 10
1.956924
 20
4.240203
 30
0.0
 10
2.070585
 20
4.153222
 30
0.0
 10
2.070585
 20
4.000039
 30
0.0
 10
1.956924
 20
4.081178
 30
0.0
 10
1.956924
 20
3.910742
 30
0.0
 10
1.956924
 20
3.894481
 30
0.0
 10
1.956924
 20
3.590596
 30
0.0
 10
2.070585
 20
3.503615
 30
0.0
 10
2.070585
 20
3.350432
 30
0.0
 10
1.956924
 20
3.431571
 30
0.0
 10
1.956924
 20
3.261135
 30
0.0
 10
2.176143
 20
3.261135
 30
0.0
 10
2.260699
 20
3.261135
 30
0.0
 10
2.347681
 20
3.374796
 30
0.0
 10
2.500919
 20
3.374796
 30
0.0
 10
2.419725
 20
3.261135
 30
0.0
 10
2.590216
 20
3.261135
 30
0.0
 10
2.590216
 20
3.415420
 30
0.0
 10
2.435986
 20
3.415420
 30
0.0
 10
2.435986
 20
3.659002
 30
0.0
 10
2.476610
 20
3.659002
 30
0.0
 10
2.476610
 20
3.805184
 30
0.0
 10
2.590216
 20
3.723990
 30
0.0
 10
2.590216
 20
3.772718
 30
0.0
 10
2.590216
 20
3.829493
 30
0.0
 10
2.590272
 20
3.829493
 30
0.0
 10
2.590272
 20
3.910742
 30
0.0
 10
2.606478
 20
3.910742
 30
0.0
 10
2.760818
 20
3.910742
 30
0.0
 10
2.760818
 20
4.065027
 30
0.0
 10
3.004400
 20
4.065027
 30
0.0
 10
3.004400
 20
4.024403
 30
0.0
 10
3.150527
 20
4.024403
 30
0.0
 10
3.069333
 20
3.910742
 30
0.0
 10
3.410426
 20
3.910742
 30
0.0
 10
3.410426
 20
4.065027
 30
0.0
 10
3.654008
 20
4.065027
 30
0.0
 10
3.654008
 20
4.024403
 30
0.0
 10
3.800135
 20
4.024403
 30
0.0
 10
3.718941
 20
3.910742
 30
0.0
 10
3.889431
 20
3.910742
 30
0.0
 10
3.889431
 20
4.129960
 30
0.0
 10
3.889488
 20
4.129904
 30
0.0
 10
3.889488
 20
4.214571
 30
0.0
 10
3.775772
 20
4.301608
 30
0.0
 10
3.775772
 20
4.454790
 30
0.0
 10
3.889433
 20
4.373596
 30
0.0
 10
3.889433
 20
4.422324
 30
0.0
 10
3.889433
 20
4.470996
 30
0.0
 10
3.889489
 20
4.470996
 30
0.0
 10
3.889489
 20
4.690214
 30
0.0
 10
3.889433
 20
4.690214
 30
0.0
 10
3.889433
 20
4.779566
 30
0.0
 10
3.889489
 20
4.779510
 30
0.0
 10
3.889489
 20
4.864176
 30
0.0
 10
3.775773
 20
4.951213
 30
0.0
 10
3.775773
 20
5.104396
 30
0.0
 10
3.889434
 20
5.023202
 30
0.0
 10
3.889434
 20
5.071930
 30
0.0
 10
3.889434
 20
5.193693
 30
0.0
 10
3.670216
 20
5.193693
 30
0.0
 10
3.585549
 20
5.193693
 30
0.0
 10
3.498567
 20
5.080032
 30
0.0
 10
3.345439
 20
5.080032
 30
0.0
 10
3.426634
 20
5.193693
 30
0.0
 10
3.377906
 20
5.193693
 30
0.0
 10
3.256143
 20
5.193693
 30
0.0
 10
3.256139
 20
5.193696
 30
0.0
  0
LWPOLYLINE
  5
10b
100
AcDbEntity
  8
Layer_1
 62
7
100
AcDbPolyline
 90
99
 70
1
 10
5.854513
 20
4.544088
 30
0.0
 10
5.854513
 20
4.389804
 30
0.0
 10
6.008798
 20
4.389804
 30
0.0
 10
6.008798
 20
4.146221
 30
0.0
 10
5.968228
 20
4.146221
 30
0.0
 10
5.968228
 20
4.000039
 30
0.0
 10
5.854513
 20
4.081233
 30
0.0
 10
5.854513
 20
4.032561
 30
0.0
 10
5.854513
 20
3.983778
 30
0.0
 10
5.854513
 20
3.894481
 30
0.0
 10
5.684022
 20
3.894481
 30
0.0
 10
5.684022
 20
3.740196
 30
0.0
 10
5.440385
 20
3.740196
 30
0.0
 10
5.440385
 20
3.780821
 30
0.0
 10
5.294257
 20
3.780821
 30
0.0
 10
5.375451
 20
3.894481
 30
0.0
 10
5.326724
 20
3.894481
 30
0.0
 10
5.204905
 20
3.894481
 30
0.0
 10
5.204905
 20
3.675263
 30
0.0
 10
5.204905
 20
3.590651
 30
0.0
 10
5.318621
 20
3.503615
 30
0.0
 10
5.318621
 20
3.350432
 30
0.0
 10
5.204905
 20
3.431626
 30
0.0
 10
5.204905
 20
3.382953
 30
0.0
 10
5.204905
 20
3.261135
 30
0.0
 10
5.359191
 20
3.261135
 30
0.0
 10
5.359191
 20
3.415420
 30
0.0
 10
5.602773
 20
3.415420
 30
0.0
 10
5.602773
 20
3.374796
 30
0.0
 10
5.748955
 20
3.374796
 30
0.0
 10
5.667761
 20
3.261135
 30
0.0
 10
5.854513
 20
3.261135
 30
0.0
 10
5.854513
 20
3.244874
 30
0.0
 10
5.854513
 20
3.114953
 30
0.0
 10
5.854513
 20
3.090589
 30
0.0
 10
6.008798
 20
3.090589
 30
0.0
 10
6.008798
 20
2.847007
 30
0.0
 10
5.968228
 20
2.847007
 30
0.0
 10
5.968228
 20
2.700825
 30
0.0
 10
5.854513
 20
2.782019
 30
0.0
 10
5.854513
 20
2.733346
 30
0.0
 10
5.854513
 20
2.611528
 30
0.0
 10
6.073786
 20
2.611528
 30
0.0
 10
6.158342
 20
2.611528
 30
0.0
 10
6.245324
 20
2.725188
 30
0.0
 10
6.398562
 20
2.725188
 30
0.0
 10
6.317368
 20
2.611528
 30
0.0
 10
6.487859
 20
2.611528
 30
0.0
 10
6.487859
 20
2.765813
 30
0.0
 10
6.333574
 20
2.765813
 30
0.0
 10
6.333574
 20
3.009395
 30
0.0
 10
6.374198
 20
3.009395
 30
0.0
 10
6.374198
 20
3.155577
 30
0.0
 10
6.487859
 20
3.074383
 30
0.0
 10
6.487859
 20
3.123111
 30
0.0
 10
6.487859
 20
3.171783
 30
0.0
 10
6.487859
 20
3.244874
 30
0.0
 10
6.487859
 20
3.261135
 30
0.0
 10
6.504120
 20
3.261135
 30
0.0
 10
6.658405
 20
3.261135
 30
0.0
 10
6.658405
 20
3.415420
 30
0.0
 10
6.901987
 20
3.415420
 30
0.0
 10
6.901987
 20
3.374796
 30
0.0
 10
7.048169
 20
3.374796
 30
0.0
 10
6.966975
 20
3.261135
 30
0.0
 10
7.137466
 20
3.261135
 30
0.0
 10
7.137466
 20
3.480353
 30
0.0
 10
7.137466
 20
3.565020
 30
0.0
 10
7.023806
 20
3.652002
 30
0.0
 10
7.023806
 20
3.805184
 30
0.0
 10
7.137466
 20
3.723990
 30
0.0
 10
7.137466
 20
3.772718
 30
0.0
 10
7.137466
 20
3.894481
 30
0.0
 10
6.983181
 20
3.894481
 30
0.0
 10
6.983181
 20
3.740196
 30
0.0
 10
6.739599
 20
3.740196
 30
0.0
 10
6.739599
 20
3.780821
 30
0.0
 10
6.593472
 20
3.780821
 30
0.0
 10
6.674666
 20
3.894481
 30
0.0
 10
6.504120
 20
3.894481
 30
0.0
 10
6.487859
 20
3.894481
 30
0.0
 10
6.487859
 20
3.910742
 30
0.0
 10
6.487859
 20
4.040664
 30
0.0
 10
6.487859
 20
4.065027
 30
0.0
 10
6.252380
 20
4.065027
 30
0.0
 10
6.252380
 20
4.308609
 30
0.0
 10
6.374198
 20
4.308609
 30
0.0
 10
6.374198
 20
4.454792
 30
0.0
 10
6.487859
 20
4.373598
 30
0.0
 10
6.487859
 20
4.422325
 30
0.0
 10
6.487859
 20
4.544088
 30
0.0
 10
6.268641
 20
4.544088
 30
0.0
 10
6.183974
 20
4.544088
 30
0.0
 10
6.096992
 20
4.430428
 30
0.0
 10
5.943865
 20
4.430428
 30
0.0
 10
6.025059
 20
4.544088
 30
0.0
 10
5.976331
 20
4.544088
 30
0.0
 10
5.854513
 20
4.544088
 30
0.0
 10
5.854513
 20
4.544088
 30
0.0
  0
LWPOLYLINE
  5
10c
100
AcDbEntity
  8
Layer_1
 62
7
100
AcDbPolyline
 90
101
 70
1
 10
1.956924
 20
2.595267
 30
0.0
 10
1.956924
 20
2.440982
 30
0.0
 10
2.111210
 20
2.440982
 30
0.0
 10
2.111210
 20
2.197400
 30
0.0
 10
2.070585
 20
2.197400
 30
0.0
 10
2.070585
 20
2.051217
 30
0.0
 10
1.956924
 20
2.132356
 30
0.0
 10
1.956924
 20
1.961921
 30
0.0
 10
1.956924
 20
1.945660
 30
0.0
 10
1.786378
 20
1.945660
 30
0.0
 10
1.786378
 20
1.791374
 30
0.0
 10
1.542797
 20
1.791374
 30
0.0
 10
1.542797
 20
1.831999
 30
0.0
 10
1.396669
 20
1.831999
 30
0.0
 10
1.477863
 20
1.945660
 30
0.0
 10
1.429136
 20
1.945660
 30
0.0
 10
1.307317
 20
1.945660
 30
0.0
 10
1.307317
 20
1.791374
 30
0.0
 10
1.461602
 20
1.791374
 30
0.0
 10
1.461602
 20
1.547792
 30
0.0
 10
1.421033
 20
1.547792
 30
0.0
 10
1.421033
 20
1.401610
 30
0.0
 10
1.307317
 20
1.482804
 30
0.0
 10
1.307317
 20
1.434132
 30
0.0
 10
1.307317
 20
1.385405
 30
0.0
 10
1.307317
 20
1.312313
 30
0.0
 10
1.307317
 20
1.296107
 30
0.0
 10
1.307317
 20
1.296051
 30
0.0
 10
1.291056
 20
1.296051
 30
0.0
 10
1.161135
 20
1.296051
 30
0.0
 10
1.136826
 20
1.296051
 30
0.0
 10
1.136826
 20
1.141821
 30
0.0
 10
0.893189
 20
1.141821
 30
0.0
 10
0.893189
 20
1.182391
 30
0.0
 10
0.747062
 20
1.182391
 30
0.0
 10
0.828256
 20
1.296051
 30
0.0
 10
0.779529
 20
1.296051
 30
0.0
 10
0.657710
 20
1.296051
 30
0.0
 10
0.657710
 20
1.076833
 30
0.0
 10
0.657710
 20
0.992221
 30
0.0
 10
0.771426
 20
0.905184
 30
0.0
 10
0.771426
 20
0.752002
 30
0.0
 10
0.657710
 20
0.833196
 30
0.0
 10
0.657710
 20
0.784523
 30
0.0
 10
0.657710
 20
0.662705
 30
0.0
 10
0.876984
 20
0.662705
 30
0.0
 10
0.961540
 20
0.662705
 30
0.0
 10
1.048522
 20
0.776365
 30
0.0
 10
1.201760
 20
0.776365
 30
0.0
 10
1.120566
 20
0.662705
 30
0.0
 10
1.526591
 20
0.662705
 30
0.0
 10
1.611147
 20
0.662705
 30
0.0
 10
1.698129
 20
0.776365
 30
0.0
 10
1.851367
 20
0.776365
 30
0.0
 10
1.770173
 20
0.662705
 30
0.0
 10
1.940664
 20
0.662705
 30
0.0
 10
1.940664
 20
0.816990
 30
0.0
 10
1.786378
 20
0.816990
 30
0.0
 10
1.786378
 20
1.060572
 30
0.0
 10
1.827003
 20
1.060572
 30
0.0
 10
1.827003
 20
1.206754
 30
0.0
 10
1.940664
 20
1.125560
 30
0.0
 10
1.940664
 20
1.174288
 30
0.0
 10
1.940664
 20
1.223015
 30
0.0
 10
1.940664
 20
1.296051
 30
0.0
 10
1.940664
 20
1.312312
 30
0.0
 10
1.956869
 20
1.312312
 30
0.0
 10
2.111210
 20
1.312312
 30
0.0
 10
2.111210
 20
1.466597
 30
0.0
 10
2.354792
 20
1.466597
 30
0.0
 10
2.354792
 20
1.425973
 30
0.0
 10
2.500919
 20
1.425973
 30
0.0
 10
2.419725
 20
1.312312
 30
0.0
 10
2.590216
 20
1.312312
 30
0.0
 10
2.590216
 20
1.531530
 30
0.0
 10
2.590272
 20
1.531474
 30
0.0
 10
2.590272
 20
1.616140
 30
0.0
 10
2.476611
 20
1.703177
 30
0.0
 10
2.476611
 20
1.856360
 30
0.0
 10
2.590217
 20
1.775166
 30
0.0
 10
2.590217
 20
1.823894
 30
0.0
 10
2.590217
 20
1.872621
 30
0.0
 10
2.590273
 20
1.872621
 30
0.0
 10
2.590273
 20
2.091839
 30
0.0
 10
2.590217
 20
2.091839
 30
0.0
 10
2.590217
 20
2.181136
 30
0.0
 10
2.590273
 20
2.181080
 30
0.0
 10
2.590273
 20
2.265746
 30
0.0
 10
2.476613
 20
2.352783
 30
0.0
 10
2.476613
 20
2.505966
 30
0.0
 10
2.590218
 20
2.424772
 30
0.0
 10
2.590218
 20
2.473499
 30
0.0
 10
2.590218
 20
2.595263
 30
0.0
 10
2.371000
 20
2.595263
 30
0.0
 10
2.286333
 20
2.595263
 30
0.0
 10
2.199352
 20
2.481602
 30
0.0
 10
2.046224
 20
2.481602
 30
0.0
 10
2.127418
 20
2.595263
 30
0.0
 10
2.078691
 20
2.595263
 30
0.0
 10
1.956927
 20
2.595263
 30
0.0
 10
1.956924
 20
2.595267
 30
0.0
  0
LWPOLYLINE
  5
10d
100
AcDbEntity
  8
Layer_1
 62
7
100
AcDbPolyline
 90
109
 70
1
 10
3.905746
 20
2.595267
 30
0.0
 10
3.905746
 20
2.440982
 30
0.0
 10
4.059976
 20
2.440982
 30
0.0
 10
4.059976
 20
2.197400
 30
0.0
 10
4.019407
 20
2.197400
 30
0.0
 10
4.019407
 20
2.051217
 30
0.0
 10
3.905746
 20
2.132356
 30
0.0
 10
3.905746
 20
1.961921
 30
0.0
 10
3.905746
 20
1.945660
 30
0.0
 10
3.905746
 20
1.791374
 30
0.0
 10
4.059976
 20
1.791374
 30
0.0
 10
4.059976
 20
1.547792
 30
0.0
 10
4.019407
 20
1.547792
 30
0.0
 10
4.019407
 20
1.401610
 30
0.0
 10
3.905746
 20
1.482749
 30
0.0
 10
3.905746
 20
1.312313
 30
0.0
 10
3.905746
 20
1.296107
 30
0.0
 10
3.759564
 20
1.296107
 30
0.0
 10
3.759564
 20
1.296051
 30
0.0
 10
3.735200
 20
1.296051
 30
0.0
 10
3.735200
 20
1.141821
 30
0.0
 10
3.491618
 20
1.141821
 30
0.0
 10
3.491618
 20
1.182391
 30
0.0
 10
3.345436
 20
1.182391
 30
0.0
 10
3.426630
 20
1.296051
 30
0.0
 10
3.377902
 20
1.296051
 30
0.0
 10
3.256139
 20
1.296051
 30
0.0
 10
3.259060
 20
0.989906
 30
0.0
 10
3.369799
 20
0.905184
 30
0.0
 10
3.369799
 20
0.752002
 30
0.0
 10
3.260604
 20
0.829944
 30
0.0
 10
3.262201
 20
0.662705
 30
0.0
 10
3.475356
 20
0.662705
 30
0.0
 10
3.472822
 20
0.659232
 30
0.0
 10
3.557378
 20
0.659401
 30
0.0
 10
3.646896
 20
0.776369
 30
0.0
 10
3.800134
 20
0.776369
 30
0.0
 10
3.718940
 20
0.662709
 30
0.0
 10
3.767667
 20
0.662709
 30
0.0
 10
3.840758
 20
0.662709
 30
0.0
 10
3.889430
 20
0.662709
 30
0.0
 10
3.905691
 20
0.662709
 30
0.0
 10
4.059976
 20
0.662709
 30
0.0
 10
4.124965
 20
0.662709
 30
0.0
 10
4.123367
 20
0.660558
 30
0.0
 10
4.207979
 20
0.660728
 30
0.0
 10
4.296504
 20
0.776373
 30
0.0
 10
4.449742
 20
0.776373
 30
0.0
 10
4.368548
 20
0.662712
 30
0.0
 10
4.417275
 20
0.662712
 30
0.0
 10
4.457900
 20
0.662712
 30
0.0
 10
4.539039
 20
0.662712
 30
0.0
 10
4.555300
 20
0.662712
 30
0.0
 10
4.677118
 20
0.662712
 30
0.0
 10
4.774573
 20
0.662712
 30
0.0
 10
4.773966
 20
0.661885
 30
0.0
 10
4.858633
 20
0.662055
 30
0.0
 10
4.946111
 20
0.776377
 30
0.0
 10
5.099349
 20
0.776377
 30
0.0
 10
5.018154
 20
0.662716
 30
0.0
 10
5.066882
 20
0.662716
 30
0.0
 10
5.188645
 20
0.662716
 30
0.0
 10
5.188645
 20
0.881934
 30
0.0
 10
5.188702
 20
0.881878
 30
0.0
 10
5.188702
 20
0.966544
 30
0.0
 10
5.074986
 20
1.053582
 30
0.0
 10
5.074986
 20
1.206764
 30
0.0
 10
5.188647
 20
1.125570
 30
0.0
 10
5.188647
 20
1.174298
 30
0.0
 10
5.188647
 20
1.296061
 30
0.0
 10
5.034417
 20
1.296061
 30
0.0
 10
5.034417
 20
1.141831
 30
0.0
 10
4.790780
 20
1.141831
 30
0.0
 10
4.790780
 20
1.182400
 30
0.0
 10
4.644652
 20
1.182400
 30
0.0
 10
4.725846
 20
1.296061
 30
0.0
 10
4.677119
 20
1.296061
 30
0.0
 10
4.620289
 20
1.296061
 30
0.0
 10
4.620289
 20
1.296117
 30
0.0
 10
4.539095
 20
1.296117
 30
0.0
 10
4.539095
 20
1.442245
 30
0.0
 10
4.539038
 20
1.442245
 30
0.0
 10
4.539038
 20
1.466608
 30
0.0
 10
4.384808
 20
1.466608
 30
0.0
 10
4.384808
 20
1.710190
 30
0.0
 10
4.425378
 20
1.710190
 30
0.0
 10
4.425378
 20
1.856373
 30
0.0
 10
4.539038
 20
1.775179
 30
0.0
 10
4.539038
 20
1.823906
 30
0.0
 10
4.539038
 20
1.880736
 30
0.0
 10
4.539095
 20
1.880736
 30
0.0
 10
4.539095
 20
2.099955
 30
0.0
 10
4.539038
 20
2.099955
 30
0.0
 10
4.539038
 20
2.116216
 30
0.0
 10
4.384808
 20
2.116216
 30
0.0
 10
4.384808
 20
2.359798
 30
0.0
 10
4.425378
 20
2.359798
 30
0.0
 10
4.425378
 20
2.505980
 30
0.0
 10
4.539038
 20
2.424786
 30
0.0
 10
4.539038
 20
2.473513
 30
0.0
 10
4.539038
 20
2.595277
 30
0.0
 10
4.319820
 20
2.595277
 30
0.0
 10
4.235153
 20
2.595277
 30
0.0
 10
4.148171
 20
2.481616
 30
0.0
 10
3.995044
 20
2.481616
 30
0.0
 10
4.076238
 20
2.595277
 30
0.0
 10
4.027510
 20
2.595277
 30
0.0
 10
3.905747
 20
2.595277
 30
0.0
 10
3.905746
 20
2.595267
 30
0.0
  0
LWPOLYLINE
  5
10e
100
AcDbEntity
  8
Layer_1
 62
7
100
AcDbPolyline
 90
79
 70
1
 10
9.102494
 20
2.595267
 30
0.0
 10
9.102494
 20
2.440982
 30
0.0
 10
9.256779
 20
2.440982
 30
0.0
 10
9.256779
 20
2.197400
 30
0.0
 10
9.216209
 20
2.197400
 30
0.0
 10
9.216209
 20
2.051217
 30
0.0
 10
9.102494
 20
2.132412
 30
0.0
 10
9.102494
 20
2.083739
 30
0.0
 10
9.102494
 20
2.035012
 30
0.0
 10
9.102494
 20
1.961921
 30
0.0
 10
9.102494
 20
1.945660
 30
0.0
 10
8.932003
 20
1.945660
 30
0.0
 10
8.932003
 20
1.791374
 30
0.0
 10
8.688421
 20
1.791374
 30
0.0
 10
8.688421
 20
1.831999
 30
0.0
 10
8.542238
 20
1.831999
 30
0.0
 10
8.623432
 20
1.945660
 30
0.0
 10
8.574705
 20
1.945660
 30
0.0
 10
8.452941
 20
1.945660
 30
0.0
 10
8.452941
 20
1.641775
 30
0.0
 10
8.566602
 20
1.554793
 30
0.0
 10
8.566602
 20
1.401610
 30
0.0
 10
8.452941
 20
1.482749
 30
0.0
 10
8.452941
 20
1.312313
 30
0.0
 10
8.452941
 20
1.296052
 30
0.0
 10
8.452941
 20
0.992167
 30
0.0
 10
8.566602
 20
0.905186
 30
0.0
 10
8.566602
 20
0.752003
 30
0.0
 10
8.452941
 20
0.833142
 30
0.0
 10
8.452941
 20
0.662706
 30
0.0
 10
8.672160
 20
0.662706
 30
0.0
 10
8.756716
 20
0.662706
 30
0.0
 10
8.843698
 20
0.776367
 30
0.0
 10
8.996936
 20
0.776367
 30
0.0
 10
8.915742
 20
0.662706
 30
0.0
 10
9.321767
 20
0.662706
 30
0.0
 10
9.406323
 20
0.662706
 30
0.0
 10
9.493305
 20
0.776367
 30
0.0
 10
9.646543
 20
0.776367
 30
0.0
 10
9.565349
 20
0.662706
 30
0.0
 10
9.735840
 20
0.662706
 30
0.0
 10
9.735840
 20
0.881924
 30
0.0
 10
9.735896
 20
0.881868
 30
0.0
 10
9.735896
 20
0.966535
 30
0.0
 10
9.622180
 20
1.053572
 30
0.0
 10
9.622180
 20
1.206754
 30
0.0
 10
9.735841
 20
1.125560
 30
0.0
 10
9.735841
 20
1.174288
 30
0.0
 10
9.735841
 20
1.239221
 30
0.0
 10
9.735897
 20
1.239221
 30
0.0
 10
9.735897
 20
1.458494
 30
0.0
 10
9.735841
 20
1.458494
 30
0.0
 10
9.735841
 20
1.531530
 30
0.0
 10
9.735897
 20
1.531474
 30
0.0
 10
9.735897
 20
1.616140
 30
0.0
 10
9.622182
 20
1.703177
 30
0.0
 10
9.622182
 20
1.856360
 30
0.0
 10
9.735842
 20
1.775166
 30
0.0
 10
9.735842
 20
1.823894
 30
0.0
 10
9.735842
 20
1.872621
 30
0.0
 10
9.735898
 20
1.872621
 30
0.0
 10
9.735898
 20
2.091839
 30
0.0
 10
9.735842
 20
2.091839
 30
0.0
 10
9.735842
 20
2.181136
 30
0.0
 10
9.735898
 20
2.181080
 30
0.0
 10
9.735898
 20
2.265746
 30
0.0
 10
9.622183
 20
2.352783
 30
0.0
 10
9.622183
 20
2.505966
 30
0.0
 10
9.735843
 20
2.424772
 30
0.0
 10
9.735843
 20
2.473499
 30
0.0
 10
9.735843
 20
2.595263
 30
0.0
 10
9.516625
 20
2.595263
 30
0.0
 10
9.431958
 20
2.595263
 30
0.0
 10
9.344976
 20
2.481602
 30
0.0
 10
9.191849
 20
2.481602
 30
0.0
 10
9.273043
 20
2.595263
 30
0.0
 10
9.224315
 20
2.595263
 30
0.0
 10
9.102497
 20
2.595263
 30
0.0
 10
9.102494
 20
2.595267
 30
0.0
  0
LWPOLYLINE
  5
10f
100
AcDbEntity
  8
Layer_1
 62
7
100
AcDbPolyline
 90
92
 70
1
 10
5.854513
 20
1.945660
 30
0.0
 10
5.854513
 20
1.726441
 30
0.0
 10
5.854513
 20
1.641830
 30
0.0
 10
5.968228
 20
1.554793
 30
0.0
 10
5.968228
 20
1.401610
 30
0.0
 10
5.854513
 20
1.482804
 30
0.0
 10
5.854513
 20
1.434132
 30
0.0
 10
5.854513
 20
1.377302
 30
0.0
 10
5.854513
 20
1.312313
 30
0.0
 10
5.854513
 20
1.296052
 30
0.0
 10
5.854513
 20
1.133665
 30
0.0
 10
5.854513
 20
1.076834
 30
0.0
 10
5.854513
 20
0.992223
 30
0.0
 10
5.968228
 20
0.905186
 30
0.0
 10
5.968228
 20
0.752003
 30
0.0
 10
5.854513
 20
0.833197
 30
0.0
 10
5.854513
 20
0.784525
 30
0.0
 10
5.854513
 20
0.662706
 30
0.0
 10
6.073786
 20
0.662706
 30
0.0
 10
6.158342
 20
0.662706
 30
0.0
 10
6.245324
 20
0.776367
 30
0.0
 10
6.398562
 20
0.776367
 30
0.0
 10
6.317368
 20
0.662706
 30
0.0
 10
6.723393
 20
0.662706
 30
0.0
 10
6.807950
 20
0.662706
 30
0.0
 10
6.894931
 20
0.776367
 30
0.0
 10
7.048169
 20
0.776367
 30
0.0
 10
6.966975
 20
0.662706
 30
0.0
 10
7.372945
 20
0.662706
 30
0.0
 10
7.457502
 20
0.662706
 30
0.0
 10
7.544484
 20
0.776367
 30
0.0
 10
7.697721
 20
0.776367
 30
0.0
 10
7.616527
 20
0.662706
 30
0.0
 10
7.787018
 20
0.662706
 30
0.0
 10
7.787018
 20
0.881924
 30
0.0
 10
7.787075
 20
0.881868
 30
0.0
 10
7.787075
 20
0.966535
 30
0.0
 10
7.673359
 20
1.053572
 30
0.0
 10
7.673359
 20
1.206754
 30
0.0
 10
7.787020
 20
1.125560
 30
0.0
 10
7.787020
 20
1.174288
 30
0.0
 10
7.787020
 20
1.231118
 30
0.0
 10
7.787076
 20
1.231118
 30
0.0
 10
7.787076
 20
1.450336
 30
0.0
 10
7.787020
 20
1.450336
 30
0.0
 10
7.787020
 20
1.531530
 30
0.0
 10
7.787076
 20
1.531474
 30
0.0
 10
7.787076
 20
1.616140
 30
0.0
 10
7.673360
 20
1.703177
 30
0.0
 10
7.673360
 20
1.856360
 30
0.0
 10
7.787021
 20
1.775166
 30
0.0
 10
7.787021
 20
1.823894
 30
0.0
 10
7.787021
 20
1.945657
 30
0.0
 10
7.567803
 20
1.945657
 30
0.0
 10
7.483136
 20
1.945657
 30
0.0
 10
7.396154
 20
1.831996
 30
0.0
 10
7.267390
 20
1.831996
 30
0.0
 10
7.267390
 20
1.554790
 30
0.0
 10
7.267390
 20
1.401608
 30
0.0
 10
7.153730
 20
1.482746
 30
0.0
 10
7.153730
 20
1.312310
 30
0.0
 10
7.153730
 20
1.296105
 30
0.0
 10
7.153730
 20
1.296048
 30
0.0
 10
7.153673
 20
1.296048
 30
0.0
 10
7.137468
 20
1.296048
 30
0.0
 10
6.975080
 20
1.296048
 30
0.0
 10
6.918250
 20
1.296048
 30
0.0
 10
6.918306
 20
1.296105
 30
0.0
 10
6.833639
 20
1.296105
 30
0.0
 10
6.746602
 20
1.182389
 30
0.0
 10
6.593475
 20
1.182389
 30
0.0
 10
6.674669
 20
1.296050
 30
0.0
 10
6.625941
 20
1.296050
 30
0.0
 10
6.585317
 20
1.296050
 30
0.0
 10
6.504123
 20
1.296050
 30
0.0
 10
6.487862
 20
1.296050
 30
0.0
 10
6.487862
 20
1.296106
 30
0.0
 10
6.487862
 20
1.312312
 30
0.0
 10
6.487862
 20
1.434131
 30
0.0
 10
6.487862
 20
1.531530
 30
0.0
 10
6.487862
 20
1.612779
 30
0.0
 10
6.475680
 20
1.625512
 30
0.0
 10
6.374201
 20
1.703179
 30
0.0
 10
6.374201
 20
1.945658
 30
0.0
 10
6.268644
 20
1.945658
 30
0.0
 10
6.183977
 20
1.945658
 30
0.0
 10
6.096995
 20
1.831998
 30
0.0
 10
5.943868
 20
1.831998
 30
0.0
 10
6.025062
 20
1.945658
 30
0.0
 10
5.976334
 20
1.945658
 30
0.0
 10
5.854516
 20
1.945658
 30
0.0
 10
5.854513
 20
1.945660
 30
0.0
  0
ENDSEC
  0
SECTION
  2
OBJECTS
  0
DICTIONARY
  5
C
330
0
100
AcDbDictionary
  3
ACAD_GROUP
350
D
  3
ACAD_MLINESTYLE
350
17
  0
DICTIONARY
  5
D
330
C
100
AcDbDictionary
  0
DICTIONARY
  5
1A
330
C
100
AcDbDictionary
  0
DICTIONARY
  5
17
330
C
100
AcDbDictionary
  3
STANDARD
350
18
  0
DICTIONARY
  5
19
330
C
100
AcDbDictionary
  0
ENDSEC
  0
EOF
