  0
SECTION
  2
HEADER
  9
$ACADVER
  1
AC1014
  9
$HANDSEED
  5
FFFF
  9
$MEASUREMENT
 70
     1
  0
ENDSEC
  0
SECTION
  2
TABLES
  0
TABLE
  2
VPORT
  5
8
330
0
100
AcDbSymbolTable
 70
     4
  0
VPORT
  5
2E
330
8
100
AcDbSymbolTableRecord
100
AcDbViewportTableRecord
  2
*ACTIVE
 70
     0
 10
0.0
 20
0.0
 11
1.0
 21
1.0
 12
210.0
 22
148.5
 13
0.0
 23
0.0
 14
10.0
 24
10.0
 15
10.0
 25
10.0
 16
0.0
 26
0.0
 36
1.0
 17
0.0
 27
0.0
 37
0.0
 40
341.0
 41
1.24
 42
50.0
 43
0.0
 44
0.0
 50
0.0
 51
0.0
 71
     0
 72
   100
 73
     1
 74
     3
 75
     0
 76
     0
 77
     0
 78
     0
  0
ENDTAB
  0
TABLE
  2
LTYPE
  5
5
330
0
100
AcDbSymbolTable
 70
     1
  0
LTYPE
  5
14
330
5
100
AcDbSymbolTableRecord
100
AcDbLinetypeTableRecord
  2
BYBLOCK
 70
     0
  3

 72
    65
 73
     0
 40
0.0
  0
LTYPE
  5
15
330
5
100
AcDbSymbolTableRecord
100
AcDbLinetypeTableRecord
  2
BYLAYER
 70
     0
  3

 72
    65
 73
     0
 40
0.0
  0
LTYPE
  5
16
330
5
100
AcDbSymbolTableRecord
100
AcDbLinetypeTableRecord
  2
CONTINUOUS
 70
     0
  3
Solid line
 72
    65
 73
     0
 40
0.0
  0
ENDTAB
  0
TABLE
  2
LAYER
  5
2
100
AcDbSymbolTable
 70
2
  0
LAYER
  5
50
100
AcDbSymbolTableRecord
100
AcDbLayerTableRecord
  2
0
 70
0
  6
CONTINUOUS
  0
LAYER
  5
51
100
AcDbSymbolTableRecord
100
AcDbLayerTableRecord
  2
Layer_1
 70
0
  6
CONTINUOUS
  0
ENDTAB
  0
TABLE
  2
STYLE
  5
3
330
0
100
AcDbSymbolTable
 70
     1
  0
STYLE
  5
11
330
3
100
AcDbSymbolTableRecord
100
AcDbTextStyleTableRecord
  2
STANDARD
 70
     0
 40
0.0
 41
1.0
 50
0.0
 71
     0
 42
2.5
  3
txt
  4

  0
ENDTAB
  0
TABLE
  2
VIEW
  5
6
330
0
100
AcDbSymbolTable
 70
     0
  0
ENDTAB
  0
TABLE
  2
UCS
  5
7
330
0
100
AcDbSymbolTable
 70
     0
  0
ENDTAB
  0
TABLE
  2
APPID
  5
9
330
0
100
AcDbSymbolTable
 70
     2
  0
APPID
  5
12
330
9
100
AcDbSymbolTableRecord
100
AcDbRegAppTableRecord
  2
ACAD
 70
     0
  0
ENDTAB
  0
TABLE
  2
DIMSTYLE
  5
A
330
0
100
AcDbSymbolTable
 70
     1
  0
DIMSTYLE
105
27
330
A
100
AcDbSymbolTableRecord
100
AcDbDimStyleTableRecord
  2
ISO-25
 70
     0
  3

  4

  5

  6

  7

 40
1.0
 41
2.5
 42
0.625
 43
3.75
 44
1.25
 45
0.0
 46
0.0
 47
0.0
 48
0.0
140
2.5
141
2.5
142
0.0
143
0.03937007874016
144
1.0
145
0.0
146
1.0
147
0.625
 71
     0
 72
     0
 73
     0
 74
     0
 75
     0
 76
     0
 77
     1
 78
     8
170
     0
171
     3
172
     1
173
     0
174
     0
175
     0
176
     0
177
     0
178
     0
270
     2
271
     2
272
     2
273
     2
274
     3
340
11
275
     0
280
     0
281
     0
282
     0
283
     0
284
     8
285
     0
286
     0
287
     3
288
     0
  0
ENDTAB
  0
TABLE
  2
BLOCK_RECORD
  5
1
330
0
100
AcDbSymbolTable
 70
     1
  0
BLOCK_RECORD
  5
1F
330
1
100
AcDbSymbolTableRecord
100
AcDbBlockTableRecord
  2
*MODEL_SPACE
  0
BLOCK_RECORD
  5
1B
330
1
100
AcDbSymbolTableRecord
100
AcDbBlockTableRecord
  2
*PAPER_SPACE
  0
ENDTAB
  0
ENDSEC
  0
SECTION
  2
BLOCKS
  0
BLOCK
  5
20
330
1F
100
AcDbEntity
  8
0
100
AcDbBlockBegin
  2
*MODEL_SPACE
 70
     0
 10
0.0
 20
0.0
 30
0.0
  3
*MODEL_SPACE
  1

  0
ENDBLK
  5
21
330
1F
100
AcDbEntity
  8
0
100
AcDbBlockEnd
  0
BLOCK
  5
1C
330
1B
100
AcDbEntity
 67
     1
  8
0
100
AcDbBlockBegin
  2
*PAPER_SPACE
  1

  0
ENDBLK
  5
1D
330
1B
100
AcDbEntity
 67
     1
  8
0
100
AcDbBlockEnd
  0
ENDSEC
  0
SECTION
  2
ENTITIES
  0
LWPOLYLINE
  5
100
100
AcDbEntity
  8
Layer_1
 62
7
100
AcDbPolyline
 90
128
 70
0
 10
15.298486
 20
9.994147
 30
0.0
 10
14.906310
 20
9.981778
 30
0.0
 10
14.516312
 20
9.938695
 30
0.0
 10
14.130293
 20
9.861029
 30
0.0
 10
13.753313
 20
9.753792
 30
0.0
 10
13.386979
 20
9.617805
 30
0.0
 10
13.032896
 20
9.453889
 30
0.0
 10
12.692671
 20
9.262865
 30
0.0
 10
12.367910
 20
9.045554
 30
0.0
 10
12.060219
 20
8.802777
 30
0.0
 10
11.771204
 20
8.535356
 30
0.0
 10
11.771977
 20
8.534585
 30
0.0
 10
12.114558
 20
8.191950
 30
0.0
 10
12.124039
 20
8.182414
 30
0.0
 10
11.881911
 20
7.924896
 30
0.0
 10
11.660742
 20
7.649168
 30
0.0
 10
11.258630
 20
7.941368
 30
0.0
 10
11.040171
 20
7.613960
 30
0.0
 10
10.848416
 20
7.270923
 30
0.0
 10
10.684195
 20
6.913886
 30
0.0
 10
10.548334
 20
6.544477
 30
0.0
 10
10.551035
 20
6.543597
 30
0.0
 10
10.608582
 20
6.524911
 30
0.0
 10
11.024640
 20
6.389643
 30
0.0
 10
10.925814
 20
6.050279
 30
0.0
 10
10.853928
 20
5.704206
 30
0.0
 10
10.840588
 20
5.706300
 30
0.0
 10
10.363016
 20
5.781927
 30
0.0
 10
10.316131
 20
5.391945
 30
0.0
 10
10.300005
 20
5.000090
 30
0.0
 10
10.314640
 20
4.608176
 30
0.0
 10
10.360039
 20
4.218019
 30
0.0
 10
10.437984
 20
3.833760
 30
0.0
 10
10.545799
 20
3.456790
 30
0.0
 10
10.550594
 20
3.458334
 30
0.0
 10
10.599873
 20
3.474320
 30
0.0
 10
11.024199
 20
3.612123
 30
0.0
 10
11.143703
 20
3.279471
 30
0.0
 10
11.288947
 20
2.957224
 30
0.0
 10
11.276931
 20
2.951106
 30
0.0
 10
10.848967
 20
2.733045
 30
0.0
 10
10.990316
 20
2.474116
 30
0.0
 10
11.146263
 20
2.224613
 30
0.0
 10
11.316313
 20
1.985116
 30
0.0
 10
11.499972
 20
1.756207
 30
0.0
 10
11.696743
 20
1.538468
 30
0.0
 10
11.906133
 20
1.332478
 30
0.0
 10
12.127645
 20
1.138821
 30
0.0
 10
12.360786
 20
0.958076
 30
0.0
 10
12.363652
 20
0.962045
 30
0.0
 10
12.656457
 20
1.364874
 30
0.0
 10
12.948581
 20
1.166023
 30
0.0
 10
13.255408
 20
0.990708
 30
0.0
 10
13.255464
 20
0.990821
 30
0.0
 10
13.575177
 20
0.840101
 30
0.0
 10
13.905733
 20
0.714938
 30
0.0
 10
13.903419
 20
0.707772
 30
0.0
 10
13.903749
 20
0.707603
 30
0.0
 10
13.755032
 20
0.249764
 30
0.0
 10
14.038199
 20
0.166290
 30
0.0
 10
14.325046
 20
0.099825
 30
0.0
 10
14.614808
 20
0.050432
 30
0.0
 10
14.906724
 20
0.018171
 30
0.0
 10
15.200030
 20
0.003105
 30
0.0
 10
15.493964
 20
0.005294
 30
0.0
 10
15.787763
 20
0.024802
 30
0.0
 10
16.080664
 20
0.061689
 30
0.0
 10
16.465286
 20
0.139796
 30
0.0
 10
16.842026
 20
0.247642
 30
0.0
 10
17.209163
 20
0.384661
 30
0.0
 10
17.564977
 20
0.550286
 30
0.0
 10
17.561394
 20
0.557286
 30
0.0
 10
17.561338
 20
0.557230
 30
0.0
 10
17.335339
 20
1.001013
 30
0.0
 10
17.644843
 20
1.170879
 30
0.0
 10
17.940078
 20
1.364485
 30
0.0
 10
18.219191
 20
1.580756
 30
0.0
 10
18.480489
 20
1.818245
 30
0.0
 10
18.829684
 20
1.468995
 30
0.0
 10
19.000281
 20
1.648429
 30
0.0
 10
19.161110
 20
1.835256
 30
0.0
 10
19.312001
 20
2.029067
 30
0.0
 10
19.452786
 20
2.229455
 30
0.0
 10
19.583295
 20
2.436012
 30
0.0
 10
19.703360
 20
2.648331
 30
0.0
 10
19.812811
 20
2.866004
 30
0.0
 10
19.911480
 20
3.088623
 30
0.0
 10
19.999197
 20
3.315780
 30
0.0
 10
20.075795
 20
3.547068
 30
0.0
 10
20.141103
 20
3.782079
 30
0.0
 10
20.194952
 20
4.020404
 30
0.0
 10
20.237175
 20
4.261637
 30
0.0
 10
20.267601
 20
4.505370
 30
0.0
 10
20.286062
 20
4.751194
 30
0.0
 10
20.292389
 20
4.998703
 30
0.0
 10
19.819667
 20
4.998703
 30
0.0
 10
19.787035
 20
4.998703
 30
0.0
 10
19.776071
 20
5.351598
 30
0.0
 10
19.737426
 20
5.702549
 30
0.0
 10
19.737313
 20
5.702549
 30
0.0
 10
19.671298
 20
6.049827
 30
0.0
 10
19.578232
 20
6.390852
 30
0.0
 10
20.050954
 20
6.544476
 30
0.0
 10
19.930968
 20
6.873711
 30
0.0
 10
19.789586
 20
7.190989
 30
0.0
 10
19.627733
 20
7.495520
 30
0.0
 10
19.446332
 20
7.786515
 30
0.0
 10
19.246307
 20
8.063187
 30
0.0
 10
19.028580
 20
8.324745
 30
0.0
 10
18.794076
 20
8.570401
 30
0.0
 10
18.543718
 20
8.799366
 30
0.0
 10
18.278430
 20
9.010851
 30
0.0
 10
17.999134
 20
9.204068
 30
0.0
 10
17.706756
 20
9.378227
 30
0.0
 10
17.402217
 20
9.532540
 30
0.0
 10
17.086443
 20
9.666218
 30
0.0
 10
16.760355
 20
9.778472
 30
0.0
 10
16.424878
 20
9.868513
 30
0.0
 10
16.080936
 20
9.935553
 30
0.0
 10
16.080163
 20
9.930647
 30
0.0
 10
16.045216
 20
9.710436
 30
0.0
 10
16.004260
 20
9.452137
 30
0.0
 10
16.002166
 20
9.438797
 30
0.0
 10
15.651532
 20
9.483328
 30
0.0
 10
15.298485
 20
9.500203
 30
0.0
 10
15.298485
 20
9.513707
 30
0.0
 10
15.298485
 20
9.994147
 30
0.0
 10
15.298486
 20
9.994147
 30
0.0
  0
LWPOLYLINE
  5
101
100
AcDbEntity
  8
Layer_1
 62
7
100
AcDbPolyline
 90
66
 70
0
 10
13.496232
 20
8.398103
 30
0.0
 10
13.659821
 20
8.389839
 30
0.0
 10
13.818683
 20
8.365589
 30
0.0
 10
13.972016
 20
8.326160
 30
0.0
 10
14.119014
 20
8.272354
 30
0.0
 10
14.258874
 20
8.204976
 30
0.0
 10
14.390791
 20
8.124831
 30
0.0
 10
14.513961
 20
8.032722
 30
0.0
 10
14.627580
 20
7.929455
 30
0.0
 10
14.730844
 20
7.815832
 30
0.0
 10
14.822949
 20
7.692659
 30
0.0
 10
14.903089
 20
7.560739
 30
0.0
 10
14.970462
 20
7.420877
 30
0.0
 10
15.024263
 20
7.273876
 30
0.0
 10
15.063687
 20
7.120543
 30
0.0
 10
15.087931
 20
6.961679
 30
0.0
 10
15.096190
 20
6.798090
 30
0.0
 10
15.087926
 20
6.634506
 30
0.0
 10
15.063678
 20
6.475647
 30
0.0
 10
15.024250
 20
6.322318
 30
0.0
 10
14.970446
 20
6.175322
 30
0.0
 10
14.903071
 20
6.035465
 30
0.0
 10
14.822929
 20
5.903549
 30
0.0
 10
14.730825
 20
5.780381
 30
0.0
 10
14.627561
 20
5.666762
 30
0.0
 10
14.513942
 20
5.563498
 30
0.0
 10
14.390773
 20
5.471393
 30
0.0
 10
14.258858
 20
5.391252
 30
0.0
 10
14.119001
 20
5.323877
 30
0.0
 10
13.972005
 20
5.270074
 30
0.0
 10
13.818676
 20
5.230646
 30
0.0
 10
13.659817
 20
5.206397
 30
0.0
 10
13.496232
 20
5.198133
 30
0.0
 10
13.332644
 20
5.206392
 30
0.0
 10
13.173780
 20
5.230636
 30
0.0
 10
13.020447
 20
5.270060
 30
0.0
 10
12.873447
 20
5.323861
 30
0.0
 10
12.733585
 20
5.391234
 30
0.0
 10
12.601665
 20
5.471375
 30
0.0
 10
12.478491
 20
5.563479
 30
0.0
 10
12.364869
 20
5.666743
 30
0.0
 10
12.261601
 20
5.780362
 30
0.0
 10
12.169492
 20
5.903532
 30
0.0
 10
12.089347
 20
6.035449
 30
0.0
 10
12.021969
 20
6.175309
 30
0.0
 10
11.968164
 20
6.322307
 30
0.0
 10
11.928734
 20
6.475640
 30
0.0
 10
11.904485
 20
6.634502
 30
0.0
 10
11.896220
 20
6.798090
 30
0.0
 10
11.904048
 20
6.956232
 30
0.0
 10
11.927246
 20
7.111696
 30
0.0
 10
11.965378
 20
7.263432
 30
0.0
 10
12.018010
 20
7.410391
 30
0.0
 10
12.084708
 20
7.551524
 30
0.0
 10
12.165037
 20
7.685781
 30
0.0
 10
12.258562
 20
7.812114
 30
0.0
 10
12.364849
 20
7.929474
 30
0.0
 10
12.482209
 20
8.035761
 30
0.0
 10
12.608542
 20
8.129286
 30
0.0
 10
12.742799
 20
8.209615
 30
0.0
 10
12.883932
 20
8.276313
 30
0.0
 10
13.030891
 20
8.328945
 30
0.0
 10
13.182627
 20
8.367077
 30
0.0
 10
13.338090
 20
8.390275
 30
0.0
 10
13.496232
 20
8.398103
 30
0.0
 10
13.496232
 20
8.398103
 30
0.0
  0
LWPOLYLINE
  5
102
100
AcDbEntity
  8
Layer_1
 62
7
100
AcDbPolyline
 90
66
 70
0
 10
17.096220
 20
8.398103
 30
0.0
 10
17.254362
 20
8.390275
 30
0.0
 10
17.409825
 20
8.367077
 30
0.0
 10
17.561561
 20
8.328945
 30
0.0
 10
17.708520
 20
8.276313
 30
0.0
 10
17.849653
 20
8.209615
 30
0.0
 10
17.983911
 20
8.129286
 30
0.0
 10
18.110244
 20
8.035761
 30
0.0
 10
18.227603
 20
7.929474
 30
0.0
 10
18.333890
 20
7.812114
 30
0.0
 10
18.427415
 20
7.685781
 30
0.0
 10
18.507744
 20
7.551524
 30
0.0
 10
18.574442
 20
7.410391
 30
0.0
 10
18.627074
 20
7.263432
 30
0.0
 10
18.665207
 20
7.111696
 30
0.0
 10
18.688404
 20
6.956232
 30
0.0
 10
18.696232
 20
6.798090
 30
0.0
 10
18.687968
 20
6.634502
 30
0.0
 10
18.663718
 20
6.475640
 30
0.0
 10
18.624289
 20
6.322307
 30
0.0
 10
18.570483
 20
6.175309
 30
0.0
 10
18.503105
 20
6.035449
 30
0.0
 10
18.422960
 20
5.903532
 30
0.0
 10
18.330851
 20
5.780362
 30
0.0
 10
18.227584
 20
5.666743
 30
0.0
 10
18.113961
 20
5.563479
 30
0.0
 10
17.990787
 20
5.471375
 30
0.0
 10
17.858868
 20
5.391234
 30
0.0
 10
17.719006
 20
5.323861
 30
0.0
 10
17.572006
 20
5.270061
 30
0.0
 10
17.418672
 20
5.230636
 30
0.0
 10
17.259808
 20
5.206392
 30
0.0
 10
17.096220
 20
5.198133
 30
0.0
 10
16.932631
 20
5.206392
 30
0.0
 10
16.773768
 20
5.230636
 30
0.0
 10
16.620434
 20
5.270060
 30
0.0
 10
16.473434
 20
5.323861
 30
0.0
 10
16.333572
 20
5.391234
 30
0.0
 10
16.201652
 20
5.471375
 30
0.0
 10
16.078479
 20
5.563479
 30
0.0
 10
15.964856
 20
5.666743
 30
0.0
 10
15.861588
 20
5.780362
 30
0.0
 10
15.769480
 20
5.903532
 30
0.0
 10
15.689334
 20
6.035449
 30
0.0
 10
15.621957
 20
6.175309
 30
0.0
 10
15.568151
 20
6.322307
 30
0.0
 10
15.528721
 20
6.475640
 30
0.0
 10
15.504472
 20
6.634502
 30
0.0
 10
15.496207
 20
6.798090
 30
0.0
 10
15.504035
 20
6.956232
 30
0.0
 10
15.527233
 20
7.111696
 30
0.0
 10
15.565365
 20
7.263432
 30
0.0
 10
15.617997
 20
7.410391
 30
0.0
 10
15.684695
 20
7.551524
 30
0.0
 10
15.765024
 20
7.685781
 30
0.0
 10
15.858549
 20
7.812115
 30
0.0
 10
15.964836
 20
7.929474
 30
0.0
 10
16.082196
 20
8.035761
 30
0.0
 10
16.208529
 20
8.129286
 30
0.0
 10
16.342787
 20
8.209615
 30
0.0
 10
16.483920
 20
8.276313
 30
0.0
 10
16.630879
 20
8.328945
 30
0.0
 10
16.782614
 20
8.367078
 30
0.0
 10
16.938078
 20
8.390275
 30
0.0
 10
17.096220
 20
8.398103
 30
0.0
 10
17.096220
 20
8.398103
 30
0.0
  0
LWPOLYLINE
  5
103
100
AcDbEntity
  8
Layer_1
 62
7
100
AcDbPolyline
 90
34
 70
0
 10
15.299313
 20
5.474071
 30
0.0
 10
15.400074
 20
5.463905
 30
0.0
 10
15.493922
 20
5.434764
 30
0.0
 10
15.578847
 20
5.388661
 30
0.0
 10
15.652838
 20
5.327605
 30
0.0
 10
15.713886
 20
5.253607
 30
0.0
 10
15.759980
 20
5.168677
 30
0.0
 10
15.789110
 20
5.074826
 30
0.0
 10
15.799265
 20
4.974064
 30
0.0
 10
15.789110
 20
4.873302
 30
0.0
 10
15.759980
 20
4.779451
 30
0.0
 10
15.713886
 20
4.694521
 30
0.0
 10
15.652838
 20
4.620523
 30
0.0
 10
15.578847
 20
4.559467
 30
0.0
 10
15.493922
 20
4.513364
 30
0.0
 10
15.400074
 20
4.484223
 30
0.0
 10
15.299313
 20
4.474057
 30
0.0
 10
15.201310
 20
4.483752
 30
0.0
 10
15.107967
 20
4.512116
 30
0.0
 10
15.021907
 20
4.558062
 30
0.0
 10
14.945752
 20
4.620503
 30
0.0
 10
14.883311
 20
4.696658
 30
0.0
 10
14.837365
 20
4.782718
 30
0.0
 10
14.809001
 20
4.876061
 30
0.0
 10
14.799306
 20
4.974064
 30
0.0
 10
14.809001
 20
5.072067
 30
0.0
 10
14.837365
 20
5.165410
 30
0.0
 10
14.883311
 20
5.251470
 30
0.0
 10
14.945752
 20
5.327625
 30
0.0
 10
15.021907
 20
5.390066
 30
0.0
 10
15.107967
 20
5.436012
 30
0.0
 10
15.201310
 20
5.464376
 30
0.0
 10
15.299313
 20
5.474071
 30
0.0
 10
15.299313
 20
5.474071
 30
0.0
  0
LWPOLYLINE
  5
104
100
AcDbEntity
  8
Layer_1
 62
7
100
AcDbPolyline
 90
18
 70
0
 10
16.999316
 20
5.054045
 30
0.0
 10
17.030446
 20
5.047755
 30
0.0
 10
17.055866
 20
5.030614
 30
0.0
 10
17.073008
 20
5.005193
 30
0.0
 10
17.079298
 20
4.974064
 30
0.0
 10
17.073007
 20
4.942935
 30
0.0
 10
17.055866
 20
4.917514
 30
0.0
 10
17.030445
 20
4.900373
 30
0.0
 10
16.999316
 20
4.894083
 30
0.0
 10
16.968695
 20
4.900160
 30
0.0
 10
16.942731
 20
4.917495
 30
0.0
 10
16.925378
 20
4.943447
 30
0.0
 10
16.919280
 20
4.974064
 30
0.0
 10
16.925378
 20
5.004681
 30
0.0
 10
16.942731
 20
5.030633
 30
0.0
 10
16.968695
 20
5.047968
 30
0.0
 10
16.999316
 20
5.054045
 30
0.0
 10
16.999316
 20
5.054045
 30
0.0
  0
LWPOLYLINE
  5
105
100
AcDbEntity
  8
Layer_1
 62
7
100
AcDbPolyline
 90
66
 70
0
 10
13.496232
 20
4.798116
 30
0.0
 10
13.659821
 20
4.789851
 30
0.0
 10
13.818683
 20
4.765602
 30
0.0
 10
13.972016
 20
4.726172
 30
0.0
 10
14.119014
 20
4.672367
 30
0.0
 10
14.258874
 20
4.604989
 30
0.0
 10
14.390791
 20
4.524844
 30
0.0
 10
14.513961
 20
4.432735
 30
0.0
 10
14.627580
 20
4.329467
 30
0.0
 10
14.730844
 20
4.215845
 30
0.0
 10
14.822949
 20
4.092671
 30
0.0
 10
14.903089
 20
3.960751
 30
0.0
 10
14.970462
 20
3.820889
 30
0.0
 10
15.024263
 20
3.673889
 30
0.0
 10
15.063687
 20
3.520555
 30
0.0
 10
15.087931
 20
3.361692
 30
0.0
 10
15.096190
 20
3.198103
 30
0.0
 10
15.087931
 20
3.034515
 30
0.0
 10
15.063687
 20
2.875651
 30
0.0
 10
15.024263
 20
2.722317
 30
0.0
 10
14.970462
 20
2.575317
 30
0.0
 10
14.903089
 20
2.435455
 30
0.0
 10
14.822949
 20
2.303535
 30
0.0
 10
14.730844
 20
2.180362
 30
0.0
 10
14.627580
 20
2.066739
 30
0.0
 10
14.513961
 20
1.963471
 30
0.0
 10
14.390791
 20
1.871363
 30
0.0
 10
14.258874
 20
1.791218
 30
0.0
 10
14.119014
 20
1.723840
 30
0.0
 10
13.972016
 20
1.670034
 30
0.0
 10
13.818683
 20
1.630605
 30
0.0
 10
13.659821
 20
1.606355
 30
0.0
 10
13.496232
 20
1.598091
 30
0.0
 10
13.338090
 20
1.605919
 30
0.0
 10
13.182627
 20
1.629116
 30
0.0
 10
13.030891
 20
1.667249
 30
0.0
 10
12.883932
 20
1.719881
 30
0.0
 10
12.742799
 20
1.786579
 30
0.0
 10
12.608542
 20
1.866908
 30
0.0
 10
12.482209
 20
1.960433
 30
0.0
 10
12.364849
 20
2.066720
 30
0.0
 10
12.258562
 20
2.184079
 30
0.0
 10
12.165037
 20
2.310413
 30
0.0
 10
12.084708
 20
2.444670
 30
0.0
 10
12.018010
 20
2.585803
 30
0.0
 10
11.965378
 20
2.732762
 30
0.0
 10
11.927246
 20
2.884498
 30
0.0
 10
11.904048
 20
3.039961
 30
0.0
 10
11.896220
 20
3.198103
 30
0.0
 10
11.904048
 20
3.356245
 30
0.0
 10
11.927246
 20
3.511709
 30
0.0
 10
11.965378
 20
3.663445
 30
0.0
 10
12.018010
 20
3.810404
 30
0.0
 10
12.084708
 20
3.951536
 30
0.0
 10
12.165037
 20
4.085794
 30
0.0
 10
12.258562
 20
4.212127
 30
0.0
 10
12.364849
 20
4.329487
 30
0.0
 10
12.482209
 20
4.435774
 30
0.0
 10
12.608542
 20
4.529299
 30
0.0
 10
12.742799
 20
4.609628
 30
0.0
 10
12.883932
 20
4.676326
 30
0.0
 10
13.030891
 20
4.728958
 30
0.0
 10
13.182627
 20
4.767090
 30
0.0
 10
13.338090
 20
4.790288
 30
0.0
 10
13.496232
 20
4.798116
 30
0.0
 10
13.496232
 20
4.798116
 30
0.0
  0
LWPOLYLINE
  5
106
100
AcDbEntity
  8
Layer_1
 62
7
100
AcDbPolyline
 90
66
 70
0
 10
17.096220
 20
4.798116
 30
0.0
 10
17.254362
 20
4.790288
 30
0.0
 10
17.409825
 20
4.767090
 30
0.0
 10
17.561561
 20
4.728958
 30
0.0
 10
17.708520
 20
4.676326
 30
0.0
 10
17.849653
 20
4.609628
 30
0.0
 10
17.983911
 20
4.529299
 30
0.0
 10
18.110244
 20
4.435774
 30
0.0
 10
18.227603
 20
4.329487
 30
0.0
 10
18.333890
 20
4.212127
 30
0.0
 10
18.427415
 20
4.085794
 30
0.0
 10
18.507744
 20
3.951536
 30
0.0
 10
18.574442
 20
3.810404
 30
0.0
 10
18.627074
 20
3.663445
 30
0.0
 10
18.665207
 20
3.511709
 30
0.0
 10
18.688404
 20
3.356245
 30
0.0
 10
18.696232
 20
3.198103
 30
0.0
 10
18.688404
 20
3.039961
 30
0.0
 10
18.665207
 20
2.884498
 30
0.0
 10
18.627074
 20
2.732762
 30
0.0
 10
18.574442
 20
2.585803
 30
0.0
 10
18.507744
 20
2.444670
 30
0.0
 10
18.427415
 20
2.310413
 30
0.0
 10
18.333890
 20
2.184079
 30
0.0
 10
18.227603
 20
2.066720
 30
0.0
 10
18.110244
 20
1.960433
 30
0.0
 10
17.983910
 20
1.866908
 30
0.0
 10
17.849653
 20
1.786579
 30
0.0
 10
17.708520
 20
1.719881
 30
0.0
 10
17.561561
 20
1.667249
 30
0.0
 10
17.409825
 20
1.629117
 30
0.0
 10
17.254362
 20
1.605919
 30
0.0
 10
17.096220
 20
1.598091
 30
0.0
 10
16.938078
 20
1.605919
 30
0.0
 10
16.782614
 20
1.629116
 30
0.0
 10
16.630879
 20
1.667249
 30
0.0
 10
16.483920
 20
1.719881
 30
0.0
 10
16.342787
 20
1.786579
 30
0.0
 10
16.208529
 20
1.866908
 30
0.0
 10
16.082196
 20
1.960433
 30
0.0
 10
15.964836
 20
2.066720
 30
0.0
 10
15.858549
 20
2.184079
 30
0.0
 10
15.765024
 20
2.310412
 30
0.0
 10
15.684695
 20
2.444670
 30
0.0
 10
15.617998
 20
2.585803
 30
0.0
 10
15.565365
 20
2.732762
 30
0.0
 10
15.527233
 20
2.884498
 30
0.0
 10
15.504035
 20
3.039961
 30
0.0
 10
15.496207
 20
3.198103
 30
0.0
 10
15.504035
 20
3.356245
 30
0.0
 10
15.527233
 20
3.511709
 30
0.0
 10
15.565365
 20
3.663445
 30
0.0
 10
15.617997
 20
3.810404
 30
0.0
 10
15.684695
 20
3.951537
 30
0.0
 10
15.765024
 20
4.085794
 30
0.0
 10
15.858549
 20
4.212127
 30
0.0
 10
15.964836
 20
4.329487
 30
0.0
 10
16.082196
 20
4.435774
 30
0.0
 10
16.208529
 20
4.529299
 30
0.0
 10
16.342787
 20
4.609628
 30
0.0
 10
16.483920
 20
4.676326
 30
0.0
 10
16.630879
 20
4.728958
 30
0.0
 10
16.782614
 20
4.767090
 30
0.0
 10
16.938078
 20
4.790288
 30
0.0
 10
17.096220
 20
4.798116
 30
0.0
 10
17.096220
 20
4.798116
 30
0.0
  0
LWPOLYLINE
  5
107
100
AcDbEntity
  8
Layer_1
 62
7
100
AcDbPolyline
 90
146
 70
0
 10
5.000018
 20
10.000037
 30
0.0
 10
4.770763
 20
9.994558
 30
0.0
 10
4.543900
 20
9.978829
 30
0.0
 10
4.319674
 20
9.953060
 30
0.0
 10
4.098333
 20
9.917461
 30
0.0
 10
3.880119
 20
9.872242
 30
0.0
 10
3.665280
 20
9.817613
 30
0.0
 10
3.454061
 20
9.753783
 30
0.0
 10
3.246706
 20
9.680963
 30
0.0
 10
3.043461
 20
9.599363
 30
0.0
 10
2.844572
 20
9.509191
 30
0.0
 10
2.650285
 20
9.410659
 30
0.0
 10
2.460843
 20
9.303976
 30
0.0
 10
2.276494
 20
9.189352
 30
0.0
 10
2.097481
 20
9.066996
 30
0.0
 10
1.924052
 20
8.937119
 30
0.0
 10
1.756450
 20
8.799931
 30
0.0
 10
1.594922
 20
8.655641
 30
0.0
 10
1.439713
 20
8.504459
 30
0.0
 10
1.291068
 20
8.346595
 30
0.0
 10
1.149233
 20
8.182259
 30
0.0
 10
1.014452
 20
8.011662
 30
0.0
 10
0.886973
 20
7.835012
 30
0.0
 10
0.767039
 20
7.652519
 30
0.0
 10
0.654896
 20
7.464394
 30
0.0
 10
0.550790
 20
7.270846
 30
0.0
 10
0.454966
 20
7.072086
 30
0.0
 10
0.367670
 20
6.868322
 30
0.0
 10
0.289146
 20
6.659766
 30
0.0
 10
0.219641
 20
6.446626
 30
0.0
 10
0.159399
 20
6.229113
 30
0.0
 10
0.108667
 20
6.007437
 30
0.0
 10
0.067688
 20
5.781807
 30
0.0
 10
0.561412
 20
5.703700
 30
0.0
 10
0.516881
 20
5.353067
 30
0.0
 10
0.500007
 20
5.000018
 30
0.0
 10
-0.000001
 20
5.000018
 30
0.0
 10
0.005479
 20
4.770773
 30
0.0
 10
0.021207
 20
4.543920
 30
0.0
 10
0.046974
 20
4.319704
 30
0.0
 10
0.082571
 20
4.098372
 30
0.0
 10
0.127786
 20
3.880167
 30
0.0
 10
0.182411
 20
3.665337
 30
0.0
 10
0.246236
 20
3.454125
 30
0.0
 10
0.319051
 20
3.246778
 30
0.0
 10
0.400645
 20
3.043540
 30
0.0
 10
0.490810
 20
2.844658
 30
0.0
 10
0.589335
 20
2.650376
 30
0.0
 10
0.696010
 20
2.460940
 30
0.0
 10
0.810626
 20
2.276596
 30
0.0
 10
0.932972
 20
2.097588
 30
0.0
 10
1.062840
 20
1.924162
 30
0.0
 10
1.200019
 20
1.756564
 30
0.0
 10
1.344298
 20
1.595038
 30
0.0
 10
1.495470
 20
1.439831
 30
0.0
 10
1.653323
 20
1.291187
 30
0.0
 10
1.817647
 20
1.149352
 30
0.0
 10
1.988233
 20
1.014571
 30
0.0
 10
2.164872
 20
0.887090
 30
0.0
 10
2.347352
 20
0.767154
 30
0.0
 10
2.535465
 20
0.655008
 30
0.0
 10
2.729001
 20
0.550899
 30
0.0
 10
2.927749
 20
0.455070
 30
0.0
 10
3.131500
 20
0.367768
 30
0.0
 10
3.340044
 20
0.289238
 30
0.0
 10
3.553171
 20
0.219725
 30
0.0
 10
3.770672
 20
0.159475
 30
0.0
 10
3.992336
 20
0.108733
 30
0.0
 10
4.217954
 20
0.067744
 30
0.0
 10
4.296336
 20
0.561413
 30
0.0
 10
4.646970
 20
0.516882
 30
0.0
 10
5.000018
 20
0.500007
 30
0.0
 10
5.000183
 20
-0.000000
 30
0.0
 10
5.229426
 20
0.005487
 30
0.0
 10
5.456276
 20
0.021224
 30
0.0
 10
5.680488
 20
0.046999
 30
0.0
 10
5.901817
 20
0.082602
 30
0.0
 10
6.120018
 20
0.127825
 30
0.0
 10
6.334845
 20
0.182457
 30
0.0
 10
6.546052
 20
0.246288
 30
0.0
 10
6.753395
 20
0.319109
 30
0.0
 10
6.956627
 20
0.400709
 30
0.0
 10
7.155505
 20
0.490879
 30
0.0
 10
7.349782
 20
0.589409
 30
0.0
 10
7.539212
 20
0.696090
 30
0.0
 10
7.723551
 20
0.810710
 30
0.0
 10
7.902554
 20
0.933061
 30
0.0
 10
8.075974
 20
1.062932
 30
0.0
 10
8.243567
 20
1.200115
 30
0.0
 10
8.405087
 20
1.344398
 30
0.0
 10
8.560288
 20
1.495572
 30
0.0
 10
8.708926
 20
1.653428
 30
0.0
 10
8.850755
 20
1.817754
 30
0.0
 10
8.985530
 20
1.988343
 30
0.0
 10
9.113005
 20
2.164983
 30
0.0
 10
9.232935
 20
2.347465
 30
0.0
 10
9.345074
 20
2.535579
 30
0.0
 10
9.449178
 20
2.729115
 30
0.0
 10
9.545001
 20
2.927864
 30
0.0
 10
9.632297
 20
3.131615
 30
0.0
 10
9.710821
 20
3.340159
 30
0.0
 10
9.780328
 20
3.553286
 30
0.0
 10
9.840573
 20
3.770785
 30
0.0
 10
9.891309
 20
3.992448
 30
0.0
 10
9.932292
 20
4.218064
 30
0.0
 10
9.438624
 20
4.296337
 30
0.0
 10
9.483155
 20
4.646972
 30
0.0
 10
9.500029
 20
5.000018
 30
0.0
 10
10.000036
 20
5.000018
 30
0.0
 10
9.994556
 20
5.229267
 30
0.0
 10
9.978827
 20
5.456123
 30
0.0
 10
9.953058
 20
5.680341
 30
0.0
 10
9.917460
 20
5.901677
 30
0.0
 10
9.872242
 20
6.119884
 30
0.0
 10
9.817615
 20
6.334717
 30
0.0
 10
9.753787
 20
6.545931
 30
0.0
 10
9.680970
 20
6.753281
 30
0.0
 10
9.599373
 20
6.956520
 30
0.0
 10
9.509205
 20
7.155404
 30
0.0
 10
9.410677
 20
7.349687
 30
0.0
 10
9.303999
 20
7.539125
 30
0.0
 10
9.189379
 20
7.723470
 30
0.0
 10
9.067029
 20
7.902479
 30
0.0
 10
8.937158
 20
8.075906
 30
0.0
 10
8.799975
 20
8.243504
 30
0.0
 10
8.655691
 20
8.405030
 30
0.0
 10
8.504516
 20
8.560238
 30
0.0
 10
8.346659
 20
8.708881
 30
0.0
 10
8.182330
 20
8.850716
 30
0.0
 10
8.011740
 20
8.985495
 30
0.0
 10
7.835097
 20
9.112975
 30
0.0
 10
7.652612
 20
9.232910
 30
0.0
 10
7.464495
 20
9.345054
 30
0.0
 10
7.270955
 20
9.449161
 30
0.0
 10
7.072202
 20
9.544988
 30
0.0
 10
6.868447
 20
9.632287
 30
0.0
 10
6.659898
 20
9.710814
 30
0.0
 10
6.446767
 20
9.780324
 30
0.0
 10
6.229262
 20
9.840570
 30
0.0
 10
6.007594
 20
9.891308
 30
0.0
 10
5.781972
 20
9.932293
 30
0.0
 10
5.703699
 20
9.438624
 30
0.0
 10
5.353065
 20
9.483155
 30
0.0
 10
5.000018
 20
9.500030
 30
0.0
 10
5.000018
 20
10.000037
 30
0.0
 10
5.000018
 20
10.000037
 30
0.0
  0
LWPOLYLINE
  5
108
100
AcDbEntity
  8
Layer_1
 62
7
100
AcDbPolyline
 90
66
 70
0
 10
3.199969
 20
8.398095
 30
0.0
 10
3.358111
 20
8.390267
 30
0.0
 10
3.513575
 20
8.367069
 30
0.0
 10
3.665311
 20
8.328937
 30
0.0
 10
3.812269
 20
8.276305
 30
0.0
 10
3.953402
 20
8.209607
 30
0.0
 10
4.087660
 20
8.129278
 30
0.0
 10
4.213993
 20
8.035753
 30
0.0
 10
4.331352
 20
7.929466
 30
0.0
 10
4.437639
 20
7.812106
 30
0.0
 10
4.531165
 20
7.685773
 30
0.0
 10
4.611493
 20
7.551516
 30
0.0
 10
4.678191
 20
7.410383
 30
0.0
 10
4.730824
 20
7.263424
 30
0.0
 10
4.768956
 20
7.111688
 30
0.0
 10
4.792153
 20
6.956225
 30
0.0
 10
4.799982
 20
6.798083
 30
0.0
 10
4.791717
 20
6.634494
 30
0.0
 10
4.767467
 20
6.475632
 30
0.0
 10
4.728038
 20
6.322299
 30
0.0
 10
4.674232
 20
6.175301
 30
0.0
 10
4.606854
 20
6.035441
 30
0.0
 10
4.526709
 20
5.903524
 30
0.0
 10
4.434601
 20
5.780354
 30
0.0
 10
4.331333
 20
5.666735
 30
0.0
 10
4.217710
 20
5.563471
 30
0.0
 10
4.094537
 20
5.471367
 30
0.0
 10
3.962617
 20
5.391226
 30
0.0
 10
3.822755
 20
5.323853
 30
0.0
 10
3.675755
 20
5.270053
 30
0.0
 10
3.522421
 20
5.230628
 30
0.0
 10
3.363558
 20
5.206384
 30
0.0
 10
3.199969
 20
5.198125
 30
0.0
 10
3.036385
 20
5.206390
 30
0.0
 10
2.877526
 20
5.230638
 30
0.0
 10
2.724197
 20
5.270066
 30
0.0
 10
2.577201
 20
5.323869
 30
0.0
 10
2.437344
 20
5.391244
 30
0.0
 10
2.305428
 20
5.471386
 30
0.0
 10
2.182260
 20
5.563491
 30
0.0
 10
2.068641
 20
5.666754
 30
0.0
 10
1.965377
 20
5.780373
 30
0.0
 10
1.873272
 20
5.903542
 30
0.0
 10
1.793131
 20
6.035457
 30
0.0
 10
1.725756
 20
6.175314
 30
0.0
 10
1.671952
 20
6.322310
 30
0.0
 10
1.632524
 20
6.475639
 30
0.0
 10
1.608276
 20
6.634498
 30
0.0
 10
1.600012
 20
6.798083
 30
0.0
 10
1.608271
 20
6.961671
 30
0.0
 10
1.632515
 20
7.120535
 30
0.0
 10
1.671939
 20
7.273868
 30
0.0
 10
1.725740
 20
7.420869
 30
0.0
 10
1.793113
 20
7.560731
 30
0.0
 10
1.873253
 20
7.692650
 30
0.0
 10
1.965358
 20
7.815824
 30
0.0
 10
2.068622
 20
7.929447
 30
0.0
 10
2.182241
 20
8.032714
 30
0.0
 10
2.305411
 20
8.124823
 30
0.0
 10
2.437328
 20
8.204968
 30
0.0
 10
2.577188
 20
8.272346
 30
0.0
 10
2.724186
 20
8.326151
 30
0.0
 10
2.877518
 20
8.365581
 30
0.0
 10
3.036381
 20
8.389830
 30
0.0
 10
3.199969
 20
8.398095
 30
0.0
 10
3.199969
 20
8.398095
 30
0.0
  0
LWPOLYLINE
  5
109
100
AcDbEntity
  8
Layer_1
 62
7
100
AcDbPolyline
 90
66
 70
0
 10
6.800011
 20
8.398095
 30
0.0
 10
6.963600
 20
8.389830
 30
0.0
 10
7.122462
 20
8.365581
 30
0.0
 10
7.275795
 20
8.326151
 30
0.0
 10
7.422793
 20
8.272346
 30
0.0
 10
7.562653
 20
8.204968
 30
0.0
 10
7.694570
 20
8.124823
 30
0.0
 10
7.817740
 20
8.032714
 30
0.0
 10
7.931359
 20
7.929446
 30
0.0
 10
8.034623
 20
7.815824
 30
0.0
 10
8.126727
 20
7.692650
 30
0.0
 10
8.206868
 20
7.560731
 30
0.0
 10
8.274241
 20
7.420868
 30
0.0
 10
8.328041
 20
7.273868
 30
0.0
 10
8.367466
 20
7.120535
 30
0.0
 10
8.391710
 20
6.961671
 30
0.0
 10
8.399969
 20
6.798083
 30
0.0
 10
8.391704
 20
6.634498
 30
0.0
 10
8.367456
 20
6.475639
 30
0.0
 10
8.328028
 20
6.322310
 30
0.0
 10
8.274225
 20
6.175314
 30
0.0
 10
8.206850
 20
6.035457
 30
0.0
 10
8.126708
 20
5.903542
 30
0.0
 10
8.034603
 20
5.780373
 30
0.0
 10
7.931339
 20
5.666754
 30
0.0
 10
7.817721
 20
5.563491
 30
0.0
 10
7.694552
 20
5.471386
 30
0.0
 10
7.562637
 20
5.391244
 30
0.0
 10
7.422779
 20
5.323869
 30
0.0
 10
7.275784
 20
5.270066
 30
0.0
 10
7.122455
 20
5.230638
 30
0.0
 10
6.963596
 20
5.206390
 30
0.0
 10
6.800011
 20
5.198125
 30
0.0
 10
6.636423
 20
5.206384
 30
0.0
 10
6.477559
 20
5.230628
 30
0.0
 10
6.324225
 20
5.270053
 30
0.0
 10
6.177225
 20
5.323853
 30
0.0
 10
6.037363
 20
5.391226
 30
0.0
 10
5.905444
 20
5.471367
 30
0.0
 10
5.782270
 20
5.563471
 30
0.0
 10
5.668648
 20
5.666735
 30
0.0
 10
5.565380
 20
5.780354
 30
0.0
 10
5.473271
 20
5.903524
 30
0.0
 10
5.393126
 20
6.035441
 30
0.0
 10
5.325748
 20
6.175301
 30
0.0
 10
5.271943
 20
6.322299
 30
0.0
 10
5.232513
 20
6.475632
 30
0.0
 10
5.208263
 20
6.634494
 30
0.0
 10
5.199999
 20
6.798083
 30
0.0
 10
5.207827
 20
6.956225
 30
0.0
 10
5.231024
 20
7.111688
 30
0.0
 10
5.269157
 20
7.263424
 30
0.0
 10
5.321789
 20
7.410383
 30
0.0
 10
5.388487
 20
7.551516
 30
0.0
 10
5.468816
 20
7.685773
 30
0.0
 10
5.562341
 20
7.812106
 30
0.0
 10
5.668628
 20
7.929466
 30
0.0
 10
5.785987
 20
8.035753
 30
0.0
 10
5.912321
 20
8.129278
 30
0.0
 10
6.046578
 20
8.209607
 30
0.0
 10
6.187711
 20
8.276305
 30
0.0
 10
6.334670
 20
8.328937
 30
0.0
 10
6.486406
 20
8.367069
 30
0.0
 10
6.641869
 20
8.390267
 30
0.0
 10
6.800011
 20
8.398095
 30
0.0
 10
6.800011
 20
8.398095
 30
0.0
  0
LWPOLYLINE
  5
10a
100
AcDbEntity
  8
Layer_1
 62
7
100
AcDbPolyline
 90
34
 70
0
 10
5.000018
 20
5.500026
 30
0.0
 10
5.100779
 20
5.489859
 30
0.0
 10
5.194627
 20
5.460719
 30
0.0
 10
5.279552
 20
5.414615
 30
0.0
 10
5.353543
 20
5.353560
 30
0.0
 10
5.414591
 20
5.279561
 30
0.0
 10
5.460685
 20
5.194632
 30
0.0
 10
5.489814
 20
5.100780
 30
0.0
 10
5.499970
 20
5.000018
 30
0.0
 10
5.489814
 20
4.899256
 30
0.0
 10
5.460685
 20
4.805405
 30
0.0
 10
5.414591
 20
4.720475
 30
0.0
 10
5.353543
 20
4.646477
 30
0.0
 10
5.279552
 20
4.585421
 30
0.0
 10
5.194627
 20
4.539318
 30
0.0
 10
5.100779
 20
4.510178
 30
0.0
 10
5.000018
 20
4.500011
 30
0.0
 10
4.902015
 20
4.509706
 30
0.0
 10
4.808672
 20
4.538070
 30
0.0
 10
4.722612
 20
4.584016
 30
0.0
 10
4.646457
 20
4.646458
 30
0.0
 10
4.584015
 20
4.722612
 30
0.0
 10
4.538069
 20
4.808673
 30
0.0
 10
4.509706
 20
4.902016
 30
0.0
 10
4.500010
 20
5.000018
 30
0.0
 10
4.509706
 20
5.098021
 30
0.0
 10
4.538069
 20
5.191364
 30
0.0
 10
4.584015
 20
5.277424
 30
0.0
 10
4.646457
 20
5.353579
 30
0.0
 10
4.722612
 20
5.416021
 30
0.0
 10
4.808672
 20
5.461967
 30
0.0
 10
4.902015
 20
5.490331
 30
0.0
 10
5.000018
 20
5.500026
 30
0.0
 10
5.000018
 20
5.500026
 30
0.0
  0
LWPOLYLINE
  5
10b
100
AcDbEntity
  8
Layer_1
 62
7
100
AcDbPolyline
 90
66
 70
0
 10
3.199969
 20
4.798108
 30
0.0
 10
3.358111
 20
4.790280
 30
0.0
 10
3.513575
 20
4.767082
 30
0.0
 10
3.665311
 20
4.728950
 30
0.0
 10
3.812269
 20
4.676318
 30
0.0
 10
3.953402
 20
4.609620
 30
0.0
 10
4.087660
 20
4.529291
 30
0.0
 10
4.213993
 20
4.435766
 30
0.0
 10
4.331352
 20
4.329479
 30
0.0
 10
4.437639
 20
4.212119
 30
0.0
 10
4.531165
 20
4.085786
 30
0.0
 10
4.611493
 20
3.951529
 30
0.0
 10
4.678191
 20
3.810396
 30
0.0
 10
4.730824
 20
3.663437
 30
0.0
 10
4.768956
 20
3.511701
 30
0.0
 10
4.792153
 20
3.356238
 30
0.0
 10
4.799982
 20
3.198096
 30
0.0
 10
4.792153
 20
3.039954
 30
0.0
 10
4.768956
 20
2.884490
 30
0.0
 10
4.730824
 20
2.732754
 30
0.0
 10
4.678191
 20
2.585795
 30
0.0
 10
4.611493
 20
2.444663
 30
0.0
 10
4.531165
 20
2.310405
 30
0.0
 10
4.437639
 20
2.184072
 30
0.0
 10
4.331352
 20
2.066712
 30
0.0
 10
4.213993
 20
1.960425
 30
0.0
 10
4.087660
 20
1.866900
 30
0.0
 10
3.953402
 20
1.786571
 30
0.0
 10
3.812269
 20
1.719874
 30
0.0
 10
3.665311
 20
1.667241
 30
0.0
 10
3.513575
 20
1.629109
 30
0.0
 10
3.358111
 20
1.605911
 30
0.0
 10
3.199969
 20
1.598083
 30
0.0
 10
3.036381
 20
1.606348
 30
0.0
 10
2.877518
 20
1.630597
 30
0.0
 10
2.724186
 20
1.670027
 30
0.0
 10
2.577188
 20
1.723833
 30
0.0
 10
2.437328
 20
1.791210
 30
0.0
 10
2.305411
 20
1.871355
 30
0.0
 10
2.182241
 20
1.963464
 30
0.0
 10
2.068622
 20
2.066732
 30
0.0
 10
1.965358
 20
2.180354
 30
0.0
 10
1.873253
 20
2.303528
 30
0.0
 10
1.793113
 20
2.435448
 30
0.0
 10
1.725740
 20
2.575310
 30
0.0
 10
1.671939
 20
2.722310
 30
0.0
 10
1.632515
 20
2.875644
 30
0.0
 10
1.608271
 20
3.034507
 30
0.0
 10
1.600012
 20
3.198096
 30
0.0
 10
1.608271
 20
3.361684
 30
0.0
 10
1.632515
 20
3.520548
 30
0.0
 10
1.671939
 20
3.673882
 30
0.0
 10
1.725740
 20
3.820882
 30
0.0
 10
1.793113
 20
3.960744
 30
0.0
 10
1.873253
 20
4.092664
 30
0.0
 10
1.965358
 20
4.215837
 30
0.0
 10
2.068622
 20
4.329460
 30
0.0
 10
2.182241
 20
4.432727
 30
0.0
 10
2.305411
 20
4.524836
 30
0.0
 10
2.437328
 20
4.604981
 30
0.0
 10
2.577188
 20
4.672359
 30
0.0
 10
2.724186
 20
4.726165
 30
0.0
 10
2.877518
 20
4.765594
 30
0.0
 10
3.036381
 20
4.789843
 30
0.0
 10
3.199969
 20
4.798108
 30
0.0
 10
3.199969
 20
4.798108
 30
0.0
  0
LWPOLYLINE
  5
10c
100
AcDbEntity
  8
Layer_1
 62
7
100
AcDbPolyline
 90
66
 70
0
 10
6.800011
 20
4.798108
 30
0.0
 10
6.963600
 20
4.789843
 30
0.0
 10
7.122462
 20
4.765594
 30
0.0
 10
7.275795
 20
4.726164
 30
0.0
 10
7.422793
 20
4.672359
 30
0.0
 10
7.562652
 20
4.604981
 30
0.0
 10
7.694570
 20
4.524836
 30
0.0
 10
7.817740
 20
4.432727
 30
0.0
 10
7.931359
 20
4.329460
 30
0.0
 10
8.034623
 20
4.215837
 30
0.0
 10
8.126727
 20
4.092663
 30
0.0
 10
8.206868
 20
3.960744
 30
0.0
 10
8.274241
 20
3.820882
 30
0.0
 10
8.328041
 20
3.673882
 30
0.0
 10
8.367466
 20
3.520548
 30
0.0
 10
8.391710
 20
3.361684
 30
0.0
 10
8.399969
 20
3.198096
 30
0.0
 10
8.391710
 20
3.034507
 30
0.0
 10
8.367466
 20
2.875644
 30
0.0
 10
8.328041
 20
2.722310
 30
0.0
 10
8.274241
 20
2.575310
 30
0.0
 10
8.206868
 20
2.435448
 30
0.0
 10
8.126727
 20
2.303528
 30
0.0
 10
8.034623
 20
2.180354
 30
0.0
 10
7.931359
 20
2.066732
 30
0.0
 10
7.817740
 20
1.963464
 30
0.0
 10
7.694570
 20
1.871355
 30
0.0
 10
7.562652
 20
1.791210
 30
0.0
 10
7.422793
 20
1.723833
 30
0.0
 10
7.275795
 20
1.670027
 30
0.0
 10
7.122462
 20
1.630597
 30
0.0
 10
6.963600
 20
1.606348
 30
0.0
 10
6.800011
 20
1.598083
 30
0.0
 10
6.641869
 20
1.605911
 30
0.0
 10
6.486406
 20
1.629109
 30
0.0
 10
6.334670
 20
1.667241
 30
0.0
 10
6.187711
 20
1.719873
 30
0.0
 10
6.046578
 20
1.786571
 30
0.0
 10
5.912321
 20
1.866900
 30
0.0
 10
5.785988
 20
1.960425
 30
0.0
 10
5.668628
 20
2.066712
 30
0.0
 10
5.562341
 20
2.184072
 30
0.0
 10
5.468816
 20
2.310405
 30
0.0
 10
5.388487
 20
2.444663
 30
0.0
 10
5.321789
 20
2.585795
 30
0.0
 10
5.269157
 20
2.732754
 30
0.0
 10
5.231025
 20
2.884490
 30
0.0
 10
5.207827
 20
3.039954
 30
0.0
 10
5.199999
 20
3.198096
 30
0.0
 10
5.207827
 20
3.356238
 30
0.0
 10
5.231025
 20
3.511701
 30
0.0
 10
5.269157
 20
3.663437
 30
0.0
 10
5.321789
 20
3.810396
 30
0.0
 10
5.388487
 20
3.951529
 30
0.0
 10
5.468816
 20
4.085786
 30
0.0
 10
5.562341
 20
4.212119
 30
0.0
 10
5.668628
 20
4.329479
 30
0.0
 10
5.785988
 20
4.435766
 30
0.0
 10
5.912321
 20
4.529291
 30
0.0
 10
6.046578
 20
4.609620
 30
0.0
 10
6.187711
 20
4.676318
 30
0.0
 10
6.334670
 20
4.728950
 30
0.0
 10
6.486406
 20
4.767082
 30
0.0
 10
6.641869
 20
4.790280
 30
0.0
 10
6.800011
 20
4.798108
 30
0.0
 10
6.800011
 20
4.798108
 30
0.0
  0
ENDSEC
  0
SECTION
  2
OBJECTS
  0
DICTIONARY
  5
C
330
0
100
AcDbDictionary
  3
ACAD_GROUP
350
D
  3
ACAD_MLINESTYLE
350
17
  0
DICTIONARY
  5
D
330
C
100
AcDbDictionary
  0
DICTIONARY
  5
1A
330
C
100
AcDbDictionary
  0
DICTIONARY
  5
17
330
C
100
AcDbDictionary
  3
STANDARD
350
18
  0
DICTIONARY
  5
19
330
C
100
AcDbDictionary
  0
ENDSEC
  0
EOF
