  0
SECTION
  2
HEADER
  9
$ACADVER
  1
AC1014
  9
$HANDSEED
  5
FFFF
  9
$MEASUREMENT
 70
     1
  0
ENDSEC
  0
SECTION
  2
TABLES
  0
TABLE
  2
VPORT
  5
8
330
0
100
AcDbSymbolTable
 70
     4
  0
VPORT
  5
2E
330
8
100
AcDbSymbolTableRecord
100
AcDbViewportTableRecord
  2
*ACTIVE
 70
     0
 10
0.0
 20
0.0
 11
1.0
 21
1.0
 12
210.0
 22
148.5
 13
0.0
 23
0.0
 14
10.0
 24
10.0
 15
10.0
 25
10.0
 16
0.0
 26
0.0
 36
1.0
 17
0.0
 27
0.0
 37
0.0
 40
341.0
 41
1.24
 42
50.0
 43
0.0
 44
0.0
 50
0.0
 51
0.0
 71
     0
 72
   100
 73
     1
 74
     3
 75
     0
 76
     0
 77
     0
 78
     0
  0
ENDTAB
  0
TABLE
  2
LTYPE
  5
5
330
0
100
AcDbSymbolTable
 70
     1
  0
LTYPE
  5
14
330
5
100
AcDbSymbolTableRecord
100
AcDbLinetypeTableRecord
  2
BYBLOCK
 70
     0
  3

 72
    65
 73
     0
 40
0.0
  0
LTYPE
  5
15
330
5
100
AcDbSymbolTableRecord
100
AcDbLinetypeTableRecord
  2
BYLAYER
 70
     0
  3

 72
    65
 73
     0
 40
0.0
  0
LTYPE
  5
16
330
5
100
AcDbSymbolTableRecord
100
AcDbLinetypeTableRecord
  2
CONTINUOUS
 70
     0
  3
Solid line
 72
    65
 73
     0
 40
0.0
  0
ENDTAB
  0
TABLE
  2
LAYER
  5
2
100
AcDbSymbolTable
 70
2
  0
LAYER
  5
50
100
AcDbSymbolTableRecord
100
AcDbLayerTableRecord
  2
0
 70
0
  6
CONTINUOUS
  0
LAYER
  5
51
100
AcDbSymbolTableRecord
100
AcDbLayerTableRecord
  2
Layer_1
 70
0
  6
CONTINUOUS
  0
ENDTAB
  0
TABLE
  2
STYLE
  5
3
330
0
100
AcDbSymbolTable
 70
     1
  0
STYLE
  5
11
330
3
100
AcDbSymbolTableRecord
100
AcDbTextStyleTableRecord
  2
STANDARD
 70
     0
 40
0.0
 41
1.0
 50
0.0
 71
     0
 42
2.5
  3
txt
  4

  0
ENDTAB
  0
TABLE
  2
VIEW
  5
6
330
0
100
AcDbSymbolTable
 70
     0
  0
ENDTAB
  0
TABLE
  2
UCS
  5
7
330
0
100
AcDbSymbolTable
 70
     0
  0
ENDTAB
  0
TABLE
  2
APPID
  5
9
330
0
100
AcDbSymbolTable
 70
     2
  0
APPID
  5
12
330
9
100
AcDbSymbolTableRecord
100
AcDbRegAppTableRecord
  2
ACAD
 70
     0
  0
ENDTAB
  0
TABLE
  2
DIMSTYLE
  5
A
330
0
100
AcDbSymbolTable
 70
     1
  0
DIMSTYLE
105
27
330
A
100
AcDbSymbolTableRecord
100
AcDbDimStyleTableRecord
  2
ISO-25
 70
     0
  3

  4

  5

  6

  7

 40
1.0
 41
2.5
 42
0.625
 43
3.75
 44
1.25
 45
0.0
 46
0.0
 47
0.0
 48
0.0
140
2.5
141
2.5
142
0.0
143
0.03937007874016
144
1.0
145
0.0
146
1.0
147
0.625
 71
     0
 72
     0
 73
     0
 74
     0
 75
     0
 76
     0
 77
     1
 78
     8
170
     0
171
     3
172
     1
173
     0
174
     0
175
     0
176
     0
177
     0
178
     0
270
     2
271
     2
272
     2
273
     2
274
     3
340
11
275
     0
280
     0
281
     0
282
     0
283
     0
284
     8
285
     0
286
     0
287
     3
288
     0
  0
ENDTAB
  0
TABLE
  2
BLOCK_RECORD
  5
1
330
0
100
AcDbSymbolTable
 70
     1
  0
BLOCK_RECORD
  5
1F
330
1
100
AcDbSymbolTableRecord
100
AcDbBlockTableRecord
  2
*MODEL_SPACE
  0
BLOCK_RECORD
  5
1B
330
1
100
AcDbSymbolTableRecord
100
AcDbBlockTableRecord
  2
*PAPER_SPACE
  0
ENDTAB
  0
ENDSEC
  0
SECTION
  2
BLOCKS
  0
BLOCK
  5
20
330
1F
100
AcDbEntity
  8
0
100
AcDbBlockBegin
  2
*MODEL_SPACE
 70
     0
 10
0.0
 20
0.0
 30
0.0
  3
*MODEL_SPACE
  1

  0
ENDBLK
  5
21
330
1F
100
AcDbEntity
  8
0
100
AcDbBlockEnd
  0
BLOCK
  5
1C
330
1B
100
AcDbEntity
 67
     1
  8
0
100
AcDbBlockBegin
  2
*PAPER_SPACE
  1

  0
ENDBLK
  5
1D
330
1B
100
AcDbEntity
 67
     1
  8
0
100
AcDbBlockEnd
  0
ENDSEC
  0
SECTION
  2
ENTITIES
  0
LWPOLYLINE
  5
100
100
AcDbEntity
  8
Layer_1
 62
7
100
AcDbPolyline
 90
118
 70
0
 10
2.976177
 20
5.952185
 30
0.0
 10
2.979870
 20
5.629614
 30
0.0
 10
3.297921
 20
5.934270
 30
0.0
 10
3.266722
 20
5.613242
 30
0.0
 10
3.615862
 20
5.881683
 30
0.0
 10
3.550157
 20
5.565893
 30
0.0
 10
3.926251
 20
5.795032
 30
0.0
 10
3.826757
 20
5.488172
 30
0.0
 10
4.225396
 20
5.675365
 30
0.0
 10
4.093380
 20
5.381069
 30
0.0
 10
4.509933
 20
5.524000
 30
0.0
 10
4.346829
 20
5.245693
 30
0.0
 10
4.776391
 20
5.342760
 30
0.0
 10
4.584127
 20
5.083745
 30
0.0
 10
5.021682
 20
5.133794
 30
0.0
 10
4.802573
 20
4.897103
 30
0.0
 10
5.242939
 20
4.899530
 30
0.0
 10
4.999523
 20
4.687920
 30
0.0
 10
5.437629
 20
4.642719
 30
0.0
 10
5.172715
 20
4.458668
 30
0.0
 10
5.603379
 20
4.366395
 30
0.0
 10
5.320109
 20
4.212000
 30
0.0
 10
5.738261
 20
4.073756
 30
0.0
 10
5.439999
 20
3.950891
 30
0.0
 10
5.840732
 20
3.768217
 30
0.0
 10
5.530894
 20
3.678312
 30
0.0
 10
5.909524
 20
3.453418
 30
0.0
 10
5.591859
 20
3.397524
 30
0.0
 10
5.943920
 20
3.132997
 30
0.0
 10
5.622065
 20
3.111830
 30
0.0
 10
5.943479
 20
2.810755
 30
0.0
 10
5.621183
 20
2.824480
 30
0.0
 10
5.908201
 20
2.490444
 30
0.0
 10
5.589268
 20
2.538953
 30
0.0
 10
5.838472
 20
2.175812
 30
0.0
 10
5.526650
 20
2.258548
 30
0.0
 10
5.735119
 20
1.870603
 30
0.0
 10
5.434101
 20
1.986523
 30
0.0
 10
5.599410
 20
1.578294
 30
0.0
 10
5.312723
 20
1.726130
 30
0.0
 10
5.432888
 20
1.302410
 30
0.0
 10
5.163840
 20
1.480343
 30
0.0
 10
5.237482
 20
1.046150
 30
0.0
 10
4.989270
 20
1.252141
 30
0.0
 10
5.015563
 20
0.812546
 30
0.0
 10
4.791053
 20
1.044166
 30
0.0
 10
4.769666
 20
0.604297
 30
0.0
 10
4.571504
 20
0.858794
 30
0.0
 10
4.502712
 20
0.423827
 30
0.0
 10
4.333213
 20
0.698280
 30
0.0
 10
4.217789
 20
0.273293
 30
0.0
 10
4.078938
 20
0.564444
 30
0.0
 10
3.918259
 20
0.154395
 30
0.0
 10
3.811709
 20
0.458885
 30
0.0
 10
3.607594
 20
0.068625
 30
0.0
 10
3.534668
 20
0.382874
 30
0.0
 10
3.289543
 20
0.016976
 30
0.0
 10
3.250958
 20
0.337233
 30
0.0
 10
2.967743
 20
-0.000000
 30
0.0
 10
2.964050
 20
0.322515
 30
0.0
 10
2.645999
 20
0.017859
 30
0.0
 10
2.677198
 20
0.338940
 30
0.0
 10
2.328058
 20
0.070445
 30
0.0
 10
2.393763
 20
0.386235
 30
0.0
 10
2.017669
 20
0.157096
 30
0.0
 10
2.117163
 20
0.463956
 30
0.0
 10
1.718524
 20
0.276820
 30
0.0
 10
1.850540
 20
0.571113
 30
0.0
 10
1.433987
 20
0.428128
 30
0.0
 10
1.597091
 20
0.706436
 30
0.0
 10
1.167529
 20
0.609368
 30
0.0
 10
1.359793
 20
0.868384
 30
0.0
 10
0.922238
 20
0.818334
 30
0.0
 10
1.141346
 20
1.055079
 30
0.0
 10
0.700980
 20
1.052596
 30
0.0
 10
0.944397
 20
1.264262
 30
0.0
 10
0.506291
 20
1.309409
 30
0.0
 10
0.771205
 20
1.493514
 30
0.0
 10
0.340541
 20
1.585787
 30
0.0
 10
0.623810
 20
1.740128
 30
0.0
 10
0.205658
 20
1.878429
 30
0.0
 10
0.503921
 20
2.001238
 30
0.0
 10
0.103188
 20
2.183965
 30
0.0
 10
0.413026
 20
2.273814
 30
0.0
 10
0.034396
 20
2.498764
 30
0.0
 10
0.352061
 20
2.554602
 30
0.0
 10
0.000000
 20
2.819132
 30
0.0
 10
0.321855
 20
2.840352
 30
0.0
 10
0.000441
 20
3.141427
 30
0.0
 10
0.322737
 20
3.127646
 30
0.0
 10
0.035719
 20
3.461738
 30
0.0
 10
0.354652
 20
3.413176
 30
0.0
 10
0.105448
 20
3.776317
 30
0.0
 10
0.417270
 20
3.693634
 30
0.0
 10
0.208800
 20
4.081580
 30
0.0
 10
0.509819
 20
3.965603
 30
0.0
 10
0.344510
 20
4.373835
 30
0.0
 10
0.631252
 20
4.226055
 30
0.0
 10
0.511032
 20
4.649718
 30
0.0
 10
0.780080
 20
4.471786
 30
0.0
 10
0.706438
 20
4.905976
 30
0.0
 10
0.954650
 20
4.699988
 30
0.0
 10
0.928357
 20
5.139583
 30
0.0
 10
1.152867
 20
4.908016
 30
0.0
 10
1.174254
 20
5.347888
 30
0.0
 10
1.372416
 20
5.093335
 30
0.0
 10
1.441208
 20
5.528355
 30
0.0
 10
1.610706
 20
5.253905
 30
0.0
 10
1.726131
 20
5.678892
 30
0.0
 10
1.864982
 20
5.387684
 30
0.0
 10
2.025661
 20
5.797733
 30
0.0
 10
2.132211
 20
5.493241
 30
0.0
 10
2.336326
 20
5.883503
 30
0.0
 10
2.409252
 20
5.569311
 30
0.0
 10
2.654377
 20
5.935207
 30
0.0
 10
2.692962
 20
5.614949
 30
0.0
 10
2.976177
 20
5.952185
 30
0.0
 10
2.976177
 20
5.952185
 30
0.0
  0
LWPOLYLINE
  5
101
100
AcDbEntity
  8
Layer_1
 62
7
100
AcDbPolyline
 90
66
 70
0
 10
2.971987
 20
5.226067
 30
0.0
 10
2.749602
 20
5.215057
 30
0.0
 10
2.530983
 20
5.182435
 30
0.0
 10
2.317606
 20
5.128811
 30
0.0
 10
2.110947
 20
5.054797
 30
0.0
 10
1.912480
 20
4.961003
 30
0.0
 10
1.723682
 20
4.848041
 30
0.0
 10
1.546027
 20
4.716522
 30
0.0
 10
1.380992
 20
4.567057
 30
0.0
 10
1.231527
 20
4.402022
 30
0.0
 10
1.100008
 20
4.224367
 30
0.0
 10
0.987046
 20
4.035569
 30
0.0
 10
0.893252
 20
3.837102
 30
0.0
 10
0.819237
 20
3.630443
 30
0.0
 10
0.765614
 20
3.417066
 30
0.0
 10
0.732991
 20
3.198447
 30
0.0
 10
0.721982
 20
2.976061
 30
0.0
 10
0.732991
 20
2.753676
 30
0.0
 10
0.765614
 20
2.535057
 30
0.0
 10
0.819237
 20
2.321680
 30
0.0
 10
0.893252
 20
2.115021
 30
0.0
 10
0.987046
 20
1.916554
 30
0.0
 10
1.100008
 20
1.727756
 30
0.0
 10
1.231527
 20
1.550101
 30
0.0
 10
1.380992
 20
1.385066
 30
0.0
 10
1.546027
 20
1.235601
 30
0.0
 10
1.723682
 20
1.104082
 30
0.0
 10
1.912480
 20
0.991120
 30
0.0
 10
2.110947
 20
0.897326
 30
0.0
 10
2.317606
 20
0.823312
 30
0.0
 10
2.530983
 20
0.769688
 30
0.0
 10
2.749602
 20
0.737066
 30
0.0
 10
2.971987
 20
0.726056
 30
0.0
 10
3.202033
 20
0.737677
 30
0.0
 10
3.425434
 20
0.771777
 30
0.0
 10
3.641058
 20
0.827224
 30
0.0
 10
3.847774
 20
0.902887
 30
0.0
 10
4.044453
 20
0.997636
 30
0.0
 10
4.229961
 20
1.110339
 30
0.0
 10
4.403170
 20
1.239866
 30
0.0
 10
4.562948
 20
1.385085
 30
0.0
 10
4.708163
 20
1.544866
 30
0.0
 10
4.837686
 20
1.718078
 30
0.0
 10
4.950384
 20
1.903590
 30
0.0
 10
5.045128
 20
2.100270
 30
0.0
 10
5.120787
 20
2.306989
 30
0.0
 10
5.176228
 20
2.522614
 30
0.0
 10
5.210322
 20
2.746015
 30
0.0
 10
5.221938
 20
2.976061
 30
0.0
 10
5.210322
 20
3.206108
 30
0.0
 10
5.176228
 20
3.429509
 30
0.0
 10
5.120787
 20
3.645134
 30
0.0
 10
5.045128
 20
3.851853
 30
0.0
 10
4.950384
 20
4.048533
 30
0.0
 10
4.837686
 20
4.234045
 30
0.0
 10
4.708163
 20
4.407257
 30
0.0
 10
4.562948
 20
4.567038
 30
0.0
 10
4.403170
 20
4.712257
 30
0.0
 10
4.229961
 20
4.841784
 30
0.0
 10
4.044453
 20
4.954487
 30
0.0
 10
3.847774
 20
5.049236
 30
0.0
 10
3.641058
 20
5.124899
 30
0.0
 10
3.425434
 20
5.180346
 30
0.0
 10
3.202033
 20
5.214446
 30
0.0
 10
2.971987
 20
5.226067
 30
0.0
 10
2.971987
 20
5.226067
 30
0.0
  0
ENDSEC
  0
SECTION
  2
OBJECTS
  0
DICTIONARY
  5
C
330
0
100
AcDbDictionary
  3
ACAD_GROUP
350
D
  3
ACAD_MLINESTYLE
350
17
  0
DICTIONARY
  5
D
330
C
100
AcDbDictionary
  0
DICTIONARY
  5
1A
330
C
100
AcDbDictionary
  0
DICTIONARY
  5
17
330
C
100
AcDbDictionary
  3
STANDARD
350
18
  0
DICTIONARY
  5
19
330
C
100
AcDbDictionary
  0
ENDSEC
  0
EOF
