  0
SECTION
  2
HEADER
  9
$ACADVER
  1
AC1014
  9
$HANDSEED
  5
FFFF
  9
$MEASUREMENT
 70
     1
  0
ENDSEC
  0
SECTION
  2
TABLES
  0
TABLE
  2
VPORT
  5
8
330
0
100
AcDbSymbolTable
 70
     4
  0
VPORT
  5
2E
330
8
100
AcDbSymbolTableRecord
100
AcDbViewportTableRecord
  2
*ACTIVE
 70
     0
 10
0.0
 20
0.0
 11
1.0
 21
1.0
 12
210.0
 22
148.5
 13
0.0
 23
0.0
 14
10.0
 24
10.0
 15
10.0
 25
10.0
 16
0.0
 26
0.0
 36
1.0
 17
0.0
 27
0.0
 37
0.0
 40
341.0
 41
1.24
 42
50.0
 43
0.0
 44
0.0
 50
0.0
 51
0.0
 71
     0
 72
   100
 73
     1
 74
     3
 75
     0
 76
     0
 77
     0
 78
     0
  0
ENDTAB
  0
TABLE
  2
LTYPE
  5
5
330
0
100
AcDbSymbolTable
 70
     1
  0
LTYPE
  5
14
330
5
100
AcDbSymbolTableRecord
100
AcDbLinetypeTableRecord
  2
BYBLOCK
 70
     0
  3

 72
    65
 73
     0
 40
0.0
  0
LTYPE
  5
15
330
5
100
AcDbSymbolTableRecord
100
AcDbLinetypeTableRecord
  2
BYLAYER
 70
     0
  3

 72
    65
 73
     0
 40
0.0
  0
LTYPE
  5
16
330
5
100
AcDbSymbolTableRecord
100
AcDbLinetypeTableRecord
  2
CONTINUOUS
 70
     0
  3
Solid line
 72
    65
 73
     0
 40
0.0
  0
ENDTAB
  0
TABLE
  2
LAYER
  5
2
100
AcDbSymbolTable
 70
2
  0
LAYER
  5
50
100
AcDbSymbolTableRecord
100
AcDbLayerTableRecord
  2
0
 70
0
  6
CONTINUOUS
  0
LAYER
  5
51
100
AcDbSymbolTableRecord
100
AcDbLayerTableRecord
  2
Layer_1
 70
0
  6
CONTINUOUS
  0
ENDTAB
  0
TABLE
  2
STYLE
  5
3
330
0
100
AcDbSymbolTable
 70
     1
  0
STYLE
  5
11
330
3
100
AcDbSymbolTableRecord
100
AcDbTextStyleTableRecord
  2
STANDARD
 70
     0
 40
0.0
 41
1.0
 50
0.0
 71
     0
 42
2.5
  3
txt
  4

  0
ENDTAB
  0
TABLE
  2
VIEW
  5
6
330
0
100
AcDbSymbolTable
 70
     0
  0
ENDTAB
  0
TABLE
  2
UCS
  5
7
330
0
100
AcDbSymbolTable
 70
     0
  0
ENDTAB
  0
TABLE
  2
APPID
  5
9
330
0
100
AcDbSymbolTable
 70
     2
  0
APPID
  5
12
330
9
100
AcDbSymbolTableRecord
100
AcDbRegAppTableRecord
  2
ACAD
 70
     0
  0
ENDTAB
  0
TABLE
  2
DIMSTYLE
  5
A
330
0
100
AcDbSymbolTable
 70
     1
  0
DIMSTYLE
105
27
330
A
100
AcDbSymbolTableRecord
100
AcDbDimStyleTableRecord
  2
ISO-25
 70
     0
  3

  4

  5

  6

  7

 40
1.0
 41
2.5
 42
0.625
 43
3.75
 44
1.25
 45
0.0
 46
0.0
 47
0.0
 48
0.0
140
2.5
141
2.5
142
0.0
143
0.03937007874016
144
1.0
145
0.0
146
1.0
147
0.625
 71
     0
 72
     0
 73
     0
 74
     0
 75
     0
 76
     0
 77
     1
 78
     8
170
     0
171
     3
172
     1
173
     0
174
     0
175
     0
176
     0
177
     0
178
     0
270
     2
271
     2
272
     2
273
     2
274
     3
340
11
275
     0
280
     0
281
     0
282
     0
283
     0
284
     8
285
     0
286
     0
287
     3
288
     0
  0
ENDTAB
  0
TABLE
  2
BLOCK_RECORD
  5
1
330
0
100
AcDbSymbolTable
 70
     1
  0
BLOCK_RECORD
  5
1F
330
1
100
AcDbSymbolTableRecord
100
AcDbBlockTableRecord
  2
*MODEL_SPACE
  0
BLOCK_RECORD
  5
1B
330
1
100
AcDbSymbolTableRecord
100
AcDbBlockTableRecord
  2
*PAPER_SPACE
  0
ENDTAB
  0
ENDSEC
  0
SECTION
  2
BLOCKS
  0
BLOCK
  5
20
330
1F
100
AcDbEntity
  8
0
100
AcDbBlockBegin
  2
*MODEL_SPACE
 70
     0
 10
0.0
 20
0.0
 30
0.0
  3
*MODEL_SPACE
  1

  0
ENDBLK
  5
21
330
1F
100
AcDbEntity
  8
0
100
AcDbBlockEnd
  0
BLOCK
  5
1C
330
1B
100
AcDbEntity
 67
     1
  8
0
100
AcDbBlockBegin
  2
*PAPER_SPACE
  1

  0
ENDBLK
  5
1D
330
1B
100
AcDbEntity
 67
     1
  8
0
100
AcDbBlockEnd
  0
ENDSEC
  0
SECTION
  2
ENTITIES
  0
LWPOLYLINE
  5
100
100
AcDbEntity
  8
Layer_1
 62
7
100
AcDbPolyline
 90
7
 70
0
 10
10.600137
 20
10.800300
 30
0.0
 10
1.099996
 20
10.799962
 30
0.0
 10
1.099996
 20
0.000000
 30
0.0
 10
11.900013
 20
0.000000
 30
0.0
 10
11.900013
 20
10.799962
 30
0.0
 10
10.600137
 20
10.800300
 30
0.0
 10
10.600137
 20
10.800300
 30
0.0
  0
LWPOLYLINE
  5
101
100
AcDbEntity
  8
Layer_1
 62
7
100
AcDbPolyline
 90
66
 70
0
 10
6.499977
 20
10.182553
 30
0.0
 10
6.598817
 20
10.177661
 30
0.0
 10
6.695983
 20
10.163163
 30
0.0
 10
6.790819
 20
10.139331
 30
0.0
 10
6.882669
 20
10.106436
 30
0.0
 10
6.970878
 20
10.064750
 30
0.0
 10
7.054790
 20
10.014544
 30
0.0
 10
7.133749
 20
9.956090
 30
0.0
 10
7.207099
 20
9.889660
 30
0.0
 10
7.273529
 20
9.816310
 30
0.0
 10
7.331983
 20
9.737351
 30
0.0
 10
7.382189
 20
9.653439
 30
0.0
 10
7.423875
 20
9.565230
 30
0.0
 10
7.456770
 20
9.473379
 30
0.0
 10
7.480602
 20
9.378543
 30
0.0
 10
7.495100
 20
9.281378
 30
0.0
 10
7.499992
 20
9.182538
 30
0.0
 10
7.495100
 20
9.083698
 30
0.0
 10
7.480602
 20
8.986532
 30
0.0
 10
7.456770
 20
8.891696
 30
0.0
 10
7.423875
 20
8.799846
 30
0.0
 10
7.382189
 20
8.711637
 30
0.0
 10
7.331983
 20
8.627725
 30
0.0
 10
7.273529
 20
8.548766
 30
0.0
 10
7.207099
 20
8.475415
 30
0.0
 10
7.133749
 20
8.408985
 30
0.0
 10
7.054790
 20
8.350532
 30
0.0
 10
6.970878
 20
8.300326
 30
0.0
 10
6.882669
 20
8.258640
 30
0.0
 10
6.790819
 20
8.225745
 30
0.0
 10
6.695983
 20
8.201913
 30
0.0
 10
6.598817
 20
8.187415
 30
0.0
 10
6.499977
 20
8.182523
 30
0.0
 10
6.397735
 20
8.187689
 30
0.0
 10
6.298446
 20
8.202846
 30
0.0
 10
6.202614
 20
8.227491
 30
0.0
 10
6.110741
 20
8.261120
 30
0.0
 10
6.023329
 20
8.303232
 30
0.0
 10
5.940882
 20
8.353323
 30
0.0
 10
5.863901
 20
8.410892
 30
0.0
 10
5.792890
 20
8.475435
 30
0.0
 10
5.728351
 20
8.546449
 30
0.0
 10
5.670787
 20
8.623433
 30
0.0
 10
5.620700
 20
8.705883
 30
0.0
 10
5.578593
 20
8.793297
 30
0.0
 10
5.544969
 20
8.885172
 30
0.0
 10
5.520330
 20
8.981006
 30
0.0
 10
5.505178
 20
9.080295
 30
0.0
 10
5.500018
 20
9.182538
 30
0.0
 10
5.505178
 20
9.284780
 30
0.0
 10
5.520330
 20
9.384070
 30
0.0
 10
5.544969
 20
9.479903
 30
0.0
 10
5.578593
 20
9.571778
 30
0.0
 10
5.620700
 20
9.659192
 30
0.0
 10
5.670787
 20
9.741642
 30
0.0
 10
5.728351
 20
9.818626
 30
0.0
 10
5.792890
 20
9.889641
 30
0.0
 10
5.863901
 20
9.954184
 30
0.0
 10
5.940882
 20
10.011752
 30
0.0
 10
6.023329
 20
10.061844
 30
0.0
 10
6.110741
 20
10.103955
 30
0.0
 10
6.202614
 20
10.137585
 30
0.0
 10
6.298446
 20
10.162229
 30
0.0
 10
6.397735
 20
10.177386
 30
0.0
 10
6.499977
 20
10.182553
 30
0.0
 10
6.499977
 20
10.182553
 30
0.0
  0
LWPOLYLINE
  5
102
100
AcDbEntity
  8
Layer_1
 62
7
100
AcDbPolyline
 90
18
 70
0
 10
1.900141
 20
10.099983
 30
0.0
 10
1.939059
 20
10.092122
 30
0.0
 10
1.970841
 20
10.070692
 30
0.0
 10
1.992271
 20
10.038910
 30
0.0
 10
2.000131
 20
9.999992
 30
0.0
 10
1.992271
 20
9.961073
 30
0.0
 10
1.970841
 20
9.929291
 30
0.0
 10
1.939059
 20
9.907861
 30
0.0
 10
1.900141
 20
9.900000
 30
0.0
 10
1.861203
 20
9.907844
 30
0.0
 10
1.829403
 20
9.929270
 30
0.0
 10
1.807961
 20
9.961058
 30
0.0
 10
1.800095
 20
9.999992
 30
0.0
 10
1.807961
 20
10.038925
 30
0.0
 10
1.829403
 20
10.070714
 30
0.0
 10
1.861203
 20
10.092139
 30
0.0
 10
1.900141
 20
10.099983
 30
0.0
 10
1.900141
 20
10.099983
 30
0.0
  0
LWPOLYLINE
  5
103
100
AcDbEntity
  8
Layer_1
 62
7
100
AcDbPolyline
 90
18
 70
0
 10
11.100144
 20
10.099983
 30
0.0
 10
11.139063
 20
10.092123
 30
0.0
 10
11.170845
 20
10.070694
 30
0.0
 10
11.192274
 20
10.038911
 30
0.0
 10
11.200135
 20
9.999992
 30
0.0
 10
11.192274
 20
9.961072
 30
0.0
 10
11.170845
 20
9.929290
 30
0.0
 10
11.139063
 20
9.907861
 30
0.0
 10
11.100144
 20
9.900000
 30
0.0
 10
11.061207
 20
9.907845
 30
0.0
 10
11.029407
 20
9.929271
 30
0.0
 10
11.007964
 20
9.961059
 30
0.0
 10
11.000099
 20
9.999992
 30
0.0
 10
11.007964
 20
10.038924
 30
0.0
 10
11.029407
 20
10.070713
 30
0.0
 10
11.061207
 20
10.092138
 30
0.0
 10
11.100144
 20
10.099983
 30
0.0
 10
11.100144
 20
10.099983
 30
0.0
  0
LWPOLYLINE
  5
104
100
AcDbEntity
  8
Layer_1
 62
7
100
AcDbPolyline
 90
66
 70
0
 10
3.499988
 20
9.900330
 30
0.0
 10
3.648247
 20
9.892992
 30
0.0
 10
3.793996
 20
9.871245
 30
0.0
 10
3.936250
 20
9.835497
 30
0.0
 10
4.074025
 20
9.786154
 30
0.0
 10
4.206338
 20
9.723624
 30
0.0
 10
4.332206
 20
9.648316
 30
0.0
 10
4.450645
 20
9.560635
 30
0.0
 10
4.560670
 20
9.460990
 30
0.0
 10
4.660315
 20
9.350965
 30
0.0
 10
4.747996
 20
9.232526
 30
0.0
 10
4.823304
 20
9.106659
 30
0.0
 10
4.885834
 20
8.974345
 30
0.0
 10
4.935176
 20
8.836570
 30
0.0
 10
4.970925
 20
8.694316
 30
0.0
 10
4.992672
 20
8.548568
 30
0.0
 10
5.000010
 20
8.400308
 30
0.0
 10
4.992262
 20
8.246943
 30
0.0
 10
4.969529
 20
8.098008
 30
0.0
 10
4.932563
 20
7.954258
 30
0.0
 10
4.882120
 20
7.816446
 30
0.0
 10
4.818954
 20
7.685327
 30
0.0
 10
4.743817
 20
7.561653
 30
0.0
 10
4.657465
 20
7.446181
 30
0.0
 10
4.560650
 20
7.339662
 30
0.0
 10
4.454128
 20
7.242852
 30
0.0
 10
4.338652
 20
7.156504
 30
0.0
 10
4.214976
 20
7.081372
 30
0.0
 10
4.083854
 20
7.018210
 30
0.0
 10
3.946041
 20
6.967772
 30
0.0
 10
3.802289
 20
6.930812
 30
0.0
 10
3.653353
 20
6.908084
 30
0.0
 10
3.499988
 20
6.900342
 30
0.0
 10
3.346627
 20
6.908089
 30
0.0
 10
3.197695
 20
6.930822
 30
0.0
 10
3.053948
 20
6.967785
 30
0.0
 10
2.916139
 20
7.018226
 30
0.0
 10
2.785022
 20
7.081390
 30
0.0
 10
2.661351
 20
7.156523
 30
0.0
 10
2.545879
 20
7.242871
 30
0.0
 10
2.439361
 20
7.339682
 30
0.0
 10
2.342551
 20
7.446199
 30
0.0
 10
2.256202
 20
7.561671
 30
0.0
 10
2.181069
 20
7.685342
 30
0.0
 10
2.117905
 20
7.816459
 30
0.0
 10
2.067464
 20
7.954268
 30
0.0
 10
2.030501
 20
8.098015
 30
0.0
 10
2.007768
 20
8.246947
 30
0.0
 10
2.000021
 20
8.400308
 30
0.0
 10
2.007763
 20
8.553674
 30
0.0
 10
2.030491
 20
8.702609
 30
0.0
 10
2.067451
 20
8.846361
 30
0.0
 10
2.117889
 20
8.984175
 30
0.0
 10
2.181051
 20
9.115297
 30
0.0
 10
2.256183
 20
9.238973
 30
0.0
 10
2.342531
 20
9.354449
 30
0.0
 10
2.439341
 20
9.460971
 30
0.0
 10
2.545860
 20
9.557785
 30
0.0
 10
2.661333
 20
9.644138
 30
0.0
 10
2.785006
 20
9.719274
 30
0.0
 10
2.916125
 20
9.782441
 30
0.0
 10
3.053937
 20
9.832884
 30
0.0
 10
3.197688
 20
9.869849
 30
0.0
 10
3.346623
 20
9.892583
 30
0.0
 10
3.499988
 20
9.900330
 30
0.0
 10
3.499988
 20
9.900330
 30
0.0
  0
LWPOLYLINE
  5
105
100
AcDbEntity
  8
Layer_1
 62
7
100
AcDbPolyline
 90
66
 70
0
 10
9.500021
 20
9.900330
 30
0.0
 10
9.653387
 20
9.892583
 30
0.0
 10
9.802322
 20
9.869849
 30
0.0
 10
9.946072
 20
9.832884
 30
0.0
 10
10.083884
 20
9.782441
 30
0.0
 10
10.215003
 20
9.719274
 30
0.0
 10
10.338676
 20
9.644138
 30
0.0
 10
10.454149
 20
9.557785
 30
0.0
 10
10.560668
 20
9.460971
 30
0.0
 10
10.657478
 20
9.354449
 30
0.0
 10
10.743826
 20
9.238973
 30
0.0
 10
10.818958
 20
9.115297
 30
0.0
 10
10.882120
 20
8.984175
 30
0.0
 10
10.932558
 20
8.846361
 30
0.0
 10
10.969518
 20
8.702609
 30
0.0
 10
10.992246
 20
8.553674
 30
0.0
 10
10.999988
 20
8.400308
 30
0.0
 10
10.992241
 20
8.246947
 30
0.0
 10
10.969508
 20
8.098016
 30
0.0
 10
10.932545
 20
7.954268
 30
0.0
 10
10.882104
 20
7.816459
 30
0.0
 10
10.818940
 20
7.685342
 30
0.0
 10
10.743807
 20
7.561671
 30
0.0
 10
10.657458
 20
7.446200
 30
0.0
 10
10.560648
 20
7.339682
 30
0.0
 10
10.454130
 20
7.242872
 30
0.0
 10
10.338659
 20
7.156523
 30
0.0
 10
10.214987
 20
7.081390
 30
0.0
 10
10.083870
 20
7.018226
 30
0.0
 10
9.946061
 20
6.967785
 30
0.0
 10
9.802314
 20
6.930822
 30
0.0
 10
9.653383
 20
6.908089
 30
0.0
 10
9.500021
 20
6.900342
 30
0.0
 10
9.346656
 20
6.908084
 30
0.0
 10
9.197720
 20
6.930812
 30
0.0
 10
9.053969
 20
6.967772
 30
0.0
 10
8.916155
 20
7.018210
 30
0.0
 10
8.785033
 20
7.081372
 30
0.0
 10
8.661357
 20
7.156504
 30
0.0
 10
8.545881
 20
7.242852
 30
0.0
 10
8.439359
 20
7.339662
 30
0.0
 10
8.342545
 20
7.446181
 30
0.0
 10
8.256192
 20
7.561653
 30
0.0
 10
8.181056
 20
7.685327
 30
0.0
 10
8.117889
 20
7.816446
 30
0.0
 10
8.067446
 20
7.954258
 30
0.0
 10
8.030481
 20
8.098008
 30
0.0
 10
8.007747
 20
8.246943
 30
0.0
 10
7.999999
 20
8.400308
 30
0.0
 10
8.007337
 20
8.548568
 30
0.0
 10
8.029084
 20
8.694316
 30
0.0
 10
8.064833
 20
8.836570
 30
0.0
 10
8.114176
 20
8.974345
 30
0.0
 10
8.176705
 20
9.106659
 30
0.0
 10
8.252014
 20
9.232526
 30
0.0
 10
8.339694
 20
9.350965
 30
0.0
 10
8.439339
 20
9.460990
 30
0.0
 10
8.549365
 20
9.560635
 30
0.0
 10
8.667803
 20
9.648316
 30
0.0
 10
8.793671
 20
9.723624
 30
0.0
 10
8.925984
 20
9.786154
 30
0.0
 10
9.063760
 20
9.835497
 30
0.0
 10
9.206013
 20
9.871245
 30
0.0
 10
9.351762
 20
9.892992
 30
0.0
 10
9.500021
 20
9.900330
 30
0.0
 10
9.500021
 20
9.900330
 30
0.0
  0
LWPOLYLINE
  5
106
100
AcDbEntity
  8
Layer_1
 62
7
100
AcDbPolyline
 90
18
 70
0
 10
1.678828
 20
7.556455
 30
0.0
 10
1.736253
 20
7.545045
 30
0.0
 10
1.784936
 20
7.512520
 30
0.0
 10
1.817459
 20
7.463837
 30
0.0
 10
1.828869
 20
7.406412
 30
0.0
 10
1.817442
 20
7.349005
 30
0.0
 10
1.784915
 20
7.300341
 30
0.0
 10
1.736239
 20
7.267832
 30
0.0
 10
1.678828
 20
7.256428
 30
0.0
 10
1.620449
 20
7.268218
 30
0.0
 10
1.572777
 20
7.300361
 30
0.0
 10
1.540633
 20
7.348034
 30
0.0
 10
1.528842
 20
7.406412
 30
0.0
 10
1.540246
 20
7.463824
 30
0.0
 10
1.572756
 20
7.512501
 30
0.0
 10
1.621420
 20
7.545029
 30
0.0
 10
1.678828
 20
7.556455
 30
0.0
 10
1.678828
 20
7.556455
 30
0.0
  0
LWPOLYLINE
  5
107
100
AcDbEntity
  8
Layer_1
 62
7
100
AcDbPolyline
 90
82
 70
0
 10
6.499977
 20
7.500174
 30
0.0
 10
6.709604
 20
7.489701
 30
0.0
 10
6.709661
 20
7.489701
 30
0.0
 10
6.865739
 20
7.468099
 30
0.0
 10
7.019545
 20
7.434909
 30
0.0
 10
7.170433
 20
7.390296
 30
0.0
 10
7.317761
 20
7.334425
 30
0.0
 10
7.317818
 20
7.334425
 30
0.0
 10
7.506816
 20
7.243116
 30
0.0
 10
7.685754
 20
7.133396
 30
0.0
 10
7.852860
 20
7.006372
 30
0.0
 10
8.006451
 20
6.863300
 30
0.0
 10
8.145154
 20
6.705392
 30
0.0
 10
8.267095
 20
6.534849
 30
0.0
 10
8.371424
 20
6.352998
 30
0.0
 10
8.457290
 20
6.161163
 30
0.0
 10
8.508842
 20
6.012261
 30
0.0
 10
8.549035
 20
5.860128
 30
0.0
 10
8.577724
 20
5.705412
 30
0.0
 10
8.594763
 20
5.548763
 30
0.0
 10
8.600000
 20
5.400156
 30
0.0
 10
8.589527
 20
5.190527
 30
0.0
 10
8.558163
 20
4.982941
 30
0.0
 10
8.506238
 20
4.779597
 30
0.0
 10
8.434249
 20
4.582372
 30
0.0
 10
8.360673
 20
4.429161
 30
0.0
 10
8.274948
 20
4.282401
 30
0.0
 10
8.233221
 20
4.214436
 30
0.0
 10
8.178375
 20
4.142283
 30
0.0
 10
8.032138
 20
3.967825
 30
0.0
 10
7.963126
 20
3.893795
 30
0.0
 10
7.805423
 20
3.755218
 30
0.0
 10
7.634675
 20
3.633116
 30
0.0
 10
7.452590
 20
3.528670
 30
0.0
 10
7.227019
 20
3.430093
 30
0.0
 10
6.992276
 20
3.358788
 30
0.0
 10
6.750819
 20
3.315345
 30
0.0
 10
6.505106
 20
3.300358
 30
0.0
 10
6.500035
 20
3.300076
 30
0.0
 10
6.499979
 20
3.300076
 30
0.0
 10
6.290351
 20
3.310585
 30
0.0
 10
6.082819
 20
3.341969
 30
0.0
 10
6.082762
 20
3.341969
 30
0.0
 10
5.879419
 20
3.393892
 30
0.0
 10
5.879363
 20
3.393892
 30
0.0
 10
5.682248
 20
3.465881
 30
0.0
 10
5.682192
 20
3.465881
 30
0.0
 10
5.493235
 20
3.557163
 30
0.0
 10
5.493179
 20
3.557163
 30
0.0
 10
5.425214
 20
3.598890
 30
0.0
 10
5.282220
 20
3.690767
 30
0.0
 10
5.147126
 20
3.793908
 30
0.0
 10
4.993557
 20
3.937006
 30
0.0
 10
4.883598
 20
4.061481
 30
0.0
 10
4.783820
 20
4.194257
 30
0.0
 10
4.732887
 20
4.265473
 30
0.0
 10
4.652791
 20
4.401153
 30
0.0
 10
4.583183
 20
4.542254
 30
0.0
 10
4.524335
 20
4.688171
 30
0.0
 10
4.476517
 20
4.838297
 30
0.0
 10
4.430546
 20
5.043072
 30
0.0
 10
4.407653
 20
5.220875
 30
0.0
 10
4.400008
 20
5.399984
 30
0.0
 10
4.410482
 20
5.609610
 30
0.0
 10
4.441846
 20
5.817145
 30
0.0
 10
4.493780
 20
6.020529
 30
0.0
 10
4.565759
 20
6.217711
 30
0.0
 10
4.657065
 20
6.406738
 30
0.0
 10
4.766787
 20
6.585704
 30
0.0
 10
4.893838
 20
6.752812
 30
0.0
 10
5.036938
 20
6.906401
 30
0.0
 10
5.194625
 20
7.044924
 30
0.0
 10
5.365352
 20
7.167014
 30
0.0
 10
5.494794
 20
7.243727
 30
0.0
 10
5.628874
 20
7.310735
 30
0.0
 10
5.767040
 20
7.367876
 30
0.0
 10
5.908745
 20
7.414990
 30
0.0
 10
6.053440
 20
7.451915
 30
0.0
 10
6.200576
 20
7.478490
 30
0.0
 10
6.349603
 20
7.494555
 30
0.0
 10
6.499973
 20
7.499949
 30
0.0
 10
6.499977
 20
7.500174
 30
0.0
  0
LWPOLYLINE
  5
108
100
AcDbEntity
  8
Layer_1
 62
7
100
AcDbPolyline
 90
66
 70
0
 10
2.717758
 20
6.400335
 30
0.0
 10
2.816598
 20
6.395443
 30
0.0
 10
2.913764
 20
6.380945
 30
0.0
 10
3.008600
 20
6.357113
 30
0.0
 10
3.100450
 20
6.324218
 30
0.0
 10
3.188659
 20
6.282531
 30
0.0
 10
3.272571
 20
6.232326
 30
0.0
 10
3.351530
 20
6.173872
 30
0.0
 10
3.424881
 20
6.107442
 30
0.0
 10
3.491310
 20
6.034092
 30
0.0
 10
3.549764
 20
5.955133
 30
0.0
 10
3.599970
 20
5.871221
 30
0.0
 10
3.641656
 20
5.783012
 30
0.0
 10
3.674551
 20
5.691161
 30
0.0
 10
3.698383
 20
5.596325
 30
0.0
 10
3.712881
 20
5.499159
 30
0.0
 10
3.717773
 20
5.400320
 30
0.0
 10
3.712881
 20
5.301480
 30
0.0
 10
3.698383
 20
5.204314
 30
0.0
 10
3.674551
 20
5.109478
 30
0.0
 10
3.641656
 20
5.017628
 30
0.0
 10
3.599970
 20
4.929419
 30
0.0
 10
3.549764
 20
4.845507
 30
0.0
 10
3.491310
 20
4.766548
 30
0.0
 10
3.424881
 20
4.693197
 30
0.0
 10
3.351530
 20
4.626767
 30
0.0
 10
3.272571
 20
4.568314
 30
0.0
 10
3.188659
 20
4.518108
 30
0.0
 10
3.100450
 20
4.476422
 30
0.0
 10
3.008600
 20
4.443527
 30
0.0
 10
2.913764
 20
4.419694
 30
0.0
 10
2.816598
 20
4.405197
 30
0.0
 10
2.717758
 20
4.400305
 30
0.0
 10
2.615516
 20
4.405471
 30
0.0
 10
2.516227
 20
4.420628
 30
0.0
 10
2.420395
 20
4.445273
 30
0.0
 10
2.328522
 20
4.478902
 30
0.0
 10
2.241110
 20
4.521014
 30
0.0
 10
2.158663
 20
4.571105
 30
0.0
 10
2.081683
 20
4.628674
 30
0.0
 10
2.010671
 20
4.693217
 30
0.0
 10
1.946133
 20
4.764231
 30
0.0
 10
1.888568
 20
4.841215
 30
0.0
 10
1.838481
 20
4.923665
 30
0.0
 10
1.796374
 20
5.011079
 30
0.0
 10
1.762750
 20
5.102954
 30
0.0
 10
1.738111
 20
5.198788
 30
0.0
 10
1.722960
 20
5.298077
 30
0.0
 10
1.717799
 20
5.400320
 30
0.0
 10
1.722960
 20
5.502562
 30
0.0
 10
1.738111
 20
5.601852
 30
0.0
 10
1.762750
 20
5.697685
 30
0.0
 10
1.796374
 20
5.789560
 30
0.0
 10
1.838481
 20
5.876974
 30
0.0
 10
1.888568
 20
5.959424
 30
0.0
 10
1.946133
 20
6.036408
 30
0.0
 10
2.010671
 20
6.107423
 30
0.0
 10
2.081683
 20
6.171966
 30
0.0
 10
2.158663
 20
6.229534
 30
0.0
 10
2.241110
 20
6.279625
 30
0.0
 10
2.328522
 20
6.321737
 30
0.0
 10
2.420395
 20
6.355367
 30
0.0
 10
2.516227
 20
6.380011
 30
0.0
 10
2.615516
 20
6.395168
 30
0.0
 10
2.717758
 20
6.400335
 30
0.0
 10
2.717758
 20
6.400335
 30
0.0
  0
LWPOLYLINE
  5
109
100
AcDbEntity
  8
Layer_1
 62
7
100
AcDbPolyline
 90
66
 70
0
 10
10.282196
 20
6.400335
 30
0.0
 10
10.381035
 20
6.395443
 30
0.0
 10
10.478201
 20
6.380945
 30
0.0
 10
10.573037
 20
6.357113
 30
0.0
 10
10.664888
 20
6.324218
 30
0.0
 10
10.753097
 20
6.282531
 30
0.0
 10
10.837009
 20
6.232326
 30
0.0
 10
10.915968
 20
6.173872
 30
0.0
 10
10.989318
 20
6.107442
 30
0.0
 10
11.055748
 20
6.034092
 30
0.0
 10
11.114202
 20
5.955133
 30
0.0
 10
11.164407
 20
5.871221
 30
0.0
 10
11.206094
 20
5.783012
 30
0.0
 10
11.238989
 20
5.691161
 30
0.0
 10
11.262821
 20
5.596325
 30
0.0
 10
11.277319
 20
5.499159
 30
0.0
 10
11.282210
 20
5.400320
 30
0.0
 10
11.277319
 20
5.301480
 30
0.0
 10
11.262821
 20
5.204314
 30
0.0
 10
11.238989
 20
5.109478
 30
0.0
 10
11.206094
 20
5.017628
 30
0.0
 10
11.164407
 20
4.929419
 30
0.0
 10
11.114202
 20
4.845507
 30
0.0
 10
11.055748
 20
4.766548
 30
0.0
 10
10.989318
 20
4.693197
 30
0.0
 10
10.915968
 20
4.626767
 30
0.0
 10
10.837009
 20
4.568314
 30
0.0
 10
10.753097
 20
4.518108
 30
0.0
 10
10.664888
 20
4.476422
 30
0.0
 10
10.573037
 20
4.443527
 30
0.0
 10
10.478201
 20
4.419694
 30
0.0
 10
10.381035
 20
4.405197
 30
0.0
 10
10.282196
 20
4.400305
 30
0.0
 10
10.179953
 20
4.405471
 30
0.0
 10
10.080665
 20
4.420628
 30
0.0
 10
9.984833
 20
4.445273
 30
0.0
 10
9.892959
 20
4.478902
 30
0.0
 10
9.805548
 20
4.521014
 30
0.0
 10
9.723101
 20
4.571105
 30
0.0
 10
9.646120
 20
4.628674
 30
0.0
 10
9.575109
 20
4.693217
 30
0.0
 10
9.510570
 20
4.764231
 30
0.0
 10
9.453006
 20
4.841215
 30
0.0
 10
9.402919
 20
4.923665
 30
0.0
 10
9.360812
 20
5.011079
 30
0.0
 10
9.327188
 20
5.102954
 30
0.0
 10
9.302548
 20
5.198788
 30
0.0
 10
9.287397
 20
5.298077
 30
0.0
 10
9.282236
 20
5.400320
 30
0.0
 10
9.287397
 20
5.502562
 30
0.0
 10
9.302548
 20
5.601852
 30
0.0
 10
9.327188
 20
5.697685
 30
0.0
 10
9.360812
 20
5.789560
 30
0.0
 10
9.402919
 20
5.876974
 30
0.0
 10
9.453006
 20
5.959424
 30
0.0
 10
9.510570
 20
6.036408
 30
0.0
 10
9.575109
 20
6.107423
 30
0.0
 10
9.646120
 20
6.171966
 30
0.0
 10
9.723101
 20
6.229534
 30
0.0
 10
9.805548
 20
6.279625
 30
0.0
 10
9.892959
 20
6.321737
 30
0.0
 10
9.984833
 20
6.355367
 30
0.0
 10
10.080665
 20
6.380011
 30
0.0
 10
10.179953
 20
6.395168
 30
0.0
 10
10.282196
 20
6.400335
 30
0.0
 10
10.282196
 20
6.400335
 30
0.0
  0
LWPOLYLINE
  5
10a
100
AcDbEntity
  8
Layer_1
 62
7
100
AcDbPolyline
 90
66
 70
0
 10
3.499988
 20
3.900297
 30
0.0
 10
3.653353
 20
3.892555
 30
0.0
 10
3.802289
 20
3.869827
 30
0.0
 10
3.946041
 20
3.832867
 30
0.0
 10
4.083854
 20
3.782430
 30
0.0
 10
4.214976
 20
3.719268
 30
0.0
 10
4.338652
 20
3.644136
 30
0.0
 10
4.454128
 20
3.557788
 30
0.0
 10
4.560650
 20
3.460977
 30
0.0
 10
4.657465
 20
3.354459
 30
0.0
 10
4.743817
 20
3.238986
 30
0.0
 10
4.818954
 20
3.115313
 30
0.0
 10
4.882120
 20
2.984193
 30
0.0
 10
4.932563
 20
2.846382
 30
0.0
 10
4.969529
 20
2.702631
 30
0.0
 10
4.992262
 20
2.553697
 30
0.0
 10
5.000010
 20
2.400331
 30
0.0
 10
4.992672
 20
2.252072
 30
0.0
 10
4.970925
 20
2.106323
 30
0.0
 10
4.935176
 20
1.964070
 30
0.0
 10
4.885834
 20
1.826294
 30
0.0
 10
4.823304
 20
1.693981
 30
0.0
 10
4.747996
 20
1.568113
 30
0.0
 10
4.660315
 20
1.449675
 30
0.0
 10
4.560670
 20
1.339649
 30
0.0
 10
4.450645
 20
1.240004
 30
0.0
 10
4.332206
 20
1.152324
 30
0.0
 10
4.206338
 20
1.077015
 30
0.0
 10
4.074025
 20
1.014486
 30
0.0
 10
3.936250
 20
0.965143
 30
0.0
 10
3.793996
 20
0.929394
 30
0.0
 10
3.648247
 20
0.907647
 30
0.0
 10
3.499988
 20
0.900309
 30
0.0
 10
3.346623
 20
0.908057
 30
0.0
 10
3.197688
 20
0.930790
 30
0.0
 10
3.053937
 20
0.967755
 30
0.0
 10
2.916125
 20
1.018198
 30
0.0
 10
2.785006
 20
1.081365
 30
0.0
 10
2.661333
 20
1.156502
 30
0.0
 10
2.545860
 20
1.242854
 30
0.0
 10
2.439341
 20
1.339668
 30
0.0
 10
2.342531
 20
1.446191
 30
0.0
 10
2.256183
 20
1.561667
 30
0.0
 10
2.181051
 20
1.685343
 30
0.0
 10
2.117889
 20
1.816465
 30
0.0
 10
2.067451
 20
1.954278
 30
0.0
 10
2.030491
 20
2.098030
 30
0.0
 10
2.007763
 20
2.246966
 30
0.0
 10
2.000021
 20
2.400331
 30
0.0
 10
2.007768
 20
2.553693
 30
0.0
 10
2.030501
 20
2.702624
 30
0.0
 10
2.067464
 20
2.846371
 30
0.0
 10
2.117905
 20
2.984180
 30
0.0
 10
2.181069
 20
3.115297
 30
0.0
 10
2.256202
 20
3.238968
 30
0.0
 10
2.342551
 20
3.354440
 30
0.0
 10
2.439361
 20
3.460958
 30
0.0
 10
2.545879
 20
3.557768
 30
0.0
 10
2.661351
 20
3.644117
 30
0.0
 10
2.785022
 20
3.719250
 30
0.0
 10
2.916139
 20
3.782414
 30
0.0
 10
3.053948
 20
3.832854
 30
0.0
 10
3.197695
 20
3.869818
 30
0.0
 10
3.346627
 20
3.892550
 30
0.0
 10
3.499988
 20
3.900297
 30
0.0
 10
3.499988
 20
3.900297
 30
0.0
  0
LWPOLYLINE
  5
10b
100
AcDbEntity
  8
Layer_1
 62
7
100
AcDbPolyline
 90
66
 70
0
 10
9.500021
 20
3.900297
 30
0.0
 10
9.653383
 20
3.892550
 30
0.0
 10
9.802314
 20
3.869818
 30
0.0
 10
9.946061
 20
3.832854
 30
0.0
 10
10.083870
 20
3.782414
 30
0.0
 10
10.214987
 20
3.719250
 30
0.0
 10
10.338659
 20
3.644117
 30
0.0
 10
10.454130
 20
3.557768
 30
0.0
 10
10.560648
 20
3.460958
 30
0.0
 10
10.657458
 20
3.354440
 30
0.0
 10
10.743807
 20
3.238968
 30
0.0
 10
10.818940
 20
3.115297
 30
0.0
 10
10.882104
 20
2.984180
 30
0.0
 10
10.932545
 20
2.846371
 30
0.0
 10
10.969508
 20
2.702624
 30
0.0
 10
10.992241
 20
2.553693
 30
0.0
 10
10.999988
 20
2.400331
 30
0.0
 10
10.992246
 20
2.246966
 30
0.0
 10
10.969518
 20
2.098030
 30
0.0
 10
10.932558
 20
1.954278
 30
0.0
 10
10.882120
 20
1.816465
 30
0.0
 10
10.818958
 20
1.685343
 30
0.0
 10
10.743826
 20
1.561667
 30
0.0
 10
10.657478
 20
1.446191
 30
0.0
 10
10.560668
 20
1.339669
 30
0.0
 10
10.454149
 20
1.242854
 30
0.0
 10
10.338676
 20
1.156502
 30
0.0
 10
10.215003
 20
1.081365
 30
0.0
 10
10.083884
 20
1.018198
 30
0.0
 10
9.946072
 20
0.967755
 30
0.0
 10
9.802322
 20
0.930790
 30
0.0
 10
9.653387
 20
0.908057
 30
0.0
 10
9.500021
 20
0.900309
 30
0.0
 10
9.351762
 20
0.907647
 30
0.0
 10
9.206013
 20
0.929394
 30
0.0
 10
9.063760
 20
0.965143
 30
0.0
 10
8.925984
 20
1.014486
 30
0.0
 10
8.793671
 20
1.077015
 30
0.0
 10
8.667803
 20
1.152324
 30
0.0
 10
8.549365
 20
1.240004
 30
0.0
 10
8.439339
 20
1.339649
 30
0.0
 10
8.339694
 20
1.449675
 30
0.0
 10
8.252014
 20
1.568113
 30
0.0
 10
8.176705
 20
1.693981
 30
0.0
 10
8.114176
 20
1.826294
 30
0.0
 10
8.064833
 20
1.964070
 30
0.0
 10
8.029084
 20
2.106323
 30
0.0
 10
8.007337
 20
2.252072
 30
0.0
 10
7.999999
 20
2.400331
 30
0.0
 10
8.007747
 20
2.553697
 30
0.0
 10
8.030481
 20
2.702631
 30
0.0
 10
8.067446
 20
2.846382
 30
0.0
 10
8.117889
 20
2.984193
 30
0.0
 10
8.181056
 20
3.115313
 30
0.0
 10
8.256192
 20
3.238986
 30
0.0
 10
8.342545
 20
3.354459
 30
0.0
 10
8.439359
 20
3.460977
 30
0.0
 10
8.545881
 20
3.557788
 30
0.0
 10
8.661357
 20
3.644136
 30
0.0
 10
8.785033
 20
3.719268
 30
0.0
 10
8.916155
 20
3.782430
 30
0.0
 10
9.053969
 20
3.832867
 30
0.0
 10
9.197720
 20
3.869827
 30
0.0
 10
9.346656
 20
3.892555
 30
0.0
 10
9.500021
 20
3.900297
 30
0.0
 10
9.500021
 20
3.900297
 30
0.0
  0
LWPOLYLINE
  5
10c
100
AcDbEntity
  8
Layer_1
 62
7
100
AcDbPolyline
 90
66
 70
0
 10
6.499977
 20
2.618117
 30
0.0
 10
6.598817
 20
2.613225
 30
0.0
 10
6.695983
 20
2.598727
 30
0.0
 10
6.790819
 20
2.574895
 30
0.0
 10
6.882669
 20
2.542000
 30
0.0
 10
6.970878
 20
2.500313
 30
0.0
 10
7.054790
 20
2.450108
 30
0.0
 10
7.133749
 20
2.391654
 30
0.0
 10
7.207099
 20
2.325224
 30
0.0
 10
7.273529
 20
2.251874
 30
0.0
 10
7.331983
 20
2.172914
 30
0.0
 10
7.382189
 20
2.089003
 30
0.0
 10
7.423875
 20
2.000793
 30
0.0
 10
7.456770
 20
1.908943
 30
0.0
 10
7.480602
 20
1.814107
 30
0.0
 10
7.495100
 20
1.716941
 30
0.0
 10
7.499992
 20
1.618102
 30
0.0
 10
7.495100
 20
1.519262
 30
0.0
 10
7.480602
 20
1.422096
 30
0.0
 10
7.456770
 20
1.327260
 30
0.0
 10
7.423875
 20
1.235410
 30
0.0
 10
7.382189
 20
1.147201
 30
0.0
 10
7.331983
 20
1.063289
 30
0.0
 10
7.273529
 20
0.984330
 30
0.0
 10
7.207099
 20
0.910979
 30
0.0
 10
7.133749
 20
0.844549
 30
0.0
 10
7.054790
 20
0.786096
 30
0.0
 10
6.970878
 20
0.735890
 30
0.0
 10
6.882669
 20
0.694204
 30
0.0
 10
6.790819
 20
0.661309
 30
0.0
 10
6.695983
 20
0.637476
 30
0.0
 10
6.598817
 20
0.622979
 30
0.0
 10
6.499977
 20
0.618087
 30
0.0
 10
6.397735
 20
0.623253
 30
0.0
 10
6.298446
 20
0.638410
 30
0.0
 10
6.202614
 20
0.663055
 30
0.0
 10
6.110741
 20
0.696684
 30
0.0
 10
6.023329
 20
0.738796
 30
0.0
 10
5.940882
 20
0.788887
 30
0.0
 10
5.863901
 20
0.846456
 30
0.0
 10
5.792890
 20
0.910999
 30
0.0
 10
5.728351
 20
0.982013
 30
0.0
 10
5.670787
 20
1.058997
 30
0.0
 10
5.620700
 20
1.141447
 30
0.0
 10
5.578593
 20
1.228861
 30
0.0
 10
5.544969
 20
1.320736
 30
0.0
 10
5.520330
 20
1.416570
 30
0.0
 10
5.505178
 20
1.515859
 30
0.0
 10
5.500018
 20
1.618102
 30
0.0
 10
5.505178
 20
1.720344
 30
0.0
 10
5.520330
 20
1.819634
 30
0.0
 10
5.544969
 20
1.915467
 30
0.0
 10
5.578593
 20
2.007342
 30
0.0
 10
5.620700
 20
2.094756
 30
0.0
 10
5.670787
 20
2.177206
 30
0.0
 10
5.728351
 20
2.254190
 30
0.0
 10
5.792890
 20
2.325205
 30
0.0
 10
5.863901
 20
2.389747
 30
0.0
 10
5.940882
 20
2.447316
 30
0.0
 10
6.023329
 20
2.497407
 30
0.0
 10
6.110741
 20
2.539519
 30
0.0
 10
6.202614
 20
2.573149
 30
0.0
 10
6.298446
 20
2.597793
 30
0.0
 10
6.397735
 20
2.612950
 30
0.0
 10
6.499977
 20
2.618117
 30
0.0
 10
6.499977
 20
2.618117
 30
0.0
  0
LWPOLYLINE
  5
10d
100
AcDbEntity
  8
Layer_1
 62
7
100
AcDbPolyline
 90
18
 70
0
 10
1.900141
 20
0.899979
 30
0.0
 10
1.939059
 20
0.892119
 30
0.0
 10
1.970841
 20
0.870690
 30
0.0
 10
1.992271
 20
0.838908
 30
0.0
 10
2.000131
 20
0.799987
 30
0.0
 10
1.992271
 20
0.761069
 30
0.0
 10
1.970841
 20
0.729287
 30
0.0
 10
1.939059
 20
0.707857
 30
0.0
 10
1.900141
 20
0.699996
 30
0.0
 10
1.861204
 20
0.707841
 30
0.0
 10
1.829404
 20
0.729266
 30
0.0
 10
1.807961
 20
0.761055
 30
0.0
 10
1.800095
 20
0.799987
 30
0.0
 10
1.807961
 20
0.838924
 30
0.0
 10
1.829403
 20
0.870712
 30
0.0
 10
1.861203
 20
0.892135
 30
0.0
 10
1.900141
 20
0.899979
 30
0.0
 10
1.900141
 20
0.899979
 30
0.0
  0
LWPOLYLINE
  5
10e
100
AcDbEntity
  8
Layer_1
 62
7
100
AcDbPolyline
 90
18
 70
0
 10
11.100144
 20
0.899979
 30
0.0
 10
11.139063
 20
0.892119
 30
0.0
 10
11.170845
 20
0.870691
 30
0.0
 10
11.192274
 20
0.838910
 30
0.0
 10
11.200135
 20
0.799987
 30
0.0
 10
11.192274
 20
0.761069
 30
0.0
 10
11.170845
 20
0.729287
 30
0.0
 10
11.139063
 20
0.707857
 30
0.0
 10
11.100144
 20
0.699996
 30
0.0
 10
11.061208
 20
0.707841
 30
0.0
 10
11.029408
 20
0.729266
 30
0.0
 10
11.007965
 20
0.761055
 30
0.0
 10
11.000099
 20
0.799987
 30
0.0
 10
11.007964
 20
0.838922
 30
0.0
 10
11.029407
 20
0.870711
 30
0.0
 10
11.061207
 20
0.892135
 30
0.0
 10
11.100144
 20
0.899979
 30
0.0
 10
11.100144
 20
0.899979
 30
0.0
  0
LWPOLYLINE
  5
10f
100
AcDbEntity
  8
Layer_1
 62
7
100
AcDbPolyline
 90
7
 70
1
 10
0.000000
 20
10.800313
 30
0.0
 10
0.000000
 20
9.800301
 30
0.0
 10
0.028335
 20
9.800301
 30
0.0
 10
0.028335
 20
10.771927
 30
0.0
 10
1.000015
 20
10.771927
 30
0.0
 10
1.000015
 20
10.800313
 30
0.0
 10
0.000000
 20
10.800313
 30
0.0
  0
LWPOLYLINE
  5
110
100
AcDbEntity
  8
Layer_1
 62
7
100
AcDbPolyline
 90
7
 70
1
 10
0.000000
 20
0.800277
 30
0.0
 10
0.000000
 20
0.000298
 30
0.0
 10
1.000015
 20
0.000298
 30
0.0
 10
1.000015
 20
0.028630
 30
0.0
 10
0.028335
 20
0.028630
 30
0.0
 10
0.028335
 20
0.800277
 30
0.0
 10
0.000000
 20
0.800277
 30
0.0
  0
LWPOLYLINE
  5
111
100
AcDbEntity
  8
Layer_1
 62
7
100
AcDbPolyline
 90
7
 70
1
 10
13.000015
 20
10.800313
 30
0.0
 10
13.000015
 20
9.800301
 30
0.0
 10
12.971680
 20
9.800301
 30
0.0
 10
12.971680
 20
10.771927
 30
0.0
 10
12.000000
 20
10.771927
 30
0.0
 10
12.000000
 20
10.800313
 30
0.0
 10
13.000015
 20
10.800313
 30
0.0
  0
LWPOLYLINE
  5
112
100
AcDbEntity
  8
Layer_1
 62
7
100
AcDbPolyline
 90
7
 70
1
 10
13.000015
 20
0.800277
 30
0.0
 10
13.000015
 20
0.000298
 30
0.0
 10
12.000000
 20
0.000298
 30
0.0
 10
12.000000
 20
0.028630
 30
0.0
 10
12.971680
 20
0.028630
 30
0.0
 10
12.971680
 20
0.800277
 30
0.0
 10
13.000015
 20
0.800277
 30
0.0
  0
ENDSEC
  0
SECTION
  2
OBJECTS
  0
DICTIONARY
  5
C
330
0
100
AcDbDictionary
  3
ACAD_GROUP
350
D
  3
ACAD_MLINESTYLE
350
17
  0
DICTIONARY
  5
D
330
C
100
AcDbDictionary
  0
DICTIONARY
  5
1A
330
C
100
AcDbDictionary
  0
DICTIONARY
  5
17
330
C
100
AcDbDictionary
  3
STANDARD
350
18
  0
DICTIONARY
  5
19
330
C
100
AcDbDictionary
  0
ENDSEC
  0
EOF
