<?xml version="1.0" encoding="UTF-8" standalone="no"?>
<svg
   xmlns:dc="http://purl.org/dc/elements/1.1/"
   xmlns:cc="http://creativecommons.org/ns#"
   xmlns:rdf="http://www.w3.org/1999/02/22-rdf-syntax-ns#"
   xmlns:svg="http://www.w3.org/2000/svg"
   xmlns="http://www.w3.org/2000/svg"
   xmlns:sodipodi="http://sodipodi.sourceforge.net/DTD/sodipodi-0.dtd"
   xmlns:inkscape="http://www.inkscape.org/namespaces/inkscape"
   version="1.0"
   width="297.63779pt"
   height="209.76378pt"
   viewBox="0 0 297.63779 209.76378"
   preserveAspectRatio="xMidYMid meet"
   id="svg3410"
   inkscape:version="0.91 r13725"
   sodipodi:docname="rlc-monochrome.svg">
  <defs
     id="defs3420" />
  <sodipodi:namedview
     pagecolor="#ffffff"
     bordercolor="#666666"
     borderopacity="1"
     objecttolerance="10"
     gridtolerance="10"
     guidetolerance="10"
     inkscape:pageopacity="0"
     inkscape:pageshadow="2"
     inkscape:window-width="1920"
     inkscape:window-height="1029"
     id="namedview3418"
     showgrid="false"
     fit-margin-top="0"
     fit-margin-left="0"
     fit-margin-right="0"
     fit-margin-bottom="0"
     inkscape:zoom="1.0031488"
     inkscape:cx="234.91419"
     inkscape:cy="326.18692"
     inkscape:window-x="0"
     inkscape:window-y="25"
     inkscape:window-maximized="1"
     inkscape:current-layer="g3414" />
  <metadata
     id="metadata3412">
Created by potrace 1.13, written by Peter Selinger 2001-2015
<rdf:RDF>
  <cc:Work
     rdf:about="">
    <dc:format>image/svg+xml</dc:format>
    <dc:type
       rdf:resource="http://purl.org/dc/dcmitype/StillImage" />
    <dc:title></dc:title>
  </cc:Work>
</rdf:RDF>
</metadata>
  <g
     transform="matrix(0.1,0,0,-0.1,0,209.76378)"
     id="g3414"
     style="fill:#000000;stroke:none">
    <path
       d="M 0,1048.8189 0,0 l 1488.189,0 1488.189,0 0,1048.8189 0,1048.8189 -1488.189,0 -1488.189,0 0,-1048.8189 z m 1426.6772,880.7205 c 34.7244,-11.9728 51.5905,-60.8219 33.2362,-95.3036 -6.4488,-11.9728 -15.378,-19.1566 -31.748,-25.8613 -30.2599,-11.9728 -55.063,-7.6626 -77.3859,13.8885 -14.8819,14.3674 -16.3701,18.1987 -16.3701,44.5388 0,22.03 2.4804,31.6083 10.9134,41.6654 18.8504,22.9878 51.5906,31.6083 81.3544,21.0722 z m -741.61421,-16.7619 c 62.00788,-17.7197 118.55906,-64.6532 148.8189,-124.0384 12.89764,-25.3824 15.87402,-38.3131 17.85827,-72.7948 1.98425,-35.4395 0.99212,-46.4545 -8.43307,-69.9212 -21.33071,-55.0749 -88.29922,-102.9662 -158.74016,-113.5023 -83.33858,-12.4518 -144.85039,20.5932 -192.47244,102.9662 -57.04725,98.656 -57.54331,181.029 -0.49606,237.5408 35.71653,35.4394 65.97637,47.4123 121.53543,47.4123 26.7874,0 55.55905,-2.8735 71.92913,-7.6626 z M 1937.126,1806.9378 c 45.1417,-22.9879 66.9685,-60.8219 66.9685,-116.3758 0,-44.5389 -10.4173,-68.0057 -40.1811,-92.4302 -57.5433,-47.8913 -197.9291,-51.7226 -250.5118,-7.1836 -28.7717,24.4245 -38.6929,48.3701 -39.189,92.4301 0,44.0599 8.4331,65.611 36.7087,91.9512 37.7007,35.4396 69.9448,44.5389 146.8346,43.1022 49.6063,-0.9578 63,-2.8735 79.3701,-11.4939 z m 534.7559,-12.9306 c 50.5984,-20.5933 58.0394,-90.5145 12.4016,-117.8126 -22.8189,-13.8885 -63,-11.015 -81.3544,5.2681 -38.6929,34.0027 -30.7559,93.3879 14.8819,112.5445 19.8425,8.1414 34.2284,8.1414 54.0709,0 z M 548.64567,1459.2471 c 14.38583,-12.4517 18.35433,-20.1143 20.33858,-38.313 5.45669,-44.06 -20.83464,-75.1893 -63.99212,-75.1893 -33.73229,0 -55.55906,13.4096 -65.97638,40.2287 -10.41732,26.3402 -3.47244,56.0328 18.35433,75.6682 12.89764,11.4939 18.85039,13.4095 44.14961,13.4095 26.29133,0 31.25196,-1.4367 47.12598,-15.8041 z m 814.53543,3.3524 c 55.063,-10.5361 100.7008,-32.0871 127.9843,-60.343 83.8346,-86.6832 71.433,-241.372 -26.2914,-329.9709 -62.0079,-55.5539 -112.1102,-71.8369 -224.7165,-71.8369 -80.8583,0 -116.5748,4.7891 -196.937,27.2981 -95.24412,26.3401 -185.52759,89.0777 -214.29924,148.4629 -31.74803,64.1742 -9.92126,159.4779 45.6378,200.1855 44.1496,32.5661 144.85034,67.5267 241.58264,84.2886 67.9607,11.4939 192.9685,12.4518 247.0394,1.9157 z m 815.5276,-92.909 c 31.2519,-8.6205 65.4803,-38.792 83.8346,-74.2315 13.3937,-26.3403 16.3701,-37.8342 18.3543,-76.1471 1.4882,-34.0029 0.4961,-50.2859 -5.9527,-68.9635 -27.2835,-78.5417 -179.5748,-163.78812 -293.1732,-163.78812 -112.1103,0 -186.0237,51.72262 -194.4567,135.53232 -5.4567,57.4694 20.3385,109.1921 74.9055,152.2942 42.1653,33.045 154.2756,85.2464 208.8425,96.7403 19.3464,4.3103 89.7874,3.3525 107.6457,-1.4366 z m 362.1259,-16.2831 c 18.3544,-12.4517 28.7717,-33.0449 28.7717,-55.5539 0,-27.298 -7.937,-42.1443 -29.2677,-56.0328 -31.748,-21.0721 -81.3543,-9.5782 -98.2205,22.5089 -9.4252,17.7198 -7.937,52.6804 2.9764,69.9213 18.3543,28.7348 66.9685,38.313 95.7401,19.1565 z M 738.6378,956.38875 c 58.03937,-19.15651 115.08661,-49.32802 143.85826,-76.14713 26.29134,-24.90347 37.20473,-58.90627 34.22835,-103.92407 -4.46457,-57.94844 -39.18898,-108.71319 -89.7874,-130.26426 -74.40945,-32.08715 -239.59843,5.26804 -307.55906,70.40017 -38.69291,36.39736 -45.63779,53.63822 -45.63779,109.67101 0,42.62324 1.48819,50.28585 13.3937,72.31583 41.17323,75.66819 133.93701,96.74038 251.50394,57.94845 z m 1801.2047,-70.40018 c 120.0473,-13.88847 192.4725,-54.59606 252.9921,-141.75817 42.6615,-61.77975 64.9843,-141.75818 65.9764,-234.18833 1.4882,-174.80316 -76.3937,-299.79938 -222.2362,-357.74782 -39.685,-15.80412 -39.685,-15.80412 -124.0157,-15.80412 -75.8977,0.47892 -89.2914,1.91565 -133.441,13.40956 -158.7401,42.14432 -271.3464,139.36361 -314.5039,271.54352 -14.3859,44.53888 -17.3622,79.49952 -10.9134,132.65883 11.9055,97.21929 44.6457,164.26707 109.1338,226.52573 34.7245,34.0028 50.1024,44.53889 89.2914,63.21648 87.8031,41.6654 178.5827,54.59605 287.7165,42.14432 z m -887.4567,-14.8463 c 25.2992,-8.14151 49.1103,-27.29802 57.0473,-45.4967 10.9134,-24.90347 8.9291,-59.8641 -3.9685,-78.54169 -20.3386,-28.25586 -35.2205,-35.91846 -78.378,-37.3552 -65.9764,-3.35239 -94.252,18.19869 -94.252,72.31583 0,30.65041 6.9449,47.41235 28.2756,66.56886 27.2835,24.90347 59.0315,32.56608 91.2756,22.5089 z M 226.20472,771.52842 c 11.40945,-4.78912 26.78741,-17.24086 34.72441,-27.29802 14.38583,-17.71977 14.38583,-18.19868 14.38583,-86.2043 0,-75.66821 -2.48031,-83.33081 -37.20472,-106.31862 -21.33071,-13.88847 -73.41733,-14.8463 -99.2126,-1.43674 -30.25984,15.3252 -37.70079,31.60824 -41.173231,87.64103 -4.464566,81.89408 6.448821,113.0234 47.125981,132.65882 26.29134,12.45174 54.56693,12.93066 81.35433,0.95783 z M 924.16535,447.30449 c 59.0315,-19.15651 87.80315,-73.75256 87.80315,-167.14054 0,-69.92126 -20.83464,-109.67101 -70.44094,-133.61665 -52.08662,-25.38237 -133.44095,-12.93065 -169.65354,25.86129 -24.80315,26.3402 -29.26772,47.89127 -26.78741,131.701 1.48819,59.86409 3.47245,75.1893 12.40158,93.38798 19.34646,41.1865 49.6063,56.99062 108.63779,57.46953 19.34646,0 45.14174,-3.35239 58.03937,-7.66261 z M 1441.5591,364.4526 c 11.4094,-4.78913 32.244,-16.76195 46.6299,-26.34021 51.0945,-34.0028 81.3543,-32.56606 140.3858,5.74696 26.7874,17.24086 39.189,22.02999 60.0236,23.94564 34.2284,2.87347 59.5276,-5.74696 80.3622,-25.86129 20.3386,-20.59325 28.7717,-44.53889 25.7953,-74.71039 -4.9606,-47.89128 -46.1339,-82.85191 -98.2205,-82.85191 -24.3071,0.47891 -31.2519,2.87348 -65.9763,25.38238 -63,39.74976 -90.7796,39.74976 -153.2835,0.47891 -35.2205,-22.5089 -43.6536,-25.86129 -70.937,-27.29803 -62.0079,-3.83129 -101.6929,33.04499 -101.6929,95.78255 0,70.87909 69.9449,114.93906 136.9134,85.72539 z"
       id="path3416"
       inkscape:connector-curvature="0" />
  </g>
</svg>
