  0
SECTION
  2
HEADER
  9
$ACADVER
  1
AC1014
  9
$HANDSEED
  5
FFFF
  9
$MEASUREMENT
 70
     1
  0
ENDSEC
  0
SECTION
  2
TABLES
  0
TABLE
  2
VPORT
  5
8
330
0
100
AcDbSymbolTable
 70
     4
  0
VPORT
  5
2E
330
8
100
AcDbSymbolTableRecord
100
AcDbViewportTableRecord
  2
*ACTIVE
 70
     0
 10
0.0
 20
0.0
 11
1.0
 21
1.0
 12
210.0
 22
148.5
 13
0.0
 23
0.0
 14
10.0
 24
10.0
 15
10.0
 25
10.0
 16
0.0
 26
0.0
 36
1.0
 17
0.0
 27
0.0
 37
0.0
 40
341.0
 41
1.24
 42
50.0
 43
0.0
 44
0.0
 50
0.0
 51
0.0
 71
     0
 72
   100
 73
     1
 74
     3
 75
     0
 76
     0
 77
     0
 78
     0
  0
ENDTAB
  0
TABLE
  2
LTYPE
  5
5
330
0
100
AcDbSymbolTable
 70
     1
  0
LTYPE
  5
14
330
5
100
AcDbSymbolTableRecord
100
AcDbLinetypeTableRecord
  2
BYBLOCK
 70
     0
  3

 72
    65
 73
     0
 40
0.0
  0
LTYPE
  5
15
330
5
100
AcDbSymbolTableRecord
100
AcDbLinetypeTableRecord
  2
BYLAYER
 70
     0
  3

 72
    65
 73
     0
 40
0.0
  0
LTYPE
  5
16
330
5
100
AcDbSymbolTableRecord
100
AcDbLinetypeTableRecord
  2
CONTINUOUS
 70
     0
  3
Solid line
 72
    65
 73
     0
 40
0.0
  0
ENDTAB
  0
TABLE
  2
LAYER
  5
2
100
AcDbSymbolTable
 70
1
  0
LAYER
  5
50
100
AcDbSymbolTableRecord
100
AcDbLayerTableRecord
  2
0
 70
0
  6
CONTINUOUS
  0
ENDTAB
  0
TABLE
  2
STYLE
  5
3
330
0
100
AcDbSymbolTable
 70
     1
  0
STYLE
  5
11
330
3
100
AcDbSymbolTableRecord
100
AcDbTextStyleTableRecord
  2
STANDARD
 70
     0
 40
0.0
 41
1.0
 50
0.0
 71
     0
 42
2.5
  3
txt
  4

  0
ENDTAB
  0
TABLE
  2
VIEW
  5
6
330
0
100
AcDbSymbolTable
 70
     0
  0
ENDTAB
  0
TABLE
  2
UCS
  5
7
330
0
100
AcDbSymbolTable
 70
     0
  0
ENDTAB
  0
TABLE
  2
APPID
  5
9
330
0
100
AcDbSymbolTable
 70
     2
  0
APPID
  5
12
330
9
100
AcDbSymbolTableRecord
100
AcDbRegAppTableRecord
  2
ACAD
 70
     0
  0
ENDTAB
  0
TABLE
  2
DIMSTYLE
  5
A
330
0
100
AcDbSymbolTable
 70
     1
  0
DIMSTYLE
105
27
330
A
100
AcDbSymbolTableRecord
100
AcDbDimStyleTableRecord
  2
ISO-25
 70
     0
  3

  4

  5

  6

  7

 40
1.0
 41
2.5
 42
0.625
 43
3.75
 44
1.25
 45
0.0
 46
0.0
 47
0.0
 48
0.0
140
2.5
141
2.5
142
0.0
143
0.03937007874016
144
1.0
145
0.0
146
1.0
147
0.625
 71
     0
 72
     0
 73
     0
 74
     0
 75
     0
 76
     0
 77
     1
 78
     8
170
     0
171
     3
172
     1
173
     0
174
     0
175
     0
176
     0
177
     0
178
     0
270
     2
271
     2
272
     2
273
     2
274
     3
340
11
275
     0
280
     0
281
     0
282
     0
283
     0
284
     8
285
     0
286
     0
287
     3
288
     0
  0
ENDTAB
  0
TABLE
  2
BLOCK_RECORD
  5
1
330
0
100
AcDbSymbolTable
 70
     1
  0
BLOCK_RECORD
  5
1F
330
1
100
AcDbSymbolTableRecord
100
AcDbBlockTableRecord
  2
*MODEL_SPACE
  0
BLOCK_RECORD
  5
1B
330
1
100
AcDbSymbolTableRecord
100
AcDbBlockTableRecord
  2
*PAPER_SPACE
  0
ENDTAB
  0
ENDSEC
  0
SECTION
  2
BLOCKS
  0
BLOCK
  5
20
330
1F
100
AcDbEntity
  8
0
100
AcDbBlockBegin
  2
*MODEL_SPACE
 70
     0
 10
0.0
 20
0.0
 30
0.0
  3
*MODEL_SPACE
  1

  0
ENDBLK
  5
21
330
1F
100
AcDbEntity
  8
0
100
AcDbBlockEnd
  0
BLOCK
  5
1C
330
1B
100
AcDbEntity
 67
     1
  8
0
100
AcDbBlockBegin
  2
*PAPER_SPACE
  1

  0
ENDBLK
  5
1D
330
1B
100
AcDbEntity
 67
     1
  8
0
100
AcDbBlockEnd
  0
ENDSEC
  0
SECTION
  2
ENTITIES
  0
LWPOLYLINE
  5
100
100
AcDbEntity
  8
0
 62
7
100
AcDbPolyline
 90
34
 70
0
 10
0.999023
 20
5.600937
 30
0.0
 10
0.003252
 20
5.596748
 30
0.0
 10
-0.000937
 20
4.600977
 30
0.0
 10
0.003252
 20
4.605167
 30
0.0
 10
0.003252
 20
1.346768
 30
0.0
 10
0.000000
 20
1.350020
 30
0.0
 10
0.000000
 20
1.199979
 30
0.0
 10
0.003252
 20
1.196727
 30
0.0
 10
0.003252
 20
0.003236
 30
0.0
 10
1.196743
 20
0.003236
 30
0.0
 10
1.199996
 20
-0.000016
 30
0.0
 10
1.349981
 20
-0.000016
 30
0.0
 10
1.346729
 20
0.003236
 30
0.0
 10
4.253232
 20
0.003236
 30
0.0
 10
4.249980
 20
-0.000016
 30
0.0
 10
4.400021
 20
-0.000016
 30
0.0
 10
4.403273
 20
0.003236
 30
0.0
 10
5.596764
 20
0.003236
 30
0.0
 10
5.596764
 20
1.196727
 30
0.0
 10
5.600016
 20
1.199979
 30
0.0
 10
5.600016
 20
1.350020
 30
0.0
 10
5.596764
 20
1.346768
 30
0.0
 10
5.596764
 20
4.253271
 30
0.0
 10
5.600016
 20
4.250019
 30
0.0
 10
5.600016
 20
4.400004
 30
0.0
 10
5.596764
 20
4.403257
 30
0.0
 10
5.596764
 20
5.596748
 30
0.0
 10
4.403273
 20
5.596748
 30
0.0
 10
4.400021
 20
5.600000
 30
0.0
 10
4.249980
 20
5.600000
 30
0.0
 10
4.253232
 20
5.596748
 30
0.0
 10
0.994833
 20
5.596748
 30
0.0
 10
0.999023
 20
5.600937
 30
0.0
 10
0.999023
 20
5.600937
 30
0.0
  0
LWPOLYLINE
  5
101
100
AcDbEntity
  8
0
 62
7
100
AcDbPolyline
 90
60
 70
0
 10
0.299034
 20
5.500947
 30
0.0
 10
0.599061
 20
5.200975
 30
0.0
 10
0.899032
 20
5.500947
 30
0.0
 10
1.694987
 20
5.500947
 30
0.0
 10
1.566829
 20
5.340763
 30
0.0
 10
1.549025
 20
5.331889
 30
0.0
 10
1.549025
 20
5.400956
 30
0.0
 10
1.534379
 20
5.436305
 30
0.0
 10
1.499030
 20
5.450951
 30
0.0
 10
1.349044
 20
5.450951
 30
0.0
 10
1.313695
 20
5.436305
 30
0.0
 10
1.299049
 20
5.400956
 30
0.0
 10
1.299049
 20
5.271696
 30
0.0
 10
1.184396
 20
5.386294
 30
0.0
 10
1.166249
 20
5.397894
 30
0.0
 10
1.144906
 20
5.400785
 30
0.0
 10
1.124326
 20
5.394431
 30
0.0
 10
1.108329
 20
5.380010
 30
0.0
 10
0.858352
 20
5.030043
 30
0.0
 10
0.849210
 20
4.996844
 30
0.0
 10
0.863699
 20
4.965606
 30
0.0
 10
0.913694
 20
4.915611
 30
0.0
 10
0.937557
 20
4.902313
 30
0.0
 10
0.964847
 20
4.903540
 30
0.0
 10
1.235549
 20
4.993773
 30
0.0
 10
1.263716
 20
4.965606
 30
0.0
 10
1.024048
 20
4.725938
 30
0.0
 10
0.649056
 20
5.100985
 30
0.0
 10
0.549066
 20
5.100985
 30
0.0
 10
0.499015
 20
5.050934
 30
0.0
 10
0.499015
 20
4.950944
 30
0.0
 10
0.874062
 20
4.575952
 30
0.0
 10
0.634394
 20
4.336284
 30
0.0
 10
0.606227
 20
4.364451
 30
0.0
 10
0.696460
 20
4.635153
 30
0.0
 10
0.697687
 20
4.662443
 30
0.0
 10
0.684389
 20
4.686306
 30
0.0
 10
0.634394
 20
4.736301
 30
0.0
 10
0.598289
 20
4.750963
 30
0.0
 10
0.569957
 20
4.741648
 30
0.0
 10
0.219990
 20
4.491671
 30
0.0
 10
0.205569
 20
4.475674
 30
0.0
 10
0.199215
 20
4.455094
 30
0.0
 10
0.202106
 20
4.433751
 30
0.0
 10
0.213706
 20
4.415604
 30
0.0
 10
0.328304
 20
4.300951
 30
0.0
 10
0.199044
 20
4.300951
 30
0.0
 10
0.163695
 20
4.286305
 30
0.0
 10
0.149049
 20
4.250956
 30
0.0
 10
0.149049
 20
4.100970
 30
0.0
 10
0.163695
 20
4.065621
 30
0.0
 10
0.199044
 20
4.050975
 30
0.0
 10
0.268111
 20
4.050975
 30
0.0
 10
0.259237
 20
4.033171
 30
0.0
 10
0.099053
 20
3.905013
 30
0.0
 10
0.099053
 20
4.700968
 30
0.0
 10
0.399025
 20
5.000939
 30
0.0
 10
0.099053
 20
5.300966
 30
0.0
 10
0.299034
 20
5.500947
 30
0.0
 10
0.299034
 20
5.500947
 30
0.0
  0
LWPOLYLINE
  5
102
100
AcDbEntity
  8
0
 62
7
100
AcDbPolyline
 90
143
 70
0
 10
1.823034
 20
5.500947
 30
0.0
 10
2.522471
 20
5.500947
 30
0.0
 10
2.522471
 20
5.467543
 30
0.0
 10
2.539614
 20
5.485678
 30
0.0
 10
2.703160
 20
5.372293
 30
0.0
 10
2.853145
 20
5.497750
 30
0.0
 10
3.002415
 20
5.366119
 30
0.0
 10
3.165960
 20
5.473331
 30
0.0
 10
3.298968
 20
5.325274
 30
0.0
 10
3.473869
 20
5.412807
 30
0.0
 10
3.588797
 20
5.250254
 30
0.0
 10
3.772628
 20
5.316896
 30
0.0
 10
3.867878
 20
5.142105
 30
0.0
 10
4.058268
 20
5.186974
 30
0.0
 10
4.132571
 20
5.002317
 30
0.0
 10
4.326819
 20
5.024752
 30
0.0
 10
4.379240
 20
4.832708
 30
0.0
 10
4.574811
 20
4.832433
 30
0.0
 10
4.604522
 20
4.635649
 30
0.0
 10
4.798770
 20
4.612663
 30
0.0
 10
4.805440
 20
4.413730
 30
0.0
 10
4.995664
 20
4.368365
 30
0.0
 10
4.979238
 20
4.169982
 30
0.0
 10
5.162903
 20
4.102844
 30
0.0
 10
5.123546
 20
3.907714
 30
0.0
 10
5.298171
 20
3.819740
 30
0.0
 10
5.236435
 20
3.630508
 30
0.0
 10
5.399650
 20
3.522800
 30
0.0
 10
5.316361
 20
3.342002
 30
0.0
 10
5.466016
 20
3.216104
 30
0.0
 10
5.362277
 20
3.046220
 30
0.0
 10
5.496278
 20
2.903786
 30
0.0
 10
5.373522
 20
2.747075
 30
0.0
 10
5.490104
 20
2.590089
 30
0.0
 10
5.349985
 20
2.448647
 30
0.0
 10
5.447550
 20
2.279203
 30
0.0
 10
5.291942
 20
2.155015
 30
0.0
 10
5.369167
 20
1.975319
 30
0.0
 10
5.200220
 20
1.870092
 30
0.0
 10
5.256058
 20
1.682679
 30
0.0
 10
5.076031
 20
1.597681
 30
0.0
 10
5.109710
 20
1.405086
 30
0.0
 10
4.921085
 20
1.341586
 30
0.0
 10
4.932164
 20
1.146346
 30
0.0
 10
4.737420
 20
1.105225
 30
0.0
 10
4.725789
 20
0.909985
 30
0.0
 10
4.527572
 20
0.891740
 30
0.0
 10
4.493342
 20
0.699200
 30
0.0
 10
4.294353
 20
0.704106
 30
0.0
 10
4.238019
 20
0.516858
 30
0.0
 10
4.040904
 20
0.544805
 30
0.0
 10
3.963238
 20
0.365329
 30
0.0
 10
3.770698
 20
0.415986
 30
0.0
 10
3.672692
 20
0.246763
 30
0.0
 10
3.487374
 20
0.319413
 30
0.0
 10
3.370406
 20
0.162702
 30
0.0
 10
3.194734
 20
0.256354
 30
0.0
 10
3.060347
 20
0.114306
 30
0.0
 10
2.896802
 20
0.227746
 30
0.0
 10
2.746816
 20
0.102234
 30
0.0
 10
2.597492
 20
0.233864
 30
0.0
 10
2.434001
 20
0.126653
 30
0.0
 10
2.300993
 20
0.274709
 30
0.0
 10
2.126092
 20
0.187231
 30
0.0
 10
2.011164
 20
0.349730
 30
0.0
 10
1.827334
 20
0.283088
 30
0.0
 10
1.732084
 20
0.457878
 30
0.0
 10
1.541694
 20
0.413064
 30
0.0
 10
1.467390
 20
0.597721
 30
0.0
 10
1.273087
 20
0.575287
 30
0.0
 10
1.220721
 20
0.767275
 30
0.0
 10
1.025150
 20
0.767551
 30
0.0
 10
0.995385
 20
0.964390
 30
0.0
 10
0.801191
 20
0.987376
 30
0.0
 10
0.794522
 20
1.186309
 30
0.0
 10
0.604297
 20
1.231674
 30
0.0
 10
0.620724
 20
1.430001
 30
0.0
 10
0.437059
 20
1.497139
 30
0.0
 10
0.476415
 20
1.692270
 30
0.0
 10
0.301790
 20
1.780299
 30
0.0
 10
0.363526
 20
1.969531
 30
0.0
 10
0.200312
 20
2.077183
 30
0.0
 10
0.283600
 20
2.257982
 30
0.0
 10
0.133945
 20
2.383879
 30
0.0
 10
0.237684
 20
2.553764
 30
0.0
 10
0.103684
 20
2.696198
 30
0.0
 10
0.226439
 20
2.852908
 30
0.0
 10
0.109857
 20
3.009950
 30
0.0
 10
0.249976
 20
3.151336
 30
0.0
 10
0.152411
 20
3.320835
 30
0.0
 10
0.164042
 20
3.330095
 30
0.0
 10
0.099053
 20
3.330095
 30
0.0
 10
0.099053
 20
3.776966
 30
0.0
 10
0.330288
 20
3.961898
 30
0.0
 10
0.343738
 20
3.978600
 30
0.0
 10
0.393733
 20
4.078591
 30
0.0
 10
0.398965
 20
4.103198
 30
0.0
 10
0.391554
 20
4.127238
 30
0.0
 10
0.373375
 20
4.144628
 30
0.0
 10
0.349030
 20
4.150965
 30
0.0
 10
0.249039
 20
4.150965
 30
0.0
 10
0.249039
 20
4.200960
 30
0.0
 10
0.399025
 20
4.200960
 30
0.0
 10
0.434374
 20
4.215607
 30
0.0
 10
0.449020
 20
4.250956
 30
0.0
 10
0.449020
 20
4.300951
 30
0.0
 10
0.434413
 20
4.336339
 30
0.0
 10
0.326154
 20
4.444598
 30
0.0
 10
0.590462
 20
4.633389
 30
0.0
 10
0.501606
 20
4.366766
 30
0.0
 10
0.500379
 20
4.339476
 30
0.0
 10
0.513678
 20
4.315613
 30
0.0
 10
0.663663
 20
4.165628
 30
0.0
 10
0.734384
 20
4.236293
 30
0.0
 10
0.899032
 20
4.400941
 30
0.0
 10
0.949027
 20
4.350946
 30
0.0
 10
1.149063
 20
4.350946
 30
0.0
 10
1.249054
 20
4.450937
 30
0.0
 10
1.249054
 20
4.650973
 30
0.0
 10
1.199059
 20
4.700968
 30
0.0
 10
1.363707
 20
4.865616
 30
0.0
 10
1.434372
 20
4.936337
 30
0.0
 10
1.284387
 20
5.086322
 30
0.0
 10
1.260524
 20
5.099621
 30
0.0
 10
1.233234
 20
5.098394
 30
0.0
 10
0.966611
 20
5.009538
 30
0.0
 10
1.155402
 20
5.273846
 30
0.0
 10
1.263661
 20
5.165587
 30
0.0
 10
1.299049
 20
5.150980
 30
0.0
 10
1.349044
 20
5.150980
 30
0.0
 10
1.384393
 20
5.165626
 30
0.0
 10
1.399040
 20
5.200975
 30
0.0
 10
1.399040
 20
5.350961
 30
0.0
 10
1.449035
 20
5.350961
 30
0.0
 10
1.449035
 20
5.250970
 30
0.0
 10
1.455372
 20
5.226625
 30
0.0
 10
1.472762
 20
5.208446
 30
0.0
 10
1.496802
 20
5.201035
 30
0.0
 10
1.521409
 20
5.206267
 30
0.0
 10
1.621400
 20
5.256262
 30
0.0
 10
1.638102
 20
5.269712
 30
0.0
 10
1.823034
 20
5.500947
 30
0.0
 10
1.823034
 20
5.500947
 30
0.0
  0
LWPOLYLINE
  5
103
100
AcDbEntity
  8
0
 62
7
100
AcDbPolyline
 90
21
 70
0
 10
3.421724
 20
5.500947
 30
0.0
 10
4.349033
 20
5.500947
 30
0.0
 10
5.499034
 20
4.351001
 30
0.0
 10
5.499034
 20
3.432291
 30
0.0
 10
5.447144
 20
3.622468
 30
0.0
 10
5.382545
 20
3.806834
 30
0.0
 10
5.305732
 20
3.984897
 30
0.0
 10
5.217202
 20
4.156159
 30
0.0
 10
5.117453
 20
4.320128
 30
0.0
 10
5.006980
 20
4.476309
 30
0.0
 10
4.886280
 20
4.624206
 30
0.0
 10
4.755850
 20
4.763326
 30
0.0
 10
4.616187
 20
4.893174
 30
0.0
 10
4.467787
 20
5.013255
 30
0.0
 10
4.311147
 20
5.123075
 30
0.0
 10
4.146763
 20
5.222139
 30
0.0
 10
3.975132
 20
5.309953
 30
0.0
 10
3.796751
 20
5.386022
 30
0.0
 10
3.612116
 20
5.449851
 30
0.0
 10
3.421724
 20
5.500947
 30
0.0
 10
3.421724
 20
5.500947
 30
0.0
  0
LWPOLYLINE
  5
104
100
AcDbEntity
  8
0
 62
7
100
AcDbPolyline
 90
5
 70
0
 10
4.499074
 20
5.500947
 30
0.0
 10
5.499034
 20
5.500947
 30
0.0
 10
5.499034
 20
4.500987
 30
0.0
 10
4.499074
 20
5.500947
 30
0.0
 10
4.499074
 20
5.500947
 30
0.0
  0
LWPOLYLINE
  5
105
100
AcDbEntity
  8
0
 62
7
100
AcDbPolyline
 90
21
 70
0
 10
0.099053
 20
2.175299
 30
0.0
 10
0.150396
 20
1.985019
 30
0.0
 10
0.214460
 20
1.800510
 30
0.0
 10
0.290749
 20
1.622267
 30
0.0
 10
0.378770
 20
1.450788
 30
0.0
 10
0.478027
 20
1.286567
 30
0.0
 10
0.588025
 20
1.130100
 30
0.0
 10
0.708270
 20
0.981883
 30
0.0
 10
0.838267
 20
0.842412
 30
0.0
 10
0.977520
 20
0.712182
 30
0.0
 10
1.125536
 20
0.591689
 30
0.0
 10
1.281818
 20
0.481428
 30
0.0
 10
1.445872
 20
0.381896
 30
0.0
 10
1.617204
 20
0.293588
 30
0.0
 10
1.795318
 20
0.217000
 30
0.0
 10
1.979720
 20
0.152627
 30
0.0
 10
2.169914
 20
0.100966
 30
0.0
 10
1.248999
 20
0.100966
 30
0.0
 10
0.099053
 20
1.250967
 30
0.0
 10
0.099053
 20
2.175299
 30
0.0
 10
0.099053
 20
2.175299
 30
0.0
  0
LWPOLYLINE
  5
106
100
AcDbEntity
  8
0
 62
7
100
AcDbPolyline
 90
21
 70
0
 10
5.499034
 20
2.169677
 30
0.0
 10
5.499034
 20
1.249037
 30
0.0
 10
4.350963
 20
0.100966
 30
0.0
 10
3.432087
 20
0.100966
 30
0.0
 10
3.621724
 20
0.152665
 30
0.0
 10
3.805593
 20
0.217004
 30
0.0
 10
3.983204
 20
0.293492
 30
0.0
 10
4.154064
 20
0.381638
 30
0.0
 10
4.317682
 20
0.480949
 30
0.0
 10
4.473567
 20
0.590934
 30
0.0
 10
4.621229
 20
0.711101
 30
0.0
 10
4.760174
 20
0.840959
 30
0.0
 10
4.889914
 20
0.980015
 30
0.0
 10
5.009955
 20
1.127779
 30
0.0
 10
5.119807
 20
1.283758
 30
0.0
 10
5.218978
 20
1.447461
 30
0.0
 10
5.306978
 20
1.618396
 30
0.0
 10
5.383315
 20
1.796072
 30
0.0
 10
5.447497
 20
1.979996
 30
0.0
 10
5.499034
 20
2.169677
 30
0.0
 10
5.499034
 20
2.169677
 30
0.0
  0
LWPOLYLINE
  5
107
100
AcDbEntity
  8
0
 62
7
100
AcDbPolyline
 90
5
 70
0
 10
0.099053
 20
1.100926
 30
0.0
 10
1.099013
 20
0.100966
 30
0.0
 10
0.099053
 20
0.100966
 30
0.0
 10
0.099053
 20
1.100926
 30
0.0
 10
0.099053
 20
1.100926
 30
0.0
  0
LWPOLYLINE
  5
108
100
AcDbEntity
  8
0
 62
7
100
AcDbPolyline
 90
5
 70
0
 10
5.499034
 20
1.098996
 30
0.0
 10
5.499034
 20
0.100966
 30
0.0
 10
4.501004
 20
0.100966
 30
0.0
 10
5.499034
 20
1.098996
 30
0.0
 10
5.499034
 20
1.098996
 30
0.0
  0
ENDSEC
  0
SECTION
  2
OBJECTS
  0
DICTIONARY
  5
C
330
0
100
AcDbDictionary
  3
ACAD_GROUP
350
D
  3
ACAD_MLINESTYLE
350
17
  0
DICTIONARY
  5
D
330
C
100
AcDbDictionary
  0
DICTIONARY
  5
1A
330
C
100
AcDbDictionary
  0
DICTIONARY
  5
17
330
C
100
AcDbDictionary
  3
STANDARD
350
18
  0
DICTIONARY
  5
19
330
C
100
AcDbDictionary
  0
ENDSEC
  0
EOF
