<?xml version="1.0" encoding="UTF-8" standalone="no"?>
<svg
   xmlns:dc="http://purl.org/dc/elements/1.1/"
   xmlns:cc="http://creativecommons.org/ns#"
   xmlns:rdf="http://www.w3.org/1999/02/22-rdf-syntax-ns#"
   xmlns:svg="http://www.w3.org/2000/svg"
   xmlns="http://www.w3.org/2000/svg"
   xmlns:sodipodi="http://sodipodi.sourceforge.net/DTD/sodipodi-0.dtd"
   xmlns:inkscape="http://www.inkscape.org/namespaces/inkscape"
   sodipodi:docname="crown-ratchet3.svg"
   inkscape:version="0.91 r13725"
   version="1.1"
   id="svg2"
   preserveAspectRatio="none"
   zoomAndPan="disable"
   viewBox="0 0 198.42519 198.42519"
   height="56mm"
   width="56mm"
   xml:space="preserve"><circle
     style="color:#000000;clip-rule:nonzero;display:inline;overflow:visible;visibility:visible;opacity:1;isolation:auto;mix-blend-mode:normal;color-interpolation:sRGB;color-interpolation-filters:linearRGB;solid-color:#000000;solid-opacity:1;fill:#ff00ff;fill-opacity:0.57142861;fill-rule:evenodd;stroke:none;stroke-width:1.59448814;stroke-linecap:butt;stroke-linejoin:round;stroke-miterlimit:4;stroke-dasharray:none;stroke-dashoffset:0;stroke-opacity:1;color-rendering:auto;image-rendering:auto;shape-rendering:auto;text-rendering:auto;enable-background:accumulate"
     id="path4156-3"
     cx="348.98166"
     cy="100.95017"
     r="99.212585" /><metadata
     id="metadata13"><rdf:RDF><cc:Work
         rdf:about=""><dc:format>image/svg+xml</dc:format><dc:type
           rdf:resource="http://purl.org/dc/dcmitype/StillImage" /><dc:title></dc:title></cc:Work></rdf:RDF></metadata><defs
     id="defs11" /><sodipodi:namedview
     inkscape:snap-midpoints="true"
     inkscape:snap-nodes="true"
     showguides="false"
     inkscape:snap-global="true"
     inkscape:snap-center="true"
     inkscape:snap-object-midpoints="true"
     inkscape:snap-smooth-nodes="true"
     inkscape:object-nodes="true"
     inkscape:snap-intersection-paths="true"
     inkscape:object-paths="true"
     inkscape:snap-bbox-midpoints="true"
     inkscape:snap-bbox-edge-midpoints="true"
     inkscape:bbox-nodes="true"
     inkscape:bbox-paths="true"
     inkscape:snap-bbox="true"
     units="mm"
     fit-margin-bottom="0"
     fit-margin-right="0"
     fit-margin-left="0"
     fit-margin-top="0"
     inkscape:current-layer="svg2"
     inkscape:window-maximized="1"
     inkscape:window-y="25"
     inkscape:window-x="1600"
     inkscape:cy="147.42443"
     inkscape:cx="14.726291"
     inkscape:zoom="2.4483572"
     showgrid="true"
     id="namedview9"
     inkscape:window-height="1029"
     inkscape:window-width="1920"
     inkscape:pageshadow="2"
     inkscape:pageopacity="0"
     guidetolerance="10"
     gridtolerance="10"
     objecttolerance="10"
     borderopacity="1"
     bordercolor="#666666"
     pagecolor="#ffffff"><inkscape:grid
       type="xygrid"
       id="grid4155"
       spacingx="1.7716534"
       spacingy="1.7716534"
       originx="47.800581"
       originy="44.325399" /></sodipodi:namedview><path
     style="color:#000000;clip-rule:nonzero;display:inline;overflow:visible;visibility:visible;opacity:1;isolation:auto;mix-blend-mode:normal;color-interpolation:sRGB;color-interpolation-filters:linearRGB;solid-color:#000000;solid-opacity:1;fill:#800000;fill-opacity:1;fill-rule:evenodd;stroke:#000000;stroke-width:0.23034941;stroke-linecap:butt;stroke-linejoin:miter;stroke-miterlimit:4;stroke-dasharray:none;stroke-dashoffset:0;stroke-opacity:1;color-rendering:auto;image-rendering:auto;shape-rendering:auto;text-rendering:auto;enable-background:accumulate"
     d="m 0.11523438,0.11523438 0,198.19531562 198.19531562,0 0,-198.19531562 z m 3.39401142,3.39401742 191.3385542,0 0,191.3385582 -191.3385542,0 z"
     id="rect4153"
     inkscape:connector-curvature="0"
     sodipodi:nodetypes="cccccccccc" /><!-- Made with the gear generator.  http://woodgears.ca/gear   2017-07-12T17:03:13 --><!-- G1:Toothspacing=47.12  Teeth=-35  Slop=.8  Spur gear  Angle=20.0  Addendum=.1 --><!-- G2:Toothspacing=47.12  Teeth=4  Slop=.8  Spur gear  Angle=20.0  Addendum=.2 --><!-- G2:Toothspacing=47.12  Teeth=4  Slop=.8  Spur gear  Angle=20.0  Addendum=.2 --><path
     style="color:#000000;clip-rule:nonzero;display:inline;overflow:visible;visibility:visible;opacity:1;isolation:auto;mix-blend-mode:normal;color-interpolation:sRGB;color-interpolation-filters:linearRGB;solid-color:#000000;solid-opacity:1;fill:#008080;fill-opacity:1;fill-rule:evenodd;stroke:none;stroke-width:0.12113411;stroke-linecap:butt;stroke-linejoin:miter;stroke-miterlimit:4;stroke-dasharray:none;stroke-dashoffset:0;stroke-opacity:1;color-rendering:auto;image-rendering:auto;shape-rendering:auto;text-rendering:auto;enable-background:accumulate"
     d="m 38.942312,28.312398 5.314959,5.314955 0,10.629919 0,-1.1e-5 -10.629919,1.1e-5 -5.31496,-5.314954 z"
     id="rect4157"
     inkscape:connector-curvature="0"
     sodipodi:nodetypes="ccccccc" /><path
     style="fill:none;fill-rule:evenodd;stroke:#000000;stroke-width:0.38560981;stroke-linecap:butt;stroke-linejoin:miter;stroke-miterlimit:4;stroke-dasharray:none;stroke-opacity:1"
     d="M 0.13633252,0.13632782 198.25477,198.25478"
     id="path4160"
     inkscape:connector-curvature="0" /><path
     style="fill:#800080;fill-opacity:0.61224491;fill-rule:evenodd;stroke:none;stroke-width:1px;stroke-linecap:butt;stroke-linejoin:miter;stroke-opacity:1"
     d="M 0.11523438,0.11523438 -0.0340608,17.682478 17.682472,-0.0340548 Z"
     id="path4293-6-2"
     inkscape:connector-curvature="0"
     sodipodi:nodetypes="cccc" /><path
     style="fill:#800080;fill-opacity:0.61224491;fill-rule:evenodd;stroke:none;stroke-width:1px;stroke-linecap:butt;stroke-linejoin:miter;stroke-opacity:1"
     d="m 150.59054,0 5.31496,0 42.51967,42.519676 0,5.314959 z"
     id="path4293-6-2-9"
     inkscape:connector-curvature="0"
     sodipodi:nodetypes="ccccc" /><path
     style="fill:#800080;fill-opacity:0.61224491;fill-rule:evenodd;stroke:none;stroke-width:1px;stroke-linecap:butt;stroke-linejoin:miter;stroke-opacity:1"
     d="m 47.834635,198.42517 -5.314959,0 L 0,155.9055 0,150.59054 Z"
     id="path4293-6-2-1"
     inkscape:connector-curvature="0"
     sodipodi:nodetypes="ccccc" /><path
     style="fill:#800080;fill-opacity:0.61224491;fill-rule:evenodd;stroke:none;stroke-width:1px;stroke-linecap:butt;stroke-linejoin:miter;stroke-opacity:1"
     d="m 150.59054,198.42517 5.31495,0 42.51968,-42.51966 0,-5.31496 z"
     id="path4293-6-2-1-6"
     inkscape:connector-curvature="0"
     sodipodi:nodetypes="ccccc" /><path
     style="fill:#ff0000;fill-opacity:0.61224491;fill-rule:evenodd;stroke:none;stroke-width:0.09999999;stroke-linecap:butt;stroke-linejoin:miter;stroke-miterlimit:4;stroke-dasharray:none;stroke-opacity:1"
     d="M 22.997432,47.800584 46.028925,24.769091 44.257272,22.997438 21.225779,46.028931 Z"
     id="path4468-6"
     inkscape:connector-curvature="0"
     sodipodi:nodetypes="ccccc" /><path
     sodipodi:type="star"
     style="color:#000000;clip-rule:nonzero;display:inline;overflow:visible;visibility:visible;opacity:1;isolation:auto;mix-blend-mode:normal;color-interpolation:sRGB;color-interpolation-filters:linearRGB;solid-color:#000000;solid-opacity:1;fill:#0000ff;fill-opacity:0.57142861;fill-rule:evenodd;stroke:none;stroke-width:1.59448814;stroke-linecap:butt;stroke-linejoin:round;stroke-miterlimit:4;stroke-dasharray:none;stroke-dashoffset:0;stroke-opacity:1;color-rendering:auto;image-rendering:auto;shape-rendering:auto;text-rendering:auto;enable-background:accumulate"
     id="path4154-6"
     sodipodi:sides="45"
     sodipodi:cx="339.00278"
     sodipodi:cy="99.212578"
     sodipodi:r1="95.669273"
     sodipodi:r2="89.378647"
     sodipodi:arg1="-1.553343"
     sodipodi:arg2="-1.4835298"
     inkscape:flatsided="false"
     inkscape:rounded="0"
     inkscape:randomized="0"
     d="m 340.67244,3.5578754 6.12021,6.6161686 7.1761,-5.4528915 5.13985,7.4035485 7.86517,-4.4011034 4.05945,8.0468274 8.40114,-3.263653 2.90005,8.533483 8.77359,-2.062679 1.68419,8.854044 8.97528,-0.821557 0.43556,9.002272 9.00227,0.435555 -0.82156,8.97528 8.85404,1.68419 -2.06267,8.773595 8.53348,2.900044 -3.26366,8.401142 8.04683,4.059451 -4.4011,7.865171 7.40354,5.139846 -5.45289,7.176112 6.61617,6.120201 -6.39855,6.347378 5.70002,6.98143 -7.21966,5.3951 4.67291,7.70678 -7.90025,4.33781 3.55486,8.28212 -8.42708,3.1961 2.36762,8.69626 -8.78987,1.99217 1.13428,8.94113 -8.98158,0.74947 -0.12112,9.01199 -8.99848,-0.50782 -1.37416,8.90742 -8.84024,-1.75523 -2.60046,8.6295 -8.50993,-2.96847 -3.77615,8.18359 -8.01397,-4.12393 -4.87834,7.57842 -7.36204,-5.19913 -5.88557,6.82573 -6.56682,-6.17313 -6.77825,5.94019 -5.64378,-7.02698 -7.539,4.93903 -4.61089,-7.74405 -8.15301,3.84174 -3.48825,-8.3104 -8.60833,2.66967 -2.29772,-8.71499 -8.8961,1.44563 -1.06247,-8.94995 -9.01072,0.19347 0.19347,-9.01073 -8.94995,-1.06246 1.44563,-8.89611 -8.71499,-2.29771 2.66967,-8.60834 -8.3104,-3.48824 3.84174,-8.15302 -7.74405,-4.61088 4.93903,-7.53901 -7.02698,-5.64377 5.94019,-6.77826 -6.17312,-6.566808 6.82573,-5.885577 -5.19913,-7.362038 7.57842,-4.878341 -4.12394,-8.01397 8.1836,-3.776153 -2.96847,-8.509919 8.6295,-2.600467 -1.75523,-8.840233 8.90743,-1.374166 -0.50783,-8.99848 9.01199,-0.121118 0.74947,-8.981584 8.94114,1.134287 1.99216,-8.78987 8.69627,2.367615 3.19609,-8.427072 8.28212,3.554859 4.33781,-7.90025 7.70678,4.672912 5.3951,-7.2196587 6.98144,5.7000127 z"
     transform="matrix(0.99932841,-0.03664373,0.03664373,0.99932841,6.5713231,14.229591)" /><circle
     style="color:#000000;clip-rule:nonzero;display:inline;overflow:visible;visibility:visible;opacity:1;isolation:auto;mix-blend-mode:normal;color-interpolation:sRGB;color-interpolation-filters:linearRGB;solid-color:#000000;solid-opacity:1;fill:#ff00ff;fill-opacity:0.57142861;fill-rule:evenodd;stroke:none;stroke-width:1.59448814;stroke-linecap:butt;stroke-linejoin:round;stroke-miterlimit:4;stroke-dasharray:none;stroke-dashoffset:0;stroke-opacity:1;color-rendering:auto;image-rendering:auto;shape-rendering:auto;text-rendering:auto;enable-background:accumulate"
     id="path4156-3-1"
     cx="348.98166"
     cy="100.95017"
     r="89.468491" /><path
     style="color:#000000;clip-rule:nonzero;display:inline;overflow:visible;visibility:visible;opacity:1;isolation:auto;mix-blend-mode:normal;color-interpolation:sRGB;color-interpolation-filters:linearRGB;solid-color:#000000;solid-opacity:1;fill:#ff00ff;fill-opacity:0.57142861;fill-rule:evenodd;stroke:none;stroke-width:1.59448814;stroke-linecap:butt;stroke-linejoin:round;stroke-miterlimit:4;stroke-dasharray:none;stroke-dashoffset:0;stroke-opacity:1;color-rendering:auto;image-rendering:auto;shape-rendering:auto;text-rendering:auto;enable-background:accumulate"
     d="M 597.01367 -33.695312 A 99.212582 99.212582 0 0 0 497.80078 65.517578 A 99.212582 99.212582 0 0 0 597.01367 164.73047 A 99.212582 99.212582 0 0 0 696.22656 65.517578 A 99.212582 99.212582 0 0 0 597.01367 -33.695312 z M 591.83984 -30.011719 L 598.41797 -23.849609 L 605.18555 -29.802734 L 610.8418 -22.785156 L 618.37109 -27.738281 L 622.99609 -20.001953 L 631.14258 -23.857422 L 634.64453 -15.552734 L 643.24805 -18.238281 L 645.56055 -9.5273438 L 654.45508 -10.988281 L 655.5332 -2.0410156 L 664.54297 -2.25 L 664.36523 6.7617188 L 673.31836 7.8085938 L 671.88672 16.707031 L 680.60547 18.990234 L 677.95117 27.603516 L 686.26758 31.076172 L 682.44141 39.236328 L 690.19336 43.833984 L 685.26758 51.380859 L 692.30273 57.011719 L 686.375 63.800781 L 692.56055 70.357422 L 685.74414 76.253906 L 690.95703 83.607422 L 683.38672 88.5 L 687.52539 96.505859 L 679.34766 100.29688 L 682.33008 108.80078 L 673.70508 111.41602 L 675.47656 120.25391 L 666.57227 121.64453 L 667.0957 130.64062 L 658.08398 130.77734 L 657.34961 139.76172 L 648.40625 138.64258 L 646.42969 147.43555 L 637.72852 145.08398 L 634.54688 153.51562 L 626.25977 149.97461 L 621.93555 157.88281 L 614.2207 153.22461 L 608.83789 160.45312 L 601.8457 154.76562 L 595.50977 161.17383 L 589.37891 154.56836 L 582.21289 160.03516 L 577.05859 152.64062 L 569.20117 157.05469 L 565.12891 149.01562 L 556.73242 152.29297 L 553.81836 143.76562 L 545.04883 145.84375 L 543.34766 136.99219 L 534.375 137.82812 L 533.92383 128.82812 L 524.91992 128.4082 L 525.72656 119.43164 L 516.86914 117.76172 L 518.91602 108.98438 L 510.37891 106.09961 L 513.62695 97.693359 L 505.57227 93.648438 L 509.96094 85.775391 L 502.54883 80.648438 L 507.98828 73.462891 L 501.36133 67.353516 L 507.74805 60.996094 L 502.03711 54.023438 L 509.24609 48.615234 L 504.56055 40.917969 L 512.45312 36.566406 L 508.88477 28.289062 L 517.30469 25.080078 L 514.92188 16.386719 L 523.70898 14.378906 L 522.55859 5.4394531 L 531.53906 4.6757812 L 531.64453 -4.3378906 L 540.64453 -3.8457031 L 542.00195 -12.753906 L 550.8457 -11.015625 L 553.43164 -19.648438 L 561.94727 -16.695312 L 565.70898 -24.884766 L 573.73047 -20.775391 L 578.5957 -28.363281 L 585.9668 -23.175781 L 591.83984 -30.011719 z "
     id="path4156-3-6" /><path
     style="color:#000000;clip-rule:nonzero;display:inline;overflow:visible;visibility:visible;opacity:1;isolation:auto;mix-blend-mode:normal;color-interpolation:sRGB;color-interpolation-filters:linearRGB;solid-color:#000000;solid-opacity:1;fill:#ff00ff;fill-opacity:0.57142861;fill-rule:evenodd;stroke:none;stroke-width:1.59448814;stroke-linecap:butt;stroke-linejoin:round;stroke-miterlimit:4;stroke-dasharray:none;stroke-dashoffset:0;stroke-opacity:1;color-rendering:auto;image-rendering:auto;shape-rendering:auto;text-rendering:auto;enable-background:accumulate"
     d="M 102.84766 0.06640625 A 99.212582 99.212582 0 0 0 47.800781 14.445312 L 47.800781 19.142578 L 55.880859 21.039062 L 58.78125 12.505859 L 67.181641 15.769531 L 71.242188 7.7246094 L 79.107422 12.125 L 84.248047 4.7207031 L 91.423828 10.173828 L 97.542969 3.5585938 L 103.89062 9.9570312 L 110.87109 4.2558594 L 116.26758 11.476562 L 123.97266 6.8027344 L 128.31055 14.703125 L 136.59375 11.148438 L 139.78906 19.576172 L 148.48438 17.207031 L 150.47656 25.996094 L 159.41797 24.863281 L 160.16797 33.84375 L 169.17969 33.964844 L 168.67188 42.964844 L 177.58008 44.337891 L 175.82422 53.177734 L 184.45312 55.779297 L 181.48438 64.289062 L 189.66797 68.064453 L 185.54688 76.080078 L 193.125 80.958984 L 187.92578 88.320312 L 194.75 94.205078 L 188.57617 100.77148 L 194.51758 107.55078 L 187.49023 113.19336 L 192.42969 120.73242 L 184.68555 125.34375 L 188.52734 133.49609 L 180.2168 136.98633 L 182.88477 145.59375 L 174.16992 147.89062 L 175.61719 156.78711 L 166.66797 157.85156 L 166.86133 166.85938 L 157.84961 166.66602 L 156.78711 175.61719 L 147.89062 174.17188 L 145.59375 182.88672 L 136.98438 180.2168 L 133.49609 188.52734 L 125.34375 184.68555 L 120.73242 192.42969 L 113.19336 187.49219 L 107.55078 194.51758 L 100.77148 188.57812 L 94.205078 194.75 L 88.320312 187.92383 L 80.958984 193.125 L 76.078125 185.54688 L 68.064453 189.66992 L 64.289062 181.48633 L 55.779297 184.45312 L 53.179688 175.82617 L 44.339844 177.58008 L 42.962891 168.67188 L 33.966797 169.17969 L 33.845703 160.16797 L 24.863281 159.41992 L 25.998047 150.47852 L 17.207031 148.48438 L 19.574219 139.78906 L 11.148438 136.59375 L 14.703125 128.31055 L 6.8027344 123.97461 L 11.476562 116.26758 L 4.2558594 110.87109 L 9.9550781 103.89062 L 3.5566406 97.542969 L 10.171875 91.423828 L 4.7207031 84.246094 L 12.123047 79.105469 L 7.7226562 71.242188 L 15.769531 67.181641 L 12.507812 58.779297 L 21.039062 55.880859 L 19.042969 47.388672 L 16.400391 44.746094 A 99.212582 99.212582 0 0 0 0.06640625 95.576172 A 99.212582 99.212582 0 0 0 95.576172 198.35938 A 99.212582 99.212582 0 0 0 198.35938 102.84766 A 99.212582 99.212582 0 0 0 102.84766 0.06640625 z "
     id="path4156-3-6-3" /><path
     style="fill:none;fill-rule:evenodd;stroke:#000000;stroke-width:2.48031473;stroke-linecap:butt;stroke-linejoin:round;stroke-miterlimit:4;stroke-dasharray:none;stroke-opacity:0.62337658"
     d="m 21.225779,46.028931 23.031492,-23.031498 0,-12.401568 -5.314959,0 -28.346453,28.346453 -1.7716533,-1.771654 0,-10.629919 17.7165333,-17.7165333 -1.771654,-1.7716533 -7.086613,0 L 1.7375925,22.997438"
     id="path4404-2-2"
     inkscape:connector-curvature="0"
     sodipodi:nodetypes="ccccccccccc" /><path
     style="fill:#00ffff;fill-opacity:0.6331169;fill-rule:evenodd;stroke:none;stroke-width:1px;stroke-linecap:butt;stroke-linejoin:miter;stroke-opacity:1"
     d="m 297.45438,1.5883002 0,28.3464488 -21.25984,21.25983 -5.31496,0 -21.25982,-21.25983 0.14929,-28.1971551 z"
     id="path5159-3-5-6"
     inkscape:connector-curvature="0"
     sodipodi:nodetypes="ccccccc" /><path
     style="fill:none;fill-rule:evenodd;stroke:#000000;stroke-width:0.38560981;stroke-linecap:butt;stroke-linejoin:miter;stroke-miterlimit:4;stroke-dasharray:none;stroke-opacity:1"
     d="M 249.75609,1.7246338 447.87451,199.84307"
     id="path4160-1"
     inkscape:connector-curvature="0" /></svg>