<?xml version="1.0" encoding="UTF-8" standalone="no"?>
<svg
   xmlns:dc="http://purl.org/dc/elements/1.1/"
   xmlns:cc="http://creativecommons.org/ns#"
   xmlns:rdf="http://www.w3.org/1999/02/22-rdf-syntax-ns#"
   xmlns:svg="http://www.w3.org/2000/svg"
   xmlns="http://www.w3.org/2000/svg"
   xmlns:sodipodi="http://sodipodi.sourceforge.net/DTD/sodipodi-0.dtd"
   xmlns:inkscape="http://www.inkscape.org/namespaces/inkscape"
   xml:space="preserve"
   width="56mm"
   height="56mm"
   viewBox="0 0 198.42519 198.42519"
   zoomAndPan="disable"
   preserveAspectRatio="none"
   id="svg2"
   version="1.1"
   inkscape:version="0.91 r13725"
   sodipodi:docname="crown-ratchet2.svg"><metadata
     id="metadata13"><rdf:RDF><cc:Work
         rdf:about=""><dc:format>image/svg+xml</dc:format><dc:type
           rdf:resource="http://purl.org/dc/dcmitype/StillImage" /><dc:title></dc:title></cc:Work></rdf:RDF></metadata><defs
     id="defs11" /><sodipodi:namedview
     pagecolor="#ffffff"
     bordercolor="#666666"
     borderopacity="1"
     objecttolerance="10"
     gridtolerance="10"
     guidetolerance="10"
     inkscape:pageopacity="0"
     inkscape:pageshadow="2"
     inkscape:window-width="1920"
     inkscape:window-height="1029"
     id="namedview9"
     showgrid="true"
     inkscape:zoom="13.85"
     inkscape:cx="48.644192"
     inkscape:cy="154.71664"
     inkscape:window-x="1600"
     inkscape:window-y="25"
     inkscape:window-maximized="1"
     inkscape:current-layer="svg2"
     fit-margin-top="0"
     fit-margin-left="0"
     fit-margin-right="0"
     fit-margin-bottom="0"
     units="mm"
     inkscape:snap-bbox="true"
     inkscape:bbox-paths="true"
     inkscape:bbox-nodes="true"
     inkscape:snap-bbox-edge-midpoints="true"
     inkscape:snap-bbox-midpoints="true"
     inkscape:object-paths="true"
     inkscape:snap-intersection-paths="true"
     inkscape:object-nodes="true"
     inkscape:snap-smooth-nodes="true"
     inkscape:snap-object-midpoints="true"
     inkscape:snap-center="true"
     inkscape:snap-global="true"
     showguides="false"
     inkscape:snap-nodes="true"
     inkscape:snap-midpoints="true"><inkscape:grid
       type="xygrid"
       id="grid4155"
       spacingx="1.7716534"
       spacingy="1.7716534"
       originx="47.800581"
       originy="44.325399" /></sodipodi:namedview><path
     style="color:#000000;clip-rule:nonzero;display:inline;overflow:visible;visibility:visible;opacity:1;isolation:auto;mix-blend-mode:normal;color-interpolation:sRGB;color-interpolation-filters:linearRGB;solid-color:#000000;solid-opacity:1;fill:#800000;fill-opacity:1;fill-rule:evenodd;stroke:#000000;stroke-width:0.23034941;stroke-linecap:butt;stroke-linejoin:miter;stroke-miterlimit:4;stroke-dasharray:none;stroke-dashoffset:0;stroke-opacity:1;color-rendering:auto;image-rendering:auto;shape-rendering:auto;text-rendering:auto;enable-background:accumulate"
     d="m 0.11523438,0.11523438 0,198.19531562 198.19531562,0 0,-198.19531562 z m 3.39401142,3.39401742 191.3385542,0 0,191.3385582 -191.3385542,0 z"
     id="rect4153"
     inkscape:connector-curvature="0"
     sodipodi:nodetypes="cccccccccc" /><!-- Made with the gear generator.  http://woodgears.ca/gear   2017-07-12T17:03:13 --><!-- G1:Toothspacing=47.12  Teeth=-35  Slop=.8  Spur gear  Angle=20.0  Addendum=.1 --><!-- G2:Toothspacing=47.12  Teeth=4  Slop=.8  Spur gear  Angle=20.0  Addendum=.2 --><!-- G2:Toothspacing=47.12  Teeth=4  Slop=.8  Spur gear  Angle=20.0  Addendum=.2 --><path
     style="color:#000000;clip-rule:nonzero;display:inline;overflow:visible;visibility:visible;opacity:1;isolation:auto;mix-blend-mode:normal;color-interpolation:sRGB;color-interpolation-filters:linearRGB;solid-color:#000000;solid-opacity:1;fill:#008080;fill-opacity:1;fill-rule:evenodd;stroke:none;stroke-width:0.12113411;stroke-linecap:butt;stroke-linejoin:miter;stroke-miterlimit:4;stroke-dasharray:none;stroke-dashoffset:0;stroke-opacity:1;color-rendering:auto;image-rendering:auto;shape-rendering:auto;text-rendering:auto;enable-background:accumulate"
     d="m 17.682472,22.997438 0,-3.543307 1.771653,-1.771653 3.543307,0 15.94488,15.94488 1.771653,-3.543307 3.543306,3.543307 0,10.629919 0,-1.1e-5 -10.629919,1.1e-5 -3.543307,-3.543306 3.543307,-1.771653 z"
     id="rect4157"
     inkscape:connector-curvature="0"
     sodipodi:nodetypes="ccccccccccccc" /><path
     style="fill:none;fill-rule:evenodd;stroke:#000000;stroke-width:0.4028275;stroke-linecap:butt;stroke-linejoin:miter;stroke-miterlimit:4;stroke-dasharray:none;stroke-opacity:1"
     d="M 0.14241989,0.14241519 207.10696,207.10695"
     id="path4160"
     inkscape:connector-curvature="0" /><path
     style="fill:#800080;fill-opacity:0.61224491;fill-rule:evenodd;stroke:none;stroke-width:1px;stroke-linecap:butt;stroke-linejoin:miter;stroke-opacity:1"
     d="M 35.399005,-0.0340548 0.11523438,0.11523438 -0.0340608,35.399011 14.139166,21.225785 3.5092458,10.595865 10.595859,3.5092518 21.225779,14.139172 Z"
     id="path4293-6-2"
     inkscape:connector-curvature="0"
     sodipodi:nodetypes="cccccccc" /><path
     style="fill:#800080;fill-opacity:0.61224491;fill-rule:evenodd;stroke:none;stroke-width:1px;stroke-linecap:butt;stroke-linejoin:miter;stroke-opacity:1"
     d="m 150.59054,0 5.31496,0 42.51967,42.519676 0,5.314959 z"
     id="path4293-6-2-9"
     inkscape:connector-curvature="0"
     sodipodi:nodetypes="ccccc" /><path
     style="fill:#800080;fill-opacity:0.61224491;fill-rule:evenodd;stroke:none;stroke-width:1px;stroke-linecap:butt;stroke-linejoin:miter;stroke-opacity:1"
     d="m 47.834635,198.42517 -5.314959,0 L 0,155.9055 0,150.59054 Z"
     id="path4293-6-2-1"
     inkscape:connector-curvature="0"
     sodipodi:nodetypes="ccccc" /><path
     style="fill:#800080;fill-opacity:0.61224491;fill-rule:evenodd;stroke:none;stroke-width:1px;stroke-linecap:butt;stroke-linejoin:miter;stroke-opacity:1"
     d="m 150.59054,198.42517 5.31495,0 42.51968,-42.51966 0,-5.31496 z"
     id="path4293-6-2-1-6"
     inkscape:connector-curvature="0"
     sodipodi:nodetypes="ccccc" /><path
     style="fill:#ff0000;fill-opacity:0.61224491;fill-rule:evenodd;stroke:none;stroke-width:0.09999999;stroke-linecap:butt;stroke-linejoin:miter;stroke-miterlimit:4;stroke-dasharray:none;stroke-opacity:1"
     d="M 24.769085,49.572237 49.572231,24.769091 46.028925,21.225785 21.225779,46.028931 Z"
     id="path4468-6"
     inkscape:connector-curvature="0"
     sodipodi:nodetypes="ccccc" /><path
     style="color:#000000;font-style:normal;font-variant:normal;font-weight:normal;font-stretch:normal;font-size:medium;line-height:normal;font-family:sans-serif;text-indent:0;text-align:start;text-decoration:none;text-decoration-line:none;text-decoration-style:solid;text-decoration-color:#000000;letter-spacing:normal;word-spacing:normal;text-transform:none;direction:ltr;block-progression:tb;writing-mode:lr-tb;baseline-shift:baseline;text-anchor:start;white-space:normal;clip-rule:nonzero;display:inline;overflow:visible;visibility:visible;opacity:1;isolation:auto;mix-blend-mode:normal;color-interpolation:sRGB;color-interpolation-filters:linearRGB;solid-color:#000000;solid-opacity:1;fill:#000000;fill-opacity:1;fill-rule:evenodd;stroke:none;stroke-width:1.59448802;stroke-linecap:butt;stroke-linejoin:round;stroke-miterlimit:4;stroke-dasharray:none;stroke-dashoffset:0;stroke-opacity:1;color-rendering:auto;image-rendering:auto;shape-rendering:auto;text-rendering:auto;enable-background:accumulate"
     d="m -20.000967,-18.487393 -14.125,1.765625 -8.808594,0 -1.771484,0 c -0.342919,1.98e-4 -0.647303,0.219638 -0.755859,0.544922 l -1.589844,4.769531 -0.400391,0 0,-4.517578 c -2.47e-4,-0.439999 -0.356875,-0.796627 -0.796875,-0.796875 l -1.771484,0 c -0.342919,1.98e-4 -0.647303,0.219638 -0.755859,0.544922 l -1.589844,4.769531 -0.400391,0 0,-4.517578 c -2.47e-4,-0.439999 -0.356875,-0.796627 -0.796875,-0.796875 l -1.771484,0 c -0.343638,-6.44e-4 -0.64903,0.218955 -0.757813,0.544922 l -1.589843,4.769531 -0.398438,0 0,-4.517578 c -2.47e-4,-0.439999 -0.356875,-0.796627 -0.796875,-0.796875 l -1.773437,0 c -0.34292,1.98e-4 -0.647304,0.219637 -0.75586,0.544922 l -1.26446,3.109889 -2.630859,-2.630859 c -0.311302,-0.310954 -0.815655,-0.310957 -1.126954,0 l -1.773437,1.771484 c -0.312255,0.311525 -0.312255,0.817381 0,1.128906 l 2.980469,2.9785155 -0.644532,0.644531 -2.978515,-2.9804685 c -0.311525,-0.312256 -0.817382,-0.312256 -1.128907,0 l -1.771484,1.771485 c -0.312255,0.311525 -0.312255,0.8173805 0,1.1289055 l 2.978516,2.980469 -0.642578,0.642578 -2.980469,-2.978515 c -0.311302,-0.310952 -0.815651,-0.310952 -1.126953,0 l -1.771485,1.771484 c -0.310952,0.311302 -0.310952,0.815651 0,1.126953 l 2.978516,2.980469 -0.644531,0.644531 -2.978516,-2.980469 c -0.311302,-0.310952 -0.815651,-0.310952 -1.126953,0 l -1.771484,1.771485 c -0.310952,0.311302 -0.310952,0.815651 0,1.126953 l 2.978515,2.98046804 -0.644531,0.64453196 -2.978516,-2.980469 c -0.311302,-0.310952 -0.815651,-0.310952 -1.126953,0 l -1.771484,1.77148404 c -0.310952,0.311302 -0.310952,0.81565096 0,1.12695296 l 2.978516,2.980469 -0.644532,0.644531 -2.978515,-2.980468 c -0.311302,-0.310952 -0.815651,-0.310952 -1.126953,0 l -1.771485,1.771484 c -0.310952,0.311302 -0.310952,0.815651 0,1.126953 l 7.085938,7.0878915 1.126953,-1.128906 -6.523438,-6.5214855 0.644532,-0.644531 2.980468,2.978516 c 0.311302,0.310952 0.815651,0.310952 1.126953,0 l 1.771485,-1.771485 c 0.310952,-0.311302 0.310952,-0.815651 0,-1.126953 l -2.980469,-2.97851596 0.644531,-0.644531 2.980469,2.97851596 c 0.311302,0.310952 0.815651,0.310952 1.126953,0 l 1.771484,-1.771485 c 0.310952,-0.311302 0.310952,-0.81565096 0,-1.12695296 l -2.980468,-2.97851504 0.644531,-0.644532 2.980469,2.97851604 c 0.311302,0.310952 0.815655,0.310956 1.126953,0 l 1.773437,-1.77148404 c 0.310952,-0.311302 0.310952,-0.815651 0,-1.126953 l -2.980468,-2.980469 0.642578,-0.642578 2.980468,2.978515 c 0.311525,0.312256 0.817382,0.312256 1.128907,0 l 1.771484,-1.771484 c 0.310952,-0.311302 0.310952,-0.815651 0,-1.126953 l -2.978515,-2.980469 0.642578,-0.6425775 2.980468,2.9785155 c 0.311302,0.310953 0.815652,0.310953 1.126954,0 l 1.771484,-1.771485 c 0.312255,-0.311525 0.312255,-0.8173805 0,-1.1289055 l -2.978516,-2.978516 0.644532,-0.644531 2.978515,2.980469 c 0.419386,0.419197 1.133333,0.250216 1.320313,-0.3125 l 1.491022,-3.789577 0.398438,0 0,4.517578 c 2.48e-4,0.440763 0.358067,0.7977065 0.798828,0.7968755 l 1.771484,0 c 0.342921,-1.98e-4 0.647305,-0.2196375 0.75586,-0.5449215 l 1.589843,-4.769532 0.400391,0 0,4.517578 c 2.48e-4,0.44 0.356876,0.7966275 0.796875,0.7968755 l 1.771484,0 c 0.342921,-1.98e-4 0.647305,-0.2196375 0.75586,-0.5449215 l 1.589844,-4.769532 0.40039,0 0,4.517578 c 2.48e-4,0.44 0.356876,0.7966275 0.796875,0.7968755 l 1.771485,0 c 0.34292,-1.98e-4 0.647304,-0.2196375 0.755859,-0.5449215 l 1.589844,-4.769532 1.197265,0 8.859375,0 c 0.03264,4.8e-5 0.06526,-0.0019 0.09766,-0.0059 l 14.173825,-1.771484 z"
     id="path4452"
     inkscape:connector-curvature="0"
     sodipodi:nodetypes="cccccccccccccccccccccccccscccccccccccccccccccccccccccccccccccccccccccccccccscccccccccccccccccccccccccccccccccccccccccc" /><path
     style="color:#000000;clip-rule:nonzero;display:inline;overflow:visible;visibility:visible;opacity:1;isolation:auto;mix-blend-mode:normal;color-interpolation:sRGB;color-interpolation-filters:linearRGB;solid-color:#000000;solid-opacity:1;fill:#ff00ff;fill-opacity:0.57142861;fill-rule:evenodd;stroke:none;stroke-width:1.59448814;stroke-linecap:butt;stroke-linejoin:round;stroke-miterlimit:4;stroke-dasharray:none;stroke-dashoffset:0;stroke-opacity:1;color-rendering:auto;image-rendering:auto;shape-rendering:auto;text-rendering:auto;enable-background:accumulate"
     d="m -131.46609,59.7583 a 98.326783,98.326783 0 0 0 -3.35547,0.0039 l 0,2.695312 0.0469,-0.03906 2.71485,2.316407 2.8457,-2.152344 2.57227,2.470703 2.9668,-1.982422 2.42578,2.615235 3.07617,-1.806641 2.27148,2.751953 3.17578,-1.625 2.10547,2.878906 3.26563,-1.435547 1.93554,2.996094 3.34375,-1.24414 1.75782,3.103515 3.408202,-1.046875 1.57617,3.199219 3.46289,-0.847656 1.38672,3.287109 3.50781,-0.644531 1.19336,3.363281 3.53907,-0.441406 0.99609,3.425781 3.55664,-0.232422 0.79492,3.476563 3.56836,-0.02539 0.58985,3.517578 3.56054,0.179688 0.38477,3.546875 3.54687,0.388672 0.17969,3.5625 3.51563,0.59375 -0.0293,3.568363 3.47656,0.79687 -0.23828,3.5586 3.42383,0.99804 -0.44141,3.53906 3.35938,1.19727 -0.64649,3.50586 3.28516,1.39062 -0.85156,3.4629 3.19726,1.57812 -1.05078,3.4082 3.10352,1.76172 -1.24805,3.33985 2.99414,1.93945 -1.43945,3.26367 2.87695,2.10938 -1.62891,3.17382 2.75,2.27344 -1.80859,3.07422 2.61133,2.42773 -1.98438,2.96485 2.4668,2.57617 -2.1543,2.84375 2.31446,2.71484 -2.31641,2.71485 2.15039,2.8457 -2.46875,2.57227 1.98242,2.9668 -2.61719,2.42578 1.8086,3.07617 -2.75391,2.27148 1.625,3.17578 -2.8789,2.10547 1.4375,3.26563 -2.9961,1.93554 1.24414,3.34375 -3.10351,1.75782 1.04687,3.4082 -3.19922,1.57617 0.84571,3.46289 -3.28516,1.38672 0.64453,3.50781 -3.36328,1.19336 0.44141,3.53907 -3.42774,0.99609 0.23438,3.55664 -3.47657,0.79492 0.0234,3.56836 -3.51758,0.58985 -0.18164,3.56054 -3.54492,0.38477 -0.38867,3.54687 -3.5625,0.17969 -0.59375,3.51563 -3.56641,-0.0293 -0.79883,3.47656 -3.55859,-0.23828 -0.99805,3.42383 -3.53906,-0.44141 -1.19531,3.35938 -3.50977,-0.64649 -1.38672,3.28516 -3.46484,-0.85156 -1.57812,3.19726 -3.408212,-1.05078 -1.75976,3.10352 -3.34375,-1.24805 -1.93555,2.99414 -3.26562,-1.44141 -2.10743,2.87891 -3.17578,-1.62891 -2.27344,2.75 -3.07421,-1.80859 -2.42774,2.61133 -2.96484,-1.98438 -2.57617,2.4668 -2.84375,-2.1543 -2.7168,2.31446 -2.71289,-2.31641 -2.84571,2.15039 -2.57422,-2.46875 -2.96484,1.98242 -2.42773,-2.61719 -3.07618,1.8086 -2.26757,-2.75391 -3.17774,1.625 -2.10742,-2.8789 -3.26367,1.4375 -1.93555,-2.9961 -3.3418,1.24414 -1.75781,-3.10351 -3.41015,1.04687 -1.57422,-3.19922 -3.4668,0.84571 -1.38477,-3.28516 -3.50781,0.64453 -1.1914,-3.36328 -3.53907,0.44141 -0.99609,-3.42774 -3.56055,0.23438 -0.79297,-3.47657 -3.5664,0.0234 -0.58985,-3.51758 -3.5625,-0.18164 -0.38671,-3.54492 -3.54493,-0.38867 -0.17773,-3.5625 -3.51563,-0.59375 0.0293,-3.56641 -3.47656,-0.79883 0.23633,-3.55859 -3.42578,-0.99805 0.44531,-3.53906 -3.36328,-1.19531 0.65039,-3.50977 -3.28711,-1.38672 0.85351,-3.46484 -3.20117,-1.57812 1.05078,-3.40821 -3.10156,-1.75976 1.24805,-3.34375 -2.99414,-1.93555 1.43945,-3.26562 -2.87695,-2.10743 1.62695,-3.17578 -2.74805,-2.27344 1.81055,-3.07421 -2.61328,-2.42774 1.98437,-2.96484 -2.46679,-2.57617 2.15429,-2.84375 -2.13281,-2.50391 -2.83398,0 a 98.326783,98.326783 0 0 0 0.004,3.44141 98.326783,98.326783 0 0 0 101.86329,94.65625 A 98.326783,98.326783 0 0 0 -36.561698,154.42428 98.326783,98.326783 0 0 0 -131.466,59.758268 Z"
     id="path4156"
     inkscape:connector-curvature="0" /><circle
     style="color:#000000;clip-rule:nonzero;display:inline;overflow:visible;visibility:visible;opacity:1;isolation:auto;mix-blend-mode:normal;color-interpolation:sRGB;color-interpolation-filters:linearRGB;solid-color:#000000;solid-opacity:1;fill:#ff00ff;fill-opacity:0.57142861;fill-rule:evenodd;stroke:none;stroke-width:1.59448814;stroke-linecap:butt;stroke-linejoin:round;stroke-miterlimit:4;stroke-dasharray:none;stroke-dashoffset:0;stroke-opacity:1;color-rendering:auto;image-rendering:auto;shape-rendering:auto;text-rendering:auto;enable-background:accumulate"
     id="path4156-3"
     cx="348.98166"
     cy="100.95017"
     r="98.326744" /><path
     sodipodi:type="star"
     style="color:#000000;clip-rule:nonzero;display:inline;overflow:visible;visibility:visible;opacity:1;isolation:auto;mix-blend-mode:normal;color-interpolation:sRGB;color-interpolation-filters:linearRGB;solid-color:#000000;solid-opacity:1;fill:#0000ff;fill-opacity:0.57142861;fill-rule:evenodd;stroke:none;stroke-width:1.59448814;stroke-linecap:butt;stroke-linejoin:round;stroke-miterlimit:4;stroke-dasharray:none;stroke-dashoffset:0;stroke-opacity:1;color-rendering:auto;image-rendering:auto;shape-rendering:auto;text-rendering:auto;enable-background:accumulate"
     id="path4154-6"
     sodipodi:sides="30"
     sodipodi:cx="339.00278"
     sodipodi:cy="99.212578"
     sodipodi:r1="95.669274"
     sodipodi:r2="89.378647"
     sodipodi:arg1="-1.553343"
     sodipodi:arg2="-1.4467618"
     inkscape:flatsided="false"
     inkscape:rounded="0"
     inkscape:randomized="0"
     d="m 340.67244,3.5578754 9.38797,6.9627006 10.46327,-4.5252735 7.7352,8.7624175 11.17548,-2.250948 5.74436,10.179175 11.39927,0.121754 3.50245,11.151054 11.12486,2.489135 1.10748,11.635578 10.36423,4.747729 -1.33589,11.611572 9.15064,6.798823 -3.72088,11.080085 7.53712,8.552778 -5.94325,10.064345 5.5942,9.93293 -7.90587,8.60875 3.40677,10.87897 -9.52296,6.7769 1.07046,11.34955 -10.72386,4.64887 -1.31264,11.3241 -11.45607,2.31766 -3.63836,10.80373 -11.68761,-0.11483 -5.80507,9.81118 -11.40833,-2.54231 -7.71808,8.38984 -10.63045,-4.85868 -9.29377,6.60182 -9.38797,-6.9627 -10.46327,4.52527 -7.7352,-8.76241 -11.17548,2.25094 -5.74435,-10.17917 -11.39927,-0.12176 -3.50246,-11.15105 -11.12485,-2.48913 -1.10749,-11.63558 -10.36423,-4.74773 1.33589,-11.61157 -9.15063,-6.79883 3.72087,-11.08008 -7.53712,-8.55278 5.94325,-10.064343 -5.59419,-9.932934 7.90587,-8.608743 -3.40678,-10.878974 9.52297,-6.776899 -1.07046,-11.34955 10.72386,-4.648873 1.31263,-11.324096 11.45608,-2.317667 3.63836,-10.803726 11.6876,0.114831 5.80508,-9.81118 11.40832,2.542311 7.71808,-8.3898392 10.63045,4.8586792 z"
     transform="matrix(0.99984769,-0.01745242,0.01745242,0.99984769,8.2989943,7.6691303)" /><rect
     style="color:#000000;clip-rule:nonzero;display:inline;overflow:visible;visibility:visible;opacity:1;isolation:auto;mix-blend-mode:normal;color-interpolation:sRGB;color-interpolation-filters:linearRGB;solid-color:#000000;solid-opacity:1;fill:#ff00ff;fill-opacity:0.57142861;fill-rule:evenodd;stroke:none;stroke-width:1.59448814;stroke-linecap:butt;stroke-linejoin:round;stroke-miterlimit:4;stroke-dasharray:none;stroke-dashoffset:0;stroke-opacity:1;color-rendering:auto;image-rendering:auto;shape-rendering:auto;text-rendering:auto;enable-background:accumulate"
     id="rect4177-5"
     width="106.29917"
     height="106.29919"
     x="232.8502"
     y="-24.132084" /><path
     inkscape:connector-curvature="0"
     style="color:#000000;clip-rule:nonzero;display:inline;overflow:visible;visibility:visible;opacity:1;isolation:auto;mix-blend-mode:normal;color-interpolation:sRGB;color-interpolation-filters:linearRGB;solid-color:#000000;solid-opacity:1;fill:#ff00ff;fill-opacity:0.57142861;fill-rule:evenodd;stroke:none;stroke-width:1.59448814;stroke-linecap:butt;stroke-linejoin:round;stroke-miterlimit:4;stroke-dasharray:none;stroke-dashoffset:0;stroke-opacity:1;color-rendering:auto;image-rendering:auto;shape-rendering:auto;text-rendering:auto;enable-background:accumulate"
     d="m 99.211605,0.8866356 a 98.326756,98.326756 0 0 0 -9.83203,0.494141 l 0,3.3125 0.60742,-0.642578 5.79493,4.017577 5.314455,-4.445312 5.28906,4.664062 5.79492,-3.798827 4.71289,5.246093 6.19727,-3.101562 4.07225,5.7597644 6.51368,-2.361327 3.375,6.193357 6.74609,-1.589843 2.63281,6.542968 6.88282,-0.794922 1.85742,6.804687 6.92968,0.0098 1.05274,6.972655 6.88281,0.814453 0.23633,7.048827 6.74023,1.607422 -0.58203,7.029296 6.50782,2.378906 -1.39454,6.914062 6.1875,3.117187 -2.1875,6.705077 5.78321,3.816405 -2.95117,6.40625 5.30273,4.460937 -3.67578,6.01953 4.74805,5.046875 -4.34961,5.552734 4.13086,5.5625 -4.96485,5.01172 3.45703,6.00391 -5.51367,4.40039 2.73633,6.36717 -5.98633,3.72852 1.97852,6.64062 -6.37891,3.01172 1.19336,6.82422 -6.68359,2.25 0.39257,6.91797 -6.90039,1.45703 -0.41211,6.91797 -7.02343,0.64648 -1.21289,6.82227 -7.05079,-0.17383 -1.99609,6.63477 -6.98437,-0.99024 -2.75196,6.35937 -6.82226,-1.79491 -3.47266,5.99608 -6.56639,-2.57422 -4.14454,5.55274 -6.22461,-3.31836 -4.76171,5.0332 -5.79493,-4.01953 -5.314455,4.44726 -5.29102,-4.66406 -5.79296,3.79883 -4.71289,-5.24609 -6.19727,3.09961 -4.07227,-5.75782 -6.51367,2.36133 -3.374994,-6.19335 -6.746089,1.58789 -2.63281,-6.54297 -6.884769,0.79493 -1.85547,-6.80274 -6.929689,-0.01 -1.05468,-6.97461 -6.880859,-0.81446 -0.23633,-7.04883 -6.740239,-1.60742 0.582039,-7.02734 -6.507819,-2.37891 1.39454,-6.91406 -6.1875,-3.11914 2.187501,-6.70508 -5.7832099,-3.81444 2.9511689,-6.40625 -5.3027289,-4.46094 3.67578,-6.01953 -4.74805,-5.04688 4.34961,-5.552729 -4.13086,-5.564453 4.96485,-5.009765 -3.45703,-6.00586 0.41211,-0.328123 -3.03321,0 A 98.326756,98.326756 0 0 0 0.8854481,99.21259 98.326756,98.326756 0 0 0 99.211605,197.53874 98.326756,98.326756 0 0 0 197.53973,99.21259 98.326756,98.326756 0 0 0 99.211605,0.8864296 Z"
     id="path4156-3-6" /><path
     style="fill:none;fill-rule:evenodd;stroke:#000000;stroke-width:3.54330659;stroke-linecap:butt;stroke-linejoin:round;stroke-miterlimit:4;stroke-dasharray:none;stroke-opacity:1"
     d="m -151.86428,4.308833 8.85827,-7.086612 1.77165,-3.543306 -5.31496,0 0,-5.31496 7.08661,0 0,-1.771652 -5.31496,-5.31496 12.40157,-8.858266 1.77166,1.771654 -3.54331,10.629918 5.31496,5.314959"
     id="path4404-2"
     inkscape:connector-curvature="0"
     sodipodi:nodetypes="cccccccccccc" /><path
     style="fill:none;fill-rule:evenodd;stroke:#000000;stroke-width:3.54330659;stroke-linecap:butt;stroke-linejoin:round;stroke-miterlimit:4;stroke-dasharray:none;stroke-opacity:1"
     d="m -89.856423,-57.699023 -7.086611,8.858265 -3.543306,1.771654 0,-5.314961 -5.31496,0 0,7.086613 -1.77165,0 -5.31496,-5.31496 -8.85827,12.401572 1.77166,1.771652 10.62991,-3.543305 5.31496,5.314958"
     id="path4404-3-9"
     inkscape:connector-curvature="0"
     sodipodi:nodetypes="cccccccccccc" /><circle
     style="color:#000000;clip-rule:nonzero;display:inline;overflow:visible;visibility:visible;opacity:1;isolation:auto;mix-blend-mode:normal;color-interpolation:sRGB;color-interpolation-filters:linearRGB;solid-color:#000000;solid-opacity:1;fill:#ff00ff;fill-opacity:0.57142861;fill-rule:evenodd;stroke:none;stroke-width:1.59448814;stroke-linecap:butt;stroke-linejoin:round;stroke-miterlimit:4;stroke-dasharray:none;stroke-dashoffset:0;stroke-opacity:1;color-rendering:auto;image-rendering:auto;shape-rendering:auto;text-rendering:auto;enable-background:accumulate"
     id="path4156-3-1"
     cx="348.98166"
     cy="100.95017"
     r="89.468491" /><path
     style="fill:none;fill-rule:evenodd;stroke:#000000;stroke-width:2.48031473;stroke-linecap:butt;stroke-linejoin:round;stroke-miterlimit:4;stroke-dasharray:none;stroke-opacity:1"
     d="m 22.997432,47.800584 24.803146,-24.803146 -21.259839,8.858266 -17.7165332,32.39303 0,-5.314959 7.0866102,0 0,-1.771652 -5.31496,-5.314959 8.858263,-4.046581 1.77166,1.771654 -3e-6,5.818232 5.31496,5.314959"
     id="path4404-2-2"
     inkscape:connector-curvature="0"
     sodipodi:nodetypes="cccccccccccc" /><path
     style="color:#000000;clip-rule:nonzero;display:inline;overflow:visible;visibility:visible;opacity:1;isolation:auto;mix-blend-mode:normal;color-interpolation:sRGB;color-interpolation-filters:linearRGB;solid-color:#000000;solid-opacity:1;fill:#ff00ff;fill-opacity:0.57142861;fill-rule:evenodd;stroke:none;stroke-width:1.59448814;stroke-linecap:butt;stroke-linejoin:round;stroke-miterlimit:4;stroke-dasharray:none;stroke-dashoffset:0;stroke-opacity:1;color-rendering:auto;image-rendering:auto;shape-rendering:auto;text-rendering:auto;enable-background:accumulate"
     d="M 619.10742 30.154297 A 98.326753 98.326753 0 0 0 609.27539 30.648438 L 609.27539 39.291016 L 609.92969 39.576172 L 619.10742 32.8125 L 628.61523 39.609375 L 638.99805 34.902344 L 646.88477 43.529297 L 658.01953 41.083984 L 663.94141 51.160156 L 675.33984 51.083984 L 679.03711 62.171875 L 690.20312 64.466797 L 691.51367 76.080078 L 701.95898 80.646484 L 700.82617 92.28125 L 710.09375 98.917969 L 706.56836 110.0625 L 714.25195 118.48242 L 708.48633 128.64844 L 714.25195 138.48242 L 706.49805 147.22656 L 710.09375 158.04492 L 700.69141 164.98633 L 701.95898 176.31641 L 691.31836 181.15234 L 690.20312 192.49609 L 678.78906 195.01367 L 675.33984 205.87891 L 663.65234 205.96875 L 658.01953 215.88086 L 646.56836 213.53711 L 638.99805 222.06055 L 628.28516 217.38867 L 619.10742 224.15039 L 609.59961 217.35352 L 599.2168 222.06055 L 591.33008 213.43359 L 580.19531 215.88086 L 574.27344 205.80273 L 562.875 205.87891 L 559.17773 194.79102 L 548.01172 192.49609 L 546.70117 180.88281 L 536.25586 176.31641 L 537.38867 164.68359 L 528.12109 158.04492 L 531.64844 146.90234 L 523.96289 138.48242 L 529.72852 128.31445 L 523.96289 118.48242 L 531.7168 109.73633 L 531.70508 109.69922 L 522.67578 109.69922 A 98.326753 98.326753 0 0 0 520.78125 128.48242 A 98.326753 98.326753 0 0 0 619.10742 226.80859 A 98.326753 98.326753 0 0 0 717.43359 128.48242 A 98.326753 98.326753 0 0 0 619.10742 30.154297 z "
     id="path4156-3-60" /></svg>