  0
SECTION
  2
HEADER
  9
$ACADVER
  1
AC1014
  9
$HANDSEED
  5
FFFF
  9
$MEASUREMENT
 70
     1
  0
ENDSEC
  0
SECTION
  2
TABLES
  0
TABLE
  2
VPORT
  5
8
330
0
100
AcDbSymbolTable
 70
     4
  0
VPORT
  5
2E
330
8
100
AcDbSymbolTableRecord
100
AcDbViewportTableRecord
  2
*ACTIVE
 70
     0
 10
0.0
 20
0.0
 11
1.0
 21
1.0
 12
210.0
 22
148.5
 13
0.0
 23
0.0
 14
10.0
 24
10.0
 15
10.0
 25
10.0
 16
0.0
 26
0.0
 36
1.0
 17
0.0
 27
0.0
 37
0.0
 40
341.0
 41
1.24
 42
50.0
 43
0.0
 44
0.0
 50
0.0
 51
0.0
 71
     0
 72
   100
 73
     1
 74
     3
 75
     0
 76
     0
 77
     0
 78
     0
  0
ENDTAB
  0
TABLE
  2
LTYPE
  5
5
330
0
100
AcDbSymbolTable
 70
     1
  0
LTYPE
  5
14
330
5
100
AcDbSymbolTableRecord
100
AcDbLinetypeTableRecord
  2
BYBLOCK
 70
     0
  3

 72
    65
 73
     0
 40
0.0
  0
LTYPE
  5
15
330
5
100
AcDbSymbolTableRecord
100
AcDbLinetypeTableRecord
  2
BYLAYER
 70
     0
  3

 72
    65
 73
     0
 40
0.0
  0
LTYPE
  5
16
330
5
100
AcDbSymbolTableRecord
100
AcDbLinetypeTableRecord
  2
CONTINUOUS
 70
     0
  3
Solid line
 72
    65
 73
     0
 40
0.0
  0
ENDTAB
  0
TABLE
  2
LAYER
  5
2
100
AcDbSymbolTable
 70
1
  0
LAYER
  5
50
100
AcDbSymbolTableRecord
100
AcDbLayerTableRecord
  2
0
 70
0
  6
CONTINUOUS
  0
ENDTAB
  0
TABLE
  2
STYLE
  5
3
330
0
100
AcDbSymbolTable
 70
     1
  0
STYLE
  5
11
330
3
100
AcDbSymbolTableRecord
100
AcDbTextStyleTableRecord
  2
STANDARD
 70
     0
 40
0.0
 41
1.0
 50
0.0
 71
     0
 42
2.5
  3
txt
  4

  0
ENDTAB
  0
TABLE
  2
VIEW
  5
6
330
0
100
AcDbSymbolTable
 70
     0
  0
ENDTAB
  0
TABLE
  2
UCS
  5
7
330
0
100
AcDbSymbolTable
 70
     0
  0
ENDTAB
  0
TABLE
  2
APPID
  5
9
330
0
100
AcDbSymbolTable
 70
     2
  0
APPID
  5
12
330
9
100
AcDbSymbolTableRecord
100
AcDbRegAppTableRecord
  2
ACAD
 70
     0
  0
ENDTAB
  0
TABLE
  2
DIMSTYLE
  5
A
330
0
100
AcDbSymbolTable
 70
     1
  0
DIMSTYLE
105
27
330
A
100
AcDbSymbolTableRecord
100
AcDbDimStyleTableRecord
  2
ISO-25
 70
     0
  3

  4

  5

  6

  7

 40
1.0
 41
2.5
 42
0.625
 43
3.75
 44
1.25
 45
0.0
 46
0.0
 47
0.0
 48
0.0
140
2.5
141
2.5
142
0.0
143
0.03937007874016
144
1.0
145
0.0
146
1.0
147
0.625
 71
     0
 72
     0
 73
     0
 74
     0
 75
     0
 76
     0
 77
     1
 78
     8
170
     0
171
     3
172
     1
173
     0
174
     0
175
     0
176
     0
177
     0
178
     0
270
     2
271
     2
272
     2
273
     2
274
     3
340
11
275
     0
280
     0
281
     0
282
     0
283
     0
284
     8
285
     0
286
     0
287
     3
288
     0
  0
ENDTAB
  0
TABLE
  2
BLOCK_RECORD
  5
1
330
0
100
AcDbSymbolTable
 70
     1
  0
BLOCK_RECORD
  5
1F
330
1
100
AcDbSymbolTableRecord
100
AcDbBlockTableRecord
  2
*MODEL_SPACE
  0
BLOCK_RECORD
  5
1B
330
1
100
AcDbSymbolTableRecord
100
AcDbBlockTableRecord
  2
*PAPER_SPACE
  0
ENDTAB
  0
ENDSEC
  0
SECTION
  2
BLOCKS
  0
BLOCK
  5
20
330
1F
100
AcDbEntity
  8
0
100
AcDbBlockBegin
  2
*MODEL_SPACE
 70
     0
 10
0.0
 20
0.0
 30
0.0
  3
*MODEL_SPACE
  1

  0
ENDBLK
  5
21
330
1F
100
AcDbEntity
  8
0
100
AcDbBlockEnd
  0
BLOCK
  5
1C
330
1B
100
AcDbEntity
 67
     1
  8
0
100
AcDbBlockBegin
  2
*PAPER_SPACE
  1

  0
ENDBLK
  5
1D
330
1B
100
AcDbEntity
 67
     1
  8
0
100
AcDbBlockEnd
  0
ENDSEC
  0
SECTION
  2
ENTITIES
  0
LWPOLYLINE
  5
100
100
AcDbEntity
  8
0
 62
7
100
AcDbPolyline
 90
185
 70
1
 10
0.430389
 20
0.988342
 30
0.0
 10
0.415995
 20
0.982416
 30
0.0
 10
0.401602
 20
0.978465
 30
0.0
 10
0.386644
 20
0.975642
 30
0.0
 10
0.371687
 20
0.973949
 30
0.0
 10
0.340924
 20
0.973385
 30
0.0
 10
0.310444
 20
0.972538
 30
0.0
 10
0.283633
 20
0.953629
 30
0.0
 10
0.257669
 20
0.931898
 30
0.0
 10
0.232833
 20
0.907345
 30
0.0
 10
0.208844
 20
0.879969
 30
0.0
 10
0.186267
 20
0.850336
 30
0.0
 10
0.164818
 20
0.818445
 30
0.0
 10
0.144498
 20
0.784296
 30
0.0
 10
0.125871
 20
0.748171
 30
0.0
 10
0.108938
 20
0.709789
 30
0.0
 10
0.097367
 20
0.679873
 30
0.0
 10
0.177518
 20
0.530013
 30
0.0
 10
0.278835
 20
0.393700
 30
0.0
 10
0.311009
 20
0.391442
 30
0.0
 10
0.352778
 20
0.390596
 30
0.0
 10
0.393700
 20
0.392007
 30
0.0
 10
0.432929
 20
0.395676
 30
0.0
 10
0.471029
 20
0.401602
 30
0.0
 10
0.507435
 20
0.409505
 30
0.0
 10
0.542149
 20
0.419382
 30
0.0
 10
0.575169
 20
0.431518
 30
0.0
 10
0.605931
 20
0.445629
 30
0.0
 10
0.634435
 20
0.461998
 30
0.0
 10
0.648264
 20
0.489373
 30
0.0
 10
0.661811
 20
0.516749
 30
0.0
 10
0.669713
 20
0.529731
 30
0.0
 10
0.678744
 20
0.541867
 30
0.0
 10
0.688622
 20
0.553438
 30
0.0
 10
0.699629
 20
0.563598
 30
0.0
 10
0.706120
 20
0.568396
 30
0.0
 10
0.712893
 20
0.572629
 30
0.0
 10
0.720795
 20
0.576016
 30
0.0
 10
0.730391
 20
0.578556
 30
0.0
 10
0.748735
 20
0.574605
 30
0.0
 10
0.992293
 20
0.467925
 30
0.0
 10
1.258147
 20
0.460869
 30
0.0
 10
1.276491
 20
0.456353
 30
0.0
 10
1.283829
 20
0.450145
 30
0.0
 10
1.289473
 20
0.443653
 30
0.0
 10
1.293989
 20
0.436880
 30
0.0
 10
1.297658
 20
0.430107
 30
0.0
 10
1.303584
 20
0.415996
 30
0.0
 10
1.307535
 20
0.401320
 30
0.0
 10
1.310358
 20
0.386645
 30
0.0
 10
1.312051
 20
0.371405
 30
0.0
 10
1.312615
 20
0.340642
 30
0.0
 10
1.313462
 20
0.310162
 30
0.0
 10
1.332371
 20
0.283351
 30
0.0
 10
1.354102
 20
0.257387
 30
0.0
 10
1.378655
 20
0.232551
 30
0.0
 10
1.406031
 20
0.208562
 30
0.0
 10
1.435664
 20
0.185985
 30
0.0
 10
1.467555
 20
0.164536
 30
0.0
 10
1.501704
 20
0.144498
 30
0.0
 10
1.537829
 20
0.125871
 30
0.0
 10
1.576211
 20
0.108656
 30
0.0
 10
1.606127
 20
0.097085
 30
0.0
 10
1.755987
 20
0.177236
 30
0.0
 10
1.892300
 20
0.278553
 30
0.0
 10
1.894558
 20
0.310727
 30
0.0
 10
1.895404
 20
0.352496
 30
0.0
 10
1.893993
 20
0.393418
 30
0.0
 10
1.890324
 20
0.432929
 30
0.0
 10
1.884398
 20
0.470747
 30
0.0
 10
1.876495
 20
0.507436
 30
0.0
 10
1.866618
 20
0.542149
 30
0.0
 10
1.854482
 20
0.574887
 30
0.0
 10
1.840371
 20
0.605649
 30
0.0
 10
1.824002
 20
0.634153
 30
0.0
 10
1.796627
 20
0.647982
 30
0.0
 10
1.769251
 20
0.661529
 30
0.0
 10
1.756269
 20
0.669431
 30
0.0
 10
1.744133
 20
0.678462
 30
0.0
 10
1.732562
 20
0.688340
 30
0.0
 10
1.722402
 20
0.699629
 30
0.0
 10
1.717604
 20
0.705838
 30
0.0
 10
1.713371
 20
0.712611
 30
0.0
 10
1.709984
 20
0.720513
 30
0.0
 10
1.707444
 20
0.730109
 30
0.0
 10
1.711395
 20
0.748453
 30
0.0
 10
1.818075
 20
0.992011
 30
0.0
 10
1.825131
 20
1.257865
 30
0.0
 10
1.829647
 20
1.276209
 30
0.0
 10
1.835855
 20
1.283829
 30
0.0
 10
1.842347
 20
1.289191
 30
0.0
 10
1.849120
 20
1.293707
 30
0.0
 10
1.855893
 20
1.297376
 30
0.0
 10
1.870004
 20
1.303302
 30
0.0
 10
1.884680
 20
1.307253
 30
0.0
 10
1.899355
 20
1.310076
 30
0.0
 10
1.914595
 20
1.311769
 30
0.0
 10
1.945358
 20
1.312333
 30
0.0
 10
1.975838
 20
1.313180
 30
0.0
 10
2.002649
 20
1.332089
 30
0.0
 10
2.028613
 20
1.353820
 30
0.0
 10
2.053449
 20
1.378656
 30
0.0
 10
2.077438
 20
1.405749
 30
0.0
 10
2.100015
 20
1.435382
 30
0.0
 10
2.121464
 20
1.467273
 30
0.0
 10
2.141502
 20
1.501422
 30
0.0
 10
2.160129
 20
1.537547
 30
0.0
 10
2.177344
 20
1.575929
 30
0.0
 10
2.188915
 20
1.605845
 30
0.0
 10
2.108764
 20
1.755705
 30
0.0
 10
2.007447
 20
1.892018
 30
0.0
 10
1.975273
 20
1.894276
 30
0.0
 10
1.933504
 20
1.895122
 30
0.0
 10
1.892582
 20
1.893711
 30
0.0
 10
1.853071
 20
1.890042
 30
0.0
 10
1.815253
 20
1.884116
 30
0.0
 10
1.778564
 20
1.876213
 30
0.0
 10
1.743851
 20
1.866336
 30
0.0
 10
1.711113
 20
1.854200
 30
0.0
 10
1.680351
 20
1.840089
 30
0.0
 10
1.651847
 20
1.823720
 30
0.0
 10
1.638018
 20
1.796627
 30
0.0
 10
1.624471
 20
1.768969
 30
0.0
 10
1.616569
 20
1.755987
 30
0.0
 10
1.607538
 20
1.743851
 30
0.0
 10
1.597660
 20
1.732280
 30
0.0
 10
1.586371
 20
1.722120
 30
0.0
 10
1.580162
 20
1.717322
 30
0.0
 10
1.573389
 20
1.713089
 30
0.0
 10
1.565487
 20
1.709702
 30
0.0
 10
1.555891
 20
1.707162
 30
0.0
 10
1.537547
 20
1.711113
 30
0.0
 10
1.293989
 20
1.818076
 30
0.0
 10
1.028135
 20
1.824849
 30
0.0
 10
1.009791
 20
1.829365
 30
0.0
 10
1.002171
 20
1.835573
 30
0.0
 10
0.996809
 20
1.842065
 30
0.0
 10
0.992293
 20
1.848838
 30
0.0
 10
0.988624
 20
1.855611
 30
0.0
 10
0.982698
 20
1.870005
 30
0.0
 10
0.978747
 20
1.884398
 30
0.0
 10
0.975924
 20
1.899356
 30
0.0
 10
0.974231
 20
1.914313
 30
0.0
 10
0.973667
 20
1.945076
 30
0.0
 10
0.972820
 20
1.975556
 30
0.0
 10
0.953911
 20
2.002367
 30
0.0
 10
0.932180
 20
2.028331
 30
0.0
 10
0.907344
 20
2.053167
 30
0.0
 10
0.880251
 20
2.077156
 30
0.0
 10
0.850618
 20
2.099733
 30
0.0
 10
0.818727
 20
2.121182
 30
0.0
 10
0.784578
 20
2.141502
 30
0.0
 10
0.748453
 20
2.160129
 30
0.0
 10
0.710071
 20
2.177062
 30
0.0
 10
0.680155
 20
2.188633
 30
0.0
 10
0.530295
 20
2.108482
 30
0.0
 10
0.393982
 20
2.007165
 30
0.0
 10
0.391724
 20
1.974991
 30
0.0
 10
0.390878
 20
1.933222
 30
0.0
 10
0.392289
 20
1.892300
 30
0.0
 10
0.395958
 20
1.853071
 30
0.0
 10
0.401884
 20
1.814971
 30
0.0
 10
0.409787
 20
1.778565
 30
0.0
 10
0.419664
 20
1.743851
 30
0.0
 10
0.431800
 20
1.710831
 30
0.0
 10
0.445911
 20
1.680069
 30
0.0
 10
0.462280
 20
1.651565
 30
0.0
 10
0.489373
 20
1.637736
 30
0.0
 10
0.517031
 20
1.624189
 30
0.0
 10
0.530013
 20
1.616287
 30
0.0
 10
0.542149
 20
1.607256
 30
0.0
 10
0.553720
 20
1.597378
 30
0.0
 10
0.563880
 20
1.586371
 30
0.0
 10
0.568678
 20
1.579880
 30
0.0
 10
0.572911
 20
1.573107
 30
0.0
 10
0.576298
 20
1.565205
 30
0.0
 10
0.578838
 20
1.555609
 30
0.0
 10
0.574887
 20
1.537265
 30
0.0
 10
0.467924
 20
1.293707
 30
0.0
 10
0.461151
 20
1.027853
 30
0.0
 10
0.456635
 20
1.009509
 30
0.0
 10
0.450427
 20
1.002171
 30
0.0
 10
0.443935
 20
0.996527
 30
0.0
 10
0.437162
 20
0.992011
 30
0.0
 10
0.430389
 20
0.988342
 30
0.0
  0
ENDSEC
  0
SECTION
  2
OBJECTS
  0
DICTIONARY
  5
C
330
0
100
AcDbDictionary
  3
ACAD_GROUP
350
D
  3
ACAD_MLINESTYLE
350
17
  0
DICTIONARY
  5
D
330
C
100
AcDbDictionary
  0
DICTIONARY
  5
1A
330
C
100
AcDbDictionary
  0
DICTIONARY
  5
17
330
C
100
AcDbDictionary
  3
STANDARD
350
18
  0
DICTIONARY
  5
19
330
C
100
AcDbDictionary
  0
ENDSEC
  0
EOF
