<?xml version="1.0" encoding="ISO-8859-1" standalone="no"?>
<!DOCTYPE svg PUBLIC "-//W3C//DTD SVG 1.1//EN"
    "http://www.w3.org/Graphics/SVG/1.1/DTD/svg11.dtd">
<svg xmlns="http://www.w3.org/2000/svg"
     xmlns:xlink="http://www.w3.org/1999/xlink" xml:space="preserve"
         width="620px" height="620px"
         viewBox="0 0 620 620"
         zoomAndPan="disable" preserveAspectRatio="none" >
<!-- Made with the gear generator.  http://woodgears.ca/gear   2017-07-12T17:03:13 -->
<!-- G1:Toothspacing=47.12  Teeth=-35  Slop=.8  Spur gear  Angle=20.0  Addendum=.1 -->
<!-- G2:Toothspacing=47.12  Teeth=4  Slop=.8  Spur gear  Angle=20.0  Addendum=.2 -->
<!-- G2:Toothspacing=47.12  Teeth=4  Slop=.8  Spur gear  Angle=20.0  Addendum=.2 -->
<polygon id="G1Gear" data-id="0" class="gear" fill="none" fill-opacity="0.2" stroke="#000"  stroke-miterlimit="10"
points =" 51.08 312.59 50.41 312.81 49.75 313.04 48.42 313.51 45.77 314.53 43.12 315.64 40.48 316.83 37.84 318.11
 35.22 319.47 36.24 335.22 39.02 336.24 41.79 337.17 44.57 338.01 47.33 338.77 50.1 339.44 51.47 339.74
 52.16 339.88 52.85 340.01 55.76 358.71 55.15 359.04 54.53 359.38 53.31 360.09 50.88 361.56 48.47 363.13
 46.09 364.78 43.73 366.51 41.39 368.31 45.2 383.63 48.12 384.13 51.01 384.55 53.89 384.88 56.75 385.14
 59.59 385.3 61 385.35 61.7 385.36 62.4 385.37 68.6 403.25 68.06 403.69 67.52 404.13 66.44 405.04
 64.31 406.93 62.22 408.9 60.17 410.95 58.16 413.07 56.18 415.27 62.67 429.65 65.62 429.62 68.55 429.52
 71.44 429.34 74.3 429.08 77.12 428.73 78.52 428.52 79.21 428.41 79.9 428.3 89.19 444.78 88.74 445.31
 88.28 445.84 87.38 446.93 85.63 449.17 83.93 451.48 82.27 453.86 80.67 456.31 79.11 458.82 88.07 471.82
 90.97 471.26 93.83 470.64 96.65 469.94 99.41 469.17 102.12 468.33 103.46 467.88 104.12 467.65 104.78 467.41
 116.87 481.97 116.51 482.57 116.16 483.18 115.47 484.41 114.15 486.92 112.88 489.5 111.68 492.14 110.54 494.83
 109.46 497.58 120.59 508.77 123.35 507.71 126.05 506.58 128.69 505.39 131.28 504.14 133.8 502.83 135.03 502.15
 135.64 501.8 136.25 501.45 150.74 513.61 150.5 514.27 150.26 514.93 149.8 516.27 148.94 518.97 148.16 521.74
 147.45 524.55 146.81 527.4 146.24 530.3 159.19 539.33 161.71 537.79 164.17 536.19 166.56 534.55 168.88 532.86
 171.12 531.12 172.21 530.23 172.75 529.78 173.28 529.32 189.72 538.71 189.6 539.4 189.48 540.09 189.27 541.48
 188.91 544.3 188.63 547.16 188.43 550.05 188.31 552.98 188.27 555.93 202.62 562.5 204.83 560.53 206.96 558.53
 209.02 556.49 211 554.41 212.9 552.29 213.81 551.22 214.26 550.68 214.7 550.14 232.55 556.43 232.55 557.13
 232.56 557.84 232.6 559.25 232.75 562.08 232.99 564.94 233.31 567.83 233.71 570.73 234.2 573.64 249.49 577.54
 251.31 575.21 253.05 572.86 254.72 570.48 256.29 568.08 257.78 565.66 258.49 564.44 258.84 563.83 259.17 563.22
 277.86 566.23 277.99 566.92 278.12 567.61 278.41 568.99 279.06 571.75 279.81 574.53 280.64 577.3 281.55 580.08
 282.55 582.87 298.3 583.97 299.67 581.35 300.97 578.73 302.18 576.09 303.3 573.45 304.33 570.81 304.81 569.48
 305.04 568.82 305.27 568.15 324.19 567.78 324.44 568.43 324.69 569.09 325.22 570.39 326.36 573 327.59 575.59
 328.9 578.18 330.3 580.75 331.78 583.31 347.46 581.59 348.35 578.77 349.15 575.95 349.88 573.14 350.51 570.34
 351.05 567.55 351.29 566.16 351.4 565.47 351.5 564.78 370.05 561.03 370.41 561.63 370.78 562.23 371.54 563.42
 373.12 565.78 374.79 568.11 376.54 570.42 378.38 572.7 380.29 574.96 395.42 570.46 395.78 567.53 396.07 564.61
 396.28 561.72 396.41 558.85 396.44 556.01 396.43 554.6 396.41 553.9 396.39 553.2 413.97 546.2 414.43 546.73
 414.9 547.25 415.86 548.28 417.84 550.32 419.9 552.32 422.03 554.28 424.25 556.2 426.53 558.08 440.61 550.95
 440.45 548 440.21 545.08 439.9 542.19 439.51 539.35 439.04 536.55 438.77 535.16 438.63 534.48 438.48 533.79
 454.53 523.77 455.08 524.2 455.64 524.63 456.76 525.48 459.07 527.13 461.46 528.73 463.91 530.28 466.43 531.77
 469.01 533.21 481.6 523.68 480.91 520.81 480.16 517.98 479.34 515.2 478.44 512.47 477.48 509.79 476.97 508.48
 476.71 507.83 476.44 507.18 490.44 494.45 491.06 494.78 491.68 495.1 492.94 495.74 495.51 496.95 498.14 498.1
 500.83 499.18 503.58 500.2 506.38 501.16 517.06 489.53 515.87 486.83 514.62 484.18 513.31 481.59 511.95 479.06
 510.52 476.61 509.79 475.4 509.41 474.81 509.03 474.22 520.54 459.2 521.2 459.41 521.87 459.62 523.23 460.01
 525.97 460.75 528.77 461.41 531.61 461.99 534.49 462.5 537.41 462.95 545.85 449.6 544.19 447.15 542.49 444.77
 540.75 442.45 538.95 440.21 537.11 438.05 536.17 437 535.7 436.48 535.22 435.97 543.85 419.13 544.55 419.22
 545.25 419.31 546.65 419.46 549.48 419.69 552.35 419.84 555.25 419.91 558.17 419.9 561.13 419.81 567.04 405.18
 564.98 403.06 562.88 401.02 560.75 399.05 558.59 397.17 556.39 395.37 555.27 394.5 554.71 394.08 554.15 393.66
 559.64 375.55 560.34 375.51 561.04 375.47 562.45 375.37 565.28 375.09 568.13 374.73 570.99 374.28 573.87 373.74
 576.76 373.13 579.97 357.68 577.56 355.96 575.13 354.33 572.68 352.77 570.22 351.31 567.73 349.93 566.48 349.27
 565.86 348.96 565.23 348.64 567.4 329.85 568.08 329.69 568.76 329.52 570.13 329.17 572.86 328.39 575.6 327.52
 578.33 326.57 581.07 325.53 583.81 324.41 584.2 308.63 581.53 307.38 578.85 306.2 576.16 305.11 573.47 304.11
 570.78 303.19 569.43 302.77 568.76 302.57 568.09 302.38 566.87 283.5 567.51 283.22 568.15 282.93 569.43 282.34
 571.98 281.09 574.52 279.75 577.04 278.32 579.55 276.81 582.04 275.22 579.62 259.62 576.76 258.86 573.91 258.18
 571.07 257.59 568.25 257.08 565.43 256.66 564.03 256.49 563.34 256.41 562.64 256.34 558.07 237.98 558.65 237.59
 559.23 237.2 560.38 236.39 562.67 234.7 564.93 232.93 567.15 231.07 569.35 229.14 571.52 227.13 566.35 212.21
 563.4 211.98 560.48 211.82 557.58 211.74 554.71 211.75 551.87 211.84 550.46 211.92 549.76 211.97 549.06 212.02
 541.28 194.77 541.78 194.29 542.29 193.79 543.28 192.79 545.23 190.72 547.13 188.57 548.99 186.35 550.81 184.05
 552.58 181.69 544.83 167.94 541.89 168.23 538.98 168.6 536.12 169.04 533.29 169.56 530.51 170.16 529.14 170.49
 528.46 170.66 527.79 170.84 517.05 155.25 517.46 154.69 517.86 154.11 518.66 152.95 520.21 150.56 521.7 148.11
 523.13 145.59 524.51 143.01 525.83 140.36 515.75 128.22 512.91 129.04 510.11 129.91 507.37 130.86 504.69 131.87
 502.06 132.96 500.77 133.53 500.13 133.82 499.5 134.11 486.15 120.7 486.45 120.06 486.75 119.43 487.33 118.14
 488.42 115.52 489.45 112.84 490.41 110.1 491.3 107.32 492.14 104.48 480.05 94.33 477.4 95.64 474.8 97
 472.28 98.42 469.81 99.9 467.42 101.43 466.26 102.22 465.68 102.63 465.11 103.03 449.58 92.21 449.77 91.54
 449.94 90.86 450.28 89.49 450.89 86.71 451.42 83.89 451.88 81.03 452.26 78.13 452.57 75.19 438.87 67.36
 436.49 69.12 434.19 70.93 431.95 72.77 429.79 74.67 427.71 76.6 426.71 77.59 426.21 78.09 425.72 78.59
 408.51 70.72 408.57 70.02 408.62 69.32 408.71 67.91 408.82 65.07 408.84 62.2 408.78 59.3 408.63 56.38
 408.41 53.43 393.53 48.18 391.51 50.33 389.56 52.52 387.69 54.74 385.91 56.99 384.21 59.26 383.39 60.41
 382.99 60.99 382.6 61.57 364.27 56.9 364.2 56.2 364.13 55.5 363.96 54.1 363.56 51.29 363.07 48.46
 362.49 45.62 361.82 42.77 361.08 39.91 345.5 37.39 343.89 39.88 342.37 42.38 340.93 44.89 339.57 47.42
 338.31 49.97 337.71 51.25 337.42 51.89 337.14 52.53 318.26 51.2 318.07 50.53 317.87 49.85 317.46 48.51
 316.56 45.81 315.57 43.12 314.5 40.42 313.34 37.74 312.09 35.05 296.31 35.36 295.18 38.09 294.13 40.83
 293.16 43.56 292.27 46.29 291.48 49.02 291.12 50.38 290.95 51.06 290.79 51.75 271.98 53.81 271.67 53.18
 271.36 52.56 270.71 51.3 269.35 48.81 267.89 46.34 266.35 43.88 264.73 41.44 263.03 39.02 247.56 42.15
 246.93 45.04 246.38 47.91 245.91 50.78 245.53 53.62 245.24 56.45 245.13 57.85 245.09 58.55 245.05 59.25
 226.91 64.65 226.49 64.08 226.07 63.52 225.21 62.4 223.42 60.19 221.55 58.02 219.6 55.88 217.56 53.77
 215.46 51.69 200.79 57.53 200.69 60.48 200.67 63.41 200.72 66.31 200.85 69.18 201.07 72.01 201.21 73.41
 201.29 74.11 201.38 74.81 184.5 83.35 183.99 82.87 183.47 82.39 182.43 81.45 180.27 79.59 178.04 77.79
 175.73 76.03 173.36 74.32 170.92 72.65 157.53 81.01 157.96 83.94 158.45 86.82 159.02 89.67 159.67 92.46
 160.39 95.21 160.78 96.57 160.98 97.24 161.19 97.91 146.1 109.33 145.52 108.95 144.93 108.57 143.73 107.83
 141.28 106.39 138.76 105.01 136.18 103.69 133.53 102.43 130.83 101.23 119.15 111.84 120.1 114.65 121.1 117.4
 122.17 120.09 123.3 122.73 124.5 125.31 125.13 126.57 125.45 127.19 125.77 127.82 112.97 141.75 112.32 141.48
 111.67 141.21 110.36 140.69 107.69 139.71 104.97 138.81 102.19 137.97 99.37 137.2 96.5 136.5 86.9 149.03
 88.33 151.62 89.81 154.15 91.34 156.61 92.92 159 94.56 161.32 95.41 162.45 95.83 163.01 96.26 163.57
 86.15 179.56 85.47 179.41 84.78 179.26 83.4 178.99 80.6 178.5 77.76 178.09 74.88 177.77 71.96 177.52
 69.01 177.34 61.8 191.38 63.67 193.67 65.58 195.9 67.52 198.05 69.51 200.12 71.54 202.11 72.57 203.07
 73.09 203.54 73.61 204.01 66.52 221.55 65.82 221.52 65.12 221.5 63.71 221.48 60.87 221.5 58 221.61
 55.11 221.8 52.19 222.08 49.25 222.43 44.67 237.53 46.92 239.45 49.19 241.3 51.49 243.07 53.82 244.75
 56.17 246.35 57.35 247.11 57.95 247.48 58.55 247.85 54.7 266.38 54.01 266.47 53.31 266.58 51.92 266.81
 49.13 267.33 46.33 267.95 43.51 268.66 40.7 269.45 37.87 270.32 36.06 286 38.61 287.49 41.18 288.9
 43.76 290.23 46.34 291.47 48.94 292.62 50.25 293.16 50.9 293.42 51.55 293.67"/>
<circle id="G1_out_circ" cx="309.62" cy="309.62" r="309.62" stroke="#000"  fill="none"/>
<circle id="G1_sh" cx="309.62" cy="309.62" r="262" stroke="#000"  fill="none"/>
<polygon id="G2Gear" data-id="0" class="gear" fill="none" fill-opacity="0.2" stroke="#000"  stroke-miterlimit="10"
points =" 52.96 313.7 52.8 314.35 52.58 314.61 52.35 314.81 52.11 314.97 51.87 315.1 51.36 315.31 50.85 315.45
 50.32 315.55 49.79 315.61 48.7 315.63 47.62 315.66 46.67 316.33 45.75 317.1 44.87 317.97 44.02 318.94
 43.22 319.99 42.46 321.12 41.74 322.33 41.08 323.61 40.48 324.97 40.07 326.03 42.91 331.34 46.5 336.17
 47.64 336.25 49.12 336.28 50.57 336.23 51.96 336.1 53.31 335.89 54.6 335.61 55.83 335.26 57 334.83
 58.09 334.33 59.1 333.75 59.59 332.78 60.07 331.81 60.35 331.35 60.67 330.92 61.02 330.51 61.41 330.15
 61.64 329.98 61.88 329.83 62.16 329.71 62.5 329.62 63.15 329.76 71.78 333.54 81.2 333.79 81.85 333.95
 82.11 334.17 82.31 334.4 82.47 334.64 82.6 334.88 82.81 335.38 82.95 335.9 83.05 336.42 83.11 336.96
 83.13 338.05 83.16 339.13 83.83 340.08 84.6 341 85.47 341.88 86.44 342.73 87.49 343.53 88.62 344.29
 89.83 345 91.11 345.66 92.47 346.27 93.53 346.68 98.84 343.84 103.67 340.25 103.75 339.11 103.78 337.63
 103.73 336.18 103.6 334.78 103.39 333.44 103.11 332.14 102.76 330.91 102.33 329.75 101.83 328.66 101.25 327.65
 100.28 327.16 99.31 326.68 98.85 326.4 98.42 326.08 98.01 325.73 97.65 325.33 97.48 325.11 97.33 324.87
 97.21 324.59 97.12 324.25 97.26 323.6 101.04 314.97 101.29 305.55 101.45 304.9 101.67 304.63 101.9 304.44
 102.14 304.28 102.38 304.15 102.88 303.94 103.4 303.8 103.92 303.7 104.46 303.64 105.55 303.62 106.63 303.59
 107.58 302.92 108.5 302.15 109.38 301.27 110.23 300.31 111.03 299.26 111.79 298.13 112.5 296.92 113.16 295.64
 113.77 294.28 114.18 293.22 111.34 287.91 107.75 283.08 106.61 283 105.13 282.97 103.68 283.02 102.28 283.15
 100.94 283.36 99.64 283.64 98.41 283.99 97.25 284.42 96.16 284.92 95.15 285.5 94.66 286.46 94.18 287.44
 93.9 287.9 93.58 288.33 93.23 288.74 92.83 289.1 92.61 289.27 92.37 289.42 92.09 289.54 91.75 289.63
 91.1 289.49 82.47 285.7 73.05 285.46 72.4 285.3 72.13 285.08 71.94 284.85 71.78 284.61 71.65 284.37
 71.44 283.86 71.3 283.35 71.2 282.82 71.14 282.29 71.12 281.2 71.09 280.12 70.42 279.17 69.65 278.25
 68.77 277.37 67.81 276.52 66.76 275.72 65.63 274.96 64.42 274.24 63.14 273.58 61.78 272.98 60.72 272.57
 55.41 275.41 50.58 279 50.5 280.14 50.47 281.62 50.52 283.07 50.65 284.46 50.86 285.81 51.14 287.1
 51.49 288.33 51.92 289.5 52.42 290.59 53 291.6 53.96 292.09 54.94 292.57 55.4 292.85 55.83 293.17
 56.24 293.52 56.6 293.91 56.77 294.14 56.92 294.38 57.04 294.66 57.13 295 56.99 295.65 53.2 304.28
"/>
<circle id="G2_sh" cx="77.12" cy="309.62" r="40" stroke="#000"  fill="none"/>
</svg>
