<?xml version="1.0" encoding="UTF-8" standalone="no"?>
<svg
   xmlns:dc="http://purl.org/dc/elements/1.1/"
   xmlns:cc="http://creativecommons.org/ns#"
   xmlns:rdf="http://www.w3.org/1999/02/22-rdf-syntax-ns#"
   xmlns:svg="http://www.w3.org/2000/svg"
   xmlns="http://www.w3.org/2000/svg"
   xmlns:sodipodi="http://sodipodi.sourceforge.net/DTD/sodipodi-0.dtd"
   xmlns:inkscape="http://www.inkscape.org/namespaces/inkscape"
   xml:space="preserve"
   width="22.860001mm"
   height="22.860001mm"
   viewBox="0 0 81 81"
   zoomAndPan="disable"
   preserveAspectRatio="none"
   id="svg2"
   version="1.1"
   inkscape:version="0.91 r13725"
   sodipodi:docname="gear-axis.svg"><metadata
     id="metadata13"><rdf:RDF><cc:Work
         rdf:about=""><dc:format>image/svg+xml</dc:format><dc:type
           rdf:resource="http://purl.org/dc/dcmitype/StillImage" /><dc:title></dc:title></cc:Work></rdf:RDF></metadata><defs
     id="defs11" /><sodipodi:namedview
     pagecolor="#ffffff"
     bordercolor="#666666"
     borderopacity="1"
     objecttolerance="10"
     gridtolerance="10"
     guidetolerance="10"
     inkscape:pageopacity="0"
     inkscape:pageshadow="2"
     inkscape:window-width="1600"
     inkscape:window-height="849"
     id="namedview9"
     showgrid="false"
     inkscape:zoom="1.5225806"
     inkscape:cx="156.50821"
     inkscape:cy="-53.02926"
     inkscape:window-x="0"
     inkscape:window-y="25"
     inkscape:window-maximized="1"
     inkscape:current-layer="svg2"
     fit-margin-top="0"
     fit-margin-left="0"
     fit-margin-right="0"
     fit-margin-bottom="0"
     units="mm" /><!-- Made with the gear generator.  http://woodgears.ca/gear   2017-07-12T17:03:13 --><!-- G1:Toothspacing=47.12  Teeth=-35  Slop=.8  Spur gear  Angle=20.0  Addendum=.1 --><!-- G2:Toothspacing=47.12  Teeth=4  Slop=.8  Spur gear  Angle=20.0  Addendum=.2 --><!-- G2:Toothspacing=47.12  Teeth=4  Slop=.8  Spur gear  Angle=20.0  Addendum=.2 --><polygon
     id="G2Gear"
     data-id="0"
     class="gear"
     stroke-miterlimit="10"
     points="51.87,315.1 51.36,315.31 50.85,315.45 50.32,315.55 49.79,315.61 48.7,315.63 47.62,315.66 46.67,316.33 45.75,317.1 44.87,317.97 44.02,318.94 43.22,319.99 42.46,321.12 41.74,322.33 41.08,323.61 40.48,324.97 40.07,326.03 42.91,331.34 46.5,336.17 47.64,336.25 49.12,336.28 50.57,336.23 51.96,336.1 53.31,335.89 54.6,335.61 55.83,335.26 57,334.83 58.09,334.33 59.1,333.75 59.59,332.78 60.07,331.81 60.35,331.35 60.67,330.92 61.02,330.51 61.41,330.15 61.64,329.98 61.88,329.83 62.16,329.71 62.5,329.62 63.15,329.76 71.78,333.54 81.2,333.79 81.85,333.95 82.11,334.17 82.31,334.4 82.47,334.64 82.6,334.88 82.81,335.38 82.95,335.9 83.05,336.42 83.11,336.96 83.13,338.05 83.16,339.13 83.83,340.08 84.6,341 85.47,341.88 86.44,342.73 87.49,343.53 88.62,344.29 89.83,345 91.11,345.66 92.47,346.27 93.53,346.68 98.84,343.84 103.67,340.25 103.75,339.11 103.78,337.63 103.73,336.18 103.6,334.78 103.39,333.44 103.11,332.14 102.76,330.91 102.33,329.75 101.83,328.66 101.25,327.65 100.28,327.16 99.31,326.68 98.85,326.4 98.42,326.08 98.01,325.73 97.65,325.33 97.48,325.11 97.33,324.87 97.21,324.59 97.12,324.25 97.26,323.6 101.04,314.97 101.29,305.55 101.45,304.9 101.67,304.63 101.9,304.44 102.14,304.28 102.38,304.15 102.88,303.94 103.4,303.8 103.92,303.7 104.46,303.64 105.55,303.62 106.63,303.59 107.58,302.92 108.5,302.15 109.38,301.27 110.23,300.31 111.03,299.26 111.79,298.13 112.5,296.92 113.16,295.64 113.77,294.28 114.18,293.22 111.34,287.91 107.75,283.08 106.61,283 105.13,282.97 103.68,283.02 102.28,283.15 100.94,283.36 99.64,283.64 98.41,283.99 97.25,284.42 96.16,284.92 95.15,285.5 94.66,286.46 94.18,287.44 93.9,287.9 93.58,288.33 93.23,288.74 92.83,289.1 92.61,289.27 92.37,289.42 92.09,289.54 91.75,289.63 91.1,289.49 82.47,285.7 73.05,285.46 72.4,285.3 72.13,285.08 71.94,284.85 71.78,284.61 71.65,284.37 71.44,283.86 71.3,283.35 71.2,282.82 71.14,282.29 71.12,281.2 71.09,280.12 70.42,279.17 69.65,278.25 68.77,277.37 67.81,276.52 66.76,275.72 65.63,274.96 64.42,274.24 63.14,273.58 61.78,272.98 60.72,272.57 55.41,275.41 50.58,279 50.5,280.14 50.47,281.62 50.52,283.07 50.65,284.46 50.86,285.81 51.14,287.1 51.49,288.33 51.92,289.5 52.42,290.59 53,291.6 53.96,292.09 54.94,292.57 55.4,292.85 55.83,293.17 56.24,293.52 56.6,293.91 56.77,294.14 56.92,294.38 57.04,294.66 57.13,295 56.99,295.65 53.2,304.28 52.96,313.7 52.8,314.35 52.58,314.61 52.35,314.81 52.11,314.97 "
     style="fill:none;fill-opacity:0.2;stroke:#000000;stroke-miterlimit:10"
     transform="translate(-36.620003,-269.12)" /><circle
     id="G2_sh"
     cx="40.5"
     cy="40.5"
     r="40"
     style="fill:none;stroke:#000000" /></svg>