  0
SECTION
  2
HEADER
  9
$ACADVER
  1
AC1014
  9
$HANDSEED
  5
FFFF
  9
$MEASUREMENT
 70
     1
  0
ENDSEC
  0
SECTION
  2
TABLES
  0
TABLE
  2
VPORT
  5
8
330
0
100
AcDbSymbolTable
 70
     4
  0
VPORT
  5
2E
330
8
100
AcDbSymbolTableRecord
100
AcDbViewportTableRecord
  2
*ACTIVE
 70
     0
 10
0.0
 20
0.0
 11
1.0
 21
1.0
 12
210.0
 22
148.5
 13
0.0
 23
0.0
 14
10.0
 24
10.0
 15
10.0
 25
10.0
 16
0.0
 26
0.0
 36
1.0
 17
0.0
 27
0.0
 37
0.0
 40
341.0
 41
1.24
 42
50.0
 43
0.0
 44
0.0
 50
0.0
 51
0.0
 71
     0
 72
   100
 73
     1
 74
     3
 75
     0
 76
     0
 77
     0
 78
     0
  0
ENDTAB
  0
TABLE
  2
LTYPE
  5
5
330
0
100
AcDbSymbolTable
 70
     1
  0
LTYPE
  5
14
330
5
100
AcDbSymbolTableRecord
100
AcDbLinetypeTableRecord
  2
BYBLOCK
 70
     0
  3

 72
    65
 73
     0
 40
0.0
  0
LTYPE
  5
15
330
5
100
AcDbSymbolTableRecord
100
AcDbLinetypeTableRecord
  2
BYLAYER
 70
     0
  3

 72
    65
 73
     0
 40
0.0
  0
LTYPE
  5
16
330
5
100
AcDbSymbolTableRecord
100
AcDbLinetypeTableRecord
  2
CONTINUOUS
 70
     0
  3
Solid line
 72
    65
 73
     0
 40
0.0
  0
ENDTAB
  0
TABLE
  2
LAYER
  5
2
100
AcDbSymbolTable
 70
1
  0
LAYER
  5
50
100
AcDbSymbolTableRecord
100
AcDbLayerTableRecord
  2
0
 70
0
  6
CONTINUOUS
  0
ENDTAB
  0
TABLE
  2
STYLE
  5
3
330
0
100
AcDbSymbolTable
 70
     1
  0
STYLE
  5
11
330
3
100
AcDbSymbolTableRecord
100
AcDbTextStyleTableRecord
  2
STANDARD
 70
     0
 40
0.0
 41
1.0
 50
0.0
 71
     0
 42
2.5
  3
txt
  4

  0
ENDTAB
  0
TABLE
  2
VIEW
  5
6
330
0
100
AcDbSymbolTable
 70
     0
  0
ENDTAB
  0
TABLE
  2
UCS
  5
7
330
0
100
AcDbSymbolTable
 70
     0
  0
ENDTAB
  0
TABLE
  2
APPID
  5
9
330
0
100
AcDbSymbolTable
 70
     2
  0
APPID
  5
12
330
9
100
AcDbSymbolTableRecord
100
AcDbRegAppTableRecord
  2
ACAD
 70
     0
  0
ENDTAB
  0
TABLE
  2
DIMSTYLE
  5
A
330
0
100
AcDbSymbolTable
 70
     1
  0
DIMSTYLE
105
27
330
A
100
AcDbSymbolTableRecord
100
AcDbDimStyleTableRecord
  2
ISO-25
 70
     0
  3

  4

  5

  6

  7

 40
1.0
 41
2.5
 42
0.625
 43
3.75
 44
1.25
 45
0.0
 46
0.0
 47
0.0
 48
0.0
140
2.5
141
2.5
142
0.0
143
0.03937007874016
144
1.0
145
0.0
146
1.0
147
0.625
 71
     0
 72
     0
 73
     0
 74
     0
 75
     0
 76
     0
 77
     1
 78
     8
170
     0
171
     3
172
     1
173
     0
174
     0
175
     0
176
     0
177
     0
178
     0
270
     2
271
     2
272
     2
273
     2
274
     3
340
11
275
     0
280
     0
281
     0
282
     0
283
     0
284
     8
285
     0
286
     0
287
     3
288
     0
  0
ENDTAB
  0
TABLE
  2
BLOCK_RECORD
  5
1
330
0
100
AcDbSymbolTable
 70
     1
  0
BLOCK_RECORD
  5
1F
330
1
100
AcDbSymbolTableRecord
100
AcDbBlockTableRecord
  2
*MODEL_SPACE
  0
BLOCK_RECORD
  5
1B
330
1
100
AcDbSymbolTableRecord
100
AcDbBlockTableRecord
  2
*PAPER_SPACE
  0
ENDTAB
  0
ENDSEC
  0
SECTION
  2
BLOCKS
  0
BLOCK
  5
20
330
1F
100
AcDbEntity
  8
0
100
AcDbBlockBegin
  2
*MODEL_SPACE
 70
     0
 10
0.0
 20
0.0
 30
0.0
  3
*MODEL_SPACE
  1

  0
ENDBLK
  5
21
330
1F
100
AcDbEntity
  8
0
100
AcDbBlockEnd
  0
BLOCK
  5
1C
330
1B
100
AcDbEntity
 67
     1
  8
0
100
AcDbBlockBegin
  2
*PAPER_SPACE
  1

  0
ENDBLK
  5
1D
330
1B
100
AcDbEntity
 67
     1
  8
0
100
AcDbBlockEnd
  0
ENDSEC
  0
SECTION
  2
ENTITIES
  0
LWPOLYLINE
  5
100
100
AcDbEntity
  8
0
 62
7
100
AcDbPolyline
 90
130
 70
0
 10
8.738140
 20
17.497778
 30
0.0
 10
8.288477
 20
17.486407
 30
0.0
 10
7.844717
 20
17.452662
 30
0.0
 10
7.407409
 20
17.397092
 30
0.0
 10
6.977102
 20
17.320246
 30
0.0
 10
6.554345
 20
17.222673
 30
0.0
 10
6.139688
 20
17.104923
 30
0.0
 10
5.733678
 20
16.967544
 30
0.0
 10
5.336866
 20
16.811085
 30
0.0
 10
4.949800
 20
16.636096
 30
0.0
 10
4.573029
 20
16.443125
 30
0.0
 10
4.207102
 20
16.232721
 30
0.0
 10
3.852569
 20
16.005434
 30
0.0
 10
3.509978
 20
15.761812
 30
0.0
 10
3.179878
 20
15.502404
 30
0.0
 10
2.862819
 20
15.227760
 30
0.0
 10
2.559349
 20
14.938429
 30
0.0
 10
2.270018
 20
14.634959
 30
0.0
 10
1.995374
 20
14.317900
 30
0.0
 10
1.735966
 20
13.987800
 30
0.0
 10
1.492344
 20
13.645209
 30
0.0
 10
1.265057
 20
13.290676
 30
0.0
 10
1.054653
 20
12.924749
 30
0.0
 10
0.861682
 20
12.547978
 30
0.0
 10
0.686693
 20
12.160912
 30
0.0
 10
0.530234
 20
11.764100
 30
0.0
 10
0.392855
 20
11.358090
 30
0.0
 10
0.275105
 20
10.943433
 30
0.0
 10
0.177532
 20
10.520676
 30
0.0
 10
0.100686
 20
10.090369
 30
0.0
 10
0.045116
 20
9.653061
 30
0.0
 10
0.011371
 20
9.209301
 30
0.0
 10
0.000000
 20
8.759638
 30
0.0
 10
0.010738
 20
8.326337
 30
0.0
 10
0.042756
 20
7.895977
 30
0.0
 10
0.095758
 20
7.469274
 30
0.0
 10
0.169447
 20
7.046945
 30
0.0
 10
0.263527
 20
6.629704
 30
0.0
 10
0.377700
 20
6.218270
 30
0.0
 10
0.511671
 20
5.813357
 30
0.0
 10
0.665142
 20
5.415683
 30
0.0
 10
0.837817
 20
5.025963
 30
0.0
 10
1.029399
 20
4.644914
 30
0.0
 10
1.239592
 20
4.273252
 30
0.0
 10
1.468099
 20
3.911693
 30
0.0
 10
1.714622
 20
3.560953
 30
0.0
 10
1.978866
 20
3.221748
 30
0.0
 10
2.260534
 20
2.894796
 30
0.0
 10
2.559330
 20
2.580811
 30
0.0
 10
2.873312
 20
2.282014
 30
0.0
 10
3.200263
 20
2.000344
 30
0.0
 10
3.539466
 20
1.736098
 30
0.0
 10
3.890204
 20
1.489572
 30
0.0
 10
4.251762
 20
1.261063
 30
0.0
 10
4.623423
 20
1.050868
 30
0.0
 10
5.004471
 20
0.859283
 30
0.0
 10
5.394190
 20
0.686606
 30
0.0
 10
5.791863
 20
0.533132
 30
0.0
 10
6.196775
 20
0.399159
 30
0.0
 10
6.608208
 20
0.284983
 30
0.0
 10
7.025448
 20
0.190900
 30
0.0
 10
7.447777
 20
0.117208
 30
0.0
 10
7.874480
 20
0.064204
 30
0.0
 10
8.304839
 20
0.032183
 30
0.0
 10
8.738140
 20
0.021443
 30
0.0
 10
9.171443
 20
0.032180
 30
0.0
 10
9.601804
 20
0.064199
 30
0.0
 10
10.028509
 20
0.117201
 30
0.0
 10
10.450840
 20
0.190891
 30
0.0
 10
10.868082
 20
0.284971
 30
0.0
 10
11.279518
 20
0.399146
 30
0.0
 10
11.684432
 20
0.533117
 30
0.0
 10
12.082107
 20
0.686590
 30
0.0
 10
12.471829
 20
0.859266
 30
0.0
 10
12.852879
 20
1.050850
 30
0.0
 10
13.224542
 20
1.261044
 30
0.0
 10
13.586103
 20
1.489553
 30
0.0
 10
13.936843
 20
1.736078
 30
0.0
 10
14.276048
 20
2.000324
 30
0.0
 10
14.603001
 20
2.281994
 30
0.0
 10
14.916986
 20
2.580792
 30
0.0
 10
15.215784
 20
2.894777
 30
0.0
 10
15.497454
 20
3.221730
 30
0.0
 10
15.761700
 20
3.560935
 30
0.0
 10
16.008225
 20
3.911675
 30
0.0
 10
16.236734
 20
4.273236
 30
0.0
 10
16.446928
 20
4.644899
 30
0.0
 10
16.638512
 20
5.025949
 30
0.0
 10
16.811188
 20
5.415671
 30
0.0
 10
16.964661
 20
5.813346
 30
0.0
 10
17.098632
 20
6.218260
 30
0.0
 10
17.212807
 20
6.629696
 30
0.0
 10
17.306887
 20
7.046938
 30
0.0
 10
17.380577
 20
7.469269
 30
0.0
 10
17.433579
 20
7.895974
 30
0.0
 10
17.465598
 20
8.326335
 30
0.0
 10
17.476335
 20
8.759638
 30
0.0
 10
17.465595
 20
9.192939
 30
0.0
 10
17.433574
 20
9.623298
 30
0.0
 10
17.380570
 20
10.050001
 30
0.0
 10
17.306878
 20
10.472330
 30
0.0
 10
17.212795
 20
10.889570
 30
0.0
 10
17.098619
 20
11.301003
 30
0.0
 10
16.964646
 20
11.705915
 30
0.0
 10
16.811172
 20
12.103588
 30
0.0
 10
16.638495
 20
12.493307
 30
0.0
 10
16.446910
 20
12.874355
 30
0.0
 10
16.236715
 20
13.246016
 30
0.0
 10
16.008206
 20
13.607574
 30
0.0
 10
15.761680
 20
13.958312
 30
0.0
 10
15.497434
 20
14.297515
 30
0.0
 10
15.215764
 20
14.624466
 30
0.0
 10
14.916967
 20
14.938448
 30
0.0
 10
14.602982
 20
15.237244
 30
0.0
 10
14.276030
 20
15.518912
 30
0.0
 10
13.936825
 20
15.783156
 30
0.0
 10
13.586085
 20
16.029679
 30
0.0
 10
13.224526
 20
16.258186
 30
0.0
 10
12.852864
 20
16.468379
 30
0.0
 10
12.471815
 20
16.659961
 30
0.0
 10
12.082095
 20
16.832636
 30
0.0
 10
11.684421
 20
16.986107
 30
0.0
 10
11.279508
 20
17.120078
 30
0.0
 10
10.868074
 20
17.234251
 30
0.0
 10
10.450833
 20
17.328331
 30
0.0
 10
10.028504
 20
17.402020
 30
0.0
 10
9.601801
 20
17.455022
 30
0.0
 10
9.171441
 20
17.487040
 30
0.0
 10
8.738140
 20
17.497778
 30
0.0
 10
8.738140
 20
17.497778
 30
0.0
  0
LWPOLYLINE
  5
101
100
AcDbEntity
  8
0
 62
7
100
AcDbPolyline
 90
632
 70
0
 10
8.807869
 20
16.508567
 30
0.0
 10
8.843147
 20
16.432665
 30
0.0
 10
8.875889
 20
16.357038
 30
0.0
 10
8.906095
 20
16.280860
 30
0.0
 10
8.934042
 20
16.204903
 30
0.0
 10
8.959453
 20
16.128725
 30
0.0
 10
8.970974
 20
16.090911
 30
0.0
 10
8.976651
 20
16.071729
 30
0.0
 10
8.981998
 20
16.052822
 30
0.0
 10
9.514857
 20
16.015285
 30
0.0
 10
9.522740
 20
16.033309
 30
0.0
 10
9.530953
 20
16.051389
 30
0.0
 10
9.547876
 20
16.087494
 30
0.0
 10
9.583429
 20
16.159482
 30
0.0
 10
9.621793
 20
16.230865
 30
0.0
 10
9.662418
 20
16.301696
 30
0.0
 10
9.705357
 20
16.372252
 30
0.0
 10
9.750778
 20
16.442531
 30
0.0
 10
10.190482
 20
16.371425
 30
0.0
 10
10.211373
 20
16.290727
 30
0.0
 10
10.230280
 20
16.210304
 30
0.0
 10
10.246651
 20
16.130103
 30
0.0
 10
10.260487
 20
16.050287
 30
0.0
 10
10.271787
 20
15.970967
 30
0.0
 10
10.276582
 20
15.931445
 30
0.0
 10
10.278511
 20
15.911711
 30
0.0
 10
10.280496
 20
15.891923
 30
0.0
 10
10.797811
 20
15.760127
 30
0.0
 10
10.808835
 20
15.776498
 30
0.0
 10
10.820135
 20
15.792869
 30
0.0
 10
10.843287
 20
15.825336
 30
0.0
 10
10.891242
 20
15.889387
 30
0.0
 10
10.941458
 20
15.952887
 30
0.0
 10
10.994264
 20
16.015560
 30
0.0
 10
11.049276
 20
16.077351
 30
0.0
 10
11.106271
 20
16.138040
 30
0.0
 10
11.526242
 20
15.989873
 30
0.0
 10
11.532471
 20
15.906585
 30
0.0
 10
11.536660
 20
15.824178
 30
0.0
 10
11.538369
 20
15.742378
 30
0.0
 10
11.537818
 20
15.661349
 30
0.0
 10
11.534731
 20
15.581202
 30
0.0
 10
11.532140
 20
15.541405
 30
0.0
 10
11.530762
 20
15.521671
 30
0.0
 10
11.529054
 20
15.501883
 30
0.0
 10
12.014784
 20
15.279798
 30
0.0
 10
12.028620
 20
15.293909
 30
0.0
 10
12.042731
 20
15.308020
 30
0.0
 10
12.070953
 20
15.335967
 30
0.0
 10
12.129602
 20
15.390427
 30
0.0
 10
12.190567
 20
15.444060
 30
0.0
 10
12.253791
 20
15.495985
 30
0.0
 10
12.318724
 20
15.547082
 30
0.0
 10
12.385862
 20
15.596747
 30
0.0
 10
12.772540
 20
15.375765
 30
0.0
 10
12.763776
 20
15.292752
 30
0.0
 10
12.753082
 20
15.210951
 30
0.0
 10
12.740073
 20
15.130198
 30
0.0
 10
12.725135
 20
15.050603
 30
0.0
 10
12.707882
 20
14.972165
 30
0.0
 10
12.698291
 20
14.933525
 30
0.0
 10
12.693496
 20
14.914342
 30
0.0
 10
12.688149
 20
14.895380
 30
0.0
 10
13.126420
 20
14.590062
 30
0.0
 10
13.142516
 20
14.601307
 30
0.0
 10
13.158887
 20
14.612883
 30
0.0
 10
13.191629
 20
14.635207
 30
0.0
 10
13.259098
 20
14.678367
 30
0.0
 10
13.328771
 20
14.720149
 30
0.0
 10
13.399933
 20
14.760222
 30
0.0
 10
13.473300
 20
14.798587
 30
0.0
 10
13.548100
 20
14.835574
 30
0.0
 10
13.889302
 20
14.549107
 30
0.0
 10
13.865600
 20
14.468960
 30
0.0
 10
13.840465
 20
14.390522
 30
0.0
 10
13.813345
 20
14.313187
 30
0.0
 10
13.784296
 20
14.237560
 30
0.0
 10
13.753538
 20
14.163587
 30
0.0
 10
13.737167
 20
14.127207
 30
0.0
 10
13.728678
 20
14.109402
 30
0.0
 10
13.720244
 20
14.091378
 30
0.0
 10
14.097000
 20
13.712913
 30
0.0
 10
14.114804
 20
13.721071
 30
0.0
 10
14.132829
 20
13.729284
 30
0.0
 10
14.169264
 20
13.745325
 30
0.0
 10
14.243458
 20
13.776138
 30
0.0
 10
14.319085
 20
13.804635
 30
0.0
 10
14.396420
 20
13.831425
 30
0.0
 10
14.475465
 20
13.856009
 30
0.0
 10
14.555611
 20
13.879105
 30
0.0
 10
14.840093
 20
13.536524
 30
0.0
 10
14.802831
 20
13.461724
 30
0.0
 10
14.763915
 20
13.388909
 30
0.0
 10
14.723511
 20
13.317802
 30
0.0
 10
14.681509
 20
13.248625
 30
0.0
 10
14.637742
 20
13.181211
 30
0.0
 10
14.615143
 20
13.148469
 30
0.0
 10
14.603898
 20
13.132098
 30
0.0
 10
14.592322
 20
13.116278
 30
0.0
 10
14.895380
 20
12.676298
 30
0.0
 10
14.914342
 20
12.681369
 30
0.0
 10
14.933524
 20
12.686165
 30
0.0
 10
14.972165
 20
12.695480
 30
0.0
 10
15.050602
 20
12.712402
 30
0.0
 10
15.130474
 20
12.727120
 30
0.0
 10
15.211227
 20
12.739522
 30
0.0
 10
15.293357
 20
12.749940
 30
0.0
 10
15.376316
 20
12.758154
 30
0.0
 10
15.595038
 20
12.370098
 30
0.0
 10
15.545098
 20
12.303456
 30
0.0
 10
15.493724
 20
12.238578
 30
0.0
 10
15.441249
 20
12.175905
 30
0.0
 10
15.387615
 20
12.115216
 30
0.0
 10
15.332549
 20
12.056842
 30
0.0
 10
15.304602
 20
12.028620
 30
0.0
 10
15.290216
 20
12.014509
 30
0.0
 10
15.276105
 20
12.000949
 30
0.0
 10
15.495709
 20
11.514116
 30
0.0
 10
15.515442
 20
11.515494
 30
0.0
 10
15.535231
 20
11.516927
 30
0.0
 10
15.574974
 20
11.519187
 30
0.0
 10
15.655175
 20
11.521722
 30
0.0
 10
15.736149
 20
11.521998
 30
0.0
 10
15.818004
 20
11.519738
 30
0.0
 10
15.900411
 20
11.515218
 30
0.0
 10
15.983645
 20
11.508714
 30
0.0
 10
16.129551
 20
11.087640
 30
0.0
 10
16.068311
 20
11.030921
 30
0.0
 10
16.006244
 20
10.976460
 30
0.0
 10
15.943571
 20
10.923985
 30
0.0
 10
15.879796
 20
10.874044
 30
0.0
 10
15.815193
 20
10.826309
 30
0.0
 10
15.782727
 20
10.803489
 30
0.0
 10
15.766355
 20
10.792465
 30
0.0
 10
15.749984
 20
10.781440
 30
0.0
 10
15.878969
 20
10.263298
 30
0.0
 10
15.898702
 20
10.261313
 30
0.0
 10
15.918160
 20
10.259054
 30
0.0
 10
15.957682
 20
10.254258
 30
0.0
 10
16.037278
 20
10.242407
 30
0.0
 10
16.116873
 20
10.228020
 30
0.0
 10
16.197020
 20
10.211373
 30
0.0
 10
16.277442
 20
10.192191
 30
0.0
 10
16.358140
 20
10.170749
 30
0.0
 10
16.426436
 20
9.730438
 30
0.0
 10
16.356211
 20
9.685569
 30
0.0
 10
16.285325
 20
9.642960
 30
0.0
 10
16.214218
 20
9.602611
 30
0.0
 10
16.142560
 20
9.564798
 30
0.0
 10
16.070571
 20
9.529520
 30
0.0
 10
16.034467
 20
9.512873
 30
0.0
 10
16.016387
 20
9.504660
 30
0.0
 10
15.998307
 20
9.496778
 30
0.0
 10
16.032758
 20
8.963918
 30
0.0
 10
16.051665
 20
8.958571
 30
0.0
 10
16.070571
 20
8.952949
 30
0.0
 10
16.108660
 20
8.941098
 30
0.0
 10
16.184618
 20
8.915135
 30
0.0
 10
16.260520
 20
8.886913
 30
0.0
 10
16.336422
 20
8.856156
 30
0.0
 10
16.412049
 20
8.822807
 30
0.0
 10
16.487400
 20
8.787529
 30
0.0
 10
16.476431
 20
8.342202
 30
0.0
 10
16.399095
 20
8.310618
 30
0.0
 10
16.321760
 20
8.281238
 30
0.0
 10
16.244700
 20
8.254449
 30
0.0
 10
16.167365
 20
8.229865
 30
0.0
 10
16.090360
 20
8.207871
 30
0.0
 10
16.051665
 20
8.198005
 30
0.0
 10
16.032482
 20
8.193209
 30
0.0
 10
16.013300
 20
8.188689
 30
0.0
 10
15.952060
 20
7.658365
 30
0.0
 10
15.969809
 20
7.649325
 30
0.0
 10
15.987338
 20
7.640616
 30
0.0
 10
16.022615
 20
7.621985
 30
0.0
 10
16.092895
 20
7.583014
 30
0.0
 10
16.162293
 20
7.541838
 30
0.0
 10
16.231471
 20
7.497796
 30
0.0
 10
16.300042
 20
7.451769
 30
0.0
 10
16.368062
 20
7.403262
 30
0.0
 10
16.277442
 20
6.967196
 30
0.0
 10
16.195862
 20
6.949998
 30
0.0
 10
16.114613
 20
6.934784
 30
0.0
 10
16.033915
 20
6.922051
 30
0.0
 10
15.953438
 20
6.911909
 30
0.0
 10
15.873567
 20
6.904027
 30
0.0
 10
15.833769
 20
6.901160
 30
0.0
 10
15.814035
 20
6.900058
 30
0.0
 10
15.794302
 20
6.898900
 30
0.0
 10
15.639355
 20
6.387813
 30
0.0
 10
15.655175
 20
6.375962
 30
0.0
 10
15.670940
 20
6.364111
 30
0.0
 10
15.702580
 20
6.339582
 30
0.0
 10
15.764647
 20
6.288760
 30
0.0
 10
15.825611
 20
6.235678
 30
0.0
 10
15.885749
 20
6.180116
 30
0.0
 10
15.945004
 20
6.122514
 30
0.0
 10
16.003102
 20
6.062707
 30
0.0
 10
15.836360
 20
5.649791
 30
0.0
 10
15.752796
 20
5.647256
 30
0.0
 10
15.670389
 20
5.646980
 30
0.0
 10
15.588533
 20
5.648965
 30
0.0
 10
15.507560
 20
5.653209
 30
0.0
 10
15.427689
 20
5.659658
 30
0.0
 10
15.388167
 20
5.663902
 30
0.0
 10
15.368433
 20
5.666438
 30
0.0
 10
15.348645
 20
5.668974
 30
0.0
 10
15.105118
 20
5.193716
 30
0.0
 10
15.118622
 20
5.179329
 30
0.0
 10
15.131907
 20
5.164667
 30
0.0
 10
15.158420
 20
5.135012
 30
0.0
 10
15.210345
 20
5.074047
 30
0.0
 10
15.261167
 20
5.010878
 30
0.0
 10
15.310280
 20
4.945393
 30
0.0
 10
15.358236
 20
4.878200
 30
0.0
 10
15.405089
 20
4.809078
 30
0.0
 10
15.166909
 20
4.432322
 30
0.0
 10
15.084502
 20
4.445000
 30
0.0
 10
15.003198
 20
4.459387
 30
0.0
 10
14.923051
 20
4.475758
 30
0.0
 10
14.844062
 20
4.494389
 30
0.0
 10
14.766727
 20
4.515280
 30
0.0
 10
14.728307
 20
4.526304
 30
0.0
 10
14.709400
 20
4.532202
 30
0.0
 10
14.690769
 20
4.538156
 30
0.0
 10
14.365938
 20
4.114216
 30
0.0
 10
14.376687
 20
4.097569
 30
0.0
 10
14.387380
 20
4.080923
 30
0.0
 10
14.407996
 20
4.046802
 30
0.0
 10
14.448345
 20
3.977625
 30
0.0
 10
14.486764
 20
3.906243
 30
0.0
 10
14.523696
 20
3.833151
 30
0.0
 10
14.558974
 20
3.758351
 30
0.0
 10
14.592598
 20
3.682173
 30
0.0
 10
14.291193
 20
3.353925
 30
0.0
 10
14.212149
 20
3.381044
 30
0.0
 10
14.134538
 20
3.409818
 30
0.0
 10
14.058635
 20
3.440300
 30
0.0
 10
13.984387
 20
3.472767
 30
0.0
 10
13.911847
 20
3.506887
 30
0.0
 10
13.876293
 20
3.524967
 30
0.0
 10
13.858820
 20
3.534007
 30
0.0
 10
13.841291
 20
3.543322
 30
0.0
 10
13.446180
 20
3.184040
 30
0.0
 10
13.453842
 20
3.165685
 30
0.0
 10
13.461173
 20
3.147329
 30
0.0
 10
13.475560
 20
3.110398
 30
0.0
 10
13.502624
 20
3.034716
 30
0.0
 10
13.528035
 20
2.957711
 30
0.0
 10
13.551187
 20
2.879218
 30
0.0
 10
13.572353
 20
2.799347
 30
0.0
 10
13.591811
 20
2.718373
 30
0.0
 10
13.236498
 20
2.449380
 30
0.0
 10
13.163682
 20
2.490060
 30
0.0
 10
13.092576
 20
2.532118
 30
0.0
 10
13.023453
 20
2.575829
 30
0.0
 10
12.955984
 20
2.620974
 30
0.0
 10
12.890776
 20
2.667551
 30
0.0
 10
12.859191
 20
2.691529
 30
0.0
 10
12.843371
 20
2.703711
 30
0.0
 10
12.827827
 20
2.715838
 30
0.0
 10
12.374893
 20
2.433065
 30
0.0
 10
12.379138
 20
2.413551
 30
0.0
 10
12.383051
 20
2.394369
 30
0.0
 10
12.390658
 20
2.355123
 30
0.0
 10
12.403942
 20
2.276133
 30
0.0
 10
12.414967
 20
2.195987
 30
0.0
 10
12.423731
 20
2.114407
 30
0.0
 10
12.430456
 20
2.032000
 30
0.0
 10
12.434976
 20
1.948767
 30
0.0
 10
12.037605
 20
1.747518
 30
0.0
 10
11.973278
 20
1.800600
 30
0.0
 10
11.910605
 20
1.854784
 30
0.0
 10
11.850522
 20
1.910071
 30
0.0
 10
11.792369
 20
1.966516
 30
0.0
 10
11.736476
 20
2.024118
 30
0.0
 10
11.709411
 20
2.053167
 30
0.0
 10
11.696127
 20
2.067829
 30
0.0
 10
11.683173
 20
2.082822
 30
0.0
 10
11.187024
 20
1.885267
 30
0.0
 10
11.187576
 20
1.865478
 30
0.0
 10
11.188127
 20
1.845745
 30
0.0
 10
11.188402
 20
1.805947
 30
0.0
 10
11.187576
 20
1.725800
 30
0.0
 10
11.183882
 20
1.644772
 30
0.0
 10
11.177984
 20
1.563247
 30
0.0
 10
11.169771
 20
1.480840
 30
0.0
 10
11.159629
 20
1.398103
 30
0.0
 10
10.732602
 20
1.271103
 30
0.0
 10
10.678749
 20
1.334933
 30
0.0
 10
10.626769
 20
1.399260
 30
0.0
 10
10.577380
 20
1.464469
 30
0.0
 10
10.530251
 20
1.530229
 30
0.0
 10
10.485658
 20
1.596816
 30
0.0
 10
10.464216
 20
1.630385
 30
0.0
 10
10.453798
 20
1.647307
 30
0.0
 10
10.443655
 20
1.664284
 30
0.0
 10
9.920111
 20
1.558451
 30
0.0
 10
9.917300
 20
1.538938
 30
0.0
 10
9.914158
 20
1.519480
 30
0.0
 10
9.907433
 20
1.480234
 30
0.0
 10
9.892165
 20
1.401520
 30
0.0
 10
9.874415
 20
1.322476
 30
0.0
 10
9.853800
 20
1.243211
 30
0.0
 10
9.831200
 20
1.163616
 30
0.0
 10
9.806120
 20
1.084020
 30
0.0
 10
9.363549
 20
1.035458
 30
0.0
 10
9.321822
 20
1.107722
 30
0.0
 10
9.282300
 20
1.180262
 30
0.0
 10
9.245313
 20
1.253354
 30
0.0
 10
9.210587
 20
1.326445
 30
0.0
 10
9.178451
 20
1.400087
 30
0.0
 10
9.163458
 20
1.436798
 30
0.0
 10
9.156402
 20
1.455429
 30
0.0
 10
9.149347
 20
1.473784
 30
0.0
 10
8.615385
 20
1.463311
 30
0.0
 10
8.608880
 20
1.444405
 30
0.0
 10
8.602431
 20
1.425774
 30
0.0
 10
8.588871
 20
1.388236
 30
0.0
 10
8.559822
 20
1.313767
 30
0.0
 10
8.528182
 20
1.239243
 30
0.0
 10
8.494062
 20
1.164718
 30
0.0
 10
8.457351
 20
1.090800
 30
0.0
 10
8.418711
 20
1.016827
 30
0.0
 10
7.974211
 20
1.047916
 30
0.0
 10
7.945989
 20
1.126629
 30
0.0
 10
7.920302
 20
1.205067
 30
0.0
 10
7.896876
 20
1.283284
 30
0.0
 10
7.875709
 20
1.361722
 30
0.0
 10
7.857353
 20
1.439609
 30
0.0
 10
7.849140
 20
1.478580
 30
0.0
 10
7.845502
 20
1.498038
 30
0.0
 10
7.841809
 20
1.517496
 30
0.0
 10
7.314351
 20
1.602438
 30
0.0
 10
7.305035
 20
1.585240
 30
0.0
 10
7.295169
 20
1.568042
 30
0.0
 10
7.275105
 20
1.533591
 30
0.0
 10
7.233047
 20
1.465296
 30
0.0
 10
7.188784
 20
1.397551
 30
0.0
 10
7.141655
 20
1.330413
 30
0.0
 10
7.092542
 20
1.264047
 30
0.0
 10
7.041169
 20
1.198342
 30
0.0
 10
6.609622
 20
1.308365
 30
0.0
 10
6.595842
 20
1.390496
 30
0.0
 10
6.584542
 20
1.472351
 30
0.0
 10
6.575502
 20
1.553931
 30
0.0
 10
6.568722
 20
1.634629
 30
0.0
 10
6.564478
 20
1.714500
 30
0.0
 10
6.563376
 20
1.754298
 30
0.0
 10
6.563100
 20
1.774307
 30
0.0
 10
6.563100
 20
1.794096
 30
0.0
 10
6.059289
 20
1.971587
 30
0.0
 10
6.046887
 20
1.956373
 30
0.0
 10
6.034209
 20
1.941105
 30
0.0
 10
6.008522
 20
1.910953
 30
0.0
 10
5.954889
 20
1.851091
 30
0.0
 10
5.898996
 20
1.792387
 30
0.0
 10
5.840898
 20
1.734840
 30
0.0
 10
5.780760
 20
1.678396
 30
0.0
 10
5.718362
 20
1.622778
 30
0.0
 10
5.313385
 20
1.808207
 30
0.0
 10
5.314542
 20
1.891440
 30
0.0
 10
5.317905
 20
1.974123
 30
0.0
 10
5.323582
 20
2.055702
 30
0.0
 10
5.331465
 20
2.136400
 30
0.0
 10
5.341607
 20
2.215996
 30
0.0
 10
5.347560
 20
2.255243
 30
0.0
 10
5.350922
 20
2.274700
 30
0.0
 10
5.354340
 20
2.294158
 30
0.0
 10
4.890327
 20
2.559183
 30
0.0
 10
4.875389
 20
2.546229
 30
0.0
 10
4.860175
 20
2.533496
 30
0.0
 10
4.829362
 20
2.508416
 30
0.0
 10
4.766193
 20
2.459302
 30
0.0
 10
4.700709
 20
2.411567
 30
0.0
 10
4.633240
 20
2.365320
 30
0.0
 10
4.563842
 20
2.320176
 30
0.0
 10
4.492680
 20
2.276685
 30
0.0
 10
4.127224
 20
2.531512
 30
0.0
 10
4.143320
 20
2.613367
 30
0.0
 10
4.161345
 20
2.693789
 30
0.0
 10
4.181409
 20
2.773109
 30
0.0
 10
4.203402
 20
2.851272
 30
0.0
 10
4.227711
 20
2.927505
 30
0.0
 10
4.240665
 20
2.965318
 30
0.0
 10
4.247444
 20
2.983949
 30
0.0
 10
4.254224
 20
3.002580
 30
0.0
 10
3.845278
 20
3.345767
 30
0.0
 10
3.828080
 20
3.335845
 30
0.0
 10
3.810827
 20
3.325978
 30
0.0
 10
3.776155
 20
3.306796
 30
0.0
 10
3.704994
 20
3.269809
 30
0.0
 10
3.631902
 20
3.234532
 30
0.0
 10
3.557433
 20
3.200962
 30
0.0
 10
3.481200
 20
3.169047
 30
0.0
 10
3.403313
 20
3.139171
 30
0.0
 10
3.089231
 20
3.454962
 30
0.0
 10
3.119658
 20
3.532574
 30
0.0
 10
3.151849
 20
3.608476
 30
0.0
 10
3.185749
 20
3.683000
 30
0.0
 10
3.221578
 20
3.755816
 30
0.0
 10
3.258840
 20
3.826647
 30
0.0
 10
3.278298
 20
3.861373
 30
0.0
 10
3.288165
 20
3.878571
 30
0.0
 10
3.298307
 20
3.895494
 30
0.0
 10
2.957105
 20
4.306425
 30
0.0
 10
2.938474
 20
4.299645
 30
0.0
 10
2.919898
 20
4.293140
 30
0.0
 10
2.882029
 20
4.280462
 30
0.0
 10
2.805576
 20
4.256760
 30
0.0
 10
2.727689
 20
4.235042
 30
0.0
 10
2.648093
 20
4.215254
 30
0.0
 10
2.567395
 20
4.197780
 30
0.0
 10
2.485540
 20
4.181960
 30
0.0
 10
2.232642
 20
4.548849
 30
0.0
 10
2.276684
 20
4.619680
 30
0.0
 10
2.321829
 20
4.688858
 30
0.0
 10
2.368682
 20
4.755996
 30
0.0
 10
2.416693
 20
4.821205
 30
0.0
 10
2.466082
 20
4.884429
 30
0.0
 10
2.491438
 20
4.915187
 30
0.0
 10
2.504447
 20
4.930125
 30
0.0
 10
2.517125
 20
4.945118
 30
0.0
 10
2.254967
 20
5.410178
 30
0.0
 10
2.235509
 20
5.407091
 30
0.0
 10
2.215996
 20
5.404005
 30
0.0
 10
2.176474
 20
5.398051
 30
0.0
 10
2.096933
 20
5.388185
 30
0.0
 10
2.016180
 20
5.380854
 30
0.0
 10
1.934655
 20
5.375782
 30
0.0
 10
1.851918
 20
5.372971
 30
0.0
 10
1.768684
 20
5.372089
 30
0.0
 10
1.585516
 20
5.777949
 30
0.0
 10
1.641409
 20
5.840016
 30
0.0
 10
1.698129
 20
5.899878
 30
0.0
 10
1.756007
 20
5.957700
 30
0.0
 10
1.814987
 20
6.013318
 30
0.0
 10
1.875069
 20
6.066676
 30
0.0
 10
1.905551
 20
6.092307
 30
0.0
 10
1.920820
 20
6.104765
 30
0.0
 10
1.936033
 20
6.117167
 30
0.0
 10
1.761078
 20
6.621804
 30
0.0
 10
1.741289
 20
6.622080
 30
0.0
 10
1.721556
 20
6.622356
 30
0.0
 10
1.681758
 20
6.623734
 30
0.0
 10
1.601611
 20
6.628254
 30
0.0
 10
1.520913
 20
6.635585
 30
0.0
 10
1.439609
 20
6.644900
 30
0.0
 10
1.358029
 20
6.656752
 30
0.0
 10
1.275622
 20
6.670863
 30
0.0
 10
1.168135
 20
7.103236
 30
0.0
 10
1.234171
 20
7.154058
 30
0.0
 10
1.300758
 20
7.202896
 30
0.0
 10
1.367951
 20
7.249418
 30
0.0
 10
1.435971
 20
7.293736
 30
0.0
 10
1.504542
 20
7.335243
 30
0.0
 10
1.538938
 20
7.355252
 30
0.0
 10
1.556467
 20
7.364898
 30
0.0
 10
1.573665
 20
7.374158
 30
0.0
 10
1.491533
 20
7.901947
 30
0.0
 10
1.472076
 20
7.905585
 30
0.0
 10
1.452618
 20
7.909554
 30
0.0
 10
1.413922
 20
7.918042
 30
0.0
 10
1.335760
 20
7.936949
 30
0.0
 10
1.257873
 20
7.958391
 30
0.0
 10
1.179380
 20
7.982094
 30
0.0
 10
1.101218
 20
8.008332
 30
0.0
 10
1.022780
 20
8.037105
 30
0.0
 10
0.994007
 20
8.481605
 30
0.0
 10
1.067924
 20
8.520024
 30
0.0
 10
1.142449
 20
8.556129
 30
0.0
 10
1.216918
 20
8.589698
 30
0.0
 10
1.291718
 20
8.621062
 30
0.0
 10
1.366518
 20
8.649836
 30
0.0
 10
1.404056
 20
8.663120
 30
0.0
 10
1.422687
 20
8.669569
 30
0.0
 10
1.441593
 20
8.675798
 30
0.0
 10
1.454878
 20
9.209760
 30
0.0
 10
1.436522
 20
9.216816
 30
0.0
 10
1.418167
 20
9.224147
 30
0.0
 10
1.381180
 20
9.239416
 30
0.0
 10
1.307813
 20
9.271827
 30
0.0
 10
1.234998
 20
9.306829
 30
0.0
 10
1.162182
 20
9.344367
 30
0.0
 10
1.089642
 20
9.384165
 30
0.0
 10
1.017709
 20
9.426222
 30
0.0
 10
1.068751
 20
9.868738
 30
0.0
 10
1.148622
 20
9.893322
 30
0.0
 10
1.227942
 20
9.915591
 30
0.0
 10
1.307538
 20
9.935656
 30
0.0
 10
1.386582
 20
9.953129
 30
0.0
 10
1.465296
 20
9.967791
 30
0.0
 10
1.504542
 20
9.974296
 30
0.0
 10
1.524276
 20
9.977383
 30
0.0
 10
1.543734
 20
9.979918
 30
0.0
 10
1.652433
 20
10.502911
 30
0.0
 10
1.635456
 20
10.513329
 30
0.0
 10
1.618533
 20
10.523802
 30
0.0
 10
1.585240
 20
10.545245
 30
0.0
 10
1.518929
 20
10.590389
 30
0.0
 10
1.453169
 20
10.637794
 30
0.0
 10
1.388236
 20
10.687734
 30
0.0
 10
1.324184
 20
10.739989
 30
0.0
 10
1.260684
 20
10.794173
 30
0.0
 10
1.389944
 20
11.220318
 30
0.0
 10
1.472902
 20
11.230185
 30
0.0
 10
1.555309
 20
11.238067
 30
0.0
 10
1.636889
 20
11.243469
 30
0.0
 10
1.717862
 20
11.246556
 30
0.0
 10
1.798064
 20
11.247107
 30
0.0
 10
1.837807
 20
11.246556
 30
0.0
 10
1.857595
 20
11.246005
 30
0.0
 10
1.877329
 20
11.245123
 30
0.0
 10
2.077420
 20
11.740169
 30
0.0
 10
2.062758
 20
11.753453
 30
0.0
 10
2.048095
 20
11.766683
 30
0.0
 10
2.018991
 20
11.793802
 30
0.0
 10
1.961720
 20
11.849971
 30
0.0
 10
1.905551
 20
11.908345
 30
0.0
 10
1.850816
 20
11.969034
 30
0.0
 10
1.796907
 20
12.031982
 30
0.0
 10
1.744155
 20
12.096585
 30
0.0
 10
1.947609
 20
12.492854
 30
0.0
 10
2.030898
 20
12.487782
 30
0.0
 10
2.113304
 20
12.480727
 30
0.0
 10
2.194553
 20
12.471687
 30
0.0
 10
2.274700
 20
12.460111
 30
0.0
 10
2.353744
 20
12.446276
 30
0.0
 10
2.392660
 20
12.438669
 30
0.0
 10
2.412173
 20
12.434425
 30
0.0
 10
2.431355
 20
12.430180
 30
0.0
 10
2.716665
 20
12.881460
 30
0.0
 10
2.704538
 20
12.897280
 30
0.0
 10
2.692687
 20
12.913100
 30
0.0
 10
2.668709
 20
12.944960
 30
0.0
 10
2.622407
 20
13.010445
 30
0.0
 10
2.577813
 20
13.077913
 30
0.0
 10
2.534653
 20
13.147311
 30
0.0
 10
2.492871
 20
13.218749
 30
0.0
 10
2.452522
 20
13.291840
 30
0.0
 10
2.723444
 20
13.645445
 30
0.0
 10
2.804418
 20
13.625711
 30
0.0
 10
2.884013
 20
13.603938
 30
0.0
 10
2.962506
 20
13.580236
 30
0.0
 10
3.039236
 20
13.554825
 30
0.0
 10
3.114587
 20
13.527209
 30
0.0
 10
3.151573
 20
13.512491
 30
0.0
 10
3.169929
 20
13.504885
 30
0.0
 10
3.188284
 20
13.497278
 30
0.0
 10
3.549496
 20
13.890405
 30
0.0
 10
3.540456
 20
13.908209
 30
0.0
 10
3.531471
 20
13.925683
 30
0.0
 10
3.513667
 20
13.961236
 30
0.0
 10
3.479822
 20
14.034051
 30
0.0
 10
3.447907
 20
14.108576
 30
0.0
 10
3.417700
 20
14.184478
 30
0.0
 10
3.389478
 20
14.262089
 30
0.0
 10
3.362689
 20
14.341409
 30
0.0
 10
3.692316
 20
14.640829
 30
0.0
 10
3.768494
 20
14.606985
 30
0.0
 10
3.843293
 20
14.571431
 30
0.0
 10
3.916109
 20
14.534169
 30
0.0
 10
3.987216
 20
14.495198
 30
0.0
 10
4.056393
 20
14.454574
 30
0.0
 10
4.090238
 20
14.433683
 30
0.0
 10
4.106885
 20
14.422989
 30
0.0
 10
4.123256
 20
14.412240
 30
0.0
 10
4.549124
 20
14.734536
 30
0.0
 10
4.543227
 20
14.753443
 30
0.0
 10
4.537549
 20
14.772349
 30
0.0
 10
4.526580
 20
14.810714
 30
0.0
 10
4.506240
 20
14.888325
 30
0.0
 10
4.487885
 20
14.967094
 30
0.0
 10
4.471789
 20
15.047516
 30
0.0
 10
4.458009
 20
15.128820
 30
0.0
 10
4.445827
 20
15.211502
 30
0.0
 10
4.823740
 20
15.447423
 30
0.0
 10
4.892587
 20
15.400294
 30
0.0
 10
4.959504
 20
15.352062
 30
0.0
 10
5.024658
 20
15.302398
 30
0.0
 10
5.087607
 20
15.251576
 30
0.0
 10
5.148571
 20
15.199100
 30
0.0
 10
5.177951
 20
15.172531
 30
0.0
 10
5.192613
 20
15.159027
 30
0.0
 10
5.207000
 20
15.145467
 30
0.0
 10
5.683415
 20
15.386458
 30
0.0
 10
5.680825
 20
15.406247
 30
0.0
 10
5.678620
 20
15.425980
 30
0.0
 10
5.674651
 20
15.465502
 30
0.0
 10
5.668422
 20
15.545373
 30
0.0
 10
5.664784
 20
15.626347
 30
0.0
 10
5.663351
 20
15.708202
 30
0.0
 10
5.663902
 20
15.790885
 30
0.0
 10
5.666713
 20
15.874173
 30
0.0
 10
6.080787
 20
16.038987
 30
0.0
 10
6.140042
 20
15.980282
 30
0.0
 10
6.197589
 20
15.920696
 30
0.0
 10
6.252655
 20
15.860338
 30
0.0
 10
6.305407
 20
15.799098
 30
0.0
 10
6.355953
 20
15.736700
 30
0.0
 10
6.380207
 20
15.705116
 30
0.0
 10
6.392058
 20
15.689296
 30
0.0
 10
6.403909
 20
15.673200
 30
0.0
 10
6.915878
 20
15.825611
 30
0.0
 10
6.916980
 20
15.845345
 30
0.0
 10
6.918138
 20
15.865133
 30
0.0
 10
6.921224
 20
15.904656
 30
0.0
 10
6.929382
 20
15.984527
 30
0.0
 10
6.940131
 20
16.064673
 30
0.0
 10
6.953415
 20
16.145647
 30
0.0
 10
6.968905
 20
16.226676
 30
0.0
 10
6.986709
 20
16.308200
 30
0.0
 10
7.423271
 20
16.396560
 30
0.0
 10
7.471282
 20
16.328265
 30
0.0
 10
7.516978
 20
16.259363
 30
0.0
 10
7.560469
 20
16.189965
 30
0.0
 10
7.601645
 20
16.120236
 30
0.0
 10
7.640064
 20
16.049956
 30
0.0
 10
7.658365
 20
16.014403
 30
0.0
 10
7.667129
 20
15.996929
 30
0.0
 10
7.675893
 20
15.979125
 30
0.0
 10
8.206713
 20
16.037278
 30
0.0
 10
8.211234
 20
16.056736
 30
0.0
 10
8.216029
 20
16.075918
 30
0.0
 10
8.226227
 20
16.114338
 30
0.0
 10
8.248496
 20
16.191398
 30
0.0
 10
8.273631
 20
16.268403
 30
0.0
 10
8.301026
 20
16.345462
 30
0.0
 10
8.330627
 20
16.422798
 30
0.0
 10
8.362542
 20
16.499858
 30
0.0
 10
8.807869
 20
16.508567
 30
0.0
 10
8.807869
 20
16.508567
 30
0.0
  0
ENDSEC
  0
SECTION
  2
OBJECTS
  0
DICTIONARY
  5
C
330
0
100
AcDbDictionary
  3
ACAD_GROUP
350
D
  3
ACAD_MLINESTYLE
350
17
  0
DICTIONARY
  5
D
330
C
100
AcDbDictionary
  0
DICTIONARY
  5
1A
330
C
100
AcDbDictionary
  0
DICTIONARY
  5
17
330
C
100
AcDbDictionary
  3
STANDARD
350
18
  0
DICTIONARY
  5
19
330
C
100
AcDbDictionary
  0
ENDSEC
  0
EOF
