<?xml version="1.0" encoding="UTF-8" standalone="no"?>
<!-- Created with Inkscape (http://www.inkscape.org/) -->

<svg
   xmlns:dc="http://purl.org/dc/elements/1.1/"
   xmlns:cc="http://creativecommons.org/ns#"
   xmlns:rdf="http://www.w3.org/1999/02/22-rdf-syntax-ns#"
   xmlns:svg="http://www.w3.org/2000/svg"
   xmlns="http://www.w3.org/2000/svg"
   xmlns:sodipodi="http://sodipodi.sourceforge.net/DTD/sodipodi-0.dtd"
   xmlns:inkscape="http://www.inkscape.org/namespaces/inkscape"
   width="95.000298mm"
   height="93.773293mm"
   viewBox="0 0 336.61523 332.26757"
   id="svg2"
   version="1.1"
   inkscape:version="0.91 r13725"
   sodipodi:docname="phone stand pad.svg">
  <sodipodi:namedview
     id="base"
     pagecolor="#ffffff"
     bordercolor="#666666"
     borderopacity="1.0"
     inkscape:pageopacity="0.0"
     inkscape:pageshadow="2"
     inkscape:zoom="1.4"
     inkscape:cx="101.66493"
     inkscape:cy="150.51136"
     inkscape:document-units="px"
     inkscape:current-layer="layer1"
     showgrid="true"
     inkscape:snap-bbox="true"
     inkscape:bbox-paths="true"
     inkscape:bbox-nodes="true"
     inkscape:snap-bbox-edge-midpoints="true"
     inkscape:snap-bbox-midpoints="true"
     inkscape:object-paths="true"
     inkscape:snap-intersection-paths="true"
     inkscape:object-nodes="true"
     inkscape:snap-smooth-nodes="true"
     inkscape:snap-object-midpoints="true"
     inkscape:snap-center="true"
     inkscape:snap-global="true"
     inkscape:window-width="1920"
     inkscape:window-height="1029"
     inkscape:window-x="0"
     inkscape:window-y="25"
     inkscape:window-maximized="1"
     fit-margin-top="0"
     fit-margin-left="0"
     fit-margin-right="0"
     fit-margin-bottom="0">
    <inkscape:grid
       spacingy="3.543307"
       spacingx="3.543307"
       type="xygrid"
       id="grid4138"
       empcolor="#3f3fff"
       empopacity="0.43921569"
       originx="-150.58984"
       originy="-613.39344" />
  </sodipodi:namedview>
  <defs
     id="defs4" />
  <metadata
     id="metadata7">
    <rdf:RDF>
      <cc:Work
         rdf:about="">
        <dc:format>image/svg+xml</dc:format>
        <dc:type
           rdf:resource="http://purl.org/dc/dcmitype/StillImage" />
        <dc:title></dc:title>
      </cc:Work>
    </rdf:RDF>
  </metadata>
  <g
     inkscape:label="Layer 1"
     inkscape:groupmode="layer"
     id="layer1"
     transform="translate(-150.58984,-106.70117)">
    <path
       style="color:#000000;font-style:normal;font-variant:normal;font-weight:normal;font-stretch:normal;font-size:medium;line-height:normal;font-family:sans-serif;text-indent:0;text-align:start;text-decoration:none;text-decoration-line:none;text-decoration-style:solid;text-decoration-color:#000000;letter-spacing:normal;word-spacing:normal;text-transform:none;direction:ltr;block-progression:tb;writing-mode:lr-tb;baseline-shift:baseline;text-anchor:start;white-space:normal;clip-rule:nonzero;display:inline;overflow:visible;visibility:visible;opacity:0.8;isolation:auto;mix-blend-mode:normal;color-interpolation:sRGB;color-interpolation-filters:linearRGB;solid-color:#000000;solid-opacity:1;fill:#000000;fill-opacity:1;fill-rule:nonzero;stroke:none;stroke-width:35.43307114;stroke-linecap:square;stroke-linejoin:miter;stroke-miterlimit:4;stroke-dasharray:none;stroke-dashoffset:0;stroke-opacity:1;color-rendering:auto;image-rendering:auto;shape-rendering:auto;text-rendering:auto;enable-background:accumulate"
       d="M 203.74023 -0.17773438 L 203.74023 307.86523 L 180.70898 307.86523 L 180.70898 332.44531 L 188.91016 331.64062 L 196.97461 330.45508 L 204.90234 328.89844 L 212.68945 326.97852 L 220.32422 324.70508 L 227.79688 322.08594 L 235.09961 319.13477 L 242.22656 315.85742 L 249.16406 312.26562 L 255.90625 308.36914 L 262.44336 304.17383 L 268.76562 299.69336 L 274.86719 294.93555 L 280.73633 289.9082 L 286.36719 284.62305 L 291.74805 279.08984 L 296.87109 273.31641 L 301.72656 267.31445 L 306.30859 261.08984 L 310.60547 254.65625 L 314.60938 248.01953 L 318.31055 241.19141 L 321.70312 234.18164 L 324.77344 226.99805 L 327.51758 219.65039 L 329.92383 212.15039 L 331.98633 204.50391 L 333.69141 196.72461 L 335.0332 188.81836 L 336.00391 180.79492 L 336.59375 172.66797 L 336.79297 164.44141 L 336.62695 157.03516 L 336.14258 149.69922 L 335.34766 142.44336 L 334.24609 135.27148 L 332.84375 128.19336 L 331.14844 121.2168 L 329.16406 114.34766 L 326.89844 107.59375 L 321.54688 94.466797 L 315.13867 81.890625 L 307.72656 69.929688 L 299.35742 58.642578 L 290.07812 48.089844 L 279.94141 38.330078 L 268.99219 29.425781 L 257.28125 21.4375 L 251.15234 17.802734 L 244.85352 14.421875 L 238.38867 11.298828 L 231.76172 8.4414062 L 224.98242 5.8574219 L 218.05469 3.5566406 L 210.98438 1.5429688 L 203.91797 -0.13867188 L 203.91797 -0.17773438 L 203.74023 -0.17773438 z M 132.875 -0.06640625 L 125.63477 1.6582031 L 118.56836 3.6699219 L 111.64453 5.96875 L 104.86719 8.5507812 L 98.244141 11.40625 L 91.78125 14.527344 L 85.486328 17.90625 L 79.359375 21.537109 L 67.654297 29.519531 L 56.707031 38.416016 L 46.572266 48.167969 L 37.294922 58.712891 L 28.925781 69.992188 L 21.511719 81.943359 L 15.101562 94.509766 L 9.7460938 107.62695 L 7.4785156 114.37891 L 5.4902344 121.24219 L 3.7929688 128.21484 L 2.3867188 135.28906 L 1.28125 142.45508 L 0.48046875 149.70898 L -0.0078125 157.03906 L -0.17773438 164.44141 L 0.029296875 172.66211 L 0.62304688 180.78516 L 1.5996094 188.80273 L 2.9472656 196.70312 L 4.6582031 204.47852 L 6.7226562 212.11719 L 9.1328125 219.61328 L 11.878906 226.95508 L 14.953125 234.13281 L 18.347656 241.13672 L 22.050781 247.95898 L 26.056641 254.58984 L 30.353516 261.01953 L 34.935547 267.23633 L 39.792969 273.23438 L 44.914062 279.00195 L 50.294922 284.53125 L 55.923828 289.81055 L 61.791016 294.83203 L 67.890625 299.58594 L 74.212891 304.0625 L 80.748047 308.25391 L 87.486328 312.14648 L 94.421875 315.73633 L 101.54492 319.00977 L 108.84375 321.95703 L 116.31445 324.57227 L 123.94336 326.84375 L 131.72656 328.76172 L 139.65039 330.31836 L 147.70898 331.50195 L 155.90625 332.30664 L 155.90625 307.86523 L 132.875 307.86523 L 132.875 -0.06640625 z M 115.1582 25.300781 L 115.1582 306.8457 L 107.21484 303.38281 L 104.37695 302.18359 L 104.42383 302.13672 L 102.68945 301.36523 L 102.67578 301.37891 L 102.44531 301.25586 L 94.880859 297.21484 L 91.990234 295.67188 L 90.462891 294.68945 L 83.615234 290.2793 L 81.931641 289.19531 L 82 289.12695 L 80.539062 288.08398 L 80.464844 288.1582 L 78.552734 286.66992 L 72.341797 281.83203 L 71.21875 280.95703 L 68.365234 278.34766 L 61.378906 271.81055 L 61.355469 271.83398 L 58.806641 269.05469 L 53.509766 263.12109 L 48.535156 256.91602 L 46.257812 254.00195 L 46.289062 253.9707 L 40.603516 245.4043 L 38.720703 242.49023 L 38.097656 241.33008 L 34.03125 233.75195 L 33 231.82812 L 33.066406 231.76172 L 32.25 230.07227 L 32.191406 230.13086 L 31.621094 228.77539 L 27.960938 220.08594 L 27.265625 218.43164 L 26.613281 216.4082 L 23.480469 206.67578 L 23.294922 206.09766 L 23.324219 206.06836 L 22.8125 204.07617 L 22.769531 204.11914 L 22.181641 201.61328 L 20.273438 192.85547 L 18.890625 184.00586 L 18.035156 175.0918 L 17.712891 166.13281 L 18.167969 154.4707 L 19.503906 143.00391 L 21.693359 131.76953 L 24.708984 120.81055 L 28.521484 110.16406 L 33.103516 99.873047 L 38.429688 89.978516 L 44.466797 80.517578 L 51.193359 71.53125 L 58.576172 63.058594 L 66.591797 55.144531 L 75.210938 47.824219 L 84.404297 41.138672 L 94.144531 35.130859 L 104.40625 29.837891 L 115.1582 25.300781 z M 221.45703 25.484375 L 230.85742 29.597656 L 232.16992 30.152344 L 232.14844 30.173828 L 242.78906 35.71875 L 244.56836 36.667969 L 245.51367 37.275391 L 253.48438 42.398438 L 254.625 43.130859 L 254.57812 43.177734 L 256.04102 44.220703 L 256.09375 44.167969 L 257.46289 45.232422 L 264.56445 50.755859 L 265.34961 51.367188 L 267.38867 53.228516 L 275.20508 60.490234 L 275.21484 60.480469 L 276.30664 61.669922 L 282.70898 68.720703 L 288.6543 76.164062 L 290.32422 78.298828 L 290.30078 78.322266 L 296.22461 87.271484 L 297.86914 89.8125 L 298.42578 90.847656 L 302.61133 98.638672 L 303.5918 100.46289 L 303.52734 100.52734 L 304.34766 102.21484 L 304.40234 102.16016 L 304.94727 103.45508 L 308.63672 112.20117 L 309.33789 113.86133 L 310.00195 115.91992 L 313.09375 125.5 L 313.3125 126.17773 L 313.27734 126.21289 L 313.78906 128.20312 L 313.83594 128.15625 L 314.49219 130.94141 L 316.99805 143.64453 L 318.4043 156.51562 L 318.90234 166.13281 L 318.5332 173.36719 L 318.5332 173.375 L 318.39062 175.73633 L 318.41211 175.75781 L 318.34961 176.42383 L 317.70508 183.26562 L 316.75 190.07227 L 316.0918 194.26367 L 316.07031 194.28516 L 314.72461 200.51172 L 313.875 204.14844 L 313.78125 204.05469 L 313.25586 206.0332 L 313.34961 206.12695 L 312.6543 208.29102 L 310.41016 215.28125 L 309.38672 218.46875 L 307.68164 222.5293 L 305.45703 227.82227 L 304.46875 230.17578 L 304.34961 230.05664 L 303.51953 231.73242 L 303.66016 231.87305 L 300.82422 237.16992 L 299.12891 240.33398 L 297.94727 242.54102 L 291.45898 252.59961 L 291.4082 252.54883 L 290.31445 253.95898 L 290.41602 254.06055 L 283.21289 263.29492 L 275.33008 271.9043 L 275.16602 271.74023 L 273.94531 273.02344 L 274.07422 273.15234 L 272.13281 274.92969 L 265.4707 281.03125 L 260.89258 284.60352 L 260.55273 284.86914 L 256.23242 288.24023 L 256.0293 288.03711 L 254.55664 289.06641 L 254.76562 289.27539 L 244.71289 295.75781 L 234.0332 301.47266 L 233.89453 301.33398 L 232.14844 302.09375 L 232.33398 302.2793 L 221.63477 306.80273 L 221.63477 306.67188 L 221.45703 306.75 L 221.45703 25.484375 z "
       transform="translate(150.58984,106.70117)"
       id="path4136" />
    <g
       id="g4293"
       transform="translate(-425.1964,-89.691344)" />
    <g
       id="g4339-7-7"
       transform="translate(-178.9366,304.72441)"
       style="fill:#800000" />
  </g>
</svg>
