<?xml version="1.0" encoding="UTF-8" standalone="no"?>
<!-- Created with Inkscape (http://www.inkscape.org/) -->

<svg
   xmlns:dc="http://purl.org/dc/elements/1.1/"
   xmlns:cc="http://creativecommons.org/ns#"
   xmlns:rdf="http://www.w3.org/1999/02/22-rdf-syntax-ns#"
   xmlns:svg="http://www.w3.org/2000/svg"
   xmlns="http://www.w3.org/2000/svg"
   xmlns:sodipodi="http://sodipodi.sourceforge.net/DTD/sodipodi-0.dtd"
   xmlns:inkscape="http://www.inkscape.org/namespaces/inkscape"
   width="77mm"
   height="117mm"
   viewBox="0 0 272.83465 414.56693"
   id="svg2"
   version="1.1"
   inkscape:version="0.91 r13725"
   sodipodi:docname="phone stand pad 2.svg">
  <sodipodi:namedview
     id="base"
     pagecolor="#ffffff"
     bordercolor="#666666"
     borderopacity="1.0"
     inkscape:pageopacity="0.0"
     inkscape:pageshadow="2"
     inkscape:zoom="1.4"
     inkscape:cx="30.821417"
     inkscape:cy="163.3389"
     inkscape:document-units="px"
     inkscape:current-layer="layer1"
     showgrid="true"
     inkscape:snap-bbox="true"
     inkscape:bbox-paths="true"
     inkscape:bbox-nodes="true"
     inkscape:snap-bbox-edge-midpoints="true"
     inkscape:snap-bbox-midpoints="true"
     inkscape:object-paths="true"
     inkscape:snap-intersection-paths="true"
     inkscape:object-nodes="true"
     inkscape:snap-smooth-nodes="true"
     inkscape:snap-object-midpoints="true"
     inkscape:snap-center="true"
     inkscape:snap-global="true"
     inkscape:window-width="1920"
     inkscape:window-height="1029"
     inkscape:window-x="0"
     inkscape:window-y="25"
     inkscape:window-maximized="1"
     fit-margin-top="0"
     fit-margin-left="0"
     fit-margin-right="0"
     fit-margin-bottom="0">
    <inkscape:grid
       spacingy="3.543307"
       spacingx="3.543307"
       type="xygrid"
       id="grid4138"
       empcolor="#3f3fff"
       empopacity="0.43921569"
       originx="242.71653"
       originy="-749.40946" />
  </sodipodi:namedview>
  <defs
     id="defs4" />
  <metadata
     id="metadata7">
    <rdf:RDF>
      <cc:Work
         rdf:about="">
        <dc:format>image/svg+xml</dc:format>
        <dc:type
           rdf:resource="http://purl.org/dc/dcmitype/StillImage" />
        <dc:title></dc:title>
      </cc:Work>
    </rdf:RDF>
  </metadata>
  <g
     inkscape:label="Layer 1"
     inkscape:groupmode="layer"
     id="layer1"
     transform="translate(242.71654,111.61418)">
    <g
       id="g4293"
       transform="translate(-425.1964,-89.691344)" />
    <g
       id="g4339-7-7"
       transform="translate(-178.9366,304.72441)"
       style="fill:#800000" />
    <path
       style="color:#000000;clip-rule:nonzero;display:inline;overflow:visible;visibility:visible;opacity:0.8;isolation:auto;mix-blend-mode:normal;color-interpolation:sRGB;color-interpolation-filters:linearRGB;solid-color:#000000;solid-opacity:1;fill:#ff0000;fill-opacity:1;fill-rule:nonzero;stroke:none;stroke-width:0.35433072;stroke-linecap:square;stroke-linejoin:miter;stroke-miterlimit:4;stroke-dasharray:none;stroke-dashoffset:0;stroke-opacity:1;color-rendering:auto;image-rendering:auto;shape-rendering:auto;text-rendering:auto;enable-background:accumulate"
       d="M 30.117188 3.5429688 A 26.574802 26.574802 0 0 0 3.5429688 30.117188 A 26.574802 26.574802 0 0 0 26.574219 56.425781 L 26.574219 358.14258 A 26.574802 26.574802 0 0 0 3.5429688 384.44922 A 26.574802 26.574802 0 0 0 30.117188 411.02344 A 26.574802 26.574802 0 0 0 56.425781 387.99219 L 216.41016 387.99219 A 26.574802 26.574802 0 0 0 242.7168 411.02344 A 26.574802 26.574802 0 0 0 269.29102 384.44922 A 26.574802 26.574802 0 0 0 246.25977 358.14453 L 246.25977 56.425781 A 26.574802 26.574802 0 0 0 269.29102 30.117188 A 26.574802 26.574802 0 0 0 242.7168 3.5429688 A 26.574802 26.574802 0 0 0 216.41211 26.574219 L 56.425781 26.574219 A 26.574802 26.574802 0 0 0 30.117188 3.5429688 z M 56.423828 33.662109 L 216.41602 33.662109 A 26.574802 26.574802 0 0 0 226.14258 50.857422 L 146.92578 182.88477 A 26.574802 26.574802 0 0 0 136.41797 180.70898 A 26.574802 26.574802 0 0 0 125.92188 182.90234 L 46.705078 50.875 A 26.574802 26.574802 0 0 0 56.423828 33.662109 z M 40.615234 54.498047 L 119.83203 186.52539 A 26.574802 26.574802 0 0 0 109.8418 207.2832 A 26.574802 26.574802 0 0 0 119.8418 228.02344 L 40.625 360.04883 A 26.574802 26.574802 0 0 0 33.662109 358.14062 L 33.662109 56.416016 A 26.574802 26.574802 0 0 0 40.615234 54.498047 z M 232.20898 54.519531 A 26.574802 26.574802 0 0 0 239.17383 56.427734 L 239.17383 358.15234 A 26.574802 26.574802 0 0 0 232.2207 360.06836 L 153.00391 228.03906 A 26.574802 26.574802 0 0 0 162.99219 207.2832 A 26.574802 26.574802 0 0 0 152.99414 186.54492 L 232.20898 54.519531 z M 146.91406 231.66406 L 226.13086 363.69141 A 26.574802 26.574802 0 0 0 216.41211 380.90625 L 56.419922 380.90625 A 26.574802 26.574802 0 0 0 46.695312 363.71094 L 125.91016 231.68359 A 26.574802 26.574802 0 0 0 136.41797 233.85742 A 26.574802 26.574802 0 0 0 146.91406 231.66406 z "
       id="path4148"
       transform="translate(-242.71654,-111.61418)" />
  </g>
</svg>
