  0
SECTION
  2
HEADER
  9
$ACADVER
  1
AC1014
  9
$HANDSEED
  5
FFFF
  9
$MEASUREMENT
 70
     1
  0
ENDSEC
  0
SECTION
  2
TABLES
  0
TABLE
  2
VPORT
  5
8
330
0
100
AcDbSymbolTable
 70
     4
  0
VPORT
  5
2E
330
8
100
AcDbSymbolTableRecord
100
AcDbViewportTableRecord
  2
*ACTIVE
 70
     0
 10
0.0
 20
0.0
 11
1.0
 21
1.0
 12
210.0
 22
148.5
 13
0.0
 23
0.0
 14
10.0
 24
10.0
 15
10.0
 25
10.0
 16
0.0
 26
0.0
 36
1.0
 17
0.0
 27
0.0
 37
0.0
 40
341.0
 41
1.24
 42
50.0
 43
0.0
 44
0.0
 50
0.0
 51
0.0
 71
     0
 72
   100
 73
     1
 74
     3
 75
     0
 76
     0
 77
     0
 78
     0
  0
ENDTAB
  0
TABLE
  2
LTYPE
  5
5
330
0
100
AcDbSymbolTable
 70
     1
  0
LTYPE
  5
14
330
5
100
AcDbSymbolTableRecord
100
AcDbLinetypeTableRecord
  2
BYBLOCK
 70
     0
  3

 72
    65
 73
     0
 40
0.0
  0
LTYPE
  5
15
330
5
100
AcDbSymbolTableRecord
100
AcDbLinetypeTableRecord
  2
BYLAYER
 70
     0
  3

 72
    65
 73
     0
 40
0.0
  0
LTYPE
  5
16
330
5
100
AcDbSymbolTableRecord
100
AcDbLinetypeTableRecord
  2
CONTINUOUS
 70
     0
  3
Solid line
 72
    65
 73
     0
 40
0.0
  0
ENDTAB
  0
TABLE
  2
LAYER
  5
2
100
AcDbSymbolTable
 70
2
  0
LAYER
  5
50
100
AcDbSymbolTableRecord
100
AcDbLayerTableRecord
  2
0
 70
0
  6
CONTINUOUS
  0
LAYER
  5
51
100
AcDbSymbolTableRecord
100
AcDbLayerTableRecord
  2
Layer_1
 70
0
  6
CONTINUOUS
  0
ENDTAB
  0
TABLE
  2
STYLE
  5
3
330
0
100
AcDbSymbolTable
 70
     1
  0
STYLE
  5
11
330
3
100
AcDbSymbolTableRecord
100
AcDbTextStyleTableRecord
  2
STANDARD
 70
     0
 40
0.0
 41
1.0
 50
0.0
 71
     0
 42
2.5
  3
txt
  4

  0
ENDTAB
  0
TABLE
  2
VIEW
  5
6
330
0
100
AcDbSymbolTable
 70
     0
  0
ENDTAB
  0
TABLE
  2
UCS
  5
7
330
0
100
AcDbSymbolTable
 70
     0
  0
ENDTAB
  0
TABLE
  2
APPID
  5
9
330
0
100
AcDbSymbolTable
 70
     2
  0
APPID
  5
12
330
9
100
AcDbSymbolTableRecord
100
AcDbRegAppTableRecord
  2
ACAD
 70
     0
  0
ENDTAB
  0
TABLE
  2
DIMSTYLE
  5
A
330
0
100
AcDbSymbolTable
 70
     1
  0
DIMSTYLE
105
27
330
A
100
AcDbSymbolTableRecord
100
AcDbDimStyleTableRecord
  2
ISO-25
 70
     0
  3

  4

  5

  6

  7

 40
1.0
 41
2.5
 42
0.625
 43
3.75
 44
1.25
 45
0.0
 46
0.0
 47
0.0
 48
0.0
140
2.5
141
2.5
142
0.0
143
0.03937007874016
144
1.0
145
0.0
146
1.0
147
0.625
 71
     0
 72
     0
 73
     0
 74
     0
 75
     0
 76
     0
 77
     1
 78
     8
170
     0
171
     3
172
     1
173
     0
174
     0
175
     0
176
     0
177
     0
178
     0
270
     2
271
     2
272
     2
273
     2
274
     3
340
11
275
     0
280
     0
281
     0
282
     0
283
     0
284
     8
285
     0
286
     0
287
     3
288
     0
  0
ENDTAB
  0
TABLE
  2
BLOCK_RECORD
  5
1
330
0
100
AcDbSymbolTable
 70
     1
  0
BLOCK_RECORD
  5
1F
330
1
100
AcDbSymbolTableRecord
100
AcDbBlockTableRecord
  2
*MODEL_SPACE
  0
BLOCK_RECORD
  5
1B
330
1
100
AcDbSymbolTableRecord
100
AcDbBlockTableRecord
  2
*PAPER_SPACE
  0
ENDTAB
  0
ENDSEC
  0
SECTION
  2
BLOCKS
  0
BLOCK
  5
20
330
1F
100
AcDbEntity
  8
0
100
AcDbBlockBegin
  2
*MODEL_SPACE
 70
     0
 10
0.0
 20
0.0
 30
0.0
  3
*MODEL_SPACE
  1

  0
ENDBLK
  5
21
330
1F
100
AcDbEntity
  8
0
100
AcDbBlockEnd
  0
BLOCK
  5
1C
330
1B
100
AcDbEntity
 67
     1
  8
0
100
AcDbBlockBegin
  2
*PAPER_SPACE
  1

  0
ENDBLK
  5
1D
330
1B
100
AcDbEntity
 67
     1
  8
0
100
AcDbBlockEnd
  0
ENDSEC
  0
SECTION
  2
ENTITIES
  0
LWPOLYLINE
  5
100
100
AcDbEntity
  8
Layer_1
 62
7
100
AcDbPolyline
 90
63
 70
0
 10
5.750002
 20
9.382345
 30
0.0
 10
5.750002
 20
0.688688
 30
0.0
 10
5.100009
 20
0.688688
 30
0.0
 10
5.100009
 20
-0.005016
 30
0.0
 10
5.331465
 20
0.017694
 30
0.0
 10
5.559061
 20
0.051153
 30
0.0
 10
5.782799
 20
0.095084
 30
0.0
 10
6.002569
 20
0.149269
 30
0.0
 10
6.218039
 20
0.213430
 30
0.0
 10
6.428934
 20
0.287348
 30
0.0
 10
6.635033
 20
0.370637
 30
0.0
 10
6.836172
 20
0.463131
 30
0.0
 10
7.031963
 20
0.564500
 30
0.0
 10
7.222243
 20
0.674467
 30
0.0
 10
7.406735
 20
0.792868
 30
0.0
 10
7.585163
 20
0.919317
 30
0.0
 10
7.757363
 20
1.053593
 30
0.0
 10
7.923003
 20
1.195476
 30
0.0
 10
8.081918
 20
1.344634
 30
0.0
 10
8.233778
 20
1.500794
 30
0.0
 10
8.378362
 20
1.663733
 30
0.0
 10
8.515394
 20
1.833121
 30
0.0
 10
8.644709
 20
2.008794
 30
0.0
 10
8.765977
 20
2.190364
 30
0.0
 10
8.878976
 20
2.377667
 30
0.0
 10
8.983431
 20
2.570372
 30
0.0
 10
9.079177
 20
2.768203
 30
0.0
 10
9.165828
 20
2.970940
 30
0.0
 10
9.243274
 20
3.178307
 30
0.0
 10
9.311184
 20
3.389974
 30
0.0
 10
9.369392
 20
3.605775
 30
0.0
 10
9.417513
 20
3.825324
 30
0.0
 10
9.455381
 20
4.048456
 30
0.0
 10
9.482777
 20
4.274895
 30
0.0
 10
9.499424
 20
4.504255
 30
0.0
 10
9.505046
 20
4.736427
 30
0.0
 10
9.500361
 20
4.945448
 30
0.0
 10
9.486691
 20
5.152485
 30
0.0
 10
9.464256
 20
5.357261
 30
0.0
 10
9.433167
 20
5.559668
 30
0.0
 10
9.393590
 20
5.759428
 30
0.0
 10
9.345745
 20
5.956322
 30
0.0
 10
9.289741
 20
6.150184
 30
0.0
 10
9.225800
 20
6.340795
 30
0.0
 10
9.074768
 20
6.711266
 30
0.0
 10
8.893914
 20
7.066194
 30
0.0
 10
8.684727
 20
7.403758
 30
0.0
 10
8.448532
 20
7.722305
 30
0.0
 10
8.186649
 20
8.020127
 30
0.0
 10
7.900569
 20
8.295569
 30
0.0
 10
7.591557
 20
8.546868
 30
0.0
 10
7.261049
 20
8.772315
 30
0.0
 10
7.088077
 20
8.874897
 30
0.0
 10
6.910310
 20
8.970312
 30
0.0
 10
6.727858
 20
9.058451
 30
0.0
 10
6.540831
 20
9.139094
 30
0.0
 10
6.349504
 20
9.212020
 30
0.0
 10
6.153988
 20
9.276953
 30
0.0
 10
5.954448
 20
9.333783
 30
0.0
 10
5.755018
 20
9.381243
 30
0.0
 10
5.755018
 20
9.382345
 30
0.0
 10
5.750002
 20
9.382345
 30
0.0
 10
5.750002
 20
9.382345
 30
0.0
  0
LWPOLYLINE
  5
101
100
AcDbEntity
  8
Layer_1
 62
7
100
AcDbPolyline
 90
61
 70
0
 10
3.750028
 20
9.379203
 30
0.0
 10
3.545692
 20
9.330531
 30
0.0
 10
3.346263
 20
9.273756
 30
0.0
 10
3.150857
 20
9.208878
 30
0.0
 10
2.959585
 20
9.136007
 30
0.0
 10
2.772668
 20
9.055420
 30
0.0
 10
2.590271
 20
8.967335
 30
0.0
 10
2.412614
 20
8.871975
 30
0.0
 10
2.239698
 20
8.769504
 30
0.0
 10
1.909355
 20
8.544223
 30
0.0
 10
1.600398
 20
8.293144
 30
0.0
 10
1.314373
 20
8.017922
 30
0.0
 10
1.052546
 20
7.720321
 30
0.0
 10
0.816350
 20
7.401994
 30
0.0
 10
0.607109
 20
7.064706
 30
0.0
 10
0.426200
 20
6.710054
 30
0.0
 10
0.275056
 20
6.339858
 30
0.0
 10
0.211060
 20
6.149302
 30
0.0
 10
0.154947
 20
5.955605
 30
0.0
 10
0.107046
 20
5.758822
 30
0.0
 10
0.067359
 20
5.559171
 30
0.0
 10
0.036160
 20
5.356930
 30
0.0
 10
0.013560
 20
5.152209
 30
0.0
 10
-0.000220
 20
4.945338
 30
0.0
 10
-0.005016
 20
4.736427
 30
0.0
 10
0.000827
 20
4.504421
 30
0.0
 10
0.017584
 20
4.275170
 30
0.0
 10
0.045145
 20
4.048897
 30
0.0
 10
0.083178
 20
3.825930
 30
0.0
 10
0.131465
 20
3.606491
 30
0.0
 10
0.189728
 20
3.390911
 30
0.0
 10
0.257748
 20
3.179355
 30
0.0
 10
0.335249
 20
2.972153
 30
0.0
 10
0.422010
 20
2.769581
 30
0.0
 10
0.517812
 20
2.571915
 30
0.0
 10
0.622322
 20
2.379376
 30
0.0
 10
0.735376
 20
2.192238
 30
0.0
 10
0.856644
 20
2.010778
 30
0.0
 10
0.985959
 20
1.835326
 30
0.0
 10
1.123046
 20
1.666048
 30
0.0
 10
1.267575
 20
1.503274
 30
0.0
 10
1.419434
 20
1.347225
 30
0.0
 10
1.578295
 20
1.198232
 30
0.0
 10
1.743880
 20
1.056514
 30
0.0
 10
1.916024
 20
0.922348
 30
0.0
 10
2.094453
 20
0.796010
 30
0.0
 10
2.278889
 20
0.677719
 30
0.0
 10
2.469059
 20
0.567862
 30
0.0
 10
2.664795
 20
0.466548
 30
0.0
 10
2.865823
 20
0.374165
 30
0.0
 10
3.071813
 20
0.290986
 30
0.0
 10
3.282652
 20
0.217179
 30
0.0
 10
3.497957
 20
0.153072
 30
0.0
 10
3.717616
 20
0.098943
 30
0.0
 10
3.941244
 20
0.055011
 30
0.0
 10
4.168676
 20
0.021608
 30
0.0
 10
4.400021
 20
-0.001103
 30
0.0
 10
4.400021
 20
0.688688
 30
0.0
 10
3.750028
 20
0.688688
 30
0.0
 10
3.750028
 20
9.379203
 30
0.0
 10
3.750028
 20
9.379203
 30
0.0
  0
LWPOLYLINE
  5
102
100
AcDbEntity
  8
Layer_1
 62
7
100
AcDbPolyline
 90
66
 70
0
 10
3.250020
 20
8.663285
 30
0.0
 10
3.250020
 20
0.717462
 30
0.0
 10
3.025841
 20
0.815192
 30
0.0
 10
2.945749
 20
0.849037
 30
0.0
 10
2.947073
 20
0.850360
 30
0.0
 10
2.898124
 20
0.872133
 30
0.0
 10
2.897739
 20
0.871747
 30
0.0
 10
2.891234
 20
0.875219
 30
0.0
 10
2.677749
 20
0.989266
 30
0.0
 10
2.596169
 20
1.032812
 30
0.0
 10
2.553064
 20
1.060538
 30
0.0
 10
2.359808
 20
1.185002
 30
0.0
 10
2.312293
 20
1.215595
 30
0.0
 10
2.314222
 20
1.217524
 30
0.0
 10
2.272991
 20
1.246959
 30
0.0
 10
2.270897
 20
1.244865
 30
0.0
 10
2.216933
 20
1.286867
 30
0.0
 10
2.041646
 20
1.423403
 30
0.0
 10
2.009951
 20
1.448098
 30
0.0
 10
1.929419
 20
1.521740
 30
0.0
 10
1.732249
 20
1.706232
 30
0.0
 10
1.731588
 20
1.705570
 30
0.0
 10
1.659654
 20
1.784008
 30
0.0
 10
1.510165
 20
1.951467
 30
0.0
 10
1.369770
 20
2.126588
 30
0.0
 10
1.305498
 20
2.208830
 30
0.0
 10
1.306380
 20
2.209712
 30
0.0
 10
1.145921
 20
2.451475
 30
0.0
 10
1.092784
 20
2.533716
 30
0.0
 10
1.075201
 20
2.566458
 30
0.0
 10
0.960437
 20
2.780330
 30
0.0
 10
0.931333
 20
2.834625
 30
0.0
 10
0.933207
 20
2.836499
 30
0.0
 10
0.910167
 20
2.884179
 30
0.0
 10
0.908513
 20
2.882525
 30
0.0
 10
0.892418
 20
2.920779
 30
0.0
 10
0.789120
 20
3.166015
 30
0.0
 10
0.769497
 20
3.212703
 30
0.0
 10
0.751086
 20
3.269809
 30
0.0
 10
0.662671
 20
3.544480
 30
0.0
 10
0.657434
 20
3.560795
 30
0.0
 10
0.658261
 20
3.561622
 30
0.0
 10
0.643819
 20
3.617846
 30
0.0
 10
0.642607
 20
3.616634
 30
0.0
 10
0.626015
 20
3.687355
 30
0.0
 10
0.572161
 20
3.934519
 30
0.0
 10
0.533135
 20
4.184275
 30
0.0
 10
0.508992
 20
4.435850
 30
0.0
 10
0.499897
 20
4.688692
 30
0.0
 10
0.512740
 20
5.017823
 30
0.0
 10
0.550444
 20
5.341441
 30
0.0
 10
0.612235
 20
5.658500
 30
0.0
 10
0.697342
 20
5.967787
 30
0.0
 10
0.804940
 20
6.268255
 30
0.0
 10
0.934255
 20
6.558690
 30
0.0
 10
1.084571
 20
6.837936
 30
0.0
 10
1.254952
 20
7.104944
 30
0.0
 10
1.444790
 20
7.358558
 30
0.0
 10
1.653150
 20
7.597676
 30
0.0
 10
1.879368
 20
7.821028
 30
0.0
 10
2.122620
 20
8.027624
 30
0.0
 10
2.382077
 20
8.216305
 30
0.0
 10
2.656968
 20
8.385858
 30
0.0
 10
2.946576
 20
8.535238
 30
0.0
 10
3.250020
 20
8.663285
 30
0.0
 10
3.250020
 20
8.663285
 30
0.0
  0
LWPOLYLINE
  5
103
100
AcDbEntity
  8
Layer_1
 62
7
100
AcDbPolyline
 90
97
 70
0
 10
6.250010
 20
8.658104
 30
0.0
 10
6.515309
 20
8.542018
 30
0.0
 10
6.552351
 20
8.526363
 30
0.0
 10
6.551745
 20
8.525757
 30
0.0
 10
6.852047
 20
8.369267
 30
0.0
 10
6.902263
 20
8.342478
 30
0.0
 10
6.928941
 20
8.325335
 30
0.0
 10
7.153893
 20
8.180751
 30
0.0
 10
7.186083
 20
8.160081
 30
0.0
 10
7.184760
 20
8.158758
 30
0.0
 10
7.226047
 20
8.129323
 30
0.0
 10
7.227535
 20
8.130811
 30
0.0
 10
7.266175
 20
8.100770
 30
0.0
 10
7.466597
 20
7.944886
 30
0.0
 10
7.488756
 20
7.927633
 30
0.0
 10
7.546302
 20
7.875102
 30
0.0
 10
7.766899
 20
7.670160
 30
0.0
 10
7.767174
 20
7.670436
 30
0.0
 10
7.797987
 20
7.636867
 30
0.0
 10
7.978676
 20
7.437878
 30
0.0
 10
8.146466
 20
7.227810
 30
0.0
 10
8.193595
 20
7.167562
 30
0.0
 10
8.192933
 20
7.166901
 30
0.0
 10
8.360117
 20
6.914334
 30
0.0
 10
8.406529
 20
6.842621
 30
0.0
 10
8.422239
 20
6.813407
 30
0.0
 10
8.540364
 20
6.593527
 30
0.0
 10
8.568035
 20
6.542043
 30
0.0
 10
8.566216
 20
6.540224
 30
0.0
 10
8.589367
 20
6.492599
 30
0.0
 10
8.590910
 20
6.494143
 30
0.0
 10
8.606290
 20
6.457597
 30
0.0
 10
8.710414
 20
6.210763
 30
0.0
 10
8.730203
 20
6.163910
 30
0.0
 10
8.748944
 20
6.105812
 30
0.0
 10
8.836201
 20
5.835440
 30
0.0
 10
8.842375
 20
5.816313
 30
0.0
 10
8.841383
 20
5.815321
 30
0.0
 10
8.855825
 20
5.759152
 30
0.0
 10
8.857148
 20
5.760475
 30
0.0
 10
8.875668
 20
5.681872
 30
0.0
 10
8.946389
 20
5.323361
 30
0.0
 10
8.986077
 20
4.960111
 30
0.0
 10
9.000133
 20
4.688692
 30
0.0
 10
8.989715
 20
4.484522
 30
0.0
 10
8.989715
 20
4.484302
 30
0.0
 10
8.985691
 20
4.417660
 30
0.0
 10
8.986297
 20
4.417053
 30
0.0
 10
8.984533
 20
4.398257
 30
0.0
 10
8.966343
 20
4.205166
 30
0.0
 10
8.939389
 20
4.013067
 30
0.0
 10
8.920813
 20
3.894777
 30
0.0
 10
8.920207
 20
3.894170
 30
0.0
 10
8.882228
 20
3.718443
 30
0.0
 10
8.858250
 20
3.615807
 30
0.0
 10
8.855604
 20
3.618452
 30
0.0
 10
8.840776
 20
3.562615
 30
0.0
 10
8.843422
 20
3.559969
 30
0.0
 10
8.823799
 20
3.498894
 30
0.0
 10
8.760465
 20
3.301614
 30
0.0
 10
8.731581
 20
3.211656
 30
0.0
 10
8.683460
 20
3.097058
 30
0.0
 10
8.620676
 20
2.947679
 30
0.0
 10
8.592785
 20
2.881257
 30
0.0
 10
8.589422
 20
2.884620
 30
0.0
 10
8.565996
 20
2.837325
 30
0.0
 10
8.569965
 20
2.833357
 30
0.0
 10
8.489928
 20
2.683867
 30
0.0
 10
8.442083
 20
2.594570
 30
0.0
 10
8.408734
 20
2.532283
 30
0.0
 10
8.225620
 20
2.248407
 30
0.0
 10
8.224187
 20
2.249840
 30
0.0
 10
8.193319
 20
2.210043
 30
0.0
 10
8.196185
 20
2.207176
 30
0.0
 10
7.992897
 20
1.946562
 30
0.0
 10
7.770427
 20
1.703586
 30
0.0
 10
7.765797
 20
1.708216
 30
0.0
 10
7.731345
 20
1.672001
 30
0.0
 10
7.734984
 20
1.668363
 30
0.0
 10
7.680193
 20
1.618202
 30
0.0
 10
7.492173
 20
1.446003
 30
0.0
 10
7.362968
 20
1.345186
 30
0.0
 10
7.353377
 20
1.337689
 30
0.0
 10
7.231448
 20
1.242549
 30
0.0
 10
7.225716
 20
1.248282
 30
0.0
 10
7.184154
 20
1.219233
 30
0.0
 10
7.190052
 20
1.213335
 30
0.0
 10
6.906342
 20
1.030387
 30
0.0
 10
6.604937
 20
0.869101
 30
0.0
 10
6.601023
 20
0.873015
 30
0.0
 10
6.551745
 20
0.851572
 30
0.0
 10
6.556981
 20
0.846336
 30
0.0
 10
6.255026
 20
0.718674
 30
0.0
 10
6.255026
 20
0.722367
 30
0.0
 10
6.250010
 20
0.720163
 30
0.0
 10
6.250010
 20
8.658104
 30
0.0
 10
6.250010
 20
8.658104
 30
0.0
  0
ENDSEC
  0
SECTION
  2
OBJECTS
  0
DICTIONARY
  5
C
330
0
100
AcDbDictionary
  3
ACAD_GROUP
350
D
  3
ACAD_MLINESTYLE
350
17
  0
DICTIONARY
  5
D
330
C
100
AcDbDictionary
  0
DICTIONARY
  5
1A
330
C
100
AcDbDictionary
  0
DICTIONARY
  5
17
330
C
100
AcDbDictionary
  3
STANDARD
350
18
  0
DICTIONARY
  5
19
330
C
100
AcDbDictionary
  0
ENDSEC
  0
EOF
