<?xml version="1.0" encoding="UTF-8" standalone="no"?>
<svg
   xmlns:dc="http://purl.org/dc/elements/1.1/"
   xmlns:cc="http://creativecommons.org/ns#"
   xmlns:rdf="http://www.w3.org/1999/02/22-rdf-syntax-ns#"
   xmlns:svg="http://www.w3.org/2000/svg"
   xmlns="http://www.w3.org/2000/svg"
   id="svg3336"
   viewBox="0 0 111.44838 40.041079"
   height="70.364136mm"
   width="195.84808mm"
   version="1.2">
  <metadata
     id="metadata3854">
    <rdf:RDF>
      <cc:Work
         rdf:about="">
        <dc:format>image/svg+xml</dc:format>
        <dc:type
           rdf:resource="http://purl.org/dc/dcmitype/StillImage" />
        <dc:title></dc:title>
      </cc:Work>
    </rdf:RDF>
  </metadata>
  <defs
     id="defs3852" />
  <!-- Page: 1/1 -->
  <text
     y="-0.026642181"
     x="2.4735827"
     style="font-size:2.20009995px;font-family:'Century Schoolbook L';text-anchor:start;fill:currentColor"
     id="text3338"
     font-size="2.2001">
    <tspan
       id="tspan3340" />
  </text>
  <rect
     style="fill:currentColor"
     id="rect3342"
     ry="0.0000"
     height="4"
     width="0.19"
     y="7.7950578"
     x="110.40398" />
  <rect
     style="fill:currentColor"
     id="rect3344"
     ry="0.0000"
     height="4"
     width="0.19"
     y="29.277357"
     x="110.40398" />
  <rect
     style="fill:currentColor"
     id="rect3346"
     ry="0.0000"
     height="4"
     width="0.19"
     y="29.277357"
     x="58.608181" />
  <rect
     style="fill:currentColor"
     id="rect3348"
     ry="0.0000"
     height="4"
     width="0.19"
     y="7.7950578"
     x="58.608181" />
  <line
     style="stroke:currentColor;stroke-width:0.1;stroke-linecap:round;stroke-linejoin:round"
     id="line3350"
     y2="33.277359"
     x2="110.54408"
     y1="33.277359"
     x1="2.5235829" />
  <line
     style="stroke:currentColor;stroke-width:0.1;stroke-linecap:round;stroke-linejoin:round"
     id="line3352"
     y2="32.277359"
     x2="110.54408"
     y1="32.277359"
     x1="2.5235829" />
  <line
     style="stroke:currentColor;stroke-width:0.1;stroke-linecap:round;stroke-linejoin:round"
     id="line3354"
     y2="31.277357"
     x2="110.54408"
     y1="31.277357"
     x1="2.5235829" />
  <line
     style="stroke:currentColor;stroke-width:0.1;stroke-linecap:round;stroke-linejoin:round"
     id="line3356"
     y2="30.277357"
     x2="110.54408"
     y1="30.277357"
     x1="2.5235829" />
  <line
     style="stroke:currentColor;stroke-width:0.1;stroke-linecap:round;stroke-linejoin:round"
     id="line3358"
     y2="29.277357"
     x2="110.54408"
     y1="29.277357"
     x1="2.5235829" />
  <rect
     style="fill:currentColor"
     id="rect3360"
     ry="0.1"
     height="0.2"
     width="1.9743"
     y="28.177359"
     x="46.540783" />
  <rect
     style="fill:currentColor"
     id="rect3362"
     ry="0.1"
     height="0.2"
     width="1.9743"
     y="27.177359"
     x="46.540783" />
  <rect
     style="fill:currentColor"
     id="rect3364"
     ry="0.1"
     height="0.2"
     width="1.8202"
     y="28.177359"
     x="101.86458" />
  <rect
     style="fill:currentColor"
     id="rect3366"
     ry="0.1"
     height="0.2"
     width="1.9743"
     y="28.177359"
     x="105.17018" />
  <line
     style="stroke:currentColor;stroke-width:0.1;stroke-linecap:round;stroke-linejoin:round"
     id="line3368"
     y2="11.795058"
     x2="110.54408"
     y1="11.795058"
     x1="2.5235829" />
  <line
     style="stroke:currentColor;stroke-width:0.1;stroke-linecap:round;stroke-linejoin:round"
     id="line3370"
     y2="10.795058"
     x2="110.54408"
     y1="10.795058"
     x1="2.5235829" />
  <line
     style="stroke:currentColor;stroke-width:0.1;stroke-linecap:round;stroke-linejoin:round"
     id="line3372"
     y2="9.7950583"
     x2="110.54408"
     y1="9.7950583"
     x1="2.5235829" />
  <line
     style="stroke:currentColor;stroke-width:0.1;stroke-linecap:round;stroke-linejoin:round"
     id="line3374"
     y2="8.7950583"
     x2="110.54408"
     y1="8.7950583"
     x1="2.5235829" />
  <line
     style="stroke:currentColor;stroke-width:0.1;stroke-linecap:round;stroke-linejoin:round"
     id="line3376"
     y2="7.7950578"
     x2="110.54408"
     y1="7.7950578"
     x1="2.5235829" />
  <rect
     style="fill:currentColor"
     id="rect3378"
     ry="0.1"
     height="0.2"
     width="1.9743"
     y="12.695058"
     x="80.946877" />
  <rect
     style="fill:currentColor"
     id="rect3380"
     ry="0.039999999"
     height="2.3122001"
     width="0.13"
     y="7.2950578"
     x="75.503784" />
  <path
     style="fill:currentColor"
     id="path3382"
     d="m 78.301783,9.7430578 c 0.224,0 0.436,0.116 0.436,0.3640002 0,0.288 -0.224,0.484 -0.412,0.596 -0.144,0.084 -0.304,0.144 -0.468,0.144 -0.224,0 -0.436,-0.116 -0.436,-0.364 0,-0.288 0.224,-0.4840002 0.412,-0.5960002 0.144,-0.084 0.304,-0.144 0.468,-0.144 z" />
  <rect
     style="fill:currentColor"
     id="rect3384"
     ry="0.039999999"
     height="2.5085001"
     width="0.13"
     y="7.5986581"
     x="78.607986" />
  <path
     style="fill:currentColor"
     id="path3386"
     d="m 82.155883,8.2430578 c 0.224,0 0.436,0.116 0.436,0.364 0,0.288 -0.224,0.484 -0.412,0.596 -0.144,0.084 -0.304,0.144 -0.468,0.144 -0.224,0 -0.436,-0.116 -0.436,-0.364 0,-0.288 0.224,-0.484 0.412,-0.596 0.144,-0.084 0.304,-0.144 0.468,-0.144 z" />
  <path
     style="fill:currentColor"
     id="path3388"
     d="m 82.155883,12.743058 c 0.224,0 0.436,0.116 0.436,0.364 0,0.288 -0.224,0.484 -0.412,0.596 -0.144,0.084 -0.304,0.144 -0.468,0.144 -0.224,0 -0.436,-0.116 -0.436,-0.364 0,-0.288 0.224,-0.484 0.412,-0.596 0.144,-0.084 0.304,-0.144 0.468,-0.144 z" />
  <text
     y="18.344358"
     x="81.275887"
     style="font-size:2.46959996px;font-family:'Century Schoolbook L';text-anchor:start;fill:currentColor"
     id="text3390"
     font-size="2.4696">
    <tspan
       id="tspan3392">kommt</tspan>
  </text>
  <text
     y="21.144358"
     x="82.644783"
     style="font-size:2.46959996px;font-family:'Century Schoolbook L';text-anchor:start;fill:currentColor"
     id="text3394"
     font-size="2.4696">
    <tspan
       id="tspan3396">kommt,</tspan>
  </text>
  <text
     y="2.7829578"
     x="71.213486"
     style="font-size:2.46959996px;font-family:'Century Schoolbook L';text-anchor:start;fill:currentColor"
     id="text3398"
     font-size="2.4696">
    <tspan
       id="tspan3400">kla</tspan>
  </text>
  <path
     style="fill:currentColor"
     id="path3402"
     d="m 72.093483,8.7430578 c 0.224,0 0.436,0.116 0.436,0.364 0,0.288 -0.224,0.484 -0.412,0.596 -0.144,0.084 -0.304,0.144 -0.468,0.144 -0.224,0 -0.436,-0.116 -0.436,-0.364 0,-0.288 0.224,-0.484 0.412,-0.596 0.144,-0.084 0.304,-0.144 0.468,-0.144 z" />
  <path
     style="fill:currentColor"
     id="path3404"
     d="m 72.093483,28.725358 c 0.224,0 0.436,0.116 0.436,0.364 0,0.288 -0.224,0.484 -0.412,0.596 -0.144,0.084 -0.304,0.144 -0.468,0.144 -0.224,0 -0.436,-0.116 -0.436,-0.364 0,-0.288 0.224,-0.484 0.412,-0.596 0.144,-0.084 0.304,-0.144 0.468,-0.144 z" />
  <rect
     style="fill:currentColor"
     id="rect3406"
     ry="0.039999999"
     height="2.1157999"
     width="0.13"
     y="6.9914579"
     x="72.399681" />
  <path
     style="fill:currentColor"
     id="path3408"
     d="m 72.979683,29.777358 c 0,-0.124 0.1,-0.224 0.224,-0.224 0.124,0 0.224,0.1 0.224,0.224 0,0.124 -0.1,0.224 -0.224,0.224 -0.124,0 -0.224,-0.1 -0.224,-0.224 z" />
  <rect
     style="fill:currentColor"
     id="rect3410"
     ry="0.039999999"
     height="3.3122001"
     width="0.13"
     y="29.465158"
     x="71.213486" />
  <path
     style="fill:currentColor"
     id="path3412"
     d="m 75.197683,9.2430578 c 0.224,0 0.436,0.116 0.436,0.364 0,0.288 -0.224,0.4840002 -0.412,0.5960002 -0.144,0.084 -0.304,0.144 -0.468,0.144 -0.224,0 -0.436,-0.116 -0.436,-0.3640002 0,-0.288 0.224,-0.484 0.412,-0.596 0.144,-0.084 0.304,-0.144 0.468,-0.144 z" />
  <rect
     style="fill:currentColor"
     id="rect3414"
     ry="0.039999999"
     height="3.3122001"
     width="0.13"
     y="6.2950578"
     x="87.981079" />
  <path
     style="fill:currentColor"
     id="path3416"
     d="m 87.674883,29.225358 c 0.224,0 0.436,0.116 0.436,0.364 0,0.288 -0.224,0.484 -0.412,0.596 -0.144,0.084 -0.304,0.144 -0.468,0.144 -0.224,0 -0.436,-0.116 -0.436,-0.364 0,-0.288 0.224,-0.484 0.412,-0.596 0.144,-0.084 0.304,-0.144 0.468,-0.144 z" />
  <path
     style="fill:currentColor"
     id="path3418"
     d="m 87.674883,11.743058 c 0.224,0 0.436,0.116 0.436,0.364 0,0.288 -0.224,0.484 -0.412,0.596 -0.144,0.084 -0.304,0.144 -0.468,0.144 -0.224,0 -0.436,-0.116 -0.436,-0.364 0,-0.288 0.224,-0.484 0.412,-0.596 0.144,-0.084 0.304,-0.144 0.468,-0.144 z" />
  <path
     style="fill:currentColor"
     id="path3420"
     d="m 87.674883,9.2430578 c 0.224,0 0.436,0.116 0.436,0.364 0,0.288 -0.224,0.4840002 -0.412,0.5960002 -0.144,0.084 -0.304,0.144 -0.468,0.144 -0.224,0 -0.436,-0.116 -0.436,-0.3640002 0,-0.288 0.224,-0.484 0.412,-0.596 0.144,-0.084 0.304,-0.144 0.468,-0.144 z" />
  <rect
     style="fill:currentColor"
     id="rect3422"
     ry="0.039999999"
     height="2.8144"
     width="0.13"
     y="29.465158"
     x="81.275887" />
  <path
     style="fill:currentColor"
     id="path3424"
     d="m 83.524783,28.225358 c 0.224,0 0.436,0.116 0.436,0.364 0,0.288 -0.224,0.484 -0.412,0.596 -0.144,0.084 -0.304,0.144 -0.468,0.144 -0.224,0 -0.436,-0.116 -0.436,-0.364 0,-0.288 0.224,-0.484 0.412,-0.596 0.144,-0.084 0.304,-0.144 0.468,-0.144 z" />
  <path
     style="fill:currentColor"
     id="path3426"
     d="m 82.155883,28.725358 c 0.224,0 0.436,0.116 0.436,0.364 0,0.288 -0.224,0.484 -0.412,0.596 -0.144,0.084 -0.304,0.144 -0.468,0.144 -0.224,0 -0.436,-0.116 -0.436,-0.364 0,-0.288 0.224,-0.484 0.412,-0.596 0.144,-0.084 0.304,-0.144 0.468,-0.144 z" />
  <rect
     style="fill:currentColor"
     id="rect3428"
     ry="0.039999999"
     height="2.3122001"
     width="0.13"
     y="6.2950578"
     x="82.462082" />
  <rect
     style="fill:currentColor"
     id="rect3430"
     ry="0.039999999"
     height="2.3034999"
     width="0.13"
     y="13.482858"
     x="81.275887" />
  <path
     style="fill:currentColor"
     id="path3432"
     d="m 80.689883,10.043058 c 0,0.04 -0.032,0.076 -0.072,0.076 -0.04,0 -0.076,-0.036 -0.076,-0.076 l 0,-0.5800002 -0.332,0.124 0,0.6320002 c 0,0.04 -0.036,0.076 -0.076,0.076 -0.04,0 -0.072,-0.036 -0.072,-0.076 l 0,-0.5800002 -0.128,0.048 c -0.008,0.004 -0.02,0.004 -0.028,0.004 -0.044,0 -0.08,-0.036 -0.08,-0.08 l 0,-0.24 c 0,-0.032 0.02,-0.064 0.052,-0.076 l 0.184,-0.064 0,-0.64 -0.128,0.044 c -0.008,0.004 -0.02,0.004 -0.028,0.004 -0.044,0 -0.08,-0.036 -0.08,-0.08 l 0,-0.24 c 0,-0.032 0.02,-0.06 0.052,-0.072 l 0.184,-0.068 0,-0.632 c 0,-0.04 0.032,-0.076 0.072,-0.076 0.04,0 0.076,0.036 0.076,0.076 l 0,0.58 0.332,-0.124 0,-0.632 c 0,-0.04 0.036,-0.076 0.076,-0.076 0.04,0 0.072,0.036 0.072,0.076 l 0,0.58 0.128,-0.048 c 0.008,-0.004 0.02,-0.004 0.028,-0.004 0.044,0 0.08,0.036 0.08,0.08 l 0,0.24 c 0,0.032 -0.02,0.064 -0.052,0.076 l -0.184,0.064 0,0.64 0.128,-0.044 c 0.008,-0.004 0.02,-0.004 0.028,-0.004 0.044,0 0.08,0.036 0.08,0.08 l 0,0.24 c 0,0.032 -0.02,0.06 -0.052,0.072 l -0.184,0.068 0,0.6320002 z m -0.48,-1.5080002 0,0.64 0.332,-0.12 0,-0.64 z" />
  <path
     style="fill:currentColor"
     id="path3434"
     d="m 84.410883,28.777358 c 0,-0.124 0.1,-0.224 0.224,-0.224 0.124,0 0.224,0.1 0.224,0.224 0,0.124 -0.1,0.224 -0.224,0.224 -0.124,0 -0.224,-0.1 -0.224,-0.224 z" />
  <rect
     style="fill:currentColor"
     id="rect3436"
     ry="0.039999999"
     height="2.3122001"
     width="0.13"
     y="26.277357"
     x="83.830879" />
  <rect
     style="fill:currentColor"
     id="rect3438"
     ry="0.039999999"
     height="3.5083001"
     width="0.13"
     y="29.965158"
     x="61.046185" />
  <path
     style="fill:currentColor"
     id="path3440"
     d="m 62.996183,27.777358 c 0,-0.124 0.1,-0.224 0.224,-0.224 0.124,0 0.224,0.1 0.224,0.224 0,0.124 -0.1,0.224 -0.224,0.224 -0.124,0 -0.224,-0.1 -0.224,-0.224 z" />
  <path
     style="fill:currentColor"
     id="path3442"
     d="m 62.996183,11.295058 c 0,-0.124 0.1,-0.224 0.224,-0.224 0.124,0 0.224,0.1 0.224,0.224 0,0.124 -0.1,0.224 -0.224,0.224 -0.124,0 -0.224,-0.1 -0.224,-0.224 z" />
  <rect
     style="fill:currentColor"
     id="rect3444"
     ry="0.039999999"
     height="2.8122001"
     width="0.13"
     y="5.7950578"
     x="62.232384" />
  <text
     y="38.68586"
     x="61.046185"
     style="font-size:2.46959996px;font-family:'Century Schoolbook L';text-anchor:start;fill:currentColor"
     id="text3446"
     font-size="2.4696">
    <tspan
       id="tspan3448">kla</tspan>
  </text>
  <path
     style="fill:currentColor"
     id="path3450"
     d="m 61.926183,29.225358 c 0.224,0 0.436,0.116 0.436,0.364 0,0.288 -0.224,0.484 -0.412,0.596 -0.144,0.084 -0.304,0.144 -0.468,0.144 -0.224,0 -0.436,-0.116 -0.436,-0.364 0,-0.288 0.224,-0.484 0.412,-0.596 0.144,-0.084 0.304,-0.144 0.468,-0.144 z" />
  <path
     style="fill:currentColor"
     id="path3452"
     d="m 63.070183,28.377358 -2.548,0 c -0.056,0 -0.1,-0.044 -0.1,-0.1 0,-0.056 0.044,-0.1 0.1,-0.1 l 0.524,0 0,-0.484 c 0,-0.024 0.016,-0.04 0.04,-0.04 l 1.42,0 c 0.024,0 0.04,0.016 0.04,0.04 l 0,0.484 0.524,0 c 0.056,0 0.1,0.044 0.1,0.1 0,0.056 -0.044,0.1 -0.1,0.1 z" />
  <path
     style="fill:currentColor"
     id="path3454"
     d="m 62.506183,11.795058 -1.42,0 c -0.024,0 -0.04,-0.016 -0.04,-0.04 l 0,-0.544 c 0,-0.024 0.016,-0.04 0.04,-0.04 l 1.42,0 c 0.024,0 0.04,0.016 0.04,0.04 l 0,0.544 c 0,0.024 -0.016,0.04 -0.04,0.04 z" />
  <path
     style="fill:currentColor"
     id="path3456"
     d="m 61.926183,8.2430578 c 0.224,0 0.436,0.116 0.436,0.364 0,0.288 -0.224,0.484 -0.412,0.596 -0.144,0.084 -0.304,0.144 -0.468,0.144 -0.224,0 -0.436,-0.116 -0.436,-0.364 0,-0.288 0.224,-0.484 0.412,-0.596 0.144,-0.084 0.304,-0.144 0.468,-0.144 z" />
  <text
     y="2.7829578"
     x="59.058182"
     style="font-size:2.46959996px;font-family:'Century Schoolbook L';text-anchor:start;fill:currentColor"
     id="text3458"
     font-size="2.4696">
    <tspan
       id="tspan3460">helft</tspan>
  </text>
  <rect
     style="fill:currentColor"
     id="rect3462"
     ry="0.039999999"
     height="3.1161001"
     width="0.13"
     y="30.965158"
     x="67.485985" />
  <path
     style="fill:currentColor"
     id="path3464"
     d="m 68.802083,5.7100578 c 0,0.792 0.836,1.34 0.836,2.132 0,0.284 -0.064,0.564 -0.168,0.828 -0.02,0.032 -0.048,0.048 -0.076,0.048 -0.052,0 -0.104,-0.044 -0.092,-0.108 0.104,-0.244 0.168,-0.504 0.168,-0.768 0,-0.416 -0.38,-0.832 -0.668,-1.132 l -0.064,0 0,-1 0.064,0 z" />
  <rect
     style="fill:currentColor"
     id="rect3466"
     ry="0.039999999"
     height="2.9372001"
     width="0.13"
     y="5.6700578"
     x="68.672081" />
  <path
     style="fill:currentColor"
     id="path3468"
     d="m 68.365983,30.225358 c 0.224,0 0.436,0.116 0.436,0.364 0,0.288 -0.224,0.484 -0.412,0.596 -0.144,0.084 -0.304,0.144 -0.468,0.144 -0.224,0 -0.436,-0.116 -0.436,-0.364 0,-0.288 0.224,-0.484 0.412,-0.596 0.144,-0.084 0.304,-0.144 0.468,-0.144 z" />
  <path
     style="fill:currentColor"
     id="path3470"
     d="m 68.365983,8.2430578 c 0.224,0 0.436,0.116 0.436,0.364 0,0.288 -0.224,0.484 -0.412,0.596 -0.144,0.084 -0.304,0.144 -0.468,0.144 -0.224,0 -0.436,-0.116 -0.436,-0.364 0,-0.288 0.224,-0.484 0.412,-0.596 0.144,-0.084 0.304,-0.144 0.468,-0.144 z" />
  <text
     y="2.7829578"
     x="66.11248"
     style="font-size:2.46959996px;font-family:'Century Schoolbook L';text-anchor:start;fill:currentColor"
     id="text3472"
     font-size="2.4696">
    <tspan
       id="tspan3474">mir</tspan>
  </text>
  <path
     style="fill:currentColor"
     id="path3476"
     d="m 60.460183,31.025358 c 0,0.04 -0.032,0.076 -0.072,0.076 -0.04,0 -0.076,-0.036 -0.076,-0.076 l 0,-0.58 -0.332,0.124 0,0.632 c 0,0.04 -0.036,0.076 -0.076,0.076 -0.04,0 -0.072,-0.036 -0.072,-0.076 l 0,-0.58 -0.128,0.048 c -0.008,0.004 -0.02,0.004 -0.028,0.004 -0.044,0 -0.08,-0.036 -0.08,-0.08 l 0,-0.24 c 0,-0.032 0.02,-0.064 0.052,-0.076 l 0.184,-0.064 0,-0.64 -0.128,0.044 c -0.008,0.004 -0.02,0.004 -0.028,0.004 -0.044,0 -0.08,-0.036 -0.08,-0.08 l 0,-0.24 c 0,-0.032 0.02,-0.06 0.052,-0.072 l 0.184,-0.068 0,-0.632 c 0,-0.04 0.032,-0.076 0.072,-0.076 0.04,0 0.076,0.036 0.076,0.076 l 0,0.58 0.332,-0.124 0,-0.632 c 0,-0.04 0.036,-0.076 0.076,-0.076 0.04,0 0.072,0.036 0.072,0.076 l 0,0.58 0.128,-0.048 c 0.008,-0.004 0.02,-0.004 0.028,-0.004 0.044,0 0.08,0.036 0.08,0.08 l 0,0.24 c 0,0.032 -0.02,0.064 -0.052,0.076 l -0.184,0.064 0,0.64 0.128,-0.044 c 0.008,-0.004 0.02,-0.004 0.028,-0.004 0.044,0 0.08,0.036 0.08,0.08 l 0,0.24 c 0,0.032 -0.02,0.06 -0.052,0.072 l -0.184,0.068 0,0.632 z m -0.48,-1.508 0,0.64 0.332,-0.12 0,-0.64 z" />
  <path
     style="fill:currentColor"
     id="path3478"
     d="m 65.214183,29.725358 c 0.224,0 0.436,0.116 0.436,0.364 0,0.288 -0.224,0.484 -0.412,0.596 -0.144,0.084 -0.304,0.144 -0.468,0.144 -0.224,0 -0.436,-0.116 -0.436,-0.364 0,-0.288 0.224,-0.484 0.412,-0.596 0.144,-0.084 0.304,-0.144 0.468,-0.144 z" />
  <rect
     style="fill:currentColor"
     id="rect3480"
     ry="0.039999999"
     height="3.3185999"
     width="0.13"
     y="30.465158"
     x="64.334183" />
  <rect
     style="fill:currentColor"
     id="rect3482"
     ry="0.032000002"
     height="0.079999998"
     width="11.9244"
     y="21.064358"
     x="91.431282" />
  <path
     style="fill:currentColor;stroke:currentColor;stroke-width:0.08;stroke-linecap:round;stroke-linejoin:round"
     id="path3484"
     d="m 84.260961,27.727352 c 2.153052,-1.628692 12.302061,-1.628692 14.455113,0 -2.153052,-1.508692 -12.302061,-1.508692 -14.455113,0 z" />
  <polygon
     style="fill:currentColor;stroke:currentColor;stroke-width:0.08;stroke-linecap:round;stroke-linejoin:round"
     id="polygon3486"
     points="0.04,-0.2 5.609,-0.01 5.609,0.39 0.04,0.2 "
     transform="translate(81.275883,32.277358)" />
  <polygon
     style="fill:currentColor;stroke:currentColor;stroke-width:0.08;stroke-linecap:round;stroke-linejoin:round"
     id="polygon3488"
     points="0.04,-0.2 4.2996,-0.51 4.2996,-0.11 0.04,0.2 "
     transform="translate(99.016083,26.087358)" />
  <path
     style="fill:currentColor"
     id="path3490"
     d="m 105.62918,33.737358 -0.064,0 0,-1 0.064,0 c 0.392,-0.232 0.908,-0.592 0.908,-1.036 0,-0.228 -0.064,-0.448 -0.164,-0.652 -0.012,-0.064 0.04,-0.108 0.092,-0.108 0.028,0 0.06,0.012 0.08,0.044 0.1,0.224 0.16,0.468 0.16,0.716 0,0.816 -1.076,1.22 -1.076,2.036 z" />
  <rect
     style="fill:currentColor"
     id="rect3492"
     ry="0.039999999"
     height="3.3122001"
     width="0.13"
     y="30.465158"
     x="105.49918" />
  <path
     style="fill:currentColor"
     id="path3494"
     d="m 106.81528,24.817358 c 0,0.792 0.836,1.34 0.836,2.132 0,0.284 -0.064,0.564 -0.168,0.828 -0.02,0.032 -0.048,0.048 -0.076,0.048 -0.052,0 -0.104,-0.044 -0.092,-0.108 0.104,-0.244 0.168,-0.504 0.168,-0.768 0,-0.416 -0.38,-0.832 -0.668,-1.132 l -0.064,0 0,-1 0.064,0 z" />
  <path
     style="fill:currentColor"
     id="path3496"
     d="m 101.45348,29.525358 c 0,0.04 -0.032,0.076 -0.072,0.076 -0.04,0 -0.076,-0.036 -0.076,-0.076 l 0,-0.58 -0.332,0.124 0,0.632 c 0,0.04 -0.036,0.076 -0.076,0.076 -0.04,0 -0.072,-0.036 -0.072,-0.076 l 0,-0.58 -0.128,0.048 c -0.008,0.004 -0.02,0.004 -0.028,0.004 -0.044,0 -0.08,-0.036 -0.08,-0.08 l 0,-0.24 c 0,-0.032 0.02,-0.064 0.052,-0.076 l 0.184,-0.064 0,-0.64 -0.128,0.044 c -0.008,0.004 -0.02,0.004 -0.028,0.004 -0.044,0 -0.08,-0.036 -0.08,-0.08 l 0,-0.24 c 0,-0.032 0.02,-0.06 0.052,-0.072 l 0.184,-0.068 0,-0.632 c 0,-0.04 0.032,-0.076 0.072,-0.076 0.04,0 0.076,0.036 0.076,0.076 l 0,0.58 0.332,-0.124 0,-0.632 c 0,-0.04 0.036,-0.076 0.076,-0.076 0.04,0 0.072,0.036 0.072,0.076 l 0,0.58 0.128,-0.048 c 0.008,-0.004 0.02,-0.004 0.028,-0.004 0.044,0 0.08,0.036 0.08,0.08 l 0,0.24 c 0,0.032 -0.02,0.064 -0.052,0.076 l -0.184,0.064 0,0.64 0.128,-0.044 c 0.008,-0.004 0.02,-0.004 0.028,-0.004 0.044,0 0.08,0.036 0.08,0.08 l 0,0.24 c 0,0.032 -0.02,0.06 -0.052,0.072 l -0.184,0.068 0,0.632 z m -0.48,-1.508 0,0.64 0.332,-0.12 0,-0.64 z" />
  <text
     y="2.7829578"
     x="103.78429"
     style="font-size:2.46959996px;font-family:'Century Schoolbook L';text-anchor:start;fill:currentColor"
     id="text3498"
     font-size="2.4696">
    <tspan
       id="tspan3500">gen,</tspan>
  </text>
  <path
     style="fill:currentColor"
     id="path3502"
     d="m 106.37918,7.2430578 c 0.224,0 0.436,0.116 0.436,0.364 0,0.288 -0.224,0.484 -0.412,0.596 -0.144,0.084 -0.304,0.144 -0.468,0.144 -0.224,0 -0.436,-0.116 -0.436,-0.364 0,-0.288 0.224,-0.484 0.412,-0.596 0.144,-0.084 0.304,-0.144 0.468,-0.144 z" />
  <text
     y="21.144358"
     x="104.46708"
     style="font-size:2.46959996px;font-family:'Century Schoolbook L';text-anchor:start;fill:currentColor"
     id="text3504"
     font-size="2.4696">
    <tspan
       id="tspan3506">ihr</tspan>
  </text>
  <path
     style="fill:currentColor"
     id="path3508"
     d="m 106.37918,27.225358 c 0.224,0 0.436,0.116 0.436,0.364 0,0.288 -0.224,0.484 -0.412,0.596 -0.144,0.084 -0.304,0.144 -0.468,0.144 -0.224,0 -0.436,-0.116 -0.436,-0.364 0,-0.288 0.224,-0.484 0.412,-0.596 0.144,-0.084 0.304,-0.144 0.468,-0.144 z" />
  <text
     y="24.283157"
     x="100.99218"
     style="font-size:2.20009995px;font-family:'Century Schoolbook L';text-anchor:start;fill:currentColor"
     id="text3510"
     font-size="2.2001">
    <tspan
       id="tspan3512">90 Takte</tspan>
  </text>
  <path
     style="fill:currentColor"
     id="path3514"
     d="m 106.37918,29.725358 c 0.224,0 0.436,0.116 0.436,0.364 0,0.288 -0.224,0.484 -0.412,0.596 -0.144,0.084 -0.304,0.144 -0.468,0.144 -0.224,0 -0.436,-0.116 -0.436,-0.364 0,-0.288 0.224,-0.484 0.412,-0.596 0.144,-0.084 0.304,-0.144 0.468,-0.144 z" />
  <text
     y="38.68586"
     x="104.46708"
     style="font-size:2.46959996px;font-family:'Century Schoolbook L';text-anchor:start;fill:currentColor"
     id="text3516"
     font-size="2.4696">
    <tspan
       id="tspan3518">ihr</tspan>
  </text>
  <rect
     style="fill:currentColor"
     id="rect3520"
     ry="0.039999999"
     height="2.8122001"
     width="0.13"
     y="4.7950578"
     x="106.68528" />
  <path
     style="fill:currentColor"
     id="path3522"
     d="m 106.81528,4.8350578 c 0,0.792 0.836,1.34 0.836,2.132 0,0.284 -0.064,0.564 -0.168,0.828 -0.02,0.032 -0.048,0.048 -0.076,0.048 -0.052,0 -0.104,-0.044 -0.092,-0.108 0.104,-0.244 0.168,-0.504 0.168,-0.768 0,-0.416 -0.38,-0.832 -0.668,-1.132 l -0.064,0 0,-1 0.064,0 z" />
  <rect
     style="fill:currentColor"
     id="rect3524"
     ry="0.039999999"
     height="2.8122001"
     width="0.13"
     y="24.777357"
     x="106.68528" />
  <polygon
     style="fill:currentColor;stroke:currentColor;stroke-width:0.08;stroke-linecap:round;stroke-linejoin:round"
     id="polygon3526"
     points="0.04,-0.2 4.4406,0.49 4.4406,0.89 0.04,0.2 "
     transform="translate(48.055983,6.2950578)" />
  <rect
     style="fill:currentColor"
     id="rect3528"
     ry="0.039999999"
     height="0.13"
     width="0.66000003"
     y="2.2329578"
     x="52.755981" />
  <rect
     style="fill:currentColor"
     id="rect3530"
     ry="0.039999999"
     height="0.13"
     width="0.66000003"
     y="38.135857"
     x="40.042984" />
  <polygon
     style="fill:currentColor;stroke:currentColor;stroke-width:0.08;stroke-linecap:round;stroke-linejoin:round"
     id="polygon3532"
     points="0.04,-0.2 3.9441,0.11 3.9441,0.51 0.04,0.2 "
     transform="translate(36.671383,5.9850578)" />
  <polygon
     style="fill:currentColor;stroke:currentColor;stroke-width:0.08;stroke-linecap:round;stroke-linejoin:round"
     id="polygon3534"
     points="0.04,-0.2 3.1941,-0.39 3.1941,0.01 0.04,0.2 "
     transform="translate(23.817383,33.467358)" />
  <path
     style="fill:currentColor;stroke:currentColor;stroke-width:0.08;stroke-linecap:round;stroke-linejoin:round"
     id="path3536"
     d="m 25.433561,7.2450518 c 1.874691,-1.5051534 9.06309,-1.5051534 10.937781,0 -1.874691,-1.3851534 -9.06309,-1.3851534 -10.937781,0 z" />
  <rect
     style="fill:currentColor"
     id="rect3538"
     ry="0.032000002"
     height="0.079999998"
     width="5.2522998"
     y="38.605858"
     x="22.985382" />
  <path
     style="fill:currentColor;stroke:currentColor;stroke-width:0.08;stroke-linecap:round;stroke-linejoin:round"
     id="path3540"
     d="m 14.184983,31.827364 c 1.717693,1.423943 7.614707,1.423943 9.332401,0 -1.717694,1.303943 -7.614708,1.303943 -9.332401,0 z" />
  <polygon
     style="fill:currentColor;stroke:currentColor;stroke-width:0.08;stroke-linecap:round;stroke-linejoin:round"
     id="polygon3542"
     points="0.04,-0.2 6.7983,-1.39 6.7983,-0.99 0.04,0.2 "
     transform="translate(14.941183,7.9850578)" />
  <rect
     style="fill:currentColor"
     id="rect3544"
     ry="0.032000002"
     height="0.079999998"
     width="17.670099"
     y="2.7029579"
     x="22.985382" />
  <rect
     style="fill:currentColor"
     id="rect3546"
     ry="0.032000002"
     height="0.079999998"
     width="9.7664003"
     y="18.264359"
     x="89.379585" />
  <polygon
     style="fill:currentColor;stroke:currentColor;stroke-width:0.08;stroke-linecap:round;stroke-linejoin:round"
     id="polygon3548"
     points="0.04,-0.2 8.8798,-1.39 8.8798,-0.99 0.04,0.2 "
     transform="translate(81.275883,15.795058)" />
  <polygon
     style="fill:currentColor;stroke:currentColor;stroke-width:0.08;stroke-linecap:round;stroke-linejoin:round"
     id="polygon3550"
     points="0.04,-0.2 8.8798,-0.2 8.8798,0.2 0.04,0.2 "
     transform="translate(82.462083,6.2950578)" />
  <path
     style="fill:currentColor;stroke:currentColor;stroke-width:0.08;stroke-linecap:round;stroke-linejoin:round"
     id="path3552"
     d="m 71.643483,30.977364 c 1.717693,1.423943 7.614707,1.423943 9.332401,0 -1.717694,1.303943 -7.614708,1.303943 -9.332401,0 z" />
  <path
     style="fill:currentColor;stroke:currentColor;stroke-width:0.08;stroke-linecap:round;stroke-linejoin:round"
     id="path3554"
     d="M 72.464554,6.251416 C 75.18085,4.4347436 95.998823,4.4296966 98.716,6.2450518 95.998852,4.5496966 75.180879,4.5547436 72.464554,6.251416 Z" />
  <polygon
     style="fill:currentColor;stroke:currentColor;stroke-width:0.08;stroke-linecap:round;stroke-linejoin:round"
     id="polygon3556"
     points="0.04,-0.2 6.2983,0.42 6.2983,0.82 0.04,0.2 "
     transform="translate(72.399683,6.9850578)" />
  <rect
     style="fill:currentColor"
     id="rect3558"
     ry="0.039999999"
     height="0.13"
     width="0.66000003"
     y="2.2329578"
     x="98.978485" />
  <rect
     style="fill:currentColor"
     id="rect3560"
     ry="0.039999999"
     height="0.13"
     width="0.66000003"
     y="2.2329578"
     x="88.978485" />
  <rect
     style="fill:currentColor"
     id="rect3562"
     ry="0.039999999"
     height="0.13"
     width="0.66000003"
     y="2.2329578"
     x="78.978485" />
  <rect
     style="fill:currentColor"
     id="rect3564"
     ry="0.039999999"
     height="0.13"
     width="0.66000003"
     y="38.135857"
     x="81.178085" />
  <rect
     style="fill:currentColor"
     id="rect3566"
     ry="0.039999999"
     height="0.13"
     width="0.66000003"
     y="38.135857"
     x="71.178085" />
  <polygon
     style="fill:currentColor;stroke:currentColor;stroke-width:0.08;stroke-linecap:round;stroke-linejoin:round"
     id="polygon3568"
     points="0.04,-0.2 6.5297,0.42 6.5297,0.82 0.04,0.2 "
     transform="translate(61.046183,33.467358)" />
  <polygon
     style="fill:currentColor;stroke:currentColor;stroke-width:0.08;stroke-linecap:round;stroke-linejoin:round"
     id="polygon3570"
     points="0.04,-0.2 4.4406,-0.39 4.4406,0.01 0.04,0.2 "
     transform="translate(46.869783,33.277358)" />
  <rect
     style="fill:currentColor"
     id="rect3572"
     ry="0.039999999"
     height="3.3122001"
     width="0.13"
     y="30.465158"
     x="90.065681" />
  <rect
     style="fill:currentColor"
     id="rect3574"
     ry="0.039999999"
     height="3.1308999"
     width="0.13"
     y="11.482858"
     x="90.065681" />
  <rect
     style="fill:currentColor"
     id="rect3576"
     ry="0.039999999"
     height="2.3122001"
     width="0.13"
     y="6.2950578"
     x="91.251884" />
  <text
     y="38.68586"
     x="88.350784"
     style="font-size:2.46959996px;font-family:'Century Schoolbook L';text-anchor:start;fill:currentColor"
     id="text3578"
     font-size="2.4696">
    <tspan
       id="tspan3580">gen,</tspan>
  </text>
  <path
     style="fill:currentColor"
     id="path3582"
     d="m 90.945683,29.725358 c 0.224,0 0.436,0.116 0.436,0.364 0,0.288 -0.224,0.484 -0.412,0.596 -0.144,0.084 -0.304,0.144 -0.468,0.144 -0.224,0 -0.436,-0.116 -0.436,-0.364 0,-0.288 0.224,-0.484 0.412,-0.596 0.144,-0.084 0.304,-0.144 0.468,-0.144 z" />
  <path
     style="fill:currentColor"
     id="path3584"
     d="m 90.945683,10.743058 c 0.224,0 0.436,0.116 0.436,0.364 0,0.288 -0.224,0.484 -0.412,0.596 -0.144,0.084 -0.304,0.144 -0.468,0.144 -0.224,0 -0.436,-0.116 -0.436,-0.364 0,-0.288 0.224,-0.484 0.412,-0.596 0.144,-0.084 0.304,-0.144 0.468,-0.144 z" />
  <rect
     style="fill:currentColor"
     id="rect3586"
     ry="0.039999999"
     height="2.5671999"
     width="0.13"
     y="12.482858"
     x="86.794884" />
  <path
     style="fill:currentColor"
     id="path3588"
     d="m 86.208883,13.543058 c 0,0.04 -0.032,0.076 -0.072,0.076 -0.04,0 -0.076,-0.036 -0.076,-0.076 l 0,-0.58 -0.332,0.124 0,0.632 c 0,0.04 -0.036,0.076 -0.076,0.076 -0.04,0 -0.072,-0.036 -0.072,-0.076 l 0,-0.58 -0.128,0.048 c -0.008,0.004 -0.02,0.004 -0.028,0.004 -0.044,0 -0.08,-0.036 -0.08,-0.08 l 0,-0.24 c 0,-0.032 0.02,-0.064 0.052,-0.076 l 0.184,-0.064 0,-0.64 -0.128,0.044 c -0.008,0.004 -0.02,0.004 -0.028,0.004 -0.044,0 -0.08,-0.036 -0.08,-0.08 l 0,-0.24 c 0,-0.032 0.02,-0.06 0.052,-0.072 l 0.184,-0.068 0,-0.632 c 0,-0.04 0.032,-0.076 0.072,-0.076 0.04,0 0.076,0.036 0.076,0.076 l 0,0.58 0.332,-0.124 0,-0.632 c 0,-0.04 0.036,-0.076 0.076,-0.076 0.04,0 0.072,0.036 0.072,0.076 l 0,0.58 0.128,-0.048 c 0.008,-0.004 0.02,-0.004 0.028,-0.004 0.044,0 0.08,0.036 0.08,0.08 l 0,0.24 c 0,0.032 -0.02,0.064 -0.052,0.076 l -0.184,0.064 0,0.64 0.128,-0.044 c 0.008,-0.004 0.02,-0.004 0.028,-0.004 0.044,0 0.08,0.036 0.08,0.08 l 0,0.24 c 0,0.032 -0.02,0.06 -0.052,0.072 l -0.184,0.068 0,0.632 z m -0.48,-1.508 0,0.64 0.332,-0.12 0,-0.64 z" />
  <rect
     style="fill:currentColor"
     id="rect3590"
     ry="0.039999999"
     height="2.5"
     width="0.13"
     y="29.965158"
     x="86.794884" />
  <path
     style="fill:currentColor"
     id="path3592"
     d="m 85.716883,28.277358 c 0.032,-0.016 0.068,-0.028 0.104,-0.028 0.036,0 0.068,0.012 0.1,0.028 l -0.012,0.732 0.424,-0.08 0.012,0 c 0.04,0 0.072,0.028 0.072,0.068 l 0.028,2.28 c -0.032,0.016 -0.064,0.028 -0.1,0.028 -0.036,0 -0.068,-0.012 -0.1,-0.028 l 0.012,-0.732 -0.424,0.08 -0.012,0 c -0.04,0 -0.072,-0.028 -0.072,-0.068 z m 0.556,1.052 -0.368,0.068 -0.012,0.828 0.368,-0.068 z" />
  <path
     style="fill:currentColor"
     id="path3594"
     d="m 90.945683,8.2430578 c 0.224,0 0.436,0.116 0.436,0.364 0,0.288 -0.224,0.484 -0.412,0.596 -0.144,0.084 -0.304,0.144 -0.468,0.144 -0.224,0 -0.436,-0.116 -0.436,-0.364 0,-0.288 0.224,-0.484 0.412,-0.596 0.144,-0.084 0.304,-0.144 0.468,-0.144 z" />
  <rect
     style="fill:currentColor"
     id="rect3596"
     ry="0.039999999"
     height="2.5067999"
     width="0.13"
     y="26.082758"
     x="99.016083" />
  <rect
     style="fill:currentColor"
     id="rect3598"
     ry="0.039999999"
     height="3.3122001"
     width="0.13"
     y="29.965158"
     x="97.82988" />
  <path
     style="fill:currentColor"
     id="path3600"
     d="m 102.91948,27.725358 c 0.224,0 0.436,0.116 0.436,0.364 0,0.288 -0.224,0.484 -0.412,0.596 -0.144,0.084 -0.304,0.144 -0.468,0.144 -0.224,0 -0.436,-0.116 -0.436,-0.364 0,-0.288 0.224,-0.484 0.412,-0.596 0.144,-0.084 0.304,-0.144 0.468,-0.144 z" />
  <rect
     style="fill:currentColor"
     id="rect3602"
     ry="0.039999999"
     height="2.3074999"
     width="0.13"
     y="25.781958"
     x="103.22569" />
  <path
     style="fill:currentColor"
     id="path3604"
     d="m 90.195683,33.737358 -0.064,0 0,-1 0.064,0 c 0.392,-0.232 0.908,-0.592 0.908,-1.036 0,-0.228 -0.064,-0.448 -0.164,-0.652 -0.012,-0.064 0.04,-0.108 0.092,-0.108 0.028,0 0.06,0.012 0.08,0.044 0.1,0.224 0.16,0.468 0.16,0.716 0,0.816 -1.076,1.22 -1.076,2.036 z" />
  <path
     style="fill:currentColor"
     id="path3606"
     d="m 98.709883,7.7430578 c 0.224,0 0.436,0.116 0.436,0.364 0,0.288 -0.224,0.484 -0.412,0.596 -0.144,0.084 -0.304,0.144 -0.468,0.144 -0.224,0 -0.436,-0.116 -0.436,-0.364 0,-0.288 0.224,-0.484 0.412,-0.596 0.144,-0.084 0.304,-0.144 0.468,-0.144 z" />
  <path
     style="fill:currentColor"
     id="path3608"
     d="m 98.709883,9.2430578 c 0.224,0 0.436,0.116 0.436,0.364 0,0.288 -0.224,0.4840002 -0.412,0.5960002 -0.144,0.084 -0.304,0.144 -0.468,0.144 -0.224,0 -0.436,-0.116 -0.436,-0.3640002 0,-0.288 0.224,-0.484 0.412,-0.596 0.144,-0.084 0.304,-0.144 0.468,-0.144 z" />
  <path
     style="fill:currentColor"
     id="path3610"
     d="m 98.709883,28.225358 c 0.224,0 0.436,0.116 0.436,0.364 0,0.288 -0.224,0.484 -0.412,0.596 -0.144,0.084 -0.304,0.144 -0.468,0.144 -0.224,0 -0.436,-0.116 -0.436,-0.364 0,-0.288 0.224,-0.484 0.412,-0.596 0.144,-0.084 0.304,-0.144 0.468,-0.144 z" />
  <path
     style="fill:currentColor"
     id="path3612"
     d="m 98.709883,29.225358 c 0.224,0 0.436,0.116 0.436,0.364 0,0.288 -0.224,0.484 -0.412,0.596 -0.144,0.084 -0.304,0.144 -0.468,0.144 -0.224,0 -0.436,-0.116 -0.436,-0.364 0,-0.288 0.224,-0.484 0.412,-0.596 0.144,-0.084 0.304,-0.144 0.468,-0.144 z" />
  <text
     y="38.68586"
     x="94.134682"
     style="font-size:2.46959996px;font-family:'Century Schoolbook L';text-anchor:start;fill:currentColor"
     id="text3614"
     font-size="2.4696">
    <tspan
       id="tspan3616">kommt,</tspan>
  </text>
  <rect
     style="fill:currentColor"
     id="rect3618"
     ry="0.039999999"
     height="2.6454999"
     width="0.13"
     y="5.4617577"
     x="99.016083" />
  <path
     style="fill:currentColor"
     id="path3620"
     d="m 99.595983,10.295058 c 0,-0.124 0.1,-0.224 0.224,-0.224 0.124,0 0.223997,0.1 0.223997,0.224 0,0.124 -0.1,0.224 -0.223997,0.224 -0.124,0 -0.224,-0.1 -0.224,-0.224 z" />
  <rect
     style="fill:currentColor"
     id="rect3622"
     ry="0.039999999"
     height="3.1454999"
     width="0.13"
     y="9.9828577"
     x="97.82988" />
  <path
     style="fill:currentColor"
     id="path3624"
     d="m 27.801583,29.725358 c 0.224,0 0.436,0.116 0.436,0.364 0,0.288 -0.224,0.484 -0.412,0.596 -0.144,0.084 -0.304,0.144 -0.468,0.144 -0.224,0 -0.436,-0.116 -0.436,-0.364 0,-0.288 0.224,-0.484 0.412,-0.596 0.144,-0.084 0.304,-0.144 0.468,-0.144 z" />
  <rect
     style="fill:currentColor"
     id="rect3626"
     ry="0.039999999"
     height="2.4984"
     width="0.13"
     y="30.965158"
     x="23.817383" />
  <rect
     style="fill:currentColor"
     id="rect3628"
     ry="0.039999999"
     height="2.3122001"
     width="0.13"
     y="26.277357"
     x="25.003582" />
  <path
     style="fill:currentColor"
     id="path3630"
     d="m 24.697383,7.7430578 c 0.224,0 0.436,0.116 0.436,0.364 0,0.288 -0.224,0.484 -0.412,0.596 -0.144,0.084 -0.304,0.144 -0.468,0.144 -0.224,0 -0.436,-0.116 -0.436,-0.364 0,-0.288 0.224,-0.484 0.412,-0.596 0.144,-0.084 0.304,-0.144 0.468,-0.144 z" />
  <path
     style="fill:currentColor"
     id="path3632"
     d="m 24.697383,10.243058 c 0.224,0 0.436,0.116 0.436,0.364 0,0.288 -0.224,0.484 -0.412,0.596 -0.144,0.084 -0.304,0.144 -0.468,0.144 -0.224,0 -0.436,-0.116 -0.436,-0.364 0,-0.288 0.224,-0.484 0.412,-0.596 0.144,-0.084 0.304,-0.144 0.468,-0.144 z" />
  <text
     y="18.344358"
     x="19.900282"
     style="font-size:2.46959996px;font-family:'Century Schoolbook L';text-anchor:start;fill:currentColor"
     id="text3634"
     font-size="2.4696">
    <tspan
       id="tspan3636">Kommt,</tspan>
  </text>
  <text
     y="21.144358"
     x="19.900282"
     style="font-size:2.46959996px;font-family:'Century Schoolbook L';text-anchor:start;fill:currentColor"
     id="text3638"
     font-size="2.4696">
    <tspan
       id="tspan3640">Kommt,</tspan>
  </text>
  <path
     style="fill:currentColor"
     id="path3642"
     d="m 24.697383,28.225358 c 0.224,0 0.436,0.116 0.436,0.364 0,0.288 -0.224,0.484 -0.412,0.596 -0.144,0.084 -0.304,0.144 -0.468,0.144 -0.224,0 -0.436,-0.116 -0.436,-0.364 0,-0.288 0.224,-0.484 0.412,-0.596 0.144,-0.084 0.304,-0.144 0.468,-0.144 z" />
  <path
     style="fill:currentColor"
     id="path3644"
     d="m 24.697383,30.225358 c 0.224,0 0.436,0.116 0.436,0.364 0,0.288 -0.224,0.484 -0.412,0.596 -0.144,0.084 -0.304,0.144 -0.468,0.144 -0.224,0 -0.436,-0.116 -0.436,-0.364 0,-0.288 0.224,-0.484 0.412,-0.596 0.144,-0.084 0.304,-0.144 0.468,-0.144 z" />
  <path
     style="fill:currentColor"
     id="path3646"
     d="m 25.583583,8.2950578 c 0,-0.124 0.1,-0.224 0.224,-0.224 0.124,0 0.224,0.1 0.224,0.224 0,0.124 -0.1,0.224 -0.224,0.224 -0.124,0 -0.224,-0.1 -0.224,-0.224 z" />
  <rect
     style="fill:currentColor"
     id="rect3648"
     ry="0.039999999"
     height="2.6454999"
     width="0.13"
     y="5.4617577"
     x="25.003582" />
  <rect
     style="fill:currentColor"
     id="rect3650"
     ry="0.039999999"
     height="2.8122001"
     width="0.13"
     y="10.982858"
     x="23.817383" />
  <rect
     style="fill:currentColor"
     id="rect3652"
     ry="0.039999999"
     height="2.1171"
     width="0.13"
     y="5.9901581"
     x="36.671383" />
  <text
     y="38.68586"
     x="33.411781"
     style="font-size:2.46959996px;font-family:'Century Schoolbook L';text-anchor:start;fill:currentColor"
     id="text3654"
     font-size="2.4696">
    <tspan
       id="tspan3656">Töch</tspan>
  </text>
  <path
     style="fill:currentColor"
     id="path3658"
     d="m 36.365183,29.725358 c 0.224,0 0.436,0.116 0.436,0.364 0,0.288 -0.224,0.484 -0.412,0.596 -0.144,0.084 -0.304,0.144 -0.468,0.144 -0.224,0 -0.436,-0.116 -0.436,-0.364 0,-0.288 0.224,-0.484 0.412,-0.596 0.144,-0.084 0.304,-0.144 0.468,-0.144 z" />
  <path
     style="fill:currentColor"
     id="path3660"
     d="m 35.393183,27.741358 c 0,-0.112 0.044,-0.168 0.16,-0.168 0.132,0 0.312,0.052 0.476,0.124 l -0.528,-0.632 c -0.028,-0.036 -0.04,-0.068 -0.04,-0.1 0,-0.136 0.2,-0.264 0.348,-0.396 0.1,-0.088 0.148,-0.208 0.148,-0.332 0,-0.096 -0.032,-0.196 -0.1,-0.276 l -0.14,-0.168 c -0.012,-0.012 -0.016,-0.028 -0.016,-0.04 0,-0.036 0.036,-0.06 0.068,-0.06 0.016,0 0.032,0.004 0.044,0.02 l 0.604,0.72 c 0.028,0.036 0.04,0.068 0.04,0.1 0,0.136 -0.2,0.264 -0.348,0.396 -0.1,0.088 -0.148,0.208 -0.148,0.332 0,0.096 0.028,0.196 0.096,0.276 l 0.336,0.396 c 0.012,0.012 0.016,0.028 0.016,0.04 0,0.036 -0.032,0.064 -0.064,0.064 -0.016,0 -0.036,-0.008 -0.048,-0.024 -0.072,-0.084 -0.252,-0.152 -0.388,-0.152 -0.164,0 -0.212,0.104 -0.212,0.268 0,0.14 0.044,0.296 0.112,0.376 0.02,0.024 0,0.052 -0.024,0.052 -0.008,0 -0.016,0 -0.024,-0.008 -0.18,-0.216 -0.368,-0.592 -0.368,-0.808 z" />
  <path
     style="fill:currentColor"
     id="path3662"
     d="m 35.393183,12.259058 c 0,-0.112 0.044,-0.168 0.16,-0.168 0.132,0 0.312,0.052 0.476,0.124 l -0.528,-0.632 c -0.028,-0.036 -0.04,-0.068 -0.04,-0.1 0,-0.136 0.2,-0.264 0.348,-0.396 0.1,-0.088 0.148,-0.208 0.148,-0.332 0,-0.096 -0.032,-0.196 -0.1,-0.276 l -0.14,-0.168 c -0.012,-0.012 -0.016,-0.028 -0.016,-0.04 0,-0.036 0.036,-0.06 0.068,-0.06 0.016,0 0.032,0.004 0.044,0.02 l 0.604,0.72 c 0.028,0.036 0.04,0.068 0.04,0.1 0,0.136 -0.2,0.264 -0.348,0.396 -0.1,0.088 -0.148,0.208 -0.148,0.332 0,0.096 0.028,0.196 0.096,0.276 l 0.336,0.396 c 0.012,0.012 0.016,0.028 0.016,0.04 0,0.036 -0.032,0.064 -0.064,0.064 -0.016,0 -0.036,-0.008 -0.048,-0.024 -0.072,-0.084 -0.252,-0.152 -0.388,-0.152 -0.164,0 -0.212,0.104 -0.212,0.268 0,0.14 0.044,0.296 0.112,0.376 0.02,0.024 0,0.052 -0.024,0.052 -0.008,0 -0.016,0 -0.024,-0.008 -0.18,-0.216 -0.368,-0.592 -0.368,-0.808 z" />
  <path
     style="fill:currentColor"
     id="path3664"
     d="m 36.365183,7.7430578 c 0.224,0 0.436,0.116 0.436,0.364 0,0.288 -0.224,0.484 -0.412,0.596 -0.144,0.084 -0.304,0.144 -0.468,0.144 -0.224,0 -0.436,-0.116 -0.436,-0.364 0,-0.288 0.224,-0.484 0.412,-0.596 0.144,-0.084 0.304,-0.144 0.468,-0.144 z" />
  <path
     style="fill:currentColor"
     id="path3666"
     d="m 30.155683,33.237358 -0.064,0 0,-1 0.064,0 c 0.392,-0.232 0.908,-0.592 0.908,-1.036 0,-0.228 -0.064,-0.448 -0.164,-0.652 -0.012,-0.064 0.04,-0.108 0.092,-0.108 0.028,0 0.06,0.012 0.08,0.044 0.1,0.224 0.16,0.468 0.16,0.716 0,0.816 -1.076,1.22 -1.076,2.036 z" />
  <rect
     style="fill:currentColor"
     id="rect3668"
     ry="0.039999999"
     height="3.3122001"
     width="0.13"
     y="29.965158"
     x="30.025682" />
  <rect
     style="fill:currentColor"
     id="rect3670"
     ry="0.039999999"
     height="2.816"
     width="0.13"
     y="30.465158"
     x="26.921583" />
  <path
     style="fill:currentColor"
     id="path3672"
     d="m 30.313683,12.795058 0.468,-1.304 c -0.136,0.048 -0.276,0.088 -0.42,0.088 -0.184,0 -0.348,-0.132 -0.348,-0.316 0,-0.16 0.132,-0.288 0.292,-0.288 0.1,0 0.192,0.06 0.224,0.156 0.04,0.112 0.024,0.236 0.14,0.236 0.064,0 0.216,-0.192 0.244,-0.252 0.024,-0.048 0.092,-0.048 0.112,0 l -0.492,1.68 c -0.032,0.028 -0.068,0.04 -0.108,0.04 -0.04,0 -0.08,-0.012 -0.112,-0.04 z" />
  <path
     style="fill:currentColor"
     id="path3674"
     d="m 30.313683,28.277358 0.468,-1.304 c -0.136,0.048 -0.276,0.088 -0.42,0.088 -0.184,0 -0.348,-0.132 -0.348,-0.316 0,-0.16 0.132,-0.288 0.292,-0.288 0.1,0 0.192,0.06 0.224,0.156 0.04,0.112 0.024,0.236 0.14,0.236 0.064,0 0.216,-0.192 0.244,-0.252 0.024,-0.048 0.092,-0.048 0.112,0 l -0.492,1.68 c -0.032,0.028 -0.068,0.04 -0.108,0.04 -0.04,0 -0.08,-0.012 -0.112,-0.04 z" />
  <path
     style="fill:currentColor"
     id="path3676"
     d="m 30.905683,29.225358 c 0.224,0 0.436,0.116 0.436,0.364 0,0.288 -0.224,0.484 -0.412,0.596 -0.144,0.084 -0.304,0.144 -0.468,0.144 -0.224,0 -0.436,-0.116 -0.436,-0.364 0,-0.288 0.224,-0.484 0.412,-0.596 0.144,-0.084 0.304,-0.144 0.468,-0.144 z" />
  <text
     y="38.68586"
     x="28.993683"
     style="font-size:2.46959996px;font-family:'Century Schoolbook L';text-anchor:start;fill:currentColor"
     id="text3678"
     font-size="2.4696">
    <tspan
       id="tspan3680">ihr</tspan>
  </text>
  <path
     style="fill:currentColor"
     id="path3682"
     d="m 15.154983,14.295058 c 0,-0.124 0.1,-0.224 0.224,-0.224 0.124,0 0.224,0.1 0.224,0.224 0,0.124 -0.1,0.224 -0.224,0.224 -0.124,0 -0.224,-0.1 -0.224,-0.224 z" />
  <rect
     style="fill:currentColor"
     id="rect3684"
     ry="0.039999999"
     height="3.6335001"
     width="0.13"
     y="7.9737577"
     x="14.941183" />
  <text
     y="38.68586"
     x="13.754983"
     style="font-size:2.46959996px;font-family:'Century Schoolbook L';text-anchor:start;fill:currentColor"
     id="text3686"
     font-size="2.4696">
    <tspan
       id="tspan3688">Kommt,</tspan>
  </text>
  <path
     style="fill:currentColor"
     id="path3690"
     d="m 10.691183,32.139758 c 0.108,-0.116 0.196,-0.248 0.196,-0.408 0,-0.22 -0.228,-0.348 -0.468,-0.348 -0.188,0 -0.3,0.144 -0.3,0.284 0,0.08 0.04,0.16 0.12,0.208 z m 0.12,0.068 c 0.22,0.124 0.332,0.316 0.332,0.508 0,0.292 -0.264,0.576 -0.756,0.576 -0.376,0 -0.7320002,-0.216 -0.7320002,-0.56 0,-0.2 0.156,-0.34 0.304,-0.48 -0.164,-0.112 -0.244,-0.268 -0.244,-0.424 0,-0.272 0.244,-0.536 0.7040002,-0.536 0.324,0 0.644,0.152 0.644,0.44 0,0.188 -0.12,0.34 -0.252,0.476 z m -0.732,0.116 c -0.1320002,0.116 -0.2480002,0.236 -0.2480002,0.408 0,0.276 0.2640002,0.468 0.5560002,0.468 0.216,0 0.344,-0.168 0.344,-0.332 0,-0.096 -0.04,-0.192 -0.14,-0.248 z" />
  <g
     id="g3692"
     transform="translate(9.0235828,31.277358)">
    <path
       style="fill:currentColor"
       id="path3694"
       d="m 122,503 c 18,0 34,-16 53,-16 15,0 29,7 42,13 1,1 3,1 4,1 7,0 12,-7 12,-17 l 0,-367 c 0,-48 28,-94 73,-94 8,0 12,-5 12,-11 C 318,6 314,0 306,0 262,0 219,13 175,13 131,13 88,0 44,0 36,0 32,6 32,12 c 0,6 4,11 12,11 45,0 73,46 73,94 l 0,245 c 0,12 -9,19 -17,19 -4,0 -8,-3 -10,-7 L 26,238 c -3,-6 -7,-9 -12,-9 -8,0 -16,6 -16,14 0,2 1,5 2,7 l 117,250 c 1,2 3,3 5,3 z"
       transform="scale(0.004,-0.004)" />
    <path
       style="fill:currentColor"
       id="path3696"
       d="M 23,11 C 22,4 17,0 12,0 6,0 0,4 0,11 c 0,175 235,165 235,344 0,60 -18,122 -70,122 -26,0 -51,-14 -51,-37 0,-27 35,-41 35,-68 0,-38 -30,-69 -68,-69 -38,0 -69,31 -69,69 0,76 72,128 153,128 96,0 187,-56 187,-145 0,-153 -151,-159 -249,-220 9,2 17,3 26,3 33,0 70,-11 105,-36 21,-15 46,-23 66,-23 21,0 39,9 44,29 2,6 6,9 11,9 6,0 12,-5 12,-12 C 367,38 277,0 229,0 193,0 158,14 133,44 120,60 102,66 85,66 55,66 26,46 23,11 Z"
       transform="matrix(0.004,0,0,-0.004,1.2633,0)" />
  </g>
  <path
     style="fill:currentColor"
     id="path3698"
     d="m 7.6375828,31.525358 c 0,0.04 -0.032,0.076 -0.072,0.076 -0.04,0 -0.076,-0.036 -0.076,-0.076 l 0,-0.58 -0.332,0.124 0,0.632 c 0,0.04 -0.036,0.076 -0.076,0.076 -0.04,0 -0.072,-0.036 -0.072,-0.076 l 0,-0.58 -0.128,0.048 c -0.008,0.004 -0.02,0.004 -0.028,0.004 -0.044,0 -0.08,-0.036 -0.08,-0.08 l 0,-0.24 c 0,-0.032 0.02,-0.064 0.052,-0.076 l 0.184,-0.064 0,-0.64 -0.128,0.044 c -0.008,0.004 -0.02,0.004 -0.028,0.004 -0.044,0 -0.08,-0.036 -0.08,-0.08 l 0,-0.24 c 0,-0.032 0.02,-0.06 0.052,-0.072 l 0.184,-0.068 0,-0.632 c 0,-0.04 0.032,-0.076 0.072,-0.076 0.04,0 0.076,0.036 0.076,0.076 l 0,0.58 0.332,-0.124 0,-0.632 c 0,-0.04 0.036,-0.076 0.076,-0.076 0.04,0 0.072,0.036 0.072,0.076 l 0,0.58 0.128,-0.048 c 0.008,-0.004 0.02,-0.004 0.028,-0.004 0.044,0 0.08,0.036 0.08,0.08 l 0,0.24 c 0,0.032 -0.02,0.064 -0.052,0.076 l -0.184,0.064 0,0.64 0.128,-0.044 c 0.008,-0.004 0.02,-0.004 0.028,-0.004 0.044,0 0.08,0.036 0.08,0.08 l 0,0.24 c 0,0.032 -0.02,0.06 -0.052,0.072 l -0.184,0.068 0,0.632 z m -0.48,-1.508 0,0.64 0.332,-0.12 0,-0.64 z" />
  <path
     style="fill:currentColor"
     id="path3700"
     d="m 5.5015828,30.777358 c 0,-0.112 0.092,-0.204 0.204,-0.204 0.112,0 0.204,0.092 0.204,0.204 0,0.112 -0.092,0.204 -0.204,0.204 -0.112,0 -0.204,-0.092 -0.204,-0.204 z m 0,-1 c 0,-0.112 0.092,-0.204 0.204,-0.204 0.112,0 0.204,0.092 0.204,0.204 0,0.112 -0.092,0.204 -0.204,0.204 -0.112,0 -0.204,-0.092 -0.204,-0.204 z m -1.3,-0.552 c 0.688,0 1.172,0.352 1.172,1.004 0,1.052 -1.052,1.656 -2.064,2.084 -0.012,0.012 -0.024,0.016 -0.036,0.016 -0.028,0 -0.052,-0.024 -0.052,-0.052 0,-0.012 0.004,-0.024 0.016,-0.036 0.808,-0.472 1.648,-1.06 1.648,-1.972 0,-0.48 -0.252,-0.94 -0.684,-0.94 -0.296,0 -0.516,0.216 -0.616,0.504 0.044,-0.02 0.088,-0.032 0.136,-0.032 0.22,0 0.4,0.18 0.4,0.4 0,0.232 -0.176,0.424 -0.4,0.424 -0.24,0 -0.448,-0.188 -0.448,-0.424 0,-0.532 0.408,-0.976 0.928,-0.976 z" />
  <text
     y="36.376259"
     x="9.794383"
     style="font-size:2.20009995px;font-family:'Century Schoolbook L';text-anchor:start;fill:currentColor"
     id="text3702"
     font-size="2.2001">
    <tspan
       id="tspan3704">Takt 17</tspan>
  </text>
  <path
     style="fill:currentColor"
     id="path3706"
     d="m 14.634983,30.225358 c 0.224,0 0.436,0.116 0.436,0.364 0,0.288 -0.224,0.484 -0.412,0.596 -0.144,0.084 -0.304,0.144 -0.468,0.144 -0.224,0 -0.436,-0.116 -0.436,-0.364 0,-0.288 0.224,-0.484 0.412,-0.596 0.144,-0.084 0.304,-0.144 0.468,-0.144 z" />
  <path
     style="fill:currentColor"
     id="path3708"
     d="m 13.662983,28.241358 c 0,-0.112 0.044,-0.168 0.16,-0.168 0.132,0 0.312,0.052 0.476,0.124 l -0.528,-0.632 c -0.028,-0.036 -0.04,-0.068 -0.04,-0.1 0,-0.136 0.2,-0.264 0.348,-0.396 0.1,-0.088 0.148,-0.208 0.148,-0.332 0,-0.096 -0.032,-0.196 -0.1,-0.276 l -0.14,-0.168 c -0.012,-0.012 -0.016,-0.028 -0.016,-0.04 0,-0.036 0.036,-0.06 0.068,-0.06 0.016,0 0.032,0.004 0.044,0.02 l 0.604,0.72 c 0.028,0.036 0.04,0.068 0.04,0.1 0,0.136 -0.2,0.264 -0.348,0.396 -0.1,0.088 -0.148,0.208 -0.148,0.332 0,0.096 0.028,0.196 0.096,0.276 l 0.336,0.396 c 0.012,0.012 0.016,0.028 0.016,0.04 0,0.036 -0.032,0.064 -0.064,0.064 -0.016,0 -0.036,-0.008 -0.048,-0.024 -0.072,-0.084 -0.252,-0.152 -0.388,-0.152 -0.164,0 -0.212,0.104 -0.212,0.268 0,0.14 0.044,0.296 0.112,0.376 0.02,0.024 0,0.052 -0.024,0.052 -0.008,0 -0.016,0 -0.024,-0.008 -0.18,-0.216 -0.368,-0.592 -0.368,-0.808 z" />
  <path
     style="fill:currentColor"
     id="path3710"
     d="m 2.0735828,24.336258 c 0,2.08 -0.74,4.1 -0.74,6.1 0,1.02 0.2,2 0.84,2.84 0.02,0.02 0.02,0.04 0.02,0.06 0,0.04 -0.04,0.08 -0.08,0.08 -0.02,0 -0.04,-0.02 -0.06,-0.04 -0.82,-1.1 -1.11999995,-2.42 -1.11999995,-3.78 0,-2.12 0.75999995,-4.18 0.75999995,-6.2 0,-1.02 -0.22,-1.98 -0.83999995,-2.82 l 0,-0.04 0,-0.04 c 0.61999995,-0.84 0.83999995,-1.8 0.83999995,-2.82 0,-2.02 -0.75999995,-4.08 -0.75999995,-6.2 0,-1.36 0.29999995,-2.6800002 1.11999995,-3.7800002 0.02,-0.02 0.04,-0.04 0.06,-0.04 0.04,0 0.08,0.04 0.08,0.08 0,0.02 0,0.04 -0.02,0.06 -0.64,0.84 -0.84,1.82 -0.84,2.8400002 0,2 0.74,4.02 0.74,6.1 0,1.36 -0.28,2.7 -1.09999995,3.8 0.81999995,1.1 1.09999995,2.44 1.09999995,3.8 z" />
  <rect
     style="fill:currentColor"
     id="rect3712"
     ry="0.050000001"
     height="25.5823"
     width="0.16"
     y="7.7451582"
     x="2.4135828" />
  <text
     y="2.7829578"
     x="13.754983"
     style="font-size:2.46959996px;font-family:'Century Schoolbook L';text-anchor:start;fill:currentColor"
     id="text3714"
     font-size="2.4696">
    <tspan
       id="tspan3716">Kommt,</tspan>
  </text>
  <path
     style="fill:currentColor"
     id="path3718"
     d="m 14.634983,11.243058 c 0.224,0 0.436,0.116 0.436,0.364 0,0.288 -0.224,0.484 -0.412,0.596 -0.144,0.084 -0.304,0.144 -0.468,0.144 -0.224,0 -0.436,-0.116 -0.436,-0.364 0,-0.288 0.224,-0.484 0.412,-0.596 0.144,-0.084 0.304,-0.144 0.468,-0.144 z" />
  <path
     style="fill:currentColor"
     id="path3720"
     d="m 13.662983,15.259058 c 0,-0.112 0.044,-0.168 0.16,-0.168 0.132,0 0.312,0.052 0.476,0.124 l -0.528,-0.632 c -0.028,-0.036 -0.04,-0.068 -0.04,-0.1 0,-0.136 0.2,-0.264 0.348,-0.396 0.1,-0.088 0.148,-0.208 0.148,-0.332 0,-0.096 -0.032,-0.196 -0.1,-0.276 l -0.14,-0.168 c -0.012,-0.012 -0.016,-0.028 -0.016,-0.04 0,-0.036 0.036,-0.06 0.068,-0.06 0.016,0 0.032,0.004 0.044,0.02 l 0.604,0.72 c 0.028,0.036 0.04,0.068 0.04,0.1 0,0.136 -0.2,0.264 -0.348,0.396 -0.1,0.088 -0.148,0.208 -0.148,0.332 0,0.096 0.028,0.196 0.096,0.276 l 0.336,0.396 c 0.012,0.012 0.016,0.028 0.016,0.04 0,0.036 -0.032,0.064 -0.064,0.064 -0.016,0 -0.036,-0.008 -0.048,-0.024 -0.072,-0.084 -0.252,-0.152 -0.388,-0.152 -0.164,0 -0.212,0.104 -0.212,0.268 0,0.14 0.044,0.296 0.112,0.376 0.02,0.024 0,0.052 -0.024,0.052 -0.008,0 -0.016,0 -0.024,-0.008 -0.18,-0.216 -0.368,-0.592 -0.368,-0.808 z" />
  <path
     style="fill:currentColor"
     id="path3722"
     d="m 4.7775828,9.7470578 c 0.016,0 0.036,-0.004 0.052,-0.004 0.62,0 1.024,0.5120002 1.024,1.0440002 0,0.304 -0.132,0.616 -0.428,0.84 -0.088,0.068 -0.188,0.112 -0.292,0.144 0.012,0.14 0.02,0.28 0.02,0.42 0,0.076 -0.004,0.156 -0.008,0.232 -0.028,0.48 -0.36,0.912 -0.832,0.912 -0.432,0 -0.78,-0.352 -0.78,-0.788 0,-0.232 0.212,-0.412 0.448,-0.412 0.216,0 0.38,0.188 0.38,0.412 0,0.208 -0.172,0.38 -0.38,0.38 -0.044,0 -0.084,-0.008 -0.124,-0.024 0.104,0.156 0.272,0.26 0.468,0.26 0.384,0 0.628,-0.368 0.652,-0.764 0.004,-0.072 0.008,-0.148 0.008,-0.22 0,-0.124 -0.004,-0.244 -0.016,-0.368 -0.116,0.02 -0.232,0.032 -0.356,0.032 -0.752,0 -1.332,-0.688 -1.332,-1.496 0,-0.7080002 0.524,-1.2240002 0.992,-1.7640002 -0.076,-0.248 -0.148,-0.5 -0.18,-0.76 -0.024,-0.208 -0.028,-0.416 -0.028,-0.624 0,-0.46 0.22,-0.896 0.596,-1.168 0.012,-0.008 0.028,-0.012 0.04,-0.012 0.016,0 0.028,0 0.04,0.012 0.284,0.336 0.532,0.98 0.532,1.432 0,0.572 -0.344,1.02 -0.72,1.456 0.084,0.272 0.156,0.552 0.224,0.828 z m 0.34,1.8600002 c 0.272,-0.096 0.452,-0.38 0.452,-0.656 0,-0.36 -0.264,-0.716 -0.692,-0.76 0.096,0.464 0.184,0.924 0.24,1.416 z m -1.548,-0.924 c 0,0.54 0.516,0.988 1.056,0.988 0.112,0 0.22,-0.008 0.328,-0.024 -0.056,-0.508 -0.148,-0.98 -0.252,-1.456 -0.316,0.032 -0.496,0.244 -0.496,0.476 0,0.176 0.1,0.364 0.324,0.492 0.02,0.02 0.028,0.04 0.028,0.06 0,0.044 -0.04,0.088 -0.088,0.088 -0.012,0 -0.024,-0.004 -0.036,-0.008 -0.32,-0.172 -0.468,-0.46 -0.468,-0.74 0,-0.352 0.232,-0.6960002 0.64,-0.7880002 -0.056,-0.232 -0.116,-0.468 -0.184,-0.7 -0.428,0.484 -0.852,0.9720002 -0.852,1.6120002 z m 1.336,-4.0680002 c -0.396,0.192 -0.648,0.596 -0.648,1.036 0,0.296 0.072,0.532 0.144,0.776 0.32,-0.388 0.584,-0.792 0.584,-1.296 0,-0.22 -0.016,-0.316 -0.08,-0.516 z" />
  <path
     style="fill:currentColor"
     id="path3724"
     d="m 7.6375828,9.0430578 c 0,0.04 -0.032,0.076 -0.072,0.076 -0.04,0 -0.076,-0.036 -0.076,-0.076 l 0,-0.58 -0.332,0.124 0,0.632 c 0,0.04 -0.036,0.076 -0.076,0.076 -0.04,0 -0.072,-0.036 -0.072,-0.076 l 0,-0.58 -0.128,0.048 c -0.008,0.004 -0.02,0.004 -0.028,0.004 -0.044,0 -0.08,-0.036 -0.08,-0.08 l 0,-0.24 c 0,-0.032 0.02,-0.064 0.052,-0.076 l 0.184,-0.064 0,-0.64 -0.128,0.044 c -0.008,0.004 -0.02,0.004 -0.028,0.004 -0.044,0 -0.08,-0.036 -0.08,-0.08 l 0,-0.24 c 0,-0.032 0.02,-0.06 0.052,-0.072 l 0.184,-0.068 0,-0.632 c 0,-0.04 0.032,-0.076 0.072,-0.076 0.04,0 0.076,0.036 0.076,0.076 l 0,0.58 0.332,-0.124 0,-0.632 c 0,-0.04 0.036,-0.076 0.076,-0.076 0.04,0 0.072,0.036 0.072,0.076 l 0,0.58 0.128,-0.048 c 0.008,-0.004 0.02,-0.004 0.028,-0.004 0.044,0 0.08,0.036 0.08,0.08 l 0,0.24 c 0,0.032 -0.02,0.064 -0.052,0.076 l -0.184,0.064 0,0.64 0.128,-0.044 c 0.008,-0.004 0.02,-0.004 0.028,-0.004 0.044,0 0.08,0.036 0.08,0.08 l 0,0.24 c 0,0.032 -0.02,0.06 -0.052,0.072 l -0.184,0.068 0,0.632 z m -0.48,-1.508 0,0.64 0.332,-0.12 0,-0.64 z" />
  <path
     style="fill:currentColor"
     id="path3726"
     d="m 10.691183,10.657558 c 0.108,-0.116 0.196,-0.248 0.196,-0.408 0,-0.22 -0.228,-0.3480002 -0.468,-0.3480002 -0.188,0 -0.3,0.1440002 -0.3,0.2840002 0,0.08 0.04,0.16 0.12,0.208 z m 0.12,0.068 c 0.22,0.124 0.332,0.316 0.332,0.508 0,0.292 -0.264,0.576 -0.756,0.576 -0.376,0 -0.7320002,-0.216 -0.7320002,-0.56 0,-0.2 0.156,-0.34 0.304,-0.48 -0.164,-0.112 -0.244,-0.268 -0.244,-0.424 0,-0.272 0.244,-0.5360002 0.7040002,-0.5360002 0.324,0 0.644,0.152 0.644,0.4400002 0,0.188 -0.12,0.34 -0.252,0.476 z m -0.732,0.116 c -0.1320002,0.116 -0.2480002,0.236 -0.2480002,0.408 0,0.276 0.2640002,0.468 0.5560002,0.468 0.216,0 0.344,-0.168 0.344,-0.332 0,-0.096 -0.04,-0.192 -0.14,-0.248 z" />
  <g
     id="g3728"
     transform="translate(9.0235828,9.7950578)">
    <path
       style="fill:currentColor"
       id="path3730"
       d="m 122,503 c 18,0 34,-16 53,-16 15,0 29,7 42,13 1,1 3,1 4,1 7,0 12,-7 12,-17 l 0,-367 c 0,-48 28,-94 73,-94 8,0 12,-5 12,-11 C 318,6 314,0 306,0 262,0 219,13 175,13 131,13 88,0 44,0 36,0 32,6 32,12 c 0,6 4,11 12,11 45,0 73,46 73,94 l 0,245 c 0,12 -9,19 -17,19 -4,0 -8,-3 -10,-7 L 26,238 c -3,-6 -7,-9 -12,-9 -8,0 -16,6 -16,14 0,2 1,5 2,7 l 117,250 c 1,2 3,3 5,3 z"
       transform="scale(0.004,-0.004)" />
    <path
       style="fill:currentColor"
       id="path3732"
       d="M 23,11 C 22,4 17,0 12,0 6,0 0,4 0,11 c 0,175 235,165 235,344 0,60 -18,122 -70,122 -26,0 -51,-14 -51,-37 0,-27 35,-41 35,-68 0,-38 -30,-69 -68,-69 -38,0 -69,31 -69,69 0,76 72,128 153,128 96,0 187,-56 187,-145 0,-153 -151,-159 -249,-220 9,2 17,3 26,3 33,0 70,-11 105,-36 21,-15 46,-23 66,-23 21,0 39,9 44,29 2,6 6,9 11,9 6,0 12,-5 12,-12 C 367,38 277,0 229,0 193,0 158,14 133,44 120,60 102,66 85,66 55,66 26,46 23,11 Z"
       transform="matrix(0.004,0,0,-0.004,1.2633,0)" />
  </g>
  <path
     style="fill:currentColor"
     id="path3734"
     d="m 17.989183,10.243058 c 0.224,0 0.436,0.116 0.436,0.364 0,0.288 -0.224,0.484 -0.412,0.596 -0.144,0.084 -0.304,0.144 -0.468,0.144 -0.224,0 -0.436,-0.116 -0.436,-0.364 0,-0.288 0.224,-0.484 0.412,-0.596 0.144,-0.084 0.304,-0.144 0.468,-0.144 z" />
  <rect
     style="fill:currentColor"
     id="rect3736"
     ry="0.039999999"
     height="3.2172"
     width="0.13"
     y="7.390058"
     x="18.295282" />
  <path
     style="fill:currentColor"
     id="path3738"
     d="m 21.343283,9.2430578 c 0.224,0 0.436,0.116 0.436,0.364 0,0.288 -0.224,0.4840002 -0.412,0.5960002 -0.144,0.084 -0.304,0.144 -0.468,0.144 -0.224,0 -0.436,-0.116 -0.436,-0.3640002 0,-0.288 0.224,-0.484 0.412,-0.596 0.144,-0.084 0.304,-0.144 0.468,-0.144 z" />
  <rect
     style="fill:currentColor"
     id="rect3740"
     ry="0.039999999"
     height="2.8009"
     width="0.13"
     y="6.8063579"
     x="21.649483" />
  <path
     style="fill:currentColor"
     id="path3742"
     d="m 15.521183,27.277358 c 0,-0.124 0.1,-0.224 0.224,-0.224 0.124,0 0.224,0.1 0.224,0.224 0,0.124 -0.1,0.224 -0.224,0.224 -0.124,0 -0.224,-0.1 -0.224,-0.224 z" />
  <path
     style="fill:currentColor"
     id="path3744"
     d="m 15.521183,30.777358 c 0,-0.124 0.1,-0.224 0.224,-0.224 0.124,0 0.224,0.1 0.224,0.224 0,0.124 -0.1,0.224 -0.224,0.224 -0.124,0 -0.224,-0.1 -0.224,-0.224 z" />
  <rect
     style="fill:currentColor"
     id="rect3746"
     ry="0.039999999"
     height="3.3122001"
     width="0.13"
     y="30.965158"
     x="13.754983" />
  <rect
     style="fill:currentColor"
     id="rect3748"
     ry="0.039999999"
     height="2.8094001"
     width="0.13"
     y="30.465158"
     x="46.869781" />
  <rect
     style="fill:currentColor"
     id="rect3750"
     ry="0.039999999"
     height="2.3122001"
     width="0.13"
     y="24.277357"
     x="48.055984" />
  <rect
     style="fill:currentColor"
     id="rect3752"
     ry="0.039999999"
     height="2.9789"
     width="0.13"
     y="10.482858"
     x="46.869781" />
  <path
     style="fill:currentColor"
     id="path3754"
     d="m 54.088983,7.7950578 c 0.032,-0.016 0.068,-0.028 0.104,-0.028 0.036,0 0.068,0.012 0.1,0.028 l -0.012,0.732 0.424,-0.08 0.012,0 c 0.04,0 0.072,0.028 0.072,0.068 l 0.028,2.2800002 c -0.032,0.016 -0.064,0.028 -0.1,0.028 -0.036,0 -0.068,-0.012 -0.1,-0.028 l 0.012,-0.732 -0.424,0.08 -0.012,0 c -0.04,0 -0.072,-0.028 -0.072,-0.068 z m 0.556,1.052 -0.368,0.068 -0.012,0.828 0.368,-0.068 z" />
  <rect
     style="fill:currentColor"
     id="rect3756"
     ry="0.039999999"
     height="2.3022001"
     width="0.13"
     y="6.305058"
     x="48.055984" />
  <text
     y="38.68586"
     x="46.869781"
     style="font-size:2.46959996px;font-family:'Century Schoolbook L';text-anchor:start;fill:currentColor"
     id="text3758"
     font-size="2.4696">
    <tspan
       id="tspan3760">helft</tspan>
  </text>
  <path
     style="fill:currentColor"
     id="path3762"
     d="m 47.749783,29.725358 c 0.224,0 0.436,0.116 0.436,0.364 0,0.288 -0.224,0.484 -0.412,0.596 -0.144,0.084 -0.304,0.144 -0.468,0.144 -0.224,0 -0.436,-0.116 -0.436,-0.364 0,-0.288 0.224,-0.484 0.412,-0.596 0.144,-0.084 0.304,-0.144 0.468,-0.144 z" />
  <path
     style="fill:currentColor"
     id="path3764"
     d="m 47.749783,26.225358 c 0.224,0 0.436,0.116 0.436,0.364 0,0.288 -0.224,0.484 -0.412,0.596 -0.144,0.084 -0.304,0.144 -0.468,0.144 -0.224,0 -0.436,-0.116 -0.436,-0.364 0,-0.288 0.224,-0.484 0.412,-0.596 0.144,-0.084 0.304,-0.144 0.468,-0.144 z" />
  <text
     y="21.144358"
     x="43.174583"
     style="font-size:2.46959996px;font-family:'Century Schoolbook L';text-anchor:start;fill:currentColor"
     id="text3766"
     font-size="2.4696">
    <tspan
       id="tspan3768">kommt,</tspan>
  </text>
  <text
     y="18.344358"
     x="43.174583"
     style="font-size:2.46959996px;font-family:'Century Schoolbook L';text-anchor:start;fill:currentColor"
     id="text3770"
     font-size="2.4696">
    <tspan
       id="tspan3772">kommt,</tspan>
  </text>
  <path
     style="fill:currentColor"
     id="path3774"
     d="m 47.749783,9.7430578 c 0.224,0 0.436,0.116 0.436,0.3640002 0,0.288 -0.224,0.484 -0.412,0.596 -0.144,0.084 -0.304,0.144 -0.468,0.144 -0.224,0 -0.436,-0.116 -0.436,-0.364 0,-0.288 0.224,-0.4840002 0.412,-0.5960002 0.144,-0.084 0.304,-0.144 0.468,-0.144 z" />
  <path
     style="fill:currentColor"
     id="path3776"
     d="m 47.749783,8.2430578 c 0.224,0 0.436,0.116 0.436,0.364 0,0.288 -0.224,0.484 -0.412,0.596 -0.144,0.084 -0.304,0.144 -0.468,0.144 -0.224,0 -0.436,-0.116 -0.436,-0.364 0,-0.288 0.224,-0.484 0.412,-0.596 0.144,-0.084 0.304,-0.144 0.468,-0.144 z" />
  <path
     style="fill:currentColor"
     id="path3778"
     d="m 56.477583,6.0850578 c 0,0.792 0.836,1.34 0.836,2.132 0,0.284 -0.064,0.564 -0.168,0.828 -0.02,0.032 -0.048,0.048 -0.076,0.048 -0.052,0 -0.104,-0.044 -0.092,-0.108 0.104,-0.244 0.168,-0.504 0.168,-0.768 0,-0.416 -0.38,-0.832 -0.668,-1.132 l -0.064,0 0,-1 0.064,0 z" />
  <rect
     style="fill:currentColor"
     id="rect3780"
     ry="0.039999999"
     height="3.0622001"
     width="0.13"
     y="6.0450578"
     x="56.347584" />
  <text
     y="38.68586"
     x="53.787983"
     style="font-size:2.46959996px;font-family:'Century Schoolbook L';text-anchor:start;fill:currentColor"
     id="text3782"
     font-size="2.4696">
    <tspan
       id="tspan3784">mir</tspan>
  </text>
  <path
     style="fill:currentColor"
     id="path3786"
     d="m 56.041383,28.725358 c 0.224,0 0.436,0.116 0.436,0.364 0,0.288 -0.224,0.484 -0.412,0.596 -0.144,0.084 -0.304,0.144 -0.468,0.144 -0.224,0 -0.436,-0.116 -0.436,-0.364 0,-0.288 0.224,-0.484 0.412,-0.596 0.144,-0.084 0.304,-0.144 0.468,-0.144 z" />
  <path
     style="fill:currentColor"
     id="path3788"
     d="m 55.449383,27.777358 0.468,-1.304 c -0.136,0.048 -0.276,0.088 -0.42,0.088 -0.184,0 -0.348,-0.132 -0.348,-0.316 0,-0.16 0.132,-0.288 0.292,-0.288 0.1,0 0.192,0.06 0.224,0.156 0.04,0.112 0.024,0.236 0.14,0.236 0.064,0 0.216,-0.192 0.244,-0.252 0.024,-0.048 0.092,-0.048 0.112,0 l -0.492,1.68 c -0.032,0.028 -0.068,0.04 -0.108,0.04 -0.04,0 -0.08,-0.012 -0.112,-0.04 z" />
  <path
     style="fill:currentColor"
     id="path3790"
     d="m 55.449383,12.795058 0.468,-1.304 c -0.136,0.048 -0.276,0.088 -0.42,0.088 -0.184,0 -0.348,-0.132 -0.348,-0.316 0,-0.16 0.132,-0.288 0.292,-0.288 0.1,0 0.192,0.06 0.224,0.156 0.04,0.112 0.024,0.236 0.14,0.236 0.064,0 0.216,-0.192 0.244,-0.252 0.024,-0.048 0.092,-0.048 0.112,0 l -0.492,1.68 c -0.032,0.028 -0.068,0.04 -0.108,0.04 -0.04,0 -0.08,-0.012 -0.112,-0.04 z" />
  <path
     style="fill:currentColor"
     id="path3792"
     d="m 56.041383,8.7430578 c 0.224,0 0.436,0.116 0.436,0.364 0,0.288 -0.224,0.484 -0.412,0.596 -0.144,0.084 -0.304,0.144 -0.468,0.144 -0.224,0 -0.436,-0.116 -0.436,-0.364 0,-0.288 0.224,-0.484 0.412,-0.596 0.144,-0.084 0.304,-0.144 0.468,-0.144 z" />
  <text
     y="2.7829578"
     x="53.839184"
     style="font-size:2.46959996px;font-family:'Century Schoolbook L';text-anchor:start;fill:currentColor"
     id="text3794"
     font-size="2.4696">
    <tspan
       id="tspan3796">ter,</tspan>
  </text>
  <path
     style="fill:currentColor"
     id="path3798"
     d="m 50.634383,31.025358 c 0,0.04 -0.032,0.076 -0.072,0.076 -0.04,0 -0.076,-0.036 -0.076,-0.076 l 0,-0.58 -0.332,0.124 0,0.632 c 0,0.04 -0.036,0.076 -0.076,0.076 -0.04,0 -0.072,-0.036 -0.072,-0.076 l 0,-0.58 -0.128,0.048 c -0.008,0.004 -0.02,0.004 -0.028,0.004 -0.044,0 -0.08,-0.036 -0.08,-0.08 l 0,-0.24 c 0,-0.032 0.02,-0.064 0.052,-0.076 l 0.184,-0.064 0,-0.64 -0.128,0.044 c -0.008,0.004 -0.02,0.004 -0.028,0.004 -0.044,0 -0.08,-0.036 -0.08,-0.08 l 0,-0.24 c 0,-0.032 0.02,-0.06 0.052,-0.072 l 0.184,-0.068 0,-0.632 c 0,-0.04 0.032,-0.076 0.072,-0.076 0.04,0 0.076,0.036 0.076,0.076 l 0,0.58 0.332,-0.124 0,-0.632 c 0,-0.04 0.036,-0.076 0.076,-0.076 0.04,0 0.072,0.036 0.072,0.076 l 0,0.58 0.128,-0.048 c 0.008,-0.004 0.02,-0.004 0.028,-0.004 0.044,0 0.08,0.036 0.08,0.08 l 0,0.24 c 0,0.032 -0.02,0.064 -0.052,0.076 l -0.184,0.064 0,0.64 0.128,-0.044 c 0.008,-0.004 0.02,-0.004 0.028,-0.004 0.044,0 0.08,0.036 0.08,0.08 l 0,0.24 c 0,0.032 -0.02,0.06 -0.052,0.072 l -0.184,0.068 0,0.632 z m -0.48,-1.508 0,0.64 0.332,-0.12 0,-0.64 z" />
  <rect
     style="fill:currentColor"
     id="rect3800"
     ry="0.039999999"
     height="3.1249001"
     width="0.13"
     y="29.965158"
     x="51.220383" />
  <rect
     style="fill:currentColor"
     id="rect3802"
     ry="0.039999999"
     height="2.6322"
     width="0.13"
     y="6.9750581"
     x="52.406582" />
  <path
     style="fill:currentColor"
     id="path3804"
     d="m 52.100383,29.225358 c 0.224,0 0.436,0.116 0.436,0.364 0,0.288 -0.224,0.484 -0.412,0.596 -0.144,0.084 -0.304,0.144 -0.468,0.144 -0.224,0 -0.436,-0.116 -0.436,-0.364 0,-0.288 0.224,-0.484 0.412,-0.596 0.144,-0.084 0.304,-0.144 0.468,-0.144 z" />
  <path
     style="fill:currentColor"
     id="path3806"
     d="m 52.100383,9.2430578 c 0.224,0 0.436,0.116 0.436,0.364 0,0.288 -0.224,0.4840002 -0.412,0.5960002 -0.144,0.084 -0.304,0.144 -0.468,0.144 -0.224,0 -0.436,-0.116 -0.436,-0.3640002 0,-0.288 0.224,-0.484 0.412,-0.596 0.144,-0.084 0.304,-0.144 0.468,-0.144 z" />
  <rect
     style="fill:currentColor"
     id="rect3808"
     ry="0.039999999"
     height="2.3171999"
     width="0.13"
     y="6.289958"
     x="40.525482" />
  <path
     style="fill:currentColor"
     id="path3810"
     d="m 40.219283,8.2430578 c 0.224,0 0.436,0.116 0.436,0.364 0,0.288 -0.224,0.484 -0.412,0.596 -0.144,0.084 -0.304,0.144 -0.468,0.144 -0.224,0 -0.436,-0.116 -0.436,-0.364 0,-0.288 0.224,-0.484 0.412,-0.596 0.144,-0.084 0.304,-0.144 0.468,-0.144 z" />
  <rect
     style="fill:currentColor"
     id="rect3812"
     ry="0.039999999"
     height="3.3122001"
     width="0.13"
     y="30.465158"
     x="35.485184" />
  <path
     style="fill:currentColor"
     id="path3814"
     d="m 36.885183,26.777358 c 0,-0.124 0.1,-0.224 0.224,-0.224 0.124,0 0.224,0.1 0.224,0.224 0,0.124 -0.1,0.224 -0.224,0.224 -0.124,0 -0.224,-0.1 -0.224,-0.224 z" />
  <path
     style="fill:currentColor"
     id="path3816"
     d="m 36.885183,11.295058 c 0,-0.124 0.1,-0.224 0.224,-0.224 0.124,0 0.224,0.1 0.224,0.224 0,0.124 -0.1,0.224 -0.224,0.224 -0.124,0 -0.224,-0.1 -0.224,-0.224 z" />
  <text
     y="2.7829578"
     x="46.869781"
     style="font-size:2.46959996px;font-family:'Century Schoolbook L';text-anchor:start;fill:currentColor"
     id="text3818"
     font-size="2.4696">
    <tspan
       id="tspan3820">Töch</tspan>
  </text>
  <path
     style="fill:currentColor"
     id="path3822"
     d="m 43.323483,33.737358 -0.064,0 0,-1 0.064,0 c 0.392,-0.232 0.908,-0.592 0.908,-1.036 0,-0.228 -0.064,-0.448 -0.164,-0.652 -0.012,-0.064 0.04,-0.108 0.092,-0.108 0.028,0 0.06,0.012 0.08,0.044 0.1,0.224 0.16,0.468 0.16,0.716 0,0.816 -1.076,1.22 -1.076,2.036 z" />
  <rect
     style="fill:currentColor"
     id="rect3824"
     ry="0.039999999"
     height="3.3122001"
     width="0.13"
     y="30.465158"
     x="43.193481" />
  <path
     style="fill:currentColor"
     id="path3826"
     d="m 42.607483,10.543058 c 0,0.04 -0.032,0.076 -0.072,0.076 -0.04,0 -0.076,-0.036 -0.076,-0.076 l 0,-0.5800002 -0.332,0.1240002 0,0.632 c 0,0.04 -0.036,0.076 -0.076,0.076 -0.04,0 -0.072,-0.036 -0.072,-0.076 l 0,-0.58 -0.128,0.048 c -0.008,0.004 -0.02,0.004 -0.028,0.004 -0.044,0 -0.08,-0.036 -0.08,-0.08 l 0,-0.2400002 c 0,-0.032 0.02,-0.064 0.052,-0.076 l 0.184,-0.064 0,-0.64 -0.128,0.044 c -0.008,0.004 -0.02,0.004 -0.028,0.004 -0.044,0 -0.08,-0.036 -0.08,-0.08 l 0,-0.24 c 0,-0.032 0.02,-0.06 0.052,-0.072 l 0.184,-0.068 0,-0.632 c 0,-0.04 0.032,-0.076 0.072,-0.076 0.04,0 0.076,0.036 0.076,0.076 l 0,0.58 0.332,-0.124 0,-0.632 c 0,-0.04 0.036,-0.076 0.076,-0.076 0.04,0 0.072,0.036 0.072,0.076 l 0,0.58 0.128,-0.048 c 0.008,-0.004 0.02,-0.004 0.028,-0.004 0.044,0 0.08,0.036 0.08,0.08 l 0,0.24 c 0,0.032 -0.02,0.064 -0.052,0.076 l -0.184,0.064 0,0.64 0.128,-0.044 c 0.008,-0.004 0.02,-0.004 0.028,-0.004 0.044,0 0.08,0.036 0.08,0.08 l 0,0.24 c 0,0.032 -0.02,0.06 -0.052,0.072 l -0.184,0.068 0,0.6320002 z m -0.48,-1.5080002 0,0.64 0.332,-0.12 0,-0.64 z" />
  <path
     style="fill:currentColor"
     id="path3828"
     d="m 44.509583,6.0850578 c 0,0.792 0.836,1.34 0.836,2.132 0,0.284 -0.064,0.564 -0.168,0.828 -0.02,0.032 -0.048,0.048 -0.076,0.048 -0.052,0 -0.104,-0.044 -0.092,-0.108 0.104,-0.244 0.168,-0.504 0.168,-0.768 0,-0.416 -0.38,-0.832 -0.668,-1.132 l -0.064,0 0,-1 0.064,0 z" />
  <rect
     style="fill:currentColor"
     id="rect3830"
     ry="0.039999999"
     height="3.0622001"
     width="0.13"
     y="6.0450578"
     x="44.379581" />
  <text
     y="38.68586"
     x="41.871181"
     style="font-size:2.46959996px;font-family:'Century Schoolbook L';text-anchor:start;fill:currentColor"
     id="text3832"
     font-size="2.4696">
    <tspan
       id="tspan3834">ter,</tspan>
  </text>
  <path
     style="fill:currentColor"
     id="path3836"
     d="m 44.073483,29.725358 c 0.224,0 0.436,0.116 0.436,0.364 0,0.288 -0.224,0.484 -0.412,0.596 -0.144,0.084 -0.304,0.144 -0.468,0.144 -0.224,0 -0.436,-0.116 -0.436,-0.364 0,-0.288 0.224,-0.484 0.412,-0.596 0.144,-0.084 0.304,-0.144 0.468,-0.144 z" />
  <path
     style="fill:currentColor"
     id="path3838"
     d="m 44.073483,8.7430578 c 0.224,0 0.436,0.116 0.436,0.364 0,0.288 -0.224,0.484 -0.412,0.596 -0.144,0.084 -0.304,0.144 -0.468,0.144 -0.224,0 -0.436,-0.116 -0.436,-0.364 0,-0.288 0.224,-0.484 0.412,-0.596 0.144,-0.084 0.304,-0.144 0.468,-0.144 z" />
  <text
     y="2.7829578"
     x="42.161484"
     style="font-size:2.46959996px;font-family:'Century Schoolbook L';text-anchor:start;fill:currentColor"
     id="text3840"
     font-size="2.4696">
    <tspan
       id="tspan3842">ihr</tspan>
  </text>
  <rect
     style="fill:currentColor"
     id="rect3844"
     ry="0.039999999"
     height="3.3122001"
     width="0.13"
     y="29.465158"
     x="55.161385" />
  <path
     style="fill:currentColor"
     id="path3846"
     d="m 55.291383,32.737358 -0.064,0 0,-1 0.064,0 c 0.392,-0.232 0.908,-0.592 0.908,-1.036 0,-0.228 -0.064,-0.448 -0.164,-0.652 -0.012,-0.064 0.04,-0.108 0.092,-0.108 0.028,0 0.06,0.012 0.08,0.044 0.1,0.224 0.16,0.468 0.16,0.716 0,0.816 -1.076,1.22 -1.076,2.036 z" />
  <path
     style="fill:currentColor"
     id="path3848"
     d="m 38.753283,10.043058 c 0,0.04 -0.032,0.076 -0.072,0.076 -0.04,0 -0.076,-0.036 -0.076,-0.076 l 0,-0.5800002 -0.332,0.124 0,0.6320002 c 0,0.04 -0.036,0.076 -0.076,0.076 -0.04,0 -0.072,-0.036 -0.072,-0.076 l 0,-0.5800002 -0.128,0.048 c -0.008,0.004 -0.02,0.004 -0.028,0.004 -0.044,0 -0.08,-0.036 -0.08,-0.08 l 0,-0.24 c 0,-0.032 0.02,-0.064 0.052,-0.076 l 0.184,-0.064 0,-0.64 -0.128,0.044 c -0.008,0.004 -0.02,0.004 -0.028,0.004 -0.044,0 -0.08,-0.036 -0.08,-0.08 l 0,-0.24 c 0,-0.032 0.02,-0.06 0.052,-0.072 l 0.184,-0.068 0,-0.632 c 0,-0.04 0.032,-0.076 0.072,-0.076 0.04,0 0.076,0.036 0.076,0.076 l 0,0.58 0.332,-0.124 0,-0.632 c 0,-0.04 0.036,-0.076 0.076,-0.076 0.04,0 0.072,0.036 0.072,0.076 l 0,0.58 0.128,-0.048 c 0.008,-0.004 0.02,-0.004 0.028,-0.004 0.044,0 0.08,0.036 0.08,0.08 l 0,0.24 c 0,0.032 -0.02,0.064 -0.052,0.076 l -0.184,0.064 0,0.64 0.128,-0.044 c 0.008,-0.004 0.02,-0.004 0.028,-0.004 0.044,0 0.08,0.036 0.08,0.08 l 0,0.24 c 0,0.032 -0.02,0.06 -0.052,0.072 l -0.184,0.068 0,0.6320002 z m -0.48,-1.5080002 0,0.64 0.332,-0.12 0,-0.64 z" />
</svg>
