<svg width="2054" height="637">
<path style="stroke:#000000; fill:none;" d="M1893 31C1894.84 10.7014 1929.3 9.04333 1945 9M384 74C375.753 68.459 377.095 60.8956 377.406 52C378.036 33.9883 397.521 13.7189 416 11M336 91C330.791 81.4385 332.977 75.0959 335 65C339.115 44.4622 356.841 17.4843 380 14M1398 21C1404.49 19.4006 1410.68 20.5334 1417 19.4421C1424.79 18.0964 1430.8 14.1039 1439 17.1335C1448.16 20.5182 1453.25 36.0134 1446 43M1899 63C1896.88 50.479 1902.34 32.0818 1915.01 25.5579C1921.93 22.0001 1929.68 22.5836 1937 20.7145C1949.16 17.61 1965.06 15.0598 1977 19M914 18C918.319 27.2739 927.156 35.4941 933.041 44C945.667 62.2501 956.458 81.7029 963.012 103C964.55 107.998 962.801 112.094 963.089 117C963.533 124.573 967.162 132.216 967.53 140C968.02 150.343 966.386 164.128 970.738 173.927C973.779 180.771 981.583 173.2 986 172C986.488 160.668 992.877 150.98 992.82 139C992.759 126.036 987.827 113.471 985.123 101C983.736 94.5994 983.547 86.8029 980.062 81.0432C976.8 75.6525 970.147 74.6951 966.888 68.9954C957.843 53.1783 946.553 31.12 932 20M895 20C901.445 25.0784 904.839 31.558 909.665 38C921.308 53.5406 932.206 70.0074 941.6 87C947.381 97.4564 951.915 109.98 962 117M403 53C397.781 39.2079 411.185 35.7557 421 31.9105C432.095 27.5639 439.389 21.441 452 23M876 24C885.483 34.5309 896.781 48.0071 902.509 61.0895C905.011 66.8027 902.768 72.6821 904.732 78C913.619 102.058 926.214 122.678 928.054 149C928.987 162.356 932.067 177.791 924 190C917.92 185.476 918.436 182.069 914.987 176.104C912.312 171.479 906.66 168.585 903.529 164C901.092 160.43 900.805 155.628 898.157 152.302C894.475 147.679 886.617 146.354 882.184 141.829C874.505 133.989 872.429 125.465 860 127C862.306 136.686 863.216 153.485 859.852 162.985C858.451 166.94 854.574 169.033 853.225 173.015C851.115 179.238 852.462 187.12 849.637 192.892C847.316 197.636 834.058 203.104 829.055 201.182C822.519 198.672 818.347 181.997 814.988 176.09C812.493 171.703 807.408 168.982 804.302 165C800.821 160.535 801.523 154.522 798.397 150.184C792.728 142.318 784.359 136.051 780 127M1921 50C1922.67 45.5816 1923.04 39.9316 1926.42 36.3896C1932.23 30.2879 1939.3 29.6106 1947 28.4097C1970.21 24.7914 1987.81 32.2186 2005 48M1466 27C1476.89 31.4697 1481.66 39.2559 1490.13 46.6975C1496.93 52.6683 1504.85 53.4626 1506.61 64C1507.66 70.2642 1503.13 75.1401 1502 81M959 30C966.47 37.0857 970.889 51.1793 979.044 56.493C987.922 62.2784 987.965 47.6568 986 43M862 31C869.656 38.5063 877.232 46.1643 883.485 55C889.379 63.3279 892.651 71.6463 903 75M1318 65C1324.17 63.2549 1327.22 57.2892 1332 53.3287C1337.16 49.0553 1343.54 47.7765 1348.99 44.1821C1360.68 36.4618 1366.19 26.5443 1381 35M846 38C853.178 42.8018 855.949 51.0104 862.464 56.4398C866.289 59.6281 871.223 60.4648 874.985 64.0548C894.67 82.8428 909.71 110.475 914.329 137C916.191 147.697 921.011 163.253 914 173M1941 40C1956.54 33.4137 1975.07 39.8677 1986.56 51.0949C1990.43 54.8771 1992.56 62.0558 1997.26 64.6674C2005.88 69.4637 2015.76 61.8436 2024 71M367 109C351.389 101.906 359.171 91.9794 360.377 79C361.282 69.2579 354.671 54.4299 365.224 47.0856C368.259 44.973 372.516 44.1337 376 43M459 83C459 65.7587 462.014 46.1792 483 43.9297C487.059 43.4946 491.02 45.4122 495 46M1883 43L1884 43M1961 51C1970.35 50.0653 1985.26 65.1655 1971.96 70.3966C1964.36 73.3845 1955.4 69.7552 1948 68.5139C1934.41 66.2339 1920.71 67.5587 1911.34 78.804C1906.5 84.6232 1901.84 95.9626 1908 102M832 51C835.417 63.7044 846.484 74.0029 850.455 87C854.375 99.8278 852.362 115.573 860 127M1946 54L1945 55M441 89C430.217 82.9499 438.56 64.3769 446.104 58.5131C450.791 54.8705 457.379 55.0037 463 55M320 57C311.945 67.0909 305.649 87.3342 316 97M861 58C859.781 65.7969 864.135 71.033 866.612 78C869.031 84.8047 868.772 93.5865 873.139 99.6868C875.718 103.29 881.592 104.617 884.829 108.04C894.518 118.283 900.381 135.917 898 150M981 59L979 79M815 60C816.963 69.6524 827.061 80.1241 831.855 89C844.901 113.156 850.117 145.2 836.671 170C833.309 176.199 830.572 183.67 824 187M1408 60L1406 63M1853 60.6296C1856.79 59.8176 1870.68 61.3783 1873.3 64.3179C1880.58 72.5077 1872.37 85.126 1863 86.507C1855.01 87.6851 1857.59 79.5422 1854.97 75.2639C1852.55 71.2974 1838.62 63.7141 1853 60.6296M427 62C417.705 70.3213 422.026 76.516 419.417 87C417.056 96.4854 403.417 113.537 423 115M1003 62C1006.03 82.4717 1024.81 97.9222 1025 120M1860 63C1859.96 67.3183 1859.97 70.6819 1856 73M814 174C821.616 167.762 821.089 162.736 823.684 154C829.431 134.649 826.347 117.762 819.471 99C816.328 90.4261 803.407 71.7234 815 66M1974 71C1983.21 81.4649 1988.93 84.5373 2003 83.1697C2008.07 82.6766 2011.49 82.9781 2014 78M481 107C480.452 103.272 478.321 98.8026 479.757 95.0934C481.161 91.4654 485.274 89.7465 487.701 86.9066C491.024 83.0164 492.023 77.6953 496.104 74.3179C502.231 69.2473 511.546 73.6278 514.657 80.0154C516.793 84.4017 520.271 95.2582 518.544 99.9854C517.155 103.788 512.995 105.656 510.934 109.039C505.771 117.519 502.774 129.11 504.143 139C505.178 146.472 511.33 155.986 515.719 162C518.165 165.351 522.577 168.5 522.663 173C522.726 176.286 520.531 179.073 519.378 182C517.913 185.719 518 190.472 514.606 193.146C497.675 206.483 476.109 178.038 478 163M1526 74C1519.7 93.8629 1553.11 137.188 1515 138M1878 77L1882 79M1469 80L1468 82M1288 125C1296.55 113.443 1298.14 95.4625 1309.02 86.2284C1312.8 83.0158 1323.78 79.175 1327 84M1812 83L1829 83M1919 87L1939 83M2013 83C2022.98 87.1915 2033.75 94.4028 2035 106M1871 84L1874 88M1952 86C1956.68 87.1134 1961.73 86.4588 1965.98 88.9429C1970.49 91.5784 1972.84 96.927 1978 98.4861C1988.45 101.644 1999.39 95.1022 2010 99.7292C2020.37 104.255 2022.68 115.404 2025.68 125C2029.6 137.558 2036.53 148.309 2034 162M795 88C797.884 107.128 817.849 132.579 799 150M1428 88L1427 89M1892 88L1880 114M1801 108C1804.9 102.414 1808.01 95.9674 1815 94M1931 111C1925.54 106.426 1923.47 97.4299 1932 94.8079C1936.73 93.3568 1943.09 94.7896 1948 95.0401C1958.85 95.5942 1961.82 106.97 1971 110.397C1980.76 114.041 1991.64 108.33 2001 113.649C2013.44 120.719 2015.99 134.104 2018.46 147C2023.59 173.727 2024.9 197.569 2007.31 220.715C1998.16 232.757 1987.22 238.301 1975.3 246.589C1972.08 248.831 1971.36 253.135 1967.96 255.373C1959.61 260.864 1943.05 265.626 1933 266.816C1922.58 268.05 1912.23 263.916 1902 263.093C1890.69 262.184 1880.94 263.289 1870 259.215C1847.14 250.699 1826.9 232.736 1822.81 208C1820.62 194.787 1821.29 184.115 1833 176M1364 96L1353 100M301 98C300.975 106.958 299.227 114.198 310 117M1003 98C1009.74 114.433 1019.32 129.857 1019.98 148C1020.62 165.458 1011.75 177.965 1014 195M520 101C530.067 112.329 518.764 120.518 519.265 133C519.753 145.183 530.802 157.104 522 169M873 101L868 126M1337 101L1337 105M1334 103L1336 103M1803 120C1810.39 111.53 1818.44 100.297 1831 107M498 109C497.504 115.892 493.578 121.864 493.09 129C491.524 151.862 503.487 166.848 519 182M462 111C462.001 116.137 461.122 122.016 466 125M1941 141C1934.21 138.855 1936.02 130.622 1940.28 126.38C1945.63 121.047 1954.05 120.346 1961 122M1489 123L1487 125M1536 124L1538 124M1804 135C1811.72 128.519 1818.37 121.661 1828 129M1953 227C1942.58 206.695 1981.48 199.994 1988.99 186C1993.14 178.261 1994.24 163.595 1988.81 156.275C1986.77 153.524 1983.06 152.805 1981.32 149.786C1979.19 146.097 1978.48 140.132 1976.99 136C1975.21 131.049 1977.21 123.348 1983.98 125.877C1997.08 130.765 2001.16 147.594 2003.75 159C2010.48 188.729 1997.7 211.781 1970 225.156C1964.9 227.617 1959.17 225.512 1954.26 227.6C1948.75 229.938 1945.87 237.054 1939 236.988C1932.09 236.922 1925.3 231.156 1919 228.838C1904.41 223.47 1890.21 220.469 1875 218C1869.83 217.16 1858.33 213.137 1853.49 216.198C1847.61 219.914 1860.04 230.105 1863 231.505C1875.94 237.632 1890.28 235.431 1900 225M1912 129L1914 129M301 155C300.487 146.189 301.119 139.144 310 135M1874 158C1869.03 162.094 1862.38 168.452 1855.28 163.972C1850.82 161.161 1853.01 156.11 1852.54 152C1851.83 145.868 1843.43 138.367 1855 135.711C1860.06 134.552 1861.02 139.883 1865.13 140.972C1868.45 141.853 1873.57 139.559 1875.73 143.318C1878.6 148.302 1875.25 156.171 1878 162M1815 138C1808.35 142.932 1801.28 150.49 1800 159M1006 140C1008.72 151.432 998.561 170.042 1011 177M1864 142C1862.9 147.424 1859.86 149.015 1855 151M465 144L463 158M863 145C877.023 152.69 884.252 164.505 893.549 177C910.956 200.392 932.293 230.85 929 262M940 146C942.224 164.234 947.227 180.376 942.589 199C941.254 204.36 936.294 207.226 934.642 212.09C932.952 217.064 936.919 221.678 940 225C951.913 216.135 956.833 196.5 955.91 182C955.611 177.312 956.156 169.695 952 167M1476 147L1471 151M1303 210C1302.76 198.12 1297.19 184.232 1293.2 173C1289.47 162.516 1286.43 153.005 1299 148M409 256C389.762 252.728 385.071 237.926 375.046 224.055C371.307 218.883 364.465 219.428 360.513 214.775C352.036 204.794 356.06 190.441 357.714 179C359.849 164.237 352.221 152.742 372 149M420 202C413.843 193 415.128 186.13 414.035 176C412.75 164.097 408.494 157.007 422 150M780 151C781.507 160.99 791.959 172.216 797.143 181C807.891 199.212 817.624 218.788 824 239M1804 186C1804 171.795 1808.52 148.525 1828 153M1537 153C1535.58 163.706 1526.67 170.366 1523.13 180C1520.89 186.13 1522.69 194.358 1518.41 199.775C1513.39 206.125 1502.75 202.326 1502 212M1980 153C1979.32 161.64 1981.16 174.622 1975.61 181.71C1970.36 188.425 1962.71 187.041 1956.13 191.013C1952.16 193.415 1949.71 200.843 1948 205M315 155C303.732 170.38 312.486 183.968 316 201M1966 157L1967 157M991 158L1002 162M1917 179C1913.96 181.724 1904.78 188.427 1903.88 179.957C1903 171.668 1911.22 173.449 1915.96 170.972C1924.43 166.546 1927.7 160.17 1934.15 172.424C1937.96 179.643 1931.5 192.686 1922.23 187.882C1919.28 186.353 1918.4 181.763 1917 179M1867 165L1870 170M860 166C869.481 171.9 872.751 181.627 879.705 189.892C883.803 194.762 890.306 195.925 894.535 201.005C907.765 216.892 913.86 241.965 913 262M335 167C332.294 169.859 328.717 172.029 327.514 176.004C325.35 183.155 329.531 192.591 332.371 199C338.21 212.175 343.006 224.268 353.29 234.892C356.632 238.344 361.28 239.997 365 243M1321 169L1324 170M1816 171C1811.02 181.706 1811 191.433 1811 203M986 172C995.047 181.343 999.977 197.147 1001 210M1917 173L1917 179M1936 173L1940 173M974 178C966.741 188.951 968.214 203.666 964.825 215.826C963.932 219.03 960.656 220.489 958.938 223.174C954.525 230.066 952.671 235.541 946 241C941.492 236.125 940.512 231.493 940 225M457 184C448.461 201.85 482.62 203.15 482.494 221.995C482.444 229.499 470.175 228.87 465 229.575C447.001 232.025 438.752 215.445 432.619 201C428.662 191.681 430.632 181.134 442 181M784 185L799 213M373 221C379.235 208.291 364.354 196.397 382 188M924 191L934 210M1938 210C1938.63 200.438 1943.51 192.874 1953 191M149 192L149 193M109 194L112 194M850 194L855.483 220L862.891 234L863 258M880 194C884.628 217.781 899 237.96 899 263M1502 194L1502 205M1668 194C1671.72 197.615 1678.49 200.877 1680 194L1680 194M1877 195L1877 197M632 196C652.225 196 684.639 211.523 689.586 233C691.733 242.323 685.033 251.846 687.434 261C689.553 269.082 698.354 273.428 699 282M127 199L139 200M855 198C858.384 200.087 862.866 201.254 865.581 204.228C878.677 218.572 875.75 244.541 875 262M1892 199L1893 199M152 209C158.408 202.871 163.106 200.006 172 200M681 200C712.88 208.663 694.816 245.866 707.518 265.959C711.328 271.986 714.488 268.627 720 270.077C726.596 271.813 730.791 278.732 732 285M1680 200C1694.21 204.22 1697.03 217.841 1705.95 227.682C1709.8 231.934 1717.29 229.955 1721.68 233.728C1724.24 235.923 1723.62 239.104 1724.58 242C1728.57 253.999 1726.22 259.792 1724.72 272C1723.7 280.299 1728.15 292.778 1720.58 299.181C1717.15 302.081 1711.25 302.874 1707 304M1830 201L1831 205M1621 203C1631.42 202.914 1642.59 199.464 1651.87 206.133C1657.41 210.112 1659.9 217.452 1666.01 220.86C1675.35 226.07 1692.46 227.538 1683 243M69 213C79.2941 204.859 95.7991 199.764 109 204.143C113.572 205.659 117.523 209.154 122 211M831 203C832.824 215.405 835.974 227.907 839.264 240C840.173 243.341 843.611 249.364 847.895 247.168C854.969 243.543 851.704 229.972 856 224M1712 204C1725.48 209.28 1739.72 222.945 1745.89 236.004C1748.45 241.418 1748.63 247.457 1750.71 253C1754.78 263.833 1760.5 277.725 1745 283M1844 204L1852 216M593 410C563.431 409.654 542.147 377.133 538.711 351C537.133 339 537.054 327.052 535.829 315C534.678 303.661 531.802 291.264 535.47 280C537.501 273.761 540.771 263.289 544.564 258.054C547.14 254.499 551.331 252.88 553.586 248.981C559.746 238.333 565.625 228.641 576.039 221.282C600.457 204.03 622.107 203.575 649 215.23C660.339 220.144 668.714 222.989 674.576 235C679.529 245.146 673.031 255.821 676.08 266C679.256 276.602 690.1 283.451 690.945 295C691.277 299.531 692.354 307.83 689.972 311.852C686.654 317.455 679.447 314.414 677 310M1058 250C1067.13 242.026 1077.69 231.867 1088 225.698C1097.81 219.832 1110.29 220.46 1120.98 217.152C1126.6 215.413 1128.19 208.843 1134 207.314C1144.62 204.52 1152.82 207.686 1163 209.575C1169.85 210.845 1177.44 210.001 1184 212.198C1197.46 216.701 1214.24 234.782 1218.99 248.09C1224.31 263.019 1209.54 306.9 1190 288C1197.16 280.815 1204.73 261.399 1199.68 251C1195.16 241.672 1181.07 232.418 1173 226M161 216C166.061 205.735 180.186 207.321 189 211M1358 261C1353.33 257.677 1350.56 252.696 1345.98 249.301C1338.27 243.583 1328.65 240.388 1323.15 231.83C1317.07 222.375 1320.26 211.189 1331 208M1877 218C1887.49 206.651 1902.94 207.153 1916 214.951C1923.59 219.481 1935.07 230.055 1941 219M1945 209L1945 210M397 210C389.88 225.459 405.215 225.677 413.529 231.938C417.978 235.288 419.916 241.951 424.09 245.867C431.43 252.751 444.897 251.764 454 250M1834 210C1835.38 229.148 1860.43 248.404 1879 248.863C1889.69 249.128 1901.03 243.65 1912 243.213C1921.06 242.852 1928.33 250.085 1937 250.894C1948.73 251.989 1959.73 245.575 1972 246M1419 211L1417 213M85 216C93.8582 212.256 101.263 214.05 110 217M1125 216C1136.49 226.86 1179.31 238.958 1158 262L1134.99 241.514L1105 237M966 218C970.559 223.387 972.433 230.558 969 237L958 232M1219 218C1223.71 220.651 1226.94 225.997 1230.91 229.7C1238.24 236.521 1247.51 243.649 1251.67 253.001C1257.36 265.774 1254.85 290.864 1248.56 303C1244.85 310.168 1226.94 331.73 1221.19 314.999C1217.59 304.537 1232.16 306.233 1234.77 298.895C1241.1 281.098 1238.02 267.6 1234 250M172 220L180 219M186 233C192.421 224.277 202.214 219.037 213 219M717 221C722.063 230.204 715.972 239.173 719.679 247.91C722.575 254.736 729.603 259.141 733.91 265C743.04 277.422 745.58 293.324 741 308M1369 221L1370 221M112 233C127.734 221.561 152.605 215.582 167 233M484 222L497 222M93 225L101 226M1586 234C1592.94 233.472 1597.72 227.504 1605 226.285C1627.47 222.523 1645.02 238.083 1647.71 261C1648.54 268.029 1643.18 271.466 1643 278M561 298C560.913 293.792 559.444 289.118 560.576 285C561.911 280.147 566.503 277.437 568.566 273C570.47 268.906 570.32 264.164 572.224 260C578.998 245.178 595.646 223.914 614 226.289C631.122 228.506 643.1 231.856 655.961 243.715C659.307 246.8 667.403 253.347 663.968 258.682C660.666 263.809 650.947 257.632 647 255.969C640.579 253.264 637.646 247.661 631.957 244.434C627.15 241.707 613.407 241.54 608.259 243.585C593.475 249.459 596.298 271.476 581 276M1464 226L1465 227M34 241C46.6435 224.417 75.3655 222.105 89 239M1446 235C1436.72 242.626 1439.65 261.173 1454 257.865C1466.28 255.034 1472.15 246.687 1482.09 240.286C1489.42 235.564 1500.03 231.549 1508 228M200 235C209.043 228.82 217.142 229.452 227 233M1707 230C1709.01 245.779 1714.9 257.306 1698 266M125 238C134.815 232.299 144.715 233.349 155 237M1593 235C1598.27 253.291 1621.81 252.175 1620 272M734 238C739.854 247.184 749.264 259.926 750 271M46 245C55.5127 237.955 70.1278 238.116 79 246M211 241L219 242M888 242L888 260M946 242L954 252M137 244L144 246M152 256C168.948 242.689 187.159 242.904 205 254M236 245L227 253M1384 245C1377.22 252.178 1377.24 263.256 1388 267.031C1401.74 271.849 1416.85 266.238 1431 272M946 248L944 255M1769 248L1770.79 261L1775.49 281L1767 294M81 259C94.1107 250.445 108.45 245.773 124 251.525C128.02 253.011 131.09 256.258 135 258M637 251C628.849 255.992 618.319 249.466 611.133 256.228C597.983 268.604 608.453 291.36 584 294M1659 251C1665.15 261.763 1663.14 268.424 1663.46 280C1663.75 290.74 1666.62 299.945 1654 305M56 252L68 253M551 254L554 267M24 257C34.7896 253.588 44.3652 257.167 53 264M238 257L242 255M165 261C173.399 255.09 185.245 254.221 194 260M1032 298C1035.22 277.37 1056.26 271.412 1072 264.032C1083.59 258.599 1098.7 252.63 1110.87 261.147C1114.16 263.45 1115.72 267.414 1118.87 269.957C1129.15 278.229 1138.46 280.981 1142.42 295C1143.49 298.795 1145.26 304.081 1142.26 307.486C1139.75 310.329 1134.38 310.564 1131 312C1127.74 305.251 1131.94 297.749 1126.58 291.044C1109.43 269.598 1073.46 277.243 1055 292M926 259L929 259M89 265C98.0092 263.283 111.254 255.374 120 262M249 262L250 262M1590 348C1595.6 359.964 1592.05 362.228 1584.58 371.464C1581.71 375.019 1581.75 380.262 1577.78 383.076C1567.58 390.305 1553.83 378.699 1549.51 369.892C1541.28 353.076 1550.42 341.274 1550.74 325C1550.87 317.962 1546.45 311.733 1545.26 305C1543.82 296.792 1547.69 293.593 1549.68 286.741C1551.7 279.799 1550.23 272.122 1556.3 266.434C1567.23 256.206 1581.1 266.956 1588.71 274.505C1591.63 277.402 1595.31 278.785 1596.76 283.004C1598.04 286.738 1596.18 291.147 1596 295M1268 264C1268.07 272.428 1272.39 279.016 1273.35 287C1274.43 295.914 1273.13 304.998 1274.08 314C1275.39 326.513 1278.47 333.858 1269.95 344.981C1262.45 354.765 1240.07 367.984 1228 368C1219.72 368.011 1206.56 364.519 1209.33 353.055C1212.26 340.96 1222.74 351.143 1225 357C1237.09 354.013 1253.27 341.921 1258.27 330C1260.82 323.927 1260.5 317.296 1262 311M1622 265L1624 265M193 279C202.699 265.554 220.426 264.1 235 268.565C240.01 270.1 246.155 271.295 249 276M17 271C25.0273 264.881 34.8194 266.901 44 269M178 268L185 269M114 286C128.534 266.927 156.841 265.932 174 282M100 272L108 272M551 272L546 292M713 272C713 291.266 724.158 337.665 693 338.887C689.046 339.042 685.724 336.924 682 336M760 273C763.681 281.688 761.39 290.921 761 300M1553 274C1563.79 284.794 1575.53 297.609 1579.16 313C1583.13 329.896 1572.1 345.839 1564.59 360C1561.75 365.352 1560.12 370.386 1556 375M1638 274L1642 274M595 279L603 275M41 288C53.2283 270.7 81.9294 272.804 97 285M205 282C216.444 275.275 227.46 275.243 239 282M27 278L33 278M666 278C665.919 287.765 659.472 307.37 648 294M128 290C137.912 280.382 148.73 280 161 285M590 283L591 283M753 284C753.989 307.048 766.795 330.346 742 345.418C735.125 349.597 727.395 354.299 720 349M15 286L23 291M52 290C64.8678 286.586 73.4979 284.691 86 291M572 300C572.161 292.459 575.269 287.539 583 286M218 288L227 289M235 299C240.684 292.657 249.447 288.201 258 288M1550 289C1571.56 309.04 1570.91 337.862 1547 355M1615 290C1613.76 295.038 1610.57 305.128 1615 309M160 304C174.216 287.669 199.08 288.405 215 301M137 295L154 294M1786 293C1783.36 302.966 1782.95 308.947 1773 314M12 294L12 297M608 296C611.715 300.723 619.775 296.838 624.167 303.174C628.997 310.144 622.195 312.401 619.893 318.043C618.384 321.743 618.932 329.364 613.043 329.364C605.466 329.364 611.179 318.398 610.852 315.224C610.573 312.518 607.137 311.932 605.981 309.726C604.218 306.359 607.284 301.761 609 299M1053 399C1040.35 385.623 1043.19 371.685 1042.74 355C1042.39 341.835 1035.82 325.881 1045.5 314.185C1049.03 309.923 1054.6 308.698 1059 305.671C1062.92 302.975 1066.3 298.763 1071 297.43C1078.37 295.339 1090.08 294.67 1097 298.433C1107.28 304.02 1110.75 316.094 1102 324C1098.26 319.59 1097.24 312.029 1091.95 309.179C1075.9 300.547 1062.07 322.938 1061 336M82 308C93.9962 293.103 122.756 294.048 135 308M63 298L73 298M249 302L258 300M550 300L555.687 313L553 334M699 300L699 302M8 315C22.0587 297.392 45.2818 297.79 62 311M174 308C185.016 299.505 191.797 303.198 204 305M754 303C748.962 309.808 750.067 318.532 742.896 324.28C736.623 329.308 728.532 330.678 728 321M700 305C703.139 310.882 702.433 317.397 699 323M565 306C567.019 312.154 570.754 319.318 570.103 325.996C569.749 329.625 566.428 331.792 565.212 335.09C561.023 346.447 555.922 372.25 572.985 377.338C579.25 379.206 578.132 369.533 577.96 366C577.695 360.549 575.45 355.41 574.88 350C573.977 341.416 577.286 336.784 570 330M769 307C768.999 314.86 766.393 321.351 765.3 329C763.653 340.527 765.413 353.237 751 357M93 312C102.831 307.641 116.833 305.065 125 314M576 308L584 335M599 309L604 309M1613 309L1606 312M19 319C30.4345 312.233 39.8422 309.889 52 317M201 325C215.643 311.815 235.978 307.393 252 321M184 314L192 313M1609 313L1609 315M612 316L620 316M156 317L161 318M106 318L118 320M126 330C133.179 325.855 138.967 317.864 148 320M164 320C171.251 318.267 177.421 322.682 183 327M45 337C56.243 323.111 87.5639 315.945 100 332M30 324L40 324M213 329C223.824 324.074 232.068 322.868 243 328M1101 324C1097.24 328.331 1094.62 329.105 1089 329M659 325L660 325M8 327L31 338M142 333C151.32 327.291 161.386 327.504 171 332M59 340C69.7924 332.757 82.6733 332.073 94 338M1609 333C1612.88 336.424 1612.99 340.042 1613 345M1773 333C1781.23 335.083 1782.84 340.041 1783 348M226 335L234 337M245 343L258 335M1711 336C1710.68 346.315 1719.22 344.422 1722.4 353.001C1725.42 361.153 1719.54 366.67 1719.28 374C1719.01 381.293 1724.05 388.67 1721.21 396C1719.39 400.704 1711.99 409.433 1706.15 405.419C1701.26 402.057 1705.07 395.646 1704.9 391.015C1704.7 385.475 1700.28 381.796 1696 379M155 339L160 341M12 340L18 343M167 352C183.135 337.797 205.256 336.611 223 349M1651 340C1653.18 340.284 1654.98 340.688 1657 341.634C1671.9 348.619 1660.76 358.52 1658.31 369C1656.13 378.363 1661.74 384.675 1653 392M550 342C549.925 351.835 549.415 359.995 554 369M70 345L88 346M97 353C106.062 345.119 116.423 344 128 344M584 344L576 353M1149 447C1138.9 446.566 1125.91 445.083 1117 440.057C1109.68 435.926 1104.3 429.442 1097.42 424.823C1090.9 420.444 1083.29 419.952 1077.12 414.272C1072.85 410.341 1071.51 404.134 1069.22 399C1064.97 389.493 1057.99 381.693 1057.04 371C1055.86 357.748 1075.76 335.316 1089.78 345.742C1092.47 347.743 1096.35 355.296 1092.42 357.882C1087.51 361.115 1081.81 353.325 1076.33 358.318C1059.72 373.459 1085.25 398.983 1099 405M131 345C138.771 345.027 144.698 348.651 151 353M254 349L257 348M17 358C32.1862 351.927 55.1698 344.601 67 361M177 356C187.919 352.612 198.882 348.036 210 354M673 358L698 351M1251 409C1236.78 419.824 1227.56 421.514 1211 425.865C1202.77 428.028 1195.42 433.123 1187 434.245C1176.19 435.686 1164.23 432.085 1154 429.465C1142.42 426.501 1131.88 424.284 1124.42 414C1116.44 403.008 1111.01 380.493 1113.47 367.001C1114.75 360.002 1123.35 351.408 1130.91 351.768C1134.85 351.955 1140.37 357.668 1138.07 361.721C1133.84 369.16 1121.3 369.195 1126.94 381.985C1136.84 404.445 1167.39 421.859 1192 416M104 361C114.478 354.148 126.89 349.977 138 358M1766 353C1776.37 362.382 1772.41 366.896 1769.47 379C1767.93 385.357 1768.81 388.795 1764 394M228 359L248 360M621 364C628.2 367.768 632.78 355.165 641.941 360.179C653.95 366.751 634.202 374.602 640.099 382.981C644.138 388.719 650.076 387.448 649.897 380C649.804 376.126 647.485 373.688 645 371M26 365C35.4063 360.979 48.529 358.966 57 366M225 361L211 369M191 363L200 363M1141 363L1141 364M1742 363C1753.31 367.847 1748.55 380.081 1745.39 389C1743.49 394.368 1744.09 401.115 1741.35 405.985C1733.11 420.612 1715.11 430.192 1703 441M114 366L127 365M161 365C170.146 365.007 178.257 367.17 186 372M382 366C394.154 366 411.799 361.774 422.999 367.317C428.469 370.024 436.544 384.065 429.566 389.088C427.1 390.864 422.861 390.015 420 390M1272 366C1265.06 382.565 1254.55 387.48 1240 395.649C1233.34 399.39 1227.05 405.469 1219 405.956C1209.01 406.561 1201.24 401.655 1192 399.418C1183.52 397.363 1175.63 398.646 1168.93 391.367C1159.71 381.361 1165.58 361.579 1181 366C1178.89 370.871 1174.15 377.351 1177.33 382.852C1179.51 386.622 1184.29 385.912 1188 386.425C1197.29 387.709 1205.35 392.197 1215 390.79C1220.11 390.044 1223.54 386.636 1228 384.455C1236.47 380.319 1244.01 378.394 1252 373M133 376L151 367M624 367C623.773 378.022 625.162 380.463 637 379M1634 367C1646.48 369.02 1639.48 387.967 1633.89 393.981C1627.92 400.406 1621.41 398.991 1614 401.619C1608.06 403.727 1605.22 409.233 1599.96 411.972C1594.62 414.756 1587.36 412.419 1582 411M1888 369C1893.99 367.908 1904.17 372.905 1894.94 377.972C1888.49 381.514 1878.88 377.974 1873 375M57 382C70.8174 366.319 97.6099 364.712 112 380M221 374L245 370M694 385C697.6 382.26 695.8 377.806 698.603 374.637C702.84 369.848 719.646 369.138 719.087 378.015C718.6 385.758 710.866 384.162 707.932 389.279C706.483 391.805 708.183 395.685 709.969 397.643C713.017 400.984 719.377 398.206 720.002 393.981C720.46 390.887 717.769 388.163 716 386M1915 371C1917.1 389.932 1948.29 402.579 1955 380M1928 371C1930.8 375.482 1935.96 382.248 1940 375M1612 372C1623.96 374.473 1617 391.407 1617 400M38 373L48 374M316 402C324.509 395.166 332.934 390.257 342 384.277C345.987 381.647 348.702 377.177 353 375.028C358.298 372.379 364.232 374.066 367 379M144 382C157.695 373.595 165.848 375.341 180 381M445 375C455.651 381.334 461.901 390.073 470.414 398.467C478.859 406.793 491.89 409.928 484 425M557 376L558 377M592 376L594 377M577 378L581 383M872 378L862 392M26 379L35 386M908 379L906 387M67 386C79.4632 376.754 88.7155 381.604 102 384M230 381L235 380M560 381L569 389M858 381L857 383M1403 382C1403 387.864 1399.9 407.755 1405.31 411.248C1408.44 413.263 1411.4 409.047 1413.11 406.995C1418.56 400.473 1417 392.02 1417 384M919 383C917.389 390.72 913.653 396.635 908 402M1391 383C1391 397.787 1389.49 413.316 1400 425C1403.7 421.179 1405.82 418.402 1406 413M886 384C898.459 399.876 897.958 422.989 880 435M1841 388L1849 384M178 395C192.915 385.98 210.003 380.44 226 391M1376 385L1376.28 416L1381 427M697 386L705 390M1434 387C1437.61 394.202 1437.02 402.542 1440.56 409.871C1442.21 413.288 1446.14 414.78 1448.14 418.019C1450.92 422.51 1451.21 429.846 1452.34 435C1454.96 447.004 1452.73 459.181 1461 469C1444 486.31 1446.85 510.102 1451.96 532C1454.14 541.358 1458.89 543.414 1465.7 548.884C1468.26 550.942 1469.07 555.019 1473.02 554.578C1494.13 552.222 1484.84 535.724 1482.27 523C1481.32 518.292 1482.16 509.001 1478.4 505.462C1475.9 503.102 1472.37 505.823 1471.03 508.175C1467.92 513.649 1470.02 522.746 1467.88 529C1465.99 534.511 1468 541.236 1468 547M931 388C937.296 389.904 939.145 397.218 940.59 403C944.062 416.885 942.847 433.907 929 442M945 388L948 388M1872 388L1875 388M154 389L167 390M846 389C849.974 402.443 844.329 415.572 836 426M1972 389L1977 389M79 391L91 392M570 391L573 392M97 401C110.714 389.349 134.05 387.556 148 400M836 392L832 414M1450 392C1450.4 399.643 1451.6 409.608 1447 416M879 393C883.698 403.043 885.465 413.17 877 422M1451 394L1453 394M42 396C56.5061 396 66.6075 396.648 79 405M189 401C201.741 395.317 207.963 397.765 221 399M954 396L951 399M1359 396C1355.23 403.678 1345.8 408.455 1340.96 416C1328.87 434.858 1323.69 454.316 1316.96 475C1314.96 481.131 1308.82 485.013 1307.32 491C1306.43 494.551 1306.14 501.364 1308.6 504.316C1312.97 509.553 1322.02 508.513 1319.68 517.996C1318.44 523.028 1312.91 526.276 1310.65 531.001C1303.62 545.643 1299.96 562.892 1302 579M1850 410C1840.63 401.258 1852.3 394.929 1861 397M926 397C932.845 408.065 934.044 419.259 926 430M1860 431C1862.57 425.762 1863.48 419.727 1867.28 415.09C1879.16 400.609 1913.27 386.805 1925.44 409C1931.18 419.465 1930.95 439.643 1922.72 448.826C1912.85 459.847 1890.6 464.257 1880.51 450.946C1872.25 440.036 1876.81 423.622 1888 417.465C1895.46 413.36 1908.11 412.062 1911.52 422.004C1914.67 431.157 1909.66 444.034 1898.14 440.682C1893.52 439.337 1893.73 434.443 1888 434M1940 405L1960 398M586 399L590 399M613 399L600 409M1465 399C1462.48 418.903 1460.34 450.152 1475 466C1491.91 448.533 1473 426.561 1477 405M1675 399C1689.14 414.436 1666.51 419.817 1656 424.619C1648.61 427.998 1642.45 432.797 1634 433M1990 399L1995 402M965 400L955 410M1358 400C1361.98 405.533 1360.5 411.674 1362.27 418C1363.66 422.937 1367.46 427.251 1369.5 432C1372.96 440.081 1374.55 448.397 1380.3 455.397C1385.13 461.281 1392.29 453.323 1393.96 449C1395.09 446.077 1396.17 443.015 1397.03 440C1398.41 435.11 1398.69 429.958 1400 425M825 401L825 404M1985 401C1987.06 408.873 1993.07 412.809 2001 413M106 407C118.363 401.805 129.039 401.482 141 408M634 404C636.135 422.094 619.075 427.08 604 428M677 404C680.382 416.3 680.583 425.362 667 431M870 404C871.122 406.66 871.394 407.334 869 409M1416 404L1432.02 437.29L1444.4 455.015L1439 473M1825 404C1839.37 412.403 1828.29 437.987 1813 437.913C1799.64 437.848 1807.81 421.378 1815 418M48 407C55.8161 405.55 62.1616 406.915 69 411M1327 406C1319.21 415.602 1310.93 426.902 1307.51 439C1305.87 444.79 1307.08 451.305 1304.85 457C1301.28 466.139 1293.93 482.162 1307 489M198 409L208 407M393 407L386 408M656 407C663.548 415.926 656.43 423.05 651 431M813 408C824.851 422.012 822.037 444.836 809 457M977 408C977.521 418.169 981.687 427.738 973 436M1707 408C1693.01 422.297 1685.45 438.452 1666 446M1986 425C1981.11 439.36 1951.34 442.551 1952.02 424C1952.36 414.628 1967.72 403.309 1975.38 412.613C1981.63 420.199 1968.67 422.996 1964 423M163 410L165 410M171 410L174 410M177 411L195 421M920 411L921 416M116 413L130 415M620 413C612.191 418.08 603.981 417 595 417M857 413C868.336 428.465 870.457 455.694 853 468M140 422C144.706 417.645 150.482 414.208 157 414M69 421C80.5299 418.802 91.8592 413.701 104 418.029C108.342 419.576 111.833 423.018 116 425M806 417C808.912 428.733 812.239 437.413 802 447M1422 417C1413.52 426.451 1410.05 440.023 1407 452C1397.45 489.491 1403.09 520.894 1423.2 554C1431.44 567.571 1441.26 580.259 1451.93 592C1454.54 594.878 1460 603.412 1464.68 599.549C1468.14 596.694 1466.91 589.881 1466.41 586C1465.45 578.716 1460.74 576.961 1456.34 571.947C1451.39 566.307 1447.84 559.623 1441.98 554.745C1433.07 547.339 1428.75 537.499 1424.42 527C1413.63 500.786 1410.28 461.031 1431 438M968 418L967 424M698 419C700.341 421.891 699.6 423.762 698 427M646 420C643.051 425.506 636.299 430.534 630 431M906 420C918.304 434.055 922.107 462.777 903 474M1362 420C1346.6 430.593 1333.31 457.889 1328.75 476C1326.05 486.703 1326.39 501.68 1319 510M152 425L168 421.579L183 425M287 460C290.274 450.851 294.753 432.805 302.209 426.572C307.17 422.425 317.319 419.709 320 427M1942 423L1942 429M502 425C502.428 434.966 505.756 446.669 509.028 456C511.41 462.792 515.271 467.363 514.98 475C514.589 485.276 501.297 490.68 493 486M851 425C857.341 434.488 854.886 446.061 851 456M991 425C990.409 433.916 984.351 441.257 979 448M87 426L108 431M1999 426L2010 430M687 427L679 436M1485 442C1489.22 438.743 1492.46 430.072 1498.01 429.275C1508.44 427.78 1503.75 440.108 1505.25 444.715C1506.42 448.322 1509.54 451.224 1510.81 455C1514.59 466.244 1516.19 479.618 1525 488M450 429L447 430M796 429C798.995 431.02 798.256 432.836 797 436M954 430C966.058 446.773 966.893 465.7 953 482M163 432L169 432M902 432C906.145 443.281 907.445 451.144 899 461M123 436L145 436M843 436L844 442M352 438L346 440M947 440C953.974 448.043 955.553 462.32 947 470M328 442L328 444M784 442C789.149 447.612 793.003 454.341 794 462M1935 452C1939.07 448.148 1944.06 444.217 1950 444.163C1957.18 444.097 1965.24 452.815 1962.92 459.985C1960.27 468.207 1948.48 469.333 1947 460M894 445L894 450M1825 448L1831 445M999 446C1000.91 455.288 1004.89 468.304 994 474M1373 446C1366.38 454.005 1363.85 472.925 1367.9 482.83C1369.4 486.516 1373.23 488.755 1375.42 492.001C1385.53 507.005 1396.61 521.92 1397 541C1406.76 543.804 1404.9 553.369 1408.59 560.586C1410.36 564.044 1414.62 565.152 1416.3 569.005C1419.02 575.24 1416.44 581.559 1417.44 588C1419.26 599.694 1423.35 610.567 1426 622M1511 551C1505.72 546.252 1503.57 538.412 1500.8 532C1492.62 513.011 1488.55 491.587 1491.92 471C1493.35 462.261 1494.89 450.953 1503 446M1979 461C1982.97 442.809 2013.09 442.254 2007.72 463.999C2004.89 475.451 1987.74 472.883 1996 461M832 448C838.626 454.164 838.991 461.926 842 470M1440 449C1428.96 458.283 1426.3 478.94 1426 493M940 451L940 455M880 452C892.241 468.304 891.855 490.821 878 506M1290 452C1290.02 458.297 1291.18 461.942 1297 465M1785 459C1789.85 449.736 1811.75 450.666 1812.38 463C1812.75 470.499 1806.19 481.458 1799.83 485.055C1795.06 487.754 1788.27 488.337 1786.43 481.96C1784.13 473.941 1791.7 462.328 1799 471M1853 454C1872.54 449.076 1863.5 476.973 1848.04 470.041C1845.61 468.95 1843.75 467.069 1842.17 464.957C1840.28 462.418 1839.41 460.083 1839 457M2019 453L2021 468M780 454C782.26 465.857 783.597 470.076 779 482M1446 456L1453 456M825 457C832.484 469.139 829.84 476.624 825 489M1379 458C1374.55 476.672 1400.72 489.324 1388 507M1390 458C1391.82 465.644 1392.19 475.168 1388 482M991 459L990 463M925 460C945.095 476.673 939.107 504.199 922 520M1350 460C1347.81 467.071 1344.11 473.732 1342.46 481C1338.87 496.835 1340.42 515.168 1341.9 531C1342.42 536.651 1341.2 542.504 1342.95 548C1344.99 554.391 1353.44 584.209 1365.44 573.258C1372.93 566.416 1369.09 548.937 1372.59 540.17C1374.43 535.583 1379.96 530.923 1377.81 525.286C1372.83 512.271 1356.92 500.398 1368 485M1010 464C1009.97 472.283 1006.05 476.74 1001 483M876 465C878.496 474.349 879.681 483.394 874 492M794 466L794 468M1475 467C1471.64 471.379 1473.24 475.447 1470.97 480C1469.05 483.862 1465.06 486.22 1462.99 490C1457.44 500.117 1455.11 523.437 1467 529M977 468C994.94 487.552 985.233 502.815 976 523M1924 483C1919.42 491.735 1909.17 485.616 1910.17 477.004C1911.31 467.056 1928.14 465.029 1933.97 471.72C1941.22 480.045 1934.32 496.774 1925 500.181C1918.74 502.466 1912.14 500.26 1906 499M337 469L337 470M817 469L817 478M1461 469L1470 470M771 470L772 470M922 472C928.272 484.273 927.964 495.789 918 506M1879 500C1856.65 496.355 1883.16 453.969 1894.78 479.005C1898.72 487.493 1890.34 498.257 1883 489M470 474L470 475M864 475L868 480M1828 500C1812.92 499.174 1810.43 477.863 1826 475.383C1839.67 473.206 1840.88 492.388 1826 488M791 479L783 494M968 479C981.292 483.777 972.941 502.675 971 512M1280 480C1272.79 490.926 1279.99 510.713 1286.22 520.996C1288.53 524.794 1293.42 527.368 1293.96 532.015C1294.72 538.525 1289.99 541.483 1285.06 536.876C1279.83 531.996 1276.6 522.585 1274 516M1472 481C1477.37 487.702 1477 494.799 1477 503M1963 499C1969.91 493.661 1983.45 494.841 1980.67 506.961C1977.81 519.387 1949.37 517.745 1948.26 504.999C1945.58 473.958 1991.41 474.742 2000.74 499.039C2004.97 510.078 1998.37 519.789 1990 526.08C1975.39 537.065 1959.54 536.912 1944 528M914 482C914 487.346 915.058 493.026 911 497M1519 483C1511.87 492.021 1517.93 509.242 1518.93 520C1519.36 524.58 1518.01 529.356 1518 534M298 546C297.908 534.89 294.476 520.64 291.316 510C288.365 500.059 283.398 491.04 295 485M801 485C819.122 491.165 816.712 524.276 805 535M840 485L830 500M853 485C867.97 496.116 865.026 522.442 854 535M1017 486L1018 486M2012 486L2021 491M768 488L769 509M1855 490L1853 493M1855 493L1866 505M797 494C803.218 503.196 804.032 514.99 799 525M965 494L965 495M847 495C857.672 505.144 853.113 518.891 845 529M1778 495L1781.66 523L1785 543M456 496L457 499M1010 496L1011 505M1288 497C1288.52 504.228 1292.95 510.154 1300 512L1295 529M1836 497L1837 497M900 500C916.462 511.975 911.387 537.595 900 551M951 500C952.429 503.667 955.707 506.326 957.306 510C959.23 514.422 957.496 524.821 963 526M1807 500C1802.56 509.495 1797.93 505.144 1790 506M1794 501L1794 505M1307 504L1300 512M517 505C516.156 512.634 510.561 518.323 507.274 525C504.213 531.218 505.631 538.155 502.682 543.982C497.222 554.77 481.556 551.689 472 552M791 506L792 515M314 508L313 512M893 508C900.432 517.678 901.849 528.472 895 539M1429 508C1436.5 520.652 1443.84 540.243 1445 555M2024 508L2027 508M842 510L840 518M1862 547C1846.18 560.389 1818.19 542.207 1823.61 522C1828.18 504.963 1862.48 505.448 1862.9 525C1863.18 538.458 1840.33 546.684 1836.77 531C1834.82 522.426 1845.17 523.42 1850 526M1366 511L1363 517M946 513C951.105 522.209 948.332 533.525 943 542M999 513C1009.45 529.528 1009.02 549.043 996 564M1915 560C1896.05 582.706 1866.78 550.301 1875 528C1884.42 502.461 1925.64 510.813 1919.66 540C1915.45 560.521 1880.38 553.208 1888.15 532.044C1891.28 523.526 1902.88 526.445 1906 533M1927 513L1930 525M1871 514L1873 514M1389 516L1380 524M887 517L889 525M779 518C788.564 530.914 792.131 546.097 784 561M1808 536C1815.91 540.899 1813.46 555.262 1803.1 551.381C1798.41 549.623 1797.68 543.231 1796.92 539C1795.27 529.869 1793.6 520.402 1806 520M1319 521C1325.11 528.049 1322.49 533.751 1324.3 542C1325.36 546.806 1328.45 551.14 1329.71 556C1331.14 561.492 1330.66 567.498 1332.3 572.895C1334.66 580.615 1347.82 585.051 1351.97 592.209C1355.64 598.536 1352.67 609.664 1355 617M2001 547C2000.61 538.851 2001.42 531.537 2007.39 525.329C2012.15 520.387 2020.59 519.451 2023.4 527.005C2027.75 538.75 2010.45 548.98 2012 535M825 522C844.443 536.145 836.221 558.571 825 575M992 523C997.46 531.238 995.878 539.895 994 549M959 527C958.904 538.584 955.09 545.049 947 553M774 528L778 543M937 528L937 530M1366 528L1371 537M984 532L984 539M873 533C877.983 534.524 879.542 538.55 881.691 543C889.349 558.858 880.369 576.529 869 588M822 534C828.696 544.143 825.181 554.841 821 565M449 537L451 537M920 537C926.114 537.99 928.445 543.701 930.56 549C935.492 561.352 932.942 584.428 920 591M869 540C876.381 551.734 872.449 563.717 866 575M1290 541L1288 561M1397 541C1383.93 560.329 1393.46 580.654 1396 601M1952 551C1946.84 567.608 1924.9 554.186 1936 541M789 543L791 543M1998 543L2000 543M968 544C988.478 550.057 985.462 592.537 966 598M1324 544C1313.59 552.963 1309.79 584.592 1318 596M346 598C340.492 593.816 337.631 587.79 332.699 583.095C326.701 577.384 318.815 573.993 315.305 566C310.445 554.935 315.653 545.137 328 546M861 546L861 564M1488 546C1497.82 556.386 1501.21 566.351 1496 579M814 547L814 552M917 547C920.701 558.275 925.073 567.076 917 578M1975 547L1973 551C1980.06 557.471 1987.95 563.522 1988 549M405 549L404 554M815 549L817 549M1967 551L1973 551M799 552C803.849 562.02 818.4 580.672 806 591M963 554C971.815 562.578 970.291 576.522 964 586M1471 556C1471 565.005 1470.43 571.2 1464 578M342 557L340 558M358 559L356 562M2015 559L2012 563M1495 560C1485.65 567.281 1480.61 579.074 1480 591M910 561L910 568M1833 561L1834 562M1408 562C1397.2 576.842 1407.91 606.32 1413 622M955 564L957 574M1846 570C1850.36 567.277 1854.62 563.997 1860 564.13C1882.57 564.688 1881.5 598.368 1867 608M1963 576C1957.87 576.451 1952.67 569.916 1957.45 565.603C1964.02 559.672 1976.4 567.674 1974.67 575.961C1971.41 591.511 1947.16 587.685 1945 574M1999 564C2002.79 572.575 1999.49 577.729 1990 576M795 565L799 583M847 566C856.525 577.877 859.86 601.805 847 613M1804 570C1810.83 566.214 1822.82 566.121 1825.95 575.015C1829.11 583.975 1821.04 588.256 1814 584M896 569C906.503 585.672 913.636 612.97 890 624M449 570L451 572M1366 574C1376.2 586.059 1370.23 606.627 1378 620M840 575C845.366 582.432 847.056 598.096 840 605M1332 575C1324.45 584.152 1330.66 599.437 1332 610M1359 575L1352 590M1912 576L1906 578M484 578C477.763 581.942 470.945 582.471 465 586.009C454.589 592.206 449.102 602.524 435 600.736C424.609 599.419 419.839 581.356 431 578M942 579C950.319 583.352 955.094 594.861 953 604M1420 579C1429.52 581.673 1430.72 590.337 1436.56 596.491C1439.43 599.516 1443.87 600.968 1446.96 604.014C1452.83 609.802 1459.38 611.934 1462 602M1852 580C1866.56 575.867 1861.17 591.44 1860 599M1890 579C1894.11 584.169 1897.29 590.116 1904 592M891 581C895.328 593.693 896.321 600.555 888 612M1949 598C1941.84 618.601 1908.55 601.733 1920.57 587.482C1928.67 577.873 1943.58 587.063 1932 594M418 609C404.733 608.999 384.205 609.421 372.058 603.728C361.219 598.647 364.733 586.033 375 584M832 585L833 592M1982 585C1976.56 592.139 1970.02 597.447 1961 599M360 590L363 590M937 590C946.338 595.562 941.136 608.788 937 616M1993 592L1985 598M884 593L884 599M1857 593L1861 593M1831 599C1842 598.746 1844.91 595.215 1848 608M821 598L828 606M1435 598C1433.3 605.167 1435.16 611.813 1439 618M869 602L880 621M931 602L930 604M1883 613C1890.5 612.455 1895.04 604.852 1902.96 607.279C1910.51 609.598 1907.66 619.816 1902.94 623.566C1897.81 627.643 1886.93 626.753 1881 625M1969 608L1924 629M918 609L921 616M862 612L870 620M909 619L914 620M1860 619L1863 620M867 620L867 622"></path>
</svg>
