<?xml version="1.0" encoding="UTF-8" standalone="no"?>
<!-- Created with Inkscape (http://www.inkscape.org/) -->
<svg xmlns:dc="http://purl.org/dc/elements/1.1/" xmlns:cc="http://web.resource.org/cc/" xmlns:rdf="http://www.w3.org/1999/02/22-rdf-syntax-ns#" xmlns:svg="http://www.w3.org/2000/svg" xmlns="http://www.w3.org/2000/svg" xmlns:xlink="http://www.w3.org/1999/xlink" xmlns:sodipodi="http://sodipodi.sourceforge.net/DTD/sodipodi-0.dtd" xmlns:inkscape="http://www.inkscape.org/namespaces/inkscape" version="1.0" width="1250" height="152" id="svg2" sodipodi:version="0.32" inkscape:version="0.44" sodipodi:docname="Pianos_keyboard.svg" sodipodi:docbase="/home/fizyk/anizo/wiki/SVG/inne">
  <metadata id="metadata3286">
    <rdf:RDF>
      <cc:Work rdf:about="">
        <dc:format>image/svg+xml</dc:format>
        <dc:type rdf:resource="http://purl.org/dc/dcmitype/StillImage"/>
      </cc:Work>
    </rdf:RDF>
  </metadata>
  <sodipodi:namedview inkscape:window-height="670" inkscape:window-width="958" inkscape:pageshadow="2" inkscape:pageopacity="0.0" guidetolerance="10.0" gridtolerance="10.0" objecttolerance="10.0" borderopacity="1.0" bordercolor="#666666" pagecolor="#ffffff" id="base" inkscape:zoom="0.63843877" inkscape:cx="1058.8058" inkscape:cy="-27.611627" inkscape:window-x="0" inkscape:window-y="0" inkscape:current-layer="svg2" height="152px" width="1250px"/>
  <defs id="defs4"/>
  <g id="g4220" transform="translate(1.011871,1.023742)">
    <rect width="23" height="149" rx="2.4000001" ry="4.8000002" x="0.48812881" y="0.48812881" style="fill:white;fill-opacity:1;stroke:black;stroke-width:0.97625762;stroke-opacity:1" id="rect1872"/>
    <use transform="translate(24,0)" id="use2768" x="0" y="0" width="744.09448" height="1052.3622" xlink:href="#rect1872"/>
    <use transform="translate(48,0)" id="use3185" x="0" y="0" width="744.09448" height="1052.3622" xlink:href="#rect1872"/>
    <use transform="translate(72,0)" id="use3187" x="0" y="0" width="744.09448" height="1052.3622" xlink:href="#rect1872"/>
    <use transform="translate(96,0)" id="use3189" x="0" y="0" width="744.09448" height="1052.3622" xlink:href="#rect1872"/>
    <use transform="translate(120,0)" id="use3191" x="0" y="0" width="744.09448" height="1052.3622" xlink:href="#rect1872"/>
    <use transform="translate(144,0)" id="use3193" x="0" y="0" width="744.09448" height="1052.3622" xlink:href="#rect1872"/>
    <use transform="translate(168,0)" id="use3195" x="0" y="0" width="744.09448" height="1052.3622" xlink:href="#rect1872"/>
    <use transform="translate(192,0)" id="use3197" x="0" y="0" width="744.09448" height="1052.3622" xlink:href="#rect1872"/>
    <use transform="translate(216,0)" id="use3199" x="0" y="0" width="744.09448" height="1052.3622" xlink:href="#rect1872"/>
    <use transform="translate(240,0)" id="use3201" x="0" y="0" width="744.09448" height="1052.3622" xlink:href="#rect1872"/>
    <use transform="translate(264,0)" id="use3203" x="0" y="0" width="744.09448" height="1052.3622" xlink:href="#rect1872"/>
    <use transform="translate(288,0)" id="use3205" x="0" y="0" width="744.09448" height="1052.3622" xlink:href="#rect1872"/>
    <use transform="translate(312,0)" id="use3207" x="0" y="0" width="744.09448" height="1052.3622" xlink:href="#rect1872"/>
    <use transform="translate(336,0)" id="use3209" x="0" y="0" width="744.09448" height="1052.3622" xlink:href="#rect1872"/>
    <use transform="translate(360,0)" id="use3211" x="0" y="0" width="744.09448" height="1052.3622" xlink:href="#rect1872"/>
    <use transform="translate(384,0)" id="use3213" x="0" y="0" width="744.09448" height="1052.3622" xlink:href="#rect1872"/>
    <use transform="translate(408,0)" id="use3215" x="0" y="0" width="744.09448" height="1052.3622" xlink:href="#rect1872"/>
    <use transform="translate(432,0)" id="use3217" x="0" y="0" width="744.09448" height="1052.3622" xlink:href="#rect1872"/>
    <use transform="translate(456,0)" id="use3219" x="0" y="0" width="744.09448" height="1052.3622" xlink:href="#rect1872"/>
    <use transform="translate(480,0)" id="use3221" x="0" y="0" width="744.09448" height="1052.3622" xlink:href="#rect1872"/>
    <use transform="translate(504,0)" id="use3223" x="0" y="0" width="744.09448" height="1052.3622" xlink:href="#rect1872"/>
    <use transform="translate(528,0)" id="use3225" x="0" y="0" width="744.09448" height="1052.3622" xlink:href="#rect1872"/>
    <use transform="translate(552,0)" id="use3227" x="0" y="0" width="744.09448" height="1052.3622" xlink:href="#rect1872"/>
    <use transform="translate(576,0)" id="use3229" x="0" y="0" width="744.09448" height="1052.3622" xlink:href="#rect1872"/>
    <use transform="translate(600,0)" id="use3231" x="0" y="0" width="744.09448" height="1052.3622" xlink:href="#rect1872"/>
    <use transform="translate(624,0)" id="use3233" x="0" y="0" width="744.09448" height="1052.3622" xlink:href="#rect1872"/>
    <use transform="translate(648,0)" id="use3235" x="0" y="0" width="744.09448" height="1052.3622" xlink:href="#rect1872"/>
    <use transform="translate(672,0)" id="use3237" x="0" y="0" width="744.09448" height="1052.3622" xlink:href="#rect1872"/>
    <use transform="translate(696,0)" id="use3239" x="0" y="0" width="744.09448" height="1052.3622" xlink:href="#rect1872"/>
    <use transform="translate(720,0)" id="use3241" x="0" y="0" width="744.09448" height="1052.3622" xlink:href="#rect1872"/>
    <use transform="translate(744,0)" id="use3243" x="0" y="0" width="744.09448" height="1052.3622" xlink:href="#rect1872"/>
    <use transform="translate(768,0)" id="use3245" x="0" y="0" width="744.09448" height="1052.3622" xlink:href="#rect1872"/>
    <use transform="translate(792,0)" id="use3247" x="0" y="0" width="744.09448" height="1052.3622" xlink:href="#rect1872"/>
    <use transform="translate(816,0)" id="use3249" x="0" y="0" width="744.09448" height="1052.3622" xlink:href="#rect1872"/>
    <use transform="translate(840,0)" id="use3251" x="0" y="0" width="744.09448" height="1052.3622" xlink:href="#rect1872"/>
    <use transform="translate(864,0)" id="use3253" x="0" y="0" width="744.09448" height="1052.3622" xlink:href="#rect1872"/>
    <use transform="translate(888,0)" id="use3255" x="0" y="0" width="744.09448" height="1052.3622" xlink:href="#rect1872"/>
    <use transform="translate(912,0)" id="use3257" x="0" y="0" width="744.09448" height="1052.3622" xlink:href="#rect1872"/>
    <use transform="translate(936,0)" id="use3259" x="0" y="0" width="744.09448" height="1052.3622" xlink:href="#rect1872"/>
    <use transform="translate(960,0)" id="use3261" x="0" y="0" width="744.09448" height="1052.3622" xlink:href="#rect1872"/>
    <use transform="translate(984,0)" id="use3263" x="0" y="0" width="744.09448" height="1052.3622" xlink:href="#rect1872"/>
    <use transform="translate(1008,0)" id="use3265" x="0" y="0" width="744.09448" height="1052.3622" xlink:href="#rect1872"/>
    <use transform="translate(1032,0)" id="use3267" x="0" y="0" width="744.09448" height="1052.3622" xlink:href="#rect1872"/>
    <use transform="translate(1056,0)" id="use3269" x="0" y="0" width="744.09448" height="1052.3622" xlink:href="#rect1872"/>
    <use transform="translate(1080,0)" id="use3271" x="0" y="0" width="744.09448" height="1052.3622" xlink:href="#rect1872"/>
    <use transform="translate(1104,0)" id="use3273" x="0" y="0" width="744.09448" height="1052.3622" xlink:href="#rect1872"/>
    <use transform="translate(1128,0)" id="use3275" x="0" y="0" width="744.09448" height="1052.3622" xlink:href="#rect1872"/>
    <use transform="translate(1152,0)" id="use3277" x="0" y="0" width="744.09448" height="1052.3622" xlink:href="#rect1872"/>
    <use transform="translate(1176,0)" id="use3279" x="0" y="0" width="744.09448" height="1052.3622" xlink:href="#rect1872"/>
    <use transform="translate(1200,0)" id="use3281" x="0" y="0" width="744.09448" height="1052.3622" xlink:href="#rect1872"/>
    <use transform="translate(1224,0)" id="use3283" x="0" y="0" width="744.09448" height="1052.3622" xlink:href="#rect1872"/>
    <rect ry="1" rx="1" y="0.70755446" x="19.731297" height="98.537407" width="8.5374079" id="rect3340" style="fill:black;fill-opacity:1;stroke:black;stroke-width:1.46259189;stroke-opacity:1"/>
    <use height="149.97626" width="1247.9763" transform="translate(48,0)" id="use4120" xlink:href="#rect3340" y="0" x="0"/>
    <use height="149.97626" width="1247.9763" transform="translate(72,0)" id="use4122" xlink:href="#rect3340" y="0" x="0"/>
    <use height="149.97626" width="1247.9763" transform="translate(120,0)" id="use4126" xlink:href="#rect3340" y="0" x="0"/>
    <use height="149.97626" width="1247.9763" transform="translate(144,0)" id="use4128" xlink:href="#rect3340" y="0" x="0"/>
    <use height="149.97626" width="1247.9763" transform="translate(168,0)" id="use4130" xlink:href="#rect3340" y="0" x="0"/>
    <use height="149.97626" width="1247.9763" transform="translate(216,0)" id="use4134" xlink:href="#rect3340" y="0" x="0"/>
    <use height="149.97626" width="1247.9763" transform="translate(240,0)" id="use4136" xlink:href="#rect3340" y="0" x="0"/>
    <use height="149.97626" width="1247.9763" transform="translate(288,0)" id="use4140" xlink:href="#rect3340" y="0" x="0"/>
    <use height="149.97626" width="1247.9763" transform="translate(312,0)" id="use4142" xlink:href="#rect3340" y="0" x="0"/>
    <use height="149.97626" width="1247.9763" transform="translate(336,0)" id="use4144" xlink:href="#rect3340" y="0" x="0"/>
    <use height="149.97626" width="1247.9763" transform="translate(384,0)" id="use4148" xlink:href="#rect3340" y="0" x="0"/>
    <use height="149.97626" width="1247.9763" transform="translate(408,0)" id="use4150" xlink:href="#rect3340" y="0" x="0"/>
    <use height="149.97626" width="1247.9763" transform="translate(456,0)" id="use4154" xlink:href="#rect3340" y="0" x="0"/>
    <use height="149.97626" width="1247.9763" transform="translate(480,0)" id="use4156" xlink:href="#rect3340" y="0" x="0"/>
    <use height="149.97626" width="1247.9763" transform="translate(504,0)" id="use4158" xlink:href="#rect3340" y="0" x="0"/>
    <use height="149.97626" width="1247.9763" transform="translate(552,0)" id="use4162" xlink:href="#rect3340" y="0" x="0"/>
    <use height="149.97626" width="1247.9763" transform="translate(576,0)" id="use4164" xlink:href="#rect3340" y="0" x="0"/>
    <use height="149.97626" width="1247.9763" transform="translate(624,0)" id="use4168" xlink:href="#rect3340" y="0" x="0"/>
    <use height="149.97626" width="1247.9763" transform="translate(648,0)" id="use4170" xlink:href="#rect3340" y="0" x="0"/>
    <use height="149.97626" width="1247.9763" transform="translate(672,0)" id="use4172" xlink:href="#rect3340" y="0" x="0"/>
    <use height="149.97626" width="1247.9763" transform="translate(720,0)" id="use4176" xlink:href="#rect3340" y="0" x="0"/>
    <use height="149.97626" width="1247.9763" transform="translate(744,0)" id="use4178" xlink:href="#rect3340" y="0" x="0"/>
    <use height="149.97626" width="1247.9763" transform="translate(792,0)" id="use4182" xlink:href="#rect3340" y="0" x="0"/>
    <use height="149.97626" width="1247.9763" transform="translate(816,0)" id="use4184" xlink:href="#rect3340" y="0" x="0"/>
    <use height="149.97626" width="1247.9763" transform="translate(840,0)" id="use4186" xlink:href="#rect3340" y="0" x="0"/>
    <use height="149.97626" width="1247.9763" transform="translate(888,0)" id="use4190" xlink:href="#rect3340" y="0" x="0"/>
    <use height="149.97626" width="1247.9763" transform="translate(912,0)" id="use4192" xlink:href="#rect3340" y="0" x="0"/>
    <use height="149.97626" width="1247.9763" transform="translate(960,0)" id="use4196" xlink:href="#rect3340" y="0" x="0"/>
    <use height="149.97626" width="1247.9763" transform="translate(984,0)" id="use4198" xlink:href="#rect3340" y="0" x="0"/>
    <use height="149.97626" width="1247.9763" transform="translate(1008,0)" id="use4200" xlink:href="#rect3340" y="0" x="0"/>
    <use height="149.97626" width="1247.9763" transform="translate(1056,0)" id="use4204" xlink:href="#rect3340" y="0" x="0"/>
    <use height="149.97626" width="1247.9763" transform="translate(1080,0)" id="use4206" xlink:href="#rect3340" y="0" x="0"/>
    <use height="149.97626" width="1247.9763" transform="translate(1128,0)" id="use4210" xlink:href="#rect3340" y="0" x="0"/>
    <use height="149.97626" width="1247.9763" transform="translate(1152,0)" id="use4212" xlink:href="#rect3340" y="0" x="0"/>
    <use height="149.97626" width="1247.9763" transform="translate(1176,0)" id="use4214" xlink:href="#rect3340" y="0" x="0"/>
  </g>
</svg>