<svg width="1277" height="323">
<path style="stroke:#000000; fill:none;" d="M42 4L47 14M326 4L349 22.3712L358.258 31.0185L363 64M355 4L357 25M533 4L519 43L546 48M678 4L683 14M962 4L985 22.3712L994.258 31.0185L999 64M991 4L993 25M1169 4L1155 43L1182 48M519 43L505 77M1155 43L1141 77M185 54L175 118L206 104.543L218 97M821 54L811 118L842 104.543L854 97M364 77L365 85M1000 77L1001 85M435 85L416.329 136L397.416 190L402 224L448 189M1071 85L1051.98 137L1033.42 190L1038 224L1084 189M639 92L614.77 134L605 155L589.54 180L562 231M2 93L2 94M135 93L159.51 123L169.803 136.17L169 150M771 93L795.51 123L805.803 136.17L805 150M1274 93L1250.77 134L1241 155L1225.54 180L1198 231M173 119L171 133M809 119L807 133M344 123L397 190M980 123L1033 190M2 149L7 148M606 156L643 148M1274 149L1242 156M549 153C554.693 169.973 563.074 192.822 574 207M1185 153C1190.69 169.973 1199.07 192.822 1210 207M402 224L407 257M1038 224L1043 257M199 251L216.365 293L229 321C236.898 318.684 243.649 307.269 248.665 301C261.112 285.444 274.229 269.399 288 255M835 251L852.365 293L865 321C872.898 318.684 879.649 307.268 884.665 301C897.112 285.445 910.229 269.399 924 255M19 285L13 320M655 285L649 320M522 301L517 320M1158 301L1153 320"></path>
</svg>
