<svg width="567" height="494">
<path style="stroke:#000000; fill:none;" d="M105 124C98.2577 129.581 88.914 135.053 80 135.896C71.247 136.724 61.2069 133.29 53 135L24.6752 101.289L3 80C29.6768 72.1177 53.9982 104.844 81 98.8766C99.3628 94.8184 102.705 71.3788 86 63L86 59C97.0349 50.5192 106.721 48.7168 119 56C125.507 40.2672 108.988 28.0092 95 28L93 26C91.9245 16.4241 83.9669 17.3573 77 14C88.613 -7.79697 120.99 8.11655 131.072 22C135.074 27.5113 136.008 34.0472 139 40L138 48M140 40C147.905 32.4575 159.028 26.6275 169 34C162.767 38.5323 156.567 41.5538 156 50C162.466 56.1122 167.531 57.2507 175 52L177 44L181 44L187 51C195.876 46.1564 201.978 44.8489 210 52M170 34L173 36M107 129C118.005 113.7 137.78 101.454 153 90.5787C227.988 36.9944 326.953 23.1446 403 82.4244C420.984 96.4431 436.054 113.302 449.025 132C453.603 138.6 460.108 145.789 461 154L458 157L453 157L448 163L445 168L441 168L439 174L432 179L428 179C418.577 164.866 409.944 150.563 397 139.184C336.257 85.7874 245.148 81.7719 182 132M119 129C144.244 114.47 166.322 94.272 193 81.5417C266.045 46.6866 345.792 48.6293 409 102.729C425.844 117.146 443.11 135.37 452 156M84 64L85 64M132 128C141.829 125.081 152.139 115.299 161 109.694C179.547 97.9627 199.31 86.8214 220 79.2863C277.765 58.2482 343.076 62.7713 393 101.514C415.378 118.88 432.409 139.613 448 163M154 128C165.24 113.371 187.608 103.958 204 96.2191C290.549 55.3599 390.284 84.7155 440 167M130 83C122.127 103.294 104.05 123.344 80 121.906C66.6197 121.106 53.5137 113.006 40 117M166 130C176.234 125.695 184.479 117.118 194 111.475C206.251 104.215 220.391 98.8197 234 94.7199C283.931 79.6784 343.854 87.1052 386 119.528C406.52 135.314 420.441 153.758 436 174M109 89C107.096 93.3293 104.422 96.6831 100.996 99.9568C89.9881 110.476 74.8076 111.846 61 106.772C51.0958 103.131 36.2019 95.5568 26 101M193 135C246.386 100.164 319.74 98.5074 373 135.771C391.926 149.013 403.067 165.281 417 183L415 187L408 189C392.733 172.224 382.886 154.323 364 140.25C332.729 116.947 284.95 112.522 248 122.489C232.222 126.745 217.909 134.76 203 141M215 147C223.464 146.128 231.92 140.099 240 137.184C249.27 133.839 260.282 132.169 270 130.464C317.784 122.079 367.94 142.784 392 186M41 171C88.122 124.268 163.416 124.478 219 154.975C234.223 163.328 251.862 174.608 262 189M53 135L59 147M232 155C273.478 141.087 318.306 129.914 356 161.326C364.978 168.807 372.442 178.389 379 188M65 171C86.1939 164.291 104.458 153.066 127 149.26C170.248 141.957 219.121 165.368 249 195M241 161C289.129 144.957 336.396 147.662 370 190M80 175C93.9469 170.984 106.36 164.456 121 162.299C163.711 156.008 210.218 170.473 241 201M252 171C290.358 158.045 330.357 163.603 360 193M93 179C115.064 176.029 134.515 171.826 157 176M262 179C278.795 175.114 293.784 172.658 311 176.514C349.684 185.178 376.974 223.182 377 262M187 236C164.772 249.381 147.166 241.35 127 227.924C100.429 210.235 80.2836 184.646 45 190.565C38.0441 191.732 31.9319 192.946 26 197L11 193C15.2205 178.276 41.383 175.96 54 176.001C95.4893 176.134 114.701 211.701 147 230.197C153.201 233.748 160.354 233.98 167 236L179 232C187.901 218.315 170.977 211.564 161 220L159 213C168.099 202.586 171.238 202.614 184 206L185 205C180.844 193.828 172.084 190.607 161 192L155 201L149 196L149 188C157.691 179.387 163.394 177.3 174 184L180 179C186.897 179.005 194.763 179.268 197 187L190 190L193 209L199 220C206.429 219.917 211.219 217.069 214 210L211 206L214 202L219 202C227.237 211.059 225.108 217.697 217 226L203 228C197.72 237.038 192.947 245.078 184 251M426 179L417 183M268 185C314.164 176.302 362.51 198.911 369 250M109 191L145 186M228 288C206.488 256.191 230.275 211.143 262 197.092C271.234 193.002 285.033 189.136 295 192C304.508 189.598 316.825 195.454 325 200.012C347.984 212.826 363.657 241.534 360.71 268C359.394 279.811 353.73 289.08 350 300M199 192L212 199M362 200L394 192C403.721 195.074 414.255 193.904 424 197.242C451.55 206.678 469.45 230.269 478 257M26 197L39 203L53 214C60.9371 209.764 70.5277 212.874 78 216.887C93.4222 225.168 105.377 239.576 121 247M39 203C76.3972 181.334 105.813 234.381 136 244M125 203L146 199M162 199L166 200M317 316C264.149 343.849 207.186 278.347 239.104 229C266.357 186.865 329.61 193.285 348.221 240C354.778 256.458 351.129 272.02 346 288M199 201L206 205M367 210C396.261 201.535 429.521 204.346 451.829 228.039C459.672 236.369 463.73 246.114 469 256M159 207L133 212M297 315C284.326 315 272.907 313.251 262 306.305C209.538 272.896 250.737 189.421 309 210.877C317.765 214.104 324.241 220.425 330.435 227.17C336.775 234.073 340.982 241.814 342.985 251C345.359 261.885 343.294 271.537 340 282M228 211L231 213M53 215L65 227C81.9025 223.351 97.5515 244.135 111 251M373 220C406.315 209.348 455.902 223.183 463 263M144 221L156 217M289 304C281.146 303.816 274.249 301.309 268 296.625C255.119 286.969 245.897 271.634 248.3 255C252.673 224.735 290.225 208.82 314.996 226.515C321.233 230.97 326.23 237.063 329.444 244C333.426 252.592 333.16 262.82 332 272M154 227L175 227M377 228C385.129 227.353 392.731 225.344 401 226.171C429.903 229.06 448.391 248.633 459 274M65 227L73 240C83.5216 237.944 96.0131 249.28 104 255M264 282C260.505 276.134 257.76 269.927 257.188 263C256.826 258.61 258.097 254.104 259.535 250C273.354 210.565 335.062 231.415 322 270M218 230C211.314 241.182 208.786 258.175 211 271M209 232C204.839 242.531 204 252.802 204 264M268 272C266.377 266.225 265.033 259.962 266.613 254C274.519 224.154 316.332 236.872 315 265L315 265M381 241C405.328 233.608 444.437 244.947 448 274M73 240L78 250C76.9422 255.079 78.929 258.986 82 263C94.0791 263.627 96.4101 270.636 101 280C109.068 277.907 116.068 271.36 124 268.254C141.406 261.437 160.343 263.402 177 271.299C220.833 292.079 246.942 353.664 304 340.5C311.548 338.759 318.571 335.24 325 331M277 263C277.186 242.434 299.047 243.801 306 260M96 268C102.828 261.872 111.531 257.911 120 254.552C170.61 234.473 205.579 276.927 240 306.711C264.573 327.974 293.644 339.36 323 320L325 307C316.175 298.388 309.513 299.917 304 311L296 304L296 296L307 288C301.414 283.986 297.461 285.447 292 289C286.726 284.983 283.218 284.849 278 289L276 296C264.302 280.599 278.814 264.836 296 265.459C309.608 265.953 317.306 277.142 323 288M78 250C85.1547 250.46 91.624 254.46 97 259M193 250L193 255M383 251C405.274 246.865 432.748 252.191 441 276M285 258C288.494 254.729 291.533 254.74 295 258L296 259M322 278C329.539 278.413 332.996 283.06 335 290L344 297L345 303L341 314C359.304 330.011 381.48 320.347 387 298L381 291C373.246 291.425 372.124 295.821 369 302C358.258 293.248 360.528 277.231 373.039 270.688C378.573 267.794 385.14 269.259 391 270L398 260L410 263C418.355 260.352 422.614 261.996 428 269C423.183 276.925 413.395 279.549 410.109 289C404.495 305.144 422.919 323.648 439 321.811C457.251 319.726 449.469 303.968 440 297C445.124 279.175 460.392 294.096 467 301M383 261L390 261M464 309C472.742 301.568 481.836 300.066 485 288C480.998 279.955 475.206 275.285 466 278L465 272C476.877 260.23 504.344 262.587 499.609 285C496.559 299.433 478.437 305.675 476.488 320C475.554 326.86 483.483 333.206 489.996 331.332C495.085 329.867 496.654 325.594 498 321L492 315C501.918 303.432 519.196 318.604 512.821 330.985C507.476 341.365 491.85 341.243 482 342.519C466.221 344.564 450.332 350.689 437 359.345C404.592 380.386 375.891 407.239 341 424.395C277.87 455.436 206.739 449.426 152 405L159 392L164 359L159.394 337L149 315C157.217 311.264 168.49 316.494 176 320.248C197.552 331.023 214.705 348.839 235 361.63C290.583 396.663 359.481 370.185 394 318M416 297C428.901 287.156 443.325 281.583 459 278M104 280L124 290.764L139 301L149 314M430 280L431 281M125 291C153.466 266.977 189.187 298.95 211 316.69C239.204 339.628 272.13 364.012 310 350.29C319.811 346.735 328.417 340.79 337 335M507 283C555.184 299.407 574.971 355.326 554 400M420 285L421 286M292 289L292 293M308 290L306 291M464 291L477 293M284 294L290 294M359 299C357.885 304.762 354.202 310.214 349 313M500 299C529.872 310.019 541.918 339.262 542 369M140 300C183.894 300 205.096 331.234 240 352.077C265.646 367.392 294.326 370.194 322 358.969C335.58 353.461 346.756 344.149 358 335M421 308L432 302M364 307L358 316M311 311L317 308M429 316L444 315M483 325L486 326M161 336C191.244 345.584 212.013 368.514 241 380.575C297.492 404.08 357.067 375.933 397 336M164 359C187.425 362.17 207.007 381.104 228 390.691C258.845 404.777 296.957 405.639 329 395.255C347.693 389.197 365.23 378.724 379.999 365.841C390.37 356.795 401.822 341.444 415 337M159 392C173.47 395.94 186.113 410.878 200 417.335C236.252 434.19 278.109 434.044 316 422.286C349.551 411.875 378.256 388.871 406 368.269C420.894 357.208 438.763 340.917 458 339M511 342C537.49 363.573 552 397.282 552 431L540 437C535.638 425.607 531.165 413.343 519 407.803C511.916 404.577 504.368 404.754 497 403L477 415L485 416L491 431L501 428L502 429C501.999 435.705 501.99 445.215 497.347 450.621C493.172 455.483 487.268 456.436 485 463L488 466C486.43 472.55 480.329 477.193 475 480.957C468.382 485.631 458.361 490.921 450 490.802C443.239 490.706 436.285 485.888 430 483.695C419.863 480.159 410.659 479 400 479L389 469L385 470L373 459C367.171 461.812 362.033 458.467 358 454C352.105 455.441 346.685 452.475 342 449L327 446L326 438M424 343C408.251 354.45 394.037 368.333 378 379.254C338.383 406.233 288.231 424.054 240 412.402C222.783 408.243 207.057 400.235 192 391.2C182.879 385.727 172.866 377.113 162 376M490 347C515.783 354.869 531.83 388.37 536 413M466 351C482.766 353.352 499.453 367.576 508.957 381C513.63 387.601 516.288 396.357 522 402M450 359C474.408 356.341 491.607 379.956 504 397M436 367C457.05 361.988 486.252 377.478 493 398M489 439C483.875 451.555 478.492 462.277 467 470.226C443.868 486.226 409.265 478.962 395.349 454C385.398 436.15 390.872 422.401 394 404C400.63 398.078 405.095 390.493 413 385.877C438.019 371.266 465.848 380.534 482 403M479 425C478.876 439.932 471.944 454.54 459 462.532C438.188 475.382 408.83 464.536 401.573 441C388.27 397.853 447.218 370.639 472 408M443 435L436 433L436 427L439 424L447 424C459.441 444.498 419.059 445.636 427.742 423.001C428.742 420.394 430.765 418.249 433.015 416.653C436.008 414.531 439.593 414.087 443 413C448.379 414.638 453.577 414.894 457.815 419.133C467.944 429.266 465.135 447.363 452.996 454.471C420.744 473.355 391.407 421.587 425 403.105C429.115 400.841 433.352 400.058 438 400.004C443.06 399.945 447.403 400.31 452 402.61C457.528 405.374 461.735 409.633 464.79 415C468.972 422.346 468.165 429.009 468 437M380 408C369.449 426.212 377.801 452.227 389 468M369 415C363.007 429.203 369.226 445.173 373 459M477 415L474 418M354 425L358 454M342 431L342 449M491 431L488 436"></path>
</svg>
