<?xml version="1.0" encoding="UTF-8" standalone="no"?>
<!-- Created with Inkscape (http://www.inkscape.org/) -->

<svg
   xmlns:dc="http://purl.org/dc/elements/1.1/"
   xmlns:cc="http://creativecommons.org/ns#"
   xmlns:rdf="http://www.w3.org/1999/02/22-rdf-syntax-ns#"
   xmlns:svg="http://www.w3.org/2000/svg"
   xmlns="http://www.w3.org/2000/svg"
   xmlns:sodipodi="http://sodipodi.sourceforge.net/DTD/sodipodi-0.dtd"
   xmlns:inkscape="http://www.inkscape.org/namespaces/inkscape"
   width="48mm"
   height="13mm"
   viewBox="0 0 170.07876 46.062993"
   id="svg2"
   version="1.1"
   inkscape:version="0.91 r13725"
   sodipodi:docname="design.svg">
  <sodipodi:namedview
     id="base"
     pagecolor="#ffffff"
     bordercolor="#666666"
     borderopacity="1.0"
     inkscape:pageopacity="0.0"
     inkscape:pageshadow="2"
     inkscape:zoom="4"
     inkscape:cx="143.45318"
     inkscape:cy="-0.11813245"
     inkscape:document-units="mm"
     inkscape:current-layer="layer1"
     showgrid="true"
     fit-margin-top="0"
     fit-margin-left="0"
     fit-margin-right="0"
     fit-margin-bottom="0"
     inkscape:window-width="1920"
     inkscape:window-height="1029"
     inkscape:window-x="1600"
     inkscape:window-y="25"
     inkscape:window-maximized="1"
     showguides="true"
     inkscape:snap-global="true"
     inkscape:snap-bbox="true"
     inkscape:bbox-paths="true"
     inkscape:bbox-nodes="true"
     inkscape:snap-bbox-edge-midpoints="true"
     inkscape:snap-bbox-midpoints="true"
     inkscape:object-paths="true"
     inkscape:snap-intersection-paths="true"
     inkscape:object-nodes="true"
     inkscape:snap-smooth-nodes="true"
     inkscape:snap-object-midpoints="true"
     inkscape:snap-center="true">
    <inkscape:grid
       type="xygrid"
       id="grid4319"
       empcolor="#3f3fff"
       empopacity="0.26666667"
       color="#3f3fff"
       opacity="0.19215686"
       originx="-970.00013"
       originy="-718.93703" />
  </sodipodi:namedview>
  <defs
     id="defs4" />
  <metadata
     id="metadata7">
    <rdf:RDF>
      <cc:Work
         rdf:about="">
        <dc:format>image/svg+xml</dc:format>
        <dc:type
           rdf:resource="http://purl.org/dc/dcmitype/StillImage" />
        <dc:title></dc:title>
      </cc:Work>
    </rdf:RDF>
  </metadata>
  <g
     inkscape:label="Layer 1"
     inkscape:groupmode="layer"
     id="layer1"
     transform="translate(-970,-287.36217)">
    <path
       style="fill:#ff00ff;fill-opacity:0.62012987;stroke:none;stroke-width:1.41732287;stroke-linecap:square;stroke-linejoin:miter;stroke-miterlimit:4;stroke-dasharray:none;stroke-opacity:0.39610392"
       d="M 4 0 C 1.7839877 0 0 1.7839877 0 4 L 0 42.0625 C 0 44.278512 1.7839877 46.0625 4 46.0625 L 166.07812 46.0625 C 168.29414 46.0625 170.07812 44.278512 170.07812 42.0625 L 170.07812 4 C 170.07812 1.7839877 168.29414 0 166.07812 0 L 4 0 z M 32.150391 3.3691406 L 166.42969 3.3691406 L 166.42969 42.753906 L 32.150391 42.753906 L 32.150391 3.3691406 z M 16.417969 3.4082031 L 25.482422 3.4394531 L 26 3.7382812 C 26.33459 3.9300212 26.623643 4.2109694 26.820312 4.5371094 L 27.123047 5.0410156 L 27.142578 22.769531 C 27.159778 36.455309 27.136695 40.590074 27.015625 41.027344 C 26.812955 41.760664 26.090336 42.403506 25.285156 42.566406 C 24.888226 42.646406 21.913554 42.672864 15.703125 42.652344 C 6.7189666 42.622544 6.6936724 42.623301 6.2578125 42.394531 C 5.7093426 42.106841 5.3863018 41.772278 5.1699219 41.267578 C 5.0199019 40.917208 5.0019531 37.931146 5.0019531 22.980469 C 5.0019531 6.4422217 5.0037738 5.0760749 5.2148438 4.671875 C 5.5176037 4.0934751 6.1406251 3.6262212 6.796875 3.4882812 C 7.1780949 3.4081813 10.16041 3.3853131 16.417969 3.4082031 z M 37.335938 5.8671875 L 37.443359 7.5488281 L 37.550781 9.2304688 L 40.296875 9.3359375 L 43.039062 9.4394531 L 43.039062 15.269531 L 43.039062 21.097656 L 45.339844 21.097656 L 47.640625 21.097656 L 47.640625 15.253906 L 47.640625 9.4101562 L 50.648438 9.4101562 L 53.658203 9.4101562 L 53.658203 7.6386719 L 53.658203 5.8671875 L 45.498047 5.8671875 L 37.335938 5.8671875 z M 66.123047 5.8671875 C 61.655548 5.8671875 61.059278 5.9447095 59.642578 6.6933594 C 56.310179 8.4542391 54.877722 13.015688 56.482422 16.748047 C 57.404622 18.892616 58.420719 19.923348 60.261719 20.580078 C 61.144219 20.894898 63.280085 21.072011 66.333984 21.082031 L 71.042969 21.097656 L 70.935547 19.416016 L 70.828125 17.732422 L 66.703125 17.554688 C 63.305226 17.408768 62.448337 17.260998 61.835938 16.705078 C 61.426938 16.333998 61.09375 15.899354 61.09375 15.740234 C 61.09375 15.581124 63.284038 15.405732 65.960938 15.351562 L 70.828125 15.253906 L 70.935547 13.572266 L 71.042969 11.888672 L 66.068359 11.888672 C 60.80506 11.888672 60.49725 11.777207 61.59375 10.273438 C 62.02915 9.6761776 62.668038 9.5640062 66.460938 9.4101562 L 70.828125 9.2304688 L 70.935547 7.5488281 L 71.042969 5.8671875 L 66.123047 5.8671875 z M 104.79688 5.8671875 C 97.791576 5.8671875 96.6038 6.1466872 95.4375 8.0605469 C 93.9866 10.441616 94.820247 13.257362 97.310547 14.388672 C 98.404447 14.885522 99.623563 15.064209 101.97656 15.074219 C 105.63306 15.088719 106.62276 15.281366 106.91406 16.041016 C 107.40866 17.330675 106.51515 17.554688 100.87305 17.554688 L 95.427734 17.554688 L 95.427734 19.328125 L 95.427734 21.097656 L 101.99414 21.097656 C 109.29664 21.097656 110.13495 20.896924 111.37305 18.865234 C 112.75365 16.599645 111.92474 13.482867 109.64844 12.373047 C 108.70944 11.915237 107.24641 11.698546 104.37891 11.597656 C 100.30081 11.454196 99.354734 11.113332 99.802734 9.9453125 C 99.974034 9.4988626 100.92671 9.4101562 105.50781 9.4101562 L 111.00391 9.4101562 L 111.00391 7.6386719 L 111.00391 5.8671875 L 104.79688 5.8671875 z M 115.95898 5.8671875 L 115.95898 13.482422 L 115.95898 21.097656 L 118.26172 21.097656 L 120.5625 21.097656 L 120.5625 13.482422 L 120.5625 5.8671875 L 118.26172 5.8671875 L 115.95898 5.8671875 z M 134.88672 5.8671875 C 131.64222 5.8671875 129.72863 6.0214163 128.95703 6.3476562 C 127.60823 6.9180361 126.02718 8.443494 125.23828 9.9335938 C 124.46358 11.398303 124.47762 15.592522 125.26172 17.076172 C 126.11802 18.695012 127.75518 20.209961 129.11328 20.644531 C 129.76448 20.852941 132.40663 21.040627 134.98633 21.060547 L 139.67578 21.097656 L 139.67578 19.357422 L 139.67578 17.613281 L 135.39648 17.496094 C 131.32649 17.383674 131.08189 17.33616 130.40039 16.494141 L 129.68359 15.607422 L 134.67969 15.509766 L 139.67578 15.412109 L 139.67578 13.650391 L 139.67578 11.888672 L 134.91797 11.888672 C 129.68477 11.888672 128.99968 11.624938 130.61328 10.236328 C 131.49968 9.4733883 131.8899 9.4101562 135.625 9.4101562 L 139.67578 9.4101562 L 139.67578 7.6386719 L 139.67578 5.8671875 L 134.88672 5.8671875 z M 143.92383 5.8671875 L 143.92383 13.482422 L 143.92383 21.097656 L 146.22656 21.097656 L 148.52734 21.097656 L 148.52734 18.402344 L 148.52734 15.707031 L 151.2207 15.84375 C 154.4146 16.00512 155.02178 16.510241 155.39258 19.306641 L 155.63086 21.097656 L 158.29883 21.097656 C 160.66753 21.097656 160.94692 21.027142 160.79492 20.476562 C 160.70092 20.135663 160.51808 19.102104 160.39258 18.177734 C 160.25058 17.132305 159.81518 16.080551 159.23828 15.394531 C 158.40278 14.401021 158.37025 14.259084 158.90625 13.958984 C 160.43775 13.101455 160.99851 10.219614 160.00781 8.3027344 C 158.96871 6.2923447 157.32628 5.88358 150.20898 5.875 L 143.92383 5.8671875 z M 81.964844 5.9257812 C 76.979705 5.9298992 75.952852 6.3461643 74.908203 8.0605469 C 73.439603 10.470436 74.426557 13.465426 77.035156 14.509766 C 77.996256 14.894516 79.566669 15.076172 81.917969 15.076172 C 85.796668 15.076172 87.084581 15.558701 86.363281 16.738281 C 86.020981 17.298001 85.285037 17.399938 80.523438 17.554688 L 75.076172 17.732422 L 74.966797 19.416016 L 74.861328 21.097656 L 81.445312 21.097656 C 86.698612 21.097656 88.246297 20.986328 89.091797 20.548828 C 91.271296 19.421228 92.181547 16.291843 90.998047 14.001953 C 90.103747 12.271693 88.66613 11.777916 84.019531 11.603516 C 79.761832 11.443726 78.907716 11.148368 79.353516 9.9863281 C 79.544316 9.4887782 80.319791 9.4101562 85.025391 9.4101562 C 91.06929 9.4101562 90.482978 9.6620708 90.580078 7.0195312 L 90.615234 6.0449219 L 84.355469 5.9472656 C 83.470592 5.9335768 82.678845 5.925296 81.966797 5.9257812 L 81.964844 5.9257812 z M 23.654297 7.1464844 C 23.579097 7.1763844 20.277736 8.8527479 16.316406 10.867188 C 11.247247 13.444927 9.0477018 14.614776 8.8886719 14.822266 C 8.6777919 15.097496 8.6579631 15.282309 8.6269531 17.611328 L 8.59375 20.107422 L 10.511719 20.107422 L 12.431641 20.107422 L 12.431641 18.908203 L 12.431641 17.708984 L 18.109375 14.939453 L 23.789062 12.173828 L 23.789062 9.6347656 C 23.513733 7.663656 23.761277 7.1038344 23.654297 7.1464844 z M 148.52734 9.4101562 L 151.64258 9.4101562 C 154.70288 9.4101562 155.60547 9.7014096 155.60547 10.693359 C 155.60547 10.932679 155.35658 11.379447 155.05078 11.685547 C 154.63298 12.103477 153.75212 12.244141 151.51172 12.244141 L 148.52734 12.244141 L 148.52734 10.826172 L 148.52734 9.4101562 z M 21.128906 15.529297 C 21.106306 15.529297 20.383161 15.877898 19.519531 16.304688 L 17.949219 17.080078 L 17.916016 18.646484 L 17.886719 20.212891 L 19.529297 20.212891 L 21.169922 20.212891 L 21.169922 17.871094 C 21.169922 16.582734 21.151906 15.529297 21.128906 15.529297 z M 8.6054688 22.128906 L 8.6054688 22.130859 L 8.6054688 30.275391 L 8.6054688 38.419922 L 10.517578 38.419922 L 12.427734 38.419922 L 12.457031 35.148438 L 12.484375 31.873047 L 18.138672 31.845703 L 23.792969 31.818359 L 23.792969 29.476562 L 23.792969 27.134766 L 18.111328 27.134766 L 12.427734 27.134766 L 12.427734 24.632812 L 12.427734 22.128906 L 10.519531 22.128906 L 8.6054688 22.128906 z M 63.308594 24.736328 C 60.280194 24.783928 59.307759 25.686913 58.318359 26.945312 C 57.781459 27.628262 57.552734 28.415936 57.552734 29.566406 C 57.552734 32.824496 59.198095 33.868802 64.808594 34.169922 C 68.574493 34.372042 68.706766 34.40704 68.822266 35.224609 C 68.888266 35.689549 68.72955 36.204001 68.46875 36.369141 C 68.20835 36.534291 65.803953 36.672781 63.126953 36.675781 L 58.259766 36.681641 L 58.259766 38.451172 L 58.259766 40.222656 L 63.304688 40.207031 C 66.079087 40.198031 69.061041 40.054769 69.931641 39.886719 C 72.90844 39.312109 74.538528 36.204877 73.236328 33.585938 C 72.107428 31.315538 71.204812 30.926126 66.507812 30.691406 L 62.330078 30.482422 L 62.222656 29.554688 C 62.141656 28.316418 62.65902 28.191557 68.261719 28.185547 L 72.775391 28.179688 L 72.775391 26.587891 L 72.775391 24.994141 L 67.097656 24.994141 C 65.553657 24.801441 64.317994 24.720468 63.308594 24.736328 z M 94.013672 24.992188 L 94.013672 24.994141 L 94.013672 32.625 L 94.013672 40.257812 L 96.048828 40.152344 L 98.083984 40.044922 L 98.1875 37.496094 L 98.291016 34.945312 L 101.75586 34.970703 C 105.68836 34.194673 106.57466 34.813514 107.91406 33.558594 C 110.34466 31.281464 109.66242 27.012865 106.64062 25.578125 C 105.65553 25.110475 104.27274 24.992188 99.710938 24.992188 L 94.013672 24.992188 z M 148.82227 24.992188 L 148.82031 24.994141 L 148.9375 30.765625 C 149.0355 35.547634 149.16629 36.699331 149.68359 37.488281 C 150.49719 38.729071 151.81143 39.574492 153.42383 39.888672 C 154.13713 40.027682 156.19519 40.159211 157.99609 40.181641 L 161.27148 40.222656 L 161.27148 38.451172 L 161.27148 36.681641 L 157.97461 36.681641 C 155.92091 36.240011 154.45936 36.518432 154.06836 36.232422 C 153.53936 35.845362 153.44191 35.042514 153.37891 30.390625 L 153.30664 25 L 151.0625 24.994141 L 148.82227 24.992188 z M 44.837891 24.994141 L 43.796875 27.207031 C 43.224675 28.424511 41.62654 31.781699 40.244141 34.667969 C 38.861541 37.554218 37.730469 39.984049 37.730469 40.068359 C 37.730469 40.152759 38.816985 40.222656 40.146484 40.222656 L 42.564453 40.222656 L 43.392578 38.451172 L 44.220703 36.681641 L 47.111328 36.681641 L 49.998047 36.681641 L 50.826172 38.451172 L 51.65625 40.222656 L 54.074219 40.222656 C 55.403719 40.222656 56.490234 40.087675 56.490234 39.921875 C 56.490234 39.756065 54.901184 36.32893 52.958984 32.306641 L 49.427734 24.994141 L 47.132812 24.994141 L 44.837891 24.994141 z M 76.3125 24.994141 L 76.3125 32.607422 L 76.3125 40.222656 L 78.4375 40.222656 L 80.560547 40.222656 L 80.560547 37.212891 L 80.560547 34.201172 L 83.392578 34.201172 L 86.224609 34.201172 L 86.224609 37.212891 L 86.224609 40.222656 L 88.347656 40.222656 L 90.472656 40.222656 L 90.472656 32.607422 L 90.472656 24.994141 L 88.347656 24.994141 L 86.224609 24.994141 L 86.224609 27.826172 L 86.224609 30.658203 L 83.392578 30.658203 L 80.560547 30.658203 L 80.560547 27.826172 L 80.560547 24.994141 L 78.4375 24.994141 L 76.3125 24.994141 z M 138.11133 24.996094 C 134.73703 24.999094 133.03905 25.530406 131.49805 27.072266 C 130.51005 28.060765 130.1041 28.848823 129.7793 30.414062 C 128.777 35.244732 130.78701 38.731043 135.25391 39.914062 C 137.12921 40.410772 141.54641 40.012778 143.12891 39.205078 C 146.27141 37.601268 147.59199 33.469163 146.21289 29.558594 C 145.10039 26.403644 142.59433 24.992084 138.11133 24.996094 z M 119.32422 24.998047 C 116.26742 24.998047 114.53606 25.455662 113.13086 26.638672 C 111.75916 27.793532 111.42753 28.431442 110.99023 30.738281 C 110.11393 35.36149 112.18691 38.753905 116.56641 39.859375 C 118.67361 40.391225 122.72976 40.041324 124.41016 39.183594 C 128.43386 37.129744 129.26982 30.433571 125.91992 27.082031 C 124.37272 25.534012 122.67542 24.998047 119.32422 24.998047 z M 101.76562 28.052734 C 102.75952 28.055734 103.66487 28.395635 103.94727 28.546875 C 104.72327 28.962405 104.88023 30.623425 104.20703 31.296875 C 103.94923 31.554795 102.69698 31.722656 101.02148 31.722656 L 98.261719 31.722656 L 98.261719 29.951172 L 98.261719 28.181641 L 100.76172 28.181641 C 101.09272 28.087941 101.43433 28.051694 101.76562 28.052734 z M 119.71094 28.181641 C 120.89934 28.181641 121.50933 28.385908 122.11523 28.992188 C 123.66223 30.540097 123.59164 34.688246 121.99414 36.134766 C 121.19654 36.856985 118.62145 37.183095 117.50195 36.703125 C 116.19455 36.142625 115.60547 34.906146 115.60547 32.722656 C 115.60547 29.253377 116.57654 28.181641 119.71094 28.181641 z M 138.59766 28.216797 C 140.55896 28.216727 141.32055 28.931472 141.74805 30.925781 C 142.18415 32.960861 141.79789 35.070973 140.80469 36.064453 C 140.02169 36.847753 137.44657 37.210295 136.26367 36.703125 C 134.89677 36.117115 134.365 34.921456 134.375 32.441406 C 134.386 29.273017 135.01274 28.481196 137.68164 28.259766 C 138.01324 28.232266 138.31746 28.216797 138.59766 28.216797 z M 47.199219 29.806641 C 47.751019 29.809641 47.951172 31.28125 47.951172 31.28125 C 48.364772 32.09263 48.701172 32.92245 48.701172 33.125 C 48.701172 33.32757 47.987328 33.494141 47.111328 33.494141 C 46.235228 33.494141 45.523203 33.372652 45.533203 33.226562 C 45.543203 33.080463 45.919547 32.252615 46.373047 31.384766 C 46.373047 31.384766 46.605619 29.803731 47.199219 29.806641 z "
       transform="translate(970,287.36217)"
       id="rect4194" />
    <g
       id="layer1-0"
       inkscape:label="Layer 1"
       transform="matrix(0.34003939,0,0,0.34003939,-98.835389,-17.02608)">
      <g
         id="g4531"
         transform="matrix(0.99506107,0,0,0.99995048,1539.2753,-107.54376)">
        <g
           transform="matrix(0.3574934,0,0,0.41524149,1100.2387,663.7409)"
           id="g4519">
          <g
             transform="matrix(1.0493589,0,0,1.0493589,-84.522912,-55.326559)"
             id="g4523" />
        </g>
      </g>
    </g>
  </g>
</svg>
