  0
SECTION
  2
HEADER
  9
$ACADVER
  1
AC1014
  9
$HANDSEED
  5
FFFF
  9
$MEASUREMENT
 70
     1
  0
ENDSEC
  0
SECTION
  2
TABLES
  0
TABLE
  2
VPORT
  5
8
330
0
100
AcDbSymbolTable
 70
     4
  0
VPORT
  5
2E
330
8
100
AcDbSymbolTableRecord
100
AcDbViewportTableRecord
  2
*ACTIVE
 70
     0
 10
0.0
 20
0.0
 11
1.0
 21
1.0
 12
210.0
 22
148.5
 13
0.0
 23
0.0
 14
10.0
 24
10.0
 15
10.0
 25
10.0
 16
0.0
 26
0.0
 36
1.0
 17
0.0
 27
0.0
 37
0.0
 40
341.0
 41
1.24
 42
50.0
 43
0.0
 44
0.0
 50
0.0
 51
0.0
 71
     0
 72
   100
 73
     1
 74
     3
 75
     0
 76
     0
 77
     0
 78
     0
  0
ENDTAB
  0
TABLE
  2
LTYPE
  5
5
330
0
100
AcDbSymbolTable
 70
     1
  0
LTYPE
  5
14
330
5
100
AcDbSymbolTableRecord
100
AcDbLinetypeTableRecord
  2
BYBLOCK
 70
     0
  3

 72
    65
 73
     0
 40
0.0
  0
LTYPE
  5
15
330
5
100
AcDbSymbolTableRecord
100
AcDbLinetypeTableRecord
  2
BYLAYER
 70
     0
  3

 72
    65
 73
     0
 40
0.0
  0
LTYPE
  5
16
330
5
100
AcDbSymbolTableRecord
100
AcDbLinetypeTableRecord
  2
CONTINUOUS
 70
     0
  3
Solid line
 72
    65
 73
     0
 40
0.0
  0
ENDTAB
  0
TABLE
  2
LAYER
  5
2
100
AcDbSymbolTable
 70
2
  0
LAYER
  5
50
100
AcDbSymbolTableRecord
100
AcDbLayerTableRecord
  2
0
 70
0
  6
CONTINUOUS
  0
LAYER
  5
51
100
AcDbSymbolTableRecord
100
AcDbLayerTableRecord
  2
Layer_1
 70
0
  6
CONTINUOUS
  0
ENDTAB
  0
TABLE
  2
STYLE
  5
3
330
0
100
AcDbSymbolTable
 70
     1
  0
STYLE
  5
11
330
3
100
AcDbSymbolTableRecord
100
AcDbTextStyleTableRecord
  2
STANDARD
 70
     0
 40
0.0
 41
1.0
 50
0.0
 71
     0
 42
2.5
  3
txt
  4

  0
ENDTAB
  0
TABLE
  2
VIEW
  5
6
330
0
100
AcDbSymbolTable
 70
     0
  0
ENDTAB
  0
TABLE
  2
UCS
  5
7
330
0
100
AcDbSymbolTable
 70
     0
  0
ENDTAB
  0
TABLE
  2
APPID
  5
9
330
0
100
AcDbSymbolTable
 70
     2
  0
APPID
  5
12
330
9
100
AcDbSymbolTableRecord
100
AcDbRegAppTableRecord
  2
ACAD
 70
     0
  0
ENDTAB
  0
TABLE
  2
DIMSTYLE
  5
A
330
0
100
AcDbSymbolTable
 70
     1
  0
DIMSTYLE
105
27
330
A
100
AcDbSymbolTableRecord
100
AcDbDimStyleTableRecord
  2
ISO-25
 70
     0
  3

  4

  5

  6

  7

 40
1.0
 41
2.5
 42
0.625
 43
3.75
 44
1.25
 45
0.0
 46
0.0
 47
0.0
 48
0.0
140
2.5
141
2.5
142
0.0
143
0.03937007874016
144
1.0
145
0.0
146
1.0
147
0.625
 71
     0
 72
     0
 73
     0
 74
     0
 75
     0
 76
     0
 77
     1
 78
     8
170
     0
171
     3
172
     1
173
     0
174
     0
175
     0
176
     0
177
     0
178
     0
270
     2
271
     2
272
     2
273
     2
274
     3
340
11
275
     0
280
     0
281
     0
282
     0
283
     0
284
     8
285
     0
286
     0
287
     3
288
     0
  0
ENDTAB
  0
TABLE
  2
BLOCK_RECORD
  5
1
330
0
100
AcDbSymbolTable
 70
     1
  0
BLOCK_RECORD
  5
1F
330
1
100
AcDbSymbolTableRecord
100
AcDbBlockTableRecord
  2
*MODEL_SPACE
  0
BLOCK_RECORD
  5
1B
330
1
100
AcDbSymbolTableRecord
100
AcDbBlockTableRecord
  2
*PAPER_SPACE
  0
ENDTAB
  0
ENDSEC
  0
SECTION
  2
BLOCKS
  0
BLOCK
  5
20
330
1F
100
AcDbEntity
  8
0
100
AcDbBlockBegin
  2
*MODEL_SPACE
 70
     0
 10
0.0
 20
0.0
 30
0.0
  3
*MODEL_SPACE
  1

  0
ENDBLK
  5
21
330
1F
100
AcDbEntity
  8
0
100
AcDbBlockEnd
  0
BLOCK
  5
1C
330
1B
100
AcDbEntity
 67
     1
  8
0
100
AcDbBlockBegin
  2
*PAPER_SPACE
  1

  0
ENDBLK
  5
1D
330
1B
100
AcDbEntity
 67
     1
  8
0
100
AcDbBlockEnd
  0
ENDSEC
  0
SECTION
  2
ENTITIES
  0
LWPOLYLINE
  5
100
100
AcDbEntity
  8
Layer_1
 62
7
100
AcDbPolyline
 90
14
 70
0
 10
-30.517187
 20
290.144146
 30
0.0
 10
-31.025000
 20
289.114458
 30
0.0
 10
-32.042187
 20
287.053522
 30
0.0
 10
-63.387500
 20
223.542578
 30
0.0
 10
-136.887504
 20
212.861330
 30
0.0
 10
-83.703128
 20
161.019146
 30
0.0
 10
-96.257816
 20
87.817581
 30
0.0
 10
-30.517187
 20
122.378522
 30
0.0
 10
35.221875
 20
87.817581
 30
0.0
 10
22.667187
 20
161.019146
 30
0.0
 10
75.851562
 20
212.861330
 30
0.0
 10
2.351562
 20
223.542578
 30
0.0
 10
-30.517187
 20
290.144146
 30
0.0
 10
-30.517187
 20
290.144146
 30
0.0
  0
LWPOLYLINE
  5
101
100
AcDbEntity
  8
Layer_1
 62
7
100
AcDbPolyline
 90
12
 70
0
 10
-30.517187
 20
282.458210
 30
0.0
 10
0.093750
 20
220.431642
 30
0.0
 10
68.542187
 20
210.486330
 30
0.0
 10
19.012500
 20
162.208210
 30
0.0
 10
30.704687
 20
94.034769
 30
0.0
 10
-30.515625
 20
126.222266
 30
0.0
 10
-91.737504
 20
94.034769
 30
0.0
 10
-80.045312
 20
162.208210
 30
0.0
 10
-129.575000
 20
210.486330
 30
0.0
 10
-61.126562
 20
220.431642
 30
0.0
 10
-30.517187
 20
282.458210
 30
0.0
 10
-30.517187
 20
282.458210
 30
0.0
  0
LWPOLYLINE
  5
102
100
AcDbEntity
  8
Layer_1
 62
7
100
AcDbPolyline
 90
14
 70
0
 10
160.259376
 20
237.006642
 30
0.0
 10
159.751560
 20
235.976954
 30
0.0
 10
158.734376
 20
233.916018
 30
0.0
 10
127.389064
 20
170.405082
 30
0.0
 10
53.890625
 20
159.723834
 30
0.0
 10
107.075000
 20
107.881643
 30
0.0
 10
94.520312
 20
34.680081
 30
0.0
 10
160.259376
 20
69.241019
 30
0.0
 10
226.000000
 20
34.680081
 30
0.0
 10
213.443752
 20
107.881643
 30
0.0
 10
266.629688
 20
159.723834
 30
0.0
 10
193.129688
 20
170.405082
 30
0.0
 10
160.259376
 20
237.006642
 30
0.0
 10
160.259376
 20
237.006642
 30
0.0
  0
LWPOLYLINE
  5
103
100
AcDbEntity
  8
Layer_1
 62
7
100
AcDbPolyline
 90
12
 70
0
 10
160.259376
 20
229.319146
 30
0.0
 10
190.870312
 20
167.294146
 30
0.0
 10
259.318752
 20
157.348834
 30
0.0
 10
209.789064
 20
109.070707
 30
0.0
 10
221.481248
 20
40.897269
 30
0.0
 10
160.259376
 20
73.084769
 30
0.0
 10
99.039064
 20
40.897269
 30
0.0
 10
110.729688
 20
109.070707
 30
0.0
 10
61.201562
 20
157.350394
 30
0.0
 10
129.648440
 20
167.294146
 30
0.0
 10
160.259376
 20
229.319146
 30
0.0
 10
160.259376
 20
229.319146
 30
0.0
  0
LWPOLYLINE
  5
104
100
AcDbEntity
  8
Layer_1
 62
7
100
AcDbPolyline
 90
225
 70
0
 10
10.682813
 20
204.456642
 30
0.0
 10
10.682813
 20
204.455082
 30
0.0
 10
10.353125
 20
204.392578
 30
0.0
 10
10.353125
 20
204.391018
 30
0.0
 10
9.940625
 20
204.158210
 30
0.0
 10
9.571875
 20
203.809770
 30
0.0
 10
8.735938
 20
202.764458
 30
0.0
 10
8.734375
 20
202.761330
 30
0.0
 10
8.731250
 20
202.758210
 30
0.0
 10
6.725000
 20
199.794146
 30
0.0
 10
6.720312
 20
199.789458
 30
0.0
 10
6.717188
 20
199.783210
 30
0.0
 10
4.440625
 20
195.966018
 30
0.0
 10
4.437500
 20
195.961330
 30
0.0
 10
4.434375
 20
195.955082
 30
0.0
 10
3.782812
 20
194.764458
 30
0.0
 10
4.014062
 20
196.558210
 30
0.0
 10
4.015625
 20
196.566018
 30
0.0
 10
4.345312
 20
198.333210
 30
0.0
 10
4.403125
 20
198.897266
 30
0.0
 10
4.351562
 20
199.386330
 30
0.0
 10
3.970312
 20
199.981642
 30
0.0
 10
3.379688
 20
200.395706
 30
0.0
 10
2.684375
 20
200.580082
 30
0.0
 10
1.984375
 20
200.487898
 30
0.0
 10
1.398438
 20
200.078522
 30
0.0
 10
1.081250
 20
199.439458
 30
0.0
 10
1.073438
 20
199.401954
 30
0.0
 10
1.071875
 20
199.364458
 30
0.0
 10
0.648438
 20
193.780082
 30
0.0
 10
0.368750
 20
191.205082
 30
0.0
 10
-0.618750
 20
188.442578
 30
0.0
 10
-1.679688
 20
186.130082
 30
0.0
 10
-2.906250
 20
183.925394
 30
0.0
 10
-4.187500
 20
181.994146
 30
0.0
 10
-5.507812
 20
180.305082
 30
0.0
 10
-6.773438
 20
179.062890
 30
0.0
 10
-7.920312
 20
178.395706
 30
0.0
 10
-8.490625
 20
178.253522
 30
0.0
 10
-8.818750
 20
178.267578
 30
0.0
 10
-9.065625
 20
178.500394
 30
0.0
 10
-9.348438
 20
179.061330
 30
0.0
 10
-9.578125
 20
180.226954
 30
0.0
 10
-9.604687
 20
181.970706
 30
0.0
 10
-9.176562
 20
186.330082
 30
0.0
 10
-8.281250
 20
191.047266
 30
0.0
 10
-7.379688
 20
194.850394
 30
0.0
 10
-7.376562
 20
194.862890
 30
0.0
 10
-7.373438
 20
194.873834
 30
0.0
 10
-7.260938
 20
195.591018
 30
0.0
 10
-7.348438
 20
196.223834
 30
0.0
 10
-7.651562
 20
196.669146
 30
0.0
 10
-8.104687
 20
196.976954
 30
0.0
 10
-8.653125
 20
197.253522
 30
0.0
 10
-9.259375
 20
197.237898
 30
0.0
 10
-9.671875
 20
197.003522
 30
0.0
 10
-10.040625
 20
196.655082
 30
0.0
 10
-10.873438
 20
195.611330
 30
0.0
 10
-10.875000
 20
195.608210
 30
0.0
 10
-10.878125
 20
195.605082
 30
0.0
 10
-12.885938
 20
192.641018
 30
0.0
 10
-12.892187
 20
192.636330
 30
0.0
 10
-12.895313
 20
192.630082
 30
0.0
 10
-15.171875
 20
188.812890
 30
0.0
 10
-15.175000
 20
188.808210
 30
0.0
 10
-15.178125
 20
188.801954
 30
0.0
 10
-15.829687
 20
187.611330
 30
0.0
 10
-15.598438
 20
189.405082
 30
0.0
 10
-15.596875
 20
189.412890
 30
0.0
 10
-15.267187
 20
191.180082
 30
0.0
 10
-15.207813
 20
191.744146
 30
0.0
 10
-15.260938
 20
192.233210
 30
0.0
 10
-15.642187
 20
192.828522
 30
0.0
 10
-16.232813
 20
193.241018
 30
0.0
 10
-16.929687
 20
193.425394
 30
0.0
 10
-17.629687
 20
193.333210
 30
0.0
 10
-18.214062
 20
192.923834
 30
0.0
 10
-18.531250
 20
192.286330
 30
0.0
 10
-18.539062
 20
192.248834
 30
0.0
 10
-18.540625
 20
192.211330
 30
0.0
 10
-18.964062
 20
186.626954
 30
0.0
 10
-19.600000
 20
180.755082
 30
0.0
 10
-20.723438
 20
177.420706
 30
0.0
 10
-20.723438
 20
177.419146
 30
0.0
 10
-20.725000
 20
177.416018
 30
0.0
 10
-21.067187
 20
176.036330
 30
0.0
 10
-21.081250
 20
175.445706
 30
0.0
 10
-20.964062
 20
174.908210
 30
0.0
 10
-20.962500
 20
174.906642
 30
0.0
 10
-20.284375
 20
173.806642
 30
0.0
 10
-20.270313
 20
173.787898
 30
0.0
 10
-20.256250
 20
173.769146
 30
0.0
 10
-19.567187
 20
173.142578
 30
0.0
 10
-19.134375
 20
172.981642
 30
0.0
 10
-18.650000
 20
173.020706
 30
0.0
 10
-18.326562
 20
173.241018
 30
0.0
 10
-18.184375
 20
173.494146
 30
0.0
 10
-18.006250
 20
174.034770
 30
0.0
 10
-18.006250
 20
174.037898
 30
0.0
 10
-18.004687
 20
174.039458
 30
0.0
 10
-17.182813
 20
178.372266
 30
0.0
 10
-16.354687
 20
182.526954
 30
0.0
 10
-15.350000
 20
184.945706
 30
0.0
 10
-15.346875
 20
184.951954
 30
0.0
 10
-13.845313
 20
187.778522
 30
0.0
 10
-13.843750
 20
187.781642
 30
0.0
 10
-13.843750
 20
187.783210
 30
0.0
 10
-12.239062
 20
190.566018
 30
0.0
 10
-11.215625
 20
192.095706
 30
0.0
 10
-11.385938
 20
190.384770
 30
0.0
 10
-11.692187
 20
188.481642
 30
0.0
 10
-11.693750
 20
188.473834
 30
0.0
 10
-11.695313
 20
188.466018
 30
0.0
 10
-12.454687
 20
184.023834
 30
0.0
 10
-12.456250
 20
184.014458
 30
0.0
 10
-12.457813
 20
184.005082
 30
0.0
 10
-12.928125
 20
179.887898
 30
0.0
 10
-12.967187
 20
178.141018
 30
0.0
 10
-12.689062
 20
176.734770
 30
0.0
 10
-12.414062
 20
176.164458
 30
0.0
 10
-12.020313
 20
175.714458
 30
0.0
 10
-11.506250
 20
175.439458
 30
0.0
 10
-10.923438
 20
175.366018
 30
0.0
 10
-9.954687
 20
175.436330
 30
0.0
 10
-8.981250
 20
175.697266
 30
0.0
 10
-7.959375
 20
176.144146
 30
0.0
 10
-6.979688
 20
176.720706
 30
0.0
 10
-6.042188
 20
177.425394
 30
0.0
 10
-5.146875
 20
178.258210
 30
0.0
 10
-5.145312
 20
178.259770
 30
0.0
 10
-3.443750
 20
180.166018
 30
0.0
 10
-1.921875
 20
182.308210
 30
0.0
 10
-1.456250
 20
183.186330
 30
0.0
 10
-1.468750
 20
182.598834
 30
0.0
 10
-1.353125
 20
182.062890
 30
0.0
 10
-1.351562
 20
182.062890
 30
0.0
 10
-1.351562
 20
182.061330
 30
0.0
 10
-0.673438
 20
180.959770
 30
0.0
 10
-0.659375
 20
180.941018
 30
0.0
 10
-0.645312
 20
180.922266
 30
0.0
 10
0.046875
 20
180.295706
 30
0.0
 10
0.478125
 20
180.136330
 30
0.0
 10
0.962500
 20
180.175394
 30
0.0
 10
1.285938
 20
180.395706
 30
0.0
 10
1.428125
 20
180.650394
 30
0.0
 10
1.604688
 20
181.189458
 30
0.0
 10
1.604688
 20
181.192578
 30
0.0
 10
1.606250
 20
181.195706
 30
0.0
 10
2.428125
 20
185.526954
 30
0.0
 10
3.256250
 20
189.681642
 30
0.0
 10
4.260938
 20
192.100394
 30
0.0
 10
4.264062
 20
192.106642
 30
0.0
 10
5.765625
 20
194.933210
 30
0.0
 10
5.767188
 20
194.934770
 30
0.0
 10
5.767188
 20
194.936330
 30
0.0
 10
7.371875
 20
197.719146
 30
0.0
 10
8.395313
 20
199.248834
 30
0.0
 10
8.225000
 20
197.537898
 30
0.0
 10
7.918750
 20
195.634770
 30
0.0
 10
7.917188
 20
195.626954
 30
0.0
 10
7.915625
 20
195.619146
 30
0.0
 10
7.156250
 20
191.178522
 30
0.0
 10
7.154688
 20
191.169146
 30
0.0
 10
7.153125
 20
191.161330
 30
0.0
 10
6.682812
 20
187.042578
 30
0.0
 10
6.643750
 20
185.295706
 30
0.0
 10
6.921875
 20
183.889458
 30
0.0
 10
7.196875
 20
183.319146
 30
0.0
 10
7.590625
 20
182.869146
 30
0.0
 10
8.104687
 20
182.594146
 30
0.0
 10
8.687500
 20
182.520706
 30
0.0
 10
9.656250
 20
182.592578
 30
0.0
 10
10.629687
 20
182.851954
 30
0.0
 10
11.651562
 20
183.298834
 30
0.0
 10
12.631250
 20
183.875394
 30
0.0
 10
13.568750
 20
184.580082
 30
0.0
 10
14.464062
 20
185.412890
 30
0.0
 10
14.465625
 20
185.414458
 30
0.0
 10
16.167187
 20
187.320706
 30
0.0
 10
17.689062
 20
189.462890
 30
0.0
 10
19.087500
 20
191.817578
 30
0.0
 10
20.264062
 20
194.308210
 30
0.0
 10
21.253125
 20
196.870706
 30
0.0
 10
22.032813
 20
199.319146
 30
0.0
 10
22.032813
 20
199.322266
 30
0.0
 10
22.137500
 20
199.666018
 30
0.0
 10
22.129687
 20
200.061330
 30
0.0
 10
22.025000
 20
200.308210
 30
0.0
 10
21.814062
 20
200.523834
 30
0.0
 10
21.378125
 20
200.616018
 30
0.0
 10
20.817187
 20
200.517578
 30
0.0
 10
20.551562
 20
200.269146
 30
0.0
 10
20.407813
 20
199.958210
 30
0.0
 10
20.406250
 20
199.951954
 30
0.0
 10
20.404687
 20
199.947266
 30
0.0
 10
19.834375
 20
197.870706
 30
0.0
 10
18.990625
 20
195.597266
 30
0.0
 10
17.929687
 20
193.284770
 30
0.0
 10
16.703125
 20
191.080082
 30
0.0
 10
15.421875
 20
189.148834
 30
0.0
 10
14.101562
 20
187.459770
 30
0.0
 10
12.835938
 20
186.217578
 30
0.0
 10
11.689062
 20
185.550394
 30
0.0
 10
11.118750
 20
185.408210
 30
0.0
 10
10.790625
 20
185.422266
 30
0.0
 10
10.543750
 20
185.655082
 30
0.0
 10
10.260938
 20
186.216018
 30
0.0
 10
10.032813
 20
187.381642
 30
0.0
 10
10.006250
 20
189.125394
 30
0.0
 10
10.432813
 20
193.478522
 30
0.0
 10
11.328125
 20
198.201954
 30
0.0
 10
12.231250
 20
202.005082
 30
0.0
 10
12.234375
 20
202.017578
 30
0.0
 10
12.235938
 20
202.028522
 30
0.0
 10
12.348438
 20
202.745706
 30
0.0
 10
12.262500
 20
203.378522
 30
0.0
 10
11.954687
 20
203.834770
 30
0.0
 10
11.492187
 20
204.147266
 30
0.0
 10
11.123438
 20
204.366018
 30
0.0
 10
10.700000
 20
204.455082
 30
0.0
 10
10.720313
 20
204.455082
 30
0.0
 10
10.701562
 20
204.456642
 30
0.0
 10
10.692187
 20
204.455082
 30
0.0
 10
10.682813
 20
204.456642
 30
0.0
 10
10.682813
 20
204.456642
 30
0.0
  0
LWPOLYLINE
  5
105
100
AcDbEntity
  8
Layer_1
 62
7
100
AcDbPolyline
 90
124
 70
0
 10
-50.959375
 20
201.069146
 30
0.0
 10
-50.959375
 20
201.067578
 30
0.0
 10
-51.071875
 20
200.961330
 30
0.0
 10
-53.031250
 20
200.139458
 30
0.0
 10
-55.160938
 20
199.051954
 30
0.0
 10
-55.162500
 20
199.051954
 30
0.0
 10
-55.164062
 20
199.050394
 30
0.0
 10
-57.189062
 20
197.811330
 30
0.0
 10
-58.809375
 20
196.581642
 30
0.0
 10
-58.814062
 20
196.578522
 30
0.0
 10
-58.817187
 20
196.575394
 30
0.0
 10
-59.468750
 20
195.887898
 30
0.0
 10
-59.751562
 20
195.439458
 30
0.0
 10
-59.871875
 20
194.917578
 30
0.0
 10
-61.001562
 20
188.184770
 30
0.0
 10
-62.204687
 20
180.508210
 30
0.0
 10
-62.204687
 20
180.505082
 30
0.0
 10
-62.204687
 20
180.503522
 30
0.0
 10
-63.404687
 20
172.841018
 30
0.0
 10
-63.404687
 20
172.834770
 30
0.0
 10
-63.406250
 20
172.830082
 30
0.0
 10
-64.598438
 20
165.859770
 30
0.0
 10
-65.214062
 20
163.044146
 30
0.0
 10
-65.826562
 20
160.973834
 30
0.0
 10
-65.828125
 20
160.972266
 30
0.0
 10
-65.828125
 20
160.970706
 30
0.0
 10
-66.465625
 20
159.508210
 30
0.0
 10
-67.253125
 20
158.284770
 30
0.0
 10
-67.854687
 20
157.695706
 30
0.0
 10
-68.660938
 20
157.170706
 30
0.0
 10
-70.937500
 20
156.175394
 30
0.0
 10
-71.318750
 20
155.987898
 30
0.0
 10
-71.628125
 20
155.675394
 30
0.0
 10
-71.771875
 20
155.228522
 30
0.0
 10
-71.712500
 20
154.778522
 30
0.0
 10
-71.712500
 20
154.776954
 30
0.0
 10
-71.446875
 20
154.383210
 30
0.0
 10
-71.057813
 20
154.119146
 30
0.0
 10
-70.579687
 20
153.905082
 30
0.0
 10
-70.067187
 20
153.858210
 30
0.0
 10
-69.909375
 20
153.873834
 30
0.0
 10
-69.784375
 20
153.969146
 30
0.0
 10
-67.800000
 20
155.358210
 30
0.0
 10
-64.696875
 20
156.992578
 30
0.0
 10
-59.906250
 20
159.164458
 30
0.0
 10
-59.904687
 20
159.166018
 30
0.0
 10
-52.621875
 20
161.992578
 30
0.0
 10
-49.917187
 20
162.894146
 30
0.0
 10
-49.903125
 20
162.897266
 30
0.0
 10
-49.889062
 20
162.903522
 30
0.0
 10
-46.956250
 20
163.805082
 30
0.0
 10
-46.942187
 20
163.808210
 30
0.0
 10
-46.929687
 20
163.812890
 30
0.0
 10
-43.946875
 20
164.566018
 30
0.0
 10
-42.548438
 20
164.770706
 30
0.0
 10
-41.270313
 20
164.812890
 30
0.0
 10
-41.253125
 20
164.812890
 30
0.0
 10
-41.237500
 20
164.812890
 30
0.0
 10
-41.020313
 20
164.750394
 30
0.0
 10
-40.993750
 20
164.705082
 30
0.0
 10
-40.957813
 20
164.667578
 30
0.0
 10
-40.643750
 20
164.153522
 30
0.0
 10
-40.381250
 20
163.725394
 30
0.0
 10
-40.046875
 20
163.562890
 30
0.0
 10
-39.657813
 20
163.570706
 30
0.0
 10
-39.328125
 20
163.689458
 30
0.0
 10
-39.287500
 20
164.037898
 30
0.0
 10
-39.315625
 20
166.066018
 30
0.0
 10
-39.346875
 20
167.076954
 30
0.0
 10
-39.492187
 20
167.809770
 30
0.0
 10
-39.831250
 20
168.331642
 30
0.0
 10
-40.354687
 20
168.672266
 30
0.0
 10
-40.975000
 20
168.806642
 30
0.0
 10
-41.671875
 20
168.791018
 30
0.0
 10
-42.734375
 20
168.506642
 30
0.0
 10
-44.040625
 20
168.116018
 30
0.0
 10
-45.420313
 20
167.697266
 30
0.0
 10
-46.396875
 20
167.341018
 30
0.0
 10
-49.534375
 20
166.025394
 30
0.0
 10
-54.514062
 20
163.783210
 30
0.0
 10
-54.500000
 20
163.787898
 30
0.0
 10
-60.087500
 20
161.323834
 30
0.0
 10
-64.226562
 20
159.380082
 30
0.0
 10
-62.895313
 20
161.150394
 30
0.0
 10
-61.725000
 20
163.086330
 30
0.0
 10
-61.725000
 20
163.087898
 30
0.0
 10
-61.112500
 20
164.419146
 30
0.0
 10
-60.575000
 20
165.900394
 30
0.0
 10
-59.715625
 20
169.319146
 30
0.0
 10
-59.714062
 20
169.322266
 30
0.0
 10
-59.714062
 20
169.326954
 30
0.0
 10
-58.931250
 20
173.967578
 30
0.0
 10
-58.932813
 20
173.951954
 30
0.0
 10
-58.056250
 20
178.791018
 30
0.0
 10
-58.054687
 20
178.795706
 30
0.0
 10
-58.054687
 20
178.800394
 30
0.0
 10
-57.321875
 20
183.314458
 30
0.0
 10
-57.320313
 20
183.322266
 30
0.0
 10
-56.642187
 20
187.051954
 30
0.0
 10
-56.640625
 20
187.059770
 30
0.0
 10
-56.639062
 20
187.067578
 30
0.0
 10
-55.893750
 20
190.787898
 30
0.0
 10
-55.892187
 20
190.794146
 30
0.0
 10
-55.892187
 20
190.800394
 30
0.0
 10
-54.973438
 20
194.491018
 30
0.0
 10
-54.970313
 20
194.498834
 30
0.0
 10
-54.112500
 20
197.005082
 30
0.0
 10
-53.901562
 20
197.434770
 30
0.0
 10
-53.589062
 20
197.800394
 30
0.0
 10
-52.603125
 20
198.361330
 30
0.0
 10
-51.300000
 20
198.758210
 30
0.0
 10
-51.295313
 20
198.758210
 30
0.0
 10
-51.290625
 20
198.759770
 30
0.0
 10
-50.267187
 20
198.903522
 30
0.0
 10
-49.989062
 20
198.911330
 30
0.0
 10
-49.825000
 20
199.134770
 30
0.0
 10
-49.642187
 20
199.667578
 30
0.0
 10
-49.720313
 20
200.226954
 30
0.0
 10
-49.826562
 20
200.544146
 30
0.0
 10
-50.035938
 20
200.817578
 30
0.0
 10
-50.368750
 20
201.000394
 30
0.0
 10
-50.723438
 20
201.061330
 30
0.0
 10
-50.959375
 20
201.069146
 30
0.0
 10
-50.959375
 20
201.069146
 30
0.0
  0
LWPOLYLINE
  5
106
100
AcDbEntity
  8
Layer_1
 62
7
100
AcDbPolyline
 90
144
 70
0
 10
-26.376562
 20
191.251954
 30
0.0
 10
-26.376562
 20
191.250394
 30
0.0
 10
-26.501562
 20
191.203522
 30
0.0
 10
-26.964062
 20
190.903522
 30
0.0
 10
-27.296875
 20
190.455082
 30
0.0
 10
-27.793750
 20
189.209770
 30
0.0
 10
-27.798438
 20
189.197266
 30
0.0
 10
-27.801562
 20
189.184770
 30
0.0
 10
-28.450000
 20
185.751954
 30
0.0
 10
-28.448438
 20
185.755082
 30
0.0
 10
-29.515625
 20
178.628522
 30
0.0
 10
-29.517187
 20
178.625394
 30
0.0
 10
-29.517187
 20
178.622266
 30
0.0
 10
-29.906250
 20
176.216018
 30
0.0
 10
-30.271875
 20
174.920706
 30
0.0
 10
-30.284375
 20
174.891018
 30
0.0
 10
-30.295313
 20
174.861330
 30
0.0
 10
-30.825000
 20
173.850394
 30
0.0
 10
-31.790625
 20
172.680082
 30
0.0
 10
-32.789062
 20
171.670706
 30
0.0
 10
-33.509375
 20
171.191018
 30
0.0
 10
-33.756250
 20
171.161330
 30
0.0
 10
-33.937500
 20
171.453522
 30
0.0
 10
-34.120313
 20
172.276954
 30
0.0
 10
-34.164062
 20
173.380082
 30
0.0
 10
-34.056250
 20
174.751954
 30
0.0
 10
-33.784375
 20
176.383210
 30
0.0
 10
-33.784375
 20
176.387898
 30
0.0
 10
-32.018750
 20
185.819146
 30
0.0
 10
-31.993750
 20
185.967578
 30
0.0
 10
-32.045313
 20
186.108210
 30
0.0
 10
-32.235938
 20
186.400394
 30
0.0
 10
-32.551562
 20
186.600394
 30
0.0
 10
-32.879687
 20
186.631642
 30
0.0
 10
-33.154687
 20
186.562890
 30
0.0
 10
-33.992187
 20
186.083210
 30
0.0
 10
-34.950000
 20
185.556642
 30
0.0
 10
-35.045313
 20
185.498834
 30
0.0
 10
-35.110938
 20
185.408210
 30
0.0
 10
-35.482813
 20
184.772266
 30
0.0
 10
-35.765625
 20
184.022266
 30
0.0
 10
-35.775000
 20
183.995706
 30
0.0
 10
-35.781250
 20
183.969146
 30
0.0
 10
-37.715625
 20
175.250394
 30
0.0
 10
-37.715625
 20
175.248834
 30
0.0
 10
-37.715625
 20
175.245706
 30
0.0
 10
-38.014062
 20
173.545706
 30
0.0
 10
-38.150000
 20
172.087898
 30
0.0
 10
-38.110938
 20
170.859770
 30
0.0
 10
-37.879687
 20
169.845706
 30
0.0
 10
-37.306250
 20
168.911330
 30
0.0
 10
-36.896875
 20
168.580082
 30
0.0
 10
-36.415625
 20
168.362890
 30
0.0
 10
-35.370313
 20
168.262890
 30
0.0
 10
-34.240625
 20
168.526954
 30
0.0
 10
-32.698438
 20
169.320706
 30
0.0
 10
-31.356250
 20
170.498834
 30
0.0
 10
-31.348438
 20
170.506642
 30
0.0
 10
-31.342187
 20
170.516018
 30
0.0
 10
-30.746875
 20
171.326954
 30
0.0
 10
-31.957813
 20
164.828522
 30
0.0
 10
-31.957813
 20
164.825394
 30
0.0
 10
-31.957813
 20
164.822266
 30
0.0
 10
-32.920313
 20
160.251954
 30
0.0
 10
-34.046875
 20
155.664458
 30
0.0
 10
-34.048438
 20
155.659770
 30
0.0
 10
-34.048438
 20
155.656642
 30
0.0
 10
-35.262500
 20
151.145706
 30
0.0
 10
-36.643750
 20
146.744146
 30
0.0
 10
-38.214062
 20
142.609770
 30
0.0
 10
-40.003125
 20
138.866018
 30
0.0
 10
-42.079687
 20
135.556642
 30
0.0
 10
-43.198438
 20
134.095706
 30
0.0
 10
-44.371875
 20
132.762890
 30
0.0
 10
-44.373438
 20
132.761330
 30
0.0
 10
-44.375000
 20
132.758210
 30
0.0
 10
-45.620313
 20
131.547266
 30
0.0
 10
-46.928125
 20
130.531642
 30
0.0
 10
-48.301562
 20
129.709770
 30
0.0
 10
-49.740625
 20
129.078522
 30
0.0
 10
-51.475000
 20
128.558210
 30
0.0
 10
-52.964062
 20
128.344146
 30
0.0
 10
-54.210938
 20
128.416018
 30
0.0
 10
-55.221875
 20
128.756642
 30
0.0
 10
-56.110938
 20
129.314458
 30
0.0
 10
-56.831250
 20
129.967578
 30
0.0
 10
-57.392187
 20
130.720706
 30
0.0
 10
-57.800000
 20
131.581642
 30
0.0
 10
-57.800000
 20
131.583210
 30
0.0
 10
-57.890625
 20
131.803522
 30
0.0
 10
-58.110938
 20
132.039458
 30
0.0
 10
-58.609375
 20
132.155082
 30
0.0
 10
-58.978125
 20
131.948834
 30
0.0
 10
-59.192187
 20
131.573834
 30
0.0
 10
-59.245313
 20
131.169146
 30
0.0
 10
-59.106250
 20
130.016018
 30
0.0
 10
-58.767187
 20
128.589458
 30
0.0
 10
-58.160938
 20
127.312890
 30
0.0
 10
-57.370313
 20
126.301954
 30
0.0
 10
-56.404687
 20
125.583210
 30
0.0
 10
-55.273438
 20
125.176954
 30
0.0
 10
-54.134375
 20
125.033210
 30
0.0
 10
-52.984375
 20
125.051954
 30
0.0
 10
-51.831250
 20
125.233210
 30
0.0
 10
-50.676562
 20
125.573834
 30
0.0
 10
-48.832813
 20
126.361330
 30
0.0
 10
-47.101562
 20
127.339458
 30
0.0
 10
-45.482813
 20
128.505082
 30
0.0
 10
-43.979687
 20
129.859770
 30
0.0
 10
-43.978125
 20
129.861330
 30
0.0
 10
-43.976562
 20
129.862890
 30
0.0
 10
-42.618750
 20
131.351954
 30
0.0
 10
-41.334375
 20
132.976954
 30
0.0
 10
-40.125000
 20
134.734770
 30
0.0
 10
-38.987500
 20
136.625394
 30
0.0
 10
-38.985938
 20
136.628522
 30
0.0
 10
-38.984375
 20
136.630082
 30
0.0
 10
-36.993750
 20
140.736330
 30
0.0
 10
-35.262500
 20
145.298834
 30
0.0
 10
-35.260938
 20
145.305082
 30
0.0
 10
-33.725000
 20
150.119146
 30
0.0
 10
-32.360938
 20
155.167578
 30
0.0
 10
-32.359375
 20
155.172266
 30
0.0
 10
-31.110938
 20
160.339458
 30
0.0
 10
-29.968750
 20
165.680082
 30
0.0
 10
-29.965625
 20
165.691018
 30
0.0
 10
-27.587500
 20
176.137898
 30
0.0
 10
-26.385938
 20
180.056642
 30
0.0
 10
-26.381250
 20
180.072266
 30
0.0
 10
-25.178125
 20
183.998834
 30
0.0
 10
-25.176562
 20
184.008210
 30
0.0
 10
-25.173438
 20
184.014458
 30
0.0
 10
-24.371875
 20
187.222266
 30
0.0
 10
-24.370313
 20
187.230082
 30
0.0
 10
-24.368750
 20
187.239458
 30
0.0
 10
-24.189062
 20
188.400394
 30
0.0
 10
-24.160938
 20
188.811330
 30
0.0
 10
-24.235938
 20
189.216018
 30
0.0
 10
-24.589062
 20
189.897266
 30
0.0
 10
-25.101562
 20
190.498834
 30
0.0
 10
-25.621875
 20
190.991018
 30
0.0
 10
-26.243750
 20
191.236330
 30
0.0
 10
-26.376562
 20
191.251954
 30
0.0
 10
-26.376562
 20
191.251954
 30
0.0
  0
LWPOLYLINE
  5
107
100
AcDbEntity
  8
Layer_1
 62
7
100
AcDbPolyline
 90
324
 70
0
 10
216.723440
 20
153.951954
 30
0.0
 10
216.009376
 20
153.787898
 30
0.0
 10
215.257816
 20
153.411330
 30
0.0
 10
214.353128
 20
152.748834
 30
0.0
 10
213.539064
 20
151.903522
 30
0.0
 10
212.814064
 20
150.880082
 30
0.0
 10
212.175000
 20
149.684770
 30
0.0
 10
211.201560
 20
147.134770
 30
0.0
 10
210.582816
 20
144.328522
 30
0.0
 10
210.582816
 20
144.323834
 30
0.0
 10
210.582816
 20
144.319146
 30
0.0
 10
210.303128
 20
141.425394
 30
0.0
 10
210.431248
 20
138.491018
 30
0.0
 10
210.431248
 20
138.486330
 30
0.0
 10
210.431248
 20
138.481642
 30
0.0
 10
210.562496
 20
137.701954
 30
0.0
 10
210.000000
 20
135.517578
 30
0.0
 10
209.295312
 20
133.394146
 30
0.0
 10
208.398440
 20
131.256642
 30
0.0
 10
207.420312
 20
129.350394
 30
0.0
 10
206.409376
 20
127.892578
 30
0.0
 10
205.407816
 20
127.022266
 30
0.0
 10
204.873440
 20
126.775394
 30
0.0
 10
204.548440
 20
126.728522
 30
0.0
 10
204.264064
 20
126.911330
 30
0.0
 10
203.881248
 20
127.408210
 30
0.0
 10
203.435936
 20
128.508210
 30
0.0
 10
203.082816
 20
130.216018
 30
0.0
 10
202.685936
 20
134.573834
 30
0.0
 10
202.685936
 20
134.580082
 30
0.0
 10
202.678128
 20
139.380082
 30
0.0
 10
202.850000
 20
143.284770
 30
0.0
 10
202.850000
 20
143.297266
 30
0.0
 10
202.850000
 20
143.309770
 30
0.0
 10
202.825000
 20
144.036330
 30
0.0
 10
202.620312
 20
144.641018
 30
0.0
 10
202.620312
 20
144.642578
 30
0.0
 10
202.240624
 20
145.020706
 30
0.0
 10
201.740624
 20
145.236330
 30
0.0
 10
201.148440
 20
145.406642
 30
0.0
 10
200.554688
 20
145.278522
 30
0.0
 10
200.193752
 20
144.972266
 30
0.0
 10
199.896872
 20
144.559770
 30
0.0
 10
199.270312
 20
143.370706
 30
0.0
 10
197.854688
 20
140.083210
 30
0.0
 10
197.854688
 20
140.076954
 30
0.0
 10
197.854688
 20
140.070706
 30
0.0
 10
196.332816
 20
135.894146
 30
0.0
 10
196.332816
 20
135.887898
 30
0.0
 10
196.332816
 20
135.883210
 30
0.0
 10
195.915624
 20
134.587898
 30
0.0
 10
195.806248
 20
136.395706
 30
0.0
 10
195.806248
 20
136.401954
 30
0.0
 10
195.798440
 20
138.198834
 30
0.0
 10
195.750000
 20
138.764458
 30
0.0
 10
195.607816
 20
139.234770
 30
0.0
 10
195.607816
 20
139.236330
 30
0.0
 10
195.123440
 20
139.750394
 30
0.0
 10
194.465624
 20
140.045706
 30
0.0
 10
193.745312
 20
140.097266
 30
0.0
 10
193.075000
 20
139.875394
 30
0.0
 10
192.576560
 20
139.362890
 30
0.0
 10
192.385936
 20
138.675394
 30
0.0
 10
192.385936
 20
138.636330
 30
0.0
 10
192.395312
 20
138.598834
 30
0.0
 10
193.025000
 20
133.041018
 30
0.0
 10
193.200000
 20
130.883210
 30
0.0
 10
192.331248
 20
126.747266
 30
0.0
 10
192.331248
 20
126.742578
 30
0.0
 10
192.331248
 20
126.737898
 30
0.0
 10
191.617184
 20
123.962890
 30
0.0
 10
190.818752
 20
121.416018
 30
0.0
 10
189.910936
 20
119.233210
 30
0.0
 10
188.951560
 20
117.394146
 30
0.0
 10
187.948440
 20
116.073831
 30
0.0
 10
186.987504
 20
115.266019
 30
0.0
 10
186.310936
 20
114.967581
 30
0.0
 10
185.939064
 20
114.955081
 30
0.0
 10
185.621872
 20
115.183207
 30
0.0
 10
185.321872
 20
115.570707
 30
0.0
 10
184.928128
 20
116.423831
 30
0.0
 10
184.564064
 20
117.620706
 30
0.0
 10
183.971872
 20
121.009770
 30
0.0
 10
183.603128
 20
125.866018
 30
0.0
 10
183.371872
 20
132.266018
 30
0.0
 10
184.310936
 20
132.758210
 30
0.0
 10
185.543752
 20
133.245706
 30
0.0
 10
185.632816
 20
133.266018
 30
0.0
 10
185.712496
 20
133.312890
 30
0.0
 10
185.937504
 20
133.503522
 30
0.0
 10
186.095312
 20
133.806642
 30
0.0
 10
186.098440
 20
134.147266
 30
0.0
 10
185.990624
 20
134.420706
 30
0.0
 10
185.746872
 20
134.675394
 30
0.0
 10
185.443752
 20
134.816018
 30
0.0
 10
184.867184
 20
134.826954
 30
0.0
 10
184.815624
 20
134.819146
 30
0.0
 10
184.767184
 20
134.800394
 30
0.0
 10
183.603128
 20
134.301954
 30
0.0
 10
183.340624
 20
134.167578
 30
0.0
 10
183.340624
 20
134.630082
 30
0.0
 10
183.476560
 20
135.806642
 30
0.0
 10
183.670312
 20
136.572266
 30
0.0
 10
182.485936
 20
136.478522
 30
0.0
 10
180.703128
 20
134.583210
 30
0.0
 10
180.675000
 20
134.539458
 30
0.0
 10
180.300000
 20
133.631642
 30
0.0
 10
180.253128
 20
132.434770
 30
0.0
 10
178.909376
 20
131.451954
 30
0.0
 10
177.701560
 20
130.297266
 30
0.0
 10
176.639064
 20
128.964458
 30
0.0
 10
175.725000
 20
127.453522
 30
0.0
 10
175.725000
 20
127.451954
 30
0.0
 10
174.901560
 20
125.806642
 30
0.0
 10
174.200000
 20
124.114458
 30
0.0
 10
173.620312
 20
122.376954
 30
0.0
 10
173.164064
 20
120.594146
 30
0.0
 10
172.721872
 20
117.839458
 30
0.0
 10
172.589064
 20
115.173831
 30
0.0
 10
171.645312
 20
112.297269
 30
0.0
 10
171.645312
 20
112.292581
 30
0.0
 10
171.645312
 20
112.286331
 30
0.0
 10
170.795312
 20
110.159769
 30
0.0
 10
169.812496
 20
108.184769
 30
0.0
 10
168.706248
 20
106.672269
 30
0.0
 10
167.526560
 20
105.691019
 30
0.0
 10
166.964064
 20
105.444144
 30
0.0
 10
166.478128
 20
105.389456
 30
0.0
 10
166.103128
 20
105.598831
 30
0.0
 10
165.710936
 20
106.091019
 30
0.0
 10
165.331248
 20
106.941019
 30
0.0
 10
164.959376
 20
108.230081
 30
0.0
 10
164.526560
 20
111.703519
 30
0.0
 10
164.526560
 20
111.708207
 30
0.0
 10
164.526560
 20
111.712894
 30
0.0
 10
164.250000
 20
115.878519
 30
0.0
 10
164.298440
 20
119.980082
 30
0.0
 10
164.281248
 20
119.864458
 30
0.0
 10
164.312496
 20
120.262890
 30
0.0
 10
164.237504
 20
120.655082
 30
0.0
 10
164.068752
 20
121.323834
 30
0.0
 10
163.781248
 20
121.589458
 30
0.0
 10
163.403128
 20
121.701954
 30
0.0
 10
162.825000
 20
121.519146
 30
0.0
 10
162.312496
 20
121.034770
 30
0.0
 10
161.737504
 20
120.258210
 30
0.0
 10
161.198440
 20
119.312890
 30
0.0
 10
160.993752
 20
118.344146
 30
0.0
 10
160.837504
 20
115.180081
 30
0.0
 10
160.837504
 20
115.170707
 30
0.0
 10
160.837504
 20
115.159769
 30
0.0
 10
160.870312
 20
110.891019
 30
0.0
 10
160.870312
 20
110.881643
 30
0.0
 10
160.870312
 20
110.872269
 30
0.0
 10
161.220312
 20
106.662894
 30
0.0
 10
161.220312
 20
106.658207
 30
0.0
 10
161.220312
 20
106.653519
 30
0.0
 10
161.526560
 20
104.912894
 30
0.0
 10
162.043752
 20
103.620707
 30
0.0
 10
162.598440
 20
102.873831
 30
0.0
 10
163.265624
 20
102.344144
 30
0.0
 10
163.309376
 20
102.320707
 30
0.0
 10
163.356248
 20
102.303519
 30
0.0
 10
164.681248
 20
102.037894
 30
0.0
 10
164.701560
 20
102.037894
 30
0.0
 10
164.718752
 20
102.037894
 30
0.0
 10
165.460936
 20
102.125394
 30
0.0
 10
166.171872
 20
102.356643
 30
0.0
 10
167.237504
 20
102.894144
 30
0.0
 10
168.484376
 20
103.814456
 30
0.0
 10
169.698440
 20
105.051956
 30
0.0
 10
170.820312
 20
106.545707
 30
0.0
 10
171.773440
 20
108.226956
 30
0.0
 10
171.773440
 20
108.228519
 30
0.0
 10
172.384376
 20
109.709769
 30
0.0
 10
172.973440
 20
111.344144
 30
0.0
 10
173.329688
 20
110.006643
 30
0.0
 10
173.828128
 20
108.889456
 30
0.0
 10
174.418752
 20
108.170707
 30
0.0
 10
175.182816
 20
107.764456
 30
0.0
 10
176.046872
 20
107.759769
 30
0.0
 10
176.907816
 20
108.112894
 30
0.0
 10
177.967184
 20
109.008207
 30
0.0
 10
178.893752
 20
110.316019
 30
0.0
 10
178.903128
 20
110.325394
 30
0.0
 10
178.910936
 20
110.336331
 30
0.0
 10
179.673440
 20
111.937894
 30
0.0
 10
180.350000
 20
113.673831
 30
0.0
 10
180.350000
 20
113.683207
 30
0.0
 10
180.350000
 20
113.691019
 30
0.0
 10
181.114064
 20
116.717581
 30
0.0
 10
181.568752
 20
114.981643
 30
0.0
 10
182.150000
 20
113.675394
 30
0.0
 10
182.965624
 20
112.678519
 30
0.0
 10
184.012496
 20
112.047269
 30
0.0
 10
184.673440
 20
111.908207
 30
0.0
 10
185.370312
 20
111.956643
 30
0.0
 10
186.093752
 20
112.176956
 30
0.0
 10
186.834376
 20
112.551956
 30
0.0
 10
187.670312
 20
113.139456
 30
0.0
 10
188.456248
 20
113.869144
 30
0.0
 10
189.192184
 20
114.739456
 30
0.0
 10
189.881248
 20
115.745707
 30
0.0
 10
189.881248
 20
115.750394
 30
0.0
 10
191.170312
 20
118.072266
 30
0.0
 10
192.264064
 20
120.698834
 30
0.0
 10
193.003128
 20
123.220706
 30
0.0
 10
192.984376
 20
122.070706
 30
0.0
 10
193.262496
 20
121.151954
 30
0.0
 10
193.262496
 20
121.150394
 30
0.0
 10
194.135936
 20
120.194146
 30
0.0
 10
194.153128
 20
120.178522
 30
0.0
 10
194.170312
 20
120.162890
 30
0.0
 10
194.967184
 20
119.676954
 30
0.0
 10
195.421872
 20
119.600394
 30
0.0
 10
195.889064
 20
119.730082
 30
0.0
 10
196.165624
 20
120.008210
 30
0.0
 10
196.257816
 20
120.283210
 30
0.0
 10
196.329688
 20
120.845706
 30
0.0
 10
196.329688
 20
120.848834
 30
0.0
 10
196.329688
 20
120.851954
 30
0.0
 10
196.321872
 20
125.262890
 30
0.0
 10
196.321872
 20
125.266018
 30
0.0
 10
196.321872
 20
125.283210
 30
0.0
 10
196.357816
 20
129.503522
 30
0.0
 10
196.889064
 20
132.062890
 30
0.0
 10
196.889064
 20
132.070706
 30
0.0
 10
197.832816
 20
135.128522
 30
0.0
 10
197.832816
 20
135.130082
 30
0.0
 10
197.832816
 20
135.131642
 30
0.0
 10
198.887504
 20
138.164458
 30
0.0
 10
199.607816
 20
139.859770
 30
0.0
 10
199.762496
 20
138.148834
 30
0.0
 10
199.817184
 20
136.220706
 30
0.0
 10
199.817184
 20
136.211330
 30
0.0
 10
199.817184
 20
136.201954
 30
0.0
 10
199.904688
 20
131.698834
 30
0.0
 10
199.904688
 20
131.689458
 30
0.0
 10
199.904688
 20
131.680082
 30
0.0
 10
200.215624
 20
127.542578
 30
0.0
 10
200.215624
 20
127.537898
 30
0.0
 10
200.504688
 20
125.820706
 30
0.0
 10
201.040624
 20
124.495706
 30
0.0
 10
201.418752
 20
123.987898
 30
0.0
 10
201.889064
 20
123.620706
 30
0.0
 10
202.446872
 20
123.447266
 30
0.0
 10
203.034376
 20
123.483210
 30
0.0
 10
203.970312
 20
123.733210
 30
0.0
 10
204.876560
 20
124.170706
 30
0.0
 10
205.796872
 20
124.801954
 30
0.0
 10
206.651560
 20
125.553522
 30
0.0
 10
207.440624
 20
126.423834
 30
0.0
 10
208.164064
 20
127.411330
 30
0.0
 10
209.476560
 20
129.601954
 30
0.0
 10
210.570312
 20
131.989458
 30
0.0
 10
210.570312
 20
131.991018
 30
0.0
 10
211.068752
 20
133.397266
 30
0.0
 10
211.493752
 20
134.831642
 30
0.0
 10
212.015624
 20
133.567578
 30
0.0
 10
212.526560
 20
132.847266
 30
0.0
 10
213.112496
 20
132.272266
 30
0.0
 10
213.768752
 20
131.859770
 30
0.0
 10
214.493752
 20
131.620706
 30
0.0
 10
215.265624
 20
131.566018
 30
0.0
 10
216.067184
 20
131.687898
 30
0.0
 10
216.893752
 20
131.975394
 30
0.0
 10
217.743752
 20
132.416018
 30
0.0
 10
219.709376
 20
133.858210
 30
0.0
 10
221.431248
 20
135.686330
 30
0.0
 10
221.431248
 20
135.691018
 30
0.0
 10
221.431248
 20
135.694146
 30
0.0
 10
222.918752
 20
137.870706
 30
0.0
 10
224.176560
 20
140.194146
 30
0.0
 10
224.176560
 20
140.195706
 30
0.0
 10
224.176560
 20
140.197266
 30
0.0
 10
225.220312
 20
142.694146
 30
0.0
 10
226.029688
 20
145.194146
 30
0.0
 10
226.642184
 20
147.683210
 30
0.0
 10
227.056248
 20
149.967578
 30
0.0
 10
227.084376
 20
150.166018
 30
0.0
 10
226.981248
 20
150.339458
 30
0.0
 10
226.564064
 20
150.670706
 30
0.0
 10
226.029688
 20
150.742578
 30
0.0
 10
225.576560
 20
150.539458
 30
0.0
 10
225.339064
 20
150.106642
 30
0.0
 10
225.331248
 20
150.070706
 30
0.0
 10
225.323440
 20
150.033210
 30
0.0
 10
225.045312
 20
148.250394
 30
0.0
 10
224.589064
 20
146.211330
 30
0.0
 10
223.989064
 20
144.169146
 30
0.0
 10
223.214064
 20
142.111330
 30
0.0
 10
223.214064
 20
142.106642
 30
0.0
 10
222.231248
 20
140.180082
 30
0.0
 10
221.082816
 20
138.383210
 30
0.0
 10
221.082816
 20
138.378522
 30
0.0
 10
221.082816
 20
138.375394
 30
0.0
 10
219.864064
 20
136.920706
 30
0.0
 10
218.482816
 20
135.856642
 30
0.0
 10
217.460936
 20
135.436330
 30
0.0
 10
216.614064
 20
135.476954
 30
0.0
 10
215.823440
 20
135.953522
 30
0.0
 10
215.037504
 20
136.959770
 30
0.0
 10
214.368752
 20
138.300394
 30
0.0
 10
213.914064
 20
139.723834
 30
0.0
 10
213.914064
 20
139.728522
 30
0.0
 10
213.914064
 20
139.731642
 30
0.0
 10
213.540624
 20
141.809770
 30
0.0
 10
215.370312
 20
143.094146
 30
0.0
 10
216.814064
 20
144.476954
 30
0.0
 10
216.821872
 20
144.486330
 30
0.0
 10
216.829688
 20
144.494146
 30
0.0
 10
217.914064
 20
146.087898
 30
0.0
 10
218.660936
 20
147.645706
 30
0.0
 10
218.668752
 20
147.655082
 30
0.0
 10
218.668752
 20
147.666018
 30
0.0
 10
219.037504
 20
149.197266
 30
0.0
 10
219.096872
 20
150.626954
 30
0.0
 10
218.939064
 20
151.916018
 30
0.0
 10
218.503128
 20
153.005082
 30
0.0
 10
217.935936
 20
153.606642
 30
0.0
 10
217.170312
 20
153.912890
 30
0.0
 10
216.737504
 20
153.951954
 30
0.0
 10
216.723440
 20
153.951954
 30
0.0
 10
216.723440
 20
153.951954
 30
0.0
  0
LWPOLYLINE
  5
108
100
AcDbEntity
  8
Layer_1
 62
7
100
AcDbPolyline
 90
24
 70
0
 10
215.265624
 20
151.092578
 30
0.0
 10
215.271872
 20
151.091018
 30
0.0
 10
215.407816
 20
151.050394
 30
0.0
 10
215.593752
 20
150.808210
 30
0.0
 10
215.593752
 20
150.806642
 30
0.0
 10
216.007816
 20
149.925394
 30
0.0
 10
216.220312
 20
149.005082
 30
0.0
 10
216.226560
 20
148.030082
 30
0.0
 10
216.031248
 20
146.987898
 30
0.0
 10
215.643752
 20
146.011330
 30
0.0
 10
215.114064
 20
145.169146
 30
0.0
 10
214.435936
 20
144.451954
 30
0.0
 10
213.604688
 20
143.851954
 30
0.0
 10
213.325000
 20
143.684770
 30
0.0
 10
213.273440
 20
145.337898
 30
0.0
 10
213.503128
 20
147.833210
 30
0.0
 10
213.735936
 20
148.916018
 30
0.0
 10
214.056248
 20
149.814458
 30
0.0
 10
214.056248
 20
149.819146
 30
0.0
 10
214.056248
 20
149.825394
 30
0.0
 10
214.468752
 20
150.547266
 30
0.0
 10
214.939064
 20
150.972266
 30
0.0
 10
215.265624
 20
151.092578
 30
0.0
 10
215.265624
 20
151.092578
 30
0.0
  0
LWPOLYLINE
  5
109
100
AcDbEntity
  8
Layer_1
 62
7
100
AcDbPolyline
 90
27
 70
0
 10
161.626560
 20
134.809770
 30
0.0
 10
161.156248
 20
134.733210
 30
0.0
 10
160.715624
 20
134.530082
 30
0.0
 10
160.184376
 20
134.122266
 30
0.0
 10
159.767184
 20
133.608210
 30
0.0
 10
159.467184
 20
133.003522
 30
0.0
 10
159.290624
 20
132.322266
 30
0.0
 10
159.290624
 20
132.308210
 30
0.0
 10
159.290624
 20
132.294146
 30
0.0
 10
159.340624
 20
131.006642
 30
0.0
 10
159.776560
 20
129.858210
 30
0.0
 10
160.165624
 20
129.384770
 30
0.0
 10
160.698440
 20
129.103522
 30
0.0
 10
161.301560
 20
129.098834
 30
0.0
 10
161.868752
 20
129.330082
 30
0.0
 10
162.371872
 20
129.722266
 30
0.0
 10
162.767184
 20
130.222266
 30
0.0
 10
163.051560
 20
130.814458
 30
0.0
 10
163.221872
 20
131.484770
 30
0.0
 10
163.300000
 20
132.820706
 30
0.0
 10
163.173440
 20
133.425394
 30
0.0
 10
162.925000
 20
133.975394
 30
0.0
 10
162.373440
 20
134.569146
 30
0.0
 10
162.020312
 20
134.745706
 30
0.0
 10
161.631248
 20
134.809770
 30
0.0
 10
161.626560
 20
134.809770
 30
0.0
 10
161.626560
 20
134.809770
 30
0.0
  0
LWPOLYLINE
  5
10a
100
AcDbEntity
  8
Layer_1
 62
7
100
AcDbPolyline
 90
28
 70
0
 10
180.300000
 20
130.362890
 30
0.0
 10
180.304688
 20
130.362890
 30
0.0
 10
180.390624
 20
127.026954
 30
0.0
 10
180.356248
 20
122.297266
 30
0.0
 10
180.178128
 20
120.348834
 30
0.0
 10
179.839064
 20
118.442578
 30
0.0
 10
179.839064
 20
118.434770
 30
0.0
 10
179.839064
 20
118.425394
 30
0.0
 10
178.975000
 20
114.997269
 30
0.0
 10
177.876560
 20
112.439456
 30
0.0
 10
177.868752
 20
112.430081
 30
0.0
 10
177.860936
 20
112.422269
 30
0.0
 10
177.470312
 20
111.741019
 30
0.0
 10
177.228128
 20
111.456643
 30
0.0
 10
177.210936
 20
111.483207
 30
0.0
 10
176.734376
 20
112.792581
 30
0.0
 10
176.323440
 20
115.059769
 30
0.0
 10
176.198440
 20
117.900394
 30
0.0
 10
176.375000
 20
120.931642
 30
0.0
 10
176.375000
 20
120.934770
 30
0.0
 10
176.375000
 20
120.939458
 30
0.0
 10
176.870312
 20
124.030082
 30
0.0
 10
177.778128
 20
126.955082
 30
0.0
 10
178.271872
 20
128.001954
 30
0.0
 10
178.864064
 20
128.906642
 30
0.0
 10
179.543752
 20
129.686330
 30
0.0
 10
180.300000
 20
130.362890
 30
0.0
 10
180.300000
 20
130.362890
 30
0.0
  0
LWPOLYLINE
  5
10b
100
AcDbEntity
  8
Layer_1
 62
7
100
AcDbPolyline
 90
94
 70
0
 10
142.489064
 20
127.950394
 30
0.0
 10
141.793752
 20
127.909770
 30
0.0
 10
140.390624
 20
127.737898
 30
0.0
 10
138.965624
 20
127.428522
 30
0.0
 10
136.050000
 20
126.408210
 30
0.0
 10
133.237504
 20
125.081642
 30
0.0
 10
130.493752
 20
123.559770
 30
0.0
 10
127.148440
 20
121.467578
 30
0.0
 10
123.867184
 20
119.320706
 30
0.0
 10
123.853128
 20
119.312890
 30
0.0
 10
123.840624
 20
119.303522
 30
0.0
 10
120.582816
 20
116.986330
 30
0.0
 10
117.428128
 20
115.009769
 30
0.0
 10
116.514064
 20
114.587894
 30
0.0
 10
115.475000
 20
114.348831
 30
0.0
 10
114.571872
 20
114.236331
 30
0.0
 10
114.275000
 20
114.178519
 30
0.0
 10
113.982816
 20
114.070707
 30
0.0
 10
113.707816
 20
113.770707
 30
0.0
 10
113.596872
 20
113.405081
 30
0.0
 10
113.717184
 20
112.800394
 30
0.0
 10
114.017184
 20
112.126956
 30
0.0
 10
114.017184
 20
112.125394
 30
0.0
 10
114.523440
 20
111.536331
 30
0.0
 10
115.198440
 20
111.220707
 30
0.0
 10
115.948440
 20
111.251956
 30
0.0
 10
116.685936
 20
111.570707
 30
0.0
 10
116.693752
 20
111.575394
 30
0.0
 10
116.701560
 20
111.580081
 30
0.0
 10
118.826560
 20
113.062894
 30
0.0
 10
120.812496
 20
114.698831
 30
0.0
 10
122.701560
 20
116.228519
 30
0.0
 10
124.740624
 20
117.583210
 30
0.0
 10
125.012496
 20
113.966019
 30
0.0
 10
125.218752
 20
107.869144
 30
0.0
 10
125.395312
 20
100.703519
 30
0.0
 10
125.395312
 20
100.700394
 30
0.0
 10
125.395312
 20
100.698831
 30
0.0
 10
125.560936
 20
93.730081
 30
0.0
 10
125.560936
 20
93.726956
 30
0.0
 10
125.560936
 20
93.725394
 30
0.0
 10
125.631248
 20
87.997269
 30
0.0
 10
125.631248
 20
87.994144
 30
0.0
 10
125.631248
 20
87.991019
 30
0.0
 10
125.665624
 20
84.666019
 30
0.0
 10
125.665624
 20
84.653519
 30
0.0
 10
125.665624
 20
84.642581
 30
0.0
 10
125.646872
 20
82.081643
 30
0.0
 10
125.242184
 20
79.119144
 30
0.0
 10
125.117184
 20
78.534769
 30
0.0
 10
126.778128
 20
78.270707
 30
0.0
 10
126.942184
 20
78.700394
 30
0.0
 10
127.485936
 20
79.914456
 30
0.0
 10
128.135936
 20
81.011331
 30
0.0
 10
128.785936
 20
81.850394
 30
0.0
 10
129.248440
 20
82.266019
 30
0.0
 10
129.684376
 20
82.434769
 30
0.0
 10
130.373440
 20
82.542581
 30
0.0
 10
133.071872
 20
82.905081
 30
0.0
 10
134.343752
 20
83.253519
 30
0.0
 10
135.562496
 20
83.716019
 30
0.0
 10
137.934376
 20
84.776956
 30
0.0
 10
140.301560
 20
86.072269
 30
0.0
 10
143.114064
 20
87.942581
 30
0.0
 10
145.690624
 20
90.050394
 30
0.0
 10
148.110936
 20
92.400394
 30
0.0
 10
150.218752
 20
95.036331
 30
0.0
 10
151.148440
 20
96.481643
 30
0.0
 10
151.973440
 20
98.017581
 30
0.0
 10
152.693752
 20
99.645707
 30
0.0
 10
153.309376
 20
101.362894
 30
0.0
 10
154.273440
 20
104.955081
 30
0.0
 10
154.778128
 20
108.606643
 30
0.0
 10
154.778128
 20
108.609769
 30
0.0
 10
154.778128
 20
108.612894
 30
0.0
 10
154.776560
 20
112.312894
 30
0.0
 10
154.600000
 20
114.130081
 30
0.0
 10
154.303128
 20
115.926956
 30
0.0
 10
154.303128
 20
115.930081
 30
0.0
 10
153.893752
 20
117.734770
 30
0.0
 10
153.348440
 20
119.450394
 30
0.0
 10
152.665624
 20
121.075394
 30
0.0
 10
151.845312
 20
122.609770
 30
0.0
 10
150.843752
 20
124.083210
 30
0.0
 10
149.743752
 20
125.303522
 30
0.0
 10
148.548440
 20
126.266018
 30
0.0
 10
147.254688
 20
126.961330
 30
0.0
 10
146.110936
 20
127.416018
 30
0.0
 10
144.935936
 20
127.733210
 30
0.0
 10
143.731248
 20
127.911330
 30
0.0
 10
142.500000
 20
127.950394
 30
0.0
 10
142.493752
 20
127.950394
 30
0.0
 10
142.489064
 20
127.950394
 30
0.0
 10
142.489064
 20
127.950394
 30
0.0
  0
LWPOLYLINE
  5
10c
100
AcDbEntity
  8
Layer_1
 62
7
100
AcDbPolyline
 90
60
 70
0
 10
139.500000
 20
124.556642
 30
0.0
 10
139.509376
 20
124.556642
 30
0.0
 10
140.585936
 20
124.526954
 30
0.0
 10
141.570312
 20
124.376954
 30
0.0
 10
141.578128
 20
124.375394
 30
0.0
 10
141.585936
 20
124.375394
 30
0.0
 10
143.384376
 20
123.801954
 30
0.0
 10
144.143752
 20
123.380082
 30
0.0
 10
144.815624
 20
122.867578
 30
0.0
 10
144.823440
 20
122.859770
 30
0.0
 10
144.834376
 20
122.851954
 30
0.0
 10
146.081248
 20
121.653522
 30
0.0
 10
147.060936
 20
120.306642
 30
0.0
 10
148.245312
 20
118.095706
 30
0.0
 10
149.184376
 20
115.834769
 30
0.0
 10
149.882816
 20
113.522269
 30
0.0
 10
150.340624
 20
111.158207
 30
0.0
 10
150.551560
 20
108.809769
 30
0.0
 10
150.550000
 20
106.495707
 30
0.0
 10
150.335936
 20
104.216019
 30
0.0
 10
149.907816
 20
101.969144
 30
0.0
 10
149.256248
 20
99.811331
 30
0.0
 10
148.410936
 20
97.731643
 30
0.0
 10
147.371872
 20
95.728519
 30
0.0
 10
146.137504
 20
93.801956
 30
0.0
 10
144.721872
 20
92.001956
 30
0.0
 10
143.126560
 20
90.369144
 30
0.0
 10
141.353128
 20
88.900394
 30
0.0
 10
139.396872
 20
87.595707
 30
0.0
 10
137.270312
 20
86.526956
 30
0.0
 10
134.996872
 20
85.775394
 30
0.0
 10
134.996872
 20
85.773831
 30
0.0
 10
133.907816
 20
85.569144
 30
0.0
 10
132.882816
 20
85.497269
 30
0.0
 10
131.923440
 20
85.555081
 30
0.0
 10
131.023440
 20
85.737894
 30
0.0
 10
131.015624
 20
85.739456
 30
0.0
 10
131.006248
 20
85.741019
 30
0.0
 10
130.623440
 20
85.892581
 30
0.0
 10
130.450000
 20
86.061331
 30
0.0
 10
130.310936
 20
86.800394
 30
0.0
 10
130.310936
 20
86.803519
 30
0.0
 10
130.310936
 20
86.806643
 30
0.0
 10
129.860936
 20
94.245707
 30
0.0
 10
129.860936
 20
94.248831
 30
0.0
 10
129.860936
 20
94.251956
 30
0.0
 10
129.495312
 20
102.959769
 30
0.0
 10
129.495312
 20
102.969144
 30
0.0
 10
129.403128
 20
111.841019
 30
0.0
 10
129.515624
 20
119.903522
 30
0.0
 10
129.515624
 20
119.912890
 30
0.0
 10
129.515624
 20
119.922266
 30
0.0
 10
129.590624
 20
120.512890
 30
0.0
 10
129.745312
 20
120.767578
 30
0.0
 10
130.943752
 20
121.570706
 30
0.0
 10
134.237504
 20
123.286330
 30
0.0
 10
135.709376
 20
123.855082
 30
0.0
 10
137.064064
 20
124.234770
 30
0.0
 10
139.500000
 20
124.556642
 30
0.0
 10
139.500000
 20
124.556642
 30
0.0
  0
LWPOLYLINE
  5
10d
100
AcDbEntity
  8
Layer_1
 62
7
100
AcDbPolyline
 90
14
 70
0
 10
-31.481250
 20
96.067581
 30
0.0
 10
-31.989062
 20
95.036331
 30
0.0
 10
-33.004687
 20
92.975394
 30
0.0
 10
-64.350000
 20
29.466019
 30
0.0
 10
-137.850000
 20
18.784769
 30
0.0
 10
-84.665624
 20
-33.057419
 30
0.0
 10
-97.220312
 20
-106.258982
 30
0.0
 10
-31.481250
 20
-71.698046
 30
0.0
 10
34.259375
 20
-106.258982
 30
0.0
 10
21.704687
 20
-33.057419
 30
0.0
 10
74.889062
 20
18.784769
 30
0.0
 10
1.389062
 20
29.466019
 30
0.0
 10
-31.481250
 20
96.067581
 30
0.0
 10
-31.481250
 20
96.067581
 30
0.0
  0
LWPOLYLINE
  5
10e
100
AcDbEntity
  8
Layer_1
 62
7
100
AcDbPolyline
 90
12
 70
0
 10
-31.481250
 20
88.381643
 30
0.0
 10
-0.870312
 20
26.355081
 30
0.0
 10
67.578125
 20
16.409769
 30
0.0
 10
18.048438
 20
-31.868357
 30
0.0
 10
29.740625
 20
-100.041790
 30
0.0
 10
-31.481250
 20
-67.854294
 30
0.0
 10
-92.701560
 20
-100.041790
 30
0.0
 10
-81.010936
 20
-31.868357
 30
0.0
 10
-130.539064
 20
16.409769
 30
0.0
 10
-62.092187
 20
26.355081
 30
0.0
 10
-31.481250
 20
88.381643
 30
0.0
 10
-31.481250
 20
88.381643
 30
0.0
  0
LWPOLYLINE
  5
10f
100
AcDbEntity
  8
Layer_1
 62
7
100
AcDbPolyline
 90
14
 70
0
 10
160.000000
 20
44.692581
 30
0.0
 10
159.492184
 20
43.662894
 30
0.0
 10
158.475000
 20
41.603519
 30
0.0
 10
127.129688
 20
-21.908981
 30
0.0
 10
53.631250
 20
-32.588669
 30
0.0
 10
106.815624
 20
-84.430854
 30
0.0
 10
94.259376
 20
-157.632422
 30
0.0
 10
160.000000
 20
-123.071478
 30
0.0
 10
225.740624
 20
-157.632422
 30
0.0
 10
213.184376
 20
-84.430854
 30
0.0
 10
266.368752
 20
-32.590231
 30
0.0
 10
192.870312
 20
-21.908981
 30
0.0
 10
160.000000
 20
44.692581
 30
0.0
 10
160.000000
 20
44.692581
 30
0.0
  0
LWPOLYLINE
  5
110
100
AcDbEntity
  8
Layer_1
 62
7
100
AcDbPolyline
 90
12
 70
0
 10
160.000000
 20
37.005081
 30
0.0
 10
190.610936
 20
-25.018357
 30
0.0
 10
259.060936
 20
-34.963669
 30
0.0
 10
209.529688
 20
-83.243358
 30
0.0
 10
221.223440
 20
-151.415230
 30
0.0
 10
160.000000
 20
-119.229294
 30
0.0
 10
98.776560
 20
-151.415230
 30
0.0
 10
110.470312
 20
-83.243358
 30
0.0
 10
60.939062
 20
-34.963669
 30
0.0
 10
129.389064
 20
-25.018357
 30
0.0
 10
160.000000
 20
37.005081
 30
0.0
 10
160.000000
 20
37.005081
 30
0.0
  0
LWPOLYLINE
  5
111
100
AcDbEntity
  8
Layer_1
 62
7
100
AcDbPolyline
 90
26
 70
0
 10
-1.485938
 20
11.937894
 30
0.0
 10
-1.960938
 20
11.898831
 30
0.0
 10
-2.415625
 20
11.731643
 30
0.0
 10
-2.976562
 20
11.367581
 30
0.0
 10
-3.434375
 20
10.887894
 30
0.0
 10
-3.781250
 20
10.308207
 30
0.0
 10
-4.010938
 20
9.642581
 30
0.0
 10
-4.014062
 20
9.628519
 30
0.0
 10
-4.017188
 20
9.614456
 30
0.0
 10
-4.070312
 20
8.326956
 30
0.0
 10
-3.725000
 20
7.148831
 30
0.0
 10
-3.373438
 20
6.647269
 30
0.0
 10
-2.865625
 20
6.323831
 30
0.0
 10
-2.264062
 20
6.270707
 30
0.0
 10
-1.679688
 20
6.455081
 30
0.0
 10
-1.148438
 20
6.806643
 30
0.0
 10
-0.715625
 20
7.273831
 30
0.0
 10
-0.385938
 20
7.842581
 30
0.0
 10
-0.162500
 20
8.495707
 30
0.0
 10
0.020313
 20
9.820707
 30
0.0
 10
-0.057813
 20
10.433207
 30
0.0
 10
-0.262500
 20
11.001956
 30
0.0
 10
-0.764062
 20
11.639456
 30
0.0
 10
-1.103125
 20
11.842581
 30
0.0
 10
-1.485938
 20
11.937894
 30
0.0
 10
-1.485938
 20
11.937894
 30
0.0
  0
LWPOLYLINE
  5
112
100
AcDbEntity
  8
Layer_1
 62
7
100
AcDbPolyline
 90
188
 70
0
 10
18.084375
 20
9.291019
 30
0.0
 10
18.085938
 20
9.269144
 30
0.0
 10
18.021875
 20
9.286331
 30
0.0
 10
18.020313
 20
9.286331
 30
0.0
 10
17.698438
 20
9.186331
 30
0.0
 10
17.314062
 20
8.909769
 30
0.0
 10
16.985938
 20
8.522269
 30
0.0
 10
16.271875
 20
7.392581
 30
0.0
 10
16.270313
 20
7.389456
 30
0.0
 10
16.267187
 20
7.384769
 30
0.0
 10
14.595313
 20
4.219144
 30
0.0
 10
14.592187
 20
4.212894
 30
0.0
 10
14.589062
 20
4.206643
 30
0.0
 10
12.745313
 20
0.164456
 30
0.0
 10
12.742187
 20
0.158207
 30
0.0
 10
12.740625
 20
0.153519
 30
0.0
 10
12.220313
 20
-1.105856
 30
0.0
 10
12.254687
 20
0.706643
 30
0.0
 10
12.254687
 20
0.712894
 30
0.0
 10
12.390625
 20
2.505081
 30
0.0
 10
12.387500
 20
3.070707
 30
0.0
 10
12.281250
 20
3.551956
 30
0.0
 10
11.839062
 20
4.101956
 30
0.0
 10
11.206250
 20
4.448831
 30
0.0
 10
10.493750
 20
4.558207
 30
0.0
 10
9.807813
 20
4.389456
 30
0.0
 10
9.270313
 20
3.919144
 30
0.0
 10
9.025000
 20
3.248831
 30
0.0
 10
9.021875
 20
3.209769
 30
0.0
 10
9.025000
 20
3.172269
 30
0.0
 10
9.214062
 20
-2.424606
 30
0.0
 10
9.214062
 20
-3.894919
 30
0.0
 10
8.412500
 20
-6.938669
 30
0.0
 10
7.646875
 20
-9.115231
 30
0.0
 10
6.704688
 20
-11.293357
 30
0.0
 10
6.701562
 20
-11.299606
 30
0.0
 10
6.700000
 20
-11.304293
 30
0.0
 10
5.684375
 20
-13.357419
 30
0.0
 10
4.548438
 20
-15.249606
 30
0.0
 10
3.326562
 20
-16.669919
 30
0.0
 10
2.071875
 20
-17.554293
 30
0.0
 10
1.492188
 20
-17.755856
 30
0.0
 10
1.004688
 20
-17.771481
 30
0.0
 10
0.646875
 20
-17.533981
 30
0.0
 10
0.295312
 20
-17.013669
 30
0.0
 10
-0.015625
 20
-16.135544
 30
0.0
 10
-0.284375
 20
-14.823044
 30
0.0
 10
-0.443750
 20
-11.324606
 30
0.0
 10
-0.443750
 20
-11.319919
 30
0.0
 10
-0.443750
 20
-11.315231
 30
0.0
 10
-0.390625
 20
-7.138669
 30
0.0
 10
-0.018750
 20
-3.054293
 30
0.0
 10
-0.043750
 20
-3.168357
 30
0.0
 10
0.018750
 20
-2.766793
 30
0.0
 10
-0.028125
 20
-2.365231
 30
0.0
 10
-0.142188
 20
-1.699606
 30
0.0
 10
-0.142188
 20
-1.698044
 30
0.0
 10
-0.404688
 20
-1.412106
 30
0.0
 10
-0.771875
 20
-1.268357
 30
0.0
 10
-1.367188
 20
-1.402731
 30
0.0
 10
-1.917188
 20
-1.846481
 30
0.0
 10
-2.551562
 20
-2.574606
 30
0.0
 10
-3.164062
 20
-3.474606
 30
0.0
 10
-3.443750
 20
-4.424606
 30
0.0
 10
-3.850000
 20
-7.566793
 30
0.0
 10
-3.851562
 20
-7.576169
 30
0.0
 10
-3.851562
 20
-7.585544
 30
0.0
 10
-4.156250
 20
-11.844919
 30
0.0
 10
-4.157812
 20
-11.852731
 30
0.0
 10
-4.157812
 20
-11.862106
 30
0.0
 10
-4.139062
 20
-16.087106
 30
0.0
 10
-3.971875
 20
-17.852731
 30
0.0
 10
-3.557812
 20
-19.183981
 30
0.0
 10
-3.062500
 20
-19.973044
 30
0.0
 10
-2.439062
 20
-20.554293
 30
0.0
 10
-2.396875
 20
-20.580856
 30
0.0
 10
-2.351562
 20
-20.601169
 30
0.0
 10
-1.053125
 20
-20.971481
 30
0.0
 10
-1.034375
 20
-20.974606
 30
0.0
 10
-1.014062
 20
-20.976169
 30
0.0
 10
-0.267188
 20
-20.946481
 30
0.0
 10
0.459375
 20
-20.771481
 30
0.0
 10
1.564062
 20
-20.319919
 30
0.0
 10
2.879688
 20
-19.501169
 30
0.0
 10
4.187500
 20
-18.363669
 30
0.0
 10
5.423438
 20
-16.962106
 30
0.0
 10
6.507812
 20
-15.360544
 30
0.0
 10
7.609375
 20
-13.237106
 30
0.0
 10
8.692187
 20
-10.760544
 30
0.0
 10
8.471875
 20
-11.766793
 30
0.0
 10
8.471875
 20
-11.769919
 30
0.0
 10
8.468750
 20
-11.771481
 30
0.0
 10
8.278125
 20
-13.180856
 30
0.0
 10
8.329687
 20
-13.768357
 30
0.0
 10
8.504687
 20
-14.290231
 30
0.0
 10
8.504687
 20
-14.291793
 30
0.0
 10
8.507813
 20
-14.291793
 30
0.0
 10
9.301562
 20
-15.312106
 30
0.0
 10
9.315625
 20
-15.329293
 30
0.0
 10
9.332813
 20
-15.346481
 30
0.0
 10
10.087500
 20
-15.893357
 30
0.0
 10
10.534375
 20
-16.005856
 30
0.0
 10
11.010938
 20
-15.915231
 30
0.0
 10
11.309375
 20
-15.660544
 30
0.0
 10
11.423438
 20
-15.391793
 30
0.0
 10
11.539062
 20
-14.835544
 30
0.0
 10
11.542187
 20
-14.832419
 30
0.0
 10
11.542187
 20
-14.830856
 30
0.0
 10
11.885938
 20
-10.412106
 30
0.0
 10
11.885938
 20
-10.432419
 30
0.0
 10
12.256250
 20
-6.210544
 30
0.0
 10
12.993750
 20
-3.687106
 30
0.0
 10
12.995313
 20
-3.680856
 30
0.0
 10
14.173438
 20
-0.718357
 30
0.0
 10
14.173438
 20
-0.716793
 30
0.0
 10
14.175000
 20
-0.715231
 30
0.0
 10
15.465625
 20
2.225394
 30
0.0
 10
16.315625
 20
3.856643
 30
0.0
 10
16.332813
 20
2.137894
 30
0.0
 10
16.237500
 20
0.212894
 30
0.0
 10
16.235938
 20
0.203519
 30
0.0
 10
16.235938
 20
0.195707
 30
0.0
 10
15.968750
 20
-4.301169
 30
0.0
 10
15.967187
 20
-4.308981
 30
0.0
 10
15.967187
 20
-4.318357
 30
0.0
 10
15.948438
 20
-8.469919
 30
0.0
 10
15.948438
 20
-8.471481
 30
0.0
 10
16.100000
 20
-10.205856
 30
0.0
 10
16.529687
 20
-11.568357
 30
0.0
 10
16.865625
 20
-12.105856
 30
0.0
 10
17.304687
 20
-12.510544
 30
0.0
 10
17.846875
 20
-12.729293
 30
0.0
 10
18.435938
 20
-12.738669
 30
0.0
 10
19.389062
 20
-12.562106
 30
0.0
 10
20.328125
 20
-12.198044
 30
0.0
 10
21.295313
 20
-11.643357
 30
0.0
 10
22.206250
 20
-10.962106
 30
0.0
 10
23.060938
 20
-10.157419
 30
0.0
 10
23.859375
 20
-9.232419
 30
0.0
 10
23.864062
 20
-9.227731
 30
0.0
 10
25.345313
 20
-7.148044
 30
0.0
 10
26.625000
 20
-4.852731
 30
0.0
 10
26.625000
 20
-4.848044
 30
0.0
 10
27.756250
 20
-2.355856
 30
0.0
 10
28.651562
 20
0.245707
 30
0.0
 10
29.353125
 20
2.903519
 30
0.0
 10
29.859375
 20
5.426956
 30
0.0
 10
29.926562
 20
5.778519
 30
0.0
 10
29.876562
 20
6.167581
 30
0.0
 10
29.745313
 20
6.401956
 30
0.0
 10
29.512500
 20
6.592581
 30
0.0
 10
29.070313
 20
6.637894
 30
0.0
 10
28.525000
 20
6.480081
 30
0.0
 10
28.285938
 20
6.205081
 30
0.0
 10
28.175000
 20
5.878519
 30
0.0
 10
28.175000
 20
5.872269
 30
0.0
 10
28.175000
 20
5.866019
 30
0.0
 10
27.835938
 20
3.739456
 30
0.0
 10
27.246875
 20
1.387894
 30
0.0
 10
26.445313
 20
-1.027731
 30
0.0
 10
25.467187
 20
-3.352731
 30
0.0
 10
24.404687
 20
-5.412106
 30
0.0
 10
23.276562
 20
-7.235544
 30
0.0
 10
22.153125
 20
-8.607419
 30
0.0
 10
21.087500
 20
-9.396481
 30
0.0
 10
20.535938
 20
-9.601169
 30
0.0
 10
20.209375
 20
-9.623044
 30
0.0
 10
19.939062
 20
-9.418357
 30
0.0
 10
19.596875
 20
-8.893357
 30
0.0
 10
19.595313
 20
-8.893357
 30
0.0
 10
19.239062
 20
-7.758981
 30
0.0
 10
19.021875
 20
-6.027731
 30
0.0
 10
18.971875
 20
-1.655856
 30
0.0
 10
18.971875
 20
-1.654293
 30
0.0
 10
18.971875
 20
-1.648044
 30
0.0
 10
19.346875
 20
3.137894
 30
0.0
 10
19.826562
 20
7.017581
 30
0.0
 10
19.828125
 20
7.030081
 30
0.0
 10
19.829687
 20
7.042581
 30
0.0
 10
19.862500
 20
7.767581
 30
0.0
 10
19.706250
 20
8.386331
 30
0.0
 10
19.350000
 20
8.805081
 30
0.0
 10
18.857813
 20
9.064456
 30
0.0
 10
18.493750
 20
9.223831
 30
0.0
 10
18.089062
 20
9.267581
 30
0.0
 10
18.087500
 20
9.291019
 30
0.0
 10
18.084375
 20
9.291019
 30
0.0
 10
18.084375
 20
9.291019
 30
0.0
  0
LWPOLYLINE
  5
113
100
AcDbEntity
  8
Layer_1
 62
7
100
AcDbPolyline
 90
175
 70
0
 10
-44.970313
 20
-2.937106
 30
0.0
 10
-44.970313
 20
-2.938669
 30
0.0
 10
-45.032813
 20
-2.951169
 30
0.0
 10
-46.154687
 20
-3.155856
 30
0.0
 10
-46.996875
 20
-3.183981
 30
0.0
 10
-47.153125
 20
-3.171481
 30
0.0
 10
-47.643750
 20
-3.413669
 30
0.0
 10
-47.696875
 20
-3.458981
 30
0.0
 10
-48.273438
 20
-4.215231
 30
0.0
 10
-49.185938
 20
-5.707419
 30
0.0
 10
-49.189062
 20
-5.712106
 30
0.0
 10
-49.192187
 20
-5.716793
 30
0.0
 10
-51.571875
 20
-9.929293
 30
0.0
 10
-54.095313
 20
-14.394919
 30
0.0
 10
-54.089062
 20
-14.380856
 30
0.0
 10
-55.842187
 20
-17.288669
 30
0.0
 10
-55.850000
 20
-17.301169
 30
0.0
 10
-55.856250
 20
-17.312106
 30
0.0
 10
-60.320313
 20
-24.868357
 30
0.0
 10
-64.959375
 20
-32.182419
 30
0.0
 10
-64.231250
 20
-22.751169
 30
0.0
 10
-63.410938
 20
-14.327731
 30
0.0
 10
-63.410938
 20
-14.326169
 30
0.0
 10
-63.410938
 20
-14.323044
 30
0.0
 10
-63.317187
 20
-13.932419
 30
0.0
 10
-63.146875
 20
-13.776169
 30
0.0
 10
-63.118750
 20
-13.762106
 30
0.0
 10
-63.092187
 20
-13.744919
 30
0.0
 10
-61.676562
 20
-12.960544
 30
0.0
 10
-61.657813
 20
-12.951169
 30
0.0
 10
-61.639062
 20
-12.938669
 30
0.0
 10
-60.420313
 20
-12.249606
 30
0.0
 10
-60.209375
 20
-12.144919
 30
0.0
 10
-60.134375
 20
-11.923044
 30
0.0
 10
-60.067187
 20
-11.549606
 30
0.0
 10
-60.129687
 20
-11.162106
 30
0.0
 10
-60.329687
 20
-10.827731
 30
0.0
 10
-60.614062
 20
-10.583981
 30
0.0
 10
-60.907813
 20
-10.394919
 30
0.0
 10
-61.209375
 20
-10.573044
 30
0.0
 10
-65.853125
 20
-13.224606
 30
0.0
 10
-69.957813
 20
-15.344919
 30
0.0
 10
-71.028125
 20
-15.874606
 30
0.0
 10
-71.032813
 20
-15.876169
 30
0.0
 10
-71.856250
 20
-16.194919
 30
0.0
 10
-73.879687
 20
-17.021481
 30
0.0
 10
-75.651562
 20
-17.558981
 30
0.0
 10
-76.029687
 20
-17.551169
 30
0.0
 10
-76.146875
 20
-17.433981
 30
0.0
 10
-76.398438
 20
-16.924606
 30
0.0
 10
-76.906250
 20
-17.176169
 30
0.0
 10
-77.156250
 20
-17.373044
 30
0.0
 10
-77.293750
 20
-17.598044
 30
0.0
 10
-77.412500
 20
-17.994919
 30
0.0
 10
-77.582813
 20
-18.888669
 30
0.0
 10
-77.584375
 20
-18.910544
 30
0.0
 10
-77.584375
 20
-18.932419
 30
0.0
 10
-77.550000
 20
-19.766793
 30
0.0
 10
-77.542187
 20
-20.051169
 30
0.0
 10
-77.459375
 20
-20.402731
 30
0.0
 10
-77.457813
 20
-20.402731
 30
0.0
 10
-77.103125
 20
-20.780856
 30
0.0
 10
-76.617187
 20
-20.943357
 30
0.0
 10
-76.151562
 20
-20.883981
 30
0.0
 10
-75.698438
 20
-20.699606
 30
0.0
 10
-72.093750
 20
-18.646481
 30
0.0
 10
-68.631250
 20
-16.691793
 30
0.0
 10
-68.657813
 20
-23.257419
 30
0.0
 10
-68.939062
 20
-30.780856
 30
0.0
 10
-68.939062
 20
-30.785544
 30
0.0
 10
-68.939062
 20
-30.790231
 30
0.0
 10
-69.365625
 20
-38.393357
 30
0.0
 10
-69.967187
 20
-45.637110
 30
0.0
 10
-70.814062
 20
-52.362102
 30
0.0
 10
-70.814062
 20
-52.365230
 30
0.0
 10
-70.815625
 20
-52.366790
 30
0.0
 10
-71.684375
 20
-57.038670
 30
0.0
 10
-71.731250
 20
-57.238670
 30
0.0
 10
-71.640625
 20
-57.423046
 30
0.0
 10
-71.339062
 20
-57.724606
 30
0.0
 10
-70.946875
 20
-57.844918
 30
0.0
 10
-70.345313
 20
-57.680854
 30
0.0
 10
-70.134375
 20
-57.576166
 30
0.0
 10
-70.059375
 20
-57.354294
 30
0.0
 10
-69.232813
 20
-55.894918
 30
0.0
 10
-68.560938
 20
-55.148046
 30
0.0
 10
-67.756250
 20
-54.615230
 30
0.0
 10
-67.156250
 20
-54.318358
 30
0.0
 10
-66.356250
 20
-54.088670
 30
0.0
 10
-65.832813
 20
-53.948046
 30
0.0
 10
-65.950000
 20
-53.419918
 30
0.0
 10
-66.114062
 20
-52.576166
 30
0.0
 10
-66.107813
 20
-51.468358
 30
0.0
 10
-66.104687
 20
-51.444918
 30
0.0
 10
-65.712500
 20
-43.549606
 30
0.0
 10
-65.712500
 20
-43.546478
 30
0.0
 10
-65.178125
 20
-35.112106
 30
0.0
 10
-65.160938
 20
-35.021481
 30
0.0
 10
-60.670313
 20
-37.246481
 30
0.0
 10
-55.937500
 20
-39.435544
 30
0.0
 10
-46.417187
 20
-43.490230
 30
0.0
 10
-46.415625
 20
-43.491790
 30
0.0
 10
-41.695313
 20
-45.163670
 30
0.0
 10
-37.387500
 20
-46.241790
 30
0.0
 10
-37.382813
 20
-46.241790
 30
0.0
 10
-37.379687
 20
-46.243358
 30
0.0
 10
-33.431250
 20
-46.866790
 30
0.0
 10
-29.825000
 20
-47.035542
 30
0.0
 10
-26.570313
 20
-46.813670
 30
0.0
 10
-23.642187
 20
-46.257422
 30
0.0
 10
-21.039062
 20
-45.446478
 30
0.0
 10
-18.696875
 20
-44.448046
 30
0.0
 10
-16.992187
 20
-43.537110
 30
0.0
 10
-15.375000
 20
-42.532419
 30
0.0
 10
-13.848438
 20
-41.437106
 30
0.0
 10
-12.410938
 20
-40.249606
 30
0.0
 10
-12.406250
 20
-40.244919
 30
0.0
 10
-11.054687
 20
-39.035544
 30
0.0
 10
-9.882813
 20
-37.833981
 30
0.0
 10
-8.892187
 20
-36.635544
 30
0.0
 10
-8.084375
 20
-35.438669
 30
0.0
 10
-8.073438
 20
-35.421481
 30
0.0
 10
-8.064062
 20
-35.402731
 30
0.0
 10
-7.898438
 20
-34.963669
 30
0.0
 10
-7.873438
 20
-34.702731
 30
0.0
 10
-7.953125
 20
-34.394919
 30
0.0
 10
-8.253125
 20
-34.013669
 30
0.0
 10
-8.540625
 20
-33.883981
 30
0.0
 10
-8.867187
 20
-33.876169
 30
0.0
 10
-9.320313
 20
-34.116793
 30
0.0
 10
-9.589062
 20
-34.488669
 30
0.0
 10
-9.596875
 20
-34.502731
 30
0.0
 10
-9.604687
 20
-34.516793
 30
0.0
 10
-10.212500
 20
-35.499606
 30
0.0
 10
-10.985938
 20
-36.494919
 30
0.0
 10
-13.034375
 20
-38.526169
 30
0.0
 10
-13.042187
 20
-38.532419
 30
0.0
 10
-13.048438
 20
-38.538669
 30
0.0
 10
-15.470313
 20
-40.454293
 30
0.0
 10
-18.192187
 20
-42.040231
 30
0.0
 10
-20.046875
 20
-42.849606
 30
0.0
 10
-21.835938
 20
-43.412102
 30
0.0
 10
-21.837500
 20
-43.412102
 30
0.0
 10
-23.617187
 20
-43.733982
 30
0.0
 10
-25.581250
 20
-43.882422
 30
0.0
 10
-27.660938
 20
-43.785542
 30
0.0
 10
-29.967187
 20
-43.441790
 30
0.0
 10
-32.598438
 20
-42.848044
 30
0.0
 10
-35.629687
 20
-42.001169
 30
0.0
 10
-35.631250
 20
-42.001169
 30
0.0
 10
-39.903125
 20
-40.668357
 30
0.0
 10
-43.851562
 20
-39.312106
 30
0.0
 10
-47.475000
 20
-37.930856
 30
0.0
 10
-50.773438
 20
-36.526169
 30
0.0
 10
-50.778125
 20
-36.524606
 30
0.0
 10
-61.662500
 20
-31.283981
 30
0.0
 10
-58.598438
 20
-25.888669
 30
0.0
 10
-58.595313
 20
-25.882419
 30
0.0
 10
-58.592187
 20
-25.877731
 30
0.0
 10
-55.539062
 20
-20.719919
 30
0.0
 10
-55.535938
 20
-20.713669
 30
0.0
 10
-50.867187
 20
-13.418357
 30
0.0
 10
-50.864062
 20
-13.413669
 30
0.0
 10
-50.860938
 20
-13.407419
 30
0.0
 10
-47.671875
 20
-8.544919
 30
0.0
 10
-47.665625
 20
-8.537106
 30
0.0
 10
-45.557813
 20
-5.632419
 30
0.0
 10
-44.442187
 20
-4.319919
 30
0.0
 10
-44.332813
 20
-4.221481
 30
0.0
 10
-44.285938
 20
-4.080856
 30
0.0
 10
-44.281250
 20
-3.558981
 30
0.0
 10
-44.526562
 20
-3.107419
 30
0.0
 10
-44.682813
 20
-2.951169
 30
0.0
 10
-44.970313
 20
-2.937106
 30
0.0
 10
-44.970313
 20
-2.937106
 30
0.0
  0
LWPOLYLINE
  5
114
100
AcDbEntity
  8
Layer_1
 62
7
100
AcDbPolyline
 90
186
 70
0
 10
-8.104687
 20
-4.679293
 30
0.0
 10
-8.104687
 20
-4.680856
 30
0.0
 10
-8.131250
 20
-4.685544
 30
0.0
 10
-8.707813
 20
-4.752731
 30
0.0
 10
-9.270313
 20
-4.958981
 30
0.0
 10
-10.256250
 20
-5.621481
 30
0.0
 10
-11.212500
 20
-6.598044
 30
0.0
 10
-11.217187
 20
-6.602731
 30
0.0
 10
-11.220313
 20
-6.608981
 30
0.0
 10
-12.059375
 20
-7.762106
 30
0.0
 10
-12.854687
 20
-9.071481
 30
0.0
 10
-12.857813
 20
-9.077731
 30
0.0
 10
-14.318750
 20
-11.790231
 30
0.0
 10
-14.321875
 20
-11.799606
 30
0.0
 10
-14.326562
 20
-11.807419
 30
0.0
 10
-14.376562
 20
-11.935544
 30
0.0
 10
-14.343750
 20
-10.899606
 30
0.0
 10
-14.325000
 20
-10.305856
 30
0.0
 10
-14.473438
 20
-9.765231
 30
0.0
 10
-14.740625
 20
-9.369919
 30
0.0
 10
-15.096875
 20
-9.058981
 30
0.0
 10
-15.990625
 20
-8.737106
 30
0.0
 10
-16.642187
 20
-8.696481
 30
0.0
 10
-16.885938
 20
-8.693357
 30
0.0
 10
-17.192187
 20
-8.788669
 30
0.0
 10
-17.420313
 20
-8.966793
 30
0.0
 10
-17.523438
 20
-9.144919
 30
0.0
 10
-17.614062
 20
-9.441793
 30
0.0
 10
-17.690625
 20
-10.163669
 30
0.0
 10
-17.692187
 20
-10.188669
 30
0.0
 10
-17.690625
 20
-10.213669
 30
0.0
 10
-17.771875
 20
-12.696481
 30
0.0
 10
-18.109375
 20
-16.690231
 30
0.0
 10
-18.110938
 20
-16.698044
 30
0.0
 10
-18.110938
 20
-16.707419
 30
0.0
 10
-18.304687
 20
-19.851169
 30
0.0
 10
-18.975000
 20
-21.994919
 30
0.0
 10
-18.976562
 20
-21.999606
 30
0.0
 10
-18.978125
 20
-22.005856
 30
0.0
 10
-19.910938
 20
-24.718357
 30
0.0
 10
-20.910938
 20
-27.196481
 30
0.0
 10
-20.912500
 20
-27.201169
 30
0.0
 10
-21.987500
 20
-29.298044
 30
0.0
 10
-23.085938
 20
-31.051169
 30
0.0
 10
-24.190625
 20
-32.288669
 30
0.0
 10
-25.212500
 20
-33.018357
 30
0.0
 10
-25.214062
 20
-33.018357
 30
0.0
 10
-25.909375
 20
-33.262106
 30
0.0
 10
-26.281250
 20
-33.246481
 30
0.0
 10
-26.579687
 20
-32.993357
 30
0.0
 10
-26.848438
 20
-32.585544
 30
0.0
 10
-26.848438
 20
-32.583981
 30
0.0
 10
-27.173438
 20
-31.702731
 30
0.0
 10
-27.442187
 20
-30.479293
 30
0.0
 10
-27.767187
 20
-27.055856
 30
0.0
 10
-27.767187
 20
-27.051169
 30
0.0
 10
-27.767187
 20
-27.049606
 30
0.0
 10
-27.750000
 20
-22.182419
 30
0.0
 10
-27.476562
 20
-15.787106
 30
0.0
 10
-26.498438
 20
-15.369919
 30
0.0
 10
-25.232813
 20
-14.980856
 30
0.0
 10
-25.140625
 20
-14.968357
 30
0.0
 10
-25.059375
 20
-14.927731
 30
0.0
 10
-24.820313
 20
-14.757419
 30
0.0
 10
-24.639062
 20
-14.469919
 30
0.0
 10
-24.606250
 20
-14.129293
 30
0.0
 10
-24.692187
 20
-13.846481
 30
0.0
 10
-24.693750
 20
-13.846481
 30
0.0
 10
-24.915625
 20
-13.573044
 30
0.0
 10
-25.206250
 20
-13.408981
 30
0.0
 10
-25.781250
 20
-13.352731
 30
0.0
 10
-25.832813
 20
-13.355856
 30
0.0
 10
-25.884375
 20
-13.369919
 30
0.0
 10
-27.082813
 20
-13.774606
 30
0.0
 10
-27.354687
 20
-13.887106
 30
0.0
 10
-27.317187
 20
-13.426169
 30
0.0
 10
-27.089062
 20
-12.266793
 30
0.0
 10
-26.837500
 20
-11.524606
 30
0.0
 10
-28.021875
 20
-11.513669
 30
0.0
 10
-29.950000
 20
-13.266793
 30
0.0
 10
-29.981250
 20
-13.307419
 30
0.0
 10
-30.426562
 20
-14.182419
 30
0.0
 10
-30.567187
 20
-15.371481
 30
0.0
 10
-31.982813
 20
-16.243357
 30
0.0
 10
-33.278125
 20
-17.299606
 30
0.0
 10
-34.442187
 20
-18.541793
 30
0.0
 10
-35.471875
 20
-19.976169
 30
0.0
 10
-35.475000
 20
-19.980856
 30
0.0
 10
-36.426562
 20
-21.555856
 30
0.0
 10
-37.259375
 20
-23.187106
 30
0.0
 10
-37.973438
 20
-24.874606
 30
0.0
 10
-38.570313
 20
-26.615231
 30
0.0
 10
-39.360938
 20
-29.994919
 30
0.0
 10
-39.571875
 20
-31.649606
 30
0.0
 10
-39.659375
 20
-33.279293
 30
0.0
 10
-39.629687
 20
-34.802731
 30
0.0
 10
-39.487500
 20
-36.151169
 30
0.0
 10
-39.225000
 20
-37.327731
 30
0.0
 10
-38.834375
 20
-38.335544
 30
0.0
 10
-38.303125
 20
-39.099606
 30
0.0
 10
-37.573438
 20
-39.565231
 30
0.0
 10
-36.710938
 20
-39.638669
 30
0.0
 10
-35.825000
 20
-39.354293
 30
0.0
 10
-34.698438
 20
-38.548044
 30
0.0
 10
-33.668750
 20
-37.316793
 30
0.0
 10
-33.662500
 20
-37.305856
 30
0.0
 10
-33.656250
 20
-37.296481
 30
0.0
 10
-32.770313
 20
-35.758981
 30
0.0
 10
-31.959375
 20
-34.080856
 30
0.0
 10
-31.954687
 20
-34.073044
 30
0.0
 10
-31.951562
 20
-34.065231
 30
0.0
 10
-30.951562
 20
-31.105856
 30
0.0
 10
-30.635938
 20
-32.873044
 30
0.0
 10
-30.159375
 20
-34.223044
 30
0.0
 10
-29.423438
 20
-35.280856
 30
0.0
 10
-28.429687
 20
-35.993357
 30
0.0
 10
-27.781250
 20
-36.185544
 30
0.0
 10
-27.082813
 20
-36.190231
 30
0.0
 10
-26.345313
 20
-36.027731
 30
0.0
 10
-25.576562
 20
-35.712106
 30
0.0
 10
-25.575000
 20
-35.712106
 30
0.0
 10
-24.695313
 20
-35.191793
 30
0.0
 10
-23.854687
 20
-34.526169
 30
0.0
 10
-23.053125
 20
-33.716793
 30
0.0
 10
-22.287500
 20
-32.768357
 30
0.0
 10
-22.285938
 20
-32.765231
 30
0.0
 10
-20.818750
 20
-30.551169
 30
0.0
 10
-19.520313
 20
-28.019919
 30
0.0
 10
-18.664062
 20
-25.769919
 30
0.0
 10
-18.726562
 20
-26.819919
 30
0.0
 10
-18.726562
 20
-26.821481
 30
0.0
 10
-18.726562
 20
-26.826169
 30
0.0
 10
-18.740625
 20
-27.848044
 30
0.0
 10
-18.531250
 20
-28.652731
 30
0.0
 10
-18.318750
 20
-28.930856
 30
0.0
 10
-18.065625
 20
-29.105856
 30
0.0
 10
-17.456250
 20
-29.366793
 30
0.0
 10
-17.435938
 20
-29.374606
 30
0.0
 10
-17.414062
 20
-29.379293
 30
0.0
 10
-16.775000
 20
-29.510544
 30
0.0
 10
-16.515625
 20
-29.544919
 30
0.0
 10
-16.165625
 20
-29.449606
 30
0.0
 10
-15.704687
 20
-29.088669
 30
0.0
 10
-15.557813
 20
-28.782419
 30
0.0
 10
-15.531250
 20
-28.437106
 30
0.0
 10
-15.529687
 20
-28.574606
 30
0.0
 10
-15.187500
 20
-24.541793
 30
0.0
 10
-15.187500
 20
-24.535544
 30
0.0
 10
-15.187500
 20
-24.530856
 30
0.0
 10
-14.887500
 20
-20.676169
 30
0.0
 10
-14.887500
 20
-20.669919
 30
0.0
 10
-14.885938
 20
-20.663669
 30
0.0
 10
-14.376562
 20
-16.890231
 30
0.0
 10
-13.892187
 20
-15.074606
 30
0.0
 10
-13.217187
 20
-13.293357
 30
0.0
 10
-13.212500
 20
-13.283981
 30
0.0
 10
-13.207813
 20
-13.271481
 30
0.0
 10
-12.676562
 20
-12.121481
 30
0.0
 10
-11.970313
 20
-10.960544
 30
0.0
 10
-11.195313
 20
-10.027731
 30
0.0
 10
-10.428125
 20
-9.474606
 30
0.0
 10
-9.795313
 20
-9.219919
 30
0.0
 10
-9.356250
 20
-9.144919
 30
0.0
 10
-8.715625
 20
-9.266793
 30
0.0
 10
-8.643750
 20
-9.304293
 30
0.0
 10
-8.564062
 20
-9.318357
 30
0.0
 10
-8.100000
 20
-9.469919
 30
0.0
 10
-7.793750
 20
-9.615231
 30
0.0
 10
-7.581250
 20
-9.673044
 30
0.0
 10
-7.243750
 20
-9.596481
 30
0.0
 10
-6.835938
 20
-9.198044
 30
0.0
 10
-6.753125
 20
-8.652731
 30
0.0
 10
-6.750000
 20
-8.685544
 30
0.0
 10
-6.707812
 20
-7.435544
 30
0.0
 10
-6.395312
 20
-5.830856
 30
0.0
 10
-6.343750
 20
-5.627731
 30
0.0
 10
-6.435938
 20
-5.438669
 30
0.0
 10
-6.660938
 20
-5.133981
 30
0.0
 10
-6.967188
 20
-4.921481
 30
0.0
 10
-7.717188
 20
-4.730856
 30
0.0
 10
-8.043750
 20
-4.683981
 30
0.0
 10
-8.045313
 20
-4.683981
 30
0.0
 10
-8.071875
 20
-4.683981
 30
0.0
 10
-8.045313
 20
-4.682419
 30
0.0
 10
-8.104687
 20
-4.679293
 30
0.0
 10
-8.104687
 20
-4.679293
 30
0.0
  0
LWPOLYLINE
  5
115
100
AcDbEntity
  8
Layer_1
 62
7
100
AcDbPolyline
 90
5
 70
0
 10
-14.256250
 20
-12.840231
 30
0.0
 10
-14.259375
 20
-12.851169
 30
0.0
 10
-14.265625
 20
-12.862106
 30
0.0
 10
-14.256250
 20
-12.840231
 30
0.0
 10
-14.256250
 20
-12.840231
 30
0.0
  0
LWPOLYLINE
  5
116
100
AcDbEntity
  8
Layer_1
 62
7
100
AcDbPolyline
 90
28
 70
0
 10
-30.664062
 20
-17.444919
 30
0.0
 10
-30.840625
 20
-20.776169
 30
0.0
 10
-31.251562
 20
-25.487106
 30
0.0
 10
-31.582813
 20
-27.415231
 30
0.0
 10
-32.070313
 20
-29.288669
 30
0.0
 10
-32.073438
 20
-29.296481
 30
0.0
 10
-32.075000
 20
-29.305856
 30
0.0
 10
-33.203125
 20
-32.648044
 30
0.0
 10
-33.206250
 20
-32.652731
 30
0.0
 10
-34.501562
 20
-35.118357
 30
0.0
 10
-34.507813
 20
-35.126169
 30
0.0
 10
-34.512500
 20
-35.135544
 30
0.0
 10
-34.956250
 20
-35.782419
 30
0.0
 10
-35.221875
 20
-36.046481
 30
0.0
 10
-35.235938
 20
-36.019919
 30
0.0
 10
-35.607813
 20
-34.677731
 30
0.0
 10
-35.839062
 20
-32.388669
 30
0.0
 10
-35.739062
 20
-29.544919
 30
0.0
 10
-35.323438
 20
-26.535544
 30
0.0
 10
-35.323438
 20
-26.530856
 30
0.0
 10
-35.321875
 20
-26.527731
 30
0.0
 10
-34.585938
 20
-23.485544
 30
0.0
 10
-33.450000
 20
-20.641793
 30
0.0
 10
-32.875000
 20
-19.637106
 30
0.0
 10
-32.212500
 20
-18.783981
 30
0.0
 10
-31.471875
 20
-18.058981
 30
0.0
 10
-30.664062
 20
-17.444919
 30
0.0
 10
-30.664062
 20
-17.444919
 30
0.0
  0
LWPOLYLINE
  5
117
100
AcDbEntity
  8
Layer_1
 62
7
100
AcDbPolyline
 90
84
 70
0
 10
188.575000
 20
-47.263670
 30
0.0
 10
188.035936
 20
-47.290230
 30
0.0
 10
188.035936
 20
-47.455854
 30
0.0
 10
187.103128
 20
-47.788670
 30
0.0
 10
186.192184
 20
-48.440230
 30
0.0
 10
185.368752
 20
-49.277734
 30
0.0
 10
184.632816
 20
-50.293358
 30
0.0
 10
183.981248
 20
-51.482422
 30
0.0
 10
182.981248
 20
-54.023046
 30
0.0
 10
182.332816
 20
-56.821478
 30
0.0
 10
182.332816
 20
-56.829294
 30
0.0
 10
182.332816
 20
-56.832422
 30
0.0
 10
182.021872
 20
-59.721478
 30
0.0
 10
182.118752
 20
-62.655854
 30
0.0
 10
182.118752
 20
-62.660542
 30
0.0
 10
182.118752
 20
-62.663670
 30
0.0
 10
182.337504
 20
-64.048046
 30
0.0
 10
182.664064
 20
-65.330854
 30
0.0
 10
183.100000
 20
-66.515230
 30
0.0
 10
183.643752
 20
-67.594918
 30
0.0
 10
184.146872
 20
-68.321478
 30
0.0
 10
184.725000
 20
-68.901166
 30
0.0
 10
185.378128
 20
-69.321478
 30
0.0
 10
186.100000
 20
-69.568358
 30
0.0
 10
186.871872
 20
-69.630854
 30
0.0
 10
187.673440
 20
-69.518358
 30
0.0
 10
188.504688
 20
-69.240230
 30
0.0
 10
189.359376
 20
-68.808982
 30
0.0
 10
191.337504
 20
-67.388670
 30
0.0
 10
193.078128
 20
-65.577734
 30
0.0
 10
193.078128
 20
-65.573046
 30
0.0
 10
193.078128
 20
-65.569918
 30
0.0
 10
194.589064
 20
-63.410542
 30
0.0
 10
195.871872
 20
-61.099606
 30
0.0
 10
195.871872
 20
-61.098046
 30
0.0
 10
195.871872
 20
-61.094918
 30
0.0
 10
196.942184
 20
-58.610542
 30
0.0
 10
197.778128
 20
-56.118358
 30
0.0
 10
197.778128
 20
-56.116790
 30
0.0
 10
198.417184
 20
-53.635542
 30
0.0
 10
198.853128
 20
-51.355854
 30
0.0
 10
198.882816
 20
-51.157422
 30
0.0
 10
198.781248
 20
-50.983982
 30
0.0
 10
198.367184
 20
-50.646478
 30
0.0
 10
197.834376
 20
-50.569918
 30
0.0
 10
197.378128
 20
-50.771478
 30
0.0
 10
197.139064
 20
-51.199606
 30
0.0
 10
197.129688
 20
-51.235542
 30
0.0
 10
197.121872
 20
-51.273046
 30
0.0
 10
196.825000
 20
-53.051166
 30
0.0
 10
196.346872
 20
-55.085542
 30
0.0
 10
195.725000
 20
-57.124606
 30
0.0
 10
194.926560
 20
-59.179294
 30
0.0
 10
193.923440
 20
-61.093358
 30
0.0
 10
192.754688
 20
-62.877734
 30
0.0
 10
192.754688
 20
-62.880854
 30
0.0
 10
192.754688
 20
-62.885542
 30
0.0
 10
191.520312
 20
-64.327734
 30
0.0
 10
190.128128
 20
-65.376166
 30
0.0
 10
189.101560
 20
-65.785542
 30
0.0
 10
188.254688
 20
-65.735542
 30
0.0
 10
187.468752
 20
-65.251166
 30
0.0
 10
186.693752
 20
-64.238670
 30
0.0
 10
186.040624
 20
-62.891790
 30
0.0
 10
185.601560
 20
-61.462102
 30
0.0
 10
185.601560
 20
-61.457422
 30
0.0
 10
185.601560
 20
-61.454294
 30
0.0
 10
185.248440
 20
-59.371478
 30
0.0
 10
187.092184
 20
-58.105854
 30
0.0
 10
188.551560
 20
-56.737110
 30
0.0
 10
188.559376
 20
-56.729294
 30
0.0
 10
188.567184
 20
-56.719918
 30
0.0
 10
189.668752
 20
-55.138670
 30
0.0
 10
190.432816
 20
-53.588670
 30
0.0
 10
190.432816
 20
-53.577734
 30
0.0
 10
190.432816
 20
-53.568358
 30
0.0
 10
190.818752
 20
-52.041790
 30
0.0
 10
190.892184
 20
-50.612102
 30
0.0
 10
190.748440
 20
-49.321478
 30
0.0
 10
190.323440
 20
-48.227734
 30
0.0
 10
189.760936
 20
-47.619918
 30
0.0
 10
188.998440
 20
-47.304294
 30
0.0
 10
188.575000
 20
-47.263670
 30
0.0
 10
188.575000
 20
-47.263670
 30
0.0
  0
LWPOLYLINE
  5
118
100
AcDbEntity
  8
Layer_1
 62
7
100
AcDbPolyline
 90
23
 70
0
 10
187.087504
 20
-50.107422
 30
0.0
 10
187.092184
 20
-50.108982
 30
0.0
 10
187.226560
 20
-50.151166
 30
0.0
 10
187.409376
 20
-50.394918
 30
0.0
 10
187.815624
 20
-51.280854
 30
0.0
 10
188.017184
 20
-52.204294
 30
0.0
 10
188.014064
 20
-53.180854
 30
0.0
 10
187.807816
 20
-54.219918
 30
0.0
 10
187.409376
 20
-55.191790
 30
0.0
 10
186.870312
 20
-56.029294
 30
0.0
 10
186.185936
 20
-56.740230
 30
0.0
 10
185.348440
 20
-57.330854
 30
0.0
 10
185.065624
 20
-57.494918
 30
0.0
 10
185.032816
 20
-55.840230
 30
0.0
 10
185.290624
 20
-53.348046
 30
0.0
 10
185.534376
 20
-52.266790
 30
0.0
 10
185.864064
 20
-51.371478
 30
0.0
 10
185.864064
 20
-51.366790
 30
0.0
 10
185.864064
 20
-51.360542
 30
0.0
 10
186.285936
 20
-50.643358
 30
0.0
 10
186.759376
 20
-50.223046
 30
0.0
 10
187.087504
 20
-50.107422
 30
0.0
 10
187.087504
 20
-50.107422
 30
0.0
  0
LWPOLYLINE
  5
119
100
AcDbEntity
  8
Layer_1
 62
7
100
AcDbPolyline
 90
27
 70
0
 10
158.654688
 20
-51.027734
 30
0.0
 10
158.182816
 20
-51.099606
 30
0.0
 10
157.740624
 20
-51.298046
 30
0.0
 10
157.206248
 20
-51.699606
 30
0.0
 10
156.781248
 20
-52.208982
 30
0.0
 10
156.475000
 20
-52.812102
 30
0.0
 10
156.292184
 20
-53.490230
 30
0.0
 10
156.292184
 20
-53.504294
 30
0.0
 10
156.292184
 20
-53.519918
 30
0.0
 10
156.326560
 20
-54.807422
 30
0.0
 10
156.750000
 20
-55.958982
 30
0.0
 10
157.134376
 20
-56.435542
 30
0.0
 10
157.664064
 20
-56.723046
 30
0.0
 10
158.267184
 20
-56.735542
 30
0.0
 10
158.839064
 20
-56.510542
 30
0.0
 10
159.346872
 20
-56.123046
 30
0.0
 10
159.746872
 20
-55.626166
 30
0.0
 10
160.037504
 20
-55.037110
 30
0.0
 10
160.214064
 20
-54.368358
 30
0.0
 10
160.304688
 20
-53.035542
 30
0.0
 10
160.182816
 20
-52.430854
 30
0.0
 10
159.940624
 20
-51.877734
 30
0.0
 10
159.396872
 20
-51.276166
 30
0.0
 10
159.046872
 20
-51.096478
 30
0.0
 10
158.657816
 20
-51.027734
 30
0.0
 10
158.654688
 20
-51.027734
 30
0.0
 10
158.654688
 20
-51.027734
 30
0.0
  0
LWPOLYLINE
  5
11a
100
AcDbEntity
  8
Layer_1
 62
7
100
AcDbPolyline
 90
128
 70
0
 10
139.960936
 20
-54.179294
 30
0.0
 10
139.943752
 20
-54.180854
 30
0.0
 10
139.943752
 20
-54.187110
 30
0.0
 10
139.678128
 20
-54.190230
 30
0.0
 10
139.570312
 20
-54.205854
 30
0.0
 10
139.475000
 20
-54.260542
 30
0.0
 10
137.634376
 20
-55.451166
 30
0.0
 10
135.665624
 20
-56.952734
 30
0.0
 10
135.665624
 20
-56.954294
 30
0.0
 10
133.892184
 20
-58.532422
 30
0.0
 10
132.514064
 20
-60.030854
 30
0.0
 10
132.514064
 20
-60.033982
 30
0.0
 10
132.514064
 20
-60.037110
 30
0.0
 10
131.995312
 20
-60.830854
 30
0.0
 10
131.785936
 20
-61.365230
 30
0.0
 10
131.778128
 20
-61.944918
 30
0.0
 10
131.768752
 20
-61.857422
 30
0.0
 10
131.850000
 20
-68.682422
 30
0.0
 10
132.026560
 20
-76.452734
 30
0.0
 10
132.026560
 20
-76.454294
 30
0.0
 10
132.026560
 20
-76.457422
 30
0.0
 10
132.204688
 20
-84.208982
 30
0.0
 10
132.204688
 20
-84.213670
 30
0.0
 10
132.204688
 20
-84.218358
 30
0.0
 10
132.267184
 20
-91.291790
 30
0.0
 10
132.159376
 20
-94.169918
 30
0.0
 10
131.921872
 20
-96.316790
 30
0.0
 10
131.921872
 20
-96.318358
 30
0.0
 10
131.921872
 20
-96.319918
 30
0.0
 10
131.554688
 20
-97.873046
 30
0.0
 10
130.996872
 20
-99.216790
 30
0.0
 10
130.510936
 20
-99.902734
 30
0.0
 10
129.809376
 20
-100.562102
 30
0.0
 10
127.743752
 20
-101.944918
 30
0.0
 10
127.401560
 20
-102.198046
 30
0.0
 10
127.153128
 20
-102.560542
 30
0.0
 10
127.092184
 20
-103.024606
 30
0.0
 10
127.231248
 20
-103.457422
 30
0.0
 10
127.564064
 20
-103.801166
 30
0.0
 10
127.993752
 20
-103.991790
 30
0.0
 10
128.500000
 20
-104.116790
 30
0.0
 10
129.012496
 20
-104.073046
 30
0.0
 10
129.164064
 20
-104.029294
 30
0.0
 10
129.271872
 20
-103.912102
 30
0.0
 10
130.992184
 20
-102.182422
 30
0.0
 10
130.992184
 20
-102.179294
 30
0.0
 10
133.739064
 20
-100.035542
 30
0.0
 10
138.070312
 20
-97.048046
 30
0.0
 10
144.739064
 20
-92.976166
 30
0.0
 10
147.240624
 20
-91.608982
 30
0.0
 10
147.254688
 20
-91.602734
 30
0.0
 10
147.267184
 20
-91.594918
 30
0.0
 10
149.992184
 20
-90.187110
 30
0.0
 10
150.004688
 20
-90.180854
 30
0.0
 10
150.017184
 20
-90.174606
 30
0.0
 10
152.818752
 20
-88.904294
 30
0.0
 10
154.157816
 20
-88.455854
 30
0.0
 10
155.407816
 20
-88.188670
 30
0.0
 10
155.425000
 20
-88.187110
 30
0.0
 10
155.440624
 20
-88.183982
 30
0.0
 10
155.667184
 20
-88.205854
 30
0.0
 10
155.701560
 20
-88.244918
 30
0.0
 10
155.742184
 20
-88.277734
 30
0.0
 10
156.145312
 20
-88.724606
 30
0.0
 10
156.476560
 20
-89.099606
 30
0.0
 10
156.835936
 20
-89.202734
 30
0.0
 10
157.220312
 20
-89.126166
 30
0.0
 10
157.520312
 20
-88.949606
 30
0.0
 10
157.500000
 20
-88.599606
 30
0.0
 10
157.112496
 20
-86.596478
 30
0.0
 10
156.901560
 20
-85.612102
 30
0.0
 10
156.629688
 20
-84.924606
 30
0.0
 10
156.204688
 20
-84.469918
 30
0.0
 10
155.629688
 20
-84.226166
 30
0.0
 10
154.995312
 20
-84.202734
 30
0.0
 10
154.312496
 20
-84.341790
 30
0.0
 10
153.328128
 20
-84.804294
 30
0.0
 10
153.314064
 20
-84.810542
 30
0.0
 10
152.098440
 20
-85.427734
 30
0.0
 10
150.814064
 20
-86.083982
 30
0.0
 10
149.915624
 20
-86.607422
 30
0.0
 10
147.062496
 20
-88.458982
 30
0.0
 10
142.559376
 20
-91.548046
 30
0.0
 10
137.509376
 20
-94.955854
 30
0.0
 10
133.781248
 20
-97.602734
 30
0.0
 10
134.778128
 20
-95.624606
 30
0.0
 10
135.585936
 20
-93.510542
 30
0.0
 10
135.585936
 20
-93.508982
 30
0.0
 10
135.953128
 20
-92.090230
 30
0.0
 10
136.218752
 20
-90.537110
 30
0.0
 10
136.459376
 20
-87.021478
 30
0.0
 10
136.459376
 20
-87.018358
 30
0.0
 10
136.459376
 20
-87.015230
 30
0.0
 10
136.406248
 20
-82.324606
 30
0.0
 10
136.406248
 20
-82.310542
 30
0.0
 10
136.406248
 20
-82.307422
 30
0.0
 10
136.414064
 20
-77.405854
 30
0.0
 10
136.414064
 20
-77.401166
 30
0.0
 10
136.414064
 20
-77.396478
 30
0.0
 10
136.334376
 20
-72.824606
 30
0.0
 10
136.334376
 20
-72.818358
 30
0.0
 10
136.334376
 20
-72.816790
 30
0.0
 10
136.342184
 20
-69.027734
 30
0.0
 10
136.342184
 20
-69.018358
 30
0.0
 10
136.342184
 20
-69.008982
 30
0.0
 10
136.417184
 20
-65.218358
 30
0.0
 10
136.417184
 20
-65.212102
 30
0.0
 10
136.417184
 20
-65.204294
 30
0.0
 10
136.667184
 20
-61.407422
 30
0.0
 10
136.667184
 20
-61.405854
 30
0.0
 10
137.067184
 20
-58.780854
 30
0.0
 10
137.200000
 20
-58.321478
 30
0.0
 10
137.442184
 20
-57.905854
 30
0.0
 10
138.314064
 20
-57.179294
 30
0.0
 10
139.526560
 20
-56.558982
 30
0.0
 10
139.535936
 20
-56.555854
 30
0.0
 10
139.543752
 20
-56.554294
 30
0.0
 10
140.526560
 20
-56.230854
 30
0.0
 10
140.410936
 20
-55.124606
 30
0.0
 10
140.910936
 20
-55.924606
 30
0.0
 10
140.993752
 20
-55.379294
 30
0.0
 10
140.823440
 20
-54.851166
 30
0.0
 10
140.515624
 20
-54.419918
 30
0.0
 10
140.045312
 20
-54.187110
 30
0.0
 10
140.045312
 20
-54.183982
 30
0.0
 10
139.960936
 20
-54.185542
 30
0.0
 10
139.960936
 20
-54.179294
 30
0.0
 10
139.960936
 20
-54.179294
 30
0.0
  0
LWPOLYLINE
  5
11b
100
AcDbEntity
  8
Layer_1
 62
7
100
AcDbPolyline
 90
135
 70
0
 10
175.164064
 20
-55.451166
 30
0.0
 10
175.164064
 20
-55.452734
 30
0.0
 10
174.546872
 20
-55.549606
 30
0.0
 10
173.932816
 20
-55.838670
 30
0.0
 10
172.846872
 20
-56.679294
 30
0.0
 10
171.923440
 20
-57.821478
 30
0.0
 10
171.923440
 20
-57.827734
 30
0.0
 10
171.915624
 20
-57.833982
 30
0.0
 10
171.245312
 20
-59.099606
 30
0.0
 10
170.732816
 20
-60.463670
 30
0.0
 10
170.356248
 20
-61.833982
 30
0.0
 10
170.189064
 20
-63.232422
 30
0.0
 10
170.189064
 20
-63.246478
 30
0.0
 10
170.189064
 20
-63.262102
 30
0.0
 10
170.315624
 20
-64.290230
 30
0.0
 10
170.617184
 20
-65.188670
 30
0.0
 10
170.518752
 20
-65.430854
 30
0.0
 10
170.506248
 20
-65.473046
 30
0.0
 10
170.498440
 20
-65.516790
 30
0.0
 10
169.818752
 20
-69.182422
 30
0.0
 10
169.204688
 20
-71.405854
 30
0.0
 10
168.414064
 20
-73.643358
 30
0.0
 10
168.414064
 20
-73.649606
 30
0.0
 10
168.414064
 20
-73.654294
 30
0.0
 10
167.540624
 20
-75.771478
 30
0.0
 10
166.537504
 20
-77.737110
 30
0.0
 10
165.415624
 20
-79.237110
 30
0.0
 10
164.225000
 20
-80.205854
 30
0.0
 10
163.659376
 20
-80.446478
 30
0.0
 10
163.173440
 20
-80.494918
 30
0.0
 10
162.801560
 20
-80.282422
 30
0.0
 10
162.415624
 20
-79.788670
 30
0.0
 10
162.045312
 20
-78.933982
 30
0.0
 10
161.687504
 20
-77.641790
 30
0.0
 10
161.289064
 20
-74.163670
 30
0.0
 10
161.289064
 20
-74.158982
 30
0.0
 10
161.289064
 20
-74.154294
 30
0.0
 10
161.054688
 20
-69.971478
 30
0.0
 10
161.054688
 20
-69.966790
 30
0.0
 10
161.146872
 20
-65.883982
 30
0.0
 10
161.129688
 20
-66.001166
 30
0.0
 10
161.165624
 20
-65.599606
 30
0.0
 10
161.092184
 20
-65.201166
 30
0.0
 10
160.932816
 20
-64.540230
 30
0.0
 10
160.651560
 20
-64.271478
 30
0.0
 10
160.275000
 20
-64.152734
 30
0.0
 10
159.692184
 20
-64.329294
 30
0.0
 10
159.175000
 20
-64.807422
 30
0.0
 10
158.593752
 20
-65.576166
 30
0.0
 10
158.593752
 20
-65.577734
 30
0.0
 10
158.043752
 20
-66.516790
 30
0.0
 10
157.828128
 20
-67.483982
 30
0.0
 10
157.828128
 20
-67.485542
 30
0.0
 10
157.637504
 20
-70.648046
 30
0.0
 10
157.637504
 20
-70.657422
 30
0.0
 10
157.637504
 20
-70.666790
 30
0.0
 10
157.625000
 20
-74.935542
 30
0.0
 10
157.625000
 20
-74.944918
 30
0.0
 10
157.625000
 20
-74.954294
 30
0.0
 10
157.934376
 20
-79.173046
 30
0.0
 10
157.934376
 20
-79.177734
 30
0.0
 10
158.223440
 20
-80.921478
 30
0.0
 10
158.726560
 20
-82.218358
 30
0.0
 10
159.273440
 20
-82.969918
 30
0.0
 10
159.934376
 20
-83.507422
 30
0.0
 10
159.978128
 20
-83.532422
 30
0.0
 10
160.025000
 20
-83.548046
 30
0.0
 10
161.346872
 20
-83.830854
 30
0.0
 10
161.365624
 20
-83.830854
 30
0.0
 10
161.384376
 20
-83.830854
 30
0.0
 10
162.128128
 20
-83.751166
 30
0.0
 10
162.840624
 20
-83.526166
 30
0.0
 10
163.912496
 20
-82.999606
 30
0.0
 10
165.168752
 20
-82.094918
 30
0.0
 10
166.395312
 20
-80.869918
 30
0.0
 10
167.510936
 20
-79.413670
 30
0.0
 10
168.465624
 20
-77.776166
 30
0.0
 10
169.573440
 20
-78.474606
 30
0.0
 10
170.189064
 20
-78.677734
 30
0.0
 10
170.848440
 20
-78.757422
 30
0.0
 10
171.764064
 20
-78.685542
 30
0.0
 10
172.726560
 20
-78.446478
 30
0.0
 10
173.735936
 20
-78.044918
 30
0.0
 10
174.796872
 20
-77.487110
 30
0.0
 10
175.628128
 20
-76.902734
 30
0.0
 10
176.581248
 20
-76.063670
 30
0.0
 10
176.581248
 20
-76.062102
 30
0.0
 10
177.621872
 20
-74.980854
 30
0.0
 10
178.467184
 20
-73.673046
 30
0.0
 10
179.135936
 20
-72.143358
 30
0.0
 10
179.490624
 20
-70.502734
 30
0.0
 10
179.490624
 20
-70.494918
 30
0.0
 10
179.490624
 20
-70.487110
 30
0.0
 10
179.487504
 20
-69.551166
 30
0.0
 10
179.320312
 20
-68.604294
 30
0.0
 10
178.993752
 20
-67.652734
 30
0.0
 10
178.512496
 20
-66.698046
 30
0.0
 10
177.782816
 20
-65.766790
 30
0.0
 10
176.810936
 20
-65.044918
 30
0.0
 10
174.778128
 20
-63.973046
 30
0.0
 10
174.770312
 20
-63.971478
 30
0.0
 10
174.770312
 20
-63.969918
 30
0.0
 10
172.979688
 20
-63.093358
 30
0.0
 10
172.515624
 20
-62.777734
 30
0.0
 10
172.214064
 20
-62.407422
 30
0.0
 10
171.954688
 20
-61.583982
 30
0.0
 10
172.214064
 20
-60.752734
 30
0.0
 10
172.214064
 20
-60.749606
 30
0.0
 10
172.857816
 20
-59.880854
 30
0.0
 10
173.621872
 20
-59.276166
 30
0.0
 10
174.564064
 20
-58.926166
 30
0.0
 10
174.928128
 20
-58.969918
 30
0.0
 10
175.262496
 20
-59.141790
 30
0.0
 10
175.270312
 20
-59.148046
 30
0.0
 10
175.278128
 20
-59.151166
 30
0.0
 10
175.645312
 20
-59.296478
 30
0.0
 10
175.925000
 20
-59.271478
 30
0.0
 10
176.190624
 20
-59.132422
 30
0.0
 10
176.434376
 20
-58.760542
 30
0.0
 10
176.462496
 20
-58.418358
 30
0.0
 10
176.462496
 20
-58.371478
 30
0.0
 10
176.454688
 20
-58.324606
 30
0.0
 10
176.360936
 20
-57.410542
 30
0.0
 10
176.360936
 20
-57.393358
 30
0.0
 10
176.360936
 20
-57.376166
 30
0.0
 10
176.296872
 20
-56.385542
 30
0.0
 10
176.296872
 20
-56.226166
 30
0.0
 10
176.217184
 20
-56.090230
 30
0.0
 10
175.784376
 20
-55.657422
 30
0.0
 10
175.195312
 20
-55.468358
 30
0.0
 10
175.195312
 20
-55.466790
 30
0.0
 10
175.171872
 20
-55.452734
 30
0.0
 10
175.171872
 20
-55.451166
 30
0.0
 10
175.164064
 20
-55.451166
 30
0.0
 10
175.164064
 20
-55.451166
 30
0.0
  0
LWPOLYLINE
  5
11c
100
AcDbEntity
  8
Layer_1
 62
7
100
AcDbPolyline
 90
6
 70
0
 10
175.870312
 20
-58.196478
 30
0.0
 10
175.898440
 20
-58.204294
 30
0.0
 10
175.912496
 20
-58.213670
 30
0.0
 10
175.871872
 20
-58.201166
 30
0.0
 10
175.870312
 20
-58.196478
 30
0.0
 10
175.870312
 20
-58.196478
 30
0.0
  0
LWPOLYLINE
  5
11d
100
AcDbEntity
  8
Layer_1
 62
7
100
AcDbPolyline
 90
27
 70
0
 10
171.887504
 20
-66.818358
 30
0.0
 10
172.279688
 20
-67.149606
 30
0.0
 10
173.926560
 20
-68.055854
 30
0.0
 10
173.939064
 20
-68.060542
 30
0.0
 10
175.426560
 20
-68.954294
 30
0.0
 10
176.056248
 20
-69.513670
 30
0.0
 10
176.578128
 20
-70.233982
 30
0.0
 10
177.014064
 20
-71.223046
 30
0.0
 10
177.106248
 20
-72.049606
 30
0.0
 10
177.106248
 20
-72.051166
 30
0.0
 10
176.956248
 20
-72.865230
 30
0.0
 10
176.646872
 20
-73.605854
 30
0.0
 10
176.223440
 20
-74.193358
 30
0.0
 10
175.681248
 20
-74.735542
 30
0.0
 10
174.482816
 20
-75.521478
 30
0.0
 10
173.325000
 20
-75.946478
 30
0.0
 10
172.087504
 20
-75.890230
 30
0.0
 10
170.853128
 20
-75.437110
 30
0.0
 10
169.810936
 20
-74.669918
 30
0.0
 10
169.803128
 20
-74.666790
 30
0.0
 10
169.803128
 20
-74.665230
 30
0.0
 10
169.810936
 20
-74.669918
 30
0.0
 10
169.803128
 20
-74.662102
 30
0.0
 10
170.662496
 20
-72.226166
 30
0.0
 10
171.384376
 20
-69.510542
 30
0.0
 10
171.887504
 20
-66.818358
 30
0.0
 10
171.887504
 20
-66.818358
 30
0.0
  0
LWPOLYLINE
  5
11e
100
AcDbEntity
  8
Layer_1
 62
7
100
AcDbPolyline
 90
5
 70
0
 10
169.479688
 20
-74.046478
 30
0.0
 10
169.470312
 20
-74.057422
 30
0.0
 10
169.470312
 20
-74.054294
 30
0.0
 10
169.479688
 20
-74.046478
 30
0.0
 10
169.479688
 20
-74.046478
 30
0.0
  0
ENDSEC
  0
SECTION
  2
OBJECTS
  0
DICTIONARY
  5
C
330
0
100
AcDbDictionary
  3
ACAD_GROUP
350
D
  3
ACAD_MLINESTYLE
350
17
  0
DICTIONARY
  5
D
330
C
100
AcDbDictionary
  0
DICTIONARY
  5
1A
330
C
100
AcDbDictionary
  0
DICTIONARY
  5
17
330
C
100
AcDbDictionary
  3
STANDARD
350
18
  0
DICTIONARY
  5
19
330
C
100
AcDbDictionary
  0
ENDSEC
  0
EOF
