  0
SECTION
  2
HEADER
  9
$ACADVER
  1
AC1014
  9
$HANDSEED
  5
FFFF
  9
$MEASUREMENT
 70
     1
  0
ENDSEC
  0
SECTION
  2
TABLES
  0
TABLE
  2
VPORT
  5
8
330
0
100
AcDbSymbolTable
 70
     4
  0
VPORT
  5
2E
330
8
100
AcDbSymbolTableRecord
100
AcDbViewportTableRecord
  2
*ACTIVE
 70
     0
 10
0.0
 20
0.0
 11
1.0
 21
1.0
 12
210.0
 22
148.5
 13
0.0
 23
0.0
 14
10.0
 24
10.0
 15
10.0
 25
10.0
 16
0.0
 26
0.0
 36
1.0
 17
0.0
 27
0.0
 37
0.0
 40
341.0
 41
1.24
 42
50.0
 43
0.0
 44
0.0
 50
0.0
 51
0.0
 71
     0
 72
   100
 73
     1
 74
     3
 75
     0
 76
     0
 77
     0
 78
     0
  0
ENDTAB
  0
TABLE
  2
LTYPE
  5
5
330
0
100
AcDbSymbolTable
 70
     1
  0
LTYPE
  5
14
330
5
100
AcDbSymbolTableRecord
100
AcDbLinetypeTableRecord
  2
BYBLOCK
 70
     0
  3

 72
    65
 73
     0
 40
0.0
  0
LTYPE
  5
15
330
5
100
AcDbSymbolTableRecord
100
AcDbLinetypeTableRecord
  2
BYLAYER
 70
     0
  3

 72
    65
 73
     0
 40
0.0
  0
LTYPE
  5
16
330
5
100
AcDbSymbolTableRecord
100
AcDbLinetypeTableRecord
  2
CONTINUOUS
 70
     0
  3
Solid line
 72
    65
 73
     0
 40
0.0
  0
ENDTAB
  0
TABLE
  2
LAYER
  5
2
100
AcDbSymbolTable
 70
2
  0
LAYER
  5
50
100
AcDbSymbolTableRecord
100
AcDbLayerTableRecord
  2
0
 70
0
  6
CONTINUOUS
  0
LAYER
  5
51
100
AcDbSymbolTableRecord
100
AcDbLayerTableRecord
  2
Layer_1
 70
0
  6
CONTINUOUS
  0
ENDTAB
  0
TABLE
  2
STYLE
  5
3
330
0
100
AcDbSymbolTable
 70
     1
  0
STYLE
  5
11
330
3
100
AcDbSymbolTableRecord
100
AcDbTextStyleTableRecord
  2
STANDARD
 70
     0
 40
0.0
 41
1.0
 50
0.0
 71
     0
 42
2.5
  3
txt
  4

  0
ENDTAB
  0
TABLE
  2
VIEW
  5
6
330
0
100
AcDbSymbolTable
 70
     0
  0
ENDTAB
  0
TABLE
  2
UCS
  5
7
330
0
100
AcDbSymbolTable
 70
     0
  0
ENDTAB
  0
TABLE
  2
APPID
  5
9
330
0
100
AcDbSymbolTable
 70
     2
  0
APPID
  5
12
330
9
100
AcDbSymbolTableRecord
100
AcDbRegAppTableRecord
  2
ACAD
 70
     0
  0
ENDTAB
  0
TABLE
  2
DIMSTYLE
  5
A
330
0
100
AcDbSymbolTable
 70
     1
  0
DIMSTYLE
105
27
330
A
100
AcDbSymbolTableRecord
100
AcDbDimStyleTableRecord
  2
ISO-25
 70
     0
  3

  4

  5

  6

  7

 40
1.0
 41
2.5
 42
0.625
 43
3.75
 44
1.25
 45
0.0
 46
0.0
 47
0.0
 48
0.0
140
2.5
141
2.5
142
0.0
143
0.03937007874016
144
1.0
145
0.0
146
1.0
147
0.625
 71
     0
 72
     0
 73
     0
 74
     0
 75
     0
 76
     0
 77
     1
 78
     8
170
     0
171
     3
172
     1
173
     0
174
     0
175
     0
176
     0
177
     0
178
     0
270
     2
271
     2
272
     2
273
     2
274
     3
340
11
275
     0
280
     0
281
     0
282
     0
283
     0
284
     8
285
     0
286
     0
287
     3
288
     0
  0
ENDTAB
  0
TABLE
  2
BLOCK_RECORD
  5
1
330
0
100
AcDbSymbolTable
 70
     1
  0
BLOCK_RECORD
  5
1F
330
1
100
AcDbSymbolTableRecord
100
AcDbBlockTableRecord
  2
*MODEL_SPACE
  0
BLOCK_RECORD
  5
1B
330
1
100
AcDbSymbolTableRecord
100
AcDbBlockTableRecord
  2
*PAPER_SPACE
  0
ENDTAB
  0
ENDSEC
  0
SECTION
  2
BLOCKS
  0
BLOCK
  5
20
330
1F
100
AcDbEntity
  8
0
100
AcDbBlockBegin
  2
*MODEL_SPACE
 70
     0
 10
0.0
 20
0.0
 30
0.0
  3
*MODEL_SPACE
  1

  0
ENDBLK
  5
21
330
1F
100
AcDbEntity
  8
0
100
AcDbBlockEnd
  0
BLOCK
  5
1C
330
1B
100
AcDbEntity
 67
     1
  8
0
100
AcDbBlockBegin
  2
*PAPER_SPACE
  1

  0
ENDBLK
  5
1D
330
1B
100
AcDbEntity
 67
     1
  8
0
100
AcDbBlockEnd
  0
ENDSEC
  0
SECTION
  2
ENTITIES
  0
LWPOLYLINE
  5
100
100
AcDbEntity
  8
Layer_1
 62
7
100
AcDbPolyline
 90
30
 70
0
 10
3.200000
 20
36.850394
 30
0.0
 10
2.553510
 20
36.785607
 30
0.0
 10
1.952096
 20
36.599695
 30
0.0
 10
0.935196
 20
35.915197
 30
0.0
 10
0.250699
 20
34.898298
 30
0.0
 10
0.064787
 20
34.296884
 30
0.0
 10
0.000000
 20
33.650394
 30
0.0
 10
0.000000
 20
3.200394
 30
0.0
 10
0.064787
 20
2.553903
 30
0.0
 10
0.250699
 20
1.952490
 30
0.0
 10
0.935196
 20
0.935590
 30
0.0
 10
1.952096
 20
0.251092
 30
0.0
 10
2.553510
 20
0.065181
 30
0.0
 10
3.200000
 20
0.000394
 30
0.0
 10
132.862496
 20
0.000394
 30
0.0
 10
133.508988
 20
0.065181
 30
0.0
 10
134.110403
 20
0.251092
 30
0.0
 10
135.127302
 20
0.935590
 30
0.0
 10
135.811798
 20
1.952490
 30
0.0
 10
135.997709
 20
2.553903
 30
0.0
 10
136.062496
 20
3.200394
 30
0.0
 10
136.062496
 20
33.650394
 30
0.0
 10
135.997709
 20
34.296884
 30
0.0
 10
135.811798
 20
34.898298
 30
0.0
 10
135.127302
 20
35.915197
 30
0.0
 10
134.110403
 20
36.599695
 30
0.0
 10
133.508988
 20
36.785607
 30
0.0
 10
132.862496
 20
36.850394
 30
0.0
 10
3.200000
 20
36.850394
 30
0.0
 10
3.200000
 20
36.850394
 30
0.0
  0
LWPOLYLINE
  5
101
100
AcDbEntity
  8
Layer_1
 62
7
100
AcDbPolyline
 90
6
 70
0
 10
25.720313
 20
34.155081
 30
0.0
 10
133.143752
 20
34.155081
 30
0.0
 10
133.143752
 20
2.647269
 30
0.0
 10
25.720313
 20
2.647269
 30
0.0
 10
25.720313
 20
34.155081
 30
0.0
 10
25.720313
 20
34.155081
 30
0.0
  0
LWPOLYLINE
  5
102
100
AcDbEntity
  8
Layer_1
 62
7
100
AcDbPolyline
 90
27
 70
0
 10
13.134375
 20
34.123831
 30
0.0
 10
20.385938
 20
34.098831
 30
0.0
 10
20.800000
 20
33.859769
 30
0.0
 10
21.456250
 20
33.220706
 30
0.0
 10
21.698438
 20
32.817581
 30
0.0
 10
21.714062
 20
18.634769
 30
0.0
 10
21.704762
 20
7.357091
 30
0.0
 10
21.612500
 20
4.028519
 30
0.0
 10
21.418373
 20
3.606967
 30
0.0
 10
21.101065
 20
3.241768
 30
0.0
 10
20.693381
 20
2.962132
 30
0.0
 10
20.228125
 20
2.797269
 30
0.0
 10
12.562500
 20
2.728519
 30
0.0
 10
6.219885
 20
2.771953
 30
0.0
 10
5.323299
 20
2.828685
 30
0.0
 10
5.006250
 20
2.934769
 30
0.0
 10
4.471467
 20
3.320447
 30
0.0
 10
4.135938
 20
3.836331
 30
0.0
 10
4.023744
 20
6.771083
 30
0.0
 10
4.001562
 20
18.466019
 30
0.0
 10
4.023398
 20
30.629670
 30
0.0
 10
4.074028
 20
32.548455
 30
0.0
 10
4.171875
 20
33.112894
 30
0.0
 10
4.698641
 20
33.718469
 30
0.0
 10
5.437500
 20
34.059769
 30
0.0
 10
13.134375
 20
34.123831
 30
0.0
 10
13.134375
 20
34.123831
 30
0.0
  0
LWPOLYLINE
  5
103
100
AcDbEntity
  8
Layer_1
 62
7
100
AcDbPolyline
 90
18
 70
0
 10
29.868750
 20
32.156644
 30
0.0
 10
29.954687
 20
30.811331
 30
0.0
 10
30.040625
 20
29.466019
 30
0.0
 10
32.237500
 20
29.381644
 30
0.0
 10
34.431250
 20
29.298831
 30
0.0
 10
34.431250
 20
24.634769
 30
0.0
 10
34.431250
 20
19.972269
 30
0.0
 10
36.271875
 20
19.972269
 30
0.0
 10
38.112500
 20
19.972269
 30
0.0
 10
38.112500
 20
24.647269
 30
0.0
 10
38.112500
 20
29.322269
 30
0.0
 10
40.518750
 20
29.322269
 30
0.0
 10
42.926562
 20
29.322269
 30
0.0
 10
42.926562
 20
30.739456
 30
0.0
 10
42.926562
 20
32.156644
 30
0.0
 10
36.398438
 20
32.156644
 30
0.0
 10
29.868750
 20
32.156644
 30
0.0
 10
29.868750
 20
32.156644
 30
0.0
  0
LWPOLYLINE
  5
104
100
AcDbEntity
  8
Layer_1
 62
7
100
AcDbPolyline
 90
45
 70
0
 10
52.898438
 20
32.156644
 30
0.0
 10
49.391010
 20
32.050770
 30
0.0
 10
48.499664
 20
31.851647
 30
0.0
 10
47.714062
 20
31.495706
 30
0.0
 10
46.787367
 20
30.868092
 30
0.0
 10
46.013829
 20
30.064464
 30
0.0
 10
45.404110
 20
29.118849
 30
0.0
 10
44.968870
 20
28.065275
 30
0.0
 10
44.718772
 20
26.937771
 30
0.0
 10
44.664476
 20
25.770364
 30
0.0
 10
44.816644
 20
24.597083
 30
0.0
 10
45.185938
 20
23.451956
 30
0.0
 10
45.762480
 20
22.323042
 30
0.0
 10
46.422016
 20
21.472792
 30
0.0
 10
47.219373
 20
20.845718
 30
0.0
 10
48.209375
 20
20.386331
 30
0.0
 10
49.986862
 20
20.094110
 30
0.0
 10
53.067187
 20
19.984769
 30
0.0
 10
56.834375
 20
19.972269
 30
0.0
 10
56.748438
 20
21.317581
 30
0.0
 10
56.662500
 20
22.664456
 30
0.0
 10
53.362500
 20
22.806643
 30
0.0
 10
50.579975
 20
23.023487
 30
0.0
 10
49.901570
 20
23.208923
 30
0.0
 10
49.468750
 20
23.486331
 30
0.0
 10
48.875000
 20
24.258207
 30
0.0
 10
50.018805
 20
24.445157
 30
0.0
 10
52.768750
 20
24.569144
 30
0.0
 10
56.662500
 20
24.647269
 30
0.0
 10
56.748438
 20
25.992581
 30
0.0
 10
56.834375
 20
27.339456
 30
0.0
 10
52.854687
 20
27.339456
 30
0.0
 10
50.395641
 20
27.372186
 30
0.0
 10
49.156904
 20
27.534419
 30
0.0
 10
48.911920
 20
27.694118
 30
0.0
 10
48.872136
 20
27.922217
 30
0.0
 10
49.275000
 20
28.631643
 30
0.0
 10
49.603645
 20
28.923821
 30
0.0
 10
50.214625
 20
29.109979
 30
0.0
 10
53.168750
 20
29.322269
 30
0.0
 10
56.662500
 20
29.466019
 30
0.0
 10
56.748438
 20
30.811331
 30
0.0
 10
56.834375
 20
32.156644
 30
0.0
 10
52.898438
 20
32.156644
 30
0.0
 10
52.898438
 20
32.156644
 30
0.0
  0
LWPOLYLINE
  5
105
100
AcDbEntity
  8
Layer_1
 62
7
100
AcDbPolyline
 90
61
 70
0
 10
83.837504
 20
32.156644
 30
0.0
 10
80.434500
 20
32.097783
 30
0.0
 10
78.342051
 20
31.853458
 30
0.0
 10
77.651439
 20
31.629992
 30
0.0
 10
77.125452
 20
31.322054
 30
0.0
 10
76.709752
 20
30.916943
 30
0.0
 10
76.350000
 20
30.401956
 30
0.0
 10
75.999419
 20
29.674646
 30
0.0
 10
75.814293
 20
28.934602
 30
0.0
 10
75.788735
 20
28.201691
 30
0.0
 10
75.916859
 20
27.495778
 30
0.0
 10
76.192777
 20
26.836732
 30
0.0
 10
76.610604
 20
26.244419
 30
0.0
 10
77.164453
 20
25.738704
 30
0.0
 10
77.848438
 20
25.339456
 30
0.0
 10
79.337114
 20
24.919185
 30
0.0
 10
81.581248
 20
24.791019
 30
0.0
 10
83.399733
 20
24.750736
 30
0.0
 10
84.565808
 20
24.627845
 30
0.0
 10
85.227103
 20
24.393181
 30
0.0
 10
85.531248
 20
24.017581
 30
0.0
 10
85.622323
 20
23.669330
 30
0.0
 10
85.577786
 20
23.393112
 30
0.0
 10
85.366131
 20
23.181037
 30
0.0
 10
84.955854
 20
23.025214
 30
0.0
 10
83.413418
 20
22.850766
 30
0.0
 10
80.698440
 20
22.806643
 30
0.0
 10
76.342187
 20
22.806643
 30
0.0
 10
76.342187
 20
21.387894
 30
0.0
 10
76.342187
 20
19.972269
 30
0.0
 10
81.595312
 20
19.972269
 30
0.0
 10
85.092983
 20
20.022757
 30
0.0
 10
87.166196
 20
20.255731
 30
0.0
 10
87.829505
 20
20.478859
 30
0.0
 10
88.329749
 20
20.793458
 30
0.0
 10
89.098440
 20
21.758207
 30
0.0
 10
89.430954
 20
22.465337
 30
0.0
 10
89.604900
 20
23.209511
 30
0.0
 10
89.627422
 20
23.963935
 30
0.0
 10
89.505666
 20
24.701812
 30
0.0
 10
89.246776
 20
25.396348
 30
0.0
 10
88.857897
 20
26.020747
 30
0.0
 10
88.346174
 20
26.548215
 30
0.0
 10
87.718752
 20
26.951956
 30
0.0
 10
87.065742
 20
27.192041
 30
0.0
 10
86.189490
 20
27.369189
 30
0.0
 10
83.503128
 20
27.572269
 30
0.0
 10
81.504347
 20
27.695827
 30
0.0
 10
80.314828
 20
27.925838
 30
0.0
 10
79.982808
 20
28.095523
 30
0.0
 10
79.804223
 20
28.309533
 30
0.0
 10
79.762781
 20
28.573772
 30
0.0
 10
79.842187
 20
28.894144
 30
0.0
 10
80.097762
 20
29.111715
 30
0.0
 10
80.801278
 20
29.242141
 30
0.0
 10
84.406248
 20
29.322269
 30
0.0
 10
88.803128
 20
29.322269
 30
0.0
 10
88.803128
 20
30.739456
 30
0.0
 10
88.803128
 20
32.156644
 30
0.0
 10
83.837504
 20
32.156644
 30
0.0
 10
83.837504
 20
32.156644
 30
0.0
  0
LWPOLYLINE
  5
106
100
AcDbEntity
  8
Layer_1
 62
7
100
AcDbPolyline
 90
10
 70
0
 10
92.767184
 20
32.156644
 30
0.0
 10
92.767184
 20
26.064456
 30
0.0
 10
92.767184
 20
19.972269
 30
0.0
 10
94.609376
 20
19.972269
 30
0.0
 10
96.450000
 20
19.972269
 30
0.0
 10
96.450000
 20
26.064456
 30
0.0
 10
96.450000
 20
32.156644
 30
0.0
 10
94.609376
 20
32.156644
 30
0.0
 10
92.767184
 20
32.156644
 30
0.0
 10
92.767184
 20
32.156644
 30
0.0
  0
LWPOLYLINE
  5
107
100
AcDbEntity
  8
Layer_1
 62
7
100
AcDbPolyline
 90
43
 70
0
 10
107.909376
 20
32.156644
 30
0.0
 10
104.795630
 20
32.062328
 30
0.0
 10
103.165624
 20
31.772269
 30
0.0
 10
102.334312
 20
31.299160
 30
0.0
 10
101.510154
 20
30.613810
 30
0.0
 10
100.769982
 20
29.790502
 30
0.0
 10
100.190624
 20
28.903519
 30
0.0
 10
99.843882
 20
27.683268
 30
0.0
 10
99.732360
 20
26.052170
 30
0.0
 10
99.854659
 20
24.418230
 30
0.0
 10
100.209376
 20
23.189456
 30
0.0
 10
100.827036
 20
22.245942
 30
0.0
 10
101.599460
 20
21.406832
 30
0.0
 10
102.447154
 20
20.745362
 30
0.0
 10
103.290624
 20
20.334769
 30
0.0
 10
105.061294
 20
20.111816
 30
0.0
 10
107.989064
 20
20.001956
 30
0.0
 10
111.740624
 20
19.972269
 30
0.0
 10
111.740624
 20
21.364456
 30
0.0
 10
111.740624
 20
22.759769
 30
0.0
 10
108.317184
 20
22.853519
 30
0.0
 10
105.302201
 20
23.035420
 30
0.0
 10
104.716956
 20
23.258303
 30
0.0
 10
104.320312
 20
23.655081
 30
0.0
 10
103.746872
 20
24.364456
 30
0.0
 10
107.743752
 20
24.442581
 30
0.0
 10
111.740624
 20
24.520707
 30
0.0
 10
111.740624
 20
25.930081
 30
0.0
 10
111.740624
 20
27.339456
 30
0.0
 10
107.934376
 20
27.339456
 30
0.0
 10
105.448555
 20
27.389780
 30
0.0
 10
104.158460
 20
27.583811
 30
0.0
 10
103.909089
 20
27.754899
 30
0.0
 10
103.895385
 20
27.986132
 30
0.0
 10
104.490624
 20
28.661331
 30
0.0
 10
104.996050
 20
29.022095
 30
0.0
 10
105.640702
 20
29.220682
 30
0.0
 10
108.500000
 20
29.322269
 30
0.0
 10
111.740624
 20
29.322269
 30
0.0
 10
111.740624
 20
30.739456
 30
0.0
 10
111.740624
 20
32.156644
 30
0.0
 10
107.909376
 20
32.156644
 30
0.0
 10
107.909376
 20
32.156644
 30
0.0
  0
LWPOLYLINE
  5
108
100
AcDbEntity
  8
Layer_1
 62
7
100
AcDbPolyline
 90
39
 70
0
 10
115.139064
 20
32.156644
 30
0.0
 10
115.139064
 20
26.064456
 30
0.0
 10
115.139064
 20
19.972269
 30
0.0
 10
116.981248
 20
19.972269
 30
0.0
 10
118.821872
 20
19.972269
 30
0.0
 10
118.821872
 20
22.128519
 30
0.0
 10
118.821872
 20
24.284769
 30
0.0
 10
120.976560
 20
24.175394
 30
0.0
 10
122.534271
 20
24.002665
 30
0.0
 10
123.077207
 20
23.831983
 30
0.0
 10
123.492242
 20
23.580746
 30
0.0
 10
123.801411
 20
23.230696
 30
0.0
 10
124.026748
 20
22.763573
 30
0.0
 10
124.314064
 20
21.405081
 30
0.0
 10
124.504688
 20
19.972269
 30
0.0
 10
126.639064
 20
19.972269
 30
0.0
 10
128.393710
 20
20.055533
 30
0.0
 10
128.641704
 20
20.205687
 30
0.0
 10
128.635936
 20
20.469144
 30
0.0
 10
128.314064
 20
22.308207
 30
0.0
 10
127.982814
 20
23.529310
 30
0.0
 10
127.390624
 20
24.534769
 30
0.0
 10
126.846362
 20
25.317011
 30
0.0
 10
126.891610
 20
25.514249
 30
0.0
 10
127.125000
 20
25.683207
 30
0.0
 10
127.547140
 20
26.011706
 30
0.0
 10
127.891030
 20
26.464005
 30
0.0
 10
128.322284
 20
27.627901
 30
0.0
 10
128.375208
 20
28.950700
 30
0.0
 10
128.246186
 20
29.601627
 30
0.0
 10
128.006248
 20
30.208206
 30
0.0
 10
127.664281
 20
30.753139
 30
0.0
 10
127.231394
 20
31.189214
 30
0.0
 10
126.661916
 20
31.527694
 30
0.0
 10
125.910176
 20
31.779843
 30
0.0
 10
123.677228
 20
32.070200
 30
0.0
 10
120.167184
 20
32.150394
 30
0.0
 10
115.139064
 20
32.156644
 30
0.0
 10
115.139064
 20
32.156644
 30
0.0
  0
LWPOLYLINE
  5
109
100
AcDbEntity
  8
Layer_1
 62
7
100
AcDbPolyline
 90
61
 70
0
 10
65.571875
 20
32.109769
 30
0.0
 10
63.124834
 20
32.034401
 30
0.0
 10
61.567072
 20
31.768942
 30
0.0
 10
60.600383
 20
31.246943
 30
0.0
 10
59.926562
 20
30.401956
 30
0.0
 10
59.576763
 20
29.661010
 30
0.0
 10
59.403312
 20
28.899954
 30
0.0
 10
59.398391
 20
28.142561
 30
0.0
 10
59.554184
 20
27.412604
 30
0.0
 10
59.862871
 20
26.733854
 30
0.0
 10
60.316636
 20
26.130086
 30
0.0
 10
60.907660
 20
25.625070
 30
0.0
 10
61.628125
 20
25.242581
 30
0.0
 10
63.164190
 20
24.900594
 30
0.0
 10
65.534375
 20
24.789456
 30
0.0
 10
67.480246
 20
24.714395
 30
0.0
 10
68.692500
 20
24.478487
 30
0.0
 10
69.037150
 20
24.295186
 30
0.0
 10
69.214753
 20
24.065641
 30
0.0
 10
69.230761
 20
23.787839
 30
0.0
 10
69.090625
 20
23.459769
 30
0.0
 10
68.780798
 20
23.186222
 30
0.0
 10
68.080477
 20
23.011715
 30
0.0
 10
64.418750
 20
22.806643
 30
0.0
 10
60.060938
 20
22.664456
 30
0.0
 10
59.973438
 20
21.317581
 30
0.0
 10
59.889062
 20
19.972269
 30
0.0
 10
65.156250
 20
19.972269
 30
0.0
 10
69.537184
 20
20.060550
 30
0.0
 10
70.623267
 20
20.195072
 30
0.0
 10
71.273438
 20
20.411331
 30
0.0
 10
71.878402
 20
20.820239
 30
0.0
 10
72.380444
 20
21.352643
 30
0.0
 10
72.771832
 20
21.981907
 30
0.0
 10
73.044837
 20
22.681394
 30
0.0
 10
73.191730
 20
23.424467
 30
0.0
 10
73.204781
 20
24.184489
 30
0.0
 10
73.076260
 20
24.934823
 30
0.0
 10
72.798438
 20
25.648831
 30
0.0
 10
72.147039
 20
26.512979
 30
0.0
 10
71.132721
 20
27.074964
 30
0.0
 10
69.555558
 20
27.403571
 30
0.0
 10
67.215625
 20
27.567581
 30
0.0
 10
65.145247
 20
27.692929
 30
0.0
 10
63.938169
 20
27.913781
 30
0.0
 10
63.609063
 20
28.077157
 30
0.0
 10
63.436616
 20
28.284971
 30
0.0
 10
63.482813
 20
28.861331
 30
0.0
 10
63.726812
 20
29.101276
 30
0.0
 10
64.397123
 20
29.241065
 30
0.0
 10
68.020313
 20
29.322269
 30
0.0
 10
70.743541
 20
29.323811
 30
0.0
 10
72.026227
 20
29.485757
 30
0.0
 10
72.298780
 20
29.700624
 30
0.0
 10
72.416894
 20
30.044084
 30
0.0
 10
72.464062
 20
31.234769
 30
0.0
 10
72.492187
 20
32.014456
 30
0.0
 10
67.484375
 20
32.092581
 30
0.0
 10
65.573438
 20
32.109769
 30
0.0
 10
65.571875
 20
32.109769
 30
0.0
 10
65.571875
 20
32.109769
 30
0.0
  0
LWPOLYLINE
  5
10a
100
AcDbEntity
  8
Layer_1
 62
7
100
AcDbPolyline
 90
17
 70
0
 10
18.923438
 20
31.133206
 30
0.0
 10
13.053125
 20
28.156643
 30
0.0
 10
8.608992
 20
25.863537
 30
0.0
 10
7.110938
 20
24.992581
 30
0.0
 10
6.952289
 20
24.493093
 30
0.0
 10
6.901562
 20
22.761331
 30
0.0
 10
6.875000
 20
20.764456
 30
0.0
 10
8.409375
 20
20.764456
 30
0.0
 10
9.945313
 20
20.764456
 30
0.0
 10
9.945313
 20
21.723831
 30
0.0
 10
9.945313
 20
22.683207
 30
0.0
 10
14.487500
 20
24.898831
 30
0.0
 10
19.031250
 20
27.111331
 30
0.0
 10
19.031250
 20
29.142581
 30
0.0
 10
18.926839
 20
30.742022
 30
0.0
 10
18.923438
 20
31.133206
 30
0.0
 10
18.923438
 20
31.133206
 30
0.0
  0
LWPOLYLINE
  5
10b
100
AcDbEntity
  8
Layer_1
 62
7
100
AcDbPolyline
 90
15
 70
0
 10
118.821872
 20
29.322269
 30
0.0
 10
121.314064
 20
29.322269
 30
0.0
 10
122.842277
 20
29.273463
 30
0.0
 10
123.817310
 20
29.106572
 30
0.0
 10
124.333299
 20
28.790890
 30
0.0
 10
124.484376
 20
28.295707
 30
0.0
 10
124.354240
 20
27.918865
 30
0.0
 10
124.040624
 20
27.501956
 30
0.0
 10
123.709279
 20
27.291080
 30
0.0
 10
123.171780
 20
27.153140
 30
0.0
 10
121.209376
 20
27.055081
 30
0.0
 10
118.821872
 20
27.055081
 30
0.0
 10
118.821872
 20
28.189456
 30
0.0
 10
118.821872
 20
29.322269
 30
0.0
 10
118.821872
 20
29.322269
 30
0.0
  0
LWPOLYLINE
  5
10c
100
AcDbEntity
  8
Layer_1
 62
7
100
AcDbPolyline
 90
10
 70
0
 10
16.903125
 20
24.426956
 30
0.0
 10
15.615625
 20
23.806643
 30
0.0
 10
14.359375
 20
23.186331
 30
0.0
 10
14.332813
 20
21.933207
 30
0.0
 10
14.309375
 20
20.680081
 30
0.0
 10
15.623438
 20
20.680081
 30
0.0
 10
16.935938
 20
20.680081
 30
0.0
 10
16.935938
 20
22.553519
 30
0.0
 10
16.903125
 20
24.426956
 30
0.0
 10
16.903125
 20
24.426956
 30
0.0
  0
LWPOLYLINE
  5
10d
100
AcDbEntity
  8
Layer_1
 62
7
100
AcDbPolyline
 90
19
 70
0
 10
6.884375
 20
19.147269
 30
0.0
 10
6.884375
 20
19.145707
 30
0.0
 10
6.884375
 20
12.630081
 30
0.0
 10
6.884375
 20
6.114456
 30
0.0
 10
8.414062
 20
6.114456
 30
0.0
 10
9.942187
 20
6.114456
 30
0.0
 10
9.965625
 20
8.731643
 30
0.0
 10
9.987500
 20
11.351956
 30
0.0
 10
14.510938
 20
11.373831
 30
0.0
 10
19.034375
 20
11.395707
 30
0.0
 10
19.034375
 20
13.269144
 30
0.0
 10
19.034375
 20
15.142581
 30
0.0
 10
14.489062
 20
15.142581
 30
0.0
 10
9.942187
 20
15.142581
 30
0.0
 10
9.942187
 20
17.144144
 30
0.0
 10
9.942187
 20
19.147269
 30
0.0
 10
8.415625
 20
19.147269
 30
0.0
 10
6.884375
 20
19.147269
 30
0.0
 10
6.884375
 20
19.147269
 30
0.0
  0
LWPOLYLINE
  5
10e
100
AcDbEntity
  8
Layer_1
 62
7
100
AcDbPolyline
 90
53
 70
0
 10
50.646875
 20
17.061331
 30
0.0
 10
49.112318
 20
16.910713
 30
0.0
 10
48.039081
 20
16.540977
 30
0.0
 10
47.271694
 20
15.989622
 30
0.0
 10
46.654687
 20
15.294144
 30
0.0
 10
46.187367
 20
14.385963
 30
0.0
 10
46.042187
 20
13.197269
 30
0.0
 10
46.107513
 20
12.300561
 30
0.0
 10
46.317989
 20
11.556100
 30
0.0
 10
46.695362
 20
10.950099
 30
0.0
 10
47.261381
 20
10.468772
 30
0.0
 10
48.037795
 20
10.098330
 30
0.0
 10
49.046349
 20
9.824988
 30
0.0
 10
51.846875
 20
9.514456
 30
0.0
 10
54.547464
 20
9.277216
 30
0.0
 10
54.940786
 20
9.055733
 30
0.0
 10
55.057813
 20
8.670707
 30
0.0
 10
55.014446
 20
8.122954
 30
0.0
 10
54.775000
 20
7.755081
 30
0.0
 10
53.363261
 20
7.583780
 30
0.0
 10
50.501562
 20
7.509769
 30
0.0
 10
46.607813
 20
7.505081
 30
0.0
 10
46.607813
 20
6.089456
 30
0.0
 10
46.607813
 20
4.672269
 30
0.0
 10
50.643750
 20
4.684769
 30
0.0
 10
53.865671
 20
4.765179
 30
0.0
 10
55.945313
 20
4.941019
 30
0.0
 10
56.785373
 20
5.203655
 30
0.0
 10
57.509566
 20
5.627916
 30
0.0
 10
58.103025
 20
6.185483
 30
0.0
 10
58.550887
 20
6.848032
 30
0.0
 10
58.838287
 20
7.587244
 30
0.0
 10
58.950359
 20
8.374797
 30
0.0
 10
58.872239
 20
9.182371
 30
0.0
 10
58.589062
 20
9.981643
 30
0.0
 10
57.895407
 20
11.083314
 30
0.0
 10
57.479801
 20
11.462998
 30
0.0
 10
56.968086
 20
11.750160
 30
0.0
 10
55.505550
 20
12.111654
 30
0.0
 10
53.206250
 20
12.297269
 30
0.0
 10
49.864062
 20
12.464456
 30
0.0
 10
49.778125
 20
13.206643
 30
0.0
 10
49.875367
 20
13.795026
 30
0.0
 10
50.096467
 20
13.987269
 30
0.0
 10
50.488640
 20
14.123978
 30
0.0
 10
51.954469
 20
14.268090
 30
0.0
 10
54.609375
 20
14.301956
 30
0.0
 10
58.220313
 20
14.306643
 30
0.0
 10
58.220313
 20
15.580081
 30
0.0
 10
58.220313
 20
16.855081
 30
0.0
 10
53.678125
 20
16.855081
 30
0.0
 10
50.646875
 20
17.061331
 30
0.0
 10
50.646875
 20
17.061331
 30
0.0
  0
LWPOLYLINE
  5
10f
100
AcDbEntity
  8
Layer_1
 62
7
100
AcDbPolyline
 90
26
 70
0
 10
75.210938
 20
16.856643
 30
0.0
 10
75.210938
 20
16.855081
 30
0.0
 10
75.210938
 20
10.750394
 30
0.0
 10
75.210938
 20
4.644144
 30
0.0
 10
76.839062
 20
4.728519
 30
0.0
 10
78.467187
 20
4.814456
 30
0.0
 10
78.550000
 20
6.853519
 30
0.0
 10
78.632813
 20
8.894144
 30
0.0
 10
81.404688
 20
8.873831
 30
0.0
 10
83.350999
 20
9.171077
 30
0.0
 10
84.645898
 20
9.295008
 30
0.0
 10
85.551832
 20
9.490773
 30
0.0
 10
86.331248
 20
10.003519
 30
0.0
 10
86.944905
 20
10.753798
 30
0.0
 10
87.332348
 20
11.608200
 30
0.0
 10
87.500827
 20
12.521488
 30
0.0
 10
87.457592
 20
13.448423
 30
0.0
 10
87.209892
 20
14.343769
 30
0.0
 10
86.764976
 20
15.162287
 30
0.0
 10
86.130094
 20
15.858742
 30
0.0
 10
85.312496
 20
16.387894
 30
0.0
 10
84.627021
 20
16.618968
 30
0.0
 10
83.613637
 20
16.762564
 30
0.0
 10
79.768750
 20
16.856643
 30
0.0
 10
75.210938
 20
16.856643
 30
0.0
 10
75.210938
 20
16.856643
 30
0.0
  0
LWPOLYLINE
  5
110
100
AcDbEntity
  8
Layer_1
 62
7
100
AcDbPolyline
 90
26
 70
0
 10
119.057816
 20
16.856643
 30
0.0
 10
119.056248
 20
16.855081
 30
0.0
 10
119.150000
 20
12.237894
 30
0.0
 10
119.322646
 20
8.350914
 30
0.0
 10
119.490047
 20
7.428396
 30
0.0
 10
119.746872
 20
6.859769
 30
0.0
 10
120.307597
 20
6.176299
 30
0.0
 10
121.003328
 20
5.621630
 30
0.0
 10
121.818879
 20
5.205952
 30
0.0
 10
122.739064
 20
4.939456
 30
0.0
 10
126.396872
 20
4.705081
 30
0.0
 10
129.017184
 20
4.672269
 30
0.0
 10
129.017184
 20
6.089456
 30
0.0
 10
129.017184
 20
7.505081
 30
0.0
 10
126.379688
 20
7.505081
 30
0.0
 10
125.242271
 20
7.678107
 30
0.0
 10
124.318378
 20
7.731455
 30
0.0
 10
123.643890
 20
7.761459
 30
0.0
 10
123.254688
 20
7.864456
 30
0.0
 10
122.997057
 20
8.201976
 30
0.0
 10
122.839108
 20
8.921726
 30
0.0
 10
122.703128
 20
12.537894
 30
0.0
 10
122.645312
 20
16.850394
 30
0.0
 10
120.850000
 20
16.855081
 30
0.0
 10
119.057816
 20
16.856643
 30
0.0
 10
119.057816
 20
16.856643
 30
0.0
  0
LWPOLYLINE
  5
111
100
AcDbEntity
  8
Layer_1
 62
7
100
AcDbPolyline
 90
20
 70
0
 10
35.870313
 20
16.855081
 30
0.0
 10
35.037500
 20
15.084769
 30
0.0
 10
32.195313
 20
9.116019
 30
0.0
 10
30.184375
 20
4.795707
 30
0.0
 10
32.117187
 20
4.672269
 30
0.0
 10
34.051562
 20
4.672269
 30
0.0
 10
34.714062
 20
6.089456
 30
0.0
 10
35.376562
 20
7.505081
 30
0.0
 10
37.689062
 20
7.505081
 30
0.0
 10
39.998438
 20
7.505081
 30
0.0
 10
40.660938
 20
6.089456
 30
0.0
 10
41.325000
 20
4.672269
 30
0.0
 10
43.259375
 20
4.672269
 30
0.0
 10
44.624631
 20
4.742841
 30
0.0
 10
45.192187
 20
4.912894
 30
0.0
 10
42.367187
 20
11.005081
 30
0.0
 10
39.542187
 20
16.855081
 30
0.0
 10
37.706250
 20
16.855081
 30
0.0
 10
35.870313
 20
16.855081
 30
0.0
 10
35.870313
 20
16.855081
 30
0.0
  0
LWPOLYLINE
  5
112
100
AcDbEntity
  8
Layer_1
 62
7
100
AcDbPolyline
 90
26
 70
0
 10
61.050000
 20
16.855081
 30
0.0
 10
61.050000
 20
10.764456
 30
0.0
 10
61.050000
 20
4.672269
 30
0.0
 10
62.750000
 20
4.672269
 30
0.0
 10
64.448438
 20
4.672269
 30
0.0
 10
64.448438
 20
7.080081
 30
0.0
 10
64.448438
 20
9.489456
 30
0.0
 10
66.714062
 20
9.489456
 30
0.0
 10
68.979687
 20
9.489456
 30
0.0
 10
68.979687
 20
7.080081
 30
0.0
 10
68.979687
 20
4.672269
 30
0.0
 10
70.678125
 20
4.672269
 30
0.0
 10
72.378125
 20
4.672269
 30
0.0
 10
72.378125
 20
10.764456
 30
0.0
 10
72.378125
 20
16.855081
 30
0.0
 10
70.678125
 20
16.855081
 30
0.0
 10
68.979687
 20
16.855081
 30
0.0
 10
68.979687
 20
14.589456
 30
0.0
 10
68.979687
 20
12.323831
 30
0.0
 10
66.714062
 20
12.323831
 30
0.0
 10
64.448438
 20
12.323831
 30
0.0
 10
64.448438
 20
14.589456
 30
0.0
 10
64.448438
 20
16.855081
 30
0.0
 10
62.750000
 20
16.855081
 30
0.0
 10
61.050000
 20
16.855081
 30
0.0
 10
61.050000
 20
16.855081
 30
0.0
  0
LWPOLYLINE
  5
113
100
AcDbEntity
  8
Layer_1
 62
7
100
AcDbPolyline
 90
37
 70
0
 10
110.489064
 20
16.853519
 30
0.0
 10
108.696940
 20
16.766444
 30
0.0
 10
107.293762
 20
16.484708
 30
0.0
 10
106.165579
 20
15.972143
 30
0.0
 10
105.198440
 20
15.192581
 30
0.0
 10
104.686686
 20
14.617327
 30
0.0
 10
104.311980
 20
14.028885
 30
0.0
 10
103.823440
 20
12.519144
 30
0.0
 10
103.634844
 20
11.121855
 30
0.0
 10
103.666964
 20
9.834383
 30
0.0
 10
103.914593
 20
8.665717
 30
0.0
 10
104.372524
 20
7.624849
 30
0.0
 10
105.035550
 20
6.720767
 30
0.0
 10
105.898464
 20
5.962463
 30
0.0
 10
106.956059
 20
5.358925
 30
0.0
 10
108.203128
 20
4.919144
 30
0.0
 10
109.642386
 20
4.749261
 30
0.0
 10
111.440968
 20
4.811415
 30
0.0
 10
113.195630
 20
5.069230
 30
0.0
 10
114.503128
 20
5.486331
 30
0.0
 10
115.376185
 20
6.057989
 30
0.0
 10
116.104368
 20
6.793489
 30
0.0
 10
116.679450
 20
7.667051
 30
0.0
 10
117.093200
 20
8.652897
 30
0.0
 10
117.337390
 20
9.725246
 30
0.0
 10
117.403792
 20
10.858320
 30
0.0
 10
117.284176
 20
12.026337
 30
0.0
 10
116.970312
 20
13.203519
 30
0.0
 10
116.583392
 20
14.085139
 30
0.0
 10
116.086486
 20
14.839078
 30
0.0
 10
115.474124
 20
15.468409
 30
0.0
 10
114.740838
 20
15.976207
 30
0.0
 10
113.881158
 20
16.365543
 30
0.0
 10
112.889615
 20
16.639491
 30
0.0
 10
111.760740
 20
16.801125
 30
0.0
 10
110.489064
 20
16.853519
 30
0.0
 10
110.489064
 20
16.853519
 30
0.0
  0
LWPOLYLINE
  5
114
100
AcDbEntity
  8
Layer_1
 62
7
100
AcDbPolyline
 90
34
 70
0
 10
95.459376
 20
16.851956
 30
0.0
 10
93.811621
 20
16.779967
 30
0.0
 10
92.486552
 20
16.550609
 30
0.0
 10
91.409223
 20
16.143800
 30
0.0
 10
90.504688
 20
15.539456
 30
0.0
 10
89.823357
 20
14.896759
 30
0.0
 10
89.368116
 20
14.245206
 30
0.0
 10
89.053035
 20
13.420856
 30
0.0
 10
88.792184
 20
12.259769
 30
0.0
 10
88.638888
 20
10.920611
 30
0.0
 10
88.700761
 20
9.683664
 30
0.0
 10
88.971780
 20
8.558830
 30
0.0
 10
89.445916
 20
7.556010
 30
0.0
 10
90.117145
 20
6.685104
 30
0.0
 10
90.979441
 20
5.956016
 30
0.0
 10
92.026777
 20
5.378645
 30
0.0
 10
93.253128
 20
4.962894
 30
0.0
 10
94.755732
 20
4.771372
 30
0.0
 10
96.518668
 20
4.816332
 30
0.0
 10
98.217584
 20
5.069729
 30
0.0
 10
99.528128
 20
5.503519
 30
0.0
 10
100.614138
 20
6.281281
 30
0.0
 10
101.451711
 20
7.332340
 30
0.0
 10
102.031488
 20
8.581818
 30
0.0
 10
102.344112
 20
9.954837
 30
0.0
 10
102.380226
 20
11.376519
 30
0.0
 10
102.130474
 20
12.771987
 30
0.0
 10
101.585496
 20
14.066363
 30
0.0
 10
100.735936
 20
15.184769
 30
0.0
 10
99.766304
 20
15.967723
 30
0.0
 10
98.638856
 20
16.482768
 30
0.0
 10
97.240809
 20
16.765610
 30
0.0
 10
95.459376
 20
16.851956
 30
0.0
 10
95.459376
 20
16.851956
 30
0.0
  0
LWPOLYLINE
  5
115
100
AcDbEntity
  8
Layer_1
 62
7
100
AcDbPolyline
 90
15
 70
0
 10
81.412496
 20
14.408207
 30
0.0
 10
82.498606
 20
14.255022
 30
0.0
 10
83.157816
 20
14.012894
 30
0.0
 10
83.527921
 20
13.604665
 30
0.0
 10
83.696480
 20
12.990270
 30
0.0
 10
83.647659
 20
12.337186
 30
0.0
 10
83.365624
 20
11.812894
 30
0.0
 10
82.516714
 20
11.565205
 30
0.0
 10
80.817184
 20
11.472269
 30
0.0
 10
78.609375
 20
11.472269
 30
0.0
 10
78.609375
 20
12.889456
 30
0.0
 10
78.609375
 20
14.305081
 30
0.0
 10
80.609376
 20
14.305081
 30
0.0
 10
81.412496
 20
14.408207
 30
0.0
 10
81.412496
 20
14.408207
 30
0.0
  0
LWPOLYLINE
  5
116
100
AcDbEntity
  8
Layer_1
 62
7
100
AcDbPolyline
 90
26
 70
0
 10
95.768752
 20
14.305081
 30
0.0
 10
96.905218
 20
14.162746
 30
0.0
 10
97.692184
 20
13.656643
 30
0.0
 10
98.095766
 20
13.103046
 30
0.0
 10
98.378879
 20
12.404135
 30
0.0
 10
98.542373
 20
11.609617
 30
0.0
 10
98.587098
 20
10.769195
 30
0.0
 10
98.513904
 20
9.932576
 30
0.0
 10
98.323642
 20
9.149464
 30
0.0
 10
98.017161
 20
8.469564
 30
0.0
 10
97.595312
 20
7.942581
 30
0.0
 10
96.890542
 20
7.573790
 30
0.0
 10
95.895006
 20
7.354581
 30
0.0
 10
94.851185
 20
7.315699
 30
0.0
 10
94.001560
 20
7.487894
 30
0.0
 10
93.323253
 20
7.928978
 30
0.0
 10
92.850748
 20
8.593184
 30
0.0
 10
92.574354
 20
9.500839
 30
0.0
 10
92.484376
 20
10.672269
 30
0.0
 10
92.644940
 20
12.410777
 30
0.0
 10
92.862411
 20
13.041382
 30
0.0
 10
93.186244
 20
13.529459
 30
0.0
 10
93.627617
 20
13.887438
 30
0.0
 10
94.197708
 20
14.127748
 30
0.0
 10
95.768752
 20
14.305081
 30
0.0
 10
95.768752
 20
14.305081
 30
0.0
  0
LWPOLYLINE
  5
117
100
AcDbEntity
  8
Layer_1
 62
7
100
AcDbPolyline
 90
25
 70
0
 10
110.878128
 20
14.276956
 30
0.0
 10
111.885772
 20
14.162716
 30
0.0
 10
112.598424
 20
13.791676
 30
0.0
 10
113.081006
 20
13.121479
 30
0.0
 10
113.398440
 20
12.109769
 30
0.0
 10
113.539439
 20
10.892362
 30
0.0
 10
113.449886
 20
9.741820
 30
0.0
 10
113.145938
 20
8.747518
 30
0.0
 10
112.643752
 20
7.998831
 30
0.0
 10
111.944938
 20
7.597577
 30
0.0
 10
110.947314
 20
7.356222
 30
0.0
 10
109.889705
 20
7.308437
 30
0.0
 10
109.010936
 20
7.487894
 30
0.0
 10
108.312399
 20
7.939381
 30
0.0
 10
107.842398
 20
8.624369
 30
0.0
 10
107.578933
 20
9.593463
 30
0.0
 10
107.500000
 20
10.897269
 30
0.0
 10
107.616791
 20
12.464394
 30
0.0
 10
107.777889
 20
13.022925
 30
0.0
 10
108.025286
 20
13.454013
 30
0.0
 10
108.372354
 20
13.774589
 30
0.0
 10
108.832466
 20
14.001587
 30
0.0
 10
110.145312
 20
14.242581
 30
0.0
 10
110.878128
 20
14.276956
 30
0.0
 10
110.878128
 20
14.276956
 30
0.0
  0
LWPOLYLINE
  5
118
100
AcDbEntity
  8
Layer_1
 62
7
100
AcDbPolyline
 90
14
 70
0
 10
37.759375
 20
13.005081
 30
0.0
 10
38.039602
 20
12.819742
 30
0.0
 10
38.225696
 20
12.414337
 30
0.0
 10
38.360938
 20
11.825394
 30
0.0
 10
38.960938
 20
10.350394
 30
0.0
 10
38.587800
 20
10.141966
 30
0.0
 10
37.689062
 20
10.055081
 30
0.0
 10
36.791982
 20
10.118286
 30
0.0
 10
36.426562
 20
10.269144
 30
0.0
 10
37.098438
 20
11.742581
 30
0.0
 10
37.250826
 20
12.374704
 30
0.0
 10
37.455764
 20
12.808797
 30
0.0
 10
37.759375
 20
13.005081
 30
0.0
 10
37.759375
 20
13.005081
 30
0.0
  0
ENDSEC
  0
SECTION
  2
OBJECTS
  0
DICTIONARY
  5
C
330
0
100
AcDbDictionary
  3
ACAD_GROUP
350
D
  3
ACAD_MLINESTYLE
350
17
  0
DICTIONARY
  5
D
330
C
100
AcDbDictionary
  0
DICTIONARY
  5
1A
330
C
100
AcDbDictionary
  0
DICTIONARY
  5
17
330
C
100
AcDbDictionary
  3
STANDARD
350
18
  0
DICTIONARY
  5
19
330
C
100
AcDbDictionary
  0
ENDSEC
  0
EOF
