  0
SECTION
  2
HEADER
  9
$ACADVER
  1
AC1014
  9
$HANDSEED
  5
FFFF
  9
$MEASUREMENT
 70
     1
  0
ENDSEC
  0
SECTION
  2
TABLES
  0
TABLE
  2
VPORT
  5
8
330
0
100
AcDbSymbolTable
 70
     4
  0
VPORT
  5
2E
330
8
100
AcDbSymbolTableRecord
100
AcDbViewportTableRecord
  2
*ACTIVE
 70
     0
 10
0.0
 20
0.0
 11
1.0
 21
1.0
 12
210.0
 22
148.5
 13
0.0
 23
0.0
 14
10.0
 24
10.0
 15
10.0
 25
10.0
 16
0.0
 26
0.0
 36
1.0
 17
0.0
 27
0.0
 37
0.0
 40
341.0
 41
1.24
 42
50.0
 43
0.0
 44
0.0
 50
0.0
 51
0.0
 71
     0
 72
   100
 73
     1
 74
     3
 75
     0
 76
     0
 77
     0
 78
     0
  0
ENDTAB
  0
TABLE
  2
LTYPE
  5
5
330
0
100
AcDbSymbolTable
 70
     1
  0
LTYPE
  5
14
330
5
100
AcDbSymbolTableRecord
100
AcDbLinetypeTableRecord
  2
BYBLOCK
 70
     0
  3

 72
    65
 73
     0
 40
0.0
  0
LTYPE
  5
15
330
5
100
AcDbSymbolTableRecord
100
AcDbLinetypeTableRecord
  2
BYLAYER
 70
     0
  3

 72
    65
 73
     0
 40
0.0
  0
LTYPE
  5
16
330
5
100
AcDbSymbolTableRecord
100
AcDbLinetypeTableRecord
  2
CONTINUOUS
 70
     0
  3
Solid line
 72
    65
 73
     0
 40
0.0
  0
ENDTAB
  0
TABLE
  2
LAYER
  5
2
100
AcDbSymbolTable
 70
2
  0
LAYER
  5
50
100
AcDbSymbolTableRecord
100
AcDbLayerTableRecord
  2
0
 70
0
  6
CONTINUOUS
  0
LAYER
  5
51
100
AcDbSymbolTableRecord
100
AcDbLayerTableRecord
  2
Layer_1
 70
0
  6
CONTINUOUS
  0
ENDTAB
  0
TABLE
  2
STYLE
  5
3
330
0
100
AcDbSymbolTable
 70
     1
  0
STYLE
  5
11
330
3
100
AcDbSymbolTableRecord
100
AcDbTextStyleTableRecord
  2
STANDARD
 70
     0
 40
0.0
 41
1.0
 50
0.0
 71
     0
 42
2.5
  3
txt
  4

  0
ENDTAB
  0
TABLE
  2
VIEW
  5
6
330
0
100
AcDbSymbolTable
 70
     0
  0
ENDTAB
  0
TABLE
  2
UCS
  5
7
330
0
100
AcDbSymbolTable
 70
     0
  0
ENDTAB
  0
TABLE
  2
APPID
  5
9
330
0
100
AcDbSymbolTable
 70
     2
  0
APPID
  5
12
330
9
100
AcDbSymbolTableRecord
100
AcDbRegAppTableRecord
  2
ACAD
 70
     0
  0
ENDTAB
  0
TABLE
  2
DIMSTYLE
  5
A
330
0
100
AcDbSymbolTable
 70
     1
  0
DIMSTYLE
105
27
330
A
100
AcDbSymbolTableRecord
100
AcDbDimStyleTableRecord
  2
ISO-25
 70
     0
  3

  4

  5

  6

  7

 40
1.0
 41
2.5
 42
0.625
 43
3.75
 44
1.25
 45
0.0
 46
0.0
 47
0.0
 48
0.0
140
2.5
141
2.5
142
0.0
143
0.03937007874016
144
1.0
145
0.0
146
1.0
147
0.625
 71
     0
 72
     0
 73
     0
 74
     0
 75
     0
 76
     0
 77
     1
 78
     8
170
     0
171
     3
172
     1
173
     0
174
     0
175
     0
176
     0
177
     0
178
     0
270
     2
271
     2
272
     2
273
     2
274
     3
340
11
275
     0
280
     0
281
     0
282
     0
283
     0
284
     8
285
     0
286
     0
287
     3
288
     0
  0
ENDTAB
  0
TABLE
  2
BLOCK_RECORD
  5
1
330
0
100
AcDbSymbolTable
 70
     1
  0
BLOCK_RECORD
  5
1F
330
1
100
AcDbSymbolTableRecord
100
AcDbBlockTableRecord
  2
*MODEL_SPACE
  0
BLOCK_RECORD
  5
1B
330
1
100
AcDbSymbolTableRecord
100
AcDbBlockTableRecord
  2
*PAPER_SPACE
  0
ENDTAB
  0
ENDSEC
  0
SECTION
  2
BLOCKS
  0
BLOCK
  5
20
330
1F
100
AcDbEntity
  8
0
100
AcDbBlockBegin
  2
*MODEL_SPACE
 70
     0
 10
0.0
 20
0.0
 30
0.0
  3
*MODEL_SPACE
  1

  0
ENDBLK
  5
21
330
1F
100
AcDbEntity
  8
0
100
AcDbBlockEnd
  0
BLOCK
  5
1C
330
1B
100
AcDbEntity
 67
     1
  8
0
100
AcDbBlockBegin
  2
*PAPER_SPACE
  1

  0
ENDBLK
  5
1D
330
1B
100
AcDbEntity
 67
     1
  8
0
100
AcDbBlockEnd
  0
ENDSEC
  0
SECTION
  2
ENTITIES
  0
LWPOLYLINE
  5
100
100
AcDbEntity
  8
Layer_1
 62
7
100
AcDbPolyline
 90
14
 70
0
 10
-30.517187
 20
290.144146
 30
0.0
 10
-31.025000
 20
289.114458
 30
0.0
 10
-32.042187
 20
287.053522
 30
0.0
 10
-63.387500
 20
223.542578
 30
0.0
 10
-136.887504
 20
212.861330
 30
0.0
 10
-83.703128
 20
161.019146
 30
0.0
 10
-96.257816
 20
87.817581
 30
0.0
 10
-30.517187
 20
122.378522
 30
0.0
 10
35.221875
 20
87.817581
 30
0.0
 10
22.667187
 20
161.019146
 30
0.0
 10
75.851562
 20
212.861330
 30
0.0
 10
2.351562
 20
223.542578
 30
0.0
 10
-30.517187
 20
290.144146
 30
0.0
 10
-30.517187
 20
290.144146
 30
0.0
  0
LWPOLYLINE
  5
101
100
AcDbEntity
  8
Layer_1
 62
7
100
AcDbPolyline
 90
34
 70
0
 10
-30.600000
 20
273.850394
 30
0.0
 10
-29.815995
 20
273.772825
 30
0.0
 10
-29.069266
 20
273.545912
 30
0.0
 10
-28.380798
 20
273.178347
 30
0.0
 10
-27.771572
 20
272.678821
 30
0.0
 10
-27.272047
 20
272.069596
 30
0.0
 10
-26.904481
 20
271.381128
 30
0.0
 10
-26.677569
 20
270.634399
 30
0.0
 10
-26.600000
 20
269.850394
 30
0.0
 10
-26.677569
 20
269.066388
 30
0.0
 10
-26.904481
 20
268.319660
 30
0.0
 10
-27.272047
 20
267.631191
 30
0.0
 10
-27.771572
 20
267.021966
 30
0.0
 10
-28.380798
 20
266.522440
 30
0.0
 10
-29.069266
 20
266.154875
 30
0.0
 10
-29.815995
 20
265.927963
 30
0.0
 10
-30.600000
 20
265.850394
 30
0.0
 10
-31.384005
 20
265.927963
 30
0.0
 10
-32.130734
 20
266.154875
 30
0.0
 10
-32.819202
 20
266.522440
 30
0.0
 10
-33.428428
 20
267.021966
 30
0.0
 10
-33.927953
 20
267.631191
 30
0.0
 10
-34.295519
 20
268.319660
 30
0.0
 10
-34.522431
 20
269.066388
 30
0.0
 10
-34.600000
 20
269.850394
 30
0.0
 10
-34.522431
 20
270.634399
 30
0.0
 10
-34.295519
 20
271.381128
 30
0.0
 10
-33.927953
 20
272.069596
 30
0.0
 10
-33.428428
 20
272.678821
 30
0.0
 10
-32.819202
 20
273.178347
 30
0.0
 10
-32.130734
 20
273.545912
 30
0.0
 10
-31.384005
 20
273.772825
 30
0.0
 10
-30.600000
 20
273.850394
 30
0.0
 10
-30.600000
 20
273.850394
 30
0.0
  0
LWPOLYLINE
  5
102
100
AcDbEntity
  8
Layer_1
 62
7
100
AcDbPolyline
 90
14
 70
0
 10
160.259376
 20
237.006642
 30
0.0
 10
159.751560
 20
235.976954
 30
0.0
 10
158.734376
 20
233.916018
 30
0.0
 10
127.389064
 20
170.405082
 30
0.0
 10
53.890625
 20
159.723834
 30
0.0
 10
107.075000
 20
107.881643
 30
0.0
 10
94.520312
 20
34.680081
 30
0.0
 10
160.259376
 20
69.241019
 30
0.0
 10
226.000000
 20
34.680081
 30
0.0
 10
213.443752
 20
107.881643
 30
0.0
 10
266.629688
 20
159.723834
 30
0.0
 10
193.129688
 20
170.405082
 30
0.0
 10
160.259376
 20
237.006642
 30
0.0
 10
160.259376
 20
237.006642
 30
0.0
  0
LWPOLYLINE
  5
103
100
AcDbEntity
  8
Layer_1
 62
7
100
AcDbPolyline
 90
34
 70
0
 10
160.229688
 20
220.780082
 30
0.0
 10
161.013693
 20
220.702513
 30
0.0
 10
161.760422
 20
220.475600
 30
0.0
 10
162.448890
 20
220.108035
 30
0.0
 10
163.058115
 20
219.608509
 30
0.0
 10
163.557641
 20
218.999284
 30
0.0
 10
163.925206
 20
218.310816
 30
0.0
 10
164.152119
 20
217.564087
 30
0.0
 10
164.229688
 20
216.780082
 30
0.0
 10
164.152119
 20
215.996076
 30
0.0
 10
163.925206
 20
215.249348
 30
0.0
 10
163.557641
 20
214.560880
 30
0.0
 10
163.058115
 20
213.951654
 30
0.0
 10
162.448890
 20
213.452128
 30
0.0
 10
161.760422
 20
213.084563
 30
0.0
 10
161.013693
 20
212.857651
 30
0.0
 10
160.229688
 20
212.780082
 30
0.0
 10
159.445683
 20
212.857651
 30
0.0
 10
158.698954
 20
213.084563
 30
0.0
 10
158.010486
 20
213.452128
 30
0.0
 10
157.401261
 20
213.951654
 30
0.0
 10
156.901735
 20
214.560880
 30
0.0
 10
156.534170
 20
215.249348
 30
0.0
 10
156.307257
 20
215.996076
 30
0.0
 10
156.229688
 20
216.780082
 30
0.0
 10
156.307257
 20
217.564087
 30
0.0
 10
156.534170
 20
218.310816
 30
0.0
 10
156.901735
 20
218.999284
 30
0.0
 10
157.401261
 20
219.608509
 30
0.0
 10
158.010486
 20
220.108035
 30
0.0
 10
158.698954
 20
220.475600
 30
0.0
 10
159.445683
 20
220.702513
 30
0.0
 10
160.229688
 20
220.780082
 30
0.0
 10
160.229688
 20
220.780082
 30
0.0
  0
LWPOLYLINE
  5
104
100
AcDbEntity
  8
Layer_1
 62
7
100
AcDbPolyline
 90
14
 70
0
 10
-31.481250
 20
96.067581
 30
0.0
 10
-31.989062
 20
95.036331
 30
0.0
 10
-33.004687
 20
92.975394
 30
0.0
 10
-64.350000
 20
29.466019
 30
0.0
 10
-137.850000
 20
18.784769
 30
0.0
 10
-84.665624
 20
-33.057419
 30
0.0
 10
-97.220312
 20
-106.258982
 30
0.0
 10
-31.481250
 20
-71.698046
 30
0.0
 10
34.259375
 20
-106.258982
 30
0.0
 10
21.704687
 20
-33.057419
 30
0.0
 10
74.889062
 20
18.784769
 30
0.0
 10
1.389062
 20
29.466019
 30
0.0
 10
-31.481250
 20
96.067581
 30
0.0
 10
-31.481250
 20
96.067581
 30
0.0
  0
LWPOLYLINE
  5
105
100
AcDbEntity
  8
Layer_1
 62
7
100
AcDbPolyline
 90
34
 70
0
 10
-31.507813
 20
79.859769
 30
0.0
 10
-30.723807
 20
79.782200
 30
0.0
 10
-29.977079
 20
79.555287
 30
0.0
 10
-29.288611
 20
79.187722
 30
0.0
 10
-28.679385
 20
78.688196
 30
0.0
 10
-28.179860
 20
78.078971
 30
0.0
 10
-27.812294
 20
77.390503
 30
0.0
 10
-27.585382
 20
76.643774
 30
0.0
 10
-27.507813
 20
75.859769
 30
0.0
 10
-27.585382
 20
75.075764
 30
0.0
 10
-27.812294
 20
74.329035
 30
0.0
 10
-28.179860
 20
73.640567
 30
0.0
 10
-28.679385
 20
73.031342
 30
0.0
 10
-29.288611
 20
72.531816
 30
0.0
 10
-29.977079
 20
72.164251
 30
0.0
 10
-30.723807
 20
71.937338
 30
0.0
 10
-31.507813
 20
71.859769
 30
0.0
 10
-32.291818
 20
71.937338
 30
0.0
 10
-33.038547
 20
72.164251
 30
0.0
 10
-33.727015
 20
72.531816
 30
0.0
 10
-34.336240
 20
73.031342
 30
0.0
 10
-34.835766
 20
73.640567
 30
0.0
 10
-35.203331
 20
74.329035
 30
0.0
 10
-35.430244
 20
75.075764
 30
0.0
 10
-35.507813
 20
75.859769
 30
0.0
 10
-35.430244
 20
76.643774
 30
0.0
 10
-35.203331
 20
77.390503
 30
0.0
 10
-34.835766
 20
78.078971
 30
0.0
 10
-34.336240
 20
78.688196
 30
0.0
 10
-33.727015
 20
79.187722
 30
0.0
 10
-33.038547
 20
79.555287
 30
0.0
 10
-32.291818
 20
79.782200
 30
0.0
 10
-31.507813
 20
79.859769
 30
0.0
 10
-31.507813
 20
79.859769
 30
0.0
  0
LWPOLYLINE
  5
106
100
AcDbEntity
  8
Layer_1
 62
7
100
AcDbPolyline
 90
14
 70
0
 10
160.000000
 20
44.692581
 30
0.0
 10
159.492184
 20
43.662894
 30
0.0
 10
158.475000
 20
41.603519
 30
0.0
 10
127.129688
 20
-21.908981
 30
0.0
 10
53.631250
 20
-32.588669
 30
0.0
 10
106.815624
 20
-84.430854
 30
0.0
 10
94.259376
 20
-157.632422
 30
0.0
 10
160.000000
 20
-123.071478
 30
0.0
 10
225.740624
 20
-157.632422
 30
0.0
 10
213.184376
 20
-84.430854
 30
0.0
 10
266.368752
 20
-32.590231
 30
0.0
 10
192.870312
 20
-21.908981
 30
0.0
 10
160.000000
 20
44.692581
 30
0.0
 10
160.000000
 20
44.692581
 30
0.0
  0
LWPOLYLINE
  5
107
100
AcDbEntity
  8
Layer_1
 62
7
100
AcDbPolyline
 90
34
 70
0
 10
159.946872
 20
29.012894
 30
0.0
 10
160.730877
 20
28.935325
 30
0.0
 10
161.477606
 20
28.708412
 30
0.0
 10
162.166074
 20
28.340847
 30
0.0
 10
162.775299
 20
27.841321
 30
0.0
 10
163.274825
 20
27.232096
 30
0.0
 10
163.642390
 20
26.543628
 30
0.0
 10
163.869303
 20
25.796899
 30
0.0
 10
163.946872
 20
25.012894
 30
0.0
 10
163.869303
 20
24.228888
 30
0.0
 10
163.642390
 20
23.482160
 30
0.0
 10
163.274825
 20
22.793692
 30
0.0
 10
162.775299
 20
22.184466
 30
0.0
 10
162.166074
 20
21.684940
 30
0.0
 10
161.477606
 20
21.317375
 30
0.0
 10
160.730877
 20
21.090463
 30
0.0
 10
159.946872
 20
21.012894
 30
0.0
 10
159.162867
 20
21.090463
 30
0.0
 10
158.416138
 20
21.317375
 30
0.0
 10
157.727670
 20
21.684940
 30
0.0
 10
157.118445
 20
22.184466
 30
0.0
 10
156.618919
 20
22.793692
 30
0.0
 10
156.251354
 20
23.482160
 30
0.0
 10
156.024441
 20
24.228888
 30
0.0
 10
155.946872
 20
25.012894
 30
0.0
 10
156.024441
 20
25.796899
 30
0.0
 10
156.251354
 20
26.543628
 30
0.0
 10
156.618919
 20
27.232096
 30
0.0
 10
157.118445
 20
27.841321
 30
0.0
 10
157.727670
 20
28.340847
 30
0.0
 10
158.416138
 20
28.708412
 30
0.0
 10
159.162867
 20
28.935325
 30
0.0
 10
159.946872
 20
29.012894
 30
0.0
 10
159.946872
 20
29.012894
 30
0.0
  0
ENDSEC
  0
SECTION
  2
OBJECTS
  0
DICTIONARY
  5
C
330
0
100
AcDbDictionary
  3
ACAD_GROUP
350
D
  3
ACAD_MLINESTYLE
350
17
  0
DICTIONARY
  5
D
330
C
100
AcDbDictionary
  0
DICTIONARY
  5
1A
330
C
100
AcDbDictionary
  0
DICTIONARY
  5
17
330
C
100
AcDbDictionary
  3
STANDARD
350
18
  0
DICTIONARY
  5
19
330
C
100
AcDbDictionary
  0
ENDSEC
  0
EOF
