  0
SECTION
  2
HEADER
  9
$ACADVER
  1
AC1014
  9
$HANDSEED
  5
FFFF
  9
$MEASUREMENT
 70
     1
  0
ENDSEC
  0
SECTION
  2
TABLES
  0
TABLE
  2
VPORT
  5
8
330
0
100
AcDbSymbolTable
 70
     4
  0
VPORT
  5
2E
330
8
100
AcDbSymbolTableRecord
100
AcDbViewportTableRecord
  2
*ACTIVE
 70
     0
 10
0.0
 20
0.0
 11
1.0
 21
1.0
 12
210.0
 22
148.5
 13
0.0
 23
0.0
 14
10.0
 24
10.0
 15
10.0
 25
10.0
 16
0.0
 26
0.0
 36
1.0
 17
0.0
 27
0.0
 37
0.0
 40
341.0
 41
1.24
 42
50.0
 43
0.0
 44
0.0
 50
0.0
 51
0.0
 71
     0
 72
   100
 73
     1
 74
     3
 75
     0
 76
     0
 77
     0
 78
     0
  0
ENDTAB
  0
TABLE
  2
LTYPE
  5
5
330
0
100
AcDbSymbolTable
 70
     1
  0
LTYPE
  5
14
330
5
100
AcDbSymbolTableRecord
100
AcDbLinetypeTableRecord
  2
BYBLOCK
 70
     0
  3

 72
    65
 73
     0
 40
0.0
  0
LTYPE
  5
15
330
5
100
AcDbSymbolTableRecord
100
AcDbLinetypeTableRecord
  2
BYLAYER
 70
     0
  3

 72
    65
 73
     0
 40
0.0
  0
LTYPE
  5
16
330
5
100
AcDbSymbolTableRecord
100
AcDbLinetypeTableRecord
  2
CONTINUOUS
 70
     0
  3
Solid line
 72
    65
 73
     0
 40
0.0
  0
ENDTAB
  0
TABLE
  2
LAYER
  5
2
100
AcDbSymbolTable
 70
2
  0
LAYER
  5
50
100
AcDbSymbolTableRecord
100
AcDbLayerTableRecord
  2
0
 70
0
  6
CONTINUOUS
  0
LAYER
  5
51
100
AcDbSymbolTableRecord
100
AcDbLayerTableRecord
  2
Layer_1
 70
0
  6
CONTINUOUS
  0
ENDTAB
  0
TABLE
  2
STYLE
  5
3
330
0
100
AcDbSymbolTable
 70
     1
  0
STYLE
  5
11
330
3
100
AcDbSymbolTableRecord
100
AcDbTextStyleTableRecord
  2
STANDARD
 70
     0
 40
0.0
 41
1.0
 50
0.0
 71
     0
 42
2.5
  3
txt
  4

  0
ENDTAB
  0
TABLE
  2
VIEW
  5
6
330
0
100
AcDbSymbolTable
 70
     0
  0
ENDTAB
  0
TABLE
  2
UCS
  5
7
330
0
100
AcDbSymbolTable
 70
     0
  0
ENDTAB
  0
TABLE
  2
APPID
  5
9
330
0
100
AcDbSymbolTable
 70
     2
  0
APPID
  5
12
330
9
100
AcDbSymbolTableRecord
100
AcDbRegAppTableRecord
  2
ACAD
 70
     0
  0
ENDTAB
  0
TABLE
  2
DIMSTYLE
  5
A
330
0
100
AcDbSymbolTable
 70
     1
  0
DIMSTYLE
105
27
330
A
100
AcDbSymbolTableRecord
100
AcDbDimStyleTableRecord
  2
ISO-25
 70
     0
  3

  4

  5

  6

  7

 40
1.0
 41
2.5
 42
0.625
 43
3.75
 44
1.25
 45
0.0
 46
0.0
 47
0.0
 48
0.0
140
2.5
141
2.5
142
0.0
143
0.03937007874016
144
1.0
145
0.0
146
1.0
147
0.625
 71
     0
 72
     0
 73
     0
 74
     0
 75
     0
 76
     0
 77
     1
 78
     8
170
     0
171
     3
172
     1
173
     0
174
     0
175
     0
176
     0
177
     0
178
     0
270
     2
271
     2
272
     2
273
     2
274
     3
340
11
275
     0
280
     0
281
     0
282
     0
283
     0
284
     8
285
     0
286
     0
287
     3
288
     0
  0
ENDTAB
  0
TABLE
  2
BLOCK_RECORD
  5
1
330
0
100
AcDbSymbolTable
 70
     1
  0
BLOCK_RECORD
  5
1F
330
1
100
AcDbSymbolTableRecord
100
AcDbBlockTableRecord
  2
*MODEL_SPACE
  0
BLOCK_RECORD
  5
1B
330
1
100
AcDbSymbolTableRecord
100
AcDbBlockTableRecord
  2
*PAPER_SPACE
  0
ENDTAB
  0
ENDSEC
  0
SECTION
  2
BLOCKS
  0
BLOCK
  5
20
330
1F
100
AcDbEntity
  8
0
100
AcDbBlockBegin
  2
*MODEL_SPACE
 70
     0
 10
0.0
 20
0.0
 30
0.0
  3
*MODEL_SPACE
  1

  0
ENDBLK
  5
21
330
1F
100
AcDbEntity
  8
0
100
AcDbBlockEnd
  0
BLOCK
  5
1C
330
1B
100
AcDbEntity
 67
     1
  8
0
100
AcDbBlockBegin
  2
*PAPER_SPACE
  1

  0
ENDBLK
  5
1D
330
1B
100
AcDbEntity
 67
     1
  8
0
100
AcDbBlockEnd
  0
ENDSEC
  0
SECTION
  2
ENTITIES
  0
LWPOLYLINE
  5
100
100
AcDbEntity
  8
Layer_1
 62
7
100
AcDbPolyline
 90
13
 70
1
 10
160.000000
 20
44.692581
 30
0.0
 10
159.492184
 20
43.662894
 30
0.0
 10
158.475000
 20
41.603519
 30
0.0
 10
127.129688
 20
-21.908981
 30
0.0
 10
53.631250
 20
-32.588669
 30
0.0
 10
106.815624
 20
-84.430854
 30
0.0
 10
94.259376
 20
-157.632422
 30
0.0
 10
160.000000
 20
-123.071478
 30
0.0
 10
225.740624
 20
-157.632422
 30
0.0
 10
213.184376
 20
-84.430854
 30
0.0
 10
266.368752
 20
-32.590231
 30
0.0
 10
192.870312
 20
-21.908981
 30
0.0
 10
160.000000
 20
44.692581
 30
0.0
  0
LWPOLYLINE
  5
101
100
AcDbEntity
  8
Layer_1
 62
7
100
AcDbPolyline
 90
11
 70
1
 10
160.000000
 20
30.264456
 30
0.0
 10
188.589064
 20
-27.662106
 30
0.0
 10
252.515624
 20
-36.949606
 30
0.0
 10
206.257816
 20
-82.040230
 30
0.0
 10
217.178128
 20
-145.708982
 30
0.0
 10
160.000000
 20
-115.648046
 30
0.0
 10
102.821872
 20
-145.708982
 30
0.0
 10
113.742184
 20
-82.040230
 30
0.0
 10
67.484375
 20
-36.949606
 30
0.0
 10
131.410936
 20
-27.662106
 30
0.0
 10
160.000000
 20
30.264456
 30
0.0
  0
LWPOLYLINE
  5
102
100
AcDbEntity
  8
Layer_1
 62
7
100
AcDbPolyline
 90
77
 70
1
 10
188.575000
 20
-46.413670
 30
0.0
 10
187.982840
 20
-46.490230
 30
0.0
 10
187.185960
 20
-46.857398
 30
0.0
 10
186.704712
 20
-47.027710
 30
0.0
 10
185.637528
 20
-47.791766
 30
0.0
 10
184.717208
 20
-48.727710
 30
0.0
 10
183.912520
 20
-49.838646
 30
0.0
 10
183.209400
 20
-51.121454
 30
0.0
 10
182.167208
 20
-53.769894
 30
0.0
 10
181.482840
 20
-56.724582
 30
0.0
 10
181.482840
 20
-56.787062
 30
0.0
 10
181.170336
 20
-59.690182
 30
0.0
 10
181.268776
 20
-62.671430
 30
0.0
 10
181.268776
 20
-62.730790
 30
0.0
 10
181.503152
 20
-64.221414
 30
0.0
 10
181.851584
 20
-65.583918
 30
0.0
 10
182.318776
 20
-66.855790
 30
0.0
 10
182.910960
 20
-68.030790
 30
0.0
 10
183.490648
 20
-68.869854
 30
0.0
 10
184.187528
 20
-69.568294
 30
0.0
 10
185.004712
 20
-70.093294
 30
0.0
 10
185.925024
 20
-70.408918
 30
0.0
 10
186.896896
 20
-70.487078
 30
0.0
 10
187.868776
 20
-70.351134
 30
0.0
 10
188.832840
 20
-70.027702
 30
0.0
 10
189.801584
 20
-69.540198
 30
0.0
 10
191.896896
 20
-68.035510
 30
0.0
 10
193.928152
 20
-65.921446
 30
0.0
 10
193.928152
 20
-65.838638
 30
0.0
 10
195.310960
 20
-63.862070
 30
0.0
 10
196.721896
 20
-61.321446
 30
0.0
 10
196.721896
 20
-61.271446
 30
0.0
 10
197.737528
 20
-58.915198
 30
0.0
 10
198.628152
 20
-56.257390
 30
0.0
 10
198.628152
 20
-56.224590
 30
0.0
 10
199.246896
 20
-53.823030
 30
0.0
 10
199.692208
 20
-51.499590
 30
0.0
 10
199.770368
 20
-50.987094
 30
0.0
 10
199.439120
 20
-50.423030
 30
0.0
 10
198.723496
 20
-49.838654
 30
0.0
 10
197.715680
 20
-49.694902
 30
0.0
 10
196.776616
 20
-50.108966
 30
0.0
 10
196.346928
 20
-50.877718
 30
0.0
 10
196.301648
 20
-51.037094
 30
0.0
 10
196.286048
 20
-51.115254
 30
0.0
 10
195.990736
 20
-52.884006
 30
0.0
 10
195.525112
 20
-54.865254
 30
0.0
 10
194.920424
 20
-56.846502
 30
0.0
 10
194.151672
 20
-58.827758
 30
0.0
 10
193.189176
 20
-60.662126
 30
0.0
 10
191.903240
 20
-62.624630
 30
0.0
 10
191.903240
 20
-62.573110
 30
0.0
 10
190.934488
 20
-63.705918
 30
0.0
 10
189.706360
 20
-64.629358
 30
0.0
 10
188.962608
 20
-64.926230
 30
0.0
 10
188.518864
 20
-64.899670
 30
0.0
 10
188.048552
 20
-64.610606
 30
0.0
 10
187.420424
 20
-63.791854
 30
0.0
 10
186.834488
 20
-62.580918
 30
0.0
 10
186.451672
 20
-61.335606
 30
0.0
 10
186.451672
 20
-61.384006
 30
0.0
 10
186.176672
 20
-59.765254
 30
0.0
 10
187.626672
 20
-58.771502
 30
0.0
 10
189.142296
 20
-57.349630
 30
0.0
 10
189.184456
 20
-57.307470
 30
0.0
 10
189.240696
 20
-57.241870
 30
0.0
 10
190.403200
 20
-55.573126
 30
0.0
 10
191.282888
 20
-53.787190
 30
0.0
 10
191.282888
 20
-53.674686
 30
0.0
 10
191.664136
 20
-52.169998
 30
0.0
 10
191.745384
 20
-50.587190
 30
0.0
 10
191.581320
 20
-49.116870
 30
0.0
 10
191.057888
 20
-47.769998
 30
0.0
 10
190.257888
 20
-46.905934
 30
0.0
 10
189.206320
 20
-46.469998
 30
0.0
 10
188.656320
 20
-46.418398
 30
0.0
 10
188.575000
 20
-46.413670
 30
0.0
  0
LWPOLYLINE
  5
103
100
AcDbEntity
  8
Layer_1
 62
7
100
AcDbPolyline
 90
26
 70
1
 10
158.532816
 20
-50.187102
 30
0.0
 10
157.946872
 20
-50.276158
 30
0.0
 10
157.312496
 20
-50.562094
 30
0.0
 10
156.623440
 20
-51.079286
 30
0.0
 10
156.073440
 20
-51.738662
 30
0.0
 10
155.682816
 20
-52.505846
 30
0.0
 10
155.448440
 20
-53.377726
 30
0.0
 10
155.448440
 20
-53.504286
 30
0.0
 10
155.448440
 20
-53.530846
 30
0.0
 10
155.487480
 20
-54.969910
 30
0.0
 10
156.006224
 20
-56.383974
 30
0.0
 10
156.585912
 20
-57.102726
 30
0.0
 10
157.446848
 20
-57.569910
 30
0.0
 10
158.426536
 20
-57.590230
 30
0.0
 10
159.267160
 20
-57.258982
 30
0.0
 10
159.951536
 20
-56.737110
 30
0.0
 10
160.474976
 20
-56.087110
 30
0.0
 10
160.843728
 20
-55.337110
 30
0.0
 10
161.064040
 20
-54.507422
 30
0.0
 10
161.167160
 20
-52.979294
 30
0.0
 10
161.004664
 20
-52.173046
 30
0.0
 10
160.670288
 20
-51.410542
 30
0.0
 10
159.929664
 20
-50.590230
 30
0.0
 10
159.328104
 20
-50.282422
 30
0.0
 10
158.812472
 20
-50.190230
 30
0.0
 10
158.532816
 20
-50.187102
 30
0.0
  0
LWPOLYLINE
  5
104
100
AcDbEntity
  8
Layer_1
 62
7
100
AcDbPolyline
 90
13
 70
1
 10
186.892184
 20
-51.301158
 30
0.0
 10
187.007816
 20
-51.552726
 30
0.0
 10
187.170312
 20
-52.296470
 30
0.0
 10
187.170312
 20
-53.098038
 30
0.0
 10
186.996872
 20
-53.974598
 30
0.0
 10
186.659376
 20
-54.798038
 30
0.0
 10
186.206248
 20
-55.499598
 30
0.0
 10
185.896872
 20
-55.823038
 30
0.0
 10
186.137504
 20
-53.487102
 30
0.0
 10
186.357816
 20
-52.508974
 30
0.0
 10
186.720312
 20
-51.523038
 30
0.0
 10
186.720312
 20
-51.591758
 30
0.0
 10
186.892184
 20
-51.301158
 30
0.0
  0
LWPOLYLINE
  5
105
100
AcDbEntity
  8
Layer_1
 62
7
100
AcDbPolyline
 90
111
 70
1
 10
140.909376
 20
-53.313662
 30
0.0
 10
140.907776
 20
-53.315262
 30
0.0
 10
139.973400
 20
-53.333982
 30
0.0
 10
139.956200
 20
-53.333982
 30
0.0
 10
139.973400
 20
-53.351182
 30
0.0
 10
139.890584
 20
-53.332462
 30
0.0
 10
139.298400
 20
-53.388702
 30
0.0
 10
139.042144
 20
-53.535574
 30
0.0
 10
137.154648
 20
-54.755886
 30
0.0
 10
134.824960
 20
-56.532454
 30
0.0
 10
134.824960
 20
-56.573094
 30
0.0
 10
133.304648
 20
-57.926214
 30
0.0
 10
131.673400
 20
-59.699654
 30
0.0
 10
131.673400
 20
-59.784030
 30
0.0
 10
131.245272
 20
-60.440278
 30
0.0
 10
130.948400
 20
-61.199654
 30
0.0
 10
130.939040
 20
-61.868406
 30
0.0
 10
130.928080
 20
-61.868406
 30
0.0
 10
131.009328
 20
-68.698094
 30
0.0
 10
131.185888
 20
-76.463718
 30
0.0
 10
131.185888
 20
-76.468518
 30
0.0
 10
131.364016
 20
-84.220078
 30
0.0
 10
131.364016
 20
-84.223278
 30
0.0
 10
131.424976
 20
-91.281086
 30
0.0
 10
131.318728
 20
-94.109214
 30
0.0
 10
131.079664
 20
-96.271710
 30
0.0
 10
131.079664
 20
-96.223310
 30
0.0
 10
130.751536
 20
-97.613934
 30
0.0
 10
130.256224
 20
-98.806118
 30
0.0
 10
129.874976
 20
-99.345182
 30
0.0
 10
129.285912
 20
-99.896742
 30
0.0
 10
127.262472
 20
-101.252998
 30
0.0
 10
126.789040
 20
-101.602998
 30
0.0
 10
126.343728
 20
-102.251430
 30
0.0
 10
126.232792
 20
-103.106118
 30
0.0
 10
126.490600
 20
-103.909246
 30
0.0
 10
127.076536
 20
-104.513934
 30
0.0
 10
127.724976
 20
-104.802998
 30
0.0
 10
128.440600
 20
-104.979558
 30
0.0
 10
129.176536
 20
-104.917078
 30
0.0
 10
129.637480
 20
-104.782710
 30
0.0
 10
129.895288
 20
-104.503022
 30
0.0
 10
131.849976
 20
-102.535830
 30
0.0
 10
131.849976
 20
-102.595190
 30
0.0
 10
134.249976
 20
-100.723318
 30
0.0
 10
138.542160
 20
-97.762374
 30
0.0
 10
145.173416
 20
-93.713942
 30
0.0
 10
147.626536
 20
-92.373318
 30
0.0
 10
147.664056
 20
-92.356118
 30
0.0
 10
147.698456
 20
-92.335798
 30
0.0
 10
150.387520
 20
-90.946734
 30
0.0
 10
150.395520
 20
-90.943534
 30
0.0
 10
150.395520
 20
-90.941934
 30
0.0
 10
153.140832
 20
-89.698190
 30
0.0
 10
154.393960
 20
-89.277878
 30
0.0
 10
155.331456
 20
-89.077878
 30
0.0
 10
155.522080
 20
-89.290374
 30
0.0
 10
156.015832
 20
-89.849750
 30
0.0
 10
156.812704
 20
-90.076310
 30
0.0
 10
157.537712
 20
-89.930998
 30
0.0
 10
158.411144
 20
-89.421622
 30
0.0
 10
158.358024
 20
-88.495062
 30
0.0
 10
157.958024
 20
-86.424750
 30
0.0
 10
157.729896
 20
-85.365374
 30
0.0
 10
157.372080
 20
-84.462246
 30
0.0
 10
156.714272
 20
-83.757566
 30
0.0
 10
155.829896
 20
-83.382566
 30
0.0
 10
154.937712
 20
-83.348166
 30
0.0
 10
154.053336
 20
-83.527854
 30
0.0
 10
152.986144
 20
-84.030974
 30
0.0
 10
152.959584
 20
-84.043454
 30
0.0
 10
151.723648
 20
-84.670014
 30
0.0
 10
150.417392
 20
-85.338766
 30
0.0
 10
149.481456
 20
-85.884078
 30
0.0
 10
146.601768
 20
-87.752830
 30
0.0
 10
142.092392
 20
-90.845014
 30
0.0
 10
137.036144
 20
-94.257518
 30
0.0
 10
135.920520
 20
-95.049702
 30
0.0
 10
136.447080
 20
-93.668454
 30
0.0
 10
136.447080
 20
-93.618454
 30
0.0
 10
136.797080
 20
-92.270014
 30
0.0
 10
137.075208
 20
-90.638766
 30
0.0
 10
137.320520
 20
-87.051262
 30
0.0
 10
137.320520
 20
-87.018462
 30
0.0
 10
137.320520
 20
-87.009102
 30
0.0
 10
137.269000
 20
-82.318478
 30
0.0
 10
137.269000
 20
-82.309118
 30
0.0
 10
137.277000
 20
-77.407558
 30
0.0
 10
137.277000
 20
-77.399558
 30
0.0
 10
137.277000
 20
-77.387078
 30
0.0
 10
137.195752
 20
-72.816758
 30
0.0
 10
137.195752
 20
-72.815158
 30
0.0
 10
137.206712
 20
-69.026094
 30
0.0
 10
137.206712
 20
-69.016734
 30
0.0
 10
137.206712
 20
-69.015134
 30
0.0
 10
137.281672
 20
-65.229198
 30
0.0
 10
137.281672
 20
-65.224398
 30
0.0
 10
137.531672
 20
-61.432214
 30
0.0
 10
137.531672
 20
-61.466614
 30
0.0
 10
137.912920
 20
-58.960366
 30
0.0
 10
138.001984
 20
-58.655678
 30
0.0
 10
138.116048
 20
-58.460366
 30
0.0
 10
138.798864
 20
-57.890054
 30
0.0
 10
139.862920
 20
-57.346302
 30
0.0
 10
140.951984
 20
-56.986934
 30
0.0
 10
141.716048
 20
-56.377558
 30
0.0
 10
141.878552
 20
-55.305678
 30
0.0
 10
141.606672
 20
-54.460366
 30
0.0
 10
141.098864
 20
-53.749430
 30
0.0
 10
140.909800
 20
-53.655678
 30
0.0
 10
140.909376
 20
-53.313662
 30
0.0
  0
LWPOLYLINE
  5
106
100
AcDbEntity
  8
Layer_1
 62
7
100
AcDbPolyline
 90
123
 70
1
 10
175.178128
 20
-54.598038
 30
0.0
 10
175.178128
 20
-54.599638
 30
0.0
 10
174.324680
 20
-54.724638
 30
0.0
 10
174.305960
 20
-54.727838
 30
0.0
 10
173.498152
 20
-55.109086
 30
0.0
 10
172.259088
 20
-56.066894
 30
0.0
 10
171.218464
 20
-57.354398
 30
0.0
 10
170.479400
 20
-58.749710
 30
0.0
 10
169.934088
 20
-60.201270
 30
0.0
 10
169.530960
 20
-61.670022
 30
0.0
 10
169.349712
 20
-63.180958
 30
0.0
 10
169.349712
 20
-63.246558
 30
0.0
 10
169.349712
 20
-63.313758
 30
0.0
 10
169.493464
 20
-64.479382
 30
0.0
 10
169.723152
 20
-65.160630
 30
0.0
 10
169.690352
 20
-65.271566
 30
0.0
 10
169.673152
 20
-65.362190
 30
0.0
 10
168.999712
 20
-68.991878
 30
0.0
 10
168.404400
 20
-71.151254
 30
0.0
 10
167.574712
 20
-73.496566
 30
0.0
 10
167.574712
 20
-73.485606
 30
0.0
 10
166.779400
 20
-75.415294
 30
0.0
 10
165.824712
 20
-77.285606
 30
0.0
 10
164.809088
 20
-78.643422
 30
0.0
 10
163.793464
 20
-79.469982
 30
0.0
 10
163.457528
 20
-79.613734
 30
0.0
 10
163.374712
 20
-79.621734
 30
0.0
 10
163.163776
 20
-79.351422
 30
0.0
 10
162.860648
 20
-78.649862
 30
0.0
 10
162.535648
 20
-77.479550
 30
0.0
 10
162.151272
 20
-74.115486
 30
0.0
 10
162.151272
 20
-74.131086
 30
0.0
 10
161.916896
 20
-69.956086
 30
0.0
 10
161.916896
 20
-69.948086
 30
0.0
 10
162.007528
 20
-65.902774
 30
0.0
 10
161.999528
 20
-65.902774
 30
0.0
 10
162.030808
 20
-65.559022
 30
0.0
 10
161.932376
 20
-65.023086
 30
0.0
 10
161.708936
 20
-64.098086
 30
0.0
 10
161.102688
 20
-63.519958
 30
0.0
 10
160.287064
 20
-63.262142
 30
0.0
 10
159.265184
 20
-63.571518
 30
0.0
 10
158.549560
 20
-64.234022
 30
0.0
 10
157.751120
 20
-65.290270
 30
0.0
 10
157.751120
 20
-65.346510
 30
0.0
 10
157.249560
 20
-66.201198
 30
0.0
 10
156.985496
 20
-67.390262
 30
0.0
 10
156.985496
 20
-67.458982
 30
0.0
 10
156.794872
 20
-70.621478
 30
0.0
 10
156.794872
 20
-70.657398
 30
0.0
 10
156.794872
 20
-70.665398
 30
0.0
 10
156.780792
 20
-74.934150
 30
0.0
 10
156.780792
 20
-74.945110
 30
0.0
 10
156.780792
 20
-74.985750
 30
0.0
 10
157.090168
 20
-79.204502
 30
0.0
 10
157.090168
 20
-79.248262
 30
0.0
 10
157.404232
 20
-81.146694
 30
0.0
 10
157.979232
 20
-82.629510
 30
0.0
 10
158.655792
 20
-83.559198
 30
0.0
 10
159.458920
 20
-84.212318
 30
0.0
 10
159.637048
 20
-84.313886
 30
0.0
 10
159.807360
 20
-84.370126
 30
0.0
 10
161.263608
 20
-84.681062
 30
0.0
 10
161.371416
 20
-84.681062
 30
0.0
 10
161.435496
 20
-84.681062
 30
0.0
 10
162.308936
 20
-84.587318
 30
0.0
 10
163.163624
 20
-84.316998
 30
0.0
 10
164.357376
 20
-83.731062
 30
0.0
 10
165.726120
 20
-82.745126
 30
0.0
 10
167.041744
 20
-81.431062
 30
0.0
 10
168.224560
 20
-79.888878
 30
0.0
 10
168.762056
 20
-78.965438
 30
0.0
 10
169.213624
 20
-79.249814
 30
0.0
 10
170.008936
 20
-79.512310
 30
0.0
 10
170.835496
 20
-79.612310
 30
0.0
 10
171.905808
 20
-79.527942
 30
0.0
 10
172.993312
 20
-79.257630
 30
0.0
 10
174.098000
 20
-78.818566
 30
0.0
 10
175.246432
 20
-78.213878
 30
0.0
 10
176.160496
 20
-77.571686
 30
0.0
 10
177.437064
 20
-76.448254
 30
0.0
 10
177.437064
 20
-76.404494
 30
0.0
 10
178.296432
 20
-75.510742
 30
0.0
 10
179.224560
 20
-74.076366
 30
0.0
 10
179.954248
 20
-72.406054
 30
0.0
 10
180.346432
 20
-70.593558
 30
0.0
 10
180.346432
 20
-70.495118
 30
0.0
 10
180.346432
 20
-70.487118
 30
0.0
 10
180.346432
 20
-69.476174
 30
0.0
 10
180.154248
 20
-68.390238
 30
0.0
 10
179.787064
 20
-67.321486
 30
0.0
 10
179.241744
 20
-66.238678
 30
0.0
 10
178.390184
 20
-65.151174
 30
0.0
 10
177.274560
 20
-64.323054
 30
0.0
 10
175.146432
 20
-63.201174
 30
0.0
 10
175.146432
 20
-63.199574
 30
0.0
 10
173.419872
 20
-62.354262
 30
0.0
 10
173.107376
 20
-62.140198
 30
0.0
 10
172.987064
 20
-61.993326
 30
0.0
 10
172.857376
 20
-61.580822
 30
0.0
 10
173.076120
 20
-60.879262
 30
0.0
 10
173.076120
 20
-61.029262
 30
0.0
 10
173.485496
 20
-60.476134
 30
0.0
 10
174.055808
 20
-60.026134
 30
0.0
 10
174.679248
 20
-59.794886
 30
0.0
 10
174.688608
 20
-59.794886
 30
0.0
 10
174.810480
 20
-59.855846
 30
0.0
 10
174.851120
 20
-59.888646
 30
0.0
 10
174.977688
 20
-59.938646
 30
0.0
 10
175.533936
 20
-60.158958
 30
0.0
 10
176.182376
 20
-60.101118
 30
0.0
 10
176.794872
 20
-59.780806
 30
0.0
 10
177.277688
 20
-59.043310
 30
0.0
 10
177.326088
 20
-58.451118
 30
0.0
 10
177.326088
 20
-58.296430
 30
0.0
 10
177.310488
 20
-58.207374
 30
0.0
 10
177.287048
 20
-57.377686
 30
0.0
 10
177.210488
 20
-56.555838
 30
0.0
 10
177.160488
 20
-55.991774
 30
0.0
 10
176.969872
 20
-55.363654
 30
0.0
 10
176.590184
 20
-54.846462
 30
0.0
 10
176.035488
 20
-54.597990
 30
0.0
 10
175.178128
 20
-54.598038
 30
0.0
  0
LWPOLYLINE
  5
107
100
AcDbEntity
  8
Layer_1
 62
7
100
AcDbPolyline
 90
19
 70
1
 10
172.506248
 20
-68.235534
 30
0.0
 10
173.585936
 20
-68.829286
 30
0.0
 10
174.939064
 20
-69.641782
 30
0.0
 10
175.440624
 20
-70.087102
 30
0.0
 10
175.854688
 20
-70.658974
 30
0.0
 10
176.201560
 20
-71.446470
 30
0.0
 10
176.265640
 20
-72.019910
 30
0.0
 10
176.154704
 20
-72.621470
 30
0.0
 10
175.918768
 20
-73.187102
 30
0.0
 10
175.592200
 20
-73.640222
 30
0.0
 10
175.159392
 20
-74.071470
 30
0.0
 10
174.117200
 20
-74.755846
 30
0.0
 10
173.210952
 20
-75.088662
 30
0.0
 10
172.275016
 20
-75.046502
 30
0.0
 10
171.278144
 20
-74.679318
 30
0.0
 10
170.832832
 20
-74.351190
 30
0.0
 10
171.493768
 20
-72.476190
 30
0.0
 10
172.232832
 20
-69.698070
 30
0.0
 10
172.506248
 20
-68.235534
 30
0.0
  0
LWPOLYLINE
  5
108
100
AcDbEntity
  8
Layer_1
 62
7
100
AcDbPolyline
 90
5
 70
1
 10
155.129696
 20
-88.869910
 30
0.0
 10
155.173456
 20
-88.902710
 30
0.0
 10
155.279704
 20
-89.021454
 30
0.0
 10
155.262504
 20
-89.019854
 30
0.0
 10
155.129696
 20
-88.869910
 30
0.0
  0
LWPOLYLINE
  5
109
100
AcDbEntity
  8
Layer_1
 62
7
100
AcDbPolyline
 90
5
 70
1
 10
204.000000
 20
5.650386
 30
0.0
 10
205.600045
 20
5.650386
 30
0.0
 10
205.600045
 20
4.850385
 30
0.0
 10
204.000000
 20
4.850385
 30
0.0
 10
204.000000
 20
5.650386
 30
0.0
  0
ENDSEC
  0
SECTION
  2
OBJECTS
  0
DICTIONARY
  5
C
330
0
100
AcDbDictionary
  3
ACAD_GROUP
350
D
  3
ACAD_MLINESTYLE
350
17
  0
DICTIONARY
  5
D
330
C
100
AcDbDictionary
  0
DICTIONARY
  5
1A
330
C
100
AcDbDictionary
  0
DICTIONARY
  5
17
330
C
100
AcDbDictionary
  3
STANDARD
350
18
  0
DICTIONARY
  5
19
330
C
100
AcDbDictionary
  0
ENDSEC
  0
EOF
