<?xml version="1.0" encoding="UTF-8" standalone="no"?>
<!-- Created with Inkscape (http://www.inkscape.org/) -->

<svg
   xmlns:dc="http://purl.org/dc/elements/1.1/"
   xmlns:cc="http://creativecommons.org/ns#"
   xmlns:rdf="http://www.w3.org/1999/02/22-rdf-syntax-ns#"
   xmlns:svg="http://www.w3.org/2000/svg"
   xmlns="http://www.w3.org/2000/svg"
   xmlns:sodipodi="http://sodipodi.sourceforge.net/DTD/sodipodi-0.dtd"
   xmlns:inkscape="http://www.inkscape.org/namespaces/inkscape"
   width="48mm"
   height="13mm"
   viewBox="0 0 170.07876 46.062993"
   id="svg2"
   version="1.1"
   inkscape:version="0.91 r13725"
   sodipodi:docname="design2.svg">
  <sodipodi:namedview
     id="base"
     pagecolor="#ffffff"
     bordercolor="#666666"
     borderopacity="1.0"
     inkscape:pageopacity="0.0"
     inkscape:pageshadow="2"
     inkscape:zoom="1.4142136"
     inkscape:cx="158.88448"
     inkscape:cy="70.80743"
     inkscape:document-units="mm"
     inkscape:current-layer="layer1"
     showgrid="true"
     fit-margin-top="0"
     fit-margin-left="0"
     fit-margin-right="0"
     fit-margin-bottom="0"
     inkscape:window-width="1920"
     inkscape:window-height="1029"
     inkscape:window-x="1600"
     inkscape:window-y="25"
     inkscape:window-maximized="1"
     showguides="true"
     inkscape:snap-global="false"
     inkscape:snap-bbox="true"
     inkscape:bbox-paths="true"
     inkscape:bbox-nodes="true"
     inkscape:snap-bbox-edge-midpoints="true"
     inkscape:snap-bbox-midpoints="true"
     inkscape:object-paths="true"
     inkscape:snap-intersection-paths="true"
     inkscape:object-nodes="true"
     inkscape:snap-smooth-nodes="true"
     inkscape:snap-object-midpoints="true"
     inkscape:snap-center="true">
    <inkscape:grid
       type="xygrid"
       id="grid4319"
       empcolor="#3f3fff"
       empopacity="0.26666667"
       color="#3f3fff"
       opacity="0.19215686"
       originx="-970.00013"
       originy="-718.93703" />
  </sodipodi:namedview>
  <defs
     id="defs4" />
  <metadata
     id="metadata7">
    <rdf:RDF>
      <cc:Work
         rdf:about="">
        <dc:format>image/svg+xml</dc:format>
        <dc:type
           rdf:resource="http://purl.org/dc/dcmitype/StillImage" />
        <dc:title></dc:title>
      </cc:Work>
    </rdf:RDF>
  </metadata>
  <g
     inkscape:label="Layer 1"
     inkscape:groupmode="layer"
     id="layer1"
     transform="translate(-970,-287.36217)">
    <g
       id="layer1-0"
       inkscape:label="Layer 1"
       transform="matrix(0.34003939,0,0,0.34003939,-98.835389,-17.02608)">
      <g
         id="g4531"
         transform="matrix(0.99506107,0,0,0.99995048,1539.2753,-107.54376)">
        <g
           transform="matrix(0.3574934,0,0,0.41524149,1100.2387,663.7409)"
           id="g4519">
          <g
             transform="matrix(1.0493589,0,0,1.0493589,-84.522912,-55.326559)"
             id="g4523" />
        </g>
      </g>
    </g>
    <path
       id="path4247-8-6"
       style="color:#000000;font-style:normal;font-variant:normal;font-weight:normal;font-stretch:normal;font-size:medium;line-height:normal;font-family:sans-serif;text-indent:0;text-align:start;text-decoration:none;text-decoration-line:none;text-decoration-style:solid;text-decoration-color:#000000;letter-spacing:normal;word-spacing:normal;text-transform:none;direction:ltr;block-progression:tb;writing-mode:lr-tb;baseline-shift:baseline;text-anchor:start;white-space:normal;clip-rule:nonzero;display:inline;overflow:visible;visibility:visible;opacity:0.95999995;isolation:auto;mix-blend-mode:normal;color-interpolation:sRGB;color-interpolation-filters:linearRGB;solid-color:#000000;solid-opacity:1;fill:#000000;fill-opacity:1;fill-rule:nonzero;stroke:none;stroke-width:2.83464622;stroke-linecap:butt;stroke-linejoin:miter;stroke-miterlimit:3.9000001;stroke-dasharray:none;stroke-dashoffset:0;stroke-opacity:1;color-rendering:auto;image-rendering:auto;shape-rendering:auto;text-rendering:auto;enable-background:accumulate"
       d="m 1170,279.16016 -1.2715,2.57422 -39.3457,79.7246 -90.8203,13.19532 65.7187,64.06054 -15.5156,90.45508 81.2344,-42.70703 81.2344,42.70703 -15.5156,-90.45508 65.7187,-64.05859 -90.8203,-13.19727 L 1170,279.16016 Z m 0,6.40625 38.7344,78.48242 86.6152,12.58594 -62.6758,61.09179 14.7969,86.26172 -77.4707,-40.72656 -77.4707,40.72656 14.7969,-86.26172 -62.6758,-61.09179 86.6152,-12.58594 L 1170,285.56641 Z m -239.35156,-70.625 -1.26953,2.57617 -39.34571,79.72265 -90.82226,13.19727 65.71875,64.06055 -15.51367,90.45507 81.23242,-42.70703 81.23436,42.70703 -15.51366,-90.45507 65.71876,-64.06055 -90.82228,-13.19727 -40.61718,-82.29882 z m 0,6.40429 38.73437,78.48633 86.61329,12.58594 -62.67383,61.08984 14.79493,86.26367 -77.46876,-40.72851 -77.4668,40.72851 14.79297,-86.26367 -62.67188,-61.08984 86.61133,-12.58594 38.73438,-78.48633 z m 239.67576,-182.578122 -1.2715,2.576172 -39.3457,79.72266 -90.8203,13.19726 65.7188,64.06055 -15.5137,90.45508 81.2324,-42.70703 81.2344,42.70703 -15.5156,-90.45508 65.7207,-64.06055 -90.8223,-13.19726 -40.6172,-82.298832 z m 0,6.40625 38.7344,78.484372 86.6133,12.58594 -62.6739,61.08984 14.795,86.26368 -77.4688,-40.72852 -77.4668,40.72852 14.793,-86.26368 -62.6719,-61.09179 86.6113,-12.58399 38.7344,-78.484372 z m -238.47068,-72.828125 -1.27149,2.576172 -39.3457,79.722656 -90.82227,13.197266 65.71875,64.060543 -15.51367,90.45508 81.23438,-42.70703 81.23238,42.70703 -15.51363,-90.45508 65.71873,-64.060543 -90.82225,-13.197266 -40.61523,-82.298828 z m -0.002,6.404297 38.73438,78.486328 86.6133,12.585938 -62.67385,61.089844 14.79495,86.26367 -77.46682,-40.72851 -77.46875,40.72851 14.79492,-86.26367 L 806.50586,69.822266 893.11914,57.236328 931.85156,-21.25 Z m 51.52153,99.81334 c -0.0659,0.0019 -0.12878,0.01427 -0.19141,0.03711 -0.37578,0.13707 -0.94061,0.73266 -1.69141,1.78711 -0.711,0.96898 -1.54052,2.19395 -2.49023,3.67578 -0.88708,1.45899 -1.8334,3.04631 -2.83984,4.76172 -0.94381,1.69257 -1.81754,3.28834 -2.61914,4.78711 0.16862,-2.26137 0.42986,-4.27288 0.78125,-6.0332 0.39116,-1.8458 0.54059,-2.89401 0.44921,-3.14453 -0.13707,-0.37579 -0.42028,-0.66241 -0.84765,-0.86133 -0.42738,-0.19893 -0.82735,-0.23082 -1.20313,-0.09375 -0.37578,0.13707 -0.60211,0.39761 -0.67578,0.77929 -0.1119,2.02779 -0.28896,4.36281 -0.53125,7.00586 -0.11799,1.14837 -0.23826,2.19806 -0.35742,3.30469 -0.34062,1.13325 -0.75886,2.31869 -1.27734,3.57227 -0.82958,2.00572 -1.79935,3.9204 -2.90821,5.74414 -1.06906,1.73825 -2.17485,3.27755 -3.31836,4.61718 -1.14351,1.33964 -2.24778,2.20344 -3.3125,2.5918 -0.68892,0.2513 -1.23609,0.30817 -1.64062,0.17188 -0.42738,-0.19893 -0.7786,-0.67422 -1.05274,-1.42578 -0.31983,-0.87683 -0.4413,-2.18054 -0.36328,-3.91211 0.078,-1.73158 0.26012,-3.57132 0.54297,-5.51953 0.32264,-2.0337 0.69795,-4.01599 1.12891,-5.94727 0.43095,-1.93128 0.8094,-3.52396 1.13281,-4.77734 0.13038,-0.61527 0.14997,-1.04831 0.0586,-1.29883 -0.0914,-0.25052 -0.30849,-0.45414 -0.65039,-0.61328 -0.30212,-0.24462 -0.57955,-0.32185 -0.83007,-0.23047 -0.37578,0.13707 -0.93867,0.73265 -1.68946,1.78711 -0.711,0.96898 -1.54053,2.19395 -2.49023,3.67578 -0.88709,1.45898 -1.83341,3.0463 -2.83985,4.76172 -0.9438,1.69256 -1.81753,3.28833 -2.61914,4.78711 0.16862,-2.26137 0.42987,-4.27288 0.78125,-6.03321 0.39117,-1.8458 0.5406,-2.89401 0.44922,-3.14453 -0.13706,-0.37578 -0.42027,-0.6624 -0.84765,-0.86133 -0.42738,-0.19892 -0.82929,-0.22886 -1.20508,-0.09179 -0.37578,0.13707 -0.60016,0.39565 -0.67383,0.77734 -0.11189,2.02779 -0.28896,4.3628 -0.53125,7.00586 -0.26513,2.58043 -0.53365,5.0561 -0.80469,7.42578 -0.50539,1.53265 -0.98102,2.94898 -1.42969,4.24805 -0.40888,1.2136 -0.51029,2.10235 -0.30468,2.66601 0.0685,0.1879 0.32253,0.59055 0.76172,1.21094 0.50182,0.59755 0.90755,0.84079 1.2207,0.72656 0.12526,-0.0457 0.24592,-0.30237 0.35937,-0.76953 0.47074,-2.01675 0.81035,-3.80846 1.01954,-5.375 0.27181,-1.58938 0.62373,-3.34997 1.05468,-5.28125 0.31238,-0.89454 0.74574,-1.94006 1.30274,-3.13672 0.61962,-1.2195 1.25206,-2.40758 1.89453,-3.56445 0.68225,-1.24234 1.35617,-2.41162 2.02148,-3.50586 0.66531,-1.09424 1.262,-1.98607 1.79102,-2.67578 0.24461,-0.30212 0.44364,-0.339 0.59765,-0.11133 0.19383,0.1422 0.28451,0.39311 0.27344,0.75195 -0.0839,1.52085 -0.30941,3.23415 -0.67773,5.14258 -0.3057,1.88559 -0.62263,3.7415 -0.95117,5.56446 -0.26591,1.80011 -0.46028,3.50306 -0.58399,5.10937 -0.14655,1.54369 -0.0601,2.75403 0.25977,3.63086 0.31983,0.87679 0.82664,1.29444 1.52148,1.25391 0.71768,0.0221 1.45156,-0.10476 2.20313,-0.37891 1.62838,-0.59397 3.14112,-1.6061 4.53515,-3.03711 1.45666,-1.45385 2.76993,-3.10459 3.94141,-4.95117 1.23411,-1.86942 2.28493,-3.84826 3.1543,-5.93945 0.25345,-0.60682 0.46147,-1.188 0.6875,-1.7793 -0.0458,0.4081 -0.0907,0.85773 -0.13672,1.25976 -0.5054,1.53266 -0.98297,2.94703 -1.43164,4.2461 -0.40888,1.21359 -0.51029,2.10234 -0.30469,2.66601 0.0685,0.1879 0.32253,0.5925 0.76172,1.21289 0.50181,0.59756 0.9095,0.83884 1.22265,0.72461 0.12526,-0.0457 0.24397,-0.30236 0.35743,-0.76953 0.47074,-2.01675 0.81035,-3.80652 1.01953,-5.37304 0.27182,-1.58938 0.62373,-3.34998 1.05468,-5.28125 0.31238,-0.89454 0.74575,-1.94007 1.30274,-3.13672 0.61962,-1.2195 1.25206,-2.40759 1.89453,-3.56446 0.68225,-1.24234 1.35618,-2.41162 2.02148,-3.50585 0.66532,-1.09424 1.262,-1.98608 1.79102,-2.67579 0.24461,-0.30211 0.44364,-0.339 0.59766,-0.11132 0.19382,0.1422 0.2845,0.39311 0.27343,0.75195 -0.0839,1.52084 -0.3094,3.23414 -0.67773,5.14258 -0.30569,1.88558 -0.62263,3.73954 -0.95117,5.5625 -0.26591,1.80011 -0.46028,3.50501 -0.58399,5.11132 -0.14656,1.54369 -0.0601,2.75404 0.25977,3.63086 0.31983,0.8768 0.82664,1.29444 1.52148,1.25391 0.71768,0.0221 1.45157,-0.10477 2.20313,-0.37891 1.62838,-0.59397 3.14112,-1.60609 4.53515,-3.0371 1.45666,-1.45386 2.76992,-3.1046 3.94141,-4.95118 1.23411,-1.86942 2.28689,-3.84826 3.15625,-5.93945 0.90915,-2.17667 1.64105,-4.2535 2.19727,-6.23047 0.17608,-0.49001 0.12688,-0.72211 -0.14649,-0.69336 -0.2962,-0.03388 -0.47256,0.0672 -0.52929,0.30078 -0.37424,1.6977 -0.97511,3.54897 -1.80469,5.55469 -0.82958,2.00572 -1.79935,3.92041 -2.90821,5.74414 -1.06906,1.73826 -2.17484,3.27756 -3.31835,4.61719 -1.14351,1.33963 -2.24779,2.20343 -3.3125,2.5918 -0.68894,0.25129 -1.2361,0.30816 -1.64063,0.17187 -0.42738,-0.19893 -0.77859,-0.67422 -1.05273,-1.42578 -0.31984,-0.87683 -0.43935,-2.18053 -0.36133,-3.91211 0.078,-1.73158 0.25817,-3.57131 0.54101,-5.51953 0.32264,-2.03369 0.69796,-4.01599 1.12891,-5.94727 0.43096,-1.93127 0.80941,-3.52396 1.13281,-4.77734 0.13038,-0.61527 0.14998,-1.04831 0.0586,-1.29883 -0.0914,-0.25052 -0.30849,-0.45609 -0.65039,-0.61523 -0.22659,-0.18346 -0.43916,-0.27116 -0.63672,-0.26563 z m -76.80078,4.24414 c -1.56576,0.57113 -3.29366,1.37768 -5.1836,2.42188 -1.8273,1.02135 -3.30697,2.02311 -4.43945,3.0039 -0.26746,0.23949 -0.52492,0.51039 -0.76953,0.8125 -0.2048,0.21664 -0.31316,0.50444 -0.32422,0.86329 -0.45893,2.43822 -0.9272,5.23471 -1.4082,8.39062 -0.50385,3.09328 -1.00597,6.29169 -1.50391,9.5957 -0.45815,3.21854 -0.95833,6.41891 -1.50195,9.59766 -0.481,3.15591 -0.98044,6.06843 -1.4961,8.74023 -0.51565,2.6718 -1.03621,4.74287 -1.56445,6.21289 -0.48846,1.38454 -1.12091,2.57263 -1.89453,3.56446 -0.48924,0.60423 -1.14934,1.12912 -1.98047,1.57422 -0.83113,0.44509 -1.81015,0.87394 -2.9375,1.28515 -0.50104,0.18276 -0.682,0.46211 -0.54492,0.83789 0.0685,0.18789 0.2299,0.34158 0.48633,0.46094 0.27927,0.18197 0.55671,0.25725 0.83007,0.22852 0.72281,-0.54751 1.56964,-1.14041 2.54297,-1.7793 0.99618,-0.57626 2.30721,-1.26561 3.92969,-2.07031 1.62248,-0.80472 3.63046,-1.71621 6.02734,-2.73243 2.45952,-1.03906 5.50612,-2.22185 9.13868,-3.54687 1.06471,-0.38837 2.20319,-0.76725 3.41601,-1.13867 1.18997,-0.43406 2.43413,-0.8168 3.73242,-1.14844 1.27546,-0.39427 2.54228,-0.71477 3.80078,-0.96094 1.25852,-0.24619 2.42739,-0.35344 3.50391,-0.32031 0.42147,-0.0118 0.71963,0.12766 0.89648,0.41797 0.23949,0.26746 0.41703,0.55794 0.53125,0.87109 0.0914,0.2505 0.19896,0.35231 0.32422,0.30664 0.0678,-0.59242 0.0551,-1.40276 -0.0371,-2.43359 -0.007,-0.99105 -0.0655,-1.64388 -0.17968,-1.95703 -0.22846,-0.6263 -0.89091,-0.88063 -1.98438,-0.76563 -0.27336,0.0288 -0.65911,0.13364 -1.16015,0.31641 -0.52389,0.12013 -1.06915,0.28267 -1.63282,0.48828 -0.58652,0.14298 -1.16093,0.31783 -1.72461,0.52344 l -1.2207,0.44531 c -0.75156,0.27414 -2.04373,0.81634 -3.87695,1.62695 -1.83322,0.81062 -3.90539,1.74478 -6.2168,2.80079 -2.27163,0.97053 -4.5947,1.99537 -6.96875,3.07421 -2.37404,1.07886 -4.40473,2.03183 -6.08984,2.85938 -0.56358,0.2054 -0.84752,0.20292 -0.85352,-0.008 -0.006,-0.21074 0.14393,-0.47973 0.45117,-0.80469 1.34834,-1.55627 2.52291,-3.29651 3.52344,-5.22266 1.04031,-2.01162 1.85599,-4.54416 2.44531,-7.59765 0.32854,-1.82296 0.65393,-3.75147 0.97657,-5.78516 0.38526,-2.05653 0.75022,-4.06995 1.0957,-6.04102 0.32263,-2.03369 0.62921,-3.92072 0.91797,-5.6582 0.32854,-1.82296 0.61167,-3.38066 0.84961,-4.67383 0.23203,-1.5039 0.54628,-3.07391 0.94336,-4.70898 0.37422,-1.6977 0.76302,-3.25731 1.16601,-4.68164 0.3691,-1.12812 0.72987,-2.1821 1.08203,-3.16211 0.35216,-0.98001 1.12253,-1.68704 2.3125,-2.12109 0.68894,-0.2513 1.26336,-0.42616 1.72461,-0.52344 0.52389,-0.12013 0.9965,-0.18545 1.41797,-0.19727 0.14223,-0.19379 0.1572,-0.44857 0.043,-0.76172 -0.0516,-0.33599 -0.25639,-0.50849 -0.61523,-0.51953 z m 30.54101,12.27735 c -0.4384,0.15991 -0.83147,0.83464 -1.17773,2.02539 -0.28362,1.1679 -0.54986,2.57846 -0.79883,4.23047 -0.53772,3.38948 -0.98142,6.35389 -1.33203,8.89453 -0.31082,2.45516 -0.64584,4.06861 -1.00391,4.83789 -0.1363,0.40453 -0.38603,0.88481 -0.75,1.44336 -0.38682,0.4959 -0.80642,1.00272 -1.25586,1.52148 -0.44945,0.51876 -0.88976,0.96529 -1.32226,1.33594 -0.43251,0.37065 -0.80599,0.61233 -1.11914,0.72656 -0.68894,0.25129 -1.16922,0.002 -1.44336,-0.75 -0.5026,-1.37787 -0.44811,-3.56187 0.16406,-6.55273 0.65195,-3.07634 1.38572,-6.99946 2.20117,-11.76758 -0.0685,-0.18789 -0.22799,-0.23591 -0.47852,-0.14453 -0.12526,0.0457 -0.44686,0.23358 -0.96484,0.56445 -0.4782,0.24539 -0.86204,0.45596 -1.15234,0.63281 -0.1422,0.1938 -0.27322,0.41936 -0.39258,0.67578 -0.0796,0.17095 -0.18792,0.45875 -0.32422,0.86329 -0.95842,4.18161 -1.76407,7.81038 -2.41602,10.88671 -0.61216,2.99087 -0.68932,5.11264 -0.23242,6.36524 0.27414,0.75157 0.73103,1.22495 1.36914,1.41797 0.63812,0.19302 1.39467,0.12842 2.27149,-0.19141 1.2526,-0.45691 2.36074,-1.21503 3.32226,-2.27539 0.93868,-1.12299 1.64949,-2.09128 2.13282,-2.90625 0.0398,-0.0855 0.11047,-0.1827 0.21289,-0.29102 0.1024,-0.10831 0.13543,-0.015 0.10156,0.28126 -0.56057,3.32685 -1.21902,6.86686 -1.97852,10.62109 -0.73665,3.81686 -1.61108,7.64853 -2.62109,11.49414 -0.94739,3.82277 -2.03311,7.55453 -3.25977,11.19531 -1.22666,3.64079 -2.64288,6.95949 -4.24609,9.95703 -1.66584,3.02039 -3.52201,5.61484 -5.57031,7.78125 -2.0881,2.25189 -4.41654,3.84656 -6.98438,4.78321 -3.19414,1.1651 -5.66863,1.2862 -7.42383,0.36523 -1.7552,-0.92096 -2.94177,-2.22696 -3.55859,-3.91797 -0.0914,-0.25052 -0.1886,-0.32121 -0.29101,-0.21289 -0.10252,0.10832 -0.15054,0.26778 -0.14454,0.47852 -0.011,0.35884 0.0439,0.80033 0.16407,1.32422 0.0803,0.60936 0.21176,1.16497 0.39453,1.66601 0.79958,2.19206 2.07952,3.46307 3.83984,3.81445 1.76033,0.35139 3.54896,0.19571 5.36524,-0.46679 3.06888,-1.11942 5.77271,-2.8501 8.11132,-5.19336 2.27598,-2.32042 4.31696,-5.08855 6.125,-8.30274 1.74542,-3.19134 3.28035,-6.76672 4.60352,-10.72656 1.34601,-3.8972 2.55049,-7.99132 3.61133,-12.28125 1.08368,-4.2273 2.07755,-8.59957 2.98437,-13.11719 0.9923,-4.47782 1.98813,-8.8501 2.98633,-13.11718 0.5054,-1.53266 1.00833,-3.17068 1.50781,-4.91407 0.56212,-1.76623 1.0631,-3.40425 1.50586,-4.91406 0.41992,-1.57243 0.75226,-2.89999 0.9961,-3.98242 0.22099,-1.14506 0.28669,-1.84323 0.19531,-2.09375 -0.18276,-0.50104 -0.49055,-0.95557 -0.92383,-1.36523 -0.37065,-0.43251 -0.70379,-0.66534 -1,-0.69922 z m 303.83402,46.60742 c -0.4074,0.0249 -0.9128,0.21721 -1.5137,0.57617 -1.4309,0.85467 -2.6212,2.30494 -3.5742,4.34961 -0.93,1.95325 -1.5744,4.12483 -1.9336,6.51367 -0.3933,2.33161 -0.4552,4.69809 -0.1856,7.09961 0.049,0.38249 0.1189,0.74042 0.1856,1.10352 -0.4238,1.91613 -0.9673,3.78341 -1.6445,5.5957 -0.7241,1.90793 -1.5207,3.62592 -2.3926,5.15625 -0.872,1.53033 -1.7946,2.58679 -2.7676,3.16797 -0.6296,0.37604 -1.1572,0.53456 -1.5801,0.47656 -0.4571,-0.11523 -0.8906,-0.51632 -1.3008,-1.20312 -0.4786,-0.80128 -0.8417,-2.05796 -1.0898,-3.77344 -0.2481,-1.71548 -0.4164,-3.55675 -0.5039,-5.52344 -0.068,-2.05811 -0.071,-4.07685 -0.01,-6.05469 0.061,-1.97783 0.1342,-3.6125 0.2168,-4.90429 0.013,-0.62881 -0.051,-1.05818 -0.1875,-1.28711 -0.1367,-0.22894 -0.3882,-0.38829 -0.7539,-0.48047 -0.3426,-0.18362 -0.6285,-0.20706 -0.8574,-0.0703 -0.3434,0.20512 -0.7846,0.8957 -1.3242,2.07226 -0.5167,1.08514 -1.101,2.44447 -1.7559,4.07813 -0.5977,1.59947 -1.2316,3.33525 -1.8984,5.20898 -0.6096,1.83955 -1.1676,3.57083 -1.6739,5.19336 -0.2588,-2.25287 -0.3805,-4.27727 -0.3652,-6.07227 0.038,-1.88641 -0.01,-2.94294 -0.1465,-3.17187 -0.2051,-0.34341 -0.537,-0.57422 -0.9941,-0.68945 -0.4571,-0.11524 -0.8578,-0.0704 -1.2012,0.13476 -0.3441,0.20512 -0.5156,0.50385 -0.5156,0.89258 0.2704,2.01279 0.5333,4.33888 0.791,6.98047 0.084,0.97217 0.1489,1.85774 0.2266,2.80078 -0.3032,1.78362 -0.6724,3.55187 -1.1133,5.30078 -0.5651,2.43417 -1.2031,4.67976 -1.916,6.73633 -0.7471,1.99935 -1.5456,3.71734 -2.3946,5.15625 -0.8831,1.38168 -1.7815,2.34754 -2.6972,2.89453 -0.8013,0.47861 -1.4482,0.63146 -1.9395,0.45898 -0.434,-0.20666 -0.8056,-0.56887 -1.1133,-1.08398 -0.7863,-1.31638 -1.3803,-3.67802 -1.7851,-7.08594 -0.3818,-3.49933 -0.641,-8.35397 -0.7774,-14.5625 0.3434,-0.20512 0.8747,-0.48293 1.5957,-0.83593 0.721,-0.353 1.2875,-0.57537 1.6993,-0.66602 0.1716,-0.10256 0.206,-0.24041 0.1035,-0.41211 -0.1026,-0.17171 -0.331,-0.22834 -0.6856,-0.17187 -0.3203,0.1137 -0.7841,0.31302 -1.3906,0.59765 -0.6065,0.28463 -1.0517,0.51266 -1.3379,0.6836 0.011,-0.6288 0.011,-1.21262 0,-1.75 0.013,-0.62881 0.076,-1.17181 0.1914,-1.62891 l -0.2226,0.0176 -1.9942,2.12109 c -0.1605,0.25121 -0.2867,0.5601 -0.3789,0.92578 -0.093,0.36568 -0.1107,0.92079 -0.055,1.66407 -2.4038,1.43583 -4.313,3.50795 -5.7246,6.21484 -1.4458,2.64966 -2.4906,5.44798 -3.1367,8.39648 -0.512,2.34789 -0.7437,4.61008 -0.7227,6.79688 -0.343,1.21982 -0.7405,2.44476 -1.207,3.67383 -0.6668,1.87374 -1.4468,3.62043 -2.3418,5.24218 -0.9292,1.56452 -1.9666,2.68932 -3.1113,3.37305 -0.6296,0.37605 -1.2312,0.54101 -1.8027,0.49414 -0.5486,-0.13828 -1.0273,-0.55147 -1.4375,-1.23828 -0.3761,-0.62957 -0.7173,-1.59025 -1.0235,-2.88281 -0.2488,-1.32676 -0.4341,-2.80816 -0.5566,-4.44336 -0.1568,-1.69244 -0.2732,-3.44759 -0.3496,-5.26563 -0.019,-1.85222 0,-3.573 0.062,-5.16211 0.046,-0.18284 0.029,-0.40484 -0.051,-0.66797 -0.022,-0.2973 -0.068,-0.50467 -0.1367,-0.61914 -0.1026,-0.1716 -0.2959,-0.17093 -0.5821,0 -0.2289,0.13674 -0.6134,0.59889 -1.1523,1.38672 -0.5159,0.69641 -0.7803,1.35948 -0.793,1.98828 -0.082,0.90307 -0.146,2.22319 -0.1953,3.96094 0.01,1.70357 0.022,3.48176 0.041,5.33399 0.076,1.81804 0.2216,3.55464 0.4356,5.21289 0.1797,1.60101 0.4911,2.77353 0.9355,3.51757 0.376,0.62958 0.7974,1.07791 1.2656,1.3418 0.4913,0.17249 0.9769,0.26917 1.4571,0.29297 0.5373,-0.0104 1.0528,-0.12359 1.5449,-0.33984 0.4921,-0.21626 0.9105,-0.42574 1.2539,-0.63086 0.973,-0.58118 1.9398,-1.43223 2.9024,-2.55078 0.9626,-1.11856 1.7938,-2.39059 2.4941,-3.81836 0.8506,-1.74639 1.66,-3.85985 2.4316,-6.31055 0.1929,2.37237 0.647,4.19775 1.3828,5.42969 0.718,1.2019 1.6771,1.44447 2.879,0.72656 0.8012,-0.47861 1.5459,-1.31231 2.2343,-2.5 0.6542,-1.24493 1.2404,-2.60426 1.7578,-4.07813 0.4833,-1.5311 0.8856,-3.1302 1.209,-4.79882 0.3235,-1.66862 0.5676,-3.2115 0.7305,-4.62891 -0.05,2.12649 0.078,4.02965 0.3828,5.71094 0.3284,1.58987 0.7323,2.78466 1.2109,3.58594 0.5128,0.8585 1.1691,1.43748 1.9688,1.73632 0.7997,0.29885 1.7713,0.10756 2.916,-0.57617 1.3164,-0.78629 2.5076,-2.04131 3.5742,-3.76562 1.124,-1.7585 2.0939,-3.77522 2.9102,-6.04883 0.8162,-2.27361 1.5193,-4.67363 2.1074,-7.19922 0.2355,-1.00828 0.4347,-1.98458 0.6328,-2.95898 0.061,0.77244 0.1351,1.60165 0.1914,2.35351 -0.209,1.60025 -0.4123,3.07929 -0.6094,4.43945 -0.174,1.26875 -0.1064,2.16068 0.2012,2.67579 0.1026,0.1717 0.4269,0.52181 0.9746,1.04882 0.605,0.49283 1.0517,0.65335 1.3379,0.48243 0.1143,-0.0684 0.1831,-0.34212 0.2071,-0.82227 0.082,-2.06925 0.079,-3.89274 -0.01,-5.4707 -0.031,-1.61215 -0.016,-3.40694 0.045,-5.38477 0.1391,-0.93725 0.3687,-2.04628 0.6914,-3.32617 0.3799,-1.31407 0.7773,-2.60058 1.1914,-3.85742 0.4372,-1.34826 0.8799,-2.62071 1.3281,-3.82031 0.4483,-1.19961 0.8676,-2.18816 1.2579,-2.96485 0.1836,-0.34264 0.3724,-0.41741 0.5664,-0.22265 0.2168,0.10332 0.3535,0.33295 0.4101,0.6875 0.2056,1.50958 0.3055,3.23604 0.2988,5.17968 0.053,1.90946 0.09,3.79035 0.1094,5.64258 0.076,1.81804 0.2051,3.52789 0.3848,5.12891 0.1456,1.54378 0.4569,2.7163 0.9355,3.51757 0.4786,0.80128 1.0556,1.11548 1.7305,0.94532 0.7091,-0.11294 1.407,-0.37297 2.0938,-0.78321 1.488,-0.88885 2.7818,-2.1669 3.8828,-3.83398 1.1581,-1.70126 2.139,-3.56998 2.9433,-5.60352 0.7169,-1.72048 1.2885,-3.49441 1.7285,-5.31835 0.3344,1.2045 0.7701,2.30006 1.3399,3.2539 1.4358,2.40383 3.4994,2.80208 6.1894,1.19531 1.6598,-0.9914 3.1323,-2.29893 4.4161,-3.91992 1.3067,-1.7124 2.4254,-3.5448 3.3554,-5.49805 0.953,-2.04466 1.7111,-4.08932 2.2754,-6.13476 0.5873,-2.13685 1.0086,-4.09583 1.2637,-5.87891 -0.1026,-0.1717 -0.257,-0.23674 -0.4629,-0.1914 -0.1487,0.0111 -0.247,0.10817 -0.293,0.29101 -0.1628,1.4174 -0.4746,3.04073 -0.9355,4.86914 -0.438,1.73699 -1.0246,3.48488 -1.7598,5.24414 -0.7694,1.70204 -1.6815,3.29506 -2.7363,4.7793 -0.9975,1.45005 -2.1543,2.56918 -3.4707,3.35547 -2.1177,1.2649 -3.8776,0.72354 -5.2793,-1.62305 -0.6837,-1.14468 -1.1783,-2.36368 -1.4844,-3.65625 -0.3405,-1.3498 -0.5216,-2.3667 -0.543,-3.05273 1.8315,-1.09398 3.2697,-2.26365 4.3125,-3.50781 1.0088,-1.3014 1.7373,-2.55236 2.1856,-3.75196 0.4141,-1.25684 0.5818,-2.40472 0.5039,-3.44531 -0.021,-1.07477 -0.2363,-1.95577 -0.6465,-2.64258 -0.2735,-0.45786 -0.6673,-0.72754 -1.1816,-0.80859 -0.1143,-0.0288 -0.2393,-0.0396 -0.375,-0.0312 z m -1.8575,2.16015 c 0.3948,7.8e-4 0.7321,0.2342 1.0098,0.69922 0.9572,1.60256 1.1643,3.37997 0.6231,5.33399 -0.5754,1.89678 -1.6938,3.34062 -3.3536,4.33203 -0.1717,0.10256 -0.3994,0.23922 -0.6855,0.41015 -0.3203,0.11371 -0.5545,0.17637 -0.7031,0.1875 -0.1014,-0.94915 -0.1343,-1.97698 -0.098,-3.08593 0.036,-1.10896 0.1348,-2.17836 0.2969,-3.20703 0.1621,-1.02867 0.4111,-1.91375 0.7441,-2.65625 0.3561,-0.83392 0.8203,-1.42181 1.3926,-1.76368 0.279,-0.16666 0.5366,-0.25046 0.7734,-0.25 z m -67.0605,21.76758 c -0.2369,-4.7e-4 -0.4944,0.0833 -0.7734,0.25 -0.8013,0.47861 -1.2832,1.23305 -1.4453,2.26172 -0.1049,0.99449 0.065,1.86338 0.5097,2.60742 0.4102,0.68682 0.9577,0.82431 1.6445,0.41407 0.7441,-0.44443 1.1974,-1.18032 1.3594,-2.20899 0.2194,-1.06286 0.1251,-1.93819 -0.2851,-2.625 -0.2778,-0.46502 -0.615,-0.69844 -1.0098,-0.69922 z m 23.8867,3.45899 0.1367,0.0352 c 0.031,1.61216 0.078,3.4458 0.1426,5.50391 0.065,2.05811 0.05,4.04815 -0.045,5.96875 -0.083,1.68053 -0.3045,3.32612 -0.6621,4.9375 -0.3004,1.5772 -0.6683,3.04041 -1.1055,4.38867 -0.4713,1.29103 -0.9435,2.38677 -1.414,3.28906 -0.4134,0.86812 -0.7914,1.40621 -1.1348,1.61133 -0.3434,0.20511 -0.6523,0.079 -0.9258,-0.3789 -0.5128,-0.85852 -0.9144,-2.44382 -1.207,-4.75391 -0.2356,-2.34429 -0.2132,-4.84218 0.066,-7.49414 0.2454,-2.70919 0.845,-5.28145 1.7988,-7.71484 0.9537,-2.4334 2.4036,-4.23024 4.3496,-5.39258 z m -47.7695,5.11523 c -0.2821,0.007 -0.5677,0.0237 -0.8535,0.0488 -2.2298,0.16709 -4.5462,0.77321 -6.9492,1.82031 -2.3458,1.01292 -4.6331,2.18626 -6.8653,3.51953 -1.4308,0.85467 -2.8168,1.72191 -4.1562,2.59961 -1.3394,0.87772 -2.7069,1.7717 -4.1035,2.6836 -1.1336,0.83238 -2.4965,1.80232 -4.0879,2.9082 -1.6256,1.04865 -2.9542,1.88074 -3.9844,2.49609 -0.8013,0.47862 -1.7045,0.78472 -2.7109,0.91992 -0.9492,0.10103 -1.4813,0.18554 -1.5958,0.25391 -0.1719,0.10255 -0.183,0.34311 -0.035,0.7207 0.1479,0.3776 0.2559,0.62382 0.3242,0.73829 0.547,0.91573 1.335,1.06457 2.3652,0.44921 1.7974,-1.1512 3.4797,-2.42689 5.0489,-3.83007 1.5691,-1.40319 3.2701,-2.65213 5.1015,-3.7461 0.1145,-0.0684 0.2746,-0.12459 0.4805,-0.16992 0.2059,-0.0453 0.3604,0.0177 0.4629,0.18945 0.1122,1.09782 0.2408,2.80572 0.3848,5.12696 0.1102,2.264 0.1971,4.81481 0.2597,7.65039 0.063,2.83557 0.1355,5.82024 0.2207,8.95312 0.1085,3.04146 0.1784,5.95018 0.2071,8.72852 0.052,2.68692 0.081,5.07762 0.088,7.16992 0.029,2.00088 0.043,3.39051 0.043,4.16797 0.033,0.83469 0.025,1.92636 -0.023,3.27539 -0.083,1.2918 -0.256,2.55899 -0.5215,3.80469 l 0.7715,0.12304 c 0.4252,-1.10818 0.9472,-2.11977 1.5664,-3.0332 0.6192,-0.91343 1.1574,-1.5058 1.6152,-1.7793 0.4006,-0.23933 0.9736,-0.38769 1.7168,-0.44336 2.264,-0.10985 4.3507,-0.58125 6.2617,-1.41211 1.9452,-0.77361 3.892,-1.74 5.8379,-2.90234 2.4039,-1.43583 4.6131,-3.06724 6.6289,-4.89258 2.1073,-1.80228 3.9571,-3.83926 5.5508,-6.11133 1.5938,-2.27206 2.8512,-4.8472 3.7715,-7.72656 0.9776,-2.91354 1.5776,-5.87435 1.8008,-8.88086 0.189,-3.06374 -0,-6.05407 -0.582,-8.9707 -0.5544,-3.00804 -1.5486,-5.71336 -2.9844,-8.11719 -1.5384,-2.57552 -3.3425,-4.29466 -5.4102,-5.15625 -1.7891,-0.83388 -3.6698,-1.22564 -5.6445,-1.17578 z m -3.7949,2.82617 c 0.9919,-0.0295 1.9122,0.0499 2.7636,0.24024 1.76,0.34648 3.2164,1.02899 4.3692,2.04883 1.21,0.98565 2.1912,2.10804 2.9433,3.36718 2.2222,3.72021 3.6203,7.62227 4.1954,11.70508 0.5408,4.02558 0.356,7.94062 -0.5547,11.74609 -0.945,3.74824 -2.5521,7.23344 -4.8223,10.45313 -2.2701,3.21969 -5.1513,5.87165 -8.6426,7.95703 -1.7742,1.05979 -3.6726,1.84498 -5.6972,2.35547 -1.9675,0.47631 -3.7457,0.49006 -5.334,0.041 -0.5486,-0.13829 -0.9258,-0.37926 -1.1309,-0.72266 -0.1366,-0.22893 -0.2268,-0.63976 -0.2715,-1.23438 -0.2347,-2.73301 -0.4227,-5.8446 -0.5644,-9.33203 -0.1759,-3.54466 -0.3291,-7.1807 -0.459,-10.9082 -0.07,-3.76169 -0.1086,-7.46606 -0.1152,-11.11328 -0,-3.64721 0.043,-7.01477 0.1406,-10.10156 0,-0.77746 0.1843,-1.31284 0.5508,-1.60938 0.4237,-0.33073 0.9505,-0.68449 1.58,-1.06055 2.9762,-1.7777 5.5966,-2.91547 7.8614,-3.41406 1.1324,-0.24929 2.1956,-0.38849 3.1875,-0.41797 z m -176.26566,142.1875 c -0.23611,-0.0192 -0.49972,0.0434 -0.79102,0.1875 -0.83656,0.41385 -1.37632,1.12797 -1.61914,2.14063 -0.18306,0.9831 -0.0815,1.86186 0.30274,2.63867 0.35472,0.71705 0.89036,0.89965 1.60742,0.54492 0.77681,-0.38429 1.28647,-1.08304 1.52929,-2.0957 0.3026,-1.04222 0.27661,-1.92161 -0.0781,-2.63867 -0.24018,-0.48551 -0.55767,-0.7454 -0.95117,-0.77735 z m 24.53906,3.31055 c -0.0653,0.009 -0.12775,0.029 -0.1875,0.0586 -0.35853,0.17736 -0.85347,0.83067 -1.48438,1.96094 -0.60071,1.04095 -1.29234,2.35089 -2.07421,3.92774 -0.72213,1.54728 -1.48809,3.22773 -2.30079,5.04296 -0.75295,1.78568 -1.44727,3.46745 -2.08007,5.04493 -0.0798,-2.26625 -0.0414,-4.29384 0.11523,-6.08204 0.18687,-1.87752 0.22176,-2.9348 0.10352,-3.17382 -0.17737,-0.35853 -0.48898,-0.6127 -0.93555,-0.76368 -0.44658,-0.15096 -0.84851,-0.13829 -1.20703,0.0391 -0.35852,0.17736 -0.55447,0.4602 -0.58594,0.84765 0.11066,2.02786 0.18995,4.36779 0.23828,7.02149 0.005,0.67222 9.8e-4,1.27734 0.004,1.93554 -0.22819,1.10795 -0.5542,2.38373 -1.03516,3.92969 -0.57432,1.84606 -1.29746,3.69232 -2.16992,5.53711 -0.8127,1.81523 -1.72974,3.495 -2.75,5.04102 -1.04983,1.48626 -2.17209,2.52597 -3.36719,3.11718 -0.6573,0.32517 -1.26789,0.44146 -1.83398,0.34961 -0.53589,-0.18116 -0.98121,-0.6306 -1.33594,-1.34765 -0.32517,-0.6573 -0.58984,-1.64238 -0.79297,-2.95508 -0.1434,-1.34227 -0.21208,-2.83289 -0.20508,-4.47266 -0.0226,-1.69952 10e-4,-3.45894 0.0684,-5.27734 0.12711,-1.84796 0.28315,-3.56125 0.46875,-5.14063 0.0605,-0.17863 0.0604,-0.40329 0.002,-0.67187 0.001,-0.29813 -0.0268,-0.50549 -0.0859,-0.625 -0.0887,-0.17927 -0.28326,-0.19663 -0.58203,-0.0488 -0.23902,0.11824 -0.65837,0.55015 -1.25781,1.29297 -0.56928,0.6535 -0.885,1.29213 -0.94727,1.91797 -0.15287,0.89379 -0.32158,2.20515 -0.50781,3.93359 -0.12648,1.6989 -0.25376,3.47236 -0.38086,5.32032 -0.0674,1.81839 -0.0589,3.56245 0.0234,5.23242 0.0528,1.6102 0.27001,2.80327 0.65429,3.58008 0.32517,0.6573 0.71227,1.13746 1.15821,1.4375 0.47614,0.2107 0.95096,0.34653 1.42773,0.4082 0.53653,0.0321 1.05881,-0.0401 1.56641,-0.2168 0.50759,-0.17673 0.94224,-0.35389 1.30078,-0.53125 1.01582,-0.50253 2.04583,-1.27345 3.09375,-2.3125 1.04792,-1.03905 1.97826,-2.2433 2.78906,-3.61133 1.05109,-1.7844 2.08859,-3.97103 3.11328,-6.56054 0.62927,-1.59024 1.15176,-3.1741 1.58984,-4.75391 5.4e-4,0.97839 0.01,2.01537 0.006,2.96094 -0.33466,1.57874 -0.65319,3.03854 -0.95703,4.3789 -0.27364,1.25105 -0.27776,2.1458 -0.0117,2.6836 0.0887,0.17926 0.38424,0.55247 0.88868,1.12109 0.56418,0.53905 0.99614,0.73569 1.29492,0.58789 0.11949,-0.0591 0.20982,-0.32791 0.27148,-0.80469 0.24725,-2.05615 0.38925,-3.87506 0.42578,-5.45507 0.0963,-1.60958 0.25365,-3.39645 0.47071,-5.36328 0.21262,-0.92335 0.53041,-2.01131 0.95312,-3.26172 0.48247,-1.27998 0.9782,-2.52978 1.49024,-3.75 0.54222,-1.30954 1.08536,-2.54462 1.62695,-3.70508 0.54159,-1.16047 1.03791,-2.11202 1.48828,-2.85547 0.21009,-0.32707 0.40403,-0.38524 0.58203,-0.17578 0.20822,0.12014 0.32525,0.3589 0.35352,0.7168 0.083,1.52089 0.046,3.25022 -0.11133,5.1875 -0.0975,1.90771 -0.20882,3.78485 -0.33594,5.63281 -0.0673,1.8184 -0.0743,3.53237 -0.0215,5.14258 0.0232,1.55045 0.24045,2.74351 0.65429,3.58007 0.41386,0.83657 0.96417,1.19838 1.65039,1.08204 0.71579,-0.0566 1.43138,-0.26247 2.14844,-0.61719 1.55362,-0.76858 2.9467,-1.94068 4.17578,-3.51563 1.28886,-1.60451 2.41456,-3.38985 3.37696,-5.35351 1.0222,-1.99323 1.851,-4.07624 2.4863,-6.25 0.6656,-2.26308 1.1654,-4.40764 1.502,-6.4336 0.1214,-0.5063 0.048,-0.73034 -0.2207,-0.67187 -0.2984,-0.001 -0.4635,0.11709 -0.4942,0.35547 -0.1862,1.72845 -0.5804,3.63625 -1.1855,5.7207 -0.6051,2.08444 -1.3591,4.09324 -2.2617,6.02734 -0.8725,1.8448 -1.8049,3.49447 -2.79495,4.95118 -0.99007,1.4567 -1.99199,2.43692 -3.00782,2.93945 -0.6573,0.32517 -1.19431,0.44278 -1.61132,0.35156 -0.44658,-0.15097 -0.8484,-0.58568 -1.20313,-1.30273 -0.41385,-0.83657 -0.67715,-2.1199 -0.78906,-3.84961 -0.11192,-1.72972 -0.13244,-3.57746 -0.0644,-5.54492 0.0982,-2.05679 0.2556,-4.06833 0.47265,-6.03516 0.21706,-1.96683 0.41723,-3.59181 0.60156,-4.87305 0.0623,-0.62584 0.0343,-1.05785 -0.084,-1.29687 -0.11825,-0.23902 -0.35563,-0.41829 -0.71289,-0.53906 -0.2453,-0.15757 -0.46634,-0.22439 -0.66211,-0.19727 z m -78.78906,15.29102 -1.43164,0.26171 c -0.41766,0.0579 -0.81958,0.0705 -1.20703,0.0391 l -0.35938,0.17773 c -0.20945,0.178 -0.77999,1.05465 -1.71094,2.63086 -0.87119,1.54665 -1.86313,3.30259 -2.97461,5.26563 -1.08128,1.87371 -2.13081,3.73201 -3.15234,5.57617 -1.05109,1.7844 -1.78685,3.00407 -2.20703,3.6582 -1.682,2.91467 -3.54415,6.06685 -5.58594,9.45703 -2.07135,3.33043 -4.20367,6.69054 -6.39453,10.08008 -0.18053,0.38682 -0.37516,0.59411 -0.58398,0.62305 -0.17861,-0.0604 -0.25082,-0.35801 -0.21875,-0.89453 0.37816,-4.79854 0.70972,-9.08977 0.99414,-12.875 0.34417,-3.8148 0.68571,-7.33227 1.02734,-10.55079 0.0623,-0.62584 0.30242,-1.04307 0.7207,-1.25 0.50824,-0.3258 1.12084,-0.6648 1.83789,-1.01953 0.74726,-0.44404 1.27154,-0.74086 1.57032,-0.88867 0.12077,-0.35726 0.0165,-0.63952 -0.31055,-0.84961 -2.3015,1.36169 -4.24431,2.47024 -5.82813,3.32813 -1.58381,0.85789 -3.3019,1.74573 -5.15429,2.66211 l -1.34375,0.66406 c -0.3881,0.11761 -0.73053,0.25064 -1.0293,0.39844 -0.74661,0.29497 -1.61398,0.64928 -2.59961,1.0625 -1.01519,0.35346 -1.79096,0.58809 -2.32812,0.70507 -0.68623,0.11634 -1.14828,-0.063 -1.38477,-0.54101 -0.11953,0.0591 -0.20853,0.25238 -0.26953,0.58008 -0.0906,0.26794 -0.15213,0.59496 -0.18359,0.98242 -0.001,0.29814 0.0127,0.62648 0.041,0.98437 -0.001,0.29816 0.0115,0.47738 0.041,0.53711 0.17736,0.3585 0.59465,0.374 1.25195,0.0488 1.37435,-0.67989 2.85501,-1.52234 4.43945,-2.5293 1.58445,-1.00696 3.1835,-1.90889 4.79688,-2.70703 0.29876,-0.14779 0.49139,-0.13238 0.58008,0.0469 0.0296,0.0598 0.0302,0.13334 0,0.22265 l 0.043,0.0899 c 0.0182,2.74301 0.008,5.64999 -0.0352,8.7207 -0.0429,3.07071 -0.16096,6.2164 -0.35352,9.43555 -0.13281,3.18958 -0.31108,6.36404 -0.5332,9.52344 -0.22213,3.15939 -0.47329,6.18339 -0.75391,9.07421 -0.31144,3.1292 -0.66622,5.9465 -1.06445,8.44922 -0.36803,2.41341 -0.73343,4.37945 -1.09766,5.89844 0.0887,0.17937 0.3114,0.17932 0.66993,0.002 0.18116,-0.53588 0.55706,-1.20524 1.12695,-2.00781 0.56989,-0.80257 1.27282,-1.41037 2.10937,-1.82422 l 0.80664,-0.39843 c 0.38809,-0.11761 0.74589,-0.22055 1.07422,-0.3086 -0.0585,-0.26858 -0.13133,-0.64173 -0.21875,-1.11914 -0.057,-0.56672 -0.0539,-1.08964 0.008,-1.56641 l 0.48828,-9.83593 c 0.13344,-3.33866 0.3579,-6.87023 0.67187,-10.59571 0.0919,-0.56611 0.16683,-0.86499 0.22656,-0.89453 0.09,-0.11887 0.29794,-0.0734 0.625,0.13672 3.68895,1.89399 7.58676,3.75957 11.69336,5.5957 4.1066,1.83614 8.06528,3.52187 11.875,5.0586 4.07768,1.6273 7.7997,2.76194 11.16602,3.40234 3.39588,0.70018 6.49606,1.02625 9.29883,0.97852 2.80276,-0.0477 5.32197,-0.36439 7.56054,-0.95117 2.23858,-0.58678 4.25424,-1.32413 6.04688,-2.21094 2.86822,-1.41892 5.44037,-3.13658 7.71484,-5.1543 2.3638,-1.98753 4.11678,-3.93266 5.25782,-5.83594 0.15035,-0.2975 0.19585,-0.50744 0.13671,-0.62695 -0.20692,-0.41828 -0.4764,-0.35947 -0.80664,0.17578 -0.93157,1.72529 -2.4144,3.46249 -4.44921,5.21289 -1.94552,1.78061 -4.14382,3.27825 -6.59375,4.49024 -1.61338,0.79814 -3.18097,1.38646 -4.70313,1.76757 -1.4624,0.35158 -3.07275,0.55529 -4.83203,0.60743 -1.69953,0.0226 -3.5773,-0.16618 -5.63281,-0.5625 -2.05552,-0.39633 -4.43879,-1.00186 -7.14844,-1.81836 -7.41443,-2.20797 -13.75442,-4.50119 -19.02149,-6.87891 -5.29662,-2.43748 -9.98282,-4.69306 -14.05859,-6.76758 -0.0887,-0.17926 -0.0585,-0.41733 0.0918,-0.71484 1.23225,-2.3203 2.52386,-4.59583 3.875,-6.82617 1.32157,-2.2901 2.59909,-4.44659 3.83008,-6.46875 2.28144,-3.65749 4.23121,-6.70467 5.85156,-9.14258 1.59078,-2.49766 2.92584,-4.5338 4.00586,-6.10938 1.13977,-1.60514 2.02465,-2.82411 2.65429,-3.65625 0.62964,-0.83213 1.12522,-1.41184 1.48438,-1.73828 0.0604,-0.17862 0.0156,-0.34248 -0.13281,-0.49218 z m 46.07422,2.17773 c -0.38565,-0.0184 -0.78025,0.072 -1.1836,0.27148 -0.71705,0.35473 -1.45007,0.97789 -2.19922,1.86914 -0.6894,0.8617 -1.34956,1.85802 -1.98047,2.98829 -0.66046,1.07052 -1.26114,2.18523 -1.80273,3.3457 -0.48183,1.1309 -0.87384,2.14396 -1.17578,3.03711 -0.0906,0.26793 -0.19689,0.4311 -0.31641,0.49023 -0.11951,0.0591 -0.16232,-0.10473 -0.13086,-0.49218 0.0309,-0.23839 0.0617,-0.62559 0.0937,-1.16211 0.0321,-0.53652 0.0636,-1.07481 0.0957,-1.61133 0.0623,-0.62584 0.0804,-1.19225 0.0527,-1.69922 0.0321,-0.53652 0.005,-0.893 -0.084,-1.07227 -0.26605,-0.53781 -0.71205,-0.83812 -1.33789,-0.90039 -0.62584,-0.0625 -0.99964,-0.065 -1.11914,-0.006 -0.1195,0.0591 -0.19579,0.43159 -0.22852,1.11719 0.027,0.65603 -0.006,1.71528 -0.10156,3.17578 -0.12521,1.40076 -0.26652,3.06859 -0.42383,5.00586 -0.0631,1.23382 -0.15943,2.64864 -0.24805,4.01953 -0.27196,0.93297 -0.55819,1.86146 -0.86914,2.78125 -0.75548,2.38195 -1.57027,4.57059 -2.44336,6.56446 -0.90265,1.9341 -1.83309,3.58378 -2.79297,4.95117 -0.98944,1.30763 -1.96189,2.1989 -2.91797,2.67187 -0.83655,0.41385 -1.49261,0.51542 -1.96875,0.30469 -0.41638,-0.24028 -0.75934,-0.63018 -1.02539,-1.16797 -0.67989,-1.37435 -1.08619,-3.77584 -1.2207,-7.20508 -0.10431,-3.51856 0.0207,-8.37821 0.375,-14.57812 0.35853,-0.17736 0.91159,-0.41401 1.6582,-0.70899 0.74662,-0.29496 1.32844,-0.47143 1.7461,-0.52929 0.17926,-0.0887 0.2254,-0.22113 0.13672,-0.40039 -0.0887,-0.17924 -0.31203,-0.25483 -0.66993,-0.22657 -0.32834,0.0881 -0.80648,0.24853 -1.43359,0.48438 -0.62711,0.23585 -1.0899,0.42836 -1.38867,0.57617 0.0623,-0.62584 0.10856,-1.20761 0.14062,-1.74414 0.0623,-0.62584 0.16934,-1.16084 0.32032,-1.60742 l -0.22461,-0.002 -2.1543,1.95898 c -0.17989,0.23775 -0.33039,0.53531 -0.45117,0.89258 -0.12061,0.35726 -0.18221,0.90895 -0.18555,1.65429 -2.50969,1.24155 -4.57434,3.15522 -6.19531,5.74219 -1.65054,2.52722 -2.91413,5.23476 -3.79102,8.12305 -0.84672,2.79897 -1.29109,5.51126 -1.33203,8.13476 -0.041,2.62351 0.27909,4.62174 0.95899,5.9961 0.62077,1.25484 1.55765,1.57194 2.8125,0.95117 0.83656,-0.41385 1.6458,-1.18481 2.42578,-2.31445 0.75041,-1.1894 1.44009,-2.49933 2.07226,-3.92774 0.60262,-1.48816 1.13176,-3.05158 1.58594,-4.68945 0.45417,-1.63787 0.81752,-3.15653 1.0918,-4.55664 -0.21767,2.11591 -0.24003,4.02446 -0.0684,5.72461 0.20185,1.61084 0.50997,2.83531 0.92383,3.67187 0.4434,0.89632 1.05252,1.52371 1.82617,1.88477 0.77364,0.36106 1.75803,0.24551 2.95312,-0.3457 1.37436,-0.6799 2.65985,-1.83601 3.85938,-3.47071 1.25928,-1.66426 2.38566,-3.59873 3.3789,-5.80078 0.99324,-2.20205 1.88425,-4.5385 2.66993,-7.00976 0.0116,-0.0365 0.0197,-0.071 0.0312,-0.10743 l -0.35547,5.95899 c -0.0636,0.92398 -0.007,1.5653 0.16992,1.92383 0.0887,0.17926 0.40161,0.3579 0.9375,0.53906 0.59565,0.15162 0.95276,0.1978 1.07227,0.13867 0.29878,-0.14781 0.43323,-0.32438 0.40429,-0.5332 0.18624,-1.72846 0.32755,-3.39824 0.42383,-5.00781 0.0667,-1.66934 0.19331,-3.29367 0.37891,-4.87305 0.15603,-1.63913 0.37157,-3.23402 0.64648,-4.7832 0.33467,-1.57875 0.83372,-3.12681 1.49609,-4.64454 0.39189,-1.01202 0.93302,-2.02244 1.62305,-3.0332 0.69003,-1.01076 1.42241,-1.70946 2.19922,-2.09375 0.6573,-0.32527 1.20904,-0.48637 1.65625,-0.48437 0.44721,0.002 0.81968,0.0782 1.11719,0.22851 0.3277,0.061 0.5965,0.15135 0.80469,0.27149 0.20821,0.12012 0.34261,0.16625 0.40234,0.13671 0.17927,-0.0887 0.25354,-0.23844 0.22461,-0.44726 -0.0283,-0.35789 -0.0102,-0.92431 0.0527,-1.69922 0.12268,-0.80447 0.25855,-1.50396 0.41016,-2.09961 -0.14781,-0.2988 -0.48887,-0.46403 -1.02539,-0.49609 -0.12658,-0.0304 -0.25426,-0.0485 -0.38281,-0.0547 z m -27.59571,13.89648 0.13282,0.0449 c -0.0963,1.60957 -0.19283,3.44321 -0.29102,5.5 -0.0982,2.05678 -0.27096,4.03823 -0.51758,5.94531 -0.21579,1.6687 -0.56509,3.29103 -1.04883,4.86914 -0.42398,1.54855 -0.90699,2.97758 -1.44922,4.28711 -0.57178,1.24978 -1.12764,2.30564 -1.66796,3.16797 -0.48057,0.83276 -0.90124,1.33826 -1.25977,1.51562 -0.35853,0.17737 -0.65609,0.0269 -0.89258,-0.45117 -0.4434,-0.89632 -0.71875,-2.50604 -0.82812,-4.83203 -0.0496,-2.35556 0.16808,-4.8452 0.65625,-7.4668 0.45861,-2.68136 1.25941,-5.19639 2.40234,-7.54687 1.14294,-2.35049 2.73201,-4.02815 4.76367,-5.03321 z m 273.43945,39.32813 c -0.4076,0.0206 -0.9129,0.20793 -1.5176,0.56055 -1.4398,0.83958 -2.6467,2.276 -3.6211,4.31054 -0.9504,1.94337 -1.6177,4.10921 -2.0019,6.49414 -0.4179,2.32735 -0.5061,4.69149 -0.2617,7.09571 0.2684,2.31304 0.8741,4.27614 1.8144,5.88867 1.4106,2.41878 3.4691,2.84013 6.1758,1.26172 1.6701,-0.97392 3.1543,-2.26565 4.4551,-3.87305 1.3246,-1.69858 2.4636,-3.51952 3.414,-5.46289 0.9744,-2.03454 1.7542,-4.07194 2.3399,-6.11133 0.6098,-2.13056 1.0505,-4.08493 1.3242,-5.86523 -0.1007,-0.17275 -0.2546,-0.23845 -0.4609,-0.19532 -0.1488,0.01 -0.247,0.10672 -0.295,0.28907 -0.1777,1.41561 -0.5061,3.03396 -0.9863,4.85742 -0.4561,1.73229 -1.0608,3.47512 -1.8144,5.22656 -0.7873,1.69385 -1.7168,3.27693 -2.7871,4.75 -1.0128,1.43949 -2.1814,2.54595 -3.5059,3.31836 -2.1309,1.24258 -3.8848,0.68346 -5.2617,-1.67773 -0.6717,-1.1518 -1.1528,-2.37617 -1.4453,-3.67188 -0.3258,-1.3533 -0.4971,-2.37237 -0.5118,-3.05859 1.8429,-1.07466 3.2937,-2.22976 4.3497,-3.46289 1.0223,-1.29073 1.7638,-2.53369 2.2246,-3.72852 0.4272,-1.25242 0.606,-2.39811 0.539,-3.43945 -0.01,-1.07493 -0.2142,-1.95931 -0.6172,-2.65039 -0.2686,-0.46072 -0.6604,-0.73386 -1.1738,-0.82031 -0.114,-0.03 -0.2391,-0.042 -0.375,-0.0352 z m -1.8789,2.14062 c 0.3948,0.005 0.7271,0.24107 1,0.70899 0.9403,1.61252 1.1301,3.39358 0.5684,5.3418 -0.5954,1.89063 -1.7283,3.32296 -3.3985,4.29687 -0.1727,0.10075 -0.4034,0.23442 -0.6914,0.40234 -0.3215,0.1103 -0.5563,0.17009 -0.7051,0.17969 -0.091,-0.95016 -0.1124,-1.97938 -0.064,-3.08789 0.048,-1.10851 0.1592,-2.17621 0.332,-3.20312 0.173,-1.02692 0.4307,-1.90948 0.7715,-2.64844 0.3648,-0.83014 0.8342,-1.41417 1.4102,-1.75 0.2807,-0.16372 0.5404,-0.24319 0.7773,-0.24024 z m -35.5664,2.56446 c -0.2369,-0.003 -0.4946,0.0785 -0.7754,0.24219 -0.8063,0.47016 -1.2959,1.21918 -1.4687,2.24609 -0.1154,0.99333 0.044,1.86266 0.4804,2.61133 0.403,0.69108 0.9515,0.83659 1.6426,0.43359 0.7487,-0.43658 1.2079,-1.1684 1.3809,-2.19531 0.2304,-1.0605 0.1452,-1.93588 -0.2578,-2.62696 -0.2729,-0.46791 -0.6072,-0.706 -1.002,-0.71093 z m -23.3633,3.9414 c -0.074,-0.0102 -0.1553,-0.009 -0.2441,0.004 -1.4398,0.83958 -2.997,1.94012 -4.6719,3.30273 -1.6174,1.32903 -2.8972,2.57623 -3.8379,3.74219 -0.2208,0.2831 -0.4241,0.59486 -0.6113,0.93555 -0.1631,0.24951 -0.2187,0.55309 -0.166,0.9082 -0.019,2.48096 0.016,5.31661 0.1015,8.50781 0.052,3.13361 0.1252,6.37099 0.2207,9.71094 0.1192,3.24879 0.194,6.48421 0.2227,9.70899 0.086,3.19119 0.1121,6.14824 0.078,8.86914 -0.034,2.7209 -0.1821,4.85026 -0.4414,6.39062 -0.2354,1.4492 -0.6449,2.73053 -1.2305,3.84375 -0.3744,0.68138 -0.9308,1.31505 -1.6699,1.90039 -0.7391,0.58535 -1.6274,1.18067 -2.664,1.78516 -0.4608,0.26867 -0.5903,0.57633 -0.3887,0.92187 0.1007,0.17278 0.287,0.29517 0.5605,0.36719 0.3071,0.12961 0.5935,0.15487 0.8575,0.0781 0.6143,-0.66694 1.3428,-1.3999 2.1875,-2.20118 0.8782,-0.74368 2.0458,-1.65485 3.5,-2.73437 1.4542,-1.07951 3.2704,-2.33289 5.4492,-3.75781 2.2364,-1.45851 5.025,-3.16155 8.3652,-5.10938 0.9791,-0.57091 2.0324,-1.14607 3.1602,-1.72656 1.0942,-0.63808 2.2498,-1.23648 3.4687,-1.79297 1.1854,-0.61407 2.3754,-1.15383 3.5703,-1.61914 1.195,-0.46531 2.3253,-0.77539 3.3906,-0.93359 0.4128,-0.0863 0.7316,-0.002 0.9571,0.25195 0.2831,0.22079 0.5098,0.47377 0.6777,0.76172 0.1343,0.23036 0.2579,0.31326 0.3731,0.24609 -0.038,-0.59505 -0.1934,-1.39244 -0.4668,-2.39062 -0.1822,-0.97418 -0.3575,-1.60463 -0.5254,-1.89258 -0.3359,-0.5759 -1.0322,-0.71126 -2.0879,-0.4043 -0.264,0.0768 -0.6252,0.24891 -1.086,0.51758 -0.4943,0.21107 -1.0012,0.46924 -1.5195,0.77148 -0.5519,0.24466 -1.0872,0.51807 -1.6055,0.82032 -0.4607,0.26866 -0.835,0.48637 -1.123,0.65429 -0.6911,0.403 -1.8668,1.16639 -3.5273,2.28907 -1.6606,1.12267 -3.5335,2.40849 -5.6211,3.85742 -2.0637,1.35776 -4.1692,2.77725 -6.3145,4.25976 -2.1453,1.48252 -3.9726,2.78144 -5.4844,3.89454 -0.5181,0.30225 -0.8004,0.34893 -0.8437,0.14257 -0.043,-0.20635 0.058,-0.49682 0.3027,-0.87109 1.0512,-1.77059 1.8997,-3.69265 2.543,-5.76563 0.6674,-2.16415 1.0199,-4.80056 1.0586,-7.91015 0,-1.85233 -0.022,-3.80851 -0.064,-5.86719 0.016,-2.09227 0.019,-4.13758 0.01,-6.13867 -0.043,-2.05868 -0.076,-3.96932 -0.1,-5.73047 0,-1.85233 0,-3.43514 0.01,-4.75 -0.038,-1.52121 -0.01,-3.12122 0.094,-4.80078 0.067,-1.73715 0.1742,-3.34321 0.3184,-4.81641 0.1633,-1.17567 0.3309,-2.27777 0.5039,-3.30468 0.1728,-1.02692 0.8061,-1.85802 1.9004,-2.4961 0.6334,-0.36942 1.1687,-0.64282 1.6054,-0.82031 0.4943,-0.21108 0.9486,-0.36095 1.3614,-0.44727 l -0.01,0 c 0.1059,-0.21592 0.076,-0.4679 -0.092,-0.75586 -0.083,-0.24114 -0.2346,-0.37562 -0.4551,-0.40625 z m 43.9903,1.58789 c -0.3144,-0.01 -0.7014,0.12001 -1.1622,0.38868 -0.8638,0.50374 -1.6225,1.25585 -2.2753,2.2539 -0.5952,0.96447 -1.0665,2.01101 -1.4122,3.13867 -0.3794,1.07008 -0.5926,2.15907 -0.6406,3.26758 0.01,0.99934 0.196,1.82461 0.5449,2.49219 -0.05,0.0776 -0.1019,0.19998 -0.1562,0.40625 -0.1297,1.23327 -0.4187,2.79082 -0.8652,4.67187 -0.4466,1.88106 -1.0411,3.77167 -1.7852,5.67188 -0.6865,1.86663 -1.4864,3.60454 -2.3984,5.2168 -0.9456,1.55466 -1.9947,2.66818 -3.1465,3.33984 -0.6335,0.36941 -1.2356,0.52748 -1.8067,0.47461 -0.547,-0.14404 -1.0209,-0.56087 -1.4238,-1.25195 -0.3695,-0.63349 -0.7016,-1.59882 -0.9941,-2.89453 -0.235,-1.3293 -0.4045,-2.81088 -0.5098,-4.44727 -0.1389,-1.69399 -0.2376,-3.45078 -0.2949,-5.26953 2e-4,-1.85232 0.04,-3.57177 0.1172,-5.16016 0.048,-0.18234 0.034,-0.40598 -0.043,-0.66992 -0.019,-0.29753 -0.064,-0.50396 -0.1309,-0.61914 -0.1007,-0.17259 -0.2941,-0.17573 -0.582,-0.008 -0.2303,0.13433 -0.6188,0.59288 -1.166,1.375 -0.5231,0.69094 -0.7951,1.35183 -0.8145,1.98047 -0.091,0.90215 -0.1708,2.22183 -0.2382,3.95898 -0.01,1.70356 -0.015,3.47971 -0.016,5.33203 0.057,1.81875 0.1844,3.55835 0.3809,5.21875 0.1629,1.60281 0.4638,2.77868 0.9004,3.52735 0.3694,0.63349 0.7865,1.08471 1.2519,1.35351 0.4894,0.17761 0.9732,0.28168 1.4532,0.31055 0.5374,-0.005 1.0545,-0.11315 1.5488,-0.32422 0.4943,-0.21108 0.9142,-0.41765 1.2598,-0.61914 0.979,-0.57092 1.9553,-1.40921 2.9296,-2.51758 0.9743,-1.10838 1.8199,-2.37264 2.5352,-3.79297 0.1115,-0.22289 0.2198,-0.47058 0.3301,-0.70508 1.7229,2.11104 4.3245,2.15784 7.8105,0.125 0.5759,-0.33583 1.2861,-0.90575 2.1309,-1.70703 0.8782,-0.74368 1.6097,-1.67192 2.1953,-2.78515 0.6432,-1.14682 1.0416,-2.3826 1.1953,-3.70703 0.1202,-1.38203 -0.2557,-2.82102 -1.1289,-4.31836 -0.4365,-0.74868 -1.0591,-1.35065 -1.8652,-1.80664 -0.8062,-0.456 -1.6402,-0.89594 -2.5039,-1.31836 -0.9549,-0.44642 -1.711,-0.81657 -2.2676,-1.10938 -0.5566,-0.2928 -0.9696,-0.66819 -1.2383,-1.12891 -0.5373,-0.92144 -0.5357,-1.84841 0,-2.77929 0.5376,-0.93089 1.2093,-1.6314 2.0156,-2.10156 1.0942,-0.63808 2.0323,-0.6839 2.8144,-0.13672 0.2477,0.16319 0.3742,0.0508 0.3809,-0.33789 -0.053,-0.35512 -0.094,-0.75488 -0.1231,-1.20118 -0.064,-0.50388 -0.093,-0.95114 -0.086,-1.33984 -0.1679,-0.28797 -0.4083,-0.43762 -0.7226,-0.44727 z m -4.5118,12.22266 c 0.3488,0.44114 0.771,0.79937 1.2676,1.07227 l 2.043,1.12304 c 0.6477,0.31682 1.3016,0.70826 1.959,1.17383 0.6573,0.46557 1.204,1.07359 1.6406,1.82227 0.5709,0.97902 0.8232,1.87456 0.7558,2.68554 -0.067,0.81098 -0.2896,1.55691 -0.664,2.23829 -0.3504,0.59019 -0.8087,1.12673 -1.375,1.61132 -0.5999,0.42701 -1.1292,0.77431 -1.5899,1.04297 -1.0942,0.63808 -2.263,0.81952 -3.5058,0.54102 -1.2429,-0.27851 -2.3107,-0.85396 -3.2031,-1.72266 -0.1426,-0.14615 -0.2572,-0.19476 -0.3575,-0.19531 0.4285,-1.09752 0.8485,-2.28468 1.2578,-3.57031 0.8401,-2.63827 1.4295,-5.24559 1.7715,-7.82227 z m -3.289,12.0293 c -0.066,0.19775 -0.1473,0.40925 -0.2539,0.64648 -0.029,0.0582 -0.052,0.0997 -0.08,0.15625 0.1121,-0.25942 0.2231,-0.53094 0.334,-0.80273 z" />
    <path
       inkscape:connector-curvature="0"
       id="path4247-8-6-6"
       style="color:#000000;font-style:normal;font-variant:normal;font-weight:normal;font-stretch:normal;font-size:medium;line-height:normal;font-family:sans-serif;text-indent:0;text-align:start;text-decoration:none;text-decoration-line:none;text-decoration-style:solid;text-decoration-color:#000000;letter-spacing:normal;word-spacing:normal;text-transform:none;direction:ltr;block-progression:tb;writing-mode:lr-tb;baseline-shift:baseline;text-anchor:start;white-space:normal;clip-rule:nonzero;display:inline;overflow:visible;visibility:visible;opacity:0.95999995;isolation:auto;mix-blend-mode:normal;color-interpolation:sRGB;color-interpolation-filters:linearRGB;solid-color:#000000;solid-opacity:1;fill:none;fill-opacity:1;fill-rule:nonzero;stroke:#ff0000;stroke-width:1.41732308;stroke-linecap:butt;stroke-linejoin:miter;stroke-miterlimit:3.9000001;stroke-dasharray:none;stroke-dashoffset:0;stroke-opacity:1;color-rendering:auto;image-rendering:auto;shape-rendering:auto;text-rendering:auto;enable-background:accumulate"
       d="m 1170,279.16021 -1.2715,2.57422 -39.3457,79.72462 -90.8203,13.19532 65.7187,64.06055 -15.5156,90.4551 81.2344,-42.70704 81.2344,42.70704 -15.5156,-90.4551 65.7187,-64.0586 -90.8203,-13.19727 L 1170,279.16021 Z m 0,6.40625 38.7344,78.48244 86.6152,12.58594 -62.6758,61.0918 14.7969,86.26173 -77.4707,-40.72656 -77.4707,40.72656 14.7969,-86.26173 -62.6758,-61.0918 86.6152,-12.58594 L 1170,285.56646 Z m -239.35156,-70.62501 -1.2695,2.57617 -39.3457,79.72266 -90.8223,13.19728 65.7188,64.06056 -15.5137,90.45508 81.2324,-42.70703 81.23436,42.70703 -15.51366,-90.45508 65.71876,-64.06056 -90.82226,-13.19728 -40.6172,-82.29883 z m 0,6.40429 38.7344,78.48634 86.61326,12.58595 -62.67376,61.08985 14.79486,86.26368 -77.46876,-40.72851 -77.4668,40.72851 14.793,-86.26368 -62.67191,-61.08985 86.61131,-12.58595 38.7344,-78.48634 z m 239.67576,-182.578158 -1.2715,2.57618 -39.3457,79.722668 -90.8203,13.19727 65.7188,64.06056 -15.5137,90.45509 81.2324,-42.70703 81.2344,42.70703 -15.5156,-90.45509 65.7207,-64.06056 -90.8223,-13.19727 -40.6172,-82.298848 z m 0,6.40625 38.7344,78.484388 86.6133,12.58595 -62.6739,61.08985 14.795,86.26369 -77.4688,-40.72853 -77.4668,40.72853 14.793,-86.26369 -62.6719,-61.0918 86.6113,-12.584 38.7344,-78.484388 z m -238.47066,-72.82813 -1.2715,2.57617 -39.3457,79.72267 -90.82228,13.19727 65.71878,64.060548 -15.5137,90.4551 81.2344,-42.70704 81.23236,42.70704 -15.51356,-90.4551 65.71866,-64.060548 -90.82226,-13.19727 -40.6152,-82.29884 z m 0,6.40429 38.7344,78.48635 86.61326,12.58594 -62.67386,61.089848 14.79496,86.26369 -77.46676,-40.72852 -77.4688,40.72852 14.7949,-86.26369 -62.67378,-61.089848 86.61328,-12.58594 38.7324,-78.48635 z m 51.5215,99.81337 c -0.066,0.002 -0.1287,0.0143 -0.1914,0.0371 -0.3757,0.13707 -0.9406,0.73266 -1.6914,1.78711 -0.711,0.96898 -1.5405,2.19395 -2.4902,3.67578 -0.8871,1.45899 -1.8334,3.04631 -2.8398,4.76172 -0.9439,1.69257 -1.8176,3.28834 -2.6192,4.78711 0.1686,-2.26137 0.4299,-4.27288 0.7813,-6.0332 0.3911,-1.8458 0.5406,-2.89401 0.4492,-3.14453 -0.1371,-0.37579 -0.4203,-0.66241 -0.8477,-0.86133 -0.4274,-0.19893 -0.8273,-0.23082 -1.2031,-0.0937 -0.3758,0.13707 -0.6021,0.39761 -0.6758,0.77929 -0.1119,2.02779 -0.2889,4.36281 -0.5312,7.00586 -0.118,1.14837 -0.2383,2.19806 -0.3575,3.30469 -0.3406,1.13325 -0.7588,2.31869 -1.2773,3.57227 -0.8296,2.005718 -1.7993,3.920398 -2.9082,5.744138 -1.0691,1.73825 -2.1749,3.27755 -3.3184,4.61718 -1.1435,1.33964 -2.2478,2.20344 -3.3125,2.5918 -0.6889,0.2513 -1.2361,0.30817 -1.6406,0.17188 -0.4274,-0.19893 -0.7786,-0.67422 -1.0527,-1.42578 -0.3199,-0.87683 -0.4413,-2.18054 -0.3633,-3.91211 0.078,-1.73158 0.2601,-3.57132 0.543,-5.51953 0.3226,-2.033698 0.6979,-4.015988 1.1289,-5.947268 0.4309,-1.93128 0.8094,-3.52396 1.1328,-4.77734 0.1304,-0.61527 0.1499,-1.04831 0.059,-1.29883 -0.091,-0.25052 -0.3085,-0.45414 -0.6504,-0.61328 -0.3021,-0.24462 -0.5796,-0.32185 -0.8301,-0.23047 -0.3758,0.13707 -0.9387,0.73265 -1.6894,1.78711 -0.711,0.96898 -1.5406,2.19395 -2.4903,3.67578 -0.8871,1.45898 -1.8334,3.0463 -2.8398,4.76172 -0.9438,1.69256 -1.8176,3.288328 -2.6192,4.787108 0.1687,-2.26137 0.4299,-4.272878 0.7813,-6.033208 0.3912,-1.8458 0.5406,-2.89401 0.4492,-3.14453 -0.1371,-0.37578 -0.4203,-0.6624 -0.8476,-0.86133 -0.4274,-0.19892 -0.8293,-0.22886 -1.2051,-0.0918 -0.3758,0.13707 -0.6002,0.39565 -0.6739,0.77734 -0.1118,2.02779 -0.2889,4.3628 -0.5312,7.005858 -0.2651,2.58043 -0.5337,5.0561 -0.8047,7.42578 -0.5054,1.53265 -0.981,2.94898 -1.4297,4.24805 -0.4089,1.2136 -0.5103,2.10235 -0.3047,2.66601 0.069,0.1879 0.3226,0.59055 0.7618,1.21094 0.5018,0.59755 0.9075,0.84079 1.2207,0.72656 0.1252,-0.0457 0.2459,-0.30237 0.3593,-0.76953 0.4708,-2.01675 0.8104,-3.80846 1.0196,-5.375 0.2718,-1.58938 0.6237,-3.34997 1.0546,-5.28125 0.3124,-0.89454 0.7458,-1.94006 1.3028,-3.13672 0.6196,-1.2195 1.252,-2.407578 1.8945,-3.564448 0.6823,-1.24234 1.3562,-2.41162 2.0215,-3.50586 0.6653,-1.09424 1.262,-1.98607 1.791,-2.67578 0.2446,-0.30212 0.4437,-0.339 0.5977,-0.11133 0.1938,0.1422 0.2845,0.39311 0.2734,0.75195 -0.084,1.52085 -0.3094,3.23415 -0.6777,5.14258 -0.3057,1.88559 -0.6227,3.741498 -0.9512,5.564458 -0.2659,1.80011 -0.4603,3.50306 -0.584,5.10937 -0.1465,1.54369 -0.06,2.75403 0.2598,3.63086 0.3198,0.87679 0.8266,1.29444 1.5215,1.25391 0.7176,0.0221 1.4515,-0.10476 2.2031,-0.37891 1.6284,-0.59397 3.1411,-1.6061 4.5351,-3.03711 1.4567,-1.45385 2.77,-3.10459 3.9415,-4.95117 1.2341,-1.86942 2.2849,-3.84826 3.1543,-5.939448 0.2534,-0.60682 0.4614,-1.188 0.6875,-1.7793 -0.046,0.4081 -0.091,0.85773 -0.1368,1.25976 -0.5054,1.532658 -0.9829,2.947028 -1.4316,4.246098 -0.4089,1.21359 -0.5103,2.10234 -0.3047,2.66601 0.069,0.1879 0.3225,0.5925 0.7617,1.21289 0.5018,0.59756 0.9095,0.83884 1.2227,0.72461 0.1252,-0.0457 0.244,-0.30236 0.3574,-0.76953 0.4708,-2.01675 0.8104,-3.80652 1.0195,-5.37304 0.2719,-1.589378 0.6238,-3.349978 1.0547,-5.281248 0.3124,-0.89454 0.7458,-1.94007 1.3028,-3.13672 0.6196,-1.2195 1.252,-2.40759 1.8945,-3.56446 0.6822,-1.24234 1.3562,-2.41162 2.0215,-3.50585 0.6653,-1.09424 1.262,-1.98608 1.791,-2.67579 0.2446,-0.30211 0.4436,-0.339 0.5977,-0.11132 0.1938,0.1422 0.2845,0.39311 0.2734,0.75195 -0.084,1.52084 -0.3094,3.23414 -0.6777,5.14258 -0.3057,1.88558 -0.6227,3.73954 -0.9512,5.5625 -0.2659,1.80011 -0.4603,3.50501 -0.584,5.11132 -0.1466,1.543688 -0.06,2.754038 0.2598,3.630858 0.3198,0.8768 0.8266,1.29444 1.5214,1.25391 0.7177,0.0221 1.4516,-0.10477 2.2032,-0.37891 1.6284,-0.59397 3.1411,-1.60609 4.5351,-3.0371 1.4567,-1.453858 2.7699,-3.104598 3.9414,-4.951178 1.2341,-1.86942 2.2869,-3.84826 3.1563,-5.93945 0.9091,-2.17667 1.641,-4.2535 2.1973,-6.23047 0.176,-0.49001 0.1268,-0.72211 -0.1465,-0.69336 -0.2962,-0.0339 -0.4726,0.0672 -0.5293,0.30078 -0.3743,1.6977 -0.9751,3.54897 -1.8047,5.55469 -0.8296,2.00572 -1.7994,3.92041 -2.9082,5.74414 -1.0691,1.73826 -2.1749,3.27756 -3.3184,4.61719 -1.1435,1.339628 -2.2478,2.203428 -3.3125,2.591798 -0.6889,0.25129 -1.2361,0.30816 -1.6406,0.17187 -0.4274,-0.19893 -0.7786,-0.67422 -1.0527,-1.42578 -0.3199,-0.87683 -0.4394,-2.180528 -0.3614,-3.912108 0.078,-1.73158 0.2582,-3.57131 0.541,-5.51953 0.3227,-2.03369 0.698,-4.01599 1.129,-5.94727 0.4309,-1.93127 0.8094,-3.52396 1.1328,-4.77734 0.1303,-0.61527 0.1499,-1.04831 0.059,-1.29883 -0.091,-0.25052 -0.3085,-0.45609 -0.6504,-0.61523 -0.2266,-0.18346 -0.4392,-0.27116 -0.6367,-0.26563 z m -76.8008,4.24414 c -1.5657,0.57113 -3.2936,1.37768 -5.1836,2.42188 -1.8273,1.02135 -3.3069,2.02311 -4.4394,3.0039 -0.2675,0.23949 -0.5249,0.51039 -0.7695,0.8125 -0.2048,0.21664 -0.3132,0.50444 -0.3243,0.86329 -0.4589,2.43822 -0.9272,5.23471 -1.4082,8.39062 -0.5038,3.093278 -1.0059,6.291688 -1.5039,9.595698 -0.4581,3.21854 -0.9583,6.41891 -1.5019,9.59766 -0.481,3.15591 -0.9805,6.06843 -1.4961,8.74023 -0.5157,2.6718 -1.0362,4.74287 -1.5645,6.21289 -0.4884,1.38455 -1.1209,2.57264 -1.8945,3.56447 -0.4892,0.60423 -1.1493,1.12912 -1.9805,1.57422 -0.8311,0.44509 -1.8101,0.87394 -2.9375,1.28515 -0.501,0.18276 -0.682,0.46211 -0.5449,0.83789 0.069,0.18789 0.2299,0.34158 0.4863,0.46094 0.2793,0.18197 0.5568,0.25725 0.8301,0.22852 0.7228,-0.54751 1.5697,-1.14041 2.543,-1.7793 0.9962,-0.57626 2.3072,-1.26561 3.9297,-2.07031 1.6225,-0.80472 3.6304,-1.71621 6.0273,-2.73243 2.4595,-1.03907 5.5061,-2.22186 9.1387,-3.54688 1.0647,-0.38837 2.2032,-0.76725 3.416,-1.13867 1.19,-0.43406 2.4341,-0.8168 3.7324,-1.14844 1.2755,-0.39427 2.5423,-0.71477 3.8008,-0.96094 1.2585,-0.24619 2.4274,-0.35344 3.5039,-0.32031 0.4215,-0.0118 0.7197,0.12766 0.8965,0.41797 0.2395,0.26746 0.417,0.55794 0.5313,0.87109 0.091,0.2505 0.1989,0.35231 0.3242,0.30664 0.068,-0.59242 0.055,-1.40276 -0.037,-2.43359 -0.01,-0.99105 -0.065,-1.64388 -0.1797,-1.95703 -0.2285,-0.6263 -0.8909,-0.88063 -1.9844,-0.76563 -0.2733,0.0288 -0.6591,0.13364 -1.1601,0.31641 -0.5239,0.12013 -1.0692,0.28267 -1.6329,0.48828 -0.5865,0.14298 -1.1609,0.31783 -1.7246,0.52344 l -1.2207,0.44531 c -0.7515,0.27414 -2.0437,0.81634 -3.8769,1.62695 -1.8332,0.81062 -3.9054,1.74478 -6.2168,2.80079 -2.2717,0.97053 -4.5947,1.99537 -6.9688,3.07421 -2.374,1.07887 -4.4047,2.03184 -6.0898,2.85939 -0.5636,0.2054 -0.8475,0.20292 -0.8535,-0.008 -0.01,-0.21074 0.1439,-0.47973 0.4511,-0.80469 1.3484,-1.55628 2.5229,-3.29652 3.5235,-5.22267 1.0403,-2.01162 1.856,-4.54416 2.4453,-7.59765 0.3285,-1.82296 0.6539,-3.75147 0.9766,-5.78516 0.3852,-2.05653 0.7502,-4.06995 1.0957,-6.04102 0.3226,-2.03369 0.6292,-3.92072 0.9179,-5.6582 0.3286,-1.82296 0.6117,-3.38066 0.8496,-4.673828 0.2321,-1.5039 0.5463,-3.07391 0.9434,-4.70898 0.3742,-1.6977 0.763,-3.25731 1.166,-4.68164 0.3691,-1.12812 0.7299,-2.1821 1.082,-3.16211 0.3522,-0.98001 1.1226,-1.68704 2.3125,-2.12109 0.689,-0.2513 1.2634,-0.42616 1.7246,-0.52344 0.5239,-0.12013 0.9965,-0.18545 1.418,-0.19727 0.1422,-0.19379 0.1572,-0.44857 0.043,-0.76172 -0.052,-0.33599 -0.2564,-0.50849 -0.6152,-0.51953 z m 30.5411,12.27735 c -0.4384,0.15991 -0.8315,0.83464 -1.1778,2.02539 -0.2836,1.1679 -0.5498,2.57846 -0.7988,4.230468 -0.5377,3.38948 -0.9814,6.35389 -1.332,8.89453 -0.3108,2.45516 -0.6459,4.06861 -1.0039,4.83789 -0.1363,0.40453 -0.3861,0.88481 -0.75,1.44336 -0.3869,0.4959 -0.8065,1.00272 -1.2559,1.52148 -0.4494,0.51876 -0.8898,0.96529 -1.3223,1.33594 -0.4325,0.37065 -0.8059,0.61233 -1.1191,0.72656 -0.6889,0.25129 -1.1692,0.002 -1.4434,-0.75 -0.5026,-1.37787 -0.4481,-3.56187 0.1641,-6.55273 0.652,-3.07634 1.3857,-6.99946 2.2012,-11.76758 -0.068,-0.18789 -0.228,-0.23591 -0.4785,-0.14453 -0.1253,0.0457 -0.4469,0.23358 -0.9649,0.56445 -0.4782,0.24539 -0.862,0.45596 -1.1523,0.63281 -0.1422,0.1938 -0.2732,0.41936 -0.3926,0.67578 -0.08,0.17095 -0.1879,0.45875 -0.3242,0.86329 -0.9584,4.18161 -1.7641,7.81038 -2.416,10.88671 -0.6122,2.99087 -0.6894,5.11264 -0.2325,6.36524 0.2742,0.75157 0.7311,1.22495 1.3692,1.41797 0.6381,0.19302 1.3946,0.12842 2.2715,-0.19141 1.2526,-0.45691 2.3607,-1.21503 3.3222,-2.27539 0.9387,-1.12299 1.6495,-2.09128 2.1328,-2.90625 0.04,-0.0855 0.1105,-0.1827 0.2129,-0.29102 0.1024,-0.10831 0.1355,-0.015 0.1016,0.28126 -0.5606,3.32685 -1.219,6.86686 -1.9785,10.62109 -0.7367,3.81686 -1.6111,7.64854 -2.6211,11.49415 -0.9474,3.82277 -2.0331,7.55453 -3.2598,11.19531 -1.2266,3.64079 -2.6429,6.95949 -4.2461,9.95703 -1.6658,3.02039 -3.522,5.61484 -5.5703,7.78125 -2.0881,2.25189 -4.4165,3.84656 -6.9844,4.78321 -3.1941,1.1651 -5.6686,1.2862 -7.4238,0.36523 -1.7552,-0.92096 -2.9418,-2.22696 -3.5586,-3.91797 -0.091,-0.25052 -0.1886,-0.32121 -0.291,-0.21289 -0.1025,0.10832 -0.1505,0.26778 -0.1445,0.47852 -0.011,0.35884 0.044,0.80033 0.164,1.32422 0.08,0.60936 0.2118,1.16497 0.3946,1.66601 0.7995,2.19206 2.0795,3.46307 3.8398,3.81445 1.7603,0.35139 3.549,0.19571 5.3652,-0.46679 3.0689,-1.11942 5.7728,-2.8501 8.1114,-5.19336 2.2759,-2.32042 4.3169,-5.08855 6.125,-8.30274 1.7454,-3.19134 3.2803,-6.76672 4.6035,-10.72656 1.346,-3.8972 2.5505,-7.99132 3.6113,-12.28125 1.0837,-4.2273 2.0776,-8.59958 2.9844,-13.1172 0.9923,-4.47782 1.9881,-8.8501 2.9863,-13.11718 0.5054,-1.53266 1.0083,-3.17068 1.5078,-4.91407 0.5621,-1.76623 1.0631,-3.40425 1.5059,-4.91406 0.4199,-1.57243 0.7522,-2.89999 0.9961,-3.982418 0.221,-1.14506 0.2867,-1.84323 0.1953,-2.09375 -0.1828,-0.50104 -0.4906,-0.95557 -0.9238,-1.36523 -0.3707,-0.43251 -0.7038,-0.66534 -1,-0.69922 z m 303.83396,46.607428 c -0.4074,0.0249 -0.9128,0.21721 -1.5137,0.57617 -1.4309,0.85467 -2.6212,2.30494 -3.5742,4.34961 -0.93,1.95325 -1.5744,4.12483 -1.9336,6.51367 -0.3933,2.33161 -0.4552,4.69809 -0.1856,7.09961 0.049,0.38249 0.1189,0.74042 0.1856,1.10352 -0.4238,1.91613 -0.9673,3.78341 -1.6445,5.5957 -0.7241,1.90793 -1.5207,3.62592 -2.3926,5.15625 -0.872,1.53033 -1.7946,2.58679 -2.7676,3.16797 -0.6296,0.37604 -1.1572,0.53456 -1.5801,0.47656 -0.4571,-0.11523 -0.8906,-0.51632 -1.3008,-1.20312 -0.4786,-0.80128 -0.8417,-2.05796 -1.0898,-3.77344 -0.2481,-1.71548 -0.4164,-3.55675 -0.5039,-5.52344 -0.068,-2.05811 -0.071,-4.07685 -0.01,-6.05469 0.061,-1.97783 0.1342,-3.6125 0.2168,-4.90429 0.013,-0.62881 -0.051,-1.05818 -0.1875,-1.28711 -0.1367,-0.22894 -0.3882,-0.38829 -0.7539,-0.48047 -0.3426,-0.18362 -0.6285,-0.20706 -0.8574,-0.0703 -0.3434,0.20512 -0.7846,0.8957 -1.3242,2.07226 -0.5167,1.08514 -1.101,2.44447 -1.7559,4.07813 -0.5977,1.59947 -1.2316,3.33525 -1.8984,5.20898 -0.6096,1.83955 -1.1676,3.57083 -1.6739,5.19336 -0.2588,-2.25287 -0.3805,-4.27727 -0.3652,-6.07227 0.038,-1.88641 -0.01,-2.94294 -0.1465,-3.17187 -0.2051,-0.34341 -0.537,-0.57422 -0.9941,-0.68945 -0.4571,-0.11524 -0.8578,-0.0704 -1.2012,0.13476 -0.3441,0.20512 -0.5156,0.50385 -0.5156,0.89258 0.2704,2.01279 0.5333,4.33888 0.791,6.98047 0.084,0.97217 0.1489,1.85774 0.2266,2.80078 -0.3032,1.78362 -0.6724,3.55187 -1.1133,5.30078 -0.5651,2.43417 -1.2031,4.67976 -1.916,6.73633 -0.7471,1.99935 -1.5456,3.71734 -2.3946,5.15625 -0.8831,1.38168 -1.7815,2.34754 -2.6972,2.89454 -0.8013,0.47861 -1.4482,0.63146 -1.9395,0.45898 -0.434,-0.20666 -0.8056,-0.56887 -1.1133,-1.08399 -0.7863,-1.31638 -1.3803,-3.67802 -1.7851,-7.08594 -0.3818,-3.49933 -0.641,-8.35397 -0.7774,-14.5625 0.3434,-0.20512 0.8747,-0.48293 1.5957,-0.83593 0.721,-0.353 1.2875,-0.57537 1.6993,-0.66602 0.1716,-0.10256 0.206,-0.24041 0.1035,-0.41211 -0.1026,-0.17171 -0.331,-0.22834 -0.6856,-0.17187 -0.3203,0.1137 -0.7841,0.31302 -1.3906,0.59765 -0.6065,0.28463 -1.0517,0.51266 -1.3379,0.6836 0.011,-0.6288 0.011,-1.21262 0,-1.75 0.013,-0.62881 0.076,-1.17181 0.1914,-1.62891 l -0.2226,0.0176 -1.9942,2.12109 c -0.1605,0.25121 -0.2867,0.5601 -0.3789,0.92578 -0.093,0.36568 -0.1107,0.92079 -0.055,1.66407 -2.4038,1.43583 -4.313,3.50795 -5.7246,6.21484 -1.4458,2.64966 -2.4906,5.44798 -3.1367,8.39648 -0.512,2.34789 -0.7437,4.61008 -0.7227,6.79689 -0.343,1.21982 -0.7405,2.44476 -1.207,3.67383 -0.6668,1.87374 -1.4468,3.62043 -2.3418,5.24218 -0.9292,1.56452 -1.9666,2.68932 -3.1113,3.37305 -0.6296,0.37605 -1.2312,0.54101 -1.8027,0.49414 -0.5486,-0.13828 -1.0273,-0.55147 -1.4375,-1.23828 -0.3761,-0.62957 -0.7173,-1.59025 -1.0235,-2.88281 -0.2488,-1.32676 -0.4341,-2.80816 -0.5566,-4.44336 -0.1568,-1.69244 -0.2732,-3.44759 -0.3496,-5.26564 -0.019,-1.85222 0,-3.573 0.062,-5.16211 0.046,-0.18284 0.029,-0.40484 -0.051,-0.66797 -0.022,-0.2973 -0.068,-0.50467 -0.1367,-0.61914 -0.1026,-0.1716 -0.2959,-0.17093 -0.5821,0 -0.2289,0.13674 -0.6134,0.59889 -1.1523,1.38672 -0.5159,0.69641 -0.7803,1.35948 -0.793,1.98828 -0.082,0.90307 -0.146,2.22319 -0.1953,3.96095 0.01,1.70357 0.022,3.48176 0.041,5.33399 0.076,1.81804 0.2216,3.55464 0.4356,5.21289 0.1797,1.60101 0.4911,2.77353 0.9355,3.51757 0.376,0.62958 0.7974,1.07791 1.2656,1.3418 0.4913,0.17249 0.9769,0.26917 1.4571,0.29297 0.5373,-0.0104 1.0528,-0.12359 1.5449,-0.33984 0.4921,-0.21626 0.9105,-0.42574 1.2539,-0.63086 0.973,-0.58118 1.9398,-1.43223 2.9024,-2.55078 0.9626,-1.11856 1.7938,-2.39059 2.4941,-3.81836 0.8506,-1.74639 1.66,-3.85985 2.4316,-6.31055 0.1929,2.37237 0.647,4.19775 1.3828,5.42969 0.718,1.2019 1.6771,1.44447 2.879,0.72656 0.8012,-0.47861 1.5459,-1.31231 2.2343,-2.5 0.6542,-1.24493 1.2404,-2.60426 1.7578,-4.07813 0.4833,-1.5311 0.8856,-3.13021 1.209,-4.79883 0.3235,-1.66862 0.5676,-3.2115 0.7305,-4.62891 -0.05,2.12649 0.078,4.02965 0.3828,5.71094 0.3284,1.58987 0.7323,2.78467 1.2109,3.58595 0.5128,0.8585 1.1691,1.43748 1.9688,1.73632 0.7997,0.29885 1.7713,0.10756 2.916,-0.57617 1.3164,-0.78629 2.5076,-2.04131 3.5742,-3.76563 1.124,-1.7585 2.0939,-3.77522 2.9102,-6.04883 0.8162,-2.27361 1.5193,-4.67363 2.1074,-7.19922 0.2355,-1.00828 0.4347,-1.98458 0.6328,-2.95898 0.061,0.77244 0.1351,1.60165 0.1914,2.35351 -0.209,1.60025 -0.4123,3.07929 -0.6094,4.43945 -0.174,1.26875 -0.1064,2.16068 0.2012,2.67579 0.1026,0.1717 0.4269,0.52181 0.9746,1.04882 0.605,0.49283 1.0517,0.65335 1.3379,0.48243 0.1143,-0.0684 0.1831,-0.34212 0.2071,-0.82227 0.082,-2.06925 0.079,-3.89274 -0.01,-5.4707 -0.031,-1.61215 -0.016,-3.40694 0.045,-5.38477 0.1391,-0.93725 0.3687,-2.04628 0.6914,-3.32617 0.3799,-1.31407 0.7773,-2.60058 1.1914,-3.85742 0.4372,-1.34826 0.8799,-2.62071 1.3281,-3.82031 0.4483,-1.19961 0.8676,-2.18816 1.2579,-2.96485 0.1836,-0.34264 0.3724,-0.41741 0.5664,-0.22265 0.2168,0.10332 0.3535,0.33295 0.4101,0.6875 0.2056,1.50958 0.3055,3.23604 0.2988,5.17968 0.053,1.90946 0.09,3.79035 0.1094,5.64258 0.076,1.81804 0.2051,3.52789 0.3848,5.12891 0.1456,1.54378 0.4569,2.7163 0.9355,3.51757 0.4786,0.80128 1.0556,1.11548 1.7305,0.94532 0.7091,-0.11294 1.407,-0.37297 2.0938,-0.78321 1.488,-0.88885 2.7818,-2.1669 3.8828,-3.83398 1.1581,-1.70126 2.139,-3.56998 2.9433,-5.60352 0.7169,-1.72048 1.2885,-3.49441 1.7285,-5.31835 0.3344,1.2045 0.7701,2.30006 1.3399,3.2539 1.4358,2.40383 3.4994,2.80208 6.1894,1.19531 1.6598,-0.9914 3.1323,-2.29893 4.4161,-3.91992 1.3067,-1.7124 2.4254,-3.5448 3.3554,-5.49805 0.953,-2.04466 1.7111,-4.08932 2.2754,-6.13476 0.5873,-2.13685 1.0086,-4.09583 1.2637,-5.87891 -0.1026,-0.1717 -0.257,-0.23674 -0.4629,-0.1914 -0.1487,0.0111 -0.247,0.10817 -0.293,0.29101 -0.1628,1.4174 -0.4746,3.04073 -0.9355,4.86914 -0.438,1.73699 -1.0246,3.48488 -1.7598,5.24414 -0.7694,1.70204 -1.6815,3.29506 -2.7363,4.7793 -0.9975,1.45005 -2.1543,2.56918 -3.4707,3.35547 -2.1177,1.2649 -3.8776,0.72354 -5.2793,-1.62305 -0.6837,-1.14468 -1.1783,-2.36368 -1.4844,-3.65625 -0.3405,-1.3498 -0.5216,-2.3667 -0.543,-3.05273 1.8315,-1.09398 3.2697,-2.26365 4.3125,-3.50781 1.0088,-1.3014 1.7373,-2.55236 2.1856,-3.75196 0.4141,-1.25684 0.5818,-2.40472 0.5039,-3.44531 -0.021,-1.07477 -0.2363,-1.95577 -0.6465,-2.64258 -0.2735,-0.45786 -0.6673,-0.72754 -1.1816,-0.80859 -0.1143,-0.0288 -0.2393,-0.0396 -0.375,-0.0312 z m -1.8575,2.16015 c 0.3948,7.8e-4 0.7321,0.2342 1.0098,0.69922 0.9572,1.60256 1.1643,3.37997 0.6231,5.33399 -0.5754,1.89678 -1.6938,3.34062 -3.3536,4.33203 -0.1717,0.10256 -0.3994,0.23922 -0.6855,0.41015 -0.3203,0.11371 -0.5545,0.17637 -0.7031,0.1875 -0.1014,-0.94915 -0.1343,-1.97698 -0.098,-3.08593 0.036,-1.10896 0.1348,-2.17836 0.2969,-3.20703 0.1621,-1.02867 0.4111,-1.91375 0.7441,-2.65625 0.3561,-0.83392 0.8203,-1.42181 1.3926,-1.76368 0.279,-0.16666 0.5366,-0.25046 0.7734,-0.25 z m -67.0605,21.76758 c -0.2369,-4.7e-4 -0.4944,0.0833 -0.7734,0.25 -0.8013,0.47861 -1.2832,1.23305 -1.4453,2.26172 -0.1049,0.99449 0.065,1.86338 0.5097,2.60742 0.4102,0.68682 0.9577,0.82431 1.6445,0.41407 0.7441,-0.44443 1.1974,-1.18032 1.3594,-2.20899 0.2194,-1.06286 0.1251,-1.93819 -0.2851,-2.625 -0.2778,-0.46502 -0.615,-0.69844 -1.0098,-0.69922 z m 23.8867,3.45899 0.1367,0.0352 c 0.031,1.61216 0.078,3.4458 0.1426,5.50391 0.065,2.05811 0.05,4.04815 -0.045,5.96875 -0.083,1.68053 -0.3045,3.32612 -0.6621,4.9375 -0.3004,1.5772 -0.6683,3.04041 -1.1055,4.38868 -0.4713,1.29103 -0.9435,2.38677 -1.414,3.28906 -0.4134,0.86812 -0.7914,1.40621 -1.1348,1.61133 -0.3434,0.20511 -0.6523,0.079 -0.9258,-0.3789 -0.5128,-0.85852 -0.9144,-2.44382 -1.207,-4.75391 -0.2356,-2.3443 -0.2132,-4.84219 0.066,-7.49415 0.2454,-2.70919 0.845,-5.28145 1.7988,-7.71484 0.9537,-2.4334 2.4036,-4.23024 4.3496,-5.39258 z m -47.7695,5.11523 c -0.2821,0.007 -0.5677,0.0237 -0.8535,0.0488 -2.2298,0.16709 -4.5462,0.77321 -6.9492,1.82031 -2.3458,1.01292 -4.6331,2.18626 -6.8653,3.51953 -1.4308,0.85467 -2.8168,1.72191 -4.1562,2.59961 -1.3394,0.87772 -2.7069,1.7717 -4.1035,2.6836 -1.1336,0.83238 -2.4965,1.80232 -4.0879,2.9082 -1.6256,1.04865 -2.9542,1.88075 -3.9844,2.4961 -0.8013,0.47862 -1.7045,0.78472 -2.7109,0.91992 -0.9492,0.10103 -1.4813,0.18554 -1.5958,0.25391 -0.1719,0.10255 -0.183,0.34311 -0.035,0.7207 0.1479,0.3776 0.2559,0.62382 0.3242,0.73829 0.547,0.91573 1.335,1.06457 2.3652,0.44921 1.7974,-1.1512 3.4797,-2.42689 5.0489,-3.83007 1.5691,-1.4032 3.2701,-2.65214 5.1015,-3.74611 0.1145,-0.0684 0.2746,-0.12459 0.4805,-0.16992 0.2059,-0.0453 0.3604,0.0177 0.4629,0.18945 0.1122,1.09782 0.2408,2.80572 0.3848,5.12697 0.1102,2.264 0.1971,4.81481 0.2597,7.65039 0.063,2.83557 0.1355,5.82024 0.2207,8.95312 0.1085,3.04146 0.1784,5.95018 0.2071,8.72852 0.052,2.68692 0.081,5.07762 0.088,7.16992 0.029,2.00088 0.043,3.39051 0.043,4.16797 0.033,0.83469 0.025,1.92636 -0.023,3.27539 -0.083,1.2918 -0.256,2.55899 -0.5215,3.80469 l 0.7715,0.12304 c 0.4252,-1.10818 0.9472,-2.11977 1.5664,-3.0332 0.6192,-0.91343 1.1574,-1.5058 1.6152,-1.7793 0.4006,-0.23933 0.9736,-0.38769 1.7168,-0.44336 2.264,-0.10985 4.3507,-0.58125 6.2617,-1.41211 1.9452,-0.77361 3.892,-1.74 5.8379,-2.90234 2.4039,-1.43583 4.6131,-3.06724 6.6289,-4.89258 2.1073,-1.80228 3.9571,-3.83926 5.5508,-6.11133 1.5938,-2.27206 2.8512,-4.8472 3.7715,-7.72656 0.9776,-2.91354 1.5776,-5.87435 1.8008,-8.88086 0.189,-3.06374 0,-6.05407 -0.582,-8.97071 -0.5544,-3.00804 -1.5486,-5.71336 -2.9844,-8.11719 -1.5384,-2.57552 -3.3425,-4.29466 -5.4102,-5.15625 -1.7891,-0.83388 -3.6698,-1.22564 -5.6445,-1.17578 z m -3.7949,2.82617 c 0.9919,-0.0295 1.9122,0.0499 2.7636,0.24024 1.76,0.34648 3.2164,1.02899 4.3692,2.04883 1.21,0.98565 2.1912,2.10804 2.9433,3.36718 2.2222,3.72021 3.6203,7.62228 4.1954,11.70509 0.5408,4.02558 0.356,7.94062 -0.5547,11.74609 -0.945,3.74824 -2.5521,7.23344 -4.8223,10.45313 -2.2701,3.21969 -5.1513,5.87165 -8.6426,7.95703 -1.7742,1.05979 -3.6726,1.84498 -5.6972,2.35547 -1.9675,0.47631 -3.7457,0.49006 -5.334,0.041 -0.5486,-0.13829 -0.9258,-0.37926 -1.1309,-0.72266 -0.1366,-0.22893 -0.2268,-0.63976 -0.2715,-1.23438 -0.2347,-2.73301 -0.4227,-5.8446 -0.5644,-9.33203 -0.1759,-3.54466 -0.3291,-7.1807 -0.459,-10.9082 -0.07,-3.76169 -0.1086,-7.46606 -0.1152,-11.11328 0,-3.64721 0.043,-7.01478 0.1406,-10.10157 0,-0.77746 0.1843,-1.31284 0.5508,-1.60938 0.4237,-0.33073 0.9505,-0.68449 1.58,-1.06055 2.9762,-1.7777 5.5966,-2.91547 7.8614,-3.41406 1.1324,-0.24929 2.1956,-0.38849 3.1875,-0.41797 z M 968.08594,319.20793 c -0.2361,-0.0192 -0.4997,0.0434 -0.791,0.1875 -0.8366,0.41385 -1.3763,1.12797 -1.6191,2.14063 -0.1831,0.9831 -0.082,1.86186 0.3027,2.63867 0.3547,0.71705 0.8904,0.89965 1.6074,0.54492 0.7768,-0.38429 1.2865,-1.08304 1.5293,-2.0957 0.3026,-1.04222 0.2766,-1.92161 -0.078,-2.63867 -0.2402,-0.48551 -0.5576,-0.7454 -0.9511,-0.77735 z m 24.5391,3.31055 c -0.065,0.009 -0.1278,0.029 -0.1875,0.0586 -0.3585,0.17736 -0.8535,0.83067 -1.4844,1.96094 -0.6007,1.04095 -1.2923,2.35089 -2.0742,3.92774 -0.7221,1.54728 -1.4881,3.22773 -2.3008,5.04296 -0.7529,1.78568 -1.4473,3.46745 -2.0801,5.04493 -0.08,-2.26625 -0.041,-4.29384 0.1153,-6.08204 0.1868,-1.87752 0.2217,-2.9348 0.1035,-3.17382 -0.1774,-0.35853 -0.489,-0.6127 -0.9356,-0.76368 -0.4465,-0.15096 -0.8485,-0.13829 -1.207,0.0391 -0.3585,0.17736 -0.5545,0.4602 -0.5859,0.84765 0.1106,2.02786 0.1899,4.36779 0.2383,7.02149 0.01,0.67222 9e-4,1.27734 0,1.93554 -0.2282,1.10795 -0.5542,2.38373 -1.0352,3.92969 -0.5743,1.84606 -1.2975,3.69232 -2.1699,5.53711 -0.8127,1.81523 -1.7298,3.495 -2.75,5.04102 -1.0499,1.48626 -2.1721,2.52597 -3.3672,3.11718 -0.6573,0.32517 -1.2679,0.44146 -1.834,0.34961 -0.5359,-0.18116 -0.9812,-0.6306 -1.3359,-1.34765 -0.3252,-0.6573 -0.5899,-1.64238 -0.793,-2.95508 -0.1434,-1.34227 -0.2121,-2.83289 -0.2051,-4.47266 -0.023,-1.69952 0,-3.45894 0.068,-5.27734 0.1271,-1.84796 0.2832,-3.56125 0.4688,-5.14063 0.06,-0.17863 0.06,-0.40329 0,-0.67187 10e-4,-0.29813 -0.027,-0.50549 -0.086,-0.625 -0.089,-0.17927 -0.2833,-0.19663 -0.5821,-0.0488 -0.239,0.11824 -0.6583,0.55015 -1.2578,1.29297 -0.5693,0.6535 -0.885,1.29213 -0.9473,1.91797 -0.1528,0.89379 -0.3215,2.20515 -0.5078,3.93359 -0.1264,1.6989 -0.2537,3.47236 -0.3808,5.32032 -0.067,1.81839 -0.059,3.56245 0.023,5.23242 0.053,1.6102 0.27,2.80327 0.6543,3.58008 0.3251,0.65731 0.7122,1.13747 1.1582,1.43751 0.4761,0.2107 0.9509,0.34653 1.4277,0.4082 0.5365,0.0321 1.0588,-0.0401 1.5664,-0.2168 0.5076,-0.17673 0.9423,-0.35389 1.3008,-0.53125 1.0158,-0.50253 2.0458,-1.27346 3.0938,-2.31251 1.0479,-1.03905 1.9782,-2.2433 2.789,-3.61133 1.0511,-1.7844 2.0886,-3.97103 3.1133,-6.56054 0.6293,-1.59024 1.1518,-3.1741 1.5898,-4.75391 6e-4,0.97839 0.01,2.01537 0.01,2.96094 -0.3346,1.57874 -0.6532,3.03854 -0.957,4.3789 -0.2736,1.25105 -0.2778,2.1458 -0.012,2.6836 0.089,0.17926 0.3842,0.55247 0.8887,1.12109 0.5642,0.53905 0.9961,0.73569 1.2949,0.58789 0.1195,-0.0591 0.2098,-0.32791 0.2715,-0.80469 0.2472,-2.05615 0.3892,-3.87506 0.4258,-5.45507 0.096,-1.60958 0.2536,-3.39645 0.4707,-5.36328 0.2126,-0.92335 0.5304,-2.01131 0.9531,-3.26172 0.4825,-1.27998 0.9782,-2.52978 1.4902,-3.75 0.5423,-1.30954 1.0854,-2.54462 1.627,-3.70508 0.5416,-1.16047 1.0379,-2.11202 1.4883,-2.85547 0.2101,-0.32707 0.404,-0.38524 0.582,-0.17578 0.2082,0.12014 0.3252,0.3589 0.3535,0.7168 0.083,1.52089 0.046,3.25022 -0.1113,5.1875 -0.098,1.90771 -0.2088,3.78485 -0.336,5.63281 -0.067,1.8184 -0.074,3.53237 -0.022,5.14258 0.023,1.55045 0.2405,2.74351 0.6543,3.58007 0.4139,0.83657 0.9642,1.19838 1.6504,1.08204 0.7158,-0.0566 1.4314,-0.26247 2.1485,-0.61719 1.5536,-0.76858 2.9467,-1.94068 4.1757,-3.51563 1.28886,-1.60451 2.41456,-3.38985 3.37696,-5.35351 1.0222,-1.99323 1.851,-4.07624 2.4863,-6.25 0.6656,-2.26308 1.1654,-4.40764 1.502,-6.4336 0.1214,-0.5063 0.048,-0.73034 -0.2207,-0.67187 -0.2984,-10e-4 -0.4635,0.11709 -0.4942,0.35547 -0.1862,1.72845 -0.5804,3.63625 -1.1855,5.7207 -0.6051,2.08444 -1.3591,4.09324 -2.2617,6.02734 -0.8725,1.8448 -1.8049,3.49447 -2.79486,4.95118 -0.9901,1.4567 -1.992,2.43692 -3.0079,2.93945 -0.6573,0.32517 -1.1943,0.44278 -1.6113,0.35156 -0.4466,-0.15097 -0.8484,-0.58568 -1.2031,-1.30273 -0.4139,-0.83657 -0.6772,-2.1199 -0.7891,-3.84961 -0.1119,-1.72972 -0.1324,-3.57746 -0.064,-5.54492 0.098,-2.05679 0.2556,-4.06833 0.4727,-6.03516 0.217,-1.96683 0.4172,-3.59181 0.6015,-4.87305 0.062,-0.62584 0.034,-1.05785 -0.084,-1.29687 -0.1182,-0.23902 -0.3556,-0.41829 -0.7129,-0.53906 -0.2453,-0.15757 -0.4663,-0.22439 -0.6621,-0.19727 z m -78.7891,15.29102 -1.4316,0.26171 c -0.4177,0.0579 -0.8196,0.0705 -1.207,0.0391 l -0.3594,0.17773 c -0.2095,0.178 -0.78,1.05465 -1.711,2.63086 -0.8712,1.54665 -1.8631,3.30259 -2.9746,5.26563 -1.0813,1.87371 -2.1308,3.73201 -3.1523,5.57617 -1.0511,1.7844 -1.7869,3.00407 -2.2071,3.6582 -1.682,2.91468 -3.5441,6.06686 -5.5859,9.45704 -2.0713,3.33043 -4.2037,6.69054 -6.3945,10.08008 -0.1806,0.38682 -0.3752,0.59411 -0.584,0.62305 -0.1786,-0.0604 -0.2508,-0.35801 -0.2188,-0.89453 0.3782,-4.79854 0.7098,-9.08977 0.9942,-12.875 0.3442,-3.8148 0.6857,-7.33228 1.0273,-10.5508 0.062,-0.62584 0.3024,-1.04307 0.7207,-1.25 0.5083,-0.3258 1.1209,-0.6648 1.8379,-1.01953 0.7473,-0.44404 1.2716,-0.74086 1.5703,-0.88867 0.1208,-0.35726 0.016,-0.63952 -0.3105,-0.84961 -2.3015,1.36169 -4.2443,2.47024 -5.8281,3.32813 -1.5839,0.85789 -3.3019,1.74573 -5.1543,2.66211 l -1.3438,0.66406 c -0.3881,0.11761 -0.7305,0.25064 -1.0293,0.39844 -0.7466,0.29497 -1.614,0.64928 -2.5996,1.0625 -1.0152,0.35346 -1.791,0.58809 -2.3281,0.70507 -0.6862,0.11634 -1.1483,-0.063 -1.3848,-0.54101 -0.1195,0.0591 -0.2085,0.25238 -0.2695,0.58008 -0.091,0.26794 -0.1521,0.59496 -0.1836,0.98242 -10e-4,0.29815 0.013,0.62649 0.041,0.98438 -10e-4,0.29816 0.011,0.47738 0.041,0.53711 0.1774,0.3585 0.5946,0.374 1.2519,0.0488 1.3744,-0.67989 2.8551,-1.52235 4.4395,-2.52931 1.5844,-1.00696 3.1835,-1.90889 4.7969,-2.70703 0.2987,-0.14779 0.4914,-0.13238 0.5801,0.0469 0.03,0.0598 0.03,0.13334 0,0.22265 l 0.043,0.0899 c 0.018,2.74301 0.01,5.65 -0.035,8.72071 -0.043,3.07071 -0.161,6.2164 -0.3536,9.43555 -0.1328,3.18958 -0.311,6.36404 -0.5332,9.52344 -0.2221,3.15939 -0.4733,6.18339 -0.7539,9.07421 -0.3114,3.1292 -0.6662,5.9465 -1.0644,8.44922 -0.3681,2.41341 -0.7335,4.37945 -1.0977,5.89844 0.089,0.17937 0.3114,0.17932 0.6699,0.002 0.1812,-0.53588 0.5571,-1.20524 1.127,-2.00781 0.5699,-0.80257 1.2728,-1.41037 2.1094,-1.82422 l 0.8066,-0.39843 c 0.3881,-0.11761 0.7459,-0.22055 1.0742,-0.3086 -0.059,-0.26858 -0.1313,-0.64173 -0.2187,-1.11914 -0.057,-0.56672 -0.054,-1.08964 0.01,-1.56641 l 0.4883,-9.83593 c 0.1334,-3.33866 0.3579,-6.87023 0.6718,-10.59571 0.092,-0.56611 0.1669,-0.86499 0.2266,-0.89453 0.09,-0.11887 0.2979,-0.0734 0.625,0.13672 3.6889,1.89399 7.5867,3.75957 11.6933,5.5957 4.1066,1.83614 8.0653,3.52187 11.8751,5.0586 4.0776,1.6273 7.7997,2.76194 11.166,3.40234 3.3959,0.70018 6.496,1.02625 9.2988,0.97852 2.8028,-0.0477 5.322,-0.36439 7.5605,-0.95117 2.2386,-0.58678 4.2543,-1.32413 6.0469,-2.21094 2.8682,-1.41892 5.4404,-3.13658 7.7149,-5.1543 2.3638,-1.98753 4.1167,-3.93266 5.2578,-5.83594 0.1503,-0.2975 0.1958,-0.50744 0.1367,-0.62695 -0.2069,-0.41828 -0.4764,-0.35947 -0.8066,0.17578 -0.9316,1.72529 -2.4144,3.46249 -4.4493,5.21289 -1.9455,1.78061 -4.1438,3.27825 -6.5937,4.49024 -1.6134,0.79814 -3.181,1.38646 -4.7031,1.76757 -1.4624,0.35158 -3.0728,0.55529 -4.8321,0.60743 -1.6995,0.0226 -3.5773,-0.16618 -5.6328,-0.5625 -2.0555,-0.39633 -4.4388,-1.00186 -7.1484,-1.81836 -7.4144,-2.20797 -13.7544,-4.50119 -19.0215,-6.87891 -5.2966,-2.43748 -9.9828,-4.69306 -14.0586,-6.76758 -0.089,-0.17926 -0.058,-0.41733 0.092,-0.71484 1.2322,-2.3203 2.5239,-4.59583 3.875,-6.82617 1.3216,-2.2901 2.5991,-4.44659 3.8301,-6.46875 2.2814,-3.6575 4.2312,-6.70468 5.8515,-9.14259 1.5908,-2.49766 2.9259,-4.5338 4.0059,-6.10938 1.1398,-1.60514 2.0247,-2.82411 2.6543,-3.65625 0.6296,-0.83213 1.1252,-1.41184 1.4844,-1.73828 0.06,-0.17862 0.016,-0.34248 -0.1328,-0.49218 z m 46.0742,2.17773 c -0.3856,-0.0184 -0.7802,0.072 -1.1836,0.27148 -0.717,0.35473 -1.45,0.97789 -2.1992,1.86914 -0.6894,0.8617 -1.3495,1.85802 -1.9804,2.98829 -0.6605,1.07052 -1.2612,2.18523 -1.8028,3.3457 -0.4818,1.1309 -0.8738,2.14396 -1.1758,3.03711 -0.091,0.26793 -0.1968,0.4311 -0.3164,0.49023 -0.1195,0.0591 -0.1623,-0.10473 -0.1308,-0.49218 0.031,-0.23839 0.062,-0.62559 0.094,-1.16211 0.032,-0.53652 0.064,-1.07481 0.096,-1.61133 0.062,-0.62584 0.08,-1.19225 0.053,-1.69922 0.032,-0.53652 0.01,-0.893 -0.084,-1.07227 -0.2661,-0.53781 -0.7121,-0.83812 -1.3379,-0.90039 -0.6259,-0.0625 -0.9997,-0.065 -1.1192,-0.006 -0.1195,0.0591 -0.1957,0.43159 -0.2285,1.11719 0.027,0.65603 -0.01,1.71528 -0.1015,3.17578 -0.1252,1.40076 -0.2666,3.06859 -0.4239,5.00586 -0.063,1.23382 -0.1594,2.64864 -0.248,4.01954 -0.272,0.93297 -0.5582,1.86146 -0.8692,2.78125 -0.7554,2.38195 -1.5702,4.57059 -2.4433,6.56446 -0.9027,1.9341 -1.8331,3.58378 -2.793,4.95117 -0.9894,1.30763 -1.9619,2.1989 -2.918,2.67187 -0.8365,0.41385 -1.4926,0.51542 -1.9687,0.30469 -0.4164,-0.24028 -0.7593,-0.63018 -1.0254,-1.16797 -0.6799,-1.37435 -1.0862,-3.77584 -1.2207,-7.20508 -0.1043,-3.51856 0.021,-8.37821 0.375,-14.57813 0.3585,-0.17736 0.9116,-0.41401 1.6582,-0.70899 0.7466,-0.29496 1.3284,-0.47143 1.7461,-0.52929 0.1793,-0.0887 0.2254,-0.22113 0.1367,-0.40039 -0.089,-0.17924 -0.312,-0.25483 -0.6699,-0.22657 -0.3283,0.0881 -0.8065,0.24853 -1.4336,0.48438 -0.6271,0.23585 -1.0899,0.42836 -1.3887,0.57617 0.062,-0.62584 0.1086,-1.20761 0.1407,-1.74414 0.062,-0.62584 0.1693,-1.16084 0.3203,-1.60742 l -0.2246,-0.002 -2.1543,1.95898 c -0.1799,0.23775 -0.3304,0.53531 -0.4512,0.89258 -0.1206,0.35726 -0.1822,0.90895 -0.1856,1.65429 -2.5096,1.24155 -4.5743,3.15522 -6.1953,5.7422 -1.6505,2.52722 -2.9141,5.23476 -3.791,8.12305 -0.8467,2.79897 -1.2911,5.51126 -1.332,8.13476 -0.041,2.62351 0.2791,4.62174 0.959,5.9961 0.6207,1.25484 1.5576,1.57194 2.8125,0.95117 0.8365,-0.41385 1.6458,-1.18481 2.4258,-2.31445 0.7504,-1.1894 1.44,-2.49933 2.0722,-3.92774 0.6026,-1.48816 1.1318,-3.05158 1.586,-4.68945 0.4541,-1.63787 0.8175,-3.15653 1.0918,-4.55664 -0.2177,2.11591 -0.2401,4.02446 -0.068,5.72461 0.2018,1.61084 0.5099,2.83531 0.9238,3.67187 0.4434,0.89632 1.0525,1.52371 1.8262,1.88477 0.7736,0.36106 1.758,0.24551 2.9531,-0.3457 1.3743,-0.6799 2.6598,-1.83601 3.8594,-3.47071 1.2592,-1.66426 2.3856,-3.59873 3.3789,-5.80078 0.9932,-2.20205 1.8842,-4.5385 2.6699,-7.00976 0.012,-0.0365 0.02,-0.071 0.031,-0.10743 l -0.3555,5.95899 c -0.064,0.92398 -0.01,1.5653 0.1699,1.92383 0.089,0.17926 0.4016,0.3579 0.9375,0.53906 0.5957,0.15162 0.9528,0.1978 1.0723,0.13867 0.2988,-0.14781 0.4332,-0.32438 0.4043,-0.5332 0.1862,-1.72846 0.3275,-3.39824 0.4238,-5.00781 0.067,-1.66934 0.1933,-3.29367 0.3789,-4.87305 0.1561,-1.63913 0.3716,-3.23403 0.6465,-4.78321 0.3347,-1.57875 0.8337,-3.12681 1.4961,-4.64454 0.3919,-1.01202 0.933,-2.02244 1.6231,-3.0332 0.69,-1.01076 1.4224,-1.70946 2.1992,-2.09375 0.6573,-0.32527 1.209,-0.48637 1.6562,-0.48437 0.4472,0.002 0.8197,0.0782 1.1172,0.22851 0.3277,0.061 0.5965,0.15135 0.8047,0.27149 0.2082,0.12012 0.3426,0.16625 0.4023,0.13671 0.1793,-0.0887 0.2536,-0.23844 0.2247,-0.44726 -0.028,-0.35789 -0.01,-0.92431 0.053,-1.69922 0.1226,-0.80447 0.2585,-1.50396 0.4101,-2.09961 -0.1478,-0.2988 -0.4889,-0.46403 -1.0254,-0.49609 -0.1266,-0.0304 -0.2542,-0.0485 -0.3828,-0.0547 z m -27.5957,13.89648 0.1329,0.0449 c -0.096,1.60957 -0.1929,3.44322 -0.2911,5.50001 -0.098,2.05678 -0.2709,4.03823 -0.5175,5.94531 -0.2158,1.6687 -0.5651,3.29103 -1.0489,4.86914 -0.424,1.54855 -0.907,2.97758 -1.4492,4.28711 -0.5718,1.24978 -1.1276,2.30564 -1.668,3.16797 -0.4805,0.83276 -0.9012,1.33826 -1.2597,1.51562 -0.3586,0.17737 -0.6561,0.0269 -0.8926,-0.45117 -0.4434,-0.89632 -0.7188,-2.50604 -0.8281,-4.83203 -0.05,-2.35556 0.1681,-4.8452 0.6562,-7.4668 0.4586,-2.68136 1.2594,-5.19639 2.4024,-7.54687 1.1429,-2.3505 2.732,-4.02816 4.7636,-5.03322 z m 273.43946,39.32814 c -0.4076,0.0206 -0.9129,0.20793 -1.5176,0.56055 -1.4398,0.83958 -2.6467,2.276 -3.6211,4.31054 -0.9504,1.94337 -1.6177,4.10921 -2.0019,6.49414 -0.4179,2.32735 -0.5061,4.69149 -0.2617,7.09571 0.2684,2.31305 0.8741,4.27615 1.8144,5.88868 1.4106,2.41878 3.4691,2.84013 6.1758,1.26172 1.6701,-0.97392 3.1543,-2.26565 4.4551,-3.87305 1.3246,-1.69858 2.4636,-3.51953 3.414,-5.4629 0.9744,-2.03454 1.7542,-4.07194 2.3399,-6.11133 0.6098,-2.13056 1.0505,-4.08493 1.3242,-5.86523 -0.1007,-0.17275 -0.2546,-0.23845 -0.4609,-0.19532 -0.1488,0.01 -0.247,0.10672 -0.295,0.28907 -0.1777,1.41561 -0.5061,3.03396 -0.9863,4.85742 -0.4561,1.73229 -1.0608,3.47512 -1.8144,5.22656 -0.7873,1.69385 -1.7168,3.27693 -2.7871,4.75 -1.0128,1.4395 -2.1814,2.54596 -3.5059,3.31837 -2.1309,1.24258 -3.8848,0.68346 -5.2617,-1.67773 -0.6717,-1.15181 -1.1528,-2.37618 -1.4453,-3.67189 -0.3258,-1.3533 -0.4971,-2.37237 -0.5118,-3.05859 1.8429,-1.07466 3.2937,-2.22976 4.3497,-3.46289 1.0223,-1.29073 1.7638,-2.53369 2.2246,-3.72852 0.4272,-1.25242 0.606,-2.39811 0.539,-3.43945 -0.01,-1.07493 -0.2142,-1.95931 -0.6172,-2.65039 -0.2686,-0.46072 -0.6604,-0.73386 -1.1738,-0.82031 -0.114,-0.03 -0.2391,-0.042 -0.375,-0.0352 z m -1.8789,2.14062 c 0.3948,0.005 0.7271,0.24107 1,0.70899 0.9403,1.61252 1.1301,3.39358 0.5684,5.3418 -0.5954,1.89063 -1.7283,3.32296 -3.3985,4.29687 -0.1727,0.10075 -0.4034,0.23442 -0.6914,0.40234 -0.3215,0.1103 -0.5563,0.17009 -0.7051,0.17969 -0.091,-0.95016 -0.1124,-1.97938 -0.064,-3.08789 0.048,-1.10851 0.1592,-2.17621 0.332,-3.20312 0.173,-1.02692 0.4307,-1.90948 0.7715,-2.64844 0.3648,-0.83014 0.8342,-1.41417 1.4102,-1.75 0.2807,-0.16372 0.5404,-0.24319 0.7773,-0.24024 z m -35.5664,2.56446 c -0.2369,-0.003 -0.4946,0.0785 -0.7754,0.24219 -0.8063,0.47016 -1.2959,1.21918 -1.4687,2.24609 -0.1154,0.99333 0.044,1.86266 0.4804,2.61133 0.403,0.69108 0.9515,0.83659 1.6426,0.43359 0.7487,-0.43658 1.2079,-1.1684 1.3809,-2.19531 0.2304,-1.0605 0.1452,-1.93588 -0.2578,-2.62696 -0.2729,-0.46791 -0.6072,-0.706 -1.002,-0.71093 z m -23.3633,3.9414 c -0.074,-0.0102 -0.1553,-0.009 -0.2441,0.004 -1.4398,0.83958 -2.997,1.94012 -4.6719,3.30273 -1.6174,1.32903 -2.8972,2.57623 -3.8379,3.74219 -0.2208,0.2831 -0.4241,0.59486 -0.6113,0.93555 -0.1631,0.24951 -0.2187,0.55309 -0.166,0.9082 -0.019,2.48097 0.016,5.31662 0.1015,8.50782 0.052,3.13361 0.1252,6.37099 0.2207,9.71094 0.1192,3.24879 0.194,6.48421 0.2227,9.70899 0.086,3.19119 0.1121,6.14824 0.078,8.86914 -0.034,2.7209 -0.1821,4.85026 -0.4414,6.39062 -0.2354,1.4492 -0.6449,2.73053 -1.2305,3.84375 -0.3744,0.68138 -0.9308,1.31505 -1.6699,1.90039 -0.7391,0.58535 -1.6274,1.18067 -2.664,1.78516 -0.4608,0.26867 -0.5903,0.57633 -0.3887,0.92187 0.1007,0.17278 0.287,0.29517 0.5605,0.36719 0.3071,0.12961 0.5935,0.15487 0.8575,0.0781 0.6143,-0.66694 1.3428,-1.3999 2.1875,-2.20118 0.8782,-0.74368 2.0458,-1.65485 3.5,-2.73437 1.4542,-1.07951 3.2704,-2.33289 5.4492,-3.75781 2.2364,-1.45851 5.025,-3.16155 8.3652,-5.10938 0.9791,-0.57091 2.0324,-1.14607 3.1602,-1.72656 1.0942,-0.63808 2.2498,-1.23648 3.4687,-1.79297 1.1854,-0.61407 2.3754,-1.15383 3.5703,-1.61914 1.195,-0.46531 2.3253,-0.77539 3.3906,-0.93359 0.4128,-0.0863 0.7316,-0.002 0.9571,0.25195 0.2831,0.22079 0.5098,0.47377 0.6777,0.76172 0.1343,0.23036 0.2579,0.31326 0.3731,0.24609 -0.038,-0.59505 -0.1934,-1.39244 -0.4668,-2.39062 -0.1822,-0.97418 -0.3575,-1.60463 -0.5254,-1.89258 -0.3359,-0.5759 -1.0322,-0.71126 -2.0879,-0.4043 -0.264,0.0768 -0.6252,0.24891 -1.086,0.51758 -0.4943,0.21107 -1.0012,0.46924 -1.5195,0.77148 -0.5519,0.24466 -1.0872,0.51807 -1.6055,0.82032 -0.4607,0.26866 -0.835,0.48637 -1.123,0.65429 -0.6911,0.403 -1.8668,1.16639 -3.5273,2.28907 -1.6606,1.12267 -3.5335,2.40849 -5.6211,3.85742 -2.0637,1.35776 -4.1692,2.77725 -6.3145,4.25976 -2.1453,1.48252 -3.9726,2.78144 -5.4844,3.89454 -0.5181,0.30225 -0.8004,0.34893 -0.8437,0.14257 -0.043,-0.20635 0.058,-0.49682 0.3027,-0.87109 1.0512,-1.77059 1.8997,-3.69265 2.543,-5.76563 0.6674,-2.16415 1.0199,-4.80056 1.0586,-7.91015 0,-1.85233 -0.022,-3.80851 -0.064,-5.86719 0.016,-2.09227 0.019,-4.13758 0.01,-6.13867 -0.043,-2.05868 -0.076,-3.96932 -0.1,-5.73047 0,-1.85233 0,-3.43514 0.01,-4.75 -0.038,-1.52121 -0.01,-3.12122 0.094,-4.80078 0.067,-1.73715 0.1742,-3.34322 0.3184,-4.81642 0.1633,-1.17567 0.3309,-2.27777 0.5039,-3.30468 0.1728,-1.02692 0.8061,-1.85802 1.9004,-2.4961 0.6334,-0.36942 1.1687,-0.64282 1.6054,-0.82031 0.4943,-0.21108 0.9486,-0.36095 1.3614,-0.44727 l -0.01,0 c 0.1059,-0.21592 0.076,-0.4679 -0.092,-0.75586 -0.083,-0.24114 -0.2346,-0.37562 -0.4551,-0.40625 z m 43.9903,1.58789 c -0.3144,-0.01 -0.7014,0.12001 -1.1622,0.38868 -0.8638,0.50374 -1.6225,1.25585 -2.2753,2.2539 -0.5952,0.96447 -1.0665,2.01101 -1.4122,3.13867 -0.3794,1.07008 -0.5926,2.15907 -0.6406,3.26758 0.01,0.99935 0.196,1.82462 0.5449,2.4922 -0.05,0.0776 -0.1019,0.19998 -0.1562,0.40625 -0.1297,1.23327 -0.4187,2.79082 -0.8652,4.67187 -0.4466,1.88106 -1.0411,3.77167 -1.7852,5.67188 -0.6865,1.86663 -1.4864,3.60454 -2.3984,5.2168 -0.9456,1.55466 -1.9947,2.66818 -3.1465,3.33984 -0.6335,0.36941 -1.2356,0.52748 -1.8067,0.47461 -0.547,-0.14404 -1.0209,-0.56087 -1.4238,-1.25195 -0.3695,-0.63349 -0.7016,-1.59882 -0.9941,-2.89453 -0.235,-1.3293 -0.4045,-2.81088 -0.5098,-4.44727 -0.1389,-1.69399 -0.2376,-3.45078 -0.2949,-5.26953 2e-4,-1.85232 0.04,-3.57177 0.1172,-5.16016 0.048,-0.18234 0.034,-0.40598 -0.043,-0.66992 -0.019,-0.29753 -0.064,-0.50396 -0.1309,-0.61914 -0.1007,-0.17259 -0.2941,-0.17573 -0.582,-0.008 -0.2303,0.13433 -0.6188,0.59288 -1.166,1.375 -0.5231,0.69094 -0.7951,1.35183 -0.8145,1.98047 -0.091,0.90215 -0.1708,2.22183 -0.2382,3.95898 -0.01,1.70356 -0.015,3.47971 -0.016,5.33203 0.057,1.81875 0.1844,3.55835 0.3809,5.21875 0.1629,1.60281 0.4638,2.77868 0.9004,3.52735 0.3694,0.63349 0.7865,1.08471 1.2519,1.35351 0.4894,0.17761 0.9732,0.28168 1.4532,0.31055 0.5374,-0.005 1.0545,-0.11315 1.5488,-0.32422 0.4943,-0.21108 0.9142,-0.41765 1.2598,-0.61914 0.979,-0.57092 1.9553,-1.40921 2.9296,-2.51758 0.9743,-1.10838 1.8199,-2.37264 2.5352,-3.79297 0.1115,-0.22289 0.2198,-0.47058 0.3301,-0.70508 1.7229,2.11104 4.3245,2.15784 7.8105,0.125 0.5759,-0.33583 1.2861,-0.90575 2.1309,-1.70703 0.8782,-0.74368 1.6097,-1.67192 2.1953,-2.78515 0.6432,-1.14682 1.0416,-2.3826 1.1953,-3.70703 0.1202,-1.38203 -0.2557,-2.82102 -1.1289,-4.31836 -0.4365,-0.74868 -1.0591,-1.35065 -1.8652,-1.80664 -0.8062,-0.456 -1.6402,-0.89594 -2.5039,-1.31836 -0.9549,-0.44642 -1.711,-0.81657 -2.2676,-1.10939 -0.5566,-0.2928 -0.9696,-0.66819 -1.2383,-1.12891 -0.5373,-0.92144 -0.5357,-1.84841 0,-2.77929 0.5376,-0.93089 1.2093,-1.6314 2.0156,-2.10156 1.0942,-0.63808 2.0323,-0.6839 2.8144,-0.13672 0.2477,0.16319 0.3742,0.0508 0.3809,-0.33789 -0.053,-0.35512 -0.094,-0.75488 -0.1231,-1.20118 -0.064,-0.50388 -0.093,-0.95114 -0.086,-1.33984 -0.1679,-0.28797 -0.4083,-0.43762 -0.7226,-0.44727 z m -4.5118,12.22267 c 0.3488,0.44114 0.771,0.79937 1.2676,1.07227 l 2.043,1.12304 c 0.6477,0.31682 1.3016,0.70826 1.959,1.17383 0.6573,0.46557 1.204,1.07359 1.6406,1.82227 0.5709,0.97902 0.8232,1.87456 0.7558,2.68554 -0.067,0.81098 -0.2896,1.55691 -0.664,2.23829 -0.3504,0.59019 -0.8087,1.12673 -1.375,1.61132 -0.5999,0.42701 -1.1292,0.77431 -1.5899,1.04297 -1.0942,0.63808 -2.263,0.81952 -3.5058,0.54102 -1.2429,-0.27851 -2.3107,-0.85396 -3.2031,-1.72266 -0.1426,-0.14615 -0.2572,-0.19476 -0.3575,-0.19531 0.4285,-1.09752 0.8485,-2.28468 1.2578,-3.57031 0.8401,-2.63827 1.4295,-5.24559 1.7715,-7.82227 z m -3.289,12.0293 c -0.066,0.19775 -0.1473,0.40925 -0.2539,0.64648 -0.029,0.0582 -0.052,0.0997 -0.08,0.15625 0.1121,-0.25942 0.2231,-0.53094 0.334,-0.80273 z" />
  </g>
</svg>
