  0
SECTION
  2
HEADER
  9
$ACADVER
  1
AC1014
  9
$HANDSEED
  5
FFFF
  9
$MEASUREMENT
 70
     1
  0
ENDSEC
  0
SECTION
  2
TABLES
  0
TABLE
  2
VPORT
  5
8
330
0
100
AcDbSymbolTable
 70
     4
  0
VPORT
  5
2E
330
8
100
AcDbSymbolTableRecord
100
AcDbViewportTableRecord
  2
*ACTIVE
 70
     0
 10
0.0
 20
0.0
 11
1.0
 21
1.0
 12
210.0
 22
148.5
 13
0.0
 23
0.0
 14
10.0
 24
10.0
 15
10.0
 25
10.0
 16
0.0
 26
0.0
 36
1.0
 17
0.0
 27
0.0
 37
0.0
 40
341.0
 41
1.24
 42
50.0
 43
0.0
 44
0.0
 50
0.0
 51
0.0
 71
     0
 72
   100
 73
     1
 74
     3
 75
     0
 76
     0
 77
     0
 78
     0
  0
ENDTAB
  0
TABLE
  2
LTYPE
  5
5
330
0
100
AcDbSymbolTable
 70
     1
  0
LTYPE
  5
14
330
5
100
AcDbSymbolTableRecord
100
AcDbLinetypeTableRecord
  2
BYBLOCK
 70
     0
  3

 72
    65
 73
     0
 40
0.0
  0
LTYPE
  5
15
330
5
100
AcDbSymbolTableRecord
100
AcDbLinetypeTableRecord
  2
BYLAYER
 70
     0
  3

 72
    65
 73
     0
 40
0.0
  0
LTYPE
  5
16
330
5
100
AcDbSymbolTableRecord
100
AcDbLinetypeTableRecord
  2
CONTINUOUS
 70
     0
  3
Solid line
 72
    65
 73
     0
 40
0.0
  0
ENDTAB
  0
TABLE
  2
LAYER
  5
2
100
AcDbSymbolTable
 70
2
  0
LAYER
  5
50
100
AcDbSymbolTableRecord
100
AcDbLayerTableRecord
  2
0
 70
0
  6
CONTINUOUS
  0
LAYER
  5
51
100
AcDbSymbolTableRecord
100
AcDbLayerTableRecord
  2
Layer_1
 70
0
  6
CONTINUOUS
  0
ENDTAB
  0
TABLE
  2
STYLE
  5
3
330
0
100
AcDbSymbolTable
 70
     1
  0
STYLE
  5
11
330
3
100
AcDbSymbolTableRecord
100
AcDbTextStyleTableRecord
  2
STANDARD
 70
     0
 40
0.0
 41
1.0
 50
0.0
 71
     0
 42
2.5
  3
txt
  4

  0
ENDTAB
  0
TABLE
  2
VIEW
  5
6
330
0
100
AcDbSymbolTable
 70
     0
  0
ENDTAB
  0
TABLE
  2
UCS
  5
7
330
0
100
AcDbSymbolTable
 70
     0
  0
ENDTAB
  0
TABLE
  2
APPID
  5
9
330
0
100
AcDbSymbolTable
 70
     2
  0
APPID
  5
12
330
9
100
AcDbSymbolTableRecord
100
AcDbRegAppTableRecord
  2
ACAD
 70
     0
  0
ENDTAB
  0
TABLE
  2
DIMSTYLE
  5
A
330
0
100
AcDbSymbolTable
 70
     1
  0
DIMSTYLE
105
27
330
A
100
AcDbSymbolTableRecord
100
AcDbDimStyleTableRecord
  2
ISO-25
 70
     0
  3

  4

  5

  6

  7

 40
1.0
 41
2.5
 42
0.625
 43
3.75
 44
1.25
 45
0.0
 46
0.0
 47
0.0
 48
0.0
140
2.5
141
2.5
142
0.0
143
0.03937007874016
144
1.0
145
0.0
146
1.0
147
0.625
 71
     0
 72
     0
 73
     0
 74
     0
 75
     0
 76
     0
 77
     1
 78
     8
170
     0
171
     3
172
     1
173
     0
174
     0
175
     0
176
     0
177
     0
178
     0
270
     2
271
     2
272
     2
273
     2
274
     3
340
11
275
     0
280
     0
281
     0
282
     0
283
     0
284
     8
285
     0
286
     0
287
     3
288
     0
  0
ENDTAB
  0
TABLE
  2
BLOCK_RECORD
  5
1
330
0
100
AcDbSymbolTable
 70
     1
  0
BLOCK_RECORD
  5
1F
330
1
100
AcDbSymbolTableRecord
100
AcDbBlockTableRecord
  2
*MODEL_SPACE
  0
BLOCK_RECORD
  5
1B
330
1
100
AcDbSymbolTableRecord
100
AcDbBlockTableRecord
  2
*PAPER_SPACE
  0
ENDTAB
  0
ENDSEC
  0
SECTION
  2
BLOCKS
  0
BLOCK
  5
20
330
1F
100
AcDbEntity
  8
0
100
AcDbBlockBegin
  2
*MODEL_SPACE
 70
     0
 10
0.0
 20
0.0
 30
0.0
  3
*MODEL_SPACE
  1

  0
ENDBLK
  5
21
330
1F
100
AcDbEntity
  8
0
100
AcDbBlockEnd
  0
BLOCK
  5
1C
330
1B
100
AcDbEntity
 67
     1
  8
0
100
AcDbBlockBegin
  2
*PAPER_SPACE
  1

  0
ENDBLK
  5
1D
330
1B
100
AcDbEntity
 67
     1
  8
0
100
AcDbBlockEnd
  0
ENDSEC
  0
SECTION
  2
ENTITIES
  0
LWPOLYLINE
  5
100
100
AcDbEntity
  8
Layer_1
 62
7
100
AcDbPolyline
 90
181
 70
0
 10
12.531250
 20
51.587101
 30
0.0
 10
12.545313
 20
51.487101
 30
0.0
 10
12.996875
 20
48.226221
 30
0.0
 10
13.273438
 20
44.971501
 30
0.0
 10
13.379687
 20
41.718381
 30
0.0
 10
13.314062
 20
38.469901
 30
0.0
 10
13.079687
 20
35.235581
 30
0.0
 10
12.678125
 20
32.019901
 30
0.0
 10
12.109375
 20
28.832461
 30
0.0
 10
11.373438
 20
25.676141
 30
0.0
 10
10.475000
 20
22.560541
 30
0.0
 10
9.412500
 20
19.491821
 30
0.0
 10
8.187500
 20
16.476141
 30
0.0
 10
6.803125
 20
13.519901
 30
0.0
 10
5.257812
 20
10.629341
 30
0.0
 10
3.554688
 20
7.813661
 30
0.0
 10
1.695312
 20
5.077741
 30
0.0
 10
0.140625
 20
3.033981
 30
0.0
 10
-1.709375
 20
5.688701
 30
0.0
 10
-4.209375
 20
8.846461
 30
0.0
 10
-6.898438
 20
11.846461
 30
0.0
 10
-9.925000
 20
14.827741
 30
0.0
 10
-9.943750
 20
14.827741
 30
0.0
 10
-11.570313
 20
16.274621
 30
0.0
 10
-13.417187
 20
17.799581
 30
0.0
 10
-15.312500
 20
19.251181
 30
0.0
 10
-17.254687
 20
20.629341
 30
0.0
 10
-19.240625
 20
21.933981
 30
0.0
 10
-21.270313
 20
23.163661
 30
0.0
 10
-23.339062
 20
24.316781
 30
0.0
 10
-25.445313
 20
25.391821
 30
0.0
 10
-27.589062
 20
26.391821
 30
0.0
 10
-29.764062
 20
27.312141
 30
0.0
 10
-31.971875
 20
28.152781
 30
0.0
 10
-34.209375
 20
28.913661
 30
0.0
 10
-36.471875
 20
29.594941
 30
0.0
 10
-38.760938
 20
30.193341
 30
0.0
 10
-41.070313
 20
30.710541
 30
0.0
 10
-43.053125
 20
31.079341
 30
0.0
 10
-45.117187
 20
27.969901
 30
0.0
 10
-44.004687
 20
27.798061
 30
0.0
 10
-43.171875
 20
27.648061
 30
0.0
 10
-40.209375
 20
27.037101
 30
0.0
 10
-39.768750
 20
26.937101
 30
0.0
 10
-38.145313
 20
26.523021
 30
0.0
 10
-37.540625
 20
26.355901
 30
0.0
 10
-34.868750
 20
25.544941
 30
0.0
 10
-32.235938
 20
24.616781
 30
0.0
 10
-32.090625
 20
24.562141
 30
0.0
 10
-28.637500
 20
23.123021
 30
0.0
 10
-25.285938
 20
21.482461
 30
0.0
 10
-22.040625
 20
19.644941
 30
0.0
 10
-18.907813
 20
17.613661
 30
0.0
 10
-15.898438
 20
15.394941
 30
0.0
 10
-13.020313
 20
12.993341
 30
0.0
 10
-10.284375
 20
10.413661
 30
0.0
 10
-7.693750
 20
7.655901
 30
0.0
 10
-7.168750
 20
7.049581
 30
0.0
 10
-6.653125
 20
6.441821
 30
0.0
 10
-4.370312
 20
3.526221
 30
0.0
 10
-2.701562
 20
1.119901
 30
0.0
 10
-3.850000
 20
0.788701
 30
0.0
 10
-4.087500
 20
0.713661
 30
0.0
 10
-5.807812
 20
0.160541
 30
0.0
 10
-6.078125
 20
0.065261
 30
0.0
 10
-7.767188
 20
-0.537859
 30
0.0
 10
-7.959375
 20
-0.611299
 30
0.0
 10
-9.714062
 20
-1.301939
 30
0.0
 10
-11.592187
 20
-2.108179
 30
0.0
 10
-15.242187
 20
-3.881619
 30
0.0
 10
-18.762500
 20
-5.872259
 30
0.0
 10
-22.145313
 20
-8.069139
 30
0.0
 10
-25.378125
 20
-10.462899
 30
0.0
 10
-28.453125
 20
-13.048819
 30
0.0
 10
-31.359375
 20
-15.814419
 30
0.0
 10
-32.756250
 20
-17.269139
 30
0.0
 10
-35.628125
 20
-20.570659
 30
0.0
 10
-38.282813
 20
-24.066019
 30
0.0
 10
-40.703125
 20
-27.744099
 30
0.0
 10
-42.784375
 20
-31.426979
 30
0.0
 10
-40.462500
 20
-34.370659
 30
0.0
 10
-38.764062
 20
-31.187859
 30
0.0
 10
-37.076562
 20
-28.390979
 30
0.0
 10
-35.248438
 20
-25.694099
 30
0.0
 10
-33.285938
 20
-23.103539
 30
0.0
 10
-31.195313
 20
-20.622259
 30
0.0
 10
-28.978125
 20
-18.256659
 30
0.0
 10
-26.643750
 20
-16.009779
 30
0.0
 10
-24.192187
 20
-13.887859
 30
0.0
 10
-21.632813
 20
-11.895699
 30
0.0
 10
-18.967187
 20
-10.034739
 30
0.0
 10
-16.203125
 20
-8.314419
 30
0.0
 10
-13.342187
 20
-6.736339
 30
0.0
 10
-10.392187
 20
-5.306659
 30
0.0
 10
-7.357812
 20
-4.028499
 30
0.0
 10
-4.242188
 20
-2.908179
 30
0.0
 10
-1.784375
 20
-2.169139
 30
0.0
 10
-1.843750
 20
-4.817539
 30
0.0
 10
-1.742188
 20
-8.240979
 30
0.0
 10
-1.462500
 20
-11.634739
 30
0.0
 10
-1.009375
 20
-14.995699
 30
0.0
 10
-0.384375
 20
-18.317539
 30
0.0
 10
0.407812
 20
-21.592579
 30
0.0
 10
1.364062
 20
-24.816019
 30
0.0
 10
2.484375
 20
-27.980099
 30
0.0
 10
3.762500
 20
-31.080099
 30
0.0
 10
5.198438
 20
-34.111299
 30
0.0
 10
6.785938
 20
-37.064419
 30
0.0
 10
8.525000
 20
-39.934739
 30
0.0
 10
10.410938
 20
-42.716019
 30
0.0
 10
12.440625
 20
-45.403539
 30
0.0
 10
14.612500
 20
-47.989459
 30
0.0
 10
16.812500
 20
-50.350419
 30
0.0
 10
20.331250
 20
-49.058179
 30
0.0
 10
17.831250
 20
-46.461299
 30
0.0
 10
15.690625
 20
-43.989459
 30
0.0
 10
13.689062
 20
-41.417539
 30
0.0
 10
11.828125
 20
-38.750419
 30
0.0
 10
10.114062
 20
-35.992579
 30
0.0
 10
8.546875
 20
-33.153539
 30
0.0
 10
7.131250
 20
-30.236339
 30
0.0
 10
5.868750
 20
-27.248819
 30
0.0
 10
4.762500
 20
-24.197219
 30
0.0
 10
3.815625
 20
-21.086339
 30
0.0
 10
3.032812
 20
-17.923859
 30
0.0
 10
2.414062
 20
-14.716019
 30
0.0
 10
1.964062
 20
-11.466019
 30
0.0
 10
1.685938
 20
-8.183219
 30
0.0
 10
1.582812
 20
-4.872259
 30
0.0
 10
1.639062
 20
-2.305059
 30
0.0
 10
4.142188
 20
-3.183219
 30
0.0
 10
7.431250
 20
-4.144099
 30
0.0
 10
10.748438
 20
-4.928499
 30
0.0
 10
14.087500
 20
-5.537859
 30
0.0
 10
17.442187
 20
-5.970659
 30
0.0
 10
20.804687
 20
-6.230099
 30
0.0
 10
24.168750
 20
-6.314419
 30
0.0
 10
27.526562
 20
-6.228499
 30
0.0
 10
30.873438
 20
-5.969139
 30
0.0
 10
34.200000
 20
-5.539459
 30
0.0
 10
37.501562
 20
-4.940979
 30
0.0
 10
40.771875
 20
-4.172259
 30
0.0
 10
44.001562
 20
-3.237859
 30
0.0
 10
47.185938
 20
-2.134739
 30
0.0
 10
50.318750
 20
-0.866019
 30
0.0
 10
53.134375
 20
0.448061
 30
0.0
 10
52.965625
 20
4.180861
 30
0.0
 10
49.835938
 20
2.659021
 30
0.0
 10
46.823438
 20
1.385581
 30
0.0
 10
43.759375
 20
0.276141
 30
0.0
 10
40.646875
 20
-0.667539
 30
0.0
 10
37.495313
 20
-1.447219
 30
0.0
 10
34.309375
 20
-2.059779
 30
0.0
 10
31.096875
 20
-2.505059
 30
0.0
 10
27.865625
 20
-2.783219
 30
0.0
 10
24.620313
 20
-2.890979
 30
0.0
 10
21.368750
 20
-2.830099
 30
0.0
 10
18.117187
 20
-2.597219
 30
0.0
 10
14.873438
 20
-2.192579
 30
0.0
 10
11.643750
 20
-1.616019
 30
0.0
 10
8.435938
 20
-0.866019
 30
0.0
 10
5.253125
 20
0.059021
 30
0.0
 10
2.829688
 20
0.907421
 30
0.0
 10
4.435938
 20
3.016781
 30
0.0
 10
6.367188
 20
5.849581
 30
0.0
 10
8.139062
 20
8.763661
 30
0.0
 10
9.750000
 20
11.752781
 30
0.0
 10
11.198438
 20
14.809021
 30
0.0
 10
12.482813
 20
17.927741
 30
0.0
 10
13.603125
 20
21.102781
 30
0.0
 10
14.557813
 20
24.324621
 30
0.0
 10
15.343750
 20
27.588701
 30
0.0
 10
15.964062
 20
30.887101
 30
0.0
 10
16.412500
 20
34.213661
 30
0.0
 10
16.692187
 20
37.560541
 30
0.0
 10
16.800000
 20
40.923021
 30
0.0
 10
16.734375
 20
44.294941
 30
0.0
 10
16.493750
 20
47.666781
 30
0.0
 10
16.129687
 20
50.621501
 30
0.0
 10
12.531250
 20
51.587101
 30
0.0
 10
12.531250
 20
51.587101
 30
0.0
  0
ENDSEC
  0
SECTION
  2
OBJECTS
  0
DICTIONARY
  5
C
330
0
100
AcDbDictionary
  3
ACAD_GROUP
350
D
  3
ACAD_MLINESTYLE
350
17
  0
DICTIONARY
  5
D
330
C
100
AcDbDictionary
  0
DICTIONARY
  5
1A
330
C
100
AcDbDictionary
  0
DICTIONARY
  5
17
330
C
100
AcDbDictionary
  3
STANDARD
350
18
  0
DICTIONARY
  5
19
330
C
100
AcDbDictionary
  0
ENDSEC
  0
EOF
