<?xml version="1.0" encoding="UTF-8" standalone="no"?>
<!-- Created with Inkscape (http://www.inkscape.org/) -->

<svg
   xmlns:dc="http://purl.org/dc/elements/1.1/"
   xmlns:cc="http://creativecommons.org/ns#"
   xmlns:rdf="http://www.w3.org/1999/02/22-rdf-syntax-ns#"
   xmlns:svg="http://www.w3.org/2000/svg"
   xmlns="http://www.w3.org/2000/svg"
   xmlns:sodipodi="http://sodipodi.sourceforge.net/DTD/sodipodi-0.dtd"
   xmlns:inkscape="http://www.inkscape.org/namespaces/inkscape"
   width="210mm"
   height="160mm"
   viewBox="0 0 744.09448 566.92913"
   id="svg2"
   version="1.1"
   inkscape:version="0.91 r13725"
   sodipodi:docname="panda.svg">
  <defs
     id="defs4">
    <clipPath
       id="clipPath16"
       clipPathUnits="userSpaceOnUse">
      <path
         inkscape:connector-curvature="0"
         id="path18"
         d="M 0,612 792,612 792,0 0,0 0,612 Z" />
    </clipPath>
    <clipPath
       id="clipPath26"
       clipPathUnits="userSpaceOnUse">
      <path
         inkscape:connector-curvature="0"
         id="path28"
         d="M 0,612 792,612 792,0 0,0 0,612 Z" />
    </clipPath>
  </defs>
  <sodipodi:namedview
     id="base"
     pagecolor="#ffffff"
     bordercolor="#666666"
     borderopacity="1.0"
     inkscape:pageopacity="0"
     inkscape:pageshadow="2"
     inkscape:zoom="0.7"
     inkscape:cx="490.84546"
     inkscape:cy="318.1028"
     inkscape:document-units="px"
     inkscape:current-layer="layer1"
     showgrid="true"
     inkscape:snap-bbox="true"
     inkscape:bbox-paths="true"
     inkscape:bbox-nodes="true"
     inkscape:snap-bbox-edge-midpoints="true"
     inkscape:snap-bbox-midpoints="true"
     inkscape:object-paths="true"
     inkscape:snap-intersection-paths="true"
     inkscape:object-nodes="true"
     inkscape:snap-smooth-nodes="true"
     inkscape:snap-midpoints="true"
     inkscape:snap-object-midpoints="true"
     inkscape:snap-center="true"
     inkscape:window-width="1920"
     inkscape:window-height="1029"
     inkscape:window-x="1600"
     inkscape:window-y="25"
     inkscape:window-maximized="1"
     inkscape:snap-global="false"
     showborder="true"
     borderlayer="false"
     inkscape:showpageshadow="false" />
  <metadata
     id="metadata7">
    <rdf:RDF>
      <cc:Work
         rdf:about="">
        <dc:format>image/svg+xml</dc:format>
        <dc:type
           rdf:resource="http://purl.org/dc/dcmitype/StillImage" />
        <dc:title></dc:title>
      </cc:Work>
    </rdf:RDF>
  </metadata>
  <g
     inkscape:label="Layer 1"
     inkscape:groupmode="layer"
     id="layer1"
     transform="translate(0,-485.43308)">
    <g
       id="g4572"
       transform="matrix(0.64573638,0,0,0.64573638,150.89271,223.31841)"
       style="fill:#000000" />
    <path
       style="fill:#000000"
       d="m 347.16207,976.94865 c -15.47489,-2.873 -23.26567,-6.423 -38.7232,-17.643 -4.55219,-3.305 -10.67106,-7.643 -13.59747,-9.641 l -5.32074,-3.633 -7.40918,1.102 c -12.38143,1.843 -25.48268,2.944 -42.47844,3.573 -22.94614,0.85 -36.03521,-0.41 -48.66209,-4.679 l -5.06818,-1.713 -4.77446,1.69 c -10.67511,3.777 -23.93631,4.712 -38.81496,2.736 -3.90188,-0.52 -11.48394,-1.37 -16.84903,-1.894 -16.99736,-1.659 -23.78664,-3.981 -30.190528,-10.328 -1.845908,-1.83 -4.050359,-4.82 -5.01994,-6.809 -1.596874,-3.277 -1.723366,-4.021 -1.658205,-9.755 0.19042,-16.756 7.238059,-30.93003 18.121963,-36.44503 5.31728,-2.695 8.0387,-3.265 17.12093,-3.59 4.79606,-0.17 8.71695,-0.48 8.71309,-0.68 -0.004,-0.2 -0.38807,-1.802 -0.8538,-3.552 l -0.84678,-3.181 3.78023,-10.404 3.78023,-10.403 -2.18743,-1.74 c -9.44106,-7.512 -13.91861,-16.755 -12.48688,-25.775 0.6413,-4.041 3.8419,-10.583 7.08675,-14.485 2.58736,-3.111 8.5981,-7.964 9.87746,-7.975 0.57804,-0.007 0.66338,-1.078 0.36757,-4.625 -0.65652,-7.873 1.80227,-17.366 6.30021,-24.325 6.03362,-9.335 14.82491,-15.554 26.02422,-18.41 4.53534,-1.156 15.25905,-1 20.05823,0.29 10.55648,2.843 19.68923,9.432 25.69484,18.537 1.55124,2.352 1.83175,2.513 4.38682,2.518 1.50129,0.006 4.10288,0.17 5.78132,0.37 l 3.05171,0.37 0.3081,-3.18 c 0.1694,-1.749 0.6168,-6.771 0.9941,-11.161 0.5766,-6.708 2.24961,-17.863 3.87918,-25.865 l 0.3913,-1.921 -5.24685,-0.008 c -9.55853,0 -20.13298,-3.063 -29.02331,-8.369 -4.67972,-2.793 -12.4678,-10.326 -16.08451,-15.557 -7.20697,-10.426 -10.70716,-22.393 -10.72281,-36.663 -0.015,-13.707 2.51763,-24.264 8.93485,-37.245 4.96207,-10.038 10.32828,-17.652 17.40593,-24.697 16.10714,-16.033 35.42528,-24.682 55.07796,-24.66 11.42099,0 21.25771,2.687 30.77793,8.369 4.60307,2.747 12.52886,10.373 15.88433,15.284 1.55006,2.269 2.97085,4.123 3.15733,4.121 0.1865,-10e-4 2.9512,-2.1 6.14384,-4.663 13.04704,-10.475 23.15181,-16.96 37.35236,-23.972 23.94505,-11.824 46.84796,-17.726 74.8018,-19.278 26.75352,-1.484 55.7813,2.226 80.43922,10.281 l 6.07569,1.985 3.3804,-2.718 c 13.30632,-10.702 32.22984,-16.64 50.49751,-15.848 37.86188,1.642 70.24298,28.345 76.88812,63.406 1.35892,7.17 1.25433,18.393 -0.2367,25.396 -2.03938,9.578 -7.17993,20.65 -12.53869,27.005 l -2.36543,2.805 3.22946,6.44 c 9.65904,19.259 16.93534,41.617 20.71834,63.662 2.11026,12.297 2.6567,19.873 2.94828,40.879 0.3175,22.87 -0.1554,26.337 -4.9075,35.976 -1.60302,3.251 -3.83774,8.307 -4.96603,11.234 -6.86808,17.819 -16.69503,32.628 -31.41818,47.348 -9.75152,9.75 -18.90923,16.95403 -30.00442,23.60203 l -6.89166,4.13 -0.4047,2.661 c -0.5786,3.802 -3.44195,10.934 -6.3062,15.705 -8.74342,14.566 -21.95483,24.138 -38.02346,27.55 -6.82529,1.449 -18.61295,1.548 -26.02303,0.22 -5.06777,-0.91 -36.7674,-11.021 -45.52194,-14.521 -4.09312,-1.636 -4.3193,-1.658 -20.69179,-1.995 -14.91558,-0.31 -19.42288,-0.59 -29.56227,-1.858 l -3.04996,-0.38 -1.33539,3.663 c -5.22202,14.322 -20.99456,27.598 -37.88245,31.886 -4.87742,1.239 -17.71979,2.117 -21.28299,1.456 z m -94.88663,-38.084 c 8.58177,-0.56 25.82812,-2.304 26.1906,-2.644 0.098,-0.1 -0.6251,-1.434 -1.60674,-2.982 -2.84626,-4.488 -3.89048,-8.228 -3.87323,-13.875 0.013,-4.16 0.2827,-5.602 1.56841,-8.375 1.89401,-4.084 5.22118,-8.655 10.08372,-13.85303 l 3.66446,-3.918 -1.75578,-1.472 c -19.49593,-16.349 -31.57439,-31.136 -40.78421,-49.932 -2.33802,-4.771 -5.24877,-11.679 -6.46833,-15.35 -2.9376,-8.843 -5.57098,-21.798 -5.99172,-29.477 -0.5558,-10.143 -0.088,-9.12 -4.32579,-9.462 -2.03225,-0.16 -3.75117,-0.24 -3.81983,-0.17 -0.069,0.1 0.051,1.798 0.2651,3.844 2.21354,21.121 -12.40713,40.506 -33.61069,44.562 -9.85572,1.886 -19.06387,0.44 -28.64268,-4.496 l -2.20123,-1.134 -2.30524,3.973 c -4.33765,7.475 -5.91244,11.082 -10.93251,25.035 l -5.02531,13.968 0.92,3.653 0.91999,3.652 3.31844,-0.37 c 9.39046,-1.057 13.06251,-3.015 21.15809,-11.287 7.81141,-7.981 9.74319,-9.067 16.154,-9.08 9.41723,0 19.61019,3.845 25.40255,9.628 3.75543,3.75 5.61827,6.82 7.48416,12.335 3.54904,10.491 1.98215,22.92503 -4.53318,35.97403 -2.8064,5.62 -8.49676,13.329 -12.00384,16.26 -1.48291,1.24 -2.57522,2.45 -2.42736,2.689 0.22305,0.36 5.99746,1.51 12.68141,2.523 3.21018,0.49 32.13876,0.33 40.49679,-0.21 z m 226.4273,-9.1 c 46.28,-5.181 84.71626,-18.803 113.08854,-40.07903 7.46802,-5.6 19.01621,-16.85 24.67814,-24.04 4.46481,-5.67 9.71497,-13.448 8.7596,-12.977 -10.33968,5.1 -13.8872,6.038 -22.67113,5.998 -7.97663,0 -14.03119,-1.574 -22.0408,-5.599 -12.29022,-6.177 -18.08004,-11.944 -25.91511,-25.816 -2.33126,-4.127 -5.04988,-8.702 -6.04139,-10.165 -2.67656,-3.95 -8.3486,-9.692 -13.72456,-13.895 -15.59718,-12.193 -23.92189,-27.638 -23.89848,-44.337 0.043,-30.326 31.47711,-46.255 70.33735,-35.644 12.42547,3.393 27.28387,10.575 38.69078,18.7 5.91862,4.216 15.92346,13.771 19.95593,19.059 1.69596,2.224 3.15621,3.971 3.24501,3.882 0.2965,-0.3 -2.13155,-15.82 -3.37655,-21.588 -8.50462,-39.398 -25.94419,-73.416 -52.07837,-101.586 -32.88659,-35.448 -76.43544,-56.946 -126.74478,-62.567 -9.93422,-1.109 -33.76089,-1.286 -43.15716,-0.32 -17.39404,1.788 -35.22931,6.248 -50.71856,12.681 -17.99999,7.475 -38.10627,20.132 -51.48111,32.407 -2.69162,2.47 -2.7575,2.611 -2.15352,4.617 2.28534,7.59 3.10144,21.502 1.80338,30.742 -1.73333,12.339 -8.39609,28.392 -16.41971,39.56 -10.52495,14.65 -26.03182,26.26 -42.72204,31.984 l -6.20754,2.13 -1.87147,9.269 c -2.88608,14.294 -3.92657,24.848 -3.91699,39.73 0.012,18.2 1.63894,28.708 6.68305,43.157 3.96287,11.353 11.7348,25.038 20.13531,35.455 5.11607,6.345 15.163,16.275 22.16064,21.903 l 5.72956,4.608 3.03047,-0.8 c 4.13713,-1.095 11.16391,-0.97 15.44555,0.28 4.79737,1.395 11.19447,4.667 18.44525,9.434 10.8548,7.13603 19.8403,10.34903 26.74683,9.56403 1.76952,-0.2 5.87316,-1.289 9.1192,-2.417 3.24604,-1.127 6.58692,-2.08803 7.42418,-2.13403 0.8373,0 -1.39796,-0.31 -4.96716,-0.58 -32.89907,-2.521 -57.45587,-20.216 -65.87264,-47.466 -3.5614,-11.531 -4.34603,-28.2 -1.88086,-39.958 2.58079,-12.31 6.987,-22.714 14.28219,-33.723 5.26998,-7.953 17.70104,-20.242 26.21394,-25.915 29.29974,-19.525 65.19518,-25.916 86.26178,-15.359 11.57466,5.8 17.97285,13.326 22.54684,26.519 5.94823,17.157 6.91168,32.344 2.86598,45.176 -2.61869,8.306 -6.0876,14.274 -13.37197,23.006 -4.91562,5.893 -7.02051,9.942 -13.20198,25.401 -9.59555,23.996 -14.62882,30.928 -26.52368,36.529 -5.65997,2.666 -12.61356,4.575 -18.49456,5.079 -5.14068,0.44 -5.973,1.117 -1.86076,1.51203 8.18372,0.79 21.24294,14.873 22.89286,24.693 l 0.447,2.66 5.01472,0.71 c 10.09839,1.438 19.60765,1.851 38.1139,1.653 11.90558,-0.13 21.98623,-0.55 27.19492,-1.129 z m -20.1006,-17.979 c -18.94991,-4.859 -28.38579,-14.44103 -31.29306,-31.77603 l -0.4033,-2.405 4.62899,-1 c 6.71901,-1.444 6.37457,-1.595 7.22498,3.164 1.39161,7.787 5.70017,13.981 11.93893,17.164 8.30815,4.23903 18.46397,5.75103 25.93527,3.863 5.10899,-1.292 12.57884,-4.935 16.37456,-7.987 3.58577,-2.883 8.03906,-8.563 9.99753,-12.752 1.53419,-3.281 1.44461,-3.433 -2.42915,-4.128 -7.19201,-1.289 -16.02589,-7.656 -18.9684,-13.67 -4.92859,-10.074 0.2125,-23.335 12.11397,-31.247 13.58163,-9.029 30.97872,-7.229 42.66481,4.414 4.38812,4.372 6.75669,8.655 7.75531,14.025 0.5718,3.075 0.5152,4.206 -0.3746,7.493 -2.26635,8.373 -7.97346,13.542 -20.40061,18.48 -1.42607,0.57 -1.38586,0.64 2.59967,4.525 2.44432,2.385 5.53595,4.682 7.80344,5.799 3.37103,1.659 4.14885,1.817 7.60159,1.54 5.19928,-0.42 9.88676,-2.735 11.99903,-5.933 1.49978,-2.27 1.59329,-2.808 1.55654,-8.957 -0.035,-5.858 -0.2357,-7.063 -1.91747,-11.522 -1.0331,-2.739 -1.80675,-5.051 -1.71921,-5.139 0.1825,-0.18 9.85851,-3.774 10.16756,-3.774 0.3878,0 3.23616,7.998 4.21059,11.824 0.5546,2.177 0.9806,6.17 0.983,9.214 0.009,12 -5.43554,19.953 -16.41492,23.976 -2.80618,1.028 -4.90564,1.31 -10.0503,1.347 -6.2057,0 -6.68593,0 -10.49976,-1.907 -4.41145,-2.157 -12.13116,-8.083 -14.06079,-10.793 -0.6803,-0.96 -1.41831,-1.733 -1.64004,-1.728 -0.2217,0.008 -1.04608,1.32 -1.83191,2.921 -5.25472,10.707 -16.44927,19.71203 -30.20011,24.29503 -5.45823,1.819 -17.52083,2.165 -23.35217,0.67 z M 193.23192,821.79062 c 4.45447,-1.533 7.02515,-3.139 10.74638,-6.715 12.97718,-12.47 10.61985,-33.618 -4.86276,-43.625 -9.49675,-6.138 -22.50309,-6.307 -31.75436,-0.41 -3.26951,2.083 -8.23963,7.208 -9.66786,9.97 -4.75354,9.193 -4.32091,20.721 1.0767,28.69 7.84359,11.582 21.75785,16.465 34.4619,12.094 z m 221.42702,-9.442 c 2.05811,-0.68 5.51552,-2.431 7.68313,-3.894 14.44755,-9.747 16.27103,-29.113 3.88405,-41.249 -17.37485,-17.022 -47.47106,-7.738 -50.84561,15.686 -2.89143,20.071 18.68655,36.253 39.27843,29.457 z m -28.97676,-19.538 c -1.02634,-2.623 -1.86608,-4.992 -1.86608,-5.265 0,-0.64 9.21243,-3.979 14.10037,-5.113 5.51907,-1.28 15.25955,-1.144 21.66687,0.3 7.28324,1.644 12.41508,3.273 12.41508,3.94 0,0.31 -0.6412,2.771 -1.42492,5.478 -1.11426,3.848 -1.62981,4.862 -2.36477,4.649 -0.5169,-0.15 -3.3342,-1.022 -6.26061,-1.937 -4.78518,-1.496 -6.1836,-1.666 -13.89306,-1.685 -8.5127,0 -8.61194,-0.008 -14.27046,2.188 -3.13398,1.215 -5.81924,2.209 -5.96724,2.209 -0.148,0 -1.10883,-2.145 -2.13518,-4.767 z m 178.32364,1.243 c 13.15303,-2.494 22.71166,-16.977 20.33849,-30.817 -1.44811,-8.444 -6.07587,-14.997 -12.99801,-18.405 -3.57172,-1.758 -4.43876,-1.94 -9.2852,-1.94 -4.86168,0 -5.70733,0.18 -9.34126,1.967 -7.61212,3.748 -13.11314,11.376 -14.61193,20.261 -1.82749,10.835 3.48475,22.311 12.42449,26.841 4.77564,2.42 8.60907,3.016 13.47342,2.093 z m -20.21751,-17.203 c -1.88825,-2.295 -3.338,-4.238 -3.22169,-4.317 0.1163,-0.1 2.33979,-1.891 4.94105,-4.026 6.38567,-5.243 9.93264,-7.408 14.39872,-8.788 6.42872,-1.987 10.74138,-1.387 17.56062,2.444 l 3.58203,2.011 -2.5715,4.837 -2.5715,4.837 -4.38867,-2.084 c -3.59978,-1.71 -4.79727,-2.015 -6.6619,-1.7 -3.04642,0.51 -7.22071,2.998 -12.36725,7.357 -2.33867,1.982 -4.48042,3.602 -4.75944,3.602 -0.279,0 -2.05223,-1.878 -3.94047,-4.173 z"
       id="path4842"
       inkscape:connector-curvature="0" />
  </g>
</svg>
