  0
SECTION
  2
HEADER
  9
$ACADVER
  1
AC1014
  9
$HANDSEED
  5
FFFF
  9
$MEASUREMENT
 70
     1
  0
ENDSEC
  0
SECTION
  2
TABLES
  0
TABLE
  2
VPORT
  5
8
330
0
100
AcDbSymbolTable
 70
     4
  0
VPORT
  5
2E
330
8
100
AcDbSymbolTableRecord
100
AcDbViewportTableRecord
  2
*ACTIVE
 70
     0
 10
0.0
 20
0.0
 11
1.0
 21
1.0
 12
210.0
 22
148.5
 13
0.0
 23
0.0
 14
10.0
 24
10.0
 15
10.0
 25
10.0
 16
0.0
 26
0.0
 36
1.0
 17
0.0
 27
0.0
 37
0.0
 40
341.0
 41
1.24
 42
50.0
 43
0.0
 44
0.0
 50
0.0
 51
0.0
 71
     0
 72
   100
 73
     1
 74
     3
 75
     0
 76
     0
 77
     0
 78
     0
  0
ENDTAB
  0
TABLE
  2
LTYPE
  5
5
330
0
100
AcDbSymbolTable
 70
     1
  0
LTYPE
  5
14
330
5
100
AcDbSymbolTableRecord
100
AcDbLinetypeTableRecord
  2
BYBLOCK
 70
     0
  3

 72
    65
 73
     0
 40
0.0
  0
LTYPE
  5
15
330
5
100
AcDbSymbolTableRecord
100
AcDbLinetypeTableRecord
  2
BYLAYER
 70
     0
  3

 72
    65
 73
     0
 40
0.0
  0
LTYPE
  5
16
330
5
100
AcDbSymbolTableRecord
100
AcDbLinetypeTableRecord
  2
CONTINUOUS
 70
     0
  3
Solid line
 72
    65
 73
     0
 40
0.0
  0
ENDTAB
  0
TABLE
  2
LAYER
  5
2
100
AcDbSymbolTable
 70
2
  0
LAYER
  5
50
100
AcDbSymbolTableRecord
100
AcDbLayerTableRecord
  2
0
 70
0
  6
CONTINUOUS
  0
LAYER
  5
51
100
AcDbSymbolTableRecord
100
AcDbLayerTableRecord
  2
Layer_1
 70
0
  6
CONTINUOUS
  0
ENDTAB
  0
TABLE
  2
STYLE
  5
3
330
0
100
AcDbSymbolTable
 70
     1
  0
STYLE
  5
11
330
3
100
AcDbSymbolTableRecord
100
AcDbTextStyleTableRecord
  2
STANDARD
 70
     0
 40
0.0
 41
1.0
 50
0.0
 71
     0
 42
2.5
  3
txt
  4

  0
ENDTAB
  0
TABLE
  2
VIEW
  5
6
330
0
100
AcDbSymbolTable
 70
     0
  0
ENDTAB
  0
TABLE
  2
UCS
  5
7
330
0
100
AcDbSymbolTable
 70
     0
  0
ENDTAB
  0
TABLE
  2
APPID
  5
9
330
0
100
AcDbSymbolTable
 70
     2
  0
APPID
  5
12
330
9
100
AcDbSymbolTableRecord
100
AcDbRegAppTableRecord
  2
ACAD
 70
     0
  0
ENDTAB
  0
TABLE
  2
DIMSTYLE
  5
A
330
0
100
AcDbSymbolTable
 70
     1
  0
DIMSTYLE
105
27
330
A
100
AcDbSymbolTableRecord
100
AcDbDimStyleTableRecord
  2
ISO-25
 70
     0
  3

  4

  5

  6

  7

 40
1.0
 41
2.5
 42
0.625
 43
3.75
 44
1.25
 45
0.0
 46
0.0
 47
0.0
 48
0.0
140
2.5
141
2.5
142
0.0
143
0.03937007874016
144
1.0
145
0.0
146
1.0
147
0.625
 71
     0
 72
     0
 73
     0
 74
     0
 75
     0
 76
     0
 77
     1
 78
     8
170
     0
171
     3
172
     1
173
     0
174
     0
175
     0
176
     0
177
     0
178
     0
270
     2
271
     2
272
     2
273
     2
274
     3
340
11
275
     0
280
     0
281
     0
282
     0
283
     0
284
     8
285
     0
286
     0
287
     3
288
     0
  0
ENDTAB
  0
TABLE
  2
BLOCK_RECORD
  5
1
330
0
100
AcDbSymbolTable
 70
     1
  0
BLOCK_RECORD
  5
1F
330
1
100
AcDbSymbolTableRecord
100
AcDbBlockTableRecord
  2
*MODEL_SPACE
  0
BLOCK_RECORD
  5
1B
330
1
100
AcDbSymbolTableRecord
100
AcDbBlockTableRecord
  2
*PAPER_SPACE
  0
ENDTAB
  0
ENDSEC
  0
SECTION
  2
BLOCKS
  0
BLOCK
  5
20
330
1F
100
AcDbEntity
  8
0
100
AcDbBlockBegin
  2
*MODEL_SPACE
 70
     0
 10
0.0
 20
0.0
 30
0.0
  3
*MODEL_SPACE
  1

  0
ENDBLK
  5
21
330
1F
100
AcDbEntity
  8
0
100
AcDbBlockEnd
  0
BLOCK
  5
1C
330
1B
100
AcDbEntity
 67
     1
  8
0
100
AcDbBlockBegin
  2
*PAPER_SPACE
  1

  0
ENDBLK
  5
1D
330
1B
100
AcDbEntity
 67
     1
  8
0
100
AcDbBlockEnd
  0
ENDSEC
  0
SECTION
  2
ENTITIES
  0
LWPOLYLINE
  5
100
100
AcDbEntity
  8
Layer_1
 62
7
100
AcDbPolyline
 90
7
 70
0
 10
3.299876
 20
10.800298
 30
0.0
 10
2.000001
 20
10.800016
 30
0.0
 10
2.000001
 20
0.000057
 30
0.0
 10
12.800014
 20
0.000057
 30
0.0
 10
12.800014
 20
10.800016
 30
0.0
 10
3.299876
 20
10.800298
 30
0.0
 10
3.299876
 20
10.800298
 30
0.0
  0
LWPOLYLINE
  5
101
100
AcDbEntity
  8
Layer_1
 62
7
100
AcDbPolyline
 90
130
 70
0
 10
7.399979
 20
10.200025
 30
0.0
 10
7.646985
 20
10.193779
 30
0.0
 10
7.890749
 20
10.175242
 30
0.0
 10
8.130968
 20
10.144716
 30
0.0
 10
8.367341
 20
10.102504
 30
0.0
 10
8.599567
 20
10.048906
 30
0.0
 10
8.827345
 20
9.984224
 30
0.0
 10
9.050371
 20
9.908759
 30
0.0
 10
9.268346
 20
9.822814
 30
0.0
 10
9.480966
 20
9.726690
 30
0.0
 10
9.687932
 20
9.620688
 30
0.0
 10
9.888940
 20
9.505110
 30
0.0
 10
10.083690
 20
9.380258
 30
0.0
 10
10.271880
 20
9.246433
 30
0.0
 10
10.453208
 20
9.103937
 30
0.0
 10
10.627373
 20
8.953072
 30
0.0
 10
10.794074
 20
8.794138
 30
0.0
 10
10.953007
 20
8.627438
 30
0.0
 10
11.103873
 20
8.453273
 30
0.0
 10
11.246369
 20
8.271944
 30
0.0
 10
11.380194
 20
8.083755
 30
0.0
 10
11.505046
 20
7.889005
 30
0.0
 10
11.620624
 20
7.687996
 30
0.0
 10
11.726626
 20
7.481031
 30
0.0
 10
11.822750
 20
7.268410
 30
0.0
 10
11.908695
 20
7.050435
 30
0.0
 10
11.984160
 20
6.827409
 30
0.0
 10
12.048842
 20
6.599632
 30
0.0
 10
12.102440
 20
6.367406
 30
0.0
 10
12.144652
 20
6.131032
 30
0.0
 10
12.175178
 20
5.890813
 30
0.0
 10
12.193715
 20
5.647050
 30
0.0
 10
12.199961
 20
5.400044
 30
0.0
 10
12.194064
 20
5.162025
 30
0.0
 10
12.176477
 20
4.925621
 30
0.0
 10
12.147363
 20
4.691226
 30
0.0
 10
12.106885
 20
4.459234
 30
0.0
 10
12.055207
 20
4.230037
 30
0.0
 10
11.992490
 20
4.004029
 30
0.0
 10
11.918899
 20
3.781604
 30
0.0
 10
11.834596
 20
3.563155
 30
0.0
 10
11.739743
 20
3.349076
 30
0.0
 10
11.634505
 20
3.139759
 30
0.0
 10
11.519043
 20
2.935599
 30
0.0
 10
11.393522
 20
2.736988
 30
0.0
 10
11.258103
 20
2.544321
 30
0.0
 10
11.112950
 20
2.357990
 30
0.0
 10
10.958226
 20
2.178390
 30
0.0
 10
10.794094
 20
2.005913
 30
0.0
 10
10.621618
 20
1.841778
 30
0.0
 10
10.442020
 20
1.687052
 30
0.0
 10
10.255691
 20
1.541897
 30
0.0
 10
10.063025
 20
1.406476
 30
0.0
 10
9.864416
 20
1.280952
 30
0.0
 10
9.660257
 20
1.165488
 30
0.0
 10
9.450941
 20
1.060247
 30
0.0
 10
9.236863
 20
0.965392
 30
0.0
 10
9.018415
 20
0.881086
 30
0.0
 10
8.795991
 20
0.807492
 30
0.0
 10
8.569984
 20
0.744773
 30
0.0
 10
8.340788
 20
0.693092
 30
0.0
 10
8.108796
 20
0.652612
 30
0.0
 10
7.874401
 20
0.623495
 30
0.0
 10
7.637998
 20
0.605905
 30
0.0
 10
7.399979
 20
0.600005
 30
0.0
 10
7.161960
 20
0.605905
 30
0.0
 10
6.925557
 20
0.623495
 30
0.0
 10
6.691163
 20
0.652612
 30
0.0
 10
6.459171
 20
0.693092
 30
0.0
 10
6.229975
 20
0.744774
 30
0.0
 10
6.003968
 20
0.807493
 30
0.0
 10
5.781544
 20
0.881087
 30
0.0
 10
5.563096
 20
0.965393
 30
0.0
 10
5.349018
 20
1.060248
 30
0.0
 10
5.139702
 20
1.165489
 30
0.0
 10
4.935543
 20
1.280952
 30
0.0
 10
4.736934
 20
1.406476
 30
0.0
 10
4.544269
 20
1.541897
 30
0.0
 10
4.357940
 20
1.687053
 30
0.0
 10
4.178341
 20
1.841779
 30
0.0
 10
4.005866
 20
2.005913
 30
0.0
 10
3.841733
 20
2.178390
 30
0.0
 10
3.687009
 20
2.357991
 30
0.0
 10
3.541856
 20
2.544322
 30
0.0
 10
3.406438
 20
2.736989
 30
0.0
 10
3.280916
 20
2.935599
 30
0.0
 10
3.165455
 20
3.139760
 30
0.0
 10
3.060216
 20
3.349076
 30
0.0
 10
2.965364
 20
3.563156
 30
0.0
 10
2.881061
 20
3.781605
 30
0.0
 10
2.807469
 20
4.004030
 30
0.0
 10
2.744753
 20
4.230037
 30
0.0
 10
2.693074
 20
4.459234
 30
0.0
 10
2.652597
 20
4.691226
 30
0.0
 10
2.623483
 20
4.925621
 30
0.0
 10
2.605896
 20
5.162025
 30
0.0
 10
2.599998
 20
5.400044
 30
0.0
 10
2.606245
 20
5.647049
 30
0.0
 10
2.624782
 20
5.890813
 30
0.0
 10
2.655307
 20
6.131032
 30
0.0
 10
2.697520
 20
6.367405
 30
0.0
 10
2.751118
 20
6.599632
 30
0.0
 10
2.815800
 20
6.827409
 30
0.0
 10
2.891265
 20
7.050435
 30
0.0
 10
2.977210
 20
7.268410
 30
0.0
 10
3.073334
 20
7.481030
 30
0.0
 10
3.179336
 20
7.687996
 30
0.0
 10
3.294913
 20
7.889004
 30
0.0
 10
3.419765
 20
8.083754
 30
0.0
 10
3.553590
 20
8.271944
 30
0.0
 10
3.696086
 20
8.453272
 30
0.0
 10
3.846952
 20
8.627437
 30
0.0
 10
4.005886
 20
8.794137
 30
0.0
 10
4.172586
 20
8.953071
 30
0.0
 10
4.346751
 20
9.103937
 30
0.0
 10
4.528079
 20
9.246433
 30
0.0
 10
4.716269
 20
9.380258
 30
0.0
 10
4.911019
 20
9.505110
 30
0.0
 10
5.112027
 20
9.620688
 30
0.0
 10
5.318993
 20
9.726689
 30
0.0
 10
5.531613
 20
9.822814
 30
0.0
 10
5.749588
 20
9.908759
 30
0.0
 10
5.972614
 20
9.984223
 30
0.0
 10
6.200391
 20
10.048905
 30
0.0
 10
6.432617
 20
10.102503
 30
0.0
 10
6.668991
 20
10.144716
 30
0.0
 10
6.909210
 20
10.175242
 30
0.0
 10
7.152973
 20
10.193779
 30
0.0
 10
7.399979
 20
10.200025
 30
0.0
 10
7.399979
 20
10.200025
 30
0.0
  0
LWPOLYLINE
  5
102
100
AcDbEntity
  8
Layer_1
 62
7
100
AcDbPolyline
 90
196
 70
0
 10
17.657916
 20
10.566897
 30
0.0
 10
17.657916
 20
10.566614
 30
0.0
 10
17.635369
 20
10.565457
 30
0.0
 10
17.602352
 20
10.560717
 30
0.0
 10
17.562886
 20
10.552779
 30
0.0
 10
17.485882
 20
10.531337
 30
0.0
 10
17.453745
 20
10.520864
 30
0.0
 10
17.398898
 20
10.502343
 30
0.0
 10
17.388648
 20
10.497658
 30
0.0
 10
17.258724
 20
10.451301
 30
0.0
 10
17.219425
 20
10.436583
 30
0.0
 10
17.124118
 20
10.399872
 30
0.0
 10
17.087960
 20
10.385596
 30
0.0
 10
16.962007
 20
10.333561
 30
0.0
 10
16.943321
 20
10.325403
 30
0.0
 10
16.838535
 20
10.279046
 30
0.0
 10
16.796365
 20
10.259753
 30
0.0
 10
16.703982
 20
10.216152
 30
0.0
 10
16.673223
 20
10.201380
 30
0.0
 10
16.555265
 20
10.142234
 30
0.0
 10
16.516127
 20
10.121674
 30
0.0
 10
16.437689
 20
10.079947
 30
0.0
 10
16.389293
 20
10.053433
 30
0.0
 10
16.315264
 20
10.011707
 30
0.0
 10
16.271166
 20
9.986516
 30
0.0
 10
16.166657
 20
9.924229
 30
0.0
 10
16.119528
 20
9.895069
 30
0.0
 10
16.054925
 20
9.854500
 30
0.0
 10
16.000411
 20
9.819332
 30
0.0
 10
15.944847
 20
9.782511
 30
0.0
 10
15.859190
 20
9.724303
 30
0.0
 10
15.799327
 20
9.682576
 30
0.0
 10
15.736378
 20
9.637156
 30
0.0
 10
15.698069
 20
9.609044
 30
0.0
 10
15.632639
 20
9.560096
 30
0.0
 10
15.602432
 20
9.536834
 30
0.0
 10
15.471961
 20
9.433592
 30
0.0
 10
15.452118
 20
9.417551
 30
0.0
 10
15.383820
 20
9.360666
 30
0.0
 10
15.357308
 20
9.338176
 30
0.0
 10
15.288240
 20
9.278535
 30
0.0
 10
15.134782
 20
9.139077
 30
0.0
 10
15.124585
 20
9.129597
 30
0.0
 10
15.053036
 20
9.060970
 30
0.0
 10
15.040855
 20
9.049064
 30
0.0
 10
14.820259
 20
8.822294
 30
0.0
 10
14.748160
 20
8.743029
 30
0.0
 10
14.745072
 20
8.739502
 30
0.0
 10
14.536327
 20
8.493274
 30
0.0
 10
14.507167
 20
8.457224
 30
0.0
 10
14.483520
 20
8.427073
 30
0.0
 10
14.483520
 20
8.427016
 30
0.0
 10
14.483520
 20
8.426847
 30
0.0
 10
14.400507
 20
8.318588
 30
0.0
 10
14.327141
 20
8.218708
 30
0.0
 10
14.318321
 20
8.206416
 30
0.0
 10
14.239553
 20
8.093747
 30
0.0
 10
14.233324
 20
8.084542
 30
0.0
 10
14.160011
 20
7.974354
 30
0.0
 10
14.097228
 20
7.875301
 30
0.0
 10
14.083394
 20
7.853473
 30
0.0
 10
14.082237
 20
7.851542
 30
0.0
 10
14.066748
 20
7.826131
 30
0.0
 10
14.066466
 20
7.825801
 30
0.0
 10
14.015864
 20
7.741465
 30
0.0
 10
13.949169
 20
7.625545
 30
0.0
 10
13.943931
 20
7.616339
 30
0.0
 10
13.859044
 20
7.460235
 30
0.0
 10
13.859044
 20
7.460179
 30
0.0
 10
13.859552
 20
7.459953
 30
0.0
 10
13.698048
 20
7.105246
 30
0.0
 10
13.536597
 20
6.750815
 30
0.0
 10
13.424865
 20
6.505469
 30
0.0
 10
13.422720
 20
6.500783
 30
0.0
 10
13.420688
 20
6.496374
 30
0.0
 10
13.420970
 20
6.496374
 30
0.0
 10
13.407136
 20
6.455970
 30
0.0
 10
13.406853
 20
6.455419
 30
0.0
 10
13.400625
 20
6.425102
 30
0.0
 10
13.397884
 20
6.357413
 30
0.0
 10
13.410015
 20
6.292439
 30
0.0
 10
13.435738
 20
6.232322
 30
0.0
 10
13.473771
 20
6.179205
 30
0.0
 10
13.473771
 20
6.179149
 30
0.0
 10
13.516856
 20
6.139584
 30
0.0
 10
13.567754
 20
6.108759
 30
0.0
 10
13.567754
 20
6.108759
 30
0.0
 10
13.595813
 20
6.097073
 30
0.0
 10
13.595813
 20
6.097073
 30
0.0
 10
13.625468
 20
6.088143
 30
0.0
 10
14.234450
 20
5.929007
 30
0.0
 10
14.175826
 20
5.561301
 30
0.0
 10
14.147219
 20
5.186091
 30
0.0
 10
14.149784
 20
4.804825
 30
0.0
 10
14.184678
 20
4.418953
 30
0.0
 10
14.219196
 20
4.199157
 30
0.0
 10
14.263721
 20
3.983414
 30
0.0
 10
14.317982
 20
3.771932
 30
0.0
 10
14.381705
 20
3.564919
 30
0.0
 10
14.454620
 20
3.362582
 30
0.0
 10
14.536454
 20
3.165129
 30
0.0
 10
14.626934
 20
2.972768
 30
0.0
 10
14.725789
 20
2.785705
 30
0.0
 10
14.832746
 20
2.604150
 30
0.0
 10
14.947534
 20
2.428309
 30
0.0
 10
15.069880
 20
2.258391
 30
0.0
 10
15.199512
 20
2.094602
 30
0.0
 10
15.336159
 20
1.937151
 30
0.0
 10
15.479547
 20
1.786245
 30
0.0
 10
15.629406
 20
1.642091
 30
0.0
 10
15.785462
 20
1.504898
 30
0.0
 10
15.785010
 20
1.504348
 30
0.0
 10
15.816156
 20
1.479543
 30
0.0
 10
15.949219
 20
1.373269
 30
0.0
 10
15.952580
 20
1.370735
 30
0.0
 10
16.121859
 20
1.246325
 30
0.0
 10
16.892072
 20
2.251962
 30
0.0
 10
16.300893
 20
2.177934
 30
0.0
 10
16.300131
 20
2.176831
 30
0.0
 10
16.148380
 20
1.978835
 30
0.0
 10
15.886821
 20
2.222709
 30
0.0
 10
15.647472
 20
2.489634
 30
0.0
 10
15.432146
 20
2.778228
 30
0.0
 10
15.242659
 20
3.087108
 30
0.0
 10
15.080824
 20
3.414891
 30
0.0
 10
15.010843
 20
3.585440
 30
0.0
 10
14.948457
 20
3.760195
 30
0.0
 10
14.893890
 20
3.938985
 30
0.0
 10
14.847371
 20
4.121637
 30
0.0
 10
14.809126
 20
4.307977
 30
0.0
 10
14.779382
 20
4.497833
 30
0.0
 10
14.756081
 20
4.719678
 30
0.0
 10
14.745056
 20
4.939884
 30
0.0
 10
14.746033
 20
5.158097
 30
0.0
 10
14.758741
 20
5.373962
 30
0.0
 10
14.782908
 20
5.587125
 30
0.0
 10
14.818260
 20
5.797232
 30
0.0
 10
14.864525
 20
6.003928
 30
0.0
 10
14.921432
 20
6.206858
 30
0.0
 10
14.988708
 20
6.405669
 30
0.0
 10
15.066080
 20
6.600006
 30
0.0
 10
15.153276
 20
6.789514
 30
0.0
 10
15.250024
 20
6.973838
 30
0.0
 10
15.356052
 20
7.152626
 30
0.0
 10
15.471086
 20
7.325521
 30
0.0
 10
15.594855
 20
7.492170
 30
0.0
 10
15.727087
 20
7.652218
 30
0.0
 10
15.725817
 20
7.653375
 30
0.0
 10
15.731769
 20
7.657564
 30
0.0
 10
15.320453
 20
8.017067
 30
0.0
 10
15.319013
 20
8.015359
 30
0.0
 10
14.859852
 20
8.419400
 30
0.0
 10
15.139373
 20
9.006830
 30
0.0
 10
15.344545
 20
9.196090
 30
0.0
 10
15.558601
 20
9.376248
 30
0.0
 10
15.781243
 20
9.547011
 30
0.0
 10
16.012168
 20
9.708086
 30
0.0
 10
16.058303
 20
9.739064
 30
0.0
 10
16.058303
 20
9.739121
 30
0.0
 10
16.347634
 20
9.916447
 30
0.0
 10
16.347634
 20
9.916503
 30
0.0
 10
16.648102
 20
10.078505
 30
0.0
 10
16.802441
 20
10.153581
 30
0.0
 10
17.118894
 20
10.291440
 30
0.0
 10
17.445380
 20
10.412377
 30
0.0
 10
17.445380
 20
10.412659
 30
0.0
 10
17.548676
 20
10.446007
 30
0.0
 10
17.585001
 20
10.455378
 30
0.0
 10
17.623366
 20
10.461827
 30
0.0
 10
17.656110
 20
10.463534
 30
0.0
 10
17.656110
 20
10.463534
 30
0.0
 10
17.680530
 20
10.461881
 30
0.0
 10
17.693868
 20
10.458022
 30
0.0
 10
17.693868
 20
10.458022
 30
0.0
 10
17.711341
 20
10.445179
 30
0.0
 10
17.711341
 20
10.445179
 30
0.0
 10
17.723468
 20
10.433824
 30
0.0
 10
17.735925
 20
10.417177
 30
0.0
 10
17.738634
 20
10.413043
 30
0.0
 10
17.746390
 20
10.387566
 30
0.0
 10
17.763439
 20
10.371867
 30
0.0
 10
17.799157
 20
10.366796
 30
0.0
 10
17.808030
 20
10.369330
 30
0.0
 10
17.816245
 20
10.373354
 30
0.0
 10
17.823575
 20
10.378921
 30
0.0
 10
17.829750
 20
10.385922
 30
0.0
 10
17.834488
 20
10.394411
 30
0.0
 10
17.838569
 20
10.415853
 30
0.0
 10
17.823905
 20
10.464746
 30
0.0
 10
17.796290
 20
10.502284
 30
0.0
 10
17.748775
 20
10.541585
 30
0.0
 10
17.726891
 20
10.553491
 30
0.0
 10
17.681197
 20
10.565453
 30
0.0
 10
17.657716
 20
10.566776
 30
0.0
 10
17.657716
 20
10.566889
 30
0.0
 10
17.657916
 20
10.566897
 30
0.0
  0
LWPOLYLINE
  5
103
100
AcDbEntity
  8
Layer_1
 62
7
100
AcDbPolyline
 90
18
 70
0
 10
13.701733
 20
6.538340
 30
0.0
 10
13.762972
 20
6.526164
 30
0.0
 10
13.814888
 20
6.491477
 30
0.0
 10
13.849575
 20
6.439561
 30
0.0
 10
13.861751
 20
6.378322
 30
0.0
 10
13.849164
 20
6.316051
 30
0.0
 10
13.814868
 20
6.265203
 30
0.0
 10
13.764009
 20
6.230924
 30
0.0
 10
13.701733
 20
6.218359
 30
0.0
 10
13.639475
 20
6.230940
 30
0.0
 10
13.588633
 20
6.265222
 30
0.0
 10
13.554350
 20
6.316064
 30
0.0
 10
13.541770
 20
6.378322
 30
0.0
 10
13.554335
 20
6.440598
 30
0.0
 10
13.588614
 20
6.491458
 30
0.0
 10
13.639462
 20
6.525754
 30
0.0
 10
13.701733
 20
6.538340
 30
0.0
 10
13.701733
 20
6.538340
 30
0.0
  0
LWPOLYLINE
  5
104
100
AcDbEntity
  8
Layer_1
 62
7
100
AcDbPolyline
 90
8
 70
1
 10
12.999979
 20
10.800060
 30
0.0
 10
12.999979
 20
9.800045
 30
0.0
 10
13.028314
 20
9.800045
 30
0.0
 10
13.028314
 20
10.771672
 30
0.0
 10
13.999994
 20
10.771672
 30
0.0
 10
13.999994
 20
10.800060
 30
0.0
 10
12.999979
 20
10.800060
 30
0.0
 10
12.999979
 20
10.800060
 30
0.0
  0
LWPOLYLINE
  5
105
100
AcDbEntity
  8
Layer_1
 62
7
100
AcDbPolyline
 90
9
 70
1
 10
16.999985
 20
10.800060
 30
0.0
 10
16.999985
 20
10.771672
 30
0.0
 10
17.971668
 20
10.771672
 30
0.0
 10
17.971668
 20
9.800045
 30
0.0
 10
18.000000
 20
9.800045
 30
0.0
 10
18.000000
 20
10.785838
 30
0.0
 10
18.000000
 20
10.800060
 30
0.0
 10
16.999985
 20
10.800060
 30
0.0
 10
16.999985
 20
10.800060
 30
0.0
  0
LWPOLYLINE
  5
106
100
AcDbEntity
  8
Layer_1
 62
7
100
AcDbPolyline
 90
8
 70
1
 10
12.999979
 20
0.800022
 30
0.0
 10
12.999979
 20
0.000043
 30
0.0
 10
13.999994
 20
0.000043
 30
0.0
 10
13.999994
 20
0.028376
 30
0.0
 10
13.028314
 20
0.028376
 30
0.0
 10
13.028314
 20
0.800022
 30
0.0
 10
12.999979
 20
0.800022
 30
0.0
 10
12.999979
 20
0.800022
 30
0.0
  0
LWPOLYLINE
  5
107
100
AcDbEntity
  8
Layer_1
 62
7
100
AcDbPolyline
 90
8
 70
1
 10
17.971668
 20
0.800022
 30
0.0
 10
17.971668
 20
0.028376
 30
0.0
 10
16.999985
 20
0.028376
 30
0.0
 10
16.999985
 20
0.000043
 30
0.0
 10
18.000000
 20
0.000043
 30
0.0
 10
18.000000
 20
0.800022
 30
0.0
 10
17.971668
 20
0.800022
 30
0.0
 10
17.971668
 20
0.800022
 30
0.0
  0
LWPOLYLINE
  5
108
100
AcDbEntity
  8
Layer_1
 62
7
100
AcDbPolyline
 90
7
 70
1
 10
0.000000
 20
10.800016
 30
0.0
 10
0.000000
 20
9.800004
 30
0.0
 10
0.028335
 20
9.800004
 30
0.0
 10
0.028335
 20
10.771630
 30
0.0
 10
1.000015
 20
10.771630
 30
0.0
 10
1.000015
 20
10.800016
 30
0.0
 10
0.000000
 20
10.800016
 30
0.0
  0
LWPOLYLINE
  5
109
100
AcDbEntity
  8
Layer_1
 62
7
100
AcDbPolyline
 90
7
 70
1
 10
0.000000
 20
0.799979
 30
0.0
 10
0.000000
 20
0.000001
 30
0.0
 10
1.000015
 20
0.000001
 30
0.0
 10
1.000015
 20
0.028333
 30
0.0
 10
0.028335
 20
0.028333
 30
0.0
 10
0.028335
 20
0.799979
 30
0.0
 10
0.000000
 20
0.799979
 30
0.0
  0
ENDSEC
  0
SECTION
  2
OBJECTS
  0
DICTIONARY
  5
C
330
0
100
AcDbDictionary
  3
ACAD_GROUP
350
D
  3
ACAD_MLINESTYLE
350
17
  0
DICTIONARY
  5
D
330
C
100
AcDbDictionary
  0
DICTIONARY
  5
1A
330
C
100
AcDbDictionary
  0
DICTIONARY
  5
17
330
C
100
AcDbDictionary
  3
STANDARD
350
18
  0
DICTIONARY
  5
19
330
C
100
AcDbDictionary
  0
ENDSEC
  0
EOF
