  0
SECTION
  2
HEADER
  9
$ACADVER
  1
AC1014
  9
$HANDSEED
  5
FFFF
  9
$MEASUREMENT
 70
     1
  0
ENDSEC
  0
SECTION
  2
TABLES
  0
TABLE
  2
VPORT
  5
8
330
0
100
AcDbSymbolTable
 70
     4
  0
VPORT
  5
2E
330
8
100
AcDbSymbolTableRecord
100
AcDbViewportTableRecord
  2
*ACTIVE
 70
     0
 10
0.0
 20
0.0
 11
1.0
 21
1.0
 12
210.0
 22
148.5
 13
0.0
 23
0.0
 14
10.0
 24
10.0
 15
10.0
 25
10.0
 16
0.0
 26
0.0
 36
1.0
 17
0.0
 27
0.0
 37
0.0
 40
341.0
 41
1.24
 42
50.0
 43
0.0
 44
0.0
 50
0.0
 51
0.0
 71
     0
 72
   100
 73
     1
 74
     3
 75
     0
 76
     0
 77
     0
 78
     0
  0
ENDTAB
  0
TABLE
  2
LTYPE
  5
5
330
0
100
AcDbSymbolTable
 70
     1
  0
LTYPE
  5
14
330
5
100
AcDbSymbolTableRecord
100
AcDbLinetypeTableRecord
  2
BYBLOCK
 70
     0
  3

 72
    65
 73
     0
 40
0.0
  0
LTYPE
  5
15
330
5
100
AcDbSymbolTableRecord
100
AcDbLinetypeTableRecord
  2
BYLAYER
 70
     0
  3

 72
    65
 73
     0
 40
0.0
  0
LTYPE
  5
16
330
5
100
AcDbSymbolTableRecord
100
AcDbLinetypeTableRecord
  2
CONTINUOUS
 70
     0
  3
Solid line
 72
    65
 73
     0
 40
0.0
  0
ENDTAB
  0
TABLE
  2
LAYER
  5
2
100
AcDbSymbolTable
 70
2
  0
LAYER
  5
50
100
AcDbSymbolTableRecord
100
AcDbLayerTableRecord
  2
0
 70
0
  6
CONTINUOUS
  0
LAYER
  5
51
100
AcDbSymbolTableRecord
100
AcDbLayerTableRecord
  2
Layer_1
 70
0
  6
CONTINUOUS
  0
ENDTAB
  0
TABLE
  2
STYLE
  5
3
330
0
100
AcDbSymbolTable
 70
     1
  0
STYLE
  5
11
330
3
100
AcDbSymbolTableRecord
100
AcDbTextStyleTableRecord
  2
STANDARD
 70
     0
 40
0.0
 41
1.0
 50
0.0
 71
     0
 42
2.5
  3
txt
  4

  0
ENDTAB
  0
TABLE
  2
VIEW
  5
6
330
0
100
AcDbSymbolTable
 70
     0
  0
ENDTAB
  0
TABLE
  2
UCS
  5
7
330
0
100
AcDbSymbolTable
 70
     0
  0
ENDTAB
  0
TABLE
  2
APPID
  5
9
330
0
100
AcDbSymbolTable
 70
     2
  0
APPID
  5
12
330
9
100
AcDbSymbolTableRecord
100
AcDbRegAppTableRecord
  2
ACAD
 70
     0
  0
ENDTAB
  0
TABLE
  2
DIMSTYLE
  5
A
330
0
100
AcDbSymbolTable
 70
     1
  0
DIMSTYLE
105
27
330
A
100
AcDbSymbolTableRecord
100
AcDbDimStyleTableRecord
  2
ISO-25
 70
     0
  3

  4

  5

  6

  7

 40
1.0
 41
2.5
 42
0.625
 43
3.75
 44
1.25
 45
0.0
 46
0.0
 47
0.0
 48
0.0
140
2.5
141
2.5
142
0.0
143
0.03937007874016
144
1.0
145
0.0
146
1.0
147
0.625
 71
     0
 72
     0
 73
     0
 74
     0
 75
     0
 76
     0
 77
     1
 78
     8
170
     0
171
     3
172
     1
173
     0
174
     0
175
     0
176
     0
177
     0
178
     0
270
     2
271
     2
272
     2
273
     2
274
     3
340
11
275
     0
280
     0
281
     0
282
     0
283
     0
284
     8
285
     0
286
     0
287
     3
288
     0
  0
ENDTAB
  0
TABLE
  2
BLOCK_RECORD
  5
1
330
0
100
AcDbSymbolTable
 70
     1
  0
BLOCK_RECORD
  5
1F
330
1
100
AcDbSymbolTableRecord
100
AcDbBlockTableRecord
  2
*MODEL_SPACE
  0
BLOCK_RECORD
  5
1B
330
1
100
AcDbSymbolTableRecord
100
AcDbBlockTableRecord
  2
*PAPER_SPACE
  0
ENDTAB
  0
ENDSEC
  0
SECTION
  2
BLOCKS
  0
BLOCK
  5
20
330
1F
100
AcDbEntity
  8
0
100
AcDbBlockBegin
  2
*MODEL_SPACE
 70
     0
 10
0.0
 20
0.0
 30
0.0
  3
*MODEL_SPACE
  1

  0
ENDBLK
  5
21
330
1F
100
AcDbEntity
  8
0
100
AcDbBlockEnd
  0
BLOCK
  5
1C
330
1B
100
AcDbEntity
 67
     1
  8
0
100
AcDbBlockBegin
  2
*PAPER_SPACE
  1

  0
ENDBLK
  5
1D
330
1B
100
AcDbEntity
 67
     1
  8
0
100
AcDbBlockEnd
  0
ENDSEC
  0
SECTION
  2
ENTITIES
  0
LWPOLYLINE
  5
100
100
AcDbEntity
  8
Layer_1
 62
7
100
AcDbPolyline
 90
8
 70
1
 10
5.999999
 20
6.000001
 30
0.0
 10
5.999999
 20
4.999986
 30
0.0
 10
5.971667
 20
4.999986
 30
0.0
 10
5.971667
 20
5.971615
 30
0.0
 10
4.999984
 20
5.971615
 30
0.0
 10
4.999984
 20
6.000001
 30
0.0
 10
5.999999
 20
6.000001
 30
0.0
 10
5.999999
 20
6.000001
 30
0.0
  0
LWPOLYLINE
  5
101
100
AcDbEntity
  8
Layer_1
 62
7
100
AcDbPolyline
 90
9
 70
1
 10
1.000015
 20
6.000001
 30
0.0
 10
1.000015
 20
5.971615
 30
0.0
 10
0.028332
 20
5.971615
 30
0.0
 10
0.028332
 20
4.999986
 30
0.0
 10
0.000000
 20
4.999986
 30
0.0
 10
0.000000
 20
5.985780
 30
0.0
 10
0.000000
 20
6.000001
 30
0.0
 10
1.000015
 20
6.000001
 30
0.0
 10
1.000015
 20
6.000001
 30
0.0
  0
LWPOLYLINE
  5
102
100
AcDbEntity
  8
Layer_1
 62
7
100
AcDbPolyline
 90
8
 70
1
 10
5.999999
 20
0.799980
 30
0.0
 10
5.999999
 20
0.000002
 30
0.0
 10
4.999984
 20
0.000002
 30
0.0
 10
4.999984
 20
0.028334
 30
0.0
 10
5.971667
 20
0.028334
 30
0.0
 10
5.971667
 20
0.799980
 30
0.0
 10
5.999999
 20
0.799980
 30
0.0
 10
5.999999
 20
0.799980
 30
0.0
  0
LWPOLYLINE
  5
103
100
AcDbEntity
  8
Layer_1
 62
7
100
AcDbPolyline
 90
8
 70
1
 10
0.028332
 20
0.799980
 30
0.0
 10
0.028332
 20
0.028334
 30
0.0
 10
1.000015
 20
0.028334
 30
0.0
 10
1.000015
 20
0.000002
 30
0.0
 10
0.000000
 20
0.000002
 30
0.0
 10
0.000000
 20
0.799980
 30
0.0
 10
0.028332
 20
0.799980
 30
0.0
 10
0.028332
 20
0.799980
 30
0.0
  0
LWPOLYLINE
  5
104
100
AcDbEntity
  8
Layer_1
 62
7
100
AcDbPolyline
 90
8
 70
1
 10
6.000001
 20
5.999999
 30
0.0
 10
6.000001
 20
4.999984
 30
0.0
 10
5.971668
 20
4.999984
 30
0.0
 10
5.971668
 20
5.971613
 30
0.0
 10
4.999986
 20
5.971613
 30
0.0
 10
4.999986
 20
5.999999
 30
0.0
 10
6.000001
 20
5.999999
 30
0.0
 10
6.000001
 20
5.999999
 30
0.0
  0
LWPOLYLINE
  5
105
100
AcDbEntity
  8
Layer_1
 62
7
100
AcDbPolyline
 90
9
 70
1
 10
1.000016
 20
5.999999
 30
0.0
 10
1.000016
 20
5.971613
 30
0.0
 10
0.028334
 20
5.971613
 30
0.0
 10
0.028334
 20
4.999984
 30
0.0
 10
0.000001
 20
4.999984
 30
0.0
 10
0.000001
 20
5.985778
 30
0.0
 10
0.000001
 20
5.999999
 30
0.0
 10
1.000016
 20
5.999999
 30
0.0
 10
1.000016
 20
5.999999
 30
0.0
  0
LWPOLYLINE
  5
106
100
AcDbEntity
  8
Layer_1
 62
7
100
AcDbPolyline
 90
8
 70
1
 10
6.000001
 20
0.799979
 30
0.0
 10
6.000001
 20
0.000000
 30
0.0
 10
4.999986
 20
0.000000
 30
0.0
 10
4.999986
 20
0.028332
 30
0.0
 10
5.971668
 20
0.028332
 30
0.0
 10
5.971668
 20
0.799979
 30
0.0
 10
6.000001
 20
0.799979
 30
0.0
 10
6.000001
 20
0.799979
 30
0.0
  0
LWPOLYLINE
  5
107
100
AcDbEntity
  8
Layer_1
 62
7
100
AcDbPolyline
 90
8
 70
1
 10
0.028334
 20
0.799979
 30
0.0
 10
0.028334
 20
0.028332
 30
0.0
 10
1.000016
 20
0.028332
 30
0.0
 10
1.000016
 20
0.000000
 30
0.0
 10
0.000001
 20
0.000000
 30
0.0
 10
0.000001
 20
0.799979
 30
0.0
 10
0.028334
 20
0.799979
 30
0.0
 10
0.028334
 20
0.799979
 30
0.0
  0
LWPOLYLINE
  5
108
100
AcDbEntity
  8
Layer_1
 62
7
100
AcDbPolyline
 90
66
 70
0
 10
2.999999
 20
4.832073
 30
0.0
 10
2.812687
 20
4.822611
 30
0.0
 10
2.630786
 20
4.794847
 30
0.0
 10
2.455217
 20
4.749702
 30
0.0
 10
2.286900
 20
4.688095
 30
0.0
 10
2.126757
 20
4.610949
 30
0.0
 10
1.975708
 20
4.519183
 30
0.0
 10
1.834673
 20
4.413719
 30
0.0
 10
1.704575
 20
4.295477
 30
0.0
 10
1.586334
 20
4.165379
 30
0.0
 10
1.480870
 20
4.024345
 30
0.0
 10
1.389104
 20
3.873296
 30
0.0
 10
1.311957
 20
3.713153
 30
0.0
 10
1.250351
 20
3.544836
 30
0.0
 10
1.205205
 20
3.369266
 30
0.0
 10
1.177442
 20
3.187365
 30
0.0
 10
1.167980
 20
3.000053
 30
0.0
 10
1.177436
 20
2.812737
 30
0.0
 10
1.205196
 20
2.630832
 30
0.0
 10
1.250338
 20
2.455258
 30
0.0
 10
1.311942
 20
2.286937
 30
0.0
 10
1.389086
 20
2.126789
 30
0.0
 10
1.480851
 20
1.975735
 30
0.0
 10
1.586314
 20
1.834696
 30
0.0
 10
1.704556
 20
1.704594
 30
0.0
 10
1.834655
 20
1.586348
 30
0.0
 10
1.975690
 20
1.480881
 30
0.0
 10
2.126741
 20
1.389112
 30
0.0
 10
2.286887
 20
1.311962
 30
0.0
 10
2.455206
 20
1.250354
 30
0.0
 10
2.630779
 20
1.205206
 30
0.0
 10
2.812683
 20
1.177441
 30
0.0
 10
2.999999
 20
1.167979
 30
0.0
 10
3.181078
 20
1.176942
 30
0.0
 10
3.359090
 20
1.203503
 30
0.0
 10
3.532834
 20
1.247166
 30
0.0
 10
3.701107
 20
1.307431
 30
0.0
 10
3.862710
 20
1.383802
 30
0.0
 10
4.016441
 20
1.475782
 30
0.0
 10
4.161097
 20
1.582872
 30
0.0
 10
4.295478
 20
1.704574
 30
0.0
 10
4.417181
 20
1.838956
 30
0.0
 10
4.524271
 20
1.983612
 30
0.0
 10
4.616250
 20
2.137342
 30
0.0
 10
4.692622
 20
2.298945
 30
0.0
 10
4.752887
 20
2.467219
 30
0.0
 10
4.796549
 20
2.640963
 30
0.0
 10
4.823111
 20
2.818975
 30
0.0
 10
4.832074
 20
3.000053
 30
0.0
 10
4.822612
 20
3.187369
 30
0.0
 10
4.794847
 20
3.369274
 30
0.0
 10
4.749699
 20
3.544846
 30
0.0
 10
4.688091
 20
3.713166
 30
0.0
 10
4.610941
 20
3.873312
 30
0.0
 10
4.519172
 20
4.024363
 30
0.0
 10
4.413705
 20
4.165398
 30
0.0
 10
4.295459
 20
4.295497
 30
0.0
 10
4.165356
 20
4.413739
 30
0.0
 10
4.024318
 20
4.519202
 30
0.0
 10
3.873264
 20
4.610967
 30
0.0
 10
3.713116
 20
4.688111
 30
0.0
 10
3.544795
 20
4.749715
 30
0.0
 10
3.369221
 20
4.794857
 30
0.0
 10
3.187315
 20
4.822616
 30
0.0
 10
2.999999
 20
4.832073
 30
0.0
 10
2.999999
 20
4.832073
 30
0.0
  0
LWPOLYLINE
  5
109
100
AcDbEntity
  8
Layer_1
 62
7
100
AcDbPolyline
 90
14
 70
0
 10
3.000056
 20
4.556410
 30
0.0
 10
3.134718
 20
4.550470
 30
0.0
 10
3.267620
 20
4.533030
 30
0.0
 10
3.398060
 20
4.504342
 30
0.0
 10
3.525339
 20
4.464657
 30
0.0
 10
3.648756
 20
4.414227
 30
0.0
 10
3.767609
 20
4.353304
 30
0.0
 10
3.881199
 20
4.282140
 30
0.0
 10
3.988825
 20
4.200986
 30
0.0
 10
3.438106
 20
3.650212
 30
0.0
 10
2.899900
 20
4.188418
 30
0.0
 10
2.899900
 20
4.552882
 30
0.0
 10
3.000056
 20
4.556410
 30
0.0
 10
3.000056
 20
4.556410
 30
0.0
  0
LWPOLYLINE
  5
10a
100
AcDbEntity
  8
Layer_1
 62
7
100
AcDbPolyline
 90
13
 70
0
 10
2.599983
 20
4.503383
 30
0.0
 10
2.599983
 20
4.180977
 30
0.0
 10
1.818967
 20
3.399960
 30
0.0
 10
1.497773
 20
3.399960
 30
0.0
 10
1.564199
 20
3.596115
 30
0.0
 10
1.654738
 20
3.779365
 30
0.0
 10
1.767525
 20
3.947845
 30
0.0
 10
1.900699
 20
4.099687
 30
0.0
 10
2.052395
 20
4.233028
 30
0.0
 10
2.220750
 20
4.346001
 30
0.0
 10
2.403900
 20
4.436741
 30
0.0
 10
2.599982
 20
4.503383
 30
0.0
 10
2.599983
 20
4.503383
 30
0.0
  0
LWPOLYLINE
  5
10b
100
AcDbEntity
  8
Layer_1
 62
7
100
AcDbPolyline
 90
15
 70
0
 10
4.200713
 20
3.988548
 30
0.0
 10
4.281902
 20
3.880962
 30
0.0
 10
4.353106
 20
3.767409
 30
0.0
 10
4.414073
 20
3.648589
 30
0.0
 10
4.464550
 20
3.525203
 30
0.0
 10
4.504286
 20
3.397950
 30
0.0
 10
4.533028
 20
3.267532
 30
0.0
 10
4.550524
 20
3.134648
 30
0.0
 10
4.556522
 20
2.999998
 30
0.0
 10
4.542285
 20
2.801495
 30
0.0
 10
4.502834
 20
2.606431
 30
0.0
 10
4.482053
 20
2.606431
 30
0.0
 10
3.650324
 20
3.438159
 30
0.0
 10
4.200713
 20
3.988548
 30
0.0
 10
4.200713
 20
3.988548
 30
0.0
  0
LWPOLYLINE
  5
10c
100
AcDbEntity
  8
Layer_1
 62
7
100
AcDbPolyline
 90
6
 70
0
 10
2.753717
 20
3.839775
 30
0.0
 10
4.160364
 20
2.433073
 30
0.0
 10
3.566870
 20
1.839525
 30
0.0
 10
2.160169
 20
3.246226
 30
0.0
 10
2.753717
 20
3.839775
 30
0.0
 10
2.753717
 20
3.839775
 30
0.0
  0
LWPOLYLINE
  5
10d
100
AcDbEntity
  8
Layer_1
 62
7
100
AcDbPolyline
 90
14
 70
0
 10
1.448605
 20
3.099989
 30
0.0
 10
1.811305
 20
3.099989
 30
0.0
 10
2.349566
 20
2.561782
 30
0.0
 10
1.799233
 20
2.011449
 30
0.0
 10
1.718066
 20
2.119042
 30
0.0
 10
1.646884
 20
2.232600
 30
0.0
 10
1.585939
 20
2.351423
 30
0.0
 10
1.535483
 20
2.474810
 30
0.0
 10
1.495768
 20
2.602061
 30
0.0
 10
1.467046
 20
2.732477
 30
0.0
 10
1.449569
 20
2.865356
 30
0.0
 10
1.443589
 20
2.999998
 30
0.0
 10
1.448605
 20
3.099989
 30
0.0
 10
1.448605
 20
3.099989
 30
0.0
  0
LWPOLYLINE
  5
10e
100
AcDbEntity
  8
Layer_1
 62
7
100
AcDbPolyline
 90
16
 70
0
 10
2.561729
 20
2.349564
 30
0.0
 10
3.393403
 20
1.517891
 30
0.0
 10
3.393403
 20
1.494740
 30
0.0
 10
3.198367
 20
1.456554
 30
0.0
 10
3.000056
 20
1.443532
 30
0.0
 10
2.865377
 20
1.449469
 30
0.0
 10
2.732458
 20
1.466910
 30
0.0
 10
2.602002
 20
1.495601
 30
0.0
 10
2.474708
 20
1.535292
 30
0.0
 10
2.351278
 20
1.585731
 30
0.0
 10
2.232412
 20
1.646664
 30
0.0
 10
2.118810
 20
1.717842
 30
0.0
 10
2.011175
 20
1.799010
 30
0.0
 10
2.561674
 20
2.349509
 30
0.0
 10
2.561730
 20
2.349566
 30
0.0
 10
2.561729
 20
2.349564
 30
0.0
  0
LWPOLYLINE
  5
10f
100
AcDbEntity
  8
Layer_1
 62
7
100
AcDbPolyline
 90
6
 70
0
 10
4.312995
 20
2.288049
 30
0.0
 10
4.487951
 20
2.113038
 30
0.0
 10
3.886961
 20
1.512048
 30
0.0
 10
3.712005
 20
1.687004
 30
0.0
 10
4.312995
 20
2.288049
 30
0.0
 10
4.312995
 20
2.288049
 30
0.0
  0
ENDSEC
  0
SECTION
  2
OBJECTS
  0
DICTIONARY
  5
C
330
0
100
AcDbDictionary
  3
ACAD_GROUP
350
D
  3
ACAD_MLINESTYLE
350
17
  0
DICTIONARY
  5
D
330
C
100
AcDbDictionary
  0
DICTIONARY
  5
1A
330
C
100
AcDbDictionary
  0
DICTIONARY
  5
17
330
C
100
AcDbDictionary
  3
STANDARD
350
18
  0
DICTIONARY
  5
19
330
C
100
AcDbDictionary
  0
ENDSEC
  0
EOF
