  0
SECTION
  2
HEADER
  9
$ACADVER
  1
AC1014
  9
$HANDSEED
  5
FFFF
  9
$MEASUREMENT
 70
     1
  0
ENDSEC
  0
SECTION
  2
TABLES
  0
TABLE
  2
VPORT
  5
8
330
0
100
AcDbSymbolTable
 70
     4
  0
VPORT
  5
2E
330
8
100
AcDbSymbolTableRecord
100
AcDbViewportTableRecord
  2
*ACTIVE
 70
     0
 10
0.0
 20
0.0
 11
1.0
 21
1.0
 12
210.0
 22
148.5
 13
0.0
 23
0.0
 14
10.0
 24
10.0
 15
10.0
 25
10.0
 16
0.0
 26
0.0
 36
1.0
 17
0.0
 27
0.0
 37
0.0
 40
341.0
 41
1.24
 42
50.0
 43
0.0
 44
0.0
 50
0.0
 51
0.0
 71
     0
 72
   100
 73
     1
 74
     3
 75
     0
 76
     0
 77
     0
 78
     0
  0
ENDTAB
  0
TABLE
  2
LTYPE
  5
5
330
0
100
AcDbSymbolTable
 70
     1
  0
LTYPE
  5
14
330
5
100
AcDbSymbolTableRecord
100
AcDbLinetypeTableRecord
  2
BYBLOCK
 70
     0
  3

 72
    65
 73
     0
 40
0.0
  0
LTYPE
  5
15
330
5
100
AcDbSymbolTableRecord
100
AcDbLinetypeTableRecord
  2
BYLAYER
 70
     0
  3

 72
    65
 73
     0
 40
0.0
  0
LTYPE
  5
16
330
5
100
AcDbSymbolTableRecord
100
AcDbLinetypeTableRecord
  2
CONTINUOUS
 70
     0
  3
Solid line
 72
    65
 73
     0
 40
0.0
  0
ENDTAB
  0
TABLE
  2
LAYER
  5
2
100
AcDbSymbolTable
 70
2
  0
LAYER
  5
50
100
AcDbSymbolTableRecord
100
AcDbLayerTableRecord
  2
0
 70
0
  6
CONTINUOUS
  0
LAYER
  5
51
100
AcDbSymbolTableRecord
100
AcDbLayerTableRecord
  2
Layer_1
 70
0
  6
CONTINUOUS
  0
ENDTAB
  0
TABLE
  2
STYLE
  5
3
330
0
100
AcDbSymbolTable
 70
     1
  0
STYLE
  5
11
330
3
100
AcDbSymbolTableRecord
100
AcDbTextStyleTableRecord
  2
STANDARD
 70
     0
 40
0.0
 41
1.0
 50
0.0
 71
     0
 42
2.5
  3
txt
  4

  0
ENDTAB
  0
TABLE
  2
VIEW
  5
6
330
0
100
AcDbSymbolTable
 70
     0
  0
ENDTAB
  0
TABLE
  2
UCS
  5
7
330
0
100
AcDbSymbolTable
 70
     0
  0
ENDTAB
  0
TABLE
  2
APPID
  5
9
330
0
100
AcDbSymbolTable
 70
     2
  0
APPID
  5
12
330
9
100
AcDbSymbolTableRecord
100
AcDbRegAppTableRecord
  2
ACAD
 70
     0
  0
ENDTAB
  0
TABLE
  2
DIMSTYLE
  5
A
330
0
100
AcDbSymbolTable
 70
     1
  0
DIMSTYLE
105
27
330
A
100
AcDbSymbolTableRecord
100
AcDbDimStyleTableRecord
  2
ISO-25
 70
     0
  3

  4

  5

  6

  7

 40
1.0
 41
2.5
 42
0.625
 43
3.75
 44
1.25
 45
0.0
 46
0.0
 47
0.0
 48
0.0
140
2.5
141
2.5
142
0.0
143
0.03937007874016
144
1.0
145
0.0
146
1.0
147
0.625
 71
     0
 72
     0
 73
     0
 74
     0
 75
     0
 76
     0
 77
     1
 78
     8
170
     0
171
     3
172
     1
173
     0
174
     0
175
     0
176
     0
177
     0
178
     0
270
     2
271
     2
272
     2
273
     2
274
     3
340
11
275
     0
280
     0
281
     0
282
     0
283
     0
284
     8
285
     0
286
     0
287
     3
288
     0
  0
ENDTAB
  0
TABLE
  2
BLOCK_RECORD
  5
1
330
0
100
AcDbSymbolTable
 70
     1
  0
BLOCK_RECORD
  5
1F
330
1
100
AcDbSymbolTableRecord
100
AcDbBlockTableRecord
  2
*MODEL_SPACE
  0
BLOCK_RECORD
  5
1B
330
1
100
AcDbSymbolTableRecord
100
AcDbBlockTableRecord
  2
*PAPER_SPACE
  0
ENDTAB
  0
ENDSEC
  0
SECTION
  2
BLOCKS
  0
BLOCK
  5
20
330
1F
100
AcDbEntity
  8
0
100
AcDbBlockBegin
  2
*MODEL_SPACE
 70
     0
 10
0.0
 20
0.0
 30
0.0
  3
*MODEL_SPACE
  1

  0
ENDBLK
  5
21
330
1F
100
AcDbEntity
  8
0
100
AcDbBlockEnd
  0
BLOCK
  5
1C
330
1B
100
AcDbEntity
 67
     1
  8
0
100
AcDbBlockBegin
  2
*PAPER_SPACE
  1

  0
ENDBLK
  5
1D
330
1B
100
AcDbEntity
 67
     1
  8
0
100
AcDbBlockEnd
  0
ENDSEC
  0
SECTION
  2
ENTITIES
  0
LWPOLYLINE
  5
100
100
AcDbEntity
  8
Layer_1
 62
7
100
AcDbPolyline
 90
8
 70
1
 10
5.999999
 20
5.999999
 30
0.0
 10
5.999999
 20
4.999984
 30
0.0
 10
5.971667
 20
4.999984
 30
0.0
 10
5.971667
 20
5.971613
 30
0.0
 10
4.999984
 20
5.971613
 30
0.0
 10
4.999984
 20
5.999999
 30
0.0
 10
5.999999
 20
5.999999
 30
0.0
 10
5.999999
 20
5.999999
 30
0.0
  0
LWPOLYLINE
  5
101
100
AcDbEntity
  8
Layer_1
 62
7
100
AcDbPolyline
 90
9
 70
1
 10
1.000015
 20
5.999999
 30
0.0
 10
1.000015
 20
5.971613
 30
0.0
 10
0.028332
 20
5.971613
 30
0.0
 10
0.028332
 20
4.999984
 30
0.0
 10
-0.000000
 20
4.999984
 30
0.0
 10
-0.000000
 20
5.985778
 30
0.0
 10
-0.000000
 20
5.999999
 30
0.0
 10
1.000015
 20
5.999999
 30
0.0
 10
1.000015
 20
5.999999
 30
0.0
  0
LWPOLYLINE
  5
102
100
AcDbEntity
  8
Layer_1
 62
7
100
AcDbPolyline
 90
8
 70
1
 10
5.999999
 20
0.799979
 30
0.0
 10
5.999999
 20
-0.000000
 30
0.0
 10
4.999984
 20
-0.000000
 30
0.0
 10
4.999984
 20
0.028332
 30
0.0
 10
5.971667
 20
0.028332
 30
0.0
 10
5.971667
 20
0.799979
 30
0.0
 10
5.999999
 20
0.799979
 30
0.0
 10
5.999999
 20
0.799979
 30
0.0
  0
LWPOLYLINE
  5
103
100
AcDbEntity
  8
Layer_1
 62
7
100
AcDbPolyline
 90
8
 70
1
 10
0.028332
 20
0.799979
 30
0.0
 10
0.028332
 20
0.028332
 30
0.0
 10
1.000015
 20
0.028332
 30
0.0
 10
1.000015
 20
-0.000000
 30
0.0
 10
-0.000000
 20
-0.000000
 30
0.0
 10
-0.000000
 20
0.799979
 30
0.0
 10
0.028332
 20
0.799979
 30
0.0
 10
0.028332
 20
0.799979
 30
0.0
  0
LWPOLYLINE
  5
104
100
AcDbEntity
  8
Layer_1
 62
7
100
AcDbPolyline
 90
66
 70
0
 10
1.765202
 20
2.298232
 30
0.0
 10
1.865635
 20
2.207275
 30
0.0
 10
1.973746
 20
2.127239
 30
0.0
 10
2.088640
 20
2.058496
 30
0.0
 10
2.209416
 20
2.001417
 30
0.0
 10
2.335179
 20
1.956376
 30
0.0
 10
2.465029
 20
1.923743
 30
0.0
 10
2.598070
 20
1.903890
 30
0.0
 10
2.733402
 20
1.897190
 30
0.0
 10
2.868735
 20
1.903890
 30
0.0
 10
3.001776
 20
1.923743
 30
0.0
 10
3.131626
 20
1.956376
 30
0.0
 10
3.257388
 20
2.001418
 30
0.0
 10
3.378165
 20
2.058496
 30
0.0
 10
3.493058
 20
2.127239
 30
0.0
 10
3.601170
 20
2.207275
 30
0.0
 10
3.701602
 20
2.298233
 30
0.0
 10
3.792559
 20
2.398665
 30
0.0
 10
3.872595
 20
2.506777
 30
0.0
 10
3.941338
 20
2.621670
 30
0.0
 10
3.998416
 20
2.742446
 30
0.0
 10
4.043458
 20
2.868209
 30
0.0
 10
4.076091
 20
2.998059
 30
0.0
 10
4.095943
 20
3.131099
 30
0.0
 10
4.102643
 20
3.266432
 30
0.0
 10
4.095943
 20
3.401765
 30
0.0
 10
4.076091
 20
3.534805
 30
0.0
 10
4.043458
 20
3.664655
 30
0.0
 10
3.998416
 20
3.790418
 30
0.0
 10
3.941338
 20
3.911194
 30
0.0
 10
3.872594
 20
4.026087
 30
0.0
 10
3.792558
 20
4.134199
 30
0.0
 10
3.701601
 20
4.234631
 30
0.0
 10
3.601169
 20
4.325588
 30
0.0
 10
3.493058
 20
4.405624
 30
0.0
 10
3.378165
 20
4.474367
 30
0.0
 10
3.257388
 20
4.531445
 30
0.0
 10
3.131626
 20
4.576487
 30
0.0
 10
3.001775
 20
4.609120
 30
0.0
 10
2.868735
 20
4.628973
 30
0.0
 10
2.733402
 20
4.635673
 30
0.0
 10
2.598070
 20
4.628973
 30
0.0
 10
2.465029
 20
4.609120
 30
0.0
 10
2.335179
 20
4.576487
 30
0.0
 10
2.209417
 20
4.531446
 30
0.0
 10
2.088640
 20
4.474367
 30
0.0
 10
1.973747
 20
4.405624
 30
0.0
 10
1.865636
 20
4.325588
 30
0.0
 10
1.765203
 20
4.234631
 30
0.0
 10
1.674246
 20
4.134199
 30
0.0
 10
1.594210
 20
4.026088
 30
0.0
 10
1.525467
 20
3.911195
 30
0.0
 10
1.468388
 20
3.790418
 30
0.0
 10
1.423347
 20
3.664655
 30
0.0
 10
1.390713
 20
3.534805
 30
0.0
 10
1.370861
 20
3.401765
 30
0.0
 10
1.364161
 20
3.266432
 30
0.0
 10
1.370861
 20
3.131099
 30
0.0
 10
1.390713
 20
2.998059
 30
0.0
 10
1.423346
 20
2.868208
 30
0.0
 10
1.468388
 20
2.742446
 30
0.0
 10
1.525466
 20
2.621669
 30
0.0
 10
1.594209
 20
2.506776
 30
0.0
 10
1.674245
 20
2.398664
 30
0.0
 10
1.765202
 20
2.298232
 30
0.0
 10
1.765202
 20
2.298232
 30
0.0
  0
LWPOLYLINE
  5
105
100
AcDbEntity
  8
Layer_1
 62
7
100
AcDbPolyline
 90
422
 70
0
 10
1.926948
 20
2.405180
 30
0.0
 10
1.929942
 20
2.420631
 30
0.0
 10
1.934486
 20
2.440785
 30
0.0
 10
1.939699
 20
2.460486
 30
0.0
 10
1.945525
 20
2.479677
 30
0.0
 10
1.952049
 20
2.498336
 30
0.0
 10
1.959158
 20
2.516352
 30
0.0
 10
1.967016
 20
2.533779
 30
0.0
 10
1.975624
 20
2.550513
 30
0.0
 10
1.980169
 20
2.558586
 30
0.0
 10
1.984953
 20
2.566418
 30
0.0
 10
1.989951
 20
2.574035
 30
0.0
 10
1.992598
 20
2.577698
 30
0.0
 10
1.995271
 20
2.581386
 30
0.0
 10
1.998024
 20
2.584887
 30
0.0
 10
1.890408
 20
2.723671
 30
0.0
 10
1.886292
 20
2.721854
 30
0.0
 10
1.882123
 20
2.720143
 30
0.0
 10
1.877899
 20
2.718539
 30
0.0
 10
1.869239
 20
2.715545
 30
0.0
 10
1.860471
 20
2.712925
 30
0.0
 10
1.851516
 20
2.710439
 30
0.0
 10
1.833206
 20
2.706296
 30
0.0
 10
1.814334
 20
2.703035
 30
0.0
 10
1.795143
 20
2.700630
 30
0.0
 10
1.775415
 20
2.698972
 30
0.0
 10
1.755394
 20
2.698090
 30
0.0
 10
1.735025
 20
2.697929
 30
0.0
 10
1.714363
 20
2.698544
 30
0.0
 10
1.698646
 20
2.699453
 30
0.0
 10
1.633130
 20
2.840349
 30
0.0
 10
1.642539
 20
2.852966
 30
0.0
 10
1.655396
 20
2.869191
 30
0.0
 10
1.668628
 20
2.884667
 30
0.0
 10
1.682180
 20
2.899396
 30
0.0
 10
1.696132
 20
2.913349
 30
0.0
 10
1.710434
 20
2.926528
 30
0.0
 10
1.725055
 20
2.938850
 30
0.0
 10
1.739998
 20
2.950211
 30
0.0
 10
1.747643
 20
2.955450
 30
0.0
 10
1.755341
 20
2.960474
 30
0.0
 10
1.763200
 20
2.965125
 30
0.0
 10
1.767130
 20
2.967345
 30
0.0
 10
1.771113
 20
2.969455
 30
0.0
 10
1.775203
 20
2.971460
 30
0.0
 10
1.738395
 20
3.143148
 30
0.0
 10
1.733905
 20
3.143363
 30
0.0
 10
1.729387
 20
3.143603
 30
0.0
 10
1.724924
 20
3.144004
 30
0.0
 10
1.715835
 20
3.145073
 30
0.0
 10
1.706773
 20
3.146436
 30
0.0
 10
1.697632
 20
3.148148
 30
0.0
 10
1.679321
 20
3.152343
 30
0.0
 10
1.660931
 20
3.157583
 30
0.0
 10
1.642540
 20
3.163731
 30
0.0
 10
1.624096
 20
3.170841
 30
0.0
 10
1.605680
 20
3.178727
 30
0.0
 10
1.587289
 20
3.187441
 30
0.0
 10
1.568898
 20
3.196903
 30
0.0
 10
1.555132
 20
3.204574
 30
0.0
 10
1.557217
 20
3.359984
 30
0.0
 10
1.571197
 20
3.367228
 30
0.0
 10
1.589801
 20
3.376210
 30
0.0
 10
1.608433
 20
3.384470
 30
0.0
 10
1.627090
 20
3.391847
 30
0.0
 10
1.645722
 20
3.398397
 30
0.0
 10
1.664326
 20
3.404064
 30
0.0
 10
1.682796
 20
3.408794
 30
0.0
 10
1.701240
 20
3.412537
 30
0.0
 10
1.710355
 20
3.414007
 30
0.0
 10
1.719470
 20
3.415102
 30
0.0
 10
1.728585
 20
3.415931
 30
0.0
 10
1.733077
 20
3.416199
 30
0.0
 10
1.737593
 20
3.416386
 30
0.0
 10
1.742057
 20
3.416413
 30
0.0
 10
1.783435
 20
3.587112
 30
0.0
 10
1.779484
 20
3.589202
 30
0.0
 10
1.775588
 20
3.591401
 30
0.0
 10
1.771653
 20
3.593667
 30
0.0
 10
1.763955
 20
3.598586
 30
0.0
 10
1.756390
 20
3.603797
 30
0.0
 10
1.748882
 20
3.609280
 30
0.0
 10
1.734260
 20
3.621014
 30
0.0
 10
1.719926
 20
3.633678
 30
0.0
 10
1.706022
 20
3.647253
 30
0.0
 10
1.692465
 20
3.661549
 30
0.0
 10
1.679283
 20
3.676648
 30
0.0
 10
1.666506
 20
3.692526
 30
0.0
 10
1.654077
 20
3.709072
 30
0.0
 10
1.644962
 20
3.721876
 30
0.0
 10
1.714274
 20
3.861007
 30
0.0
 10
1.729991
 20
3.861488
 30
0.0
 10
1.750707
 20
3.861515
 30
0.0
 10
1.771075
 20
3.860873
 30
0.0
 10
1.791070
 20
3.859431
 30
0.0
 10
1.810690
 20
3.857239
 30
0.0
 10
1.829855
 20
3.854324
 30
0.0
 10
1.848593
 20
3.850502
 30
0.0
 10
1.866796
 20
3.845877
 30
0.0
 10
1.875645
 20
3.843232
 30
0.0
 10
1.884386
 20
3.840318
 30
0.0
 10
1.892940
 20
3.837058
 30
0.0
 10
1.897112
 20
3.835349
 30
0.0
 10
1.901229
 20
3.833586
 30
0.0
 10
1.905291
 20
3.831659
 30
0.0
 10
2.016622
 20
3.967476
 30
0.0
 10
2.014001
 20
3.971110
 30
0.0
 10
2.011381
 20
3.974798
 30
0.0
 10
2.008897
 20
3.978569
 30
0.0
 10
2.004085
 20
3.986320
 30
0.0
 10
1.999487
 20
3.994232
 30
0.0
 10
1.995130
 20
4.002438
 30
0.0
 10
1.987032
 20
4.019413
 30
0.0
 10
1.979627
 20
4.037028
 30
0.0
 10
1.972997
 20
4.055257
 30
0.0
 10
1.966984
 20
4.074103
 30
0.0
 10
1.961691
 20
4.093402
 30
0.0
 10
1.957040
 20
4.113236
 30
0.0
 10
1.952976
 20
4.133551
 30
0.0
 10
1.950438
 20
4.149028
 30
0.0
 10
2.073209
 20
4.244268
 30
0.0
 10
2.087591
 20
4.237906
 30
0.0
 10
2.106195
 20
4.228978
 30
0.0
 10
2.124265
 20
4.219516
 30
0.0
 10
2.141667
 20
4.209546
 30
0.0
 10
2.158426
 20
4.199093
 30
0.0
 10
2.174385
 20
4.188108
 30
0.0
 10
2.189647
 20
4.176587
 30
0.0
 10
2.204028
 20
4.164505
 30
0.0
 10
2.210905
 20
4.158231
 30
0.0
 10
2.217511
 20
4.151899
 30
0.0
 10
2.223843
 20
4.145293
 30
0.0
 10
2.226886
 20
4.141921
 30
0.0
 10
2.229807
 20
4.138480
 30
0.0
 10
2.232633
 20
4.135052
 30
0.0
 10
2.391867
 20
4.209122
 30
0.0
 10
2.391064
 20
4.213505
 30
0.0
 10
2.390316
 20
4.217943
 30
0.0
 10
2.389674
 20
4.222433
 30
0.0
 10
2.388739
 20
4.231495
 30
0.0
 10
2.388043
 20
4.240690
 30
0.0
 10
2.387669
 20
4.249938
 30
0.0
 10
2.387722
 20
4.268703
 30
0.0
 10
2.388738
 20
4.287789
 30
0.0
 10
2.390637
 20
4.307169
 30
0.0
 10
2.393416
 20
4.326681
 30
0.0
 10
2.397025
 20
4.346382
 30
0.0
 10
2.401382
 20
4.366296
 30
0.0
 10
2.406568
 20
4.386290
 30
0.0
 10
2.410978
 20
4.401393
 30
0.0
 10
2.562940
 20
4.433977
 30
0.0
 10
2.573103
 20
4.422008
 30
0.0
 10
2.586067
 20
4.405836
 30
0.0
 10
2.598230
 20
4.389504
 30
0.0
 10
2.609537
 20
4.372958
 30
0.0
 10
2.620122
 20
4.356278
 30
0.0
 10
2.629718
 20
4.339411
 30
0.0
 10
2.638512
 20
4.322437
 30
0.0
 10
2.646237
 20
4.305303
 30
0.0
 10
2.649658
 20
4.296695
 30
0.0
 10
2.652787
 20
4.288062
 30
0.0
 10
2.655620
 20
4.279402
 30
0.0
 10
2.656903
 20
4.275072
 30
0.0
 10
2.658079
 20
4.270688
 30
0.0
 10
2.659094
 20
4.266303
 30
0.0
 10
2.834713
 20
4.263951
 30
0.0
 10
2.835863
 20
4.268309
 30
0.0
 10
2.837145
 20
4.272638
 30
0.0
 10
2.838536
 20
4.276916
 30
0.0
 10
2.841583
 20
4.285523
 30
0.0
 10
2.844924
 20
4.294103
 30
0.0
 10
2.848639
 20
4.302576
 30
0.0
 10
2.856818
 20
4.319470
 30
0.0
 10
2.866042
 20
4.336231
 30
0.0
 10
2.876091
 20
4.352803
 30
0.0
 10
2.887078
 20
4.369243
 30
0.0
 10
2.898865
 20
4.385413
 30
0.0
 10
2.911482
 20
4.401452
 30
0.0
 10
2.924848
 20
4.417223
 30
0.0
 10
2.935379
 20
4.428932
 30
0.0
 10
3.086352
 20
4.392311
 30
0.0
 10
3.090388
 20
4.377101
 30
0.0
 10
3.094985
 20
4.356946
 30
0.0
 10
3.098862
 20
4.336980
 30
0.0
 10
3.101909
 20
4.317145
 30
0.0
 10
3.104208
 20
4.297526
 30
0.0
 10
3.105571
 20
4.278146
 30
0.0
 10
3.106078
 20
4.259087
 30
0.0
 10
3.105597
 20
4.240268
 30
0.0
 10
3.104983
 20
4.231047
 30
0.0
 10
3.104074
 20
4.221851
 30
0.0
 10
3.102817
 20
4.212843
 30
0.0
 10
3.102069
 20
4.208352
 30
0.0
 10
3.101240
 20
4.203942
 30
0.0
 10
3.100278
 20
4.199558
 30
0.0
 10
3.257479
 20
4.121265
 30
0.0
 10
3.260393
 20
4.124606
 30
0.0
 10
3.263413
 20
4.128001
 30
0.0
 10
3.266539
 20
4.131291
 30
0.0
 10
3.272981
 20
4.137679
 30
0.0
 10
3.279743
 20
4.143907
 30
0.0
 10
3.286774
 20
4.150029
 30
0.0
 10
3.301476
 20
4.161683
 30
0.0
 10
3.317007
 20
4.172777
 30
0.0
 10
3.333365
 20
4.183308
 30
0.0
 10
3.350312
 20
4.193359
 30
0.0
 10
3.368035
 20
4.202849
 30
0.0
 10
3.386318
 20
4.211776
 30
0.0
 10
3.405189
 20
4.220222
 30
0.0
 10
3.419704
 20
4.226236
 30
0.0
 10
3.539884
 20
4.127710
 30
0.0
 10
3.536916
 20
4.112232
 30
0.0
 10
3.532346
 20
4.092105
 30
0.0
 10
3.527133
 20
4.072404
 30
0.0
 10
3.521306
 20
4.053212
 30
0.0
 10
3.514837
 20
4.034554
 30
0.0
 10
3.507701
 20
4.016511
 30
0.0
 10
3.499814
 20
3.999109
 30
0.0
 10
3.491235
 20
3.982350
 30
0.0
 10
3.486663
 20
3.974303
 30
0.0
 10
3.481879
 20
3.966472
 30
0.0
 10
3.476853
 20
3.958827
 30
0.0
 10
3.474261
 20
3.955164
 30
0.0
 10
3.471563
 20
3.951502
 30
0.0
 10
3.468808
 20
3.948000
 30
0.0
 10
3.576425
 20
3.809217
 30
0.0
 10
3.580542
 20
3.811034
 30
0.0
 10
3.584738
 20
3.812718
 30
0.0
 10
3.588934
 20
3.814349
 30
0.0
 10
3.597541
 20
3.817290
 30
0.0
 10
3.606362
 20
3.819963
 30
0.0
 10
3.615317
 20
3.822449
 30
0.0
 10
3.633654
 20
3.826565
 30
0.0
 10
3.652526
 20
3.829826
 30
0.0
 10
3.671745
 20
3.832259
 30
0.0
 10
3.691445
 20
3.833889
 30
0.0
 10
3.711439
 20
3.834799
 30
0.0
 10
3.731835
 20
3.834932
 30
0.0
 10
3.752496
 20
3.834370
 30
0.0
 10
3.768214
 20
3.833408
 30
0.0
 10
3.833757
 20
3.692486
 30
0.0
 10
3.824321
 20
3.679896
 30
0.0
 10
3.811464
 20
3.663724
 30
0.0
 10
3.798206
 20
3.648221
 30
0.0
 10
3.784626
 20
3.633413
 30
0.0
 10
3.770726
 20
3.619512
 30
0.0
 10
3.756425
 20
3.606334
 30
0.0
 10
3.741778
 20
3.594038
 30
0.0
 10
3.726835
 20
3.582677
 30
0.0
 10
3.719218
 20
3.577411
 30
0.0
 10
3.711521
 20
3.572385
 30
0.0
 10
3.703634
 20
3.567760
 30
0.0
 10
3.699705
 20
3.565542
 30
0.0
 10
3.695722
 20
3.563431
 30
0.0
 10
3.691659
 20
3.561454
 30
0.0
 10
3.728466
 20
3.389764
 30
0.0
 10
3.732930
 20
3.389523
 30
0.0
 10
3.737475
 20
3.389257
 30
0.0
 10
3.741939
 20
3.388909
 30
0.0
 10
3.751000
 20
3.387813
 30
0.0
 10
3.760088
 20
3.386423
 30
0.0
 10
3.769203
 20
3.384739
 30
0.0
 10
3.787541
 20
3.380516
 30
0.0
 10
3.805904
 20
3.375303
 30
0.0
 10
3.824295
 20
3.369155
 30
0.0
 10
3.842739
 20
3.362046
 30
0.0
 10
3.861182
 20
3.354133
 30
0.0
 10
3.879600
 20
3.345446
 30
0.0
 10
3.897963
 20
3.335956
 30
0.0
 10
3.911703
 20
3.328312
 30
0.0
 10
3.909619
 20
3.172902
 30
0.0
 10
3.895691
 20
3.165657
 30
0.0
 10
3.877034
 20
3.156677
 30
0.0
 10
3.858402
 20
3.148416
 30
0.0
 10
3.839772
 20
3.141012
 30
0.0
 10
3.821113
 20
3.134489
 30
0.0
 10
3.802590
 20
3.128797
 30
0.0
 10
3.784066
 20
3.124065
 30
0.0
 10
3.765649
 20
3.120350
 30
0.0
 10
3.756480
 20
3.118879
 30
0.0
 10
3.747391
 20
3.117756
 30
0.0
 10
3.738277
 20
3.116928
 30
0.0
 10
3.733759
 20
3.116687
 30
0.0
 10
3.729242
 20
3.116501
 30
0.0
 10
3.724804
 20
3.116447
 30
0.0
 10
3.683400
 20
2.945774
 30
0.0
 10
3.687351
 20
2.943684
 30
0.0
 10
3.691273
 20
2.941459
 30
0.0
 10
3.695209
 20
2.939193
 30
0.0
 10
3.702906
 20
2.934274
 30
0.0
 10
3.710445
 20
2.929089
 30
0.0
 10
3.717954
 20
2.923606
 30
0.0
 10
3.732602
 20
2.911898
 30
0.0
 10
3.746907
 20
2.899153
 30
0.0
 10
3.760811
 20
2.885632
 30
0.0
 10
3.774368
 20
2.871335
 30
0.0
 10
3.787551
 20
2.856237
 30
0.0
 10
3.800354
 20
2.840332
 30
0.0
 10
3.812783
 20
2.823839
 30
0.0
 10
3.821898
 20
2.810982
 30
0.0
 10
3.752560
 20
2.671878
 30
0.0
 10
3.736842
 20
2.671342
 30
0.0
 10
3.716154
 20
2.671343
 30
0.0
 10
3.695784
 20
2.672038
 30
0.0
 10
3.675763
 20
2.673454
 30
0.0
 10
3.656198
 20
2.675647
 30
0.0
 10
3.636979
 20
2.678560
 30
0.0
 10
3.618266
 20
2.682355
 30
0.0
 10
3.600037
 20
2.687007
 30
0.0
 10
3.591189
 20
2.689653
 30
0.0
 10
3.582448
 20
2.692567
 30
0.0
 10
3.573921
 20
2.695801
 30
0.0
 10
3.569749
 20
2.697509
 30
0.0
 10
3.565605
 20
2.699299
 30
0.0
 10
3.561570
 20
2.701199
 30
0.0
 10
3.450238
 20
2.565382
 30
0.0
 10
3.452887
 20
2.561775
 30
0.0
 10
3.455453
 20
2.558087
 30
0.0
 10
3.457937
 20
2.554316
 30
0.0
 10
3.462775
 20
2.546591
 30
0.0
 10
3.467373
 20
2.538626
 30
0.0
 10
3.471702
 20
2.530445
 30
0.0
 10
3.479802
 20
2.513472
 30
0.0
 10
3.487207
 20
2.495857
 30
0.0
 10
3.493889
 20
2.477627
 30
0.0
 10
3.499850
 20
2.458782
 30
0.0
 10
3.505170
 20
2.439456
 30
0.0
 10
3.509821
 20
2.419622
 30
0.0
 10
3.513856
 20
2.399333
 30
0.0
 10
3.516449
 20
2.383856
 30
0.0
 10
3.393651
 20
2.288590
 30
0.0
 10
3.379269
 20
2.295005
 30
0.0
 10
3.360639
 20
2.303907
 30
0.0
 10
3.342569
 20
2.313369
 30
0.0
 10
3.325194
 20
2.323312
 30
0.0
 10
3.308434
 20
2.333817
 30
0.0
 10
3.292449
 20
2.344777
 30
0.0
 10
3.277186
 20
2.356298
 30
0.0
 10
3.262832
 20
2.368353
 30
0.0
 10
3.255969
 20
2.374641
 30
0.0
 10
3.249337
 20
2.381000
 30
0.0
 10
3.243005
 20
2.387605
 30
0.0
 10
3.239961
 20
2.390977
 30
0.0
 10
3.237067
 20
2.394391
 30
0.0
 10
3.234214
 20
2.397847
 30
0.0
 10
3.075008
 20
2.323804
 30
0.0
 10
3.075836
 20
2.319392
 30
0.0
 10
3.076531
 20
2.314955
 30
0.0
 10
3.077226
 20
2.310464
 30
0.0
 10
3.078135
 20
2.301376
 30
0.0
 10
3.078804
 20
2.292209
 30
0.0
 10
3.079177
 20
2.282959
 30
0.0
 10
3.079151
 20
2.264167
 30
0.0
 10
3.078162
 20
2.245109
 30
0.0
 10
3.076238
 20
2.225757
 30
0.0
 10
3.073431
 20
2.206217
 30
0.0
 10
3.069849
 20
2.186489
 30
0.0
 10
3.065491
 20
2.166628
 30
0.0
 10
3.060307
 20
2.146582
 30
0.0
 10
3.055923
 20
2.131452
 30
0.0
 10
2.903960
 20
2.098920
 30
0.0
 10
2.893743
 20
2.110890
 30
0.0
 10
2.880805
 20
2.127035
 30
0.0
 10
2.868616
 20
2.143393
 30
0.0
 10
2.857309
 20
2.159939
 30
0.0
 10
2.846777
 20
2.176619
 30
0.0
 10
2.837102
 20
2.193460
 30
0.0
 10
2.828360
 20
2.210487
 30
0.0
 10
2.820635
 20
2.227620
 30
0.0
 10
2.817213
 20
2.236174
 30
0.0
 10
2.814059
 20
2.244835
 30
0.0
 10
2.811226
 20
2.253496
 30
0.0
 10
2.809943
 20
2.257825
 30
0.0
 10
2.808793
 20
2.262183
 30
0.0
 10
2.807752
 20
2.266594
 30
0.0
 10
2.632133
 20
2.268946
 30
0.0
 10
2.630983
 20
2.264589
 30
0.0
 10
2.629700
 20
2.260258
 30
0.0
 10
2.628337
 20
2.255955
 30
0.0
 10
2.625263
 20
2.247374
 30
0.0
 10
2.621922
 20
2.238794
 30
0.0
 10
2.618207
 20
2.230321
 30
0.0
 10
2.610054
 20
2.213401
 30
0.0
 10
2.600831
 20
2.196640
 30
0.0
 10
2.590755
 20
2.180094
 30
0.0
 10
2.579768
 20
2.163655
 30
0.0
 10
2.568006
 20
2.147456
 30
0.0
 10
2.555391
 20
2.131419
 30
0.0
 10
2.542051
 20
2.115621
 30
0.0
 10
2.531520
 20
2.103913
 30
0.0
 10
2.380467
 20
2.140507
 30
0.0
 10
2.376484
 20
2.155770
 30
0.0
 10
2.371859
 20
2.175951
 30
0.0
 10
2.368010
 20
2.195892
 30
0.0
 10
2.364964
 20
2.215780
 30
0.0
 10
2.362664
 20
2.235346
 30
0.0
 10
2.361301
 20
2.254725
 30
0.0
 10
2.360820
 20
2.273811
 30
0.0
 10
2.361247
 20
2.292629
 30
0.0
 10
2.361889
 20
2.301824
 30
0.0
 10
2.362799
 20
2.311020
 30
0.0
 10
2.364055
 20
2.320028
 30
0.0
 10
2.364803
 20
2.324519
 30
0.0
 10
2.365632
 20
2.328929
 30
0.0
 10
2.366594
 20
2.333313
 30
0.0
 10
2.209392
 20
2.411659
 30
0.0
 10
2.206453
 20
2.408237
 30
0.0
 10
2.203459
 20
2.404869
 30
0.0
 10
2.200306
 20
2.401607
 30
0.0
 10
2.193864
 20
2.395219
 30
0.0
 10
2.187101
 20
2.388990
 30
0.0
 10
2.180072
 20
2.382869
 30
0.0
 10
2.165370
 20
2.371215
 30
0.0
 10
2.149865
 20
2.360094
 30
0.0
 10
2.133534
 20
2.349536
 30
0.0
 10
2.116534
 20
2.339539
 30
0.0
 10
2.098811
 20
2.330049
 30
0.0
 10
2.080554
 20
2.321095
 30
0.0
 10
2.061657
 20
2.312676
 30
0.0
 10
2.047142
 20
2.306661
 30
0.0
 10
1.926961
 20
2.405188
 30
0.0
 10
1.926948
 20
2.405180
 30
0.0
  0
ENDSEC
  0
SECTION
  2
OBJECTS
  0
DICTIONARY
  5
C
330
0
100
AcDbDictionary
  3
ACAD_GROUP
350
D
  3
ACAD_MLINESTYLE
350
17
  0
DICTIONARY
  5
D
330
C
100
AcDbDictionary
  0
DICTIONARY
  5
1A
330
C
100
AcDbDictionary
  0
DICTIONARY
  5
17
330
C
100
AcDbDictionary
  3
STANDARD
350
18
  0
DICTIONARY
  5
19
330
C
100
AcDbDictionary
  0
ENDSEC
  0
EOF
