  0
SECTION
  2
HEADER
  9
$ACADVER
  1
AC1014
  9
$HANDSEED
  5
FFFF
  9
$MEASUREMENT
 70
     1
  0
ENDSEC
  0
SECTION
  2
TABLES
  0
TABLE
  2
VPORT
  5
8
330
0
100
AcDbSymbolTable
 70
     4
  0
VPORT
  5
2E
330
8
100
AcDbSymbolTableRecord
100
AcDbViewportTableRecord
  2
*ACTIVE
 70
     0
 10
0.0
 20
0.0
 11
1.0
 21
1.0
 12
210.0
 22
148.5
 13
0.0
 23
0.0
 14
10.0
 24
10.0
 15
10.0
 25
10.0
 16
0.0
 26
0.0
 36
1.0
 17
0.0
 27
0.0
 37
0.0
 40
341.0
 41
1.24
 42
50.0
 43
0.0
 44
0.0
 50
0.0
 51
0.0
 71
     0
 72
   100
 73
     1
 74
     3
 75
     0
 76
     0
 77
     0
 78
     0
  0
ENDTAB
  0
TABLE
  2
LTYPE
  5
5
330
0
100
AcDbSymbolTable
 70
     1
  0
LTYPE
  5
14
330
5
100
AcDbSymbolTableRecord
100
AcDbLinetypeTableRecord
  2
BYBLOCK
 70
     0
  3

 72
    65
 73
     0
 40
0.0
  0
LTYPE
  5
15
330
5
100
AcDbSymbolTableRecord
100
AcDbLinetypeTableRecord
  2
BYLAYER
 70
     0
  3

 72
    65
 73
     0
 40
0.0
  0
LTYPE
  5
16
330
5
100
AcDbSymbolTableRecord
100
AcDbLinetypeTableRecord
  2
CONTINUOUS
 70
     0
  3
Solid line
 72
    65
 73
     0
 40
0.0
  0
ENDTAB
  0
TABLE
  2
LAYER
  5
2
100
AcDbSymbolTable
 70
2
  0
LAYER
  5
50
100
AcDbSymbolTableRecord
100
AcDbLayerTableRecord
  2
0
 70
0
  6
CONTINUOUS
  0
LAYER
  5
51
100
AcDbSymbolTableRecord
100
AcDbLayerTableRecord
  2
Layer_1
 70
0
  6
CONTINUOUS
  0
ENDTAB
  0
TABLE
  2
STYLE
  5
3
330
0
100
AcDbSymbolTable
 70
     1
  0
STYLE
  5
11
330
3
100
AcDbSymbolTableRecord
100
AcDbTextStyleTableRecord
  2
STANDARD
 70
     0
 40
0.0
 41
1.0
 50
0.0
 71
     0
 42
2.5
  3
txt
  4

  0
ENDTAB
  0
TABLE
  2
VIEW
  5
6
330
0
100
AcDbSymbolTable
 70
     0
  0
ENDTAB
  0
TABLE
  2
UCS
  5
7
330
0
100
AcDbSymbolTable
 70
     0
  0
ENDTAB
  0
TABLE
  2
APPID
  5
9
330
0
100
AcDbSymbolTable
 70
     2
  0
APPID
  5
12
330
9
100
AcDbSymbolTableRecord
100
AcDbRegAppTableRecord
  2
ACAD
 70
     0
  0
ENDTAB
  0
TABLE
  2
DIMSTYLE
  5
A
330
0
100
AcDbSymbolTable
 70
     1
  0
DIMSTYLE
105
27
330
A
100
AcDbSymbolTableRecord
100
AcDbDimStyleTableRecord
  2
ISO-25
 70
     0
  3

  4

  5

  6

  7

 40
1.0
 41
2.5
 42
0.625
 43
3.75
 44
1.25
 45
0.0
 46
0.0
 47
0.0
 48
0.0
140
2.5
141
2.5
142
0.0
143
0.03937007874016
144
1.0
145
0.0
146
1.0
147
0.625
 71
     0
 72
     0
 73
     0
 74
     0
 75
     0
 76
     0
 77
     1
 78
     8
170
     0
171
     3
172
     1
173
     0
174
     0
175
     0
176
     0
177
     0
178
     0
270
     2
271
     2
272
     2
273
     2
274
     3
340
11
275
     0
280
     0
281
     0
282
     0
283
     0
284
     8
285
     0
286
     0
287
     3
288
     0
  0
ENDTAB
  0
TABLE
  2
BLOCK_RECORD
  5
1
330
0
100
AcDbSymbolTable
 70
     1
  0
BLOCK_RECORD
  5
1F
330
1
100
AcDbSymbolTableRecord
100
AcDbBlockTableRecord
  2
*MODEL_SPACE
  0
BLOCK_RECORD
  5
1B
330
1
100
AcDbSymbolTableRecord
100
AcDbBlockTableRecord
  2
*PAPER_SPACE
  0
ENDTAB
  0
ENDSEC
  0
SECTION
  2
BLOCKS
  0
BLOCK
  5
20
330
1F
100
AcDbEntity
  8
0
100
AcDbBlockBegin
  2
*MODEL_SPACE
 70
     0
 10
0.0
 20
0.0
 30
0.0
  3
*MODEL_SPACE
  1

  0
ENDBLK
  5
21
330
1F
100
AcDbEntity
  8
0
100
AcDbBlockEnd
  0
BLOCK
  5
1C
330
1B
100
AcDbEntity
 67
     1
  8
0
100
AcDbBlockBegin
  2
*PAPER_SPACE
  1

  0
ENDBLK
  5
1D
330
1B
100
AcDbEntity
 67
     1
  8
0
100
AcDbBlockEnd
  0
ENDSEC
  0
SECTION
  2
ENTITIES
  0
LWPOLYLINE
  5
100
100
AcDbEntity
  8
Layer_1
 62
7
100
AcDbPolyline
 90
169
 70
0
 10
3.770615
 20
5.728604
 30
0.0
 10
3.767142
 20
5.701208
 30
0.0
 10
3.709671
 20
5.697347
 30
0.0
 10
3.654660
 20
5.684591
 30
0.0
 10
3.602971
 20
5.663556
 30
0.0
 10
3.555466
 20
5.634861
 30
0.0
 10
3.513006
 20
5.599121
 30
0.0
 10
3.476452
 20
5.556954
 30
0.0
 10
3.446665
 20
5.508977
 30
0.0
 10
3.424507
 20
5.455807
 30
0.0
 10
3.423846
 20
5.453823
 30
0.0
 10
3.415247
 20
5.436570
 30
0.0
 10
3.418058
 20
5.436570
 30
0.0
 10
3.339234
 20
5.193980
 30
0.0
 10
3.316138
 20
5.197508
 30
0.0
 10
3.158385
 20
5.215623
 30
0.0
 10
2.999741
 20
5.222423
 30
0.0
 10
2.784195
 20
5.211622
 30
0.0
 10
2.572198
 20
5.180261
 30
0.0
 10
2.365130
 20
5.128902
 30
0.0
 10
2.164373
 20
5.058106
 30
0.0
 10
1.971310
 20
4.968435
 30
0.0
 10
1.787321
 20
4.860449
 30
0.0
 10
1.613788
 20
4.734709
 30
0.0
 10
1.452094
 20
4.591777
 30
0.0
 10
1.435502
 20
4.575572
 30
0.0
 10
1.213032
 20
4.737243
 30
0.0
 10
1.212919
 20
4.737299
 30
0.0
 10
1.118676
 20
4.786157
 30
0.0
 10
1.014206
 20
4.804988
 30
0.0
 10
1.013325
 20
4.804988
 30
0.0
 10
0.927347
 20
4.796718
 30
0.0
 10
0.847019
 20
4.768510
 30
0.0
 10
0.775720
 20
4.721996
 30
0.0
 10
0.716827
 20
4.658806
 30
0.0
 10
0.680527
 20
4.596581
 30
0.0
 10
0.658030
 20
4.530458
 30
0.0
 10
0.649021
 20
4.462415
 30
0.0
 10
0.653189
 20
4.394432
 30
0.0
 10
0.670221
 20
4.328487
 30
0.0
 10
0.699804
 20
4.266557
 30
0.0
 10
0.741626
 20
4.210621
 30
0.0
 10
0.795375
 20
4.162657
 30
0.0
 10
0.797139
 20
4.161334
 30
0.0
 10
0.798076
 20
4.160397
 30
0.0
 10
1.017019
 20
4.001371
 30
0.0
 10
1.006711
 20
3.980590
 30
0.0
 10
0.907441
 20
3.746550
 30
0.0
 10
0.835741
 20
3.503505
 30
0.0
 10
0.792173
 20
3.253877
 30
0.0
 10
0.777295
 20
3.000089
 30
0.0
 10
0.777295
 20
3.000032
 30
0.0
 10
0.777295
 20
2.999976
 30
0.0
 10
0.792538
 20
2.746328
 30
0.0
 10
0.836444
 20
2.496879
 30
0.0
 10
0.908446
 20
2.254047
 30
0.0
 10
1.007978
 20
2.020246
 30
0.0
 10
1.018286
 20
1.999465
 30
0.0
 10
0.795650
 20
1.837683
 30
0.0
 10
0.795425
 20
1.837514
 30
0.0
 10
0.795255
 20
1.837401
 30
0.0
 10
0.741496
 20
1.789435
 30
0.0
 10
0.699666
 20
1.733493
 30
0.0
 10
0.670078
 20
1.671555
 30
0.0
 10
0.653044
 20
1.605601
 30
0.0
 10
0.648877
 20
1.537609
 30
0.0
 10
0.657891
 20
1.469558
 30
0.0
 10
0.680396
 20
1.403428
 30
0.0
 10
0.716707
 20
1.341197
 30
0.0
 10
0.764309
 20
1.287780
 30
0.0
 10
0.819781
 20
1.246149
 30
0.0
 10
0.881187
 20
1.216603
 30
0.0
 10
0.946593
 20
1.199441
 30
0.0
 10
1.014061
 20
1.194962
 30
0.0
 10
1.081658
 20
1.203464
 30
0.0
 10
1.147447
 20
1.225247
 30
0.0
 10
1.209494
 20
1.260609
 30
0.0
 10
1.214455
 20
1.268051
 30
0.0
 10
1.220408
 20
1.268051
 30
0.0
 10
1.433673
 20
1.422998
 30
0.0
 10
1.450265
 20
1.406847
 30
0.0
 10
1.612226
 20
1.263941
 30
0.0
 10
1.786024
 20
1.138266
 30
0.0
 10
1.970274
 20
1.030385
 30
0.0
 10
2.163591
 20
0.940858
 30
0.0
 10
2.364591
 20
0.870247
 30
0.0
 10
2.571889
 20
0.819114
 30
0.0
 10
2.784101
 20
0.788019
 30
0.0
 10
2.999841
 20
0.777525
 30
0.0
 10
3.158383
 20
0.784554
 30
0.0
 10
3.316018
 20
0.802880
 30
0.0
 10
3.339114
 20
0.806408
 30
0.0
 10
3.424332
 20
0.544085
 30
0.0
 10
3.424501
 20
0.543803
 30
0.0
 10
3.453534
 20
0.477921
 30
0.0
 10
3.493812
 20
0.420909
 30
0.0
 10
3.543554
 20
0.373675
 30
0.0
 10
3.600980
 20
0.337127
 30
0.0
 10
3.664311
 20
0.312176
 30
0.0
 10
3.731765
 20
0.299729
 30
0.0
 10
3.801562
 20
0.300696
 30
0.0
 10
3.871923
 20
0.315985
 30
0.0
 10
3.937255
 20
0.344651
 30
0.0
 10
3.993858
 20
0.384387
 30
0.0
 10
4.040859
 20
0.433460
 30
0.0
 10
4.077385
 20
0.490135
 30
0.0
 10
4.102563
 20
0.552678
 30
0.0
 10
4.115521
 20
0.619354
 30
0.0
 10
4.115385
 20
0.688430
 30
0.0
 10
4.101283
 20
0.758170
 30
0.0
 10
4.098472
 20
0.760925
 30
0.0
 10
4.098472
 20
0.768146
 30
0.0
 10
4.015294
 20
1.024461
 30
0.0
 10
4.035799
 20
1.035265
 30
0.0
 10
4.255700
 20
1.167817
 30
0.0
 10
4.456915
 20
1.323187
 30
0.0
 10
4.637982
 20
1.499365
 30
0.0
 10
4.797440
 20
1.694337
 30
0.0
 10
4.933827
 20
1.906092
 30
0.0
 10
5.045679
 20
2.132619
 30
0.0
 10
5.131535
 20
2.371904
 30
0.0
 10
5.189934
 20
2.621938
 30
0.0
 10
5.193903
 20
2.644758
 30
0.0
 10
5.466478
 20
2.644758
 30
0.0
 10
5.466761
 20
2.644758
 30
0.0
 10
5.538439
 20
2.651967
 30
0.0
 10
5.605157
 20
2.672635
 30
0.0
 10
5.665499
 20
2.705345
 30
0.0
 10
5.718048
 20
2.748682
 30
0.0
 10
5.761386
 20
2.801228
 30
0.0
 10
5.794095
 20
2.861567
 30
0.0
 10
5.814761
 20
2.928284
 30
0.0
 10
5.821964
 20
2.999961
 30
0.0
 10
5.814763
 20
3.071646
 30
0.0
 10
5.794101
 20
3.138372
 30
0.0
 10
5.761393
 20
3.198721
 30
0.0
 10
5.718057
 20
3.251276
 30
0.0
 10
5.665509
 20
3.294620
 30
0.0
 10
5.605166
 20
3.327337
 30
0.0
 10
5.538445
 20
3.348009
 30
0.0
 10
5.466761
 20
3.355219
 30
0.0
 10
5.466478
 20
3.355219
 30
0.0
 10
5.191587
 20
3.355219
 30
0.0
 10
5.187619
 20
3.378040
 30
0.0
 10
5.129430
 20
3.627930
 30
0.0
 10
5.043814
 20
3.867110
 30
0.0
 10
4.932226
 20
4.093571
 30
0.0
 10
4.796125
 20
4.305303
 30
0.0
 10
4.636968
 20
4.500298
 30
0.0
 10
4.456214
 20
4.676546
 30
0.0
 10
4.255320
 20
4.832039
 30
0.0
 10
4.035744
 20
4.964768
 30
0.0
 10
4.015294
 20
4.975572
 30
0.0
 10
4.099465
 20
5.234478
 30
0.0
 10
4.099577
 20
5.234760
 30
0.0
 10
4.100074
 20
5.236304
 30
0.0
 10
4.115368
 20
5.306706
 30
0.0
 10
4.116327
 20
5.376553
 30
0.0
 10
4.103859
 20
5.444057
 30
0.0
 10
4.078876
 20
5.507434
 30
0.0
 10
4.042286
 20
5.564897
 30
0.0
 10
3.995001
 20
5.614660
 30
0.0
 10
3.937929
 20
5.654939
 30
0.0
 10
3.871981
 20
5.683945
 30
0.0
 10
3.767581
 20
5.701254
 30
0.0
 10
3.770833
 20
5.728594
 30
0.0
 10
3.770664
 20
5.728594
 30
0.0
 10
3.770608
 20
5.728594
 30
0.0
 10
3.770615
 20
5.728604
 30
0.0
  0
LWPOLYLINE
  5
101
100
AcDbEntity
  8
Layer_1
 62
7
100
AcDbPolyline
 90
66
 70
0
 10
2.999961
 20
4.927081
 30
0.0
 10
3.190432
 20
4.917653
 30
0.0
 10
3.377677
 20
4.889713
 30
0.0
 10
3.560432
 20
4.843785
 30
0.0
 10
3.737434
 20
4.780393
 30
0.0
 10
3.907418
 20
4.700060
 30
0.0
 10
4.069122
 20
4.603310
 30
0.0
 10
4.221282
 20
4.490665
 30
0.0
 10
4.362633
 20
4.362650
 30
0.0
 10
4.490648
 20
4.221299
 30
0.0
 10
4.603293
 20
4.069139
 30
0.0
 10
4.700043
 20
3.907435
 30
0.0
 10
4.780376
 20
3.737450
 30
0.0
 10
4.843768
 20
3.560449
 30
0.0
 10
4.889696
 20
3.377693
 30
0.0
 10
4.917636
 20
3.190449
 30
0.0
 10
4.927065
 20
2.999977
 30
0.0
 10
4.917111
 20
2.802946
 30
0.0
 10
4.887905
 20
2.611606
 30
0.0
 10
4.840416
 20
2.426927
 30
0.0
 10
4.775611
 20
2.249877
 30
0.0
 10
4.694460
 20
2.081425
 30
0.0
 10
4.597931
 20
1.922539
 30
0.0
 10
4.486992
 20
1.774188
 30
0.0
 10
4.362614
 20
1.637341
 30
0.0
 10
4.225763
 20
1.512966
 30
0.0
 10
4.077409
 20
1.402032
 30
0.0
 10
3.918520
 20
1.305507
 30
0.0
 10
3.750066
 20
1.224361
 30
0.0
 10
3.573014
 20
1.159561
 30
0.0
 10
3.388333
 20
1.112077
 30
0.0
 10
3.196993
 20
1.082877
 30
0.0
 10
2.999961
 20
1.072929
 30
0.0
 10
2.802929
 20
1.082877
 30
0.0
 10
2.611588
 20
1.112077
 30
0.0
 10
2.426908
 20
1.159561
 30
0.0
 10
2.249856
 20
1.224361
 30
0.0
 10
2.081401
 20
1.305507
 30
0.0
 10
1.922513
 20
1.402032
 30
0.0
 10
1.774159
 20
1.512966
 30
0.0
 10
1.637308
 20
1.637341
 30
0.0
 10
1.512929
 20
1.774188
 30
0.0
 10
1.401991
 20
1.922539
 30
0.0
 10
1.305462
 20
2.081425
 30
0.0
 10
1.224311
 20
2.249877
 30
0.0
 10
1.159506
 20
2.426927
 30
0.0
 10
1.112016
 20
2.611606
 30
0.0
 10
1.082810
 20
2.802946
 30
0.0
 10
1.072857
 20
2.999977
 30
0.0
 10
1.082286
 20
3.190448
 30
0.0
 10
1.110226
 20
3.377693
 30
0.0
 10
1.156153
 20
3.560449
 30
0.0
 10
1.219545
 20
3.737450
 30
0.0
 10
1.299878
 20
3.907435
 30
0.0
 10
1.396629
 20
4.069139
 30
0.0
 10
1.509273
 20
4.221298
 30
0.0
 10
1.637288
 20
4.362650
 30
0.0
 10
1.778640
 20
4.490665
 30
0.0
 10
1.930799
 20
4.603310
 30
0.0
 10
2.092503
 20
4.700060
 30
0.0
 10
2.262488
 20
4.780393
 30
0.0
 10
2.439490
 20
4.843785
 30
0.0
 10
2.622245
 20
4.889713
 30
0.0
 10
2.809490
 20
4.917653
 30
0.0
 10
2.999961
 20
4.927081
 30
0.0
 10
2.999961
 20
4.927081
 30
0.0
  0
LWPOLYLINE
  5
102
100
AcDbEntity
  8
Layer_1
 62
7
100
AcDbPolyline
 90
8
 70
1
 10
6.750000
 20
6.000000
 30
0.0
 10
6.750000
 20
5.249989
 30
0.0
 10
6.728751
 20
5.249989
 30
0.0
 10
6.728751
 20
5.978711
 30
0.0
 10
5.999988
 20
5.978711
 30
0.0
 10
5.999988
 20
6.000000
 30
0.0
 10
6.750000
 20
6.000000
 30
0.0
 10
6.750000
 20
6.000000
 30
0.0
  0
LWPOLYLINE
  5
103
100
AcDbEntity
  8
Layer_1
 62
7
100
AcDbPolyline
 90
9
 70
1
 10
0.750011
 20
6.000000
 30
0.0
 10
0.750011
 20
5.978711
 30
0.0
 10
0.021249
 20
5.978711
 30
0.0
 10
0.021249
 20
5.249989
 30
0.0
 10
0.000000
 20
5.249989
 30
0.0
 10
0.000000
 20
5.989334
 30
0.0
 10
0.000000
 20
6.000000
 30
0.0
 10
0.750011
 20
6.000000
 30
0.0
 10
0.750011
 20
6.000000
 30
0.0
  0
LWPOLYLINE
  5
104
100
AcDbEntity
  8
Layer_1
 62
7
100
AcDbPolyline
 90
8
 70
1
 10
6.749992
 20
0.599984
 30
0.0
 10
6.749992
 20
-0.000000
 30
0.0
 10
5.999982
 20
-0.000000
 30
0.0
 10
5.999982
 20
0.021249
 30
0.0
 10
6.728744
 20
0.021249
 30
0.0
 10
6.728744
 20
0.599984
 30
0.0
 10
6.749992
 20
0.599984
 30
0.0
 10
6.749992
 20
0.599984
 30
0.0
  0
LWPOLYLINE
  5
105
100
AcDbEntity
  8
Layer_1
 62
7
100
AcDbPolyline
 90
8
 70
1
 10
0.021249
 20
0.599984
 30
0.0
 10
0.021249
 20
0.021249
 30
0.0
 10
0.750011
 20
0.021249
 30
0.0
 10
0.750011
 20
-0.000000
 30
0.0
 10
-0.000000
 20
-0.000000
 30
0.0
 10
-0.000000
 20
0.599984
 30
0.0
 10
0.021249
 20
0.599984
 30
0.0
 10
0.021249
 20
0.599984
 30
0.0
  0
ENDSEC
  0
SECTION
  2
OBJECTS
  0
DICTIONARY
  5
C
330
0
100
AcDbDictionary
  3
ACAD_GROUP
350
D
  3
ACAD_MLINESTYLE
350
17
  0
DICTIONARY
  5
D
330
C
100
AcDbDictionary
  0
DICTIONARY
  5
1A
330
C
100
AcDbDictionary
  0
DICTIONARY
  5
17
330
C
100
AcDbDictionary
  3
STANDARD
350
18
  0
DICTIONARY
  5
19
330
C
100
AcDbDictionary
  0
ENDSEC
  0
EOF
