  0
SECTION
  2
HEADER
  9
$ACADVER
  1
AC1014
  9
$HANDSEED
  5
FFFF
  9
$MEASUREMENT
 70
     1
  0
ENDSEC
  0
SECTION
  2
TABLES
  0
TABLE
  2
VPORT
  5
8
330
0
100
AcDbSymbolTable
 70
     4
  0
VPORT
  5
2E
330
8
100
AcDbSymbolTableRecord
100
AcDbViewportTableRecord
  2
*ACTIVE
 70
     0
 10
0.0
 20
0.0
 11
1.0
 21
1.0
 12
210.0
 22
148.5
 13
0.0
 23
0.0
 14
10.0
 24
10.0
 15
10.0
 25
10.0
 16
0.0
 26
0.0
 36
1.0
 17
0.0
 27
0.0
 37
0.0
 40
341.0
 41
1.24
 42
50.0
 43
0.0
 44
0.0
 50
0.0
 51
0.0
 71
     0
 72
   100
 73
     1
 74
     3
 75
     0
 76
     0
 77
     0
 78
     0
  0
ENDTAB
  0
TABLE
  2
LTYPE
  5
5
330
0
100
AcDbSymbolTable
 70
     1
  0
LTYPE
  5
14
330
5
100
AcDbSymbolTableRecord
100
AcDbLinetypeTableRecord
  2
BYBLOCK
 70
     0
  3

 72
    65
 73
     0
 40
0.0
  0
LTYPE
  5
15
330
5
100
AcDbSymbolTableRecord
100
AcDbLinetypeTableRecord
  2
BYLAYER
 70
     0
  3

 72
    65
 73
     0
 40
0.0
  0
LTYPE
  5
16
330
5
100
AcDbSymbolTableRecord
100
AcDbLinetypeTableRecord
  2
CONTINUOUS
 70
     0
  3
Solid line
 72
    65
 73
     0
 40
0.0
  0
ENDTAB
  0
TABLE
  2
LAYER
  5
2
100
AcDbSymbolTable
 70
2
  0
LAYER
  5
50
100
AcDbSymbolTableRecord
100
AcDbLayerTableRecord
  2
0
 70
0
  6
CONTINUOUS
  0
LAYER
  5
51
100
AcDbSymbolTableRecord
100
AcDbLayerTableRecord
  2
Layer_1
 70
0
  6
CONTINUOUS
  0
ENDTAB
  0
TABLE
  2
STYLE
  5
3
330
0
100
AcDbSymbolTable
 70
     1
  0
STYLE
  5
11
330
3
100
AcDbSymbolTableRecord
100
AcDbTextStyleTableRecord
  2
STANDARD
 70
     0
 40
0.0
 41
1.0
 50
0.0
 71
     0
 42
2.5
  3
txt
  4

  0
ENDTAB
  0
TABLE
  2
VIEW
  5
6
330
0
100
AcDbSymbolTable
 70
     0
  0
ENDTAB
  0
TABLE
  2
UCS
  5
7
330
0
100
AcDbSymbolTable
 70
     0
  0
ENDTAB
  0
TABLE
  2
APPID
  5
9
330
0
100
AcDbSymbolTable
 70
     2
  0
APPID
  5
12
330
9
100
AcDbSymbolTableRecord
100
AcDbRegAppTableRecord
  2
ACAD
 70
     0
  0
ENDTAB
  0
TABLE
  2
DIMSTYLE
  5
A
330
0
100
AcDbSymbolTable
 70
     1
  0
DIMSTYLE
105
27
330
A
100
AcDbSymbolTableRecord
100
AcDbDimStyleTableRecord
  2
ISO-25
 70
     0
  3

  4

  5

  6

  7

 40
1.0
 41
2.5
 42
0.625
 43
3.75
 44
1.25
 45
0.0
 46
0.0
 47
0.0
 48
0.0
140
2.5
141
2.5
142
0.0
143
0.03937007874016
144
1.0
145
0.0
146
1.0
147
0.625
 71
     0
 72
     0
 73
     0
 74
     0
 75
     0
 76
     0
 77
     1
 78
     8
170
     0
171
     3
172
     1
173
     0
174
     0
175
     0
176
     0
177
     0
178
     0
270
     2
271
     2
272
     2
273
     2
274
     3
340
11
275
     0
280
     0
281
     0
282
     0
283
     0
284
     8
285
     0
286
     0
287
     3
288
     0
  0
ENDTAB
  0
TABLE
  2
BLOCK_RECORD
  5
1
330
0
100
AcDbSymbolTable
 70
     1
  0
BLOCK_RECORD
  5
1F
330
1
100
AcDbSymbolTableRecord
100
AcDbBlockTableRecord
  2
*MODEL_SPACE
  0
BLOCK_RECORD
  5
1B
330
1
100
AcDbSymbolTableRecord
100
AcDbBlockTableRecord
  2
*PAPER_SPACE
  0
ENDTAB
  0
ENDSEC
  0
SECTION
  2
BLOCKS
  0
BLOCK
  5
20
330
1F
100
AcDbEntity
  8
0
100
AcDbBlockBegin
  2
*MODEL_SPACE
 70
     0
 10
0.0
 20
0.0
 30
0.0
  3
*MODEL_SPACE
  1

  0
ENDBLK
  5
21
330
1F
100
AcDbEntity
  8
0
100
AcDbBlockEnd
  0
BLOCK
  5
1C
330
1B
100
AcDbEntity
 67
     1
  8
0
100
AcDbBlockBegin
  2
*PAPER_SPACE
  1

  0
ENDBLK
  5
1D
330
1B
100
AcDbEntity
 67
     1
  8
0
100
AcDbBlockEnd
  0
ENDSEC
  0
SECTION
  2
ENTITIES
  0
LWPOLYLINE
  5
100
100
AcDbEntity
  8
Layer_1
 62
7
100
AcDbPolyline
 90
8
 70
1
 10
6.750000
 20
6.000000
 30
0.0
 10
6.750000
 20
5.249988
 30
0.0
 10
6.728751
 20
5.249988
 30
0.0
 10
6.728751
 20
5.978710
 30
0.0
 10
5.999988
 20
5.978710
 30
0.0
 10
5.999988
 20
6.000000
 30
0.0
 10
6.750000
 20
6.000000
 30
0.0
 10
6.750000
 20
6.000000
 30
0.0
  0
LWPOLYLINE
  5
101
100
AcDbEntity
  8
Layer_1
 62
7
100
AcDbPolyline
 90
9
 70
1
 10
0.750011
 20
6.000000
 30
0.0
 10
0.750011
 20
5.978710
 30
0.0
 10
0.021249
 20
5.978710
 30
0.0
 10
0.021249
 20
5.249988
 30
0.0
 10
0.000000
 20
5.249988
 30
0.0
 10
0.000000
 20
5.989334
 30
0.0
 10
0.000000
 20
6.000000
 30
0.0
 10
0.750011
 20
6.000000
 30
0.0
 10
0.750011
 20
6.000000
 30
0.0
  0
LWPOLYLINE
  5
102
100
AcDbEntity
  8
Layer_1
 62
7
100
AcDbPolyline
 90
8
 70
1
 10
6.749992
 20
0.599984
 30
0.0
 10
6.749992
 20
0.000000
 30
0.0
 10
5.999982
 20
0.000000
 30
0.0
 10
5.999982
 20
0.021249
 30
0.0
 10
6.728744
 20
0.021249
 30
0.0
 10
6.728744
 20
0.599984
 30
0.0
 10
6.749992
 20
0.599984
 30
0.0
 10
6.749992
 20
0.599984
 30
0.0
  0
LWPOLYLINE
  5
103
100
AcDbEntity
  8
Layer_1
 62
7
100
AcDbPolyline
 90
8
 70
1
 10
0.021249
 20
0.599984
 30
0.0
 10
0.021249
 20
0.021249
 30
0.0
 10
0.750011
 20
0.021249
 30
0.0
 10
0.750011
 20
0.000000
 30
0.0
 10
0.000000
 20
0.000000
 30
0.0
 10
0.000000
 20
0.599984
 30
0.0
 10
0.021249
 20
0.599984
 30
0.0
 10
0.021249
 20
0.599984
 30
0.0
  0
LWPOLYLINE
  5
104
100
AcDbEntity
  8
Layer_1
 62
7
100
AcDbPolyline
 90
66
 70
0
 10
2.999978
 20
5.002974
 30
0.0
 10
2.795216
 20
4.992630
 30
0.0
 10
2.596363
 20
4.962272
 30
0.0
 10
2.404427
 20
4.912908
 30
0.0
 10
2.220414
 20
4.845543
 30
0.0
 10
2.045332
 20
4.761187
 30
0.0
 10
1.880189
 20
4.660847
 30
0.0
 10
1.725992
 20
4.545530
 30
0.0
 10
1.583749
 20
4.416245
 30
0.0
 10
1.454467
 20
4.273998
 30
0.0
 10
1.339154
 20
4.119797
 30
0.0
 10
1.238817
 20
3.954651
 30
0.0
 10
1.154464
 20
3.779566
 30
0.0
 10
1.087103
 20
3.595550
 30
0.0
 10
1.037740
 20
3.403612
 30
0.0
 10
1.007383
 20
3.204757
 30
0.0
 10
0.997041
 20
2.999995
 30
0.0
 10
1.007383
 20
2.795233
 30
0.0
 10
1.037740
 20
2.596379
 30
0.0
 10
1.087103
 20
2.404440
 30
0.0
 10
1.154464
 20
2.220424
 30
0.0
 10
1.238817
 20
2.045340
 30
0.0
 10
1.339154
 20
1.880193
 30
0.0
 10
1.454467
 20
1.725993
 30
0.0
 10
1.583749
 20
1.583746
 30
0.0
 10
1.725992
 20
1.454460
 30
0.0
 10
1.880189
 20
1.339143
 30
0.0
 10
2.045332
 20
1.238803
 30
0.0
 10
2.220414
 20
1.154447
 30
0.0
 10
2.404427
 20
1.087083
 30
0.0
 10
2.596363
 20
1.037718
 30
0.0
 10
2.795216
 20
1.007360
 30
0.0
 10
2.999978
 20
0.997017
 30
0.0
 10
3.204740
 20
1.007360
 30
0.0
 10
3.403594
 20
1.037718
 30
0.0
 10
3.595533
 20
1.087083
 30
0.0
 10
3.779549
 20
1.154447
 30
0.0
 10
3.954634
 20
1.238803
 30
0.0
 10
4.119780
 20
1.339143
 30
0.0
 10
4.273981
 20
1.454460
 30
0.0
 10
4.416228
 20
1.583746
 30
0.0
 10
4.545513
 20
1.725993
 30
0.0
 10
4.660830
 20
1.880193
 30
0.0
 10
4.761170
 20
2.045340
 30
0.0
 10
4.845526
 20
2.220424
 30
0.0
 10
4.912890
 20
2.404440
 30
0.0
 10
4.962255
 20
2.596379
 30
0.0
 10
4.992613
 20
2.795233
 30
0.0
 10
5.002956
 20
2.999995
 30
0.0
 10
4.992613
 20
3.204757
 30
0.0
 10
4.962255
 20
3.403612
 30
0.0
 10
4.912890
 20
3.595550
 30
0.0
 10
4.845526
 20
3.779566
 30
0.0
 10
4.761170
 20
3.954651
 30
0.0
 10
4.660830
 20
4.119797
 30
0.0
 10
4.545513
 20
4.273998
 30
0.0
 10
4.416228
 20
4.416245
 30
0.0
 10
4.273981
 20
4.545530
 30
0.0
 10
4.119780
 20
4.660847
 30
0.0
 10
3.954634
 20
4.761187
 30
0.0
 10
3.779549
 20
4.845543
 30
0.0
 10
3.595533
 20
4.912908
 30
0.0
 10
3.403594
 20
4.962272
 30
0.0
 10
3.204740
 20
4.992630
 30
0.0
 10
2.999978
 20
5.002974
 30
0.0
 10
2.999978
 20
5.002974
 30
0.0
  0
LWPOLYLINE
  5
105
100
AcDbEntity
  8
Layer_1
 62
7
100
AcDbPolyline
 90
66
 70
0
 10
3.000020
 20
4.927105
 30
0.0
 10
3.197053
 20
4.917154
 30
0.0
 10
3.388395
 20
4.887949
 30
0.0
 10
3.573076
 20
4.840461
 30
0.0
 10
3.750128
 20
4.775657
 30
0.0
 10
3.918583
 20
4.694506
 30
0.0
 10
4.077470
 20
4.597977
 30
0.0
 10
4.225823
 20
4.487038
 30
0.0
 10
4.362672
 20
4.362659
 30
0.0
 10
4.487048
 20
4.225808
 30
0.0
 10
4.597984
 20
4.077453
 30
0.0
 10
4.694509
 20
3.918563
 30
0.0
 10
4.775656
 20
3.750107
 30
0.0
 10
4.840457
 20
3.573054
 30
0.0
 10
4.887941
 20
3.388371
 30
0.0
 10
4.917142
 20
3.197029
 30
0.0
 10
4.927089
 20
2.999995
 30
0.0
 10
4.917138
 20
2.802965
 30
0.0
 10
4.887934
 20
2.611625
 30
0.0
 10
4.840447
 20
2.426947
 30
0.0
 10
4.775645
 20
2.249897
 30
0.0
 10
4.694496
 20
2.081444
 30
0.0
 10
4.597969
 20
1.922558
 30
0.0
 10
4.487034
 20
1.774206
 30
0.0
 10
4.362657
 20
1.637358
 30
0.0
 10
4.225809
 20
1.512981
 30
0.0
 10
4.077457
 20
1.402046
 30
0.0
 10
3.918571
 20
1.305519
 30
0.0
 10
3.750118
 20
1.224370
 30
0.0
 10
3.573068
 20
1.159568
 30
0.0
 10
3.388390
 20
1.112081
 30
0.0
 10
3.197051
 20
1.082878
 30
0.0
 10
3.000020
 20
1.072926
 30
0.0
 10
2.802986
 20
1.082874
 30
0.0
 10
2.611644
 20
1.112074
 30
0.0
 10
2.426962
 20
1.159558
 30
0.0
 10
2.249908
 20
1.224359
 30
0.0
 10
2.081452
 20
1.305506
 30
0.0
 10
1.922562
 20
1.402032
 30
0.0
 10
1.774207
 20
1.512967
 30
0.0
 10
1.637356
 20
1.637343
 30
0.0
 10
1.512977
 20
1.774192
 30
0.0
 10
1.402038
 20
1.922545
 30
0.0
 10
1.305509
 20
2.081433
 30
0.0
 10
1.224358
 20
2.249887
 30
0.0
 10
1.159554
 20
2.426939
 30
0.0
 10
1.112066
 20
2.611620
 30
0.0
 10
1.082862
 20
2.802962
 30
0.0
 10
1.072910
 20
2.999995
 30
0.0
 10
1.082338
 20
3.190467
 30
0.0
 10
1.110278
 20
3.377713
 30
0.0
 10
1.156205
 20
3.560469
 30
0.0
 10
1.219597
 20
3.737471
 30
0.0
 10
1.299930
 20
3.907457
 30
0.0
 10
1.396681
 20
4.069161
 30
0.0
 10
1.509326
 20
4.221322
 30
0.0
 10
1.637342
 20
4.362674
 30
0.0
 10
1.778693
 20
4.490689
 30
0.0
 10
1.930854
 20
4.603334
 30
0.0
 10
2.092558
 20
4.700085
 30
0.0
 10
2.262544
 20
4.780418
 30
0.0
 10
2.439546
 20
4.843810
 30
0.0
 10
2.622302
 20
4.889737
 30
0.0
 10
2.809548
 20
4.917677
 30
0.0
 10
3.000020
 20
4.927105
 30
0.0
 10
3.000020
 20
4.927105
 30
0.0
  0
ENDSEC
  0
SECTION
  2
OBJECTS
  0
DICTIONARY
  5
C
330
0
100
AcDbDictionary
  3
ACAD_GROUP
350
D
  3
ACAD_MLINESTYLE
350
17
  0
DICTIONARY
  5
D
330
C
100
AcDbDictionary
  0
DICTIONARY
  5
1A
330
C
100
AcDbDictionary
  0
DICTIONARY
  5
17
330
C
100
AcDbDictionary
  3
STANDARD
350
18
  0
DICTIONARY
  5
19
330
C
100
AcDbDictionary
  0
ENDSEC
  0
EOF
