  0
SECTION
  2
HEADER
  9
$ACADVER
  1
AC1014
  9
$HANDSEED
  5
FFFF
  9
$MEASUREMENT
 70
     1
  0
ENDSEC
  0
SECTION
  2
TABLES
  0
TABLE
  2
VPORT
  5
8
330
0
100
AcDbSymbolTable
 70
     4
  0
VPORT
  5
2E
330
8
100
AcDbSymbolTableRecord
100
AcDbViewportTableRecord
  2
*ACTIVE
 70
     0
 10
0.0
 20
0.0
 11
1.0
 21
1.0
 12
210.0
 22
148.5
 13
0.0
 23
0.0
 14
10.0
 24
10.0
 15
10.0
 25
10.0
 16
0.0
 26
0.0
 36
1.0
 17
0.0
 27
0.0
 37
0.0
 40
341.0
 41
1.24
 42
50.0
 43
0.0
 44
0.0
 50
0.0
 51
0.0
 71
     0
 72
   100
 73
     1
 74
     3
 75
     0
 76
     0
 77
     0
 78
     0
  0
ENDTAB
  0
TABLE
  2
LTYPE
  5
5
330
0
100
AcDbSymbolTable
 70
     1
  0
LTYPE
  5
14
330
5
100
AcDbSymbolTableRecord
100
AcDbLinetypeTableRecord
  2
BYBLOCK
 70
     0
  3

 72
    65
 73
     0
 40
0.0
  0
LTYPE
  5
15
330
5
100
AcDbSymbolTableRecord
100
AcDbLinetypeTableRecord
  2
BYLAYER
 70
     0
  3

 72
    65
 73
     0
 40
0.0
  0
LTYPE
  5
16
330
5
100
AcDbSymbolTableRecord
100
AcDbLinetypeTableRecord
  2
CONTINUOUS
 70
     0
  3
Solid line
 72
    65
 73
     0
 40
0.0
  0
ENDTAB
  0
TABLE
  2
LAYER
  5
2
100
AcDbSymbolTable
 70
2
  0
LAYER
  5
50
100
AcDbSymbolTableRecord
100
AcDbLayerTableRecord
  2
0
 70
0
  6
CONTINUOUS
  0
LAYER
  5
51
100
AcDbSymbolTableRecord
100
AcDbLayerTableRecord
  2
Layer_1
 70
0
  6
CONTINUOUS
  0
ENDTAB
  0
TABLE
  2
STYLE
  5
3
330
0
100
AcDbSymbolTable
 70
     1
  0
STYLE
  5
11
330
3
100
AcDbSymbolTableRecord
100
AcDbTextStyleTableRecord
  2
STANDARD
 70
     0
 40
0.0
 41
1.0
 50
0.0
 71
     0
 42
2.5
  3
txt
  4

  0
ENDTAB
  0
TABLE
  2
VIEW
  5
6
330
0
100
AcDbSymbolTable
 70
     0
  0
ENDTAB
  0
TABLE
  2
UCS
  5
7
330
0
100
AcDbSymbolTable
 70
     0
  0
ENDTAB
  0
TABLE
  2
APPID
  5
9
330
0
100
AcDbSymbolTable
 70
     2
  0
APPID
  5
12
330
9
100
AcDbSymbolTableRecord
100
AcDbRegAppTableRecord
  2
ACAD
 70
     0
  0
ENDTAB
  0
TABLE
  2
DIMSTYLE
  5
A
330
0
100
AcDbSymbolTable
 70
     1
  0
DIMSTYLE
105
27
330
A
100
AcDbSymbolTableRecord
100
AcDbDimStyleTableRecord
  2
ISO-25
 70
     0
  3

  4

  5

  6

  7

 40
1.0
 41
2.5
 42
0.625
 43
3.75
 44
1.25
 45
0.0
 46
0.0
 47
0.0
 48
0.0
140
2.5
141
2.5
142
0.0
143
0.03937007874016
144
1.0
145
0.0
146
1.0
147
0.625
 71
     0
 72
     0
 73
     0
 74
     0
 75
     0
 76
     0
 77
     1
 78
     8
170
     0
171
     3
172
     1
173
     0
174
     0
175
     0
176
     0
177
     0
178
     0
270
     2
271
     2
272
     2
273
     2
274
     3
340
11
275
     0
280
     0
281
     0
282
     0
283
     0
284
     8
285
     0
286
     0
287
     3
288
     0
  0
ENDTAB
  0
TABLE
  2
BLOCK_RECORD
  5
1
330
0
100
AcDbSymbolTable
 70
     1
  0
BLOCK_RECORD
  5
1F
330
1
100
AcDbSymbolTableRecord
100
AcDbBlockTableRecord
  2
*MODEL_SPACE
  0
BLOCK_RECORD
  5
1B
330
1
100
AcDbSymbolTableRecord
100
AcDbBlockTableRecord
  2
*PAPER_SPACE
  0
ENDTAB
  0
ENDSEC
  0
SECTION
  2
BLOCKS
  0
BLOCK
  5
20
330
1F
100
AcDbEntity
  8
0
100
AcDbBlockBegin
  2
*MODEL_SPACE
 70
     0
 10
0.0
 20
0.0
 30
0.0
  3
*MODEL_SPACE
  1

  0
ENDBLK
  5
21
330
1F
100
AcDbEntity
  8
0
100
AcDbBlockEnd
  0
BLOCK
  5
1C
330
1B
100
AcDbEntity
 67
     1
  8
0
100
AcDbBlockBegin
  2
*PAPER_SPACE
  1

  0
ENDBLK
  5
1D
330
1B
100
AcDbEntity
 67
     1
  8
0
100
AcDbBlockEnd
  0
ENDSEC
  0
SECTION
  2
ENTITIES
  0
LWPOLYLINE
  5
100
100
AcDbEntity
  8
Layer_1
 62
7
100
AcDbPolyline
 90
401
 70
0
 10
3.012543
 20
5.978537
 30
0.0
 10
2.974731
 20
5.978373
 30
0.0
 10
2.934712
 20
5.977876
 30
0.0
 10
2.896126
 20
5.976719
 30
0.0
 10
2.861015
 20
5.975395
 30
0.0
 10
2.815648
 20
5.972861
 30
0.0
 10
2.784614
 20
5.970877
 30
0.0
 10
2.741124
 20
5.967349
 30
0.0
 10
2.709761
 20
5.964592
 30
0.0
 10
2.659215
 20
5.959190
 30
0.0
 10
2.637331
 20
5.956656
 30
0.0
 10
2.588823
 20
5.950314
 30
0.0
 10
2.559114
 20
5.946126
 30
0.0
 10
2.517001
 20
5.939511
 30
0.0
 10
2.486187
 20
5.934386
 30
0.0
 10
2.440876
 20
5.926063
 30
0.0
 10
2.413428
 20
5.920771
 30
0.0
 10
2.368943
 20
5.911455
 30
0.0
 10
2.340281
 20
5.905226
 30
0.0
 10
2.294860
 20
5.894533
 30
0.0
 10
2.269669
 20
5.888358
 30
0.0
 10
2.224031
 20
5.876398
 30
0.0
 10
2.196909
 20
5.869012
 30
0.0
 10
2.155016
 20
5.856885
 30
0.0
 10
2.126904
 20
5.848562
 30
0.0
 10
2.083470
 20
5.834781
 30
0.0
 10
2.056625
 20
5.826072
 30
0.0
 10
2.019750
 20
5.813448
 30
0.0
 10
1.984912
 20
5.801157
 30
0.0
 10
1.952666
 20
5.789140
 30
0.0
 10
1.944783
 20
5.786109
 30
0.0
 10
1.890599
 20
5.671811
 30
0.0
 10
1.823075
 20
5.564850
 30
0.0
 10
1.738999
 20
5.463375
 30
0.0
 10
1.644059
 20
5.374203
 30
0.0
 10
1.539605
 20
5.297978
 30
0.0
 10
1.426989
 20
5.235349
 30
0.0
 10
1.307560
 20
5.186959
 30
0.0
 10
1.182667
 20
5.153455
 30
0.0
 10
1.053662
 20
5.135484
 30
0.0
 10
0.921894
 20
5.133690
 30
0.0
 10
0.901388
 20
5.113681
 30
0.0
 10
0.874159
 20
5.086175
 30
0.0
 10
0.851282
 20
5.062694
 30
0.0
 10
0.824660
 20
5.034472
 30
0.0
 10
0.802280
 20
5.010384
 30
0.0
 10
0.777475
 20
4.982823
 30
0.0
 10
0.754488
 20
4.956915
 30
0.0
 10
0.728804
 20
4.926985
 30
0.0
 10
0.709291
 20
4.903944
 30
0.0
 10
0.680682
 20
4.868887
 30
0.0
 10
0.664640
 20
4.848934
 30
0.0
 10
0.635814
 20
4.811836
 30
0.0
 10
0.621040
 20
4.792489
 30
0.0
 10
0.594748
 20
4.756989
 30
0.0
 10
0.577329
 20
4.733067
 30
0.0
 10
0.555722
 20
4.702308
 30
0.0
 10
0.536153
 20
4.674086
 30
0.0
 10
0.513773
 20
4.640572
 30
0.0
 10
0.497183
 20
4.615383
 30
0.0
 10
0.471772
 20
4.575254
 30
0.0
 10
0.460142
 20
4.556622
 30
0.0
 10
0.434784
 20
4.514345
 30
0.0
 10
0.422767
 20
4.494059
 30
0.0
 10
0.399783
 20
4.453656
 30
0.0
 10
0.387106
 20
4.430892
 30
0.0
 10
0.365993
 20
4.391533
 30
0.0
 10
0.352928
 20
4.366785
 30
0.0
 10
0.333856
 20
4.329080
 30
0.0
 10
0.320299
 20
4.301741
 30
0.0
 10
0.302879
 20
4.265140
 30
0.0
 10
0.289595
 20
4.236698
 30
0.0
 10
0.270799
 20
4.194584
 30
0.0
 10
0.261096
 20
4.172371
 30
0.0
 10
0.242740
 20
4.128330
 30
0.0
 10
0.232820
 20
4.104019
 30
0.0
 10
0.217496
 20
4.064553
 30
0.0
 10
0.206142
 20
4.034731
 30
0.0
 10
0.193738
 20
4.000226
 30
0.0
 10
0.181224
 20
3.964892
 30
0.0
 10
0.169154
 20
3.928514
 30
0.0
 10
0.159177
 20
3.897644
 30
0.0
 10
0.147657
 20
3.859996
 30
0.0
 10
0.137183
 20
3.824828
 30
0.0
 10
0.128198
 20
3.792528
 30
0.0
 10
0.118000
 20
3.754826
 30
0.0
 10
0.109238
 20
3.719988
 30
0.0
 10
0.100032
 20
3.682230
 30
0.0
 10
0.093307
 20
3.652464
 30
0.0
 10
0.083660
 20
3.608203
 30
0.0
 10
0.078479
 20
3.582238
 30
0.0
 10
0.069439
 20
3.534946
 30
0.0
 10
0.065251
 20
3.511079
 30
0.0
 10
0.056705
 20
3.459483
 30
0.0
 10
0.053840
 20
3.439917
 30
0.0
 10
0.046398
 20
3.386780
 30
0.0
 10
0.043478
 20
3.362912
 30
0.0
 10
0.037689
 20
3.312200
 30
0.0
 10
0.035265
 20
3.287395
 30
0.0
 10
0.030799
 20
3.236959
 30
0.0
 10
0.029036
 20
3.212318
 30
0.0
 10
0.025892
 20
3.162709
 30
0.0
 10
0.024515
 20
3.132613
 30
0.0
 10
0.022807
 20
3.086699
 30
0.0
 10
0.022088
 20
3.053955
 30
0.0
 10
0.021532
 20
3.012725
 30
0.0
 10
0.021814
 20
2.974800
 30
0.0
 10
0.022313
 20
2.934781
 30
0.0
 10
0.023470
 20
2.896199
 30
0.0
 10
0.024794
 20
2.861084
 30
0.0
 10
0.025020
 20
2.856840
 30
0.0
 10
0.116574
 20
2.770258
 30
0.0
 10
0.197107
 20
2.673342
 30
0.0
 10
0.267682
 20
2.561935
 30
0.0
 10
0.323177
 20
2.443990
 30
0.0
 10
0.363393
 20
2.320995
 30
0.0
 10
0.388134
 20
2.194437
 30
0.0
 10
0.397204
 20
2.065802
 30
0.0
 10
0.390404
 20
1.936578
 30
0.0
 10
0.367538
 20
1.808252
 30
0.0
 10
0.328409
 20
1.682310
 30
0.0
 10
0.344780
 20
1.649293
 30
0.0
 10
0.354093
 20
1.631324
 30
0.0
 10
0.378294
 20
1.585516
 30
0.0
 10
0.389261
 20
1.565509
 30
0.0
 10
0.412359
 20
1.524223
 30
0.0
 10
0.426746
 20
1.499473
 30
0.0
 10
0.448574
 20
1.462541
 30
0.0
 10
0.463234
 20
1.438729
 30
0.0
 10
0.487102
 20
1.400474
 30
0.0
 10
0.500553
 20
1.379747
 30
0.0
 10
0.526294
 20
1.340612
 30
0.0
 10
0.540626
 20
1.319722
 30
0.0
 10
0.567747
 20
1.280586
 30
0.0
 10
0.579871
 20
1.263718
 30
0.0
 10
0.609417
 20
1.223205
 30
0.0
 10
0.625128
 20
1.202422
 30
0.0
 10
0.651587
 20
1.167861
 30
0.0
 10
0.671153
 20
1.143223
 30
0.0
 10
0.695904
 20
1.112520
 30
0.0
 10
0.717951
 20
1.086172
 30
0.0
 10
0.742095
 20
1.057619
 30
0.0
 10
0.761388
 20
1.035570
 30
0.0
 10
0.790878
 20
1.002385
 30
0.0
 10
0.808573
 20
0.983093
 30
0.0
 10
0.838062
 20
0.951399
 30
0.0
 10
0.862150
 20
0.926429
 30
0.0
 10
0.886514
 20
0.901460
 30
0.0
 10
0.914020
 20
0.874228
 30
0.0
 10
0.937501
 20
0.851355
 30
0.0
 10
0.965722
 20
0.824730
 30
0.0
 10
0.989810
 20
0.802350
 30
0.0
 10
1.017372
 20
0.777545
 30
0.0
 10
1.043280
 20
0.754561
 30
0.0
 10
1.073210
 20
0.728872
 30
0.0
 10
1.096251
 20
0.709360
 30
0.0
 10
1.131308
 20
0.680754
 30
0.0
 10
1.151261
 20
0.664712
 30
0.0
 10
1.188359
 20
0.635884
 30
0.0
 10
1.207705
 20
0.621111
 30
0.0
 10
1.243204
 20
0.594818
 30
0.0
 10
1.266961
 20
0.577565
 30
0.0
 10
1.300585
 20
0.553864
 30
0.0
 10
1.324840
 20
0.537052
 30
0.0
 10
1.360780
 20
0.513071
 30
0.0
 10
1.384812
 20
0.497253
 30
0.0
 10
1.424940
 20
0.471842
 30
0.0
 10
1.443573
 20
0.460211
 30
0.0
 10
1.485850
 20
0.434856
 30
0.0
 10
1.506136
 20
0.422840
 30
0.0
 10
1.546539
 20
0.399853
 30
0.0
 10
1.569303
 20
0.387174
 30
0.0
 10
1.608662
 20
0.366065
 30
0.0
 10
1.633410
 20
0.353001
 30
0.0
 10
1.671115
 20
0.333928
 30
0.0
 10
1.698453
 20
0.320367
 30
0.0
 10
1.735055
 20
0.302949
 30
0.0
 10
1.763497
 20
0.289665
 30
0.0
 10
1.805610
 20
0.270869
 30
0.0
 10
1.827824
 20
0.261168
 30
0.0
 10
1.871865
 20
0.242813
 30
0.0
 10
1.896175
 20
0.232890
 30
0.0
 10
1.935642
 20
0.217565
 30
0.0
 10
1.965461
 20
0.206211
 30
0.0
 10
1.999969
 20
0.193808
 30
0.0
 10
2.035303
 20
0.181296
 30
0.0
 10
2.071681
 20
0.169226
 30
0.0
 10
2.102551
 20
0.159247
 30
0.0
 10
2.140196
 20
0.147726
 30
0.0
 10
2.175364
 20
0.137253
 30
0.0
 10
2.207667
 20
0.128270
 30
0.0
 10
2.216210
 20
0.125953
 30
0.0
 10
2.327185
 20
0.186552
 30
0.0
 10
2.444635
 20
0.233386
 30
0.0
 10
2.597651
 20
0.270715
 30
0.0
 10
2.754526
 20
0.284758
 30
0.0
 10
2.936084
 20
0.271337
 30
0.0
 10
3.111339
 20
0.227218
 30
0.0
 10
3.276447
 20
0.153730
 30
0.0
 10
3.427561
 20
0.052203
 30
0.0
 10
3.441009
 20
0.054077
 30
0.0
 10
3.483122
 20
0.060690
 30
0.0
 10
3.513935
 20
0.065817
 30
0.0
 10
3.559246
 20
0.074140
 30
0.0
 10
3.586698
 20
0.079432
 30
0.0
 10
3.631179
 20
0.088748
 30
0.0
 10
3.659844
 20
0.094976
 30
0.0
 10
3.705262
 20
0.105670
 30
0.0
 10
3.730453
 20
0.111842
 30
0.0
 10
3.776094
 20
0.123806
 30
0.0
 10
3.803213
 20
0.131191
 30
0.0
 10
3.845107
 20
0.143319
 30
0.0
 10
3.873218
 20
0.151641
 30
0.0
 10
3.916656
 20
0.165422
 30
0.0
 10
3.943497
 20
0.174132
 30
0.0
 10
3.980375
 20
0.186752
 30
0.0
 10
4.015213
 20
0.199046
 30
0.0
 10
4.047457
 20
0.211063
 30
0.0
 10
4.082624
 20
0.224457
 30
0.0
 10
4.117792
 20
0.238512
 30
0.0
 10
4.148935
 20
0.251246
 30
0.0
 10
4.184490
 20
0.266460
 30
0.0
 10
4.216956
 20
0.280682
 30
0.0
 10
4.245342
 20
0.293689
 30
0.0
 10
4.285638
 20
0.312542
 30
0.0
 10
4.305758
 20
0.322351
 30
0.0
 10
4.350902
 20
0.344788
 30
0.0
 10
4.368872
 20
0.354102
 30
0.0
 10
4.414676
 20
0.378302
 30
0.0
 10
4.434685
 20
0.389270
 30
0.0
 10
4.475971
 20
0.412366
 30
0.0
 10
4.500723
 20
0.426754
 30
0.0
 10
4.537654
 20
0.448581
 30
0.0
 10
4.561465
 20
0.463243
 30
0.0
 10
4.599997
 20
0.487277
 30
0.0
 10
4.618573
 20
0.499347
 30
0.0
 10
4.660740
 20
0.527130
 30
0.0
 10
4.678599
 20
0.539310
 30
0.0
 10
4.719609
 20
0.567753
 30
0.0
 10
4.736477
 20
0.579880
 30
0.0
 10
4.776990
 20
0.609425
 30
0.0
 10
4.797773
 20
0.625134
 30
0.0
 10
4.832334
 20
0.651592
 30
0.0
 10
4.856971
 20
0.671161
 30
0.0
 10
4.887675
 20
0.695912
 30
0.0
 10
4.914023
 20
0.717959
 30
0.0
 10
4.942576
 20
0.742104
 30
0.0
 10
4.964625
 20
0.761396
 30
0.0
 10
4.997809
 20
0.790886
 30
0.0
 10
5.017102
 20
0.808578
 30
0.0
 10
5.048795
 20
0.838070
 30
0.0
 10
5.073766
 20
0.862158
 30
0.0
 10
5.098735
 20
0.886522
 30
0.0
 10
5.125966
 20
0.914028
 30
0.0
 10
5.148841
 20
0.937508
 30
0.0
 10
5.175465
 20
0.965731
 30
0.0
 10
5.197842
 20
0.989819
 30
0.0
 10
5.222650
 20
1.017380
 30
0.0
 10
5.245634
 20
1.043289
 30
0.0
 10
5.271322
 20
1.073218
 30
0.0
 10
5.290835
 20
1.096258
 30
0.0
 10
5.319441
 20
1.131317
 30
0.0
 10
5.335483
 20
1.151269
 30
0.0
 10
5.364312
 20
1.188368
 30
0.0
 10
5.379083
 20
1.207714
 30
0.0
 10
5.405378
 20
1.243212
 30
0.0
 10
5.422630
 20
1.266969
 30
0.0
 10
5.446331
 20
1.300593
 30
0.0
 10
5.463143
 20
1.324847
 30
0.0
 10
5.487120
 20
1.360788
 30
0.0
 10
5.491145
 20
1.366904
 30
0.0
 10
5.467884
 20
1.491001
 30
0.0
 10
5.459671
 20
1.616992
 30
0.0
 10
5.468062
 20
1.748603
 30
0.0
 10
5.492496
 20
1.876638
 30
0.0
 10
5.532257
 20
1.999779
 30
0.0
 10
5.586632
 20
2.116706
 30
0.0
 10
5.654906
 20
2.226101
 30
0.0
 10
5.736365
 20
2.326645
 30
0.0
 10
5.830292
 20
2.417020
 30
0.0
 10
5.935975
 20
2.495906
 30
0.0
 10
5.943417
 20
2.540717
 30
0.0
 10
5.946284
 20
2.560287
 30
0.0
 10
5.953724
 20
2.613423
 30
0.0
 10
5.956648
 20
2.637291
 30
0.0
 10
5.962434
 20
2.688003
 30
0.0
 10
5.964861
 20
2.712808
 30
0.0
 10
5.969325
 20
2.763244
 30
0.0
 10
5.971089
 20
2.787885
 30
0.0
 10
5.974230
 20
2.837494
 30
0.0
 10
5.975607
 20
2.867590
 30
0.0
 10
5.977371
 20
2.914111
 30
0.0
 10
5.977871
 20
2.941947
 30
0.0
 10
5.978591
 20
2.990069
 30
0.0
 10
5.978308
 20
3.022922
 30
0.0
 10
5.977704
 20
3.065419
 30
0.0
 10
5.976544
 20
3.104005
 30
0.0
 10
5.975224
 20
3.139119
 30
0.0
 10
5.972686
 20
3.184483
 30
0.0
 10
5.970702
 20
3.215516
 30
0.0
 10
5.967175
 20
3.259007
 30
0.0
 10
5.964420
 20
3.290370
 30
0.0
 10
5.959018
 20
3.340919
 30
0.0
 10
5.956481
 20
3.362802
 30
0.0
 10
5.950143
 20
3.411308
 30
0.0
 10
5.945955
 20
3.441018
 30
0.0
 10
5.939340
 20
3.483131
 30
0.0
 10
5.934211
 20
3.513944
 30
0.0
 10
5.925889
 20
3.559255
 30
0.0
 10
5.920597
 20
3.586703
 30
0.0
 10
5.911281
 20
3.631187
 30
0.0
 10
5.905053
 20
3.659850
 30
0.0
 10
5.894359
 20
3.705271
 30
0.0
 10
5.888187
 20
3.730462
 30
0.0
 10
5.876226
 20
3.776103
 30
0.0
 10
5.868838
 20
3.803222
 30
0.0
 10
5.856713
 20
3.845115
 30
0.0
 10
5.848387
 20
3.873227
 30
0.0
 10
5.834606
 20
3.916664
 30
0.0
 10
5.825900
 20
3.943506
 30
0.0
 10
5.813277
 20
3.980384
 30
0.0
 10
5.800982
 20
4.015218
 30
0.0
 10
5.788969
 20
4.047465
 30
0.0
 10
5.775575
 20
4.082633
 30
0.0
 10
5.761517
 20
4.117801
 30
0.0
 10
5.748784
 20
4.148944
 30
0.0
 10
5.733571
 20
4.184498
 30
0.0
 10
5.719351
 20
4.216965
 30
0.0
 10
5.706339
 20
4.245351
 30
0.0
 10
5.687491
 20
4.285647
 30
0.0
 10
5.677677
 20
4.305766
 30
0.0
 10
5.655244
 20
4.350911
 30
0.0
 10
5.645927
 20
4.368880
 30
0.0
 10
5.621729
 20
4.414684
 30
0.0
 10
5.610759
 20
4.434694
 30
0.0
 10
5.587662
 20
4.475980
 30
0.0
 10
5.573278
 20
4.500731
 30
0.0
 10
5.551447
 20
4.537663
 30
0.0
 10
5.536786
 20
4.561474
 30
0.0
 10
5.512919
 20
4.599729
 30
0.0
 10
5.499468
 20
4.620455
 30
0.0
 10
5.473727
 20
4.659591
 30
0.0
 10
5.459395
 20
4.680481
 30
0.0
 10
5.432277
 20
4.719617
 30
0.0
 10
5.420150
 20
4.736485
 30
0.0
 10
5.390603
 20
4.776998
 30
0.0
 10
5.374896
 20
4.797781
 30
0.0
 10
5.348436
 20
4.832342
 30
0.0
 10
5.328868
 20
4.856980
 30
0.0
 10
5.322639
 20
4.864699
 30
0.0
 10
5.197661
 20
4.880923
 30
0.0
 10
5.075523
 20
4.911990
 30
0.0
 10
4.952956
 20
4.960636
 30
0.0
 10
4.838745
 20
5.023433
 30
0.0
 10
4.733924
 20
5.099293
 30
0.0
 10
4.639527
 20
5.187130
 30
0.0
 10
4.556586
 20
5.285857
 30
0.0
 10
4.486135
 20
5.394387
 30
0.0
 10
4.429206
 20
5.511633
 30
0.0
 10
4.386834
 20
5.636508
 30
0.0
 10
4.366604
 20
5.647202
 30
0.0
 10
4.328901
 20
5.666274
 30
0.0
 10
4.301560
 20
5.679835
 30
0.0
 10
4.264962
 20
5.697254
 30
0.0
 10
4.236516
 20
5.710538
 30
0.0
 10
4.197436
 20
5.727954
 30
0.0
 10
4.169821
 20
5.740027
 30
0.0
 10
4.133881
 20
5.755019
 30
0.0
 10
4.102460
 20
5.767863
 30
0.0
 10
4.065199
 20
5.782361
 30
0.0
 10
4.034552
 20
5.793991
 30
0.0
 10
4.000045
 20
5.806392
 30
0.0
 10
3.964713
 20
5.818905
 30
0.0
 10
3.928333
 20
5.830976
 30
0.0
 10
3.897466
 20
5.840953
 30
0.0
 10
3.859817
 20
5.852476
 30
0.0
 10
3.824649
 20
5.862946
 30
0.0
 10
3.792350
 20
5.871932
 30
0.0
 10
3.754644
 20
5.882129
 30
0.0
 10
3.719810
 20
5.890895
 30
0.0
 10
3.682051
 20
5.900098
 30
0.0
 10
3.652285
 20
5.906823
 30
0.0
 10
3.608022
 20
5.916470
 30
0.0
 10
3.582060
 20
5.921651
 30
0.0
 10
3.534765
 20
5.930691
 30
0.0
 10
3.510898
 20
5.934882
 30
0.0
 10
3.459304
 20
5.943425
 30
0.0
 10
3.439736
 20
5.946292
 30
0.0
 10
3.386599
 20
5.953732
 30
0.0
 10
3.362731
 20
5.956655
 30
0.0
 10
3.312018
 20
5.962441
 30
0.0
 10
3.287214
 20
5.964868
 30
0.0
 10
3.236777
 20
5.969333
 30
0.0
 10
3.212140
 20
5.971097
 30
0.0
 10
3.162531
 20
5.974238
 30
0.0
 10
3.132598
 20
5.975615
 30
0.0
 10
3.086461
 20
5.977325
 30
0.0
 10
3.053831
 20
5.977986
 30
0.0
 10
3.012654
 20
5.978535
 30
0.0
 10
3.012541
 20
5.978535
 30
0.0
 10
3.012543
 20
5.978537
 30
0.0
  0
LWPOLYLINE
  5
101
100
AcDbEntity
  8
Layer_1
 62
7
100
AcDbPolyline
 90
204
 70
0
 10
2.999865
 20
5.851097
 30
0.0
 10
3.000035
 20
5.850986
 30
0.0
 10
3.124611
 20
5.844481
 30
0.0
 10
3.258227
 20
5.837482
 30
0.0
 10
3.408653
 20
5.817086
 30
0.0
 10
3.540009
 20
5.796913
 30
0.0
 10
3.687568
 20
5.761635
 30
0.0
 10
3.840363
 20
5.722223
 30
0.0
 10
3.840363
 20
5.722166
 30
0.0
 10
3.887658
 20
5.707118
 30
0.0
 10
3.956759
 20
5.675017
 30
0.0
 10
4.016517
 20
5.631263
 30
0.0
 10
4.065980
 20
5.577712
 30
0.0
 10
4.104194
 20
5.516217
 30
0.0
 10
4.130207
 20
5.448634
 30
0.0
 10
4.143065
 20
5.376815
 30
0.0
 10
4.141817
 20
5.302616
 30
0.0
 10
4.125509
 20
5.227891
 30
0.0
 10
4.125509
 20
5.227614
 30
0.0
 10
4.058481
 20
5.021349
 30
0.0
 10
4.034611
 20
4.975765
 30
0.0
 10
4.032077
 20
4.977142
 30
0.0
 10
4.027832
 20
4.973560
 30
0.0
 10
4.011076
 20
4.958953
 30
0.0
 10
3.996029
 20
4.943518
 30
0.0
 10
3.983955
 20
4.926429
 30
0.0
 10
3.975026
 20
4.919374
 30
0.0
 10
3.968136
 20
4.917116
 30
0.0
 10
3.911802
 20
4.944565
 30
0.0
 10
3.909321
 20
4.951400
 30
0.0
 10
3.909434
 20
4.962757
 30
0.0
 10
3.915386
 20
4.982764
 30
0.0
 10
3.918253
 20
5.004153
 30
0.0
 10
3.919410
 20
5.026367
 30
0.0
 10
3.919580
 20
5.031879
 30
0.0
 10
3.873829
 20
5.051998
 30
0.0
 10
3.869914
 20
5.048084
 30
0.0
 10
3.854316
 20
5.032209
 30
0.0
 10
3.840478
 20
5.015617
 30
0.0
 10
3.829785
 20
4.997702
 30
0.0
 10
3.821461
 20
4.989929
 30
0.0
 10
3.814793
 20
4.987118
 30
0.0
 10
3.756418
 20
5.010049
 30
0.0
 10
3.753443
 20
5.016664
 30
0.0
 10
3.752619
 20
5.027964
 30
0.0
 10
3.757027
 20
5.048471
 30
0.0
 10
3.758184
 20
5.070021
 30
0.0
 10
3.758268
 20
5.092235
 30
0.0
 10
3.758381
 20
5.097803
 30
0.0
 10
3.711197
 20
5.114228
 30
0.0
 10
3.707505
 20
5.110040
 30
0.0
 10
3.693338
 20
5.093008
 30
0.0
 10
3.680771
 20
5.075369
 30
0.0
 10
3.671565
 20
5.056627
 30
0.0
 10
3.663849
 20
5.048251
 30
0.0
 10
3.657399
 20
5.044886
 30
0.0
 10
3.597428
 20
5.063189
 30
0.0
 10
3.593954
 20
5.069581
 30
0.0
 10
3.592246
 20
5.080827
 30
0.0
 10
3.594947
 20
5.101441
 30
0.0
 10
3.595060
 20
5.123104
 30
0.0
 10
3.592743
 20
5.145152
 30
0.0
 10
3.592080
 20
5.150720
 30
0.0
 10
3.543684
 20
5.163397
 30
0.0
 10
3.540377
 20
5.158932
 30
0.0
 10
3.527533
 20
5.140853
 30
0.0
 10
3.516452
 20
5.122277
 30
0.0
 10
3.508737
 20
5.102875
 30
0.0
 10
3.501735
 20
5.093945
 30
0.0
 10
3.495506
 20
5.090087
 30
0.0
 10
3.434323
 20
5.103591
 30
0.0
 10
3.430352
 20
5.109710
 30
0.0
 10
3.427708
 20
5.120790
 30
0.0
 10
3.428865
 20
5.141624
 30
0.0
 10
3.426660
 20
5.163123
 30
0.0
 10
3.422582
 20
5.184951
 30
0.0
 10
3.421479
 20
5.190409
 30
0.0
 10
3.372310
 20
5.199228
 30
0.0
 10
3.369332
 20
5.194487
 30
0.0
 10
3.357923
 20
5.175414
 30
0.0
 10
3.348333
 20
5.156068
 30
0.0
 10
3.342158
 20
5.136168
 30
0.0
 10
3.335876
 20
5.126689
 30
0.0
 10
3.329977
 20
5.122388
 30
0.0
 10
3.267911
 20
5.131097
 30
0.0
 10
3.263499
 20
5.136775
 30
0.0
 10
3.260028
 20
5.147632
 30
0.0
 10
3.260141
 20
5.168525
 30
0.0
 10
3.256282
 20
5.189745
 30
0.0
 10
3.250495
 20
5.211189
 30
0.0
 10
3.248951
 20
5.216590
 30
0.0
 10
3.199231
 20
5.221552
 30
0.0
 10
3.196641
 20
5.216534
 30
0.0
 10
3.186774
 20
5.196747
 30
0.0
 10
3.178725
 20
5.176628
 30
0.0
 10
3.174150
 20
5.156288
 30
0.0
 10
3.168585
 20
5.146365
 30
0.0
 10
3.163126
 20
5.141624
 30
0.0
 10
3.100564
 20
5.145375
 30
0.0
 10
3.095659
 20
5.150720
 30
0.0
 10
3.091358
 20
5.161303
 30
0.0
 10
3.089207
 20
5.182030
 30
0.0
 10
3.083695
 20
5.202920
 30
0.0
 10
3.076256
 20
5.223866
 30
0.0
 10
3.074272
 20
5.229048
 30
0.0
 10
3.024276
 20
5.230151
 30
0.0
 10
3.022125
 20
5.224970
 30
0.0
 10
3.013857
 20
5.204410
 30
0.0
 10
3.007408
 20
5.183737
 30
0.0
 10
3.004376
 20
5.163067
 30
0.0
 10
2.999691
 20
5.152760
 30
0.0
 10
2.994564
 20
5.147579
 30
0.0
 10
2.931891
 20
5.146532
 30
0.0
 10
2.926599
 20
5.151547
 30
0.0
 10
2.921474
 20
5.161690
 30
0.0
 10
2.917726
 20
5.182196
 30
0.0
 10
2.910560
 20
5.202589
 30
0.0
 10
2.901521
 20
5.222876
 30
0.0
 10
2.899151
 20
5.227891
 30
0.0
 10
2.849265
 20
5.225023
 30
0.0
 10
2.849265
 20
5.224803
 30
0.0
 10
2.847502
 20
5.219511
 30
0.0
 10
2.840833
 20
5.198345
 30
0.0
 10
2.836091
 20
5.177235
 30
0.0
 10
2.834714
 20
5.156452
 30
0.0
 10
2.830799
 20
5.145758
 30
0.0
 10
2.826114
 20
5.140193
 30
0.0
 10
2.763715
 20
5.134128
 30
0.0
 10
2.758039
 20
5.138703
 30
0.0
 10
2.752141
 20
5.148349
 30
0.0
 10
2.746739
 20
5.168579
 30
0.0
 10
2.738030
 20
5.188368
 30
0.0
 10
2.727447
 20
5.207828
 30
0.0
 10
2.724690
 20
5.212732
 30
0.0
 10
2.675190
 20
5.205897
 30
0.0
 10
2.673813
 20
5.200495
 30
0.0
 10
2.668852
 20
5.178832
 30
0.0
 10
2.665764
 20
5.157502
 30
0.0
 10
2.665649
 20
5.136609
 30
0.0
 10
2.662564
 20
5.125639
 30
0.0
 10
2.658263
 20
5.119743
 30
0.0
 10
2.596583
 20
5.108827
 30
0.0
 10
2.590575
 20
5.112908
 30
0.0
 10
2.583960
 20
5.122111
 30
0.0
 10
2.577014
 20
5.141847
 30
0.0
 10
2.566707
 20
5.160863
 30
0.0
 10
2.554633
 20
5.179382
 30
0.0
 10
2.551549
 20
5.184070
 30
0.0
 10
2.502654
 20
5.173430
 30
0.0
 10
2.501771
 20
5.167918
 30
0.0
 10
2.498520
 20
5.145925
 30
0.0
 10
2.497086
 20
5.124428
 30
0.0
 10
2.499013
 20
5.103592
 30
0.0
 10
2.496810
 20
5.092401
 30
0.0
 10
2.493061
 20
5.086229
 30
0.0
 10
2.432372
 20
5.070518
 30
0.0
 10
2.426034
 20
5.074102
 30
0.0
 10
2.418702
 20
5.082755
 30
0.0
 10
2.410269
 20
5.101828
 30
0.0
 10
2.398582
 20
5.119963
 30
0.0
 10
2.385024
 20
5.137602
 30
0.0
 10
2.381550
 20
5.141957
 30
0.0
 10
2.333705
 20
5.127513
 30
0.0
 10
2.333206
 20
5.121947
 30
0.0
 10
2.331666
 20
5.099844
 30
0.0
 10
2.331550
 20
5.078180
 30
0.0
 10
2.335134
 20
5.057674
 30
0.0
 10
2.333811
 20
5.046374
 30
0.0
 10
2.330560
 20
5.039815
 30
0.0
 10
2.271304
 20
5.019365
 30
0.0
 10
2.264745
 20
5.022506
 30
0.0
 10
2.256753
 20
5.030555
 30
0.0
 10
2.246830
 20
5.048911
 30
0.0
 10
2.233655
 20
5.066110
 30
0.0
 10
2.218828
 20
5.082591
 30
0.0
 10
2.215023
 20
5.086670
 30
0.0
 10
2.214304
 20
5.086393
 30
0.0
 10
2.192697
 20
5.143774
 30
0.0
 10
2.153011
 20
5.347835
 30
0.0
 10
2.153290
 20
5.347945
 30
0.0
 10
2.153290
 20
5.348165
 30
0.0
 10
2.146400
 20
5.409825
 30
0.0
 10
2.149424
 20
5.470601
 30
0.0
 10
2.161866
 20
5.529454
 30
0.0
 10
2.183233
 20
5.585344
 30
0.0
 10
2.213032
 20
5.637233
 30
0.0
 10
2.250767
 20
5.684080
 30
0.0
 10
2.295944
 20
5.724846
 30
0.0
 10
2.348070
 20
5.758492
 30
0.0
 10
2.348070
 20
5.758655
 30
0.0
 10
2.400485
 20
5.781856
 30
0.0
 10
2.455778
 20
5.796967
 30
0.0
 10
2.473086
 20
5.801596
 30
0.0
 10
2.502410
 20
5.805620
 30
0.0
 10
2.504670
 20
5.806117
 30
0.0
 10
2.522032
 20
5.810415
 30
0.0
 10
2.639112
 20
5.824416
 30
0.0
 10
2.786232
 20
5.842002
 30
0.0
 10
2.877844
 20
5.846797
 30
0.0
 10
2.950107
 20
5.850598
 30
0.0
 10
2.950107
 20
5.850655
 30
0.0
 10
2.968793
 20
5.849994
 30
0.0
 10
2.999883
 20
5.851095
 30
0.0
 10
2.999865
 20
5.851097
 30
0.0
  0
LWPOLYLINE
  5
102
100
AcDbEntity
  8
Layer_1
 62
7
100
AcDbPolyline
 90
68
 70
0
 10
3.089326
 20
5.045109
 30
0.0
 10
3.089411
 20
5.045109
 30
0.0
 10
3.283851
 20
5.027649
 30
0.0
 10
3.472645
 20
4.992543
 30
0.0
 10
3.654942
 20
4.940630
 30
0.0
 10
3.829891
 20
4.872747
 30
0.0
 10
3.996641
 20
4.789733
 30
0.0
 10
4.154342
 20
4.692425
 30
0.0
 10
4.302142
 20
4.581662
 30
0.0
 10
4.439191
 20
4.458281
 30
0.0
 10
4.564639
 20
4.323121
 30
0.0
 10
4.677633
 20
4.177019
 30
0.0
 10
4.777324
 20
4.020814
 30
0.0
 10
4.862860
 20
3.855343
 30
0.0
 10
4.933391
 20
3.681445
 30
0.0
 10
4.988066
 20
3.499958
 30
0.0
 10
5.026035
 20
3.311718
 30
0.0
 10
5.046445
 20
3.117566
 30
0.0
 10
5.047940
 20
2.907989
 30
0.0
 10
5.028667
 20
2.703271
 30
0.0
 10
4.989595
 20
2.504499
 30
0.0
 10
4.931692
 20
2.312759
 30
0.0
 10
4.855927
 20
2.129139
 30
0.0
 10
4.763267
 20
1.954724
 30
0.0
 10
4.654680
 20
1.790601
 30
0.0
 10
4.531135
 20
1.637856
 30
0.0
 10
4.393600
 20
1.497577
 30
0.0
 10
4.243042
 20
1.370850
 30
0.0
 10
4.080431
 20
1.258761
 30
0.0
 10
3.906733
 20
1.162397
 30
0.0
 10
3.722918
 20
1.082845
 30
0.0
 10
3.529952
 20
1.021190
 30
0.0
 10
3.328805
 20
0.978520
 30
0.0
 10
3.120445
 20
0.955921
 30
0.0
 10
2.910867
 20
0.954420
 30
0.0
 10
2.706149
 20
0.973687
 30
0.0
 10
2.507375
 20
1.012754
 30
0.0
 10
2.315634
 20
1.070651
 30
0.0
 10
2.132011
 20
1.146411
 30
0.0
 10
1.957593
 20
1.239067
 30
0.0
 10
1.793466
 20
1.347649
 30
0.0
 10
1.640718
 20
1.471190
 30
0.0
 10
1.500435
 20
1.608722
 30
0.0
 10
1.373704
 20
1.759276
 30
0.0
 10
1.261610
 20
1.921885
 30
0.0
 10
1.165241
 20
2.095581
 30
0.0
 10
1.085684
 20
2.279394
 30
0.0
 10
1.024024
 20
2.472358
 30
0.0
 10
0.981348
 20
2.673505
 30
0.0
 10
0.958744
 20
2.881865
 30
0.0
 10
0.957095
 20
3.084452
 30
0.0
 10
0.975276
 20
3.284749
 30
0.0
 10
1.012809
 20
3.481385
 30
0.0
 10
1.069216
 20
3.672987
 30
0.0
 10
1.144021
 20
3.858183
 30
0.0
 10
1.236743
 20
4.035600
 30
0.0
 10
1.346907
 20
4.203867
 30
0.0
 10
1.474033
 20
4.361610
 30
0.0
 10
1.616120
 20
4.506025
 30
0.0
 10
1.770609
 20
4.634799
 30
0.0
 10
1.936193
 20
4.747299
 30
0.0
 10
2.111563
 20
4.842894
 30
0.0
 10
2.295412
 20
4.920950
 30
0.0
 10
2.486430
 20
4.980836
 30
0.0
 10
2.683310
 20
5.021919
 30
0.0
 10
2.884744
 20
5.043566
 30
0.0
 10
3.089355
 20
5.045109
 30
0.0
 10
3.089326
 20
5.045109
 30
0.0
  0
LWPOLYLINE
  5
103
100
AcDbEntity
  8
Layer_1
 62
7
100
AcDbPolyline
 90
197
 70
0
 10
1.014333
 20
4.832672
 30
0.0
 10
1.014333
 20
4.832562
 30
0.0
 10
1.071548
 20
4.826611
 30
0.0
 10
1.126923
 20
4.812256
 30
0.0
 10
1.179540
 20
4.789808
 30
0.0
 10
1.228481
 20
4.759579
 30
0.0
 10
1.228763
 20
4.759416
 30
0.0
 10
1.404492
 20
4.631699
 30
0.0
 10
1.441147
 20
4.594217
 30
0.0
 10
1.439053
 20
4.592233
 30
0.0
 10
1.441147
 20
4.587051
 30
0.0
 10
1.449802
 20
4.566599
 30
0.0
 10
1.459889
 20
4.547473
 30
0.0
 10
1.472346
 20
4.530771
 30
0.0
 10
1.476314
 20
4.520077
 30
0.0
 10
1.476201
 20
4.512802
 30
0.0
 10
1.432710
 20
4.467711
 30
0.0
 10
1.425435
 20
4.467821
 30
0.0
 10
1.414631
 20
4.471405
 30
0.0
 10
1.397486
 20
4.483256
 30
0.0
 10
1.378030
 20
4.492572
 30
0.0
 10
1.357249
 20
4.500511
 30
0.0
 10
1.352012
 20
4.502438
 30
0.0
 10
1.318775
 20
4.465120
 30
0.0
 10
1.321309
 20
4.460161
 30
0.0
 10
1.331562
 20
4.440482
 30
0.0
 10
1.343028
 20
4.422126
 30
0.0
 10
1.356807
 20
4.406471
 30
0.0
 10
1.361604
 20
4.396165
 30
0.0
 10
1.362104
 20
4.388889
 30
0.0
 10
1.322307
 20
4.340491
 30
0.0
 10
1.315031
 20
4.339831
 30
0.0
 10
1.304061
 20
4.342531
 30
0.0
 10
1.285982
 20
4.353005
 30
0.0
 10
1.265806
 20
4.360777
 30
0.0
 10
1.244476
 20
4.367059
 30
0.0
 10
1.239128
 20
4.368550
 30
0.0
 10
1.208922
 20
4.328751
 30
0.0
 10
1.211843
 20
4.323956
 30
0.0
 10
1.223583
 20
4.305103
 30
0.0
 10
1.236483
 20
4.287795
 30
0.0
 10
1.251422
 20
4.273243
 30
0.0
 10
1.256987
 20
4.263377
 30
0.0
 10
1.258090
 20
4.256155
 30
0.0
 10
1.222262
 20
4.204782
 30
0.0
 10
1.215096
 20
4.203461
 30
0.0
 10
1.203906
 20
4.205278
 30
0.0
 10
1.185054
 20
4.214318
 30
0.0
 10
1.164328
 20
4.220493
 30
0.0
 10
1.142611
 20
4.225121
 30
0.0
 10
1.137152
 20
4.226171
 30
0.0
 10
1.110144
 20
4.184112
 30
0.0
 10
1.113395
 20
4.179537
 30
0.0
 10
1.126625
 20
4.161732
 30
0.0
 10
1.140847
 20
4.145473
 30
0.0
 10
1.156888
 20
4.132078
 30
0.0
 10
1.163227
 20
4.122706
 30
0.0
 10
1.164991
 20
4.115597
 30
0.0
 10
1.133240
 20
4.061577
 30
0.0
 10
1.126185
 20
4.059649
 30
0.0
 10
1.114885
 20
4.060640
 30
0.0
 10
1.095426
 20
4.068136
 30
0.0
 10
1.074259
 20
4.072657
 30
0.0
 10
1.052266
 20
4.075524
 30
0.0
 10
1.046701
 20
4.076238
 30
0.0
 10
1.023052
 20
4.032144
 30
0.0
 10
1.026691
 20
4.027899
 30
0.0
 10
1.041242
 20
4.011087
 30
0.0
 10
1.056730
 20
3.996039
 30
0.0
 10
1.073762
 20
3.983966
 30
0.0
 10
1.080818
 20
3.975093
 30
0.0
 10
1.083135
 20
3.968147
 30
0.0
 10
1.055739
 20
3.911813
 30
0.0
 10
1.048848
 20
3.909386
 30
0.0
 10
1.037494
 20
3.909499
 30
0.0
 10
1.017484
 20
3.915453
 30
0.0
 10
0.996041
 20
3.918264
 30
0.0
 10
0.973883
 20
3.919478
 30
0.0
 10
0.968315
 20
3.919647
 30
0.0
 10
0.948252
 20
3.873842
 30
0.0
 10
0.952111
 20
3.869928
 30
0.0
 10
0.967985
 20
3.854329
 30
0.0
 10
0.984631
 20
3.840549
 30
0.0
 10
1.002546
 20
3.829855
 30
0.0
 10
1.010318
 20
3.821533
 30
0.0
 10
1.013075
 20
3.814807
 30
0.0
 10
0.990198
 20
3.756489
 30
0.0
 10
0.983529
 20
3.753511
 30
0.0
 10
0.972229
 20
3.752684
 30
0.0
 10
0.951832
 20
3.757039
 30
0.0
 10
0.930225
 20
3.758196
 30
0.0
 10
0.908012
 20
3.758309
 30
0.0
 10
0.902390
 20
3.758309
 30
0.0
 10
0.886018
 20
3.711127
 30
0.0
 10
0.890207
 20
3.707433
 30
0.0
 10
0.907241
 20
3.693212
 30
0.0
 10
0.924880
 20
3.680698
 30
0.0
 10
0.943567
 20
3.671438
 30
0.0
 10
0.951943
 20
3.663832
 30
0.0
 10
0.955307
 20
3.657327
 30
0.0
 10
0.937061
 20
3.597355
 30
0.0
 10
0.930666
 20
3.593883
 30
0.0
 10
0.919422
 20
3.592173
 30
0.0
 10
0.898752
 20
3.594931
 30
0.0
 10
0.877089
 20
3.594987
 30
0.0
 10
0.855039
 20
3.592726
 30
0.0
 10
0.849527
 20
3.592066
 30
0.0
 10
0.836796
 20
3.543671
 30
0.0
 10
0.841314
 20
3.540363
 30
0.0
 10
0.859393
 20
3.527519
 30
0.0
 10
0.877970
 20
3.516439
 30
0.0
 10
0.897318
 20
3.508723
 30
0.0
 10
0.906248
 20
3.501667
 30
0.0
 10
0.910163
 20
3.495493
 30
0.0
 10
0.896602
 20
3.434253
 30
0.0
 10
0.890483
 20
3.430285
 30
0.0
 10
0.879460
 20
3.427748
 30
0.0
 10
0.858623
 20
3.428851
 30
0.0
 10
0.837126
 20
3.426591
 30
0.0
 10
0.815297
 20
3.422513
 30
0.0
 10
0.809841
 20
3.421466
 30
0.0
 10
0.800965
 20
3.372240
 30
0.0
 10
0.805761
 20
3.369319
 30
0.0
 10
0.824779
 20
3.357856
 30
0.0
 10
0.844125
 20
3.348263
 30
0.0
 10
0.864081
 20
3.342090
 30
0.0
 10
0.873504
 20
3.335805
 30
0.0
 10
0.877806
 20
3.329964
 30
0.0
 10
0.869207
 20
3.267897
 30
0.0
 10
0.863418
 20
3.263432
 30
0.0
 10
0.852614
 20
3.259958
 30
0.0
 10
0.831668
 20
3.260071
 30
0.0
 10
0.810447
 20
3.256159
 30
0.0
 10
0.789005
 20
3.250371
 30
0.0
 10
0.783657
 20
3.248827
 30
0.0
 10
0.778698
 20
3.199108
 30
0.0
 10
0.783657
 20
3.196517
 30
0.0
 10
0.803502
 20
3.186651
 30
0.0
 10
0.823565
 20
3.178658
 30
0.0
 10
0.843962
 20
3.174027
 30
0.0
 10
0.853882
 20
3.168516
 30
0.0
 10
0.858677
 20
3.162947
 30
0.0
 10
0.854875
 20
3.100441
 30
0.0
 10
0.849527
 20
3.095533
 30
0.0
 10
0.838944
 20
3.091235
 30
0.0
 10
0.818220
 20
3.089084
 30
0.0
 10
0.797327
 20
3.083518
 30
0.0
 10
0.776381
 20
3.076133
 30
0.0
 10
0.771199
 20
3.074146
 30
0.0
 10
0.770152
 20
3.024207
 30
0.0
 10
0.775281
 20
3.022056
 30
0.0
 10
0.795840
 20
3.013734
 30
0.0
 10
0.816510
 20
3.007339
 30
0.0
 10
0.837180
 20
3.004308
 30
0.0
 10
0.847433
 20
2.999569
 30
0.0
 10
0.852614
 20
2.994441
 30
0.0
 10
0.853718
 20
2.931768
 30
0.0
 10
0.848700
 20
2.926476
 30
0.0
 10
0.838560
 20
2.921405
 30
0.0
 10
0.818054
 20
2.917657
 30
0.0
 10
0.797604
 20
2.910438
 30
0.0
 10
0.777374
 20
2.901395
 30
0.0
 10
0.772303
 20
2.899081
 30
0.0
 10
0.772415
 20
2.897594
 30
0.0
 10
0.711946
 20
2.894783
 30
0.0
 10
0.504634
 20
2.920248
 30
0.0
 10
0.504634
 20
2.920361
 30
0.0
 10
0.504352
 20
2.920474
 30
0.0
 10
0.433448
 20
2.936055
 30
0.0
 10
0.368616
 20
2.963779
 30
0.0
 10
0.310950
 20
3.002243
 30
0.0
 10
0.261542
 20
3.050044
 30
0.0
 10
0.221488
 20
3.105777
 30
0.0
 10
0.191880
 20
3.168040
 30
0.0
 10
0.173814
 20
3.235429
 30
0.0
 10
0.168383
 20
3.306542
 30
0.0
 10
0.174335
 20
3.343640
 30
0.0
 10
0.174052
 20
3.355987
 30
0.0
 10
0.195109
 20
3.474332
 30
0.0
 10
0.219530
 20
3.611531
 30
0.0
 10
0.256682
 20
3.751979
 30
0.0
 10
0.294714
 20
3.886255
 30
0.0
 10
0.345866
 20
4.022627
 30
0.0
 10
0.397019
 20
4.152108
 30
0.0
 10
0.461346
 20
4.282413
 30
0.0
 10
0.525343
 20
4.406492
 30
0.0
 10
0.601961
 20
4.529027
 30
0.0
 10
0.691259
 20
4.666500
 30
0.0
 10
0.694733
 20
4.671405
 30
0.0
 10
0.695221
 20
4.672179
 30
0.0
 10
0.695221
 20
4.672235
 30
0.0
 10
0.724714
 20
4.712201
 30
0.0
 10
0.785861
 20
4.764851
 30
0.0
 10
0.856130
 20
4.803286
 30
0.0
 10
0.933093
 20
4.826302
 30
0.0
 10
1.014322
 20
4.832696
 30
0.0
 10
1.014333
 20
4.832672
 30
0.0
  0
LWPOLYLINE
  5
104
100
AcDbEntity
  8
Layer_1
 62
7
100
AcDbPolyline
 90
191
 70
0
 10
5.149496
 20
4.578342
 30
0.0
 10
5.247716
 20
4.567348
 30
0.0
 10
5.339720
 20
4.531732
 30
0.0
 10
5.420438
 20
4.472980
 30
0.0
 10
5.484799
 20
4.392581
 30
0.0
 10
5.498799
 20
4.364415
 30
0.0
 10
5.508722
 20
4.349036
 30
0.0
 10
5.558385
 20
4.244747
 30
0.0
 10
5.620728
 20
4.113886
 30
0.0
 10
5.670337
 20
3.982865
 30
0.0
 10
5.719232
 20
3.846548
 30
0.0
 10
5.755336
 20
3.711996
 30
0.0
 10
5.790614
 20
3.570445
 30
0.0
 10
5.812882
 20
3.434295
 30
0.0
 10
5.834378
 20
3.286459
 30
0.0
 10
5.842370
 20
3.171419
 30
0.0
 10
5.849206
 20
3.073412
 30
0.0
 10
5.848659
 20
3.051421
 30
0.0
 10
5.850092
 20
3.023693
 30
0.0
 10
5.849099
 20
3.000046
 30
0.0
 10
5.841324
 20
2.922905
 30
0.0
 10
5.819022
 20
2.851055
 30
0.0
 10
5.783732
 20
2.786037
 30
0.0
 10
5.736993
 20
2.729388
 30
0.0
 10
5.680344
 20
2.682649
 30
0.0
 10
5.615326
 20
2.647359
 30
0.0
 10
5.543476
 20
2.625056
 30
0.0
 10
5.466336
 20
2.617282
 30
0.0
 10
5.466053
 20
2.617282
 30
0.0
 10
5.253393
 20
2.617282
 30
0.0
 10
5.198823
 20
2.626544
 30
0.0
 10
5.199049
 20
2.627701
 30
0.0
 10
5.194253
 20
2.630622
 30
0.0
 10
5.175237
 20
2.642033
 30
0.0
 10
5.155835
 20
2.651622
 30
0.0
 10
5.135878
 20
2.657798
 30
0.0
 10
5.126456
 20
2.664080
 30
0.0
 10
5.122154
 20
2.669978
 30
0.0
 10
5.130807
 20
2.732045
 30
0.0
 10
5.136595
 20
2.736509
 30
0.0
 10
5.147399
 20
2.739927
 30
0.0
 10
5.168292
 20
2.739814
 30
0.0
 10
5.189512
 20
2.743729
 30
0.0
 10
5.210955
 20
2.749460
 30
0.0
 10
5.216357
 20
2.751004
 30
0.0
 10
5.221319
 20
2.800723
 30
0.0
 10
5.216357
 20
2.803314
 30
0.0
 10
5.196457
 20
2.813181
 30
0.0
 10
5.176395
 20
2.821230
 30
0.0
 10
5.156054
 20
2.825861
 30
0.0
 10
5.146132
 20
2.831373
 30
0.0
 10
5.141391
 20
2.836828
 30
0.0
 10
5.145141
 20
2.899391
 30
0.0
 10
5.150543
 20
2.904299
 30
0.0
 10
5.161016
 20
2.908597
 30
0.0
 10
5.181797
 20
2.910748
 30
0.0
 10
5.202687
 20
2.916259
 30
0.0
 10
5.223580
 20
2.923702
 30
0.0
 10
5.228814
 20
2.925686
 30
0.0
 10
5.229862
 20
2.975681
 30
0.0
 10
5.224736
 20
2.977829
 30
0.0
 10
5.204176
 20
2.986098
 30
0.0
 10
5.183504
 20
2.992547
 30
0.0
 10
5.162833
 20
2.995578
 30
0.0
 10
5.152527
 20
3.000319
 30
0.0
 10
5.147345
 20
3.005391
 30
0.0
 10
5.146298
 20
3.068064
 30
0.0
 10
5.151313
 20
3.073356
 30
0.0
 10
5.161456
 20
3.078481
 30
0.0
 10
5.181959
 20
3.082229
 30
0.0
 10
5.202356
 20
3.089451
 30
0.0
 10
5.222642
 20
3.098437
 30
0.0
 10
5.227711
 20
3.100807
 30
0.0
 10
5.224846
 20
3.150747
 30
0.0
 10
5.219498
 20
3.152454
 30
0.0
 10
5.198331
 20
3.159126
 30
0.0
 10
5.177221
 20
3.163921
 30
0.0
 10
5.156438
 20
3.165298
 30
0.0
 10
5.145801
 20
3.169212
 30
0.0
 10
5.140179
 20
3.173897
 30
0.0
 10
5.134171
 20
3.236240
 30
0.0
 10
5.138689
 20
3.241972
 30
0.0
 10
5.148446
 20
3.247814
 30
0.0
 10
5.168622
 20
3.253216
 30
0.0
 10
5.188355
 20
3.261925
 30
0.0
 10
5.207868
 20
3.272565
 30
0.0
 10
5.212719
 20
3.275319
 30
0.0
 10
5.205940
 20
3.324818
 30
0.0
 10
5.200539
 20
3.326142
 30
0.0
 10
5.178875
 20
3.331104
 30
0.0
 10
5.157488
 20
3.334245
 30
0.0
 10
5.136595
 20
3.334301
 30
0.0
 10
5.125682
 20
3.337389
 30
0.0
 10
5.119784
 20
3.341633
 30
0.0
 10
5.108816
 20
3.403313
 30
0.0
 10
5.112894
 20
3.409375
 30
0.0
 10
5.122154
 20
3.415990
 30
0.0
 10
5.141833
 20
3.422882
 30
0.0
 10
5.160850
 20
3.433189
 30
0.0
 10
5.179481
 20
3.445260
 30
0.0
 10
5.184056
 20
3.448404
 30
0.0
 10
5.173417
 20
3.497239
 30
0.0
 10
5.167905
 20
3.498176
 30
0.0
 10
5.145968
 20
3.501430
 30
0.0
 10
5.124414
 20
3.502861
 30
0.0
 10
5.103634
 20
3.500877
 30
0.0
 10
5.092498
 20
3.503084
 30
0.0
 10
5.086269
 20
3.506885
 30
0.0
 10
5.070505
 20
3.567574
 30
0.0
 10
5.074088
 20
3.573860
 30
0.0
 10
5.082741
 20
3.581189
 30
0.0
 10
5.101870
 20
3.589624
 30
0.0
 10
5.120003
 20
3.601365
 30
0.0
 10
5.137642
 20
3.614923
 30
0.0
 10
5.141997
 20
3.618397
 30
0.0
 10
5.127612
 20
3.666242
 30
0.0
 10
5.121987
 20
3.666682
 30
0.0
 10
5.099830
 20
3.668226
 30
0.0
 10
5.078223
 20
3.668339
 30
0.0
 10
5.057661
 20
3.664811
 30
0.0
 10
5.046363
 20
3.666078
 30
0.0
 10
5.039858
 20
3.669332
 30
0.0
 10
5.019408
 20
3.728588
 30
0.0
 10
5.022495
 20
3.735203
 30
0.0
 10
5.030598
 20
3.743196
 30
0.0
 10
5.048953
 20
3.753116
 30
0.0
 10
5.066150
 20
3.766290
 30
0.0
 10
5.082631
 20
3.781064
 30
0.0
 10
5.086656
 20
3.784866
 30
0.0
 10
5.068520
 20
3.831500
 30
0.0
 10
5.062955
 20
3.831613
 30
0.0
 10
5.040739
 20
3.831726
 30
0.0
 10
5.019241
 20
3.829742
 30
0.0
 10
4.998959
 20
3.824670
 30
0.0
 10
4.987602
 20
3.825111
 30
0.0
 10
4.980877
 20
3.827812
 30
0.0
 10
4.955851
 20
3.885303
 30
0.0
 10
4.958389
 20
3.892085
 30
0.0
 10
4.965884
 20
3.900628
 30
0.0
 10
4.983357
 20
3.911981
 30
0.0
 10
4.999454
 20
3.926426
 30
0.0
 10
5.014777
 20
3.942521
 30
0.0
 10
5.018524
 20
3.946655
 30
0.0
 10
4.996751
 20
3.991690
 30
0.0
 10
4.991185
 20
3.991690
 30
0.0
 10
4.969082
 20
3.989649
 30
0.0
 10
4.947749
 20
3.986011
 30
0.0
 10
4.928016
 20
3.979342
 30
0.0
 10
4.916606
 20
3.979455
 30
0.0
 10
4.909716
 20
3.981603
 30
0.0
 10
4.880225
 20
4.036947
 30
0.0
 10
4.882265
 20
4.043946
 30
0.0
 10
4.888990
 20
4.053042
 30
0.0
 10
4.905582
 20
4.065776
 30
0.0
 10
4.920464
 20
4.081374
 30
0.0
 10
4.934412
 20
4.098626
 30
0.0
 10
4.937883
 20
4.103037
 30
0.0
 10
4.912691
 20
4.146198
 30
0.0
 10
4.907126
 20
4.145424
 30
0.0
 10
4.885242
 20
4.141677
 30
0.0
 10
4.864296
 20
4.136385
 30
0.0
 10
4.845114
 20
4.128172
 30
0.0
 10
4.833813
 20
4.126795
 30
0.0
 10
4.826757
 20
4.128449
 30
0.0
 10
4.793024
 20
4.181255
 30
0.0
 10
4.794511
 20
4.188421
 30
0.0
 10
4.800521
 20
4.198067
 30
0.0
 10
4.816065
 20
4.212012
 30
0.0
 10
4.829679
 20
4.228714
 30
0.0
 10
4.842247
 20
4.247069
 30
0.0
 10
4.845334
 20
4.251754
 30
0.0
 10
4.816782
 20
4.292820
 30
0.0
 10
4.811323
 20
4.291497
 30
0.0
 10
4.789773
 20
4.286095
 30
0.0
 10
4.769376
 20
4.279150
 30
0.0
 10
4.750801
 20
4.269503
 30
0.0
 10
4.739721
 20
4.267243
 30
0.0
 10
4.732501
 20
4.268290
 30
0.0
 10
4.694743
 20
4.318285
 30
0.0
 10
4.695683
 20
4.325561
 30
0.0
 10
4.700919
 20
4.335650
 30
0.0
 10
4.715306
 20
4.350752
 30
0.0
 10
4.727597
 20
4.368558
 30
0.0
 10
4.738677
 20
4.387794
 30
0.0
 10
4.740771
 20
4.391542
 30
0.0
 10
4.785365
 20
4.427206
 30
0.0
 10
4.971237
 20
4.530229
 30
0.0
 10
4.971519
 20
4.530392
 30
0.0
 10
5.059070
 20
4.565712
 30
0.0
 10
5.149509
 20
4.578350
 30
0.0
 10
5.149496
 20
4.578342
 30
0.0
  0
LWPOLYLINE
  5
105
100
AcDbEntity
  8
Layer_1
 62
7
100
AcDbPolyline
 90
194
 70
0
 10
1.071988
 20
2.020867
 30
0.0
 10
1.083345
 20
2.020811
 30
0.0
 10
1.090291
 20
2.018550
 30
0.0
 10
1.119724
 20
1.963263
 30
0.0
 10
1.117740
 20
1.956264
 30
0.0
 10
1.111017
 20
1.947111
 30
0.0
 10
1.094426
 20
1.934490
 30
0.0
 10
1.079488
 20
1.918779
 30
0.0
 10
1.065540
 20
1.901527
 30
0.0
 10
1.062122
 20
1.897172
 30
0.0
 10
1.087314
 20
1.853958
 30
0.0
 10
1.092825
 20
1.854841
 30
0.0
 10
1.114709
 20
1.858478
 30
0.0
 10
1.135711
 20
1.863827
 30
0.0
 10
1.154838
 20
1.872093
 30
0.0
 10
1.166139
 20
1.873416
 30
0.0
 10
1.173248
 20
1.871709
 30
0.0
 10
1.206927
 20
1.818902
 30
0.0
 10
1.205440
 20
1.811790
 30
0.0
 10
1.199484
 20
1.802143
 30
0.0
 10
1.183940
 20
1.788199
 30
0.0
 10
1.170272
 20
1.771387
 30
0.0
 10
1.157758
 20
1.753142
 30
0.0
 10
1.154671
 20
1.748457
 30
0.0
 10
1.183170
 20
1.707447
 30
0.0
 10
1.188628
 20
1.708658
 30
0.0
 10
1.210178
 20
1.714060
 30
0.0
 10
1.230628
 20
1.721005
 30
0.0
 10
1.249150
 20
1.730762
 30
0.0
 10
1.260230
 20
1.732969
 30
0.0
 10
1.267450
 20
1.731809
 30
0.0
 10
1.305208
 20
1.681816
 30
0.0
 10
1.304268
 20
1.674648
 30
0.0
 10
1.299086
 20
1.664562
 30
0.0
 10
1.284645
 20
1.649459
 30
0.0
 10
1.272408
 20
1.631601
 30
0.0
 10
1.261274
 20
1.612418
 30
0.0
 10
1.258573
 20
1.607510
 30
0.0
 10
1.290266
 20
1.568815
 30
0.0
 10
1.295558
 20
1.570578
 30
0.0
 10
1.316561
 20
1.577580
 30
0.0
 10
1.336458
 20
1.586123
 30
0.0
 10
1.354153
 20
1.597260
 30
0.0
 10
1.365067
 20
1.600344
 30
0.0
 10
1.372343
 20
1.599740
 30
0.0
 10
1.413849
 20
1.552832
 30
0.0
 10
1.413466
 20
1.545557
 30
0.0
 10
1.409057
 20
1.535029
 30
0.0
 10
1.395826
 20
1.518878
 30
0.0
 10
1.385023
 20
1.500192
 30
0.0
 10
1.375543
 20
1.480182
 30
0.0
 10
1.373173
 20
1.475110
 30
0.0
 10
1.407791
 20
1.439006
 30
0.0
 10
1.412915
 20
1.441046
 30
0.0
 10
1.433365
 20
1.449813
 30
0.0
 10
1.452494
 20
1.459842
 30
0.0
 10
1.469250
 20
1.472300
 30
0.0
 10
1.479890
 20
1.476268
 30
0.0
 10
1.487166
 20
1.476155
 30
0.0
 10
1.532309
 20
1.432665
 30
0.0
 10
1.532196
 20
1.425390
 30
0.0
 10
1.528612
 20
1.414586
 30
0.0
 10
1.516761
 20
1.397444
 30
0.0
 10
1.507445
 20
1.377931
 30
0.0
 10
1.499509
 20
1.357204
 30
0.0
 10
1.497579
 20
1.351969
 30
0.0
 10
1.534898
 20
1.318730
 30
0.0
 10
1.539913
 20
1.321210
 30
0.0
 10
1.559591
 20
1.331517
 30
0.0
 10
1.577838
 20
1.343037
 30
0.0
 10
1.593546
 20
1.356764
 30
0.0
 10
1.603852
 20
1.361559
 30
0.0
 10
1.611131
 20
1.362059
 30
0.0
 10
1.659527
 20
1.322207
 30
0.0
 10
1.660190
 20
1.314984
 30
0.0
 10
1.657489
 20
1.303961
 30
0.0
 10
1.647016
 20
1.285935
 30
0.0
 10
1.639244
 20
1.265705
 30
0.0
 10
1.632961
 20
1.244429
 30
0.0
 10
1.631473
 20
1.239083
 30
0.0
 10
1.671270
 20
1.208821
 30
0.0
 10
1.676065
 20
1.211742
 30
0.0
 10
1.694864
 20
1.223539
 30
0.0
 10
1.712170
 20
1.236436
 30
0.0
 10
1.726777
 20
1.251375
 30
0.0
 10
1.736644
 20
1.256943
 30
0.0
 10
1.743866
 20
1.258043
 30
0.0
 10
1.795239
 20
1.222215
 30
0.0
 10
1.796562
 20
1.215049
 30
0.0
 10
1.794742
 20
1.203806
 30
0.0
 10
1.785702
 20
1.185007
 30
0.0
 10
1.779530
 20
1.164283
 30
0.0
 10
1.774953
 20
1.142564
 30
0.0
 10
1.773852
 20
1.137052
 30
0.0
 10
1.815908
 20
1.110096
 30
0.0
 10
1.820483
 20
1.113351
 30
0.0
 10
1.838289
 20
1.126579
 30
0.0
 10
1.854550
 20
1.140800
 30
0.0
 10
1.867944
 20
1.156842
 30
0.0
 10
1.877315
 20
1.163180
 30
0.0
 10
1.884427
 20
1.164944
 30
0.0
 10
1.938443
 20
1.133194
 30
0.0
 10
1.940374
 20
1.126138
 30
0.0
 10
1.939434
 20
1.114838
 30
0.0
 10
1.931882
 20
1.095325
 30
0.0
 10
1.927417
 20
1.074215
 30
0.0
 10
1.924497
 20
1.052222
 30
0.0
 10
1.923834
 20
1.046653
 30
0.0
 10
1.967931
 20
1.023006
 30
0.0
 10
1.972176
 20
1.026644
 30
0.0
 10
1.988935
 20
1.041195
 30
0.0
 10
2.003982
 20
1.056686
 30
0.0
 10
2.016053
 20
1.073718
 30
0.0
 10
2.024929
 20
1.080828
 30
0.0
 10
2.031874
 20
1.083088
 30
0.0
 10
2.088209
 20
1.055693
 30
0.0
 10
2.090687
 20
1.048803
 30
0.0
 10
2.090571
 20
1.037446
 30
0.0
 10
2.084675
 20
1.017437
 30
0.0
 10
2.081809
 20
0.995996
 30
0.0
 10
2.080595
 20
0.973837
 30
0.0
 10
2.080375
 20
0.968269
 30
0.0
 10
2.126181
 20
0.948151
 30
0.0
 10
2.130150
 20
0.952063
 30
0.0
 10
2.145694
 20
0.967994
 30
0.0
 10
2.159529
 20
0.984530
 30
0.0
 10
2.170223
 20
1.002499
 30
0.0
 10
2.178546
 20
1.010218
 30
0.0
 10
2.185217
 20
1.013029
 30
0.0
 10
2.243589
 20
0.990152
 30
0.0
 10
2.246567
 20
0.983483
 30
0.0
 10
2.247392
 20
0.972130
 30
0.0
 10
2.242981
 20
0.951789
 30
0.0
 10
2.241824
 20
0.930180
 30
0.0
 10
2.241728
 20
0.907966
 30
0.0
 10
2.241624
 20
0.902401
 30
0.0
 10
2.288806
 20
0.885973
 30
0.0
 10
2.292500
 20
0.890164
 30
0.0
 10
2.306722
 20
0.907196
 30
0.0
 10
2.319235
 20
0.924834
 30
0.0
 10
2.328495
 20
0.943574
 30
0.0
 10
2.336158
 20
0.951900
 30
0.0
 10
2.342606
 20
0.955207
 30
0.0
 10
2.402578
 20
0.936962
 30
0.0
 10
2.406049
 20
0.930623
 30
0.0
 10
2.407760
 20
0.919377
 30
0.0
 10
2.405002
 20
0.898653
 30
0.0
 10
2.404906
 20
0.877043
 30
0.0
 10
2.407220
 20
0.854939
 30
0.0
 10
2.407824
 20
0.849428
 30
0.0
 10
2.408925
 20
0.849145
 30
0.0
 10
2.394484
 20
0.796671
 30
0.0
 10
2.303975
 20
0.602534
 30
0.0
 10
2.303695
 20
0.602421
 30
0.0
 10
2.303695
 20
0.602139
 30
0.0
 10
2.267362
 20
0.540070
 30
0.0
 10
2.221526
 20
0.487360
 30
0.0
 10
2.167811
 20
0.444595
 30
0.0
 10
2.107842
 20
0.412358
 30
0.0
 10
2.043244
 20
0.391235
 30
0.0
 10
1.975641
 20
0.381810
 30
0.0
 10
1.906658
 20
0.384669
 30
0.0
 10
1.837919
 20
0.400395
 30
0.0
 10
1.803081
 20
0.418144
 30
0.0
 10
1.792775
 20
0.421174
 30
0.0
 10
1.693997
 20
0.473651
 30
0.0
 10
1.561872
 20
0.543820
 30
0.0
 10
1.447825
 20
0.617020
 30
0.0
 10
1.323857
 20
0.699703
 30
0.0
 10
1.217747
 20
0.783873
 30
0.0
 10
1.101936
 20
0.879123
 30
0.0
 10
1.005199
 20
0.973106
 30
0.0
 10
0.899807
 20
1.078995
 30
0.0
 10
0.811942
 20
1.183285
 30
0.0
 10
0.697840
 20
1.324229
 30
0.0
 10
0.697177
 20
1.325443
 30
0.0
 10
0.669007
 20
1.364745
 30
0.0
 10
0.640664
 20
1.429161
 30
0.0
 10
0.624858
 20
1.496247
 30
0.0
 10
0.621329
 20
1.564304
 30
0.0
 10
0.629814
 20
1.631632
 30
0.0
 10
0.650050
 20
1.696533
 30
0.0
 10
0.681776
 20
1.757308
 30
0.0
 10
0.724729
 20
1.812257
 30
0.0
 10
0.778646
 20
1.859681
 30
0.0
 10
0.778928
 20
1.859850
 30
0.0
 10
0.950685
 20
1.984646
 30
0.0
 10
1.002168
 20
2.010168
 30
0.0
 10
1.003108
 20
2.008183
 30
0.0
 10
1.008677
 20
2.008570
 30
0.0
 10
1.030837
 20
2.010554
 30
0.0
 10
1.052114
 20
2.014136
 30
0.0
 10
1.071900
 20
2.020861
 30
0.0
 10
1.071988
 20
2.020867
 30
0.0
  0
LWPOLYLINE
  5
106
100
AcDbEntity
  8
Layer_1
 62
7
100
AcDbPolyline
 90
193
 70
0
 10
4.784922
 20
1.796522
 30
0.0
 10
4.796165
 20
1.794705
 30
0.0
 10
4.814907
 20
1.785663
 30
0.0
 10
4.835687
 20
1.779490
 30
0.0
 10
4.857350
 20
1.774916
 30
0.0
 10
4.862202
 20
1.773869
 30
0.0
 10
4.906463
 20
1.744710
 30
0.0
 10
5.064386
 20
1.597534
 30
0.0
 10
5.064386
 20
1.597252
 30
0.0
 10
5.064668
 20
1.597139
 30
0.0
 10
5.112731
 20
1.543061
 30
0.0
 10
5.148820
 20
1.482767
 30
0.0
 10
5.172879
 20
1.418017
 30
0.0
 10
5.184849
 20
1.350568
 30
0.0
 10
5.184673
 20
1.282181
 30
0.0
 10
5.172294
 20
1.214613
 30
0.0
 10
5.147654
 20
1.149624
 30
0.0
 10
5.110696
 20
1.088972
 30
0.0
 10
5.083961
 20
1.062237
 30
0.0
 10
5.077072
 20
1.052427
 30
0.0
 10
4.991632
 20
0.969965
 30
0.0
 10
4.889933
 20
0.871848
 30
0.0
 10
4.779745
 20
0.781779
 30
0.0
 10
4.667683
 20
0.693420
 30
0.0
 10
4.549779
 20
0.615313
 30
0.0
 10
4.428565
 20
0.538089
 30
0.0
 10
4.305093
 20
0.472988
 30
0.0
 10
4.175228
 20
0.407394
 30
0.0
 10
4.045857
 20
0.354917
 30
0.0
 10
3.892675
 20
0.295663
 30
0.0
 10
3.891185
 20
0.295380
 30
0.0
 10
3.845380
 20
0.280496
 30
0.0
 10
3.773955
 20
0.271372
 30
0.0
 10
3.703704
 20
0.275612
 30
0.0
 10
3.636251
 20
0.292391
 30
0.0
 10
3.573219
 20
0.320886
 30
0.0
 10
3.516233
 20
0.360273
 30
0.0
 10
3.466918
 20
0.409728
 30
0.0
 10
3.426896
 20
0.468426
 30
0.0
 10
3.397793
 20
0.535544
 30
0.0
 10
3.397793
 20
0.535826
 30
0.0
 10
3.332639
 20
0.736302
 30
0.0
 10
3.324206
 20
0.793851
 30
0.0
 10
3.324926
 20
0.793964
 30
0.0
 10
3.326303
 20
0.799419
 30
0.0
 10
3.331265
 20
0.821029
 30
0.0
 10
3.334405
 20
0.842416
 30
0.0
 10
3.334490
 20
0.863306
 30
0.0
 10
3.337575
 20
0.874220
 30
0.0
 10
3.341766
 20
0.880175
 30
0.0
 10
3.403502
 20
0.891141
 30
0.0
 10
3.409510
 20
0.887007
 30
0.0
 10
3.416179
 20
0.877747
 30
0.0
 10
3.423015
 20
0.858071
 30
0.0
 10
3.433321
 20
0.839108
 30
0.0
 10
3.445449
 20
0.820476
 30
0.0
 10
3.448536
 20
0.815848
 30
0.0
 10
3.497372
 20
0.826485
 30
0.0
 10
3.498311
 20
0.831996
 30
0.0
 10
3.501565
 20
0.853936
 30
0.0
 10
3.502943
 20
0.875543
 30
0.0
 10
3.501069
 20
0.896270
 30
0.0
 10
3.503273
 20
0.907460
 30
0.0
 10
3.506967
 20
0.913689
 30
0.0
 10
3.567657
 20
0.929397
 30
0.0
 10
3.574049
 20
0.925812
 30
0.0
 10
3.581327
 20
0.917160
 30
0.0
 10
3.589760
 20
0.898034
 30
0.0
 10
3.601554
 20
0.879898
 30
0.0
 10
3.615061
 20
0.862259
 30
0.0
 10
3.618532
 20
0.857904
 30
0.0
 10
3.666378
 20
0.872345
 30
0.0
 10
3.666877
 20
0.877967
 30
0.0
 10
3.668421
 20
0.900128
 30
0.0
 10
3.668534
 20
0.921681
 30
0.0
 10
3.664949
 20
0.942294
 30
0.0
 10
3.666273
 20
0.953541
 30
0.0
 10
3.669581
 20
0.960044
 30
0.0
 10
3.728783
 20
0.980493
 30
0.0
 10
3.735395
 20
0.977409
 30
0.0
 10
3.743388
 20
0.969360
 30
0.0
 10
3.753254
 20
0.951004
 30
0.0
 10
3.766428
 20
0.933806
 30
0.0
 10
3.781256
 20
0.917326
 30
0.0
 10
3.785060
 20
0.913246
 30
0.0
 10
3.831693
 20
0.931381
 30
0.0
 10
3.831805
 20
0.936949
 30
0.0
 10
3.831890
 20
0.959163
 30
0.0
 10
3.829906
 20
0.980660
 30
0.0
 10
3.824834
 20
1.000946
 30
0.0
 10
3.825275
 20
1.012299
 30
0.0
 10
3.827975
 20
1.019025
 30
0.0
 10
3.885467
 20
1.044050
 30
0.0
 10
3.892249
 20
1.041516
 30
0.0
 10
3.900849
 20
1.034073
 30
0.0
 10
3.912149
 20
1.016544
 30
0.0
 10
3.926644
 20
1.000449
 30
0.0
 10
3.942738
 20
0.985181
 30
0.0
 10
3.946820
 20
0.981431
 30
0.0
 10
3.991854
 20
1.003204
 30
0.0
 10
3.991414
 20
1.008716
 30
0.0
 10
3.989430
 20
1.030819
 30
0.0
 10
3.985848
 20
1.052153
 30
0.0
 10
3.979123
 20
1.071885
 30
0.0
 10
3.979236
 20
1.083296
 30
0.0
 10
3.981440
 20
1.090241
 30
0.0
 10
4.036784
 20
1.119677
 30
0.0
 10
4.043729
 20
1.117636
 30
0.0
 10
4.052932
 20
1.110911
 30
0.0
 10
4.065613
 20
1.094319
 30
0.0
 10
4.081212
 20
1.079438
 30
0.0
 10
4.098520
 20
1.065492
 30
0.0
 10
4.102874
 20
1.062019
 30
0.0
 10
4.146035
 20
1.087264
 30
0.0
 10
4.145211
 20
1.092778
 30
0.0
 10
4.141516
 20
1.114661
 30
0.0
 10
4.136225
 20
1.135661
 30
0.0
 10
4.128013
 20
1.154788
 30
0.0
 10
4.126636
 20
1.166088
 30
0.0
 10
4.128289
 20
1.173200
 30
0.0
 10
4.181096
 20
1.206877
 30
0.0
 10
4.188261
 20
1.205444
 30
0.0
 10
4.197908
 20
1.199381
 30
0.0
 10
4.211852
 20
1.183893
 30
0.0
 10
4.228608
 20
1.170223
 30
0.0
 10
4.246910
 20
1.157655
 30
0.0
 10
4.251538
 20
1.154568
 30
0.0
 10
4.292661
 20
1.183120
 30
0.0
 10
4.291394
 20
1.188579
 30
0.0
 10
4.285936
 20
1.210132
 30
0.0
 10
4.278990
 20
1.230526
 30
0.0
 10
4.269345
 20
1.249047
 30
0.0
 10
4.267084
 20
1.260181
 30
0.0
 10
4.268188
 20
1.267403
 30
0.0
 10
4.318183
 20
1.305162
 30
0.0
 10
4.325403
 20
1.304222
 30
0.0
 10
4.335492
 20
1.298986
 30
0.0
 10
4.350593
 20
1.284599
 30
0.0
 10
4.368399
 20
1.272308
 30
0.0
 10
4.387635
 20
1.261228
 30
0.0
 10
4.392486
 20
1.258527
 30
0.0
 10
4.431236
 20
1.290166
 30
0.0
 10
4.429528
 20
1.295515
 30
0.0
 10
4.422416
 20
1.316569
 30
0.0
 10
4.413930
 20
1.336415
 30
0.0
 10
4.402793
 20
1.354053
 30
0.0
 10
4.399706
 20
1.365020
 30
0.0
 10
4.400310
 20
1.372243
 30
0.0
 10
4.447164
 20
1.413805
 30
0.0
 10
4.454493
 20
1.413365
 30
0.0
 10
4.464967
 20
1.408956
 30
0.0
 10
4.481118
 20
1.395782
 30
0.0
 10
4.499861
 20
1.384979
 30
0.0
 10
4.519871
 20
1.375443
 30
0.0
 10
4.524995
 20
1.373128
 30
0.0
 10
4.561044
 20
1.407743
 30
0.0
 10
4.558950
 20
1.412871
 30
0.0
 10
4.550241
 20
1.433264
 30
0.0
 10
4.540211
 20
1.452447
 30
0.0
 10
4.527697
 20
1.469149
 30
0.0
 10
4.523729
 20
1.479842
 30
0.0
 10
4.523842
 20
1.487065
 30
0.0
 10
4.567332
 20
1.532209
 30
0.0
 10
4.574608
 20
1.532124
 30
0.0
 10
4.585412
 20
1.528542
 30
0.0
 10
4.602553
 20
1.516690
 30
0.0
 10
4.622069
 20
1.507376
 30
0.0
 10
4.642849
 20
1.499384
 30
0.0
 10
4.648084
 20
1.497510
 30
0.0
 10
4.681325
 20
1.534826
 30
0.0
 10
4.678844
 20
1.539844
 30
0.0
 10
4.668534
 20
1.559466
 30
0.0
 10
4.657014
 20
1.577766
 30
0.0
 10
4.643289
 20
1.593474
 30
0.0
 10
4.638494
 20
1.603783
 30
0.0
 10
4.637939
 20
1.611060
 30
0.0
 10
4.677793
 20
1.659455
 30
0.0
 10
4.685013
 20
1.660118
 30
0.0
 10
4.696092
 20
1.657417
 30
0.0
 10
4.714119
 20
1.646943
 30
0.0
 10
4.734292
 20
1.639171
 30
0.0
 10
4.755569
 20
1.632832
 30
0.0
 10
4.760970
 20
1.631399
 30
0.0
 10
4.791176
 20
1.671198
 30
0.0
 10
4.788312
 20
1.675992
 30
0.0
 10
4.776514
 20
1.694733
 30
0.0
 10
4.763617
 20
1.712097
 30
0.0
 10
4.748623
 20
1.726648
 30
0.0
 10
4.743111
 20
1.736571
 30
0.0
 10
4.741954
 20
1.743791
 30
0.0
 10
4.777839
 20
1.795110
 30
0.0
 10
4.785005
 20
1.796487
 30
0.0
 10
4.784922
 20
1.796522
 30
0.0
  0
LWPOLYLINE
  5
107
100
AcDbEntity
  8
Layer_1
 62
7
100
AcDbPolyline
 90
9
 70
1
 10
0.750012
 20
6.000109
 30
0.0
 10
0.750012
 20
5.978819
 30
0.0
 10
0.021250
 20
5.978819
 30
0.0
 10
0.021250
 20
5.250097
 30
0.0
 10
0.000000
 20
5.250097
 30
0.0
 10
0.000000
 20
5.989443
 30
0.0
 10
0.000000
 20
6.000109
 30
0.0
 10
0.750012
 20
6.000109
 30
0.0
 10
0.750012
 20
6.000109
 30
0.0
  0
LWPOLYLINE
  5
108
100
AcDbEntity
  8
Layer_1
 62
7
100
AcDbPolyline
 90
8
 70
1
 10
0.021250
 20
0.600092
 30
0.0
 10
0.021250
 20
0.021357
 30
0.0
 10
0.750012
 20
0.021357
 30
0.0
 10
0.750012
 20
0.000108
 30
0.0
 10
0.000000
 20
0.000108
 30
0.0
 10
0.000000
 20
0.600092
 30
0.0
 10
0.021250
 20
0.600092
 30
0.0
 10
0.021250
 20
0.600092
 30
0.0
  0
LWPOLYLINE
  5
109
100
AcDbEntity
  8
Layer_1
 62
7
100
AcDbPolyline
 90
8
 70
1
 10
5.999481
 20
6.000107
 30
0.0
 10
5.999481
 20
5.250096
 30
0.0
 10
5.978232
 20
5.250096
 30
0.0
 10
5.978232
 20
5.978818
 30
0.0
 10
5.249469
 20
5.978818
 30
0.0
 10
5.249469
 20
6.000107
 30
0.0
 10
5.999481
 20
6.000107
 30
0.0
 10
5.999481
 20
6.000107
 30
0.0
  0
LWPOLYLINE
  5
10a
100
AcDbEntity
  8
Layer_1
 62
7
100
AcDbPolyline
 90
9
 70
1
 10
0.750014
 20
6.000000
 30
0.0
 10
0.750014
 20
5.978710
 30
0.0
 10
0.021252
 20
5.978710
 30
0.0
 10
0.021252
 20
5.249989
 30
0.0
 10
0.000003
 20
5.249989
 30
0.0
 10
0.000003
 20
5.989334
 30
0.0
 10
0.000003
 20
6.000000
 30
0.0
 10
0.750014
 20
6.000000
 30
0.0
 10
0.750014
 20
6.000000
 30
0.0
  0
LWPOLYLINE
  5
10b
100
AcDbEntity
  8
Layer_1
 62
7
100
AcDbPolyline
 90
8
 70
1
 10
5.999474
 20
0.600091
 30
0.0
 10
5.999474
 20
0.000107
 30
0.0
 10
5.249463
 20
0.000107
 30
0.0
 10
5.249463
 20
0.021356
 30
0.0
 10
5.978225
 20
0.021356
 30
0.0
 10
5.978225
 20
0.600091
 30
0.0
 10
5.999474
 20
0.600091
 30
0.0
 10
5.999474
 20
0.600091
 30
0.0
  0
LWPOLYLINE
  5
10c
100
AcDbEntity
  8
Layer_1
 62
7
100
AcDbPolyline
 90
8
 70
1
 10
0.021252
 20
0.599984
 30
0.0
 10
0.021252
 20
0.021249
 30
0.0
 10
0.750014
 20
0.021249
 30
0.0
 10
0.750014
 20
0.000000
 30
0.0
 10
0.000003
 20
0.000000
 30
0.0
 10
0.000003
 20
0.599984
 30
0.0
 10
0.021252
 20
0.599984
 30
0.0
 10
0.021252
 20
0.599984
 30
0.0
  0
ENDSEC
  0
SECTION
  2
OBJECTS
  0
DICTIONARY
  5
C
330
0
100
AcDbDictionary
  3
ACAD_GROUP
350
D
  3
ACAD_MLINESTYLE
350
17
  0
DICTIONARY
  5
D
330
C
100
AcDbDictionary
  0
DICTIONARY
  5
1A
330
C
100
AcDbDictionary
  0
DICTIONARY
  5
17
330
C
100
AcDbDictionary
  3
STANDARD
350
18
  0
DICTIONARY
  5
19
330
C
100
AcDbDictionary
  0
ENDSEC
  0
EOF
