  0
SECTION
  2
HEADER
  9
$ACADVER
  1
AC1014
  9
$HANDSEED
  5
FFFF
  9
$MEASUREMENT
 70
     1
  0
ENDSEC
  0
SECTION
  2
TABLES
  0
TABLE
  2
VPORT
  5
8
330
0
100
AcDbSymbolTable
 70
     4
  0
VPORT
  5
2E
330
8
100
AcDbSymbolTableRecord
100
AcDbViewportTableRecord
  2
*ACTIVE
 70
     0
 10
0.0
 20
0.0
 11
1.0
 21
1.0
 12
210.0
 22
148.5
 13
0.0
 23
0.0
 14
10.0
 24
10.0
 15
10.0
 25
10.0
 16
0.0
 26
0.0
 36
1.0
 17
0.0
 27
0.0
 37
0.0
 40
341.0
 41
1.24
 42
50.0
 43
0.0
 44
0.0
 50
0.0
 51
0.0
 71
     0
 72
   100
 73
     1
 74
     3
 75
     0
 76
     0
 77
     0
 78
     0
  0
ENDTAB
  0
TABLE
  2
LTYPE
  5
5
330
0
100
AcDbSymbolTable
 70
     1
  0
LTYPE
  5
14
330
5
100
AcDbSymbolTableRecord
100
AcDbLinetypeTableRecord
  2
BYBLOCK
 70
     0
  3

 72
    65
 73
     0
 40
0.0
  0
LTYPE
  5
15
330
5
100
AcDbSymbolTableRecord
100
AcDbLinetypeTableRecord
  2
BYLAYER
 70
     0
  3

 72
    65
 73
     0
 40
0.0
  0
LTYPE
  5
16
330
5
100
AcDbSymbolTableRecord
100
AcDbLinetypeTableRecord
  2
CONTINUOUS
 70
     0
  3
Solid line
 72
    65
 73
     0
 40
0.0
  0
ENDTAB
  0
TABLE
  2
LAYER
  5
2
100
AcDbSymbolTable
 70
2
  0
LAYER
  5
50
100
AcDbSymbolTableRecord
100
AcDbLayerTableRecord
  2
0
 70
0
  6
CONTINUOUS
  0
LAYER
  5
51
100
AcDbSymbolTableRecord
100
AcDbLayerTableRecord
  2
Layer_1
 70
0
  6
CONTINUOUS
  0
ENDTAB
  0
TABLE
  2
STYLE
  5
3
330
0
100
AcDbSymbolTable
 70
     1
  0
STYLE
  5
11
330
3
100
AcDbSymbolTableRecord
100
AcDbTextStyleTableRecord
  2
STANDARD
 70
     0
 40
0.0
 41
1.0
 50
0.0
 71
     0
 42
2.5
  3
txt
  4

  0
ENDTAB
  0
TABLE
  2
VIEW
  5
6
330
0
100
AcDbSymbolTable
 70
     0
  0
ENDTAB
  0
TABLE
  2
UCS
  5
7
330
0
100
AcDbSymbolTable
 70
     0
  0
ENDTAB
  0
TABLE
  2
APPID
  5
9
330
0
100
AcDbSymbolTable
 70
     2
  0
APPID
  5
12
330
9
100
AcDbSymbolTableRecord
100
AcDbRegAppTableRecord
  2
ACAD
 70
     0
  0
ENDTAB
  0
TABLE
  2
DIMSTYLE
  5
A
330
0
100
AcDbSymbolTable
 70
     1
  0
DIMSTYLE
105
27
330
A
100
AcDbSymbolTableRecord
100
AcDbDimStyleTableRecord
  2
ISO-25
 70
     0
  3

  4

  5

  6

  7

 40
1.0
 41
2.5
 42
0.625
 43
3.75
 44
1.25
 45
0.0
 46
0.0
 47
0.0
 48
0.0
140
2.5
141
2.5
142
0.0
143
0.03937007874016
144
1.0
145
0.0
146
1.0
147
0.625
 71
     0
 72
     0
 73
     0
 74
     0
 75
     0
 76
     0
 77
     1
 78
     8
170
     0
171
     3
172
     1
173
     0
174
     0
175
     0
176
     0
177
     0
178
     0
270
     2
271
     2
272
     2
273
     2
274
     3
340
11
275
     0
280
     0
281
     0
282
     0
283
     0
284
     8
285
     0
286
     0
287
     3
288
     0
  0
ENDTAB
  0
TABLE
  2
BLOCK_RECORD
  5
1
330
0
100
AcDbSymbolTable
 70
     1
  0
BLOCK_RECORD
  5
1F
330
1
100
AcDbSymbolTableRecord
100
AcDbBlockTableRecord
  2
*MODEL_SPACE
  0
BLOCK_RECORD
  5
1B
330
1
100
AcDbSymbolTableRecord
100
AcDbBlockTableRecord
  2
*PAPER_SPACE
  0
ENDTAB
  0
ENDSEC
  0
SECTION
  2
BLOCKS
  0
BLOCK
  5
20
330
1F
100
AcDbEntity
  8
0
100
AcDbBlockBegin
  2
*MODEL_SPACE
 70
     0
 10
0.0
 20
0.0
 30
0.0
  3
*MODEL_SPACE
  1

  0
ENDBLK
  5
21
330
1F
100
AcDbEntity
  8
0
100
AcDbBlockEnd
  0
BLOCK
  5
1C
330
1B
100
AcDbEntity
 67
     1
  8
0
100
AcDbBlockBegin
  2
*PAPER_SPACE
  1

  0
ENDBLK
  5
1D
330
1B
100
AcDbEntity
 67
     1
  8
0
100
AcDbBlockEnd
  0
ENDSEC
  0
SECTION
  2
ENTITIES
  0
LWPOLYLINE
  5
100
100
AcDbEntity
  8
Layer_1
 62
7
100
AcDbPolyline
 90
401
 70
0
 10
3.012544
 20
5.978547
 30
0.0
 10
2.974733
 20
5.978267
 30
0.0
 10
2.934714
 20
5.977778
 30
0.0
 10
2.896128
 20
5.976618
 30
0.0
 10
2.861017
 20
5.975297
 30
0.0
 10
2.815650
 20
5.972706
 30
0.0
 10
2.784616
 20
5.970776
 30
0.0
 10
2.741126
 20
5.967248
 30
0.0
 10
2.709763
 20
5.964437
 30
0.0
 10
2.659216
 20
5.959036
 30
0.0
 10
2.637333
 20
5.956498
 30
0.0
 10
2.588825
 20
5.950160
 30
0.0
 10
2.559115
 20
5.945972
 30
0.0
 10
2.517002
 20
5.939356
 30
0.0
 10
2.486188
 20
5.934231
 30
0.0
 10
2.440878
 20
5.925908
 30
0.0
 10
2.413429
 20
5.920616
 30
0.0
 10
2.368945
 20
5.911300
 30
0.0
 10
2.340283
 20
5.905072
 30
0.0
 10
2.294862
 20
5.894378
 30
0.0
 10
2.269670
 20
5.888203
 30
0.0
 10
2.224032
 20
5.876242
 30
0.0
 10
2.196911
 20
5.868857
 30
0.0
 10
2.155018
 20
5.856729
 30
0.0
 10
2.126906
 20
5.848407
 30
0.0
 10
2.083472
 20
5.834626
 30
0.0
 10
2.056627
 20
5.825916
 30
0.0
 10
2.019752
 20
5.813293
 30
0.0
 10
1.984914
 20
5.801002
 30
0.0
 10
1.952667
 20
5.788985
 30
0.0
 10
1.944785
 20
5.785954
 30
0.0
 10
1.890600
 20
5.671655
 30
0.0
 10
1.823077
 20
5.564694
 30
0.0
 10
1.739000
 20
5.463219
 30
0.0
 10
1.644060
 20
5.374047
 30
0.0
 10
1.539607
 20
5.297823
 30
0.0
 10
1.426991
 20
5.235193
 30
0.0
 10
1.307561
 20
5.186804
 30
0.0
 10
1.182669
 20
5.153300
 30
0.0
 10
1.053664
 20
5.135329
 30
0.0
 10
0.921896
 20
5.133535
 30
0.0
 10
0.901390
 20
5.113526
 30
0.0
 10
0.874161
 20
5.086020
 30
0.0
 10
0.851284
 20
5.062539
 30
0.0
 10
0.824662
 20
5.034317
 30
0.0
 10
0.802281
 20
5.010229
 30
0.0
 10
0.777477
 20
4.982668
 30
0.0
 10
0.754490
 20
4.956760
 30
0.0
 10
0.728805
 20
4.926830
 30
0.0
 10
0.709292
 20
4.903789
 30
0.0
 10
0.680684
 20
4.868731
 30
0.0
 10
0.664642
 20
4.848776
 30
0.0
 10
0.635816
 20
4.811680
 30
0.0
 10
0.621042
 20
4.792331
 30
0.0
 10
0.594749
 20
4.756833
 30
0.0
 10
0.577331
 20
4.732913
 30
0.0
 10
0.555724
 20
4.702153
 30
0.0
 10
0.536154
 20
4.673930
 30
0.0
 10
0.513775
 20
4.640417
 30
0.0
 10
0.497185
 20
4.615229
 30
0.0
 10
0.471774
 20
4.575099
 30
0.0
 10
0.460144
 20
4.556467
 30
0.0
 10
0.434786
 20
4.514190
 30
0.0
 10
0.422769
 20
4.493904
 30
0.0
 10
0.399785
 20
4.453501
 30
0.0
 10
0.387108
 20
4.430734
 30
0.0
 10
0.365995
 20
4.391379
 30
0.0
 10
0.352930
 20
4.366630
 30
0.0
 10
0.333858
 20
4.328926
 30
0.0
 10
0.320300
 20
4.301586
 30
0.0
 10
0.302881
 20
4.264985
 30
0.0
 10
0.289597
 20
4.236542
 30
0.0
 10
0.270801
 20
4.194429
 30
0.0
 10
0.261098
 20
4.172216
 30
0.0
 10
0.242742
 20
4.128172
 30
0.0
 10
0.232822
 20
4.103865
 30
0.0
 10
0.217498
 20
4.064398
 30
0.0
 10
0.206144
 20
4.034576
 30
0.0
 10
0.193740
 20
4.000072
 30
0.0
 10
0.181226
 20
3.964737
 30
0.0
 10
0.169156
 20
3.928359
 30
0.0
 10
0.159179
 20
3.897489
 30
0.0
 10
0.147659
 20
3.859840
 30
0.0
 10
0.137185
 20
3.824673
 30
0.0
 10
0.128200
 20
3.792373
 30
0.0
 10
0.118002
 20
3.754670
 30
0.0
 10
0.109240
 20
3.719834
 30
0.0
 10
0.100034
 20
3.682075
 30
0.0
 10
0.093308
 20
3.652309
 30
0.0
 10
0.083662
 20
3.608048
 30
0.0
 10
0.078481
 20
3.582083
 30
0.0
 10
0.069440
 20
3.534792
 30
0.0
 10
0.065253
 20
3.510924
 30
0.0
 10
0.056707
 20
3.459328
 30
0.0
 10
0.053842
 20
3.439762
 30
0.0
 10
0.046400
 20
3.386625
 30
0.0
 10
0.043480
 20
3.362757
 30
0.0
 10
0.037691
 20
3.312044
 30
0.0
 10
0.035266
 20
3.287240
 30
0.0
 10
0.030801
 20
3.236805
 30
0.0
 10
0.029037
 20
3.212163
 30
0.0
 10
0.025893
 20
3.162554
 30
0.0
 10
0.024516
 20
3.132458
 30
0.0
 10
0.022809
 20
3.086541
 30
0.0
 10
0.022145
 20
3.053800
 30
0.0
 10
0.021541
 20
3.012567
 30
0.0
 10
0.021824
 20
2.974645
 30
0.0
 10
0.022371
 20
2.934626
 30
0.0
 10
0.023528
 20
2.896040
 30
0.0
 10
0.024852
 20
2.860929
 30
0.0
 10
0.025134
 20
2.856685
 30
0.0
 10
0.116689
 20
2.770103
 30
0.0
 10
0.197223
 20
2.673186
 30
0.0
 10
0.267798
 20
2.561779
 30
0.0
 10
0.323292
 20
2.443835
 30
0.0
 10
0.363508
 20
2.320840
 30
0.0
 10
0.388250
 20
2.194282
 30
0.0
 10
0.397319
 20
2.065647
 30
0.0
 10
0.390519
 20
1.936423
 30
0.0
 10
0.367652
 20
1.808097
 30
0.0
 10
0.328523
 20
1.682155
 30
0.0
 10
0.344895
 20
1.649138
 30
0.0
 10
0.354209
 20
1.631169
 30
0.0
 10
0.378410
 20
1.585361
 30
0.0
 10
0.389377
 20
1.565351
 30
0.0
 10
0.412473
 20
1.524068
 30
0.0
 10
0.426861
 20
1.499317
 30
0.0
 10
0.448688
 20
1.462386
 30
0.0
 10
0.463350
 20
1.438574
 30
0.0
 10
0.487218
 20
1.400319
 30
0.0
 10
0.500668
 20
1.379593
 30
0.0
 10
0.526410
 20
1.340457
 30
0.0
 10
0.540740
 20
1.319567
 30
0.0
 10
0.567862
 20
1.280429
 30
0.0
 10
0.579987
 20
1.263563
 30
0.0
 10
0.609532
 20
1.223047
 30
0.0
 10
0.625244
 20
1.202267
 30
0.0
 10
0.651702
 20
1.167706
 30
0.0
 10
0.671268
 20
1.143068
 30
0.0
 10
0.696019
 20
1.112365
 30
0.0
 10
0.718066
 20
1.086017
 30
0.0
 10
0.742211
 20
1.057465
 30
0.0
 10
0.761503
 20
1.035414
 30
0.0
 10
0.790992
 20
1.002231
 30
0.0
 10
0.808688
 20
0.982938
 30
0.0
 10
0.838177
 20
0.951244
 30
0.0
 10
0.862265
 20
0.926274
 30
0.0
 10
0.886629
 20
0.901305
 30
0.0
 10
0.914135
 20
0.874073
 30
0.0
 10
0.937616
 20
0.851200
 30
0.0
 10
0.965838
 20
0.824575
 30
0.0
 10
0.989926
 20
0.802194
 30
0.0
 10
1.017487
 20
0.777390
 30
0.0
 10
1.043395
 20
0.754406
 30
0.0
 10
1.073326
 20
0.728717
 30
0.0
 10
1.096366
 20
0.709205
 30
0.0
 10
1.131424
 20
0.680596
 30
0.0
 10
1.151376
 20
0.664557
 30
0.0
 10
1.188475
 20
0.635729
 30
0.0
 10
1.207821
 20
0.620956
 30
0.0
 10
1.243322
 20
0.594663
 30
0.0
 10
1.267079
 20
0.577410
 30
0.0
 10
1.300703
 20
0.553706
 30
0.0
 10
1.324954
 20
0.536895
 30
0.0
 10
1.360895
 20
0.512916
 30
0.0
 10
1.384926
 20
0.497098
 30
0.0
 10
1.425056
 20
0.471687
 30
0.0
 10
1.443688
 20
0.460057
 30
0.0
 10
1.485965
 20
0.434701
 30
0.0
 10
1.506251
 20
0.422685
 30
0.0
 10
1.546654
 20
0.399698
 30
0.0
 10
1.569418
 20
0.387020
 30
0.0
 10
1.608776
 20
0.365907
 30
0.0
 10
1.633525
 20
0.352846
 30
0.0
 10
1.671230
 20
0.333773
 30
0.0
 10
1.698568
 20
0.320212
 30
0.0
 10
1.735170
 20
0.302794
 30
0.0
 10
1.763613
 20
0.289510
 30
0.0
 10
1.805726
 20
0.270714
 30
0.0
 10
1.827939
 20
0.261013
 30
0.0
 10
1.871980
 20
0.242658
 30
0.0
 10
1.896291
 20
0.232735
 30
0.0
 10
1.935757
 20
0.217410
 30
0.0
 10
1.965579
 20
0.206056
 30
0.0
 10
2.000083
 20
0.193653
 30
0.0
 10
2.035418
 20
0.181142
 30
0.0
 10
2.071796
 20
0.169069
 30
0.0
 10
2.102666
 20
0.159092
 30
0.0
 10
2.140315
 20
0.147571
 30
0.0
 10
2.175479
 20
0.137098
 30
0.0
 10
2.207782
 20
0.128115
 30
0.0
 10
2.216325
 20
0.125798
 30
0.0
 10
2.327300
 20
0.186398
 30
0.0
 10
2.444750
 20
0.233232
 30
0.0
 10
2.597765
 20
0.270561
 30
0.0
 10
2.754641
 20
0.284605
 30
0.0
 10
2.936200
 20
0.271182
 30
0.0
 10
3.111455
 20
0.227063
 30
0.0
 10
3.276562
 20
0.153576
 30
0.0
 10
3.427677
 20
0.052048
 30
0.0
 10
3.441127
 20
0.053922
 30
0.0
 10
3.483238
 20
0.060534
 30
0.0
 10
3.514051
 20
0.065661
 30
0.0
 10
3.559361
 20
0.073984
 30
0.0
 10
3.586814
 20
0.079276
 30
0.0
 10
3.631294
 20
0.088592
 30
0.0
 10
3.659959
 20
0.094821
 30
0.0
 10
3.705377
 20
0.105514
 30
0.0
 10
3.730569
 20
0.111687
 30
0.0
 10
3.776210
 20
0.123650
 30
0.0
 10
3.803329
 20
0.131036
 30
0.0
 10
3.845221
 20
0.143163
 30
0.0
 10
3.873333
 20
0.151485
 30
0.0
 10
3.916770
 20
0.165266
 30
0.0
 10
3.943613
 20
0.173976
 30
0.0
 10
3.980491
 20
0.186596
 30
0.0
 10
4.015328
 20
0.198891
 30
0.0
 10
4.047572
 20
0.210908
 30
0.0
 10
4.082740
 20
0.224302
 30
0.0
 10
4.117908
 20
0.238356
 30
0.0
 10
4.149050
 20
0.251090
 30
0.0
 10
4.184605
 20
0.266304
 30
0.0
 10
4.217072
 20
0.280526
 30
0.0
 10
4.245461
 20
0.293533
 30
0.0
 10
4.285753
 20
0.312386
 30
0.0
 10
4.305873
 20
0.322196
 30
0.0
 10
4.351017
 20
0.344630
 30
0.0
 10
4.368986
 20
0.353946
 30
0.0
 10
4.414794
 20
0.378144
 30
0.0
 10
4.434801
 20
0.389114
 30
0.0
 10
4.476087
 20
0.412211
 30
0.0
 10
4.500838
 20
0.426596
 30
0.0
 10
4.537769
 20
0.448425
 30
0.0
 10
4.561581
 20
0.463087
 30
0.0
 10
4.600112
 20
0.487121
 30
0.0
 10
4.618689
 20
0.499191
 30
0.0
 10
4.660855
 20
0.526974
 30
0.0
 10
4.678714
 20
0.539154
 30
0.0
 10
4.719724
 20
0.567596
 30
0.0
 10
4.736592
 20
0.579724
 30
0.0
 10
4.777106
 20
0.609269
 30
0.0
 10
4.797888
 20
0.624978
 30
0.0
 10
4.832448
 20
0.651436
 30
0.0
 10
4.857087
 20
0.671005
 30
0.0
 10
4.887789
 20
0.695756
 30
0.0
 10
4.914138
 20
0.717804
 30
0.0
 10
4.942690
 20
0.741948
 30
0.0
 10
4.964740
 20
0.761241
 30
0.0
 10
4.997924
 20
0.790730
 30
0.0
 10
5.017217
 20
0.808422
 30
0.0
 10
5.048911
 20
0.837915
 30
0.0
 10
5.073881
 20
0.862002
 30
0.0
 10
5.098850
 20
0.886366
 30
0.0
 10
5.126082
 20
0.913872
 30
0.0
 10
5.148955
 20
0.937353
 30
0.0
 10
5.175580
 20
0.965575
 30
0.0
 10
5.197961
 20
0.989663
 30
0.0
 10
5.222765
 20
1.017224
 30
0.0
 10
5.245749
 20
1.043130
 30
0.0
 10
5.271438
 20
1.073063
 30
0.0
 10
5.290950
 20
1.096103
 30
0.0
 10
5.319556
 20
1.131161
 30
0.0
 10
5.335598
 20
1.151113
 30
0.0
 10
5.364426
 20
1.188212
 30
0.0
 10
5.379198
 20
1.207558
 30
0.0
 10
5.405492
 20
1.243056
 30
0.0
 10
5.422745
 20
1.266814
 30
0.0
 10
5.446446
 20
1.300438
 30
0.0
 10
5.463257
 20
1.324692
 30
0.0
 10
5.487239
 20
1.360630
 30
0.0
 10
5.491259
 20
1.366748
 30
0.0
 10
5.467998
 20
1.490846
 30
0.0
 10
5.459786
 20
1.616837
 30
0.0
 10
5.468177
 20
1.748447
 30
0.0
 10
5.492611
 20
1.876482
 30
0.0
 10
5.532373
 20
1.999622
 30
0.0
 10
5.586748
 20
2.116549
 30
0.0
 10
5.655022
 20
2.225943
 30
0.0
 10
5.736480
 20
2.326487
 30
0.0
 10
5.830408
 20
2.416861
 30
0.0
 10
5.936090
 20
2.495747
 30
0.0
 10
5.943532
 20
2.540561
 30
0.0
 10
5.946400
 20
2.560130
 30
0.0
 10
5.953842
 20
2.613267
 30
0.0
 10
5.956763
 20
2.637135
 30
0.0
 10
5.962551
 20
2.687848
 30
0.0
 10
5.964975
 20
2.712652
 30
0.0
 10
5.969440
 20
2.763087
 30
0.0
 10
5.971148
 20
2.787729
 30
0.0
 10
5.974292
 20
2.837338
 30
0.0
 10
5.975723
 20
2.867434
 30
0.0
 10
5.977433
 20
2.913956
 30
0.0
 10
5.977981
 20
2.941791
 30
0.0
 10
5.978644
 20
2.989912
 30
0.0
 10
5.978362
 20
3.022767
 30
0.0
 10
5.977758
 20
3.065264
 30
0.0
 10
5.976600
 20
3.103849
 30
0.0
 10
5.975277
 20
3.138963
 30
0.0
 10
5.972742
 20
3.184328
 30
0.0
 10
5.970758
 20
3.215360
 30
0.0
 10
5.967231
 20
3.258850
 30
0.0
 10
5.964473
 20
3.290214
 30
0.0
 10
5.959071
 20
3.340763
 30
0.0
 10
5.956537
 20
3.362644
 30
0.0
 10
5.950195
 20
3.411152
 30
0.0
 10
5.946008
 20
3.440862
 30
0.0
 10
5.939393
 20
3.482975
 30
0.0
 10
5.934267
 20
3.513788
 30
0.0
 10
5.925945
 20
3.559099
 30
0.0
 10
5.920653
 20
3.586548
 30
0.0
 10
5.911337
 20
3.631031
 30
0.0
 10
5.905107
 20
3.659694
 30
0.0
 10
5.894415
 20
3.705115
 30
0.0
 10
5.888239
 20
3.730306
 30
0.0
 10
5.876279
 20
3.775947
 30
0.0
 10
5.868893
 20
3.803066
 30
0.0
 10
5.856766
 20
3.844958
 30
0.0
 10
5.848443
 20
3.873071
 30
0.0
 10
5.834662
 20
3.916505
 30
0.0
 10
5.825953
 20
3.943350
 30
0.0
 10
5.813329
 20
3.980228
 30
0.0
 10
5.801038
 20
4.015062
 30
0.0
 10
5.789021
 20
4.047309
 30
0.0
 10
5.775627
 20
4.082477
 30
0.0
 10
5.761572
 20
4.117645
 30
0.0
 10
5.748838
 20
4.148788
 30
0.0
 10
5.733624
 20
4.184343
 30
0.0
 10
5.719402
 20
4.216809
 30
0.0
 10
5.706395
 20
4.245195
 30
0.0
 10
5.687542
 20
4.285490
 30
0.0
 10
5.677733
 20
4.305611
 30
0.0
 10
5.655288
 20
4.350756
 30
0.0
 10
5.645976
 20
4.368724
 30
0.0
 10
5.621775
 20
4.414529
 30
0.0
 10
5.610808
 20
4.434539
 30
0.0
 10
5.587711
 20
4.475825
 30
0.0
 10
5.573323
 20
4.500576
 30
0.0
 10
5.551496
 20
4.537508
 30
0.0
 10
5.536835
 20
4.561319
 30
0.0
 10
5.512967
 20
4.599574
 30
0.0
 10
5.499516
 20
4.620298
 30
0.0
 10
5.473775
 20
4.659436
 30
0.0
 10
5.459443
 20
4.680326
 30
0.0
 10
5.432322
 20
4.719462
 30
0.0
 10
5.420198
 20
4.736331
 30
0.0
 10
5.390652
 20
4.776844
 30
0.0
 10
5.374941
 20
4.797623
 30
0.0
 10
5.348482
 20
4.832188
 30
0.0
 10
5.328915
 20
4.856825
 30
0.0
 10
5.322687
 20
4.864541
 30
0.0
 10
5.197712
 20
4.880768
 30
0.0
 10
5.075578
 20
4.911837
 30
0.0
 10
4.953011
 20
4.960483
 30
0.0
 10
4.838801
 20
5.023280
 30
0.0
 10
4.733980
 20
5.099140
 30
0.0
 10
4.639584
 20
5.186978
 30
0.0
 10
4.556643
 20
5.285704
 30
0.0
 10
4.486192
 20
5.394234
 30
0.0
 10
4.429264
 20
5.511480
 30
0.0
 10
4.386891
 20
5.636355
 30
0.0
 10
4.366661
 20
5.647048
 30
0.0
 10
4.328956
 20
5.666120
 30
0.0
 10
4.301617
 20
5.679682
 30
0.0
 10
4.265016
 20
5.697098
 30
0.0
 10
4.236574
 20
5.710381
 30
0.0
 10
4.197491
 20
5.727800
 30
0.0
 10
4.169876
 20
5.739874
 30
0.0
 10
4.133938
 20
5.754866
 30
0.0
 10
4.102518
 20
5.767710
 30
0.0
 10
4.065256
 20
5.782208
 30
0.0
 10
4.034607
 20
5.793838
 30
0.0
 10
4.000102
 20
5.806239
 30
0.0
 10
3.964768
 20
5.818753
 30
0.0
 10
3.928390
 20
5.830822
 30
0.0
 10
3.897520
 20
5.840799
 30
0.0
 10
3.859872
 20
5.852320
 30
0.0
 10
3.824707
 20
5.862793
 30
0.0
 10
3.792403
 20
5.871779
 30
0.0
 10
3.754702
 20
5.881975
 30
0.0
 10
3.719864
 20
5.890741
 30
0.0
 10
3.682106
 20
5.899944
 30
0.0
 10
3.652340
 20
5.906670
 30
0.0
 10
3.608079
 20
5.916316
 30
0.0
 10
3.582114
 20
5.921498
 30
0.0
 10
3.534822
 20
5.930537
 30
0.0
 10
3.510955
 20
5.934728
 30
0.0
 10
3.459359
 20
5.943271
 30
0.0
 10
3.439792
 20
5.946139
 30
0.0
 10
3.386655
 20
5.953578
 30
0.0
 10
3.362788
 20
5.956499
 30
0.0
 10
3.312076
 20
5.962287
 30
0.0
 10
3.287271
 20
5.964715
 30
0.0
 10
3.236835
 20
5.969179
 30
0.0
 10
3.212195
 20
5.970943
 30
0.0
 10
3.162586
 20
5.974084
 30
0.0
 10
3.132655
 20
5.975461
 30
0.0
 10
3.086517
 20
5.977172
 30
0.0
 10
3.053884
 20
5.977834
 30
0.0
 10
3.012711
 20
5.978381
 30
0.0
 10
3.012542
 20
5.978544
 30
0.0
 10
3.012544
 20
5.978547
 30
0.0
  0
LWPOLYLINE
  5
101
100
AcDbEntity
  8
Layer_1
 62
7
100
AcDbPolyline
 90
207
 70
0
 10
2.999811
 20
5.851216
 30
0.0
 10
2.999895
 20
5.851100
 30
0.0
 10
3.000177
 20
5.851100
 30
0.0
 10
3.124751
 20
5.844596
 30
0.0
 10
3.258365
 20
5.837596
 30
0.0
 10
3.408793
 20
5.817200
 30
0.0
 10
3.540147
 20
5.797027
 30
0.0
 10
3.687707
 20
5.761749
 30
0.0
 10
3.840503
 20
5.722337
 30
0.0
 10
3.887797
 20
5.707289
 30
0.0
 10
3.956898
 20
5.675187
 30
0.0
 10
4.016656
 20
5.631434
 30
0.0
 10
4.066119
 20
5.577883
 30
0.0
 10
4.104333
 20
5.516388
 30
0.0
 10
4.130346
 20
5.448804
 30
0.0
 10
4.143205
 20
5.376985
 30
0.0
 10
4.141957
 20
5.302786
 30
0.0
 10
4.125649
 20
5.228061
 30
0.0
 10
4.125649
 20
5.227781
 30
0.0
 10
4.063359
 20
5.036014
 30
0.0
 10
4.269579
 20
4.914653
 30
0.0
 10
4.461569
 20
4.772919
 30
0.0
 10
4.637830
 20
4.612045
 30
0.0
 10
4.796863
 20
4.433261
 30
0.0
 10
4.971322
 20
4.529944
 30
0.0
 10
4.971604
 20
4.530224
 30
0.0
 10
5.059154
 20
4.565544
 30
0.0
 10
5.149591
 20
4.578181
 30
0.0
 10
5.149506
 20
4.578345
 30
0.0
 10
5.247726
 20
4.567355
 30
0.0
 10
5.339731
 20
4.531739
 30
0.0
 10
5.420449
 20
4.472986
 30
0.0
 10
5.484809
 20
4.392586
 30
0.0
 10
5.498810
 20
4.364418
 30
0.0
 10
5.508732
 20
4.349039
 30
0.0
 10
5.558395
 20
4.244749
 30
0.0
 10
5.620738
 20
4.113892
 30
0.0
 10
5.670347
 20
3.982867
 30
0.0
 10
5.719242
 20
3.846551
 30
0.0
 10
5.755347
 20
3.712002
 30
0.0
 10
5.790624
 20
3.570447
 30
0.0
 10
5.812892
 20
3.434297
 30
0.0
 10
5.834389
 20
3.286462
 30
0.0
 10
5.842381
 20
3.171425
 30
0.0
 10
5.849217
 20
3.073418
 30
0.0
 10
5.848669
 20
3.051424
 30
0.0
 10
5.850103
 20
3.023698
 30
0.0
 10
5.849109
 20
3.000051
 30
0.0
 10
5.841335
 20
2.922910
 30
0.0
 10
5.819032
 20
2.851061
 30
0.0
 10
5.783742
 20
2.786042
 30
0.0
 10
5.737003
 20
2.729393
 30
0.0
 10
5.680355
 20
2.682654
 30
0.0
 10
5.615336
 20
2.647364
 30
0.0
 10
5.543487
 20
2.625062
 30
0.0
 10
5.466346
 20
2.617287
 30
0.0
 10
5.466064
 20
2.617287
 30
0.0
 10
5.264044
 20
2.617287
 30
0.0
 10
5.212164
 20
2.383999
 30
0.0
 10
5.136577
 20
2.157956
 30
0.0
 10
5.037989
 20
1.940954
 30
0.0
 10
4.917109
 20
1.734792
 30
0.0
 10
5.064392
 20
1.597540
 30
0.0
 10
5.064392
 20
1.597258
 30
0.0
 10
5.064674
 20
1.597258
 30
0.0
 10
5.112737
 20
1.543180
 30
0.0
 10
5.148826
 20
1.482886
 30
0.0
 10
5.172885
 20
1.418136
 30
0.0
 10
5.184855
 20
1.350688
 30
0.0
 10
5.184679
 20
1.282301
 30
0.0
 10
5.172300
 20
1.214733
 30
0.0
 10
5.147660
 20
1.149743
 30
0.0
 10
5.110702
 20
1.089091
 30
0.0
 10
5.083967
 20
1.062360
 30
0.0
 10
5.077078
 20
1.052547
 30
0.0
 10
4.991638
 20
0.970087
 30
0.0
 10
4.889939
 20
0.871969
 30
0.0
 10
4.779751
 20
0.781901
 30
0.0
 10
4.667689
 20
0.693541
 30
0.0
 10
4.549785
 20
0.615432
 30
0.0
 10
4.428570
 20
0.538208
 30
0.0
 10
4.305099
 20
0.473111
 30
0.0
 10
4.175234
 20
0.407517
 30
0.0
 10
4.045863
 20
0.355040
 30
0.0
 10
3.892681
 20
0.295785
 30
0.0
 10
3.891191
 20
0.295502
 30
0.0
 10
3.845386
 20
0.280621
 30
0.0
 10
3.773961
 20
0.271497
 30
0.0
 10
3.703710
 20
0.275736
 30
0.0
 10
3.636256
 20
0.292516
 30
0.0
 10
3.573225
 20
0.321010
 30
0.0
 10
3.516239
 20
0.360397
 30
0.0
 10
3.466924
 20
0.409851
 30
0.0
 10
3.426902
 20
0.468549
 30
0.0
 10
3.397798
 20
0.535668
 30
0.0
 10
3.397798
 20
0.535950
 30
0.0
 10
3.335345
 20
0.728161
 30
0.0
 10
3.168181
 20
0.708680
 30
0.0
 10
3.000039
 20
0.701482
 30
0.0
 10
2.845662
 20
0.707291
 30
0.0
 10
2.692196
 20
0.723432
 30
0.0
 10
2.540158
 20
0.749833
 30
0.0
 10
2.390068
 20
0.786423
 30
0.0
 10
2.304407
 20
0.602648
 30
0.0
 10
2.304127
 20
0.602648
 30
0.0
 10
2.304127
 20
0.602365
 30
0.0
 10
2.267794
 20
0.540296
 30
0.0
 10
2.221958
 20
0.487585
 30
0.0
 10
2.168243
 20
0.444819
 30
0.0
 10
2.108274
 20
0.412582
 30
0.0
 10
2.043676
 20
0.391459
 30
0.0
 10
1.976073
 20
0.382034
 30
0.0
 10
1.907090
 20
0.384892
 30
0.0
 10
1.838351
 20
0.400619
 30
0.0
 10
1.803516
 20
0.418367
 30
0.0
 10
1.793207
 20
0.421399
 30
0.0
 10
1.694429
 20
0.473876
 30
0.0
 10
1.562304
 20
0.544046
 30
0.0
 10
1.448257
 20
0.617247
 30
0.0
 10
1.324288
 20
0.699930
 30
0.0
 10
1.218179
 20
0.784099
 30
0.0
 10
1.102369
 20
0.879349
 30
0.0
 10
1.005632
 20
0.973332
 30
0.0
 10
0.900239
 20
1.079219
 30
0.0
 10
0.812374
 20
1.183512
 30
0.0
 10
0.698275
 20
1.324456
 30
0.0
 10
0.697612
 20
1.325670
 30
0.0
 10
0.669446
 20
1.364969
 30
0.0
 10
0.641101
 20
1.429385
 30
0.0
 10
0.625296
 20
1.496471
 30
0.0
 10
0.621766
 20
1.564527
 30
0.0
 10
0.630250
 20
1.631856
 30
0.0
 10
0.650486
 20
1.696757
 30
0.0
 10
0.682211
 20
1.757533
 30
0.0
 10
0.725164
 20
1.812482
 30
0.0
 10
0.779081
 20
1.859907
 30
0.0
 10
0.779363
 20
1.860189
 30
0.0
 10
0.942081
 20
1.978427
 30
0.0
 10
0.847291
 20
2.197440
 30
0.0
 10
0.775878
 20
2.424482
 30
0.0
 10
0.728325
 20
2.657692
 30
0.0
 10
0.705113
 20
2.895206
 30
0.0
 10
0.504636
 20
2.919847
 30
0.0
 10
0.504354
 20
2.919847
 30
0.0
 10
0.433449
 20
2.935431
 30
0.0
 10
0.368616
 20
2.963157
 30
0.0
 10
0.310948
 20
3.001622
 30
0.0
 10
0.261540
 20
3.049423
 30
0.0
 10
0.221485
 20
3.105157
 30
0.0
 10
0.191878
 20
3.167420
 30
0.0
 10
0.173811
 20
3.234810
 30
0.0
 10
0.168380
 20
3.305923
 30
0.0
 10
0.174332
 20
3.343018
 30
0.0
 10
0.174050
 20
3.355365
 30
0.0
 10
0.195107
 20
3.473712
 30
0.0
 10
0.219528
 20
3.610909
 30
0.0
 10
0.256679
 20
3.751360
 30
0.0
 10
0.294712
 20
3.885635
 30
0.0
 10
0.345864
 20
4.022005
 30
0.0
 10
0.397017
 20
4.151485
 30
0.0
 10
0.461344
 20
4.281794
 30
0.0
 10
0.525341
 20
4.405873
 30
0.0
 10
0.601959
 20
4.528408
 30
0.0
 10
0.691256
 20
4.665881
 30
0.0
 10
0.694731
 20
4.670786
 30
0.0
 10
0.695219
 20
4.671563
 30
0.0
 10
0.724711
 20
4.711526
 30
0.0
 10
0.785858
 20
4.764175
 30
0.0
 10
0.856127
 20
4.802611
 30
0.0
 10
0.933090
 20
4.825627
 30
0.0
 10
1.014319
 20
4.832020
 30
0.0
 10
1.014319
 20
4.832682
 30
0.0
 10
1.071535
 20
4.826730
 30
0.0
 10
1.126909
 20
4.812375
 30
0.0
 10
1.179526
 20
4.789930
 30
0.0
 10
1.228467
 20
4.759703
 30
0.0
 10
1.228750
 20
4.759423
 30
0.0
 10
1.391304
 20
4.641299
 30
0.0
 10
1.570572
 20
4.799374
 30
0.0
 10
1.764745
 20
4.937636
 30
0.0
 10
1.972191
 20
5.055047
 30
0.0
 10
2.191282
 20
5.150567
 30
0.0
 10
2.152916
 20
5.347956
 30
0.0
 10
2.153196
 20
5.347956
 30
0.0
 10
2.153196
 20
5.348236
 30
0.0
 10
2.146313
 20
5.409895
 30
0.0
 10
2.149341
 20
5.470671
 30
0.0
 10
2.161787
 20
5.529524
 30
0.0
 10
2.183157
 20
5.585415
 30
0.0
 10
2.212956
 20
5.637303
 30
0.0
 10
2.250691
 20
5.684150
 30
0.0
 10
2.295869
 20
5.724916
 30
0.0
 10
2.347994
 20
5.758561
 30
0.0
 10
2.347994
 20
5.758841
 30
0.0
 10
2.400408
 20
5.782042
 30
0.0
 10
2.455701
 20
5.797152
 30
0.0
 10
2.473010
 20
5.801780
 30
0.0
 10
2.502336
 20
5.805805
 30
0.0
 10
2.504596
 20
5.806304
 30
0.0
 10
2.521959
 20
5.810602
 30
0.0
 10
2.639036
 20
5.824603
 30
0.0
 10
2.786155
 20
5.842188
 30
0.0
 10
2.877767
 20
5.846983
 30
0.0
 10
2.950033
 20
5.850787
 30
0.0
 10
2.968720
 20
5.850125
 30
0.0
 10
2.999806
 20
5.851229
 30
0.0
 10
2.999811
 20
5.851216
 30
0.0
  0
LWPOLYLINE
  5
102
100
AcDbEntity
  8
Layer_1
 62
7
100
AcDbPolyline
 90
9
 70
1
 10
0.750012
 20
6.000110
 30
0.0
 10
0.750012
 20
5.978821
 30
0.0
 10
0.021250
 20
5.978821
 30
0.0
 10
0.021250
 20
5.250099
 30
0.0
 10
0.000000
 20
5.250099
 30
0.0
 10
0.000000
 20
5.989445
 30
0.0
 10
0.000000
 20
6.000110
 30
0.0
 10
0.750012
 20
6.000110
 30
0.0
 10
0.750012
 20
6.000110
 30
0.0
  0
LWPOLYLINE
  5
103
100
AcDbEntity
  8
Layer_1
 62
7
100
AcDbPolyline
 90
8
 70
1
 10
0.021250
 20
0.600093
 30
0.0
 10
0.021250
 20
0.021359
 30
0.0
 10
0.750012
 20
0.021359
 30
0.0
 10
0.750012
 20
0.000110
 30
0.0
 10
0.000000
 20
0.000110
 30
0.0
 10
0.000000
 20
0.600093
 30
0.0
 10
0.021250
 20
0.600093
 30
0.0
 10
0.021250
 20
0.600093
 30
0.0
  0
LWPOLYLINE
  5
104
100
AcDbEntity
  8
Layer_1
 62
7
100
AcDbPolyline
 90
8
 70
1
 10
5.999480
 20
6.000107
 30
0.0
 10
5.999480
 20
5.250096
 30
0.0
 10
5.978231
 20
5.250096
 30
0.0
 10
5.978231
 20
5.978818
 30
0.0
 10
5.249468
 20
5.978818
 30
0.0
 10
5.249468
 20
6.000107
 30
0.0
 10
5.999480
 20
6.000107
 30
0.0
 10
5.999480
 20
6.000107
 30
0.0
  0
LWPOLYLINE
  5
105
100
AcDbEntity
  8
Layer_1
 62
7
100
AcDbPolyline
 90
9
 70
1
 10
0.750013
 20
6.000000
 30
0.0
 10
0.750013
 20
5.978711
 30
0.0
 10
0.021251
 20
5.978711
 30
0.0
 10
0.021251
 20
5.249989
 30
0.0
 10
0.000002
 20
5.249989
 30
0.0
 10
0.000002
 20
5.989334
 30
0.0
 10
0.000002
 20
6.000000
 30
0.0
 10
0.750013
 20
6.000000
 30
0.0
 10
0.750013
 20
6.000000
 30
0.0
  0
LWPOLYLINE
  5
106
100
AcDbEntity
  8
Layer_1
 62
7
100
AcDbPolyline
 90
8
 70
1
 10
5.999473
 20
0.600091
 30
0.0
 10
5.999473
 20
0.000107
 30
0.0
 10
5.249462
 20
0.000107
 30
0.0
 10
5.249462
 20
0.021357
 30
0.0
 10
5.978223
 20
0.021357
 30
0.0
 10
5.978223
 20
0.600091
 30
0.0
 10
5.999473
 20
0.600091
 30
0.0
 10
5.999473
 20
0.600091
 30
0.0
  0
LWPOLYLINE
  5
107
100
AcDbEntity
  8
Layer_1
 62
7
100
AcDbPolyline
 90
8
 70
1
 10
0.021251
 20
0.599984
 30
0.0
 10
0.021251
 20
0.021250
 30
0.0
 10
0.750013
 20
0.021250
 30
0.0
 10
0.750013
 20
0.000000
 30
0.0
 10
0.000002
 20
0.000000
 30
0.0
 10
0.000002
 20
0.599984
 30
0.0
 10
0.021251
 20
0.599984
 30
0.0
 10
0.021251
 20
0.599984
 30
0.0
  0
ENDSEC
  0
SECTION
  2
OBJECTS
  0
DICTIONARY
  5
C
330
0
100
AcDbDictionary
  3
ACAD_GROUP
350
D
  3
ACAD_MLINESTYLE
350
17
  0
DICTIONARY
  5
D
330
C
100
AcDbDictionary
  0
DICTIONARY
  5
1A
330
C
100
AcDbDictionary
  0
DICTIONARY
  5
17
330
C
100
AcDbDictionary
  3
STANDARD
350
18
  0
DICTIONARY
  5
19
330
C
100
AcDbDictionary
  0
ENDSEC
  0
EOF
