  0
SECTION
  2
HEADER
  9
$ACADVER
  1
AC1014
  9
$HANDSEED
  5
FFFF
  9
$MEASUREMENT
 70
     1
  0
ENDSEC
  0
SECTION
  2
TABLES
  0
TABLE
  2
VPORT
  5
8
330
0
100
AcDbSymbolTable
 70
     4
  0
VPORT
  5
2E
330
8
100
AcDbSymbolTableRecord
100
AcDbViewportTableRecord
  2
*ACTIVE
 70
     0
 10
0.0
 20
0.0
 11
1.0
 21
1.0
 12
210.0
 22
148.5
 13
0.0
 23
0.0
 14
10.0
 24
10.0
 15
10.0
 25
10.0
 16
0.0
 26
0.0
 36
1.0
 17
0.0
 27
0.0
 37
0.0
 40
341.0
 41
1.24
 42
50.0
 43
0.0
 44
0.0
 50
0.0
 51
0.0
 71
     0
 72
   100
 73
     1
 74
     3
 75
     0
 76
     0
 77
     0
 78
     0
  0
ENDTAB
  0
TABLE
  2
LTYPE
  5
5
330
0
100
AcDbSymbolTable
 70
     1
  0
LTYPE
  5
14
330
5
100
AcDbSymbolTableRecord
100
AcDbLinetypeTableRecord
  2
BYBLOCK
 70
     0
  3

 72
    65
 73
     0
 40
0.0
  0
LTYPE
  5
15
330
5
100
AcDbSymbolTableRecord
100
AcDbLinetypeTableRecord
  2
BYLAYER
 70
     0
  3

 72
    65
 73
     0
 40
0.0
  0
LTYPE
  5
16
330
5
100
AcDbSymbolTableRecord
100
AcDbLinetypeTableRecord
  2
CONTINUOUS
 70
     0
  3
Solid line
 72
    65
 73
     0
 40
0.0
  0
ENDTAB
  0
TABLE
  2
LAYER
  5
2
100
AcDbSymbolTable
 70
2
  0
LAYER
  5
50
100
AcDbSymbolTableRecord
100
AcDbLayerTableRecord
  2
0
 70
0
  6
CONTINUOUS
  0
LAYER
  5
51
100
AcDbSymbolTableRecord
100
AcDbLayerTableRecord
  2
Layer_1
 70
0
  6
CONTINUOUS
  0
ENDTAB
  0
TABLE
  2
STYLE
  5
3
330
0
100
AcDbSymbolTable
 70
     1
  0
STYLE
  5
11
330
3
100
AcDbSymbolTableRecord
100
AcDbTextStyleTableRecord
  2
STANDARD
 70
     0
 40
0.0
 41
1.0
 50
0.0
 71
     0
 42
2.5
  3
txt
  4

  0
ENDTAB
  0
TABLE
  2
VIEW
  5
6
330
0
100
AcDbSymbolTable
 70
     0
  0
ENDTAB
  0
TABLE
  2
UCS
  5
7
330
0
100
AcDbSymbolTable
 70
     0
  0
ENDTAB
  0
TABLE
  2
APPID
  5
9
330
0
100
AcDbSymbolTable
 70
     2
  0
APPID
  5
12
330
9
100
AcDbSymbolTableRecord
100
AcDbRegAppTableRecord
  2
ACAD
 70
     0
  0
ENDTAB
  0
TABLE
  2
DIMSTYLE
  5
A
330
0
100
AcDbSymbolTable
 70
     1
  0
DIMSTYLE
105
27
330
A
100
AcDbSymbolTableRecord
100
AcDbDimStyleTableRecord
  2
ISO-25
 70
     0
  3

  4

  5

  6

  7

 40
1.0
 41
2.5
 42
0.625
 43
3.75
 44
1.25
 45
0.0
 46
0.0
 47
0.0
 48
0.0
140
2.5
141
2.5
142
0.0
143
0.03937007874016
144
1.0
145
0.0
146
1.0
147
0.625
 71
     0
 72
     0
 73
     0
 74
     0
 75
     0
 76
     0
 77
     1
 78
     8
170
     0
171
     3
172
     1
173
     0
174
     0
175
     0
176
     0
177
     0
178
     0
270
     2
271
     2
272
     2
273
     2
274
     3
340
11
275
     0
280
     0
281
     0
282
     0
283
     0
284
     8
285
     0
286
     0
287
     3
288
     0
  0
ENDTAB
  0
TABLE
  2
BLOCK_RECORD
  5
1
330
0
100
AcDbSymbolTable
 70
     1
  0
BLOCK_RECORD
  5
1F
330
1
100
AcDbSymbolTableRecord
100
AcDbBlockTableRecord
  2
*MODEL_SPACE
  0
BLOCK_RECORD
  5
1B
330
1
100
AcDbSymbolTableRecord
100
AcDbBlockTableRecord
  2
*PAPER_SPACE
  0
ENDTAB
  0
ENDSEC
  0
SECTION
  2
BLOCKS
  0
BLOCK
  5
20
330
1F
100
AcDbEntity
  8
0
100
AcDbBlockBegin
  2
*MODEL_SPACE
 70
     0
 10
0.0
 20
0.0
 30
0.0
  3
*MODEL_SPACE
  1

  0
ENDBLK
  5
21
330
1F
100
AcDbEntity
  8
0
100
AcDbBlockEnd
  0
BLOCK
  5
1C
330
1B
100
AcDbEntity
 67
     1
  8
0
100
AcDbBlockBegin
  2
*PAPER_SPACE
  1

  0
ENDBLK
  5
1D
330
1B
100
AcDbEntity
 67
     1
  8
0
100
AcDbBlockEnd
  0
ENDSEC
  0
SECTION
  2
ENTITIES
  0
LWPOLYLINE
  5
100
100
AcDbEntity
  8
Layer_1
 62
7
100
AcDbPolyline
 90
8
 70
1
 10
0.000000
 20
6.000001
 30
0.0
 10
0.000000
 20
5.249989
 30
0.0
 10
0.021249
 20
5.249989
 30
0.0
 10
0.021249
 20
5.978711
 30
0.0
 10
0.750011
 20
5.978711
 30
0.0
 10
0.750011
 20
6.000001
 30
0.0
 10
0.000000
 20
6.000001
 30
0.0
 10
0.000000
 20
6.000001
 30
0.0
  0
LWPOLYLINE
  5
101
100
AcDbEntity
  8
Layer_1
 62
7
100
AcDbPolyline
 90
9
 70
1
 10
5.999989
 20
6.000001
 30
0.0
 10
5.999989
 20
5.978711
 30
0.0
 10
6.728752
 20
5.978711
 30
0.0
 10
6.728752
 20
5.249989
 30
0.0
 10
6.750000
 20
5.249989
 30
0.0
 10
6.750000
 20
5.989335
 30
0.0
 10
6.750000
 20
6.000001
 30
0.0
 10
5.999989
 20
6.000001
 30
0.0
 10
5.999989
 20
6.000001
 30
0.0
  0
LWPOLYLINE
  5
102
100
AcDbEntity
  8
Layer_1
 62
7
100
AcDbPolyline
 90
8
 70
1
 10
0.000007
 20
0.599984
 30
0.0
 10
0.000007
 20
0.000000
 30
0.0
 10
0.750018
 20
0.000000
 30
0.0
 10
0.750018
 20
0.021249
 30
0.0
 10
0.021256
 20
0.021249
 30
0.0
 10
0.021256
 20
0.599984
 30
0.0
 10
0.000007
 20
0.599984
 30
0.0
 10
0.000007
 20
0.599984
 30
0.0
  0
LWPOLYLINE
  5
103
100
AcDbEntity
  8
Layer_1
 62
7
100
AcDbPolyline
 90
8
 70
1
 10
6.728752
 20
0.599984
 30
0.0
 10
6.728752
 20
0.021249
 30
0.0
 10
5.999989
 20
0.021249
 30
0.0
 10
5.999989
 20
0.000000
 30
0.0
 10
6.750000
 20
0.000000
 30
0.0
 10
6.750000
 20
0.599984
 30
0.0
 10
6.728752
 20
0.599984
 30
0.0
 10
6.728752
 20
0.599984
 30
0.0
  0
LWPOLYLINE
  5
104
100
AcDbEntity
  8
Layer_1
 62
7
100
AcDbPolyline
 90
276
 70
0
 10
2.982926
 20
5.728785
 30
0.0
 10
3.014152
 20
5.727952
 30
0.0
 10
3.044839
 20
5.724636
 30
0.0
 10
3.074868
 20
5.718919
 30
0.0
 10
3.104124
 20
5.710887
 30
0.0
 10
3.132489
 20
5.700622
 30
0.0
 10
3.159847
 20
5.688209
 30
0.0
 10
3.186080
 20
5.673731
 30
0.0
 10
3.211071
 20
5.657271
 30
0.0
 10
3.234704
 20
5.638914
 30
0.0
 10
3.256861
 20
5.618744
 30
0.0
 10
3.277426
 20
5.596844
 30
0.0
 10
3.296281
 20
5.573297
 30
0.0
 10
3.313310
 20
5.548189
 30
0.0
 10
3.328395
 20
5.521601
 30
0.0
 10
3.341420
 20
5.493619
 30
0.0
 10
3.352268
 20
5.464326
 30
0.0
 10
3.352340
 20
5.464117
 30
0.0
 10
3.352513
 20
5.464117
 30
0.0
 10
3.430275
 20
5.224752
 30
0.0
 10
3.509987
 20
5.235348
 30
0.0
 10
3.590001
 20
5.243088
 30
0.0
 10
3.670240
 20
5.247964
 30
0.0
 10
3.750628
 20
5.249971
 30
0.0
 10
3.860109
 20
5.247150
 30
0.0
 10
3.968867
 20
5.239053
 30
0.0
 10
4.076726
 20
5.225749
 30
0.0
 10
4.183513
 20
5.207310
 30
0.0
 10
4.289053
 20
5.183807
 30
0.0
 10
4.393169
 20
5.155312
 30
0.0
 10
4.495689
 20
5.121896
 30
0.0
 10
4.596436
 20
5.083630
 30
0.0
 10
4.695235
 20
5.040586
 30
0.0
 10
4.791913
 20
4.992834
 30
0.0
 10
4.886294
 20
4.940445
 30
0.0
 10
4.978203
 20
4.883492
 30
0.0
 10
5.067465
 20
4.822046
 30
0.0
 10
5.153906
 20
4.756177
 30
0.0
 10
5.237350
 20
4.685957
 30
0.0
 10
5.317623
 20
4.611457
 30
0.0
 10
5.521187
 20
4.759375
 30
0.0
 10
5.521395
 20
4.759540
 30
0.0
 10
5.545345
 20
4.775602
 30
0.0
 10
5.570328
 20
4.789759
 30
0.0
 10
5.622935
 20
4.812201
 30
0.0
 10
5.678298
 20
4.826555
 30
0.0
 10
5.706727
 20
4.830600
 30
0.0
 10
5.735502
 20
4.832507
 30
0.0
 10
5.735502
 20
4.832579
 30
0.0
 10
5.782481
 20
4.831019
 30
0.0
 10
5.828402
 20
4.823822
 30
0.0
 10
5.872805
 20
4.811214
 30
0.0
 10
5.915230
 20
4.793423
 30
0.0
 10
5.955215
 20
4.770674
 30
0.0
 10
5.992301
 20
4.743193
 30
0.0
 10
6.026029
 20
4.711208
 30
0.0
 10
6.055936
 20
4.674945
 30
0.0
 10
6.077335
 20
4.642126
 30
0.0
 10
6.094976
 20
4.607974
 30
0.0
 10
6.108903
 20
4.572758
 30
0.0
 10
6.119157
 20
4.536746
 30
0.0
 10
6.125782
 20
4.500208
 30
0.0
 10
6.128820
 20
4.463413
 30
0.0
 10
6.128313
 20
4.426627
 30
0.0
 10
6.124305
 20
4.390121
 30
0.0
 10
6.116836
 20
4.354163
 30
0.0
 10
6.105951
 20
4.319021
 30
0.0
 10
6.091692
 20
4.284965
 30
0.0
 10
6.074101
 20
4.252262
 30
0.0
 10
6.053221
 20
4.221182
 30
0.0
 10
6.029094
 20
4.191993
 30
0.0
 10
6.001763
 20
4.164964
 30
0.0
 10
5.971270
 20
4.140363
 30
0.0
 10
5.971097
 20
4.140197
 30
0.0
 10
5.971169
 20
4.140111
 30
0.0
 10
5.768390
 20
3.992771
 30
0.0
 10
5.822103
 20
3.875580
 30
0.0
 10
5.868909
 20
3.755804
 30
0.0
 10
5.908736
 20
3.633748
 30
0.0
 10
5.941513
 20
3.509719
 30
0.0
 10
5.967169
 20
3.384024
 30
0.0
 10
5.985631
 20
3.256968
 30
0.0
 10
5.996827
 20
3.128860
 30
0.0
 10
6.000687
 20
3.000004
 30
0.0
 10
5.996642
 20
2.871217
 30
0.0
 10
5.985267
 20
2.743186
 30
0.0
 10
5.966636
 20
2.616218
 30
0.0
 10
5.940820
 20
2.490618
 30
0.0
 10
5.907892
 20
2.366693
 30
0.0
 10
5.867923
 20
2.244748
 30
0.0
 10
5.820985
 20
2.125090
 30
0.0
 10
5.767150
 20
2.008024
 30
0.0
 10
5.971128
 20
1.859816
 30
0.0
 10
5.971372
 20
1.859686
 30
0.0
 10
6.001870
 20
1.835085
 30
0.0
 10
6.029205
 20
1.808054
 30
0.0
 10
6.053335
 20
1.778863
 30
0.0
 10
6.074219
 20
1.747781
 30
0.0
 10
6.091812
 20
1.715075
 30
0.0
 10
6.106073
 20
1.681016
 30
0.0
 10
6.116959
 20
1.645871
 30
0.0
 10
6.124428
 20
1.609909
 30
0.0
 10
6.128436
 20
1.573400
 30
0.0
 10
6.128942
 20
1.536611
 30
0.0
 10
6.125903
 20
1.499812
 30
0.0
 10
6.119276
 20
1.463270
 30
0.0
 10
6.109018
 20
1.427256
 30
0.0
 10
6.095088
 20
1.392038
 30
0.0
 10
6.077443
 20
1.357884
 30
0.0
 10
6.056039
 20
1.325062
 30
0.0
 10
6.031438
 20
1.294565
 30
0.0
 10
6.004407
 20
1.267230
 30
0.0
 10
5.975216
 20
1.243099
 30
0.0
 10
5.944133
 20
1.222216
 30
0.0
 10
5.911428
 20
1.204623
 30
0.0
 10
5.877368
 20
1.190362
 30
0.0
 10
5.842224
 20
1.179476
 30
0.0
 10
5.806262
 20
1.172007
 30
0.0
 10
5.769752
 20
1.167999
 30
0.0
 10
5.732964
 20
1.167493
 30
0.0
 10
5.696164
 20
1.170532
 30
0.0
 10
5.659623
 20
1.177160
 30
0.0
 10
5.623609
 20
1.187417
 30
0.0
 10
5.588391
 20
1.201347
 30
0.0
 10
5.554237
 20
1.218993
 30
0.0
 10
5.521415
 20
1.240396
 30
0.0
 10
5.521286
 20
1.240562
 30
0.0
 10
5.521113
 20
1.240562
 30
0.0
 10
5.319369
 20
1.387157
 30
0.0
 10
5.238974
 20
1.312677
 30
0.0
 10
5.155407
 20
1.242486
 30
0.0
 10
5.068845
 20
1.176654
 30
0.0
 10
4.979461
 20
1.115254
 30
0.0
 10
4.887432
 20
1.058356
 30
0.0
 10
4.792932
 20
1.006032
 30
0.0
 10
4.696138
 20
0.958353
 30
0.0
 10
4.597223
 20
0.915389
 30
0.0
 10
4.496365
 20
0.877214
 30
0.0
 10
4.393737
 20
0.843896
 30
0.0
 10
4.289515
 20
0.815508
 30
0.0
 10
4.183875
 20
0.792122
 30
0.0
 10
4.076992
 20
0.773807
 30
0.0
 10
3.969041
 20
0.760636
 30
0.0
 10
3.860198
 20
0.752679
 30
0.0
 10
3.750637
 20
0.750007
 30
0.0
 10
3.670253
 20
0.752139
 30
0.0
 10
3.590022
 20
0.757139
 30
0.0
 10
3.510021
 20
0.765002
 30
0.0
 10
3.430326
 20
0.775722
 30
0.0
 10
3.352398
 20
0.535860
 30
0.0
 10
3.352312
 20
0.535615
 30
0.0
 10
3.338339
 20
0.499013
 30
0.0
 10
3.321079
 20
0.464667
 30
0.0
 10
3.300775
 20
0.432700
 30
0.0
 10
3.277670
 20
0.403237
 30
0.0
 10
3.252004
 20
0.376401
 30
0.0
 10
3.224022
 20
0.352315
 30
0.0
 10
3.193965
 20
0.331102
 30
0.0
 10
3.162075
 20
0.312887
 30
0.0
 10
3.128595
 20
0.297793
 30
0.0
 10
3.093767
 20
0.285942
 30
0.0
 10
3.057834
 20
0.277460
 30
0.0
 10
3.021038
 20
0.272468
 30
0.0
 10
2.983620
 20
0.271092
 30
0.0
 10
2.945825
 20
0.273453
 30
0.0
 10
2.907893
 20
0.279676
 30
0.0
 10
2.870067
 20
0.289884
 30
0.0
 10
2.833461
 20
0.303857
 30
0.0
 10
2.799111
 20
0.321118
 30
0.0
 10
2.767141
 20
0.341423
 30
0.0
 10
2.737676
 20
0.364530
 30
0.0
 10
2.710837
 20
0.390198
 30
0.0
 10
2.686749
 20
0.418183
 30
0.0
 10
2.665536
 20
0.448243
 30
0.0
 10
2.647320
 20
0.480136
 30
0.0
 10
2.632226
 20
0.513619
 30
0.0
 10
2.620376
 20
0.548451
 30
0.0
 10
2.611894
 20
0.584387
 30
0.0
 10
2.606905
 20
0.621187
 30
0.0
 10
2.605531
 20
0.658608
 30
0.0
 10
2.607895
 20
0.696407
 30
0.0
 10
2.614122
 20
0.734342
 30
0.0
 10
2.624335
 20
0.772170
 30
0.0
 10
2.624464
 20
0.772379
 30
0.0
 10
2.624464
 20
0.772544
 30
0.0
 10
2.701938
 20
1.010959
 30
0.0
 10
2.588358
 20
1.075039
 30
0.0
 10
2.479319
 20
1.145149
 30
0.0
 10
2.375008
 20
1.221036
 30
0.0
 10
2.275610
 20
1.302444
 30
0.0
 10
2.181310
 20
1.389118
 30
0.0
 10
2.092293
 20
1.480803
 30
0.0
 10
2.008745
 20
1.577246
 30
0.0
 10
1.930851
 20
1.678191
 30
0.0
 10
1.858795
 20
1.783384
 30
0.0
 10
1.792765
 20
1.892570
 30
0.0
 10
1.732944
 20
2.005493
 30
0.0
 10
1.679518
 20
2.121901
 30
0.0
 10
1.632673
 20
2.241536
 30
0.0
 10
1.592593
 20
2.364146
 30
0.0
 10
1.559464
 20
2.489475
 30
0.0
 10
1.533471
 20
2.617269
 30
0.0
 10
1.284019
 20
2.617269
 30
0.0
 10
1.283774
 20
2.617269
 30
0.0
 10
1.244642
 20
2.619246
 30
0.0
 10
1.206641
 20
2.625047
 30
0.0
 10
1.169962
 20
2.634480
 30
0.0
 10
1.134799
 20
2.647350
 30
0.0
 10
1.101343
 20
2.663468
 30
0.0
 10
1.069787
 20
2.682639
 30
0.0
 10
1.040323
 20
2.704672
 30
0.0
 10
1.013144
 20
2.729375
 30
0.0
 10
0.988441
 20
2.756554
 30
0.0
 10
0.966408
 20
2.786018
 30
0.0
 10
0.947237
 20
2.817574
 30
0.0
 10
0.931119
 20
2.851030
 30
0.0
 10
0.918249
 20
2.886193
 30
0.0
 10
0.908816
 20
2.922872
 30
0.0
 10
0.903015
 20
2.960873
 30
0.0
 10
0.901038
 20
3.000005
 30
0.0
 10
0.903015
 20
3.039137
 30
0.0
 10
0.908816
 20
3.077138
 30
0.0
 10
0.918249
 20
3.113817
 30
0.0
 10
0.931119
 20
3.148981
 30
0.0
 10
0.947237
 20
3.182437
 30
0.0
 10
0.966408
 20
3.213993
 30
0.0
 10
0.988441
 20
3.243457
 30
0.0
 10
1.013144
 20
3.270636
 30
0.0
 10
1.040323
 20
3.295338
 30
0.0
 10
1.069787
 20
3.317371
 30
0.0
 10
1.101343
 20
3.336543
 30
0.0
 10
1.134799
 20
3.352660
 30
0.0
 10
1.169962
 20
3.365531
 30
0.0
 10
1.206641
 20
3.374963
 30
0.0
 10
1.244642
 20
3.380764
 30
0.0
 10
1.283774
 20
3.382742
 30
0.0
 10
1.284019
 20
3.382742
 30
0.0
 10
1.535787
 20
3.382742
 30
0.0
 10
1.561679
 20
3.510455
 30
0.0
 10
1.594698
 20
3.635714
 30
0.0
 10
1.634660
 20
3.758262
 30
0.0
 10
1.681380
 20
3.877846
 30
0.0
 10
1.734673
 20
3.994211
 30
0.0
 10
1.794356
 20
4.107104
 30
0.0
 10
1.860242
 20
4.216269
 30
0.0
 10
1.932147
 20
4.321453
 30
0.0
 10
2.009888
 20
4.422401
 30
0.0
 10
2.093279
 20
4.518858
 30
0.0
 10
2.182135
 20
4.610571
 30
0.0
 10
2.276272
 20
4.697285
 30
0.0
 10
2.375505
 20
4.778746
 30
0.0
 10
2.479650
 20
4.854699
 30
0.0
 10
2.588522
 20
4.924890
 30
0.0
 10
2.701936
 20
4.989065
 30
0.0
 10
2.624462
 20
5.227562
 30
0.0
 10
2.624376
 20
5.227807
 30
0.0
 10
2.614168
 20
5.265632
 30
0.0
 10
2.607945
 20
5.303564
 30
0.0
 10
2.605584
 20
5.341360
 30
0.0
 10
2.606960
 20
5.378777
 30
0.0
 10
2.611952
 20
5.415574
 30
0.0
 10
2.620435
 20
5.451507
 30
0.0
 10
2.632285
 20
5.486335
 30
0.0
 10
2.647379
 20
5.519815
 30
0.0
 10
2.665595
 20
5.551704
 30
0.0
 10
2.686807
 20
5.581761
 30
0.0
 10
2.710893
 20
5.609744
 30
0.0
 10
2.737730
 20
5.635409
 30
0.0
 10
2.767193
 20
5.658514
 30
0.0
 10
2.799159
 20
5.678818
 30
0.0
 10
2.833505
 20
5.696078
 30
0.0
 10
2.870108
 20
5.710051
 30
0.0
 10
2.925815
 20
5.723652
 30
0.0
 10
2.982928
 20
5.728779
 30
0.0
 10
2.983000
 20
5.728779
 30
0.0
 10
2.982926
 20
5.728785
 30
0.0
  0
LWPOLYLINE
  5
105
100
AcDbEntity
  8
Layer_1
 62
7
100
AcDbPolyline
 90
130
 70
0
 10
3.750590
 20
4.950000
 30
0.0
 10
3.653895
 20
4.947603
 30
0.0
 10
3.557856
 20
4.940456
 30
0.0
 10
3.462634
 20
4.928627
 30
0.0
 10
3.368388
 20
4.912181
 30
0.0
 10
3.275277
 20
4.891185
 30
0.0
 10
3.183462
 20
4.865705
 30
0.0
 10
3.093103
 20
4.835807
 30
0.0
 10
3.004359
 20
4.801558
 30
0.0
 10
2.917390
 20
4.763022
 30
0.0
 10
2.832356
 20
4.720268
 30
0.0
 10
2.749417
 20
4.673361
 30
0.0
 10
2.668732
 20
4.622366
 30
0.0
 10
2.590462
 20
4.567351
 30
0.0
 10
2.514767
 20
4.508382
 30
0.0
 10
2.441805
 20
4.445524
 30
0.0
 10
2.371738
 20
4.378844
 30
0.0
 10
2.305059
 20
4.308775
 30
0.0
 10
2.242203
 20
4.235812
 30
0.0
 10
2.183235
 20
4.160116
 30
0.0
 10
2.128222
 20
4.081844
 30
0.0
 10
2.077229
 20
4.001159
 30
0.0
 10
2.030323
 20
3.918219
 30
0.0
 10
1.987571
 20
3.833184
 30
0.0
 10
1.949037
 20
3.746214
 30
0.0
 10
1.914789
 20
3.657469
 30
0.0
 10
1.884893
 20
3.567109
 30
0.0
 10
1.859415
 20
3.475294
 30
0.0
 10
1.838421
 20
3.382183
 30
0.0
 10
1.821977
 20
3.287936
 30
0.0
 10
1.810150
 20
3.192714
 30
0.0
 10
1.803006
 20
3.096675
 30
0.0
 10
1.800610
 20
2.999980
 30
0.0
 10
1.803149
 20
2.899635
 30
0.0
 10
1.810680
 20
2.800607
 30
0.0
 10
1.823081
 20
2.703019
 30
0.0
 10
1.840230
 20
2.606993
 30
0.0
 10
1.862005
 20
2.512652
 30
0.0
 10
1.888282
 20
2.420118
 30
0.0
 10
1.918940
 20
2.329515
 30
0.0
 10
1.953855
 20
2.240964
 30
0.0
 10
1.992905
 20
2.154587
 30
0.0
 10
2.035968
 20
2.070508
 30
0.0
 10
2.082921
 20
1.988849
 30
0.0
 10
2.133642
 20
1.909733
 30
0.0
 10
2.188008
 20
1.833282
 30
0.0
 10
2.245897
 20
1.759618
 30
0.0
 10
2.307186
 20
1.688864
 30
0.0
 10
2.371752
 20
1.621142
 30
0.0
 10
2.439473
 20
1.556576
 30
0.0
 10
2.510227
 20
1.495287
 30
0.0
 10
2.583891
 20
1.437399
 30
0.0
 10
2.660343
 20
1.383033
 30
0.0
 10
2.739459
 20
1.332312
 30
0.0
 10
2.821118
 20
1.285359
 30
0.0
 10
2.905197
 20
1.242295
 30
0.0
 10
2.991573
 20
1.203245
 30
0.0
 10
3.080125
 20
1.168330
 30
0.0
 10
3.170728
 20
1.137672
 30
0.0
 10
3.263262
 20
1.111395
 30
0.0
 10
3.357603
 20
1.089621
 30
0.0
 10
3.453629
 20
1.072471
 30
0.0
 10
3.551217
 20
1.060070
 30
0.0
 10
3.650245
 20
1.052539
 30
0.0
 10
3.750590
 20
1.050001
 30
0.0
 10
3.850937
 20
1.052537
 30
0.0
 10
3.949966
 20
1.060066
 30
0.0
 10
4.047556
 20
1.072466
 30
0.0
 10
4.143583
 20
1.089614
 30
0.0
 10
4.237926
 20
1.111387
 30
0.0
 10
4.330461
 20
1.137663
 30
0.0
 10
4.421066
 20
1.168319
 30
0.0
 10
4.509619
 20
1.203233
 30
0.0
 10
4.595997
 20
1.242283
 30
0.0
 10
4.680078
 20
1.285345
 30
0.0
 10
4.761739
 20
1.332298
 30
0.0
 10
4.840857
 20
1.383019
 30
0.0
 10
4.917310
 20
1.437384
 30
0.0
 10
4.990975
 20
1.495273
 30
0.0
 10
5.061731
 20
1.556561
 30
0.0
 10
5.129454
 20
1.621128
 30
0.0
 10
5.194022
 20
1.688849
 30
0.0
 10
5.255312
 20
1.759604
 30
0.0
 10
5.313202
 20
1.833268
 30
0.0
 10
5.367569
 20
1.909720
 30
0.0
 10
5.418291
 20
1.988837
 30
0.0
 10
5.465246
 20
2.070497
 30
0.0
 10
5.508310
 20
2.154576
 30
0.0
 10
5.547362
 20
2.240954
 30
0.0
 10
5.582278
 20
2.329506
 30
0.0
 10
5.612936
 20
2.420111
 30
0.0
 10
5.639214
 20
2.512645
 30
0.0
 10
5.660989
 20
2.606987
 30
0.0
 10
5.678139
 20
2.703014
 30
0.0
 10
5.690540
 20
2.800604
 30
0.0
 10
5.698072
 20
2.899633
 30
0.0
 10
5.700610
 20
2.999980
 30
0.0
 10
5.698215
 20
3.096676
 30
0.0
 10
5.691070
 20
3.192716
 30
0.0
 10
5.679242
 20
3.287940
 30
0.0
 10
5.662798
 20
3.382188
 30
0.0
 10
5.641804
 20
3.475300
 30
0.0
 10
5.616325
 20
3.567117
 30
0.0
 10
5.586428
 20
3.657478
 30
0.0
 10
5.552179
 20
3.746224
 30
0.0
 10
5.513645
 20
3.833194
 30
0.0
 10
5.470891
 20
3.918230
 30
0.0
 10
5.423984
 20
4.001171
 30
0.0
 10
5.372990
 20
4.081857
 30
0.0
 10
5.317975
 20
4.160129
 30
0.0
 10
5.259006
 20
4.235826
 30
0.0
 10
5.196148
 20
4.308789
 30
0.0
 10
5.129468
 20
4.378859
 30
0.0
 10
5.059399
 20
4.445538
 30
0.0
 10
4.986436
 20
4.508396
 30
0.0
 10
4.910739
 20
4.567366
 30
0.0
 10
4.832467
 20
4.622380
 30
0.0
 10
4.751781
 20
4.673374
 30
0.0
 10
4.668840
 20
4.720281
 30
0.0
 10
4.583804
 20
4.763035
 30
0.0
 10
4.496833
 20
4.801569
 30
0.0
 10
4.408088
 20
4.835818
 30
0.0
 10
4.317727
 20
4.865715
 30
0.0
 10
4.225910
 20
4.891194
 30
0.0
 10
4.132798
 20
4.912188
 30
0.0
 10
4.038550
 20
4.928633
 30
0.0
 10
3.943326
 20
4.940460
 30
0.0
 10
3.847286
 20
4.947605
 30
0.0
 10
3.750590
 20
4.950000
 30
0.0
 10
3.750590
 20
4.950000
 30
0.0
  0
ENDSEC
  0
SECTION
  2
OBJECTS
  0
DICTIONARY
  5
C
330
0
100
AcDbDictionary
  3
ACAD_GROUP
350
D
  3
ACAD_MLINESTYLE
350
17
  0
DICTIONARY
  5
D
330
C
100
AcDbDictionary
  0
DICTIONARY
  5
1A
330
C
100
AcDbDictionary
  0
DICTIONARY
  5
17
330
C
100
AcDbDictionary
  3
STANDARD
350
18
  0
DICTIONARY
  5
19
330
C
100
AcDbDictionary
  0
ENDSEC
  0
EOF
