<?xml version="1.0" encoding="UTF-8" standalone="no"?>
<!-- Created with Inkscape (http://www.inkscape.org/) -->

<svg
   sodipodi:docname="branch-top-view.svg"
   inkscape:version="1.2.2 (b0a8486541, 2022-12-01)"
   xml:space="preserve"
   id="svg5"
   version="1.1"
   viewBox="0 0 210 297"
   height="297mm"
   width="210mm"
   xmlns:inkscape="http://www.inkscape.org/namespaces/inkscape"
   xmlns:sodipodi="http://sodipodi.sourceforge.net/DTD/sodipodi-0.dtd"
   xmlns="http://www.w3.org/2000/svg"
   xmlns:svg="http://www.w3.org/2000/svg"><sodipodi:namedview
     id="namedview7"
     pagecolor="#ffffff"
     bordercolor="#666666"
     borderopacity="1.0"
     inkscape:showpageshadow="2"
     inkscape:pageopacity="0.0"
     inkscape:pagecheckerboard="0"
     inkscape:deskcolor="#d1d1d1"
     inkscape:document-units="mm"
     showgrid="false"
     inkscape:zoom="3.2054345"
     inkscape:cx="396.20214"
     inkscape:cy="99.050535"
     inkscape:window-width="2560"
     inkscape:window-height="1389"
     inkscape:window-x="1920"
     inkscape:window-y="27"
     inkscape:window-maximized="1"
     inkscape:current-layer="layer1" /><defs
     id="defs2" /><g
     inkscape:label="Layer 1"
     inkscape:groupmode="layer"
     id="layer1"><path
       id="path6177"
       style="fill:#ff0000;stroke-width:1"
       d="M 107.40895,-0.01291911 C 101.89828,-0.02450916 95.947128,0.06300925 92.441903,0.23564453 85.233162,0.6289666 78.937747,0.88508116 71.731022,1.7730184 64.524297,2.6609556 56.406219,4.1807207 49.981445,5.7030111 38.64591,8.4216408 31.494761,10.586254 18.971969,14.944824 7.3585175,18.986886 6.987939,19.086455 3.1656982,19.181775 c -3.03204388,0.0756 -3.22527732,0.135199 -3.15484615,0.974617 0.07781572,0.928148 0.63707732,1.72754 1.33170165,1.90376 0.4770679,0.12103 2.0368294,0.16875 2.8168823,0.0863 2.5823904,-0.27307 6.00997,-1.275572 14.270447,-4.173906 C 29.457075,14.103474 38.576635,11.224256 46.201831,9.2965902 60.262228,5.7420764 71.331,4.1038456 86.088285,3.3935913 88.872798,3.2595746 97.686733,3.2103402 100.88738,3.310909 c 7.22184,0.2269225 14.14412,0.7376604 20.26181,1.4949992 1.04408,0.1292508 2.47341,0.3060991 3.17655,0.3927409 1.46603,0.1806423 3.50227,0.4623795 5.07515,0.7022827 0.59661,0.091 1.62511,0.2472088 2.28565,0.3472656 0.66052,0.1000565 3.06652,0.4996543 5.34644,0.8878011 3.23361,0.5505086 7.85688,1.2154297 7.85688,1.2154297 0.10737,0.013165 0.22266,0.015862 0.31626,0.021187 1.23415,1.872e-4 2.23468,-1.0003371 2.23449,-2.234489 -8e-5,-1.1016696 -0.80321,-2.0388369 -1.89187,-2.2076172 -0.73479,-0.099514 -1.46751,-0.2138255 -2.20297,-0.3074747 L 142.72462,2.1373372 C 130.67282,0.71852085 118.53725,0.01516235 107.40895,-0.01291911 Z m 37.79717,5.65133461 c 0.27612,-1.271e-4 0.50007,0.2235917 0.50023,0.4997111 1.3e-4,0.2763212 -0.22391,0.500355 -0.50023,0.5002279 -0.27612,-1.601e-4 -0.49984,-0.2241098 -0.49971,-0.5002279 1.6e-4,-0.2759163 0.22379,-0.4995511 0.49971,-0.4997111 z"
       sodipodi:nodetypes="ccsccccscccssssssscccccccccccc" /></g></svg>
