<?xml version="1.0" encoding="UTF-8" standalone="no"?>
<!-- Created with Inkscape (http://www.inkscape.org/) -->

<svg
   sodipodi:docname="branch-side-view.svg"
   inkscape:version="1.2.2 (b0a8486541, 2022-12-01)"
   xml:space="preserve"
   id="svg5"
   version="1.1"
   viewBox="0 0 210 297"
   height="297mm"
   width="210mm"
   xmlns:inkscape="http://www.inkscape.org/namespaces/inkscape"
   xmlns:sodipodi="http://sodipodi.sourceforge.net/DTD/sodipodi-0.dtd"
   xmlns="http://www.w3.org/2000/svg"
   xmlns:svg="http://www.w3.org/2000/svg"><sodipodi:namedview
     id="namedview7"
     pagecolor="#ffffff"
     bordercolor="#666666"
     borderopacity="1.0"
     inkscape:showpageshadow="2"
     inkscape:pageopacity="0.0"
     inkscape:pagecheckerboard="0"
     inkscape:deskcolor="#d1d1d1"
     inkscape:document-units="mm"
     showgrid="false"
     inkscape:zoom="2.6017345"
     inkscape:cx="340.54205"
     inkscape:cy="24.791154"
     inkscape:window-width="2560"
     inkscape:window-height="1389"
     inkscape:window-x="1920"
     inkscape:window-y="27"
     inkscape:window-maximized="1"
     inkscape:current-layer="layer1" /><defs
     id="defs2" /><g
     inkscape:label="Layer 1"
     inkscape:groupmode="layer"
     id="layer1"><path
       id="path6116"
       style="fill:#000000;stroke-width:1"
       d="M 140.81621 0.039274089 C 140.75461 0.036885191 140.68793 0.037999979 140.61622 0.042374674 C 123.44189 1.6376561 106.30532 3.7558142 89.225045 6.1665487 C 60.422907 10.028285 32.034292 16.576459 4.1847575 24.815023 C -1.3118204 26.121328 -0.54107518 30.445443 2.3559285 32.897217 L 2.8561564 32.965946 C 15.291197 29.510569 27.583149 25.539836 40.067322 22.250838 C 50.302063 19.9173 61.154811 16.318113 71.582194 19.65048 C 74.250147 20.683885 77.106493 20.771977 79.90675 20.854541 C 79.913168 20.85473 79.919454 20.854869 79.925871 20.855058 L 132.41569 20.855058 C 132.46201 20.853707 132.50838 20.852808 132.5547 20.85144 C 132.96149 20.065713 133.35005 19.269297 133.73086 18.46864 L 147.33106 18.46864 L 147.33106 2.7791585 L 140.58263 2.7791585 C 141.31421 1.429994 142.03687 0.086639271 140.81621 0.039274089 z " /></g></svg>
