  0
SECTION
  2
HEADER
  9
$ACADVER
  1
AC1014
  9
$HANDSEED
  5
FFFF
  9
$INSUNITS
 70
     4
  9
$MEASUREMENT
 70
     1
  0
ENDSEC
  0
SECTION
  2
TABLES
  0
TABLE
  2
VPORT
  5
8
330
0
100
AcDbSymbolTable
 70
     4
  0
VPORT
  5
2E
330
8
100
AcDbSymbolTableRecord
100
AcDbViewportTableRecord
  2
*ACTIVE
 70
     0
 10
0.0
 20
0.0
 11
1.0
 21
1.0
 12
210.0
 22
148.5
 13
0.0
 23
0.0
 14
10.0
 24
10.0
 15
10.0
 25
10.0
 16
0.0
 26
0.0
 36
1.0
 17
0.0
 27
0.0
 37
0.0
 40
341.0
 41
1.24
 42
50.0
 43
0.0
 44
0.0
 50
0.0
 51
0.0
 71
     0
 72
   100
 73
     1
 74
     3
 75
     0
 76
     0
 77
     0
 78
     0
  0
ENDTAB
  0
TABLE
  2
LTYPE
  5
5
330
0
100
AcDbSymbolTable
 70
     1
  0
LTYPE
  5
14
330
5
100
AcDbSymbolTableRecord
100
AcDbLinetypeTableRecord
  2
BYBLOCK
 70
     0
  3

 72
    65
 73
     0
 40
0.0
  0
LTYPE
  5
15
330
5
100
AcDbSymbolTableRecord
100
AcDbLinetypeTableRecord
  2
BYLAYER
 70
     0
  3

 72
    65
 73
     0
 40
0.0
  0
LTYPE
  5
16
330
5
100
AcDbSymbolTableRecord
100
AcDbLinetypeTableRecord
  2
CONTINUOUS
 70
     0
  3
Solid line
 72
    65
 73
     0
 40
0.0
  0
ENDTAB
  0
TABLE
  2
LAYER
  5
2
100
AcDbSymbolTable
 70
2
  0
LAYER
  5
50
100
AcDbSymbolTableRecord
100
AcDbLayerTableRecord
  2
0
 70
0
  6
CONTINUOUS
  0
LAYER
  5
51
100
AcDbSymbolTableRecord
100
AcDbLayerTableRecord
  2
Layer_1
 70
0
  6
CONTINUOUS
  0
ENDTAB
  0
TABLE
  2
STYLE
  5
3
330
0
100
AcDbSymbolTable
 70
     1
  0
STYLE
  5
11
330
3
100
AcDbSymbolTableRecord
100
AcDbTextStyleTableRecord
  2
STANDARD
 70
     0
 40
0.0
 41
1.0
 50
0.0
 71
     0
 42
2.5
  3
txt
  4

  0
ENDTAB
  0
TABLE
  2
VIEW
  5
6
330
0
100
AcDbSymbolTable
 70
     0
  0
ENDTAB
  0
TABLE
  2
UCS
  5
7
330
0
100
AcDbSymbolTable
 70
     0
  0
ENDTAB
  0
TABLE
  2
APPID
  5
9
330
0
100
AcDbSymbolTable
 70
     2
  0
APPID
  5
12
330
9
100
AcDbSymbolTableRecord
100
AcDbRegAppTableRecord
  2
ACAD
 70
     0
  0
ENDTAB
  0
TABLE
  2
DIMSTYLE
  5
A
330
0
100
AcDbSymbolTable
 70
     1
  0
DIMSTYLE
105
27
330
A
100
AcDbSymbolTableRecord
100
AcDbDimStyleTableRecord
  2
ISO-25
 70
     0
  3

  4

  5

  6

  7

 40
1.0
 41
2.5
 42
0.625
 43
3.75
 44
1.25
 45
0.0
 46
0.0
 47
0.0
 48
0.0
140
2.5
141
2.5
142
0.0
143
0.03937007874016
144
1.0
145
0.0
146
1.0
147
0.625
 71
     0
 72
     0
 73
     0
 74
     0
 75
     0
 76
     0
 77
     1
 78
     8
170
     0
171
     3
172
     1
173
     0
174
     0
175
     0
176
     0
177
     0
178
     0
270
     2
271
     2
272
     2
273
     2
274
     3
340
11
275
     0
280
     0
281
     0
282
     0
283
     0
284
     8
285
     0
286
     0
287
     3
288
     0
  0
ENDTAB
  0
TABLE
  2
BLOCK_RECORD
  5
1
330
0
100
AcDbSymbolTable
 70
     1
  0
BLOCK_RECORD
  5
1F
330
1
100
AcDbSymbolTableRecord
100
AcDbBlockTableRecord
  2
*MODEL_SPACE
  0
BLOCK_RECORD
  5
1B
330
1
100
AcDbSymbolTableRecord
100
AcDbBlockTableRecord
  2
*PAPER_SPACE
  0
ENDTAB
  0
ENDSEC
  0
SECTION
  2
BLOCKS
  0
BLOCK
  5
20
330
1F
100
AcDbEntity
  8
0
100
AcDbBlockBegin
  2
*MODEL_SPACE
 70
     0
 10
0.0
 20
0.0
 30
0.0
  3
*MODEL_SPACE
  1

  0
ENDBLK
  5
21
330
1F
100
AcDbEntity
  8
0
100
AcDbBlockEnd
  0
BLOCK
  5
1C
330
1B
100
AcDbEntity
 67
     1
  8
0
100
AcDbBlockBegin
  2
*PAPER_SPACE
  1

  0
ENDBLK
  5
1D
330
1B
100
AcDbEntity
 67
     1
  8
0
100
AcDbBlockEnd
  0
ENDSEC
  0
SECTION
  2
ENTITIES
  0
LWPOLYLINE
  5
100
100
AcDbEntity
  8
Layer_1
 62
7
100
AcDbPolyline
 90
60
 70
1
 10
107.409000
 20
297.012919
 30
0.0
 10
99.173400
 20
296.957722
 30
0.0
 10
92.441900
 20
296.764355
 30
0.0
 10
82.085700
 20
296.181149
 30
0.0
 10
76.993700
 20
295.786480
 30
0.0
 10
71.731000
 20
295.226980
 30
0.0
 10
66.195800
 20
294.452390
 30
0.0
 10
60.563000
 20
293.499870
 30
0.0
 10
49.981400
 20
291.296990
 30
0.0
 10
42.115100
 20
289.318960
 30
0.0
 10
34.921900
 20
287.291060
 30
0.0
 10
27.506200
 20
284.955700
 30
0.0
 10
18.972000
 20
282.055200
 30
0.0
 10
12.140300
 20
279.701300
 30
0.0
 10
8.147130
 20
278.456700
 30
0.0
 10
5.614790
 20
277.952000
 30
0.0
 10
3.165700
 20
277.818200
 30
0.0
 10
0.424847
 20
277.617300
 30
0.0
 10
0.047702
 20
277.339400
 30
0.0
 10
0.010852
 20
276.843600
 30
0.0
 10
0.154077
 20
276.179400
 30
0.0
 10
0.445400
 20
275.609800
 30
0.0
 10
0.852374
 20
275.181100
 30
0.0
 10
1.342550
 20
274.939800
 30
0.0
 10
2.637380
 20
274.820400
 30
0.0
 10
4.159440
 20
274.853500
 30
0.0
 10
6.317010
 20
275.213300
 30
0.0
 10
9.165380
 20
275.956000
 30
0.0
 10
18.429900
 20
279.027500
 30
0.0
 10
33.591600
 20
284.093500
 30
0.0
 10
40.196300
 20
286.078600
 30
0.0
 10
46.201800
 20
287.703410
 30
0.0
 10
56.290600
 20
290.025430
 30
0.0
 10
65.883700
 20
291.721510
 30
0.0
 10
75.607500
 20
292.884280
 30
0.0
 10
86.088300
 20
293.606410
 30
0.0
 10
93.331800
 20
293.735720
 30
0.0
 10
100.887000
 20
293.689090
 30
0.0
 10
111.432000
 20
293.140500
 30
0.0
 10
121.149000
 20
292.194090
 30
0.0
 10
124.326000
 20
291.801350
 30
0.0
 10
129.401000
 20
291.099070
 30
0.0
 10
131.687000
 20
290.751800
 30
0.0
 10
137.033000
 20
289.864000
 30
0.0
 10
144.890000
 20
288.648570
 30
0.0
 10
145.206000
 20
288.627380
 30
0.0
 10
146.076000
 20
288.802890
 30
0.0
 10
146.786000
 20
289.281750
 30
0.0
 10
147.265000
 20
289.992050
 30
0.0
 10
147.441000
 20
290.861870
 30
0.0
 10
147.298000
 20
291.647850
 30
0.0
 10
146.903000
 20
292.315520
 30
0.0
 10
146.304000
 20
292.808270
 30
0.0
 10
145.549000
 20
293.069490
 30
0.0
 10
143.346000
 20
293.376970
 30
0.0
 10
142.725000
 20
294.862660
 30
0.0
 10
133.687000
 20
295.793250
 30
0.0
 10
124.720000
 20
296.459317
 30
0.0
 10
115.927000
 20
296.864616
 30
0.0
 10
107.409000
 20
297.012919
 30
0.0
  0
LWPOLYLINE
  5
101
100
AcDbEntity
  8
Layer_1
 62
7
100
AcDbPolyline
 90
9
 70
1
 10
145.206000
 20
291.361580
 30
0.0
 10
145.560000
 20
291.215320
 30
0.0
 10
145.706000
 20
290.861870
 30
0.0
 10
145.560000
 20
290.508090
 30
0.0
 10
145.206000
 20
290.361650
 30
0.0
 10
144.853000
 20
290.508280
 30
0.0
 10
144.706000
 20
290.861870
 30
0.0
 10
144.853000
 20
291.215140
 30
0.0
 10
145.206000
 20
291.361580
 30
0.0
  0
ENDSEC
  0
SECTION
  2
OBJECTS
  0
DICTIONARY
  5
C
330
0
100
AcDbDictionary
  3
ACAD_GROUP
350
D
  3
ACAD_MLINESTYLE
350
17
  0
DICTIONARY
  5
D
330
C
100
AcDbDictionary
  0
DICTIONARY
  5
1A
330
C
100
AcDbDictionary
  0
DICTIONARY
  5
17
330
C
100
AcDbDictionary
  3
STANDARD
350
18
  0
DICTIONARY
  5
19
330
C
100
AcDbDictionary
  0
ENDSEC
  0
EOF
