  0
SECTION
  2
HEADER
  9
$ACADVER
  1
AC1014
  9
$HANDSEED
  5
FFFF
  9
$MEASUREMENT
 70
     1
  0
ENDSEC
  0
SECTION
  2
TABLES
  0
TABLE
  2
VPORT
  5
8
330
0
100
AcDbSymbolTable
 70
     4
  0
VPORT
  5
2E
330
8
100
AcDbSymbolTableRecord
100
AcDbViewportTableRecord
  2
*ACTIVE
 70
     0
 10
0.0
 20
0.0
 11
1.0
 21
1.0
 12
210.0
 22
148.5
 13
0.0
 23
0.0
 14
10.0
 24
10.0
 15
10.0
 25
10.0
 16
0.0
 26
0.0
 36
1.0
 17
0.0
 27
0.0
 37
0.0
 40
341.0
 41
1.24
 42
50.0
 43
0.0
 44
0.0
 50
0.0
 51
0.0
 71
     0
 72
   100
 73
     1
 74
     3
 75
     0
 76
     0
 77
     0
 78
     0
  0
ENDTAB
  0
TABLE
  2
LTYPE
  5
5
330
0
100
AcDbSymbolTable
 70
     1
  0
LTYPE
  5
14
330
5
100
AcDbSymbolTableRecord
100
AcDbLinetypeTableRecord
  2
BYBLOCK
 70
     0
  3

 72
    65
 73
     0
 40
0.0
  0
LTYPE
  5
15
330
5
100
AcDbSymbolTableRecord
100
AcDbLinetypeTableRecord
  2
BYLAYER
 70
     0
  3

 72
    65
 73
     0
 40
0.0
  0
LTYPE
  5
16
330
5
100
AcDbSymbolTableRecord
100
AcDbLinetypeTableRecord
  2
CONTINUOUS
 70
     0
  3
Solid line
 72
    65
 73
     0
 40
0.0
  0
ENDTAB
  0
TABLE
  2
LAYER
  5
2
100
AcDbSymbolTable
 70
2
  0
LAYER
  5
50
100
AcDbSymbolTableRecord
100
AcDbLayerTableRecord
  2
0
 70
0
  6
CONTINUOUS
  0
LAYER
  5
51
100
AcDbSymbolTableRecord
100
AcDbLayerTableRecord
  2
Layer_1
 70
0
  6
CONTINUOUS
  0
ENDTAB
  0
TABLE
  2
STYLE
  5
3
330
0
100
AcDbSymbolTable
 70
     1
  0
STYLE
  5
11
330
3
100
AcDbSymbolTableRecord
100
AcDbTextStyleTableRecord
  2
STANDARD
 70
     0
 40
0.0
 41
1.0
 50
0.0
 71
     0
 42
2.5
  3
txt
  4

  0
ENDTAB
  0
TABLE
  2
VIEW
  5
6
330
0
100
AcDbSymbolTable
 70
     0
  0
ENDTAB
  0
TABLE
  2
UCS
  5
7
330
0
100
AcDbSymbolTable
 70
     0
  0
ENDTAB
  0
TABLE
  2
APPID
  5
9
330
0
100
AcDbSymbolTable
 70
     2
  0
APPID
  5
12
330
9
100
AcDbSymbolTableRecord
100
AcDbRegAppTableRecord
  2
ACAD
 70
     0
  0
ENDTAB
  0
TABLE
  2
DIMSTYLE
  5
A
330
0
100
AcDbSymbolTable
 70
     1
  0
DIMSTYLE
105
27
330
A
100
AcDbSymbolTableRecord
100
AcDbDimStyleTableRecord
  2
ISO-25
 70
     0
  3

  4

  5

  6

  7

 40
1.0
 41
2.5
 42
0.625
 43
3.75
 44
1.25
 45
0.0
 46
0.0
 47
0.0
 48
0.0
140
2.5
141
2.5
142
0.0
143
0.03937007874016
144
1.0
145
0.0
146
1.0
147
0.625
 71
     0
 72
     0
 73
     0
 74
     0
 75
     0
 76
     0
 77
     1
 78
     8
170
     0
171
     3
172
     1
173
     0
174
     0
175
     0
176
     0
177
     0
178
     0
270
     2
271
     2
272
     2
273
     2
274
     3
340
11
275
     0
280
     0
281
     0
282
     0
283
     0
284
     8
285
     0
286
     0
287
     3
288
     0
  0
ENDTAB
  0
TABLE
  2
BLOCK_RECORD
  5
1
330
0
100
AcDbSymbolTable
 70
     1
  0
BLOCK_RECORD
  5
1F
330
1
100
AcDbSymbolTableRecord
100
AcDbBlockTableRecord
  2
*MODEL_SPACE
  0
BLOCK_RECORD
  5
1B
330
1
100
AcDbSymbolTableRecord
100
AcDbBlockTableRecord
  2
*PAPER_SPACE
  0
ENDTAB
  0
ENDSEC
  0
SECTION
  2
BLOCKS
  0
BLOCK
  5
20
330
1F
100
AcDbEntity
  8
0
100
AcDbBlockBegin
  2
*MODEL_SPACE
 70
     0
 10
0.0
 20
0.0
 30
0.0
  3
*MODEL_SPACE
  1

  0
ENDBLK
  5
21
330
1F
100
AcDbEntity
  8
0
100
AcDbBlockEnd
  0
BLOCK
  5
1C
330
1B
100
AcDbEntity
 67
     1
  8
0
100
AcDbBlockBegin
  2
*PAPER_SPACE
  1

  0
ENDBLK
  5
1D
330
1B
100
AcDbEntity
 67
     1
  8
0
100
AcDbBlockEnd
  0
ENDSEC
  0
SECTION
  2
ENTITIES
  0
LWPOLYLINE
  5
100
100
AcDbEntity
  8
Layer_1
 62
7
100
AcDbPolyline
 90
98
 70
0
 10
3.999950
 20
7.499979
 30
0.0
 10
3.819840
 20
7.495424
 30
0.0
 10
3.642095
 20
7.481908
 30
0.0
 10
3.466935
 20
7.459651
 30
0.0
 10
3.294579
 20
7.428871
 30
0.0
 10
3.125246
 20
7.389789
 30
0.0
 10
2.959158
 20
7.342625
 30
0.0
 10
2.796534
 20
7.287599
 30
0.0
 10
2.637594
 20
7.224931
 30
0.0
 10
2.331644
 20
7.077547
 30
0.0
 10
2.043069
 20
6.902233
 30
0.0
 10
1.773628
 20
6.700749
 30
0.0
 10
1.525079
 20
6.474853
 30
0.0
 10
1.299183
 20
6.226304
 30
0.0
 10
1.097698
 20
5.956863
 30
0.0
 10
0.922385
 20
5.668288
 30
0.0
 10
0.775001
 20
5.362338
 30
0.0
 10
0.712333
 20
5.203398
 30
0.0
 10
0.657307
 20
5.040774
 30
0.0
 10
0.610143
 20
4.874685
 30
0.0
 10
0.571061
 20
4.705353
 30
0.0
 10
0.540281
 20
4.532997
 30
0.0
 10
0.518023
 20
4.357836
 30
0.0
 10
0.504507
 20
4.180091
 30
0.0
 10
0.499953
 20
3.999982
 30
0.0
 10
0.504507
 20
3.819873
 30
0.0
 10
0.518023
 20
3.642128
 30
0.0
 10
0.540281
 20
3.466967
 30
0.0
 10
0.571061
 20
3.294611
 30
0.0
 10
0.610143
 20
3.125279
 30
0.0
 10
0.657307
 20
2.959191
 30
0.0
 10
0.712333
 20
2.796566
 30
0.0
 10
0.775001
 20
2.637626
 30
0.0
 10
0.922385
 20
2.331677
 30
0.0
 10
1.097698
 20
2.043102
 30
0.0
 10
1.299183
 20
1.773660
 30
0.0
 10
1.525079
 20
1.525112
 30
0.0
 10
1.773628
 20
1.299216
 30
0.0
 10
2.043069
 20
1.097731
 30
0.0
 10
2.331644
 20
0.922417
 30
0.0
 10
2.637594
 20
0.775034
 30
0.0
 10
2.796534
 20
0.712365
 30
0.0
 10
2.959158
 20
0.657339
 30
0.0
 10
3.125246
 20
0.610176
 30
0.0
 10
3.294579
 20
0.571094
 30
0.0
 10
3.466935
 20
0.540314
 30
0.0
 10
3.642095
 20
0.518056
 30
0.0
 10
3.819840
 20
0.504540
 30
0.0
 10
3.999950
 20
0.499986
 30
0.0
 10
4.180059
 20
0.504540
 30
0.0
 10
4.357804
 20
0.518056
 30
0.0
 10
4.532964
 20
0.540314
 30
0.0
 10
4.705321
 20
0.571094
 30
0.0
 10
4.874653
 20
0.610176
 30
0.0
 10
5.040741
 20
0.657340
 30
0.0
 10
5.203365
 20
0.712366
 30
0.0
 10
5.362305
 20
0.775034
 30
0.0
 10
5.668255
 20
0.922418
 30
0.0
 10
5.956830
 20
1.097731
 30
0.0
 10
6.226271
 20
1.299216
 30
0.0
 10
6.474819
 20
1.525112
 30
0.0
 10
6.700715
 20
1.773661
 30
0.0
 10
6.902200
 20
2.043102
 30
0.0
 10
7.077514
 20
2.331677
 30
0.0
 10
7.224897
 20
2.637626
 30
0.0
 10
7.287566
 20
2.796567
 30
0.0
 10
7.342592
 20
2.959191
 30
0.0
 10
7.389755
 20
3.125279
 30
0.0
 10
7.428837
 20
3.294611
 30
0.0
 10
7.459617
 20
3.466968
 30
0.0
 10
7.481875
 20
3.642128
 30
0.0
 10
7.495391
 20
3.819873
 30
0.0
 10
7.499945
 20
3.999982
 30
0.0
 10
7.495391
 20
4.180091
 30
0.0
 10
7.481875
 20
4.357836
 30
0.0
 10
7.459617
 20
4.532997
 30
0.0
 10
7.428837
 20
4.705353
 30
0.0
 10
7.389755
 20
4.874685
 30
0.0
 10
7.342592
 20
5.040773
 30
0.0
 10
7.287566
 20
5.203398
 30
0.0
 10
7.224897
 20
5.362338
 30
0.0
 10
7.077514
 20
5.668287
 30
0.0
 10
6.902200
 20
5.956862
 30
0.0
 10
6.700715
 20
6.226304
 30
0.0
 10
6.474819
 20
6.474852
 30
0.0
 10
6.226271
 20
6.700748
 30
0.0
 10
5.956830
 20
6.902233
 30
0.0
 10
5.668255
 20
7.077547
 30
0.0
 10
5.362305
 20
7.224931
 30
0.0
 10
5.203365
 20
7.287599
 30
0.0
 10
5.040741
 20
7.342625
 30
0.0
 10
4.874653
 20
7.389789
 30
0.0
 10
4.705321
 20
7.428871
 30
0.0
 10
4.532964
 20
7.459650
 30
0.0
 10
4.357804
 20
7.481908
 30
0.0
 10
4.180059
 20
7.495424
 30
0.0
 10
3.999950
 20
7.499979
 30
0.0
 10
3.999950
 20
7.499979
 30
0.0
  0
LWPOLYLINE
  5
101
100
AcDbEntity
  8
Layer_1
 62
7
100
AcDbPolyline
 90
44
 70
0
 10
4.000006
 20
5.724073
 30
0.0
 10
4.177277
 20
5.715144
 30
0.0
 10
4.348264
 20
5.689016
 30
0.0
 10
4.513187
 20
5.646627
 30
0.0
 10
4.671111
 20
5.588860
 30
0.0
 10
4.821482
 20
5.516430
 30
0.0
 10
4.963641
 20
5.430055
 30
0.0
 10
5.096539
 20
5.330671
 30
0.0
 10
5.219184
 20
5.219215
 30
0.0
 10
5.322426
 20
5.105665
 30
0.0
 10
5.242170
 20
5.049159
 30
0.0
 10
5.171186
 20
4.981872
 30
0.0
 10
5.110792
 20
4.904906
 30
0.0
 10
5.062308
 20
4.819364
 30
0.0
 10
4.963152
 20
4.933930
 30
0.0
 10
4.852350
 20
5.037116
 30
0.0
 10
4.730920
 20
5.127720
 30
0.0
 10
4.599881
 20
5.204543
 30
0.0
 10
4.460252
 20
5.266385
 30
0.0
 10
4.313050
 20
5.312044
 30
0.0
 10
4.159296
 20
5.340322
 30
0.0
 10
4.000006
 20
5.350019
 30
0.0
 10
3.840712
 20
5.340333
 30
0.0
 10
3.686952
 20
5.312065
 30
0.0
 10
3.539744
 20
5.266414
 30
0.0
 10
3.400108
 20
5.204580
 30
0.0
 10
3.269062
 20
5.127764
 30
0.0
 10
3.147624
 20
5.037165
 30
0.0
 10
3.036813
 20
4.933983
 30
0.0
 10
2.937649
 20
4.819419
 30
0.0
 10
2.889169
 20
4.904942
 30
0.0
 10
2.828790
 20
4.981894
 30
0.0
 10
2.757825
 20
5.049169
 30
0.0
 10
2.677586
 20
5.105665
 30
0.0
 10
2.780773
 20
5.219160
 30
0.0
 10
2.903473
 20
5.330726
 30
0.0
 10
3.036317
 20
5.430055
 30
0.0
 10
3.178420
 20
5.516375
 30
0.0
 10
3.328901
 20
5.588860
 30
0.0
 10
3.486825
 20
5.646683
 30
0.0
 10
3.651693
 20
5.689016
 30
0.0
 10
3.822735
 20
5.715144
 30
0.0
 10
4.000006
 20
5.724073
 30
0.0
 10
4.000006
 20
5.724073
 30
0.0
  0
LWPOLYLINE
  5
102
100
AcDbEntity
  8
Layer_1
 62
7
100
AcDbPolyline
 90
36
 70
0
 10
3.999950
 20
4.849956
 30
0.0
 10
4.166552
 20
4.833478
 30
0.0
 10
4.325234
 20
4.785265
 30
0.0
 10
4.471536
 20
4.707162
 30
0.0
 10
4.601000
 20
4.601016
 30
0.0
 10
4.707154
 20
4.471559
 30
0.0
 10
4.785266
 20
4.325262
 30
0.0
 10
4.833490
 20
4.166583
 30
0.0
 10
4.849979
 20
3.999982
 30
0.0
 10
4.833500
 20
3.833373
 30
0.0
 10
4.785282
 20
3.674686
 30
0.0
 10
4.707173
 20
3.528379
 30
0.0
 10
4.601019
 20
3.398912
 30
0.0
 10
4.471553
 20
3.292759
 30
0.0
 10
4.325246
 20
3.214650
 30
0.0
 10
4.166559
 20
3.166432
 30
0.0
 10
3.999950
 20
3.149953
 30
0.0
 10
3.833349
 20
3.166442
 30
0.0
 10
3.674670
 20
3.214666
 30
0.0
 10
3.528373
 20
3.292778
 30
0.0
 10
3.398915
 20
3.398932
 30
0.0
 10
3.292770
 20
3.528396
 30
0.0
 10
3.214667
 20
3.674698
 30
0.0
 10
3.166453
 20
3.833380
 30
0.0
 10
3.149976
 20
3.999982
 30
0.0
 10
3.154366
 20
4.086886
 30
0.0
 10
3.167248
 20
4.171279
 30
0.0
 10
3.216778
 20
4.330826
 30
0.0
 10
3.295146
 20
4.475204
 30
0.0
 10
3.398935
 20
4.600997
 30
0.0
 10
3.524727
 20
4.704786
 30
0.0
 10
3.669106
 20
4.783154
 30
0.0
 10
3.828653
 20
4.832683
 30
0.0
 10
3.913046
 20
4.845565
 30
0.0
 10
3.999950
 20
4.849956
 30
0.0
 10
3.999950
 20
4.849956
 30
0.0
  0
LWPOLYLINE
  5
103
100
AcDbEntity
  8
Layer_1
 62
7
100
AcDbPolyline
 90
18
 70
0
 10
2.349942
 20
4.699970
 30
0.0
 10
2.408320
 20
4.688180
 30
0.0
 10
2.455993
 20
4.656036
 30
0.0
 10
2.488137
 20
4.608363
 30
0.0
 10
2.499928
 20
4.549985
 30
0.0
 10
2.488137
 20
4.491606
 30
0.0
 10
2.455993
 20
4.443933
 30
0.0
 10
2.408320
 20
4.411789
 30
0.0
 10
2.349942
 20
4.399999
 30
0.0
 10
2.291563
 20
4.411790
 30
0.0
 10
2.243890
 20
4.443933
 30
0.0
 10
2.211747
 20
4.491606
 30
0.0
 10
2.199956
 20
4.549985
 30
0.0
 10
2.211747
 20
4.608363
 30
0.0
 10
2.243890
 20
4.656036
 30
0.0
 10
2.291563
 20
4.688180
 30
0.0
 10
2.349942
 20
4.699970
 30
0.0
 10
2.349942
 20
4.699970
 30
0.0
  0
LWPOLYLINE
  5
104
100
AcDbEntity
  8
Layer_1
 62
7
100
AcDbPolyline
 90
18
 70
0
 10
5.649956
 20
4.699970
 30
0.0
 10
5.708335
 20
4.688180
 30
0.0
 10
5.756008
 20
4.656037
 30
0.0
 10
5.788152
 20
4.608364
 30
0.0
 10
5.799943
 20
4.549985
 30
0.0
 10
5.788152
 20
4.491606
 30
0.0
 10
5.756008
 20
4.443933
 30
0.0
 10
5.708335
 20
4.411789
 30
0.0
 10
5.649956
 20
4.399999
 30
0.0
 10
5.591578
 20
4.411790
 30
0.0
 10
5.543905
 20
4.443934
 30
0.0
 10
5.511762
 20
4.491606
 30
0.0
 10
5.499972
 20
4.549985
 30
0.0
 10
5.511762
 20
4.608363
 30
0.0
 10
5.543905
 20
4.656036
 30
0.0
 10
5.591578
 20
4.688179
 30
0.0
 10
5.649956
 20
4.699970
 30
0.0
 10
5.649956
 20
4.699970
 30
0.0
  0
LWPOLYLINE
  5
105
100
AcDbEntity
  8
Layer_1
 62
7
100
AcDbPolyline
 90
40
 70
0
 10
6.113365
 20
4.099807
 30
0.0
 10
6.317313
 20
3.860470
 30
0.0
 10
6.314886
 20
3.810033
 30
0.0
 10
6.285506
 20
3.588996
 30
0.0
 10
6.286551
 20
3.596382
 30
0.0
 10
6.280191
 20
3.472034
 30
0.0
 10
6.296956
 20
3.351546
 30
0.0
 10
6.334872
 20
3.237436
 30
0.0
 10
6.391966
 20
3.132223
 30
0.0
 10
6.466266
 20
3.038424
 30
0.0
 10
6.555798
 20
2.958559
 30
0.0
 10
6.658589
 20
2.895144
 30
0.0
 10
6.772667
 20
2.850698
 30
0.0
 10
6.666713
 20
2.622596
 30
0.0
 10
6.542400
 20
2.405803
 30
0.0
 10
6.400957
 20
2.200948
 30
0.0
 10
6.243610
 20
2.008662
 30
0.0
 10
6.201488
 20
2.087808
 30
0.0
 10
6.149292
 20
2.160311
 30
0.0
 10
6.088026
 20
2.225155
 30
0.0
 10
6.018692
 20
2.281323
 30
0.0
 10
5.942296
 20
2.327801
 30
0.0
 10
5.859840
 20
2.363570
 30
0.0
 10
5.772328
 20
2.387616
 30
0.0
 10
5.680763
 20
2.398922
 30
0.0
 10
5.085728
 20
3.203917
 30
0.0
 10
5.194308
 20
3.376863
 30
0.0
 10
5.276226
 20
3.565601
 30
0.0
 10
5.328723
 20
3.767456
 30
0.0
 10
5.343077
 20
3.872466
 30
0.0
 10
5.349042
 20
3.979752
 30
0.0
 10
5.419167
 20
3.946592
 30
0.0
 10
5.492958
 20
3.921496
 30
0.0
 10
5.570046
 20
3.905602
 30
0.0
 10
5.650063
 20
3.900047
 30
0.0
 10
5.781586
 20
3.914081
 30
0.0
 10
5.904555
 20
3.954104
 30
0.0
 10
6.016103
 20
4.017039
 30
0.0
 10
6.113359
 20
4.099807
 30
0.0
 10
6.113365
 20
4.099807
 30
0.0
  0
LWPOLYLINE
  5
106
100
AcDbEntity
  8
Layer_1
 62
7
100
AcDbPolyline
 90
44
 70
0
 10
2.651126
 20
3.979697
 30
0.0
 10
2.657088
 20
3.872439
 30
0.0
 10
2.671432
 20
3.767455
 30
0.0
 10
2.723890
 20
3.565644
 30
0.0
 10
2.805754
 20
3.376943
 30
0.0
 10
2.914276
 20
3.204027
 30
0.0
 10
2.319184
 20
2.398867
 30
0.0
 10
2.227659
 20
2.387533
 30
0.0
 10
2.140189
 20
2.363473
 30
0.0
 10
2.057775
 20
2.327701
 30
0.0
 10
1.981419
 20
2.281232
 30
0.0
 10
1.912123
 20
2.225080
 30
0.0
 10
1.850889
 20
2.160258
 30
0.0
 10
1.798718
 20
2.087781
 30
0.0
 10
1.756613
 20
2.008662
 30
0.0
 10
1.566786
 20
2.245378
 30
0.0
 10
1.401280
 20
2.500750
 30
0.0
 10
1.261954
 20
2.773296
 30
0.0
 10
1.150663
 20
3.061538
 30
0.0
 10
1.210520
 20
3.001801
 30
0.0
 10
1.276976
 20
2.949747
 30
0.0
 10
1.349149
 20
2.906060
 30
0.0
 10
1.426161
 20
2.871419
 30
0.0
 10
1.507131
 20
2.846509
 30
0.0
 10
1.591180
 20
2.832010
 30
0.0
 10
1.677427
 20
2.828604
 30
0.0
 10
1.764992
 20
2.836973
 30
0.0
 10
1.893861
 20
2.872015
 30
0.0
 10
2.010553
 20
2.930785
 30
0.0
 10
2.112711
 20
3.010059
 30
0.0
 10
2.197983
 20
3.106613
 30
0.0
 10
2.264012
 20
3.217221
 30
0.0
 10
2.308444
 20
3.338658
 30
0.0
 10
2.328924
 20
3.467700
 30
0.0
 10
2.323098
 20
3.601123
 30
0.0
 10
2.321774
 20
3.609667
 30
0.0
 10
2.286662
 20
3.823207
 30
0.0
 10
2.281756
 20
3.907158
 30
0.0
 10
2.350162
 20
3.900047
 30
0.0
 10
2.430159
 20
3.905596
 30
0.0
 10
2.507232
 20
3.921476
 30
0.0
 10
2.581011
 20
3.946554
 30
0.0
 10
2.651125
 20
3.979697
 30
0.0
 10
2.651126
 20
3.979697
 30
0.0
  0
LWPOLYLINE
  5
107
100
AcDbEntity
  8
Layer_1
 62
7
100
AcDbPolyline
 90
36
 70
0
 10
3.556166
 20
2.726509
 30
0.0
 10
3.662485
 20
2.693751
 30
0.0
 10
3.772178
 20
2.669781
 30
0.0
 10
3.884852
 20
2.655062
 30
0.0
 10
4.000115
 20
2.650056
 30
0.0
 10
4.115317
 20
2.655065
 30
0.0
 10
4.227935
 20
2.669775
 30
0.0
 10
4.337576
 20
2.693725
 30
0.0
 10
4.443843
 20
2.726454
 30
0.0
 10
5.028297
 20
1.935736
 30
0.0
 10
5.007376
 20
1.844794
 30
0.0
 10
5.000130
 20
1.749976
 30
0.0
 10
5.016425
 20
1.609418
 30
0.0
 10
5.062623
 20
1.479214
 30
0.0
 10
5.134695
 20
1.362657
 30
0.0
 10
5.228609
 20
1.263033
 30
0.0
 10
4.940220
 20
1.151236
 30
0.0
 10
4.638334
 20
1.068732
 30
0.0
 10
4.482802
 20
1.039133
 30
0.0
 10
4.324462
 20
1.017659
 30
0.0
 10
4.163503
 20
1.004579
 30
0.0
 10
4.000115
 20
1.000158
 30
0.0
 10
3.836727
 20
1.004578
 30
0.0
 10
3.675768
 20
1.017658
 30
0.0
 10
3.517428
 20
1.039131
 30
0.0
 10
3.361896
 20
1.068731
 30
0.0
 10
3.060010
 20
1.151236
 30
0.0
 10
2.771621
 20
1.263033
 30
0.0
 10
2.865536
 20
1.362657
 30
0.0
 10
2.937607
 20
1.479214
 30
0.0
 10
2.983805
 20
1.609418
 30
0.0
 10
3.000100
 20
1.749976
 30
0.0
 10
2.992841
 20
1.844911
 30
0.0
 10
2.971878
 20
1.935956
 30
0.0
 10
3.556166
 20
2.726509
 30
0.0
 10
3.556166
 20
2.726509
 30
0.0
  0
LWPOLYLINE
  5
108
100
AcDbEntity
  8
Layer_1
 62
7
100
AcDbPolyline
 90
18
 70
0
 10
2.349942
 20
1.900017
 30
0.0
 10
2.407349
 20
1.888591
 30
0.0
 10
2.456013
 20
1.856064
 30
0.0
 10
2.488523
 20
1.807388
 30
0.0
 10
2.499928
 20
1.749976
 30
0.0
 10
2.488137
 20
1.691598
 30
0.0
 10
2.455993
 20
1.643925
 30
0.0
 10
2.408320
 20
1.611781
 30
0.0
 10
2.349942
 20
1.599991
 30
0.0
 10
2.291563
 20
1.611781
 30
0.0
 10
2.243890
 20
1.643925
 30
0.0
 10
2.211747
 20
1.691598
 30
0.0
 10
2.199956
 20
1.749976
 30
0.0
 10
2.211361
 20
1.807388
 30
0.0
 10
2.243871
 20
1.856064
 30
0.0
 10
2.292534
 20
1.888591
 30
0.0
 10
2.349942
 20
1.900017
 30
0.0
 10
2.349942
 20
1.900017
 30
0.0
  0
LWPOLYLINE
  5
109
100
AcDbEntity
  8
Layer_1
 62
7
100
AcDbPolyline
 90
18
 70
0
 10
5.649956
 20
1.900017
 30
0.0
 10
5.707364
 20
1.888592
 30
0.0
 10
5.756028
 20
1.856064
 30
0.0
 10
5.788538
 20
1.807389
 30
0.0
 10
5.799943
 20
1.749976
 30
0.0
 10
5.788152
 20
1.691597
 30
0.0
 10
5.756008
 20
1.643924
 30
0.0
 10
5.708335
 20
1.611781
 30
0.0
 10
5.649956
 20
1.599991
 30
0.0
 10
5.591578
 20
1.611782
 30
0.0
 10
5.543905
 20
1.643925
 30
0.0
 10
5.511762
 20
1.691598
 30
0.0
 10
5.499972
 20
1.749976
 30
0.0
 10
5.511377
 20
1.807388
 30
0.0
 10
5.543886
 20
1.856063
 30
0.0
 10
5.592549
 20
1.888591
 30
0.0
 10
5.649956
 20
1.900017
 30
0.0
 10
5.649956
 20
1.900017
 30
0.0
  0
LWPOLYLINE
  5
10a
100
AcDbEntity
  8
Layer_1
 62
7
100
AcDbPolyline
 90
7
 70
1
 10
7.971668
 20
0.799979
 30
0.0
 10
7.971668
 20
0.028333
 30
0.0
 10
6.999985
 20
0.028333
 30
0.0
 10
6.999985
 20
0.000001
 30
0.0
 10
8.000000
 20
0.000001
 30
0.0
 10
8.000000
 20
0.799979
 30
0.0
 10
7.971668
 20
0.799979
 30
0.0
  0
LWPOLYLINE
  5
10b
100
AcDbEntity
  8
Layer_1
 62
7
100
AcDbPolyline
 90
7
 70
1
 10
-0.000000
 20
0.799979
 30
0.0
 10
-0.000000
 20
0.000000
 30
0.0
 10
1.000015
 20
0.000000
 30
0.0
 10
1.000015
 20
0.028333
 30
0.0
 10
0.028335
 20
0.028333
 30
0.0
 10
0.028335
 20
0.799979
 30
0.0
 10
-0.000000
 20
0.799979
 30
0.0
  0
LWPOLYLINE
  5
10c
100
AcDbEntity
  8
Layer_1
 62
7
100
AcDbPolyline
 90
7
 70
1
 10
-0.000000
 20
8.000001
 30
0.0
 10
-0.000000
 20
6.999989
 30
0.0
 10
0.028335
 20
6.999989
 30
0.0
 10
0.028335
 20
7.971615
 30
0.0
 10
1.000015
 20
7.971615
 30
0.0
 10
1.000015
 20
8.000001
 30
0.0
 10
-0.000000
 20
8.000001
 30
0.0
  0
LWPOLYLINE
  5
10d
100
AcDbEntity
  8
Layer_1
 62
7
100
AcDbPolyline
 90
8
 70
1
 10
6.999985
 20
8.000001
 30
0.0
 10
6.999985
 20
7.971614
 30
0.0
 10
7.971668
 20
7.971614
 30
0.0
 10
7.971668
 20
6.999987
 30
0.0
 10
8.000000
 20
6.999987
 30
0.0
 10
8.000000
 20
7.985780
 30
0.0
 10
8.000000
 20
8.000001
 30
0.0
 10
6.999985
 20
8.000001
 30
0.0
  0
ENDSEC
  0
SECTION
  2
OBJECTS
  0
DICTIONARY
  5
C
330
0
100
AcDbDictionary
  3
ACAD_GROUP
350
D
  3
ACAD_MLINESTYLE
350
17
  0
DICTIONARY
  5
D
330
C
100
AcDbDictionary
  0
DICTIONARY
  5
1A
330
C
100
AcDbDictionary
  0
DICTIONARY
  5
17
330
C
100
AcDbDictionary
  3
STANDARD
350
18
  0
DICTIONARY
  5
19
330
C
100
AcDbDictionary
  0
ENDSEC
  0
EOF
