  0
SECTION
  2
HEADER
  9
$ACADVER
  1
AC1014
  9
$HANDSEED
  5
FFFF
  9
$MEASUREMENT
 70
     1
  0
ENDSEC
  0
SECTION
  2
TABLES
  0
TABLE
  2
VPORT
  5
8
330
0
100
AcDbSymbolTable
 70
     4
  0
VPORT
  5
2E
330
8
100
AcDbSymbolTableRecord
100
AcDbViewportTableRecord
  2
*ACTIVE
 70
     0
 10
0.0
 20
0.0
 11
1.0
 21
1.0
 12
210.0
 22
148.5
 13
0.0
 23
0.0
 14
10.0
 24
10.0
 15
10.0
 25
10.0
 16
0.0
 26
0.0
 36
1.0
 17
0.0
 27
0.0
 37
0.0
 40
341.0
 41
1.24
 42
50.0
 43
0.0
 44
0.0
 50
0.0
 51
0.0
 71
     0
 72
   100
 73
     1
 74
     3
 75
     0
 76
     0
 77
     0
 78
     0
  0
ENDTAB
  0
TABLE
  2
LTYPE
  5
5
330
0
100
AcDbSymbolTable
 70
     1
  0
LTYPE
  5
14
330
5
100
AcDbSymbolTableRecord
100
AcDbLinetypeTableRecord
  2
BYBLOCK
 70
     0
  3

 72
    65
 73
     0
 40
0.0
  0
LTYPE
  5
15
330
5
100
AcDbSymbolTableRecord
100
AcDbLinetypeTableRecord
  2
BYLAYER
 70
     0
  3

 72
    65
 73
     0
 40
0.0
  0
LTYPE
  5
16
330
5
100
AcDbSymbolTableRecord
100
AcDbLinetypeTableRecord
  2
CONTINUOUS
 70
     0
  3
Solid line
 72
    65
 73
     0
 40
0.0
  0
ENDTAB
  0
TABLE
  2
LAYER
  5
2
100
AcDbSymbolTable
 70
2
  0
LAYER
  5
50
100
AcDbSymbolTableRecord
100
AcDbLayerTableRecord
  2
0
 70
0
  6
CONTINUOUS
  0
LAYER
  5
51
100
AcDbSymbolTableRecord
100
AcDbLayerTableRecord
  2
Layer_1
 70
0
  6
CONTINUOUS
  0
ENDTAB
  0
TABLE
  2
STYLE
  5
3
330
0
100
AcDbSymbolTable
 70
     1
  0
STYLE
  5
11
330
3
100
AcDbSymbolTableRecord
100
AcDbTextStyleTableRecord
  2
STANDARD
 70
     0
 40
0.0
 41
1.0
 50
0.0
 71
     0
 42
2.5
  3
txt
  4

  0
ENDTAB
  0
TABLE
  2
VIEW
  5
6
330
0
100
AcDbSymbolTable
 70
     0
  0
ENDTAB
  0
TABLE
  2
UCS
  5
7
330
0
100
AcDbSymbolTable
 70
     0
  0
ENDTAB
  0
TABLE
  2
APPID
  5
9
330
0
100
AcDbSymbolTable
 70
     2
  0
APPID
  5
12
330
9
100
AcDbSymbolTableRecord
100
AcDbRegAppTableRecord
  2
ACAD
 70
     0
  0
ENDTAB
  0
TABLE
  2
DIMSTYLE
  5
A
330
0
100
AcDbSymbolTable
 70
     1
  0
DIMSTYLE
105
27
330
A
100
AcDbSymbolTableRecord
100
AcDbDimStyleTableRecord
  2
ISO-25
 70
     0
  3

  4

  5

  6

  7

 40
1.0
 41
2.5
 42
0.625
 43
3.75
 44
1.25
 45
0.0
 46
0.0
 47
0.0
 48
0.0
140
2.5
141
2.5
142
0.0
143
0.03937007874016
144
1.0
145
0.0
146
1.0
147
0.625
 71
     0
 72
     0
 73
     0
 74
     0
 75
     0
 76
     0
 77
     1
 78
     8
170
     0
171
     3
172
     1
173
     0
174
     0
175
     0
176
     0
177
     0
178
     0
270
     2
271
     2
272
     2
273
     2
274
     3
340
11
275
     0
280
     0
281
     0
282
     0
283
     0
284
     8
285
     0
286
     0
287
     3
288
     0
  0
ENDTAB
  0
TABLE
  2
BLOCK_RECORD
  5
1
330
0
100
AcDbSymbolTable
 70
     1
  0
BLOCK_RECORD
  5
1F
330
1
100
AcDbSymbolTableRecord
100
AcDbBlockTableRecord
  2
*MODEL_SPACE
  0
BLOCK_RECORD
  5
1B
330
1
100
AcDbSymbolTableRecord
100
AcDbBlockTableRecord
  2
*PAPER_SPACE
  0
ENDTAB
  0
ENDSEC
  0
SECTION
  2
BLOCKS
  0
BLOCK
  5
20
330
1F
100
AcDbEntity
  8
0
100
AcDbBlockBegin
  2
*MODEL_SPACE
 70
     0
 10
0.0
 20
0.0
 30
0.0
  3
*MODEL_SPACE
  1

  0
ENDBLK
  5
21
330
1F
100
AcDbEntity
  8
0
100
AcDbBlockEnd
  0
BLOCK
  5
1C
330
1B
100
AcDbEntity
 67
     1
  8
0
100
AcDbBlockBegin
  2
*PAPER_SPACE
  1

  0
ENDBLK
  5
1D
330
1B
100
AcDbEntity
 67
     1
  8
0
100
AcDbBlockEnd
  0
ENDSEC
  0
SECTION
  2
ENTITIES
  0
LWPOLYLINE
  5
100
100
AcDbEntity
  8
Layer_1
 62
7
100
AcDbPolyline
 90
25
 70
1
 10
7.251285
 20
2.411179
 30
0.0
 10
7.015397
 20
2.414782
 30
0.0
 10
7.045865
 20
2.528021
 30
0.0
 10
6.839778
 20
2.413197
 30
0.0
 10
6.809544
 20
2.526498
 30
0.0
 10
6.688481
 20
2.324015
 30
0.0
 10
6.605647
 20
2.407020
 30
0.0
 10
6.602044
 20
2.171132
 30
0.0
 10
6.488805
 20
2.201599
 30
0.0
 10
6.603629
 20
1.995513
 30
0.0
 10
6.490327
 20
1.965279
 30
0.0
 10
6.692811
 20
1.844216
 30
0.0
 10
6.609806
 20
1.761381
 30
0.0
 10
6.845694
 20
1.757779
 30
0.0
 10
6.815226
 20
1.644540
 30
0.0
 10
7.021312
 20
1.759364
 30
0.0
 10
7.051546
 20
1.646062
 30
0.0
 10
7.172610
 20
1.848546
 30
0.0
 10
7.255444
 20
1.765541
 30
0.0
 10
7.259046
 20
2.001429
 30
0.0
 10
7.372286
 20
1.970961
 30
0.0
 10
7.257462
 20
2.177047
 30
0.0
 10
7.370763
 20
2.207281
 30
0.0
 10
7.168279
 20
2.328345
 30
0.0
 10
7.251285
 20
2.411179
 30
0.0
  0
LWPOLYLINE
  5
101
100
AcDbEntity
  8
Layer_1
 62
7
100
AcDbPolyline
 90
25
 70
1
 10
6.551284
 20
1.111179
 30
0.0
 10
6.315397
 20
1.114781
 30
0.0
 10
6.345864
 20
1.228021
 30
0.0
 10
6.139778
 20
1.113196
 30
0.0
 10
6.109544
 20
1.226498
 30
0.0
 10
5.988480
 20
1.024014
 30
0.0
 10
5.905646
 20
1.107020
 30
0.0
 10
5.902044
 20
0.871132
 30
0.0
 10
5.788804
 20
0.901599
 30
0.0
 10
5.903629
 20
0.695513
 30
0.0
 10
5.790327
 20
0.665279
 30
0.0
 10
5.992811
 20
0.544216
 30
0.0
 10
5.909805
 20
0.461381
 30
0.0
 10
6.145693
 20
0.457779
 30
0.0
 10
6.115226
 20
0.344540
 30
0.0
 10
6.321312
 20
0.459364
 30
0.0
 10
6.351546
 20
0.346062
 30
0.0
 10
6.472609
 20
0.548546
 30
0.0
 10
6.555444
 20
0.465541
 30
0.0
 10
6.559046
 20
0.701428
 30
0.0
 10
6.672285
 20
0.670961
 30
0.0
 10
6.557461
 20
0.877047
 30
0.0
 10
6.670763
 20
0.907281
 30
0.0
 10
6.468279
 20
1.028344
 30
0.0
 10
6.551284
 20
1.111179
 30
0.0
  0
LWPOLYLINE
  5
102
100
AcDbEntity
  8
Layer_1
 62
7
100
AcDbPolyline
 90
25
 70
1
 10
5.920750
 20
2.824900
 30
0.0
 10
5.684862
 20
2.828502
 30
0.0
 10
5.715329
 20
2.941742
 30
0.0
 10
5.509243
 20
2.826918
 30
0.0
 10
5.479009
 20
2.940219
 30
0.0
 10
5.357946
 20
2.737735
 30
0.0
 10
5.275111
 20
2.820741
 30
0.0
 10
5.271509
 20
2.584853
 30
0.0
 10
5.158270
 20
2.615320
 30
0.0
 10
5.273094
 20
2.409234
 30
0.0
 10
5.159792
 20
2.379000
 30
0.0
 10
5.362276
 20
2.257937
 30
0.0
 10
5.279271
 20
2.175102
 30
0.0
 10
5.515159
 20
2.171500
 30
0.0
 10
5.484691
 20
2.058261
 30
0.0
 10
5.690777
 20
2.173085
 30
0.0
 10
5.721011
 20
2.059783
 30
0.0
 10
5.842074
 20
2.262267
 30
0.0
 10
5.924909
 20
2.179262
 30
0.0
 10
5.928511
 20
2.415150
 30
0.0
 10
6.041750
 20
2.384682
 30
0.0
 10
5.926926
 20
2.590768
 30
0.0
 10
6.040228
 20
2.621002
 30
0.0
 10
5.837744
 20
2.742065
 30
0.0
 10
5.920750
 20
2.824900
 30
0.0
  0
LWPOLYLINE
  5
103
100
AcDbEntity
  8
Layer_1
 62
7
100
AcDbPolyline
 90
25
 70
1
 10
5.220749
 20
1.524900
 30
0.0
 10
4.984861
 20
1.528502
 30
0.0
 10
5.015329
 20
1.641742
 30
0.0
 10
4.809243
 20
1.526917
 30
0.0
 10
4.779009
 20
1.640219
 30
0.0
 10
4.657945
 20
1.437735
 30
0.0
 10
4.575111
 20
1.520740
 30
0.0
 10
4.571508
 20
1.284852
 30
0.0
 10
4.458269
 20
1.315320
 30
0.0
 10
4.573093
 20
1.109234
 30
0.0
 10
4.459791
 20
1.079000
 30
0.0
 10
4.662275
 20
0.957936
 30
0.0
 10
4.579270
 20
0.875102
 30
0.0
 10
4.815158
 20
0.871500
 30
0.0
 10
4.784691
 20
0.758260
 30
0.0
 10
4.990777
 20
0.873085
 30
0.0
 10
5.021010
 20
0.759783
 30
0.0
 10
5.142074
 20
0.962267
 30
0.0
 10
5.224908
 20
0.879261
 30
0.0
 10
5.228511
 20
1.115149
 30
0.0
 10
5.341750
 20
1.084682
 30
0.0
 10
5.226926
 20
1.290768
 30
0.0
 10
5.340227
 20
1.321002
 30
0.0
 10
5.137744
 20
1.442065
 30
0.0
 10
5.220749
 20
1.524900
 30
0.0
  0
LWPOLYLINE
  5
104
100
AcDbEntity
  8
Layer_1
 62
7
100
AcDbPolyline
 90
25
 70
1
 10
4.321825
 20
2.475187
 30
0.0
 10
4.085937
 20
2.478790
 30
0.0
 10
4.116405
 20
2.592029
 30
0.0
 10
3.910318
 20
2.477205
 30
0.0
 10
3.880085
 20
2.590506
 30
0.0
 10
3.759021
 20
2.388023
 30
0.0
 10
3.676187
 20
2.471028
 30
0.0
 10
3.672584
 20
2.235140
 30
0.0
 10
3.559345
 20
2.265607
 30
0.0
 10
3.674169
 20
2.059521
 30
0.0
 10
3.560867
 20
2.029287
 30
0.0
 10
3.763351
 20
1.908224
 30
0.0
 10
3.680346
 20
1.825389
 30
0.0
 10
3.916234
 20
1.821787
 30
0.0
 10
3.885767
 20
1.708548
 30
0.0
 10
4.091852
 20
1.823372
 30
0.0
 10
4.122086
 20
1.710070
 30
0.0
 10
4.243150
 20
1.912554
 30
0.0
 10
4.325984
 20
1.829549
 30
0.0
 10
4.329586
 20
2.065437
 30
0.0
 10
4.442826
 20
2.034969
 30
0.0
 10
4.328002
 20
2.241055
 30
0.0
 10
4.441303
 20
2.271289
 30
0.0
 10
4.238820
 20
2.392353
 30
0.0
 10
4.321825
 20
2.475187
 30
0.0
  0
LWPOLYLINE
  5
105
100
AcDbEntity
  8
Layer_1
 62
7
100
AcDbPolyline
 90
25
 70
1
 10
3.621824
 20
1.175187
 30
0.0
 10
3.385937
 20
1.178789
 30
0.0
 10
3.416404
 20
1.292029
 30
0.0
 10
3.210318
 20
1.177204
 30
0.0
 10
3.180084
 20
1.290506
 30
0.0
 10
3.059020
 20
1.088022
 30
0.0
 10
2.976186
 20
1.171028
 30
0.0
 10
2.972584
 20
0.935140
 30
0.0
 10
2.859344
 20
0.965607
 30
0.0
 10
2.974169
 20
0.759521
 30
0.0
 10
2.860867
 20
0.729287
 30
0.0
 10
3.063351
 20
0.608224
 30
0.0
 10
2.980345
 20
0.525389
 30
0.0
 10
3.216233
 20
0.521787
 30
0.0
 10
3.185766
 20
0.408548
 30
0.0
 10
3.391852
 20
0.523372
 30
0.0
 10
3.422086
 20
0.410070
 30
0.0
 10
3.543149
 20
0.612554
 30
0.0
 10
3.625984
 20
0.529549
 30
0.0
 10
3.629586
 20
0.765436
 30
0.0
 10
3.742825
 20
0.734969
 30
0.0
 10
3.628001
 20
0.941055
 30
0.0
 10
3.741303
 20
0.971289
 30
0.0
 10
3.538819
 20
1.092352
 30
0.0
 10
3.621824
 20
1.175187
 30
0.0
  0
LWPOLYLINE
  5
106
100
AcDbEntity
  8
Layer_1
 62
7
100
AcDbPolyline
 90
8
 70
1
 10
0.000000
 20
-0.000000
 30
0.0
 10
0.000000
 20
1.000015
 30
0.0
 10
0.028332
 20
1.000015
 30
0.0
 10
0.028332
 20
0.028386
 30
0.0
 10
1.000015
 20
0.028386
 30
0.0
 10
1.000015
 20
-0.000000
 30
0.0
 10
-0.000000
 20
-0.000000
 30
0.0
 10
0.000000
 20
-0.000000
 30
0.0
  0
LWPOLYLINE
  5
107
100
AcDbEntity
  8
Layer_1
 62
7
100
AcDbPolyline
 90
9
 70
1
 10
7.999985
 20
-0.000000
 30
0.0
 10
7.999985
 20
0.028386
 30
0.0
 10
8.971668
 20
0.028386
 30
0.0
 10
8.971668
 20
1.000015
 30
0.0
 10
9.000000
 20
1.000015
 30
0.0
 10
9.000000
 20
0.014221
 30
0.0
 10
9.000000
 20
-0.000000
 30
0.0
 10
7.999985
 20
-0.000000
 30
0.0
 10
7.999985
 20
-0.000000
 30
0.0
  0
LWPOLYLINE
  5
108
100
AcDbEntity
  8
Layer_1
 62
7
100
AcDbPolyline
 90
8
 70
1
 10
0.000000
 20
3.200022
 30
0.0
 10
0.000000
 20
4.000000
 30
0.0
 10
1.000015
 20
4.000000
 30
0.0
 10
1.000015
 20
3.971668
 30
0.0
 10
0.028332
 20
3.971668
 30
0.0
 10
0.028332
 20
3.200022
 30
0.0
 10
0.000000
 20
3.200022
 30
0.0
 10
0.000000
 20
3.200022
 30
0.0
  0
LWPOLYLINE
  5
109
100
AcDbEntity
  8
Layer_1
 62
7
100
AcDbPolyline
 90
8
 70
1
 10
8.971668
 20
3.200022
 30
0.0
 10
8.971668
 20
3.971668
 30
0.0
 10
7.999985
 20
3.971668
 30
0.0
 10
7.999985
 20
4.000000
 30
0.0
 10
9.000000
 20
4.000000
 30
0.0
 10
9.000000
 20
3.200022
 30
0.0
 10
8.971668
 20
3.200022
 30
0.0
 10
8.971668
 20
3.200022
 30
0.0
  0
ENDSEC
  0
SECTION
  2
OBJECTS
  0
DICTIONARY
  5
C
330
0
100
AcDbDictionary
  3
ACAD_GROUP
350
D
  3
ACAD_MLINESTYLE
350
17
  0
DICTIONARY
  5
D
330
C
100
AcDbDictionary
  0
DICTIONARY
  5
1A
330
C
100
AcDbDictionary
  0
DICTIONARY
  5
17
330
C
100
AcDbDictionary
  3
STANDARD
350
18
  0
DICTIONARY
  5
19
330
C
100
AcDbDictionary
  0
ENDSEC
  0
EOF
