  0
SECTION
  2
HEADER
  9
$ACADVER
  1
AC1014
  9
$HANDSEED
  5
FFFF
  9
$MEASUREMENT
 70
     1
  0
ENDSEC
  0
SECTION
  2
TABLES
  0
TABLE
  2
VPORT
  5
8
330
0
100
AcDbSymbolTable
 70
     4
  0
VPORT
  5
2E
330
8
100
AcDbSymbolTableRecord
100
AcDbViewportTableRecord
  2
*ACTIVE
 70
     0
 10
0.0
 20
0.0
 11
1.0
 21
1.0
 12
210.0
 22
148.5
 13
0.0
 23
0.0
 14
10.0
 24
10.0
 15
10.0
 25
10.0
 16
0.0
 26
0.0
 36
1.0
 17
0.0
 27
0.0
 37
0.0
 40
341.0
 41
1.24
 42
50.0
 43
0.0
 44
0.0
 50
0.0
 51
0.0
 71
     0
 72
   100
 73
     1
 74
     3
 75
     0
 76
     0
 77
     0
 78
     0
  0
ENDTAB
  0
TABLE
  2
LTYPE
  5
5
330
0
100
AcDbSymbolTable
 70
     1
  0
LTYPE
  5
14
330
5
100
AcDbSymbolTableRecord
100
AcDbLinetypeTableRecord
  2
BYBLOCK
 70
     0
  3

 72
    65
 73
     0
 40
0.0
  0
LTYPE
  5
15
330
5
100
AcDbSymbolTableRecord
100
AcDbLinetypeTableRecord
  2
BYLAYER
 70
     0
  3

 72
    65
 73
     0
 40
0.0
  0
LTYPE
  5
16
330
5
100
AcDbSymbolTableRecord
100
AcDbLinetypeTableRecord
  2
CONTINUOUS
 70
     0
  3
Solid line
 72
    65
 73
     0
 40
0.0
  0
ENDTAB
  0
TABLE
  2
LAYER
  5
2
100
AcDbSymbolTable
 70
2
  0
LAYER
  5
50
100
AcDbSymbolTableRecord
100
AcDbLayerTableRecord
  2
0
 70
0
  6
CONTINUOUS
  0
LAYER
  5
51
100
AcDbSymbolTableRecord
100
AcDbLayerTableRecord
  2
Layer_1
 70
0
  6
CONTINUOUS
  0
ENDTAB
  0
TABLE
  2
STYLE
  5
3
330
0
100
AcDbSymbolTable
 70
     1
  0
STYLE
  5
11
330
3
100
AcDbSymbolTableRecord
100
AcDbTextStyleTableRecord
  2
STANDARD
 70
     0
 40
0.0
 41
1.0
 50
0.0
 71
     0
 42
2.5
  3
txt
  4

  0
ENDTAB
  0
TABLE
  2
VIEW
  5
6
330
0
100
AcDbSymbolTable
 70
     0
  0
ENDTAB
  0
TABLE
  2
UCS
  5
7
330
0
100
AcDbSymbolTable
 70
     0
  0
ENDTAB
  0
TABLE
  2
APPID
  5
9
330
0
100
AcDbSymbolTable
 70
     2
  0
APPID
  5
12
330
9
100
AcDbSymbolTableRecord
100
AcDbRegAppTableRecord
  2
ACAD
 70
     0
  0
ENDTAB
  0
TABLE
  2
DIMSTYLE
  5
A
330
0
100
AcDbSymbolTable
 70
     1
  0
DIMSTYLE
105
27
330
A
100
AcDbSymbolTableRecord
100
AcDbDimStyleTableRecord
  2
ISO-25
 70
     0
  3

  4

  5

  6

  7

 40
1.0
 41
2.5
 42
0.625
 43
3.75
 44
1.25
 45
0.0
 46
0.0
 47
0.0
 48
0.0
140
2.5
141
2.5
142
0.0
143
0.03937007874016
144
1.0
145
0.0
146
1.0
147
0.625
 71
     0
 72
     0
 73
     0
 74
     0
 75
     0
 76
     0
 77
     1
 78
     8
170
     0
171
     3
172
     1
173
     0
174
     0
175
     0
176
     0
177
     0
178
     0
270
     2
271
     2
272
     2
273
     2
274
     3
340
11
275
     0
280
     0
281
     0
282
     0
283
     0
284
     8
285
     0
286
     0
287
     3
288
     0
  0
ENDTAB
  0
TABLE
  2
BLOCK_RECORD
  5
1
330
0
100
AcDbSymbolTable
 70
     1
  0
BLOCK_RECORD
  5
1F
330
1
100
AcDbSymbolTableRecord
100
AcDbBlockTableRecord
  2
*MODEL_SPACE
  0
BLOCK_RECORD
  5
1B
330
1
100
AcDbSymbolTableRecord
100
AcDbBlockTableRecord
  2
*PAPER_SPACE
  0
ENDTAB
  0
ENDSEC
  0
SECTION
  2
BLOCKS
  0
BLOCK
  5
20
330
1F
100
AcDbEntity
  8
0
100
AcDbBlockBegin
  2
*MODEL_SPACE
 70
     0
 10
0.0
 20
0.0
 30
0.0
  3
*MODEL_SPACE
  1

  0
ENDBLK
  5
21
330
1F
100
AcDbEntity
  8
0
100
AcDbBlockEnd
  0
BLOCK
  5
1C
330
1B
100
AcDbEntity
 67
     1
  8
0
100
AcDbBlockBegin
  2
*PAPER_SPACE
  1

  0
ENDBLK
  5
1D
330
1B
100
AcDbEntity
 67
     1
  8
0
100
AcDbBlockEnd
  0
ENDSEC
  0
SECTION
  2
ENTITIES
  0
LWPOLYLINE
  5
100
100
AcDbEntity
  8
Layer_1
 62
7
100
AcDbPolyline
 90
53
 70
0
 10
7.697232
 20
3.237935
 30
0.0
 10
7.513068
 20
3.176537
 30
0.0
 10
7.765906
 20
3.009915
 30
0.0
 10
7.380315
 20
2.907059
 30
0.0
 10
7.427310
 20
2.699780
 30
0.0
 10
7.429438
 20
2.698988
 30
0.0
 10
7.434482
 20
2.668017
 30
0.0
 10
7.441124
 20
2.638897
 30
0.0
 10
7.453030
 20
2.554231
 30
0.0
 10
7.463496
 20
2.489946
 30
0.0
 10
7.465672
 20
2.488324
 30
0.0
 10
7.468768
 20
2.457545
 30
0.0
 10
7.473711
 20
2.427632
 30
0.0
 10
7.480366
 20
2.343220
 30
0.0
 10
7.489680
 20
2.251077
 30
0.0
 10
7.489731
 20
2.249997
 30
0.0
 10
7.493334
 20
2.214780
 30
0.0
 10
7.493891
 20
2.184387
 30
0.0
 10
7.496518
 20
2.153681
 30
0.0
 10
7.494511
 20
2.148720
 30
0.0
 10
7.494983
 20
2.122171
 30
0.0
 10
7.499919
 20
2.001100
 30
0.0
 10
7.498602
 20
1.970996
 30
0.0
 10
7.499382
 20
1.939913
 30
0.0
 10
7.496913
 20
1.932684
 30
0.0
 10
7.495460
 20
1.898438
 30
0.0
 10
7.489155
 20
1.726405
 30
0.0
 10
7.806542
 20
1.156502
 30
0.0
 10
7.617025
 20
1.198746
 30
0.0
 10
7.747951
 20
0.925670
 30
0.0
 10
7.364550
 20
1.036105
 30
0.0
 10
7.299055
 20
1.000592
 30
0.0
 10
1.247804
 20
0.999914
 30
0.0
 10
1.183449
 20
1.245367
 30
0.0
 10
1.137100
 20
1.494506
 30
0.0
 10
1.108899
 20
1.746347
 30
0.0
 10
1.098991
 20
1.999902
 30
0.0
 10
1.108557
 20
2.253426
 30
0.0
 10
1.136409
 20
2.505258
 30
0.0
 10
1.182407
 20
2.754415
 30
0.0
 10
1.246412
 20
2.999912
 30
0.0
 10
6.895898
 20
3.000557
 30
0.0
 10
6.884238
 20
3.034370
 30
0.0
 10
6.869304
 20
3.075051
 30
0.0
 10
6.838559
 20
3.153376
 30
0.0
 10
6.798597
 20
3.247674
 30
0.0
 10
6.796815
 20
3.251715
 30
0.0
 10
6.763500
 20
3.323254
 30
0.0
 10
6.665533
 20
3.511649
 30
0.0
 10
7.061219
 20
3.585025
 30
0.0
 10
7.131661
 20
3.562922
 30
0.0
 10
7.697241
 20
3.237933
 30
0.0
 10
7.697232
 20
3.237935
 30
0.0
  0
LWPOLYLINE
  5
101
100
AcDbEntity
  8
Layer_1
 62
7
100
AcDbPolyline
 90
51
 70
0
 10
6.711241
 20
2.216017
 30
0.0
 10
6.697305
 20
2.243562
 30
0.0
 10
6.661169
 20
2.300671
 30
0.0
 10
6.618006
 20
2.352331
 30
0.0
 10
6.568485
 20
2.397874
 30
0.0
 10
6.513273
 20
2.436633
 30
0.0
 10
6.453037
 20
2.467940
 30
0.0
 10
6.388445
 20
2.491125
 30
0.0
 10
6.320166
 20
2.505523
 30
0.0
 10
6.248865
 20
2.510464
 30
0.0
 10
6.192389
 20
2.510473
 30
0.0
 10
5.592354
 20
2.510385
 30
0.0
 10
5.535927
 20
2.510418
 30
0.0
 10
2.948835
 20
2.510082
 30
0.0
 10
2.892408
 20
2.510115
 30
0.0
 10
2.292447
 20
2.510001
 30
0.0
 10
2.236021
 20
2.510035
 30
0.0
 10
2.133271
 20
2.499658
 30
0.0
 10
2.037555
 20
2.469920
 30
0.0
 10
1.950928
 20
2.422874
 30
0.0
 10
1.875446
 20
2.360577
 30
0.0
 10
1.813163
 20
2.285083
 30
0.0
 10
1.766135
 20
2.198448
 30
0.0
 10
1.736416
 20
2.102727
 30
0.0
 10
1.726063
 20
1.999975
 30
0.0
 10
1.736439
 20
1.897225
 30
0.0
 10
1.766178
 20
1.801509
 30
0.0
 10
1.813223
 20
1.714883
 30
0.0
 10
1.875520
 20
1.639401
 30
0.0
 10
1.951014
 20
1.577118
 30
0.0
 10
2.037649
 20
1.530091
 30
0.0
 10
2.133370
 20
1.500372
 30
0.0
 10
2.236121
 20
1.490019
 30
0.0
 10
2.292573
 20
1.490058
 30
0.0
 10
2.892508
 20
1.490099
 30
0.0
 10
2.948960
 20
1.490138
 30
0.0
 10
5.536029
 20
1.490400
 30
0.0
 10
5.592480
 20
1.490441
 30
0.0
 10
6.192539
 20
1.490482
 30
0.0
 10
6.248991
 20
1.490521
 30
0.0
 10
6.351739
 20
1.500897
 30
0.0
 10
6.447450
 20
1.530633
 30
0.0
 10
6.534068
 20
1.577674
 30
0.0
 10
6.609542
 20
1.639967
 30
0.0
 10
6.671815
 20
1.715456
 30
0.0
 10
6.718836
 20
1.802087
 30
0.0
 10
6.748548
 20
1.897805
 30
0.0
 10
6.758899
 20
2.000556
 30
0.0
 10
6.746534
 20
2.112613
 30
0.0
 10
6.711240
 20
2.216017
 30
0.0
 10
6.711241
 20
2.216017
 30
0.0
  0
LWPOLYLINE
  5
102
100
AcDbEntity
  8
Layer_1
 62
7
100
AcDbPolyline
 90
8
 70
1
 10
0.000000
 20
-0.000000
 30
0.0
 10
0.000000
 20
1.000015
 30
0.0
 10
0.028332
 20
1.000015
 30
0.0
 10
0.028332
 20
0.028386
 30
0.0
 10
1.000015
 20
0.028386
 30
0.0
 10
1.000015
 20
-0.000000
 30
0.0
 10
-0.000000
 20
-0.000000
 30
0.0
 10
0.000000
 20
-0.000000
 30
0.0
  0
LWPOLYLINE
  5
103
100
AcDbEntity
  8
Layer_1
 62
7
100
AcDbPolyline
 90
9
 70
1
 10
7.999985
 20
-0.000000
 30
0.0
 10
7.999985
 20
0.028386
 30
0.0
 10
8.971668
 20
0.028386
 30
0.0
 10
8.971668
 20
1.000015
 30
0.0
 10
9.000000
 20
1.000015
 30
0.0
 10
9.000000
 20
0.014221
 30
0.0
 10
9.000000
 20
-0.000000
 30
0.0
 10
7.999985
 20
-0.000000
 30
0.0
 10
7.999985
 20
-0.000000
 30
0.0
  0
LWPOLYLINE
  5
104
100
AcDbEntity
  8
Layer_1
 62
7
100
AcDbPolyline
 90
8
 70
1
 10
0.000000
 20
3.200022
 30
0.0
 10
0.000000
 20
4.000000
 30
0.0
 10
1.000015
 20
4.000000
 30
0.0
 10
1.000015
 20
3.971668
 30
0.0
 10
0.028332
 20
3.971668
 30
0.0
 10
0.028332
 20
3.200022
 30
0.0
 10
0.000000
 20
3.200022
 30
0.0
 10
0.000000
 20
3.200022
 30
0.0
  0
LWPOLYLINE
  5
105
100
AcDbEntity
  8
Layer_1
 62
7
100
AcDbPolyline
 90
8
 70
1
 10
8.971668
 20
3.200022
 30
0.0
 10
8.971668
 20
3.971668
 30
0.0
 10
7.999985
 20
3.971668
 30
0.0
 10
7.999985
 20
4.000000
 30
0.0
 10
9.000000
 20
4.000000
 30
0.0
 10
9.000000
 20
3.200022
 30
0.0
 10
8.971668
 20
3.200022
 30
0.0
 10
8.971668
 20
3.200022
 30
0.0
  0
ENDSEC
  0
SECTION
  2
OBJECTS
  0
DICTIONARY
  5
C
330
0
100
AcDbDictionary
  3
ACAD_GROUP
350
D
  3
ACAD_MLINESTYLE
350
17
  0
DICTIONARY
  5
D
330
C
100
AcDbDictionary
  0
DICTIONARY
  5
1A
330
C
100
AcDbDictionary
  0
DICTIONARY
  5
17
330
C
100
AcDbDictionary
  3
STANDARD
350
18
  0
DICTIONARY
  5
19
330
C
100
AcDbDictionary
  0
ENDSEC
  0
EOF
