<?xml version="1.0" encoding="UTF-8" standalone="no"?>
<!-- Created with Inkscape (http://www.inkscape.org/) -->

<svg
   xmlns:dc="http://purl.org/dc/elements/1.1/"
   xmlns:cc="http://creativecommons.org/ns#"
   xmlns:rdf="http://www.w3.org/1999/02/22-rdf-syntax-ns#"
   xmlns:svg="http://www.w3.org/2000/svg"
   xmlns="http://www.w3.org/2000/svg"
   xmlns:sodipodi="http://sodipodi.sourceforge.net/DTD/sodipodi-0.dtd"
   xmlns:inkscape="http://www.inkscape.org/namespaces/inkscape"
   width="120.41763mm"
   height="16.273064mm"
   viewBox="0 0 426.67655 57.660462"
   id="svg8373"
   version="1.1"
   inkscape:version="0.91 r13725"
   sodipodi:docname="gauge-path.svg">
  <sodipodi:namedview
     id="base"
     pagecolor="#ffffff"
     bordercolor="#666666"
     borderopacity="1.0"
     inkscape:pageopacity="0.0"
     inkscape:pageshadow="2"
     inkscape:zoom="2.0498157"
     inkscape:cx="287.56006"
     inkscape:cy="-78.91213"
     inkscape:document-units="px"
     inkscape:current-layer="layer1"
     showgrid="false"
     fit-margin-top="0"
     fit-margin-left="0"
     fit-margin-right="0"
     fit-margin-bottom="0"
     inkscape:window-width="1920"
     inkscape:window-height="1029"
     inkscape:window-x="1600"
     inkscape:window-y="25"
     inkscape:window-maximized="1"
     inkscape:snap-global="false"
     showborder="true" />
  <defs
     id="defs8375" />
  <metadata
     id="metadata8378">
    <rdf:RDF>
      <cc:Work
         rdf:about="">
        <dc:format>image/svg+xml</dc:format>
        <dc:type
           rdf:resource="http://purl.org/dc/dcmitype/StillImage" />
        <dc:title></dc:title>
      </cc:Work>
    </rdf:RDF>
  </metadata>
  <g
     transform="translate(-44.745724,-822.974)"
     id="layer1"
     inkscape:groupmode="layer"
     inkscape:label="Layer 1">
    <g
       style="font-style:normal;font-weight:normal;font-size:10px;line-height:125%;font-family:sans-serif;letter-spacing:-100px;word-spacing:0px;fill:#000000;fill-opacity:1;stroke:none;stroke-width:1px;stroke-linecap:butt;stroke-linejoin:miter;stroke-opacity:1"
       id="text8078">
      <path
         style="font-size:55.625px"
         d="M 410.58984 0 C 409.25684 0 408.24707 0.24120938 407.55859 0.72460938 C 406.87012 1.2080027 406.52539 1.911131 406.52539 2.8339844 C 406.52539 3.4541044 406.69434 3.9716787 407.03125 4.3867188 C 407.36816 4.8017521 407.86719 5.1103469 408.53125 5.3105469 C 407.78906 5.5156202 407.22852 5.8505798 406.84766 6.3144531 C 406.47168 6.7734331 406.2832 7.353514 406.2832 8.0566406 C 406.2832 9.1406273 406.64453 9.9609382 407.36719 10.517578 C 407.52462 10.636973 407.70658 10.736483 407.89648 10.830078 L 403.12695 10.830078 L 403.12695 9.140625 L 404.6875 9.140625 L 404.6875 7.0976562 L 403.12695 7.0976562 L 403.12695 0.19726562 L 399.99219 0.19726562 L 395.61133 6.7226562 L 395.61133 9.140625 L 400.46094 9.140625 L 400.46094 10.830078 L 365.82031 10.830078 C 366.10609 10.692472 366.37432 10.535343 366.60742 10.341797 C 367.41797 9.6728501 367.82422 8.7480462 367.82422 7.5664062 C 367.82422 6.3749996 367.45312 5.4472698 366.71094 4.7832031 C 365.96875 4.1142631 364.93066 3.7792969 363.59766 3.7792969 C 363.36328 3.7792969 363.13574 3.7958781 362.91602 3.8300781 C 362.70117 3.8593648 362.48632 3.9042906 362.27148 3.9628906 L 362.27148 2.2714844 L 367.0332 2.2714844 L 367.0332 0.19726562 L 360.02344 0.19726562 L 360.02344 6.3496094 C 360.55078 6.1298827 361.04493 5.9697275 361.50391 5.8671875 C 361.96289 5.7597675 362.39355 5.7050781 362.79883 5.7050781 C 363.48242 5.7050781 364.01953 5.8710983 364.41016 6.203125 C 364.80566 6.5351583 365.00391 6.990233 365.00391 7.5664062 C 365.00391 8.1376929 364.80566 8.590821 364.41016 8.9277344 C 364.01953 9.2597677 363.48242 9.4257813 362.79883 9.4257812 C 362.32519 9.4257812 361.82031 9.3408219 361.2832 9.1699219 C 360.75098 8.9990219 360.1875 8.742184 359.5918 8.4003906 L 359.5918 10.619141 C 359.7907 10.699995 359.99009 10.763004 360.18945 10.830078 L 356.88867 10.830078 L 356.88867 8.2988281 L 354.25195 8.2988281 L 354.25195 10.830078 L 347.41016 10.830078 L 351.53516 1.7871094 L 351.53516 0.19726562 L 343.29492 0.19726562 L 343.29492 2.2714844 L 348.56055 2.2714844 L 344.66406 10.830078 L 340.05078 10.830078 L 340.05078 9.140625 L 341.61133 9.140625 L 341.61133 7.0976562 L 340.05078 7.0976562 L 340.05078 0.19726562 L 336.91602 0.19726562 L 332.53516 6.7226562 L 332.53516 9.140625 L 337.38477 9.140625 L 337.38477 10.830078 L 300.47656 10.830078 L 304.60156 1.7871094 L 304.60156 0.19726562 L 296.36133 0.19726562 L 296.36133 2.2714844 L 301.62695 2.2714844 L 297.73047 10.830078 L 293.11719 10.830078 L 293.11719 9.140625 L 294.67773 9.140625 L 294.67773 7.0976562 L 293.11719 7.0976562 L 293.11719 0.19726562 L 289.98242 0.19726562 L 285.60156 6.7226562 L 285.60156 9.140625 L 290.45117 9.140625 L 290.45117 10.830078 L 255.8125 10.830078 C 256.09765 10.692625 256.36498 10.534982 256.59766 10.341797 C 257.4082 9.6728501 257.81445 8.7480463 257.81445 7.5664062 C 257.81445 6.3749996 257.44336 5.4472698 256.70117 4.7832031 C 255.95899 4.1142631 254.9209 3.7792969 253.58789 3.7792969 C 253.35352 3.7792969 253.12598 3.7958781 252.90625 3.8300781 C 252.69141 3.8593648 252.47657 3.9042906 252.26172 3.9628906 L 252.26172 2.2714844 L 257.02344 2.2714844 L 257.02344 0.19726562 L 250.01367 0.19726562 L 250.01367 6.3496094 C 250.54101 6.1298827 251.03515 5.9697275 251.49414 5.8671875 C 251.95312 5.7597675 252.38378 5.7050781 252.78906 5.7050781 C 253.47266 5.7050781 254.00977 5.8710983 254.40039 6.203125 C 254.7959 6.5351583 254.99414 6.990233 254.99414 7.5664062 C 254.99414 8.1376929 254.7959 8.590821 254.40039 8.9277344 C 254.00977 9.2597677 253.47266 9.4257813 252.78906 9.4257812 C 252.31543 9.4257812 251.81055 9.3408219 251.27344 9.1699219 C 250.74121 8.9990219 250.17773 8.742184 249.58203 8.4003906 L 249.58203 10.619141 C 249.78094 10.699995 249.98032 10.763004 250.17969 10.830078 L 246.87891 10.830078 L 246.87891 8.2988281 L 244.24219 8.2988281 L 244.24219 10.830078 L 239.96875 10.830078 C 240.25603 10.679838 240.52648 10.508568 240.76367 10.291016 C 241.53027 9.5830019 241.91406 8.6425765 241.91406 7.4707031 C 241.91406 6.4111365 241.56933 5.5546906 240.88086 4.9003906 C 240.19726 4.2460973 239.29589 3.9179688 238.17773 3.9179688 C 237.73339 3.9179688 237.32324 3.9794958 236.94727 4.1015625 C 236.57129 4.2187492 236.22266 4.3974588 235.90039 4.6367188 C 235.97851 3.7187521 236.25195 3.0283198 236.7207 2.5644531 C 237.18945 2.0956998 237.84375 1.859375 238.68359 1.859375 C 239.07422 1.859375 239.47461 1.9140644 239.88477 2.0214844 C 240.29493 2.1240244 240.73145 2.2841797 241.19531 2.5039062 L 241.19531 0.484375 C 240.73145 0.32812167 240.2627 0.20898604 239.78906 0.13085938 C 239.31543 0.05273937 238.82715 0.015625 238.32422 0.015625 C 236.73731 0.015625 235.48731 0.53125297 234.57422 1.5664062 C 233.66602 2.5966796 233.21289 4.0156256 233.21289 5.8222656 C 233.21289 7.5849656 233.60059 8.9482429 234.37695 9.9101562 C 234.6919 10.295963 235.06166 10.599801 235.48047 10.830078 L 230.04102 10.830078 L 230.04102 9.140625 L 231.60156 9.140625 L 231.60156 7.0976562 L 230.04102 7.0976562 L 230.04102 0.19726562 L 226.90625 0.19726562 L 222.52539 6.7226562 L 222.52539 9.140625 L 227.375 9.140625 L 227.375 10.830078 L 193.03516 10.830078 C 193.32243 10.679838 193.59288 10.508568 193.83008 10.291016 C 194.59668 9.5830019 194.98047 8.6425765 194.98047 7.4707031 C 194.98047 6.4111365 194.63575 5.5546906 193.94727 4.9003906 C 193.26367 4.2460973 192.36231 3.9179688 191.24414 3.9179688 C 190.79981 3.9179688 190.38965 3.9794958 190.01367 4.1015625 C 189.63769 4.2187492 189.28906 4.3974588 188.9668 4.6367188 C 189.04492 3.7187521 189.31836 3.0283198 189.78711 2.5644531 C 190.25586 2.0956998 190.91015 1.859375 191.75 1.859375 C 192.14062 1.859375 192.54101 1.9140644 192.95117 2.0214844 C 193.36133 2.1240244 193.79785 2.2841797 194.26172 2.5039062 L 194.26172 0.484375 C 193.79785 0.32812167 193.3291 0.20898604 192.85547 0.13085938 C 192.38184 0.05273937 191.89355 0.015625 191.39062 0.015625 C 189.80371 0.015625 188.55371 0.53125297 187.64062 1.5664062 C 186.73242 2.5966796 186.2793 4.0156256 186.2793 5.8222656 C 186.2793 7.5849656 186.66699 8.9482429 187.44336 9.9101562 C 187.75831 10.295963 188.12807 10.599801 188.54688 10.830078 L 183.10742 10.830078 L 183.10742 9.140625 L 184.66797 9.140625 L 184.66797 7.0976562 L 183.10742 7.0976562 L 183.10742 0.19726562 L 179.97266 0.19726562 L 175.5918 6.7226562 L 175.5918 9.140625 L 180.44141 9.140625 L 180.44141 10.830078 L 145.80078 10.830078 C 146.08656 10.692472 146.35479 10.535343 146.58789 10.341797 C 147.39844 9.6728501 147.80469 8.7480463 147.80469 7.5664062 C 147.80469 6.3749996 147.43359 5.4472698 146.69141 4.7832031 C 145.94922 4.1142631 144.91113 3.7792969 143.57812 3.7792969 C 143.34375 3.7792969 143.11621 3.7958781 142.89648 3.8300781 C 142.68164 3.8593648 142.46679 3.9042906 142.25195 3.9628906 L 142.25195 2.2714844 L 147.01367 2.2714844 L 147.01367 0.19726562 L 140.00391 0.19726562 L 140.00391 6.3496094 C 140.53125 6.1298827 141.02538 5.9697275 141.48438 5.8671875 C 141.94336 5.7597675 142.37402 5.7050781 142.7793 5.7050781 C 143.46289 5.7050781 144 5.8710983 144.39062 6.203125 C 144.78614 6.5351583 144.98438 6.990233 144.98438 7.5664062 C 144.98438 8.1376929 144.78614 8.590821 144.39062 8.9277344 C 144 9.2597677 143.46289 9.4257813 142.7793 9.4257812 C 142.30566 9.4257812 141.80078 9.3408219 141.26367 9.1699219 C 140.73145 8.9990219 140.16797 8.742184 139.57227 8.4003906 L 139.57227 10.619141 C 139.77117 10.699995 139.97056 10.763004 140.16992 10.830078 L 136.86914 10.830078 L 136.86914 8.2988281 L 134.23242 8.2988281 L 134.23242 10.830078 L 129.66016 10.830078 C 129.9453 10.692625 130.21264 10.534982 130.44531 10.341797 C 131.25586 9.6728501 131.66211 8.7480463 131.66211 7.5664062 C 131.66211 6.3749996 131.29102 5.4472698 130.54883 4.7832031 C 129.80664 4.1142631 128.76855 3.7792969 127.43555 3.7792969 C 127.20117 3.7792969 126.97363 3.7958781 126.75391 3.8300781 C 126.53906 3.8593648 126.32421 3.9042906 126.10938 3.9628906 L 126.10938 2.2714844 L 130.87109 2.2714844 L 130.87109 0.19726562 L 123.86133 0.19726562 L 123.86133 6.3496094 C 124.38867 6.1298827 124.88282 5.9697275 125.3418 5.8671875 C 125.80078 5.7597675 126.23145 5.7050781 126.63672 5.7050781 C 127.32031 5.7050781 127.85742 5.8710983 128.24805 6.203125 C 128.64355 6.5351583 128.8418 6.990233 128.8418 7.5664062 C 128.8418 8.1376929 128.64355 8.590821 128.24805 8.9277344 C 127.85742 9.2597677 127.32031 9.4257813 126.63672 9.4257812 C 126.16309 9.4257812 125.6582 9.3408219 125.12109 9.1699219 C 124.58887 8.9990219 124.02539 8.742184 123.42969 8.4003906 L 123.42969 10.619141 C 123.62859 10.699995 123.82798 10.763004 124.02734 10.830078 L 120.03125 10.830078 L 120.03125 9.140625 L 121.5918 9.140625 L 121.5918 7.0976562 L 120.03125 7.0976562 L 120.03125 0.19726562 L 116.89648 0.19726562 L 112.51562 6.7226562 L 112.51562 9.140625 L 117.36523 9.140625 L 117.36523 10.830078 L 82.726562 10.830078 C 83.011707 10.692625 83.27905 10.534982 83.511719 10.341797 C 84.322265 9.67285 84.728516 8.7480463 84.728516 7.5664062 C 84.728516 6.3749996 84.357421 5.4472698 83.615234 4.7832031 C 82.873048 4.1142631 81.83496 3.7792969 80.501953 3.7792969 C 80.267573 3.7792969 80.040032 3.7958781 79.820312 3.8300781 C 79.605468 3.8593648 79.390628 3.9042906 79.175781 3.9628906 L 79.175781 2.2714844 L 83.9375 2.2714844 L 83.9375 0.19726562 L 76.927734 0.19726562 L 76.927734 6.3496094 C 77.455074 6.1298827 77.949216 5.9697275 78.408203 5.8671875 C 78.86719 5.7597675 79.297852 5.7050781 79.703125 5.7050781 C 80.386718 5.7050781 80.923826 5.8710983 81.314453 6.203125 C 81.70996 6.5351583 81.908203 6.990233 81.908203 7.5664062 C 81.908203 8.1376929 81.70996 8.590821 81.314453 8.9277344 C 80.923826 9.2597677 80.386718 9.4257814 79.703125 9.4257812 C 79.229492 9.4257812 78.724613 9.3408219 78.1875 9.1699219 C 77.655273 8.9990219 77.091794 8.742184 76.496094 8.4003906 L 76.496094 10.619141 C 76.694997 10.699995 76.894383 10.763004 77.09375 10.830078 L 73.097656 10.830078 L 73.097656 9.140625 L 74.658203 9.140625 L 74.658203 7.0976562 L 73.097656 7.0976562 L 73.097656 0.19726562 L 69.962891 0.19726562 L 65.582031 6.7226562 L 65.582031 9.140625 L 70.431641 9.140625 L 70.431641 10.830078 L 35.792969 10.830078 C 36.078114 10.692625 36.345455 10.534982 36.578125 10.341797 C 37.388672 9.67285 37.794922 8.7480463 37.794922 7.5664062 C 37.794922 6.3749996 37.423828 5.4472698 36.681641 4.7832031 C 35.939453 4.1142631 34.901367 3.7792969 33.568359 3.7792969 C 33.333984 3.7792969 33.106445 3.7958781 32.886719 3.8300781 C 32.671875 3.8593648 32.457031 3.9042906 32.242188 3.9628906 L 32.242188 2.2714844 L 37.003906 2.2714844 L 37.003906 0.19726562 L 29.994141 0.19726562 L 29.994141 6.3496094 C 30.521484 6.1298827 31.015625 5.9697275 31.474609 5.8671875 C 31.933594 5.7597675 32.364258 5.7050781 32.769531 5.7050781 C 33.453125 5.7050781 33.990234 5.8710983 34.380859 6.203125 C 34.776367 6.5351583 34.974609 6.990233 34.974609 7.5664062 C 34.974609 8.1376929 34.776367 8.590821 34.380859 8.9277344 C 33.990234 9.2597677 33.453125 9.4257814 32.769531 9.4257812 C 32.295899 9.4257812 31.791016 9.3408219 31.253906 9.1699219 C 30.72168 8.9990219 30.158203 8.742184 29.5625 8.4003906 L 29.5625 10.619141 C 29.761403 10.699995 29.960789 10.763004 30.160156 10.830078 L 26.859375 10.830078 L 26.859375 8.2988281 L 24.222656 8.2988281 L 24.222656 10.830078 L 20.451172 10.830078 L 20.451172 9.140625 L 22.011719 9.140625 L 22.011719 7.0976562 L 20.451172 7.0976562 L 20.451172 0.19726562 L 17.316406 0.19726562 L 12.935547 6.7226562 L 12.935547 9.140625 L 17.785156 9.140625 L 17.785156 10.830078 L 10.021484 10.830078 L 10.021484 9.140625 L 11.582031 9.140625 L 11.582031 7.0976562 L 10.021484 7.0976562 L 10.021484 0.19726562 L 6.8867188 0.19726562 L 2.5058594 6.7226562 L 2.5058594 9.140625 L 7.3554688 9.140625 L 7.3554688 10.830078 L 0 10.830078 L 0 14.535156 L 0 14.804688 L 0 54.837891 L 0 57.123047 L 0 57.494141 L 269.10742 57.494141 L 269.10742 57.505859 L 313.94336 57.505859 L 313.94336 57.494141 L 324.70117 57.494141 L 324.70117 57.583984 L 370.01562 57.583984 L 370.01562 57.494141 L 380.88477 57.494141 L 380.88477 57.660156 L 426.67578 57.660156 L 426.67578 11.722656 L 426.64453 11.722656 L 426.64453 10.830078 L 413.26953 10.830078 C 413.45726 10.736583 413.63592 10.636796 413.79102 10.517578 C 414.51368 9.9609382 414.875 9.1406273 414.875 8.0566406 C 414.875 7.353514 414.68359 6.7734331 414.30273 6.3144531 C 413.92675 5.8505798 413.36914 5.5156202 412.62695 5.3105469 C 413.29101 5.1103469 413.79003 4.8017521 414.12695 4.3867188 C 414.46875 3.9716787 414.64062 3.4541044 414.64062 2.8339844 C 414.64062 1.906251 414.2959 1.2031227 413.60742 0.72460938 C 412.91894 0.24120938 411.91308 0 410.58984 0 z M 410.58984 1.7734375 C 411.0293 1.7734375 411.36817 1.8886735 411.60742 2.1230469 C 411.84668 2.3525402 411.9668 2.6865204 411.9668 3.1210938 C 411.9668 3.5556603 411.84668 3.8886735 411.60742 4.1230469 C 411.36817 4.3574269 411.0293 4.4746094 410.58984 4.4746094 C 410.14062 4.4746094 409.79492 4.3574269 409.55078 4.1230469 C 409.31152 3.8886735 409.19141 3.5556604 409.19141 3.1210938 C 409.19141 2.6914003 409.31152 2.3574202 409.55078 2.1230469 C 409.79492 1.8886735 410.14062 1.7734375 410.58984 1.7734375 z M 7.3554688 2.5195312 L 7.3554688 7.0976562 L 4.2636719 7.0976562 L 7.3554688 2.5195312 z M 17.785156 2.5195312 L 17.785156 7.0976562 L 14.693359 7.0976562 L 17.785156 2.5195312 z M 70.431641 2.5195312 L 70.431641 7.0976562 L 67.339844 7.0976562 L 70.431641 2.5195312 z M 117.36523 2.5195312 L 117.36523 7.0976562 L 114.27344 7.0976562 L 117.36523 2.5195312 z M 180.44141 2.5195312 L 180.44141 7.0976562 L 177.34961 7.0976562 L 180.44141 2.5195312 z M 227.375 2.5195312 L 227.375 7.0976562 L 224.2832 7.0976562 L 227.375 2.5195312 z M 290.45117 2.5195312 L 290.45117 7.0976562 L 287.35938 7.0976562 L 290.45117 2.5195312 z M 337.38477 2.5195312 L 337.38477 7.0976562 L 334.29297 7.0976562 L 337.38477 2.5195312 z M 400.46094 2.5195312 L 400.46094 7.0976562 L 397.36914 7.0976562 L 400.46094 2.5195312 z M 190.77539 5.734375 C 191.27344 5.734375 191.64453 5.8964833 191.88867 6.21875 C 192.13769 6.53613 192.26172 7.0146435 192.26172 7.6542969 C 192.26172 8.2939435 192.13769 8.7753897 191.88867 9.0976562 C 191.64453 9.4150364 191.27344 9.5722656 190.77539 9.5722656 C 190.28223 9.5722656 189.91114 9.4150363 189.66211 9.0976562 C 189.41797 8.7753897 189.29688 8.2939435 189.29688 7.6542969 C 189.29687 7.0146435 189.41797 6.53613 189.66211 6.21875 C 189.91114 5.8964833 190.28223 5.734375 190.77539 5.734375 z M 237.70898 5.734375 C 238.20703 5.734375 238.57813 5.8964833 238.82227 6.21875 C 239.07129 6.53613 239.19531 7.0146435 239.19531 7.6542969 C 239.19531 8.2939435 239.07129 8.7753897 238.82227 9.0976562 C 238.57813 9.4150364 238.20703 9.5722656 237.70898 9.5722656 C 237.21582 9.5722656 236.84472 9.4150363 236.5957 9.0976562 C 236.35156 8.7753897 236.23047 8.2939435 236.23047 7.6542969 C 236.23047 7.0146435 236.35156 6.53613 236.5957 6.21875 C 236.84472 5.8964833 237.21582 5.734375 237.70898 5.734375 z M 410.58984 6.2402344 C 411.1123 6.2402344 411.5127 6.3837883 411.79102 6.671875 C 412.06934 6.9550817 412.20898 7.3681629 412.20898 7.9101562 C 412.20898 8.4472629 412.06934 8.8603508 411.79102 9.1484375 C 411.5127 9.4316375 411.1123 9.5722656 410.58984 9.5722656 C 410.0625 9.5722656 409.6582 9.4316375 409.375 9.1484375 C 409.09179 8.8603508 408.94922 8.4472629 408.94922 7.9101562 C 408.94922 7.3730429 409.09179 6.9599617 409.375 6.671875 C 409.6582 6.3837883 410.0625 6.2402344 410.58984 6.2402344 z M 42.451172 14.804688 L 52.640625 14.804688 L 52.640625 54.837891 L 42.451172 54.837891 L 42.451172 14.804688 z M 95.568359 14.804688 L 105.87109 14.804688 L 105.87109 54.837891 L 95.568359 54.837891 L 95.568359 14.804688 z M 149.27734 14.804688 L 159.69141 14.804688 L 159.69141 54.837891 L 149.27734 54.837891 L 149.27734 14.804688 z M 203.57422 14.804688 L 214.10352 14.804688 L 214.10352 54.837891 L 203.57422 54.837891 L 203.57422 14.804688 z M 258.46484 14.804688 L 269.10742 14.804688 L 269.10742 54.837891 L 258.46484 54.837891 L 258.46484 14.804688 z M 313.94336 14.804688 L 324.70117 14.804688 L 324.70117 54.837891 L 313.94336 54.837891 L 313.94336 14.804688 z M 370.01562 14.804688 L 380.88477 14.804688 L 380.88477 54.837891 L 370.01562 54.837891 L 370.01562 14.804688 z M 384.22461 15.0625 L 423.33594 15.0625 L 423.33594 54.320312 L 384.22461 54.320312 L 384.22461 15.0625 z M 328.00586 15.429688 L 366.70898 15.429688 L 366.70898 54.279297 L 328.00586 54.279297 L 328.00586 15.429688 z M 272.37695 15.796875 L 310.67383 15.796875 L 310.67383 54.236328 L 272.37695 54.236328 L 272.37695 15.796875 z M 217.33984 16.164062 L 255.22852 16.164062 L 255.22852 54.193359 L 217.33984 54.193359 L 217.33984 16.164062 z M 162.89258 16.529297 L 200.375 16.529297 L 200.375 54.152344 L 162.89258 54.152344 L 162.89258 16.529297 z M 109.03711 16.896484 L 146.11133 16.896484 L 146.11133 54.109375 L 109.03711 54.109375 L 109.03711 16.896484 z M 55.771484 17.263672 L 92.4375 17.263672 L 92.4375 54.068359 L 55.771484 54.068359 L 55.771484 17.263672 z M 3.0957031 17.630859 L 39.355469 17.630859 L 39.355469 54.025391 L 3.0957031 54.025391 L 3.0957031 17.630859 z "
         id="path8131"
         transform="translate(44.745678,822.974)" />
    </g>
    <g
       style="font-style:normal;font-weight:normal;font-size:50px;line-height:125%;font-family:sans-serif;letter-spacing:-100px;word-spacing:0px;fill:#000000;fill-opacity:1;stroke:none;stroke-width:1px;stroke-linecap:butt;stroke-linejoin:miter;stroke-opacity:1"
       id="text8096" />
  </g>
</svg>
