  0
SECTION
  2
HEADER
  9
$ACADVER
  1
AC1014
  9
$HANDSEED
  5
FFFF
  9
$MEASUREMENT
 70
     1
  0
ENDSEC
  0
SECTION
  2
TABLES
  0
TABLE
  2
VPORT
  5
8
330
0
100
AcDbSymbolTable
 70
     4
  0
VPORT
  5
2E
330
8
100
AcDbSymbolTableRecord
100
AcDbViewportTableRecord
  2
*ACTIVE
 70
     0
 10
0.0
 20
0.0
 11
1.0
 21
1.0
 12
210.0
 22
148.5
 13
0.0
 23
0.0
 14
10.0
 24
10.0
 15
10.0
 25
10.0
 16
0.0
 26
0.0
 36
1.0
 17
0.0
 27
0.0
 37
0.0
 40
341.0
 41
1.24
 42
50.0
 43
0.0
 44
0.0
 50
0.0
 51
0.0
 71
     0
 72
   100
 73
     1
 74
     3
 75
     0
 76
     0
 77
     0
 78
     0
  0
ENDTAB
  0
TABLE
  2
LTYPE
  5
5
330
0
100
AcDbSymbolTable
 70
     1
  0
LTYPE
  5
14
330
5
100
AcDbSymbolTableRecord
100
AcDbLinetypeTableRecord
  2
BYBLOCK
 70
     0
  3

 72
    65
 73
     0
 40
0.0
  0
LTYPE
  5
15
330
5
100
AcDbSymbolTableRecord
100
AcDbLinetypeTableRecord
  2
BYLAYER
 70
     0
  3

 72
    65
 73
     0
 40
0.0
  0
LTYPE
  5
16
330
5
100
AcDbSymbolTableRecord
100
AcDbLinetypeTableRecord
  2
CONTINUOUS
 70
     0
  3
Solid line
 72
    65
 73
     0
 40
0.0
  0
ENDTAB
  0
TABLE
  2
LAYER
  5
2
100
AcDbSymbolTable
 70
2
  0
LAYER
  5
50
100
AcDbSymbolTableRecord
100
AcDbLayerTableRecord
  2
0
 70
0
  6
CONTINUOUS
  0
LAYER
  5
51
100
AcDbSymbolTableRecord
100
AcDbLayerTableRecord
  2
Layer_1
 70
0
  6
CONTINUOUS
  0
ENDTAB
  0
TABLE
  2
STYLE
  5
3
330
0
100
AcDbSymbolTable
 70
     1
  0
STYLE
  5
11
330
3
100
AcDbSymbolTableRecord
100
AcDbTextStyleTableRecord
  2
STANDARD
 70
     0
 40
0.0
 41
1.0
 50
0.0
 71
     0
 42
2.5
  3
txt
  4

  0
ENDTAB
  0
TABLE
  2
VIEW
  5
6
330
0
100
AcDbSymbolTable
 70
     0
  0
ENDTAB
  0
TABLE
  2
UCS
  5
7
330
0
100
AcDbSymbolTable
 70
     0
  0
ENDTAB
  0
TABLE
  2
APPID
  5
9
330
0
100
AcDbSymbolTable
 70
     2
  0
APPID
  5
12
330
9
100
AcDbSymbolTableRecord
100
AcDbRegAppTableRecord
  2
ACAD
 70
     0
  0
ENDTAB
  0
TABLE
  2
DIMSTYLE
  5
A
330
0
100
AcDbSymbolTable
 70
     1
  0
DIMSTYLE
105
27
330
A
100
AcDbSymbolTableRecord
100
AcDbDimStyleTableRecord
  2
ISO-25
 70
     0
  3

  4

  5

  6

  7

 40
1.0
 41
2.5
 42
0.625
 43
3.75
 44
1.25
 45
0.0
 46
0.0
 47
0.0
 48
0.0
140
2.5
141
2.5
142
0.0
143
0.03937007874016
144
1.0
145
0.0
146
1.0
147
0.625
 71
     0
 72
     0
 73
     0
 74
     0
 75
     0
 76
     0
 77
     1
 78
     8
170
     0
171
     3
172
     1
173
     0
174
     0
175
     0
176
     0
177
     0
178
     0
270
     2
271
     2
272
     2
273
     2
274
     3
340
11
275
     0
280
     0
281
     0
282
     0
283
     0
284
     8
285
     0
286
     0
287
     3
288
     0
  0
ENDTAB
  0
TABLE
  2
BLOCK_RECORD
  5
1
330
0
100
AcDbSymbolTable
 70
     1
  0
BLOCK_RECORD
  5
1F
330
1
100
AcDbSymbolTableRecord
100
AcDbBlockTableRecord
  2
*MODEL_SPACE
  0
BLOCK_RECORD
  5
1B
330
1
100
AcDbSymbolTableRecord
100
AcDbBlockTableRecord
  2
*PAPER_SPACE
  0
ENDTAB
  0
ENDSEC
  0
SECTION
  2
BLOCKS
  0
BLOCK
  5
20
330
1F
100
AcDbEntity
  8
0
100
AcDbBlockBegin
  2
*MODEL_SPACE
 70
     0
 10
0.0
 20
0.0
 30
0.0
  3
*MODEL_SPACE
  1

  0
ENDBLK
  5
21
330
1F
100
AcDbEntity
  8
0
100
AcDbBlockEnd
  0
BLOCK
  5
1C
330
1B
100
AcDbEntity
 67
     1
  8
0
100
AcDbBlockBegin
  2
*PAPER_SPACE
  1

  0
ENDBLK
  5
1D
330
1B
100
AcDbEntity
 67
     1
  8
0
100
AcDbBlockEnd
  0
ENDSEC
  0
SECTION
  2
ENTITIES
  0
LWPOLYLINE
  5
100
100
AcDbEntity
  8
Layer_1
 62
7
100
AcDbPolyline
 90
404
 70
0
 10
11.587756
 20
1.627306
 30
0.0
 10
11.538161
 20
1.622197
 30
0.0
 10
11.502208
 20
1.606856
 30
0.0
 10
11.480342
 20
1.581742
 30
0.0
 10
11.473049
 20
1.547325
 30
0.0
 10
11.487325
 20
1.503503
 30
0.0
 10
11.529658
 20
1.477431
 30
0.0
 10
11.502077
 20
1.466004
 30
0.0
 10
11.482144
 20
1.449099
 30
0.0
 10
11.470199
 20
1.427098
 30
0.0
 10
11.466213
 20
1.399930
 30
0.0
 10
11.473862
 20
1.359622
 30
0.0
 10
11.496806
 20
1.330477
 30
0.0
 10
11.511744
 20
1.321658
 30
0.0
 10
11.377137
 20
1.321658
 30
0.0
 10
11.377137
 20
1.369338
 30
0.0
 10
11.421179
 20
1.369338
 30
0.0
 10
11.421179
 20
1.426995
 30
0.0
 10
11.377137
 20
1.426995
 30
0.0
 10
11.377137
 20
1.621739
 30
0.0
 10
11.288667
 20
1.621739
 30
0.0
 10
11.165030
 20
1.437578
 30
0.0
 10
11.165030
 20
1.369338
 30
0.0
 10
11.301896
 20
1.369338
 30
0.0
 10
11.301896
 20
1.321658
 30
0.0
 10
10.324261
 20
1.321658
 30
0.0
 10
10.346475
 20
1.335438
 30
0.0
 10
10.372223
 20
1.369176
 30
0.0
 10
10.380816
 20
1.413766
 30
0.0
 10
10.372961
 20
1.458621
 30
0.0
 10
10.349396
 20
1.492314
 30
0.0
 10
10.311717
 20
1.513560
 30
0.0
 10
10.261533
 20
1.520646
 30
0.0
 10
10.242295
 20
1.519213
 30
0.0
 10
10.224105
 20
1.515465
 30
0.0
 10
10.224105
 20
1.563200
 30
0.0
 10
10.358491
 20
1.563200
 30
0.0
 10
10.358491
 20
1.621739
 30
0.0
 10
10.160660
 20
1.621739
 30
0.0
 10
10.160660
 20
1.448106
 30
0.0
 10
10.202442
 20
1.461721
 30
0.0
 10
10.238988
 20
1.466296
 30
0.0
 10
10.264826
 20
1.462782
 30
0.0
 10
10.284463
 20
1.452240
 30
0.0
 10
10.297027
 20
1.435587
 30
0.0
 10
10.301220
 20
1.413766
 30
0.0
 10
10.297027
 20
1.392075
 30
0.0
 10
10.284463
 20
1.375346
 30
0.0
 10
10.264826
 20
1.364804
 30
0.0
 10
10.238988
 20
1.361290
 30
0.0
 10
10.196213
 20
1.368511
 30
0.0
 10
10.148478
 20
1.390229
 30
0.0
 10
10.148478
 20
1.327611
 30
0.0
 10
10.165345
 20
1.321658
 30
0.0
 10
10.072190
 20
1.321658
 30
0.0
 10
10.072190
 20
1.393095
 30
0.0
 10
9.997776
 20
1.393095
 30
0.0
 10
9.997776
 20
1.321658
 30
0.0
 10
9.804685
 20
1.321658
 30
0.0
 10
9.921102
 20
1.576870
 30
0.0
 10
9.921102
 20
1.621739
 30
0.0
 10
9.688544
 20
1.621739
 30
0.0
 10
9.688544
 20
1.563200
 30
0.0
 10
9.837152
 20
1.563200
 30
0.0
 10
9.727184
 20
1.321658
 30
0.0
 10
9.596987
 20
1.321658
 30
0.0
 10
9.596987
 20
1.369338
 30
0.0
 10
9.641030
 20
1.369338
 30
0.0
 10
9.641030
 20
1.426995
 30
0.0
 10
9.596987
 20
1.426995
 30
0.0
 10
9.596987
 20
1.621739
 30
0.0
 10
9.508517
 20
1.621739
 30
0.0
 10
9.384880
 20
1.437578
 30
0.0
 10
9.384880
 20
1.369338
 30
0.0
 10
9.521747
 20
1.369338
 30
0.0
 10
9.521747
 20
1.321658
 30
0.0
 10
8.480115
 20
1.321658
 30
0.0
 10
8.596532
 20
1.576870
 30
0.0
 10
8.596532
 20
1.621739
 30
0.0
 10
8.363974
 20
1.621739
 30
0.0
 10
8.363974
 20
1.563200
 30
0.0
 10
8.512582
 20
1.563200
 30
0.0
 10
8.402614
 20
1.321658
 30
0.0
 10
8.272417
 20
1.321658
 30
0.0
 10
8.272417
 20
1.369338
 30
0.0
 10
8.316459
 20
1.369338
 30
0.0
 10
8.316459
 20
1.426995
 30
0.0
 10
8.272417
 20
1.426995
 30
0.0
 10
8.272417
 20
1.621739
 30
0.0
 10
8.183947
 20
1.621739
 30
0.0
 10
8.060309
 20
1.437578
 30
0.0
 10
8.060309
 20
1.369338
 30
0.0
 10
8.197176
 20
1.369338
 30
0.0
 10
8.197176
 20
1.321658
 30
0.0
 10
7.219596
 20
1.321658
 30
0.0
 10
7.241755
 20
1.335438
 30
0.0
 10
7.267503
 20
1.369176
 30
0.0
 10
7.276095
 20
1.413766
 30
0.0
 10
7.268241
 20
1.458621
 30
0.0
 10
7.244676
 20
1.492314
 30
0.0
 10
7.206997
 20
1.513560
 30
0.0
 10
7.156812
 20
1.520646
 30
0.0
 10
7.137575
 20
1.519213
 30
0.0
 10
7.119385
 20
1.515465
 30
0.0
 10
7.119385
 20
1.563200
 30
0.0
 10
7.253771
 20
1.563200
 30
0.0
 10
7.253771
 20
1.621739
 30
0.0
 10
7.055940
 20
1.621739
 30
0.0
 10
7.055940
 20
1.448106
 30
0.0
 10
7.097722
 20
1.461721
 30
0.0
 10
7.134268
 20
1.466296
 30
0.0
 10
7.160106
 20
1.462782
 30
0.0
 10
7.179743
 20
1.452240
 30
0.0
 10
7.192307
 20
1.435587
 30
0.0
 10
7.196500
 20
1.413766
 30
0.0
 10
7.192307
 20
1.392075
 30
0.0
 10
7.179743
 20
1.375346
 30
0.0
 10
7.160106
 20
1.364804
 30
0.0
 10
7.134268
 20
1.361290
 30
0.0
 10
7.091494
 20
1.368511
 30
0.0
 10
7.043758
 20
1.390229
 30
0.0
 10
7.043758
 20
1.327611
 30
0.0
 10
7.060626
 20
1.321658
 30
0.0
 10
6.967470
 20
1.321658
 30
0.0
 10
6.967470
 20
1.393095
 30
0.0
 10
6.893056
 20
1.393095
 30
0.0
 10
6.893056
 20
1.321658
 30
0.0
 10
6.772450
 20
1.321658
 30
0.0
 10
6.794884
 20
1.336871
 30
0.0
 10
6.819231
 20
1.371760
 30
0.0
 10
6.827351
 20
1.416467
 30
0.0
 10
6.820058
 20
1.457026
 30
0.0
 10
6.798192
 20
1.489006
 30
0.0
 10
6.764647
 20
1.509794
 30
0.0
 10
6.721904
 20
1.516733
 30
0.0
 10
6.687177
 20
1.511551
 30
0.0
 10
6.657632
 20
1.496448
 30
0.0
 10
6.665073
 20
1.530496
 30
0.0
 10
6.680783
 20
1.554932
 30
0.0
 10
6.704554
 20
1.569842
 30
0.0
 10
6.736180
 20
1.574831
 30
0.0
 10
6.770080
 20
1.570256
 30
0.0
 10
6.807066
 20
1.556641
 30
0.0
 10
6.807066
 20
1.613636
 30
0.0
 10
6.767379
 20
1.623613
 30
0.0
 10
6.726038
 20
1.626865
 30
0.0
 10
6.665990
 20
1.615938
 30
0.0
 10
6.620204
 20
1.583099
 30
0.0
 10
6.591383
 20
1.531261
 30
0.0
 10
6.581785
 20
1.462989
 30
0.0
 10
6.589994
 20
1.396829
 30
0.0
 10
6.614637
 20
1.347620
 30
0.0
 10
6.645781
 20
1.321658
 30
0.0
 10
6.492267
 20
1.321658
 30
0.0
 10
6.492267
 20
1.369338
 30
0.0
 10
6.536309
 20
1.369338
 30
0.0
 10
6.536309
 20
1.426995
 30
0.0
 10
6.492267
 20
1.426995
 30
0.0
 10
6.492267
 20
1.621739
 30
0.0
 10
6.403797
 20
1.621739
 30
0.0
 10
6.280160
 20
1.437578
 30
0.0
 10
6.280160
 20
1.369338
 30
0.0
 10
6.417026
 20
1.369338
 30
0.0
 10
6.417026
 20
1.321658
 30
0.0
 10
5.447880
 20
1.321658
 30
0.0
 10
5.470314
 20
1.336871
 30
0.0
 10
5.494661
 20
1.371760
 30
0.0
 10
5.502781
 20
1.416467
 30
0.0
 10
5.495488
 20
1.457026
 30
0.0
 10
5.473622
 20
1.489006
 30
0.0
 10
5.440077
 20
1.509794
 30
0.0
 10
5.397333
 20
1.516733
 30
0.0
 10
5.362607
 20
1.511551
 30
0.0
 10
5.333062
 20
1.496448
 30
0.0
 10
5.340503
 20
1.530496
 30
0.0
 10
5.356213
 20
1.554932
 30
0.0
 10
5.379984
 20
1.569842
 30
0.0
 10
5.411610
 20
1.574831
 30
0.0
 10
5.445509
 20
1.570256
 30
0.0
 10
5.482496
 20
1.556641
 30
0.0
 10
5.482496
 20
1.613636
 30
0.0
 10
5.442809
 20
1.623613
 30
0.0
 10
5.401467
 20
1.626865
 30
0.0
 10
5.341419
 20
1.615938
 30
0.0
 10
5.295634
 20
1.583099
 30
0.0
 10
5.266812
 20
1.531261
 30
0.0
 10
5.257215
 20
1.462989
 30
0.0
 10
5.265424
 20
1.396829
 30
0.0
 10
5.290067
 20
1.347620
 30
0.0
 10
5.321211
 20
1.321658
 30
0.0
 10
5.167697
 20
1.321658
 30
0.0
 10
5.167697
 20
1.369338
 30
0.0
 10
5.211739
 20
1.369338
 30
0.0
 10
5.211739
 20
1.426995
 30
0.0
 10
5.167697
 20
1.426995
 30
0.0
 10
5.167697
 20
1.621739
 30
0.0
 10
5.079227
 20
1.621739
 30
0.0
 10
4.955590
 20
1.437578
 30
0.0
 10
4.955590
 20
1.369338
 30
0.0
 10
5.092456
 20
1.369338
 30
0.0
 10
5.092456
 20
1.321658
 30
0.0
 10
4.114821
 20
1.321658
 30
0.0
 10
4.137035
 20
1.335438
 30
0.0
 10
4.162783
 20
1.369176
 30
0.0
 10
4.171376
 20
1.413766
 30
0.0
 10
4.163521
 20
1.458621
 30
0.0
 10
4.139956
 20
1.492314
 30
0.0
 10
4.102277
 20
1.513560
 30
0.0
 10
4.052092
 20
1.520646
 30
0.0
 10
4.032855
 20
1.519213
 30
0.0
 10
4.014665
 20
1.515465
 30
0.0
 10
4.014665
 20
1.563200
 30
0.0
 10
4.149051
 20
1.563200
 30
0.0
 10
4.149051
 20
1.621739
 30
0.0
 10
3.951220
 20
1.621739
 30
0.0
 10
3.951220
 20
1.448106
 30
0.0
 10
3.993002
 20
1.461721
 30
0.0
 10
4.029548
 20
1.466296
 30
0.0
 10
4.055386
 20
1.462782
 30
0.0
 10
4.075023
 20
1.452240
 30
0.0
 10
4.087587
 20
1.435587
 30
0.0
 10
4.091780
 20
1.413766
 30
0.0
 10
4.087587
 20
1.392075
 30
0.0
 10
4.075023
 20
1.375346
 30
0.0
 10
4.055386
 20
1.364804
 30
0.0
 10
4.029548
 20
1.361290
 30
0.0
 10
3.986773
 20
1.368511
 30
0.0
 10
3.939038
 20
1.390229
 30
0.0
 10
3.939038
 20
1.327611
 30
0.0
 10
3.955905
 20
1.321658
 30
0.0
 10
3.862750
 20
1.321658
 30
0.0
 10
3.862750
 20
1.393095
 30
0.0
 10
3.788336
 20
1.393095
 30
0.0
 10
3.788336
 20
1.321658
 30
0.0
 10
3.659297
 20
1.321658
 30
0.0
 10
3.681455
 20
1.335438
 30
0.0
 10
3.707204
 20
1.369176
 30
0.0
 10
3.715796
 20
1.413766
 30
0.0
 10
3.707941
 20
1.458621
 30
0.0
 10
3.684377
 20
1.492314
 30
0.0
 10
3.646698
 20
1.513560
 30
0.0
 10
3.596513
 20
1.520646
 30
0.0
 10
3.577276
 20
1.519213
 30
0.0
 10
3.559086
 20
1.515465
 30
0.0
 10
3.559086
 20
1.563200
 30
0.0
 10
3.693472
 20
1.563200
 30
0.0
 10
3.693472
 20
1.621739
 30
0.0
 10
3.495641
 20
1.621739
 30
0.0
 10
3.495641
 20
1.448106
 30
0.0
 10
3.537423
 20
1.461721
 30
0.0
 10
3.573968
 20
1.466296
 30
0.0
 10
3.599807
 20
1.462782
 30
0.0
 10
3.619444
 20
1.452240
 30
0.0
 10
3.632008
 20
1.435587
 30
0.0
 10
3.636201
 20
1.413766
 30
0.0
 10
3.632008
 20
1.392075
 30
0.0
 10
3.619444
 20
1.375346
 30
0.0
 10
3.599807
 20
1.364804
 30
0.0
 10
3.573968
 20
1.361290
 30
0.0
 10
3.531194
 20
1.368511
 30
0.0
 10
3.483459
 20
1.390229
 30
0.0
 10
3.483459
 20
1.327611
 30
0.0
 10
3.500326
 20
1.321658
 30
0.0
 10
3.387547
 20
1.321658
 30
0.0
 10
3.387547
 20
1.369338
 30
0.0
 10
3.431590
 20
1.369338
 30
0.0
 10
3.431590
 20
1.426995
 30
0.0
 10
3.387547
 20
1.426995
 30
0.0
 10
3.387547
 20
1.621739
 30
0.0
 10
3.299077
 20
1.621739
 30
0.0
 10
3.175440
 20
1.437578
 30
0.0
 10
3.175440
 20
1.369338
 30
0.0
 10
3.312306
 20
1.369338
 30
0.0
 10
3.312306
 20
1.321658
 30
0.0
 10
2.334726
 20
1.321658
 30
0.0
 10
2.356885
 20
1.335438
 30
0.0
 10
2.382634
 20
1.369176
 30
0.0
 10
2.391226
 20
1.413766
 30
0.0
 10
2.383371
 20
1.458621
 30
0.0
 10
2.359806
 20
1.492314
 30
0.0
 10
2.322127
 20
1.513560
 30
0.0
 10
2.271943
 20
1.520646
 30
0.0
 10
2.252705
 20
1.519213
 30
0.0
 10
2.234515
 20
1.515465
 30
0.0
 10
2.234515
 20
1.563200
 30
0.0
 10
2.368901
 20
1.563200
 30
0.0
 10
2.368901
 20
1.621739
 30
0.0
 10
2.171070
 20
1.621739
 30
0.0
 10
2.171070
 20
1.448106
 30
0.0
 10
2.212852
 20
1.461721
 30
0.0
 10
2.249398
 20
1.466296
 30
0.0
 10
2.275236
 20
1.462782
 30
0.0
 10
2.294873
 20
1.452240
 30
0.0
 10
2.307438
 20
1.435587
 30
0.0
 10
2.311630
 20
1.413766
 30
0.0
 10
2.307438
 20
1.392075
 30
0.0
 10
2.294873
 20
1.375346
 30
0.0
 10
2.275236
 20
1.364804
 30
0.0
 10
2.249398
 20
1.361290
 30
0.0
 10
2.206624
 20
1.368511
 30
0.0
 10
2.158888
 20
1.390229
 30
0.0
 10
2.158888
 20
1.327611
 30
0.0
 10
2.175756
 20
1.321658
 30
0.0
 10
2.062977
 20
1.321658
 30
0.0
 10
2.062977
 20
1.369338
 30
0.0
 10
2.107019
 20
1.369338
 30
0.0
 10
2.107019
 20
1.426995
 30
0.0
 10
2.062977
 20
1.426995
 30
0.0
 10
2.062977
 20
1.621739
 30
0.0
 10
1.974507
 20
1.621739
 30
0.0
 10
1.850869
 20
1.437578
 30
0.0
 10
1.850869
 20
1.369338
 30
0.0
 10
1.987736
 20
1.369338
 30
0.0
 10
1.987736
 20
1.321658
 30
0.0
 10
1.010156
 20
1.321658
 30
0.0
 10
1.032315
 20
1.335438
 30
0.0
 10
1.058063
 20
1.369176
 30
0.0
 10
1.066655
 20
1.413766
 30
0.0
 10
1.058801
 20
1.458621
 30
0.0
 10
1.035236
 20
1.492314
 30
0.0
 10
0.997557
 20
1.513560
 30
0.0
 10
0.947372
 20
1.520646
 30
0.0
 10
0.928135
 20
1.519213
 30
0.0
 10
0.909945
 20
1.515465
 30
0.0
 10
0.909945
 20
1.563200
 30
0.0
 10
1.044331
 20
1.563200
 30
0.0
 10
1.044331
 20
1.621739
 30
0.0
 10
0.846500
 20
1.621739
 30
0.0
 10
0.846500
 20
1.448106
 30
0.0
 10
0.888282
 20
1.461721
 30
0.0
 10
0.924828
 20
1.466296
 30
0.0
 10
0.950666
 20
1.462782
 30
0.0
 10
0.970303
 20
1.452240
 30
0.0
 10
0.982867
 20
1.435587
 30
0.0
 10
0.987060
 20
1.413766
 30
0.0
 10
0.982867
 20
1.392075
 30
0.0
 10
0.970303
 20
1.375346
 30
0.0
 10
0.950666
 20
1.364804
 30
0.0
 10
0.924828
 20
1.361290
 30
0.0
 10
0.882053
 20
1.368511
 30
0.0
 10
0.834318
 20
1.390229
 30
0.0
 10
0.834318
 20
1.327611
 30
0.0
 10
0.851185
 20
1.321658
 30
0.0
 10
0.758030
 20
1.321658
 30
0.0
 10
0.758030
 20
1.393095
 30
0.0
 10
0.683616
 20
1.393095
 30
0.0
 10
0.683616
 20
1.321658
 30
0.0
 10
0.577176
 20
1.321658
 30
0.0
 10
0.577176
 20
1.369338
 30
0.0
 10
0.621218
 20
1.369338
 30
0.0
 10
0.621218
 20
1.426995
 30
0.0
 10
0.577176
 20
1.426995
 30
0.0
 10
0.577176
 20
1.621739
 30
0.0
 10
0.488706
 20
1.621739
 30
0.0
 10
0.365069
 20
1.437578
 30
0.0
 10
0.365069
 20
1.369338
 30
0.0
 10
0.501935
 20
1.369338
 30
0.0
 10
0.501935
 20
1.321658
 30
0.0
 10
0.282827
 20
1.321658
 30
0.0
 10
0.282827
 20
1.369338
 30
0.0
 10
0.326869
 20
1.369338
 30
0.0
 10
0.326869
 20
1.426995
 30
0.0
 10
0.282827
 20
1.426995
 30
0.0
 10
0.282827
 20
1.621739
 30
0.0
 10
0.194357
 20
1.621739
 30
0.0
 10
0.070720
 20
1.437578
 30
0.0
 10
0.070720
 20
1.369338
 30
0.0
 10
0.207586
 20
1.369338
 30
0.0
 10
0.207586
 20
1.321658
 30
0.0
 10
-0.000001
 20
1.321658
 30
0.0
 10
-0.000001
 20
1.217092
 30
0.0
 10
-0.000001
 20
1.209485
 30
0.0
 10
-0.000001
 20
0.079659
 30
0.0
 10
-0.000001
 20
0.015167
 30
0.0
 10
-0.000001
 20
0.004694
 30
0.0
 10
7.594808
 20
0.004694
 30
0.0
 10
7.594808
 20
0.004363
 30
0.0
 10
8.860178
 20
0.004363
 30
0.0
 10
8.860178
 20
0.004694
 30
0.0
 10
9.163787
 20
0.004694
 30
0.0
 10
9.163787
 20
0.002158
 30
0.0
 10
10.442662
 20
0.002158
 30
0.0
 10
10.442662
 20
0.004694
 30
0.0
 10
10.749413
 20
0.004694
 30
0.0
 10
10.749413
 20
0.000009
 30
0.0
 10
12.041737
 20
0.000009
 30
0.0
 10
12.041737
 20
1.296467
 30
0.0
 10
12.040855
 20
1.296467
 30
0.0
 10
12.040855
 20
1.321658
 30
0.0
 10
11.663383
 20
1.321658
 30
0.0
 10
11.678101
 20
1.330477
 30
0.0
 10
11.701045
 20
1.359622
 30
0.0
 10
11.708693
 20
1.399930
 30
0.0
 10
11.704649
 20
1.427098
 30
0.0
 10
11.692542
 20
1.449099
 30
0.0
 10
11.672771
 20
1.466004
 30
0.0
 10
11.645248
 20
1.477431
 30
0.0
 10
11.687582
 20
1.503503
 30
0.0
 10
11.702078
 20
1.547325
 30
0.0
 10
11.694785
 20
1.581845
 30
0.0
 10
11.672919
 20
1.606856
 30
0.0
 10
11.637056
 20
1.622197
 30
0.0
 10
11.587756
 20
1.627306
 30
0.0
 10
11.587756
 20
1.627306
 30
0.0
  0
LWPOLYLINE
  5
101
100
AcDbEntity
  8
Layer_1
 62
7
100
AcDbPolyline
 90
10
 70
0
 10
11.587756
 20
1.577256
 30
0.0
 10
11.616475
 20
1.567389
 30
0.0
 10
11.626617
 20
1.539222
 30
0.0
 10
11.616475
 20
1.510945
 30
0.0
 10
11.587756
 20
1.501023
 30
0.0
 10
11.558432
 20
1.510945
 30
0.0
 10
11.548290
 20
1.539222
 30
0.0
 10
11.558432
 20
1.567389
 30
0.0
 10
11.587756
 20
1.577256
 30
0.0
 10
11.587756
 20
1.577256
 30
0.0
  0
LWPOLYLINE
  5
102
100
AcDbEntity
  8
Layer_1
 62
7
100
AcDbPolyline
 90
5
 70
0
 10
0.207586
 20
1.556200
 30
0.0
 10
0.207586
 20
1.426995
 30
0.0
 10
0.120329
 20
1.426995
 30
0.0
 10
0.207586
 20
1.556200
 30
0.0
 10
0.207586
 20
1.556200
 30
0.0
  0
LWPOLYLINE
  5
103
100
AcDbEntity
  8
Layer_1
 62
7
100
AcDbPolyline
 90
5
 70
0
 10
0.501935
 20
1.556200
 30
0.0
 10
0.501935
 20
1.426995
 30
0.0
 10
0.414678
 20
1.426995
 30
0.0
 10
0.501935
 20
1.556200
 30
0.0
 10
0.501935
 20
1.556200
 30
0.0
  0
LWPOLYLINE
  5
104
100
AcDbEntity
  8
Layer_1
 62
7
100
AcDbPolyline
 90
5
 70
0
 10
1.987736
 20
1.556200
 30
0.0
 10
1.987736
 20
1.426995
 30
0.0
 10
1.900479
 20
1.426995
 30
0.0
 10
1.987736
 20
1.556200
 30
0.0
 10
1.987736
 20
1.556200
 30
0.0
  0
LWPOLYLINE
  5
105
100
AcDbEntity
  8
Layer_1
 62
7
100
AcDbPolyline
 90
5
 70
0
 10
3.312306
 20
1.556200
 30
0.0
 10
3.312306
 20
1.426995
 30
0.0
 10
3.225049
 20
1.426995
 30
0.0
 10
3.312306
 20
1.556200
 30
0.0
 10
3.312306
 20
1.556200
 30
0.0
  0
LWPOLYLINE
  5
106
100
AcDbEntity
  8
Layer_1
 62
7
100
AcDbPolyline
 90
5
 70
0
 10
5.092456
 20
1.556200
 30
0.0
 10
5.092456
 20
1.426995
 30
0.0
 10
5.005199
 20
1.426995
 30
0.0
 10
5.092456
 20
1.556200
 30
0.0
 10
5.092456
 20
1.556200
 30
0.0
  0
LWPOLYLINE
  5
107
100
AcDbEntity
  8
Layer_1
 62
7
100
AcDbPolyline
 90
5
 70
0
 10
6.417026
 20
1.556200
 30
0.0
 10
6.417026
 20
1.426995
 30
0.0
 10
6.329769
 20
1.426995
 30
0.0
 10
6.417026
 20
1.556200
 30
0.0
 10
6.417026
 20
1.556200
 30
0.0
  0
LWPOLYLINE
  5
108
100
AcDbEntity
  8
Layer_1
 62
7
100
AcDbPolyline
 90
5
 70
0
 10
8.197176
 20
1.556200
 30
0.0
 10
8.197176
 20
1.426995
 30
0.0
 10
8.109919
 20
1.426995
 30
0.0
 10
8.197176
 20
1.556200
 30
0.0
 10
8.197176
 20
1.556200
 30
0.0
  0
LWPOLYLINE
  5
109
100
AcDbEntity
  8
Layer_1
 62
7
100
AcDbPolyline
 90
5
 70
0
 10
9.521747
 20
1.556200
 30
0.0
 10
9.521747
 20
1.426995
 30
0.0
 10
9.434489
 20
1.426995
 30
0.0
 10
9.521747
 20
1.556200
 30
0.0
 10
9.521747
 20
1.556200
 30
0.0
  0
LWPOLYLINE
  5
10a
100
AcDbEntity
  8
Layer_1
 62
7
100
AcDbPolyline
 90
5
 70
0
 10
11.301896
 20
1.556200
 30
0.0
 10
11.301896
 20
1.426995
 30
0.0
 10
11.214639
 20
1.426995
 30
0.0
 10
11.301896
 20
1.556200
 30
0.0
 10
11.301896
 20
1.556200
 30
0.0
  0
LWPOLYLINE
  5
10b
100
AcDbEntity
  8
Layer_1
 62
7
100
AcDbPolyline
 90
10
 70
0
 10
5.384104
 20
1.465470
 30
0.0
 10
5.415523
 20
1.451799
 30
0.0
 10
5.426052
 20
1.411285
 30
0.0
 10
5.415523
 20
1.370550
 30
0.0
 10
5.384104
 20
1.357156
 30
0.0
 10
5.352685
 20
1.370550
 30
0.0
 10
5.342377
 20
1.411285
 30
0.0
 10
5.352685
 20
1.451799
 30
0.0
 10
5.384104
 20
1.465470
 30
0.0
 10
5.384104
 20
1.465470
 30
0.0
  0
LWPOLYLINE
  5
10c
100
AcDbEntity
  8
Layer_1
 62
7
100
AcDbPolyline
 90
10
 70
0
 10
6.708674
 20
1.465470
 30
0.0
 10
6.740094
 20
1.451799
 30
0.0
 10
6.750622
 20
1.411285
 30
0.0
 10
6.740094
 20
1.370550
 30
0.0
 10
6.708674
 20
1.357156
 30
0.0
 10
6.677255
 20
1.370550
 30
0.0
 10
6.666948
 20
1.411285
 30
0.0
 10
6.677255
 20
1.451799
 30
0.0
 10
6.708674
 20
1.465470
 30
0.0
 10
6.708674
 20
1.465470
 30
0.0
  0
LWPOLYLINE
  5
10d
100
AcDbEntity
  8
Layer_1
 62
7
100
AcDbPolyline
 90
10
 70
0
 10
11.587756
 20
1.451193
 30
0.0
 10
11.621656
 20
1.439011
 30
0.0
 10
11.633452
 20
1.404064
 30
0.0
 10
11.621656
 20
1.369117
 30
0.0
 10
11.587756
 20
1.357156
 30
0.0
 10
11.553471
 20
1.369117
 30
0.0
 10
11.541454
 20
1.404064
 30
0.0
 10
11.553471
 20
1.439011
 30
0.0
 10
11.587756
 20
1.451193
 30
0.0
 10
11.587756
 20
1.451193
 30
0.0
  0
LWPOLYLINE
  5
10e
100
AcDbEntity
  8
Layer_1
 62
7
100
AcDbPolyline
 90
6
 70
0
 10
1.198065
 20
1.209485
 30
0.0
 10
1.485634
 20
1.209485
 30
0.0
 10
1.485634
 20
0.079659
 30
0.0
 10
1.198065
 20
0.079659
 30
0.0
 10
1.198065
 20
1.209485
 30
0.0
 10
1.198065
 20
1.209485
 30
0.0
  0
LWPOLYLINE
  5
10f
100
AcDbEntity
  8
Layer_1
 62
7
100
AcDbPolyline
 90
6
 70
0
 10
2.697150
 20
1.209485
 30
0.0
 10
2.987916
 20
1.209485
 30
0.0
 10
2.987916
 20
0.079659
 30
0.0
 10
2.697150
 20
0.079659
 30
0.0
 10
2.697150
 20
1.209485
 30
0.0
 10
2.697150
 20
1.209485
 30
0.0
  0
LWPOLYLINE
  5
110
100
AcDbEntity
  8
Layer_1
 62
7
100
AcDbPolyline
 90
6
 70
0
 10
4.212937
 20
1.209485
 30
0.0
 10
4.506845
 20
1.209485
 30
0.0
 10
4.506845
 20
0.079659
 30
0.0
 10
4.212937
 20
0.079659
 30
0.0
 10
4.212937
 20
1.209485
 30
0.0
 10
4.212937
 20
1.209485
 30
0.0
  0
LWPOLYLINE
  5
111
100
AcDbEntity
  8
Layer_1
 62
7
100
AcDbPolyline
 90
6
 70
0
 10
5.745316
 20
1.209485
 30
0.0
 10
6.042476
 20
1.209485
 30
0.0
 10
6.042476
 20
0.079659
 30
0.0
 10
5.745316
 20
0.079659
 30
0.0
 10
5.745316
 20
1.209485
 30
0.0
 10
5.745316
 20
1.209485
 30
0.0
  0
LWPOLYLINE
  5
112
100
AcDbEntity
  8
Layer_1
 62
7
100
AcDbPolyline
 90
6
 70
0
 10
7.294451
 20
1.209485
 30
0.0
 10
7.594808
 20
1.209485
 30
0.0
 10
7.594808
 20
0.079659
 30
0.0
 10
7.294451
 20
0.079659
 30
0.0
 10
7.294451
 20
1.209485
 30
0.0
 10
7.294451
 20
1.209485
 30
0.0
  0
LWPOLYLINE
  5
113
100
AcDbEntity
  8
Layer_1
 62
7
100
AcDbPolyline
 90
6
 70
0
 10
8.860178
 20
1.209485
 30
0.0
 10
9.163787
 20
1.209485
 30
0.0
 10
9.163787
 20
0.079659
 30
0.0
 10
8.860178
 20
0.079659
 30
0.0
 10
8.860178
 20
1.209485
 30
0.0
 10
8.860178
 20
1.209485
 30
0.0
  0
LWPOLYLINE
  5
114
100
AcDbEntity
  8
Layer_1
 62
7
100
AcDbPolyline
 90
6
 70
0
 10
10.442662
 20
1.209485
 30
0.0
 10
10.749413
 20
1.209485
 30
0.0
 10
10.749413
 20
0.079659
 30
0.0
 10
10.442662
 20
0.079659
 30
0.0
 10
10.442662
 20
1.209485
 30
0.0
 10
10.442662
 20
1.209485
 30
0.0
  0
LWPOLYLINE
  5
115
100
AcDbEntity
  8
Layer_1
 62
7
100
AcDbPolyline
 90
6
 70
0
 10
10.843671
 20
1.202209
 30
0.0
 10
11.947480
 20
1.202209
 30
0.0
 10
11.947480
 20
0.094266
 30
0.0
 10
10.843671
 20
0.094266
 30
0.0
 10
10.843671
 20
1.202209
 30
0.0
 10
10.843671
 20
1.202209
 30
0.0
  0
LWPOLYLINE
  5
116
100
AcDbEntity
  8
Layer_1
 62
7
100
AcDbPolyline
 90
6
 70
0
 10
9.257053
 20
1.191846
 30
0.0
 10
10.349341
 20
1.191846
 30
0.0
 10
10.349341
 20
0.095424
 30
0.0
 10
9.257053
 20
0.095424
 30
0.0
 10
9.257053
 20
1.191846
 30
0.0
 10
9.257053
 20
1.191846
 30
0.0
  0
LWPOLYLINE
  5
117
100
AcDbEntity
  8
Layer_1
 62
7
100
AcDbPolyline
 90
6
 70
0
 10
7.687082
 20
1.181483
 30
0.0
 10
8.767905
 20
1.181483
 30
0.0
 10
8.767905
 20
0.096637
 30
0.0
 10
7.687082
 20
0.096637
 30
0.0
 10
7.687082
 20
1.181483
 30
0.0
 10
7.687082
 20
1.181483
 30
0.0
  0
LWPOLYLINE
  5
118
100
AcDbEntity
  8
Layer_1
 62
7
100
AcDbPolyline
 90
6
 70
0
 10
6.133812
 20
1.171121
 30
0.0
 10
7.203115
 20
1.171121
 30
0.0
 10
7.203115
 20
0.097849
 30
0.0
 10
6.133812
 20
0.097849
 30
0.0
 10
6.133812
 20
1.171121
 30
0.0
 10
6.133812
 20
1.171121
 30
0.0
  0
LWPOLYLINE
  5
119
100
AcDbEntity
  8
Layer_1
 62
7
100
AcDbPolyline
 90
6
 70
0
 10
4.597189
 20
1.160813
 30
0.0
 10
5.655026
 20
1.160813
 30
0.0
 10
5.655026
 20
0.099007
 30
0.0
 10
4.597189
 20
0.099007
 30
0.0
 10
4.597189
 20
1.160813
 30
0.0
 10
4.597189
 20
1.160813
 30
0.0
  0
LWPOLYLINE
  5
11a
100
AcDbEntity
  8
Layer_1
 62
7
100
AcDbPolyline
 90
6
 70
0
 10
3.077268
 20
1.150450
 30
0.0
 10
4.123585
 20
1.150450
 30
0.0
 10
4.123585
 20
0.100220
 30
0.0
 10
3.077268
 20
0.100220
 30
0.0
 10
3.077268
 20
1.150450
 30
0.0
 10
3.077268
 20
1.150450
 30
0.0
  0
LWPOLYLINE
  5
11b
100
AcDbEntity
  8
Layer_1
 62
7
100
AcDbPolyline
 90
6
 70
0
 10
1.573994
 20
1.140087
 30
0.0
 10
2.608790
 20
1.140087
 30
0.0
 10
2.608790
 20
0.101377
 30
0.0
 10
1.573994
 20
0.101377
 30
0.0
 10
1.573994
 20
1.140087
 30
0.0
 10
1.573994
 20
1.140087
 30
0.0
  0
LWPOLYLINE
  5
11c
100
AcDbEntity
  8
Layer_1
 62
7
100
AcDbPolyline
 90
6
 70
0
 10
0.087366
 20
1.129724
 30
0.0
 10
1.110697
 20
1.129724
 30
0.0
 10
1.110697
 20
0.102590
 30
0.0
 10
0.087366
 20
0.102590
 30
0.0
 10
0.087366
 20
1.129724
 30
0.0
 10
0.087366
 20
1.129724
 30
0.0
  0
ENDSEC
  0
SECTION
  2
OBJECTS
  0
DICTIONARY
  5
C
330
0
100
AcDbDictionary
  3
ACAD_GROUP
350
D
  3
ACAD_MLINESTYLE
350
17
  0
DICTIONARY
  5
D
330
C
100
AcDbDictionary
  0
DICTIONARY
  5
1A
330
C
100
AcDbDictionary
  0
DICTIONARY
  5
17
330
C
100
AcDbDictionary
  3
STANDARD
350
18
  0
DICTIONARY
  5
19
330
C
100
AcDbDictionary
  0
ENDSEC
  0
EOF
