<?xml version="1.0" standalone="no"?>
<!DOCTYPE svg PUBLIC "-//W3C//DTD SVG 20010904//EN"
 "http://www.w3.org/TR/2001/REC-SVG-20010904/DTD/svg10.dtd">
<svg version="1.0" xmlns="http://www.w3.org/2000/svg"
 width="412.000000pt" height="412.000000pt" viewBox="0 0 412.000000 412.000000"
 preserveAspectRatio="xMidYMid meet">
<metadata>
Created by potrace 1.13, written by Peter Selinger 2001-2015
</metadata>
<g transform="translate(0.000000,412.000000) scale(0.100000,-0.100000)"
fill="#000000" stroke="none">
<path d="M10 2055 l0 -2045 1005 0 1005 0 0 380 0 380 -215 0 -215 0 0 -45 0
-45 170 0 170 0 0 -120 0 -120 -170 0 -170 0 0 -45 0 -45 170 0 170 0 0 -120
0 -120 -455 0 -455 0 0 120 0 120 165 0 165 0 0 45 0 45 -165 0 -165 0 0 120
0 120 165 0 165 0 0 45 0 45 -290 0 -290 0 0 335 0 335 -165 0 -165 0 0 120 0
120 285 0 285 0 0 -335 0 -335 420 0 420 0 0 380 0 380 -40 0 -40 0 0 285 0
285 85 0 85 0 0 45 0 45 -130 0 -130 0 0 -165 0 -165 -170 0 -170 0 0 -45 0
-45 170 0 170 0 0 -165 0 -165 40 0 40 0 0 -120 0 -120 -160 0 -160 0 0 165 0
165 -50 0 -50 0 0 -210 0 -210 210 0 210 0 0 -120 0 -120 -330 0 -330 0 0 330
0 330 -165 0 -165 0 0 120 0 120 165 0 165 0 0 45 0 45 -165 0 -165 0 0 120 0
120 165 0 165 0 0 335 0 335 245 0 245 0 0 -120 0 -120 -125 0 -125 0 0 -215
0 -215 50 0 50 0 0 165 0 165 250 0 250 0 0 50 0 50 -125 0 -125 0 0 120 0
120 125 0 125 0 0 125 0 125 115 0 115 0 0 -125 0 -125 125 0 125 0 0 -120 0
-120 -125 0 -125 0 0 -50 0 -50 250 0 250 0 0 -200 0 -200 -120 0 -120 0 0 80
0 80 -130 0 -130 0 0 -45 0 -45 85 0 85 0 0 -285 0 -285 -45 0 -45 0 0 -45 0
-45 90 0 90 0 0 85 0 85 120 0 120 0 0 -205 0 -205 -85 0 -85 0 0 -45 0 -45
130 0 130 0 0 295 0 295 -165 0 -165 0 0 115 0 115 165 0 165 0 0 300 0 300
-125 0 -125 0 0 120 0 120 245 0 245 0 0 -335 0 -335 50 0 50 0 0 380 0 380
-420 0 -420 0 0 125 0 125 -210 0 -210 0 0 -125 0 -125 -415 0 -415 0 0 -335
0 -335 -285 0 -285 0 0 120 0 120 165 0 165 0 0 335 0 335 415 0 415 0 0 215
0 215 -45 0 -45 0 0 -170 0 -170 -585 0 -585 0 0 -45 0 -45 170 0 170 0 0
-285 0 -285 -170 0 -170 0 0 -215 0 -215 170 0 170 0 0 -285 0 -285 -170 0
-170 0 0 -210 0 -210 170 0 170 0 0 -290 0 -290 -170 0 -170 0 0 -45 0 -45
295 0 295 0 0 -120 0 -120 -295 0 -295 0 0 -45 0 -45 295 0 295 0 0 -120 0
-120 -415 0 -415 0 0 450 0 450 170 0 170 0 0 50 0 50 -170 0 -170 0 0 450 0
450 170 0 170 0 0 45 0 45 -170 0 -170 0 0 455 0 455 170 0 170 0 0 45 0 45
-170 0 -170 0 0 455 0 455 540 0 540 0 0 -120 0 -120 -420 0 -420 0 0 -50 0
-50 465 0 465 0 0 170 0 170 285 0 285 0 0 -210 0 -210 50 0 50 0 0 210 0 210
115 0 115 0 0 -210 0 -210 45 0 45 0 0 210 0 210 290 0 290 0 0 -170 0 -170
415 0 415 0 0 -120 0 -120 -535 0 -535 0 0 170 0 170 -50 0 -50 0 0 -215 0
-215 420 0 420 0 0 -335 0 -335 165 0 165 0 0 -120 0 -120 -165 0 -165 0 0
-165 0 -165 -170 0 -170 0 0 -45 0 -45 170 0 170 0 0 -165 0 -165 165 0 165 0
0 -120 0 -120 -165 0 -165 0 0 -380 0 -380 165 0 165 0 0 -120 0 -120 -165 0
-165 0 0 -45 0 -45 210 0 210 0 0 210 0 210 -165 0 -165 0 0 290 0 290 165 0
165 0 0 210 0 210 -165 0 -165 0 0 285 0 285 165 0 165 0 0 215 0 215 -165 0
-165 0 0 285 0 285 165 0 165 0 0 215 0 215 -415 0 -415 0 0 120 0 120 535 0
535 0 0 -455 0 -455 -165 0 -165 0 0 -45 0 -45 165 0 165 0 0 -455 0 -455
-165 0 -165 0 0 -45 0 -45 165 0 165 0 0 -450 0 -450 -165 0 -165 0 0 -50 0
-50 165 0 165 0 0 -450 0 -450 -910 0 -910 0 0 450 0 450 265 0 265 0 0 -120
0 -120 -145 0 -145 0 0 -45 0 -45 145 0 145 0 0 -120 0 -120 -145 0 -145 0 0
-45 0 -45 340 0 340 0 0 45 0 45 -150 0 -150 0 0 120 0 120 150 0 150 0 0 45
0 45 -150 0 -150 0 0 120 0 120 150 0 150 0 0 380 0 380 -50 0 -50 0 0 -330 0
-330 -490 0 -490 0 0 120 0 120 120 0 120 0 0 45 0 45 -120 0 -120 0 0 250 0
250 -40 0 -40 0 0 115 0 115 115 0 115 0 0 -115 0 -115 -40 0 -40 0 0 -215 0
-215 125 0 125 0 0 -120 0 -120 -125 0 -125 0 0 -45 0 -45 420 0 420 0 0 335
0 335 120 0 120 0 0 -455 0 -455 -145 0 -145 0 0 -45 0 -45 145 0 145 0 0
-120 0 -120 -145 0 -145 0 0 -50 0 -50 145 0 145 0 0 -120 0 -120 -410 0 -410
0 0 120 0 120 145 0 145 0 0 50 0 50 -145 0 -145 0 0 120 0 120 145 0 145 0 0
45 0 45 -195 0 -195 0 0 -380 0 -380 840 0 840 0 0 380 0 380 -165 0 -165 0 0
120 0 120 165 0 165 0 0 380 0 380 -165 0 -165 0 0 115 0 115 165 0 165 0 0
380 0 380 -165 0 -165 0 0 120 0 120 165 0 165 0 0 380 0 380 -465 0 -465 0 0
-45 0 -45 420 0 420 0 0 -285 0 -285 -170 0 -170 0 0 -215 0 -215 170 0 170 0
0 -285 0 -285 -170 0 -170 0 0 -210 0 -210 170 0 170 0 0 -290 0 -290 -170 0
-170 0 0 -210 0 -210 170 0 170 0 0 -290 0 -290 -290 0 -290 0 0 120 0 120
170 0 170 0 0 50 0 50 -170 0 -170 0 0 450 0 450 170 0 170 0 0 50 0 50 -170
0 -170 0 0 165 0 165 -165 0 -165 0 0 115 0 115 165 0 165 0 0 170 0 170 170
0 170 0 0 45 0 45 -170 0 -170 0 0 335 0 335 -415 0 -415 0 0 285 0 285 120 0
120 0 0 -165 0 -165 465 0 465 0 0 45 0 45 -420 0 -420 0 0 165 0 165 -210 0
-210 0 0 -205 0 -205 -120 0 -120 0 0 205 0 205 -45 0 -45 0 0 -205 0 -205
-120 0 -120 0 0 205 0 205 -215 0 -215 0 0 -165 0 -165 -535 0 -535 0 0 120 0
120 415 0 415 0 0 45 0 45 -460 0 -460 0 0 -380 0 -380 165 0 165 0 0 -120 0
-120 -165 0 -165 0 0 -380 0 -380 165 0 165 0 0 -115 0 -115 -165 0 -165 0 0
-380 0 -380 165 0 165 0 0 -120 0 -120 -165 0 -165 0 0 -380 0 -380 335 0 335
0 0 45 0 45 -290 0 -290 0 0 120 0 120 290 0 290 0 0 50 0 50 -290 0 -290 0 0
120 0 120 165 0 165 0 0 210 0 210 -165 0 -165 0 0 290 0 290 165 0 165 0 0
210 0 210 -165 0 -165 0 0 285 0 285 165 0 165 0 0 215 0 215 -165 0 -165 0 0
120 0 120 585 0 585 0 0 165 0 165 120 0 120 0 0 -285 0 -285 -420 0 -420 0 0
-335 0 -335 -165 0 -165 0 0 -45 0 -45 215 0 215 0 0 330 0 330 415 0 415 0 0
125 0 125 285 0 285 0 0 -125 0 -125 415 0 415 0 0 -450 0 -450 -120 0 -120 0
0 330 0 330 -170 0 -170 0 0 -45 0 -45 125 0 125 0 0 -370 0 -370 -170 0 -170
0 0 -45 0 -45 170 0 170 0 0 -370 0 -370 -205 0 -205 0 0 120 0 120 85 0 85 0
0 130 0 130 -50 0 -50 0 0 -80 0 -80 -160 0 -160 0 0 120 0 120 40 0 40 0 0
210 0 210 -80 0 -80 0 0 120 0 120 200 0 200 0 0 -85 0 -85 50 0 50 0 0 130 0
130 -250 0 -250 0 0 120 0 120 125 0 125 0 0 45 0 45 -125 0 -125 0 0 125 0
125 -45 0 -45 0 0 -125 0 -125 -125 0 -125 0 0 -45 0 -45 125 0 125 0 0 -120
0 -120 -250 0 -250 0 0 -165 0 -165 -120 0 -120 0 0 285 0 285 125 0 125 0 0
45 0 45 -170 0 -170 0 0 -330 0 -330 -170 0 -170 0 0 -50 0 -50 170 0 170 0 0
-115 0 -115 -170 0 -170 0 0 -45 0 -45 170 0 170 0 0 -335 0 -335 255 0 255 0
0 45 0 45 -210 0 -210 0 0 290 0 290 120 0 120 0 0 -170 0 -170 90 0 90 0 0
50 0 50 -45 0 -45 0 0 165 0 165 -165 0 -165 0 0 115 0 115 165 0 165 0 0 170
0 170 205 0 205 0 0 -120 0 -120 -85 0 -85 0 0 -210 0 -210 45 0 45 0 0 -455
0 -455 -495 0 -495 0 0 335 0 335 -215 0 -215 0 0 -50 0 -50 165 0 165 0 0
-330 0 -330 295 0 295 0 0 -120 0 -120 -170 0 -170 0 0 -50 0 -50 170 0 170 0
0 -120 0 -120 -170 0 -170 0 0 -45 0 -45 380 0 380 0 0 45 0 45 -165 0 -165 0
0 120 0 120 165 0 165 0 0 50 0 50 -165 0 -165 0 0 120 0 120 285 0 285 0 0
-420 0 -420 1005 0 1005 0 0 2045 0 2045 -2045 0 -2045 0 0 -2045z"/>
</g>
</svg>
