<?xml version="1.0" encoding="UTF-8" standalone="no"?>
<svg
   xmlns:dc="http://purl.org/dc/elements/1.1/"
   xmlns:cc="http://creativecommons.org/ns#"
   xmlns:rdf="http://www.w3.org/1999/02/22-rdf-syntax-ns#"
   xmlns:svg="http://www.w3.org/2000/svg"
   xmlns="http://www.w3.org/2000/svg"
   xmlns:sodipodi="http://sodipodi.sourceforge.net/DTD/sodipodi-0.dtd"
   xmlns:inkscape="http://www.inkscape.org/namespaces/inkscape"
   version="1.0"
   width="10.5cm"
   height="7.4000001cm"
   viewBox="0 0 297.63779 209.76378"
   preserveAspectRatio="xMidYMid meet"
   id="svg2"
   inkscape:version="0.91 r13725"
   sodipodi:docname="Laby-top.svg">
  <sodipodi:namedview
     pagecolor="#ffffff"
     bordercolor="#666666"
     borderopacity="1"
     objecttolerance="10"
     gridtolerance="10"
     guidetolerance="10"
     inkscape:pageopacity="0"
     inkscape:pageshadow="2"
     inkscape:window-width="1462"
     inkscape:window-height="1027"
     id="namedview10"
     showgrid="false"
     units="cm"
     inkscape:zoom="1.2961336"
     inkscape:cx="73.614355"
     inkscape:cy="111.98522"
     inkscape:window-x="383"
     inkscape:window-y="25"
     inkscape:window-maximized="0"
     inkscape:current-layer="text3380" />
  <defs
     id="defs12" />
  <metadata
     id="metadata4">
Created by potrace 1.13, written by Peter Selinger 2001-2015
<rdf:RDF>
  <cc:Work
     rdf:about="">
    <dc:format>image/svg+xml</dc:format>
    <dc:type
       rdf:resource="http://purl.org/dc/dcmitype/StillImage" />
    <dc:title />
  </cc:Work>
</rdf:RDF>
</metadata>
  <g
     style="fill:#000000;stroke:none"
     id="g6"
     transform="matrix(0.05128699,0,0,-0.05128699,-0.5128699,210.27663)">
    <path
       inkscape:connector-curvature="0"
       id="path8"
       d="m 10,2055 0,-2045 1005,0 1005,0 0,380 0,380 -215,0 -215,0 0,-45 0,-45 170,0 170,0 0,-120 0,-120 -170,0 -170,0 0,-45 0,-45 170,0 170,0 0,-120 0,-120 -455,0 -455,0 0,120 0,120 165,0 165,0 0,45 0,45 -165,0 -165,0 0,120 0,120 165,0 165,0 0,45 0,45 -290,0 -290,0 0,335 0,335 -165,0 -165,0 0,120 0,120 285,0 285,0 0,-335 0,-335 420,0 420,0 0,380 0,380 -40,0 -40,0 0,285 0,285 85,0 85,0 0,45 0,45 -130,0 -130,0 0,-165 0,-165 -170,0 -170,0 0,-45 0,-45 170,0 170,0 0,-165 0,-165 40,0 40,0 0,-120 0,-120 -160,0 -160,0 0,165 0,165 -50,0 -50,0 0,-210 0,-210 210,0 210,0 0,-120 0,-120 -330,0 -330,0 0,330 0,330 -165,0 -165,0 0,120 0,120 165,0 165,0 0,45 0,45 -165,0 -165,0 0,120 0,120 165,0 165,0 0,335 0,335 245,0 245,0 0,-120 0,-120 -125,0 -125,0 0,-215 0,-215 50,0 50,0 0,165 0,165 250,0 250,0 0,50 0,50 -125,0 -125,0 0,120 0,120 125,0 125,0 0,125 0,125 115,0 115,0 0,-125 0,-125 125,0 125,0 0,-120 0,-120 -125,0 -125,0 0,-50 0,-50 250,0 250,0 0,-200 0,-200 -120,0 -120,0 0,80 0,80 -130,0 -130,0 0,-45 0,-45 85,0 85,0 0,-285 0,-285 -45,0 -45,0 0,-45 0,-45 90,0 90,0 0,85 0,85 120,0 120,0 0,-205 0,-205 -85,0 -85,0 0,-45 0,-45 130,0 130,0 0,295 0,295 -165,0 -165,0 0,115 0,115 165,0 165,0 0,300 0,300 -125,0 -125,0 0,120 0,120 245,0 245,0 0,-335 0,-335 50,0 50,0 0,380 0,380 -420,0 -420,0 0,125 0,125 -210,0 -210,0 0,-125 0,-125 -415,0 -415,0 0,-335 0,-335 -285,0 -285,0 0,120 0,120 165,0 165,0 0,335 0,335 415,0 415,0 0,215 0,215 -45,0 -45,0 0,-170 0,-170 -585,0 -585,0 0,-45 0,-45 170,0 170,0 0,-285 0,-285 -170,0 -170,0 0,-215 0,-215 170,0 170,0 0,-285 0,-285 -170,0 -170,0 0,-210 0,-210 170,0 170,0 0,-290 0,-290 -170,0 -170,0 0,-45 0,-45 295,0 295,0 0,-120 0,-120 -295,0 -295,0 0,-45 0,-45 295,0 295,0 0,-120 0,-120 -415,0 -415,0 0,450 0,450 170,0 170,0 0,50 0,50 -170,0 -170,0 0,450 0,450 170,0 170,0 0,45 0,45 -170,0 -170,0 0,455 0,455 170,0 170,0 0,45 0,45 -170,0 -170,0 0,455 0,455 540,0 540,0 0,-120 0,-120 -420,0 -420,0 0,-50 0,-50 465,0 465,0 0,170 0,170 285,0 285,0 0,-210 0,-210 50,0 50,0 0,210 0,210 115,0 115,0 0,-210 0,-210 45,0 45,0 0,210 0,210 290,0 290,0 0,-170 0,-170 415,0 415,0 0,-120 0,-120 -535,0 -535,0 0,170 0,170 -50,0 -50,0 0,-215 0,-215 420,0 420,0 0,-335 0,-335 165,0 165,0 0,-120 0,-120 -165,0 -165,0 0,-165 0,-165 -170,0 -170,0 0,-45 0,-45 170,0 170,0 0,-165 0,-165 165,0 165,0 0,-120 0,-120 -165,0 -165,0 0,-380 0,-380 165,0 165,0 0,-120 0,-120 -165,0 -165,0 0,-45 0,-45 210,0 210,0 0,210 0,210 -165,0 -165,0 0,290 0,290 165,0 165,0 0,210 0,210 -165,0 -165,0 0,285 0,285 165,0 165,0 0,215 0,215 -165,0 -165,0 0,285 0,285 165,0 165,0 0,215 0,215 -415,0 -415,0 0,120 0,120 535,0 535,0 0,-455 0,-455 -165,0 -165,0 0,-45 0,-45 165,0 165,0 0,-455 0,-455 -165,0 -165,0 0,-45 0,-45 165,0 165,0 0,-450 0,-450 -165,0 -165,0 0,-50 0,-50 165,0 165,0 0,-450 0,-450 -910,0 -910,0 0,450 0,450 265,0 265,0 0,-120 0,-120 -145,0 -145,0 0,-45 0,-45 145,0 145,0 0,-120 0,-120 -145,0 -145,0 0,-45 0,-45 340,0 340,0 0,45 0,45 -150,0 -150,0 0,120 0,120 150,0 150,0 0,45 0,45 -150,0 -150,0 0,120 0,120 150,0 150,0 0,380 0,380 -50,0 -50,0 0,-330 0,-330 -490,0 -490,0 0,120 0,120 120,0 120,0 0,45 0,45 -120,0 -120,0 0,250 0,250 -40,0 -40,0 0,115 0,115 115,0 115,0 0,-115 0,-115 -40,0 -40,0 0,-215 0,-215 125,0 125,0 0,-120 0,-120 -125,0 -125,0 0,-45 0,-45 420,0 420,0 0,335 0,335 120,0 120,0 0,-455 0,-455 -145,0 -145,0 0,-45 0,-45 145,0 145,0 0,-120 0,-120 -145,0 -145,0 0,-50 0,-50 145,0 145,0 0,-120 0,-120 -410,0 -410,0 0,120 0,120 145,0 145,0 0,50 0,50 -145,0 -145,0 0,120 0,120 145,0 145,0 0,45 0,45 -195,0 -195,0 0,-380 0,-380 840,0 840,0 0,380 0,380 -165,0 -165,0 0,120 0,120 165,0 165,0 0,380 0,380 -165,0 -165,0 0,115 0,115 165,0 165,0 0,380 0,380 -165,0 -165,0 0,120 0,120 165,0 165,0 0,380 0,380 -465,0 -465,0 0,-45 0,-45 420,0 420,0 0,-285 0,-285 -170,0 -170,0 0,-215 0,-215 170,0 170,0 0,-285 0,-285 -170,0 -170,0 0,-210 0,-210 170,0 170,0 0,-290 0,-290 -170,0 -170,0 0,-210 0,-210 170,0 170,0 0,-290 0,-290 -290,0 -290,0 0,120 0,120 170,0 170,0 0,50 0,50 -170,0 -170,0 0,450 0,450 170,0 170,0 0,50 0,50 -170,0 -170,0 0,165 0,165 -165,0 -165,0 0,115 0,115 165,0 165,0 0,170 0,170 170,0 170,0 0,45 0,45 -170,0 -170,0 0,335 0,335 -415,0 -415,0 0,285 0,285 120,0 120,0 0,-165 0,-165 465,0 465,0 0,45 0,45 -420,0 -420,0 0,165 0,165 -210,0 -210,0 0,-205 0,-205 -120,0 -120,0 0,205 0,205 -45,0 -45,0 0,-205 0,-205 -120,0 -120,0 0,205 0,205 -215,0 -215,0 0,-165 0,-165 -535,0 -535,0 0,120 0,120 415,0 415,0 0,45 0,45 -460,0 -460,0 0,-380 0,-380 165,0 165,0 0,-120 0,-120 -165,0 -165,0 0,-380 0,-380 165,0 165,0 0,-115 0,-115 -165,0 -165,0 0,-380 0,-380 165,0 165,0 0,-120 0,-120 -165,0 -165,0 0,-380 0,-380 335,0 335,0 0,45 0,45 -290,0 -290,0 0,120 0,120 290,0 290,0 0,50 0,50 -290,0 -290,0 0,120 0,120 165,0 165,0 0,210 0,210 -165,0 -165,0 0,290 0,290 165,0 165,0 0,210 0,210 -165,0 -165,0 0,285 0,285 165,0 165,0 0,215 0,215 -165,0 -165,0 0,120 0,120 585,0 585,0 0,165 0,165 120,0 120,0 0,-285 0,-285 -420,0 -420,0 0,-335 0,-335 -165,0 -165,0 0,-45 0,-45 215,0 215,0 0,330 0,330 415,0 415,0 0,125 0,125 285,0 285,0 0,-125 0,-125 415,0 415,0 0,-450 0,-450 -120,0 -120,0 0,330 0,330 -170,0 -170,0 0,-45 0,-45 125,0 125,0 0,-370 0,-370 -170,0 -170,0 0,-45 0,-45 170,0 170,0 0,-370 0,-370 -205,0 -205,0 0,120 0,120 85,0 85,0 0,130 0,130 -50,0 -50,0 0,-80 0,-80 -160,0 -160,0 0,120 0,120 40,0 40,0 0,210 0,210 -80,0 -80,0 0,120 0,120 200,0 200,0 0,-85 0,-85 50,0 50,0 0,130 0,130 -250,0 -250,0 0,120 0,120 125,0 125,0 0,45 0,45 -125,0 -125,0 0,125 0,125 -45,0 -45,0 0,-125 0,-125 -125,0 -125,0 0,-45 0,-45 125,0 125,0 0,-120 0,-120 -250,0 -250,0 0,-165 0,-165 -120,0 -120,0 0,285 0,285 125,0 125,0 0,45 0,45 -170,0 -170,0 0,-330 0,-330 -170,0 -170,0 0,-50 0,-50 170,0 170,0 0,-115 0,-115 -170,0 -170,0 0,-45 0,-45 170,0 170,0 0,-335 0,-335 255,0 255,0 0,45 0,45 -210,0 -210,0 0,290 0,290 120,0 120,0 0,-170 0,-170 90,0 90,0 0,50 0,50 -45,0 -45,0 0,165 0,165 -165,0 -165,0 0,115 0,115 165,0 165,0 0,170 0,170 205,0 205,0 0,-120 0,-120 -85,0 -85,0 0,-210 0,-210 45,0 45,0 0,-455 0,-455 -495,0 -495,0 0,335 0,335 -215,0 -215,0 0,-50 0,-50 165,0 165,0 0,-330 0,-330 295,0 295,0 0,-120 0,-120 -170,0 -170,0 0,-50 0,-50 170,0 170,0 0,-120 0,-120 -170,0 -170,0 0,-45 0,-45 380,0 380,0 0,45 0,45 -165,0 -165,0 0,120 0,120 165,0 165,0 0,50 0,50 -165,0 -165,0 0,120 0,120 285,0 285,0 0,-420 0,-420 1005,0 1005,0 0,2045 0,2045 -2045,0 -2045,0 0,-2045 z" />
  </g>
  <g
     id="text3380"
     style="font-style:normal;font-weight:normal;font-size:31.99999809px;line-height:125%;font-family:sans-serif;letter-spacing:0px;word-spacing:0px;fill:#000000;fill-opacity:1;stroke:none;stroke-width:1px;stroke-linecap:butt;stroke-linejoin:miter;stroke-opacity:1"
     transform="matrix(0,-0.9999999,1.0000001,0,0,0)">
    <path
       id="path3338"
       style="font-style:normal;font-variant:normal;font-weight:600;font-stretch:normal;font-size:27.99999809px;line-height:125%;font-family:FreeSans;-inkscape-font-specification:'FreeSans, Semi-Bold';text-align:start;writing-mode:lr-tb;text-anchor:start"
       d="M-181.71461 243.39228L-183.92661 243.11228L-185.94261 242.18828L-186.82461 241.36928L-187.51061 240.25628L-187.95161 238.84928L-188.09861 237.20428L-188.09861 235.18828L-183.89861 235.18828L-183.89861 237.14828L-183.76561 238.35928L-183.36661 239.19228L-182.66661 239.65428L-181.63061 239.80828L-180.66461 239.65428L-179.95061 239.19228L-179.50961 238.44328L-179.36261 237.42828L-179.36261 222.33628L-175.16261 222.33628L-175.16261 237.42828L-175.58961 239.96228L-176.87061 241.85228L-178.93561 243.00728L-181.71461 243.39228L-181.71461 243.39228" />
    <path
       id="path3340"
       style="font-style:normal;font-variant:normal;font-weight:600;font-stretch:normal;font-size:27.99999809px;line-height:125%;font-family:FreeSans;-inkscape-font-specification:'FreeSans, Semi-Bold';text-align:start;writing-mode:lr-tb;text-anchor:start"
       d="M-164.34718 227.37628L-161.19018 227.91528L-159.91093 228.58903L-158.83118 229.53228L-157.96143 230.70303L-157.34018 232.08728L-156.84318 235.49628L-157.34718 238.75828L-157.97718 240.10578L-158.85918 241.26428L-159.95643 242.19528L-161.23218 242.86028L-164.31918 243.39228L-167.44118 242.86028L-168.71868 242.19528L-169.80718 241.26428L-170.67693 240.08828L-171.29818 238.71628L-171.79518 235.38428L-171.29818 232.05928L-170.67693 230.69603L-169.80718 229.53228L-168.72043 228.58903L-167.44818 227.91528L-164.34718 227.37628L-164.34718 227.37628M-164.31918 230.54028L-165.76118 230.87628L-166.89518 231.88428L-167.63018 233.43128L-167.87518 235.38428L-167.63018 237.33728L-166.89518 238.88428L-165.76118 239.89228L-164.31918 240.22828L-162.89818 239.89928L-161.77118 238.91228L-161.01518 237.37228L-160.76318 235.44028L-161.00818 233.43128L-161.74318 231.88428L-162.86318 230.87628L-164.31918 230.54028L-164.31918 230.54028" />
    <path
       id="path3342"
       style="font-style:normal;font-variant:normal;font-weight:600;font-stretch:normal;font-size:27.99999809px;line-height:125%;font-family:FreeSans;-inkscape-font-specification:'FreeSans, Semi-Bold';text-align:start;writing-mode:lr-tb;text-anchor:start"
       d="M-149.83531 243.47628L-149.83531 243.36428L-155.46331 227.62828L-151.15131 227.62828L-147.81931 238.63228L-144.68331 227.62828L-140.65131 227.62828L-146.86731 245.52028L-146.97931 245.88428L-147.17531 246.36028L-147.39931 246.83628L-147.70731 247.34028L-148.15531 247.78828L-148.79931 248.23628L-149.58331 248.57228L-150.61931 248.79628L-151.90731 248.88028L-153.30731 248.76828L-153.30731 245.82828L-152.27131 245.99628L-151.31931 245.81428L-150.53531 245.26828L-150.01031 244.45628L-149.83531 243.47628L-149.83531 243.47628" />
    <path
       id="path3344"
       style="font-style:normal;font-variant:normal;font-weight:600;font-stretch:normal;font-size:27.99999809px;line-height:125%;font-family:FreeSans;-inkscape-font-specification:'FreeSans, Semi-Bold';text-align:start;writing-mode:lr-tb;text-anchor:start"
       d="M-132.25612 227.37628L-130.35212 227.60028L-128.47612 228.41228L-126.79612 229.92428L-125.62012 232.33228L-125.17212 235.74828L-125.20012 236.42028L-135.33612 236.42028L-135.19612 237.93228L-134.74812 239.16428L-133.79612 240.08828L-132.20012 240.39628L-130.33112 239.92028L-129.20412 238.49228L-125.34012 238.49228L-126.29912 240.50828L-127.88812 242.07628L-129.95312 243.06328L-132.34012 243.39228L-135.21712 242.87428L-136.39837 242.22678L-137.40812 241.32028L-138.79412 238.83528L-139.25612 235.58028L-138.78712 232.17828L-138.20087 230.78178L-137.38012 229.58828L-136.35637 228.62053L-135.16112 227.92928L-133.79437 227.51453L-132.25612 227.37628L-132.25612 227.37628M-129.26012 233.81628L-129.56112 232.35328L-130.18412 231.26828L-131.09412 230.59628L-132.31212 230.37228L-133.46362 230.58753L-134.34212 231.23328L-134.94762 232.30953L-135.28012 233.81628L-129.26012 233.81628L-129.26012 233.81628" />
    <path
       id="path3346"
       style="font-style:normal;font-variant:normal;font-weight:600;font-stretch:normal;font-size:27.99999809px;line-height:125%;font-family:FreeSans;-inkscape-font-specification:'FreeSans, Semi-Bold';text-align:start;writing-mode:lr-tb;text-anchor:start"
       d="M-108.68056 242.74828L-112.60056 242.74828L-112.60056 240.95628L-113.49306 242.02203L-114.54656 242.78328L-115.76106 243.24003L-117.13656 243.39228L-119.27856 243.04928L-120.88856 242.02028L-121.87556 240.36828L-122.20456 238.15628L-122.20456 227.62828L-118.28456 227.62828L-118.28456 237.34428L-118.12706 238.53253L-117.65456 239.38128L-116.86706 239.89053L-115.76456 240.06028L-114.47656 239.85728L-113.46856 239.24828L-112.81756 238.30328L-112.60056 237.09228L-112.60056 227.62828L-108.68056 227.62828L-108.68056 242.74828L-108.68056 242.74828" />
    <path
       id="path3348"
       style="font-style:normal;font-variant:normal;font-weight:600;font-stretch:normal;font-size:27.99999809px;line-height:125%;font-family:FreeSans;-inkscape-font-specification:'FreeSans, Semi-Bold';text-align:start;writing-mode:lr-tb;text-anchor:start"
       d="M-96.940685 235.13228L-91.900685 242.74828L-96.604685 242.74828L-99.152685 238.04428L-101.72868 242.74828L-106.43268 242.74828L-101.39268 235.13228L-106.32068 227.62828L-101.61668 227.62828L-99.152685 232.19228L-96.716685 227.62828L-92.012685 227.62828L-96.940685 235.13228L-96.940685 235.13228" />
    <path
       id="path3350"
       style="font-style:normal;font-variant:normal;font-weight:600;font-stretch:normal;font-size:27.99999809px;line-height:125%;font-family:FreeSans;-inkscape-font-specification:'FreeSans, Semi-Bold';text-align:start;writing-mode:lr-tb;text-anchor:start"
       d="M-69.075873 242.74828L-77.279872 228.63628L-77.279872 242.74828L-81.479872 242.74828L-81.479872 222.33628L-77.167872 222.33628L-69.075873 236.22428L-69.075873 222.33628L-64.875873 222.33628L-64.875873 242.74828L-69.075873 242.74828L-69.075873 242.74828" />
    <path
       id="path3352"
       style="font-style:normal;font-variant:normal;font-weight:600;font-stretch:normal;font-size:27.99999809px;line-height:125%;font-family:FreeSans;-inkscape-font-specification:'FreeSans, Semi-Bold';text-align:start;writing-mode:lr-tb;text-anchor:start"
       d="M-54.042505 227.37628L-50.885505 227.91528L-49.606255 228.58903L-48.526505 229.53228L-47.656755 230.70303L-47.035505 232.08728L-46.538505 235.49628L-47.042505 238.75828L-47.672505 240.10578L-48.554505 241.26428L-49.651755 242.19528L-50.927505 242.86028L-54.014505 243.39228L-57.13650425 242.86028L-58.4140040625 242.19528L-59.502504 241.26428L-60.372254 240.08828L-60.993504 238.71628L-61.490504 235.38428L-60.993504 232.05928L-60.372254 230.69603L-59.502504 229.53228L-58.4157540625 228.58903L-57.14350425 227.91528L-54.042505 227.37628L-54.042505 227.37628M-54.014505 230.54028L-55.456505 230.87628L-56.590505 231.88428L-57.32550425 233.43128L-57.570504 235.38428L-57.32550425 237.33728L-56.590505 238.88428L-55.456505 239.89228L-54.014505 240.22828L-52.593505 239.89928L-51.466505 238.91228L-50.710505 237.37228L-50.458505 235.44028L-50.703505 233.43128L-51.438505 231.88428L-52.558505 230.87628L-54.014505 230.54028L-54.014505 230.54028" />
    <path
       id="path3354"
       style="font-style:normal;font-variant:normal;font-weight:600;font-stretch:normal;font-size:27.99999809px;line-height:125%;font-family:FreeSans;-inkscape-font-specification:'FreeSans, Semi-Bold';text-align:start;writing-mode:lr-tb;text-anchor:start"
       d="M-37.31863 227.37628L-35.41463 227.60028L-33.53863 228.41228L-31.85863 229.92428L-30.68263 232.33228L-30.23463 235.74828L-30.26263 236.42028L-40.398629 236.42028L-40.25863 237.93228L-39.81063 239.16428L-38.85863 240.08828L-37.26263 240.39628L-35.39363 239.92028L-34.26663 238.49228L-30.40263 238.49228L-31.36163 240.50828L-32.95063 242.07628L-35.01563 243.06328L-37.40263 243.39228L-40.27962925 242.87428L-41.4608790625 242.22678L-42.470629 241.32028L-43.856629 238.83528L-44.318629 235.58028L-43.849629 232.17828L-43.263379 230.78178L-42.442629 229.58828L-41.4188790625 228.62053L-40.22362925 227.92928L-38.8568795625 227.51453L-37.31863 227.37628L-37.31863 227.37628M-34.32263 233.81628L-34.62363 232.35328L-35.24663 231.26828L-36.15663 230.59628L-37.37463 230.37228L-38.5261299375 230.58753L-39.40462975 231.23328L-40.0101294375 232.30953L-40.342629 233.81628L-34.32263 233.81628L-34.32263 233.81628" />
    <path
       id="path3356"
       style="font-style:normal;font-variant:normal;font-weight:600;font-stretch:normal;font-size:27.99999809px;line-height:125%;font-family:FreeSans;-inkscape-font-specification:'FreeSans, Semi-Bold';text-align:start;writing-mode:lr-tb;text-anchor:start"
       d="M-23.347067 222.33628L-23.347067 242.74828L-27.267067 242.74828L-27.267067 222.33628L-23.347067 222.33628L-23.347067 222.33628" />
    <path
       id="path3358"
       style="font-style:normal;font-variant:normal;font-weight:600;font-stretch:normal;font-size:36px;line-height:125%;font-family:FreeSans;-inkscape-font-specification:'FreeSans, Semi-Bold';text-align:start;writing-mode:lr-tb;text-anchor:start"
       d="M-180.65861 275.88828L-180.65861 285.24828L-186.05861 285.24828L-186.05861 259.00428L-174.46661 259.00428L-170.84861 259.52628L-169.40411 260.17878L-168.20261 261.09228L-167.24186 262.25328L-166.55561 263.64828L-166.14386 265.27728L-166.00661 267.14028L-166.54661 270.73128L-167.22161 272.22303L-168.16661 273.51228L-169.33661 274.55178L-170.68661 275.29428L-172.21661 275.73978L-173.92661 275.88828L-180.65861 275.88828L-180.65861 275.88828M-180.65861 271.38828L-175.61861 271.38828L-173.77586 271.14303L-172.45961 270.40728L-171.66986 269.18103L-171.40661 267.46428L-171.66761 265.70928L-172.45061 264.47628L-173.74661 263.74728L-175.61861 263.50428L-180.65861 263.50428L-180.65861 271.38828L-180.65861 271.38828" />
    <path
       id="path3360"
       style="font-style:normal;font-variant:normal;font-weight:600;font-stretch:normal;font-size:36px;line-height:125%;font-family:FreeSans;-inkscape-font-specification:'FreeSans, Semi-Bold';text-align:start;writing-mode:lr-tb;text-anchor:start"
       d="M-145.85618 273.33228L-156.26018 273.33228L-156.26018 285.24828L-161.66018 285.24828L-161.66018 259.00428L-156.26018 259.00428L-156.26018 268.83228L-145.89218 268.83228L-145.89218 259.00428L-140.45618 259.00428L-140.45618 285.24828L-145.85618 285.24828L-145.85618 273.33228L-145.85618 273.33228" />
    <path
       id="path3362"
       style="font-style:normal;font-variant:normal;font-weight:600;font-stretch:normal;font-size:36px;line-height:125%;font-family:FreeSans;-inkscape-font-specification:'FreeSans, Semi-Bold';text-align:start;writing-mode:lr-tb;text-anchor:start"
       d="M-129.33049 259.00428L-129.33049 285.24828L-134.73049 285.24828L-134.73049 259.00428L-129.33049 259.00428L-129.33049 259.00428" />
    <path
       id="path3364"
       style="font-style:normal;font-variant:normal;font-weight:600;font-stretch:normal;font-size:36px;line-height:125%;font-family:FreeSans;-inkscape-font-specification:'FreeSans, Semi-Bold';text-align:start;writing-mode:lr-tb;text-anchor:start"
       d="M-118.1508 259.00428L-118.1508 280.74828L-105.5868 280.74828L-105.5868 285.24828L-123.5508 285.24828L-123.5508 259.00428L-118.1508 259.00428L-118.1508 259.00428" />
    <path
       id="path3366"
       style="font-style:normal;font-variant:normal;font-weight:600;font-stretch:normal;font-size:36px;line-height:125%;font-family:FreeSans;-inkscape-font-specification:'FreeSans, Semi-Bold';text-align:start;writing-mode:lr-tb;text-anchor:start"
       d="M-95.861739 259.00428L-95.861739 285.24828L-101.26174 285.24828L-101.26174 259.00428L-95.861739 259.00428L-95.861739 259.00428" />
    <path
       id="path3368"
       style="font-style:normal;font-variant:normal;font-weight:600;font-stretch:normal;font-size:36px;line-height:125%;font-family:FreeSans;-inkscape-font-specification:'FreeSans, Semi-Bold';text-align:start;writing-mode:lr-tb;text-anchor:start"
       d="M-84.682051 275.88828L-84.682051 285.24828L-90.082051 285.24828L-90.082051 259.00428L-78.490051 259.00428L-74.872051 259.52628L-73.427551 260.17878L-72.226051 261.09228L-71.265301 262.25328L-70.579051 263.64828L-70.167301 265.27728L-70.030051 267.14028L-70.570051 270.73128L-71.245051 272.22303L-72.190051 273.51228L-73.360051 274.55178L-74.710051 275.29428L-76.240051 275.73978L-77.950051 275.88828L-84.682051 275.88828L-84.682051 275.88828M-84.682051 271.38828L-79.642051 271.38828L-77.799301 271.14303L-76.483051 270.40728L-75.693301 269.18103L-75.430051 267.46428L-75.691051 265.70928L-76.474051 264.47628L-77.770051 263.74728L-79.642051 263.50428L-84.682051 263.50428L-84.682051 271.38828L-84.682051 271.38828" />
    <path
       id="path3370"
       style="font-style:normal;font-variant:normal;font-weight:600;font-stretch:normal;font-size:36px;line-height:125%;font-family:FreeSans;-inkscape-font-specification:'FreeSans, Semi-Bold';text-align:start;writing-mode:lr-tb;text-anchor:start"
       d="M-60.283614 275.88828L-60.283614 285.24828L-65.683614 285.24828L-65.683614 259.00428L-54.091614 259.00428L-50.473614 259.52628L-49.029114 260.17878L-47.827614 261.09228L-46.866864 262.25328L-46.180614 263.64828L-45.768864 265.27728L-45.631614 267.14028L-46.171614 270.73128L-46.846614 272.22303L-47.791614 273.51228L-48.961614 274.55178L-50.311614 275.29428L-51.841614 275.73978L-53.551614 275.88828L-60.283614 275.88828L-60.283614 275.88828M-60.283614 271.38828L-55.243614 271.38828L-53.400864 271.14303L-52.084614 270.40728L-51.294864 269.18103L-51.031614 267.46428L-51.292614 265.70928L-52.075614 264.47628L-53.371614 263.74728L-55.243614 263.50428L-60.283614 263.50428L-60.283614 271.38828L-60.283614 271.38828" />
    <path
       id="path3372"
       style="font-style:normal;font-variant:normal;font-weight:600;font-stretch:normal;font-size:36px;line-height:125%;font-family:FreeSans;-inkscape-font-specification:'FreeSans, Semi-Bold';text-align:start;writing-mode:lr-tb;text-anchor:start"
       d="M-35.885176 273.94428L-35.885176 280.74828L-21.665176 280.74828L-21.665176 285.24828L-41.285176 285.24828L-41.285176 259.00428L-22.313176 259.00428L-22.313176 263.50428L-35.885176 263.50428L-35.885176 269.44428L-23.321176 269.44428L-23.321176 273.94428L-35.885176 273.94428L-35.885176 273.94428" />
  </g>
</svg>
