  0
SECTION
  2
HEADER
  9
$ACADVER
  1
AC1014
  9
$HANDSEED
  5
FFFF
  9
$MEASUREMENT
 70
     1
  0
ENDSEC
  0
SECTION
  2
TABLES
  0
TABLE
  2
VPORT
  5
8
330
0
100
AcDbSymbolTable
 70
     4
  0
VPORT
  5
2E
330
8
100
AcDbSymbolTableRecord
100
AcDbViewportTableRecord
  2
*ACTIVE
 70
     0
 10
0.0
 20
0.0
 11
1.0
 21
1.0
 12
210.0
 22
148.5
 13
0.0
 23
0.0
 14
10.0
 24
10.0
 15
10.0
 25
10.0
 16
0.0
 26
0.0
 36
1.0
 17
0.0
 27
0.0
 37
0.0
 40
341.0
 41
1.24
 42
50.0
 43
0.0
 44
0.0
 50
0.0
 51
0.0
 71
     0
 72
   100
 73
     1
 74
     3
 75
     0
 76
     0
 77
     0
 78
     0
  0
ENDTAB
  0
TABLE
  2
LTYPE
  5
5
330
0
100
AcDbSymbolTable
 70
     1
  0
LTYPE
  5
14
330
5
100
AcDbSymbolTableRecord
100
AcDbLinetypeTableRecord
  2
BYBLOCK
 70
     0
  3

 72
    65
 73
     0
 40
0.0
  0
LTYPE
  5
15
330
5
100
AcDbSymbolTableRecord
100
AcDbLinetypeTableRecord
  2
BYLAYER
 70
     0
  3

 72
    65
 73
     0
 40
0.0
  0
LTYPE
  5
16
330
5
100
AcDbSymbolTableRecord
100
AcDbLinetypeTableRecord
  2
CONTINUOUS
 70
     0
  3
Solid line
 72
    65
 73
     0
 40
0.0
  0
ENDTAB
  0
TABLE
  2
LAYER
  5
2
100
AcDbSymbolTable
 70
2
  0
LAYER
  5
50
100
AcDbSymbolTableRecord
100
AcDbLayerTableRecord
  2
0
 70
0
  6
CONTINUOUS
  0
LAYER
  5
51
100
AcDbSymbolTableRecord
100
AcDbLayerTableRecord
  2
Layer_1
 70
0
  6
CONTINUOUS
  0
ENDTAB
  0
TABLE
  2
STYLE
  5
3
330
0
100
AcDbSymbolTable
 70
     1
  0
STYLE
  5
11
330
3
100
AcDbSymbolTableRecord
100
AcDbTextStyleTableRecord
  2
STANDARD
 70
     0
 40
0.0
 41
1.0
 50
0.0
 71
     0
 42
2.5
  3
txt
  4

  0
ENDTAB
  0
TABLE
  2
VIEW
  5
6
330
0
100
AcDbSymbolTable
 70
     0
  0
ENDTAB
  0
TABLE
  2
UCS
  5
7
330
0
100
AcDbSymbolTable
 70
     0
  0
ENDTAB
  0
TABLE
  2
APPID
  5
9
330
0
100
AcDbSymbolTable
 70
     2
  0
APPID
  5
12
330
9
100
AcDbSymbolTableRecord
100
AcDbRegAppTableRecord
  2
ACAD
 70
     0
  0
ENDTAB
  0
TABLE
  2
DIMSTYLE
  5
A
330
0
100
AcDbSymbolTable
 70
     1
  0
DIMSTYLE
105
27
330
A
100
AcDbSymbolTableRecord
100
AcDbDimStyleTableRecord
  2
ISO-25
 70
     0
  3

  4

  5

  6

  7

 40
1.0
 41
2.5
 42
0.625
 43
3.75
 44
1.25
 45
0.0
 46
0.0
 47
0.0
 48
0.0
140
2.5
141
2.5
142
0.0
143
0.03937007874016
144
1.0
145
0.0
146
1.0
147
0.625
 71
     0
 72
     0
 73
     0
 74
     0
 75
     0
 76
     0
 77
     1
 78
     8
170
     0
171
     3
172
     1
173
     0
174
     0
175
     0
176
     0
177
     0
178
     0
270
     2
271
     2
272
     2
273
     2
274
     3
340
11
275
     0
280
     0
281
     0
282
     0
283
     0
284
     8
285
     0
286
     0
287
     3
288
     0
  0
ENDTAB
  0
TABLE
  2
BLOCK_RECORD
  5
1
330
0
100
AcDbSymbolTable
 70
     1
  0
BLOCK_RECORD
  5
1F
330
1
100
AcDbSymbolTableRecord
100
AcDbBlockTableRecord
  2
*MODEL_SPACE
  0
BLOCK_RECORD
  5
1B
330
1
100
AcDbSymbolTableRecord
100
AcDbBlockTableRecord
  2
*PAPER_SPACE
  0
ENDTAB
  0
ENDSEC
  0
SECTION
  2
BLOCKS
  0
BLOCK
  5
20
330
1F
100
AcDbEntity
  8
0
100
AcDbBlockBegin
  2
*MODEL_SPACE
 70
     0
 10
0.0
 20
0.0
 30
0.0
  3
*MODEL_SPACE
  1

  0
ENDBLK
  5
21
330
1F
100
AcDbEntity
  8
0
100
AcDbBlockEnd
  0
BLOCK
  5
1C
330
1B
100
AcDbEntity
 67
     1
  8
0
100
AcDbBlockBegin
  2
*PAPER_SPACE
  1

  0
ENDBLK
  5
1D
330
1B
100
AcDbEntity
 67
     1
  8
0
100
AcDbBlockEnd
  0
ENDSEC
  0
SECTION
  2
ENTITIES
  0
LWPOLYLINE
  5
100
100
AcDbEntity
  8
Layer_1
 62
7
100
AcDbPolyline
 90
114
 70
0
 10
4.999995
 20
7.400012
 30
0.0
 10
4.802169
 20
7.393748
 30
0.0
 10
4.605541
 20
7.376044
 30
0.0
 10
4.410596
 20
7.347014
 30
0.0
 10
4.217818
 20
7.306774
 30
0.0
 10
4.027694
 20
7.255442
 30
0.0
 10
3.840707
 20
7.193132
 30
0.0
 10
3.657344
 20
7.119960
 30
0.0
 10
3.478089
 20
7.036044
 30
0.0
 10
3.423188
 20
7.131073
 30
0.0
 10
3.390239
 20
7.173654
 30
0.0
 10
3.347928
 20
7.205443
 30
0.0
 10
3.298763
 20
7.225031
 30
0.0
 10
3.245256
 20
7.231009
 30
0.0
 10
3.195952
 20
7.223624
 30
0.0
 10
3.150006
 20
7.204275
 30
0.0
 10
3.090454
 20
7.151741
 30
0.0
 10
3.056834
 20
7.082842
 30
0.0
 10
3.051499
 20
7.006364
 30
0.0
 10
3.076805
 20
6.931093
 30
0.0
 10
3.130989
 20
6.837276
 30
0.0
 10
2.956461
 20
6.714428
 30
0.0
 10
2.791114
 20
6.581851
 30
0.0
 10
2.635234
 20
6.440072
 30
0.0
 10
2.489106
 20
6.289619
 30
0.0
 10
2.353014
 20
6.131022
 30
0.0
 10
2.227245
 20
5.964808
 30
0.0
 10
2.112083
 20
5.791506
 30
0.0
 10
2.007813
 20
5.611644
 30
0.0
 10
1.914720
 20
5.425750
 30
0.0
 10
1.833090
 20
5.234354
 30
0.0
 10
1.763207
 20
5.037983
 30
0.0
 10
1.705357
 20
4.837166
 30
0.0
 10
1.659825
 20
4.632432
 30
0.0
 10
1.626897
 20
4.424308
 30
0.0
 10
1.606856
 20
4.213323
 30
0.0
 10
1.599988
 20
4.000005
 30
0.0
 10
1.606801
 20
3.786662
 30
0.0
 10
1.626791
 20
3.575648
 30
0.0
 10
1.659672
 20
3.367493
 30
0.0
 10
1.705160
 20
3.162725
 30
0.0
 10
1.762969
 20
2.961873
 30
0.0
 10
1.832815
 20
2.765465
 30
0.0
 10
1.914412
 20
2.574030
 30
0.0
 10
2.007475
 20
2.388097
 30
0.0
 10
2.111719
 20
2.208194
 30
0.0
 10
2.226859
 20
2.034850
 30
0.0
 10
2.352610
 20
1.868594
 30
0.0
 10
2.488687
 20
1.709954
 30
0.0
 10
2.634804
 20
1.559459
 30
0.0
 10
2.790677
 20
1.417637
 30
0.0
 10
2.956020
 20
1.285017
 30
0.0
 10
3.130548
 20
1.162128
 30
0.0
 10
3.076639
 20
1.068752
 30
0.0
 10
3.051543
 20
0.994851
 30
0.0
 10
3.056642
 20
0.916971
 30
0.0
 10
3.091160
 20
0.846973
 30
0.0
 10
3.149841
 20
0.795515
 30
0.0
 10
3.225112
 20
0.770210
 30
0.0
 10
3.301591
 20
0.775544
 30
0.0
 10
3.370490
 20
0.809165
 30
0.0
 10
3.423023
 20
0.868716
 30
0.0
 10
3.476601
 20
0.961486
 30
0.0
 10
3.656096
 20
0.877817
 30
0.0
 10
3.839686
 20
0.804913
 30
0.0
 10
4.026885
 20
0.742888
 30
0.0
 10
4.217206
 20
0.691858
 30
0.0
 10
4.410164
 20
0.651939
 30
0.0
 10
4.605273
 20
0.623246
 30
0.0
 10
4.802045
 20
0.605894
 30
0.0
 10
4.999995
 20
0.599999
 30
0.0
 10
5.333501
 20
0.616305
 30
0.0
 10
5.658125
 20
0.663998
 30
0.0
 10
5.972298
 20
0.741600
 30
0.0
 10
6.274455
 20
0.847634
 30
0.0
 10
6.563029
 20
0.980623
 30
0.0
 10
6.836454
 20
1.139089
 30
0.0
 10
7.093164
 20
1.321554
 30
0.0
 10
7.331592
 20
1.526542
 30
0.0
 10
7.550171
 20
1.752575
 30
0.0
 10
7.747336
 20
1.998176
 30
0.0
 10
7.921519
 20
2.261867
 30
0.0
 10
8.071154
 20
2.542171
 30
0.0
 10
8.194676
 20
2.837610
 30
0.0
 10
8.290516
 20
3.146708
 30
0.0
 10
8.357110
 20
3.467987
 30
0.0
 10
8.392891
 20
3.799969
 30
0.0
 10
8.498834
 20
3.799969
 30
0.0
 10
8.576673
 20
3.815690
 30
0.0
 10
8.640237
 20
3.858548
 30
0.0
 10
8.683095
 20
3.922112
 30
0.0
 10
8.698815
 20
3.999950
 30
0.0
 10
8.683095
 20
4.077788
 30
0.0
 10
8.640236
 20
4.141352
 30
0.0
 10
8.576672
 20
4.184210
 30
0.0
 10
8.498834
 20
4.199931
 30
0.0
 10
8.390024
 20
4.199931
 30
0.0
 10
8.354285
 20
4.531723
 30
0.0
 10
8.287765
 20
4.852830
 30
0.0
 10
8.192028
 20
5.161776
 30
0.0
 10
8.068638
 20
5.457086
 30
0.0
 10
7.919157
 20
5.737284
 30
0.0
 10
7.745149
 20
6.000893
 30
0.0
 10
7.548177
 20
6.246439
 30
0.0
 10
7.329805
 20
6.472446
 30
0.0
 10
7.091595
 20
6.677438
 30
0.0
 10
6.835111
 20
6.859940
 30
0.0
 10
6.561917
 20
7.018475
 30
0.0
 10
6.273574
 20
7.151569
 30
0.0
 10
5.971648
 20
7.257745
 30
0.0
 10
5.657700
 20
7.335528
 30
0.0
 10
5.333295
 20
7.383442
 30
0.0
 10
4.999995
 20
7.400012
 30
0.0
 10
4.999995
 20
7.400012
 30
0.0
  0
LWPOLYLINE
  5
101
100
AcDbEntity
  8
Layer_1
 62
7
100
AcDbPolyline
 90
239
 70
0
 10
4.910643
 20
6.754869
 30
0.0
 10
4.910812
 20
6.754869
 30
0.0
 10
5.095910
 20
6.754152
 30
0.0
 10
5.182837
 20
6.750239
 30
0.0
 10
5.377140
 20
6.729954
 30
0.0
 10
5.451996
 20
6.719040
 30
0.0
 10
5.655504
 20
6.676872
 30
0.0
 10
5.716965
 20
6.661548
 30
0.0
 10
5.924111
 20
6.596560
 30
0.0
 10
5.969035
 20
6.580409
 30
0.0
 10
5.995328
 20
6.570763
 30
0.0
 10
6.087161
 20
6.534162
 30
0.0
 10
5.882495
 20
6.179731
 30
0.0
 10
5.880731
 20
6.176973
 30
0.0
 10
5.853647
 20
6.116821
 30
0.0
 10
5.839518
 20
6.054388
 30
0.0
 10
5.837865
 20
5.991464
 30
0.0
 10
5.848209
 20
5.929838
 30
0.0
 10
5.870069
 20
5.871299
 30
0.0
 10
5.902968
 20
5.817634
 30
0.0
 10
5.946424
 20
5.770634
 30
0.0
 10
5.999959
 20
5.732087
 30
0.0
 10
6.058400
 20
5.705628
 30
0.0
 10
6.120296
 20
5.691219
 30
0.0
 10
6.183811
 20
5.689100
 30
0.0
 10
6.247113
 20
5.699516
 30
0.0
 10
6.307145
 20
5.722134
 30
0.0
 10
6.361099
 20
5.755715
 30
0.0
 10
6.407507
 20
5.799132
 30
0.0
 10
6.444900
 20
5.851260
 30
0.0
 10
6.445230
 20
5.852141
 30
0.0
 10
6.445230
 20
5.852028
 30
0.0
 10
6.650062
 20
6.206735
 30
0.0
 10
6.714774
 20
6.157401
 30
0.0
 10
6.817190
 20
6.072624
 30
0.0
 10
6.926992
 20
5.970043
 30
0.0
 10
7.011824
 20
5.884108
 30
0.0
 10
7.118705
 20
5.762124
 30
0.0
 10
7.186945
 20
5.677568
 30
0.0
 10
7.288314
 20
5.535410
 30
0.0
 10
7.340900
 20
5.454987
 30
0.0
 10
7.433449
 20
5.293206
 30
0.0
 10
7.472751
 20
5.217524
 30
0.0
 10
7.553118
 20
5.037331
 30
0.0
 10
7.580403
 20
4.968760
 30
0.0
 10
7.645832
 20
4.771039
 30
0.0
 10
7.663306
 20
4.710130
 30
0.0
 10
7.710931
 20
4.496479
 30
0.0
 10
7.717821
 20
4.458500
 30
0.0
 10
7.723994
 20
4.422781
 30
0.0
 10
7.738106
 20
4.325547
 30
0.0
 10
7.328828
 20
4.325547
 30
0.0
 10
7.325576
 20
4.325716
 30
0.0
 10
7.259940
 20
4.319093
 30
0.0
 10
7.198808
 20
4.300110
 30
0.0
 10
7.143488
 20
4.270077
 30
0.0
 10
7.095291
 20
4.230304
 30
0.0
 10
7.055526
 20
4.182101
 30
0.0
 10
7.025503
 20
4.126776
 30
0.0
 10
7.006530
 20
4.065640
 30
0.0
 10
6.999918
 20
4.000003
 30
0.0
 10
7.006530
 20
3.934366
 30
0.0
 10
7.025503
 20
3.873230
 30
0.0
 10
7.055526
 20
3.817906
 30
0.0
 10
7.095291
 20
3.769702
 30
0.0
 10
7.143488
 20
3.729929
 30
0.0
 10
7.198808
 20
3.699896
 30
0.0
 10
7.259940
 20
3.680913
 30
0.0
 10
7.325576
 20
3.674290
 30
0.0
 10
7.326513
 20
3.674346
 30
0.0
 10
7.326513
 20
3.674290
 30
0.0
 10
7.736121
 20
3.674290
 30
0.0
 10
7.725593
 20
3.592545
 30
0.0
 10
7.703654
 20
3.463064
 30
0.0
 10
7.669369
 20
3.315063
 30
0.0
 10
7.637949
 20
3.200741
 30
0.0
 10
7.584702
 20
3.044251
 30
0.0
 10
7.546668
 20
2.945694
 30
0.0
 10
7.473632
 20
2.785400
 30
0.0
 10
7.430637
 20
2.700348
 30
0.0
 10
7.336380
 20
2.538566
 30
0.0
 10
7.290849
 20
2.467349
 30
0.0
 10
7.175039
 20
2.307772
 30
0.0
 10
7.129012
 20
2.249398
 30
0.0
 10
6.990823
 20
2.094232
 30
0.0
 10
6.946450
 20
2.048315
 30
0.0
 10
6.785440
 20
1.900424
 30
0.0
 10
6.751264
 20
1.871485
 30
0.0
 10
6.729767
 20
1.853571
 30
0.0
 10
6.650943
 20
1.791394
 30
0.0
 10
6.446277
 20
2.145825
 30
0.0
 10
6.444843
 20
2.148747
 30
0.0
 10
6.407450
 20
2.200874
 30
0.0
 10
6.361043
 20
2.244292
 30
0.0
 10
6.307089
 20
2.277872
 30
0.0
 10
6.247056
 20
2.300491
 30
0.0
 10
6.183755
 20
2.310906
 30
0.0
 10
6.120240
 20
2.308788
 30
0.0
 10
6.058344
 20
2.294379
 30
0.0
 10
5.999902
 20
2.267919
 30
0.0
 10
5.946367
 20
2.229372
 30
0.0
 10
5.902911
 20
2.182372
 30
0.0
 10
5.870013
 20
2.128708
 30
0.0
 10
5.848153
 20
2.070168
 30
0.0
 10
5.837809
 20
2.008542
 30
0.0
 10
5.839462
 20
1.945618
 30
0.0
 10
5.853591
 20
1.883186
 30
0.0
 10
5.880674
 20
1.823033
 30
0.0
 10
5.881225
 20
1.822263
 30
0.0
 10
5.880943
 20
1.822263
 30
0.0
 10
6.085774
 20
1.467446
 30
0.0
 10
6.012628
 20
1.436908
 30
0.0
 10
5.884801
 20
1.389449
 30
0.0
 10
5.744021
 20
1.346509
 30
0.0
 10
5.624793
 20
1.315365
 30
0.0
 10
5.466594
 20
1.284001
 30
0.0
 10
5.358887
 20
1.267134
 30
0.0
 10
5.185419
 20
1.250432
 30
0.0
 10
5.088681
 20
1.245086
 30
0.0
 10
4.903858
 20
1.245802
 30
0.0
 10
4.817152
 20
1.249716
 30
0.0
 10
4.622353
 20
1.270056
 30
0.0
 10
4.548214
 20
1.280804
 30
0.0
 10
4.344209
 20
1.323027
 30
0.0
 10
4.283135
 20
1.338296
 30
0.0
 10
4.074886
 20
1.403615
 30
0.0
 10
4.035529
 20
1.417782
 30
0.0
 10
4.003889
 20
1.429357
 30
0.0
 10
3.914372
 20
1.465076
 30
0.0
 10
3.912608
 20
1.465846
 30
0.0
 10
4.117274
 20
1.820223
 30
0.0
 10
4.118982
 20
1.822980
 30
0.0
 10
4.146065
 20
1.883132
 30
0.0
 10
4.160194
 20
1.945565
 30
0.0
 10
4.161847
 20
2.008489
 30
0.0
 10
4.151503
 20
2.070115
 30
0.0
 10
4.129643
 20
2.128654
 30
0.0
 10
4.096745
 20
2.182319
 30
0.0
 10
4.053289
 20
2.229319
 30
0.0
 10
3.999754
 20
2.267866
 30
0.0
 10
3.941312
 20
2.294325
 30
0.0
 10
3.879416
 20
2.308734
 30
0.0
 10
3.815901
 20
2.310852
 30
0.0
 10
3.752600
 20
2.300437
 30
0.0
 10
3.692567
 20
2.277819
 30
0.0
 10
3.638613
 20
2.244238
 30
0.0
 10
3.592206
 20
2.200820
 30
0.0
 10
3.554813
 20
2.148693
 30
0.0
 10
3.554426
 20
2.147812
 30
0.0
 10
3.554426
 20
2.147982
 30
0.0
 10
3.349594
 20
1.793220
 30
0.0
 10
3.285488
 20
1.842057
 30
0.0
 10
3.181970
 20
1.927826
 30
0.0
 10
3.073325
 20
2.029250
 30
0.0
 10
2.987501
 20
2.116232
 30
0.0
 10
2.881503
 20
2.237223
 30
0.0
 10
2.812325
 20
2.322937
 30
0.0
 10
2.711893
 20
2.463773
 30
0.0
 10
2.658426
 20
2.545518
 30
0.0
 10
2.566373
 20
2.706418
 30
0.0
 10
2.526906
 20
2.782485
 30
0.0
 10
2.446704
 20
2.962402
 30
0.0
 10
2.419198
 20
3.031470
 30
0.0
 10
2.353989
 20
3.228529
 30
0.0
 10
2.336350
 20
3.289990
 30
0.0
 10
2.288725
 20
3.503475
 30
0.0
 10
2.280788
 20
3.547352
 30
0.0
 10
2.275827
 20
3.575850
 30
0.0
 10
2.262102
 20
3.670604
 30
0.0
 10
2.261661
 20
3.674407
 30
0.0
 10
2.670828
 20
3.674407
 30
0.0
 10
2.674081
 20
3.674238
 30
0.0
 10
2.739717
 20
3.680861
 30
0.0
 10
2.800849
 20
3.699844
 30
0.0
 10
2.856169
 20
3.729877
 30
0.0
 10
2.904366
 20
3.769650
 30
0.0
 10
2.944131
 20
3.817854
 30
0.0
 10
2.974154
 20
3.873178
 30
0.0
 10
2.993127
 20
3.934314
 30
0.0
 10
2.999739
 20
3.999951
 30
0.0
 10
2.993127
 20
4.065588
 30
0.0
 10
2.974154
 20
4.126724
 30
0.0
 10
2.944130
 20
4.182048
 30
0.0
 10
2.904365
 20
4.230252
 30
0.0
 10
2.856169
 20
4.270025
 30
0.0
 10
2.800849
 20
4.300058
 30
0.0
 10
2.739717
 20
4.319041
 30
0.0
 10
2.674081
 20
4.325664
 30
0.0
 10
2.673144
 20
4.325551
 30
0.0
 10
2.673144
 20
4.325664
 30
0.0
 10
2.263426
 20
4.325664
 30
0.0
 10
2.273513
 20
4.404267
 30
0.0
 10
2.296443
 20
4.539095
 30
0.0
 10
2.329516
 20
4.681859
 30
0.0
 10
2.362313
 20
4.801308
 30
0.0
 10
2.414017
 20
4.953223
 30
0.0
 10
2.453540
 20
5.055694
 30
0.0
 10
2.525418
 20
5.213507
 30
0.0
 10
2.569515
 20
5.300654
 30
0.0
 10
2.661899
 20
5.459128
 30
0.0
 10
2.709634
 20
5.533928
 30
0.0
 10
2.823460
 20
5.690804
 30
0.0
 10
2.871361
 20
5.751437
 30
0.0
 10
3.007180
 20
5.903959
 30
0.0
 10
3.054199
 20
5.952631
 30
0.0
 10
3.212618
 20
6.098207
 30
0.0
 10
3.256550
 20
6.135359
 30
0.0
 10
3.270110
 20
6.146714
 30
0.0
 10
3.348603
 20
6.208560
 30
0.0
 10
3.553269
 20
5.854129
 30
0.0
 10
3.554703
 20
5.851208
 30
0.0
 10
3.592096
 20
5.799080
 30
0.0
 10
3.638503
 20
5.755663
 30
0.0
 10
3.692457
 20
5.722082
 30
0.0
 10
3.752490
 20
5.699463
 30
0.0
 10
3.815791
 20
5.689048
 30
0.0
 10
3.879307
 20
5.691166
 30
0.0
 10
3.941202
 20
5.705575
 30
0.0
 10
3.999644
 20
5.732035
 30
0.0
 10
4.053179
 20
5.770582
 30
0.0
 10
4.096635
 20
5.817582
 30
0.0
 10
4.129533
 20
5.871246
 30
0.0
 10
4.151394
 20
5.929786
 30
0.0
 10
4.161738
 20
5.991412
 30
0.0
 10
4.160085
 20
6.054336
 30
0.0
 10
4.145956
 20
6.116768
 30
0.0
 10
4.118872
 20
6.176921
 30
0.0
 10
4.118322
 20
6.177691
 30
0.0
 10
4.118604
 20
6.177691
 30
0.0
 10
3.913772
 20
6.532508
 30
0.0
 10
3.987194
 20
6.563156
 30
0.0
 10
4.114194
 20
6.610340
 30
0.0
 10
4.256242
 20
6.653666
 30
0.0
 10
4.374864
 20
6.684589
 30
0.0
 10
4.533063
 20
6.716008
 30
0.0
 10
4.640274
 20
6.732765
 30
0.0
 10
4.814183
 20
6.749522
 30
0.0
 10
4.910645
 20
6.754869
 30
0.0
 10
4.910643
 20
6.754869
 30
0.0
  0
LWPOLYLINE
  5
102
100
AcDbEntity
  8
Layer_1
 62
7
100
AcDbPolyline
 90
8
 70
1
 10
10.000001
 20
8.000002
 30
0.0
 10
10.000001
 20
6.999987
 30
0.0
 10
9.971669
 20
6.999987
 30
0.0
 10
9.971669
 20
7.971616
 30
0.0
 10
8.999986
 20
7.971616
 30
0.0
 10
8.999986
 20
8.000002
 30
0.0
 10
10.000001
 20
8.000002
 30
0.0
 10
10.000001
 20
8.000002
 30
0.0
  0
LWPOLYLINE
  5
103
100
AcDbEntity
  8
Layer_1
 62
7
100
AcDbPolyline
 90
9
 70
1
 10
1.000015
 20
8.000002
 30
0.0
 10
1.000015
 20
7.971616
 30
0.0
 10
0.028332
 20
7.971616
 30
0.0
 10
0.028332
 20
6.999987
 30
0.0
 10
0.000000
 20
6.999987
 30
0.0
 10
0.000000
 20
7.985780
 30
0.0
 10
0.000000
 20
8.000002
 30
0.0
 10
1.000015
 20
8.000002
 30
0.0
 10
1.000015
 20
8.000002
 30
0.0
  0
LWPOLYLINE
  5
104
100
AcDbEntity
  8
Layer_1
 62
7
100
AcDbPolyline
 90
8
 70
1
 10
9.999992
 20
0.799979
 30
0.0
 10
9.999992
 20
0.000000
 30
0.0
 10
8.999977
 20
0.000000
 30
0.0
 10
8.999977
 20
0.028333
 30
0.0
 10
9.971660
 20
0.028333
 30
0.0
 10
9.971660
 20
0.799979
 30
0.0
 10
9.999992
 20
0.799979
 30
0.0
 10
9.999992
 20
0.799979
 30
0.0
  0
LWPOLYLINE
  5
105
100
AcDbEntity
  8
Layer_1
 62
7
100
AcDbPolyline
 90
8
 70
1
 10
0.028332
 20
0.799979
 30
0.0
 10
0.028332
 20
0.028333
 30
0.0
 10
1.000015
 20
0.028333
 30
0.0
 10
1.000015
 20
0.000000
 30
0.0
 10
0.000000
 20
0.000000
 30
0.0
 10
0.000000
 20
0.799979
 30
0.0
 10
0.028332
 20
0.799979
 30
0.0
 10
0.028332
 20
0.799979
 30
0.0
  0
ENDSEC
  0
SECTION
  2
OBJECTS
  0
DICTIONARY
  5
C
330
0
100
AcDbDictionary
  3
ACAD_GROUP
350
D
  3
ACAD_MLINESTYLE
350
17
  0
DICTIONARY
  5
D
330
C
100
AcDbDictionary
  0
DICTIONARY
  5
1A
330
C
100
AcDbDictionary
  0
DICTIONARY
  5
17
330
C
100
AcDbDictionary
  3
STANDARD
350
18
  0
DICTIONARY
  5
19
330
C
100
AcDbDictionary
  0
ENDSEC
  0
EOF
