  0
SECTION
  2
HEADER
  9
$ACADVER
  1
AC1014
  9
$HANDSEED
  5
FFFF
  9
$MEASUREMENT
 70
     1
  0
ENDSEC
  0
SECTION
  2
TABLES
  0
TABLE
  2
VPORT
  5
8
330
0
100
AcDbSymbolTable
 70
     4
  0
VPORT
  5
2E
330
8
100
AcDbSymbolTableRecord
100
AcDbViewportTableRecord
  2
*ACTIVE
 70
     0
 10
0.0
 20
0.0
 11
1.0
 21
1.0
 12
210.0
 22
148.5
 13
0.0
 23
0.0
 14
10.0
 24
10.0
 15
10.0
 25
10.0
 16
0.0
 26
0.0
 36
1.0
 17
0.0
 27
0.0
 37
0.0
 40
341.0
 41
1.24
 42
50.0
 43
0.0
 44
0.0
 50
0.0
 51
0.0
 71
     0
 72
   100
 73
     1
 74
     3
 75
     0
 76
     0
 77
     0
 78
     0
  0
ENDTAB
  0
TABLE
  2
LTYPE
  5
5
330
0
100
AcDbSymbolTable
 70
     1
  0
LTYPE
  5
14
330
5
100
AcDbSymbolTableRecord
100
AcDbLinetypeTableRecord
  2
BYBLOCK
 70
     0
  3

 72
    65
 73
     0
 40
0.0
  0
LTYPE
  5
15
330
5
100
AcDbSymbolTableRecord
100
AcDbLinetypeTableRecord
  2
BYLAYER
 70
     0
  3

 72
    65
 73
     0
 40
0.0
  0
LTYPE
  5
16
330
5
100
AcDbSymbolTableRecord
100
AcDbLinetypeTableRecord
  2
CONTINUOUS
 70
     0
  3
Solid line
 72
    65
 73
     0
 40
0.0
  0
ENDTAB
  0
TABLE
  2
LAYER
  5
2
100
AcDbSymbolTable
 70
2
  0
LAYER
  5
50
100
AcDbSymbolTableRecord
100
AcDbLayerTableRecord
  2
0
 70
0
  6
CONTINUOUS
  0
LAYER
  5
51
100
AcDbSymbolTableRecord
100
AcDbLayerTableRecord
  2
Layer_1
 70
0
  6
CONTINUOUS
  0
ENDTAB
  0
TABLE
  2
STYLE
  5
3
330
0
100
AcDbSymbolTable
 70
     1
  0
STYLE
  5
11
330
3
100
AcDbSymbolTableRecord
100
AcDbTextStyleTableRecord
  2
STANDARD
 70
     0
 40
0.0
 41
1.0
 50
0.0
 71
     0
 42
2.5
  3
txt
  4

  0
ENDTAB
  0
TABLE
  2
VIEW
  5
6
330
0
100
AcDbSymbolTable
 70
     0
  0
ENDTAB
  0
TABLE
  2
UCS
  5
7
330
0
100
AcDbSymbolTable
 70
     0
  0
ENDTAB
  0
TABLE
  2
APPID
  5
9
330
0
100
AcDbSymbolTable
 70
     2
  0
APPID
  5
12
330
9
100
AcDbSymbolTableRecord
100
AcDbRegAppTableRecord
  2
ACAD
 70
     0
  0
ENDTAB
  0
TABLE
  2
DIMSTYLE
  5
A
330
0
100
AcDbSymbolTable
 70
     1
  0
DIMSTYLE
105
27
330
A
100
AcDbSymbolTableRecord
100
AcDbDimStyleTableRecord
  2
ISO-25
 70
     0
  3

  4

  5

  6

  7

 40
1.0
 41
2.5
 42
0.625
 43
3.75
 44
1.25
 45
0.0
 46
0.0
 47
0.0
 48
0.0
140
2.5
141
2.5
142
0.0
143
0.03937007874016
144
1.0
145
0.0
146
1.0
147
0.625
 71
     0
 72
     0
 73
     0
 74
     0
 75
     0
 76
     0
 77
     1
 78
     8
170
     0
171
     3
172
     1
173
     0
174
     0
175
     0
176
     0
177
     0
178
     0
270
     2
271
     2
272
     2
273
     2
274
     3
340
11
275
     0
280
     0
281
     0
282
     0
283
     0
284
     8
285
     0
286
     0
287
     3
288
     0
  0
ENDTAB
  0
TABLE
  2
BLOCK_RECORD
  5
1
330
0
100
AcDbSymbolTable
 70
     1
  0
BLOCK_RECORD
  5
1F
330
1
100
AcDbSymbolTableRecord
100
AcDbBlockTableRecord
  2
*MODEL_SPACE
  0
BLOCK_RECORD
  5
1B
330
1
100
AcDbSymbolTableRecord
100
AcDbBlockTableRecord
  2
*PAPER_SPACE
  0
ENDTAB
  0
ENDSEC
  0
SECTION
  2
BLOCKS
  0
BLOCK
  5
20
330
1F
100
AcDbEntity
  8
0
100
AcDbBlockBegin
  2
*MODEL_SPACE
 70
     0
 10
0.0
 20
0.0
 30
0.0
  3
*MODEL_SPACE
  1

  0
ENDBLK
  5
21
330
1F
100
AcDbEntity
  8
0
100
AcDbBlockEnd
  0
BLOCK
  5
1C
330
1B
100
AcDbEntity
 67
     1
  8
0
100
AcDbBlockBegin
  2
*PAPER_SPACE
  1

  0
ENDBLK
  5
1D
330
1B
100
AcDbEntity
 67
     1
  8
0
100
AcDbBlockEnd
  0
ENDSEC
  0
SECTION
  2
ENTITIES
  0
LWPOLYLINE
  5
100
100
AcDbEntity
  8
Layer_1
 62
7
100
AcDbPolyline
 90
196
 70
0
 10
4.999977
 20
7.399969
 30
0.0
 10
4.707226
 20
7.385141
 30
0.0
 10
4.551784
 20
7.366290
 30
0.0
 10
4.367953
 20
7.338398
 30
0.0
 10
4.224472
 20
7.306152
 30
0.0
 10
4.035074
 20
7.257701
 30
0.0
 10
3.905043
 20
7.214485
 30
0.0
 10
3.711677
 20
7.143764
 30
0.0
 10
3.476583
 20
7.038537
 30
0.0
 10
3.449629
 20
7.025418
 30
0.0
 10
3.441687
 20
6.974881
 30
0.0
 10
3.421587
 20
6.928699
 30
0.0
 10
3.390593
 20
6.888998
 30
0.0
 10
3.349969
 20
6.857904
 30
0.0
 10
3.302724
 20
6.838234
 30
0.0
 10
3.252831
 20
6.831214
 30
0.0
 10
3.202766
 20
6.836878
 30
0.0
 10
3.155004
 20
6.855260
 30
0.0
 10
3.130586
 20
6.837841
 30
0.0
 10
3.129592
 20
6.837124
 30
0.0
 10
2.945355
 20
6.706202
 30
0.0
 10
2.770785
 20
6.563818
 30
0.0
 10
2.606373
 20
6.410530
 30
0.0
 10
2.452607
 20
6.246892
 30
0.0
 10
2.309977
 20
6.073463
 30
0.0
 10
2.178972
 20
5.890798
 30
0.0
 10
2.060082
 20
5.699454
 30
0.0
 10
1.953795
 20
5.499986
 30
0.0
 10
2.080960
 20
5.499986
 30
0.0
 10
2.192820
 20
5.700427
 30
0.0
 10
2.317240
 20
5.890944
 30
0.0
 10
2.453545
 20
6.071124
 30
0.0
 10
2.601061
 20
6.240554
 30
0.0
 10
2.759112
 20
6.398821
 30
0.0
 10
2.927024
 20
6.545513
 30
0.0
 10
3.104122
 20
6.680217
 30
0.0
 10
3.289729
 20
6.802520
 30
0.0
 10
3.483173
 20
6.912010
 30
0.0
 10
3.683777
 20
7.008273
 30
0.0
 10
3.890867
 20
7.090897
 30
0.0
 10
4.103767
 20
7.159470
 30
0.0
 10
4.321803
 20
7.213578
 30
0.0
 10
4.544300
 20
7.252808
 30
0.0
 10
4.770582
 20
7.276749
 30
0.0
 10
4.999976
 20
7.284987
 30
0.0
 10
5.169022
 20
7.280712
 30
0.0
 10
5.335850
 20
7.268026
 30
0.0
 10
5.662022
 20
7.218245
 30
0.0
 10
5.976840
 20
7.137296
 30
0.0
 10
6.278653
 20
7.026831
 30
0.0
 10
6.565810
 20
6.888499
 30
0.0
 10
6.836661
 20
6.723953
 30
0.0
 10
7.089552
 20
6.534844
 30
0.0
 10
7.322834
 20
6.322823
 30
0.0
 10
7.534856
 20
6.089541
 30
0.0
 10
7.723965
 20
5.836649
 30
0.0
 10
7.888511
 20
5.565799
 30
0.0
 10
8.026842
 20
5.278642
 30
0.0
 10
8.137308
 20
4.976828
 30
0.0
 10
8.218257
 20
4.662010
 30
0.0
 10
8.268037
 20
4.335838
 30
0.0
 10
8.280723
 20
4.169011
 30
0.0
 10
8.284998
 20
3.999964
 30
0.0
 10
8.280723
 20
3.830918
 30
0.0
 10
8.268037
 20
3.664090
 30
0.0
 10
8.218257
 20
3.337918
 30
0.0
 10
8.137308
 20
3.023100
 30
0.0
 10
8.026843
 20
2.721287
 30
0.0
 10
7.888511
 20
2.434129
 30
0.0
 10
7.723965
 20
2.163279
 30
0.0
 10
7.534856
 20
1.910387
 30
0.0
 10
7.322835
 20
1.677105
 30
0.0
 10
7.089553
 20
1.465084
 30
0.0
 10
6.836661
 20
1.275974
 30
0.0
 10
6.565811
 20
1.111428
 30
0.0
 10
6.278653
 20
0.973097
 30
0.0
 10
5.976840
 20
0.862631
 30
0.0
 10
5.662022
 20
0.781683
 30
0.0
 10
5.335850
 20
0.731902
 30
0.0
 10
5.169023
 20
0.719216
 30
0.0
 10
4.999976
 20
0.714941
 30
0.0
 10
4.770380
 20
0.722990
 30
0.0
 10
4.543888
 20
0.746771
 30
0.0
 10
4.321178
 20
0.785871
 30
0.0
 10
4.102927
 20
0.839875
 30
0.0
 10
3.889811
 20
0.908371
 30
0.0
 10
3.682508
 20
0.990944
 30
0.0
 10
3.481693
 20
1.087182
 30
0.0
 10
3.288044
 20
1.196671
 30
0.0
 10
3.102238
 20
1.318997
 30
0.0
 10
2.924951
 20
1.453747
 30
0.0
 10
2.756860
 20
1.600508
 30
0.0
 10
2.598643
 20
1.758866
 30
0.0
 10
2.450975
 20
1.928407
 30
0.0
 10
2.314534
 20
2.108718
 30
0.0
 10
2.189996
 20
2.299386
 30
0.0
 10
2.078039
 20
2.499997
 30
0.0
 10
1.954787
 20
2.499997
 30
0.0
 10
2.061052
 20
2.300581
 30
0.0
 10
2.179914
 20
2.109284
 30
0.0
 10
2.310884
 20
1.926662
 30
0.0
 10
2.453475
 20
1.753271
 30
0.0
 10
2.607196
 20
1.589666
 30
0.0
 10
2.771558
 20
1.436405
 30
0.0
 10
2.946074
 20
1.294042
 30
0.0
 10
3.130254
 20
1.163135
 30
0.0
 10
3.130860
 20
1.162740
 30
0.0
 10
3.157925
 20
1.146205
 30
0.0
 10
3.198021
 20
1.161922
 30
0.0
 10
3.240552
 20
1.168692
 30
0.0
 10
3.297169
 20
1.163267
 30
0.0
 10
3.349968
 20
1.142124
 30
0.0
 10
3.390094
 20
1.111614
 30
0.0
 10
3.420915
 20
1.072691
 30
0.0
 10
3.441206
 20
1.027378
 30
0.0
 10
3.449739
 20
0.977698
 30
0.0
 10
3.479394
 20
0.963364
 30
0.0
 10
3.777271
 20
0.831406
 30
0.0
 10
3.812989
 20
0.818395
 30
0.0
 10
4.087991
 20
0.728163
 30
0.0
 10
4.160861
 20
0.709531
 30
0.0
 10
4.407254
 20
0.655237
 30
0.0
 10
4.518710
 20
0.638425
 30
0.0
 10
4.730818
 20
0.613454
 30
0.0
 10
4.999976
 20
0.600003
 30
0.0
 10
5.003394
 20
0.600003
 30
0.0
 10
5.294766
 20
0.614941
 30
0.0
 10
5.440893
 20
0.632690
 30
0.0
 10
5.636299
 20
0.662456
 30
0.0
 10
5.763299
 20
0.691008
 30
0.0
 10
5.971659
 20
0.744478
 30
0.0
 10
6.077437
 20
0.779590
 30
0.0
 10
6.297096
 20
0.860068
 30
0.0
 10
6.381542
 20
0.897880
 30
0.0
 10
6.609304
 20
1.008235
 30
0.0
 10
6.673356
 20
1.045000
 30
0.0
 10
6.904039
 20
1.186828
 30
0.0
 10
6.951223
 20
1.220562
 30
0.0
 10
7.178765
 20
1.393920
 30
0.0
 10
7.211452
 20
1.422638
 30
0.0
 10
7.431828
 20
1.628516
 30
0.0
 10
7.449908
 20
1.647919
 30
0.0
 10
7.658653
 20
1.886155
 30
0.0
 10
7.667913
 20
1.898281
 30
0.0
 10
7.858358
 20
2.165235
 30
0.0
 10
7.860509
 20
2.168763
 30
0.0
 10
7.971703
 20
2.355603
 30
0.0
 10
8.070443
 20
2.548567
 30
0.0
 10
8.156526
 20
2.747029
 30
0.0
 10
8.229748
 20
2.950359
 30
0.0
 10
8.289906
 20
3.157930
 30
0.0
 10
8.336795
 20
3.369114
 30
0.0
 10
8.370211
 20
3.583283
 30
0.0
 10
8.389951
 20
3.799809
 30
0.0
 10
8.391605
 20
3.832055
 30
0.0
 10
8.353239
 20
3.864253
 30
0.0
 10
8.324440
 20
3.904319
 30
0.0
 10
8.306320
 20
3.950214
 30
0.0
 10
8.299993
 20
3.999900
 30
0.0
 10
8.306514
 20
4.050282
 30
0.0
 10
8.325145
 20
4.096710
 30
0.0
 10
8.354709
 20
4.137066
 30
0.0
 10
8.394030
 20
4.169233
 30
0.0
 10
8.392927
 20
4.199770
 30
0.0
 10
8.361232
 20
4.489599
 30
0.0
 10
8.354617
 20
4.544004
 30
0.0
 10
8.296464
 20
4.818510
 30
0.0
 10
8.283345
 20
4.877049
 30
0.0
 10
8.199230
 20
5.140750
 30
0.0
 10
8.179221
 20
5.200832
 30
0.0
 10
8.070080
 20
5.452738
 30
0.0
 10
8.043346
 20
5.512545
 30
0.0
 10
7.911110
 20
5.749622
 30
0.0
 10
7.876879
 20
5.809264
 30
0.0
 10
7.725019
 20
6.027049
 30
0.0
 10
7.681308
 20
6.088179
 30
0.0
 10
7.514676
 20
6.282537
 30
0.0
 10
7.458562
 20
6.346368
 30
0.0
 10
7.277212
 20
6.519395
 30
0.0
 10
7.211728
 20
6.580414
 30
0.0
 10
7.020235
 20
6.729683
 30
0.0
 10
6.942073
 20
6.789104
 30
0.0
 10
6.743305
 20
6.914230
 30
0.0
 10
6.653126
 20
6.969517
 30
0.0
 10
6.450720
 20
7.070334
 30
0.0
 10
6.347312
 20
7.120274
 30
0.0
 10
6.146670
 20
7.196232
 30
0.0
 10
6.027607
 20
7.239723
 30
0.0
 10
5.832752
 20
7.291978
 30
0.0
 10
5.697484
 20
7.326484
 30
0.0
 10
5.511173
 20
7.356911
 30
0.0
 10
5.360361
 20
7.379731
 30
0.0
 10
5.182925
 20
7.390700
 30
0.0
 10
5.001189
 20
7.399851
 30
0.0
 10
4.999975
 20
7.399851
 30
0.0
 10
4.999977
 20
7.399969
 30
0.0
  0
LWPOLYLINE
  5
101
100
AcDbEntity
  8
Layer_1
 62
7
100
AcDbPolyline
 90
8
 70
1
 10
10.000001
 20
8.000002
 30
0.0
 10
10.000001
 20
6.999987
 30
0.0
 10
9.971669
 20
6.999987
 30
0.0
 10
9.971669
 20
7.971616
 30
0.0
 10
8.999986
 20
7.971616
 30
0.0
 10
8.999986
 20
8.000002
 30
0.0
 10
10.000001
 20
8.000002
 30
0.0
 10
10.000001
 20
8.000002
 30
0.0
  0
LWPOLYLINE
  5
102
100
AcDbEntity
  8
Layer_1
 62
7
100
AcDbPolyline
 90
9
 70
1
 10
1.000015
 20
8.000002
 30
0.0
 10
1.000015
 20
7.971616
 30
0.0
 10
0.028332
 20
7.971616
 30
0.0
 10
0.028332
 20
6.999987
 30
0.0
 10
0.000000
 20
6.999987
 30
0.0
 10
0.000000
 20
7.985780
 30
0.0
 10
0.000000
 20
8.000002
 30
0.0
 10
1.000015
 20
8.000002
 30
0.0
 10
1.000015
 20
8.000002
 30
0.0
  0
LWPOLYLINE
  5
103
100
AcDbEntity
  8
Layer_1
 62
7
100
AcDbPolyline
 90
8
 70
1
 10
9.999992
 20
0.799979
 30
0.0
 10
9.999992
 20
0.000000
 30
0.0
 10
8.999977
 20
0.000000
 30
0.0
 10
8.999977
 20
0.028333
 30
0.0
 10
9.971660
 20
0.028333
 30
0.0
 10
9.971660
 20
0.799979
 30
0.0
 10
9.999992
 20
0.799979
 30
0.0
 10
9.999992
 20
0.799979
 30
0.0
  0
LWPOLYLINE
  5
104
100
AcDbEntity
  8
Layer_1
 62
7
100
AcDbPolyline
 90
8
 70
1
 10
0.028332
 20
0.799979
 30
0.0
 10
0.028332
 20
0.028333
 30
0.0
 10
1.000015
 20
0.028333
 30
0.0
 10
1.000015
 20
0.000000
 30
0.0
 10
0.000000
 20
0.000000
 30
0.0
 10
0.000000
 20
0.799979
 30
0.0
 10
0.028332
 20
0.799979
 30
0.0
 10
0.028332
 20
0.799979
 30
0.0
  0
ENDSEC
  0
SECTION
  2
OBJECTS
  0
DICTIONARY
  5
C
330
0
100
AcDbDictionary
  3
ACAD_GROUP
350
D
  3
ACAD_MLINESTYLE
350
17
  0
DICTIONARY
  5
D
330
C
100
AcDbDictionary
  0
DICTIONARY
  5
1A
330
C
100
AcDbDictionary
  0
DICTIONARY
  5
17
330
C
100
AcDbDictionary
  3
STANDARD
350
18
  0
DICTIONARY
  5
19
330
C
100
AcDbDictionary
  0
ENDSEC
  0
EOF
