  0
SECTION
  2
HEADER
  9
$ACADVER
  1
AC1014
  9
$HANDSEED
  5
FFFF
  9
$MEASUREMENT
 70
     1
  0
ENDSEC
  0
SECTION
  2
TABLES
  0
TABLE
  2
VPORT
  5
8
330
0
100
AcDbSymbolTable
 70
     4
  0
VPORT
  5
2E
330
8
100
AcDbSymbolTableRecord
100
AcDbViewportTableRecord
  2
*ACTIVE
 70
     0
 10
0.0
 20
0.0
 11
1.0
 21
1.0
 12
210.0
 22
148.5
 13
0.0
 23
0.0
 14
10.0
 24
10.0
 15
10.0
 25
10.0
 16
0.0
 26
0.0
 36
1.0
 17
0.0
 27
0.0
 37
0.0
 40
341.0
 41
1.24
 42
50.0
 43
0.0
 44
0.0
 50
0.0
 51
0.0
 71
     0
 72
   100
 73
     1
 74
     3
 75
     0
 76
     0
 77
     0
 78
     0
  0
ENDTAB
  0
TABLE
  2
LTYPE
  5
5
330
0
100
AcDbSymbolTable
 70
     1
  0
LTYPE
  5
14
330
5
100
AcDbSymbolTableRecord
100
AcDbLinetypeTableRecord
  2
BYBLOCK
 70
     0
  3

 72
    65
 73
     0
 40
0.0
  0
LTYPE
  5
15
330
5
100
AcDbSymbolTableRecord
100
AcDbLinetypeTableRecord
  2
BYLAYER
 70
     0
  3

 72
    65
 73
     0
 40
0.0
  0
LTYPE
  5
16
330
5
100
AcDbSymbolTableRecord
100
AcDbLinetypeTableRecord
  2
CONTINUOUS
 70
     0
  3
Solid line
 72
    65
 73
     0
 40
0.0
  0
ENDTAB
  0
TABLE
  2
LAYER
  5
2
100
AcDbSymbolTable
 70
2
  0
LAYER
  5
50
100
AcDbSymbolTableRecord
100
AcDbLayerTableRecord
  2
0
 70
0
  6
CONTINUOUS
  0
LAYER
  5
51
100
AcDbSymbolTableRecord
100
AcDbLayerTableRecord
  2
Layer_1
 70
0
  6
CONTINUOUS
  0
ENDTAB
  0
TABLE
  2
STYLE
  5
3
330
0
100
AcDbSymbolTable
 70
     1
  0
STYLE
  5
11
330
3
100
AcDbSymbolTableRecord
100
AcDbTextStyleTableRecord
  2
STANDARD
 70
     0
 40
0.0
 41
1.0
 50
0.0
 71
     0
 42
2.5
  3
txt
  4

  0
ENDTAB
  0
TABLE
  2
VIEW
  5
6
330
0
100
AcDbSymbolTable
 70
     0
  0
ENDTAB
  0
TABLE
  2
UCS
  5
7
330
0
100
AcDbSymbolTable
 70
     0
  0
ENDTAB
  0
TABLE
  2
APPID
  5
9
330
0
100
AcDbSymbolTable
 70
     2
  0
APPID
  5
12
330
9
100
AcDbSymbolTableRecord
100
AcDbRegAppTableRecord
  2
ACAD
 70
     0
  0
ENDTAB
  0
TABLE
  2
DIMSTYLE
  5
A
330
0
100
AcDbSymbolTable
 70
     1
  0
DIMSTYLE
105
27
330
A
100
AcDbSymbolTableRecord
100
AcDbDimStyleTableRecord
  2
ISO-25
 70
     0
  3

  4

  5

  6

  7

 40
1.0
 41
2.5
 42
0.625
 43
3.75
 44
1.25
 45
0.0
 46
0.0
 47
0.0
 48
0.0
140
2.5
141
2.5
142
0.0
143
0.03937007874016
144
1.0
145
0.0
146
1.0
147
0.625
 71
     0
 72
     0
 73
     0
 74
     0
 75
     0
 76
     0
 77
     1
 78
     8
170
     0
171
     3
172
     1
173
     0
174
     0
175
     0
176
     0
177
     0
178
     0
270
     2
271
     2
272
     2
273
     2
274
     3
340
11
275
     0
280
     0
281
     0
282
     0
283
     0
284
     8
285
     0
286
     0
287
     3
288
     0
  0
ENDTAB
  0
TABLE
  2
BLOCK_RECORD
  5
1
330
0
100
AcDbSymbolTable
 70
     1
  0
BLOCK_RECORD
  5
1F
330
1
100
AcDbSymbolTableRecord
100
AcDbBlockTableRecord
  2
*MODEL_SPACE
  0
BLOCK_RECORD
  5
1B
330
1
100
AcDbSymbolTableRecord
100
AcDbBlockTableRecord
  2
*PAPER_SPACE
  0
ENDTAB
  0
ENDSEC
  0
SECTION
  2
BLOCKS
  0
BLOCK
  5
20
330
1F
100
AcDbEntity
  8
0
100
AcDbBlockBegin
  2
*MODEL_SPACE
 70
     0
 10
0.0
 20
0.0
 30
0.0
  3
*MODEL_SPACE
  1

  0
ENDBLK
  5
21
330
1F
100
AcDbEntity
  8
0
100
AcDbBlockEnd
  0
BLOCK
  5
1C
330
1B
100
AcDbEntity
 67
     1
  8
0
100
AcDbBlockBegin
  2
*PAPER_SPACE
  1

  0
ENDBLK
  5
1D
330
1B
100
AcDbEntity
 67
     1
  8
0
100
AcDbBlockEnd
  0
ENDSEC
  0
SECTION
  2
ENTITIES
  0
LWPOLYLINE
  5
100
100
AcDbEntity
  8
Layer_1
 62
7
100
AcDbPolyline
 90
8
 70
1
 10
10.000001
 20
8.000002
 30
0.0
 10
10.000001
 20
6.999987
 30
0.0
 10
9.971669
 20
6.999987
 30
0.0
 10
9.971669
 20
7.971616
 30
0.0
 10
8.999986
 20
7.971616
 30
0.0
 10
8.999986
 20
8.000002
 30
0.0
 10
10.000001
 20
8.000002
 30
0.0
 10
10.000001
 20
8.000002
 30
0.0
  0
LWPOLYLINE
  5
101
100
AcDbEntity
  8
Layer_1
 62
7
100
AcDbPolyline
 90
9
 70
1
 10
1.000015
 20
8.000002
 30
0.0
 10
1.000015
 20
7.971616
 30
0.0
 10
0.028332
 20
7.971616
 30
0.0
 10
0.028332
 20
6.999987
 30
0.0
 10
0.000000
 20
6.999987
 30
0.0
 10
0.000000
 20
7.985780
 30
0.0
 10
0.000000
 20
8.000002
 30
0.0
 10
1.000015
 20
8.000002
 30
0.0
 10
1.000015
 20
8.000002
 30
0.0
  0
LWPOLYLINE
  5
102
100
AcDbEntity
  8
Layer_1
 62
7
100
AcDbPolyline
 90
8
 70
1
 10
9.999992
 20
0.799979
 30
0.0
 10
9.999992
 20
0.000000
 30
0.0
 10
8.999977
 20
0.000000
 30
0.0
 10
8.999977
 20
0.028333
 30
0.0
 10
9.971660
 20
0.028333
 30
0.0
 10
9.971660
 20
0.799979
 30
0.0
 10
9.999992
 20
0.799979
 30
0.0
 10
9.999992
 20
0.799979
 30
0.0
  0
LWPOLYLINE
  5
103
100
AcDbEntity
  8
Layer_1
 62
7
100
AcDbPolyline
 90
8
 70
1
 10
0.028332
 20
0.799979
 30
0.0
 10
0.028332
 20
0.028333
 30
0.0
 10
1.000015
 20
0.028333
 30
0.0
 10
1.000015
 20
0.000000
 30
0.0
 10
0.000000
 20
0.000000
 30
0.0
 10
0.000000
 20
0.799979
 30
0.0
 10
0.028332
 20
0.799979
 30
0.0
 10
0.028332
 20
0.799979
 30
0.0
  0
LWPOLYLINE
  5
104
100
AcDbEntity
  8
Layer_1
 62
7
100
AcDbPolyline
 90
20
 70
0
 10
3.832796
 20
6.199278
 30
0.0
 10
3.787117
 20
6.192449
 30
0.0
 10
3.744547
 20
6.174529
 30
0.0
 10
3.690210
 20
6.126882
 30
0.0
 10
3.658245
 20
6.062067
 30
0.0
 10
3.653517
 20
5.989954
 30
0.0
 10
3.676747
 20
5.921521
 30
0.0
 10
3.724394
 20
5.867184
 30
0.0
 10
3.789209
 20
5.835219
 30
0.0
 10
3.861322
 20
5.830491
 30
0.0
 10
3.929755
 20
5.853722
 30
0.0
 10
3.984092
 20
5.901369
 30
0.0
 10
4.016058
 20
5.966183
 30
0.0
 10
4.020785
 20
6.038296
 30
0.0
 10
3.997555
 20
6.106729
 30
0.0
 10
3.967046
 20
6.146159
 30
0.0
 10
3.927867
 20
6.175598
 30
0.0
 10
3.882343
 20
6.193739
 30
0.0
 10
3.832796
 20
6.199278
 30
0.0
 10
3.832796
 20
6.199278
 30
0.0
  0
LWPOLYLINE
  5
105
100
AcDbEntity
  8
Layer_1
 62
7
100
AcDbPolyline
 90
20
 70
0
 10
6.154074
 20
6.199109
 30
0.0
 10
6.108246
 20
6.191096
 30
0.0
 10
6.066462
 20
6.172274
 30
0.0
 10
6.030574
 20
6.143775
 30
0.0
 10
6.002435
 20
6.106725
 30
0.0
 10
5.979205
 20
6.038292
 30
0.0
 10
5.983932
 20
5.966179
 30
0.0
 10
6.015898
 20
5.901365
 30
0.0
 10
6.070234
 20
5.853718
 30
0.0
 10
6.138667
 20
5.830487
 30
0.0
 10
6.210781
 20
5.835215
 30
0.0
 10
6.275595
 20
5.867180
 30
0.0
 10
6.323242
 20
5.921517
 30
0.0
 10
6.346473
 20
5.989950
 30
0.0
 10
6.341745
 20
6.062063
 30
0.0
 10
6.309780
 20
6.126878
 30
0.0
 10
6.255443
 20
6.174525
 30
0.0
 10
6.206525
 20
6.194100
 30
0.0
 10
6.154074
 20
6.199109
 30
0.0
 10
6.154074
 20
6.199109
 30
0.0
  0
LWPOLYLINE
  5
106
100
AcDbEntity
  8
Layer_1
 62
7
100
AcDbPolyline
 90
18
 70
0
 10
2.674307
 20
4.185193
 30
0.0
 10
2.602216
 20
4.170638
 30
0.0
 10
2.543345
 20
4.130946
 30
0.0
 10
2.503653
 20
4.072076
 30
0.0
 10
2.489099
 20
3.999984
 30
0.0
 10
2.503653
 20
3.927893
 30
0.0
 10
2.543345
 20
3.869022
 30
0.0
 10
2.602216
 20
3.829331
 30
0.0
 10
2.674307
 20
3.814776
 30
0.0
 10
2.746399
 20
3.829331
 30
0.0
 10
2.805269
 20
3.869022
 30
0.0
 10
2.844961
 20
3.927893
 30
0.0
 10
2.859515
 20
3.999984
 30
0.0
 10
2.844961
 20
4.072076
 30
0.0
 10
2.805269
 20
4.130946
 30
0.0
 10
2.746399
 20
4.170638
 30
0.0
 10
2.674307
 20
4.185193
 30
0.0
 10
2.674307
 20
4.185193
 30
0.0
  0
LWPOLYLINE
  5
107
100
AcDbEntity
  8
Layer_1
 62
7
100
AcDbPolyline
 90
18
 70
0
 10
7.325683
 20
4.185193
 30
0.0
 10
7.253591
 20
4.170638
 30
0.0
 10
7.194721
 20
4.130946
 30
0.0
 10
7.155029
 20
4.072076
 30
0.0
 10
7.140474
 20
3.999984
 30
0.0
 10
7.155029
 20
3.927893
 30
0.0
 10
7.194721
 20
3.869022
 30
0.0
 10
7.253591
 20
3.829331
 30
0.0
 10
7.325683
 20
3.814776
 30
0.0
 10
7.397774
 20
3.829331
 30
0.0
 10
7.456645
 20
3.869022
 30
0.0
 10
7.496336
 20
3.927893
 30
0.0
 10
7.510891
 20
3.999984
 30
0.0
 10
7.496336
 20
4.072076
 30
0.0
 10
7.456645
 20
4.130946
 30
0.0
 10
7.397774
 20
4.170638
 30
0.0
 10
7.325683
 20
4.185193
 30
0.0
 10
7.325683
 20
4.185193
 30
0.0
  0
LWPOLYLINE
  5
108
100
AcDbEntity
  8
Layer_1
 62
7
100
AcDbPolyline
 90
20
 70
0
 10
3.841506
 20
2.171052
 30
0.0
 10
3.791959
 20
2.165513
 30
0.0
 10
3.746435
 20
2.147371
 30
0.0
 10
3.707256
 20
2.117933
 30
0.0
 10
3.676747
 20
2.078503
 30
0.0
 10
3.653517
 20
2.010070
 30
0.0
 10
3.658244
 20
1.937956
 30
0.0
 10
3.690210
 20
1.873142
 30
0.0
 10
3.744547
 20
1.825495
 30
0.0
 10
3.812980
 20
1.802265
 30
0.0
 10
3.885093
 20
1.806992
 30
0.0
 10
3.949908
 20
1.838958
 30
0.0
 10
3.997555
 20
1.893295
 30
0.0
 10
4.020785
 20
1.961728
 30
0.0
 10
4.016058
 20
2.033841
 30
0.0
 10
3.984092
 20
2.098655
 30
0.0
 10
3.929755
 20
2.146302
 30
0.0
 10
3.887186
 20
2.164222
 30
0.0
 10
3.841506
 20
2.171052
 30
0.0
 10
3.841506
 20
2.171052
 30
0.0
  0
LWPOLYLINE
  5
109
100
AcDbEntity
  8
Layer_1
 62
7
100
AcDbPolyline
 90
20
 70
0
 10
6.171603
 20
2.170883
 30
0.0
 10
6.119152
 20
2.165874
 30
0.0
 10
6.070234
 20
2.146298
 30
0.0
 10
6.015898
 20
2.098651
 30
0.0
 10
5.983932
 20
2.033837
 30
0.0
 10
5.979205
 20
1.961723
 30
0.0
 10
6.002435
 20
1.893290
 30
0.0
 10
6.050082
 20
1.838954
 30
0.0
 10
6.114896
 20
1.806988
 30
0.0
 10
6.187010
 20
1.802260
 30
0.0
 10
6.255443
 20
1.825491
 30
0.0
 10
6.309780
 20
1.873138
 30
0.0
 10
6.341745
 20
1.937952
 30
0.0
 10
6.346473
 20
2.010066
 30
0.0
 10
6.323242
 20
2.078499
 30
0.0
 10
6.295104
 20
2.115548
 30
0.0
 10
6.259216
 20
2.144048
 30
0.0
 10
6.217431
 20
2.162869
 30
0.0
 10
6.171603
 20
2.170883
 30
0.0
 10
6.171603
 20
2.170883
 30
0.0
  0
ENDSEC
  0
SECTION
  2
OBJECTS
  0
DICTIONARY
  5
C
330
0
100
AcDbDictionary
  3
ACAD_GROUP
350
D
  3
ACAD_MLINESTYLE
350
17
  0
DICTIONARY
  5
D
330
C
100
AcDbDictionary
  0
DICTIONARY
  5
1A
330
C
100
AcDbDictionary
  0
DICTIONARY
  5
17
330
C
100
AcDbDictionary
  3
STANDARD
350
18
  0
DICTIONARY
  5
19
330
C
100
AcDbDictionary
  0
ENDSEC
  0
EOF
