  0
SECTION
  2
HEADER
  9
$ACADVER
  1
AC1014
  9
$HANDSEED
  5
FFFF
  9
$MEASUREMENT
 70
     1
  0
ENDSEC
  0
SECTION
  2
TABLES
  0
TABLE
  2
VPORT
  5
8
330
0
100
AcDbSymbolTable
 70
     4
  0
VPORT
  5
2E
330
8
100
AcDbSymbolTableRecord
100
AcDbViewportTableRecord
  2
*ACTIVE
 70
     0
 10
0.0
 20
0.0
 11
1.0
 21
1.0
 12
210.0
 22
148.5
 13
0.0
 23
0.0
 14
10.0
 24
10.0
 15
10.0
 25
10.0
 16
0.0
 26
0.0
 36
1.0
 17
0.0
 27
0.0
 37
0.0
 40
341.0
 41
1.24
 42
50.0
 43
0.0
 44
0.0
 50
0.0
 51
0.0
 71
     0
 72
   100
 73
     1
 74
     3
 75
     0
 76
     0
 77
     0
 78
     0
  0
ENDTAB
  0
TABLE
  2
LTYPE
  5
5
330
0
100
AcDbSymbolTable
 70
     1
  0
LTYPE
  5
14
330
5
100
AcDbSymbolTableRecord
100
AcDbLinetypeTableRecord
  2
BYBLOCK
 70
     0
  3

 72
    65
 73
     0
 40
0.0
  0
LTYPE
  5
15
330
5
100
AcDbSymbolTableRecord
100
AcDbLinetypeTableRecord
  2
BYLAYER
 70
     0
  3

 72
    65
 73
     0
 40
0.0
  0
LTYPE
  5
16
330
5
100
AcDbSymbolTableRecord
100
AcDbLinetypeTableRecord
  2
CONTINUOUS
 70
     0
  3
Solid line
 72
    65
 73
     0
 40
0.0
  0
ENDTAB
  0
TABLE
  2
LAYER
  5
2
100
AcDbSymbolTable
 70
2
  0
LAYER
  5
50
100
AcDbSymbolTableRecord
100
AcDbLayerTableRecord
  2
0
 70
0
  6
CONTINUOUS
  0
LAYER
  5
51
100
AcDbSymbolTableRecord
100
AcDbLayerTableRecord
  2
Layer_1
 70
0
  6
CONTINUOUS
  0
ENDTAB
  0
TABLE
  2
STYLE
  5
3
330
0
100
AcDbSymbolTable
 70
     1
  0
STYLE
  5
11
330
3
100
AcDbSymbolTableRecord
100
AcDbTextStyleTableRecord
  2
STANDARD
 70
     0
 40
0.0
 41
1.0
 50
0.0
 71
     0
 42
2.5
  3
txt
  4

  0
ENDTAB
  0
TABLE
  2
VIEW
  5
6
330
0
100
AcDbSymbolTable
 70
     0
  0
ENDTAB
  0
TABLE
  2
UCS
  5
7
330
0
100
AcDbSymbolTable
 70
     0
  0
ENDTAB
  0
TABLE
  2
APPID
  5
9
330
0
100
AcDbSymbolTable
 70
     2
  0
APPID
  5
12
330
9
100
AcDbSymbolTableRecord
100
AcDbRegAppTableRecord
  2
ACAD
 70
     0
  0
ENDTAB
  0
TABLE
  2
DIMSTYLE
  5
A
330
0
100
AcDbSymbolTable
 70
     1
  0
DIMSTYLE
105
27
330
A
100
AcDbSymbolTableRecord
100
AcDbDimStyleTableRecord
  2
ISO-25
 70
     0
  3

  4

  5

  6

  7

 40
1.0
 41
2.5
 42
0.625
 43
3.75
 44
1.25
 45
0.0
 46
0.0
 47
0.0
 48
0.0
140
2.5
141
2.5
142
0.0
143
0.03937007874016
144
1.0
145
0.0
146
1.0
147
0.625
 71
     0
 72
     0
 73
     0
 74
     0
 75
     0
 76
     0
 77
     1
 78
     8
170
     0
171
     3
172
     1
173
     0
174
     0
175
     0
176
     0
177
     0
178
     0
270
     2
271
     2
272
     2
273
     2
274
     3
340
11
275
     0
280
     0
281
     0
282
     0
283
     0
284
     8
285
     0
286
     0
287
     3
288
     0
  0
ENDTAB
  0
TABLE
  2
BLOCK_RECORD
  5
1
330
0
100
AcDbSymbolTable
 70
     1
  0
BLOCK_RECORD
  5
1F
330
1
100
AcDbSymbolTableRecord
100
AcDbBlockTableRecord
  2
*MODEL_SPACE
  0
BLOCK_RECORD
  5
1B
330
1
100
AcDbSymbolTableRecord
100
AcDbBlockTableRecord
  2
*PAPER_SPACE
  0
ENDTAB
  0
ENDSEC
  0
SECTION
  2
BLOCKS
  0
BLOCK
  5
20
330
1F
100
AcDbEntity
  8
0
100
AcDbBlockBegin
  2
*MODEL_SPACE
 70
     0
 10
0.0
 20
0.0
 30
0.0
  3
*MODEL_SPACE
  1

  0
ENDBLK
  5
21
330
1F
100
AcDbEntity
  8
0
100
AcDbBlockEnd
  0
BLOCK
  5
1C
330
1B
100
AcDbEntity
 67
     1
  8
0
100
AcDbBlockBegin
  2
*PAPER_SPACE
  1

  0
ENDBLK
  5
1D
330
1B
100
AcDbEntity
 67
     1
  8
0
100
AcDbBlockEnd
  0
ENDSEC
  0
SECTION
  2
ENTITIES
  0
LWPOLYLINE
  5
100
100
AcDbEntity
  8
Layer_1
 62
7
100
AcDbPolyline
 90
78
 70
0
 10
4.999994
 20
7.245508
 30
0.0
 10
4.682251
 20
7.230031
 30
0.0
 10
4.372937
 20
7.184702
 30
0.0
 10
4.073540
 20
7.110922
 30
0.0
 10
3.785550
 20
7.010092
 30
0.0
 10
3.510456
 20
6.883612
 30
0.0
 10
3.249747
 20
6.732882
 30
0.0
 10
3.004913
 20
6.559304
 30
0.0
 10
2.777443
 20
6.364278
 30
0.0
 10
2.568826
 20
6.149204
 30
0.0
 10
2.380552
 20
5.915482
 30
0.0
 10
2.214109
 20
5.664514
 30
0.0
 10
2.070987
 20
5.397699
 30
0.0
 10
1.952675
 20
5.116439
 30
0.0
 10
1.860663
 20
4.822133
 30
0.0
 10
1.796440
 20
4.516183
 30
0.0
 10
1.761494
 20
4.199989
 30
0.0
 10
0.800011
 20
4.199989
 30
0.0
 10
0.723467
 20
4.184777
 30
0.0
 10
0.658573
 20
4.141430
 30
0.0
 10
0.615207
 20
4.076547
 30
0.0
 10
0.599974
 20
4.000008
 30
0.0
 10
0.615207
 20
3.923469
 30
0.0
 10
0.658573
 20
3.858586
 30
0.0
 10
0.723467
 20
3.815239
 30
0.0
 10
0.800011
 20
3.800027
 30
0.0
 10
1.764418
 20
3.800027
 30
0.0
 10
1.799326
 20
3.484031
 30
0.0
 10
1.863479
 20
3.178260
 30
0.0
 10
1.955388
 20
2.884114
 30
0.0
 10
2.073568
 20
2.602991
 30
0.0
 10
2.216534
 20
2.336289
 30
0.0
 10
2.382799
 20
2.085409
 30
0.0
 10
2.570878
 20
1.851747
 30
0.0
 10
2.779284
 20
1.636703
 30
0.0
 10
3.006531
 20
1.441677
 30
0.0
 10
3.251133
 20
1.268065
 30
0.0
 10
3.511605
 20
1.117268
 30
0.0
 10
3.786460
 20
0.990684
 30
0.0
 10
4.074213
 20
0.889712
 30
0.0
 10
4.373377
 20
0.815750
 30
0.0
 10
4.682466
 20
0.770197
 30
0.0
 10
4.999994
 20
0.754452
 30
0.0
 10
5.320775
 20
0.770336
 30
0.0
 10
5.636122
 20
0.817395
 30
0.0
 10
5.943907
 20
0.894748
 30
0.0
 10
6.242003
 20
1.001513
 30
0.0
 10
6.528280
 20
1.136809
 30
0.0
 10
6.800611
 20
1.299754
 30
0.0
 10
7.056868
 20
1.489466
 30
0.0
 10
7.294922
 20
1.705064
 30
0.0
 10
7.510517
 20
1.943122
 30
0.0
 10
7.700225
 20
2.199382
 30
0.0
 10
7.863165
 20
2.471716
 30
0.0
 10
7.998456
 20
2.757995
 30
0.0
 10
8.105216
 20
3.056093
 30
0.0
 10
8.182564
 20
3.363879
 30
0.0
 10
8.229618
 20
3.679227
 30
0.0
 10
8.245497
 20
4.000008
 30
0.0
 10
8.241272
 20
4.167020
 30
0.0
 10
8.228738
 20
4.331840
 30
0.0
 10
8.179555
 20
4.654087
 30
0.0
 10
8.099579
 20
4.965117
 30
0.0
 10
7.990442
 20
5.263299
 30
0.0
 10
7.853774
 20
5.547001
 30
0.0
 10
7.691207
 20
5.814592
 30
0.0
 10
7.504373
 20
6.064441
 30
0.0
 10
7.294903
 20
6.294916
 30
0.0
 10
7.064428
 20
6.504386
 30
0.0
 10
6.814579
 20
6.691220
 30
0.0
 10
6.546988
 20
6.853787
 30
0.0
 10
6.263285
 20
6.990454
 30
0.0
 10
5.965104
 20
7.099592
 30
0.0
 10
5.654074
 20
7.179567
 30
0.0
 10
5.331827
 20
7.228750
 30
0.0
 10
5.167007
 20
7.241284
 30
0.0
 10
4.999994
 20
7.245508
 30
0.0
 10
4.999994
 20
7.245508
 30
0.0
  0
LWPOLYLINE
  5
101
100
AcDbEntity
  8
Layer_1
 62
7
100
AcDbPolyline
 90
902
 70
0
 10
4.894768
 20
7.067301
 30
0.0
 10
5.105111
 20
7.067301
 30
0.0
 10
5.115584
 20
7.044535
 30
0.0
 10
5.128758
 20
7.014108
 30
0.0
 10
5.140995
 20
6.983681
 30
0.0
 10
5.152242
 20
6.953364
 30
0.0
 10
5.162605
 20
6.922937
 30
0.0
 10
5.171865
 20
6.892510
 30
0.0
 10
5.180021
 20
6.862083
 30
0.0
 10
5.187077
 20
6.831766
 30
0.0
 10
5.190110
 20
6.816608
 30
0.0
 10
5.192820
 20
6.801505
 30
0.0
 10
5.195134
 20
6.786401
 30
0.0
 10
5.196235
 20
6.778850
 30
0.0
 10
5.197110
 20
6.771298
 30
0.0
 10
5.197872
 20
6.763746
 30
0.0
 10
5.380983
 20
6.744509
 30
0.0
 10
5.383297
 20
6.751730
 30
0.0
 10
5.385724
 20
6.758896
 30
0.0
 10
5.388377
 20
6.766061
 30
0.0
 10
5.393779
 20
6.780393
 30
0.0
 10
5.399511
 20
6.794614
 30
0.0
 10
5.405630
 20
6.808781
 30
0.0
 10
5.418914
 20
6.837003
 30
0.0
 10
5.433245
 20
6.865005
 30
0.0
 10
5.448623
 20
6.892786
 30
0.0
 10
5.464995
 20
6.920402
 30
0.0
 10
5.482357
 20
6.947852
 30
0.0
 10
5.500659
 20
6.975082
 30
0.0
 10
5.519842
 20
7.002037
 30
0.0
 10
5.534780
 20
7.022156
 30
0.0
 10
5.740602
 20
6.978390
 30
0.0
 10
5.746060
 20
6.953971
 30
0.0
 10
5.752619
 20
6.921504
 30
0.0
 10
5.758241
 20
6.889203
 30
0.0
 10
5.762982
 20
6.857122
 30
0.0
 10
5.766676
 20
6.825262
 30
0.0
 10
5.769499
 20
6.793567
 30
0.0
 10
5.771248
 20
6.762093
 30
0.0
 10
5.771728
 20
6.730949
 30
0.0
 10
5.771728
 20
6.715460
 30
0.0
 10
5.771136
 20
6.700136
 30
0.0
 10
5.770261
 20
6.684868
 30
0.0
 10
5.769724
 20
6.677261
 30
0.0
 10
5.769047
 20
6.669709
 30
0.0
 10
5.768285
 20
6.662157
 30
0.0
 10
5.943350
 20
6.605272
 30
0.0
 10
5.947155
 20
6.611887
 30
0.0
 10
5.951123
 20
6.618391
 30
0.0
 10
5.955091
 20
6.624840
 30
0.0
 10
5.963304
 20
6.637738
 30
0.0
 10
5.971959
 20
6.650416
 30
0.0
 10
5.980889
 20
6.663039
 30
0.0
 10
5.999685
 20
6.687954
 30
0.0
 10
6.019528
 20
6.712373
 30
0.0
 10
6.040364
 20
6.736296
 30
0.0
 10
6.062194
 20
6.759943
 30
0.0
 10
6.084848
 20
6.783094
 30
0.0
 10
6.108386
 20
6.805969
 30
0.0
 10
6.132803
 20
6.828349
 30
0.0
 10
6.151599
 20
6.844940
 30
0.0
 10
6.343753
 20
6.759337
 30
0.0
 10
6.344092
 20
6.734256
 30
0.0
 10
6.343697
 20
6.701238
 30
0.0
 10
6.342540
 20
6.668441
 30
0.0
 10
6.340508
 20
6.636030
 30
0.0
 10
6.337477
 20
6.604004
 30
0.0
 10
6.333616
 20
6.572530
 30
0.0
 10
6.328767
 20
6.541441
 30
0.0
 10
6.322869
 20
6.510794
 30
0.0
 10
6.319451
 20
6.495801
 30
0.0
 10
6.315757
 20
6.480863
 30
0.0
 10
6.311679
 20
6.466035
 30
0.0
 10
6.309590
 20
6.458759
 30
0.0
 10
6.307332
 20
6.451483
 30
0.0
 10
6.305018
 20
6.444317
 30
0.0
 10
6.464429
 20
6.352264
 30
0.0
 10
6.469557
 20
6.357887
 30
0.0
 10
6.474682
 20
6.363399
 30
0.0
 10
6.479917
 20
6.368911
 30
0.0
 10
6.490723
 20
6.379770
 30
0.0
 10
6.501857
 20
6.390463
 30
0.0
 10
6.513157
 20
6.400936
 30
0.0
 10
6.536748
 20
6.421387
 30
0.0
 10
6.561166
 20
6.441120
 30
0.0
 10
6.586524
 20
6.460192
 30
0.0
 10
6.612815
 20
6.478823
 30
0.0
 10
6.639827
 20
6.496738
 30
0.0
 10
6.667663
 20
6.514211
 30
0.0
 10
6.696159
 20
6.531078
 30
0.0
 10
6.717932
 20
6.543371
 30
0.0
 10
6.888092
 20
6.419623
 30
0.0
 10
6.883187
 20
6.395094
 30
0.0
 10
6.875965
 20
6.362847
 30
0.0
 10
6.867973
 20
6.331042
 30
0.0
 10
6.859210
 20
6.299733
 30
0.0
 10
6.849730
 20
6.269141
 30
0.0
 10
6.839367
 20
6.238989
 30
0.0
 10
6.828120
 20
6.209610
 30
0.0
 10
6.815993
 20
6.180946
 30
0.0
 10
6.809491
 20
6.166890
 30
0.0
 10
6.802819
 20
6.153055
 30
0.0
 10
6.795873
 20
6.139440
 30
0.0
 10
6.792182
 20
6.132770
 30
0.0
 10
6.788488
 20
6.126101
 30
0.0
 10
6.784686
 20
6.119596
 30
0.0
 10
6.921552
 20
5.996344
 30
0.0
 10
6.927615
 20
6.000809
 30
0.0
 10
6.933843
 20
6.005164
 30
0.0
 10
6.940128
 20
6.009518
 30
0.0
 10
6.952916
 20
6.017842
 30
0.0
 10
6.966034
 20
6.026000
 30
0.0
 10
6.979264
 20
6.033827
 30
0.0
 10
7.006493
 20
6.048930
 30
0.0
 10
7.034605
 20
6.063207
 30
0.0
 10
7.063380
 20
6.076657
 30
0.0
 10
7.092980
 20
6.089390
 30
0.0
 10
7.123076
 20
6.101296
 30
0.0
 10
7.153889
 20
6.112541
 30
0.0
 10
7.185309
 20
6.123069
 30
0.0
 10
7.209120
 20
6.130565
 30
0.0
 10
7.349957
 20
5.974241
 30
0.0
 10
7.339978
 20
5.951255
 30
0.0
 10
7.326200
 20
5.921159
 30
0.0
 10
7.311756
 20
5.891669
 30
0.0
 10
7.296764
 20
5.863005
 30
0.0
 10
7.281056
 20
5.835004
 30
0.0
 10
7.264684
 20
5.807664
 30
0.0
 10
7.247595
 20
5.781315
 30
0.0
 10
7.229680
 20
5.755739
 30
0.0
 10
7.220477
 20
5.743337
 30
0.0
 10
7.211104
 20
5.731210
 30
0.0
 10
7.201404
 20
5.719359
 30
0.0
 10
7.196443
 20
5.713571
 30
0.0
 10
7.191428
 20
5.707838
 30
0.0
 10
7.186356
 20
5.702216
 30
0.0
 10
7.294614
 20
5.553277
 30
0.0
 10
7.301505
 20
5.556364
 30
0.0
 10
7.308451
 20
5.559286
 30
0.0
 10
7.315560
 20
5.562207
 30
0.0
 10
7.329781
 20
5.567719
 30
0.0
 10
7.344223
 20
5.572956
 30
0.0
 10
7.358887
 20
5.577917
 30
0.0
 10
7.388707
 20
5.587012
 30
0.0
 10
7.419133
 20
5.595170
 30
0.0
 10
7.450056
 20
5.602226
 30
0.0
 10
7.481642
 20
5.608509
 30
0.0
 10
7.513612
 20
5.613966
 30
0.0
 10
7.546079
 20
5.618597
 30
0.0
 10
7.578930
 20
5.622400
 30
0.0
 10
7.603847
 20
5.624714
 30
0.0
 10
7.709074
 20
5.442538
 30
0.0
 10
7.694520
 20
5.422088
 30
0.0
 10
7.674787
 20
5.395519
 30
0.0
 10
7.654614
 20
5.369777
 30
0.0
 10
7.633887
 20
5.344752
 30
0.0
 10
7.612777
 20
5.320609
 30
0.0
 10
7.591057
 20
5.297347
 30
0.0
 10
7.568733
 20
5.275078
 30
0.0
 10
7.546079
 20
5.253746
 30
0.0
 10
7.534449
 20
5.243604
 30
0.0
 10
7.522708
 20
5.233682
 30
0.0
 10
7.510802
 20
5.224091
 30
0.0
 10
7.504683
 20
5.219461
 30
0.0
 10
7.498674
 20
5.214886
 30
0.0
 10
7.492499
 20
5.210421
 30
0.0
 10
7.567410
 20
5.042190
 30
0.0
 10
7.574852
 20
5.043844
 30
0.0
 10
7.582238
 20
5.045331
 30
0.0
 10
7.589790
 20
5.046655
 30
0.0
 10
7.604784
 20
5.049079
 30
0.0
 10
7.620106
 20
5.051230
 30
0.0
 10
7.635431
 20
5.053050
 30
0.0
 10
7.666464
 20
5.055694
 30
0.0
 10
7.697937
 20
5.057348
 30
0.0
 10
7.729744
 20
5.057898
 30
0.0
 10
7.761770
 20
5.057402
 30
0.0
 10
7.794235
 20
5.056188
 30
0.0
 10
7.826924
 20
5.053818
 30
0.0
 10
7.859885
 20
5.050731
 30
0.0
 10
7.884746
 20
5.047809
 30
0.0
 10
7.949790
 20
4.847828
 30
0.0
 10
7.931378
 20
4.830851
 30
0.0
 10
7.906573
 20
4.808968
 30
0.0
 10
7.881382
 20
4.787911
 30
0.0
 10
7.855973
 20
4.767792
 30
0.0
 10
7.830229
 20
4.748609
 30
0.0
 10
7.804157
 20
4.730254
 30
0.0
 10
7.777809
 20
4.713111
 30
0.0
 10
7.751131
 20
4.697016
 30
0.0
 10
7.737680
 20
4.689464
 30
0.0
 10
7.724122
 20
4.682188
 30
0.0
 10
7.710451
 20
4.675353
 30
0.0
 10
7.703562
 20
4.672046
 30
0.0
 10
7.696670
 20
4.668849
 30
0.0
 10
7.689671
 20
4.665817
 30
0.0
 10
7.727980
 20
4.485680
 30
0.0
 10
7.735642
 20
4.485680
 30
0.0
 10
7.743195
 20
4.485567
 30
0.0
 10
7.750744
 20
4.485398
 30
0.0
 10
7.766069
 20
4.484627
 30
0.0
 10
7.781393
 20
4.483524
 30
0.0
 10
7.796772
 20
4.482090
 30
0.0
 10
7.827695
 20
4.478342
 30
0.0
 10
7.858784
 20
4.473271
 30
0.0
 10
7.889981
 20
4.467262
 30
0.0
 10
7.921291
 20
4.460207
 30
0.0
 10
7.952764
 20
4.452049
 30
0.0
 10
7.984294
 20
4.443119
 30
0.0
 10
8.015881
 20
4.433252
 30
0.0
 10
8.039638
 20
4.425204
 30
0.0
 10
8.061632
 20
4.216018
 30
0.0
 10
8.040022
 20
4.203230
 30
0.0
 10
8.011249
 20
4.187024
 30
0.0
 10
7.982257
 20
4.171590
 30
0.0
 10
7.953207
 20
4.157148
 30
0.0
 10
7.923992
 20
4.143809
 30
0.0
 10
7.894723
 20
4.131407
 30
0.0
 10
7.865397
 20
4.120052
 30
0.0
 10
7.835907
 20
4.109909
 30
0.0
 10
7.821190
 20
4.105224
 30
0.0
 10
7.806362
 20
4.100980
 30
0.0
 10
7.791647
 20
4.097066
 30
0.0
 10
7.784204
 20
4.095246
 30
0.0
 10
7.776819
 20
4.093592
 30
0.0
 10
7.769376
 20
4.092048
 30
0.0
 10
7.769376
 20
3.907942
 30
0.0
 10
7.776819
 20
3.906399
 30
0.0
 10
7.784204
 20
3.904635
 30
0.0
 10
7.791647
 20
3.902871
 30
0.0
 10
7.806362
 20
3.898902
 30
0.0
 10
7.821190
 20
3.894658
 30
0.0
 10
7.835907
 20
3.890083
 30
0.0
 10
7.865397
 20
3.879940
 30
0.0
 10
7.894723
 20
3.868585
 30
0.0
 10
7.923992
 20
3.856183
 30
0.0
 10
7.953207
 20
3.842733
 30
0.0
 10
7.982257
 20
3.828291
 30
0.0
 10
8.011249
 20
3.812968
 30
0.0
 10
8.040022
 20
3.796707
 30
0.0
 10
8.061632
 20
3.783974
 30
0.0
 10
8.039638
 20
3.574788
 30
0.0
 10
8.015881
 20
3.566740
 30
0.0
 10
7.984294
 20
3.556873
 30
0.0
 10
7.952764
 20
3.547833
 30
0.0
 10
7.921291
 20
3.539785
 30
0.0
 10
7.889981
 20
3.532730
 30
0.0
 10
7.858784
 20
3.526611
 30
0.0
 10
7.827695
 20
3.521651
 30
0.0
 10
7.796772
 20
3.517902
 30
0.0
 10
7.781393
 20
3.516415
 30
0.0
 10
7.766069
 20
3.515258
 30
0.0
 10
7.750744
 20
3.514597
 30
0.0
 10
7.743195
 20
3.514428
 30
0.0
 10
7.735642
 20
3.514202
 30
0.0
 10
7.727980
 20
3.514202
 30
0.0
 10
7.689671
 20
3.334175
 30
0.0
 10
7.696670
 20
3.331033
 30
0.0
 10
7.703562
 20
3.327836
 30
0.0
 10
7.710451
 20
3.324584
 30
0.0
 10
7.724122
 20
3.317694
 30
0.0
 10
7.737680
 20
3.310528
 30
0.0
 10
7.751131
 20
3.302866
 30
0.0
 10
7.777809
 20
3.286881
 30
0.0
 10
7.804157
 20
3.269628
 30
0.0
 10
7.830229
 20
3.251383
 30
0.0
 10
7.855973
 20
3.232201
 30
0.0
 10
7.881382
 20
3.212081
 30
0.0
 10
7.906573
 20
3.191025
 30
0.0
 10
7.931378
 20
3.169141
 30
0.0
 10
7.949790
 20
3.152164
 30
0.0
 10
7.884746
 20
2.952073
 30
0.0
 10
7.859885
 20
2.949151
 30
0.0
 10
7.826924
 20
2.946064
 30
0.0
 10
7.794235
 20
2.943804
 30
0.0
 10
7.761770
 20
2.942480
 30
0.0
 10
7.729744
 20
2.942094
 30
0.0
 10
7.697937
 20
2.942644
 30
0.0
 10
7.666464
 20
2.944188
 30
0.0
 10
7.635431
 20
2.946942
 30
0.0
 10
7.620106
 20
2.948650
 30
0.0
 10
7.604784
 20
2.950800
 30
0.0
 10
7.589790
 20
2.953335
 30
0.0
 10
7.582238
 20
2.954658
 30
0.0
 10
7.574852
 20
2.956145
 30
0.0
 10
7.567410
 20
2.957689
 30
0.0
 10
7.492499
 20
2.789459
 30
0.0
 10
7.498674
 20
2.784993
 30
0.0
 10
7.504683
 20
2.780418
 30
0.0
 10
7.510802
 20
2.775788
 30
0.0
 10
7.522708
 20
2.766307
 30
0.0
 10
7.534449
 20
2.756385
 30
0.0
 10
7.546079
 20
2.746133
 30
0.0
 10
7.568733
 20
2.724911
 30
0.0
 10
7.591057
 20
2.702642
 30
0.0
 10
7.612777
 20
2.679381
 30
0.0
 10
7.633887
 20
2.655238
 30
0.0
 10
7.654614
 20
2.630212
 30
0.0
 10
7.674787
 20
2.604360
 30
0.0
 10
7.694520
 20
2.577792
 30
0.0
 10
7.709074
 20
2.557342
 30
0.0
 10
7.603847
 20
2.375165
 30
0.0
 10
7.578930
 20
2.377479
 30
0.0
 10
7.546079
 20
2.381393
 30
0.0
 10
7.513612
 20
2.385913
 30
0.0
 10
7.481642
 20
2.391370
 30
0.0
 10
7.450056
 20
2.397654
 30
0.0
 10
7.419133
 20
2.404820
 30
0.0
 10
7.388707
 20
2.412977
 30
0.0
 10
7.358887
 20
2.421962
 30
0.0
 10
7.344223
 20
2.426923
 30
0.0
 10
7.329781
 20
2.432160
 30
0.0
 10
7.315560
 20
2.437672
 30
0.0
 10
7.308451
 20
2.440593
 30
0.0
 10
7.301505
 20
2.443570
 30
0.0
 10
7.294614
 20
2.446712
 30
0.0
 10
7.186356
 20
2.297773
 30
0.0
 10
7.191428
 20
2.292151
 30
0.0
 10
7.196443
 20
2.286419
 30
0.0
 10
7.201404
 20
2.280576
 30
0.0
 10
7.211104
 20
2.268780
 30
0.0
 10
7.220477
 20
2.256543
 30
0.0
 10
7.229680
 20
2.244251
 30
0.0
 10
7.247595
 20
2.218674
 30
0.0
 10
7.264684
 20
2.192216
 30
0.0
 10
7.281056
 20
2.164986
 30
0.0
 10
7.296764
 20
2.136984
 30
0.0
 10
7.311756
 20
2.108210
 30
0.0
 10
7.326200
 20
2.078776
 30
0.0
 10
7.339978
 20
2.048734
 30
0.0
 10
7.349957
 20
2.025749
 30
0.0
 10
7.209120
 20
1.869314
 30
0.0
 10
7.185309
 20
1.876811
 30
0.0
 10
7.153889
 20
1.887339
 30
0.0
 10
7.123076
 20
1.898694
 30
0.0
 10
7.092980
 20
1.910600
 30
0.0
 10
7.063380
 20
1.923333
 30
0.0
 10
7.034605
 20
1.936783
 30
0.0
 10
7.006493
 20
1.951004
 30
0.0
 10
6.979264
 20
1.966052
 30
0.0
 10
6.966034
 20
1.973879
 30
0.0
 10
6.952916
 20
1.982037
 30
0.0
 10
6.940128
 20
1.990471
 30
0.0
 10
6.933843
 20
1.994715
 30
0.0
 10
6.927615
 20
1.999070
 30
0.0
 10
6.921552
 20
2.003535
 30
0.0
 10
6.784686
 20
1.880393
 30
0.0
 10
6.788488
 20
1.873779
 30
0.0
 10
6.792182
 20
1.867219
 30
0.0
 10
6.795873
 20
1.860494
 30
0.0
 10
6.802819
 20
1.846879
 30
0.0
 10
6.809491
 20
1.833099
 30
0.0
 10
6.815993
 20
1.819043
 30
0.0
 10
6.828120
 20
1.790380
 30
0.0
 10
6.839367
 20
1.760890
 30
0.0
 10
6.849730
 20
1.730849
 30
0.0
 10
6.859210
 20
1.700146
 30
0.0
 10
6.867973
 20
1.668947
 30
0.0
 10
6.875965
 20
1.637142
 30
0.0
 10
6.883187
 20
1.604786
 30
0.0
 10
6.888092
 20
1.580256
 30
0.0
 10
6.717932
 20
1.456619
 30
0.0
 10
6.696159
 20
1.468911
 30
0.0
 10
6.667663
 20
1.485778
 30
0.0
 10
6.639827
 20
1.503142
 30
0.0
 10
6.612815
 20
1.521166
 30
0.0
 10
6.586524
 20
1.539687
 30
0.0
 10
6.561166
 20
1.558869
 30
0.0
 10
6.536748
 20
1.578603
 30
0.0
 10
6.513157
 20
1.598998
 30
0.0
 10
6.501857
 20
1.609416
 30
0.0
 10
6.490723
 20
1.620109
 30
0.0
 10
6.479917
 20
1.630968
 30
0.0
 10
6.474682
 20
1.636481
 30
0.0
 10
6.469557
 20
1.642103
 30
0.0
 10
6.464429
 20
1.647725
 30
0.0
 10
6.305018
 20
1.555672
 30
0.0
 10
6.307332
 20
1.548506
 30
0.0
 10
6.309590
 20
1.541231
 30
0.0
 10
6.311679
 20
1.533844
 30
0.0
 10
6.315757
 20
1.519127
 30
0.0
 10
6.319451
 20
1.504189
 30
0.0
 10
6.322869
 20
1.489196
 30
0.0
 10
6.328767
 20
1.458548
 30
0.0
 10
6.333616
 20
1.427460
 30
0.0
 10
6.337477
 20
1.395875
 30
0.0
 10
6.340508
 20
1.363905
 30
0.0
 10
6.342540
 20
1.331493
 30
0.0
 10
6.343697
 20
1.298751
 30
0.0
 10
6.344092
 20
1.265623
 30
0.0
 10
6.343753
 20
1.240598
 30
0.0
 10
6.151599
 20
1.155049
 30
0.0
 10
6.132803
 20
1.171641
 30
0.0
 10
6.108386
 20
1.194020
 30
0.0
 10
6.084848
 20
1.216785
 30
0.0
 10
6.062194
 20
1.240047
 30
0.0
 10
6.040364
 20
1.263583
 30
0.0
 10
6.019528
 20
1.287616
 30
0.0
 10
5.999685
 20
1.312035
 30
0.0
 10
5.980889
 20
1.336950
 30
0.0
 10
5.971959
 20
1.349518
 30
0.0
 10
5.963304
 20
1.362251
 30
0.0
 10
5.955091
 20
1.375150
 30
0.0
 10
5.951123
 20
1.381599
 30
0.0
 10
5.947155
 20
1.388103
 30
0.0
 10
5.943350
 20
1.394607
 30
0.0
 10
5.768285
 20
1.337722
 30
0.0
 10
5.769047
 20
1.330280
 30
0.0
 10
5.769724
 20
1.322674
 30
0.0
 10
5.770261
 20
1.315067
 30
0.0
 10
5.771136
 20
1.299853
 30
0.0
 10
5.771728
 20
1.284419
 30
0.0
 10
5.771728
 20
1.269040
 30
0.0
 10
5.771248
 20
1.237787
 30
0.0
 10
5.769499
 20
1.206422
 30
0.0
 10
5.766676
 20
1.174727
 30
0.0
 10
5.762982
 20
1.142867
 30
0.0
 10
5.758241
 20
1.110787
 30
0.0
 10
5.752619
 20
1.078430
 30
0.0
 10
5.746060
 20
1.045964
 30
0.0
 10
5.740602
 20
1.021545
 30
0.0
 10
5.534780
 20
0.977833
 30
0.0
 10
5.519842
 20
0.997898
 30
0.0
 10
5.500659
 20
1.024907
 30
0.0
 10
5.482357
 20
1.052027
 30
0.0
 10
5.464995
 20
1.079477
 30
0.0
 10
5.448623
 20
1.107093
 30
0.0
 10
5.433245
 20
1.134875
 30
0.0
 10
5.418914
 20
1.162876
 30
0.0
 10
5.405630
 20
1.191209
 30
0.0
 10
5.399511
 20
1.205375
 30
0.0
 10
5.393779
 20
1.219597
 30
0.0
 10
5.388377
 20
1.233928
 30
0.0
 10
5.385724
 20
1.241094
 30
0.0
 10
5.383297
 20
1.248260
 30
0.0
 10
5.380983
 20
1.255425
 30
0.0
 10
5.197872
 20
1.236188
 30
0.0
 10
5.197110
 20
1.228691
 30
0.0
 10
5.196235
 20
1.221140
 30
0.0
 10
5.195134
 20
1.213588
 30
0.0
 10
5.192820
 20
1.198485
 30
0.0
 10
5.190110
 20
1.183326
 30
0.0
 10
5.187077
 20
1.168223
 30
0.0
 10
5.180021
 20
1.137796
 30
0.0
 10
5.171865
 20
1.107479
 30
0.0
 10
5.162605
 20
1.077052
 30
0.0
 10
5.152242
 20
1.046625
 30
0.0
 10
5.140995
 20
1.016198
 30
0.0
 10
5.128758
 20
0.985771
 30
0.0
 10
5.115584
 20
0.955454
 30
0.0
 10
5.105111
 20
0.932634
 30
0.0
 10
4.894768
 20
0.932634
 30
0.0
 10
4.884351
 20
0.955454
 30
0.0
 10
4.871177
 20
0.985771
 30
0.0
 10
4.858993
 20
1.016198
 30
0.0
 10
4.847639
 20
1.046625
 30
0.0
 10
4.837386
 20
1.077052
 30
0.0
 10
4.828070
 20
1.107479
 30
0.0
 10
4.819857
 20
1.137796
 30
0.0
 10
4.812858
 20
1.168223
 30
0.0
 10
4.809771
 20
1.183326
 30
0.0
 10
4.807062
 20
1.198485
 30
0.0
 10
4.804691
 20
1.213588
 30
0.0
 10
4.803760
 20
1.221140
 30
0.0
 10
4.802885
 20
1.228691
 30
0.0
 10
4.802010
 20
1.236188
 30
0.0
 10
4.618952
 20
1.255425
 30
0.0
 10
4.616638
 20
1.248260
 30
0.0
 10
4.614098
 20
1.241094
 30
0.0
 10
4.611614
 20
1.233928
 30
0.0
 10
4.606159
 20
1.219597
 30
0.0
 10
4.600370
 20
1.205375
 30
0.0
 10
4.594252
 20
1.191209
 30
0.0
 10
4.581078
 20
1.162876
 30
0.0
 10
4.566746
 20
1.134875
 30
0.0
 10
4.551312
 20
1.107093
 30
0.0
 10
4.534940
 20
1.079477
 30
0.0
 10
4.517521
 20
1.052027
 30
0.0
 10
4.499276
 20
1.024907
 30
0.0
 10
4.480096
 20
0.997898
 30
0.0
 10
4.465158
 20
0.977833
 30
0.0
 10
4.259333
 20
1.021545
 30
0.0
 10
4.253931
 20
1.045964
 30
0.0
 10
4.247316
 20
1.078430
 30
0.0
 10
4.241694
 20
1.110787
 30
0.0
 10
4.236953
 20
1.142867
 30
0.0
 10
4.233205
 20
1.174727
 30
0.0
 10
4.230439
 20
1.206422
 30
0.0
 10
4.228718
 20
1.237787
 30
0.0
 10
4.228068
 20
1.269040
 30
0.0
 10
4.228407
 20
1.284419
 30
0.0
 10
4.228859
 20
1.299853
 30
0.0
 10
4.229734
 20
1.315067
 30
0.0
 10
4.230354
 20
1.322674
 30
0.0
 10
4.231004
 20
1.330280
 30
0.0
 10
4.231709
 20
1.337722
 30
0.0
 10
4.056587
 20
1.394607
 30
0.0
 10
4.052839
 20
1.388103
 30
0.0
 10
4.048981
 20
1.381599
 30
0.0
 10
4.044957
 20
1.375150
 30
0.0
 10
4.036744
 20
1.362251
 30
0.0
 10
4.028145
 20
1.349518
 30
0.0
 10
4.019105
 20
1.336950
 30
0.0
 10
4.000420
 20
1.312035
 30
0.0
 10
3.980520
 20
1.287616
 30
0.0
 10
3.959684
 20
1.263583
 30
0.0
 10
3.937910
 20
1.240047
 30
0.0
 10
3.915146
 20
1.216785
 30
0.0
 10
3.891609
 20
1.194020
 30
0.0
 10
3.867244
 20
1.171641
 30
0.0
 10
3.848448
 20
1.155049
 30
0.0
 10
3.656295
 20
1.240598
 30
0.0
 10
3.656012
 20
1.265623
 30
0.0
 10
3.656408
 20
1.298751
 30
0.0
 10
3.657565
 20
1.331493
 30
0.0
 10
3.659597
 20
1.363905
 30
0.0
 10
3.662574
 20
1.395875
 30
0.0
 10
3.666486
 20
1.427460
 30
0.0
 10
3.671337
 20
1.458548
 30
0.0
 10
3.677236
 20
1.489196
 30
0.0
 10
3.680597
 20
1.504189
 30
0.0
 10
3.684291
 20
1.519127
 30
0.0
 10
3.688259
 20
1.533844
 30
0.0
 10
3.690404
 20
1.541231
 30
0.0
 10
3.692718
 20
1.548506
 30
0.0
 10
3.695032
 20
1.555672
 30
0.0
 10
3.535566
 20
1.647725
 30
0.0
 10
3.530494
 20
1.642103
 30
0.0
 10
3.525366
 20
1.636481
 30
0.0
 10
3.520021
 20
1.630968
 30
0.0
 10
3.509271
 20
1.620109
 30
0.0
 10
3.498247
 20
1.609416
 30
0.0
 10
3.486894
 20
1.598998
 30
0.0
 10
3.463356
 20
1.578603
 30
0.0
 10
3.438825
 20
1.558869
 30
0.0
 10
3.413414
 20
1.539687
 30
0.0
 10
3.387289
 20
1.521166
 30
0.0
 10
3.360224
 20
1.503142
 30
0.0
 10
3.332442
 20
1.485778
 30
0.0
 10
3.303943
 20
1.468911
 30
0.0
 10
3.282116
 20
1.456619
 30
0.0
 10
3.111956
 20
1.580256
 30
0.0
 10
3.116807
 20
1.604786
 30
0.0
 10
3.124083
 20
1.637142
 30
0.0
 10
3.132019
 20
1.668947
 30
0.0
 10
3.140838
 20
1.700146
 30
0.0
 10
3.150321
 20
1.730849
 30
0.0
 10
3.160738
 20
1.760890
 30
0.0
 10
3.171984
 20
1.790380
 30
0.0
 10
3.184055
 20
1.819043
 30
0.0
 10
3.190560
 20
1.833099
 30
0.0
 10
3.197229
 20
1.846879
 30
0.0
 10
3.204228
 20
1.860494
 30
0.0
 10
3.207812
 20
1.867219
 30
0.0
 10
3.211614
 20
1.873779
 30
0.0
 10
3.215365
 20
1.880393
 30
0.0
 10
3.078552
 20
2.003535
 30
0.0
 10
3.072323
 20
1.999070
 30
0.0
 10
3.066151
 20
1.994715
 30
0.0
 10
3.059919
 20
1.990471
 30
0.0
 10
3.047132
 20
1.982037
 30
0.0
 10
3.034068
 20
1.973879
 30
0.0
 10
3.020784
 20
1.966052
 30
0.0
 10
2.993445
 20
1.951004
 30
0.0
 10
2.965443
 20
1.936783
 30
0.0
 10
2.936560
 20
1.923333
 30
0.0
 10
2.907124
 20
1.910600
 30
0.0
 10
2.876972
 20
1.898694
 30
0.0
 10
2.846159
 20
1.887339
 30
0.0
 10
2.814742
 20
1.876811
 30
0.0
 10
2.790818
 20
1.869314
 30
0.0
 10
2.650147
 20
2.025749
 30
0.0
 10
2.660013
 20
2.048734
 30
0.0
 10
2.673851
 20
2.078776
 30
0.0
 10
2.688182
 20
2.108210
 30
0.0
 10
2.703340
 20
2.136984
 30
0.0
 10
2.719049
 20
2.164986
 30
0.0
 10
2.735420
 20
2.192216
 30
0.0
 10
2.752452
 20
2.218674
 30
0.0
 10
2.770311
 20
2.244251
 30
0.0
 10
2.779518
 20
2.256543
 30
0.0
 10
2.788997
 20
2.268780
 30
0.0
 10
2.798700
 20
2.280576
 30
0.0
 10
2.803605
 20
2.286419
 30
0.0
 10
2.808567
 20
2.292151
 30
0.0
 10
2.813582
 20
2.297773
 30
0.0
 10
2.705434
 20
2.446712
 30
0.0
 10
2.698489
 20
2.443570
 30
0.0
 10
2.691490
 20
2.440593
 30
0.0
 10
2.684544
 20
2.437672
 30
0.0
 10
2.670213
 20
2.432160
 30
0.0
 10
2.655769
 20
2.426923
 30
0.0
 10
2.641107
 20
2.421962
 30
0.0
 10
2.611341
 20
2.412977
 30
0.0
 10
2.580915
 20
2.404820
 30
0.0
 10
2.549935
 20
2.397654
 30
0.0
 10
2.518408
 20
2.391370
 30
0.0
 10
2.486435
 20
2.385913
 30
0.0
 10
2.453969
 20
2.381393
 30
0.0
 10
2.421118
 20
2.377479
 30
0.0
 10
2.396147
 20
2.375165
 30
0.0
 10
2.290977
 20
2.557342
 30
0.0
 10
2.305418
 20
2.577792
 30
0.0
 10
2.325205
 20
2.604360
 30
0.0
 10
2.345434
 20
2.630212
 30
0.0
 10
2.366107
 20
2.655238
 30
0.0
 10
2.387327
 20
2.679381
 30
0.0
 10
2.409047
 20
2.702642
 30
0.0
 10
2.431205
 20
2.724911
 30
0.0
 10
2.453969
 20
2.746133
 30
0.0
 10
2.465602
 20
2.756385
 30
0.0
 10
2.477342
 20
2.766307
 30
0.0
 10
2.489246
 20
2.775788
 30
0.0
 10
2.495255
 20
2.780418
 30
0.0
 10
2.501373
 20
2.784993
 30
0.0
 10
2.507492
 20
2.789459
 30
0.0
 10
2.432582
 20
2.957689
 30
0.0
 10
2.425196
 20
2.956145
 30
0.0
 10
2.417754
 20
2.954658
 30
0.0
 10
2.410314
 20
2.953335
 30
0.0
 10
2.395156
 20
2.950800
 30
0.0
 10
2.379942
 20
2.948650
 30
0.0
 10
2.364617
 20
2.946942
 30
0.0
 10
2.333530
 20
2.944188
 30
0.0
 10
2.302164
 20
2.942644
 30
0.0
 10
2.270360
 20
2.942094
 30
0.0
 10
2.238170
 20
2.942480
 30
0.0
 10
2.205813
 20
2.943804
 30
0.0
 10
2.173070
 20
2.946064
 30
0.0
 10
2.140109
 20
2.949151
 30
0.0
 10
2.115302
 20
2.952073
 30
0.0
 10
2.050261
 20
3.152164
 30
0.0
 10
2.068670
 20
3.169141
 30
0.0
 10
2.093531
 20
3.191025
 30
0.0
 10
2.118720
 20
3.212081
 30
0.0
 10
2.144077
 20
3.232201
 30
0.0
 10
2.169872
 20
3.251383
 30
0.0
 10
2.195947
 20
3.269628
 30
0.0
 10
2.222295
 20
3.286881
 30
0.0
 10
2.248917
 20
3.302866
 30
0.0
 10
2.262421
 20
3.310528
 30
0.0
 10
2.275982
 20
3.317694
 30
0.0
 10
2.289653
 20
3.324584
 30
0.0
 10
2.296542
 20
3.327836
 30
0.0
 10
2.303378
 20
3.331033
 30
0.0
 10
2.310269
 20
3.334175
 30
0.0
 10
2.272014
 20
3.514202
 30
0.0
 10
2.264462
 20
3.514202
 30
0.0
 10
2.256910
 20
3.514428
 30
0.0
 10
2.249247
 20
3.514597
 30
0.0
 10
2.234036
 20
3.515258
 30
0.0
 10
2.218601
 20
3.516415
 30
0.0
 10
2.203276
 20
3.517902
 30
0.0
 10
2.172410
 20
3.521651
 30
0.0
 10
2.141266
 20
3.526611
 30
0.0
 10
2.110067
 20
3.532730
 30
0.0
 10
2.078703
 20
3.539785
 30
0.0
 10
2.047283
 20
3.547833
 30
0.0
 10
2.015810
 20
3.556873
 30
0.0
 10
1.984224
 20
3.566740
 30
0.0
 10
1.960466
 20
3.574788
 30
0.0
 10
1.938473
 20
3.783974
 30
0.0
 10
1.959970
 20
3.796707
 30
0.0
 10
1.988855
 20
3.812968
 30
0.0
 10
2.017848
 20
3.828291
 30
0.0
 10
2.046897
 20
3.842733
 30
0.0
 10
2.076056
 20
3.856183
 30
0.0
 10
2.105325
 20
3.868585
 30
0.0
 10
2.134705
 20
3.879940
 30
0.0
 10
2.164140
 20
3.890083
 30
0.0
 10
2.178858
 20
3.894658
 30
0.0
 10
2.193630
 20
3.898902
 30
0.0
 10
2.208458
 20
3.902871
 30
0.0
 10
2.215790
 20
3.904635
 30
0.0
 10
2.223286
 20
3.906399
 30
0.0
 10
2.230618
 20
3.907942
 30
0.0
 10
2.230618
 20
4.092048
 30
0.0
 10
2.223286
 20
4.093592
 30
0.0
 10
2.215790
 20
4.095246
 30
0.0
 10
2.208458
 20
4.097066
 30
0.0
 10
2.193630
 20
4.100980
 30
0.0
 10
2.178858
 20
4.105224
 30
0.0
 10
2.164140
 20
4.109909
 30
0.0
 10
2.134705
 20
4.120052
 30
0.0
 10
2.105325
 20
4.131407
 30
0.0
 10
2.076056
 20
4.143809
 30
0.0
 10
2.046897
 20
4.157148
 30
0.0
 10
2.017848
 20
4.171590
 30
0.0
 10
1.988855
 20
4.187024
 30
0.0
 10
1.959970
 20
4.203230
 30
0.0
 10
1.938473
 20
4.216018
 30
0.0
 10
1.960466
 20
4.425204
 30
0.0
 10
1.984224
 20
4.433252
 30
0.0
 10
2.015810
 20
4.443119
 30
0.0
 10
2.047283
 20
4.452049
 30
0.0
 10
2.078703
 20
4.460207
 30
0.0
 10
2.110067
 20
4.467262
 30
0.0
 10
2.141266
 20
4.473271
 30
0.0
 10
2.172410
 20
4.478342
 30
0.0
 10
2.203276
 20
4.482090
 30
0.0
 10
2.218601
 20
4.483524
 30
0.0
 10
2.234036
 20
4.484627
 30
0.0
 10
2.249247
 20
4.485398
 30
0.0
 10
2.256910
 20
4.485567
 30
0.0
 10
2.264462
 20
4.485680
 30
0.0
 10
2.272014
 20
4.485680
 30
0.0
 10
2.310269
 20
4.665817
 30
0.0
 10
2.303378
 20
4.668849
 30
0.0
 10
2.296542
 20
4.672046
 30
0.0
 10
2.289653
 20
4.675353
 30
0.0
 10
2.275982
 20
4.682188
 30
0.0
 10
2.262421
 20
4.689464
 30
0.0
 10
2.248917
 20
4.697016
 30
0.0
 10
2.222295
 20
4.713111
 30
0.0
 10
2.195947
 20
4.730254
 30
0.0
 10
2.169872
 20
4.748609
 30
0.0
 10
2.144077
 20
4.767792
 30
0.0
 10
2.118720
 20
4.787911
 30
0.0
 10
2.093531
 20
4.808968
 30
0.0
 10
2.068670
 20
4.830851
 30
0.0
 10
2.050261
 20
4.847828
 30
0.0
 10
2.115302
 20
5.047809
 30
0.0
 10
2.140109
 20
5.050731
 30
0.0
 10
2.173070
 20
5.053818
 30
0.0
 10
2.205813
 20
5.056188
 30
0.0
 10
2.238170
 20
5.057402
 30
0.0
 10
2.270360
 20
5.057898
 30
0.0
 10
2.302164
 20
5.057348
 30
0.0
 10
2.333530
 20
5.055694
 30
0.0
 10
2.364617
 20
5.053050
 30
0.0
 10
2.379942
 20
5.051230
 30
0.0
 10
2.395156
 20
5.049079
 30
0.0
 10
2.410314
 20
5.046655
 30
0.0
 10
2.417754
 20
5.045331
 30
0.0
 10
2.425196
 20
5.043844
 30
0.0
 10
2.432582
 20
5.042190
 30
0.0
 10
2.507492
 20
5.210421
 30
0.0
 10
2.501373
 20
5.214886
 30
0.0
 10
2.495255
 20
5.219461
 30
0.0
 10
2.489246
 20
5.224091
 30
0.0
 10
2.477342
 20
5.233682
 30
0.0
 10
2.465602
 20
5.243604
 30
0.0
 10
2.453969
 20
5.253746
 30
0.0
 10
2.431205
 20
5.275078
 30
0.0
 10
2.409047
 20
5.297347
 30
0.0
 10
2.387327
 20
5.320609
 30
0.0
 10
2.366107
 20
5.344752
 30
0.0
 10
2.345434
 20
5.369777
 30
0.0
 10
2.325205
 20
5.395519
 30
0.0
 10
2.305418
 20
5.422088
 30
0.0
 10
2.290977
 20
5.442538
 30
0.0
 10
2.396147
 20
5.624714
 30
0.0
 10
2.421118
 20
5.622400
 30
0.0
 10
2.453969
 20
5.618597
 30
0.0
 10
2.486435
 20
5.613966
 30
0.0
 10
2.518408
 20
5.608509
 30
0.0
 10
2.549935
 20
5.602226
 30
0.0
 10
2.580915
 20
5.595170
 30
0.0
 10
2.611341
 20
5.587012
 30
0.0
 10
2.641107
 20
5.577917
 30
0.0
 10
2.655769
 20
5.572956
 30
0.0
 10
2.670213
 20
5.567719
 30
0.0
 10
2.684544
 20
5.562207
 30
0.0
 10
2.691490
 20
5.559286
 30
0.0
 10
2.698489
 20
5.556364
 30
0.0
 10
2.705434
 20
5.553277
 30
0.0
 10
2.813582
 20
5.702216
 30
0.0
 10
2.808567
 20
5.707838
 30
0.0
 10
2.803605
 20
5.713571
 30
0.0
 10
2.798700
 20
5.719359
 30
0.0
 10
2.788997
 20
5.731210
 30
0.0
 10
2.779518
 20
5.743337
 30
0.0
 10
2.770311
 20
5.755739
 30
0.0
 10
2.752452
 20
5.781315
 30
0.0
 10
2.735420
 20
5.807664
 30
0.0
 10
2.719049
 20
5.835004
 30
0.0
 10
2.703340
 20
5.863005
 30
0.0
 10
2.688182
 20
5.891669
 30
0.0
 10
2.673851
 20
5.921159
 30
0.0
 10
2.660013
 20
5.951255
 30
0.0
 10
2.650147
 20
5.974241
 30
0.0
 10
2.790818
 20
6.130565
 30
0.0
 10
2.814742
 20
6.123069
 30
0.0
 10
2.846159
 20
6.112541
 30
0.0
 10
2.876972
 20
6.101296
 30
0.0
 10
2.907124
 20
6.089390
 30
0.0
 10
2.936560
 20
6.076657
 30
0.0
 10
2.965443
 20
6.063207
 30
0.0
 10
2.993445
 20
6.048930
 30
0.0
 10
3.020784
 20
6.033827
 30
0.0
 10
3.034068
 20
6.026000
 30
0.0
 10
3.047132
 20
6.017842
 30
0.0
 10
3.059919
 20
6.009518
 30
0.0
 10
3.066151
 20
6.005164
 30
0.0
 10
3.072323
 20
6.000809
 30
0.0
 10
3.078552
 20
5.996344
 30
0.0
 10
3.215365
 20
6.119596
 30
0.0
 10
3.211614
 20
6.126101
 30
0.0
 10
3.207812
 20
6.132770
 30
0.0
 10
3.204228
 20
6.139440
 30
0.0
 10
3.197229
 20
6.153055
 30
0.0
 10
3.190560
 20
6.166890
 30
0.0
 10
3.184055
 20
6.180946
 30
0.0
 10
3.171984
 20
6.209610
 30
0.0
 10
3.160738
 20
6.238989
 30
0.0
 10
3.150321
 20
6.269141
 30
0.0
 10
3.140838
 20
6.299733
 30
0.0
 10
3.132019
 20
6.331042
 30
0.0
 10
3.124083
 20
6.362847
 30
0.0
 10
3.116807
 20
6.395094
 30
0.0
 10
3.111956
 20
6.419623
 30
0.0
 10
3.282116
 20
6.543371
 30
0.0
 10
3.303943
 20
6.531078
 30
0.0
 10
3.332442
 20
6.514211
 30
0.0
 10
3.360224
 20
6.496738
 30
0.0
 10
3.387289
 20
6.478823
 30
0.0
 10
3.413414
 20
6.460192
 30
0.0
 10
3.438825
 20
6.441120
 30
0.0
 10
3.463356
 20
6.421387
 30
0.0
 10
3.486894
 20
6.400936
 30
0.0
 10
3.498247
 20
6.390463
 30
0.0
 10
3.509271
 20
6.379770
 30
0.0
 10
3.520021
 20
6.368911
 30
0.0
 10
3.525366
 20
6.363399
 30
0.0
 10
3.530494
 20
6.357887
 30
0.0
 10
3.535566
 20
6.352264
 30
0.0
 10
3.695032
 20
6.444317
 30
0.0
 10
3.692718
 20
6.451483
 30
0.0
 10
3.690404
 20
6.458759
 30
0.0
 10
3.688259
 20
6.466035
 30
0.0
 10
3.684291
 20
6.480863
 30
0.0
 10
3.680597
 20
6.495801
 30
0.0
 10
3.677236
 20
6.510794
 30
0.0
 10
3.671337
 20
6.541441
 30
0.0
 10
3.666486
 20
6.572530
 30
0.0
 10
3.662574
 20
6.604004
 30
0.0
 10
3.659597
 20
6.636030
 30
0.0
 10
3.657565
 20
6.668441
 30
0.0
 10
3.656408
 20
6.701238
 30
0.0
 10
3.656012
 20
6.734256
 30
0.0
 10
3.656295
 20
6.759337
 30
0.0
 10
3.848448
 20
6.844940
 30
0.0
 10
3.867244
 20
6.828349
 30
0.0
 10
3.891609
 20
6.805969
 30
0.0
 10
3.915146
 20
6.783094
 30
0.0
 10
3.937910
 20
6.759943
 30
0.0
 10
3.959684
 20
6.736296
 30
0.0
 10
3.980520
 20
6.712373
 30
0.0
 10
4.000420
 20
6.687954
 30
0.0
 10
4.019105
 20
6.663039
 30
0.0
 10
4.028145
 20
6.650416
 30
0.0
 10
4.036744
 20
6.637738
 30
0.0
 10
4.044957
 20
6.624840
 30
0.0
 10
4.048981
 20
6.618391
 30
0.0
 10
4.052839
 20
6.611887
 30
0.0
 10
4.056587
 20
6.605272
 30
0.0
 10
4.231709
 20
6.662157
 30
0.0
 10
4.231004
 20
6.669709
 30
0.0
 10
4.230354
 20
6.677261
 30
0.0
 10
4.229734
 20
6.684868
 30
0.0
 10
4.228859
 20
6.700136
 30
0.0
 10
4.228407
 20
6.715460
 30
0.0
 10
4.228068
 20
6.730949
 30
0.0
 10
4.228718
 20
6.762093
 30
0.0
 10
4.230439
 20
6.793567
 30
0.0
 10
4.233205
 20
6.825262
 30
0.0
 10
4.236953
 20
6.857122
 30
0.0
 10
4.241694
 20
6.889203
 30
0.0
 10
4.247316
 20
6.921504
 30
0.0
 10
4.253931
 20
6.953971
 30
0.0
 10
4.259333
 20
6.978390
 30
0.0
 10
4.465158
 20
7.022156
 30
0.0
 10
4.480096
 20
7.002037
 30
0.0
 10
4.499276
 20
6.975082
 30
0.0
 10
4.517521
 20
6.947852
 30
0.0
 10
4.534940
 20
6.920402
 30
0.0
 10
4.551312
 20
6.892786
 30
0.0
 10
4.566746
 20
6.865005
 30
0.0
 10
4.581078
 20
6.837003
 30
0.0
 10
4.594252
 20
6.808781
 30
0.0
 10
4.600370
 20
6.794614
 30
0.0
 10
4.606159
 20
6.780393
 30
0.0
 10
4.611614
 20
6.766061
 30
0.0
 10
4.614098
 20
6.758896
 30
0.0
 10
4.616638
 20
6.751730
 30
0.0
 10
4.618952
 20
6.744509
 30
0.0
 10
4.802010
 20
6.763746
 30
0.0
 10
4.802885
 20
6.771298
 30
0.0
 10
4.803760
 20
6.778850
 30
0.0
 10
4.804691
 20
6.786401
 30
0.0
 10
4.807062
 20
6.801505
 30
0.0
 10
4.809771
 20
6.816608
 30
0.0
 10
4.812858
 20
6.831766
 30
0.0
 10
4.819857
 20
6.862083
 30
0.0
 10
4.828070
 20
6.892510
 30
0.0
 10
4.837386
 20
6.922937
 30
0.0
 10
4.847639
 20
6.953364
 30
0.0
 10
4.858993
 20
6.983681
 30
0.0
 10
4.871177
 20
7.014108
 30
0.0
 10
4.884351
 20
7.044535
 30
0.0
 10
4.894768
 20
7.067301
 30
0.0
 10
4.894768
 20
7.067301
 30
0.0
  0
LWPOLYLINE
  5
102
100
AcDbEntity
  8
Layer_1
 62
7
100
AcDbPolyline
 90
8
 70
1
 10
10.000001
 20
8.000001
 30
0.0
 10
10.000001
 20
6.999987
 30
0.0
 10
9.971668
 20
6.999987
 30
0.0
 10
9.971668
 20
7.971616
 30
0.0
 10
8.999986
 20
7.971616
 30
0.0
 10
8.999986
 20
8.000001
 30
0.0
 10
10.000001
 20
8.000001
 30
0.0
 10
10.000001
 20
8.000001
 30
0.0
  0
LWPOLYLINE
  5
103
100
AcDbEntity
  8
Layer_1
 62
7
100
AcDbPolyline
 90
9
 70
1
 10
1.000015
 20
8.000001
 30
0.0
 10
1.000015
 20
7.971616
 30
0.0
 10
0.028332
 20
7.971616
 30
0.0
 10
0.028332
 20
6.999987
 30
0.0
 10
-0.000000
 20
6.999987
 30
0.0
 10
-0.000000
 20
7.985780
 30
0.0
 10
-0.000000
 20
8.000001
 30
0.0
 10
1.000015
 20
8.000001
 30
0.0
 10
1.000015
 20
8.000001
 30
0.0
  0
LWPOLYLINE
  5
104
100
AcDbEntity
  8
Layer_1
 62
7
100
AcDbPolyline
 90
8
 70
1
 10
9.999992
 20
0.799979
 30
0.0
 10
9.999992
 20
0.000000
 30
0.0
 10
8.999977
 20
0.000000
 30
0.0
 10
8.999977
 20
0.028333
 30
0.0
 10
9.971660
 20
0.028333
 30
0.0
 10
9.971660
 20
0.799979
 30
0.0
 10
9.999992
 20
0.799979
 30
0.0
 10
9.999992
 20
0.799979
 30
0.0
  0
LWPOLYLINE
  5
105
100
AcDbEntity
  8
Layer_1
 62
7
100
AcDbPolyline
 90
8
 70
1
 10
0.028332
 20
0.799979
 30
0.0
 10
0.028332
 20
0.028333
 30
0.0
 10
1.000015
 20
0.028333
 30
0.0
 10
1.000015
 20
0.000000
 30
0.0
 10
-0.000000
 20
0.000000
 30
0.0
 10
-0.000000
 20
0.799979
 30
0.0
 10
0.028332
 20
0.799979
 30
0.0
 10
0.028332
 20
0.799979
 30
0.0
  0
ENDSEC
  0
SECTION
  2
OBJECTS
  0
DICTIONARY
  5
C
330
0
100
AcDbDictionary
  3
ACAD_GROUP
350
D
  3
ACAD_MLINESTYLE
350
17
  0
DICTIONARY
  5
D
330
C
100
AcDbDictionary
  0
DICTIONARY
  5
1A
330
C
100
AcDbDictionary
  0
DICTIONARY
  5
17
330
C
100
AcDbDictionary
  3
STANDARD
350
18
  0
DICTIONARY
  5
19
330
C
100
AcDbDictionary
  0
ENDSEC
  0
EOF
