  0
SECTION
  2
HEADER
  9
$ACADVER
  1
AC1014
  9
$HANDSEED
  5
FFFF
  9
$MEASUREMENT
 70
     1
  0
ENDSEC
  0
SECTION
  2
TABLES
  0
TABLE
  2
VPORT
  5
8
330
0
100
AcDbSymbolTable
 70
     4
  0
VPORT
  5
2E
330
8
100
AcDbSymbolTableRecord
100
AcDbViewportTableRecord
  2
*ACTIVE
 70
     0
 10
0.0
 20
0.0
 11
1.0
 21
1.0
 12
210.0
 22
148.5
 13
0.0
 23
0.0
 14
10.0
 24
10.0
 15
10.0
 25
10.0
 16
0.0
 26
0.0
 36
1.0
 17
0.0
 27
0.0
 37
0.0
 40
341.0
 41
1.24
 42
50.0
 43
0.0
 44
0.0
 50
0.0
 51
0.0
 71
     0
 72
   100
 73
     1
 74
     3
 75
     0
 76
     0
 77
     0
 78
     0
  0
ENDTAB
  0
TABLE
  2
LTYPE
  5
5
330
0
100
AcDbSymbolTable
 70
     1
  0
LTYPE
  5
14
330
5
100
AcDbSymbolTableRecord
100
AcDbLinetypeTableRecord
  2
BYBLOCK
 70
     0
  3

 72
    65
 73
     0
 40
0.0
  0
LTYPE
  5
15
330
5
100
AcDbSymbolTableRecord
100
AcDbLinetypeTableRecord
  2
BYLAYER
 70
     0
  3

 72
    65
 73
     0
 40
0.0
  0
LTYPE
  5
16
330
5
100
AcDbSymbolTableRecord
100
AcDbLinetypeTableRecord
  2
CONTINUOUS
 70
     0
  3
Solid line
 72
    65
 73
     0
 40
0.0
  0
ENDTAB
  0
TABLE
  2
LAYER
  5
2
100
AcDbSymbolTable
 70
2
  0
LAYER
  5
50
100
AcDbSymbolTableRecord
100
AcDbLayerTableRecord
  2
0
 70
0
  6
CONTINUOUS
  0
LAYER
  5
51
100
AcDbSymbolTableRecord
100
AcDbLayerTableRecord
  2
Layer_1
 70
0
  6
CONTINUOUS
  0
ENDTAB
  0
TABLE
  2
STYLE
  5
3
330
0
100
AcDbSymbolTable
 70
     1
  0
STYLE
  5
11
330
3
100
AcDbSymbolTableRecord
100
AcDbTextStyleTableRecord
  2
STANDARD
 70
     0
 40
0.0
 41
1.0
 50
0.0
 71
     0
 42
2.5
  3
txt
  4

  0
ENDTAB
  0
TABLE
  2
VIEW
  5
6
330
0
100
AcDbSymbolTable
 70
     0
  0
ENDTAB
  0
TABLE
  2
UCS
  5
7
330
0
100
AcDbSymbolTable
 70
     0
  0
ENDTAB
  0
TABLE
  2
APPID
  5
9
330
0
100
AcDbSymbolTable
 70
     2
  0
APPID
  5
12
330
9
100
AcDbSymbolTableRecord
100
AcDbRegAppTableRecord
  2
ACAD
 70
     0
  0
ENDTAB
  0
TABLE
  2
DIMSTYLE
  5
A
330
0
100
AcDbSymbolTable
 70
     1
  0
DIMSTYLE
105
27
330
A
100
AcDbSymbolTableRecord
100
AcDbDimStyleTableRecord
  2
ISO-25
 70
     0
  3

  4

  5

  6

  7

 40
1.0
 41
2.5
 42
0.625
 43
3.75
 44
1.25
 45
0.0
 46
0.0
 47
0.0
 48
0.0
140
2.5
141
2.5
142
0.0
143
0.03937007874016
144
1.0
145
0.0
146
1.0
147
0.625
 71
     0
 72
     0
 73
     0
 74
     0
 75
     0
 76
     0
 77
     1
 78
     8
170
     0
171
     3
172
     1
173
     0
174
     0
175
     0
176
     0
177
     0
178
     0
270
     2
271
     2
272
     2
273
     2
274
     3
340
11
275
     0
280
     0
281
     0
282
     0
283
     0
284
     8
285
     0
286
     0
287
     3
288
     0
  0
ENDTAB
  0
TABLE
  2
BLOCK_RECORD
  5
1
330
0
100
AcDbSymbolTable
 70
     1
  0
BLOCK_RECORD
  5
1F
330
1
100
AcDbSymbolTableRecord
100
AcDbBlockTableRecord
  2
*MODEL_SPACE
  0
BLOCK_RECORD
  5
1B
330
1
100
AcDbSymbolTableRecord
100
AcDbBlockTableRecord
  2
*PAPER_SPACE
  0
ENDTAB
  0
ENDSEC
  0
SECTION
  2
BLOCKS
  0
BLOCK
  5
20
330
1F
100
AcDbEntity
  8
0
100
AcDbBlockBegin
  2
*MODEL_SPACE
 70
     0
 10
0.0
 20
0.0
 30
0.0
  3
*MODEL_SPACE
  1

  0
ENDBLK
  5
21
330
1F
100
AcDbEntity
  8
0
100
AcDbBlockEnd
  0
BLOCK
  5
1C
330
1B
100
AcDbEntity
 67
     1
  8
0
100
AcDbBlockBegin
  2
*PAPER_SPACE
  1

  0
ENDBLK
  5
1D
330
1B
100
AcDbEntity
 67
     1
  8
0
100
AcDbBlockEnd
  0
ENDSEC
  0
SECTION
  2
ENTITIES
  0
LWPOLYLINE
  5
100
100
AcDbEntity
  8
Layer_1
 62
7
100
AcDbPolyline
 90
495
 70
0
 10
4.999649
 20
7.245508
 30
0.0
 10
4.943478
 20
7.242686
 30
0.0
 10
4.913879
 20
7.241190
 30
0.0
 10
4.913597
 20
7.241190
 30
0.0
 10
4.820497
 20
7.240146
 30
0.0
 10
4.790124
 20
7.237061
 30
0.0
 10
4.714057
 20
7.231217
 30
0.0
 10
4.689529
 20
7.230003
 30
0.0
 10
4.675858
 20
7.229298
 30
0.0
 10
4.675576
 20
7.229298
 30
0.0
 10
4.591019
 20
7.216507
 30
0.0
 10
4.536943
 20
7.210942
 30
0.0
 10
4.505910
 20
7.207688
 30
0.0
 10
4.505627
 20
7.207688
 30
0.0
 10
4.467979
 20
7.199915
 30
0.0
 10
4.467697
 20
7.199915
 30
0.0
 10
4.441622
 20
7.196664
 30
0.0
 10
4.392950
 20
7.186631
 30
0.0
 10
4.392668
 20
7.186631
 30
0.0
 10
4.368578
 20
7.182993
 30
0.0
 10
4.327734
 20
7.173954
 30
0.0
 10
4.327452
 20
7.173954
 30
0.0
 10
4.272551
 20
7.159953
 30
0.0
 10
4.272269
 20
7.159953
 30
0.0
 10
4.151388
 20
7.131127
 30
0.0
 10
4.151106
 20
7.131127
 30
0.0
 10
4.148566
 20
7.130506
 30
0.0
 10
4.148227
 20
7.130506
 30
0.0
 10
4.077341
 20
7.110276
 30
0.0
 10
4.062900
 20
7.106528
 30
0.0
 10
4.062561
 20
7.106528
 30
0.0
 10
4.040788
 20
7.100963
 30
0.0
 10
4.040449
 20
7.100963
 30
0.0
 10
3.960634
 20
7.071801
 30
0.0
 10
3.960352
 20
7.071801
 30
0.0
 10
3.960069
 20
7.071801
 30
0.0
 10
3.878377
 20
7.046226
 30
0.0
 10
3.878095
 20
7.046226
 30
0.0
 10
3.842764
 20
7.031234
 30
0.0
 10
3.771381
 20
7.002955
 30
0.0
 10
3.664941
 20
6.955771
 30
0.0
 10
3.659099
 20
6.952948
 30
0.0
 10
3.579724
 20
6.919104
 30
0.0
 10
3.553926
 20
6.905433
 30
0.0
 10
3.423125
 20
7.131874
 30
0.0
 10
3.390175
 20
7.174455
 30
0.0
 10
3.347864
 20
7.206244
 30
0.0
 10
3.298699
 20
7.225832
 30
0.0
 10
3.245192
 20
7.231809
 30
0.0
 10
3.186320
 20
7.221446
 30
0.0
 10
3.186038
 20
7.221446
 30
0.0
 10
3.167739
 20
7.214281
 30
0.0
 10
3.149933
 20
7.205187
 30
0.0
 10
3.149651
 20
7.205187
 30
0.0
 10
3.090100
 20
7.152654
 30
0.0
 10
3.056480
 20
7.083754
 30
0.0
 10
3.051145
 20
7.007276
 30
0.0
 10
3.076451
 20
6.932005
 30
0.0
 10
3.207749
 20
6.704573
 30
0.0
 10
3.199757
 20
6.699612
 30
0.0
 10
3.167016
 20
6.679548
 30
0.0
 10
3.136644
 20
6.656451
 30
0.0
 10
3.136361
 20
6.656169
 30
0.0
 10
3.044252
 20
6.587488
 30
0.0
 10
3.037527
 20
6.582139
 30
0.0
 10
3.001535
 20
6.556068
 30
0.0
 10
2.968075
 20
6.531870
 30
0.0
 10
2.963060
 20
6.527405
 30
0.0
 10
2.939246
 20
6.506295
 30
0.0
 10
2.909206
 20
6.483418
 30
0.0
 10
2.908924
 20
6.483136
 30
0.0
 10
2.881032
 20
6.457118
 30
0.0
 10
2.880693
 20
6.456836
 30
0.0
 10
2.850871
 20
6.433024
 30
0.0
 10
2.789688
 20
6.373272
 30
0.0
 10
2.725528
 20
6.316278
 30
0.0
 10
2.699730
 20
6.288275
 30
0.0
 10
2.646153
 20
6.233155
 30
0.0
 10
2.618867
 20
6.206476
 30
0.0
 10
2.588661
 20
6.170425
 30
0.0
 10
2.563634
 20
6.140549
 30
0.0
 10
2.553273
 20
6.129305
 30
0.0
 10
2.505758
 20
6.077712
 30
0.0
 10
2.482881
 20
6.047229
 30
0.0
 10
2.482599
 20
6.046947
 30
0.0
 10
2.457354
 20
6.018228
 30
0.0
 10
2.435524
 20
5.987692
 30
0.0
 10
2.362214
 20
5.886764
 30
0.0
 10
2.310841
 20
5.818359
 30
0.0
 10
2.285870
 20
5.778449
 30
0.0
 10
2.268672
 20
5.754418
 30
0.0
 10
2.249602
 20
5.721235
 30
0.0
 10
2.247683
 20
5.718412
 30
0.0
 10
2.228060
 20
5.689583
 30
0.0
 10
2.213839
 20
5.663455
 30
0.0
 10
2.189034
 20
5.623769
 30
0.0
 10
2.165994
 20
5.578789
 30
0.0
 10
2.149952
 20
5.547535
 30
0.0
 10
2.091414
 20
5.437734
 30
0.0
 10
2.073391
 20
5.404550
 30
0.0
 10
2.058453
 20
5.369052
 30
0.0
 10
2.041088
 20
5.335152
 30
0.0
 10
2.009504
 20
5.254730
 30
0.0
 10
1.962706
 20
5.140904
 30
0.0
 10
1.947878
 20
5.105516
 30
0.0
 10
1.936634
 20
5.068751
 30
0.0
 10
1.933160
 20
5.059875
 30
0.0
 10
1.922744
 20
5.033360
 30
0.0
 10
1.899426
 20
4.950347
 30
0.0
 10
1.864149
 20
4.831947
 30
0.0
 10
1.864149
 20
4.831664
 30
0.0
 10
1.859133
 20
4.815406
 30
0.0
 10
1.853015
 20
4.795396
 30
0.0
 10
1.845516
 20
4.757968
 30
0.0
 10
1.835156
 20
4.720980
 30
0.0
 10
1.820328
 20
4.636480
 30
0.0
 10
1.812335
 20
4.600815
 30
0.0
 10
1.801586
 20
4.553026
 30
0.0
 10
1.796954
 20
4.514938
 30
0.0
 10
1.789458
 20
4.477453
 30
0.0
 10
1.785767
 20
4.439751
 30
0.0
 10
1.779095
 20
4.401606
 30
0.0
 10
1.772813
 20
4.316555
 30
0.0
 10
1.760796
 20
4.184154
 30
0.0
 10
1.760796
 20
4.183279
 30
0.0
 10
1.758087
 20
4.116304
 30
0.0
 10
1.755264
 20
4.078049
 30
0.0
 10
1.755264
 20
4.075128
 30
0.0
 10
1.755913
 20
4.048450
 30
0.0
 10
1.754248
 20
4.001542
 30
0.0
 10
1.757071
 20
3.945374
 30
0.0
 10
1.758623
 20
3.916104
 30
0.0
 10
1.758623
 20
3.915596
 30
0.0
 10
1.758905
 20
3.830323
 30
0.0
 10
1.759667
 20
3.822494
 30
0.0
 10
1.762755
 20
3.792124
 30
0.0
 10
1.763799
 20
3.753925
 30
0.0
 10
1.768594
 20
3.716221
 30
0.0
 10
1.770513
 20
3.677745
 30
0.0
 10
1.783247
 20
3.593632
 30
0.0
 10
1.783247
 20
3.593293
 30
0.0
 10
1.783247
 20
3.592700
 30
0.0
 10
1.792010
 20
3.507757
 30
0.0
 10
1.799782
 20
3.469942
 30
0.0
 10
1.804577
 20
3.432240
 30
0.0
 10
1.813176
 20
3.394978
 30
0.0
 10
1.813176
 20
3.394696
 30
0.0
 10
1.818855
 20
3.356991
 30
0.0
 10
1.839801
 20
3.274972
 30
0.0
 10
1.868850
 20
3.153097
 30
0.0
 10
1.877337
 20
3.116275
 30
0.0
 10
1.887920
 20
3.085022
 30
0.0
 10
1.889642
 20
3.079897
 30
0.0
 10
1.899124
 20
3.042855
 30
0.0
 10
1.928227
 20
2.963204
 30
0.0
 10
1.928509
 20
2.962639
 30
0.0
 10
1.933031
 20
2.948198
 30
0.0
 10
1.954144
 20
2.880563
 30
0.0
 10
1.969245
 20
2.845012
 30
0.0
 10
1.981429
 20
2.809071
 30
0.0
 10
1.997301
 20
2.774180
 30
0.0
 10
1.997301
 20
2.773897
 30
0.0
 10
2.010311
 20
2.738233
 30
0.0
 10
2.047243
 20
2.661835
 30
0.0
 10
2.047582
 20
2.661440
 30
0.0
 10
2.081316
 20
2.582286
 30
0.0
 10
2.103419
 20
2.540669
 30
0.0
 10
2.103419
 20
2.540387
 30
0.0
 10
2.103419
 20
2.540105
 30
0.0
 10
2.115326
 20
2.513756
 30
0.0
 10
2.134729
 20
2.480463
 30
0.0
 10
2.151321
 20
2.446178
 30
0.0
 10
2.166699
 20
2.421043
 30
0.0
 10
2.166699
 20
2.420761
 30
0.0
 10
2.188693
 20
2.379308
 30
0.0
 10
2.235104
 20
2.307429
 30
0.0
 10
2.278211
 20
2.233292
 30
0.0
 10
2.300701
 20
2.202259
 30
0.0
 10
2.300983
 20
2.201977
 30
0.0
 10
2.320826
 20
2.169620
 30
0.0
 10
2.343867
 20
2.139357
 30
0.0
 10
2.344206
 20
2.139075
 30
0.0
 10
2.364986
 20
2.106995
 30
0.0
 10
2.418563
 20
2.039804
 30
0.0
 10
2.468669
 20
1.970569
 30
0.0
 10
2.494300
 20
1.941686
 30
0.0
 10
2.517287
 20
1.911480
 30
0.0
 10
2.543305
 20
1.883588
 30
0.0
 10
2.543587
 20
1.883306
 30
0.0
 10
2.567288
 20
1.853596
 30
0.0
 10
2.626930
 20
1.792520
 30
0.0
 10
2.684145
 20
1.728194
 30
0.0
 10
2.694565
 20
1.718601
 30
0.0
 10
2.712147
 20
1.702396
 30
0.0
 10
2.767105
 20
1.649039
 30
0.0
 10
2.793837
 20
1.621643
 30
0.0
 10
2.859874
 20
1.566356
 30
0.0
 10
2.860156
 20
1.566074
 30
0.0
 10
2.922663
 20
1.508472
 30
0.0
 10
2.953366
 20
1.485375
 30
0.0
 10
2.982028
 20
1.460184
 30
0.0
 10
2.992394
 20
1.452745
 30
0.0
 10
3.012954
 20
1.438027
 30
0.0
 10
3.042553
 20
1.413276
 30
0.0
 10
3.113549
 20
1.364990
 30
0.0
 10
3.181957
 20
1.313618
 30
0.0
 10
3.206539
 20
1.298293
 30
0.0
 10
3.076618
 20
1.073232
 30
0.0
 10
3.054460
 20
1.015907
 30
0.0
 10
3.051316
 20
0.998045
 30
0.0
 10
3.052256
 20
0.938662
 30
0.0
 10
3.070064
 20
0.883279
 30
0.0
 10
3.103042
 20
0.835353
 30
0.0
 10
3.149490
 20
0.798342
 30
0.0
 10
3.224761
 20
0.773037
 30
0.0
 10
3.301238
 20
0.778372
 30
0.0
 10
3.370137
 20
0.811991
 30
0.0
 10
3.422670
 20
0.871542
 30
0.0
 10
3.553971
 20
1.098920
 30
0.0
 10
3.562184
 20
1.094565
 30
0.0
 10
3.562579
 20
1.094283
 30
0.0
 10
3.595926
 20
1.076147
 30
0.0
 10
3.631094
 20
1.061429
 30
0.0
 10
3.631800
 20
1.061091
 30
0.0
 10
3.644037
 20
1.054806
 30
0.0
 10
3.665370
 20
1.043838
 30
0.0
 10
3.745792
 20
1.012252
 30
0.0
 10
3.859231
 20
0.965621
 30
0.0
 10
3.859626
 20
0.965621
 30
0.0
 10
3.895014
 20
0.950739
 30
0.0
 10
3.931616
 20
0.939549
 30
0.0
 10
3.931898
 20
0.939267
 30
0.0
 10
3.967452
 20
0.925319
 30
0.0
 10
4.050465
 20
0.902002
 30
0.0
 10
4.131274
 20
0.875160
 30
0.0
 10
4.168536
 20
0.866781
 30
0.0
 10
4.168818
 20
0.866781
 30
0.0
 10
4.205306
 20
0.855591
 30
0.0
 10
4.242681
 20
0.848148
 30
0.0
 10
4.243020
 20
0.848148
 30
0.0
 10
4.279785
 20
0.837842
 30
0.0
 10
4.364288
 20
0.823014
 30
0.0
 10
4.447741
 20
0.804271
 30
0.0
 10
4.485996
 20
0.799586
 30
0.0
 10
4.507106
 20
0.795398
 30
0.0
 10
4.523312
 20
0.792147
 30
0.0
 10
4.530313
 20
0.791498
 30
0.0
 10
4.560906
 20
0.788464
 30
0.0
 10
4.599159
 20
0.781795
 30
0.0
 10
4.684212
 20
0.775513
 30
0.0
 10
4.817221
 20
0.763496
 30
0.0
 10
4.817616
 20
0.763496
 30
0.0
 10
4.846168
 20
0.760730
 30
0.0
 10
4.883650
 20
0.760730
 30
0.0
 10
4.922566
 20
0.757863
 30
0.0
 10
4.925543
 20
0.757863
 30
0.0
 10
4.952165
 20
0.758568
 30
0.0
 10
4.999130
 20
0.756903
 30
0.0
 10
5.006572
 20
0.757298
 30
0.0
 10
5.084183
 20
0.761213
 30
0.0
 10
5.084522
 20
0.761213
 30
0.0
 10
5.085143
 20
0.761213
 30
0.0
 10
5.169313
 20
0.761495
 30
0.0
 10
5.178132
 20
0.762313
 30
0.0
 10
5.208615
 20
0.765454
 30
0.0
 10
5.209010
 20
0.765454
 30
0.0
 10
5.284696
 20
0.771243
 30
0.0
 10
5.408389
 20
0.786014
 30
0.0
 10
5.493276
 20
0.794780
 30
0.0
 10
5.527506
 20
0.801836
 30
0.0
 10
5.531034
 20
0.802541
 30
0.0
 10
5.531316
 20
0.802541
 30
0.0
 10
5.569018
 20
0.807336
 30
0.0
 10
5.606667
 20
0.815992
 30
0.0
 10
5.644205
 20
0.821667
 30
0.0
 10
5.726888
 20
0.842781
 30
0.0
 10
5.727396
 20
0.842781
 30
0.0
 10
5.847450
 20
0.871333
 30
0.0
 10
5.848325
 20
0.871615
 30
0.0
 10
5.917504
 20
0.891072
 30
0.0
 10
5.921305
 20
0.892342
 30
0.0
 10
5.958513
 20
0.901878
 30
0.0
 10
6.038605
 20
0.931094
 30
0.0
 10
6.155959
 20
0.971773
 30
0.0
 10
6.156297
 20
0.971773
 30
0.0
 10
6.227130
 20
0.999775
 30
0.0
 10
6.263288
 20
1.013003
 30
0.0
 10
6.340072
 20
1.050101
 30
0.0
 10
6.340693
 20
1.050383
 30
0.0
 10
6.419298
 20
1.083841
 30
0.0
 10
6.461134
 20
1.106054
 30
0.0
 10
6.461416
 20
1.106054
 30
0.0
 10
6.518027
 20
1.135600
 30
0.0
 10
6.520793
 20
1.137209
 30
0.0
 10
6.555354
 20
1.153967
 30
0.0
 10
6.579882
 20
1.169015
 30
0.0
 10
6.622162
 20
1.191449
 30
0.0
 10
6.693928
 20
1.237807
 30
0.0
 10
6.798881
 20
1.303181
 30
0.0
 10
6.831788
 20
1.323411
 30
0.0
 10
6.862491
 20
1.346728
 30
0.0
 10
6.894461
 20
1.367398
 30
0.0
 10
6.961379
 20
1.420755
 30
0.0
 10
6.961717
 20
1.421037
 30
0.0
 10
6.994184
 20
1.444518
 30
0.0
 10
7.031059
 20
1.471196
 30
0.0
 10
7.059615
 20
1.496554
 30
0.0
 10
7.090151
 20
1.519815
 30
0.0
 10
7.118373
 20
1.546053
 30
0.0
 10
7.148139
 20
1.569810
 30
0.0
 10
7.209379
 20
1.629616
 30
0.0
 10
7.240799
 20
1.657565
 30
0.0
 10
7.273375
 20
1.686504
 30
0.0
 10
7.299007
 20
1.714339
 30
0.0
 10
7.352640
 20
1.769517
 30
0.0
 10
7.352640
 20
1.769799
 30
0.0
 10
7.379926
 20
1.796421
 30
0.0
 10
7.434990
 20
1.862181
 30
0.0
 10
7.492978
 20
1.925185
 30
0.0
 10
7.516075
 20
1.955888
 30
0.0
 10
7.533384
 20
1.975567
 30
0.0
 10
7.541320
 20
1.984607
 30
0.0
 10
7.563424
 20
2.015473
 30
0.0
 10
7.588175
 20
2.045075
 30
0.0
 10
7.636183
 20
2.115685
 30
0.0
 10
7.636579
 20
2.116193
 30
0.0
 10
7.687898
 20
2.184490
 30
0.0
 10
7.713033
 20
2.224617
 30
0.0
 10
7.730011
 20
2.248431
 30
0.0
 10
7.749027
 20
2.281504
 30
0.0
 10
7.770581
 20
2.313308
 30
0.0
 10
7.784635
 20
2.339106
 30
0.0
 10
7.809606
 20
2.379122
 30
0.0
 10
7.809606
 20
2.379404
 30
0.0
 10
7.848522
 20
2.455308
 30
0.0
 10
7.891349
 20
2.529942
 30
0.0
 10
7.907170
 20
2.565276
 30
0.0
 10
7.925193
 20
2.598460
 30
0.0
 10
7.940021
 20
2.633848
 30
0.0
 10
7.940021
 20
2.634130
 30
0.0
 10
7.957440
 20
2.668027
 30
0.0
 10
7.988417
 20
2.747072
 30
0.0
 10
8.035881
 20
2.862552
 30
0.0
 10
8.050596
 20
2.897666
 30
0.0
 10
8.061896
 20
2.934431
 30
0.0
 10
8.075843
 20
2.969985
 30
0.0
 10
8.099048
 20
3.052665
 30
0.0
 10
8.126003
 20
3.133804
 30
0.0
 10
8.126285
 20
3.134905
 30
0.0
 10
8.134388
 20
3.170899
 30
0.0
 10
8.134388
 20
3.171182
 30
0.0
 10
8.145578
 20
3.207727
 30
0.0
 10
8.145860
 20
3.208658
 30
0.0
 10
8.153136
 20
3.245039
 30
0.0
 10
8.163499
 20
3.281914
 30
0.0
 10
8.163499
 20
3.282620
 30
0.0
 10
8.163499
 20
3.282959
 30
0.0
 10
8.178107
 20
3.366415
 30
0.0
 10
8.178107
 20
3.366979
 30
0.0
 10
8.178107
 20
3.367515
 30
0.0
 10
8.196626
 20
3.449865
 30
0.0
 10
8.196626
 20
3.450147
 30
0.0
 10
8.196908
 20
3.450966
 30
0.0
 10
8.198348
 20
3.462599
 30
0.0
 10
8.201545
 20
3.488944
 30
0.0
 10
8.208824
 20
3.525436
 30
0.0
 10
8.209106
 20
3.526423
 30
0.0
 10
8.212800
 20
3.564402
 30
0.0
 10
8.212800
 20
3.564684
 30
0.0
 10
8.219416
 20
3.602389
 30
0.0
 10
8.225698
 20
3.687770
 30
0.0
 10
8.236007
 20
3.801542
 30
0.0
 10
8.498440
 20
3.801542
 30
0.0
 10
8.563315
 20
3.812360
 30
0.0
 10
8.619854
 20
3.842661
 30
0.0
 10
8.663917
 20
3.889279
 30
0.0
 10
8.691365
 20
3.949048
 30
0.0
 10
8.695499
 20
3.967568
 30
0.0
 10
8.698640
 20
4.002515
 30
0.0
 10
8.682919
 20
4.080353
 30
0.0
 10
8.640062
 20
4.143916
 30
0.0
 10
8.576498
 20
4.186774
 30
0.0
 10
8.498660
 20
4.202495
 30
0.0
 10
8.236724
 20
4.202495
 30
0.0
 10
8.235736
 20
4.211978
 30
0.0
 10
8.234692
 20
4.250177
 30
0.0
 10
8.229894
 20
4.287935
 30
0.0
 10
8.228032
 20
4.326408
 30
0.0
 10
8.215191
 20
4.410854
 30
0.0
 10
8.215191
 20
4.411136
 30
0.0
 10
8.206371
 20
4.496410
 30
0.0
 10
8.198599
 20
4.534168
 30
0.0
 10
8.197272
 20
4.544421
 30
0.0
 10
8.193801
 20
4.571980
 30
0.0
 10
8.185202
 20
4.609299
 30
0.0
 10
8.179470
 20
4.647167
 30
0.0
 10
8.158357
 20
4.729794
 30
0.0
 10
8.158357
 20
4.730076
 30
0.0
 10
8.129694
 20
4.850517
 30
0.0
 10
8.129694
 20
4.850856
 30
0.0
 10
8.121095
 20
4.888007
 30
0.0
 10
8.108804
 20
4.924389
 30
0.0
 10
8.099321
 20
4.961374
 30
0.0
 10
8.070052
 20
5.041522
 30
0.0
 10
8.029539
 20
5.158489
 30
0.0
 10
8.029257
 20
5.158941
 30
0.0
 10
8.016963
 20
5.195212
 30
0.0
 10
8.001088
 20
5.230159
 30
0.0
 10
7.987971
 20
5.266041
 30
0.0
 10
7.950709
 20
5.343212
 30
0.0
 10
7.950427
 20
5.343551
 30
0.0
 10
7.917023
 20
5.421989
 30
0.0
 10
7.898227
 20
5.457433
 30
0.0
 10
7.894976
 20
5.463552
 30
0.0
 10
7.882738
 20
5.490397
 30
0.0
 10
7.863389
 20
5.523744
 30
0.0
 10
7.846797
 20
5.557975
 30
0.0
 10
7.831529
 20
5.582889
 30
0.0
 10
7.809316
 20
5.624726
 30
0.0
 10
7.763181
 20
5.696218
 30
0.0
 10
7.719797
 20
5.770742
 30
0.0
 10
7.697310
 20
5.801778
 30
0.0
 10
7.677300
 20
5.834409
 30
0.0
 10
7.654093
 20
5.864945
 30
0.0
 10
7.653811
 20
5.865284
 30
0.0
 10
7.633305
 20
5.897090
 30
0.0
 10
7.580058
 20
5.963785
 30
0.0
 10
7.579776
 20
5.964180
 30
0.0
 10
7.529726
 20
6.033358
 30
0.0
 10
7.520520
 20
6.043721
 30
0.0
 10
7.504422
 20
6.061857
 30
0.0
 10
7.481105
 20
6.092450
 30
0.0
 10
7.454926
 20
6.120562
 30
0.0
 10
7.431056
 20
6.150438
 30
0.0
 10
7.416451
 20
6.165376
 30
0.0
 10
7.371250
 20
6.211678
 30
0.0
 10
7.314365
 20
6.275728
 30
0.0
 10
7.286090
 20
6.301800
 30
0.0
 10
7.260072
 20
6.329692
 30
0.0
 10
7.231296
 20
6.354993
 30
0.0
 10
7.204615
 20
6.382278
 30
0.0
 10
7.139131
 20
6.437125
 30
0.0
 10
7.138651
 20
6.437577
 30
0.0
 10
7.075922
 20
6.495398
 30
0.0
 10
7.045495
 20
6.518275
 30
0.0
 10
7.023391
 20
6.537678
 30
0.0
 10
7.016500
 20
6.543740
 30
0.0
 10
6.985303
 20
6.566064
 30
0.0
 10
6.885255
 20
6.638716
 30
0.0
 10
6.865742
 20
6.653378
 30
0.0
 10
6.816683
 20
6.690253
 30
0.0
 10
6.776941
 20
6.715114
 30
0.0
 10
6.752743
 20
6.732366
 30
0.0
 10
6.719892
 20
6.751219
 30
0.0
 10
6.687809
 20
6.772989
 30
0.0
 10
6.661794
 20
6.787157
 30
0.0
 10
6.621995
 20
6.812015
 30
0.0
 10
6.546094
 20
6.850933
 30
0.0
 10
6.436400
 20
6.909416
 30
0.0
 10
6.402723
 20
6.927661
 30
0.0
 10
6.367058
 20
6.942656
 30
0.0
 10
6.333324
 20
6.959962
 30
0.0
 10
6.265523
 20
6.986586
 30
0.0
 10
6.253949
 20
6.991108
 30
0.0
 10
6.139020
 20
7.038346
 30
0.0
 10
6.138738
 20
7.038346
 30
0.0
 10
6.103624
 20
7.053064
 30
0.0
 10
6.067465
 20
7.064141
 30
0.0
 10
6.066647
 20
7.064480
 30
0.0
 10
6.031313
 20
7.078371
 30
0.0
 10
5.948630
 20
7.101575
 30
0.0
 10
5.867381
 20
7.128530
 30
0.0
 10
5.849688
 20
7.132501
 30
0.0
 10
5.830176
 20
7.136909
 30
0.0
 10
5.793354
 20
7.148153
 30
0.0
 10
5.755762
 20
7.155705
 30
0.0
 10
5.718940
 20
7.166012
 30
0.0
 10
5.634384
 20
7.180840
 30
0.0
 10
5.550928
 20
7.199582
 30
0.0
 10
5.513169
 20
7.204157
 30
0.0
 10
5.489248
 20
7.208952
 30
0.0
 10
5.475467
 20
7.211718
 30
0.0
 10
5.469129
 20
7.212311
 30
0.0
 10
5.437875
 20
7.215342
 30
0.0
 10
5.437480
 20
7.215342
 30
0.0
 10
5.399502
 20
7.222011
 30
0.0
 10
5.314118
 20
7.228296
 30
0.0
 10
5.180889
 20
7.240366
 30
0.0
 10
5.152557
 20
7.243132
 30
0.0
 10
5.114855
 20
7.243132
 30
0.0
 10
5.046614
 20
7.245221
 30
0.0
 10
4.999759
 20
7.246886
 30
0.0
 10
4.999477
 20
7.246886
 30
0.0
 10
4.999477
 20
7.246886
 30
0.0
 10
4.999649
 20
7.245508
 30
0.0
  0
LWPOLYLINE
  5
101
100
AcDbEntity
  8
Layer_1
 62
7
100
AcDbPolyline
 90
176
 70
0
 10
4.999988
 20
6.599981
 30
0.0
 10
5.258582
 20
6.587033
 30
0.0
 10
5.513982
 20
6.548554
 30
0.0
 10
5.764304
 20
6.484925
 30
0.0
 10
6.007665
 20
6.396527
 30
0.0
 10
5.882483
 20
6.179736
 30
0.0
 10
5.880733
 20
6.176970
 30
0.0
 10
5.853649
 20
6.116817
 30
0.0
 10
5.839520
 20
6.054385
 30
0.0
 10
5.837867
 20
5.991461
 30
0.0
 10
5.848211
 20
5.929834
 30
0.0
 10
5.870071
 20
5.871295
 30
0.0
 10
5.902969
 20
5.817630
 30
0.0
 10
5.946425
 20
5.770630
 30
0.0
 10
5.999960
 20
5.732083
 30
0.0
 10
6.058403
 20
5.705624
 30
0.0
 10
6.120298
 20
5.691214
 30
0.0
 10
6.183814
 20
5.689096
 30
0.0
 10
6.247116
 20
5.699511
 30
0.0
 10
6.307149
 20
5.722130
 30
0.0
 10
6.361103
 20
5.755711
 30
0.0
 10
6.407511
 20
5.799129
 30
0.0
 10
6.444904
 20
5.851257
 30
0.0
 10
6.445299
 20
5.852132
 30
0.0
 10
6.445299
 20
5.852132
 30
0.0
 10
6.570151
 20
6.068374
 30
0.0
 10
6.769333
 20
5.900643
 30
0.0
 10
6.949452
 20
5.715285
 30
0.0
 10
7.109554
 20
5.513953
 30
0.0
 10
7.248682
 20
5.298304
 30
0.0
 10
7.365881
 20
5.069994
 30
0.0
 10
7.460193
 20
4.830678
 30
0.0
 10
7.530665
 20
4.582012
 30
0.0
 10
7.576338
 20
4.325651
 30
0.0
 10
7.328897
 20
4.325651
 30
0.0
 10
7.325646
 20
4.325933
 30
0.0
 10
7.260010
 20
4.319310
 30
0.0
 10
7.198877
 20
4.300328
 30
0.0
 10
7.143558
 20
4.270295
 30
0.0
 10
7.095360
 20
4.230522
 30
0.0
 10
7.055595
 20
4.182318
 30
0.0
 10
7.025572
 20
4.126994
 30
0.0
 10
7.006599
 20
4.065858
 30
0.0
 10
6.999987
 20
4.000221
 30
0.0
 10
7.006599
 20
3.934583
 30
0.0
 10
7.025571
 20
3.873447
 30
0.0
 10
7.055594
 20
3.818122
 30
0.0
 10
7.095359
 20
3.769918
 30
0.0
 10
7.143557
 20
3.730144
 30
0.0
 10
7.198877
 20
3.700111
 30
0.0
 10
7.260009
 20
3.681128
 30
0.0
 10
7.325646
 20
3.674505
 30
0.0
 10
7.326521
 20
3.674505
 30
0.0
 10
7.326521
 20
3.674505
 30
0.0
 10
7.577103
 20
3.674505
 30
0.0
 10
7.531469
 20
3.417996
 30
0.0
 10
7.461009
 20
3.169185
 30
0.0
 10
7.366682
 20
2.929730
 30
0.0
 10
7.249443
 20
2.701290
 30
0.0
 10
7.110251
 20
2.485523
 30
0.0
 10
6.950063
 20
2.284088
 30
0.0
 10
6.769837
 20
2.098643
 30
0.0
 10
6.570529
 20
1.930846
 30
0.0
 10
6.446286
 20
2.146040
 30
0.0
 10
6.444847
 20
2.148964
 30
0.0
 10
6.407454
 20
2.201092
 30
0.0
 10
6.361047
 20
2.244509
 30
0.0
 10
6.307093
 20
2.278089
 30
0.0
 10
6.247060
 20
2.300708
 30
0.0
 10
6.183759
 20
2.311122
 30
0.0
 10
6.120244
 20
2.309004
 30
0.0
 10
6.058348
 20
2.294595
 30
0.0
 10
5.999907
 20
2.268135
 30
0.0
 10
5.946372
 20
2.229588
 30
0.0
 10
5.902916
 20
2.182588
 30
0.0
 10
5.870017
 20
2.128924
 30
0.0
 10
5.848157
 20
2.070384
 30
0.0
 10
5.837814
 20
2.008758
 30
0.0
 10
5.839466
 20
1.945834
 30
0.0
 10
5.853595
 20
1.883401
 30
0.0
 10
5.880679
 20
1.823249
 30
0.0
 10
5.881300
 20
1.822487
 30
0.0
 10
5.880961
 20
1.822487
 30
0.0
 10
6.006198
 20
1.605528
 30
0.0
 10
5.763267
 20
1.516760
 30
0.0
 10
5.513342
 20
1.452694
 30
0.0
 10
5.258298
 20
1.413713
 30
0.0
 10
5.000010
 20
1.400200
 30
0.0
 10
4.741370
 20
1.413164
 30
0.0
 10
4.485927
 20
1.451666
 30
0.0
 10
4.235565
 20
1.515326
 30
0.0
 10
3.992169
 20
1.603765
 30
0.0
 10
4.117295
 20
1.820449
 30
0.0
 10
4.119017
 20
1.823215
 30
0.0
 10
4.146100
 20
1.883367
 30
0.0
 10
4.160229
 20
1.945799
 30
0.0
 10
4.161881
 20
2.008723
 30
0.0
 10
4.151538
 20
2.070349
 30
0.0
 10
4.129677
 20
2.128888
 30
0.0
 10
4.096780
 20
2.182552
 30
0.0
 10
4.053324
 20
2.229552
 30
0.0
 10
3.999789
 20
2.268099
 30
0.0
 10
3.941348
 20
2.294558
 30
0.0
 10
3.879452
 20
2.308968
 30
0.0
 10
3.815937
 20
2.311086
 30
0.0
 10
3.752636
 20
2.300671
 30
0.0
 10
3.692603
 20
2.278052
 30
0.0
 10
3.638649
 20
2.244472
 30
0.0
 10
3.592242
 20
2.201055
 30
0.0
 10
3.554849
 20
2.148928
 30
0.0
 10
3.554454
 20
2.148053
 30
0.0
 10
3.554454
 20
2.148335
 30
0.0
 10
3.429658
 20
1.932257
 30
0.0
 10
3.230532
 20
2.099983
 30
0.0
 10
3.050463
 20
2.285329
 30
0.0
 10
2.890407
 20
2.486640
 30
0.0
 10
2.751318
 20
2.702262
 30
0.0
 10
2.634153
 20
2.930540
 30
0.0
 10
2.539865
 20
3.169819
 30
0.0
 10
2.469412
 20
3.418444
 30
0.0
 10
2.423747
 20
3.674759
 30
0.0
 10
2.670858
 20
3.674759
 30
0.0
 10
2.674109
 20
3.674477
 30
0.0
 10
2.739746
 20
3.681100
 30
0.0
 10
2.800878
 20
3.700083
 30
0.0
 10
2.856198
 20
3.730116
 30
0.0
 10
2.904395
 20
3.769889
 30
0.0
 10
2.944160
 20
3.818092
 30
0.0
 10
2.974184
 20
3.873417
 30
0.0
 10
2.993156
 20
3.934553
 30
0.0
 10
2.999769
 20
4.000190
 30
0.0
 10
2.993156
 20
4.065827
 30
0.0
 10
2.974184
 20
4.126963
 30
0.0
 10
2.944160
 20
4.182287
 30
0.0
 10
2.904395
 20
4.230491
 30
0.0
 10
2.856198
 20
4.270264
 30
0.0
 10
2.800878
 20
4.300297
 30
0.0
 10
2.739746
 20
4.319279
 30
0.0
 10
2.674109
 20
4.325902
 30
0.0
 10
2.673178
 20
4.325902
 30
0.0
 10
2.673178
 20
4.325902
 30
0.0
 10
2.423036
 20
4.325902
 30
0.0
 10
2.468655
 20
4.582354
 30
0.0
 10
2.539088
 20
4.831111
 30
0.0
 10
2.633379
 20
5.070519
 30
0.0
 10
2.750571
 20
5.298918
 30
0.0
 10
2.889708
 20
5.514652
 30
0.0
 10
3.049834
 20
5.716063
 30
0.0
 10
3.229991
 20
5.901494
 30
0.0
 10
3.429223
 20
6.069288
 30
0.0
 10
3.553302
 20
5.854367
 30
0.0
 10
3.554742
 20
5.851446
 30
0.0
 10
3.592135
 20
5.799319
 30
0.0
 10
3.638542
 20
5.755902
 30
0.0
 10
3.692496
 20
5.722321
 30
0.0
 10
3.752529
 20
5.699703
 30
0.0
 10
3.815830
 20
5.689288
 30
0.0
 10
3.879345
 20
5.691406
 30
0.0
 10
3.941240
 20
5.705816
 30
0.0
 10
3.999682
 20
5.732275
 30
0.0
 10
4.053217
 20
5.770822
 30
0.0
 10
4.096673
 20
5.817821
 30
0.0
 10
4.129571
 20
5.871485
 30
0.0
 10
4.151432
 20
5.930025
 30
0.0
 10
4.161776
 20
5.991650
 30
0.0
 10
4.160124
 20
6.054574
 30
0.0
 10
4.145996
 20
6.117006
 30
0.0
 10
4.118912
 20
6.177159
 30
0.0
 10
4.118376
 20
6.177921
 30
0.0
 10
4.118658
 20
6.177921
 30
0.0
 10
3.993532
 20
6.394716
 30
0.0
 10
4.236535
 20
6.483551
 30
0.0
 10
4.486541
 20
6.547666
 30
0.0
 10
4.741672
 20
6.586680
 30
0.0
 10
5.000050
 20
6.600207
 30
0.0
 10
4.999988
 20
6.599981
 30
0.0
  0
LWPOLYLINE
  5
102
100
AcDbEntity
  8
Layer_1
 62
7
100
AcDbPolyline
 90
8
 70
1
 10
9.999998
 20
7.999999
 30
0.0
 10
9.999998
 20
6.999984
 30
0.0
 10
9.971666
 20
6.999984
 30
0.0
 10
9.971666
 20
7.971613
 30
0.0
 10
8.999983
 20
7.971613
 30
0.0
 10
8.999983
 20
7.999999
 30
0.0
 10
9.999998
 20
7.999999
 30
0.0
 10
9.999998
 20
7.999999
 30
0.0
  0
LWPOLYLINE
  5
103
100
AcDbEntity
  8
Layer_1
 62
7
100
AcDbPolyline
 90
9
 70
1
 10
1.000015
 20
7.999999
 30
0.0
 10
1.000015
 20
7.971613
 30
0.0
 10
0.028332
 20
7.971613
 30
0.0
 10
0.028332
 20
6.999984
 30
0.0
 10
-0.000000
 20
6.999984
 30
0.0
 10
-0.000000
 20
7.985777
 30
0.0
 10
-0.000000
 20
7.999999
 30
0.0
 10
1.000015
 20
7.999999
 30
0.0
 10
1.000015
 20
7.999999
 30
0.0
  0
LWPOLYLINE
  5
104
100
AcDbEntity
  8
Layer_1
 62
7
100
AcDbPolyline
 90
8
 70
1
 10
9.999990
 20
0.799979
 30
0.0
 10
9.999990
 20
0.000000
 30
0.0
 10
8.999975
 20
0.000000
 30
0.0
 10
8.999975
 20
0.028332
 30
0.0
 10
9.971657
 20
0.028332
 30
0.0
 10
9.971657
 20
0.799979
 30
0.0
 10
9.999990
 20
0.799979
 30
0.0
 10
9.999990
 20
0.799979
 30
0.0
  0
LWPOLYLINE
  5
105
100
AcDbEntity
  8
Layer_1
 62
7
100
AcDbPolyline
 90
8
 70
1
 10
0.028332
 20
0.799979
 30
0.0
 10
0.028332
 20
0.028332
 30
0.0
 10
1.000015
 20
0.028332
 30
0.0
 10
1.000015
 20
0.000000
 30
0.0
 10
-0.000000
 20
0.000000
 30
0.0
 10
-0.000000
 20
0.799979
 30
0.0
 10
0.028332
 20
0.799979
 30
0.0
 10
0.028332
 20
0.799979
 30
0.0
  0
ENDSEC
  0
SECTION
  2
OBJECTS
  0
DICTIONARY
  5
C
330
0
100
AcDbDictionary
  3
ACAD_GROUP
350
D
  3
ACAD_MLINESTYLE
350
17
  0
DICTIONARY
  5
D
330
C
100
AcDbDictionary
  0
DICTIONARY
  5
1A
330
C
100
AcDbDictionary
  0
DICTIONARY
  5
17
330
C
100
AcDbDictionary
  3
STANDARD
350
18
  0
DICTIONARY
  5
19
330
C
100
AcDbDictionary
  0
ENDSEC
  0
EOF
