  0
SECTION
  2
HEADER
  9
$ACADVER
  1
AC1014
  9
$HANDSEED
  5
FFFF
  9
$MEASUREMENT
 70
     1
  0
ENDSEC
  0
SECTION
  2
TABLES
  0
TABLE
  2
VPORT
  5
8
330
0
100
AcDbSymbolTable
 70
     4
  0
VPORT
  5
2E
330
8
100
AcDbSymbolTableRecord
100
AcDbViewportTableRecord
  2
*ACTIVE
 70
     0
 10
0.0
 20
0.0
 11
1.0
 21
1.0
 12
210.0
 22
148.5
 13
0.0
 23
0.0
 14
10.0
 24
10.0
 15
10.0
 25
10.0
 16
0.0
 26
0.0
 36
1.0
 17
0.0
 27
0.0
 37
0.0
 40
341.0
 41
1.24
 42
50.0
 43
0.0
 44
0.0
 50
0.0
 51
0.0
 71
     0
 72
   100
 73
     1
 74
     3
 75
     0
 76
     0
 77
     0
 78
     0
  0
ENDTAB
  0
TABLE
  2
LTYPE
  5
5
330
0
100
AcDbSymbolTable
 70
     1
  0
LTYPE
  5
14
330
5
100
AcDbSymbolTableRecord
100
AcDbLinetypeTableRecord
  2
BYBLOCK
 70
     0
  3

 72
    65
 73
     0
 40
0.0
  0
LTYPE
  5
15
330
5
100
AcDbSymbolTableRecord
100
AcDbLinetypeTableRecord
  2
BYLAYER
 70
     0
  3

 72
    65
 73
     0
 40
0.0
  0
LTYPE
  5
16
330
5
100
AcDbSymbolTableRecord
100
AcDbLinetypeTableRecord
  2
CONTINUOUS
 70
     0
  3
Solid line
 72
    65
 73
     0
 40
0.0
  0
ENDTAB
  0
TABLE
  2
LAYER
  5
2
100
AcDbSymbolTable
 70
2
  0
LAYER
  5
50
100
AcDbSymbolTableRecord
100
AcDbLayerTableRecord
  2
0
 70
0
  6
CONTINUOUS
  0
LAYER
  5
51
100
AcDbSymbolTableRecord
100
AcDbLayerTableRecord
  2
Layer_1
 70
0
  6
CONTINUOUS
  0
ENDTAB
  0
TABLE
  2
STYLE
  5
3
330
0
100
AcDbSymbolTable
 70
     1
  0
STYLE
  5
11
330
3
100
AcDbSymbolTableRecord
100
AcDbTextStyleTableRecord
  2
STANDARD
 70
     0
 40
0.0
 41
1.0
 50
0.0
 71
     0
 42
2.5
  3
txt
  4

  0
ENDTAB
  0
TABLE
  2
VIEW
  5
6
330
0
100
AcDbSymbolTable
 70
     0
  0
ENDTAB
  0
TABLE
  2
UCS
  5
7
330
0
100
AcDbSymbolTable
 70
     0
  0
ENDTAB
  0
TABLE
  2
APPID
  5
9
330
0
100
AcDbSymbolTable
 70
     2
  0
APPID
  5
12
330
9
100
AcDbSymbolTableRecord
100
AcDbRegAppTableRecord
  2
ACAD
 70
     0
  0
ENDTAB
  0
TABLE
  2
DIMSTYLE
  5
A
330
0
100
AcDbSymbolTable
 70
     1
  0
DIMSTYLE
105
27
330
A
100
AcDbSymbolTableRecord
100
AcDbDimStyleTableRecord
  2
ISO-25
 70
     0
  3

  4

  5

  6

  7

 40
1.0
 41
2.5
 42
0.625
 43
3.75
 44
1.25
 45
0.0
 46
0.0
 47
0.0
 48
0.0
140
2.5
141
2.5
142
0.0
143
0.03937007874016
144
1.0
145
0.0
146
1.0
147
0.625
 71
     0
 72
     0
 73
     0
 74
     0
 75
     0
 76
     0
 77
     1
 78
     8
170
     0
171
     3
172
     1
173
     0
174
     0
175
     0
176
     0
177
     0
178
     0
270
     2
271
     2
272
     2
273
     2
274
     3
340
11
275
     0
280
     0
281
     0
282
     0
283
     0
284
     8
285
     0
286
     0
287
     3
288
     0
  0
ENDTAB
  0
TABLE
  2
BLOCK_RECORD
  5
1
330
0
100
AcDbSymbolTable
 70
     1
  0
BLOCK_RECORD
  5
1F
330
1
100
AcDbSymbolTableRecord
100
AcDbBlockTableRecord
  2
*MODEL_SPACE
  0
BLOCK_RECORD
  5
1B
330
1
100
AcDbSymbolTableRecord
100
AcDbBlockTableRecord
  2
*PAPER_SPACE
  0
ENDTAB
  0
ENDSEC
  0
SECTION
  2
BLOCKS
  0
BLOCK
  5
20
330
1F
100
AcDbEntity
  8
0
100
AcDbBlockBegin
  2
*MODEL_SPACE
 70
     0
 10
0.0
 20
0.0
 30
0.0
  3
*MODEL_SPACE
  1

  0
ENDBLK
  5
21
330
1F
100
AcDbEntity
  8
0
100
AcDbBlockEnd
  0
BLOCK
  5
1C
330
1B
100
AcDbEntity
 67
     1
  8
0
100
AcDbBlockBegin
  2
*PAPER_SPACE
  1

  0
ENDBLK
  5
1D
330
1B
100
AcDbEntity
 67
     1
  8
0
100
AcDbBlockEnd
  0
ENDSEC
  0
SECTION
  2
ENTITIES
  0
LWPOLYLINE
  5
100
100
AcDbEntity
  8
Layer_1
 62
7
100
AcDbPolyline
 90
8
 70
1
 10
10.000001
 20
-0.000000
 30
0.0
 10
10.000001
 20
1.000015
 30
0.0
 10
9.971669
 20
1.000015
 30
0.0
 10
9.971669
 20
0.028386
 30
0.0
 10
8.999986
 20
0.028386
 30
0.0
 10
8.999986
 20
-0.000000
 30
0.0
 10
10.000001
 20
-0.000000
 30
0.0
 10
10.000001
 20
-0.000000
 30
0.0
  0
LWPOLYLINE
  5
101
100
AcDbEntity
  8
Layer_1
 62
7
100
AcDbPolyline
 90
9
 70
1
 10
1.000015
 20
-0.000000
 30
0.0
 10
1.000015
 20
0.028386
 30
0.0
 10
0.028332
 20
0.028386
 30
0.0
 10
0.028332
 20
1.000015
 30
0.0
 10
0.000000
 20
1.000015
 30
0.0
 10
0.000000
 20
0.014221
 30
0.0
 10
0.000000
 20
-0.000000
 30
0.0
 10
1.000015
 20
-0.000000
 30
0.0
 10
1.000015
 20
-0.000000
 30
0.0
  0
LWPOLYLINE
  5
102
100
AcDbEntity
  8
Layer_1
 62
7
100
AcDbPolyline
 90
8
 70
1
 10
9.999992
 20
7.200022
 30
0.0
 10
9.999992
 20
8.000001
 30
0.0
 10
8.999977
 20
8.000001
 30
0.0
 10
8.999977
 20
7.971669
 30
0.0
 10
9.971660
 20
7.971669
 30
0.0
 10
9.971660
 20
7.200022
 30
0.0
 10
9.999992
 20
7.200022
 30
0.0
 10
9.999992
 20
7.200022
 30
0.0
  0
LWPOLYLINE
  5
103
100
AcDbEntity
  8
Layer_1
 62
7
100
AcDbPolyline
 90
8
 70
1
 10
0.028332
 20
7.200022
 30
0.0
 10
0.028332
 20
7.971669
 30
0.0
 10
1.000015
 20
7.971669
 30
0.0
 10
1.000015
 20
8.000001
 30
0.0
 10
0.000000
 20
8.000001
 30
0.0
 10
0.000000
 20
7.200022
 30
0.0
 10
0.028332
 20
7.200022
 30
0.0
 10
0.028332
 20
7.200022
 30
0.0
  0
LWPOLYLINE
  5
104
100
AcDbEntity
  8
Layer_1
 62
7
100
AcDbPolyline
 90
159
 70
0
 10
4.946275
 20
6.508082
 30
0.0
 10
4.860373
 20
6.491917
 30
0.0
 10
4.783194
 20
6.454269
 30
0.0
 10
4.718626
 20
6.397721
 30
0.0
 10
4.670557
 20
6.324858
 30
0.0
 10
4.646237
 20
6.253804
 30
0.0
 10
4.638933
 20
6.180009
 30
0.0
 10
4.648599
 20
6.106457
 30
0.0
 10
4.675187
 20
6.036131
 30
0.0
 10
4.673534
 20
6.035580
 30
0.0
 10
4.709576
 20
5.979260
 30
0.0
 10
4.756326
 20
5.931455
 30
0.0
 10
4.697236
 20
5.862884
 30
0.0
 10
4.699165
 20
5.859908
 30
0.0
 10
4.701095
 20
5.852025
 30
0.0
 10
4.701591
 20
5.845300
 30
0.0
 10
4.701260
 20
5.839347
 30
0.0
 10
4.700488
 20
5.833725
 30
0.0
 10
4.697732
 20
5.823307
 30
0.0
 10
4.693984
 20
5.813716
 30
0.0
 10
4.689409
 20
5.804896
 30
0.0
 10
4.684117
 20
5.796353
 30
0.0
 10
4.671880
 20
5.780698
 30
0.0
 10
4.657769
 20
5.766311
 30
0.0
 10
4.642004
 20
5.753303
 30
0.0
 10
4.624696
 20
5.741396
 30
0.0
 10
4.606010
 20
5.730758
 30
0.0
 10
4.593277
 20
5.715599
 30
0.0
 10
4.588536
 20
5.693937
 30
0.0
 10
4.585505
 20
5.671392
 30
0.0
 10
4.584071
 20
5.647855
 30
0.0
 10
4.584071
 20
5.623547
 30
0.0
 10
4.585725
 20
5.598632
 30
0.0
 10
4.587930
 20
5.579560
 30
0.0
 10
4.655674
 20
5.542408
 30
0.0
 10
4.726891
 20
5.512752
 30
0.0
 10
4.743263
 20
5.522895
 30
0.0
 10
4.763713
 20
5.537171
 30
0.0
 10
4.782730
 20
5.552274
 30
0.0
 10
4.800148
 20
5.568094
 30
0.0
 10
4.815968
 20
5.584576
 30
0.0
 10
4.829969
 20
5.601718
 30
0.0
 10
4.833882
 20
5.621176
 30
0.0
 10
4.830465
 20
5.642398
 30
0.0
 10
4.828977
 20
5.663399
 30
0.0
 10
4.829252
 20
5.683794
 30
0.0
 10
4.831512
 20
5.703859
 30
0.0
 10
4.836197
 20
5.723151
 30
0.0
 10
4.839505
 20
5.732632
 30
0.0
 10
4.843584
 20
5.741727
 30
0.0
 10
4.848710
 20
5.750657
 30
0.0
 10
4.855104
 20
5.759311
 30
0.0
 10
4.858963
 20
5.763445
 30
0.0
 10
4.863372
 20
5.767469
 30
0.0
 10
4.868884
 20
5.771327
 30
0.0
 10
4.876160
 20
5.774800
 30
0.0
 10
4.893524
 20
5.776564
 30
0.0
 10
4.994892
 20
5.771713
 30
0.0
 10
5.094387
 20
5.791722
 30
0.0
 10
5.111805
 20
5.792714
 30
0.0
 10
5.119467
 20
5.790289
 30
0.0
 10
5.125530
 20
5.787423
 30
0.0
 10
5.130657
 20
5.784116
 30
0.0
 10
5.135177
 20
5.780643
 30
0.0
 10
5.142728
 20
5.773146
 30
0.0
 10
5.149122
 20
5.764988
 30
0.0
 10
5.154634
 20
5.756500
 30
0.0
 10
5.159375
 20
5.747680
 30
0.0
 10
5.166816
 20
5.729214
 30
0.0
 10
5.172163
 20
5.709922
 30
0.0
 10
5.175470
 20
5.689747
 30
0.0
 10
5.177069
 20
5.668801
 30
0.0
 10
5.177069
 20
5.647304
 30
0.0
 10
5.183794
 20
5.628563
 30
0.0
 10
5.200220
 20
5.613790
 30
0.0
 10
5.218355
 20
5.599789
 30
0.0
 10
5.237923
 20
5.586836
 30
0.0
 10
5.258980
 20
5.574764
 30
0.0
 10
5.281469
 20
5.563795
 30
0.0
 10
5.299053
 20
5.556188
 30
0.0
 10
5.365088
 20
5.596096
 30
0.0
 10
5.426439
 20
5.643060
 30
0.0
 10
5.425832
 20
5.662297
 30
0.0
 10
5.423683
 20
5.687212
 30
0.0
 10
5.420100
 20
5.711190
 30
0.0
 10
5.415139
 20
5.734231
 30
0.0
 10
5.408745
 20
5.756114
 30
0.0
 10
5.400973
 20
5.776729
 30
0.0
 10
5.385924
 20
5.789903
 30
0.0
 10
5.365860
 20
5.797565
 30
0.0
 10
5.346953
 20
5.806770
 30
0.0
 10
5.329425
 20
5.817244
 30
0.0
 10
5.313274
 20
5.829205
 30
0.0
 10
5.298777
 20
5.842930
 30
0.0
 10
5.292218
 20
5.850427
 30
0.0
 10
5.286375
 20
5.858640
 30
0.0
 10
5.281138
 20
5.867459
 30
0.0
 10
5.276949
 20
5.877326
 30
0.0
 10
5.275295
 20
5.882838
 30
0.0
 10
5.274138
 20
5.888736
 30
0.0
 10
5.273642
 20
5.895406
 30
0.0
 10
5.274303
 20
5.903509
 30
0.0
 10
5.281469
 20
5.919384
 30
0.0
 10
5.336370
 20
6.004712
 30
0.0
 10
5.368727
 20
6.100844
 30
0.0
 10
5.376664
 20
6.116443
 30
0.0
 10
5.382617
 20
6.121955
 30
0.0
 10
5.388074
 20
6.125649
 30
0.0
 10
5.393531
 20
6.128460
 30
0.0
 10
5.398768
 20
6.130499
 30
0.0
 10
5.409131
 20
6.133421
 30
0.0
 10
5.419328
 20
6.134964
 30
0.0
 10
5.429360
 20
6.135515
 30
0.0
 10
5.439282
 20
6.135074
 30
0.0
 10
5.459071
 20
6.132318
 30
0.0
 10
5.478473
 20
6.127192
 30
0.0
 10
5.497601
 20
6.120026
 30
0.0
 10
5.516617
 20
6.110931
 30
0.0
 10
5.535138
 20
6.100182
 30
0.0
 10
5.554762
 20
6.096544
 30
0.0
 10
5.575818
 20
6.103435
 30
0.0
 10
5.596874
 20
6.112089
 30
0.0
 10
5.617931
 20
6.122617
 30
0.0
 10
5.638932
 20
6.134799
 30
0.0
 10
5.659713
 20
6.148689
 30
0.0
 10
5.675092
 20
6.160155
 30
0.0
 10
5.673383
 20
6.237380
 30
0.0
 10
5.663406
 20
6.313944
 30
0.0
 10
5.646594
 20
6.322873
 30
0.0
 10
5.624105
 20
6.333457
 30
0.0
 10
5.601560
 20
6.342386
 30
0.0
 10
5.579125
 20
6.349497
 30
0.0
 10
5.556966
 20
6.355009
 30
0.0
 10
5.535083
 20
6.358482
 30
0.0
 10
5.516287
 20
6.352088
 30
0.0
 10
5.499585
 20
6.338638
 30
0.0
 10
5.482277
 20
6.326842
 30
0.0
 10
5.464417
 20
6.316810
 30
0.0
 10
5.445952
 20
6.308817
 30
0.0
 10
5.426880
 20
6.303140
 30
0.0
 10
5.417068
 20
6.301266
 30
0.0
 10
5.406981
 20
6.300384
 30
0.0
 10
5.396673
 20
6.300384
 30
0.0
 10
5.386145
 20
6.301596
 30
0.0
 10
5.380523
 20
6.302919
 30
0.0
 10
5.374790
 20
6.304849
 30
0.0
 10
5.368671
 20
6.307715
 30
0.0
 10
5.362112
 20
6.312290
 30
0.0
 10
5.355442
 20
6.321385
 30
0.0
 10
5.269618
 20
6.291289
 30
0.0
 10
5.242578
 20
6.349139
 30
0.0
 10
5.205132
 20
6.400156
 30
0.0
 10
5.158505
 20
6.442973
 30
0.0
 10
5.103923
 20
6.476221
 30
0.0
 10
5.042944
 20
6.498361
 30
0.0
 10
4.978797
 20
6.507971
 30
0.0
 10
4.978742
 20
6.508082
 30
0.0
 10
4.946275
 20
6.508082
 30
0.0
 10
4.946275
 20
6.508082
 30
0.0
  0
LWPOLYLINE
  5
105
100
AcDbEntity
  8
Layer_1
 62
7
100
AcDbPolyline
 90
22
 70
0
 10
4.959174
 20
6.401697
 30
0.0
 10
5.010136
 20
6.396823
 30
0.0
 10
5.058558
 20
6.380200
 30
0.0
 10
5.096232
 20
6.357169
 30
0.0
 10
5.127606
 20
6.327990
 30
0.0
 10
5.169814
 20
6.255861
 30
0.0
 10
5.181902
 20
6.173169
 30
0.0
 10
5.175625
 20
6.130785
 30
0.0
 10
5.160588
 20
6.089268
 30
0.0
 10
5.109486
 20
6.021242
 30
0.0
 10
5.036239
 20
5.977953
 30
0.0
 10
4.952002
 20
5.965993
 30
0.0
 10
4.869601
 20
5.987183
 30
0.0
 10
4.801573
 20
6.038302
 30
0.0
 10
4.758293
 20
6.111567
 30
0.0
 10
4.746353
 20
6.195819
 30
0.0
 10
4.767571
 20
6.278225
 30
0.0
 10
4.800977
 20
6.328445
 30
0.0
 10
4.845953
 20
6.366993
 30
0.0
 10
4.899638
 20
6.392025
 30
0.0
 10
4.959174
 20
6.401697
 30
0.0
 10
4.959174
 20
6.401697
 30
0.0
  0
LWPOLYLINE
  5
106
100
AcDbEntity
  8
Layer_1
 62
7
100
AcDbPolyline
 90
159
 70
0
 10
6.131608
 20
6.254082
 30
0.0
 10
6.045706
 20
6.237917
 30
0.0
 10
5.968527
 20
6.200269
 30
0.0
 10
5.903959
 20
6.143721
 30
0.0
 10
5.855891
 20
6.070858
 30
0.0
 10
5.831570
 20
5.999804
 30
0.0
 10
5.824267
 20
5.926009
 30
0.0
 10
5.833933
 20
5.852457
 30
0.0
 10
5.860521
 20
5.782131
 30
0.0
 10
5.858867
 20
5.781580
 30
0.0
 10
5.894909
 20
5.725260
 30
0.0
 10
5.941660
 20
5.677455
 30
0.0
 10
5.882569
 20
5.608884
 30
0.0
 10
5.884499
 20
5.605908
 30
0.0
 10
5.886428
 20
5.598025
 30
0.0
 10
5.886924
 20
5.591300
 30
0.0
 10
5.886593
 20
5.585347
 30
0.0
 10
5.885821
 20
5.579725
 30
0.0
 10
5.883066
 20
5.569307
 30
0.0
 10
5.879317
 20
5.559716
 30
0.0
 10
5.874742
 20
5.550896
 30
0.0
 10
5.869451
 20
5.542353
 30
0.0
 10
5.857213
 20
5.526698
 30
0.0
 10
5.843102
 20
5.512311
 30
0.0
 10
5.827338
 20
5.499303
 30
0.0
 10
5.810030
 20
5.487396
 30
0.0
 10
5.791343
 20
5.476758
 30
0.0
 10
5.778610
 20
5.461599
 30
0.0
 10
5.773870
 20
5.439937
 30
0.0
 10
5.770838
 20
5.417392
 30
0.0
 10
5.769405
 20
5.393855
 30
0.0
 10
5.769405
 20
5.369547
 30
0.0
 10
5.771059
 20
5.344632
 30
0.0
 10
5.773263
 20
5.325560
 30
0.0
 10
5.841008
 20
5.288408
 30
0.0
 10
5.912225
 20
5.258752
 30
0.0
 10
5.928596
 20
5.268895
 30
0.0
 10
5.949046
 20
5.283171
 30
0.0
 10
5.968063
 20
5.298274
 30
0.0
 10
5.985481
 20
5.314094
 30
0.0
 10
6.001301
 20
5.330576
 30
0.0
 10
6.015302
 20
5.347718
 30
0.0
 10
6.019216
 20
5.367176
 30
0.0
 10
6.015798
 20
5.388398
 30
0.0
 10
6.014310
 20
5.409399
 30
0.0
 10
6.014585
 20
5.429794
 30
0.0
 10
6.016845
 20
5.449859
 30
0.0
 10
6.021531
 20
5.469151
 30
0.0
 10
6.024838
 20
5.478632
 30
0.0
 10
6.028917
 20
5.487727
 30
0.0
 10
6.034043
 20
5.496657
 30
0.0
 10
6.040437
 20
5.505311
 30
0.0
 10
6.044296
 20
5.509445
 30
0.0
 10
6.048706
 20
5.513469
 30
0.0
 10
6.054218
 20
5.517327
 30
0.0
 10
6.061494
 20
5.520800
 30
0.0
 10
6.078857
 20
5.522564
 30
0.0
 10
6.180226
 20
5.517713
 30
0.0
 10
6.279720
 20
5.537722
 30
0.0
 10
6.297138
 20
5.538714
 30
0.0
 10
6.304800
 20
5.536289
 30
0.0
 10
6.310864
 20
5.533423
 30
0.0
 10
6.315990
 20
5.530116
 30
0.0
 10
6.320510
 20
5.526643
 30
0.0
 10
6.328062
 20
5.519146
 30
0.0
 10
6.334456
 20
5.510988
 30
0.0
 10
6.339968
 20
5.502500
 30
0.0
 10
6.344708
 20
5.493680
 30
0.0
 10
6.352150
 20
5.475214
 30
0.0
 10
6.357496
 20
5.455922
 30
0.0
 10
6.360804
 20
5.435747
 30
0.0
 10
6.362402
 20
5.414801
 30
0.0
 10
6.362402
 20
5.393304
 30
0.0
 10
6.369127
 20
5.374563
 30
0.0
 10
6.385553
 20
5.359790
 30
0.0
 10
6.403688
 20
5.345789
 30
0.0
 10
6.423256
 20
5.332836
 30
0.0
 10
6.444313
 20
5.320764
 30
0.0
 10
6.466802
 20
5.309795
 30
0.0
 10
6.484386
 20
5.302188
 30
0.0
 10
6.550422
 20
5.342096
 30
0.0
 10
6.611772
 20
5.389060
 30
0.0
 10
6.611166
 20
5.408297
 30
0.0
 10
6.609016
 20
5.433212
 30
0.0
 10
6.605433
 20
5.457190
 30
0.0
 10
6.600472
 20
5.480231
 30
0.0
 10
6.594078
 20
5.502114
 30
0.0
 10
6.586306
 20
5.522729
 30
0.0
 10
6.571258
 20
5.535903
 30
0.0
 10
6.551194
 20
5.543565
 30
0.0
 10
6.532287
 20
5.552770
 30
0.0
 10
6.514758
 20
5.563244
 30
0.0
 10
6.498607
 20
5.575205
 30
0.0
 10
6.484111
 20
5.588930
 30
0.0
 10
6.477551
 20
5.596427
 30
0.0
 10
6.471708
 20
5.604640
 30
0.0
 10
6.466472
 20
5.613459
 30
0.0
 10
6.462283
 20
5.623326
 30
0.0
 10
6.460629
 20
5.628838
 30
0.0
 10
6.459471
 20
5.634736
 30
0.0
 10
6.458975
 20
5.641406
 30
0.0
 10
6.459637
 20
5.649509
 30
0.0
 10
6.466802
 20
5.665384
 30
0.0
 10
6.521703
 20
5.750712
 30
0.0
 10
6.554060
 20
5.846844
 30
0.0
 10
6.561997
 20
5.862443
 30
0.0
 10
6.567951
 20
5.867955
 30
0.0
 10
6.573408
 20
5.871649
 30
0.0
 10
6.578865
 20
5.874460
 30
0.0
 10
6.584101
 20
5.876499
 30
0.0
 10
6.594464
 20
5.879421
 30
0.0
 10
6.604661
 20
5.880964
 30
0.0
 10
6.614694
 20
5.881515
 30
0.0
 10
6.624615
 20
5.881074
 30
0.0
 10
6.644404
 20
5.878318
 30
0.0
 10
6.663807
 20
5.873192
 30
0.0
 10
6.682934
 20
5.866026
 30
0.0
 10
6.701951
 20
5.856931
 30
0.0
 10
6.720472
 20
5.846182
 30
0.0
 10
6.740095
 20
5.842544
 30
0.0
 10
6.761151
 20
5.849435
 30
0.0
 10
6.782208
 20
5.858089
 30
0.0
 10
6.803264
 20
5.868617
 30
0.0
 10
6.824266
 20
5.880799
 30
0.0
 10
6.845046
 20
5.894689
 30
0.0
 10
6.860425
 20
5.906155
 30
0.0
 10
6.858772
 20
5.983380
 30
0.0
 10
6.848740
 20
6.059944
 30
0.0
 10
6.831927
 20
6.068873
 30
0.0
 10
6.809493
 20
6.079457
 30
0.0
 10
6.786893
 20
6.088386
 30
0.0
 10
6.764459
 20
6.095497
 30
0.0
 10
6.742355
 20
6.101009
 30
0.0
 10
6.720472
 20
6.104482
 30
0.0
 10
6.701675
 20
6.098088
 30
0.0
 10
6.684973
 20
6.084638
 30
0.0
 10
6.667665
 20
6.072842
 30
0.0
 10
6.649806
 20
6.062810
 30
0.0
 10
6.631340
 20
6.054817
 30
0.0
 10
6.612268
 20
6.049140
 30
0.0
 10
6.602401
 20
6.047266
 30
0.0
 10
6.592369
 20
6.046384
 30
0.0
 10
6.582062
 20
6.046384
 30
0.0
 10
6.571478
 20
6.047596
 30
0.0
 10
6.565911
 20
6.048919
 30
0.0
 10
6.560178
 20
6.050849
 30
0.0
 10
6.554060
 20
6.053715
 30
0.0
 10
6.547500
 20
6.058290
 30
0.0
 10
6.540776
 20
6.067385
 30
0.0
 10
6.454951
 20
6.037289
 30
0.0
 10
6.427911
 20
6.095139
 30
0.0
 10
6.390465
 20
6.146156
 30
0.0
 10
6.343838
 20
6.188973
 30
0.0
 10
6.289256
 20
6.222221
 30
0.0
 10
6.228277
 20
6.244361
 30
0.0
 10
6.164130
 20
6.253971
 30
0.0
 10
6.164075
 20
6.254082
 30
0.0
 10
6.131608
 20
6.254082
 30
0.0
 10
6.131608
 20
6.254082
 30
0.0
  0
LWPOLYLINE
  5
107
100
AcDbEntity
  8
Layer_1
 62
7
100
AcDbPolyline
 90
22
 70
0
 10
6.144507
 20
6.147697
 30
0.0
 10
6.195498
 20
6.142829
 30
0.0
 10
6.243946
 20
6.126200
 30
0.0
 10
6.281612
 20
6.103163
 30
0.0
 10
6.312978
 20
6.073979
 30
0.0
 10
6.355170
 20
6.001848
 30
0.0
 10
6.367244
 20
5.919159
 30
0.0
 10
6.360962
 20
5.876780
 30
0.0
 10
6.345921
 20
5.835268
 30
0.0
 10
6.294819
 20
5.767242
 30
0.0
 10
6.221573
 20
5.723953
 30
0.0
 10
6.137335
 20
5.711993
 30
0.0
 10
6.054934
 20
5.733183
 30
0.0
 10
5.986906
 20
5.784302
 30
0.0
 10
5.943626
 20
5.857567
 30
0.0
 10
5.931686
 20
5.941819
 30
0.0
 10
5.952905
 20
6.024225
 30
0.0
 10
5.986310
 20
6.074445
 30
0.0
 10
6.031286
 20
6.112993
 30
0.0
 10
6.084972
 20
6.138025
 30
0.0
 10
6.144507
 20
6.147697
 30
0.0
 10
6.144507
 20
6.147697
 30
0.0
  0
LWPOLYLINE
  5
108
100
AcDbEntity
  8
Layer_1
 62
7
100
AcDbPolyline
 90
159
 70
0
 10
7.340148
 20
5.989223
 30
0.0
 10
7.244936
 20
5.979785
 30
0.0
 10
7.158337
 20
5.944022
 30
0.0
 10
7.085598
 20
5.885054
 30
0.0
 10
7.031963
 20
5.805999
 30
0.0
 10
7.007643
 20
5.734945
 30
0.0
 10
7.000339
 20
5.661150
 30
0.0
 10
7.010006
 20
5.587598
 30
0.0
 10
7.036594
 20
5.517272
 30
0.0
 10
7.034885
 20
5.516721
 30
0.0
 10
7.070927
 20
5.460401
 30
0.0
 10
7.117677
 20
5.412596
 30
0.0
 10
7.058587
 20
5.344025
 30
0.0
 10
7.060516
 20
5.341049
 30
0.0
 10
7.062446
 20
5.333166
 30
0.0
 10
7.062942
 20
5.326441
 30
0.0
 10
7.062611
 20
5.320488
 30
0.0
 10
7.061839
 20
5.314866
 30
0.0
 10
7.059083
 20
5.304448
 30
0.0
 10
7.055335
 20
5.294857
 30
0.0
 10
7.050760
 20
5.286037
 30
0.0
 10
7.045468
 20
5.277494
 30
0.0
 10
7.033231
 20
5.261839
 30
0.0
 10
7.019120
 20
5.247452
 30
0.0
 10
7.003355
 20
5.234444
 30
0.0
 10
6.986047
 20
5.222537
 30
0.0
 10
6.967361
 20
5.211899
 30
0.0
 10
6.954628
 20
5.196741
 30
0.0
 10
6.949888
 20
5.175078
 30
0.0
 10
6.946856
 20
5.152533
 30
0.0
 10
6.945423
 20
5.128996
 30
0.0
 10
6.945423
 20
5.104688
 30
0.0
 10
6.947076
 20
5.079773
 30
0.0
 10
6.949281
 20
5.060701
 30
0.0
 10
7.017026
 20
5.023549
 30
0.0
 10
7.088242
 20
4.993893
 30
0.0
 10
7.104614
 20
5.004036
 30
0.0
 10
7.125064
 20
5.018312
 30
0.0
 10
7.144081
 20
5.033416
 30
0.0
 10
7.161499
 20
5.049235
 30
0.0
 10
7.177319
 20
5.065717
 30
0.0
 10
7.191320
 20
5.082859
 30
0.0
 10
7.195233
 20
5.102317
 30
0.0
 10
7.191816
 20
5.123539
 30
0.0
 10
7.190328
 20
5.144541
 30
0.0
 10
7.190603
 20
5.164935
 30
0.0
 10
7.192863
 20
5.185000
 30
0.0
 10
7.197549
 20
5.204292
 30
0.0
 10
7.200856
 20
5.213773
 30
0.0
 10
7.204935
 20
5.222868
 30
0.0
 10
7.210061
 20
5.231798
 30
0.0
 10
7.216455
 20
5.240452
 30
0.0
 10
7.220314
 20
5.244586
 30
0.0
 10
7.224723
 20
5.248610
 30
0.0
 10
7.230236
 20
5.252468
 30
0.0
 10
7.237512
 20
5.255941
 30
0.0
 10
7.254875
 20
5.257705
 30
0.0
 10
7.356243
 20
5.252854
 30
0.0
 10
7.455738
 20
5.272863
 30
0.0
 10
7.473156
 20
5.273856
 30
0.0
 10
7.480818
 20
5.271430
 30
0.0
 10
7.486881
 20
5.268564
 30
0.0
 10
7.492008
 20
5.265257
 30
0.0
 10
7.496528
 20
5.261784
 30
0.0
 10
7.504079
 20
5.254287
 30
0.0
 10
7.510473
 20
5.246129
 30
0.0
 10
7.515986
 20
5.237641
 30
0.0
 10
7.520726
 20
5.228821
 30
0.0
 10
7.528167
 20
5.210356
 30
0.0
 10
7.533514
 20
5.191063
 30
0.0
 10
7.536821
 20
5.170889
 30
0.0
 10
7.538420
 20
5.149942
 30
0.0
 10
7.538420
 20
5.128445
 30
0.0
 10
7.545145
 20
5.109704
 30
0.0
 10
7.561571
 20
5.094931
 30
0.0
 10
7.579706
 20
5.080930
 30
0.0
 10
7.599274
 20
5.067977
 30
0.0
 10
7.620331
 20
5.055905
 30
0.0
 10
7.642820
 20
5.044936
 30
0.0
 10
7.660404
 20
5.037329
 30
0.0
 10
7.726439
 20
5.077237
 30
0.0
 10
7.787790
 20
5.124201
 30
0.0
 10
7.787184
 20
5.143438
 30
0.0
 10
7.785034
 20
5.168353
 30
0.0
 10
7.781451
 20
5.192331
 30
0.0
 10
7.776490
 20
5.215372
 30
0.0
 10
7.770096
 20
5.237255
 30
0.0
 10
7.762324
 20
5.257870
 30
0.0
 10
7.747276
 20
5.271044
 30
0.0
 10
7.727211
 20
5.278706
 30
0.0
 10
7.708305
 20
5.287912
 30
0.0
 10
7.690776
 20
5.298385
 30
0.0
 10
7.674625
 20
5.310346
 30
0.0
 10
7.660129
 20
5.324071
 30
0.0
 10
7.653569
 20
5.331568
 30
0.0
 10
7.647726
 20
5.339781
 30
0.0
 10
7.642490
 20
5.348600
 30
0.0
 10
7.638300
 20
5.358467
 30
0.0
 10
7.636647
 20
5.363979
 30
0.0
 10
7.635489
 20
5.369877
 30
0.0
 10
7.635048
 20
5.376547
 30
0.0
 10
7.635655
 20
5.384650
 30
0.0
 10
7.642820
 20
5.400525
 30
0.0
 10
7.697721
 20
5.485853
 30
0.0
 10
7.730078
 20
5.581985
 30
0.0
 10
7.738015
 20
5.597584
 30
0.0
 10
7.743968
 20
5.603096
 30
0.0
 10
7.749425
 20
5.606790
 30
0.0
 10
7.754882
 20
5.609601
 30
0.0
 10
7.760119
 20
5.611640
 30
0.0
 10
7.770482
 20
5.614562
 30
0.0
 10
7.780679
 20
5.616105
 30
0.0
 10
7.790711
 20
5.616656
 30
0.0
 10
7.800633
 20
5.616270
 30
0.0
 10
7.820422
 20
5.613514
 30
0.0
 10
7.839824
 20
5.608388
 30
0.0
 10
7.858952
 20
5.601222
 30
0.0
 10
7.877969
 20
5.592127
 30
0.0
 10
7.896490
 20
5.581379
 30
0.0
 10
7.916113
 20
5.577741
 30
0.0
 10
7.937169
 20
5.584631
 30
0.0
 10
7.958226
 20
5.593285
 30
0.0
 10
7.979282
 20
5.603813
 30
0.0
 10
8.000283
 20
5.615995
 30
0.0
 10
8.021064
 20
5.629885
 30
0.0
 10
8.036443
 20
5.641351
 30
0.0
 10
8.034790
 20
5.718576
 30
0.0
 10
8.024812
 20
5.795140
 30
0.0
 10
8.008000
 20
5.804070
 30
0.0
 10
8.008000
 20
5.804180
 30
0.0
 10
7.985511
 20
5.814763
 30
0.0
 10
7.962966
 20
5.823693
 30
0.0
 10
7.940532
 20
5.830803
 30
0.0
 10
7.918373
 20
5.836316
 30
0.0
 10
7.896490
 20
5.839788
 30
0.0
 10
7.877693
 20
5.833394
 30
0.0
 10
7.860991
 20
5.819945
 30
0.0
 10
7.843683
 20
5.808149
 30
0.0
 10
7.825824
 20
5.798116
 30
0.0
 10
7.807358
 20
5.790124
 30
0.0
 10
7.788286
 20
5.784446
 30
0.0
 10
7.778474
 20
5.782572
 30
0.0
 10
7.768387
 20
5.781635
 30
0.0
 10
7.758079
 20
5.781635
 30
0.0
 10
7.747551
 20
5.782848
 30
0.0
 10
7.741929
 20
5.784171
 30
0.0
 10
7.736196
 20
5.786155
 30
0.0
 10
7.730078
 20
5.788966
 30
0.0
 10
7.723518
 20
5.793541
 30
0.0
 10
7.716848
 20
5.802636
 30
0.0
 10
7.631024
 20
5.772540
 30
0.0
 10
7.603984
 20
5.830390
 30
0.0
 10
7.566538
 20
5.881407
 30
0.0
 10
7.519911
 20
5.924224
 30
0.0
 10
7.465329
 20
5.957473
 30
0.0
 10
7.404350
 20
5.979612
 30
0.0
 10
7.340203
 20
5.989223
 30
0.0
 10
7.340148
 20
5.989223
 30
0.0
 10
7.340148
 20
5.989223
 30
0.0
  0
LWPOLYLINE
  5
109
100
AcDbEntity
  8
Layer_1
 62
7
100
AcDbPolyline
 90
23
 70
0
 10
7.320525
 20
5.882838
 30
0.0
 10
7.320580
 20
5.882838
 30
0.0
 10
7.371542
 20
5.877964
 30
0.0
 10
7.419964
 20
5.861341
 30
0.0
 10
7.457638
 20
5.838310
 30
0.0
 10
7.489012
 20
5.809131
 30
0.0
 10
7.531220
 20
5.737002
 30
0.0
 10
7.543308
 20
5.654310
 30
0.0
 10
7.537031
 20
5.611926
 30
0.0
 10
7.521994
 20
5.570409
 30
0.0
 10
7.470892
 20
5.502383
 30
0.0
 10
7.397646
 20
5.459095
 30
0.0
 10
7.313408
 20
5.447134
 30
0.0
 10
7.231007
 20
5.468324
 30
0.0
 10
7.162979
 20
5.519443
 30
0.0
 10
7.119699
 20
5.592708
 30
0.0
 10
7.107759
 20
5.676960
 30
0.0
 10
7.128977
 20
5.759366
 30
0.0
 10
7.162373
 20
5.809576
 30
0.0
 10
7.207335
 20
5.848120
 30
0.0
 10
7.261005
 20
5.873155
 30
0.0
 10
7.320525
 20
5.882838
 30
0.0
 10
7.320525
 20
5.882838
 30
0.0
  0
LWPOLYLINE
  5
10a
100
AcDbEntity
  8
Layer_1
 62
7
100
AcDbPolyline
 90
159
 70
0
 10
4.875720
 20
5.421526
 30
0.0
 10
4.789817
 20
5.405362
 30
0.0
 10
4.712638
 20
5.367714
 30
0.0
 10
4.648070
 20
5.311166
 30
0.0
 10
4.600002
 20
5.238302
 30
0.0
 10
4.575681
 20
5.167248
 30
0.0
 10
4.568378
 20
5.093453
 30
0.0
 10
4.578044
 20
5.019901
 30
0.0
 10
4.604632
 20
4.949576
 30
0.0
 10
4.602978
 20
4.949024
 30
0.0
 10
4.639020
 20
4.892705
 30
0.0
 10
4.685771
 20
4.844900
 30
0.0
 10
4.626680
 20
4.776329
 30
0.0
 10
4.628610
 20
4.773352
 30
0.0
 10
4.630539
 20
4.765470
 30
0.0
 10
4.631035
 20
4.758745
 30
0.0
 10
4.630704
 20
4.752792
 30
0.0
 10
4.629933
 20
4.747169
 30
0.0
 10
4.627177
 20
4.736751
 30
0.0
 10
4.623428
 20
4.727160
 30
0.0
 10
4.618853
 20
4.718341
 30
0.0
 10
4.613562
 20
4.709797
 30
0.0
 10
4.601324
 20
4.694142
 30
0.0
 10
4.587213
 20
4.679756
 30
0.0
 10
4.571449
 20
4.666747
 30
0.0
 10
4.554141
 20
4.654841
 30
0.0
 10
4.535454
 20
4.644202
 30
0.0
 10
4.522721
 20
4.629044
 30
0.0
 10
4.517981
 20
4.607381
 30
0.0
 10
4.514949
 20
4.584836
 30
0.0
 10
4.513516
 20
4.561300
 30
0.0
 10
4.513516
 20
4.536991
 30
0.0
 10
4.515170
 20
4.512076
 30
0.0
 10
4.517374
 20
4.493004
 30
0.0
 10
4.585119
 20
4.455852
 30
0.0
 10
4.656336
 20
4.426197
 30
0.0
 10
4.672707
 20
4.436339
 30
0.0
 10
4.693157
 20
4.450616
 30
0.0
 10
4.712174
 20
4.465719
 30
0.0
 10
4.729592
 20
4.481539
 30
0.0
 10
4.745412
 20
4.498020
 30
0.0
 10
4.759413
 20
4.515163
 30
0.0
 10
4.763327
 20
4.534621
 30
0.0
 10
4.759909
 20
4.555843
 30
0.0
 10
4.758421
 20
4.576844
 30
0.0
 10
4.758696
 20
4.597239
 30
0.0
 10
4.760956
 20
4.617303
 30
0.0
 10
4.765642
 20
4.636596
 30
0.0
 10
4.768949
 20
4.646077
 30
0.0
 10
4.773028
 20
4.655171
 30
0.0
 10
4.778154
 20
4.664101
 30
0.0
 10
4.784549
 20
4.672755
 30
0.0
 10
4.788407
 20
4.676889
 30
0.0
 10
4.792817
 20
4.680913
 30
0.0
 10
4.798329
 20
4.684772
 30
0.0
 10
4.805605
 20
4.688245
 30
0.0
 10
4.822968
 20
4.690008
 30
0.0
 10
4.924337
 20
4.685158
 30
0.0
 10
5.023831
 20
4.705167
 30
0.0
 10
5.041249
 20
4.706159
 30
0.0
 10
5.048911
 20
4.703733
 30
0.0
 10
5.054975
 20
4.700867
 30
0.0
 10
5.060101
 20
4.697560
 30
0.0
 10
5.064621
 20
4.694087
 30
0.0
 10
5.072173
 20
4.686591
 30
0.0
 10
5.078567
 20
4.678433
 30
0.0
 10
5.084079
 20
4.669944
 30
0.0
 10
5.088819
 20
4.661125
 30
0.0
 10
5.096261
 20
4.642659
 30
0.0
 10
5.101607
 20
4.623366
 30
0.0
 10
5.104915
 20
4.603192
 30
0.0
 10
5.106513
 20
4.582246
 30
0.0
 10
5.106513
 20
4.560748
 30
0.0
 10
5.113238
 20
4.542007
 30
0.0
 10
5.129665
 20
4.527234
 30
0.0
 10
5.147799
 20
4.513233
 30
0.0
 10
5.167367
 20
4.500280
 30
0.0
 10
5.188424
 20
4.488209
 30
0.0
 10
5.210913
 20
4.477239
 30
0.0
 10
5.228497
 20
4.469632
 30
0.0
 10
5.294533
 20
4.509541
 30
0.0
 10
5.355883
 20
4.556504
 30
0.0
 10
5.355277
 20
4.575741
 30
0.0
 10
5.353127
 20
4.600656
 30
0.0
 10
5.349544
 20
4.624634
 30
0.0
 10
5.344583
 20
4.647675
 30
0.0
 10
5.338189
 20
4.669558
 30
0.0
 10
5.330417
 20
4.690174
 30
0.0
 10
5.315369
 20
4.703348
 30
0.0
 10
5.295305
 20
4.711010
 30
0.0
 10
5.276398
 20
4.720215
 30
0.0
 10
5.258869
 20
4.730688
 30
0.0
 10
5.242719
 20
4.742649
 30
0.0
 10
5.228222
 20
4.756375
 30
0.0
 10
5.221662
 20
4.763871
 30
0.0
 10
5.215819
 20
4.772084
 30
0.0
 10
5.210583
 20
4.780904
 30
0.0
 10
5.206394
 20
4.790770
 30
0.0
 10
5.204740
 20
4.796283
 30
0.0
 10
5.203582
 20
4.802181
 30
0.0
 10
5.203086
 20
4.808850
 30
0.0
 10
5.203748
 20
4.816953
 30
0.0
 10
5.210913
 20
4.832828
 30
0.0
 10
5.265814
 20
4.918156
 30
0.0
 10
5.298171
 20
5.014288
 30
0.0
 10
5.306108
 20
5.029888
 30
0.0
 10
5.312062
 20
5.035400
 30
0.0
 10
5.317519
 20
5.039093
 30
0.0
 10
5.322976
 20
5.041904
 30
0.0
 10
5.328212
 20
5.043944
 30
0.0
 10
5.338575
 20
5.046865
 30
0.0
 10
5.348773
 20
5.048409
 30
0.0
 10
5.358805
 20
5.048960
 30
0.0
 10
5.368727
 20
5.048519
 30
0.0
 10
5.388515
 20
5.045763
 30
0.0
 10
5.407918
 20
5.040636
 30
0.0
 10
5.427045
 20
5.033471
 30
0.0
 10
5.446062
 20
5.024375
 30
0.0
 10
5.464583
 20
5.013627
 30
0.0
 10
5.484206
 20
5.009989
 30
0.0
 10
5.505263
 20
5.016879
 30
0.0
 10
5.526319
 20
5.025533
 30
0.0
 10
5.547375
 20
5.036061
 30
0.0
 10
5.568377
 20
5.048243
 30
0.0
 10
5.589158
 20
5.062134
 30
0.0
 10
5.604536
 20
5.073599
 30
0.0
 10
5.602883
 20
5.150824
 30
0.0
 10
5.592851
 20
5.227388
 30
0.0
 10
5.576038
 20
5.236318
 30
0.0
 10
5.553604
 20
5.246901
 30
0.0
 10
5.531004
 20
5.255831
 30
0.0
 10
5.508570
 20
5.262941
 30
0.0
 10
5.486466
 20
5.268454
 30
0.0
 10
5.464583
 20
5.271926
 30
0.0
 10
5.445786
 20
5.265532
 30
0.0
 10
5.429085
 20
5.252083
 30
0.0
 10
5.411776
 20
5.240287
 30
0.0
 10
5.393917
 20
5.230254
 30
0.0
 10
5.375451
 20
5.222262
 30
0.0
 10
5.356379
 20
5.216584
 30
0.0
 10
5.346513
 20
5.214710
 30
0.0
 10
5.336480
 20
5.213828
 30
0.0
 10
5.326173
 20
5.213828
 30
0.0
 10
5.315589
 20
5.215041
 30
0.0
 10
5.310022
 20
5.216364
 30
0.0
 10
5.304290
 20
5.218293
 30
0.0
 10
5.298171
 20
5.221159
 30
0.0
 10
5.291612
 20
5.225734
 30
0.0
 10
5.284887
 20
5.234829
 30
0.0
 10
5.199062
 20
5.204733
 30
0.0
 10
5.172022
 20
5.262583
 30
0.0
 10
5.134576
 20
5.313600
 30
0.0
 10
5.087949
 20
5.356417
 30
0.0
 10
5.033367
 20
5.389666
 30
0.0
 10
4.972388
 20
5.411806
 30
0.0
 10
4.908241
 20
5.421416
 30
0.0
 10
4.908186
 20
5.421526
 30
0.0
 10
4.875720
 20
5.421526
 30
0.0
 10
4.875720
 20
5.421526
 30
0.0
  0
LWPOLYLINE
  5
10b
100
AcDbEntity
  8
Layer_1
 62
7
100
AcDbPolyline
 90
22
 70
0
 10
4.888618
 20
5.315142
 30
0.0
 10
4.939609
 20
5.310274
 30
0.0
 10
4.988057
 20
5.293644
 30
0.0
 10
5.025723
 20
5.270607
 30
0.0
 10
5.057089
 20
5.241423
 30
0.0
 10
5.099281
 20
5.169292
 30
0.0
 10
5.111355
 20
5.086604
 30
0.0
 10
5.105073
 20
5.044224
 30
0.0
 10
5.090032
 20
5.002713
 30
0.0
 10
5.038930
 20
4.934687
 30
0.0
 10
4.965684
 20
4.891398
 30
0.0
 10
4.881447
 20
4.879438
 30
0.0
 10
4.799045
 20
4.900628
 30
0.0
 10
4.731018
 20
4.951747
 30
0.0
 10
4.687737
 20
5.025012
 30
0.0
 10
4.675797
 20
5.109264
 30
0.0
 10
4.697016
 20
5.191669
 30
0.0
 10
4.730421
 20
5.241890
 30
0.0
 10
4.775397
 20
5.280437
 30
0.0
 10
4.829083
 20
5.305469
 30
0.0
 10
4.888618
 20
5.315142
 30
0.0
 10
4.888618
 20
5.315142
 30
0.0
  0
LWPOLYLINE
  5
10c
100
AcDbEntity
  8
Layer_1
 62
7
100
AcDbPolyline
 90
159
 70
0
 10
6.061053
 20
5.167526
 30
0.0
 10
5.975151
 20
5.151362
 30
0.0
 10
5.897971
 20
5.113714
 30
0.0
 10
5.833403
 20
5.057166
 30
0.0
 10
5.785335
 20
4.984302
 30
0.0
 10
5.761014
 20
4.913248
 30
0.0
 10
5.753711
 20
4.839453
 30
0.0
 10
5.763377
 20
4.765901
 30
0.0
 10
5.789965
 20
4.695576
 30
0.0
 10
5.788312
 20
4.695024
 30
0.0
 10
5.824353
 20
4.638705
 30
0.0
 10
5.871104
 20
4.590900
 30
0.0
 10
5.812014
 20
4.522329
 30
0.0
 10
5.813943
 20
4.519352
 30
0.0
 10
5.815872
 20
4.511470
 30
0.0
 10
5.816368
 20
4.504745
 30
0.0
 10
5.816038
 20
4.498792
 30
0.0
 10
5.815266
 20
4.493169
 30
0.0
 10
5.812510
 20
4.482751
 30
0.0
 10
5.808762
 20
4.473160
 30
0.0
 10
5.804187
 20
4.464341
 30
0.0
 10
5.798895
 20
4.455797
 30
0.0
 10
5.786658
 20
4.440142
 30
0.0
 10
5.772547
 20
4.425756
 30
0.0
 10
5.756782
 20
4.412747
 30
0.0
 10
5.739474
 20
4.400841
 30
0.0
 10
5.720788
 20
4.390202
 30
0.0
 10
5.708055
 20
4.375044
 30
0.0
 10
5.703314
 20
4.353381
 30
0.0
 10
5.700283
 20
4.330836
 30
0.0
 10
5.698849
 20
4.307300
 30
0.0
 10
5.698849
 20
4.282991
 30
0.0
 10
5.700503
 20
4.258076
 30
0.0
 10
5.702708
 20
4.239004
 30
0.0
 10
5.770452
 20
4.201852
 30
0.0
 10
5.841669
 20
4.172197
 30
0.0
 10
5.858040
 20
4.182339
 30
0.0
 10
5.878490
 20
4.196616
 30
0.0
 10
5.897507
 20
4.211719
 30
0.0
 10
5.914926
 20
4.227539
 30
0.0
 10
5.930746
 20
4.244020
 30
0.0
 10
5.944746
 20
4.261163
 30
0.0
 10
5.948660
 20
4.280621
 30
0.0
 10
5.945242
 20
4.301843
 30
0.0
 10
5.943754
 20
4.322844
 30
0.0
 10
5.944030
 20
4.343239
 30
0.0
 10
5.946290
 20
4.363303
 30
0.0
 10
5.950975
 20
4.382596
 30
0.0
 10
5.954283
 20
4.392077
 30
0.0
 10
5.958362
 20
4.401171
 30
0.0
 10
5.963488
 20
4.410101
 30
0.0
 10
5.969882
 20
4.418755
 30
0.0
 10
5.973740
 20
4.422889
 30
0.0
 10
5.978150
 20
4.426913
 30
0.0
 10
5.983662
 20
4.430772
 30
0.0
 10
5.990938
 20
4.434245
 30
0.0
 10
6.008302
 20
4.436008
 30
0.0
 10
6.109670
 20
4.431158
 30
0.0
 10
6.209165
 20
4.451167
 30
0.0
 10
6.226583
 20
4.452159
 30
0.0
 10
6.234245
 20
4.449733
 30
0.0
 10
6.240308
 20
4.446867
 30
0.0
 10
6.245434
 20
4.443560
 30
0.0
 10
6.249954
 20
4.440087
 30
0.0
 10
6.257506
 20
4.432591
 30
0.0
 10
6.263900
 20
4.424433
 30
0.0
 10
6.269412
 20
4.415944
 30
0.0
 10
6.274153
 20
4.407125
 30
0.0
 10
6.281594
 20
4.388659
 30
0.0
 10
6.286941
 20
4.369366
 30
0.0
 10
6.290248
 20
4.349192
 30
0.0
 10
6.291847
 20
4.328246
 30
0.0
 10
6.291847
 20
4.306748
 30
0.0
 10
6.298571
 20
4.288007
 30
0.0
 10
6.314998
 20
4.273234
 30
0.0
 10
6.333133
 20
4.259233
 30
0.0
 10
6.352701
 20
4.246280
 30
0.0
 10
6.373757
 20
4.234209
 30
0.0
 10
6.396247
 20
4.223239
 30
0.0
 10
6.413831
 20
4.215632
 30
0.0
 10
6.479866
 20
4.255541
 30
0.0
 10
6.541216
 20
4.302504
 30
0.0
 10
6.540610
 20
4.321741
 30
0.0
 10
6.538460
 20
4.346656
 30
0.0
 10
6.534877
 20
4.370634
 30
0.0
 10
6.529917
 20
4.393675
 30
0.0
 10
6.523523
 20
4.415558
 30
0.0
 10
6.515750
 20
4.436174
 30
0.0
 10
6.500702
 20
4.449348
 30
0.0
 10
6.480638
 20
4.457010
 30
0.0
 10
6.461731
 20
4.466215
 30
0.0
 10
6.444203
 20
4.476688
 30
0.0
 10
6.428052
 20
4.488649
 30
0.0
 10
6.413555
 20
4.502375
 30
0.0
 10
6.406996
 20
4.509871
 30
0.0
 10
6.401153
 20
4.518084
 30
0.0
 10
6.395916
 20
4.526904
 30
0.0
 10
6.391727
 20
4.536770
 30
0.0
 10
6.390073
 20
4.542283
 30
0.0
 10
6.388916
 20
4.548181
 30
0.0
 10
6.388420
 20
4.554850
 30
0.0
 10
6.389081
 20
4.562953
 30
0.0
 10
6.396247
 20
4.578828
 30
0.0
 10
6.451148
 20
4.664156
 30
0.0
 10
6.483504
 20
4.760288
 30
0.0
 10
6.491442
 20
4.775888
 30
0.0
 10
6.497395
 20
4.781400
 30
0.0
 10
6.502852
 20
4.785093
 30
0.0
 10
6.508309
 20
4.787904
 30
0.0
 10
6.513545
 20
4.789944
 30
0.0
 10
6.523908
 20
4.792865
 30
0.0
 10
6.534106
 20
4.794409
 30
0.0
 10
6.544138
 20
4.794960
 30
0.0
 10
6.554060
 20
4.794519
 30
0.0
 10
6.573848
 20
4.791763
 30
0.0
 10
6.593251
 20
4.786636
 30
0.0
 10
6.612379
 20
4.779471
 30
0.0
 10
6.631395
 20
4.770375
 30
0.0
 10
6.649916
 20
4.759627
 30
0.0
 10
6.669540
 20
4.755989
 30
0.0
 10
6.690596
 20
4.762879
 30
0.0
 10
6.711652
 20
4.771533
 30
0.0
 10
6.732709
 20
4.782061
 30
0.0
 10
6.753710
 20
4.794243
 30
0.0
 10
6.774491
 20
4.808134
 30
0.0
 10
6.789870
 20
4.819599
 30
0.0
 10
6.788216
 20
4.896824
 30
0.0
 10
6.778184
 20
4.973388
 30
0.0
 10
6.761372
 20
4.982318
 30
0.0
 10
6.738937
 20
4.992901
 30
0.0
 10
6.716338
 20
5.001831
 30
0.0
 10
6.693903
 20
5.008942
 30
0.0
 10
6.671799
 20
5.014454
 30
0.0
 10
6.649916
 20
5.017926
 30
0.0
 10
6.631120
 20
5.011532
 30
0.0
 10
6.614418
 20
4.998082
 30
0.0
 10
6.597110
 20
4.986286
 30
0.0
 10
6.579250
 20
4.976255
 30
0.0
 10
6.560785
 20
4.968262
 30
0.0
 10
6.541713
 20
4.962584
 30
0.0
 10
6.531846
 20
4.960710
 30
0.0
 10
6.521814
 20
4.959828
 30
0.0
 10
6.511506
 20
4.959828
 30
0.0
 10
6.500923
 20
4.961041
 30
0.0
 10
6.495355
 20
4.962364
 30
0.0
 10
6.489623
 20
4.964293
 30
0.0
 10
6.483504
 20
4.967159
 30
0.0
 10
6.476945
 20
4.971734
 30
0.0
 10
6.470220
 20
4.980829
 30
0.0
 10
6.384396
 20
4.950733
 30
0.0
 10
6.357356
 20
5.008583
 30
0.0
 10
6.319910
 20
5.059600
 30
0.0
 10
6.273283
 20
5.102417
 30
0.0
 10
6.218701
 20
5.135666
 30
0.0
 10
6.157722
 20
5.157805
 30
0.0
 10
6.093574
 20
5.167416
 30
0.0
 10
6.093519
 20
5.167526
 30
0.0
 10
6.061053
 20
5.167526
 30
0.0
 10
6.061053
 20
5.167526
 30
0.0
  0
LWPOLYLINE
  5
10d
100
AcDbEntity
  8
Layer_1
 62
7
100
AcDbPolyline
 90
22
 70
0
 10
6.073951
 20
5.061142
 30
0.0
 10
6.124942
 20
5.056274
 30
0.0
 10
6.173391
 20
5.039644
 30
0.0
 10
6.211057
 20
5.016607
 30
0.0
 10
6.242422
 20
4.987423
 30
0.0
 10
6.284614
 20
4.915292
 30
0.0
 10
6.296688
 20
4.832604
 30
0.0
 10
6.290406
 20
4.790224
 30
0.0
 10
6.275365
 20
4.748713
 30
0.0
 10
6.224263
 20
4.680687
 30
0.0
 10
6.151017
 20
4.637398
 30
0.0
 10
6.066780
 20
4.625438
 30
0.0
 10
5.984379
 20
4.646628
 30
0.0
 10
5.916351
 20
4.697747
 30
0.0
 10
5.873071
 20
4.771012
 30
0.0
 10
5.861131
 20
4.855264
 30
0.0
 10
5.882349
 20
4.937669
 30
0.0
 10
5.915755
 20
4.987890
 30
0.0
 10
5.960730
 20
5.026437
 30
0.0
 10
6.014416
 20
5.051469
 30
0.0
 10
6.073951
 20
5.061142
 30
0.0
 10
6.073951
 20
5.061142
 30
0.0
  0
LWPOLYLINE
  5
10e
100
AcDbEntity
  8
Layer_1
 62
7
100
AcDbPolyline
 90
159
 70
0
 10
7.232275
 20
4.885304
 30
0.0
 10
7.146373
 20
4.869139
 30
0.0
 10
7.069194
 20
4.831491
 30
0.0
 10
7.004626
 20
4.774944
 30
0.0
 10
6.956557
 20
4.702080
 30
0.0
 10
6.932237
 20
4.631026
 30
0.0
 10
6.924933
 20
4.557231
 30
0.0
 10
6.934599
 20
4.483679
 30
0.0
 10
6.961187
 20
4.413353
 30
0.0
 10
6.959534
 20
4.412802
 30
0.0
 10
6.995576
 20
4.356482
 30
0.0
 10
7.042326
 20
4.308678
 30
0.0
 10
6.983236
 20
4.240106
 30
0.0
 10
6.985165
 20
4.237130
 30
0.0
 10
6.987095
 20
4.229247
 30
0.0
 10
6.987591
 20
4.222523
 30
0.0
 10
6.987260
 20
4.216570
 30
0.0
 10
6.986488
 20
4.210947
 30
0.0
 10
6.983732
 20
4.200529
 30
0.0
 10
6.979984
 20
4.190938
 30
0.0
 10
6.975409
 20
4.182118
 30
0.0
 10
6.970117
 20
4.173575
 30
0.0
 10
6.957880
 20
4.157920
 30
0.0
 10
6.943769
 20
4.143534
 30
0.0
 10
6.928004
 20
4.130525
 30
0.0
 10
6.910696
 20
4.118618
 30
0.0
 10
6.892010
 20
4.107980
 30
0.0
 10
6.879277
 20
4.092822
 30
0.0
 10
6.874536
 20
4.071159
 30
0.0
 10
6.871505
 20
4.048614
 30
0.0
 10
6.870071
 20
4.025077
 30
0.0
 10
6.870071
 20
4.000769
 30
0.0
 10
6.871725
 20
3.975854
 30
0.0
 10
6.873930
 20
3.956782
 30
0.0
 10
6.941674
 20
3.919630
 30
0.0
 10
7.012891
 20
3.889974
 30
0.0
 10
7.029263
 20
3.900117
 30
0.0
 10
7.049713
 20
3.914393
 30
0.0
 10
7.068730
 20
3.929497
 30
0.0
 10
7.086148
 20
3.945317
 30
0.0
 10
7.101968
 20
3.961798
 30
0.0
 10
7.115969
 20
3.978940
 30
0.0
 10
7.119882
 20
3.998399
 30
0.0
 10
7.116465
 20
4.019620
 30
0.0
 10
7.114977
 20
4.040622
 30
0.0
 10
7.115252
 20
4.061017
 30
0.0
 10
7.117512
 20
4.081081
 30
0.0
 10
7.122197
 20
4.100373
 30
0.0
 10
7.125505
 20
4.109854
 30
0.0
 10
7.129584
 20
4.118949
 30
0.0
 10
7.134710
 20
4.127879
 30
0.0
 10
7.141104
 20
4.136533
 30
0.0
 10
7.144963
 20
4.140667
 30
0.0
 10
7.149372
 20
4.144691
 30
0.0
 10
7.154884
 20
4.148550
 30
0.0
 10
7.162160
 20
4.152022
 30
0.0
 10
7.179524
 20
4.153786
 30
0.0
 10
7.280892
 20
4.148935
 30
0.0
 10
7.380387
 20
4.168945
 30
0.0
 10
7.397805
 20
4.169937
 30
0.0
 10
7.405467
 20
4.167511
 30
0.0
 10
7.411530
 20
4.164645
 30
0.0
 10
7.416657
 20
4.161338
 30
0.0
 10
7.421177
 20
4.157865
 30
0.0
 10
7.428728
 20
4.150368
 30
0.0
 10
7.435122
 20
4.142211
 30
0.0
 10
7.440634
 20
4.133722
 30
0.0
 10
7.445375
 20
4.124902
 30
0.0
 10
7.452816
 20
4.106437
 30
0.0
 10
7.458163
 20
4.087144
 30
0.0
 10
7.461470
 20
4.066970
 30
0.0
 10
7.463069
 20
4.046024
 30
0.0
 10
7.463069
 20
4.024526
 30
0.0
 10
7.469794
 20
4.005785
 30
0.0
 10
7.486220
 20
3.991012
 30
0.0
 10
7.504355
 20
3.977011
 30
0.0
 10
7.523923
 20
3.964058
 30
0.0
 10
7.544980
 20
3.951986
 30
0.0
 10
7.567469
 20
3.941017
 30
0.0
 10
7.585053
 20
3.933410
 30
0.0
 10
7.651088
 20
3.973318
 30
0.0
 10
7.712439
 20
4.020282
 30
0.0
 10
7.711832
 20
4.039519
 30
0.0
 10
7.709683
 20
4.064434
 30
0.0
 10
7.706100
 20
4.088412
 30
0.0
 10
7.701139
 20
4.111453
 30
0.0
 10
7.694745
 20
4.133336
 30
0.0
 10
7.686973
 20
4.153952
 30
0.0
 10
7.671924
 20
4.167125
 30
0.0
 10
7.651860
 20
4.174787
 30
0.0
 10
7.632953
 20
4.183993
 30
0.0
 10
7.615425
 20
4.194466
 30
0.0
 10
7.599274
 20
4.206427
 30
0.0
 10
7.584777
 20
4.220152
 30
0.0
 10
7.578218
 20
4.227649
 30
0.0
 10
7.572375
 20
4.235862
 30
0.0
 10
7.567138
 20
4.244681
 30
0.0
 10
7.562949
 20
4.254548
 30
0.0
 10
7.561295
 20
4.260060
 30
0.0
 10
7.560138
 20
4.265959
 30
0.0
 10
7.559642
 20
4.272628
 30
0.0
 10
7.560303
 20
4.280731
 30
0.0
 10
7.567469
 20
4.296606
 30
0.0
 10
7.622370
 20
4.381934
 30
0.0
 10
7.654727
 20
4.478066
 30
0.0
 10
7.662664
 20
4.493666
 30
0.0
 10
7.668617
 20
4.499178
 30
0.0
 10
7.674074
 20
4.502871
 30
0.0
 10
7.679531
 20
4.505682
 30
0.0
 10
7.684768
 20
4.507721
 30
0.0
 10
7.695131
 20
4.510643
 30
0.0
 10
7.705328
 20
4.512186
 30
0.0
 10
7.715360
 20
4.512738
 30
0.0
 10
7.725282
 20
4.512296
 30
0.0
 10
7.745071
 20
4.509541
 30
0.0
 10
7.764473
 20
4.504414
 30
0.0
 10
7.783601
 20
4.497248
 30
0.0
 10
7.802617
 20
4.488153
 30
0.0
 10
7.821138
 20
4.477404
 30
0.0
 10
7.840762
 20
4.473767
 30
0.0
 10
7.861818
 20
4.480657
 30
0.0
 10
7.882874
 20
4.489311
 30
0.0
 10
7.903931
 20
4.499839
 30
0.0
 10
7.924932
 20
4.512021
 30
0.0
 10
7.945713
 20
4.525911
 30
0.0
 10
7.961092
 20
4.537377
 30
0.0
 10
7.959438
 20
4.614602
 30
0.0
 10
7.949406
 20
4.691166
 30
0.0
 10
7.932594
 20
4.700096
 30
0.0
 10
7.910160
 20
4.710679
 30
0.0
 10
7.887560
 20
4.719608
 30
0.0
 10
7.865180
 20
4.726719
 30
0.0
 10
7.843022
 20
4.732231
 30
0.0
 10
7.821138
 20
4.735704
 30
0.0
 10
7.802342
 20
4.729310
 30
0.0
 10
7.785640
 20
4.715860
 30
0.0
 10
7.768332
 20
4.704064
 30
0.0
 10
7.750473
 20
4.694032
 30
0.0
 10
7.732007
 20
4.686040
 30
0.0
 10
7.712935
 20
4.680362
 30
0.0
 10
7.703068
 20
4.678488
 30
0.0
 10
7.693036
 20
4.677606
 30
0.0
 10
7.682728
 20
4.677606
 30
0.0
 10
7.672145
 20
4.678819
 30
0.0
 10
7.666578
 20
4.680142
 30
0.0
 10
7.660845
 20
4.682071
 30
0.0
 10
7.654727
 20
4.684937
 30
0.0
 10
7.648167
 20
4.689512
 30
0.0
 10
7.641442
 20
4.698607
 30
0.0
 10
7.555673
 20
4.668511
 30
0.0
 10
7.528622
 20
4.726367
 30
0.0
 10
7.491162
 20
4.777386
 30
0.0
 10
7.444521
 20
4.820201
 30
0.0
 10
7.389923
 20
4.853444
 30
0.0
 10
7.328944
 20
4.875583
 30
0.0
 10
7.264797
 20
4.885194
 30
0.0
 10
7.264742
 20
4.885304
 30
0.0
 10
7.232275
 20
4.885304
 30
0.0
 10
7.232275
 20
4.885304
 30
0.0
  0
LWPOLYLINE
  5
10f
100
AcDbEntity
  8
Layer_1
 62
7
100
AcDbPolyline
 90
23
 70
0
 10
7.245174
 20
4.778919
 30
0.0
 10
7.245229
 20
4.778919
 30
0.0
 10
7.296191
 20
4.774045
 30
0.0
 10
7.344613
 20
4.757422
 30
0.0
 10
7.382279
 20
4.734385
 30
0.0
 10
7.413645
 20
4.705201
 30
0.0
 10
7.455837
 20
4.633070
 30
0.0
 10
7.467911
 20
4.550382
 30
0.0
 10
7.461629
 20
4.508002
 30
0.0
 10
7.446588
 20
4.466491
 30
0.0
 10
7.395486
 20
4.398465
 30
0.0
 10
7.322239
 20
4.355176
 30
0.0
 10
7.238002
 20
4.343216
 30
0.0
 10
7.155601
 20
4.364406
 30
0.0
 10
7.087573
 20
4.415524
 30
0.0
 10
7.044293
 20
4.488790
 30
0.0
 10
7.032353
 20
4.573041
 30
0.0
 10
7.053571
 20
4.655447
 30
0.0
 10
7.086977
 20
4.705667
 30
0.0
 10
7.131953
 20
4.744215
 30
0.0
 10
7.185638
 20
4.769247
 30
0.0
 10
7.245174
 20
4.778919
 30
0.0
 10
7.245174
 20
4.778919
 30
0.0
  0
ENDSEC
  0
SECTION
  2
OBJECTS
  0
DICTIONARY
  5
C
330
0
100
AcDbDictionary
  3
ACAD_GROUP
350
D
  3
ACAD_MLINESTYLE
350
17
  0
DICTIONARY
  5
D
330
C
100
AcDbDictionary
  0
DICTIONARY
  5
1A
330
C
100
AcDbDictionary
  0
DICTIONARY
  5
17
330
C
100
AcDbDictionary
  3
STANDARD
350
18
  0
DICTIONARY
  5
19
330
C
100
AcDbDictionary
  0
ENDSEC
  0
EOF
