  0
SECTION
  2
HEADER
  9
$ACADVER
  1
AC1014
  9
$HANDSEED
  5
FFFF
  9
$INSUNITS
 70
     4
  9
$MEASUREMENT
 70
     1
  0
ENDSEC
  0
SECTION
  2
TABLES
  0
TABLE
  2
VPORT
  5
8
330
0
100
AcDbSymbolTable
 70
     4
  0
VPORT
  5
2E
330
8
100
AcDbSymbolTableRecord
100
AcDbViewportTableRecord
  2
*ACTIVE
 70
     0
 10
0.0
 20
0.0
 11
1.0
 21
1.0
 12
210.0
 22
148.5
 13
0.0
 23
0.0
 14
10.0
 24
10.0
 15
10.0
 25
10.0
 16
0.0
 26
0.0
 36
1.0
 17
0.0
 27
0.0
 37
0.0
 40
341.0
 41
1.24
 42
50.0
 43
0.0
 44
0.0
 50
0.0
 51
0.0
 71
     0
 72
   100
 73
     1
 74
     3
 75
     0
 76
     0
 77
     0
 78
     0
  0
ENDTAB
  0
TABLE
  2
LTYPE
  5
5
330
0
100
AcDbSymbolTable
 70
     1
  0
LTYPE
  5
14
330
5
100
AcDbSymbolTableRecord
100
AcDbLinetypeTableRecord
  2
BYBLOCK
 70
     0
  3

 72
    65
 73
     0
 40
0.0
  0
LTYPE
  5
15
330
5
100
AcDbSymbolTableRecord
100
AcDbLinetypeTableRecord
  2
BYLAYER
 70
     0
  3

 72
    65
 73
     0
 40
0.0
  0
LTYPE
  5
16
330
5
100
AcDbSymbolTableRecord
100
AcDbLinetypeTableRecord
  2
CONTINUOUS
 70
     0
  3
Solid line
 72
    65
 73
     0
 40
0.0
  0
ENDTAB
  0
TABLE
  2
LAYER
  5
2
100
AcDbSymbolTable
 70
2
  0
LAYER
  5
50
100
AcDbSymbolTableRecord
100
AcDbLayerTableRecord
  2
0
 70
0
  6
CONTINUOUS
  0
LAYER
  5
51
100
AcDbSymbolTableRecord
100
AcDbLayerTableRecord
  2
Layer_1
 70
0
  6
CONTINUOUS
  0
ENDTAB
  0
TABLE
  2
STYLE
  5
3
330
0
100
AcDbSymbolTable
 70
     1
  0
STYLE
  5
11
330
3
100
AcDbSymbolTableRecord
100
AcDbTextStyleTableRecord
  2
STANDARD
 70
     0
 40
0.0
 41
1.0
 50
0.0
 71
     0
 42
2.5
  3
txt
  4

  0
ENDTAB
  0
TABLE
  2
VIEW
  5
6
330
0
100
AcDbSymbolTable
 70
     0
  0
ENDTAB
  0
TABLE
  2
UCS
  5
7
330
0
100
AcDbSymbolTable
 70
     0
  0
ENDTAB
  0
TABLE
  2
APPID
  5
9
330
0
100
AcDbSymbolTable
 70
     2
  0
APPID
  5
12
330
9
100
AcDbSymbolTableRecord
100
AcDbRegAppTableRecord
  2
ACAD
 70
     0
  0
ENDTAB
  0
TABLE
  2
DIMSTYLE
  5
A
330
0
100
AcDbSymbolTable
 70
     1
  0
DIMSTYLE
105
27
330
A
100
AcDbSymbolTableRecord
100
AcDbDimStyleTableRecord
  2
ISO-25
 70
     0
  3

  4

  5

  6

  7

 40
1.0
 41
2.5
 42
0.625
 43
3.75
 44
1.25
 45
0.0
 46
0.0
 47
0.0
 48
0.0
140
2.5
141
2.5
142
0.0
143
0.03937007874016
144
1.0
145
0.0
146
1.0
147
0.625
 71
     0
 72
     0
 73
     0
 74
     0
 75
     0
 76
     0
 77
     1
 78
     8
170
     0
171
     3
172
     1
173
     0
174
     0
175
     0
176
     0
177
     0
178
     0
270
     2
271
     2
272
     2
273
     2
274
     3
340
11
275
     0
280
     0
281
     0
282
     0
283
     0
284
     8
285
     0
286
     0
287
     3
288
     0
  0
ENDTAB
  0
TABLE
  2
BLOCK_RECORD
  5
1
330
0
100
AcDbSymbolTable
 70
     1
  0
BLOCK_RECORD
  5
1F
330
1
100
AcDbSymbolTableRecord
100
AcDbBlockTableRecord
  2
*MODEL_SPACE
  0
BLOCK_RECORD
  5
1B
330
1
100
AcDbSymbolTableRecord
100
AcDbBlockTableRecord
  2
*PAPER_SPACE
  0
ENDTAB
  0
ENDSEC
  0
SECTION
  2
BLOCKS
  0
BLOCK
  5
20
330
1F
100
AcDbEntity
  8
0
100
AcDbBlockBegin
  2
*MODEL_SPACE
 70
     0
 10
0.0
 20
0.0
 30
0.0
  3
*MODEL_SPACE
  1

  0
ENDBLK
  5
21
330
1F
100
AcDbEntity
  8
0
100
AcDbBlockEnd
  0
BLOCK
  5
1C
330
1B
100
AcDbEntity
 67
     1
  8
0
100
AcDbBlockBegin
  2
*PAPER_SPACE
  1

  0
ENDBLK
  5
1D
330
1B
100
AcDbEntity
 67
     1
  8
0
100
AcDbBlockEnd
  0
ENDSEC
  0
SECTION
  2
ENTITIES
  0
LWPOLYLINE
  5
100
100
AcDbEntity
  8
Layer_1
 62
7
100
AcDbPolyline
 90
2
 70
0
 10
43.500000
 20
270.000000
 30
0.0
 10
43.500000
 20
239.000002
 30
0.0
  0
LWPOLYLINE
  5
101
100
AcDbEntity
  8
Layer_1
 62
7
100
AcDbPolyline
 90
109
 70
1
 10
32.000100
 20
287.499800
 30
0.0
 10
32.000100
 20
287.465180
 30
0.0
 10
28.605000
 20
287.456910
 30
0.0
 10
8.734510
 20
284.721000
 30
0.0
 10
7.500470
 20
283.349500
 30
0.0
 10
7.500470
 20
272.416100
 30
0.0
 10
7.500470
 20
272.415100
 30
0.0
 10
7.500470
 20
272.412000
 30
0.0
 10
7.500470
 20
272.409400
 30
0.0
 10
7.642110
 20
271.709000
 30
0.0
 10
8.028250
 20
271.137300
 30
0.0
 10
8.600730
 20
270.752000
 30
0.0
 10
9.301400
 20
270.611000
 30
0.0
 10
10.001900
 20
270.752900
 30
0.0
 10
10.573800
 20
271.139000
 30
0.0
 10
10.959200
 20
271.711300
 30
0.0
 10
11.100300
 20
272.411900
 30
0.0
 10
11.000000
 20
273.000000
 30
0.0
 10
11.000000
 20
281.500000
 30
0.0
 10
28.848900
 20
283.958900
 30
0.0
 10
32.000100
 20
283.968200
 30
0.0
 10
32.000200
 20
280.500300
 30
0.0
 10
32.000200
 20
280.496700
 30
0.0
 10
32.275700
 20
279.135100
 30
0.0
 10
33.026700
 20
278.023700
 30
0.0
 10
34.140000
 20
277.274800
 30
0.0
 10
35.502400
 20
277.000800
 30
0.0
 10
36.863900
 20
277.276300
 30
0.0
 10
37.975800
 20
278.026400
 30
0.0
 10
38.725400
 20
279.138600
 30
0.0
 10
39.000300
 20
280.500300
 30
0.0
 10
38.998200
 20
283.000800
 30
0.0
 10
38.997700
 20
283.000800
 30
0.0
 10
38.997700
 20
283.500500
 30
0.0
 10
39.144300
 20
283.853900
 30
0.0
 10
39.497900
 20
284.000200
 30
0.0
 10
39.851200
 20
283.853800
 30
0.0
 10
39.997700
 20
283.500500
 30
0.0
 10
39.999800
 20
281.000000
 30
0.0
 10
40.000300
 20
281.000000
 30
0.0
 10
40.000100
 20
280.503700
 30
0.0
 10
40.000100
 20
280.500100
 30
0.0
 10
40.275600
 20
279.138500
 30
0.0
 10
41.026600
 20
278.027100
 30
0.0
 10
42.139900
 20
277.278200
 30
0.0
 10
43.502200
 20
277.004200
 30
0.0
 10
44.863800
 20
277.279800
 30
0.0
 10
45.975600
 20
278.029900
 30
0.0
 10
46.725200
 20
279.142000
 30
0.0
 10
47.000200
 20
280.503700
 30
0.0
 10
47.000400
 20
281.000000
 30
0.0
 10
46.999800
 20
281.000000
 30
0.0
 10
46.997700
 20
283.500500
 30
0.0
 10
47.144400
 20
283.854000
 30
0.0
 10
47.498000
 20
284.000200
 30
0.0
 10
47.851200
 20
283.853800
 30
0.0
 10
47.997700
 20
283.500500
 30
0.0
 10
48.000000
 20
279.500000
 30
0.0
 10
48.000000
 20
279.120700
 30
0.0
 10
42.919700
 20
274.040900
 30
0.0
 10
42.254400
 20
273.409300
 30
0.0
 10
41.999800
 20
272.499900
 30
0.0
 10
42.000000
 20
267.000000
 30
0.0
 10
42.137500
 20
266.318900
 30
0.0
 10
42.512500
 20
265.762700
 30
0.0
 10
43.068600
 20
265.387700
 30
0.0
 10
43.749800
 20
265.250200
 30
0.0
 10
44.431000
 20
265.387700
 30
0.0
 10
44.987400
 20
265.762700
 30
0.0
 10
45.362500
 20
266.318900
 30
0.0
 10
45.500000
 20
267.000000
 30
0.0
 10
45.499900
 20
272.379000
 30
0.0
 10
50.999800
 20
277.878900
 30
0.0
 10
50.999800
 20
279.500000
 30
0.0
 10
51.000300
 20
279.500000
 30
0.0
 10
50.998000
 20
283.500500
 30
0.0
 10
50.723000
 20
284.862200
 30
0.0
 10
49.973400
 20
285.974300
 30
0.0
 10
48.861600
 20
286.724400
 30
0.0
 10
47.500000
 20
287.000000
 30
0.0
 10
46.137700
 20
286.726000
 30
0.0
 10
45.024400
 20
285.977100
 30
0.0
 10
44.273400
 20
284.865600
 30
0.0
 10
43.997900
 20
283.504100
 30
0.0
 10
43.997900
 20
283.500500
 30
0.0
 10
44.000000
 20
281.000000
 30
0.0
 10
43.999900
 20
280.503700
 30
0.0
 10
43.853400
 20
280.150400
 30
0.0
 10
43.500200
 20
280.004000
 30
0.0
 10
43.146600
 20
280.150300
 30
0.0
 10
42.999900
 20
280.503700
 30
0.0
 10
43.000100
 20
281.000000
 30
0.0
 10
42.998000
 20
283.500500
 30
0.0
 10
42.723000
 20
284.862200
 30
0.0
 10
41.973400
 20
285.974300
 30
0.0
 10
40.861600
 20
286.724400
 30
0.0
 10
39.500000
 20
287.000000
 30
0.0
 10
38.137600
 20
286.726000
 30
0.0
 10
37.024400
 20
285.977100
 30
0.0
 10
36.273400
 20
284.865600
 30
0.0
 10
35.997900
 20
283.504100
 30
0.0
 10
35.997900
 20
283.500500
 30
0.0
 10
36.000000
 20
281.000000
 30
0.0
 10
36.000000
 20
280.500300
 30
0.0
 10
35.853600
 20
280.147000
 30
0.0
 10
35.500300
 20
280.000600
 30
0.0
 10
35.146700
 20
280.146800
 30
0.0
 10
35.000100
 20
280.500300
 30
0.0
 10
34.999900
 20
287.499800
 30
0.0
  0
ENDSEC
  0
SECTION
  2
OBJECTS
  0
DICTIONARY
  5
C
330
0
100
AcDbDictionary
  3
ACAD_GROUP
350
D
  3
ACAD_MLINESTYLE
350
17
  0
DICTIONARY
  5
D
330
C
100
AcDbDictionary
  0
DICTIONARY
  5
1A
330
C
100
AcDbDictionary
  0
DICTIONARY
  5
17
330
C
100
AcDbDictionary
  3
STANDARD
350
18
  0
DICTIONARY
  5
19
330
C
100
AcDbDictionary
  0
ENDSEC
  0
EOF
