  0
SECTION
  2
HEADER
  9
$ACADVER
  1
AC1014
  9
$HANDSEED
  5
FFFF
  9
$MEASUREMENT
 70
     1
  0
ENDSEC
  0
SECTION
  2
TABLES
  0
TABLE
  2
VPORT
  5
8
330
0
100
AcDbSymbolTable
 70
     4
  0
VPORT
  5
2E
330
8
100
AcDbSymbolTableRecord
100
AcDbViewportTableRecord
  2
*ACTIVE
 70
     0
 10
0.0
 20
0.0
 11
1.0
 21
1.0
 12
210.0
 22
148.5
 13
0.0
 23
0.0
 14
10.0
 24
10.0
 15
10.0
 25
10.0
 16
0.0
 26
0.0
 36
1.0
 17
0.0
 27
0.0
 37
0.0
 40
341.0
 41
1.24
 42
50.0
 43
0.0
 44
0.0
 50
0.0
 51
0.0
 71
     0
 72
   100
 73
     1
 74
     3
 75
     0
 76
     0
 77
     0
 78
     0
  0
ENDTAB
  0
TABLE
  2
LTYPE
  5
5
330
0
100
AcDbSymbolTable
 70
     1
  0
LTYPE
  5
14
330
5
100
AcDbSymbolTableRecord
100
AcDbLinetypeTableRecord
  2
BYBLOCK
 70
     0
  3

 72
    65
 73
     0
 40
0.0
  0
LTYPE
  5
15
330
5
100
AcDbSymbolTableRecord
100
AcDbLinetypeTableRecord
  2
BYLAYER
 70
     0
  3

 72
    65
 73
     0
 40
0.0
  0
LTYPE
  5
16
330
5
100
AcDbSymbolTableRecord
100
AcDbLinetypeTableRecord
  2
CONTINUOUS
 70
     0
  3
Solid line
 72
    65
 73
     0
 40
0.0
  0
ENDTAB
  0
TABLE
  2
LAYER
  5
2
100
AcDbSymbolTable
 70
2
  0
LAYER
  5
50
100
AcDbSymbolTableRecord
100
AcDbLayerTableRecord
  2
0
 70
0
  6
CONTINUOUS
  0
LAYER
  5
51
100
AcDbSymbolTableRecord
100
AcDbLayerTableRecord
  2
Layer_1
 70
0
  6
CONTINUOUS
  0
ENDTAB
  0
TABLE
  2
STYLE
  5
3
330
0
100
AcDbSymbolTable
 70
     1
  0
STYLE
  5
11
330
3
100
AcDbSymbolTableRecord
100
AcDbTextStyleTableRecord
  2
STANDARD
 70
     0
 40
0.0
 41
1.0
 50
0.0
 71
     0
 42
2.5
  3
txt
  4

  0
ENDTAB
  0
TABLE
  2
VIEW
  5
6
330
0
100
AcDbSymbolTable
 70
     0
  0
ENDTAB
  0
TABLE
  2
UCS
  5
7
330
0
100
AcDbSymbolTable
 70
     0
  0
ENDTAB
  0
TABLE
  2
APPID
  5
9
330
0
100
AcDbSymbolTable
 70
     2
  0
APPID
  5
12
330
9
100
AcDbSymbolTableRecord
100
AcDbRegAppTableRecord
  2
ACAD
 70
     0
  0
ENDTAB
  0
TABLE
  2
DIMSTYLE
  5
A
330
0
100
AcDbSymbolTable
 70
     1
  0
DIMSTYLE
105
27
330
A
100
AcDbSymbolTableRecord
100
AcDbDimStyleTableRecord
  2
ISO-25
 70
     0
  3

  4

  5

  6

  7

 40
1.0
 41
2.5
 42
0.625
 43
3.75
 44
1.25
 45
0.0
 46
0.0
 47
0.0
 48
0.0
140
2.5
141
2.5
142
0.0
143
0.03937007874016
144
1.0
145
0.0
146
1.0
147
0.625
 71
     0
 72
     0
 73
     0
 74
     0
 75
     0
 76
     0
 77
     1
 78
     8
170
     0
171
     3
172
     1
173
     0
174
     0
175
     0
176
     0
177
     0
178
     0
270
     2
271
     2
272
     2
273
     2
274
     3
340
11
275
     0
280
     0
281
     0
282
     0
283
     0
284
     8
285
     0
286
     0
287
     3
288
     0
  0
ENDTAB
  0
TABLE
  2
BLOCK_RECORD
  5
1
330
0
100
AcDbSymbolTable
 70
     1
  0
BLOCK_RECORD
  5
1F
330
1
100
AcDbSymbolTableRecord
100
AcDbBlockTableRecord
  2
*MODEL_SPACE
  0
BLOCK_RECORD
  5
1B
330
1
100
AcDbSymbolTableRecord
100
AcDbBlockTableRecord
  2
*PAPER_SPACE
  0
ENDTAB
  0
ENDSEC
  0
SECTION
  2
BLOCKS
  0
BLOCK
  5
20
330
1F
100
AcDbEntity
  8
0
100
AcDbBlockBegin
  2
*MODEL_SPACE
 70
     0
 10
0.0
 20
0.0
 30
0.0
  3
*MODEL_SPACE
  1

  0
ENDBLK
  5
21
330
1F
100
AcDbEntity
  8
0
100
AcDbBlockEnd
  0
BLOCK
  5
1C
330
1B
100
AcDbEntity
 67
     1
  8
0
100
AcDbBlockBegin
  2
*PAPER_SPACE
  1

  0
ENDBLK
  5
1D
330
1B
100
AcDbEntity
 67
     1
  8
0
100
AcDbBlockEnd
  0
ENDSEC
  0
SECTION
  2
ENTITIES
  0
LWPOLYLINE
  5
100
100
AcDbEntity
  8
Layer_1
 62
7
100
AcDbPolyline
 90
8
 70
1
 10
5.999999
 20
5.999999
 30
0.0
 10
5.999999
 20
4.999984
 30
0.0
 10
5.971667
 20
4.999984
 30
0.0
 10
5.971667
 20
5.971613
 30
0.0
 10
4.999984
 20
5.971613
 30
0.0
 10
4.999984
 20
5.999999
 30
0.0
 10
5.999999
 20
5.999999
 30
0.0
 10
5.999999
 20
5.999999
 30
0.0
  0
LWPOLYLINE
  5
101
100
AcDbEntity
  8
Layer_1
 62
7
100
AcDbPolyline
 90
9
 70
1
 10
1.000015
 20
5.999999
 30
0.0
 10
1.000015
 20
5.971613
 30
0.0
 10
0.028332
 20
5.971613
 30
0.0
 10
0.028332
 20
4.999984
 30
0.0
 10
-0.000000
 20
4.999984
 30
0.0
 10
-0.000000
 20
5.985778
 30
0.0
 10
-0.000000
 20
5.999999
 30
0.0
 10
1.000015
 20
5.999999
 30
0.0
 10
1.000015
 20
5.999999
 30
0.0
  0
LWPOLYLINE
  5
102
100
AcDbEntity
  8
Layer_1
 62
7
100
AcDbPolyline
 90
8
 70
1
 10
5.999999
 20
0.799979
 30
0.0
 10
5.999999
 20
-0.000000
 30
0.0
 10
4.999984
 20
-0.000000
 30
0.0
 10
4.999984
 20
0.028332
 30
0.0
 10
5.971667
 20
0.028332
 30
0.0
 10
5.971667
 20
0.799979
 30
0.0
 10
5.999999
 20
0.799979
 30
0.0
 10
5.999999
 20
0.799979
 30
0.0
  0
LWPOLYLINE
  5
103
100
AcDbEntity
  8
Layer_1
 62
7
100
AcDbPolyline
 90
8
 70
1
 10
0.028332
 20
0.799979
 30
0.0
 10
0.028332
 20
0.028332
 30
0.0
 10
1.000015
 20
0.028332
 30
0.0
 10
1.000015
 20
-0.000000
 30
0.0
 10
-0.000000
 20
-0.000000
 30
0.0
 10
-0.000000
 20
0.799979
 30
0.0
 10
0.028332
 20
0.799979
 30
0.0
 10
0.028332
 20
0.799979
 30
0.0
  0
LWPOLYLINE
  5
104
100
AcDbEntity
  8
Layer_1
 62
7
100
AcDbPolyline
 90
66
 70
0
 10
1.401981
 20
4.293496
 30
0.0
 10
1.275209
 20
4.149622
 30
0.0
 10
1.163724
 20
3.995256
 30
0.0
 10
1.068023
 20
3.831627
 30
0.0
 10
0.988604
 20
3.659962
 30
0.0
 10
0.925966
 20
3.481488
 30
0.0
 10
0.880606
 20
3.297434
 30
0.0
 10
0.853024
 20
3.109028
 30
0.0
 10
0.843716
 20
2.917497
 30
0.0
 10
0.853910
 20
2.715560
 30
0.0
 10
0.883836
 20
2.519457
 30
0.0
 10
0.932502
 20
2.330179
 30
0.0
 10
0.998915
 20
2.148720
 30
0.0
 10
1.082082
 20
1.976073
 30
0.0
 10
1.181011
 20
1.813230
 30
0.0
 10
1.294708
 20
1.661184
 30
0.0
 10
1.422180
 20
1.520929
 30
0.0
 10
1.562436
 20
1.393456
 30
0.0
 10
1.714481
 20
1.279759
 30
0.0
 10
1.877324
 20
1.180831
 30
0.0
 10
2.049971
 20
1.097664
 30
0.0
 10
2.231430
 20
1.031251
 30
0.0
 10
2.420708
 20
0.982585
 30
0.0
 10
2.616812
 20
0.952659
 30
0.0
 10
2.818749
 20
0.942465
 30
0.0
 10
3.020686
 20
0.952659
 30
0.0
 10
3.216790
 20
0.982585
 30
0.0
 10
3.406067
 20
1.031251
 30
0.0
 10
3.587526
 20
1.097664
 30
0.0
 10
3.760174
 20
1.180831
 30
0.0
 10
3.923016
 20
1.279759
 30
0.0
 10
4.075062
 20
1.393456
 30
0.0
 10
4.215317
 20
1.520929
 30
0.0
 10
4.342790
 20
1.661184
 30
0.0
 10
4.456487
 20
1.813230
 30
0.0
 10
4.555415
 20
1.976073
 30
0.0
 10
4.638582
 20
2.148720
 30
0.0
 10
4.704995
 20
2.330179
 30
0.0
 10
4.753661
 20
2.519457
 30
0.0
 10
4.783588
 20
2.715560
 30
0.0
 10
4.793781
 20
2.917497
 30
0.0
 10
4.783588
 20
3.119435
 30
0.0
 10
4.753661
 20
3.315538
 30
0.0
 10
4.704995
 20
3.504816
 30
0.0
 10
4.638582
 20
3.686275
 30
0.0
 10
4.555415
 20
3.858922
 30
0.0
 10
4.456487
 20
4.021765
 30
0.0
 10
4.342790
 20
4.173811
 30
0.0
 10
4.215317
 20
4.314066
 30
0.0
 10
4.075062
 20
4.441539
 30
0.0
 10
3.923016
 20
4.555236
 30
0.0
 10
3.760174
 20
4.654164
 30
0.0
 10
3.587526
 20
4.737331
 30
0.0
 10
3.406067
 20
4.803744
 30
0.0
 10
3.216790
 20
4.852410
 30
0.0
 10
3.020686
 20
4.882336
 30
0.0
 10
2.818749
 20
4.892530
 30
0.0
 10
2.619866
 20
4.882494
 30
0.0
 10
2.424478
 20
4.852777
 30
0.0
 10
2.233951
 20
4.803956
 30
0.0
 10
2.049650
 20
4.736610
 30
0.0
 10
1.872937
 20
4.651313
 30
0.0
 10
1.705179
 20
4.548644
 30
0.0
 10
1.547738
 20
4.429179
 30
0.0
 10
1.401981
 20
4.293496
 30
0.0
 10
1.401981
 20
4.293496
 30
0.0
  0
LWPOLYLINE
  5
105
100
AcDbEntity
  8
Layer_1
 62
7
100
AcDbPolyline
 90
13
 70
0
 10
1.652173
 20
4.084151
 30
0.0
 10
1.821537
 20
4.231853
 30
0.0
 10
2.007638
 20
4.354107
 30
0.0
 10
2.207646
 20
4.449827
 30
0.0
 10
2.418730
 20
4.517924
 30
0.0
 10
2.418730
 20
4.098456
 30
0.0
 10
1.637713
 20
3.317438
 30
0.0
 10
1.216139
 20
3.317438
 30
0.0
 10
1.282923
 20
3.524506
 30
0.0
 10
1.377848
 20
3.723255
 30
0.0
 10
1.500928
 20
3.910773
 30
0.0
 10
1.652173
 20
4.084151
 30
0.0
 10
1.652173
 20
4.084151
 30
0.0
  0
LWPOLYLINE
  5
106
100
AcDbEntity
  8
Layer_1
 62
7
100
AcDbPolyline
 90
14
 70
0
 10
1.169952
 20
3.017512
 30
0.0
 10
1.169992
 20
3.017472
 30
0.0
 10
1.630074
 20
3.017472
 30
0.0
 10
2.168305
 20
2.479241
 30
0.0
 10
1.551068
 20
1.862005
 30
0.0
 10
1.453655
 20
1.990618
 30
0.0
 10
1.370451
 20
2.125820
 30
0.0
 10
1.301461
 20
2.266579
 30
0.0
 10
1.246692
 20
2.411858
 30
0.0
 10
1.206151
 20
2.560625
 30
0.0
 10
1.179843
 20
2.711846
 30
0.0
 10
1.167775
 20
2.864486
 30
0.0
 10
1.169953
 20
3.017511
 30
0.0
 10
1.169952
 20
3.017512
 30
0.0
  0
LWPOLYLINE
  5
107
100
AcDbEntity
  8
Layer_1
 62
7
100
AcDbPolyline
 90
14
 70
0
 10
2.718656
 20
4.563878
 30
0.0
 10
2.842758
 20
4.567230
 30
0.0
 10
2.842798
 20
4.567270
 30
0.0
 10
2.984100
 20
4.559132
 30
0.0
 10
3.123261
 20
4.539080
 30
0.0
 10
3.259587
 20
4.507411
 30
0.0
 10
3.392384
 20
4.464424
 30
0.0
 10
3.520958
 20
4.410417
 30
0.0
 10
3.644614
 20
4.345688
 30
0.0
 10
3.762659
 20
4.270536
 30
0.0
 10
3.874397
 20
4.185258
 30
0.0
 10
3.256849
 20
3.567709
 30
0.0
 10
2.718657
 20
4.105901
 30
0.0
 10
2.718656
 20
4.563878
 30
0.0
  0
LWPOLYLINE
  5
108
100
AcDbEntity
  8
Layer_1
 62
7
100
AcDbPolyline
 90
5
 70
0
 10
2.572454
 20
3.757253
 30
0.0
 10
3.979127
 20
2.350580
 30
0.0
 10
3.385628
 20
1.757001
 30
0.0
 10
1.978917
 20
3.163713
 30
0.0
 10
2.572454
 20
3.757253
 30
0.0
  0
LWPOLYLINE
  5
109
100
AcDbEntity
  8
Layer_1
 62
7
100
AcDbPolyline
 90
16
 70
0
 10
1.762984
 20
1.649543
 30
0.0
 10
2.380455
 20
2.267014
 30
0.0
 10
2.380495
 20
2.267054
 30
0.0
 10
3.212182
 20
1.435366
 30
0.0
 10
3.212182
 20
1.314071
 30
0.0
 10
3.016547
 20
1.277634
 30
0.0
 10
2.818594
 20
1.265272
 30
0.0
 10
2.678150
 20
1.271283
 30
0.0
 10
2.538530
 20
1.289313
 30
0.0
 10
2.400534
 20
1.319357
 30
0.0
 10
2.264965
 20
1.361406
 30
0.0
 10
2.132624
 20
1.415457
 30
0.0
 10
2.004313
 20
1.481500
 30
0.0
 10
1.880833
 20
1.559532
 30
0.0
 10
1.762985
 20
1.649544
 30
0.0
 10
1.762984
 20
1.649543
 30
0.0
  0
LWPOLYLINE
  5
10a
100
AcDbEntity
  8
Layer_1
 62
7
100
AcDbPolyline
 90
12
 70
0
 10
3.469077
 20
3.355636
 30
0.0
 10
4.086742
 20
3.973301
 30
0.0
 10
4.205578
 20
3.812487
 30
0.0
 10
4.302417
 20
3.641870
 30
0.0
 10
4.377271
 20
3.463445
 30
0.0
 10
4.430151
 20
3.279202
 30
0.0
 10
4.461070
 20
3.091134
 30
0.0
 10
4.470039
 20
2.901235
 30
0.0
 10
4.457071
 20
2.711496
 30
0.0
 10
4.422176
 20
2.523910
 30
0.0
 10
4.300803
 20
2.523910
 30
0.0
 10
3.469077
 20
3.355636
 30
0.0
  0
LWPOLYLINE
  5
10b
100
AcDbEntity
  8
Layer_1
 62
7
100
AcDbPolyline
 90
5
 70
0
 10
4.131760
 20
2.205508
 30
0.0
 10
4.306727
 20
2.030541
 30
0.0
 10
3.705705
 20
1.429519
 30
0.0
 10
3.530738
 20
1.604486
 30
0.0
 10
4.131760
 20
2.205508
 30
0.0
  0
ENDSEC
  0
SECTION
  2
OBJECTS
  0
DICTIONARY
  5
C
330
0
100
AcDbDictionary
  3
ACAD_GROUP
350
D
  3
ACAD_MLINESTYLE
350
17
  0
DICTIONARY
  5
D
330
C
100
AcDbDictionary
  0
DICTIONARY
  5
1A
330
C
100
AcDbDictionary
  0
DICTIONARY
  5
17
330
C
100
AcDbDictionary
  3
STANDARD
350
18
  0
DICTIONARY
  5
19
330
C
100
AcDbDictionary
  0
ENDSEC
  0
EOF
