  0
SECTION
  2
HEADER
  9
$ACADVER
  1
AC1014
  9
$HANDSEED
  5
FFFF
  9
$MEASUREMENT
 70
     1
  0
ENDSEC
  0
SECTION
  2
TABLES
  0
TABLE
  2
VPORT
  5
8
330
0
100
AcDbSymbolTable
 70
     4
  0
VPORT
  5
2E
330
8
100
AcDbSymbolTableRecord
100
AcDbViewportTableRecord
  2
*ACTIVE
 70
     0
 10
0.0
 20
0.0
 11
1.0
 21
1.0
 12
210.0
 22
148.5
 13
0.0
 23
0.0
 14
10.0
 24
10.0
 15
10.0
 25
10.0
 16
0.0
 26
0.0
 36
1.0
 17
0.0
 27
0.0
 37
0.0
 40
341.0
 41
1.24
 42
50.0
 43
0.0
 44
0.0
 50
0.0
 51
0.0
 71
     0
 72
   100
 73
     1
 74
     3
 75
     0
 76
     0
 77
     0
 78
     0
  0
ENDTAB
  0
TABLE
  2
LTYPE
  5
5
330
0
100
AcDbSymbolTable
 70
     1
  0
LTYPE
  5
14
330
5
100
AcDbSymbolTableRecord
100
AcDbLinetypeTableRecord
  2
BYBLOCK
 70
     0
  3

 72
    65
 73
     0
 40
0.0
  0
LTYPE
  5
15
330
5
100
AcDbSymbolTableRecord
100
AcDbLinetypeTableRecord
  2
BYLAYER
 70
     0
  3

 72
    65
 73
     0
 40
0.0
  0
LTYPE
  5
16
330
5
100
AcDbSymbolTableRecord
100
AcDbLinetypeTableRecord
  2
CONTINUOUS
 70
     0
  3
Solid line
 72
    65
 73
     0
 40
0.0
  0
ENDTAB
  0
TABLE
  2
LAYER
  5
2
100
AcDbSymbolTable
 70
2
  0
LAYER
  5
50
100
AcDbSymbolTableRecord
100
AcDbLayerTableRecord
  2
0
 70
0
  6
CONTINUOUS
  0
LAYER
  5
51
100
AcDbSymbolTableRecord
100
AcDbLayerTableRecord
  2
Layer_1
 70
0
  6
CONTINUOUS
  0
ENDTAB
  0
TABLE
  2
STYLE
  5
3
330
0
100
AcDbSymbolTable
 70
     1
  0
STYLE
  5
11
330
3
100
AcDbSymbolTableRecord
100
AcDbTextStyleTableRecord
  2
STANDARD
 70
     0
 40
0.0
 41
1.0
 50
0.0
 71
     0
 42
2.5
  3
txt
  4

  0
ENDTAB
  0
TABLE
  2
VIEW
  5
6
330
0
100
AcDbSymbolTable
 70
     0
  0
ENDTAB
  0
TABLE
  2
UCS
  5
7
330
0
100
AcDbSymbolTable
 70
     0
  0
ENDTAB
  0
TABLE
  2
APPID
  5
9
330
0
100
AcDbSymbolTable
 70
     2
  0
APPID
  5
12
330
9
100
AcDbSymbolTableRecord
100
AcDbRegAppTableRecord
  2
ACAD
 70
     0
  0
ENDTAB
  0
TABLE
  2
DIMSTYLE
  5
A
330
0
100
AcDbSymbolTable
 70
     1
  0
DIMSTYLE
105
27
330
A
100
AcDbSymbolTableRecord
100
AcDbDimStyleTableRecord
  2
ISO-25
 70
     0
  3

  4

  5

  6

  7

 40
1.0
 41
2.5
 42
0.625
 43
3.75
 44
1.25
 45
0.0
 46
0.0
 47
0.0
 48
0.0
140
2.5
141
2.5
142
0.0
143
0.03937007874016
144
1.0
145
0.0
146
1.0
147
0.625
 71
     0
 72
     0
 73
     0
 74
     0
 75
     0
 76
     0
 77
     1
 78
     8
170
     0
171
     3
172
     1
173
     0
174
     0
175
     0
176
     0
177
     0
178
     0
270
     2
271
     2
272
     2
273
     2
274
     3
340
11
275
     0
280
     0
281
     0
282
     0
283
     0
284
     8
285
     0
286
     0
287
     3
288
     0
  0
ENDTAB
  0
TABLE
  2
BLOCK_RECORD
  5
1
330
0
100
AcDbSymbolTable
 70
     1
  0
BLOCK_RECORD
  5
1F
330
1
100
AcDbSymbolTableRecord
100
AcDbBlockTableRecord
  2
*MODEL_SPACE
  0
BLOCK_RECORD
  5
1B
330
1
100
AcDbSymbolTableRecord
100
AcDbBlockTableRecord
  2
*PAPER_SPACE
  0
ENDTAB
  0
ENDSEC
  0
SECTION
  2
BLOCKS
  0
BLOCK
  5
20
330
1F
100
AcDbEntity
  8
0
100
AcDbBlockBegin
  2
*MODEL_SPACE
 70
     0
 10
0.0
 20
0.0
 30
0.0
  3
*MODEL_SPACE
  1

  0
ENDBLK
  5
21
330
1F
100
AcDbEntity
  8
0
100
AcDbBlockEnd
  0
BLOCK
  5
1C
330
1B
100
AcDbEntity
 67
     1
  8
0
100
AcDbBlockBegin
  2
*PAPER_SPACE
  1

  0
ENDBLK
  5
1D
330
1B
100
AcDbEntity
 67
     1
  8
0
100
AcDbBlockEnd
  0
ENDSEC
  0
SECTION
  2
ENTITIES
  0
LWPOLYLINE
  5
100
100
AcDbEntity
  8
Layer_1
 62
7
100
AcDbPolyline
 90
66
 70
0
 10
2.818747
 20
4.749575
 30
0.0
 10
2.631576
 20
4.740106
 30
0.0
 10
2.449778
 20
4.712317
 30
0.0
 10
2.274277
 20
4.667132
 30
0.0
 10
2.105999
 20
4.605476
 30
0.0
 10
1.945869
 20
4.528273
 30
0.0
 10
1.794811
 20
4.436450
 30
0.0
 10
1.653750
 20
4.330929
 30
0.0
 10
1.523611
 20
4.212637
 30
0.0
 10
1.405319
 20
4.082499
 30
0.0
 10
1.299799
 20
3.941438
 30
0.0
 10
1.207975
 20
3.790380
 30
0.0
 10
1.130773
 20
3.630249
 30
0.0
 10
1.069117
 20
3.461971
 30
0.0
 10
1.023931
 20
3.286471
 30
0.0
 10
0.996142
 20
3.104672
 30
0.0
 10
0.986674
 20
2.917501
 30
0.0
 10
0.996142
 20
2.730330
 30
0.0
 10
1.023931
 20
2.548531
 30
0.0
 10
1.069117
 20
2.373031
 30
0.0
 10
1.130773
 20
2.204753
 30
0.0
 10
1.207975
 20
2.044622
 30
0.0
 10
1.299799
 20
1.893564
 30
0.0
 10
1.405319
 20
1.752503
 30
0.0
 10
1.523611
 20
1.622364
 30
0.0
 10
1.653750
 20
1.504073
 30
0.0
 10
1.794811
 20
1.398552
 30
0.0
 10
1.945869
 20
1.306728
 30
0.0
 10
2.105999
 20
1.229526
 30
0.0
 10
2.274277
 20
1.167870
 30
0.0
 10
2.449778
 20
1.122685
 30
0.0
 10
2.631576
 20
1.094895
 30
0.0
 10
2.818747
 20
1.085427
 30
0.0
 10
3.005919
 20
1.094895
 30
0.0
 10
3.187717
 20
1.122685
 30
0.0
 10
3.363218
 20
1.167870
 30
0.0
 10
3.531495
 20
1.229526
 30
0.0
 10
3.691626
 20
1.306728
 30
0.0
 10
3.842684
 20
1.398552
 30
0.0
 10
3.983745
 20
1.504073
 30
0.0
 10
4.113883
 20
1.622364
 30
0.0
 10
4.232175
 20
1.752503
 30
0.0
 10
4.337696
 20
1.893564
 30
0.0
 10
4.429519
 20
2.044622
 30
0.0
 10
4.506722
 20
2.204753
 30
0.0
 10
4.568378
 20
2.373031
 30
0.0
 10
4.613563
 20
2.548531
 30
0.0
 10
4.641352
 20
2.730330
 30
0.0
 10
4.650821
 20
2.917501
 30
0.0
 10
4.641352
 20
3.104672
 30
0.0
 10
4.613563
 20
3.286471
 30
0.0
 10
4.568378
 20
3.461971
 30
0.0
 10
4.506722
 20
3.630249
 30
0.0
 10
4.429519
 20
3.790380
 30
0.0
 10
4.337696
 20
3.941438
 30
0.0
 10
4.232175
 20
4.082499
 30
0.0
 10
4.113883
 20
4.212637
 30
0.0
 10
3.983745
 20
4.330929
 30
0.0
 10
3.842684
 20
4.436450
 30
0.0
 10
3.691626
 20
4.528273
 30
0.0
 10
3.531495
 20
4.605476
 30
0.0
 10
3.363218
 20
4.667132
 30
0.0
 10
3.187717
 20
4.712317
 30
0.0
 10
3.005919
 20
4.740106
 30
0.0
 10
2.818747
 20
4.749575
 30
0.0
 10
2.818747
 20
4.749575
 30
0.0
  0
LWPOLYLINE
  5
101
100
AcDbEntity
  8
Layer_1
 62
7
100
AcDbPolyline
 90
66
 70
0
 10
2.818747
 20
4.598101
 30
0.0
 10
2.990729
 20
4.589435
 30
0.0
 10
3.157708
 20
4.563995
 30
0.0
 10
3.318844
 20
4.522623
 30
0.0
 10
3.473296
 20
4.466159
 30
0.0
 10
3.620224
 20
4.395445
 30
0.0
 10
3.758786
 20
4.311320
 30
0.0
 10
3.888142
 20
4.214627
 30
0.0
 10
4.007451
 20
4.106205
 30
0.0
 10
4.115873
 20
3.986896
 30
0.0
 10
4.212566
 20
3.857539
 30
0.0
 10
4.296691
 20
3.718977
 30
0.0
 10
4.367405
 20
3.572049
 30
0.0
 10
4.423868
 20
3.417597
 30
0.0
 10
4.465240
 20
3.256461
 30
0.0
 10
4.490680
 20
3.089482
 30
0.0
 10
4.499347
 20
2.917501
 30
0.0
 10
4.490680
 20
2.745520
 30
0.0
 10
4.465240
 20
2.578541
 30
0.0
 10
4.423868
 20
2.417405
 30
0.0
 10
4.367405
 20
2.262953
 30
0.0
 10
4.296691
 20
2.116025
 30
0.0
 10
4.212566
 20
1.977463
 30
0.0
 10
4.115873
 20
1.848106
 30
0.0
 10
4.007451
 20
1.728797
 30
0.0
 10
3.888142
 20
1.620375
 30
0.0
 10
3.758786
 20
1.523682
 30
0.0
 10
3.620224
 20
1.439557
 30
0.0
 10
3.473296
 20
1.368843
 30
0.0
 10
3.318844
 20
1.312379
 30
0.0
 10
3.157708
 20
1.271007
 30
0.0
 10
2.990729
 20
1.245567
 30
0.0
 10
2.818747
 20
1.236901
 30
0.0
 10
2.646765
 20
1.245567
 30
0.0
 10
2.479785
 20
1.271007
 30
0.0
 10
2.318646
 20
1.312379
 30
0.0
 10
2.164190
 20
1.368843
 30
0.0
 10
2.017258
 20
1.439557
 30
0.0
 10
1.878691
 20
1.523682
 30
0.0
 10
1.749330
 20
1.620375
 30
0.0
 10
1.630015
 20
1.728797
 30
0.0
 10
1.521588
 20
1.848106
 30
0.0
 10
1.424890
 20
1.977463
 30
0.0
 10
1.340761
 20
2.116025
 30
0.0
 10
1.270042
 20
2.262953
 30
0.0
 10
1.213575
 20
2.417405
 30
0.0
 10
1.172200
 20
2.578541
 30
0.0
 10
1.146759
 20
2.745520
 30
0.0
 10
1.138091
 20
2.917501
 30
0.0
 10
1.146759
 20
3.089482
 30
0.0
 10
1.172200
 20
3.256461
 30
0.0
 10
1.213575
 20
3.417597
 30
0.0
 10
1.270042
 20
3.572049
 30
0.0
 10
1.340761
 20
3.718977
 30
0.0
 10
1.424890
 20
3.857539
 30
0.0
 10
1.521588
 20
3.986896
 30
0.0
 10
1.630015
 20
4.106205
 30
0.0
 10
1.749330
 20
4.214627
 30
0.0
 10
1.878691
 20
4.311320
 30
0.0
 10
2.017258
 20
4.395445
 30
0.0
 10
2.164190
 20
4.466159
 30
0.0
 10
2.318646
 20
4.522623
 30
0.0
 10
2.479785
 20
4.563995
 30
0.0
 10
2.646765
 20
4.589435
 30
0.0
 10
2.818747
 20
4.598101
 30
0.0
 10
2.818747
 20
4.598101
 30
0.0
  0
LWPOLYLINE
  5
102
100
AcDbEntity
  8
Layer_1
 62
7
100
AcDbPolyline
 90
8
 70
1
 10
5.999999
 20
6.000001
 30
0.0
 10
5.999999
 20
4.999986
 30
0.0
 10
5.971667
 20
4.999986
 30
0.0
 10
5.971667
 20
5.971615
 30
0.0
 10
4.999984
 20
5.971615
 30
0.0
 10
4.999984
 20
6.000001
 30
0.0
 10
5.999999
 20
6.000001
 30
0.0
 10
5.999999
 20
6.000001
 30
0.0
  0
LWPOLYLINE
  5
103
100
AcDbEntity
  8
Layer_1
 62
7
100
AcDbPolyline
 90
9
 70
1
 10
1.000015
 20
6.000001
 30
0.0
 10
1.000015
 20
5.971615
 30
0.0
 10
0.028332
 20
5.971615
 30
0.0
 10
0.028332
 20
4.999986
 30
0.0
 10
-0.000000
 20
4.999986
 30
0.0
 10
-0.000000
 20
5.985779
 30
0.0
 10
-0.000000
 20
6.000001
 30
0.0
 10
1.000015
 20
6.000001
 30
0.0
 10
1.000015
 20
6.000001
 30
0.0
  0
LWPOLYLINE
  5
104
100
AcDbEntity
  8
Layer_1
 62
7
100
AcDbPolyline
 90
8
 70
1
 10
5.999999
 20
0.799980
 30
0.0
 10
5.999999
 20
0.000001
 30
0.0
 10
4.999984
 20
0.000001
 30
0.0
 10
4.999984
 20
0.028334
 30
0.0
 10
5.971667
 20
0.028334
 30
0.0
 10
5.971667
 20
0.799980
 30
0.0
 10
5.999999
 20
0.799980
 30
0.0
 10
5.999999
 20
0.799980
 30
0.0
  0
LWPOLYLINE
  5
105
100
AcDbEntity
  8
Layer_1
 62
7
100
AcDbPolyline
 90
8
 70
1
 10
0.028332
 20
0.799980
 30
0.0
 10
0.028332
 20
0.028334
 30
0.0
 10
1.000015
 20
0.028334
 30
0.0
 10
1.000015
 20
0.000001
 30
0.0
 10
-0.000000
 20
0.000001
 30
0.0
 10
-0.000000
 20
0.799980
 30
0.0
 10
0.028332
 20
0.799980
 30
0.0
 10
0.028332
 20
0.799980
 30
0.0
  0
LWPOLYLINE
  5
106
100
AcDbEntity
  8
Layer_1
 62
7
100
AcDbPolyline
 90
8
 70
1
 10
5.999999
 20
5.999999
 30
0.0
 10
5.999999
 20
4.999984
 30
0.0
 10
5.971667
 20
4.999984
 30
0.0
 10
5.971667
 20
5.971613
 30
0.0
 10
4.999984
 20
5.971613
 30
0.0
 10
4.999984
 20
5.999999
 30
0.0
 10
5.999999
 20
5.999999
 30
0.0
 10
5.999999
 20
5.999999
 30
0.0
  0
LWPOLYLINE
  5
107
100
AcDbEntity
  8
Layer_1
 62
7
100
AcDbPolyline
 90
9
 70
1
 10
1.000015
 20
5.999999
 30
0.0
 10
1.000015
 20
5.971613
 30
0.0
 10
0.028332
 20
5.971613
 30
0.0
 10
0.028332
 20
4.999984
 30
0.0
 10
-0.000000
 20
4.999984
 30
0.0
 10
-0.000000
 20
5.985778
 30
0.0
 10
-0.000000
 20
5.999999
 30
0.0
 10
1.000015
 20
5.999999
 30
0.0
 10
1.000015
 20
5.999999
 30
0.0
  0
LWPOLYLINE
  5
108
100
AcDbEntity
  8
Layer_1
 62
7
100
AcDbPolyline
 90
8
 70
1
 10
5.999999
 20
0.799979
 30
0.0
 10
5.999999
 20
0.000000
 30
0.0
 10
4.999984
 20
0.000000
 30
0.0
 10
4.999984
 20
0.028332
 30
0.0
 10
5.971667
 20
0.028332
 30
0.0
 10
5.971667
 20
0.799979
 30
0.0
 10
5.999999
 20
0.799979
 30
0.0
 10
5.999999
 20
0.799979
 30
0.0
  0
LWPOLYLINE
  5
109
100
AcDbEntity
  8
Layer_1
 62
7
100
AcDbPolyline
 90
8
 70
1
 10
0.028332
 20
0.799979
 30
0.0
 10
0.028332
 20
0.028332
 30
0.0
 10
1.000015
 20
0.028332
 30
0.0
 10
1.000015
 20
0.000000
 30
0.0
 10
-0.000000
 20
0.000000
 30
0.0
 10
-0.000000
 20
0.799979
 30
0.0
 10
0.028332
 20
0.799979
 30
0.0
 10
0.028332
 20
0.799979
 30
0.0
  0
ENDSEC
  0
SECTION
  2
OBJECTS
  0
DICTIONARY
  5
C
330
0
100
AcDbDictionary
  3
ACAD_GROUP
350
D
  3
ACAD_MLINESTYLE
350
17
  0
DICTIONARY
  5
D
330
C
100
AcDbDictionary
  0
DICTIONARY
  5
1A
330
C
100
AcDbDictionary
  0
DICTIONARY
  5
17
330
C
100
AcDbDictionary
  3
STANDARD
350
18
  0
DICTIONARY
  5
19
330
C
100
AcDbDictionary
  0
ENDSEC
  0
EOF
