  0
SECTION
  2
HEADER
  9
$ACADVER
  1
AC1014
  9
$HANDSEED
  5
FFFF
  9
$MEASUREMENT
 70
     1
  0
ENDSEC
  0
SECTION
  2
TABLES
  0
TABLE
  2
VPORT
  5
8
330
0
100
AcDbSymbolTable
 70
     4
  0
VPORT
  5
2E
330
8
100
AcDbSymbolTableRecord
100
AcDbViewportTableRecord
  2
*ACTIVE
 70
     0
 10
0.0
 20
0.0
 11
1.0
 21
1.0
 12
210.0
 22
148.5
 13
0.0
 23
0.0
 14
10.0
 24
10.0
 15
10.0
 25
10.0
 16
0.0
 26
0.0
 36
1.0
 17
0.0
 27
0.0
 37
0.0
 40
341.0
 41
1.24
 42
50.0
 43
0.0
 44
0.0
 50
0.0
 51
0.0
 71
     0
 72
   100
 73
     1
 74
     3
 75
     0
 76
     0
 77
     0
 78
     0
  0
ENDTAB
  0
TABLE
  2
LTYPE
  5
5
330
0
100
AcDbSymbolTable
 70
     1
  0
LTYPE
  5
14
330
5
100
AcDbSymbolTableRecord
100
AcDbLinetypeTableRecord
  2
BYBLOCK
 70
     0
  3

 72
    65
 73
     0
 40
0.0
  0
LTYPE
  5
15
330
5
100
AcDbSymbolTableRecord
100
AcDbLinetypeTableRecord
  2
BYLAYER
 70
     0
  3

 72
    65
 73
     0
 40
0.0
  0
LTYPE
  5
16
330
5
100
AcDbSymbolTableRecord
100
AcDbLinetypeTableRecord
  2
CONTINUOUS
 70
     0
  3
Solid line
 72
    65
 73
     0
 40
0.0
  0
ENDTAB
  0
TABLE
  2
LAYER
  5
2
100
AcDbSymbolTable
 70
2
  0
LAYER
  5
50
100
AcDbSymbolTableRecord
100
AcDbLayerTableRecord
  2
0
 70
0
  6
CONTINUOUS
  0
LAYER
  5
51
100
AcDbSymbolTableRecord
100
AcDbLayerTableRecord
  2
Layer_1
 70
0
  6
CONTINUOUS
  0
ENDTAB
  0
TABLE
  2
STYLE
  5
3
330
0
100
AcDbSymbolTable
 70
     1
  0
STYLE
  5
11
330
3
100
AcDbSymbolTableRecord
100
AcDbTextStyleTableRecord
  2
STANDARD
 70
     0
 40
0.0
 41
1.0
 50
0.0
 71
     0
 42
2.5
  3
txt
  4

  0
ENDTAB
  0
TABLE
  2
VIEW
  5
6
330
0
100
AcDbSymbolTable
 70
     0
  0
ENDTAB
  0
TABLE
  2
UCS
  5
7
330
0
100
AcDbSymbolTable
 70
     0
  0
ENDTAB
  0
TABLE
  2
APPID
  5
9
330
0
100
AcDbSymbolTable
 70
     2
  0
APPID
  5
12
330
9
100
AcDbSymbolTableRecord
100
AcDbRegAppTableRecord
  2
ACAD
 70
     0
  0
ENDTAB
  0
TABLE
  2
DIMSTYLE
  5
A
330
0
100
AcDbSymbolTable
 70
     1
  0
DIMSTYLE
105
27
330
A
100
AcDbSymbolTableRecord
100
AcDbDimStyleTableRecord
  2
ISO-25
 70
     0
  3

  4

  5

  6

  7

 40
1.0
 41
2.5
 42
0.625
 43
3.75
 44
1.25
 45
0.0
 46
0.0
 47
0.0
 48
0.0
140
2.5
141
2.5
142
0.0
143
0.03937007874016
144
1.0
145
0.0
146
1.0
147
0.625
 71
     0
 72
     0
 73
     0
 74
     0
 75
     0
 76
     0
 77
     1
 78
     8
170
     0
171
     3
172
     1
173
     0
174
     0
175
     0
176
     0
177
     0
178
     0
270
     2
271
     2
272
     2
273
     2
274
     3
340
11
275
     0
280
     0
281
     0
282
     0
283
     0
284
     8
285
     0
286
     0
287
     3
288
     0
  0
ENDTAB
  0
TABLE
  2
BLOCK_RECORD
  5
1
330
0
100
AcDbSymbolTable
 70
     1
  0
BLOCK_RECORD
  5
1F
330
1
100
AcDbSymbolTableRecord
100
AcDbBlockTableRecord
  2
*MODEL_SPACE
  0
BLOCK_RECORD
  5
1B
330
1
100
AcDbSymbolTableRecord
100
AcDbBlockTableRecord
  2
*PAPER_SPACE
  0
ENDTAB
  0
ENDSEC
  0
SECTION
  2
BLOCKS
  0
BLOCK
  5
20
330
1F
100
AcDbEntity
  8
0
100
AcDbBlockBegin
  2
*MODEL_SPACE
 70
     0
 10
0.0
 20
0.0
 30
0.0
  3
*MODEL_SPACE
  1

  0
ENDBLK
  5
21
330
1F
100
AcDbEntity
  8
0
100
AcDbBlockEnd
  0
BLOCK
  5
1C
330
1B
100
AcDbEntity
 67
     1
  8
0
100
AcDbBlockBegin
  2
*PAPER_SPACE
  1

  0
ENDBLK
  5
1D
330
1B
100
AcDbEntity
 67
     1
  8
0
100
AcDbBlockEnd
  0
ENDSEC
  0
SECTION
  2
ENTITIES
  0
LWPOLYLINE
  5
100
100
AcDbEntity
  8
Layer_1
 62
7
100
AcDbPolyline
 90
8
 70
1
 10
5.999999
 20
5.999999
 30
0.0
 10
5.999999
 20
4.999984
 30
0.0
 10
5.971667
 20
4.999984
 30
0.0
 10
5.971667
 20
5.971613
 30
0.0
 10
4.999984
 20
5.971613
 30
0.0
 10
4.999984
 20
5.999999
 30
0.0
 10
5.999999
 20
5.999999
 30
0.0
 10
5.999999
 20
5.999999
 30
0.0
  0
LWPOLYLINE
  5
101
100
AcDbEntity
  8
Layer_1
 62
7
100
AcDbPolyline
 90
9
 70
1
 10
1.000015
 20
5.999999
 30
0.0
 10
1.000015
 20
5.971613
 30
0.0
 10
0.028332
 20
5.971613
 30
0.0
 10
0.028332
 20
4.999984
 30
0.0
 10
-0.000000
 20
4.999984
 30
0.0
 10
-0.000000
 20
5.985778
 30
0.0
 10
-0.000000
 20
5.999999
 30
0.0
 10
1.000015
 20
5.999999
 30
0.0
 10
1.000015
 20
5.999999
 30
0.0
  0
LWPOLYLINE
  5
102
100
AcDbEntity
  8
Layer_1
 62
7
100
AcDbPolyline
 90
8
 70
1
 10
5.999999
 20
0.799979
 30
0.0
 10
5.999999
 20
-0.000000
 30
0.0
 10
4.999984
 20
-0.000000
 30
0.0
 10
4.999984
 20
0.028332
 30
0.0
 10
5.971667
 20
0.028332
 30
0.0
 10
5.971667
 20
0.799979
 30
0.0
 10
5.999999
 20
0.799979
 30
0.0
 10
5.999999
 20
0.799979
 30
0.0
  0
LWPOLYLINE
  5
103
100
AcDbEntity
  8
Layer_1
 62
7
100
AcDbPolyline
 90
8
 70
1
 10
0.028332
 20
0.799979
 30
0.0
 10
0.028332
 20
0.028332
 30
0.0
 10
1.000015
 20
0.028332
 30
0.0
 10
1.000015
 20
-0.000000
 30
0.0
 10
-0.000000
 20
-0.000000
 30
0.0
 10
-0.000000
 20
0.799979
 30
0.0
 10
0.028332
 20
0.799979
 30
0.0
 10
0.028332
 20
0.799979
 30
0.0
  0
LWPOLYLINE
  5
104
100
AcDbEntity
  8
Layer_1
 62
7
100
AcDbPolyline
 90
66
 70
0
 10
2.733392
 20
4.635675
 30
0.0
 10
2.602147
 20
4.629408
 30
0.0
 10
2.471874
 20
4.610606
 30
0.0
 10
2.343548
 20
4.579271
 30
0.0
 10
2.218141
 20
4.535403
 30
0.0
 10
2.096627
 20
4.479003
 30
0.0
 10
1.979981
 20
4.410070
 30
0.0
 10
1.869175
 20
4.328606
 30
0.0
 10
1.765183
 20
4.234611
 30
0.0
 10
1.671189
 20
4.130620
 30
0.0
 10
1.589727
 20
4.019816
 30
0.0
 10
1.520798
 20
3.903173
 30
0.0
 10
1.464401
 20
3.781664
 30
0.0
 10
1.420537
 20
3.656262
 30
0.0
 10
1.389206
 20
3.527940
 30
0.0
 10
1.370407
 20
3.397671
 30
0.0
 10
1.364141
 20
3.266429
 30
0.0
 10
1.370407
 20
3.135188
 30
0.0
 10
1.389206
 20
3.004919
 30
0.0
 10
1.420537
 20
2.876597
 30
0.0
 10
1.464401
 20
2.751194
 30
0.0
 10
1.520798
 20
2.629685
 30
0.0
 10
1.589727
 20
2.513042
 30
0.0
 10
1.671189
 20
2.402238
 30
0.0
 10
1.765183
 20
2.298246
 30
0.0
 10
1.869175
 20
2.204252
 30
0.0
 10
1.979980
 20
2.122791
 30
0.0
 10
2.096626
 20
2.053862
 30
0.0
 10
2.218139
 20
1.997465
 30
0.0
 10
2.343545
 20
1.953601
 30
0.0
 10
2.471872
 20
1.922269
 30
0.0
 10
2.602146
 20
1.903471
 30
0.0
 10
2.733393
 20
1.897204
 30
0.0
 10
2.864639
 20
1.903470
 30
0.0
 10
2.994913
 20
1.922269
 30
0.0
 10
3.123240
 20
1.953601
 30
0.0
 10
3.248646
 20
1.997465
 30
0.0
 10
3.370159
 20
2.053861
 30
0.0
 10
3.486805
 20
2.122790
 30
0.0
 10
3.597610
 20
2.204252
 30
0.0
 10
3.701602
 20
2.298246
 30
0.0
 10
3.795596
 20
2.402238
 30
0.0
 10
3.877058
 20
2.513041
 30
0.0
 10
3.945987
 20
2.629684
 30
0.0
 10
4.002383
 20
2.751194
 30
0.0
 10
4.046247
 20
2.876596
 30
0.0
 10
4.077578
 20
3.004918
 30
0.0
 10
4.096377
 20
3.135187
 30
0.0
 10
4.102643
 20
3.266428
 30
0.0
 10
4.096377
 20
3.397670
 30
0.0
 10
4.077578
 20
3.527939
 30
0.0
 10
4.046247
 20
3.656261
 30
0.0
 10
4.002383
 20
3.781663
 30
0.0
 10
3.945987
 20
3.903173
 30
0.0
 10
3.877058
 20
4.019816
 30
0.0
 10
3.795596
 20
4.130620
 30
0.0
 10
3.701602
 20
4.234611
 30
0.0
 10
3.597610
 20
4.328606
 30
0.0
 10
3.486804
 20
4.410070
 30
0.0
 10
3.370158
 20
4.479003
 30
0.0
 10
3.248644
 20
4.535403
 30
0.0
 10
3.123237
 20
4.579271
 30
0.0
 10
2.994911
 20
4.610606
 30
0.0
 10
2.864638
 20
4.629408
 30
0.0
 10
2.733392
 20
4.635675
 30
0.0
 10
2.733392
 20
4.635675
 30
0.0
  0
LWPOLYLINE
  5
105
100
AcDbEntity
  8
Layer_1
 62
7
100
AcDbPolyline
 90
67
 70
0
 10
2.733223
 20
4.491477
 30
0.0
 10
2.733336
 20
4.491477
 30
0.0
 10
2.733392
 20
4.491477
 30
0.0
 10
2.776689
 20
4.487077
 30
0.0
 10
2.817012
 20
4.474529
 30
0.0
 10
2.885287
 20
4.428447
 30
0.0
 10
2.931317
 20
4.360136
 30
0.0
 10
2.943834
 20
4.319803
 30
0.0
 10
2.948201
 20
4.276503
 30
0.0
 10
2.948201
 20
4.275125
 30
0.0
 10
3.033413
 20
3.566483
 30
0.0
 10
3.741896
 20
3.481375
 30
0.0
 10
3.743273
 20
3.481375
 30
0.0
 10
3.786573
 20
3.477008
 30
0.0
 10
3.826906
 20
3.464491
 30
0.0
 10
3.895217
 20
3.418461
 30
0.0
 10
3.941299
 20
3.350186
 30
0.0
 10
3.953846
 20
3.309863
 30
0.0
 10
3.958247
 20
3.266566
 30
0.0
 10
3.953875
 20
3.223244
 30
0.0
 10
3.941346
 20
3.182893
 30
0.0
 10
3.895275
 20
3.114565
 30
0.0
 10
3.826946
 20
3.068493
 30
0.0
 10
3.786596
 20
3.055964
 30
0.0
 10
3.743273
 20
3.051592
 30
0.0
 10
3.033413
 20
2.966482
 30
0.0
 10
2.948200
 20
2.257842
 30
0.0
 10
2.948200
 20
2.256465
 30
0.0
 10
2.943833
 20
2.213165
 30
0.0
 10
2.931316
 20
2.172832
 30
0.0
 10
2.885287
 20
2.104522
 30
0.0
 10
2.817011
 20
2.058439
 30
0.0
 10
2.776688
 20
2.045892
 30
0.0
 10
2.733391
 20
2.041491
 30
0.0
 10
2.690069
 20
2.045863
 30
0.0
 10
2.649719
 20
2.058392
 30
0.0
 10
2.581390
 20
2.104463
 30
0.0
 10
2.535318
 20
2.172792
 30
0.0
 10
2.522790
 20
2.213143
 30
0.0
 10
2.518418
 20
2.256465
 30
0.0
 10
2.518418
 20
2.256522
 30
0.0
 10
2.433413
 20
2.966482
 30
0.0
 10
1.723345
 20
3.051594
 30
0.0
 10
1.680044
 20
3.055962
 30
0.0
 10
1.639712
 20
3.068478
 30
0.0
 10
1.571401
 20
3.114508
 30
0.0
 10
1.525319
 20
3.182783
 30
0.0
 10
1.512771
 20
3.223106
 30
0.0
 10
1.508371
 20
3.266403
 30
0.0
 10
1.508201
 20
3.266572
 30
0.0
 10
1.512604
 20
3.309869
 30
0.0
 10
1.525153
 20
3.350192
 30
0.0
 10
1.571235
 20
3.418467
 30
0.0
 10
1.639543
 20
3.464497
 30
0.0
 10
1.679875
 20
3.477014
 30
0.0
 10
1.723175
 20
3.481381
 30
0.0
 10
1.724553
 20
3.481381
 30
0.0
 10
2.433413
 20
3.566483
 30
0.0
 10
2.518413
 20
4.276454
 30
0.0
 10
2.518413
 20
4.276510
 30
0.0
 10
2.522780
 20
4.319810
 30
0.0
 10
2.535297
 20
4.360143
 30
0.0
 10
2.581326
 20
4.428454
 30
0.0
 10
2.649601
 20
4.474536
 30
0.0
 10
2.689925
 20
4.487083
 30
0.0
 10
2.733221
 20
4.491484
 30
0.0
 10
2.733223
 20
4.491477
 30
0.0
  0
ENDSEC
  0
SECTION
  2
OBJECTS
  0
DICTIONARY
  5
C
330
0
100
AcDbDictionary
  3
ACAD_GROUP
350
D
  3
ACAD_MLINESTYLE
350
17
  0
DICTIONARY
  5
D
330
C
100
AcDbDictionary
  0
DICTIONARY
  5
1A
330
C
100
AcDbDictionary
  0
DICTIONARY
  5
17
330
C
100
AcDbDictionary
  3
STANDARD
350
18
  0
DICTIONARY
  5
19
330
C
100
AcDbDictionary
  0
ENDSEC
  0
EOF
