  0
SECTION
  2
HEADER
  9
$ACADVER
  1
AC1014
  9
$HANDSEED
  5
FFFF
  9
$MEASUREMENT
 70
     1
  0
ENDSEC
  0
SECTION
  2
TABLES
  0
TABLE
  2
VPORT
  5
8
330
0
100
AcDbSymbolTable
 70
     4
  0
VPORT
  5
2E
330
8
100
AcDbSymbolTableRecord
100
AcDbViewportTableRecord
  2
*ACTIVE
 70
     0
 10
0.0
 20
0.0
 11
1.0
 21
1.0
 12
210.0
 22
148.5
 13
0.0
 23
0.0
 14
10.0
 24
10.0
 15
10.0
 25
10.0
 16
0.0
 26
0.0
 36
1.0
 17
0.0
 27
0.0
 37
0.0
 40
341.0
 41
1.24
 42
50.0
 43
0.0
 44
0.0
 50
0.0
 51
0.0
 71
     0
 72
   100
 73
     1
 74
     3
 75
     0
 76
     0
 77
     0
 78
     0
  0
ENDTAB
  0
TABLE
  2
LTYPE
  5
5
330
0
100
AcDbSymbolTable
 70
     1
  0
LTYPE
  5
14
330
5
100
AcDbSymbolTableRecord
100
AcDbLinetypeTableRecord
  2
BYBLOCK
 70
     0
  3

 72
    65
 73
     0
 40
0.0
  0
LTYPE
  5
15
330
5
100
AcDbSymbolTableRecord
100
AcDbLinetypeTableRecord
  2
BYLAYER
 70
     0
  3

 72
    65
 73
     0
 40
0.0
  0
LTYPE
  5
16
330
5
100
AcDbSymbolTableRecord
100
AcDbLinetypeTableRecord
  2
CONTINUOUS
 70
     0
  3
Solid line
 72
    65
 73
     0
 40
0.0
  0
ENDTAB
  0
TABLE
  2
LAYER
  5
2
100
AcDbSymbolTable
 70
2
  0
LAYER
  5
50
100
AcDbSymbolTableRecord
100
AcDbLayerTableRecord
  2
0
 70
0
  6
CONTINUOUS
  0
LAYER
  5
51
100
AcDbSymbolTableRecord
100
AcDbLayerTableRecord
  2
Layer_1
 70
0
  6
CONTINUOUS
  0
ENDTAB
  0
TABLE
  2
STYLE
  5
3
330
0
100
AcDbSymbolTable
 70
     1
  0
STYLE
  5
11
330
3
100
AcDbSymbolTableRecord
100
AcDbTextStyleTableRecord
  2
STANDARD
 70
     0
 40
0.0
 41
1.0
 50
0.0
 71
     0
 42
2.5
  3
txt
  4

  0
ENDTAB
  0
TABLE
  2
VIEW
  5
6
330
0
100
AcDbSymbolTable
 70
     0
  0
ENDTAB
  0
TABLE
  2
UCS
  5
7
330
0
100
AcDbSymbolTable
 70
     0
  0
ENDTAB
  0
TABLE
  2
APPID
  5
9
330
0
100
AcDbSymbolTable
 70
     2
  0
APPID
  5
12
330
9
100
AcDbSymbolTableRecord
100
AcDbRegAppTableRecord
  2
ACAD
 70
     0
  0
ENDTAB
  0
TABLE
  2
DIMSTYLE
  5
A
330
0
100
AcDbSymbolTable
 70
     1
  0
DIMSTYLE
105
27
330
A
100
AcDbSymbolTableRecord
100
AcDbDimStyleTableRecord
  2
ISO-25
 70
     0
  3

  4

  5

  6

  7

 40
1.0
 41
2.5
 42
0.625
 43
3.75
 44
1.25
 45
0.0
 46
0.0
 47
0.0
 48
0.0
140
2.5
141
2.5
142
0.0
143
0.03937007874016
144
1.0
145
0.0
146
1.0
147
0.625
 71
     0
 72
     0
 73
     0
 74
     0
 75
     0
 76
     0
 77
     1
 78
     8
170
     0
171
     3
172
     1
173
     0
174
     0
175
     0
176
     0
177
     0
178
     0
270
     2
271
     2
272
     2
273
     2
274
     3
340
11
275
     0
280
     0
281
     0
282
     0
283
     0
284
     8
285
     0
286
     0
287
     3
288
     0
  0
ENDTAB
  0
TABLE
  2
BLOCK_RECORD
  5
1
330
0
100
AcDbSymbolTable
 70
     1
  0
BLOCK_RECORD
  5
1F
330
1
100
AcDbSymbolTableRecord
100
AcDbBlockTableRecord
  2
*MODEL_SPACE
  0
BLOCK_RECORD
  5
1B
330
1
100
AcDbSymbolTableRecord
100
AcDbBlockTableRecord
  2
*PAPER_SPACE
  0
ENDTAB
  0
ENDSEC
  0
SECTION
  2
BLOCKS
  0
BLOCK
  5
20
330
1F
100
AcDbEntity
  8
0
100
AcDbBlockBegin
  2
*MODEL_SPACE
 70
     0
 10
0.0
 20
0.0
 30
0.0
  3
*MODEL_SPACE
  1

  0
ENDBLK
  5
21
330
1F
100
AcDbEntity
  8
0
100
AcDbBlockEnd
  0
BLOCK
  5
1C
330
1B
100
AcDbEntity
 67
     1
  8
0
100
AcDbBlockBegin
  2
*PAPER_SPACE
  1

  0
ENDBLK
  5
1D
330
1B
100
AcDbEntity
 67
     1
  8
0
100
AcDbBlockEnd
  0
ENDSEC
  0
SECTION
  2
ENTITIES
  0
LWPOLYLINE
  5
100
100
AcDbEntity
  8
Layer_1
 62
7
100
AcDbPolyline
 90
8
 70
1
 10
5.999999
 20
6.000000
 30
0.0
 10
5.999999
 20
4.999985
 30
0.0
 10
5.971667
 20
4.999985
 30
0.0
 10
5.971667
 20
5.971614
 30
0.0
 10
4.999984
 20
5.971614
 30
0.0
 10
4.999984
 20
6.000000
 30
0.0
 10
5.999999
 20
6.000000
 30
0.0
 10
5.999999
 20
6.000000
 30
0.0
  0
LWPOLYLINE
  5
101
100
AcDbEntity
  8
Layer_1
 62
7
100
AcDbPolyline
 90
9
 70
1
 10
1.000015
 20
6.000000
 30
0.0
 10
1.000015
 20
5.971614
 30
0.0
 10
0.028332
 20
5.971614
 30
0.0
 10
0.028332
 20
4.999985
 30
0.0
 10
-0.000000
 20
4.999985
 30
0.0
 10
-0.000000
 20
5.985778
 30
0.0
 10
-0.000000
 20
6.000000
 30
0.0
 10
1.000015
 20
6.000000
 30
0.0
 10
1.000015
 20
6.000000
 30
0.0
  0
LWPOLYLINE
  5
102
100
AcDbEntity
  8
Layer_1
 62
7
100
AcDbPolyline
 90
8
 70
1
 10
5.999999
 20
0.799979
 30
0.0
 10
5.999999
 20
0.000000
 30
0.0
 10
4.999984
 20
0.000000
 30
0.0
 10
4.999984
 20
0.028333
 30
0.0
 10
5.971667
 20
0.028333
 30
0.0
 10
5.971667
 20
0.799979
 30
0.0
 10
5.999999
 20
0.799979
 30
0.0
 10
5.999999
 20
0.799979
 30
0.0
  0
LWPOLYLINE
  5
103
100
AcDbEntity
  8
Layer_1
 62
7
100
AcDbPolyline
 90
8
 70
1
 10
0.028332
 20
0.799979
 30
0.0
 10
0.028332
 20
0.028333
 30
0.0
 10
1.000015
 20
0.028333
 30
0.0
 10
1.000015
 20
0.000000
 30
0.0
 10
-0.000000
 20
0.000000
 30
0.0
 10
-0.000000
 20
0.799979
 30
0.0
 10
0.028332
 20
0.799979
 30
0.0
 10
0.028332
 20
0.799979
 30
0.0
  0
LWPOLYLINE
  5
104
100
AcDbEntity
  8
Layer_1
 62
7
100
AcDbPolyline
 90
398
 70
0
 10
2.875220
 20
3.771539
 30
0.0
 10
2.753016
 20
3.741498
 30
0.0
 10
2.749984
 20
3.731190
 30
0.0
 10
2.746401
 20
3.717410
 30
0.0
 10
2.743370
 20
3.703740
 30
0.0
 10
2.740779
 20
3.690180
 30
0.0
 10
2.738795
 20
3.676785
 30
0.0
 10
2.737361
 20
3.663556
 30
0.0
 10
2.736424
 20
3.650437
 30
0.0
 10
2.736142
 20
3.637539
 30
0.0
 10
2.736472
 20
3.624861
 30
0.0
 10
2.737465
 20
3.612458
 30
0.0
 10
2.743970
 20
3.602371
 30
0.0
 10
2.751190
 20
3.592559
 30
0.0
 10
2.754443
 20
3.587543
 30
0.0
 10
2.757309
 20
3.582362
 30
0.0
 10
2.759953
 20
3.577070
 30
0.0
 10
2.762104
 20
3.571503
 30
0.0
 10
2.762931
 20
3.568692
 30
0.0
 10
2.763591
 20
3.565771
 30
0.0
 10
2.763978
 20
3.562739
 30
0.0
 10
2.763978
 20
3.559487
 30
0.0
 10
2.761554
 20
3.555243
 30
0.0
 10
2.577282
 20
3.431880
 30
0.0
 10
2.572487
 20
3.431330
 30
0.0
 10
2.569455
 20
3.432487
 30
0.0
 10
2.566811
 20
3.434031
 30
0.0
 10
2.564386
 20
3.435795
 30
0.0
 10
2.562072
 20
3.437669
 30
0.0
 10
2.557773
 20
3.441693
 30
0.0
 10
2.553859
 20
3.446158
 30
0.0
 10
2.550166
 20
3.450843
 30
0.0
 10
2.546748
 20
3.455749
 30
0.0
 10
2.540409
 20
3.466111
 30
0.0
 10
2.533630
 20
3.476034
 30
0.0
 10
2.522550
 20
3.481656
 30
0.0
 10
2.510919
 20
3.486782
 30
0.0
 10
2.498903
 20
3.491412
 30
0.0
 10
2.486445
 20
3.495602
 30
0.0
 10
2.473657
 20
3.499295
 30
0.0
 10
2.460483
 20
3.502547
 30
0.0
 10
2.446979
 20
3.505358
 30
0.0
 10
2.433198
 20
3.507729
 30
0.0
 10
2.419087
 20
3.509659
 30
0.0
 10
2.408393
 20
3.510816
 30
0.0
 10
2.334034
 20
3.409227
 30
0.0
 10
2.338389
 20
3.399305
 30
0.0
 10
2.344508
 20
3.386517
 30
0.0
 10
2.350902
 20
3.374059
 30
0.0
 10
2.357682
 20
3.362098
 30
0.0
 10
2.364737
 20
3.350523
 30
0.0
 10
2.372179
 20
3.339443
 30
0.0
 10
2.379840
 20
3.328805
 30
0.0
 10
2.387943
 20
3.318718
 30
0.0
 10
2.396322
 20
3.309237
 30
0.0
 10
2.405086
 20
3.300362
 30
0.0
 10
2.416606
 20
3.296889
 30
0.0
 10
2.428347
 20
3.293968
 30
0.0
 10
2.434080
 20
3.292204
 30
0.0
 10
2.439647
 20
3.290053
 30
0.0
 10
2.445049
 20
3.287683
 30
0.0
 10
2.450231
 20
3.284872
 30
0.0
 10
2.452711
 20
3.283218
 30
0.0
 10
2.455136
 20
3.281398
 30
0.0
 10
2.457396
 20
3.279357
 30
0.0
 10
2.459380
 20
3.276820
 30
0.0
 10
2.460317
 20
3.272024
 30
0.0
 10
2.398471
 20
3.059090
 30
0.0
 10
2.395109
 20
3.055562
 30
0.0
 10
2.392077
 20
3.054515
 30
0.0
 10
2.389045
 20
3.054018
 30
0.0
 10
2.386069
 20
3.053736
 30
0.0
 10
2.383092
 20
3.053736
 30
0.0
 10
2.377194
 20
3.054123
 30
0.0
 10
2.371351
 20
3.054950
 30
0.0
 10
2.365508
 20
3.056163
 30
0.0
 10
2.359721
 20
3.057707
 30
0.0
 10
2.348200
 20
3.061566
 30
0.0
 10
2.336680
 20
3.064818
 30
0.0
 10
2.324498
 20
3.062007
 30
0.0
 10
2.312371
 20
3.058479
 30
0.0
 10
2.300134
 20
3.054235
 30
0.0
 10
2.287897
 20
3.049494
 30
0.0
 10
2.275715
 20
3.044092
 30
0.0
 10
2.263589
 20
3.038139
 30
0.0
 10
2.251462
 20
3.031580
 30
0.0
 10
2.239335
 20
3.024579
 30
0.0
 10
2.227264
 20
3.017028
 30
0.0
 10
2.218334
 20
3.010964
 30
0.0
 10
2.226657
 20
2.885342
 30
0.0
 10
2.236359
 20
2.880602
 30
0.0
 10
2.249312
 20
2.874649
 30
0.0
 10
2.262211
 20
2.869302
 30
0.0
 10
2.275054
 20
2.864451
 30
0.0
 10
2.287952
 20
2.860152
 30
0.0
 10
2.300796
 20
2.856404
 30
0.0
 10
2.313529
 20
2.853207
 30
0.0
 10
2.326096
 20
2.850669
 30
0.0
 10
2.338664
 20
2.848849
 30
0.0
 10
2.351067
 20
2.847636
 30
0.0
 10
2.362091
 20
2.852321
 30
0.0
 10
2.373005
 20
2.857723
 30
0.0
 10
2.378517
 20
2.860037
 30
0.0
 10
2.384139
 20
2.862021
 30
0.0
 10
2.389872
 20
2.863618
 30
0.0
 10
2.395660
 20
2.864775
 30
0.0
 10
2.398581
 20
2.865106
 30
0.0
 10
2.401613
 20
2.865219
 30
0.0
 10
2.404645
 20
2.865162
 30
0.0
 10
2.407842
 20
2.864555
 30
0.0
 10
2.411590
 20
2.861413
 30
0.0
 10
2.501052
 20
2.658566
 30
0.0
 10
2.500770
 20
2.653716
 30
0.0
 10
2.499116
 20
2.650958
 30
0.0
 10
2.497132
 20
2.648588
 30
0.0
 10
2.494981
 20
2.646494
 30
0.0
 10
2.492777
 20
2.644563
 30
0.0
 10
2.488037
 20
2.641090
 30
0.0
 10
2.482966
 20
2.637948
 30
0.0
 10
2.477729
 20
2.635082
 30
0.0
 10
2.472327
 20
2.632601
 30
0.0
 10
2.460972
 20
2.628192
 30
0.0
 10
2.450058
 20
2.623176
 30
0.0
 10
2.442562
 20
2.613254
 30
0.0
 10
2.435506
 20
2.602726
 30
0.0
 10
2.428837
 20
2.591646
 30
0.0
 10
2.422608
 20
2.580126
 30
0.0
 10
2.416710
 20
2.568164
 30
0.0
 10
2.411198
 20
2.555762
 30
0.0
 10
2.406126
 20
2.542974
 30
0.0
 10
2.401386
 20
2.529800
 30
0.0
 10
2.397031
 20
2.516240
 30
0.0
 10
2.394000
 20
2.505932
 30
0.0
 10
2.481147
 20
2.415037
 30
0.0
 10
2.491620
 20
2.417628
 30
0.0
 10
2.505345
 20
2.421376
 30
0.0
 10
2.518684
 20
2.425565
 30
0.0
 10
2.531693
 20
2.430140
 30
0.0
 10
2.544316
 20
2.435101
 30
0.0
 10
2.556498
 20
2.440448
 30
0.0
 10
2.568294
 20
2.446236
 30
0.0
 10
2.579594
 20
2.452465
 30
0.0
 10
2.590453
 20
2.459024
 30
0.0
 10
2.600705
 20
2.466135
 30
0.0
 10
2.606162
 20
2.476828
 30
0.0
 10
2.611013
 20
2.487963
 30
0.0
 10
2.613768
 20
2.493254
 30
0.0
 10
2.616799
 20
2.498381
 30
0.0
 10
2.620162
 20
2.503287
 30
0.0
 10
2.623800
 20
2.507917
 30
0.0
 10
2.625840
 20
2.510011
 30
0.0
 10
2.628044
 20
2.512105
 30
0.0
 10
2.630469
 20
2.513979
 30
0.0
 10
2.633280
 20
2.515523
 30
0.0
 10
2.638130
 20
2.515579
 30
0.0
 10
2.837119
 20
2.417683
 30
0.0
 10
2.840040
 20
2.413825
 30
0.0
 10
2.840481
 20
2.410628
 30
0.0
 10
2.840481
 20
2.407596
 30
0.0
 10
2.840255
 20
2.404564
 30
0.0
 10
2.839758
 20
2.401588
 30
0.0
 10
2.838381
 20
2.395910
 30
0.0
 10
2.836507
 20
2.390288
 30
0.0
 10
2.834303
 20
2.384721
 30
0.0
 10
2.831769
 20
2.379264
 30
0.0
 10
2.825926
 20
2.368625
 30
0.0
 10
2.820744
 20
2.357821
 30
0.0
 10
2.821405
 20
2.345364
 30
0.0
 10
2.822782
 20
2.332796
 30
0.0
 10
2.824766
 20
2.320063
 30
0.0
 10
2.827413
 20
2.307164
 30
0.0
 10
2.830610
 20
2.294211
 30
0.0
 10
2.834359
 20
2.281202
 30
0.0
 10
2.838658
 20
2.268083
 30
0.0
 10
2.843509
 20
2.255019
 30
0.0
 10
2.848910
 20
2.241846
 30
0.0
 10
2.853265
 20
2.231923
 30
0.0
 10
2.978391
 20
2.218309
 30
0.0
 10
2.984785
 20
2.227073
 30
0.0
 10
2.992888
 20
2.238759
 30
0.0
 10
3.000440
 20
2.250555
 30
0.0
 10
3.007385
 20
2.262406
 30
0.0
 10
3.013889
 20
2.274312
 30
0.0
 10
3.019787
 20
2.286274
 30
0.0
 10
3.025079
 20
2.298290
 30
0.0
 10
3.029819
 20
2.310306
 30
0.0
 10
3.033843
 20
2.322323
 30
0.0
 10
3.037151
 20
2.334339
 30
0.0
 10
3.034450
 20
2.345970
 30
0.0
 10
3.031032
 20
2.357656
 30
0.0
 10
3.029709
 20
2.363554
 30
0.0
 10
3.028718
 20
2.369397
 30
0.0
 10
3.028168
 20
2.375240
 30
0.0
 10
3.027999
 20
2.381137
 30
0.0
 10
3.028168
 20
2.384114
 30
0.0
 10
3.028554
 20
2.387146
 30
0.0
 10
3.029215
 20
2.390122
 30
0.0
 10
3.030372
 20
2.393154
 30
0.0
 10
3.034065
 20
2.396296
 30
0.0
 10
3.249370
 20
2.449213
 30
0.0
 10
3.254110
 20
2.448109
 30
0.0
 10
3.256535
 20
2.445959
 30
0.0
 10
3.258465
 20
2.443588
 30
0.0
 10
3.260229
 20
2.441107
 30
0.0
 10
3.261716
 20
2.438573
 30
0.0
 10
3.264361
 20
2.433281
 30
0.0
 10
3.266565
 20
2.427769
 30
0.0
 10
3.268439
 20
2.422147
 30
0.0
 10
3.269983
 20
2.416359
 30
0.0
 10
3.272353
 20
2.404453
 30
0.0
 10
3.275330
 20
2.392822
 30
0.0
 10
3.283874
 20
2.383727
 30
0.0
 10
3.293024
 20
2.374962
 30
0.0
 10
3.302725
 20
2.366474
 30
0.0
 10
3.312978
 20
2.358261
 30
0.0
 10
3.323782
 20
2.350378
 30
0.0
 10
3.335026
 20
2.342882
 30
0.0
 10
3.346712
 20
2.335606
 30
0.0
 10
3.358839
 20
2.328661
 30
0.0
 10
3.371462
 20
2.322046
 30
0.0
 10
3.381108
 20
2.317306
 30
0.0
 10
3.485784
 20
2.387310
 30
0.0
 10
3.485013
 20
2.398058
 30
0.0
 10
3.483690
 20
2.412225
 30
0.0
 10
3.481926
 20
2.426115
 30
0.0
 10
3.479665
 20
2.439730
 30
0.0
 10
3.476964
 20
2.453015
 30
0.0
 10
3.473822
 20
2.465968
 30
0.0
 10
3.470129
 20
2.478591
 30
0.0
 10
3.465995
 20
2.490773
 30
0.0
 10
3.461365
 20
2.502569
 30
0.0
 10
3.456239
 20
2.513924
 30
0.0
 10
3.446648
 20
2.521090
 30
0.0
 10
3.436505
 20
2.527815
 30
0.0
 10
3.431765
 20
2.531508
 30
0.0
 10
3.427245
 20
2.535366
 30
0.0
 10
3.422945
 20
2.539500
 30
0.0
 10
3.419087
 20
2.543965
 30
0.0
 10
3.417323
 20
2.546336
 30
0.0
 10
3.415669
 20
2.548870
 30
0.0
 10
3.414292
 20
2.551514
 30
0.0
 10
3.413245
 20
2.554601
 30
0.0
 10
3.414015
 20
2.559397
 30
0.0
 10
3.544984
 20
2.738321
 30
0.0
 10
3.549284
 20
2.740525
 30
0.0
 10
3.552536
 20
2.740469
 30
0.0
 10
3.555568
 20
2.739919
 30
0.0
 10
3.558434
 20
2.739092
 30
0.0
 10
3.561191
 20
2.738098
 30
0.0
 10
3.566648
 20
2.735784
 30
0.0
 10
3.571829
 20
2.732973
 30
0.0
 10
3.576901
 20
2.729831
 30
0.0
 10
3.581806
 20
2.726414
 30
0.0
 10
3.591287
 20
2.718752
 30
0.0
 10
3.601099
 20
2.711862
 30
0.0
 10
3.613446
 20
2.710318
 30
0.0
 10
3.626069
 20
2.709437
 30
0.0
 10
3.639023
 20
2.709211
 30
0.0
 10
3.652086
 20
2.709542
 30
0.0
 10
3.665426
 20
2.710479
 30
0.0
 10
3.678875
 20
2.711912
 30
0.0
 10
3.692545
 20
2.713843
 30
0.0
 10
3.706271
 20
2.716323
 30
0.0
 10
3.720217
 20
2.719355
 30
0.0
 10
3.730690
 20
2.721946
 30
0.0
 10
3.765802
 20
2.842827
 30
0.0
 10
3.758306
 20
2.850655
 30
0.0
 10
3.748218
 20
2.860632
 30
0.0
 10
3.737910
 20
2.870057
 30
0.0
 10
3.727437
 20
2.879042
 30
0.0
 10
3.716799
 20
2.887531
 30
0.0
 10
3.706105
 20
2.895413
 30
0.0
 10
3.695191
 20
2.902689
 30
0.0
 10
3.684167
 20
2.909414
 30
0.0
 10
3.673033
 20
2.915478
 30
0.0
 10
3.661788
 20
2.920824
 30
0.0
 10
3.649826
 20
2.920164
 30
0.0
 10
3.637755
 20
2.918840
 30
0.0
 10
3.631747
 20
2.918614
 30
0.0
 10
3.625848
 20
2.918614
 30
0.0
 10
3.619951
 20
2.919111
 30
0.0
 10
3.614052
 20
2.919992
 30
0.0
 10
3.611186
 20
2.920652
 30
0.0
 10
3.608265
 20
2.921533
 30
0.0
 10
3.605510
 20
2.922690
 30
0.0
 10
3.602699
 20
2.924344
 30
0.0
 10
3.600275
 20
2.928533
 30
0.0
 10
3.585558
 20
3.149791
 30
0.0
 10
3.587432
 20
3.154255
 30
0.0
 10
3.589969
 20
3.156296
 30
0.0
 10
3.592613
 20
3.157783
 30
0.0
 10
3.595314
 20
3.159050
 30
0.0
 10
3.598071
 20
3.160097
 30
0.0
 10
3.603804
 20
3.161751
 30
0.0
 10
3.609592
 20
3.162965
 30
0.0
 10
3.615490
 20
3.163792
 30
0.0
 10
3.621443
 20
3.164398
 30
0.0
 10
3.633570
 20
3.164624
 30
0.0
 10
3.645531
 20
3.165561
 30
0.0
 10
3.656004
 20
3.172341
 30
0.0
 10
3.666256
 20
3.179893
 30
0.0
 10
3.676289
 20
3.187940
 30
0.0
 10
3.686100
 20
3.196650
 30
0.0
 10
3.695691
 20
3.205855
 30
0.0
 10
3.705117
 20
3.215667
 30
0.0
 10
3.714267
 20
3.225974
 30
0.0
 10
3.723252
 20
3.236723
 30
0.0
 10
3.731961
 20
3.247912
 30
0.0
 10
3.738300
 20
3.256622
 30
0.0
 10
3.687534
 20
3.371881
 30
0.0
 10
3.676785
 20
3.372984
 30
0.0
 10
3.662618
 20
3.374141
 30
0.0
 10
3.648618
 20
3.374748
 30
0.0
 10
3.634837
 20
3.374974
 30
0.0
 10
3.621332
 20
3.374534
 30
0.0
 10
3.607993
 20
3.373707
 30
0.0
 10
3.594984
 20
3.372330
 30
0.0
 10
3.582196
 20
3.370399
 30
0.0
 10
3.569794
 20
3.367862
 30
0.0
 10
3.557722
 20
3.364720
 30
0.0
 10
3.548958
 20
3.356507
 30
0.0
 10
3.540580
 20
3.347743
 30
0.0
 10
3.536170
 20
3.343664
 30
0.0
 10
3.531539
 20
3.339860
 30
0.0
 10
3.526744
 20
3.336443
 30
0.0
 10
3.521673
 20
3.333411
 30
0.0
 10
3.519028
 20
3.331977
 30
0.0
 10
3.516271
 20
3.330874
 30
0.0
 10
3.513349
 20
3.329937
 30
0.0
 10
3.510152
 20
3.329440
 30
0.0
 10
3.505632
 20
3.331038
 30
0.0
 10
3.352119
 20
3.491055
 30
0.0
 10
3.350742
 20
3.495686
 30
0.0
 10
3.351348
 20
3.498883
 30
0.0
 10
3.352395
 20
3.501804
 30
0.0
 10
3.353663
 20
3.504449
 30
0.0
 10
3.355096
 20
3.507039
 30
0.0
 10
3.358404
 20
3.511945
 30
0.0
 10
3.362042
 20
3.516631
 30
0.0
 10
3.366010
 20
3.521095
 30
0.0
 10
3.370255
 20
3.525340
 30
0.0
 10
3.379405
 20
3.533333
 30
0.0
 10
3.387949
 20
3.541766
 30
0.0
 10
3.391587
 20
3.553672
 30
0.0
 10
3.394673
 20
3.565965
 30
0.0
 10
3.397098
 20
3.578642
 30
0.0
 10
3.399028
 20
3.591596
 30
0.0
 10
3.400462
 20
3.604880
 30
0.0
 10
3.401342
 20
3.618385
 30
0.0
 10
3.401839
 20
3.632165
 30
0.0
 10
3.401726
 20
3.646166
 30
0.0
 10
3.401230
 20
3.660333
 30
0.0
 10
3.400456
 20
3.671136
 30
0.0
 10
3.287512
 20
3.726754
 30
0.0
 10
3.278582
 20
3.720746
 30
0.0
 10
3.266952
 20
3.712477
 30
0.0
 10
3.255817
 20
3.703989
 30
0.0
 10
3.245179
 20
3.695280
 30
0.0
 10
3.234981
 20
3.686295
 30
0.0
 10
3.225390
 20
3.677034
 30
0.0
 10
3.216295
 20
3.667553
 30
0.0
 10
3.207751
 20
3.657907
 30
0.0
 10
3.199869
 20
3.648040
 30
0.0
 10
3.192648
 20
3.637843
 30
0.0
 10
3.191214
 20
3.625937
 30
0.0
 10
3.190444
 20
3.613810
 30
0.0
 10
3.189671
 20
3.607857
 30
0.0
 10
3.188567
 20
3.602014
 30
0.0
 10
3.187133
 20
3.596281
 30
0.0
 10
3.185203
 20
3.590714
 30
0.0
 10
3.184046
 20
3.587957
 30
0.0
 10
3.182669
 20
3.585256
 30
0.0
 10
3.181015
 20
3.582721
 30
0.0
 10
3.178921
 20
3.580241
 30
0.0
 10
3.174401
 20
3.578533
 30
0.0
 10
2.953915
 20
3.602456
 30
0.0
 10
2.949836
 20
3.605157
 30
0.0
 10
2.948292
 20
3.607968
 30
0.0
 10
2.947299
 20
3.610834
 30
0.0
 10
2.946528
 20
3.613755
 30
0.0
 10
2.945922
 20
3.616677
 30
0.0
 10
2.945315
 20
3.622520
 30
0.0
 10
2.945089
 20
3.628473
 30
0.0
 10
2.945315
 20
3.634371
 30
0.0
 10
2.945811
 20
3.640379
 30
0.0
 10
2.947629
 20
3.652396
 30
0.0
 10
2.948786
 20
3.664302
 30
0.0
 10
2.943935
 20
3.675767
 30
0.0
 10
2.938368
 20
3.687177
 30
0.0
 10
2.932084
 20
3.698422
 30
0.0
 10
2.925249
 20
3.709667
 30
0.0
 10
2.917808
 20
3.720746
 30
0.0
 10
2.909815
 20
3.731715
 30
0.0
 10
2.901271
 20
3.742519
 30
0.0
 10
2.892286
 20
3.753213
 30
0.0
 10
2.882695
 20
3.763741
 30
0.0
 10
2.875199
 20
3.771513
 30
0.0
 10
2.875220
 20
3.771539
 30
0.0
  0
LWPOLYLINE
  5
105
100
AcDbEntity
  8
Layer_1
 62
7
100
AcDbPolyline
 90
34
 70
0
 10
3.000015
 20
3.400020
 30
0.0
 10
3.080626
 20
3.391886
 30
0.0
 10
3.155705
 20
3.368573
 30
0.0
 10
3.223646
 20
3.331689
 30
0.0
 10
3.282839
 20
3.282843
 30
0.0
 10
3.331677
 20
3.223643
 30
0.0
 10
3.368552
 20
3.155697
 30
0.0
 10
3.391854
 20
3.080614
 30
0.0
 10
3.399977
 20
3.000003
 30
0.0
 10
3.391854
 20
2.919392
 30
0.0
 10
3.368552
 20
2.844309
 30
0.0
 10
3.331677
 20
2.776363
 30
0.0
 10
3.282839
 20
2.717163
 30
0.0
 10
3.223646
 20
2.668317
 30
0.0
 10
3.155705
 20
2.631433
 30
0.0
 10
3.080626
 20
2.608120
 30
0.0
 10
3.000015
 20
2.599986
 30
0.0
 10
2.921610
 20
2.607741
 30
0.0
 10
2.846933
 20
2.630431
 30
0.0
 10
2.778082
 20
2.667189
 30
0.0
 10
2.717156
 20
2.717144
 30
0.0
 10
2.667201
 20
2.778070
 30
0.0
 10
2.630444
 20
2.846921
 30
0.0
 10
2.607753
 20
2.921598
 30
0.0
 10
2.599998
 20
3.000003
 30
0.0
 10
2.607753
 20
3.078408
 30
0.0
 10
2.630444
 20
3.153085
 30
0.0
 10
2.667201
 20
3.221936
 30
0.0
 10
2.717156
 20
3.282862
 30
0.0
 10
2.778082
 20
3.332817
 30
0.0
 10
2.846933
 20
3.369575
 30
0.0
 10
2.921610
 20
3.392265
 30
0.0
 10
3.000015
 20
3.400020
 30
0.0
 10
3.000015
 20
3.400020
 30
0.0
  0
ENDSEC
  0
SECTION
  2
OBJECTS
  0
DICTIONARY
  5
C
330
0
100
AcDbDictionary
  3
ACAD_GROUP
350
D
  3
ACAD_MLINESTYLE
350
17
  0
DICTIONARY
  5
D
330
C
100
AcDbDictionary
  0
DICTIONARY
  5
1A
330
C
100
AcDbDictionary
  0
DICTIONARY
  5
17
330
C
100
AcDbDictionary
  3
STANDARD
350
18
  0
DICTIONARY
  5
19
330
C
100
AcDbDictionary
  0
ENDSEC
  0
EOF
