<?xml version="1.0" encoding="ISO-8859-1" standalone="no"?>
<!DOCTYPE svg PUBLIC "-//W3C//DTD SVG 1.1//EN"
    "http://www.w3.org/Graphics/SVG/1.1/DTD/svg11.dtd">
<svg xmlns="http://www.w3.org/2000/svg"
     xmlns:xlink="http://www.w3.org/1999/xlink" xml:space="preserve"
         width="580px" height="580px"
         viewBox="0 0 580 580"
         zoomAndPan="disable" preserveAspectRatio="none" >
<!-- Made with the gear generator.  http://woodgears.ca/gear   2017-03-04T18:46:57 -->
<!-- G1:Toothspacing=89.76  Teeth=-14  Slop=2.0  Spur gear  Angle=20.0  Addendum=.1 -->
<!-- G2:Toothspacing=89.76  Teeth=9  Slop=2.0  Spur gear  Angle=20.0  Addendum=.2 -->
<!-- G2:Toothspacing=89.76  Teeth=9  Slop=2.0  Spur gear  Angle=20.0  Addendum=.2 -->
<polygon id="G1Gear" data-id="0" class="gear" fill="none" fill-opacity="0.2" stroke="#000"  stroke-miterlimit="10"
points =" 106.31 240.49 105.47 240.41 104.62 240.34 103.76 240.3 102.03 240.26 100.29 240.28 98.53 240.36 94.99 240.67
 91.4 241.17 87.79 241.84 84.14 242.68 80.48 243.68 76.79 244.83 73.1 246.13 70.32 247.2 66.63 276.41
 69.05 278.14 72.31 280.32 75.59 282.35 78.89 284.23 82.21 285.95 85.55 287.5 88.9 288.87 92.26 290.06
 93.94 290.57 95.62 291.02 97.3 291.41 98.14 291.58 98.98 291.73 99.82 291.86 103.1 324.97 102.3 325.26
 101.51 325.57 100.72 325.9 99.14 326.61 97.58 327.39 96.04 328.22 92.98 330.04 89.96 332.04 87 334.22
 84.08 336.55 81.21 339.04 78.39 341.68 75.62 344.45 73.58 346.63 82.93 374.55 85.87 375.05 89.75 375.6
 93.59 376.01 97.38 376.27 101.11 376.37 104.79 376.32 108.41 376.11 111.94 375.72 113.68 375.45 115.39 375.13
 117.08 374.76 117.91 374.54 118.73 374.31 119.54 374.06 136.86 402.47 136.27 403.07 135.69 403.7 135.12 404.34
 134.01 405.67 132.94 407.04 131.91 408.46 129.94 411.43 128.09 414.54 126.37 417.79 124.75 421.16 123.24 424.65
 121.85 428.25 120.56 431.95 119.66 434.79 140.2 455.89 143.07 455.07 146.8 453.88 150.43 452.58 153.96 451.17
 157.38 449.65 160.67 448.01 163.83 446.25 166.85 444.36 168.3 443.36 169.7 442.33 171.06 441.26 171.71 440.71
 172.35 440.14 172.98 439.57 200.91 457.64 200.63 458.45 200.38 459.27 200.15 460.09 199.72 461.77 199.36 463.47
 199.04 465.2 198.56 468.72 198.25 472.33 198.1 476.01 198.1 479.74 198.26 483.54 198.56 487.39 199.01 491.28
 199.43 494.23 227.09 504.33 229.32 502.35 232.17 499.66 234.88 496.91 237.44 494.11 239.86 491.25 242.11 488.35
 244.2 485.39 246.1 482.38 246.97 480.85 247.79 479.31 248.55 477.76 248.9 476.98 249.23 476.19 249.54 475.4
 282.55 479.57 282.65 480.41 282.78 481.26 282.92 482.1 283.27 483.8 283.68 485.49 284.15 487.18 285.24 490.57
 286.52 493.96 287.98 497.33 289.61 500.7 291.4 504.05 293.34 507.39 295.43 510.7 297.1 513.17 326.4 510.27
 327.54 507.52 328.94 503.86 330.19 500.21 331.29 496.57 332.22 492.95 333 489.35 333.59 485.78 334 482.25
 334.12 480.49 334.19 478.75 334.2 477.03 334.18 476.17 334.13 475.31 334.07 474.47 365.62 463.9 366.08 464.62
 366.56 465.32 367.06 466.02 368.1 467.4 369.21 468.75 370.36 470.07 372.82 472.65 375.44 475.14 378.22 477.55
 381.15 479.87 384.22 482.12 387.41 484.28 390.73 486.36 393.31 487.86 418.44 472.54 418.28 469.56 417.96 465.66
 417.5 461.82 416.91 458.07 416.18 454.4 415.31 450.83 414.3 447.35 413.13 443.99 412.49 442.36 411.79 440.76
 411.05 439.2 410.66 438.44 410.25 437.69 409.82 436.95 433.66 413.74 434.39 414.19 435.13 414.62 435.88 415.03
 437.42 415.81 439 416.55 440.61 417.24 443.94 418.5 447.39 419.6 450.94 420.57 454.59 421.39 458.32 422.09
 462.14 422.65 466.04 423.08 469.01 423.32 485 398.6 483.57 395.99 481.58 392.61 479.5 389.36 477.34 386.24
 475.1 383.25 472.76 380.4 470.34 377.71 467.83 375.19 466.54 374 465.22 372.86 463.88 371.77 463.19 371.26
 462.5 370.76 461.8 370.28 473.21 339.03 474.05 339.11 474.9 339.18 475.76 339.22 477.49 339.26 479.23 339.24
 480.99 339.16 484.53 338.85 488.12 338.35 491.73 337.68 495.38 336.84 499.04 335.84 502.73 334.69 506.42 333.39
 509.2 332.32 512.89 303.11 510.47 301.38 507.21 299.2 503.93 297.17 500.63 295.29 497.3 293.57 493.97 292.02
 490.62 290.65 487.26 289.46 485.58 288.95 483.9 288.5 482.22 288.11 481.38 287.94 480.54 287.79 479.7 287.66
 476.42 254.55 477.22 254.26 478.01 253.95 478.8 253.62 480.38 252.91 481.94 252.13 483.48 251.3 486.54 249.48
 489.56 247.48 492.52 245.3 495.44 242.97 498.31 240.48 501.13 237.84 503.9 235.06 505.94 232.89 496.59 204.97
 493.65 204.47 489.77 203.92 485.93 203.51 482.14 203.25 478.41 203.15 474.73 203.19 471.11 203.41 467.58 203.8
 465.84 204.07 464.13 204.39 462.44 204.76 461.61 204.98 460.79 205.21 459.98 205.46 442.66 177.05 443.25 176.45
 443.83 175.82 444.4 175.18 445.51 173.85 446.58 172.48 447.61 171.06 449.58 168.09 451.42 164.98 453.15 161.73
 454.77 158.36 456.28 154.87 457.67 151.27 458.96 147.57 459.86 144.73 439.32 123.63 436.45 124.45 432.72 125.64
 429.09 126.94 425.56 128.35 422.14 129.87 418.85 131.51 415.69 133.27 412.67 135.16 411.22 136.16 409.82 137.19
 408.46 138.26 407.81 138.81 407.17 139.38 406.54 139.95 378.61 121.88 378.89 121.07 379.14 120.25 379.37 119.43
 379.8 117.75 380.16 116.05 380.48 114.32 380.96 110.8 381.27 107.19 381.42 103.51 381.42 99.77 381.26 95.98
 380.96 92.13 380.51 88.24 380.08 85.29 352.43 75.19 350.2 77.17 347.35 79.86 344.64 82.61 342.08 85.41
 339.66 88.27 337.41 91.17 335.32 94.13 333.42 97.14 332.55 98.67 331.73 100.2 330.97 101.76 330.62 102.54
 330.29 103.33 329.98 104.12 296.97 99.95 296.87 99.11 296.74 98.26 296.6 97.41 296.25 95.72 295.84 94.03
 295.37 92.34 294.28 88.95 293 85.56 291.54 82.19 289.91 78.82 288.12 75.47 286.18 72.13 284.09 68.82
 282.42 66.35 253.12 69.25 251.98 72 250.58 75.66 249.33 79.31 248.23 82.95 247.29 86.57 246.52 90.17
 245.93 93.74 245.52 97.27 245.4 99.03 245.33 100.77 245.32 102.49 245.34 103.35 245.39 104.2 245.45 105.05
 213.9 115.62 213.44 114.9 212.96 114.2 212.46 113.5 211.42 112.12 210.31 110.77 209.16 109.45 206.7 106.87
 204.08 104.38 201.3 101.97 198.37 99.65 195.3 97.4 192.11 95.24 188.79 93.16 186.21 91.65 161.07 106.98
 161.23 109.96 161.56 113.86 162.02 117.7 162.61 121.45 163.34 125.12 164.21 128.69 165.22 132.17 166.39 135.53
 167.03 137.16 167.73 138.76 168.47 140.32 168.86 141.08 169.27 141.83 169.7 142.57 145.86 165.78 145.13 165.33
 144.39 164.9 143.64 164.49 142.1 163.71 140.52 162.97 138.91 162.28 135.58 161.02 132.13 159.91 128.58 158.95
 124.93 158.13 121.2 157.43 117.38 156.87 113.48 156.44 110.51 156.2 94.51 180.92 95.95 183.53 97.94 186.91
 100.02 190.16 102.18 193.28 104.42 196.27 106.76 199.12 109.18 201.81 111.69 204.33 112.98 205.52 114.3 206.66
 115.64 207.75 116.33 208.26 117.02 208.76 117.72 209.24"/>
<circle id="G1_out_circ" cx="289.76" cy="289.76" r="289.76" stroke="#000"  fill="none"/>
<polygon id="G2Gear" data-id="0" class="gear" fill="none" fill-opacity="0.2" stroke="#000"  stroke-miterlimit="10"
points =" 111.16 249.41 110.38 249.9 109.77 249.93 109.19 249.88 108.63 249.78 108.09 249.64 107.02 249.29 105.99 248.84
 104.99 248.34 104 247.77 102.09 246.49 100.13 245.34 97.77 245.26 95.37 245.31 92.93 245.47 90.46 245.75
 87.96 246.14 85.44 246.64 82.9 247.23 80.35 247.93 77.77 248.73 75.84 249.39 71.2 272.79 72.74 274.13
 74.82 275.85 76.92 277.47 79.04 278.99 81.18 280.41 83.34 281.72 85.52 282.92 87.71 284 89.91 284.96
 92.12 285.79 94.37 285.47 96.63 285.01 97.75 284.87 98.88 284.78 100 284.76 101.12 284.84 101.67 284.92
 102.23 285.04 102.78 285.21 103.33 285.48 103.87 286.23 110.29 327.74 110.01 328.61 109.57 329.04 109.09 329.37
 108.6 329.65 108.09 329.89 107.05 330.3 105.98 330.63 104.88 330.88 103.76 331.08 101.47 331.33 99.23 331.71
 97.37 333.16 95.56 334.74 93.8 336.44 92.09 338.24 90.43 340.15 88.82 342.14 87.25 344.23 85.74 346.41
 84.28 348.68 83.22 350.43 94.71 371.33 96.76 371.37 99.45 371.35 102.1 371.24 104.7 371.04 107.26 370.75
 109.75 370.37 112.19 369.89 114.57 369.31 116.87 368.63 119.09 367.84 120.61 366.15 122.05 364.35 122.82 363.52
 123.62 362.73 124.47 362 125.38 361.33 125.85 361.04 126.36 360.77 126.89 360.55 127.48 360.4 128.37 360.63
 159.98 388.3 160.33 389.15 160.26 389.76 160.11 390.32 159.91 390.85 159.68 391.36 159.14 392.35 158.53 393.29
 157.85 394.19 157.13 395.06 155.53 396.72 154.06 398.45 153.57 400.76 153.2 403.14 152.94 405.57 152.79 408.05
 152.74 410.57 152.79 413.14 152.94 415.75 153.18 418.39 153.51 421.06 153.83 423.08 176.07 431.71 177.66 430.42
 179.71 428.68 181.67 426.89 183.54 425.07 185.3 423.2 186.97 421.3 188.53 419.37 189.98 417.4 191.31 415.4
 192.5 413.36 192.58 411.09 192.52 408.79 192.57 407.66 192.68 406.53 192.86 405.43 193.13 404.34 193.3 403.8
 193.52 403.28 193.79 402.76 194.15 402.27 194.97 401.87 236.97 402.75 237.78 403.18 238.12 403.69 238.37 404.22
 238.56 404.75 238.71 405.29 238.93 406.39 239.07 407.5 239.13 408.63 239.13 409.77 238.98 412.06 238.96 414.34
 240.07 416.42 241.31 418.48 242.68 420.5 244.16 422.5 245.74 424.47 247.43 426.4 249.22 428.31 251.1 430.17
 253.07 432 254.62 433.35 277.2 425.66 277.59 423.66 278.04 421 278.39 418.37 278.65 415.78 278.81 413.21
 278.86 410.69 278.81 408.2 278.66 405.76 278.39 403.38 278 401.05 276.59 399.26 275.07 397.53 274.38 396.63
 273.74 395.7 273.17 394.74 272.68 393.73 272.47 393.21 272.29 392.67 272.17 392.1 272.12 391.49 272.5 390.66
 305.24 364.33 306.14 364.14 306.73 364.31 307.25 364.56 307.74 364.85 308.21 365.16 309.08 365.86 309.9 366.63
 310.67 367.45 311.4 368.32 312.77 370.18 314.21 371.93 316.4 372.81 318.67 373.59 321.02 374.26 323.44 374.85
 325.92 375.33 328.46 375.73 331.05 376.04 333.69 376.26 336.38 376.39 338.43 376.43 350.78 356.03 349.8 354.24
 348.43 351.92 347.01 349.68 345.54 347.52 344.01 345.46 342.43 343.49 340.8 341.61 339.11 339.85 337.37 338.19
 335.57 336.66 333.35 336.19 331.07 335.84 329.96 335.6 328.88 335.29 327.82 334.93 326.79 334.48 326.3 334.21
 325.82 333.91 325.36 333.56 324.93 333.12 324.68 332.23 332.84 291.02 333.41 290.3 333.97 290.05 334.53 289.9
 335.09 289.81 335.65 289.75 336.77 289.72 337.89 289.79 339.01 289.92 340.13 290.12 342.36 290.66 344.6 291.08
 346.84 290.35 349.08 289.48 351.32 288.49 353.54 287.38 355.75 286.16 357.95 284.83 360.14 283.4 362.3 281.87
 364.45 280.24 366.04 278.96 362.39 255.39 360.48 254.65 357.95 253.75 355.42 252.94 352.91 252.24 350.41 251.64
 347.93 251.15 345.48 250.76 343.05 250.49 340.65 250.34 338.29 250.33 336.28 251.4 334.32 252.59 333.31 253.12
 332.28 253.58 331.24 253.98 330.16 254.3 329.61 254.41 329.05 254.49 328.47 254.52 327.86 254.45 327.1 253.93
 306.86 217.12 306.83 216.2 307.1 215.65 307.44 215.18 307.8 214.74 308.2 214.34 309.04 213.6 309.93 212.93
 310.88 212.31 311.86 211.74 313.92 210.72 315.9 209.61 317.15 207.6 318.31 205.5 319.38 203.3 320.38 201.02
 321.29 198.67 322.12 196.24 322.87 193.74 323.55 191.18 324.15 188.55 324.54 186.54 306.6 170.83 304.66 171.49
 302.13 172.43 299.68 173.44 297.31 174.51 295.01 175.66 292.79 176.88 290.66 178.16 288.63 179.51 286.7 180.94
 284.88 182.44 284.03 184.55 283.29 186.73 282.86 187.78 282.37 188.8 281.82 189.78 281.2 190.71 280.85 191.15
 280.47 191.57 280.05 191.97 279.54 192.31 278.62 192.4 239.46 177.21 238.84 176.52 238.7 175.93 238.65 175.35
 238.65 174.78 238.69 174.22 238.86 173.12 239.12 172.02 239.44 170.94 239.83 169.88 240.76 167.77 241.55 165.64
 241.22 163.3 240.76 160.95 240.17 158.57 239.46 156.19 238.65 153.8 237.72 151.4 236.69 149.01 235.56 146.61
 234.33 144.21 233.35 142.42 209.5 141.92 208.44 143.67 207.11 146.01 205.88 148.36 204.75 150.71 203.73 153.07
 202.81 155.42 202.01 157.77 201.32 160.12 200.75 162.45 200.33 164.78 201.03 166.94 201.87 169.08 202.21 170.16
 202.49 171.26 202.7 172.36 202.83 173.47 202.84 174.03 202.82 174.6 202.75 175.18 202.58 175.76 201.94 176.42
 162.17 189.96 161.26 189.83 160.77 189.47 160.36 189.06 159.99 188.62 159.66 188.16 159.08 187.21 158.58 186.21
 158.13 185.17 157.74 184.1 157.1 181.89 156.34 179.75 154.58 178.17 152.71 176.67 150.74 175.23 148.66 173.86
 146.5 172.55 144.25 171.31 141.92 170.13 139.52 169.02 137.03 167.98 135.12 167.24 116.53 182.18 116.85 184.21
 117.33 186.86 117.9 189.45 118.55 191.97 119.28 194.44 120.09 196.83 120.99 199.15 121.97 201.39 123.04 203.54
 124.2 205.59 126.13 206.79 128.15 207.9 129.11 208.51 130.03 209.16 130.89 209.87 131.7 210.64 132.08 211.06
 132.43 211.51 132.74 212 132.99 212.56 132.92 213.48"/>
</svg>
