999
Inkscape export via OpenSCAD DXF Export
  0
SECTION
  2
HEADER
  9
$ACADVER
  1
AC1014
  9
$HANDSEED
  5
FFFF
  9
$MEASUREMENT
 70
     1
  0
ENDSEC
  0
SECTION
  2
TABLES
  0
TABLE
  2
VPORT
  5
8
330
0
100
AcDbSymbolTable
 70
     4
  0
VPORT
  5
2E
330
8
100
AcDbSymbolTableRecord
100
AcDbViewportTableRecord
  2
*ACTIVE
 70
     0
 10
0.0
 20
0.0
 11
1.0
 21
1.0
 12
210.0
 22
148.5
 13
0.0
 23
0.0
 14
10.0
 24
10.0
 15
10.0
 25
10.0
 16
0.0
 26
0.0
 36
1.0
 17
0.0
 27
0.0
 37
0.0
 40
341.0
 41
1.24
 42
50.0
 43
0.0
 44
0.0
 50
0.0
 51
0.0
 71
     0
 72
   100
 73
     1
 74
     3
 75
     0
 76
     0
 77
     0
 78
     0
  0
ENDTAB
  0
TABLE
  2
LTYPE
  5
5
330
0
100
AcDbSymbolTable
 70
     1
  0
LTYPE
  5
14
330
5
100
AcDbSymbolTableRecord
100
AcDbLinetypeTableRecord
  2
BYBLOCK
 70
     0
  3

 72
    65
 73
     0
 40
0.0
  0
LTYPE
  5
15
330
5
100
AcDbSymbolTableRecord
100
AcDbLinetypeTableRecord
  2
BYLAYER
 70
     0
  3

 72
    65
 73
     0
 40
0.0
  0
LTYPE
  5
16
330
5
100
AcDbSymbolTableRecord
100
AcDbLinetypeTableRecord
  2
CONTINUOUS
 70
     0
  3
Solid line
 72
    65
 73
     0
 40
0.0
  0
ENDTAB
  0
TABLE
0
TABLE
2
LAYER
5
2
330
0
100
AcDbSymbolTable
70
1
0
LAYER
5
10
330
2
100
AcDbSymbolTableRecord
100
AcDbLayerTableRecord
2
Layer_1
70
0
62
7
6
CONTINUOUS
0
ENDTAB
0
ENDSEC
  0
ENDTAB
  0
TABLE
  2
STYLE
  5
3
330
0
100
AcDbSymbolTable
 70
     1
  0
STYLE
  5
11
330
3
100
AcDbSymbolTableRecord
100
AcDbTextStyleTableRecord
  2
STANDARD
 70
     0
 40
0.0
 41
1.0
 50
0.0
 71
     0
 42
2.5
  3
txt
  4

  0
ENDTAB
  0
TABLE
  2
VIEW
  5
6
330
0
100
AcDbSymbolTable
 70
     0
  0
ENDTAB
  0
TABLE
  2
UCS
  5
7
330
0
100
AcDbSymbolTable
 70
     0
  0
ENDTAB
  0
TABLE
  2
APPID
  5
9
330
0
100
AcDbSymbolTable
 70
     2
  0
APPID
  5
12
330
9
100
AcDbSymbolTableRecord
100
AcDbRegAppTableRecord
  2
ACAD
 70
     0
  0
ENDTAB
  0
TABLE
  2
DIMSTYLE
  5
A
330
0
100
AcDbSymbolTable
 70
     1
  0
DIMSTYLE
105
27
330
A
100
AcDbSymbolTableRecord
100
AcDbDimStyleTableRecord
  2
ISO-25
 70
     0
  3

  4

  5

  6

  7

 40
1.0
 41
2.5
 42
0.625
 43
3.75
 44
1.25
 45
0.0
 46
0.0
 47
0.0
 48
0.0
140
2.5
141
2.5
142
0.0
143
0.03937007874016
144
1.0
145
0.0
146
1.0
147
0.625
 71
     0
 72
     0
 73
     0
 74
     0
 75
     0
 76
     0
 77
     1
 78
     8
170
     0
171
     3
172
     1
173
     0
174
     0
175
     0
176
     0
177
     0
178
     0
270
     2
271
     2
272
     2
273
     2
274
     3
340
11
275
     0
280
     0
281
     0
282
     0
283
     0
284
     8
285
     0
286
     0
287
     3
288
     0
  0
ENDTAB
  0
TABLE
  2
BLOCK_RECORD
  5
1
330
0
100
AcDbSymbolTable
 70
     1
  0
BLOCK_RECORD
  5
1F
330
1
100
AcDbSymbolTableRecord
100
AcDbBlockTableRecord
  2
*MODEL_SPACE
  0
BLOCK_RECORD
  5
1B
330
1
100
AcDbSymbolTableRecord
100
AcDbBlockTableRecord
  2
*PAPER_SPACE
  0
ENDTAB
  0
ENDSEC
  0
SECTION
  2
BLOCKS
  0
BLOCK
  5
20
330
1F
100
AcDbEntity
  8
0
100
AcDbBlockBegin
  2
*MODEL_SPACE
 70
     0
 10
0.0
 20
0.0
 30
0.0
  3
*MODEL_SPACE
  1

  0
ENDBLK
  5
21
330
1F
100
AcDbEntity
  8
0
100
AcDbBlockEnd
  0
BLOCK
  5
1C
330
1B
100
AcDbEntity
 67
     1
  8
0
100
AcDbBlockBegin
  2
*PAPER_SPACE
  1

  0
ENDBLK
  5
1D
330
1B
100
AcDbEntity
 67
     1
  8
0
100
AcDbBlockEnd
  0
ENDSEC
  0
SECTION
  2
ENTITIES
0
DIMENSION
5
83
100
AcDbEntity
62
256
370
-1
6
ByLayer
1
total_width
3
Standard
70
0
71
5
72
1
41
1.0
100
AcDbAlignedDimension
13
-22.013333
23
0.000000
33
0.0
14
21.307685
24
0.000000
34
0.0
50
0.000000
100
AcDbRotatedDimension
0
DIMENSION
5
83
100
AcDbEntity
62
256
370
-1
6
ByLayer
1
total_minx
3
Standard
70
0
71
5
72
1
41
1.0
100
AcDbAlignedDimension
13
-22.013333
23
0.000000
33
0.0
14
0.000000
24
0.000000
34
0.0
50
0.000000
100
AcDbRotatedDimension
0
DIMENSION
5
83
100
AcDbEntity
62
256
370
-1
6
ByLayer
1
total_maxx
3
Standard
70
0
71
5
72
1
41
1.0
100
AcDbAlignedDimension
13
0.000000
23
0.000000
33
0.0
14
21.307685
24
0.000000
34
0.0
50
0.000000
100
AcDbRotatedDimension
0
DIMENSION
5
83
100
AcDbEntity
62
256
370
-1
6
ByLayer
1
total_height
3
Standard
70
0
71
5
72
1
41
1.0
100
AcDbAlignedDimension
13
0.000000
23
-5.370971
33
0.0
14
0.000000
24
5.266377
34
0.0
50
90.000000
100
AcDbRotatedDimension
0
DIMENSION
5
83
100
AcDbEntity
62
256
370
-1
6
ByLayer
1
total_miny
3
Standard
70
0
71
5
72
1
41
1.0
100
AcDbAlignedDimension
13
-5.370971
23
0.000000
33
0.0
14
0.000000
24
0.000000
34
0.0
50
0.000000
100
AcDbRotatedDimension
0
DIMENSION
5
83
100
AcDbEntity
62
256
370
-1
6
ByLayer
1
total_maxy
3
Standard
70
0
71
5
72
1
41
1.0
100
AcDbAlignedDimension
13
0.000000
23
0.000000
33
0.0
14
5.266377
24
0.000000
34
0.0
50
0.000000
100
AcDbRotatedDimension
0
DIMENSION
8
Layer_1
5
83
100
AcDbEntity
62
256
370
-1
6
ByLayer
1
Layer_1_width
3
Standard
70
0
71
5
72
1
41
1.0
100
AcDbAlignedDimension
13
-22.013333
23
0.000000
33
0.0
14
21.307685
24
0.000000
34
0.0
50
0.000000
100
AcDbRotatedDimension
0
DIMENSION
8
Layer_1
5
83
100
AcDbEntity
62
256
370
-1
6
ByLayer
1
Layer_1_minx
3
Standard
70
0
71
5
72
1
41
1.0
100
AcDbAlignedDimension
13
-22.013333
23
0.000000
33
0.0
14
0.000000
24
0.000000
34
0.0
50
0.000000
100
AcDbRotatedDimension
0
DIMENSION
8
Layer_1
5
83
100
AcDbEntity
62
256
370
-1
6
ByLayer
1
Layer_1_maxx
3
Standard
70
0
71
5
72
1
41
1.0
100
AcDbAlignedDimension
13
0.000000
23
0.000000
33
0.0
14
21.307685
24
0.000000
34
0.0
50
0.000000
100
AcDbRotatedDimension
0
DIMENSION
8
Layer_1
5
83
100
AcDbEntity
62
256
370
-1
6
ByLayer
1
Layer_1_height
3
Standard
70
0
71
5
72
1
41
1.0
100
AcDbAlignedDimension
13
0.000000
23
-5.370971
33
0.0
14
0.000000
24
5.266377
34
0.0
50
90.000000
100
AcDbRotatedDimension
0
DIMENSION
8
Layer_1
5
83
100
AcDbEntity
62
256
370
-1
6
ByLayer
1
Layer_1_miny
3
Standard
70
0
71
5
72
1
41
1.0
100
AcDbAlignedDimension
13
-5.370971
23
0.000000
33
0.0
14
0.000000
24
0.000000
34
0.0
50
0.000000
100
AcDbRotatedDimension
0
DIMENSION
8
Layer_1
5
83
100
AcDbEntity
62
256
370
-1
6
ByLayer
1
Layer_1_maxy
3
Standard
70
0
71
5
72
1
41
1.0
100
AcDbAlignedDimension
13
0.000000
23
0.000000
33
0.0
14
5.266377
24
0.000000
34
0.0
50
0.000000
100
AcDbRotatedDimension
62
0
0
LWPOLYLINE
100
AcDbPolyline
8
Layer_1
90
4
70
0
10
2.900773
20
5.266377
30
0.0
10
2.943943
20
5.264683
30
0.0
10
2.900773
20
5.266377
30
0.0
10
2.900773
20
5.266377
30
0.0
62
0
0
LWPOLYLINE
100
AcDbPolyline
8
Layer_1
90
4
70
0
10
-9.521351
20
4.886314
30
0.0
10
-9.609585
20
4.876831
30
0.0
10
-9.521351
20
4.886314
30
0.0
10
-9.521351
20
4.886314
30
0.0
62
0
0
LWPOLYLINE
100
AcDbPolyline
8
Layer_1
90
4
70
0
10
-10.488140
20
4.777520
30
0.0
10
-10.584542
20
4.766146
30
0.0
10
-10.488140
20
4.777520
30
0.0
10
-10.488140
20
4.777520
30
0.0
62
0
0
LWPOLYLINE
100
AcDbPolyline
8
Layer_1
90
93
70
0
10
-0.791372
20
4.637509
30
0.0
10
-1.418640
20
4.634603
30
0.0
10
-1.418640
20
3.030192
30
0.0
10
0.306092
20
3.030192
30
0.0
10
2.030824
20
3.030192
30
0.0
10
2.030824
20
0.795884
30
0.0
10
2.030824
20
-1.438422
30
0.0
10
-0.203481
20
-1.438422
30
0.0
10
-2.437786
20
-1.438422
30
0.0
10
-2.437786
20
-0.889618
30
0.0
10
-2.437786
20
-0.340814
30
0.0
10
-1.614652
20
-0.340814
30
0.0
10
-0.791372
20
-0.340814
30
0.0
10
-0.791372
20
-0.066480
30
0.0
10
-0.791372
20
0.207989
30
0.0
10
-3.613714
20
0.207989
30
0.0
10
-6.435909
20
0.207989
30
0.0
10
-6.435909
20
-1.477504
30
0.0
10
-6.435909
20
-3.163008
30
0.0
10
-8.670069
20
-3.163008
30
0.0
10
-10.904374
20
-3.163008
30
0.0
10
-10.904374
20
-2.614346
30
0.0
10
-10.904374
20
-2.065542
30
0.0
10
-9.218874
20
-2.065542
30
0.0
10
-7.533373
20
-2.065542
30
0.0
10
-7.533373
20
-0.380046
30
0.0
10
-7.533373
20
1.305456
30
0.0
10
-4.162373
20
1.305456
30
0.0
10
-0.791372
20
1.305456
30
0.0
10
-0.791372
20
1.619016
30
0.0
10
-0.791372
20
1.932584
30
0.0
10
-2.476872
20
1.932584
30
0.0
10
-4.162373
20
1.932584
30
0.0
10
-4.162373
20
4.166884
30
0.0
10
-4.162373
20
4.566203
30
0.0
10
-4.789641
20
4.538348
30
0.0
10
-4.789641
20
1.932590
30
0.0
10
-7.337361
20
1.932590
30
0.0
10
-9.885227
20
1.932590
30
0.0
10
-9.885227
20
1.619021
30
0.0
10
-9.885227
20
1.305461
30
0.0
10
-9.022861
20
1.305461
30
0.0
10
-8.160641
20
1.305461
30
0.0
10
-8.160641
20
0.756658
30
0.0
10
-8.160641
20
0.207995
30
0.0
10
-9.022861
20
0.207995
30
0.0
10
-9.885227
20
0.207995
30
0.0
10
-9.885227
20
-0.066475
30
0.0
10
-9.885227
20
-0.340809
30
0.0
10
-9.022861
20
-0.340809
30
0.0
10
-8.160641
20
-0.340809
30
0.0
10
-8.160641
20
-0.889612
30
0.0
10
-8.160641
20
-1.438416
30
0.0
10
-9.532435
20
-1.438416
30
0.0
10
-10.904374
20
-1.438416
30
0.0
10
-10.904374
20
0.795889
30
0.0
10
-10.904374
20
3.030197
30
0.0
10
-8.395739
20
3.030197
30
0.0
10
-5.887104
20
3.030197
30
0.0
10
-5.887104
20
4.478409
30
0.0
10
-6.435909
20
4.442389
30
0.0
10
-6.435909
20
3.657318
30
0.0
10
-8.670069
20
3.657318
30
0.0
10
-10.904374
20
3.657318
30
0.0
10
-10.904374
20
4.008944
30
0.0
10
-11.531496
20
3.926253
30
0.0
10
-11.531496
20
-2.300639
30
0.0
10
-11.531496
20
-3.977239
30
0.0
10
-10.904374
20
-4.060080
30
0.0
10
-10.904374
20
-3.790270
30
0.0
10
-8.395739
20
-3.790270
30
0.0
10
-5.887104
20
-3.790270
30
0.0
10
-5.887104
20
-2.065536
30
0.0
10
-5.887104
20
-0.340809
30
0.0
10
-5.338300
20
-0.340809
30
0.0
10
-4.789641
20
-0.340809
30
0.0
10
-4.789641
20
-3.437478
30
0.0
10
-4.789641
20
-4.591674
30
0.0
10
-4.162373
20
-4.619670
30
0.0
10
-4.162373
20
-3.751032
30
0.0
10
-4.162373
20
-0.340803
30
0.0
10
-3.613714
20
-0.340803
30
0.0
10
-3.064909
20
-0.340803
30
0.0
10
-3.064909
20
-1.203167
30
0.0
10
-3.064909
20
-2.065531
30
0.0
10
-0.242713
20
-2.065531
30
0.0
10
2.579483
20
-2.065531
30
0.0
10
2.579483
20
0.795895
30
0.0
10
2.579483
20
3.657323
30
0.0
10
0.894128
20
3.657323
30
0.0
10
-0.791372
20
3.657323
30
0.0
10
-0.791372
20
4.166895
30
0.0
10
-0.791372
20
4.637509
30
0.0
62
0
0
LWPOLYLINE
100
AcDbPolyline
8
Layer_1
90
43
70
0
10
-1.653738
20
4.631809
30
0.0
10
-2.202543
20
4.624217
30
0.0
10
-2.202543
20
4.166856
30
0.0
10
-2.202543
20
2.794920
30
0.0
10
-2.751348
20
2.794920
30
0.0
10
-3.300007
20
2.794920
30
0.0
10
-3.300007
20
4.166856
30
0.0
10
-3.300007
20
4.597090
30
0.0
10
-3.927275
20
4.575810
30
0.0
10
-3.927275
20
4.166867
30
0.0
10
-3.927275
20
2.167803
30
0.0
10
-2.241774
20
2.167803
30
0.0
10
-0.556274
20
2.167803
30
0.0
10
-0.556274
20
1.619004
30
0.0
10
-0.556274
20
1.070350
30
0.0
10
-3.927275
20
1.070350
30
0.0
10
-7.298275
20
1.070350
30
0.0
10
-7.298275
20
-0.615151
30
0.0
10
-7.298275
20
-2.300656
30
0.0
10
-8.983776
20
-2.300656
30
0.0
10
-10.669276
20
-2.300656
30
0.0
10
-10.669276
20
-2.614357
30
0.0
10
-10.669276
20
-2.927917
30
0.0
10
-8.670069
20
-2.927917
30
0.0
10
-6.671007
20
-2.927917
30
0.0
10
-6.671007
20
-1.242421
30
0.0
10
-6.671007
20
0.443080
30
0.0
10
-3.613714
20
0.443080
30
0.0
10
-0.556274
20
0.443080
30
0.0
10
-0.556274
20
-0.066492
30
0.0
10
-0.556274
20
-0.576069
30
0.0
10
-1.379409
20
-0.576069
30
0.0
10
-2.202543
20
-0.576069
30
0.0
10
-2.202543
20
-0.889629
30
0.0
10
-2.202543
20
-1.203190
30
0.0
10
-0.203481
20
-1.203190
30
0.0
10
1.795580
20
-1.203190
30
0.0
10
1.795580
20
0.795872
30
0.0
10
1.795580
20
2.794937
30
0.0
10
0.070848
20
2.794937
30
0.0
10
-1.653738
20
2.794937
30
0.0
10
-1.653738
20
4.480433
30
0.0
10
-1.653738
20
4.631809
30
0.0
62
0
0
LWPOLYLINE
100
AcDbPolyline
8
Layer_1
90
8
70
0
10
-2.437786
20
4.619250
30
0.0
10
-3.064909
20
4.604659
30
0.0
10
-3.064909
20
4.166839
30
0.0
10
-3.064909
20
3.030147
30
0.0
10
-2.751348
20
3.030147
30
0.0
10
-2.437786
20
3.030147
30
0.0
10
-2.437786
20
4.166839
30
0.0
10
-2.437786
20
4.619250
30
0.0
62
0
0
LWPOLYLINE
100
AcDbPolyline
8
Layer_1
90
26
70
0
10
-5.024739
20
4.526644
30
0.0
10
-5.651861
20
4.492077
30
0.0
10
-5.651861
20
2.794912
30
0.0
10
-8.160641
20
2.794912
30
0.0
10
-10.669276
20
2.794912
30
0.0
10
-10.669276
20
0.795847
30
0.0
10
-10.669276
20
-1.203215
30
0.0
10
-9.532435
20
-1.203215
30
0.0
10
-8.395739
20
-1.203215
30
0.0
10
-8.395739
20
-0.889655
30
0.0
10
-8.395739
20
-0.576095
30
0.0
10
-9.258105
20
-0.576095
30
0.0
10
-10.120471
20
-0.576095
30
0.0
10
-10.120471
20
-0.066517
30
0.0
10
-10.120471
20
0.443055
30
0.0
10
-9.258105
20
0.443055
30
0.0
10
-8.395739
20
0.443055
30
0.0
10
-8.395739
20
0.756641
30
0.0
10
-8.395739
20
1.070350
30
0.0
10
-9.258105
20
1.070350
30
0.0
10
-10.120471
20
1.070350
30
0.0
10
-10.120471
20
1.619004
30
0.0
10
-10.120471
20
2.167808
30
0.0
10
-7.572605
20
2.167808
30
0.0
10
-5.024739
20
2.167808
30
0.0
10
-5.024739
20
4.526644
30
0.0
62
0
0
LWPOLYLINE
100
AcDbPolyline
8
Layer_1
90
37
70
0
10
-0.556274
20
4.441182
30
0.0
10
-0.556274
20
4.166847
30
0.0
10
-0.556274
20
3.892519
30
0.0
10
1.129226
20
3.892519
30
0.0
10
2.814727
20
3.892519
30
0.0
10
2.814727
20
0.795847
30
0.0
10
2.814727
20
-2.300681
30
0.0
10
-0.242713
20
-2.300681
30
0.0
10
-3.300007
20
-2.300681
30
0.0
10
-3.300007
20
-1.438458
30
0.0
10
-3.300007
20
-0.576095
30
0.0
10
-3.613714
20
-0.576095
30
0.0
10
-3.927275
20
-0.576095
30
0.0
10
-3.927275
20
-3.986177
30
0.0
10
-3.927275
20
-4.629342
30
0.0
10
-3.300007
20
-4.650932
30
0.0
10
-3.300007
20
-2.927945
30
0.0
10
-0.242713
20
-2.927945
30
0.0
10
2.814727
20
-2.927945
30
0.0
10
2.814727
20
-4.618265
30
0.0
10
3.441848
20
-4.589681
30
0.0
10
3.441848
20
-1.752021
30
0.0
10
3.441848
20
3.892516
30
0.0
10
4.853019
20
3.892516
30
0.0
10
6.264190
20
3.892516
30
0.0
10
6.264190
20
3.343712
30
0.0
10
6.264190
20
2.794909
30
0.0
10
5.401824
20
2.794909
30
0.0
10
4.539458
20
2.794909
30
0.0
10
4.539458
20
2.481349
30
0.0
10
4.539458
20
2.167780
30
0.0
10
5.676154
20
2.167780
30
0.0
10
6.812850
20
2.167780
30
0.0
10
6.812850
20
4.298391
30
0.0
10
5.015050
20
4.441179
30
0.0
10
2.853958
20
4.441179
30
0.0
10
-0.556274
20
4.441182
30
0.0
62
0
0
LWPOLYLINE
100
AcDbPolyline
8
Layer_1
90
6
70
0
10
-6.671007
20
4.426308
30
0.0
10
-10.669276
20
4.038227
30
0.0
10
-10.669276
20
3.892527
30
0.0
10
-8.670069
20
3.892527
30
0.0
10
-6.671007
20
3.892527
30
0.0
10
-6.671007
20
4.426308
30
0.0
62
0
0
LWPOLYLINE
100
AcDbPolyline
8
Layer_1
90
31
70
0
10
7.048093
20
4.275949
30
0.0
10
7.048093
20
1.932556
30
0.0
10
5.676154
20
1.932556
30
0.0
10
4.304215
20
1.932556
30
0.0
10
4.304215
20
2.481360
30
0.0
10
4.304215
20
3.030164
30
0.0
10
5.166581
20
3.030164
30
0.0
10
6.028947
20
3.030164
30
0.0
10
6.028947
20
3.343724
30
0.0
10
6.028947
20
3.657284
30
0.0
10
4.853019
20
3.657284
30
0.0
10
3.677093
20
3.657284
30
0.0
10
3.677093
20
-1.752010
30
0.0
10
3.677093
20
-4.577997
30
0.0
10
4.304215
20
-4.542849
30
0.0
10
4.304215
20
-3.790304
30
0.0
10
5.676154
20
-3.790304
30
0.0
10
7.048093
20
-3.790304
30
0.0
10
7.048093
20
-4.332978
30
0.0
10
7.675215
20
-4.271727
30
0.0
10
7.675215
20
-3.163037
30
0.0
10
5.989715
20
-3.163037
30
0.0
10
4.304215
20
-3.163037
30
0.0
10
4.304215
20
-2.614374
30
0.0
10
4.304215
20
-2.065570
30
0.0
10
5.989715
20
-2.065570
30
0.0
10
7.675215
20
-2.065570
30
0.0
10
7.675215
20
2.167791
30
0.0
10
7.675215
20
4.214549
30
0.0
10
7.048093
20
4.275949
30
0.0
10
7.048093
20
4.275949
30
0.0
62
0
0
LWPOLYLINE
100
AcDbPolyline
8
Layer_1
90
4
70
0
10
-14.077175
20
4.256109
30
0.0
10
-14.142075
20
4.245017
30
0.0
10
-14.077175
20
4.256109
30
0.0
10
-14.077175
20
4.256109
30
0.0
62
0
0
LWPOLYLINE
100
AcDbPolyline
8
Layer_1
90
49
70
0
10
7.910459
20
4.189755
30
0.0
10
7.910459
20
1.932556
30
0.0
10
7.910459
20
-2.300673
30
0.0
10
6.224959
20
-2.300673
30
0.0
10
4.539458
20
-2.300673
30
0.0
10
4.539458
20
-2.614374
30
0.0
10
4.539458
20
-2.927934
30
0.0
10
6.224959
20
-2.927934
30
0.0
10
7.910459
20
-2.927934
30
0.0
10
7.910459
20
-4.246934
30
0.0
10
8.537581
20
-4.178244
30
0.0
10
8.537581
20
-3.437512
30
0.0
10
8.537581
20
-1.203206
30
0.0
10
9.086386
20
-1.203206
30
0.0
10
9.635045
20
-1.203206
30
0.0
10
9.635045
20
-2.888708
30
0.0
10
9.635045
20
-4.045672
30
0.0
10
10.262313
20
-3.961376
30
0.0
10
10.262313
20
-2.614374
30
0.0
10
10.262313
20
-1.203206
30
0.0
10
10.771887
20
-1.203206
30
0.0
10
11.281460
20
-1.203206
30
0.0
10
11.281460
20
-2.614374
30
0.0
10
11.281460
20
-3.812616
30
0.0
10
11.908582
20
-3.713155
30
0.0
10
11.908582
20
-2.300673
30
0.0
10
11.908582
20
-0.576086
30
0.0
10
10.223082
20
-0.576086
30
0.0
10
8.537581
20
-0.576086
30
0.0
10
8.537581
20
-0.066508
30
0.0
10
8.537581
20
0.443063
30
0.0
10
11.634253
20
0.443063
30
0.0
10
14.730777
20
0.443063
30
0.0
10
14.730777
20
-0.380074
30
0.0
10
14.730777
20
-1.203206
30
0.0
10
15.005107
20
-1.203206
30
0.0
10
15.279582
20
-1.203206
30
0.0
10
15.279582
20
0.795855
30
0.0
10
15.279582
20
2.794920
30
0.0
10
15.005107
20
2.794920
30
0.0
10
14.730777
20
2.794920
30
0.0
10
14.730777
20
1.932573
30
0.0
10
14.730777
20
1.070350
30
0.0
10
11.634253
20
1.070350
30
0.0
10
8.537581
20
1.070350
30
0.0
10
8.537581
20
3.618069
30
0.0
10
8.537581
20
4.120936
30
0.0
10
7.910459
20
4.189772
30
0.0
10
7.910459
20
4.189755
30
0.0
62
0
0
LWPOLYLINE
100
AcDbPolyline
8
Layer_1
90
4
70
0
10
-14.708089
20
4.143378
30
0.0
10
-14.777510
20
4.130678
30
0.0
10
-14.708089
20
4.143378
30
0.0
10
-14.708089
20
4.143378
30
0.0
62
0
0
LWPOLYLINE
100
AcDbPolyline
8
Layer_1
90
23
70
0
10
8.772825
20
4.093647
30
0.0
10
8.772825
20
3.853296
30
0.0
10
8.772825
20
1.305427
30
0.0
10
11.634253
20
1.305427
30
0.0
10
14.495534
20
1.305427
30
0.0
10
14.495534
20
2.167791
30
0.0
10
14.495534
20
3.030164
30
0.0
10
15.005107
20
3.030164
30
0.0
10
15.158825
20
3.030164
30
0.0
10
11.893122
20
3.657284
30
0.0
10
11.046216
20
3.657284
30
0.0
10
11.046216
20
3.790586
30
0.0
10
10.497411
20
3.870506
30
0.0
10
10.497411
20
3.030164
30
0.0
10
12.182911
20
3.030164
30
0.0
10
13.868412
20
3.030164
30
0.0
10
13.868412
20
2.481360
30
0.0
10
13.868412
20
1.932556
30
0.0
10
11.634253
20
1.932556
30
0.0
10
9.399947
20
1.932556
30
0.0
10
9.399947
20
4.017222
30
0.0
10
8.772825
20
4.093647
30
0.0
10
8.772825
20
4.093647
30
0.0
62
0
0
LWPOLYLINE
100
AcDbPolyline
8
Layer_1
90
11
70
0
10
9.635045
20
3.987763
30
0.0
10
9.635045
20
2.167791
30
0.0
10
11.634253
20
2.167791
30
0.0
10
13.633314
20
2.167791
30
0.0
10
13.633314
20
2.481360
30
0.0
10
13.633314
20
2.794920
30
0.0
10
11.947813
20
2.794920
30
0.0
10
10.262313
20
2.794920
30
0.0
10
10.262313
20
3.903466
30
0.0
10
9.635045
20
3.987763
30
0.0
10
9.635045
20
3.987763
30
0.0
62
0
0
LWPOLYLINE
100
AcDbPolyline
8
Layer_1
90
56
70
0
10
-11.766740
20
3.894565
30
0.0
10
-12.393862
20
3.803856
30
0.0
10
-12.393862
20
3.618069
30
0.0
10
-12.393862
20
1.070350
30
0.0
10
-12.942667
20
1.070350
30
0.0
10
-13.491472
20
1.070350
30
0.0
10
-13.491472
20
3.630464
30
0.0
10
-14.118594
20
3.522980
30
0.0
10
-14.118594
20
2.481377
30
0.0
10
-14.118594
20
1.070350
30
0.0
10
-14.941729
20
1.070350
30
0.0
10
-15.764862
20
1.070350
30
0.0
10
-15.764862
20
0.756641
30
0.0
10
-15.764862
20
0.443080
30
0.0
10
-14.079363
20
0.443080
30
0.0
10
-12.393862
20
0.443080
30
0.0
10
-12.393862
20
-0.066492
30
0.0
10
-12.393862
20
-0.576069
30
0.0
10
-14.628167
20
-0.576069
30
0.0
10
-16.862472
20
-0.576069
30
0.0
10
-16.862472
20
0.795872
30
0.0
10
-16.862472
20
2.167808
30
0.0
10
-16.000106
20
2.167808
30
0.0
10
-15.137741
20
2.167808
30
0.0
10
-15.137741
20
2.481377
30
0.0
10
-15.137741
20
2.794937
30
0.0
10
-16.313667
20
2.794937
30
0.0
10
-17.489595
20
2.794937
30
0.0
10
-17.489595
20
0.795872
30
0.0
10
-17.489595
20
-1.203190
30
0.0
10
-14.941729
20
-1.203190
30
0.0
10
-12.393862
20
-1.203190
30
0.0
10
-12.393862
20
-1.751993
30
0.0
10
-12.393862
20
-2.300656
30
0.0
10
-15.490533
20
-2.300656
30
0.0
10
-18.587058
20
-2.300656
30
0.0
10
-18.587058
20
0.247069
30
0.0
10
-18.587058
20
2.543062
30
0.0
10
-19.135863
20
2.392116
30
0.0
10
-19.135863
20
0.247069
30
0.0
10
-19.135863
20
-2.300656
30
0.0
10
-19.614372
20
-2.300656
30
0.0
10
-16.862472
20
-3.018485
30
0.0
10
-16.862472
20
-2.927917
30
0.0
10
-16.313667
20
-2.927917
30
0.0
10
-15.764862
20
-2.927917
30
0.0
10
-15.764862
20
-3.258106
30
0.0
10
-15.137741
20
-3.384113
30
0.0
10
-15.137741
20
-2.927917
30
0.0
10
-13.765801
20
-2.927917
30
0.0
10
-12.393862
20
-2.927917
30
0.0
10
-12.393862
20
-3.476580
30
0.0
10
-12.393862
20
-3.854453
30
0.0
10
-11.766740
20
-3.945314
30
0.0
10
-11.766740
20
-2.065412
30
0.0
10
-11.766740
20
3.894565
30
0.0
62
0
0
LWPOLYLINE
100
AcDbPolyline
8
Layer_1
90
6
70
0
10
-12.629106
20
3.768124
30
0.0
10
-13.256228
20
3.669538
30
0.0
10
-13.256228
20
1.305427
30
0.0
10
-12.942667
20
1.305427
30
0.0
10
-12.629106
20
1.305427
30
0.0
10
-12.629106
20
3.768124
30
0.0
62
0
0
LWPOLYLINE
100
AcDbPolyline
8
Layer_1
90
4
70
0
10
-17.773841
20
3.491611
30
0.0
10
-17.916912
20
3.456313
30
0.0
10
-17.773841
20
3.491611
30
0.0
10
-17.773841
20
3.491611
30
0.0
62
0
0
LWPOLYLINE
100
AcDbPolyline
8
Layer_1
90
22
70
0
10
-14.353838
20
3.481253
30
0.0
10
-16.595289
20
3.030164
30
0.0
10
-16.313667
20
3.030164
30
0.0
10
-14.902496
20
3.030164
30
0.0
10
-14.902496
20
2.481360
30
0.0
10
-14.902496
20
1.932556
30
0.0
10
-15.764862
20
1.932556
30
0.0
10
-16.627229
20
1.932556
30
0.0
10
-16.627229
20
0.795855
30
0.0
10
-16.627229
20
-0.340843
30
0.0
10
-14.628167
20
-0.340843
30
0.0
10
-12.629106
20
-0.340843
30
0.0
10
-12.629106
20
-0.066508
30
0.0
10
-12.629106
20
0.207961
30
0.0
10
-14.314606
20
0.207961
30
0.0
10
-16.000106
20
0.207961
30
0.0
10
-16.000106
20
0.756624
30
0.0
10
-16.000106
20
1.305427
30
0.0
10
-15.176972
20
1.305427
30
0.0
10
-14.353838
20
1.305427
30
0.0
10
-14.353838
20
2.481360
30
0.0
10
-14.353838
20
3.481253
30
0.0
62
0
0
LWPOLYLINE
100
AcDbPolyline
8
Layer_1
90
4
70
0
10
-18.460759
20
3.318493
30
0.0
10
-18.659105
20
3.266714
30
0.0
10
-18.460759
20
3.318493
30
0.0
10
-18.460759
20
3.318493
30
0.0
62
0
0
LWPOLYLINE
100
AcDbPolyline
8
Layer_1
90
4
70
0
10
-19.134259
20
3.137936
30
0.0
10
-19.352731
20
3.077557
30
0.0
10
-19.134259
20
3.137936
30
0.0
10
-19.134259
20
3.137936
30
0.0
62
0
0
LWPOLYLINE
100
AcDbPolyline
8
Layer_1
90
40
70
0
10
15.514680
20
2.949804
30
0.0
10
15.514680
20
0.795855
30
0.0
10
15.514680
20
-1.438450
30
0.0
10
15.005107
20
-1.438450
30
0.0
10
14.495534
20
-1.438450
30
0.0
10
14.495534
20
-0.615168
30
0.0
10
14.495534
20
0.207961
30
0.0
10
11.634253
20
0.207961
30
0.0
10
8.772825
20
0.207961
30
0.0
10
8.772825
20
-0.066508
30
0.0
10
8.772825
20
-0.340843
30
0.0
10
10.458326
20
-0.340843
30
0.0
10
12.143680
20
-0.340843
30
0.0
10
12.143680
20
-2.065570
30
0.0
10
12.143680
20
-3.674065
30
0.0
10
14.824846
20
-3.163037
30
0.0
10
14.456448
20
-3.163037
30
0.0
10
12.770948
20
-3.163037
30
0.0
10
12.770948
20
-1.752010
30
0.0
10
12.770948
20
-0.340843
30
0.0
10
13.319607
20
-0.340843
30
0.0
10
13.868412
20
-0.340843
30
0.0
10
13.868412
20
-1.203206
30
0.0
10
13.868412
20
-2.065570
30
0.0
10
15.553912
20
-2.065570
30
0.0
10
17.239413
20
-2.065570
30
0.0
10
17.239413
20
-2.580101
30
0.0
10
17.866535
20
-2.406117
30
0.0
10
17.866535
20
-2.065570
30
0.0
10
18.415340
20
-2.065570
30
0.0
10
18.964144
20
-2.065570
30
0.0
10
18.964144
20
-2.074771
30
0.0
10
20.602100
20
-1.506418
30
0.0
10
20.602100
20
-1.438458
30
0.0
10
19.238474
20
-1.438458
30
0.0
10
16.141948
20
-1.438458
30
0.0
10
16.141948
20
0.795847
30
0.0
10
16.141948
20
2.801183
30
0.0
10
15.514680
20
2.949795
30
0.0
10
15.514680
20
2.949804
30
0.0
62
0
0
LWPOLYLINE
100
AcDbPolyline
8
Layer_1
90
12
70
0
10
-17.724838
20
2.765312
30
0.0
10
-18.351961
20
2.605614
30
0.0
10
-18.351961
20
0.482298
30
0.0
10
-18.351961
20
-2.065570
30
0.0
10
-15.490533
20
-2.065570
30
0.0
10
-12.629106
20
-2.065570
30
0.0
10
-12.629106
20
-1.752010
30
0.0
10
-12.629106
20
-1.438450
30
0.0
10
-15.176972
20
-1.438450
30
0.0
10
-17.724838
20
-1.438450
30
0.0
10
-17.724838
20
0.795855
30
0.0
10
-17.724838
20
2.765312
30
0.0
62
0
0
LWPOLYLINE
100
AcDbPolyline
8
Layer_1
90
14
70
0
10
16.377047
20
2.742847
30
0.0
10
16.377047
20
0.795853
30
0.0
10
16.377047
20
-1.203209
30
0.0
10
19.238474
20
-1.203209
30
0.0
10
20.602100
20
-1.203209
30
0.0
10
20.602100
20
-0.576089
30
0.0
10
19.238474
20
-0.576089
30
0.0
10
17.004314
20
-0.576089
30
0.0
10
17.004314
20
0.795853
30
0.0
10
17.004314
20
2.167788
30
0.0
10
17.866535
20
2.167788
30
0.0
10
18.466676
20
2.167788
30
0.0
10
16.377047
20
2.742847
30
0.0
10
16.377047
20
2.742847
30
0.0
62
0
0
LWPOLYLINE
100
AcDbPolyline
8
Layer_1
90
11
70
0
10
-19.371107
20
2.325884
30
0.0
10
-19.998229
20
2.138914
30
0.0
10
-19.998229
20
0.795853
30
0.0
10
-19.998229
20
-1.438453
30
0.0
10
-21.566181
20
-1.438453
30
0.0
10
-22.013333
20
-1.438453
30
0.0
10
-22.013333
20
-1.497079
30
0.0
10
-20.379753
20
-2.065573
30
0.0
10
-19.371107
20
-2.065573
30
0.0
10
-19.371107
20
0.482295
30
0.0
10
-19.371107
20
2.325884
30
0.0
62
0
0
LWPOLYLINE
100
AcDbPolyline
8
Layer_1
90
9
70
0
10
0.070848
20
2.167788
30
0.0
10
0.619653
20
2.167788
30
0.0
10
1.168458
20
2.167788
30
0.0
10
1.168458
20
0.795853
30
0.0
10
1.168458
20
-0.576089
30
0.0
10
0.619653
20
-0.576089
30
0.0
10
0.070848
20
-0.576089
30
0.0
10
0.070848
20
0.795853
30
0.0
10
0.070848
20
2.167788
30
0.0
62
0
0
LWPOLYLINE
100
AcDbPolyline
8
Layer_1
90
4
70
0
10
20.916391
20
2.091521
30
0.0
10
21.115757
20
2.014220
30
0.0
10
20.916391
20
2.091521
30
0.0
10
20.916391
20
2.091521
30
0.0
62
0
0
LWPOLYLINE
100
AcDbPolyline
8
Layer_1
90
11
70
0
10
-20.233473
20
2.065274
30
0.0
10
-20.860595
20
1.862116
30
0.0
10
-20.860595
20
1.109421
30
0.0
10
-20.860595
20
-0.576080
30
0.0
10
-21.997291
20
-0.576080
30
0.0
10
-22.013332
20
-0.576080
30
0.0
10
-22.013332
20
-1.203201
30
0.0
10
-21.683729
20
-1.203201
30
0.0
10
-20.233472
20
-1.203201
30
0.0
10
-20.233472
20
0.795861
30
0.0
10
-20.233473
20
2.065274
30
0.0
62
0
0
LWPOLYLINE
100
AcDbPolyline
8
Layer_1
90
18
70
0
10
18.964144
20
2.012623
30
0.0
10
18.964144
20
1.932562
30
0.0
10
18.101778
20
1.932562
30
0.0
10
17.239413
20
1.932562
30
0.0
10
17.239413
20
0.795861
30
0.0
10
17.239413
20
-0.340837
30
0.0
10
19.238474
20
-0.340837
30
0.0
10
20.602100
20
-0.340837
30
0.0
10
20.602100
20
0.207967
30
0.0
10
19.238474
20
0.207967
30
0.0
10
17.866535
20
0.207967
30
0.0
10
17.866535
20
0.756629
30
0.0
10
17.866535
20
1.305433
30
0.0
10
18.689669
20
1.305433
30
0.0
10
19.512949
20
1.305433
30
0.0
10
19.512949
20
1.832218
30
0.0
10
18.964144
20
2.012623
30
0.0
10
18.964144
20
2.012623
30
0.0
62
0
0
LWPOLYLINE
100
AcDbPolyline
8
Layer_1
90
9
70
0
10
0.306092
20
1.932562
30
0.0
10
0.306092
20
0.795861
30
0.0
10
0.306092
20
-0.340837
30
0.0
10
0.619653
20
-0.340837
30
0.0
10
0.933214
20
-0.340837
30
0.0
10
0.933214
20
0.795861
30
0.0
10
0.933214
20
1.932562
30
0.0
10
0.619653
20
1.932562
30
0.0
10
0.306092
20
1.932562
30
0.0
62
0
0
LWPOLYLINE
100
AcDbPolyline
8
Layer_1
90
8
70
0
10
-21.095693
20
1.782628
30
0.0
10
-21.722961
20
1.559639
30
0.0
10
-21.722961
20
0.207967
30
0.0
10
-22.013333
20
0.207967
30
0.0
10
-22.013333
20
-0.340837
30
0.0
10
-21.095693
20
-0.340837
30
0.0
10
-21.095693
20
1.344668
30
0.0
10
-21.095693
20
1.782628
30
0.0
62
0
0
LWPOLYLINE
100
AcDbPolyline
8
Layer_1
90
11
70
0
10
19.748047
20
1.751423
30
0.0
10
19.748047
20
1.070350
30
0.0
10
18.924912
20
1.070350
30
0.0
10
18.101778
20
1.070350
30
0.0
10
18.101778
20
0.756641
30
0.0
10
18.101778
20
0.443080
30
0.0
10
19.238474
20
0.443080
30
0.0
10
20.375169
20
0.443080
30
0.0
10
20.375169
20
1.526548
30
0.0
10
19.748047
20
1.751434
30
0.0
10
19.748047
20
1.751423
30
0.0
62
0
0
LWPOLYLINE
100
AcDbPolyline
8
Layer_1
90
5
70
0
10
-21.958059
20
1.473011
30
0.0
10
-22.013333
20
1.452578
30
0.0
10
-22.013333
20
0.443058
30
0.0
10
-21.958059
20
0.443058
30
0.0
10
-21.958059
20
1.473011
30
0.0
62
0
0
LWPOLYLINE
100
AcDbPolyline
8
Layer_1
90
9
70
0
10
4.304215
20
1.305433
30
0.0
10
5.676154
20
1.305433
30
0.0
10
7.048093
20
1.305433
30
0.0
10
7.048093
20
0.756629
30
0.0
10
7.048093
20
0.207967
30
0.0
10
5.676154
20
0.207967
30
0.0
10
4.304215
20
0.207967
30
0.0
10
4.304215
20
0.756629
30
0.0
10
4.304215
20
1.305433
30
0.0
62
0
0
LWPOLYLINE
100
AcDbPolyline
8
Layer_1
90
9
70
0
10
4.539458
20
1.070350
30
0.0
10
4.539458
20
0.756641
30
0.0
10
4.539458
20
0.443080
30
0.0
10
5.676154
20
0.443080
30
0.0
10
6.812850
20
0.443080
30
0.0
10
6.812850
20
0.756641
30
0.0
10
6.812850
20
1.070350
30
0.0
10
5.676154
20
1.070350
30
0.0
10
4.539458
20
1.070350
30
0.0
62
0
0
LWPOLYLINE
100
AcDbPolyline
8
Layer_1
90
9
70
0
10
4.304215
20
-0.340826
30
0.0
10
5.676154
20
-0.340826
30
0.0
10
7.048093
20
-0.340826
30
0.0
10
7.048093
20
-0.889629
30
0.0
10
7.048093
20
-1.438433
30
0.0
10
5.676154
20
-1.438433
30
0.0
10
4.304215
20
-1.438433
30
0.0
10
4.304215
20
-0.889629
30
0.0
10
4.304215
20
-0.340826
30
0.0
62
0
0
LWPOLYLINE
100
AcDbPolyline
8
Layer_1
90
11
70
0
10
-5.651861
20
-0.576069
30
0.0
10
-5.651861
20
-2.300656
30
0.0
10
-5.651861
20
-4.025384
30
0.0
10
-8.160641
20
-4.025384
30
0.0
10
-10.669276
20
-4.025384
30
0.0
10
-10.669276
20
-4.089555
30
0.0
10
-5.024739
20
-4.579877
30
0.0
10
-5.024739
20
-3.437495
30
0.0
10
-5.024739
20
-0.576069
30
0.0
10
-5.338300
20
-0.576069
30
0.0
10
-5.651861
20
-0.576069
30
0.0
62
0
0
LWPOLYLINE
100
AcDbPolyline
8
Layer_1
90
9
70
0
10
4.539458
20
-0.576069
30
0.0
10
4.539458
20
-0.889629
30
0.0
10
4.539458
20
-1.203190
30
0.0
10
5.676154
20
-1.203190
30
0.0
10
6.812850
20
-1.203190
30
0.0
10
6.812850
20
-0.889629
30
0.0
10
6.812850
20
-0.576069
30
0.0
10
5.676154
20
-0.576069
30
0.0
10
4.539458
20
-0.576069
30
0.0
62
0
0
LWPOLYLINE
100
AcDbPolyline
8
Layer_1
90
13
70
0
10
13.006046
20
-0.576069
30
0.0
10
13.006046
20
-1.751993
30
0.0
10
13.006046
20
-2.927917
30
0.0
10
14.691546
20
-2.927917
30
0.0
10
15.863681
20
-2.927917
30
0.0
10
17.004314
20
-2.642650
30
0.0
10
17.004314
20
-2.300656
30
0.0
10
15.318814
20
-2.300656
30
0.0
10
13.633314
20
-2.300656
30
0.0
10
13.633314
20
-1.438433
30
0.0
10
13.633314
20
-0.576069
30
0.0
10
13.319607
20
-0.576069
30
0.0
10
13.006046
20
-0.576069
30
0.0
62
0
0
LWPOLYLINE
100
AcDbPolyline
8
Layer_1
90
8
70
0
10
8.772825
20
-1.438433
30
0.0
10
8.772825
20
-3.437495
30
0.0
10
8.772825
20
-4.151249
30
0.0
10
9.399947
20
-4.074973
30
0.0
10
9.399947
20
-3.123788
30
0.0
10
9.399947
20
-1.438433
30
0.0
10
9.086386
20
-1.438433
30
0.0
10
8.772825
20
-1.438433
30
0.0
62
0
0
LWPOLYLINE
100
AcDbPolyline
8
Layer_1
90
9
70
0
10
10.497411
20
-1.438433
30
0.0
10
10.497411
20
-2.614357
30
0.0
10
10.497411
20
-3.790287
30
0.0
10
10.771887
20
-3.790287
30
0.0
10
11.046216
20
-3.790287
30
0.0
10
11.046216
20
-2.614357
30
0.0
10
11.046216
20
-1.438433
30
0.0
10
10.771887
20
-1.438433
30
0.0
10
10.497411
20
-1.438433
30
0.0
62
0
0
LWPOLYLINE
100
AcDbPolyline
8
Layer_1
90
4
70
0
10
21.307685
20
-2.004449
30
0.0
10
21.150030
20
-2.065553
30
0.0
10
21.307685
20
-2.004591
30
0.0
10
21.307685
20
-2.004449
30
0.0
62
0
0
LWPOLYLINE
100
AcDbPolyline
8
Layer_1
90
4
70
0
10
18.101778
20
-2.300656
30
0.0
10
18.101778
20
-2.337841
30
0.0
10
18.227349
20
-2.300656
30
0.0
10
18.101778
20
-2.300656
30
0.0
62
0
0
LWPOLYLINE
100
AcDbPolyline
8
Layer_1
90
5
70
0
10
20.162677
20
-2.431912
30
0.0
10
19.748047
20
-2.575125
30
0.0
10
19.748047
20
-2.575275
30
0.0
10
20.162677
20
-2.431912
30
0.0
10
20.162677
20
-2.431912
30
0.0
62
0
0
LWPOLYLINE
100
AcDbPolyline
8
Layer_1
90
4
70
0
10
-21.006583
20
-2.616835
30
0.0
10
-20.908723
20
-2.648924
30
0.0
10
-21.006583
20
-2.616835
30
0.0
10
-21.006583
20
-2.616835
30
0.0
62
0
0
LWPOLYLINE
100
AcDbPolyline
8
Layer_1
90
4
70
0
10
-16.211432
20
-3.163020
30
0.0
10
-16.000106
20
-3.208082
30
0.0
10
-16.000106
20
-3.163020
30
0.0
10
-16.211432
20
-3.163020
30
0.0
62
0
0
LWPOLYLINE
100
AcDbPolyline
8
Layer_1
90
8
70
0
10
-14.902496
20
-3.163020
30
0.0
10
-14.902496
20
-3.428596
30
0.0
10
-12.811117
20
-3.790287
30
0.0
10
-12.629106
20
-3.790287
30
0.0
10
-12.629106
20
-3.476580
30
0.0
10
-12.629106
20
-3.163020
30
0.0
10
-13.765801
20
-3.163020
30
0.0
10
-14.902496
20
-3.163020
30
0.0
62
0
0
LWPOLYLINE
100
AcDbPolyline
8
Layer_1
90
12
70
0
10
-3.064909
20
-3.163020
30
0.0
10
-3.064909
20
-4.658343
30
0.0
10
-2.437786
20
-4.673357
30
0.0
10
-2.437786
20
-3.790287
30
0.0
10
-0.203481
20
-3.790287
30
0.0
10
2.030824
20
-3.790287
30
0.0
10
2.030824
20
-4.299709
30
0.0
10
2.030824
20
-4.647111
30
0.0
10
2.579483
20
-4.627722
30
0.0
10
2.579483
20
-3.163031
30
0.0
10
-0.242713
20
-3.163031
30
0.0
10
-3.064909
20
-3.163020
30
0.0
62
0
0
LWPOLYLINE
100
AcDbPolyline
8
Layer_1
90
4
70
0
10
-18.498678
20
-3.356404
30
0.0
10
-18.461488
20
-3.366028
30
0.0
10
-18.498678
20
-3.356404
30
0.0
10
-18.498678
20
-3.356404
30
0.0
62
0
0
LWPOLYLINE
100
AcDbPolyline
8
Layer_1
90
4
70
0
10
16.141948
20
-3.600258
30
0.0
10
15.681816
20
-3.707299
30
0.0
10
16.141948
20
-3.600258
30
0.0
10
16.141948
20
-3.600258
30
0.0
62
0
0
LWPOLYLINE
100
AcDbPolyline
8
Layer_1
90
15
70
0
10
-2.202543
20
-4.025384
30
0.0
10
-2.202543
20
-4.678316
30
0.0
10
-1.653738
20
-4.686049
30
0.0
10
-1.653738
20
-4.574184
30
0.0
10
-1.105079
20
-4.574184
30
0.0
10
-0.556274
20
-4.574184
30
0.0
10
-0.556274
20
-4.691733
30
0.0
10
0.070848
20
-4.688826
30
0.0
10
0.070848
20
-4.574190
30
0.0
10
0.933214
20
-4.574190
30
0.0
10
1.795580
20
-4.574190
30
0.0
10
1.795580
20
-4.299712
30
0.0
10
1.795580
20
-4.025386
30
0.0
10
-0.203481
20
-4.025386
30
0.0
10
-2.202543
20
-4.025384
30
0.0
62
0
0
LWPOLYLINE
100
AcDbPolyline
8
Layer_1
90
6
70
0
10
4.539458
20
-4.025384
30
0.0
10
4.539458
20
-4.528972
30
0.0
10
6.812850
20
-4.355282
30
0.0
10
6.812850
20
-4.025384
30
0.0
10
5.676154
20
-4.025384
30
0.0
10
4.539458
20
-4.025384
30
0.0
62
0
0
LWPOLYLINE
100
AcDbPolyline
8
Layer_1
90
5
70
0
10
-15.168222
20
-4.106469
30
0.0
10
-15.137741
20
-4.112452
30
0.0
10
-15.137741
20
-4.112311
30
0.0
10
-15.168222
20
-4.106469
30
0.0
10
-15.168222
20
-4.106469
30
0.0
62
0
0
LWPOLYLINE
100
AcDbPolyline
8
Layer_1
90
4
70
0
10
13.464283
20
-4.167288
30
0.0
10
13.306481
20
-4.196021
30
0.0
10
13.464283
20
-4.167288
30
0.0
10
13.464283
20
-4.167288
30
0.0
62
0
0
LWPOLYLINE
100
AcDbPolyline
8
Layer_1
90
4
70
0
10
12.688547
20
-4.306564
30
0.0
10
12.551018
20
-4.330186
30
0.0
10
12.688547
20
-4.306564
30
0.0
10
12.688547
20
-4.306564
30
0.0
62
0
0
LWPOLYLINE
100
AcDbPolyline
8
Layer_1
90
4
70
0
10
-13.279417
20
-4.439135
30
0.0
10
-13.253749
20
-4.443228
30
0.0
10
-13.279417
20
-4.439135
30
0.0
10
-13.279417
20
-4.439135
30
0.0
62
0
0
LWPOLYLINE
100
AcDbPolyline
8
Layer_1
90
4
70
0
10
11.882330
20
-4.441111
30
0.0
10
11.784032
20
-4.456859
30
0.0
10
11.882330
20
-4.441111
30
0.0
10
11.882330
20
-4.441111
30
0.0
62
0
0
LWPOLYLINE
100
AcDbPolyline
8
Layer_1
90
5
70
0
10
11.039069
20
-4.570911
30
0.0
10
11.016173
20
-4.574269
30
0.0
10
11.016907
20
-4.574269
30
0.0
10
11.039075
20
-4.570911
30
0.0
10
11.039069
20
-4.570911
30
0.0
62
0
0
LWPOLYLINE
100
AcDbPolyline
8
Layer_1
90
5
70
0
10
8.511184
20
-4.897747
30
0.0
10
7.910459
20
-4.962203
30
0.0
10
7.910459
20
-4.962353
30
0.0
10
8.511184
20
-4.897747
30
0.0
10
8.511184
20
-4.897747
30
0.0
62
0
0
LWPOLYLINE
100
AcDbPolyline
8
Layer_1
90
4
70
0
10
-8.947169
20
-4.996770
30
0.0
10
-8.859810
20
-5.005378
30
0.0
10
-8.947169
20
-4.996770
30
0.0
10
-8.947169
20
-4.996770
30
0.0
62
0
0
LWPOLYLINE
100
AcDbPolyline
8
Layer_1
90
4
70
0
10
2.144727
20
-5.350143
30
0.0
10
1.938651
20
-5.356860
30
0.0
10
2.144727
20
-5.350143
30
0.0
10
2.144727
20
-5.350143
30
0.0
62
0
0
LWPOLYLINE
100
AcDbPolyline
8
Layer_1
90
4
70
0
10
1.470352
20
-5.369842
30
0.0
10
1.421640
20
-5.370971
30
0.0
10
1.470352
20
-5.369842
30
0.0
10
1.470352
20
-5.369842
30
0.0
  0
ENDSEC
  0
SECTION
  2
OBJECTS
  0
DICTIONARY
  5
C
330
0
100
AcDbDictionary
  3
ACAD_GROUP
350
D
  3
ACAD_MLINESTYLE
350
17
  0
DICTIONARY
  5
D
330
C
100
AcDbDictionary
  0
DICTIONARY
  5
1A
330
C
100
AcDbDictionary
  0
DICTIONARY
  5
17
330
C
100
AcDbDictionary
  3
STANDARD
350
18
  0
DICTIONARY
  5
19
330
C
100
AcDbDictionary
  0
ENDSEC
  0
EOF
