<?xml version="1.0" encoding="UTF-8" standalone="no"?>
<!-- Created with Inkscape (http://www.inkscape.org/) -->

<svg
   xmlns:dc="http://purl.org/dc/elements/1.1/"
   xmlns:cc="http://creativecommons.org/ns#"
   xmlns:rdf="http://www.w3.org/1999/02/22-rdf-syntax-ns#"
   xmlns:svg="http://www.w3.org/2000/svg"
   xmlns="http://www.w3.org/2000/svg"
   xmlns:sodipodi="http://sodipodi.sourceforge.net/DTD/sodipodi-0.dtd"
   xmlns:inkscape="http://www.inkscape.org/namespaces/inkscape"
   width="78.999832mm"
   height="50.000191mm"
   viewBox="0 0 279.92067 177.16603"
   id="svg2"
   version="1.1"
   inkscape:version="0.91 r13725"
   sodipodi:docname="1-layer-1.svg">
  <defs
     id="defs4" />
  <sodipodi:namedview
     id="base"
     pagecolor="#ffffff"
     bordercolor="#666666"
     borderopacity="1.0"
     inkscape:pageopacity="0.0"
     inkscape:pageshadow="2"
     inkscape:zoom="1.979899"
     inkscape:cx="57.699079"
     inkscape:cy="50.029715"
     inkscape:document-units="px"
     inkscape:current-layer="layer1-0"
     showgrid="false"
     fit-margin-top="0"
     fit-margin-left="0"
     fit-margin-right="0"
     fit-margin-bottom="0"
     inkscape:window-width="1357"
     inkscape:window-height="854"
     inkscape:window-x="471"
     inkscape:window-y="82"
     inkscape:window-maximized="0" />
  <metadata
     id="metadata7">
    <rdf:RDF>
      <cc:Work
         rdf:about="">
        <dc:format>image/svg+xml</dc:format>
        <dc:type
           rdf:resource="http://purl.org/dc/dcmitype/StillImage" />
        <dc:title />
      </cc:Work>
    </rdf:RDF>
  </metadata>
  <g
     inkscape:label="Layer 1"
     inkscape:groupmode="layer"
     id="layer1"
     transform="translate(1.4979739e-6,-875.19618)">
    <g
       id="layer1-0"
       inkscape:label="Layer 1"
       transform="matrix(0.34003939,0,0,0.34003939,-101.01822,-17.854197)">
      <path
         style="fill:#8040c0"
         d="M 104.13477 0 C 87.265776 0 73.589844 13.676113 73.589844 30.544922 C 73.589844 31.363465 73.622456 32.174175 73.685547 32.976562 C 68.777439 22.673271 58.268394 15.550781 46.095703 15.550781 C 29.226895 15.550781 15.550781 29.226894 15.550781 46.095703 C 15.550781 58.268398 22.671502 68.777453 32.974609 73.685547 C 32.172399 73.62247 31.361488 73.589844 30.542969 73.589844 C 13.67415 73.589844 1.6579331e-14 87.265775 0 104.13477 C 0 121.00357 13.67415 134.67773 30.542969 134.67773 C 36.982127 134.67773 42.957335 132.68526 47.882812 129.2832 C 44.480766 134.20867 42.488281 140.18194 42.488281 146.62109 C 42.488281 163.48994 56.162442 177.16602 73.03125 177.16602 C 89.900238 177.16602 103.57422 163.48994 103.57422 146.62109 C 103.57422 145.80258 103.54358 144.99167 103.48047 144.18945 C 108.3886 154.49258 118.89761 161.61328 131.07031 161.61328 C 147.93908 161.61328 161.61328 147.93912 161.61328 131.07031 C 161.61328 118.89762 154.49274 108.38856 144.18945 103.48047 C 144.99187 103.54355 145.80254 103.57422 146.62109 103.57422 C 163.48986 103.57422 177.16602 89.900263 177.16602 73.03125 C 177.16602 56.162441 163.48986 42.488281 146.62109 42.488281 C 140.18194 42.488281 134.20867 44.480586 129.2832 47.882812 C 132.68543 42.957345 134.67773 36.984077 134.67773 30.544922 C 134.67773 13.676113 121.00357 -2.3684758e-15 104.13477 0 z M 108.06445 78.667969 C 111.51901 78.667969 114.39548 81.284483 114.82422 84.628906 L 114.86719 84.599609 L 115.04492 86.25 L 115.13477 87.322266 L 115.15625 88.238281 L 115.15625 89.041016 L 115.11328 90.269531 L 115.06836 90.804688 L 115.04492 90.804688 A 26.5748 26.574802 0 0 1 88.582031 115.15625 A 26.5748 26.574802 0 0 1 62.095703 90.353516 L 101.41211 90.353516 L 101.42969 90.246094 L 101.54102 89.0625 L 101.51953 87.925781 L 101.40039 86.945312 C 101.29687 86.475684 101.24023 85.989378 101.24023 85.490234 C 101.24023 81.743307 104.31752 78.667969 108.06445 78.667969 z "
         transform="matrix(2.9408361,0,0,2.9408359,297.07799,2626.3145)"
         id="path18" />
      <path
         style="fill:#800000"
         d="m 1021.2897,2793.0426 a 98.9927,98.9927 0 0 0 -98.99465,98.989 98.9927,98.9927 0 0 0 98.99465,98.9948 98.9927,98.9927 0 0 0 98.989,-98.9948 98.9927,98.9927 0 0 0 -98.989,-98.989 z m -77.97235,104.1987 155.86425,0 a 78.152132,78.152132 0 0 1 -77.8919,72.9408 78.152132,78.152132 0 0 1 -77.97235,-72.9408 z"
         id="path3349"
         inkscape:connector-curvature="0" />
    </g>
  </g>
</svg>
