  0
SECTION
  2
HEADER
  9
$ACADVER
  1
AC1014
  9
$HANDSEED
  5
FFFF
  9
$MEASUREMENT
 70
     1
  0
ENDSEC
  0
SECTION
  2
TABLES
  0
TABLE
  2
VPORT
  5
8
330
0
100
AcDbSymbolTable
 70
     4
  0
VPORT
  5
2E
330
8
100
AcDbSymbolTableRecord
100
AcDbViewportTableRecord
  2
*ACTIVE
 70
     0
 10
0.0
 20
0.0
 11
1.0
 21
1.0
 12
210.0
 22
148.5
 13
0.0
 23
0.0
 14
10.0
 24
10.0
 15
10.0
 25
10.0
 16
0.0
 26
0.0
 36
1.0
 17
0.0
 27
0.0
 37
0.0
 40
341.0
 41
1.24
 42
50.0
 43
0.0
 44
0.0
 50
0.0
 51
0.0
 71
     0
 72
   100
 73
     1
 74
     3
 75
     0
 76
     0
 77
     0
 78
     0
  0
ENDTAB
  0
TABLE
  2
LTYPE
  5
5
330
0
100
AcDbSymbolTable
 70
     1
  0
LTYPE
  5
14
330
5
100
AcDbSymbolTableRecord
100
AcDbLinetypeTableRecord
  2
BYBLOCK
 70
     0
  3

 72
    65
 73
     0
 40
0.0
  0
LTYPE
  5
15
330
5
100
AcDbSymbolTableRecord
100
AcDbLinetypeTableRecord
  2
BYLAYER
 70
     0
  3

 72
    65
 73
     0
 40
0.0
  0
LTYPE
  5
16
330
5
100
AcDbSymbolTableRecord
100
AcDbLinetypeTableRecord
  2
CONTINUOUS
 70
     0
  3
Solid line
 72
    65
 73
     0
 40
0.0
  0
ENDTAB
  0
TABLE
  2
LAYER
  5
2
100
AcDbSymbolTable
 70
2
  0
LAYER
  5
50
100
AcDbSymbolTableRecord
100
AcDbLayerTableRecord
  2
0
 70
0
  6
CONTINUOUS
  0
LAYER
  5
51
100
AcDbSymbolTableRecord
100
AcDbLayerTableRecord
  2
Layer_1
 70
0
  6
CONTINUOUS
  0
ENDTAB
  0
TABLE
  2
STYLE
  5
3
330
0
100
AcDbSymbolTable
 70
     1
  0
STYLE
  5
11
330
3
100
AcDbSymbolTableRecord
100
AcDbTextStyleTableRecord
  2
STANDARD
 70
     0
 40
0.0
 41
1.0
 50
0.0
 71
     0
 42
2.5
  3
txt
  4

  0
ENDTAB
  0
TABLE
  2
VIEW
  5
6
330
0
100
AcDbSymbolTable
 70
     0
  0
ENDTAB
  0
TABLE
  2
UCS
  5
7
330
0
100
AcDbSymbolTable
 70
     0
  0
ENDTAB
  0
TABLE
  2
APPID
  5
9
330
0
100
AcDbSymbolTable
 70
     2
  0
APPID
  5
12
330
9
100
AcDbSymbolTableRecord
100
AcDbRegAppTableRecord
  2
ACAD
 70
     0
  0
ENDTAB
  0
TABLE
  2
DIMSTYLE
  5
A
330
0
100
AcDbSymbolTable
 70
     1
  0
DIMSTYLE
105
27
330
A
100
AcDbSymbolTableRecord
100
AcDbDimStyleTableRecord
  2
ISO-25
 70
     0
  3

  4

  5

  6

  7

 40
1.0
 41
2.5
 42
0.625
 43
3.75
 44
1.25
 45
0.0
 46
0.0
 47
0.0
 48
0.0
140
2.5
141
2.5
142
0.0
143
0.03937007874016
144
1.0
145
0.0
146
1.0
147
0.625
 71
     0
 72
     0
 73
     0
 74
     0
 75
     0
 76
     0
 77
     1
 78
     8
170
     0
171
     3
172
     1
173
     0
174
     0
175
     0
176
     0
177
     0
178
     0
270
     2
271
     2
272
     2
273
     2
274
     3
340
11
275
     0
280
     0
281
     0
282
     0
283
     0
284
     8
285
     0
286
     0
287
     3
288
     0
  0
ENDTAB
  0
TABLE
  2
BLOCK_RECORD
  5
1
330
0
100
AcDbSymbolTable
 70
     1
  0
BLOCK_RECORD
  5
1F
330
1
100
AcDbSymbolTableRecord
100
AcDbBlockTableRecord
  2
*MODEL_SPACE
  0
BLOCK_RECORD
  5
1B
330
1
100
AcDbSymbolTableRecord
100
AcDbBlockTableRecord
  2
*PAPER_SPACE
  0
ENDTAB
  0
ENDSEC
  0
SECTION
  2
BLOCKS
  0
BLOCK
  5
20
330
1F
100
AcDbEntity
  8
0
100
AcDbBlockBegin
  2
*MODEL_SPACE
 70
     0
 10
0.0
 20
0.0
 30
0.0
  3
*MODEL_SPACE
  1

  0
ENDBLK
  5
21
330
1F
100
AcDbEntity
  8
0
100
AcDbBlockEnd
  0
BLOCK
  5
1C
330
1B
100
AcDbEntity
 67
     1
  8
0
100
AcDbBlockBegin
  2
*PAPER_SPACE
  1

  0
ENDBLK
  5
1D
330
1B
100
AcDbEntity
 67
     1
  8
0
100
AcDbBlockEnd
  0
ENDSEC
  0
SECTION
  2
ENTITIES
  0
LWPOLYLINE
  5
100
100
AcDbEntity
  8
Layer_1
 62
7
100
AcDbPolyline
 90
160
 70
0
 10
2.938915
 20
4.974994
 30
0.0
 10
2.853286
 20
4.970676
 30
0.0
 10
2.770141
 20
4.958000
 30
0.0
 10
2.612984
 20
4.909257
 30
0.0
 10
2.470799
 20
4.832120
 30
0.0
 10
2.346941
 20
4.729945
 30
0.0
 10
2.244767
 20
4.606087
 30
0.0
 10
2.167630
 20
4.463902
 30
0.0
 10
2.118888
 20
4.306745
 30
0.0
 10
2.106213
 20
4.223602
 30
0.0
 10
2.101894
 20
4.137973
 30
0.0
 10
2.104485
 20
4.071276
 30
0.0
 10
2.057025
 20
4.058598
 30
0.0
 10
1.999616
 20
4.160171
 30
0.0
 10
1.929089
 20
4.252311
 30
0.0
 10
1.846702
 20
4.333751
 30
0.0
 10
1.753714
 20
4.403224
 30
0.0
 10
1.651384
 20
4.459464
 30
0.0
 10
1.540970
 20
4.501204
 30
0.0
 10
1.423730
 20
4.527177
 30
0.0
 10
1.300923
 20
4.536116
 30
0.0
 10
1.215295
 20
4.531798
 30
0.0
 10
1.132151
 20
4.519123
 30
0.0
 10
0.974995
 20
4.470380
 30
0.0
 10
0.832810
 20
4.393243
 30
0.0
 10
0.708952
 20
4.291067
 30
0.0
 10
0.606776
 20
4.167209
 30
0.0
 10
0.529639
 20
4.025024
 30
0.0
 10
0.480896
 20
3.867868
 30
0.0
 10
0.468221
 20
3.784724
 30
0.0
 10
0.463903
 20
3.699096
 30
0.0
 10
0.472840
 20
3.576288
 30
0.0
 10
0.498807
 20
3.459048
 30
0.0
 10
0.540539
 20
3.348633
 30
0.0
 10
0.596770
 20
3.246303
 30
0.0
 10
0.666233
 20
3.153316
 30
0.0
 10
0.747664
 20
3.070930
 30
0.0
 10
0.839797
 20
3.000403
 30
0.0
 10
0.941366
 20
2.942994
 30
0.0
 10
0.928688
 20
2.895534
 30
0.0
 10
0.861991
 20
2.898125
 30
0.0
 10
0.776363
 20
2.893807
 30
0.0
 10
0.693221
 20
2.881132
 30
0.0
 10
0.536071
 20
2.832389
 30
0.0
 10
0.393894
 20
2.755253
 30
0.0
 10
0.270046
 20
2.653078
 30
0.0
 10
0.167881
 20
2.529221
 30
0.0
 10
0.090753
 20
2.387035
 30
0.0
 10
0.042016
 20
2.229878
 30
0.0
 10
0.029343
 20
2.146734
 30
0.0
 10
0.025025
 20
2.061104
 30
0.0
 10
0.029343
 20
1.975476
 30
0.0
 10
0.042016
 20
1.892332
 30
0.0
 10
0.090753
 20
1.735175
 30
0.0
 10
0.167881
 20
1.592990
 30
0.0
 10
0.270046
 20
1.469132
 30
0.0
 10
0.393894
 20
1.366957
 30
0.0
 10
0.536070
 20
1.289820
 30
0.0
 10
0.693220
 20
1.241077
 30
0.0
 10
0.776363
 20
1.228402
 30
0.0
 10
0.861991
 20
1.224084
 30
0.0
 10
0.991741
 20
1.234072
 30
0.0
 10
1.115159
 20
1.263039
 30
0.0
 10
1.230780
 20
1.309487
 30
0.0
 10
1.337138
 20
1.371920
 30
0.0
 10
1.371920
 20
1.337138
 30
0.0
 10
1.309495
 20
1.230788
 30
0.0
 10
1.263066
 20
1.115185
 30
0.0
 10
1.234118
 20
0.991787
 30
0.0
 10
1.224139
 20
0.862046
 30
0.0
 10
1.228457
 20
0.776416
 30
0.0
 10
1.241130
 20
0.693270
 30
0.0
 10
1.289867
 20
0.536107
 30
0.0
 10
1.366995
 20
0.393913
 30
0.0
 10
1.469161
 20
0.270045
 30
0.0
 10
1.593009
 20
0.167860
 30
0.0
 10
1.735185
 20
0.090715
 30
0.0
 10
1.892335
 20
0.041966
 30
0.0
 10
1.975477
 20
0.029289
 30
0.0
 10
2.061104
 20
0.024970
 30
0.0
 10
2.146733
 20
0.029289
 30
0.0
 10
2.229878
 20
0.041966
 30
0.0
 10
2.387035
 20
0.090715
 30
0.0
 10
2.529220
 20
0.167860
 30
0.0
 10
2.653078
 20
0.270045
 30
0.0
 10
2.755253
 20
0.393913
 30
0.0
 10
2.832389
 20
0.536107
 30
0.0
 10
2.881132
 20
0.693270
 30
0.0
 10
2.893807
 20
0.776416
 30
0.0
 10
2.898125
 20
0.862046
 30
0.0
 10
2.895534
 20
0.928688
 30
0.0
 10
2.942994
 20
0.941421
 30
0.0
 10
3.000403
 20
0.839850
 30
0.0
 10
3.070930
 20
0.747711
 30
0.0
 10
3.153317
 20
0.666271
 30
0.0
 10
3.246304
 20
0.596797
 30
0.0
 10
3.348634
 20
0.540556
 30
0.0
 10
3.459048
 20
0.498816
 30
0.0
 10
3.576288
 20
0.472842
 30
0.0
 10
3.699096
 20
0.463903
 30
0.0
 10
3.784724
 20
0.468221
 30
0.0
 10
3.867868
 20
0.480896
 30
0.0
 10
4.025024
 20
0.529639
 30
0.0
 10
4.167210
 20
0.606776
 30
0.0
 10
4.291068
 20
0.708951
 30
0.0
 10
4.393243
 20
0.832809
 30
0.0
 10
4.470380
 20
0.974994
 30
0.0
 10
4.519123
 20
1.132151
 30
0.0
 10
4.531798
 20
1.215295
 30
0.0
 10
4.536117
 20
1.300923
 30
0.0
 10
4.527177
 20
1.423728
 30
0.0
 10
4.501204
 20
1.540962
 30
0.0
 10
4.459464
 20
1.651368
 30
0.0
 10
4.403224
 20
1.753688
 30
0.0
 10
4.333750
 20
1.846665
 30
0.0
 10
4.252310
 20
1.929043
 30
0.0
 10
4.160171
 20
1.999564
 30
0.0
 10
4.058598
 20
2.056970
 30
0.0
 10
4.071332
 20
2.104485
 30
0.0
 10
4.137973
 20
2.101894
 30
0.0
 10
4.223602
 20
2.106213
 30
0.0
 10
4.306746
 20
2.118888
 30
0.0
 10
4.463902
 20
2.167630
 30
0.0
 10
4.606087
 20
2.244766
 30
0.0
 10
4.729945
 20
2.346941
 30
0.0
 10
4.832121
 20
2.470799
 30
0.0
 10
4.909258
 20
2.612984
 30
0.0
 10
4.958001
 20
2.770141
 30
0.0
 10
4.970676
 20
2.853286
 30
0.0
 10
4.974994
 20
2.938915
 30
0.0
 10
4.970676
 20
3.024542
 30
0.0
 10
4.958001
 20
3.107684
 30
0.0
 10
4.909258
 20
3.264834
 30
0.0
 10
4.832121
 20
3.407011
 30
0.0
 10
4.729945
 20
3.530859
 30
0.0
 10
4.606087
 20
3.633024
 30
0.0
 10
4.463902
 20
3.710152
 30
0.0
 10
4.306746
 20
3.758889
 30
0.0
 10
4.223602
 20
3.771562
 30
0.0
 10
4.137973
 20
3.775880
 30
0.0
 10
4.008232
 20
3.765901
 30
0.0
 10
3.884833
 20
3.736955
 30
0.0
 10
3.769231
 20
3.690526
 30
0.0
 10
3.662881
 20
3.628099
 30
0.0
 10
3.628099
 20
3.662881
 30
0.0
 10
3.690526
 20
3.769231
 30
0.0
 10
3.736955
 20
3.884833
 30
0.0
 10
3.765902
 20
4.008232
 30
0.0
 10
3.775880
 20
4.137973
 30
0.0
 10
3.771562
 20
4.223602
 30
0.0
 10
3.758889
 20
4.306745
 30
0.0
 10
3.710152
 20
4.463902
 30
0.0
 10
3.633023
 20
4.606087
 30
0.0
 10
3.530858
 20
4.729945
 30
0.0
 10
3.407010
 20
4.832120
 30
0.0
 10
3.264834
 20
4.909257
 30
0.0
 10
3.107684
 20
4.958000
 30
0.0
 10
3.024542
 20
4.970676
 30
0.0
 10
2.938915
 20
4.974994
 30
0.0
 10
2.938915
 20
4.974994
 30
0.0
  0
LWPOLYLINE
  5
101
100
AcDbEntity
  8
Layer_1
 62
7
100
AcDbPolyline
 90
40
 70
0
 10
3.049819
 20
2.779834
 30
0.0
 10
3.119057
 20
2.766821
 30
0.0
 10
3.177230
 20
2.731114
 30
0.0
 10
3.219392
 20
2.677709
 30
0.0
 10
3.240595
 20
2.611603
 30
0.0
 10
3.241808
 20
2.612430
 30
0.0
 10
3.246824
 20
2.565852
 30
0.0
 10
3.249359
 20
2.535590
 30
0.0
 10
3.249966
 20
2.509739
 30
0.0
 10
3.249966
 20
2.487084
 30
0.0
 10
3.248753
 20
2.452412
 30
0.0
 10
3.247485
 20
2.437309
 30
0.0
 10
3.246824
 20
2.437309
 30
0.0
 10
3.221356
 20
2.296299
 30
0.0
 10
3.171176
 20
2.166141
 30
0.0
 10
3.098941
 20
2.049281
 30
0.0
 10
3.007310
 20
1.948164
 30
0.0
 10
2.898940
 20
1.865237
 30
0.0
 10
2.776490
 20
1.802946
 30
0.0
 10
2.642618
 20
1.763736
 30
0.0
 10
2.499982
 20
1.750054
 30
0.0
 10
2.355682
 20
1.764112
 30
0.0
 10
2.220462
 20
1.804260
 30
0.0
 10
2.097047
 20
1.867943
 30
0.0
 10
1.988164
 20
1.952609
 30
0.0
 10
1.896540
 20
2.055705
 30
0.0
 10
1.824900
 20
2.174678
 30
0.0
 10
1.775971
 20
2.306975
 30
0.0
 10
1.752479
 20
2.450042
 30
0.0
 10
2.862075
 20
2.450042
 30
0.0
 10
2.862572
 20
2.453074
 30
0.0
 10
2.865714
 20
2.486477
 30
0.0
 10
2.865107
 20
2.518558
 30
0.0
 10
2.861745
 20
2.546229
 30
0.0
 10
2.857225
 20
2.587295
 30
0.0
 10
2.872447
 20
2.661991
 30
0.0
 10
2.913867
 20
2.723219
 30
0.0
 10
2.975114
 20
2.764620
 30
0.0
 10
3.049819
 20
2.779834
 30
0.0
 10
3.049819
 20
2.779834
 30
0.0
  0
LWPOLYLINE
  5
102
100
AcDbEntity
  8
Layer_1
 62
7
100
AcDbPolyline
 90
66
 70
0
 10
6.950019
 20
3.399985
 30
0.0
 10
6.852888
 20
3.395082
 30
0.0
 10
6.758563
 20
3.380689
 30
0.0
 10
6.667520
 20
3.357281
 30
0.0
 10
6.580239
 20
3.325338
 30
0.0
 10
6.497195
 20
3.285337
 30
0.0
 10
6.418867
 20
3.237754
 30
0.0
 10
6.345732
 20
3.183068
 30
0.0
 10
6.278268
 20
3.121756
 30
0.0
 10
6.216952
 20
3.054295
 30
0.0
 10
6.162261
 20
2.981163
 30
0.0
 10
6.114674
 20
2.902838
 30
0.0
 10
6.074668
 20
2.819796
 30
0.0
 10
6.042720
 20
2.732517
 30
0.0
 10
6.019307
 20
2.641476
 30
0.0
 10
6.004908
 20
2.547151
 30
0.0
 10
6.000000
 20
2.450020
 30
0.0
 10
6.004647
 20
2.356122
 30
0.0
 10
6.018420
 20
2.263814
 30
0.0
 10
6.041060
 20
2.173719
 30
0.0
 10
6.072311
 20
2.086461
 30
0.0
 10
6.111912
 20
2.002661
 30
0.0
 10
6.159608
 20
1.922944
 30
0.0
 10
6.215139
 20
1.847933
 30
0.0
 10
6.278248
 20
1.778249
 30
0.0
 10
6.347931
 20
1.715140
 30
0.0
 10
6.422943
 20
1.659609
 30
0.0
 10
6.502660
 20
1.611913
 30
0.0
 10
6.586459
 20
1.572311
 30
0.0
 10
6.673718
 20
1.541061
 30
0.0
 10
6.763812
 20
1.518420
 30
0.0
 10
6.856120
 20
1.504647
 30
0.0
 10
6.950019
 20
1.500000
 30
0.0
 10
7.047150
 20
1.504909
 30
0.0
 10
7.141474
 20
1.519308
 30
0.0
 10
7.232515
 20
1.542720
 30
0.0
 10
7.319795
 20
1.574668
 30
0.0
 10
7.402837
 20
1.614675
 30
0.0
 10
7.481162
 20
1.662262
 30
0.0
 10
7.554294
 20
1.716952
 30
0.0
 10
7.621754
 20
1.778268
 30
0.0
 10
7.683067
 20
1.845733
 30
0.0
 10
7.737753
 20
1.918868
 30
0.0
 10
7.785335
 20
1.997196
 30
0.0
 10
7.825337
 20
2.080240
 30
0.0
 10
7.857280
 20
2.167522
 30
0.0
 10
7.880687
 20
2.258564
 30
0.0
 10
7.895081
 20
2.352889
 30
0.0
 10
7.899983
 20
2.450020
 30
0.0
 10
7.895075
 20
2.547147
 30
0.0
 10
7.880677
 20
2.641468
 30
0.0
 10
7.857267
 20
2.732506
 30
0.0
 10
7.825321
 20
2.819783
 30
0.0
 10
7.785317
 20
2.902822
 30
0.0
 10
7.737734
 20
2.981146
 30
0.0
 10
7.683047
 20
3.054276
 30
0.0
 10
7.621735
 20
3.121736
 30
0.0
 10
7.554275
 20
3.183048
 30
0.0
 10
7.481144
 20
3.237735
 30
0.0
 10
7.402821
 20
3.285319
 30
0.0
 10
7.319782
 20
3.325323
 30
0.0
 10
7.232504
 20
3.357268
 30
0.0
 10
7.141467
 20
3.380679
 30
0.0
 10
7.047146
 20
3.395077
 30
0.0
 10
6.950019
 20
3.399985
 30
0.0
 10
6.950019
 20
3.399985
 30
0.0
  0
LWPOLYLINE
  5
103
100
AcDbEntity
  8
Layer_1
 62
7
100
AcDbPolyline
 90
35
 70
0
 10
6.201744
 20
2.400025
 30
0.0
 10
7.697521
 20
2.400025
 30
0.0
 10
7.689126
 20
2.327304
 30
0.0
 10
7.674030
 20
2.256958
 30
0.0
 10
7.652575
 20
2.189303
 30
0.0
 10
7.625101
 20
2.124661
 30
0.0
 10
7.591949
 20
2.063350
 30
0.0
 10
7.553461
 20
2.005688
 30
0.0
 10
7.509976
 20
1.951996
 30
0.0
 10
7.461837
 20
1.902592
 30
0.0
 10
7.409382
 20
1.857796
 30
0.0
 10
7.352954
 20
1.817926
 30
0.0
 10
7.292892
 20
1.783302
 30
0.0
 10
7.229539
 20
1.754242
 30
0.0
 10
7.163234
 20
1.731067
 30
0.0
 10
7.094319
 20
1.714095
 30
0.0
 10
7.023133
 20
1.703645
 30
0.0
 10
6.950019
 20
1.700036
 30
0.0
 10
6.876847
 20
1.703575
 30
0.0
 10
6.805601
 20
1.713966
 30
0.0
 10
6.736624
 20
1.730891
 30
0.0
 10
6.670255
 20
1.754029
 30
0.0
 10
6.606838
 20
1.783062
 30
0.0
 10
6.546714
 20
1.817669
 30
0.0
 10
6.490224
 20
1.857531
 30
0.0
 10
6.437711
 20
1.902329
 30
0.0
 10
6.389515
 20
1.951742
 30
0.0
 10
6.345979
 20
2.005451
 30
0.0
 10
6.307444
 20
2.063136
 30
0.0
 10
6.274252
 20
2.124479
 30
0.0
 10
6.246744
 20
2.189158
 30
0.0
 10
6.225262
 20
2.256856
 30
0.0
 10
6.210149
 20
2.327251
 30
0.0
 10
6.201744
 20
2.400025
 30
0.0
 10
6.201744
 20
2.400025
 30
0.0
  0
ENDSEC
  0
SECTION
  2
OBJECTS
  0
DICTIONARY
  5
C
330
0
100
AcDbDictionary
  3
ACAD_GROUP
350
D
  3
ACAD_MLINESTYLE
350
17
  0
DICTIONARY
  5
D
330
C
100
AcDbDictionary
  0
DICTIONARY
  5
1A
330
C
100
AcDbDictionary
  0
DICTIONARY
  5
17
330
C
100
AcDbDictionary
  3
STANDARD
350
18
  0
DICTIONARY
  5
19
330
C
100
AcDbDictionary
  0
ENDSEC
  0
EOF
