  0
SECTION
  2
HEADER
  9
$ACADVER
  1
AC1014
  9
$HANDSEED
  5
FFFF
  9
$MEASUREMENT
 70
     1
  0
ENDSEC
  0
SECTION
  2
TABLES
  0
TABLE
  2
VPORT
  5
8
330
0
100
AcDbSymbolTable
 70
     4
  0
VPORT
  5
2E
330
8
100
AcDbSymbolTableRecord
100
AcDbViewportTableRecord
  2
*ACTIVE
 70
     0
 10
0.0
 20
0.0
 11
1.0
 21
1.0
 12
210.0
 22
148.5
 13
0.0
 23
0.0
 14
10.0
 24
10.0
 15
10.0
 25
10.0
 16
0.0
 26
0.0
 36
1.0
 17
0.0
 27
0.0
 37
0.0
 40
341.0
 41
1.24
 42
50.0
 43
0.0
 44
0.0
 50
0.0
 51
0.0
 71
     0
 72
   100
 73
     1
 74
     3
 75
     0
 76
     0
 77
     0
 78
     0
  0
ENDTAB
  0
TABLE
  2
LTYPE
  5
5
330
0
100
AcDbSymbolTable
 70
     1
  0
LTYPE
  5
14
330
5
100
AcDbSymbolTableRecord
100
AcDbLinetypeTableRecord
  2
BYBLOCK
 70
     0
  3

 72
    65
 73
     0
 40
0.0
  0
LTYPE
  5
15
330
5
100
AcDbSymbolTableRecord
100
AcDbLinetypeTableRecord
  2
BYLAYER
 70
     0
  3

 72
    65
 73
     0
 40
0.0
  0
LTYPE
  5
16
330
5
100
AcDbSymbolTableRecord
100
AcDbLinetypeTableRecord
  2
CONTINUOUS
 70
     0
  3
Solid line
 72
    65
 73
     0
 40
0.0
  0
ENDTAB
  0
TABLE
  2
LAYER
  5
2
100
AcDbSymbolTable
 70
2
  0
LAYER
  5
50
100
AcDbSymbolTableRecord
100
AcDbLayerTableRecord
  2
0
 70
0
  6
CONTINUOUS
  0
LAYER
  5
51
100
AcDbSymbolTableRecord
100
AcDbLayerTableRecord
  2
Layer_1
 70
0
  6
CONTINUOUS
  0
ENDTAB
  0
TABLE
  2
STYLE
  5
3
330
0
100
AcDbSymbolTable
 70
     1
  0
STYLE
  5
11
330
3
100
AcDbSymbolTableRecord
100
AcDbTextStyleTableRecord
  2
STANDARD
 70
     0
 40
0.0
 41
1.0
 50
0.0
 71
     0
 42
2.5
  3
txt
  4

  0
ENDTAB
  0
TABLE
  2
VIEW
  5
6
330
0
100
AcDbSymbolTable
 70
     0
  0
ENDTAB
  0
TABLE
  2
UCS
  5
7
330
0
100
AcDbSymbolTable
 70
     0
  0
ENDTAB
  0
TABLE
  2
APPID
  5
9
330
0
100
AcDbSymbolTable
 70
     2
  0
APPID
  5
12
330
9
100
AcDbSymbolTableRecord
100
AcDbRegAppTableRecord
  2
ACAD
 70
     0
  0
ENDTAB
  0
TABLE
  2
DIMSTYLE
  5
A
330
0
100
AcDbSymbolTable
 70
     1
  0
DIMSTYLE
105
27
330
A
100
AcDbSymbolTableRecord
100
AcDbDimStyleTableRecord
  2
ISO-25
 70
     0
  3

  4

  5

  6

  7

 40
1.0
 41
2.5
 42
0.625
 43
3.75
 44
1.25
 45
0.0
 46
0.0
 47
0.0
 48
0.0
140
2.5
141
2.5
142
0.0
143
0.03937007874016
144
1.0
145
0.0
146
1.0
147
0.625
 71
     0
 72
     0
 73
     0
 74
     0
 75
     0
 76
     0
 77
     1
 78
     8
170
     0
171
     3
172
     1
173
     0
174
     0
175
     0
176
     0
177
     0
178
     0
270
     2
271
     2
272
     2
273
     2
274
     3
340
11
275
     0
280
     0
281
     0
282
     0
283
     0
284
     8
285
     0
286
     0
287
     3
288
     0
  0
ENDTAB
  0
TABLE
  2
BLOCK_RECORD
  5
1
330
0
100
AcDbSymbolTable
 70
     1
  0
BLOCK_RECORD
  5
1F
330
1
100
AcDbSymbolTableRecord
100
AcDbBlockTableRecord
  2
*MODEL_SPACE
  0
BLOCK_RECORD
  5
1B
330
1
100
AcDbSymbolTableRecord
100
AcDbBlockTableRecord
  2
*PAPER_SPACE
  0
ENDTAB
  0
ENDSEC
  0
SECTION
  2
BLOCKS
  0
BLOCK
  5
20
330
1F
100
AcDbEntity
  8
0
100
AcDbBlockBegin
  2
*MODEL_SPACE
 70
     0
 10
0.0
 20
0.0
 30
0.0
  3
*MODEL_SPACE
  1

  0
ENDBLK
  5
21
330
1F
100
AcDbEntity
  8
0
100
AcDbBlockEnd
  0
BLOCK
  5
1C
330
1B
100
AcDbEntity
 67
     1
  8
0
100
AcDbBlockBegin
  2
*PAPER_SPACE
  1

  0
ENDBLK
  5
1D
330
1B
100
AcDbEntity
 67
     1
  8
0
100
AcDbBlockEnd
  0
ENDSEC
  0
SECTION
  2
ENTITIES
  0
LWPOLYLINE
  5
100
100
AcDbEntity
  8
Layer_1
 62
7
100
AcDbPolyline
 90
34
 70
0
 10
6.542759
 20
2.537277
 30
0.0
 10
6.539995
 20
2.509338
 30
0.0
 10
6.531908
 20
2.482728
 30
0.0
 10
6.518810
 20
2.458194
 30
0.0
 10
6.501009
 20
2.436483
 30
0.0
 10
6.479299
 20
2.418682
 30
0.0
 10
6.454764
 20
2.405584
 30
0.0
 10
6.428154
 20
2.397497
 30
0.0
 10
6.400215
 20
2.394733
 30
0.0
 10
6.372276
 20
2.397497
 30
0.0
 10
6.345666
 20
2.405584
 30
0.0
 10
6.321132
 20
2.418682
 30
0.0
 10
6.299421
 20
2.436483
 30
0.0
 10
6.281620
 20
2.458194
 30
0.0
 10
6.268522
 20
2.482728
 30
0.0
 10
6.260436
 20
2.509338
 30
0.0
 10
6.257671
 20
2.537277
 30
0.0
 10
6.260436
 20
2.565216
 30
0.0
 10
6.268522
 20
2.591826
 30
0.0
 10
6.281620
 20
2.616361
 30
0.0
 10
6.299421
 20
2.638071
 30
0.0
 10
6.321132
 20
2.655872
 30
0.0
 10
6.345666
 20
2.668971
 30
0.0
 10
6.372276
 20
2.677057
 30
0.0
 10
6.400215
 20
2.679821
 30
0.0
 10
6.428154
 20
2.677057
 30
0.0
 10
6.454764
 20
2.668971
 30
0.0
 10
6.479299
 20
2.655872
 30
0.0
 10
6.501009
 20
2.638071
 30
0.0
 10
6.518810
 20
2.616361
 30
0.0
 10
6.531908
 20
2.591826
 30
0.0
 10
6.539995
 20
2.565216
 30
0.0
 10
6.542759
 20
2.537277
 30
0.0
 10
6.542759
 20
2.537277
 30
0.0
  0
LWPOLYLINE
  5
101
100
AcDbEntity
  8
Layer_1
 62
7
100
AcDbPolyline
 90
174
 70
0
 10
2.938915
 20
5.000019
 30
0.0
 10
2.850778
 20
4.995568
 30
0.0
 10
2.765187
 20
4.982505
 30
0.0
 10
2.682574
 20
4.961261
 30
0.0
 10
2.603374
 20
4.932272
 30
0.0
 10
2.456943
 20
4.852790
 30
0.0
 10
2.329362
 20
4.747524
 30
0.0
 10
2.224097
 20
4.619943
 30
0.0
 10
2.144615
 20
4.473512
 30
0.0
 10
2.115626
 20
4.394312
 30
0.0
 10
2.094383
 20
4.311700
 30
0.0
 10
2.081320
 20
4.226109
 30
0.0
 10
2.076869
 20
4.137973
 30
0.0
 10
2.079570
 20
4.069347
 30
0.0
 10
2.020433
 20
4.173965
 30
0.0
 10
1.947780
 20
4.268864
 30
0.0
 10
1.862911
 20
4.352739
 30
0.0
 10
1.767130
 20
4.424287
 30
0.0
 10
1.661739
 20
4.482206
 30
0.0
 10
1.548039
 20
4.525190
 30
0.0
 10
1.427333
 20
4.551936
 30
0.0
 10
1.300923
 20
4.561141
 30
0.0
 10
1.212787
 20
4.556691
 30
0.0
 10
1.127197
 20
4.543627
 30
0.0
 10
1.044585
 20
4.522384
 30
0.0
 10
0.965384
 20
4.493395
 30
0.0
 10
0.818954
 20
4.413912
 30
0.0
 10
0.691372
 20
4.308647
 30
0.0
 10
0.586107
 20
4.181065
 30
0.0
 10
0.506624
 20
4.034635
 30
0.0
 10
0.477635
 20
3.955435
 30
0.0
 10
0.456392
 20
3.872822
 30
0.0
 10
0.443329
 20
3.787232
 30
0.0
 10
0.438878
 20
3.699096
 30
0.0
 10
0.448081
 20
3.572686
 30
0.0
 10
0.474821
 20
3.451980
 30
0.0
 10
0.517797
 20
3.338280
 30
0.0
 10
0.575706
 20
3.232889
 30
0.0
 10
0.647245
 20
3.137108
 30
0.0
 10
0.731111
 20
3.052239
 30
0.0
 10
0.826003
 20
2.979586
 30
0.0
 10
0.930617
 20
2.920449
 30
0.0
 10
0.861991
 20
2.923150
 30
0.0
 10
0.773855
 20
2.918699
 30
0.0
 10
0.688266
 20
2.905636
 30
0.0
 10
0.605657
 20
2.884393
 30
0.0
 10
0.526460
 20
2.855404
 30
0.0
 10
0.380038
 20
2.775922
 30
0.0
 10
0.252467
 20
2.670657
 30
0.0
 10
0.147211
 20
2.543076
 30
0.0
 10
0.067738
 20
2.396645
 30
0.0
 10
0.038752
 20
2.317445
 30
0.0
 10
0.017512
 20
2.234832
 30
0.0
 10
0.004450
 20
2.149241
 30
0.0
 10
0.000000
 20
2.061104
 30
0.0
 10
0.004450
 20
1.972969
 30
0.0
 10
0.017512
 20
1.887380
 30
0.0
 10
0.038752
 20
1.804771
 30
0.0
 10
0.067738
 20
1.725574
 30
0.0
 10
0.147211
 20
1.579152
 30
0.0
 10
0.252467
 20
1.451581
 30
0.0
 10
0.380038
 20
1.346326
 30
0.0
 10
0.526460
 20
1.266852
 30
0.0
 10
0.605657
 20
1.237866
 30
0.0
 10
0.688266
 20
1.216626
 30
0.0
 10
0.773855
 20
1.203564
 30
0.0
 10
0.861991
 20
1.199114
 30
0.0
 10
0.995573
 20
1.209400
 30
0.0
 10
1.122695
 20
1.239232
 30
0.0
 10
1.241807
 20
1.287065
 30
0.0
 10
1.351360
 20
1.351360
 30
0.0
 10
1.287066
 20
1.241816
 30
0.0
 10
1.239232
 20
1.122723
 30
0.0
 10
1.209400
 20
0.995619
 30
0.0
 10
1.199114
 20
0.862046
 30
0.0
 10
1.203564
 20
0.773910
 30
0.0
 10
1.216626
 20
0.688319
 30
0.0
 10
1.237866
 20
0.605707
 30
0.0
 10
1.266852
 20
0.526506
 30
0.0
 10
1.346325
 20
0.380076
 30
0.0
 10
1.451581
 20
0.252494
 30
0.0
 10
1.579152
 20
0.147229
 30
0.0
 10
1.725574
 20
0.067746
 30
0.0
 10
1.804771
 20
0.038757
 30
0.0
 10
1.887380
 20
0.017514
 30
0.0
 10
1.972969
 20
0.004451
 30
0.0
 10
2.061104
 20
-0.000000
 30
0.0
 10
2.149241
 20
0.004451
 30
0.0
 10
2.234830
 20
0.017514
 30
0.0
 10
2.317440
 20
0.038757
 30
0.0
 10
2.396637
 20
0.067746
 30
0.0
 10
2.543059
 20
0.147229
 30
0.0
 10
2.670630
 20
0.252494
 30
0.0
 10
2.775885
 20
0.380076
 30
0.0
 10
2.855358
 20
0.526506
 30
0.0
 10
2.884343
 20
0.605707
 30
0.0
 10
2.905583
 20
0.688319
 30
0.0
 10
2.918645
 20
0.773910
 30
0.0
 10
2.923095
 20
0.862046
 30
0.0
 10
2.920449
 20
0.930672
 30
0.0
 10
2.979586
 20
0.826058
 30
0.0
 10
3.052240
 20
0.731166
 30
0.0
 10
3.137108
 20
0.647300
 30
0.0
 10
3.232889
 20
0.575761
 30
0.0
 10
3.338281
 20
0.517852
 30
0.0
 10
3.451980
 20
0.474877
 30
0.0
 10
3.572686
 20
0.448136
 30
0.0
 10
3.699096
 20
0.438933
 30
0.0
 10
3.787231
 20
0.443383
 30
0.0
 10
3.872820
 20
0.456445
 30
0.0
 10
3.955429
 20
0.477685
 30
0.0
 10
4.034626
 20
0.506671
 30
0.0
 10
4.181047
 20
0.586144
 30
0.0
 10
4.308619
 20
0.691400
 30
0.0
 10
4.413875
 20
0.818971
 30
0.0
 10
4.493348
 20
0.965393
 30
0.0
 10
4.522334
 20
1.044590
 30
0.0
 10
4.543574
 20
1.127199
 30
0.0
 10
4.556636
 20
1.212788
 30
0.0
 10
4.561086
 20
1.300923
 30
0.0
 10
4.551884
 20
1.427333
 30
0.0
 10
4.525143
 20
1.548039
 30
0.0
 10
4.482168
 20
1.661739
 30
0.0
 10
4.424260
 20
1.767130
 30
0.0
 10
4.352721
 20
1.862912
 30
0.0
 10
4.268855
 20
1.947780
 30
0.0
 10
4.173963
 20
2.020434
 30
0.0
 10
4.069347
 20
2.079570
 30
0.0
 10
4.137973
 20
2.076924
 30
0.0
 10
4.226109
 20
2.081374
 30
0.0
 10
4.311700
 20
2.094436
 30
0.0
 10
4.394312
 20
2.115676
 30
0.0
 10
4.473512
 20
2.144661
 30
0.0
 10
4.619942
 20
2.224134
 30
0.0
 10
4.747524
 20
2.329389
 30
0.0
 10
4.852790
 20
2.456960
 30
0.0
 10
4.932273
 20
2.603382
 30
0.0
 10
4.961262
 20
2.682579
 30
0.0
 10
4.982505
 20
2.765189
 30
0.0
 10
4.995568
 20
2.850778
 30
0.0
 10
5.000019
 20
2.938915
 30
0.0
 10
4.995568
 20
3.027050
 30
0.0
 10
4.982505
 20
3.112639
 30
0.0
 10
4.961262
 20
3.195248
 30
0.0
 10
4.932273
 20
3.274445
 30
0.0
 10
4.852790
 20
3.420867
 30
0.0
 10
4.747524
 20
3.548438
 30
0.0
 10
4.619942
 20
3.653694
 30
0.0
 10
4.473512
 20
3.733167
 30
0.0
 10
4.394312
 20
3.762153
 30
0.0
 10
4.311700
 20
3.783393
 30
0.0
 10
4.226109
 20
3.796455
 30
0.0
 10
4.137973
 20
3.800905
 30
0.0
 10
4.004400
 20
3.790619
 30
0.0
 10
3.877297
 20
3.760789
 30
0.0
 10
3.758203
 20
3.712956
 30
0.0
 10
3.648660
 20
3.648660
 30
0.0
 10
3.712956
 20
3.758203
 30
0.0
 10
3.760789
 20
3.877297
 30
0.0
 10
3.790619
 20
4.004400
 30
0.0
 10
3.800905
 20
4.137973
 30
0.0
 10
3.796455
 20
4.226109
 30
0.0
 10
3.783393
 20
4.311700
 30
0.0
 10
3.762152
 20
4.394312
 30
0.0
 10
3.733167
 20
4.473512
 30
0.0
 10
3.653693
 20
4.619942
 30
0.0
 10
3.548438
 20
4.747524
 30
0.0
 10
3.420867
 20
4.852790
 30
0.0
 10
3.274445
 20
4.932272
 30
0.0
 10
3.195249
 20
4.961261
 30
0.0
 10
3.112639
 20
4.982504
 30
0.0
 10
3.027050
 20
4.995568
 30
0.0
 10
2.938915
 20
5.000019
 30
0.0
 10
2.938915
 20
5.000019
 30
0.0
  0
LWPOLYLINE
  5
102
100
AcDbEntity
  8
Layer_1
 62
7
100
AcDbPolyline
 90
34
 70
0
 10
2.939962
 20
4.725238
 30
0.0
 10
3.057498
 20
4.713334
 30
0.0
 10
3.167078
 20
4.679205
 30
0.0
 10
3.266323
 20
4.625231
 30
0.0
 10
3.352856
 20
4.553788
 30
0.0
 10
3.424298
 20
4.467256
 30
0.0
 10
3.478272
 20
4.368011
 30
0.0
 10
3.512401
 20
4.258431
 30
0.0
 10
3.524305
 20
4.140895
 30
0.0
 10
3.512401
 20
4.023359
 30
0.0
 10
3.478272
 20
3.913779
 30
0.0
 10
3.424298
 20
3.814534
 30
0.0
 10
3.352856
 20
3.728001
 30
0.0
 10
3.266323
 20
3.656559
 30
0.0
 10
3.167078
 20
3.602584
 30
0.0
 10
3.057498
 20
3.568456
 30
0.0
 10
2.939962
 20
3.556551
 30
0.0
 10
2.822426
 20
3.568456
 30
0.0
 10
2.712846
 20
3.602584
 30
0.0
 10
2.613601
 20
3.656559
 30
0.0
 10
2.527068
 20
3.728001
 30
0.0
 10
2.455626
 20
3.814534
 30
0.0
 10
2.401652
 20
3.913779
 30
0.0
 10
2.367523
 20
4.023359
 30
0.0
 10
2.355619
 20
4.140895
 30
0.0
 10
2.367523
 20
4.258431
 30
0.0
 10
2.401652
 20
4.368011
 30
0.0
 10
2.455626
 20
4.467256
 30
0.0
 10
2.527068
 20
4.553788
 30
0.0
 10
2.613601
 20
4.625231
 30
0.0
 10
2.712846
 20
4.679205
 30
0.0
 10
2.822426
 20
4.713334
 30
0.0
 10
2.939962
 20
4.725238
 30
0.0
 10
2.939962
 20
4.725238
 30
0.0
  0
LWPOLYLINE
  5
103
100
AcDbEntity
  8
Layer_1
 62
7
100
AcDbPolyline
 90
34
 70
0
 10
2.939962
 20
4.588702
 30
0.0
 10
2.849484
 20
4.579637
 30
0.0
 10
2.765318
 20
4.553624
 30
0.0
 10
2.689238
 20
4.512434
 30
0.0
 10
2.623015
 20
4.457842
 30
0.0
 10
2.568423
 20
4.391619
 30
0.0
 10
2.527233
 20
4.315539
 30
0.0
 10
2.501220
 20
4.231373
 30
0.0
 10
2.492155
 20
4.140895
 30
0.0
 10
2.501220
 20
4.050417
 30
0.0
 10
2.527233
 20
3.966251
 30
0.0
 10
2.568423
 20
3.890170
 30
0.0
 10
2.623015
 20
3.823948
 30
0.0
 10
2.689238
 20
3.769355
 30
0.0
 10
2.765318
 20
3.728166
 30
0.0
 10
2.849484
 20
3.702153
 30
0.0
 10
2.939962
 20
3.693088
 30
0.0
 10
3.030440
 20
3.702153
 30
0.0
 10
3.114606
 20
3.728166
 30
0.0
 10
3.190686
 20
3.769355
 30
0.0
 10
3.256909
 20
3.823948
 30
0.0
 10
3.311501
 20
3.890170
 30
0.0
 10
3.352691
 20
3.966251
 30
0.0
 10
3.378704
 20
4.050417
 30
0.0
 10
3.387769
 20
4.140895
 30
0.0
 10
3.378704
 20
4.231373
 30
0.0
 10
3.352691
 20
4.315539
 30
0.0
 10
3.311501
 20
4.391619
 30
0.0
 10
3.256909
 20
4.457842
 30
0.0
 10
3.190686
 20
4.512434
 30
0.0
 10
3.114606
 20
4.553624
 30
0.0
 10
3.030440
 20
4.579637
 30
0.0
 10
2.939962
 20
4.588702
 30
0.0
 10
2.939962
 20
4.588702
 30
0.0
  0
LWPOLYLINE
  5
104
100
AcDbEntity
  8
Layer_1
 62
7
100
AcDbPolyline
 90
18
 70
0
 10
2.939962
 20
4.347545
 30
0.0
 10
3.019048
 20
4.331821
 30
0.0
 10
3.086093
 20
4.287026
 30
0.0
 10
3.130889
 20
4.219980
 30
0.0
 10
3.146613
 20
4.140895
 30
0.0
 10
3.130889
 20
4.061809
 30
0.0
 10
3.086093
 20
3.994764
 30
0.0
 10
3.019048
 20
3.949968
 30
0.0
 10
2.939962
 20
3.934244
 30
0.0
 10
2.860877
 20
3.949968
 30
0.0
 10
2.793831
 20
3.994764
 30
0.0
 10
2.749036
 20
4.061809
 30
0.0
 10
2.733311
 20
4.140895
 30
0.0
 10
2.749036
 20
4.219980
 30
0.0
 10
2.793831
 20
4.287026
 30
0.0
 10
2.860877
 20
4.331821
 30
0.0
 10
2.939962
 20
4.347545
 30
0.0
 10
2.939962
 20
4.347545
 30
0.0
  0
LWPOLYLINE
  5
105
100
AcDbEntity
  8
Layer_1
 62
7
100
AcDbPolyline
 90
34
 70
0
 10
1.298498
 20
4.264918
 30
0.0
 10
1.411970
 20
4.253483
 30
0.0
 10
1.517659
 20
4.220680
 30
0.0
 10
1.613301
 20
4.168773
 30
0.0
 10
1.696632
 20
4.100025
 30
0.0
 10
1.765388
 20
4.016700
 30
0.0
 10
1.817305
 20
3.921063
 30
0.0
 10
1.850118
 20
3.815378
 30
0.0
 10
1.861564
 20
3.701907
 30
0.0
 10
1.850648
 20
3.591544
 30
0.0
 10
1.818709
 20
3.486428
 30
0.0
 10
1.766968
 20
3.389513
 30
0.0
 10
1.696652
 20
3.303753
 30
0.0
 10
1.610892
 20
3.233437
 30
0.0
 10
1.513977
 20
3.181696
 30
0.0
 10
1.408861
 20
3.149757
 30
0.0
 10
1.298498
 20
3.138841
 30
0.0
 10
1.185027
 20
3.150287
 30
0.0
 10
1.079342
 20
3.183100
 30
0.0
 10
0.983704
 20
3.235017
 30
0.0
 10
0.900380
 20
3.303773
 30
0.0
 10
0.831632
 20
3.387104
 30
0.0
 10
0.779725
 20
3.482746
 30
0.0
 10
0.746922
 20
3.588435
 30
0.0
 10
0.735487
 20
3.701907
 30
0.0
 10
0.746931
 20
3.815370
 30
0.0
 10
0.779741
 20
3.921050
 30
0.0
 10
0.831651
 20
4.016683
 30
0.0
 10
0.900400
 20
4.100005
 30
0.0
 10
0.983722
 20
4.168754
 30
0.0
 10
1.079355
 20
4.220664
 30
0.0
 10
1.185035
 20
4.253474
 30
0.0
 10
1.298498
 20
4.264918
 30
0.0
 10
1.298498
 20
4.264918
 30
0.0
  0
LWPOLYLINE
  5
106
100
AcDbEntity
  8
Layer_1
 62
7
100
AcDbPolyline
 90
18
 70
0
 10
1.298829
 20
3.916550
 30
0.0
 10
1.217005
 20
3.900275
 30
0.0
 10
1.147637
 20
3.853925
 30
0.0
 10
1.101288
 20
3.784558
 30
0.0
 10
1.085012
 20
3.702734
 30
0.0
 10
1.101288
 20
3.620910
 30
0.0
 10
1.147637
 20
3.551543
 30
0.0
 10
1.217005
 20
3.505193
 30
0.0
 10
1.298829
 20
3.488917
 30
0.0
 10
1.380653
 20
3.505193
 30
0.0
 10
1.450020
 20
3.551543
 30
0.0
 10
1.496370
 20
3.620910
 30
0.0
 10
1.512645
 20
3.702734
 30
0.0
 10
1.496370
 20
3.784558
 30
0.0
 10
1.450020
 20
3.853925
 30
0.0
 10
1.380653
 20
3.900275
 30
0.0
 10
1.298829
 20
3.916550
 30
0.0
 10
1.298829
 20
3.916550
 30
0.0
  0
LWPOLYLINE
  5
107
100
AcDbEntity
  8
Layer_1
 62
7
100
AcDbPolyline
 90
34
 70
0
 10
4.137312
 20
3.501209
 30
0.0
 10
4.250784
 20
3.489775
 30
0.0
 10
4.356473
 20
3.456971
 30
0.0
 10
4.452115
 20
3.405064
 30
0.0
 10
4.535446
 20
3.336316
 30
0.0
 10
4.604202
 20
3.252992
 30
0.0
 10
4.656119
 20
3.157355
 30
0.0
 10
4.688933
 20
3.051669
 30
0.0
 10
4.700379
 20
2.938198
 30
0.0
 10
4.689463
 20
2.827835
 30
0.0
 10
4.657523
 20
2.722719
 30
0.0
 10
4.605783
 20
2.625804
 30
0.0
 10
4.535466
 20
2.540045
 30
0.0
 10
4.449706
 20
2.469728
 30
0.0
 10
4.352791
 20
2.417988
 30
0.0
 10
4.247675
 20
2.386048
 30
0.0
 10
4.137312
 20
2.375132
 30
0.0
 10
4.023842
 20
2.386578
 30
0.0
 10
3.918156
 20
2.419391
 30
0.0
 10
3.822519
 20
2.471308
 30
0.0
 10
3.739194
 20
2.540064
 30
0.0
 10
3.670446
 20
2.623395
 30
0.0
 10
3.618539
 20
2.719037
 30
0.0
 10
3.585736
 20
2.824726
 30
0.0
 10
3.574301
 20
2.938198
 30
0.0
 10
3.585745
 20
3.051661
 30
0.0
 10
3.618555
 20
3.157341
 30
0.0
 10
3.670465
 20
3.252974
 30
0.0
 10
3.739214
 20
3.336297
 30
0.0
 10
3.822536
 20
3.405045
 30
0.0
 10
3.918169
 20
3.456956
 30
0.0
 10
4.023849
 20
3.489765
 30
0.0
 10
4.137312
 20
3.501209
 30
0.0
 10
4.137312
 20
3.501209
 30
0.0
  0
LWPOLYLINE
  5
108
100
AcDbEntity
  8
Layer_1
 62
7
100
AcDbPolyline
 90
66
 70
0
 10
2.499982
 20
3.499997
 30
0.0
 10
2.602225
 20
3.494836
 30
0.0
 10
2.701514
 20
3.479684
 30
0.0
 10
2.797347
 20
3.455045
 30
0.0
 10
2.889222
 20
3.421420
 30
0.0
 10
2.976636
 20
3.379313
 30
0.0
 10
3.059086
 20
3.329226
 30
0.0
 10
3.136070
 20
3.271662
 30
0.0
 10
3.207084
 20
3.207123
 30
0.0
 10
3.271627
 20
3.136112
 30
0.0
 10
3.329195
 20
3.059132
 30
0.0
 10
3.379287
 20
2.976684
 30
0.0
 10
3.421399
 20
2.889273
 30
0.0
 10
3.455028
 20
2.797400
 30
0.0
 10
3.479673
 20
2.701568
 30
0.0
 10
3.494830
 20
2.602279
 30
0.0
 10
3.499997
 20
2.500037
 30
0.0
 10
3.495105
 20
2.401197
 30
0.0
 10
3.480607
 20
2.304032
 30
0.0
 10
3.456774
 20
2.209196
 30
0.0
 10
3.423879
 20
2.117346
 30
0.0
 10
3.382193
 20
2.029137
 30
0.0
 10
3.331987
 20
1.945225
 30
0.0
 10
3.273533
 20
1.866266
 30
0.0
 10
3.207104
 20
1.792916
 30
0.0
 10
3.133753
 20
1.726486
 30
0.0
 10
3.054794
 20
1.668032
 30
0.0
 10
2.970882
 20
1.617826
 30
0.0
 10
2.882673
 20
1.576140
 30
0.0
 10
2.790823
 20
1.543245
 30
0.0
 10
2.695987
 20
1.519413
 30
0.0
 10
2.598822
 20
1.504915
 30
0.0
 10
2.499982
 20
1.500022
 30
0.0
 10
2.397740
 20
1.505189
 30
0.0
 10
2.298451
 20
1.520346
 30
0.0
 10
2.202619
 20
1.544991
 30
0.0
 10
2.110746
 20
1.578620
 30
0.0
 10
2.023335
 20
1.620732
 30
0.0
 10
1.940888
 20
1.670824
 30
0.0
 10
1.863907
 20
1.728392
 30
0.0
 10
1.792896
 20
1.792935
 30
0.0
 10
1.728357
 20
1.863950
 30
0.0
 10
1.670793
 20
1.940933
 30
0.0
 10
1.620706
 20
2.023383
 30
0.0
 10
1.578599
 20
2.110797
 30
0.0
 10
1.544974
 20
2.202672
 30
0.0
 10
1.520335
 20
2.298505
 30
0.0
 10
1.505184
 20
2.397795
 30
0.0
 10
1.500022
 20
2.500037
 30
0.0
 10
1.505189
 20
2.602275
 30
0.0
 10
1.520345
 20
2.701560
 30
0.0
 10
1.544988
 20
2.797389
 30
0.0
 10
1.578615
 20
2.889260
 30
0.0
 10
1.620724
 20
2.976669
 30
0.0
 10
1.670812
 20
3.059114
 30
0.0
 10
1.728377
 20
3.136093
 30
0.0
 10
1.792916
 20
3.207104
 30
0.0
 10
1.863926
 20
3.271642
 30
0.0
 10
1.940905
 20
3.329207
 30
0.0
 10
2.023350
 20
3.379295
 30
0.0
 10
2.110760
 20
3.421404
 30
0.0
 10
2.202630
 20
3.455032
 30
0.0
 10
2.298459
 20
3.479674
 30
0.0
 10
2.397744
 20
3.494830
 30
0.0
 10
2.499982
 20
3.499997
 30
0.0
 10
2.499982
 20
3.499997
 30
0.0
  0
LWPOLYLINE
  5
109
100
AcDbEntity
  8
Layer_1
 62
7
100
AcDbPolyline
 90
18
 70
0
 10
4.138139
 20
3.151574
 30
0.0
 10
4.056315
 20
3.135298
 30
0.0
 10
3.986948
 20
3.088948
 30
0.0
 10
3.940598
 20
3.019581
 30
0.0
 10
3.924322
 20
2.937757
 30
0.0
 10
3.940598
 20
2.855933
 30
0.0
 10
3.986948
 20
2.786566
 30
0.0
 10
4.056315
 20
2.740216
 30
0.0
 10
4.138139
 20
2.723941
 30
0.0
 10
4.219963
 20
2.740216
 30
0.0
 10
4.289330
 20
2.786566
 30
0.0
 10
4.335680
 20
2.855933
 30
0.0
 10
4.351955
 20
2.937757
 30
0.0
 10
4.335680
 20
3.019581
 30
0.0
 10
4.289330
 20
3.088948
 30
0.0
 10
4.219963
 20
3.135298
 30
0.0
 10
4.138139
 20
3.151574
 30
0.0
 10
4.138139
 20
3.151574
 30
0.0
  0
LWPOLYLINE
  5
10a
100
AcDbEntity
  8
Layer_1
 62
7
100
AcDbPolyline
 90
34
 70
0
 10
0.864306
 20
2.645613
 30
0.0
 10
0.981842
 20
2.633706
 30
0.0
 10
1.091421
 20
2.599572
 30
0.0
 10
1.190667
 20
2.545588
 30
0.0
 10
1.277199
 20
2.474136
 30
0.0
 10
1.348642
 20
2.387593
 30
0.0
 10
1.402616
 20
2.288339
 30
0.0
 10
1.436744
 20
2.178753
 30
0.0
 10
1.448649
 20
2.061215
 30
0.0
 10
1.436744
 20
1.943678
 30
0.0
 10
1.402616
 20
1.834099
 30
0.0
 10
1.348642
 20
1.734854
 30
0.0
 10
1.277199
 20
1.648321
 30
0.0
 10
1.190667
 20
1.576879
 30
0.0
 10
1.091421
 20
1.522904
 30
0.0
 10
0.981842
 20
1.488776
 30
0.0
 10
0.864306
 20
1.476871
 30
0.0
 10
0.746769
 20
1.488776
 30
0.0
 10
0.637190
 20
1.522904
 30
0.0
 10
0.537945
 20
1.576879
 30
0.0
 10
0.451412
 20
1.648321
 30
0.0
 10
0.379970
 20
1.734854
 30
0.0
 10
0.325995
 20
1.834099
 30
0.0
 10
0.291867
 20
1.943678
 30
0.0
 10
0.279962
 20
2.061215
 30
0.0
 10
0.291867
 20
2.178753
 30
0.0
 10
0.325995
 20
2.288339
 30
0.0
 10
0.379970
 20
2.387593
 30
0.0
 10
0.451412
 20
2.474136
 30
0.0
 10
0.537945
 20
2.545588
 30
0.0
 10
0.637190
 20
2.599572
 30
0.0
 10
0.746769
 20
2.633706
 30
0.0
 10
0.864306
 20
2.645613
 30
0.0
 10
0.864306
 20
2.645613
 30
0.0
  0
LWPOLYLINE
  5
10b
100
AcDbEntity
  8
Layer_1
 62
7
100
AcDbPolyline
 90
34
 70
0
 10
0.864306
 20
2.509022
 30
0.0
 10
0.773828
 20
2.499957
 30
0.0
 10
0.689662
 20
2.473943
 30
0.0
 10
0.613581
 20
2.432754
 30
0.0
 10
0.547359
 20
2.378161
 30
0.0
 10
0.492766
 20
2.311939
 30
0.0
 10
0.451577
 20
2.235858
 30
0.0
 10
0.425563
 20
2.151693
 30
0.0
 10
0.416498
 20
2.061215
 30
0.0
 10
0.425563
 20
1.970739
 30
0.0
 10
0.451577
 20
1.886579
 30
0.0
 10
0.492766
 20
1.810508
 30
0.0
 10
0.547359
 20
1.744295
 30
0.0
 10
0.613581
 20
1.689713
 30
0.0
 10
0.689662
 20
1.648532
 30
0.0
 10
0.773828
 20
1.622525
 30
0.0
 10
0.864306
 20
1.613463
 30
0.0
 10
0.954784
 20
1.622525
 30
0.0
 10
1.038949
 20
1.648532
 30
0.0
 10
1.115030
 20
1.689713
 30
0.0
 10
1.181253
 20
1.744295
 30
0.0
 10
1.235845
 20
1.810508
 30
0.0
 10
1.277034
 20
1.886579
 30
0.0
 10
1.303048
 20
1.970739
 30
0.0
 10
1.312113
 20
2.061215
 30
0.0
 10
1.303048
 20
2.151693
 30
0.0
 10
1.277034
 20
2.235858
 30
0.0
 10
1.235845
 20
2.311939
 30
0.0
 10
1.181253
 20
2.378161
 30
0.0
 10
1.115030
 20
2.432754
 30
0.0
 10
1.038949
 20
2.473943
 30
0.0
 10
0.954784
 20
2.499957
 30
0.0
 10
0.864306
 20
2.509022
 30
0.0
 10
0.864306
 20
2.509022
 30
0.0
  0
LWPOLYLINE
  5
10c
100
AcDbEntity
  8
Layer_1
 62
7
100
AcDbPolyline
 90
22
 70
0
 10
0.864306
 20
2.267865
 30
0.0
 10
0.943391
 20
2.252141
 30
0.0
 10
1.010437
 20
2.207346
 30
0.0
 10
1.055232
 20
2.140300
 30
0.0
 10
1.070956
 20
2.061215
 30
0.0
 10
1.066752
 20
2.019574
 30
0.0
 10
1.054707
 20
1.980790
 30
0.0
 10
1.010417
 20
1.915119
 30
0.0
 10
0.944734
 20
1.870847
 30
0.0
 10
0.905948
 20
1.858812
 30
0.0
 10
0.864306
 20
1.854619
 30
0.0
 10
0.822664
 20
1.858812
 30
0.0
 10
0.783877
 20
1.870847
 30
0.0
 10
0.718194
 20
1.915119
 30
0.0
 10
0.673904
 20
1.980790
 30
0.0
 10
0.661859
 20
2.019574
 30
0.0
 10
0.657655
 20
2.061215
 30
0.0
 10
0.673379
 20
2.140300
 30
0.0
 10
0.718175
 20
2.207346
 30
0.0
 10
0.785220
 20
2.252141
 30
0.0
 10
0.864306
 20
2.267865
 30
0.0
 10
0.864306
 20
2.267865
 30
0.0
  0
LWPOLYLINE
  5
10d
100
AcDbEntity
  8
Layer_1
 62
7
100
AcDbPolyline
 90
34
 70
0
 10
3.704167
 20
1.882070
 30
0.0
 10
3.821703
 20
1.870165
 30
0.0
 10
3.931283
 20
1.836037
 30
0.0
 10
4.030528
 20
1.782062
 30
0.0
 10
4.117061
 20
1.710620
 30
0.0
 10
4.188503
 20
1.624087
 30
0.0
 10
4.242478
 20
1.524842
 30
0.0
 10
4.276606
 20
1.415263
 30
0.0
 10
4.288511
 20
1.297726
 30
0.0
 10
4.276606
 20
1.180190
 30
0.0
 10
4.242478
 20
1.070611
 30
0.0
 10
4.188503
 20
0.971366
 30
0.0
 10
4.117061
 20
0.884833
 30
0.0
 10
4.030528
 20
0.813390
 30
0.0
 10
3.931283
 20
0.759416
 30
0.0
 10
3.821703
 20
0.725288
 30
0.0
 10
3.704167
 20
0.713383
 30
0.0
 10
3.586631
 20
0.725288
 30
0.0
 10
3.477051
 20
0.759416
 30
0.0
 10
3.377806
 20
0.813390
 30
0.0
 10
3.291273
 20
0.884833
 30
0.0
 10
3.219831
 20
0.971366
 30
0.0
 10
3.165857
 20
1.070611
 30
0.0
 10
3.131728
 20
1.180190
 30
0.0
 10
3.119824
 20
1.297726
 30
0.0
 10
3.131728
 20
1.415263
 30
0.0
 10
3.165857
 20
1.524842
 30
0.0
 10
3.219831
 20
1.624087
 30
0.0
 10
3.291273
 20
1.710620
 30
0.0
 10
3.377806
 20
1.782062
 30
0.0
 10
3.477051
 20
1.836037
 30
0.0
 10
3.586631
 20
1.870165
 30
0.0
 10
3.704167
 20
1.882070
 30
0.0
 10
3.704167
 20
1.882070
 30
0.0
  0
LWPOLYLINE
  5
10e
100
AcDbEntity
  8
Layer_1
 62
7
100
AcDbPolyline
 90
34
 70
0
 10
3.704167
 20
1.745534
 30
0.0
 10
3.613689
 20
1.736468
 30
0.0
 10
3.529523
 20
1.710455
 30
0.0
 10
3.453443
 20
1.669266
 30
0.0
 10
3.387220
 20
1.614673
 30
0.0
 10
3.332628
 20
1.548451
 30
0.0
 10
3.291438
 20
1.472370
 30
0.0
 10
3.265425
 20
1.388205
 30
0.0
 10
3.256360
 20
1.297726
 30
0.0
 10
3.265425
 20
1.207249
 30
0.0
 10
3.291438
 20
1.123083
 30
0.0
 10
3.332628
 20
1.047002
 30
0.0
 10
3.387220
 20
0.980780
 30
0.0
 10
3.453443
 20
0.926187
 30
0.0
 10
3.529523
 20
0.884998
 30
0.0
 10
3.613689
 20
0.858984
 30
0.0
 10
3.704167
 20
0.849919
 30
0.0
 10
3.794645
 20
0.858984
 30
0.0
 10
3.878811
 20
0.884998
 30
0.0
 10
3.954891
 20
0.926187
 30
0.0
 10
4.021114
 20
0.980780
 30
0.0
 10
4.075707
 20
1.047002
 30
0.0
 10
4.116896
 20
1.123083
 30
0.0
 10
4.142909
 20
1.207249
 30
0.0
 10
4.151975
 20
1.297726
 30
0.0
 10
4.142909
 20
1.388205
 30
0.0
 10
4.116896
 20
1.472370
 30
0.0
 10
4.075707
 20
1.548451
 30
0.0
 10
4.021114
 20
1.614673
 30
0.0
 10
3.954891
 20
1.669266
 30
0.0
 10
3.878811
 20
1.710455
 30
0.0
 10
3.794645
 20
1.736468
 30
0.0
 10
3.704167
 20
1.745534
 30
0.0
 10
3.704167
 20
1.745534
 30
0.0
  0
LWPOLYLINE
  5
10f
100
AcDbEntity
  8
Layer_1
 62
7
100
AcDbPolyline
 90
22
 70
0
 10
3.704167
 20
1.504322
 30
0.0
 10
3.745809
 20
1.500129
 30
0.0
 10
3.784596
 20
1.488094
 30
0.0
 10
3.850279
 20
1.443822
 30
0.0
 10
3.894569
 20
1.378151
 30
0.0
 10
3.906614
 20
1.339367
 30
0.0
 10
3.910818
 20
1.297726
 30
0.0
 10
3.895094
 20
1.218641
 30
0.0
 10
3.850298
 20
1.151595
 30
0.0
 10
3.783253
 20
1.106800
 30
0.0
 10
3.704167
 20
1.091076
 30
0.0
 10
3.625082
 20
1.106800
 30
0.0
 10
3.558036
 20
1.151595
 30
0.0
 10
3.513240
 20
1.218641
 30
0.0
 10
3.497516
 20
1.297726
 30
0.0
 10
3.501720
 20
1.339367
 30
0.0
 10
3.513766
 20
1.378151
 30
0.0
 10
3.558056
 20
1.443822
 30
0.0
 10
3.623739
 20
1.488094
 30
0.0
 10
3.662525
 20
1.500129
 30
0.0
 10
3.704167
 20
1.504322
 30
0.0
 10
3.704167
 20
1.504322
 30
0.0
  0
LWPOLYLINE
  5
110
100
AcDbEntity
  8
Layer_1
 62
7
100
AcDbPolyline
 90
34
 70
0
 10
2.061270
 20
1.424285
 30
0.0
 10
2.171633
 20
1.413369
 30
0.0
 10
2.276749
 20
1.381429
 30
0.0
 10
2.373664
 20
1.329689
 30
0.0
 10
2.459423
 20
1.259372
 30
0.0
 10
2.529740
 20
1.173613
 30
0.0
 10
2.581480
 20
1.076698
 30
0.0
 10
2.613420
 20
0.971582
 30
0.0
 10
2.624336
 20
0.861219
 30
0.0
 10
2.613420
 20
0.750856
 30
0.0
 10
2.581480
 20
0.645740
 30
0.0
 10
2.529740
 20
0.548825
 30
0.0
 10
2.459423
 20
0.463065
 30
0.0
 10
2.373664
 20
0.392749
 30
0.0
 10
2.276749
 20
0.341008
 30
0.0
 10
2.171633
 20
0.309069
 30
0.0
 10
2.061270
 20
0.298153
 30
0.0
 10
1.947799
 20
0.309599
 30
0.0
 10
1.842113
 20
0.342412
 30
0.0
 10
1.746476
 20
0.394329
 30
0.0
 10
1.663152
 20
0.463085
 30
0.0
 10
1.594404
 20
0.546416
 30
0.0
 10
1.542496
 20
0.642058
 30
0.0
 10
1.509693
 20
0.747747
 30
0.0
 10
1.498258
 20
0.861219
 30
0.0
 10
1.509693
 20
0.974691
 30
0.0
 10
1.542496
 20
1.080380
 30
0.0
 10
1.594404
 20
1.176022
 30
0.0
 10
1.663152
 20
1.259353
 30
0.0
 10
1.746476
 20
1.328109
 30
0.0
 10
1.842113
 20
1.380026
 30
0.0
 10
1.947799
 20
1.412839
 30
0.0
 10
2.061270
 20
1.424285
 30
0.0
 10
2.061270
 20
1.424285
 30
0.0
  0
LWPOLYLINE
  5
111
100
AcDbEntity
  8
Layer_1
 62
7
100
AcDbPolyline
 90
18
 70
0
 10
2.061821
 20
1.074925
 30
0.0
 10
1.979997
 20
1.058650
 30
0.0
 10
1.910630
 20
1.012300
 30
0.0
 10
1.864280
 20
0.942933
 30
0.0
 10
1.848005
 20
0.861109
 30
0.0
 10
1.864280
 20
0.779284
 30
0.0
 10
1.910630
 20
0.709917
 30
0.0
 10
1.979997
 20
0.663568
 30
0.0
 10
2.061821
 20
0.647292
 30
0.0
 10
2.143645
 20
0.663568
 30
0.0
 10
2.213012
 20
0.709917
 30
0.0
 10
2.259362
 20
0.779284
 30
0.0
 10
2.275637
 20
0.861109
 30
0.0
 10
2.259362
 20
0.942933
 30
0.0
 10
2.213012
 20
1.012300
 30
0.0
 10
2.143645
 20
1.058650
 30
0.0
 10
2.061821
 20
1.074925
 30
0.0
 10
2.061821
 20
1.074925
 30
0.0
  0
ENDSEC
  0
SECTION
  2
OBJECTS
  0
DICTIONARY
  5
C
330
0
100
AcDbDictionary
  3
ACAD_GROUP
350
D
  3
ACAD_MLINESTYLE
350
17
  0
DICTIONARY
  5
D
330
C
100
AcDbDictionary
  0
DICTIONARY
  5
1A
330
C
100
AcDbDictionary
  0
DICTIONARY
  5
17
330
C
100
AcDbDictionary
  3
STANDARD
350
18
  0
DICTIONARY
  5
19
330
C
100
AcDbDictionary
  0
ENDSEC
  0
EOF
