  0
SECTION
  2
HEADER
  9
$ACADVER
  1
AC1014
  9
$HANDSEED
  5
FFFF
  9
$MEASUREMENT
 70
     1
  0
ENDSEC
  0
SECTION
  2
TABLES
  0
TABLE
  2
VPORT
  5
8
330
0
100
AcDbSymbolTable
 70
     4
  0
VPORT
  5
2E
330
8
100
AcDbSymbolTableRecord
100
AcDbViewportTableRecord
  2
*ACTIVE
 70
     0
 10
0.0
 20
0.0
 11
1.0
 21
1.0
 12
210.0
 22
148.5
 13
0.0
 23
0.0
 14
10.0
 24
10.0
 15
10.0
 25
10.0
 16
0.0
 26
0.0
 36
1.0
 17
0.0
 27
0.0
 37
0.0
 40
341.0
 41
1.24
 42
50.0
 43
0.0
 44
0.0
 50
0.0
 51
0.0
 71
     0
 72
   100
 73
     1
 74
     3
 75
     0
 76
     0
 77
     0
 78
     0
  0
ENDTAB
  0
TABLE
  2
LTYPE
  5
5
330
0
100
AcDbSymbolTable
 70
     1
  0
LTYPE
  5
14
330
5
100
AcDbSymbolTableRecord
100
AcDbLinetypeTableRecord
  2
BYBLOCK
 70
     0
  3

 72
    65
 73
     0
 40
0.0
  0
LTYPE
  5
15
330
5
100
AcDbSymbolTableRecord
100
AcDbLinetypeTableRecord
  2
BYLAYER
 70
     0
  3

 72
    65
 73
     0
 40
0.0
  0
LTYPE
  5
16
330
5
100
AcDbSymbolTableRecord
100
AcDbLinetypeTableRecord
  2
CONTINUOUS
 70
     0
  3
Solid line
 72
    65
 73
     0
 40
0.0
  0
ENDTAB
  0
TABLE
  2
LAYER
  5
2
100
AcDbSymbolTable
 70
2
  0
LAYER
  5
50
100
AcDbSymbolTableRecord
100
AcDbLayerTableRecord
  2
0
 70
0
  6
CONTINUOUS
  0
LAYER
  5
51
100
AcDbSymbolTableRecord
100
AcDbLayerTableRecord
  2
Layer_1
 70
0
  6
CONTINUOUS
  0
ENDTAB
  0
TABLE
  2
STYLE
  5
3
330
0
100
AcDbSymbolTable
 70
     1
  0
STYLE
  5
11
330
3
100
AcDbSymbolTableRecord
100
AcDbTextStyleTableRecord
  2
STANDARD
 70
     0
 40
0.0
 41
1.0
 50
0.0
 71
     0
 42
2.5
  3
txt
  4

  0
ENDTAB
  0
TABLE
  2
VIEW
  5
6
330
0
100
AcDbSymbolTable
 70
     0
  0
ENDTAB
  0
TABLE
  2
UCS
  5
7
330
0
100
AcDbSymbolTable
 70
     0
  0
ENDTAB
  0
TABLE
  2
APPID
  5
9
330
0
100
AcDbSymbolTable
 70
     2
  0
APPID
  5
12
330
9
100
AcDbSymbolTableRecord
100
AcDbRegAppTableRecord
  2
ACAD
 70
     0
  0
ENDTAB
  0
TABLE
  2
DIMSTYLE
  5
A
330
0
100
AcDbSymbolTable
 70
     1
  0
DIMSTYLE
105
27
330
A
100
AcDbSymbolTableRecord
100
AcDbDimStyleTableRecord
  2
ISO-25
 70
     0
  3

  4

  5

  6

  7

 40
1.0
 41
2.5
 42
0.625
 43
3.75
 44
1.25
 45
0.0
 46
0.0
 47
0.0
 48
0.0
140
2.5
141
2.5
142
0.0
143
0.03937007874016
144
1.0
145
0.0
146
1.0
147
0.625
 71
     0
 72
     0
 73
     0
 74
     0
 75
     0
 76
     0
 77
     1
 78
     8
170
     0
171
     3
172
     1
173
     0
174
     0
175
     0
176
     0
177
     0
178
     0
270
     2
271
     2
272
     2
273
     2
274
     3
340
11
275
     0
280
     0
281
     0
282
     0
283
     0
284
     8
285
     0
286
     0
287
     3
288
     0
  0
ENDTAB
  0
TABLE
  2
BLOCK_RECORD
  5
1
330
0
100
AcDbSymbolTable
 70
     1
  0
BLOCK_RECORD
  5
1F
330
1
100
AcDbSymbolTableRecord
100
AcDbBlockTableRecord
  2
*MODEL_SPACE
  0
BLOCK_RECORD
  5
1B
330
1
100
AcDbSymbolTableRecord
100
AcDbBlockTableRecord
  2
*PAPER_SPACE
  0
ENDTAB
  0
ENDSEC
  0
SECTION
  2
BLOCKS
  0
BLOCK
  5
20
330
1F
100
AcDbEntity
  8
0
100
AcDbBlockBegin
  2
*MODEL_SPACE
 70
     0
 10
0.0
 20
0.0
 30
0.0
  3
*MODEL_SPACE
  1

  0
ENDBLK
  5
21
330
1F
100
AcDbEntity
  8
0
100
AcDbBlockEnd
  0
BLOCK
  5
1C
330
1B
100
AcDbEntity
 67
     1
  8
0
100
AcDbBlockBegin
  2
*PAPER_SPACE
  1

  0
ENDBLK
  5
1D
330
1B
100
AcDbEntity
 67
     1
  8
0
100
AcDbBlockEnd
  0
ENDSEC
  0
SECTION
  2
ENTITIES
  0
LWPOLYLINE
  5
100
100
AcDbEntity
  8
Layer_1
 62
7
100
AcDbPolyline
 90
559
 70
1
 10
0.000000
 20
3.570001
 30
0.0
 10
0.000000
 20
3.499997
 30
0.0
 10
0.000000
 20
3.485004
 30
0.0
 10
0.000000
 20
3.200026
 30
0.0
 10
0.070004
 20
3.200026
 30
0.0
 10
0.100046
 20
3.200026
 30
0.0
 10
0.370031
 20
3.200026
 30
0.0
 10
0.370031
 20
3.470011
 30
0.0
 10
0.200036
 20
3.470011
 30
0.0
 10
0.200036
 20
3.385013
 30
0.0
 10
0.200036
 20
3.370020
 30
0.0
 10
0.170050
 20
3.370020
 30
0.0
 10
0.170050
 20
3.385013
 30
0.0
 10
0.170050
 20
3.499997
 30
0.0
 10
0.400017
 20
3.499997
 30
0.0
 10
0.400017
 20
3.169984
 30
0.0
 10
0.100046
 20
3.169984
 30
0.0
 10
0.100046
 20
3.099980
 30
0.0
 10
0.100046
 20
3.084987
 30
0.0
 10
0.100046
 20
2.800009
 30
0.0
 10
0.370031
 20
2.800009
 30
0.0
 10
0.370031
 20
2.970003
 30
0.0
 10
0.285033
 20
2.970003
 30
0.0
 10
0.270040
 20
2.970003
 30
0.0
 10
0.270040
 20
2.999989
 30
0.0
 10
0.285033
 20
2.999989
 30
0.0
 10
0.400017
 20
2.999989
 30
0.0
 10
0.400017
 20
2.770022
 30
0.0
 10
0.070004
 20
2.770022
 30
0.0
 10
0.070004
 20
3.069994
 30
0.0
 10
0.070004
 20
3.084987
 30
0.0
 10
0.070004
 20
3.099980
 30
0.0
 10
0.070004
 20
3.169984
 30
0.0
 10
0.000000
 20
3.169984
 30
0.0
 10
0.000000
 20
2.600028
 30
0.0
 10
0.000000
 20
2.584979
 30
0.0
 10
0.000000
 20
2.300001
 30
0.0
 10
0.070004
 20
2.300001
 30
0.0
 10
0.100046
 20
2.300001
 30
0.0
 10
0.370031
 20
2.300001
 30
0.0
 10
0.370031
 20
2.569986
 30
0.0
 10
0.200036
 20
2.569986
 30
0.0
 10
0.200036
 20
2.484989
 30
0.0
 10
0.200036
 20
2.469996
 30
0.0
 10
0.170050
 20
2.469996
 30
0.0
 10
0.170050
 20
2.484989
 30
0.0
 10
0.170050
 20
2.600028
 30
0.0
 10
0.400017
 20
2.600028
 30
0.0
 10
0.400017
 20
2.270015
 30
0.0
 10
0.100046
 20
2.270015
 30
0.0
 10
0.100046
 20
2.200011
 30
0.0
 10
0.100046
 20
2.185018
 30
0.0
 10
0.100046
 20
1.899984
 30
0.0
 10
0.370031
 20
1.899984
 30
0.0
 10
0.370031
 20
2.069979
 30
0.0
 10
0.285033
 20
2.069979
 30
0.0
 10
0.270040
 20
2.069979
 30
0.0
 10
0.270040
 20
2.100020
 30
0.0
 10
0.285033
 20
2.100020
 30
0.0
 10
0.400017
 20
2.100020
 30
0.0
 10
0.400017
 20
1.869998
 30
0.0
 10
0.070004
 20
1.869998
 30
0.0
 10
0.070004
 20
2.170025
 30
0.0
 10
0.070004
 20
2.185018
 30
0.0
 10
0.070004
 20
2.270015
 30
0.0
 10
0.000000
 20
2.270015
 30
0.0
 10
0.000000
 20
1.700003
 30
0.0
 10
0.000000
 20
1.685010
 30
0.0
 10
0.000000
 20
1.400032
 30
0.0
 10
0.070004
 20
1.400032
 30
0.0
 10
0.100046
 20
1.400032
 30
0.0
 10
0.370031
 20
1.400032
 30
0.0
 10
0.370031
 20
1.670017
 30
0.0
 10
0.200036
 20
1.670017
 30
0.0
 10
0.200036
 20
1.585020
 30
0.0
 10
0.200036
 20
1.570027
 30
0.0
 10
0.170050
 20
1.570027
 30
0.0
 10
0.170050
 20
1.585020
 30
0.0
 10
0.170050
 20
1.700003
 30
0.0
 10
0.400017
 20
1.700003
 30
0.0
 10
0.400017
 20
1.369991
 30
0.0
 10
0.100046
 20
1.369991
 30
0.0
 10
0.100046
 20
1.299986
 30
0.0
 10
0.100046
 20
1.284993
 30
0.0
 10
0.100046
 20
1.000015
 30
0.0
 10
0.370031
 20
1.000015
 30
0.0
 10
0.370031
 20
1.170010
 30
0.0
 10
0.285033
 20
1.170010
 30
0.0
 10
0.270040
 20
1.170010
 30
0.0
 10
0.270040
 20
1.199996
 30
0.0
 10
0.285033
 20
1.199996
 30
0.0
 10
0.400017
 20
1.199996
 30
0.0
 10
0.400017
 20
0.970029
 30
0.0
 10
0.070004
 20
0.970029
 30
0.0
 10
0.070004
 20
1.270000
 30
0.0
 10
0.070004
 20
1.284993
 30
0.0
 10
0.070004
 20
1.369991
 30
0.0
 10
0.000000
 20
1.369991
 30
0.0
 10
0.000000
 20
0.799979
 30
0.0
 10
0.000000
 20
0.784986
 30
0.0
 10
0.000000
 20
0.500008
 30
0.0
 10
0.070004
 20
0.500008
 30
0.0
 10
0.100046
 20
0.500008
 30
0.0
 10
0.370031
 20
0.500008
 30
0.0
 10
0.370031
 20
0.769993
 30
0.0
 10
0.200036
 20
0.769993
 30
0.0
 10
0.200036
 20
0.684996
 30
0.0
 10
0.200036
 20
0.670002
 30
0.0
 10
0.170050
 20
0.670002
 30
0.0
 10
0.170050
 20
0.684996
 30
0.0
 10
0.170050
 20
0.799979
 30
0.0
 10
0.400017
 20
0.799979
 30
0.0
 10
0.400017
 20
0.470022
 30
0.0
 10
0.100046
 20
0.470022
 30
0.0
 10
0.100046
 20
0.400017
 30
0.0
 10
0.100046
 20
0.385024
 30
0.0
 10
0.100046
 20
0.099991
 30
0.0
 10
0.370031
 20
0.099991
 30
0.0
 10
0.370031
 20
0.269986
 30
0.0
 10
0.285033
 20
0.269986
 30
0.0
 10
0.270040
 20
0.269986
 30
0.0
 10
0.270040
 20
0.300027
 30
0.0
 10
0.285033
 20
0.300027
 30
0.0
 10
0.400017
 20
0.300027
 30
0.0
 10
0.400017
 20
0.070005
 30
0.0
 10
0.070004
 20
0.070005
 30
0.0
 10
0.070004
 20
0.370031
 30
0.0
 10
0.070004
 20
0.385024
 30
0.0
 10
0.070004
 20
0.470022
 30
0.0
 10
0.000000
 20
0.470022
 30
0.0
 10
0.000000
 20
0.000000
 30
0.0
 10
0.070004
 20
0.000000
 30
0.0
 10
0.470021
 20
0.000000
 30
0.0
 10
0.470021
 20
0.370031
 30
0.0
 10
0.200036
 20
0.370031
 30
0.0
 10
0.200036
 20
0.199981
 30
0.0
 10
0.285033
 20
0.199981
 30
0.0
 10
0.300026
 20
0.199981
 30
0.0
 10
0.300026
 20
0.169995
 30
0.0
 10
0.285033
 20
0.169995
 30
0.0
 10
0.170050
 20
0.169995
 30
0.0
 10
0.170050
 20
0.400017
 30
0.0
 10
0.500007
 20
0.400017
 30
0.0
 10
0.500007
 20
0.000000
 30
0.0
 10
0.870038
 20
0.000000
 30
0.0
 10
0.870038
 20
0.269986
 30
0.0
 10
0.700043
 20
0.269986
 30
0.0
 10
0.700043
 20
0.184988
 30
0.0
 10
0.700043
 20
0.169995
 30
0.0
 10
0.670002
 20
0.169995
 30
0.0
 10
0.670002
 20
0.184988
 30
0.0
 10
0.670002
 20
0.300027
 30
0.0
 10
0.900024
 20
0.300027
 30
0.0
 10
0.900024
 20
0.000000
 30
0.0
 10
0.970029
 20
0.000000
 30
0.0
 10
1.370046
 20
0.000000
 30
0.0
 10
1.370046
 20
0.370031
 30
0.0
 10
1.100005
 20
0.370031
 30
0.0
 10
1.100005
 20
0.199981
 30
0.0
 10
1.185003
 20
0.199981
 30
0.0
 10
1.200051
 20
0.199981
 30
0.0
 10
1.200051
 20
0.169995
 30
0.0
 10
1.185003
 20
0.169995
 30
0.0
 10
1.070019
 20
0.169995
 30
0.0
 10
1.070019
 20
0.400017
 30
0.0
 10
1.400032
 20
0.400017
 30
0.0
 10
1.400032
 20
0.000000
 30
0.0
 10
1.770007
 20
0.000000
 30
0.0
 10
1.770007
 20
0.269986
 30
0.0
 10
1.600013
 20
0.269986
 30
0.0
 10
1.600013
 20
0.184988
 30
0.0
 10
1.600013
 20
0.169995
 30
0.0
 10
1.570026
 20
0.169995
 30
0.0
 10
1.570026
 20
0.184988
 30
0.0
 10
1.570026
 20
0.300027
 30
0.0
 10
1.800049
 20
0.300027
 30
0.0
 10
1.800049
 20
0.000000
 30
0.0
 10
1.870053
 20
0.000000
 30
0.0
 10
2.270015
 20
0.000000
 30
0.0
 10
2.270015
 20
0.370031
 30
0.0
 10
2.000030
 20
0.370031
 30
0.0
 10
2.000030
 20
0.199981
 30
0.0
 10
2.085027
 20
0.199981
 30
0.0
 10
2.100020
 20
0.199981
 30
0.0
 10
2.100020
 20
0.169995
 30
0.0
 10
2.085027
 20
0.169995
 30
0.0
 10
1.970043
 20
0.169995
 30
0.0
 10
1.970043
 20
0.400017
 30
0.0
 10
2.300001
 20
0.400017
 30
0.0
 10
2.300001
 20
0.000000
 30
0.0
 10
2.670032
 20
0.000000
 30
0.0
 10
2.670032
 20
0.269986
 30
0.0
 10
2.500037
 20
0.269986
 30
0.0
 10
2.500037
 20
0.184988
 30
0.0
 10
2.500037
 20
0.169995
 30
0.0
 10
2.470051
 20
0.169995
 30
0.0
 10
2.470051
 20
0.184988
 30
0.0
 10
2.470051
 20
0.300027
 30
0.0
 10
2.700018
 20
0.300027
 30
0.0
 10
2.700018
 20
0.000000
 30
0.0
 10
2.770022
 20
0.000000
 30
0.0
 10
3.170039
 20
0.000000
 30
0.0
 10
3.170039
 20
0.370031
 30
0.0
 10
2.899999
 20
0.370031
 30
0.0
 10
2.899999
 20
0.199981
 30
0.0
 10
2.985051
 20
0.199981
 30
0.0
 10
3.000044
 20
0.199981
 30
0.0
 10
3.000044
 20
0.169995
 30
0.0
 10
2.985051
 20
0.169995
 30
0.0
 10
2.870013
 20
0.169995
 30
0.0
 10
2.870013
 20
0.400017
 30
0.0
 10
3.200025
 20
0.400017
 30
0.0
 10
3.200025
 20
0.000000
 30
0.0
 10
3.570001
 20
0.000000
 30
0.0
 10
3.570001
 20
0.269986
 30
0.0
 10
3.400006
 20
0.269986
 30
0.0
 10
3.400006
 20
0.184988
 30
0.0
 10
3.400006
 20
0.169995
 30
0.0
 10
3.370020
 20
0.169995
 30
0.0
 10
3.370020
 20
0.184988
 30
0.0
 10
3.370020
 20
0.300027
 30
0.0
 10
3.570001
 20
0.300027
 30
0.0
 10
3.570001
 20
0.370031
 30
0.0
 10
3.300016
 20
0.370031
 30
0.0
 10
3.300016
 20
0.099991
 30
0.0
 10
3.470011
 20
0.099991
 30
0.0
 10
3.470011
 20
0.184988
 30
0.0
 10
3.470011
 20
0.199981
 30
0.0
 10
3.500052
 20
0.199981
 30
0.0
 10
3.500052
 20
0.184988
 30
0.0
 10
3.500052
 20
0.070005
 30
0.0
 10
3.270030
 20
0.070005
 30
0.0
 10
3.270030
 20
0.370031
 30
0.0
 10
3.270030
 20
0.385024
 30
0.0
 10
3.270030
 20
0.400017
 30
0.0
 10
3.285023
 20
0.400017
 30
0.0
 10
3.300016
 20
0.400017
 30
0.0
 10
3.570001
 20
0.400017
 30
0.0
 10
3.570001
 20
0.485015
 30
0.0
 10
3.570001
 20
0.500008
 30
0.0
 10
3.570001
 20
0.769993
 30
0.0
 10
3.300016
 20
0.769993
 30
0.0
 10
3.300016
 20
0.599998
 30
0.0
 10
3.385013
 20
0.599998
 30
0.0
 10
3.400006
 20
0.599998
 30
0.0
 10
3.400006
 20
0.570012
 30
0.0
 10
3.385013
 20
0.570012
 30
0.0
 10
3.270030
 20
0.570012
 30
0.0
 10
3.270030
 20
0.799979
 30
0.0
 10
3.570001
 20
0.799979
 30
0.0
 10
3.570001
 20
0.869983
 30
0.0
 10
3.200025
 20
0.869983
 30
0.0
 10
3.200025
 20
0.500008
 30
0.0
 10
3.470011
 20
0.500008
 30
0.0
 10
3.470011
 20
0.670002
 30
0.0
 10
3.385013
 20
0.670002
 30
0.0
 10
3.370020
 20
0.670002
 30
0.0
 10
3.370020
 20
0.699989
 30
0.0
 10
3.385013
 20
0.699989
 30
0.0
 10
3.500052
 20
0.699989
 30
0.0
 10
3.500052
 20
0.470022
 30
0.0
 10
3.170039
 20
0.470022
 30
0.0
 10
3.170039
 20
0.869983
 30
0.0
 10
2.800008
 20
0.869983
 30
0.0
 10
2.800008
 20
0.599998
 30
0.0
 10
2.970003
 20
0.599998
 30
0.0
 10
2.970003
 20
0.684996
 30
0.0
 10
2.970003
 20
0.699989
 30
0.0
 10
3.000044
 20
0.699989
 30
0.0
 10
3.000044
 20
0.684996
 30
0.0
 10
3.000044
 20
0.570012
 30
0.0
 10
2.770022
 20
0.570012
 30
0.0
 10
2.770022
 20
0.900025
 30
0.0
 10
3.170039
 20
0.900025
 30
0.0
 10
3.170039
 20
1.270000
 30
0.0
 10
2.899999
 20
1.270000
 30
0.0
 10
2.899999
 20
1.100006
 30
0.0
 10
2.985051
 20
1.100006
 30
0.0
 10
3.000044
 20
1.100006
 30
0.0
 10
3.000044
 20
1.070019
 30
0.0
 10
2.985051
 20
1.070019
 30
0.0
 10
2.870013
 20
1.070019
 30
0.0
 10
2.870013
 20
1.299986
 30
0.0
 10
3.200025
 20
1.299986
 30
0.0
 10
3.200025
 20
0.900025
 30
0.0
 10
3.570001
 20
0.900025
 30
0.0
 10
3.570001
 20
1.170010
 30
0.0
 10
3.400006
 20
1.170010
 30
0.0
 10
3.400006
 20
1.085012
 30
0.0
 10
3.400006
 20
1.070019
 30
0.0
 10
3.370020
 20
1.070019
 30
0.0
 10
3.370020
 20
1.085012
 30
0.0
 10
3.370020
 20
1.199996
 30
0.0
 10
3.570001
 20
1.199996
 30
0.0
 10
3.570001
 20
1.270000
 30
0.0
 10
3.300016
 20
1.270000
 30
0.0
 10
3.300016
 20
1.000015
 30
0.0
 10
3.470011
 20
1.000015
 30
0.0
 10
3.470011
 20
1.085012
 30
0.0
 10
3.470011
 20
1.100006
 30
0.0
 10
3.500052
 20
1.100006
 30
0.0
 10
3.500052
 20
1.085012
 30
0.0
 10
3.500052
 20
0.970029
 30
0.0
 10
3.270030
 20
0.970029
 30
0.0
 10
3.270030
 20
1.270000
 30
0.0
 10
3.270030
 20
1.284993
 30
0.0
 10
3.270030
 20
1.299986
 30
0.0
 10
3.285023
 20
1.299986
 30
0.0
 10
3.300016
 20
1.299986
 30
0.0
 10
3.570001
 20
1.299986
 30
0.0
 10
3.570001
 20
1.384984
 30
0.0
 10
3.570001
 20
1.399977
 30
0.0
 10
3.570001
 20
1.670017
 30
0.0
 10
3.300016
 20
1.670017
 30
0.0
 10
3.300016
 20
1.500022
 30
0.0
 10
3.385013
 20
1.500022
 30
0.0
 10
3.400006
 20
1.500022
 30
0.0
 10
3.400006
 20
1.469981
 30
0.0
 10
3.385013
 20
1.469981
 30
0.0
 10
3.270030
 20
1.469981
 30
0.0
 10
3.270030
 20
1.700003
 30
0.0
 10
3.570001
 20
1.700003
 30
0.0
 10
3.570001
 20
1.770008
 30
0.0
 10
3.200025
 20
1.770008
 30
0.0
 10
3.200025
 20
1.399977
 30
0.0
 10
3.470011
 20
1.399977
 30
0.0
 10
3.470011
 20
1.570027
 30
0.0
 10
3.385013
 20
1.570027
 30
0.0
 10
3.370020
 20
1.570027
 30
0.0
 10
3.370020
 20
1.600013
 30
0.0
 10
3.385013
 20
1.600013
 30
0.0
 10
3.500052
 20
1.600013
 30
0.0
 10
3.500052
 20
1.369991
 30
0.0
 10
3.170039
 20
1.369991
 30
0.0
 10
3.170039
 20
1.770008
 30
0.0
 10
2.800008
 20
1.770008
 30
0.0
 10
2.800008
 20
1.500022
 30
0.0
 10
2.970003
 20
1.500022
 30
0.0
 10
2.970003
 20
1.585020
 30
0.0
 10
2.970003
 20
1.600013
 30
0.0
 10
3.000044
 20
1.600013
 30
0.0
 10
3.000044
 20
1.585020
 30
0.0
 10
3.000044
 20
1.469981
 30
0.0
 10
2.770022
 20
1.469981
 30
0.0
 10
2.770022
 20
1.799994
 30
0.0
 10
3.170039
 20
1.799994
 30
0.0
 10
3.170039
 20
2.170025
 30
0.0
 10
2.899999
 20
2.170025
 30
0.0
 10
2.899999
 20
2.000030
 30
0.0
 10
2.985051
 20
2.000030
 30
0.0
 10
3.000044
 20
2.000030
 30
0.0
 10
3.000044
 20
1.969989
 30
0.0
 10
2.985051
 20
1.969989
 30
0.0
 10
2.870013
 20
1.969989
 30
0.0
 10
2.870013
 20
2.200011
 30
0.0
 10
3.200025
 20
2.200011
 30
0.0
 10
3.200025
 20
1.799994
 30
0.0
 10
3.570001
 20
1.799994
 30
0.0
 10
3.570001
 20
2.069979
 30
0.0
 10
3.400006
 20
2.069979
 30
0.0
 10
3.400006
 20
1.984982
 30
0.0
 10
3.400006
 20
1.969989
 30
0.0
 10
3.370020
 20
1.969989
 30
0.0
 10
3.370020
 20
1.984982
 30
0.0
 10
3.370020
 20
2.100020
 30
0.0
 10
3.570001
 20
2.100020
 30
0.0
 10
3.570001
 20
2.170025
 30
0.0
 10
3.300016
 20
2.170025
 30
0.0
 10
3.300016
 20
1.899984
 30
0.0
 10
3.470011
 20
1.899984
 30
0.0
 10
3.470011
 20
1.984982
 30
0.0
 10
3.470011
 20
2.000030
 30
0.0
 10
3.500052
 20
2.000030
 30
0.0
 10
3.500052
 20
1.984982
 30
0.0
 10
3.500052
 20
1.869998
 30
0.0
 10
3.270030
 20
1.869998
 30
0.0
 10
3.270030
 20
2.170025
 30
0.0
 10
3.270030
 20
2.185018
 30
0.0
 10
3.270030
 20
2.200011
 30
0.0
 10
3.285023
 20
2.200011
 30
0.0
 10
3.300016
 20
2.200011
 30
0.0
 10
3.570001
 20
2.200011
 30
0.0
 10
3.570001
 20
2.285008
 30
0.0
 10
3.570001
 20
2.300001
 30
0.0
 10
3.570001
 20
2.569986
 30
0.0
 10
3.300016
 20
2.569986
 30
0.0
 10
3.300016
 20
2.399992
 30
0.0
 10
3.385013
 20
2.399992
 30
0.0
 10
3.400006
 20
2.399992
 30
0.0
 10
3.400006
 20
2.370006
 30
0.0
 10
3.385013
 20
2.370006
 30
0.0
 10
3.270030
 20
2.370006
 30
0.0
 10
3.270030
 20
2.600028
 30
0.0
 10
3.570001
 20
2.600028
 30
0.0
 10
3.570001
 20
2.669977
 30
0.0
 10
3.200025
 20
2.669977
 30
0.0
 10
3.200025
 20
2.300001
 30
0.0
 10
3.470011
 20
2.300001
 30
0.0
 10
3.470011
 20
2.469996
 30
0.0
 10
3.385013
 20
2.469996
 30
0.0
 10
3.370020
 20
2.469996
 30
0.0
 10
3.370020
 20
2.499982
 30
0.0
 10
3.385013
 20
2.499982
 30
0.0
 10
3.500052
 20
2.499982
 30
0.0
 10
3.500052
 20
2.270015
 30
0.0
 10
3.170039
 20
2.270015
 30
0.0
 10
3.170039
 20
2.669977
 30
0.0
 10
2.800008
 20
2.669977
 30
0.0
 10
2.800008
 20
2.399992
 30
0.0
 10
2.970003
 20
2.399992
 30
0.0
 10
2.970003
 20
2.484989
 30
0.0
 10
2.970003
 20
2.499982
 30
0.0
 10
3.000044
 20
2.499982
 30
0.0
 10
3.000044
 20
2.484989
 30
0.0
 10
3.000044
 20
2.370006
 30
0.0
 10
2.770022
 20
2.370006
 30
0.0
 10
2.770022
 20
2.700018
 30
0.0
 10
3.170039
 20
2.700018
 30
0.0
 10
3.170039
 20
3.069994
 30
0.0
 10
2.899999
 20
3.069994
 30
0.0
 10
2.899999
 20
2.899999
 30
0.0
 10
2.985051
 20
2.899999
 30
0.0
 10
3.000044
 20
2.899999
 30
0.0
 10
3.000044
 20
2.870013
 30
0.0
 10
2.985051
 20
2.870013
 30
0.0
 10
2.870013
 20
2.870013
 30
0.0
 10
2.870013
 20
3.099980
 30
0.0
 10
3.200025
 20
3.099980
 30
0.0
 10
3.200025
 20
2.700018
 30
0.0
 10
3.570001
 20
2.700018
 30
0.0
 10
3.570001
 20
2.970003
 30
0.0
 10
3.400006
 20
2.970003
 30
0.0
 10
3.400006
 20
2.885006
 30
0.0
 10
3.400006
 20
2.870013
 30
0.0
 10
3.370020
 20
2.870013
 30
0.0
 10
3.370020
 20
2.885006
 30
0.0
 10
3.370020
 20
2.999989
 30
0.0
 10
3.570001
 20
2.999989
 30
0.0
 10
3.570001
 20
3.069994
 30
0.0
 10
3.300016
 20
3.069994
 30
0.0
 10
3.300016
 20
2.800009
 30
0.0
 10
3.470011
 20
2.800009
 30
0.0
 10
3.470011
 20
2.885006
 30
0.0
 10
3.470011
 20
2.899999
 30
0.0
 10
3.500052
 20
2.899999
 30
0.0
 10
3.500052
 20
2.885006
 30
0.0
 10
3.500052
 20
2.770022
 30
0.0
 10
3.270030
 20
2.770022
 30
0.0
 10
3.270030
 20
3.069994
 30
0.0
 10
3.270030
 20
3.084987
 30
0.0
 10
3.270030
 20
3.099980
 30
0.0
 10
3.300016
 20
3.099980
 30
0.0
 10
3.570001
 20
3.099980
 30
0.0
 10
3.570001
 20
3.184977
 30
0.0
 10
3.570001
 20
3.200026
 30
0.0
 10
3.570001
 20
3.470011
 30
0.0
 10
3.300016
 20
3.470011
 30
0.0
 10
3.300016
 20
3.300016
 30
0.0
 10
3.385013
 20
3.300016
 30
0.0
 10
3.400006
 20
3.300016
 30
0.0
 10
3.400006
 20
3.270030
 30
0.0
 10
3.385013
 20
3.270030
 30
0.0
 10
3.270030
 20
3.270030
 30
0.0
 10
3.270030
 20
3.499997
 30
0.0
 10
3.570001
 20
3.499997
 30
0.0
 10
3.570001
 20
3.570001
 30
0.0
 10
3.200025
 20
3.570001
 30
0.0
 10
3.200025
 20
3.200026
 30
0.0
 10
3.470011
 20
3.200026
 30
0.0
 10
3.470011
 20
3.370020
 30
0.0
 10
3.385013
 20
3.370020
 30
0.0
 10
3.370020
 20
3.370020
 30
0.0
 10
3.370020
 20
3.400006
 30
0.0
 10
3.385013
 20
3.400006
 30
0.0
 10
3.500052
 20
3.400006
 30
0.0
 10
3.500052
 20
3.169984
 30
0.0
 10
3.170039
 20
3.169984
 30
0.0
 10
3.170039
 20
3.570001
 30
0.0
 10
2.800008
 20
3.570001
 30
0.0
 10
2.800008
 20
3.300016
 30
0.0
 10
2.970003
 20
3.300016
 30
0.0
 10
2.970003
 20
3.385013
 30
0.0
 10
2.970003
 20
3.400006
 30
0.0
 10
3.000044
 20
3.400006
 30
0.0
 10
3.000044
 20
3.385013
 30
0.0
 10
3.000044
 20
3.270030
 30
0.0
 10
2.770022
 20
3.270030
 30
0.0
 10
2.770022
 20
3.570001
 30
0.0
 10
2.700018
 20
3.570001
 30
0.0
 10
2.300001
 20
3.570001
 30
0.0
 10
2.300001
 20
3.200026
 30
0.0
 10
2.570041
 20
3.200026
 30
0.0
 10
2.570041
 20
3.370020
 30
0.0
 10
2.485044
 20
3.370020
 30
0.0
 10
2.470051
 20
3.370020
 30
0.0
 10
2.470051
 20
3.400006
 30
0.0
 10
2.485044
 20
3.400006
 30
0.0
 10
2.600027
 20
3.400006
 30
0.0
 10
2.600027
 20
3.169984
 30
0.0
 10
2.270015
 20
3.169984
 30
0.0
 10
2.270015
 20
3.570001
 30
0.0
 10
1.900039
 20
3.570001
 30
0.0
 10
1.900039
 20
3.300016
 30
0.0
 10
2.070034
 20
3.300016
 30
0.0
 10
2.070034
 20
3.385013
 30
0.0
 10
2.070034
 20
3.400006
 30
0.0
 10
2.100020
 20
3.400006
 30
0.0
 10
2.100020
 20
3.385013
 30
0.0
 10
2.100020
 20
3.270030
 30
0.0
 10
1.870053
 20
3.270030
 30
0.0
 10
1.870053
 20
3.570001
 30
0.0
 10
1.800049
 20
3.570001
 30
0.0
 10
1.400032
 20
3.570001
 30
0.0
 10
1.400032
 20
3.200026
 30
0.0
 10
1.670017
 20
3.200026
 30
0.0
 10
1.670017
 20
3.370020
 30
0.0
 10
1.585020
 20
3.370020
 30
0.0
 10
1.570026
 20
3.370020
 30
0.0
 10
1.570026
 20
3.400006
 30
0.0
 10
1.585020
 20
3.400006
 30
0.0
 10
1.700003
 20
3.400006
 30
0.0
 10
1.700003
 20
3.169984
 30
0.0
 10
1.370046
 20
3.169984
 30
0.0
 10
1.370046
 20
3.570001
 30
0.0
 10
1.000015
 20
3.570001
 30
0.0
 10
1.000015
 20
3.300016
 30
0.0
 10
1.170010
 20
3.300016
 30
0.0
 10
1.170010
 20
3.385013
 30
0.0
 10
1.170010
 20
3.400006
 30
0.0
 10
1.200051
 20
3.400006
 30
0.0
 10
1.200051
 20
3.385013
 30
0.0
 10
1.200051
 20
3.270030
 30
0.0
 10
0.970029
 20
3.270030
 30
0.0
 10
0.970029
 20
3.570001
 30
0.0
 10
0.900024
 20
3.570001
 30
0.0
 10
0.500007
 20
3.570001
 30
0.0
 10
0.500007
 20
3.200026
 30
0.0
 10
0.770048
 20
3.200026
 30
0.0
 10
0.770048
 20
3.370020
 30
0.0
 10
0.685050
 20
3.370020
 30
0.0
 10
0.670002
 20
3.370020
 30
0.0
 10
0.670002
 20
3.400006
 30
0.0
 10
0.685050
 20
3.400006
 30
0.0
 10
0.800034
 20
3.400006
 30
0.0
 10
0.800034
 20
3.169984
 30
0.0
 10
0.470021
 20
3.169984
 30
0.0
 10
0.470021
 20
3.570001
 30
0.0
 10
0.100046
 20
3.570001
 30
0.0
 10
0.100046
 20
3.300016
 30
0.0
 10
0.270040
 20
3.300016
 30
0.0
 10
0.270040
 20
3.385013
 30
0.0
 10
0.270040
 20
3.400006
 30
0.0
 10
0.300026
 20
3.400006
 30
0.0
 10
0.300026
 20
3.385013
 30
0.0
 10
0.300026
 20
3.270030
 30
0.0
 10
0.070004
 20
3.270030
 30
0.0
 10
0.070004
 20
3.570001
 30
0.0
 10
0.000000
 20
3.570001
 30
0.0
 10
0.000000
 20
3.570001
 30
0.0
  0
LWPOLYLINE
  5
101
100
AcDbEntity
  8
Layer_1
 62
7
100
AcDbPolyline
 90
63
 70
1
 10
0.570012
 20
3.499997
 30
0.0
 10
0.885031
 20
3.499997
 30
0.0
 10
0.900024
 20
3.499997
 30
0.0
 10
0.900024
 20
3.485004
 30
0.0
 10
0.900024
 20
3.200026
 30
0.0
 10
0.970029
 20
3.200026
 30
0.0
 10
1.000015
 20
3.200026
 30
0.0
 10
1.270000
 20
3.200026
 30
0.0
 10
1.270000
 20
3.470011
 30
0.0
 10
1.100005
 20
3.470011
 30
0.0
 10
1.100005
 20
3.385013
 30
0.0
 10
1.100005
 20
3.370020
 30
0.0
 10
1.070019
 20
3.370020
 30
0.0
 10
1.070019
 20
3.385013
 30
0.0
 10
1.070019
 20
3.499997
 30
0.0
 10
1.300041
 20
3.499997
 30
0.0
 10
1.300041
 20
3.169984
 30
0.0
 10
1.000015
 20
3.169984
 30
0.0
 10
1.000015
 20
3.099980
 30
0.0
 10
1.000015
 20
3.084987
 30
0.0
 10
1.000015
 20
2.800009
 30
0.0
 10
1.270000
 20
2.800009
 30
0.0
 10
1.270000
 20
2.970003
 30
0.0
 10
1.185003
 20
2.970003
 30
0.0
 10
1.170010
 20
2.970003
 30
0.0
 10
1.170010
 20
2.999989
 30
0.0
 10
1.185003
 20
2.999989
 30
0.0
 10
1.300041
 20
2.999989
 30
0.0
 10
1.300041
 20
2.770022
 30
0.0
 10
0.970029
 20
2.770022
 30
0.0
 10
0.970029
 20
3.069994
 30
0.0
 10
0.970029
 20
3.084987
 30
0.0
 10
0.970029
 20
3.099980
 30
0.0
 10
0.970029
 20
3.169984
 30
0.0
 10
0.900024
 20
3.169984
 30
0.0
 10
0.900024
 20
3.069994
 30
0.0
 10
0.600053
 20
3.069994
 30
0.0
 10
0.600053
 20
2.800009
 30
0.0
 10
0.770048
 20
2.800009
 30
0.0
 10
0.770048
 20
2.885006
 30
0.0
 10
0.770048
 20
2.899999
 30
0.0
 10
0.800034
 20
2.899999
 30
0.0
 10
0.800034
 20
2.885006
 30
0.0
 10
0.800034
 20
2.770022
 30
0.0
 10
0.570012
 20
2.770022
 30
0.0
 10
0.570012
 20
3.069994
 30
0.0
 10
0.570012
 20
3.084987
 30
0.0
 10
0.570012
 20
3.099980
 30
0.0
 10
0.600053
 20
3.099980
 30
0.0
 10
0.870038
 20
3.099980
 30
0.0
 10
0.870038
 20
3.169984
 30
0.0
 10
0.870038
 20
3.185032
 30
0.0
 10
0.870038
 20
3.200026
 30
0.0
 10
0.870038
 20
3.470011
 30
0.0
 10
0.600053
 20
3.470011
 30
0.0
 10
0.600053
 20
3.300016
 30
0.0
 10
0.685050
 20
3.300016
 30
0.0
 10
0.700043
 20
3.300016
 30
0.0
 10
0.700043
 20
3.270030
 30
0.0
 10
0.685050
 20
3.270030
 30
0.0
 10
0.570012
 20
3.270030
 30
0.0
 10
0.570012
 20
3.499997
 30
0.0
 10
0.570012
 20
3.499997
 30
0.0
  0
LWPOLYLINE
  5
102
100
AcDbEntity
  8
Layer_1
 62
7
100
AcDbPolyline
 90
63
 70
1
 10
1.470036
 20
3.499997
 30
0.0
 10
1.785000
 20
3.499997
 30
0.0
 10
1.800049
 20
3.499997
 30
0.0
 10
1.800049
 20
3.485004
 30
0.0
 10
1.800049
 20
3.200026
 30
0.0
 10
1.870053
 20
3.200026
 30
0.0
 10
1.900039
 20
3.200026
 30
0.0
 10
2.170024
 20
3.200026
 30
0.0
 10
2.170024
 20
3.470011
 30
0.0
 10
2.000030
 20
3.470011
 30
0.0
 10
2.000030
 20
3.385013
 30
0.0
 10
2.000030
 20
3.370020
 30
0.0
 10
1.970043
 20
3.370020
 30
0.0
 10
1.970043
 20
3.385013
 30
0.0
 10
1.970043
 20
3.499997
 30
0.0
 10
2.200010
 20
3.499997
 30
0.0
 10
2.200010
 20
3.169984
 30
0.0
 10
1.900039
 20
3.169984
 30
0.0
 10
1.900039
 20
3.099980
 30
0.0
 10
1.900039
 20
3.084987
 30
0.0
 10
1.900039
 20
2.800009
 30
0.0
 10
2.170024
 20
2.800009
 30
0.0
 10
2.170024
 20
2.970003
 30
0.0
 10
2.085027
 20
2.970003
 30
0.0
 10
2.070034
 20
2.970003
 30
0.0
 10
2.070034
 20
2.999989
 30
0.0
 10
2.085027
 20
2.999989
 30
0.0
 10
2.200010
 20
2.999989
 30
0.0
 10
2.200010
 20
2.770022
 30
0.0
 10
1.870053
 20
2.770022
 30
0.0
 10
1.870053
 20
3.069994
 30
0.0
 10
1.870053
 20
3.084987
 30
0.0
 10
1.870053
 20
3.099980
 30
0.0
 10
1.870053
 20
3.169984
 30
0.0
 10
1.800049
 20
3.169984
 30
0.0
 10
1.800049
 20
3.069994
 30
0.0
 10
1.500022
 20
3.069994
 30
0.0
 10
1.500022
 20
2.800009
 30
0.0
 10
1.670017
 20
2.800009
 30
0.0
 10
1.670017
 20
2.885006
 30
0.0
 10
1.670017
 20
2.899999
 30
0.0
 10
1.700003
 20
2.899999
 30
0.0
 10
1.700003
 20
2.885006
 30
0.0
 10
1.700003
 20
2.770022
 30
0.0
 10
1.470036
 20
2.770022
 30
0.0
 10
1.470036
 20
3.069994
 30
0.0
 10
1.470036
 20
3.084987
 30
0.0
 10
1.470036
 20
3.099980
 30
0.0
 10
1.500022
 20
3.099980
 30
0.0
 10
1.770007
 20
3.099980
 30
0.0
 10
1.770007
 20
3.169984
 30
0.0
 10
1.770007
 20
3.184977
 30
0.0
 10
1.770007
 20
3.200026
 30
0.0
 10
1.770007
 20
3.470011
 30
0.0
 10
1.500022
 20
3.470011
 30
0.0
 10
1.500022
 20
3.300016
 30
0.0
 10
1.585020
 20
3.300016
 30
0.0
 10
1.600013
 20
3.300016
 30
0.0
 10
1.600013
 20
3.270030
 30
0.0
 10
1.585020
 20
3.270030
 30
0.0
 10
1.470036
 20
3.270030
 30
0.0
 10
1.470036
 20
3.499997
 30
0.0
 10
1.470036
 20
3.499997
 30
0.0
  0
LWPOLYLINE
  5
103
100
AcDbEntity
  8
Layer_1
 62
7
100
AcDbPolyline
 90
66
 70
1
 10
2.370005
 20
3.499997
 30
0.0
 10
2.670032
 20
3.499997
 30
0.0
 10
2.685025
 20
3.499997
 30
0.0
 10
2.700018
 20
3.499997
 30
0.0
 10
2.700018
 20
3.485004
 30
0.0
 10
2.700018
 20
3.470011
 30
0.0
 10
2.700018
 20
3.200026
 30
0.0
 10
2.770022
 20
3.200026
 30
0.0
 10
2.800008
 20
3.200026
 30
0.0
 10
3.070049
 20
3.200026
 30
0.0
 10
3.070049
 20
3.470011
 30
0.0
 10
2.899999
 20
3.470011
 30
0.0
 10
2.899999
 20
3.385013
 30
0.0
 10
2.899999
 20
3.370020
 30
0.0
 10
2.870013
 20
3.370020
 30
0.0
 10
2.870013
 20
3.385013
 30
0.0
 10
2.870013
 20
3.499997
 30
0.0
 10
3.100035
 20
3.499997
 30
0.0
 10
3.100035
 20
3.169984
 30
0.0
 10
2.800008
 20
3.169984
 30
0.0
 10
2.800008
 20
3.099980
 30
0.0
 10
2.800008
 20
3.084987
 30
0.0
 10
2.800008
 20
3.069994
 30
0.0
 10
2.800008
 20
2.800009
 30
0.0
 10
3.070049
 20
2.800009
 30
0.0
 10
3.070049
 20
2.970003
 30
0.0
 10
2.985051
 20
2.970003
 30
0.0
 10
2.970003
 20
2.970003
 30
0.0
 10
2.970003
 20
2.999989
 30
0.0
 10
2.985051
 20
2.999989
 30
0.0
 10
3.100035
 20
2.999989
 30
0.0
 10
3.100035
 20
2.770022
 30
0.0
 10
2.770022
 20
2.770022
 30
0.0
 10
2.770022
 20
3.069994
 30
0.0
 10
2.770022
 20
3.084987
 30
0.0
 10
2.770022
 20
3.099980
 30
0.0
 10
2.770022
 20
3.169984
 30
0.0
 10
2.700018
 20
3.169984
 30
0.0
 10
2.700018
 20
3.069994
 30
0.0
 10
2.400046
 20
3.069994
 30
0.0
 10
2.400046
 20
2.800009
 30
0.0
 10
2.570041
 20
2.800009
 30
0.0
 10
2.570041
 20
2.885006
 30
0.0
 10
2.570041
 20
2.899999
 30
0.0
 10
2.600027
 20
2.899999
 30
0.0
 10
2.600027
 20
2.885006
 30
0.0
 10
2.600027
 20
2.770022
 30
0.0
 10
2.370005
 20
2.770022
 30
0.0
 10
2.370005
 20
3.069994
 30
0.0
 10
2.370005
 20
3.084987
 30
0.0
 10
2.370005
 20
3.099980
 30
0.0
 10
2.400046
 20
3.099980
 30
0.0
 10
2.670032
 20
3.099980
 30
0.0
 10
2.670032
 20
3.169984
 30
0.0
 10
2.670032
 20
3.185032
 30
0.0
 10
2.670032
 20
3.200026
 30
0.0
 10
2.670032
 20
3.470011
 30
0.0
 10
2.400046
 20
3.470011
 30
0.0
 10
2.400046
 20
3.300016
 30
0.0
 10
2.485044
 20
3.300016
 30
0.0
 10
2.500037
 20
3.300016
 30
0.0
 10
2.500037
 20
3.270030
 30
0.0
 10
2.485044
 20
3.270030
 30
0.0
 10
2.370005
 20
3.270030
 30
0.0
 10
2.370005
 20
3.499997
 30
0.0
 10
2.370005
 20
3.499997
 30
0.0
  0
LWPOLYLINE
  5
104
100
AcDbEntity
  8
Layer_1
 62
7
100
AcDbPolyline
 90
46
 70
1
 10
0.170050
 20
3.099980
 30
0.0
 10
0.500007
 20
3.099980
 30
0.0
 10
0.500007
 20
2.700018
 30
0.0
 10
0.870038
 20
2.700018
 30
0.0
 10
0.870038
 20
2.970003
 30
0.0
 10
0.700043
 20
2.970003
 30
0.0
 10
0.700043
 20
2.885006
 30
0.0
 10
0.700043
 20
2.870013
 30
0.0
 10
0.670002
 20
2.870013
 30
0.0
 10
0.670002
 20
2.885006
 30
0.0
 10
0.670002
 20
2.999989
 30
0.0
 10
0.900024
 20
2.999989
 30
0.0
 10
0.900024
 20
2.670032
 30
0.0
 10
0.500007
 20
2.670032
 30
0.0
 10
0.500007
 20
2.300001
 30
0.0
 10
0.770048
 20
2.300001
 30
0.0
 10
0.770048
 20
2.469996
 30
0.0
 10
0.685050
 20
2.469996
 30
0.0
 10
0.670002
 20
2.469996
 30
0.0
 10
0.670002
 20
2.499982
 30
0.0
 10
0.685050
 20
2.499982
 30
0.0
 10
0.800034
 20
2.499982
 30
0.0
 10
0.800034
 20
2.270015
 30
0.0
 10
0.470021
 20
2.270015
 30
0.0
 10
0.470021
 20
2.670032
 30
0.0
 10
0.100046
 20
2.670032
 30
0.0
 10
0.100046
 20
2.399992
 30
0.0
 10
0.270040
 20
2.399992
 30
0.0
 10
0.270040
 20
2.484989
 30
0.0
 10
0.270040
 20
2.499982
 30
0.0
 10
0.300026
 20
2.499982
 30
0.0
 10
0.300026
 20
2.484989
 30
0.0
 10
0.300026
 20
2.370006
 30
0.0
 10
0.070004
 20
2.370006
 30
0.0
 10
0.070004
 20
2.700018
 30
0.0
 10
0.470021
 20
2.700018
 30
0.0
 10
0.470021
 20
3.069994
 30
0.0
 10
0.200036
 20
3.069994
 30
0.0
 10
0.200036
 20
2.899999
 30
0.0
 10
0.285033
 20
2.899999
 30
0.0
 10
0.300026
 20
2.899999
 30
0.0
 10
0.300026
 20
2.870013
 30
0.0
 10
0.285033
 20
2.870013
 30
0.0
 10
0.170050
 20
2.870013
 30
0.0
 10
0.170050
 20
3.099980
 30
0.0
 10
0.170050
 20
3.099980
 30
0.0
  0
LWPOLYLINE
  5
105
100
AcDbEntity
  8
Layer_1
 62
7
100
AcDbPolyline
 90
46
 70
1
 10
1.070019
 20
3.099980
 30
0.0
 10
1.400032
 20
3.099980
 30
0.0
 10
1.400032
 20
2.700018
 30
0.0
 10
1.770007
 20
2.700018
 30
0.0
 10
1.770007
 20
2.970003
 30
0.0
 10
1.600013
 20
2.970003
 30
0.0
 10
1.600013
 20
2.885006
 30
0.0
 10
1.600013
 20
2.870013
 30
0.0
 10
1.570026
 20
2.870013
 30
0.0
 10
1.570026
 20
2.885006
 30
0.0
 10
1.570026
 20
2.999989
 30
0.0
 10
1.800049
 20
2.999989
 30
0.0
 10
1.800049
 20
2.669977
 30
0.0
 10
1.400032
 20
2.669977
 30
0.0
 10
1.400032
 20
2.300001
 30
0.0
 10
1.670017
 20
2.300001
 30
0.0
 10
1.670017
 20
2.469996
 30
0.0
 10
1.585020
 20
2.469996
 30
0.0
 10
1.570026
 20
2.469996
 30
0.0
 10
1.570026
 20
2.499982
 30
0.0
 10
1.585020
 20
2.499982
 30
0.0
 10
1.700003
 20
2.499982
 30
0.0
 10
1.700003
 20
2.270015
 30
0.0
 10
1.370046
 20
2.270015
 30
0.0
 10
1.370046
 20
2.669977
 30
0.0
 10
1.000015
 20
2.669977
 30
0.0
 10
1.000015
 20
2.399992
 30
0.0
 10
1.170010
 20
2.399992
 30
0.0
 10
1.170010
 20
2.484989
 30
0.0
 10
1.170010
 20
2.499982
 30
0.0
 10
1.200051
 20
2.499982
 30
0.0
 10
1.200051
 20
2.484989
 30
0.0
 10
1.200051
 20
2.370006
 30
0.0
 10
0.970029
 20
2.370006
 30
0.0
 10
0.970029
 20
2.700018
 30
0.0
 10
1.370046
 20
2.700018
 30
0.0
 10
1.370046
 20
3.069994
 30
0.0
 10
1.100005
 20
3.069994
 30
0.0
 10
1.100005
 20
2.899999
 30
0.0
 10
1.185003
 20
2.899999
 30
0.0
 10
1.200051
 20
2.899999
 30
0.0
 10
1.200051
 20
2.870013
 30
0.0
 10
1.185003
 20
2.870013
 30
0.0
 10
1.070019
 20
2.870013
 30
0.0
 10
1.070019
 20
3.099980
 30
0.0
 10
1.070019
 20
3.099980
 30
0.0
  0
LWPOLYLINE
  5
106
100
AcDbEntity
  8
Layer_1
 62
7
100
AcDbPolyline
 90
46
 70
1
 10
1.970043
 20
3.099980
 30
0.0
 10
2.300001
 20
3.099980
 30
0.0
 10
2.300001
 20
2.700018
 30
0.0
 10
2.670032
 20
2.700018
 30
0.0
 10
2.670032
 20
2.970003
 30
0.0
 10
2.500037
 20
2.970003
 30
0.0
 10
2.500037
 20
2.885006
 30
0.0
 10
2.500037
 20
2.870013
 30
0.0
 10
2.470051
 20
2.870013
 30
0.0
 10
2.470051
 20
2.885006
 30
0.0
 10
2.470051
 20
2.999989
 30
0.0
 10
2.700018
 20
2.999989
 30
0.0
 10
2.700018
 20
2.670032
 30
0.0
 10
2.300001
 20
2.670032
 30
0.0
 10
2.300001
 20
2.300001
 30
0.0
 10
2.570041
 20
2.300001
 30
0.0
 10
2.570041
 20
2.469996
 30
0.0
 10
2.485044
 20
2.469996
 30
0.0
 10
2.470051
 20
2.469996
 30
0.0
 10
2.470051
 20
2.499982
 30
0.0
 10
2.485044
 20
2.499982
 30
0.0
 10
2.600027
 20
2.499982
 30
0.0
 10
2.600027
 20
2.270015
 30
0.0
 10
2.270015
 20
2.270015
 30
0.0
 10
2.270015
 20
2.670032
 30
0.0
 10
1.900039
 20
2.670032
 30
0.0
 10
1.900039
 20
2.399992
 30
0.0
 10
2.070034
 20
2.399992
 30
0.0
 10
2.070034
 20
2.484989
 30
0.0
 10
2.070034
 20
2.499982
 30
0.0
 10
2.100020
 20
2.499982
 30
0.0
 10
2.100020
 20
2.484989
 30
0.0
 10
2.100020
 20
2.370006
 30
0.0
 10
1.870053
 20
2.370006
 30
0.0
 10
1.870053
 20
2.700018
 30
0.0
 10
2.270015
 20
2.700018
 30
0.0
 10
2.270015
 20
3.069994
 30
0.0
 10
2.000030
 20
3.069994
 30
0.0
 10
2.000030
 20
2.899999
 30
0.0
 10
2.085027
 20
2.899999
 30
0.0
 10
2.100020
 20
2.899999
 30
0.0
 10
2.100020
 20
2.870013
 30
0.0
 10
2.085027
 20
2.870013
 30
0.0
 10
1.970043
 20
2.870013
 30
0.0
 10
1.970043
 20
3.099980
 30
0.0
 10
1.970043
 20
3.099980
 30
0.0
  0
LWPOLYLINE
  5
107
100
AcDbEntity
  8
Layer_1
 62
7
100
AcDbPolyline
 90
63
 70
1
 10
0.570012
 20
2.600028
 30
0.0
 10
0.885031
 20
2.600028
 30
0.0
 10
0.900024
 20
2.600028
 30
0.0
 10
0.900024
 20
2.584979
 30
0.0
 10
0.900024
 20
2.300001
 30
0.0
 10
0.970029
 20
2.300001
 30
0.0
 10
1.000015
 20
2.300001
 30
0.0
 10
1.270000
 20
2.300001
 30
0.0
 10
1.270000
 20
2.569986
 30
0.0
 10
1.100005
 20
2.569986
 30
0.0
 10
1.100005
 20
2.484989
 30
0.0
 10
1.100005
 20
2.469996
 30
0.0
 10
1.070019
 20
2.469996
 30
0.0
 10
1.070019
 20
2.484989
 30
0.0
 10
1.070019
 20
2.600028
 30
0.0
 10
1.300041
 20
2.600028
 30
0.0
 10
1.300041
 20
2.270015
 30
0.0
 10
1.000015
 20
2.270015
 30
0.0
 10
1.000015
 20
2.200011
 30
0.0
 10
1.000015
 20
2.185018
 30
0.0
 10
1.000015
 20
1.899984
 30
0.0
 10
1.270000
 20
1.899984
 30
0.0
 10
1.270000
 20
2.069979
 30
0.0
 10
1.185003
 20
2.069979
 30
0.0
 10
1.170010
 20
2.069979
 30
0.0
 10
1.170010
 20
2.100020
 30
0.0
 10
1.185003
 20
2.100020
 30
0.0
 10
1.300041
 20
2.100020
 30
0.0
 10
1.300041
 20
1.869998
 30
0.0
 10
0.970029
 20
1.869998
 30
0.0
 10
0.970029
 20
2.170025
 30
0.0
 10
0.970029
 20
2.185018
 30
0.0
 10
0.970029
 20
2.270015
 30
0.0
 10
0.900024
 20
2.270015
 30
0.0
 10
0.900024
 20
2.170025
 30
0.0
 10
0.600053
 20
2.170025
 30
0.0
 10
0.600053
 20
1.899984
 30
0.0
 10
0.770048
 20
1.899984
 30
0.0
 10
0.770048
 20
1.984982
 30
0.0
 10
0.770048
 20
2.000030
 30
0.0
 10
0.800034
 20
2.000030
 30
0.0
 10
0.800034
 20
1.984982
 30
0.0
 10
0.800034
 20
1.869998
 30
0.0
 10
0.570012
 20
1.869998
 30
0.0
 10
0.570012
 20
2.170025
 30
0.0
 10
0.570012
 20
2.185018
 30
0.0
 10
0.570012
 20
2.200011
 30
0.0
 10
0.585005
 20
2.200011
 30
0.0
 10
0.600053
 20
2.200011
 30
0.0
 10
0.870038
 20
2.200011
 30
0.0
 10
0.870038
 20
2.270015
 30
0.0
 10
0.870038
 20
2.285008
 30
0.0
 10
0.870038
 20
2.300001
 30
0.0
 10
0.870038
 20
2.569986
 30
0.0
 10
0.600053
 20
2.569986
 30
0.0
 10
0.600053
 20
2.399992
 30
0.0
 10
0.685050
 20
2.399992
 30
0.0
 10
0.700043
 20
2.399992
 30
0.0
 10
0.700043
 20
2.370006
 30
0.0
 10
0.685050
 20
2.370006
 30
0.0
 10
0.570012
 20
2.370006
 30
0.0
 10
0.570012
 20
2.600028
 30
0.0
 10
0.570012
 20
2.600028
 30
0.0
  0
LWPOLYLINE
  5
108
100
AcDbEntity
  8
Layer_1
 62
7
100
AcDbPolyline
 90
63
 70
1
 10
1.470036
 20
2.600028
 30
0.0
 10
1.785000
 20
2.600028
 30
0.0
 10
1.800049
 20
2.600028
 30
0.0
 10
1.800049
 20
2.584979
 30
0.0
 10
1.800049
 20
2.300001
 30
0.0
 10
1.870053
 20
2.300001
 30
0.0
 10
1.900039
 20
2.300001
 30
0.0
 10
2.170024
 20
2.300001
 30
0.0
 10
2.170024
 20
2.569986
 30
0.0
 10
2.000030
 20
2.569986
 30
0.0
 10
2.000030
 20
2.484989
 30
0.0
 10
2.000030
 20
2.469996
 30
0.0
 10
1.970043
 20
2.469996
 30
0.0
 10
1.970043
 20
2.484989
 30
0.0
 10
1.970043
 20
2.600028
 30
0.0
 10
2.200010
 20
2.600028
 30
0.0
 10
2.200010
 20
2.270015
 30
0.0
 10
1.900039
 20
2.270015
 30
0.0
 10
1.900039
 20
2.200011
 30
0.0
 10
1.900039
 20
2.185018
 30
0.0
 10
1.900039
 20
1.899984
 30
0.0
 10
2.170024
 20
1.899984
 30
0.0
 10
2.170024
 20
2.069979
 30
0.0
 10
2.085027
 20
2.069979
 30
0.0
 10
2.070034
 20
2.069979
 30
0.0
 10
2.070034
 20
2.100020
 30
0.0
 10
2.085027
 20
2.100020
 30
0.0
 10
2.200010
 20
2.100020
 30
0.0
 10
2.200010
 20
1.869998
 30
0.0
 10
1.870053
 20
1.869998
 30
0.0
 10
1.870053
 20
2.170025
 30
0.0
 10
1.870053
 20
2.185018
 30
0.0
 10
1.870053
 20
2.270015
 30
0.0
 10
1.800049
 20
2.270015
 30
0.0
 10
1.800049
 20
2.170025
 30
0.0
 10
1.500022
 20
2.170025
 30
0.0
 10
1.500022
 20
1.899984
 30
0.0
 10
1.670017
 20
1.899984
 30
0.0
 10
1.670017
 20
1.984982
 30
0.0
 10
1.670017
 20
2.000030
 30
0.0
 10
1.700003
 20
2.000030
 30
0.0
 10
1.700003
 20
1.984982
 30
0.0
 10
1.700003
 20
1.869998
 30
0.0
 10
1.470036
 20
1.869998
 30
0.0
 10
1.470036
 20
2.170025
 30
0.0
 10
1.470036
 20
2.185018
 30
0.0
 10
1.470036
 20
2.200011
 30
0.0
 10
1.485029
 20
2.200011
 30
0.0
 10
1.500022
 20
2.200011
 30
0.0
 10
1.770007
 20
2.200011
 30
0.0
 10
1.770007
 20
2.270015
 30
0.0
 10
1.770007
 20
2.285008
 30
0.0
 10
1.770007
 20
2.300001
 30
0.0
 10
1.770007
 20
2.569986
 30
0.0
 10
1.500022
 20
2.569986
 30
0.0
 10
1.500022
 20
2.399992
 30
0.0
 10
1.585020
 20
2.399992
 30
0.0
 10
1.600013
 20
2.399992
 30
0.0
 10
1.600013
 20
2.370006
 30
0.0
 10
1.585020
 20
2.370006
 30
0.0
 10
1.470036
 20
2.370006
 30
0.0
 10
1.470036
 20
2.600028
 30
0.0
 10
1.470036
 20
2.600028
 30
0.0
  0
LWPOLYLINE
  5
109
100
AcDbEntity
  8
Layer_1
 62
7
100
AcDbPolyline
 90
63
 70
1
 10
2.370005
 20
2.600028
 30
0.0
 10
2.685025
 20
2.600028
 30
0.0
 10
2.700018
 20
2.600028
 30
0.0
 10
2.700018
 20
2.584979
 30
0.0
 10
2.700018
 20
2.300001
 30
0.0
 10
2.770022
 20
2.300001
 30
0.0
 10
2.800008
 20
2.300001
 30
0.0
 10
3.070049
 20
2.300001
 30
0.0
 10
3.070049
 20
2.569986
 30
0.0
 10
2.899999
 20
2.569986
 30
0.0
 10
2.899999
 20
2.484989
 30
0.0
 10
2.899999
 20
2.469996
 30
0.0
 10
2.870013
 20
2.469996
 30
0.0
 10
2.870013
 20
2.484989
 30
0.0
 10
2.870013
 20
2.600028
 30
0.0
 10
3.100035
 20
2.600028
 30
0.0
 10
3.100035
 20
2.270015
 30
0.0
 10
2.800008
 20
2.270015
 30
0.0
 10
2.800008
 20
2.200011
 30
0.0
 10
2.800008
 20
2.185018
 30
0.0
 10
2.800008
 20
1.899984
 30
0.0
 10
3.070049
 20
1.899984
 30
0.0
 10
3.070049
 20
2.069979
 30
0.0
 10
2.985051
 20
2.069979
 30
0.0
 10
2.970003
 20
2.069979
 30
0.0
 10
2.970003
 20
2.100020
 30
0.0
 10
2.985051
 20
2.100020
 30
0.0
 10
3.100035
 20
2.100020
 30
0.0
 10
3.100035
 20
1.869998
 30
0.0
 10
2.770022
 20
1.869998
 30
0.0
 10
2.770022
 20
2.170025
 30
0.0
 10
2.770022
 20
2.185018
 30
0.0
 10
2.770022
 20
2.270015
 30
0.0
 10
2.700018
 20
2.270015
 30
0.0
 10
2.700018
 20
2.170025
 30
0.0
 10
2.400046
 20
2.170025
 30
0.0
 10
2.400046
 20
1.899984
 30
0.0
 10
2.570041
 20
1.899984
 30
0.0
 10
2.570041
 20
1.984982
 30
0.0
 10
2.570041
 20
2.000030
 30
0.0
 10
2.600027
 20
2.000030
 30
0.0
 10
2.600027
 20
1.984982
 30
0.0
 10
2.600027
 20
1.869998
 30
0.0
 10
2.370005
 20
1.869998
 30
0.0
 10
2.370005
 20
2.170025
 30
0.0
 10
2.370005
 20
2.185018
 30
0.0
 10
2.370005
 20
2.200011
 30
0.0
 10
2.385053
 20
2.200011
 30
0.0
 10
2.400046
 20
2.200011
 30
0.0
 10
2.670032
 20
2.200011
 30
0.0
 10
2.670032
 20
2.270015
 30
0.0
 10
2.670032
 20
2.285008
 30
0.0
 10
2.670032
 20
2.300001
 30
0.0
 10
2.670032
 20
2.569986
 30
0.0
 10
2.400046
 20
2.569986
 30
0.0
 10
2.400046
 20
2.399992
 30
0.0
 10
2.485044
 20
2.399992
 30
0.0
 10
2.500037
 20
2.399992
 30
0.0
 10
2.500037
 20
2.370006
 30
0.0
 10
2.485044
 20
2.370006
 30
0.0
 10
2.370005
 20
2.370006
 30
0.0
 10
2.370005
 20
2.600028
 30
0.0
 10
2.370005
 20
2.600028
 30
0.0
  0
LWPOLYLINE
  5
10a
100
AcDbEntity
  8
Layer_1
 62
7
100
AcDbPolyline
 90
46
 70
1
 10
0.170050
 20
2.200011
 30
0.0
 10
0.500007
 20
2.200011
 30
0.0
 10
0.500007
 20
1.799994
 30
0.0
 10
0.870038
 20
1.799994
 30
0.0
 10
0.870038
 20
2.069979
 30
0.0
 10
0.700043
 20
2.069979
 30
0.0
 10
0.700043
 20
1.984982
 30
0.0
 10
0.700043
 20
1.969989
 30
0.0
 10
0.670002
 20
1.969989
 30
0.0
 10
0.670002
 20
1.984982
 30
0.0
 10
0.670002
 20
2.100020
 30
0.0
 10
0.900024
 20
2.100020
 30
0.0
 10
0.900024
 20
1.770008
 30
0.0
 10
0.500007
 20
1.770008
 30
0.0
 10
0.500007
 20
1.400032
 30
0.0
 10
0.770048
 20
1.400032
 30
0.0
 10
0.770048
 20
1.570027
 30
0.0
 10
0.685050
 20
1.570027
 30
0.0
 10
0.670002
 20
1.570027
 30
0.0
 10
0.670002
 20
1.600013
 30
0.0
 10
0.685050
 20
1.600013
 30
0.0
 10
0.800034
 20
1.600013
 30
0.0
 10
0.800034
 20
1.369991
 30
0.0
 10
0.470021
 20
1.369991
 30
0.0
 10
0.470021
 20
1.770008
 30
0.0
 10
0.100046
 20
1.770008
 30
0.0
 10
0.100046
 20
1.500022
 30
0.0
 10
0.270040
 20
1.500022
 30
0.0
 10
0.270040
 20
1.585020
 30
0.0
 10
0.270040
 20
1.600013
 30
0.0
 10
0.300026
 20
1.600013
 30
0.0
 10
0.300026
 20
1.585020
 30
0.0
 10
0.300026
 20
1.469981
 30
0.0
 10
0.070004
 20
1.469981
 30
0.0
 10
0.070004
 20
1.799994
 30
0.0
 10
0.470021
 20
1.799994
 30
0.0
 10
0.470021
 20
2.170025
 30
0.0
 10
0.200036
 20
2.170025
 30
0.0
 10
0.200036
 20
2.000030
 30
0.0
 10
0.285033
 20
2.000030
 30
0.0
 10
0.300026
 20
2.000030
 30
0.0
 10
0.300026
 20
1.969989
 30
0.0
 10
0.285033
 20
1.969989
 30
0.0
 10
0.170050
 20
1.969989
 30
0.0
 10
0.170050
 20
2.200011
 30
0.0
 10
0.170050
 20
2.200011
 30
0.0
  0
LWPOLYLINE
  5
10b
100
AcDbEntity
  8
Layer_1
 62
7
100
AcDbPolyline
 90
46
 70
1
 10
1.070019
 20
2.200011
 30
0.0
 10
1.400032
 20
2.200011
 30
0.0
 10
1.400032
 20
1.799994
 30
0.0
 10
1.770007
 20
1.799994
 30
0.0
 10
1.770007
 20
2.069979
 30
0.0
 10
1.600013
 20
2.069979
 30
0.0
 10
1.600013
 20
1.984982
 30
0.0
 10
1.600013
 20
1.969989
 30
0.0
 10
1.570026
 20
1.969989
 30
0.0
 10
1.570026
 20
1.984982
 30
0.0
 10
1.570026
 20
2.100020
 30
0.0
 10
1.800049
 20
2.100020
 30
0.0
 10
1.800049
 20
1.770008
 30
0.0
 10
1.400032
 20
1.770008
 30
0.0
 10
1.400032
 20
1.399977
 30
0.0
 10
1.670017
 20
1.399977
 30
0.0
 10
1.670017
 20
1.570027
 30
0.0
 10
1.585020
 20
1.570027
 30
0.0
 10
1.570026
 20
1.570027
 30
0.0
 10
1.570026
 20
1.600013
 30
0.0
 10
1.585020
 20
1.600013
 30
0.0
 10
1.700003
 20
1.600013
 30
0.0
 10
1.700003
 20
1.369991
 30
0.0
 10
1.370046
 20
1.369991
 30
0.0
 10
1.370046
 20
1.770008
 30
0.0
 10
1.000015
 20
1.770008
 30
0.0
 10
1.000015
 20
1.500022
 30
0.0
 10
1.170010
 20
1.500022
 30
0.0
 10
1.170010
 20
1.585020
 30
0.0
 10
1.170010
 20
1.600013
 30
0.0
 10
1.200051
 20
1.600013
 30
0.0
 10
1.200051
 20
1.585020
 30
0.0
 10
1.200051
 20
1.469981
 30
0.0
 10
0.970029
 20
1.469981
 30
0.0
 10
0.970029
 20
1.799994
 30
0.0
 10
1.370046
 20
1.799994
 30
0.0
 10
1.370046
 20
2.170025
 30
0.0
 10
1.100005
 20
2.170025
 30
0.0
 10
1.100005
 20
2.000030
 30
0.0
 10
1.185003
 20
2.000030
 30
0.0
 10
1.200051
 20
2.000030
 30
0.0
 10
1.200051
 20
1.969989
 30
0.0
 10
1.185003
 20
1.969989
 30
0.0
 10
1.070019
 20
1.969989
 30
0.0
 10
1.070019
 20
2.200011
 30
0.0
 10
1.070019
 20
2.200011
 30
0.0
  0
LWPOLYLINE
  5
10c
100
AcDbEntity
  8
Layer_1
 62
7
100
AcDbPolyline
 90
46
 70
1
 10
1.970043
 20
2.200011
 30
0.0
 10
2.300001
 20
2.200011
 30
0.0
 10
2.300001
 20
1.799994
 30
0.0
 10
2.670032
 20
1.799994
 30
0.0
 10
2.670032
 20
2.069979
 30
0.0
 10
2.500037
 20
2.069979
 30
0.0
 10
2.500037
 20
1.984982
 30
0.0
 10
2.500037
 20
1.969989
 30
0.0
 10
2.470051
 20
1.969989
 30
0.0
 10
2.470051
 20
1.984982
 30
0.0
 10
2.470051
 20
2.100020
 30
0.0
 10
2.700018
 20
2.100020
 30
0.0
 10
2.700018
 20
1.770008
 30
0.0
 10
2.300001
 20
1.770008
 30
0.0
 10
2.300001
 20
1.400032
 30
0.0
 10
2.570041
 20
1.400032
 30
0.0
 10
2.570041
 20
1.570027
 30
0.0
 10
2.485044
 20
1.570027
 30
0.0
 10
2.470051
 20
1.570027
 30
0.0
 10
2.470051
 20
1.600013
 30
0.0
 10
2.485044
 20
1.600013
 30
0.0
 10
2.600027
 20
1.600013
 30
0.0
 10
2.600027
 20
1.369991
 30
0.0
 10
2.270015
 20
1.369991
 30
0.0
 10
2.270015
 20
1.770008
 30
0.0
 10
1.900039
 20
1.770008
 30
0.0
 10
1.900039
 20
1.500022
 30
0.0
 10
2.070034
 20
1.500022
 30
0.0
 10
2.070034
 20
1.585020
 30
0.0
 10
2.070034
 20
1.600013
 30
0.0
 10
2.100020
 20
1.600013
 30
0.0
 10
2.100020
 20
1.585020
 30
0.0
 10
2.100020
 20
1.469981
 30
0.0
 10
1.870053
 20
1.469981
 30
0.0
 10
1.870053
 20
1.799994
 30
0.0
 10
2.270015
 20
1.799994
 30
0.0
 10
2.270015
 20
2.170025
 30
0.0
 10
2.000030
 20
2.170025
 30
0.0
 10
2.000030
 20
2.000030
 30
0.0
 10
2.085027
 20
2.000030
 30
0.0
 10
2.100020
 20
2.000030
 30
0.0
 10
2.100020
 20
1.969989
 30
0.0
 10
2.085027
 20
1.969989
 30
0.0
 10
1.970043
 20
1.969989
 30
0.0
 10
1.970043
 20
2.200011
 30
0.0
 10
1.970043
 20
2.200011
 30
0.0
  0
LWPOLYLINE
  5
10d
100
AcDbEntity
  8
Layer_1
 62
7
100
AcDbPolyline
 90
64
 70
1
 10
0.570012
 20
1.700003
 30
0.0
 10
0.885031
 20
1.700003
 30
0.0
 10
0.900024
 20
1.700003
 30
0.0
 10
0.900024
 20
1.685010
 30
0.0
 10
0.900024
 20
1.400032
 30
0.0
 10
0.900024
 20
1.399976
 30
0.0
 10
0.970029
 20
1.399976
 30
0.0
 10
1.000015
 20
1.399976
 30
0.0
 10
1.270000
 20
1.399976
 30
0.0
 10
1.270000
 20
1.670016
 30
0.0
 10
1.100005
 20
1.670016
 30
0.0
 10
1.100005
 20
1.585019
 30
0.0
 10
1.100005
 20
1.570025
 30
0.0
 10
1.070019
 20
1.570025
 30
0.0
 10
1.070019
 20
1.585019
 30
0.0
 10
1.070019
 20
1.700002
 30
0.0
 10
1.300041
 20
1.700002
 30
0.0
 10
1.300041
 20
1.369989
 30
0.0
 10
1.000015
 20
1.369989
 30
0.0
 10
1.000015
 20
1.299985
 30
0.0
 10
1.000015
 20
1.284992
 30
0.0
 10
1.000015
 20
1.000014
 30
0.0
 10
1.270000
 20
1.000014
 30
0.0
 10
1.270000
 20
1.170009
 30
0.0
 10
1.185003
 20
1.170009
 30
0.0
 10
1.170010
 20
1.170009
 30
0.0
 10
1.170010
 20
1.199995
 30
0.0
 10
1.185003
 20
1.199995
 30
0.0
 10
1.300041
 20
1.199995
 30
0.0
 10
1.300041
 20
0.970028
 30
0.0
 10
0.970029
 20
0.970028
 30
0.0
 10
0.970029
 20
1.269999
 30
0.0
 10
0.970029
 20
1.284992
 30
0.0
 10
0.970029
 20
1.369989
 30
0.0
 10
0.900024
 20
1.369989
 30
0.0
 10
0.900024
 20
1.269999
 30
0.0
 10
0.600053
 20
1.269999
 30
0.0
 10
0.600053
 20
1.000014
 30
0.0
 10
0.770048
 20
1.000014
 30
0.0
 10
0.770048
 20
1.085011
 30
0.0
 10
0.770048
 20
1.100004
 30
0.0
 10
0.800034
 20
1.100004
 30
0.0
 10
0.800034
 20
1.085011
 30
0.0
 10
0.800034
 20
0.970028
 30
0.0
 10
0.570012
 20
0.970028
 30
0.0
 10
0.570012
 20
1.269999
 30
0.0
 10
0.570012
 20
1.284992
 30
0.0
 10
0.570012
 20
1.299985
 30
0.0
 10
0.585005
 20
1.299985
 30
0.0
 10
0.600053
 20
1.299985
 30
0.0
 10
0.870038
 20
1.299985
 30
0.0
 10
0.870038
 20
1.369989
 30
0.0
 10
0.870038
 20
1.384983
 30
0.0
 10
0.870038
 20
1.400031
 30
0.0
 10
0.870038
 20
1.670016
 30
0.0
 10
0.600053
 20
1.670016
 30
0.0
 10
0.600053
 20
1.500021
 30
0.0
 10
0.685050
 20
1.500021
 30
0.0
 10
0.700043
 20
1.500021
 30
0.0
 10
0.700043
 20
1.469980
 30
0.0
 10
0.685050
 20
1.469980
 30
0.0
 10
0.570012
 20
1.469980
 30
0.0
 10
0.570012
 20
1.700002
 30
0.0
 10
0.570012
 20
1.700003
 30
0.0
  0
LWPOLYLINE
  5
10e
100
AcDbEntity
  8
Layer_1
 62
7
100
AcDbPolyline
 90
63
 70
1
 10
1.470036
 20
1.700003
 30
0.0
 10
1.785000
 20
1.700003
 30
0.0
 10
1.800049
 20
1.700003
 30
0.0
 10
1.800049
 20
1.685010
 30
0.0
 10
1.800049
 20
1.400032
 30
0.0
 10
1.870053
 20
1.400032
 30
0.0
 10
1.900039
 20
1.400032
 30
0.0
 10
2.170024
 20
1.400032
 30
0.0
 10
2.170024
 20
1.670017
 30
0.0
 10
2.000030
 20
1.670017
 30
0.0
 10
2.000030
 20
1.585020
 30
0.0
 10
2.000030
 20
1.570027
 30
0.0
 10
1.970043
 20
1.570027
 30
0.0
 10
1.970043
 20
1.585020
 30
0.0
 10
1.970043
 20
1.700003
 30
0.0
 10
2.200010
 20
1.700003
 30
0.0
 10
2.200010
 20
1.369991
 30
0.0
 10
1.900039
 20
1.369991
 30
0.0
 10
1.900039
 20
1.299986
 30
0.0
 10
1.900039
 20
1.284993
 30
0.0
 10
1.900039
 20
1.000015
 30
0.0
 10
2.170024
 20
1.000015
 30
0.0
 10
2.170024
 20
1.170010
 30
0.0
 10
2.085027
 20
1.170010
 30
0.0
 10
2.070034
 20
1.170010
 30
0.0
 10
2.070034
 20
1.199996
 30
0.0
 10
2.085027
 20
1.199996
 30
0.0
 10
2.200010
 20
1.199996
 30
0.0
 10
2.200010
 20
0.970029
 30
0.0
 10
1.870053
 20
0.970029
 30
0.0
 10
1.870053
 20
1.270000
 30
0.0
 10
1.870053
 20
1.284993
 30
0.0
 10
1.870053
 20
1.369991
 30
0.0
 10
1.800049
 20
1.369991
 30
0.0
 10
1.800049
 20
1.270000
 30
0.0
 10
1.500022
 20
1.270000
 30
0.0
 10
1.500022
 20
1.000015
 30
0.0
 10
1.670017
 20
1.000015
 30
0.0
 10
1.670017
 20
1.085012
 30
0.0
 10
1.670017
 20
1.100006
 30
0.0
 10
1.700003
 20
1.100006
 30
0.0
 10
1.700003
 20
1.085012
 30
0.0
 10
1.700003
 20
0.970029
 30
0.0
 10
1.470036
 20
0.970029
 30
0.0
 10
1.470036
 20
1.270000
 30
0.0
 10
1.470036
 20
1.284993
 30
0.0
 10
1.470036
 20
1.299986
 30
0.0
 10
1.485029
 20
1.299986
 30
0.0
 10
1.500022
 20
1.299986
 30
0.0
 10
1.770007
 20
1.299986
 30
0.0
 10
1.770007
 20
1.369991
 30
0.0
 10
1.770007
 20
1.384984
 30
0.0
 10
1.770007
 20
1.399977
 30
0.0
 10
1.770007
 20
1.670017
 30
0.0
 10
1.500022
 20
1.670017
 30
0.0
 10
1.500022
 20
1.500022
 30
0.0
 10
1.585020
 20
1.500022
 30
0.0
 10
1.600013
 20
1.500022
 30
0.0
 10
1.600013
 20
1.469981
 30
0.0
 10
1.585020
 20
1.469981
 30
0.0
 10
1.470036
 20
1.469981
 30
0.0
 10
1.470036
 20
1.700003
 30
0.0
 10
1.470036
 20
1.700003
 30
0.0
  0
LWPOLYLINE
  5
10f
100
AcDbEntity
  8
Layer_1
 62
7
100
AcDbPolyline
 90
64
 70
1
 10
2.370005
 20
1.700003
 30
0.0
 10
2.685025
 20
1.700003
 30
0.0
 10
2.700018
 20
1.700003
 30
0.0
 10
2.700018
 20
1.685010
 30
0.0
 10
2.700018
 20
1.400032
 30
0.0
 10
2.700018
 20
1.399976
 30
0.0
 10
2.770022
 20
1.399976
 30
0.0
 10
2.800008
 20
1.399976
 30
0.0
 10
3.070049
 20
1.399976
 30
0.0
 10
3.070049
 20
1.670016
 30
0.0
 10
2.899999
 20
1.670016
 30
0.0
 10
2.899999
 20
1.585019
 30
0.0
 10
2.899999
 20
1.570025
 30
0.0
 10
2.870013
 20
1.570025
 30
0.0
 10
2.870013
 20
1.585019
 30
0.0
 10
2.870013
 20
1.700002
 30
0.0
 10
3.100035
 20
1.700002
 30
0.0
 10
3.100035
 20
1.369989
 30
0.0
 10
2.800008
 20
1.369989
 30
0.0
 10
2.800008
 20
1.299985
 30
0.0
 10
2.800008
 20
1.284992
 30
0.0
 10
2.800008
 20
1.000014
 30
0.0
 10
3.070049
 20
1.000014
 30
0.0
 10
3.070049
 20
1.170009
 30
0.0
 10
2.985051
 20
1.170009
 30
0.0
 10
2.970003
 20
1.170009
 30
0.0
 10
2.970003
 20
1.199995
 30
0.0
 10
2.985051
 20
1.199995
 30
0.0
 10
3.100035
 20
1.199995
 30
0.0
 10
3.100035
 20
0.970028
 30
0.0
 10
2.770022
 20
0.970028
 30
0.0
 10
2.770022
 20
1.269999
 30
0.0
 10
2.770022
 20
1.284992
 30
0.0
 10
2.770022
 20
1.369989
 30
0.0
 10
2.700018
 20
1.369989
 30
0.0
 10
2.700018
 20
1.269999
 30
0.0
 10
2.400046
 20
1.269999
 30
0.0
 10
2.400046
 20
1.000014
 30
0.0
 10
2.570041
 20
1.000014
 30
0.0
 10
2.570041
 20
1.085011
 30
0.0
 10
2.570041
 20
1.100004
 30
0.0
 10
2.600027
 20
1.100004
 30
0.0
 10
2.600027
 20
1.085011
 30
0.0
 10
2.600027
 20
0.970028
 30
0.0
 10
2.370005
 20
0.970028
 30
0.0
 10
2.370005
 20
1.269999
 30
0.0
 10
2.370005
 20
1.284992
 30
0.0
 10
2.370005
 20
1.299985
 30
0.0
 10
2.385053
 20
1.299985
 30
0.0
 10
2.400046
 20
1.299985
 30
0.0
 10
2.670032
 20
1.299985
 30
0.0
 10
2.670032
 20
1.369989
 30
0.0
 10
2.670032
 20
1.384983
 30
0.0
 10
2.670032
 20
1.400031
 30
0.0
 10
2.670032
 20
1.670016
 30
0.0
 10
2.400046
 20
1.670016
 30
0.0
 10
2.400046
 20
1.500021
 30
0.0
 10
2.485044
 20
1.500021
 30
0.0
 10
2.500037
 20
1.500021
 30
0.0
 10
2.500037
 20
1.469980
 30
0.0
 10
2.485044
 20
1.469980
 30
0.0
 10
2.370005
 20
1.469980
 30
0.0
 10
2.370005
 20
1.700002
 30
0.0
 10
2.370005
 20
1.700003
 30
0.0
  0
LWPOLYLINE
  5
110
100
AcDbEntity
  8
Layer_1
 62
7
100
AcDbPolyline
 90
46
 70
1
 10
0.170050
 20
1.299986
 30
0.0
 10
0.500007
 20
1.299986
 30
0.0
 10
0.500007
 20
0.900025
 30
0.0
 10
0.870038
 20
0.900025
 30
0.0
 10
0.870038
 20
1.170010
 30
0.0
 10
0.700043
 20
1.170010
 30
0.0
 10
0.700043
 20
1.085012
 30
0.0
 10
0.700043
 20
1.070019
 30
0.0
 10
0.670002
 20
1.070019
 30
0.0
 10
0.670002
 20
1.085012
 30
0.0
 10
0.670002
 20
1.199996
 30
0.0
 10
0.900024
 20
1.199996
 30
0.0
 10
0.900024
 20
0.869983
 30
0.0
 10
0.500007
 20
0.869983
 30
0.0
 10
0.500007
 20
0.500008
 30
0.0
 10
0.770048
 20
0.500008
 30
0.0
 10
0.770048
 20
0.670002
 30
0.0
 10
0.685050
 20
0.670002
 30
0.0
 10
0.670002
 20
0.670002
 30
0.0
 10
0.670002
 20
0.699989
 30
0.0
 10
0.685050
 20
0.699989
 30
0.0
 10
0.800034
 20
0.699989
 30
0.0
 10
0.800034
 20
0.470022
 30
0.0
 10
0.470021
 20
0.470022
 30
0.0
 10
0.470021
 20
0.869983
 30
0.0
 10
0.100046
 20
0.869983
 30
0.0
 10
0.100046
 20
0.599998
 30
0.0
 10
0.270040
 20
0.599998
 30
0.0
 10
0.270040
 20
0.684996
 30
0.0
 10
0.270040
 20
0.699989
 30
0.0
 10
0.300026
 20
0.699989
 30
0.0
 10
0.300026
 20
0.684996
 30
0.0
 10
0.300026
 20
0.570012
 30
0.0
 10
0.070004
 20
0.570012
 30
0.0
 10
0.070004
 20
0.900025
 30
0.0
 10
0.470021
 20
0.900025
 30
0.0
 10
0.470021
 20
1.270000
 30
0.0
 10
0.200036
 20
1.270000
 30
0.0
 10
0.200036
 20
1.100006
 30
0.0
 10
0.285033
 20
1.100006
 30
0.0
 10
0.300026
 20
1.100006
 30
0.0
 10
0.300026
 20
1.070019
 30
0.0
 10
0.285033
 20
1.070019
 30
0.0
 10
0.170050
 20
1.070019
 30
0.0
 10
0.170050
 20
1.299986
 30
0.0
 10
0.170050
 20
1.299986
 30
0.0
  0
LWPOLYLINE
  5
111
100
AcDbEntity
  8
Layer_1
 62
7
100
AcDbPolyline
 90
46
 70
1
 10
1.070019
 20
1.299986
 30
0.0
 10
1.400032
 20
1.299986
 30
0.0
 10
1.400032
 20
0.900025
 30
0.0
 10
1.770007
 20
0.900025
 30
0.0
 10
1.770007
 20
1.170010
 30
0.0
 10
1.600013
 20
1.170010
 30
0.0
 10
1.600013
 20
1.085012
 30
0.0
 10
1.600013
 20
1.070019
 30
0.0
 10
1.570026
 20
1.070019
 30
0.0
 10
1.570026
 20
1.085012
 30
0.0
 10
1.570026
 20
1.199996
 30
0.0
 10
1.800049
 20
1.199996
 30
0.0
 10
1.800049
 20
0.869983
 30
0.0
 10
1.400032
 20
0.869983
 30
0.0
 10
1.400032
 20
0.500008
 30
0.0
 10
1.670017
 20
0.500008
 30
0.0
 10
1.670017
 20
0.670002
 30
0.0
 10
1.585020
 20
0.670002
 30
0.0
 10
1.570026
 20
0.670002
 30
0.0
 10
1.570026
 20
0.699989
 30
0.0
 10
1.585020
 20
0.699989
 30
0.0
 10
1.700003
 20
0.699989
 30
0.0
 10
1.700003
 20
0.470022
 30
0.0
 10
1.370046
 20
0.470022
 30
0.0
 10
1.370046
 20
0.869983
 30
0.0
 10
1.000015
 20
0.869983
 30
0.0
 10
1.000015
 20
0.599998
 30
0.0
 10
1.170010
 20
0.599998
 30
0.0
 10
1.170010
 20
0.684996
 30
0.0
 10
1.170010
 20
0.699989
 30
0.0
 10
1.200051
 20
0.699989
 30
0.0
 10
1.200051
 20
0.684996
 30
0.0
 10
1.200051
 20
0.570012
 30
0.0
 10
0.970029
 20
0.570012
 30
0.0
 10
0.970029
 20
0.900025
 30
0.0
 10
1.370046
 20
0.900025
 30
0.0
 10
1.370046
 20
1.270000
 30
0.0
 10
1.100005
 20
1.270000
 30
0.0
 10
1.100005
 20
1.100006
 30
0.0
 10
1.185003
 20
1.100006
 30
0.0
 10
1.200051
 20
1.100006
 30
0.0
 10
1.200051
 20
1.070019
 30
0.0
 10
1.185003
 20
1.070019
 30
0.0
 10
1.070019
 20
1.070019
 30
0.0
 10
1.070019
 20
1.299986
 30
0.0
 10
1.070019
 20
1.299986
 30
0.0
  0
LWPOLYLINE
  5
112
100
AcDbEntity
  8
Layer_1
 62
7
100
AcDbPolyline
 90
46
 70
1
 10
1.970043
 20
1.299986
 30
0.0
 10
2.300001
 20
1.299986
 30
0.0
 10
2.300001
 20
0.900025
 30
0.0
 10
2.670032
 20
0.900025
 30
0.0
 10
2.670032
 20
1.170010
 30
0.0
 10
2.500037
 20
1.170010
 30
0.0
 10
2.500037
 20
1.085012
 30
0.0
 10
2.500037
 20
1.070019
 30
0.0
 10
2.470051
 20
1.070019
 30
0.0
 10
2.470051
 20
1.085012
 30
0.0
 10
2.470051
 20
1.199996
 30
0.0
 10
2.700018
 20
1.199996
 30
0.0
 10
2.700018
 20
0.869983
 30
0.0
 10
2.300001
 20
0.869983
 30
0.0
 10
2.300001
 20
0.500008
 30
0.0
 10
2.570041
 20
0.500008
 30
0.0
 10
2.570041
 20
0.670002
 30
0.0
 10
2.485044
 20
0.670002
 30
0.0
 10
2.470051
 20
0.670002
 30
0.0
 10
2.470051
 20
0.699989
 30
0.0
 10
2.485044
 20
0.699989
 30
0.0
 10
2.600027
 20
0.699989
 30
0.0
 10
2.600027
 20
0.470022
 30
0.0
 10
2.270015
 20
0.470022
 30
0.0
 10
2.270015
 20
0.869983
 30
0.0
 10
1.900039
 20
0.869983
 30
0.0
 10
1.900039
 20
0.599998
 30
0.0
 10
2.070034
 20
0.599998
 30
0.0
 10
2.070034
 20
0.684996
 30
0.0
 10
2.070034
 20
0.699989
 30
0.0
 10
2.100020
 20
0.699989
 30
0.0
 10
2.100020
 20
0.684996
 30
0.0
 10
2.100020
 20
0.570012
 30
0.0
 10
1.870053
 20
0.570012
 30
0.0
 10
1.870053
 20
0.900025
 30
0.0
 10
2.270015
 20
0.900025
 30
0.0
 10
2.270015
 20
1.270000
 30
0.0
 10
2.000030
 20
1.270000
 30
0.0
 10
2.000030
 20
1.100006
 30
0.0
 10
2.085027
 20
1.100006
 30
0.0
 10
2.100020
 20
1.100006
 30
0.0
 10
2.100020
 20
1.070019
 30
0.0
 10
2.085027
 20
1.070019
 30
0.0
 10
1.970043
 20
1.070019
 30
0.0
 10
1.970043
 20
1.299986
 30
0.0
 10
1.970043
 20
1.299986
 30
0.0
  0
LWPOLYLINE
  5
113
100
AcDbEntity
  8
Layer_1
 62
7
100
AcDbPolyline
 90
63
 70
1
 10
0.570012
 20
0.799979
 30
0.0
 10
0.885031
 20
0.799979
 30
0.0
 10
0.900024
 20
0.799979
 30
0.0
 10
0.900024
 20
0.784986
 30
0.0
 10
0.900024
 20
0.500008
 30
0.0
 10
0.970029
 20
0.500008
 30
0.0
 10
1.000015
 20
0.500008
 30
0.0
 10
1.270000
 20
0.500008
 30
0.0
 10
1.270000
 20
0.769993
 30
0.0
 10
1.100005
 20
0.769993
 30
0.0
 10
1.100005
 20
0.684996
 30
0.0
 10
1.100005
 20
0.670002
 30
0.0
 10
1.070019
 20
0.670002
 30
0.0
 10
1.070019
 20
0.684996
 30
0.0
 10
1.070019
 20
0.799979
 30
0.0
 10
1.300041
 20
0.799979
 30
0.0
 10
1.300041
 20
0.470022
 30
0.0
 10
1.000015
 20
0.470022
 30
0.0
 10
1.000015
 20
0.400017
 30
0.0
 10
1.000015
 20
0.385024
 30
0.0
 10
1.000015
 20
0.099991
 30
0.0
 10
1.270000
 20
0.099991
 30
0.0
 10
1.270000
 20
0.269986
 30
0.0
 10
1.185003
 20
0.269986
 30
0.0
 10
1.170010
 20
0.269986
 30
0.0
 10
1.170010
 20
0.300027
 30
0.0
 10
1.185003
 20
0.300027
 30
0.0
 10
1.300041
 20
0.300027
 30
0.0
 10
1.300041
 20
0.070005
 30
0.0
 10
0.970029
 20
0.070005
 30
0.0
 10
0.970029
 20
0.370031
 30
0.0
 10
0.970029
 20
0.385024
 30
0.0
 10
0.970029
 20
0.470022
 30
0.0
 10
0.900024
 20
0.470022
 30
0.0
 10
0.900024
 20
0.370031
 30
0.0
 10
0.600053
 20
0.370031
 30
0.0
 10
0.600053
 20
0.099991
 30
0.0
 10
0.770048
 20
0.099991
 30
0.0
 10
0.770048
 20
0.184988
 30
0.0
 10
0.770048
 20
0.199981
 30
0.0
 10
0.800034
 20
0.199981
 30
0.0
 10
0.800034
 20
0.184988
 30
0.0
 10
0.800034
 20
0.070005
 30
0.0
 10
0.570012
 20
0.070005
 30
0.0
 10
0.570012
 20
0.370031
 30
0.0
 10
0.570012
 20
0.385024
 30
0.0
 10
0.570012
 20
0.400017
 30
0.0
 10
0.585005
 20
0.400017
 30
0.0
 10
0.600053
 20
0.400017
 30
0.0
 10
0.870038
 20
0.400017
 30
0.0
 10
0.870038
 20
0.470022
 30
0.0
 10
0.870038
 20
0.485015
 30
0.0
 10
0.870038
 20
0.500008
 30
0.0
 10
0.870038
 20
0.769993
 30
0.0
 10
0.600053
 20
0.769993
 30
0.0
 10
0.600053
 20
0.599998
 30
0.0
 10
0.685050
 20
0.599998
 30
0.0
 10
0.700043
 20
0.599998
 30
0.0
 10
0.700043
 20
0.570012
 30
0.0
 10
0.685050
 20
0.570012
 30
0.0
 10
0.570012
 20
0.570012
 30
0.0
 10
0.570012
 20
0.799979
 30
0.0
 10
0.570012
 20
0.799979
 30
0.0
  0
LWPOLYLINE
  5
114
100
AcDbEntity
  8
Layer_1
 62
7
100
AcDbPolyline
 90
63
 70
1
 10
1.470036
 20
0.799979
 30
0.0
 10
1.785000
 20
0.799979
 30
0.0
 10
1.800049
 20
0.799979
 30
0.0
 10
1.800049
 20
0.784986
 30
0.0
 10
1.800049
 20
0.500008
 30
0.0
 10
1.870053
 20
0.500008
 30
0.0
 10
1.900039
 20
0.500008
 30
0.0
 10
2.170024
 20
0.500008
 30
0.0
 10
2.170024
 20
0.769993
 30
0.0
 10
2.000030
 20
0.769993
 30
0.0
 10
2.000030
 20
0.684996
 30
0.0
 10
2.000030
 20
0.670002
 30
0.0
 10
1.970043
 20
0.670002
 30
0.0
 10
1.970043
 20
0.684996
 30
0.0
 10
1.970043
 20
0.799979
 30
0.0
 10
2.200010
 20
0.799979
 30
0.0
 10
2.200010
 20
0.470022
 30
0.0
 10
1.900039
 20
0.470022
 30
0.0
 10
1.900039
 20
0.400017
 30
0.0
 10
1.900039
 20
0.385024
 30
0.0
 10
1.900039
 20
0.099991
 30
0.0
 10
2.170024
 20
0.099991
 30
0.0
 10
2.170024
 20
0.269986
 30
0.0
 10
2.085027
 20
0.269986
 30
0.0
 10
2.070034
 20
0.269986
 30
0.0
 10
2.070034
 20
0.300027
 30
0.0
 10
2.085027
 20
0.300027
 30
0.0
 10
2.200010
 20
0.300027
 30
0.0
 10
2.200010
 20
0.070005
 30
0.0
 10
1.870053
 20
0.070005
 30
0.0
 10
1.870053
 20
0.370031
 30
0.0
 10
1.870053
 20
0.385024
 30
0.0
 10
1.870053
 20
0.470022
 30
0.0
 10
1.800049
 20
0.470022
 30
0.0
 10
1.800049
 20
0.370031
 30
0.0
 10
1.500022
 20
0.370031
 30
0.0
 10
1.500022
 20
0.099991
 30
0.0
 10
1.670017
 20
0.099991
 30
0.0
 10
1.670017
 20
0.184988
 30
0.0
 10
1.670017
 20
0.199981
 30
0.0
 10
1.700003
 20
0.199981
 30
0.0
 10
1.700003
 20
0.184988
 30
0.0
 10
1.700003
 20
0.070005
 30
0.0
 10
1.470036
 20
0.070005
 30
0.0
 10
1.470036
 20
0.370031
 30
0.0
 10
1.470036
 20
0.385024
 30
0.0
 10
1.470036
 20
0.400017
 30
0.0
 10
1.485029
 20
0.400017
 30
0.0
 10
1.500022
 20
0.400017
 30
0.0
 10
1.770007
 20
0.400017
 30
0.0
 10
1.770007
 20
0.470022
 30
0.0
 10
1.770007
 20
0.485015
 30
0.0
 10
1.770007
 20
0.500008
 30
0.0
 10
1.770007
 20
0.769993
 30
0.0
 10
1.500022
 20
0.769993
 30
0.0
 10
1.500022
 20
0.599998
 30
0.0
 10
1.585020
 20
0.599998
 30
0.0
 10
1.600013
 20
0.599998
 30
0.0
 10
1.600013
 20
0.570012
 30
0.0
 10
1.585020
 20
0.570012
 30
0.0
 10
1.470036
 20
0.570012
 30
0.0
 10
1.470036
 20
0.799979
 30
0.0
 10
1.470036
 20
0.799979
 30
0.0
  0
LWPOLYLINE
  5
115
100
AcDbEntity
  8
Layer_1
 62
7
100
AcDbPolyline
 90
63
 70
1
 10
2.370005
 20
0.799979
 30
0.0
 10
2.685025
 20
0.799979
 30
0.0
 10
2.700018
 20
0.799979
 30
0.0
 10
2.700018
 20
0.784986
 30
0.0
 10
2.700018
 20
0.500008
 30
0.0
 10
2.770022
 20
0.500008
 30
0.0
 10
2.800008
 20
0.500008
 30
0.0
 10
3.070049
 20
0.500008
 30
0.0
 10
3.070049
 20
0.769993
 30
0.0
 10
2.899999
 20
0.769993
 30
0.0
 10
2.899999
 20
0.684996
 30
0.0
 10
2.899999
 20
0.670002
 30
0.0
 10
2.870013
 20
0.670002
 30
0.0
 10
2.870013
 20
0.684996
 30
0.0
 10
2.870013
 20
0.799979
 30
0.0
 10
3.100035
 20
0.799979
 30
0.0
 10
3.100035
 20
0.470022
 30
0.0
 10
2.800008
 20
0.470022
 30
0.0
 10
2.800008
 20
0.400017
 30
0.0
 10
2.800008
 20
0.385024
 30
0.0
 10
2.800008
 20
0.099991
 30
0.0
 10
3.070049
 20
0.099991
 30
0.0
 10
3.070049
 20
0.269986
 30
0.0
 10
2.985051
 20
0.269986
 30
0.0
 10
2.970003
 20
0.269986
 30
0.0
 10
2.970003
 20
0.300027
 30
0.0
 10
2.985051
 20
0.300027
 30
0.0
 10
3.100035
 20
0.300027
 30
0.0
 10
3.100035
 20
0.070005
 30
0.0
 10
2.770022
 20
0.070005
 30
0.0
 10
2.770022
 20
0.370031
 30
0.0
 10
2.770022
 20
0.385024
 30
0.0
 10
2.770022
 20
0.470022
 30
0.0
 10
2.700018
 20
0.470022
 30
0.0
 10
2.700018
 20
0.370031
 30
0.0
 10
2.400046
 20
0.370031
 30
0.0
 10
2.400046
 20
0.099991
 30
0.0
 10
2.570041
 20
0.099991
 30
0.0
 10
2.570041
 20
0.184988
 30
0.0
 10
2.570041
 20
0.199981
 30
0.0
 10
2.600027
 20
0.199981
 30
0.0
 10
2.600027
 20
0.184988
 30
0.0
 10
2.600027
 20
0.070005
 30
0.0
 10
2.370005
 20
0.070005
 30
0.0
 10
2.370005
 20
0.370031
 30
0.0
 10
2.370005
 20
0.385024
 30
0.0
 10
2.370005
 20
0.400017
 30
0.0
 10
2.385053
 20
0.400017
 30
0.0
 10
2.400046
 20
0.400017
 30
0.0
 10
2.670032
 20
0.400017
 30
0.0
 10
2.670032
 20
0.470022
 30
0.0
 10
2.670032
 20
0.485015
 30
0.0
 10
2.670032
 20
0.500008
 30
0.0
 10
2.670032
 20
0.769993
 30
0.0
 10
2.400046
 20
0.769993
 30
0.0
 10
2.400046
 20
0.599998
 30
0.0
 10
2.485044
 20
0.599998
 30
0.0
 10
2.500037
 20
0.599998
 30
0.0
 10
2.500037
 20
0.570012
 30
0.0
 10
2.485044
 20
0.570012
 30
0.0
 10
2.370005
 20
0.570012
 30
0.0
 10
2.370005
 20
0.799979
 30
0.0
 10
2.370005
 20
0.799979
 30
0.0
  0
ENDSEC
  0
SECTION
  2
OBJECTS
  0
DICTIONARY
  5
C
330
0
100
AcDbDictionary
  3
ACAD_GROUP
350
D
  3
ACAD_MLINESTYLE
350
17
  0
DICTIONARY
  5
D
330
C
100
AcDbDictionary
  0
DICTIONARY
  5
1A
330
C
100
AcDbDictionary
  0
DICTIONARY
  5
17
330
C
100
AcDbDictionary
  3
STANDARD
350
18
  0
DICTIONARY
  5
19
330
C
100
AcDbDictionary
  0
ENDSEC
  0
EOF
