  0
SECTION
  2
HEADER
  9
$ACADVER
  1
AC1014
  9
$HANDSEED
  5
FFFF
  9
$MEASUREMENT
 70
     1
  0
ENDSEC
  0
SECTION
  2
TABLES
  0
TABLE
  2
VPORT
  5
8
330
0
100
AcDbSymbolTable
 70
     4
  0
VPORT
  5
2E
330
8
100
AcDbSymbolTableRecord
100
AcDbViewportTableRecord
  2
*ACTIVE
 70
     0
 10
0.0
 20
0.0
 11
1.0
 21
1.0
 12
210.0
 22
148.5
 13
0.0
 23
0.0
 14
10.0
 24
10.0
 15
10.0
 25
10.0
 16
0.0
 26
0.0
 36
1.0
 17
0.0
 27
0.0
 37
0.0
 40
341.0
 41
1.24
 42
50.0
 43
0.0
 44
0.0
 50
0.0
 51
0.0
 71
     0
 72
   100
 73
     1
 74
     3
 75
     0
 76
     0
 77
     0
 78
     0
  0
ENDTAB
  0
TABLE
  2
LTYPE
  5
5
330
0
100
AcDbSymbolTable
 70
     1
  0
LTYPE
  5
14
330
5
100
AcDbSymbolTableRecord
100
AcDbLinetypeTableRecord
  2
BYBLOCK
 70
     0
  3

 72
    65
 73
     0
 40
0.0
  0
LTYPE
  5
15
330
5
100
AcDbSymbolTableRecord
100
AcDbLinetypeTableRecord
  2
BYLAYER
 70
     0
  3

 72
    65
 73
     0
 40
0.0
  0
LTYPE
  5
16
330
5
100
AcDbSymbolTableRecord
100
AcDbLinetypeTableRecord
  2
CONTINUOUS
 70
     0
  3
Solid line
 72
    65
 73
     0
 40
0.0
  0
ENDTAB
  0
TABLE
  2
LAYER
  5
2
100
AcDbSymbolTable
 70
2
  0
LAYER
  5
50
100
AcDbSymbolTableRecord
100
AcDbLayerTableRecord
  2
0
 70
0
  6
CONTINUOUS
  0
LAYER
  5
51
100
AcDbSymbolTableRecord
100
AcDbLayerTableRecord
  2
Layer_1
 70
0
  6
CONTINUOUS
  0
ENDTAB
  0
TABLE
  2
STYLE
  5
3
330
0
100
AcDbSymbolTable
 70
     1
  0
STYLE
  5
11
330
3
100
AcDbSymbolTableRecord
100
AcDbTextStyleTableRecord
  2
STANDARD
 70
     0
 40
0.0
 41
1.0
 50
0.0
 71
     0
 42
2.5
  3
txt
  4

  0
ENDTAB
  0
TABLE
  2
VIEW
  5
6
330
0
100
AcDbSymbolTable
 70
     0
  0
ENDTAB
  0
TABLE
  2
UCS
  5
7
330
0
100
AcDbSymbolTable
 70
     0
  0
ENDTAB
  0
TABLE
  2
APPID
  5
9
330
0
100
AcDbSymbolTable
 70
     2
  0
APPID
  5
12
330
9
100
AcDbSymbolTableRecord
100
AcDbRegAppTableRecord
  2
ACAD
 70
     0
  0
ENDTAB
  0
TABLE
  2
DIMSTYLE
  5
A
330
0
100
AcDbSymbolTable
 70
     1
  0
DIMSTYLE
105
27
330
A
100
AcDbSymbolTableRecord
100
AcDbDimStyleTableRecord
  2
ISO-25
 70
     0
  3

  4

  5

  6

  7

 40
1.0
 41
2.5
 42
0.625
 43
3.75
 44
1.25
 45
0.0
 46
0.0
 47
0.0
 48
0.0
140
2.5
141
2.5
142
0.0
143
0.03937007874016
144
1.0
145
0.0
146
1.0
147
0.625
 71
     0
 72
     0
 73
     0
 74
     0
 75
     0
 76
     0
 77
     1
 78
     8
170
     0
171
     3
172
     1
173
     0
174
     0
175
     0
176
     0
177
     0
178
     0
270
     2
271
     2
272
     2
273
     2
274
     3
340
11
275
     0
280
     0
281
     0
282
     0
283
     0
284
     8
285
     0
286
     0
287
     3
288
     0
  0
ENDTAB
  0
TABLE
  2
BLOCK_RECORD
  5
1
330
0
100
AcDbSymbolTable
 70
     1
  0
BLOCK_RECORD
  5
1F
330
1
100
AcDbSymbolTableRecord
100
AcDbBlockTableRecord
  2
*MODEL_SPACE
  0
BLOCK_RECORD
  5
1B
330
1
100
AcDbSymbolTableRecord
100
AcDbBlockTableRecord
  2
*PAPER_SPACE
  0
ENDTAB
  0
ENDSEC
  0
SECTION
  2
BLOCKS
  0
BLOCK
  5
20
330
1F
100
AcDbEntity
  8
0
100
AcDbBlockBegin
  2
*MODEL_SPACE
 70
     0
 10
0.0
 20
0.0
 30
0.0
  3
*MODEL_SPACE
  1

  0
ENDBLK
  5
21
330
1F
100
AcDbEntity
  8
0
100
AcDbBlockEnd
  0
BLOCK
  5
1C
330
1B
100
AcDbEntity
 67
     1
  8
0
100
AcDbBlockBegin
  2
*PAPER_SPACE
  1

  0
ENDBLK
  5
1D
330
1B
100
AcDbEntity
 67
     1
  8
0
100
AcDbBlockEnd
  0
ENDSEC
  0
SECTION
  2
ENTITIES
  0
LWPOLYLINE
  5
100
100
AcDbEntity
  8
Layer_1
 62
7
100
AcDbPolyline
 90
6
 70
0
 10
-0.000001
 20
8.300023
 30
0.0
 10
-0.000001
 20
7.100027
 30
0.0
 10
21.999995
 20
7.100027
 30
0.0
 10
21.999995
 20
8.300023
 30
0.0
 10
-0.000001
 20
8.300023
 30
0.0
 10
-0.000001
 20
8.300023
 30
0.0
  0
LWPOLYLINE
  5
101
100
AcDbEntity
  8
Layer_1
 62
7
100
AcDbPolyline
 90
15
 70
0
 10
0.149986
 20
8.149982
 30
0.0
 10
0.373944
 20
8.149982
 30
0.0
 10
0.610581
 20
7.546512
 30
0.0
 10
0.858022
 20
8.149982
 30
0.0
 10
1.009717
 20
8.149982
 30
0.0
 10
1.262557
 20
7.546512
 30
0.0
 10
1.488335
 20
8.149982
 30
0.0
 10
1.681592
 20
8.149982
 30
0.0
 10
1.322145
 20
7.250013
 30
0.0
 10
1.175853
 20
7.250013
 30
0.0
 10
0.919426
 20
7.872666
 30
0.0
 10
0.659307
 20
7.250013
 30
0.0
 10
0.509433
 20
7.250013
 30
0.0
 10
0.149986
 20
8.149982
 30
0.0
 10
0.149986
 20
8.149982
 30
0.0
  0
LWPOLYLINE
  5
102
100
AcDbEntity
  8
Layer_1
 62
7
100
AcDbPolyline
 90
30
 70
0
 10
2.023896
 20
8.149982
 30
0.0
 10
2.687506
 20
8.149982
 30
0.0
 10
2.687506
 20
7.996524
 30
0.0
 10
2.088997
 20
7.996524
 30
0.0
 10
2.058954
 20
7.989854
 30
0.0
 10
2.031999
 20
7.970837
 30
0.0
 10
2.014597
 20
7.944070
 30
0.0
 10
2.007525
 20
7.911361
 30
0.0
 10
2.007525
 20
7.795937
 30
0.0
 10
2.404180
 20
7.795937
 30
0.0
 10
2.404180
 20
7.642423
 30
0.0
 10
2.007525
 20
7.642423
 30
0.0
 10
2.007525
 20
7.504399
 30
0.0
 10
2.014600
 20
7.471690
 30
0.0
 10
2.031999
 20
7.444923
 30
0.0
 10
2.058954
 20
7.425906
 30
0.0
 10
2.090098
 20
7.419181
 30
0.0
 10
2.695828
 20
7.419181
 30
0.0
 10
2.695828
 20
7.250013
 30
0.0
 10
2.023896
 20
7.250013
 30
0.0
 10
1.939510
 20
7.267753
 30
0.0
 10
1.870739
 20
7.316191
 30
0.0
 10
1.824445
 20
7.388149
 30
0.0
 10
1.807489
 20
7.476452
 30
0.0
 10
1.807489
 20
7.923543
 30
0.0
 10
1.824445
 20
8.011846
 30
0.0
 10
1.870739
 20
8.083804
 30
0.0
 10
1.939510
 20
8.132242
 30
0.0
 10
2.023896
 20
8.149982
 30
0.0
 10
2.023896
 20
8.149982
 30
0.0
  0
LWPOLYLINE
  5
103
100
AcDbEntity
  8
Layer_1
 62
7
100
AcDbPolyline
 90
11
 70
0
 10
2.820017
 20
8.149982
 30
0.0
 10
3.086695
 20
8.149982
 30
0.0
 10
3.381761
 20
7.804646
 30
0.0
 10
3.678424
 20
8.149982
 30
0.0
 10
3.913408
 20
8.149982
 30
0.0
 10
3.468412
 20
7.658133
 30
0.0
 10
3.468412
 20
7.250013
 30
0.0
 10
3.266721
 20
7.250013
 30
0.0
 10
3.266721
 20
7.652896
 30
0.0
 10
2.820017
 20
8.149982
 30
0.0
 10
2.820017
 20
8.149982
 30
0.0
  0
LWPOLYLINE
  5
104
100
AcDbEntity
  8
Layer_1
 62
7
100
AcDbPolyline
 90
16
 70
0
 10
4.105946
 20
8.149982
 30
0.0
 10
4.305982
 20
8.149982
 30
0.0
 10
4.305982
 20
7.507155
 30
0.0
 10
4.312759
 20
7.472846
 30
0.0
 10
4.330733
 20
7.444868
 30
0.0
 10
4.357688
 20
7.425851
 30
0.0
 10
4.388391
 20
7.419181
 30
0.0
 10
4.951015
 20
7.419181
 30
0.0
 10
4.951015
 20
7.250013
 30
0.0
 10
4.322354
 20
7.250013
 30
0.0
 10
4.237967
 20
7.267745
 30
0.0
 10
4.169196
 20
7.316163
 30
0.0
 10
4.122902
 20
7.388102
 30
0.0
 10
4.105946
 20
7.476397
 30
0.0
 10
4.105946
 20
8.149982
 30
0.0
 10
4.105946
 20
8.149982
 30
0.0
  0
LWPOLYLINE
  5
105
100
AcDbEntity
  8
Layer_1
 62
7
100
AcDbPolyline
 90
16
 70
0
 10
5.606412
 20
8.149982
 30
0.0
 10
5.686447
 20
8.149982
 30
0.0
 10
5.734512
 20
8.138517
 30
0.0
 10
5.759870
 20
8.117571
 30
0.0
 10
5.766318
 20
8.107373
 30
0.0
 10
6.236283
 20
7.250013
 30
0.0
 10
6.011279
 20
7.250013
 30
0.0
 10
5.907926
 20
7.447072
 30
0.0
 10
5.362885
 20
7.447072
 30
0.0
 10
5.262893
 20
7.250013
 30
0.0
 10
5.062857
 20
7.250013
 30
0.0
 10
5.526483
 20
8.107263
 30
0.0
 10
5.532988
 20
8.117571
 30
0.0
 10
5.558343
 20
8.138517
 30
0.0
 10
5.606412
 20
8.149982
 30
0.0
 10
5.606412
 20
8.149982
 30
0.0
  0
LWPOLYLINE
  5
106
100
AcDbEntity
  8
Layer_1
 62
7
100
AcDbPolyline
 90
30
 70
0
 10
6.514814
 20
8.149982
 30
0.0
 10
6.546310
 20
8.144999
 30
0.0
 10
6.574510
 20
8.130690
 30
0.0
 10
7.157530
 20
7.619768
 30
0.0
 10
7.255868
 20
7.522093
 30
0.0
 10
7.247599
 20
7.677315
 30
0.0
 10
7.247599
 20
8.149982
 30
0.0
 10
7.427572
 20
8.149982
 30
0.0
 10
7.427572
 20
7.344712
 30
0.0
 10
7.427572
 20
7.342673
 30
0.0
 10
7.427572
 20
7.342673
 30
0.0
 10
7.419203
 20
7.306493
 30
0.0
 10
7.397877
 20
7.277065
 30
0.0
 10
7.366677
 20
7.257276
 30
0.0
 10
7.328684
 20
7.250013
 30
0.0
 10
7.297645
 20
7.254851
 30
0.0
 10
7.269758
 20
7.268755
 30
0.0
 10
7.269471
 20
7.268883
 30
0.0
 10
6.659171
 20
7.806426
 30
0.0
 10
6.587512
 20
7.879683
 30
0.0
 10
6.595838
 20
7.741879
 30
0.0
 10
6.595838
 20
7.250029
 30
0.0
 10
6.415811
 20
7.250029
 30
0.0
 10
6.415811
 20
8.057946
 30
0.0
 10
6.416098
 20
8.057946
 30
0.0
 10
6.424638
 20
8.093919
 30
0.0
 10
6.445990
 20
8.123146
 30
0.0
 10
6.477105
 20
8.142786
 30
0.0
 10
6.514933
 20
8.149998
 30
0.0
 10
6.514814
 20
8.149982
 30
0.0
  0
LWPOLYLINE
  5
107
100
AcDbEntity
  8
Layer_1
 62
7
100
AcDbPolyline
 90
21
 70
0
 10
7.658531
 20
8.149982
 30
0.0
 10
8.211895
 20
8.149982
 30
0.0
 10
8.317525
 20
8.143446
 30
0.0
 10
8.411073
 20
8.123834
 30
0.0
 10
8.492537
 20
8.091141
 30
0.0
 10
8.561916
 20
8.045361
 30
0.0
 10
8.623896
 20
7.980930
 30
0.0
 10
8.668166
 20
7.902754
 30
0.0
 10
8.694727
 20
7.810844
 30
0.0
 10
8.703580
 20
7.705207
 30
0.0
 10
8.691705
 20
7.583006
 30
0.0
 10
8.656079
 20
7.478027
 30
0.0
 10
8.596702
 20
7.390272
 30
0.0
 10
8.513574
 20
7.319742
 30
0.0
 10
8.450866
 20
7.289225
 30
0.0
 10
8.371078
 20
7.267436
 30
0.0
 10
8.274206
 20
7.254368
 30
0.0
 10
8.160246
 20
7.250013
 30
0.0
 10
7.658531
 20
7.250013
 30
0.0
 10
7.658531
 20
8.149982
 30
0.0
 10
7.658531
 20
8.149982
 30
0.0
  0
LWPOLYLINE
  5
108
100
AcDbEntity
  8
Layer_1
 62
7
100
AcDbPolyline
 90
11
 70
0
 10
9.500691
 20
8.149982
 30
0.0
 10
9.767369
 20
8.149982
 30
0.0
 10
10.062378
 20
7.804646
 30
0.0
 10
10.359099
 20
8.149982
 30
0.0
 10
10.594082
 20
8.149982
 30
0.0
 10
10.149086
 20
7.658133
 30
0.0
 10
10.149086
 20
7.250013
 30
0.0
 10
9.947396
 20
7.250013
 30
0.0
 10
9.947396
 20
7.652896
 30
0.0
 10
9.500691
 20
8.149982
 30
0.0
 10
9.500691
 20
8.149982
 30
0.0
  0
LWPOLYLINE
  5
109
100
AcDbEntity
  8
Layer_1
 62
7
100
AcDbPolyline
 90
20
 70
0
 10
10.786620
 20
8.149982
 30
0.0
 10
10.986656
 20
8.149982
 30
0.0
 10
10.986656
 20
7.419181
 30
0.0
 10
11.556669
 20
7.419181
 30
0.0
 10
11.556669
 20
8.149982
 30
0.0
 10
11.756705
 20
8.149982
 30
0.0
 10
11.756705
 20
7.462782
 30
0.0
 10
11.745028
 20
7.357704
 30
0.0
 10
11.730438
 20
7.320537
 30
0.0
 10
11.710017
 20
7.293614
 30
0.0
 10
11.645840
 20
7.260913
 30
0.0
 10
11.543328
 20
7.250013
 30
0.0
 10
10.999997
 20
7.250013
 30
0.0
 10
10.897074
 20
7.260913
 30
0.0
 10
10.831657
 20
7.293614
 30
0.0
 10
10.811963
 20
7.320537
 30
0.0
 10
10.797888
 20
7.357704
 30
0.0
 10
10.786620
 20
7.462782
 30
0.0
 10
10.786620
 20
8.149982
 30
0.0
 10
10.786620
 20
8.149982
 30
0.0
  0
LWPOLYLINE
  5
10a
100
AcDbEntity
  8
Layer_1
 62
7
100
AcDbPolyline
 90
10
 70
0
 10
11.960656
 20
8.149982
 30
0.0
 10
12.952345
 20
8.149982
 30
0.0
 10
12.952345
 20
7.989523
 30
0.0
 10
12.555637
 20
7.989523
 30
0.0
 10
12.555637
 20
7.250013
 30
0.0
 10
12.355657
 20
7.250013
 30
0.0
 10
12.355657
 20
7.989523
 30
0.0
 10
11.960656
 20
7.989523
 30
0.0
 10
11.960656
 20
8.149982
 30
0.0
 10
11.960656
 20
8.149982
 30
0.0
  0
LWPOLYLINE
  5
10b
100
AcDbEntity
  8
Layer_1
 62
7
100
AcDbPolyline
 90
16
 70
0
 10
13.422920
 20
8.149982
 30
0.0
 10
13.503009
 20
8.149982
 30
0.0
 10
13.551077
 20
8.138517
 30
0.0
 10
13.576488
 20
8.117571
 30
0.0
 10
13.582164
 20
8.108586
 30
0.0
 10
14.052848
 20
7.250013
 30
0.0
 10
13.827841
 20
7.250013
 30
0.0
 10
13.724488
 20
7.447072
 30
0.0
 10
13.179503
 20
7.447072
 30
0.0
 10
13.079455
 20
7.250013
 30
0.0
 10
12.879475
 20
7.250013
 30
0.0
 10
13.343655
 20
8.108421
 30
0.0
 10
13.349441
 20
8.117571
 30
0.0
 10
13.374852
 20
8.138517
 30
0.0
 10
13.422920
 20
8.149982
 30
0.0
 10
13.422920
 20
8.149982
 30
0.0
  0
LWPOLYLINE
  5
10c
100
AcDbEntity
  8
Layer_1
 62
7
100
AcDbPolyline
 90
28
 70
0
 10
14.388704
 20
8.149982
 30
0.0
 10
14.420199
 20
8.144999
 30
0.0
 10
14.448400
 20
8.130690
 30
0.0
 10
15.031420
 20
7.619768
 30
0.0
 10
15.129701
 20
7.522093
 30
0.0
 10
15.121435
 20
7.677315
 30
0.0
 10
15.121435
 20
8.149982
 30
0.0
 10
15.301405
 20
8.149982
 30
0.0
 10
15.301405
 20
7.342672
 30
0.0
 10
15.301405
 20
7.342672
 30
0.0
 10
15.293036
 20
7.306492
 30
0.0
 10
15.271710
 20
7.277064
 30
0.0
 10
15.240509
 20
7.257275
 30
0.0
 10
15.202514
 20
7.250013
 30
0.0
 10
15.171379
 20
7.254879
 30
0.0
 10
15.143426
 20
7.268864
 30
0.0
 10
14.533177
 20
7.806410
 30
0.0
 10
14.461517
 20
7.879666
 30
0.0
 10
14.469843
 20
7.741862
 30
0.0
 10
14.469843
 20
7.250013
 30
0.0
 10
14.289814
 20
7.250013
 30
0.0
 10
14.289814
 20
8.057929
 30
0.0
 10
14.290101
 20
8.057929
 30
0.0
 10
14.298641
 20
8.093903
 30
0.0
 10
14.319993
 20
8.123130
 30
0.0
 10
14.351108
 20
8.142770
 30
0.0
 10
14.388935
 20
8.149982
 30
0.0
 10
14.388704
 20
8.149982
 30
0.0
  0
LWPOLYLINE
  5
10d
100
AcDbEntity
  8
Layer_1
 62
7
100
AcDbPolyline
 90
6
 70
0
 10
15.643766
 20
8.149982
 30
0.0
 10
15.843746
 20
8.149982
 30
0.0
 10
15.843746
 20
7.250013
 30
0.0
 10
15.643766
 20
7.250013
 30
0.0
 10
15.643766
 20
8.149982
 30
0.0
 10
15.643766
 20
8.149982
 30
0.0
  0
LWPOLYLINE
  5
10e
100
AcDbEntity
  8
Layer_1
 62
7
100
AcDbPolyline
 90
20
 70
0
 10
17.099194
 20
8.149982
 30
0.0
 10
17.827017
 20
8.149982
 30
0.0
 10
17.827017
 20
7.989523
 30
0.0
 10
17.085800
 20
7.989523
 30
0.0
 10
17.085800
 20
7.419181
 30
0.0
 10
17.827017
 20
7.419181
 30
0.0
 10
17.827017
 20
7.250013
 30
0.0
 10
17.099194
 20
7.250013
 30
0.0
 10
16.996245
 20
7.260913
 30
0.0
 10
16.930798
 20
7.293614
 30
0.0
 10
16.911112
 20
7.320537
 30
0.0
 10
16.897057
 20
7.357704
 30
0.0
 10
16.885818
 20
7.462782
 30
0.0
 10
16.885818
 20
7.937213
 30
0.0
 10
16.897057
 20
8.042291
 30
0.0
 10
16.911112
 20
8.079458
 30
0.0
 10
16.930798
 20
8.106381
 30
0.0
 10
16.996245
 20
8.139082
 30
0.0
 10
17.099194
 20
8.149982
 30
0.0
 10
17.099194
 20
8.149982
 30
0.0
  0
LWPOLYLINE
  5
10f
100
AcDbEntity
  8
Layer_1
 62
7
100
AcDbPolyline
 90
26
 70
0
 10
18.393282
 20
8.149982
 30
0.0
 10
19.026628
 20
8.149982
 30
0.0
 10
19.129140
 20
8.139082
 30
0.0
 10
19.193315
 20
8.106381
 30
0.0
 10
19.213728
 20
8.079458
 30
0.0
 10
19.228300
 20
8.042291
 30
0.0
 10
19.239949
 20
7.937213
 30
0.0
 10
19.239949
 20
7.462782
 30
0.0
 10
19.228300
 20
7.357704
 30
0.0
 10
19.213728
 20
7.320537
 30
0.0
 10
19.193315
 20
7.293614
 30
0.0
 10
19.129140
 20
7.260913
 30
0.0
 10
19.026628
 20
7.250013
 30
0.0
 10
18.393282
 20
7.250013
 30
0.0
 10
18.290360
 20
7.260913
 30
0.0
 10
18.224940
 20
7.293614
 30
0.0
 10
18.205246
 20
7.320537
 30
0.0
 10
18.191172
 20
7.357704
 30
0.0
 10
18.179905
 20
7.462782
 30
0.0
 10
18.179905
 20
7.937213
 30
0.0
 10
18.191172
 20
8.042291
 30
0.0
 10
18.205246
 20
8.079458
 30
0.0
 10
18.224940
 20
8.106381
 30
0.0
 10
18.290360
 20
8.139082
 30
0.0
 10
18.393282
 20
8.149982
 30
0.0
 10
18.393282
 20
8.149982
 30
0.0
  0
LWPOLYLINE
  5
110
100
AcDbEntity
  8
Layer_1
 62
7
100
AcDbPolyline
 90
21
 70
0
 10
19.622603
 20
8.149982
 30
0.0
 10
20.359301
 20
8.149982
 30
0.0
 10
20.443885
 20
8.139083
 30
0.0
 10
20.504293
 20
8.106384
 30
0.0
 10
20.540534
 20
8.051883
 30
0.0
 10
20.552612
 20
7.975578
 30
0.0
 10
20.552612
 20
7.764517
 30
0.0
 10
20.546364
 20
7.705323
 30
0.0
 10
20.527619
 20
7.658552
 30
0.0
 10
20.496372
 20
7.624208
 30
0.0
 10
20.452621
 20
7.602295
 30
0.0
 10
20.381799
 20
7.593151
 30
0.0
 10
20.245972
 20
7.590113
 30
0.0
 10
20.642627
 20
7.250013
 30
0.0
 10
20.355940
 20
7.250013
 30
0.0
 10
20.009281
 20
7.590113
 30
0.0
 10
19.819275
 20
7.590113
 30
0.0
 10
19.819275
 20
7.250013
 30
0.0
 10
19.622603
 20
7.250013
 30
0.0
 10
19.622603
 20
8.149982
 30
0.0
 10
19.622603
 20
8.149982
 30
0.0
  0
LWPOLYLINE
  5
111
100
AcDbEntity
  8
Layer_1
 62
7
100
AcDbPolyline
 90
16
 70
0
 10
20.919942
 20
8.149982
 30
0.0
 10
21.656640
 20
8.149982
 30
0.0
 10
21.741232
 20
8.139083
 30
0.0
 10
21.801660
 20
8.106384
 30
0.0
 10
21.837920
 20
8.051883
 30
0.0
 10
21.850008
 20
7.975578
 30
0.0
 10
21.850008
 20
7.774990
 30
0.0
 10
21.837920
 20
7.698685
 30
0.0
 10
21.801660
 20
7.644184
 30
0.0
 10
21.741232
 20
7.611485
 30
0.0
 10
21.656640
 20
7.600586
 30
0.0
 10
21.116616
 20
7.600586
 30
0.0
 10
21.116616
 20
7.250013
 30
0.0
 10
20.919942
 20
7.250013
 30
0.0
 10
20.919942
 20
8.149982
 30
0.0
 10
20.919942
 20
8.149982
 30
0.0
  0
LWPOLYLINE
  5
112
100
AcDbEntity
  8
Layer_1
 62
7
100
AcDbPolyline
 90
12
 70
0
 10
19.819275
 20
7.994760
 30
0.0
 10
19.819275
 20
7.743571
 30
0.0
 10
20.269287
 20
7.743571
 30
0.0
 10
20.334277
 20
7.755808
 30
0.0
 10
20.353040
 20
7.777615
 30
0.0
 10
20.359301
 20
7.815119
 30
0.0
 10
20.359301
 20
7.923267
 30
0.0
 10
20.353040
 20
7.960744
 30
0.0
 10
20.334277
 20
7.982523
 30
0.0
 10
20.269287
 20
7.994760
 30
0.0
 10
19.819275
 20
7.994760
 30
0.0
 10
19.819275
 20
7.994760
 30
0.0
  0
LWPOLYLINE
  5
113
100
AcDbEntity
  8
Layer_1
 62
7
100
AcDbPolyline
 90
12
 70
0
 10
21.116616
 20
7.994760
 30
0.0
 10
21.116616
 20
7.755808
 30
0.0
 10
21.566685
 20
7.755808
 30
0.0
 10
21.631672
 20
7.767990
 30
0.0
 10
21.650408
 20
7.789797
 30
0.0
 10
21.656640
 20
7.827301
 30
0.0
 10
21.656640
 20
7.923267
 30
0.0
 10
21.650407
 20
7.960744
 30
0.0
 10
21.631672
 20
7.982523
 30
0.0
 10
21.566685
 20
7.994760
 30
0.0
 10
21.116616
 20
7.994760
 30
0.0
 10
21.116616
 20
7.994760
 30
0.0
  0
LWPOLYLINE
  5
114
100
AcDbEntity
  8
Layer_1
 62
7
100
AcDbPolyline
 90
20
 70
0
 10
7.858564
 20
7.989523
 30
0.0
 10
7.858564
 20
7.419181
 30
0.0
 10
8.116919
 20
7.419181
 30
0.0
 10
8.275261
 20
7.431391
 30
0.0
 10
8.335681
 20
7.446652
 30
0.0
 10
8.383599
 20
7.468019
 30
0.0
 10
8.433184
 20
7.507920
 30
0.0
 10
8.468599
 20
7.561342
 30
0.0
 10
8.489846
 20
7.628282
 30
0.0
 10
8.496929
 20
7.708734
 30
0.0
 10
8.492500
 20
7.774548
 30
0.0
 10
8.479214
 20
7.831585
 30
0.0
 10
8.457072
 20
7.879846
 30
0.0
 10
8.426075
 20
7.919331
 30
0.0
 10
8.386224
 20
7.950041
 30
0.0
 10
8.337518
 20
7.971976
 30
0.0
 10
8.279960
 20
7.985136
 30
0.0
 10
8.213549
 20
7.989523
 30
0.0
 10
7.858564
 20
7.989523
 30
0.0
 10
7.858564
 20
7.989523
 30
0.0
  0
LWPOLYLINE
  5
115
100
AcDbEntity
  8
Layer_1
 62
7
100
AcDbPolyline
 90
6
 70
0
 10
18.379942
 20
7.989523
 30
0.0
 10
18.379942
 20
7.419181
 30
0.0
 10
19.039969
 20
7.419181
 30
0.0
 10
19.039969
 20
7.989523
 30
0.0
 10
18.379942
 20
7.989523
 30
0.0
 10
18.379942
 20
7.989523
 30
0.0
  0
LWPOLYLINE
  5
116
100
AcDbEntity
  8
Layer_1
 62
7
100
AcDbPolyline
 90
5
 70
0
 10
5.639592
 20
7.975578
 30
0.0
 10
5.447935
 20
7.609295
 30
0.0
 10
5.824581
 20
7.609295
 30
0.0
 10
5.639592
 20
7.975578
 30
0.0
 10
5.639592
 20
7.975578
 30
0.0
  0
LWPOLYLINE
  5
117
100
AcDbEntity
  8
Layer_1
 62
7
100
AcDbPolyline
 90
5
 70
0
 10
13.456157
 20
7.975578
 30
0.0
 10
13.264444
 20
7.609295
 30
0.0
 10
13.641145
 20
7.609295
 30
0.0
 10
13.456157
 20
7.975578
 30
0.0
 10
13.456157
 20
7.975578
 30
0.0
  0
LWPOLYLINE
  5
118
100
AcDbEntity
  8
Layer_1
 62
7
100
AcDbPolyline
 90
6
 70
0
 10
9.057789
 20
7.804646
 30
0.0
 10
9.446177
 20
7.804646
 30
0.0
 10
9.446177
 20
7.625005
 30
0.0
 10
9.057789
 20
7.625005
 30
0.0
 10
9.057789
 20
7.804646
 30
0.0
 10
9.057789
 20
7.804646
 30
0.0
  0
LWPOLYLINE
  5
119
100
AcDbEntity
  8
Layer_1
 62
7
100
AcDbPolyline
 90
17
 70
0
 10
0.000015
 20
6.368980
 30
0.0
 10
0.000015
 20
5.316492
 30
0.0
 10
5.316504
 20
0.000000
 30
0.0
 10
7.392018
 20
0.000000
 30
0.0
 10
11.000014
 20
3.608057
 30
0.0
 10
14.608007
 20
0.000000
 30
0.0
 10
16.683521
 20
0.000000
 30
0.0
 10
22.000015
 20
5.316492
 30
0.0
 10
22.000015
 20
6.368980
 30
0.0
 10
19.449375
 20
6.368980
 30
0.0
 10
15.645765
 20
2.565431
 30
0.0
 10
11.842216
 20
6.368980
 30
0.0
 10
11.000014
 20
6.368980
 30
0.0
 10
10.157812
 20
6.368980
 30
0.0
 10
6.354263
 20
2.565431
 30
0.0
 10
2.550653
 20
6.368980
 30
0.0
 10
0.000015
 20
6.368980
 30
0.0
  0
LWPOLYLINE
  5
11a
100
AcDbEntity
  8
Layer_1
 62
7
100
AcDbPolyline
 90
6
 70
0
 10
4.761799
 20
6.368980
 30
0.0
 10
4.761799
 20
5.546502
 30
0.0
 10
6.376359
 20
3.931942
 30
0.0
 10
8.028494
 20
5.584077
 30
0.0
 10
7.243590
 20
6.368980
 30
0.0
 10
4.761799
 20
6.368980
 30
0.0
  0
LWPOLYLINE
  5
11b
100
AcDbEntity
  8
Layer_1
 62
7
100
AcDbPolyline
 90
6
 70
0
 10
14.756438
 20
6.368980
 30
0.0
 10
13.971534
 20
5.584077
 30
0.0
 10
15.623670
 20
3.931942
 30
0.0
 10
17.238229
 20
5.546502
 30
0.0
 10
17.238229
 20
6.368980
 30
0.0
 10
14.756438
 20
6.368980
 30
0.0
  0
LWPOLYLINE
  5
11c
100
AcDbEntity
  8
Layer_1
 62
7
100
AcDbPolyline
 90
9
 70
0
 10
11.000014
 20
2.263579
 30
0.0
 10
9.567589
 20
0.831155
 30
0.0
 10
9.567589
 20
0.740711
 30
0.0
 10
9.567589
 20
0.000000
 30
0.0
 10
11.000014
 20
0.000000
 30
0.0
 10
12.432439
 20
0.000000
 30
0.0
 10
12.432439
 20
0.740711
 30
0.0
 10
12.432439
 20
0.831155
 30
0.0
 10
11.000014
 20
2.263579
 30
0.0
  0
ENDSEC
  0
SECTION
  2
OBJECTS
  0
DICTIONARY
  5
C
330
0
100
AcDbDictionary
  3
ACAD_GROUP
350
D
  3
ACAD_MLINESTYLE
350
17
  0
DICTIONARY
  5
D
330
C
100
AcDbDictionary
  0
DICTIONARY
  5
1A
330
C
100
AcDbDictionary
  0
DICTIONARY
  5
17
330
C
100
AcDbDictionary
  3
STANDARD
350
18
  0
DICTIONARY
  5
19
330
C
100
AcDbDictionary
  0
ENDSEC
  0
EOF
