  0
SECTION
  2
HEADER
  9
$ACADVER
  1
AC1014
  9
$HANDSEED
  5
FFFF
  9
$MEASUREMENT
 70
     1
  0
ENDSEC
  0
SECTION
  2
TABLES
  0
TABLE
  2
VPORT
  5
8
330
0
100
AcDbSymbolTable
 70
     4
  0
VPORT
  5
2E
330
8
100
AcDbSymbolTableRecord
100
AcDbViewportTableRecord
  2
*ACTIVE
 70
     0
 10
0.0
 20
0.0
 11
1.0
 21
1.0
 12
210.0
 22
148.5
 13
0.0
 23
0.0
 14
10.0
 24
10.0
 15
10.0
 25
10.0
 16
0.0
 26
0.0
 36
1.0
 17
0.0
 27
0.0
 37
0.0
 40
341.0
 41
1.24
 42
50.0
 43
0.0
 44
0.0
 50
0.0
 51
0.0
 71
     0
 72
   100
 73
     1
 74
     3
 75
     0
 76
     0
 77
     0
 78
     0
  0
ENDTAB
  0
TABLE
  2
LTYPE
  5
5
330
0
100
AcDbSymbolTable
 70
     1
  0
LTYPE
  5
14
330
5
100
AcDbSymbolTableRecord
100
AcDbLinetypeTableRecord
  2
BYBLOCK
 70
     0
  3

 72
    65
 73
     0
 40
0.0
  0
LTYPE
  5
15
330
5
100
AcDbSymbolTableRecord
100
AcDbLinetypeTableRecord
  2
BYLAYER
 70
     0
  3

 72
    65
 73
     0
 40
0.0
  0
LTYPE
  5
16
330
5
100
AcDbSymbolTableRecord
100
AcDbLinetypeTableRecord
  2
CONTINUOUS
 70
     0
  3
Solid line
 72
    65
 73
     0
 40
0.0
  0
ENDTAB
  0
TABLE
  2
LAYER
  5
2
100
AcDbSymbolTable
 70
2
  0
LAYER
  5
50
100
AcDbSymbolTableRecord
100
AcDbLayerTableRecord
  2
0
 70
0
  6
CONTINUOUS
  0
LAYER
  5
51
100
AcDbSymbolTableRecord
100
AcDbLayerTableRecord
  2
Layer_1
 70
0
  6
CONTINUOUS
  0
ENDTAB
  0
TABLE
  2
STYLE
  5
3
330
0
100
AcDbSymbolTable
 70
     1
  0
STYLE
  5
11
330
3
100
AcDbSymbolTableRecord
100
AcDbTextStyleTableRecord
  2
STANDARD
 70
     0
 40
0.0
 41
1.0
 50
0.0
 71
     0
 42
2.5
  3
txt
  4

  0
ENDTAB
  0
TABLE
  2
VIEW
  5
6
330
0
100
AcDbSymbolTable
 70
     0
  0
ENDTAB
  0
TABLE
  2
UCS
  5
7
330
0
100
AcDbSymbolTable
 70
     0
  0
ENDTAB
  0
TABLE
  2
APPID
  5
9
330
0
100
AcDbSymbolTable
 70
     2
  0
APPID
  5
12
330
9
100
AcDbSymbolTableRecord
100
AcDbRegAppTableRecord
  2
ACAD
 70
     0
  0
ENDTAB
  0
TABLE
  2
DIMSTYLE
  5
A
330
0
100
AcDbSymbolTable
 70
     1
  0
DIMSTYLE
105
27
330
A
100
AcDbSymbolTableRecord
100
AcDbDimStyleTableRecord
  2
ISO-25
 70
     0
  3

  4

  5

  6

  7

 40
1.0
 41
2.5
 42
0.625
 43
3.75
 44
1.25
 45
0.0
 46
0.0
 47
0.0
 48
0.0
140
2.5
141
2.5
142
0.0
143
0.03937007874016
144
1.0
145
0.0
146
1.0
147
0.625
 71
     0
 72
     0
 73
     0
 74
     0
 75
     0
 76
     0
 77
     1
 78
     8
170
     0
171
     3
172
     1
173
     0
174
     0
175
     0
176
     0
177
     0
178
     0
270
     2
271
     2
272
     2
273
     2
274
     3
340
11
275
     0
280
     0
281
     0
282
     0
283
     0
284
     8
285
     0
286
     0
287
     3
288
     0
  0
ENDTAB
  0
TABLE
  2
BLOCK_RECORD
  5
1
330
0
100
AcDbSymbolTable
 70
     1
  0
BLOCK_RECORD
  5
1F
330
1
100
AcDbSymbolTableRecord
100
AcDbBlockTableRecord
  2
*MODEL_SPACE
  0
BLOCK_RECORD
  5
1B
330
1
100
AcDbSymbolTableRecord
100
AcDbBlockTableRecord
  2
*PAPER_SPACE
  0
ENDTAB
  0
ENDSEC
  0
SECTION
  2
BLOCKS
  0
BLOCK
  5
20
330
1F
100
AcDbEntity
  8
0
100
AcDbBlockBegin
  2
*MODEL_SPACE
 70
     0
 10
0.0
 20
0.0
 30
0.0
  3
*MODEL_SPACE
  1

  0
ENDBLK
  5
21
330
1F
100
AcDbEntity
  8
0
100
AcDbBlockEnd
  0
BLOCK
  5
1C
330
1B
100
AcDbEntity
 67
     1
  8
0
100
AcDbBlockBegin
  2
*PAPER_SPACE
  1

  0
ENDBLK
  5
1D
330
1B
100
AcDbEntity
 67
     1
  8
0
100
AcDbBlockEnd
  0
ENDSEC
  0
SECTION
  2
ENTITIES
  0
LWPOLYLINE
  5
100
100
AcDbEntity
  8
Layer_1
 62
7
100
AcDbPolyline
 90
151
 70
0
 10
2.950020
 20
8.099997
 30
0.0
 10
2.950020
 20
7.207799
 30
0.0
 10
2.703607
 20
7.111077
 30
0.0
 10
2.468096
 20
6.996589
 30
0.0
 10
2.244175
 20
6.865267
 30
0.0
 10
2.032530
 20
6.718042
 30
0.0
 10
1.833847
 20
6.555847
 30
0.0
 10
1.648811
 20
6.379613
 30
0.0
 10
1.478109
 20
6.190272
 30
0.0
 10
1.322427
 20
5.988755
 30
0.0
 10
1.182450
 20
5.775995
 30
0.0
 10
1.058866
 20
5.552922
 30
0.0
 10
0.952360
 20
5.320469
 30
0.0
 10
0.863619
 20
5.079567
 30
0.0
 10
0.793327
 20
4.831149
 30
0.0
 10
0.742172
 20
4.576145
 30
0.0
 10
0.710839
 20
4.315487
 30
0.0
 10
0.700015
 20
4.050108
 30
0.0
 10
0.700015
 20
4.050052
 30
0.0
 10
0.700015
 20
4.049995
 30
0.0
 10
0.704376
 20
3.877707
 30
0.0
 10
0.717321
 20
3.707669
 30
0.0
 10
0.738640
 20
3.540092
 30
0.0
 10
0.768120
 20
3.375187
 30
0.0
 10
0.850721
 20
3.054239
 30
0.0
 10
0.963435
 20
2.746513
 30
0.0
 10
1.104574
 20
2.453698
 30
0.0
 10
1.272449
 20
2.177484
 30
0.0
 10
1.465369
 20
1.919560
 30
0.0
 10
1.681646
 20
1.681615
 30
0.0
 10
1.919591
 20
1.465337
 30
0.0
 10
2.177516
 20
1.272417
 30
0.0
 10
2.453729
 20
1.104543
 30
0.0
 10
2.746544
 20
0.963404
 30
0.0
 10
3.054270
 20
0.850690
 30
0.0
 10
3.375218
 20
0.768089
 30
0.0
 10
3.540123
 20
0.738609
 30
0.0
 10
3.707700
 20
0.717290
 30
0.0
 10
3.877738
 20
0.704345
 30
0.0
 10
4.050026
 20
0.699983
 30
0.0
 10
4.222311
 20
0.704348
 30
0.0
 10
4.392347
 20
0.717296
 30
0.0
 10
4.559922
 20
0.738616
 30
0.0
 10
4.724824
 20
0.768099
 30
0.0
 10
5.045768
 20
0.850703
 30
0.0
 10
5.353489
 20
0.963420
 30
0.0
 10
5.646299
 20
1.104561
 30
0.0
 10
5.922508
 20
1.272437
 30
0.0
 10
6.180428
 20
1.465358
 30
0.0
 10
6.418369
 20
1.681635
 30
0.0
 10
6.634643
 20
1.919580
 30
0.0
 10
6.827559
 20
2.177502
 30
0.0
 10
6.995430
 20
2.453714
 30
0.0
 10
7.136566
 20
2.746527
 30
0.0
 10
7.249278
 20
3.054250
 30
0.0
 10
7.331878
 20
3.375195
 30
0.0
 10
7.361357
 20
3.540098
 30
0.0
 10
7.382675
 20
3.707673
 30
0.0
 10
7.395620
 20
3.877709
 30
0.0
 10
7.399981
 20
4.049995
 30
0.0
 10
7.399981
 20
4.050052
 30
0.0
 10
7.389325
 20
4.315591
 30
0.0
 10
7.358134
 20
4.576415
 30
0.0
 10
7.307095
 20
4.831589
 30
0.0
 10
7.236896
 20
5.080180
 30
0.0
 10
7.148222
 20
5.321254
 30
0.0
 10
7.041762
 20
5.553879
 30
0.0
 10
6.918201
 20
5.777119
 30
0.0
 10
6.778227
 20
5.990043
 30
0.0
 10
6.622526
 20
6.191716
 30
0.0
 10
6.451786
 20
6.381205
 30
0.0
 10
6.266692
 20
6.557577
 30
0.0
 10
6.067933
 20
6.719898
 30
0.0
 10
5.856195
 20
6.867235
 30
0.0
 10
5.632165
 20
6.998653
 30
0.0
 10
5.396530
 20
7.113221
 30
0.0
 10
5.149976
 20
7.210003
 30
0.0
 10
5.149976
 20
8.099997
 30
0.0
 10
4.949995
 20
8.099997
 30
0.0
 10
4.949995
 20
7.067625
 30
0.0
 10
5.019227
 20
7.045245
 30
0.0
 10
5.257893
 20
6.957352
 30
0.0
 10
5.486053
 20
6.851899
 30
0.0
 10
5.703035
 20
6.729812
 30
0.0
 10
5.908165
 20
6.592015
 30
0.0
 10
6.100768
 20
6.439435
 30
0.0
 10
6.280172
 20
6.272997
 30
0.0
 10
6.445702
 20
6.093625
 30
0.0
 10
6.596685
 20
5.902247
 30
0.0
 10
6.732447
 20
5.699786
 30
0.0
 10
6.852314
 20
5.487169
 30
0.0
 10
6.955613
 20
5.265320
 30
0.0
 10
7.041669
 20
5.035166
 30
0.0
 10
7.109810
 20
4.797631
 30
0.0
 10
7.159361
 20
4.553641
 30
0.0
 10
7.189649
 20
4.304122
 30
0.0
 10
7.200000
 20
4.049998
 30
0.0
 10
7.183752
 20
3.727734
 30
0.0
 10
7.136056
 20
3.414824
 30
0.0
 10
7.058490
 20
3.112845
 30
0.0
 10
6.952632
 20
2.823376
 30
0.0
 10
6.820061
 20
2.547995
 30
0.0
 10
6.662353
 20
2.288280
 30
0.0
 10
6.481089
 20
2.045809
 30
0.0
 10
6.277846
 20
1.822161
 30
0.0
 10
6.054201
 20
1.618914
 30
0.0
 10
5.811734
 20
1.437645
 30
0.0
 10
5.552021
 20
1.279934
 30
0.0
 10
5.276643
 20
1.147357
 30
0.0
 10
4.987176
 20
1.041495
 30
0.0
 10
4.685198
 20
0.963923
 30
0.0
 10
4.372289
 20
0.916222
 30
0.0
 10
4.050026
 20
0.899969
 30
0.0
 10
3.727765
 20
0.916217
 30
0.0
 10
3.414858
 20
0.963912
 30
0.0
 10
3.112882
 20
1.041477
 30
0.0
 10
2.823415
 20
1.147333
 30
0.0
 10
2.548036
 20
1.279902
 30
0.0
 10
2.288323
 20
1.437606
 30
0.0
 10
2.045854
 20
1.618867
 30
0.0
 10
1.822207
 20
1.822107
 30
0.0
 10
1.618960
 20
2.045748
 30
0.0
 10
1.437691
 20
2.288211
 30
0.0
 10
1.279978
 20
2.547918
 30
0.0
 10
1.147400
 20
2.823292
 30
0.0
 10
1.041535
 20
3.112754
 30
0.0
 10
0.963960
 20
3.414726
 30
0.0
 10
0.916254
 20
3.727630
 30
0.0
 10
0.899996
 20
4.049888
 30
0.0
 10
0.899996
 20
4.049944
 30
0.0
 10
0.899996
 20
4.050001
 30
0.0
 10
0.910511
 20
4.303969
 30
0.0
 10
0.940938
 20
4.553327
 30
0.0
 10
0.990603
 20
4.797150
 30
0.0
 10
1.058834
 20
5.034517
 30
0.0
 10
1.144958
 20
5.264502
 30
0.0
 10
1.248301
 20
5.486183
 30
0.0
 10
1.368191
 20
5.698635
 30
0.0
 10
1.503954
 20
5.900936
 30
0.0
 10
1.654919
 20
6.092161
 30
0.0
 10
1.820411
 20
6.271387
 30
0.0
 10
1.999759
 20
6.437691
 30
0.0
 10
2.192288
 20
6.590148
 30
0.0
 10
2.397327
 20
6.727836
 30
0.0
 10
2.614202
 20
6.849830
 30
0.0
 10
2.842240
 20
6.955207
 30
0.0
 10
3.080769
 20
7.043044
 30
0.0
 10
3.150001
 20
7.065424
 30
0.0
 10
3.150001
 20
8.100000
 30
0.0
 10
2.950020
 20
8.100000
 30
0.0
 10
2.950020
 20
8.099997
 30
0.0
  0
LWPOLYLINE
  5
101
100
AcDbEntity
  8
Layer_1
 62
7
100
AcDbPolyline
 90
151
 70
0
 10
9.900018
 20
8.099997
 30
0.0
 10
9.900018
 20
7.207799
 30
0.0
 10
9.653604
 20
7.111077
 30
0.0
 10
9.418094
 20
6.996589
 30
0.0
 10
9.194173
 20
6.865267
 30
0.0
 10
8.982528
 20
6.718042
 30
0.0
 10
8.783844
 20
6.555847
 30
0.0
 10
8.598809
 20
6.379613
 30
0.0
 10
8.428107
 20
6.190272
 30
0.0
 10
8.272424
 20
5.988755
 30
0.0
 10
8.132448
 20
5.775995
 30
0.0
 10
8.008864
 20
5.552922
 30
0.0
 10
7.902358
 20
5.320469
 30
0.0
 10
7.813617
 20
5.079567
 30
0.0
 10
7.743325
 20
4.831149
 30
0.0
 10
7.692170
 20
4.576145
 30
0.0
 10
7.660837
 20
4.315487
 30
0.0
 10
7.650013
 20
4.050108
 30
0.0
 10
7.650013
 20
4.050052
 30
0.0
 10
7.650013
 20
4.049995
 30
0.0
 10
7.654374
 20
3.877707
 30
0.0
 10
7.667319
 20
3.707669
 30
0.0
 10
7.688638
 20
3.540092
 30
0.0
 10
7.718118
 20
3.375187
 30
0.0
 10
7.800719
 20
3.054239
 30
0.0
 10
7.913433
 20
2.746513
 30
0.0
 10
8.054572
 20
2.453698
 30
0.0
 10
8.222446
 20
2.177484
 30
0.0
 10
8.415367
 20
1.919560
 30
0.0
 10
8.631644
 20
1.681615
 30
0.0
 10
8.869589
 20
1.465337
 30
0.0
 10
9.127514
 20
1.272417
 30
0.0
 10
9.403727
 20
1.104543
 30
0.0
 10
9.696542
 20
0.963404
 30
0.0
 10
10.004268
 20
0.850690
 30
0.0
 10
10.325216
 20
0.768089
 30
0.0
 10
10.490121
 20
0.738609
 30
0.0
 10
10.657698
 20
0.717290
 30
0.0
 10
10.827736
 20
0.704345
 30
0.0
 10
11.000024
 20
0.699983
 30
0.0
 10
11.172309
 20
0.704348
 30
0.0
 10
11.342345
 20
0.717296
 30
0.0
 10
11.509920
 20
0.738616
 30
0.0
 10
11.674822
 20
0.768099
 30
0.0
 10
11.995766
 20
0.850703
 30
0.0
 10
12.303487
 20
0.963420
 30
0.0
 10
12.596297
 20
1.104561
 30
0.0
 10
12.872506
 20
1.272437
 30
0.0
 10
13.130426
 20
1.465358
 30
0.0
 10
13.368367
 20
1.681635
 30
0.0
 10
13.584640
 20
1.919580
 30
0.0
 10
13.777557
 20
2.177502
 30
0.0
 10
13.945428
 20
2.453714
 30
0.0
 10
14.086564
 20
2.746527
 30
0.0
 10
14.199276
 20
3.054250
 30
0.0
 10
14.281876
 20
3.375195
 30
0.0
 10
14.311355
 20
3.540098
 30
0.0
 10
14.332673
 20
3.707673
 30
0.0
 10
14.345618
 20
3.877709
 30
0.0
 10
14.349979
 20
4.049995
 30
0.0
 10
14.349979
 20
4.050052
 30
0.0
 10
14.339323
 20
4.315591
 30
0.0
 10
14.308132
 20
4.576415
 30
0.0
 10
14.257093
 20
4.831589
 30
0.0
 10
14.186893
 20
5.080180
 30
0.0
 10
14.098220
 20
5.321254
 30
0.0
 10
13.991759
 20
5.553879
 30
0.0
 10
13.868199
 20
5.777119
 30
0.0
 10
13.728224
 20
5.990043
 30
0.0
 10
13.572524
 20
6.191716
 30
0.0
 10
13.401783
 20
6.381205
 30
0.0
 10
13.216690
 20
6.557577
 30
0.0
 10
13.017931
 20
6.719898
 30
0.0
 10
12.806193
 20
6.867235
 30
0.0
 10
12.582163
 20
6.998653
 30
0.0
 10
12.346528
 20
7.113221
 30
0.0
 10
12.099974
 20
7.210003
 30
0.0
 10
12.099974
 20
8.099997
 30
0.0
 10
11.899993
 20
8.099997
 30
0.0
 10
11.899993
 20
7.067625
 30
0.0
 10
11.969225
 20
7.045245
 30
0.0
 10
12.207891
 20
6.957352
 30
0.0
 10
12.436051
 20
6.851899
 30
0.0
 10
12.653033
 20
6.729812
 30
0.0
 10
12.858162
 20
6.592015
 30
0.0
 10
13.050766
 20
6.439435
 30
0.0
 10
13.230169
 20
6.272997
 30
0.0
 10
13.395700
 20
6.093625
 30
0.0
 10
13.546682
 20
5.902247
 30
0.0
 10
13.682444
 20
5.699786
 30
0.0
 10
13.802312
 20
5.487169
 30
0.0
 10
13.905611
 20
5.265320
 30
0.0
 10
13.991667
 20
5.035166
 30
0.0
 10
14.059808
 20
4.797631
 30
0.0
 10
14.109359
 20
4.553641
 30
0.0
 10
14.139647
 20
4.304122
 30
0.0
 10
14.149998
 20
4.049998
 30
0.0
 10
14.133750
 20
3.727734
 30
0.0
 10
14.086054
 20
3.414824
 30
0.0
 10
14.008488
 20
3.112845
 30
0.0
 10
13.902630
 20
2.823376
 30
0.0
 10
13.770058
 20
2.547995
 30
0.0
 10
13.612351
 20
2.288280
 30
0.0
 10
13.431087
 20
2.045809
 30
0.0
 10
13.227844
 20
1.822161
 30
0.0
 10
13.004199
 20
1.618914
 30
0.0
 10
12.761731
 20
1.437645
 30
0.0
 10
12.502019
 20
1.279934
 30
0.0
 10
12.226641
 20
1.147357
 30
0.0
 10
11.937174
 20
1.041495
 30
0.0
 10
11.635196
 20
0.963923
 30
0.0
 10
11.322287
 20
0.916222
 30
0.0
 10
11.000024
 20
0.899969
 30
0.0
 10
10.677763
 20
0.916217
 30
0.0
 10
10.364856
 20
0.963912
 30
0.0
 10
10.062880
 20
1.041477
 30
0.0
 10
9.773413
 20
1.147333
 30
0.0
 10
9.498034
 20
1.279902
 30
0.0
 10
9.238321
 20
1.437606
 30
0.0
 10
8.995852
 20
1.618867
 30
0.0
 10
8.772205
 20
1.822107
 30
0.0
 10
8.568958
 20
2.045748
 30
0.0
 10
8.387689
 20
2.288211
 30
0.0
 10
8.229976
 20
2.547918
 30
0.0
 10
8.097398
 20
2.823292
 30
0.0
 10
7.991533
 20
3.112754
 30
0.0
 10
7.913958
 20
3.414726
 30
0.0
 10
7.866252
 20
3.727630
 30
0.0
 10
7.849994
 20
4.049888
 30
0.0
 10
7.849994
 20
4.049944
 30
0.0
 10
7.849994
 20
4.050001
 30
0.0
 10
7.860509
 20
4.303969
 30
0.0
 10
7.890936
 20
4.553327
 30
0.0
 10
7.940601
 20
4.797150
 30
0.0
 10
8.008832
 20
5.034517
 30
0.0
 10
8.094956
 20
5.264502
 30
0.0
 10
8.198299
 20
5.486183
 30
0.0
 10
8.318189
 20
5.698635
 30
0.0
 10
8.453952
 20
5.900936
 30
0.0
 10
8.604917
 20
6.092161
 30
0.0
 10
8.770409
 20
6.271387
 30
0.0
 10
8.949757
 20
6.437691
 30
0.0
 10
9.142286
 20
6.590148
 30
0.0
 10
9.347325
 20
6.727836
 30
0.0
 10
9.564200
 20
6.849830
 30
0.0
 10
9.792238
 20
6.955207
 30
0.0
 10
10.030767
 20
7.043044
 30
0.0
 10
10.099999
 20
7.065424
 30
0.0
 10
10.099999
 20
8.100000
 30
0.0
 10
9.900018
 20
8.100000
 30
0.0
 10
9.900018
 20
8.099997
 30
0.0
  0
LWPOLYLINE
  5
102
100
AcDbEntity
  8
Layer_1
 62
7
100
AcDbPolyline
 90
151
 70
0
 10
16.850016
 20
8.099997
 30
0.0
 10
16.850016
 20
7.207799
 30
0.0
 10
16.603602
 20
7.111077
 30
0.0
 10
16.368092
 20
6.996589
 30
0.0
 10
16.144171
 20
6.865267
 30
0.0
 10
15.932526
 20
6.718042
 30
0.0
 10
15.733842
 20
6.555847
 30
0.0
 10
15.548806
 20
6.379613
 30
0.0
 10
15.378104
 20
6.190272
 30
0.0
 10
15.222422
 20
5.988755
 30
0.0
 10
15.082446
 20
5.775995
 30
0.0
 10
14.958862
 20
5.552922
 30
0.0
 10
14.852356
 20
5.320469
 30
0.0
 10
14.763614
 20
5.079567
 30
0.0
 10
14.693323
 20
4.831149
 30
0.0
 10
14.642168
 20
4.576145
 30
0.0
 10
14.610835
 20
4.315487
 30
0.0
 10
14.600010
 20
4.050108
 30
0.0
 10
14.600010
 20
4.050052
 30
0.0
 10
14.600010
 20
4.049995
 30
0.0
 10
14.604372
 20
3.877707
 30
0.0
 10
14.617317
 20
3.707669
 30
0.0
 10
14.638635
 20
3.540092
 30
0.0
 10
14.668116
 20
3.375187
 30
0.0
 10
14.750717
 20
3.054239
 30
0.0
 10
14.863431
 20
2.746513
 30
0.0
 10
15.004570
 20
2.453698
 30
0.0
 10
15.172444
 20
2.177484
 30
0.0
 10
15.365364
 20
1.919560
 30
0.0
 10
15.581642
 20
1.681615
 30
0.0
 10
15.819587
 20
1.465337
 30
0.0
 10
16.077511
 20
1.272417
 30
0.0
 10
16.353725
 20
1.104543
 30
0.0
 10
16.646540
 20
0.963404
 30
0.0
 10
16.954266
 20
0.850690
 30
0.0
 10
17.275214
 20
0.768089
 30
0.0
 10
17.440119
 20
0.738609
 30
0.0
 10
17.607696
 20
0.717290
 30
0.0
 10
17.777734
 20
0.704345
 30
0.0
 10
17.950021
 20
0.699983
 30
0.0
 10
18.122307
 20
0.704348
 30
0.0
 10
18.292343
 20
0.717296
 30
0.0
 10
18.459918
 20
0.738616
 30
0.0
 10
18.624820
 20
0.768099
 30
0.0
 10
18.945764
 20
0.850703
 30
0.0
 10
19.253485
 20
0.963420
 30
0.0
 10
19.546295
 20
1.104561
 30
0.0
 10
19.822504
 20
1.272437
 30
0.0
 10
20.080424
 20
1.465358
 30
0.0
 10
20.318365
 20
1.681635
 30
0.0
 10
20.534638
 20
1.919580
 30
0.0
 10
20.727555
 20
2.177502
 30
0.0
 10
20.895426
 20
2.453714
 30
0.0
 10
21.036562
 20
2.746527
 30
0.0
 10
21.149274
 20
3.054250
 30
0.0
 10
21.231873
 20
3.375195
 30
0.0
 10
21.261353
 20
3.540098
 30
0.0
 10
21.282671
 20
3.707673
 30
0.0
 10
21.295616
 20
3.877709
 30
0.0
 10
21.299977
 20
4.049995
 30
0.0
 10
21.299977
 20
4.050052
 30
0.0
 10
21.289320
 20
4.315591
 30
0.0
 10
21.258129
 20
4.576415
 30
0.0
 10
21.207091
 20
4.831589
 30
0.0
 10
21.136891
 20
5.080180
 30
0.0
 10
21.048218
 20
5.321254
 30
0.0
 10
20.941757
 20
5.553879
 30
0.0
 10
20.818196
 20
5.777119
 30
0.0
 10
20.678222
 20
5.990043
 30
0.0
 10
20.522522
 20
6.191716
 30
0.0
 10
20.351781
 20
6.381205
 30
0.0
 10
20.166688
 20
6.557577
 30
0.0
 10
19.967929
 20
6.719898
 30
0.0
 10
19.756191
 20
6.867235
 30
0.0
 10
19.532161
 20
6.998653
 30
0.0
 10
19.296525
 20
7.113221
 30
0.0
 10
19.049971
 20
7.210003
 30
0.0
 10
19.049971
 20
8.099997
 30
0.0
 10
18.849991
 20
8.099997
 30
0.0
 10
18.849991
 20
7.067625
 30
0.0
 10
18.919223
 20
7.045245
 30
0.0
 10
19.157888
 20
6.957352
 30
0.0
 10
19.386049
 20
6.851899
 30
0.0
 10
19.603031
 20
6.729812
 30
0.0
 10
19.808160
 20
6.592015
 30
0.0
 10
20.000764
 20
6.439435
 30
0.0
 10
20.180167
 20
6.272997
 30
0.0
 10
20.345697
 20
6.093625
 30
0.0
 10
20.496680
 20
5.902247
 30
0.0
 10
20.632442
 20
5.699786
 30
0.0
 10
20.752309
 20
5.487169
 30
0.0
 10
20.855608
 20
5.265320
 30
0.0
 10
20.941665
 20
5.035166
 30
0.0
 10
21.009806
 20
4.797631
 30
0.0
 10
21.059357
 20
4.553641
 30
0.0
 10
21.089645
 20
4.304122
 30
0.0
 10
21.099996
 20
4.049998
 30
0.0
 10
21.083748
 20
3.727734
 30
0.0
 10
21.036052
 20
3.414824
 30
0.0
 10
20.958486
 20
3.112845
 30
0.0
 10
20.852628
 20
2.823376
 30
0.0
 10
20.720056
 20
2.547995
 30
0.0
 10
20.562349
 20
2.288280
 30
0.0
 10
20.381085
 20
2.045809
 30
0.0
 10
20.177841
 20
1.822161
 30
0.0
 10
19.954197
 20
1.618914
 30
0.0
 10
19.711729
 20
1.437645
 30
0.0
 10
19.452017
 20
1.279934
 30
0.0
 10
19.176639
 20
1.147357
 30
0.0
 10
18.887171
 20
1.041495
 30
0.0
 10
18.585194
 20
0.963923
 30
0.0
 10
18.272285
 20
0.916222
 30
0.0
 10
17.950021
 20
0.899969
 30
0.0
 10
17.627761
 20
0.916217
 30
0.0
 10
17.314853
 20
0.963912
 30
0.0
 10
17.012877
 20
1.041477
 30
0.0
 10
16.723411
 20
1.147333
 30
0.0
 10
16.448032
 20
1.279902
 30
0.0
 10
16.188319
 20
1.437606
 30
0.0
 10
15.945850
 20
1.618867
 30
0.0
 10
15.722202
 20
1.822107
 30
0.0
 10
15.518955
 20
2.045748
 30
0.0
 10
15.337686
 20
2.288211
 30
0.0
 10
15.179974
 20
2.547918
 30
0.0
 10
15.047396
 20
2.823292
 30
0.0
 10
14.941530
 20
3.112754
 30
0.0
 10
14.863956
 20
3.414726
 30
0.0
 10
14.816250
 20
3.727630
 30
0.0
 10
14.799991
 20
4.049888
 30
0.0
 10
14.799991
 20
4.049944
 30
0.0
 10
14.799991
 20
4.050001
 30
0.0
 10
14.810507
 20
4.303969
 30
0.0
 10
14.840934
 20
4.553327
 30
0.0
 10
14.890599
 20
4.797150
 30
0.0
 10
14.958830
 20
5.034517
 30
0.0
 10
15.044953
 20
5.264502
 30
0.0
 10
15.148296
 20
5.486183
 30
0.0
 10
15.268186
 20
5.698635
 30
0.0
 10
15.403950
 20
5.900936
 30
0.0
 10
15.554914
 20
6.092161
 30
0.0
 10
15.720407
 20
6.271387
 30
0.0
 10
15.899754
 20
6.437691
 30
0.0
 10
16.092284
 20
6.590148
 30
0.0
 10
16.297323
 20
6.727836
 30
0.0
 10
16.514197
 20
6.849830
 30
0.0
 10
16.742236
 20
6.955207
 30
0.0
 10
16.980764
 20
7.043044
 30
0.0
 10
17.049997
 20
7.065424
 30
0.0
 10
17.049997
 20
8.100000
 30
0.0
 10
16.850016
 20
8.100000
 30
0.0
 10
16.850016
 20
8.099997
 30
0.0
  0
ENDSEC
  0
SECTION
  2
OBJECTS
  0
DICTIONARY
  5
C
330
0
100
AcDbDictionary
  3
ACAD_GROUP
350
D
  3
ACAD_MLINESTYLE
350
17
  0
DICTIONARY
  5
D
330
C
100
AcDbDictionary
  0
DICTIONARY
  5
1A
330
C
100
AcDbDictionary
  0
DICTIONARY
  5
17
330
C
100
AcDbDictionary
  3
STANDARD
350
18
  0
DICTIONARY
  5
19
330
C
100
AcDbDictionary
  0
ENDSEC
  0
EOF
