  0
SECTION
  2
HEADER
  9
$ACADVER
  1
AC1014
  9
$HANDSEED
  5
FFFF
  9
$MEASUREMENT
 70
     1
  0
ENDSEC
  0
SECTION
  2
TABLES
  0
TABLE
  2
VPORT
  5
8
330
0
100
AcDbSymbolTable
 70
     4
  0
VPORT
  5
2E
330
8
100
AcDbSymbolTableRecord
100
AcDbViewportTableRecord
  2
*ACTIVE
 70
     0
 10
0.0
 20
0.0
 11
1.0
 21
1.0
 12
210.0
 22
148.5
 13
0.0
 23
0.0
 14
10.0
 24
10.0
 15
10.0
 25
10.0
 16
0.0
 26
0.0
 36
1.0
 17
0.0
 27
0.0
 37
0.0
 40
341.0
 41
1.24
 42
50.0
 43
0.0
 44
0.0
 50
0.0
 51
0.0
 71
     0
 72
   100
 73
     1
 74
     3
 75
     0
 76
     0
 77
     0
 78
     0
  0
ENDTAB
  0
TABLE
  2
LTYPE
  5
5
330
0
100
AcDbSymbolTable
 70
     1
  0
LTYPE
  5
14
330
5
100
AcDbSymbolTableRecord
100
AcDbLinetypeTableRecord
  2
BYBLOCK
 70
     0
  3

 72
    65
 73
     0
 40
0.0
  0
LTYPE
  5
15
330
5
100
AcDbSymbolTableRecord
100
AcDbLinetypeTableRecord
  2
BYLAYER
 70
     0
  3

 72
    65
 73
     0
 40
0.0
  0
LTYPE
  5
16
330
5
100
AcDbSymbolTableRecord
100
AcDbLinetypeTableRecord
  2
CONTINUOUS
 70
     0
  3
Solid line
 72
    65
 73
     0
 40
0.0
  0
ENDTAB
  0
TABLE
  2
LAYER
  5
2
100
AcDbSymbolTable
 70
2
  0
LAYER
  5
50
100
AcDbSymbolTableRecord
100
AcDbLayerTableRecord
  2
0
 70
0
  6
CONTINUOUS
  0
LAYER
  5
51
100
AcDbSymbolTableRecord
100
AcDbLayerTableRecord
  2
Layer_1
 70
0
  6
CONTINUOUS
  0
ENDTAB
  0
TABLE
  2
STYLE
  5
3
330
0
100
AcDbSymbolTable
 70
     1
  0
STYLE
  5
11
330
3
100
AcDbSymbolTableRecord
100
AcDbTextStyleTableRecord
  2
STANDARD
 70
     0
 40
0.0
 41
1.0
 50
0.0
 71
     0
 42
2.5
  3
txt
  4

  0
ENDTAB
  0
TABLE
  2
VIEW
  5
6
330
0
100
AcDbSymbolTable
 70
     0
  0
ENDTAB
  0
TABLE
  2
UCS
  5
7
330
0
100
AcDbSymbolTable
 70
     0
  0
ENDTAB
  0
TABLE
  2
APPID
  5
9
330
0
100
AcDbSymbolTable
 70
     2
  0
APPID
  5
12
330
9
100
AcDbSymbolTableRecord
100
AcDbRegAppTableRecord
  2
ACAD
 70
     0
  0
ENDTAB
  0
TABLE
  2
DIMSTYLE
  5
A
330
0
100
AcDbSymbolTable
 70
     1
  0
DIMSTYLE
105
27
330
A
100
AcDbSymbolTableRecord
100
AcDbDimStyleTableRecord
  2
ISO-25
 70
     0
  3

  4

  5

  6

  7

 40
1.0
 41
2.5
 42
0.625
 43
3.75
 44
1.25
 45
0.0
 46
0.0
 47
0.0
 48
0.0
140
2.5
141
2.5
142
0.0
143
0.03937007874016
144
1.0
145
0.0
146
1.0
147
0.625
 71
     0
 72
     0
 73
     0
 74
     0
 75
     0
 76
     0
 77
     1
 78
     8
170
     0
171
     3
172
     1
173
     0
174
     0
175
     0
176
     0
177
     0
178
     0
270
     2
271
     2
272
     2
273
     2
274
     3
340
11
275
     0
280
     0
281
     0
282
     0
283
     0
284
     8
285
     0
286
     0
287
     3
288
     0
  0
ENDTAB
  0
TABLE
  2
BLOCK_RECORD
  5
1
330
0
100
AcDbSymbolTable
 70
     1
  0
BLOCK_RECORD
  5
1F
330
1
100
AcDbSymbolTableRecord
100
AcDbBlockTableRecord
  2
*MODEL_SPACE
  0
BLOCK_RECORD
  5
1B
330
1
100
AcDbSymbolTableRecord
100
AcDbBlockTableRecord
  2
*PAPER_SPACE
  0
ENDTAB
  0
ENDSEC
  0
SECTION
  2
BLOCKS
  0
BLOCK
  5
20
330
1F
100
AcDbEntity
  8
0
100
AcDbBlockBegin
  2
*MODEL_SPACE
 70
     0
 10
0.0
 20
0.0
 30
0.0
  3
*MODEL_SPACE
  1

  0
ENDBLK
  5
21
330
1F
100
AcDbEntity
  8
0
100
AcDbBlockEnd
  0
BLOCK
  5
1C
330
1B
100
AcDbEntity
 67
     1
  8
0
100
AcDbBlockBegin
  2
*PAPER_SPACE
  1

  0
ENDBLK
  5
1D
330
1B
100
AcDbEntity
 67
     1
  8
0
100
AcDbBlockEnd
  0
ENDSEC
  0
SECTION
  2
ENTITIES
  0
LWPOLYLINE
  5
100
100
AcDbEntity
  8
Layer_1
 62
7
100
AcDbPolyline
 90
8
 70
1
 10
0.028332
 20
0.799979
 30
0.0
 10
0.028332
 20
0.028332
 30
0.0
 10
1.000015
 20
0.028332
 30
0.0
 10
1.000015
 20
0.000000
 30
0.0
 10
0.000000
 20
0.000000
 30
0.0
 10
0.000000
 20
0.799979
 30
0.0
 10
0.028332
 20
0.799979
 30
0.0
 10
0.028332
 20
0.799979
 30
0.0
  0
LWPOLYLINE
  5
101
100
AcDbEntity
  8
Layer_1
 62
7
100
AcDbPolyline
 90
8
 70
1
 10
8.000001
 20
0.799979
 30
0.0
 10
8.000001
 20
0.000000
 30
0.0
 10
6.999986
 20
0.000000
 30
0.0
 10
6.999986
 20
0.028332
 30
0.0
 10
7.971669
 20
0.028332
 30
0.0
 10
7.971669
 20
0.799979
 30
0.0
 10
8.000001
 20
0.799979
 30
0.0
 10
8.000001
 20
0.799979
 30
0.0
  0
LWPOLYLINE
  5
102
100
AcDbEntity
  8
Layer_1
 62
7
100
AcDbPolyline
 90
9
 70
1
 10
1.000015
 20
6.000002
 30
0.0
 10
1.000015
 20
5.971616
 30
0.0
 10
0.028332
 20
5.971616
 30
0.0
 10
0.028332
 20
4.999990
 30
0.0
 10
0.000000
 20
4.999990
 30
0.0
 10
0.000000
 20
5.985781
 30
0.0
 10
0.000000
 20
6.000002
 30
0.0
 10
1.000015
 20
6.000002
 30
0.0
 10
1.000015
 20
6.000002
 30
0.0
  0
LWPOLYLINE
  5
103
100
AcDbEntity
  8
Layer_1
 62
7
100
AcDbPolyline
 90
8
 70
1
 10
8.000057
 20
6.000002
 30
0.0
 10
8.000057
 20
4.999990
 30
0.0
 10
7.971725
 20
4.999990
 30
0.0
 10
7.971725
 20
5.971616
 30
0.0
 10
7.000042
 20
5.971616
 30
0.0
 10
7.000042
 20
6.000002
 30
0.0
 10
8.000057
 20
6.000002
 30
0.0
 10
8.000057
 20
6.000002
 30
0.0
  0
LWPOLYLINE
  5
104
100
AcDbEntity
  8
Layer_1
 62
7
100
AcDbPolyline
 90
130
 70
0
 10
5.499950
 20
3.000027
 30
0.0
 10
5.499299
 20
2.974297
 30
0.0
 10
5.497368
 20
2.948905
 30
0.0
 10
5.494189
 20
2.923882
 30
0.0
 10
5.489791
 20
2.899259
 30
0.0
 10
5.484208
 20
2.875069
 30
0.0
 10
5.477471
 20
2.851342
 30
0.0
 10
5.469610
 20
2.828110
 30
0.0
 10
5.460657
 20
2.805404
 30
0.0
 10
5.450644
 20
2.783256
 30
0.0
 10
5.439602
 20
2.761697
 30
0.0
 10
5.427563
 20
2.740759
 30
0.0
 10
5.414558
 20
2.720472
 30
0.0
 10
5.400617
 20
2.700869
 30
0.0
 10
5.385774
 20
2.681981
 30
0.0
 10
5.370059
 20
2.663838
 30
0.0
 10
5.353503
 20
2.646474
 30
0.0
 10
5.336138
 20
2.629918
 30
0.0
 10
5.317996
 20
2.614203
 30
0.0
 10
5.299108
 20
2.599359
 30
0.0
 10
5.279505
 20
2.585419
 30
0.0
 10
5.259218
 20
2.572414
 30
0.0
 10
5.238279
 20
2.560374
 30
0.0
 10
5.216720
 20
2.549332
 30
0.0
 10
5.194572
 20
2.539319
 30
0.0
 10
5.171867
 20
2.530367
 30
0.0
 10
5.148634
 20
2.522506
 30
0.0
 10
5.124908
 20
2.515768
 30
0.0
 10
5.100717
 20
2.510185
 30
0.0
 10
5.076095
 20
2.505788
 30
0.0
 10
5.051072
 20
2.502608
 30
0.0
 10
5.025680
 20
2.500678
 30
0.0
 10
4.999950
 20
2.500027
 30
0.0
 10
4.974220
 20
2.500678
 30
0.0
 10
4.948828
 20
2.502608
 30
0.0
 10
4.923805
 20
2.505788
 30
0.0
 10
4.899182
 20
2.510185
 30
0.0
 10
4.874992
 20
2.515768
 30
0.0
 10
4.851265
 20
2.522506
 30
0.0
 10
4.828033
 20
2.530367
 30
0.0
 10
4.805327
 20
2.539319
 30
0.0
 10
4.783179
 20
2.549332
 30
0.0
 10
4.761620
 20
2.560374
 30
0.0
 10
4.740682
 20
2.572414
 30
0.0
 10
4.720395
 20
2.585419
 30
0.0
 10
4.700792
 20
2.599359
 30
0.0
 10
4.681903
 20
2.614203
 30
0.0
 10
4.663761
 20
2.629918
 30
0.0
 10
4.646396
 20
2.646474
 30
0.0
 10
4.629841
 20
2.663838
 30
0.0
 10
4.614126
 20
2.681981
 30
0.0
 10
4.599282
 20
2.700869
 30
0.0
 10
4.585342
 20
2.720472
 30
0.0
 10
4.572337
 20
2.740759
 30
0.0
 10
4.560297
 20
2.761697
 30
0.0
 10
4.549255
 20
2.783256
 30
0.0
 10
4.539242
 20
2.805404
 30
0.0
 10
4.530290
 20
2.828110
 30
0.0
 10
4.522429
 20
2.851342
 30
0.0
 10
4.515691
 20
2.875069
 30
0.0
 10
4.510108
 20
2.899259
 30
0.0
 10
4.505711
 20
2.923882
 30
0.0
 10
4.502531
 20
2.948905
 30
0.0
 10
4.500600
 20
2.974297
 30
0.0
 10
4.499950
 20
3.000027
 30
0.0
 10
4.500600
 20
3.025757
 30
0.0
 10
4.502531
 20
3.051149
 30
0.0
 10
4.505711
 20
3.076172
 30
0.0
 10
4.510108
 20
3.100794
 30
0.0
 10
4.515691
 20
3.124985
 30
0.0
 10
4.522429
 20
3.148712
 30
0.0
 10
4.530290
 20
3.171944
 30
0.0
 10
4.539242
 20
3.194649
 30
0.0
 10
4.549255
 20
3.216798
 30
0.0
 10
4.560297
 20
3.238357
 30
0.0
 10
4.572337
 20
3.259295
 30
0.0
 10
4.585342
 20
3.279582
 30
0.0
 10
4.599282
 20
3.299185
 30
0.0
 10
4.614126
 20
3.318073
 30
0.0
 10
4.629841
 20
3.336216
 30
0.0
 10
4.646396
 20
3.353580
 30
0.0
 10
4.663761
 20
3.370136
 30
0.0
 10
4.681903
 20
3.385851
 30
0.0
 10
4.700792
 20
3.400695
 30
0.0
 10
4.720395
 20
3.414635
 30
0.0
 10
4.740682
 20
3.427640
 30
0.0
 10
4.761620
 20
3.439680
 30
0.0
 10
4.783179
 20
3.450721
 30
0.0
 10
4.805327
 20
3.460734
 30
0.0
 10
4.828033
 20
3.469687
 30
0.0
 10
4.851265
 20
3.477548
 30
0.0
 10
4.874992
 20
3.484285
 30
0.0
 10
4.899182
 20
3.489869
 30
0.0
 10
4.923805
 20
3.494266
 30
0.0
 10
4.948828
 20
3.497445
 30
0.0
 10
4.974220
 20
3.499376
 30
0.0
 10
4.999950
 20
3.500027
 30
0.0
 10
5.025680
 20
3.499376
 30
0.0
 10
5.051072
 20
3.497445
 30
0.0
 10
5.076095
 20
3.494266
 30
0.0
 10
5.100717
 20
3.489869
 30
0.0
 10
5.124908
 20
3.484285
 30
0.0
 10
5.148634
 20
3.477548
 30
0.0
 10
5.171867
 20
3.469687
 30
0.0
 10
5.194572
 20
3.460734
 30
0.0
 10
5.216720
 20
3.450721
 30
0.0
 10
5.238279
 20
3.439680
 30
0.0
 10
5.259218
 20
3.427640
 30
0.0
 10
5.279505
 20
3.414635
 30
0.0
 10
5.299108
 20
3.400695
 30
0.0
 10
5.317996
 20
3.385851
 30
0.0
 10
5.336138
 20
3.370136
 30
0.0
 10
5.353503
 20
3.353580
 30
0.0
 10
5.370059
 20
3.336216
 30
0.0
 10
5.385774
 20
3.318073
 30
0.0
 10
5.400617
 20
3.299185
 30
0.0
 10
5.414558
 20
3.279582
 30
0.0
 10
5.427563
 20
3.259295
 30
0.0
 10
5.439602
 20
3.238357
 30
0.0
 10
5.450644
 20
3.216798
 30
0.0
 10
5.460657
 20
3.194649
 30
0.0
 10
5.469610
 20
3.171944
 30
0.0
 10
5.477471
 20
3.148712
 30
0.0
 10
5.484208
 20
3.124985
 30
0.0
 10
5.489791
 20
3.100794
 30
0.0
 10
5.494189
 20
3.076172
 30
0.0
 10
5.497368
 20
3.051149
 30
0.0
 10
5.499299
 20
3.025757
 30
0.0
 10
5.499950
 20
3.000027
 30
0.0
 10
5.499950
 20
3.000027
 30
0.0
  0
LWPOLYLINE
  5
105
100
AcDbEntity
  8
Layer_1
 62
7
100
AcDbPolyline
 90
258
 70
0
 10
7.350000
 20
2.999999
 30
0.0
 10
7.349892
 20
2.991308
 30
0.0
 10
7.349570
 20
2.982643
 30
0.0
 10
7.349034
 20
2.974008
 30
0.0
 10
7.348287
 20
2.965405
 30
0.0
 10
7.347330
 20
2.956840
 30
0.0
 10
7.346164
 20
2.948314
 30
0.0
 10
7.344791
 20
2.939832
 30
0.0
 10
7.343213
 20
2.931398
 30
0.0
 10
7.341430
 20
2.923015
 30
0.0
 10
7.339444
 20
2.914686
 30
0.0
 10
7.337258
 20
2.906415
 30
0.0
 10
7.334871
 20
2.898206
 30
0.0
 10
7.332287
 20
2.890063
 30
0.0
 10
7.329505
 20
2.881988
 30
0.0
 10
7.326528
 20
2.873986
 30
0.0
 10
7.323358
 20
2.866059
 30
0.0
 10
7.319995
 20
2.858213
 30
0.0
 10
7.316442
 20
2.850449
 30
0.0
 10
7.312699
 20
2.842773
 30
0.0
 10
7.308768
 20
2.835187
 30
0.0
 10
7.304651
 20
2.827695
 30
0.0
 10
7.300349
 20
2.820300
 30
0.0
 10
7.295863
 20
2.813007
 30
0.0
 10
7.291196
 20
2.805818
 30
0.0
 10
7.286348
 20
2.798738
 30
0.0
 10
7.281322
 20
2.791770
 30
0.0
 10
7.276118
 20
2.784917
 30
0.0
 10
7.270738
 20
2.778183
 30
0.0
 10
7.265183
 20
2.771572
 30
0.0
 10
7.259455
 20
2.765087
 30
0.0
 10
7.253556
 20
2.758733
 30
0.0
 10
7.247487
 20
2.752511
 30
0.0
 10
7.241266
 20
2.746442
 30
0.0
 10
7.234911
 20
2.740543
 30
0.0
 10
7.228426
 20
2.734816
 30
0.0
 10
7.221815
 20
2.729261
 30
0.0
 10
7.215082
 20
2.723881
 30
0.0
 10
7.208229
 20
2.718677
 30
0.0
 10
7.201261
 20
2.713650
 30
0.0
 10
7.194180
 20
2.708803
 30
0.0
 10
7.186992
 20
2.704135
 30
0.0
 10
7.179698
 20
2.699650
 30
0.0
 10
7.172304
 20
2.695348
 30
0.0
 10
7.164812
 20
2.691231
 30
0.0
 10
7.157226
 20
2.687300
 30
0.0
 10
7.149549
 20
2.683557
 30
0.0
 10
7.141786
 20
2.680003
 30
0.0
 10
7.133939
 20
2.676641
 30
0.0
 10
7.126013
 20
2.673470
 30
0.0
 10
7.118011
 20
2.670493
 30
0.0
 10
7.109936
 20
2.667712
 30
0.0
 10
7.101792
 20
2.665127
 30
0.0
 10
7.093583
 20
2.662741
 30
0.0
 10
7.085313
 20
2.660554
 30
0.0
 10
7.076984
 20
2.658569
 30
0.0
 10
7.068601
 20
2.656786
 30
0.0
 10
7.060166
 20
2.655207
 30
0.0
 10
7.051684
 20
2.653834
 30
0.0
 10
7.043159
 20
2.652668
 30
0.0
 10
7.034593
 20
2.651711
 30
0.0
 10
7.025991
 20
2.650964
 30
0.0
 10
7.017356
 20
2.650429
 30
0.0
 10
7.008691
 20
2.650106
 30
0.0
 10
7.000000
 20
2.649998
 30
0.0
 10
6.991309
 20
2.650106
 30
0.0
 10
6.982645
 20
2.650429
 30
0.0
 10
6.974009
 20
2.650964
 30
0.0
 10
6.965407
 20
2.651711
 30
0.0
 10
6.956841
 20
2.652668
 30
0.0
 10
6.948316
 20
2.653834
 30
0.0
 10
6.939834
 20
2.655207
 30
0.0
 10
6.931400
 20
2.656786
 30
0.0
 10
6.923016
 20
2.658569
 30
0.0
 10
6.914687
 20
2.660554
 30
0.0
 10
6.906417
 20
2.662741
 30
0.0
 10
6.898208
 20
2.665127
 30
0.0
 10
6.890064
 20
2.667712
 30
0.0
 10
6.881989
 20
2.670493
 30
0.0
 10
6.873987
 20
2.673470
 30
0.0
 10
6.866061
 20
2.676641
 30
0.0
 10
6.858214
 20
2.680003
 30
0.0
 10
6.850451
 20
2.683557
 30
0.0
 10
6.842774
 20
2.687300
 30
0.0
 10
6.835188
 20
2.691231
 30
0.0
 10
6.827696
 20
2.695348
 30
0.0
 10
6.820302
 20
2.699650
 30
0.0
 10
6.813008
 20
2.704135
 30
0.0
 10
6.805820
 20
2.708803
 30
0.0
 10
6.798740
 20
2.713650
 30
0.0
 10
6.791771
 20
2.718677
 30
0.0
 10
6.784918
 20
2.723881
 30
0.0
 10
6.778185
 20
2.729261
 30
0.0
 10
6.771574
 20
2.734816
 30
0.0
 10
6.765089
 20
2.740543
 30
0.0
 10
6.758734
 20
2.746442
 30
0.0
 10
6.752513
 20
2.752511
 30
0.0
 10
6.746444
 20
2.758733
 30
0.0
 10
6.740545
 20
2.765087
 30
0.0
 10
6.734817
 20
2.771572
 30
0.0
 10
6.729263
 20
2.778183
 30
0.0
 10
6.723883
 20
2.784917
 30
0.0
 10
6.718678
 20
2.791770
 30
0.0
 10
6.713652
 20
2.798738
 30
0.0
 10
6.708804
 20
2.805818
 30
0.0
 10
6.704137
 20
2.813007
 30
0.0
 10
6.699651
 20
2.820300
 30
0.0
 10
6.695349
 20
2.827695
 30
0.0
 10
6.691232
 20
2.835187
 30
0.0
 10
6.687302
 20
2.842773
 30
0.0
 10
6.683559
 20
2.850449
 30
0.0
 10
6.680005
 20
2.858213
 30
0.0
 10
6.676642
 20
2.866059
 30
0.0
 10
6.673472
 20
2.873986
 30
0.0
 10
6.670495
 20
2.881988
 30
0.0
 10
6.667714
 20
2.890063
 30
0.0
 10
6.665129
 20
2.898206
 30
0.0
 10
6.662742
 20
2.906415
 30
0.0
 10
6.660556
 20
2.914686
 30
0.0
 10
6.658570
 20
2.923015
 30
0.0
 10
6.656787
 20
2.931398
 30
0.0
 10
6.655209
 20
2.939832
 30
0.0
 10
6.653836
 20
2.948314
 30
0.0
 10
6.652670
 20
2.956840
 30
0.0
 10
6.651713
 20
2.965405
 30
0.0
 10
6.650966
 20
2.974008
 30
0.0
 10
6.650430
 20
2.982643
 30
0.0
 10
6.650108
 20
2.991308
 30
0.0
 10
6.650000
 20
2.999999
 30
0.0
 10
6.650114
 20
3.009032
 30
0.0
 10
6.650455
 20
3.018010
 30
0.0
 10
6.651021
 20
3.026928
 30
0.0
 10
6.651807
 20
3.035784
 30
0.0
 10
6.652812
 20
3.044576
 30
0.0
 10
6.654033
 20
3.053300
 30
0.0
 10
6.655467
 20
3.061954
 30
0.0
 10
6.657111
 20
3.070536
 30
0.0
 10
6.658962
 20
3.079042
 30
0.0
 10
6.661019
 20
3.087469
 30
0.0
 10
6.663277
 20
3.095815
 30
0.0
 10
6.665735
 20
3.104078
 30
0.0
 10
6.668390
 20
3.112254
 30
0.0
 10
6.671238
 20
3.120340
 30
0.0
 10
6.674277
 20
3.128335
 30
0.0
 10
6.677505
 20
3.136234
 30
0.0
 10
6.680918
 20
3.144036
 30
0.0
 10
6.684514
 20
3.151738
 30
0.0
 10
6.688290
 20
3.159337
 30
0.0
 10
6.692243
 20
3.166829
 30
0.0
 10
6.696371
 20
3.174214
 30
0.0
 10
6.700671
 20
3.181486
 30
0.0
 10
6.705139
 20
3.188645
 30
0.0
 10
6.709775
 20
3.195687
 30
0.0
 10
6.714573
 20
3.202609
 30
0.0
 10
6.719533
 20
3.209409
 30
0.0
 10
6.724650
 20
3.216084
 30
0.0
 10
6.729923
 20
3.222631
 30
0.0
 10
6.735348
 20
3.229048
 30
0.0
 10
6.740924
 20
3.235331
 30
0.0
 10
6.746646
 20
3.241478
 30
0.0
 10
6.752513
 20
3.247486
 30
0.0
 10
6.758521
 20
3.253353
 30
0.0
 10
6.764668
 20
3.259075
 30
0.0
 10
6.770951
 20
3.264650
 30
0.0
 10
6.777368
 20
3.270076
 30
0.0
 10
6.783915
 20
3.275348
 30
0.0
 10
6.790589
 20
3.280466
 30
0.0
 10
6.797389
 20
3.285425
 30
0.0
 10
6.804312
 20
3.290224
 30
0.0
 10
6.811354
 20
3.294859
 30
0.0
 10
6.818512
 20
3.299328
 30
0.0
 10
6.825785
 20
3.303628
 30
0.0
 10
6.833169
 20
3.307755
 30
0.0
 10
6.840662
 20
3.311709
 30
0.0
 10
6.848261
 20
3.315485
 30
0.0
 10
6.855962
 20
3.319081
 30
0.0
 10
6.863764
 20
3.322494
 30
0.0
 10
6.871664
 20
3.325721
 30
0.0
 10
6.879658
 20
3.328761
 30
0.0
 10
6.887745
 20
3.331609
 30
0.0
 10
6.895921
 20
3.334263
 30
0.0
 10
6.904183
 20
3.336721
 30
0.0
 10
6.912530
 20
3.338980
 30
0.0
 10
6.920957
 20
3.341036
 30
0.0
 10
6.929463
 20
3.342888
 30
0.0
 10
6.938044
 20
3.344532
 30
0.0
 10
6.946698
 20
3.345966
 30
0.0
 10
6.955423
 20
3.347187
 30
0.0
 10
6.964215
 20
3.348192
 30
0.0
 10
6.973071
 20
3.348978
 30
0.0
 10
6.981989
 20
3.349543
 30
0.0
 10
6.990966
 20
3.349884
 30
0.0
 10
7.000000
 20
3.349999
 30
0.0
 10
7.009034
 20
3.349884
 30
0.0
 10
7.018011
 20
3.349543
 30
0.0
 10
7.026929
 20
3.348978
 30
0.0
 10
7.035786
 20
3.348192
 30
0.0
 10
7.044577
 20
3.347187
 30
0.0
 10
7.053302
 20
3.345966
 30
0.0
 10
7.061956
 20
3.344532
 30
0.0
 10
7.070537
 20
3.342888
 30
0.0
 10
7.079043
 20
3.341036
 30
0.0
 10
7.087471
 20
3.338980
 30
0.0
 10
7.095817
 20
3.336721
 30
0.0
 10
7.104079
 20
3.334263
 30
0.0
 10
7.112255
 20
3.331609
 30
0.0
 10
7.120342
 20
3.328761
 30
0.0
 10
7.128336
 20
3.325721
 30
0.0
 10
7.136236
 20
3.322494
 30
0.0
 10
7.144038
 20
3.319081
 30
0.0
 10
7.151740
 20
3.315485
 30
0.0
 10
7.159338
 20
3.311709
 30
0.0
 10
7.166831
 20
3.307755
 30
0.0
 10
7.174215
 20
3.303628
 30
0.0
 10
7.181488
 20
3.299328
 30
0.0
 10
7.188647
 20
3.294859
 30
0.0
 10
7.195688
 20
3.290224
 30
0.0
 10
7.202611
 20
3.285425
 30
0.0
 10
7.209411
 20
3.280466
 30
0.0
 10
7.216086
 20
3.275348
 30
0.0
 10
7.222633
 20
3.270076
 30
0.0
 10
7.229049
 20
3.264650
 30
0.0
 10
7.235332
 20
3.259075
 30
0.0
 10
7.241479
 20
3.253353
 30
0.0
 10
7.247487
 20
3.247486
 30
0.0
 10
7.253354
 20
3.241478
 30
0.0
 10
7.259076
 20
3.235331
 30
0.0
 10
7.264652
 20
3.229048
 30
0.0
 10
7.270077
 20
3.222631
 30
0.0
 10
7.275350
 20
3.216084
 30
0.0
 10
7.280467
 20
3.209409
 30
0.0
 10
7.285427
 20
3.202609
 30
0.0
 10
7.290226
 20
3.195687
 30
0.0
 10
7.294861
 20
3.188645
 30
0.0
 10
7.299329
 20
3.181486
 30
0.0
 10
7.303629
 20
3.174214
 30
0.0
 10
7.307757
 20
3.166829
 30
0.0
 10
7.311710
 20
3.159337
 30
0.0
 10
7.315486
 20
3.151738
 30
0.0
 10
7.319082
 20
3.144036
 30
0.0
 10
7.322495
 20
3.136234
 30
0.0
 10
7.325723
 20
3.128335
 30
0.0
 10
7.328762
 20
3.120340
 30
0.0
 10
7.331610
 20
3.112254
 30
0.0
 10
7.334265
 20
3.104078
 30
0.0
 10
7.336723
 20
3.095815
 30
0.0
 10
7.338981
 20
3.087469
 30
0.0
 10
7.341038
 20
3.079042
 30
0.0
 10
7.342889
 20
3.070536
 30
0.0
 10
7.344533
 20
3.061954
 30
0.0
 10
7.345967
 20
3.053300
 30
0.0
 10
7.347188
 20
3.044576
 30
0.0
 10
7.348193
 20
3.035784
 30
0.0
 10
7.348980
 20
3.026928
 30
0.0
 10
7.349545
 20
3.018010
 30
0.0
 10
7.349886
 20
3.009032
 30
0.0
 10
7.350000
 20
2.999999
 30
0.0
 10
7.350000
 20
2.999999
 30
0.0
  0
ENDSEC
  0
SECTION
  2
OBJECTS
  0
DICTIONARY
  5
C
330
0
100
AcDbDictionary
  3
ACAD_GROUP
350
D
  3
ACAD_MLINESTYLE
350
17
  0
DICTIONARY
  5
D
330
C
100
AcDbDictionary
  0
DICTIONARY
  5
1A
330
C
100
AcDbDictionary
  0
DICTIONARY
  5
17
330
C
100
AcDbDictionary
  3
STANDARD
350
18
  0
DICTIONARY
  5
19
330
C
100
AcDbDictionary
  0
ENDSEC
  0
EOF
