999
Inkscape export via OpenSCAD DXF Export
  0
SECTION
  2
HEADER
  9
$ACADVER
  1
AC1014
  9
$HANDSEED
  5
FFFF
  9
$MEASUREMENT
 70
     1
  0
ENDSEC
  0
SECTION
  2
TABLES
  0
TABLE
  2
VPORT
  5
8
330
0
100
AcDbSymbolTable
 70
     4
  0
VPORT
  5
2E
330
8
100
AcDbSymbolTableRecord
100
AcDbViewportTableRecord
  2
*ACTIVE
 70
     0
 10
0.0
 20
0.0
 11
1.0
 21
1.0
 12
210.0
 22
148.5
 13
0.0
 23
0.0
 14
10.0
 24
10.0
 15
10.0
 25
10.0
 16
0.0
 26
0.0
 36
1.0
 17
0.0
 27
0.0
 37
0.0
 40
341.0
 41
1.24
 42
50.0
 43
0.0
 44
0.0
 50
0.0
 51
0.0
 71
     0
 72
   100
 73
     1
 74
     3
 75
     0
 76
     0
 77
     0
 78
     0
  0
ENDTAB
  0
TABLE
  2
LTYPE
  5
5
330
0
100
AcDbSymbolTable
 70
     1
  0
LTYPE
  5
14
330
5
100
AcDbSymbolTableRecord
100
AcDbLinetypeTableRecord
  2
BYBLOCK
 70
     0
  3

 72
    65
 73
     0
 40
0.0
  0
LTYPE
  5
15
330
5
100
AcDbSymbolTableRecord
100
AcDbLinetypeTableRecord
  2
BYLAYER
 70
     0
  3

 72
    65
 73
     0
 40
0.0
  0
LTYPE
  5
16
330
5
100
AcDbSymbolTableRecord
100
AcDbLinetypeTableRecord
  2
CONTINUOUS
 70
     0
  3
Solid line
 72
    65
 73
     0
 40
0.0
  0
ENDTAB
  0
TABLE
0
TABLE
2
LAYER
5
2
330
0
100
AcDbSymbolTable
70
1
0
LAYER
5
10
330
2
100
AcDbSymbolTableRecord
100
AcDbLayerTableRecord
2
Layer_1
70
0
62
7
6
CONTINUOUS
0
ENDTAB
0
ENDSEC
  0
ENDTAB
  0
TABLE
  2
STYLE
  5
3
330
0
100
AcDbSymbolTable
 70
     1
  0
STYLE
  5
11
330
3
100
AcDbSymbolTableRecord
100
AcDbTextStyleTableRecord
  2
STANDARD
 70
     0
 40
0.0
 41
1.0
 50
0.0
 71
     0
 42
2.5
  3
txt
  4

  0
ENDTAB
  0
TABLE
  2
VIEW
  5
6
330
0
100
AcDbSymbolTable
 70
     0
  0
ENDTAB
  0
TABLE
  2
UCS
  5
7
330
0
100
AcDbSymbolTable
 70
     0
  0
ENDTAB
  0
TABLE
  2
APPID
  5
9
330
0
100
AcDbSymbolTable
 70
     2
  0
APPID
  5
12
330
9
100
AcDbSymbolTableRecord
100
AcDbRegAppTableRecord
  2
ACAD
 70
     0
  0
ENDTAB
  0
TABLE
  2
DIMSTYLE
  5
A
330
0
100
AcDbSymbolTable
 70
     1
  0
DIMSTYLE
105
27
330
A
100
AcDbSymbolTableRecord
100
AcDbDimStyleTableRecord
  2
ISO-25
 70
     0
  3

  4

  5

  6

  7

 40
1.0
 41
2.5
 42
0.625
 43
3.75
 44
1.25
 45
0.0
 46
0.0
 47
0.0
 48
0.0
140
2.5
141
2.5
142
0.0
143
0.03937007874016
144
1.0
145
0.0
146
1.0
147
0.625
 71
     0
 72
     0
 73
     0
 74
     0
 75
     0
 76
     0
 77
     1
 78
     8
170
     0
171
     3
172
     1
173
     0
174
     0
175
     0
176
     0
177
     0
178
     0
270
     2
271
     2
272
     2
273
     2
274
     3
340
11
275
     0
280
     0
281
     0
282
     0
283
     0
284
     8
285
     0
286
     0
287
     3
288
     0
  0
ENDTAB
  0
TABLE
  2
BLOCK_RECORD
  5
1
330
0
100
AcDbSymbolTable
 70
     1
  0
BLOCK_RECORD
  5
1F
330
1
100
AcDbSymbolTableRecord
100
AcDbBlockTableRecord
  2
*MODEL_SPACE
  0
BLOCK_RECORD
  5
1B
330
1
100
AcDbSymbolTableRecord
100
AcDbBlockTableRecord
  2
*PAPER_SPACE
  0
ENDTAB
  0
ENDSEC
  0
SECTION
  2
BLOCKS
  0
BLOCK
  5
20
330
1F
100
AcDbEntity
  8
0
100
AcDbBlockBegin
  2
*MODEL_SPACE
 70
     0
 10
0.0
 20
0.0
 30
0.0
  3
*MODEL_SPACE
  1

  0
ENDBLK
  5
21
330
1F
100
AcDbEntity
  8
0
100
AcDbBlockEnd
  0
BLOCK
  5
1C
330
1B
100
AcDbEntity
 67
     1
  8
0
100
AcDbBlockBegin
  2
*PAPER_SPACE
  1

  0
ENDBLK
  5
1D
330
1B
100
AcDbEntity
 67
     1
  8
0
100
AcDbBlockEnd
  0
ENDSEC
  0
SECTION
  2
ENTITIES
0
DIMENSION
5
83
100
AcDbEntity
62
256
370
-1
6
ByLayer
1
total_width
3
Standard
70
0
71
5
72
1
41
1.0
100
AcDbAlignedDimension
13
0.017578
23
0.000000
33
0.0
14
23.992440
24
0.000000
34
0.0
50
0.000000
100
AcDbRotatedDimension
0
DIMENSION
5
83
100
AcDbEntity
62
256
370
-1
6
ByLayer
1
total_minx
3
Standard
70
0
71
5
72
1
41
1.0
100
AcDbAlignedDimension
13
0.017578
23
0.000000
33
0.0
14
0.000000
24
0.000000
34
0.0
50
0.000000
100
AcDbRotatedDimension
0
DIMENSION
5
83
100
AcDbEntity
62
256
370
-1
6
ByLayer
1
total_maxx
3
Standard
70
0
71
5
72
1
41
1.0
100
AcDbAlignedDimension
13
0.000000
23
0.000000
33
0.0
14
23.992440
24
0.000000
34
0.0
50
0.000000
100
AcDbRotatedDimension
0
DIMENSION
5
83
100
AcDbEntity
62
256
370
-1
6
ByLayer
1
total_height
3
Standard
70
0
71
5
72
1
41
1.0
100
AcDbAlignedDimension
13
0.000000
23
0.014111
33
0.0
14
0.000000
24
15.240054
34
0.0
50
90.000000
100
AcDbRotatedDimension
0
DIMENSION
5
83
100
AcDbEntity
62
256
370
-1
6
ByLayer
1
total_miny
3
Standard
70
0
71
5
72
1
41
1.0
100
AcDbAlignedDimension
13
0.014111
23
0.000000
33
0.0
14
0.000000
24
0.000000
34
0.0
50
0.000000
100
AcDbRotatedDimension
0
DIMENSION
5
83
100
AcDbEntity
62
256
370
-1
6
ByLayer
1
total_maxy
3
Standard
70
0
71
5
72
1
41
1.0
100
AcDbAlignedDimension
13
0.000000
23
0.000000
33
0.0
14
15.240054
24
0.000000
34
0.0
50
0.000000
100
AcDbRotatedDimension
0
DIMENSION
8
Layer_1
5
83
100
AcDbEntity
62
256
370
-1
6
ByLayer
1
Layer_1_width
3
Standard
70
0
71
5
72
1
41
1.0
100
AcDbAlignedDimension
13
0.017578
23
0.000000
33
0.0
14
23.992440
24
0.000000
34
0.0
50
0.000000
100
AcDbRotatedDimension
0
DIMENSION
8
Layer_1
5
83
100
AcDbEntity
62
256
370
-1
6
ByLayer
1
Layer_1_minx
3
Standard
70
0
71
5
72
1
41
1.0
100
AcDbAlignedDimension
13
0.017578
23
0.000000
33
0.0
14
0.000000
24
0.000000
34
0.0
50
0.000000
100
AcDbRotatedDimension
0
DIMENSION
8
Layer_1
5
83
100
AcDbEntity
62
256
370
-1
6
ByLayer
1
Layer_1_maxx
3
Standard
70
0
71
5
72
1
41
1.0
100
AcDbAlignedDimension
13
0.000000
23
0.000000
33
0.0
14
23.992440
24
0.000000
34
0.0
50
0.000000
100
AcDbRotatedDimension
0
DIMENSION
8
Layer_1
5
83
100
AcDbEntity
62
256
370
-1
6
ByLayer
1
Layer_1_height
3
Standard
70
0
71
5
72
1
41
1.0
100
AcDbAlignedDimension
13
0.000000
23
0.014111
33
0.0
14
0.000000
24
15.240054
34
0.0
50
90.000000
100
AcDbRotatedDimension
0
DIMENSION
8
Layer_1
5
83
100
AcDbEntity
62
256
370
-1
6
ByLayer
1
Layer_1_miny
3
Standard
70
0
71
5
72
1
41
1.0
100
AcDbAlignedDimension
13
0.014111
23
0.000000
33
0.0
14
0.000000
24
0.000000
34
0.0
50
0.000000
100
AcDbRotatedDimension
0
DIMENSION
8
Layer_1
5
83
100
AcDbEntity
62
256
370
-1
6
ByLayer
1
Layer_1_maxy
3
Standard
70
0
71
5
72
1
41
1.0
100
AcDbAlignedDimension
13
0.000000
23
0.000000
33
0.0
14
15.240054
24
0.000000
34
0.0
50
0.000000
100
AcDbRotatedDimension
62
255
0
LWPOLYLINE
100
AcDbPolyline
8
Layer_1
90
4
70
0
10
0.017578
20
15.240054
30
0.0
10
0.017578
20
14.675643
30
0.0
10
0.581988
20
15.240054
30
0.0
10
0.017578
20
15.240054
30
0.0
62
255
0
LWPOLYLINE
100
AcDbPolyline
8
Layer_1
90
207
70
0
10
11.588711
20
15.240054
30
0.0
10
11.588711
20
14.449879
30
0.0
10
1.372306
20
14.449879
30
0.0
10
1.372306
20
11.797007
30
0.0
10
2.190629
20
11.797007
30
0.0
10
2.190629
20
12.192093
30
0.0
10
2.049597
20
12.192093
30
0.0
10
2.049597
20
12.643623
30
0.0
10
2.783333
20
12.643623
30
0.0
10
2.783333
20
11.797007
30
0.0
10
3.601797
20
11.797007
30
0.0
10
3.601797
20
12.192093
30
0.0
10
3.460624
20
12.192093
30
0.0
10
3.460624
20
12.643623
30
0.0
10
4.194500
20
12.643623
30
0.0
10
4.194500
20
11.797007
30
0.0
10
5.012970
20
11.797007
30
0.0
10
5.012970
20
12.192093
30
0.0
10
4.871794
20
12.192093
30
0.0
10
4.871794
20
12.643623
30
0.0
10
5.605527
20
12.643623
30
0.0
10
5.605527
20
11.797007
30
0.0
10
9.360093
20
11.797157
30
0.0
10
8.559854
20
11.247185
30
0.0
10
8.623589
20
11.154430
30
0.0
10
9.558585
20
11.797157
30
0.0
10
9.838894
20
11.797157
30
0.0
10
9.838894
20
11.797007
30
0.0
10
9.858283
20
11.797007
30
0.0
10
9.417401
20
11.494093
30
0.0
10
9.481132
20
11.401481
30
0.0
10
10.056628
20
11.797007
30
0.0
10
10.854970
20
11.797157
30
0.0
10
9.737088
20
11.029005
30
0.0
10
9.800819
20
10.936247
30
0.0
10
10.963767
20
11.735610
30
0.0
10
10.921473
20
11.797157
30
0.0
10
11.353022
20
11.797007
30
0.0
10
10.594640
20
11.275912
30
0.0
10
10.658374
20
11.183157
30
0.0
10
11.551365
20
11.797007
30
0.0
10
11.851364
20
11.797007
30
0.0
10
11.452485
20
11.522823
30
0.0
10
11.516220
20
11.430214
30
0.0
10
12.011937
20
11.771046
30
0.0
10
12.012087
20
11.771046
30
0.0
10
12.507810
20
11.430214
30
0.0
10
12.571539
20
11.522823
30
0.0
10
12.172516
20
11.797154
30
0.0
10
12.472516
20
11.797154
30
0.0
10
13.365653
20
11.183157
30
0.0
10
13.429387
20
11.275912
30
0.0
10
12.671005
20
11.797007
30
0.0
10
13.102407
20
11.797007
30
0.0
10
13.060258
20
11.735607
30
0.0
10
14.223205
20
10.936244
30
0.0
10
14.286939
20
11.029002
30
0.0
10
13.169201
20
11.797007
30
0.0
10
13.479555
20
11.797007
30
0.0
10
13.967255
20
11.797157
30
0.0
10
14.542892
20
11.401484
30
0.0
10
14.606626
20
11.494095
30
0.0
10
14.165742
20
11.797010
30
0.0
10
14.465594
20
11.797010
30
0.0
10
15.400444
20
11.154430
30
0.0
10
15.464178
20
11.247185
30
0.0
10
14.664090
20
11.797010
30
0.0
10
14.693111
20
11.797010
30
0.0
10
15.539726
20
11.797160
30
0.0
10
15.539726
20
12.643623
30
0.0
10
22.877645
20
12.643623
30
0.0
10
22.877645
20
12.756504
30
0.0
10
22.369383
20
12.756504
30
0.0
10
22.369383
20
13.038562
30
0.0
10
22.256940
20
13.038562
30
0.0
10
22.256940
20
12.756504
30
0.0
10
21.804970
20
12.756504
30
0.0
10
21.804970
20
13.038562
30
0.0
10
21.692524
20
13.038562
30
0.0
10
21.692524
20
12.756504
30
0.0
10
21.240412
20
12.756504
30
0.0
10
21.240412
20
13.038562
30
0.0
10
21.127969
20
13.038562
30
0.0
10
21.127969
20
12.756504
30
0.0
10
20.676004
20
12.756504
30
0.0
10
20.676004
20
13.038562
30
0.0
10
20.563559
20
13.038562
30
0.0
10
20.563559
20
12.756504
30
0.0
10
20.097737
20
12.756504
30
0.0
10
20.097737
20
13.038562
30
0.0
10
19.984856
20
13.038562
30
0.0
10
19.984856
20
12.756504
30
0.0
10
19.533329
20
12.756504
30
0.0
10
19.533329
20
13.038562
30
0.0
10
19.420299
20
13.038562
30
0.0
10
19.420299
20
12.756504
30
0.0
10
18.982626
20
12.756504
30
0.0
10
18.982626
20
13.038562
30
0.0
10
18.870183
20
13.038562
30
0.0
10
18.870183
20
12.756504
30
0.0
10
18.404508
20
12.756504
30
0.0
10
18.404508
20
13.038562
30
0.0
10
18.291481
20
13.038562
30
0.0
10
18.291481
20
12.756504
30
0.0
10
17.839953
20
12.756504
30
0.0
10
17.839953
20
13.038562
30
0.0
10
17.727070
20
13.038562
30
0.0
10
17.727070
20
12.756504
30
0.0
10
17.303689
20
12.756504
30
0.0
10
17.303689
20
13.038562
30
0.0
10
17.190662
20
13.038562
30
0.0
10
17.190662
20
12.756504
30
0.0
10
16.724843
20
12.756504
30
0.0
10
16.724843
20
13.038562
30
0.0
10
16.612397
20
13.038562
30
0.0
10
16.612397
20
12.756504
30
0.0
10
14.636669
20
12.756504
30
0.0
10
14.636669
20
12.079213
30
0.0
10
14.777845
20
12.079213
30
0.0
10
14.777845
20
11.909891
30
0.0
10
14.185142
20
11.909891
30
0.0
10
14.185142
20
12.756504
30
0.0
10
13.225645
20
12.756504
30
0.0
10
13.225645
20
12.079213
30
0.0
10
13.366675
20
12.079213
30
0.0
10
13.366675
20
11.909891
30
0.0
10
12.773971
20
11.909891
30
0.0
10
12.773971
20
12.756504
30
0.0
10
11.814475
20
12.756504
30
0.0
10
11.814475
20
12.079213
30
0.0
10
11.955648
20
12.079213
30
0.0
10
11.955648
20
11.909891
30
0.0
10
11.362945
20
11.909891
30
0.0
10
11.362945
20
12.756504
30
0.0
10
10.403305
20
12.756504
30
0.0
10
10.403305
20
12.079213
30
0.0
10
10.544481
20
12.079213
30
0.0
10
10.544481
20
11.909891
30
0.0
10
9.951774
20
11.909891
30
0.0
10
9.951774
20
12.756504
30
0.0
10
8.992278
20
12.756504
30
0.0
10
8.992278
20
12.079213
30
0.0
10
9.133307
20
12.079213
30
0.0
10
9.133307
20
11.909891
30
0.0
10
8.540751
20
11.909891
30
0.0
10
8.540751
20
12.756504
30
0.0
10
7.581108
20
12.756504
30
0.0
10
7.581108
20
12.079213
30
0.0
10
7.722284
20
12.079213
30
0.0
10
7.722284
20
11.909891
30
0.0
10
7.129580
20
11.909891
30
0.0
10
7.129580
20
12.756504
30
0.0
10
6.170084
20
12.756504
30
0.0
10
6.170084
20
12.079213
30
0.0
10
6.311113
20
12.079213
30
0.0
10
6.311113
20
11.909891
30
0.0
10
5.718410
20
11.909891
30
0.0
10
5.718261
20
14.336999
30
0.0
10
16.612397
20
14.336999
30
0.0
10
16.612397
20
14.054938
30
0.0
10
16.724843
20
14.054938
30
0.0
10
16.724843
20
14.336999
30
0.0
10
17.190662
20
14.336999
30
0.0
10
17.190662
20
14.054938
30
0.0
10
17.303689
20
14.054938
30
0.0
10
17.303689
20
14.336999
30
0.0
10
17.727070
20
14.336999
30
0.0
10
17.727070
20
14.054938
30
0.0
10
17.839953
20
14.054938
30
0.0
10
17.839953
20
14.336999
30
0.0
10
18.291481
20
14.336999
30
0.0
10
18.291481
20
14.054938
30
0.0
10
18.404508
20
14.054938
30
0.0
10
18.404508
20
14.336999
30
0.0
10
18.870183
20
14.336999
30
0.0
10
18.870183
20
14.054938
30
0.0
10
18.982626
20
14.054938
30
0.0
10
18.982626
20
14.336999
30
0.0
10
19.420299
20
14.336999
30
0.0
10
19.420299
20
14.054938
30
0.0
10
19.533329
20
14.054938
30
0.0
10
19.533329
20
14.336999
30
0.0
10
19.984856
20
14.336999
30
0.0
10
19.984856
20
14.054938
30
0.0
10
20.097737
20
14.054938
30
0.0
10
20.097737
20
14.336999
30
0.0
10
20.563559
20
14.336999
30
0.0
10
20.563559
20
14.054938
30
0.0
10
20.676004
20
14.054938
30
0.0
10
20.676004
20
14.336999
30
0.0
10
21.127969
20
14.336999
30
0.0
10
21.127969
20
14.054938
30
0.0
10
21.240412
20
14.054938
30
0.0
10
21.240412
20
14.336999
30
0.0
10
21.692524
20
14.336999
30
0.0
10
21.692524
20
14.054938
30
0.0
10
21.804970
20
14.054938
30
0.0
10
21.804970
20
14.336999
30
0.0
10
22.256934
20
14.336999
30
0.0
10
22.256934
20
14.054938
30
0.0
10
22.369377
20
14.054938
30
0.0
10
22.369377
20
14.336999
30
0.0
10
22.877640
20
14.336999
30
0.0
10
22.877640
20
14.449879
30
0.0
10
12.153122
20
14.449879
30
0.0
10
12.153122
20
15.240054
30
0.0
10
11.588711
20
15.240054
30
0.0
62
255
0
LWPOLYLINE
100
AcDbPolyline
8
Layer_1
90
4
70
0
10
23.442050
20
15.240054
30
0.0
10
23.992313
20
14.689791
30
0.0
10
23.992313
20
15.240054
30
0.0
10
23.442050
20
15.240054
30
0.0
62
255
0
LWPOLYLINE
100
AcDbPolyline
8
Layer_1
90
5
70
0
10
16.894749
20
14.167383
30
0.0
10
16.894749
20
12.926119
30
0.0
10
17.007192
20
12.926119
30
0.0
10
17.007192
20
14.167383
30
0.0
10
16.894749
20
14.167383
30
0.0
62
255
0
LWPOLYLINE
100
AcDbPolyline
8
Layer_1
90
5
70
0
10
17.472867
20
14.167383
30
0.0
10
17.472867
20
12.926119
30
0.0
10
17.585894
20
12.926119
30
0.0
10
17.585894
20
14.167383
30
0.0
10
17.472867
20
14.167383
30
0.0
62
255
0
LWPOLYLINE
100
AcDbPolyline
8
Layer_1
90
5
70
0
10
18.009275
20
14.167383
30
0.0
10
18.009275
20
12.926119
30
0.0
10
18.122303
20
12.926119
30
0.0
10
18.122303
20
14.167383
30
0.0
10
18.009275
20
14.167383
30
0.0
62
255
0
LWPOLYLINE
100
AcDbPolyline
8
Layer_1
90
5
70
0
10
18.573686
20
14.167383
30
0.0
10
18.573686
20
12.926119
30
0.0
10
18.686713
20
12.926119
30
0.0
10
18.686713
20
14.167383
30
0.0
10
18.573686
20
14.167383
30
0.0
62
255
0
LWPOLYLINE
100
AcDbPolyline
8
Layer_1
90
5
70
0
10
19.152532
20
14.167383
30
0.0
10
19.152532
20
12.926119
30
0.0
10
19.264978
20
12.926119
30
0.0
10
19.264978
20
14.167383
30
0.0
10
19.152532
20
14.167383
30
0.0
62
255
0
LWPOLYLINE
100
AcDbPolyline
8
Layer_1
90
5
70
0
10
19.702504
20
14.167383
30
0.0
10
19.702504
20
12.926119
30
0.0
10
19.815534
20
12.926119
30
0.0
10
19.815534
20
14.167383
30
0.0
10
19.702504
20
14.167383
30
0.0
62
255
0
LWPOLYLINE
100
AcDbPolyline
8
Layer_1
90
5
70
0
10
20.267062
20
14.167383
30
0.0
10
20.267062
20
12.926119
30
0.0
10
20.380089
20
12.926119
30
0.0
10
20.380089
20
14.167383
30
0.0
10
20.267062
20
14.167383
30
0.0
62
255
0
LWPOLYLINE
100
AcDbPolyline
8
Layer_1
90
5
70
0
10
20.845764
20
14.167383
30
0.0
10
20.845764
20
12.926119
30
0.0
10
20.958207
20
12.926119
30
0.0
10
20.958207
20
14.167383
30
0.0
10
20.845764
20
14.167383
30
0.0
62
255
0
LWPOLYLINE
100
AcDbPolyline
8
Layer_1
90
5
70
0
10
21.410174
20
14.167383
30
0.0
10
21.410174
20
12.926119
30
0.0
10
21.522617
20
12.926119
30
0.0
10
21.522617
20
14.167383
30
0.0
10
21.410174
20
14.167383
30
0.0
62
255
0
LWPOLYLINE
100
AcDbPolyline
8
Layer_1
90
5
70
0
10
21.974729
20
14.167383
30
0.0
10
21.974729
20
12.926119
30
0.0
10
22.087175
20
12.926119
30
0.0
10
22.087175
20
14.167383
30
0.0
10
21.974729
20
14.167383
30
0.0
62
255
0
LWPOLYLINE
100
AcDbPolyline
8
Layer_1
90
5
70
0
10
22.539140
20
14.167383
30
0.0
10
22.539140
20
12.926119
30
0.0
10
22.651583
20
12.926119
30
0.0
10
22.651583
20
14.167383
30
0.0
10
22.539140
20
14.167383
30
0.0
62
255
0
LWPOLYLINE
100
AcDbPolyline
8
Layer_1
90
5
70
0
10
16.612397
20
13.885178
30
0.0
10
16.612397
20
13.208325
30
0.0
10
16.724843
20
13.208325
30
0.0
10
16.724843
20
13.885178
30
0.0
10
16.612397
20
13.885178
30
0.0
62
255
0
LWPOLYLINE
100
AcDbPolyline
8
Layer_1
90
5
70
0
10
17.190662
20
13.885178
30
0.0
10
17.190662
20
13.208325
30
0.0
10
17.303689
20
13.208325
30
0.0
10
17.303689
20
13.885178
30
0.0
10
17.190662
20
13.885178
30
0.0
62
255
0
LWPOLYLINE
100
AcDbPolyline
8
Layer_1
90
5
70
0
10
17.727070
20
13.885178
30
0.0
10
17.727070
20
13.208325
30
0.0
10
17.839953
20
13.208325
30
0.0
10
17.839953
20
13.885178
30
0.0
10
17.727070
20
13.885178
30
0.0
62
255
0
LWPOLYLINE
100
AcDbPolyline
8
Layer_1
90
5
70
0
10
18.291481
20
13.885178
30
0.0
10
18.291481
20
13.208325
30
0.0
10
18.404508
20
13.208325
30
0.0
10
18.404508
20
13.885178
30
0.0
10
18.291481
20
13.885178
30
0.0
62
255
0
LWPOLYLINE
100
AcDbPolyline
8
Layer_1
90
5
70
0
10
18.870183
20
13.885178
30
0.0
10
18.870183
20
13.208325
30
0.0
10
18.982626
20
13.208325
30
0.0
10
18.982626
20
13.885178
30
0.0
10
18.870183
20
13.885178
30
0.0
62
255
0
LWPOLYLINE
100
AcDbPolyline
8
Layer_1
90
5
70
0
10
19.420299
20
13.885178
30
0.0
10
19.420299
20
13.208325
30
0.0
10
19.533329
20
13.208325
30
0.0
10
19.533329
20
13.885178
30
0.0
10
19.420299
20
13.885178
30
0.0
62
255
0
LWPOLYLINE
100
AcDbPolyline
8
Layer_1
90
5
70
0
10
19.984856
20
13.885178
30
0.0
10
19.984856
20
13.208325
30
0.0
10
20.097737
20
13.208325
30
0.0
10
20.097737
20
13.885178
30
0.0
10
19.984856
20
13.885178
30
0.0
62
255
0
LWPOLYLINE
100
AcDbPolyline
8
Layer_1
90
5
70
0
10
20.563559
20
13.885178
30
0.0
10
20.563559
20
13.208325
30
0.0
10
20.676004
20
13.208325
30
0.0
10
20.676004
20
13.885178
30
0.0
10
20.563559
20
13.885178
30
0.0
62
255
0
LWPOLYLINE
100
AcDbPolyline
8
Layer_1
90
5
70
0
10
21.127969
20
13.885178
30
0.0
10
21.127969
20
13.208325
30
0.0
10
21.240412
20
13.208325
30
0.0
10
21.240412
20
13.885178
30
0.0
10
21.127969
20
13.885178
30
0.0
62
255
0
LWPOLYLINE
100
AcDbPolyline
8
Layer_1
90
5
70
0
10
21.692524
20
13.885178
30
0.0
10
21.692524
20
13.208325
30
0.0
10
21.804970
20
13.208325
30
0.0
10
21.804970
20
13.885178
30
0.0
10
21.692524
20
13.885178
30
0.0
62
255
0
LWPOLYLINE
100
AcDbPolyline
8
Layer_1
90
5
70
0
10
22.256934
20
13.885178
30
0.0
10
22.256934
20
13.208325
30
0.0
10
22.369377
20
13.208325
30
0.0
10
22.369377
20
13.885178
30
0.0
10
22.256934
20
13.885178
30
0.0
62
255
0
LWPOLYLINE
100
AcDbPolyline
8
Layer_1
90
5
70
0
10
10.042489
20
11.581161
30
0.0
10
8.879542
20
10.781944
30
0.0
10
8.943276
20
10.689333
30
0.0
10
10.106077
20
11.488550
30
0.0
10
10.042489
20
11.581161
30
0.0
62
255
0
LWPOLYLINE
100
AcDbPolyline
8
Layer_1
90
5
70
0
10
13.981547
20
11.581161
30
0.0
10
13.917959
20
11.488550
30
0.0
10
15.080760
20
10.689333
30
0.0
10
15.144494
20
10.781944
30
0.0
10
13.981547
20
11.581161
30
0.0
62
255
0
LWPOLYLINE
100
AcDbPolyline
8
Layer_1
90
5
70
0
10
11.219875
20
11.362981
30
0.0
10
10.056928
20
10.563617
30
0.0
10
10.120662
20
10.471009
30
0.0
10
11.283607
20
11.270369
30
0.0
10
11.219875
20
11.362981
30
0.0
62
255
0
LWPOLYLINE
100
AcDbPolyline
8
Layer_1
90
5
70
0
10
12.804161
20
11.362981
30
0.0
10
12.740426
20
11.270369
30
0.0
10
13.903374
20
10.471009
30
0.0
10
13.967108
20
10.563617
30
0.0
10
12.804161
20
11.362981
30
0.0
62
255
0
LWPOLYLINE
100
AcDbPolyline
8
Layer_1
90
5
70
0
10
9.184937
20
11.334248
30
0.0
10
8.021843
20
10.534887
30
0.0
10
8.085577
20
10.442276
30
0.0
10
9.248525
20
11.241639
30
0.0
10
9.184937
20
11.334248
30
0.0
62
255
0
LWPOLYLINE
100
AcDbPolyline
8
Layer_1
90
5
70
0
10
14.839099
20
11.334248
30
0.0
10
14.775511
20
11.241639
30
0.0
10
15.938459
20
10.442276
30
0.0
10
16.002193
20
10.534887
30
0.0
10
14.839099
20
11.334248
30
0.0
62
255
0
LWPOLYLINE
100
AcDbPolyline
8
Layer_1
90
5
70
0
10
10.362176
20
11.116070
30
0.0
10
9.199229
20
10.316853
30
0.0
10
9.262963
20
10.224242
30
0.0
10
10.425764
20
11.023312
30
0.0
10
10.362176
20
11.116070
30
0.0
62
255
0
LWPOLYLINE
100
AcDbPolyline
8
Layer_1
90
5
70
0
10
13.661859
20
11.116070
30
0.0
10
13.598272
20
11.023312
30
0.0
10
14.761075
20
10.224242
30
0.0
10
14.824807
20
10.316853
30
0.0
10
13.661859
20
11.116070
30
0.0
62
255
0
LWPOLYLINE
100
AcDbPolyline
8
Layer_1
90
5
70
0
10
8.327382
20
11.087337
30
0.0
10
7.164291
20
10.287976
30
0.0
10
7.228022
20
10.195365
30
0.0
10
8.390970
20
10.994582
30
0.0
10
8.327382
20
11.087337
30
0.0
62
255
0
LWPOLYLINE
100
AcDbPolyline
8
Layer_1
90
5
70
0
10
15.696653
20
11.087337
30
0.0
10
15.633066
20
10.994582
30
0.0
10
16.796013
20
10.195365
30
0.0
10
16.859745
20
10.287976
30
0.0
10
15.696653
20
11.087337
30
0.0
62
255
0
LWPOLYLINE
100
AcDbPolyline
8
Layer_1
90
5
70
0
10
9.504624
20
10.869157
30
0.0
10
8.341530
20
10.069796
30
0.0
10
8.405264
20
9.977185
30
0.0
10
9.568209
20
10.776402
30
0.0
10
9.504624
20
10.869157
30
0.0
62
255
0
LWPOLYLINE
100
AcDbPolyline
8
Layer_1
90
5
70
0
10
14.519414
20
10.869157
30
0.0
10
14.455827
20
10.776402
30
0.0
10
15.618774
20
9.977185
30
0.0
10
15.682506
20
10.069796
30
0.0
10
14.519414
20
10.869157
30
0.0
62
255
0
LWPOLYLINE
100
AcDbPolyline
8
Layer_1
90
5
70
0
10
8.647070
20
10.622099
30
0.0
10
7.483978
20
9.822886
30
0.0
10
7.547710
20
9.730128
30
0.0
10
8.710657
20
10.529491
30
0.0
10
8.647070
20
10.622099
30
0.0
62
255
0
LWPOLYLINE
100
AcDbPolyline
8
Layer_1
90
5
70
0
10
15.376966
20
10.622099
30
0.0
10
15.313379
20
10.529491
30
0.0
10
16.476326
20
9.730128
30
0.0
10
16.540060
20
9.822886
30
0.0
10
15.376966
20
10.622099
30
0.0
62
255
0
LWPOLYLINE
100
AcDbPolyline
8
Layer_1
90
5
70
0
10
9.824309
20
10.403775
30
0.0
10
8.661361
20
9.604558
30
0.0
10
8.725096
20
9.511803
30
0.0
10
9.888043
20
10.311164
30
0.0
10
9.824309
20
10.403775
30
0.0
62
255
0
LWPOLYLINE
100
AcDbPolyline
8
Layer_1
90
5
70
0
10
14.199727
20
10.403775
30
0.0
10
14.135993
20
10.311164
30
0.0
10
15.298940
20
9.511803
30
0.0
10
15.362674
20
9.604558
30
0.0
10
14.199727
20
10.403775
30
0.0
62
255
0
LWPOLYLINE
100
AcDbPolyline
8
Layer_1
90
5
70
0
10
7.789371
20
10.375045
30
0.0
10
6.626423
20
9.575828
30
0.0
10
6.690158
20
9.483217
30
0.0
10
7.853105
20
10.282434
30
0.0
10
7.789371
20
10.375045
30
0.0
62
255
0
LWPOLYLINE
100
AcDbPolyline
8
Layer_1
90
5
70
0
10
16.234665
20
10.375045
30
0.0
10
16.170933
20
10.282434
30
0.0
10
17.333878
20
9.483217
30
0.0
10
17.397612
20
9.575828
30
0.0
10
16.234665
20
10.375045
30
0.0
62
255
0
LWPOLYLINE
100
AcDbPolyline
8
Layer_1
90
5
70
0
10
8.966757
20
10.157008
30
0.0
10
7.803663
20
9.357648
30
0.0
10
7.867397
20
9.265037
30
0.0
10
9.030344
20
10.064400
30
0.0
10
8.966757
20
10.157008
30
0.0
62
255
0
LWPOLYLINE
100
AcDbPolyline
8
Layer_1
90
5
70
0
10
15.057279
20
10.157008
30
0.0
10
14.993691
20
10.064400
30
0.0
10
16.156639
20
9.265037
30
0.0
10
16.220373
20
9.357648
30
0.0
10
15.057279
20
10.157008
30
0.0
62
255
0
LWPOLYLINE
100
AcDbPolyline
8
Layer_1
90
5
70
0
10
6.931819
20
10.128131
30
0.0
10
5.768871
20
9.328918
30
0.0
10
5.832459
20
9.236160
30
0.0
10
6.995404
20
10.035523
30
0.0
10
6.931819
20
10.128131
30
0.0
62
255
0
LWPOLYLINE
100
AcDbPolyline
8
Layer_1
90
5
70
0
10
17.092220
20
10.128131
30
0.0
10
17.028629
20
10.035523
30
0.0
10
18.191577
20
9.236160
30
0.0
10
18.255164
20
9.328918
30
0.0
10
17.092220
20
10.128131
30
0.0
62
255
0
LWPOLYLINE
100
AcDbPolyline
8
Layer_1
90
5
70
0
10
8.109058
20
9.909951
30
0.0
10
6.946111
20
9.110737
30
0.0
10
7.009842
20
9.018126
30
0.0
10
8.172646
20
9.817343
30
0.0
10
8.109058
20
9.909951
30
0.0
62
255
0
LWPOLYLINE
100
AcDbPolyline
8
Layer_1
90
5
70
0
10
15.914978
20
9.909951
30
0.0
10
15.851390
20
9.817343
30
0.0
10
17.014194
20
9.018126
30
0.0
10
17.077925
20
9.110737
30
0.0
10
15.914978
20
9.909951
30
0.0
62
255
0
LWPOLYLINE
100
AcDbPolyline
8
Layer_1
90
5
70
0
10
7.251503
20
9.663041
30
0.0
10
6.088556
20
8.863680
30
0.0
10
6.152143
20
8.771069
30
0.0
10
7.315091
20
9.570285
30
0.0
10
7.251503
20
9.663041
30
0.0
62
255
0
LWPOLYLINE
100
AcDbPolyline
8
Layer_1
90
5
70
0
10
16.772532
20
9.663041
30
0.0
10
16.708945
20
9.570285
30
0.0
10
17.871892
20
8.771069
30
0.0
10
17.935480
20
8.863680
30
0.0
10
16.772532
20
9.663041
30
0.0
62
255
0
LWPOLYLINE
100
AcDbPolyline
8
Layer_1
90
5
70
0
10
8.428742
20
9.444716
30
0.0
10
7.265942
20
8.645500
30
0.0
10
7.329676
20
8.552744
30
0.0
10
8.492477
20
9.351961
30
0.0
10
8.428742
20
9.444716
30
0.0
62
255
0
LWPOLYLINE
100
AcDbPolyline
8
Layer_1
90
5
70
0
10
15.595293
20
9.444716
30
0.0
10
15.531559
20
9.351961
30
0.0
10
16.694360
20
8.552744
30
0.0
10
16.758094
20
8.645500
30
0.0
10
15.595293
20
9.444716
30
0.0
62
255
0
LWPOLYLINE
100
AcDbPolyline
8
Layer_1
90
5
70
0
10
6.393805
20
9.415983
30
0.0
10
5.230857
20
8.616767
30
0.0
10
5.294591
20
8.524011
30
0.0
10
6.457539
20
9.323228
30
0.0
10
6.393805
20
9.415983
30
0.0
62
255
0
LWPOLYLINE
100
AcDbPolyline
8
Layer_1
90
5
70
0
10
17.630231
20
9.415983
30
0.0
10
17.566497
20
9.323228
30
0.0
10
18.729444
20
8.524011
30
0.0
10
18.793179
20
8.616767
30
0.0
10
17.630231
20
9.415983
30
0.0
62
255
0
LWPOLYLINE
100
AcDbPolyline
8
Layer_1
90
5
70
0
10
7.571191
20
9.197803
30
0.0
10
6.408099
20
8.398589
30
0.0
10
6.471831
20
8.305831
30
0.0
10
7.634778
20
9.105194
30
0.0
10
7.571191
20
9.197803
30
0.0
62
255
0
LWPOLYLINE
100
AcDbPolyline
8
Layer_1
90
5
70
0
10
16.452845
20
9.197803
30
0.0
10
16.389258
20
9.105194
30
0.0
10
17.552205
20
8.305831
30
0.0
10
17.615939
20
8.398589
30
0.0
10
16.452845
20
9.197803
30
0.0
62
255
0
LWPOLYLINE
100
AcDbPolyline
8
Layer_1
90
5
70
0
10
5.536253
20
9.169073
30
0.0
10
4.373305
20
8.369856
30
0.0
10
4.437037
20
8.277101
30
0.0
10
5.599984
20
9.076317
30
0.0
10
5.536253
20
9.169073
30
0.0
62
255
0
LWPOLYLINE
100
AcDbPolyline
8
Layer_1
90
5
70
0
10
18.487783
20
9.169073
30
0.0
10
18.424052
20
9.076317
30
0.0
10
19.586996
20
8.277101
30
0.0
10
19.650731
20
8.369856
30
0.0
10
18.487783
20
9.169073
30
0.0
62
255
0
LWPOLYLINE
100
AcDbPolyline
8
Layer_1
90
5
70
0
10
6.713492
20
8.950892
30
0.0
10
5.550544
20
8.151676
30
0.0
10
5.614279
20
8.058920
30
0.0
10
6.777226
20
8.858137
30
0.0
10
6.713492
20
8.950892
30
0.0
62
255
0
LWPOLYLINE
100
AcDbPolyline
8
Layer_1
90
5
70
0
10
17.310544
20
8.950892
30
0.0
10
17.246813
20
8.858137
30
0.0
10
18.409757
20
8.058920
30
0.0
10
18.473491
20
8.151676
30
0.0
10
17.310544
20
8.950892
30
0.0
62
255
0
LWPOLYLINE
100
AcDbPolyline
8
Layer_1
90
5
70
0
10
5.855937
20
8.703835
30
0.0
10
4.692992
20
7.904618
30
0.0
10
4.756724
20
7.812010
30
0.0
10
5.919671
20
8.611227
30
0.0
10
5.855937
20
8.703835
30
0.0
62
255
0
LWPOLYLINE
100
AcDbPolyline
8
Layer_1
90
5
70
0
10
18.168099
20
8.703835
30
0.0
10
18.104364
20
8.611227
30
0.0
10
19.267312
20
7.812010
30
0.0
10
19.331043
20
7.904618
30
0.0
10
18.168099
20
8.703835
30
0.0
62
255
0
LWPOLYLINE
100
AcDbPolyline
8
Layer_1
90
5
70
0
10
7.033179
20
8.485511
30
0.0
10
5.870375
20
7.686294
30
0.0
10
5.934110
20
7.593683
30
0.0
10
7.096910
20
8.392899
30
0.0
10
7.033179
20
8.485511
30
0.0
62
255
0
LWPOLYLINE
100
AcDbPolyline
8
Layer_1
90
5
70
0
10
16.990860
20
8.485511
30
0.0
10
16.927125
20
8.392899
30
0.0
10
18.089926
20
7.593683
30
0.0
10
18.153660
20
7.686294
30
0.0
10
16.990860
20
8.485511
30
0.0
62
255
0
LWPOLYLINE
100
AcDbPolyline
8
Layer_1
90
5
70
0
10
4.998385
20
8.456924
30
0.0
10
3.835438
20
7.657564
30
0.0
10
3.899025
20
7.564953
30
0.0
10
5.061972
20
8.364169
30
0.0
10
4.998385
20
8.456924
30
0.0
62
255
0
LWPOLYLINE
100
AcDbPolyline
8
Layer_1
90
5
70
0
10
19.025651
20
8.456924
30
0.0
10
18.962063
20
8.364169
30
0.0
10
20.125011
20
7.564953
30
0.0
10
20.188598
20
7.657564
30
0.0
10
19.025651
20
8.456924
30
0.0
62
255
0
LWPOLYLINE
100
AcDbPolyline
8
Layer_1
90
5
70
0
10
6.175624
20
8.238744
30
0.0
10
5.012677
20
7.439527
30
0.0
10
5.076411
20
7.346772
30
0.0
10
6.239358
20
8.145989
30
0.0
10
6.175624
20
8.238744
30
0.0
62
255
0
LWPOLYLINE
100
AcDbPolyline
8
Layer_1
90
5
70
0
10
17.848412
20
8.238744
30
0.0
10
17.784677
20
8.145989
30
0.0
10
18.947625
20
7.346772
30
0.0
10
19.011359
20
7.439527
30
0.0
10
17.848412
20
8.238744
30
0.0
62
255
0
LWPOLYLINE
100
AcDbPolyline
8
Layer_1
90
5
70
0
10
4.140686
20
8.209867
30
0.0
10
2.977739
20
7.410650
30
0.0
10
3.041473
20
7.318042
30
0.0
10
4.204421
20
8.117259
30
0.0
10
4.140686
20
8.209867
30
0.0
62
255
0
LWPOLYLINE
100
AcDbPolyline
8
Layer_1
90
5
70
0
10
19.883349
20
8.209867
30
0.0
10
19.819618
20
8.117259
30
0.0
10
20.982563
20
7.318042
30
0.0
10
21.046297
20
7.410650
30
0.0
10
19.883349
20
8.209867
30
0.0
62
255
0
LWPOLYLINE
100
AcDbPolyline
8
Layer_1
90
5
70
0
10
5.318072
20
7.991833
30
0.0
10
4.155125
20
7.192473
30
0.0
10
4.218712
20
7.099862
30
0.0
10
5.381660
20
7.899078
30
0.0
10
5.318072
20
7.991833
30
0.0
62
255
0
LWPOLYLINE
100
AcDbPolyline
8
Layer_1
90
5
70
0
10
18.705963
20
7.991833
30
0.0
10
18.642376
20
7.899078
30
0.0
10
19.805323
20
7.099862
30
0.0
10
19.868911
20
7.192473
30
0.0
10
18.705963
20
7.991833
30
0.0
62
255
0
LWPOLYLINE
100
AcDbPolyline
8
Layer_1
90
5
70
0
10
4.460373
20
7.744776
30
0.0
10
3.297426
20
6.945559
30
0.0
10
3.361160
20
6.852804
30
0.0
10
4.524105
20
7.652021
30
0.0
10
4.460373
20
7.744776
30
0.0
62
255
0
LWPOLYLINE
100
AcDbPolyline
8
Layer_1
90
5
70
0
10
19.563662
20
7.744776
30
0.0
10
19.499931
20
7.652021
30
0.0
10
20.662878
20
6.852804
30
0.0
10
20.726610
20
6.945559
30
0.0
10
19.563662
20
7.744776
30
0.0
62
255
0
LWPOLYLINE
100
AcDbPolyline
8
Layer_1
90
5
70
0
10
5.637759
20
7.526452
30
0.0
10
4.474812
20
6.727235
30
0.0
10
4.538543
20
6.634480
30
0.0
10
5.701491
20
7.433841
30
0.0
10
5.637759
20
7.526452
30
0.0
62
255
0
LWPOLYLINE
100
AcDbPolyline
8
Layer_1
90
5
70
0
10
18.386279
20
7.526452
30
0.0
10
18.322545
20
7.433841
30
0.0
10
19.485492
20
6.634480
30
0.0
10
19.549224
20
6.727235
30
0.0
10
18.386279
20
7.526452
30
0.0
62
255
0
LWPOLYLINE
100
AcDbPolyline
8
Layer_1
90
5
70
0
10
3.602819
20
7.497719
30
0.0
10
2.439874
20
6.698502
30
0.0
10
2.503459
20
6.605747
30
0.0
10
3.666553
20
7.405110
30
0.0
10
3.602819
20
7.497719
30
0.0
62
255
0
LWPOLYLINE
100
AcDbPolyline
8
Layer_1
90
5
70
0
10
20.421217
20
7.497719
30
0.0
10
20.357483
20
7.405110
30
0.0
10
21.520577
20
6.605747
30
0.0
10
21.584164
20
6.698502
30
0.0
10
20.421217
20
7.497719
30
0.0
62
255
0
LWPOLYLINE
100
AcDbPolyline
8
Layer_1
90
5
70
0
10
4.780058
20
7.279538
30
0.0
10
3.617113
20
6.480325
30
0.0
10
3.680845
20
6.387713
30
0.0
10
4.843792
20
7.186930
30
0.0
10
4.780058
20
7.279538
30
0.0
62
255
0
LWPOLYLINE
100
AcDbPolyline
8
Layer_1
90
5
70
0
10
19.243975
20
7.279538
30
0.0
10
19.180244
20
7.186930
30
0.0
10
20.343191
20
6.387713
30
0.0
10
20.406922
20
6.480325
30
0.0
10
19.243975
20
7.279538
30
0.0
62
255
0
LWPOLYLINE
100
AcDbPolyline
8
Layer_1
90
5
70
0
10
2.745267
20
7.250808
30
0.0
10
1.582319
20
6.451448
30
0.0
10
1.645907
20
6.358836
30
0.0
10
2.808854
20
7.158200
30
0.0
10
2.745267
20
7.250808
30
0.0
62
255
0
LWPOLYLINE
100
AcDbPolyline
8
Layer_1
90
5
70
0
10
21.278769
20
7.250808
30
0.0
10
21.215182
20
7.158200
30
0.0
10
22.378129
20
6.358836
30
0.0
10
22.441716
20
6.451448
30
0.0
10
21.278769
20
7.250808
30
0.0
62
255
0
LWPOLYLINE
100
AcDbPolyline
8
Layer_1
90
5
70
0
10
3.922506
20
7.032628
30
0.0
10
2.759558
20
6.233267
30
0.0
10
2.823146
20
6.140656
30
0.0
10
3.986240
20
6.940019
30
0.0
10
3.922506
20
7.032628
30
0.0
62
255
0
LWPOLYLINE
100
AcDbPolyline
8
Layer_1
90
5
70
0
10
20.101530
20
7.032628
30
0.0
10
20.037796
20
6.940019
30
0.0
10
21.200890
20
6.140656
30
0.0
10
21.264477
20
6.233267
30
0.0
10
20.101530
20
7.032628
30
0.0
62
255
0
LWPOLYLINE
100
AcDbPolyline
8
Layer_1
90
5
70
0
10
3.064954
20
6.785717
30
0.0
10
1.902006
20
5.986354
30
0.0
10
1.965594
20
5.893745
30
0.0
10
3.128539
20
6.692962
30
0.0
10
3.064954
20
6.785717
30
0.0
62
255
0
LWPOLYLINE
100
AcDbPolyline
8
Layer_1
90
5
70
0
10
20.959082
20
6.785717
30
0.0
10
20.895494
20
6.692962
30
0.0
10
22.058442
20
5.893745
30
0.0
10
22.122029
20
5.986354
30
0.0
10
20.959082
20
6.785717
30
0.0
62
255
0
LWPOLYLINE
100
AcDbPolyline
8
Layer_1
90
5
70
0
10
4.242193
20
6.567390
30
0.0
10
3.079246
20
5.768030
30
0.0
10
3.142977
20
5.675418
30
0.0
10
4.305925
20
6.474635
30
0.0
10
4.242193
20
6.567390
30
0.0
62
255
0
LWPOLYLINE
100
AcDbPolyline
8
Layer_1
90
5
70
0
10
19.781843
20
6.567390
30
0.0
10
19.718111
20
6.474635
30
0.0
10
20.881056
20
5.675418
30
0.0
10
20.944790
20
5.768030
30
0.0
10
19.781843
20
6.567390
30
0.0
62
255
0
LWPOLYLINE
100
AcDbPolyline
8
Layer_1
90
5
70
0
10
2.207252
20
6.538660
30
0.0
10
1.044308
20
5.739443
30
0.0
10
1.108042
20
5.646688
30
0.0
10
2.270987
20
6.445905
30
0.0
10
2.207252
20
6.538660
30
0.0
62
255
0
LWPOLYLINE
100
AcDbPolyline
8
Layer_1
90
5
70
0
10
21.816781
20
6.538660
30
0.0
10
21.753049
20
6.445905
30
0.0
10
22.915997
20
5.646688
30
0.0
10
22.979728
20
5.739443
30
0.0
10
21.816781
20
6.538660
30
0.0
62
255
0
LWPOLYLINE
100
AcDbPolyline
8
Layer_1
90
5
70
0
10
3.384638
20
6.320480
30
0.0
10
2.221691
20
5.521263
30
0.0
10
2.285281
20
5.428508
30
0.0
10
3.448226
20
6.227871
30
0.0
10
3.384638
20
6.320480
30
0.0
62
255
0
LWPOLYLINE
100
AcDbPolyline
8
Layer_1
90
5
70
0
10
20.639397
20
6.320480
30
0.0
10
20.575810
20
6.227871
30
0.0
10
21.738757
20
5.428508
30
0.0
10
21.802342
20
5.521263
30
0.0
10
20.639397
20
6.320480
30
0.0
62
255
0
LWPOLYLINE
100
AcDbPolyline
8
Layer_1
90
5
70
0
10
1.349703
20
6.291603
30
0.0
10
0.186756
20
5.492386
30
0.0
10
0.250343
20
5.399778
30
0.0
10
1.413437
20
6.198994
30
0.0
10
1.349703
20
6.291603
30
0.0
62
255
0
LWPOLYLINE
100
AcDbPolyline
8
Layer_1
90
5
70
0
10
22.674335
20
6.291603
30
0.0
10
22.610601
20
6.198994
30
0.0
10
23.773695
20
5.399778
30
0.0
10
23.837283
20
5.492386
30
0.0
10
22.674335
20
6.291603
30
0.0
62
255
0
LWPOLYLINE
100
AcDbPolyline
8
Layer_1
90
5
70
0
10
2.526940
20
6.073422
30
0.0
10
1.363995
20
5.274206
30
0.0
10
1.427729
20
5.181597
30
0.0
10
2.590674
20
5.980814
30
0.0
10
2.526940
20
6.073422
30
0.0
62
255
0
LWPOLYLINE
100
AcDbPolyline
8
Layer_1
90
5
70
0
10
21.497096
20
6.073422
30
0.0
10
21.433362
20
5.980814
30
0.0
10
22.596309
20
5.181597
30
0.0
10
22.660044
20
5.274206
30
0.0
10
21.497096
20
6.073422
30
0.0
62
255
0
LWPOLYLINE
100
AcDbPolyline
8
Layer_1
90
5
70
0
10
1.669388
20
5.826512
30
0.0
10
0.506443
20
5.027295
30
0.0
10
0.570028
20
4.934540
30
0.0
10
1.733119
20
5.733903
30
0.0
10
1.669388
20
5.826512
30
0.0
62
255
0
LWPOLYLINE
100
AcDbPolyline
8
Layer_1
90
5
70
0
10
22.354648
20
5.826512
30
0.0
10
22.290917
20
5.733903
30
0.0
10
23.454008
20
4.934540
30
0.0
10
23.517596
20
5.027295
30
0.0
10
22.354648
20
5.826512
30
0.0
62
255
0
LWPOLYLINE
100
AcDbPolyline
8
Layer_1
90
5
70
0
10
2.846627
20
5.608187
30
0.0
10
1.683826
20
4.808971
30
0.0
10
1.747558
20
4.716359
30
0.0
10
2.910361
20
5.515576
30
0.0
10
2.846627
20
5.608187
30
0.0
62
255
0
LWPOLYLINE
100
AcDbPolyline
8
Layer_1
90
5
70
0
10
21.177409
20
5.608187
30
0.0
10
21.113677
20
5.515576
30
0.0
10
22.276478
20
4.716359
30
0.0
10
22.340210
20
4.808971
30
0.0
10
21.177409
20
5.608187
30
0.0
62
255
0
LWPOLYLINE
100
AcDbPolyline
8
Layer_1
90
5
70
0
10
0.811836
20
5.579601
30
0.0
10
0.017578
20
5.033713
30
0.0
10
0.017578
20
4.897351
30
0.0
10
0.875570
20
5.486846
30
0.0
10
0.811836
20
5.579601
30
0.0
62
255
0
LWPOLYLINE
100
AcDbPolyline
8
Layer_1
90
5
70
0
10
23.212203
20
5.579601
30
0.0
10
23.148469
20
5.486846
30
0.0
10
23.992313
20
4.907122
30
0.0
10
23.992313
20
5.043483
30
0.0
10
23.212203
20
5.579601
30
0.0
62
255
0
LWPOLYLINE
100
AcDbPolyline
8
Layer_1
90
5
70
0
10
1.989075
20
5.361421
30
0.0
10
0.826127
20
4.562057
30
0.0
10
0.889715
20
4.469449
30
0.0
10
2.052806
20
5.268666
30
0.0
10
1.989075
20
5.361421
30
0.0
62
255
0
LWPOLYLINE
100
AcDbPolyline
8
Layer_1
90
5
70
0
10
22.034964
20
5.361421
30
0.0
10
21.971229
20
5.268666
30
0.0
10
23.134321
20
4.469449
30
0.0
10
23.197908
20
4.562057
30
0.0
10
22.034964
20
5.361421
30
0.0
62
255
0
LWPOLYLINE
100
AcDbPolyline
8
Layer_1
90
4
70
0
10
0.017578
20
5.240373
30
0.0
10
0.017578
20
5.239526
30
0.0
10
0.017860
20
5.239676
30
0.0
10
0.017578
20
5.240373
30
0.0
62
255
0
LWPOLYLINE
100
AcDbPolyline
8
Layer_1
90
6
70
0
10
1.131523
20
5.114363
30
0.0
10
0.017578
20
4.348836
30
0.0
10
0.017578
20
4.243829
30
0.0
10
0.032169
20
4.222550
30
0.0
10
1.195263
20
5.021763
30
0.0
10
1.131523
20
5.114363
30
0.0
62
255
0
LWPOLYLINE
100
AcDbPolyline
8
Layer_1
90
6
70
0
10
22.892516
20
5.114363
30
0.0
10
22.828781
20
5.021752
30
0.0
10
23.991876
20
4.222538
30
0.0
10
23.992440
20
4.223103
30
0.0
10
23.992440
20
4.358564
30
0.0
10
22.892516
20
5.114363
30
0.0
62
255
0
LWPOLYLINE
100
AcDbPolyline
8
Layer_1
90
5
70
0
10
0.273824
20
4.867453
30
0.0
10
0.017578
20
4.691276
30
0.0
10
0.017578
20
4.554768
30
0.0
10
0.337556
20
4.774698
30
0.0
10
0.273824
20
4.867453
30
0.0
62
255
0
LWPOLYLINE
100
AcDbPolyline
8
Layer_1
90
5
70
0
10
23.750214
20
4.867453
30
0.0
10
23.686480
20
4.774698
30
0.0
10
23.992313
20
4.564538
30
0.0
10
23.992313
20
4.701046
30
0.0
10
23.750214
20
4.867453
30
0.0
62
255
0
LWPOLYLINE
100
AcDbPolyline
8
Layer_1
90
5
70
0
10
1.451207
20
4.649126
30
0.0
10
0.435563
20
3.951125
30
0.0
10
0.634199
20
3.951125
30
0.0
10
1.514942
20
4.556517
30
0.0
10
1.451207
20
4.649126
30
0.0
62
255
0
LWPOLYLINE
100
AcDbPolyline
8
Layer_1
90
5
70
0
10
22.572828
20
4.649126
30
0.0
10
22.509097
20
4.556517
30
0.0
10
23.389839
20
3.951125
30
0.0
10
23.588476
20
3.951125
30
0.0
10
22.572828
20
4.649126
30
0.0
62
255
0
LWPOLYLINE
100
AcDbPolyline
8
Layer_1
90
6
70
0
10
0.593511
20
4.402215
30
0.0
10
0.017578
20
4.006398
30
0.0
10
0.017578
20
3.951125
30
0.0
10
0.135563
20
3.951125
30
0.0
10
0.657243
20
4.309604
30
0.0
10
0.593511
20
4.402215
30
0.0
62
255
0
LWPOLYLINE
100
AcDbPolyline
8
Layer_1
90
6
70
0
10
23.430527
20
4.402215
30
0.0
10
23.366796
20
4.309604
30
0.0
10
23.888472
20
3.951125
30
0.0
10
23.992313
20
3.951125
30
0.0
10
23.992313
20
4.016172
30
0.0
10
23.430527
20
4.402215
30
0.0
62
255
0
LWPOLYLINE
100
AcDbPolyline
8
Layer_1
90
345
70
0
10
1.372306
20
2.596540
30
0.0
10
1.372306
20
0.508079
30
0.0
10
2.331803
20
0.508079
30
0.0
10
2.331803
20
0.790281
30
0.0
10
3.065535
20
0.790281
30
0.0
10
3.065535
20
0.508079
30
0.0
10
4.025178
20
0.508079
30
0.0
10
4.025178
20
0.790281
30
0.0
10
4.758911
20
0.790281
30
0.0
10
4.758911
20
0.508079
30
0.0
10
5.718410
20
0.508079
30
0.0
10
5.718410
20
0.790281
30
0.0
10
6.452287
20
0.790281
30
0.0
10
6.452287
20
0.508079
30
0.0
10
7.411786
20
0.508079
30
0.0
10
7.411786
20
0.790281
30
0.0
10
8.145518
20
0.790281
30
0.0
10
8.145518
20
0.508079
30
0.0
10
9.105161
20
0.508079
30
0.0
10
9.105161
20
0.790281
30
0.0
10
9.838894
20
0.790281
30
0.0
10
9.838894
20
0.508079
30
0.0
10
10.798390
20
0.508079
30
0.0
10
10.798390
20
0.790281
30
0.0
10
21.184264
20
0.790281
30
0.0
10
21.240706
20
0.790281
30
0.0
10
21.240706
20
0.903165
30
0.0
10
21.184264
20
0.903165
30
0.0
10
20.902059
20
0.903165
30
0.0
10
20.902059
20
1.128928
30
0.0
10
20.827679
20
1.128928
30
0.0
10
20.827679
20
0.903165
30
0.0
10
20.375130
20
0.903165
30
0.0
10
20.375130
20
1.128928
30
0.0
10
20.300022
20
1.128928
30
0.0
10
20.300022
20
0.903165
30
0.0
10
19.810573
20
0.903165
30
0.0
10
19.810573
20
1.128928
30
0.0
10
19.735612
20
1.128928
30
0.0
10
19.735612
20
0.903165
30
0.0
10
19.246165
20
0.903165
30
0.0
10
19.246165
20
1.128928
30
0.0
10
19.171201
20
1.128928
30
0.0
10
19.171201
20
0.903165
30
0.0
10
18.681754
20
0.903165
30
0.0
10
18.681754
20
1.128928
30
0.0
10
18.606791
20
1.128928
30
0.0
10
18.606791
20
0.903165
30
0.0
10
18.117344
20
0.903165
30
0.0
10
18.117344
20
1.128928
30
0.0
10
18.042383
20
1.128928
30
0.0
10
18.042383
20
0.903165
30
0.0
10
17.552789
20
0.903165
30
0.0
10
17.552789
20
1.128928
30
0.0
10
17.477826
20
1.128928
30
0.0
10
17.477826
20
0.903165
30
0.0
10
16.988379
20
0.903165
30
0.0
10
16.988379
20
1.128928
30
0.0
10
16.913415
20
1.128928
30
0.0
10
16.913415
20
0.903165
30
0.0
10
16.423968
20
0.903165
30
0.0
10
16.423968
20
1.128928
30
0.0
10
16.349004
20
1.128928
30
0.0
10
16.349004
20
0.903165
30
0.0
10
15.859558
20
0.903165
30
0.0
10
15.859558
20
1.128928
30
0.0
10
15.784597
20
1.128928
30
0.0
10
15.784597
20
0.903165
30
0.0
10
15.295003
20
0.903165
30
0.0
10
15.295003
20
1.128928
30
0.0
10
15.220039
20
1.128928
30
0.0
10
15.220039
20
0.903165
30
0.0
10
14.693111
20
0.903165
30
0.0
10
14.693111
20
1.128928
30
0.0
10
14.618731
20
1.128928
30
0.0
10
14.618731
20
0.903165
30
0.0
10
14.128700
20
0.903165
30
0.0
10
14.128700
20
1.128928
30
0.0
10
14.054320
20
1.128928
30
0.0
10
14.054320
20
0.903165
30
0.0
10
13.564292
20
0.903165
30
0.0
10
13.564292
20
1.128928
30
0.0
10
13.489766
20
1.128928
30
0.0
10
13.489766
20
0.903165
30
0.0
10
12.999735
20
0.903165
30
0.0
10
12.999735
20
1.128928
30
0.0
10
12.925355
20
1.128928
30
0.0
10
12.925355
20
0.903165
30
0.0
10
12.435324
20
0.903165
30
0.0
10
12.435324
20
1.128928
30
0.0
10
12.360945
20
1.128928
30
0.0
10
12.360945
20
0.903165
30
0.0
10
11.870917
20
0.903165
30
0.0
10
11.870917
20
1.128928
30
0.0
10
11.796537
20
1.128928
30
0.0
10
11.796537
20
0.903165
30
0.0
10
11.306506
20
0.903165
30
0.0
10
11.306506
20
1.128928
30
0.0
10
11.231980
20
1.128928
30
0.0
10
11.231980
20
0.903165
30
0.0
10
10.741949
20
0.903165
30
0.0
10
10.741949
20
1.128928
30
0.0
10
10.667569
20
1.128928
30
0.0
10
10.667569
20
0.846723
30
0.0
10
10.177538
20
0.846723
30
0.0
10
10.177538
20
1.128928
30
0.0
10
10.103161
20
1.128928
30
0.0
10
10.103161
20
0.846723
30
0.0
10
9.951774
20
0.846723
30
0.0
10
9.951774
20
0.903165
30
0.0
10
9.613130
20
0.903165
30
0.0
10
9.613130
20
1.128928
30
0.0
10
9.538751
20
1.128928
30
0.0
10
9.538751
20
0.903165
30
0.0
10
9.086202
20
0.903165
30
0.0
10
9.086202
20
1.128928
30
0.0
10
9.011238
20
1.128928
30
0.0
10
9.011238
20
0.903165
30
0.0
10
8.992273
20
0.903165
30
0.0
10
8.992273
20
0.846723
30
0.0
10
8.521786
20
0.846723
30
0.0
10
8.521786
20
1.128928
30
0.0
10
8.446822
20
1.128928
30
0.0
10
8.446822
20
0.846723
30
0.0
10
8.258393
20
0.846723
30
0.0
10
8.258393
20
0.903165
30
0.0
10
7.957231
20
0.903165
30
0.0
10
7.957231
20
1.128928
30
0.0
10
7.882267
20
1.128928
30
0.0
10
7.882267
20
0.903165
30
0.0
10
7.392820
20
0.903165
30
0.0
10
7.392820
20
1.128928
30
0.0
10
7.317857
20
1.128928
30
0.0
10
7.317857
20
0.903165
30
0.0
10
7.298891
20
0.903165
30
0.0
10
7.298891
20
0.846723
30
0.0
10
6.828404
20
0.846723
30
0.0
10
6.828404
20
1.128928
30
0.0
10
6.753440
20
1.128928
30
0.0
10
6.753440
20
0.846723
30
0.0
10
6.565159
20
0.846723
30
0.0
10
6.565159
20
0.903165
30
0.0
10
6.263994
20
0.903165
30
0.0
10
6.263994
20
1.128928
30
0.0
10
6.189030
20
1.128928
30
0.0
10
6.189030
20
0.903165
30
0.0
10
5.699439
20
0.903165
30
0.0
10
5.699439
20
1.128928
30
0.0
10
5.624475
20
1.128928
30
0.0
10
5.624475
20
0.903165
30
0.0
10
5.605510
20
0.903165
30
0.0
10
5.605510
20
0.846723
30
0.0
10
5.135023
20
0.846723
30
0.0
10
5.135023
20
1.128928
30
0.0
10
5.060059
20
1.128928
30
0.0
10
5.060059
20
0.846723
30
0.0
10
4.871777
20
0.846723
30
0.0
10
4.871777
20
0.903165
30
0.0
10
4.570612
20
0.903165
30
0.0
10
4.570612
20
1.128928
30
0.0
10
4.495648
20
1.128928
30
0.0
10
4.495648
20
0.903165
30
0.0
10
4.006202
20
0.903165
30
0.0
10
4.006202
20
1.128928
30
0.0
10
3.931241
20
1.128928
30
0.0
10
3.931241
20
0.903165
30
0.0
10
3.912275
20
0.903165
30
0.0
10
3.912275
20
0.620959
30
0.0
10
3.178396
20
0.620959
30
0.0
10
3.178396
20
0.903165
30
0.0
10
2.218900
20
0.903165
30
0.0
10
2.218900
20
0.620959
30
0.0
10
1.485164
20
0.620959
30
0.0
10
1.485164
20
2.483660
30
0.0
10
2.218900
20
2.483660
30
0.0
10
2.218900
20
2.201455
30
0.0
10
3.178396
20
2.201455
30
0.0
10
3.178396
20
2.483660
30
0.0
10
3.912275
20
2.483660
30
0.0
10
3.912275
20
2.201455
30
0.0
10
3.931241
20
2.201455
30
0.0
10
3.931241
20
1.975544
30
0.0
10
4.006202
20
1.975544
30
0.0
10
4.006202
20
2.201455
30
0.0
10
4.495648
20
2.201455
30
0.0
10
4.495648
20
1.975544
30
0.0
10
4.570612
20
1.975544
30
0.0
10
4.570612
20
2.201455
30
0.0
10
4.871777
20
2.201455
30
0.0
10
4.871777
20
2.201604
30
0.0
10
5.060059
20
2.201604
30
0.0
10
5.060059
20
1.975550
30
0.0
10
5.135023
20
1.975550
30
0.0
10
5.135023
20
2.201604
30
0.0
10
5.605510
20
2.201604
30
0.0
10
5.605510
20
2.201455
30
0.0
10
5.624475
20
2.201455
30
0.0
10
5.624475
20
1.975544
30
0.0
10
5.699439
20
1.975544
30
0.0
10
5.699439
20
2.201455
30
0.0
10
6.189030
20
2.201455
30
0.0
10
6.189030
20
1.975544
30
0.0
10
6.263994
20
1.975544
30
0.0
10
6.263994
20
2.201455
30
0.0
10
6.565159
20
2.201455
30
0.0
10
6.565159
20
2.201604
30
0.0
10
6.753440
20
2.201604
30
0.0
10
6.753440
20
1.975550
30
0.0
10
6.828404
20
1.975550
30
0.0
10
6.828404
20
2.201604
30
0.0
10
7.298891
20
2.201604
30
0.0
10
7.298891
20
2.201455
30
0.0
10
7.317857
20
2.201455
30
0.0
10
7.317857
20
1.975544
30
0.0
10
7.392820
20
1.975544
30
0.0
10
7.392820
20
2.201455
30
0.0
10
7.882267
20
2.201455
30
0.0
10
7.882267
20
1.975544
30
0.0
10
7.957231
20
1.975544
30
0.0
10
7.957231
20
2.201455
30
0.0
10
8.258393
20
2.201455
30
0.0
10
8.258393
20
2.201604
30
0.0
10
8.446822
20
2.201604
30
0.0
10
8.446822
20
1.975550
30
0.0
10
8.521786
20
1.975550
30
0.0
10
8.521786
20
2.201604
30
0.0
10
8.992273
20
2.201604
30
0.0
10
8.992273
20
2.201455
30
0.0
10
9.011238
20
2.201455
30
0.0
10
9.011238
20
1.975544
30
0.0
10
9.086202
20
1.975544
30
0.0
10
9.086202
20
2.201455
30
0.0
10
9.538751
20
2.201455
30
0.0
10
9.538751
20
1.975544
30
0.0
10
9.613130
20
1.975544
30
0.0
10
9.613130
20
2.201455
30
0.0
10
9.951774
20
2.201455
30
0.0
10
9.951774
20
2.201604
30
0.0
10
10.103161
20
2.201604
30
0.0
10
10.103161
20
1.975550
30
0.0
10
10.177538
20
1.975550
30
0.0
10
10.177538
20
2.201604
30
0.0
10
10.667569
20
2.201604
30
0.0
10
10.667569
20
1.975550
30
0.0
10
10.741949
20
1.975550
30
0.0
10
10.741949
20
2.201460
30
0.0
10
11.231980
20
2.201460
30
0.0
10
11.231980
20
1.975550
30
0.0
10
11.306506
20
1.975550
30
0.0
10
11.306506
20
2.201460
30
0.0
10
11.796537
20
2.201460
30
0.0
10
11.796537
20
1.975550
30
0.0
10
11.870917
20
1.975550
30
0.0
10
11.870917
20
2.201460
30
0.0
10
12.360945
20
2.201460
30
0.0
10
12.360945
20
1.975550
30
0.0
10
12.435324
20
1.975550
30
0.0
10
12.435324
20
2.201460
30
0.0
10
12.925355
20
2.201460
30
0.0
10
12.925355
20
1.975550
30
0.0
10
12.999735
20
1.975550
30
0.0
10
12.999735
20
2.201460
30
0.0
10
13.489766
20
2.201460
30
0.0
10
13.489766
20
1.975550
30
0.0
10
13.564292
20
1.975550
30
0.0
10
13.564292
20
2.201460
30
0.0
10
14.054320
20
2.201460
30
0.0
10
14.054320
20
1.975550
30
0.0
10
14.128700
20
1.975550
30
0.0
10
14.128700
20
2.201460
30
0.0
10
14.618731
20
2.201460
30
0.0
10
14.618731
20
1.975550
30
0.0
10
14.693111
20
1.975550
30
0.0
10
14.693111
20
2.201460
30
0.0
10
15.220039
20
2.201460
30
0.0
10
15.220039
20
1.975550
30
0.0
10
15.295003
20
1.975550
30
0.0
10
15.295003
20
2.201460
30
0.0
10
15.784597
20
2.201460
30
0.0
10
15.784597
20
1.975550
30
0.0
10
15.859558
20
1.975550
30
0.0
10
15.859558
20
2.201460
30
0.0
10
16.349004
20
2.201460
30
0.0
10
16.349004
20
1.975550
30
0.0
10
16.423968
20
1.975550
30
0.0
10
16.423968
20
2.201460
30
0.0
10
16.913415
20
2.201460
30
0.0
10
16.913415
20
1.975550
30
0.0
10
16.988379
20
1.975550
30
0.0
10
16.988379
20
2.201460
30
0.0
10
17.477826
20
2.201460
30
0.0
10
17.477826
20
1.975550
30
0.0
10
17.552789
20
1.975550
30
0.0
10
17.552789
20
2.201460
30
0.0
10
18.042383
20
2.201460
30
0.0
10
18.042383
20
1.975550
30
0.0
10
18.117344
20
1.975550
30
0.0
10
18.117344
20
2.201460
30
0.0
10
18.606791
20
2.201460
30
0.0
10
18.606791
20
1.975550
30
0.0
10
18.681754
20
1.975550
30
0.0
10
18.681754
20
2.201460
30
0.0
10
19.171201
20
2.201460
30
0.0
10
19.171201
20
1.975550
30
0.0
10
19.246165
20
1.975550
30
0.0
10
19.246165
20
2.201460
30
0.0
10
19.735612
20
2.201460
30
0.0
10
19.735612
20
1.975550
30
0.0
10
19.810573
20
1.975550
30
0.0
10
19.810573
20
2.201460
30
0.0
10
20.300022
20
2.201460
30
0.0
10
20.300022
20
1.975550
30
0.0
10
20.375130
20
1.975550
30
0.0
10
20.375130
20
2.201460
30
0.0
10
20.827679
20
2.201460
30
0.0
10
20.827679
20
1.975550
30
0.0
10
20.902059
20
1.975550
30
0.0
10
20.902059
20
2.201460
30
0.0
10
21.184264
20
2.201460
30
0.0
10
21.240706
20
2.201460
30
0.0
10
21.240706
20
2.314341
30
0.0
10
21.184264
20
2.314341
30
0.0
10
10.798390
20
2.314341
30
0.0
10
10.798390
20
2.596546
30
0.0
10
9.838894
20
2.596546
30
0.0
10
9.838894
20
2.314341
30
0.0
10
9.105161
20
2.314341
30
0.0
10
9.105161
20
2.596546
30
0.0
10
8.145518
20
2.596546
30
0.0
10
8.145518
20
2.314341
30
0.0
10
7.411786
20
2.314341
30
0.0
10
7.411786
20
2.596546
30
0.0
10
6.452287
20
2.596546
30
0.0
10
6.452287
20
2.314341
30
0.0
10
5.718410
20
2.314341
30
0.0
10
5.718410
20
2.596546
30
0.0
10
4.758911
20
2.596546
30
0.0
10
4.758911
20
2.314341
30
0.0
10
4.025178
20
2.314341
30
0.0
10
4.025178
20
2.596546
30
0.0
10
3.065535
20
2.596546
30
0.0
10
3.065535
20
2.314341
30
0.0
10
2.331803
20
2.314341
30
0.0
10
2.331803
20
2.596546
30
0.0
10
1.372306
20
2.596540
30
0.0
62
255
0
LWPOLYLINE
100
AcDbPolyline
8
Layer_1
90
5
70
0
10
4.213463
20
1.975544
30
0.0
10
4.213463
20
1.128928
30
0.0
10
4.288424
20
1.128928
30
0.0
10
4.288424
20
1.975544
30
0.0
10
4.213463
20
1.975544
30
0.0
62
255
0
LWPOLYLINE
100
AcDbPolyline
8
Layer_1
90
5
70
0
10
4.777871
20
1.975544
30
0.0
10
4.777871
20
1.128928
30
0.0
10
4.852835
20
1.128928
30
0.0
10
4.852835
20
1.975544
30
0.0
10
4.777871
20
1.975544
30
0.0
62
255
0
LWPOLYLINE
100
AcDbPolyline
8
Layer_1
90
5
70
0
10
5.342281
20
1.975544
30
0.0
10
5.342281
20
1.128928
30
0.0
10
5.417245
20
1.128928
30
0.0
10
5.417245
20
1.975544
30
0.0
10
5.342281
20
1.975544
30
0.0
62
255
0
LWPOLYLINE
100
AcDbPolyline
8
Layer_1
90
5
70
0
10
5.906692
20
1.975544
30
0.0
10
5.906692
20
1.128928
30
0.0
10
5.981656
20
1.128928
30
0.0
10
5.981656
20
1.975544
30
0.0
10
5.906692
20
1.975544
30
0.0
62
255
0
LWPOLYLINE
100
AcDbPolyline
8
Layer_1
90
5
70
0
10
6.471246
20
1.975544
30
0.0
10
6.471246
20
1.128928
30
0.0
10
6.546210
20
1.128928
30
0.0
10
6.546210
20
1.975544
30
0.0
10
6.471246
20
1.975544
30
0.0
62
255
0
LWPOLYLINE
100
AcDbPolyline
8
Layer_1
90
5
70
0
10
7.035657
20
1.975544
30
0.0
10
7.035657
20
1.128928
30
0.0
10
7.110621
20
1.128928
30
0.0
10
7.110621
20
1.975544
30
0.0
10
7.035657
20
1.975544
30
0.0
62
255
0
LWPOLYLINE
100
AcDbPolyline
8
Layer_1
90
5
70
0
10
7.600067
20
1.975544
30
0.0
10
7.600067
20
1.128928
30
0.0
10
7.675031
20
1.128928
30
0.0
10
7.675031
20
1.975544
30
0.0
10
7.600067
20
1.975544
30
0.0
62
255
0
LWPOLYLINE
100
AcDbPolyline
8
Layer_1
90
5
70
0
10
8.164478
20
1.975544
30
0.0
10
8.164478
20
1.128928
30
0.0
10
8.239442
20
1.128928
30
0.0
10
8.239442
20
1.975544
30
0.0
10
8.164478
20
1.975544
30
0.0
62
255
0
LWPOLYLINE
100
AcDbPolyline
8
Layer_1
90
5
70
0
10
8.729033
20
1.975544
30
0.0
10
8.729033
20
1.128928
30
0.0
10
8.803996
20
1.128928
30
0.0
10
8.803996
20
1.975544
30
0.0
10
8.729033
20
1.975544
30
0.0
62
255
0
LWPOLYLINE
100
AcDbPolyline
8
Layer_1
90
5
70
0
10
9.293443
20
1.975544
30
0.0
10
9.293443
20
1.128928
30
0.0
10
9.368407
20
1.128928
30
0.0
10
9.368407
20
1.975544
30
0.0
10
9.293443
20
1.975544
30
0.0
62
255
0
LWPOLYLINE
100
AcDbPolyline
8
Layer_1
90
5
70
0
10
9.820956
20
1.975544
30
0.0
10
9.820956
20
1.128928
30
0.0
10
9.895336
20
1.128928
30
0.0
10
9.895336
20
1.975544
30
0.0
10
9.820956
20
1.975544
30
0.0
62
255
0
LWPOLYLINE
100
AcDbPolyline
8
Layer_1
90
5
70
0
10
10.385367
20
1.975544
30
0.0
10
10.385367
20
1.128928
30
0.0
10
10.459743
20
1.128928
30
0.0
10
10.459743
20
1.975544
30
0.0
10
10.385367
20
1.975544
30
0.0
62
255
0
LWPOLYLINE
100
AcDbPolyline
8
Layer_1
90
5
70
0
10
10.949774
20
1.975544
30
0.0
10
10.949774
20
1.128928
30
0.0
10
11.024301
20
1.128928
30
0.0
10
11.024301
20
1.975544
30
0.0
10
10.949774
20
1.975544
30
0.0
62
255
0
LWPOLYLINE
100
AcDbPolyline
8
Layer_1
90
5
70
0
10
11.514332
20
1.975544
30
0.0
10
11.514332
20
1.128928
30
0.0
10
11.588711
20
1.128928
30
0.0
10
11.588711
20
1.975544
30
0.0
10
11.514332
20
1.975544
30
0.0
62
255
0
LWPOLYLINE
100
AcDbPolyline
8
Layer_1
90
5
70
0
10
12.078739
20
1.975544
30
0.0
10
12.078739
20
1.128928
30
0.0
10
12.153122
20
1.128928
30
0.0
10
12.153122
20
1.975544
30
0.0
10
12.078739
20
1.975544
30
0.0
62
255
0
LWPOLYLINE
100
AcDbPolyline
8
Layer_1
90
5
70
0
10
12.643150
20
1.975544
30
0.0
10
12.643150
20
1.128928
30
0.0
10
12.717530
20
1.128928
30
0.0
10
12.717530
20
1.975544
30
0.0
10
12.643150
20
1.975544
30
0.0
62
255
0
LWPOLYLINE
100
AcDbPolyline
8
Layer_1
90
5
70
0
10
13.207561
20
1.975544
30
0.0
10
13.207561
20
1.128928
30
0.0
10
13.282087
20
1.128928
30
0.0
10
13.282087
20
1.975544
30
0.0
10
13.207561
20
1.975544
30
0.0
62
255
0
LWPOLYLINE
100
AcDbPolyline
8
Layer_1
90
5
70
0
10
13.772118
20
1.975544
30
0.0
10
13.772118
20
1.128928
30
0.0
10
13.846498
20
1.128928
30
0.0
10
13.846498
20
1.975544
30
0.0
10
13.772118
20
1.975544
30
0.0
62
255
0
LWPOLYLINE
100
AcDbPolyline
8
Layer_1
90
5
70
0
10
14.336526
20
1.975544
30
0.0
10
14.336526
20
1.128928
30
0.0
10
14.410905
20
1.128928
30
0.0
10
14.410905
20
1.975544
30
0.0
10
14.336526
20
1.975544
30
0.0
62
255
0
LWPOLYLINE
100
AcDbPolyline
8
Layer_1
90
5
70
0
10
14.900936
20
1.975544
30
0.0
10
14.900936
20
1.128928
30
0.0
10
14.975316
20
1.128928
30
0.0
10
14.975316
20
1.975544
30
0.0
10
14.900936
20
1.975544
30
0.0
62
255
0
LWPOLYLINE
100
AcDbPolyline
8
Layer_1
90
5
70
0
10
15.502245
20
1.975544
30
0.0
10
15.502245
20
1.128928
30
0.0
10
15.577352
20
1.128928
30
0.0
10
15.577352
20
1.975544
30
0.0
10
15.502245
20
1.975544
30
0.0
62
255
0
LWPOLYLINE
100
AcDbPolyline
8
Layer_1
90
5
70
0
10
16.066802
20
1.975544
30
0.0
10
16.066802
20
1.128928
30
0.0
10
16.141763
20
1.128928
30
0.0
10
16.141763
20
1.975544
30
0.0
10
16.066802
20
1.975544
30
0.0
62
255
0
LWPOLYLINE
100
AcDbPolyline
8
Layer_1
90
5
70
0
10
16.631210
20
1.975544
30
0.0
10
16.631210
20
1.128928
30
0.0
10
16.706174
20
1.128928
30
0.0
10
16.706174
20
1.975544
30
0.0
10
16.631210
20
1.975544
30
0.0
62
255
0
LWPOLYLINE
100
AcDbPolyline
8
Layer_1
90
5
70
0
10
17.195620
20
1.975544
30
0.0
10
17.195620
20
1.128928
30
0.0
10
17.270584
20
1.128928
30
0.0
10
17.270584
20
1.975544
30
0.0
10
17.195620
20
1.975544
30
0.0
62
255
0
LWPOLYLINE
100
AcDbPolyline
8
Layer_1
90
5
70
0
10
17.760031
20
1.975544
30
0.0
10
17.760031
20
1.128928
30
0.0
10
17.834995
20
1.128928
30
0.0
10
17.834995
20
1.975544
30
0.0
10
17.760031
20
1.975544
30
0.0
62
255
0
LWPOLYLINE
100
AcDbPolyline
8
Layer_1
90
5
70
0
10
18.324585
20
1.975544
30
0.0
10
18.324585
20
1.128928
30
0.0
10
18.399549
20
1.128928
30
0.0
10
18.399549
20
1.975544
30
0.0
10
18.324585
20
1.975544
30
0.0
62
255
0
LWPOLYLINE
100
AcDbPolyline
8
Layer_1
90
5
70
0
10
18.888996
20
1.975544
30
0.0
10
18.888996
20
1.128928
30
0.0
10
18.963960
20
1.128928
30
0.0
10
18.963960
20
1.975544
30
0.0
10
18.888996
20
1.975544
30
0.0
62
255
0
LWPOLYLINE
100
AcDbPolyline
8
Layer_1
90
5
70
0
10
19.453406
20
1.975544
30
0.0
10
19.453406
20
1.128928
30
0.0
10
19.528370
20
1.128928
30
0.0
10
19.528370
20
1.975544
30
0.0
10
19.453406
20
1.975544
30
0.0
62
255
0
LWPOLYLINE
100
AcDbPolyline
8
Layer_1
90
5
70
0
10
20.017817
20
1.975544
30
0.0
10
20.017817
20
1.128928
30
0.0
10
20.092778
20
1.128928
30
0.0
10
20.092778
20
1.975544
30
0.0
10
20.017817
20
1.975544
30
0.0
62
255
0
LWPOLYLINE
100
AcDbPolyline
8
Layer_1
90
5
70
0
10
20.582372
20
1.975544
30
0.0
10
20.582372
20
1.128928
30
0.0
10
20.657335
20
1.128928
30
0.0
10
20.657335
20
1.975544
30
0.0
10
20.582372
20
1.975544
30
0.0
62
255
0
LWPOLYLINE
100
AcDbPolyline
8
Layer_1
90
5
70
0
10
21.109884
20
1.975544
30
0.0
10
21.109884
20
1.128928
30
0.0
10
21.184264
20
1.128928
30
0.0
10
21.184264
20
1.975544
30
0.0
10
21.109884
20
1.975544
30
0.0
62
255
0
LWPOLYLINE
100
AcDbPolyline
8
Layer_1
90
5
70
0
10
3.931258
20
1.693339
30
0.0
10
3.931258
20
1.411134
30
0.0
10
4.006219
20
1.411134
30
0.0
10
4.006219
20
1.693339
30
0.0
10
3.931258
20
1.693339
30
0.0
62
255
0
LWPOLYLINE
100
AcDbPolyline
8
Layer_1
90
5
70
0
10
4.495665
20
1.693339
30
0.0
10
4.495665
20
1.411134
30
0.0
10
4.570629
20
1.411134
30
0.0
10
4.570629
20
1.693339
30
0.0
10
4.495665
20
1.693339
30
0.0
62
255
0
LWPOLYLINE
100
AcDbPolyline
8
Layer_1
90
5
70
0
10
5.060076
20
1.693339
30
0.0
10
5.060076
20
1.411134
30
0.0
10
5.135040
20
1.411134
30
0.0
10
5.135040
20
1.693339
30
0.0
10
5.060076
20
1.693339
30
0.0
62
255
0
LWPOLYLINE
100
AcDbPolyline
8
Layer_1
90
5
70
0
10
5.624487
20
1.693339
30
0.0
10
5.624487
20
1.411134
30
0.0
10
5.699450
20
1.411134
30
0.0
10
5.699450
20
1.693339
30
0.0
10
5.624487
20
1.693339
30
0.0
62
255
0
LWPOLYLINE
100
AcDbPolyline
8
Layer_1
90
5
70
0
10
6.189041
20
1.693339
30
0.0
10
6.189041
20
1.411134
30
0.0
10
6.264005
20
1.411134
30
0.0
10
6.264005
20
1.693339
30
0.0
10
6.189041
20
1.693339
30
0.0
62
255
0
LWPOLYLINE
100
AcDbPolyline
8
Layer_1
90
5
70
0
10
6.753452
20
1.693339
30
0.0
10
6.753452
20
1.411134
30
0.0
10
6.828415
20
1.411134
30
0.0
10
6.828415
20
1.693339
30
0.0
10
6.753452
20
1.693339
30
0.0
62
255
0
LWPOLYLINE
100
AcDbPolyline
8
Layer_1
90
5
70
0
10
7.317862
20
1.693339
30
0.0
10
7.317862
20
1.411134
30
0.0
10
7.392826
20
1.411134
30
0.0
10
7.392826
20
1.693339
30
0.0
10
7.317862
20
1.693339
30
0.0
62
255
0
LWPOLYLINE
100
AcDbPolyline
8
Layer_1
90
5
70
0
10
7.882273
20
1.693339
30
0.0
10
7.882273
20
1.411134
30
0.0
10
7.957237
20
1.411134
30
0.0
10
7.957237
20
1.693339
30
0.0
10
7.882273
20
1.693339
30
0.0
62
255
0
LWPOLYLINE
100
AcDbPolyline
8
Layer_1
90
5
70
0
10
8.446827
20
1.693339
30
0.0
10
8.446827
20
1.411134
30
0.0
10
8.521791
20
1.411134
30
0.0
10
8.521791
20
1.693339
30
0.0
10
8.446827
20
1.693339
30
0.0
62
255
0
LWPOLYLINE
100
AcDbPolyline
8
Layer_1
90
5
70
0
10
9.011238
20
1.693339
30
0.0
10
9.011238
20
1.411134
30
0.0
10
9.086202
20
1.411134
30
0.0
10
9.086202
20
1.693339
30
0.0
10
9.011238
20
1.693339
30
0.0
62
255
0
LWPOLYLINE
100
AcDbPolyline
8
Layer_1
90
5
70
0
10
9.538751
20
1.693339
30
0.0
10
9.538751
20
1.411134
30
0.0
10
9.613130
20
1.411134
30
0.0
10
9.613130
20
1.693339
30
0.0
10
9.538751
20
1.693339
30
0.0
62
255
0
LWPOLYLINE
100
AcDbPolyline
8
Layer_1
90
5
70
0
10
10.103161
20
1.693339
30
0.0
10
10.103161
20
1.411134
30
0.0
10
10.177538
20
1.411134
30
0.0
10
10.177538
20
1.693339
30
0.0
10
10.103161
20
1.693339
30
0.0
62
255
0
LWPOLYLINE
100
AcDbPolyline
8
Layer_1
90
5
70
0
10
10.667569
20
1.693339
30
0.0
10
10.667569
20
1.411134
30
0.0
10
10.741949
20
1.411134
30
0.0
10
10.741949
20
1.693339
30
0.0
10
10.667569
20
1.693339
30
0.0
62
255
0
LWPOLYLINE
100
AcDbPolyline
8
Layer_1
90
5
70
0
10
11.231980
20
1.693339
30
0.0
10
11.231980
20
1.411134
30
0.0
10
11.306506
20
1.411134
30
0.0
10
11.306506
20
1.693339
30
0.0
10
11.231980
20
1.693339
30
0.0
62
255
0
LWPOLYLINE
100
AcDbPolyline
8
Layer_1
90
5
70
0
10
11.796537
20
1.693339
30
0.0
10
11.796537
20
1.411134
30
0.0
10
11.870917
20
1.411134
30
0.0
10
11.870917
20
1.693339
30
0.0
10
11.796537
20
1.693339
30
0.0
62
255
0
LWPOLYLINE
100
AcDbPolyline
8
Layer_1
90
5
70
0
10
12.360945
20
1.693339
30
0.0
10
12.360945
20
1.411134
30
0.0
10
12.435324
20
1.411134
30
0.0
10
12.435324
20
1.693339
30
0.0
10
12.360945
20
1.693339
30
0.0
62
255
0
LWPOLYLINE
100
AcDbPolyline
8
Layer_1
90
5
70
0
10
12.925355
20
1.693339
30
0.0
10
12.925355
20
1.411134
30
0.0
10
12.999735
20
1.411134
30
0.0
10
12.999735
20
1.693339
30
0.0
10
12.925355
20
1.693339
30
0.0
62
255
0
LWPOLYLINE
100
AcDbPolyline
8
Layer_1
90
5
70
0
10
13.489766
20
1.693339
30
0.0
10
13.489766
20
1.411134
30
0.0
10
13.564292
20
1.411134
30
0.0
10
13.564292
20
1.693339
30
0.0
10
13.489766
20
1.693339
30
0.0
62
255
0
LWPOLYLINE
100
AcDbPolyline
8
Layer_1
90
5
70
0
10
14.054320
20
1.693339
30
0.0
10
14.054320
20
1.411134
30
0.0
10
14.128700
20
1.411134
30
0.0
10
14.128700
20
1.693339
30
0.0
10
14.054320
20
1.693339
30
0.0
62
255
0
LWPOLYLINE
100
AcDbPolyline
8
Layer_1
90
5
70
0
10
14.618731
20
1.693339
30
0.0
10
14.618731
20
1.411134
30
0.0
10
14.693111
20
1.411134
30
0.0
10
14.693111
20
1.693339
30
0.0
10
14.618731
20
1.693339
30
0.0
62
255
0
LWPOLYLINE
100
AcDbPolyline
8
Layer_1
90
5
70
0
10
15.220039
20
1.693339
30
0.0
10
15.220039
20
1.411134
30
0.0
10
15.295003
20
1.411134
30
0.0
10
15.295003
20
1.693339
30
0.0
10
15.220039
20
1.693339
30
0.0
62
255
0
LWPOLYLINE
100
AcDbPolyline
8
Layer_1
90
5
70
0
10
15.784597
20
1.693339
30
0.0
10
15.784597
20
1.411134
30
0.0
10
15.859558
20
1.411134
30
0.0
10
15.859558
20
1.693339
30
0.0
10
15.784597
20
1.693339
30
0.0
62
255
0
LWPOLYLINE
100
AcDbPolyline
8
Layer_1
90
5
70
0
10
16.349004
20
1.693339
30
0.0
10
16.349004
20
1.411134
30
0.0
10
16.423968
20
1.411134
30
0.0
10
16.423968
20
1.693339
30
0.0
10
16.349004
20
1.693339
30
0.0
62
255
0
LWPOLYLINE
100
AcDbPolyline
8
Layer_1
90
5
70
0
10
16.913415
20
1.693339
30
0.0
10
16.913415
20
1.411134
30
0.0
10
16.988379
20
1.411134
30
0.0
10
16.988379
20
1.693339
30
0.0
10
16.913415
20
1.693339
30
0.0
62
255
0
LWPOLYLINE
100
AcDbPolyline
8
Layer_1
90
5
70
0
10
17.477826
20
1.693339
30
0.0
10
17.477826
20
1.411134
30
0.0
10
17.552789
20
1.411134
30
0.0
10
17.552789
20
1.693339
30
0.0
10
17.477826
20
1.693339
30
0.0
62
255
0
LWPOLYLINE
100
AcDbPolyline
8
Layer_1
90
5
70
0
10
18.042383
20
1.693339
30
0.0
10
18.042383
20
1.411134
30
0.0
10
18.117344
20
1.411134
30
0.0
10
18.117344
20
1.693339
30
0.0
10
18.042383
20
1.693339
30
0.0
62
255
0
LWPOLYLINE
100
AcDbPolyline
8
Layer_1
90
5
70
0
10
18.606791
20
1.693339
30
0.0
10
18.606791
20
1.411134
30
0.0
10
18.681754
20
1.411134
30
0.0
10
18.681754
20
1.693339
30
0.0
10
18.606791
20
1.693339
30
0.0
62
255
0
LWPOLYLINE
100
AcDbPolyline
8
Layer_1
90
5
70
0
10
19.171201
20
1.693339
30
0.0
10
19.171201
20
1.411134
30
0.0
10
19.246165
20
1.411134
30
0.0
10
19.246165
20
1.693339
30
0.0
10
19.171201
20
1.693339
30
0.0
62
255
0
LWPOLYLINE
100
AcDbPolyline
8
Layer_1
90
5
70
0
10
19.735612
20
1.693339
30
0.0
10
19.735612
20
1.411134
30
0.0
10
19.810573
20
1.411134
30
0.0
10
19.810573
20
1.693339
30
0.0
10
19.735612
20
1.693339
30
0.0
62
255
0
LWPOLYLINE
100
AcDbPolyline
8
Layer_1
90
5
70
0
10
20.300022
20
1.693339
30
0.0
10
20.300022
20
1.411134
30
0.0
10
20.375130
20
1.411134
30
0.0
10
20.375130
20
1.693339
30
0.0
10
20.300022
20
1.693339
30
0.0
62
255
0
LWPOLYLINE
100
AcDbPolyline
8
Layer_1
90
5
70
0
10
20.827679
20
1.693339
30
0.0
10
20.827679
20
1.411134
30
0.0
10
20.902059
20
1.411134
30
0.0
10
20.902059
20
1.693339
30
0.0
10
20.827679
20
1.693339
30
0.0
62
255
0
LWPOLYLINE
100
AcDbPolyline
8
Layer_1
90
4
70
0
10
0.017578
20
0.564521
30
0.0
10
0.017578
20
0.014111
30
0.0
10
0.567987
20
0.014111
30
0.0
10
0.017578
20
0.564521
30
0.0
62
255
0
LWPOLYLINE
100
AcDbPolyline
8
Layer_1
90
4
70
0
10
23.992313
20
0.550381
30
0.0
10
23.456051
20
0.014120
30
0.0
10
23.992313
20
0.014120
30
0.0
10
23.992313
20
0.550381
30
0.0
  0
ENDSEC
  0
SECTION
  2
OBJECTS
  0
DICTIONARY
  5
C
330
0
100
AcDbDictionary
  3
ACAD_GROUP
350
D
  3
ACAD_MLINESTYLE
350
17
  0
DICTIONARY
  5
D
330
C
100
AcDbDictionary
  0
DICTIONARY
  5
1A
330
C
100
AcDbDictionary
  0
DICTIONARY
  5
17
330
C
100
AcDbDictionary
  3
STANDARD
350
18
  0
DICTIONARY
  5
19
330
C
100
AcDbDictionary
  0
ENDSEC
  0
EOF
