999
Inkscape export via OpenSCAD DXF Export
  0
SECTION
  2
HEADER
  9
$ACADVER
  1
AC1014
  9
$HANDSEED
  5
FFFF
  9
$MEASUREMENT
 70
     1
  0
ENDSEC
  0
SECTION
  2
TABLES
  0
TABLE
  2
VPORT
  5
8
330
0
100
AcDbSymbolTable
 70
     4
  0
VPORT
  5
2E
330
8
100
AcDbSymbolTableRecord
100
AcDbViewportTableRecord
  2
*ACTIVE
 70
     0
 10
0.0
 20
0.0
 11
1.0
 21
1.0
 12
210.0
 22
148.5
 13
0.0
 23
0.0
 14
10.0
 24
10.0
 15
10.0
 25
10.0
 16
0.0
 26
0.0
 36
1.0
 17
0.0
 27
0.0
 37
0.0
 40
341.0
 41
1.24
 42
50.0
 43
0.0
 44
0.0
 50
0.0
 51
0.0
 71
     0
 72
   100
 73
     1
 74
     3
 75
     0
 76
     0
 77
     0
 78
     0
  0
ENDTAB
  0
TABLE
  2
LTYPE
  5
5
330
0
100
AcDbSymbolTable
 70
     1
  0
LTYPE
  5
14
330
5
100
AcDbSymbolTableRecord
100
AcDbLinetypeTableRecord
  2
BYBLOCK
 70
     0
  3

 72
    65
 73
     0
 40
0.0
  0
LTYPE
  5
15
330
5
100
AcDbSymbolTableRecord
100
AcDbLinetypeTableRecord
  2
BYLAYER
 70
     0
  3

 72
    65
 73
     0
 40
0.0
  0
LTYPE
  5
16
330
5
100
AcDbSymbolTableRecord
100
AcDbLinetypeTableRecord
  2
CONTINUOUS
 70
     0
  3
Solid line
 72
    65
 73
     0
 40
0.0
  0
ENDTAB
  0
TABLE
0
TABLE
2
LAYER
5
2
330
0
100
AcDbSymbolTable
70
1
0
LAYER
5
10
330
2
100
AcDbSymbolTableRecord
100
AcDbLayerTableRecord
2
Layer_1
70
0
62
7
6
CONTINUOUS
0
ENDTAB
0
ENDSEC
  0
ENDTAB
  0
TABLE
  2
STYLE
  5
3
330
0
100
AcDbSymbolTable
 70
     1
  0
STYLE
  5
11
330
3
100
AcDbSymbolTableRecord
100
AcDbTextStyleTableRecord
  2
STANDARD
 70
     0
 40
0.0
 41
1.0
 50
0.0
 71
     0
 42
2.5
  3
txt
  4

  0
ENDTAB
  0
TABLE
  2
VIEW
  5
6
330
0
100
AcDbSymbolTable
 70
     0
  0
ENDTAB
  0
TABLE
  2
UCS
  5
7
330
0
100
AcDbSymbolTable
 70
     0
  0
ENDTAB
  0
TABLE
  2
APPID
  5
9
330
0
100
AcDbSymbolTable
 70
     2
  0
APPID
  5
12
330
9
100
AcDbSymbolTableRecord
100
AcDbRegAppTableRecord
  2
ACAD
 70
     0
  0
ENDTAB
  0
TABLE
  2
DIMSTYLE
  5
A
330
0
100
AcDbSymbolTable
 70
     1
  0
DIMSTYLE
105
27
330
A
100
AcDbSymbolTableRecord
100
AcDbDimStyleTableRecord
  2
ISO-25
 70
     0
  3

  4

  5

  6

  7

 40
1.0
 41
2.5
 42
0.625
 43
3.75
 44
1.25
 45
0.0
 46
0.0
 47
0.0
 48
0.0
140
2.5
141
2.5
142
0.0
143
0.03937007874016
144
1.0
145
0.0
146
1.0
147
0.625
 71
     0
 72
     0
 73
     0
 74
     0
 75
     0
 76
     0
 77
     1
 78
     8
170
     0
171
     3
172
     1
173
     0
174
     0
175
     0
176
     0
177
     0
178
     0
270
     2
271
     2
272
     2
273
     2
274
     3
340
11
275
     0
280
     0
281
     0
282
     0
283
     0
284
     8
285
     0
286
     0
287
     3
288
     0
  0
ENDTAB
  0
TABLE
  2
BLOCK_RECORD
  5
1
330
0
100
AcDbSymbolTable
 70
     1
  0
BLOCK_RECORD
  5
1F
330
1
100
AcDbSymbolTableRecord
100
AcDbBlockTableRecord
  2
*MODEL_SPACE
  0
BLOCK_RECORD
  5
1B
330
1
100
AcDbSymbolTableRecord
100
AcDbBlockTableRecord
  2
*PAPER_SPACE
  0
ENDTAB
  0
ENDSEC
  0
SECTION
  2
BLOCKS
  0
BLOCK
  5
20
330
1F
100
AcDbEntity
  8
0
100
AcDbBlockBegin
  2
*MODEL_SPACE
 70
     0
 10
0.0
 20
0.0
 30
0.0
  3
*MODEL_SPACE
  1

  0
ENDBLK
  5
21
330
1F
100
AcDbEntity
  8
0
100
AcDbBlockEnd
  0
BLOCK
  5
1C
330
1B
100
AcDbEntity
 67
     1
  8
0
100
AcDbBlockBegin
  2
*PAPER_SPACE
  1

  0
ENDBLK
  5
1D
330
1B
100
AcDbEntity
 67
     1
  8
0
100
AcDbBlockEnd
  0
ENDSEC
  0
SECTION
  2
ENTITIES
0
DIMENSION
5
83
100
AcDbEntity
62
256
370
-1
6
ByLayer
1
total_width
3
Standard
70
0
71
5
72
1
41
1.0
100
AcDbAlignedDimension
13
26.758220
23
0.000000
33
0.0
14
50.817704
24
0.000000
34
0.0
50
0.000000
100
AcDbRotatedDimension
0
DIMENSION
5
83
100
AcDbEntity
62
256
370
-1
6
ByLayer
1
total_minx
3
Standard
70
0
71
5
72
1
41
1.0
100
AcDbAlignedDimension
13
26.758220
23
0.000000
33
0.0
14
0.000000
24
0.000000
34
0.0
50
0.000000
100
AcDbRotatedDimension
0
DIMENSION
5
83
100
AcDbEntity
62
256
370
-1
6
ByLayer
1
total_maxx
3
Standard
70
0
71
5
72
1
41
1.0
100
AcDbAlignedDimension
13
0.000000
23
0.000000
33
0.0
14
50.817704
24
0.000000
34
0.0
50
0.000000
100
AcDbRotatedDimension
0
DIMENSION
5
83
100
AcDbEntity
62
256
370
-1
6
ByLayer
1
total_height
3
Standard
70
0
71
5
72
1
41
1.0
100
AcDbAlignedDimension
13
0.000000
23
-68.318905
33
0.0
14
0.000000
24
-52.994080
34
0.0
50
90.000000
100
AcDbRotatedDimension
0
DIMENSION
5
83
100
AcDbEntity
62
256
370
-1
6
ByLayer
1
total_miny
3
Standard
70
0
71
5
72
1
41
1.0
100
AcDbAlignedDimension
13
-68.318905
23
0.000000
33
0.0
14
0.000000
24
0.000000
34
0.0
50
0.000000
100
AcDbRotatedDimension
0
DIMENSION
5
83
100
AcDbEntity
62
256
370
-1
6
ByLayer
1
total_maxy
3
Standard
70
0
71
5
72
1
41
1.0
100
AcDbAlignedDimension
13
0.000000
23
0.000000
33
0.0
14
-52.994080
24
0.000000
34
0.0
50
0.000000
100
AcDbRotatedDimension
0
DIMENSION
8
Layer_1
5
83
100
AcDbEntity
62
256
370
-1
6
ByLayer
1
Layer_1_width
3
Standard
70
0
71
5
72
1
41
1.0
100
AcDbAlignedDimension
13
26.758220
23
0.000000
33
0.0
14
50.817704
24
0.000000
34
0.0
50
0.000000
100
AcDbRotatedDimension
0
DIMENSION
8
Layer_1
5
83
100
AcDbEntity
62
256
370
-1
6
ByLayer
1
Layer_1_minx
3
Standard
70
0
71
5
72
1
41
1.0
100
AcDbAlignedDimension
13
26.758220
23
0.000000
33
0.0
14
0.000000
24
0.000000
34
0.0
50
0.000000
100
AcDbRotatedDimension
0
DIMENSION
8
Layer_1
5
83
100
AcDbEntity
62
256
370
-1
6
ByLayer
1
Layer_1_maxx
3
Standard
70
0
71
5
72
1
41
1.0
100
AcDbAlignedDimension
13
0.000000
23
0.000000
33
0.0
14
50.817704
24
0.000000
34
0.0
50
0.000000
100
AcDbRotatedDimension
0
DIMENSION
8
Layer_1
5
83
100
AcDbEntity
62
256
370
-1
6
ByLayer
1
Layer_1_height
3
Standard
70
0
71
5
72
1
41
1.0
100
AcDbAlignedDimension
13
0.000000
23
-68.318905
33
0.0
14
0.000000
24
-52.994080
34
0.0
50
90.000000
100
AcDbRotatedDimension
0
DIMENSION
8
Layer_1
5
83
100
AcDbEntity
62
256
370
-1
6
ByLayer
1
Layer_1_miny
3
Standard
70
0
71
5
72
1
41
1.0
100
AcDbAlignedDimension
13
-68.318905
23
0.000000
33
0.0
14
0.000000
24
0.000000
34
0.0
50
0.000000
100
AcDbRotatedDimension
0
DIMENSION
8
Layer_1
5
83
100
AcDbEntity
62
256
370
-1
6
ByLayer
1
Layer_1_maxy
3
Standard
70
0
71
5
72
1
41
1.0
100
AcDbAlignedDimension
13
0.000000
23
0.000000
33
0.0
14
-52.994080
24
0.000000
34
0.0
50
0.000000
100
AcDbRotatedDimension
62
0
0
LWPOLYLINE
100
AcDbPolyline
8
Layer_1
90
285
70
0
10
40.939934
20
-52.994080
30
0.0
10
36.283189
20
-52.994645
30
0.0
10
36.283189
20
-53.029937
30
0.0
10
36.283189
20
-53.784525
30
0.0
10
28.113096
20
-53.798834
30
0.0
10
28.113096
20
-55.583653
30
0.0
10
28.113096
20
-56.521855
30
0.0
10
28.486890
20
-56.521855
30
0.0
10
28.769096
20
-56.521855
30
0.0
10
29.001714
20
-56.521855
30
0.0
10
29.001714
20
-56.056617
30
0.0
10
28.860538
20
-56.056617
30
0.0
10
28.860538
20
-55.675095
30
0.0
10
29.524269
20
-55.675095
30
0.0
10
29.524269
20
-56.521855
30
0.0
10
30.180122
20
-56.521855
30
0.0
10
30.412741
20
-56.521855
30
0.0
10
30.412741
20
-56.056617
30
0.0
10
30.271712
20
-56.056617
30
0.0
10
30.271712
20
-55.675095
30
0.0
10
30.935292
20
-55.675095
30
0.0
10
30.935292
20
-56.521855
30
0.0
10
31.591292
20
-56.521855
30
0.0
10
31.824495
20
-56.521855
30
0.0
10
31.824495
20
-56.056617
30
0.0
10
31.682735
20
-56.056617
30
0.0
10
31.682735
20
-55.675095
30
0.0
10
32.346465
20
-55.675095
30
0.0
10
32.346465
20
-56.521855
30
0.0
10
33.002463
20
-56.521855
30
0.0
10
33.199787
20
-56.521855
30
0.0
10
33.235082
20
-56.521855
30
0.0
10
33.757636
20
-56.521855
30
0.0
10
33.792784
20
-56.521855
30
0.0
10
34.413489
20
-56.521855
30
0.0
10
34.610813
20
-56.521855
30
0.0
10
34.646108
20
-56.521855
30
0.0
10
35.168659
20
-56.521855
30
0.0
10
35.203954
20
-56.521855
30
0.0
10
35.824660
20
-56.521855
30
0.0
10
36.021984
20
-56.521855
30
0.0
10
35.286645
20
-57.027346
30
0.0
10
35.390342
20
-57.178293
30
0.0
10
36.345461
20
-56.521855
30
0.0
10
36.521348
20
-56.521855
30
0.0
10
36.144347
20
-56.780289
30
0.0
10
36.247894
20
-56.931382
30
0.0
10
36.843222
20
-56.521855
30
0.0
10
37.235683
20
-56.521855
30
0.0
10
37.433010
20
-56.521855
30
0.0
10
37.468302
20
-56.521855
30
0.0
10
37.517451
20
-56.521855
30
0.0
10
36.464031
20
-57.245527
30
0.0
10
36.567725
20
-57.396617
30
0.0
10
37.788573
20
-56.557150
30
0.0
10
37.764359
20
-56.521855
30
0.0
10
37.990851
20
-56.521855
30
0.0
10
38.015658
20
-56.521855
30
0.0
10
37.321738
20
-56.998613
30
0.0
10
37.425432
20
-57.149706
30
0.0
10
38.338117
20
-56.521855
30
0.0
10
38.514000
20
-56.521855
30
0.0
10
38.179440
20
-56.751703
30
0.0
10
38.282987
20
-56.902649
30
0.0
10
38.788038
20
-56.555400
30
0.0
10
39.292945
20
-56.902649
30
0.0
10
39.396492
20
-56.751703
30
0.0
10
39.061932
20
-56.521855
30
0.0
10
39.237818
20
-56.521855
30
0.0
10
40.150644
20
-57.149706
30
0.0
10
40.254191
20
-56.998613
30
0.0
10
39.560274
20
-56.521855
30
0.0
10
39.811562
20
-56.521855
30
0.0
10
39.787347
20
-56.557150
30
0.0
10
41.008196
20
-57.396617
30
0.0
10
41.111890
20
-57.245527
30
0.0
10
40.058470
20
-56.521855
30
0.0
10
40.255357
20
-56.521855
30
0.0
10
40.290504
20
-56.521855
30
0.0
10
40.732115
20
-56.521855
30
0.0
10
41.328027
20
-56.931382
30
0.0
10
41.431574
20
-56.780289
30
0.0
10
41.054573
20
-56.521855
30
0.0
10
41.230457
20
-56.521855
30
0.0
10
42.185725
20
-57.178293
30
0.0
10
42.289273
20
-57.027346
30
0.0
10
41.553353
20
-56.521855
30
0.0
10
41.666380
20
-56.521855
30
0.0
10
41.701675
20
-56.521855
30
0.0
10
42.350964
20
-56.521855
30
0.0
10
42.350964
20
-56.520726
30
0.0
10
49.744444
20
-56.520726
30
0.0
10
49.744444
20
-55.675132
30
0.0
10
49.745573
20
-55.675132
30
0.0
10
49.745573
20
-55.491662
30
0.0
10
49.653546
20
-55.491662
30
0.0
10
49.180581
20
-55.491662
30
0.0
10
49.180581
20
-55.301484
30
0.0
10
49.180581
20
-55.210041
30
0.0
10
48.997548
20
-55.210041
30
0.0
10
48.997548
20
-55.301484
30
0.0
10
48.997548
20
-55.491662
30
0.0
10
48.616023
20
-55.491662
30
0.0
10
48.616023
20
-55.301484
30
0.0
10
48.616023
20
-55.210041
30
0.0
10
48.433138
20
-55.210041
30
0.0
10
48.433138
20
-55.301484
30
0.0
10
48.433138
20
-55.491662
30
0.0
10
48.051613
20
-55.491662
30
0.0
10
48.051613
20
-55.301484
30
0.0
10
48.051613
20
-55.210041
30
0.0
10
47.868580
20
-55.210041
30
0.0
10
47.868580
20
-55.301484
30
0.0
10
47.868580
20
-55.491662
30
0.0
10
47.487205
20
-55.491662
30
0.0
10
47.487205
20
-55.301484
30
0.0
10
47.487205
20
-55.210041
30
0.0
10
47.304173
20
-55.210041
30
0.0
10
47.304173
20
-55.301484
30
0.0
10
47.304173
20
-55.491662
30
0.0
10
46.908940
20
-55.491662
30
0.0
10
46.908940
20
-55.301484
30
0.0
10
46.908940
20
-55.210041
30
0.0
10
46.725470
20
-55.210041
30
0.0
10
46.725470
20
-55.301484
30
0.0
10
46.725470
20
-55.491662
30
0.0
10
46.344530
20
-55.491662
30
0.0
10
46.344530
20
-55.301484
30
0.0
10
46.344530
20
-55.210041
30
0.0
10
46.160913
20
-55.210041
30
0.0
10
46.160913
20
-55.301484
30
0.0
10
46.160913
20
-55.491662
30
0.0
10
45.793827
20
-55.491662
30
0.0
10
45.793827
20
-55.301484
30
0.0
10
45.793827
20
-55.210041
30
0.0
10
45.610941
20
-55.210041
30
0.0
10
45.610941
20
-55.301484
30
0.0
10
45.610941
20
-55.491662
30
0.0
10
45.215708
20
-55.491662
30
0.0
10
45.215708
20
-55.301484
30
0.0
10
45.215708
20
-55.210041
30
0.0
10
45.032092
20
-55.210041
30
0.0
10
45.032092
20
-55.301484
30
0.0
10
45.032092
20
-55.491662
30
0.0
10
44.651154
20
-55.491662
30
0.0
10
44.651154
20
-55.301484
30
0.0
10
44.651154
20
-55.210041
30
0.0
10
44.467684
20
-55.210041
30
0.0
10
44.467684
20
-55.301484
30
0.0
10
44.467684
20
-55.491662
30
0.0
10
44.114889
20
-55.491662
30
0.0
10
44.114889
20
-55.301484
30
0.0
10
44.114889
20
-55.210041
30
0.0
10
43.931276
20
-55.210041
30
0.0
10
43.931276
20
-55.301484
30
0.0
10
43.931276
20
-55.491662
30
0.0
10
43.536043
20
-55.491662
30
0.0
10
43.536043
20
-55.301484
30
0.0
10
43.536043
20
-55.210041
30
0.0
10
43.353157
20
-55.210041
30
0.0
10
43.353157
20
-55.301484
30
0.0
10
43.353157
20
-55.491662
30
0.0
10
41.377576
20
-55.491662
30
0.0
10
41.377576
20
-56.239687
30
0.0
10
41.518606
20
-56.239687
30
0.0
10
41.518606
20
-56.338278
30
0.0
10
41.469019
20
-56.338278
30
0.0
10
40.996052
20
-56.338278
30
0.0
10
40.996052
20
-55.491662
30
0.0
10
39.966403
20
-55.491662
30
0.0
10
39.966403
20
-56.239687
30
0.0
10
40.107579
20
-56.239687
30
0.0
10
40.107579
20
-56.338278
30
0.0
10
40.057993
20
-56.338278
30
0.0
10
39.585028
20
-56.338278
30
0.0
10
39.585028
20
-55.491662
30
0.0
10
38.555380
20
-55.491662
30
0.0
10
38.555380
20
-56.239687
30
0.0
10
38.696409
20
-56.239687
30
0.0
10
38.696409
20
-56.338278
30
0.0
10
38.646822
20
-56.338278
30
0.0
10
38.173855
20
-56.338278
30
0.0
10
38.173855
20
-55.491662
30
0.0
10
37.144209
20
-55.491662
30
0.0
10
37.144209
20
-56.239687
30
0.0
10
37.285382
20
-56.239687
30
0.0
10
37.285382
20
-56.338278
30
0.0
10
37.235652
20
-56.338278
30
0.0
10
36.762831
20
-56.338278
30
0.0
10
36.762831
20
-55.491662
30
0.0
10
35.733039
20
-55.491662
30
0.0
10
35.733039
20
-56.239687
30
0.0
10
35.874212
20
-56.239687
30
0.0
10
35.874212
20
-56.338278
30
0.0
10
35.824626
20
-56.338278
30
0.0
10
35.352242
20
-56.338278
30
0.0
10
35.352242
20
-55.491662
30
0.0
10
34.322012
20
-55.491662
30
0.0
10
34.322012
20
-56.239687
30
0.0
10
34.463042
20
-56.239687
30
0.0
10
34.463042
20
-56.338278
30
0.0
10
34.413455
20
-56.338278
30
0.0
10
33.940488
20
-56.338278
30
0.0
10
33.940488
20
-55.491662
30
0.0
10
32.910842
20
-55.491662
30
0.0
10
32.910842
20
-56.239687
30
0.0
10
33.052018
20
-56.239687
30
0.0
10
33.052018
20
-56.338278
30
0.0
10
33.002432
20
-56.338278
30
0.0
10
32.529464
20
-56.338278
30
0.0
10
32.529464
20
-55.526957
30
0.0
10
32.529464
20
-55.491662
30
0.0
10
32.529464
20
-53.981900
30
0.0
10
43.353157
20
-53.981900
30
0.0
10
43.353157
20
-54.172519
30
0.0
10
43.353157
20
-54.264106
30
0.0
10
43.536043
20
-54.264106
30
0.0
10
43.536043
20
-54.172519
30
0.0
10
43.536043
20
-53.981900
30
0.0
10
43.931276
20
-53.981900
30
0.0
10
43.931276
20
-54.172519
30
0.0
10
43.931276
20
-54.264106
30
0.0
10
44.114892
20
-54.264106
30
0.0
10
44.114892
20
-54.172519
30
0.0
10
44.114892
20
-53.981900
30
0.0
10
44.467684
20
-53.981900
30
0.0
10
44.467684
20
-54.172519
30
0.0
10
44.467684
20
-54.264106
30
0.0
10
44.651154
20
-54.264106
30
0.0
10
44.651154
20
-54.172519
30
0.0
10
44.651154
20
-53.981900
30
0.0
10
45.032095
20
-53.981900
30
0.0
10
45.032095
20
-54.172519
30
0.0
10
45.032095
20
-54.264106
30
0.0
10
45.215711
20
-54.264106
30
0.0
10
45.215711
20
-54.172519
30
0.0
10
45.215711
20
-53.981900
30
0.0
10
45.610944
20
-53.981900
30
0.0
10
45.610944
20
-54.172519
30
0.0
10
45.610944
20
-54.264106
30
0.0
10
45.793829
20
-54.264106
30
0.0
10
45.793829
20
-54.172519
30
0.0
10
45.793829
20
-53.981900
30
0.0
10
46.160916
20
-53.981900
30
0.0
10
46.160916
20
-54.172519
30
0.0
10
46.160916
20
-54.264106
30
0.0
10
46.344530
20
-54.264106
30
0.0
10
46.344530
20
-54.172519
30
0.0
10
46.344530
20
-53.981900
30
0.0
10
46.725470
20
-53.981900
30
0.0
10
46.725470
20
-54.172519
30
0.0
10
46.725470
20
-54.264106
30
0.0
10
46.908940
20
-54.264106
30
0.0
10
46.908940
20
-54.172519
30
0.0
10
46.908940
20
-53.981900
30
0.0
10
47.304173
20
-53.981900
30
0.0
10
47.304173
20
-54.172519
30
0.0
10
47.304173
20
-54.264106
30
0.0
10
47.487205
20
-54.264106
30
0.0
10
47.487205
20
-54.172519
30
0.0
10
47.487205
20
-53.981900
30
0.0
10
47.868583
20
-53.981900
30
0.0
10
47.868583
20
-54.172519
30
0.0
10
47.868583
20
-54.264106
30
0.0
10
48.051616
20
-54.264106
30
0.0
10
48.051616
20
-54.172519
30
0.0
10
48.051616
20
-53.981900
30
0.0
10
48.433141
20
-53.981900
30
0.0
10
48.433141
20
-54.172519
30
0.0
10
48.433141
20
-54.264106
30
0.0
10
48.616026
20
-54.264106
30
0.0
10
48.616026
20
-54.172519
30
0.0
10
48.616026
20
-53.981900
30
0.0
10
48.997548
20
-53.981900
30
0.0
10
48.997548
20
-54.172519
30
0.0
10
48.997548
20
-54.264106
30
0.0
10
49.180581
20
-54.264106
30
0.0
10
49.180581
20
-54.172519
30
0.0
10
49.180581
20
-53.981900
30
0.0
10
49.653548
20
-53.981900
30
0.0
10
49.745575
20
-53.981900
30
0.0
10
49.745575
20
-53.798287
30
0.0
10
49.653548
20
-53.798287
30
0.0
10
40.939903
20
-53.784571
30
0.0
10
40.939934
20
-52.994080
30
0.0
62
0
0
LWPOLYLINE
100
AcDbPolyline
8
Layer_1
90
5
70
0
10
26.758221
20
-53.008361
30
0.0
10
26.758221
20
-53.043655
30
0.0
10
26.758221
20
-53.692944
30
0.0
10
27.442805
20
-53.008361
30
0.0
10
26.758221
20
-53.008361
30
0.0
62
0
0
LWPOLYLINE
100
AcDbPolyline
8
Layer_1
90
5
70
0
10
50.133109
20
-53.008361
30
0.0
10
50.193197
20
-53.068449
30
0.0
10
50.817693
20
-53.692944
30
0.0
10
50.817693
20
-53.008361
30
0.0
10
50.133109
20
-53.008361
30
0.0
62
0
0
LWPOLYLINE
100
AcDbPolyline
8
Layer_1
90
10
70
0
10
43.635394
20
-54.081031
30
0.0
10
43.635394
20
-54.116326
30
0.0
10
43.635394
20
-54.172620
30
0.0
10
43.635394
20
-55.301442
30
0.0
10
43.635394
20
-55.392884
30
0.0
10
43.818279
20
-55.392884
30
0.0
10
43.818279
20
-55.301442
30
0.0
10
43.818279
20
-54.172477
30
0.0
10
43.818279
20
-54.081031
30
0.0
10
43.635394
20
-54.081031
30
0.0
62
0
0
LWPOLYLINE
100
AcDbPolyline
8
Layer_1
90
10
70
0
10
44.213512
20
-54.081031
30
0.0
10
44.213512
20
-54.116326
30
0.0
10
44.213512
20
-54.172620
30
0.0
10
44.213512
20
-55.301442
30
0.0
10
44.213512
20
-55.392884
30
0.0
10
44.397128
20
-55.392884
30
0.0
10
44.397128
20
-55.301442
30
0.0
10
44.397128
20
-54.172477
30
0.0
10
44.397128
20
-54.081031
30
0.0
10
44.213512
20
-54.081031
30
0.0
62
0
0
LWPOLYLINE
100
AcDbPolyline
8
Layer_1
90
10
70
0
10
44.749920
20
-54.081031
30
0.0
10
44.749920
20
-54.116326
30
0.0
10
44.749920
20
-54.172620
30
0.0
10
44.749920
20
-55.301442
30
0.0
10
44.749920
20
-55.392884
30
0.0
10
44.933390
20
-55.392884
30
0.0
10
44.933390
20
-55.301442
30
0.0
10
44.933390
20
-54.172477
30
0.0
10
44.933390
20
-54.081031
30
0.0
10
44.749920
20
-54.081031
30
0.0
62
0
0
LWPOLYLINE
100
AcDbPolyline
8
Layer_1
90
10
70
0
10
45.314331
20
-54.081031
30
0.0
10
45.314331
20
-54.116326
30
0.0
10
45.314331
20
-54.172620
30
0.0
10
45.314331
20
-55.301442
30
0.0
10
45.314331
20
-55.392884
30
0.0
10
45.497945
20
-55.392884
30
0.0
10
45.497945
20
-55.301442
30
0.0
10
45.497945
20
-54.172477
30
0.0
10
45.497945
20
-54.081031
30
0.0
10
45.314331
20
-54.081031
30
0.0
62
0
0
LWPOLYLINE
100
AcDbPolyline
8
Layer_1
90
10
70
0
10
45.893180
20
-54.081031
30
0.0
10
45.893180
20
-54.116326
30
0.0
10
45.893180
20
-54.172620
30
0.0
10
45.893180
20
-55.301442
30
0.0
10
45.893180
20
-55.392884
30
0.0
10
46.076066
20
-55.392884
30
0.0
10
46.076066
20
-55.301442
30
0.0
10
46.076066
20
-54.172477
30
0.0
10
46.076066
20
-54.081031
30
0.0
10
45.893180
20
-54.081031
30
0.0
62
0
0
LWPOLYLINE
100
AcDbPolyline
8
Layer_1
90
10
70
0
10
46.443296
20
-54.081031
30
0.0
10
46.443296
20
-54.116326
30
0.0
10
46.443296
20
-54.172620
30
0.0
10
46.443296
20
-55.301442
30
0.0
10
46.443296
20
-55.392884
30
0.0
10
46.626766
20
-55.392884
30
0.0
10
46.626766
20
-55.301442
30
0.0
10
46.626766
20
-54.172477
30
0.0
10
46.626766
20
-54.081031
30
0.0
10
46.443296
20
-54.081031
30
0.0
62
0
0
LWPOLYLINE
100
AcDbPolyline
8
Layer_1
90
10
70
0
10
47.007707
20
-54.081031
30
0.0
10
47.007707
20
-54.116326
30
0.0
10
47.007707
20
-54.172620
30
0.0
10
47.007707
20
-55.301442
30
0.0
10
47.007707
20
-55.392884
30
0.0
10
47.191176
20
-55.392884
30
0.0
10
47.191176
20
-55.301442
30
0.0
10
47.191176
20
-54.172477
30
0.0
10
47.191176
20
-54.081031
30
0.0
10
47.007707
20
-54.081031
30
0.0
62
0
0
LWPOLYLINE
100
AcDbPolyline
8
Layer_1
90
10
70
0
10
47.586409
20
-54.081031
30
0.0
10
47.586409
20
-54.116326
30
0.0
10
47.586409
20
-54.172620
30
0.0
10
47.586409
20
-55.301442
30
0.0
10
47.586409
20
-55.392884
30
0.0
10
47.769441
20
-55.392884
30
0.0
10
47.769441
20
-55.301442
30
0.0
10
47.769441
20
-54.172477
30
0.0
10
47.769441
20
-54.081031
30
0.0
10
47.586409
20
-54.081031
30
0.0
62
0
0
LWPOLYLINE
100
AcDbPolyline
8
Layer_1
90
10
70
0
10
48.150966
20
-54.081031
30
0.0
10
48.150966
20
-54.116326
30
0.0
10
48.150966
20
-54.172620
30
0.0
10
48.150966
20
-55.301442
30
0.0
10
48.150966
20
-55.392884
30
0.0
10
48.333852
20
-55.392884
30
0.0
10
48.333852
20
-55.301442
30
0.0
10
48.333852
20
-54.172477
30
0.0
10
48.333852
20
-54.081031
30
0.0
10
48.150966
20
-54.081031
30
0.0
62
0
0
LWPOLYLINE
100
AcDbPolyline
8
Layer_1
90
10
70
0
10
48.715374
20
-54.081031
30
0.0
10
48.715374
20
-54.116326
30
0.0
10
48.715374
20
-54.172620
30
0.0
10
48.715374
20
-55.301442
30
0.0
10
48.715374
20
-55.392884
30
0.0
10
48.898406
20
-55.392884
30
0.0
10
48.898406
20
-55.301442
30
0.0
10
48.898406
20
-54.172477
30
0.0
10
48.898406
20
-54.081031
30
0.0
10
48.715374
20
-54.081031
30
0.0
62
0
0
LWPOLYLINE
100
AcDbPolyline
8
Layer_1
90
10
70
0
10
49.279785
20
-54.081031
30
0.0
10
49.279785
20
-54.116326
30
0.0
10
49.279785
20
-54.172620
30
0.0
10
49.279785
20
-55.301442
30
0.0
10
49.279785
20
-55.392884
30
0.0
10
49.462817
20
-55.392884
30
0.0
10
49.462817
20
-55.301442
30
0.0
10
49.462817
20
-54.172477
30
0.0
10
49.462817
20
-54.081031
30
0.0
10
49.279785
20
-54.081031
30
0.0
62
0
0
LWPOLYLINE
100
AcDbPolyline
8
Layer_1
90
10
70
0
10
43.353188
20
-54.363236
30
0.0
10
43.353188
20
-54.398531
30
0.0
10
43.353188
20
-54.454826
30
0.0
10
43.353188
20
-55.019236
30
0.0
10
43.353188
20
-55.110679
30
0.0
10
43.536074
20
-55.110679
30
0.0
10
43.536074
20
-55.019236
30
0.0
10
43.536074
20
-54.454826
30
0.0
10
43.536074
20
-54.363236
30
0.0
10
43.353188
20
-54.363236
30
0.0
62
0
0
LWPOLYLINE
100
AcDbPolyline
8
Layer_1
90
10
70
0
10
43.931307
20
-54.363236
30
0.0
10
43.931307
20
-54.398531
30
0.0
10
43.931307
20
-54.454826
30
0.0
10
43.931307
20
-55.019236
30
0.0
10
43.931307
20
-55.110679
30
0.0
10
44.114923
20
-55.110679
30
0.0
10
44.114923
20
-55.019236
30
0.0
10
44.114923
20
-54.454826
30
0.0
10
44.114923
20
-54.363236
30
0.0
10
43.931307
20
-54.363236
30
0.0
62
0
0
LWPOLYLINE
100
AcDbPolyline
8
Layer_1
90
10
70
0
10
44.467715
20
-54.363236
30
0.0
10
44.467715
20
-54.398531
30
0.0
10
44.467715
20
-54.454826
30
0.0
10
44.467715
20
-55.019236
30
0.0
10
44.467715
20
-55.110679
30
0.0
10
44.651185
20
-55.110679
30
0.0
10
44.651185
20
-55.019236
30
0.0
10
44.651185
20
-54.454826
30
0.0
10
44.651185
20
-54.363236
30
0.0
10
44.467715
20
-54.363236
30
0.0
62
0
0
LWPOLYLINE
100
AcDbPolyline
8
Layer_1
90
10
70
0
10
45.032126
20
-54.363236
30
0.0
10
45.032126
20
-54.398531
30
0.0
10
45.032126
20
-54.454826
30
0.0
10
45.032126
20
-55.019236
30
0.0
10
45.032126
20
-55.110679
30
0.0
10
45.215742
20
-55.110679
30
0.0
10
45.215742
20
-55.019236
30
0.0
10
45.215742
20
-54.454826
30
0.0
10
45.215742
20
-54.363236
30
0.0
10
45.032126
20
-54.363236
30
0.0
62
0
0
LWPOLYLINE
100
AcDbPolyline
8
Layer_1
90
10
70
0
10
45.610975
20
-54.363236
30
0.0
10
45.610975
20
-54.398531
30
0.0
10
45.610975
20
-54.454826
30
0.0
10
45.610975
20
-55.019236
30
0.0
10
45.610975
20
-55.110679
30
0.0
10
45.793860
20
-55.110679
30
0.0
10
45.793860
20
-55.019236
30
0.0
10
45.793860
20
-54.454826
30
0.0
10
45.793860
20
-54.363236
30
0.0
10
45.610975
20
-54.363236
30
0.0
62
0
0
LWPOLYLINE
100
AcDbPolyline
8
Layer_1
90
10
70
0
10
46.160947
20
-54.363236
30
0.0
10
46.160947
20
-54.398531
30
0.0
10
46.160947
20
-54.454826
30
0.0
10
46.160947
20
-55.019236
30
0.0
10
46.160947
20
-55.110679
30
0.0
10
46.344561
20
-55.110679
30
0.0
10
46.344561
20
-55.019236
30
0.0
10
46.344561
20
-54.454826
30
0.0
10
46.344561
20
-54.363236
30
0.0
10
46.160947
20
-54.363236
30
0.0
62
0
0
LWPOLYLINE
100
AcDbPolyline
8
Layer_1
90
10
70
0
10
46.725501
20
-54.363236
30
0.0
10
46.725501
20
-54.398531
30
0.0
10
46.725501
20
-54.454826
30
0.0
10
46.725501
20
-55.019236
30
0.0
10
46.725501
20
-55.110679
30
0.0
10
46.908971
20
-55.110679
30
0.0
10
46.908971
20
-55.019236
30
0.0
10
46.908971
20
-54.454826
30
0.0
10
46.908971
20
-54.363236
30
0.0
10
46.725501
20
-54.363236
30
0.0
62
0
0
LWPOLYLINE
100
AcDbPolyline
8
Layer_1
90
10
70
0
10
47.304204
20
-54.363236
30
0.0
10
47.304204
20
-54.398531
30
0.0
10
47.304204
20
-54.454826
30
0.0
10
47.304204
20
-55.019236
30
0.0
10
47.304204
20
-55.110679
30
0.0
10
47.487236
20
-55.110679
30
0.0
10
47.487236
20
-55.019236
30
0.0
10
47.487236
20
-54.454826
30
0.0
10
47.487236
20
-54.363236
30
0.0
10
47.304204
20
-54.363236
30
0.0
62
0
0
LWPOLYLINE
100
AcDbPolyline
8
Layer_1
90
10
70
0
10
47.868614
20
-54.363236
30
0.0
10
47.868614
20
-54.398531
30
0.0
10
47.868614
20
-54.454826
30
0.0
10
47.868614
20
-55.019236
30
0.0
10
47.868614
20
-55.110679
30
0.0
10
48.051647
20
-55.110679
30
0.0
10
48.051647
20
-55.019236
30
0.0
10
48.051647
20
-54.454826
30
0.0
10
48.051647
20
-54.363236
30
0.0
10
47.868614
20
-54.363236
30
0.0
62
0
0
LWPOLYLINE
100
AcDbPolyline
8
Layer_1
90
10
70
0
10
48.433172
20
-54.363236
30
0.0
10
48.433172
20
-54.398531
30
0.0
10
48.433172
20
-54.454826
30
0.0
10
48.433172
20
-55.019236
30
0.0
10
48.433172
20
-55.110679
30
0.0
10
48.616057
20
-55.110679
30
0.0
10
48.616057
20
-55.019236
30
0.0
10
48.616057
20
-54.454826
30
0.0
10
48.616057
20
-54.363236
30
0.0
10
48.433172
20
-54.363236
30
0.0
62
0
0
LWPOLYLINE
100
AcDbPolyline
8
Layer_1
90
10
70
0
10
48.997579
20
-54.363236
30
0.0
10
48.997579
20
-54.398531
30
0.0
10
48.997579
20
-54.454826
30
0.0
10
48.997579
20
-55.019236
30
0.0
10
48.997579
20
-55.110679
30
0.0
10
49.180612
20
-55.110679
30
0.0
10
49.180612
20
-55.019236
30
0.0
10
49.180612
20
-54.454826
30
0.0
10
49.180612
20
-54.363236
30
0.0
10
48.997579
20
-54.363236
30
0.0
62
0
0
LWPOLYLINE
100
AcDbPolyline
8
Layer_1
90
6
70
0
10
36.827325
20
-56.653546
30
0.0
10
36.798594
20
-56.673386
30
0.0
10
35.606332
20
-57.492584
30
0.0
10
35.710027
20
-57.643530
30
0.0
10
36.930875
20
-56.804060
30
0.0
10
36.827325
20
-56.653546
30
0.0
62
0
0
LWPOLYLINE
100
AcDbPolyline
8
Layer_1
90
6
70
0
10
40.748591
20
-56.653546
30
0.0
10
40.728158
20
-56.682713
30
0.0
10
40.645026
20
-56.804055
30
0.0
10
41.865875
20
-57.643525
30
0.0
10
41.969569
20
-57.492578
30
0.0
10
40.748591
20
-56.653546
30
0.0
62
0
0
LWPOLYLINE
100
AcDbPolyline
8
Layer_1
90
6
70
0
10
38.004710
20
-56.871873
30
0.0
10
37.975980
20
-56.891713
30
0.0
10
36.783718
20
-57.710761
30
0.0
10
36.887412
20
-57.861855
30
0.0
10
38.108842
20
-57.022388
30
0.0
10
38.004710
20
-56.871873
30
0.0
62
0
0
LWPOLYLINE
100
AcDbPolyline
8
Layer_1
90
6
70
0
10
39.571205
20
-56.871873
30
0.0
10
39.550772
20
-56.900456
30
0.0
10
39.467059
20
-57.022382
30
0.0
10
40.688489
20
-57.861849
30
0.0
10
40.792183
20
-57.710756
30
0.0
10
39.571205
20
-56.871873
30
0.0
62
0
0
LWPOLYLINE
100
AcDbPolyline
8
Layer_1
90
6
70
0
10
35.970210
20
-56.900456
30
0.0
10
35.940896
20
-56.920297
30
0.0
10
34.748634
20
-57.740076
30
0.0
10
34.852328
20
-57.890441
30
0.0
10
36.073757
20
-57.050971
30
0.0
10
35.970210
20
-56.900456
30
0.0
62
0
0
LWPOLYLINE
100
AcDbPolyline
8
Layer_1
90
6
70
0
10
41.605705
20
-56.900456
30
0.0
10
41.585865
20
-56.929771
30
0.0
10
41.502152
20
-57.050965
30
0.0
10
42.723582
20
-57.890435
30
0.0
10
42.827276
20
-57.740070
30
0.0
10
41.605705
20
-56.900456
30
0.0
62
0
0
LWPOLYLINE
100
AcDbPolyline
8
Layer_1
90
6
70
0
10
37.147012
20
-57.118783
30
0.0
10
37.118282
20
-57.138624
30
0.0
10
35.926020
20
-57.957675
30
0.0
10
36.029714
20
-58.108765
30
0.0
10
37.250559
20
-57.269298
30
0.0
10
37.147012
20
-57.118783
30
0.0
62
0
0
LWPOLYLINE
100
AcDbPolyline
8
Layer_1
90
6
70
0
10
40.428903
20
-57.118783
30
0.0
10
40.408471
20
-57.147514
30
0.0
10
40.325342
20
-57.269293
30
0.0
10
41.546187
20
-58.108760
30
0.0
10
41.649881
20
-57.957813
30
0.0
10
40.428903
20
-57.118783
30
0.0
62
0
0
LWPOLYLINE
100
AcDbPolyline
8
Layer_1
90
6
70
0
10
35.112511
20
-57.147514
30
0.0
10
35.083197
20
-57.167354
30
0.0
10
33.890935
20
-57.986405
30
0.0
10
33.995213
20
-58.137498
30
0.0
10
35.216059
20
-57.298466
30
0.0
10
35.112511
20
-57.147514
30
0.0
62
0
0
LWPOLYLINE
100
AcDbPolyline
8
Layer_1
90
6
70
0
10
42.463404
20
-57.147514
30
0.0
10
42.443564
20
-57.176681
30
0.0
10
42.359851
20
-57.298460
30
0.0
10
43.580843
20
-58.137493
30
0.0
10
43.684975
20
-57.986399
30
0.0
10
42.463404
20
-57.147514
30
0.0
62
0
0
LWPOLYLINE
100
AcDbPolyline
8
Layer_1
90
6
70
0
10
36.289897
20
-57.365694
30
0.0
10
36.260583
20
-57.385534
30
0.0
10
35.068321
20
-58.204732
30
0.0
10
35.172015
20
-58.355679
30
0.0
10
36.392860
20
-57.516209
30
0.0
10
36.289897
20
-57.365694
30
0.0
62
0
0
LWPOLYLINE
100
AcDbPolyline
8
Layer_1
90
6
70
0
10
41.286018
20
-57.365694
30
0.0
10
41.266178
20
-57.394424
30
0.0
10
41.183049
20
-57.516203
30
0.0
10
42.403895
20
-58.355673
30
0.0
10
42.507589
20
-58.204727
30
0.0
10
41.286018
20
-57.365694
30
0.0
62
0
0
LWPOLYLINE
100
AcDbPolyline
8
Layer_1
90
6
70
0
10
35.432198
20
-57.612751
30
0.0
10
35.402884
20
-57.632592
30
0.0
10
34.210622
20
-58.451643
30
0.0
10
34.314316
20
-58.602736
30
0.0
10
35.535746
20
-57.763119
30
0.0
10
35.432198
20
-57.612751
30
0.0
62
0
0
LWPOLYLINE
100
AcDbPolyline
8
Layer_1
90
6
70
0
10
42.143717
20
-57.612751
30
0.0
10
42.123876
20
-57.641919
30
0.0
10
42.040164
20
-57.763114
30
0.0
10
43.261593
20
-58.602730
30
0.0
10
43.365287
20
-58.451637
30
0.0
10
42.143717
20
-57.612751
30
0.0
62
0
0
LWPOLYLINE
100
AcDbPolyline
8
Layer_1
90
6
70
0
10
36.609582
20
-57.830932
30
0.0
10
36.580414
20
-57.850772
30
0.0
10
35.388008
20
-58.669967
30
0.0
10
35.491702
20
-58.820914
30
0.0
10
36.713132
20
-57.981446
30
0.0
10
36.609582
20
-57.830932
30
0.0
62
0
0
LWPOLYLINE
100
AcDbPolyline
8
Layer_1
90
6
70
0
10
40.966331
20
-57.830932
30
0.0
10
40.946491
20
-57.860246
30
0.0
10
40.862775
20
-57.981441
30
0.0
10
42.084204
20
-58.820908
30
0.0
10
42.187899
20
-58.669961
30
0.0
10
40.966331
20
-57.830932
30
0.0
62
0
0
LWPOLYLINE
100
AcDbPolyline
8
Layer_1
90
6
70
0
10
34.574497
20
-57.859662
30
0.0
10
34.545185
20
-57.879502
30
0.0
10
33.353505
20
-58.698553
30
0.0
10
33.457199
20
-58.849647
30
0.0
10
34.678047
20
-58.010177
30
0.0
10
34.574497
20
-57.859662
30
0.0
62
0
0
LWPOLYLINE
100
AcDbPolyline
8
Layer_1
90
6
70
0
10
43.001415
20
-57.859662
30
0.0
10
42.981575
20
-57.888830
30
0.0
10
42.897860
20
-58.010171
30
0.0
10
44.118708
20
-58.849641
30
0.0
10
44.222399
20
-58.698548
30
0.0
10
43.001415
20
-57.859662
30
0.0
62
0
0
LWPOLYLINE
100
AcDbPolyline
8
Layer_1
90
6
70
0
10
35.751883
20
-58.077842
30
0.0
10
35.722715
20
-58.097682
30
0.0
10
34.530309
20
-58.916880
30
0.0
10
34.634001
20
-59.067827
30
0.0
10
35.855433
20
-58.228357
30
0.0
10
35.751883
20
-58.077842
30
0.0
62
0
0
LWPOLYLINE
100
AcDbPolyline
8
Layer_1
90
6
70
0
10
41.824032
20
-58.077842
30
0.0
10
41.804192
20
-58.106572
30
0.0
10
41.720476
20
-58.228351
30
0.0
10
42.941909
20
-59.067821
30
0.0
10
43.045600
20
-58.916875
30
0.0
10
41.824032
20
-58.077842
30
0.0
62
0
0
LWPOLYLINE
100
AcDbPolyline
8
Layer_1
90
6
70
0
10
33.716798
20
-58.106572
30
0.0
10
33.687631
20
-58.126413
30
0.0
10
32.495806
20
-58.945464
30
0.0
10
32.599500
20
-59.096557
30
0.0
10
33.820348
20
-58.257087
30
0.0
10
33.716798
20
-58.106572
30
0.0
62
0
0
LWPOLYLINE
100
AcDbPolyline
8
Layer_1
90
6
70
0
10
43.859117
20
-58.106572
30
0.0
10
43.839277
20
-58.135743
30
0.0
10
43.755564
20
-58.257082
30
0.0
10
44.976412
20
-59.096552
30
0.0
10
45.080106
20
-58.945458
30
0.0
10
43.859117
20
-58.106572
30
0.0
62
0
0
LWPOLYLINE
100
AcDbPolyline
8
Layer_1
90
6
70
0
10
34.894184
20
-58.324900
30
0.0
10
34.865016
20
-58.344740
30
0.0
10
33.673192
20
-59.163791
30
0.0
10
33.776886
20
-59.314884
30
0.0
10
34.997731
20
-58.475268
30
0.0
10
34.894184
20
-58.324900
30
0.0
62
0
0
LWPOLYLINE
100
AcDbPolyline
8
Layer_1
90
6
70
0
10
42.681731
20
-58.324900
30
0.0
10
42.661891
20
-58.353486
30
0.0
10
42.578175
20
-58.475262
30
0.0
10
43.799023
20
-59.314879
30
0.0
10
43.902717
20
-59.163785
30
0.0
10
42.681731
20
-58.324900
30
0.0
62
0
0
LWPOLYLINE
100
AcDbPolyline
8
Layer_1
90
6
70
0
10
34.036485
20
-58.571810
30
0.0
10
34.007318
20
-58.591650
30
0.0
10
32.815493
20
-59.410702
30
0.0
10
32.919187
20
-59.561795
30
0.0
10
34.140180
20
-58.722325
30
0.0
10
34.036485
20
-58.571810
30
0.0
62
0
0
LWPOLYLINE
100
AcDbPolyline
8
Layer_1
90
6
70
0
10
43.539430
20
-58.571810
30
0.0
10
43.519590
20
-58.600396
30
0.0
10
43.435877
20
-58.722319
30
0.0
10
44.656722
20
-59.561789
30
0.0
10
44.760416
20
-59.410696
30
0.0
10
43.539430
20
-58.571810
30
0.0
62
0
0
LWPOLYLINE
100
AcDbPolyline
8
Layer_1
90
6
70
0
10
35.213871
20
-58.790137
30
0.0
10
35.184704
20
-58.809977
30
0.0
10
33.992879
20
-59.629029
30
0.0
10
34.096573
20
-59.780119
30
0.0
10
35.317565
20
-58.941089
30
0.0
10
35.213871
20
-58.790137
30
0.0
62
0
0
LWPOLYLINE
100
AcDbPolyline
8
Layer_1
90
6
70
0
10
42.362044
20
-58.790137
30
0.0
10
42.342204
20
-58.819305
30
0.0
10
42.258344
20
-58.941084
30
0.0
10
43.479336
20
-59.780114
30
0.0
10
43.583030
20
-59.629023
30
0.0
10
42.362044
20
-58.790137
30
0.0
62
0
0
LWPOLYLINE
100
AcDbPolyline
8
Layer_1
90
6
70
0
10
33.178787
20
-58.818721
30
0.0
10
33.149619
20
-58.838561
30
0.0
10
31.957795
20
-59.657759
30
0.0
10
32.061489
20
-59.808705
30
0.0
10
33.282481
20
-58.969820
30
0.0
10
33.178787
20
-58.818721
30
0.0
62
0
0
LWPOLYLINE
100
AcDbPolyline
8
Layer_1
90
6
70
0
10
44.397128
20
-58.818721
30
0.0
10
44.377288
20
-58.847891
30
0.0
10
44.293429
20
-58.969814
30
0.0
10
45.514421
20
-59.808700
30
0.0
10
45.618115
20
-59.657753
30
0.0
10
44.397128
20
-58.818721
30
0.0
62
0
0
LWPOLYLINE
100
AcDbPolyline
8
Layer_1
90
6
70
0
10
34.356173
20
-59.037048
30
0.0
10
34.327005
20
-59.056888
30
0.0
10
33.135181
20
-59.875939
30
0.0
10
33.238875
20
-60.027033
30
0.0
10
34.459867
20
-59.187563
30
0.0
10
34.356173
20
-59.037048
30
0.0
62
0
0
LWPOLYLINE
100
AcDbPolyline
8
Layer_1
90
6
70
0
10
43.219743
20
-59.037048
30
0.0
10
43.199902
20
-59.065634
30
0.0
10
43.116043
20
-59.187557
30
0.0
10
44.337035
20
-60.027027
30
0.0
10
44.440729
20
-59.875934
30
0.0
10
43.219743
20
-59.037048
30
0.0
62
0
0
LWPOLYLINE
100
AcDbPolyline
8
Layer_1
90
6
70
0
10
32.321088
20
-59.065634
30
0.0
10
32.292502
20
-59.085474
30
0.0
10
31.100096
20
-59.904670
30
0.0
10
31.203790
20
-60.055616
30
0.0
10
32.424782
20
-59.216730
30
0.0
10
32.321088
20
-59.065634
30
0.0
62
0
0
LWPOLYLINE
100
AcDbPolyline
8
Layer_1
90
6
70
0
10
45.254827
20
-59.065634
30
0.0
10
45.234394
20
-59.094949
30
0.0
10
45.151119
20
-59.216725
30
0.0
10
46.372111
20
-60.055610
30
0.0
10
46.475805
20
-59.904664
30
0.0
10
45.254827
20
-59.065634
30
0.0
62
0
0
LWPOLYLINE
100
AcDbPolyline
8
Layer_1
90
6
70
0
10
33.498474
20
-59.283958
30
0.0
10
33.469303
20
-59.303799
30
0.0
10
32.277626
20
-60.122850
30
0.0
10
32.381176
20
-60.273943
30
0.0
10
33.602168
20
-59.434473
30
0.0
10
33.498474
20
-59.283958
30
0.0
62
0
0
LWPOLYLINE
100
AcDbPolyline
8
Layer_1
90
6
70
0
10
44.077441
20
-59.283958
30
0.0
10
44.057601
20
-59.312689
30
0.0
10
43.973742
20
-59.434468
30
0.0
10
45.194734
20
-60.273938
30
0.0
10
45.298428
20
-60.122844
30
0.0
10
44.077441
20
-59.283958
30
0.0
62
0
0
LWPOLYLINE
100
AcDbPolyline
8
Layer_1
90
6
70
0
10
32.640775
20
-59.530869
30
0.0
10
32.612189
20
-59.550709
30
0.0
10
31.419927
20
-60.369907
30
0.0
10
31.523474
20
-60.520854
30
0.0
10
32.744469
20
-59.681384
30
0.0
10
32.640775
20
-59.530869
30
0.0
62
0
0
LWPOLYLINE
100
AcDbPolyline
8
Layer_1
90
6
70
0
10
44.935140
20
-59.530869
30
0.0
10
44.914735
20
-59.560183
30
0.0
10
44.831457
20
-59.681378
30
0.0
10
46.052452
20
-60.520848
30
0.0
10
46.155999
20
-60.369902
30
0.0
10
44.935140
20
-59.530869
30
0.0
62
0
0
LWPOLYLINE
100
AcDbPolyline
8
Layer_1
90
6
70
0
10
33.818158
20
-59.749196
30
0.0
10
33.788991
20
-59.769036
30
0.0
10
32.597313
20
-60.588088
30
0.0
10
32.700860
20
-60.739178
30
0.0
10
33.921852
20
-59.899711
30
0.0
10
33.818158
20
-59.749196
30
0.0
62
0
0
LWPOLYLINE
100
AcDbPolyline
8
Layer_1
90
6
70
0
10
43.757757
20
-59.749196
30
0.0
10
43.737917
20
-59.778364
30
0.0
10
43.654060
20
-59.899705
30
0.0
10
44.875052
20
-60.739172
30
0.0
10
44.978599
20
-60.588082
30
0.0
10
43.757757
20
-59.749196
30
0.0
62
0
0
LWPOLYLINE
100
AcDbPolyline
8
Layer_1
90
6
70
0
10
31.783658
20
-59.777926
30
0.0
10
31.754490
20
-59.797767
30
0.0
10
30.562228
20
-60.616818
30
0.0
10
30.665776
20
-60.767911
30
0.0
10
31.886768
20
-59.928879
30
0.0
10
31.783658
20
-59.777926
30
0.0
62
0
0
LWPOLYLINE
100
AcDbPolyline
8
Layer_1
90
6
70
0
10
45.792257
20
-59.777926
30
0.0
10
45.772417
20
-59.807097
30
0.0
10
45.689139
20
-59.928873
30
0.0
10
46.910131
20
-60.767905
30
0.0
10
47.013681
20
-60.616812
30
0.0
10
45.792257
20
-59.777926
30
0.0
62
0
0
LWPOLYLINE
100
AcDbPolyline
8
Layer_1
90
6
70
0
10
32.960460
20
-59.996107
30
0.0
10
32.931876
20
-60.015947
30
0.0
10
31.739614
20
-60.835145
30
0.0
10
31.843162
20
-60.986091
30
0.0
10
33.064154
20
-60.146621
30
0.0
10
32.960460
20
-59.996107
30
0.0
62
0
0
LWPOLYLINE
100
AcDbPolyline
8
Layer_1
90
6
70
0
10
44.615456
20
-59.996107
30
0.0
10
44.595023
20
-60.024837
30
0.0
10
44.511745
20
-60.146616
30
0.0
10
45.732740
20
-60.986086
30
0.0
10
45.836287
20
-60.835139
30
0.0
10
44.615456
20
-59.996107
30
0.0
62
0
0
LWPOLYLINE
100
AcDbPolyline
8
Layer_1
90
6
70
0
10
30.925375
20
-60.024837
30
0.0
10
30.896791
20
-60.044677
30
0.0
10
29.704530
20
-60.863728
30
0.0
10
29.808077
20
-61.014822
30
0.0
10
31.029653
20
-60.175354
30
0.0
10
30.925375
20
-60.024837
30
0.0
62
0
0
LWPOLYLINE
100
AcDbPolyline
8
Layer_1
90
6
70
0
10
46.649956
20
-60.024837
30
0.0
10
46.630116
20
-60.054007
30
0.0
10
46.546256
20
-60.175349
30
0.0
10
47.767833
20
-61.014816
30
0.0
10
47.871380
20
-60.863723
30
0.0
10
46.649956
20
-60.024837
30
0.0
62
0
0
LWPOLYLINE
100
AcDbPolyline
8
Layer_1
90
6
70
0
10
32.103345
20
-60.242580
30
0.0
10
32.074177
20
-60.263013
30
0.0
10
30.881915
20
-61.082064
30
0.0
10
30.985463
20
-61.233157
30
0.0
10
32.206455
20
-60.393540
30
0.0
10
32.103345
20
-60.242580
30
0.0
62
0
0
LWPOLYLINE
100
AcDbPolyline
8
Layer_1
90
6
70
0
10
45.472570
20
-60.242580
30
0.0
10
45.452730
20
-60.271750
30
0.0
10
45.369455
20
-60.393526
30
0.0
10
46.590447
20
-61.232996
30
0.0
10
46.693994
20
-61.082050
30
0.0
10
45.472570
20
-60.242580
30
0.0
62
0
0
LWPOLYLINE
100
AcDbPolyline
8
Layer_1
90
6
70
0
10
31.245646
20
-60.490075
30
0.0
10
31.216479
20
-60.509915
30
0.0
10
30.024217
20
-61.328966
30
0.0
10
30.127764
20
-61.480059
30
0.0
10
31.349340
20
-60.641027
30
0.0
10
31.245646
20
-60.490075
30
0.0
62
0
0
LWPOLYLINE
100
AcDbPolyline
8
Layer_1
90
6
70
0
10
46.330269
20
-60.490075
30
0.0
10
46.310429
20
-60.518661
30
0.0
10
46.226569
20
-60.641021
30
0.0
10
47.448145
20
-61.480054
30
0.0
10
47.551693
20
-61.328960
30
0.0
10
46.330269
20
-60.490075
30
0.0
62
0
0
LWPOLYLINE
100
AcDbPolyline
8
Layer_1
90
6
70
0
10
32.422595
20
-60.708255
30
0.0
10
32.393862
20
-60.728095
30
0.0
10
31.201603
20
-61.547293
30
0.0
10
31.305150
20
-61.698240
30
0.0
10
32.526726
20
-60.858770
30
0.0
10
32.422595
20
-60.708255
30
0.0
62
0
0
LWPOLYLINE
100
AcDbPolyline
8
Layer_1
90
6
70
0
10
45.153467
20
-60.708255
30
0.0
10
45.133034
20
-60.737569
30
0.0
10
45.049175
20
-60.858764
30
0.0
10
46.270751
20
-61.698234
30
0.0
10
46.374298
20
-61.547288
30
0.0
10
45.153467
20
-60.708255
30
0.0
62
0
0
LWPOLYLINE
100
AcDbPolyline
8
Layer_1
90
6
70
0
10
30.387948
20
-60.736985
30
0.0
10
30.358777
20
-60.756825
30
0.0
10
29.167099
20
-61.575877
30
0.0
10
29.270065
20
-61.726970
30
0.0
10
30.491642
20
-60.887500
30
0.0
10
30.387948
20
-60.736985
30
0.0
62
0
0
LWPOLYLINE
100
AcDbPolyline
8
Layer_1
90
6
70
0
10
47.187968
20
-60.736985
30
0.0
10
47.168127
20
-60.766156
30
0.0
10
47.084268
20
-60.887494
30
0.0
10
48.305844
20
-61.726964
30
0.0
10
48.408810
20
-61.575871
30
0.0
10
47.187968
20
-60.736985
30
0.0
62
0
0
LWPOLYLINE
100
AcDbPolyline
8
Layer_1
90
6
70
0
10
31.564896
20
-60.955312
30
0.0
10
31.536163
20
-60.975153
30
0.0
10
30.343901
20
-61.794204
30
0.0
10
30.447451
20
-61.945297
30
0.0
10
31.669028
20
-61.105683
30
0.0
10
31.564896
20
-60.955312
30
0.0
62
0
0
LWPOLYLINE
100
AcDbPolyline
8
Layer_1
90
6
70
0
10
46.011019
20
-60.955312
30
0.0
10
45.990756
20
-60.983899
30
0.0
10
45.906896
20
-61.105677
30
0.0
10
47.128472
20
-61.945291
30
0.0
10
47.232020
20
-61.794198
30
0.0
10
46.011019
20
-60.955312
30
0.0
62
0
0
LWPOLYLINE
100
AcDbPolyline
8
Layer_1
90
6
70
0
10
29.530249
20
-60.983899
30
0.0
10
29.501078
20
-61.003739
30
0.0
10
28.309401
20
-61.823371
30
0.0
10
28.412948
20
-61.973881
30
0.0
10
29.633943
20
-61.134413
30
0.0
10
29.530249
20
-60.983899
30
0.0
62
0
0
LWPOLYLINE
100
AcDbPolyline
8
Layer_1
90
6
70
0
10
48.045666
20
-60.983899
30
0.0
10
48.025826
20
-61.013066
30
0.0
10
47.941967
20
-61.134408
30
0.0
10
49.162959
20
-61.973875
30
0.0
10
49.266509
20
-61.823366
30
0.0
10
48.045666
20
-60.983899
30
0.0
62
0
0
LWPOLYLINE
100
AcDbPolyline
8
Layer_1
90
6
70
0
10
30.707632
20
-61.202223
30
0.0
10
30.678464
20
-61.222063
30
0.0
10
29.486202
20
-62.041114
30
0.0
10
29.589897
20
-62.192208
30
0.0
10
30.811326
20
-61.352738
30
0.0
10
30.707632
20
-61.202223
30
0.0
62
0
0
LWPOLYLINE
100
AcDbPolyline
8
Layer_1
90
6
70
0
10
46.868280
20
-61.202223
30
0.0
10
46.848440
20
-61.230809
30
0.0
10
46.764581
20
-61.352732
30
0.0
10
47.986013
20
-62.192202
30
0.0
10
48.089707
20
-62.041109
30
0.0
10
46.868280
20
-61.202223
30
0.0
62
0
0
LWPOLYLINE
100
AcDbPolyline
8
Layer_1
90
6
70
0
10
29.849933
20
-61.449136
30
0.0
10
29.820766
20
-61.468976
30
0.0
10
28.629088
20
-62.288028
30
0.0
10
28.732635
20
-62.439121
30
0.0
10
29.953627
20
-61.599651
30
0.0
10
29.849933
20
-61.449136
30
0.0
62
0
0
LWPOLYLINE
100
AcDbPolyline
8
Layer_1
90
6
70
0
10
47.725979
20
-61.449136
30
0.0
10
47.706139
20
-61.477866
30
0.0
10
47.622279
20
-61.599643
30
0.0
10
48.843274
20
-62.439113
30
0.0
10
48.946822
20
-62.288019
30
0.0
10
47.725979
20
-61.449136
30
0.0
62
0
0
LWPOLYLINE
100
AcDbPolyline
8
Layer_1
90
6
70
0
10
31.027466
20
-61.667461
30
0.0
10
30.998152
20
-61.687301
30
0.0
10
29.805890
20
-62.506352
30
0.0
10
29.910021
20
-62.657445
30
0.0
10
31.131013
20
-61.817975
30
0.0
10
31.027466
20
-61.667461
30
0.0
62
0
0
LWPOLYLINE
100
AcDbPolyline
8
Layer_1
90
6
70
0
10
46.548449
20
-61.667461
30
0.0
10
46.528609
20
-61.696047
30
0.0
10
46.444896
20
-61.817970
30
0.0
10
47.665888
20
-62.657440
30
0.0
10
47.770020
20
-62.506346
30
0.0
10
46.548449
20
-61.667461
30
0.0
62
0
0
LWPOLYLINE
100
AcDbPolyline
8
Layer_1
90
6
70
0
10
28.992381
20
-61.696047
30
0.0
10
28.963067
20
-61.715887
30
0.0
10
27.771388
20
-62.535082
30
0.0
10
27.874936
20
-62.686029
30
0.0
10
29.095929
20
-61.847143
30
0.0
10
28.992381
20
-61.696047
30
0.0
62
0
0
LWPOLYLINE
100
AcDbPolyline
8
Layer_1
90
6
70
0
10
48.583678
20
-61.696047
30
0.0
10
48.563697
20
-61.725358
30
0.0
10
48.479984
20
-61.847137
30
0.0
10
49.700976
20
-62.686023
30
0.0
10
49.804523
20
-62.535077
30
0.0
10
48.583678
20
-61.696047
30
0.0
62
0
0
LWPOLYLINE
100
AcDbPolyline
8
Layer_1
90
6
70
0
10
30.169767
20
-61.914371
30
0.0
10
30.140453
20
-61.934211
30
0.0
10
28.948775
20
-62.753263
30
0.0
10
29.051885
20
-62.904356
30
0.0
10
30.273315
20
-62.064886
30
0.0
10
30.169767
20
-61.914371
30
0.0
62
0
0
LWPOLYLINE
100
AcDbPolyline
8
Layer_1
90
6
70
0
10
47.406148
20
-61.914371
30
0.0
10
47.386308
20
-61.943101
30
0.0
10
47.302595
20
-62.064880
30
0.0
10
48.524025
20
-62.904350
30
0.0
10
48.627134
20
-62.753257
30
0.0
10
47.406148
20
-61.914371
30
0.0
62
0
0
LWPOLYLINE
100
AcDbPolyline
8
Layer_1
90
6
70
0
10
28.134681
20
-61.943101
30
0.0
10
28.105367
20
-61.962942
30
0.0
10
26.913689
20
-62.781990
30
0.0
10
27.017237
20
-62.933083
30
0.0
10
28.238230
20
-62.094051
30
0.0
10
28.134681
20
-61.943101
30
0.0
62
0
0
LWPOLYLINE
100
AcDbPolyline
8
Layer_1
90
6
70
0
10
49.441233
20
-61.943101
30
0.0
10
49.421392
20
-61.972272
30
0.0
10
49.337680
20
-62.094048
30
0.0
10
50.558672
20
-62.933080
30
0.0
10
50.662219
20
-62.781987
30
0.0
10
49.441233
20
-61.943101
30
0.0
62
0
0
LWPOLYLINE
100
AcDbPolyline
8
Layer_1
90
6
70
0
10
29.312068
20
-62.161285
30
0.0
10
29.282754
20
-62.181125
30
0.0
10
28.091074
20
-63.000323
30
0.0
10
28.194769
20
-63.151269
30
0.0
10
29.415616
20
-62.311799
30
0.0
10
29.312068
20
-62.161285
30
0.0
62
0
0
LWPOLYLINE
100
AcDbPolyline
8
Layer_1
90
6
70
0
10
48.263847
20
-62.161285
30
0.0
10
48.244006
20
-62.190596
30
0.0
10
48.160294
20
-62.311791
30
0.0
10
49.381139
20
-63.151261
30
0.0
10
49.484833
20
-63.000314
30
0.0
10
48.263847
20
-62.161285
30
0.0
62
0
0
LWPOLYLINE
100
AcDbPolyline
8
Layer_1
90
6
70
0
10
28.454370
20
-62.408195
30
0.0
10
28.425055
20
-62.428035
30
0.0
10
27.233375
20
-63.247230
30
0.0
10
27.337069
20
-63.398177
30
0.0
10
28.557917
20
-62.558710
30
0.0
10
28.454370
20
-62.408195
30
0.0
62
0
0
LWPOLYLINE
100
AcDbPolyline
8
Layer_1
90
6
70
0
10
49.121545
20
-62.408195
30
0.0
10
49.101705
20
-62.437507
30
0.0
10
49.017992
20
-62.558704
30
0.0
10
50.238838
20
-63.398171
30
0.0
10
50.342532
20
-63.247225
30
0.0
10
49.121545
20
-62.408195
30
0.0
62
0
0
LWPOLYLINE
100
AcDbPolyline
8
Layer_1
90
6
70
0
10
29.631753
20
-62.626519
30
0.0
10
29.602438
20
-62.646360
30
0.0
10
28.410761
20
-63.465558
30
0.0
10
28.514455
20
-63.616504
30
0.0
10
29.735303
20
-62.777034
30
0.0
10
29.631753
20
-62.626519
30
0.0
62
0
0
LWPOLYLINE
100
AcDbPolyline
8
Layer_1
90
6
70
0
10
47.944159
20
-62.626519
30
0.0
10
47.924319
20
-62.655690
30
0.0
10
47.840604
20
-62.777029
30
0.0
10
49.061452
20
-63.616499
30
0.0
10
49.165143
20
-63.465552
30
0.0
10
47.944159
20
-62.626519
30
0.0
62
0
0
LWPOLYLINE
100
AcDbPolyline
8
Layer_1
90
6
70
0
10
27.596668
20
-62.655252
30
0.0
10
27.567938
20
-62.675093
30
0.0
10
26.758221
20
-63.231189
30
0.0
10
26.758221
20
-63.453306
30
0.0
10
27.700800
20
-62.806205
30
0.0
10
27.596668
20
-62.655252
30
0.0
62
0
0
LWPOLYLINE
100
AcDbPolyline
8
Layer_1
90
6
70
0
10
49.979244
20
-62.655252
30
0.0
10
49.958839
20
-62.683836
30
0.0
10
49.875127
20
-62.806199
30
0.0
10
50.817704
20
-63.453301
30
0.0
10
50.817704
20
-63.231183
30
0.0
10
49.979244
20
-62.655252
30
0.0
62
0
0
LWPOLYLINE
100
AcDbPolyline
8
Layer_1
90
6
70
0
10
28.774054
20
-62.873430
30
0.0
10
28.744886
20
-62.893270
30
0.0
10
27.553061
20
-63.712468
30
0.0
10
27.656756
20
-63.863415
30
0.0
10
28.877604
20
-63.023948
30
0.0
10
28.774054
20
-62.873430
30
0.0
62
0
0
LWPOLYLINE
100
AcDbPolyline
8
Layer_1
90
6
70
0
10
48.801861
20
-62.873430
30
0.0
10
48.782021
20
-62.902163
30
0.0
10
48.698308
20
-63.023942
30
0.0
10
49.919156
20
-63.863409
30
0.0
10
50.022850
20
-63.712463
30
0.0
10
48.801861
20
-62.873430
30
0.0
62
0
0
LWPOLYLINE
100
AcDbPolyline
8
Layer_1
90
5
70
0
10
26.758221
20
-62.931331
30
0.0
10
26.758221
20
-63.043192
30
0.0
10
26.758221
20
-63.101674
30
0.0
10
26.845872
20
-63.056462
30
0.0
10
26.758221
20
-62.931331
30
0.0
62
0
0
LWPOLYLINE
100
AcDbPolyline
8
Layer_1
90
4
70
0
10
26.777471
20
-63.012419
30
0.0
10
26.828224
20
-63.043192
30
0.0
10
26.764783
20
-63.063625
30
0.0
10
26.777471
20
-63.012419
30
0.0
62
0
0
LWPOLYLINE
100
AcDbPolyline
8
Layer_1
90
9
70
0
10
50.751480
20
-63.026135
30
0.0
10
50.733390
20
-63.059824
30
0.0
10
50.817687
20
-63.100077
30
0.0
10
50.817687
20
-63.043198
30
0.0
10
50.806596
20
-63.040376
30
0.0
10
50.813312
20
-63.060216
30
0.0
10
50.747684
20
-63.043141
30
0.0
10
50.768682
20
-63.030441
30
0.0
10
50.751480
20
-63.026135
30
0.0
62
0
0
LWPOLYLINE
100
AcDbPolyline
8
Layer_1
90
4
70
0
10
26.793514
20
-63.043350
30
0.0
10
26.793514
20
-63.043915
30
0.0
10
26.793796
20
-63.043765
30
0.0
10
26.793514
20
-63.043350
30
0.0
62
0
0
LWPOLYLINE
100
AcDbPolyline
8
Layer_1
90
4
70
0
10
50.782401
20
-63.043350
30
0.0
10
50.782118
20
-63.043915
30
0.0
10
50.782401
20
-63.044064
30
0.0
10
50.782401
20
-63.043350
30
0.0
62
0
0
LWPOLYLINE
100
AcDbPolyline
8
Layer_1
90
7
70
0
10
27.916354
20
-63.120499
30
0.0
10
27.887623
20
-63.140339
30
0.0
10
26.758220
20
-63.916368
30
0.0
10
26.758220
20
-64.050833
30
0.0
10
26.799056
20
-64.110483
30
0.0
10
28.020486
20
-63.270869
30
0.0
10
27.916354
20
-63.120499
30
0.0
62
0
0
LWPOLYLINE
100
AcDbPolyline
8
Layer_1
90
7
70
0
10
49.659560
20
-63.120499
30
0.0
10
49.639127
20
-63.149085
30
0.0
10
49.555414
20
-63.270864
30
0.0
10
50.776844
20
-64.110478
30
0.0
10
50.817678
20
-64.050827
30
0.0
10
50.817678
20
-63.916362
30
0.0
10
49.659560
20
-63.120499
30
0.0
62
0
0
LWPOLYLINE
100
AcDbPolyline
8
Layer_1
90
6
70
0
10
27.058655
20
-63.367412
30
0.0
10
27.029924
20
-63.387252
30
0.0
10
26.758220
20
-63.574078
30
0.0
10
26.758220
20
-63.796195
30
0.0
10
27.162349
20
-63.517927
30
0.0
10
27.058655
20
-63.367412
30
0.0
62
0
0
LWPOLYLINE
100
AcDbPolyline
8
Layer_1
90
6
70
0
10
50.517258
20
-63.367412
30
0.0
10
50.496826
20
-63.395995
30
0.0
10
50.413697
20
-63.517918
30
0.0
10
50.817678
20
-63.796187
30
0.0
10
50.817678
20
-63.574069
30
0.0
10
50.517258
20
-63.367412
30
0.0
62
0
0
LWPOLYLINE
100
AcDbPolyline
8
Layer_1
90
6
70
0
10
28.236043
20
-63.585590
30
0.0
10
28.207311
20
-63.605430
30
0.0
10
27.097741
20
-64.367895
30
0.0
10
27.421365
20
-64.367895
30
0.0
10
28.340174
20
-63.736107
30
0.0
10
28.236043
20
-63.585590
30
0.0
62
0
0
LWPOLYLINE
100
AcDbPolyline
8
Layer_1
90
6
70
0
10
49.339873
20
-63.585590
30
0.0
10
49.319440
20
-63.614323
30
0.0
10
49.235727
20
-63.736101
30
0.0
10
50.154532
20
-64.367890
30
0.0
10
50.478159
20
-64.367890
30
0.0
10
49.339873
20
-63.585590
30
0.0
62
0
0
LWPOLYLINE
100
AcDbPolyline
8
Layer_1
90
7
70
0
10
27.378342
20
-63.832647
30
0.0
10
27.349756
20
-63.852487
30
0.0
10
26.758220
20
-64.258658
30
0.0
10
26.758220
20
-64.367895
30
0.0
10
26.922438
20
-64.367895
30
0.0
10
27.482035
20
-63.983018
30
0.0
10
27.378342
20
-63.832647
30
0.0
62
0
0
LWPOLYLINE
100
AcDbPolyline
8
Layer_1
90
7
70
0
10
50.197571
20
-63.832647
30
0.0
10
50.177138
20
-63.861233
30
0.0
10
50.093426
20
-63.983012
30
0.0
10
50.653459
20
-64.367890
30
0.0
10
50.817678
20
-64.367890
30
0.0
10
50.817678
20
-64.258653
30
0.0
10
50.197571
20
-63.832647
30
0.0
62
0
0
LWPOLYLINE
100
AcDbPolyline
8
Layer_1
90
343
70
0
10
28.113095
20
-65.652179
30
0.0
10
28.113095
20
-65.687471
30
0.0
10
28.113095
20
-67.810789
30
0.0
10
29.142744
20
-67.810789
30
0.0
10
29.142744
20
-67.528440
30
0.0
10
29.806474
20
-67.528440
30
0.0
10
29.806474
20
-67.810789
30
0.0
10
30.836119
20
-67.810789
30
0.0
10
30.836119
20
-67.528440
30
0.0
10
31.499850
20
-67.528440
30
0.0
10
31.499850
20
-67.810789
30
0.0
10
32.529495
20
-67.810789
30
0.0
10
32.529495
20
-67.528440
30
0.0
10
33.193078
20
-67.528440
30
0.0
10
33.193078
20
-67.810789
30
0.0
10
34.222727
20
-67.810789
30
0.0
10
34.222727
20
-67.528440
30
0.0
10
34.885873
20
-67.528440
30
0.0
10
34.885873
20
-67.810789
30
0.0
10
35.916102
20
-67.810789
30
0.0
10
35.916102
20
-67.528440
30
0.0
10
36.579830
20
-67.528440
30
0.0
10
36.579830
20
-67.810789
30
0.0
10
37.609478
20
-67.810789
30
0.0
10
37.609478
20
-67.528440
30
0.0
10
47.960204
20
-67.528440
30
0.0
10
48.051647
20
-67.528440
30
0.0
10
48.051647
20
-67.345554
30
0.0
10
47.960204
20
-67.345554
30
0.0
10
47.713293
20
-67.345554
30
0.0
10
47.713293
20
-67.119497
30
0.0
10
47.568324
20
-67.119497
30
0.0
10
47.568324
20
-67.345554
30
0.0
10
47.186218
20
-67.345554
30
0.0
10
47.186218
20
-67.119497
30
0.0
10
47.040811
20
-67.119497
30
0.0
10
47.040811
20
-67.345554
30
0.0
10
46.621807
20
-67.345554
30
0.0
10
46.621807
20
-67.119497
30
0.0
10
46.476257
20
-67.119497
30
0.0
10
46.476257
20
-67.345554
30
0.0
10
46.057397
20
-67.345554
30
0.0
10
46.057397
20
-67.119497
30
0.0
10
45.911846
20
-67.119497
30
0.0
10
45.911846
20
-67.345554
30
0.0
10
45.492989
20
-67.345554
30
0.0
10
45.492989
20
-67.119497
30
0.0
10
45.347438
20
-67.119497
30
0.0
10
45.347438
20
-67.345554
30
0.0
10
44.928432
20
-67.345554
30
0.0
10
44.928432
20
-67.119497
30
0.0
10
44.783028
20
-67.119497
30
0.0
10
44.783028
20
-67.345554
30
0.0
10
44.364021
20
-67.345554
30
0.0
10
44.364021
20
-67.119497
30
0.0
10
44.218471
20
-67.119497
30
0.0
10
44.218471
20
-67.345554
30
0.0
10
43.799610
20
-67.345554
30
0.0
10
43.799610
20
-67.119497
30
0.0
10
43.654063
20
-67.119497
30
0.0
10
43.654063
20
-67.345554
30
0.0
10
43.235203
20
-67.345554
30
0.0
10
43.235203
20
-67.119497
30
0.0
10
43.089652
20
-67.119497
30
0.0
10
43.089652
20
-67.345554
30
0.0
10
42.670792
20
-67.345554
30
0.0
10
42.670792
20
-67.119497
30
0.0
10
42.525242
20
-67.119497
30
0.0
10
42.525242
20
-67.345554
30
0.0
10
42.106238
20
-67.345554
30
0.0
10
42.106238
20
-67.119497
30
0.0
10
41.960684
20
-67.119497
30
0.0
10
41.960684
20
-67.345554
30
0.0
10
41.504345
20
-67.345554
30
0.0
10
41.504345
20
-67.119497
30
0.0
10
41.359379
20
-67.119497
30
0.0
10
41.359379
20
-67.345554
30
0.0
10
40.939934
20
-67.345554
30
0.0
10
40.939934
20
-67.119497
30
0.0
10
40.794968
20
-67.119497
30
0.0
10
40.794968
20
-67.345554
30
0.0
10
40.375524
20
-67.345554
30
0.0
10
40.375524
20
-67.119497
30
0.0
10
40.230558
20
-67.119497
30
0.0
10
40.230558
20
-67.345554
30
0.0
10
39.810969
20
-67.345554
30
0.0
10
39.810969
20
-67.119497
30
0.0
10
39.666000
20
-67.119497
30
0.0
10
39.666000
20
-67.345554
30
0.0
10
39.246559
20
-67.345554
30
0.0
10
39.246559
20
-67.119497
30
0.0
10
39.101593
20
-67.119497
30
0.0
10
39.101593
20
-67.345554
30
0.0
10
38.682148
20
-67.345554
30
0.0
10
38.682148
20
-67.119497
30
0.0
10
38.537182
20
-67.119497
30
0.0
10
38.537182
20
-67.345554
30
0.0
10
38.117740
20
-67.345554
30
0.0
10
38.117740
20
-67.119497
30
0.0
10
37.972771
20
-67.119497
30
0.0
10
37.972771
20
-67.345554
30
0.0
10
37.553183
20
-67.345554
30
0.0
10
37.553183
20
-67.119497
30
0.0
10
37.408214
20
-67.119497
30
0.0
10
37.408214
20
-67.401702
30
0.0
10
36.988773
20
-67.401702
30
0.0
10
36.988773
20
-67.119497
30
0.0
10
36.843806
20
-67.119497
30
0.0
10
36.843806
20
-67.401702
30
0.0
10
36.762862
20
-67.401702
30
0.0
10
36.762862
20
-67.345554
30
0.0
10
36.424362
20
-67.345554
30
0.0
10
36.424362
20
-67.119497
30
0.0
10
36.279396
20
-67.119497
30
0.0
10
36.279396
20
-67.345554
30
0.0
10
35.897433
20
-67.345554
30
0.0
10
35.897433
20
-67.119497
30
0.0
10
35.751883
20
-67.119497
30
0.0
10
35.751883
20
-67.345554
30
0.0
10
35.733059
20
-67.345554
30
0.0
10
35.733059
20
-67.401702
30
0.0
10
35.332868
20
-67.401702
30
0.0
10
35.332868
20
-67.119497
30
0.0
10
35.187464
20
-67.119497
30
0.0
10
35.187464
20
-67.401702
30
0.0
10
35.069475
20
-67.401702
30
0.0
10
35.069475
20
-67.345554
30
0.0
10
34.768457
20
-67.345554
30
0.0
10
34.768457
20
-67.119497
30
0.0
10
34.622907
20
-67.119497
30
0.0
10
34.622907
20
-67.345554
30
0.0
10
34.204046
20
-67.345554
30
0.0
10
34.204046
20
-67.119497
30
0.0
10
34.058496
20
-67.119497
30
0.0
10
34.058496
20
-67.345554
30
0.0
10
34.039841
20
-67.345554
30
0.0
10
34.039841
20
-67.401702
30
0.0
10
33.639647
20
-67.401702
30
0.0
10
33.639647
20
-67.119497
30
0.0
10
33.494097
20
-67.119497
30
0.0
10
33.494097
20
-67.401702
30
0.0
10
33.376111
20
-67.401702
30
0.0
10
33.376111
20
-67.345554
30
0.0
10
33.075093
20
-67.345554
30
0.0
10
33.075093
20
-67.119497
30
0.0
10
32.929689
20
-67.119497
30
0.0
10
32.929689
20
-67.345554
30
0.0
10
32.510682
20
-67.345554
30
0.0
10
32.510682
20
-67.119497
30
0.0
10
32.365132
20
-67.119497
30
0.0
10
32.365132
20
-67.345554
30
0.0
10
32.346477
20
-67.345554
30
0.0
10
32.346477
20
-67.401702
30
0.0
10
31.946283
20
-67.401702
30
0.0
10
31.946283
20
-67.119497
30
0.0
10
31.800732
20
-67.119497
30
0.0
10
31.800732
20
-67.401702
30
0.0
10
31.682746
20
-67.401702
30
0.0
10
31.682746
20
-67.345554
30
0.0
10
31.381875
20
-67.345554
30
0.0
10
31.381875
20
-67.119497
30
0.0
10
31.236325
20
-67.119497
30
0.0
10
31.236325
20
-67.345554
30
0.0
10
30.817464
20
-67.345554
30
0.0
10
30.817464
20
-67.119497
30
0.0
10
30.671914
20
-67.119497
30
0.0
10
30.671914
20
-67.345554
30
0.0
10
30.653090
20
-67.345554
30
0.0
10
30.653090
20
-67.627760
30
0.0
10
29.989509
20
-67.627760
30
0.0
10
29.989509
20
-67.345554
30
0.0
10
28.959861
20
-67.345554
30
0.0
10
28.959861
20
-67.627760
30
0.0
10
28.296715
20
-67.627760
30
0.0
10
28.296715
20
-65.835211
30
0.0
10
28.959861
20
-65.835211
30
0.0
10
28.959861
20
-66.117414
30
0.0
10
29.989509
20
-66.117414
30
0.0
10
29.989509
20
-65.835211
30
0.0
10
30.653090
20
-65.835211
30
0.0
10
30.653090
20
-66.117414
30
0.0
10
30.671914
20
-66.117414
30
0.0
10
30.671914
20
-66.343324
30
0.0
10
30.817464
20
-66.343324
30
0.0
10
30.817464
20
-66.117414
30
0.0
10
31.236325
20
-66.117414
30
0.0
10
31.236325
20
-66.343324
30
0.0
10
31.381875
20
-66.343324
30
0.0
10
31.381875
20
-66.117414
30
0.0
10
31.647598
20
-66.117414
30
0.0
10
31.682746
20
-66.117414
30
0.0
10
31.800732
20
-66.117414
30
0.0
10
31.800732
20
-66.343324
30
0.0
10
31.946283
20
-66.343324
30
0.0
10
31.946283
20
-66.117414
30
0.0
10
32.346477
20
-66.117414
30
0.0
10
32.365132
20
-66.117414
30
0.0
10
32.365132
20
-66.343324
30
0.0
10
32.510682
20
-66.343324
30
0.0
10
32.510682
20
-66.117414
30
0.0
10
32.929689
20
-66.117414
30
0.0
10
32.929689
20
-66.343324
30
0.0
10
33.075239
20
-66.343324
30
0.0
10
33.075239
20
-66.117414
30
0.0
10
33.340816
20
-66.117414
30
0.0
10
33.376111
20
-66.117414
30
0.0
10
33.494097
20
-66.117414
30
0.0
10
33.494097
20
-66.343324
30
0.0
10
33.639647
20
-66.343324
30
0.0
10
33.639647
20
-66.117414
30
0.0
10
34.039841
20
-66.117414
30
0.0
10
34.058496
20
-66.117414
30
0.0
10
34.058496
20
-66.343324
30
0.0
10
34.204046
20
-66.343324
30
0.0
10
34.204046
20
-66.117414
30
0.0
10
34.622907
20
-66.117414
30
0.0
10
34.622907
20
-66.343324
30
0.0
10
34.768457
20
-66.343324
30
0.0
10
34.768457
20
-66.117414
30
0.0
10
35.034183
20
-66.117414
30
0.0
10
35.069475
20
-66.117414
30
0.0
10
35.187464
20
-66.117414
30
0.0
10
35.187464
20
-66.343324
30
0.0
10
35.332868
20
-66.343324
30
0.0
10
35.332868
20
-66.117414
30
0.0
10
35.733059
20
-66.117414
30
0.0
10
35.751883
20
-66.117414
30
0.0
10
35.751883
20
-66.343324
30
0.0
10
35.897433
20
-66.343324
30
0.0
10
35.897433
20
-66.117414
30
0.0
10
36.279396
20
-66.117414
30
0.0
10
36.279396
20
-66.343324
30
0.0
10
36.424362
20
-66.343324
30
0.0
10
36.424362
20
-66.117414
30
0.0
10
36.727570
20
-66.117414
30
0.0
10
36.762862
20
-66.117414
30
0.0
10
36.843806
20
-66.117414
30
0.0
10
36.843806
20
-66.343324
30
0.0
10
36.988773
20
-66.343324
30
0.0
10
36.988773
20
-66.117414
30
0.0
10
37.408214
20
-66.117414
30
0.0
10
37.408214
20
-66.343324
30
0.0
10
37.553183
20
-66.343324
30
0.0
10
37.553183
20
-66.117414
30
0.0
10
37.972771
20
-66.117414
30
0.0
10
37.972771
20
-66.343324
30
0.0
10
38.117740
20
-66.343324
30
0.0
10
38.117740
20
-66.117414
30
0.0
10
38.537182
20
-66.117414
30
0.0
10
38.537182
20
-66.343324
30
0.0
10
38.682148
20
-66.343324
30
0.0
10
38.682148
20
-66.117414
30
0.0
10
39.101593
20
-66.117414
30
0.0
10
39.101593
20
-66.343324
30
0.0
10
39.246559
20
-66.343324
30
0.0
10
39.246559
20
-66.117414
30
0.0
10
39.666000
20
-66.117414
30
0.0
10
39.666000
20
-66.343324
30
0.0
10
39.810969
20
-66.343324
30
0.0
10
39.810969
20
-66.117414
30
0.0
10
40.230558
20
-66.117414
30
0.0
10
40.230558
20
-66.343324
30
0.0
10
40.375524
20
-66.343324
30
0.0
10
40.375524
20
-66.117414
30
0.0
10
40.794968
20
-66.117414
30
0.0
10
40.794968
20
-66.343324
30
0.0
10
40.939934
20
-66.343324
30
0.0
10
40.939934
20
-66.117414
30
0.0
10
41.359379
20
-66.117414
30
0.0
10
41.359379
20
-66.343324
30
0.0
10
41.504345
20
-66.343324
30
0.0
10
41.504345
20
-66.117414
30
0.0
10
41.960684
20
-66.117414
30
0.0
10
41.960684
20
-66.343324
30
0.0
10
42.106238
20
-66.343324
30
0.0
10
42.106238
20
-66.117414
30
0.0
10
42.525242
20
-66.117414
30
0.0
10
42.525242
20
-66.343324
30
0.0
10
42.670792
20
-66.343324
30
0.0
10
42.670792
20
-66.117414
30
0.0
10
43.089652
20
-66.117414
30
0.0
10
43.089652
20
-66.343324
30
0.0
10
43.235203
20
-66.343324
30
0.0
10
43.235203
20
-66.117414
30
0.0
10
43.654063
20
-66.117414
30
0.0
10
43.654063
20
-66.343324
30
0.0
10
43.799610
20
-66.343324
30
0.0
10
43.799610
20
-66.117414
30
0.0
10
44.218471
20
-66.117414
30
0.0
10
44.218471
20
-66.343324
30
0.0
10
44.364021
20
-66.343324
30
0.0
10
44.364021
20
-66.117414
30
0.0
10
44.783028
20
-66.117414
30
0.0
10
44.783028
20
-66.343324
30
0.0
10
44.928432
20
-66.343324
30
0.0
10
44.928432
20
-66.117414
30
0.0
10
45.347438
20
-66.117414
30
0.0
10
45.347438
20
-66.343324
30
0.0
10
45.492989
20
-66.343324
30
0.0
10
45.492989
20
-66.117414
30
0.0
10
45.911846
20
-66.117414
30
0.0
10
45.911846
20
-66.343324
30
0.0
10
46.057397
20
-66.343324
30
0.0
10
46.057397
20
-66.117414
30
0.0
10
46.476257
20
-66.117414
30
0.0
10
46.476257
20
-66.343324
30
0.0
10
46.621807
20
-66.343324
30
0.0
10
46.621807
20
-66.117414
30
0.0
10
47.040811
20
-66.117414
30
0.0
10
47.040811
20
-66.343324
30
0.0
10
47.186218
20
-66.343324
30
0.0
10
47.186218
20
-66.117414
30
0.0
10
47.568324
20
-66.117414
30
0.0
10
47.568324
20
-66.343324
30
0.0
10
47.713293
20
-66.343324
30
0.0
10
47.713293
20
-66.117414
30
0.0
10
47.960204
20
-66.117414
30
0.0
10
48.051647
20
-66.117414
30
0.0
10
48.051647
20
-65.933800
30
0.0
10
47.960204
20
-65.933800
30
0.0
10
37.609478
20
-65.933800
30
0.0
10
37.609478
20
-65.652179
30
0.0
10
36.579830
20
-65.652179
30
0.0
10
36.579830
20
-65.933800
30
0.0
10
35.916102
20
-65.933800
30
0.0
10
35.916102
20
-65.652179
30
0.0
10
34.885873
20
-65.652179
30
0.0
10
34.885873
20
-65.933800
30
0.0
10
34.222727
20
-65.933800
30
0.0
10
34.222727
20
-65.652179
30
0.0
10
33.193078
20
-65.652179
30
0.0
10
33.193078
20
-65.933800
30
0.0
10
32.529495
20
-65.933800
30
0.0
10
32.529495
20
-65.652179
30
0.0
10
31.499850
20
-65.652179
30
0.0
10
31.499850
20
-65.933800
30
0.0
10
30.836119
20
-65.933800
30
0.0
10
30.836119
20
-65.652179
30
0.0
10
29.806474
20
-65.652179
30
0.0
10
29.806474
20
-65.933800
30
0.0
10
29.142744
20
-65.933800
30
0.0
10
29.142744
20
-65.652179
30
0.0
10
28.113095
20
-65.652179
30
0.0
62
0
0
LWPOLYLINE
100
AcDbPolyline
8
Layer_1
90
6
70
0
10
30.954108
20
-66.272884
30
0.0
10
30.954108
20
-66.308176
30
0.0
10
30.954108
20
-67.190087
30
0.0
10
31.099658
20
-67.190087
30
0.0
10
31.099658
20
-66.272884
30
0.0
10
30.954108
20
-66.272884
30
0.0
62
0
0
LWPOLYLINE
100
AcDbPolyline
8
Layer_1
90
6
70
0
10
31.518516
20
-66.272884
30
0.0
10
31.518516
20
-66.308176
30
0.0
10
31.518516
20
-67.190087
30
0.0
10
31.664069
20
-67.190087
30
0.0
10
31.664069
20
-66.272884
30
0.0
10
31.518516
20
-66.272884
30
0.0
62
0
0
LWPOLYLINE
100
AcDbPolyline
8
Layer_1
90
6
70
0
10
32.082926
20
-66.272884
30
0.0
10
32.082926
20
-66.308176
30
0.0
10
32.082926
20
-67.190087
30
0.0
10
32.228477
20
-67.190087
30
0.0
10
32.228477
20
-66.272884
30
0.0
10
32.082926
20
-66.272884
30
0.0
62
0
0
LWPOLYLINE
100
AcDbPolyline
8
Layer_1
90
6
70
0
10
32.647484
20
-66.272884
30
0.0
10
32.647484
20
-66.308176
30
0.0
10
32.647484
20
-67.190087
30
0.0
10
32.792887
20
-67.190087
30
0.0
10
32.792887
20
-66.272884
30
0.0
10
32.647484
20
-66.272884
30
0.0
62
0
0
LWPOLYLINE
100
AcDbPolyline
8
Layer_1
90
6
70
0
10
33.211891
20
-66.272884
30
0.0
10
33.211891
20
-66.308176
30
0.0
10
33.211891
20
-67.190087
30
0.0
10
33.357445
20
-67.190087
30
0.0
10
33.357445
20
-66.272884
30
0.0
10
33.211891
20
-66.272884
30
0.0
62
0
0
LWPOLYLINE
100
AcDbPolyline
8
Layer_1
90
6
70
0
10
33.776302
20
-66.272884
30
0.0
10
33.776302
20
-66.308176
30
0.0
10
33.776302
20
-67.190087
30
0.0
10
33.921852
20
-67.190087
30
0.0
10
33.921852
20
-66.272884
30
0.0
10
33.776302
20
-66.272884
30
0.0
62
0
0
LWPOLYLINE
100
AcDbPolyline
8
Layer_1
90
6
70
0
10
34.340713
20
-66.272884
30
0.0
10
34.340713
20
-66.308176
30
0.0
10
34.340713
20
-67.190087
30
0.0
10
34.486263
20
-67.190087
30
0.0
10
34.486263
20
-66.272884
30
0.0
10
34.340713
20
-66.272884
30
0.0
62
0
0
LWPOLYLINE
100
AcDbPolyline
8
Layer_1
90
6
70
0
10
34.905270
20
-66.272884
30
0.0
10
34.905270
20
-66.308176
30
0.0
10
34.905270
20
-67.190087
30
0.0
10
35.050674
20
-67.190087
30
0.0
10
35.050674
20
-66.272884
30
0.0
10
34.905270
20
-66.272884
30
0.0
62
0
0
LWPOLYLINE
100
AcDbPolyline
8
Layer_1
90
6
70
0
10
35.469680
20
-66.272884
30
0.0
10
35.469680
20
-66.308176
30
0.0
10
35.469680
20
-67.190087
30
0.0
10
35.615228
20
-67.190087
30
0.0
10
35.615228
20
-66.272884
30
0.0
10
35.469680
20
-66.272884
30
0.0
62
0
0
LWPOLYLINE
100
AcDbPolyline
8
Layer_1
90
6
70
0
10
36.034088
20
-66.272884
30
0.0
10
36.034088
20
-66.308176
30
0.0
10
36.034088
20
-67.190087
30
0.0
10
36.179639
20
-67.190087
30
0.0
10
36.179639
20
-66.272884
30
0.0
10
36.034088
20
-66.272884
30
0.0
62
0
0
LWPOLYLINE
100
AcDbPolyline
8
Layer_1
90
6
70
0
10
36.561601
20
-66.272884
30
0.0
10
36.561601
20
-66.308176
30
0.0
10
36.561601
20
-67.190087
30
0.0
10
36.706567
20
-67.190087
30
0.0
10
36.706567
20
-66.272884
30
0.0
10
36.561601
20
-66.272884
30
0.0
62
0
0
LWPOLYLINE
100
AcDbPolyline
8
Layer_1
90
6
70
0
10
37.126012
20
-66.272884
30
0.0
10
37.126012
20
-66.308176
30
0.0
10
37.126012
20
-67.190087
30
0.0
10
37.270978
20
-67.190087
30
0.0
10
37.270978
20
-66.272884
30
0.0
10
37.126012
20
-66.272884
30
0.0
62
0
0
LWPOLYLINE
100
AcDbPolyline
8
Layer_1
90
6
70
0
10
37.690419
20
-66.272884
30
0.0
10
37.690419
20
-66.308176
30
0.0
10
37.690419
20
-67.190087
30
0.0
10
37.835388
20
-67.190087
30
0.0
10
37.835388
20
-66.272884
30
0.0
10
37.690419
20
-66.272884
30
0.0
62
0
0
LWPOLYLINE
100
AcDbPolyline
8
Layer_1
90
6
70
0
10
38.254977
20
-66.272884
30
0.0
10
38.254977
20
-66.308176
30
0.0
10
38.254977
20
-67.190087
30
0.0
10
38.399943
20
-67.190087
30
0.0
10
38.399943
20
-66.272884
30
0.0
10
38.254977
20
-66.272884
30
0.0
62
0
0
LWPOLYLINE
100
AcDbPolyline
8
Layer_1
90
6
70
0
10
38.819387
20
-66.272884
30
0.0
10
38.819387
20
-66.308176
30
0.0
10
38.819387
20
-67.190087
30
0.0
10
38.964354
20
-67.190087
30
0.0
10
38.964354
20
-66.272884
30
0.0
10
38.819387
20
-66.272884
30
0.0
62
0
0
LWPOLYLINE
100
AcDbPolyline
8
Layer_1
90
6
70
0
10
39.383798
20
-66.272884
30
0.0
10
39.383798
20
-66.308176
30
0.0
10
39.383798
20
-67.190087
30
0.0
10
39.528764
20
-67.190087
30
0.0
10
39.528764
20
-66.272884
30
0.0
10
39.383798
20
-66.272884
30
0.0
62
0
0
LWPOLYLINE
100
AcDbPolyline
8
Layer_1
90
6
70
0
10
39.948206
20
-66.272884
30
0.0
10
39.948206
20
-66.308176
30
0.0
10
39.948206
20
-67.190087
30
0.0
10
40.093175
20
-67.190087
30
0.0
10
40.093175
20
-66.272884
30
0.0
10
39.948206
20
-66.272884
30
0.0
62
0
0
LWPOLYLINE
100
AcDbPolyline
8
Layer_1
90
6
70
0
10
40.512763
20
-66.272884
30
0.0
10
40.512763
20
-66.308176
30
0.0
10
40.512763
20
-67.190087
30
0.0
10
40.657729
20
-67.190087
30
0.0
10
40.657729
20
-66.272884
30
0.0
10
40.512763
20
-66.272884
30
0.0
62
0
0
LWPOLYLINE
100
AcDbPolyline
8
Layer_1
90
6
70
0
10
41.077174
20
-66.272884
30
0.0
10
41.077174
20
-66.308176
30
0.0
10
41.077174
20
-67.190087
30
0.0
10
41.222140
20
-67.190087
30
0.0
10
41.222140
20
-66.272884
30
0.0
10
41.077174
20
-66.272884
30
0.0
62
0
0
LWPOLYLINE
100
AcDbPolyline
8
Layer_1
90
6
70
0
10
41.641581
20
-66.272884
30
0.0
10
41.641581
20
-66.308176
30
0.0
10
41.641581
20
-67.190087
30
0.0
10
41.786550
20
-67.190087
30
0.0
10
41.786550
20
-66.272884
30
0.0
10
41.641581
20
-66.272884
30
0.0
62
0
0
LWPOLYLINE
100
AcDbPolyline
8
Layer_1
90
6
70
0
10
42.243036
20
-66.272884
30
0.0
10
42.243036
20
-66.308176
30
0.0
10
42.243036
20
-67.190087
30
0.0
10
42.388440
20
-67.190087
30
0.0
10
42.388440
20
-66.272884
30
0.0
10
42.243036
20
-66.272884
30
0.0
62
0
0
LWPOLYLINE
100
AcDbPolyline
8
Layer_1
90
6
70
0
10
42.807447
20
-66.272884
30
0.0
10
42.807447
20
-66.308176
30
0.0
10
42.807447
20
-67.190087
30
0.0
10
42.952997
20
-67.190087
30
0.0
10
42.952997
20
-66.272884
30
0.0
10
42.807447
20
-66.272884
30
0.0
62
0
0
LWPOLYLINE
100
AcDbPolyline
8
Layer_1
90
6
70
0
10
43.371857
20
-66.272884
30
0.0
10
43.371857
20
-66.308176
30
0.0
10
43.371857
20
-67.190087
30
0.0
10
43.517408
20
-67.190087
30
0.0
10
43.517408
20
-66.272884
30
0.0
10
43.371857
20
-66.272884
30
0.0
62
0
0
LWPOLYLINE
100
AcDbPolyline
8
Layer_1
90
6
70
0
10
43.936265
20
-66.272884
30
0.0
10
43.936265
20
-66.308176
30
0.0
10
43.936265
20
-67.190087
30
0.0
10
44.081816
20
-67.190087
30
0.0
10
44.081816
20
-66.272884
30
0.0
10
43.936265
20
-66.272884
30
0.0
62
0
0
LWPOLYLINE
100
AcDbPolyline
8
Layer_1
90
6
70
0
10
44.500823
20
-66.272884
30
0.0
10
44.500823
20
-66.308176
30
0.0
10
44.500823
20
-67.190087
30
0.0
10
44.646226
20
-67.190087
30
0.0
10
44.646226
20
-66.272884
30
0.0
10
44.500823
20
-66.272884
30
0.0
62
0
0
LWPOLYLINE
100
AcDbPolyline
8
Layer_1
90
6
70
0
10
45.065233
20
-66.272884
30
0.0
10
45.065233
20
-66.308176
30
0.0
10
45.065233
20
-67.190087
30
0.0
10
45.210784
20
-67.190087
30
0.0
10
45.210784
20
-66.272884
30
0.0
10
45.065233
20
-66.272884
30
0.0
62
0
0
LWPOLYLINE
100
AcDbPolyline
8
Layer_1
90
6
70
0
10
45.629644
20
-66.272884
30
0.0
10
45.629644
20
-66.308176
30
0.0
10
45.629644
20
-67.190087
30
0.0
10
45.775191
20
-67.190087
30
0.0
10
45.775191
20
-66.272884
30
0.0
10
45.629644
20
-66.272884
30
0.0
62
0
0
LWPOLYLINE
100
AcDbPolyline
8
Layer_1
90
6
70
0
10
46.194051
20
-66.272884
30
0.0
10
46.194051
20
-66.308176
30
0.0
10
46.194051
20
-67.190087
30
0.0
10
46.339602
20
-67.190087
30
0.0
10
46.339602
20
-66.272884
30
0.0
10
46.194051
20
-66.272884
30
0.0
62
0
0
LWPOLYLINE
100
AcDbPolyline
8
Layer_1
90
6
70
0
10
46.758462
20
-66.272884
30
0.0
10
46.758462
20
-66.308176
30
0.0
10
46.758462
20
-67.190087
30
0.0
10
46.904013
20
-67.190087
30
0.0
10
46.904013
20
-66.272884
30
0.0
10
46.758462
20
-66.272884
30
0.0
62
0
0
LWPOLYLINE
100
AcDbPolyline
8
Layer_1
90
6
70
0
10
47.323017
20
-66.272884
30
0.0
10
47.323017
20
-66.308176
30
0.0
10
47.323017
20
-67.190087
30
0.0
10
47.468570
20
-67.190087
30
0.0
10
47.468570
20
-66.272884
30
0.0
10
47.323017
20
-66.272884
30
0.0
62
0
0
LWPOLYLINE
100
AcDbPolyline
8
Layer_1
90
6
70
0
10
47.850529
20
-66.272884
30
0.0
10
47.850529
20
-66.308176
30
0.0
10
47.850529
20
-67.190087
30
0.0
10
47.995499
20
-67.190087
30
0.0
10
47.995499
20
-66.272884
30
0.0
10
47.850529
20
-66.272884
30
0.0
62
0
0
LWPOLYLINE
100
AcDbPolyline
8
Layer_1
90
6
70
0
10
30.671903
20
-66.555087
30
0.0
10
30.671903
20
-66.590381
30
0.0
10
30.671903
20
-66.907881
30
0.0
10
30.817453
20
-66.907881
30
0.0
10
30.817453
20
-66.555087
30
0.0
10
30.671903
20
-66.555087
30
0.0
62
0
0
LWPOLYLINE
100
AcDbPolyline
8
Layer_1
90
6
70
0
10
31.236313
20
-66.555087
30
0.0
10
31.236313
20
-66.590381
30
0.0
10
31.236313
20
-66.907881
30
0.0
10
31.381864
20
-66.907881
30
0.0
10
31.381864
20
-66.555087
30
0.0
10
31.236313
20
-66.555087
30
0.0
62
0
0
LWPOLYLINE
100
AcDbPolyline
8
Layer_1
90
6
70
0
10
31.800721
20
-66.555087
30
0.0
10
31.800721
20
-66.590381
30
0.0
10
31.800721
20
-66.907881
30
0.0
10
31.946271
20
-66.907881
30
0.0
10
31.946271
20
-66.555087
30
0.0
10
31.800721
20
-66.555087
30
0.0
62
0
0
LWPOLYLINE
100
AcDbPolyline
8
Layer_1
90
6
70
0
10
32.365132
20
-66.555087
30
0.0
10
32.365132
20
-66.590381
30
0.0
10
32.365132
20
-66.907881
30
0.0
10
32.510682
20
-66.907881
30
0.0
10
32.510682
20
-66.555087
30
0.0
10
32.365132
20
-66.555087
30
0.0
62
0
0
LWPOLYLINE
100
AcDbPolyline
8
Layer_1
90
6
70
0
10
32.929689
20
-66.555087
30
0.0
10
32.929689
20
-66.590381
30
0.0
10
32.929689
20
-66.907881
30
0.0
10
33.075093
20
-66.907881
30
0.0
10
33.075093
20
-66.555087
30
0.0
10
32.929689
20
-66.555087
30
0.0
62
0
0
LWPOLYLINE
100
AcDbPolyline
8
Layer_1
90
6
70
0
10
33.494097
20
-66.555087
30
0.0
10
33.494097
20
-66.590381
30
0.0
10
33.494097
20
-66.907881
30
0.0
10
33.639647
20
-66.907881
30
0.0
10
33.639647
20
-66.555087
30
0.0
10
33.494097
20
-66.555087
30
0.0
62
0
0
LWPOLYLINE
100
AcDbPolyline
8
Layer_1
90
6
70
0
10
34.058507
20
-66.555087
30
0.0
10
34.058507
20
-66.590381
30
0.0
10
34.058507
20
-66.907881
30
0.0
10
34.204058
20
-66.907881
30
0.0
10
34.204058
20
-66.555087
30
0.0
10
34.058507
20
-66.555087
30
0.0
62
0
0
LWPOLYLINE
100
AcDbPolyline
8
Layer_1
90
6
70
0
10
34.622918
20
-66.555087
30
0.0
10
34.622918
20
-66.590381
30
0.0
10
34.622918
20
-66.907881
30
0.0
10
34.768468
20
-66.907881
30
0.0
10
34.768468
20
-66.555087
30
0.0
10
34.622918
20
-66.555087
30
0.0
62
0
0
LWPOLYLINE
100
AcDbPolyline
8
Layer_1
90
6
70
0
10
35.187475
20
-66.555087
30
0.0
10
35.187475
20
-66.590381
30
0.0
10
35.187475
20
-66.907881
30
0.0
10
35.332879
20
-66.907881
30
0.0
10
35.332879
20
-66.555087
30
0.0
10
35.187475
20
-66.555087
30
0.0
62
0
0
LWPOLYLINE
100
AcDbPolyline
8
Layer_1
90
6
70
0
10
35.751883
20
-66.555087
30
0.0
10
35.751883
20
-66.590381
30
0.0
10
35.751883
20
-66.907881
30
0.0
10
35.897433
20
-66.907881
30
0.0
10
35.897433
20
-66.555087
30
0.0
10
35.751883
20
-66.555087
30
0.0
62
0
0
LWPOLYLINE
100
AcDbPolyline
8
Layer_1
90
6
70
0
10
36.279396
20
-66.555087
30
0.0
10
36.279396
20
-66.590381
30
0.0
10
36.279396
20
-66.907881
30
0.0
10
36.424362
20
-66.907881
30
0.0
10
36.424362
20
-66.555087
30
0.0
10
36.279396
20
-66.555087
30
0.0
62
0
0
LWPOLYLINE
100
AcDbPolyline
8
Layer_1
90
6
70
0
10
36.843806
20
-66.555087
30
0.0
10
36.843806
20
-66.590381
30
0.0
10
36.843806
20
-66.907881
30
0.0
10
36.988773
20
-66.907881
30
0.0
10
36.988773
20
-66.555087
30
0.0
10
36.843806
20
-66.555087
30
0.0
62
0
0
LWPOLYLINE
100
AcDbPolyline
8
Layer_1
90
6
70
0
10
37.408214
20
-66.555087
30
0.0
10
37.408214
20
-66.590381
30
0.0
10
37.408214
20
-66.907881
30
0.0
10
37.553183
20
-66.907881
30
0.0
10
37.553183
20
-66.555087
30
0.0
10
37.408214
20
-66.555087
30
0.0
62
0
0
LWPOLYLINE
100
AcDbPolyline
8
Layer_1
90
6
70
0
10
37.972771
20
-66.555087
30
0.0
10
37.972771
20
-66.590381
30
0.0
10
37.972771
20
-66.907881
30
0.0
10
38.117740
20
-66.907881
30
0.0
10
38.117740
20
-66.555087
30
0.0
10
37.972771
20
-66.555087
30
0.0
62
0
0
LWPOLYLINE
100
AcDbPolyline
8
Layer_1
90
6
70
0
10
38.537182
20
-66.555087
30
0.0
10
38.537182
20
-66.590381
30
0.0
10
38.537182
20
-66.907881
30
0.0
10
38.682148
20
-66.907881
30
0.0
10
38.682148
20
-66.555087
30
0.0
10
38.537182
20
-66.555087
30
0.0
62
0
0
LWPOLYLINE
100
AcDbPolyline
8
Layer_1
90
6
70
0
10
39.101593
20
-66.555087
30
0.0
10
39.101593
20
-66.590381
30
0.0
10
39.101593
20
-66.907881
30
0.0
10
39.246559
20
-66.907881
30
0.0
10
39.246559
20
-66.555087
30
0.0
10
39.101593
20
-66.555087
30
0.0
62
0
0
LWPOLYLINE
100
AcDbPolyline
8
Layer_1
90
6
70
0
10
39.666000
20
-66.555087
30
0.0
10
39.666000
20
-66.590381
30
0.0
10
39.666000
20
-66.907881
30
0.0
10
39.810969
20
-66.907881
30
0.0
10
39.810969
20
-66.555087
30
0.0
10
39.666000
20
-66.555087
30
0.0
62
0
0
LWPOLYLINE
100
AcDbPolyline
8
Layer_1
90
6
70
0
10
40.230558
20
-66.555087
30
0.0
10
40.230558
20
-66.590381
30
0.0
10
40.230558
20
-66.907881
30
0.0
10
40.375524
20
-66.907881
30
0.0
10
40.375524
20
-66.555087
30
0.0
10
40.230558
20
-66.555087
30
0.0
62
0
0
LWPOLYLINE
100
AcDbPolyline
8
Layer_1
90
6
70
0
10
40.794968
20
-66.555087
30
0.0
10
40.794968
20
-66.590381
30
0.0
10
40.794968
20
-66.907881
30
0.0
10
40.939934
20
-66.907881
30
0.0
10
40.939934
20
-66.555087
30
0.0
10
40.794968
20
-66.555087
30
0.0
62
0
0
LWPOLYLINE
100
AcDbPolyline
8
Layer_1
90
6
70
0
10
41.359379
20
-66.555087
30
0.0
10
41.359379
20
-66.590381
30
0.0
10
41.359379
20
-66.907881
30
0.0
10
41.504345
20
-66.907881
30
0.0
10
41.504345
20
-66.555087
30
0.0
10
41.359379
20
-66.555087
30
0.0
62
0
0
LWPOLYLINE
100
AcDbPolyline
8
Layer_1
90
6
70
0
10
41.960684
20
-66.555087
30
0.0
10
41.960684
20
-66.590381
30
0.0
10
41.960684
20
-66.907881
30
0.0
10
42.106238
20
-66.907881
30
0.0
10
42.106238
20
-66.555087
30
0.0
10
41.960684
20
-66.555087
30
0.0
62
0
0
LWPOLYLINE
100
AcDbPolyline
8
Layer_1
90
6
70
0
10
42.525242
20
-66.555087
30
0.0
10
42.525242
20
-66.590381
30
0.0
10
42.525242
20
-66.907881
30
0.0
10
42.670792
20
-66.907881
30
0.0
10
42.670792
20
-66.555087
30
0.0
10
42.525242
20
-66.555087
30
0.0
62
0
0
LWPOLYLINE
100
AcDbPolyline
8
Layer_1
90
6
70
0
10
43.089652
20
-66.555087
30
0.0
10
43.089652
20
-66.590381
30
0.0
10
43.089652
20
-66.907881
30
0.0
10
43.235203
20
-66.907881
30
0.0
10
43.235203
20
-66.555087
30
0.0
10
43.089652
20
-66.555087
30
0.0
62
0
0
LWPOLYLINE
100
AcDbPolyline
8
Layer_1
90
6
70
0
10
43.654063
20
-66.555087
30
0.0
10
43.654063
20
-66.590381
30
0.0
10
43.654063
20
-66.907881
30
0.0
10
43.799610
20
-66.907881
30
0.0
10
43.799610
20
-66.555087
30
0.0
10
43.654063
20
-66.555087
30
0.0
62
0
0
LWPOLYLINE
100
AcDbPolyline
8
Layer_1
90
6
70
0
10
44.218471
20
-66.555087
30
0.0
10
44.218471
20
-66.590381
30
0.0
10
44.218471
20
-66.907881
30
0.0
10
44.364021
20
-66.907881
30
0.0
10
44.364021
20
-66.555087
30
0.0
10
44.218471
20
-66.555087
30
0.0
62
0
0
LWPOLYLINE
100
AcDbPolyline
8
Layer_1
90
6
70
0
10
44.783028
20
-66.555087
30
0.0
10
44.783028
20
-66.590381
30
0.0
10
44.783028
20
-66.907881
30
0.0
10
44.928432
20
-66.907881
30
0.0
10
44.928432
20
-66.555087
30
0.0
10
44.783028
20
-66.555087
30
0.0
62
0
0
LWPOLYLINE
100
AcDbPolyline
8
Layer_1
90
6
70
0
10
45.347438
20
-66.555087
30
0.0
10
45.347438
20
-66.590381
30
0.0
10
45.347438
20
-66.907881
30
0.0
10
45.492989
20
-66.907881
30
0.0
10
45.492989
20
-66.555087
30
0.0
10
45.347438
20
-66.555087
30
0.0
62
0
0
LWPOLYLINE
100
AcDbPolyline
8
Layer_1
90
6
70
0
10
45.911846
20
-66.555087
30
0.0
10
45.911846
20
-66.590381
30
0.0
10
45.911846
20
-66.907881
30
0.0
10
46.057397
20
-66.907881
30
0.0
10
46.057397
20
-66.555087
30
0.0
10
45.911846
20
-66.555087
30
0.0
62
0
0
LWPOLYLINE
100
AcDbPolyline
8
Layer_1
90
6
70
0
10
46.476257
20
-66.555087
30
0.0
10
46.476257
20
-66.590381
30
0.0
10
46.476257
20
-66.907881
30
0.0
10
46.621807
20
-66.907881
30
0.0
10
46.621807
20
-66.555087
30
0.0
10
46.476257
20
-66.555087
30
0.0
62
0
0
LWPOLYLINE
100
AcDbPolyline
8
Layer_1
90
6
70
0
10
47.040811
20
-66.555087
30
0.0
10
47.040811
20
-66.590381
30
0.0
10
47.040811
20
-66.907881
30
0.0
10
47.186218
20
-66.907881
30
0.0
10
47.186218
20
-66.555087
30
0.0
10
47.040811
20
-66.555087
30
0.0
62
0
0
LWPOLYLINE
100
AcDbPolyline
8
Layer_1
90
6
70
0
10
47.568324
20
-66.555087
30
0.0
10
47.568324
20
-66.590381
30
0.0
10
47.568324
20
-66.907881
30
0.0
10
47.713293
20
-66.907881
30
0.0
10
47.713293
20
-66.555087
30
0.0
10
47.568324
20
-66.555087
30
0.0
62
0
0
LWPOLYLINE
100
AcDbPolyline
8
Layer_1
90
5
70
0
10
26.758220
20
-67.633737
30
0.0
10
26.758220
20
-67.719202
30
0.0
10
26.758220
20
-68.318905
30
0.0
10
27.442804
20
-68.318905
30
0.0
10
26.758220
20
-67.633737
30
0.0
62
0
0
LWPOLYLINE
100
AcDbPolyline
8
Layer_1
90
5
70
0
10
50.817693
20
-67.633737
30
0.0
10
50.757605
20
-67.694406
30
0.0
10
50.133109
20
-68.318905
30
0.0
10
50.817693
20
-68.318905
30
0.0
10
50.817693
20
-67.633737
30
0.0
  0
ENDSEC
  0
SECTION
  2
OBJECTS
  0
DICTIONARY
  5
C
330
0
100
AcDbDictionary
  3
ACAD_GROUP
350
D
  3
ACAD_MLINESTYLE
350
17
  0
DICTIONARY
  5
D
330
C
100
AcDbDictionary
  0
DICTIONARY
  5
1A
330
C
100
AcDbDictionary
  0
DICTIONARY
  5
17
330
C
100
AcDbDictionary
  3
STANDARD
350
18
  0
DICTIONARY
  5
19
330
C
100
AcDbDictionary
  0
ENDSEC
  0
EOF
