<?xml version="1.0" encoding="UTF-8" standalone="no"?>
<!-- Created with Inkscape (http://www.inkscape.org/) -->

<svg
   xmlns:dc="http://purl.org/dc/elements/1.1/"
   xmlns:cc="http://creativecommons.org/ns#"
   xmlns:rdf="http://www.w3.org/1999/02/22-rdf-syntax-ns#"
   xmlns:svg="http://www.w3.org/2000/svg"
   xmlns="http://www.w3.org/2000/svg"
   xmlns:sodipodi="http://sodipodi.sourceforge.net/DTD/sodipodi-0.dtd"
   xmlns:inkscape="http://www.inkscape.org/namespaces/inkscape"
   width="3200"
   height="1000"
   id="svg27345"
   version="1.1"
   inkscape:version="0.47 r22583"
   sodipodi:docname="jackolantern.svg">
  <sodipodi:namedview
     id="base"
     pagecolor="#ffffff"
     bordercolor="#666666"
     borderopacity="1.0"
     inkscape:pageopacity="0.0"
     inkscape:pageshadow="2"
     inkscape:zoom="0.30553029"
     inkscape:cx="2376.6867"
     inkscape:cy="371.22486"
     inkscape:document-units="px"
     inkscape:current-layer="layer1"
     showgrid="false"
     inkscape:window-width="1676"
     inkscape:window-height="1006"
     inkscape:window-x="0"
     inkscape:window-y="0"
     inkscape:window-maximized="1" />
  <defs
     id="defs27347">
    <inkscape:perspective
       id="perspective27353"
       inkscape:persp3d-origin="372.04724 : 350.78739 : 1"
       inkscape:vp_z="744.09448 : 526.18109 : 1"
       inkscape:vp_y="0 : 1000 : 0"
       inkscape:vp_x="0 : 526.18109 : 1"
       sodipodi:type="inkscape:persp3d" />
  </defs>
  <metadata
     id="metadata27350">
    <rdf:RDF>
      <cc:Work
         rdf:about="">
        <dc:format>image/svg+xml</dc:format>
        <dc:type
           rdf:resource="http://purl.org/dc/dcmitype/StillImage" />
        <dc:title></dc:title>
      </cc:Work>
    </rdf:RDF>
  </metadata>
  <g
     transform="translate(0,-52.36218)"
     id="layer1"
     inkscape:groupmode="layer"
     inkscape:label="Layer 1">
    <g
       id="g4753"
       transform="matrix(0.98748854,0,0,0.98748854,19.301663,-78.494621)">
      <path
         transform="translate(0,52.36218)"
         id="path4733"
         d="m 1298.0127,281.83722 -76.2494,145.4058 159.5918,1.77324 -83.3424,-147.17904 z"
         style="fill:none;stroke:#000000;stroke-width:1.01266992px;stroke-linecap:butt;stroke-linejoin:miter;stroke-opacity:1" />
      <path
         sodipodi:nodetypes="cccc"
         transform="translate(0,52.36218)"
         id="path4735"
         d="m 1750.1893,283.61046 -88.6621,136.53959 185.7824,0.41243 -97.1203,-136.95202 z"
         style="fill:none;stroke:#000000;stroke-width:1.01266992px;stroke-linecap:butt;stroke-linejoin:miter;stroke-opacity:1" />
      <path
         sodipodi:nodetypes="cccc"
         transform="translate(0,52.36218)"
         id="path4737"
         d="m 1528.5341,434.33598 -47.8775,72.7029 87.5703,0.40803 -39.6928,-73.11093 z"
         style="fill:none;stroke:#000000;stroke-width:1.01266992px;stroke-linecap:butt;stroke-linejoin:miter;stroke-opacity:1" />
      <path
         sodipodi:nodetypes="czzzczccczccczc"
         transform="translate(0,52.36218)"
         id="path4739"
         d="m 1134.8745,583.28826 c 0,0 91.2952,69.00107 166.6847,90.43532 75.3895,21.43425 194.0387,19.98759 280.1722,15.95917 86.1335,-4.02842 172.2432,-12.74895 234.0678,-35.46483 61.8246,-22.71588 134.7664,-83.34235 134.7664,-83.34235 0,0 -31.9045,125.26088 -65.4776,161.91636 -33.5731,36.65548 -110.0733,56.19234 -110.0733,56.19234 l -31.9184,-62.06345 -37.238,74.47614 c 0,0 -108.9211,11.51275 -156.9151,11.79662 -47.994,0.28387 -130.3501,-8.25014 -130.3501,-8.25014 l -28.3718,-78.02262 -51.9754,74.74522 c 0,0 -61.4303,-29.14142 -97.5338,-64.60936 -36.1035,-35.46794 -105.8376,-153.76842 -105.8376,-153.76842 z"
         style="fill:none;stroke:#000000;stroke-width:1.01266992px;stroke-linecap:butt;stroke-linejoin:miter;stroke-opacity:1" />
      <path
         transform="translate(0,52.36218)"
         id="path4741"
         d="m 1230.6472,420.67938 67.0965,-124.37392 66.2782,123.55567 -119.4645,-2.45475 49.9133,-102.28118 47.4584,89.18919 -80.1884,4.09125 30.2752,-73.64246 27.8205,59.73221 -42.549,3.273 14.7285,-45.82197 0.8183,30.27523"
         style="fill:none;stroke:#000000;stroke-width:1.01266992px;stroke-linecap:butt;stroke-linejoin:miter;stroke-opacity:1" />
      <path
         transform="translate(0,52.36218)"
         id="path4743"
         d="m 1677.4114,412.49688 72.006,-112.10017 84.2797,112.91842 -145.6484,-0.81825 60.5504,-94.09869 67.0965,85.09795 -110.4637,2.45475 44.1855,-74.4607 50.7314,65.45995 -83.4614,2.45475 31.9117,-50.73147 33.5482,37.63948 -49.9132,3.273 13.9103,-24.54749 13.9102,13.91024 -14.7285,0.81825"
         style="fill:none;stroke:#000000;stroke-width:1.01266992px;stroke-linecap:butt;stroke-linejoin:miter;stroke-opacity:1" />
      <path
         transform="translate(0,52.36218)"
         id="path4745"
         d="m 1140.6398,590.87527 36.8212,28.63873 96.5534,51.54971 84.2797,18.81974 71.1877,5.72775 136.6477,0 123.5556,-8.1825 81.0067,-14.72849 69.5513,-20.45623 34.3664,-20.45624 66.2782,-48.27672 -35.1847,103.91768 -24.5475,42.54898 -55.6409,36.00297 -46.6403,12.27374 -39.2759,-63.82345 -39.276,78.55194 -133.3747,10.63725 -79.3702,0.81825 -65.4599,-4.9095 -30.2753,-81.82495 -55.6409,76.0972 -62.187,-36.82122 -54.0044,-53.18622 -66.2783,-95.73518 78.552,49.09496 36.8212,20.45624 116.1914,19.63799 153.0127,4.90949 157.9221,-9.00074 112.1002,-23.72923 45.822,-18.00149 77.7337,-53.18622 -36.8212,96.55344 -19.638,33.54823 -58.0957,34.36647 -35.1848,3.273 -43.3672,-60.55046 -45.0037,80.18845 -117.0097,12.27374 -153.8309,-6.54599 -31.0935,-82.6432 -57.2774,73.64245 -69.5512,-40.91247 -45.0037,-51.54972 -46.6403,-60.55046 80.1885,49.09497 22.911,9.81899 110.4636,14.72849 136.6477,4.09125 154.6492,-6.54599 40.9124,-5.72775 85.098,-17.18324 49.9132,-19.63799 65.4599,-46.64022 -45.0037,110.46368 -58.9139,36.82123 -31.9118,-5.72775 -45.0037,-56.45921 69.5512,-13.09199 52.368,-20.45624 45.0037,-34.36648 -38.4577,88.37094 -54.0045,35.18473 -27.0022,-10.63724 -37.6395,-42.54897 63.0052,-10.63725 40.0942,-14.72849 22.0928,-14.72849 13.9102,-8.18249 -26.184,62.18696 -53.1862,28.63873 -21.2745,-10.63724 -26.1839,-27.00224 55.6409,-9.00074 39.276,-15.54674 16.365,-14.72849 -15.5468,41.73072 -48.2767,25.36573 -22.0927,-9.00074 -11.4555,-15.54674 45.822,-7.36424 30.2752,-14.72849 7.3642,0 -4.9095,13.91024 -44.1854,23.72923 -18.0015,-4.9095 -4.0913,-5.72774 33.5483,-6.546 26.1839,-12.27374 -37.6394,22.91099"
         style="fill:none;stroke:#000000;stroke-width:1.01266992px;stroke-linecap:butt;stroke-linejoin:miter;stroke-opacity:1" />
      <path
         transform="translate(0,52.36218)"
         id="path4747"
         d="m 1331.2919,773.3449 -60.5505,-38.45773 -76.0972,-86.73444 69.5512,44.18547 51.5497,9.81899 62.187,6.546 -41.7307,55.64096 -60.5505,-37.63947 -46.6402,-49.91322 38.4577,25.36573 59.7322,5.72775 36.8213,4.9095 -27.0023,41.73072 -59.7322,-33.54823 -7.3642,-13.09199 77.7337,9.00074 -11.4555,30.27523 -49.9132,-28.63873 -5.7278,-5.72774 57.2775,7.36424 -4.9095,18.00149 -34.3665,-18.81974 32.73,7.36425"
         style="fill:none;stroke:#000000;stroke-width:1.01266992px;stroke-linecap:butt;stroke-linejoin:miter;stroke-opacity:1" />
      <path
         transform="translate(0,52.36218)"
         id="path4749"
         d="m 1397.5701,706.24844 29.457,74.4607 140.7389,12.27374 124.3739,-14.72849 40.0942,-76.0972 -159.5586,8.1825 -95.7352,1.6365 -68.733,-3.273 21.2745,65.45996 137.4659,14.72849 121.101,-13.91024 32.7299,-64.64171 -303.5705,3.273 18.0015,51.54971 126.8286,18.81974 121.9192,-13.09199 26.184,-54.82271 -283.1143,2.45474 13.092,40.91248 117.0096,18.00149 119.4645,-11.4555 22.0927,-43.36722 -261.0216,0.81825 8.1825,28.63873 109.6454,17.18324 116.1915,-9.81899 13.9102,-30.27523 -239.7471,0.81825 5.7278,14.72849 98.1899,17.18324 116.1914,-11.4555 4.9095,-15.54674 -211.9266,-0.81825 0,4.09125 90.8257,15.54674 109.6454,-11.45549 -106.3724,4.09125 -55.641,-5.72775 98.19,0"
         style="fill:none;stroke:#000000;stroke-width:1.01266992px;stroke-linecap:butt;stroke-linejoin:miter;stroke-opacity:1" />
      <path
         transform="translate(0,52.36218)"
         id="path4751"
         d="m 1526.0353,446.86336 -36.003,56.45921 63.8234,-3.27299 -21.2744,-43.36723 -5.7278,-1.63649 -25.3657,40.09422 40.9124,0 -12.2737,-34.36648 -19.638,30.27523 22.911,-1.6365 -4.9095,-18.00149 -9.0007,13.91025 5.7277,-0.81825"
         style="fill:none;stroke:#000000;stroke-width:1.01266992px;stroke-linecap:butt;stroke-linejoin:miter;stroke-opacity:1" />
    </g>
  </g>
</svg>
