<?xml version="1.0" encoding="UTF-8" standalone="no"?>
<!-- Created with Inkscape (http://www.inkscape.org/) -->

<svg
   xmlns:dc="http://purl.org/dc/elements/1.1/"
   xmlns:cc="http://creativecommons.org/ns#"
   xmlns:rdf="http://www.w3.org/1999/02/22-rdf-syntax-ns#"
   xmlns:svg="http://www.w3.org/2000/svg"
   xmlns="http://www.w3.org/2000/svg"
   xmlns:sodipodi="http://sodipodi.sourceforge.net/DTD/sodipodi-0.dtd"
   xmlns:inkscape="http://www.inkscape.org/namespaces/inkscape"
   width="3200"
   height="1000"
   id="svg27345"
   version="1.1"
   inkscape:version="0.47 r22583"
   sodipodi:docname="jackolantern2.svg">
  <sodipodi:namedview
     id="base"
     pagecolor="#ffffff"
     bordercolor="#666666"
     borderopacity="1.0"
     inkscape:pageopacity="0.0"
     inkscape:pageshadow="2"
     inkscape:zoom="0.72037054"
     inkscape:cx="1245.0378"
     inkscape:cy="515.49717"
     inkscape:document-units="px"
     inkscape:current-layer="layer1"
     showgrid="false"
     inkscape:window-width="1676"
     inkscape:window-height="1006"
     inkscape:window-x="0"
     inkscape:window-y="0"
     inkscape:window-maximized="1" />
  <defs
     id="defs27347">
    <inkscape:perspective
       id="perspective27353"
       inkscape:persp3d-origin="372.04724 : 350.78739 : 1"
       inkscape:vp_z="744.09448 : 526.18109 : 1"
       inkscape:vp_y="0 : 1000 : 0"
       inkscape:vp_x="0 : 526.18109 : 1"
       sodipodi:type="inkscape:persp3d" />
  </defs>
  <metadata
     id="metadata27350">
    <rdf:RDF>
      <cc:Work
         rdf:about="">
        <dc:format>image/svg+xml</dc:format>
        <dc:type
           rdf:resource="http://purl.org/dc/dcmitype/StillImage" />
        <dc:title></dc:title>
      </cc:Work>
    </rdf:RDF>
  </metadata>
  <g
     transform="translate(0,-52.36218)"
     id="layer1"
     inkscape:groupmode="layer"
     inkscape:label="Layer 1">
    <g
       transform="scale(1.0236123,0.97693241)"
       style="font-size:225.89817809999999554px;font-style:normal;font-variant:normal;font-weight:normal;font-stretch:normal;text-align:center;line-height:100%;writing-mode:lr-tb;text-anchor:middle;fill:none;fill-opacity:1;stroke:#000000;font-family:BPreplay;-inkscape-font-specification:BPreplay;stroke-opacity:1;stroke-width:3.99999994;stroke-miterlimit:4;stroke-dasharray:none"
       id="text28067">
      <path
         d="m 788.28757,383.20852 c 0,8.58412 3.61438,12.8762 11.06901,12.8762 l 77.93487,0 c 5.64745,0 8.35824,-2.71079 8.35824,-8.35824 0,-5.42155 -2.71079,-8.13233 -8.35824,-8.13233 l -72.51331,0 0,-142.76765 c 0,-5.64745 -2.71078,-8.35823 -8.35823,-8.35823 -5.42155,0 -8.13234,2.71078 -8.13234,8.35823 l 0,146.38202"
         style="font-family:BPreplay;-inkscape-font-specification:BPreplay;fill:none;stroke:#000000;stroke-opacity:1;stroke-width:3.99999994;stroke-miterlimit:4;stroke-dasharray:none"
         id="path28076" />
      <path
         d="m 916.1883,274.3256 c -3.84027,1.58128 -6.32515,5.19566 -6.32515,8.13233 0,5.19566 3.84027,7.00285 7.68053,7.00285 7.00284,0 16.49059,-5.42156 31.17395,-5.42156 21.23441,0 33.88473,10.39133 33.88473,25.97829 l 0,21.46033 c -7.45463,-7.45463 -21.23444,-11.29491 -34.11063,-11.29491 -23.71928,0 -47.89041,13.55392 -47.89041,39.98398 0,25.30057 21.23445,37.72499 43.37245,37.72499 14.45747,0 28.91498,-5.42156 38.62859,-15.81287 0,2.03308 0,3.38848 0.2259,7.68054 0.2259,4.29206 2.93668,8.13233 8.35823,8.13233 5.42155,0 8.35823,-4.06617 8.35823,-8.35823 l 0,-81.09745 c 0,-22.81569 -15.8129,-40.88757 -45.85733,-40.88757 -15.58696,0 -27.55958,2.71079 -37.49909,6.77695 m 1.35538,84.48592 c 0,-15.81286 15.1352,-23.04162 30.94805,-23.04162 16.71645,0 33.88473,7.90645 33.88473,21.68623 0,15.58696 -18.29777,24.6229 -35.46601,24.6229 -15.36106,0 -29.36677,-7.00286 -29.36677,-23.26751"
         style="font-family:BPreplay;-inkscape-font-specification:BPreplay;fill:none;stroke:#000000;stroke-opacity:1;stroke-width:3.99999994;stroke-miterlimit:4;stroke-dasharray:none"
         id="path28078" />
      <path
         d="m 1085.0789,285.62051 c 7.4547,0 18.2978,2.48488 24.623,5.19566 0.6776,0.22589 1.5812,0.45179 2.2589,0.45179 4.518,0 7.4547,-3.61437 7.4547,-8.58413 0,-2.93667 -3.1626,-6.09925 -7.6806,-8.13233 -8.81,-4.06617 -18.2977,-4.96976 -26.8818,-4.96976 -32.3035,0 -59.6372,25.52653 -59.6372,63.70328 0,37.04727 26.2043,65.28458 60.0889,65.28458 9.9396,0 20.3309,-2.71079 30.0445,-9.03593 3.1626,-2.48488 5.4216,-5.19566 5.4216,-8.35823 0,-4.06617 -3.6144,-7.22874 -6.777,-7.22874 -0.9036,0 -2.0331,0.22589 -2.9367,0.90359 -8.3582,5.64745 -17.1682,7.68054 -25.3006,7.68054 -23.9451,0 -43.3724,-21.68626 -43.3724,-48.11632 0,-29.36673 18.5237,-48.794 42.6947,-48.794"
         style="font-family:BPreplay;-inkscape-font-specification:BPreplay;fill:none;stroke:#000000;stroke-opacity:1;stroke-width:3.99999994;stroke-miterlimit:4;stroke-dasharray:none"
         id="path28080" />
      <path
         d="m 1142.5771,387.95238 c 0,5.42155 2.7108,8.13234 8.1323,8.13234 5.6475,0 8.3583,-2.71079 8.3583,-8.13234 l 0,-70.93203 c 0,-17.39414 17.1682,-32.75523 31.8516,-32.75523 7.6805,0 9.2618,1.58129 15.3611,1.58129 5.1956,0 8.81,-4.29207 8.81,-8.81003 0,-4.96976 -4.518,-10.39132 -16.4906,-10.39132 -15.361,0 -31.1739,7.00286 -39.5321,21.91212 l 0,-10.84311 c 0,-5.87335 -2.7108,-8.81003 -8.3583,-8.81003 -5.4215,0 -8.1323,2.93668 -8.1323,8.81003 l 0,110.23831"
         style="font-family:BPreplay;-inkscape-font-specification:BPreplay;fill:none;stroke:#000000;stroke-opacity:1;stroke-width:3.99999994;stroke-miterlimit:4;stroke-dasharray:none"
         id="path28082" />
      <path
         d="m 1277.9854,266.64506 c -35.9178,0 -54.6674,32.30347 -54.6674,65.96227 0,33.65879 18.7496,65.96227 54.6674,65.96227 35.6919,0 54.6673,-30.49629 54.6673,-64.38098 0,-33.6588 -18.7495,-67.54356 -54.6673,-67.54356 m 0,16.26467 c 25.5265,0 37.2732,29.81858 37.2732,52.63428 0,23.71928 -11.5208,47.43861 -37.2732,47.43861 -25.9783,0 -37.0473,-28.91499 -37.0473,-51.95658 0,-23.71928 11.069,-48.11631 37.0473,-48.11631"
         style="font-family:BPreplay;-inkscape-font-specification:BPreplay;fill:none;stroke:#000000;stroke-opacity:1;stroke-width:3.99999994;stroke-miterlimit:4;stroke-dasharray:none"
         id="path28084" />
      <path
         d="m 1366.1987,371.68771 c -2.259,-1.58128 -4.518,-2.48488 -6.5511,-2.48488 -4.2921,0 -7.4546,2.93669 -7.4546,9.26183 0,2.71077 0.9036,5.42156 2.9366,6.77694 12.4244,7.90643 25.5266,13.328 41.7912,13.328 22.3639,0 46.7609,-10.16545 46.7609,-37.9509 0,-20.33081 -18.9754,-28.23728 -37.4991,-35.91781 -16.9423,-7.00283 -34.5624,-12.42441 -34.5624,-22.81571 0,-13.32798 13.7798,-18.07186 27.1078,-18.07186 10.6172,0 21.6862,2.71078 27.1078,5.87335 1.5813,0.9036 3.3884,1.35539 4.9697,1.35539 4.2921,0 7.6806,-2.71078 7.6806,-7.90643 0,-3.16257 -1.3554,-6.32515 -4.2921,-7.90644 -10.8431,-5.87335 -23.2675,-8.13233 -35.0142,-8.13233 -23.9452,0 -45.4055,11.29493 -45.4055,36.8214 0,19.20133 24.8488,29.14087 45.4055,36.5955 11.9726,4.29207 25.9783,10.61723 25.9783,21.68623 0,14.68337 -15.587,19.65314 -27.7855,19.65314 -12.6503,0 -23.2675,-4.96976 -31.1739,-10.16542"
         style="font-family:BPreplay;-inkscape-font-specification:BPreplay;fill:none;stroke:#000000;stroke-opacity:1;stroke-width:3.99999994;stroke-miterlimit:4;stroke-dasharray:none"
         id="path28086" />
      <path
         d="m 1480.0301,371.68771 c -2.2589,-1.58128 -4.5179,-2.48488 -6.551,-2.48488 -4.2921,0 -7.4547,2.93669 -7.4547,9.26183 0,2.71077 0.9036,5.42156 2.9367,6.77694 12.4244,7.90643 25.5265,13.328 41.7912,13.328 22.3639,0 46.7609,-10.16545 46.7609,-37.9509 0,-20.33081 -18.9755,-28.23728 -37.4991,-35.91781 -16.9423,-7.00283 -34.5624,-12.42441 -34.5624,-22.81571 0,-13.32798 13.7798,-18.07186 27.1078,-18.07186 10.6172,0 21.6862,2.71078 27.1078,5.87335 1.5812,0.9036 3.3884,1.35539 4.9697,1.35539 4.2921,0 7.6805,-2.71078 7.6805,-7.90643 0,-3.16257 -1.3553,-6.32515 -4.292,-7.90644 -10.8431,-5.87335 -23.2675,-8.13233 -35.0142,-8.13233 -23.9452,0 -45.4056,11.29493 -45.4056,36.8214 0,19.20133 24.8489,29.14087 45.4056,36.5955 11.9726,4.29207 25.9783,10.61723 25.9783,21.68623 0,14.68337 -15.587,19.65314 -27.7855,19.65314 -12.6503,0 -23.2675,-4.96976 -31.174,-10.16542"
         style="font-family:BPreplay;-inkscape-font-specification:BPreplay;fill:none;stroke:#000000;stroke-opacity:1;stroke-width:3.99999994;stroke-miterlimit:4;stroke-dasharray:none"
         id="path28088" />
      <path
         d="m 1632.7162,266.41916 c -35.2401,0 -54.6674,33.20707 -54.6674,66.41407 0,35.69187 21.0086,65.96226 58.2817,65.96226 20.105,0 35.692,-6.77695 46.3092,-20.10493 1.1294,-1.12949 1.5812,-2.71078 1.5812,-4.51797 0,-5.19565 -3.1625,-7.68053 -7.4546,-7.68053 -3.1626,0 -6.7769,1.35539 -9.7136,4.06616 -10.1654,9.03592 -18.0719,11.52081 -30.7222,11.52081 -20.1049,0 -40.4357,-20.55675 -40.4357,-40.88757 l 76.3535,0 c 10.6172,0 12.6503,-6.09926 12.6503,-18.29775 0,-32.9811 -18.7495,-56.47455 -52.1824,-56.47455 m -36.5955,58.50763 c 0,-22.58979 15.587,-41.79116 37.2732,-41.79116 21.4603,0 34.7883,18.74957 34.7883,41.79116 l -72.0615,0"
         style="font-family:BPreplay;-inkscape-font-specification:BPreplay;fill:none;stroke:#000000;stroke-opacity:1;stroke-width:3.99999994;stroke-miterlimit:4;stroke-dasharray:none"
         id="path28090" />
      <path
         d="m 794.50683,591.48664 c -9.93951,9.93951 -22.81573,15.58698 -37.0473,15.58698 -39.30624,0 -59.63712,-35.69195 -59.63712,-70.93203 0,-34.56239 19.65318,-69.12485 59.41122,-69.12485 14.00568,0 27.78549,4.96977 37.4991,14.68339 1.58129,1.58128 4.74386,2.71077 7.00284,2.71077 4.51796,0 8.13234,-3.61437 8.13234,-9.03592 0,-2.93668 -1.35539,-5.64746 -4.29207,-8.13234 -13.55387,-12.65028 -29.81857,-18.52365 -47.66451,-18.52365 -51.95653,0 -78.38667,44.72789 -78.38667,89.00388 0,43.59831 25.52654,86.7449 77.03128,86.7449 18.52363,0 34.33653,-6.55105 48.34221,-18.74954 2.48488,-2.25898 3.38847,-5.19567 3.38847,-8.35824 0,-4.29206 -2.25899,-8.35823 -8.13233,-8.35823 -2.03309,0 -3.84027,0.6777 -5.64746,2.48488"
         style="fill:none;stroke:#000000;stroke-opacity:1;stroke-width:3.99999994;stroke-miterlimit:4;stroke-dasharray:none"
         id="path28092" />
      <path
         d="m 839.90884,613.85056 c 0,5.42155 2.71078,8.13233 8.13233,8.13233 5.64745,0 8.35823,-2.71078 8.35823,-8.13233 l 0,-70.93203 c 0,-22.36389 15.58699,-33.88472 31.17395,-33.88472 15.13516,0 30.27036,11.06903 30.27036,33.88472 l 0,70.93203 c 0,5.42155 2.71078,8.13233 8.13233,8.13233 5.64745,0 8.35824,-2.71078 8.35824,-8.13233 l 0,-78.16077 c 0,-25.75237 -22.81574,-42.92065 -44.72784,-42.92065 -12.87619,0 -25.52651,5.87336 -33.20704,19.42724 l 0,-57.82993 c 0,-5.87335 -2.71078,-8.81003 -8.35823,-8.81003 -5.42155,0 -8.13233,2.93668 -8.13233,8.81003 l 0,159.48411"
         style="fill:none;stroke:#000000;stroke-opacity:1;stroke-width:3.99999994;stroke-miterlimit:4;stroke-dasharray:none"
         id="path28094" />
      <path
         d="m 975.3101,500.22378 c -3.84026,1.58128 -6.32515,5.19566 -6.32515,8.13233 0,5.19565 3.84027,7.00284 7.68054,7.00284 7.00284,0 16.49058,-5.42155 31.17391,-5.42155 21.2344,0 33.8848,10.39133 33.8848,25.97829 l 0,21.46033 c -7.4547,-7.45464 -21.2345,-11.29491 -34.1107,-11.29491 -23.71924,0 -47.89037,13.55391 -47.89037,39.98397 0,25.30058 21.23445,37.725 43.37247,37.725 14.4574,0 28.915,-5.42157 38.6286,-15.81287 0,2.03308 0,3.38847 0.2259,7.68054 0.2259,4.29206 2.9366,8.13233 8.3582,8.13233 5.4215,0 8.3582,-4.06617 8.3582,-8.35823 l 0,-81.09745 c 0,-22.81569 -15.8129,-40.88757 -45.8573,-40.88757 -15.58696,0 -27.55959,2.71078 -37.4991,6.77695 m 1.35539,84.48592 c 0,-15.81286 15.13519,-23.04162 30.94801,-23.04162 16.7165,0 33.8848,7.90645 33.8848,21.68623 0,15.58696 -18.2978,24.6229 -35.466,24.6229 -15.36111,0 -29.36681,-7.00286 -29.36681,-23.26751"
         style="fill:none;stroke:#000000;stroke-opacity:1;stroke-width:3.99999994;stroke-miterlimit:4;stroke-dasharray:none"
         id="path28096" />
      <path
         d="m 1084.3377,613.39876 c 0,5.64745 2.7108,8.35824 8.3582,8.35824 5.4216,0 8.1324,-2.71079 8.1324,-8.35824 l 0,-67.99535 c 0,-18.97543 12.1985,-35.01422 31.3998,-35.01422 16.4906,0 26.4301,12.87622 26.4301,29.36677 l 0,73.6428 c 0,5.64745 2.7108,8.35824 8.3582,8.35824 5.4216,0 8.1324,-2.71079 8.1324,-8.35824 l 0,-67.99535 c 0,-18.97543 12.4244,-35.46601 31.6257,-35.46601 16.4906,0 26.2042,13.55391 26.2042,29.81856 l 0,73.6428 c 0,5.42155 2.9367,8.13234 8.5841,8.13234 5.6475,0 8.3583,-2.71079 8.3583,-8.13234 l 0,-80.87154 c 0,-23.71929 -19.2014,-39.98398 -42.243,-39.98398 -16.9423,0 -32.5293,9.48774 -39.7581,23.71931 -5.6474,-14.23157 -19.2013,-23.71931 -34.1106,-23.71931 -13.328,0 -26.656,8.13235 -32.7552,20.10494 l 0,-8.81003 c 0,-6.09925 -2.9367,-9.26183 -8.3583,-9.26183 -5.6474,0 -8.3582,3.38848 -8.3582,9.93952 l 0,108.88292"
         style="fill:none;stroke:#000000;stroke-opacity:1;stroke-width:3.99999994;stroke-miterlimit:4;stroke-dasharray:none"
         id="path28098" />
      <path
         d="m 1274.4981,664.67765 c 0,6.09925 2.7108,9.26183 8.1324,9.26183 4.5179,0 8.5841,-3.38848 8.5841,-9.03593 l 0,-62.5738 c 6.551,14.23157 21.2344,22.36392 37.2732,22.36392 35.0142,0 52.6343,-32.52937 52.6343,-65.28457 0,-32.7552 -17.6201,-66.86586 -52.6343,-66.86586 -15.3611,0 -32.3035,11.74672 -37.2732,25.97829 l 0,-17.16826 c 0,-5.87335 -2.7108,-8.81003 -8.3583,-8.81003 -5.6474,0 -8.3582,2.93668 -8.3582,8.81003 l 0,163.32438 m 55.571,-55.34505 c -26.2042,0 -37.4991,-25.75242 -37.4991,-49.9235 0,-23.71929 11.2949,-50.1494 37.4991,-50.1494 25.0746,0 34.1106,28.6891 34.1106,51.05299 0,22.8157 -9.036,49.01991 -34.1106,49.01991"
         style="fill:none;stroke:#000000;stroke-opacity:1;stroke-width:3.99999994;stroke-miterlimit:4;stroke-dasharray:none"
         id="path28100" />
      <path
         d="m 1408.0428,613.62466 c 0,5.64745 2.9367,8.35823 8.5841,8.35823 5.6475,0 8.5841,-2.71078 8.5841,-8.35823 l 0,-111.5937 c 0,-5.64745 -3.1625,-8.35823 -8.81,-8.35823 -5.4215,0 -8.3582,2.71078 -8.3582,8.35823 l 0,111.5937 m -3.3885,-157.67693 c 0,6.32515 4.9698,11.29491 11.2949,11.29491 6.3252,0 11.2949,-4.96976 11.2949,-11.29491 0,-6.32514 -4.9697,-11.2949 -11.2949,-11.2949 -6.3251,0 -11.2949,4.96976 -11.2949,11.2949"
         style="fill:none;stroke:#000000;stroke-opacity:1;stroke-width:3.99999994;stroke-miterlimit:4;stroke-dasharray:none"
         id="path28102" />
      <path
         d="m 1511.3841,492.54324 c -35.9178,0 -54.6674,32.30347 -54.6674,65.96227 0,33.65879 18.7496,65.96226 54.6674,65.96226 35.6919,0 54.6674,-30.49628 54.6674,-64.38098 0,-33.65879 -18.7496,-67.54355 -54.6674,-67.54355 m 0,16.26467 c 25.5265,0 37.2732,29.81858 37.2732,52.63427 0,23.71929 -11.5208,47.43862 -37.2732,47.43862 -25.9783,0 -37.0473,-28.91499 -37.0473,-51.95658 0,-23.71929 11.069,-48.11631 37.0473,-48.11631"
         style="fill:none;stroke:#000000;stroke-opacity:1;stroke-width:3.99999994;stroke-miterlimit:4;stroke-dasharray:none"
         id="path28104" />
      <path
         d="m 1589.9614,613.85056 c 0,5.42155 2.7108,8.13233 8.1323,8.13233 5.6475,0 8.3582,-2.71078 8.3582,-8.13233 l 0,-70.93203 c 0,-22.36389 15.587,-33.88472 31.174,-33.88472 15.1352,0 30.2703,11.06903 30.2703,33.88472 l 0,70.93203 c 0,5.42155 2.7108,8.13233 8.1324,8.13233 5.6474,0 8.3582,-2.71078 8.3582,-8.13233 l 0,-78.16077 c 0,-26.88186 -22.3639,-43.14655 -44.0501,-43.14655 -13.328,0 -26.4301,6.09926 -33.8848,19.65314 l 0,-8.58413 c 0,-5.87335 -2.7107,-8.81003 -8.3582,-8.81003 -5.4215,0 -8.1323,2.93668 -8.1323,8.81003 l 0,110.23831"
         style="fill:none;stroke:#000000;stroke-opacity:1;stroke-width:3.99999994;stroke-miterlimit:4;stroke-dasharray:none"
         id="path28106" />
      <path
         d="m 1724.9002,597.58589 c -2.259,-1.58128 -4.5179,-2.48488 -6.551,-2.48488 -4.2921,0 -7.4547,2.93668 -7.4547,9.26183 0,2.71077 0.9036,5.42155 2.9367,6.77694 12.4244,7.90643 25.5265,13.32799 41.7912,13.32799 22.3639,0 46.7609,-10.16544 46.7609,-37.95089 0,-20.33081 -18.9755,-28.23728 -37.4991,-35.91781 -16.9423,-7.00284 -34.5624,-12.42441 -34.5624,-22.81572 0,-13.32797 13.7798,-18.07185 27.1078,-18.07185 10.6172,0 21.6862,2.71078 27.1077,5.87335 1.5813,0.90359 3.3885,1.35539 4.9698,1.35539 4.2921,0 7.6805,-2.71078 7.6805,-7.90643 0,-3.16258 -1.3554,-6.32515 -4.292,-7.90644 -10.8431,-5.87335 -23.2676,-8.13233 -35.0142,-8.13233 -23.9452,0 -45.4056,11.29493 -45.4056,36.8214 0,19.20132 24.8488,29.14087 45.4056,36.5955 11.9725,4.29206 25.9782,10.61723 25.9782,21.68623 0,14.68337 -15.5869,19.65314 -27.7854,19.65314 -12.6503,0 -23.2676,-4.96977 -31.174,-10.16542"
         style="fill:none;stroke:#000000;stroke-opacity:1;stroke-width:3.99999994;stroke-miterlimit:4;stroke-dasharray:none"
         id="path28108" />
      <path
         d="m 714.81595,721.82989 c 0,5.19565 3.16259,11.9726 9.48773,11.9726 6.09924,0 9.03593,-6.55105 9.03593,-10.84311 0,-20.10492 14.45749,-30.27036 29.14086,-30.27036 14.68337,0 29.36676,9.93954 29.36676,26.65599 0,9.71361 -3.61437,19.87905 -9.93952,28.46317 l -61.4443,83.58233 c -2.25898,2.93667 -3.38847,5.87335 -3.38847,8.35823 0,5.42155 4.06617,8.13233 12.4244,8.13233 l 74.77229,0 c 5.64745,0 8.58413,-3.16258 8.58413,-8.81003 0,-5.42155 -2.71078,-8.35823 -8.35823,-8.35823 l -63.47739,0 53.31197,-70.02843 c 10.39131,-13.77978 16.03877,-29.14088 16.03877,-42.92066 0,-25.75236 -23.49343,-42.46886 -46.98682,-42.46886 -24.17108,0 -48.56811,17.62009 -48.56811,46.53503"
         style="font-family:BPreplay;-inkscape-font-specification:BPreplay;fill:none;stroke:#000000;stroke-opacity:1;stroke-width:3.99999994;stroke-miterlimit:4;stroke-dasharray:none"
         id="path28110" />
      <path
         d="m 889.74939,674.61717 c -41.33933,0 -55.57096,51.95662 -55.57096,88.55209 0,37.72495 13.55394,87.42259 56.02275,87.42259 40.66163,0 55.34506,-51.95662 55.34506,-87.87439 0,-36.82137 -13.55394,-88.10029 -54.89326,-88.10029 l -0.90359,0 m 0.45179,158.58052 c -27.10775,0 -37.2732,-42.01709 -37.2732,-69.57664 0,-25.52647 7.90647,-71.15792 37.4991,-71.15792 27.10775,0 36.36961,42.69478 36.36961,71.60972 0,24.39698 -9.26186,69.12484 -36.59551,69.12484"
         style="font-family:BPreplay;-inkscape-font-specification:BPreplay;fill:none;stroke:#000000;stroke-opacity:1;stroke-width:3.99999994;stroke-miterlimit:4;stroke-dasharray:none"
         id="path28112" />
      <path
         d="m 1023.8764,674.61717 c -41.3393,0 -55.57092,51.95662 -55.57092,88.55209 0,37.72495 13.55393,87.42259 56.02272,87.42259 40.6617,0 55.3451,-51.95662 55.3451,-87.87439 0,-36.82137 -13.554,-88.10029 -54.8933,-88.10029 l -0.9036,0 m 0.4518,158.58052 c -27.10773,0 -37.27317,-42.01709 -37.27317,-69.57664 0,-25.52647 7.90646,-71.15792 37.49907,-71.15792 27.1078,0 36.3696,42.69478 36.3696,71.60972 0,24.39698 -9.2618,69.12484 -36.5955,69.12484"
         style="font-family:BPreplay;-inkscape-font-specification:BPreplay;fill:none;stroke:#000000;stroke-opacity:1;stroke-width:3.99999994;stroke-miterlimit:4;stroke-dasharray:none"
         id="path28114" />
      <path
         d="m 1182.1746,778.53033 c -4.9698,13.77978 -24.397,39.08041 -45.4056,57.37814 -2.2589,2.03308 -4.292,4.29207 -4.292,8.81003 0,4.06616 3.3885,7.22874 7.9064,7.22874 2.259,0 4.518,-0.4518 7.0029,-2.48488 47.6644,-38.62855 60.0889,-82.67876 60.0889,-112.72319 0,-35.01418 -19.8791,-61.8961 -52.6343,-61.8961 -35.6919,0 -53.312,28.0114 -53.312,56.24864 0,28.68904 18.5237,57.37814 51.7307,57.37814 9.2618,0 19.8791,-1.80719 28.915,-9.93952 m -28.0114,-86.2931 c 25.0747,0 36.1437,21.23445 36.1437,40.43577 0,26.43006 -16.4906,38.85449 -35.9178,38.85449 -18.2977,0 -35.0142,-14.23161 -35.0142,-39.30628 0,-18.07184 10.6172,-39.98398 34.7883,-39.98398"
         style="font-family:BPreplay;-inkscape-font-specification:BPreplay;fill:none;stroke:#000000;stroke-opacity:1;stroke-width:3.99999994;stroke-miterlimit:4;stroke-dasharray:none"
         id="path28116" />
      <path
         d="m 1236.8031,776.72315 c -6.0992,0 -9.9395,4.29207 -9.9395,8.81003 0,5.64744 3.3885,8.35823 9.9395,8.35823 l 46.535,0 c 6.5511,0 9.7137,-2.71079 9.7137,-8.35823 0,-5.87335 -3.1626,-8.81003 -9.7137,-8.81003 l -46.535,0"
         style="font-family:BPreplay;-inkscape-font-specification:BPreplay;fill:none;stroke:#000000;stroke-opacity:1;stroke-width:3.99999994;stroke-miterlimit:4;stroke-dasharray:none"
         id="path28118" />
      <path
         d="m 1316.6228,721.82989 c 0,5.19565 3.1626,11.9726 9.4878,11.9726 6.0992,0 9.0359,-6.55105 9.0359,-10.84311 0,-20.10492 14.4575,-30.27036 29.1409,-30.27036 14.6833,0 29.3667,9.93954 29.3667,26.65599 0,9.71361 -3.6144,19.87905 -9.9395,28.46317 l -61.4443,83.58233 c -2.259,2.93667 -3.3885,5.87335 -3.3885,8.35823 0,5.42155 4.0662,8.13233 12.4244,8.13233 l 74.7723,0 c 5.6475,0 8.5841,-3.16258 8.5841,-8.81003 0,-5.42155 -2.7107,-8.35823 -8.3582,-8.35823 l -63.4774,0 53.312,-70.02843 c 10.3913,-13.77978 16.0388,-29.14088 16.0388,-42.92066 0,-25.75236 -23.4935,-42.46886 -46.9869,-42.46886 -24.171,0 -48.5681,17.62009 -48.5681,46.53503"
         style="font-family:BPreplay;-inkscape-font-specification:BPreplay;fill:none;stroke:#000000;stroke-opacity:1;stroke-width:3.99999994;stroke-miterlimit:4;stroke-dasharray:none"
         id="path28120" />
      <path
         d="m 1491.5562,674.61717 c -41.3393,0 -55.5709,51.95662 -55.5709,88.55209 0,37.72495 13.5539,87.42259 56.0227,87.42259 40.6617,0 55.3451,-51.95662 55.3451,-87.87439 0,-36.82137 -13.5539,-88.10029 -54.8933,-88.10029 l -0.9036,0 m 0.4518,158.58052 c -27.1077,0 -37.2732,-42.01709 -37.2732,-69.57664 0,-25.52647 7.9065,-71.15792 37.4991,-71.15792 27.1078,0 36.3696,42.69478 36.3696,71.60972 0,24.39698 -9.2618,69.12484 -36.5955,69.12484"
         style="font-family:BPreplay;-inkscape-font-specification:BPreplay;fill:none;stroke:#000000;stroke-opacity:1;stroke-width:3.99999994;stroke-miterlimit:4;stroke-dasharray:none"
         id="path28122" />
      <path
         d="m 1602.4158,838.16745 c 0,5.64745 3.6144,9.71362 9.2618,9.71362 5.4216,0 9.036,-4.06617 9.036,-9.71362 l 0,-141.86405 c 0,-6.32515 -0.4518,-10.16542 -1.1295,-11.52081 -0.9036,-2.25898 -3.3885,-4.51797 -7.2288,-4.51797 -0.9036,0 -1.8072,0.22591 -34.5624,9.48773 -5.8733,1.58128 -8.3582,5.64746 -8.3582,9.48772 0,4.51796 3.6143,7.45464 7.9064,7.45464 0.9036,0 1.8072,-0.2259 2.9367,-0.45179 l 22.138,-6.32515 0,138.24968"
         style="font-family:BPreplay;-inkscape-font-specification:BPreplay;fill:none;stroke:#000000;stroke-opacity:1;stroke-width:3.99999994;stroke-miterlimit:4;stroke-dasharray:none"
         id="path28124" />
      <path
         d="m 1709.0715,674.61717 c -41.3393,0 -55.571,51.95662 -55.571,88.55209 0,37.72495 13.554,87.42259 56.0228,87.42259 40.6616,0 55.345,-51.95662 55.345,-87.87439 0,-36.82137 -13.5539,-88.10029 -54.8932,-88.10029 l -0.9036,0 m 0.4518,158.58052 c -27.1078,0 -37.2732,-42.01709 -37.2732,-69.57664 0,-25.52647 7.9065,-71.15792 37.4991,-71.15792 27.1077,0 36.3696,42.69478 36.3696,71.60972 0,24.39698 -9.2619,69.12484 -36.5955,69.12484"
         style="font-family:BPreplay;-inkscape-font-specification:BPreplay;fill:none;stroke:#000000;stroke-opacity:1;stroke-width:3.99999994;stroke-miterlimit:4;stroke-dasharray:none"
         id="path28126" />
    </g>
    <path
       style="font-size:225.8981781px;font-style:normal;font-variant:normal;font-weight:normal;font-stretch:normal;text-align:center;line-height:100%;writing-mode:lr-tb;text-anchor:middle;fill:none;stroke:#000000;stroke-width:4;stroke-miterlimit:4;stroke-opacity:1;stroke-dasharray:none;font-family:BPreplay;-inkscape-font-specification:BPreplay"
       d="m 813.9375,229.21875 c -3.02642,2.7562 0.10442,7.81161 -1.02384,11.43747 0.40081,46.02465 -0.83396,92.18712 0.64884,138.12503 4.41067,4.89126 11.94143,0.91383 17.65614,2.1103 23.03206,-0.52224 46.69631,1.34048 69.34386,-0.9228 0.89093,-2.60839 -1.89572,-4.35624 -4.15625,-3.125 -26.20833,0 -52.41667,0 -78.625,0 -0.44356,-49.10297 0.85981,-98.55063 -0.625,-147.4375 -1.04501,-0.25392 -2.14498,-0.23391 -3.21875,-0.1875 z"
       id="path28694" />
    <path
       style="font-size:225.8981781px;font-style:normal;font-variant:normal;font-weight:normal;font-stretch:normal;text-align:center;line-height:100%;writing-mode:lr-tb;text-anchor:middle;fill:none;stroke:#000000;stroke-width:4;stroke-miterlimit:4;stroke-opacity:1;stroke-dasharray:none;font-family:BPreplay;-inkscape-font-specification:BPreplay"
       d="m 973.5,267.40625 c -12.14045,0.95569 -26.1479,1.04949 -36.125,8.53125 1.3383,2.68505 5.34801,-0.78051 7.6875,-0.34375 16.89856,-4.44187 36.30691,-7.43628 52.07425,2.11155 9.59395,5.26574 15.28025,15.90924 14.71985,26.82498 0.3451,11.87635 -0.9084,23.79913 0.7996,35.62597 -9.1308,-14.86684 -26.67279,-22.57815 -43.74995,-21.34375 -15.7415,0.49132 -33.49072,7.31209 -39.4375,23.1875 -5.90441,14.32761 2.67466,31.22751 16.53125,36.84375 22.27778,9.35691 50.48419,1.59083 63.6562,-18.9375 4.4541,6.71176 0.4149,14.82384 2.9376,21.78125 2.2237,3.35815 6.5067,-1.44627 4.5624,-4.25 -0.787,-28.78007 1.6416,-57.7547 -1.3437,-86.40625 -5.3587,-17.68873 -25.34273,-25.01573 -42.3125,-23.625 z m -4.25,54.625 c 15.57567,-0.31716 34.6087,4.61345 41.0938,20.25 5.2551,14.77547 -7.3595,29.96932 -21.3438,33.5 -17.14227,6.39329 -40.32224,5.05912 -51.84375,-10.71875 -8.93402,-13.6581 -1.97331,-34.68045 13.96875,-39.40625 5.73594,-2.36703 11.93062,-3.43578 18.125,-3.625 z"
       id="path28696" />
    <path
       style="font-size:225.8981781px;font-style:normal;font-variant:normal;font-weight:normal;font-stretch:normal;text-align:center;line-height:100%;writing-mode:lr-tb;text-anchor:middle;fill:none;stroke:#000000;stroke-width:4;stroke-miterlimit:4;stroke-opacity:1;stroke-dasharray:none;font-family:BPreplay;-inkscape-font-specification:BPreplay"
       d="m 1107.625,269.4375 c -27.1184,0.2786 -51.0812,24.12358 -52.125,51.09375 -2.669,27.08732 15.2699,56.01724 42.75,61.40625 14.6316,3.35382 31.7826,1.16967 42.9688,-9.34375 -1.1737,-3.10435 -3.6279,1.29292 -5.5313,1.53125 -22.5786,11.9444 -53.7244,4.10091 -66.5625,-18.4375 -16.3065,-25.75838 -7.6809,-66.02427 21.4375,-78.59375 15.3039,-7.10406 33.2936,-3.28322 48.6875,1.09375 2.1124,-3.42225 -3.9828,-4.015 -5.8438,-5.375 -8.1649,-3.15942 -17.0714,-3.50882 -25.7812,-3.375 z"
       id="path28698" />
    <path
       style="font-size:225.8981781px;font-style:normal;font-variant:normal;font-weight:normal;font-stretch:normal;text-align:center;line-height:100%;writing-mode:lr-tb;text-anchor:middle;fill:none;stroke:#000000;stroke-width:4;stroke-miterlimit:4;stroke-opacity:1;stroke-dasharray:none;font-family:BPreplay;-inkscape-font-specification:BPreplay"
       d="m 1223.9062,266.5625 c -12.4526,0.42628 -24.4586,6.94581 -31.6874,17.0625 10.5536,-10.59084 27.1335,-14.86008 41.4062,-10.09375 3.4017,0.46331 5.8986,-4.12548 2.0312,-5.4375 -3.5579,-1.8718 -7.822,-1.48888 -11.75,-1.53125 z m -46,1.90625 c -4.4424,0.79274 -1.9476,7.33345 -2.125,10.4375 -0.061,33.81978 -0.9721,68.02764 0.4376,101.875 2.2612,1.43263 5.7503,-0.84578 4.2187,-3.4375 0.7663,-25.51236 -1.6239,-51.25893 1.3437,-76.625 0.4595,-2.92614 3.1783,-6.5838 3.3126,-8.625 -6.5733,-1.26688 -4.7991,-9.71479 -4.3438,-14.46875 0.11,-2.63022 0.9157,-8.92269 -2.8438,-9.15625 z"
       id="path28700" />
    <path
       style="font-size:225.8981781px;font-style:normal;font-variant:normal;font-weight:normal;font-stretch:normal;text-align:center;line-height:100%;writing-mode:lr-tb;text-anchor:middle;fill:none;stroke:#000000;stroke-width:4;stroke-miterlimit:4;stroke-opacity:1;stroke-dasharray:none;font-family:BPreplay;-inkscape-font-specification:BPreplay"
       d="m 1303.75,266.53125 c -22.6163,1.30685 -40.5925,21.22 -43.9805,42.94183 -5.4901,25.28527 2.6693,56.36753 26.7617,69.08942 23.3788,11.86996 56.3634,1.57446 65.6782,-23.69911 11.8754,-26.53233 6.2013,-62.05066 -17.4594,-80.23839 -8.9621,-6.4045 -20.0669,-8.79871 -31,-8.09375 z m 4.8438,3.78125 c 21.8622,0.0385 37.6474,19.95396 41.5937,39.96875 5.6277,22.12143 0.7833,49.28809 -18.5937,63.09375 -18.5167,13.02164 -47.9533,6.69888 -57.9376,-14.03125 -13.4591,-23.01604 -13.2211,-55.15866 4.25,-76.125 7.8274,-8.42567 19.1334,-13.2403 30.6876,-12.90625 z"
       id="path28702" />
    <path
       style="font-size:225.8981781px;font-style:normal;font-variant:normal;font-weight:normal;font-stretch:normal;text-align:center;line-height:100%;writing-mode:lr-tb;text-anchor:middle;fill:none;stroke:#000000;stroke-width:4;stroke-miterlimit:4;stroke-opacity:1;stroke-dasharray:none;font-family:BPreplay;-inkscape-font-specification:BPreplay"
       d="m 1428.6562,267 c -14.7433,0.25079 -32.3588,7.03403 -36.3124,22.875 -3.2048,10.37106 3.9189,20.76458 13.25,25.03125 17.5162,10.92578 40.8049,11.87295 55.3124,27.4375 7.9824,10.44422 2.8375,26.90532 -9.125,31.8125 -18.2303,9.48948 -40.4455,4.23231 -57.0937,-6.15625 -2.5871,-2.98469 -5.86,-0.29417 -4.3437,2.75 2.9146,4.10305 9.0466,4.90556 13.25,7.34375 19.0763,7.54258 42.9544,8.11598 59.625,-5.09375 9.9883,-9.02205 12.234,-27.11004 1.2812,-36.125 -17.7638,-14.76372 -43.2479,-15.66653 -60.9375,-30.40625 -9.8359,-7.92546 -5.2785,-24.21594 4.7813,-29.84375 17.5452,-8.99766 38.8637,-5.71877 56.375,1.84375 2.9421,-0.45047 1.8034,-4.93444 -1,-4.9375 -10.769,-5.58592 -23.055,-6.70873 -35.0626,-6.53125 z"
       id="path28704" />
    <path
       style="font-size:225.8981781px;font-style:normal;font-variant:normal;font-weight:normal;font-stretch:normal;text-align:center;line-height:100%;writing-mode:lr-tb;text-anchor:middle;fill:none;stroke:#000000;stroke-width:4;stroke-miterlimit:4;stroke-opacity:1;stroke-dasharray:none;font-family:BPreplay;-inkscape-font-specification:BPreplay"
       d="m 1546.5625,266.96875 c -14.623,0.007 -32.1551,5.93975 -37.1875,21.25 -4.1811,10.33677 2.3749,21.68989 11.9375,26.1875 17.4343,11.27059 40.8415,12.18019 55.7187,27.4375 8.275,10.12771 3.7498,26.57673 -7.9374,31.875 -17.8098,9.92983 -40.2977,4.93276 -56.9688,-5.125 -1.8842,-1.50524 -5.9848,-2.9577 -5.5625,0.84375 1.0394,5.11693 7.8939,5.26897 11.6118,7.81926 19.3556,8.3878 44.4858,9.53691 61.6382,-4.50676 12.305,-10.13588 11.3223,-32.69401 -3.9063,-39.625 -18.2349,-12.04469 -42.6219,-13.37161 -58.375,-29.1875 -7.8804,-11.28247 1.2,-27.65654 13.9376,-30.03125 16.3083,-5.58061 34.2482,-1.94326 49.6874,4.53125 3.2924,-0.579 1.6967,-4.92621 -1.2187,-5 -10.2148,-5.41547 -21.9731,-6.39395 -33.375,-6.46875 z"
       id="path28706" />
    <path
       style="font-size:225.8981781px;font-style:normal;font-variant:normal;font-weight:normal;font-stretch:normal;text-align:center;line-height:100%;writing-mode:lr-tb;text-anchor:middle;fill:none;stroke:#000000;stroke-width:4;stroke-miterlimit:4;stroke-opacity:1;stroke-dasharray:none;font-family:BPreplay;-inkscape-font-specification:BPreplay"
       d="m 1669.7188,266.3125 c -24.5886,-0.14859 -43.9331,22.14121 -47.1563,45.21875 -4.9146,24.59138 3.5904,54.02177 26.875,66.0625 21.8408,11.04058 51.581,7.24964 68.25,-11.15625 1.4194,-4.09429 -4.3621,-1.91978 -6.0625,-0.6875 -6.879,4.72128 -13.3075,10.66981 -21.8125,12.0625 -23.4472,6.39084 -49.6935,-6.68433 -58.875,-29.0625 -2.9533,-6.68545 -4.0449,-14.11856 -3.25,-21.40625 29.4271,-0.59063 58.941,1.02095 88.3125,-0.78125 4.8066,-4.8158 1.8434,-12.49082 2.4062,-18.53125 -1.272,-19.87803 -16.6071,-38.98254 -37.1562,-41 -3.701,-0.58246 -7.6474,-0.8093 -11.5312,-0.71875 z m 3.0624,4.25 c 22.5698,-0.36151 40.6986,21.21047 40.5938,42.96875 1.0945,3.77108 0.7056,10.63176 -4.8125,9.90625 -26.8021,0 -53.6042,0 -80.4063,0 -4.2052,-26.18712 17.2002,-54.17356 44.625,-52.875 z"
       id="path28708" />
    <path
       style="font-size:225.8981781px;font-style:normal;font-variant:normal;font-weight:normal;font-stretch:normal;text-align:center;line-height:100%;writing-mode:lr-tb;text-anchor:middle;fill:none;stroke:#000000;stroke-width:4;stroke-miterlimit:4;stroke-opacity:1;stroke-dasharray:none;font-family:BPreplay;-inkscape-font-specification:BPreplay"
       d="m 773.53125,444.40625 c -30.58004,-0.41653 -59.01868,21.80349 -67.15625,50.96875 -11.42597,33.35608 -2.9728,75.91245 27.1875,96.96875 26.36151,17.61289 65.73074,15.79821 87.9375,-7.34375 0.73917,-2.31804 -2.29947,-5.46128 -4.03125,-2.53125 -16.71452,15.76002 -42.10824,20.89243 -63.625,13.09375 -18.63726,-6.11378 -33.05744,-21.40872 -39.625,-39.6875 -12.64823,-31.74413 -5.39253,-73.0659 22.81068,-93.99174 24.38353,-17.59841 60.70313,-14.84098 82.62682,5.39799 3.48909,0.76477 4.67252,-4.68228 1.28125,-5.90625 -12.52118,-11.90119 -30.25053,-17.68716 -47.40625,-16.96875 z"
       id="path28710" />
    <path
       style="font-size:225.8981781px;font-style:normal;font-variant:normal;font-weight:normal;font-stretch:normal;text-align:center;line-height:100%;writing-mode:lr-tb;text-anchor:middle;fill:none;stroke:#000000;stroke-width:4;stroke-miterlimit:4;stroke-opacity:1;stroke-dasharray:none;font-family:BPreplay;-inkscape-font-specification:BPreplay"
       d="m 867,441.3125 c -3.2497,2.53345 -0.42502,7.99579 -1.24013,11.56248 0.44279,49.49933 -0.93838,99.3394 0.70888,148.62502 2.34321,1.323 5.52,-0.69723 4.16924,-3.46867 0.61858,-26.17499 -1.39859,-52.53326 1.14326,-78.59383 -2.18824,1.38697 -0.62365,-10.33729 -1.25,-14.21875 -0.32486,-21.16492 1.26887,-42.99739 -0.8125,-63.78125 -0.88166,-0.2245 -1.81746,-0.1774 -2.71875,-0.125 z M 909.15625,487.5 c -9.43756,0.0938 -19.54607,4.78315 -24.78125,12.3125 14.66901,-12.68819 39.41887,-11.35525 51.84375,3.84375 7.81162,8.42484 10.12645,20.25003 9.27305,31.46601 0.73304,22.06114 -1.05382,44.43918 0.66445,66.31524 2.61056,1.55984 5.68477,-1.10921 4.21522,-3.96874 -0.33802,-26.20798 0.65582,-52.49351 -0.27772,-78.65626 -2.54008,-19.22478 -22.20182,-32.17502 -40.9375,-31.3125 z"
       id="path28712" />
    <path
       style="font-size:225.8981781px;font-style:normal;font-variant:normal;font-weight:normal;font-stretch:normal;text-align:center;line-height:100%;writing-mode:lr-tb;text-anchor:middle;fill:none;stroke:#000000;stroke-width:4;stroke-miterlimit:4;stroke-opacity:1;stroke-dasharray:none;font-family:BPreplay;-inkscape-font-specification:BPreplay"
       d="m 1034.0312,488.09375 c -12.2157,0.98812 -26.095,1.04044 -36.12495,8.5 1.83318,2.70623 5.93885,-0.91064 8.60615,-0.47471 17.0947,-4.69883 36.8287,-7.13825 52.4876,3.09971 9.2248,5.61677 14.0599,16.32098 13.4062,27 0.1533,11.69212 -0.8251,23.41932 0.75,35.0625 -8.1937,-14.18085 -24.2489,-22.16271 -40.375,-21.8125 -17.2267,-0.64957 -36.92939,6.71356 -43.1562,24.0625 -5.06452,13.92244 2.95881,29.88693 16.3438,35.75 22.1667,9.82066 51.0522,1.98232 64.1874,-18.78125 4.2988,6.70277 0.5929,14.68048 2.875,21.71875 1.4112,3.18438 6.3427,-0.18275 4.625,-2.9375 -0.7324,-29.19542 1.6129,-58.67235 -1.3437,-87.6875 -5.2854,-16.65681 -23.8131,-24.6149 -40.1563,-23.53125 -0.7085,-0.009 -1.4166,0.0201 -2.125,0.0312 z m -4.2187,54.625 c 15.6126,-0.34489 34.5572,4.6666 41.125,20.3125 4.9991,14.29754 -6.708,28.71804 -19.9063,33.15625 -17.5682,7.5942 -41.6985,5.17823 -53.49995,-11.0625 -8.79372,-13.56009 -1.568,-33.94273 13.95155,-38.67239 5.7622,-2.45552 12.0481,-3.54485 18.3297,-3.73386 z"
       id="path28714" />
    <path
       style="font-size:225.8981781px;font-style:normal;font-variant:normal;font-weight:normal;font-stretch:normal;text-align:center;line-height:100%;writing-mode:lr-tb;text-anchor:middle;fill:none;stroke:#000000;stroke-width:4;stroke-miterlimit:4;stroke-opacity:1;stroke-dasharray:none;font-family:BPreplay;-inkscape-font-specification:BPreplay"
       d="m 1160.4062,487.1875 c -11.7711,-0.17293 -22.5514,7.19183 -28.6562,16.96875 12.7675,-14.25177 38.1836,-16.37445 51.2812,-1.34375 7.7388,7.93987 9.7916,19.14755 8.9537,29.84362 0.383,22.33417 -0.2477,44.80133 0.078,67.06263 0.2353,3.25097 6.507,2.00631 4.8125,-1.15625 0.9068,-25.90526 -1.7183,-52.05493 1.4688,-77.8125 5.0329,-20.65248 29.5812,-34.96066 49.875,-26.15625 14.0089,5.96051 21.6872,22.16974 19.8231,37.03081 0.6279,23.02792 -0.9013,46.31053 0.6456,69.18794 2.613,1.98 6.4748,-0.69884 4.7153,-3.90624 -0.339,-27.04249 0.6679,-54.15456 -0.309,-81.15626 -2.3096,-19.79278 -24.027,-31.18178 -42.4063,-28.28125 -17.5167,1.97827 -31.8701,16.23317 -35.7059,33.17224 -1.2884,-1.05408 -1.8032,-7.57725 -3.3566,-10.82849 -4.799,-12.78662 -17.1982,-23.10979 -31.2188,-22.625 z m -42.0312,1.90625 c -4.9963,0.9753 -1.4492,7.8349 -2.4284,11.09371 0.5077,33.6554 -0.9796,67.56522 0.6784,101.06254 2.4529,1.39993 5.693,-0.80223 4.2075,-3.6873 0.8711,-25.84051 -1.987,-51.96957 1.6675,-77.6252 2.6597,-4.27474 -1.7818,-8.31442 -1.2812,-12.9375 -0.8712,-5.72952 1.2985,-12.52169 -1.1876,-17.625 -0.5114,-0.27485 -1.0709,-0.38658 -1.6562,-0.28125 z m 2.1562,0.6875 c 0.1037,-0.0325 -0.043,-0.0577 0,0 z"
       id="path28716" />
    <path
       style="font-size:225.8981781px;font-style:normal;font-variant:normal;font-weight:normal;font-stretch:normal;text-align:center;line-height:100%;writing-mode:lr-tb;text-anchor:middle;fill:none;stroke:#000000;stroke-width:4;stroke-miterlimit:4;stroke-opacity:1;stroke-dasharray:none;font-family:BPreplay;-inkscape-font-specification:BPreplay"
       d="m 1312.4062,487.21875 c -3.8999,0.93252 -1.1707,6.81711 -1.8124,9.65625 0.4773,51.71257 -0.9649,103.72535 0.75,155.25 3.1879,1.41475 5.7788,-2.4242 4.3573,-5.21866 0.3213,-26.89547 -0.9815,-53.8466 1.3301,-80.68759 6.398,13.71303 13.1419,31.02983 28.9376,35.8125 22.1977,8.06586 49.0489,-5.05896 56.3124,-27.5625 10.973,-26.5372 5.8893,-61.46993 -17.5937,-79.84375 -17.4608,-12.77166 -45.8409,-8.58321 -56.074,11.29679 -3.2343,5.59296 -5.7509,11.54408 -8.8635,17.20321 -6.6262,-10.93181 -2.2425,-24.13723 -4.875,-35.75 -0.7919,-0.1948 -1.6496,-0.22101 -2.4688,-0.15625 z m 47.375,4.28125 c 20.9139,-0.69925 37.5513,17.85053 40.7188,37.34375 4.6043,21.01018 1.8627,45.6007 -12.8125,61.9375 -14.9402,14.90847 -42.1026,13.862 -55.9375,-2.1875 -15.7058,-17.17957 -17.7984,-43.53671 -11.0938,-65.09375 5.5683,-17.15485 20.1169,-31.89014 39.125,-32 z"
       id="path28718" />
    <path
       style="font-size:225.8981781px;font-style:normal;font-variant:normal;font-weight:normal;font-stretch:normal;text-align:center;line-height:100%;writing-mode:lr-tb;text-anchor:middle;fill:none;stroke:#000000;stroke-width:4;stroke-miterlimit:4;stroke-opacity:1;stroke-dasharray:none;font-family:BPreplay;-inkscape-font-specification:BPreplay"
       d="m 1449.0312,440.40625 c -6.2693,-0.5628 -6.6772,10.3051 -0.3124,10.21875 7.3025,0.16368 9.1329,-10.10703 0.3124,-10.21875 z m -0.5,47.90625 c -3.4246,2.50496 -0.2079,7.77408 -1.2187,11.40625 0.4834,33.84413 -1.1292,68.18309 0.8125,101.71875 2.8085,1.56107 6.3275,-1.0105 4.7722,-4.18746 -0.544,-36.16716 0.8873,-72.74933 -0.6784,-108.65629 -1.1102,-0.36443 -2.4697,-0.34511 -3.6876,-0.28125 z"
       id="path28720" />
    <path
       style="font-size:225.8981781px;font-style:normal;font-variant:normal;font-weight:normal;font-stretch:normal;text-align:center;line-height:100%;writing-mode:lr-tb;text-anchor:middle;fill:none;stroke:#000000;stroke-width:4;stroke-miterlimit:4;stroke-opacity:1;stroke-dasharray:none;font-family:BPreplay;-inkscape-font-specification:BPreplay"
       d="m 1542.6875,487.21875 c -22.812,1.33528 -40.9786,21.55941 -44.0313,43.375 -5.3366,24.71396 2.458,54.71334 25.4376,67.9375 23.1661,12.81423 56.9221,3.07083 66.7187,-22.3125 12.3981,-26.77992 6.6028,-63.13075 -17.75,-81.34375 -8.8247,-6.04869 -19.6427,-8.35875 -30.375,-7.65625 z M 1547.5,491 c 21.4134,0.0513 37.1402,19.20628 41.3125,38.8125 6.1213,22.69762 1.2759,50.89643 -19.0937,64.78125 -18.5099,12.34153 -47.4225,5.79799 -57.1876,-14.59375 -13.4074,-23.03216 -13.1666,-55.09019 4.1876,-75.96875 7.7441,-8.48881 19.2198,-13.38989 30.7812,-13.03125 z"
       id="path28722" />
    <path
       style="font-size:225.8981781px;font-style:normal;font-variant:normal;font-weight:normal;font-stretch:normal;text-align:center;line-height:100%;writing-mode:lr-tb;text-anchor:middle;fill:none;stroke:#000000;stroke-width:4;stroke-miterlimit:4;stroke-opacity:1;stroke-dasharray:none;font-family:BPreplay;-inkscape-font-specification:BPreplay"
       d="m 1677.8125,487.1875 c -10.0201,-0.20657 -19.6161,5.06542 -25.875,12.59375 16.5947,-14.55471 45.893,-9.83018 56.4375,9.75 8.9695,17.91641 3.1709,39.02412 5.0274,58.34356 0.2092,11.18823 -1.272,22.842 0.7851,33.75019 2.9482,1.27658 5.4811,-1.71967 3.9567,-4.53118 -0.5978,-27.73214 1.4257,-55.62424 -1.1754,-83.25007 -4.5141,-16.64192 -22.2372,-27.32512 -39.1563,-26.65625 z m -42.1875,2.03125 c -4.7236,0.94154 -1.1812,7.68033 -2.1784,10.74996 0.6556,33.78487 -1.0247,68.03103 0.8346,101.53129 1.9524,1.14058 5.3694,-0.28143 3.8438,-2.84375 1.3743,-25.91938 -1.3889,-52.00851 1.1562,-77.84375 0.3753,-3.5252 3.0676,-8.07128 3.4688,-10.46875 -5.5945,-0.68553 -4.8478,-7.6491 -4.5,-11.75 -0.049,-2.31543 1.9664,-9.92611 -2.625,-9.375 z"
       id="path28724" />
    <path
       style="font-size:225.8981781px;font-style:normal;font-variant:normal;font-weight:normal;font-stretch:normal;text-align:center;line-height:100%;writing-mode:lr-tb;text-anchor:middle;fill:none;stroke:#000000;stroke-width:4;stroke-miterlimit:4;stroke-opacity:1;stroke-dasharray:none;font-family:BPreplay;-inkscape-font-specification:BPreplay"
       d="m 1797.2188,487.65625 c -14.6231,0.007 -32.1551,5.93975 -37.1876,21.25 -4.1457,10.40702 2.3052,21.6841 11.9376,26.1875 17.7008,11.51033 41.7826,12.11039 56.4062,28.3125 7.5481,10.59229 2.386,26.44132 -9.375,31.40625 -18.0705,9.54286 -40.2701,4.22172 -56.9375,-5.9375 -2.0045,-1.99294 -5.3959,-1.75368 -4.8437,1.46875 1.1996,4.73138 7.657,5.03913 11.2011,7.48585 19.6788,8.60799 44.7578,9.40894 62.2676,-4.29835 10.9553,-10.04335 11.6383,-30.83777 -2.3437,-38.59375 -18.5902,-12.91141 -43.6582,-14.12415 -60.125,-30.15625 -7.6641,-10.92487 0.5522,-27.03186 12.8437,-29.8125 16.8064,-6.3818 35.3703,-1.94092 51.4687,4.0625 2.8809,-1.98661 -0.6538,-5.86218 -3.4062,-5.8125 -10.0736,-4.1762 -21.0213,-5.82524 -31.9062,-5.5625 z"
       id="path28726" />
    <path
       style="font-size:225.8981781px;font-style:normal;font-variant:normal;font-weight:normal;font-stretch:normal;text-align:center;line-height:100%;writing-mode:lr-tb;text-anchor:middle;fill:none;stroke:#000000;stroke-width:4;stroke-miterlimit:4;stroke-opacity:1;stroke-dasharray:none;font-family:BPreplay;-inkscape-font-specification:BPreplay"
       d="m 779.3125,665.78125 c -20.82401,0.009 -41.35203,17.0233 -42.03125,38.4375 -0.69413,3.30259 4.12162,9.19448 6.53125,4.90625 1.68072,-8.80215 1.6716,-18.90675 8.53125,-25.75 15.5007,-19.29462 50.57477,-16.09087 61.40625,6.53125 7.08073,15.81794 -0.11043,33.81978 -10.30328,46.49887 -19.82578,26.34923 -40.74238,51.93991 -60.14005,78.54268 -1.46872,1.85454 -5.6962,6.28677 -1.21292,7.0522 27.62067,0.5243 55.58593,0.57435 83.21875,-0.0312 2.19862,-1.92258 -0.12167,-6.0009 -3.0937,-4.52094 -25.35334,0.28963 -50.70852,0.0392 -76.06255,0.11469 23.13753,-30.52938 49.2157,-59.11616 70.59375,-90.84375 7.92836,-14.41217 10.43746,-35.19431 -2.125,-47.40625 -9.04862,-9.494 -22.39538,-14.05552 -35.3125,-13.53125 z"
       id="path28728" />
    <path
       style="font-size:225.8981781px;font-style:normal;font-variant:normal;font-weight:normal;font-stretch:normal;text-align:center;line-height:100%;writing-mode:lr-tb;text-anchor:middle;fill:none;stroke:#000000;stroke-width:4;stroke-miterlimit:4;stroke-opacity:1;stroke-dasharray:none;font-family:BPreplay;-inkscape-font-specification:BPreplay"
       d="m 911.46875,664.9375 c -21.84903,-0.88266 -38.67004,18.19254 -44.40028,37.82686 -11.43235,33.50857 -10.07675,73.06701 8.71278,103.73564 11.67311,17.01347 36.38838,24.5513 54.625,13.4375 19.33926,-11.5001 26.30459,-34.65351 30,-55.53125 4.07479,-27.32322 0.0745,-56.6226 -14.34521,-80.41955 -7.68389,-11.17888 -20.62647,-19.58656 -34.59229,-19.0492 z m -1.15625,5.53125 c 18.95787,-0.85852 32.69427,16.33981 37.53498,33.07368 10.98096,33.46927 9.70743,73.16129 -10.31623,102.92632 -9.73999,13.01126 -29.79051,18.31211 -43.53125,8.375 -17.71509,-11.85666 -23.33544,-34.53917 -26,-54.5 -2.87656,-26.15731 0.8747,-54.55546 16.1875,-76.25 6.33449,-7.78385 15.82621,-13.56053 26.125,-13.625 z"
       id="path28730" />
    <path
       style="font-size:225.8981781px;font-style:normal;font-variant:normal;font-weight:normal;font-stretch:normal;text-align:center;line-height:100%;writing-mode:lr-tb;text-anchor:middle;fill:none;stroke:#000000;stroke-width:4;stroke-miterlimit:4;stroke-opacity:1;stroke-dasharray:none;font-family:BPreplay;-inkscape-font-specification:BPreplay"
       d="m 1045.0312,665.0625 c -21.3985,1.2617 -36.38,21.04478 -41.5094,40.32177 -10.50401,32.82902 -8.6966,70.78478 9.2282,100.64698 11.5613,17.41524 36.6676,25.06259 55.0312,13.90625 20.003,-12.21416 26.9006,-36.43904 30.2813,-58.1875 3.4886,-27.35745 -0.825,-56.80392 -16.3226,-79.95334 -8.6634,-11.41604 -22.3284,-18.24762 -36.7087,-16.73416 z m 2.5,5.40625 c 18.8083,-0.90116 32.6539,16.11521 37.4688,32.6875 11.1863,33.56303 9.9128,73.48117 -10.25,103.375 -9.4897,12.48606 -28.4113,18.04684 -42.0625,9.15625 -18.1052,-10.88359 -24.1793,-33.34229 -27.125,-53.03125 -3.3483,-26.53079 0.1549,-55.22756 15.2187,-77.71875 6.3551,-8.12951 16.0631,-14.37335 26.75,-14.46875 z"
       id="path28732" />
    <path
       style="font-size:225.8981781px;font-style:normal;font-variant:normal;font-weight:normal;font-stretch:normal;text-align:center;line-height:100%;writing-mode:lr-tb;text-anchor:middle;fill:none;stroke:#000000;stroke-width:4;stroke-miterlimit:4;stroke-opacity:1;stroke-dasharray:none;font-family:BPreplay;-inkscape-font-specification:BPreplay"
       d="m 1175.8438,665.3125 c -22.9176,0.66417 -40.0707,22.38192 -42.1876,43.84375 -3.3312,24.01832 12.7705,49.87709 37.125,54.21875 15.4239,3.61541 32.6071,-1.67499 42.7813,-13.71875 1.7656,-2.98527 7.4906,-2.8627 6.4375,1.46875 -8.5441,28.10677 -29.83,50.11998 -51.5,69 -3.6825,1.54744 -4.42,7.89322 0.8438,5.8125 7.7421,-4.82136 14.4644,-11.82826 21.1874,-18.15625 26.0602,-26.65583 44.4656,-64.46364 38.1563,-102.5 -3.5888,-19.47053 -18.9488,-37.90282 -39.5937,-39.5625 -4.33,-0.62734 -8.8404,-0.36186 -13.25,-0.40625 z m 6.75,4.875 c 21.8699,-0.33778 40.5522,18.67323 41.6562,40.25 2.4873,19.43577 -7.8399,41.53089 -27.5625,47.125 -21.6155,7.70387 -49.0321,-4.347 -54.7813,-27.28125 -7.2614,-22.47193 3.6393,-51.51214 27.4063,-58.34375 4.2596,-1.29838 8.7967,-1.70537 13.2813,-1.75 z"
       id="path28734" />
    <path
       style="font-size:225.8981781px;font-style:normal;font-variant:normal;font-weight:normal;font-stretch:normal;text-align:center;line-height:100%;writing-mode:lr-tb;text-anchor:middle;fill:none;stroke:#000000;stroke-width:4;stroke-miterlimit:4;stroke-opacity:1;stroke-dasharray:none;font-family:BPreplay;-inkscape-font-specification:BPreplay"
       d="m 1314.375,764.59375 c -16.8722,0.77064 -34.1513,-0.3954 -51,0.5625 -2.4107,1.37266 -1.5785,5.37798 1.5916,4.25315 15.9975,0.40163 32.0143,-0.0806 48.0022,0.2781 2.9662,0.57163 6.7432,-2.15406 3.4687,-4.625 -0.5808,-0.43282 -1.3426,-0.60966 -2.0625,-0.46875 z"
       id="path28736" />
    <path
       style="font-size:225.8981781px;font-style:normal;font-variant:normal;font-weight:normal;font-stretch:normal;text-align:center;line-height:100%;writing-mode:lr-tb;text-anchor:middle;fill:none;stroke:#000000;stroke-width:4;stroke-miterlimit:4;stroke-opacity:1;stroke-dasharray:none;font-family:BPreplay;-inkscape-font-specification:BPreplay"
       d="m 1395.3125,665.78125 c -21.1607,-0.0835 -42.812,18.04924 -41.6875,40.0625 -0.244,3.78455 5.2232,7.44056 6.5,2.3125 1.5476,-6.94769 0.7363,-14.66344 5.3125,-20.75 12.199,-20.51785 44.9767,-22.54123 59.9687,-4.03125 9.4946,10.54625 8.8211,26.47498 2.875,38.625 -8.395,17.43055 -22.9746,30.99421 -33.75,46.96875 -12.9264,17.06139 -27.3035,33.4541 -38.5312,51.46875 2.5545,3.74765 8.5435,0.50284 12.1874,1.73149 24.3994,0.26019 49.0067,0.44555 73.2814,-0.26274 1.9031,-1.98482 -0.066,-5.81004 -2.9688,-4.34375 -25.4479,0 -50.8958,0 -76.3438,0 23.1289,-30.5166 49.1413,-59.05714 70.5313,-90.71875 8.2916,-14.84882 10.6617,-36.52714 -3.2813,-48.8125 -9.0914,-8.60094 -21.7096,-12.73869 -34.0937,-12.25 z"
       id="path28738" />
    <path
       style="font-size:225.8981781px;font-style:normal;font-variant:normal;font-weight:normal;font-stretch:normal;text-align:center;line-height:100%;writing-mode:lr-tb;text-anchor:middle;fill:none;stroke:#000000;stroke-width:4;stroke-miterlimit:4;stroke-opacity:1;stroke-dasharray:none;font-family:BPreplay;-inkscape-font-specification:BPreplay"
       d="m 1526.7188,664.96875 c -22.2496,-0.4803 -38.7725,19.5045 -44.1855,39.51311 -10.8731,33.49832 -9.2931,72.67943 9.9042,102.86189 12.3253,17.43881 38.7811,23.88006 56.5313,10.96875 18.1391,-12.60033 24.4941,-35.75569 27.8437,-56.59375 3.4033,-26.93904 -0.8027,-55.91028 -15.5932,-78.93006 -7.9525,-10.81106 -20.749,-18.63441 -34.5005,-17.81994 z m -0.4376,5.5 c 18.8265,-0.87629 32.6069,16.11802 37.4376,32.6875 11.1563,33.42516 9.913,73.12168 -9.9825,103.04436 -9.5199,12.77494 -28.8273,18.53245 -42.6425,9.29939 -18.6607,-11.55142 -24.5027,-35.22087 -27.1378,-55.71306 -2.7456,-25.72204 0.9941,-53.12296 15.544,-74.81819 6.3783,-8.19208 16.0957,-14.43382 26.7812,-14.5 z"
       id="path28740" />
    <path
       style="font-size:225.8981781px;font-style:normal;font-variant:normal;font-weight:normal;font-stretch:normal;text-align:center;line-height:100%;writing-mode:lr-tb;text-anchor:middle;fill:none;stroke:#000000;stroke-width:4;stroke-miterlimit:4;stroke-opacity:1;stroke-dasharray:none;font-family:BPreplay;-inkscape-font-specification:BPreplay"
       d="m 1648.7188,671.21875 c -11.9254,3.5993 -25.1884,4.80853 -36.0313,10.75 -0.7921,4.01909 4.2854,1.84163 6.3437,1.40625 9.1469,-2.01845 17.8682,-5.69342 27.1876,-7.125 0.5784,48.34736 -0.9555,96.91171 0.75,145.125 2.2013,2.27882 7.5512,0.0623 5.9062,-3.46875 -0.2169,-48.8426 0.9331,-97.86091 -0.625,-146.59375 -0.8552,-1.31319 -2.3249,-0.41392 -3.5312,-0.0937 z"
       id="path28742" />
    <path
       style="font-size:225.8981781px;font-style:normal;font-variant:normal;font-weight:normal;font-stretch:normal;text-align:center;line-height:100%;writing-mode:lr-tb;text-anchor:middle;fill:none;stroke:#000000;stroke-width:4;stroke-miterlimit:4;stroke-opacity:1;stroke-dasharray:none;font-family:BPreplay;-inkscape-font-specification:BPreplay"
       d="m 1750.0625,664.9375 c -20.7392,-0.87778 -37.1331,16.64424 -43.4375,35.0625 -12.2248,34.12798 -11.5317,74.61746 7.5938,106.125 11.267,16.99873 35.9706,24.79164 54.0937,14.25 19.1338,-10.75079 26.6335,-33.57263 30.4063,-53.875 4.7217,-28.21578 0.7109,-58.58927 -14.375,-83.125 -7.9212,-10.89477 -20.477,-19.01181 -34.2813,-18.4375 z m -1.1563,5.53125 c 18.7508,-0.93514 32.706,16.12337 37.4376,32.71875 11.1776,33.09288 9.8318,72.33184 -9.3438,102.21875 -9.3267,13.27105 -29.0187,19.51714 -43.1562,10.15625 -18.373,-11.23653 -24.3419,-34.45631 -27.125,-54.625 -2.9481,-26.12887 0.6786,-53.93079 15.4374,-76 6.3551,-8.12951 16.0631,-14.37335 26.75,-14.46875 z"
       id="path28744" />
  </g>
</svg>
