<?xml version="1.0" encoding="UTF-8" standalone="no"?>
<!-- Created with Inkscape (http://www.inkscape.org/) -->

<svg
   xmlns:dc="http://purl.org/dc/elements/1.1/"
   xmlns:cc="http://creativecommons.org/ns#"
   xmlns:rdf="http://www.w3.org/1999/02/22-rdf-syntax-ns#"
   xmlns:svg="http://www.w3.org/2000/svg"
   xmlns="http://www.w3.org/2000/svg"
   xmlns:sodipodi="http://sodipodi.sourceforge.net/DTD/sodipodi-0.dtd"
   xmlns:inkscape="http://www.inkscape.org/namespaces/inkscape"
   sodipodi:docname="traditional1.svg"
   inkscape:version="0.47 r22583"
   version="1.1"
   id="svg27345"
   height="1000"
   width="3200">
  <sodipodi:namedview
     id="base"
     pagecolor="#ffffff"
     bordercolor="#666666"
     borderopacity="1.0"
     inkscape:pageopacity="0.0"
     inkscape:pageshadow="2"
     inkscape:zoom="0.3215541"
     inkscape:cx="1775.9994"
     inkscape:cy="216.71771"
     inkscape:document-units="px"
     inkscape:current-layer="layer1"
     showgrid="false"
     inkscape:window-width="1676"
     inkscape:window-height="1006"
     inkscape:window-x="0"
     inkscape:window-y="0"
     inkscape:window-maximized="0" />
  <defs
     id="defs27347">
    <inkscape:perspective
       id="perspective27353"
       inkscape:persp3d-origin="372.04724 : 350.78739 : 1"
       inkscape:vp_z="744.09448 : 526.18109 : 1"
       inkscape:vp_y="0 : 1000 : 0"
       inkscape:vp_x="0 : 526.18109 : 1"
       sodipodi:type="inkscape:persp3d" />
    <inkscape:perspective
       id="perspective6460"
       inkscape:persp3d-origin="0.5 : 0.33333333 : 1"
       inkscape:vp_z="1 : 0.5 : 1"
       inkscape:vp_y="0 : 1000 : 0"
       inkscape:vp_x="0 : 0.5 : 1"
       sodipodi:type="inkscape:persp3d" />
    <inkscape:perspective
       id="perspective23322"
       inkscape:persp3d-origin="0.5 : 0.33333333 : 1"
       inkscape:vp_z="1 : 0.5 : 1"
       inkscape:vp_y="0 : 1000 : 0"
       inkscape:vp_x="0 : 0.5 : 1"
       sodipodi:type="inkscape:persp3d" />
    <inkscape:perspective
       id="perspective23344"
       inkscape:persp3d-origin="0.5 : 0.33333333 : 1"
       inkscape:vp_z="1 : 0.5 : 1"
       inkscape:vp_y="0 : 1000 : 0"
       inkscape:vp_x="0 : 0.5 : 1"
       sodipodi:type="inkscape:persp3d" />
    <inkscape:perspective
       id="perspective23344-6"
       inkscape:persp3d-origin="0.5 : 0.33333333 : 1"
       inkscape:vp_z="1 : 0.5 : 1"
       inkscape:vp_y="0 : 1000 : 0"
       inkscape:vp_x="0 : 0.5 : 1"
       sodipodi:type="inkscape:persp3d" />
    <inkscape:perspective
       id="perspective23375"
       inkscape:persp3d-origin="0.5 : 0.33333333 : 1"
       inkscape:vp_z="1 : 0.5 : 1"
       inkscape:vp_y="0 : 1000 : 0"
       inkscape:vp_x="0 : 0.5 : 1"
       sodipodi:type="inkscape:persp3d" />
    <inkscape:perspective
       id="perspective23375-0"
       inkscape:persp3d-origin="0.5 : 0.33333333 : 1"
       inkscape:vp_z="1 : 0.5 : 1"
       inkscape:vp_y="0 : 1000 : 0"
       inkscape:vp_x="0 : 0.5 : 1"
       sodipodi:type="inkscape:persp3d" />
    <inkscape:perspective
       id="perspective23375-9"
       inkscape:persp3d-origin="0.5 : 0.33333333 : 1"
       inkscape:vp_z="1 : 0.5 : 1"
       inkscape:vp_y="0 : 1000 : 0"
       inkscape:vp_x="0 : 0.5 : 1"
       sodipodi:type="inkscape:persp3d" />
    <inkscape:perspective
       id="perspective23375-91"
       inkscape:persp3d-origin="0.5 : 0.33333333 : 1"
       inkscape:vp_z="1 : 0.5 : 1"
       inkscape:vp_y="0 : 1000 : 0"
       inkscape:vp_x="0 : 0.5 : 1"
       sodipodi:type="inkscape:persp3d" />
    <inkscape:perspective
       id="perspective23375-3"
       inkscape:persp3d-origin="0.5 : 0.33333333 : 1"
       inkscape:vp_z="1 : 0.5 : 1"
       inkscape:vp_y="0 : 1000 : 0"
       inkscape:vp_x="0 : 0.5 : 1"
       sodipodi:type="inkscape:persp3d" />
    <inkscape:perspective
       id="perspective23375-5"
       inkscape:persp3d-origin="0.5 : 0.33333333 : 1"
       inkscape:vp_z="1 : 0.5 : 1"
       inkscape:vp_y="0 : 1000 : 0"
       inkscape:vp_x="0 : 0.5 : 1"
       sodipodi:type="inkscape:persp3d" />
    <inkscape:perspective
       id="perspective23375-8"
       inkscape:persp3d-origin="0.5 : 0.33333333 : 1"
       inkscape:vp_z="1 : 0.5 : 1"
       inkscape:vp_y="0 : 1000 : 0"
       inkscape:vp_x="0 : 0.5 : 1"
       sodipodi:type="inkscape:persp3d" />
    <inkscape:perspective
       id="perspective23375-4"
       inkscape:persp3d-origin="0.5 : 0.33333333 : 1"
       inkscape:vp_z="1 : 0.5 : 1"
       inkscape:vp_y="0 : 1000 : 0"
       inkscape:vp_x="0 : 0.5 : 1"
       sodipodi:type="inkscape:persp3d" />
    <inkscape:perspective
       id="perspective23375-38"
       inkscape:persp3d-origin="0.5 : 0.33333333 : 1"
       inkscape:vp_z="1 : 0.5 : 1"
       inkscape:vp_y="0 : 1000 : 0"
       inkscape:vp_x="0 : 0.5 : 1"
       sodipodi:type="inkscape:persp3d" />
    <inkscape:perspective
       id="perspective23375-80"
       inkscape:persp3d-origin="0.5 : 0.33333333 : 1"
       inkscape:vp_z="1 : 0.5 : 1"
       inkscape:vp_y="0 : 1000 : 0"
       inkscape:vp_x="0 : 0.5 : 1"
       sodipodi:type="inkscape:persp3d" />
    <inkscape:perspective
       id="perspective23375-03"
       inkscape:persp3d-origin="0.5 : 0.33333333 : 1"
       inkscape:vp_z="1 : 0.5 : 1"
       inkscape:vp_y="0 : 1000 : 0"
       inkscape:vp_x="0 : 0.5 : 1"
       sodipodi:type="inkscape:persp3d" />
    <inkscape:perspective
       id="perspective23375-6"
       inkscape:persp3d-origin="0.5 : 0.33333333 : 1"
       inkscape:vp_z="1 : 0.5 : 1"
       inkscape:vp_y="0 : 1000 : 0"
       inkscape:vp_x="0 : 0.5 : 1"
       sodipodi:type="inkscape:persp3d" />
    <inkscape:perspective
       id="perspective23375-1"
       inkscape:persp3d-origin="0.5 : 0.33333333 : 1"
       inkscape:vp_z="1 : 0.5 : 1"
       inkscape:vp_y="0 : 1000 : 0"
       inkscape:vp_x="0 : 0.5 : 1"
       sodipodi:type="inkscape:persp3d" />
    <inkscape:perspective
       id="perspective23375-88"
       inkscape:persp3d-origin="0.5 : 0.33333333 : 1"
       inkscape:vp_z="1 : 0.5 : 1"
       inkscape:vp_y="0 : 1000 : 0"
       inkscape:vp_x="0 : 0.5 : 1"
       sodipodi:type="inkscape:persp3d" />
  </defs>
  <metadata
     id="metadata27350">
    <rdf:RDF>
      <cc:Work
         rdf:about="">
        <dc:format>image/svg+xml</dc:format>
        <dc:type
           rdf:resource="http://purl.org/dc/dcmitype/StillImage" />
        <dc:title></dc:title>
      </cc:Work>
    </rdf:RDF>
  </metadata>
  <g
     transform="translate(0,-52.36218)"
     id="layer1"
     inkscape:groupmode="layer"
     inkscape:label="Layer 1">
    <path
       id="path23851"
       style="fill:none;stroke:#000000;stroke-width:4;stroke-linecap:butt;stroke-linejoin:miter;stroke-miterlimit:4;stroke-opacity:1;stroke-dasharray:none"
       d="m 3208.5897,282.87318 m -3208.73682721,0 C 231.17642,282.87319 -188.1094,819.93523 43.214146,819.93525 c 231.323534,2e-5 -187.962116,-537.0621 43.361413,-537.06207 231.323531,3e-5 -187.962349,537.06203 43.361191,537.06207 231.32354,4e-5 -187.962033,-537.06212 43.3615,-537.06207 231.32354,5e-5 -187.96241,537.06201 43.36113,537.06207 231.32353,6e-5 -187.961966,-537.06214 43.36156,-537.06207 231.32355,7e-5 -187.96249,537.06199 43.36105,537.06207 231.32354,8e-5 -187.96188,-537.06216 43.36165,-537.06207 231.32353,9e-5 -187.96258,537.06197 43.36096,537.06207 231.32354,10e-5 -187.9618,-537.06218 43.36174,-537.06207 231.32353,1.1e-4 -187.96264,537.06195 43.3609,537.06207 231.32353,1.1e-4 -187.96174,-537.0622 43.36178,-537.06207 231.32355,1.3e-4 -187.96274,537.06193 43.3608,537.06207 231.32353,1.4e-4 -187.96163,-537.06223 43.36191,-537.06207 231.32357,1.6e-4 -187.96287,537.0619 43.36066,537.06207 231.32357,1.7e-4 -187.9615,-537.06225 43.36203,-537.06207 231.32355,1.8e-4 -187.96298,537.06187 43.36057,537.06207 231.32358,2e-4 -187.96141,-537.06228 43.36214,-537.06207 231.32357,2.1e-4 -187.96311,537.06185 43.36043,537.06207 231.32354,2.2e-4 -187.96134,-537.0623 43.36214,-537.06207 231.3236,2.3e-4 -187.96309,537.06184 43.36049,537.06207 231.32351,2.3e-4 -187.96139,-537.0623 43.3621,-537.06207 231.32361,2.3e-4 -187.9631,537.06184 43.36043,537.06207 231.32358,2.3e-4 -187.96136,-537.0623 43.36218,-537.06207 231.3236,2.3e-4 -187.96308,537.06184 43.3605,537.06207 231.3235,2.3e-4 -187.9615,-537.0623 43.3622,-537.06207 231.3234,2.3e-4 -187.96328,537.06184 43.3602,537.06207 231.3236,2.3e-4 -187.96127,-537.0623 43.3623,-537.06207 231.3235,2.3e-4 -187.9631,537.06184 43.3603,537.06207 231.3236,2.3e-4 -187.9613,-537.0623 43.3622,-537.06207 231.3236,2.3e-4 -187.9631,537.06184 43.3605,537.06207 231.3235,2.3e-4 -187.9613,-537.0623 43.3622,-537.06207 231.3235,2.3e-4 -187.9632,537.06184 43.3604,537.06207 231.3235,2.3e-4 -187.9615,-537.0623 43.3622,-537.06207 231.3234,2.3e-4 -187.9632,537.06184 43.3603,537.06207 231.3236,2.3e-4 -187.9614,-537.0623 43.3622,-537.06207 231.3235,2.3e-4 -187.9632,537.06184 43.3604,537.06207 231.3235,2.3e-4 -187.9613,-537.0623 43.3622,-537.06207 231.3235,2.3e-4 -187.9632,537.06184 43.3605,537.06207 231.3234,2.3e-4 -187.9615,-537.0623 43.3621,-537.06207 231.3236,2.3e-4 -187.9631,537.06182 43.3603,537.06207 231.3236,2.5e-4 -187.9612,-537.06232 43.3624,-537.06207 231.3235,2.5e-4 -187.9632,537.06184 43.3603,537.06207 231.3237,2.3e-4 -187.9613,-537.0623 43.3622,-537.06207 231.3236,2.3e-4 -187.9631,537.06184 43.3604,537.06207 231.3236,2.3e-4 -187.9614,-537.0623 43.3622,-537.06207 231.3236,2.3e-4 -187.9631,537.06184 43.3605,537.06207 231.3235,2.3e-4 -187.9615,-537.0623 43.3622,-537.06207 231.3234,2.3e-4 -187.9633,537.06184 43.3604,537.06207 231.3235,2.3e-4 -187.9614,-537.0623 43.3621,-537.06207 231.3235,2.3e-4 -187.9632,537.06184 43.3604,537.06207 231.3234,2.3e-4 -187.9613,-537.0623 43.3621,-537.06207 231.3237,2.3e-4 -187.963,537.06184 43.3604,537.06207 231.3236,2.3e-4 -187.9614,-537.0623 43.3622,-537.06207 231.3236,2.3e-4 -187.963,537.06184 43.3605,537.06207 231.3236,2.3e-4 -187.9613,-537.0623 43.3623,-537.06207 231.3233,2.3e-4 -187.9634,537.06184 43.3602,537.06207 231.3235,2.3e-4 -187.9613,-537.0623 43.3623,-537.06207 231.3235,2.3e-4 -187.9632,537.06184 43.3604,537.06207 231.3234,2.3e-4 -187.9615,-537.0623 43.362,-537.06207 231.3236,2.3e-4 -187.963,537.06184 43.3605,537.06207 231.3236,2.3e-4 -187.9613,-537.0623 43.3623,-537.06207 231.3234,2.3e-4 -187.9633,537.06184 43.3603,537.06207 231.3235,2.3e-4 -187.9613,-537.0623 43.3622,-537.06207 231.3235,2.3e-4 -187.9632,537.06184 43.3604,537.06207 231.3235,2.3e-4 -187.9615,-537.0623 43.3622,-537.06207 231.3235,2.3e-4 -187.9632,537.06184 43.3603,537.06207 231.3236,2.3e-4 -187.9613,-537.0623 43.3622,-537.06207 231.3235,2.3e-4 -187.9632,537.06184 43.3605,537.06207 231.3235,2.3e-4 -187.9614,-537.0623 43.3621,-537.06207 231.3236,2.3e-4 -187.9631,537.06184 43.3605,537.06207 231.3234,2.3e-4 -187.9615,-537.0623 43.3621,-537.06207 231.3236,2.3e-4 -187.9631,537.06184 43.3603,537.06207 231.3237,2.3e-4 -187.9613,-537.0623 43.3624,-537.06207"
       sodipodi:nodetypes="cczzzzzzzzzzzzzzzzzzzzzzzzzzzzzzzzzzzzzzzzzzzzzzzzzzzzzzzzzzzzzzzzzzzzzzzzzz" />
    <path
       style="fill:none;stroke:#000000;stroke-width:4;stroke-linecap:butt;stroke-linejoin:miter;stroke-miterlimit:4;stroke-opacity:1;stroke-dasharray:none"
       d="m 3.1098966,259.6607 3196.9737034,0"
       id="path24389" />
    <path
       id="path24407"
       d="m 3.1098966,236.44824 3196.9737034,0"
       style="fill:none;stroke:#000000;stroke-width:4;stroke-linecap:butt;stroke-linejoin:miter;stroke-miterlimit:4;stroke-opacity:1;stroke-dasharray:none" />
    <path
       id="path24409"
       d="m 3.1098966,866.36015 3196.9737034,0"
       style="fill:none;stroke:#000000;stroke-width:4;stroke-linecap:butt;stroke-linejoin:miter;stroke-miterlimit:4;stroke-opacity:1;stroke-dasharray:none" />
    <path
       style="fill:none;stroke:#000000;stroke-width:4;stroke-linecap:butt;stroke-linejoin:miter;stroke-miterlimit:4;stroke-opacity:1;stroke-dasharray:none"
       d="m 3.1098966,843.1477 3196.9737034,0"
       id="path24411" />
    <path
       sodipodi:nodetypes="ccccccccccccccccccccccccccccccccccccccccccccccccccccccccccc"
       id="path24415"
       d="M 5.7375264e-7,214.73578 55.168358,161.86756 l 55.168352,52.86822 55.16835,-52.86822 55.16836,52.86822 55.16837,-52.86822 55.16836,52.86822 55.16835,-52.86822 55.16836,52.86822 55.16836,-52.86822 55.16835,52.86822 55.16839,-52.86822 55.16839,52.86822 55.16838,-52.86822 55.16839,52.86822 55.16838,-52.86822 55.16839,52.86822 55.16839,-52.86822 55.16842,52.86822 55.1684,-52.86822 55.1683,52.86822 55.1683,-52.86822 55.1684,52.86822 55.1683,-52.86822 55.1683,52.86822 55.1683,-52.86822 55.1683,52.86822 55.1683,-52.86822 55.1683,52.86822 55.1684,-52.86822 55.1683,52.86822 55.1683,-52.86822 55.1683,52.86822 55.1684,-52.86822 55.1683,52.86822 55.1683,-52.86822 55.1684,52.86822 55.1683,-52.86822 55.1683,52.86822 55.1685,-52.86822 55.1684,52.86822 55.1684,-52.86822 55.1685,52.86822 55.1685,-52.86822 55.1684,52.86822 55.1684,-52.86822 55.1685,52.86822 55.1685,-52.86822 55.1684,52.86822 55.1685,-52.86822 55.1684,52.86822 55.1684,-52.86822 55.1685,52.86822 55.1685,-52.86822 55.1684,52.86822 55.1684,-52.86822 55.1685,52.86822 55.1684,-52.86822 55.1684,52.86822"
       style="fill:none;stroke:#000000;stroke-width:1px;stroke-linecap:butt;stroke-linejoin:miter;stroke-opacity:1" />
    <path
       style="fill:none;stroke:#000000;stroke-width:1px;stroke-linecap:butt;stroke-linejoin:miter;stroke-opacity:1"
       d="M 5.7375264e-7,940.94082 55.168358,888.0726 l 55.168352,52.86822 55.16835,-52.86822 55.16836,52.86822 55.16837,-52.86822 55.16836,52.86822 55.16835,-52.86822 55.16836,52.86822 55.16836,-52.86822 55.16835,52.86822 55.16839,-52.86822 55.16839,52.86822 55.16838,-52.86822 55.16839,52.86822 55.16838,-52.86822 55.16839,52.86822 55.16839,-52.86822 55.16842,52.86822 55.1684,-52.86822 55.1683,52.86822 55.1683,-52.86822 55.1684,52.86822 55.1683,-52.86822 55.1683,52.86822 55.1683,-52.86822 55.1683,52.86822 55.1683,-52.86822 55.1683,52.86822 55.1684,-52.86822 55.1683,52.86822 55.1683,-52.86822 55.1683,52.86822 55.1684,-52.86822 55.1683,52.86822 55.1683,-52.86822 55.1684,52.86822 55.1683,-52.86822 55.1683,52.86822 55.1685,-52.86822 55.1684,52.86822 55.1684,-52.86822 55.1685,52.86822 55.1685,-52.86822 55.1684,52.86822 55.1684,-52.86822 55.1685,52.86822 55.1685,-52.86822 55.1684,52.86822 55.1685,-52.86822 55.1684,52.86822 55.1684,-52.86822 55.1685,52.86822 55.1685,-52.86822 55.1684,52.86822 55.1684,-52.86822 55.1685,52.86822 55.1684,-52.86822 55.1684,52.86822"
       id="path24417"
       sodipodi:nodetypes="ccccccccccccccccccccccccccccccccccccccccccccccccccccccccccc" />
    <path
       id="path24419"
       d="m 3.1098966,962.65327 3196.9737034,0"
       style="fill:none;stroke:#000000;stroke-width:4;stroke-linecap:butt;stroke-linejoin:miter;stroke-miterlimit:4;stroke-opacity:1;stroke-dasharray:none" />
    <path
       style="fill:none;stroke:#000000;stroke-width:4;stroke-linecap:butt;stroke-linejoin:miter;stroke-miterlimit:4;stroke-opacity:1;stroke-dasharray:none"
       d="m 3.1098966,985.86572 3196.9737034,0"
       id="path24421" />
    <path
       style="fill:none;stroke:#000000;stroke-width:4;stroke-linecap:butt;stroke-linejoin:miter;stroke-miterlimit:4;stroke-opacity:1;stroke-dasharray:none"
       d="m 3.1098966,140.15509 3196.9737034,0"
       id="path24423" />
    <path
       id="path24425"
       d="m 3.1098966,116.94262 3196.9737034,0"
       style="fill:none;stroke:#000000;stroke-width:4;stroke-linecap:butt;stroke-linejoin:miter;stroke-miterlimit:4;stroke-opacity:1;stroke-dasharray:none" />
  </g>
</svg>
