  0
SECTION
  2
HEADER
  9
$ACADVER
  1
AC1014
  9
$HANDSEED
  5
FFFF
  9
$MEASUREMENT
 70
     1
  0
ENDSEC
  0
SECTION
  2
TABLES
  0
TABLE
  2
VPORT
  5
8
330
0
100
AcDbSymbolTable
 70
     4
  0
VPORT
  5
2E
330
8
100
AcDbSymbolTableRecord
100
AcDbViewportTableRecord
  2
*ACTIVE
 70
     0
 10
0.0
 20
0.0
 11
1.0
 21
1.0
 12
210.0
 22
148.5
 13
0.0
 23
0.0
 14
10.0
 24
10.0
 15
10.0
 25
10.0
 16
0.0
 26
0.0
 36
1.0
 17
0.0
 27
0.0
 37
0.0
 40
341.0
 41
1.24
 42
50.0
 43
0.0
 44
0.0
 50
0.0
 51
0.0
 71
     0
 72
   100
 73
     1
 74
     3
 75
     0
 76
     0
 77
     0
 78
     0
  0
ENDTAB
  0
TABLE
  2
LTYPE
  5
5
330
0
100
AcDbSymbolTable
 70
     1
  0
LTYPE
  5
14
330
5
100
AcDbSymbolTableRecord
100
AcDbLinetypeTableRecord
  2
BYBLOCK
 70
     0
  3

 72
    65
 73
     0
 40
0.0
  0
LTYPE
  5
15
330
5
100
AcDbSymbolTableRecord
100
AcDbLinetypeTableRecord
  2
BYLAYER
 70
     0
  3

 72
    65
 73
     0
 40
0.0
  0
LTYPE
  5
16
330
5
100
AcDbSymbolTableRecord
100
AcDbLinetypeTableRecord
  2
CONTINUOUS
 70
     0
  3
Solid line
 72
    65
 73
     0
 40
0.0
  0
ENDTAB
  0
TABLE
  2
LAYER
  5
2
100
AcDbSymbolTable
 70
2
  0
LAYER
  5
50
100
AcDbSymbolTableRecord
100
AcDbLayerTableRecord
  2
0
 70
0
  6
CONTINUOUS
  0
LAYER
  5
51
100
AcDbSymbolTableRecord
100
AcDbLayerTableRecord
  2
Layer_1
 70
0
  6
CONTINUOUS
  0
ENDTAB
  0
TABLE
  2
STYLE
  5
3
330
0
100
AcDbSymbolTable
 70
     1
  0
STYLE
  5
11
330
3
100
AcDbSymbolTableRecord
100
AcDbTextStyleTableRecord
  2
STANDARD
 70
     0
 40
0.0
 41
1.0
 50
0.0
 71
     0
 42
2.5
  3
txt
  4

  0
ENDTAB
  0
TABLE
  2
VIEW
  5
6
330
0
100
AcDbSymbolTable
 70
     0
  0
ENDTAB
  0
TABLE
  2
UCS
  5
7
330
0
100
AcDbSymbolTable
 70
     0
  0
ENDTAB
  0
TABLE
  2
APPID
  5
9
330
0
100
AcDbSymbolTable
 70
     2
  0
APPID
  5
12
330
9
100
AcDbSymbolTableRecord
100
AcDbRegAppTableRecord
  2
ACAD
 70
     0
  0
ENDTAB
  0
TABLE
  2
DIMSTYLE
  5
A
330
0
100
AcDbSymbolTable
 70
     1
  0
DIMSTYLE
105
27
330
A
100
AcDbSymbolTableRecord
100
AcDbDimStyleTableRecord
  2
ISO-25
 70
     0
  3

  4

  5

  6

  7

 40
1.0
 41
2.5
 42
0.625
 43
3.75
 44
1.25
 45
0.0
 46
0.0
 47
0.0
 48
0.0
140
2.5
141
2.5
142
0.0
143
0.03937007874016
144
1.0
145
0.0
146
1.0
147
0.625
 71
     0
 72
     0
 73
     0
 74
     0
 75
     0
 76
     0
 77
     1
 78
     8
170
     0
171
     3
172
     1
173
     0
174
     0
175
     0
176
     0
177
     0
178
     0
270
     2
271
     2
272
     2
273
     2
274
     3
340
11
275
     0
280
     0
281
     0
282
     0
283
     0
284
     8
285
     0
286
     0
287
     3
288
     0
  0
ENDTAB
  0
TABLE
  2
BLOCK_RECORD
  5
1
330
0
100
AcDbSymbolTable
 70
     1
  0
BLOCK_RECORD
  5
1F
330
1
100
AcDbSymbolTableRecord
100
AcDbBlockTableRecord
  2
*MODEL_SPACE
  0
BLOCK_RECORD
  5
1B
330
1
100
AcDbSymbolTableRecord
100
AcDbBlockTableRecord
  2
*PAPER_SPACE
  0
ENDTAB
  0
ENDSEC
  0
SECTION
  2
BLOCKS
  0
BLOCK
  5
20
330
1F
100
AcDbEntity
  8
0
100
AcDbBlockBegin
  2
*MODEL_SPACE
 70
     0
 10
0.0
 20
0.0
 30
0.0
  3
*MODEL_SPACE
  1

  0
ENDBLK
  5
21
330
1F
100
AcDbEntity
  8
0
100
AcDbBlockEnd
  0
BLOCK
  5
1C
330
1B
100
AcDbEntity
 67
     1
  8
0
100
AcDbBlockBegin
  2
*PAPER_SPACE
  1

  0
ENDBLK
  5
1D
330
1B
100
AcDbEntity
 67
     1
  8
0
100
AcDbBlockEnd
  0
ENDSEC
  0
SECTION
  2
ENTITIES
  0
LWPOLYLINE
  5
100
100
AcDbEntity
  8
Layer_1
 62
7
100
AcDbPolyline
 90
19
 70
0
 10
0.000254
 20
21.000027
 30
0.0
 10
0.000254
 20
20.500073
 30
0.0
 10
4.842566
 20
20.500073
 30
0.0
 10
4.822915
 20
20.478583
 30
0.0
 10
4.822553
 20
20.447570
 30
0.0
 10
4.838824
 20
20.421325
 30
0.0
 10
4.869067
 20
20.414139
 30
0.0
 10
4.895048
 20
20.427278
 30
0.0
 10
4.904744
 20
20.453081
 30
0.0
 10
4.899289
 20
20.480897
 30
0.0
 10
4.879820
 20
20.500073
 30
0.0
 10
14.000226
 20
20.500073
 30
0.0
 10
14.000226
 20
21.000027
 30
0.0
 10
13.500269
 20
21.000027
 30
0.0
 10
13.500269
 20
20.600064
 30
0.0
 10
0.500267
 20
20.600064
 30
0.0
 10
0.500267
 20
21.000027
 30
0.0
 10
0.000254
 20
21.000027
 30
0.0
 10
0.000254
 20
21.000027
 30
0.0
  0
LWPOLYLINE
  5
101
100
AcDbEntity
  8
Layer_1
 62
7
100
AcDbPolyline
 90
15
 70
0
 10
4.961523
 20
20.486515
 30
0.0
 10
4.942435
 20
20.483705
 30
0.0
 10
4.928971
 20
20.473481
 30
0.0
 10
4.918576
 20
20.440470
 30
0.0
 10
4.929654
 20
20.406834
 30
0.0
 10
4.943032
 20
20.395829
 30
0.0
 10
4.961523
 20
20.391926
 30
0.0
 10
4.980302
 20
20.393854
 30
0.0
 10
4.994827
 20
20.402834
 30
0.0
 10
5.009811
 20
20.433443
 30
0.0
 10
5.003862
 20
20.466734
 30
0.0
 10
4.992220
 20
20.479067
 30
0.0
 10
4.974364
 20
20.485688
 30
0.0
 10
4.961523
 20
20.486507
 30
0.0
 10
4.961523
 20
20.486515
 30
0.0
  0
LWPOLYLINE
  5
102
100
AcDbEntity
  8
Layer_1
 62
7
100
AcDbPolyline
 90
17
 70
0
 10
10.622280
 20
20.474001
 30
0.0
 10
10.501969
 20
20.465652
 30
0.0
 10
10.445369
 20
20.447141
 30
0.0
 10
10.395881
 20
20.412542
 30
0.0
 10
10.453693
 20
20.409775
 30
0.0
 10
10.508449
 20
20.392860
 30
0.0
 10
10.559549
 20
20.365721
 30
0.0
 10
10.606391
 20
20.332284
 30
0.0
 10
10.634624
 20
20.334269
 30
0.0
 10
10.656507
 20
20.350934
 30
0.0
 10
10.669192
 20
20.376229
 30
0.0
 10
10.669834
 20
20.404106
 30
0.0
 10
10.671834
 20
20.428891
 30
0.0
 10
10.663837
 20
20.452696
 30
0.0
 10
10.646951
 20
20.469680
 30
0.0
 10
10.622280
 20
20.474001
 30
0.0
 10
10.622280
 20
20.474001
 30
0.0
  0
LWPOLYLINE
  5
103
100
AcDbEntity
  8
Layer_1
 62
7
100
AcDbPolyline
 90
17
 70
0
 10
5.041336
 20
19.945495
 30
0.0
 10
5.038457
 20
19.943294
 30
0.0
 10
5.016298
 20
19.908318
 30
0.0
 10
5.016507
 20
19.868004
 30
0.0
 10
5.040150
 20
19.786751
 30
0.0
 10
5.055487
 20
19.737893
 30
0.0
 10
5.078963
 20
19.690855
 30
0.0
 10
5.112080
 20
19.651788
 30
0.0
 10
5.156341
 20
19.626841
 30
0.0
 10
5.184163
 20
19.643224
 30
0.0
 10
5.192543
 20
19.672539
 30
0.0
 10
5.186392
 20
19.705821
 30
0.0
 10
5.170622
 20
19.734108
 30
0.0
 10
5.120644
 20
19.851179
 30
0.0
 10
5.089099
 20
19.905293
 30
0.0
 10
5.041307
 20
19.945501
 30
0.0
 10
5.041336
 20
19.945495
 30
0.0
  0
LWPOLYLINE
  5
104
100
AcDbEntity
  8
Layer_1
 62
7
100
AcDbPolyline
 90
15
 70
0
 10
10.486672
 20
19.930283
 30
0.0
 10
10.477359
 20
19.930001
 30
0.0
 10
10.434132
 20
19.890707
 30
0.0
 10
10.406539
 20
19.839325
 30
0.0
 10
10.384454
 20
19.783631
 30
0.0
 10
10.357753
 20
19.731399
 30
0.0
 10
10.320944
 20
19.633868
 30
0.0
 10
10.295354
 20
19.532686
 30
0.0
 10
10.380172
 20
19.607897
 30
0.0
 10
10.451253
 20
19.698121
 30
0.0
 10
10.497824
 20
19.800739
 30
0.0
 10
10.508550
 20
19.855878
 30
0.0
 10
10.509109
 20
19.913133
 30
0.0
 10
10.486672
 20
19.930221
 30
0.0
 10
10.486672
 20
19.930283
 30
0.0
  0
LWPOLYLINE
  5
105
100
AcDbEntity
  8
Layer_1
 62
7
100
AcDbPolyline
 90
17
 70
0
 10
3.820894
 20
19.866727
 30
0.0
 10
3.818918
 20
19.862262
 30
0.0
 10
3.807091
 20
19.812298
 30
0.0
 10
3.812822
 20
19.761494
 30
0.0
 10
3.839492
 20
19.660959
 30
0.0
 10
3.855422
 20
19.637956
 30
0.0
 10
3.880044
 20
19.623583
 30
0.0
 10
3.906036
 20
19.623406
 30
0.0
 10
3.926078
 20
19.642990
 30
0.0
 10
3.930563
 20
19.682296
 30
0.0
 10
3.920448
 20
19.720521
 30
0.0
 10
3.906480
 20
19.758677
 30
0.0
 10
3.899408
 20
19.797772
 30
0.0
 10
3.872135
 20
19.847134
 30
0.0
 10
3.849041
 20
19.862592
 30
0.0
 10
3.820922
 20
19.866727
 30
0.0
 10
3.820894
 20
19.866727
 30
0.0
  0
LWPOLYLINE
  5
106
100
AcDbEntity
  8
Layer_1
 62
7
100
AcDbPolyline
 90
13
 70
0
 10
11.685722
 20
19.862649
 30
0.0
 10
11.648017
 20
19.831147
 30
0.0
 10
11.628709
 20
19.786494
 30
0.0
 10
11.603595
 20
19.689458
 30
0.0
 10
11.592729
 20
19.606842
 30
0.0
 10
11.588383
 20
19.523432
 30
0.0
 10
11.646197
 20
19.591854
 30
0.0
 10
11.689493
 20
19.670793
 30
0.0
 10
11.713998
 20
19.756694
 30
0.0
 10
11.715440
 20
19.846001
 30
0.0
 10
11.702877
 20
19.858906
 30
0.0
 10
11.685722
 20
19.862649
 30
0.0
 10
11.685722
 20
19.862649
 30
0.0
  0
LWPOLYLINE
  5
107
100
AcDbEntity
  8
Layer_1
 62
7
100
AcDbPolyline
 90
15
 70
0
 10
1.439531
 20
19.813647
 30
0.0
 10
1.410403
 20
19.794895
 30
0.0
 10
1.401244
 20
19.763260
 30
0.0
 10
1.407340
 20
19.727742
 30
0.0
 10
1.423980
 20
19.697340
 30
0.0
 10
1.437272
 20
19.670052
 30
0.0
 10
1.462073
 20
19.650511
 30
0.0
 10
1.490441
 20
19.646032
 30
0.0
 10
1.514433
 20
19.663936
 30
0.0
 10
1.518191
 20
19.704120
 30
0.0
 10
1.513935
 20
19.745995
 30
0.0
 10
1.498435
 20
19.783290
 30
0.0
 10
1.468459
 20
19.809732
 30
0.0
 10
1.439531
 20
19.813647
 30
0.0
 10
1.439531
 20
19.813647
 30
0.0
  0
LWPOLYLINE
  5
108
100
AcDbEntity
  8
Layer_1
 62
7
100
AcDbPolyline
 90
15
 70
0
 10
3.676198
 20
19.667961
 30
0.0
 10
3.571565
 20
19.647508
 30
0.0
 10
3.469047
 20
19.619729
 30
0.0
 10
3.496337
 20
19.614986
 30
0.0
 10
3.518729
 20
19.601770
 30
0.0
 10
3.550610
 20
19.558543
 30
0.0
 10
3.572278
 20
19.537364
 30
0.0
 10
3.600432
 20
19.535742
 30
0.0
 10
3.654467
 20
19.563558
 30
0.0
 10
3.706185
 20
19.592312
 30
0.0
 10
3.722722
 20
19.615185
 30
0.0
 10
3.722003
 20
19.643210
 30
0.0
 10
3.702043
 20
19.661457
 30
0.0
 10
3.676198
 20
19.667961
 30
0.0
 10
3.676198
 20
19.667961
 30
0.0
  0
LWPOLYLINE
  5
109
100
AcDbEntity
  8
Layer_1
 62
7
100
AcDbPolyline
 90
14
 70
0
 10
2.632089
 20
19.662833
 30
0.0
 10
2.514233
 20
19.662438
 30
0.0
 10
2.409479
 20
19.649332
 30
0.0
 10
2.358515
 20
19.637568
 30
0.0
 10
2.312472
 20
19.613822
 30
0.0
 10
2.310262
 20
19.573119
 30
0.0
 10
2.332256
 20
19.537469
 30
0.0
 10
2.367924
 20
19.519131
 30
0.0
 10
2.387594
 20
19.520286
 30
0.0
 10
2.406735
 20
19.530366
 30
0.0
 10
2.528884
 20
19.582318
 30
0.0
 10
2.585428
 20
19.615786
 30
0.0
 10
2.632089
 20
19.662824
 30
0.0
 10
2.632089
 20
19.662833
 30
0.0
  0
LWPOLYLINE
  5
10a
100
AcDbEntity
  8
Layer_1
 62
7
100
AcDbPolyline
 90
17
 70
0
 10
12.968591
 20
19.659471
 30
0.0
 10
12.946824
 20
19.645696
 30
0.0
 10
12.944867
 20
19.621649
 30
0.0
 10
12.957911
 20
19.598392
 30
0.0
 10
12.981150
 20
19.586985
 30
0.0
 10
13.127722
 20
19.524176
 30
0.0
 10
13.202765
 20
19.497585
 30
0.0
 10
13.279967
 20
19.478398
 30
0.0
 10
13.237827
 20
19.523753
 30
0.0
 10
13.230020
 20
19.552126
 30
0.0
 10
13.239609
 20
19.581694
 30
0.0
 10
13.228420
 20
19.613566
 30
0.0
 10
13.200874
 20
19.630234
 30
0.0
 10
13.132844
 20
19.641612
 30
0.0
 10
13.051109
 20
19.654739
 30
0.0
 10
12.968591
 20
19.659471
 30
0.0
 10
12.968591
 20
19.659471
 30
0.0
  0
LWPOLYLINE
  5
10b
100
AcDbEntity
  8
Layer_1
 62
7
100
AcDbPolyline
 90
16
 70
0
 10
11.857821
 20
19.654123
 30
0.0
 10
11.844161
 20
19.654123
 30
0.0
 10
11.826108
 20
19.647118
 30
0.0
 10
11.815284
 20
19.634415
 30
0.0
 10
11.812573
 20
19.600324
 30
0.0
 10
11.830532
 20
19.568658
 30
0.0
 10
11.863663
 20
19.556229
 30
0.0
 10
11.929085
 20
19.519981
 30
0.0
 10
11.964219
 20
19.514032
 30
0.0
 10
11.996392
 20
19.531755
 30
0.0
 10
12.009535
 20
19.564630
 30
0.0
 10
12.005592
 20
19.600623
 30
0.0
 10
11.985859
 20
19.628337
 30
0.0
 10
11.951631
 20
19.636374
 30
0.0
 10
11.857821
 20
19.654180
 30
0.0
 10
11.857821
 20
19.654123
 30
0.0
  0
LWPOLYLINE
  5
10c
100
AcDbEntity
  8
Layer_1
 62
7
100
AcDbPolyline
 90
16
 70
0
 10
4.287915
 20
18.876305
 30
0.0
 10
4.290737
 20
18.859546
 30
0.0
 10
4.307147
 20
18.768929
 30
0.0
 10
4.346833
 20
18.686614
 30
0.0
 10
4.403795
 20
18.613969
 30
0.0
 10
4.472037
 20
18.552356
 30
0.0
 10
4.489701
 20
18.549989
 30
0.0
 10
4.504296
 20
18.555398
 30
0.0
 10
4.522505
 20
18.581691
 30
0.0
 10
4.523115
 20
18.615515
 30
0.0
 10
4.502573
 20
18.641154
 30
0.0
 10
4.404797
 20
18.768002
 30
0.0
 10
4.350935
 20
18.826837
 30
0.0
 10
4.287972
 20
18.876305
 30
0.0
 10
4.287972
 20
18.876305
 30
0.0
 10
4.287915
 20
18.876305
 30
0.0
  0
LWPOLYLINE
  5
10d
100
AcDbEntity
  8
Layer_1
 62
7
100
AcDbPolyline
 90
15
 70
0
 10
11.241334
 20
18.867539
 30
0.0
 10
11.227336
 20
18.857342
 30
0.0
 10
11.151097
 20
18.794324
 30
0.0
 10
11.086140
 20
18.719961
 30
0.0
 10
10.977203
 20
18.554947
 30
0.0
 10
10.984960
 20
18.531833
 30
0.0
 10
11.006286
 20
18.524108
 30
0.0
 10
11.031717
 20
18.528825
 30
0.0
 10
11.051794
 20
18.543040
 30
0.0
 10
11.102690
 20
18.586136
 30
0.0
 10
11.145929
 20
18.637132
 30
0.0
 10
11.215426
 20
18.751232
 30
0.0
 10
11.231291
 20
18.808688
 30
0.0
 10
11.241334
 20
18.867539
 30
0.0
 10
11.241334
 20
18.867539
 30
0.0
  0
LWPOLYLINE
  5
10e
100
AcDbEntity
  8
Layer_1
 62
7
100
AcDbPolyline
 90
16
 70
0
 10
1.195550
 20
18.745941
 30
0.0
 10
1.014913
 20
18.664327
 30
0.0
 10
0.840458
 20
18.570875
 30
0.0
 10
0.832743
 20
18.540603
 30
0.0
 10
0.850071
 20
18.515186
 30
0.0
 10
0.880125
 20
18.503103
 30
0.0
 10
0.910590
 20
18.512834
 30
0.0
 10
1.126381
 20
18.586239
 30
0.0
 10
1.232968
 20
18.626067
 30
0.0
 10
1.335165
 20
18.676432
 30
0.0
 10
1.275927
 20
18.677454
 30
0.0
 10
1.250416
 20
18.685918
 30
0.0
 10
1.240818
 20
18.711160
 30
0.0
 10
1.224333
 20
18.736963
 30
0.0
 10
1.195550
 20
18.745941
 30
0.0
 10
1.195550
 20
18.745941
 30
0.0
  0
LWPOLYLINE
  5
10f
100
AcDbEntity
  8
Layer_1
 62
7
100
AcDbPolyline
 90
14
 70
0
 10
12.464175
 20
18.722183
 30
0.0
 10
12.416096
 20
18.678928
 30
0.0
 10
12.383541
 20
18.622851
 30
0.0
 10
12.342678
 20
18.498116
 30
0.0
 10
12.342482
 20
18.480727
 30
0.0
 10
12.350503
 20
18.466364
 30
0.0
 10
12.362959
 20
18.461992
 30
0.0
 10
12.376065
 20
18.474578
 30
0.0
 10
12.423607
 20
18.523530
 30
0.0
 10
12.464422
 20
18.580019
 30
0.0
 10
12.490580
 20
18.642630
 30
0.0
 10
12.494147
 20
18.709946
 30
0.0
 10
12.464175
 20
18.722183
 30
0.0
 10
12.464175
 20
18.722183
 30
0.0
  0
LWPOLYLINE
  5
110
100
AcDbEntity
  8
Layer_1
 62
7
100
AcDbPolyline
 90
15
 70
0
 10
3.075968
 20
18.700080
 30
0.0
 10
3.047938
 20
18.681606
 30
0.0
 10
3.039537
 20
18.650995
 30
0.0
 10
3.045619
 20
18.616581
 30
0.0
 10
3.061039
 20
18.586697
 30
0.0
 10
3.074835
 20
18.559820
 30
0.0
 10
3.096546
 20
18.535975
 30
0.0
 10
3.123130
 20
18.524413
 30
0.0
 10
3.151547
 20
18.534384
 30
0.0
 10
3.162234
 20
18.573357
 30
0.0
 10
3.152122
 20
18.612514
 30
0.0
 10
3.106787
 20
18.682827
 30
0.0
 10
3.094140
 20
18.696112
 30
0.0
 10
3.075968
 20
18.700080
 30
0.0
 10
3.075968
 20
18.700080
 30
0.0
  0
LWPOLYLINE
  5
111
100
AcDbEntity
  8
Layer_1
 62
7
100
AcDbPolyline
 90
17
 70
0
 10
4.224472
 20
18.617287
 30
0.0
 10
4.216936
 20
18.616948
 30
0.0
 10
4.105610
 20
18.566409
 30
0.0
 10
4.003492
 20
18.499871
 30
0.0
 10
4.032332
 20
18.504391
 30
0.0
 10
4.060186
 20
18.499996
 30
0.0
 10
4.084141
 20
18.486100
 30
0.0
 10
4.101282
 20
18.462113
 30
0.0
 10
4.126561
 20
18.449436
 30
0.0
 10
4.152745
 20
18.455169
 30
0.0
 10
4.195149
 20
18.492982
 30
0.0
 10
4.223242
 20
18.514722
 30
0.0
 10
4.247198
 20
18.543306
 30
0.0
 10
4.257807
 20
18.575763
 30
0.0
 10
4.245864
 20
18.609122
 30
0.0
 10
4.224472
 20
18.617281
 30
0.0
 10
4.224472
 20
18.617287
 30
0.0
  0
LWPOLYLINE
  5
112
100
AcDbEntity
  8
Layer_1
 62
7
100
AcDbPolyline
 90
18
 70
0
 10
11.309689
 20
18.605273
 30
0.0
 10
11.296904
 20
18.605273
 30
0.0
 10
11.271215
 20
18.586810
 30
0.0
 10
11.266145
 20
18.557249
 30
0.0
 10
11.277231
 20
18.526372
 30
0.0
 10
11.300008
 20
18.503958
 30
0.0
 10
11.349291
 20
18.460407
 30
0.0
 10
11.377645
 20
18.445775
 30
0.0
 10
11.410301
 20
18.448450
 30
0.0
 10
11.428922
 20
18.460000
 30
0.0
 10
11.440645
 20
18.476601
 30
0.0
 10
11.444986
 20
18.516815
 30
0.0
 10
11.426509
 20
18.552805
 30
0.0
 10
11.409710
 20
18.564127
 30
0.0
 10
11.388400
 20
18.568285
 30
0.0
 10
11.350579
 20
18.590928
 30
0.0
 10
11.309689
 20
18.605326
 30
0.0
 10
11.309689
 20
18.605273
 30
0.0
  0
LWPOLYLINE
  5
113
100
AcDbEntity
  8
Layer_1
 62
7
100
AcDbPolyline
 90
15
 70
0
 10
3.055366
 20
18.580798
 30
0.0
 10
3.039054
 20
18.579049
 30
0.0
 10
2.943290
 20
18.564309
 30
0.0
 10
2.851009
 20
18.534828
 30
0.0
 10
2.763067
 20
18.493584
 30
0.0
 10
2.680321
 20
18.443559
 30
0.0
 10
2.734896
 20
18.441388
 30
0.0
 10
2.758196
 20
18.428610
 30
0.0
 10
2.774611
 20
18.406077
 30
0.0
 10
2.802055
 20
18.389229
 30
0.0
 10
2.832446
 20
18.394178
 30
0.0
 10
2.886089
 20
18.432369
 30
0.0
 10
2.979205
 20
18.497004
 30
0.0
 10
3.055366
 20
18.580812
 30
0.0
 10
3.055366
 20
18.580798
 30
0.0
  0
LWPOLYLINE
  5
114
100
AcDbEntity
  8
Layer_1
 62
7
100
AcDbPolyline
 90
16
 70
0
 10
12.471823
 20
18.580403
 30
0.0
 10
12.482520
 20
18.567779
 30
0.0
 10
12.544092
 20
18.499878
 30
0.0
 10
12.615563
 20
18.442990
 30
0.0
 10
12.770640
 20
18.344979
 30
0.0
 10
12.785919
 20
18.356203
 30
0.0
 10
12.784755
 20
18.372571
 30
0.0
 10
12.775438
 20
18.407209
 30
0.0
 10
12.793018
 20
18.437236
 30
0.0
 10
12.787873
 20
18.470587
 30
0.0
 10
12.765695
 20
18.497343
 30
0.0
 10
12.732173
 20
18.507587
 30
0.0
 10
12.604782
 20
18.555523
 30
0.0
 10
12.539463
 20
18.573479
 30
0.0
 10
12.471823
 20
18.580403
 30
0.0
 10
12.471823
 20
18.580403
 30
0.0
  0
LWPOLYLINE
  5
115
100
AcDbEntity
  8
Layer_1
 62
7
100
AcDbPolyline
 90
12
 70
0
 10
0.735415
 20
18.554715
 30
0.0
 10
0.710056
 20
18.539143
 30
0.0
 10
0.702469
 20
18.509157
 30
0.0
 10
0.712455
 20
18.479544
 30
0.0
 10
0.739817
 20
18.465087
 30
0.0
 10
0.768770
 20
18.475287
 30
0.0
 10
0.784729
 20
18.500836
 30
0.0
 10
0.783771
 20
18.530160
 30
0.0
 10
0.761972
 20
18.551684
 30
0.0
 10
0.745151
 20
18.554549
 30
0.0
 10
0.735415
 20
18.554831
 30
0.0
 10
0.735415
 20
18.554715
 30
0.0
  0
LWPOLYLINE
  5
116
100
AcDbEntity
  8
Layer_1
 62
7
100
AcDbPolyline
 90
12
 70
0
 10
0.027093
 20
18.485043
 30
0.0
 10
0.019586
 20
18.484338
 30
0.0
 10
0.000254
 20
18.474801
 30
0.0
 10
0.000254
 20
18.340359
 30
0.0
 10
0.084924
 20
18.374581
 30
0.0
 10
0.164959
 20
18.418741
 30
0.0
 10
0.103262
 20
18.418692
 30
0.0
 10
0.077666
 20
18.429185
 30
0.0
 10
0.068382
 20
18.456776
 30
0.0
 10
0.051823
 20
18.476972
 30
0.0
 10
0.027093
 20
18.485052
 30
0.0
 10
0.027093
 20
18.485043
 30
0.0
  0
LWPOLYLINE
  5
117
100
AcDbEntity
  8
Layer_1
 62
7
100
AcDbPolyline
 90
16
 70
0
 10
7.772174
 20
18.155580
 30
0.0
 10
7.655588
 20
18.155298
 30
0.0
 10
7.587693
 20
18.144046
 30
0.0
 10
7.527629
 20
18.111037
 30
0.0
 10
7.634834
 20
18.071170
 30
0.0
 10
7.749021
 20
18.051671
 30
0.0
 10
7.806156
 20
18.052449
 30
0.0
 10
7.861944
 20
18.061784
 30
0.0
 10
7.915354
 20
18.080835
 30
0.0
 10
7.965355
 20
18.110754
 30
0.0
 10
7.960998
 20
18.136210
 30
0.0
 10
7.940911
 20
18.148152
 30
0.0
 10
7.888676
 20
18.151214
 30
0.0
 10
7.772174
 20
18.155402
 30
0.0
 10
7.772174
 20
18.155402
 30
0.0
 10
7.772174
 20
18.155580
 30
0.0
  0
LWPOLYLINE
  5
118
100
AcDbEntity
  8
Layer_1
 62
7
100
AcDbPolyline
 90
13
 70
0
 10
6.610576
 20
18.139211
 30
0.0
 10
6.592156
 20
18.130638
 30
0.0
 10
6.579245
 20
18.115558
 30
0.0
 10
6.570176
 20
18.075948
 30
0.0
 10
6.583818
 20
18.040532
 30
0.0
 10
6.599297
 20
18.030695
 30
0.0
 10
6.620623
 20
18.029463
 30
0.0
 10
6.646457
 20
18.056360
 30
0.0
 10
6.656567
 20
18.093993
 30
0.0
 10
6.646194
 20
18.126798
 30
0.0
 10
6.631838
 20
18.136526
 30
0.0
 10
6.610576
 20
18.139211
 30
0.0
 10
6.610576
 20
18.139211
 30
0.0
  0
LWPOLYLINE
  5
119
100
AcDbEntity
  8
Layer_1
 62
7
100
AcDbPolyline
 90
17
 70
0
 10
5.027648
 20
17.754737
 30
0.0
 10
4.972935
 20
17.722187
 30
0.0
 10
4.924587
 20
17.680349
 30
0.0
 10
4.837656
 20
17.586174
 30
0.0
 10
4.889161
 20
17.598044
 30
0.0
 10
4.914276
 20
17.592198
 30
0.0
 10
4.936095
 20
17.575757
 30
0.0
 10
4.964257
 20
17.566498
 30
0.0
 10
4.990049
 20
17.577375
 30
0.0
 10
5.010517
 20
17.600313
 30
0.0
 10
5.022709
 20
17.627240
 30
0.0
 10
5.045940
 20
17.657590
 30
0.0
 10
5.061723
 20
17.696602
 30
0.0
 10
5.059233
 20
17.732807
 30
0.0
 10
5.047754
 20
17.746273
 30
0.0
 10
5.027648
 20
17.754737
 30
0.0
 10
5.027648
 20
17.754737
 30
0.0
  0
LWPOLYLINE
  5
11a
100
AcDbEntity
  8
Layer_1
 62
7
100
AcDbPolyline
 90
18
 70
0
 10
10.499626
 20
17.743933
 30
0.0
 10
10.484979
 20
17.743482
 30
0.0
 10
10.460492
 20
17.720209
 30
0.0
 10
10.458034
 20
17.688175
 30
0.0
 10
10.470509
 20
17.654869
 30
0.0
 10
10.490821
 20
17.627782
 30
0.0
 10
10.506056
 20
17.595966
 30
0.0
 10
10.531743
 20
17.570953
 30
0.0
 10
10.563505
 20
17.560505
 30
0.0
 10
10.596965
 20
17.572384
 30
0.0
 10
10.617965
 20
17.600195
 30
0.0
 10
10.619765
 20
17.634052
 30
0.0
 10
10.605176
 20
17.665435
 30
0.0
 10
10.577012
 20
17.685824
 30
0.0
 10
10.542150
 20
17.721576
 30
0.0
 10
10.522346
 20
17.736365
 30
0.0
 10
10.499626
 20
17.743922
 30
0.0
 10
10.499626
 20
17.743933
 30
0.0
  0
LWPOLYLINE
  5
11b
100
AcDbEntity
  8
Layer_1
 62
7
100
AcDbPolyline
 90
13
 70
0
 10
1.667623
 20
17.644495
 30
0.0
 10
1.656757
 20
17.644044
 30
0.0
 10
1.638078
 20
17.638730
 30
0.0
 10
1.626081
 20
17.626568
 30
0.0
 10
1.620428
 20
17.591676
 30
0.0
 10
1.636398
 20
17.559321
 30
0.0
 10
1.651427
 20
17.550329
 30
0.0
 10
1.670586
 20
17.549454
 30
0.0
 10
1.700861
 20
17.567557
 30
0.0
 10
1.709247
 20
17.599044
 30
0.0
 10
1.697562
 20
17.629494
 30
0.0
 10
1.667623
 20
17.644484
 30
0.0
 10
1.667623
 20
17.644495
 30
0.0
  0
LWPOLYLINE
  5
11c
100
AcDbEntity
  8
Layer_1
 62
7
100
AcDbPolyline
 90
16
 70
0
 10
3.707497
 20
17.628950
 30
0.0
 10
3.691072
 20
17.623382
 30
0.0
 10
3.604315
 20
17.590648
 30
0.0
 10
3.524194
 20
17.544590
 30
0.0
 10
3.373572
 20
17.436133
 30
0.0
 10
3.377532
 20
17.417482
 30
0.0
 10
3.392706
 20
17.412618
 30
0.0
 10
3.428690
 20
17.410835
 30
0.0
 10
3.446536
 20
17.385596
 30
0.0
 10
3.474413
 20
17.372954
 30
0.0
 10
3.503735
 20
17.376000
 30
0.0
 10
3.525915
 20
17.397824
 30
0.0
 10
3.627131
 20
17.505617
 30
0.0
 10
3.671667
 20
17.564328
 30
0.0
 10
3.707497
 20
17.628950
 30
0.0
 10
3.707497
 20
17.628950
 30
0.0
  0
LWPOLYLINE
  5
11d
100
AcDbEntity
  8
Layer_1
 62
7
100
AcDbPolyline
 90
14
 70
0
 10
11.825901
 20
17.624319
 30
0.0
 10
11.833521
 20
17.610044
 30
0.0
 10
11.881665
 20
17.526998
 30
0.0
 10
11.943376
 20
17.453942
 30
0.0
 10
12.078801
 20
17.317512
 30
0.0
 10
12.079340
 20
17.377800
 30
0.0
 10
12.086123
 20
17.406473
 30
0.0
 10
12.102677
 20
17.431065
 30
0.0
 10
12.097920
 20
17.468539
 30
0.0
 10
12.072415
 20
17.495023
 30
0.0
 10
12.006806
 20
17.537338
 30
0.0
 10
11.920682
 20
17.590066
 30
0.0
 10
11.825901
 20
17.624319
 30
0.0
 10
11.825901
 20
17.624319
 30
0.0
  0
LWPOLYLINE
  5
11e
100
AcDbEntity
  8
Layer_1
 62
7
100
AcDbPolyline
 90
16
 70
0
 10
1.109387
 20
17.546488
 30
0.0
 10
1.085167
 20
17.536589
 30
0.0
 10
1.071351
 20
17.514958
 30
0.0
 10
1.069017
 20
17.488738
 30
0.0
 10
1.079246
 20
17.465072
 30
0.0
 10
1.083513
 20
17.447003
 30
0.0
 10
1.095007
 20
17.434379
 30
0.0
 10
1.129302
 20
17.425294
 30
0.0
 10
1.161379
 20
17.437476
 30
0.0
 10
1.170102
 20
17.451436
 30
0.0
 10
1.170488
 20
17.470584
 30
0.0
 10
1.155188
 20
17.515814
 30
0.0
 10
1.144449
 20
17.535347
 30
0.0
 10
1.122849
 20
17.545661
 30
0.0
 10
1.109387
 20
17.546479
 30
0.0
 10
1.109387
 20
17.546488
 30
0.0
  0
LWPOLYLINE
  5
11f
100
AcDbEntity
  8
Layer_1
 62
7
100
AcDbPolyline
 90
10
 70
0
 10
13.947140
 20
17.434426
 30
0.0
 10
13.942399
 20
17.429354
 30
0.0
 10
13.941270
 20
17.428310
 30
0.0
 10
13.916546
 20
17.400941
 30
0.0
 10
13.883753
 20
17.385552
 30
0.0
 10
13.809811
 20
17.379748
 30
0.0
 10
14.000254
 20
17.158491
 30
0.0
 10
14.000254
 20
17.361392
 30
0.0
 10
13.947168
 20
17.434429
 30
0.0
 10
13.947140
 20
17.434426
 30
0.0
  0
LWPOLYLINE
  5
120
100
AcDbEntity
  8
Layer_1
 62
7
100
AcDbPolyline
 90
13
 70
0
 10
0.510117
 20
17.391542
 30
0.0
 10
0.491763
 20
17.387934
 30
0.0
 10
0.479199
 20
17.377305
 30
0.0
 10
0.470655
 20
17.344555
 30
0.0
 10
0.482907
 20
17.312423
 30
0.0
 10
0.496339
 20
17.302567
 30
0.0
 10
0.514378
 20
17.300040
 30
0.0
 10
0.544094
 20
17.312527
 30
0.0
 10
0.556313
 20
17.341157
 30
0.0
 10
0.549879
 20
17.371856
 30
0.0
 10
0.523635
 20
17.390549
 30
0.0
 10
0.510117
 20
17.391536
 30
0.0
 10
0.510117
 20
17.391542
 30
0.0
  0
LWPOLYLINE
  5
121
100
AcDbEntity
  8
Layer_1
 62
7
100
AcDbPolyline
 90
19
 70
0
 10
6.031089
 20
17.142614
 30
0.0
 10
6.027843
 20
17.140243
 30
0.0
 10
5.986298
 20
17.102335
 30
0.0
 10
5.954705
 20
17.056046
 30
0.0
 10
5.896977
 20
16.959056
 30
0.0
 10
5.912780
 20
16.943316
 30
0.0
 10
5.934251
 20
16.946786
 30
0.0
 10
5.956961
 20
16.952463
 30
0.0
 10
5.976479
 20
16.943348
 30
0.0
 10
6.007898
 20
16.940550
 30
0.0
 10
6.033181
 20
16.957112
 30
0.0
 10
6.049706
 20
16.984913
 30
0.0
 10
6.054852
 20
17.015834
 30
0.0
 10
6.066906
 20
17.049303
 30
0.0
 10
6.071909
 20
17.086399
 30
0.0
 10
6.063381
 20
17.119493
 30
0.0
 10
6.034842
 20
17.140957
 30
0.0
 10
6.031089
 20
17.142622
 30
0.0
 10
6.031089
 20
17.142614
 30
0.0
  0
LWPOLYLINE
  5
122
100
AcDbEntity
  8
Layer_1
 62
7
100
AcDbPolyline
 90
15
 70
0
 10
12.839869
 20
17.136162
 30
0.0
 10
12.800849
 20
17.115323
 30
0.0
 10
12.771967
 20
17.081374
 30
0.0
 10
12.729887
 20
17.001390
 30
0.0
 10
12.743556
 20
16.970250
 30
0.0
 10
12.774909
 20
16.956957
 30
0.0
 10
12.809469
 20
16.962381
 30
0.0
 10
12.832757
 20
16.987391
 30
0.0
 10
12.865232
 20
17.009359
 30
0.0
 10
12.889590
 20
17.041379
 30
0.0
 10
12.897384
 20
17.077879
 30
0.0
 10
12.880171
 20
17.113288
 30
0.0
 10
12.862454
 20
17.129286
 30
0.0
 10
12.839869
 20
17.136162
 30
0.0
 10
12.839869
 20
17.136162
 30
0.0
  0
LWPOLYLINE
  5
123
100
AcDbEntity
  8
Layer_1
 62
7
100
AcDbPolyline
 90
17
 70
0
 10
9.489242
 20
17.133735
 30
0.0
 10
9.473805
 20
17.133086
 30
0.0
 10
9.449020
 20
17.105033
 30
0.0
 10
9.446362
 20
17.069133
 30
0.0
 10
9.464661
 20
16.995172
 30
0.0
 10
9.477883
 20
16.961170
 30
0.0
 10
9.507234
 20
16.940965
 30
0.0
 10
9.542321
 20
16.938796
 30
0.0
 10
9.572752
 20
16.958904
 30
0.0
 10
9.585384
 20
16.985093
 30
0.0
 10
9.584016
 20
17.012852
 30
0.0
 10
9.572304
 20
17.039159
 30
0.0
 10
9.553900
 20
17.060987
 30
0.0
 10
9.528852
 20
17.106063
 30
0.0
 10
9.511513
 20
17.124491
 30
0.0
 10
9.489242
 20
17.133749
 30
0.0
 10
9.489242
 20
17.133735
 30
0.0
  0
LWPOLYLINE
  5
124
100
AcDbEntity
  8
Layer_1
 62
7
100
AcDbPolyline
 90
15
 70
0
 10
7.034022
 20
17.062629
 30
0.0
 10
7.008769
 20
17.049986
 30
0.0
 10
7.001055
 20
17.023387
 30
0.0
 10
7.010460
 20
16.997351
 30
0.0
 10
7.036562
 20
16.986395
 30
0.0
 10
7.158888
 20
16.945800
 30
0.0
 10
7.222319
 20
16.939113
 30
0.0
 10
7.285341
 20
16.950180
 30
0.0
 10
7.300580
 20
16.976298
 30
0.0
 10
7.292421
 20
17.004310
 30
0.0
 10
7.269144
 20
17.024908
 30
0.0
 10
7.239028
 20
17.028785
 30
0.0
 10
7.034078
 20
17.062629
 30
0.0
 10
7.034078
 20
17.062629
 30
0.0
 10
7.034022
 20
17.062629
 30
0.0
  0
LWPOLYLINE
  5
125
100
AcDbEntity
  8
Layer_1
 62
7
100
AcDbPolyline
 90
14
 70
0
 10
8.597336
 20
17.060597
 30
0.0
 10
8.577806
 20
17.060089
 30
0.0
 10
8.395578
 20
17.048274
 30
0.0
 10
8.305919
 20
17.031280
 30
0.0
 10
8.218706
 20
17.006015
 30
0.0
 10
8.207260
 20
16.976006
 30
0.0
 10
8.221691
 20
16.948271
 30
0.0
 10
8.250694
 20
16.932154
 30
0.0
 10
8.282968
 20
16.937003
 30
0.0
 10
8.368632
 20
16.947205
 30
0.0
 10
8.452048
 20
16.969952
 30
0.0
 10
8.529515
 20
17.007120
 30
0.0
 10
8.597336
 20
17.060586
 30
0.0
 10
8.597336
 20
17.060597
 30
0.0
  0
LWPOLYLINE
  5
126
100
AcDbEntity
  8
Layer_1
 62
7
100
AcDbPolyline
 90
14
 70
0
 10
7.952401
 20
17.014076
 30
0.0
 10
7.942100
 20
17.013568
 30
0.0
 10
7.923752
 20
17.008560
 30
0.0
 10
7.911712
 20
16.996701
 30
0.0
 10
7.905267
 20
16.962386
 30
0.0
 10
7.920173
 20
16.930537
 30
0.0
 10
7.934823
 20
16.921762
 30
0.0
 10
7.953841
 20
16.921072
 30
0.0
 10
7.982870
 20
16.938137
 30
0.0
 10
7.991404
 20
16.969036
 30
0.0
 10
7.980804
 20
16.999200
 30
0.0
 10
7.952430
 20
17.014061
 30
0.0
 10
7.952430
 20
17.014061
 30
0.0
 10
7.952401
 20
17.014076
 30
0.0
  0
LWPOLYLINE
  5
127
100
AcDbEntity
  8
Layer_1
 62
7
100
AcDbPolyline
 90
14
 70
0
 10
10.988661
 20
16.834929
 30
0.0
 10
10.993402
 20
16.817841
 30
0.0
 10
11.022026
 20
16.726642
 30
0.0
 10
11.066032
 20
16.642207
 30
0.0
 10
11.168211
 20
16.480388
 30
0.0
 10
11.186114
 20
16.536164
 30
0.0
 10
11.198258
 20
16.561692
 30
0.0
 10
11.219236
 20
16.581039
 30
0.0
 10
11.222960
 20
16.616818
 30
0.0
 10
11.205503
 20
16.647152
 30
0.0
 10
11.153987
 20
16.700434
 30
0.0
 10
11.077123
 20
16.774823
 30
0.0
 10
10.988661
 20
16.834929
 30
0.0
 10
10.988661
 20
16.834929
 30
0.0
  0
LWPOLYLINE
  5
128
100
AcDbEntity
  8
Layer_1
 62
7
100
AcDbPolyline
 90
17
 70
0
 10
4.540504
 20
16.833264
 30
0.0
 10
4.526336
 20
16.824831
 30
0.0
 10
4.448161
 20
16.774150
 30
0.0
 10
4.379662
 20
16.711487
 30
0.0
 10
4.255911
 20
16.571989
 30
0.0
 10
4.275835
 20
16.559752
 30
0.0
 10
4.299285
 20
16.562751
 30
0.0
 10
4.321884
 20
16.564968
 30
0.0
 10
4.339251
 20
16.550382
 30
0.0
 10
4.370212
 20
16.541063
 30
0.0
 10
4.399142
 20
16.551741
 30
0.0
 10
4.422258
 20
16.575259
 30
0.0
 10
4.435771
 20
16.604455
 30
0.0
 10
4.499039
 20
16.714215
 30
0.0
 10
4.524354
 20
16.772030
 30
0.0
 10
4.540504
 20
16.833264
 30
0.0
 10
4.540504
 20
16.833264
 30
0.0
  0
LWPOLYLINE
  5
129
100
AcDbEntity
  8
Layer_1
 62
7
100
AcDbPolyline
 90
15
 70
0
 10
7.160655
 20
16.819043
 30
0.0
 10
7.128296
 20
16.783575
 30
0.0
 10
7.110017
 20
16.738423
 30
0.0
 10
7.090410
 20
16.642104
 30
0.0
 10
7.112782
 20
16.619482
 30
0.0
 10
7.144861
 20
16.611391
 30
0.0
 10
7.178163
 20
16.616658
 30
0.0
 10
7.204202
 20
16.634111
 30
0.0
 10
7.213501
 20
16.663536
 30
0.0
 10
7.213826
 20
16.694559
 30
0.0
 10
7.213882
 20
16.756920
 30
0.0
 10
7.199154
 20
16.799876
 30
0.0
 10
7.183057
 20
16.814697
 30
0.0
 10
7.160655
 20
16.819043
 30
0.0
 10
7.160655
 20
16.819043
 30
0.0
  0
LWPOLYLINE
  5
12a
100
AcDbEntity
  8
Layer_1
 62
7
100
AcDbPolyline
 90
18
 70
0
 10
8.339751
 20
16.818168
 30
0.0
 10
8.329986
 20
16.817519
 30
0.0
 10
8.308107
 20
16.780112
 30
0.0
 10
8.305214
 20
16.736841
 30
0.0
 10
8.305253
 20
16.692457
 30
0.0
 10
8.292169
 20
16.651714
 30
0.0
 10
8.300330
 20
16.620108
 30
0.0
 10
8.326406
 20
16.602324
 30
0.0
 10
8.359133
 20
16.600318
 30
0.0
 10
8.387249
 20
16.616049
 30
0.0
 10
8.412330
 20
16.631427
 30
0.0
 10
8.424210
 20
16.657062
 30
0.0
 10
8.423734
 20
16.686375
 30
0.0
 10
8.411746
 20
16.712789
 30
0.0
 10
8.390904
 20
16.780261
 30
0.0
 10
8.369812
 20
16.806939
 30
0.0
 10
8.339751
 20
16.818179
 30
0.0
 10
8.339751
 20
16.818168
 30
0.0
  0
LWPOLYLINE
  5
12b
100
AcDbEntity
  8
Layer_1
 62
7
100
AcDbPolyline
 90
21
 70
0
 10
13.012081
 20
16.630646
 30
0.0
 10
13.007284
 20
16.625464
 30
0.0
 10
13.006719
 20
16.624871
 30
0.0
 10
12.984271
 20
16.600662
 30
0.0
 10
12.954878
 20
16.581933
 30
0.0
 10
12.930063
 20
16.560488
 30
0.0
 10
12.921347
 20
16.528131
 30
0.0
 10
13.390541
 20
16.064175
 30
0.0
 10
13.408096
 20
16.041375
 30
0.0
 10
13.434272
 20
16.030846
 30
0.0
 10
13.460764
 20
16.035231
 30
0.0
 10
13.479272
 20
16.057173
 30
0.0
 10
13.481306
 20
16.081791
 30
0.0
 10
13.471077
 20
16.102780
 30
0.0
 10
13.431915
 20
16.130816
 30
0.0
 10
13.402744
 20
16.177719
 30
0.0
 10
13.367036
 20
16.220103
 30
0.0
 10
13.293457
 20
16.303623
 30
0.0
 10
13.012110
 20
16.630660
 30
0.0
 10
13.012081
 20
16.630660
 30
0.0
 10
13.012081
 20
16.630646
 30
0.0
  0
LWPOLYLINE
  5
12c
100
AcDbEntity
  8
Layer_1
 62
7
100
AcDbPolyline
 90
16
 70
0
 10
1.828969
 20
16.384582
 30
0.0
 10
1.819430
 20
16.384299
 30
0.0
 10
1.438035
 20
16.307515
 30
0.0
 10
1.435298
 20
16.272092
 30
0.0
 10
1.455889
 20
16.245166
 30
0.0
 10
1.489165
 20
16.231114
 30
0.0
 10
1.524480
 20
16.234315
 30
0.0
 10
1.739674
 20
16.247258
 30
0.0
 10
1.847084
 20
16.256595
 30
0.0
 10
1.953091
 20
16.276316
 30
0.0
 10
1.895041
 20
16.294802
 30
0.0
 10
1.873696
 20
16.311959
 30
0.0
 10
1.872657
 20
16.340919
 30
0.0
 10
1.858836
 20
16.370546
 30
0.0
 10
1.828969
 20
16.384520
 30
0.0
 10
1.828969
 20
16.384582
 30
0.0
  0
LWPOLYLINE
  5
12d
100
AcDbEntity
  8
Layer_1
 62
7
100
AcDbPolyline
 90
17
 70
0
 10
12.075894
 20
16.330618
 30
0.0
 10
12.069262
 20
16.330618
 30
0.0
 10
12.007092
 20
16.294661
 30
0.0
 10
11.954214
 20
16.246080
 30
0.0
 10
11.904320
 20
16.193341
 30
0.0
 10
11.851104
 20
16.144913
 30
0.0
 10
11.747302
 20
16.040347
 30
0.0
 10
11.789218
 20
16.015100
 30
0.0
 10
11.836777
 20
16.017489
 30
0.0
 10
11.880966
 20
16.040718
 30
0.0
 10
11.912769
 20
16.077995
 30
0.0
 10
12.019732
 20
16.181118
 30
0.0
 10
12.068916
 20
16.236195
 30
0.0
 10
12.106204
 20
16.299475
 30
0.0
 10
12.096256
 20
16.320263
 30
0.0
 10
12.075894
 20
16.330728
 30
0.0
 10
12.075894
 20
16.330618
 30
0.0
  0
LWPOLYLINE
  5
12e
100
AcDbEntity
  8
Layer_1
 62
7
100
AcDbPolyline
 90
18
 70
0
 10
10.002915
 20
16.240493
 30
0.0
 10
10.003762
 20
16.223241
 30
0.0
 10
10.011373
 20
16.128641
 30
0.0
 10
10.035000
 20
16.037115
 30
0.0
 10
10.106350
 20
15.861147
 30
0.0
 10
10.125084
 20
15.868095
 30
0.0
 10
10.132191
 20
15.885356
 30
0.0
 10
10.136381
 20
15.904886
 30
0.0
 10
10.146369
 20
15.918641
 30
0.0
 10
10.176461
 20
15.932156
 30
0.0
 10
10.188314
 20
15.961751
 30
0.0
 10
10.183667
 20
15.995960
 30
0.0
 10
10.164262
 20
16.023315
 30
0.0
 10
10.092616
 20
16.138924
 30
0.0
 10
10.051148
 20
16.192599
 30
0.0
 10
10.002915
 20
16.240493
 30
0.0
 10
10.002915
 20
16.240493
 30
0.0
 10
10.002915
 20
16.240493
 30
0.0
  0
LWPOLYLINE
  5
12f
100
AcDbEntity
  8
Layer_1
 62
7
100
AcDbPolyline
 90
17
 70
0
 10
5.529862
 20
16.239900
 30
0.0
 10
5.517529
 20
16.228490
 30
0.0
 10
5.451177
 20
16.162466
 30
0.0
 10
5.397514
 20
16.086226
 30
0.0
 10
5.307302
 20
15.922017
 30
0.0
 10
5.329951
 20
15.915180
 30
0.0
 10
5.352394
 20
15.923421
 30
0.0
 10
5.374128
 20
15.930338
 30
0.0
 10
5.394650
 20
15.919533
 30
0.0
 10
5.426523
 20
15.918601
 30
0.0
 10
5.451768
 20
15.936160
 30
0.0
 10
5.468647
 20
15.964395
 30
0.0
 10
5.475422
 20
15.995490
 30
0.0
 10
5.513458
 20
16.115524
 30
0.0
 10
5.525944
 20
16.177059
 30
0.0
 10
5.529862
 20
16.239898
 30
0.0
 10
5.529862
 20
16.239900
 30
0.0
  0
LWPOLYLINE
  5
130
100
AcDbEntity
  8
Layer_1
 62
7
100
AcDbPolyline
 90
13
 70
0
 10
0.654586
 20
16.130649
 30
0.0
 10
0.446342
 20
16.090293
 30
0.0
 10
0.344135
 20
16.063360
 30
0.0
 10
0.246860
 20
16.021345
 30
0.0
 10
0.355708
 20
15.999257
 30
0.0
 10
0.466471
 20
15.992987
 30
0.0
 10
0.688114
 20
16.006240
 30
0.0
 10
0.711566
 20
16.039546
 30
0.0
 10
0.712678
 20
16.081788
 30
0.0
 10
0.693127
 20
16.117359
 30
0.0
 10
0.676125
 20
16.127765
 30
0.0
 10
0.654586
 20
16.130649
 30
0.0
 10
0.654586
 20
16.130649
 30
0.0
  0
LWPOLYLINE
  5
131
100
AcDbEntity
  8
Layer_1
 62
7
100
AcDbPolyline
 90
15
 70
0
 10
6.621046
 20
15.875329
 30
0.0
 10
6.611027
 20
15.860611
 30
0.0
 10
6.557433
 20
15.772975
 30
0.0
 10
6.518720
 20
15.678064
 30
0.0
 10
6.469803
 20
15.478454
 30
0.0
 10
6.511565
 20
15.524782
 30
0.0
 10
6.537359
 20
15.537832
 30
0.0
 10
6.567255
 20
15.531590
 30
0.0
 10
6.598554
 20
15.543535
 30
0.0
 10
6.614361
 20
15.571314
 30
0.0
 10
6.622203
 20
15.639241
 30
0.0
 10
6.631947
 20
15.757370
 30
0.0
 10
6.621074
 20
15.875329
 30
0.0
 10
6.621074
 20
15.875329
 30
0.0
 10
6.621046
 20
15.875329
 30
0.0
  0
LWPOLYLINE
  5
132
100
AcDbEntity
  8
Layer_1
 62
7
100
AcDbPolyline
 90
16
 70
0
 10
8.909812
 20
15.874059
 30
0.0
 10
8.906990
 20
15.857137
 30
0.0
 10
8.895235
 20
15.765063
 30
0.0
 10
8.897874
 20
15.672059
 30
0.0
 10
8.925842
 20
15.489584
 30
0.0
 10
8.943476
 20
15.486006
 30
0.0
 10
8.953652
 20
15.498107
 30
0.0
 10
8.971873
 20
15.527950
 30
0.0
 10
9.002767
 20
15.532531
 30
0.0
 10
9.026620
 20
15.552271
 30
0.0
 10
9.036964
 20
15.580480
 30
0.0
 10
9.027329
 20
15.610466
 30
0.0
 10
8.979609
 20
15.747549
 30
0.0
 10
8.949292
 20
15.813229
 30
0.0
 10
8.909812
 20
15.874059
 30
0.0
 10
8.909812
 20
15.874059
 30
0.0
  0
LWPOLYLINE
  5
133
100
AcDbEntity
  8
Layer_1
 62
7
100
AcDbPolyline
 90
14
 70
0
 10
7.710706
 20
15.842529
 30
0.0
 10
7.683505
 20
15.829637
 30
0.0
 10
7.668803
 20
15.802578
 30
0.0
 10
7.671511
 20
15.774591
 30
0.0
 10
7.696539
 20
15.758909
 30
0.0
 10
7.787351
 20
15.750914
 30
0.0
 10
7.829563
 20
15.762899
 30
0.0
 10
7.860256
 20
15.794684
 30
0.0
 10
7.849941
 20
15.824372
 30
0.0
 10
7.823712
 20
15.838638
 30
0.0
 10
7.759418
 20
15.840545
 30
0.0
 10
7.710706
 20
15.842464
 30
0.0
 10
7.710706
 20
15.842464
 30
0.0
 10
7.710706
 20
15.842529
 30
0.0
  0
LWPOLYLINE
  5
134
100
AcDbEntity
  8
Layer_1
 62
7
100
AcDbPolyline
 90
20
 70
0
 10
12.141313
 20
15.756705
 30
0.0
 10
12.136967
 20
15.751137
 30
0.0
 10
12.136402
 20
15.750516
 30
0.0
 10
12.107549
 20
15.717715
 30
0.0
 10
12.071096
 20
15.690600
 30
0.0
 10
12.062623
 20
15.663673
 30
0.0
 10
12.073354
 20
15.639293
 30
0.0
 10
12.116336
 20
15.601632
 30
0.0
 10
12.565295
 20
15.225207
 30
0.0
 10
12.587710
 20
15.200507
 30
0.0
 10
12.621630
 20
15.198088
 30
0.0
 10
12.649905
 20
15.214768
 30
0.0
 10
12.656565
 20
15.229276
 30
0.0
 10
12.655381
 20
15.247367
 30
0.0
 10
12.641345
 20
15.270404
 30
0.0
 10
12.618960
 20
15.285828
 30
0.0
 10
12.596278
 20
15.301024
 30
0.0
 10
12.581354
 20
15.323378
 30
0.0
 10
12.141313
 20
15.756691
 30
0.0
 10
12.141313
 20
15.756705
 30
0.0
  0
LWPOLYLINE
  5
135
100
AcDbEntity
  8
Layer_1
 62
7
100
AcDbPolyline
 90
18
 70
0
 10
7.764611
 20
15.708637
 30
0.0
 10
7.758712
 20
15.708185
 30
0.0
 10
7.730521
 20
15.663649
 30
0.0
 10
7.718097
 20
15.611919
 30
0.0
 10
7.706078
 20
15.504568
 30
0.0
 10
7.701784
 20
15.468914
 30
0.0
 10
7.707623
 20
15.432941
 30
0.0
 10
7.726025
 20
15.404214
 30
0.0
 10
7.759418
 20
15.390302
 30
0.0
 10
7.790273
 20
15.393915
 30
0.0
 10
7.814832
 20
15.412004
 30
0.0
 10
7.827410
 20
15.439154
 30
0.0
 10
7.822325
 20
15.469950
 30
0.0
 10
7.810655
 20
15.592744
 30
0.0
 10
7.798338
 20
15.652624
 30
0.0
 10
7.770453
 20
15.706698
 30
0.0
 10
7.764611
 20
15.708617
 30
0.0
 10
7.764611
 20
15.708637
 30
0.0
  0
LWPOLYLINE
  5
136
100
AcDbEntity
  8
Layer_1
 62
7
100
AcDbPolyline
 90
12
 70
0
 10
12.977566
 20
15.669501
 30
0.0
 10
12.952868
 20
15.656473
 30
0.0
 10
12.943649
 20
15.629553
 30
0.0
 10
12.950380
 20
15.600889
 30
0.0
 10
12.973530
 20
15.582630
 30
0.0
 10
13.001772
 20
15.584293
 30
0.0
 10
13.021691
 20
15.602698
 30
0.0
 10
13.028084
 20
15.629149
 30
0.0
 10
13.015750
 20
15.654950
 30
0.0
 10
12.986653
 20
15.669061
 30
0.0
 10
12.977566
 20
15.669512
 30
0.0
 10
12.977566
 20
15.669501
 30
0.0
  0
LWPOLYLINE
  5
137
100
AcDbEntity
  8
Layer_1
 62
7
100
AcDbPolyline
 90
16
 70
0
 10
13.413345
 20
15.381877
 30
0.0
 10
13.408829
 20
15.376532
 30
0.0
 10
13.408265
 20
15.375883
 30
0.0
 10
13.393218
 20
15.355023
 30
0.0
 10
13.373132
 20
15.339535
 30
0.0
 10
13.335818
 20
15.306484
 30
0.0
 10
13.337625
 20
15.272012
 30
0.0
 10
13.359225
 20
15.245549
 30
0.0
 10
13.413599
 20
15.199274
 30
0.0
 10
13.778061
 20
14.873505
 30
0.0
 10
13.807630
 20
14.893642
 30
0.0
 10
13.815776
 20
14.926567
 30
0.0
 10
13.806116
 20
14.961680
 30
0.0
 10
13.782266
 20
14.988378
 30
0.0
 10
13.413317
 20
15.381891
 30
0.0
 10
13.413345
 20
15.381877
 30
0.0
  0
LWPOLYLINE
  5
138
100
AcDbEntity
  8
Layer_1
 62
7
100
AcDbPolyline
 90
12
 70
0
 10
2.536331
 20
15.224121
 30
0.0
 10
2.511773
 20
15.209547
 30
0.0
 10
2.504098
 20
15.181408
 30
0.0
 10
2.512610
 20
15.151943
 30
0.0
 10
2.536613
 20
15.133389
 30
0.0
 10
2.566336
 20
15.136657
 30
0.0
 10
2.586771
 20
15.157607
 30
0.0
 10
2.592104
 20
15.186140
 30
0.0
 10
2.576520
 20
15.212157
 30
0.0
 10
2.545814
 20
15.224121
 30
0.0
 10
2.536331
 20
15.224121
 30
0.0
 10
2.536331
 20
15.224121
 30
0.0
  0
LWPOLYLINE
  5
139
100
AcDbEntity
  8
Layer_1
 62
7
100
AcDbPolyline
 90
14
 70
0
 10
0.990769
 20
14.916817
 30
0.0
 10
0.802386
 20
14.911113
 30
0.0
 10
0.709512
 20
14.898558
 30
0.0
 10
0.620099
 20
14.869192
 30
0.0
 10
0.715657
 20
14.837721
 30
0.0
 10
0.814250
 20
14.816329
 30
0.0
 10
0.914362
 20
14.806266
 30
0.0
 10
1.014476
 20
14.808780
 30
0.0
 10
1.024718
 20
14.824038
 30
0.0
 10
1.026537
 20
14.842213
 30
0.0
 10
1.031635
 20
14.878672
 30
0.0
 10
1.019267
 20
14.906632
 30
0.0
 10
0.990769
 20
14.916817
 30
0.0
 10
0.990769
 20
14.916817
 30
0.0
  0
LWPOLYLINE
  5
13a
100
AcDbEntity
  8
Layer_1
 62
7
100
AcDbPolyline
 90
16
 70
0
 10
11.621572
 20
14.556874
 30
0.0
 10
11.603593
 20
14.550779
 30
0.0
 10
11.590799
 20
14.538224
 30
0.0
 10
11.580872
 20
14.502715
 30
0.0
 10
11.592001
 20
14.468310
 30
0.0
 10
11.605527
 20
14.457134
 30
0.0
 10
11.624395
 20
14.452971
 30
0.0
 10
11.683326
 20
14.435929
 30
0.0
 10
11.713156
 20
14.439372
 30
0.0
 10
11.739316
 20
14.455398
 30
0.0
 10
11.724324
 20
14.494448
 30
0.0
 10
11.697935
 20
14.527284
 30
0.0
 10
11.662814
 20
14.549547
 30
0.0
 10
11.621629
 20
14.556877
 30
0.0
 10
11.621629
 20
14.556877
 30
0.0
 10
11.621572
 20
14.556874
 30
0.0
  0
LWPOLYLINE
  5
13b
100
AcDbEntity
  8
Layer_1
 62
7
100
AcDbPolyline
 90
8
 70
0
 10
14.000226
 20
14.294991
 30
0.0
 10
13.952784
 20
14.279667
 30
0.0
 10
13.938498
 20
14.268163
 30
0.0
 10
13.942039
 20
14.252367
 30
0.0
 10
13.970367
 20
14.226090
 30
0.0
 10
14.000226
 20
14.200678
 30
0.0
 10
14.000226
 20
14.294991
 30
0.0
 10
14.000226
 20
14.294991
 30
0.0
  0
LWPOLYLINE
  5
13c
100
AcDbEntity
  8
Layer_1
 62
7
100
AcDbPolyline
 90
15
 70
0
 10
9.587032
 20
13.863832
 30
0.0
 10
9.560342
 20
13.855019
 30
0.0
 10
9.548262
 20
13.831321
 30
0.0
 10
9.549782
 20
13.802436
 30
0.0
 10
9.563890
 20
13.778062
 30
0.0
 10
9.573394
 20
13.746291
 30
0.0
 10
9.597104
 20
13.721415
 30
0.0
 10
9.627180
 20
13.712571
 30
0.0
 10
9.655782
 20
13.728893
 30
0.0
 10
9.667046
 20
13.772454
 30
0.0
 10
9.658015
 20
13.817757
 30
0.0
 10
9.630679
 20
13.852362
 30
0.0
 10
9.610770
 20
13.861766
 30
0.0
 10
9.587032
 20
13.863832
 30
0.0
 10
9.587032
 20
13.863832
 30
0.0
  0
LWPOLYLINE
  5
13d
100
AcDbEntity
  8
Layer_1
 62
7
100
AcDbPolyline
 90
13
 70
0
 10
1.304431
 20
13.812403
 30
0.0
 10
1.285384
 20
13.807519
 30
0.0
 10
1.273108
 20
13.795326
 30
0.0
 10
1.267167
 20
13.759702
 30
0.0
 10
1.283202
 20
13.726904
 30
0.0
 10
1.298397
 20
13.718246
 30
0.0
 10
1.317808
 20
13.718310
 30
0.0
 10
1.347034
 20
13.734722
 30
0.0
 10
1.354974
 20
13.765823
 30
0.0
 10
1.343244
 20
13.796622
 30
0.0
 10
1.313462
 20
13.812126
 30
0.0
 10
1.304431
 20
13.812408
 30
0.0
 10
1.304431
 20
13.812403
 30
0.0
  0
LWPOLYLINE
  5
13e
100
AcDbEntity
  8
Layer_1
 62
7
100
AcDbPolyline
 90
16
 70
0
 10
0.290294
 20
13.773927
 30
0.0
 10
0.249738
 20
13.773927
 30
0.0
 10
0.225701
 20
13.763533
 30
0.0
 10
0.219237
 20
13.738820
 30
0.0
 10
0.228807
 20
13.714132
 30
0.0
 10
0.252871
 20
13.703812
 30
0.0
 10
0.415890
 20
13.652900
 30
0.0
 10
0.582507
 20
13.618208
 30
0.0
 10
0.612736
 20
13.646862
 30
0.0
 10
0.622071
 20
13.688957
 30
0.0
 10
0.609070
 20
13.727773
 30
0.0
 10
0.593742
 20
13.740725
 30
0.0
 10
0.572290
 20
13.746589
 30
0.0
 10
0.431588
 20
13.760569
 30
0.0
 10
0.290294
 20
13.773984
 30
0.0
 10
0.290294
 20
13.773927
 30
0.0
  0
LWPOLYLINE
  5
13f
100
AcDbEntity
  8
Layer_1
 62
7
100
AcDbPolyline
 90
17
 70
0
 10
6.023271
 20
13.770123
 30
0.0
 10
6.024682
 20
13.763234
 30
0.0
 10
6.024682
 20
13.761371
 30
0.0
 10
6.033350
 20
13.718374
 30
0.0
 10
6.061195
 20
13.686323
 30
0.0
 10
6.100692
 20
13.667323
 30
0.0
 10
6.144316
 20
13.663477
 30
0.0
 10
6.165499
 20
13.659294
 30
0.0
 10
6.186480
 20
13.666135
 30
0.0
 10
6.198149
 20
13.681239
 30
0.0
 10
6.191391
 20
13.701839
 30
0.0
 10
6.156118
 20
13.732540
 30
0.0
 10
6.114775
 20
13.754073
 30
0.0
 10
6.069654
 20
13.766564
 30
0.0
 10
6.023046
 20
13.770137
 30
0.0
 10
6.023046
 20
13.770137
 30
0.0
 10
6.023271
 20
13.770123
 30
0.0
  0
LWPOLYLINE
  5
140
100
AcDbEntity
  8
Layer_1
 62
7
100
AcDbPolyline
 90
14
 70
0
 10
9.669836
 20
13.570970
 30
0.0
 10
9.657701
 20
13.570970
 30
0.0
 10
9.627307
 20
13.560382
 30
0.0
 10
9.608249
 20
13.533644
 30
0.0
 10
9.607234
 20
13.503244
 30
0.0
 10
9.630974
 20
13.481672
 30
0.0
 10
9.665843
 20
13.477967
 30
0.0
 10
9.697724
 20
13.495607
 30
0.0
 10
9.714243
 20
13.525394
 30
0.0
 10
9.712875
 20
13.541967
 30
0.0
 10
9.703026
 20
13.558126
 30
0.0
 10
9.687892
 20
13.567958
 30
0.0
 10
9.669836
 20
13.571080
 30
0.0
 10
9.669836
 20
13.570970
 30
0.0
  0
LWPOLYLINE
  5
141
100
AcDbEntity
  8
Layer_1
 62
7
100
AcDbPolyline
 90
14
 70
0
 10
11.927671
 20
13.482942
 30
0.0
 10
11.898216
 20
13.461962
 30
0.0
 10
11.878959
 20
13.429568
 30
0.0
 10
11.871513
 20
13.392056
 30
0.0
 10
11.877492
 20
13.355722
 30
0.0
 10
11.909731
 20
13.339052
 30
0.0
 10
11.943761
 20
13.348692
 30
0.0
 10
11.971214
 20
13.375378
 30
0.0
 10
11.983720
 20
13.409849
 30
0.0
 10
11.984289
 20
13.436486
 30
0.0
 10
11.973581
 20
13.460853
 30
0.0
 10
11.953931
 20
13.477990
 30
0.0
 10
11.927671
 20
13.482942
 30
0.0
 10
11.927671
 20
13.482942
 30
0.0
  0
LWPOLYLINE
  5
142
100
AcDbEntity
  8
Layer_1
 62
7
100
AcDbPolyline
 90
14
 70
0
 10
0.047808
 20
13.455821
 30
0.0
 10
0.031146
 20
13.450690
 30
0.0
 10
0.019326
 20
13.439263
 30
0.0
 10
0.010361
 20
13.406575
 30
0.0
 10
0.021214
 20
13.375868
 30
0.0
 10
0.034165
 20
13.366918
 30
0.0
 10
0.052183
 20
13.365255
 30
0.0
 10
0.084045
 20
13.375812
 30
0.0
 10
0.100242
 20
13.405519
 30
0.0
 10
0.096430
 20
13.437501
 30
0.0
 10
0.085665
 20
13.449072
 30
0.0
 10
0.068270
 20
13.454884
 30
0.0
 10
0.047808
 20
13.455815
 30
0.0
 10
0.047808
 20
13.455821
 30
0.0
  0
LWPOLYLINE
  5
143
100
AcDbEntity
  8
Layer_1
 62
7
100
AcDbPolyline
 90
13
 70
0
 10
8.493421
 20
13.399543
 30
0.0
 10
8.461081
 20
13.386339
 30
0.0
 10
8.447066
 20
13.355181
 30
0.0
 10
8.451424
 20
13.319511
 30
0.0
 10
8.474202
 20
13.292772
 30
0.0
 10
8.499826
 20
13.270614
 30
0.0
 10
8.534333
 20
13.267557
 30
0.0
 10
8.562939
 20
13.282730
 30
0.0
 10
8.570863
 20
13.315263
 30
0.0
 10
8.546663
 20
13.373764
 30
0.0
 10
8.524699
 20
13.394346
 30
0.0
 10
8.493421
 20
13.399543
 30
0.0
 10
8.493421
 20
13.399543
 30
0.0
  0
LWPOLYLINE
  5
144
100
AcDbEntity
  8
Layer_1
 62
7
100
AcDbPolyline
 90
15
 70
0
 10
4.948795
 20
13.212734
 30
0.0
 10
4.931410
 20
13.212085
 30
0.0
 10
4.903376
 20
13.188372
 30
0.0
 10
4.894333
 20
13.153010
 30
0.0
 10
4.898446
 20
13.114016
 30
0.0
 10
4.909876
 20
13.079410
 30
0.0
 10
4.938444
 20
13.064965
 30
0.0
 10
4.967923
 20
13.072170
 30
0.0
 10
4.990807
 20
13.094515
 30
0.0
 10
4.999595
 20
13.125491
 30
0.0
 10
5.000389
 20
13.153879
 30
0.0
 10
4.991467
 20
13.181054
 30
0.0
 10
4.973909
 20
13.202262
 30
0.0
 10
4.948795
 20
13.212748
 30
0.0
 10
4.948795
 20
13.212734
 30
0.0
  0
LWPOLYLINE
  5
145
100
AcDbEntity
  8
Layer_1
 62
7
100
AcDbPolyline
 90
13
 70
0
 10
7.053665
 20
13.200277
 30
0.0
 10
7.048810
 20
13.196806
 30
0.0
 10
7.021311
 20
13.183034
 30
0.0
 10
7.001048
 20
13.157962
 30
0.0
 10
6.995649
 20
13.128995
 30
0.0
 10
7.012742
 20
13.103540
 30
0.0
 10
7.094086
 20
13.042898
 30
0.0
 10
7.138417
 20
13.018981
 30
0.0
 10
7.187664
 20
13.006579
 30
0.0
 10
7.170465
 20
13.064170
 30
0.0
 10
7.137788
 20
13.113917
 30
0.0
 10
7.053665
 20
13.200277
 30
0.0
 10
7.053665
 20
13.200277
 30
0.0
  0
LWPOLYLINE
  5
146
100
AcDbEntity
  8
Layer_1
 62
7
100
AcDbPolyline
 90
14
 70
0
 10
3.732361
 20
13.164615
 30
0.0
 10
3.704976
 20
13.149295
 30
0.0
 10
3.694980
 20
13.121354
 30
0.0
 10
3.698468
 20
13.088997
 30
0.0
 10
3.711533
 20
13.060433
 30
0.0
 10
3.722355
 20
13.030632
 30
0.0
 10
3.747844
 20
13.009955
 30
0.0
 10
3.778164
 20
13.005368
 30
0.0
 10
3.803481
 20
13.023834
 30
0.0
 10
3.807255
 20
13.099057
 30
0.0
 10
3.796448
 20
13.133790
 30
0.0
 10
3.769247
 20
13.157560
 30
0.0
 10
3.732361
 20
13.164615
 30
0.0
 10
3.732361
 20
13.164615
 30
0.0
  0
LWPOLYLINE
  5
147
100
AcDbEntity
  8
Layer_1
 62
7
100
AcDbPolyline
 90
13
 70
0
 10
13.661616
 20
13.041087
 30
0.0
 10
13.652020
 20
13.040635
 30
0.0
 10
13.633279
 20
13.027983
 30
0.0
 10
13.624807
 20
13.010089
 30
0.0
 10
13.632561
 20
12.969127
 30
0.0
 10
13.663069
 20
12.938854
 30
0.0
 10
13.683040
 20
12.934319
 30
0.0
 10
13.704118
 20
12.940370
 30
0.0
 10
13.725560
 20
12.969930
 30
0.0
 10
13.719803
 20
13.002494
 30
0.0
 10
13.695578
 20
13.029173
 30
0.0
 10
13.661616
 20
13.041075
 30
0.0
 10
13.661616
 20
13.041087
 30
0.0
  0
LWPOLYLINE
  5
148
100
AcDbEntity
  8
Layer_1
 62
7
100
AcDbPolyline
 90
15
 70
0
 10
6.074974
 20
12.824458
 30
0.0
 10
6.045045
 20
12.803630
 30
0.0
 10
6.026527
 20
12.771627
 30
0.0
 10
6.019456
 20
12.734635
 30
0.0
 10
6.023864
 20
12.698836
 30
0.0
 10
6.038565
 20
12.685280
 30
0.0
 10
6.055316
 20
12.679761
 30
0.0
 10
6.090232
 20
12.688100
 30
0.0
 10
6.119142
 20
12.714390
 30
0.0
 10
6.132576
 20
12.749164
 30
0.0
 10
6.132216
 20
12.776550
 30
0.0
 10
6.121587
 20
12.801966
 30
0.0
 10
6.102052
 20
12.819805
 30
0.0
 10
6.074974
 20
12.824458
 30
0.0
 10
6.074974
 20
12.824458
 30
0.0
  0
LWPOLYLINE
  5
149
100
AcDbEntity
  8
Layer_1
 62
7
100
AcDbPolyline
 90
12
 70
0
 10
0.000254
 20
12.632195
 30
0.0
 10
0.000254
 20
12.541189
 30
0.0
 10
0.123814
 20
12.482817
 30
0.0
 10
0.251883
 20
12.440317
 30
0.0
 10
0.286070
 20
12.464826
 30
0.0
 10
0.299720
 20
12.505901
 30
0.0
 10
0.290087
 20
12.546003
 30
0.0
 10
0.275680
 20
12.560208
 30
0.0
 10
0.254423
 20
12.567594
 30
0.0
 10
0.127339
 20
12.599667
 30
0.0
 10
0.000254
 20
12.632195
 30
0.0
 10
0.000254
 20
12.632195
 30
0.0
  0
LWPOLYLINE
  5
14a
100
AcDbEntity
  8
Layer_1
 62
7
100
AcDbPolyline
 90
20
 70
0
 10
8.103729
 20
12.616873
 30
0.0
 10
8.097774
 20
12.616336
 30
0.0
 10
8.032369
 20
12.575760
 30
0.0
 10
7.976320
 20
12.523029
 30
0.0
 10
7.922705
 20
12.466943
 30
0.0
 10
7.864602
 20
12.416300
 30
0.0
 10
7.845116
 20
12.394076
 30
0.0
 10
7.834718
 20
12.366270
 30
0.0
 10
7.837618
 20
12.338634
 30
0.0
 10
7.858026
 20
12.316916
 30
0.0
 10
7.890252
 20
12.307987
 30
0.0
 10
7.921840
 20
12.316247
 30
0.0
 10
7.948311
 20
12.337038
 30
0.0
 10
7.965186
 20
12.365698
 30
0.0
 10
8.061717
 20
12.471362
 30
0.0
 10
8.105469
 20
12.527684
 30
0.0
 10
8.134519
 20
12.592082
 30
0.0
 10
8.122670
 20
12.609174
 30
0.0
 10
8.103729
 20
12.616887
 30
0.0
 10
8.103729
 20
12.616873
 30
0.0
  0
LWPOLYLINE
  5
14b
100
AcDbEntity
  8
Layer_1
 62
7
100
AcDbPolyline
 90
12
 70
0
 10
10.312598
 20
12.522833
 30
0.0
 10
10.251384
 20
12.510171
 30
0.0
 10
10.192904
 20
12.488484
 30
0.0
 10
10.083518
 20
12.427860
 30
0.0
 10
10.293145
 20
12.414326
 30
0.0
 10
10.503154
 20
12.419701
 30
0.0
 10
10.492052
 20
12.464763
 30
0.0
 10
10.459272
 20
12.494701
 30
0.0
 10
10.415004
 20
12.511971
 30
0.0
 10
10.369437
 20
12.519032
 30
0.0
 10
10.312598
 20
12.522833
 30
0.0
 10
10.312598
 20
12.522833
 30
0.0
  0
LWPOLYLINE
  5
14c
100
AcDbEntity
  8
Layer_1
 62
7
100
AcDbPolyline
 90
13
 70
0
 10
0.948238
 20
12.402062
 30
0.0
 10
0.929800
 20
12.397669
 30
0.0
 10
0.917550
 20
12.386697
 30
0.0
 10
0.910294
 20
12.354074
 30
0.0
 10
0.923823
 20
12.322308
 30
0.0
 10
0.937555
 20
12.312407
 30
0.0
 10
0.955492
 20
12.309513
 30
0.0
 10
0.983413
 20
12.319575
 30
0.0
 10
0.997613
 20
12.343994
 30
0.0
 10
0.996171
 20
12.372656
 30
0.0
 10
0.977166
 20
12.395447
 30
0.0
 10
0.948238
 20
12.402062
 30
0.0
 10
0.948238
 20
12.402062
 30
0.0
  0
LWPOLYLINE
  5
14d
100
AcDbEntity
  8
Layer_1
 62
7
100
AcDbPolyline
 90
12
 70
0
 10
4.431905
 20
11.899684
 30
0.0
 10
4.370817
 20
11.886978
 30
0.0
 10
4.312430
 20
11.865299
 30
0.0
 10
4.203220
 20
11.804767
 30
0.0
 10
4.413582
 20
11.791186
 30
0.0
 10
4.624324
 20
11.796828
 30
0.0
 10
4.611152
 20
11.842629
 30
0.0
 10
4.576374
 20
11.872928
 30
0.0
 10
4.530273
 20
11.890064
 30
0.0
 10
4.483128
 20
11.896379
 30
0.0
 10
4.431905
 20
11.899684
 30
0.0
 10
4.431905
 20
11.899684
 30
0.0
  0
LWPOLYLINE
  5
14e
100
AcDbEntity
  8
Layer_1
 62
7
100
AcDbPolyline
 90
14
 70
0
 10
11.928207
 20
11.532465
 30
0.0
 10
11.918304
 20
11.518331
 30
0.0
 10
11.920700
 20
11.498647
 30
0.0
 10
11.931481
 20
11.457885
 30
0.0
 10
11.980746
 20
11.296944
 30
0.0
 10
12.016773
 20
11.220965
 30
0.0
 10
12.062206
 20
11.150034
 30
0.0
 10
12.070959
 20
11.258197
 30
0.0
 10
12.058061
 20
11.368870
 30
0.0
 10
12.040438
 20
11.420047
 30
0.0
 10
12.013736
 20
11.465732
 30
0.0
 10
11.976733
 20
11.503885
 30
0.0
 10
11.928207
 20
11.532465
 30
0.0
 10
11.928207
 20
11.532465
 30
0.0
  0
LWPOLYLINE
  5
14f
100
AcDbEntity
  8
Layer_1
 62
7
100
AcDbPolyline
 90
21
 70
0
 10
0.712752
 20
11.500275
 30
0.0
 10
0.694323
 20
11.485943
 30
0.0
 10
0.653292
 20
11.453657
 30
0.0
 10
0.630510
 20
11.447492
 30
0.0
 10
0.607201
 20
11.458878
 30
0.0
 10
0.573085
 20
11.460390
 30
0.0
 10
0.545984
 20
11.440713
 30
0.0
 10
0.512939
 20
11.378236
 30
0.0
 10
0.458184
 20
11.255792
 30
0.0
 10
0.431282
 20
11.194566
 30
0.0
 10
0.414161
 20
11.130795
 30
0.0
 10
0.424734
 20
11.107928
 30
0.0
 10
0.442833
 20
11.091684
 30
0.0
 10
0.491007
 20
11.079270
 30
0.0
 10
0.537482
 20
11.093969
 30
0.0
 10
0.553457
 20
11.111616
 30
0.0
 10
0.561058
 20
11.136197
 30
0.0
 10
0.640387
 20
11.316885
 30
0.0
 10
0.679743
 20
11.407304
 30
0.0
 10
0.712752
 20
11.500275
 30
0.0
 10
0.712752
 20
11.500275
 30
0.0
  0
LWPOLYLINE
  5
150
100
AcDbEntity
  8
Layer_1
 62
7
100
AcDbPolyline
 90
15
 70
0
 10
8.672181
 20
11.481312
 30
0.0
 10
8.663686
 20
11.480550
 30
0.0
 10
8.623423
 20
11.450997
 30
0.0
 10
8.601978
 20
11.404848
 30
0.0
 10
8.601107
 20
11.353844
 30
0.0
 10
8.622566
 20
11.309729
 30
0.0
 10
8.655571
 20
11.311878
 30
0.0
 10
8.678831
 20
11.333239
 30
0.0
 10
8.693587
 20
11.364550
 30
0.0
 10
8.701080
 20
11.396547
 30
0.0
 10
8.711146
 20
11.421852
 30
0.0
 10
8.709702
 20
11.449673
 30
0.0
 10
8.696723
 20
11.472124
 30
0.0
 10
8.672181
 20
11.481323
 30
0.0
 10
8.672181
 20
11.481312
 30
0.0
  0
LWPOLYLINE
  5
151
100
AcDbEntity
  8
Layer_1
 62
7
100
AcDbPolyline
 90
13
 70
0
 10
10.841538
 20
11.395545
 30
0.0
 10
10.831858
 20
11.395545
 30
0.0
 10
10.813478
 20
11.391010
 30
0.0
 10
10.801859
 20
11.379677
 30
0.0
 10
10.796884
 20
11.346420
 30
0.0
 10
10.812896
 20
11.315387
 30
0.0
 10
10.827510
 20
11.306834
 30
0.0
 10
10.845856
 20
11.306193
 30
0.0
 10
10.874566
 20
11.322713
 30
0.0
 10
10.881395
 20
11.351960
 30
0.0
 10
10.869375
 20
11.380676
 30
0.0
 10
10.841538
 20
11.395598
 30
0.0
 10
10.841538
 20
11.395545
 30
0.0
  0
LWPOLYLINE
  5
152
100
AcDbEntity
  8
Layer_1
 62
7
100
AcDbPolyline
 90
13
 70
0
 10
6.329962
 20
10.920232
 30
0.0
 10
6.320141
 20
10.919837
 30
0.0
 10
6.301170
 20
10.913518
 30
0.0
 10
6.290008
 20
10.900424
 30
0.0
 10
6.287992
 20
10.864527
 30
0.0
 10
6.307858
 20
10.833381
 30
0.0
 10
6.324047
 20
10.826227
 30
0.0
 10
6.343368
 20
10.828224
 30
0.0
 10
6.370400
 20
10.848827
 30
0.0
 10
6.374395
 20
10.879036
 30
0.0
 10
6.359525
 20
10.906838
 30
0.0
 10
6.329962
 20
10.920220
 30
0.0
 10
6.329962
 20
10.920232
 30
0.0
  0
LWPOLYLINE
  5
153
100
AcDbEntity
  8
Layer_1
 62
7
100
AcDbPolyline
 90
15
 70
0
 10
6.054570
 20
10.901103
 30
0.0
 10
6.039364
 20
10.880474
 30
0.0
 10
6.040536
 20
10.853672
 30
0.0
 10
6.060581
 20
10.800617
 30
0.0
 10
6.106820
 20
10.657595
 30
0.0
 10
6.140135
 20
10.590212
 30
0.0
 10
6.181739
 20
10.527545
 30
0.0
 10
6.190637
 20
10.620964
 30
0.0
 10
6.185616
 20
10.716414
 30
0.0
 10
6.158026
 20
10.805101
 30
0.0
 10
6.133064
 20
10.844159
 30
0.0
 10
6.099217
 20
10.878229
 30
0.0
 10
6.078216
 20
10.892904
 30
0.0
 10
6.054570
 20
10.901103
 30
0.0
 10
6.054570
 20
10.901103
 30
0.0
  0
LWPOLYLINE
  5
154
100
AcDbEntity
  8
Layer_1
 62
7
100
AcDbPolyline
 90
15
 70
0
 10
2.793097
 20
10.857669
 30
0.0
 10
2.784207
 20
10.857132
 30
0.0
 10
2.743731
 20
10.828628
 30
0.0
 10
2.722083
 20
10.783229
 30
0.0
 10
2.720532
 20
10.732463
 30
0.0
 10
2.740350
 20
10.687853
 30
0.0
 10
2.772813
 20
10.687848
 30
0.0
 10
2.796776
 20
10.707528
 30
0.0
 10
2.812267
 20
10.737752
 30
0.0
 10
2.819315
 20
10.769378
 30
0.0
 10
2.830185
 20
10.795143
 30
0.0
 10
2.829987
 20
10.823890
 30
0.0
 10
2.817898
 20
10.847456
 30
0.0
 10
2.793097
 20
10.857683
 30
0.0
 10
2.793097
 20
10.857669
 30
0.0
  0
LWPOLYLINE
  5
155
100
AcDbEntity
  8
Layer_1
 62
7
100
AcDbPolyline
 90
15
 70
0
 10
7.408700
 20
10.852157
 30
0.0
 10
7.402068
 20
10.849560
 30
0.0
 10
7.397835
 20
10.847839
 30
0.0
 10
7.366232
 20
10.836146
 30
0.0
 10
7.330648
 20
10.831422
 30
0.0
 10
7.299334
 20
10.821181
 30
0.0
 10
7.280543
 20
10.792935
 30
0.0
 10
7.292329
 20
10.697235
 30
0.0
 10
7.303780
 20
10.651415
 30
0.0
 10
7.331146
 20
10.614179
 30
0.0
 10
7.364999
 20
10.625917
 30
0.0
 10
7.383149
 20
10.655132
 30
0.0
 10
7.394363
 20
10.727451
 30
0.0
 10
7.408700
 20
10.852137
 30
0.0
 10
7.408700
 20
10.852157
 30
0.0
  0
LWPOLYLINE
  5
156
100
AcDbEntity
  8
Layer_1
 62
7
100
AcDbPolyline
 90
12
 70
0
 10
3.942532
 20
10.756464
 30
0.0
 10
3.924379
 20
10.751755
 30
0.0
 10
3.913026
 20
10.740164
 30
0.0
 10
3.908605
 20
10.706584
 30
0.0
 10
3.925049
 20
10.676226
 30
0.0
 10
3.939777
 20
10.668663
 30
0.0
 10
3.958138
 20
10.669593
 30
0.0
 10
3.985148
 20
10.688706
 30
0.0
 10
3.989282
 20
10.719210
 30
0.0
 10
3.973942
 20
10.746624
 30
0.0
 10
3.942532
 20
10.756464
 30
0.0
 10
3.942532
 20
10.756464
 30
0.0
  0
LWPOLYLINE
  5
157
100
AcDbEntity
  8
Layer_1
 62
7
100
AcDbPolyline
 90
15
 70
0
 10
1.285127
 20
10.751669
 30
0.0
 10
1.263934
 20
10.745848
 30
0.0
 10
1.249622
 20
10.731800
 30
0.0
 10
1.240712
 20
10.690881
 30
0.0
 10
1.256536
 20
10.652631
 30
0.0
 10
1.273141
 20
10.641917
 30
0.0
 10
1.295231
 20
10.640764
 30
0.0
 10
1.330345
 20
10.637691
 30
0.0
 10
1.366111
 20
10.643980
 30
0.0
 10
1.394680
 20
10.662346
 30
0.0
 10
1.408204
 20
10.695501
 30
0.0
 10
1.350444
 20
10.733540
 30
0.0
 10
1.319261
 20
10.747411
 30
0.0
 10
1.285127
 20
10.751669
 30
0.0
 10
1.285127
 20
10.751669
 30
0.0
  0
LWPOLYLINE
  5
158
100
AcDbEntity
  8
Layer_1
 62
7
100
AcDbPolyline
 90
13
 70
0
 10
13.561088
 20
10.441501
 30
0.0
 10
13.483336
 20
10.427510
 30
0.0
 10
13.450781
 20
10.409118
 30
0.0
 10
13.435725
 20
10.373920
 30
0.0
 10
13.452607
 20
10.353053
 30
0.0
 10
13.475431
 20
10.339141
 30
0.0
 10
13.529091
 20
10.332034
 30
0.0
 10
13.577068
 20
10.352306
 30
0.0
 10
13.592789
 20
10.372618
 30
0.0
 10
13.599724
 20
10.399664
 30
0.0
 10
13.589487
 20
10.429455
 30
0.0
 10
13.561088
 20
10.441501
 30
0.0
 10
13.561088
 20
10.441501
 30
0.0
  0
LWPOLYLINE
  5
159
100
AcDbEntity
  8
Layer_1
 62
7
100
AcDbPolyline
 90
18
 70
0
 10
9.720044
 20
10.408097
 30
0.0
 10
9.718633
 20
10.401205
 30
0.0
 10
9.717504
 20
10.395253
 30
0.0
 10
9.703163
 20
10.342157
 30
0.0
 10
9.676610
 20
10.292067
 30
0.0
 10
9.689879
 20
10.254574
 30
0.0
 10
9.719663
 20
10.228928
 30
0.0
 10
9.755374
 20
10.207401
 30
0.0
 10
9.786422
 20
10.182263
 30
0.0
 10
9.903143
 20
10.097570
 30
0.0
 10
10.026509
 20
10.023016
 30
0.0
 10
10.024066
 20
10.060444
 30
0.0
 10
10.013595
 20
10.094564
 30
0.0
 10
9.974862
 20
10.154875
 30
0.0
 10
9.870299
 20
10.257726
 30
0.0
 10
9.720100
 20
10.408097
 30
0.0
 10
9.720100
 20
10.408097
 30
0.0
 10
9.720044
 20
10.408097
 30
0.0
  0
LWPOLYLINE
  5
15a
100
AcDbEntity
  8
Layer_1
 62
7
100
AcDbPolyline
 90
16
 70
0
 10
10.904164
 20
10.362070
 30
0.0
 10
10.840241
 20
10.314632
 30
0.0
 10
10.782568
 20
10.259165
 30
0.0
 10
10.671387
 20
10.143788
 30
0.0
 10
10.666694
 20
10.114871
 30
0.0
 10
10.681473
 20
10.090461
 30
0.0
 10
10.706935
 20
10.079348
 30
0.0
 10
10.734294
 20
10.090321
 30
0.0
 10
10.970091
 20
10.259434
 30
0.0
 10
11.060543
 20
10.348455
 30
0.0
 10
10.997311
 20
10.328290
 30
0.0
 10
10.966317
 20
10.327826
 30
0.0
 10
10.941868
 20
10.347919
 30
0.0
 10
10.924413
 20
10.358841
 30
0.0
 10
10.904164
 20
10.362086
 30
0.0
 10
10.904164
 20
10.362070
 30
0.0
  0
LWPOLYLINE
  5
15b
100
AcDbEntity
  8
Layer_1
 62
7
100
AcDbPolyline
 90
13
 70
0
 10
5.170480
 20
9.908420
 30
0.0
 10
5.150809
 20
9.903655
 30
0.0
 10
5.138194
 20
9.891385
 30
0.0
 10
5.132236
 20
9.855222
 30
0.0
 10
5.148815
 20
9.821707
 30
0.0
 10
5.164371
 20
9.812749
 30
0.0
 10
5.184140
 20
9.812620
 30
0.0
 10
5.212941
 20
9.827387
 30
0.0
 10
5.222970
 20
9.856549
 30
0.0
 10
5.214664
 20
9.887144
 30
0.0
 10
5.188458
 20
9.906216
 30
0.0
 10
5.170480
 20
9.908417
 30
0.0
 10
5.170480
 20
9.908420
 30
0.0
  0
LWPOLYLINE
  5
15c
100
AcDbEntity
  8
Layer_1
 62
7
100
AcDbPolyline
 90
13
 70
0
 10
3.715230
 20
9.904232
 30
0.0
 10
3.696033
 20
9.899675
 30
0.0
 10
3.683270
 20
9.887401
 30
0.0
 10
3.675874
 20
9.850995
 30
0.0
 10
3.690703
 20
9.817601
 30
0.0
 10
3.705721
 20
9.809093
 30
0.0
 10
3.725418
 20
9.809809
 30
0.0
 10
3.750758
 20
9.831068
 30
0.0
 10
3.758297
 20
9.864139
 30
0.0
 10
3.746849
 20
9.893650
 30
0.0
 10
3.733635
 20
9.902268
 30
0.0
 10
3.715230
 20
9.904232
 30
0.0
 10
3.715230
 20
9.904232
 30
0.0
  0
LWPOLYLINE
  5
15d
100
AcDbEntity
  8
Layer_1
 62
7
100
AcDbPolyline
 90
11
 70
0
 10
5.210387
 20
9.805728
 30
0.0
 10
5.179568
 20
9.794711
 30
0.0
 10
5.168494
 20
9.765581
 30
0.0
 10
5.176244
 20
9.733400
 30
0.0
 10
5.201892
 20
9.713235
 30
0.0
 10
5.231869
 20
9.717224
 30
0.0
 10
5.251926
 20
9.738657
 30
0.0
 10
5.256823
 20
9.767539
 30
0.0
 10
5.241318
 20
9.793877
 30
0.0
 10
5.210387
 20
9.805728
 30
0.0
 10
5.210387
 20
9.805728
 30
0.0
  0
LWPOLYLINE
  5
15e
100
AcDbEntity
  8
Layer_1
 62
7
100
AcDbPolyline
 90
12
 70
0
 10
10.309296
 20
9.802200
 30
0.0
 10
10.285187
 20
9.790025
 30
0.0
 10
10.275662
 20
9.764567
 30
0.0
 10
10.280816
 20
9.736332
 30
0.0
 10
10.300744
 20
9.715826
 30
0.0
 10
10.332453
 20
9.714931
 30
0.0
 10
10.354455
 20
9.736747
 30
0.0
 10
10.359803
 20
9.767740
 30
0.0
 10
10.341554
 20
9.794374
 30
0.0
 10
10.318157
 20
9.801870
 30
0.0
 10
10.309296
 20
9.802208
 30
0.0
 10
10.309296
 20
9.802200
 30
0.0
  0
LWPOLYLINE
  5
15f
100
AcDbEntity
  8
Layer_1
 62
7
100
AcDbPolyline
 90
17
 70
0
 10
3.839238
 20
9.781586
 30
0.0
 10
3.837827
 20
9.774695
 30
0.0
 10
3.836698
 20
9.769073
 30
0.0
 10
3.832956
 20
9.740946
 30
0.0
 10
3.820918
 20
9.715740
 30
0.0
 10
3.797074
 20
9.664617
 30
0.0
 10
3.808510
 20
9.633214
 30
0.0
 10
3.833611
 20
9.609660
 30
0.0
 10
3.892437
 20
9.570690
 30
0.0
 10
4.013673
 20
9.480428
 30
0.0
 10
4.142740
 20
9.401854
 30
0.0
 10
4.142310
 20
9.437591
 30
0.0
 10
4.133659
 20
9.470307
 30
0.0
 10
4.098075
 20
9.528304
 30
0.0
 10
3.998440
 20
9.625921
 30
0.0
 10
3.839238
 20
9.781586
 30
0.0
 10
3.839238
 20
9.781586
 30
0.0
  0
LWPOLYLINE
  5
160
100
AcDbEntity
  8
Layer_1
 62
7
100
AcDbPolyline
 90
19
 70
0
 10
5.038288
 20
9.741071
 30
0.0
 10
5.028494
 20
9.741071
 30
0.0
 10
4.962583
 20
9.694183
 30
0.0
 10
4.903812
 20
9.637591
 30
0.0
 10
4.790073
 20
9.519758
 30
0.0
 10
4.787312
 20
9.487319
 30
0.0
 10
4.808982
 20
9.464929
 30
0.0
 10
4.840897
 20
9.459163
 30
0.0
 10
4.868870
 20
9.476597
 30
0.0
 10
5.019340
 20
9.583692
 30
0.0
 10
5.091401
 20
9.641058
 30
0.0
 10
5.155099
 20
9.706950
 30
0.0
 10
5.144065
 20
9.716447
 30
0.0
 10
5.126115
 20
9.711892
 30
0.0
 10
5.105815
 20
9.704054
 30
0.0
 10
5.087733
 20
9.703699
 30
0.0
 10
5.063021
 20
9.722628
 30
0.0
 10
5.038288
 20
9.741127
 30
0.0
 10
5.038288
 20
9.741071
 30
0.0
  0
LWPOLYLINE
  5
161
100
AcDbEntity
  8
Layer_1
 62
7
100
AcDbPolyline
 90
14
 70
0
 10
0.366296
 20
9.623440
 30
0.0
 10
0.356447
 20
9.623440
 30
0.0
 10
0.337527
 20
9.617886
 30
0.0
 10
0.325870
 20
9.605478
 30
0.0
 10
0.321910
 20
9.570323
 30
0.0
 10
0.339699
 20
9.538424
 30
0.0
 10
0.355227
 20
9.530086
 30
0.0
 10
0.374368
 20
9.530231
 30
0.0
 10
0.402908
 20
9.548826
 30
0.0
 10
0.408654
 20
9.579262
 30
0.0
 10
0.395239
 20
9.608499
 30
0.0
 10
0.366296
 20
9.623497
 30
0.0
 10
0.366296
 20
9.623497
 30
0.0
 10
0.366296
 20
9.623440
 30
0.0
  0
LWPOLYLINE
  5
162
100
AcDbEntity
  8
Layer_1
 62
7
100
AcDbPolyline
 90
14
 70
0
 10
1.231392
 20
9.550461
 30
0.0
 10
1.209870
 20
9.544248
 30
0.0
 10
1.195718
 20
9.529766
 30
0.0
 10
1.188103
 20
9.488214
 30
0.0
 10
1.205702
 20
9.450252
 30
0.0
 10
1.223069
 20
9.440258
 30
0.0
 10
1.245672
 20
9.440329
 30
0.0
 10
1.305444
 20
9.464341
 30
0.0
 10
1.325313
 20
9.487376
 30
0.0
 10
1.326247
 20
9.518600
 30
0.0
 10
1.309572
 20
9.538601
 30
0.0
 10
1.285032
 20
9.547752
 30
0.0
 10
1.231392
 20
9.550461
 30
0.0
 10
1.231392
 20
9.550461
 30
0.0
  0
LWPOLYLINE
  5
163
100
AcDbEntity
  8
Layer_1
 62
7
100
AcDbPolyline
 90
16
 70
0
 10
7.271371
 20
8.839944
 30
0.0
 10
7.249273
 20
8.827266
 30
0.0
 10
7.186747
 20
8.790950
 30
0.0
 10
7.155468
 20
8.773699
 30
0.0
 10
7.122781
 20
8.763766
 30
0.0
 10
7.089781
 20
8.761512
 30
0.0
 10
7.066238
 20
8.740249
 30
0.0
 10
7.038989
 20
8.678713
 30
0.0
 10
6.834378
 20
8.240058
 30
0.0
 10
6.855911
 20
8.227789
 30
0.0
 10
6.878689
 20
8.223691
 30
0.0
 10
6.923306
 20
8.235837
 30
0.0
 10
6.958886
 20
8.268145
 30
0.0
 10
6.976082
 20
8.312267
 30
0.0
 10
7.271371
 20
8.839944
 30
0.0
 10
7.271371
 20
8.839944
 30
0.0
  0
LWPOLYLINE
  5
164
100
AcDbEntity
  8
Layer_1
 62
7
100
AcDbPolyline
 90
16
 70
0
 10
1.778536
 20
8.779698
 30
0.0
 10
1.771368
 20
8.778258
 30
0.0
 10
1.747154
 20
8.748989
 30
0.0
 10
1.745717
 20
8.712154
 30
0.0
 10
1.770803
 20
8.638524
 30
0.0
 10
1.803106
 20
8.537945
 30
0.0
 10
1.852334
 20
8.443712
 30
0.0
 10
1.920247
 20
8.363666
 30
0.0
 10
1.961760
 20
8.331413
 30
0.0
 10
2.008604
 20
8.305646
 30
0.0
 10
1.914825
 20
8.543651
 30
0.0
 10
1.861605
 20
8.659809
 30
0.0
 10
1.799731
 20
8.771476
 30
0.0
 10
1.778564
 20
8.779689
 30
0.0
 10
1.778564
 20
8.779689
 30
0.0
 10
1.778536
 20
8.779698
 30
0.0
  0
LWPOLYLINE
  5
165
100
AcDbEntity
  8
Layer_1
 62
7
100
AcDbPolyline
 90
16
 70
0
 10
13.901730
 20
8.677996
 30
0.0
 10
13.899190
 20
8.674248
 30
0.0
 10
13.846933
 20
8.604850
 30
0.0
 10
13.829956
 20
8.567013
 30
0.0
 10
13.836565
 20
8.525144
 30
0.0
 10
13.849803
 20
8.510055
 30
0.0
 10
13.866676
 20
8.502410
 30
0.0
 10
13.904225
 20
8.506120
 30
0.0
 10
13.934994
 20
8.529609
 30
0.0
 10
13.944769
 20
8.566211
 30
0.0
 10
13.957326
 20
8.599804
 30
0.0
 10
13.954104
 20
8.636070
 30
0.0
 10
13.935482
 20
8.665353
 30
0.0
 10
13.901843
 20
8.677996
 30
0.0
 10
13.901843
 20
8.677996
 30
0.0
 10
13.901730
 20
8.677996
 30
0.0
  0
LWPOLYLINE
  5
166
100
AcDbEntity
  8
Layer_1
 62
7
100
AcDbPolyline
 90
12
 70
0
 10
8.235470
 20
8.525587
 30
0.0
 10
8.207625
 20
8.514205
 30
0.0
 10
8.194957
 20
8.488240
 30
0.0
 10
8.199053
 20
8.459326
 30
0.0
 10
8.221500
 20
8.439100
 30
0.0
 10
8.253160
 20
8.432705
 30
0.0
 10
8.282118
 20
8.447762
 30
0.0
 10
8.297101
 20
8.475038
 30
0.0
 10
8.286835
 20
8.505301
 30
0.0
 10
8.263999
 20
8.521985
 30
0.0
 10
8.235470
 20
8.525587
 30
0.0
 10
8.235470
 20
8.525587
 30
0.0
  0
LWPOLYLINE
  5
167
100
AcDbEntity
  8
Layer_1
 62
7
100
AcDbPolyline
 90
17
 70
0
 10
8.325640
 20
8.463905
 30
0.0
 10
8.321548
 20
8.459440
 30
0.0
 10
8.301594
 20
8.445040
 30
0.0
 10
8.287839
 20
8.424998
 30
0.0
 10
8.279081
 20
8.376795
 30
0.0
 10
8.295584
 20
8.332446
 30
0.0
 10
8.313407
 20
8.317222
 30
0.0
 10
8.337663
 20
8.309566
 30
0.0
 10
8.707716
 20
8.089242
 30
0.0
 10
8.893586
 20
7.980799
 30
0.0
 10
9.083548
 20
7.880995
 30
0.0
 10
9.110370
 20
7.899120
 30
0.0
 10
9.114335
 20
7.930390
 30
0.0
 10
9.099879
 20
7.961078
 30
0.0
 10
9.071441
 20
7.977458
 30
0.0
 10
8.325640
 20
8.463905
 30
0.0
 10
8.325640
 20
8.463905
 30
0.0
  0
LWPOLYLINE
  5
168
100
AcDbEntity
  8
Layer_1
 62
7
100
AcDbPolyline
 90
18
 70
0
 10
12.495953
 20
8.330070
 30
0.0
 10
12.495953
 20
8.330070
 30
0.0
 10
12.487204
 20
8.329674
 30
0.0
 10
12.460091
 20
8.311918
 30
0.0
 10
12.453006
 20
8.281936
 30
0.0
 10
12.461765
 20
8.249447
 30
0.0
 10
12.482181
 20
8.224171
 30
0.0
 10
12.498392
 20
8.198192
 30
0.0
 10
12.526186
 20
8.190467
 30
0.0
 10
12.556341
 20
8.198009
 30
0.0
 10
12.579632
 20
8.217833
 30
0.0
 10
12.589082
 20
8.242380
 30
0.0
 10
12.584702
 20
8.267387
 30
0.0
 10
12.569659
 20
8.288522
 30
0.0
 10
12.547120
 20
8.301452
 30
0.0
 10
12.523717
 20
8.320385
 30
0.0
 10
12.495953
 20
8.330118
 30
0.0
 10
12.495953
 20
8.330070
 30
0.0
  0
LWPOLYLINE
  5
169
100
AcDbEntity
  8
Layer_1
 62
7
100
AcDbPolyline
 90
13
 70
0
 10
9.159579
 20
7.920847
 30
0.0
 10
9.150463
 20
7.920142
 30
0.0
 10
9.132952
 20
7.914730
 30
0.0
 10
9.122061
 20
7.902661
 30
0.0
 10
9.118152
 20
7.868915
 30
0.0
 10
9.134759
 20
7.839644
 30
0.0
 10
9.149513
 20
7.833167
 30
0.0
 10
9.167904
 20
7.835585
 30
0.0
 10
9.191722
 20
7.853398
 30
0.0
 10
9.196857
 20
7.881859
 30
0.0
 10
9.185434
 20
7.908502
 30
0.0
 10
9.159579
 20
7.920859
 30
0.0
 10
9.159579
 20
7.920847
 30
0.0
  0
LWPOLYLINE
  5
16a
100
AcDbEntity
  8
Layer_1
 62
7
100
AcDbPolyline
 90
14
 70
0
 10
2.334712
 20
7.864843
 30
0.0
 10
2.342642
 20
7.853049
 30
0.0
 10
2.436022
 20
7.723542
 30
0.0
 10
2.492145
 20
7.667593
 30
0.0
 10
2.559586
 20
7.624901
 30
0.0
 10
2.543847
 20
7.650496
 30
0.0
 10
2.544650
 20
7.677369
 30
0.0
 10
2.565485
 20
7.731341
 30
0.0
 10
2.560698
 20
7.762824
 30
0.0
 10
2.537774
 20
7.784788
 30
0.0
 10
2.480112
 20
7.819315
 30
0.0
 10
2.410555
 20
7.852594
 30
0.0
 10
2.334712
 20
7.864843
 30
0.0
 10
2.334712
 20
7.864843
 30
0.0
  0
LWPOLYLINE
  5
16b
100
AcDbEntity
  8
Layer_1
 62
7
100
AcDbPolyline
 90
16
 70
0
 10
10.172982
 20
7.725773
 30
0.0
 10
10.042059
 20
7.725152
 30
0.0
 10
9.981643
 20
7.711346
 30
0.0
 10
9.929396
 20
7.678133
 30
0.0
 10
10.092217
 20
7.631163
 30
0.0
 10
10.260750
 20
7.604347
 30
0.0
 10
10.345464
 20
7.601661
 30
0.0
 10
10.429574
 20
7.607810
 30
0.0
 10
10.512401
 20
7.624059
 30
0.0
 10
10.593268
 20
7.651675
 30
0.0
 10
10.611308
 20
7.670471
 30
0.0
 10
10.608285
 20
7.694756
 30
0.0
 10
10.590811
 20
7.715691
 30
0.0
 10
10.565497
 20
7.724435
 30
0.0
 10
10.172982
 20
7.725761
 30
0.0
 10
10.172982
 20
7.725773
 30
0.0
  0
LWPOLYLINE
  5
16c
100
AcDbEntity
  8
Layer_1
 62
7
100
AcDbPolyline
 90
16
 70
0
 10
2.711281
 20
7.668611
 30
0.0
 10
2.712692
 20
7.654003
 30
0.0
 10
2.716692
 20
7.596639
 30
0.0
 10
2.701770
 20
7.540841
 30
0.0
 10
2.719634
 20
7.504911
 30
0.0
 10
2.752270
 20
7.482500
 30
0.0
 10
2.790404
 20
7.465033
 30
0.0
 10
2.824762
 20
7.443937
 30
0.0
 10
3.331972
 20
7.158297
 30
0.0
 10
3.337693
 20
7.212632
 30
0.0
 10
3.317374
 20
7.261447
 30
0.0
 10
3.279624
 20
7.301516
 30
0.0
 10
3.233053
 20
7.329614
 30
0.0
 10
2.711365
 20
7.668611
 30
0.0
 10
2.711365
 20
7.668611
 30
0.0
 10
2.711281
 20
7.668611
 30
0.0
  0
LWPOLYLINE
  5
16d
100
AcDbEntity
  8
Layer_1
 62
7
100
AcDbPolyline
 90
17
 70
0
 10
2.405041
 20
7.511792
 30
0.0
 10
2.357360
 20
7.486266
 30
0.0
 10
2.318614
 20
7.449026
 30
0.0
 10
2.259725
 20
7.357947
 30
0.0
 10
2.281697
 20
7.363308
 30
0.0
 10
2.301325
 20
7.375266
 30
0.0
 10
2.320741
 20
7.386488
 30
0.0
 10
2.342078
 20
7.389643
 30
0.0
 10
2.367429
 20
7.372484
 30
0.0
 10
2.395516
 20
7.378399
 30
0.0
 10
2.420365
 20
7.398797
 30
0.0
 10
2.436001
 20
7.425084
 30
0.0
 10
2.448027
 20
7.451748
 30
0.0
 10
2.447540
 20
7.480807
 30
0.0
 10
2.433544
 20
7.503681
 30
0.0
 10
2.405041
 20
7.511792
 30
0.0
 10
2.405041
 20
7.511792
 30
0.0
  0
LWPOLYLINE
  5
16e
100
AcDbEntity
  8
Layer_1
 62
7
100
AcDbPolyline
 90
13
 70
0
 10
7.744262
 20
7.507327
 30
0.0
 10
7.734836
 20
7.506875
 30
0.0
 10
7.716243
 20
7.500549
 30
0.0
 10
7.705314
 20
7.487503
 30
0.0
 10
7.703407
 20
7.451928
 30
0.0
 10
7.723021
 20
7.421502
 30
0.0
 10
7.738995
 20
7.414892
 30
0.0
 10
7.758063
 20
7.417577
 30
0.0
 10
7.783668
 20
7.437874
 30
0.0
 10
7.787241
 20
7.467386
 30
0.0
 10
7.772775
 20
7.494428
 30
0.0
 10
7.744262
 20
7.507316
 30
0.0
 10
7.744262
 20
7.507327
 30
0.0
  0
LWPOLYLINE
  5
16f
100
AcDbEntity
  8
Layer_1
 62
7
100
AcDbPolyline
 90
15
 70
0
 10
10.347537
 20
7.448292
 30
0.0
 10
10.325244
 20
7.437487
 30
0.0
 10
10.309114
 20
7.418981
 30
0.0
 10
10.296063
 20
7.369569
 30
0.0
 10
10.309814
 20
7.321471
 30
0.0
 10
10.327187
 20
7.304606
 30
0.0
 10
10.351798
 20
7.296100
 30
0.0
 10
10.380928
 20
7.302071
 30
0.0
 10
10.399780
 20
7.323236
 30
0.0
 10
10.406380
 20
7.351918
 30
0.0
 10
10.398760
 20
7.380437
 30
0.0
 10
10.385827
 20
7.425810
 30
0.0
 10
10.370439
 20
7.442402
 30
0.0
 10
10.347537
 20
7.448292
 30
0.0
 10
10.347537
 20
7.448292
 30
0.0
  0
LWPOLYLINE
  5
170
100
AcDbEntity
  8
Layer_1
 62
7
100
AcDbPolyline
 90
23
 70
0
 10
4.978880
 20
7.117231
 30
0.0
 10
4.967958
 20
7.116949
 30
0.0
 10
4.931414
 20
7.097737
 30
0.0
 10
4.890742
 20
7.097216
 30
0.0
 10
4.826162
 20
7.097651
 30
0.0
 10
4.799818
 20
7.083334
 30
0.0
 10
4.788718
 20
7.053285
 30
0.0
 10
4.772353
 20
7.013182
 30
0.0
 10
4.755401
 20
7.000785
 30
0.0
 10
4.733742
 20
6.996400
 30
0.0
 10
4.737589
 20
6.981127
 30
0.0
 10
4.753222
 20
6.972330
 30
0.0
 10
4.791287
 20
6.965587
 30
0.0
 10
4.942575
 20
6.996498
 30
0.0
 10
5.015723
 20
7.020923
 30
0.0
 10
5.085249
 20
7.054442
 30
0.0
 10
5.054099
 20
7.058793
 30
0.0
 10
5.025192
 20
7.064309
 30
0.0
 10
5.027612
 20
7.084129
 30
0.0
 10
5.017308
 20
7.100375
 30
0.0
 10
4.978880
 20
7.117115
 30
0.0
 10
4.978880
 20
7.117115
 30
0.0
 10
4.978880
 20
7.117231
 30
0.0
  0
LWPOLYLINE
  5
171
100
AcDbEntity
  8
Layer_1
 62
7
100
AcDbPolyline
 90
14
 70
0
 10
8.749679
 20
6.902920
 30
0.0
 10
8.737882
 20
6.902525
 30
0.0
 10
8.719560
 20
6.895778
 30
0.0
 10
8.706847
 20
6.882415
 30
0.0
 10
8.698029
 20
6.845380
 30
0.0
 10
8.710986
 20
6.810500
 30
0.0
 10
8.725492
 20
6.799831
 30
0.0
 10
8.745276
 20
6.796855
 30
0.0
 10
8.779327
 20
6.804024
 30
0.0
 10
8.800239
 20
6.830381
 30
0.0
 10
8.803054
 20
6.863828
 30
0.0
 10
8.782812
 20
6.892272
 30
0.0
 10
8.749679
 20
6.902911
 30
0.0
 10
8.749679
 20
6.902920
 30
0.0
  0
LWPOLYLINE
  5
172
100
AcDbEntity
  8
Layer_1
 62
7
100
AcDbPolyline
 90
14
 70
0
 10
0.000254
 20
6.832915
 30
0.0
 10
0.000254
 20
6.699796
 30
0.0
 10
0.131452
 20
6.530863
 30
0.0
 10
0.267095
 20
6.365484
 30
0.0
 10
0.280099
 20
6.387956
 30
0.0
 10
0.284850
 20
6.413935
 30
0.0
 10
0.291682
 20
6.438013
 30
0.0
 10
0.310924
 20
6.454779
 30
0.0
 10
0.319103
 20
6.490542
 30
0.0
 10
0.304493
 20
6.523616
 30
0.0
 10
0.251432
 20
6.577921
 30
0.0
 10
0.127758
 20
6.707331
 30
0.0
 10
0.000254
 20
6.832915
 30
0.0
 10
0.000254
 20
6.832915
 30
0.0
  0
LWPOLYLINE
  5
173
100
AcDbEntity
  8
Layer_1
 62
7
100
AcDbPolyline
 90
26
 70
0
 10
6.011192
 20
6.466686
 30
0.0
 10
6.011192
 20
6.466686
 30
0.0
 10
6.001822
 20
6.466037
 30
0.0
 10
5.992678
 20
6.466037
 30
0.0
 10
5.962749
 20
6.457322
 30
0.0
 10
5.944020
 20
6.433816
 30
0.0
 10
5.938303
 20
6.403283
 30
0.0
 10
5.947410
 20
6.373488
 30
0.0
 10
5.986893
 20
6.183208
 30
0.0
 10
5.984879
 20
6.154530
 30
0.0
 10
6.001597
 20
6.131880
 30
0.0
 10
6.028390
 20
6.121499
 30
0.0
 10
6.056602
 20
6.129631
 30
0.0
 10
6.073256
 20
6.146907
 30
0.0
 10
6.077613
 20
6.170192
 30
0.0
 10
6.070159
 20
6.192765
 30
0.0
 10
6.051381
 20
6.207902
 30
0.0
 10
6.066728
 20
6.246941
 30
0.0
 10
6.066462
 20
6.288956
 30
0.0
 10
6.062846
 20
6.331923
 30
0.0
 10
6.068145
 20
6.373818
 30
0.0
 10
6.068299
 20
6.404998
 30
0.0
 10
6.058983
 20
6.435087
 30
0.0
 10
6.040010
 20
6.457789
 30
0.0
 10
6.011192
 20
6.466807
 30
0.0
 10
6.011192
 20
6.466686
 30
0.0
  0
LWPOLYLINE
  5
174
100
AcDbEntity
  8
Layer_1
 62
7
100
AcDbPolyline
 90
16
 70
0
 10
7.200759
 20
6.462001
 30
0.0
 10
7.172504
 20
6.447535
 30
0.0
 10
7.159124
 20
6.419197
 30
0.0
 10
7.159526
 20
6.353744
 30
0.0
 10
7.152809
 20
6.177905
 30
0.0
 10
7.197969
 20
6.180507
 30
0.0
 10
7.232294
 20
6.207640
 30
0.0
 10
7.252897
 20
6.248927
 30
0.0
 10
7.256893
 20
6.293991
 30
0.0
 10
7.279344
 20
6.374379
 30
0.0
 10
7.280531
 20
6.414214
 30
0.0
 10
7.258868
 20
6.448661
 30
0.0
 10
7.230872
 20
6.459434
 30
0.0
 10
7.200928
 20
6.462001
 30
0.0
 10
7.200928
 20
6.462001
 30
0.0
 10
7.200759
 20
6.462001
 30
0.0
  0
LWPOLYLINE
  5
175
100
AcDbEntity
  8
Layer_1
 62
7
100
AcDbPolyline
 90
12
 70
0
 10
3.045432
 20
6.248957
 30
0.0
 10
3.014673
 20
6.232888
 30
0.0
 10
3.001310
 20
6.199793
 30
0.0
 10
3.008272
 20
6.166627
 30
0.0
 10
3.020291
 20
6.155315
 30
0.0
 10
3.038489
 20
6.150343
 30
0.0
 10
3.072103
 20
6.158041
 30
0.0
 10
3.098359
 20
6.182453
 30
0.0
 10
3.107168
 20
6.213851
 30
0.0
 10
3.088442
 20
6.242508
 30
0.0
 10
3.045432
 20
6.248957
 30
0.0
 10
3.045432
 20
6.248957
 30
0.0
  0
LWPOLYLINE
  5
176
100
AcDbEntity
  8
Layer_1
 62
7
100
AcDbPolyline
 90
17
 70
0
 10
4.853263
 20
6.248280
 30
0.0
 10
4.848070
 20
6.243431
 30
0.0
 10
4.844429
 20
6.240014
 30
0.0
 10
4.824078
 20
6.218212
 30
0.0
 10
4.796875
 20
6.205265
 30
0.0
 10
4.770158
 20
6.192095
 30
0.0
 10
4.751268
 20
6.169622
 30
0.0
 10
4.773627
 20
6.091494
 30
0.0
 10
4.808559
 20
6.016000
 30
0.0
 10
4.850550
 20
5.940477
 30
0.0
 10
4.904458
 20
5.874335
 30
0.0
 10
4.916302
 20
5.884190
 30
0.0
 10
4.917846
 20
5.901539
 30
0.0
 10
4.915210
 20
5.938662
 30
0.0
 10
4.890872
 20
6.094674
 30
0.0
 10
4.853263
 20
6.248280
 30
0.0
 10
4.853263
 20
6.248280
 30
0.0
  0
LWPOLYLINE
  5
177
100
AcDbEntity
  8
Layer_1
 62
7
100
AcDbPolyline
 90
16
 70
0
 10
8.519499
 20
6.234059
 30
0.0
 10
8.498219
 20
6.219564
 30
0.0
 10
8.455491
 20
6.190411
 30
0.0
 10
8.432219
 20
6.185589
 30
0.0
 10
8.408275
 20
6.196523
 30
0.0
 10
8.375165
 20
6.192600
 30
0.0
 10
8.353245
 20
6.168710
 30
0.0
 10
8.335236
 20
6.102264
 30
0.0
 10
8.311540
 20
5.980558
 30
0.0
 10
8.306419
 20
5.919080
 30
0.0
 10
8.312291
 20
5.857413
 30
0.0
 10
8.347065
 20
5.890934
 30
0.0
 10
8.374394
 20
5.931353
 30
0.0
 10
8.420495
 20
6.017874
 30
0.0
 10
8.519499
 20
6.234059
 30
0.0
 10
8.519499
 20
6.234059
 30
0.0
  0
LWPOLYLINE
  5
178
100
AcDbEntity
  8
Layer_1
 62
7
100
AcDbPolyline
 90
14
 70
0
 10
6.045031
 20
6.109980
 30
0.0
 10
6.033347
 20
6.109698
 30
0.0
 10
6.000460
 20
6.105594
 30
0.0
 10
5.969878
 20
6.090981
 30
0.0
 10
5.949483
 20
6.066653
 30
0.0
 10
5.947156
 20
6.033410
 30
0.0
 10
5.993688
 20
6.018615
 30
0.0
 10
6.042618
 20
6.021414
 30
0.0
 10
6.086658
 20
6.041496
 30
0.0
 10
6.118521
 20
6.078554
 30
0.0
 10
6.083247
 20
6.098377
 30
0.0
 10
6.045031
 20
6.109918
 30
0.0
 10
6.045031
 20
6.109918
 30
0.0
 10
6.045031
 20
6.109980
 30
0.0
  0
LWPOLYLINE
  5
179
100
AcDbEntity
  8
Layer_1
 62
7
100
AcDbPolyline
 90
22
 70
0
 10
0.654219
 20
5.996377
 30
0.0
 10
0.654219
 20
5.996377
 30
0.0
 10
0.631012
 20
5.982132
 30
0.0
 10
0.623118
 20
5.956203
 30
0.0
 10
0.628264
 20
5.926948
 30
0.0
 10
0.644172
 20
5.902724
 30
0.0
 10
0.727262
 20
5.803753
 30
0.0
 10
0.805141
 20
5.699995
 30
0.0
 10
0.884444
 20
5.597460
 30
0.0
 10
0.971804
 20
5.502158
 30
0.0
 10
1.014085
 20
5.502736
 30
0.0
 10
1.049323
 20
5.528501
 30
0.0
 10
1.065141
 20
5.567003
 30
0.0
 10
1.061899
 20
5.587138
 30
0.0
 10
1.049161
 20
5.605787
 30
0.0
 10
0.951731
 20
5.704383
 30
0.0
 10
0.858072
 20
5.807477
 30
0.0
 10
0.761836
 20
5.907292
 30
0.0
 10
0.656675
 20
5.996047
 30
0.0
 10
0.655546
 20
5.996442
 30
0.0
 10
0.654135
 20
5.996442
 30
0.0
 10
0.654219
 20
5.996377
 30
0.0
  0
LWPOLYLINE
  5
17a
100
AcDbEntity
  8
Layer_1
 62
7
100
AcDbPolyline
 90
14
 70
0
 10
3.734562
 20
5.724185
 30
0.0
 10
3.728720
 20
5.720273
 30
0.0
 10
3.728156
 20
5.719765
 30
0.0
 10
3.668130
 20
5.684353
 30
0.0
 10
3.646499
 20
5.660218
 30
0.0
 10
3.646396
 20
5.626333
 30
0.0
 10
3.747985
 20
5.491572
 30
0.0
 10
3.805205
 20
5.429918
 30
0.0
 10
3.870847
 20
5.376964
 30
0.0
 10
3.849831
 20
5.468288
 30
0.0
 10
3.817652
 20
5.556103
 30
0.0
 10
3.734590
 20
5.724120
 30
0.0
 10
3.734590
 20
5.724120
 30
0.0
 10
3.734562
 20
5.724185
 30
0.0
  0
LWPOLYLINE
  5
17b
100
AcDbEntity
  8
Layer_1
 62
7
100
AcDbPolyline
 90
18
 70
0
 10
9.506684
 20
5.684939
 30
0.0
 10
9.506684
 20
5.684939
 30
0.0
 10
9.498443
 20
5.684939
 30
0.0
 10
9.459806
 20
5.658177
 30
0.0
 10
9.437123
 20
5.617350
 30
0.0
 10
9.419870
 20
5.571677
 30
0.0
 10
9.397520
 20
5.530380
 30
0.0
 10
9.369097
 20
5.447367
 30
0.0
 10
9.357332
 20
5.360163
 30
0.0
 10
9.431044
 20
5.426604
 30
0.0
 10
9.495522
 20
5.501751
 30
0.0
 10
9.616186
 20
5.659364
 30
0.0
 10
9.595313
 20
5.671319
 30
0.0
 10
9.571648
 20
5.666360
 30
0.0
 10
9.548443
 20
5.661706
 30
0.0
 10
9.528951
 20
5.674579
 30
0.0
 10
9.506684
 20
5.684995
 30
0.0
 10
9.506684
 20
5.684939
 30
0.0
  0
LWPOLYLINE
  5
17c
100
AcDbEntity
  8
Layer_1
 62
7
100
AcDbPolyline
 90
14
 70
0
 10
11.151983
 20
5.422450
 30
0.0
 10
11.142952
 20
5.422167
 30
0.0
 10
11.126087
 20
5.415573
 30
0.0
 10
11.115187
 20
5.403021
 30
0.0
 10
11.110066
 20
5.369262
 30
0.0
 10
11.125148
 20
5.339328
 30
0.0
 10
11.139503
 20
5.331557
 30
0.0
 10
11.157994
 20
5.331656
 30
0.0
 10
11.185189
 20
5.349814
 30
0.0
 10
11.193353
 20
5.381344
 30
0.0
 10
11.182335
 20
5.410713
 30
0.0
 10
11.151983
 20
5.422388
 30
0.0
 10
11.151983
 20
5.422388
 30
0.0
 10
11.151983
 20
5.422450
 30
0.0
  0
LWPOLYLINE
  5
17d
100
AcDbEntity
  8
Layer_1
 62
7
100
AcDbPolyline
 90
14
 70
0
 10
12.315839
 20
5.342084
 30
0.0
 10
12.304804
 20
5.341633
 30
0.0
 10
12.286610
 20
5.337034
 30
0.0
 10
12.274546
 20
5.325501
 30
0.0
 10
12.267636
 20
5.291520
 30
0.0
 10
12.281722
 20
5.259473
 30
0.0
 10
12.295905
 20
5.250356
 30
0.0
 10
12.314456
 20
5.249140
 30
0.0
 10
12.346589
 20
5.265232
 30
0.0
 10
12.356490
 20
5.296136
 30
0.0
 10
12.345726
 20
5.326775
 30
0.0
 10
12.315867
 20
5.342076
 30
0.0
 10
12.315867
 20
5.342076
 30
0.0
 10
12.315839
 20
5.342084
 30
0.0
  0
LWPOLYLINE
  5
17e
100
AcDbEntity
  8
Layer_1
 62
7
100
AcDbPolyline
 90
16
 70
0
 10
6.658582
 20
5.338887
 30
0.0
 10
6.651865
 20
5.336742
 30
0.0
 10
6.649325
 20
5.335923
 30
0.0
 10
6.617888
 20
5.328039
 30
0.0
 10
6.583631
 20
5.324215
 30
0.0
 10
6.554210
 20
5.313677
 30
0.0
 10
6.537283
 20
5.285654
 30
0.0
 10
6.548586
 20
5.187637
 30
0.0
 10
6.559254
 20
5.140321
 30
0.0
 10
6.586982
 20
5.101492
 30
0.0
 10
6.619985
 20
5.108982
 30
0.0
 10
6.639024
 20
5.135015
 30
0.0
 10
6.650934
 20
5.203025
 30
0.0
 10
6.658638
 20
5.338901
 30
0.0
 10
6.658638
 20
5.338901
 30
0.0
 10
6.658582
 20
5.338887
 30
0.0
  0
LWPOLYLINE
  5
17f
100
AcDbEntity
  8
Layer_1
 62
7
100
AcDbPolyline
 90
16
 70
0
 10
12.871281
 20
5.308844
 30
0.0
 10
12.872127
 20
5.301845
 30
0.0
 10
12.872127
 20
5.300688
 30
0.0
 10
12.872127
 20
5.300688
 30
0.0
 10
12.874092
 20
5.230422
 30
0.0
 10
12.881164
 20
5.197303
 30
0.0
 10
12.908675
 20
5.176279
 30
0.0
 10
13.338358
 20
5.214201
 30
0.0
 10
13.353730
 20
5.238954
 30
0.0
 10
13.347749
 20
5.266648
 30
0.0
 10
13.326984
 20
5.288485
 30
0.0
 10
13.298001
 20
5.295670
 30
0.0
 10
13.012364
 20
5.304932
 30
0.0
 10
12.871083
 20
5.308844
 30
0.0
 10
12.871083
 20
5.308844
 30
0.0
 10
12.871281
 20
5.308844
 30
0.0
  0
LWPOLYLINE
  5
180
100
AcDbEntity
  8
Layer_1
 62
7
100
AcDbPolyline
 90
18
 70
0
 10
5.394339
 20
5.165142
 30
0.0
 10
5.394339
 20
5.165142
 30
0.0
 10
5.362806
 20
5.152514
 30
0.0
 10
5.341338
 20
5.125390
 30
0.0
 10
5.335935
 20
5.092620
 30
0.0
 10
5.352598
 20
5.063057
 30
0.0
 10
5.381505
 20
4.994302
 30
0.0
 10
5.402668
 20
4.964591
 30
0.0
 10
5.432975
 20
4.947300
 30
0.0
 10
5.462570
 20
4.977330
 30
0.0
 10
5.470469
 20
5.017522
 30
0.0
 10
5.459109
 20
5.102302
 30
0.0
 10
5.456291
 20
5.125692
 30
0.0
 10
5.445072
 20
5.146619
 30
0.0
 10
5.427022
 20
5.161042
 30
0.0
 10
5.403709
 20
5.164922
 30
0.0
 10
5.394339
 20
5.165204
 30
0.0
 10
5.394339
 20
5.165142
 30
0.0
  0
LWPOLYLINE
  5
181
100
AcDbEntity
  8
Layer_1
 62
7
100
AcDbPolyline
 90
15
 70
0
 10
7.781318
 20
5.160787
 30
0.0
 10
7.749413
 20
5.135716
 30
0.0
 10
7.737344
 20
5.098172
 30
0.0
 10
7.726454
 20
5.017196
 30
0.0
 10
7.723299
 20
4.988661
 30
0.0
 10
7.731330
 20
4.959362
 30
0.0
 10
7.749616
 20
4.938654
 30
0.0
 10
7.777226
 20
4.935893
 30
0.0
 10
7.809371
 20
4.976362
 30
0.0
 10
7.832563
 20
5.022574
 30
0.0
 10
7.862457
 20
5.121378
 30
0.0
 10
7.849021
 20
5.140746
 30
0.0
 10
7.827825
 20
5.151090
 30
0.0
 10
7.781318
 20
5.160787
 30
0.0
 10
7.781318
 20
5.160787
 30
0.0
  0
LWPOLYLINE
  5
182
100
AcDbEntity
  8
Layer_1
 62
7
100
AcDbPolyline
 90
14
 70
0
 10
2.735806
 20
5.012070
 30
0.0
 10
2.732955
 20
5.005732
 30
0.0
 10
2.730980
 20
5.001654
 30
0.0
 10
2.712212
 20
4.964149
 30
0.0
 10
2.681845
 20
4.930051
 30
0.0
 10
2.675907
 20
4.897403
 30
0.0
 10
2.692509
 20
4.869044
 30
0.0
 10
2.746079
 20
4.823941
 30
0.0
 10
2.844906
 20
4.745133
 30
0.0
 10
2.957576
 20
4.688065
 30
0.0
 10
2.912034
 20
4.775319
 30
0.0
 10
2.857063
 20
4.856809
 30
0.0
 10
2.735806
 20
5.012070
 30
0.0
 10
2.735806
 20
5.012070
 30
0.0
  0
LWPOLYLINE
  5
183
100
AcDbEntity
  8
Layer_1
 62
7
100
AcDbPolyline
 90
16
 70
0
 10
6.603097
 20
4.984732
 30
0.0
 10
6.567706
 20
4.984054
 30
0.0
 10
6.492169
 20
4.977953
 30
0.0
 10
6.459423
 20
4.963188
 30
0.0
 10
6.440593
 20
4.931248
 30
0.0
 10
6.465062
 20
4.899860
 30
0.0
 10
6.501829
 20
4.888416
 30
0.0
 10
6.582918
 20
4.889081
 30
0.0
 10
6.713908
 20
4.890955
 30
0.0
 10
6.778264
 20
4.901880
 30
0.0
 10
6.840220
 20
4.923201
 30
0.0
 10
6.784620
 20
4.950762
 30
0.0
 10
6.725849
 20
4.969673
 30
0.0
 10
6.603097
 20
4.984661
 30
0.0
 10
6.603097
 20
4.984661
 30
0.0
 10
6.603097
 20
4.984732
 30
0.0
  0
LWPOLYLINE
  5
184
100
AcDbEntity
  8
Layer_1
 62
7
100
AcDbPolyline
 90
9
 70
0
 10
0.000254
 20
4.955076
 30
0.0
 10
0.000254
 20
4.734753
 30
0.0
 10
0.014196
 20
4.713093
 30
0.0
 10
0.037247
 20
4.746108
 30
0.0
 10
0.072386
 20
4.762309
 30
0.0
 10
0.113045
 20
4.765987
 30
0.0
 10
0.152654
 20
4.761432
 30
0.0
 10
0.000254
 20
4.955076
 30
0.0
 10
0.000254
 20
4.955076
 30
0.0
  0
LWPOLYLINE
  5
185
100
AcDbEntity
  8
Layer_1
 62
7
100
AcDbPolyline
 90
14
 70
0
 10
10.471178
 20
4.954793
 30
0.0
 10
10.411168
 20
4.899565
 30
0.0
 10
10.360011
 20
4.835403
 30
0.0
 10
10.268571
 20
4.698313
 30
0.0
 10
10.304173
 20
4.697074
 30
0.0
 10
10.337227
 20
4.703949
 30
0.0
 10
10.397278
 20
4.735508
 30
0.0
 10
10.504311
 20
4.824156
 30
0.0
 10
10.530966
 20
4.852394
 30
0.0
 10
10.531200
 20
4.889248
 30
0.0
 10
10.511844
 20
4.923735
 30
0.0
 10
10.479730
 20
4.944870
 30
0.0
 10
10.471178
 20
4.954793
 30
0.0
 10
10.471178
 20
4.954793
 30
0.0
  0
LWPOLYLINE
  5
186
100
AcDbEntity
  8
Layer_1
 62
7
100
AcDbPolyline
 90
16
 70
0
 10
4.286617
 20
4.687012
 30
0.0
 10
4.250912
 20
4.674826
 30
0.0
 10
4.228098
 20
4.643735
 30
0.0
 10
4.224990
 20
4.607026
 30
0.0
 10
4.232956
 20
4.590715
 30
0.0
 10
4.248404
 20
4.577982
 30
0.0
 10
4.296410
 20
4.517850
 30
0.0
 10
4.324461
 20
4.492899
 30
0.0
 10
4.358640
 20
4.481961
 30
0.0
 10
4.381772
 20
4.516455
 30
0.0
 10
4.380756
 20
4.556338
 30
0.0
 10
4.346843
 20
4.633325
 30
0.0
 10
4.325652
 20
4.671300
 30
0.0
 10
4.308223
 20
4.683557
 30
0.0
 10
4.286617
 20
4.687012
 30
0.0
 10
4.286617
 20
4.687012
 30
0.0
  0
LWPOLYLINE
  5
187
100
AcDbEntity
  8
Layer_1
 62
7
100
AcDbPolyline
 90
17
 70
0
 10
8.899511
 20
4.678580
 30
0.0
 10
8.860774
 20
4.647442
 30
0.0
 10
8.836967
 20
4.603841
 30
0.0
 10
8.801326
 20
4.509743
 30
0.0
 10
8.807856
 20
4.482190
 30
0.0
 10
8.830222
 20
4.466535
 30
0.0
 10
8.857599
 20
4.466365
 30
0.0
 10
8.879163
 20
4.485269
 30
0.0
 10
8.950043
 20
4.572968
 30
0.0
 10
8.976984
 20
4.622230
 30
0.0
 10
8.994422
 20
4.675932
 30
0.0
 10
8.978283
 20
4.661543
 30
0.0
 10
8.960220
 20
4.656431
 30
0.0
 10
8.941824
 20
4.660311
 30
0.0
 10
8.924685
 20
4.672901
 30
0.0
 10
8.899511
 20
4.678580
 30
0.0
 10
8.899511
 20
4.678580
 30
0.0
  0
LWPOLYLINE
  5
188
100
AcDbEntity
  8
Layer_1
 62
7
100
AcDbPolyline
 90
12
 70
0
 10
8.602557
 20
4.462889
 30
0.0
 10
8.584323
 20
4.460267
 30
0.0
 10
8.571445
 20
4.450874
 30
0.0
 10
8.561246
 20
4.420269
 30
0.0
 10
8.570934
 20
4.388071
 30
0.0
 10
8.599480
 20
4.371276
 30
0.0
 10
8.630352
 20
4.380663
 30
0.0
 10
8.646220
 20
4.407424
 30
0.0
 10
8.643847
 20
4.438339
 30
0.0
 10
8.619998
 20
4.460188
 30
0.0
 10
8.602557
 20
4.462897
 30
0.0
 10
8.602557
 20
4.462889
 30
0.0
  0
LWPOLYLINE
  5
189
100
AcDbEntity
  8
Layer_1
 62
7
100
AcDbPolyline
 90
21
 70
0
 10
13.431266
 20
4.122071
 30
0.0
 10
13.417606
 20
4.121789
 30
0.0
 10
13.176479
 20
4.100945
 30
0.0
 10
13.056121
 20
4.087860
 30
0.0
 10
12.937151
 20
4.065398
 30
0.0
 10
12.941644
 20
4.048552
 30
0.0
 10
12.961130
 20
4.041685
 30
0.0
 10
12.981637
 20
4.034121
 30
0.0
 10
12.989193
 20
4.015182
 30
0.0
 10
12.989993
 20
3.990579
 30
0.0
 10
13.001156
 20
3.970640
 30
0.0
 10
13.020272
 20
3.958490
 30
0.0
 10
13.044932
 20
3.957251
 30
0.0
 10
13.250079
 20
3.998427
 30
0.0
 10
13.358566
 20
4.021884
 30
0.0
 10
13.463834
 20
4.055698
 30
0.0
 10
13.475629
 20
4.077670
 30
0.0
 10
13.470558
 20
4.098239
 30
0.0
 10
13.453984
 20
4.114129
 30
0.0
 10
13.431266
 20
4.122063
 30
0.0
 10
13.431266
 20
4.122071
 30
0.0
  0
LWPOLYLINE
  5
18a
100
AcDbEntity
  8
Layer_1
 62
7
100
AcDbPolyline
 90
28
 70
0
 10
1.936609
 20
4.070315
 30
0.0
 10
1.933081
 20
4.064196
 30
0.0
 10
1.932517
 20
4.063490
 30
0.0
 10
1.932517
 20
4.063490
 30
0.0
 10
1.895905
 20
4.010999
 30
0.0
 10
1.884312
 20
3.982473
 30
0.0
 10
1.891510
 20
3.951759
 30
0.0
 10
2.015920
 20
3.879248
 30
0.0
 10
2.149771
 20
3.824869
 30
0.0
 10
2.183035
 20
3.817072
 30
0.0
 10
2.190772
 20
3.809391
 30
0.0
 10
2.183723
 20
3.793889
 30
0.0
 10
2.176939
 20
3.741381
 30
0.0
 10
2.187084
 20
3.719501
 30
0.0
 10
2.211324
 20
3.711813
 30
0.0
 10
2.240437
 20
3.727075
 30
0.0
 10
2.262237
 20
3.752153
 30
0.0
 10
2.298587
 20
3.809324
 30
0.0
 10
2.331364
 20
3.879244
 30
0.0
 10
2.358277
 20
3.951702
 30
0.0
 10
2.273438
 20
3.892969
 30
0.0
 10
2.233313
 20
3.860856
 30
0.0
 10
2.198991
 20
3.822608
 30
0.0
 10
2.142199
 20
3.893225
 30
0.0
 10
2.077822
 20
3.956845
 30
0.0
 10
1.936440
 20
4.070326
 30
0.0
 10
1.936440
 20
4.070326
 30
0.0
 10
1.936609
 20
4.070315
 30
0.0
  0
LWPOLYLINE
  5
18b
100
AcDbEntity
  8
Layer_1
 62
7
100
AcDbPolyline
 90
15
 70
0
 10
13.573478
 20
4.037738
 30
0.0
 10
13.573478
 20
4.037738
 30
0.0
 10
13.566027
 20
4.037738
 30
0.0
 10
13.547918
 20
4.034373
 30
0.0
 10
13.535786
 20
4.023871
 30
0.0
 10
13.528358
 20
3.991321
 30
0.0
 10
13.541556
 20
3.959820
 30
0.0
 10
13.555207
 20
3.950630
 30
0.0
 10
13.573196
 20
3.949103
 30
0.0
 10
13.602524
 20
3.961473
 30
0.0
 10
13.614700
 20
3.990175
 30
0.0
 10
13.608085
 20
4.020253
 30
0.0
 10
13.581041
 20
4.036747
 30
0.0
 10
13.573478
 20
4.037791
 30
0.0
 10
13.573478
 20
4.037738
 30
0.0
  0
LWPOLYLINE
  5
18c
100
AcDbEntity
  8
Layer_1
 62
7
100
AcDbPolyline
 90
12
 70
0
 10
11.248136
 20
4.014310
 30
0.0
 10
11.139286
 20
3.932876
 30
0.0
 10
11.046037
 20
3.835274
 30
0.0
 10
11.057785
 20
3.810709
 30
0.0
 10
11.082958
 20
3.804018
 30
0.0
 10
11.138549
 20
3.817305
 30
0.0
 10
11.303367
 20
3.904949
 30
0.0
 10
11.314954
 20
3.939265
 30
0.0
 10
11.306612
 20
3.975688
 30
0.0
 10
11.282841
 20
4.004082
 30
0.0
 10
11.248136
 20
4.014310
 30
0.0
 10
11.248136
 20
4.014310
 30
0.0
  0
LWPOLYLINE
  5
18d
100
AcDbEntity
  8
Layer_1
 62
7
100
AcDbPolyline
 90
14
 70
0
 10
3.340721
 20
3.960127
 30
0.0
 10
3.337532
 20
3.953841
 30
0.0
 10
3.335838
 20
3.950590
 30
0.0
 10
3.319312
 20
3.921646
 30
0.0
 10
3.297735
 20
3.893582
 30
0.0
 10
3.283455
 20
3.864271
 30
0.0
 10
3.288820
 20
3.831583
 30
0.0
 10
3.342999
 20
3.789320
 30
0.0
 10
3.402083
 20
3.751445
 30
0.0
 10
3.466152
 20
3.726354
 30
0.0
 10
3.535285
 20
3.722442
 30
0.0
 10
3.340806
 20
3.960127
 30
0.0
 10
3.340806
 20
3.960127
 30
0.0
 10
3.340721
 20
3.960127
 30
0.0
  0
LWPOLYLINE
  5
18e
100
AcDbEntity
  8
Layer_1
 62
7
100
AcDbPolyline
 90
16
 70
0
 10
9.842923
 20
3.912942
 30
0.0
 10
9.802633
 20
3.885973
 30
0.0
 10
9.769563
 20
3.849904
 30
0.0
 10
9.714428
 20
3.769460
 30
0.0
 10
9.724211
 20
3.738517
 30
0.0
 10
9.752884
 20
3.724250
 30
0.0
 10
9.786663
 20
3.727352
 30
0.0
 10
9.811766
 20
3.748514
 30
0.0
 10
9.898500
 20
3.813540
 30
0.0
 10
9.976132
 20
3.888854
 30
0.0
 10
9.921610
 20
3.873919
 30
0.0
 10
9.895936
 20
3.878334
 30
0.0
 10
9.877693
 20
3.899601
 30
0.0
 10
9.861673
 20
3.910016
 30
0.0
 10
9.842923
 20
3.912942
 30
0.0
 10
9.842923
 20
3.912942
 30
0.0
  0
LWPOLYLINE
  5
18f
100
AcDbEntity
  8
Layer_1
 62
7
100
AcDbPolyline
 90
14
 70
0
 10
10.914521
 20
3.864103
 30
0.0
 10
10.910768
 20
3.860962
 30
0.0
 10
10.888156
 20
3.835490
 30
0.0
 10
10.887463
 20
3.803650
 30
0.0
 10
10.901195
 20
3.771389
 30
0.0
 10
10.921859
 20
3.744656
 30
0.0
 10
10.947649
 20
3.707994
 30
0.0
 10
10.980162
 20
3.677331
 30
0.0
 10
11.055802
 20
3.628956
 30
0.0
 10
11.039918
 20
3.698220
 30
0.0
 10
11.012763
 20
3.764583
 30
0.0
 10
10.971807
 20
3.821919
 30
0.0
 10
10.914521
 20
3.864103
 30
0.0
 10
10.914521
 20
3.864103
 30
0.0
  0
LWPOLYLINE
  5
190
100
AcDbEntity
  8
Layer_1
 62
7
100
AcDbPolyline
 90
13
 70
0
 10
6.072322
 20
3.791784
 30
0.0
 10
5.998891
 20
3.779164
 30
0.0
 10
5.929380
 20
3.752473
 30
0.0
 10
5.866625
 20
3.712570
 30
0.0
 10
5.813467
 20
3.660319
 30
0.0
 10
5.973441
 20
3.676835
 30
0.0
 10
6.050247
 20
3.698769
 30
0.0
 10
6.120271
 20
3.736940
 30
0.0
 10
6.124396
 20
3.759377
 30
0.0
 10
6.113918
 20
3.777424
 30
0.0
 10
6.094629
 20
3.788939
 30
0.0
 10
6.072322
 20
3.791784
 30
0.0
 10
6.072322
 20
3.791784
 30
0.0
  0
LWPOLYLINE
  5
191
100
AcDbEntity
  8
Layer_1
 62
7
100
AcDbPolyline
 90
12
 70
0
 10
7.102941
 20
3.785995
 30
0.0
 10
7.077620
 20
3.776120
 30
0.0
 10
7.071148
 20
3.750991
 30
0.0
 10
7.081208
 20
3.725010
 30
0.0
 10
7.105481
 20
3.712575
 30
0.0
 10
7.157772
 20
3.690981
 30
0.0
 10
7.213399
 20
3.682309
 30
0.0
 10
7.326884
 20
3.684683
 30
0.0
 10
7.223908
 20
3.757588
 30
0.0
 10
7.165769
 20
3.780356
 30
0.0
 10
7.102941
 20
3.785995
 30
0.0
 10
7.102941
 20
3.785995
 30
0.0
  0
LWPOLYLINE
  5
192
100
AcDbEntity
  8
Layer_1
 62
7
100
AcDbPolyline
 90
13
 70
0
 10
3.647863
 20
3.743112
 30
0.0
 10
3.567624
 20
3.690681
 30
0.0
 10
3.540441
 20
3.653966
 30
0.0
 10
3.535537
 20
3.632012
 30
0.0
 10
3.538502
 20
3.607292
 30
0.0
 10
3.572002
 20
3.594119
 30
0.0
 10
3.604630
 20
3.604616
 30
0.0
 10
3.657064
 20
3.655691
 30
0.0
 10
3.673001
 20
3.678565
 30
0.0
 10
3.680065
 20
3.707704
 30
0.0
 10
3.673328
 20
3.732691
 30
0.0
 10
3.647863
 20
3.743112
 30
0.0
 10
3.647863
 20
3.743112
 30
0.0
  0
LWPOLYLINE
  5
193
100
AcDbEntity
  8
Layer_1
 62
7
100
AcDbPolyline
 90
14
 70
0
 10
9.551811
 20
3.714503
 30
0.0
 10
9.525334
 20
3.695839
 30
0.0
 10
9.521183
 20
3.665138
 30
0.0
 10
9.534484
 20
3.634040
 30
0.0
 10
9.560362
 20
3.614184
 30
0.0
 10
9.576356
 20
3.605680
 30
0.0
 10
9.592639
 20
3.605278
 30
0.0
 10
9.620306
 20
3.622274
 30
0.0
 10
9.631824
 20
3.652161
 30
0.0
 10
9.627920
 20
3.667872
 30
0.0
 10
9.615650
 20
3.681926
 30
0.0
 10
9.587022
 20
3.705154
 30
0.0
 10
9.551811
 20
3.714503
 30
0.0
 10
9.551811
 20
3.714503
 30
0.0
  0
LWPOLYLINE
  5
194
100
AcDbEntity
  8
Layer_1
 62
7
100
AcDbPolyline
 90
12
 70
0
 10
5.222946
 20
3.495561
 30
0.0
 10
5.196110
 20
3.484722
 30
0.0
 10
5.186190
 20
3.459919
 30
0.0
 10
5.191811
 20
3.431701
 30
0.0
 10
5.211600
 20
3.410620
 30
0.0
 10
5.241291
 20
3.404271
 30
0.0
 10
5.265424
 20
3.421144
 30
0.0
 10
5.275485
 20
3.449512
 30
0.0
 10
5.262965
 20
3.477648
 30
0.0
 10
5.245061
 20
3.491484
 30
0.0
 10
5.222946
 20
3.495561
 30
0.0
 10
5.222946
 20
3.495561
 30
0.0
  0
LWPOLYLINE
  5
195
100
AcDbEntity
  8
Layer_1
 62
7
100
AcDbPolyline
 90
14
 70
0
 10
12.502190
 20
3.425558
 30
0.0
 10
12.502190
 20
3.425558
 30
0.0
 10
12.492990
 20
3.425558
 30
0.0
 10
12.474412
 20
3.416538
 30
0.0
 10
12.463891
 20
3.400941
 30
0.0
 10
12.463713
 20
3.361254
 30
0.0
 10
12.485850
 20
3.328969
 30
0.0
 10
12.503222
 20
3.322626
 30
0.0
 10
12.523696
 20
3.326560
 30
0.0
 10
12.544743
 20
3.350749
 30
0.0
 10
12.545730
 20
3.382743
 30
0.0
 10
12.530324
 20
3.411409
 30
0.0
 10
12.502190
 20
3.425615
 30
0.0
 10
12.502190
 20
3.425558
 30
0.0
  0
LWPOLYLINE
  5
196
100
AcDbEntity
  8
Layer_1
 62
7
100
AcDbPolyline
 90
14
 70
0
 10
3.207710
 20
3.195206
 30
0.0
 10
3.188337
 20
3.191262
 30
0.0
 10
3.175644
 20
3.179929
 30
0.0
 10
3.168654
 20
3.145207
 30
0.0
 10
3.183449
 20
3.111259
 30
0.0
 10
3.197988
 20
3.100893
 30
0.0
 10
3.216741
 20
3.098302
 30
0.0
 10
3.236026
 20
3.104019
 30
0.0
 10
3.248937
 20
3.116208
 30
0.0
 10
3.256717
 20
3.150712
 30
0.0
 10
3.242252
 20
3.183236
 30
0.0
 10
3.227355
 20
3.192951
 30
0.0
 10
3.207710
 20
3.195206
 30
0.0
 10
3.207710
 20
3.195206
 30
0.0
  0
LWPOLYLINE
  5
197
100
AcDbEntity
  8
Layer_1
 62
7
100
AcDbPolyline
 90
25
 70
0
 10
1.346313
 20
2.992799
 30
0.0
 10
1.344055
 20
2.986127
 30
0.0
 10
1.344055
 20
2.985421
 30
0.0
 10
1.343773
 20
2.985421
 30
0.0
 10
1.317858
 20
2.921904
 30
0.0
 10
1.314952
 20
2.890124
 30
0.0
 10
1.333980
 20
2.862499
 30
0.0
 10
1.489936
 20
2.817897
 30
0.0
 10
1.569485
 20
2.803469
 30
0.0
 10
1.650464
 20
2.800653
 30
0.0
 10
1.645547
 20
2.772597
 30
0.0
 10
1.654140
 20
2.744421
 30
0.0
 10
1.673602
 20
2.725551
 30
0.0
 10
1.701292
 20
2.725413
 30
0.0
 10
1.726617
 20
2.751191
 30
0.0
 10
1.739427
 20
2.787682
 30
0.0
 10
1.734828
 20
2.823327
 30
0.0
 10
1.707924
 20
2.846568
 30
0.0
 10
1.689969
 20
2.847130
 30
0.0
 10
1.674647
 20
2.838767
 30
0.0
 10
1.653794
 20
2.809196
 30
0.0
 10
1.583374
 20
2.865082
 30
0.0
 10
1.507398
 20
2.912940
 30
0.0
 10
1.346313
 20
2.992807
 30
0.0
 10
1.346313
 20
2.992799
 30
0.0
  0
LWPOLYLINE
  5
198
100
AcDbEntity
  8
Layer_1
 62
7
100
AcDbPolyline
 90
15
 70
0
 10
2.601440
 20
2.978798
 30
0.0
 10
2.601158
 20
2.971742
 30
0.0
 10
2.600875
 20
2.965403
 30
0.0
 10
2.598244
 20
2.921219
 30
0.0
 10
2.582192
 20
2.876436
 30
0.0
 10
2.585213
 20
2.846184
 30
0.0
 10
2.606950
 20
2.827315
 30
0.0
 10
2.665532
 20
2.803346
 30
0.0
 10
2.761357
 20
2.774484
 30
0.0
 10
2.860887
 20
2.764704
 30
0.0
 10
2.803823
 20
2.826867
 30
0.0
 10
2.738579
 20
2.880065
 30
0.0
 10
2.601496
 20
2.978798
 30
0.0
 10
2.601496
 20
2.978798
 30
0.0
 10
2.601440
 20
2.978798
 30
0.0
  0
LWPOLYLINE
  5
199
100
AcDbEntity
  8
Layer_1
 62
7
100
AcDbPolyline
 90
19
 70
0
 10
13.674034
 20
2.968985
 30
0.0
 10
13.432550
 20
2.922236
 30
0.0
 10
13.313195
 20
2.893444
 30
0.0
 10
13.197332
 20
2.852568
 30
0.0
 10
13.204033
 20
2.836720
 30
0.0
 10
13.223575
 20
2.832987
 30
0.0
 10
13.245207
 20
2.829481
 30
0.0
 10
13.258179
 20
2.814316
 30
0.0
 10
13.282299
 20
2.771888
 30
0.0
 10
13.303125
 20
2.761884
 30
0.0
 10
13.328198
 20
2.765697
 30
0.0
 10
13.546638
 20
2.838954
 30
0.0
 10
13.638213
 20
2.871570
 30
0.0
 10
13.681814
 20
2.892469
 30
0.0
 10
13.720092
 20
2.920259
 30
0.0
 10
13.720774
 20
2.939934
 30
0.0
 10
13.710451
 20
2.956001
 30
0.0
 10
13.674034
 20
2.968985
 30
0.0
 10
13.674034
 20
2.968985
 30
0.0
  0
LWPOLYLINE
  5
19a
100
AcDbEntity
  8
Layer_1
 62
7
100
AcDbPolyline
 90
17
 70
0
 10
11.831038
 20
2.938558
 30
0.0
 10
11.822317
 20
2.938276
 30
0.0
 10
11.712688
 20
2.884508
 30
0.0
 10
11.609239
 20
2.819655
 30
0.0
 10
11.621212
 20
2.785987
 30
0.0
 10
11.650412
 20
2.769209
 30
0.0
 10
11.686761
 20
2.767677
 30
0.0
 10
11.720181
 20
2.779746
 30
0.0
 10
11.762434
 20
2.792595
 30
0.0
 10
11.807335
 20
2.801250
 30
0.0
 10
11.848622
 20
2.815939
 30
0.0
 10
11.880032
 20
2.846887
 30
0.0
 10
11.873124
 20
2.904844
 30
0.0
 10
11.856973
 20
2.927975
 30
0.0
 10
11.831038
 20
2.938443
 30
0.0
 10
11.831038
 20
2.938443
 30
0.0
 10
11.831038
 20
2.938558
 30
0.0
  0
LWPOLYLINE
  5
19b
100
AcDbEntity
  8
Layer_1
 62
7
100
AcDbPolyline
 90
14
 70
0
 10
10.544951
 20
2.922297
 30
0.0
 10
10.480746
 20
2.885320
 30
0.0
 10
10.421243
 20
2.840943
 30
0.0
 10
10.313642
 20
2.738358
 30
0.0
 10
10.409922
 20
2.752967
 30
0.0
 10
10.504131
 20
2.778067
 30
0.0
 10
10.594451
 20
2.814346
 30
0.0
 10
10.679063
 20
2.862491
 30
0.0
 10
10.622135
 20
2.863179
 30
0.0
 10
10.598533
 20
2.874871
 30
0.0
 10
10.587115
 20
2.900800
 30
0.0
 10
10.569092
 20
2.917612
 30
0.0
 10
10.544951
 20
2.922297
 30
0.0
 10
10.544951
 20
2.922297
 30
0.0
  0
LWPOLYLINE
  5
19c
100
AcDbEntity
  8
Layer_1
 62
7
100
AcDbPolyline
 90
14
 70
0
 10
3.056128
 20
2.913093
 30
0.0
 10
3.041481
 20
2.902564
 30
0.0
 10
2.965854
 20
2.845132
 30
0.0
 10
2.907048
 20
2.771134
 30
0.0
 10
2.865709
 20
2.685653
 30
0.0
 10
2.842486
 20
2.593773
 30
0.0
 10
2.859637
 20
2.566630
 30
0.0
 10
2.890220
 20
2.561483
 30
0.0
 10
2.919317
 20
2.575347
 30
0.0
 10
2.932007
 20
2.605240
 30
0.0
 10
3.006016
 20
2.754683
 30
0.0
 10
3.036238
 20
2.832148
 30
0.0
 10
3.056128
 20
2.913093
 30
0.0
 10
3.056128
 20
2.913093
 30
0.0
  0
LWPOLYLINE
  5
19d
100
AcDbEntity
  8
Layer_1
 62
7
100
AcDbPolyline
 90
15
 70
0
 10
10.135616
 20
2.897822
 30
0.0
 10
10.138466
 20
2.881120
 30
0.0
 10
10.161784
 20
2.783329
 30
0.0
 10
10.199998
 20
2.690404
 30
0.0
 10
10.301365
 20
2.517099
 30
0.0
 10
10.326244
 20
2.516636
 30
0.0
 10
10.341479
 20
2.534199
 30
0.0
 10
10.347184
 20
2.560175
 30
0.0
 10
10.343473
 20
2.584954
 30
0.0
 10
10.327668
 20
2.645933
 30
0.0
 10
10.302822
 20
2.704003
 30
0.0
 10
10.237978
 20
2.812329
 30
0.0
 10
10.189718
 20
2.858488
 30
0.0
 10
10.135616
 20
2.897822
 30
0.0
 10
10.135616
 20
2.897822
 30
0.0
  0
LWPOLYLINE
  5
19e
100
AcDbEntity
  8
Layer_1
 62
7
100
AcDbPolyline
 90
14
 70
0
 10
4.393974
 20
2.787304
 30
0.0
 10
4.378875
 20
2.781406
 30
0.0
 10
4.305234
 20
2.749051
 30
0.0
 10
4.238985
 20
2.702826
 30
0.0
 10
4.183795
 20
2.644311
 30
0.0
 10
4.143333
 20
2.575087
 30
0.0
 10
4.148970
 20
2.544870
 30
0.0
 10
4.171946
 20
2.525768
 30
0.0
 10
4.200780
 20
2.523541
 30
0.0
 10
4.223992
 20
2.543944
 30
0.0
 10
4.322932
 20
2.656591
 30
0.0
 10
4.364644
 20
2.718301
 30
0.0
 10
4.393974
 20
2.787304
 30
0.0
 10
4.393974
 20
2.787304
 30
0.0
  0
LWPOLYLINE
  5
19f
100
AcDbEntity
  8
Layer_1
 62
7
100
AcDbPolyline
 90
13
 70
0
 10
8.852718
 20
2.757374
 30
0.0
 10
8.849247
 20
2.754552
 30
0.0
 10
8.827040
 20
2.729542
 30
0.0
 10
8.827188
 20
2.698261
 30
0.0
 10
8.842592
 20
2.667497
 30
0.0
 10
8.866152
 20
2.644034
 30
0.0
 10
8.964877
 20
2.532740
 30
0.0
 10
9.079371
 20
2.437989
 30
0.0
 10
9.051354
 20
2.535599
 30
0.0
 10
9.004399
 20
2.626277
 30
0.0
 10
8.938266
 20
2.702654
 30
0.0
 10
8.852718
 20
2.757363
 30
0.0
 10
8.852718
 20
2.757374
 30
0.0
  0
LWPOLYLINE
  5
1a0
100
AcDbEntity
  8
Layer_1
 62
7
100
AcDbPolyline
 90
12
 70
0
 10
6.574762
 20
2.705505
 30
0.0
 10
6.513190
 20
2.692653
 30
0.0
 10
6.454295
 20
2.670881
 30
0.0
 10
6.344073
 20
2.610145
 30
0.0
 10
6.554840
 20
2.596669
 30
0.0
 10
6.765967
 20
2.602206
 30
0.0
 10
6.755026
 20
2.647297
 30
0.0
 10
6.722043
 20
2.677308
 30
0.0
 10
6.677508
 20
2.694629
 30
0.0
 10
6.631912
 20
2.701647
 30
0.0
 10
6.574762
 20
2.705505
 30
0.0
 10
6.574762
 20
2.705505
 30
0.0
  0
LWPOLYLINE
  5
1a1
100
AcDbEntity
  8
Layer_1
 62
7
100
AcDbPolyline
 90
13
 70
0
 10
14.000226
 20
1.836899
 30
0.0
 10
13.796133
 20
1.771669
 30
0.0
 10
13.596253
 20
1.694467
 30
0.0
 10
13.599627
 20
1.675513
 30
0.0
 10
13.614654
 20
1.667755
 30
0.0
 10
13.648380
 20
1.656155
 30
0.0
 10
13.659287
 20
1.625106
 30
0.0
 10
13.685157
 20
1.606285
 30
0.0
 10
13.716979
 20
1.603195
 30
0.0
 10
13.745746
 20
1.619337
 30
0.0
 10
14.000226
 20
1.740769
 30
0.0
 10
14.000226
 20
1.836899
 30
0.0
 10
14.000226
 20
1.836899
 30
0.0
  0
LWPOLYLINE
  5
1a2
100
AcDbEntity
  8
Layer_1
 62
7
100
AcDbPolyline
 90
15
 70
0
 10
0.990459
 20
1.825105
 30
0.0
 10
0.991023
 20
1.818103
 30
0.0
 10
0.991306
 20
1.814412
 30
0.0
 10
0.992349
 20
1.779648
 30
0.0
 10
0.986913
 20
1.742000
 30
0.0
 10
0.989706
 20
1.707816
 30
0.0
 10
1.015436
 20
1.683441
 30
0.0
 10
1.183114
 20
1.673554
 30
0.0
 10
1.266638
 20
1.677516
 30
0.0
 10
1.348655
 20
1.695184
 30
0.0
 10
1.264014
 20
1.739526
 30
0.0
 10
1.173960
 20
1.770784
 30
0.0
 10
0.990544
 20
1.825105
 30
0.0
 10
0.990544
 20
1.825105
 30
0.0
 10
0.990459
 20
1.825105
 30
0.0
  0
LWPOLYLINE
  5
1a3
100
AcDbEntity
  8
Layer_1
 62
7
100
AcDbPolyline
 90
14
 70
0
 10
2.585438
 20
1.823835
 30
0.0
 10
2.574854
 20
1.823496
 30
0.0
 10
2.555953
 20
1.817938
 30
0.0
 10
2.543887
 20
1.805307
 30
0.0
 10
2.538483
 20
1.769299
 30
0.0
 10
2.555082
 20
1.736412
 30
0.0
 10
2.570520
 20
1.727683
 30
0.0
 10
2.590123
 20
1.727586
 30
0.0
 10
2.619093
 20
1.746747
 30
0.0
 10
2.626727
 20
1.778282
 30
0.0
 10
2.614888
 20
1.808502
 30
0.0
 10
2.585438
 20
1.823716
 30
0.0
 10
2.585438
 20
1.823716
 30
0.0
 10
2.585438
 20
1.823835
 30
0.0
  0
LWPOLYLINE
  5
1a4
100
AcDbEntity
  8
Layer_1
 62
7
100
AcDbPolyline
 90
16
 70
0
 10
2.218069
 20
1.795446
 30
0.0
 10
2.196903
 20
1.786344
 30
0.0
 10
2.182896
 20
1.769658
 30
0.0
 10
2.175358
 20
1.725178
 30
0.0
 10
2.193459
 20
1.685280
 30
0.0
 10
2.211499
 20
1.674323
 30
0.0
 10
2.235200
 20
1.673241
 30
0.0
 10
2.315034
 20
1.668295
 30
0.0
 10
2.354207
 20
1.670806
 30
0.0
 10
2.387882
 20
1.688289
 30
0.0
 10
2.379733
 20
1.728014
 30
0.0
 10
2.350862
 20
1.754924
 30
0.0
 10
2.272736
 20
1.782439
 30
0.0
 10
2.245900
 20
1.791581
 30
0.0
 10
2.218069
 20
1.795446
 30
0.0
 10
2.218069
 20
1.795446
 30
0.0
  0
LWPOLYLINE
  5
1a5
100
AcDbEntity
  8
Layer_1
 62
7
100
AcDbPolyline
 90
17
 70
0
 10
12.933511
 20
1.786517
 30
0.0
 10
12.934357
 20
1.771579
 30
0.0
 10
12.941452
 20
1.599066
 30
0.0
 10
12.950871
 20
1.513262
 30
0.0
 10
12.978328
 20
1.431478
 30
0.0
 10
12.990929
 20
1.485713
 30
0.0
 10
13.009109
 20
1.505144
 30
0.0
 10
13.036804
 20
1.512287
 30
0.0
 10
13.061808
 20
1.531502
 30
0.0
 10
13.067690
 20
1.560877
 30
0.0
 10
13.048008
 20
1.622035
 30
0.0
 10
13.031222
 20
1.670440
 30
0.0
 10
13.006260
 20
1.715172
 30
0.0
 10
12.973562
 20
1.754456
 30
0.0
 10
12.933567
 20
1.786517
 30
0.0
 10
12.933567
 20
1.786517
 30
0.0
 10
12.933511
 20
1.786517
 30
0.0
  0
LWPOLYLINE
  5
1a6
100
AcDbEntity
  8
Layer_1
 62
7
100
AcDbPolyline
 90
13
 70
0
 10
10.954230
 20
1.777367
 30
0.0
 10
10.817063
 20
1.728338
 30
0.0
 10
10.752990
 20
1.694022
 30
0.0
 10
10.694755
 20
1.650201
 30
0.0
 10
10.875751
 20
1.648854
 30
0.0
 10
10.965011
 20
1.658979
 30
0.0
 10
11.050524
 20
1.688126
 30
0.0
 10
11.026490
 20
1.692137
 30
0.0
 10
11.010459
 20
1.706377
 30
0.0
 10
10.995942
 20
1.750192
 30
0.0
 10
10.980304
 20
1.771642
 30
0.0
 10
10.954230
 20
1.777367
 30
0.0
 10
10.954230
 20
1.777367
 30
0.0
  0
LWPOLYLINE
  5
1a7
100
AcDbEntity
  8
Layer_1
 62
7
100
AcDbPolyline
 90
16
 70
0
 10
12.151896
 20
1.761656
 30
0.0
 10
12.151896
 20
1.761656
 30
0.0
 10
12.141313
 20
1.761656
 30
0.0
 10
11.980810
 20
1.717085
 30
0.0
 10
11.903311
 20
1.687201
 30
0.0
 10
11.831207
 20
1.645459
 30
0.0
 10
11.931336
 20
1.631038
 30
0.0
 10
12.032315
 20
1.629045
 30
0.0
 10
12.234418
 20
1.641325
 30
0.0
 10
12.232168
 20
1.663990
 30
0.0
 10
12.213985
 20
1.677097
 30
0.0
 10
12.195421
 20
1.689558
 30
0.0
 10
12.192028
 20
1.710283
 30
0.0
 10
12.180947
 20
1.743676
 30
0.0
 10
12.151896
 20
1.761709
 30
0.0
 10
12.151896
 20
1.761656
 30
0.0
  0
LWPOLYLINE
  5
1a8
100
AcDbEntity
  8
Layer_1
 62
7
100
AcDbPolyline
 90
14
 70
0
 10
8.196044
 20
1.707142
 30
0.0
 10
8.183859
 20
1.682536
 30
0.0
 10
8.186113
 20
1.653564
 30
0.0
 10
8.205414
 20
1.596787
 30
0.0
 10
8.251500
 20
1.458443
 30
0.0
 10
8.322564
 20
1.331103
 30
0.0
 10
8.333074
 20
1.424799
 30
0.0
 10
8.328307
 20
1.520569
 30
0.0
 10
8.300490
 20
1.609718
 30
0.0
 10
8.275508
 20
1.649093
 30
0.0
 10
8.241848
 20
1.683551
 30
0.0
 10
8.220333
 20
1.699209
 30
0.0
 10
8.196044
 20
1.707142
 30
0.0
 10
8.196044
 20
1.707142
 30
0.0
  0
LWPOLYLINE
  5
1a9
100
AcDbEntity
  8
Layer_1
 62
7
100
AcDbPolyline
 90
14
 70
0
 10
4.931100
 20
1.663265
 30
0.0
 10
4.889504
 20
1.637985
 30
0.0
 10
4.867550
 20
1.595219
 30
0.0
 10
4.860615
 20
1.544722
 30
0.0
 10
4.864072
 20
1.496246
 30
0.0
 10
4.886871
 20
1.483312
 30
0.0
 10
4.912924
 20
1.489216
 30
0.0
 10
4.935676
 20
1.507399
 30
0.0
 10
4.948569
 20
1.531303
 30
0.0
 10
4.971514
 20
1.600012
 30
0.0
 10
4.970691
 20
1.633952
 30
0.0
 10
4.948569
 20
1.660454
 30
0.0
 10
4.931100
 20
1.663276
 30
0.0
 10
4.931100
 20
1.663265
 30
0.0
  0
LWPOLYLINE
  5
1aa
100
AcDbEntity
  8
Layer_1
 62
7
100
AcDbPolyline
 90
14
 70
0
 10
7.103138
 20
1.578378
 30
0.0
 10
7.093119
 20
1.577729
 30
0.0
 10
7.075329
 20
1.571737
 30
0.0
 10
7.064083
 20
1.559432
 30
0.0
 10
7.059475
 20
1.525559
 30
0.0
 10
7.075796
 20
1.495459
 30
0.0
 10
7.090710
 20
1.487872
 30
0.0
 10
7.109545
 20
1.488484
 30
0.0
 10
7.136464
 20
1.507041
 30
0.0
 10
7.143055
 20
1.536903
 30
0.0
 10
7.131289
 20
1.565018
 30
0.0
 10
7.103138
 20
1.578333
 30
0.0
 10
7.103138
 20
1.578333
 30
0.0
 10
7.103138
 20
1.578378
 30
0.0
  0
LWPOLYLINE
  5
1ab
100
AcDbEntity
  8
Layer_1
 62
7
100
AcDbPolyline
 90
13
 70
0
 10
3.614505
 20
0.722725
 30
0.0
 10
3.597410
 20
0.716853
 30
0.0
 10
3.585715
 20
0.705028
 30
0.0
 10
3.578056
 20
0.672134
 30
0.0
 10
3.590589
 20
0.641276
 30
0.0
 10
3.604135
 20
0.631994
 30
0.0
 10
3.622379
 20
0.629682
 30
0.0
 10
3.653130
 20
0.641908
 30
0.0
 10
3.666779
 20
0.671524
 30
0.0
 10
3.660987
 20
0.703054
 30
0.0
 10
3.633414
 20
0.721018
 30
0.0
 10
3.614505
 20
0.722739
 30
0.0
 10
3.614505
 20
0.722725
 30
0.0
  0
LWPOLYLINE
  5
1ac
100
AcDbEntity
  8
Layer_1
 62
7
100
AcDbPolyline
 90
14
 70
0
 10
5.852329
 20
0.717103
 30
0.0
 10
5.833676
 20
0.713657
 30
0.0
 10
5.820893
 20
0.703243
 30
0.0
 10
5.812039
 20
0.670604
 30
0.0
 10
5.823965
 20
0.637361
 30
0.0
 10
5.837157
 20
0.626193
 30
0.0
 10
5.854869
 20
0.621690
 30
0.0
 10
5.875585
 20
0.625353
 30
0.0
 10
5.890136
 20
0.636325
 30
0.0
 10
5.901055
 20
0.670297
 30
0.0
 10
5.888247
 20
0.703819
 30
0.0
 10
5.873138
 20
0.714228
 30
0.0
 10
5.852329
 20
0.717103
 30
0.0
 10
5.852329
 20
0.717103
 30
0.0
  0
LWPOLYLINE
  5
1ad
100
AcDbEntity
  8
Layer_1
 62
7
100
AcDbPolyline
 90
13
 70
0
 10
9.562564
 20
0.714450
 30
0.0
 10
9.551868
 20
0.713858
 30
0.0
 10
9.533444
 20
0.707223
 30
0.0
 10
9.521882
 20
0.694073
 30
0.0
 10
9.517451
 20
0.658170
 30
0.0
 10
9.534778
 20
0.626037
 30
0.0
 10
9.550416
 20
0.617598
 30
0.0
 10
9.570071
 20
0.617561
 30
0.0
 10
9.598993
 20
0.637001
 30
0.0
 10
9.605761
 20
0.669216
 30
0.0
 10
9.592808
 20
0.699830
 30
0.0
 10
9.562564
 20
0.714465
 30
0.0
 10
9.562564
 20
0.714450
 30
0.0
  0
LWPOLYLINE
  5
1ae
100
AcDbEntity
  8
Layer_1
 62
7
100
AcDbPolyline
 90
17
 70
0
 10
9.327529
 20
0.664895
 30
0.0
 10
9.240554
 20
0.645841
 30
0.0
 10
9.152029
 20
0.633650
 30
0.0
 10
8.976021
 20
0.604316
 30
0.0
 10
8.961120
 20
0.580414
 30
0.0
 10
8.968888
 20
0.554171
 30
0.0
 10
8.990912
 20
0.533446
 30
0.0
 10
9.018778
 20
0.526098
 30
0.0
 10
9.392073
 20
0.531390
 30
0.0
 10
9.358006
 20
0.550576
 30
0.0
 10
9.349104
 20
0.565128
 30
0.0
 10
9.357191
 20
0.582269
 30
0.0
 10
9.371658
 20
0.607233
 30
0.0
 10
9.369972
 20
0.633599
 30
0.0
 10
9.354480
 20
0.654957
 30
0.0
 10
9.327529
 20
0.664895
 30
0.0
 10
9.327529
 20
0.664895
 30
0.0
  0
LWPOLYLINE
  5
1af
100
AcDbEntity
  8
Layer_1
 62
7
100
AcDbPolyline
 90
15
 70
0
 10
2.436791
 20
0.655856
 30
0.0
 10
2.436791
 20
0.655856
 30
0.0
 10
2.436227
 20
0.648800
 30
0.0
 10
2.427834
 20
0.611046
 30
0.0
 10
2.432646
 20
0.571134
 30
0.0
 10
2.452344
 20
0.539408
 30
0.0
 10
2.488607
 20
0.526211
 30
0.0
 10
2.713376
 20
0.528003
 30
0.0
 10
2.938103
 20
0.531943
 30
0.0
 10
2.944903
 20
0.568946
 30
0.0
 10
2.925914
 20
0.599067
 30
0.0
 10
2.892156
 20
0.617151
 30
0.0
 10
2.854650
 20
0.618043
 30
0.0
 10
2.436848
 20
0.655912
 30
0.0
 10
2.436791
 20
0.655856
 30
0.0
  0
LWPOLYLINE
  5
1b0
100
AcDbEntity
  8
Layer_1
 62
7
100
AcDbPolyline
 90
12
 70
0
 10
10.681518
 20
0.650564
 30
0.0
 10
10.274244
 20
0.606357
 30
0.0
 10
10.265833
 20
0.572345
 30
0.0
 10
10.282421
 20
0.543384
 30
0.0
 10
10.313455
 20
0.526037
 30
0.0
 10
10.348383
 20
0.526871
 30
0.0
 10
10.740221
 20
0.531833
 30
0.0
 10
10.747860
 20
0.569807
 30
0.0
 10
10.740842
 20
0.609297
 30
0.0
 10
10.718837
 20
0.639738
 30
0.0
 10
10.681518
 20
0.650564
 30
0.0
 10
10.681518
 20
0.650564
 30
0.0
  0
LWPOLYLINE
  5
1b1
100
AcDbEntity
  8
Layer_1
 62
7
100
AcDbPolyline
 90
15
 70
0
 10
1.282531
 20
0.645549
 30
0.0
 10
1.282531
 20
0.638493
 30
0.0
 10
1.282531
 20
0.637929
 30
0.0
 10
1.275980
 20
0.603318
 30
0.0
 10
1.281162
 20
0.567083
 30
0.0
 10
1.299572
 20
0.538269
 30
0.0
 10
1.332710
 20
0.525923
 30
0.0
 10
1.558840
 20
0.527974
 30
0.0
 10
1.784971
 20
0.532042
 30
0.0
 10
1.789996
 20
0.569135
 30
0.0
 10
1.770415
 20
0.598823
 30
0.0
 10
1.736727
 20
0.616383
 30
0.0
 10
1.699429
 20
0.617092
 30
0.0
 10
1.282531
 20
0.645537
 30
0.0
 10
1.282531
 20
0.645549
 30
0.0
  0
LWPOLYLINE
  5
1b2
100
AcDbEntity
  8
Layer_1
 62
7
100
AcDbPolyline
 90
15
 70
0
 10
4.026831
 20
0.643997
 30
0.0
 10
4.010308
 20
0.633791
 30
0.0
 10
4.003696
 20
0.616676
 30
0.0
 10
4.011761
 20
0.580607
 30
0.0
 10
4.014222
 20
0.553427
 30
0.0
 10
4.032508
 20
0.534588
 30
0.0
 10
4.058969
 20
0.525928
 30
0.0
 10
4.085957
 20
0.529287
 30
0.0
 10
4.244231
 20
0.530372
 30
0.0
 10
4.322443
 20
0.540712
 30
0.0
 10
4.398462
 20
0.562638
 30
0.0
 10
4.309684
 20
0.598641
 30
0.0
 10
4.216964
 20
0.621860
 30
0.0
 10
4.026831
 20
0.643997
 30
0.0
 10
4.026831
 20
0.643997
 30
0.0
  0
LWPOLYLINE
  5
1b3
100
AcDbEntity
  8
Layer_1
 62
7
100
AcDbPolyline
 90
14
 70
0
 10
0.135946
 20
0.637325
 30
0.0
 10
0.135382
 20
0.630436
 30
0.0
 10
0.127570
 20
0.595660
 30
0.0
 10
0.134775
 20
0.559387
 30
0.0
 10
0.156226
 20
0.532566
 30
0.0
 10
0.191149
 20
0.526146
 30
0.0
 10
0.400921
 20
0.527829
 30
0.0
 10
0.610757
 20
0.532155
 30
0.0
 10
0.615343
 20
0.569367
 30
0.0
 10
0.595376
 20
0.598875
 30
0.0
 10
0.561418
 20
0.616051
 30
0.0
 10
0.524030
 20
0.616268
 30
0.0
 10
0.135918
 20
0.637325
 30
0.0
 10
0.135946
 20
0.637325
 30
0.0
  0
LWPOLYLINE
  5
1b4
100
AcDbEntity
  8
Layer_1
 62
7
100
AcDbPolyline
 90
15
 70
0
 10
5.366060
 20
0.633303
 30
0.0
 10
5.345141
 20
0.627885
 30
0.0
 10
5.330984
 20
0.614325
 30
0.0
 10
5.322069
 20
0.574500
 30
0.0
 10
5.337549
 20
0.537274
 30
0.0
 10
5.353885
 20
0.526961
 30
0.0
 10
5.375656
 20
0.526090
 30
0.0
 10
5.408667
 20
0.524570
 30
0.0
 10
5.443488
 20
0.531159
 30
0.0
 10
5.469969
 20
0.548898
 30
0.0
 10
5.477962
 20
0.580827
 30
0.0
 10
5.459505
 20
0.606720
 30
0.0
 10
5.430869
 20
0.621874
 30
0.0
 10
5.366060
 20
0.633303
 30
0.0
 10
5.366060
 20
0.633303
 30
0.0
  0
LWPOLYLINE
  5
1b5
100
AcDbEntity
  8
Layer_1
 62
7
100
AcDbPolyline
 90
16
 70
0
 10
11.838630
 20
0.618365
 30
0.0
 10
11.817096
 20
0.618083
 30
0.0
 10
11.799383
 20
0.612182
 30
0.0
 10
11.787796
 20
0.600125
 30
0.0
 10
11.781748
 20
0.566700
 30
0.0
 10
11.796443
 20
0.536119
 30
0.0
 10
11.810785
 20
0.527616
 30
0.0
 10
11.829373
 20
0.526691
 30
0.0
 10
11.862012
 20
0.533686
 30
0.0
 10
11.882734
 20
0.560606
 30
0.0
 10
11.884395
 20
0.592494
 30
0.0
 10
11.875846
 20
0.605625
 30
0.0
 10
11.859853
 20
0.614389
 30
0.0
 10
11.838630
 20
0.618249
 30
0.0
 10
11.838630
 20
0.618249
 30
0.0
 10
11.838630
 20
0.618365
 30
0.0
  0
LWPOLYLINE
  5
1b6
100
AcDbEntity
  8
Layer_1
 62
7
100
AcDbPolyline
 90
13
 70
0
 10
5.947862
 20
0.617801
 30
0.0
 10
5.938153
 20
0.617462
 30
0.0
 10
5.920286
 20
0.612173
 30
0.0
 10
5.908888
 20
0.600165
 30
0.0
 10
5.903849
 20
0.566149
 30
0.0
 10
5.919722
 20
0.535727
 30
0.0
 10
5.934466
 20
0.528212
 30
0.0
 10
5.953196
 20
0.529214
 30
0.0
 10
5.979362
 20
0.547116
 30
0.0
 10
5.986014
 20
0.576330
 30
0.0
 10
5.974924
 20
0.604130
 30
0.0
 10
5.947862
 20
0.617792
 30
0.0
 10
5.947862
 20
0.617801
 30
0.0
  0
LWPOLYLINE
  5
1b7
100
AcDbEntity
  8
Layer_1
 62
7
100
AcDbPolyline
 90
14
 70
0
 10
3.585803
 20
0.612345
 30
0.0
 10
3.574994
 20
0.612063
 30
0.0
 10
3.555528
 20
0.606994
 30
0.0
 10
3.542870
 20
0.594666
 30
0.0
 10
3.536322
 20
0.558656
 30
0.0
 10
3.552030
 20
0.524876
 30
0.0
 10
3.567194
 20
0.515336
 30
0.0
 10
3.586678
 20
0.514169
 30
0.0
 10
3.617168
 20
0.532500
 30
0.0
 10
3.626217
 20
0.564885
 30
0.0
 10
3.615284
 20
0.596455
 30
0.0
 10
3.585831
 20
0.612340
 30
0.0
 10
3.585831
 20
0.612340
 30
0.0
 10
3.585803
 20
0.612345
 30
0.0
  0
LWPOLYLINE
  5
1b8
100
AcDbEntity
  8
Layer_1
 62
7
100
AcDbPolyline
 90
10
 70
0
 10
0.000254
 20
0.500007
 30
0.0
 10
0.000254
 20
-0.000001
 30
0.0
 10
0.500267
 20
-0.000001
 30
0.0
 10
0.500267
 20
0.400015
 30
0.0
 10
13.500269
 20
0.400015
 30
0.0
 10
13.500269
 20
-0.000001
 30
0.0
 10
14.000226
 20
-0.000001
 30
0.0
 10
14.000226
 20
0.500007
 30
0.0
 10
0.000254
 20
0.500007
 30
0.0
 10
0.000254
 20
0.500007
 30
0.0
  0
ENDSEC
  0
SECTION
  2
OBJECTS
  0
DICTIONARY
  5
C
330
0
100
AcDbDictionary
  3
ACAD_GROUP
350
D
  3
ACAD_MLINESTYLE
350
17
  0
DICTIONARY
  5
D
330
C
100
AcDbDictionary
  0
DICTIONARY
  5
1A
330
C
100
AcDbDictionary
  0
DICTIONARY
  5
17
330
C
100
AcDbDictionary
  3
STANDARD
350
18
  0
DICTIONARY
  5
19
330
C
100
AcDbDictionary
  0
ENDSEC
  0
EOF
