  0
SECTION
  2
HEADER
  9
$ACADVER
  1
AC1014
  9
$HANDSEED
  5
FFFF
  9
$MEASUREMENT
 70
     1
  0
ENDSEC
  0
SECTION
  2
TABLES
  0
TABLE
  2
VPORT
  5
8
330
0
100
AcDbSymbolTable
 70
     4
  0
VPORT
  5
2E
330
8
100
AcDbSymbolTableRecord
100
AcDbViewportTableRecord
  2
*ACTIVE
 70
     0
 10
0.0
 20
0.0
 11
1.0
 21
1.0
 12
210.0
 22
148.5
 13
0.0
 23
0.0
 14
10.0
 24
10.0
 15
10.0
 25
10.0
 16
0.0
 26
0.0
 36
1.0
 17
0.0
 27
0.0
 37
0.0
 40
341.0
 41
1.24
 42
50.0
 43
0.0
 44
0.0
 50
0.0
 51
0.0
 71
     0
 72
   100
 73
     1
 74
     3
 75
     0
 76
     0
 77
     0
 78
     0
  0
ENDTAB
  0
TABLE
  2
LTYPE
  5
5
330
0
100
AcDbSymbolTable
 70
     1
  0
LTYPE
  5
14
330
5
100
AcDbSymbolTableRecord
100
AcDbLinetypeTableRecord
  2
BYBLOCK
 70
     0
  3

 72
    65
 73
     0
 40
0.0
  0
LTYPE
  5
15
330
5
100
AcDbSymbolTableRecord
100
AcDbLinetypeTableRecord
  2
BYLAYER
 70
     0
  3

 72
    65
 73
     0
 40
0.0
  0
LTYPE
  5
16
330
5
100
AcDbSymbolTableRecord
100
AcDbLinetypeTableRecord
  2
CONTINUOUS
 70
     0
  3
Solid line
 72
    65
 73
     0
 40
0.0
  0
ENDTAB
  0
TABLE
  2
LAYER
  5
2
100
AcDbSymbolTable
 70
2
  0
LAYER
  5
50
100
AcDbSymbolTableRecord
100
AcDbLayerTableRecord
  2
0
 70
0
  6
CONTINUOUS
  0
LAYER
  5
51
100
AcDbSymbolTableRecord
100
AcDbLayerTableRecord
  2
Layer_1
 70
0
  6
CONTINUOUS
  0
ENDTAB
  0
TABLE
  2
STYLE
  5
3
330
0
100
AcDbSymbolTable
 70
     1
  0
STYLE
  5
11
330
3
100
AcDbSymbolTableRecord
100
AcDbTextStyleTableRecord
  2
STANDARD
 70
     0
 40
0.0
 41
1.0
 50
0.0
 71
     0
 42
2.5
  3
txt
  4

  0
ENDTAB
  0
TABLE
  2
VIEW
  5
6
330
0
100
AcDbSymbolTable
 70
     0
  0
ENDTAB
  0
TABLE
  2
UCS
  5
7
330
0
100
AcDbSymbolTable
 70
     0
  0
ENDTAB
  0
TABLE
  2
APPID
  5
9
330
0
100
AcDbSymbolTable
 70
     2
  0
APPID
  5
12
330
9
100
AcDbSymbolTableRecord
100
AcDbRegAppTableRecord
  2
ACAD
 70
     0
  0
ENDTAB
  0
TABLE
  2
DIMSTYLE
  5
A
330
0
100
AcDbSymbolTable
 70
     1
  0
DIMSTYLE
105
27
330
A
100
AcDbSymbolTableRecord
100
AcDbDimStyleTableRecord
  2
ISO-25
 70
     0
  3

  4

  5

  6

  7

 40
1.0
 41
2.5
 42
0.625
 43
3.75
 44
1.25
 45
0.0
 46
0.0
 47
0.0
 48
0.0
140
2.5
141
2.5
142
0.0
143
0.03937007874016
144
1.0
145
0.0
146
1.0
147
0.625
 71
     0
 72
     0
 73
     0
 74
     0
 75
     0
 76
     0
 77
     1
 78
     8
170
     0
171
     3
172
     1
173
     0
174
     0
175
     0
176
     0
177
     0
178
     0
270
     2
271
     2
272
     2
273
     2
274
     3
340
11
275
     0
280
     0
281
     0
282
     0
283
     0
284
     8
285
     0
286
     0
287
     3
288
     0
  0
ENDTAB
  0
TABLE
  2
BLOCK_RECORD
  5
1
330
0
100
AcDbSymbolTable
 70
     1
  0
BLOCK_RECORD
  5
1F
330
1
100
AcDbSymbolTableRecord
100
AcDbBlockTableRecord
  2
*MODEL_SPACE
  0
BLOCK_RECORD
  5
1B
330
1
100
AcDbSymbolTableRecord
100
AcDbBlockTableRecord
  2
*PAPER_SPACE
  0
ENDTAB
  0
ENDSEC
  0
SECTION
  2
BLOCKS
  0
BLOCK
  5
20
330
1F
100
AcDbEntity
  8
0
100
AcDbBlockBegin
  2
*MODEL_SPACE
 70
     0
 10
0.0
 20
0.0
 30
0.0
  3
*MODEL_SPACE
  1

  0
ENDBLK
  5
21
330
1F
100
AcDbEntity
  8
0
100
AcDbBlockEnd
  0
BLOCK
  5
1C
330
1B
100
AcDbEntity
 67
     1
  8
0
100
AcDbBlockBegin
  2
*PAPER_SPACE
  1

  0
ENDBLK
  5
1D
330
1B
100
AcDbEntity
 67
     1
  8
0
100
AcDbBlockEnd
  0
ENDSEC
  0
SECTION
  2
ENTITIES
  0
LWPOLYLINE
  5
100
100
AcDbEntity
  8
Layer_1
 62
7
100
AcDbPolyline
 90
9
 70
0
 10
12.856932
 20
20.494872
 30
0.0
 10
13.107018
 20
20.266283
 30
0.0
 10
13.104427
 20
20.445814
 30
0.0
 10
13.050001
 20
20.491601
 30
0.0
 10
13.020233
 20
20.507338
 30
0.0
 10
12.984759
 20
20.507109
 30
0.0
 10
12.843482
 20
20.507109
 30
0.0
 10
12.856932
 20
20.494872
 30
0.0
 10
12.856932
 20
20.494872
 30
0.0
  0
LWPOLYLINE
  5
101
100
AcDbEntity
  8
Layer_1
 62
7
100
AcDbPolyline
 90
267
 70
0
 10
0.092936
 20
20.499998
 30
0.0
 10
0.092936
 20
15.531674
 30
0.0
 10
0.707100
 20
15.033596
 30
0.0
 10
0.092936
 20
14.273746
 30
0.0
 10
0.092553
 20
14.036296
 30
0.0
 10
0.095972
 20
13.799260
 30
0.0
 10
0.108267
 20
13.817515
 30
0.0
 10
0.118030
 20
13.847994
 30
0.0
 10
0.135926
 20
13.912849
 30
0.0
 10
0.286357
 20
14.437788
 30
0.0
 10
1.270221
 20
14.155841
 30
0.0
 10
1.063129
 20
13.424872
 30
0.0
 10
0.989267
 20
13.172749
 30
0.0
 10
0.092936
 20
13.429615
 30
0.0
 10
0.093652
 20
12.790316
 30
0.0
 10
0.391529
 20
12.189436
 30
0.0
 10
0.092936
 20
12.041379
 30
0.0
 10
0.092936
 20
11.576595
 30
0.0
 10
0.433532
 20
12.143905
 30
0.0
 10
1.310129
 20
11.617715
 30
0.0
 10
0.782175
 20
10.738251
 30
0.0
 10
0.092936
 20
11.151993
 30
0.0
 10
0.092936
 20
7.866309
 30
0.0
 10
0.194194
 20
8.024343
 30
0.0
 10
1.057948
 20
7.471033
 30
0.0
 10
0.506402
 20
6.610145
 30
0.0
 10
0.092936
 20
6.875004
 30
0.0
 10
0.092936
 20
6.640848
 30
0.0
 10
0.435626
 20
6.481436
 30
0.0
 10
0.092936
 20
5.743414
 30
0.0
 10
0.092526
 20
5.601151
 30
0.0
 10
0.096243
 20
5.459207
 30
0.0
 10
0.151671
 20
5.601802
 30
0.0
 10
0.203289
 20
5.746115
 30
0.0
 10
1.168246
 20
5.397967
 30
0.0
 10
0.821256
 20
4.436152
 30
0.0
 10
0.092936
 20
4.698916
 30
0.0
 10
0.092936
 20
4.431301
 30
0.0
 10
0.783112
 20
4.297191
 30
0.0
 10
0.588092
 20
3.293538
 30
0.0
 10
0.092936
 20
3.389725
 30
0.0
 10
0.092936
 20
3.169018
 30
0.0
 10
0.571887
 20
3.150056
 30
0.0
 10
0.531538
 20
2.128434
 30
0.0
 10
0.092936
 20
2.145742
 30
0.0
 10
0.092936
 20
1.933910
 30
0.0
 10
0.536499
 20
1.984126
 30
0.0
 10
0.651482
 20
0.968126
 30
0.0
 10
0.092936
 20
0.904901
 30
0.0
 10
0.092936
 20
0.666446
 30
0.0
 10
0.678547
 20
0.826574
 30
0.0
 10
0.769663
 20
0.492978
 30
0.0
 10
0.833306
 20
0.491061
 30
0.0
 10
0.856763
 20
0.496194
 30
0.0
 10
0.853172
 20
0.521035
 30
0.0
 10
1.829539
 20
0.835503
 30
0.0
 10
1.939893
 20
0.492978
 30
0.0
 10
2.049210
 20
0.492012
 30
0.0
 10
2.102757
 20
0.497345
 30
0.0
 10
2.153587
 20
0.516895
 30
0.0
 10
3.000266
 20
0.852867
 30
0.0
 10
3.143085
 20
0.492978
 30
0.0
 10
3.446474
 20
0.493749
 30
0.0
 10
4.200041
 20
0.883182
 30
0.0
 10
4.401730
 20
0.492977
 30
0.0
 10
4.849262
 20
0.494411
 30
0.0
 10
5.431015
 20
0.934446
 30
0.0
 10
5.764886
 20
0.492978
 30
0.0
 10
6.324479
 20
0.492978
 30
0.0
 10
6.698755
 20
1.066848
 30
0.0
 10
7.555233
 20
0.508357
 30
0.0
 10
7.553360
 20
0.498554
 30
0.0
 10
7.559683
 20
0.493178
 30
0.0
 10
7.588863
 20
0.491354
 30
0.0
 10
7.656987
 20
0.492978
 30
0.0
 10
8.701155
 20
0.492978
 30
0.0
 10
8.714824
 20
0.513332
 30
0.0
 10
8.741212
 20
0.530817
 30
0.0
 10
8.797536
 20
0.564987
 30
0.0
 10
9.560444
 20
1.047059
 30
0.0
 10
9.910465
 20
0.492978
 30
0.0
 10
10.511180
 20
0.492978
 30
0.0
 10
10.847752
 20
0.939242
 30
0.0
 10
11.441742
 20
0.492978
 30
0.0
 10
11.874335
 20
0.492978
 30
0.0
 10
12.071450
 20
0.871883
 30
0.0
 10
12.801645
 20
0.492978
 30
0.0
 10
13.107018
 20
0.492978
 30
0.0
 10
13.107018
 20
0.780106
 30
0.0
 10
12.112075
 20
0.986977
 30
0.0
 10
12.320268
 20
1.988039
 30
0.0
 10
13.107018
 20
1.824438
 30
0.0
 10
13.107797
 20
1.886069
 30
0.0
 10
13.101396
 20
1.941847
 30
0.0
 10
12.746689
 20
2.015710
 30
0.0
 10
13.107018
 20
2.038751
 30
0.0
 10
13.108069
 20
2.099975
 30
0.0
 10
13.107835
 20
2.129782
 30
0.0
 10
13.099975
 20
2.151501
 30
0.0
 10
12.327931
 20
2.101975
 30
0.0
 10
12.262391
 20
3.122275
 30
0.0
 10
13.107018
 20
3.176569
 30
0.0
 10
13.108062
 20
3.237988
 30
0.0
 10
13.107818
 20
3.267878
 30
0.0
 10
13.099978
 20
3.289654
 30
0.0
 10
12.627075
 20
3.259251
 30
0.0
 10
13.107018
 20
3.428585
 30
0.0
 10
13.107911
 20
3.493068
 30
0.0
 10
13.107501
 20
3.524102
 30
0.0
 10
13.100361
 20
3.545642
 30
0.0
 10
12.237972
 20
3.241668
 30
0.0
 10
11.898093
 20
4.205909
 30
0.0
 10
12.865476
 20
4.546890
 30
0.0
 10
13.100078
 20
3.888218
 30
0.0
 10
13.106703
 20
3.903351
 30
0.0
 10
13.107662
 20
3.932599
 30
0.0
 10
13.107018
 20
3.994683
 30
0.0
 10
13.107018
 20
4.361792
 30
0.0
 10
13.084705
 20
4.367341
 30
0.0
 10
13.068804
 20
4.393567
 30
0.0
 10
13.039393
 20
4.453729
 30
0.0
 10
12.617098
 20
5.259336
 30
0.0
 10
13.107018
 20
5.516147
 30
0.0
 10
13.107018
 20
5.643147
 30
0.0
 10
12.925282
 20
5.547897
 30
0.0
 10
13.107018
 20
5.703946
 30
0.0
 10
13.107018
 20
5.847979
 30
0.0
 10
12.541085
 20
5.372115
 30
0.0
 10
11.883100
 20
6.154675
 30
0.0
 10
12.668196
 20
6.814811
 30
0.0
 10
13.107018
 20
6.292920
 30
0.0
 10
13.105088
 20
6.496153
 30
0.0
 10
12.464962
 20
7.166982
 30
0.0
 10
13.107017
 20
7.779713
 30
0.0
 10
13.107017
 20
7.935542
 30
0.0
 10
12.727064
 20
7.572952
 30
0.0
 10
13.039328
 20
8.001302
 30
0.0
 10
13.075115
 20
7.970865
 30
0.0
 10
13.107017
 20
7.936038
 30
0.0
 10
13.104867
 20
8.097709
 30
0.0
 10
13.077045
 20
8.120788
 30
0.0
 10
13.065224
 20
8.144110
 30
0.0
 10
13.071821
 20
8.167711
 30
0.0
 10
13.099250
 20
8.191629
 30
0.0
 10
13.107675
 20
8.218175
 30
0.0
 10
13.108094
 20
8.247967
 30
0.0
 10
13.107017
 20
8.308328
 30
0.0
 10
13.107017
 20
8.467850
 30
0.0
 10
12.944132
 20
8.238379
 30
0.0
 10
12.110364
 20
8.830219
 30
0.0
 10
12.704188
 20
9.666688
 30
0.0
 10
13.107017
 20
9.380663
 30
0.0
 10
13.107426
 20
9.450436
 30
0.0
 10
13.103985
 20
9.518191
 30
0.0
 10
12.671005
 20
9.817225
 30
0.0
 10
13.107017
 20
10.450737
 30
0.0
 10
13.107017
 20
10.646749
 30
0.0
 10
12.911666
 20
10.363700
 30
0.0
 10
13.107017
 20
10.747070
 30
0.0
 10
13.105969
 20
11.143945
 30
0.0
 10
13.002341
 20
10.939003
 30
0.0
 10
12.087820
 20
11.396347
 30
0.0
 10
12.546596
 20
12.313845
 30
0.0
 10
13.107017
 20
12.033552
 30
0.0
 10
13.107550
 20
12.099372
 30
0.0
 10
13.103103
 20
12.162095
 30
0.0
 10
12.496711
 20
12.465814
 30
0.0
 10
12.248385
 20
11.968343
 30
0.0
 10
11.994995
 20
11.473792
 30
0.0
 10
11.984294
 20
11.455246
 30
0.0
 10
11.972072
 20
11.453071
 30
0.0
 10
11.933744
 20
11.467882
 30
0.0
 10
10.801559
 20
11.862509
 30
0.0
 10
10.618776
 20
11.338689
 30
0.0
 10
10.729680
 20
11.882353
 30
0.0
 10
10.344546
 20
11.960791
 30
0.0
 10
11.029597
 20
11.959467
 30
0.0
 10
11.030810
 20
12.725326
 30
0.0
 10
11.236524
 20
11.986477
 30
0.0
 10
12.317762
 20
12.287362
 30
0.0
 10
12.354912
 20
12.295815
 30
0.0
 10
12.391335
 20
12.312542
 30
0.0
 10
12.417501
 20
12.338819
 30
0.0
 10
12.423877
 20
12.375927
 30
0.0
 10
12.232845
 20
13.061457
 30
0.0
 10
12.630988
 20
12.405290
 30
0.0
 10
13.107018
 20
12.694568
 30
0.0
 10
13.107018
 20
12.826694
 30
0.0
 10
12.668581
 20
12.560402
 30
0.0
 10
12.136107
 20
13.437165
 30
0.0
 10
13.010059
 20
13.967985
 30
0.0
 10
13.107018
 20
13.808298
 30
0.0
 10
13.107018
 20
14.212064
 30
0.0
 10
13.084660
 20
14.185115
 30
0.0
 10
13.065110
 20
14.184082
 30
0.0
 10
13.047625
 20
14.202168
 30
0.0
 10
13.031466
 20
14.232577
 30
0.0
 10
12.704079
 20
14.759365
 30
0.0
 10
13.107018
 20
14.455425
 30
0.0
 10
13.107417
 20
14.527851
 30
0.0
 10
13.104207
 20
14.598466
 30
0.0
 10
12.507240
 20
15.048753
 30
0.0
 10
13.107018
 20
15.846252
 30
0.0
 10
13.105364
 20
16.221409
 30
0.0
 10
12.806220
 20
15.584810
 30
0.0
 10
11.876871
 20
16.018892
 30
0.0
 10
12.309575
 20
16.945264
 30
0.0
 10
13.107018
 20
16.572808
 30
0.0
 10
13.107590
 20
16.637742
 30
0.0
 10
13.102939
 20
16.699367
 30
0.0
 10
12.578733
 20
16.944272
 30
0.0
 10
13.107018
 20
17.018742
 30
0.0
 10
13.108035
 20
17.080651
 30
0.0
 10
13.107751
 20
17.110698
 30
0.0
 10
13.100028
 20
17.132216
 30
0.0
 10
12.320434
 20
17.021718
 30
0.0
 10
12.176952
 20
18.034025
 30
0.0
 10
13.107018
 20
18.165821
 30
0.0
 10
13.108038
 20
18.227597
 30
0.0
 10
13.107761
 20
18.257582
 30
0.0
 10
13.100028
 20
18.279020
 30
0.0
 10
12.434204
 20
18.184452
 30
0.0
 10
12.961993
 20
18.640086
 30
0.0
 10
13.105915
 20
18.353068
 30
0.0
 10
13.106302
 20
18.603155
 30
0.0
 10
12.878264
 20
19.061380
 30
0.0
 10
13.107019
 20
19.175261
 30
0.0
 10
13.107019
 20
19.458861
 30
0.0
 10
12.817079
 20
19.141527
 30
0.0
 10
12.062300
 20
19.831373
 30
0.0
 10
12.679882
 20
20.507052
 30
0.0
 10
12.218570
 20
20.507052
 30
0.0
 10
11.977248
 20
19.884620
 30
0.0
 10
11.023976
 20
20.254320
 30
0.0
 10
11.121982
 20
20.507052
 30
0.0
 10
10.925088
 20
20.507052
 30
0.0
 10
10.924806
 20
20.272014
 30
0.0
 10
9.902357
 20
20.272895
 30
0.0
 10
9.902639
 20
20.507051
 30
0.0
 10
9.705965
 20
20.507051
 30
0.0
 10
9.803696
 20
20.254980
 30
0.0
 10
8.850314
 20
19.885500
 30
0.0
 10
8.609488
 20
20.507051
 30
0.0
 10
8.150050
 20
20.507051
 30
0.0
 10
8.765151
 20
19.831978
 30
0.0
 10
8.009325
 20
19.143399
 30
0.0
 10
7.318542
 20
19.901651
 30
0.0
 10
7.983032
 20
20.507051
 30
0.0
 10
7.794185
 20
20.505452
 30
0.0
 10
7.393397
 20
20.180731
 30
0.0
 10
7.125616
 20
20.507051
 30
0.0
 10
6.724828
 20
20.507051
 30
0.0
 10
7.309667
 20
20.091655
 30
0.0
 10
6.717552
 20
19.258052
 30
0.0
 10
5.881248
 20
19.852097
 30
0.0
 10
6.346474
 20
20.507051
 30
0.0
 10
6.225978
 20
20.504515
 30
0.0
 10
6.021808
 20
20.258177
 30
0.0
 10
5.719025
 20
20.507051
 30
0.0
 10
5.244760
 20
20.506279
 30
0.0
 10
5.946787
 20
20.144958
 30
0.0
 10
5.479798
 20
19.235342
 30
0.0
 10
4.567261
 20
19.703820
 30
0.0
 10
4.979680
 20
20.507051
 30
0.0
 10
0.092936
 20
20.507051
 30
0.0
 10
0.092936
 20
20.499996
 30
0.0
 10
0.092936
 20
20.499998
 30
0.0
  0
LWPOLYLINE
  5
102
100
AcDbEntity
  8
Layer_1
 62
7
100
AcDbPolyline
 90
26
 70
0
 10
4.795243
 20
20.394165
 30
0.0
 10
4.415897
 20
19.655316
 30
0.0
 10
5.065449
 20
19.321224
 30
0.0
 10
4.359673
 20
19.506212
 30
0.0
 10
4.042944
 20
18.299326
 30
0.0
 10
4.745138
 20
18.114614
 30
0.0
 10
4.019518
 20
18.143443
 30
0.0
 10
3.969467
 20
16.896042
 30
0.0
 10
4.697237
 20
16.866828
 30
0.0
 10
3.980326
 20
16.739828
 30
0.0
 10
4.197891
 20
15.510838
 30
0.0
 10
4.917558
 20
15.638280
 30
0.0
 10
4.242760
 20
15.357987
 30
0.0
 10
4.313756
 20
15.186944
 30
0.0
 10
3.591113
 20
15.964654
 30
0.0
 10
2.958869
 20
15.376948
 30
0.0
 10
3.173292
 20
16.212921
 30
0.0
 10
1.964201
 20
16.523366
 30
0.0
 10
1.749668
 20
15.687227
 30
0.0
 10
1.478029
 20
16.506884
 30
0.0
 10
0.293027
 20
16.114585
 30
0.0
 10
0.564170
 20
15.295148
 30
0.0
 10
0.206100
 20
15.585418
 30
0.0
 10
0.206100
 20
20.394165
 30
0.0
 10
4.795243
 20
20.394165
 30
0.0
 10
4.795243
 20
20.394165
 30
0.0
  0
LWPOLYLINE
  5
103
100
AcDbEntity
  8
Layer_1
 62
7
100
AcDbPolyline
 90
5
 70
0
 10
8.533034
 20
20.394165
 30
0.0
 10
8.626575
 20
20.152237
 30
0.0
 10
8.406144
 20
20.394165
 30
0.0
 10
8.533034
 20
20.394165
 30
0.0
 10
8.533034
 20
20.394165
 30
0.0
  0
LWPOLYLINE
  5
104
100
AcDbEntity
  8
Layer_1
 62
7
100
AcDbPolyline
 90
5
 70
0
 10
12.424448
 20
20.394165
 30
0.0
 10
12.200931
 20
20.149701
 30
0.0
 10
12.295684
 20
20.394165
 30
0.0
 10
12.424448
 20
20.394165
 30
0.0
 10
12.424448
 20
20.394165
 30
0.0
  0
LWPOLYLINE
  5
105
100
AcDbEntity
  8
Layer_1
 62
7
100
AcDbPolyline
 90
6
 70
0
 10
10.388810
 20
19.188602
 30
0.0
 10
9.406820
 20
18.904064
 30
0.0
 10
9.121346
 20
19.889252
 30
0.0
 10
10.103336
 20
20.173844
 30
0.0
 10
10.388810
 20
19.188602
 30
0.0
 10
10.388810
 20
19.188602
 30
0.0
  0
LWPOLYLINE
  5
106
100
AcDbEntity
  8
Layer_1
 62
7
100
AcDbPolyline
 90
6
 70
0
 10
11.722586
 20
19.881038
 30
0.0
 10
11.430938
 20
18.897615
 30
0.0
 10
10.450657
 20
19.188326
 30
0.0
 10
10.742360
 20
20.171749
 30
0.0
 10
11.722586
 20
19.881038
 30
0.0
 10
11.722586
 20
19.881038
 30
0.0
  0
LWPOLYLINE
  5
107
100
AcDbEntity
  8
Layer_1
 62
7
100
AcDbPolyline
 90
5
 70
0
 10
10.621037
 20
20.159347
 30
0.0
 10
10.420891
 20
19.484660
 30
0.0
 10
10.225430
 20
20.159788
 30
0.0
 10
10.621037
 20
20.159348
 30
0.0
 10
10.621037
 20
20.159347
 30
0.0
  0
LWPOLYLINE
  5
108
100
AcDbEntity
  8
Layer_1
 62
7
100
AcDbPolyline
 90
7
 70
0
 10
9.221943
 20
19.136457
 30
0.0
 10
8.685280
 20
19.606092
 30
0.0
 10
8.780307
 20
19.693469
 30
0.0
 10
8.878740
 20
19.775341
 30
0.0
 10
9.020970
 20
19.830437
 30
0.0
 10
9.221943
 20
19.136457
 30
0.0
 10
9.221943
 20
19.136457
 30
0.0
  0
LWPOLYLINE
  5
109
100
AcDbEntity
  8
Layer_1
 62
7
100
AcDbPolyline
 90
8
 70
0
 10
11.829742
 20
19.823877
 30
0.0
 10
11.922434
 20
19.784521
 30
0.0
 10
12.005727
 20
19.728577
 30
0.0
 10
12.155455
 20
19.593525
 30
0.0
 10
11.617800
 20
19.130008
 30
0.0
 10
11.823568
 20
19.825586
 30
0.0
 10
11.829742
 20
19.823879
 30
0.0
 10
11.829742
 20
19.823877
 30
0.0
  0
LWPOLYLINE
  5
10a
100
AcDbEntity
  8
Layer_1
 62
7
100
AcDbPolyline
 90
5
 70
0
 10
7.702793
 20
19.312460
 30
0.0
 10
7.106158
 20
19.609951
 30
0.0
 10
7.248647
 20
19.810759
 30
0.0
 10
7.702793
 20
19.312460
 30
0.0
 10
7.702793
 20
19.312460
 30
0.0
  0
LWPOLYLINE
  5
10b
100
AcDbEntity
  8
Layer_1
 62
7
100
AcDbPolyline
 90
5
 70
0
 10
6.349064
 20
19.381968
 30
0.0
 10
5.785777
 20
19.583492
 30
0.0
 10
5.860412
 20
19.728903
 30
0.0
 10
6.349064
 20
19.381968
 30
0.0
 10
6.349064
 20
19.381968
 30
0.0
  0
LWPOLYLINE
  5
10c
100
AcDbEntity
  8
Layer_1
 62
7
100
AcDbPolyline
 90
6
 70
0
 10
9.355061
 20
18.870275
 30
0.0
 10
8.681917
 20
18.100613
 30
0.0
 10
7.909775
 20
18.775962
 30
0.0
 10
8.582919
 20
19.545624
 30
0.0
 10
9.355061
 20
18.870275
 30
0.0
 10
9.355061
 20
18.870275
 30
0.0
  0
LWPOLYLINE
  5
10d
100
AcDbEntity
  8
Layer_1
 62
7
100
AcDbPolyline
 90
6
 70
0
 10
12.927157
 20
18.759812
 30
0.0
 10
12.150439
 20
18.089864
 30
0.0
 10
11.482642
 20
18.864046
 30
0.0
 10
12.259359
 20
19.534049
 30
0.0
 10
12.927157
 20
18.759812
 30
0.0
 10
12.927157
 20
18.759812
 30
0.0
  0
LWPOLYLINE
  5
10e
100
AcDbEntity
  8
Layer_1
 62
7
100
AcDbPolyline
 90
6
 70
0
 10
7.948691
 20
19.063476
 30
0.0
 10
7.492725
 20
18.148348
 30
0.0
 10
6.574676
 20
18.605802
 30
0.0
 10
7.030586
 20
19.520874
 30
0.0
 10
7.948691
 20
19.063476
 30
0.0
 10
7.948691
 20
19.063476
 30
0.0
  0
LWPOLYLINE
  5
10f
100
AcDbEntity
  8
Layer_1
 62
7
100
AcDbPolyline
 90
6
 70
0
 10
6.661272
 20
19.150017
 30
0.0
 10
6.317259
 20
18.187209
 30
0.0
 10
5.351364
 20
18.532380
 30
0.0
 10
5.695378
 20
19.495133
 30
0.0
 10
6.661272
 20
19.150017
 30
0.0
 10
6.661272
 20
19.150017
 30
0.0
  0
LWPOLYLINE
  5
110
100
AcDbEntity
  8
Layer_1
 62
7
100
AcDbPolyline
 90
6
 70
0
 10
5.431897
 20
19.108400
 30
0.0
 10
5.172495
 20
18.119355
 30
0.0
 10
4.180252
 20
18.379583
 30
0.0
 10
4.439654
 20
19.368629
 30
0.0
 10
5.431897
 20
19.108400
 30
0.0
 10
5.431897
 20
19.108400
 30
0.0
  0
LWPOLYLINE
  5
111
100
AcDbEntity
  8
Layer_1
 62
7
100
AcDbPolyline
 90
8
 70
0
 10
10.921835
 20
19.006535
 30
0.0
 10
10.921835
 20
17.982488
 30
0.0
 10
9.903851
 20
17.980778
 30
0.0
 10
9.898827
 20
18.071232
 30
0.0
 10
9.899386
 20
18.165710
 30
0.0
 10
9.899386
 20
19.006534
 30
0.0
 10
10.921835
 20
19.006534
 30
0.0
 10
10.921835
 20
19.006535
 30
0.0
  0
LWPOLYLINE
  5
112
100
AcDbEntity
  8
Layer_1
 62
7
100
AcDbPolyline
 90
6
 70
0
 10
11.395770
 20
18.790294
 30
0.0
 10
11.765305
 20
18.363488
 30
0.0
 10
11.035055
 20
18.123764
 30
0.0
 10
11.035055
 20
18.897009
 30
0.0
 10
11.395770
 20
18.790294
 30
0.0
 10
11.395770
 20
18.790294
 30
0.0
  0
LWPOLYLINE
  5
113
100
AcDbEntity
  8
Layer_1
 62
7
100
AcDbPolyline
 90
6
 70
0
 10
9.786883
 20
18.123489
 30
0.0
 10
9.060106
 20
18.361448
 30
0.0
 10
9.442318
 20
18.796247
 30
0.0
 10
9.786883
 20
18.896072
 30
0.0
 10
9.786883
 20
18.123489
 30
0.0
 10
9.786883
 20
18.123489
 30
0.0
  0
LWPOLYLINE
  5
114
100
AcDbEntity
  8
Layer_1
 62
7
100
AcDbPolyline
 90
5
 70
0
 10
8.401238
 20
18.196910
 30
0.0
 10
7.696013
 20
18.301807
 30
0.0
 10
7.873505
 20
18.658443
 30
0.0
 10
8.401238
 20
18.196910
 30
0.0
 10
8.401238
 20
18.196910
 30
0.0
  0
LWPOLYLINE
  5
115
100
AcDbEntity
  8
Layer_1
 62
7
100
AcDbPolyline
 90
5
 70
0
 10
7.147609
 20
18.194210
 30
0.0
 10
6.462504
 20
18.257379
 30
0.0
 10
6.546950
 20
18.493630
 30
0.0
 10
7.147609
 20
18.194210
 30
0.0
 10
7.147609
 20
18.194210
 30
0.0
  0
LWPOLYLINE
  5
116
100
AcDbEntity
  8
Layer_1
 62
7
100
AcDbPolyline
 90
5
 70
0
 10
5.926502
 20
18.206612
 30
0.0
 10
5.323362
 20
18.249000
 30
0.0
 10
5.364814
 20
18.407420
 30
0.0
 10
5.926502
 20
18.206612
 30
0.0
 10
5.926502
 20
18.206612
 30
0.0
  0
LWPOLYLINE
  5
117
100
AcDbEntity
  8
Layer_1
 62
7
100
AcDbPolyline
 90
6
 70
0
 10
12.227499
 20
17.319982
 30
0.0
 10
11.252895
 20
17.000222
 30
0.0
 10
10.935891
 20
17.972290
 30
0.0
 10
11.908731
 20
18.291444
 30
0.0
 10
12.227499
 20
17.319982
 30
0.0
 10
12.227499
 20
17.319982
 30
0.0
  0
LWPOLYLINE
  5
118
100
AcDbEntity
  8
Layer_1
 62
7
100
AcDbPolyline
 90
9
 70
0
 10
9.885275
 20
17.972070
 30
0.0
 10
9.574049
 20
17.014489
 30
0.0
 10
9.552374
 20
17.005032
 30
0.0
 10
9.522605
 20
17.013121
 30
0.0
 10
9.460432
 20
17.035339
 30
0.0
 10
8.594329
 20
17.318825
 30
0.0
 10
8.912380
 20
18.290452
 30
0.0
 10
9.885275
 20
17.972070
 30
0.0
 10
9.885275
 20
17.972070
 30
0.0
  0
LWPOLYLINE
  5
119
100
AcDbEntity
  8
Layer_1
 62
7
100
AcDbPolyline
 90
6
 70
0
 10
8.656506
 20
18.044499
 30
0.0
 10
8.505969
 20
17.033295
 30
0.0
 10
7.491402
 20
17.184328
 30
0.0
 10
7.641994
 20
18.195588
 30
0.0
 10
8.656506
 20
18.044499
 30
0.0
 10
8.656506
 20
18.044499
 30
0.0
  0
LWPOLYLINE
  5
11a
100
AcDbEntity
  8
Layer_1
 62
7
100
AcDbPolyline
 90
6
 70
0
 10
7.466267
 20
18.051500
 30
0.0
 10
7.372174
 20
17.033350
 30
0.0
 10
6.350717
 20
17.127718
 30
0.0
 10
6.444810
 20
18.145868
 30
0.0
 10
7.466267
 20
18.051500
 30
0.0
 10
7.466267
 20
18.051500
 30
0.0
  0
LWPOLYLINE
  5
11b
100
AcDbEntity
  8
Layer_1
 62
7
100
AcDbPolyline
 90
6
 70
0
 10
6.293115
 20
18.067430
 30
0.0
 10
6.221402
 20
17.047571
 30
0.0
 10
5.198181
 20
17.119505
 30
0.0
 10
5.269895
 20
18.139364
 30
0.0
 10
6.293115
 20
18.067430
 30
0.0
 10
6.293115
 20
18.067430
 30
0.0
  0
LWPOLYLINE
  5
11c
100
AcDbEntity
  8
Layer_1
 62
7
100
AcDbPolyline
 90
6
 70
0
 10
5.152651
 20
17.984748
 30
0.0
 10
5.111420
 20
16.963180
 30
0.0
 10
4.086490
 20
17.004522
 30
0.0
 10
4.127721
 20
18.026144
 30
0.0
 10
5.152651
 20
17.984748
 30
0.0
 10
5.152651
 20
17.984748
 30
0.0
  0
LWPOLYLINE
  5
11d
100
AcDbEntity
  8
Layer_1
 62
7
100
AcDbPolyline
 90
6
 70
0
 10
11.137085
 20
17.202408
 30
0.0
 10
10.414056
 20
16.479544
 30
0.0
 10
9.688822
 20
17.204944
 30
0.0
 10
10.411906
 20
17.927862
 30
0.0
 10
11.137085
 20
17.202408
 30
0.0
 10
11.137085
 20
17.202408
 30
0.0
  0
LWPOLYLINE
  5
11e
100
AcDbEntity
  8
Layer_1
 62
7
100
AcDbPolyline
 90
5
 70
0
 10
10.192523
 20
17.867890
 30
0.0
 10
9.866038
 20
17.541460
 30
0.0
 10
9.972698
 20
17.867890
 30
0.0
 10
10.192523
 20
17.867890
 30
0.0
 10
10.192523
 20
17.867890
 30
0.0
  0
LWPOLYLINE
  5
11f
100
AcDbEntity
  8
Layer_1
 62
7
100
AcDbPolyline
 90
5
 70
0
 10
10.849516
 20
17.867890
 30
0.0
 10
10.955570
 20
17.544492
 30
0.0
 10
10.632227
 20
17.867890
 30
0.0
 10
10.849516
 20
17.867890
 30
0.0
 10
10.849516
 20
17.867890
 30
0.0
  0
LWPOLYLINE
  5
120
100
AcDbEntity
  8
Layer_1
 62
7
100
AcDbPolyline
 90
6
 70
0
 10
12.209695
 20
17.000277
 30
0.0
 10
11.878580
 20
16.288493
 30
0.0
 10
11.415118
 20
16.934242
 30
0.0
 10
12.183347
 20
17.185982
 30
0.0
 10
12.209695
 20
17.000277
 30
0.0
 10
12.209695
 20
17.000277
 30
0.0
  0
LWPOLYLINE
  5
121
100
AcDbEntity
  8
Layer_1
 62
7
100
AcDbPolyline
 90
9
 70
0
 10
9.398773
 20
16.936502
 30
0.0
 10
8.938122
 20
16.307565
 30
0.0
 10
8.657722
 20
16.923404
 30
0.0
 10
8.631955
 20
16.985104
 30
0.0
 10
8.624937
 20
17.051117
 30
0.0
 10
8.630590
 20
17.118450
 30
0.0
 10
8.642836
 20
17.184108
 30
0.0
 10
9.398773
 20
16.936502
 30
0.0
 10
9.398773
 20
16.936502
 30
0.0
  0
LWPOLYLINE
  5
122
100
AcDbEntity
  8
Layer_1
 62
7
100
AcDbPolyline
 90
9
 70
0
 10
8.216195
 20
16.961913
 30
0.0
 10
7.572486
 20
16.672249
 30
0.0
 10
7.482297
 20
16.998208
 30
0.0
 10
7.483112
 20
17.033014
 30
0.0
 10
7.490964
 20
17.058851
 30
0.0
 10
7.510109
 20
17.070292
 30
0.0
 10
7.544805
 20
17.061911
 30
0.0
 10
8.216195
 20
16.961913
 30
0.0
 10
8.216195
 20
16.961913
 30
0.0
  0
LWPOLYLINE
  5
123
100
AcDbEntity
  8
Layer_1
 62
7
100
AcDbPolyline
 90
4
 70
0
 10
9.700067
 20
17.035224
 30
0.0
 10
9.710328
 20
17.025908
 30
0.0
 10
9.700067
 20
17.035224
 30
0.0
 10
9.700067
 20
17.035224
 30
0.0
  0
LWPOLYLINE
  5
124
100
AcDbEntity
  8
Layer_1
 62
7
100
AcDbPolyline
 90
7
 70
0
 10
7.033398
 20
16.951660
 30
0.0
 10
6.376900
 20
16.764688
 30
0.0
 10
6.350269
 20
16.890112
 30
0.0
 10
6.338168
 20
16.952901
 30
0.0
 10
6.333244
 20
17.016152
 30
0.0
 10
7.033398
 20
16.951660
 30
0.0
 10
7.033398
 20
16.951660
 30
0.0
  0
LWPOLYLINE
  5
125
100
AcDbEntity
  8
Layer_1
 62
7
100
AcDbPolyline
 90
9
 70
0
 10
5.840733
 20
16.961031
 30
0.0
 10
5.236105
 20
16.837393
 30
0.0
 10
5.224196
 20
16.910739
 30
0.0
 10
5.225901
 20
16.986378
 30
0.0
 10
5.241409
 20
17.003194
 30
0.0
 10
5.272129
 20
17.003013
 30
0.0
 10
5.339235
 20
16.996322
 30
0.0
 10
5.840733
 20
16.961031
 30
0.0
 10
5.840733
 20
16.961031
 30
0.0
  0
LWPOLYLINE
  5
126
100
AcDbEntity
  8
Layer_1
 62
7
100
AcDbPolyline
 90
7
 70
0
 10
9.578193
 20
16.981867
 30
0.0
 10
10.397960
 20
16.379554
 30
0.0
 10
9.792395
 20
15.553392
 30
0.0
 10
8.967777
 20
16.157800
 30
0.0
 10
9.573012
 20
16.983576
 30
0.0
 10
9.578193
 20
16.981868
 30
0.0
 10
9.578193
 20
16.981867
 30
0.0
  0
LWPOLYLINE
  5
127
100
AcDbEntity
  8
Layer_1
 62
7
100
AcDbPolyline
 90
6
 70
0
 10
11.842806
 20
16.143468
 30
0.0
 10
11.011959
 20
15.547605
 30
0.0
 10
10.415379
 20
16.379444
 30
0.0
 10
11.245068
 20
16.977016
 30
0.0
 10
11.842806
 20
16.143468
 30
0.0
 10
11.842806
 20
16.143468
 30
0.0
  0
LWPOLYLINE
  5
128
100
AcDbEntity
  8
Layer_1
 62
7
100
AcDbPolyline
 90
6
 70
0
 10
8.933767
 20
16.039785
 30
0.0
 10
7.998410
 20
15.618821
 30
0.0
 10
7.578825
 20
16.551092
 30
0.0
 10
8.514127
 20
16.972110
 30
0.0
 10
8.933767
 20
16.039785
 30
0.0
 10
8.933767
 20
16.039785
 30
0.0
  0
LWPOLYLINE
  5
129
100
AcDbEntity
  8
Layer_1
 62
7
100
AcDbPolyline
 90
6
 70
0
 10
7.660791
 20
15.949881
 30
0.0
 10
6.674226
 20
15.668872
 30
0.0
 10
6.394153
 20
16.652240
 30
0.0
 10
7.380663
 20
16.933249
 30
0.0
 10
7.660791
 20
15.949881
 30
0.0
 10
7.660791
 20
15.949881
 30
0.0
  0
LWPOLYLINE
  5
12a
100
AcDbEntity
  8
Layer_1
 62
7
100
AcDbPolyline
 90
6
 70
0
 10
6.434337
 20
15.923974
 30
0.0
 10
5.429471
 20
15.717765
 30
0.0
 10
5.223978
 20
16.719378
 30
0.0
 10
6.228789
 20
16.925533
 30
0.0
 10
6.434337
 20
15.923974
 30
0.0
 10
6.434337
 20
15.923974
 30
0.0
  0
LWPOLYLINE
  5
12b
100
AcDbEntity
  8
Layer_1
 62
7
100
AcDbPolyline
 90
6
 70
0
 10
5.299274
 20
15.820732
 30
0.0
 10
4.289338
 20
15.641366
 30
0.0
 10
4.110578
 20
16.648106
 30
0.0
 10
5.120515
 20
16.827416
 30
0.0
 10
5.299274
 20
15.820732
 30
0.0
 10
5.299274
 20
15.820732
 30
0.0
  0
LWPOLYLINE
  5
12c
100
AcDbEntity
  8
Layer_1
 62
7
100
AcDbPolyline
 90
6
 70
0
 10
3.035433
 20
16.131783
 30
0.0
 10
2.780551
 20
15.138162
 30
0.0
 10
1.790183
 20
15.392162
 30
0.0
 10
2.045065
 20
16.385783
 30
0.0
 10
3.035433
 20
16.131783
 30
0.0
 10
3.035433
 20
16.131783
 30
0.0
  0
LWPOLYLINE
  5
12d
100
AcDbEntity
  8
Layer_1
 62
7
100
AcDbPolyline
 90
6
 70
0
 10
1.728391
 20
15.390233
 30
0.0
 10
0.757646
 20
15.069260
 30
0.0
 10
0.435626
 20
16.043092
 30
0.0
 10
1.406316
 20
16.364064
 30
0.0
 10
1.728391
 20
15.390233
 30
0.0
 10
1.728391
 20
15.390233
 30
0.0
  0
LWPOLYLINE
  5
12e
100
AcDbEntity
  8
Layer_1
 62
7
100
AcDbPolyline
 90
11
 70
0
 10
10.462398
 20
16.120758
 30
0.0
 10
10.890085
 20
15.528973
 30
0.0
 10
10.661594
 20
15.524061
 30
0.0
 10
10.433071
 20
15.526235
 30
0.0
 10
9.976063
 20
15.528333
 30
0.0
 10
9.927666
 20
15.533635
 30
0.0
 10
9.926413
 20
15.547578
 30
0.0
 10
9.947071
 20
15.571614
 30
0.0
 10
10.405622
 20
16.198480
 30
0.0
 10
10.462398
 20
16.120758
 30
0.0
 10
10.462398
 20
16.120758
 30
0.0
  0
LWPOLYLINE
  5
12f
100
AcDbEntity
  8
Layer_1
 62
7
100
AcDbPolyline
 90
6
 70
0
 10
9.830429
 20
15.434330
 30
0.0
 10
9.270174
 20
14.575095
 30
0.0
 10
8.413696
 20
15.133587
 30
0.0
 10
8.974006
 20
15.992821
 30
0.0
 10
9.830429
 20
15.434330
 30
0.0
 10
9.830429
 20
15.434330
 30
0.0
  0
LWPOLYLINE
  5
130
100
AcDbEntity
  8
Layer_1
 62
7
100
AcDbPolyline
 90
6
 70
0
 10
12.383603
 20
15.105750
 30
0.0
 10
11.519243
 20
14.559551
 30
0.0
 10
10.971280
 20
15.426723
 30
0.0
 10
11.835695
 20
15.972922
 30
0.0
 10
12.383603
 20
15.105750
 30
0.0
 10
12.383603
 20
15.105750
 30
0.0
  0
LWPOLYLINE
  5
131
100
AcDbEntity
  8
Layer_1
 62
7
100
AcDbPolyline
 90
6
 70
0
 10
8.323076
 20
15.044841
 30
0.0
 10
7.504907
 20
14.426047
 30
0.0
 10
6.888152
 20
15.241515
 30
0.0
 10
7.706266
 20
15.860309
 30
0.0
 10
8.323076
 20
15.044841
 30
0.0
 10
8.323076
 20
15.044841
 30
0.0
  0
LWPOLYLINE
  5
132
100
AcDbEntity
  8
Layer_1
 62
7
100
AcDbPolyline
 90
5
 70
0
 10
8.334266
 20
15.217923
 30
0.0
 10
8.092558
 20
15.537076
 30
0.0
 10
8.729377
 20
15.823433
 30
0.0
 10
8.334266
 20
15.217923
 30
0.0
 10
8.334266
 20
15.217923
 30
0.0
  0
LWPOLYLINE
  5
133
100
AcDbEntity
  8
Layer_1
 62
7
100
AcDbPolyline
 90
6
 70
0
 10
6.944707
 20
14.900809
 30
0.0
 10
6.033438
 20
14.429905
 30
0.0
 10
5.564078
 20
15.338143
 30
0.0
 10
6.475292
 20
15.809101
 30
0.0
 10
6.944707
 20
14.900809
 30
0.0
 10
6.944707
 20
14.900809
 30
0.0
  0
LWPOLYLINE
  5
134
100
AcDbEntity
  8
Layer_1
 62
7
100
AcDbPolyline
 90
6
 70
0
 10
4.280904
 20
15.056251
 30
0.0
 10
3.529708
 20
14.357751
 30
0.0
 10
2.833468
 20
15.106522
 30
0.0
 10
3.584664
 20
15.805022
 30
0.0
 10
4.280904
 20
15.056251
 30
0.0
 10
4.280904
 20
15.056251
 30
0.0
  0
LWPOLYLINE
  5
135
100
AcDbEntity
  8
Layer_1
 62
7
100
AcDbPolyline
 90
5
 70
0
 10
12.710749
 20
15.505216
 30
0.0
 10
12.468435
 20
15.183141
 30
0.0
 10
12.078726
 20
15.800006
 30
0.0
 10
12.710749
 20
15.505216
 30
0.0
 10
12.710749
 20
15.505216
 30
0.0
  0
LWPOLYLINE
  5
136
100
AcDbEntity
  8
Layer_1
 62
7
100
AcDbPolyline
 90
5
 70
0
 10
6.841189
 20
15.347403
 30
0.0
 10
6.727859
 20
15.566842
 30
0.0
 10
7.375537
 20
15.751334
 30
0.0
 10
6.841189
 20
15.347403
 30
0.0
 10
6.841189
 20
15.347403
 30
0.0
  0
LWPOLYLINE
  5
137
100
AcDbEntity
  8
Layer_1
 62
7
100
AcDbPolyline
 90
5
 70
0
 10
5.554707
 20
15.460568
 30
0.0
 10
5.490436
 20
15.615239
 30
0.0
 10
6.093355
 20
15.738931
 30
0.0
 10
5.554707
 20
15.460568
 30
0.0
 10
5.554707
 20
15.460568
 30
0.0
  0
LWPOLYLINE
  5
138
100
AcDbEntity
  8
Layer_1
 62
7
100
AcDbPolyline
 90
6
 70
0
 10
5.729057
 20
14.745862
 30
0.0
 10
4.781573
 20
14.352735
 30
0.0
 10
4.389769
 20
15.297132
 30
0.0
 10
5.337198
 20
15.690259
 30
0.0
 10
5.729057
 20
14.745862
 30
0.0
 10
5.729057
 20
14.745862
 30
0.0
  0
LWPOLYLINE
  5
139
100
AcDbEntity
  8
Layer_1
 62
7
100
AcDbPolyline
 90
6
 70
0
 10
10.912134
 20
15.409635
 30
0.0
 10
10.904693
 20
14.383934
 30
0.0
 10
9.882299
 20
14.391320
 30
0.0
 10
9.889740
 20
15.417077
 30
0.0
 10
10.912134
 20
15.409635
 30
0.0
 10
10.912134
 20
15.409635
 30
0.0
  0
LWPOLYLINE
  5
13a
100
AcDbEntity
  8
Layer_1
 62
7
100
AcDbPolyline
 90
8
 70
0
 10
2.305900
 20
14.204624
 30
0.0
 10
1.288577
 20
14.165212
 30
0.0
 10
1.280174
 20
14.258903
 30
0.0
 10
1.277073
 20
14.356792
 30
0.0
 10
1.246023
 20
15.190086
 30
0.0
 10
2.267756
 20
15.228120
 30
0.0
 10
2.305900
 20
14.204624
 30
0.0
 10
2.305900
 20
14.204624
 30
0.0
  0
LWPOLYLINE
  5
13b
100
AcDbEntity
  8
Layer_1
 62
7
100
AcDbPolyline
 90
10
 70
0
 10
9.770347
 20
14.489822
 30
0.0
 10
9.774837
 20
14.471016
 30
0.0
 10
9.770724
 20
14.453985
 30
0.0
 10
9.758568
 20
14.443738
 30
0.0
 10
9.738927
 20
14.445284
 30
0.0
 10
9.553590
 20
14.482515
 30
0.0
 10
9.368511
 20
14.519092
 30
0.0
 10
9.775308
 20
15.142792
 30
0.0
 10
9.770347
 20
14.489822
 30
0.0
 10
9.770347
 20
14.489822
 30
0.0
  0
LWPOLYLINE
  5
13c
100
AcDbEntity
  8
Layer_1
 62
7
100
AcDbPolyline
 90
5
 70
0
 10
11.416827
 20
14.510824
 30
0.0
 10
11.018188
 20
14.434646
 30
0.0
 10
11.023479
 20
15.133697
 30
0.0
 10
11.416827
 20
14.510824
 30
0.0
 10
11.416827
 20
14.510824
 30
0.0
  0
LWPOLYLINE
  5
13d
100
AcDbEntity
  8
Layer_1
 62
7
100
AcDbPolyline
 90
6
 70
0
 10
2.749463
 20
15.029407
 30
0.0
 10
3.135203
 20
14.616271
 30
0.0
 10
2.413497
 20
14.349538
 30
0.0
 10
2.384723
 20
15.122783
 30
0.0
 10
2.749463
 20
15.029407
 30
0.0
 10
2.749463
 20
15.029407
 30
0.0
  0
LWPOLYLINE
  5
13e
100
AcDbEntity
  8
Layer_1
 62
7
100
AcDbPolyline
 90
6
 70
0
 10
1.165986
 20
14.303236
 30
0.0
 10
0.430941
 20
14.513910
 30
0.0
 10
0.796342
 20
14.962986
 30
0.0
 10
1.137268
 20
15.075819
 30
0.0
 10
1.165986
 20
14.303236
 30
0.0
 10
1.165986
 20
14.303236
 30
0.0
  0
LWPOLYLINE
  5
13f
100
AcDbEntity
  8
Layer_1
 62
7
100
AcDbPolyline
 90
5
 70
0
 10
4.558165
 20
14.597805
 30
0.0
 10
3.808953
 20
14.462758
 30
0.0
 10
4.390155
 20
15.003004
 30
0.0
 10
4.558165
 20
14.597805
 30
0.0
 10
4.558165
 20
14.597805
 30
0.0
  0
LWPOLYLINE
  5
140
100
AcDbEntity
  8
Layer_1
 62
7
100
AcDbPolyline
 90
6
 70
0
 10
12.974340
 20
14.109704
 30
0.0
 10
12.105956
 20
13.570064
 30
0.0
 10
11.564607
 20
14.441260
 30
0.0
 10
12.432992
 20
14.980900
 30
0.0
 10
12.974340
 20
14.109704
 30
0.0
 10
12.974340
 20
14.109704
 30
0.0
  0
LWPOLYLINE
  5
141
100
AcDbEntity
  8
Layer_1
 62
7
100
AcDbPolyline
 90
6
 70
0
 10
9.266536
 20
14.438670
 30
0.0
 10
8.726621
 20
13.566482
 30
0.0
 10
7.857244
 20
14.104688
 30
0.0
 10
8.397159
 20
14.976876
 30
0.0
 10
9.266536
 20
14.438670
 30
0.0
 10
9.266536
 20
14.438670
 30
0.0
  0
LWPOLYLINE
  5
142
100
AcDbEntity
  8
Layer_1
 62
7
100
AcDbPolyline
 90
6
 70
0
 10
7.711833
 20
14.052543
 30
0.0
 10
6.960913
 20
13.353768
 30
0.0
 10
6.264397
 20
14.102263
 30
0.0
 10
7.015318
 20
14.801038
 30
0.0
 10
7.711833
 20
14.052543
 30
0.0
 10
7.711833
 20
14.052543
 30
0.0
  0
LWPOLYLINE
  5
143
100
AcDbEntity
  8
Layer_1
 62
7
100
AcDbPolyline
 90
5
 70
0
 10
7.762049
 20
14.164936
 30
0.0
 10
7.590345
 20
14.349207
 30
0.0
 10
8.127780
 20
14.755839
 30
0.0
 10
7.762049
 20
14.164936
 30
0.0
 10
7.762049
 20
14.164936
 30
0.0
  0
LWPOLYLINE
  5
144
100
AcDbEntity
  8
Layer_1
 62
7
100
AcDbPolyline
 90
5
 70
0
 10
6.221457
 20
14.216254
 30
0.0
 10
6.126869
 20
14.350861
 30
0.0
 10
6.665296
 20
14.629170
 30
0.0
 10
6.221457
 20
14.216254
 30
0.0
 10
6.221457
 20
14.216254
 30
0.0
  0
LWPOLYLINE
  5
145
100
AcDbEntity
  8
Layer_1
 62
7
100
AcDbPolyline
 90
6
 70
0
 10
6.381530
 20
13.789724
 30
0.0
 10
5.541588
 20
13.200916
 30
0.0
 10
4.954710
 20
14.038212
 30
0.0
 10
5.794651
 20
14.626965
 30
0.0
 10
6.381530
 20
13.789724
 30
0.0
 10
6.381530
 20
13.789724
 30
0.0
  0
LWPOLYLINE
  5
146
100
AcDbEntity
  8
Layer_1
 62
7
100
AcDbPolyline
 90
6
 70
0
 10
3.635321
 20
13.591341
 30
0.0
 10
2.673285
 20
13.235477
 30
0.0
 10
2.320287
 20
14.195088
 30
0.0
 10
3.280559
 20
14.550291
 30
0.0
 10
3.635321
 20
13.591341
 30
0.0
 10
3.635321
 20
13.591341
 30
0.0
  0
LWPOLYLINE
  5
147
100
AcDbEntity
  8
Layer_1
 62
7
100
AcDbPolyline
 90
28
 70
0
 10
4.803732
 20
14.069631
 30
0.0
 10
4.812789
 20
14.043960
 30
0.0
 10
4.831222
 20
14.016674
 30
0.0
 10
4.870895
 20
13.961619
 30
0.0
 10
5.514524
 20
13.043930
 30
0.0
 10
6.110388
 20
13.461861
 30
0.0
 10
5.617381
 20
12.926686
 30
0.0
 10
6.533114
 20
12.082831
 30
0.0
 10
5.573173
 20
11.889575
 30
0.0
 10
5.682589
 20
11.345966
 30
0.0
 10
5.501129
 20
11.870227
 30
0.0
 10
4.321473
 20
11.461831
 30
0.0
 10
4.502107
 20
10.939555
 30
0.0
 10
4.253123
 20
11.432672
 30
0.0
 10
3.839160
 20
11.223706
 30
0.0
 10
4.030983
 20
11.355282
 30
0.0
 10
3.543543
 20
12.066901
 30
0.0
 10
4.338506
 20
11.730769
 30
0.0
 10
4.824568
 20
12.880715
 30
0.0
 10
4.000721
 20
13.228752
 30
0.0
 10
4.880461
 20
13.387502
 30
0.0
 10
4.730145
 20
14.230862
 30
0.0
 10
4.764335
 20
14.224897
 30
0.0
 10
4.797967
 20
14.235530
 30
0.0
 10
4.864273
 20
14.264927
 30
0.0
 10
5.397501
 20
14.486239
 30
0.0
 10
4.803732
 20
14.069631
 30
0.0
 10
4.803732
 20
14.069631
 30
0.0
  0
LWPOLYLINE
  5
148
100
AcDbEntity
  8
Layer_1
 62
7
100
AcDbPolyline
 90
6
 70
0
 10
4.748775
 20
13.478342
 30
0.0
 10
3.739225
 20
13.296772
 30
0.0
 10
3.558261
 20
14.303071
 30
0.0
 10
4.567811
 20
14.484641
 30
0.0
 10
4.748775
 20
13.478342
 30
0.0
 10
4.748775
 20
13.478342
 30
0.0
  0
LWPOLYLINE
  5
149
100
AcDbEntity
  8
Layer_1
 62
7
100
AcDbPolyline
 90
6
 70
0
 10
11.660078
 20
13.396101
 30
0.0
 10
10.655157
 20
13.207861
 30
0.0
 10
10.466311
 20
14.216034
 30
0.0
 10
11.471232
 20
14.404329
 30
0.0
 10
11.660078
 20
13.396101
 30
0.0
 10
11.660078
 20
13.396101
 30
0.0
  0
LWPOLYLINE
  5
14a
100
AcDbEntity
  8
Layer_1
 62
7
100
AcDbPolyline
 90
6
 70
0
 10
10.365604
 20
14.216309
 30
0.0
 10
10.178356
 20
13.207806
 30
0.0
 10
9.173105
 20
13.394447
 30
0.0
 10
9.360353
 20
14.402951
 30
0.0
 10
10.365604
 20
14.216309
 30
0.0
 10
10.365604
 20
14.216309
 30
0.0
  0
LWPOLYLINE
  5
14b
100
AcDbEntity
  8
Layer_1
 62
7
100
AcDbPolyline
 90
4
 70
0
 10
2.306340
 20
14.193158
 30
0.0
 10
2.305288
 20
14.196225
 30
0.0
 10
2.306340
 20
14.193158
 30
0.0
 10
2.306340
 20
14.193158
 30
0.0
  0
LWPOLYLINE
  5
14c
100
AcDbEntity
  8
Layer_1
 62
7
100
AcDbPolyline
 90
4
 70
0
 10
2.312073
 20
14.191561
 30
0.0
 10
2.309497
 20
14.190556
 30
0.0
 10
2.312073
 20
14.191561
 30
0.0
 10
2.312073
 20
14.191561
 30
0.0
  0
LWPOLYLINE
  5
14d
100
AcDbEntity
  8
Layer_1
 62
7
100
AcDbPolyline
 90
4
 70
0
 10
1.286978
 20
14.155677
 30
0.0
 10
1.284205
 20
14.158689
 30
0.0
 10
1.286978
 20
14.155677
 30
0.0
 10
1.286978
 20
14.155677
 30
0.0
  0
LWPOLYLINE
  5
14e
100
AcDbEntity
  8
Layer_1
 62
7
100
AcDbPolyline
 90
6
 70
0
 10
2.550033
 20
13.433199
 30
0.0
 10
1.854399
 20
12.683932
 30
0.0
 10
1.102707
 20
13.381881
 30
0.0
 10
1.798341
 20
14.131148
 30
0.0
 10
2.550033
 20
13.433199
 30
0.0
 10
2.550033
 20
13.433199
 30
0.0
  0
LWPOLYLINE
  5
14f
100
AcDbEntity
  8
Layer_1
 62
7
100
AcDbPolyline
 90
6
 70
0
 10
12.013573
 20
13.505077
 30
0.0
 10
11.891475
 20
13.467613
 30
0.0
 10
11.768006
 20
13.434742
 30
0.0
 10
11.643266
 20
14.100776
 30
0.0
 10
12.013573
 20
13.505077
 30
0.0
 10
12.013573
 20
13.505077
 30
0.0
  0
LWPOLYLINE
  5
150
100
AcDbEntity
  8
Layer_1
 62
7
100
AcDbPolyline
 90
6
 70
0
 10
9.163569
 20
13.959002
 30
0.0
 10
9.065728
 20
13.434907
 30
0.0
 10
8.820382
 20
13.503367
 30
0.0
 10
9.189476
 20
14.099341
 30
0.0
 10
9.163569
 20
13.959002
 30
0.0
 10
9.163569
 20
13.959002
 30
0.0
  0
LWPOLYLINE
  5
151
100
AcDbEntity
  8
Layer_1
 62
7
100
AcDbPolyline
 90
5
 70
0
 10
2.356612
 20
13.767400
 30
0.0
 10
2.020536
 20
14.079663
 30
0.0
 10
2.237935
 20
14.087821
 30
0.0
 10
2.356612
 20
13.767400
 30
0.0
 10
2.356612
 20
13.767400
 30
0.0
  0
LWPOLYLINE
  5
152
100
AcDbEntity
  8
Layer_1
 62
7
100
AcDbPolyline
 90
5
 70
0
 10
1.266253
 20
13.723743
 30
0.0
 10
1.361062
 20
14.054417
 30
0.0
 10
1.581217
 20
14.062631
 30
0.0
 10
1.266253
 20
13.723743
 30
0.0
 10
1.266253
 20
13.723743
 30
0.0
  0
LWPOLYLINE
  5
153
100
AcDbEntity
  8
Layer_1
 62
7
100
AcDbPolyline
 90
6
 70
0
 10
8.678610
 20
13.441687
 30
0.0
 10
8.143655
 20
12.566522
 30
0.0
 10
7.271247
 20
13.099768
 30
0.0
 10
7.806256
 20
13.974987
 30
0.0
 10
8.678610
 20
13.441687
 30
0.0
 10
8.678610
 20
13.441687
 30
0.0
  0
LWPOLYLINE
  5
154
100
AcDbEntity
  8
Layer_1
 62
7
100
AcDbPolyline
 90
5
 70
0
 10
10.539623
 20
13.211720
 30
0.0
 10
10.294167
 20
13.212380
 30
0.0
 10
10.416261
 20
13.870311
 30
0.0
 10
10.539623
 20
13.211718
 30
0.0
 10
10.539623
 20
13.211720
 30
0.0
  0
LWPOLYLINE
  5
155
100
AcDbEntity
  8
Layer_1
 62
7
100
AcDbPolyline
 90
5
 70
0
 10
7.188675
 20
13.180962
 30
0.0
 10
7.064486
 20
13.295339
 30
0.0
 10
7.515490
 20
13.715144
 30
0.0
 10
7.188675
 20
13.180962
 30
0.0
 10
7.188675
 20
13.180962
 30
0.0
  0
LWPOLYLINE
  5
156
100
AcDbEntity
  8
Layer_1
 62
7
100
AcDbPolyline
 90
6
 70
0
 10
7.223677
 20
12.995037
 30
0.0
 10
6.528925
 20
12.240423
 30
0.0
 10
5.776737
 20
12.932915
 30
0.0
 10
6.471489
 20
13.687528
 30
0.0
 10
7.223677
 20
12.995037
 30
0.0
 10
7.223677
 20
12.995037
 30
0.0
  0
LWPOLYLINE
  5
157
100
AcDbEntity
  8
Layer_1
 62
7
100
AcDbPolyline
 90
6
 70
0
 10
3.629257
 20
13.271251
 30
0.0
 10
3.324601
 20
12.547285
 30
0.0
 10
2.837492
 20
13.175780
 30
0.0
 10
3.596129
 20
13.456404
 30
0.0
 10
3.629257
 20
13.271251
 30
0.0
 10
3.629257
 20
13.271251
 30
0.0
  0
LWPOLYLINE
  5
158
100
AcDbEntity
  8
Layer_1
 62
7
100
AcDbPolyline
 90
6
 70
0
 10
9.774701
 20
13.116304
 30
0.0
 10
9.497164
 20
12.128857
 30
0.0
 10
8.512859
 20
12.405512
 30
0.0
 10
8.790451
 20
13.392959
 30
0.0
 10
9.774701
 20
13.116304
 30
0.0
 10
9.774701
 20
13.116304
 30
0.0
  0
LWPOLYLINE
  5
159
100
AcDbEntity
  8
Layer_1
 62
7
100
AcDbPolyline
 90
6
 70
0
 10
12.299653
 20
12.400165
 30
0.0
 10
11.314686
 20
12.125770
 30
0.0
 10
11.039354
 20
13.113934
 30
0.0
 10
12.024376
 20
13.388329
 30
0.0
 10
12.299653
 20
12.400165
 30
0.0
 10
12.299653
 20
12.400165
 30
0.0
  0
LWPOLYLINE
  5
15a
100
AcDbEntity
  8
Layer_1
 62
7
100
AcDbPolyline
 90
7
 70
0
 10
0.823075
 20
13.103350
 30
0.0
 10
0.385686
 20
12.457381
 30
0.0
 10
0.293728
 20
12.641078
 30
0.0
 10
0.206155
 20
12.825924
 30
0.0
 10
0.206155
 20
13.279684
 30
0.0
 10
0.823075
 20
13.103350
 30
0.0
 10
0.823075
 20
13.103350
 30
0.0
  0
LWPOLYLINE
  5
15b
100
AcDbEntity
  8
Layer_1
 62
7
100
AcDbPolyline
 90
6
 70
0
 10
4.676125
 20
12.820798
 30
0.0
 10
4.278258
 20
11.878991
 30
0.0
 10
3.333365
 20
12.278126
 30
0.0
 10
3.731232
 20
13.219988
 30
0.0
 10
4.676125
 20
12.820798
 30
0.0
 10
4.676125
 20
12.820798
 30
0.0
  0
LWPOLYLINE
  5
15c
100
AcDbEntity
  8
Layer_1
 62
7
100
AcDbPolyline
 90
5
 70
0
 10
1.122110
 20
13.211720
 30
0.0
 10
1.131593
 20
13.204146
 30
0.0
 10
1.127913
 20
13.205603
 30
0.0
 10
1.122110
 20
13.211720
 30
0.0
 10
1.122110
 20
13.211720
 30
0.0
  0
LWPOLYLINE
  5
15d
100
AcDbEntity
  8
Layer_1
 62
7
100
AcDbPolyline
 90
9
 70
0
 10
3.294780
 20
12.401378
 30
0.0
 10
2.486643
 20
11.774922
 30
0.0
 10
1.859470
 20
12.583941
 30
0.0
 10
2.631688
 20
13.185286
 30
0.0
 10
2.657248
 20
13.206397
 30
0.0
 10
2.678910
 20
13.196728
 30
0.0
 10
2.718158
 20
13.145191
 30
0.0
 10
3.294780
 20
12.401378
 30
0.0
 10
3.294780
 20
12.401378
 30
0.0
  0
LWPOLYLINE
  5
15e
100
AcDbEntity
  8
Layer_1
 62
7
100
AcDbPolyline
 90
7
 70
0
 10
1.000457
 20
13.154944
 30
0.0
 10
1.842107
 20
12.583389
 30
0.0
 10
1.267686
 20
11.735290
 30
0.0
 10
0.421129
 20
12.308608
 30
0.0
 10
0.995275
 20
13.156377
 30
0.0
 10
1.000457
 20
13.154944
 30
0.0
 10
1.000457
 20
13.154944
 30
0.0
  0
LWPOLYLINE
  5
15f
100
AcDbEntity
  8
Layer_1
 62
7
100
AcDbPolyline
 90
6
 70
0
 10
10.918363
 20
13.098169
 30
0.0
 10
10.916379
 20
12.072358
 30
0.0
 10
9.893930
 20
12.074452
 30
0.0
 10
9.895970
 20
13.100208
 30
0.0
 10
10.918365
 20
13.098168
 30
0.0
 10
10.918363
 20
13.098169
 30
0.0
  0
LWPOLYLINE
  5
160
100
AcDbEntity
  8
Layer_1
 62
7
100
AcDbPolyline
 90
17
 70
0
 10
8.375772
 20
12.333799
 30
0.0
 10
8.396862
 20
12.319920
 30
0.0
 10
8.426963
 20
12.311075
 30
0.0
 10
8.489310
 20
12.294579
 30
0.0
 10
8.910396
 20
12.176372
 30
0.0
 10
8.188524
 20
12.225099
 30
0.0
 10
8.151317
 20
11.679947
 30
0.0
 10
8.115819
 20
12.225651
 30
0.0
 10
6.870568
 20
12.144898
 30
0.0
 10
6.906177
 20
11.593517
 30
0.0
 10
6.797202
 20
12.136023
 30
0.0
 10
6.540170
 20
12.085917
 30
0.0
 10
7.322455
 20
12.933576
 30
0.0
 10
8.181028
 20
12.411300
 30
0.0
 10
8.581816
 20
13.066530
 30
0.0
 10
8.375772
 20
12.333799
 30
0.0
 10
8.375772
 20
12.333799
 30
0.0
  0
LWPOLYLINE
  5
161
100
AcDbEntity
  8
Layer_1
 62
7
100
AcDbPolyline
 90
5
 70
0
 10
9.781371
 20
12.076051
 30
0.0
 10
9.609723
 20
12.110446
 30
0.0
 10
9.782529
 20
12.725878
 30
0.0
 10
9.781371
 20
12.076051
 30
0.0
 10
9.781371
 20
12.076051
 30
0.0
  0
LWPOLYLINE
  5
162
100
AcDbEntity
  8
Layer_1
 62
7
100
AcDbPolyline
 90
10
 70
0
 10
1.919167
 20
12.323491
 30
0.0
 10
2.365431
 20
11.751716
 30
0.0
 10
1.960684
 20
11.733202
 30
0.0
 10
1.555710
 20
11.721896
 30
0.0
 10
1.474653
 20
11.717039
 30
0.0
 10
1.393528
 20
11.718312
 30
0.0
 10
1.855226
 20
12.398401
 30
0.0
 10
1.887360
 20
12.364460
 30
0.0
 10
1.919167
 20
12.323491
 30
0.0
 10
1.919167
 20
12.323491
 30
0.0
  0
LWPOLYLINE
  5
163
100
AcDbEntity
  8
Layer_1
 62
7
100
AcDbPolyline
 90
6
 70
0
 10
3.873721
 20
11.384441
 30
0.0
 10
3.030307
 20
10.806492
 30
0.0
 10
2.450484
 20
11.652662
 30
0.0
 10
3.293953
 20
12.230612
 30
0.0
 10
3.873721
 20
11.384441
 30
0.0
 10
3.873721
 20
11.384441
 30
0.0
  0
LWPOLYLINE
  5
164
100
AcDbEntity
  8
Layer_1
 62
7
100
AcDbPolyline
 90
6
 70
0
 10
8.076517
 20
11.082155
 30
0.0
 10
7.056218
 20
11.016339
 30
0.0
 10
6.990182
 20
12.039946
 30
0.0
 10
8.010482
 20
12.105761
 30
0.0
 10
8.076517
 20
11.082155
 30
0.0
 10
8.076517
 20
11.082155
 30
0.0
  0
LWPOLYLINE
  5
165
100
AcDbEntity
  8
Layer_1
 62
7
100
AcDbPolyline
 90
6
 70
0
 10
9.313224
 20
12.035922
 30
0.0
 10
9.243771
 20
11.012536
 30
0.0
 10
8.223747
 20
11.081713
 30
0.0
 10
8.293145
 20
12.105100
 30
0.0
 10
9.313224
 20
12.035922
 30
0.0
 10
9.313224
 20
12.035922
 30
0.0
  0
LWPOLYLINE
  5
166
100
AcDbEntity
  8
Layer_1
 62
7
100
AcDbPolyline
 90
9
 70
0
 10
9.432231
 20
12.031843
 30
0.0
 10
9.468937
 20
12.020443
 30
0.0
 10
9.481402
 20
12.010516
 30
0.0
 10
9.478444
 20
11.992912
 30
0.0
 10
9.396513
 20
11.590540
 30
0.0
 10
9.429200
 20
12.031733
 30
0.0
 10
9.432010
 20
12.031846
 30
0.0
 10
9.432236
 20
12.031846
 30
0.0
 10
9.432231
 20
12.031843
 30
0.0
  0
LWPOLYLINE
  5
167
100
AcDbEntity
  8
Layer_1
 62
7
100
AcDbPolyline
 90
6
 70
0
 10
6.910587
 20
10.997212
 30
0.0
 10
5.908147
 20
10.795688
 30
0.0
 10
5.705961
 20
11.801380
 30
0.0
 10
6.708401
 20
12.002905
 30
0.0
 10
6.910587
 20
10.997212
 30
0.0
 10
6.910587
 20
10.997212
 30
0.0
  0
LWPOLYLINE
  5
168
100
AcDbEntity
  8
Layer_1
 62
7
100
AcDbPolyline
 90
6
 70
0
 10
10.596177
 20
11.794104
 30
0.0
 10
10.391346
 20
10.789018
 30
0.0
 10
9.389512
 20
10.993188
 30
0.0
 10
9.594344
 20
11.998274
 30
0.0
 10
10.596177
 20
11.794104
 30
0.0
 10
10.596177
 20
11.794104
 30
0.0
  0
LWPOLYLINE
  5
169
100
AcDbEntity
  8
Layer_1
 62
7
100
AcDbPolyline
 90
6
 70
0
 10
5.766539
 20
10.757158
 30
0.0
 10
4.800314
 20
10.422791
 30
0.0
 10
4.464900
 20
11.392158
 30
0.0
 10
5.431125
 20
11.726470
 30
0.0
 10
5.766539
 20
10.757158
 30
0.0
 10
5.766539
 20
10.757158
 30
0.0
  0
LWPOLYLINE
  5
16a
100
AcDbEntity
  8
Layer_1
 62
7
100
AcDbPolyline
 90
6
 70
0
 10
11.836302
 20
11.381905
 30
0.0
 10
11.498352
 20
10.413420
 30
0.0
 10
10.533008
 20
10.750213
 30
0.0
 10
10.870903
 20
11.718698
 30
0.0
 10
11.836302
 20
11.381905
 30
0.0
 10
11.836302
 20
11.381905
 30
0.0
  0
LWPOLYLINE
  5
16b
100
AcDbEntity
  8
Layer_1
 62
7
100
AcDbPolyline
 90
6
 70
0
 10
2.422812
 20
10.607999
 30
0.0
 10
1.400804
 20
10.577407
 30
0.0
 10
1.370101
 20
11.602667
 30
0.0
 10
2.392054
 20
11.633259
 30
0.0
 10
2.422812
 20
10.607999
 30
0.0
 10
2.422812
 20
10.607999
 30
0.0
  0
LWPOLYLINE
  5
16c
100
AcDbEntity
  8
Layer_1
 62
7
100
AcDbPolyline
 90
7
 70
0
 10
11.966609
 20
11.411064
 30
0.0
 10
11.967404
 20
11.361034
 30
0.0
 10
11.992516
 20
11.318240
 30
0.0
 10
11.796945
 20
10.925389
 30
0.0
 10
11.967325
 20
11.414151
 30
0.0
 10
11.966608
 20
11.411064
 30
0.0
 10
11.966609
 20
11.411064
 30
0.0
  0
LWPOLYLINE
  5
16d
100
AcDbEntity
  8
Layer_1
 62
7
100
AcDbPolyline
 90
20
 70
0
 10
2.939742
 20
10.739299
 30
0.0
 10
2.046167
 20
10.125851
 30
0.0
 10
2.356722
 20
9.673193
 30
0.0
 10
1.988455
 20
10.080762
 30
0.0
 10
1.062082
 20
9.243796
 30
0.0
 10
1.430184
 20
8.836228
 30
0.0
 10
1.011205
 20
9.191100
 30
0.0
 10
0.207423
 20
8.242734
 30
0.0
 10
0.206100
 20
10.952288
 30
0.0
 10
0.821257
 20
10.582974
 30
0.0
 10
1.265646
 20
11.323256
 30
0.0
 10
1.291719
 20
10.460990
 30
0.0
 10
2.410904
 20
10.493591
 30
0.0
 10
2.450866
 20
10.493651
 30
0.0
 10
2.491394
 20
10.503244
 30
0.0
 10
2.523332
 20
10.525146
 30
0.0
 10
2.537529
 20
10.562135
 30
0.0
 10
2.513488
 20
11.361014
 30
0.0
 10
2.939742
 20
10.739299
 30
0.0
 10
2.939742
 20
10.739299
 30
0.0
  0
LWPOLYLINE
  5
16e
100
AcDbEntity
  8
Layer_1
 62
7
100
AcDbPolyline
 90
6
 70
0
 10
4.665156
 20
10.365409
 30
0.0
 10
3.752509
 20
9.904483
 30
0.0
 10
3.290095
 20
10.820107
 30
0.0
 10
4.202742
 20
11.280978
 30
0.0
 10
4.665156
 20
10.365409
 30
0.0
 10
4.665156
 20
10.365409
 30
0.0
  0
LWPOLYLINE
  5
16f
100
AcDbEntity
  8
Layer_1
 62
7
100
AcDbPolyline
 90
6
 70
0
 10
13.009729
 20
10.806767
 30
0.0
 10
12.544834
 20
9.892411
 30
0.0
 10
11.633399
 20
10.355763
 30
0.0
 10
12.098294
 20
11.270119
 30
0.0
 10
13.009729
 20
10.806767
 30
0.0
 10
13.009729
 20
10.806767
 30
0.0
  0
LWPOLYLINE
  5
170
100
AcDbEntity
  8
Layer_1
 62
7
100
AcDbPolyline
 90
6
 70
0
 10
8.673759
 20
10.954879
 30
0.0
 10
8.670397
 20
9.929122
 30
0.0
 10
7.647948
 20
9.932485
 30
0.0
 10
7.651310
 20
10.958241
 30
0.0
 10
8.673759
 20
10.954879
 30
0.0
 10
8.673759
 20
10.954879
 30
0.0
  0
LWPOLYLINE
  5
171
100
AcDbEntity
  8
Layer_1
 62
7
100
AcDbPolyline
 90
4
 70
0
 10
9.310523
 20
10.954162
 30
0.0
 10
9.309009
 20
10.953016
 30
0.0
 10
9.310523
 20
10.954162
 30
0.0
 10
9.310523
 20
10.954162
 30
0.0
  0
LWPOLYLINE
  5
172
100
AcDbEntity
  8
Layer_1
 62
7
100
AcDbPolyline
 90
6
 70
0
 10
7.503970
 20
9.922342
 30
0.0
 10
6.492986
 20
9.770041
 30
0.0
 10
6.340244
 20
10.784332
 30
0.0
 10
7.351228
 20
10.936578
 30
0.0
 10
7.503970
 20
9.922342
 30
0.0
 10
7.503970
 20
9.922342
 30
0.0
  0
LWPOLYLINE
  5
173
100
AcDbEntity
  8
Layer_1
 62
7
100
AcDbPolyline
 90
8
 70
0
 10
7.537208
 20
10.464958
 30
0.0
 10
7.467369
 20
10.929467
 30
0.0
 10
7.501745
 20
10.934119
 30
0.0
 10
7.528092
 20
10.930243
 30
0.0
 10
7.541852
 20
10.912998
 30
0.0
 10
7.538469
 20
10.877543
 30
0.0
 10
7.537207
 20
10.464958
 30
0.0
 10
7.537208
 20
10.464958
 30
0.0
  0
LWPOLYLINE
  5
174
100
AcDbEntity
  8
Layer_1
 62
7
100
AcDbPolyline
 90
6
 70
0
 10
9.983116
 20
10.773584
 30
0.0
 10
9.824641
 20
9.760120
 30
0.0
 10
8.814429
 20
9.918098
 30
0.0
 10
8.972904
 20
10.931562
 30
0.0
 10
9.983116
 20
10.773584
 30
0.0
 10
9.983116
 20
10.773584
 30
0.0
  0
LWPOLYLINE
  5
175
100
AcDbEntity
  8
Layer_1
 62
7
100
AcDbPolyline
 90
8
 70
0
 10
8.801365
 20
10.931286
 30
0.0
 10
8.841601
 20
10.926926
 30
0.0
 10
8.856140
 20
10.920536
 30
0.0
 10
8.854489
 20
10.902546
 30
0.0
 10
8.785270
 20
10.459281
 30
0.0
 10
8.787254
 20
10.927979
 30
0.0
 10
8.801365
 20
10.931286
 30
0.0
 10
8.801365
 20
10.931286
 30
0.0
  0
LWPOLYLINE
  5
176
100
AcDbEntity
  8
Layer_1
 62
7
100
AcDbPolyline
 90
9
 70
0
 10
3.308836
 20
10.532924
 30
0.0
 10
3.387715
 20
10.377040
 30
0.0
 10
3.136857
 20
10.742330
 30
0.0
 10
3.165001
 20
10.765409
 30
0.0
 10
3.187130
 20
10.765155
 30
0.0
 10
3.204439
 20
10.746208
 30
0.0
 10
3.218124
 20
10.713203
 30
0.0
 10
3.308836
 20
10.532924
 30
0.0
 10
3.308836
 20
10.532924
 30
0.0
  0
LWPOLYLINE
  5
177
100
AcDbEntity
  8
Layer_1
 62
7
100
AcDbPolyline
 90
9
 70
0
 10
6.273768
 20
10.467439
 30
0.0
 10
6.303258
 20
10.272750
 30
0.0
 10
6.159556
 20
10.731141
 30
0.0
 10
6.193399
 20
10.740262
 30
0.0
 10
6.220952
 20
10.740421
 30
0.0
 10
6.237999
 20
10.725610
 30
0.0
 10
6.240325
 20
10.689821
 30
0.0
 10
6.273768
 20
10.467439
 30
0.0
 10
6.273768
 20
10.467439
 30
0.0
  0
LWPOLYLINE
  5
178
100
AcDbEntity
  8
Layer_1
 62
7
100
AcDbPolyline
 90
6
 70
0
 10
5.853466
 20
10.732298
 30
0.0
 10
5.849494
 20
10.728631
 30
0.0
 10
5.847453
 20
10.732137
 30
0.0
 10
5.848419
 20
10.735723
 30
0.0
 10
5.853466
 20
10.732298
 30
0.0
 10
5.853466
 20
10.732298
 30
0.0
  0
LWPOLYLINE
  5
179
100
AcDbEntity
  8
Layer_1
 62
7
100
AcDbPolyline
 90
7
 70
0
 10
10.104824
 20
10.733455
 30
0.0
 10
10.163418
 20
10.718517
 30
0.0
 10
10.017456
 20
10.261174
 30
0.0
 10
10.089886
 20
10.725132
 30
0.0
 10
10.095693
 20
10.732741
 30
0.0
 10
10.104824
 20
10.733455
 30
0.0
 10
10.104824
 20
10.733455
 30
0.0
  0
LWPOLYLINE
  5
17a
100
AcDbEntity
  8
Layer_1
 62
7
100
AcDbPolyline
 90
6
 70
0
 10
6.352537
 20
9.737740
 30
0.0
 10
5.376941
 20
9.431760
 30
0.0
 10
5.069969
 20
10.410553
 30
0.0
 10
6.045565
 20
10.716533
 30
0.0
 10
6.352537
 20
9.737740
 30
0.0
 10
6.352537
 20
9.737740
 30
0.0
  0
LWPOLYLINE
  5
17b
100
AcDbEntity
  8
Layer_1
 62
7
100
AcDbPolyline
 90
6
 70
0
 10
11.251021
 20
10.393190
 30
0.0
 10
10.938923
 20
9.416106
 30
0.0
 10
9.964981
 20
9.727212
 30
0.0
 10
10.277079
 20
10.704296
 30
0.0
 10
11.251021
 20
10.393190
 30
0.0
 10
11.251021
 20
10.393190
 30
0.0
  0
LWPOLYLINE
  5
17c
100
AcDbEntity
  8
Layer_1
 62
7
100
AcDbPolyline
 90
6
 70
0
 10
3.626115
 20
9.829518
 30
0.0
 10
2.783032
 20
9.251072
 30
0.0
 10
2.202712
 20
10.096857
 30
0.0
 10
3.045796
 20
10.675358
 30
0.0
 10
3.626115
 20
9.829518
 30
0.0
 10
3.626115
 20
9.829518
 30
0.0
  0
LWPOLYLINE
  5
17d
100
AcDbEntity
  8
Layer_1
 62
7
100
AcDbPolyline
 90
8
 70
0
 10
5.112357
 20
9.899798
 30
0.0
 10
4.896722
 20
10.336526
 30
0.0
 10
4.929267
 20
10.350089
 30
0.0
 10
4.957112
 20
10.354335
 30
0.0
 10
4.976769
 20
10.342356
 30
0.0
 10
4.984753
 20
10.307245
 30
0.0
 10
5.112357
 20
9.899798
 30
0.0
 10
5.112357
 20
9.899798
 30
0.0
  0
LWPOLYLINE
  5
17e
100
AcDbEntity
  8
Layer_1
 62
7
100
AcDbPolyline
 90
6
 70
0
 10
11.360217
 20
10.342589
 30
0.0
 10
11.425095
 20
10.318501
 30
0.0
 10
11.206814
 20
9.882214
 30
0.0
 10
11.354980
 20
10.343361
 30
0.0
 10
11.360217
 20
10.342590
 30
0.0
 10
11.360217
 20
10.342589
 30
0.0
  0
LWPOLYLINE
  5
17f
100
AcDbEntity
  8
Layer_1
 62
7
100
AcDbPolyline
 90
6
 70
0
 10
5.243160
 20
9.378017
 30
0.0
 10
4.326214
 20
8.925855
 30
0.0
 10
3.872564
 20
9.845834
 30
0.0
 10
4.789566
 20
10.297996
 30
0.0
 10
5.243160
 20
9.378017
 30
0.0
 10
5.243160
 20
9.378017
 30
0.0
  0
LWPOLYLINE
  5
180
100
AcDbEntity
  8
Layer_1
 62
7
100
AcDbPolyline
 90
6
 70
0
 10
12.445670
 20
9.821966
 30
0.0
 10
11.986893
 20
8.904468
 30
0.0
 10
11.072317
 20
9.361756
 30
0.0
 10
11.531094
 20
10.279254
 30
0.0
 10
12.445670
 20
9.821966
 30
0.0
 10
12.445670
 20
9.821966
 30
0.0
  0
LWPOLYLINE
  5
181
100
AcDbEntity
  8
Layer_1
 62
7
100
AcDbPolyline
 90
6
 70
0
 10
2.667662
 20
9.159901
 30
0.0
 10
1.908859
 20
8.474686
 30
0.0
 10
1.221384
 20
9.235914
 30
0.0
 10
1.980187
 20
9.921185
 30
0.0
 10
2.667662
 20
9.159901
 30
0.0
 10
2.667662
 20
9.159901
 30
0.0
  0
LWPOLYLINE
  5
182
100
AcDbEntity
  8
Layer_1
 62
7
100
AcDbPolyline
 90
6
 70
0
 10
9.329981
 20
9.751410
 30
0.0
 10
9.237211
 20
8.729843
 30
0.0
 10
8.218841
 20
8.822392
 30
0.0
 10
8.311721
 20
9.843905
 30
0.0
 10
9.329981
 20
9.751410
 30
0.0
 10
9.329981
 20
9.751410
 30
0.0
  0
LWPOLYLINE
  5
183
100
AcDbEntity
  8
Layer_1
 62
7
100
AcDbPolyline
 90
6
 70
0
 10
8.078171
 20
8.821896
 30
0.0
 10
7.059691
 20
8.731276
 30
0.0
 10
6.968795
 20
9.753064
 30
0.0
 10
7.987275
 20
9.843684
 30
0.0
 10
8.078171
 20
8.821896
 30
0.0
 10
8.078171
 20
8.821896
 30
0.0
  0
LWPOLYLINE
  5
184
100
AcDbEntity
  8
Layer_1
 62
7
100
AcDbPolyline
 90
8
 70
0
 10
8.125520
 20
9.819100
 30
0.0
 10
8.196352
 20
9.816896
 30
0.0
 10
8.149167
 20
9.297706
 30
0.0
 10
8.106173
 20
9.777153
 30
0.0
 10
8.102675
 20
9.807063
 30
0.0
 10
8.108884
 20
9.817617
 30
0.0
 10
8.125520
 20
9.819100
 30
0.0
 10
8.125520
 20
9.819100
 30
0.0
  0
LWPOLYLINE
  5
185
100
AcDbEntity
  8
Layer_1
 62
7
100
AcDbPolyline
 90
8
 70
0
 10
3.803496
 20
9.727377
 30
0.0
 10
3.993666
 20
9.345716
 30
0.0
 10
3.852957
 20
9.547871
 30
0.0
 10
3.706924
 20
9.746119
 30
0.0
 10
3.737403
 20
9.770520
 30
0.0
 10
3.772243
 20
9.787680
 30
0.0
 10
3.803496
 20
9.727377
 30
0.0
 10
3.803496
 20
9.727377
 30
0.0
  0
LWPOLYLINE
  5
186
100
AcDbEntity
  8
Layer_1
 62
7
100
AcDbPolyline
 90
6
 70
0
 10
12.548472
 20
9.767175
 30
0.0
 10
12.604916
 20
9.722692
 30
0.0
 10
12.323300
 20
9.324329
 30
0.0
 10
12.543897
 20
9.768939
 30
0.0
 10
12.548472
 20
9.767175
 30
0.0
 10
12.548472
 20
9.767175
 30
0.0
  0
LWPOLYLINE
  5
187
100
AcDbEntity
  8
Layer_1
 62
7
100
AcDbPolyline
 90
7
 70
0
 10
6.906232
 20
9.188675
 30
0.0
 10
6.767436
 20
9.696840
 30
0.0
 10
6.832685
 20
9.708579
 30
0.0
 10
6.857912
 20
9.705031
 30
0.0
 10
6.862892
 20
9.675702
 30
0.0
 10
6.906232
 20
9.188675
 30
0.0
 10
6.906232
 20
9.188675
 30
0.0
  0
LWPOLYLINE
  5
188
100
AcDbEntity
  8
Layer_1
 62
7
100
AcDbPolyline
 90
7
 70
0
 10
9.451634
 20
9.704667
 30
0.0
 10
9.533434
 20
9.690777
 30
0.0
 10
9.391717
 20
9.182446
 30
0.0
 10
9.438295
 20
9.690777
 30
0.0
 10
9.441787
 20
9.701975
 30
0.0
 10
9.451634
 20
9.704667
 30
0.0
 10
9.451634
 20
9.704667
 30
0.0
  0
LWPOLYLINE
  5
189
100
AcDbEntity
  8
Layer_1
 62
7
100
AcDbPolyline
 90
6
 70
0
 10
6.920839
 20
8.706637
 30
0.0
 10
5.934495
 20
8.437313
 30
0.0
 10
5.664289
 20
9.426910
 30
0.0
 10
6.650689
 20
9.696179
 30
0.0
 10
6.920839
 20
8.706637
 30
0.0
 10
6.920839
 20
8.706637
 30
0.0
  0
LWPOLYLINE
  5
18a
100
AcDbEntity
  8
Layer_1
 62
7
100
AcDbPolyline
 90
6
 70
0
 10
10.635424
 20
9.418697
 30
0.0
 10
10.360423
 20
8.430423
 30
0.0
 10
9.375346
 20
8.704542
 30
0.0
 10
9.650402
 20
9.692816
 30
0.0
 10
10.635424
 20
9.418697
 30
0.0
 10
10.635424
 20
9.418697
 30
0.0
  0
LWPOLYLINE
  5
18b
100
AcDbEntity
  8
Layer_1
 62
7
100
AcDbPolyline
 90
6
 70
0
 10
4.202135
 20
8.852158
 30
0.0
 10
3.364950
 20
8.265169
 30
0.0
 10
2.776086
 20
9.105111
 30
0.0
 10
3.613272
 20
9.692045
 30
0.0
 10
4.202135
 20
8.852158
 30
0.0
 10
4.202135
 20
8.852158
 30
0.0
  0
LWPOLYLINE
  5
18c
100
AcDbEntity
  8
Layer_1
 62
7
100
AcDbPolyline
 90
9
 70
0
 10
5.642295
 20
9.080747
 30
0.0
 10
5.703150
 20
8.858001
 30
0.0
 10
5.470868
 20
9.342960
 30
0.0
 10
5.534893
 20
9.364902
 30
0.0
 10
5.561257
 20
9.365540
 30
0.0
 10
5.569156
 20
9.356193
 30
0.0
 10
5.572057
 20
9.337704
 30
0.0
 10
5.642295
 20
9.080747
 30
0.0
 10
5.642295
 20
9.080747
 30
0.0
  0
LWPOLYLINE
  5
18d
100
AcDbEntity
  8
Layer_1
 62
7
100
AcDbPolyline
 90
6
 70
0
 10
10.748533
 20
9.359552
 30
0.0
 10
10.827908
 20
9.331274
 30
0.0
 10
10.594414
 20
8.849567
 30
0.0
 10
10.737840
 20
9.356961
 30
0.0
 10
10.748533
 20
9.359552
 30
0.0
 10
10.748533
 20
9.359552
 30
0.0
  0
LWPOLYLINE
  5
18e
100
AcDbEntity
  8
Layer_1
 62
7
100
AcDbPolyline
 90
6
 70
0
 10
5.802699
 20
8.388420
 30
0.0
 10
4.880626
 20
7.946511
 30
0.0
 10
4.437284
 20
8.871561
 30
0.0
 10
5.359357
 20
9.313470
 30
0.0
 10
5.802699
 20
8.388420
 30
0.0
 10
5.802699
 20
8.388420
 30
0.0
  0
LWPOLYLINE
  5
18f
100
AcDbEntity
  8
Layer_1
 62
7
100
AcDbPolyline
 90
6
 70
0
 10
11.859453
 20
8.857725
 30
0.0
 10
11.412086
 20
7.934660
 30
0.0
 10
10.491998
 20
8.380593
 30
0.0
 10
10.939364
 20
9.303658
 30
0.0
 10
11.859453
 20
8.857725
 30
0.0
 10
11.859453
 20
8.857725
 30
0.0
  0
LWPOLYLINE
  5
190
100
AcDbEntity
  8
Layer_1
 62
7
100
AcDbPolyline
 90
6
 70
0
 10
1.806499
 20
8.369073
 30
0.0
 10
1.145316
 20
7.589213
 30
0.0
 10
0.362976
 20
8.252491
 30
0.0
 10
1.024104
 20
9.032350
 30
0.0
 10
1.806499
 20
8.369073
 30
0.0
 10
1.806499
 20
8.369073
 30
0.0
  0
LWPOLYLINE
  5
191
100
AcDbEntity
  8
Layer_1
 62
7
100
AcDbPolyline
 90
9
 70
0
 10
2.770684
 20
8.916319
 30
0.0
 10
2.968571
 20
8.634483
 30
0.0
 10
2.637566
 20
8.979985
 30
0.0
 10
2.661968
 20
9.005265
 30
0.0
 10
2.685083
 20
9.019103
 30
0.0
 10
2.706082
 20
9.014120
 30
0.0
 10
2.724135
 20
8.982940
 30
0.0
 10
2.770684
 20
8.916319
 30
0.0
 10
2.770684
 20
8.916319
 30
0.0
  0
LWPOLYLINE
  5
192
100
AcDbEntity
  8
Layer_1
 62
7
100
AcDbPolyline
 90
6
 70
0
 10
3.253494
 20
8.173502
 30
0.0
 10
2.515306
 20
7.466072
 30
0.0
 10
1.805562
 20
8.206630
 30
0.0
 10
2.543804
 20
8.914059
 30
0.0
 10
3.253494
 20
8.173502
 30
0.0
 10
3.253494
 20
8.173502
 30
0.0
  0
LWPOLYLINE
  5
193
100
AcDbEntity
  8
Layer_1
 62
7
100
AcDbPolyline
 90
12
 70
0
 10
4.372626
 20
8.744285
 30
0.0
 10
4.577348
 20
8.319023
 30
0.0
 10
4.264037
 20
8.751727
 30
0.0
 10
4.268192
 20
8.760781
 30
0.0
 10
4.279359
 20
8.766776
 30
0.0
 10
4.301334
 20
8.782503
 30
0.0
 10
4.318421
 20
8.799986
 30
0.0
 10
4.335711
 20
8.804577
 30
0.0
 10
4.350238
 20
8.795371
 30
0.0
 10
4.359037
 20
8.771464
 30
0.0
 10
4.372626
 20
8.744285
 30
0.0
 10
4.372626
 20
8.744285
 30
0.0
  0
LWPOLYLINE
  5
194
100
AcDbEntity
  8
Layer_1
 62
7
100
AcDbPolyline
 90
8
 70
0
 10
11.955860
 20
8.795438
 30
0.0
 10
11.996636
 20
8.773142
 30
0.0
 10
12.033802
 20
8.744451
 30
0.0
 10
11.718672
 20
8.308108
 30
0.0
 10
11.939930
 20
8.768483
 30
0.0
 10
11.945885
 20
8.783757
 30
0.0
 10
11.955860
 20
8.795438
 30
0.0
 10
11.955860
 20
8.795438
 30
0.0
  0
LWPOLYLINE
  5
195
100
AcDbEntity
  8
Layer_1
 62
7
100
AcDbPolyline
 90
6
 70
0
 10
4.759910
 20
7.874412
 30
0.0
 10
3.932260
 20
7.274139
 30
0.0
 10
3.330058
 20
8.104489
 30
0.0
 10
4.157652
 20
8.704763
 30
0.0
 10
4.759910
 20
7.874412
 30
0.0
 10
4.759910
 20
7.874412
 30
0.0
  0
LWPOLYLINE
  5
196
100
AcDbEntity
  8
Layer_1
 62
7
100
AcDbPolyline
 90
6
 70
0
 10
12.963316
 20
8.088449
 30
0.0
 10
12.358909
 20
7.259642
 30
0.0
 10
11.532747
 20
7.862065
 30
0.0
 10
12.137155
 20
8.690927
 30
0.0
 10
12.963316
 20
8.088449
 30
0.0
 10
12.963316
 20
8.088449
 30
0.0
  0
LWPOLYLINE
  5
197
100
AcDbEntity
  8
Layer_1
 62
7
100
AcDbPolyline
 90
6
 70
0
 10
8.675799
 20
8.684533
 30
0.0
 10
8.671113
 20
7.658777
 30
0.0
 10
7.648664
 20
7.663462
 30
0.0
 10
7.653349
 20
8.689219
 30
0.0
 10
8.675799
 20
8.684533
 30
0.0
 10
8.675799
 20
8.684533
 30
0.0
  0
LWPOLYLINE
  5
198
100
AcDbEntity
  8
Layer_1
 62
7
100
AcDbPolyline
 90
5
 70
0
 10
7.537870
 20
8.073511
 30
0.0
 10
7.413901
 20
8.649311
 30
0.0
 10
7.540626
 20
8.660721
 30
0.0
 10
7.537871
 20
8.073511
 30
0.0
 10
7.537870
 20
8.073511
 30
0.0
  0
LWPOLYLINE
  5
199
100
AcDbEntity
  8
Layer_1
 62
7
100
AcDbPolyline
 90
5
 70
0
 10
8.915136
 20
8.645948
 30
0.0
 10
8.786152
 20
8.069267
 30
0.0
 10
8.788853
 20
8.657358
 30
0.0
 10
8.915136
 20
8.645948
 30
0.0
 10
8.915136
 20
8.645948
 30
0.0
  0
LWPOLYLINE
  5
19a
100
AcDbEntity
  8
Layer_1
 62
7
100
AcDbPolyline
 90
6
 70
0
 10
7.513340
 20
7.650013
 30
0.0
 10
6.513822
 20
7.434763
 30
0.0
 10
6.297856
 20
8.437534
 30
0.0
 10
7.297429
 20
8.652783
 30
0.0
 10
7.513340
 20
7.650013
 30
0.0
 10
7.513340
 20
7.650013
 30
0.0
  0
LWPOLYLINE
  5
19b
100
AcDbEntity
  8
Layer_1
 62
7
100
AcDbPolyline
 90
6
 70
0
 10
10.028205
 20
8.421769
 30
0.0
 10
9.804191
 20
7.420817
 30
0.0
 10
8.806436
 20
7.644059
 30
0.0
 10
9.030450
 20
8.645066
 30
0.0
 10
10.028205
 20
8.421769
 30
0.0
 10
10.028205
 20
8.421769
 30
0.0
  0
LWPOLYLINE
  5
19c
100
AcDbEntity
  8
Layer_1
 62
7
100
AcDbPolyline
 90
5
 70
0
 10
6.318306
 20
7.808487
 30
0.0
 10
6.066952
 20
8.356174
 30
0.0
 10
6.192629
 20
8.390791
 30
0.0
 10
6.318306
 20
7.808487
 30
0.0
 10
6.318306
 20
7.808487
 30
0.0
  0
LWPOLYLINE
  5
19d
100
AcDbEntity
  8
Layer_1
 62
7
100
AcDbPolyline
 90
8
 70
0
 10
10.162206
 20
8.368301
 30
0.0
 10
10.215989
 20
8.354567
 30
0.0
 10
10.241504
 20
8.346906
 30
0.0
 10
10.257164
 20
8.334681
 30
0.0
 10
10.003731
 20
7.793494
 30
0.0
 10
10.133928
 20
8.375577
 30
0.0
 10
10.162206
 20
8.368301
 30
0.0
 10
10.162206
 20
8.368301
 30
0.0
  0
LWPOLYLINE
  5
19e
100
AcDbEntity
  8
Layer_1
 62
7
100
AcDbPolyline
 90
6
 70
0
 10
6.385058
 20
7.391713
 30
0.0
 10
5.455819
 20
6.965072
 30
0.0
 10
5.027856
 20
7.897398
 30
0.0
 10
5.957095
 20
8.323928
 30
0.0
 10
6.385058
 20
7.391713
 30
0.0
 10
6.385058
 20
7.391713
 30
0.0
  0
LWPOLYLINE
  5
19f
100
AcDbEntity
  8
Layer_1
 62
7
100
AcDbPolyline
 90
6
 70
0
 10
11.293906
 20
7.871711
 30
0.0
 10
10.858501
 20
6.942969
 30
0.0
 10
9.932735
 20
7.376996
 30
0.0
 10
10.368195
 20
8.305793
 30
0.0
 10
11.293906
 20
7.871711
 30
0.0
 10
11.293906
 20
7.871711
 30
0.0
  0
LWPOLYLINE
  5
1a0
100
AcDbEntity
  8
Layer_1
 62
7
100
AcDbPolyline
 90
8
 70
0
 10
0.209848
 20
8.234631
 30
0.0
 10
0.624142
 20
7.883232
 30
0.0
 10
0.457366
 20
7.988807
 30
0.0
 10
0.293688
 20
8.098702
 30
0.0
 10
0.252440
 20
8.121558
 30
0.0
 10
0.207588
 20
8.135799
 30
0.0
 10
0.209849
 20
8.234631
 30
0.0
 10
0.209848
 20
8.234631
 30
0.0
  0
LWPOLYLINE
  5
1a1
100
AcDbEntity
  8
Layer_1
 62
7
100
AcDbPolyline
 90
5
 70
0
 10
2.067003
 20
7.770949
 30
0.0
 10
1.692397
 20
8.058518
 30
0.0
 10
1.738313
 20
8.113805
 30
0.0
 10
2.067003
 20
7.770949
 30
0.0
 10
2.067003
 20
7.770949
 30
0.0
  0
LWPOLYLINE
  5
1a2
100
AcDbEntity
  8
Layer_1
 62
7
100
AcDbPolyline
 90
9
 70
0
 10
3.294229
 20
7.960733
 30
0.0
 10
3.565316
 20
7.588056
 30
0.0
 10
3.197545
 20
7.939125
 30
0.0
 10
3.195480
 20
7.962806
 30
0.0
 10
3.212450
 20
7.980998
 30
0.0
 10
3.235804
 20
7.997490
 30
0.0
 10
3.252888
 20
8.016075
 30
0.0
 10
3.294229
 20
7.960733
 30
0.0
 10
3.294229
 20
7.960733
 30
0.0
  0
LWPOLYLINE
  5
1a3
100
AcDbEntity
  8
Layer_1
 62
7
100
AcDbPolyline
 90
6
 70
0
 10
2.418954
 20
7.358475
 30
0.0
 10
1.796963
 20
6.547031
 30
0.0
 10
0.982873
 20
7.171062
 30
0.0
 10
1.604919
 20
7.982506
 30
0.0
 10
2.418954
 20
7.358475
 30
0.0
 10
2.418954
 20
7.358475
 30
0.0
  0
LWPOLYLINE
  5
1a4
100
AcDbEntity
  8
Layer_1
 62
7
100
AcDbPolyline
 90
6
 70
0
 10
3.826317
 20
7.181314
 30
0.0
 10
3.118997
 20
6.443016
 30
0.0
 10
2.378274
 20
7.152596
 30
0.0
 10
3.085594
 20
7.890949
 30
0.0
 10
3.826317
 20
7.181314
 30
0.0
 10
3.826317
 20
7.181314
 30
0.0
  0
LWPOLYLINE
  5
1a5
100
AcDbEntity
  8
Layer_1
 62
7
100
AcDbPolyline
 90
8
 70
0
 10
5.183795
 20
7.287974
 30
0.0
 10
4.837361
 20
7.744387
 30
0.0
 10
4.819587
 20
7.769988
 30
0.0
 10
4.822127
 20
7.783004
 30
0.0
 10
4.836365
 20
7.792557
 30
0.0
 10
4.928804
 20
7.842993
 30
0.0
 10
5.183796
 20
7.287974
 30
0.0
 10
5.183795
 20
7.287974
 30
0.0
  0
LWPOLYLINE
  5
1a6
100
AcDbEntity
  8
Layer_1
 62
7
100
AcDbPolyline
 90
7
 70
0
 10
11.403212
 20
7.813503
 30
0.0
 10
11.503092
 20
7.743609
 30
0.0
 10
11.134053
 20
7.264052
 30
0.0
 10
11.392739
 20
7.818464
 30
0.0
 10
11.399115
 20
7.815444
 30
0.0
 10
11.403212
 20
7.813502
 30
0.0
 10
11.403212
 20
7.813503
 30
0.0
  0
LWPOLYLINE
  5
1a7
100
AcDbEntity
  8
Layer_1
 62
7
100
AcDbPolyline
 90
6
 70
0
 10
5.339292
 20
6.895013
 30
0.0
 10
4.523494
 20
6.278754
 30
0.0
 10
3.905085
 20
7.097144
 30
0.0
 10
4.720884
 20
7.713513
 30
0.0
 10
5.339292
 20
6.895013
 30
0.0
 10
5.339292
 20
6.895013
 30
0.0
  0
LWPOLYLINE
  5
1a8
100
AcDbEntity
  8
Layer_1
 62
7
100
AcDbPolyline
 90
6
 70
0
 10
12.410337
 20
7.061701
 30
0.0
 10
11.784873
 20
6.248658
 30
0.0
 10
10.974421
 20
6.872082
 30
0.0
 10
11.599885
 20
7.685125
 30
0.0
 10
12.410337
 20
7.061701
 30
0.0
 10
12.410337
 20
7.061701
 30
0.0
  0
LWPOLYLINE
  5
1a9
100
AcDbEntity
  8
Layer_1
 62
7
100
AcDbPolyline
 90
6
 70
0
 10
8.086549
 20
6.536337
 30
0.0
 10
7.073195
 20
6.400408
 30
0.0
 10
6.936825
 20
7.417124
 30
0.0
 10
7.950179
 20
7.552999
 30
0.0
 10
8.086549
 20
6.536337
 30
0.0
 10
8.086549
 20
6.536337
 30
0.0
  0
LWPOLYLINE
  5
1aa
100
AcDbEntity
  8
Layer_1
 62
7
100
AcDbPolyline
 90
6
 70
0
 10
9.363109
 20
7.410454
 30
0.0
 10
9.221502
 20
6.394564
 30
0.0
 10
8.208919
 20
6.535676
 30
0.0
 10
8.350471
 20
7.551566
 30
0.0
 10
9.363109
 20
7.410454
 30
0.0
 10
9.363109
 20
7.410454
 30
0.0
  0
LWPOLYLINE
  5
1ab
100
AcDbEntity
  8
Layer_1
 62
7
100
AcDbPolyline
 90
5
 70
0
 10
8.236259
 20
7.547927
 30
0.0
 10
8.149002
 20
6.922574
 30
0.0
 10
8.065162
 20
7.548479
 30
0.0
 10
8.236259
 20
7.547928
 30
0.0
 10
8.236259
 20
7.547927
 30
0.0
  0
LWPOLYLINE
  5
1ac
100
AcDbEntity
  8
Layer_1
 62
7
100
AcDbPolyline
 90
5
 70
0
 10
6.912185
 20
6.752965
 30
0.0
 10
6.654272
 20
7.349545
 30
0.0
 10
6.826967
 20
7.386752
 30
0.0
 10
6.912185
 20
6.752965
 30
0.0
 10
6.912185
 20
6.752965
 30
0.0
  0
LWPOLYLINE
  5
1ad
100
AcDbEntity
  8
Layer_1
 62
7
100
AcDbPolyline
 90
5
 70
0
 10
9.644614
 20
7.340781
 30
0.0
 10
9.384937
 20
6.747563
 30
0.0
 10
9.473076
 20
7.379256
 30
0.0
 10
9.644614
 20
7.340781
 30
0.0
 10
9.644614
 20
7.340781
 30
0.0
  0
LWPOLYLINE
  5
1ae
100
AcDbEntity
  8
Layer_1
 62
7
100
AcDbPolyline
 90
6
 70
0
 10
6.955676
 20
6.367720
 30
0.0
 10
6.017232
 20
5.961971
 30
0.0
 10
5.610160
 20
6.903557
 30
0.0
 10
6.548659
 20
7.309306
 30
0.0
 10
6.955676
 20
6.367720
 30
0.0
 10
6.955676
 20
6.367720
 30
0.0
  0
LWPOLYLINE
  5
1af
100
AcDbEntity
  8
Layer_1
 62
7
100
AcDbPolyline
 90
6
 70
0
 10
10.687018
 20
6.891926
 30
0.0
 10
10.275866
 20
5.952104
 30
0.0
 10
9.339131
 20
6.361988
 30
0.0
 10
9.750282
 20
7.301755
 30
0.0
 10
10.687018
 20
6.891926
 30
0.0
 10
10.687018
 20
6.891926
 30
0.0
  0
LWPOLYLINE
  5
1b0
100
AcDbEntity
  8
Layer_1
 62
7
100
AcDbPolyline
 90
8
 70
0
 10
1.309688
 20
6.778431
 30
0.0
 10
0.894513
 20
7.005477
 30
0.0
 10
0.911307
 20
7.036082
 30
0.0
 10
0.930086
 20
7.055355
 30
0.0
 10
0.952065
 20
7.056363
 30
0.0
 10
0.978457
 20
7.032171
 30
0.0
 10
1.309688
 20
6.778431
 30
0.0
 10
1.309688
 20
6.778431
 30
0.0
  0
LWPOLYLINE
  5
1b1
100
AcDbEntity
  8
Layer_1
 62
7
100
AcDbPolyline
 90
7
 70
0
 10
2.700405
 20
6.687977
 30
0.0
 10
2.267866
 20
6.974774
 30
0.0
 10
2.306521
 20
7.028242
 30
0.0
 10
2.326789
 20
7.042756
 30
0.0
 10
2.349625
 20
7.023853
 30
0.0
 10
2.700405
 20
6.687977
 30
0.0
 10
2.700405
 20
6.687977
 30
0.0
  0
LWPOLYLINE
  5
1b2
100
AcDbEntity
  8
Layer_1
 62
7
100
AcDbPolyline
 90
5
 70
0
 10
4.187914
 20
6.536227
 30
0.0
 10
3.735421
 20
6.923566
 30
0.0
 10
3.824884
 20
7.016721
 30
0.0
 10
4.187914
 20
6.536227
 30
0.0
 10
4.187914
 20
6.536227
 30
0.0
  0
LWPOLYLINE
  5
1b3
100
AcDbEntity
  8
Layer_1
 62
7
100
AcDbPolyline
 90
5
 70
0
 10
12.577465
 20
6.885532
 30
0.0
 10
12.123816
 20
6.504091
 30
0.0
 10
12.488996
 20
6.978412
 30
0.0
 10
12.577465
 20
6.885532
 30
0.0
 10
12.577465
 20
6.885532
 30
0.0
  0
LWPOLYLINE
  5
1b4
100
AcDbEntity
  8
Layer_1
 62
7
100
AcDbPolyline
 90
6
 70
0
 10
1.718194
 20
6.426149
 30
0.0
 10
1.227447
 20
5.529102
 30
0.0
 10
0.327533
 20
6.021447
 30
0.0
 10
0.818225
 20
6.918495
 30
0.0
 10
1.718194
 20
6.426149
 30
0.0
 10
1.718194
 20
6.426149
 30
0.0
  0
LWPOLYLINE
  5
1b5
100
AcDbEntity
  8
Layer_1
 62
7
100
AcDbPolyline
 90
6
 70
0
 10
3.031023
 20
6.332939
 30
0.0
 10
2.466138
 20
5.480760
 30
0.0
 10
1.611203
 20
6.047464
 30
0.0
 10
2.176088
 20
6.899643
 30
0.0
 10
3.031023
 20
6.332939
 30
0.0
 10
3.031023
 20
6.332939
 30
0.0
  0
LWPOLYLINE
  5
1b6
100
AcDbEntity
  8
Layer_1
 62
7
100
AcDbPolyline
 90
6
 70
0
 10
5.765602
 20
6.259903
 30
0.0
 10
5.355719
 20
6.765808
 30
0.0
 10
5.427185
 20
6.819815
 30
0.0
 10
5.504933
 20
6.863263
 30
0.0
 10
5.765602
 20
6.259903
 30
0.0
 10
5.765602
 20
6.259903
 30
0.0
  0
LWPOLYLINE
  5
1b7
100
AcDbEntity
  8
Layer_1
 62
7
100
AcDbPolyline
 90
6
 70
0
 10
4.424441
 20
6.185378
 30
0.0
 10
3.759509
 20
5.408551
 30
0.0
 10
2.980256
 20
6.075631
 30
0.0
 10
3.645132
 20
6.852404
 30
0.0
 10
4.424441
 20
6.185378
 30
0.0
 10
4.424441
 20
6.185378
 30
0.0
  0
LWPOLYLINE
  5
1b8
100
AcDbEntity
  8
Layer_1
 62
7
100
AcDbPolyline
 90
7
 70
0
 10
10.797371
 20
6.848435
 30
0.0
 10
10.873463
 20
6.806147
 30
0.0
 10
10.943443
 20
6.753957
 30
0.0
 10
10.528488
 20
6.247390
 30
0.0
 10
10.792410
 20
6.850309
 30
0.0
 10
10.797371
 20
6.848435
 30
0.0
 10
10.797371
 20
6.848435
 30
0.0
  0
LWPOLYLINE
  5
1b9
100
AcDbEntity
  8
Layer_1
 62
7
100
AcDbPolyline
 90
6
 70
0
 10
5.912942
 20
5.898471
 30
0.0
 10
5.118531
 20
5.254817
 30
0.0
 10
4.472782
 20
6.051819
 30
0.0
 10
5.267193
 20
6.695473
 30
0.0
 10
5.912942
 20
5.898471
 30
0.0
 10
5.912942
 20
5.898471
 30
0.0
  0
LWPOLYLINE
  5
1ba
100
AcDbEntity
  8
Layer_1
 62
7
100
AcDbPolyline
 90
6
 70
0
 10
11.820757
 20
6.033905
 30
0.0
 10
11.170709
 20
5.240375
 30
0.0
 10
10.379770
 20
5.888328
 30
0.0
 10
11.029763
 20
6.681803
 30
0.0
 10
11.820757
 20
6.033905
 30
0.0
 10
11.820757
 20
6.033905
 30
0.0
  0
LWPOLYLINE
  5
1bb
100
AcDbEntity
  8
Layer_1
 62
7
100
AcDbPolyline
 90
6
 70
0
 10
8.650828
 20
6.371965
 30
0.0
 10
8.649948
 20
5.346208
 30
0.0
 10
7.627554
 20
5.347035
 30
0.0
 10
7.628381
 20
6.372792
 30
0.0
 10
8.650830
 20
6.371965
 30
0.0
 10
8.650828
 20
6.371965
 30
0.0
  0
LWPOLYLINE
  5
1bc
100
AcDbEntity
  8
Layer_1
 62
7
100
AcDbPolyline
 90
5
 70
0
 10
7.515270
 20
5.677103
 30
0.0
 10
7.269042
 20
6.312985
 30
0.0
 10
7.515766
 20
6.346113
 30
0.0
 10
7.515269
 20
5.677103
 30
0.0
 10
7.515270
 20
5.677103
 30
0.0
  0
LWPOLYLINE
  5
1bd
100
AcDbEntity
  8
Layer_1
 62
7
100
AcDbPolyline
 90
5
 70
0
 10
9.009284
 20
6.310174
 30
0.0
 10
8.763497
 20
5.676662
 30
0.0
 10
8.764047
 20
6.344569
 30
0.0
 10
9.009283
 20
6.310174
 30
0.0
 10
9.009284
 20
6.310174
 30
0.0
  0
LWPOLYLINE
  5
1be
100
AcDbEntity
  8
Layer_1
 62
7
100
AcDbPolyline
 90
6
 70
0
 10
7.528775
 20
5.329066
 30
0.0
 10
6.575393
 20
4.959586
 30
0.0
 10
6.204700
 20
5.916055
 30
0.0
 10
7.158138
 20
6.285534
 30
0.0
 10
7.528775
 20
5.329066
 30
0.0
 10
7.528775
 20
5.329066
 30
0.0
  0
LWPOLYLINE
  5
1bf
100
AcDbEntity
  8
Layer_1
 62
7
100
AcDbPolyline
 90
6
 70
0
 10
10.073184
 20
5.915117
 30
0.0
 10
9.702327
 20
4.958704
 30
0.0
 10
8.749000
 20
5.328404
 30
0.0
 10
9.119857
 20
6.284818
 30
0.0
 10
10.073184
 20
5.915117
 30
0.0
 10
10.073184
 20
5.915117
 30
0.0
  0
LWPOLYLINE
  5
1c0
100
AcDbEntity
  8
Layer_1
 62
7
100
AcDbPolyline
 90
5
 70
0
 10
4.796456
 20
5.473649
 30
0.0
 10
4.278644
 20
5.841641
 30
0.0
 10
4.391368
 20
5.973491
 30
0.0
 10
4.796456
 20
5.473649
 30
0.0
 10
4.796456
 20
5.473649
 30
0.0
  0
LWPOLYLINE
  5
1c1
100
AcDbEntity
  8
Layer_1
 62
7
100
AcDbPolyline
 90
5
 70
0
 10
3.376911
 20
5.588357
 30
0.0
 10
2.857446
 20
5.865949
 30
0.0
 10
2.927836
 20
5.972665
 30
0.0
 10
3.376911
 20
5.588357
 30
0.0
 10
3.376911
 20
5.588357
 30
0.0
  0
LWPOLYLINE
  5
1c2
100
AcDbEntity
  8
Layer_1
 62
7
100
AcDbPolyline
 90
5
 70
0
 10
12.014785
 20
5.823506
 30
0.0
 10
11.495430
 20
5.458491
 30
0.0
 10
11.903054
 20
5.956459
 30
0.0
 10
12.014785
 20
5.823506
 30
0.0
 10
12.014785
 20
5.823506
 30
0.0
  0
LWPOLYLINE
  5
1c3
100
AcDbEntity
  8
Layer_1
 62
7
100
AcDbPolyline
 90
7
 70
0
 10
2.010393
 20
5.647668
 30
0.0
 10
1.533371
 20
5.853106
 30
0.0
 10
1.563440
 20
5.911796
 30
0.0
 10
1.581379
 20
5.929381
 30
0.0
 10
1.607261
 20
5.914813
 30
0.0
 10
2.010393
 20
5.647668
 30
0.0
 10
2.010393
 20
5.647668
 30
0.0
  0
LWPOLYLINE
  5
1c4
100
AcDbEntity
  8
Layer_1
 62
7
100
AcDbPolyline
 90
8
 70
0
 10
0.714486
 20
5.681623
 30
0.0
 10
0.264474
 20
5.845389
 30
0.0
 10
0.276985
 20
5.877941
 30
0.0
 10
0.293052
 20
5.899664
 30
0.0
 10
0.314857
 20
5.903915
 30
0.0
 10
0.344581
 20
5.884052
 30
0.0
 10
0.714486
 20
5.681623
 30
0.0
 10
0.714486
 20
5.681623
 30
0.0
  0
LWPOLYLINE
  5
1c5
100
AcDbEntity
  8
Layer_1
 62
7
100
AcDbPolyline
 90
8
 70
0
 10
10.188719
 20
5.870855
 30
0.0
 10
10.295325
 20
5.809991
 30
0.0
 10
10.391842
 20
5.733768
 30
0.0
 10
9.926396
 20
5.224280
 30
0.0
 10
10.179348
 20
5.874769
 30
0.0
 10
10.185859
 20
5.872048
 30
0.0
 10
10.188719
 20
5.870854
 30
0.0
 10
10.188719
 20
5.870855
 30
0.0
  0
LWPOLYLINE
  5
1c6
100
AcDbEntity
  8
Layer_1
 62
7
100
AcDbPolyline
 90
7
 70
0
 10
6.351103
 20
5.227146
 30
0.0
 10
5.889626
 20
5.733823
 30
0.0
 10
5.988533
 20
5.814616
 30
0.0
 10
6.041268
 20
5.849649
 30
0.0
 10
6.100025
 20
5.874713
 30
0.0
 10
6.351103
 20
5.227146
 30
0.0
 10
6.351103
 20
5.227146
 30
0.0
  0
LWPOLYLINE
  5
1c7
100
AcDbEntity
  8
Layer_1
 62
7
100
AcDbPolyline
 90
6
 70
0
 10
3.682670
 20
5.296654
 30
0.0
 10
3.200577
 20
4.394976
 30
0.0
 10
2.295978
 20
4.878612
 30
0.0
 10
2.778071
 20
5.780290
 30
0.0
 10
3.682670
 20
5.296654
 30
0.0
 10
3.682670
 20
5.296654
 30
0.0
  0
LWPOLYLINE
  5
1c8
100
AcDbEntity
  8
Layer_1
 62
7
100
AcDbPolyline
 90
6
 70
0
 10
2.399000
 20
5.357067
 30
0.0
 10
1.994904
 20
4.417907
 30
0.0
 10
1.052712
 20
4.823381
 30
0.0
 10
1.456863
 20
5.762486
 30
0.0
 10
2.399000
 20
5.357067
 30
0.0
 10
2.399000
 20
5.357067
 30
0.0
  0
LWPOLYLINE
  5
1c9
100
AcDbEntity
  8
Layer_1
 62
7
100
AcDbPolyline
 90
6
 70
0
 10
5.034801
 20
5.165795
 30
0.0
 10
4.442686
 20
4.332193
 30
0.0
 10
3.606382
 20
4.926237
 30
0.0
 10
4.198497
 20
5.759840
 30
0.0
 10
5.034801
 20
5.165795
 30
0.0
 10
5.034801
 20
5.165795
 30
0.0
  0
LWPOLYLINE
  5
1ca
100
AcDbEntity
  8
Layer_1
 62
7
100
AcDbPolyline
 90
6
 70
0
 10
12.680984
 20
4.903858
 30
0.0
 10
11.841703
 20
4.314223
 30
0.0
 10
11.253998
 20
5.150858
 30
0.0
 10
12.093278
 20
5.740437
 30
0.0
 10
12.680984
 20
4.903858
 30
0.0
 10
12.680984
 20
4.903858
 30
0.0
  0
LWPOLYLINE
  5
1cb
100
AcDbEntity
  8
Layer_1
 62
7
100
AcDbPolyline
 90
6
 70
0
 10
6.490230
 20
4.906062
 30
0.0
 10
5.734459
 20
4.217484
 30
0.0
 10
5.043621
 20
4.975736
 30
0.0
 10
5.799447
 20
5.664314
 30
0.0
 10
6.490230
 20
4.906062
 30
0.0
 10
6.490230
 20
4.906062
 30
0.0
  0
LWPOLYLINE
  5
1cc
100
AcDbEntity
  8
Layer_1
 62
7
100
AcDbPolyline
 90
6
 70
0
 10
11.234154
 20
4.972869
 30
0.0
 10
10.542158
 20
4.215610
 30
0.0
 10
9.787379
 20
4.905401
 30
0.0
 10
10.479375
 20
5.662660
 30
0.0
 10
11.234154
 20
4.972869
 30
0.0
 10
11.234154
 20
4.972869
 30
0.0
  0
LWPOLYLINE
  5
1cd
100
AcDbEntity
  8
Layer_1
 62
7
100
AcDbPolyline
 90
6
 70
0
 10
8.113614
 20
4.262794
 30
0.0
 10
7.131569
 20
3.978201
 30
0.0
 10
6.846095
 20
4.963388
 30
0.0
 10
7.828140
 20
5.247981
 30
0.0
 10
8.113614
 20
4.262794
 30
0.0
 10
8.113614
 20
4.262794
 30
0.0
  0
LWPOLYLINE
  5
1ce
100
AcDbEntity
  8
Layer_1
 62
7
100
AcDbPolyline
 90
6
 70
0
 10
9.447390
 20
4.955230
 30
0.0
 10
9.155686
 20
3.971752
 30
0.0
 10
8.175460
 20
4.262518
 30
0.0
 10
8.467109
 20
5.245941
 30
0.0
 10
9.447390
 20
4.955230
 30
0.0
 10
9.447390
 20
4.955230
 30
0.0
  0
LWPOLYLINE
  5
1cf
100
AcDbEntity
  8
Layer_1
 62
7
100
AcDbPolyline
 90
5
 70
0
 10
8.345896
 20
5.233649
 30
0.0
 10
8.145750
 20
4.558907
 30
0.0
 10
7.950289
 20
5.234145
 30
0.0
 10
8.345896
 20
5.233649
 30
0.0
 10
8.345896
 20
5.233649
 30
0.0
  0
LWPOLYLINE
  5
1d0
100
AcDbEntity
  8
Layer_1
 62
7
100
AcDbPolyline
 90
7
 70
0
 10
6.946746
 20
4.210759
 30
0.0
 10
6.410249
 20
4.680229
 30
0.0
 10
6.505499
 20
4.767795
 30
0.0
 10
6.604150
 20
4.849865
 30
0.0
 10
6.745773
 20
4.904739
 30
0.0
 10
6.946746
 20
4.210759
 30
0.0
 10
6.946746
 20
4.210759
 30
0.0
  0
LWPOLYLINE
  5
1d1
100
AcDbEntity
  8
Layer_1
 62
7
100
AcDbPolyline
 90
8
 70
0
 10
9.553499
 20
4.899117
 30
0.0
 10
9.646426
 20
4.859396
 30
0.0
 10
9.730099
 20
4.803321
 30
0.0
 10
9.880424
 20
4.667716
 30
0.0
 10
9.342438
 20
4.204034
 30
0.0
 10
9.547435
 20
4.900825
 30
0.0
 10
9.553499
 20
4.899115
 30
0.0
 10
9.553499
 20
4.899117
 30
0.0
  0
LWPOLYLINE
  5
1d2
100
AcDbEntity
  8
Layer_1
 62
7
100
AcDbPolyline
 90
5
 70
0
 10
5.428148
 20
4.386431
 30
0.0
 10
4.830796
 20
4.683812
 30
0.0
 10
4.973616
 20
4.885116
 30
0.0
 10
5.428148
 20
4.386431
 30
0.0
 10
5.428148
 20
4.386431
 30
0.0
  0
LWPOLYLINE
  5
1d3
100
AcDbEntity
  8
Layer_1
 62
7
100
AcDbPolyline
 90
6
 70
0
 10
11.337287
 20
4.836002
 30
0.0
 10
11.445986
 20
4.681442
 30
0.0
 10
10.849185
 20
4.384447
 30
0.0
 10
11.304103
 20
4.882305
 30
0.0
 10
11.337287
 20
4.836002
 30
0.0
 10
11.337287
 20
4.836002
 30
0.0
  0
LWPOLYLINE
  5
1d4
100
AcDbEntity
  8
Layer_1
 62
7
100
AcDbPolyline
 90
5
 70
0
 10
4.074143
 20
4.456216
 30
0.0
 10
3.475964
 20
4.670253
 30
0.0
 10
3.557710
 20
4.823215
 30
0.0
 10
4.074143
 20
4.456216
 30
0.0
 10
4.074143
 20
4.456216
 30
0.0
  0
LWPOLYLINE
  5
1d5
100
AcDbEntity
  8
Layer_1
 62
7
100
AcDbPolyline
 90
5
 70
0
 10
12.810685
 20
4.647653
 30
0.0
 10
12.213609
 20
4.437144
 30
0.0
 10
12.730703
 20
4.800395
 30
0.0
 10
12.810685
 20
4.647653
 30
0.0
 10
12.810685
 20
4.647653
 30
0.0
  0
LWPOLYLINE
  5
1d6
100
AcDbEntity
  8
Layer_1
 62
7
100
AcDbPolyline
 90
5
 70
0
 10
2.788764
 20
4.487525
 30
0.0
 10
2.217154
 20
4.647267
 30
0.0
 10
2.268031
 20
4.765668
 30
0.0
 10
2.788764
 20
4.487525
 30
0.0
 10
2.788764
 20
4.487525
 30
0.0
  0
LWPOLYLINE
  5
1d7
100
AcDbEntity
  8
Layer_1
 62
7
100
AcDbPolyline
 90
7
 70
0
 10
1.517441
 20
4.500424
 30
0.0
 10
1.006961
 20
4.617998
 30
0.0
 10
1.027904
 20
4.681113
 30
0.0
 10
1.043121
 20
4.701704
 30
0.0
 10
1.071340
 20
4.692256
 30
0.0
 10
1.517441
 20
4.500424
 30
0.0
 10
1.517441
 20
4.500424
 30
0.0
  0
LWPOLYLINE
  5
1d8
100
AcDbEntity
  8
Layer_1
 62
7
100
AcDbPolyline
 90
6
 70
0
 10
7.079810
 20
3.944468
 30
0.0
 10
6.406666
 20
3.174806
 30
0.0
 10
5.634523
 20
3.850155
 30
0.0
 10
6.307667
 20
4.619762
 30
0.0
 10
7.079810
 20
3.944468
 30
0.0
 10
7.079810
 20
3.944468
 30
0.0
  0
LWPOLYLINE
  5
1d9
100
AcDbEntity
  8
Layer_1
 62
7
100
AcDbPolyline
 90
6
 70
0
 10
10.651905
 20
3.834004
 30
0.0
 10
9.875188
 20
3.164057
 30
0.0
 10
9.207391
 20
3.938239
 30
0.0
 10
9.984108
 20
4.608186
 30
0.0
 10
10.651905
 20
3.834004
 30
0.0
 10
10.651905
 20
3.834004
 30
0.0
  0
LWPOLYLINE
  5
1da
100
AcDbEntity
  8
Layer_1
 62
7
100
AcDbPolyline
 90
6
 70
0
 10
5.673439
 20
4.137503
 30
0.0
 10
5.217529
 20
3.222376
 30
0.0
 10
4.299425
 20
3.679774
 30
0.0
 10
4.755335
 20
4.594902
 30
0.0
 10
5.673439
 20
4.137503
 30
0.0
 10
5.673439
 20
4.137503
 30
0.0
  0
LWPOLYLINE
  5
1db
100
AcDbEntity
  8
Layer_1
 62
7
100
AcDbPolyline
 90
6
 70
0
 10
11.976862
 20
3.677073
 30
0.0
 10
11.058537
 20
3.220116
 30
0.0
 10
10.603068
 20
4.135464
 30
0.0
 10
11.521337
 20
4.592421
 30
0.0
 10
11.976862
 20
3.677073
 30
0.0
 10
11.976862
 20
3.677073
 30
0.0
  0
LWPOLYLINE
  5
1dc
100
AcDbEntity
  8
Layer_1
 62
7
100
AcDbPolyline
 90
6
 70
0
 10
4.386076
 20
4.223989
 30
0.0
 10
4.042062
 20
3.261237
 30
0.0
 10
3.076168
 20
3.606408
 30
0.0
 10
3.420181
 20
4.569160
 30
0.0
 10
4.386076
 20
4.223989
 30
0.0
 10
4.386076
 20
4.223989
 30
0.0
  0
LWPOLYLINE
  5
1dd
100
AcDbEntity
  8
Layer_1
 62
7
100
AcDbPolyline
 90
6
 70
0
 10
3.150031
 20
4.268913
 30
0.0
 10
2.874588
 20
3.284222
 30
0.0
 10
1.886700
 20
3.560546
 30
0.0
 10
2.162143
 20
4.545237
 30
0.0
 10
3.150031
 20
4.268913
 30
0.0
 10
3.150031
 20
4.268913
 30
0.0
  0
LWPOLYLINE
  5
1de
100
AcDbEntity
  8
Layer_1
 62
7
100
AcDbPolyline
 90
6
 70
0
 10
0.288342
 20
4.508692
 30
0.0
 10
0.222138
 20
4.524200
 30
0.0
 10
0.209807
 20
4.531785
 30
0.0
 10
0.239339
 20
4.526374
 30
0.0
 10
0.288342
 20
4.508692
 30
0.0
 10
0.288342
 20
4.508692
 30
0.0
  0
LWPOLYLINE
  5
1df
100
AcDbEntity
  8
Layer_1
 62
7
100
AcDbPolyline
 90
6
 70
0
 10
1.951027
 20
4.284182
 30
0.0
 10
1.721777
 20
3.287805
 30
0.0
 10
0.722148
 20
3.517772
 30
0.0
 10
0.951398
 20
4.514149
 30
0.0
 10
1.951027
 20
4.284182
 30
0.0
 10
1.951027
 20
4.284182
 30
0.0
  0
LWPOLYLINE
  5
1e0
100
AcDbEntity
  8
Layer_1
 62
7
100
AcDbPolyline
 90
8
 70
0
 10
8.646584
 20
4.080673
 30
0.0
 10
8.646584
 20
3.056625
 30
0.0
 10
7.628600
 20
3.054915
 30
0.0
 10
7.623576
 20
3.145369
 30
0.0
 10
7.624135
 20
3.239848
 30
0.0
 10
7.624135
 20
4.080672
 30
0.0
 10
8.646584
 20
4.080672
 30
0.0
 10
8.646584
 20
4.080673
 30
0.0
  0
LWPOLYLINE
  5
1e1
100
AcDbEntity
  8
Layer_1
 62
7
100
AcDbPolyline
 90
6
 70
0
 10
9.120464
 20
3.865038
 30
0.0
 10
9.489888
 20
3.438342
 30
0.0
 10
8.759804
 20
3.198563
 30
0.0
 10
8.759804
 20
3.971698
 30
0.0
 10
9.120464
 20
3.865038
 30
0.0
 10
9.120464
 20
3.865038
 30
0.0
  0
LWPOLYLINE
  5
1e2
100
AcDbEntity
  8
Layer_1
 62
7
100
AcDbPolyline
 90
6
 70
0
 10
7.511577
 20
3.198398
 30
0.0
 10
6.784854
 20
3.436247
 30
0.0
 10
7.166957
 20
3.871046
 30
0.0
 10
7.511577
 20
3.970871
 30
0.0
 10
7.511577
 20
3.198398
 30
0.0
 10
7.511577
 20
3.198398
 30
0.0
  0
LWPOLYLINE
  5
1e3
100
AcDbEntity
  8
Layer_1
 62
7
100
AcDbPolyline
 90
5
 70
0
 10
6.125711
 20
3.271489
 30
0.0
 10
5.420872
 20
3.376330
 30
0.0
 10
5.598309
 20
3.732801
 30
0.0
 10
6.125711
 20
3.271489
 30
0.0
 10
6.125711
 20
3.271489
 30
0.0
  0
LWPOLYLINE
  5
1e4
100
AcDbEntity
  8
Layer_1
 62
7
100
AcDbPolyline
 90
5
 70
0
 10
10.863572
 20
3.358691
 30
0.0
 10
10.159009
 20
3.258646
 30
0.0
 10
10.686852
 20
3.714280
 30
0.0
 10
10.863572
 20
3.358691
 30
0.0
 10
10.863572
 20
3.358691
 30
0.0
  0
LWPOLYLINE
  5
1e5
100
AcDbEntity
  8
Layer_1
 62
7
100
AcDbPolyline
 90
5
 70
0
 10
4.871421
 20
3.268953
 30
0.0
 10
4.187363
 20
3.332123
 30
0.0
 10
4.271699
 20
3.567933
 30
0.0
 10
4.871421
 20
3.268953
 30
0.0
 10
4.871421
 20
3.268953
 30
0.0
  0
LWPOLYLINE
  5
1e6
100
AcDbEntity
  8
Layer_1
 62
7
100
AcDbPolyline
 90
5
 70
0
 10
12.087987
 20
3.327989
 30
0.0
 10
11.405031
 20
3.266142
 30
0.0
 10
12.004588
 20
3.564460
 30
0.0
 10
12.087987
 20
3.327989
 30
0.0
 10
12.087987
 20
3.327989
 30
0.0
  0
LWPOLYLINE
  5
1e7
100
AcDbEntity
  8
Layer_1
 62
7
100
AcDbPolyline
 90
5
 70
0
 10
3.651361
 20
3.281301
 30
0.0
 10
3.003793
 20
3.326831
 30
0.0
 10
3.051143
 20
3.495944
 30
0.0
 10
3.651361
 20
3.281301
 30
0.0
 10
3.651361
 20
3.281301
 30
0.0
  0
LWPOLYLINE
  5
1e8
100
AcDbEntity
  8
Layer_1
 62
7
100
AcDbPolyline
 90
5
 70
0
 10
2.448609
 20
3.286537
 30
0.0
 10
1.845359
 20
3.320437
 30
0.0
 10
1.874574
 20
3.447382
 30
0.0
 10
2.448609
 20
3.286537
 30
0.0
 10
2.448609
 20
3.286537
 30
0.0
  0
LWPOLYLINE
  5
1e9
100
AcDbEntity
  8
Layer_1
 62
7
100
AcDbPolyline
 90
8
 70
0
 10
1.240401
 20
3.283340
 30
0.0
 10
0.706273
 20
3.307649
 30
0.0
 10
0.717411
 20
3.374189
 30
0.0
 10
0.729390
 20
3.397594
 30
0.0
 10
0.741369
 20
3.400079
 30
0.0
 10
0.759012
 20
3.393848
 30
0.0
 10
1.240401
 20
3.283340
 30
0.0
 10
1.240401
 20
3.283340
 30
0.0
  0
LWPOLYLINE
  5
1ea
100
AcDbEntity
  8
Layer_1
 62
7
100
AcDbPolyline
 90
6
 70
0
 10
9.952248
 20
2.394120
 30
0.0
 10
8.977644
 20
2.074360
 30
0.0
 10
8.660695
 20
3.046373
 30
0.0
 10
9.633480
 20
3.365581
 30
0.0
 10
9.952248
 20
2.394120
 30
0.0
 10
9.952248
 20
2.394120
 30
0.0
  0
LWPOLYLINE
  5
1eb
100
AcDbEntity
  8
Layer_1
 62
7
100
AcDbPolyline
 90
8
 70
0
 10
7.610024
 20
3.046207
 30
0.0
 10
7.295500
 20
2.078604
 30
0.0
 10
7.221384
 20
2.096950
 30
0.0
 10
7.144892
 20
2.122643
 30
0.0
 10
6.319133
 20
2.392907
 30
0.0
 10
6.637129
 20
3.364589
 30
0.0
 10
7.610024
 20
3.046207
 30
0.0
 10
7.610024
 20
3.046207
 30
0.0
  0
LWPOLYLINE
  5
1ec
100
AcDbEntity
  8
Layer_1
 62
7
100
AcDbPolyline
 90
6
 70
0
 10
6.381255
 20
3.118692
 30
0.0
 10
6.230718
 20
2.107433
 30
0.0
 10
5.216206
 20
2.258521
 30
0.0
 10
5.366743
 20
3.269835
 30
0.0
 10
6.381255
 20
3.118692
 30
0.0
 10
6.381255
 20
3.118692
 30
0.0
  0
LWPOLYLINE
  5
1ed
100
AcDbEntity
  8
Layer_1
 62
7
100
AcDbPolyline
 90
6
 70
0
 10
11.060742
 20
2.239890
 30
0.0
 10
10.045183
 20
2.095967
 30
0.0
 10
9.901756
 20
3.108329
 30
0.0
 10
10.917316
 20
3.252252
 30
0.0
 10
11.060742
 20
2.239890
 30
0.0
 10
11.060742
 20
2.239890
 30
0.0
  0
LWPOLYLINE
  5
1ee
100
AcDbEntity
  8
Layer_1
 62
7
100
AcDbPolyline
 90
6
 70
0
 10
5.191016
 20
3.125748
 30
0.0
 10
5.096923
 20
2.107598
 30
0.0
 10
4.075521
 20
2.201911
 30
0.0
 10
4.169559
 20
3.220116
 30
0.0
 10
5.191016
 20
3.125748
 30
0.0
 10
5.191016
 20
3.125748
 30
0.0
  0
LWPOLYLINE
  5
1ef
100
AcDbEntity
  8
Layer_1
 62
7
100
AcDbPolyline
 90
6
 70
0
 10
12.199883
 20
2.197942
 30
0.0
 10
11.178261
 20
2.105614
 30
0.0
 10
11.086263
 20
3.123929
 30
0.0
 10
12.107830
 20
3.216257
 30
0.0
 10
12.199883
 20
2.197942
 30
0.0
 10
12.199883
 20
2.197942
 30
0.0
  0
LWPOLYLINE
  5
1f0
100
AcDbEntity
  8
Layer_1
 62
7
100
AcDbPolyline
 90
6
 70
0
 10
4.017864
 20
3.141623
 30
0.0
 10
3.946151
 20
2.121764
 30
0.0
 10
2.922985
 20
2.193698
 30
0.0
 10
2.994643
 20
3.213556
 30
0.0
 10
4.017864
 20
3.141623
 30
0.0
 10
4.017864
 20
3.141623
 30
0.0
  0
LWPOLYLINE
  5
1f1
100
AcDbEntity
  8
Layer_1
 62
7
100
AcDbPolyline
 90
6
 70
0
 10
2.853036
 20
3.150056
 30
0.0
 10
2.795324
 20
2.129261
 30
0.0
 10
1.771221
 20
2.187138
 30
0.0
 10
1.828933
 20
3.207934
 30
0.0
 10
2.853036
 20
3.150056
 30
0.0
 10
2.853036
 20
3.150056
 30
0.0
  0
LWPOLYLINE
  5
1f2
100
AcDbEntity
  8
Layer_1
 62
7
100
AcDbPolyline
 90
6
 70
0
 10
1.702870
 20
3.148569
 30
0.0
 10
1.656403
 20
2.127222
 30
0.0
 10
0.631749
 20
2.173800
 30
0.0
 10
0.678161
 20
3.195147
 30
0.0
 10
1.702870
 20
3.148569
 30
0.0
 10
1.702870
 20
3.148569
 30
0.0
  0
LWPOLYLINE
  5
1f3
100
AcDbEntity
  8
Layer_1
 62
7
100
AcDbPolyline
 90
3
 70
0
 10
7.610851
 20
3.058225
 30
0.0
 10
7.610851
 20
3.058225
 30
0.0
 10
7.610851
 20
3.058225
 30
0.0
  0
LWPOLYLINE
  5
1f4
100
AcDbEntity
  8
Layer_1
 62
7
100
AcDbPolyline
 90
6
 70
0
 10
8.861889
 20
2.276657
 30
0.0
 10
8.138804
 20
1.553793
 30
0.0
 10
7.413571
 20
2.279192
 30
0.0
 10
8.136655
 20
3.002056
 30
0.0
 10
8.861889
 20
2.276657
 30
0.0
 10
8.861889
 20
2.276657
 30
0.0
  0
LWPOLYLINE
  5
1f5
100
AcDbEntity
  8
Layer_1
 62
7
100
AcDbPolyline
 90
5
 70
0
 10
7.917381
 20
2.943296
 30
0.0
 10
7.590787
 20
2.616756
 30
0.0
 10
7.697446
 20
2.943296
 30
0.0
 10
7.917381
 20
2.943296
 30
0.0
 10
7.917381
 20
2.943296
 30
0.0
  0
LWPOLYLINE
  5
1f6
100
AcDbEntity
  8
Layer_1
 62
7
100
AcDbPolyline
 90
5
 70
0
 10
8.574210
 20
2.943296
 30
0.0
 10
8.680263
 20
2.619898
 30
0.0
 10
8.356920
 20
2.943296
 30
0.0
 10
8.574210
 20
2.943296
 30
0.0
 10
8.574210
 20
2.943296
 30
0.0
  0
LWPOLYLINE
  5
1f7
100
AcDbEntity
  8
Layer_1
 62
7
100
AcDbPolyline
 90
6
 70
0
 10
9.934499
 20
2.074967
 30
0.0
 10
9.603328
 20
1.363458
 30
0.0
 10
9.139922
 20
2.009042
 30
0.0
 10
9.908150
 20
2.260837
 30
0.0
 10
9.934499
 20
2.074967
 30
0.0
 10
9.934499
 20
2.074967
 30
0.0
  0
LWPOLYLINE
  5
1f8
100
AcDbEntity
  8
Layer_1
 62
7
100
AcDbPolyline
 90
9
 70
0
 10
7.123576
 20
2.011357
 30
0.0
 10
6.663201
 20
1.383026
 30
0.0
 10
6.382536
 20
1.998431
 30
0.0
 10
6.356838
 20
2.060088
 30
0.0
 10
6.349755
 20
2.126052
 30
0.0
 10
6.355339
 20
2.193325
 30
0.0
 10
6.367640
 20
2.258907
 30
0.0
 10
7.123576
 20
2.011357
 30
0.0
 10
7.123576
 20
2.011357
 30
0.0
  0
LWPOLYLINE
  5
1f9
100
AcDbEntity
  8
Layer_1
 62
7
100
AcDbPolyline
 90
9
 70
0
 10
5.940503
 20
2.036437
 30
0.0
 10
5.297455
 20
1.747049
 30
0.0
 10
5.207157
 20
2.073448
 30
0.0
 10
5.207914
 20
2.108135
 30
0.0
 10
5.215829
 20
2.133695
 30
0.0
 10
5.235021
 20
2.144877
 30
0.0
 10
5.269609
 20
2.136430
 30
0.0
 10
5.940503
 20
2.036437
 30
0.0
 10
5.940503
 20
2.036437
 30
0.0
  0
LWPOLYLINE
  5
1fa
100
AcDbEntity
  8
Layer_1
 62
7
100
AcDbPolyline
 90
8
 70
0
 10
11.060797
 20
2.120497
 30
0.0
 10
11.051922
 20
2.015085
 30
0.0
 10
11.027196
 20
1.912468
 30
0.0
 10
10.965712
 20
1.709732
 30
0.0
 10
10.304805
 20
2.018412
 30
0.0
 10
11.060576
 20
2.126616
 30
0.0
 10
11.060802
 20
2.120497
 30
0.0
 10
11.060797
 20
2.120497
 30
0.0
  0
LWPOLYLINE
  5
1fb
100
AcDbEntity
  8
Layer_1
 62
7
100
AcDbPolyline
 90
4
 70
0
 10
7.424595
 20
2.110796
 30
0.0
 10
7.434302
 20
2.101985
 30
0.0
 10
7.424595
 20
2.110796
 30
0.0
 10
7.424595
 20
2.110796
 30
0.0
  0
LWPOLYLINE
  5
1fc
100
AcDbEntity
  8
Layer_1
 62
7
100
AcDbPolyline
 90
7
 70
0
 10
4.756548
 20
2.026460
 30
0.0
 10
4.101814
 20
1.839984
 30
0.0
 10
4.075298
 20
1.965081
 30
0.0
 10
4.063209
 20
2.027706
 30
0.0
 10
4.058103
 20
2.090787
 30
0.0
 10
4.756548
 20
2.026460
 30
0.0
 10
4.756548
 20
2.026460
 30
0.0
  0
LWPOLYLINE
  5
1fd
100
AcDbEntity
  8
Layer_1
 62
7
100
AcDbPolyline
 90
8
 70
0
 10
12.215703
 20
2.078219
 30
0.0
 10
12.200810
 20
1.962193
 30
0.0
 10
12.175244
 20
1.847535
 30
0.0
 10
11.543551
 20
2.025854
 30
0.0
 10
12.215648
 20
2.086597
 30
0.0
 10
12.215704
 20
2.079542
 30
0.0
 10
12.215713
 20
2.078219
 30
0.0
 10
12.215703
 20
2.078219
 30
0.0
  0
LWPOLYLINE
  5
1fe
100
AcDbEntity
  8
Layer_1
 62
7
100
AcDbPolyline
 90
5
 70
0
 10
3.562395
 20
2.035610
 30
0.0
 10
2.930592
 20
1.906075
 30
0.0
 10
2.906393
 20
2.081747
 30
0.0
 10
3.562395
 20
2.035610
 30
0.0
 10
3.562395
 20
2.035610
 30
0.0
  0
LWPOLYLINE
  5
1ff
100
AcDbEntity
  8
Layer_1
 62
7
100
AcDbPolyline
 90
9
 70
0
 10
1.844477
 20
2.068077
 30
0.0
 10
2.374306
 20
2.039634
 30
0.0
 10
1.828757
 20
1.951288
 30
0.0
 10
1.794628
 20
1.944616
 30
0.0
 10
1.781712
 20
1.949485
 30
0.0
 10
1.780275
 20
1.966251
 30
0.0
 10
1.767693
 20
2.069565
 30
0.0
 10
1.844477
 20
2.068078
 30
0.0
 10
1.844477
 20
2.068077
 30
0.0
  0
LWPOLYLINE
  5
200
100
AcDbEntity
  8
Layer_1
 62
7
100
AcDbPolyline
 90
7
 70
0
 10
7.302997
 20
2.056004
 30
0.0
 10
8.122709
 20
1.453526
 30
0.0
 10
7.517144
 20
0.627475
 30
0.0
 10
6.692526
 20
1.231937
 30
0.0
 10
7.297816
 20
2.057713
 30
0.0
 10
7.302997
 20
2.056003
 30
0.0
 10
7.302997
 20
2.056004
 30
0.0
  0
LWPOLYLINE
  5
201
100
AcDbEntity
  8
Layer_1
 62
7
100
AcDbPolyline
 90
7
 70
0
 10
0.709746
 20
2.055011
 30
0.0
 10
1.176294
 20
2.036270
 30
0.0
 10
0.652915
 20
1.964667
 30
0.0
 10
0.648308
 20
2.010496
 30
0.0
 10
0.642773
 20
2.056169
 30
0.0
 10
0.709746
 20
2.055011
 30
0.0
 10
0.709746
 20
2.055011
 30
0.0
  0
LWPOLYLINE
  5
202
100
AcDbEntity
  8
Layer_1
 62
7
100
AcDbPolyline
 90
6
 70
0
 10
9.567610
 20
1.217605
 30
0.0
 10
8.736708
 20
0.621741
 30
0.0
 10
8.140183
 20
1.453580
 30
0.0
 10
8.969817
 20
2.051152
 30
0.0
 10
9.567610
 20
1.217605
 30
0.0
 10
9.567610
 20
1.217605
 30
0.0
  0
LWPOLYLINE
  5
203
100
AcDbEntity
  8
Layer_1
 62
7
100
AcDbPolyline
 90
6
 70
0
 10
6.658516
 20
1.113976
 30
0.0
 10
5.723214
 20
0.693013
 30
0.0
 10
5.303574
 20
1.625284
 30
0.0
 10
6.238931
 20
2.046302
 30
0.0
 10
6.658516
 20
1.113976
 30
0.0
 10
6.658516
 20
1.113976
 30
0.0
  0
LWPOLYLINE
  5
204
100
AcDbEntity
  8
Layer_1
 62
7
100
AcDbPolyline
 90
6
 70
0
 10
10.963728
 20
1.585376
 30
0.0
 10
10.531024
 20
0.658948
 30
0.0
 10
9.601620
 20
1.093085
 30
0.0
 10
10.034324
 20
2.019458
 30
0.0
 10
10.963728
 20
1.585376
 30
0.0
 10
10.963728
 20
1.585376
 30
0.0
  0
LWPOLYLINE
  5
205
100
AcDbEntity
  8
Layer_1
 62
7
100
AcDbPolyline
 90
6
 70
0
 10
12.157440
 20
1.734314
 30
0.0
 10
11.879627
 20
0.750340
 30
0.0
 10
10.892456
 20
1.029089
 30
0.0
 10
11.170268
 20
2.013063
 30
0.0
 10
12.157440
 20
1.734314
 30
0.0
 10
12.157440
 20
1.734314
 30
0.0
  0
LWPOLYLINE
  5
206
100
AcDbEntity
  8
Layer_1
 62
7
100
AcDbPolyline
 90
6
 70
0
 10
5.385539
 20
1.024018
 30
0.0
 10
4.399030
 20
0.743008
 30
0.0
 10
4.118902
 20
1.726376
 30
0.0
 10
5.105467
 20
2.007331
 30
0.0
 10
5.385539
 20
1.024018
 30
0.0
 10
5.385539
 20
1.024018
 30
0.0
  0
LWPOLYLINE
  5
207
100
AcDbEntity
  8
Layer_1
 62
7
100
AcDbPolyline
 90
6
 70
0
 10
4.159085
 20
0.998056
 30
0.0
 10
3.154275
 20
0.791901
 30
0.0
 10
2.948727
 20
1.793514
 30
0.0
 10
3.953592
 20
1.999669
 30
0.0
 10
4.159085
 20
0.998056
 30
0.0
 10
4.159085
 20
0.998056
 30
0.0
  0
LWPOLYLINE
  5
208
100
AcDbEntity
  8
Layer_1
 62
7
100
AcDbPolyline
 90
6
 70
0
 10
2.964216
 20
0.983779
 30
0.0
 10
1.951468
 20
0.820840
 30
0.0
 10
1.789025
 20
1.830391
 30
0.0
 10
2.801828
 20
1.993275
 30
0.0
 10
2.964216
 20
0.983779
 30
0.0
 10
2.964216
 20
0.983779
 30
0.0
  0
LWPOLYLINE
  5
209
100
AcDbEntity
  8
Layer_1
 62
7
100
AcDbPolyline
 90
6
 70
0
 10
1.798947
 20
0.973030
 30
0.0
 10
0.782286
 20
0.836825
 30
0.0
 10
0.646521
 20
1.850234
 30
0.0
 10
1.663183
 20
1.986385
 30
0.0
 10
1.798947
 20
0.973030
 30
0.0
 10
1.798947
 20
0.973030
 30
0.0
  0
LWPOLYLINE
  5
20a
100
AcDbEntity
  8
Layer_1
 62
7
100
AcDbPolyline
 90
9
 70
0
 10
8.368110
 20
0.943044
 30
0.0
 10
8.604141
 20
0.615071
 30
0.0
 10
8.406510
 20
0.606022
 30
0.0
 10
8.208701
 20
0.605105
 30
0.0
 10
7.813105
 20
0.608675
 30
0.0
 10
7.643703
 20
0.609118
 30
0.0
 10
8.131032
 20
1.273939
 30
0.0
 10
8.368110
 20
0.943045
 30
0.0
 10
8.368110
 20
0.943044
 30
0.0
  0
LWPOLYLINE
  5
20b
100
AcDbEntity
  8
Layer_1
 62
7
100
AcDbPolyline
 90
7
 70
0
 10
6.264011
 20
0.605701
 30
0.0
 10
5.917355
 20
0.606406
 30
0.0
 10
5.867328
 20
0.602419
 30
0.0
 10
5.818739
 20
0.611983
 30
0.0
 10
6.454732
 20
0.898009
 30
0.0
 10
6.264011
 20
0.605700
 30
0.0
 10
6.264011
 20
0.605701
 30
0.0
  0
LWPOLYLINE
  5
20c
100
AcDbEntity
  8
Layer_1
 62
7
100
AcDbPolyline
 90
6
 70
0
 10
9.937145
 20
0.812627
 30
0.0
 10
10.380377
 20
0.607244
 30
0.0
 10
9.972643
 20
0.605920
 30
0.0
 10
9.802317
 20
0.875630
 30
0.0
 10
9.937145
 20
0.812626
 30
0.0
 10
9.937145
 20
0.812627
 30
0.0
  0
LWPOLYLINE
  5
20d
100
AcDbEntity
  8
Layer_1
 62
7
100
AcDbPolyline
 90
8
 70
0
 10
11.829356
 20
0.648309
 30
0.0
 10
11.804967
 20
0.611504
 30
0.0
 10
11.786779
 20
0.603532
 30
0.0
 10
11.762714
 20
0.605701
 30
0.0
 10
11.477626
 20
0.605701
 30
0.0
 10
11.176276
 20
0.832801
 30
0.0
 10
11.829356
 20
0.648309
 30
0.0
 10
11.829356
 20
0.648309
 30
0.0
  0
LWPOLYLINE
  5
20e
100
AcDbEntity
  8
Layer_1
 62
7
100
AcDbPolyline
 90
8
 70
0
 10
4.809795
 20
0.605701
 30
0.0
 10
4.478129
 20
0.606418
 30
0.0
 10
4.454363
 20
0.629929
 30
0.0
 10
4.453977
 20
0.642083
 30
0.0
 10
4.470098
 20
0.646833
 30
0.0
 10
5.102545
 20
0.827014
 30
0.0
 10
4.809795
 20
0.605701
 30
0.0
 10
4.809795
 20
0.605701
 30
0.0
  0
LWPOLYLINE
  5
20f
100
AcDbEntity
  8
Layer_1
 62
7
100
AcDbPolyline
 90
11
 70
0
 10
3.727594
 20
0.766600
 30
0.0
 10
3.567896
 20
0.679072
 30
0.0
 10
3.486986
 20
0.638219
 30
0.0
 10
3.399975
 20
0.611852
 30
0.0
 10
3.315544
 20
0.602057
 30
0.0
 10
3.231390
 20
0.606638
 30
0.0
 10
3.203470
 20
0.641443
 30
0.0
 10
3.188891
 20
0.684745
 30
0.0
 10
3.821521
 20
0.814501
 30
0.0
 10
3.727594
 20
0.766600
 30
0.0
 10
3.727594
 20
0.766600
 30
0.0
  0
LWPOLYLINE
  5
210
100
AcDbEntity
  8
Layer_1
 62
7
100
AcDbPolyline
 90
16
 70
0
 10
2.559459
 20
0.799287
 30
0.0
 10
2.443336
 20
0.757403
 30
0.0
 10
2.329997
 20
0.708145
 30
0.0
 10
2.216584
 20
0.659685
 30
0.0
 10
2.100241
 20
0.620198
 30
0.0
 10
2.053753
 20
0.609117
 30
0.0
 10
2.032056
 20
0.607681
 30
0.0
 10
2.018196
 20
0.619354
 30
0.0
 10
2.010116
 20
0.648615
 30
0.0
 10
1.995728
 20
0.681745
 30
0.0
 10
1.991952
 20
0.708368
 30
0.0
 10
1.999333
 20
0.715998
 30
0.0
 10
2.015712
 20
0.718112
 30
0.0
 10
2.587460
 20
0.810091
 30
0.0
 10
2.559459
 20
0.799288
 30
0.0
 10
2.559459
 20
0.799287
 30
0.0
  0
LWPOLYLINE
  5
211
100
AcDbEntity
  8
Layer_1
 62
7
100
AcDbPolyline
 90
9
 70
0
 10
13.083206
 20
0.671130
 30
0.0
 10
13.064218
 20
0.623771
 30
0.0
 10
13.048955
 20
0.607520
 30
0.0
 10
13.024228
 20
0.606145
 30
0.0
 10
12.922737
 20
0.605355
 30
0.0
 10
12.822229
 20
0.609122
 30
0.0
 10
12.450025
 20
0.802705
 30
0.0
 10
13.083206
 20
0.671130
 30
0.0
 10
13.083206
 20
0.671130
 30
0.0
  0
LWPOLYLINE
  5
212
100
AcDbEntity
  8
Layer_1
 62
7
100
AcDbPolyline
 90
10
 70
0
 10
1.354171
 20
0.799288
 30
0.0
 10
1.100610
 20
0.719339
 30
0.0
 10
0.848321
 20
0.635633
 30
0.0
 10
0.829110
 20
0.697453
 30
0.0
 10
0.827107
 20
0.723548
 30
0.0
 10
0.834711
 20
0.730888
 30
0.0
 10
0.850606
 20
0.732706
 30
0.0
 10
1.359187
 20
0.800942
 30
0.0
 10
1.354171
 20
0.799288
 30
0.0
 10
1.354171
 20
0.799288
 30
0.0
  0
ENDSEC
  0
SECTION
  2
OBJECTS
  0
DICTIONARY
  5
C
330
0
100
AcDbDictionary
  3
ACAD_GROUP
350
D
  3
ACAD_MLINESTYLE
350
17
  0
DICTIONARY
  5
D
330
C
100
AcDbDictionary
  0
DICTIONARY
  5
1A
330
C
100
AcDbDictionary
  0
DICTIONARY
  5
17
330
C
100
AcDbDictionary
  3
STANDARD
350
18
  0
DICTIONARY
  5
19
330
C
100
AcDbDictionary
  0
ENDSEC
  0
EOF
