  0
SECTION
  2
HEADER
  9
$ACADVER
  1
AC1014
  9
$HANDSEED
  5
FFFF
  9
$MEASUREMENT
 70
     1
  0
ENDSEC
  0
SECTION
  2
TABLES
  0
TABLE
  2
VPORT
  5
8
330
0
100
AcDbSymbolTable
 70
     4
  0
VPORT
  5
2E
330
8
100
AcDbSymbolTableRecord
100
AcDbViewportTableRecord
  2
*ACTIVE
 70
     0
 10
0.0
 20
0.0
 11
1.0
 21
1.0
 12
210.0
 22
148.5
 13
0.0
 23
0.0
 14
10.0
 24
10.0
 15
10.0
 25
10.0
 16
0.0
 26
0.0
 36
1.0
 17
0.0
 27
0.0
 37
0.0
 40
341.0
 41
1.24
 42
50.0
 43
0.0
 44
0.0
 50
0.0
 51
0.0
 71
     0
 72
   100
 73
     1
 74
     3
 75
     0
 76
     0
 77
     0
 78
     0
  0
ENDTAB
  0
TABLE
  2
LTYPE
  5
5
330
0
100
AcDbSymbolTable
 70
     1
  0
LTYPE
  5
14
330
5
100
AcDbSymbolTableRecord
100
AcDbLinetypeTableRecord
  2
BYBLOCK
 70
     0
  3

 72
    65
 73
     0
 40
0.0
  0
LTYPE
  5
15
330
5
100
AcDbSymbolTableRecord
100
AcDbLinetypeTableRecord
  2
BYLAYER
 70
     0
  3

 72
    65
 73
     0
 40
0.0
  0
LTYPE
  5
16
330
5
100
AcDbSymbolTableRecord
100
AcDbLinetypeTableRecord
  2
CONTINUOUS
 70
     0
  3
Solid line
 72
    65
 73
     0
 40
0.0
  0
ENDTAB
  0
TABLE
  2
LAYER
  5
2
100
AcDbSymbolTable
 70
2
  0
LAYER
  5
50
100
AcDbSymbolTableRecord
100
AcDbLayerTableRecord
  2
0
 70
0
  6
CONTINUOUS
  0
LAYER
  5
51
100
AcDbSymbolTableRecord
100
AcDbLayerTableRecord
  2
Layer_1
 70
0
  6
CONTINUOUS
  0
ENDTAB
  0
TABLE
  2
STYLE
  5
3
330
0
100
AcDbSymbolTable
 70
     1
  0
STYLE
  5
11
330
3
100
AcDbSymbolTableRecord
100
AcDbTextStyleTableRecord
  2
STANDARD
 70
     0
 40
0.0
 41
1.0
 50
0.0
 71
     0
 42
2.5
  3
txt
  4

  0
ENDTAB
  0
TABLE
  2
VIEW
  5
6
330
0
100
AcDbSymbolTable
 70
     0
  0
ENDTAB
  0
TABLE
  2
UCS
  5
7
330
0
100
AcDbSymbolTable
 70
     0
  0
ENDTAB
  0
TABLE
  2
APPID
  5
9
330
0
100
AcDbSymbolTable
 70
     2
  0
APPID
  5
12
330
9
100
AcDbSymbolTableRecord
100
AcDbRegAppTableRecord
  2
ACAD
 70
     0
  0
ENDTAB
  0
TABLE
  2
DIMSTYLE
  5
A
330
0
100
AcDbSymbolTable
 70
     1
  0
DIMSTYLE
105
27
330
A
100
AcDbSymbolTableRecord
100
AcDbDimStyleTableRecord
  2
ISO-25
 70
     0
  3

  4

  5

  6

  7

 40
1.0
 41
2.5
 42
0.625
 43
3.75
 44
1.25
 45
0.0
 46
0.0
 47
0.0
 48
0.0
140
2.5
141
2.5
142
0.0
143
0.03937007874016
144
1.0
145
0.0
146
1.0
147
0.625
 71
     0
 72
     0
 73
     0
 74
     0
 75
     0
 76
     0
 77
     1
 78
     8
170
     0
171
     3
172
     1
173
     0
174
     0
175
     0
176
     0
177
     0
178
     0
270
     2
271
     2
272
     2
273
     2
274
     3
340
11
275
     0
280
     0
281
     0
282
     0
283
     0
284
     8
285
     0
286
     0
287
     3
288
     0
  0
ENDTAB
  0
TABLE
  2
BLOCK_RECORD
  5
1
330
0
100
AcDbSymbolTable
 70
     1
  0
BLOCK_RECORD
  5
1F
330
1
100
AcDbSymbolTableRecord
100
AcDbBlockTableRecord
  2
*MODEL_SPACE
  0
BLOCK_RECORD
  5
1B
330
1
100
AcDbSymbolTableRecord
100
AcDbBlockTableRecord
  2
*PAPER_SPACE
  0
ENDTAB
  0
ENDSEC
  0
SECTION
  2
BLOCKS
  0
BLOCK
  5
20
330
1F
100
AcDbEntity
  8
0
100
AcDbBlockBegin
  2
*MODEL_SPACE
 70
     0
 10
0.0
 20
0.0
 30
0.0
  3
*MODEL_SPACE
  1

  0
ENDBLK
  5
21
330
1F
100
AcDbEntity
  8
0
100
AcDbBlockEnd
  0
BLOCK
  5
1C
330
1B
100
AcDbEntity
 67
     1
  8
0
100
AcDbBlockBegin
  2
*PAPER_SPACE
  1

  0
ENDBLK
  5
1D
330
1B
100
AcDbEntity
 67
     1
  8
0
100
AcDbBlockEnd
  0
ENDSEC
  0
SECTION
  2
ENTITIES
  0
LWPOLYLINE
  5
100
100
AcDbEntity
  8
Layer_1
 62
7
100
AcDbPolyline
 90
436
 70
0
 10
0.108843
 20
20.506891
 30
0.0
 10
0.098857
 20
20.492199
 30
0.0
 10
0.096155
 20
20.465836
 30
0.0
 10
0.087974
 20
20.404383
 30
0.0
 10
-0.007022
 20
19.802327
 30
0.0
 10
-0.007022
 20
19.427942
 30
0.0
 10
0.019864
 20
19.437005
 30
0.0
 10
0.040867
 20
19.454408
 30
0.0
 10
0.053809
 20
19.478311
 30
0.0
 10
0.056509
 20
19.506876
 30
0.0
 10
0.194667
 20
20.353487
 30
0.0
 10
0.194857
 20
20.372566
 30
0.0
 10
0.202761
 20
20.387696
 30
0.0
 10
0.216994
 20
20.396189
 30
0.0
 10
0.236170
 20
20.395359
 30
0.0
 10
0.272509
 20
20.393417
 30
0.0
 10
0.282448
 20
20.385396
 30
0.0
 10
0.278609
 20
20.365348
 30
0.0
 10
0.202770
 20
19.545516
 30
0.0
 10
1.007820
 20
19.471653
 30
0.0
 10
0.229284
 20
19.249789
 30
0.0
 10
0.475126
 20
18.384767
 30
0.0
 10
-0.007022
 20
18.034304
 30
0.0
 10
-0.007022
 20
17.894847
 30
0.0
 10
0.605378
 20
18.339622
 30
0.0
 10
0.368245
 20
19.172013
 30
0.0
 10
1.354755
 20
19.452967
 30
0.0
 10
1.634883
 20
18.469654
 30
0.0
 10
0.695998
 20
18.202205
 30
0.0
 10
0.961684
 20
17.836473
 30
0.0
 10
1.680358
 20
18.380082
 30
0.0
 10
2.297168
 20
17.564614
 30
0.0
 10
1.479054
 20
16.945819
 30
0.0
 10
1.107700
 20
17.436732
 30
0.0
 10
0.374915
 20
16.904533
 30
0.0
 10
-0.007022
 20
17.430338
 30
0.0
 10
-0.005315
 20
17.110357
 30
0.0
 10
0.253867
 20
16.808732
 30
0.0
 10
-0.007024
 20
16.581356
 30
0.0
 10
-0.005150
 20
16.315450
 30
0.0
 10
0.623236
 20
15.635581
 30
0.0
 10
-0.007024
 20
15.053056
 30
0.0
 10
-0.007024
 20
14.898055
 30
0.0
 10
0.506488
 20
15.391392
 30
0.0
 10
1.217170
 20
14.651717
 30
0.0
 10
0.479864
 20
13.943350
 30
0.0
 10
-0.007024
 20
14.450082
 30
0.0
 10
-0.004543
 20
14.158434
 30
0.0
 10
0.375354
 20
13.832721
 30
0.0
 10
-0.007024
 20
13.384142
 30
0.0
 10
-0.007024
 20
13.213486
 30
0.0
 10
0.168649
 20
13.418538
 30
0.0
 10
0.531881
 20
13.069444
 30
0.0
 10
0.891512
 20
12.716675
 30
0.0
 10
0.166940
 20
11.769632
 30
0.0
 10
0.164957
 20
11.744993
 30
0.0
 10
0.175538
 20
11.723356
 30
0.0
 10
0.214014
 20
11.691580
 30
0.0
 10
-0.007024
 20
11.666169
 30
0.0
 10
-0.008056
 20
11.604649
 30
0.0
 10
-0.007797
 20
11.574762
 30
0.0
 10
-0.000017
 20
11.553342
 30
0.0
 10
0.228456
 20
11.579518
 30
0.0
 10
0.344983
 20
10.563739
 30
0.0
 10
-0.007024
 20
10.523335
 30
0.0
 10
-0.008057
 20
10.461821
 30
0.0
 10
-0.007798
 20
10.431931
 30
0.0
 10
-0.000012
 20
10.410458
 30
0.0
 10
0.420113
 20
10.457850
 30
0.0
 10
0.443646
 20
10.467750
 30
0.0
 10
0.460230
 20
10.485796
 30
0.0
 10
0.467353
 20
10.509021
 30
0.0
 10
0.462504
 20
10.534460
 30
0.0
 10
0.340738
 20
11.595614
 30
0.0
 10
1.061121
 20
11.042580
 30
0.0
 10
0.607802
 20
10.334378
 30
0.0
 10
1.072036
 20
10.036942
 30
0.0
 10
0.572193
 20
10.269500
 30
0.0
 10
0.354408
 20
9.801518
 30
0.0
 10
0.450044
 20
10.167194
 30
0.0
 10
-0.007024
 20
10.287029
 30
0.0
 10
-0.007759
 20
10.225380
 30
0.0
 10
-0.001732
 20
10.168958
 30
0.0
 10
0.311964
 20
10.086938
 30
0.0
 10
0.053224
 20
9.097727
 30
0.0
 10
0.021124
 20
9.109097
 30
0.0
 10
-0.000385
 20
9.106757
 30
0.0
 10
-0.010151
 20
9.089208
 30
0.0
 10
-0.007024
 20
9.054952
 30
0.0
 10
-0.005635
 20
8.645096
 30
0.0
 10
0.005612
 20
8.649211
 30
0.0
 10
0.016279
 20
8.677902
 30
0.0
 10
0.036014
 20
8.744265
 30
0.0
 10
0.092582
 20
8.926684
 30
0.0
 10
1.072367
 20
8.622855
 30
0.0
 10
0.769474
 20
7.646266
 30
0.0
 10
-0.007023
 20
7.887148
 30
0.0
 10
-0.007704
 20
7.825123
 30
0.0
 10
-0.002062
 20
7.767754
 30
0.0
 10
0.181879
 20
7.710648
 30
0.0
 10
-0.007023
 20
7.742343
 30
0.0
 10
-0.007862
 20
7.681537
 30
0.0
 10
-0.001125
 20
7.627139
 30
0.0
 10
0.735685
 20
7.503447
 30
0.0
 10
0.566407
 20
6.495053
 30
0.0
 10
-0.007023
 20
6.591296
 30
0.0
 10
-0.007023
 20
6.367612
 30
0.0
 10
0.552130
 20
6.348816
 30
0.0
 10
0.517734
 20
5.326973
 30
0.0
 10
-0.007023
 20
5.344557
 30
0.0
 10
-0.007023
 20
5.127488
 30
0.0
 10
0.522365
 20
5.180019
 30
0.0
 10
0.623347
 20
4.162531
 30
0.0
 10
-0.007023
 20
4.099968
 30
0.0
 10
-0.008068
 20
4.038786
 30
0.0
 10
-0.007831
 20
4.009035
 30
0.0
 10
-0.000001
 20
3.987666
 30
0.0
 10
0.035859
 20
3.991054
 30
0.0
 10
0.038355
 20
3.990805
 30
0.0
 10
-0.007023
 20
3.973299
 30
0.0
 10
-0.008213
 20
3.911707
 30
0.0
 10
-0.007701
 20
3.882308
 30
0.0
 10
0.001687
 20
3.864103
 30
0.0
 10
0.647491
 20
4.017506
 30
0.0
 10
0.883796
 20
3.022783
 30
0.0
 10
-0.007023
 20
2.811171
 30
0.0
 10
-0.007996
 20
2.748566
 30
0.0
 10
-0.007665
 20
2.718294
 30
0.0
 10
-0.000153
 20
2.697080
 30
0.0
 10
0.340243
 20
2.778043
 30
0.0
 10
-0.007023
 20
2.644153
 30
0.0
 10
-0.007023
 20
2.522500
 30
0.0
 10
0.927398
 20
2.882885
 30
0.0
 10
1.295224
 20
1.928841
 30
0.0
 10
0.338149
 20
1.559802
 30
0.0
 10
-0.000177
 20
2.431969
 30
0.0
 10
-0.006706
 20
2.417742
 30
0.0
 10
-0.007651
 20
2.388292
 30
0.0
 10
-0.007023
 20
2.325330
 30
0.0
 10
-0.007980
 20
2.220988
 30
0.0
 10
-0.007504
 20
2.168974
 30
0.0
 10
0.000138
 20
2.118140
 30
0.0
 10
0.073234
 20
1.901777
 30
0.0
 10
0.013051
 20
1.882463
 30
0.0
 10
-0.007265
 20
1.865794
 30
0.0
 10
-0.007023
 20
1.834363
 30
0.0
 10
-0.007023
 20
1.698433
 30
0.0
 10
0.129183
 20
1.763421
 30
0.0
 10
0.569438
 20
0.840687
 30
0.0
 10
-0.007023
 20
0.565686
 30
0.0
 10
-0.009284
 20
0.531109
 30
0.0
 10
-0.003712
 20
0.504366
 30
0.0
 10
0.014316
 20
0.490079
 30
0.0
 10
0.049422
 20
0.492870
 30
0.0
 10
0.299618
 20
0.493974
 30
0.0
 10
0.641592
 20
0.710270
 30
0.0
 10
0.711138
 20
0.599509
 30
0.0
 10
0.782924
 20
0.492871
 30
0.0
 10
0.847588
 20
0.492034
 30
0.0
 10
0.878570
 20
0.492416
 30
0.0
 10
0.898985
 20
0.499060
 30
0.0
 10
0.458148
 20
1.301504
 30
0.0
 10
1.357125
 20
1.795393
 30
0.0
 10
1.849471
 20
0.899337
 30
0.0
 10
1.109960
 20
0.492981
 30
0.0
 10
1.547680
 20
0.494248
 30
0.0
 10
1.928790
 20
0.775589
 30
0.0
 10
2.034022
 20
0.632425
 30
0.0
 10
2.141063
 20
0.492870
 30
0.0
 10
2.206521
 20
0.492090
 30
0.0
 10
2.237788
 20
0.492495
 30
0.0
 10
2.258225
 20
0.498796
 30
0.0
 10
1.743913
 20
1.292684
 30
0.0
 10
2.604801
 20
1.850404
 30
0.0
 10
3.160701
 20
0.992272
 30
0.0
 10
2.389772
 20
0.492870
 30
0.0
 10
2.818342
 20
0.494634
 30
0.0
 10
3.248345
 20
0.877564
 30
0.0
 10
3.594067
 20
0.492870
 30
0.0
 10
3.659184
 20
0.491495
 30
0.0
 10
3.688425
 20
0.492404
 30
0.0
 10
3.695725
 20
0.496383
 30
0.0
 10
3.695673
 20
0.503900
 30
0.0
 10
3.077027
 20
1.280778
 30
0.0
 10
3.879431
 20
1.919746
 30
0.0
 10
4.516360
 20
1.119933
 30
0.0
 10
3.728894
 20
0.492870
 30
0.0
 10
4.155810
 20
0.495295
 30
0.0
 10
4.613760
 20
1.018288
 30
0.0
 10
5.216404
 20
0.492869
 30
0.0
 10
5.614546
 20
0.492869
 30
0.0
 10
6.072165
 20
1.250239
 30
0.0
 10
6.947275
 20
0.721569
 30
0.0
 10
6.809140
 20
0.492869
 30
0.0
 10
7.012594
 20
0.492869
 30
0.0
 10
7.070416
 20
0.664297
 30
0.0
 10
7.586684
 20
0.492869
 30
0.0
 10
7.795666
 20
0.492479
 30
0.0
 10
8.004218
 20
0.495960
 30
0.0
 10
7.985809
 20
0.508216
 30
0.0
 10
7.955318
 20
0.517815
 30
0.0
 10
7.890495
 20
0.535345
 30
0.0
 10
7.358426
 20
0.684913
 30
0.0
 10
7.635963
 20
1.672360
 30
0.0
 10
8.620268
 20
1.395705
 30
0.0
 10
8.366489
 20
0.492869
 30
0.0
 10
8.739772
 20
0.492869
 30
0.0
 10
8.741481
 20
1.379609
 30
0.0
 10
9.763820
 20
1.377735
 30
0.0
 10
9.762166
 20
0.492980
 30
0.0
 10
10.135780
 20
0.492980
 30
0.0
 10
9.884867
 20
1.393555
 30
0.0
 10
10.869778
 20
1.667950
 30
0.0
 10
11.145055
 20
0.679731
 30
0.0
 10
10.518177
 20
0.503465
 30
0.0
 10
10.526059
 20
0.493878
 30
0.0
 10
10.556494
 20
0.492167
 30
0.0
 10
10.625038
 20
0.492980
 30
0.0
 10
10.946634
 20
0.495618
 30
0.0
 10
11.442821
 20
0.662864
 30
0.0
 10
11.500038
 20
0.492979
 30
0.0
 10
11.703105
 20
0.492979
 30
0.0
 10
11.566018
 20
0.720300
 30
0.0
 10
12.441403
 20
1.248309
 30
0.0
 10
12.896983
 20
0.492979
 30
0.0
 10
13.305653
 20
0.494743
 30
0.0
 10
13.890162
 20
1.004672
 30
0.0
 10
14.007020
 20
0.870727
 30
0.0
 10
14.004375
 20
1.092977
 30
0.0
 10
13.995146
 20
1.110981
 30
0.0
 10
14.002378
 20
1.134499
 30
0.0
 10
14.011269
 20
1.161481
 30
0.0
 10
14.007020
 20
1.189881
 30
0.0
 10
14.005089
 20
1.447960
 30
0.0
 10
13.656611
 20
1.815455
 30
0.0
 10
14.007019
 20
1.577881
 30
0.0
 10
14.007436
 20
1.647491
 30
0.0
 10
14.003932
 20
1.715023
 30
0.0
 10
13.379901
 20
2.138191
 30
0.0
 10
13.953826
 20
2.984362
 30
0.0
 10
13.982500
 20
2.962012
 30
0.0
 10
14.001129
 20
2.958603
 30
0.0
 10
14.009404
 20
2.974728
 30
0.0
 10
14.007019
 20
3.010985
 30
0.0
 10
14.006358
 20
3.418223
 30
0.0
 10
13.630374
 20
2.697069
 30
0.0
 10
12.720483
 20
3.170452
 30
0.0
 10
13.192213
 20
4.077477
 30
0.0
 10
14.007020
 20
3.653647
 30
0.0
 10
14.007529
 20
3.720042
 30
0.0
 10
14.003216
 20
3.783514
 30
0.0
 10
13.574536
 20
4.006866
 30
0.0
 10
14.007020
 20
3.916798
 30
0.0
 10
14.007819
 20
3.977673
 30
0.0
 10
14.001397
 20
4.032663
 30
0.0
 10
13.232838
 20
4.192516
 30
0.0
 10
13.441087
 20
5.193578
 30
0.0
 10
14.007020
 20
5.075838
 30
0.0
 10
14.007811
 20
5.137010
 30
0.0
 10
14.001397
 20
5.192310
 30
0.0
 10
13.864255
 20
5.220863
 30
0.0
 10
14.007020
 20
5.230013
 30
0.0
 10
14.008070
 20
5.291237
 30
0.0
 10
14.007836
 20
5.321044
 30
0.0
 10
13.999976
 20
5.342763
 30
0.0
 10
13.448694
 20
5.307348
 30
0.0
 10
13.383209
 20
6.327703
 30
0.0
 10
14.007020
 20
6.367776
 30
0.0
 10
14.008069
 20
6.429054
 30
0.0
 10
14.007832
 20
6.458885
 30
0.0
 10
13.999976
 20
6.480637
 30
0.0
 10
13.748445
 20
6.464515
 30
0.0
 10
14.007020
 20
6.555686
 30
0.0
 10
14.007908
 20
6.620384
 30
0.0
 10
14.007492
 20
6.651519
 30
0.0
 10
14.000362
 20
6.673184
 30
0.0
 10
13.358846
 20
6.447041
 30
0.0
 10
13.018966
 20
7.411337
 30
0.0
 10
13.986349
 20
7.752319
 30
0.0
 10
13.998770
 20
7.721891
 30
0.0
 10
14.005593
 20
7.730759
 30
0.0
 10
14.007020
 20
7.791400
 30
0.0
 10
14.007607
 20
7.875906
 30
0.0
 10
14.002917
 20
7.959100
 30
0.0
 10
13.737916
 20
8.464654
 30
0.0
 10
14.007020
 20
8.605710
 30
0.0
 10
14.007020
 20
8.867593
 30
0.0
 10
13.661959
 20
8.577433
 30
0.0
 10
13.003918
 20
9.359993
 30
0.0
 10
13.789014
 20
10.020184
 30
0.0
 10
14.007020
 20
9.761002
 30
0.0
 10
14.005089
 20
9.933092
 30
0.0
 10
13.585780
 20
10.372410
 30
0.0
 10
14.007019
 20
10.777333
 30
0.0
 10
14.007019
 20
10.930075
 30
0.0
 10
13.847607
 20
10.777995
 30
0.0
 10
14.007019
 20
10.998867
 30
0.0
 10
14.007019
 20
11.188264
 30
0.0
 10
13.479726
 20
10.465125
 30
0.0
 10
12.653509
 20
11.067603
 30
0.0
 10
13.257972
 20
11.896466
 30
0.0
 10
14.007019
 20
11.350211
 30
0.0
 10
14.007426
 20
11.419573
 30
0.0
 10
14.004042
 20
11.486968
 30
0.0
 10
13.231183
 20
12.035648
 30
0.0
 10
13.825007
 20
12.872117
 30
0.0
 10
14.007019
 20
12.742857
 30
0.0
 10
14.007452
 20
12.810521
 30
0.0
 10
14.003987
 20
12.876141
 30
0.0
 10
13.791714
 20
13.022709
 30
0.0
 10
14.007019
 20
13.336571
 30
0.0
 10
14.006138
 20
13.765747
 30
0.0
 10
13.665542
 20
13.097894
 30
0.0
 10
12.754163
 20
13.561246
 30
0.0
 10
13.219003
 20
14.475657
 30
0.0
 10
14.007020
 20
14.075034
 30
0.0
 10
14.007545
 20
14.140905
 30
0.0
 10
14.003162
 20
14.203742
 30
0.0
 10
13.170000
 20
14.627351
 30
0.0
 10
12.918370
 20
14.132966
 30
0.0
 10
13.101153
 20
14.657062
 30
0.0
 10
12.482634
 20
14.872697
 30
0.0
 10
12.789771
 20
15.987530
 30
0.0
 10
11.587130
 20
16.319307
 30
0.0
 10
11.455279
 20
15.840631
 30
0.0
 10
11.505385
 20
16.180070
 30
0.0
 10
11.562899
 20
16.485411
 30
0.0
 10
11.610225
 20
16.792833
 30
0.0
 10
11.690317
 20
17.322188
 30
0.0
 10
12.162047
 20
17.226276
 30
0.0
 10
12.197117
 20
17.227005
 30
0.0
 10
12.228554
 20
17.241171
 30
0.0
 10
12.250565
 20
17.266706
 30
0.0
 10
12.257358
 20
17.301542
 30
0.0
 10
12.369800
 20
17.861001
 30
0.0
 10
12.487485
 20
17.128436
 30
0.0
 10
13.209081
 20
17.244687
 30
0.0
 10
12.529873
 20
16.975198
 30
0.0
 10
12.989917
 20
15.814945
 30
0.0
 10
13.668794
 20
16.084213
 30
0.0
 10
13.064222
 20
15.674826
 30
0.0
 10
13.764320
 20
14.641077
 30
0.0
 10
13.887624
 20
14.724075
 30
0.0
 10
14.007020
 20
14.809142
 30
0.0
 10
14.007020
 20
14.942150
 30
0.0
 10
13.793975
 20
14.798063
 30
0.0
 10
13.220987
 20
15.644840
 30
0.0
 10
14.007020
 20
16.176652
 30
0.0
 10
14.007020
 20
16.339757
 30
0.0
 10
13.053252
 20
15.961348
 30
0.0
 10
12.676111
 20
16.911698
 30
0.0
 10
13.629548
 20
17.290052
 30
0.0
 10
14.000196
 20
16.360901
 30
0.0
 10
14.006710
 20
16.374796
 30
0.0
 10
14.007647
 20
16.404312
 30
0.0
 10
14.007020
 20
16.467584
 30
0.0
 10
14.007571
 20
16.577059
 30
0.0
 10
14.003007
 20
16.685297
 30
0.0
 10
13.918109
 20
16.849466
 30
0.0
 10
13.975892
 20
16.877032
 30
0.0
 10
14.000353
 20
16.893519
 30
0.0
 10
14.007020
 20
16.920848
 30
0.0
 10
14.008943
 20
16.987646
 30
0.0
 10
14.005367
 20
17.013608
 30
0.0
 10
13.997657
 20
17.016873
 30
0.0
 10
13.984175
 20
17.010669
 30
0.0
 10
13.926537
 20
16.978905
 30
0.0
 10
13.898764
 20
16.965834
 30
0.0
 10
13.878019
 20
16.971648
 30
0.0
 10
13.819276
 20
17.121270
 30
0.0
 10
14.007020
 20
17.159800
 30
0.0
 10
14.008010
 20
17.222091
 30
0.0
 10
14.007698
 20
17.252245
 30
0.0
 10
14.000112
 20
17.273458
 30
0.0
 10
13.783502
 20
17.229033
 30
0.0
 10
13.578064
 20
18.230646
 30
0.0
 10
14.007020
 20
18.318675
 30
0.0
 10
14.008009
 20
18.380992
 30
0.0
 10
14.007696
 20
18.411159
 30
0.0
 10
14.000112
 20
18.432388
 30
0.0
 10
13.559929
 20
18.342101
 30
0.0
 10
13.535455
 20
18.518545
 30
0.0
 10
14.006910
 20
18.485417
 30
0.0
 10
14.007837
 20
18.546231
 30
0.0
 10
14.007444
 20
18.575844
 30
0.0
 10
14.000350
 20
18.599243
 30
0.0
 10
13.552157
 20
18.630773
 30
0.0
 10
13.623870
 20
19.650687
 30
0.0
 10
14.006910
 20
19.623787
 30
0.0
 10
14.007836
 20
19.684628
 30
0.0
 10
14.007442
 20
19.714253
 30
0.0
 10
14.000350
 20
19.737668
 30
0.0
 10
13.631312
 20
19.764292
 30
0.0
 10
13.680480
 20
19.933129
 30
0.0
 10
14.006910
 20
19.816327
 30
0.0
 10
14.007540
 20
19.879013
 30
0.0
 10
14.002224
 20
19.937539
 30
0.0
 10
13.705230
 20
20.043703
 30
0.0
 10
13.870815
 20
20.507110
 30
0.0
 10
13.723420
 20
20.507110
 30
0.0
 10
13.503705
 20
19.721463
 30
0.0
 10
12.515817
 20
19.997842
 30
0.0
 10
12.658306
 20
20.507110
 30
0.0
 10
8.370899
 20
20.507110
 30
0.0
 10
8.448951
 20
19.643631
 30
0.0
 10
7.427329
 20
19.551302
 30
0.0
 10
7.340953
 20
20.507110
 30
0.0
 10
7.193448
 20
20.507110
 30
0.0
 10
7.309810
 20
19.685578
 30
0.0
 10
6.294251
 20
19.541656
 30
0.0
 10
6.157439
 20
20.507110
 30
0.0
 10
5.982373
 20
20.507110
 30
0.0
 10
6.201261
 20
19.839864
 30
0.0
 10
5.226712
 20
19.520104
 30
0.0
 10
4.910149
 20
20.486494
 30
0.0
 10
4.923461
 20
20.503462
 30
0.0
 10
4.907149
 20
20.505401
 30
0.0
 10
4.848633
 20
20.500660
 30
0.0
 10
3.873478
 20
20.502038
 30
0.0
 10
3.850158
 20
20.506815
 30
0.0
 10
3.850979
 20
20.496077
 30
0.0
 10
3.856270
 20
20.474390
 30
0.0
 10
3.846364
 20
20.446316
 30
0.0
 10
3.541482
 20
19.519993
 30
0.0
 10
2.568090
 20
19.838595
 30
0.0
 10
2.786813
 20
20.507054
 30
0.0
 10
2.621724
 20
20.507054
 30
0.0
 10
2.479675
 20
19.553120
 30
0.0
 10
1.465164
 20
19.704154
 30
0.0
 10
1.584612
 20
20.507054
 30
0.0
 10
1.434020
 20
20.507054
 30
0.0
 10
1.345881
 20
19.553176
 30
0.0
 10
0.324479
 20
19.647544
 30
0.0
 10
0.403854
 20
20.507054
 30
0.0
 10
0.108843
 20
20.506885
 30
0.0
 10
0.108843
 20
20.506891
 30
0.0
  0
LWPOLYLINE
  5
101
100
AcDbEntity
  8
Layer_1
 62
7
100
AcDbPolyline
 90
6
 70
0
 10
5.111232
 20
19.722236
 30
0.0
 10
4.388148
 20
18.999372
 30
0.0
 10
3.662914
 20
19.724771
 30
0.0
 10
4.385998
 20
20.447690
 30
0.0
 10
5.111232
 20
19.722236
 30
0.0
 10
5.111232
 20
19.722236
 30
0.0
  0
LWPOLYLINE
  5
102
100
AcDbEntity
  8
Layer_1
 62
7
100
AcDbPolyline
 90
22
 70
0
 10
12.510360
 20
20.394332
 30
0.0
 10
12.377352
 20
19.919460
 30
0.0
 10
13.080317
 20
19.723007
 30
0.0
 10
12.351996
 20
19.764018
 30
0.0
 10
12.281881
 20
18.517444
 30
0.0
 10
13.009100
 20
18.476544
 30
0.0
 10
12.475358
 20
18.388681
 30
0.0
 10
12.471753
 20
18.428639
 30
0.0
 10
12.462839
 20
18.443640
 30
0.0
 10
12.442204
 20
18.447422
 30
0.0
 10
12.004951
 20
18.535304
 30
0.0
 10
12.189112
 20
19.666728
 30
0.0
 10
10.957035
 20
19.867040
 30
0.0
 10
10.905387
 20
19.550918
 30
0.0
 10
10.928538
 20
19.869961
 30
0.0
 10
9.683949
 20
19.960967
 30
0.0
 10
9.660522
 20
19.642475
 30
0.0
 10
9.655561
 20
19.961794
 30
0.0
 10
8.537311
 20
19.942667
 30
0.0
 10
8.495143
 20
20.394332
 30
0.0
 10
12.510360
 20
20.394332
 30
0.0
 10
12.510360
 20
20.394332
 30
0.0
  0
LWPOLYLINE
  5
103
100
AcDbEntity
  8
Layer_1
 62
7
100
AcDbPolyline
 90
5
 70
0
 10
4.166615
 20
20.387663
 30
0.0
 10
3.839909
 20
20.061013
 30
0.0
 10
3.946624
 20
20.387663
 30
0.0
 10
4.166615
 20
20.387663
 30
0.0
 10
4.166615
 20
20.387663
 30
0.0
  0
LWPOLYLINE
  5
104
100
AcDbEntity
  8
Layer_1
 62
7
100
AcDbPolyline
 90
5
 70
0
 10
4.823277
 20
20.387663
 30
0.0
 10
4.929441
 20
20.064155
 30
0.0
 10
4.606043
 20
20.387663
 30
0.0
 10
4.823277
 20
20.387663
 30
0.0
 10
4.823277
 20
20.387663
 30
0.0
  0
LWPOLYLINE
  5
105
100
AcDbEntity
  8
Layer_1
 62
7
100
AcDbPolyline
 90
6
 70
0
 10
9.559925
 20
18.821440
 30
0.0
 10
8.537586
 20
18.805289
 30
0.0
 10
8.521436
 20
19.830935
 30
0.0
 10
9.543719
 20
19.847031
 30
0.0
 10
9.559925
 20
18.821440
 30
0.0
 10
9.559925
 20
18.821440
 30
0.0
  0
LWPOLYLINE
  5
106
100
AcDbEntity
  8
Layer_1
 62
7
100
AcDbPolyline
 90
6
 70
0
 10
10.807491
 20
19.765837
 30
0.0
 10
10.732966
 20
18.742836
 30
0.0
 10
9.713273
 20
18.817140
 30
0.0
 10
9.787798
 20
19.840141
 30
0.0
 10
10.807491
 20
19.765837
 30
0.0
 10
10.807491
 20
19.765837
 30
0.0
  0
LWPOLYLINE
  5
107
100
AcDbEntity
  8
Layer_1
 62
7
100
AcDbPolyline
 90
6
 70
0
 10
12.059190
 20
19.573242
 30
0.0
 10
11.894487
 20
18.560825
 30
0.0
 10
10.885322
 20
18.724977
 30
0.0
 10
11.050026
 20
19.737394
 30
0.0
 10
12.059190
 20
19.573242
 30
0.0
 10
12.059190
 20
19.573242
 30
0.0
  0
LWPOLYLINE
  5
108
100
AcDbEntity
  8
Layer_1
 62
7
100
AcDbPolyline
 90
6
 70
0
 10
6.183952
 20
19.520105
 30
0.0
 10
5.852617
 20
18.808376
 30
0.0
 10
5.389375
 20
19.453959
 30
0.0
 10
6.157604
 20
19.705809
 30
0.0
 10
6.183952
 20
19.520105
 30
0.0
 10
6.183952
 20
19.520105
 30
0.0
  0
LWPOLYLINE
  5
109
100
AcDbEntity
  8
Layer_1
 62
7
100
AcDbPolyline
 90
10
 70
0
 10
2.802908
 20
19.642861
 30
0.0
 10
3.372975
 20
19.456219
 30
0.0
 10
2.912214
 20
18.827282
 30
0.0
 10
2.634126
 20
19.439242
 30
0.0
 10
2.607139
 20
19.501339
 30
0.0
 10
2.599262
 20
19.568184
 30
0.0
 10
2.604546
 20
19.636387
 30
0.0
 10
2.617038
 20
19.702557
 30
0.0
 10
2.802908
 20
19.642861
 30
0.0
 10
2.802908
 20
19.642861
 30
0.0
  0
LWPOLYLINE
  5
10a
100
AcDbEntity
  8
Layer_1
 62
7
100
AcDbPolyline
 90
6
 70
0
 10
13.482428
 20
19.587078
 30
0.0
 10
13.424716
 20
18.566282
 30
0.0
 10
12.400613
 20
18.624160
 30
0.0
 10
12.458325
 20
19.644955
 30
0.0
 10
13.482428
 20
19.587078
 30
0.0
 10
13.482428
 20
19.587078
 30
0.0
  0
LWPOLYLINE
  5
10b
100
AcDbEntity
  8
Layer_1
 62
7
100
AcDbPolyline
 90
9
 70
0
 10
2.190508
 20
19.481796
 30
0.0
 10
1.547791
 20
19.192352
 30
0.0
 10
1.456666
 20
19.517043
 30
0.0
 10
1.457582
 20
19.552034
 30
0.0
 10
1.465342
 20
19.578298
 30
0.0
 10
1.484418
 20
19.590135
 30
0.0
 10
1.519282
 20
19.581843
 30
0.0
 10
2.190508
 20
19.481796
 30
0.0
 10
2.190508
 20
19.481796
 30
0.0
  0
LWPOLYLINE
  5
10c
100
AcDbEntity
  8
Layer_1
 62
7
100
AcDbPolyline
 90
8
 70
0
 10
7.311077
 20
19.553564
 30
0.0
 10
7.299395
 20
19.451300
 30
0.0
 10
7.274737
 20
19.351792
 30
0.0
 10
7.215221
 20
19.154815
 30
0.0
 10
6.552936
 20
19.464157
 30
0.0
 10
7.310967
 20
19.573518
 30
0.0
 10
7.311077
 20
19.553564
 30
0.0
 10
7.311077
 20
19.553564
 30
0.0
  0
LWPOLYLINE
  5
10d
100
AcDbEntity
  8
Layer_1
 62
7
100
AcDbPolyline
 90
4
 70
0
 10
3.673938
 20
19.555218
 30
0.0
 10
3.684174
 20
19.545860
 30
0.0
 10
3.673938
 20
19.555218
 30
0.0
 10
3.673938
 20
19.555218
 30
0.0
  0
LWPOLYLINE
  5
10e
100
AcDbEntity
  8
Layer_1
 62
7
100
AcDbPolyline
 90
5
 70
0
 10
8.417146
 20
19.294383
 30
0.0
 10
7.791351
 20
19.471047
 30
0.0
 10
8.413618
 20
19.527492
 30
0.0
 10
8.417146
 20
19.294383
 30
0.0
 10
8.417146
 20
19.294383
 30
0.0
  0
LWPOLYLINE
  5
10f
100
AcDbEntity
  8
Layer_1
 62
7
100
AcDbPolyline
 90
4
 70
0
 10
3.554435
 20
19.515696
 30
0.0
 10
3.549345
 20
19.518134
 30
0.0
 10
3.554435
 20
19.515696
 30
0.0
 10
3.554435
 20
19.515696
 30
0.0
  0
LWPOLYLINE
  5
110
100
AcDbEntity
  8
Layer_1
 62
7
100
AcDbPolyline
 90
4
 70
0
 10
3.555538
 20
19.513545
 30
0.0
 10
3.553525
 20
19.512880
 30
0.0
 10
3.555538
 20
19.513545
 30
0.0
 10
3.555538
 20
19.513545
 30
0.0
  0
LWPOLYLINE
  5
111
100
AcDbEntity
  8
Layer_1
 62
7
100
AcDbPolyline
 90
7
 70
0
 10
3.552452
 20
19.501749
 30
0.0
 10
4.371888
 20
18.899491
 30
0.0
 10
3.766158
 20
18.073219
 30
0.0
 10
2.941540
 20
18.677627
 30
0.0
 10
3.546939
 20
19.503513
 30
0.0
 10
3.552452
 20
19.501749
 30
0.0
 10
3.552452
 20
19.501749
 30
0.0
  0
LWPOLYLINE
  5
112
100
AcDbEntity
  8
Layer_1
 62
7
100
AcDbPolyline
 90
6
 70
0
 10
5.816568
 20
18.663296
 30
0.0
 10
4.985777
 20
18.067432
 30
0.0
 10
4.389196
 20
18.899271
 30
0.0
 10
5.218886
 20
19.496843
 30
0.0
 10
5.816568
 20
18.663296
 30
0.0
 10
5.816568
 20
18.663296
 30
0.0
  0
LWPOLYLINE
  5
113
100
AcDbEntity
  8
Layer_1
 62
7
100
AcDbPolyline
 90
6
 70
0
 10
2.907860
 20
18.559557
 30
0.0
 10
1.972558
 20
18.138594
 30
0.0
 10
1.552918
 20
19.070864
 30
0.0
 10
2.488220
 20
19.491882
 30
0.0
 10
2.907860
 20
18.559557
 30
0.0
 10
2.907860
 20
18.559557
 30
0.0
  0
LWPOLYLINE
  5
114
100
AcDbEntity
  8
Layer_1
 62
7
100
AcDbPolyline
 90
6
 70
0
 10
7.213072
 20
19.031011
 30
0.0
 10
6.780368
 20
18.104639
 30
0.0
 10
5.850964
 20
18.538721
 30
0.0
 10
6.283668
 20
19.465093
 30
0.0
 10
7.213072
 20
19.031011
 30
0.0
 10
7.213072
 20
19.031011
 30
0.0
  0
LWPOLYLINE
  5
115
100
AcDbEntity
  8
Layer_1
 62
7
100
AcDbPolyline
 90
6
 70
0
 10
8.406784
 20
19.179950
 30
0.0
 10
8.128971
 20
18.195975
 30
0.0
 10
7.141800
 20
18.474725
 30
0.0
 10
7.419613
 20
19.458699
 30
0.0
 10
8.406784
 20
19.179950
 30
0.0
 10
8.406784
 20
19.179950
 30
0.0
  0
LWPOLYLINE
  5
116
100
AcDbEntity
  8
Layer_1
 62
7
100
AcDbPolyline
 90
4
 70
0
 10
8.437597
 20
18.874521
 30
0.0
 10
8.423977
 20
18.875128
 30
0.0
 10
8.437597
 20
18.874521
 30
0.0
 10
8.437597
 20
18.874521
 30
0.0
  0
LWPOLYLINE
  5
117
100
AcDbEntity
  8
Layer_1
 62
7
100
AcDbPolyline
 90
17
 70
0
 10
8.426683
 20
18.697691
 30
0.0
 10
8.448881
 20
18.690131
 30
0.0
 10
8.478657
 20
18.690391
 30
0.0
 10
8.539669
 20
18.692419
 30
0.0
 10
8.698818
 20
18.694936
 30
0.0
 10
8.694243
 20
17.669841
 30
0.0
 10
7.949000
 20
17.623319
 30
0.0
 10
8.074236
 20
17.789234
 30
0.0
 10
7.427605
 20
18.276950
 30
0.0
 10
8.131413
 20
18.077639
 30
0.0
 10
8.166178
 20
18.075885
 30
0.0
 10
8.198545
 20
18.087471
 30
0.0
 10
8.222505
 20
18.110935
 30
0.0
 10
8.232052
 20
18.144817
 30
0.0
 10
8.424643
 20
18.826291
 30
0.0
 10
8.426683
 20
18.697692
 30
0.0
 10
8.426683
 20
18.697691
 30
0.0
  0
LWPOLYLINE
  5
118
100
AcDbEntity
  8
Layer_1
 62
7
100
AcDbPolyline
 90
8
 70
0
 10
4.436932
 20
18.640806
 30
0.0
 10
4.864289
 20
18.048746
 30
0.0
 10
4.454527
 20
18.045335
 30
0.0
 10
4.044797
 20
18.049028
 30
0.0
 10
3.891118
 20
18.051565
 30
0.0
 10
4.380487
 20
18.718976
 30
0.0
 10
4.436932
 20
18.640814
 30
0.0
 10
4.436932
 20
18.640806
 30
0.0
  0
LWPOLYLINE
  5
119
100
AcDbEntity
  8
Layer_1
 62
7
100
AcDbPolyline
 90
6
 70
0
 10
9.834046
 20
18.706125
 30
0.0
 10
9.829030
 20
17.680368
 30
0.0
 10
8.806580
 20
17.685384
 30
0.0
 10
8.811596
 20
18.711086
 30
0.0
 10
9.834046
 20
18.706125
 30
0.0
 10
9.834046
 20
18.706125
 30
0.0
  0
LWPOLYLINE
  5
11a
100
AcDbEntity
  8
Layer_1
 62
7
100
AcDbPolyline
 90
6
 70
0
 10
11.102227
 20
18.589102
 30
0.0
 10
10.998212
 20
17.568637
 30
0.0
 10
9.981000
 20
17.672265
 30
0.0
 10
10.085014
 20
18.692785
 30
0.0
 10
11.102227
 20
18.589102
 30
0.0
 10
11.102227
 20
18.589102
 30
0.0
  0
LWPOLYLINE
  5
11b
100
AcDbEntity
  8
Layer_1
 62
7
100
AcDbPolyline
 90
7
 70
0
 10
9.949856
 20
18.688817
 30
0.0
 10
9.968885
 20
18.681578
 30
0.0
 10
9.970637
 20
18.661588
 30
0.0
 10
9.964142
 20
18.614270
 30
0.0
 10
9.945612
 20
18.432502
 30
0.0
 10
9.949856
 20
18.688817
 30
0.0
 10
9.949856
 20
18.688817
 30
0.0
  0
LWPOLYLINE
  5
11c
100
AcDbEntity
  8
Layer_1
 62
7
100
AcDbPolyline
 90
7
 70
0
 10
11.215832
 20
18.559226
 30
0.0
 10
11.232834
 20
18.549668
 30
0.0
 10
11.232243
 20
18.529510
 30
0.0
 10
11.221854
 20
18.483780
 30
0.0
 10
11.187169
 20
18.307872
 30
0.0
 10
11.215832
 20
18.559226
 30
0.0
 10
11.215832
 20
18.559226
 30
0.0
  0
LWPOLYLINE
  5
11d
100
AcDbEntity
  8
Layer_1
 62
7
100
AcDbPolyline
 90
6
 70
0
 10
12.353210
 20
18.350150
 30
0.0
 10
12.151079
 20
17.344458
 30
0.0
 10
11.148639
 20
17.545927
 30
0.0
 10
11.350714
 20
18.551619
 30
0.0
 10
12.353210
 20
18.350150
 30
0.0
 10
12.353210
 20
18.350150
 30
0.0
  0
LWPOLYLINE
  5
11e
100
AcDbEntity
  8
Layer_1
 62
7
100
AcDbPolyline
 90
6
 70
0
 10
3.804577
 20
17.954102
 30
0.0
 10
3.244267
 20
17.094868
 30
0.0
 10
2.387789
 20
17.653359
 30
0.0
 10
2.948099
 20
18.512593
 30
0.0
 10
3.804577
 20
17.954102
 30
0.0
 10
3.804577
 20
17.954102
 30
0.0
  0
LWPOLYLINE
  5
11f
100
AcDbEntity
  8
Layer_1
 62
7
100
AcDbPolyline
 90
6
 70
0
 10
6.357751
 20
17.625522
 30
0.0
 10
5.493336
 20
17.079323
 30
0.0
 10
4.945428
 20
17.946495
 30
0.0
 10
5.809788
 20
18.492694
 30
0.0
 10
6.357751
 20
17.625522
 30
0.0
 10
6.357751
 20
17.625522
 30
0.0
  0
LWPOLYLINE
  5
120
100
AcDbEntity
  8
Layer_1
 62
7
100
AcDbPolyline
 90
6
 70
0
 10
13.593610
 20
17.420856
 30
0.0
 10
12.580807
 20
17.257972
 30
0.0
 10
12.418418
 20
18.267468
 30
0.0
 10
13.431221
 20
18.430407
 30
0.0
 10
13.593610
 20
17.420856
 30
0.0
 10
13.593610
 20
17.420856
 30
0.0
  0
LWPOLYLINE
  5
121
100
AcDbEntity
  8
Layer_1
 62
7
100
AcDbPolyline
 90
6
 70
0
 10
7.916036
 20
17.767185
 30
0.0
 10
7.300328
 20
16.950891
 30
0.0
 10
6.481388
 20
17.568582
 30
0.0
 10
7.097095
 20
18.384877
 30
0.0
 10
7.916036
 20
17.767185
 30
0.0
 10
7.916036
 20
17.767185
 30
0.0
  0
LWPOLYLINE
  5
122
100
AcDbEntity
  8
Layer_1
 62
7
100
AcDbPolyline
 90
5
 70
0
 10
2.308468
 20
17.737695
 30
0.0
 10
2.066650
 20
18.056904
 30
0.0
 10
2.703689
 20
18.343371
 30
0.0
 10
2.308468
 20
17.737695
 30
0.0
 10
2.308468
 20
17.737695
 30
0.0
  0
LWPOLYLINE
  5
123
100
AcDbEntity
  8
Layer_1
 62
7
100
AcDbPolyline
 90
5
 70
0
 10
6.685007
 20
18.025099
 30
0.0
 10
6.442803
 20
17.703024
 30
0.0
 10
6.053149
 20
18.319779
 30
0.0
 10
6.685007
 20
18.025099
 30
0.0
 10
6.685007
 20
18.025099
 30
0.0
  0
LWPOLYLINE
  5
124
100
AcDbEntity
  8
Layer_1
 62
7
100
AcDbPolyline
 90
5
 70
0
 10
0.985661
 20
17.995995
 30
0.0
 10
0.882419
 20
18.137823
 30
0.0
 10
1.349243
 20
18.270886
 30
0.0
 10
0.985661
 20
17.995995
 30
0.0
 10
0.985661
 20
17.995995
 30
0.0
  0
LWPOLYLINE
  5
125
100
AcDbEntity
  8
Layer_1
 62
7
100
AcDbPolyline
 90
6
 70
0
 10
4.886281
 20
17.929408
 30
0.0
 10
4.878785
 20
16.903707
 30
0.0
 10
3.856391
 20
16.911093
 30
0.0
 10
3.863832
 20
17.936849
 30
0.0
 10
4.886281
 20
17.929408
 30
0.0
 10
4.886281
 20
17.929408
 30
0.0
  0
LWPOLYLINE
  5
126
100
AcDbEntity
  8
Layer_1
 62
7
100
AcDbPolyline
 90
10
 70
0
 10
3.744659
 20
17.002539
 30
0.0
 10
3.749638
 20
16.984883
 30
0.0
 10
3.745051
 20
16.970377
 30
0.0
 10
3.732731
 20
16.962789
 30
0.0
 10
3.714513
 20
16.965889
 30
0.0
 10
3.528746
 20
17.002092
 30
0.0
 10
3.342713
 20
17.038754
 30
0.0
 10
3.749675
 20
17.662565
 30
0.0
 10
3.744659
 20
17.002539
 30
0.0
 10
3.744659
 20
17.002539
 30
0.0
  0
LWPOLYLINE
  5
127
100
AcDbEntity
  8
Layer_1
 62
7
100
AcDbPolyline
 90
5
 70
0
 10
5.391139
 20
17.030762
 30
0.0
 10
4.992500
 20
16.954418
 30
0.0
 10
4.997847
 20
17.653635
 30
0.0
 10
5.391139
 20
17.030762
 30
0.0
 10
5.391139
 20
17.030762
 30
0.0
  0
LWPOLYLINE
  5
128
100
AcDbEntity
  8
Layer_1
 62
7
100
AcDbPolyline
 90
6
 70
0
 10
6.417888
 20
17.586662
 30
0.0
 10
6.412048
 20
17.582068
 30
0.0
 10
6.409672
 20
17.586945
 30
0.0
 10
6.411404
 20
17.591680
 30
0.0
 10
6.417888
 20
17.586662
 30
0.0
 10
6.417888
 20
17.586662
 30
0.0
  0
LWPOLYLINE
  5
129
100
AcDbEntity
  8
Layer_1
 62
7
100
AcDbPolyline
 90
6
 70
0
 10
10.311397
 20
17.531982
 30
0.0
 10
10.265536
 20
16.507273
 30
0.0
 10
9.244134
 20
16.552968
 30
0.0
 10
9.289995
 20
17.577677
 30
0.0
 10
10.311397
 20
17.531982
 30
0.0
 10
10.311397
 20
17.531982
 30
0.0
  0
LWPOLYLINE
  5
12a
100
AcDbEntity
  8
Layer_1
 62
7
100
AcDbPolyline
 90
6
 70
0
 10
9.093101
 20
16.551921
 30
0.0
 10
8.072526
 20
16.490185
 30
0.0
 10
8.010624
 20
17.514067
 30
0.0
 10
9.031200
 20
17.575748
 30
0.0
 10
9.093101
 20
16.551921
 30
0.0
 10
9.093101
 20
16.551921
 30
0.0
  0
LWPOLYLINE
  5
12b
100
AcDbEntity
  8
Layer_1
 62
7
100
AcDbPolyline
 90
8
 70
0
 10
9.149160
 20
17.572055
 30
0.0
 10
9.172651
 20
17.568180
 30
0.0
 10
9.177414
 20
17.547247
 30
0.0
 10
9.173486
 20
17.493143
 30
0.0
 10
9.163381
 20
17.266406
 30
0.0
 10
9.145246
 20
17.572055
 30
0.0
 10
9.149160
 20
17.572055
 30
0.0
 10
9.149160
 20
17.572055
 30
0.0
  0
LWPOLYLINE
  5
12c
100
AcDbEntity
  8
Layer_1
 62
7
100
AcDbPolyline
 90
14
 70
0
 10
7.960188
 20
16.478444
 30
0.0
 10
7.689045
 20
16.455348
 30
0.0
 10
7.730883
 20
15.959916
 30
0.0
 10
7.630121
 20
16.446474
 30
0.0
 10
6.487672
 20
16.209837
 30
0.0
 10
7.103765
 20
16.593427
 30
0.0
 10
6.677676
 20
17.279801
 30
0.0
 10
7.290186
 20
16.816780
 30
0.0
 10
7.326219
 20
16.807767
 30
0.0
 10
7.341975
 20
16.815208
 30
0.0
 10
7.352438
 20
16.832530
 30
0.0
 10
7.895806
 20
17.552763
 30
0.0
 10
7.960188
 20
16.478444
 30
0.0
 10
7.960188
 20
16.478444
 30
0.0
  0
LWPOLYLINE
  5
12d
100
AcDbEntity
  8
Layer_1
 62
7
100
AcDbPolyline
 90
8
 70
0
 10
10.429247
 20
17.515501
 30
0.0
 10
10.450161
 20
17.511386
 30
0.0
 10
10.454723
 20
17.495989
 30
0.0
 10
10.447416
 20
17.453905
 30
0.0
 10
10.410561
 20
17.210623
 30
0.0
 10
10.426325
 20
17.515721
 30
0.0
 10
10.429247
 20
17.515495
 30
0.0
 10
10.429247
 20
17.515501
 30
0.0
  0
LWPOLYLINE
  5
12e
100
AcDbEntity
  8
Layer_1
 62
7
100
AcDbPolyline
 90
6
 70
0
 10
11.580350
 20
17.353719
 30
0.0
 10
11.426561
 20
16.339593
 30
0.0
 10
10.415742
 20
16.492886
 30
0.0
 10
10.569531
 20
17.507012
 30
0.0
 10
11.580350
 20
17.353719
 30
0.0
 10
11.580350
 20
17.353719
 30
0.0
  0
LWPOLYLINE
  5
12f
100
AcDbEntity
  8
Layer_1
 62
7
100
AcDbPolyline
 90
6
 70
0
 10
6.948433
 20
16.629477
 30
0.0
 10
6.080103
 20
16.089837
 30
0.0
 10
5.538700
 20
16.961033
 30
0.0
 10
6.407084
 20
17.500673
 30
0.0
 10
6.948433
 20
16.629477
 30
0.0
 10
6.948433
 20
16.629477
 30
0.0
  0
LWPOLYLINE
  5
130
100
AcDbEntity
  8
Layer_1
 62
7
100
AcDbPolyline
 90
6
 70
0
 10
3.240628
 20
16.958442
 30
0.0
 10
2.700713
 20
16.086254
 30
0.0
 10
1.831336
 20
16.624461
 30
0.0
 10
2.371306
 20
17.496649
 30
0.0
 10
3.240628
 20
16.958442
 30
0.0
 10
3.240628
 20
16.958442
 30
0.0
  0
LWPOLYLINE
  5
131
100
AcDbEntity
  8
Layer_1
 62
7
100
AcDbPolyline
 90
22
 70
0
 10
1.218991
 20
17.103412
 30
0.0
 10
1.402392
 20
16.859075
 30
0.0
 10
1.431465
 20
16.833776
 30
0.0
 10
1.467580
 20
16.821227
 30
0.0
 10
1.504522
 20
16.824718
 30
0.0
 10
1.536075
 20
16.847540
 30
0.0
 10
2.101542
 20
17.275171
 30
0.0
 10
1.676169
 20
16.588412
 30
0.0
 10
2.736983
 20
15.931142
 30
0.0
 10
3.163678
 20
16.619886
 30
0.0
 10
3.034804
 20
15.921717
 30
0.0
 10
3.009923
 20
15.953287
 30
0.0
 10
2.994238
 20
15.958704
 30
0.0
 10
2.977450
 20
15.946990
 30
0.0
 10
2.231573
 20
15.444695
 30
0.0
 10
1.594313
 20
16.251123
 30
0.0
 10
1.706596
 20
16.341412
 30
0.0
 10
1.019396
 20
17.231569
 30
0.0
 10
1.051081
 20
17.256985
 30
0.0
 10
1.085486
 20
17.279580
 30
0.0
 10
1.218991
 20
17.103412
 30
0.0
 10
1.218991
 20
17.103412
 30
0.0
  0
LWPOLYLINE
  5
132
100
AcDbEntity
  8
Layer_1
 62
7
100
AcDbPolyline
 90
6
 70
0
 10
1.549610
 20
16.359547
 30
0.0
 10
0.740315
 20
15.734634
 30
0.0
 10
0.113363
 20
16.546519
 30
0.0
 10
0.922713
 20
17.171432
 30
0.0
 10
1.549610
 20
16.359547
 30
0.0
 10
1.549610
 20
16.359547
 30
0.0
  0
LWPOLYLINE
  5
133
100
AcDbEntity
  8
Layer_1
 62
7
100
AcDbPolyline
 90
6
 70
0
 10
5.634225
 20
15.915874
 30
0.0
 10
4.629305
 20
15.727634
 30
0.0
 10
4.440403
 20
16.735806
 30
0.0
 10
5.445324
 20
16.924102
 30
0.0
 10
5.634225
 20
15.915874
 30
0.0
 10
5.634225
 20
15.915874
 30
0.0
  0
LWPOLYLINE
  5
134
100
AcDbEntity
  8
Layer_1
 62
7
100
AcDbPolyline
 90
6
 70
0
 10
4.339696
 20
16.736082
 30
0.0
 10
4.152448
 20
15.727578
 30
0.0
 10
3.147197
 20
15.914220
 30
0.0
 10
3.334445
 20
16.922724
 30
0.0
 10
4.339696
 20
16.736082
 30
0.0
 10
4.339696
 20
16.736082
 30
0.0
  0
LWPOLYLINE
  5
135
100
AcDbEntity
  8
Layer_1
 62
7
100
AcDbPolyline
 90
5
 70
0
 10
5.971293
 20
16.051032
 30
0.0
 10
5.738846
 20
15.973035
 30
0.0
 10
5.617358
 20
16.620162
 30
0.0
 10
5.971293
 20
16.051032
 30
0.0
 10
5.971293
 20
16.051032
 30
0.0
  0
LWPOLYLINE
  5
136
100
AcDbEntity
  8
Layer_1
 62
7
100
AcDbPolyline
 90
7
 70
0
 10
0.151948
 20
16.312363
 30
0.0
 10
0.018113
 20
16.457167
 30
0.0
 10
0.040612
 20
16.456649
 30
0.0
 10
0.060803
 20
16.433559
 30
0.0
 10
0.100346
 20
16.379178
 30
0.0
 10
0.151948
 20
16.312363
 30
0.0
 10
0.151948
 20
16.312363
 30
0.0
  0
LWPOLYLINE
  5
137
100
AcDbEntity
  8
Layer_1
 62
7
100
AcDbPolyline
 90
6
 70
0
 10
10.120621
 20
16.413290
 30
0.0
 10
10.087659
 20
15.388030
 30
0.0
 10
9.065761
 20
15.420938
 30
0.0
 10
9.098723
 20
16.446143
 30
0.0
 10
10.120621
 20
16.413290
 30
0.0
 10
10.120621
 20
16.413290
 30
0.0
  0
LWPOLYLINE
  5
138
100
AcDbEntity
  8
Layer_1
 62
7
100
AcDbPolyline
 90
6
 70
0
 10
8.916492
 20
15.417189
 30
0.0
 10
7.897846
 20
15.330207
 30
0.0
 10
7.810533
 20
16.352161
 30
0.0
 10
8.829234
 20
16.439198
 30
0.0
 10
8.916492
 20
15.417189
 30
0.0
 10
8.916492
 20
15.417189
 30
0.0
  0
LWPOLYLINE
  5
139
100
AcDbEntity
  8
Layer_1
 62
7
100
AcDbPolyline
 90
10
 70
0
 10
8.958329
 20
16.432197
 30
0.0
 10
8.977457
 20
16.431285
 30
0.0
 10
8.983812
 20
16.418422
 30
0.0
 10
8.982968
 20
16.379556
 30
0.0
 10
8.973873
 20
16.078648
 30
0.0
 10
8.945269
 20
16.401472
 30
0.0
 10
8.943112
 20
16.422856
 30
0.0
 10
8.947202
 20
16.430929
 30
0.0
 10
8.958329
 20
16.432197
 30
0.0
 10
8.958329
 20
16.432197
 30
0.0
  0
LWPOLYLINE
  5
13a
100
AcDbEntity
  8
Layer_1
 62
7
100
AcDbPolyline
 90
8
 70
0
 10
10.247456
 20
16.395707
 30
0.0
 10
10.266773
 20
16.391257
 30
0.0
 10
10.270195
 20
16.374753
 30
0.0
 10
10.264303
 20
16.332092
 30
0.0
 10
10.221990
 20
16.034605
 30
0.0
 10
10.233896
 20
16.396644
 30
0.0
 10
10.247456
 20
16.395707
 30
0.0
 10
10.247456
 20
16.395707
 30
0.0
  0
LWPOLYLINE
  5
13b
100
AcDbEntity
  8
Layer_1
 62
7
100
AcDbPolyline
 90
18
 70
0
 10
4.538244
 20
15.603169
 30
0.0
 10
4.563426
 20
15.600135
 30
0.0
 10
4.594310
 20
15.605503
 30
0.0
 10
4.657476
 20
15.618304
 30
0.0
 10
4.918968
 20
15.667220
 30
0.0
 10
3.984162
 20
15.224099
 30
0.0
 10
4.195167
 20
14.778827
 30
0.0
 10
3.932954
 20
15.195821
 30
0.0
 10
3.644559
 20
15.013810
 30
0.0
 10
3.111037
 20
15.806513
 30
0.0
 10
4.147650
 20
15.613451
 30
0.0
 10
4.181384
 20
15.605256
 30
0.0
 10
4.217089
 20
15.608131
 30
0.0
 10
4.244789
 20
15.624991
 30
0.0
 10
4.254510
 20
15.658752
 30
0.0
 10
4.390518
 20
16.390360
 30
0.0
 10
4.538244
 20
15.603169
 30
0.0
 10
4.538244
 20
15.603169
 30
0.0
  0
LWPOLYLINE
  5
13c
100
AcDbEntity
  8
Layer_1
 62
7
100
AcDbPolyline
 90
6
 70
0
 10
11.400268
 20
16.236571
 30
0.0
 10
11.247250
 20
15.222335
 30
0.0
 10
10.236321
 20
15.374856
 30
0.0
 10
10.389339
 20
16.389092
 30
0.0
 10
11.400268
 20
16.236571
 30
0.0
 10
11.400268
 20
16.236571
 30
0.0
  0
LWPOLYLINE
  5
13d
100
AcDbEntity
  8
Layer_1
 62
7
100
AcDbPolyline
 90
6
 70
0
 10
7.750341
 20
15.308765
 30
0.0
 10
6.749113
 20
15.101508
 30
0.0
 10
6.541195
 20
16.106043
 30
0.0
 10
7.542422
 20
16.313300
 30
0.0
 10
7.750341
 20
15.308765
 30
0.0
 10
7.750341
 20
15.308765
 30
0.0
  0
LWPOLYLINE
  5
13e
100
AcDbEntity
  8
Layer_1
 62
7
100
AcDbPolyline
 90
6
 70
0
 10
2.134118
 20
15.385660
 30
0.0
 10
1.331824
 20
14.751707
 30
0.0
 10
0.695887
 20
15.556592
 30
0.0
 10
1.498126
 20
16.190544
 30
0.0
 10
2.134118
 20
15.385660
 30
0.0
 10
2.134118
 20
15.385660
 30
0.0
  0
LWPOLYLINE
  5
13f
100
AcDbEntity
  8
Layer_1
 62
7
100
AcDbPolyline
 90
6
 70
0
 10
12.651196
 20
15.908984
 30
0.0
 10
12.378840
 20
14.919993
 30
0.0
 10
11.393047
 20
15.191522
 30
0.0
 10
11.665457
 20
16.180512
 30
0.0
 10
12.651196
 20
15.908984
 30
0.0
 10
12.651196
 20
15.908984
 30
0.0
  0
LWPOLYLINE
  5
140
100
AcDbEntity
  8
Layer_1
 62
7
100
AcDbPolyline
 90
9
 70
0
 10
6.510327
 20
15.700900
 30
0.0
 10
6.390827
 20
16.058217
 30
0.0
 10
6.365633
 20
16.131785
 30
0.0
 10
6.394813
 20
16.154163
 30
0.0
 10
6.413463
 20
16.151491
 30
0.0
 10
6.424012
 20
16.129548
 30
0.0
 10
6.428889
 20
16.094115
 30
0.0
 10
6.510327
 20
15.700900
 30
0.0
 10
6.510327
 20
15.700900
 30
0.0
  0
LWPOLYLINE
  5
141
100
AcDbEntity
  8
Layer_1
 62
7
100
AcDbPolyline
 90
6
 70
0
 10
6.605356
 20
15.062648
 30
0.0
 10
5.635934
 20
14.737541
 30
0.0
 10
5.309780
 20
15.710105
 30
0.0
 10
6.279202
 20
16.035212
 30
0.0
 10
6.605356
 20
15.062648
 30
0.0
 10
6.605356
 20
15.062648
 30
0.0
  0
LWPOLYLINE
  5
142
100
AcDbEntity
  8
Layer_1
 62
7
100
AcDbPolyline
 90
6
 70
0
 10
3.546277
 20
14.957366
 30
0.0
 10
2.698067
 20
14.386362
 30
0.0
 10
2.125244
 20
15.237328
 30
0.0
 10
2.973399
 20
15.808332
 30
0.0
 10
3.546277
 20
14.957366
 30
0.0
 10
3.546277
 20
14.957366
 30
0.0
  0
LWPOLYLINE
  5
143
100
AcDbEntity
  8
Layer_1
 62
7
100
AcDbPolyline
 90
7
 70
0
 10
5.324718
 20
15.311025
 30
0.0
 10
5.136092
 20
15.707900
 30
0.0
 10
5.169980
 20
15.716909
 30
0.0
 10
5.190985
 20
15.703989
 30
0.0
 10
5.212978
 20
15.644076
 30
0.0
 10
5.324718
 20
15.311025
 30
0.0
 10
5.324718
 20
15.311025
 30
0.0
  0
LWPOLYLINE
  5
144
100
AcDbEntity
  8
Layer_1
 62
7
100
AcDbPolyline
 90
6
 70
0
 10
5.497854
 20
14.681758
 30
0.0
 10
4.574128
 20
14.243542
 30
0.0
 10
4.134479
 20
15.170300
 30
0.0
 10
5.058205
 20
15.608461
 30
0.0
 10
5.497854
 20
14.681758
 30
0.0
 10
5.497854
 20
14.681758
 30
0.0
  0
LWPOLYLINE
  5
145
100
AcDbEntity
  8
Layer_1
 62
7
100
AcDbPolyline
 90
9
 70
0
 10
0.773884
 20
15.276464
 30
0.0
 10
0.598874
 20
15.458806
 30
0.0
 10
0.610654
 20
15.467627
 30
0.0
 10
0.621695
 20
15.467020
 30
0.0
 10
0.642269
 20
15.446584
 30
0.0
 10
0.662016
 20
15.415623
 30
0.0
 10
0.682360
 20
15.392258
 30
0.0
 10
0.773884
 20
15.276464
 30
0.0
 10
0.773884
 20
15.276464
 30
0.0
  0
LWPOLYLINE
  5
146
100
AcDbEntity
  8
Layer_1
 62
7
100
AcDbPolyline
 90
6
 70
0
 10
9.197391
 20
14.287529
 30
0.0
 10
8.177091
 20
14.221658
 30
0.0
 10
8.111056
 20
15.245265
 30
0.0
 10
9.131355
 20
15.311135
 30
0.0
 10
9.197391
 20
14.287529
 30
0.0
 10
9.197391
 20
14.287529
 30
0.0
  0
LWPOLYLINE
  5
147
100
AcDbEntity
  8
Layer_1
 62
7
100
AcDbPolyline
 90
6
 70
0
 10
10.434098
 20
15.241296
 30
0.0
 10
10.364700
 20
14.217965
 30
0.0
 10
9.344621
 20
14.287143
 30
0.0
 10
9.414019
 20
15.310529
 30
0.0
 10
10.434098
 20
15.241296
 30
0.0
 10
10.434098
 20
15.241296
 30
0.0
  0
LWPOLYLINE
  5
148
100
AcDbEntity
  8
Layer_1
 62
7
100
AcDbPolyline
 90
10
 70
0
 10
9.251190
 20
15.303859
 30
0.0
 10
9.290622
 20
15.298401
 30
0.0
 10
9.299932
 20
15.286463
 30
0.0
 10
9.296430
 20
15.263823
 30
0.0
 10
9.271860
 20
14.887582
 30
0.0
 10
9.249756
 20
15.250226
 30
0.0
 10
9.244166
 20
15.279207
 30
0.0
 10
9.244329
 20
15.293514
 30
0.0
 10
9.251190
 20
15.303859
 30
0.0
 10
9.251190
 20
15.303859
 30
0.0
  0
LWPOLYLINE
  5
149
100
AcDbEntity
  8
Layer_1
 62
7
100
AcDbPolyline
 90
8
 70
0
 10
8.026996
 20
14.797237
 30
0.0
 10
7.941667
 20
15.220460
 30
0.0
 10
7.976708
 20
15.226835
 30
0.0
 10
7.996297
 20
15.215215
 30
0.0
 10
8.004099
 20
15.189870
 30
0.0
 10
8.003782
 20
15.155069
 30
0.0
 10
8.026996
 20
14.797237
 30
0.0
 10
8.026996
 20
14.797237
 30
0.0
  0
LWPOLYLINE
  5
14a
100
AcDbEntity
  8
Layer_1
 62
7
100
AcDbPolyline
 90
9
 70
0
 10
10.551617
 20
15.214893
 30
0.0
 10
10.586333
 20
15.208641
 30
0.0
 10
10.597797
 20
15.200705
 30
0.0
 10
10.594453
 20
15.183678
 30
0.0
 10
10.517882
 20
14.800379
 30
0.0
 10
10.542929
 20
15.149793
 30
0.0
 10
10.542654
 20
15.184788
 30
0.0
 10
10.551617
 20
15.214893
 30
0.0
 10
10.551617
 20
15.214893
 30
0.0
  0
LWPOLYLINE
  5
14b
100
AcDbEntity
  8
Layer_1
 62
7
100
AcDbPolyline
 90
6
 70
0
 10
8.031460
 20
14.202641
 30
0.0
 10
7.029020
 20
14.001117
 30
0.0
 10
6.826835
 20
15.006809
 30
0.0
 10
7.829275
 20
15.208334
 30
0.0
 10
8.031460
 20
14.202641
 30
0.0
 10
8.031460
 20
14.202641
 30
0.0
  0
LWPOLYLINE
  5
14c
100
AcDbEntity
  8
Layer_1
 62
7
100
AcDbPolyline
 90
6
 70
0
 10
11.717106
 20
14.999533
 30
0.0
 10
11.512220
 20
13.994448
 30
0.0
 10
10.510386
 20
14.198618
 30
0.0
 10
10.715217
 20
15.203703
 30
0.0
 10
11.717106
 20
14.999533
 30
0.0
 10
11.717106
 20
14.999533
 30
0.0
  0
LWPOLYLINE
  5
14d
100
AcDbEntity
  8
Layer_1
 62
7
100
AcDbPolyline
 90
8
 70
0
 10
2.212942
 20
14.905496
 30
0.0
 10
2.011638
 20
15.145220
 30
0.0
 10
2.024930
 20
15.157570
 30
0.0
 10
2.036591
 20
15.159500
 30
0.0
 10
2.056492
 20
15.141501
 30
0.0
 10
2.092910
 20
15.083883
 30
0.0
 10
2.212942
 20
14.905496
 30
0.0
 10
2.212942
 20
14.905496
 30
0.0
  0
LWPOLYLINE
  5
14e
100
AcDbEntity
  8
Layer_1
 62
7
100
AcDbPolyline
 90
6
 70
0
 10
11.297687
 20
15.149795
 30
0.0
 10
11.292196
 20
15.147830
 30
0.0
 10
11.292532
 20
15.151624
 30
0.0
 10
11.295445
 20
15.154504
 30
0.0
 10
11.297687
 20
15.149795
 30
0.0
 10
11.297687
 20
15.149795
 30
0.0
  0
LWPOLYLINE
  5
14f
100
AcDbEntity
  8
Layer_1
 62
7
100
AcDbPolyline
 90
6
 70
0
 10
2.577626
 20
14.295576
 30
0.0
 10
1.794680
 20
13.637977
 30
0.0
 10
1.134985
 20
14.423458
 30
0.0
 10
1.917932
 20
15.081058
 30
0.0
 10
2.577626
 20
14.295576
 30
0.0
 10
2.577626
 20
14.295576
 30
0.0
  0
LWPOLYLINE
  5
150
100
AcDbEntity
  8
Layer_1
 62
7
100
AcDbPolyline
 90
6
 70
0
 10
4.443545
 20
14.171608
 30
0.0
 10
3.578192
 20
13.627063
 30
0.0
 10
3.031828
 20
14.495227
 30
0.0
 10
3.897180
 20
15.039827
 30
0.0
 10
4.443545
 20
14.171608
 30
0.0
 10
4.443545
 20
14.171608
 30
0.0
  0
LWPOLYLINE
  5
151
100
AcDbEntity
  8
Layer_1
 62
7
100
AcDbPolyline
 90
7
 70
0
 10
6.727285
 20
14.919828
 30
0.0
 10
6.803739
 20
14.550568
 30
0.0
 10
6.661360
 20
14.962106
 30
0.0
 10
6.688065
 20
14.969252
 30
0.0
 10
6.712457
 20
14.981178
 30
0.0
 10
6.727285
 20
14.919828
 30
0.0
 10
6.727285
 20
14.919828
 30
0.0
  0
LWPOLYLINE
  5
152
100
AcDbEntity
  8
Layer_1
 62
7
100
AcDbPolyline
 90
8
 70
0
 10
11.828121
 20
14.956649
 30
0.0
 10
11.863207
 20
14.946396
 30
0.0
 10
11.874092
 20
14.936749
 30
0.0
 10
11.868848
 20
14.920047
 30
0.0
 10
11.739872
 20
14.545773
 30
0.0
 10
11.825861
 20
14.956759
 30
0.0
 10
11.828122
 20
14.956646
 30
0.0
 10
11.828121
 20
14.956649
 30
0.0
  0
LWPOLYLINE
  5
153
100
AcDbEntity
  8
Layer_1
 62
7
100
AcDbPolyline
 90
6
 70
0
 10
6.887358
 20
13.962532
 30
0.0
 10
5.921133
 20
13.628220
 30
0.0
 10
5.585718
 20
14.597532
 30
0.0
 10
6.551943
 20
14.931899
 30
0.0
 10
6.887358
 20
13.962532
 30
0.0
 10
6.887358
 20
13.962532
 30
0.0
  0
LWPOLYLINE
  5
154
100
AcDbEntity
  8
Layer_1
 62
7
100
AcDbPolyline
 90
6
 70
0
 10
12.957120
 20
14.587335
 30
0.0
 10
12.619225
 20
13.618794
 30
0.0
 10
11.653827
 20
13.955642
 30
0.0
 10
11.991777
 20
14.924127
 30
0.0
 10
12.957120
 20
14.587335
 30
0.0
 10
12.957120
 20
14.587335
 30
0.0
  0
LWPOLYLINE
  5
155
100
AcDbEntity
  8
Layer_1
 62
7
100
AcDbPolyline
 90
6
 70
0
 10
13.994893
 20
14.657339
 30
0.0
 10
13.865633
 20
14.521244
 30
0.0
 10
14.007075
 20
14.386913
 30
0.0
 10
14.007075
 20
14.670182
 30
0.0
 10
13.994893
 20
14.657339
 30
0.0
 10
13.994893
 20
14.657339
 30
0.0
  0
LWPOLYLINE
  5
156
100
AcDbEntity
  8
Layer_1
 62
7
100
AcDbPolyline
 90
8
 70
0
 10
5.623587
 20
14.143331
 30
0.0
 10
5.430882
 20
14.524496
 30
0.0
 10
5.461801
 20
14.542836
 30
0.0
 10
5.483193
 20
14.538448
 30
0.0
 10
5.497282
 20
14.516642
 30
0.0
 10
5.506293
 20
14.482726
 30
0.0
 10
5.623587
 20
14.143331
 30
0.0
 10
5.623587
 20
14.143331
 30
0.0
  0
LWPOLYLINE
  5
157
100
AcDbEntity
  8
Layer_1
 62
7
100
AcDbPolyline
 90
6
 70
0
 10
5.785975
 20
13.570838
 30
0.0
 10
4.873328
 20
13.109967
 30
0.0
 10
4.410968
 20
14.025536
 30
0.0
 10
5.323615
 20
14.486462
 30
0.0
 10
5.785975
 20
13.570838
 30
0.0
 10
5.785975
 20
13.570838
 30
0.0
  0
LWPOLYLINE
  5
158
100
AcDbEntity
  8
Layer_1
 62
7
100
AcDbPolyline
 90
7
 70
0
 10
3.139425
 20
14.112793
 30
0.0
 10
2.911828
 20
14.394134
 30
0.0
 10
2.938495
 20
14.413225
 30
0.0
 10
2.958631
 20
14.401327
 30
0.0
 10
2.992334
 20
14.346358
 30
0.0
 10
3.139425
 20
14.112793
 30
0.0
 10
3.139425
 20
14.112793
 30
0.0
  0
LWPOLYLINE
  5
159
100
AcDbEntity
  8
Layer_1
 62
7
100
AcDbPolyline
 90
8
 70
0
 10
1.255261
 20
14.105242
 30
0.0
 10
1.033783
 20
14.318562
 30
0.0
 10
1.045700
 20
14.331919
 30
0.0
 10
1.057068
 20
14.334818
 30
0.0
 10
1.078654
 20
14.318736
 30
0.0
 10
1.120719
 20
14.265508
 30
0.0
 10
1.255261
 20
14.105242
 30
0.0
 10
1.255261
 20
14.105242
 30
0.0
  0
LWPOLYLINE
  5
15a
100
AcDbEntity
  8
Layer_1
 62
7
100
AcDbPolyline
 90
6
 70
0
 10
3.456980
 20
13.540246
 30
0.0
 10
2.661852
 20
12.897419
 30
0.0
 10
2.016985
 20
13.695082
 30
0.0
 10
2.812058
 20
14.337910
 30
0.0
 10
3.456980
 20
13.540246
 30
0.0
 10
3.456980
 20
13.540246
 30
0.0
  0
LWPOLYLINE
  5
15b
100
AcDbEntity
  8
Layer_1
 62
7
100
AcDbPolyline
 90
6
 70
0
 10
1.684492
 20
13.535010
 30
0.0
 10
0.975464
 20
12.798310
 30
0.0
 10
0.236394
 20
13.509654
 30
0.0
 10
0.945423
 20
14.246298
 30
0.0
 10
1.684492
 20
13.535010
 30
0.0
 10
1.684492
 20
13.535010
 30
0.0
  0
LWPOLYLINE
  5
15c
100
AcDbEntity
  8
Layer_1
 62
7
100
AcDbPolyline
 90
6
 70
0
 10
9.794578
 20
14.160363
 30
0.0
 10
9.791215
 20
13.134607
 30
0.0
 10
8.768766
 20
13.137914
 30
0.0
 10
8.772128
 20
14.163671
 30
0.0
 10
9.794578
 20
14.160363
 30
0.0
 10
9.794578
 20
14.160363
 30
0.0
  0
LWPOLYLINE
  5
15d
100
AcDbEntity
  8
Layer_1
 62
7
100
AcDbPolyline
 90
6
 70
0
 10
8.624788
 20
13.127772
 30
0.0
 10
7.613805
 20
12.975526
 30
0.0
 10
7.461063
 20
13.989762
 30
0.0
 10
8.472047
 20
14.142063
 30
0.0
 10
8.624788
 20
13.127772
 30
0.0
 10
8.624788
 20
13.127772
 30
0.0
  0
LWPOLYLINE
  5
15e
100
AcDbEntity
  8
Layer_1
 62
7
100
AcDbPolyline
 90
9
 70
0
 10
8.658413
 20
13.861109
 30
0.0
 10
8.657861
 20
13.667467
 30
0.0
 10
8.587251
 20
14.134897
 30
0.0
 10
8.621764
 20
14.139505
 30
0.0
 10
8.648394
 20
14.135740
 30
0.0
 10
8.662419
 20
14.118587
 30
0.0
 10
8.659116
 20
14.083028
 30
0.0
 10
8.658413
 20
13.861109
 30
0.0
 10
8.658413
 20
13.861109
 30
0.0
  0
LWPOLYLINE
  5
15f
100
AcDbEntity
  8
Layer_1
 62
7
100
AcDbPolyline
 90
6
 70
0
 10
11.103990
 20
13.979013
 30
0.0
 10
10.945460
 20
12.965549
 30
0.0
 10
9.935248
 20
13.123527
 30
0.0
 10
10.093777
 20
14.136992
 30
0.0
 10
11.103990
 20
13.979013
 30
0.0
 10
11.103990
 20
13.979013
 30
0.0
  0
LWPOLYLINE
  5
160
100
AcDbEntity
  8
Layer_1
 62
7
100
AcDbPolyline
 90
6
 70
0
 10
9.922239
 20
14.136826
 30
0.0
 10
9.978739
 20
14.128944
 30
0.0
 10
9.906144
 20
13.663884
 30
0.0
 10
9.908183
 20
14.133464
 30
0.0
 10
9.922239
 20
14.136826
 30
0.0
 10
9.922239
 20
14.136826
 30
0.0
  0
LWPOLYLINE
  5
161
100
AcDbEntity
  8
Layer_1
 62
7
100
AcDbPolyline
 90
9
 70
0
 10
4.435222
 20
13.727273
 30
0.0
 10
4.508313
 20
13.582745
 30
0.0
 10
4.270408
 20
13.929239
 30
0.0
 10
4.298637
 20
13.950964
 30
0.0
 10
4.320166
 20
13.948591
 30
0.0
 10
4.336716
 20
13.928315
 30
0.0
 10
4.350010
 20
13.896330
 30
0.0
 10
4.435222
 20
13.727273
 30
0.0
 10
4.435222
 20
13.727273
 30
0.0
  0
LWPOLYLINE
  5
162
100
AcDbEntity
  8
Layer_1
 62
7
100
AcDbPolyline
 90
9
 70
0
 10
7.394256
 20
13.674246
 30
0.0
 10
7.423415
 20
13.481101
 30
0.0
 10
7.280981
 20
13.936515
 30
0.0
 10
7.314709
 20
13.945664
 30
0.0
 10
7.342047
 20
13.945708
 30
0.0
 10
7.358887
 20
13.930797
 30
0.0
 10
7.361124
 20
13.895082
 30
0.0
 10
7.394256
 20
13.674246
 30
0.0
 10
7.394256
 20
13.674246
 30
0.0
  0
LWPOLYLINE
  5
163
100
AcDbEntity
  8
Layer_1
 62
7
100
AcDbPolyline
 90
6
 70
0
 10
6.973292
 20
13.939987
 30
0.0
 10
6.970154
 20
13.932583
 30
0.0
 10
6.966197
 20
13.936215
 30
0.0
 10
6.965787
 20
13.941733
 30
0.0
 10
6.973292
 20
13.939987
 30
0.0
 10
6.973292
 20
13.939987
 30
0.0
  0
LWPOLYLINE
  5
164
100
AcDbEntity
  8
Layer_1
 62
7
100
AcDbPolyline
 90
6
 70
0
 10
11.225367
 20
13.938940
 30
0.0
 10
11.284182
 20
13.924002
 30
0.0
 10
11.138165
 20
13.466714
 30
0.0
 10
11.210705
 20
13.933208
 30
0.0
 10
11.225367
 20
13.938940
 30
0.0
 10
11.225367
 20
13.938940
 30
0.0
  0
LWPOLYLINE
  5
165
100
AcDbEntity
  8
Layer_1
 62
7
100
AcDbPolyline
 90
6
 70
0
 10
7.473355
 20
12.943170
 30
0.0
 10
6.497759
 20
12.637190
 30
0.0
 10
6.190787
 20
13.615928
 30
0.0
 10
7.166438
 20
13.921908
 30
0.0
 10
7.473355
 20
12.943170
 30
0.0
 10
7.473355
 20
12.943170
 30
0.0
  0
LWPOLYLINE
  5
166
100
AcDbEntity
  8
Layer_1
 62
7
100
AcDbPolyline
 90
6
 70
0
 10
12.371895
 20
13.598620
 30
0.0
 10
12.059742
 20
12.621480
 30
0.0
 10
11.085799
 20
12.932641
 30
0.0
 10
11.397953
 20
13.909726
 30
0.0
 10
12.371895
 20
13.598620
 30
0.0
 10
12.371895
 20
13.598620
 30
0.0
  0
LWPOLYLINE
  5
167
100
AcDbEntity
  8
Layer_1
 62
7
100
AcDbPolyline
 90
6
 70
0
 10
4.746934
 20
13.035002
 30
0.0
 10
3.903905
 20
12.456557
 30
0.0
 10
3.323531
 20
13.302342
 30
0.0
 10
4.166615
 20
13.880787
 30
0.0
 10
4.746934
 20
13.035002
 30
0.0
 10
4.746934
 20
13.035002
 30
0.0
  0
LWPOLYLINE
  5
168
100
AcDbEntity
  8
Layer_1
 62
7
100
AcDbPolyline
 90
7
 70
0
 10
2.167522
 20
13.329516
 30
0.0
 10
1.906246
 20
13.584453
 30
0.0
 10
1.930817
 20
13.606242
 30
0.0
 10
1.952350
 20
13.596754
 30
0.0
 10
1.992340
 20
13.546127
 30
0.0
 10
2.167522
 20
13.329516
 30
0.0
 10
2.167522
 20
13.329516
 30
0.0
  0
LWPOLYLINE
  5
169
100
AcDbEntity
  8
Layer_1
 62
7
100
AcDbPolyline
 90
8
 70
0
 10
6.233065
 20
13.105503
 30
0.0
 10
6.017706
 20
13.542065
 30
0.0
 10
6.050205
 20
13.555639
 30
0.0
 10
6.077976
 20
13.559838
 30
0.0
 10
6.097564
 20
13.547817
 30
0.0
 10
6.105518
 20
13.512730
 30
0.0
 10
6.233065
 20
13.105503
 30
0.0
 10
6.233065
 20
13.105503
 30
0.0
  0
LWPOLYLINE
  5
16a
100
AcDbEntity
  8
Layer_1
 62
7
100
AcDbPolyline
 90
6
 70
0
 10
12.480815
 20
13.548073
 30
0.0
 10
12.545913
 20
13.523875
 30
0.0
 10
12.327632
 20
13.088084
 30
0.0
 10
12.475689
 20
13.548845
 30
0.0
 10
12.480815
 20
13.548074
 30
0.0
 10
12.480815
 20
13.548073
 30
0.0
  0
LWPOLYLINE
  5
16b
100
AcDbEntity
  8
Layer_1
 62
7
100
AcDbPolyline
 90
6
 70
0
 10
2.551664
 20
12.796987
 30
0.0
 10
1.837730
 20
12.065084
 30
0.0
 10
1.103456
 20
12.781278
 30
0.0
 10
1.817335
 20
13.513237
 30
0.0
 10
2.551664
 20
12.796987
 30
0.0
 10
2.551664
 20
12.796987
 30
0.0
  0
LWPOLYLINE
  5
16c
100
AcDbEntity
  8
Layer_1
 62
7
100
AcDbPolyline
 90
6
 70
0
 10
6.363979
 20
12.583502
 30
0.0
 10
5.447032
 20
12.131340
 30
0.0
 10
4.993382
 20
13.051318
 30
0.0
 10
5.910384
 20
13.503480
 30
0.0
 10
6.363979
 20
12.583502
 30
0.0
 10
6.363979
 20
12.583502
 30
0.0
  0
LWPOLYLINE
  5
16d
100
AcDbEntity
  8
Layer_1
 62
7
100
AcDbPolyline
 90
6
 70
0
 10
13.566489
 20
13.027395
 30
0.0
 10
13.107712
 20
12.109898
 30
0.0
 10
12.193136
 20
12.567186
 30
0.0
 10
12.651912
 20
13.484739
 30
0.0
 10
13.566489
 20
13.027395
 30
0.0
 10
13.566489
 20
13.027395
 30
0.0
  0
LWPOLYLINE
  5
16e
100
AcDbEntity
  8
Layer_1
 62
7
100
AcDbPolyline
 90
6
 70
0
 10
3.476658
 20
12.879780
 30
0.0
 10
3.200720
 20
13.188405
 30
0.0
 10
3.224281
 20
13.208150
 30
0.0
 10
3.246991
 20
13.214338
 30
0.0
 10
3.476658
 20
12.879780
 30
0.0
 10
3.476658
 20
12.879780
 30
0.0
  0
LWPOLYLINE
  5
16f
100
AcDbEntity
  8
Layer_1
 62
7
100
AcDbPolyline
 90
6
 70
0
 10
3.788536
 20
12.365386
 30
0.0
 10
3.029733
 20
11.680115
 30
0.0
 10
2.342257
 20
12.441398
 30
0.0
 10
3.101060
 20
13.126669
 30
0.0
 10
3.788536
 20
12.365386
 30
0.0
 10
3.788536
 20
12.365386
 30
0.0
  0
LWPOLYLINE
  5
170
100
AcDbEntity
  8
Layer_1
 62
7
100
AcDbPolyline
 90
6
 70
0
 10
10.450855
 20
12.956895
 30
0.0
 10
10.358030
 20
11.935273
 30
0.0
 10
9.339715
 20
12.027766
 30
0.0
 10
9.432539
 20
13.049389
 30
0.0
 10
10.450855
 20
12.956895
 30
0.0
 10
10.450855
 20
12.956895
 30
0.0
  0
LWPOLYLINE
  5
171
100
AcDbEntity
  8
Layer_1
 62
7
100
AcDbPolyline
 90
6
 70
0
 10
9.198989
 20
12.027326
 30
0.0
 10
8.180564
 20
11.936761
 30
0.0
 10
8.089614
 20
12.958494
 30
0.0
 10
9.108094
 20
13.049113
 30
0.0
 10
9.198989
 20
12.027326
 30
0.0
 10
9.198989
 20
12.027326
 30
0.0
  0
LWPOLYLINE
  5
172
100
AcDbEntity
  8
Layer_1
 62
7
100
AcDbPolyline
 90
8
 70
0
 10
9.246725
 20
13.024474
 30
0.0
 10
9.317115
 20
13.022213
 30
0.0
 10
9.270206
 20
12.505835
 30
0.0
 10
9.227101
 20
12.987046
 30
0.0
 10
9.224000
 20
13.014837
 30
0.0
 10
9.230467
 20
13.023793
 30
0.0
 10
9.246725
 20
13.024473
 30
0.0
 10
9.246725
 20
13.024474
 30
0.0
  0
LWPOLYLINE
  5
173
100
AcDbEntity
  8
Layer_1
 62
7
100
AcDbPolyline
 90
7
 70
0
 10
4.924315
 20
12.932972
 30
0.0
 10
5.113382
 20
12.553295
 30
0.0
 10
4.828734
 20
12.954249
 30
0.0
 10
4.859222
 20
12.976731
 30
0.0
 10
4.893061
 20
12.993330
 30
0.0
 10
4.924315
 20
12.932972
 30
0.0
 10
4.924315
 20
12.932972
 30
0.0
  0
LWPOLYLINE
  5
174
100
AcDbEntity
  8
Layer_1
 62
7
100
AcDbPolyline
 90
8
 70
0
 10
13.666865
 20
12.970289
 30
0.0
 10
13.701153
 20
12.948391
 30
0.0
 10
13.716690
 20
12.937262
 30
0.0
 10
13.722822
 20
12.924067
 30
0.0
 10
13.444064
 20
12.529703
 30
0.0
 10
13.664384
 20
12.972164
 30
0.0
 10
13.666865
 20
12.970290
 30
0.0
 10
13.666865
 20
12.970289
 30
0.0
  0
LWPOLYLINE
  5
175
100
AcDbEntity
  8
Layer_1
 62
7
100
AcDbPolyline
 90
7
 70
0
 10
8.026775
 20
12.398018
 30
0.0
 10
7.889357
 20
12.902545
 30
0.0
 10
7.954040
 20
12.914139
 30
0.0
 10
7.978975
 20
12.910514
 30
0.0
 10
7.983664
 20
12.881132
 30
0.0
 10
8.026775
 20
12.398018
 30
0.0
 10
8.026775
 20
12.398018
 30
0.0
  0
LWPOLYLINE
  5
176
100
AcDbEntity
  8
Layer_1
 62
7
100
AcDbPolyline
 90
7
 70
0
 10
10.572398
 20
12.910152
 30
0.0
 10
10.654253
 20
12.896316
 30
0.0
 10
10.512480
 20
12.387820
 30
0.0
 10
10.559058
 20
12.896371
 30
0.0
 10
10.562529
 20
12.907476
 30
0.0
 10
10.572398
 20
12.910152
 30
0.0
 10
10.572398
 20
12.910152
 30
0.0
  0
LWPOLYLINE
  5
177
100
AcDbEntity
  8
Layer_1
 62
7
100
AcDbPolyline
 90
6
 70
0
 10
8.041768
 20
11.912011
 30
0.0
 10
7.055368
 20
11.642743
 30
0.0
 10
6.785163
 20
12.632284
 30
0.0
 10
7.771562
 20
12.901608
 30
0.0
 10
8.041768
 20
11.912011
 30
0.0
 10
8.041768
 20
11.912011
 30
0.0
  0
LWPOLYLINE
  5
178
100
AcDbEntity
  8
Layer_1
 62
7
100
AcDbPolyline
 90
6
 70
0
 10
11.756298
 20
12.624071
 30
0.0
 10
11.481296
 20
11.635852
 30
0.0
 10
10.496275
 20
11.909972
 30
0.0
 10
10.771276
 20
12.898246
 30
0.0
 10
11.756298
 20
12.624071
 30
0.0
 10
11.756298
 20
12.624071
 30
0.0
  0
LWPOLYLINE
  5
179
100
AcDbEntity
  8
Layer_1
 62
7
100
AcDbPolyline
 90
6
 70
0
 10
5.323064
 20
12.057532
 30
0.0
 10
4.485823
 20
11.470598
 30
0.0
 10
3.896960
 20
12.310485
 30
0.0
 10
4.734201
 20
12.897474
 30
0.0
 10
5.323064
 20
12.057532
 30
0.0
 10
5.323064
 20
12.057532
 30
0.0
  0
LWPOLYLINE
  5
17a
100
AcDbEntity
  8
Layer_1
 62
7
100
AcDbPolyline
 90
8
 70
0
 10
1.071706
 20
12.652459
 30
0.0
 10
1.297098
 20
12.434894
 30
0.0
 10
0.987701
 20
12.672302
 30
0.0
 10
1.019948
 20
12.683886
 30
0.0
 10
1.034174
 20
12.686775
 30
0.0
 10
1.046589
 20
12.675434
 30
0.0
 10
1.071706
 20
12.652459
 30
0.0
 10
1.071706
 20
12.652459
 30
0.0
  0
LWPOLYLINE
  5
17b
100
AcDbEntity
  8
Layer_1
 62
7
100
AcDbPolyline
 90
9
 70
0
 10
6.763169
 20
12.286066
 30
0.0
 10
6.824189
 20
12.062934
 30
0.0
 10
6.591576
 20
12.548444
 30
0.0
 10
6.655658
 20
12.570380
 30
0.0
 10
6.682051
 20
12.571019
 30
0.0
 10
6.689963
 20
12.561674
 30
0.0
 10
6.692877
 20
12.543189
 30
0.0
 10
6.763169
 20
12.286066
 30
0.0
 10
6.763169
 20
12.286066
 30
0.0
  0
LWPOLYLINE
  5
17c
100
AcDbEntity
  8
Layer_1
 62
7
100
AcDbPolyline
 90
6
 70
0
 10
1.740055
 20
11.952305
 30
0.0
 10
1.117292
 20
11.141412
 30
0.0
 10
0.303808
 20
11.766160
 30
0.0
 10
0.926571
 20
12.577052
 30
0.0
 10
1.740055
 20
11.952305
 30
0.0
 10
1.740055
 20
11.952305
 30
0.0
  0
LWPOLYLINE
  5
17d
100
AcDbEntity
  8
Layer_1
 62
7
100
AcDbPolyline
 90
6
 70
0
 10
11.873431
 20
12.564595
 30
0.0
 10
11.948617
 20
12.536814
 30
0.0
 10
11.715122
 20
12.054776
 30
0.0
 10
11.858658
 20
12.562501
 30
0.0
 10
11.873431
 20
12.564595
 30
0.0
 10
11.873431
 20
12.564595
 30
0.0
  0
LWPOLYLINE
  5
17e
100
AcDbEntity
  8
Layer_1
 62
7
100
AcDbPolyline
 90
6
 70
0
 10
6.923573
 20
11.593795
 30
0.0
 10
6.001500
 20
11.151885
 30
0.0
 10
5.558157
 20
12.076935
 30
0.0
 10
6.480230
 20
12.518844
 30
0.0
 10
6.923573
 20
11.593795
 30
0.0
 10
6.923573
 20
11.593795
 30
0.0
  0
LWPOLYLINE
  5
17f
100
AcDbEntity
  8
Layer_1
 62
7
100
AcDbPolyline
 90
6
 70
0
 10
12.980326
 20
12.063210
 30
0.0
 10
12.532960
 20
11.140145
 30
0.0
 10
11.612872
 20
11.586023
 30
0.0
 10
12.060238
 20
12.509088
 30
0.0
 10
12.980326
 20
12.063210
 30
0.0
 10
12.980326
 20
12.063210
 30
0.0
  0
LWPOLYLINE
  5
180
100
AcDbEntity
  8
Layer_1
 62
7
100
AcDbPolyline
 90
15
 70
0
 10
-0.007022
 20
12.432138
 30
0.0
 10
-0.007591
 20
12.320103
 30
0.0
 10
-0.002918
 20
12.209373
 30
0.0
 10
0.088393
 20
12.035318
 30
0.0
 10
0.030718
 20
12.007138
 30
0.0
 10
0.004542
 20
11.991441
 30
0.0
 10
-0.007022
 20
11.966912
 30
0.0
 10
-0.008792
 20
11.899966
 30
0.0
 10
-0.006857
 20
11.871172
 30
0.0
 10
-0.001057
 20
11.864783
 30
0.0
 10
0.009534
 20
11.866339
 30
0.0
 10
0.241190
 20
11.987748
 30
0.0
 10
-0.006416
 20
12.458431
 30
0.0
 10
-0.007023
 20
12.432138
 30
0.0
 10
-0.007022
 20
12.432138
 30
0.0
  0
LWPOLYLINE
  5
181
100
AcDbEntity
  8
Layer_1
 62
7
100
AcDbPolyline
 90
8
 70
0
 10
2.549514
 20
12.043256
 30
0.0
 10
2.234825
 20
12.310099
 30
0.0
 10
2.257962
 20
12.337772
 30
0.0
 10
2.280605
 20
12.337745
 30
0.0
 10
2.302922
 20
12.319357
 30
0.0
 10
2.325077
 20
12.291949
 30
0.0
 10
2.549514
 20
12.043256
 30
0.0
 10
2.549514
 20
12.043256
 30
0.0
  0
LWPOLYLINE
  5
182
100
AcDbEntity
  8
Layer_1
 62
7
100
AcDbPolyline
 90
6
 70
0
 10
2.927372
 20
11.574502
 30
0.0
 10
2.266245
 20
10.794643
 30
0.0
 10
1.483850
 20
11.457975
 30
0.0
 10
2.144977
 20
12.237835
 30
0.0
 10
2.927372
 20
11.574502
 30
0.0
 10
2.927372
 20
11.574502
 30
0.0
  0
LWPOLYLINE
  5
183
100
AcDbEntity
  8
Layer_1
 62
7
100
AcDbPolyline
 90
9
 70
0
 10
3.975012
 20
12.003017
 30
0.0
 10
4.088948
 20
11.840574
 30
0.0
 10
3.758384
 20
12.185524
 30
0.0
 10
3.782784
 20
12.210803
 30
0.0
 10
3.805905
 20
12.224645
 30
0.0
 10
3.826924
 20
12.219676
 30
0.0
 10
3.845016
 20
12.188523
 30
0.0
 10
3.975012
 20
12.003017
 30
0.0
 10
3.975012
 20
12.003017
 30
0.0
  0
LWPOLYLINE
  5
184
100
AcDbEntity
  8
Layer_1
 62
7
100
AcDbPolyline
 90
6
 70
0
 10
4.374367
 20
11.378931
 30
0.0
 10
3.636180
 20
10.671501
 30
0.0
 10
2.926490
 20
11.412114
 30
0.0
 10
3.664678
 20
12.119544
 30
0.0
 10
4.374367
 20
11.378931
 30
0.0
 10
4.374367
 20
11.378931
 30
0.0
  0
LWPOLYLINE
  5
185
100
AcDbEntity
  8
Layer_1
 62
7
100
AcDbPolyline
 90
9
 70
0
 10
5.460096
 20
12.014813
 30
0.0
 10
5.698056
 20
11.524782
 30
0.0
 10
5.397444
 20
11.937099
 30
0.0
 10
5.385833
 20
11.960918
 30
0.0
 10
5.392465
 20
11.971075
 30
0.0
 10
5.406794
 20
11.977000
 30
0.0
 10
5.433191
 20
11.997085
 30
0.0
 10
5.460096
 20
12.014813
 30
0.0
 10
5.460096
 20
12.014813
 30
0.0
  0
LWPOLYLINE
  5
186
100
AcDbEntity
  8
Layer_1
 62
7
100
AcDbPolyline
 90
8
 70
0
 10
13.078112
 20
11.998277
 30
0.0
 10
13.118771
 20
11.978055
 30
0.0
 10
13.154676
 20
11.950155
 30
0.0
 10
12.839656
 20
11.513648
 30
0.0
 10
13.056427
 20
11.962891
 30
0.0
 10
13.064045
 20
11.984119
 30
0.0
 10
13.078112
 20
11.998277
 30
0.0
 10
13.078112
 20
11.998277
 30
0.0
  0
LWPOLYLINE
  5
187
100
AcDbEntity
  8
Layer_1
 62
7
100
AcDbPolyline
 90
6
 70
0
 10
5.880784
 20
11.079897
 30
0.0
 10
5.053134
 20
10.479623
 30
0.0
 10
4.450931
 20
11.309919
 30
0.0
 10
5.278581
 20
11.910192
 30
0.0
 10
5.880784
 20
11.079897
 30
0.0
 10
5.880784
 20
11.079897
 30
0.0
  0
LWPOLYLINE
  5
188
100
AcDbEntity
  8
Layer_1
 62
7
100
AcDbPolyline
 90
6
 70
0
 10
9.796672
 20
11.890018
 30
0.0
 10
9.791987
 20
10.864261
 30
0.0
 10
8.769538
 20
10.868947
 30
0.0
 10
8.774278
 20
11.894703
 30
0.0
 10
9.796672
 20
11.890018
 30
0.0
 10
9.796672
 20
11.890018
 30
0.0
  0
LWPOLYLINE
  5
189
100
AcDbEntity
  8
Layer_1
 62
7
100
AcDbPolyline
 90
5
 70
0
 10
8.658799
 20
11.279271
 30
0.0
 10
8.534996
 20
11.854795
 30
0.0
 10
8.661555
 20
11.866205
 30
0.0
 10
8.658798
 20
11.279271
 30
0.0
 10
8.658799
 20
11.279271
 30
0.0
  0
LWPOLYLINE
  5
18a
100
AcDbEntity
  8
Layer_1
 62
7
100
AcDbPolyline
 90
5
 70
0
 10
10.035900
 20
11.851378
 30
0.0
 10
9.906970
 20
11.274806
 30
0.0
 10
9.909616
 20
11.862788
 30
0.0
 10
10.035900
 20
11.851378
 30
0.0
 10
10.035900
 20
11.851378
 30
0.0
  0
LWPOLYLINE
  5
18b
100
AcDbEntity
  8
Layer_1
 62
7
100
AcDbPolyline
 90
6
 70
0
 10
8.634214
 20
10.855442
 30
0.0
 10
7.634696
 20
10.640247
 30
0.0
 10
7.418785
 20
11.643018
 30
0.0
 10
8.418303
 20
11.858213
 30
0.0
 10
8.634214
 20
10.855442
 30
0.0
 10
8.634214
 20
10.855442
 30
0.0
  0
LWPOLYLINE
  5
18c
100
AcDbEntity
  8
Layer_1
 62
7
100
AcDbPolyline
 90
6
 70
0
 10
11.149079
 20
11.627253
 30
0.0
 10
10.925065
 20
10.626246
 30
0.0
 10
9.927310
 20
10.849544
 30
0.0
 10
10.151324
 20
11.850551
 30
0.0
 10
11.149079
 20
11.627253
 30
0.0
 10
11.149079
 20
11.627253
 30
0.0
  0
LWPOLYLINE
  5
18d
100
AcDbEntity
  8
Layer_1
 62
7
100
AcDbPolyline
 90
5
 70
0
 10
7.439124
 20
11.014082
 30
0.0
 10
7.187881
 20
11.561714
 30
0.0
 10
7.313613
 20
11.596330
 30
0.0
 10
7.439124
 20
11.014082
 30
0.0
 10
7.439124
 20
11.014082
 30
0.0
  0
LWPOLYLINE
  5
18e
100
AcDbEntity
  8
Layer_1
 62
7
100
AcDbPolyline
 90
8
 70
0
 10
11.283190
 20
11.573896
 30
0.0
 10
11.336982
 20
11.560140
 30
0.0
 10
11.362492
 20
11.552430
 30
0.0
 10
11.378149
 20
11.540166
 30
0.0
 10
11.124660
 20
10.998758
 30
0.0
 10
11.254912
 20
11.581117
 30
0.0
 10
11.283190
 20
11.573896
 30
0.0
 10
11.283190
 20
11.573896
 30
0.0
  0
LWPOLYLINE
  5
18f
100
AcDbEntity
  8
Layer_1
 62
7
100
AcDbPolyline
 90
6
 70
0
 10
7.505987
 20
10.597198
 30
0.0
 10
6.576748
 20
10.170612
 30
0.0
 10
6.148785
 20
11.102882
 30
0.0
 10
7.078078
 20
11.529468
 30
0.0
 10
7.505987
 20
10.597198
 30
0.0
 10
7.505987
 20
10.597198
 30
0.0
  0
LWPOLYLINE
  5
190
100
AcDbEntity
  8
Layer_1
 62
7
100
AcDbPolyline
 90
6
 70
0
 10
12.414890
 20
11.077251
 30
0.0
 10
11.979430
 20
10.148508
 30
0.0
 10
11.053663
 20
10.582535
 30
0.0
 10
11.489124
 20
11.511278
 30
0.0
 10
12.414890
 20
11.077251
 30
0.0
 10
12.414890
 20
11.077251
 30
0.0
  0
LWPOLYLINE
  5
191
100
AcDbEntity
  8
Layer_1
 62
7
100
AcDbPolyline
 90
8
 70
0
 10
1.745181
 20
11.088661
 30
0.0
 10
1.393065
 20
11.314218
 30
0.0
 10
1.412948
 20
11.344462
 30
0.0
 10
1.435726
 20
11.347621
 30
0.0
 10
1.460449
 20
11.332571
 30
0.0
 10
1.486170
 20
11.308190
 30
0.0
 10
1.745181
 20
11.088661
 30
0.0
 10
1.745181
 20
11.088661
 30
0.0
  0
LWPOLYLINE
  5
192
100
AcDbEntity
  8
Layer_1
 62
7
100
AcDbPolyline
 90
5
 70
0
 10
3.188593
 20
10.975717
 30
0.0
 10
2.813436
 20
11.264058
 30
0.0
 10
2.859242
 20
11.319289
 30
0.0
 10
3.188593
 20
10.975717
 30
0.0
 10
3.188593
 20
10.975717
 30
0.0
  0
LWPOLYLINE
  5
193
100
AcDbEntity
  8
Layer_1
 62
7
100
AcDbPolyline
 90
6
 70
0
 10
2.178877
 20
10.676407
 30
0.0
 10
1.627331
 20
9.815464
 30
0.0
 10
0.763632
 20
10.368774
 30
0.0
 10
1.315178
 20
11.229717
 30
0.0
 10
2.178877
 20
10.676407
 30
0.0
 10
2.178877
 20
10.676407
 30
0.0
  0
LWPOLYLINE
  5
194
100
AcDbEntity
  8
Layer_1
 62
7
100
AcDbPolyline
 90
10
 70
0
 10
4.460908
 20
11.104150
 30
0.0
 10
4.686190
 20
10.793485
 30
0.0
 10
4.318474
 20
11.144554
 30
0.0
 10
4.315876
 20
11.167735
 30
0.0
 10
4.332046
 20
11.185372
 30
0.0
 10
4.354661
 20
11.201226
 30
0.0
 10
4.371398
 20
11.219058
 30
0.0
 10
4.416466
 20
11.165018
 30
0.0
 10
4.460908
 20
11.104150
 30
0.0
 10
4.460908
 20
11.104150
 30
0.0
  0
LWPOLYLINE
  5
195
100
AcDbEntity
  8
Layer_1
 62
7
100
AcDbPolyline
 90
6
 70
0
 10
3.539883
 20
10.563959
 30
0.0
 10
2.917891
 20
9.752515
 30
0.0
 10
2.103857
 20
10.376546
 30
0.0
 10
2.725848
 20
11.187935
 30
0.0
 10
3.539883
 20
10.563959
 30
0.0
 10
3.539883
 20
10.563959
 30
0.0
  0
LWPOLYLINE
  5
196
100
AcDbEntity
  8
Layer_1
 62
7
100
AcDbPolyline
 90
6
 70
0
 10
4.947246
 20
10.386799
 30
0.0
 10
4.239926
 20
9.648501
 30
0.0
 10
3.499258
 20
10.358135
 30
0.0
 10
4.206523
 20
11.096433
 30
0.0
 10
4.947246
 20
10.386799
 30
0.0
 10
4.947246
 20
10.386799
 30
0.0
  0
LWPOLYLINE
  5
197
100
AcDbEntity
  8
Layer_1
 62
7
100
AcDbPolyline
 90
7
 70
0
 10
6.081316
 20
10.977095
 30
0.0
 10
6.303952
 20
10.494671
 30
0.0
 10
5.938055
 20
10.982662
 30
0.0
 10
5.990716
 20
11.018770
 30
0.0
 10
6.047581
 20
11.047706
 30
0.0
 10
6.081316
 20
10.977095
 30
0.0
 10
6.081316
 20
10.977095
 30
0.0
  0
LWPOLYLINE
  5
198
100
AcDbEntity
  8
Layer_1
 62
7
100
AcDbPolyline
 90
6
 70
0
 10
12.515872
 20
11.023287
 30
0.0
 10
12.571507
 20
10.988580
 30
0.0
 10
12.623910
 20
10.948873
 30
0.0
 10
12.254817
 20
10.469040
 30
0.0
 10
12.515872
 20
11.023287
 30
0.0
 10
12.515872
 20
11.023287
 30
0.0
  0
LWPOLYLINE
  5
199
100
AcDbEntity
  8
Layer_1
 62
7
100
AcDbPolyline
 90
6
 70
0
 10
6.460221
 20
10.100552
 30
0.0
 10
5.644423
 20
9.484128
 30
0.0
 10
5.026069
 20
10.302573
 30
0.0
 10
5.841868
 20
10.918942
 30
0.0
 10
6.460221
 20
10.100552
 30
0.0
 10
6.460221
 20
10.100552
 30
0.0
  0
LWPOLYLINE
  5
19a
100
AcDbEntity
  8
Layer_1
 62
7
100
AcDbPolyline
 90
6
 70
0
 10
13.531266
 20
10.267185
 30
0.0
 10
12.905802
 20
9.454087
 30
0.0
 10
12.095350
 20
10.077567
 30
0.0
 10
12.720814
 20
10.890609
 30
0.0
 10
13.531266
 20
10.267185
 30
0.0
 10
13.531266
 20
10.267185
 30
0.0
  0
LWPOLYLINE
  5
19b
100
AcDbEntity
  8
Layer_1
 62
7
100
AcDbPolyline
 90
4
 70
0
 10
9.878362
 20
10.814431
 30
0.0
 10
9.872033
 20
10.815582
 30
0.0
 10
9.878362
 20
10.814431
 30
0.0
 10
9.878362
 20
10.814431
 30
0.0
  0
LWPOLYLINE
  5
19c
100
AcDbEntity
  8
Layer_1
 62
7
100
AcDbPolyline
 90
6
 70
0
 10
9.207478
 20
9.741822
 30
0.0
 10
8.194124
 20
9.605947
 30
0.0
 10
8.057753
 20
10.622609
 30
0.0
 10
9.071108
 20
10.758483
 30
0.0
 10
9.207478
 20
9.741822
 30
0.0
 10
9.207478
 20
9.741822
 30
0.0
  0
LWPOLYLINE
  5
19d
100
AcDbEntity
  8
Layer_1
 62
7
100
AcDbPolyline
 90
6
 70
0
 10
10.484038
 20
10.615994
 30
0.0
 10
10.342486
 20
9.600049
 30
0.0
 10
9.329848
 20
9.741160
 30
0.0
 10
9.471400
 20
10.757105
 30
0.0
 10
10.484038
 20
10.615994
 30
0.0
 10
10.484038
 20
10.615994
 30
0.0
  0
LWPOLYLINE
  5
19e
100
AcDbEntity
  8
Layer_1
 62
7
100
AcDbPolyline
 90
5
 70
0
 10
9.357243
 20
10.753412
 30
0.0
 10
9.270041
 20
10.128113
 30
0.0
 10
9.186201
 20
10.754018
 30
0.0
 10
9.357243
 20
10.753412
 30
0.0
 10
9.357243
 20
10.753412
 30
0.0
  0
LWPOLYLINE
  5
19f
100
AcDbEntity
  8
Layer_1
 62
7
100
AcDbPolyline
 90
5
 70
0
 10
8.033114
 20
9.958284
 30
0.0
 10
7.775090
 20
10.555030
 30
0.0
 10
7.947951
 20
10.592292
 30
0.0
 10
8.033114
 20
9.958284
 30
0.0
 10
8.033114
 20
9.958284
 30
0.0
  0
LWPOLYLINE
  5
1a0
100
AcDbEntity
  8
Layer_1
 62
7
100
AcDbPolyline
 90
5
 70
0
 10
10.765543
 20
10.546265
 30
0.0
 10
10.506141
 20
9.953323
 30
0.0
 10
10.594060
 20
10.584740
 30
0.0
 10
10.765543
 20
10.546265
 30
0.0
 10
10.765543
 20
10.546265
 30
0.0
  0
LWPOLYLINE
  5
1a1
100
AcDbEntity
  8
Layer_1
 62
7
100
AcDbPolyline
 90
6
 70
0
 10
8.076660
 20
9.573260
 30
0.0
 10
7.138161
 20
9.167510
 30
0.0
 10
6.731088
 20
10.109041
 30
0.0
 10
7.669588
 20
10.514791
 30
0.0
 10
8.076660
 20
9.573260
 30
0.0
 10
8.076660
 20
9.573260
 30
0.0
  0
LWPOLYLINE
  5
1a2
100
AcDbEntity
  8
Layer_1
 62
7
100
AcDbPolyline
 90
6
 70
0
 10
11.808002
 20
10.097411
 30
0.0
 10
11.396795
 20
9.157644
 30
0.0
 10
10.460060
 20
9.567527
 30
0.0
 10
10.871211
 20
10.507294
 30
0.0
 10
11.808002
 20
10.097411
 30
0.0
 10
11.808002
 20
10.097411
 30
0.0
  0
LWPOLYLINE
  5
1a3
100
AcDbEntity
  8
Layer_1
 62
7
100
AcDbPolyline
 90
8
 70
0
 10
2.161403
 20
10.189794
 30
0.0
 10
2.432712
 20
9.982372
 30
0.0
 10
2.017757
 20
10.209528
 30
0.0
 10
2.043261
 20
10.256684
 30
0.0
 10
2.059631
 20
10.266392
 30
0.0
 10
2.080976
 20
10.250146
 30
0.0
 10
2.161403
 20
10.189794
 30
0.0
 10
2.161403
 20
10.189794
 30
0.0
  0
LWPOLYLINE
  5
1a4
100
AcDbEntity
  8
Layer_1
 62
7
100
AcDbPolyline
 90
7
 70
0
 10
3.821333
 20
9.893296
 30
0.0
 10
3.388795
 20
10.180203
 30
0.0
 10
3.427480
 20
10.233697
 30
0.0
 10
3.447760
 20
10.248223
 30
0.0
 10
3.470602
 20
10.229330
 30
0.0
 10
3.821333
 20
9.893296
 30
0.0
 10
3.821333
 20
9.893296
 30
0.0
  0
LWPOLYLINE
  5
1a5
100
AcDbEntity
  8
Layer_1
 62
7
100
AcDbPolyline
 90
5
 70
0
 10
5.308843
 20
9.741822
 30
0.0
 10
4.856516
 20
10.128995
 30
0.0
 10
4.945923
 20
10.222150
 30
0.0
 10
5.308843
 20
9.741822
 30
0.0
 10
5.308843
 20
9.741822
 30
0.0
  0
LWPOLYLINE
  5
1a6
100
AcDbEntity
  8
Layer_1
 62
7
100
AcDbPolyline
 90
5
 70
0
 10
13.698449
 20
10.090906
 30
0.0
 10
13.245020
 20
9.709631
 30
0.0
 10
13.609869
 20
10.183841
 30
0.0
 10
13.698449
 20
10.090906
 30
0.0
 10
13.698449
 20
10.090906
 30
0.0
  0
LWPOLYLINE
  5
1a7
100
AcDbEntity
  8
Layer_1
 62
7
100
AcDbPolyline
 90
6
 70
0
 10
2.839123
 20
9.631689
 30
0.0
 10
2.348376
 20
8.734641
 30
0.0
 10
1.448462
 20
9.226987
 30
0.0
 10
1.939209
 20
10.123979
 30
0.0
 10
2.839123
 20
9.631689
 30
0.0
 10
2.839123
 20
9.631689
 30
0.0
  0
LWPOLYLINE
  5
1a8
100
AcDbEntity
  8
Layer_1
 62
7
100
AcDbPolyline
 90
6
 70
0
 10
1.556555
 20
9.686810
 30
0.0
 10
1.125229
 20
8.759776
 30
0.0
 10
0.195219
 20
9.192536
 30
0.0
 10
0.626545
 20
10.119514
 30
0.0
 10
1.556555
 20
9.686810
 30
0.0
 10
1.556555
 20
9.686810
 30
0.0
  0
LWPOLYLINE
  5
1a9
100
AcDbEntity
  8
Layer_1
 62
7
100
AcDbPolyline
 90
6
 70
0
 10
4.151952
 20
9.538423
 30
0.0
 10
3.587122
 20
8.686244
 30
0.0
 10
2.732132
 20
9.252949
 30
0.0
 10
3.297017
 20
10.105128
 30
0.0
 10
4.151952
 20
9.538423
 30
0.0
 10
4.151952
 20
9.538423
 30
0.0
  0
LWPOLYLINE
  5
1aa
100
AcDbEntity
  8
Layer_1
 62
7
100
AcDbPolyline
 90
6
 70
0
 10
6.886752
 20
9.465112
 30
0.0
 10
6.476703
 20
9.971403
 30
0.0
 10
6.548191
 20
10.025375
 30
0.0
 10
6.625917
 20
10.068858
 30
0.0
 10
6.886752
 20
9.465112
 30
0.0
 10
6.886752
 20
9.465112
 30
0.0
  0
LWPOLYLINE
  5
1ab
100
AcDbEntity
  8
Layer_1
 62
7
100
AcDbPolyline
 90
6
 70
0
 10
5.545369
 20
9.390863
 30
0.0
 10
4.880493
 20
8.614090
 30
0.0
 10
4.101185
 20
9.281116
 30
0.0
 10
4.766061
 20
10.057888
 30
0.0
 10
5.545369
 20
9.390863
 30
0.0
 10
5.545369
 20
9.390863
 30
0.0
  0
LWPOLYLINE
  5
1ac
100
AcDbEntity
  8
Layer_1
 62
7
100
AcDbPolyline
 90
7
 70
0
 10
11.918906
 20
10.053920
 30
0.0
 10
11.994662
 20
10.011502
 30
0.0
 10
12.064537
 20
9.959662
 30
0.0
 10
11.649417
 20
9.452819
 30
0.0
 10
11.914055
 20
10.055849
 30
0.0
 10
11.918906
 20
10.053919
 30
0.0
 10
11.918906
 20
10.053920
 30
0.0
  0
LWPOLYLINE
  5
1ad
100
AcDbEntity
  8
Layer_1
 62
7
100
AcDbPolyline
 90
6
 70
0
 10
7.033871
 20
9.103845
 30
0.0
 10
6.239460
 20
8.460191
 30
0.0
 10
5.593711
 20
9.257193
 30
0.0
 10
6.388122
 20
9.900847
 30
0.0
 10
7.033871
 20
9.103845
 30
0.0
 10
7.033871
 20
9.103845
 30
0.0
  0
LWPOLYLINE
  5
1ae
100
AcDbEntity
  8
Layer_1
 62
7
100
AcDbPolyline
 90
6
 70
0
 10
12.941686
 20
9.239224
 30
0.0
 10
12.291638
 20
8.445749
 30
0.0
 10
11.500699
 20
9.093648
 30
0.0
 10
12.150747
 20
9.887177
 30
0.0
 10
12.941686
 20
9.239224
 30
0.0
 10
12.941686
 20
9.239224
 30
0.0
  0
LWPOLYLINE
  5
1af
100
AcDbEntity
  8
Layer_1
 62
7
100
AcDbPolyline
 90
4
 70
0
 10
1.637804
 20
9.728592
 30
0.0
 10
1.634679
 20
9.727180
 30
0.0
 10
1.637804
 20
9.728592
 30
0.0
 10
1.637804
 20
9.728592
 30
0.0
  0
LWPOLYLINE
  5
1b0
100
AcDbEntity
  8
Layer_1
 62
7
100
AcDbPolyline
 90
6
 70
0
 10
9.771702
 20
9.577339
 30
0.0
 10
9.770820
 20
8.551582
 30
0.0
 10
8.748426
 20
8.552409
 30
0.0
 10
8.749253
 20
9.578166
 30
0.0
 10
9.771702
 20
9.577339
 30
0.0
 10
9.771702
 20
9.577339
 30
0.0
  0
LWPOLYLINE
  5
1b1
100
AcDbEntity
  8
Layer_1
 62
7
100
AcDbPolyline
 90
6
 70
0
 10
8.636695
 20
9.201851
 30
0.0
 10
8.636475
 20
8.881981
 30
0.0
 10
8.390026
 20
9.518028
 30
0.0
 10
8.637246
 20
9.551266
 30
0.0
 10
8.636695
 20
9.201851
 30
0.0
 10
8.636695
 20
9.201851
 30
0.0
  0
LWPOLYLINE
  5
1b2
100
AcDbEntity
  8
Layer_1
 62
7
100
AcDbPolyline
 90
5
 70
0
 10
10.130157
 20
9.515548
 30
0.0
 10
9.884260
 20
8.881926
 30
0.0
 10
9.884756
 20
9.549943
 30
0.0
 10
10.130157
 20
9.515548
 30
0.0
 10
10.130157
 20
9.515548
 30
0.0
  0
LWPOLYLINE
  5
1b3
100
AcDbEntity
  8
Layer_1
 62
7
100
AcDbPolyline
 90
6
 70
0
 10
8.649703
 20
8.534495
 30
0.0
 10
7.696266
 20
8.165015
 30
0.0
 10
7.325629
 20
9.121539
 30
0.0
 10
8.279011
 20
9.491019
 30
0.0
 10
8.649703
 20
8.534495
 30
0.0
 10
8.649703
 20
8.534495
 30
0.0
  0
LWPOLYLINE
  5
1b4
100
AcDbEntity
  8
Layer_1
 62
7
100
AcDbPolyline
 90
6
 70
0
 10
11.194058
 20
9.120602
 30
0.0
 10
10.823200
 20
8.164188
 30
0.0
 10
9.869874
 20
8.533888
 30
0.0
 10
10.240786
 20
9.490247
 30
0.0
 10
11.194058
 20
9.120602
 30
0.0
 10
11.194058
 20
9.120602
 30
0.0
  0
LWPOLYLINE
  5
1b5
100
AcDbEntity
  8
Layer_1
 62
7
100
AcDbPolyline
 90
5
 70
0
 10
5.917329
 20
8.678913
 30
0.0
 10
5.399463
 20
9.046960
 30
0.0
 10
5.512241
 20
9.178810
 30
0.0
 10
5.917329
 20
8.678913
 30
0.0
 10
5.917329
 20
8.678913
 30
0.0
  0
LWPOLYLINE
  5
1b6
100
AcDbEntity
  8
Layer_1
 62
7
100
AcDbPolyline
 90
5
 70
0
 10
4.498060
 20
8.793401
 30
0.0
 10
3.978319
 20
9.071103
 30
0.0
 10
4.048765
 20
9.177928
 30
0.0
 10
4.498060
 20
8.793401
 30
0.0
 10
4.498060
 20
8.793401
 30
0.0
  0
LWPOLYLINE
  5
1b7
100
AcDbEntity
  8
Layer_1
 62
7
100
AcDbPolyline
 90
5
 70
0
 10
13.135604
 20
9.028659
 30
0.0
 10
12.616304
 20
8.663755
 30
0.0
 10
13.023927
 20
9.161557
 30
0.0
 10
13.135604
 20
9.028659
 30
0.0
 10
13.135604
 20
9.028659
 30
0.0
  0
LWPOLYLINE
  5
1b8
100
AcDbEntity
  8
Layer_1
 62
7
100
AcDbPolyline
 90
7
 70
0
 10
3.131046
 20
8.853097
 30
0.0
 10
2.654355
 20
9.058425
 30
0.0
 10
2.684360
 20
9.117066
 30
0.0
 10
2.702272
 20
9.134624
 30
0.0
 10
2.728138
 20
9.120025
 30
0.0
 10
3.131046
 20
8.853097
 30
0.0
 10
3.131046
 20
8.853097
 30
0.0
  0
LWPOLYLINE
  5
1b9
100
AcDbEntity
  8
Layer_1
 62
7
100
AcDbPolyline
 90
9
 70
0
 10
1.662554
 20
8.981475
 30
0.0
 10
1.836021
 20
8.886611
 30
0.0
 10
1.384851
 20
9.049385
 30
0.0
 10
1.397489
 20
9.082132
 30
0.0
 10
1.413579
 20
9.104403
 30
0.0
 10
1.435443
 20
9.109150
 30
0.0
 10
1.465404
 20
9.089324
 30
0.0
 10
1.662554
 20
8.981475
 30
0.0
 10
1.662554
 20
8.981475
 30
0.0
  0
LWPOLYLINE
  5
1ba
100
AcDbEntity
  8
Layer_1
 62
7
100
AcDbPolyline
 90
8
 70
0
 10
0.550642
 20
8.902762
 30
0.0
 10
0.151948
 20
9.028053
 30
0.0
 10
0.158620
 20
9.063903
 30
0.0
 10
0.177636
 20
9.073532
 30
0.0
 10
0.204902
 20
9.065635
 30
0.0
 10
0.236325
 20
9.048909
 30
0.0
 10
0.550642
 20
8.902762
 30
0.0
 10
0.550642
 20
8.902762
 30
0.0
  0
LWPOLYLINE
  5
1bb
100
AcDbEntity
  8
Layer_1
 62
7
100
AcDbPolyline
 90
7
 70
0
 10
7.472032
 20
8.432355
 30
0.0
 10
7.010499
 20
8.938921
 30
0.0
 10
7.109405
 20
9.019834
 30
0.0
 10
7.162166
 20
9.054894
 30
0.0
 10
7.220953
 20
9.079977
 30
0.0
 10
7.472032
 20
8.432355
 30
0.0
 10
7.472032
 20
8.432355
 30
0.0
  0
LWPOLYLINE
  5
1bc
100
AcDbEntity
  8
Layer_1
 62
7
100
AcDbPolyline
 90
8
 70
0
 10
11.311687
 20
9.075568
 30
0.0
 10
11.416974
 20
9.014565
 30
0.0
 10
11.512716
 20
8.939142
 30
0.0
 10
11.047876
 20
8.430315
 30
0.0
 10
11.302923
 20
9.079316
 30
0.0
 10
11.309410
 20
9.076542
 30
0.0
 10
11.311688
 20
9.075568
 30
0.0
 10
11.311687
 20
9.075568
 30
0.0
  0
LWPOLYLINE
  5
1bd
100
AcDbEntity
  8
Layer_1
 62
7
100
AcDbPolyline
 90
6
 70
0
 10
4.803544
 20
8.502083
 30
0.0
 10
4.321451
 20
7.600405
 30
0.0
 10
3.416851
 20
8.084042
 30
0.0
 10
3.898944
 20
8.985720
 30
0.0
 10
4.803544
 20
8.502083
 30
0.0
 10
4.803544
 20
8.502083
 30
0.0
  0
LWPOLYLINE
  5
1be
100
AcDbEntity
  8
Layer_1
 62
7
100
AcDbPolyline
 90
6
 70
0
 10
3.519929
 20
8.562441
 30
0.0
 10
3.115778
 20
7.623336
 30
0.0
 10
2.173641
 20
8.028755
 30
0.0
 10
2.577736
 20
8.967860
 30
0.0
 10
3.519929
 20
8.562441
 30
0.0
 10
3.519929
 20
8.562441
 30
0.0
  0
LWPOLYLINE
  5
1bf
100
AcDbEntity
  8
Layer_1
 62
7
100
AcDbPolyline
 90
6
 70
0
 10
6.155675
 20
8.371280
 30
0.0
 10
5.563559
 20
7.537677
 30
0.0
 10
4.727256
 20
8.131667
 30
0.0
 10
5.319371
 20
8.965270
 30
0.0
 10
6.155675
 20
8.371280
 30
0.0
 10
6.155675
 20
8.371280
 30
0.0
  0
LWPOLYLINE
  5
1c0
100
AcDbEntity
  8
Layer_1
 62
7
100
AcDbPolyline
 90
6
 70
0
 10
2.289120
 20
8.603397
 30
0.0
 10
1.942130
 20
7.641581
 30
0.0
 10
0.977173
 20
7.989729
 30
0.0
 10
1.324218
 20
8.951544
 30
0.0
 10
2.289120
 20
8.603397
 30
0.0
 10
2.289120
 20
8.603397
 30
0.0
  0
LWPOLYLINE
  5
1c1
100
AcDbEntity
  8
Layer_1
 62
7
100
AcDbPolyline
 90
6
 70
0
 10
13.801858
 20
8.109342
 30
0.0
 10
12.962577
 20
7.519707
 30
0.0
 10
12.374872
 20
8.356287
 30
0.0
 10
13.214152
 20
8.945922
 30
0.0
 10
13.801858
 20
8.109342
 30
0.0
 10
13.801858
 20
8.109342
 30
0.0
  0
LWPOLYLINE
  5
1c2
100
AcDbEntity
  8
Layer_1
 62
7
100
AcDbPolyline
 90
6
 70
0
 10
7.611104
 20
8.111602
 30
0.0
 10
6.855332
 20
7.423024
 30
0.0
 10
6.164494
 20
8.181276
 30
0.0
 10
6.920321
 20
8.869854
 30
0.0
 10
7.611104
 20
8.111602
 30
0.0
 10
7.611104
 20
8.111602
 30
0.0
  0
LWPOLYLINE
  5
1c3
100
AcDbEntity
  8
Layer_1
 62
7
100
AcDbPolyline
 90
6
 70
0
 10
12.355083
 20
8.178299
 30
0.0
 10
11.663032
 20
7.421095
 30
0.0
 10
10.908253
 20
8.110886
 30
0.0
 10
11.600249
 20
8.868145
 30
0.0
 10
12.355083
 20
8.178299
 30
0.0
 10
12.355083
 20
8.178299
 30
0.0
  0
LWPOLYLINE
  5
1c4
100
AcDbEntity
  8
Layer_1
 62
7
100
AcDbPolyline
 90
6
 70
0
 10
9.234488
 20
7.468169
 30
0.0
 10
8.252443
 20
7.183576
 30
0.0
 10
7.966968
 20
8.168819
 30
0.0
 10
8.949013
 20
8.453356
 30
0.0
 10
9.234488
 20
7.468169
 30
0.0
 10
9.234488
 20
7.468169
 30
0.0
  0
LWPOLYLINE
  5
1c5
100
AcDbEntity
  8
Layer_1
 62
7
100
AcDbPolyline
 90
6
 70
0
 10
10.568263
 20
8.160550
 30
0.0
 10
10.276615
 20
7.177127
 30
0.0
 10
9.296334
 20
7.467838
 30
0.0
 10
9.587982
 20
8.451316
 30
0.0
 10
10.568263
 20
8.160550
 30
0.0
 10
10.568263
 20
8.160550
 30
0.0
  0
LWPOLYLINE
  5
1c6
100
AcDbEntity
  8
Layer_1
 62
7
100
AcDbPolyline
 90
5
 70
0
 10
9.466715
 20
8.438804
 30
0.0
 10
9.266568
 20
7.764227
 30
0.0
 10
9.071052
 20
8.439245
 30
0.0
 10
9.466715
 20
8.438804
 30
0.0
 10
9.466715
 20
8.438804
 30
0.0
  0
LWPOLYLINE
  5
1c7
100
AcDbEntity
  8
Layer_1
 62
7
100
AcDbPolyline
 90
7
 70
0
 10
8.067565
 20
7.415969
 30
0.0
 10
7.531067
 20
7.885494
 30
0.0
 10
7.625983
 20
7.972790
 30
0.0
 10
7.724308
 20
8.054577
 30
0.0
 10
7.866702
 20
8.109728
 30
0.0
 10
8.067565
 20
7.415969
 30
0.0
 10
8.067565
 20
7.415969
 30
0.0
  0
LWPOLYLINE
  5
1c8
100
AcDbEntity
  8
Layer_1
 62
7
100
AcDbPolyline
 90
8
 70
0
 10
10.675695
 20
8.103444
 30
0.0
 10
10.768318
 20
8.064100
 30
0.0
 10
10.851536
 20
8.008172
 30
0.0
 10
11.001188
 20
7.873092
 30
0.0
 10
10.463477
 20
7.409464
 30
0.0
 10
10.669246
 20
8.105208
 30
0.0
 10
10.675695
 20
8.103444
 30
0.0
 10
10.675695
 20
8.103444
 30
0.0
  0
LWPOLYLINE
  5
1c9
100
AcDbEntity
  8
Layer_1
 62
7
100
AcDbPolyline
 90
5
 70
0
 10
6.549132
 20
7.591586
 30
0.0
 10
5.952056
 20
7.889352
 30
0.0
 10
6.094545
 20
8.090270
 30
0.0
 10
6.549132
 20
7.591586
 30
0.0
 10
6.549132
 20
7.591586
 30
0.0
  0
LWPOLYLINE
  5
1ca
100
AcDbEntity
  8
Layer_1
 62
7
100
AcDbPolyline
 90
6
 70
0
 10
12.496194
 20
7.987469
 30
0.0
 10
12.566970
 20
7.886541
 30
0.0
 10
11.970004
 20
7.589546
 30
0.0
 10
12.425032
 20
8.087459
 30
0.0
 10
12.496194
 20
7.987469
 30
0.0
 10
12.496194
 20
7.987469
 30
0.0
  0
LWPOLYLINE
  5
1cb
100
AcDbEntity
  8
Layer_1
 62
7
100
AcDbPolyline
 90
5
 70
0
 10
5.195568
 20
7.661094
 30
0.0
 10
4.596783
 20
7.875352
 30
0.0
 10
4.678583
 20
8.028479
 30
0.0
 10
5.195568
 20
7.661094
 30
0.0
 10
5.195568
 20
7.661094
 30
0.0
  0
LWPOLYLINE
  5
1cc
100
AcDbEntity
  8
Layer_1
 62
7
100
AcDbPolyline
 90
5
 70
0
 10
13.931614
 20
7.852807
 30
0.0
 10
13.333931
 20
7.642187
 30
0.0
 10
13.851632
 20
8.005604
 30
0.0
 10
13.931614
 20
7.852807
 30
0.0
 10
13.931614
 20
7.852807
 30
0.0
  0
LWPOLYLINE
  5
1cd
100
AcDbEntity
  8
Layer_1
 62
7
100
AcDbPolyline
 90
5
 70
0
 10
3.910630
 20
7.692293
 30
0.0
 10
3.337917
 20
7.852256
 30
0.0
 10
3.388905
 20
7.970932
 30
0.0
 10
3.910630
 20
7.692293
 30
0.0
 10
3.910630
 20
7.692293
 30
0.0
  0
LWPOLYLINE
  5
1ce
100
AcDbEntity
  8
Layer_1
 62
7
100
AcDbPolyline
 90
7
 70
0
 10
2.639583
 20
7.705081
 30
0.0
 10
2.127669
 20
7.822986
 30
0.0
 10
2.148670
 20
7.886235
 30
0.0
 10
2.163914
 20
7.906898
 30
0.0
 10
2.192157
 20
7.897518
 30
0.0
 10
2.639583
 20
7.705081
 30
0.0
 10
2.639583
 20
7.705081
 30
0.0
  0
LWPOLYLINE
  5
1cf
100
AcDbEntity
  8
Layer_1
 62
7
100
AcDbPolyline
 90
8
 70
0
 10
1.409325
 20
7.713901
 30
0.0
 10
0.937044
 20
7.805678
 30
0.0
 10
0.945262
 20
7.839816
 30
0.0
 10
0.958299
 20
7.864267
 30
0.0
 10
0.979479
 20
7.872350
 30
0.0
 10
1.012125
 20
7.857387
 30
0.0
 10
1.409325
 20
7.713901
 30
0.0
 10
1.409325
 20
7.713901
 30
0.0
  0
LWPOLYLINE
  5
1d0
100
AcDbEntity
  8
Layer_1
 62
7
100
AcDbPolyline
 90
6
 70
0
 10
8.200683
 20
7.149732
 30
0.0
 10
7.527539
 20
6.380125
 30
0.0
 10
6.755397
 20
7.055419
 30
0.0
 10
7.428596
 20
7.825081
 30
0.0
 10
8.200683
 20
7.149732
 30
0.0
 10
8.200683
 20
7.149732
 30
0.0
  0
LWPOLYLINE
  5
1d1
100
AcDbEntity
  8
Layer_1
 62
7
100
AcDbPolyline
 90
6
 70
0
 10
11.772779
 20
7.039323
 30
0.0
 10
10.996062
 20
6.369376
 30
0.0
 10
10.328319
 20
7.143558
 30
0.0
 10
11.104982
 20
7.813505
 30
0.0
 10
11.772779
 20
7.039323
 30
0.0
 10
11.772779
 20
7.039323
 30
0.0
  0
LWPOLYLINE
  5
1d2
100
AcDbEntity
  8
Layer_1
 62
7
100
AcDbPolyline
 90
6
 70
0
 10
6.794313
 20
7.342988
 30
0.0
 10
6.338403
 20
6.427860
 30
0.0
 10
5.420299
 20
6.885259
 30
0.0
 10
5.876264
 20
7.800386
 30
0.0
 10
6.794313
 20
7.342988
 30
0.0
 10
6.794313
 20
7.342988
 30
0.0
  0
LWPOLYLINE
  5
1d3
100
AcDbEntity
  8
Layer_1
 62
7
100
AcDbPolyline
 90
6
 70
0
 10
13.097735
 20
6.882558
 30
0.0
 10
12.179410
 20
6.425600
 30
0.0
 10
11.723941
 20
7.340948
 30
0.0
 10
12.642266
 20
7.797906
 30
0.0
 10
13.097735
 20
6.882558
 30
0.0
 10
13.097735
 20
6.882558
 30
0.0
  0
LWPOLYLINE
  5
1d4
100
AcDbEntity
  8
Layer_1
 62
7
100
AcDbPolyline
 90
6
 70
0
 10
5.506950
 20
7.429474
 30
0.0
 10
5.162936
 20
6.466721
 30
0.0
 10
4.197042
 20
6.811837
 30
0.0
 10
4.541055
 20
7.774645
 30
0.0
 10
5.506950
 20
7.429474
 30
0.0
 10
5.506950
 20
7.429474
 30
0.0
  0
LWPOLYLINE
  5
1d5
100
AcDbEntity
  8
Layer_1
 62
7
100
AcDbPolyline
 90
6
 70
0
 10
4.270904
 20
7.474342
 30
0.0
 10
3.995462
 20
6.489651
 30
0.0
 10
3.007574
 20
6.766031
 30
0.0
 10
3.283016
 20
7.750667
 30
0.0
 10
4.270904
 20
7.474342
 30
0.0
 10
4.270904
 20
7.474342
 30
0.0
  0
LWPOLYLINE
  5
1d6
100
AcDbEntity
  8
Layer_1
 62
7
100
AcDbPolyline
 90
6
 70
0
 10
3.071901
 20
7.489611
 30
0.0
 10
2.842651
 20
6.493289
 30
0.0
 10
1.843021
 20
6.723257
 30
0.0
 10
2.072272
 20
7.719578
 30
0.0
 10
3.071901
 20
7.489611
 30
0.0
 10
3.071901
 20
7.489611
 30
0.0
  0
LWPOLYLINE
  5
1d7
100
AcDbEntity
  8
Layer_1
 62
7
100
AcDbPolyline
 90
6
 70
0
 10
1.903986
 20
7.502620
 30
0.0
 10
1.708966
 20
6.498967
 30
0.0
 10
0.702061
 20
6.694538
 30
0.0
 10
0.897026
 20
7.698191
 30
0.0
 10
1.903986
 20
7.502620
 30
0.0
 10
1.903986
 20
7.502620
 30
0.0
  0
LWPOLYLINE
  5
1d8
100
AcDbEntity
  8
Layer_1
 62
7
100
AcDbPolyline
 90
8
 70
0
 10
9.767458
 20
7.286047
 30
0.0
 10
9.767458
 20
6.262000
 30
0.0
 10
8.749473
 20
6.260291
 30
0.0
 10
8.744175
 20
6.337463
 30
0.0
 10
8.744843
 20
6.421411
 30
0.0
 10
8.744843
 20
7.286047
 30
0.0
 10
9.767458
 20
7.286047
 30
0.0
 10
9.767458
 20
7.286047
 30
0.0
  0
LWPOLYLINE
  5
1d9
100
AcDbEntity
  8
Layer_1
 62
7
100
AcDbPolyline
 90
6
 70
0
 10
10.241558
 20
7.069640
 30
0.0
 10
10.610983
 20
6.642944
 30
0.0
 10
9.880622
 20
6.403221
 30
0.0
 10
9.880622
 20
7.176466
 30
0.0
 10
10.241558
 20
7.069640
 30
0.0
 10
10.241558
 20
7.069640
 30
0.0
  0
LWPOLYLINE
  5
1da
100
AcDbEntity
  8
Layer_1
 62
7
100
AcDbPolyline
 90
6
 70
0
 10
8.632450
 20
6.403000
 30
0.0
 10
7.905673
 20
6.640960
 30
0.0
 10
8.287775
 20
7.075759
 30
0.0
 10
8.632450
 20
7.175584
 30
0.0
 10
8.632450
 20
6.403000
 30
0.0
 10
8.632450
 20
6.403000
 30
0.0
  0
LWPOLYLINE
  5
1db
100
AcDbEntity
  8
Layer_1
 62
7
100
AcDbPolyline
 90
5
 70
0
 10
7.246585
 20
6.476588
 30
0.0
 10
6.541636
 20
6.581374
 30
0.0
 10
6.719072
 20
6.937955
 30
0.0
 10
7.246585
 20
6.476588
 30
0.0
 10
7.246585
 20
6.476588
 30
0.0
  0
LWPOLYLINE
  5
1dc
100
AcDbEntity
  8
Layer_1
 62
7
100
AcDbPolyline
 90
5
 70
0
 10
11.984391
 20
6.564066
 30
0.0
 10
11.279937
 20
6.464130
 30
0.0
 10
11.807561
 20
6.919710
 30
0.0
 10
11.984391
 20
6.564066
 30
0.0
 10
11.984391
 20
6.564066
 30
0.0
  0
LWPOLYLINE
  5
1dd
100
AcDbEntity
  8
Layer_1
 62
7
100
AcDbPolyline
 90
5
 70
0
 10
5.993011
 20
6.473997
 30
0.0
 10
5.308236
 20
6.537056
 30
0.0
 10
5.392738
 20
6.773197
 30
0.0
 10
5.993011
 20
6.473997
 30
0.0
 10
5.993011
 20
6.473997
 30
0.0
  0
LWPOLYLINE
  5
1de
100
AcDbEntity
  8
Layer_1
 62
7
100
AcDbPolyline
 90
5
 70
0
 10
13.208915
 20
6.532977
 30
0.0
 10
12.525353
 20
6.471076
 30
0.0
 10
13.125516
 20
6.769669
 30
0.0
 10
13.208915
 20
6.532977
 30
0.0
 10
13.208915
 20
6.532977
 30
0.0
  0
LWPOLYLINE
  5
1df
100
AcDbEntity
  8
Layer_1
 62
7
100
AcDbPolyline
 90
5
 70
0
 10
4.771959
 20
6.486454
 30
0.0
 10
4.124667
 20
6.531985
 30
0.0
 10
4.171961
 20
6.701043
 30
0.0
 10
4.771959
 20
6.486454
 30
0.0
 10
4.771959
 20
6.486454
 30
0.0
  0
LWPOLYLINE
  5
1e0
100
AcDbEntity
  8
Layer_1
 62
7
100
AcDbPolyline
 90
5
 70
0
 10
3.569538
 20
6.491746
 30
0.0
 10
2.966178
 20
6.525536
 30
0.0
 10
2.995447
 20
6.652591
 30
0.0
 10
3.569538
 20
6.491746
 30
0.0
 10
3.569538
 20
6.491746
 30
0.0
  0
LWPOLYLINE
  5
1e1
100
AcDbEntity
  8
Layer_1
 62
7
100
AcDbPolyline
 90
6
 70
0
 10
2.361329
 20
6.488439
 30
0.0
 10
1.826320
 20
6.512747
 30
0.0
 10
1.837280
 20
6.559411
 30
0.0
 10
1.845281
 20
6.606840
 30
0.0
 10
2.361329
 20
6.488439
 30
0.0
 10
2.361329
 20
6.488439
 30
0.0
  0
LWPOLYLINE
  5
1e2
100
AcDbEntity
  8
Layer_1
 62
7
100
AcDbPolyline
 90
9
 70
0
 10
0.971771
 20
6.527355
 30
0.0
 10
1.164806
 20
6.489762
 30
0.0
 10
0.683209
 20
6.508558
 30
0.0
 10
0.686670
 20
6.543311
 30
0.0
 10
0.696372
 20
6.569070
 30
0.0
 10
0.716378
 20
6.579982
 30
0.0
 10
0.750749
 20
6.570193
 30
0.0
 10
0.971771
 20
6.527355
 30
0.0
 10
0.971771
 20
6.527355
 30
0.0
  0
LWPOLYLINE
  5
1e3
100
AcDbEntity
  8
Layer_1
 62
7
100
AcDbPolyline
 90
6
 70
0
 10
11.073122
 20
5.599549
 30
0.0
 10
10.098518
 20
5.279734
 30
0.0
 10
9.781569
 20
6.251802
 30
0.0
 10
10.754354
 20
6.570956
 30
0.0
 10
11.073122
 20
5.599549
 30
0.0
 10
11.073122
 20
5.599549
 30
0.0
  0
LWPOLYLINE
  5
1e4
100
AcDbEntity
  8
Layer_1
 62
7
100
AcDbPolyline
 90
8
 70
0
 10
8.729023
 20
6.252133
 30
0.0
 10
8.703528
 20
6.159529
 30
0.0
 10
8.672066
 20
6.065135
 30
0.0
 10
8.413232
 20
5.279734
 30
0.0
 10
7.439841
 20
5.598336
 30
0.0
 10
7.757892
 20
6.570019
 30
0.0
 10
8.729023
 20
6.252133
 30
0.0
 10
8.729023
 20
6.252133
 30
0.0
  0
LWPOLYLINE
  5
1e5
100
AcDbEntity
  8
Layer_1
 62
7
100
AcDbPolyline
 90
6
 70
0
 10
7.502183
 20
6.324177
 30
0.0
 10
7.351591
 20
5.312972
 30
0.0
 10
6.337080
 20
5.463950
 30
0.0
 10
6.487617
 20
6.475210
 30
0.0
 10
7.502183
 20
6.324177
 30
0.0
 10
7.502183
 20
6.324177
 30
0.0
  0
LWPOLYLINE
  5
1e6
100
AcDbEntity
  8
Layer_1
 62
7
100
AcDbPolyline
 90
6
 70
0
 10
12.181670
 20
5.445374
 30
0.0
 10
11.166056
 20
5.301452
 30
0.0
 10
11.022630
 20
6.313759
 30
0.0
 10
12.038189
 20
6.457626
 30
0.0
 10
12.181670
 20
5.445374
 30
0.0
 10
12.181670
 20
5.445374
 30
0.0
  0
LWPOLYLINE
  5
1e7
100
AcDbEntity
  8
Layer_1
 62
7
100
AcDbPolyline
 90
6
 70
0
 10
6.311889
 20
6.331177
 30
0.0
 10
6.217852
 20
5.313027
 30
0.0
 10
5.196395
 20
5.407395
 30
0.0
 10
5.290432
 20
6.425545
 30
0.0
 10
6.311889
 20
6.331177
 30
0.0
 10
6.311889
 20
6.331177
 30
0.0
  0
LWPOLYLINE
  5
1e8
100
AcDbEntity
  8
Layer_1
 62
7
100
AcDbPolyline
 90
6
 70
0
 10
13.320757
 20
5.403372
 30
0.0
 10
12.299190
 20
5.311043
 30
0.0
 10
12.207137
 20
6.329358
 30
0.0
 10
13.228759
 20
6.421687
 30
0.0
 10
13.320757
 20
5.403372
 30
0.0
 10
13.320757
 20
5.403372
 30
0.0
  0
LWPOLYLINE
  5
1e9
100
AcDbEntity
  8
Layer_1
 62
7
100
AcDbPolyline
 90
6
 70
0
 10
5.138738
 20
6.347107
 30
0.0
 10
5.067025
 20
5.327194
 30
0.0
 10
4.043859
 20
5.399127
 30
0.0
 10
4.115572
 20
6.419041
 30
0.0
 10
5.138738
 20
6.347107
 30
0.0
 10
5.138738
 20
6.347107
 30
0.0
  0
LWPOLYLINE
  5
1ea
100
AcDbEntity
  8
Layer_1
 62
7
100
AcDbPolyline
 90
6
 70
0
 10
3.973910
 20
6.355486
 30
0.0
 10
3.916252
 20
5.334690
 30
0.0
 10
2.892150
 20
5.392568
 30
0.0
 10
2.949807
 20
6.413363
 30
0.0
 10
3.973910
 20
6.355486
 30
0.0
 10
3.973910
 20
6.355486
 30
0.0
  0
LWPOLYLINE
  5
1eb
100
AcDbEntity
  8
Layer_1
 62
7
100
AcDbPolyline
 90
6
 70
0
 10
2.823744
 20
6.354053
 30
0.0
 10
2.777331
 20
5.332651
 30
0.0
 10
1.752622
 20
5.379228
 30
0.0
 10
1.799035
 20
6.400630
 30
0.0
 10
2.823744
 20
6.354053
 30
0.0
 10
2.823744
 20
6.354053
 30
0.0
  0
LWPOLYLINE
  5
1ec
100
AcDbEntity
  8
Layer_1
 62
7
100
AcDbPolyline
 90
6
 70
0
 10
1.692760
 20
6.355596
 30
0.0
 10
1.652411
 20
5.333973
 30
0.0
 10
0.627482
 20
5.374433
 30
0.0
 10
0.667831
 20
6.396110
 30
0.0
 10
1.692760
 20
6.355596
 30
0.0
 10
1.692760
 20
6.355596
 30
0.0
  0
LWPOLYLINE
  5
1ed
100
AcDbEntity
  8
Layer_1
 62
7
100
AcDbPolyline
 90
6
 70
0
 10
9.982928
 20
5.482030
 30
0.0
 10
9.259844
 20
4.759111
 30
0.0
 10
8.534610
 20
5.484566
 30
0.0
 10
9.257694
 20
6.207429
 30
0.0
 10
9.982928
 20
5.482030
 30
0.0
 10
9.982928
 20
5.482030
 30
0.0
  0
LWPOLYLINE
  5
1ee
100
AcDbEntity
  8
Layer_1
 62
7
100
AcDbPolyline
 90
5
 70
0
 10
9.038255
 20
6.147402
 30
0.0
 10
8.711881
 20
5.821082
 30
0.0
 10
8.818486
 20
6.147402
 30
0.0
 10
9.038255
 20
6.147402
 30
0.0
 10
9.038255
 20
6.147402
 30
0.0
  0
LWPOLYLINE
  5
1ef
100
AcDbEntity
  8
Layer_1
 62
7
100
AcDbPolyline
 90
5
 70
0
 10
9.695249
 20
6.147402
 30
0.0
 10
9.801247
 20
5.824224
 30
0.0
 10
9.478125
 20
6.147402
 30
0.0
 10
9.695249
 20
6.147402
 30
0.0
 10
9.695249
 20
6.147402
 30
0.0
  0
LWPOLYLINE
  5
1f0
100
AcDbEntity
  8
Layer_1
 62
7
100
AcDbPolyline
 90
6
 70
0
 10
11.055483
 20
5.279954
 30
0.0
 10
10.724423
 20
4.567950
 30
0.0
 10
10.260851
 20
5.213809
 30
0.0
 10
11.029134
 20
5.465604
 30
0.0
 10
11.055483
 20
5.279954
 30
0.0
 10
11.055483
 20
5.279954
 30
0.0
  0
LWPOLYLINE
  5
1f1
100
AcDbEntity
  8
Layer_1
 62
7
100
AcDbPolyline
 90
9
 70
0
 10
8.244505
 20
5.215958
 30
0.0
 10
7.784020
 20
4.587463
 30
0.0
 10
7.503771
 20
5.202612
 30
0.0
 10
7.478028
 20
5.264395
 30
0.0
 10
7.470804
 20
5.330467
 30
0.0
 10
7.476249
 20
5.397850
 30
0.0
 10
7.488513
 20
5.463564
 30
0.0
 10
8.244505
 20
5.215958
 30
0.0
 10
8.244505
 20
5.215958
 30
0.0
  0
LWPOLYLINE
  5
1f2
100
AcDbEntity
  8
Layer_1
 62
7
100
AcDbPolyline
 90
9
 70
0
 10
7.062148
 20
5.241535
 30
0.0
 10
6.419266
 20
4.952147
 30
0.0
 10
6.328032
 20
5.277499
 30
0.0
 10
6.328889
 20
5.312369
 30
0.0
 10
6.336714
 20
5.338356
 30
0.0
 10
6.355839
 20
5.349935
 30
0.0
 10
6.390593
 20
5.341586
 30
0.0
 10
7.062148
 20
5.241535
 30
0.0
 10
7.062148
 20
5.241535
 30
0.0
  0
LWPOLYLINE
  5
1f3
100
AcDbEntity
  8
Layer_1
 62
7
100
AcDbPolyline
 90
8
 70
0
 10
12.183104
 20
5.312752
 30
0.0
 10
12.171032
 20
5.211082
 30
0.0
 10
12.146376
 20
5.111650
 30
0.0
 10
12.086917
 20
4.914554
 30
0.0
 10
11.424521
 20
5.223951
 30
0.0
 10
12.183159
 20
5.332595
 30
0.0
 10
12.183102
 20
5.312752
 30
0.0
 10
12.183104
 20
5.312752
 30
0.0
  0
LWPOLYLINE
  5
1f4
100
AcDbEntity
  8
Layer_1
 62
7
100
AcDbPolyline
 90
4
 70
0
 10
8.545965
 20
5.314736
 30
0.0
 10
8.555815
 20
5.305716
 30
0.0
 10
8.545965
 20
5.314736
 30
0.0
 10
8.545965
 20
5.314736
 30
0.0
  0
LWPOLYLINE
  5
1f5
100
AcDbEntity
  8
Layer_1
 62
7
100
AcDbPolyline
 90
7
 70
0
 10
5.879516
 20
5.231447
 30
0.0
 10
5.222743
 20
5.044365
 30
0.0
 10
5.196115
 20
5.169755
 30
0.0
 10
5.184244
 20
5.232552
 30
0.0
 10
5.180024
 20
5.295885
 30
0.0
 10
5.879516
 20
5.231447
 30
0.0
 10
5.879516
 20
5.231447
 30
0.0
  0
LWPOLYLINE
  5
1f6
100
AcDbEntity
  8
Layer_1
 62
7
100
AcDbPolyline
 90
8
 70
0
 10
13.336687
 20
5.283427
 30
0.0
 10
13.321959
 20
5.167284
 30
0.0
 10
13.296338
 20
5.052027
 30
0.0
 10
12.663157
 20
5.230896
 30
0.0
 10
13.336632
 20
5.291806
 30
0.0
 10
13.336688
 20
5.284750
 30
0.0
 10
13.336697
 20
5.283427
 30
0.0
 10
13.336687
 20
5.283427
 30
0.0
  0
LWPOLYLINE
  5
1f7
100
AcDbEntity
  8
Layer_1
 62
7
100
AcDbPolyline
 90
5
 70
0
 10
4.686686
 20
5.240653
 30
0.0
 10
4.051631
 20
5.110456
 30
0.0
 10
4.027157
 20
5.287065
 30
0.0
 10
4.686686
 20
5.240653
 30
0.0
 10
4.686686
 20
5.240653
 30
0.0
  0
LWPOLYLINE
  5
1f8
100
AcDbEntity
  8
Layer_1
 62
7
100
AcDbPolyline
 90
9
 70
0
 10
2.966233
 20
5.274222
 30
0.0
 10
3.499479
 20
5.244787
 30
0.0
 10
2.952783
 20
5.157915
 30
0.0
 10
2.917579
 20
5.149215
 30
0.0
 10
2.903936
 20
5.153150
 30
0.0
 10
2.902062
 20
5.170561
 30
0.0
 10
2.888953
 20
5.276757
 30
0.0
 10
2.966233
 20
5.274222
 30
0.0
 10
2.966233
 20
5.274222
 30
0.0
  0
LWPOLYLINE
  5
1f9
100
AcDbEntity
  8
Layer_1
 62
7
100
AcDbPolyline
 90
7
 70
0
 10
8.423815
 20
5.261654
 30
0.0
 10
9.243583
 20
4.659231
 30
0.0
 10
8.637907
 20
3.832904
 30
0.0
 10
7.813289
 20
4.437367
 30
0.0
 10
8.418634
 20
5.263253
 30
0.0
 10
8.423815
 20
5.261654
 30
0.0
 10
8.423815
 20
5.261654
 30
0.0
  0
LWPOLYLINE
  5
1fa
100
AcDbEntity
  8
Layer_1
 62
7
100
AcDbPolyline
 90
9
 70
0
 10
1.831997
 20
5.260496
 30
0.0
 10
2.299483
 20
5.241424
 30
0.0
 10
1.813423
 20
5.175563
 30
0.0
 10
1.779163
 20
5.172806
 30
0.0
 10
1.768376
 20
5.182477
 30
0.0
 10
1.768654
 20
5.201681
 30
0.0
 10
1.764528
 20
5.262260
 30
0.0
 10
1.831997
 20
5.260496
 30
0.0
 10
1.831997
 20
5.260496
 30
0.0
  0
LWPOLYLINE
  5
1fb
100
AcDbEntity
  8
Layer_1
 62
7
100
AcDbPolyline
 90
8
 70
0
 10
0.914775
 20
5.250134
 30
0.0
 10
1.116355
 20
5.242472
 30
0.0
 10
0.635805
 20
5.189665
 30
0.0
 10
0.631376
 20
5.233164
 30
0.0
 10
0.630783
 20
5.251971
 30
0.0
 10
0.642522
 20
5.259200
 30
0.0
 10
0.914775
 20
5.250134
 30
0.0
 10
0.914775
 20
5.250134
 30
0.0
  0
LWPOLYLINE
  5
1fc
100
AcDbEntity
  8
Layer_1
 62
7
100
AcDbPolyline
 90
6
 70
0
 10
10.688318
 20
4.422980
 30
0.0
 10
9.857471
 20
3.827171
 30
0.0
 10
9.260891
 20
4.659010
 30
0.0
 10
10.090525
 20
5.256528
 30
0.0
 10
10.688318
 20
4.422980
 30
0.0
 10
10.688318
 20
4.422980
 30
0.0
  0
LWPOLYLINE
  5
1fd
100
AcDbEntity
  8
Layer_1
 62
7
100
AcDbPolyline
 90
6
 70
0
 10
7.779555
 20
4.319462
 30
0.0
 10
6.844253
 20
3.898444
 30
0.0
 10
6.424613
 20
4.830769
 30
0.0
 10
7.359970
 20
5.251787
 30
0.0
 10
7.779555
 20
4.319462
 30
0.0
 10
7.779555
 20
4.319462
 30
0.0
  0
LWPOLYLINE
  5
1fe
100
AcDbEntity
  8
Layer_1
 62
7
100
AcDbPolyline
 90
6
 70
0
 10
12.084767
 20
4.790916
 30
0.0
 10
11.652063
 20
3.864544
 30
0.0
 10
10.722714
 20
4.298626
 30
0.0
 10
11.155363
 20
5.224998
 30
0.0
 10
12.084767
 20
4.790916
 30
0.0
 10
12.084767
 20
4.790916
 30
0.0
  0
LWPOLYLINE
  5
1ff
100
AcDbEntity
  8
Layer_1
 62
7
100
AcDbPolyline
 90
6
 70
0
 10
13.278479
 20
4.939910
 30
0.0
 10
13.000666
 20
3.955935
 30
0.0
 10
12.013495
 20
4.234630
 30
0.0
 10
12.291307
 20
5.218604
 30
0.0
 10
13.278479
 20
4.939910
 30
0.0
 10
13.278479
 20
4.939910
 30
0.0
  0
LWPOLYLINE
  5
200
100
AcDbEntity
  8
Layer_1
 62
7
100
AcDbPolyline
 90
6
 70
0
 10
6.506578
 20
4.229559
 30
0.0
 10
5.520068
 20
3.948604
 30
0.0
 10
5.239996
 20
4.931917
 30
0.0
 10
6.226506
 20
5.212927
 30
0.0
 10
6.506578
 20
4.229559
 30
0.0
 10
6.506578
 20
4.229559
 30
0.0
  0
LWPOLYLINE
  5
201
100
AcDbEntity
  8
Layer_1
 62
7
100
AcDbPolyline
 90
6
 70
0
 10
5.280180
 20
4.203651
 30
0.0
 10
4.275314
 20
3.997442
 30
0.0
 10
4.069766
 20
4.999055
 30
0.0
 10
5.074631
 20
5.205265
 30
0.0
 10
5.280180
 20
4.203651
 30
0.0
 10
5.280180
 20
4.203651
 30
0.0
  0
LWPOLYLINE
  5
202
100
AcDbEntity
  8
Layer_1
 62
7
100
AcDbPolyline
 90
6
 70
0
 10
4.085255
 20
4.189375
 30
0.0
 10
3.072507
 20
4.026436
 30
0.0
 10
2.910119
 20
5.035931
 30
0.0
 10
3.922867
 20
5.198871
 30
0.0
 10
4.085255
 20
4.189375
 30
0.0
 10
4.085255
 20
4.189375
 30
0.0
  0
LWPOLYLINE
  5
203
100
AcDbEntity
  8
Layer_1
 62
7
100
AcDbPolyline
 90
6
 70
0
 10
2.919986
 20
4.178626
 30
0.0
 10
1.903324
 20
4.042421
 30
0.0
 10
1.767560
 20
5.055775
 30
0.0
 10
2.784222
 20
5.191980
 30
0.0
 10
2.919986
 20
4.178626
 30
0.0
 10
2.919986
 20
4.178626
 30
0.0
  0
LWPOLYLINE
  5
204
100
AcDbEntity
  8
Layer_1
 62
7
100
AcDbPolyline
 90
6
 70
0
 10
1.772521
 20
4.173720
 30
0.0
 10
0.753269
 20
4.058351
 30
0.0
 10
0.638230
 20
5.074296
 30
0.0
 10
1.657538
 20
5.189665
 30
0.0
 10
1.772521
 20
4.173720
 30
0.0
 10
1.772521
 20
4.173720
 30
0.0
  0
LWPOLYLINE
  5
205
100
AcDbEntity
  8
Layer_1
 62
7
100
AcDbPolyline
 90
10
 70
0
 10
9.370197
 20
4.314776
 30
0.0
 10
9.736369
 20
3.808430
 30
0.0
 10
9.274296
 20
3.805951
 30
0.0
 10
8.812257
 20
3.808099
 30
0.0
 10
8.780138
 20
3.807905
 30
0.0
 10
8.771466
 20
3.818973
 30
0.0
 10
8.800697
 20
3.862763
 30
0.0
 10
9.254001
 20
4.480968
 30
0.0
 10
9.370197
 20
4.314776
 30
0.0
 10
9.370197
 20
4.314776
 30
0.0
  0
LWPOLYLINE
  5
206
100
AcDbEntity
  8
Layer_1
 62
7
100
AcDbPolyline
 90
6
 70
0
 10
8.676272
 20
3.714007
 30
0.0
 10
8.115962
 20
2.854773
 30
0.0
 10
7.259538
 20
3.413264
 30
0.0
 10
7.819794
 20
4.272498
 30
0.0
 10
8.676272
 20
3.714007
 30
0.0
 10
8.676272
 20
3.714007
 30
0.0
  0
LWPOLYLINE
  5
207
100
AcDbEntity
  8
Layer_1
 62
7
100
AcDbPolyline
 90
6
 70
0
 10
11.229446
 20
3.385372
 30
0.0
 10
10.365085
 20
2.839173
 30
0.0
 10
9.817122
 20
3.706400
 30
0.0
 10
10.681483
 20
4.252544
 30
0.0
 10
11.229446
 20
3.385372
 30
0.0
 10
11.229446
 20
3.385372
 30
0.0
  0
LWPOLYLINE
  5
208
100
AcDbEntity
  8
Layer_1
 62
7
100
AcDbPolyline
 90
6
 70
0
 10
12.787732
 20
3.527090
 30
0.0
 10
12.172024
 20
2.710795
 30
0.0
 10
11.353084
 20
3.328487
 30
0.0
 10
11.968791
 20
4.144782
 30
0.0
 10
12.787732
 20
3.527090
 30
0.0
 10
12.787732
 20
3.527090
 30
0.0
  0
LWPOLYLINE
  5
209
100
AcDbEntity
  8
Layer_1
 62
7
100
AcDbPolyline
 90
6
 70
0
 10
7.168864
 20
3.324463
 30
0.0
 10
6.350750
 20
2.705724
 30
0.0
 10
5.733995
 20
3.521192
 30
0.0
 10
6.552109
 20
4.139986
 30
0.0
 10
7.168864
 20
3.324463
 30
0.0
 10
7.168864
 20
3.324463
 30
0.0
  0
LWPOLYLINE
  5
20a
100
AcDbEntity
  8
Layer_1
 62
7
100
AcDbPolyline
 90
5
 70
0
 10
7.180053
 20
3.497710
 30
0.0
 10
6.938511
 20
3.816864
 30
0.0
 10
7.575164
 20
4.103165
 30
0.0
 10
7.180053
 20
3.497710
 30
0.0
 10
7.180053
 20
3.497710
 30
0.0
  0
LWPOLYLINE
  5
20b
100
AcDbEntity
  8
Layer_1
 62
7
100
AcDbPolyline
 90
6
 70
0
 10
5.790495
 20
3.180431
 30
0.0
 10
4.879281
 20
2.709527
 30
0.0
 10
4.409866
 20
3.617820
 30
0.0
 10
5.321135
 20
4.088723
 30
0.0
 10
5.790495
 20
3.180431
 30
0.0
 10
5.790495
 20
3.180431
 30
0.0
  0
LWPOLYLINE
  5
20c
100
AcDbEntity
  8
Layer_1
 62
7
100
AcDbPolyline
 90
5
 70
0
 10
11.556317
 20
3.785059
 30
0.0
 10
11.314002
 20
3.463149
 30
0.0
 10
10.924073
 20
4.080565
 30
0.0
 10
11.556317
 20
3.785059
 30
0.0
 10
11.556317
 20
3.785059
 30
0.0
  0
LWPOLYLINE
  5
20d
100
AcDbEntity
  8
Layer_1
 62
7
100
AcDbPolyline
 90
6
 70
0
 10
4.498446
 20
3.108056
 30
0.0
 10
3.545009
 20
2.729702
 30
0.0
 10
3.167867
 20
3.680052
 30
0.0
 10
4.121305
 20
4.058406
 30
0.0
 10
4.498446
 20
3.108056
 30
0.0
 10
4.498446
 20
3.108056
 30
0.0
  0
LWPOLYLINE
  5
20e
100
AcDbEntity
  8
Layer_1
 62
7
100
AcDbPolyline
 90
6
 70
0
 10
3.264055
 20
3.067817
 30
0.0
 10
2.287687
 20
2.753349
 30
0.0
 10
1.974266
 20
3.726575
 30
0.0
 10
2.950579
 20
4.040988
 30
0.0
 10
3.264055
 20
3.067817
 30
0.0
 10
3.264055
 20
3.067817
 30
0.0
  0
LWPOLYLINE
  5
20f
100
AcDbEntity
  8
Layer_1
 62
7
100
AcDbPolyline
 90
5
 70
0
 10
12.948742
 20
3.853630
 30
0.0
 10
12.834309
 20
3.633529
 30
0.0
 10
12.299906
 20
4.036909
 30
0.0
 10
12.948742
 20
3.853630
 30
0.0
 10
12.948742
 20
3.853630
 30
0.0
  0
LWPOLYLINE
  5
210
100
AcDbEntity
  8
Layer_1
 62
7
100
AcDbPolyline
 90
6
 70
0
 10
2.069185
 20
3.045713
 30
0.0
 10
1.079699
 20
2.775342
 30
0.0
 10
0.810099
 20
3.761577
 30
0.0
 10
1.799586
 20
4.032058
 30
0.0
 10
2.069185
 20
3.045713
 30
0.0
 10
2.069185
 20
3.045713
 30
0.0
  0
LWPOLYLINE
  5
211
100
AcDbEntity
  8
Layer_1
 62
7
100
AcDbPolyline
 90
5
 70
0
 10
5.686976
 20
3.627301
 30
0.0
 10
5.573757
 20
3.846629
 30
0.0
 10
6.220773
 20
4.030901
 30
0.0
 10
5.686976
 20
3.627301
 30
0.0
 10
5.686976
 20
3.627301
 30
0.0
  0
LWPOLYLINE
  5
212
100
AcDbEntity
  8
Layer_1
 62
7
100
AcDbPolyline
 90
5
 70
0
 10
4.375029
 20
3.727181
 30
0.0
 10
4.310978
 20
3.889624
 30
0.0
 10
4.938591
 20
4.018388
 30
0.0
 10
4.375029
 20
3.727181
 30
0.0
 10
4.375029
 20
3.727181
 30
0.0
  0
LWPOLYLINE
  5
213
100
AcDbEntity
  8
Layer_1
 62
7
100
AcDbPolyline
 90
5
 70
0
 10
3.149292
 20
3.794429
 30
0.0
 10
3.108998
 20
3.918177
 30
0.0
 10
3.700617
 20
4.013207
 30
0.0
 10
3.149292
 20
3.794429
 30
0.0
 10
3.149292
 20
3.794429
 30
0.0
  0
LWPOLYLINE
  5
214
100
AcDbEntity
  8
Layer_1
 62
7
100
AcDbPolyline
 90
6
 70
0
 10
1.970463
 20
3.844535
 30
0.0
 10
1.955240
 20
3.888086
 30
0.0
 10
1.944831
 20
3.933666
 30
0.0
 10
2.466391
 20
4.004167
 30
0.0
 10
1.970463
 20
3.844535
 30
0.0
 10
1.970463
 20
3.844535
 30
0.0
  0
LWPOLYLINE
  5
215
100
AcDbEntity
  8
Layer_1
 62
7
100
AcDbPolyline
 90
6
 70
0
 10
1.073415
 20
3.951195
 30
0.0
 10
0.798303
 20
3.876064
 30
0.0
 10
0.781436
 20
3.948384
 30
0.0
 10
1.264962
 20
4.003285
 30
0.0
 10
1.073415
 20
3.951195
 30
0.0
 10
1.073415
 20
3.951195
 30
0.0
  0
LWPOLYLINE
  5
216
100
AcDbEntity
  8
Layer_1
 62
7
100
AcDbPolyline
 90
6
 70
0
 10
9.757977
 20
3.689368
 30
0.0
 10
9.750535
 20
2.663666
 30
0.0
 10
8.728086
 20
2.671108
 30
0.0
 10
8.735583
 20
3.696809
 30
0.0
 10
9.757977
 20
3.689368
 30
0.0
 10
9.757977
 20
3.689368
 30
0.0
  0
LWPOLYLINE
  5
217
100
AcDbEntity
  8
Layer_1
 62
7
100
AcDbPolyline
 90
9
 70
0
 10
8.616245
 20
2.791769
 30
0.0
 10
8.617835
 20
2.747676
 30
0.0
 10
8.615595
 20
2.729103
 30
0.0
 10
8.598017
 20
2.724355
 30
0.0
 10
8.406274
 20
2.762173
 30
0.0
 10
8.214905
 20
2.799927
 30
0.0
 10
8.621150
 20
3.422635
 30
0.0
 10
8.616245
 20
2.791769
 30
0.0
 10
8.616245
 20
2.791769
 30
0.0
  0
LWPOLYLINE
  5
218
100
AcDbEntity
  8
Layer_1
 62
7
100
AcDbPolyline
 90
5
 70
0
 10
10.262174
 20
2.791486
 30
0.0
 10
9.863976
 20
2.715419
 30
0.0
 10
9.869267
 20
3.413588
 30
0.0
 10
10.262174
 20
2.791486
 30
0.0
 10
10.262174
 20
2.791486
 30
0.0
  0
LWPOLYLINE
  5
219
100
AcDbEntity
  8
Layer_1
 62
7
100
AcDbPolyline
 90
6
 70
0
 10
11.820184
 20
2.389485
 30
0.0
 10
10.951799
 20
1.849845
 30
0.0
 10
10.410395
 20
2.721041
 30
0.0
 10
11.278780
 20
3.260681
 30
0.0
 10
11.820184
 20
2.389485
 30
0.0
 10
11.820184
 20
2.389485
 30
0.0
  0
LWPOLYLINE
  5
21a
100
AcDbEntity
  8
Layer_1
 62
7
100
AcDbPolyline
 90
6
 70
0
 10
8.112379
 20
2.718457
 30
0.0
 10
7.572463
 20
1.846269
 30
0.0
 10
6.703087
 20
2.384421
 30
0.0
 10
7.243002
 20
3.256664
 30
0.0
 10
8.112379
 20
2.718457
 30
0.0
 10
8.112379
 20
2.718457
 30
0.0
  0
LWPOLYLINE
  5
21b
100
AcDbEntity
  8
Layer_1
 62
7
100
AcDbPolyline
 90
6
 70
0
 10
6.557621
 20
2.332275
 30
0.0
 10
5.806700
 20
1.633500
 30
0.0
 10
5.110240
 20
2.382050
 30
0.0
 10
5.861160
 20
3.080771
 30
0.0
 10
6.557621
 20
2.332275
 30
0.0
 10
6.557621
 20
2.332275
 30
0.0
  0
LWPOLYLINE
  5
21c
100
AcDbEntity
  8
Layer_1
 62
7
100
AcDbPolyline
 90
6
 70
0
 10
13.398258
 20
2.369703
 30
0.0
 10
12.699151
 20
1.623688
 30
0.0
 10
11.950656
 20
2.325000
 30
0.0
 10
12.649818
 20
3.071069
 30
0.0
 10
13.398258
 20
2.369703
 30
0.0
 10
13.398258
 20
2.369703
 30
0.0
  0
LWPOLYLINE
  5
21d
100
AcDbEntity
  8
Layer_1
 62
7
100
AcDbPolyline
 90
6
 70
0
 10
11.805687
 20
2.846504
 30
0.0
 10
12.085153
 20
2.634948
 30
0.0
 10
11.914552
 20
2.452937
 30
0.0
 10
11.549978
 20
3.039595
 30
0.0
 10
11.805687
 20
2.846504
 30
0.0
 10
11.805687
 20
2.846504
 30
0.0
  0
LWPOLYLINE
  5
21e
100
AcDbEntity
  8
Layer_1
 62
7
100
AcDbPolyline
 90
4
 70
0
 10
3.345745
 20
3.035737
 30
0.0
 10
3.344440
 20
3.032949
 30
0.0
 10
3.345745
 20
3.035737
 30
0.0
 10
3.345745
 20
3.035737
 30
0.0
  0
LWPOLYLINE
  5
21f
100
AcDbEntity
  8
Layer_1
 62
7
100
AcDbPolyline
 90
5
 70
0
 10
6.607837
 20
2.445054
 30
0.0
 10
6.436354
 20
2.629436
 30
0.0
 10
6.973458
 20
3.035847
 30
0.0
 10
6.607837
 20
2.445054
 30
0.0
 10
6.607837
 20
2.445054
 30
0.0
  0
LWPOLYLINE
  5
220
100
AcDbEntity
  8
Layer_1
 62
7
100
AcDbPolyline
 90
6
 70
0
 10
2.133347
 20
2.996821
 30
0.0
 10
2.129283
 20
2.989844
 30
0.0
 10
2.126394
 20
2.993016
 30
0.0
 10
2.126981
 20
2.998091
 30
0.0
 10
2.133347
 20
2.996821
 30
0.0
 10
2.133347
 20
2.996821
 30
0.0
  0
LWPOLYLINE
  5
221
100
AcDbEntity
  8
Layer_1
 62
7
100
AcDbPolyline
 90
6
 70
0
 10
5.135265
 20
2.141390
 30
0.0
 10
4.285732
 20
1.566582
 30
0.0
 10
3.712799
 20
2.413359
 30
0.0
 10
4.562332
 20
2.988222
 30
0.0
 10
5.135265
 20
2.141390
 30
0.0
 10
5.135265
 20
2.141390
 30
0.0
  0
LWPOLYLINE
  5
222
100
AcDbEntity
  8
Layer_1
 62
7
100
AcDbPolyline
 90
6
 70
0
 10
3.802151
 20
2.037431
 30
0.0
 10
2.898103
 20
1.552692
 30
0.0
 10
2.414963
 20
2.453818
 30
0.0
 10
3.319011
 20
2.938557
 30
0.0
 10
3.802151
 20
2.037431
 30
0.0
 10
3.802151
 20
2.037431
 30
0.0
  0
LWPOLYLINE
  5
223
100
AcDbEntity
  8
Layer_1
 62
7
100
AcDbPolyline
 90
6
 70
0
 10
2.536009
 20
1.977293
 30
0.0
 10
1.599936
 20
1.557873
 30
0.0
 10
1.181839
 20
2.490970
 30
0.0
 10
2.117968
 20
2.910390
 30
0.0
 10
2.536009
 20
1.977293
 30
0.0
 10
2.536009
 20
1.977293
 30
0.0
  0
LWPOLYLINE
  5
224
100
AcDbEntity
  8
Layer_1
 62
7
100
AcDbPolyline
 90
5
 70
0
 10
5.045637
 20
2.476914
 30
0.0
 10
4.949450
 20
2.618852
 30
0.0
 10
5.510091
 20
2.908681
 30
0.0
 10
5.045637
 20
2.476914
 30
0.0
 10
5.045637
 20
2.476914
 30
0.0
  0
LWPOLYLINE
  5
225
100
AcDbEntity
  8
Layer_1
 62
7
100
AcDbPolyline
 90
5
 70
0
 10
13.560591
 20
2.606560
 30
0.0
 10
13.463521
 20
2.464071
 30
0.0
 10
13.001052
 20
2.897823
 30
0.0
 10
13.560591
 20
2.606560
 30
0.0
 10
13.560591
 20
2.606560
 30
0.0
  0
LWPOLYLINE
  5
226
100
AcDbEntity
  8
Layer_1
 62
7
100
AcDbPolyline
 90
6
 70
0
 10
3.937584
 20
2.702802
 30
0.0
 10
3.671237
 20
2.522610
 30
0.0
 10
3.610604
 20
2.634893
 30
0.0
 10
4.156748
 20
2.851520
 30
0.0
 10
3.937584
 20
2.702802
 30
0.0
 10
3.937584
 20
2.702802
 30
0.0
  0
LWPOLYLINE
  5
227
100
AcDbEntity
  8
Layer_1
 62
7
100
AcDbPolyline
 90
6
 70
0
 10
2.396331
 20
2.572495
 30
0.0
 10
2.374336
 20
2.613737
 30
0.0
 10
2.356809
 20
2.657327
 30
0.0
 10
2.850919
 20
2.816243
 30
0.0
 10
2.396331
 20
2.572495
 30
0.0
 10
2.396331
 20
2.572495
 30
0.0
  0
LWPOLYLINE
  5
228
100
AcDbEntity
  8
Layer_1
 62
7
100
AcDbPolyline
 90
10
 70
0
 10
1.175720
 20
2.612568
 30
0.0
 10
1.158220
 20
2.607358
 30
0.0
 10
1.147587
 20
2.621146
 30
0.0
 10
1.135923
 20
2.661461
 30
0.0
 10
1.145184
 20
2.677574
 30
0.0
 10
1.170871
 20
2.685408
 30
0.0
 10
1.226635
 20
2.698951
 30
0.0
 10
1.589903
 20
2.798163
 30
0.0
 10
1.175720
 20
2.612568
 30
0.0
 10
1.175720
 20
2.612568
 30
0.0
  0
LWPOLYLINE
  5
229
100
AcDbEntity
  8
Layer_1
 62
7
100
AcDbPolyline
 90
6
 70
0
 10
10.505921
 20
1.675943
 30
0.0
 10
9.501000
 20
1.487648
 30
0.0
 10
9.312099
 20
2.495876
 30
0.0
 10
10.317019
 20
2.684116
 30
0.0
 10
10.505921
 20
1.675943
 30
0.0
 10
10.505921
 20
1.675943
 30
0.0
  0
LWPOLYLINE
  5
22a
100
AcDbEntity
  8
Layer_1
 62
7
100
AcDbPolyline
 90
6
 70
0
 10
9.211392
 20
2.496097
 30
0.0
 10
9.024144
 20
1.487593
 30
0.0
 10
8.018893
 20
1.674235
 30
0.0
 10
8.206141
 20
2.682738
 30
0.0
 10
9.211392
 20
2.496097
 30
0.0
 10
9.211392
 20
2.496097
 30
0.0
  0
LWPOLYLINE
  5
22b
100
AcDbEntity
  8
Layer_1
 62
7
100
AcDbPolyline
 90
6
 70
0
 10
10.859526
 20
1.785360
 30
0.0
 10
10.737346
 20
1.747993
 30
0.0
 10
10.613904
 20
1.714859
 30
0.0
 10
10.488723
 20
2.381775
 30
0.0
 10
10.859526
 20
1.785360
 30
0.0
 10
10.859526
 20
1.785360
 30
0.0
  0
LWPOLYLINE
  5
22c
100
AcDbEntity
  8
Layer_1
 62
7
100
AcDbPolyline
 90
5
 70
0
 10
7.911516
 20
1.713481
 30
0.0
 10
7.666115
 20
1.783376
 30
0.0
 10
8.035154
 20
2.379129
 30
0.0
 10
7.911516
 20
1.713481
 30
0.0
 10
7.911516
 20
1.713481
 30
0.0
  0
LWPOLYLINE
  5
22d
100
AcDbEntity
  8
Layer_1
 62
7
100
AcDbPolyline
 90
6
 70
0
 10
7.524453
 20
1.721529
 30
0.0
 10
6.989443
 20
0.846309
 30
0.0
 10
6.117090
 20
1.379610
 30
0.0
 10
6.652099
 20
2.254775
 30
0.0
 10
7.524453
 20
1.721529
 30
0.0
 10
7.524453
 20
1.721529
 30
0.0
  0
LWPOLYLINE
  5
22e
100
AcDbEntity
  8
Layer_1
 62
7
100
AcDbPolyline
 90
6
 70
0
 10
12.388376
 20
1.371066
 30
0.0
 10
11.514424
 20
0.840246
 30
0.0
 10
10.981895
 20
1.717064
 30
0.0
 10
11.855847
 20
2.247830
 30
0.0
 10
12.388376
 20
1.371066
 30
0.0
 10
12.388376
 20
1.371066
 30
0.0
  0
LWPOLYLINE
  5
22f
100
AcDbEntity
  8
Layer_1
 62
7
100
AcDbPolyline
 90
5
 70
0
 10
9.385686
 20
1.491838
 30
0.0
 10
9.139954
 20
1.492388
 30
0.0
 10
9.262214
 20
2.151311
 30
0.0
 10
9.385686
 20
1.491837
 30
0.0
 10
9.385686
 20
1.491838
 30
0.0
  0
LWPOLYLINE
  5
230
100
AcDbEntity
  8
Layer_1
 62
7
100
AcDbPolyline
 90
6
 70
0
 10
5.964458
 20
1.333088
 30
0.0
 10
5.257745
 20
0.589609
 30
0.0
 10
4.516691
 20
1.294062
 30
0.0
 10
5.223404
 20
2.037486
 30
0.0
 10
5.964458
 20
1.333088
 30
0.0
 10
5.964458
 20
1.333088
 30
0.0
  0
LWPOLYLINE
  5
231
100
AcDbEntity
  8
Layer_1
 62
7
100
AcDbPolyline
 90
8
 70
0
 10
13.994838
 20
1.292794
 30
0.0
 10
13.947193
 20
1.241662
 30
0.0
 10
13.892701
 20
1.190700
 30
0.0
 10
13.255438
 20
0.586632
 30
0.0
 10
12.549717
 20
1.331048
 30
0.0
 10
13.291763
 20
2.034454
 30
0.0
 10
13.994838
 20
1.292794
 30
0.0
 10
13.994838
 20
1.292794
 30
0.0
  0
LWPOLYLINE
  5
232
100
AcDbEntity
  8
Layer_1
 62
7
100
AcDbPolyline
 90
5
 70
0
 10
6.019855
 20
1.437763
 30
0.0
 10
5.892304
 20
1.558976
 30
0.0
 10
6.360562
 20
1.994436
 30
0.0
 10
6.019855
 20
1.437763
 30
0.0
 10
6.019855
 20
1.437763
 30
0.0
  0
LWPOLYLINE
  5
233
100
AcDbEntity
  8
Layer_1
 62
7
100
AcDbPolyline
 90
5
 70
0
 10
12.614540
 20
1.548778
 30
0.0
 10
12.486492
 20
1.427952
 30
0.0
 10
12.147164
 20
1.986884
 30
0.0
 10
12.614540
 20
1.548778
 30
0.0
 10
12.614540
 20
1.548778
 30
0.0
  0
LWPOLYLINE
  5
234
100
AcDbEntity
  8
Layer_1
 62
7
100
AcDbPolyline
 90
5
 70
0
 10
4.448726
 20
1.387382
 30
0.0
 10
4.369076
 20
1.487318
 30
0.0
 10
4.858335
 20
1.818433
 30
0.0
 10
4.448726
 20
1.387382
 30
0.0
 10
4.448726
 20
1.387382
 30
0.0
  0
LWPOLYLINE
  5
235
100
AcDbEntity
  8
Layer_1
 62
7
100
AcDbPolyline
 90
6
 70
0
 10
3.038332
 20
1.394162
 30
0.0
 10
3.010261
 20
1.431952
 30
0.0
 10
2.985966
 20
1.472545
 30
0.0
 10
3.447775
 20
1.720261
 30
0.0
 10
3.038332
 20
1.394162
 30
0.0
 10
3.038332
 20
1.394162
 30
0.0
  0
LWPOLYLINE
  5
236
100
AcDbEntity
  8
Layer_1
 62
7
100
AcDbPolyline
 90
6
 70
0
 10
1.706816
 20
1.403313
 30
0.0
 10
1.684575
 20
1.431837
 30
0.0
 10
1.669885
 20
1.466427
 30
0.0
 10
2.104628
 20
1.661006
 30
0.0
 10
1.706816
 20
1.403313
 30
0.0
 10
1.706816
 20
1.403313
 30
0.0
  0
LWPOLYLINE
  5
237
100
AcDbEntity
  8
Layer_1
 62
7
100
AcDbPolyline
 90
8
 70
0
 10
0.657082
 20
1.539793
 30
0.0
 10
0.539707
 20
1.474804
 30
0.0
 10
0.422154
 20
1.413841
 30
0.0
 10
0.409180
 20
1.437625
 30
0.0
 10
0.400491
 20
1.464001
 30
0.0
 10
0.799130
 20
1.617790
 30
0.0
 10
0.657082
 20
1.539793
 30
0.0
 10
0.657082
 20
1.539793
 30
0.0
  0
LWPOLYLINE
  5
238
100
AcDbEntity
  8
Layer_1
 62
7
100
AcDbPolyline
 90
6
 70
0
 10
7.346300
 20
1.057205
 30
0.0
 10
7.251270
 20
0.725814
 30
0.0
 10
7.082378
 20
0.782809
 30
0.0
 10
7.427549
 20
1.347033
 30
0.0
 10
7.346300
 20
1.057205
 30
0.0
 10
7.346300
 20
1.057205
 30
0.0
  0
LWPOLYLINE
  5
239
100
AcDbEntity
  8
Layer_1
 62
7
100
AcDbPolyline
 90
5
 70
0
 10
11.422702
 20
0.776085
 30
0.0
 10
11.252321
 20
0.718483
 30
0.0
 10
11.078137
 20
1.343230
 30
0.0
 10
11.422702
 20
0.776085
 30
0.0
 10
11.422702
 20
0.776085
 30
0.0
  0
LWPOLYLINE
  5
23a
100
AcDbEntity
  8
Layer_1
 62
7
100
AcDbPolyline
 90
7
 70
0
 10
9.988330
 20
0.606255
 30
0.0
 10
9.922896
 20
0.604465
 30
0.0
 10
9.892196
 20
0.605581
 30
0.0
 10
9.875210
 20
0.620366
 30
0.0
 10
9.876433
 20
1.007375
 30
0.0
 10
9.988330
 20
0.606255
 30
0.0
 10
9.988330
 20
0.606255
 30
0.0
  0
LWPOLYLINE
  5
23b
100
AcDbEntity
  8
Layer_1
 62
7
100
AcDbPolyline
 90
8
 70
0
 10
8.627545
 20
0.606255
 30
0.0
 10
8.558711
 20
0.604219
 30
0.0
 10
8.529121
 20
0.606858
 30
0.0
 10
8.521898
 20
0.613914
 30
0.0
 10
8.522150
 20
0.626632
 30
0.0
 10
8.628537
 20
1.004949
 30
0.0
 10
8.627544
 20
0.606255
 30
0.0
 10
8.627545
 20
0.606255
 30
0.0
  0
LWPOLYLINE
  5
23c
100
AcDbEntity
  8
Layer_1
 62
7
100
AcDbPolyline
 90
6
 70
0
 10
5.550881
 20
0.606255
 30
0.0
 10
5.484533
 20
0.605577
 30
0.0
 10
5.433263
 20
0.611369
 30
0.0
 10
5.765139
 20
0.960466
 30
0.0
 10
5.550881
 20
0.606255
 30
0.0
 10
5.550881
 20
0.606255
 30
0.0
  0
LWPOLYLINE
  5
23d
100
AcDbEntity
  8
Layer_1
 62
7
100
AcDbPolyline
 90
6
 70
0
 10
13.082797
 20
0.606255
 30
0.0
 10
13.018503
 20
0.605434
 30
0.0
 10
12.958545
 20
0.612296
 30
0.0
 10
12.750745
 20
0.956608
 30
0.0
 10
13.082797
 20
0.606255
 30
0.0
 10
13.082797
 20
0.606255
 30
0.0
  0
LWPOLYLINE
  5
23e
100
AcDbEntity
  8
Layer_1
 62
7
100
AcDbPolyline
 90
3
 70
0
 10
0.651790
 20
0.803921
 30
0.0
 10
0.651790
 20
0.803921
 30
0.0
 10
0.651790
 20
0.803921
 30
0.0
  0
LWPOLYLINE
  5
23f
100
AcDbEntity
  8
Layer_1
 62
7
100
AcDbPolyline
 90
7
 70
0
 10
4.141920
 20
0.650077
 30
0.0
 10
4.125990
 20
0.627358
 30
0.0
 10
4.103127
 20
0.612536
 30
0.0
 10
4.049426
 20
0.603499
 30
0.0
 10
4.220358
 20
0.739760
 30
0.0
 10
4.141920
 20
0.650077
 30
0.0
 10
4.141920
 20
0.650077
 30
0.0
  0
ENDSEC
  0
SECTION
  2
OBJECTS
  0
DICTIONARY
  5
C
330
0
100
AcDbDictionary
  3
ACAD_GROUP
350
D
  3
ACAD_MLINESTYLE
350
17
  0
DICTIONARY
  5
D
330
C
100
AcDbDictionary
  0
DICTIONARY
  5
1A
330
C
100
AcDbDictionary
  0
DICTIONARY
  5
17
330
C
100
AcDbDictionary
  3
STANDARD
350
18
  0
DICTIONARY
  5
19
330
C
100
AcDbDictionary
  0
ENDSEC
  0
EOF
