  0
SECTION
  2
HEADER
  9
$ACADVER
  1
AC1014
  9
$HANDSEED
  5
FFFF
  9
$MEASUREMENT
 70
     1
  0
ENDSEC
  0
SECTION
  2
TABLES
  0
TABLE
  2
VPORT
  5
8
330
0
100
AcDbSymbolTable
 70
     4
  0
VPORT
  5
2E
330
8
100
AcDbSymbolTableRecord
100
AcDbViewportTableRecord
  2
*ACTIVE
 70
     0
 10
0.0
 20
0.0
 11
1.0
 21
1.0
 12
210.0
 22
148.5
 13
0.0
 23
0.0
 14
10.0
 24
10.0
 15
10.0
 25
10.0
 16
0.0
 26
0.0
 36
1.0
 17
0.0
 27
0.0
 37
0.0
 40
341.0
 41
1.24
 42
50.0
 43
0.0
 44
0.0
 50
0.0
 51
0.0
 71
     0
 72
   100
 73
     1
 74
     3
 75
     0
 76
     0
 77
     0
 78
     0
  0
ENDTAB
  0
TABLE
  2
LTYPE
  5
5
330
0
100
AcDbSymbolTable
 70
     1
  0
LTYPE
  5
14
330
5
100
AcDbSymbolTableRecord
100
AcDbLinetypeTableRecord
  2
BYBLOCK
 70
     0
  3

 72
    65
 73
     0
 40
0.0
  0
LTYPE
  5
15
330
5
100
AcDbSymbolTableRecord
100
AcDbLinetypeTableRecord
  2
BYLAYER
 70
     0
  3

 72
    65
 73
     0
 40
0.0
  0
LTYPE
  5
16
330
5
100
AcDbSymbolTableRecord
100
AcDbLinetypeTableRecord
  2
CONTINUOUS
 70
     0
  3
Solid line
 72
    65
 73
     0
 40
0.0
  0
ENDTAB
  0
TABLE
  2
LAYER
  5
2
100
AcDbSymbolTable
 70
2
  0
LAYER
  5
50
100
AcDbSymbolTableRecord
100
AcDbLayerTableRecord
  2
0
 70
0
  6
CONTINUOUS
  0
LAYER
  5
51
100
AcDbSymbolTableRecord
100
AcDbLayerTableRecord
  2
Layer_1
 70
0
  6
CONTINUOUS
  0
ENDTAB
  0
TABLE
  2
STYLE
  5
3
330
0
100
AcDbSymbolTable
 70
     1
  0
STYLE
  5
11
330
3
100
AcDbSymbolTableRecord
100
AcDbTextStyleTableRecord
  2
STANDARD
 70
     0
 40
0.0
 41
1.0
 50
0.0
 71
     0
 42
2.5
  3
txt
  4

  0
ENDTAB
  0
TABLE
  2
VIEW
  5
6
330
0
100
AcDbSymbolTable
 70
     0
  0
ENDTAB
  0
TABLE
  2
UCS
  5
7
330
0
100
AcDbSymbolTable
 70
     0
  0
ENDTAB
  0
TABLE
  2
APPID
  5
9
330
0
100
AcDbSymbolTable
 70
     2
  0
APPID
  5
12
330
9
100
AcDbSymbolTableRecord
100
AcDbRegAppTableRecord
  2
ACAD
 70
     0
  0
ENDTAB
  0
TABLE
  2
DIMSTYLE
  5
A
330
0
100
AcDbSymbolTable
 70
     1
  0
DIMSTYLE
105
27
330
A
100
AcDbSymbolTableRecord
100
AcDbDimStyleTableRecord
  2
ISO-25
 70
     0
  3

  4

  5

  6

  7

 40
1.0
 41
2.5
 42
0.625
 43
3.75
 44
1.25
 45
0.0
 46
0.0
 47
0.0
 48
0.0
140
2.5
141
2.5
142
0.0
143
0.03937007874016
144
1.0
145
0.0
146
1.0
147
0.625
 71
     0
 72
     0
 73
     0
 74
     0
 75
     0
 76
     0
 77
     1
 78
     8
170
     0
171
     3
172
     1
173
     0
174
     0
175
     0
176
     0
177
     0
178
     0
270
     2
271
     2
272
     2
273
     2
274
     3
340
11
275
     0
280
     0
281
     0
282
     0
283
     0
284
     8
285
     0
286
     0
287
     3
288
     0
  0
ENDTAB
  0
TABLE
  2
BLOCK_RECORD
  5
1
330
0
100
AcDbSymbolTable
 70
     1
  0
BLOCK_RECORD
  5
1F
330
1
100
AcDbSymbolTableRecord
100
AcDbBlockTableRecord
  2
*MODEL_SPACE
  0
BLOCK_RECORD
  5
1B
330
1
100
AcDbSymbolTableRecord
100
AcDbBlockTableRecord
  2
*PAPER_SPACE
  0
ENDTAB
  0
ENDSEC
  0
SECTION
  2
BLOCKS
  0
BLOCK
  5
20
330
1F
100
AcDbEntity
  8
0
100
AcDbBlockBegin
  2
*MODEL_SPACE
 70
     0
 10
0.0
 20
0.0
 30
0.0
  3
*MODEL_SPACE
  1

  0
ENDBLK
  5
21
330
1F
100
AcDbEntity
  8
0
100
AcDbBlockEnd
  0
BLOCK
  5
1C
330
1B
100
AcDbEntity
 67
     1
  8
0
100
AcDbBlockBegin
  2
*PAPER_SPACE
  1

  0
ENDBLK
  5
1D
330
1B
100
AcDbEntity
 67
     1
  8
0
100
AcDbBlockEnd
  0
ENDSEC
  0
SECTION
  2
ENTITIES
  0
LWPOLYLINE
  5
100
100
AcDbEntity
  8
Layer_1
 62
7
100
AcDbPolyline
 90
370
 70
0
 10
0.623240
 20
20.504003
 30
0.0
 10
0.346089
 20
20.165777
 30
0.0
 10
-0.006524
 20
20.454669
 30
0.0
 10
-0.004209
 20
20.276516
 30
0.0
 10
0.409588
 20
19.898328
 30
0.0
 10
-0.006524
 20
19.440268
 30
0.0
 10
-0.006524
 20
19.167747
 30
0.0
 10
0.697102
 20
19.517879
 30
0.0
 10
1.152516
 20
18.602530
 30
0.0
 10
0.234301
 20
18.145573
 30
0.0
 10
-0.005422
 20
18.624800
 30
0.0
 10
-0.005809
 20
18.374713
 30
0.0
 10
0.026210
 20
18.315040
 30
0.0
 10
0.033913
 20
18.289576
 30
0.0
 10
0.027551
 20
18.282220
 30
0.0
 10
0.011282
 20
18.280080
 30
0.0
 10
-0.006318
 20
18.264348
 30
0.0
 10
-0.008414
 20
18.235167
 30
0.0
 10
-0.006525
 20
18.171535
 30
0.0
 10
0.012727
 20
18.164617
 30
0.0
 10
0.042463
 20
18.170178
 30
0.0
 10
0.072852
 20
18.176160
 30
0.0
 10
0.094069
 20
18.170502
 30
0.0
 10
0.236450
 20
17.165181
 30
0.0
 10
-0.006525
 20
17.130730
 30
0.0
 10
-0.007540
 20
17.068788
 30
0.0
 10
-0.007255
 20
17.038732
 30
0.0
 10
0.000459
 20
17.017241
 30
0.0
 10
0.235238
 20
17.052844
 30
0.0
 10
0.228686
 20
16.945268
 30
0.0
 10
0.204285
 20
16.840789
 30
0.0
 10
0.141476
 20
16.634416
 30
0.0
 10
-0.006525
 20
16.703594
 30
0.0
 10
-0.007096
 20
16.638613
 30
0.0
 10
-0.002446
 20
16.576980
 30
0.0
 10
0.139436
 20
16.510723
 30
0.0
 10
-0.006525
 20
16.196696
 30
0.0
 10
-0.006525
 20
15.824791
 30
0.0
 10
0.012099
 20
15.853929
 30
0.0
 10
0.034686
 20
15.854954
 30
0.0
 10
0.085369
 20
15.817856
 30
0.0
 10
0.842401
 20
15.246897
 30
0.0
 10
0.226694
 20
14.430602
 30
0.0
 10
-0.006525
 20
14.606550
 30
0.0
 10
-0.006924
 20
14.534097
 30
0.0
 10
-0.003714
 20
14.463455
 30
0.0
 10
0.140759
 20
14.354480
 30
0.0
 10
-0.006526
 20
14.194296
 30
0.0
 10
-0.005478
 20
13.829281
 30
0.0
 10
0.442990
 20
13.090708
 30
0.0
 10
-0.006526
 20
12.817691
 30
0.0
 10
-0.006526
 20
12.685565
 30
0.0
 10
0.015342
 20
12.672525
 30
0.0
 10
0.034919
 20
12.647600
 30
0.0
 10
0.073442
 20
12.594481
 30
0.0
 10
0.662319
 20
11.812275
 30
0.0
 10
0.610240
 20
11.847699
 30
0.0
 10
0.584476
 20
11.864065
 30
0.0
 10
0.560675
 20
11.870814
 30
0.0
 10
0.291351
 20
11.462584
 30
0.0
 10
0.513601
 20
11.906257
 30
0.0
 10
-0.006526
 20
12.166706
 30
0.0
 10
-0.007059
 20
12.100885
 30
0.0
 10
-0.002612
 20
12.038163
 30
0.0
 10
0.361631
 20
11.855986
 30
0.0
 10
-0.006526
 20
11.118129
 30
0.0
 10
-0.005919
 20
10.720372
 30
0.0
 10
0.002355
 20
10.739409
 30
0.0
 10
0.015456
 20
10.741226
 30
0.0
 10
0.044462
 20
10.719382
 30
0.0
 10
0.046098
 20
10.699681
 30
0.0
 10
0.030944
 20
10.677166
 30
0.0
 10
-0.002619
 20
10.631536
 30
0.0
 10
-0.007049
 20
10.530381
 30
0.0
 10
-0.006525
 20
10.427678
 30
0.0
 10
0.154429
 20
10.660732
 30
0.0
 10
0.995749
 20
10.079696
 30
0.0
 10
0.412839
 20
9.235675
 30
0.0
 10
-0.006525
 20
9.525284
 30
0.0
 10
-0.006928
 20
9.455676
 30
0.0
 10
-0.003549
 20
9.388031
 30
0.0
 10
0.438416
 20
9.074280
 30
0.0
 10
-0.006525
 20
8.445288
 30
0.0
 10
-0.006525
 20
8.184618
 30
0.0
 10
0.669761
 20
8.881850
 30
0.0
 10
1.403649
 20
8.169956
 30
0.0
 10
0.689439
 20
7.433642
 30
0.0
 10
-0.006525
 20
8.108716
 30
0.0
 10
-0.004485
 20
7.948588
 30
0.0
 10
0.000797
 20
7.930525
 30
0.0
 10
-0.004004
 20
7.907677
 30
0.0
 10
-0.009555
 20
7.881913
 30
0.0
 10
-0.006525
 20
7.855102
 30
0.0
 10
-0.007805
 20
7.792181
 30
0.0
 10
-0.003470
 20
7.772341
 30
0.0
 10
0.015591
 20
7.786901
 30
0.0
 10
0.107521
 20
7.874615
 30
0.0
 10
0.813407
 20
7.134939
 30
0.0
 10
0.071361
 20
6.426737
 30
0.0
 10
0.026407
 20
6.475506
 30
0.0
 10
0.005417
 20
6.496160
 30
0.0
 10
-0.002063
 20
6.498953
 30
0.0
 10
-0.006525
 20
6.494206
 30
0.0
 10
-0.004871
 20
6.307179
 30
0.0
 10
0.226749
 20
6.031737
 30
0.0
 10
-0.006525
 20
5.832307
 30
0.0
 10
-0.006525
 20
5.688329
 30
0.0
 10
0.279887
 20
5.929211
 30
0.0
 10
0.350387
 20
5.822110
 30
0.0
 10
-0.006525
 20
5.635192
 30
0.0
 10
-0.006525
 20
5.508247
 30
0.0
 10
0.426124
 20
5.735072
 30
0.0
 10
0.900886
 20
4.829481
 30
0.0
 10
-0.006525
 20
4.353837
 30
0.0
 10
-0.003793
 20
3.893257
 30
0.0
 10
0.105868
 20
3.582136
 30
0.0
 10
0.046632
 20
3.561993
 30
0.0
 10
-0.006524
 20
3.537543
 30
0.0
 10
-0.007749
 20
3.473605
 30
0.0
 10
-0.007075
 20
3.443449
 30
0.0
 10
0.002901
 20
3.426418
 30
0.0
 10
0.130232
 20
3.471342
 30
0.0
 10
0.176699
 20
3.300465
 30
0.0
 10
-0.006524
 20
3.288669
 30
0.0
 10
-0.007570
 20
3.227284
 30
0.0
 10
-0.007327
 20
3.197404
 30
0.0
 10
0.000519
 20
3.175588
 30
0.0
 10
0.186511
 20
3.187521
 30
0.0
 10
0.252051
 20
2.167166
 30
0.0
 10
-0.006524
 20
2.150519
 30
0.0
 10
-0.007575
 20
2.089295
 30
0.0
 10
-0.007341
 20
2.059489
 30
0.0
 10
0.000519
 20
2.037769
 30
0.0
 10
0.264729
 20
2.054553
 30
0.0
 10
0.243286
 20
1.891118
 30
0.0
 10
-0.006524
 20
1.943097
 30
0.0
 10
-0.007303
 20
1.881466
 30
0.0
 10
-0.000902
 20
1.825688
 30
0.0
 10
0.225096
 20
1.778670
 30
0.0
 10
0.016902
 20
0.777608
 30
0.0
 10
0.002845
 20
0.780217
 30
0.0
 10
-0.005128
 20
0.775353
 30
0.0
 10
-0.008630
 20
0.750345
 30
0.0
 10
-0.006524
 20
0.689138
 30
0.0
 10
-0.006524
 20
0.492464
 30
0.0
 10
0.025407
 20
0.493028
 30
0.0
 10
0.043202
 20
0.514417
 30
0.0
 10
0.066296
 20
0.575614
 30
0.0
 10
0.174660
 20
0.848384
 30
0.0
 10
1.072038
 20
0.492464
 30
0.0
 10
1.237623
 20
0.492464
 30
0.0
 10
1.343733
 20
0.816744
 30
0.0
 10
2.318612
 20
0.497701
 30
0.0
 10
2.372436
 20
0.489587
 30
0.0
 10
2.401103
 20
0.495280
 30
0.0
 10
2.412806
 20
0.518014
 30
0.0
 10
2.498253
 20
0.831958
 30
0.0
 10
3.487960
 20
0.562634
 30
0.0
 10
3.473078
 20
0.506415
 30
0.0
 10
3.481307
 20
0.490266
 30
0.0
 10
3.513426
 20
0.492409
 30
0.0
 10
3.548030
 20
0.489306
 30
0.0
 10
3.570617
 20
0.501398
 30
0.0
 10
3.583443
 20
0.525814
 30
0.0
 10
3.588767
 20
0.559678
 30
0.0
 10
3.652112
 20
0.828926
 30
0.0
 10
4.650583
 20
0.594053
 30
0.0
 10
4.634434
 20
0.533583
 30
0.0
 10
4.629385
 20
0.505745
 30
0.0
 10
4.642646
 20
0.492409
 30
0.0
 10
6.143164
 20
0.493622
 30
0.0
 10
6.620847
 20
0.816910
 30
0.0
 10
6.840506
 20
0.492410
 30
0.0
 10
7.473522
 20
0.494284
 30
0.0
 10
7.919676
 20
0.909514
 30
0.0
 10
8.310983
 20
0.492410
 30
0.0
 10
8.934573
 20
0.492410
 30
0.0
 10
9.301517
 20
1.085352
 30
0.0
 10
10.170949
 20
0.547200
 30
0.0
 10
10.149821
 20
0.517868
 30
0.0
 10
10.146799
 20
0.498581
 30
0.0
 10
10.162867
 20
0.489905
 30
0.0
 10
10.199006
 20
0.492410
 30
0.0
 10
10.233243
 20
0.490828
 30
0.0
 10
10.258114
 20
0.499889
 30
0.0
 10
10.282011
 20
0.507709
 30
0.0
 10
10.313324
 20
0.502404
 30
0.0
 10
10.395059
 20
0.492599
 30
0.0
 10
10.477583
 20
0.491368
 30
0.0
 10
10.642955
 20
0.492410
 30
0.0
 10
10.786601
 20
0.492410
 30
0.0
 10
10.794208
 20
1.525552
 30
0.0
 10
11.816492
 20
1.518111
 30
0.0
 10
11.809161
 20
0.492410
 30
0.0
 10
12.281091
 20
0.495116
 30
0.0
 10
12.342383
 20
0.507995
 30
0.0
 10
12.369210
 20
0.508682
 30
0.0
 10
12.385346
 20
0.492410
 30
0.0
 10
12.449939
 20
0.491602
 30
0.0
 10
12.480826
 20
0.491983
 30
0.0
 10
12.500854
 20
0.498405
 30
0.0
 10
12.479417
 20
0.527206
 30
0.0
 10
12.479698
 20
0.550927
 30
0.0
 10
12.497581
 20
0.570530
 30
0.0
 10
12.528947
 20
0.586978
 30
0.0
 10
13.337350
 20
1.089376
 30
0.0
 10
13.708318
 20
0.492410
 30
0.0
 10
14.007518
 20
0.492410
 30
0.0
 10
14.007893
 20
0.602168
 30
0.0
 10
14.004706
 20
0.710140
 30
0.0
 10
13.411599
 20
1.157506
 30
0.0
 10
14.007518
 20
1.949878
 30
0.0
 10
14.005864
 20
2.321893
 30
0.0
 10
13.710688
 20
1.693618
 30
0.0
 10
12.781229
 20
2.127700
 30
0.0
 10
13.213933
 20
3.054073
 30
0.0
 10
14.007518
 20
2.683435
 30
0.0
 10
14.008087
 20
2.748477
 30
0.0
 10
14.003439
 20
2.810215
 30
0.0
 10
13.483532
 20
3.053135
 30
0.0
 10
14.007518
 20
3.127494
 30
0.0
 10
14.008541
 20
3.189164
 30
0.0
 10
14.008270
 20
3.219100
 30
0.0
 10
14.000527
 20
3.240473
 30
0.0
 10
13.224792
 20
3.130526
 30
0.0
 10
13.081366
 20
4.142833
 30
0.0
 10
14.007518
 20
4.274077
 30
0.0
 10
14.008538
 20
4.335880
 30
0.0
 10
14.008259
 20
4.365878
 30
0.0
 10
14.000527
 20
4.387332
 30
0.0
 10
13.338508
 20
4.293370
 30
0.0
 10
13.866351
 20
4.749059
 30
0.0
 10
14.006415
 20
4.469759
 30
0.0
 10
14.006801
 20
4.719625
 30
0.0
 10
13.782677
 20
5.170078
 30
0.0
 10
14.007518
 20
5.282030
 30
0.0
 10
14.007518
 20
5.562984
 30
0.0
 10
13.721768
 20
5.250224
 30
0.0
 10
12.966988
 20
5.940015
 30
0.0
 10
13.658984
 20
6.697275
 30
0.0
 10
14.007518
 20
6.378727
 30
0.0
 10
14.004927
 20
6.557707
 30
0.0
 10
13.559380
 20
6.922667
 30
0.0
 10
14.007517
 20
7.472283
 30
0.0
 10
14.007517
 20
7.647460
 30
0.0
 10
13.708152
 20
7.281949
 30
0.0
 10
13.972405
 20
7.884813
 30
0.0
 10
13.999620
 20
7.872779
 30
0.0
 10
14.008263
 20
7.889291
 30
0.0
 10
14.007517
 20
7.950518
 30
0.0
 10
14.008268
 20
7.981863
 30
0.0
 10
13.989707
 20
8.000937
 30
0.0
 10
13.933167
 20
8.026733
 30
0.0
 10
13.112344
 20
8.411554
 30
0.0
 10
13.547749
 20
9.340297
 30
0.0
 10
14.007517
 20
9.124772
 30
0.0
 10
14.008089
 20
9.189705
 30
0.0
 10
14.003439
 20
9.251331
 30
0.0
 10
13.493454
 20
9.490172
 30
0.0
 10
13.183506
 20
8.828052
 30
0.0
 10
13.343083
 20
9.541711
 30
0.0
 10
12.124842
 20
9.814397
 30
0.0
 10
11.965871
 20
9.103825
 30
0.0
 10
11.969509
 20
9.830934
 30
0.0
 10
10.721392
 20
9.837383
 30
0.0
 10
10.717644
 20
9.108015
 30
0.0
 10
10.564241
 20
9.821177
 30
0.0
 10
9.343740
 20
9.558358
 30
0.0
 10
9.497970
 20
8.843101
 30
0.0
 10
9.192983
 20
9.508307
 30
0.0
 10
9.130374
 20
9.479224
 30
0.0
 10
9.113454
 20
9.472452
 30
0.0
 10
9.136124
 20
9.486973
 30
0.0
 10
9.647074
 20
9.804751
 30
0.0
 10
9.220984
 20
10.490959
 30
0.0
 10
9.865631
 20
10.004566
 30
0.0
 10
10.259750
 20
10.527119
 30
0.0
 10
11.324477
 20
9.979596
 30
0.0
 10
11.896418
 20
11.088531
 30
0.0
 10
11.214895
 20
11.440372
 30
0.0
 10
11.965981
 20
11.286307
 30
0.0
 10
12.216454
 20
12.509289
 30
0.0
 10
11.468179
 20
12.662361
 30
0.0
 10
12.106376
 20
12.706847
 30
0.0
 10
12.173950
 20
12.710522
 30
0.0
 10
12.205214
 20
12.721105
 30
0.0
 10
12.229132
 20
12.742618
 30
0.0
 10
12.188066
 20
13.330269
 30
0.0
 10
12.475856
 20
12.276400
 30
0.0
 10
13.069735
 20
12.438733
 30
0.0
 10
12.508212
 20
12.186773
 30
0.0
 10
12.834807
 20
11.457184
 30
0.0
 10
11.827020
 20
10.889046
 30
0.0
 10
12.439420
 20
9.801664
 30
0.0
 10
13.448144
 20
10.370739
 30
0.0
 10
13.741942
 20
9.918136
 30
0.0
 10
14.007517
 20
10.090060
 30
0.0
 10
14.007517
 20
10.224667
 30
0.0
 10
13.775346
 20
10.074295
 30
0.0
 10
13.219500
 20
10.932427
 30
0.0
 10
14.007517
 20
11.442963
 30
0.0
 10
14.007517
 20
11.615107
 30
0.0
 10
13.075082
 20
11.197286
 30
0.0
 10
12.657095
 20
12.130328
 30
0.0
 10
13.593169
 20
12.549803
 30
0.0
 10
14.005533
 20
11.634179
 30
0.0
 10
14.006691
 20
11.875887
 30
0.0
 10
13.890164
 20
12.093176
 30
0.0
 10
13.951230
 20
12.125324
 30
0.0
 10
14.007518
 20
12.160314
 30
0.0
 10
14.008322
 20
12.227007
 30
0.0
 10
14.007885
 20
12.258948
 30
0.0
 10
14.001302
 20
12.280613
 30
0.0
 10
13.870706
 20
12.212018
 30
0.0
 10
13.849137
 20
12.253197
 30
0.0
 10
13.831570
 20
12.296464
 30
0.0
 10
14.007518
 20
12.353019
 30
0.0
 10
14.008426
 20
12.417189
 30
0.0
 10
14.008028
 20
12.448102
 30
0.0
 10
14.000804
 20
12.469635
 30
0.0
 10
13.762888
 20
12.392982
 30
0.0
 10
13.449412
 20
13.366153
 30
0.0
 10
14.007518
 20
13.545904
 30
0.0
 10
14.007518
 20
13.766170
 30
0.0
 10
13.378526
 20
13.681944
 30
0.0
 10
13.242762
 20
14.695298
 30
0.0
 10
14.007518
 20
14.797769
 30
0.0
 10
14.007518
 20
14.983363
 30
0.0
 10
13.227989
 20
15.018806
 30
0.0
 10
13.274401
 20
16.040153
 30
0.0
 10
14.007518
 20
16.006805
 30
0.0
 10
14.007518
 20
16.204360
 30
0.0
 10
13.318443
 20
16.362890
 30
0.0
 10
13.547694
 20
17.359266
 30
0.0
 10
14.007518
 20
17.253488
 30
0.0
 10
14.008281
 20
17.314884
 30
0.0
 10
14.002061
 20
17.370732
 30
0.0
 10
13.602981
 20
17.462674
 30
0.0
 10
13.624020
 20
17.525920
 30
0.0
 10
13.639278
 20
17.546582
 30
0.0
 10
13.667524
 20
17.537205
 30
0.0
 10
14.007518
 20
17.391016
 30
0.0
 10
14.008124
 20
17.455275
 30
0.0
 10
14.003273
 20
17.515977
 30
0.0
 10
13.648952
 20
17.668443
 30
0.0
 10
14.007518
 20
18.503148
 30
0.0
 10
14.007408
 20
18.709964
 30
0.0
 10
13.823687
 20
18.374385
 30
0.0
 10
12.923829
 20
18.866675
 30
0.0
 10
13.414521
 20
19.763723
 30
0.0
 10
14.007518
 20
19.439277
 30
0.0
 10
14.007881
 20
19.565419
 30
0.0
 10
14.004762
 20
19.689860
 30
0.0
 10
13.578838
 20
20.016345
 30
0.0
 10
13.954656
 20
20.506595
 30
0.0
 10
2.811123
 20
20.506595
 30
0.0
 10
3.171948
 20
19.844035
 30
0.0
 10
2.271042
 20
19.353453
 30
0.0
 10
1.782004
 20
20.251383
 30
0.0
 10
2.250041
 20
20.506430
 30
0.0
 10
1.867552
 20
20.504886
 30
0.0
 10
1.703952
 20
20.362673
 30
0.0
 10
1.575629
 20
20.506595
 30
0.0
 10
1.380664
 20
20.506595
 30
0.0
 10
1.856473
 20
19.829262
 30
0.0
 10
1.017137
 20
19.239682
 30
0.0
 10
0.429432
 20
20.076261
 30
0.0
 10
1.041997
 20
20.506595
 30
0.0
 10
0.623239
 20
20.504004
 30
0.0
 10
0.623240
 20
20.504003
 30
0.0
  0
LWPOLYLINE
  5
101
100
AcDbEntity
  8
Layer_1
 62
7
100
AcDbPolyline
 90
45
 70
0
 10
13.725903
 20
20.393650
 30
0.0
 10
13.421246
 20
19.995121
 30
0.0
 10
13.905268
 20
19.623987
 30
0.0
 10
13.369707
 20
19.917124
 30
0.0
 10
13.039915
 20
19.312937
 30
0.0
 10
11.982464
 20
19.787258
 30
0.0
 10
11.844550
 20
19.480176
 30
0.0
 10
10.776956
 20
19.915470
 30
0.0
 10
10.659051
 20
19.626633
 30
0.0
 10
9.584126
 20
20.030013
 30
0.0
 10
9.435574
 20
19.634240
 30
0.0
 10
8.345380
 20
20.000302
 30
0.0
 10
8.165794
 20
19.464797
 30
0.0
 10
7.060001
 20
19.784942
 30
0.0
 10
6.712680
 20
18.585718
 30
0.0
 10
7.915101
 20
18.237516
 30
0.0
 10
8.071095
 20
18.775667
 30
0.0
 10
9.037266
 20
18.452049
 30
0.0
 10
8.891414
 20
17.883140
 30
0.0
 10
8.423432
 20
18.084554
 30
0.0
 10
8.120539
 20
17.382305
 30
0.0
 10
8.222569
 20
18.139730
 30
0.0
 10
6.985367
 20
18.306362
 30
0.0
 10
6.883226
 20
17.548001
 30
0.0
 10
6.776842
 20
18.306197
 30
0.0
 10
5.541679
 20
18.134053
 30
0.0
 10
5.647292
 20
17.373927
 30
0.0
 10
5.339548
 20
18.076892
 30
0.0
 10
4.195942
 20
17.575561
 30
0.0
 10
4.503630
 20
16.874195
 30
0.0
 10
4.019167
 20
17.466531
 30
0.0
 10
3.821887
 20
17.305301
 30
0.0
 10
3.758718
 20
18.296606
 30
0.0
 10
3.030728
 20
18.250249
 30
0.0
 10
3.731267
 20
18.451663
 30
0.0
 10
3.386372
 20
19.651493
 30
0.0
 10
2.682139
 20
19.448701
 30
0.0
 10
3.256285
 20
19.760028
 30
0.0
 10
3.283038
 20
19.783047
 30
0.0
 10
3.298207
 20
19.814201
 30
0.0
 10
3.298708
 20
19.848101
 30
0.0
 10
3.281454
 20
19.879360
 30
0.0
 10
3.001017
 20
20.393650
 30
0.0
 10
13.725903
 20
20.393650
 30
0.0
 10
13.725903
 20
20.393650
 30
0.0
  0
LWPOLYLINE
  5
102
100
AcDbEntity
  8
Layer_1
 62
7
100
AcDbPolyline
 90
6
 70
0
 10
0.674723
 20
20.385326
 30
0.0
 10
0.667822
 20
20.381240
 30
0.0
 10
0.673613
 20
20.385302
 30
0.0
 10
0.679959
 20
20.389376
 30
0.0
 10
0.674723
 20
20.385326
 30
0.0
 10
0.674723
 20
20.385326
 30
0.0
  0
LWPOLYLINE
  5
103
100
AcDbEntity
  8
Layer_1
 62
7
100
AcDbPolyline
 90
6
 70
0
 10
10.610379
 20
19.524107
 30
0.0
 10
10.251152
 20
18.566867
 30
0.0
 10
9.290769
 20
18.927307
 30
0.0
 10
9.650052
 20
19.884492
 30
0.0
 10
10.610379
 20
19.524107
 30
0.0
 10
10.610379
 20
19.524107
 30
0.0
  0
LWPOLYLINE
  5
104
100
AcDbEntity
  8
Layer_1
 62
7
100
AcDbPolyline
 90
6
 70
0
 10
9.388720
 20
19.530998
 30
0.0
 10
9.063338
 20
18.561686
 30
0.0
 10
8.090884
 20
18.888115
 30
0.0
 10
8.416266
 20
19.857427
 30
0.0
 10
9.388720
 20
19.530998
 30
0.0
 10
9.388720
 20
19.530998
 30
0.0
  0
LWPOLYLINE
  5
105
100
AcDbEntity
  8
Layer_1
 62
7
100
AcDbPolyline
 90
6
 70
0
 10
0.512886
 20
19.761075
 30
0.0
 10
0.621586
 20
19.606459
 30
0.0
 10
0.024289
 20
19.309189
 30
0.0
 10
0.479648
 20
19.807542
 30
0.0
 10
0.512886
 20
19.761075
 30
0.0
 10
0.512886
 20
19.761075
 30
0.0
  0
LWPOLYLINE
  5
106
100
AcDbEntity
  8
Layer_1
 62
7
100
AcDbPolyline
 90
6
 70
0
 10
11.788436
 20
19.380902
 30
0.0
 10
11.402365
 20
18.434134
 30
0.0
 10
10.452511
 20
18.821363
 30
0.0
 10
10.838527
 20
19.768186
 30
0.0
 10
11.788436
 20
19.380902
 30
0.0
 10
11.788436
 20
19.380902
 30
0.0
  0
LWPOLYLINE
  5
107
100
AcDbEntity
  8
Layer_1
 62
7
100
AcDbPolyline
 90
5
 70
0
 10
2.017539
 20
19.583528
 30
0.0
 10
1.387775
 20
19.361554
 30
0.0
 10
1.930778
 20
19.743215
 30
0.0
 10
2.017539
 20
19.583528
 30
0.0
 10
2.017539
 20
19.583528
 30
0.0
  0
LWPOLYLINE
  5
108
100
AcDbEntity
  8
Layer_1
 62
7
100
AcDbPolyline
 90
6
 70
0
 10
8.121973
 20
19.359956
 30
0.0
 10
7.838097
 20
18.377745
 30
0.0
 10
6.852689
 20
18.662503
 30
0.0
 10
7.136510
 20
19.644713
 30
0.0
 10
8.121973
 20
19.359956
 30
0.0
 10
8.121973
 20
19.359956
 30
0.0
  0
LWPOLYLINE
  5
109
100
AcDbEntity
  8
Layer_1
 62
7
100
AcDbPolyline
 90
6
 70
0
 10
12.974706
 20
19.218569
 30
0.0
 10
12.556389
 20
18.285582
 30
0.0
 10
11.620370
 20
18.705222
 30
0.0
 10
12.038688
 20
19.638209
 30
0.0
 10
12.974706
 20
19.218569
 30
0.0
 10
12.974706
 20
19.218569
 30
0.0
  0
LWPOLYLINE
  5
10a
100
AcDbEntity
  8
Layer_1
 62
7
100
AcDbPolyline
 90
6
 70
0
 10
3.591534
 20
18.529219
 30
0.0
 10
2.605796
 20
18.245288
 30
0.0
 10
2.322857
 20
19.227829
 30
0.0
 10
3.308540
 20
19.511760
 30
0.0
 10
3.591534
 20
18.529219
 30
0.0
 10
3.591534
 20
18.529219
 30
0.0
  0
LWPOLYLINE
  5
10b
100
AcDbEntity
  8
Layer_1
 62
7
100
AcDbPolyline
 90
6
 70
0
 10
2.381065
 20
18.507997
 30
0.0
 10
1.413682
 20
18.167015
 30
0.0
 10
1.073803
 20
19.131256
 30
0.0
 10
2.041186
 20
19.472238
 30
0.0
 10
2.381065
 20
18.507997
 30
0.0
 10
2.381065
 20
18.507997
 30
0.0
  0
LWPOLYLINE
  5
10c
100
AcDbEntity
  8
Layer_1
 62
7
100
AcDbPolyline
 90
8
 70
0
 10
9.555683
 20
18.707206
 30
0.0
 10
9.257255
 20
18.783936
 30
0.0
 10
9.261615
 20
18.801423
 30
0.0
 10
9.270414
 20
18.809576
 30
0.0
 10
9.297316
 20
18.806312
 30
0.0
 10
9.360258
 20
18.780580
 30
0.0
 10
9.555683
 20
18.707206
 30
0.0
 10
9.555683
 20
18.707206
 30
0.0
  0
LWPOLYLINE
  5
10d
100
AcDbEntity
  8
Layer_1
 62
7
100
AcDbPolyline
 90
9
 70
0
 10
13.137701
 20
18.621162
 30
0.0
 10
13.311003
 20
18.526518
 30
0.0
 10
12.861046
 20
18.688741
 30
0.0
 10
12.873246
 20
18.721671
 30
0.0
 10
12.888998
 20
18.744058
 30
0.0
 10
12.910676
 20
18.748851
 30
0.0
 10
12.940656
 20
18.729001
 30
0.0
 10
13.137701
 20
18.621162
 30
0.0
 10
13.137701
 20
18.621162
 30
0.0
  0
LWPOLYLINE
  5
10e
100
AcDbEntity
  8
Layer_1
 62
7
100
AcDbPolyline
 90
8
 70
0
 10
10.647475
 20
18.619728
 30
0.0
 10
10.765546
 20
18.571662
 30
0.0
 10
10.410343
 20
18.669117
 30
0.0
 10
10.421167
 20
18.700601
 30
0.0
 10
10.444488
 20
18.703313
 30
0.0
 10
10.504358
 20
18.678286
 30
0.0
 10
10.647475
 20
18.619728
 30
0.0
 10
10.647475
 20
18.619728
 30
0.0
  0
LWPOLYLINE
  5
10f
100
AcDbEntity
  8
Layer_1
 62
7
100
AcDbPolyline
 90
16
 70
0
 10
10.205952
 20
18.423165
 30
0.0
 10
9.951291
 20
17.432961
 30
0.0
 10
9.285389
 20
17.601805
 30
0.0
 10
9.290504
 20
17.588797
 30
0.0
 10
9.317349
 20
17.575355
 30
0.0
 10
9.378569
 20
17.549937
 30
0.0
 10
9.410287
 20
17.537643
 30
0.0
 10
9.413542
 20
17.514029
 30
0.0
 10
9.387561
 20
17.453878
 30
0.0
 10
9.015052
 20
16.589712
 30
0.0
 10
8.076111
 20
16.994415
 30
0.0
 10
8.482136
 20
17.936331
 30
0.0
 10
8.967757
 20
17.727035
 30
0.0
 10
9.212442
 20
18.678598
 30
0.0
 10
10.205952
 20
18.423165
 30
0.0
 10
10.205952
 20
18.423165
 30
0.0
  0
LWPOLYLINE
  5
110
100
AcDbEntity
  8
Layer_1
 62
7
100
AcDbPolyline
 90
8
 70
0
 10
11.978330
 20
18.421234
 30
0.0
 10
11.568446
 20
18.542005
 30
0.0
 10
11.578786
 20
18.576091
 30
0.0
 10
11.598015
 20
18.587966
 30
0.0
 10
11.623997
 20
18.582968
 30
0.0
 10
11.654596
 20
18.566434
 30
0.0
 10
11.978330
 20
18.421234
 30
0.0
 10
11.978330
 20
18.421234
 30
0.0
  0
LWPOLYLINE
  5
111
100
AcDbEntity
  8
Layer_1
 62
7
100
AcDbPolyline
 90
6
 70
0
 10
13.764488
 20
18.243026
 30
0.0
 10
13.417498
 20
17.281211
 30
0.0
 10
12.452540
 20
17.629358
 30
0.0
 10
12.799530
 20
18.591174
 30
0.0
 10
13.764488
 20
18.243026
 30
0.0
 10
13.764488
 20
18.243026
 30
0.0
  0
LWPOLYLINE
  5
112
100
AcDbEntity
  8
Layer_1
 62
7
100
AcDbPolyline
 90
6
 70
0
 10
11.354519
 20
18.293132
 30
0.0
 10
11.084203
 20
17.307063
 30
0.0
 10
10.094937
 20
17.578261
 30
0.0
 10
10.365308
 20
18.564385
 30
0.0
 10
11.354519
 20
18.293132
 30
0.0
 10
11.354519
 20
18.293132
 30
0.0
  0
LWPOLYLINE
  5
113
100
AcDbEntity
  8
Layer_1
 62
7
100
AcDbPolyline
 90
5
 70
0
 10
1.263752
 20
18.252783
 30
0.0
 10
0.579969
 20
18.190881
 30
0.0
 10
1.180298
 20
18.489530
 30
0.0
 10
1.263752
 20
18.252783
 30
0.0
 10
1.263752
 20
18.252783
 30
0.0
  0
LWPOLYLINE
  5
114
100
AcDbEntity
  8
Layer_1
 62
7
100
AcDbPolyline
 90
6
 70
0
 10
12.505512
 20
18.147887
 30
0.0
 10
12.216344
 20
17.167164
 30
0.0
 10
11.232535
 20
17.457269
 30
0.0
 10
11.521648
 20
18.437936
 30
0.0
 10
12.505512
 20
18.147887
 30
0.0
 10
12.505512
 20
18.147887
 30
0.0
  0
LWPOLYLINE
  5
115
100
AcDbEntity
  8
Layer_1
 62
7
100
AcDbPolyline
 90
5
 70
0
 10
2.493569
 20
18.228474
 30
0.0
 10
1.802620
 20
18.184101
 30
0.0
 10
2.441423
 20
18.409438
 30
0.0
 10
2.493569
 20
18.228474
 30
0.0
 10
2.493569
 20
18.228474
 30
0.0
  0
LWPOLYLINE
  5
116
100
AcDbEntity
  8
Layer_1
 62
7
100
AcDbPolyline
 90
6
 70
0
 10
8.095183
 20
18.042715
 30
0.0
 10
7.958151
 20
17.026164
 30
0.0
 10
6.944852
 20
17.162810
 30
0.0
 10
7.081995
 20
18.179361
 30
0.0
 10
8.095183
 20
18.042715
 30
0.0
 10
8.095183
 20
18.042715
 30
0.0
  0
LWPOLYLINE
  5
117
100
AcDbEntity
  8
Layer_1
 62
7
100
AcDbPolyline
 90
6
 70
0
 10
6.822648
 20
17.163085
 30
0.0
 10
5.810065
 20
17.021864
 30
0.0
 10
5.668348
 20
18.037754
 30
0.0
 10
6.681041
 20
18.178975
 30
0.0
 10
6.822648
 20
17.163085
 30
0.0
 10
6.822648
 20
17.163085
 30
0.0
  0
LWPOLYLINE
  5
118
100
AcDbEntity
  8
Layer_1
 62
7
100
AcDbPolyline
 90
6
 70
0
 10
3.717873
 20
17.156195
 30
0.0
 10
2.694156
 20
17.090766
 30
0.0
 10
2.628947
 20
18.111065
 30
0.0
 10
3.652554
 20
18.176495
 30
0.0
 10
3.717873
 20
17.156195
 30
0.0
 10
3.717873
 20
17.156195
 30
0.0
  0
LWPOLYLINE
  5
119
100
AcDbEntity
  8
Layer_1
 62
7
100
AcDbPolyline
 90
6
 70
0
 10
1.375538
 20
17.123067
 30
0.0
 10
0.354026
 20
17.030738
 30
0.0
 10
0.261973
 20
18.048998
 30
0.0
 10
1.283541
 20
18.141327
 30
0.0
 10
1.375538
 20
17.123067
 30
0.0
 10
1.375538
 20
17.123067
 30
0.0
  0
LWPOLYLINE
  5
11a
100
AcDbEntity
  8
Layer_1
 62
7
100
AcDbPolyline
 90
6
 70
0
 10
2.527248
 20
17.092750
 30
0.0
 10
1.503586
 20
17.026990
 30
0.0
 10
1.438156
 20
18.047290
 30
0.0
 10
2.461708
 20
18.113050
 30
0.0
 10
2.527248
 20
17.092750
 30
0.0
 10
2.527248
 20
17.092750
 30
0.0
  0
LWPOLYLINE
  5
11b
100
AcDbEntity
  8
Layer_1
 62
7
100
AcDbPolyline
 90
6
 70
0
 10
5.692822
 20
16.988295
 30
0.0
 10
4.756417
 20
16.577695
 30
0.0
 10
4.344494
 20
17.517186
 30
0.0
 10
5.280899
 20
17.927731
 30
0.0
 10
5.692822
 20
16.988295
 30
0.0
 10
5.692822
 20
16.988295
 30
0.0
  0
LWPOLYLINE
  5
11c
100
AcDbEntity
  8
Layer_1
 62
7
100
AcDbPolyline
 90
8
 70
0
 10
12.884913
 20
17.353420
 30
0.0
 10
12.416325
 20
17.444426
 30
0.0
 10
12.424057
 20
17.478627
 30
0.0
 10
12.436760
 20
17.502996
 30
0.0
 10
12.457753
 20
17.510965
 30
0.0
 10
12.490358
 20
17.495967
 30
0.0
 10
12.884913
 20
17.353420
 30
0.0
 10
12.884913
 20
17.353420
 30
0.0
  0
LWPOLYLINE
  5
11d
100
AcDbEntity
  8
Layer_1
 62
7
100
AcDbPolyline
 90
15
 70
0
 10
11.059509
 20
17.196985
 30
0.0
 10
10.941163
 20
16.429197
 30
0.0
 10
10.860079
 20
16.543354
 30
0.0
 10
10.236765
 20
16.101390
 30
0.0
 10
10.718637
 20
16.695489
 30
0.0
 10
9.953881
 20
17.314890
 30
0.0
 10
9.990648
 20
17.315058
 30
0.0
 10
10.024069
 20
17.328911
 30
0.0
 10
10.048277
 20
17.354755
 30
0.0
 10
10.057409
 20
17.390897
 30
0.0
 10
10.073802
 20
17.451622
 30
0.0
 10
10.091885
 20
17.464951
 30
0.0
 10
10.124434
 20
17.453360
 30
0.0
 10
11.059509
 20
17.196985
 30
0.0
 10
11.059509
 20
17.196985
 30
0.0
  0
LWPOLYLINE
  5
11e
100
AcDbEntity
  8
Layer_1
 62
7
100
AcDbPolyline
 90
5
 70
0
 10
9.673258
 20
17.387650
 30
0.0
 10
9.266516
 20
16.886265
 30
0.0
 10
9.501664
 20
17.430535
 30
0.0
 10
9.673258
 20
17.387650
 30
0.0
 10
9.673258
 20
17.387650
 30
0.0
  0
LWPOLYLINE
  5
11f
100
AcDbEntity
  8
Layer_1
 62
7
100
AcDbPolyline
 90
8
 70
0
 10
11.620922
 20
17.224711
 30
0.0
 10
11.196982
 20
17.290306
 30
0.0
 10
11.203077
 20
17.325224
 30
0.0
 10
11.220848
 20
17.339187
 30
0.0
 10
11.247368
 20
17.337448
 30
0.0
 10
11.279708
 20
17.325263
 30
0.0
 10
11.620922
 20
17.224711
 30
0.0
 10
11.620922
 20
17.224711
 30
0.0
  0
LWPOLYLINE
  5
120
100
AcDbEntity
  8
Layer_1
 62
7
100
AcDbPolyline
 90
6
 70
0
 10
13.379353
 20
17.142139
 30
0.0
 10
13.184389
 20
16.138431
 30
0.0
 10
12.177429
 20
16.334058
 30
0.0
 10
12.372393
 20
17.337765
 30
0.0
 10
13.379353
 20
17.142139
 30
0.0
 10
13.379353
 20
17.142139
 30
0.0
  0
LWPOLYLINE
  5
121
100
AcDbEntity
  8
Layer_1
 62
7
100
AcDbPolyline
 90
6
 70
0
 10
10.559502
 20
16.678732
 30
0.0
 10
9.913312
 20
15.882116
 30
0.0
 10
9.119286
 20
16.526156
 30
0.0
 10
9.765476
 20
17.322827
 30
0.0
 10
10.559502
 20
16.678732
 30
0.0
 10
10.559502
 20
16.678732
 30
0.0
  0
LWPOLYLINE
  5
122
100
AcDbEntity
  8
Layer_1
 62
7
100
AcDbPolyline
 90
6
 70
0
 10
4.652348
 20
16.513643
 30
0.0
 10
3.860913
 20
15.866296
 30
0.0
 10
3.211416
 20
16.660322
 30
0.0
 10
4.002961
 20
17.307614
 30
0.0
 10
4.652348
 20
16.513643
 30
0.0
 10
4.652348
 20
16.513643
 30
0.0
  0
LWPOLYLINE
  5
123
100
AcDbEntity
  8
Layer_1
 62
7
100
AcDbPolyline
 90
6
 70
0
 10
12.184650
 20
17.023628
 30
0.0
 10
12.029482
 20
16.013030
 30
0.0
 10
11.015577
 20
16.168693
 30
0.0
 10
11.170799
 20
17.179291
 30
0.0
 10
12.184650
 20
17.023628
 30
0.0
 10
12.184650
 20
17.023628
 30
0.0
  0
LWPOLYLINE
  5
124
100
AcDbEntity
  8
Layer_1
 62
7
100
AcDbPolyline
 90
6
 70
0
 10
7.443096
 20
17.028974
 30
0.0
 10
7.442215
 20
16.003218
 30
0.0
 10
6.419766
 20
16.003991
 30
0.0
 10
6.420593
 20
17.029748
 30
0.0
 10
7.443097
 20
17.028974
 30
0.0
 10
7.443096
 20
17.028974
 30
0.0
  0
LWPOLYLINE
  5
125
100
AcDbEntity
  8
Layer_1
 62
7
100
AcDbPolyline
 90
15
 70
0
 10
3.058509
 20
16.680662
 30
0.0
 10
3.069399
 20
16.655758
 30
0.0
 10
3.089804
 20
16.629902
 30
0.0
 10
3.133466
 20
16.577905
 30
0.0
 10
3.537515
 20
16.084026
 30
0.0
 10
2.911224
 20
16.523731
 30
0.0
 10
2.438171
 20
15.851193
 30
0.0
 10
2.633742
 20
16.791566
 30
0.0
 10
1.918706
 20
16.940229
 30
0.0
 10
2.498364
 20
16.976719
 30
0.0
 10
2.568639
 20
16.982199
 30
0.0
 10
2.638068
 20
16.973985
 30
0.0
 10
3.483055
 20
17.028094
 30
0.0
 10
3.058509
 20
16.680663
 30
0.0
 10
3.058509
 20
16.680662
 30
0.0
  0
LWPOLYLINE
  5
126
100
AcDbEntity
  8
Layer_1
 62
7
100
AcDbPolyline
 90
8
 70
0
 10
1.391468
 20
17.002957
 30
0.0
 10
1.376715
 20
16.886807
 30
0.0
 10
1.351009
 20
16.771557
 30
0.0
 10
0.717994
 20
16.950426
 30
0.0
 10
1.391358
 20
17.011336
 30
0.0
 10
1.391443
 20
17.004281
 30
0.0
 10
1.391460
 20
17.002957
 30
0.0
 10
1.391468
 20
17.002957
 30
0.0
  0
LWPOLYLINE
  5
127
100
AcDbEntity
  8
Layer_1
 62
7
100
AcDbPolyline
 90
5
 70
0
 10
6.307592
 20
16.333727
 30
0.0
 10
6.070900
 20
16.944032
 30
0.0
 10
6.308088
 20
16.977326
 30
0.0
 10
6.307592
 20
16.333727
 30
0.0
 10
6.307592
 20
16.333727
 30
0.0
  0
LWPOLYLINE
  5
128
100
AcDbEntity
  8
Layer_1
 62
7
100
AcDbPolyline
 90
5
 70
0
 10
7.788708
 20
16.935048
 30
0.0
 10
7.555489
 20
16.333121
 30
0.0
 10
7.556315
 20
16.966301
 30
0.0
 10
7.788708
 20
16.935048
 30
0.0
 10
7.788708
 20
16.935048
 30
0.0
  0
LWPOLYLINE
  5
129
100
AcDbEntity
  8
Layer_1
 62
7
100
AcDbPolyline
 90
6
 70
0
 10
6.321097
 20
15.986075
 30
0.0
 10
5.367605
 20
15.616596
 30
0.0
 10
4.996968
 20
16.573120
 30
0.0
 10
5.950350
 20
16.942599
 30
0.0
 10
6.321097
 20
15.986075
 30
0.0
 10
6.321097
 20
15.986075
 30
0.0
  0
LWPOLYLINE
  5
12a
100
AcDbEntity
  8
Layer_1
 62
7
100
AcDbPolyline
 90
6
 70
0
 10
8.865396
 20
16.572183
 30
0.0
 10
8.494539
 20
15.615769
 30
0.0
 10
7.541267
 20
15.985469
 30
0.0
 10
7.912125
 20
16.941883
 30
0.0
 10
8.865396
 20
16.572183
 30
0.0
 10
8.865396
 20
16.572183
 30
0.0
  0
LWPOLYLINE
  5
12b
100
AcDbEntity
  8
Layer_1
 62
7
100
AcDbPolyline
 90
6
 70
0
 10
1.333205
 20
16.659495
 30
0.0
 10
1.055393
 20
15.675521
 30
0.0
 10
0.068166
 20
15.954270
 30
0.0
 10
0.346034
 20
16.938245
 30
0.0
 10
1.333205
 20
16.659495
 30
0.0
 10
1.333205
 20
16.659495
 30
0.0
  0
LWPOLYLINE
  5
12c
100
AcDbEntity
  8
Layer_1
 62
7
100
AcDbPolyline
 90
6
 70
0
 10
2.500238
 20
16.704254
 30
0.0
 10
2.292099
 20
15.703192
 30
0.0
 10
1.287785
 20
15.912047
 30
0.0
 10
1.495979
 20
16.913109
 30
0.0
 10
2.500238
 20
16.704254
 30
0.0
 10
2.500238
 20
16.704254
 30
0.0
  0
LWPOLYLINE
  5
12d
100
AcDbEntity
  8
Layer_1
 62
7
100
AcDbPolyline
 90
10
 70
0
 10
5.143646
 20
15.883659
 30
0.0
 10
4.681287
 20
16.391108
 30
0.0
 10
4.768316
 20
16.456623
 30
0.0
 10
4.867071
 20
16.502953
 30
0.0
 10
4.883154
 20
16.511777
 30
0.0
 10
4.895238
 20
16.510959
 30
0.0
 10
4.910992
 20
16.489038
 30
0.0
 10
4.933949
 20
16.424576
 30
0.0
 10
5.143646
 20
15.883659
 30
0.0
 10
5.143646
 20
15.883659
 30
0.0
  0
LWPOLYLINE
  5
12e
100
AcDbEntity
  8
Layer_1
 62
7
100
AcDbPolyline
 90
8
 70
0
 10
8.964505
 20
16.489390
 30
0.0
 10
9.062020
 20
16.427871
 30
0.0
 10
9.151477
 20
16.354618
 30
0.0
 10
8.718608
 20
15.881124
 30
0.0
 10
8.956788
 20
16.492808
 30
0.0
 10
8.963239
 20
16.489951
 30
0.0
 10
8.964504
 20
16.489389
 30
0.0
 10
8.964505
 20
16.489390
 30
0.0
  0
LWPOLYLINE
  5
12f
100
AcDbEntity
  8
Layer_1
 62
7
100
AcDbPolyline
 90
6
 70
0
 10
11.425185
 20
15.552544
 30
0.0
 10
10.588495
 20
14.958941
 30
0.0
 10
9.996821
 20
15.792819
 30
0.0
 10
10.833456
 20
16.386423
 30
0.0
 10
11.425185
 20
15.552544
 30
0.0
 10
11.425185
 20
15.552544
 30
0.0
  0
LWPOLYLINE
  5
130
100
AcDbEntity
  8
Layer_1
 62
7
100
AcDbPolyline
 90
6
 70
0
 10
3.777514
 20
15.776999
 30
0.0
 10
3.189698
 20
14.940475
 30
0.0
 10
2.350363
 20
15.530220
 30
0.0
 10
2.938179
 20
16.366690
 30
0.0
 10
3.777514
 20
15.776999
 30
0.0
 10
3.777514
 20
15.776999
 30
0.0
  0
LWPOLYLINE
  5
131
100
AcDbEntity
  8
Layer_1
 62
7
100
AcDbPolyline
 90
6
 70
0
 10
5.282442
 20
15.563128
 30
0.0
 10
4.526726
 20
14.874550
 30
0.0
 10
3.835888
 20
15.632801
 30
0.0
 10
4.591714
 20
16.321380
 30
0.0
 10
5.282442
 20
15.563128
 30
0.0
 10
5.282442
 20
15.563128
 30
0.0
  0
LWPOLYLINE
  5
132
100
AcDbEntity
  8
Layer_1
 62
7
100
AcDbPolyline
 90
6
 70
0
 10
10.026366
 20
15.629935
 30
0.0
 10
9.334425
 20
14.872676
 30
0.0
 10
8.579646
 20
15.562466
 30
0.0
 10
9.271587
 20
16.319726
 30
0.0
 10
10.026366
 20
15.629935
 30
0.0
 10
10.026366
 20
15.629935
 30
0.0
  0
LWPOLYLINE
  5
133
100
AcDbEntity
  8
Layer_1
 62
7
100
AcDbPolyline
 90
6
 70
0
 10
13.838075
 20
16.127517
 30
0.0
 10
13.301742
 20
16.151881
 30
0.0
 10
13.312627
 20
16.198697
 30
0.0
 10
13.320870
 20
16.246194
 30
0.0
 10
13.838075
 20
16.127517
 30
0.0
 10
13.838075
 20
16.127517
 30
0.0
  0
LWPOLYLINE
  5
134
100
AcDbEntity
  8
Layer_1
 62
7
100
AcDbPolyline
 90
9
 70
0
 10
12.450666
 20
16.166157
 30
0.0
 10
12.642158
 20
16.128840
 30
0.0
 10
12.164861
 20
16.147471
 30
0.0
 10
12.167864
 20
16.182204
 30
0.0
 10
12.177282
 20
16.207806
 30
0.0
 10
12.197139
 20
16.218550
 30
0.0
 10
12.231461
 20
16.208705
 30
0.0
 10
12.450666
 20
16.166157
 30
0.0
 10
12.450666
 20
16.166157
 30
0.0
  0
LWPOLYLINE
  5
135
100
AcDbEntity
  8
Layer_1
 62
7
100
AcDbPolyline
 90
6
 70
0
 10
13.168183
 20
15.994950
 30
0.0
 10
13.127834
 20
14.973327
 30
0.0
 10
12.102794
 20
15.013842
 30
0.0
 10
12.143198
 20
16.035464
 30
0.0
 10
13.168183
 20
15.994950
 30
0.0
 10
13.168183
 20
15.994950
 30
0.0
  0
LWPOLYLINE
  5
136
100
AcDbEntity
  8
Layer_1
 62
7
100
AcDbPolyline
 90
18
 70
0
 10
12.024301
 20
15.899369
 30
0.0
 10
11.994418
 20
15.097335
 30
0.0
 10
11.988032
 20
14.999331
 30
0.0
 10
11.993320
 20
14.950829
 30
0.0
 10
12.009198
 20
14.904426
 30
0.0
 10
12.593210
 20
14.881440
 30
0.0
 10
11.988527
 20
14.813310
 30
0.0
 10
12.043814
 20
14.325594
 30
0.0
 10
11.679571
 20
15.341594
 30
0.0
 10
10.957038
 20
15.082137
 30
0.0
 10
11.529806
 20
15.490147
 30
0.0
 10
11.550067
 20
15.515233
 30
0.0
 10
11.556171
 20
15.545441
 30
0.0
 10
11.548876
 20
15.575821
 30
0.0
 10
11.528945
 20
15.601425
 30
0.0
 10
11.230992
 20
16.020912
 30
0.0
 10
12.024301
 20
15.899369
 30
0.0
 10
12.024301
 20
15.899369
 30
0.0
  0
LWPOLYLINE
  5
137
100
AcDbEntity
  8
Layer_1
 62
7
100
AcDbPolyline
 90
6
 70
0
 10
6.905826
 20
14.919749
 30
0.0
 10
5.923781
 20
14.635157
 30
0.0
 10
5.638307
 20
15.620399
 30
0.0
 10
6.620352
 20
15.904936
 30
0.0
 10
6.905826
 20
14.919749
 30
0.0
 10
6.905826
 20
14.919749
 30
0.0
  0
LWPOLYLINE
  5
138
100
AcDbEntity
  8
Layer_1
 62
7
100
AcDbPolyline
 90
6
 70
0
 10
8.239657
 20
15.612133
 30
0.0
 10
7.947954
 20
14.628709
 30
0.0
 10
6.967672
 20
14.919420
 30
0.0
 10
7.259376
 20
15.902898
 30
0.0
 10
8.239657
 20
15.612133
 30
0.0
 10
8.239657
 20
15.612133
 30
0.0
  0
LWPOLYLINE
  5
139
100
AcDbEntity
  8
Layer_1
 62
7
100
AcDbPolyline
 90
5
 70
0
 10
7.137998
 20
15.890496
 30
0.0
 10
6.937852
 20
15.215809
 30
0.0
 10
6.742446
 20
15.890882
 30
0.0
 10
7.137998
 20
15.890495
 30
0.0
 10
7.137998
 20
15.890496
 30
0.0
  0
LWPOLYLINE
  5
13a
100
AcDbEntity
  8
Layer_1
 62
7
100
AcDbPolyline
 90
6
 70
0
 10
2.157162
 20
15.323737
 30
0.0
 10
1.685321
 20
14.416712
 30
0.0
 10
0.775375
 20
14.890096
 30
0.0
 10
1.247216
 20
15.797065
 30
0.0
 10
2.157162
 20
15.323737
 30
0.0
 10
2.157162
 20
15.323737
 30
0.0
  0
LWPOLYLINE
  5
13b
100
AcDbEntity
  8
Layer_1
 62
7
100
AcDbPolyline
 90
5
 70
0
 10
1.003578
 20
15.573107
 30
0.0
 10
0.888870
 20
15.352841
 30
0.0
 10
0.353971
 20
15.756661
 30
0.0
 10
1.003578
 20
15.573107
 30
0.0
 10
1.003578
 20
15.573107
 30
0.0
  0
LWPOLYLINE
  5
13c
100
AcDbEntity
  8
Layer_1
 62
7
100
AcDbPolyline
 90
12
 70
0
 10
2.258751
 20
15.595210
 30
0.0
 10
2.225760
 20
15.549253
 30
0.0
 10
2.195085
 20
15.501779
 30
0.0
 10
2.821266
 20
15.061523
 30
0.0
 10
2.252026
 20
15.261064
 30
0.0
 10
2.271543
 20
15.293703
 30
0.0
 10
2.284650
 20
15.331573
 30
0.0
 10
2.283326
 20
15.368420
 30
0.0
 10
2.259549
 20
15.397993
 30
0.0
 10
1.629593
 20
15.726179
 30
0.0
 10
2.258751
 20
15.595210
 30
0.0
 10
2.258751
 20
15.595210
 30
0.0
  0
LWPOLYLINE
  5
13d
100
AcDbEntity
  8
Layer_1
 62
7
100
AcDbPolyline
 90
7
 70
0
 10
5.739014
 20
14.867551
 30
0.0
 10
5.202461
 20
15.337076
 30
0.0
 10
5.297516
 20
15.424480
 30
0.0
 10
5.395977
 20
15.506381
 30
0.0
 10
5.538041
 20
15.561421
 30
0.0
 10
5.739014
 20
14.867551
 30
0.0
 10
5.739014
 20
14.867551
 30
0.0
  0
LWPOLYLINE
  5
13e
100
AcDbEntity
  8
Layer_1
 62
7
100
AcDbPolyline
 90
8
 70
0
 10
8.346703
 20
15.555247
 30
0.0
 10
8.439095
 20
15.516162
 30
0.0
 10
8.522464
 20
15.460179
 30
0.0
 10
8.672581
 20
15.324729
 30
0.0
 10
8.134650
 20
14.860992
 30
0.0
 10
8.340254
 20
15.556956
 30
0.0
 10
8.346703
 20
15.555248
 30
0.0
 10
8.346703
 20
15.555247
 30
0.0
  0
LWPOLYLINE
  5
13f
100
AcDbEntity
  8
Layer_1
 62
7
100
AcDbPolyline
 90
5
 70
0
 10
4.220471
 20
15.043278
 30
0.0
 10
3.613142
 20
15.346116
 30
0.0
 10
3.757285
 20
15.551554
 30
0.0
 10
4.220471
 20
15.043278
 30
0.0
 10
4.220471
 20
15.043278
 30
0.0
  0
LWPOLYLINE
  5
140
100
AcDbEntity
  8
Layer_1
 62
7
100
AcDbPolyline
 90
5
 70
0
 10
10.196251
 20
15.317177
 30
0.0
 10
9.640901
 20
15.041073
 30
0.0
 10
10.063739
 20
15.503819
 30
0.0
 10
10.196251
 20
15.317177
 30
0.0
 10
10.196251
 20
15.317177
 30
0.0
  0
LWPOLYLINE
  5
141
100
AcDbEntity
  8
Layer_1
 62
7
100
AcDbPolyline
 90
6
 70
0
 10
5.872022
 20
14.601369
 30
0.0
 10
5.198878
 20
13.831762
 30
0.0
 10
4.426735
 20
14.507056
 30
0.0
 10
5.099879
 20
15.276718
 30
0.0
 10
5.872022
 20
14.601369
 30
0.0
 10
5.872022
 20
14.601369
 30
0.0
  0
LWPOLYLINE
  5
142
100
AcDbEntity
  8
Layer_1
 62
7
100
AcDbPolyline
 90
6
 70
0
 10
9.444117
 20
14.490961
 30
0.0
 10
8.667400
 20
13.821014
 30
0.0
 10
7.999713
 20
14.595196
 30
0.0
 10
8.776320
 20
15.265143
 30
0.0
 10
9.444117
 20
14.490961
 30
0.0
 10
9.444117
 20
14.490961
 30
0.0
  0
LWPOLYLINE
  5
143
100
AcDbEntity
  8
Layer_1
 62
7
100
AcDbPolyline
 90
6
 70
0
 10
4.465651
 20
14.794625
 30
0.0
 10
4.009796
 20
13.879498
 30
0.0
 10
3.091637
 20
14.336896
 30
0.0
 10
3.547602
 20
15.252023
 30
0.0
 10
4.465651
 20
14.794625
 30
0.0
 10
4.465651
 20
14.794625
 30
0.0
  0
LWPOLYLINE
  5
144
100
AcDbEntity
  8
Layer_1
 62
7
100
AcDbPolyline
 90
6
 70
0
 10
10.769074
 20
14.334195
 30
0.0
 10
9.850804
 20
13.877237
 30
0.0
 10
9.395335
 20
14.792586
 30
0.0
 10
10.313605
 20
15.249543
 30
0.0
 10
10.769074
 20
14.334195
 30
0.0
 10
10.769074
 20
14.334195
 30
0.0
  0
LWPOLYLINE
  5
145
100
AcDbEntity
  8
Layer_1
 62
7
100
AcDbPolyline
 90
6
 70
0
 10
11.956116
 20
14.234535
 30
0.0
 10
10.990497
 20
13.888372
 30
0.0
 10
10.645381
 20
14.850849
 30
0.0
 10
11.611110
 20
15.197012
 30
0.0
 10
11.956116
 20
14.234535
 30
0.0
 10
11.956116
 20
14.234535
 30
0.0
  0
LWPOLYLINE
  5
146
100
AcDbEntity
  8
Layer_1
 62
7
100
AcDbPolyline
 90
6
 70
0
 10
3.133860
 20
14.832053
 30
0.0
 10
2.795028
 20
13.867371
 30
0.0
 10
1.827149
 20
14.207305
 30
0.0
 10
2.166036
 20
15.171987
 30
0.0
 10
3.133860
 20
14.832053
 30
0.0
 10
3.133860
 20
14.832053
 30
0.0
  0
LWPOLYLINE
  5
147
100
AcDbEntity
  8
Layer_1
 62
7
100
AcDbPolyline
 90
9
 70
0
 10
13.306538
 20
14.899411
 30
0.0
 10
13.776339
 20
14.880504
 30
0.0
 10
13.290663
 20
14.815626
 30
0.0
 10
13.254878
 20
14.810767
 30
0.0
 10
13.243801
 20
14.821183
 30
0.0
 10
13.243909
 20
14.841092
 30
0.0
 10
13.238959
 20
14.900514
 30
0.0
 10
13.306538
 20
14.899410
 30
0.0
 10
13.306538
 20
14.899411
 30
0.0
  0
LWPOLYLINE
  5
148
100
AcDbEntity
  8
Layer_1
 62
7
100
AcDbPolyline
 90
6
 70
0
 10
13.247778
 20
13.813021
 30
0.0
 10
12.228416
 20
13.697652
 30
0.0
 10
12.113488
 20
14.713652
 30
0.0
 10
13.132740
 20
14.829021
 30
0.0
 10
13.247778
 20
13.813021
 30
0.0
 10
13.247778
 20
13.813021
 30
0.0
  0
LWPOLYLINE
  5
149
100
AcDbEntity
  8
Layer_1
 62
7
100
AcDbPolyline
 90
6
 70
0
 10
1.452929
 20
14.089345
 30
0.0
 10
0.753823
 20
13.343275
 30
0.0
 10
0.005658
 20
14.044972
 30
0.0
 10
0.704434
 20
14.790712
 30
0.0
 10
1.452929
 20
14.089345
 30
0.0
 10
1.452929
 20
14.089345
 30
0.0
  0
LWPOLYLINE
  5
14a
100
AcDbEntity
  8
Layer_1
 62
7
100
AcDbPolyline
 90
8
 70
0
 10
7.438796
 20
14.737685
 30
0.0
 10
7.438796
 20
13.713637
 30
0.0
 10
6.420757
 20
13.711927
 30
0.0
 10
6.415795
 20
13.805941
 30
0.0
 10
6.416347
 20
13.903915
 30
0.0
 10
6.416347
 20
14.737683
 30
0.0
 10
7.438796
 20
14.737683
 30
0.0
 10
7.438796
 20
14.737685
 30
0.0
  0
LWPOLYLINE
  5
14b
100
AcDbEntity
  8
Layer_1
 62
7
100
AcDbPolyline
 90
6
 70
0
 10
7.913062
 20
14.521222
 30
0.0
 10
8.282266
 20
14.094637
 30
0.0
 10
7.551906
 20
13.854858
 30
0.0
 10
7.551906
 20
14.628103
 30
0.0
 10
7.913062
 20
14.521222
 30
0.0
 10
7.913062
 20
14.521222
 30
0.0
  0
LWPOLYLINE
  5
14c
100
AcDbEntity
  8
Layer_1
 62
7
100
AcDbPolyline
 90
6
 70
0
 10
6.303844
 20
13.854638
 30
0.0
 10
5.577122
 20
14.092597
 30
0.0
 10
5.959224
 20
14.527341
 30
0.0
 10
6.303844
 20
14.627166
 30
0.0
 10
6.303844
 20
13.854638
 30
0.0
 10
6.303844
 20
13.854638
 30
0.0
  0
LWPOLYLINE
  5
14d
100
AcDbEntity
  8
Layer_1
 62
7
100
AcDbPolyline
 90
26
 70
0
 10
1.420518
 20
14.426854
 30
0.0
 10
1.495889
 20
14.390457
 30
0.0
 10
1.568968
 20
14.347960
 30
0.0
 10
1.643724
 20
14.310293
 30
0.0
 10
1.724127
 20
14.288389
 30
0.0
 10
1.732286
 20
14.286726
 30
0.0
 10
1.734385
 20
14.279896
 30
0.0
 10
1.726621
 20
14.256016
 30
0.0
 10
1.706770
 20
14.204375
 30
0.0
 10
1.693326
 20
14.173154
 30
0.0
 10
1.690391
 20
14.146966
 30
0.0
 10
1.703185
 20
14.128326
 30
0.0
 10
1.736928
 20
14.119755
 30
0.0
 10
2.405705
 20
13.884514
 30
0.0
 10
1.642988
 20
13.934785
 30
0.0
 10
1.560967
 20
12.693062
 30
0.0
 10
1.038746
 20
13.387869
 30
0.0
 10
0.998672
 20
13.437919
 30
0.0
 10
1.565928
 20
14.043374
 30
0.0
 10
1.581746
 20
14.070920
 30
0.0
 10
1.585150
 20
14.101856
 30
0.0
 10
1.575276
 20
14.130748
 30
0.0
 10
1.551265
 20
14.152162
 30
0.0
 10
1.055062
 20
14.617134
 30
0.0
 10
1.420518
 20
14.426854
 30
0.0
 10
1.420518
 20
14.426854
 30
0.0
  0
LWPOLYLINE
  5
14e
100
AcDbEntity
  8
Layer_1
 62
7
100
AcDbPolyline
 90
5
 70
0
 10
4.918254
 20
13.928060
 30
0.0
 10
4.212919
 20
14.032901
 30
0.0
 10
4.390521
 20
14.389537
 30
0.0
 10
4.918254
 20
13.928060
 30
0.0
 10
4.918254
 20
13.928060
 30
0.0
  0
LWPOLYLINE
  5
14f
100
AcDbEntity
  8
Layer_1
 62
7
100
AcDbPolyline
 90
5
 70
0
 10
9.655839
 20
14.015703
 30
0.0
 10
8.951166
 20
13.915657
 30
0.0
 10
9.479009
 20
14.371347
 30
0.0
 10
9.655839
 20
14.015703
 30
0.0
 10
9.655839
 20
14.015703
 30
0.0
  0
LWPOLYLINE
  5
150
100
AcDbEntity
  8
Layer_1
 62
7
100
AcDbPolyline
 90
5
 70
0
 10
3.664295
 20
13.925359
 30
0.0
 10
2.958243
 20
13.990567
 30
0.0
 10
3.044067
 20
14.234535
 30
0.0
 10
3.664295
 20
13.925359
 30
0.0
 10
3.664295
 20
13.925359
 30
0.0
  0
LWPOLYLINE
  5
151
100
AcDbEntity
  8
Layer_1
 62
7
100
AcDbPolyline
 90
5
 70
0
 10
10.837810
 20
13.980480
 30
0.0
 10
10.196361
 20
13.922492
 30
0.0
 10
10.758490
 20
14.202289
 30
0.0
 10
10.837810
 20
13.980480
 30
0.0
 10
10.837810
 20
13.980480
 30
0.0
  0
LWPOLYLINE
  5
152
100
AcDbEntity
  8
Layer_1
 62
7
100
AcDbPolyline
 90
5
 70
0
 10
12.085541
 20
13.957054
 30
0.0
 10
11.378607
 20
13.907665
 30
0.0
 10
12.063327
 20
14.153231
 30
0.0
 10
12.085541
 20
13.957054
 30
0.0
 10
12.085541
 20
13.957054
 30
0.0
  0
LWPOLYLINE
  5
153
100
AcDbEntity
  8
Layer_1
 62
7
100
AcDbPolyline
 90
6
 70
0
 10
8.744460
 20
13.051131
 30
0.0
 10
7.769911
 20
12.731371
 30
0.0
 10
7.452907
 20
13.703384
 30
0.0
 10
8.425692
 20
14.022593
 30
0.0
 10
8.744460
 20
13.051131
 30
0.0
 10
8.744460
 20
13.051131
 30
0.0
  0
LWPOLYLINE
  5
154
100
AcDbEntity
  8
Layer_1
 62
7
100
AcDbPolyline
 90
10
 70
0
 10
6.402236
 20
13.703164
 30
0.0
 10
6.106365
 20
12.792597
 30
0.0
 10
6.098382
 20
12.758115
 30
0.0
 10
6.081713
 20
12.739664
 30
0.0
 10
6.056890
 20
12.737310
 30
0.0
 10
6.024440
 20
12.751120
 30
0.0
 10
5.111345
 20
13.049919
 30
0.0
 10
5.429451
 20
14.021601
 30
0.0
 10
6.402236
 20
13.703164
 30
0.0
 10
6.402236
 20
13.703164
 30
0.0
  0
LWPOLYLINE
  5
155
100
AcDbEntity
  8
Layer_1
 62
7
100
AcDbPolyline
 90
6
 70
0
 10
5.173467
 20
13.775648
 30
0.0
 10
5.022930
 20
12.764389
 30
0.0
 10
4.008473
 20
12.915422
 30
0.0
 10
4.159010
 20
13.926682
 30
0.0
 10
5.173467
 20
13.775648
 30
0.0
 10
5.173467
 20
13.775648
 30
0.0
  0
LWPOLYLINE
  5
156
100
AcDbEntity
  8
Layer_1
 62
7
100
AcDbPolyline
 90
6
 70
0
 10
9.853009
 20
12.896846
 30
0.0
 10
8.837395
 20
12.752924
 30
0.0
 10
8.694024
 20
13.765231
 30
0.0
 10
9.709528
 20
13.909153
 30
0.0
 10
9.853009
 20
12.896846
 30
0.0
 10
9.853009
 20
12.896846
 30
0.0
  0
LWPOLYLINE
  5
157
100
AcDbEntity
  8
Layer_1
 62
7
100
AcDbPolyline
 90
6
 70
0
 10
3.983228
 20
13.782704
 30
0.0
 10
3.889190
 20
12.764554
 30
0.0
 10
2.867788
 20
12.858922
 30
0.0
 10
2.961826
 20
13.877072
 30
0.0
 10
3.983228
 20
13.782704
 30
0.0
 10
3.983228
 20
13.782704
 30
0.0
  0
LWPOLYLINE
  5
158
100
AcDbEntity
  8
Layer_1
 62
7
100
AcDbPolyline
 90
6
 70
0
 10
10.992095
 20
12.854898
 30
0.0
 10
9.970583
 20
12.762570
 30
0.0
 10
9.878475
 20
13.780885
 30
0.0
 10
10.900042
 20
13.873214
 30
0.0
 10
10.992095
 20
12.854898
 30
0.0
 10
10.992095
 20
12.854898
 30
0.0
  0
LWPOLYLINE
  5
159
100
AcDbEntity
  8
Layer_1
 62
7
100
AcDbPolyline
 90
6
 70
0
 10
12.109905
 20
12.820337
 30
0.0
 10
11.086629
 20
12.749176
 30
0.0
 10
11.015687
 20
13.769089
 30
0.0
 10
12.038908
 20
13.840306
 30
0.0
 10
12.109905
 20
12.820337
 30
0.0
 10
12.109905
 20
12.820337
 30
0.0
  0
LWPOLYLINE
  5
15a
100
AcDbEntity
  8
Layer_1
 62
7
100
AcDbPolyline
 90
6
 70
0
 10
2.771160
 20
13.747426
 30
0.0
 10
2.703857
 20
12.727237
 30
0.0
 10
1.680416
 20
12.794706
 30
0.0
 10
1.747609
 20
13.814895
 30
0.0
 10
2.771160
 20
13.747426
 30
0.0
 10
2.771160
 20
13.747426
 30
0.0
  0
LWPOLYLINE
  5
15b
100
AcDbEntity
  8
Layer_1
 62
7
100
AcDbPolyline
 90
6
 70
0
 10
8.618287
 20
13.721244
 30
0.0
 10
8.616490
 20
13.716612
 30
0.0
 10
8.613475
 20
13.718941
 30
0.0
 10
8.612866
 20
13.722422
 30
0.0
 10
8.618287
 20
13.721244
 30
0.0
 10
8.618287
 20
13.721244
 30
0.0
  0
LWPOLYLINE
  5
15c
100
AcDbEntity
  8
Layer_1
 62
7
100
AcDbPolyline
 90
5
 70
0
 10
0.687787
 20
13.250616
 30
0.0
 10
0.544251
 20
13.141696
 30
0.0
 10
0.201340
 20
13.706471
 30
0.0
 10
0.687787
 20
13.250616
 30
0.0
 10
0.687787
 20
13.250616
 30
0.0
  0
LWPOLYLINE
  5
15d
100
AcDbEntity
  8
Layer_1
 62
7
100
AcDbPolyline
 90
6
 70
0
 10
13.544442
 20
12.685235
 30
0.0
 10
12.554956
 20
12.414753
 30
0.0
 10
12.285302
 20
13.401043
 30
0.0
 10
13.274788
 20
13.671524
 30
0.0
 10
13.544442
 20
12.685235
 30
0.0
 10
13.544442
 20
12.685235
 30
0.0
  0
LWPOLYLINE
  5
15e
100
AcDbEntity
  8
Layer_1
 62
7
100
AcDbPolyline
 90
6
 70
0
 10
7.654156
 20
12.933612
 30
0.0
 10
6.931017
 20
12.210749
 30
0.0
 10
6.205838
 20
12.936148
 30
0.0
 10
6.928922
 20
13.659011
 30
0.0
 10
7.654156
 20
12.933612
 30
0.0
 10
7.654156
 20
12.933612
 30
0.0
  0
LWPOLYLINE
  5
15f
100
AcDbEntity
  8
Layer_1
 62
7
100
AcDbPolyline
 90
6
 70
0
 10
13.446271
 20
13.483725
 30
0.0
 10
13.430883
 20
13.527754
 30
0.0
 10
13.420474
 20
13.573463
 30
0.0
 10
13.941924
 20
13.643247
 30
0.0
 10
13.446271
 20
13.483725
 30
0.0
 10
13.446271
 20
13.483725
 30
0.0
  0
LWPOLYLINE
  5
160
100
AcDbEntity
  8
Layer_1
 62
7
100
AcDbPolyline
 90
10
 70
0
 10
12.195839
 20
13.493647
 30
0.0
 10
12.178252
 20
13.493754
 30
0.0
 10
12.172727
 20
13.510620
 30
0.0
 10
12.173791
 20
13.552131
 30
0.0
 10
12.174846
 20
13.572752
 30
0.0
 10
12.190404
 20
13.580537
 30
0.0
 10
12.235415
 20
13.584706
 30
0.0
 10
12.739448
 20
13.642089
 30
0.0
 10
12.195839
 20
13.493647
 30
0.0
 10
12.195839
 20
13.493647
 30
0.0
  0
LWPOLYLINE
  5
161
100
AcDbEntity
  8
Layer_1
 62
7
100
AcDbPolyline
 90
5
 70
0
 10
6.709649
 20
13.599095
 30
0.0
 10
6.382999
 20
13.272499
 30
0.0
 10
6.489714
 20
13.599095
 30
0.0
 10
6.709649
 20
13.599095
 30
0.0
 10
6.709649
 20
13.599095
 30
0.0
  0
LWPOLYLINE
  5
162
100
AcDbEntity
  8
Layer_1
 62
7
100
AcDbPolyline
 90
5
 70
0
 10
7.366367
 20
13.599095
 30
0.0
 10
7.472310
 20
13.275862
 30
0.0
 10
7.149133
 20
13.599095
 30
0.0
 10
7.366367
 20
13.599095
 30
0.0
 10
7.366367
 20
13.599095
 30
0.0
  0
LWPOLYLINE
  5
163
100
AcDbEntity
  8
Layer_1
 62
7
100
AcDbPolyline
 90
6
 70
0
 10
1.572047
 20
12.490380
 30
0.0
 10
0.755091
 20
11.875610
 30
0.0
 10
0.138225
 20
12.695267
 30
0.0
 10
0.955292
 20
13.310037
 30
0.0
 10
1.572047
 20
12.490380
 30
0.0
 10
1.572047
 20
12.490380
 30
0.0
  0
LWPOLYLINE
  5
164
100
AcDbEntity
  8
Layer_1
 62
7
100
AcDbPolyline
 90
6
 70
0
 10
8.726711
 20
12.731426
 30
0.0
 10
8.395651
 20
12.019642
 30
0.0
 10
7.932024
 20
12.665391
 30
0.0
 10
8.700363
 20
12.917186
 30
0.0
 10
8.726711
 20
12.731426
 30
0.0
 10
8.726711
 20
12.731426
 30
0.0
  0
LWPOLYLINE
  5
165
100
AcDbEntity
  8
Layer_1
 62
7
100
AcDbPolyline
 90
9
 70
0
 10
5.915733
 20
12.667651
 30
0.0
 10
5.455303
 20
12.039045
 30
0.0
 10
5.174834
 20
12.654194
 30
0.0
 10
5.149107
 20
12.715997
 30
0.0
 10
5.141939
 20
12.782087
 30
0.0
 10
5.147460
 20
12.849483
 30
0.0
 10
5.159797
 20
12.915201
 30
0.0
 10
5.915733
 20
12.667651
 30
0.0
 10
5.915733
 20
12.667651
 30
0.0
  0
LWPOLYLINE
  5
166
100
AcDbEntity
  8
Layer_1
 62
7
100
AcDbPolyline
 90
9
 70
0
 10
4.733266
 20
12.693007
 30
0.0
 10
4.089502
 20
12.403398
 30
0.0
 10
3.999368
 20
12.729302
 30
0.0
 10
4.000183
 20
12.764108
 30
0.0
 10
4.008035
 20
12.789945
 30
0.0
 10
4.027180
 20
12.801386
 30
0.0
 10
4.061877
 20
12.793005
 30
0.0
 10
4.733266
 20
12.693007
 30
0.0
 10
4.733266
 20
12.693007
 30
0.0
  0
LWPOLYLINE
  5
167
100
AcDbEntity
  8
Layer_1
 62
7
100
AcDbPolyline
 90
8
 70
0
 10
9.854111
 20
12.764885
 30
0.0
 10
9.842224
 20
12.662613
 30
0.0
 10
9.817512
 20
12.563084
 30
0.0
 10
9.758035
 20
12.366026
 30
0.0
 10
9.095639
 20
12.675478
 30
0.0
 10
9.854056
 20
12.784839
 30
0.0
 10
9.854113
 20
12.764885
 30
0.0
 10
9.854111
 20
12.764885
 30
0.0
  0
LWPOLYLINE
  5
168
100
AcDbEntity
  8
Layer_1
 62
7
100
AcDbPolyline
 90
4
 70
0
 10
6.216752
 20
12.766595
 30
0.0
 10
6.226840
 20
12.757616
 30
0.0
 10
6.216752
 20
12.766595
 30
0.0
 10
6.216752
 20
12.766595
 30
0.0
  0
LWPOLYLINE
  5
169
100
AcDbEntity
  8
Layer_1
 62
7
100
AcDbPolyline
 90
7
 70
0
 10
3.550634
 20
12.682811
 30
0.0
 10
2.853953
 20
12.484263
 30
0.0
 10
2.825604
 20
12.615881
 30
0.0
 10
2.818084
 20
12.682533
 30
0.0
 10
2.820770
 20
12.749949
 30
0.0
 10
3.550634
 20
12.682811
 30
0.0
 10
3.550634
 20
12.682811
 30
0.0
  0
LWPOLYLINE
  5
16a
100
AcDbEntity
  8
Layer_1
 62
7
100
AcDbPolyline
 90
8
 70
0
 10
10.974511
 20
12.732034
 30
0.0
 10
10.962766
 20
12.620946
 30
0.0
 10
10.938848
 20
12.511493
 30
0.0
 10
10.334495
 20
12.682204
 30
0.0
 10
10.974126
 20
12.739972
 30
0.0
 10
10.974467
 20
12.732924
 30
0.0
 10
10.974524
 20
12.732035
 30
0.0
 10
10.974511
 20
12.732034
 30
0.0
  0
LWPOLYLINE
  5
16b
100
AcDbEntity
  8
Layer_1
 62
7
100
AcDbPolyline
 90
7
 70
0
 10
6.095430
 20
12.712962
 30
0.0
 10
6.915031
 20
12.110704
 30
0.0
 10
6.309466
 20
11.284488
 30
0.0
 10
5.484793
 20
11.888950
 30
0.0
 10
6.090083
 20
12.714781
 30
0.0
 10
6.095430
 20
12.712961
 30
0.0
 10
6.095430
 20
12.712962
 30
0.0
  0
LWPOLYLINE
  5
16c
100
AcDbEntity
  8
Layer_1
 62
7
100
AcDbPolyline
 90
6
 70
0
 10
8.359877
 20
11.874564
 30
0.0
 10
7.529030
 20
11.278755
 30
0.0
 10
6.932395
 20
12.110594
 30
0.0
 10
7.762029
 20
12.708111
 30
0.0
 10
8.359877
 20
11.874564
 30
0.0
 10
8.359877
 20
11.874564
 30
0.0
  0
LWPOLYLINE
  5
16d
100
AcDbEntity
  8
Layer_1
 62
7
100
AcDbPolyline
 90
6
 70
0
 10
5.450728
 20
11.770935
 30
0.0
 10
4.515481
 20
11.349917
 30
0.0
 10
4.095786
 20
12.282243
 30
0.0
 10
5.031143
 20
12.703205
 30
0.0
 10
5.450728
 20
11.770935
 30
0.0
 10
5.450728
 20
11.770935
 30
0.0
  0
LWPOLYLINE
  5
16e
100
AcDbEntity
  8
Layer_1
 62
7
100
AcDbPolyline
 90
6
 70
0
 10
1.567802
 20
12.689150
 30
0.0
 10
2.324952
 20
12.638934
 30
0.0
 10
1.700755
 20
12.507359
 30
0.0
 10
1.563668
 20
12.689425
 30
0.0
 10
1.567802
 20
12.689143
 30
0.0
 10
1.567802
 20
12.689150
 30
0.0
  0
LWPOLYLINE
  5
16f
100
AcDbEntity
  8
Layer_1
 62
7
100
AcDbPolyline
 90
6
 70
0
 10
9.755995
 20
12.242335
 30
0.0
 10
9.323291
 20
11.315962
 30
0.0
 10
8.393832
 20
11.750044
 30
0.0
 10
8.826536
 20
12.676417
 30
0.0
 10
9.755995
 20
12.242335
 30
0.0
 10
9.755995
 20
12.242335
 30
0.0
  0
LWPOLYLINE
  5
170
100
AcDbEntity
  8
Layer_1
 62
7
100
AcDbPolyline
 90
6
 70
0
 10
10.949652
 20
12.391328
 30
0.0
 10
10.671894
 20
11.407354
 30
0.0
 10
9.684723
 20
11.686048
 30
0.0
 10
9.962480
 20
12.670022
 30
0.0
 10
10.949652
 20
12.391328
 30
0.0
 10
10.949652
 20
12.391328
 30
0.0
  0
LWPOLYLINE
  5
171
100
AcDbEntity
  8
Layer_1
 62
7
100
AcDbPolyline
 90
6
 70
0
 10
4.177752
 20
11.681032
 30
0.0
 10
3.191297
 20
11.400022
 30
0.0
 10
2.911169
 20
12.383335
 30
0.0
 10
3.897734
 20
12.664345
 30
0.0
 10
4.177752
 20
11.681032
 30
0.0
 10
4.177752
 20
11.681032
 30
0.0
  0
LWPOLYLINE
  5
172
100
AcDbEntity
  8
Layer_1
 62
7
100
AcDbPolyline
 90
6
 70
0
 10
12.083005
 20
12.420983
 30
0.0
 10
11.877567
 20
11.419315
 30
0.0
 10
10.872647
 20
11.625414
 30
0.0
 10
11.078085
 20
12.627028
 30
0.0
 10
12.083005
 20
12.420983
 30
0.0
 10
12.083005
 20
12.420983
 30
0.0
  0
LWPOLYLINE
  5
173
100
AcDbEntity
  8
Layer_1
 62
7
100
AcDbPolyline
 90
6
 70
0
 10
2.922965
 20
11.604964
 30
0.0
 10
1.919202
 20
11.393243
 30
0.0
 10
1.708197
 20
12.393698
 30
0.0
 10
2.711905
 20
12.605420
 30
0.0
 10
2.922965
 20
11.604964
 30
0.0
 10
2.922965
 20
11.604964
 30
0.0
  0
LWPOLYLINE
  5
174
100
AcDbEntity
  8
Layer_1
 62
7
100
AcDbPolyline
 90
14
 70
0
 10
1.830787
 20
11.266243
 30
0.0
 10
1.855892
 20
11.263730
 30
0.0
 10
1.886665
 20
11.269843
 30
0.0
 10
1.949561
 20
11.284120
 30
0.0
 10
2.584023
 20
11.418157
 30
0.0
 10
1.903492
 20
11.062458
 30
0.0
 10
2.014783
 20
10.850406
 30
0.0
 10
1.653737
 20
11.154732
 30
0.0
 10
1.334032
 20
10.776267
 30
0.0
 10
1.606498
 20
11.189679
 30
0.0
 10
0.766997
 20
11.743154
 30
0.0
 10
1.598340
 20
12.369004
 30
0.0
 10
1.830787
 20
11.266243
 30
0.0
 10
1.830787
 20
11.266243
 30
0.0
  0
LWPOLYLINE
  5
175
100
AcDbEntity
  8
Layer_1
 62
7
100
AcDbPolyline
 90
8
 70
0
 10
6.979634
 20
11.852184
 30
0.0
 10
7.407101
 20
11.260179
 30
0.0
 10
6.995632
 20
11.256651
 30
0.0
 10
6.584192
 20
11.260292
 30
0.0
 10
6.433876
 20
11.262773
 30
0.0
 10
6.923189
 20
11.930405
 30
0.0
 10
6.979634
 20
11.852187
 30
0.0
 10
6.979634
 20
11.852184
 30
0.0
  0
LWPOLYLINE
  5
176
100
AcDbEntity
  8
Layer_1
 62
7
100
AcDbPolyline
 90
6
 70
0
 10
6.347500
 20
11.165480
 30
0.0
 10
5.787190
 20
10.306246
 30
0.0
 10
4.930822
 20
10.864737
 30
0.0
 10
5.491077
 20
11.723972
 30
0.0
 10
6.347500
 20
11.165480
 30
0.0
 10
6.347500
 20
11.165480
 30
0.0
  0
LWPOLYLINE
  5
177
100
AcDbEntity
  8
Layer_1
 62
7
100
AcDbPolyline
 90
6
 70
0
 10
1.450063
 20
11.157929
 30
0.0
 10
0.885784
 20
10.301340
 30
0.0
 10
0.031896
 20
10.863855
 30
0.0
 10
0.596230
 20
11.720444
 30
0.0
 10
1.450063
 20
11.157929
 30
0.0
 10
1.450063
 20
11.157929
 30
0.0
  0
LWPOLYLINE
  5
178
100
AcDbEntity
  8
Layer_1
 62
7
100
AcDbPolyline
 90
6
 70
0
 10
8.900730
 20
10.836901
 30
0.0
 10
8.036314
 20
10.290702
 30
0.0
 10
7.488350
 20
11.157929
 30
0.0
 10
8.352711
 20
11.704073
 30
0.0
 10
8.900730
 20
10.836901
 30
0.0
 10
8.900730
 20
10.836901
 30
0.0
  0
LWPOLYLINE
  5
179
100
AcDbEntity
  8
Layer_1
 62
7
100
AcDbPolyline
 90
6
 70
0
 10
10.459015
 20
10.978618
 30
0.0
 10
9.843252
 20
10.162324
 30
0.0
 10
9.024312
 20
10.780015
 30
0.0
 10
9.640074
 20
11.596310
 30
0.0
 10
10.459015
 20
10.978618
 30
0.0
 10
10.459015
 20
10.978618
 30
0.0
  0
LWPOLYLINE
  5
17a
100
AcDbEntity
  8
Layer_1
 62
7
100
AcDbPolyline
 90
6
 70
0
 10
4.840092
 20
10.775991
 30
0.0
 10
4.022033
 20
10.157253
 30
0.0
 10
3.405168
 20
10.972720
 30
0.0
 10
4.223337
 20
11.591515
 30
0.0
 10
4.840092
 20
10.775991
 30
0.0
 10
4.840092
 20
10.775991
 30
0.0
  0
LWPOLYLINE
  5
17b
100
AcDbEntity
  8
Layer_1
 62
7
100
AcDbPolyline
 90
5
 70
0
 10
4.851392
 20
10.949073
 30
0.0
 10
4.609739
 20
11.268282
 30
0.0
 10
5.246503
 20
11.554638
 30
0.0
 10
4.851392
 20
10.949073
 30
0.0
 10
4.851392
 20
10.949073
 30
0.0
  0
LWPOLYLINE
  5
17c
100
AcDbEntity
  8
Layer_1
 62
7
100
AcDbPolyline
 90
5
 70
0
 10
9.227821
 20
11.236422
 30
0.0
 10
8.985451
 20
10.914347
 30
0.0
 10
8.595742
 20
11.531046
 30
0.0
 10
9.227821
 20
11.236422
 30
0.0
 10
9.227821
 20
11.236422
 30
0.0
  0
LWPOLYLINE
  5
17d
100
AcDbEntity
  8
Layer_1
 62
7
100
AcDbPolyline
 90
6
 70
0
 10
11.744339
 20
11.039914
 30
0.0
 10
11.275641
 20
10.131235
 30
0.0
 10
10.364096
 20
10.601477
 30
0.0
 10
10.832794
 20
11.510155
 30
0.0
 10
11.744339
 20
11.039914
 30
0.0
 10
11.744339
 20
11.039914
 30
0.0
  0
LWPOLYLINE
  5
17e
100
AcDbEntity
  8
Layer_1
 62
7
100
AcDbPolyline
 90
13
 70
0
 10
3.438627
 20
10.584279
 30
0.0
 10
2.529618
 20
10.108801
 30
0.0
 10
2.424887
 20
10.309112
 30
0.0
 10
1.786525
 20
9.552679
 30
0.0
 10
1.005122
 20
10.211988
 30
0.0
 10
1.666580
 20
10.995926
 30
0.0
 10
2.370998
 20
10.404764
 30
0.0
 10
2.306595
 20
10.536027
 30
0.0
 10
2.236629
 20
10.668926
 30
0.0
 10
2.055738
 20
11.014833
 30
0.0
 10
2.964747
 20
11.490311
 30
0.0
 10
3.438627
 20
10.584279
 30
0.0
 10
3.438627
 20
10.584279
 30
0.0
  0
LWPOLYLINE
  5
17f
100
AcDbEntity
  8
Layer_1
 62
7
100
AcDbPolyline
 90
5
 70
0
 10
10.602496
 20
11.309954
 30
0.0
 10
10.491757
 20
11.095366
 30
0.0
 10
9.970859
 20
11.488327
 30
0.0
 10
10.602496
 20
11.309954
 30
0.0
 10
10.602496
 20
11.309954
 30
0.0
  0
LWPOLYLINE
  5
180
100
AcDbEntity
  8
Layer_1
 62
7
100
AcDbPolyline
 90
5
 70
0
 10
3.322100
 20
11.050772
 30
0.0
 10
3.200116
 20
11.285039
 30
0.0
 10
3.892773
 20
11.482429
 30
0.0
 10
3.322100
 20
11.050772
 30
0.0
 10
3.322100
 20
11.050772
 30
0.0
  0
LWPOLYLINE
  5
181
100
AcDbEntity
  8
Layer_1
 62
7
100
AcDbPolyline
 90
6
 70
0
 10
13.375936
 20
10.458602
 30
0.0
 10
12.482416
 20
9.954957
 30
0.0
 10
11.980369
 20
10.845610
 30
0.0
 10
12.873999
 20
11.349255
 30
0.0
 10
13.375936
 20
10.458602
 30
0.0
 10
13.375936
 20
10.458602
 30
0.0
  0
LWPOLYLINE
  5
182
100
AcDbEntity
  8
Layer_1
 62
7
100
AcDbPolyline
 90
6
 70
0
 10
13.181743
 20
11.041898
 30
0.0
 10
13.159249
 20
11.069839
 30
0.0
 10
13.144425
 20
11.104185
 30
0.0
 10
13.577350
 20
11.298158
 30
0.0
 10
13.181743
 20
11.041898
 30
0.0
 10
13.181743
 20
11.041898
 30
0.0
  0
LWPOLYLINE
  5
183
100
AcDbEntity
  8
Layer_1
 62
7
100
AcDbPolyline
 90
6
 70
0
 10
7.429205
 20
11.140676
 30
0.0
 10
7.421819
 20
10.114919
 30
0.0
 10
6.399370
 20
10.122361
 30
0.0
 10
6.406811
 20
11.148062
 30
0.0
 10
7.429205
 20
11.140676
 30
0.0
 10
7.429205
 20
11.140676
 30
0.0
  0
LWPOLYLINE
  5
184
100
AcDbEntity
  8
Layer_1
 62
7
100
AcDbPolyline
 90
10
 70
0
 10
6.287473
 20
10.220863
 30
0.0
 10
6.291934
 20
10.202001
 30
0.0
 10
6.287778
 20
10.184987
 30
0.0
 10
6.275574
 20
10.174791
 30
0.0
 10
6.255888
 20
10.176380
 30
0.0
 10
6.070627
 20
10.213553
 30
0.0
 10
5.885637
 20
10.250132
 30
0.0
 10
6.292489
 20
10.873777
 30
0.0
 10
6.287473
 20
10.220863
 30
0.0
 10
6.287473
 20
10.220863
 30
0.0
  0
LWPOLYLINE
  5
185
100
AcDbEntity
  8
Layer_1
 62
7
100
AcDbPolyline
 90
5
 70
0
 10
7.934063
 20
10.241864
 30
0.0
 10
7.535259
 20
10.165576
 30
0.0
 10
7.540606
 20
10.864903
 30
0.0
 10
7.934063
 20
10.241864
 30
0.0
 10
7.934063
 20
10.241864
 30
0.0
  0
LWPOLYLINE
  5
186
100
AcDbEntity
  8
Layer_1
 62
7
100
AcDbPolyline
 90
6
 70
0
 10
9.491412
 20
9.840688
 30
0.0
 10
8.623027
 20
9.301104
 30
0.0
 10
8.081679
 20
10.172299
 30
0.0
 10
8.950008
 20
10.711884
 30
0.0
 10
9.491412
 20
9.840688
 30
0.0
 10
9.491412
 20
9.840688
 30
0.0
  0
LWPOLYLINE
  5
187
100
AcDbEntity
  8
Layer_1
 62
7
100
AcDbPolyline
 90
6
 70
0
 10
5.783662
 20
10.169708
 30
0.0
 10
5.243692
 20
9.297521
 30
0.0
 10
4.374315
 20
9.835672
 30
0.0
 10
4.914285
 20
10.707860
 30
0.0
 10
5.783662
 20
10.169708
 30
0.0
 10
5.783662
 20
10.169708
 30
0.0
  0
LWPOLYLINE
  5
188
100
AcDbEntity
  8
Layer_1
 62
7
100
AcDbPolyline
 90
5
 70
0
 10
4.256355
 20
9.858823
 30
0.0
 10
4.070650
 20
10.052300
 30
0.0
 10
4.645017
 20
10.486878
 30
0.0
 10
4.256355
 20
9.858823
 30
0.0
 10
4.256355
 20
9.858823
 30
0.0
  0
LWPOLYLINE
  5
189
100
AcDbEntity
  8
Layer_1
 62
7
100
AcDbPolyline
 90
6
 70
0
 10
4.209557
 20
9.739375
 30
0.0
 10
3.461833
 20
9.037126
 30
0.0
 10
2.761845
 20
9.782425
 30
0.0
 10
3.509624
 20
10.484618
 30
0.0
 10
4.209557
 20
9.739375
 30
0.0
 10
4.209557
 20
9.739375
 30
0.0
  0
LWPOLYLINE
  5
18a
100
AcDbEntity
  8
Layer_1
 62
7
100
AcDbPolyline
 90
51
 70
0
 10
2.607780
 20
9.792457
 30
0.0
 10
2.618774
 20
9.769648
 30
0.0
 10
2.639937
 20
9.746514
 30
0.0
 10
2.684761
 20
9.700167
 30
0.0
 10
3.456927
 20
8.877439
 30
0.0
 10
4.014592
 20
9.401149
 30
0.0
 10
3.618985
 20
8.746305
 30
0.0
 10
4.687295
 20
8.100336
 30
0.0
 10
5.084666
 20
8.757660
 30
0.0
 10
4.880992
 20
8.018205
 30
0.0
 10
6.083634
 20
7.686594
 30
0.0
 10
6.400803
 20
8.832129
 30
0.0
 10
6.407142
 20
8.876833
 30
0.0
 10
6.785827
 20
8.807380
 30
0.0
 10
6.933497
 20
9.601736
 30
0.0
 10
7.082656
 20
8.807380
 30
0.0
 10
8.068946
 20
8.992037
 30
0.0
 10
8.066655
 20
8.967786
 30
0.0
 10
8.078918
 20
8.938400
 30
0.0
 10
8.108238
 20
8.877932
 30
0.0
 10
8.363350
 20
8.322531
 30
0.0
 10
7.922929
 20
8.905551
 30
0.0
 10
6.927213
 20
8.153363
 30
0.0
 10
7.367689
 20
7.570343
 30
0.0
 10
6.812616
 20
8.045380
 30
0.0
 10
6.001447
 20
7.097510
 30
0.0
 10
6.556852
 20
6.622142
 30
0.0
 10
5.911324
 20
6.966982
 30
0.0
 10
5.419750
 20
6.046343
 30
0.0
 10
4.945043
 20
7.173798
 30
0.0
 10
4.489353
 20
6.982141
 30
0.0
 10
4.919522
 20
7.226660
 30
0.0
 10
4.302381
 20
8.312168
 30
0.0
 10
3.298949
 20
7.740227
 30
0.0
 10
3.032547
 20
8.156836
 30
0.0
 10
2.568258
 20
7.861274
 30
0.0
 10
2.988835
 20
8.216036
 30
0.0
 10
2.184667
 20
9.170025
 30
0.0
 10
1.764586
 20
8.816034
 30
0.0
 10
2.134452
 20
9.223272
 30
0.0
 10
1.863915
 20
9.469004
 30
0.0
 10
2.136114
 20
9.790435
 30
0.0
 10
2.402893
 20
10.115304
 30
0.0
 10
2.440151
 20
10.031793
 30
0.0
 10
2.465784
 20
9.995786
 30
0.0
 10
2.505309
 20
9.975515
 30
0.0
 10
2.575971
 20
10.004370
 30
0.0
 10
2.644776
 20
10.041386
 30
0.0
 10
3.160043
 20
10.311040
 30
0.0
 10
2.607780
 20
9.792457
 30
0.0
 10
2.607780
 20
9.792457
 30
0.0
  0
LWPOLYLINE
  5
18b
100
AcDbEntity
  8
Layer_1
 62
7
100
AcDbPolyline
 90
6
 70
0
 10
8.177149
 20
9.127140
 30
0.0
 10
7.172284
 20
8.938845
 30
0.0
 10
6.983382
 20
9.947073
 30
0.0
 10
7.988248
 20
10.135313
 30
0.0
 10
8.177149
 20
9.127140
 30
0.0
 10
8.177149
 20
9.127140
 30
0.0
  0
LWPOLYLINE
  5
18c
100
AcDbEntity
  8
Layer_1
 62
7
100
AcDbPolyline
 90
6
 70
0
 10
6.882620
 20
9.947348
 30
0.0
 10
6.695427
 20
8.938790
 30
0.0
 10
5.690121
 20
9.125431
 30
0.0
 10
5.877369
 20
10.133990
 30
0.0
 10
6.882620
 20
9.947348
 30
0.0
 10
6.882620
 20
9.947348
 30
0.0
  0
LWPOLYLINE
  5
18d
100
AcDbEntity
  8
Layer_1
 62
7
100
AcDbPolyline
 90
15
 70
0
 10
13.995778
 20
10.019392
 30
0.0
 10
13.798553
 20
9.843610
 30
0.0
 10
14.007518
 20
9.609178
 30
0.0
 10
14.005755
 20
9.781047
 30
0.0
 10
13.980986
 20
9.805239
 30
0.0
 10
13.967379
 20
9.828785
 30
0.0
 10
13.971532
 20
9.851302
 30
0.0
 10
14.000042
 20
9.872406
 30
0.0
 10
14.008051
 20
9.900347
 30
0.0
 10
14.008518
 20
9.931656
 30
0.0
 10
14.007518
 20
9.995139
 30
0.0
 10
14.008002
 20
10.021448
 30
0.0
 10
14.005365
 20
10.028178
 30
0.0
 10
13.995778
 20
10.019392
 30
0.0
 10
13.995778
 20
10.019392
 30
0.0
  0
LWPOLYLINE
  5
18e
100
AcDbEntity
  8
Layer_1
 62
7
100
AcDbPolyline
 90
9
 70
0
 10
1.084221
 20
9.999604
 30
0.0
 10
1.112232
 20
9.975417
 30
0.0
 10
1.118087
 20
9.961472
 30
0.0
 10
1.106478
 20
9.948383
 30
0.0
 10
0.839978
 20
9.655039
 30
0.0
 10
0.959931
 20
9.829146
 30
0.0
 10
1.082953
 20
9.999824
 30
0.0
 10
1.084220
 20
9.999598
 30
0.0
 10
1.084221
 20
9.999604
 30
0.0
  0
LWPOLYLINE
  5
18f
100
AcDbEntity
  8
Layer_1
 62
7
100
AcDbPolyline
 90
6
 70
0
 10
1.974434
 20
9.215334
 30
0.0
 10
1.284478
 20
8.456311
 30
0.0
 10
0.527879
 20
9.143952
 30
0.0
 10
1.217891
 20
9.903030
 30
0.0
 10
1.974434
 20
9.215334
 30
0.0
 10
1.974434
 20
9.215334
 30
0.0
  0
LWPOLYLINE
  5
190
100
AcDbEntity
  8
Layer_1
 62
7
100
AcDbPolyline
 90
5
 70
0
 10
8.546353
 20
9.210980
 30
0.0
 10
8.297810
 20
9.096933
 30
0.0
 10
8.159675
 20
9.832751
 30
0.0
 10
8.546353
 20
9.210980
 30
0.0
 10
8.546353
 20
9.210980
 30
0.0
  0
LWPOLYLINE
  5
191
100
AcDbEntity
  8
Layer_1
 62
7
100
AcDbPolyline
 90
9
 70
0
 10
5.597186
 20
9.241572
 30
0.0
 10
5.587185
 20
9.181609
 30
0.0
 10
5.582316
 20
9.151765
 30
0.0
 10
5.570011
 20
9.124218
 30
0.0
 10
5.442501
 20
9.161356
 30
0.0
 10
5.315295
 20
9.198522
 30
0.0
 10
5.706492
 20
9.830050
 30
0.0
 10
5.597186
 20
9.241572
 30
0.0
 10
5.597186
 20
9.241572
 30
0.0
  0
LWPOLYLINE
  5
192
100
AcDbEntity
  8
Layer_1
 62
7
100
AcDbPolyline
 90
6
 70
0
 10
11.855409
 20
9.718759
 30
0.0
 10
11.850668
 20
8.693003
 30
0.0
 10
10.828329
 20
8.697688
 30
0.0
 10
10.833014
 20
9.723445
 30
0.0
 10
11.855409
 20
9.718759
 30
0.0
 10
11.855409
 20
9.718759
 30
0.0
  0
LWPOLYLINE
  5
193
100
AcDbEntity
  8
Layer_1
 62
7
100
AcDbPolyline
 90
6
 70
0
 10
10.693006
 20
8.684183
 30
0.0
 10
9.693432
 20
8.468989
 30
0.0
 10
9.477521
 20
9.471760
 30
0.0
 10
10.477095
 20
9.686954
 30
0.0
 10
10.693006
 20
8.684183
 30
0.0
 10
10.693006
 20
8.684183
 30
0.0
  0
LWPOLYLINE
  5
194
100
AcDbEntity
  8
Layer_1
 62
7
100
AcDbPolyline
 90
6
 70
0
 10
13.207760
 20
9.455995
 30
0.0
 10
12.983802
 20
8.454988
 30
0.0
 10
11.986047
 20
8.678285
 30
0.0
 10
12.210005
 20
9.679292
 30
0.0
 10
13.207760
 20
9.455995
 30
0.0
 10
13.207760
 20
9.455995
 30
0.0
  0
LWPOLYLINE
  5
195
100
AcDbEntity
  8
Layer_1
 62
7
100
AcDbPolyline
 90
6
 70
0
 10
5.179365
 20
9.133644
 30
0.0
 10
4.648930
 20
8.255669
 30
0.0
 10
3.773766
 20
8.784339
 30
0.0
 10
4.304200
 20
9.662315
 30
0.0
 10
5.179365
 20
9.133644
 30
0.0
 10
5.179365
 20
9.133644
 30
0.0
  0
LWPOLYLINE
  5
196
100
AcDbEntity
  8
Layer_1
 62
7
100
AcDbPolyline
 90
6
 70
0
 10
9.564723
 20
8.425939
 30
0.0
 10
8.635430
 20
7.999354
 30
0.0
 10
8.207521
 20
8.931624
 30
0.0
 10
9.136705
 20
9.358209
 30
0.0
 10
9.564723
 20
8.425939
 30
0.0
 10
9.564723
 20
8.425939
 30
0.0
  0
LWPOLYLINE
  5
197
100
AcDbEntity
  8
Layer_1
 62
7
100
AcDbPolyline
 90
6
 70
0
 10
6.277220
 20
8.814050
 30
0.0
 10
6.004699
 20
7.825114
 30
0.0
 10
5.018961
 20
8.096753
 30
0.0
 10
5.291482
 20
9.085689
 30
0.0
 10
6.277220
 20
8.814050
 30
0.0
 10
6.277220
 20
8.814050
 30
0.0
  0
LWPOLYLINE
  5
198
100
AcDbEntity
  8
Layer_1
 62
7
100
AcDbPolyline
 90
6
 70
0
 10
2.829754
 20
8.229321
 30
0.0
 10
2.045210
 20
7.568468
 30
0.0
 10
1.386508
 20
8.350478
 30
0.0
 10
2.171052
 20
9.011330
 30
0.0
 10
2.829754
 20
8.229321
 30
0.0
 10
2.829754
 20
8.229321
 30
0.0
  0
LWPOLYLINE
  5
199
100
AcDbEntity
  8
Layer_1
 62
7
100
AcDbPolyline
 90
9
 70
0
 10
0.532234
 20
8.986029
 30
0.0
 10
0.566923
 20
8.956800
 30
0.0
 10
0.569753
 20
8.940986
 30
0.0
 10
0.550909
 20
8.924154
 30
0.0
 10
0.242295
 20
8.602548
 30
0.0
 10
0.521816
 20
8.994738
 30
0.0
 10
0.527229
 20
8.990213
 30
0.0
 10
0.532234
 20
8.986029
 30
0.0
 10
0.532234
 20
8.986029
 30
0.0
  0
LWPOLYLINE
  5
19a
100
AcDbEntity
  8
Layer_1
 62
7
100
AcDbPolyline
 90
6
 70
0
 10
8.518848
 20
7.929294
 30
0.0
 10
7.703104
 20
7.312925
 30
0.0
 10
7.084751
 20
8.131369
 30
0.0
 10
7.900494
 20
8.747739
 30
0.0
 10
8.518848
 20
7.929294
 30
0.0
 10
8.518848
 20
7.929294
 30
0.0
  0
LWPOLYLINE
  5
19b
100
AcDbEntity
  8
Layer_1
 62
7
100
AcDbPolyline
 90
6
 70
0
 10
11.266160
 20
7.570618
 30
0.0
 10
10.252750
 20
7.434744
 30
0.0
 10
10.116490
 20
8.451405
 30
0.0
 10
11.129789
 20
8.587280
 30
0.0
 10
11.266160
 20
7.570618
 30
0.0
 10
11.266160
 20
7.570618
 30
0.0
  0
LWPOLYLINE
  5
19c
100
AcDbEntity
  8
Layer_1
 62
7
100
AcDbPolyline
 90
6
 70
0
 10
12.542664
 20
8.444790
 30
0.0
 10
12.401112
 20
7.428846
 30
0.0
 10
11.388474
 20
7.569957
 30
0.0
 10
11.530081
 20
8.585847
 30
0.0
 10
12.542664
 20
8.444790
 30
0.0
 10
12.542664
 20
8.444790
 30
0.0
  0
LWPOLYLINE
  5
19d
100
AcDbEntity
  8
Layer_1
 62
7
100
AcDbPolyline
 90
5
 70
0
 10
11.415814
 20
8.582153
 30
0.0
 10
11.328667
 20
7.957131
 30
0.0
 10
11.244883
 20
8.582760
 30
0.0
 10
11.415814
 20
8.582153
 30
0.0
 10
11.415814
 20
8.582153
 30
0.0
  0
LWPOLYLINE
  5
19e
100
AcDbEntity
  8
Layer_1
 62
7
100
AcDbPolyline
 90
5
 70
0
 10
10.091685
 20
7.787081
 30
0.0
 10
9.833661
 20
8.383771
 30
0.0
 10
10.006633
 20
8.421033
 30
0.0
 10
10.091685
 20
7.787081
 30
0.0
 10
10.091685
 20
7.787081
 30
0.0
  0
LWPOLYLINE
  5
19f
100
AcDbEntity
  8
Layer_1
 62
7
100
AcDbPolyline
 90
5
 70
0
 10
12.824114
 20
8.375007
 30
0.0
 10
12.564547
 20
7.781844
 30
0.0
 10
12.652631
 20
8.413482
 30
0.0
 10
12.824114
 20
8.375007
 30
0.0
 10
12.824114
 20
8.375007
 30
0.0
  0
LWPOLYLINE
  5
1a0
100
AcDbEntity
  8
Layer_1
 62
7
100
AcDbPolyline
 90
6
 70
0
 10
10.135286
 20
7.402057
 30
0.0
 10
9.196787
 20
6.996307
 30
0.0
 10
8.789715
 20
7.937838
 30
0.0
 10
9.728214
 20
8.343587
 30
0.0
 10
10.135286
 20
7.402057
 30
0.0
 10
10.135286
 20
7.402057
 30
0.0
  0
LWPOLYLINE
  5
1a1
100
AcDbEntity
  8
Layer_1
 62
7
100
AcDbPolyline
 90
6
 70
0
 10
13.866628
 20
7.926207
 30
0.0
 10
13.455476
 20
6.986440
 30
0.0
 10
12.518686
 20
7.396324
 30
0.0
 10
12.929948
 20
8.336091
 30
0.0
 10
13.866628
 20
7.926207
 30
0.0
 10
13.866628
 20
7.926207
 30
0.0
  0
LWPOLYLINE
  5
1a2
100
AcDbEntity
  8
Layer_1
 62
7
100
AcDbPolyline
 90
6
 70
0
 10
4.764851
 20
7.268993
 30
0.0
 10
3.873040
 20
6.762040
 30
0.0
 10
3.367741
 20
7.650930
 30
0.0
 10
4.259552
 20
8.157883
 30
0.0
 10
4.764851
 20
7.268993
 30
0.0
 10
4.764851
 20
7.268993
 30
0.0
  0
LWPOLYLINE
  5
1a3
100
AcDbEntity
  8
Layer_1
 62
7
100
AcDbPolyline
 90
6
 70
0
 10
1.470954
 20
8.074705
 30
0.0
 10
1.495099
 20
8.048704
 30
0.0
 10
1.515547
 20
8.019307
 30
0.0
 10
1.139673
 20
7.734991
 30
0.0
 10
1.470954
 20
8.074705
 30
0.0
 10
1.470954
 20
8.074705
 30
0.0
  0
LWPOLYLINE
  5
1a4
100
AcDbEntity
  8
Layer_1
 62
7
100
AcDbPolyline
 90
6
 70
0
 10
3.546665
 20
7.138190
 30
0.0
 10
2.681312
 20
6.587471
 30
0.0
 10
2.132357
 20
7.450012
 30
0.0
 10
2.997710
 20
8.000732
 30
0.0
 10
3.546665
 20
7.138190
 30
0.0
 10
3.546665
 20
7.138190
 30
0.0
  0
LWPOLYLINE
  5
1a5
100
AcDbEntity
  8
Layer_1
 62
7
100
AcDbPolyline
 90
6
 70
0
 10
2.220110
 20
7.129315
 30
0.0
 10
1.402328
 20
6.510080
 30
0.0
 10
0.785077
 20
7.325272
 30
0.0
 10
1.602970
 20
7.944453
 30
0.0
 10
2.220110
 20
7.129315
 30
0.0
 10
2.220110
 20
7.129315
 30
0.0
  0
LWPOLYLINE
  5
1a6
100
AcDbEntity
  8
Layer_1
 62
7
100
AcDbPolyline
 90
6
 70
0
 10
8.945433
 20
7.293633
 30
0.0
 10
8.535218
 20
7.800034
 30
0.0
 10
8.606776
 20
7.854074
 30
0.0
 10
8.684598
 20
7.897599
 30
0.0
 10
8.945433
 20
7.293633
 30
0.0
 10
8.945433
 20
7.293633
 30
0.0
  0
LWPOLYLINE
  5
1a7
100
AcDbEntity
  8
Layer_1
 62
7
100
AcDbPolyline
 90
6
 70
0
 10
7.603995
 20
7.219604
 30
0.0
 10
6.939175
 20
6.442832
 30
0.0
 10
6.159811
 20
7.109857
 30
0.0
 10
6.824687
 20
7.886630
 30
0.0
 10
7.603995
 20
7.219604
 30
0.0
 10
7.603995
 20
7.219604
 30
0.0
  0
LWPOLYLINE
  5
1a8
100
AcDbEntity
  8
Layer_1
 62
7
100
AcDbPolyline
 90
6
 70
0
 10
9.092552
 20
6.932587
 30
0.0
 10
8.298086
 20
6.288932
 30
0.0
 10
7.652337
 20
7.085935
 30
0.0
 10
8.446804
 20
7.729589
 30
0.0
 10
9.092552
 20
6.932587
 30
0.0
 10
9.092552
 20
6.932587
 30
0.0
  0
LWPOLYLINE
  5
1a9
100
AcDbEntity
  8
Layer_1
 62
7
100
AcDbPolyline
 90
3
 70
0
 10
2.044989
 20
7.478510
 30
0.0
 10
2.044989
 20
7.478510
 30
0.0
 10
2.044989
 20
7.478510
 30
0.0
  0
LWPOLYLINE
  5
1aa
100
AcDbEntity
  8
Layer_1
 62
7
100
AcDbPolyline
 90
6
 70
0
 10
11.830439
 20
7.406025
 30
0.0
 10
11.829558
 20
6.380269
 30
0.0
 10
10.807164
 20
6.381096
 30
0.0
 10
10.807991
 20
7.406852
 30
0.0
 10
11.830440
 20
7.406025
 30
0.0
 10
11.830439
 20
7.406025
 30
0.0
  0
LWPOLYLINE
  5
1ab
100
AcDbEntity
  8
Layer_1
 62
7
100
AcDbPolyline
 90
5
 70
0
 10
10.695045
 20
6.710667
 30
0.0
 10
10.448597
 20
7.346825
 30
0.0
 10
10.695872
 20
7.380008
 30
0.0
 10
10.695045
 20
6.710667
 30
0.0
 10
10.695045
 20
6.710667
 30
0.0
  0
LWPOLYLINE
  5
1ac
100
AcDbEntity
  8
Layer_1
 62
7
100
AcDbPolyline
 90
5
 70
0
 10
12.189059
 20
7.344289
 30
0.0
 10
11.943272
 20
6.710667
 30
0.0
 10
11.943498
 20
7.378685
 30
0.0
 10
12.189065
 20
7.344289
 30
0.0
 10
12.189059
 20
7.344289
 30
0.0
  0
LWPOLYLINE
  5
1ad
100
AcDbEntity
  8
Layer_1
 62
7
100
AcDbPolyline
 90
6
 70
0
 10
10.708385
 20
6.363181
 30
0.0
 10
9.755003
 20
5.993701
 30
0.0
 10
9.384366
 20
6.950225
 30
0.0
 10
10.337748
 20
7.319705
 30
0.0
 10
10.708385
 20
6.363181
 30
0.0
 10
10.708385
 20
6.363181
 30
0.0
  0
LWPOLYLINE
  5
1ae
100
AcDbEntity
  8
Layer_1
 62
7
100
AcDbPolyline
 90
6
 70
0
 10
13.252795
 20
6.949288
 30
0.0
 10
12.881882
 20
5.992875
 30
0.0
 10
11.928665
 20
6.362575
 30
0.0
 10
12.299468
 20
7.318933
 30
0.0
 10
13.252795
 20
6.949288
 30
0.0
 10
13.252795
 20
6.949288
 30
0.0
  0
LWPOLYLINE
  5
1af
100
AcDbEntity
  8
Layer_1
 62
7
100
AcDbPolyline
 90
8
 70
0
 10
3.592416
 20
7.029270
 30
0.0
 10
3.608709
 20
7.002898
 30
0.0
 10
3.613523
 20
6.989032
 30
0.0
 10
3.609879
 20
6.979236
 30
0.0
 10
3.236331
 20
6.806634
 30
0.0
 10
3.412704
 20
6.919351
 30
0.0
 10
3.592416
 20
7.029270
 30
0.0
 10
3.592416
 20
7.029270
 30
0.0
  0
LWPOLYLINE
  5
1b0
100
AcDbEntity
  8
Layer_1
 62
7
100
AcDbPolyline
 90
6
 70
0
 10
0.866491
 20
7.028443
 30
0.0
 10
0.896786
 20
6.993155
 30
0.0
 10
0.923542
 20
6.954855
 30
0.0
 10
0.489295
 20
6.668940
 30
0.0
 10
0.866491
 20
7.028443
 30
0.0
 10
0.866491
 20
7.028443
 30
0.0
  0
LWPOLYLINE
  5
1b1
100
AcDbEntity
  8
Layer_1
 62
7
100
AcDbPolyline
 90
6
 70
0
 10
5.280788
 20
6.083384
 30
0.0
 10
4.335179
 20
5.685903
 30
0.0
 10
3.939020
 20
6.628481
 30
0.0
 10
4.884630
 20
7.025907
 30
0.0
 10
5.280788
 20
6.083384
 30
0.0
 10
5.280788
 20
6.083384
 30
0.0
  0
LWPOLYLINE
  5
1b2
100
AcDbEntity
  8
Layer_1
 62
7
100
AcDbPolyline
 90
7
 70
0
 10
2.270381
 20
7.021718
 30
0.0
 10
2.290140
 20
6.993668
 30
0.0
 10
2.306872
 20
6.963124
 30
0.0
 10
1.891972
 20
6.739165
 30
0.0
 10
2.268728
 20
7.022214
 30
0.0
 10
2.270382
 20
7.021717
 30
0.0
 10
2.270381
 20
7.021718
 30
0.0
  0
LWPOLYLINE
  5
1b3
100
AcDbEntity
  8
Layer_1
 62
7
100
AcDbPolyline
 90
5
 70
0
 10
7.975900
 20
6.507765
 30
0.0
 10
7.458254
 20
6.875646
 30
0.0
 10
7.570978
 20
7.007386
 30
0.0
 10
7.975900
 20
6.507765
 30
0.0
 10
7.975900
 20
6.507765
 30
0.0
  0
LWPOLYLINE
  5
1b4
100
AcDbEntity
  8
Layer_1
 62
7
100
AcDbPolyline
 90
8
 70
0
 10
13.368439
 20
6.905246
 30
0.0
 10
13.474763
 20
6.843875
 30
0.0
 10
13.571397
 20
6.767828
 30
0.0
 10
13.105951
 20
6.258505
 30
0.0
 10
13.359234
 20
6.909160
 30
0.0
 10
13.365727
 20
6.906399
 30
0.0
 10
13.368439
 20
6.905245
 30
0.0
 10
13.368439
 20
6.905246
 30
0.0
  0
LWPOLYLINE
  5
1b5
100
AcDbEntity
  8
Layer_1
 62
7
100
AcDbPolyline
 90
7
 70
0
 10
9.530603
 20
6.260930
 30
0.0
 10
9.069071
 20
6.767497
 30
0.0
 10
9.167986
 20
6.848474
 30
0.0
 10
9.220736
 20
6.883591
 30
0.0
 10
9.279525
 20
6.908719
 30
0.0
 10
9.530603
 20
6.260930
 30
0.0
 10
9.530603
 20
6.260930
 30
0.0
  0
LWPOLYLINE
  5
1b6
100
AcDbEntity
  8
Layer_1
 62
7
100
AcDbPolyline
 90
6
 70
0
 10
4.111936
 20
5.960683
 30
0.0
 10
3.180713
 20
5.530460
 30
0.0
 10
2.751923
 20
6.458596
 30
0.0
 10
3.683036
 20
6.888875
 30
0.0
 10
4.111936
 20
5.960683
 30
0.0
 10
4.111936
 20
5.960683
 30
0.0
  0
LWPOLYLINE
  5
1b7
100
AcDbEntity
  8
Layer_1
 62
7
100
AcDbPolyline
 90
6
 70
0
 10
1.578165
 20
6.026719
 30
0.0
 10
0.721466
 20
5.462605
 30
0.0
 10
0.159117
 20
6.316548
 30
0.0
 10
1.015925
 20
6.880717
 30
0.0
 10
1.578165
 20
6.026719
 30
0.0
 10
1.578165
 20
6.026719
 30
0.0
  0
LWPOLYLINE
  5
1b8
100
AcDbEntity
  8
Layer_1
 62
7
100
AcDbPolyline
 90
6
 70
0
 10
2.868781
 20
5.976338
 30
0.0
 10
1.966221
 20
5.489174
 30
0.0
 10
1.480600
 20
6.388868
 30
0.0
 10
2.383160
 20
6.876031
 30
0.0
 10
2.868781
 20
5.976338
 30
0.0
 10
2.868781
 20
5.976338
 30
0.0
  0
LWPOLYLINE
  5
1b9
100
AcDbEntity
  8
Layer_1
 62
7
100
AcDbPolyline
 90
6
 70
0
 10
6.862280
 20
6.330714
 30
0.0
 10
6.380187
 20
5.429091
 30
0.0
 10
5.475643
 20
5.912783
 30
0.0
 10
5.957736
 20
6.814406
 30
0.0
 10
6.862280
 20
6.330714
 30
0.0
 10
6.862280
 20
6.330714
 30
0.0
  0
LWPOLYLINE
  5
1ba
100
AcDbEntity
  8
Layer_1
 62
7
100
AcDbPolyline
 90
6
 70
0
 10
8.214356
 20
6.200021
 30
0.0
 10
7.622351
 20
5.366419
 30
0.0
 10
6.786047
 20
5.960408
 30
0.0
 10
7.378052
 20
6.794011
 30
0.0
 10
8.214356
 20
6.200021
 30
0.0
 10
8.214356
 20
6.200021
 30
0.0
  0
LWPOLYLINE
  5
1bb
100
AcDbEntity
  8
Layer_1
 62
7
100
AcDbPolyline
 90
6
 70
0
 10
9.669895
 20
5.940344
 30
0.0
 10
8.914014
 20
5.251766
 30
0.0
 10
8.223286
 20
6.010018
 30
0.0
 10
8.979002
 20
6.698596
 30
0.0
 10
9.669895
 20
5.940344
 30
0.0
 10
9.669895
 20
5.940344
 30
0.0
  0
LWPOLYLINE
  5
1bc
100
AcDbEntity
  8
Layer_1
 62
7
100
AcDbPolyline
 90
4
 70
0
 10
2.666650
 20
6.501040
 30
0.0
 10
2.666337
 20
6.498377
 30
0.0
 10
2.666650
 20
6.501040
 30
0.0
 10
2.666650
 20
6.501040
 30
0.0
  0
LWPOLYLINE
  5
1bd
100
AcDbEntity
  8
Layer_1
 62
7
100
AcDbPolyline
 90
4
 70
0
 10
1.400839
 20
6.421775
 30
0.0
 10
1.393266
 20
6.425071
 30
0.0
 10
1.400839
 20
6.421775
 30
0.0
 10
1.400839
 20
6.421775
 30
0.0
  0
LWPOLYLINE
  5
1be
100
AcDbEntity
  8
Layer_1
 62
7
100
AcDbPolyline
 90
6
 70
0
 10
11.293169
 20
5.296965
 30
0.0
 10
10.311234
 20
5.012373
 30
0.0
 10
10.025760
 20
5.997615
 30
0.0
 10
11.007695
 20
6.282153
 30
0.0
 10
11.293169
 20
5.296965
 30
0.0
 10
11.293169
 20
5.296965
 30
0.0
  0
LWPOLYLINE
  5
1bf
100
AcDbEntity
  8
Layer_1
 62
7
100
AcDbPolyline
 90
6
 70
0
 10
12.627000
 20
5.989347
 30
0.0
 10
12.335297
 20
5.005924
 30
0.0
 10
11.355016
 20
5.296635
 30
0.0
 10
11.646774
 20
6.280113
 30
0.0
 10
12.627000
 20
5.989347
 30
0.0
 10
12.627000
 20
5.989347
 30
0.0
  0
LWPOLYLINE
  5
1c0
100
AcDbEntity
  8
Layer_1
 62
7
100
AcDbPolyline
 90
5
 70
0
 10
11.525286
 20
6.267711
 30
0.0
 10
11.325195
 20
5.593189
 30
0.0
 10
11.129844
 20
6.268097
 30
0.0
 10
11.525286
 20
6.267710
 30
0.0
 10
11.525286
 20
6.267711
 30
0.0
  0
LWPOLYLINE
  5
1c1
100
AcDbEntity
  8
Layer_1
 62
7
100
AcDbPolyline
 90
15
 70
0
 10
5.398804
 20
6.009025
 30
0.0
 10
5.323342
 20
5.866261
 30
0.0
 10
5.968870
 20
5.521420
 30
0.0
 10
5.263646
 20
5.718811
 30
0.0
 10
4.927404
 20
4.516445
 30
0.0
 10
5.628164
 20
4.320763
 30
0.0
 10
4.902269
 20
4.361718
 30
0.0
 10
4.852660
 20
3.479829
 30
0.0
 10
4.672357
 20
4.570298
 30
0.0
 10
4.126213
 20
4.480230
 30
0.0
 10
4.655655
 20
4.642783
 30
0.0
 10
4.368362
 20
5.577314
 30
0.0
 10
5.399741
 20
6.011175
 30
0.0
 10
5.398804
 20
6.009024
 30
0.0
 10
5.398804
 20
6.009025
 30
0.0
  0
LWPOLYLINE
  5
1c2
100
AcDbEntity
  8
Layer_1
 62
7
100
AcDbPolyline
 90
7
 70
0
 10
10.126357
 20
5.244986
 30
0.0
 10
9.589804
 20
5.714566
 30
0.0
 10
9.684721
 20
5.801833
 30
0.0
 10
9.783044
 20
5.883595
 30
0.0
 10
9.925549
 20
5.938801
 30
0.0
 10
10.126357
 20
5.244986
 30
0.0
 10
10.126357
 20
5.244986
 30
0.0
  0
LWPOLYLINE
  5
1c3
100
AcDbEntity
  8
Layer_1
 62
7
100
AcDbPolyline
 90
8
 70
0
 10
12.730573
 20
5.931745
 30
0.0
 10
12.824457
 20
5.894494
 30
0.0
 10
12.908698
 20
5.838711
 30
0.0
 10
13.059649
 20
5.701999
 30
0.0
 10
12.522103
 20
5.238537
 30
0.0
 10
12.728975
 20
5.932903
 30
0.0
 10
12.730572
 20
5.931746
 30
0.0
 10
12.730573
 20
5.931745
 30
0.0
  0
LWPOLYLINE
  5
1c4
100
AcDbEntity
  8
Layer_1
 62
7
100
AcDbPolyline
 90
5
 70
0
 10
8.607593
 20
5.420713
 30
0.0
 10
8.010682
 20
5.718369
 30
0.0
 10
8.153171
 20
5.919287
 30
0.0
 10
8.607593
 20
5.420713
 30
0.0
 10
8.607593
 20
5.420713
 30
0.0
  0
LWPOLYLINE
  5
1c5
100
AcDbEntity
  8
Layer_1
 62
7
100
AcDbPolyline
 90
6
 70
0
 10
1.608317
 20
5.910633
 30
0.0
 10
1.632951
 20
5.871219
 30
0.0
 10
1.653516
 20
5.829274
 30
0.0
 10
1.174235
 20
5.625821
 30
0.0
 10
1.608317
 20
5.910633
 30
0.0
 10
1.608317
 20
5.910633
 30
0.0
  0
LWPOLYLINE
  5
1c6
100
AcDbEntity
  8
Layer_1
 62
7
100
AcDbPolyline
 90
6
 70
0
 10
2.900586
 20
5.863064
 30
0.0
 10
2.918669
 20
5.832765
 30
0.0
 10
2.930572
 20
5.798626
 30
0.0
 10
2.484804
 20
5.640593
 30
0.0
 10
2.900586
 20
5.863064
 30
0.0
 10
2.900586
 20
5.863064
 30
0.0
  0
LWPOLYLINE
  5
1c7
100
AcDbEntity
  8
Layer_1
 62
7
100
AcDbPolyline
 90
5
 70
0
 10
7.254360
 20
5.490001
 30
0.0
 10
6.655574
 20
5.704258
 30
0.0
 10
6.737375
 20
5.857386
 30
0.0
 10
7.254360
 20
5.490001
 30
0.0
 10
7.254360
 20
5.490001
 30
0.0
  0
LWPOLYLINE
  5
1c8
100
AcDbEntity
  8
Layer_1
 62
7
100
AcDbPolyline
 90
6
 70
0
 10
4.146222
 20
5.848456
 30
0.0
 10
4.164081
 20
5.797689
 30
0.0
 10
3.758387
 20
5.672949
 30
0.0
 10
4.144017
 20
5.851047
 30
0.0
 10
4.146221
 20
5.848456
 30
0.0
 10
4.146222
 20
5.848456
 30
0.0
  0
LWPOLYLINE
  5
1c9
100
AcDbEntity
  8
Layer_1
 62
7
100
AcDbPolyline
 90
6
 70
0
 10
2.131806
 20
4.798832
 30
0.0
 10
1.187684
 20
4.397823
 30
0.0
 10
0.787998
 20
5.338913
 30
0.0
 10
1.732120
 20
5.739867
 30
0.0
 10
2.131806
 20
4.798832
 30
0.0
 10
2.131806
 20
4.798832
 30
0.0
  0
LWPOLYLINE
  5
1ca
100
AcDbEntity
  8
Layer_1
 62
7
100
AcDbPolyline
 90
6
 70
0
 10
3.333345
 20
4.736876
 30
0.0
 10
2.366679
 20
4.394020
 30
0.0
 10
2.024870
 20
5.357544
 30
0.0
 10
2.991536
 20
5.700455
 30
0.0
 10
3.333345
 20
4.736876
 30
0.0
 10
3.333345
 20
4.736876
 30
0.0
  0
LWPOLYLINE
  5
1cb
100
AcDbEntity
  8
Layer_1
 62
7
100
AcDbPolyline
 90
6
 70
0
 10
4.514213
 20
4.717583
 30
0.0
 10
3.533822
 20
4.416179
 30
0.0
 10
3.233355
 20
5.393483
 30
0.0
 10
4.213801
 20
5.694888
 30
0.0
 10
4.514213
 20
4.717583
 30
0.0
 10
4.514213
 20
4.717583
 30
0.0
  0
LWPOLYLINE
  5
1cc
100
AcDbEntity
  8
Layer_1
 62
7
100
AcDbPolyline
 90
6
 70
0
 10
10.259420
 20
4.978583
 30
0.0
 10
9.586276
 20
4.208977
 30
0.0
 10
8.814134
 20
4.884271
 30
0.0
 10
9.487333
 20
5.653932
 30
0.0
 10
10.259420
 20
4.978583
 30
0.0
 10
10.259420
 20
4.978583
 30
0.0
  0
LWPOLYLINE
  5
1cd
100
AcDbEntity
  8
Layer_1
 62
7
100
AcDbPolyline
 90
6
 70
0
 10
13.831515
 20
4.868175
 30
0.0
 10
13.054798
 20
4.198228
 30
0.0
 10
12.387056
 20
4.972410
 30
0.0
 10
13.163718
 20
5.642357
 30
0.0
 10
13.831515
 20
4.868175
 30
0.0
 10
13.831515
 20
4.868175
 30
0.0
  0
LWPOLYLINE
  5
1ce
100
AcDbEntity
  8
Layer_1
 62
7
100
AcDbPolyline
 90
6
 70
0
 10
8.853105
 20
5.171840
 30
0.0
 10
8.397139
 20
4.256712
 30
0.0
 10
7.479035
 20
4.714110
 30
0.0
 10
7.934945
 20
5.629238
 30
0.0
 10
8.853105
 20
5.171840
 30
0.0
 10
8.853105
 20
5.171840
 30
0.0
  0
LWPOLYLINE
  5
1cf
100
AcDbEntity
  8
Layer_1
 62
7
100
AcDbPolyline
 90
6
 70
0
 10
7.565741
 20
5.258325
 30
0.0
 10
7.221617
 20
4.295573
 30
0.0
 10
6.255723
 20
4.640689
 30
0.0
 10
6.599792
 20
5.603496
 30
0.0
 10
7.565741
 20
5.258325
 30
0.0
 10
7.565741
 20
5.258325
 30
0.0
  0
LWPOLYLINE
  5
1d0
100
AcDbEntity
  8
Layer_1
 62
7
100
AcDbPolyline
 90
6
 70
0
 10
6.329641
 20
5.303194
 30
0.0
 10
6.054199
 20
4.318503
 30
0.0
 10
5.066366
 20
4.594828
 30
0.0
 10
5.341753
 20
5.579518
 30
0.0
 10
6.329641
 20
5.303194
 30
0.0
 10
6.329641
 20
5.303194
 30
0.0
  0
LWPOLYLINE
  5
1d1
100
AcDbEntity
  8
Layer_1
 62
7
100
AcDbPolyline
 90
6
 70
0
 10
3.157948
 20
5.448384
 30
0.0
 10
3.155613
 20
5.443460
 30
0.0
 10
3.152497
 20
5.446703
 30
0.0
 10
3.152107
 20
5.450786
 30
0.0
 10
3.157948
 20
5.448384
 30
0.0
 10
3.157948
 20
5.448384
 30
0.0
  0
LWPOLYLINE
  5
1d2
100
AcDbEntity
  8
Layer_1
 62
7
100
AcDbPolyline
 90
6
 70
0
 10
3.162799
 20
5.422918
 30
0.0
 10
3.158899
 20
5.419927
 30
0.0
 10
3.157238
 20
5.423334
 30
0.0
 10
3.158358
 20
5.426534
 30
0.0
 10
3.162799
 20
5.422918
 30
0.0
 10
3.162799
 20
5.422918
 30
0.0
  0
LWPOLYLINE
  5
1d3
100
AcDbEntity
  8
Layer_1
 62
7
100
AcDbPolyline
 90
8
 70
0
 10
11.826194
 20
5.115064
 30
0.0
 10
11.826194
 20
4.091017
 30
0.0
 10
10.808541
 20
4.089253
 30
0.0
 10
10.802773
 20
4.161830
 30
0.0
 10
10.803414
 20
4.239073
 30
0.0
 10
10.803414
 20
5.115064
 30
0.0
 10
11.826194
 20
5.115064
 30
0.0
 10
11.826194
 20
5.115064
 30
0.0
  0
LWPOLYLINE
  5
1d4
100
AcDbEntity
  8
Layer_1
 62
7
100
AcDbPolyline
 90
6
 70
0
 10
12.300184
 20
4.899098
 30
0.0
 10
12.669554
 20
4.472568
 30
0.0
 10
11.939304
 20
4.232900
 30
0.0
 10
11.939304
 20
5.005924
 30
0.0
 10
12.300184
 20
4.899098
 30
0.0
 10
12.300184
 20
4.899098
 30
0.0
  0
LWPOLYLINE
  5
1d5
100
AcDbEntity
  8
Layer_1
 62
7
100
AcDbPolyline
 90
6
 70
0
 10
10.691242
 20
4.232569
 30
0.0
 10
9.964575
 20
4.470473
 30
0.0
 10
10.346622
 20
4.905162
 30
0.0
 10
10.691242
 20
5.004987
 30
0.0
 10
10.691242
 20
4.232569
 30
0.0
 10
10.691242
 20
4.232569
 30
0.0
  0
LWPOLYLINE
  5
1d6
100
AcDbEntity
  8
Layer_1
 62
7
100
AcDbPolyline
 90
5
 70
0
 10
9.305377
 20
4.305715
 30
0.0
 10
8.600482
 20
4.410446
 30
0.0
 10
8.777864
 20
4.766862
 30
0.0
 10
9.305377
 20
4.305715
 30
0.0
 10
9.305377
 20
4.305715
 30
0.0
  0
LWPOLYLINE
  5
1d7
100
AcDbEntity
  8
Layer_1
 62
7
100
AcDbPolyline
 90
5
 70
0
 10
0.980207
 20
4.598190
 30
0.0
 10
0.405951
 20
4.442582
 30
0.0
 10
0.929605
 20
4.717307
 30
0.0
 10
0.980207
 20
4.598190
 30
0.0
 10
0.980207
 20
4.598190
 30
0.0
  0
LWPOLYLINE
  5
1d8
100
AcDbEntity
  8
Layer_1
 62
7
100
AcDbPolyline
 90
6
 70
0
 10
2.143767
 20
4.679770
 30
0.0
 10
2.161954
 20
4.637135
 30
0.0
 10
2.175682
 20
4.592623
 30
0.0
 10
1.664651
 20
4.477584
 30
0.0
 10
2.143767
 20
4.679770
 30
0.0
 10
2.143767
 20
4.679770
 30
0.0
  0
LWPOLYLINE
  5
1d9
100
AcDbEntity
  8
Layer_1
 62
7
100
AcDbPolyline
 90
7
 70
0
 10
3.348503
 20
4.620679
 30
0.0
 10
3.360305
 20
4.607098
 30
0.0
 10
3.365304
 20
4.589512
 30
0.0
 10
3.371764
 20
4.552494
 30
0.0
 10
2.902074
 20
4.463969
 30
0.0
 10
3.348503
 20
4.620679
 30
0.0
 10
3.348503
 20
4.620679
 30
0.0
  0
LWPOLYLINE
  5
1da
100
AcDbEntity
  8
Layer_1
 62
7
100
AcDbPolyline
 90
5
 70
0
 10
8.051582
 20
4.302959
 30
0.0
 10
7.366863
 20
4.365853
 30
0.0
 10
7.451199
 20
4.602048
 30
0.0
 10
8.051582
 20
4.302959
 30
0.0
 10
8.051582
 20
4.302959
 30
0.0
  0
LWPOLYLINE
  5
1db
100
AcDbEntity
  8
Layer_1
 62
7
100
AcDbPolyline
 90
5
 70
0
 10
6.830420
 20
4.315417
 30
0.0
 10
6.183569
 20
4.361002
 30
0.0
 10
6.230753
 20
4.529784
 30
0.0
 10
6.830420
 20
4.315417
 30
0.0
 10
6.830420
 20
4.315417
 30
0.0
  0
LWPOLYLINE
  5
1dc
100
AcDbEntity
  8
Layer_1
 62
7
100
AcDbPolyline
 90
6
 70
0
 10
1.299691
 20
3.508272
 30
0.0
 10
0.309709
 20
3.239830
 30
0.0
 10
0.042149
 20
4.226616
 30
0.0
 10
1.032076
 20
4.495057
 30
0.0
 10
1.299691
 20
3.508272
 30
0.0
 10
1.299691
 20
3.508272
 30
0.0
  0
LWPOLYLINE
  5
1dd
100
AcDbEntity
  8
Layer_1
 62
7
100
AcDbPolyline
 90
6
 70
0
 10
2.456031
 20
3.491790
 30
0.0
 10
1.455299
 20
3.266343
 30
0.0
 10
1.230624
 20
4.263768
 30
0.0
 10
2.231300
 20
4.489215
 30
0.0
 10
2.456031
 20
3.491790
 30
0.0
 10
2.456031
 20
3.491790
 30
0.0
  0
LWPOLYLINE
  5
1de
100
AcDbEntity
  8
Layer_1
 62
7
100
AcDbPolyline
 90
6
 70
0
 10
3.601677
 20
3.440197
 30
0.0
 10
2.593669
 20
3.250138
 30
0.0
 10
2.404271
 20
4.254838
 30
0.0
 10
3.412224
 20
4.444897
 30
0.0
 10
3.601677
 20
3.440197
 30
0.0
 10
3.601677
 20
3.440197
 30
0.0
  0
LWPOLYLINE
  5
1df
100
AcDbEntity
  8
Layer_1
 62
7
100
AcDbPolyline
 90
6
 70
0
 10
4.745889
 20
3.431432
 30
0.0
 10
3.733748
 20
3.264470
 30
0.0
 10
3.567336
 20
4.273304
 30
0.0
 10
4.579422
 20
4.440267
 30
0.0
 10
4.745889
 20
3.431432
 30
0.0
 10
4.745889
 20
3.431432
 30
0.0
  0
LWPOLYLINE
  5
1e0
100
AcDbEntity
  8
Layer_1
 62
7
100
AcDbPolyline
 90
6
 70
0
 10
13.131858
 20
3.428566
 30
0.0
 10
12.157309
 20
3.108751
 30
0.0
 10
11.840305
 20
4.080819
 30
0.0
 10
12.813145
 20
4.399973
 30
0.0
 10
13.131858
 20
3.428566
 30
0.0
 10
13.131858
 20
3.428566
 30
0.0
  0
LWPOLYLINE
  5
1e1
100
AcDbEntity
  8
Layer_1
 62
7
100
AcDbPolyline
 90
7
 70
0
 10
10.789689
 20
4.080323
 30
0.0
 10
10.474449
 20
3.110515
 30
0.0
 10
9.781889
 20
3.334384
 30
0.0
 10
9.498357
 20
3.427188
 30
0.0
 10
9.816408
 20
4.398870
 30
0.0
 10
10.789689
 20
4.080323
 30
0.0
 10
10.789689
 20
4.080323
 30
0.0
  0
LWPOLYLINE
  5
1e2
100
AcDbEntity
  8
Layer_1
 62
7
100
AcDbPolyline
 90
4
 70
0
 10
1.153068
 20
4.319936
 30
0.0
 10
1.151218
 20
4.319934
 30
0.0
 10
1.153068
 20
4.319936
 30
0.0
 10
1.153068
 20
4.319936
 30
0.0
  0
LWPOLYLINE
  5
1e3
100
AcDbEntity
  8
Layer_1
 62
7
100
AcDbPolyline
 90
6
 70
0
 10
9.560920
 20
4.152973
 30
0.0
 10
9.410383
 20
3.141714
 30
0.0
 10
8.395761
 20
3.292747
 30
0.0
 10
8.546353
 20
4.304006
 30
0.0
 10
9.560920
 20
4.152973
 30
0.0
 10
9.560920
 20
4.152973
 30
0.0
  0
LWPOLYLINE
  5
1e4
100
AcDbEntity
  8
Layer_1
 62
7
100
AcDbPolyline
 90
6
 70
0
 10
8.370626
 20
4.159919
 30
0.0
 10
8.276533
 20
3.141769
 30
0.0
 10
7.255076
 20
3.236137
 30
0.0
 10
7.349224
 20
4.254287
 30
0.0
 10
8.370626
 20
4.159919
 30
0.0
 10
8.370626
 20
4.159919
 30
0.0
  0
LWPOLYLINE
  5
1e5
100
AcDbEntity
  8
Layer_1
 62
7
100
AcDbPolyline
 90
6
 70
0
 10
7.197474
 20
4.175849
 30
0.0
 10
7.125816
 20
3.155935
 30
0.0
 10
6.102540
 20
3.227869
 30
0.0
 10
6.174253
 20
4.247782
 30
0.0
 10
7.197474
 20
4.175849
 30
0.0
 10
7.197474
 20
4.175849
 30
0.0
  0
LWPOLYLINE
  5
1e6
100
AcDbEntity
  8
Layer_1
 62
7
100
AcDbPolyline
 90
6
 70
0
 10
6.032646
 20
4.184227
 30
0.0
 10
5.974989
 20
3.163432
 30
0.0
 10
4.950831
 20
3.221309
 30
0.0
 10
5.008543
 20
4.242105
 30
0.0
 10
6.032646
 20
4.184227
 30
0.0
 10
6.032646
 20
4.184227
 30
0.0
  0
LWPOLYLINE
  5
1e7
100
AcDbEntity
  8
Layer_1
 62
7
100
AcDbPolyline
 90
6
 70
0
 10
12.041499
 20
3.310882
 30
0.0
 10
11.318415
 20
2.587963
 30
0.0
 10
10.593181
 20
3.313417
 30
0.0
 10
11.316320
 20
4.036281
 30
0.0
 10
12.041499
 20
3.310882
 30
0.0
 10
12.041499
 20
3.310882
 30
0.0
  0
LWPOLYLINE
  5
1e8
100
AcDbEntity
  8
Layer_1
 62
7
100
AcDbPolyline
 90
5
 70
0
 10
11.096606
 20
3.976695
 30
0.0
 10
10.770562
 20
3.650596
 30
0.0
 10
10.877057
 20
3.976695
 30
0.0
 10
11.096606
 20
3.976695
 30
0.0
 10
11.096606
 20
3.976695
 30
0.0
  0
LWPOLYLINE
  5
1e9
100
AcDbEntity
  8
Layer_1
 62
7
100
AcDbPolyline
 90
5
 70
0
 10
11.752607
 20
3.976695
 30
0.0
 10
11.859377
 20
3.653627
 30
0.0
 10
11.536310
 20
3.976695
 30
0.0
 10
11.752607
 20
3.976695
 30
0.0
 10
11.752607
 20
3.976695
 30
0.0
  0
LWPOLYLINE
  5
1ea
100
AcDbEntity
  8
Layer_1
 62
7
100
AcDbPolyline
 90
5
 70
0
 10
1.340040
 20
3.266674
 30
0.0
 10
0.734751
 20
3.238121
 30
0.0
 10
1.311267
 20
3.394556
 30
0.0
 10
1.340040
 20
3.266674
 30
0.0
 10
1.340040
 20
3.266674
 30
0.0
  0
LWPOLYLINE
  5
1eb
100
AcDbEntity
  8
Layer_1
 62
7
100
AcDbPolyline
 90
6
 70
0
 10
2.453991
 20
3.374602
 30
0.0
 10
2.464942
 20
3.331206
 30
0.0
 10
2.471189
 20
3.286628
 30
0.0
 10
1.955692
 20
3.263698
 30
0.0
 10
2.453991
 20
3.374602
 30
0.0
 10
2.453991
 20
3.374602
 30
0.0
  0
LWPOLYLINE
  5
1ec
100
AcDbEntity
  8
Layer_1
 62
7
100
AcDbPolyline
 90
4
 70
0
 10
9.510925
 20
3.349853
 30
0.0
 10
9.509475
 20
3.348087
 30
0.0
 10
9.510925
 20
3.349853
 30
0.0
 10
9.510925
 20
3.349853
 30
0.0
  0
LWPOLYLINE
  5
1ed
100
AcDbEntity
  8
Layer_1
 62
7
100
AcDbPolyline
 90
8
 70
0
 10
4.844446
 20
3.330780
 30
0.0
 10
4.843330
 20
3.293149
 30
0.0
 10
4.840508
 20
3.275310
 30
0.0
 10
4.832433
 20
3.264090
 30
0.0
 10
4.329667
 20
3.248925
 30
0.0
 10
4.843895
 20
3.333867
 30
0.0
 10
4.844445
 20
3.330780
 30
0.0
 10
4.844446
 20
3.330780
 30
0.0
  0
LWPOLYLINE
  5
1ee
100
AcDbEntity
  8
Layer_1
 62
7
100
AcDbPolyline
 90
6
 70
0
 10
3.610551
 20
3.322733
 30
0.0
 10
3.620694
 20
3.253500
 30
0.0
 10
3.134907
 20
3.237570
 30
0.0
 10
3.608897
 20
3.327032
 30
0.0
 10
3.610551
 20
3.322733
 30
0.0
 10
3.610551
 20
3.322733
 30
0.0
  0
LWPOLYLINE
  5
1ef
100
AcDbEntity
  8
Layer_1
 62
7
100
AcDbPolyline
 90
6
 70
0
 10
9.542950
 20
3.294566
 30
0.0
 10
9.536772
 20
3.299184
 30
0.0
 10
9.540451
 20
3.303836
 30
0.0
 10
9.545379
 20
3.303853
 30
0.0
 10
9.542950
 20
3.294566
 30
0.0
 10
9.542950
 20
3.294566
 30
0.0
  0
LWPOLYLINE
  5
1f0
100
AcDbEntity
  8
Layer_1
 62
7
100
AcDbPolyline
 90
6
 70
0
 10
13.114109
 20
3.108917
 30
0.0
 10
12.783049
 20
2.397297
 30
0.0
 10
12.319477
 20
3.043101
 30
0.0
 10
13.087706
 20
3.294896
 30
0.0
 10
13.114109
 20
3.108917
 30
0.0
 10
13.114109
 20
3.108917
 30
0.0
  0
LWPOLYLINE
  5
1f1
100
AcDbEntity
  8
Layer_1
 62
7
100
AcDbPolyline
 90
10
 70
0
 10
9.733616
 20
3.231341
 30
0.0
 10
10.302360
 20
3.044424
 30
0.0
 10
9.842260
 20
2.416480
 30
0.0
 10
9.559934
 20
3.036803
 30
0.0
 10
9.535373
 20
3.097181
 30
0.0
 10
9.528787
 20
3.161554
 30
0.0
 10
9.534851
 20
3.227055
 30
0.0
 10
9.548242
 20
3.290817
 30
0.0
 10
9.733616
 20
3.231341
 30
0.0
 10
9.733616
 20
3.231341
 30
0.0
  0
LWPOLYLINE
  5
1f2
100
AcDbEntity
  8
Layer_1
 62
7
100
AcDbPolyline
 90
9
 70
0
 10
9.121050
 20
3.070607
 30
0.0
 10
8.477947
 20
2.781109
 30
0.0
 10
8.386655
 20
3.106902
 30
0.0
 10
8.387475
 20
3.141727
 30
0.0
 10
8.395314
 20
3.167607
 30
0.0
 10
8.414451
 20
3.179086
 30
0.0
 10
8.449164
 20
3.170713
 30
0.0
 10
9.121050
 20
3.070607
 30
0.0
 10
9.121050
 20
3.070607
 30
0.0
  0
LWPOLYLINE
  5
1f3
100
AcDbEntity
  8
Layer_1
 62
7
100
AcDbPolyline
 90
6
 70
0
 10
2.544170
 20
2.152833
 30
0.0
 10
1.519406
 20
2.107303
 30
0.0
 10
1.474041
 20
3.128705
 30
0.0
 10
2.498750
 20
3.174235
 30
0.0
 10
2.544170
 20
2.152833
 30
0.0
 10
2.544170
 20
2.152833
 30
0.0
  0
LWPOLYLINE
  5
1f4
100
AcDbEntity
  8
Layer_1
 62
7
100
AcDbPolyline
 90
6
 70
0
 10
1.403209
 20
2.132549
 30
0.0
 10
0.378610
 20
2.084373
 30
0.0
 10
0.330600
 20
3.105664
 30
0.0
 10
1.355199
 20
3.153840
 30
0.0
 10
1.403209
 20
2.132549
 30
0.0
 10
1.403209
 20
2.132549
 30
0.0
  0
LWPOLYLINE
  5
1f5
100
AcDbEntity
  8
Layer_1
 62
7
100
AcDbPolyline
 90
6
 70
0
 10
4.803712
 20
2.126982
 30
0.0
 10
3.778341
 20
2.096334
 30
0.0
 10
3.747804
 20
3.118287
 30
0.0
 10
4.773119
 20
3.148935
 30
0.0
 10
4.803712
 20
2.126982
 30
0.0
 10
4.803712
 20
2.126982
 30
0.0
  0
LWPOLYLINE
  5
1f6
100
AcDbEntity
  8
Layer_1
 62
7
100
AcDbPolyline
 90
4
 70
0
 10
10.604260
 20
3.144084
 30
0.0
 10
10.614348
 20
3.134979
 30
0.0
 10
10.604260
 20
3.144084
 30
0.0
 10
10.604260
 20
3.144084
 30
0.0
  0
LWPOLYLINE
  5
1f7
100
AcDbEntity
  8
Layer_1
 62
7
100
AcDbPolyline
 90
6
 70
0
 10
3.668098
 20
2.118768
 30
0.0
 10
2.642948
 20
2.084979
 30
0.0
 10
2.609324
 20
3.106877
 30
0.0
 10
3.634474
 20
3.140667
 30
0.0
 10
3.668098
 20
2.118768
 30
0.0
 10
3.668098
 20
2.118768
 30
0.0
  0
LWPOLYLINE
  5
1f8
100
AcDbEntity
  8
Layer_1
 62
7
100
AcDbPolyline
 90
7
 70
0
 10
7.936709
 20
3.060520
 30
0.0
 10
7.281424
 20
2.873823
 30
0.0
 10
7.254836
 20
2.998942
 30
0.0
 10
7.242966
 20
3.061601
 30
0.0
 10
7.238705
 20
3.124792
 30
0.0
 10
7.936709
 20
3.060520
 30
0.0
 10
7.936709
 20
3.060520
 30
0.0
  0
LWPOLYLINE
  5
1f9
100
AcDbEntity
  8
Layer_1
 62
7
100
AcDbPolyline
 90
5
 70
0
 10
6.743824
 20
3.069670
 30
0.0
 10
6.110202
 20
2.939749
 30
0.0
 10
6.086059
 20
3.115917
 30
0.0
 10
6.743824
 20
3.069670
 30
0.0
 10
6.743824
 20
3.069670
 30
0.0
  0
LWPOLYLINE
  5
1fa
100
AcDbEntity
  8
Layer_1
 62
7
100
AcDbPolyline
 90
5
 70
0
 10
5.557499
 20
3.074025
 30
0.0
 10
4.891575
 20
2.966923
 30
0.0
 10
4.887166
 20
3.111838
 30
0.0
 10
5.557499
 20
3.074025
 30
0.0
 10
5.557499
 20
3.074025
 30
0.0
  0
LWPOLYLINE
  5
1fb
100
AcDbEntity
  8
Layer_1
 62
7
100
AcDbPolyline
 90
7
 70
0
 10
10.482717
 20
3.090285
 30
0.0
 10
11.301989
 20
2.487972
 30
0.0
 10
10.696423
 20
1.661756
 30
0.0
 10
9.871805
 20
2.266218
 30
0.0
 10
10.477260
 20
3.092104
 30
0.0
 10
10.482717
 20
3.090287
 30
0.0
 10
10.482717
 20
3.090285
 30
0.0
  0
LWPOLYLINE
  5
1fc
100
AcDbEntity
  8
Layer_1
 62
7
100
AcDbPolyline
 90
6
 70
0
 10
12.746889
 20
2.251832
 30
0.0
 10
11.915987
 20
1.656023
 30
0.0
 10
11.319462
 20
2.487807
 30
0.0
 10
12.149096
 20
3.085379
 30
0.0
 10
12.746889
 20
2.251832
 30
0.0
 10
12.746889
 20
2.251832
 30
0.0
  0
LWPOLYLINE
  5
1fd
100
AcDbEntity
  8
Layer_1
 62
7
100
AcDbPolyline
 90
6
 70
0
 10
9.838181
 20
2.148314
 30
0.0
 10
8.902769
 20
1.727295
 30
0.0
 10
8.483184
 20
2.659621
 30
0.0
 10
9.418541
 20
3.080584
 30
0.0
 10
9.838181
 20
2.148314
 30
0.0
 10
9.838181
 20
2.148314
 30
0.0
  0
LWPOLYLINE
  5
1fe
100
AcDbEntity
  8
Layer_1
 62
7
100
AcDbPolyline
 90
6
 70
0
 10
8.565150
 20
2.058355
 30
0.0
 10
7.578639
 20
1.777401
 30
0.0
 10
7.298567
 20
2.760714
 30
0.0
 10
8.285077
 20
3.041723
 30
0.0
 10
8.565150
 20
2.058355
 30
0.0
 10
8.565150
 20
2.058355
 30
0.0
  0
LWPOLYLINE
  5
1ff
100
AcDbEntity
  8
Layer_1
 62
7
100
AcDbPolyline
 90
6
 70
0
 10
7.338696
 20
2.032448
 30
0.0
 10
6.333885
 20
1.826239
 30
0.0
 10
6.128337
 20
2.827852
 30
0.0
 10
7.133203
 20
3.034061
 30
0.0
 10
7.338696
 20
2.032448
 30
0.0
 10
7.338696
 20
2.032448
 30
0.0
  0
LWPOLYLINE
  5
200
100
AcDbEntity
  8
Layer_1
 62
7
100
AcDbPolyline
 90
6
 70
0
 10
6.143826
 20
2.018172
 30
0.0
 10
5.131023
 20
1.855232
 30
0.0
 10
4.968635
 20
2.864728
 30
0.0
 10
5.981438
 20
3.027667
 30
0.0
 10
6.143826
 20
2.018172
 30
0.0
 10
6.143826
 20
2.018172
 30
0.0
  0
LWPOLYLINE
  5
201
100
AcDbEntity
  8
Layer_1
 62
7
100
AcDbPolyline
 90
23
 70
0
 10
5.036766
 20
1.733138
 30
0.0
 10
5.061727
 20
1.729426
 30
0.0
 10
5.092757
 20
1.734048
 30
0.0
 10
5.156262
 20
1.745268
 30
0.0
 10
5.760897
 20
1.842775
 30
0.0
 10
5.080311
 20
1.572955
 30
0.0
 10
5.464343
 20
0.605462
 30
0.0
 10
4.767166
 20
0.604802
 30
0.0
 10
4.755751
 20
0.663791
 30
0.0
 10
4.737982
 20
0.685396
 30
0.0
 10
4.708578
 20
0.693131
 30
0.0
 10
4.239543
 20
0.806491
 30
0.0
 10
4.798420
 20
0.751921
 30
0.0
 10
4.919742
 20
1.994415
 30
0.0
 10
4.734754
 20
2.012385
 30
0.0
 10
4.879393
 20
2.016023
 30
0.0
 10
4.902049
 20
2.024732
 30
0.0
 10
4.915947
 20
2.041922
 30
0.0
 10
4.921278
 20
2.064292
 30
0.0
 10
4.918233
 20
2.088543
 30
0.0
 10
4.903922
 20
2.558474
 30
0.0
 10
5.036766
 20
1.733139
 30
0.0
 10
5.036766
 20
1.733138
 30
0.0
  0
LWPOLYLINE
  5
202
100
AcDbEntity
  8
Layer_1
 62
7
100
AcDbPolyline
 90
8
 70
0
 10
11.367032
 20
2.229453
 30
0.0
 10
11.796484
 20
1.635463
 30
0.0
 10
11.387226
 20
1.634076
 30
0.0
 10
10.978052
 20
1.638127
 30
0.0
 10
10.821494
 20
1.640314
 30
0.0
 10
11.309981
 20
2.307505
 30
0.0
 10
11.367032
 20
2.229453
 30
0.0
 10
11.367032
 20
2.229453
 30
0.0
  0
LWPOLYLINE
  5
203
100
AcDbEntity
  8
Layer_1
 62
7
100
AcDbPolyline
 90
6
 70
0
 10
10.734788
 20
1.542804
 30
0.0
 10
10.174533
 20
0.683569
 30
0.0
 10
9.318055
 20
1.242061
 30
0.0
 10
9.878365
 20
2.101295
 30
0.0
 10
10.734788
 20
1.542804
 30
0.0
 10
10.734788
 20
1.542804
 30
0.0
  0
LWPOLYLINE
  5
204
100
AcDbEntity
  8
Layer_1
 62
7
100
AcDbPolyline
 90
6
 70
0
 10
13.288072
 20
1.214224
 30
0.0
 10
12.423601
 20
0.668025
 30
0.0
 10
11.875638
 20
1.535252
 30
0.0
 10
12.740054
 20
2.081396
 30
0.0
 10
13.288072
 20
1.214224
 30
0.0
 10
13.288072
 20
1.214224
 30
0.0
  0
LWPOLYLINE
  5
205
100
AcDbEntity
  8
Layer_1
 62
7
100
AcDbPolyline
 90
8
 70
0
 10
2.528956
 20
2.019936
 30
0.0
 10
2.521081
 20
1.959521
 30
0.0
 10
2.504784
 20
1.944745
 30
0.0
 10
2.471914
 20
1.951450
 30
0.0
 10
1.997971
 20
2.015801
 30
0.0
 10
2.530004
 20
2.039614
 30
0.0
 10
2.528957
 20
2.019936
 30
0.0
 10
2.528956
 20
2.019936
 30
0.0
  0
LWPOLYLINE
  5
206
100
AcDbEntity
  8
Layer_1
 62
7
100
AcDbPolyline
 90
8
 70
0
 10
1.405966
 20
2.017125
 30
0.0
 10
1.400822
 20
1.965729
 30
0.0
 10
1.394162
 20
1.944935
 30
0.0
 10
1.374597
 20
1.942010
 30
0.0
 10
1.009256
 20
2.001084
 30
0.0
 10
1.406241
 20
2.021865
 30
0.0
 10
1.405959
 20
2.017125
 30
0.0
 10
1.405966
 20
2.017125
 30
0.0
  0
LWPOLYLINE
  5
207
100
AcDbEntity
  8
Layer_1
 62
7
100
AcDbPolyline
 90
9
 70
0
 10
3.664625
 20
2.006321
 30
0.0
 10
3.652699
 20
1.992889
 30
0.0
 10
3.631226
 20
1.992354
 30
0.0
 10
3.584721
 20
1.997642
 30
0.0
 10
3.553742
 20
2.000668
 30
0.0
 10
3.562020
 20
2.002566
 30
0.0
 10
3.621847
 20
2.004893
 30
0.0
 10
3.664625
 20
2.006321
 30
0.0
 10
3.664625
 20
2.006321
 30
0.0
  0
LWPOLYLINE
  5
208
100
AcDbEntity
  8
Layer_1
 62
7
100
AcDbPolyline
 90
6
 70
0
 10
4.795939
 20
1.891833
 30
0.0
 10
4.696610
 20
0.874180
 30
0.0
 10
3.675650
 20
0.973839
 30
0.0
 10
3.774978
 20
1.991493
 30
0.0
 10
4.795939
 20
1.891833
 30
0.0
 10
4.795939
 20
1.891833
 30
0.0
  0
LWPOLYLINE
  5
209
100
AcDbEntity
  8
Layer_1
 62
7
100
AcDbPolyline
 90
6
 70
0
 10
3.658672
 20
1.874801
 30
0.0
 10
3.544295
 20
0.858801
 30
0.0
 10
2.524877
 20
0.973619
 30
0.0
 10
2.639420
 20
1.989674
 30
0.0
 10
3.658672
 20
1.874801
 30
0.0
 10
3.658672
 20
1.874801
 30
0.0
  0
LWPOLYLINE
  5
20a
100
AcDbEntity
  8
Layer_1
 62
7
100
AcDbPolyline
 90
6
 70
0
 10
1.386177
 20
1.824916
 30
0.0
 10
1.222962
 20
0.815530
 30
0.0
 10
0.210269
 20
0.979296
 30
0.0
 10
0.373594
 20
1.988627
 30
0.0
 10
1.386177
 20
1.824916
 30
0.0
 10
1.386177
 20
1.824916
 30
0.0
  0
LWPOLYLINE
  5
20b
100
AcDbEntity
  8
Layer_1
 62
7
100
AcDbPolyline
 90
6
 70
0
 10
9.227490
 20
1.153205
 30
0.0
 10
8.409266
 20
0.534466
 30
0.0
 10
7.792566
 20
1.349934
 30
0.0
 10
8.610680
 20
1.968728
 30
0.0
 10
9.227490
 20
1.153205
 30
0.0
 10
9.227490
 20
1.153205
 30
0.0
  0
LWPOLYLINE
  5
20c
100
AcDbEntity
  8
Layer_1
 62
7
100
AcDbPolyline
 90
6
 70
0
 10
2.529728
 20
1.828003
 30
0.0
 10
2.391593
 20
0.814979
 30
0.0
 10
1.375263
 20
0.953610
 30
0.0
 10
1.513397
 20
1.966688
 30
0.0
 10
2.529728
 20
1.828003
 30
0.0
 10
2.529728
 20
1.828003
 30
0.0
  0
LWPOLYLINE
  5
20d
100
AcDbEntity
  8
Layer_1
 62
7
100
AcDbPolyline
 90
5
 70
0
 10
9.238624
 20
1.327168
 30
0.0
 10
8.997909
 20
1.645826
 30
0.0
 10
9.633295
 20
1.931741
 30
0.0
 10
9.238624
 20
1.327168
 30
0.0
 10
9.238624
 20
1.327168
 30
0.0
  0
LWPOLYLINE
  5
20e
100
AcDbEntity
  8
Layer_1
 62
7
100
AcDbPolyline
 90
6
 70
0
 10
7.849066
 20
1.009227
 30
0.0
 10
6.937852
 20
0.538324
 30
0.0
 10
6.468492
 20
1.446617
 30
0.0
 10
7.379706
 20
1.917520
 30
0.0
 10
7.849066
 20
1.009227
 30
0.0
 10
7.849066
 20
1.009227
 30
0.0
  0
LWPOLYLINE
  5
20f
100
AcDbEntity
  8
Layer_1
 62
7
100
AcDbPolyline
 90
5
 70
0
 10
13.614998
 20
1.614131
 30
0.0
 10
13.371912
 20
1.293875
 30
0.0
 10
12.983195
 20
1.909362
 30
0.0
 10
13.614998
 20
1.614131
 30
0.0
 10
13.614998
 20
1.614131
 30
0.0
  0
LWPOLYLINE
  5
210
100
AcDbEntity
  8
Layer_1
 62
7
100
AcDbPolyline
 90
6
 70
0
 10
6.557017
 20
0.936853
 30
0.0
 10
5.603580
 20
0.558499
 30
0.0
 10
5.226439
 20
1.508849
 30
0.0
 10
6.179931
 20
1.887203
 30
0.0
 10
6.557017
 20
0.936853
 30
0.0
 10
6.557017
 20
0.936853
 30
0.0
  0
LWPOLYLINE
  5
211
100
AcDbEntity
  8
Layer_1
 62
7
100
AcDbPolyline
 90
5
 70
0
 10
7.745547
 20
1.456484
 30
0.0
 10
7.632328
 20
1.675922
 30
0.0
 10
8.280006
 20
1.860359
 30
0.0
 10
7.745547
 20
1.456484
 30
0.0
 10
7.745547
 20
1.456484
 30
0.0
  0
LWPOLYLINE
  5
212
100
AcDbEntity
  8
Layer_1
 62
7
100
AcDbPolyline
 90
6
 70
0
 10
6.734729
 20
1.711917
 30
0.0
 10
6.433049
 20
1.556970
 30
0.0
 10
6.369328
 20
1.718807
 30
0.0
 10
6.997493
 20
1.847791
 30
0.0
 10
6.734729
 20
1.711917
 30
0.0
 10
6.734729
 20
1.711917
 30
0.0
  0
LWPOLYLINE
  5
213
100
AcDbEntity
  8
Layer_1
 62
7
100
AcDbPolyline
 90
7
 70
0
 10
10.678840
 20
1.108281
 30
0.0
 10
10.673658
 20
0.609541
 30
0.0
 10
10.470918
 20
0.604814
 30
0.0
 10
10.270334
 20
0.624645
 30
0.0
 10
10.679942
 20
1.252589
 30
0.0
 10
10.678838
 20
1.108281
 30
0.0
 10
10.678840
 20
1.108281
 30
0.0
  0
LWPOLYLINE
  5
214
100
AcDbEntity
  8
Layer_1
 62
7
100
AcDbPolyline
 90
7
 70
0
 10
11.966148
 20
1.180986
 30
0.0
 10
12.320304
 20
0.616707
 30
0.0
 10
12.122202
 20
0.605269
 30
0.0
 10
11.923263
 20
0.605738
 30
0.0
 10
11.927949
 20
1.242447
 30
0.0
 10
11.966148
 20
1.180986
 30
0.0
 10
11.966148
 20
1.180986
 30
0.0
  0
LWPOLYLINE
  5
215
100
AcDbEntity
  8
Layer_1
 62
7
100
AcDbPolyline
 90
5
 70
0
 10
13.957358
 20
0.605187
 30
0.0
 10
13.772425
 20
0.605187
 30
0.0
 10
13.608494
 20
0.868392
 30
0.0
 10
13.957358
 20
0.605187
 30
0.0
 10
13.957358
 20
0.605187
 30
0.0
  0
LWPOLYLINE
  5
216
100
AcDbEntity
  8
Layer_1
 62
7
100
AcDbPolyline
 90
5
 70
0
 10
8.872342
 20
0.605187
 30
0.0
 10
8.689338
 20
0.605187
 30
0.0
 10
9.033297
 20
0.865250
 30
0.0
 10
8.872342
 20
0.605187
 30
0.0
 10
8.872342
 20
0.605187
 30
0.0
  0
LWPOLYLINE
  5
217
100
AcDbEntity
  8
Layer_1
 62
7
100
AcDbPolyline
 90
9
 70
0
 10
1.189338
 20
0.707768
 30
0.0
 10
1.172418
 20
0.654358
 30
0.0
 10
1.151194
 20
0.604690
 30
0.0
 10
1.088893
 20
0.609268
 30
0.0
 10
1.029357
 20
0.628732
 30
0.0
 10
0.912073
 20
0.676811
 30
0.0
 10
0.590057
 20
0.804671
 30
0.0
 10
1.189338
 20
0.707768
 30
0.0
 10
1.189338
 20
0.707768
 30
0.0
  0
LWPOLYLINE
  5
218
100
AcDbEntity
  8
Layer_1
 62
7
100
AcDbPolyline
 90
6
 70
0
 10
3.515025
 20
0.749329
 30
0.0
 10
3.508997
 20
0.712847
 30
0.0
 10
3.498048
 20
0.676955
 30
0.0
 10
3.032547
 20
0.803734
 30
0.0
 10
3.515025
 20
0.749329
 30
0.0
 10
3.515025
 20
0.749329
 30
0.0
  0
LWPOLYLINE
  5
219
100
AcDbEntity
  8
Layer_1
 62
7
100
AcDbPolyline
 90
6
 70
0
 10
2.047966
 20
0.749104
 30
0.0
 10
2.345953
 20
0.709196
 30
0.0
 10
2.323794
 20
0.617584
 30
0.0
 10
1.818330
 20
0.780247
 30
0.0
 10
2.047966
 20
0.749104
 30
0.0
 10
2.047966
 20
0.749104
 30
0.0
  0
LWPOLYLINE
  5
21a
100
AcDbEntity
  8
Layer_1
 62
7
100
AcDbPolyline
 90
7
 70
0
 10
7.470767
 20
0.645144
 30
0.0
 10
7.439209
 20
0.617096
 30
0.0
 10
7.399323
 20
0.605175
 30
0.0
 10
7.313836
 20
0.605457
 30
0.0
 10
7.570757
 20
0.738189
 30
0.0
 10
7.470767
 20
0.645144
 30
0.0
 10
7.470767
 20
0.645144
 30
0.0
  0
LWPOLYLINE
  5
21b
100
AcDbEntity
  8
Layer_1
 62
7
100
AcDbPolyline
 90
11
 70
0
 10
6.211901
 20
0.676398
 30
0.0
 10
6.171864
 20
0.645436
 30
0.0
 10
6.127491
 20
0.621682
 30
0.0
 10
6.079572
 20
0.606780
 30
0.0
 10
6.028898
 20
0.602370
 30
0.0
 10
6.070027
 20
0.622534
 30
0.0
 10
6.131825
 20
0.646735
 30
0.0
 10
6.183645
 20
0.667621
 30
0.0
 10
6.207402
 20
0.676863
 30
0.0
 10
6.211901
 20
0.676398
 30
0.0
 10
6.211901
 20
0.676398
 30
0.0
  0
ENDSEC
  0
SECTION
  2
OBJECTS
  0
DICTIONARY
  5
C
330
0
100
AcDbDictionary
  3
ACAD_GROUP
350
D
  3
ACAD_MLINESTYLE
350
17
  0
DICTIONARY
  5
D
330
C
100
AcDbDictionary
  0
DICTIONARY
  5
1A
330
C
100
AcDbDictionary
  0
DICTIONARY
  5
17
330
C
100
AcDbDictionary
  3
STANDARD
350
18
  0
DICTIONARY
  5
19
330
C
100
AcDbDictionary
  0
ENDSEC
  0
EOF
