  0
SECTION
  2
HEADER
  9
$ACADVER
  1
AC1014
  9
$HANDSEED
  5
FFFF
  9
$MEASUREMENT
 70
     1
  0
ENDSEC
  0
SECTION
  2
TABLES
  0
TABLE
  2
VPORT
  5
8
330
0
100
AcDbSymbolTable
 70
     4
  0
VPORT
  5
2E
330
8
100
AcDbSymbolTableRecord
100
AcDbViewportTableRecord
  2
*ACTIVE
 70
     0
 10
0.0
 20
0.0
 11
1.0
 21
1.0
 12
210.0
 22
148.5
 13
0.0
 23
0.0
 14
10.0
 24
10.0
 15
10.0
 25
10.0
 16
0.0
 26
0.0
 36
1.0
 17
0.0
 27
0.0
 37
0.0
 40
341.0
 41
1.24
 42
50.0
 43
0.0
 44
0.0
 50
0.0
 51
0.0
 71
     0
 72
   100
 73
     1
 74
     3
 75
     0
 76
     0
 77
     0
 78
     0
  0
ENDTAB
  0
TABLE
  2
LTYPE
  5
5
330
0
100
AcDbSymbolTable
 70
     1
  0
LTYPE
  5
14
330
5
100
AcDbSymbolTableRecord
100
AcDbLinetypeTableRecord
  2
BYBLOCK
 70
     0
  3

 72
    65
 73
     0
 40
0.0
  0
LTYPE
  5
15
330
5
100
AcDbSymbolTableRecord
100
AcDbLinetypeTableRecord
  2
BYLAYER
 70
     0
  3

 72
    65
 73
     0
 40
0.0
  0
LTYPE
  5
16
330
5
100
AcDbSymbolTableRecord
100
AcDbLinetypeTableRecord
  2
CONTINUOUS
 70
     0
  3
Solid line
 72
    65
 73
     0
 40
0.0
  0
ENDTAB
  0
TABLE
  2
LAYER
  5
2
100
AcDbSymbolTable
 70
2
  0
LAYER
  5
50
100
AcDbSymbolTableRecord
100
AcDbLayerTableRecord
  2
0
 70
0
  6
CONTINUOUS
  0
LAYER
  5
51
100
AcDbSymbolTableRecord
100
AcDbLayerTableRecord
  2
Layer_1
 70
0
  6
CONTINUOUS
  0
ENDTAB
  0
TABLE
  2
STYLE
  5
3
330
0
100
AcDbSymbolTable
 70
     1
  0
STYLE
  5
11
330
3
100
AcDbSymbolTableRecord
100
AcDbTextStyleTableRecord
  2
STANDARD
 70
     0
 40
0.0
 41
1.0
 50
0.0
 71
     0
 42
2.5
  3
txt
  4

  0
ENDTAB
  0
TABLE
  2
VIEW
  5
6
330
0
100
AcDbSymbolTable
 70
     0
  0
ENDTAB
  0
TABLE
  2
UCS
  5
7
330
0
100
AcDbSymbolTable
 70
     0
  0
ENDTAB
  0
TABLE
  2
APPID
  5
9
330
0
100
AcDbSymbolTable
 70
     2
  0
APPID
  5
12
330
9
100
AcDbSymbolTableRecord
100
AcDbRegAppTableRecord
  2
ACAD
 70
     0
  0
ENDTAB
  0
TABLE
  2
DIMSTYLE
  5
A
330
0
100
AcDbSymbolTable
 70
     1
  0
DIMSTYLE
105
27
330
A
100
AcDbSymbolTableRecord
100
AcDbDimStyleTableRecord
  2
ISO-25
 70
     0
  3

  4

  5

  6

  7

 40
1.0
 41
2.5
 42
0.625
 43
3.75
 44
1.25
 45
0.0
 46
0.0
 47
0.0
 48
0.0
140
2.5
141
2.5
142
0.0
143
0.03937007874016
144
1.0
145
0.0
146
1.0
147
0.625
 71
     0
 72
     0
 73
     0
 74
     0
 75
     0
 76
     0
 77
     1
 78
     8
170
     0
171
     3
172
     1
173
     0
174
     0
175
     0
176
     0
177
     0
178
     0
270
     2
271
     2
272
     2
273
     2
274
     3
340
11
275
     0
280
     0
281
     0
282
     0
283
     0
284
     8
285
     0
286
     0
287
     3
288
     0
  0
ENDTAB
  0
TABLE
  2
BLOCK_RECORD
  5
1
330
0
100
AcDbSymbolTable
 70
     1
  0
BLOCK_RECORD
  5
1F
330
1
100
AcDbSymbolTableRecord
100
AcDbBlockTableRecord
  2
*MODEL_SPACE
  0
BLOCK_RECORD
  5
1B
330
1
100
AcDbSymbolTableRecord
100
AcDbBlockTableRecord
  2
*PAPER_SPACE
  0
ENDTAB
  0
ENDSEC
  0
SECTION
  2
BLOCKS
  0
BLOCK
  5
20
330
1F
100
AcDbEntity
  8
0
100
AcDbBlockBegin
  2
*MODEL_SPACE
 70
     0
 10
0.0
 20
0.0
 30
0.0
  3
*MODEL_SPACE
  1

  0
ENDBLK
  5
21
330
1F
100
AcDbEntity
  8
0
100
AcDbBlockEnd
  0
BLOCK
  5
1C
330
1B
100
AcDbEntity
 67
     1
  8
0
100
AcDbBlockBegin
  2
*PAPER_SPACE
  1

  0
ENDBLK
  5
1D
330
1B
100
AcDbEntity
 67
     1
  8
0
100
AcDbBlockEnd
  0
ENDSEC
  0
SECTION
  2
ENTITIES
  0
LWPOLYLINE
  5
100
100
AcDbEntity
  8
Layer_1
 62
7
100
AcDbPolyline
 90
16
 70
0
 10
0.000028
 20
20.999986
 30
0.0
 10
0.000028
 20
20.500032
 30
0.0
 10
4.853376
 20
20.500032
 30
0.0
 10
4.869995
 20
20.463613
 30
0.0
 10
4.886288
 20
20.453364
 30
0.0
 10
4.906744
 20
20.452850
 30
0.0
 10
4.935795
 20
20.471173
 30
0.0
 10
4.942727
 20
20.500032
 30
0.0
 10
14.000028
 20
20.500032
 30
0.0
 10
14.000028
 20
20.999986
 30
0.0
 10
13.500072
 20
20.999986
 30
0.0
 10
13.500072
 20
20.600023
 30
0.0
 10
0.500041
 20
20.600023
 30
0.0
 10
0.500041
 20
20.999986
 30
0.0
 10
0.000028
 20
20.999986
 30
0.0
 10
0.000028
 20
20.999986
 30
0.0
  0
LWPOLYLINE
  5
101
100
AcDbEntity
  8
Layer_1
 62
7
100
AcDbPolyline
 90
14
 70
0
 10
9.737485
 20
19.946281
 30
0.0
 10
9.718251
 20
19.943142
 30
0.0
 10
9.705535
 20
19.932386
 30
0.0
 10
9.698189
 20
19.898410
 30
0.0
 10
9.712502
 20
19.865121
 30
0.0
 10
9.726860
 20
19.855226
 30
0.0
 10
9.745528
 20
19.853292
 30
0.0
 10
9.763947
 20
19.859034
 30
0.0
 10
9.776506
 20
19.870871
 30
0.0
 10
9.784666
 20
19.904000
 30
0.0
 10
9.771246
 20
19.935021
 30
0.0
 10
9.756831
 20
19.944225
 30
0.0
 10
9.737485
 20
19.946281
 30
0.0
 10
9.737485
 20
19.946281
 30
0.0
  0
LWPOLYLINE
  5
102
100
AcDbEntity
  8
Layer_1
 62
7
100
AcDbPolyline
 90
14
 70
0
 10
13.178818
 20
19.770499
 30
0.0
 10
13.178254
 20
19.763443
 30
0.0
 10
13.178254
 20
19.762456
 30
0.0
 10
13.167956
 20
19.694209
 30
0.0
 10
13.171900
 20
19.662069
 30
0.0
 10
13.197134
 20
19.639867
 30
0.0
 10
13.366020
 20
19.629734
 30
0.0
 10
13.450218
 20
19.633835
 30
0.0
 10
13.533064
 20
19.650614
 30
0.0
 10
13.449122
 20
19.692711
 30
0.0
 10
13.361088
 20
19.724959
 30
0.0
 10
13.178846
 20
19.770505
 30
0.0
 10
13.178846
 20
19.770505
 30
0.0
 10
13.178818
 20
19.770499
 30
0.0
  0
LWPOLYLINE
  5
103
100
AcDbEntity
  8
Layer_1
 62
7
100
AcDbPolyline
 90
12
 70
0
 10
13.567862
 20
19.765264
 30
0.0
 10
13.549834
 20
19.762665
 30
0.0
 10
13.537143
 20
19.753370
 30
0.0
 10
13.527222
 20
19.723120
 30
0.0
 10
13.536985
 20
19.691370
 30
0.0
 10
13.565322
 20
19.674975
 30
0.0
 10
13.595388
 20
19.684271
 30
0.0
 10
13.610548
 20
19.710532
 30
0.0
 10
13.608033
 20
19.740898
 30
0.0
 10
13.585077
 20
19.762506
 30
0.0
 10
13.567862
 20
19.765272
 30
0.0
 10
13.567862
 20
19.765264
 30
0.0
  0
LWPOLYLINE
  5
104
100
AcDbEntity
  8
Layer_1
 62
7
100
AcDbPolyline
 90
13
 70
0
 10
3.655963
 20
19.673321
 30
0.0
 10
3.638043
 20
19.670844
 30
0.0
 10
3.625530
 20
19.661859
 30
0.0
 10
3.615933
 20
19.632343
 30
0.0
 10
3.625582
 20
19.600730
 30
0.0
 10
3.652887
 20
19.582976
 30
0.0
 10
3.672842
 20
19.584709
 30
0.0
 10
3.686995
 20
19.593741
 30
0.0
 10
3.698314
 20
19.624566
 30
0.0
 10
3.687689
 20
19.657183
 30
0.0
 10
3.674411
 20
19.668454
 30
0.0
 10
3.655963
 20
19.673321
 30
0.0
 10
3.655963
 20
19.673321
 30
0.0
  0
LWPOLYLINE
  5
105
100
AcDbEntity
  8
Layer_1
 62
7
100
AcDbPolyline
 90
13
 70
0
 10
3.545106
 20
19.560322
 30
0.0
 10
3.535031
 20
19.559504
 30
0.0
 10
3.517229
 20
19.553919
 30
0.0
 10
3.506243
 20
19.541571
 30
0.0
 10
3.502575
 20
19.507067
 30
0.0
 10
3.519735
 20
19.476953
 30
0.0
 10
3.534785
 20
19.470093
 30
0.0
 10
3.553432
 20
19.472190
 30
0.0
 10
3.579861
 20
19.491149
 30
0.0
 10
3.585856
 20
19.520625
 30
0.0
 10
3.573557
 20
19.547919
 30
0.0
 10
3.545106
 20
19.560331
 30
0.0
 10
3.545106
 20
19.560322
 30
0.0
  0
LWPOLYLINE
  5
106
100
AcDbEntity
  8
Layer_1
 62
7
100
AcDbPolyline
 90
18
 70
0
 10
3.780113
 20
19.557015
 30
0.0
 10
3.778702
 20
19.550069
 30
0.0
 10
3.777573
 20
19.544225
 30
0.0
 10
3.763592
 20
19.490780
 30
0.0
 10
3.737102
 20
19.440265
 30
0.0
 10
3.750106
 20
19.402594
 30
0.0
 10
3.779859
 20
19.376828
 30
0.0
 10
3.815644
 20
19.355220
 30
0.0
 10
3.846745
 20
19.330023
 30
0.0
 10
3.963779
 20
19.245151
 30
0.0
 10
4.087396
 20
19.170280
 30
0.0
 10
4.084955
 20
19.207761
 30
0.0
 10
4.074472
 20
19.241921
 30
0.0
 10
4.035693
 20
19.302293
 30
0.0
 10
3.931073
 20
19.405320
 30
0.0
 10
3.780169
 20
19.557015
 30
0.0
 10
3.780169
 20
19.557015
 30
0.0
 10
3.780113
 20
19.557015
 30
0.0
  0
LWPOLYLINE
  5
107
100
AcDbEntity
  8
Layer_1
 62
7
100
AcDbPolyline
 90
15
 70
0
 10
4.966970
 20
19.509830
 30
0.0
 10
4.902878
 20
19.463523
 30
0.0
 10
4.845265
 20
19.408313
 30
0.0
 10
4.734250
 20
19.293035
 30
0.0
 10
4.727497
 20
19.264212
 30
0.0
 10
4.741594
 20
19.238998
 30
0.0
 10
4.767238
 20
19.226939
 30
0.0
 10
4.795125
 20
19.237584
 30
0.0
 10
5.031740
 20
19.407468
 30
0.0
 10
5.122870
 20
19.497153
 30
0.0
 10
5.056967
 20
19.476043
 30
0.0
 10
5.025115
 20
19.476895
 30
0.0
 10
4.999680
 20
19.499072
 30
0.0
 10
4.966970
 20
19.509819
 30
0.0
 10
4.966970
 20
19.509830
 30
0.0
  0
LWPOLYLINE
  5
108
100
AcDbEntity
  8
Layer_1
 62
7
100
AcDbPolyline
 90
17
 70
0
 10
9.733562
 20
19.498033
 30
0.0
 10
9.720157
 20
19.487230
 30
0.0
 10
9.685828
 20
19.459264
 30
0.0
 10
9.665971
 20
19.454401
 30
0.0
 10
9.644916
 20
19.462702
 30
0.0
 10
9.616883
 20
19.462892
 30
0.0
 10
9.596081
 20
19.446563
 30
0.0
 10
9.585064
 20
19.420830
 30
0.0
 10
9.586383
 20
19.392807
 30
0.0
 10
9.598999
 20
18.821693
 30
0.0
 10
9.634607
 20
18.812538
 30
0.0
 10
9.665025
 20
18.829831
 30
0.0
 10
9.683843
 20
18.862471
 30
0.0
 10
9.684653
 20
18.899358
 30
0.0
 10
9.705710
 20
19.199046
 30
0.0
 10
9.733562
 20
19.498033
 30
0.0
 10
9.733562
 20
19.498033
 30
0.0
  0
LWPOLYLINE
  5
109
100
AcDbEntity
  8
Layer_1
 62
7
100
AcDbPolyline
 90
17
 70
0
 10
10.957306
 20
19.402950
 30
0.0
 10
10.942828
 20
19.390106
 30
0.0
 10
10.914211
 20
19.365343
 30
0.0
 10
10.897259
 20
19.361640
 30
0.0
 10
10.878312
 20
19.368389
 30
0.0
 10
10.850947
 20
19.375139
 30
0.0
 10
10.828214
 20
19.363543
 30
0.0
 10
10.813181
 20
19.340479
 30
0.0
 10
10.808914
 20
19.312825
 30
0.0
 10
10.789715
 20
19.030958
 30
0.0
 10
10.772338
 20
18.748987
 30
0.0
 10
10.804966
 20
18.736126
 30
0.0
 10
10.835940
 20
18.748201
 30
0.0
 10
10.858305
 20
18.776061
 30
0.0
 10
10.865104
 20
18.810557
 30
0.0
 10
10.957306
 20
19.402950
 30
0.0
 10
10.957306
 20
19.402950
 30
0.0
  0
LWPOLYLINE
  5
10a
100
AcDbEntity
  8
Layer_1
 62
7
100
AcDbPolyline
 90
12
 70
0
 10
0.345750
 20
19.272586
 30
0.0
 10
0.315949
 20
19.262717
 30
0.0
 10
0.304338
 20
19.235527
 30
0.0
 10
0.310321
 20
19.204473
 30
0.0
 10
0.333304
 20
19.183014
 30
0.0
 10
0.362026
 20
19.181114
 30
0.0
 10
0.384260
 20
19.197437
 30
0.0
 10
0.394090
 20
19.223636
 30
0.0
 10
0.385600
 20
19.251365
 30
0.0
 10
0.368670
 20
19.267677
 30
0.0
 10
0.345750
 20
19.272586
 30
0.0
 10
0.345750
 20
19.272586
 30
0.0
  0
LWPOLYLINE
  5
10b
100
AcDbEntity
  8
Layer_1
 62
7
100
AcDbPolyline
 90
14
 70
0
 10
8.448012
 20
19.098071
 30
0.0
 10
8.415039
 20
19.066920
 30
0.0
 10
8.398203
 20
19.025452
 30
0.0
 10
8.376356
 20
18.936400
 30
0.0
 10
8.388436
 20
18.912991
 30
0.0
 10
8.411951
 20
18.901635
 30
0.0
 10
8.466469
 20
18.897484
 30
0.0
 10
8.493263
 20
18.919459
 30
0.0
 10
8.501493
 20
18.952289
 30
0.0
 10
8.500533
 20
19.023934
 30
0.0
 10
8.489534
 20
19.074472
 30
0.0
 10
8.473070
 20
19.092561
 30
0.0
 10
8.448012
 20
19.098071
 30
0.0
 10
8.448012
 20
19.098071
 30
0.0
  0
LWPOLYLINE
  5
10c
100
AcDbEntity
  8
Layer_1
 62
7
100
AcDbPolyline
 90
14
 70
0
 10
4.377464
 20
18.948583
 30
0.0
 10
4.367982
 20
18.948583
 30
0.0
 10
4.351112
 20
18.942207
 30
0.0
 10
4.339991
 20
18.929961
 30
0.0
 10
4.334051
 20
18.896848
 30
0.0
 10
4.348273
 20
18.867223
 30
0.0
 10
4.362354
 20
18.859337
 30
0.0
 10
4.380766
 20
18.859065
 30
0.0
 10
4.409305
 20
18.873051
 30
0.0
 10
4.420884
 20
18.901822
 30
0.0
 10
4.413921
 20
18.931249
 30
0.0
 10
4.386834
 20
18.947203
 30
0.0
 10
4.377464
 20
18.948642
 30
0.0
 10
4.377464
 20
18.948583
 30
0.0
  0
LWPOLYLINE
  5
10d
100
AcDbEntity
  8
Layer_1
 62
7
100
AcDbPolyline
 90
14
 70
0
 10
1.642392
 20
18.719441
 30
0.0
 10
1.640981
 20
18.702356
 30
0.0
 10
1.638325
 20
18.606547
 30
0.0
 10
1.656881
 20
18.512177
 30
0.0
 10
1.695349
 20
18.424234
 30
0.0
 10
1.752431
 20
18.347704
 30
0.0
 10
1.780334
 20
18.339622
 30
0.0
 10
1.805436
 20
18.350125
 30
0.0
 10
1.819895
 20
18.372963
 30
0.0
 10
1.815874
 20
18.401888
 30
0.0
 10
1.740803
 20
18.569071
 30
0.0
 10
1.697362
 20
18.648044
 30
0.0
 10
1.642364
 20
18.719441
 30
0.0
 10
1.642392
 20
18.719441
 30
0.0
  0
LWPOLYLINE
  5
10e
100
AcDbEntity
  8
Layer_1
 62
7
100
AcDbPolyline
 90
15
 70
0
 10
7.107118
 20
18.645248
 30
0.0
 10
7.097155
 20
18.644796
 30
0.0
 10
7.054877
 20
18.605299
 30
0.0
 10
7.027792
 20
18.554248
 30
0.0
 10
7.005882
 20
18.499165
 30
0.0
 10
6.979130
 20
18.447571
 30
0.0
 10
6.942804
 20
18.350586
 30
0.0
 10
6.917126
 20
18.250182
 30
0.0
 10
7.002171
 20
18.324353
 30
0.0
 10
7.072856
 20
18.413708
 30
0.0
 10
7.119389
 20
18.515723
 30
0.0
 10
7.130540
 20
18.570689
 30
0.0
 10
7.131981
 20
18.627874
 30
0.0
 10
7.107118
 20
18.645237
 30
0.0
 10
7.107118
 20
18.645248
 30
0.0
  0
LWPOLYLINE
  5
10f
100
AcDbEntity
  8
Layer_1
 62
7
100
AcDbPolyline
 90
16
 70
0
 10
13.072533
 20
18.549117
 30
0.0
 10
13.075751
 20
18.542832
 30
0.0
 10
13.078008
 20
18.538204
 30
0.0
 10
13.092492
 20
18.514376
 30
0.0
 10
13.097972
 20
18.486920
 30
0.0
 10
13.102579
 20
18.458964
 30
0.0
 10
13.114443
 20
18.433638
 30
0.0
 10
13.140005
 20
18.423559
 30
0.0
 10
13.168693
 20
18.424202
 30
0.0
 10
13.226881
 20
18.431888
 30
0.0
 10
13.353369
 20
18.457368
 30
0.0
 10
13.473825
 20
18.503050
 30
0.0
 10
13.375627
 20
18.528069
 30
0.0
 10
13.275169
 20
18.539697
 30
0.0
 10
13.072533
 20
18.549132
 30
0.0
 10
13.072533
 20
18.549117
 30
0.0
  0
LWPOLYLINE
  5
110
100
AcDbEntity
  8
Layer_1
 62
7
100
AcDbPolyline
 90
15
 70
0
 10
7.249612
 20
18.400841
 30
0.0
 10
7.225255
 20
18.380754
 30
0.0
 10
7.223054
 20
18.351101
 30
0.0
 10
7.237110
 20
18.321526
 30
0.0
 10
7.261521
 20
18.301676
 30
0.0
 10
7.278342
 20
18.287304
 30
0.0
 10
7.298628
 20
18.282289
 30
0.0
 10
7.339979
 20
18.294545
 30
0.0
 10
7.366344
 20
18.326875
 30
0.0
 10
7.367897
 20
18.346952
 30
0.0
 10
7.358493
 20
18.367711
 30
0.0
 10
7.334777
 20
18.384321
 30
0.0
 10
7.307365
 20
18.393886
 30
0.0
 10
7.249612
 20
18.400841
 30
0.0
 10
7.249612
 20
18.400841
 30
0.0
  0
LWPOLYLINE
  5
111
100
AcDbEntity
  8
Layer_1
 62
7
100
AcDbPolyline
 90
13
 70
0
 10
12.423479
 20
18.386509
 30
0.0
 10
12.413290
 20
18.386114
 30
0.0
 10
12.393421
 20
18.380547
 30
0.0
 10
12.381617
 20
18.367663
 30
0.0
 10
12.378955
 20
18.331042
 30
0.0
 10
12.398808
 20
18.298447
 30
0.0
 10
12.415149
 20
18.290596
 30
0.0
 10
12.434683
 20
18.292075
 30
0.0
 10
12.460039
 20
18.314099
 30
0.0
 10
12.465297
 20
18.345037
 30
0.0
 10
12.452447
 20
18.373099
 30
0.0
 10
12.423479
 20
18.386498
 30
0.0
 10
12.423479
 20
18.386509
 30
0.0
  0
LWPOLYLINE
  5
112
100
AcDbEntity
  8
Layer_1
 62
7
100
AcDbPolyline
 90
13
 70
0
 10
9.867392
 20
18.314410
 30
0.0
 10
9.867392
 20
18.297928
 30
0.0
 10
9.863638
 20
17.663202
 30
0.0
 10
9.904405
 20
17.662364
 30
0.0
 10
9.936508
 20
17.685435
 30
0.0
 10
9.954832
 20
17.722345
 30
0.0
 10
9.954260
 20
17.763027
 30
0.0
 10
10.004157
 20
18.268162
 30
0.0
 10
9.966337
 20
18.257010
 30
0.0
 10
9.929435
 20
18.265838
 30
0.0
 10
9.895703
 20
18.287389
 30
0.0
 10
9.867392
 20
18.314410
 30
0.0
 10
9.867392
 20
18.314410
 30
0.0
  0
LWPOLYLINE
  5
113
100
AcDbEntity
  8
Layer_1
 62
7
100
AcDbPolyline
 90
15
 70
0
 10
11.096893
 20
18.199701
 30
0.0
 10
11.095482
 20
18.182889
 30
0.0
 10
11.064558
 20
17.870642
 30
0.0
 10
11.036046
 20
17.558196
 30
0.0
 10
11.071919
 20
17.547341
 30
0.0
 10
11.103998
 20
17.562774
 30
0.0
 10
11.125779
 20
17.594205
 30
0.0
 10
11.130760
 20
17.631342
 30
0.0
 10
11.227985
 20
18.138572
 30
0.0
 10
11.189024
 20
18.131148
 30
0.0
 10
11.153341
 20
18.144187
 30
0.0
 10
11.122214
 20
18.169701
 30
0.0
 10
11.096921
 20
18.199701
 30
0.0
 10
11.096921
 20
18.199701
 30
0.0
 10
11.096893
 20
18.199701
 30
0.0
  0
LWPOLYLINE
  5
114
100
AcDbEntity
  8
Layer_1
 62
7
100
AcDbPolyline
 90
15
 70
0
 10
6.544508
 20
17.459751
 30
0.0
 10
6.518005
 20
17.441389
 30
0.0
 10
6.511872
 20
17.411724
 30
0.0
 10
6.520667
 20
17.379296
 30
0.0
 10
6.538948
 20
17.352648
 30
0.0
 10
6.552333
 20
17.335360
 30
0.0
 10
6.570716
 20
17.326794
 30
0.0
 10
6.612223
 20
17.331543
 30
0.0
 10
6.642973
 20
17.358323
 30
0.0
 10
6.647908
 20
17.377297
 30
0.0
 10
6.642467
 20
17.398565
 30
0.0
 10
6.598504
 20
17.439211
 30
0.0
 10
6.573474
 20
17.454879
 30
0.0
 10
6.544508
 20
17.459751
 30
0.0
 10
6.544508
 20
17.459751
 30
0.0
  0
LWPOLYLINE
  5
115
100
AcDbEntity
  8
Layer_1
 62
7
100
AcDbPolyline
 90
15
 70
0
 10
13.516328
 20
17.373097
 30
0.0
 10
13.360672
 20
17.348458
 30
0.0
 10
13.283160
 20
17.333204
 30
0.0
 10
13.207746
 20
17.309324
 30
0.0
 10
13.268184
 20
17.296781
 30
0.0
 10
13.292328
 20
17.281397
 30
0.0
 10
13.300682
 20
17.252659
 30
0.0
 10
13.319274
 20
17.227027
 30
0.0
 10
13.348688
 20
17.220086
 30
0.0
 10
13.381192
 20
17.226690
 30
0.0
 10
13.409055
 20
17.241689
 30
0.0
 10
13.532273
 20
17.291731
 30
0.0
 10
13.643723
 20
17.363948
 30
0.0
 10
13.516328
 20
17.373097
 30
0.0
 10
13.516328
 20
17.373097
 30
0.0
  0
LWPOLYLINE
  5
116
100
AcDbEntity
  8
Layer_1
 62
7
100
AcDbPolyline
 90
14
 70
0
 10
0.000028
 20
17.361357
 30
0.0
 10
0.000028
 20
17.158456
 30
0.0
 10
0.281714
 20
16.835001
 30
0.0
 10
0.299957
 20
16.806359
 30
0.0
 10
0.332620
 20
16.799158
 30
0.0
 10
0.362732
 20
16.812290
 30
0.0
 10
0.371529
 20
16.826135
 30
0.0
 10
0.373324
 20
16.844648
 30
0.0
 10
0.363292
 20
16.867511
 30
0.0
 10
0.344611
 20
16.884659
 30
0.0
 10
0.325703
 20
16.901757
 30
0.0
 10
0.314988
 20
16.924466
 30
0.0
 10
0.000028
 20
17.361357
 30
0.0
 10
0.000028
 20
17.361357
 30
0.0
  0
LWPOLYLINE
  5
117
100
AcDbEntity
  8
Layer_1
 62
7
100
AcDbPolyline
 90
14
 70
0
 10
12.188896
 20
17.327679
 30
0.0
 10
12.169659
 20
17.324069
 30
0.0
 10
12.156719
 20
17.313227
 30
0.0
 10
12.148485
 20
17.279544
 30
0.0
 10
12.161698
 20
17.246033
 30
0.0
 10
12.175567
 20
17.235405
 30
0.0
 10
12.193863
 20
17.232096
 30
0.0
 10
12.213034
 20
17.237356
 30
0.0
 10
12.226527
 20
17.248918
 30
0.0
 10
12.236528
 20
17.282164
 30
0.0
 10
12.223954
 20
17.314273
 30
0.0
 10
12.209230
 20
17.324412
 30
0.0
 10
12.188896
 20
17.327679
 30
0.0
 10
12.188896
 20
17.327679
 30
0.0
  0
LWPOLYLINE
  5
118
100
AcDbEntity
  8
Layer_1
 62
7
100
AcDbPolyline
 90
14
 70
0
 10
13.729321
 20
17.230719
 30
0.0
 10
13.718963
 20
17.230268
 30
0.0
 10
13.701179
 20
17.225242
 30
0.0
 10
13.689674
 20
17.213675
 30
0.0
 10
13.683996
 20
17.180417
 30
0.0
 10
13.698913
 20
17.149499
 30
0.0
 10
13.713152
 20
17.140855
 30
0.0
 10
13.731409
 20
17.139923
 30
0.0
 10
13.760608
 20
17.156797
 30
0.0
 10
13.768892
 20
17.186894
 30
0.0
 10
13.757940
 20
17.216202
 30
0.0
 10
13.729434
 20
17.230708
 30
0.0
 10
13.729434
 20
17.230708
 30
0.0
 10
13.729321
 20
17.230719
 30
0.0
  0
LWPOLYLINE
  5
119
100
AcDbEntity
  8
Layer_1
 62
7
100
AcDbPolyline
 90
15
 70
0
 10
10.345138
 20
17.152778
 30
0.0
 10
10.336248
 20
17.152496
 30
0.0
 10
10.317757
 20
17.147565
 30
0.0
 10
10.306184
 20
17.135784
 30
0.0
 10
10.301623
 20
17.101726
 30
0.0
 10
10.318234
 20
17.070439
 30
0.0
 10
10.333125
 20
17.062121
 30
0.0
 10
10.351685
 20
17.062041
 30
0.0
 10
10.378938
 20
17.077280
 30
0.0
 10
10.388395
 20
17.105643
 30
0.0
 10
10.380062
 20
17.134515
 30
0.0
 10
10.353943
 20
17.151282
 30
0.0
 10
10.345194
 20
17.152608
 30
0.0
 10
10.345194
 20
17.152608
 30
0.0
 10
10.345138
 20
17.152778
 30
0.0
  0
LWPOLYLINE
  5
11a
100
AcDbEntity
  8
Layer_1
 62
7
100
AcDbPolyline
 90
15
 70
0
 10
9.232448
 20
17.138447
 30
0.0
 10
9.220708
 20
17.129627
 30
0.0
 10
9.186347
 20
17.107131
 30
0.0
 10
9.144875
 20
17.110388
 30
0.0
 10
9.118385
 20
17.106805
 30
0.0
 10
9.103388
 20
17.087350
 30
0.0
 10
9.098107
 20
17.060273
 30
0.0
 10
9.100764
 20
17.033827
 30
0.0
 10
9.130792
 20
16.568931
 30
0.0
 10
9.167830
 20
16.563473
 30
0.0
 10
9.197142
 20
16.583535
 30
0.0
 10
9.213882
 20
16.617903
 30
0.0
 10
9.213201
 20
16.655361
 30
0.0
 10
9.232448
 20
17.138447
 30
0.0
 10
9.232448
 20
17.138447
 30
0.0
  0
LWPOLYLINE
  5
11b
100
AcDbEntity
  8
Layer_1
 62
7
100
AcDbPolyline
 90
13
 70
0
 10
3.786942
 20
16.959410
 30
0.0
 10
3.777573
 20
16.958592
 30
0.0
 10
3.758516
 20
16.952269
 30
0.0
 10
3.747365
 20
16.938663
 30
0.0
 10
3.745632
 20
16.901323
 30
0.0
 10
3.766071
 20
16.870018
 30
0.0
 10
3.782636
 20
16.863955
 30
0.0
 10
3.802380
 20
16.868193
 30
0.0
 10
3.823570
 20
16.890292
 30
0.0
 10
3.826824
 20
16.920560
 30
0.0
 10
3.813997
 20
16.947452
 30
0.0
 10
3.786942
 20
16.959419
 30
0.0
 10
3.786942
 20
16.959410
 30
0.0
  0
LWPOLYLINE
  5
11c
100
AcDbEntity
  8
Layer_1
 62
7
100
AcDbPolyline
 90
15
 70
0
 10
4.388217
 20
16.872706
 30
0.0
 10
4.277755
 20
16.872424
 30
0.0
 10
4.209927
 20
16.861237
 30
0.0
 10
4.149908
 20
16.828327
 30
0.0
 10
4.257892
 20
16.787883
 30
0.0
 10
4.372917
 20
16.768845
 30
0.0
 10
4.430524
 20
16.769931
 30
0.0
 10
4.486835
 20
16.779463
 30
0.0
 10
4.540834
 20
16.798471
 30
0.0
 10
4.591502
 20
16.827988
 30
0.0
 10
4.581494
 20
16.855206
 30
0.0
 10
4.557286
 20
16.866325
 30
0.0
 10
4.498622
 20
16.869274
 30
0.0
 10
4.388217
 20
16.872692
 30
0.0
 10
4.388217
 20
16.872706
 30
0.0
  0
LWPOLYLINE
  5
11d
100
AcDbEntity
  8
Layer_1
 62
7
100
AcDbPolyline
 90
12
 70
0
 10
5.538301
 20
16.854020
 30
0.0
 10
5.518674
 20
16.846125
 30
0.0
 10
5.507835
 20
16.831410
 30
0.0
 10
5.508399
 20
16.792814
 30
0.0
 10
5.531760
 20
16.760815
 30
0.0
 10
5.549416
 20
16.754347
 30
0.0
 10
5.569684
 20
16.757997
 30
0.0
 10
5.589601
 20
16.783199
 30
0.0
 10
5.587626
 20
16.816103
 30
0.0
 10
5.568834
 20
16.843959
 30
0.0
 10
5.538301
 20
16.854020
 30
0.0
 10
5.538301
 20
16.854020
 30
0.0
  0
LWPOLYLINE
  5
11e
100
AcDbEntity
  8
Layer_1
 62
7
100
AcDbPolyline
 90
15
 70
0
 10
3.232799
 20
16.836158
 30
0.0
 10
3.223260
 20
16.835453
 30
0.0
 10
3.189440
 20
16.810133
 30
0.0
 10
3.166061
 20
16.773095
 30
0.0
 10
3.161276
 20
16.732427
 30
0.0
 10
3.183241
 20
16.696218
 30
0.0
 10
3.211512
 20
16.684150
 30
0.0
 10
3.240500
 20
16.691932
 30
0.0
 10
3.261588
 20
16.713776
 30
0.0
 10
3.266158
 20
16.743897
 30
0.0
 10
3.273038
 20
16.772194
 30
0.0
 10
3.271418
 20
16.802285
 30
0.0
 10
3.258827
 20
16.826249
 30
0.0
 10
3.232799
 20
16.836170
 30
0.0
 10
3.232799
 20
16.836158
 30
0.0
  0
LWPOLYLINE
  5
11f
100
AcDbEntity
  8
Layer_1
 62
7
100
AcDbPolyline
 90
11
 70
0
 10
10.177780
 20
16.490383
 30
0.0
 10
10.147344
 20
16.478052
 30
0.0
 10
10.136942
 20
16.448664
 30
0.0
 10
10.145379
 20
16.416737
 30
0.0
 10
10.171458
 20
16.396786
 30
0.0
 10
10.202334
 20
16.400246
 30
0.0
 10
10.222248
 20
16.422582
 30
0.0
 10
10.226398
 20
16.452677
 30
0.0
 10
10.209982
 20
16.479413
 30
0.0
 10
10.177780
 20
16.490383
 30
0.0
 10
10.177780
 20
16.490383
 30
0.0
  0
LWPOLYLINE
  5
120
100
AcDbEntity
  8
Layer_1
 62
7
100
AcDbPolyline
 90
14
 70
0
 10
10.329870
 20
16.406046
 30
0.0
 10
10.311117
 20
16.403066
 30
0.0
 10
10.298125
 20
16.392961
 30
0.0
 10
10.288679
 20
16.360560
 30
0.0
 10
10.300040
 20
16.327213
 30
0.0
 10
10.313057
 20
16.315927
 30
0.0
 10
10.330716
 20
16.311293
 30
0.0
 10
10.352015
 20
16.314261
 30
0.0
 10
10.367108
 20
16.324899
 30
0.0
 10
10.378860
 20
16.358916
 30
0.0
 10
10.366328
 20
16.392810
 30
0.0
 10
10.351067
 20
16.403293
 30
0.0
 10
10.329870
 20
16.406046
 30
0.0
 10
10.329870
 20
16.406046
 30
0.0
  0
LWPOLYLINE
  5
121
100
AcDbEntity
  8
Layer_1
 62
7
100
AcDbPolyline
 90
13
 70
0
 10
0.320407
 20
16.214829
 30
0.0
 10
0.315440
 20
16.209868
 30
0.0
 10
0.314875
 20
16.209332
 30
0.0
 10
0.290619
 20
16.183696
 30
0.0
 10
0.259193
 20
16.167973
 30
0.0
 10
0.187932
 20
16.158402
 30
0.0
 10
0.653542
 20
15.660542
 30
0.0
 10
0.685514
 20
15.680433
 30
0.0
 10
0.694986
 20
15.714897
 30
0.0
 10
0.685451
 20
15.752102
 30
0.0
 10
0.660400
 20
15.780213
 30
0.0
 10
0.320407
 20
16.214846
 30
0.0
 10
0.320407
 20
16.214829
 30
0.0
  0
LWPOLYLINE
  5
122
100
AcDbEntity
  8
Layer_1
 62
7
100
AcDbPolyline
 90
15
 70
0
 10
6.275888
 20
16.167481
 30
0.0
 10
6.257458
 20
16.165103
 30
0.0
 10
6.242218
 20
16.155480
 30
0.0
 10
6.224009
 20
16.123234
 30
0.0
 10
6.226660
 20
16.088224
 30
0.0
 10
6.237495
 20
16.075145
 30
0.0
 10
6.255568
 20
16.067930
 30
0.0
 10
6.274910
 20
16.065983
 30
0.0
 10
6.292758
 20
16.072265
 30
0.0
 10
6.319026
 20
16.101048
 30
0.0
 10
6.324466
 20
16.137347
 30
0.0
 10
6.316280
 20
16.153023
 30
0.0
 10
6.299172
 20
16.164230
 30
0.0
 10
6.275888
 20
16.167481
 30
0.0
 10
6.275888
 20
16.167481
 30
0.0
  0
LWPOLYLINE
  5
123
100
AcDbEntity
  8
Layer_1
 62
7
100
AcDbPolyline
 90
13
 70
0
 10
13.740130
 20
16.103814
 30
0.0
 10
13.730026
 20
16.103814
 30
0.0
 10
13.711663
 20
16.099124
 30
0.0
 10
13.699956
 20
16.087473
 30
0.0
 10
13.694671
 20
16.053478
 30
0.0
 10
13.710500
 20
16.022218
 30
0.0
 10
13.725185
 20
16.013984
 30
0.0
 10
13.743771
 20
16.014079
 30
0.0
 10
13.773106
 20
16.031093
 30
0.0
 10
13.780527
 20
16.060473
 30
0.0
 10
13.768659
 20
16.089105
 30
0.0
 10
13.740130
 20
16.103871
 30
0.0
 10
13.740130
 20
16.103814
 30
0.0
  0
LWPOLYLINE
  5
124
100
AcDbEntity
  8
Layer_1
 62
7
100
AcDbPolyline
 90
16
 70
0
 10
9.050669
 20
15.960279
 30
0.0
 10
9.044658
 20
15.956585
 30
0.0
 10
9.039183
 20
15.953223
 30
0.0
 10
8.997950
 20
15.931247
 30
0.0
 10
8.950791
 20
15.934481
 30
0.0
 10
8.924258
 20
15.918464
 30
0.0
 10
8.915206
 20
15.889426
 30
0.0
 10
8.917658
 20
15.824129
 30
0.0
 10
8.933589
 20
15.632851
 30
0.0
 10
8.955617
 20
15.443846
 30
0.0
 10
8.987854
 20
15.434901
 30
0.0
 10
9.016344
 20
15.450022
 30
0.0
 10
9.034388
 20
15.479308
 30
0.0
 10
9.035288
 20
15.512858
 30
0.0
 10
9.050669
 20
15.960279
 30
0.0
 10
9.050669
 20
15.960279
 30
0.0
  0
LWPOLYLINE
  5
125
100
AcDbEntity
  8
Layer_1
 62
7
100
AcDbPolyline
 90
13
 70
0
 10
10.138805
 20
15.947105
 30
0.0
 10
10.138805
 20
15.929686
 30
0.0
 10
10.127573
 20
15.418655
 30
0.0
 10
10.161547
 20
15.408335
 30
0.0
 10
10.192272
 20
15.422559
 30
0.0
 10
10.213218
 20
15.451933
 30
0.0
 10
10.217856
 20
15.487060
 30
0.0
 10
10.277376
 20
15.895069
 30
0.0
 10
10.237905
 20
15.884190
 30
0.0
 10
10.200428
 20
15.894543
 30
0.0
 10
10.166783
 20
15.918167
 30
0.0
 10
10.138805
 20
15.947105
 30
0.0
 10
10.138805
 20
15.947105
 30
0.0
  0
LWPOLYLINE
  5
126
100
AcDbEntity
  8
Layer_1
 62
7
100
AcDbPolyline
 90
17
 70
0
 10
7.813012
 20
15.843806
 30
0.0
 10
7.806944
 20
15.840278
 30
0.0
 10
7.803981
 20
15.838556
 30
0.0
 10
7.775733
 20
15.822761
 30
0.0
 10
7.741959
 20
15.816830
 30
0.0
 10
7.711291
 20
15.807306
 30
0.0
 10
7.692362
 20
15.780735
 30
0.0
 10
7.731725
 20
15.570931
 30
0.0
 10
7.777311
 20
15.363080
 30
0.0
 10
7.799752
 20
15.347838
 30
0.0
 10
7.824826
 20
15.352446
 30
0.0
 10
7.845418
 20
15.370776
 30
0.0
 10
7.854414
 20
15.396704
 30
0.0
 10
7.849736
 20
15.483355
 30
0.0
 10
7.842222
 20
15.570225
 30
0.0
 10
7.813012
 20
15.843794
 30
0.0
 10
7.813012
 20
15.843806
 30
0.0
  0
LWPOLYLINE
  5
127
100
AcDbEntity
  8
Layer_1
 62
7
100
AcDbPolyline
 90
15
 70
0
 10
11.364835
 20
15.759912
 30
0.0
 10
11.362295
 20
15.743761
 30
0.0
 10
11.324604
 20
15.501949
 30
0.0
 10
11.295211
 20
15.259022
 30
0.0
 10
11.304093
 20
15.243624
 30
0.0
 10
11.317200
 20
15.235413
 30
0.0
 10
11.348886
 20
15.237124
 30
0.0
 10
11.375868
 20
15.257294
 30
0.0
 10
11.383744
 20
15.289064
 30
0.0
 10
11.494206
 20
15.697349
 30
0.0
 10
11.455295
 20
15.690328
 30
0.0
 10
11.419667
 20
15.703367
 30
0.0
 10
11.388966
 20
15.729039
 30
0.0
 10
11.364835
 20
15.759912
 30
0.0
 10
11.364835
 20
15.759912
 30
0.0
  0
LWPOLYLINE
  5
128
100
AcDbEntity
  8
Layer_1
 62
7
100
AcDbPolyline
 90
13
 70
0
 10
4.895257
 20
15.630708
 30
0.0
 10
4.885295
 20
15.630257
 30
0.0
 10
4.867572
 20
15.625074
 30
0.0
 10
4.856264
 20
15.613457
 30
0.0
 10
4.851213
 20
15.580455
 30
0.0
 10
4.866773
 20
15.550319
 30
0.0
 10
4.881229
 20
15.542284
 30
0.0
 10
4.899575
 20
15.542116
 30
0.0
 10
4.927599
 20
15.559205
 30
0.0
 10
4.934807
 20
15.588529
 30
0.0
 10
4.923320
 20
15.616793
 30
0.0
 10
4.895257
 20
15.630697
 30
0.0
 10
4.895257
 20
15.630708
 30
0.0
  0
LWPOLYLINE
  5
129
100
AcDbEntity
  8
Layer_1
 62
7
100
AcDbPolyline
 90
18
 70
0
 10
6.611648
 20
15.580382
 30
0.0
 10
6.604960
 20
15.578068
 30
0.0
 10
6.604113
 20
15.577729
 30
0.0
 10
6.574569
 20
15.567180
 30
0.0
 10
6.541199
 20
15.563463
 30
0.0
 10
6.511077
 20
15.554850
 30
0.0
 10
6.491280
 20
15.529608
 30
0.0
 10
6.537660
 20
15.373432
 30
0.0
 10
6.590115
 20
15.218887
 30
0.0
 10
6.610692
 20
15.160680
 30
0.0
 10
6.635270
 20
15.106438
 30
0.0
 10
6.669363
 20
15.109271
 30
0.0
 10
6.692025
 20
15.133152
 30
0.0
 10
6.700739
 20
15.167213
 30
0.0
 10
6.692985
 20
15.200587
 30
0.0
 10
6.611676
 20
15.580374
 30
0.0
 10
6.611676
 20
15.580374
 30
0.0
 10
6.611648
 20
15.580382
 30
0.0
  0
LWPOLYLINE
  5
12a
100
AcDbEntity
  8
Layer_1
 62
7
100
AcDbPolyline
 90
14
 70
0
 10
5.439325
 20
15.203847
 30
0.0
 10
5.432975
 20
15.200650
 30
0.0
 10
5.432129
 20
15.200198
 30
0.0
 10
5.403159
 20
15.185519
 30
0.0
 10
5.369366
 20
15.177678
 30
0.0
 10
5.339685
 20
15.165277
 30
0.0
 10
5.323050
 20
15.136918
 30
0.0
 10
5.516231
 20
14.733978
 30
0.0
 10
5.551260
 20
14.739442
 30
0.0
 10
5.572481
 20
14.765725
 30
0.0
 10
5.578108
 20
14.801297
 30
0.0
 10
5.566354
 20
14.834630
 30
0.0
 10
5.439297
 20
15.203836
 30
0.0
 10
5.439325
 20
15.203847
 30
0.0
  0
LWPOLYLINE
  5
12b
100
AcDbEntity
  8
Layer_1
 62
7
100
AcDbPolyline
 90
15
 70
0
 10
0.937994
 20
15.194144
 30
0.0
 10
0.933252
 20
15.188909
 30
0.0
 10
0.932406
 20
15.187978
 30
0.0
 10
0.907995
 20
15.160024
 30
0.0
 10
0.875422
 20
15.143595
 30
0.0
 10
0.801398
 20
15.135281
 30
0.0
 10
1.013234
 20
14.915107
 30
0.0
 10
1.227526
 20
14.697340
 30
0.0
 10
1.259513
 20
14.711785
 30
0.0
 10
1.272138
 20
14.742733
 30
0.0
 10
1.266824
 20
14.778008
 30
0.0
 10
1.244995
 20
14.805434
 30
0.0
 10
0.938050
 20
15.194150
 30
0.0
 10
0.938050
 20
15.194150
 30
0.0
 10
0.937994
 20
15.194144
 30
0.0
  0
LWPOLYLINE
  5
12c
100
AcDbEntity
  8
Layer_1
 62
7
100
AcDbPolyline
 90
12
 70
0
 10
12.408069
 20
14.889322
 30
0.0
 10
12.389942
 20
14.887189
 30
0.0
 10
12.377169
 20
14.878128
 30
0.0
 10
12.367154
 20
14.847947
 30
0.0
 10
12.376962
 20
14.816225
 30
0.0
 10
12.405529
 20
14.800410
 30
0.0
 10
12.434732
 20
14.810231
 30
0.0
 10
12.449627
 20
14.835876
 30
0.0
 10
12.447185
 20
14.865202
 30
0.0
 10
12.424382
 20
14.886071
 30
0.0
 10
12.408069
 20
14.889322
 30
0.0
 10
12.408069
 20
14.889322
 30
0.0
  0
LWPOLYLINE
  5
12d
100
AcDbEntity
  8
Layer_1
 62
7
100
AcDbPolyline
 90
15
 70
0
 10
2.361382
 20
14.821744
 30
0.0
 10
2.356245
 20
14.816949
 30
0.0
 10
2.355398
 20
14.816187
 30
0.0
 10
2.331704
 20
14.793762
 30
0.0
 10
2.301353
 20
14.777510
 30
0.0
 10
2.275277
 20
14.758313
 30
0.0
 10
2.264410
 20
14.727055
 30
0.0
 10
2.602286
 20
14.326156
 30
0.0
 10
2.634451
 20
14.342023
 30
0.0
 10
2.647386
 20
14.373718
 30
0.0
 10
2.642625
 20
14.409785
 30
0.0
 10
2.621703
 20
14.438768
 30
0.0
 10
2.361410
 20
14.821752
 30
0.0
 10
2.361410
 20
14.821752
 30
0.0
 10
2.361382
 20
14.821744
 30
0.0
  0
LWPOLYLINE
  5
12e
100
AcDbEntity
  8
Layer_1
 62
7
100
AcDbPolyline
 90
14
 70
0
 10
9.198779
 20
14.801680
 30
0.0
 10
9.199908
 20
14.785199
 30
0.0
 10
9.234283
 20
14.315838
 30
0.0
 10
9.268097
 20
14.306208
 30
0.0
 10
9.297698
 20
14.321747
 30
0.0
 10
9.316420
 20
14.352177
 30
0.0
 10
9.317595
 20
14.387220
 30
0.0
 10
9.340681
 20
14.765960
 30
0.0
 10
9.303221
 20
14.751914
 30
0.0
 10
9.265013
 20
14.757514
 30
0.0
 10
9.229171
 20
14.776267
 30
0.0
 10
9.198808
 20
14.801680
 30
0.0
 10
9.198808
 20
14.801680
 30
0.0
 10
9.198779
 20
14.801680
 30
0.0
  0
LWPOLYLINE
  5
12f
100
AcDbEntity
  8
Layer_1
 62
7
100
AcDbPolyline
 90
18
 70
0
 10
10.573343
 20
14.713486
 30
0.0
 10
10.558667
 20
14.700916
 30
0.0
 10
10.525644
 20
14.671299
 30
0.0
 10
10.506236
 20
14.664345
 30
0.0
 10
10.484640
 20
14.670820
 30
0.0
 10
10.453029
 20
14.666285
 30
0.0
 10
10.434038
 20
14.642705
 30
0.0
 10
10.425038
 20
14.610031
 30
0.0
 10
10.423398
 20
14.578217
 30
0.0
 10
10.412959
 20
14.409181
 30
0.0
 10
10.407440
 20
14.324967
 30
0.0
 10
10.408976
 20
14.242305
 30
0.0
 10
10.441413
 20
14.232124
 30
0.0
 10
10.471277
 20
14.245529
 30
0.0
 10
10.492146
 20
14.273527
 30
0.0
 10
10.497594
 20
14.307128
 30
0.0
 10
10.573343
 20
14.713486
 30
0.0
 10
10.573343
 20
14.713486
 30
0.0
  0
LWPOLYLINE
  5
130
100
AcDbEntity
  8
Layer_1
 62
7
100
AcDbPolyline
 90
13
 70
0
 10
7.965468
 20
14.706097
 30
0.0
 10
7.969052
 20
14.689342
 30
0.0
 10
8.063428
 20
14.239330
 30
0.0
 10
8.098390
 20
14.235535
 30
0.0
 10
8.125340
 20
14.255396
 30
0.0
 10
8.139580
 20
14.288170
 30
0.0
 10
8.136410
 20
14.323113
 30
0.0
 10
8.110615
 20
14.689285
 30
0.0
 10
8.075573
 20
14.669529
 30
0.0
 10
8.036909
 20
14.669980
 30
0.0
 10
7.998811
 20
14.684287
 30
0.0
 10
7.965468
 20
14.706097
 30
0.0
 10
7.965468
 20
14.706097
 30
0.0
  0
LWPOLYLINE
  5
131
100
AcDbEntity
  8
Layer_1
 62
7
100
AcDbPolyline
 90
18
 70
0
 10
4.322233
 20
14.684601
 30
0.0
 10
4.316391
 20
14.680799
 30
0.0
 10
4.315827
 20
14.680347
 30
0.0
 10
4.315545
 20
14.680347
 30
0.0
 10
4.288475
 20
14.663773
 30
0.0
 10
4.256426
 20
14.651463
 30
0.0
 10
4.229701
 20
14.634730
 30
0.0
 10
4.218601
 20
14.604884
 30
0.0
 10
4.271991
 20
14.509737
 30
0.0
 10
4.330926
 20
14.416535
 30
0.0
 10
4.394348
 20
14.316164
 30
0.0
 10
4.461962
 20
14.221623
 30
0.0
 10
4.494150
 20
14.233116
 30
0.0
 10
4.510257
 20
14.261882
 30
0.0
 10
4.510499
 20
14.297005
 30
0.0
 10
4.495094
 20
14.327570
 30
0.0
 10
4.322233
 20
14.684589
 30
0.0
 10
4.322233
 20
14.684601
 30
0.0
  0
LWPOLYLINE
  5
132
100
AcDbEntity
  8
Layer_1
 62
7
100
AcDbPolyline
 90
17
 70
0
 10
11.790539
 20
14.462791
 30
0.0
 10
11.772787
 20
14.450060
 30
0.0
 10
11.737368
 20
14.422459
 30
0.0
 10
11.719034
 20
14.413699
 30
0.0
 10
11.699071
 20
14.421617
 30
0.0
 10
11.671964
 20
14.427187
 30
0.0
 10
11.648161
 20
14.416555
 30
0.0
 10
11.631392
 20
14.395073
 30
0.0
 10
11.625382
 20
14.368094
 30
0.0
 10
11.565015
 20
14.066192
 30
0.0
 10
11.554770
 20
13.952917
 30
0.0
 10
11.588156
 20
13.972115
 30
0.0
 10
11.614887
 20
13.997188
 30
0.0
 10
11.653093
 20
14.060078
 30
0.0
 10
11.701441
 20
14.202672
 30
0.0
 10
11.790539
 20
14.462791
 30
0.0
 10
11.790539
 20
14.462791
 30
0.0
  0
LWPOLYLINE
  5
133
100
AcDbEntity
  8
Layer_1
 62
7
100
AcDbPolyline
 90
18
 70
0
 10
6.894237
 20
14.442894
 30
0.0
 10
6.893391
 20
14.442555
 30
0.0
 10
6.863061
 20
14.431330
 30
0.0
 10
6.828317
 20
14.427439
 30
0.0
 10
6.797776
 20
14.417973
 30
0.0
 10
6.780050
 20
14.390023
 30
0.0
 10
6.839963
 20
14.205676
 30
0.0
 10
6.911792
 20
14.026331
 30
0.0
 10
6.938480
 20
14.017915
 30
0.0
 10
6.962588
 20
14.029244
 30
0.0
 10
6.977780
 20
14.052842
 30
0.0
 10
6.977719
 20
14.081232
 30
0.0
 10
6.923701
 20
14.344218
 30
0.0
 10
6.912508
 20
14.399588
 30
0.0
 10
6.906021
 20
14.426067
 30
0.0
 10
6.894266
 20
14.442886
 30
0.0
 10
6.894266
 20
14.442886
 30
0.0
 10
6.894237
 20
14.442894
 30
0.0
  0
LWPOLYLINE
  5
134
100
AcDbEntity
  8
Layer_1
 62
7
100
AcDbPolyline
 90
13
 70
0
 10
0.042362
 20
14.347808
 30
0.0
 10
0.038552
 20
14.341966
 30
0.0
 10
0.037423
 20
14.340357
 30
0.0
 10
0.022288
 20
14.315401
 30
0.0
 10
0.000000
 20
14.294936
 30
0.0
 10
0.000000
 20
14.200623
 30
0.0
 10
0.398159
 20
13.863941
 30
0.0
 10
0.427622
 20
13.887016
 30
0.0
 10
0.433373
 20
13.922101
 30
0.0
 10
0.420106
 20
13.957940
 30
0.0
 10
0.392515
 20
13.983281
 30
0.0
 10
0.042333
 20
14.347799
 30
0.0
 10
0.042362
 20
14.347808
 30
0.0
  0
LWPOLYLINE
  5
135
100
AcDbEntity
  8
Layer_1
 62
7
100
AcDbPolyline
 90
13
 70
0
 10
9.292308
 20
14.270253
 30
0.0
 10
9.273638
 20
14.266932
 30
0.0
 10
9.260854
 20
14.256802
 30
0.0
 10
9.251939
 20
14.224890
 30
0.0
 10
9.263562
 20
14.192067
 30
0.0
 10
9.293719
 20
14.175884
 30
0.0
 10
9.322082
 20
14.182043
 30
0.0
 10
9.340007
 20
14.203155
 30
0.0
 10
9.343840
 20
14.230724
 30
0.0
 10
9.329928
 20
14.256252
 30
0.0
 10
9.312772
 20
14.267621
 30
0.0
 10
9.292336
 20
14.270253
 30
0.0
 10
9.292308
 20
14.270253
 30
0.0
  0
LWPOLYLINE
  5
136
100
AcDbEntity
  8
Layer_1
 62
7
100
AcDbPolyline
 90
19
 70
0
 10
5.736872
 20
14.051971
 30
0.0
 10
5.730748
 20
14.048720
 30
0.0
 10
5.729619
 20
14.048184
 30
0.0
 10
5.704883
 20
14.033743
 30
0.0
 10
5.676067
 20
14.026525
 30
0.0
 10
5.648204
 20
14.017416
 30
0.0
 10
5.626326
 20
13.997305
 30
0.0
 10
5.625803
 20
13.968429
 30
0.0
 10
5.638377
 20
13.940800
 30
0.0
 10
5.667276
 20
13.885906
 30
0.0
 10
5.735542
 20
13.747965
 30
0.0
 10
5.812508
 20
13.616691
 30
0.0
 10
5.845959
 20
13.622223
 30
0.0
 10
5.864871
 20
13.648575
 30
0.0
 10
5.868431
 20
13.683611
 30
0.0
 10
5.855829
 20
13.715195
 30
0.0
 10
5.736900
 20
14.051985
 30
0.0
 10
5.736900
 20
14.051985
 30
0.0
 10
5.736872
 20
14.051971
 30
0.0
  0
LWPOLYLINE
  5
137
100
AcDbEntity
  8
Layer_1
 62
7
100
AcDbPolyline
 90
17
 70
0
 10
1.411365
 20
14.040341
 30
0.0
 10
1.407019
 20
14.034883
 30
0.0
 10
1.406172
 20
14.033613
 30
0.0
 10
1.406172
 20
14.033613
 30
0.0
 10
1.381192
 20
14.002732
 30
0.0
 10
1.343660
 20
13.981359
 30
0.0
 10
1.296815
 20
13.967156
 30
0.0
 10
1.296634
 20
13.954624
 30
0.0
 10
1.320941
 20
13.934395
 30
0.0
 10
1.510425
 20
13.751491
 30
0.0
 10
1.702872
 20
13.571807
 30
0.0
 10
1.733820
 20
13.592835
 30
0.0
 10
1.741727
 20
13.627410
 30
0.0
 10
1.730701
 20
13.663976
 30
0.0
 10
1.704848
 20
13.690978
 30
0.0
 10
1.411591
 20
14.040338
 30
0.0
 10
1.411365
 20
14.040341
 30
0.0
  0
LWPOLYLINE
  5
138
100
AcDbEntity
  8
Layer_1
 62
7
100
AcDbPolyline
 90
20
 70
0
 10
3.278378
 20
14.037519
 30
0.0
 10
3.273157
 20
14.032777
 30
0.0
 10
3.272310
 20
14.031902
 30
0.0
 10
3.250948
 20
14.010484
 30
0.0
 10
3.222953
 20
13.996486
 30
0.0
 10
3.197376
 20
13.981069
 30
0.0
 10
3.183269
 20
13.955395
 30
0.0
 10
3.194829
 20
13.917766
 30
0.0
 10
3.219425
 20
13.886468
 30
0.0
 10
3.272621
 20
13.825637
 30
0.0
 10
3.367165
 20
13.706253
 30
0.0
 10
3.416504
 20
13.648551
 30
0.0
 10
3.470176
 20
13.596939
 30
0.0
 10
3.501067
 20
13.611287
 30
0.0
 10
3.512855
 20
13.641677
 30
0.0
 10
3.507911
 20
13.676680
 30
0.0
 10
3.488605
 20
13.704866
 30
0.0
 10
3.278519
 20
14.037524
 30
0.0
 10
3.278519
 20
14.037524
 30
0.0
 10
3.278378
 20
14.037519
 30
0.0
  0
LWPOLYLINE
  5
139
100
AcDbEntity
  8
Layer_1
 62
7
100
AcDbPolyline
 90
17
 70
0
 10
12.830217
 20
14.028202
 30
0.0
 10
12.806337
 20
14.012638
 30
0.0
 10
12.789004
 20
13.992361
 30
0.0
 10
12.767589
 20
13.942258
 30
0.0
 10
12.753196
 20
13.887075
 30
0.0
 10
12.733048
 20
13.835995
 30
0.0
 10
12.683310
 20
13.686376
 30
0.0
 10
12.668322
 20
13.609109
 30
0.0
 10
12.663226
 20
13.530399
 30
0.0
 10
12.741839
 20
13.630535
 30
0.0
 10
12.807075
 20
13.739654
 30
0.0
 10
12.916210
 20
13.969664
 30
0.0
 10
12.908437
 20
13.991881
 30
0.0
 10
12.889219
 20
14.004766
 30
0.0
 10
12.846163
 20
14.026385
 30
0.0
 10
12.830217
 20
14.028219
 30
0.0
 10
12.830217
 20
14.028202
 30
0.0
  0
LWPOLYLINE
  5
13a
100
AcDbEntity
  8
Layer_1
 62
7
100
AcDbPolyline
 90
3
 70
0
 10
5.692987
 20
14.012714
 30
0.0
 10
5.692987
 20
14.012714
 30
0.0
 10
5.692987
 20
14.012714
 30
0.0
  0
LWPOLYLINE
  5
13b
100
AcDbEntity
  8
Layer_1
 62
7
100
AcDbPolyline
 90
14
 70
0
 10
9.971419
 20
13.581388
 30
0.0
 10
9.958239
 20
13.573009
 30
0.0
 10
9.917832
 20
13.548787
 30
0.0
 10
9.872133
 20
13.547654
 30
0.0
 10
9.842151
 20
13.532521
 30
0.0
 10
9.829465
 20
13.502533
 30
0.0
 10
9.828050
 20
13.433112
 30
0.0
 10
9.824720
 20
13.161693
 30
0.0
 10
9.867126
 20
13.161802
 30
0.0
 10
9.899953
 20
13.186405
 30
0.0
 10
9.919160
 20
13.225110
 30
0.0
 10
9.920704
 20
13.267526
 30
0.0
 10
9.971419
 20
13.581388
 30
0.0
 10
9.971419
 20
13.581388
 30
0.0
  0
LWPOLYLINE
  5
13c
100
AcDbEntity
  8
Layer_1
 62
7
100
AcDbPolyline
 90
17
 70
0
 10
8.732943
 20
13.574939
 30
0.0
 10
8.726650
 20
13.571742
 30
0.0
 10
8.722783
 20
13.569823
 30
0.0
 10
8.694715
 20
13.555105
 30
0.0
 10
8.661852
 20
13.550276
 30
0.0
 10
8.630851
 20
13.543066
 30
0.0
 10
8.608370
 20
13.521204
 30
0.0
 10
8.613726
 20
13.439742
 30
0.0
 10
8.626066
 20
13.357880
 30
0.0
 10
8.645620
 20
13.239504
 30
0.0
 10
8.673451
 20
13.122842
 30
0.0
 10
8.715398
 20
13.171104
 30
0.0
 10
8.733250
 20
13.231354
 30
0.0
 10
8.736280
 20
13.296728
 30
0.0
 10
8.733762
 20
13.360360
 30
0.0
 10
8.732915
 20
13.574948
 30
0.0
 10
8.732943
 20
13.574939
 30
0.0
  0
LWPOLYLINE
  5
13d
100
AcDbEntity
  8
Layer_1
 62
7
100
AcDbPolyline
 90
14
 70
0
 10
13.926594
 20
13.532936
 30
0.0
 10
13.919002
 20
13.517778
 30
0.0
 10
13.805757
 20
13.296081
 30
0.0
 10
13.702482
 20
13.069750
 30
0.0
 10
13.761743
 20
13.080205
 30
0.0
 10
13.809479
 20
13.114847
 30
0.0
 10
13.848103
 20
13.162935
 30
0.0
 10
13.880028
 20
13.213726
 30
0.0
 10
14.000028
 20
13.386367
 30
0.0
 10
14.000028
 20
13.433222
 30
0.0
 10
13.972588
 20
13.448030
 30
0.0
 10
13.951363
 20
13.472397
 30
0.0
 10
13.926594
 20
13.532936
 30
0.0
 10
13.926594
 20
13.532936
 30
0.0
  0
LWPOLYLINE
  5
13e
100
AcDbEntity
  8
Layer_1
 62
7
100
AcDbPolyline
 90
19
 70
0
 10
4.633666
 20
13.506258
 30
0.0
 10
4.627936
 20
13.502123
 30
0.0
 10
4.627090
 20
13.501474
 30
0.0
 10
4.599092
 20
13.482061
 30
0.0
 10
4.566722
 20
13.465317
 30
0.0
 10
4.541635
 20
13.443735
 30
0.0
 10
4.535480
 20
13.409806
 30
0.0
 10
4.658529
 20
13.225235
 30
0.0
 10
4.793855
 20
13.050029
 30
0.0
 10
4.809336
 20
13.050860
 30
0.0
 10
4.815491
 20
13.065272
 30
0.0
 10
4.817166
 20
13.101788
 30
0.0
 10
4.801748
 20
13.173440
 30
0.0
 10
4.770381
 20
13.239665
 30
0.0
 10
4.733712
 20
13.304145
 30
0.0
 10
4.702387
 20
13.370560
 30
0.0
 10
4.633778
 20
13.506269
 30
0.0
 10
4.633778
 20
13.506269
 30
0.0
 10
4.633666
 20
13.506258
 30
0.0
  0
LWPOLYLINE
  5
13f
100
AcDbEntity
  8
Layer_1
 62
7
100
AcDbPolyline
 90
16
 70
0
 10
7.515973
 20
13.382676
 30
0.0
 10
7.509228
 20
13.380531
 30
0.0
 10
7.508099
 20
13.380192
 30
0.0
 10
7.441819
 20
13.365692
 30
0.0
 10
7.412071
 20
13.352869
 30
0.0
 10
7.395097
 20
13.324685
 30
0.0
 10
7.429006
 20
13.200691
 30
0.0
 10
7.468588
 20
13.077520
 30
0.0
 10
7.525738
 20
12.939827
 30
0.0
 10
7.546382
 20
12.970153
 30
0.0
 10
7.558588
 20
13.002820
 30
0.0
 10
7.563852
 20
13.072740
 30
0.0
 10
7.541006
 20
13.213890
 30
0.0
 10
7.516001
 20
13.382673
 30
0.0
 10
7.516001
 20
13.382673
 30
0.0
 10
7.515973
 20
13.382676
 30
0.0
  0
LWPOLYLINE
  5
140
100
AcDbEntity
  8
Layer_1
 62
7
100
AcDbPolyline
 90
4
 70
0
 10
7.472652
 20
13.361729
 30
0.0
 10
7.473371
 20
13.356357
 30
0.0
 10
7.472652
 20
13.361729
 30
0.0
 10
7.472652
 20
13.361729
 30
0.0
  0
LWPOLYLINE
  5
141
100
AcDbEntity
  8
Layer_1
 62
7
100
AcDbPolyline
 90
16
 70
0
 10
11.084193
 20
13.358698
 30
0.0
 10
11.070929
 20
13.358105
 30
0.0
 10
11.038594
 20
13.319773
 30
0.0
 10
11.026814
 20
13.270749
 30
0.0
 10
11.022649
 20
13.217985
 30
0.0
 10
11.013158
 20
13.168432
 30
0.0
 10
10.995304
 20
13.031593
 30
0.0
 10
10.996517
 20
12.962762
 30
0.0
 10
11.007739
 20
12.894643
 30
0.0
 10
11.060353
 20
12.993374
 30
0.0
 10
11.102643
 20
13.096973
 30
0.0
 10
11.161437
 20
13.312464
 30
0.0
 10
11.149602
 20
13.333308
 30
0.0
 10
11.130975
 20
13.347584
 30
0.0
 10
11.084193
 20
13.358712
 30
0.0
 10
11.084193
 20
13.358698
 30
0.0
  0
LWPOLYLINE
  5
142
100
AcDbEntity
  8
Layer_1
 62
7
100
AcDbPolyline
 90
12
 70
0
 10
2.188125
 20
13.267803
 30
0.0
 10
2.159836
 20
13.257998
 30
0.0
 10
2.147863
 20
13.232599
 30
0.0
 10
2.152141
 20
13.203153
 30
0.0
 10
2.172603
 20
13.181206
 30
0.0
 10
2.202622
 20
13.176086
 30
0.0
 10
2.226575
 20
13.193121
 30
0.0
 10
2.236742
 20
13.221465
 30
0.0
 10
2.225407
 20
13.250274
 30
0.0
 10
2.208925
 20
13.263661
 30
0.0
 10
2.188125
 20
13.267803
 30
0.0
 10
2.188125
 20
13.267803
 30
0.0
  0
LWPOLYLINE
  5
143
100
AcDbEntity
  8
Layer_1
 62
7
100
AcDbPolyline
 90
12
 70
0
 10
4.953423
 20
13.039324
 30
0.0
 10
4.928242
 20
13.024166
 30
0.0
 10
4.920548
 20
12.994675
 30
0.0
 10
4.930131
 20
12.965074
 30
0.0
 10
4.956782
 20
12.949586
 30
0.0
 10
4.986272
 20
12.957855
 30
0.0
 10
5.001465
 20
12.982835
 30
0.0
 10
4.999882
 20
13.012578
 30
0.0
 10
4.979049
 20
13.035133
 30
0.0
 10
4.963132
 20
13.039101
 30
0.0
 10
4.953423
 20
13.039383
 30
0.0
 10
4.953423
 20
13.039324
 30
0.0
  0
LWPOLYLINE
  5
144
100
AcDbEntity
  8
Layer_1
 62
7
100
AcDbPolyline
 90
14
 70
0
 10
6.315682
 20
13.008895
 30
0.0
 10
6.283661
 20
13.001446
 30
0.0
 10
6.252090
 20
12.986510
 30
0.0
 10
6.231346
 20
12.963019
 30
0.0
 10
6.231805
 20
12.929906
 30
0.0
 10
6.328474
 20
12.735814
 30
0.0
 10
6.383007
 20
12.642529
 30
0.0
 10
6.450584
 20
12.557836
 30
0.0
 10
6.440146
 20
12.673669
 30
0.0
 10
6.415592
 20
12.787497
 30
0.0
 10
6.379508
 20
12.898198
 30
0.0
 10
6.334478
 20
13.004650
 30
0.0
 10
6.315682
 20
13.008895
 30
0.0
 10
6.315682
 20
13.008895
 30
0.0
  0
LWPOLYLINE
  5
145
100
AcDbEntity
  8
Layer_1
 62
7
100
AcDbPolyline
 90
15
 70
0
 10
12.250081
 20
12.991146
 30
0.0
 10
12.236732
 20
12.990610
 30
0.0
 10
12.200440
 20
12.945795
 30
0.0
 10
12.181346
 20
12.891467
 30
0.0
 10
12.167501
 20
12.834043
 30
0.0
 10
12.146957
 20
12.779936
 30
0.0
 10
12.116985
 20
12.665786
 30
0.0
 10
12.110551
 20
12.548150
 30
0.0
 10
12.180151
 20
12.637732
 30
0.0
 10
12.239657
 20
12.734783
 30
0.0
 10
12.289347
 20
12.836910
 30
0.0
 10
12.329499
 20
12.941717
 30
0.0
 10
12.295653
 20
12.975909
 30
0.0
 10
12.250081
 20
12.991163
 30
0.0
 10
12.250081
 20
12.991146
 30
0.0
  0
LWPOLYLINE
  5
146
100
AcDbEntity
  8
Layer_1
 62
7
100
AcDbPolyline
 90
13
 70
0
 10
3.486094
 20
12.827214
 30
0.0
 10
3.475680
 20
12.827214
 30
0.0
 10
3.456763
 20
12.821411
 30
0.0
 10
3.445301
 20
12.808900
 30
0.0
 10
3.442007
 20
12.773790
 30
0.0
 10
3.460340
 20
12.741951
 30
0.0
 10
3.475911
 20
12.733531
 30
0.0
 10
3.494842
 20
12.733454
 30
0.0
 10
3.524912
 20
12.753202
 30
0.0
 10
3.530907
 20
12.783810
 30
0.0
 10
3.516682
 20
12.812707
 30
0.0
 10
3.486094
 20
12.827324
 30
0.0
 10
3.486094
 20
12.827214
 30
0.0
  0
LWPOLYLINE
  5
147
100
AcDbEntity
  8
Layer_1
 62
7
100
AcDbPolyline
 90
13
 70
0
 10
5.104836
 20
12.509107
 30
0.0
 10
5.094139
 20
12.508233
 30
0.0
 10
5.076345
 20
12.501562
 30
0.0
 10
5.065302
 20
12.488701
 30
0.0
 10
5.061472
 20
12.453956
 30
0.0
 10
5.078661
 20
12.423088
 30
0.0
 10
5.093891
 20
12.415074
 30
0.0
 10
5.112879
 20
12.415190
 30
0.0
 10
5.142158
 20
12.434385
 30
0.0
 10
5.148714
 20
12.465841
 30
0.0
 10
5.135342
 20
12.495453
 30
0.0
 10
5.104836
 20
12.509116
 30
0.0
 10
5.104836
 20
12.509107
 30
0.0
  0
LWPOLYLINE
  5
148
100
AcDbEntity
  8
Layer_1
 62
7
100
AcDbPolyline
 90
14
 70
0
 10
9.345789
 20
12.446051
 30
0.0
 10
9.332214
 20
12.436128
 30
0.0
 10
9.291458
 20
12.407667
 30
0.0
 10
9.242637
 20
12.401347
 30
0.0
 10
9.215082
 20
12.380688
 30
0.0
 10
9.207066
 20
12.348089
 30
0.0
 10
9.212665
 20
12.276551
 30
0.0
 10
9.228984
 20
12.122346
 30
0.0
 10
9.245994
 20
12.046864
 30
0.0
 10
9.272185
 20
11.973879
 30
0.0
 10
9.304879
 20
12.089194
 30
0.0
 10
9.321581
 20
12.207603
 30
0.0
 10
9.345789
 20
12.446051
 30
0.0
 10
9.345789
 20
12.446051
 30
0.0
  0
LWPOLYLINE
  5
149
100
AcDbEntity
  8
Layer_1
 62
7
100
AcDbPolyline
 90
14
 70
0
 10
13.332658
 20
12.443736
 30
0.0
 10
13.292087
 20
12.400889
 30
0.0
 10
13.265206
 20
12.348375
 30
0.0
 10
13.241987
 20
12.293050
 30
0.0
 10
13.212403
 20
12.241770
 30
0.0
 10
13.166746
 20
12.135328
 30
0.0
 10
13.144161
 20
12.021947
 30
0.0
 10
13.226268
 20
12.099423
 30
0.0
 10
13.297034
 20
12.187060
 30
0.0
 10
13.425650
 20
12.372851
 30
0.0
 10
13.389822
 20
12.424231
 30
0.0
 10
13.362991
 20
12.440051
 30
0.0
 10
13.332658
 20
12.443736
 30
0.0
 10
13.332658
 20
12.443736
 30
0.0
  0
LWPOLYLINE
  5
14a
100
AcDbEntity
  8
Layer_1
 62
7
100
AcDbPolyline
 90
17
 70
0
 10
1.445824
 20
12.393631
 30
0.0
 10
1.441732
 20
12.387899
 30
0.0
 10
1.441168
 20
12.387193
 30
0.0
 10
1.422940
 20
12.361398
 30
0.0
 10
1.397494
 20
12.339217
 30
0.0
 10
1.377446
 20
12.315158
 30
0.0
 10
1.375410
 20
12.283728
 30
0.0
 10
1.438437
 20
12.228171
 30
0.0
 10
1.506587
 20
12.176463
 30
0.0
 10
1.630190
 20
12.080941
 30
0.0
 10
1.756608
 20
11.993019
 30
0.0
 10
1.783612
 20
12.013534
 30
0.0
 10
1.789448
 20
12.045676
 30
0.0
 10
1.777805
 20
12.078471
 30
0.0
 10
1.752374
 20
12.100946
 30
0.0
 10
1.445796
 20
12.393642
 30
0.0
 10
1.445824
 20
12.393631
 30
0.0
  0
LWPOLYLINE
  5
14b
100
AcDbEntity
  8
Layer_1
 62
7
100
AcDbPolyline
 90
19
 70
0
 10
10.581104
 20
12.329524
 30
0.0
 10
10.563521
 20
12.317563
 30
0.0
 10
10.524920
 20
12.290333
 30
0.0
 10
10.503514
 20
12.283683
 30
0.0
 10
10.480689
 20
12.289891
 30
0.0
 10
10.448450
 20
12.286178
 30
0.0
 10
10.428323
 20
12.262924
 30
0.0
 10
10.418229
 20
12.230140
 30
0.0
 10
10.416088
 20
12.197839
 30
0.0
 10
10.404267
 20
12.043953
 30
0.0
 10
10.404909
 20
11.967357
 30
0.0
 10
10.423624
 20
11.893843
 30
0.0
 10
10.439215
 20
11.901345
 30
0.0
 10
10.448533
 20
11.918090
 30
0.0
 10
10.464405
 20
11.954642
 30
0.0
 10
10.497955
 20
12.046960
 30
0.0
 10
10.524924
 20
12.141338
 30
0.0
 10
10.581104
 20
12.329524
 30
0.0
 10
10.581104
 20
12.329524
 30
0.0
  0
LWPOLYLINE
  5
14c
100
AcDbEntity
  8
Layer_1
 62
7
100
AcDbPolyline
 90
22
 70
0
 10
8.074011
 20
12.300088
 30
0.0
 10
8.014081
 20
12.286154
 30
0.0
 10
7.992675
 20
12.267249
 30
0.0
 10
7.989626
 20
12.237141
 30
0.0
 10
8.035650
 20
12.068414
 30
0.0
 10
8.063548
 20
11.985829
 30
0.0
 10
8.099157
 20
11.908064
 30
0.0
 10
8.085808
 20
11.895667
 30
0.0
 10
8.080313
 20
11.879600
 30
0.0
 10
8.088235
 20
11.845194
 30
0.0
 10
8.113619
 20
11.822325
 30
0.0
 10
8.129952
 20
11.820678
 30
0.0
 10
8.147163
 20
11.828469
 30
0.0
 10
8.164948
 20
11.849126
 30
0.0
 10
8.166463
 20
11.876484
 30
0.0
 10
8.153961
 20
11.901083
 30
0.0
 10
8.129693
 20
11.913466
 30
0.0
 10
8.132586
 20
12.104134
 30
0.0
 10
8.121692
 20
12.198769
 30
0.0
 10
8.100596
 20
12.291105
 30
0.0
 10
8.074011
 20
12.300088
 30
0.0
 10
8.074011
 20
12.300088
 30
0.0
  0
LWPOLYLINE
  5
14d
100
AcDbEntity
  8
Layer_1
 62
7
100
AcDbPolyline
 90
17
 70
0
 10
11.783540
 20
12.009873
 30
0.0
 10
11.761103
 20
11.995819
 30
0.0
 10
11.713009
 20
11.962712
 30
0.0
 10
11.687725
 20
11.954191
 30
0.0
 10
11.661422
 20
11.965336
 30
0.0
 10
11.628960
 20
11.963641
 30
0.0
 10
11.606551
 20
11.941278
 30
0.0
 10
11.586097
 20
11.877308
 30
0.0
 10
11.547411
 20
11.740134
 30
0.0
 10
11.535186
 20
11.670358
 30
0.0
 10
11.536793
 20
11.599274
 30
0.0
 10
11.563101
 20
11.601975
 30
0.0
 10
11.580929
 20
11.621705
 30
0.0
 10
11.610396
 20
11.670436
 30
0.0
 10
11.697540
 20
11.839821
 30
0.0
 10
11.783540
 20
12.009873
 30
0.0
 10
11.783540
 20
12.009873
 30
0.0
  0
LWPOLYLINE
  5
14e
100
AcDbEntity
  8
Layer_1
 62
7
100
AcDbPolyline
 90
17
 70
0
 10
2.690453
 20
12.001110
 30
0.0
 10
2.685994
 20
11.995652
 30
0.0
 10
2.685429
 20
11.994834
 30
0.0
 10
2.638344
 20
11.946635
 30
0.0
 10
2.619631
 20
11.920427
 30
0.0
 10
2.619812
 20
11.887787
 30
0.0
 10
2.718308
 20
11.797564
 30
0.0
 10
2.821291
 20
11.711124
 30
0.0
 10
2.875520
 20
11.666211
 30
0.0
 10
2.931104
 20
11.627558
 30
0.0
 10
2.958712
 20
11.650434
 30
0.0
 10
2.963563
 20
11.684484
 30
0.0
 10
2.950554
 20
11.719218
 30
0.0
 10
2.924584
 20
11.744141
 30
0.0
 10
2.690481
 20
12.001119
 30
0.0
 10
2.690481
 20
12.001119
 30
0.0
 10
2.690453
 20
12.001110
 30
0.0
  0
LWPOLYLINE
  5
14f
100
AcDbEntity
  8
Layer_1
 62
7
100
AcDbPolyline
 90
14
 70
0
 10
6.923955
 20
11.992071
 30
0.0
 10
6.917662
 20
11.988983
 30
0.0
 10
6.916251
 20
11.988278
 30
0.0
 10
6.851177
 20
11.962837
 30
0.0
 10
6.823453
 20
11.944617
 30
0.0
 10
6.812393
 20
11.912927
 30
0.0
 10
6.926608
 20
11.678494
 30
0.0
 10
6.964193
 20
11.624077
 30
0.0
 10
7.008086
 20
11.574591
 30
0.0
 10
7.002164
 20
11.681316
 30
0.0
 10
6.980647
 20
11.785738
 30
0.0
 10
6.923955
 20
11.992082
 30
0.0
 10
6.923955
 20
11.992082
 30
0.0
 10
6.923955
 20
11.992071
 30
0.0
  0
LWPOLYLINE
  5
150
100
AcDbEntity
  8
Layer_1
 62
7
100
AcDbPolyline
 90
15
 70
0
 10
4.210558
 20
11.775276
 30
0.0
 10
4.207228
 20
11.774401
 30
0.0
 10
4.148998
 20
11.737772
 30
0.0
 10
4.132925
 20
11.709980
 30
0.0
 10
4.139325
 20
11.677003
 30
0.0
 10
4.262060
 20
11.544996
 30
0.0
 10
4.326305
 20
11.482522
 30
0.0
 10
4.400014
 20
11.433530
 30
0.0
 10
4.422501
 20
11.449729
 30
0.0
 10
4.425096
 20
11.475422
 30
0.0
 10
4.400014
 20
11.526630
 30
0.0
 10
4.316275
 20
11.654184
 30
0.0
 10
4.221508
 20
11.773024
 30
0.0
 10
4.210558
 20
11.775282
 30
0.0
 10
4.210558
 20
11.775276
 30
0.0
  0
LWPOLYLINE
  5
151
100
AcDbEntity
  8
Layer_1
 62
7
100
AcDbPolyline
 90
16
 70
0
 10
5.809403
 20
11.473431
 30
0.0
 10
5.803731
 20
11.469296
 30
0.0
 10
5.802320
 20
11.468365
 30
0.0
 10
5.742407
 20
11.431836
 30
0.0
 10
5.718210
 20
11.409299
 30
0.0
 10
5.712912
 20
11.375319
 30
0.0
 10
5.818219
 20
11.225194
 30
0.0
 10
5.876698
 20
11.154940
 30
0.0
 10
5.944926
 20
11.094367
 30
0.0
 10
5.960377
 20
11.097577
 30
0.0
 10
5.962146
 20
11.112613
 30
0.0
 10
5.952038
 20
11.147667
 30
0.0
 10
5.923454
 20
11.231923
 30
0.0
 10
5.886662
 20
11.312905
 30
0.0
 10
5.809432
 20
11.473437
 30
0.0
 10
5.809403
 20
11.473431
 30
0.0
  0
LWPOLYLINE
  5
152
100
AcDbEntity
  8
Layer_1
 62
7
100
AcDbPolyline
 90
18
 70
0
 10
12.885674
 20
11.457776
 30
0.0
 10
12.861713
 20
11.445485
 30
0.0
 10
12.815203
 20
11.421220
 30
0.0
 10
12.791586
 20
11.418852
 30
0.0
 10
12.771318
 20
11.435012
 30
0.0
 10
12.737930
 20
11.437673
 30
0.0
 10
12.711314
 20
11.418515
 30
0.0
 10
12.676942
 20
11.357731
 30
0.0
 10
12.614342
 20
11.223631
 30
0.0
 10
12.588332
 20
11.154600
 30
0.0
 10
12.573818
 20
11.081738
 30
0.0
 10
12.569234
 20
11.057262
 30
0.0
 10
12.579773
 20
11.060576
 30
0.0
 10
12.615192
 20
11.095298
 30
0.0
 10
12.690848
 20
11.179556
 30
0.0
 10
12.759175
 20
11.269770
 30
0.0
 10
12.885674
 20
11.457776
 30
0.0
 10
12.885674
 20
11.457776
 30
0.0
  0
LWPOLYLINE
  5
153
100
AcDbEntity
  8
Layer_1
 62
7
100
AcDbPolyline
 90
26
 70
0
 10
9.976414
 20
11.229077
 30
0.0
 10
9.961005
 20
11.217337
 30
0.0
 10
9.918104
 20
11.187161
 30
0.0
 10
9.892691
 20
11.182382
 30
0.0
 10
9.865529
 20
11.185753
 30
0.0
 10
9.837409
 20
11.166614
 30
0.0
 10
9.828040
 20
11.135037
 30
0.0
 10
9.829348
 20
11.064705
 30
0.0
 10
9.828364
 20
10.991452
 30
0.0
 10
9.829348
 20
10.920893
 30
0.0
 10
9.814144
 20
10.908090
 30
0.0
 10
9.806421
 20
10.891096
 30
0.0
 10
9.810136
 20
10.853534
 30
0.0
 10
9.833928
 20
10.826198
 30
0.0
 10
9.851301
 20
10.821986
 30
0.0
 10
9.871230
 20
10.827077
 30
0.0
 10
9.896363
 20
10.843731
 30
0.0
 10
9.907866
 20
10.871308
 30
0.0
 10
9.906040
 20
10.900816
 30
0.0
 10
9.891183
 20
10.923264
 30
0.0
 10
9.916855
 20
10.961231
 30
0.0
 10
9.928426
 20
11.005652
 30
0.0
 10
9.935367
 20
11.052287
 30
0.0
 10
9.947148
 20
11.096896
 30
0.0
 10
9.976668
 20
11.229077
 30
0.0
 10
9.976414
 20
11.229077
 30
0.0
  0
LWPOLYLINE
  5
154
100
AcDbEntity
  8
Layer_1
 62
7
100
AcDbPolyline
 90
26
 70
0
 10
8.665690
 20
11.190822
 30
0.0
 10
8.643663
 20
11.186511
 30
0.0
 10
8.625558
 20
11.174251
 30
0.0
 10
8.613739
 20
11.155752
 30
0.0
 10
8.610572
 20
11.132724
 30
0.0
 10
8.652792
 20
10.930650
 30
0.0
 10
8.654574
 20
10.898338
 30
0.0
 10
8.654296
 20
10.881847
 30
0.0
 10
8.661710
 20
10.865606
 30
0.0
 10
8.688898
 20
10.846760
 30
0.0
 10
8.721157
 20
10.851596
 30
0.0
 10
8.744669
 20
10.873787
 30
0.0
 10
8.745615
 20
10.907002
 30
0.0
 10
8.729225
 20
10.926205
 30
0.0
 10
8.723398
 20
10.934303
 30
0.0
 10
8.729641
 20
10.945091
 30
0.0
 10
8.737529
 20
10.982734
 30
0.0
 10
8.735505
 20
11.021348
 30
0.0
 10
8.732666
 20
11.060185
 30
0.0
 10
8.738108
 20
11.098496
 30
0.0
 10
8.737738
 20
11.129709
 30
0.0
 10
8.729140
 20
11.160534
 30
0.0
 10
8.710287
 20
11.182980
 30
0.0
 10
8.679152
 20
11.189058
 30
0.0
 10
8.665690
 20
11.190808
 30
0.0
 10
8.665690
 20
11.190822
 30
0.0
  0
LWPOLYLINE
  5
155
100
AcDbEntity
  8
Layer_1
 62
7
100
AcDbPolyline
 90
17
 70
0
 10
1.870202
 20
11.084052
 30
0.0
 10
1.868791
 20
11.077163
 30
0.0
 10
1.867944
 20
11.072421
 30
0.0
 10
1.865093
 20
11.045932
 30
0.0
 10
1.853519
 20
11.020871
 30
0.0
 10
1.830522
 20
10.969345
 30
0.0
 10
1.842798
 20
10.937246
 30
0.0
 10
1.869532
 20
10.914375
 30
0.0
 10
1.932206
 20
10.878120
 30
0.0
 10
2.177457
 20
10.723888
 30
0.0
 10
2.203587
 20
10.747824
 30
0.0
 10
2.207062
 20
10.781484
 30
0.0
 10
2.192547
 20
10.814431
 30
0.0
 10
2.164701
 20
10.836227
 30
0.0
 10
1.870315
 20
11.084052
 30
0.0
 10
1.870315
 20
11.084052
 30
0.0
 10
1.870202
 20
11.084052
 30
0.0
  0
LWPOLYLINE
  5
156
100
AcDbEntity
  8
Layer_1
 62
7
100
AcDbPolyline
 90
17
 70
0
 10
3.302903
 20
10.961406
 30
0.0
 10
3.300928
 20
10.954738
 30
0.0
 10
3.299516
 20
10.950383
 30
0.0
 10
3.295140
 20
10.927508
 30
0.0
 10
3.283574
 20
10.907000
 30
0.0
 10
3.253345
 20
10.867150
 30
0.0
 10
3.257210
 20
10.832621
 30
0.0
 10
3.280096
 20
10.807726
 30
0.0
 10
3.336629
 20
10.764458
 30
0.0
 10
3.453317
 20
10.675139
 30
0.0
 10
3.576800
 20
10.595511
 30
0.0
 10
3.576714
 20
10.654508
 30
0.0
 10
3.551072
 20
10.706385
 30
0.0
 10
3.469188
 20
10.793120
 30
0.0
 10
3.302931
 20
10.961406
 30
0.0
 10
3.302931
 20
10.961406
 30
0.0
 10
3.302903
 20
10.961406
 30
0.0
  0
LWPOLYLINE
  5
157
100
AcDbEntity
  8
Layer_1
 62
7
100
AcDbPolyline
 90
14
 70
0
 10
7.526923
 20
10.948675
 30
0.0
 10
7.520319
 20
10.946079
 30
0.0
 10
7.519755
 20
10.945797
 30
0.0
 10
7.455013
 20
10.924474
 30
0.0
 10
7.428759
 20
10.906587
 30
0.0
 10
7.419904
 20
10.874688
 30
0.0
 10
7.489324
 20
10.720288
 30
0.0
 10
7.532458
 20
10.647600
 30
0.0
 10
7.585710
 20
10.581772
 30
0.0
 10
7.583892
 20
10.675086
 30
0.0
 10
7.571610
 20
10.767455
 30
0.0
 10
7.527008
 20
10.948661
 30
0.0
 10
7.527008
 20
10.948661
 30
0.0
 10
7.526923
 20
10.948675
 30
0.0
  0
LWPOLYLINE
  5
158
100
AcDbEntity
  8
Layer_1
 62
7
100
AcDbPolyline
 90
21
 70
0
 10
11.057749
 20
10.922547
 30
0.0
 10
11.022191
 20
10.887339
 30
0.0
 10
11.007242
 20
10.839769
 30
0.0
 10
10.999738
 20
10.787920
 30
0.0
 10
10.986516
 20
10.739873
 30
0.0
 10
10.979613
 20
10.712675
 30
0.0
 10
10.981136
 20
10.683312
 30
0.0
 10
10.993703
 20
10.659961
 30
0.0
 10
11.019931
 20
10.650798
 30
0.0
 10
11.052087
 20
10.667884
 30
0.0
 10
11.071479
 20
10.698722
 30
0.0
 10
11.101014
 20
10.768372
 30
0.0
 10
11.134690
 20
10.835865
 30
0.0
 10
11.148996
 20
10.870531
 30
0.0
 10
11.156132
 20
10.906616
 30
0.0
 10
11.140814
 20
10.919380
 30
0.0
 10
11.121683
 20
10.915529
 30
0.0
 10
11.101764
 20
10.910061
 30
0.0
 10
11.084080
 20
10.917972
 30
0.0
 10
11.057749
 20
10.922547
 30
0.0
 10
11.057749
 20
10.922547
 30
0.0
  0
LWPOLYLINE
  5
159
100
AcDbEntity
  8
Layer_1
 62
7
100
AcDbPolyline
 90
13
 70
0
 10
8.711325
 20
10.834076
 30
0.0
 10
8.695295
 20
10.833681
 30
0.0
 10
8.662637
 20
10.828309
 30
0.0
 10
8.635429
 20
10.807712
 30
0.0
 10
8.623683
 20
10.778877
 30
0.0
 10
8.637411
 20
10.748794
 30
0.0
 10
8.687423
 20
10.742022
 30
0.0
 10
8.736453
 20
10.752048
 30
0.0
 10
8.781520
 20
10.775330
 30
0.0
 10
8.819642
 20
10.808326
 30
0.0
 10
8.766161
 20
10.824624
 30
0.0
 10
8.711325
 20
10.834068
 30
0.0
 10
8.711325
 20
10.834076
 30
0.0
  0
LWPOLYLINE
  5
15a
100
AcDbEntity
  8
Layer_1
 62
7
100
AcDbPolyline
 90
13
 70
0
 10
9.801183
 20
10.833681
 30
0.0
 10
9.785209
 20
10.833681
 30
0.0
 10
9.757598
 20
10.819103
 30
0.0
 10
9.746269
 20
10.790778
 30
0.0
 10
9.753324
 20
10.762174
 30
0.0
 10
9.780863
 20
10.746754
 30
0.0
 10
9.813964
 20
10.749697
 30
0.0
 10
9.835977
 20
10.774316
 30
0.0
 10
9.839295
 20
10.805895
 30
0.0
 10
9.831565
 20
10.819694
 30
0.0
 10
9.816310
 20
10.829713
 30
0.0
 10
9.801183
 20
10.833738
 30
0.0
 10
9.801183
 20
10.833681
 30
0.0
  0
LWPOLYLINE
  5
15b
100
AcDbEntity
  8
Layer_1
 62
7
100
AcDbPolyline
 90
16
 70
0
 10
4.805849
 20
10.761362
 30
0.0
 10
4.800967
 20
10.756290
 30
0.0
 10
4.799838
 20
10.755133
 30
0.0
 10
4.747253
 20
10.708927
 30
0.0
 10
4.727710
 20
10.682447
 30
0.0
 10
4.728323
 20
10.648253
 30
0.0
 10
4.859962
 20
10.518005
 30
0.0
 10
4.930741
 20
10.458793
 30
0.0
 10
5.009444
 20
10.410901
 30
0.0
 10
5.024246
 20
10.416877
 30
0.0
 10
5.023189
 20
10.432162
 30
0.0
 10
5.006538
 20
10.465138
 30
0.0
 10
4.962642
 20
10.543170
 30
0.0
 10
4.911407
 20
10.616553
 30
0.0
 10
4.805821
 20
10.761362
 30
0.0
 10
4.805849
 20
10.761362
 30
0.0
  0
LWPOLYLINE
  5
15c
100
AcDbEntity
  8
Layer_1
 62
7
100
AcDbPolyline
 90
18
 70
0
 10
13.738691
 20
10.724320
 30
0.0
 10
13.689364
 20
10.689829
 30
0.0
 10
13.651039
 20
10.642441
 30
0.0
 10
13.580533
 20
10.542476
 30
0.0
 10
13.551814
 20
10.493022
 30
0.0
 10
13.550359
 20
10.466470
 30
0.0
 10
13.567438
 20
10.444358
 30
0.0
 10
13.608478
 20
10.446870
 30
0.0
 10
13.641331
 20
10.470691
 30
0.0
 10
13.700704
 20
10.531229
 30
0.0
 10
13.795029
 20
10.621273
 30
0.0
 10
13.882455
 20
10.717925
 30
0.0
 10
13.828247
 20
10.698236
 30
0.0
 10
13.801468
 20
10.691684
 30
0.0
 10
13.776621
 20
10.700509
 30
0.0
 10
13.761138
 20
10.717645
 30
0.0
 10
13.738691
 20
10.724320
 30
0.0
 10
13.738691
 20
10.724320
 30
0.0
  0
LWPOLYLINE
  5
15d
100
AcDbEntity
  8
Layer_1
 62
7
100
AcDbPolyline
 90
13
 70
0
 10
6.404046
 20
10.449043
 30
0.0
 10
6.398147
 20
10.445075
 30
0.0
 10
6.397583
 20
10.444680
 30
0.0
 10
6.337727
 20
10.408991
 30
0.0
 10
6.316267
 20
10.385089
 30
0.0
 10
6.316331
 20
10.351194
 30
0.0
 10
6.417949
 20
10.216373
 30
0.0
 10
6.475355
 20
10.154853
 30
0.0
 10
6.541347
 20
10.102266
 30
0.0
 10
6.519421
 20
10.193354
 30
0.0
 10
6.487393
 20
10.281242
 30
0.0
 10
6.404017
 20
10.449035
 30
0.0
 10
6.404046
 20
10.449043
 30
0.0
  0
LWPOLYLINE
  5
15e
100
AcDbEntity
  8
Layer_1
 62
7
100
AcDbPolyline
 90
28
 70
0
 10
12.293290
 20
10.412608
 30
0.0
 10
12.274550
 20
10.402302
 30
0.0
 10
12.252977
 20
10.388957
 30
0.0
 10
12.228308
 20
10.385020
 30
0.0
 10
12.204295
 20
10.390715
 30
0.0
 10
12.184690
 20
10.406270
 30
0.0
 10
12.153584
 20
10.403101
 30
0.0
 10
12.129555
 20
10.382409
 30
0.0
 10
12.099883
 20
10.323147
 30
0.0
 10
12.063596
 20
10.243535
 30
0.0
 10
12.046527
 20
10.203452
 30
0.0
 10
12.036919
 20
10.160426
 30
0.0
 10
12.029902
 20
10.129771
 30
0.0
 10
12.021381
 20
10.121421
 30
0.0
 10
12.005169
 20
10.121510
 30
0.0
 10
11.978978
 20
10.104155
 30
0.0
 10
11.972361
 20
10.074817
 30
0.0
 10
11.983523
 20
10.046336
 30
0.0
 10
12.010672
 20
10.031552
 30
0.0
 10
12.036078
 20
10.037667
 30
0.0
 10
12.053796
 20
10.056237
 30
0.0
 10
12.060274
 20
10.080890
 30
0.0
 10
12.051961
 20
10.105251
 30
0.0
 10
12.119502
 20
10.170923
 30
0.0
 10
12.180852
 20
10.243043
 30
0.0
 10
12.287730
 20
10.399378
 30
0.0
 10
12.293290
 20
10.412608
 30
0.0
 10
12.293290
 20
10.412608
 30
0.0
  0
LWPOLYLINE
  5
15f
100
AcDbEntity
  8
Layer_1
 62
7
100
AcDbPolyline
 90
16
 70
0
 10
9.334302
 20
10.065893
 30
0.0
 10
9.327586
 20
10.063579
 30
0.0
 10
9.324058
 20
10.062365
 30
0.0
 10
9.291763
 20
10.053194
 30
0.0
 10
9.256011
 20
10.049091
 30
0.0
 10
9.225121
 20
10.038396
 30
0.0
 10
9.207415
 20
10.009448
 30
0.0
 10
9.218965
 20
9.912016
 30
0.0
 10
9.228759
 20
9.864754
 30
0.0
 10
9.253841
 20
9.824517
 30
0.0
 10
9.286748
 20
9.829769
 30
0.0
 10
9.307354
 20
9.853817
 30
0.0
 10
9.317742
 20
9.887152
 30
0.0
 10
9.319994
 20
9.920263
 30
0.0
 10
9.334302
 20
10.065893
 30
0.0
 10
9.334302
 20
10.065893
 30
0.0
  0
LWPOLYLINE
  5
160
100
AcDbEntity
  8
Layer_1
 62
7
100
AcDbPolyline
 90
13
 70
0
 10
1.231618
 20
10.018158
 30
0.0
 10
1.228090
 20
10.015843
 30
0.0
 10
1.198401
 20
9.992818
 30
0.0
 10
1.177713
 20
9.959469
 30
0.0
 10
1.174044
 20
9.923605
 30
0.0
 10
1.195409
 20
9.893034
 30
0.0
 10
1.410638
 20
9.792828
 30
0.0
 10
1.521076
 20
9.750885
 30
0.0
 10
1.637594
 20
9.729267
 30
0.0
 10
1.546998
 20
9.815651
 30
0.0
 10
1.447052
 20
9.890659
 30
0.0
 10
1.231618
 20
10.018161
 30
0.0
 10
1.231618
 20
10.018158
 30
0.0
  0
LWPOLYLINE
  5
161
100
AcDbEntity
  8
Layer_1
 62
7
100
AcDbPolyline
 90
17
 70
0
 10
2.543189
 20
9.986574
 30
0.0
 10
2.542342
 20
9.979629
 30
0.0
 10
2.541778
 20
9.975164
 30
0.0
 10
2.541102
 20
9.951310
 30
0.0
 10
2.532750
 20
9.928832
 30
0.0
 10
2.512229
 20
9.883001
 30
0.0
 10
2.520011
 20
9.854154
 30
0.0
 10
2.542522
 20
9.833791
 30
0.0
 10
2.598533
 20
9.804120
 30
0.0
 10
2.734695
 20
9.729541
 30
0.0
 10
2.877143
 20
9.666263
 30
0.0
 10
2.872175
 20
9.701835
 30
0.0
 10
2.859210
 20
9.733216
 30
0.0
 10
2.815826
 20
9.786084
 30
0.0
 10
2.705044
 20
9.870984
 30
0.0
 10
2.543161
 20
9.986574
 30
0.0
 10
2.543189
 20
9.986574
 30
0.0
  0
LWPOLYLINE
  5
162
100
AcDbEntity
  8
Layer_1
 62
7
100
AcDbPolyline
 90
15
 70
0
 10
3.692398
 20
9.957305
 30
0.0
 10
3.688334
 20
9.957023
 30
0.0
 10
3.668674
 20
9.952998
 30
0.0
 10
3.655798
 20
9.941490
 30
0.0
 10
3.648752
 20
9.906521
 30
0.0
 10
3.663910
 20
9.873114
 30
0.0
 10
3.678789
 20
9.863559
 30
0.0
 10
3.697986
 20
9.862269
 30
0.0
 10
3.727637
 20
9.879829
 30
0.0
 10
3.736012
 20
9.912507
 30
0.0
 10
3.723977
 20
9.943809
 30
0.0
 10
3.710577
 20
9.953791
 30
0.0
 10
3.692398
 20
9.957243
 30
0.0
 10
3.692398
 20
9.957243
 30
0.0
 10
3.692398
 20
9.957305
 30
0.0
  0
LWPOLYLINE
  5
163
100
AcDbEntity
  8
Layer_1
 62
7
100
AcDbPolyline
 90
20
 70
0
 10
8.121424
 20
9.904995
 30
0.0
 10
8.113324
 20
9.904544
 30
0.0
 10
8.051818
 20
9.884260
 30
0.0
 10
8.024047
 20
9.870118
 30
0.0
 10
8.007604
 20
9.842421
 30
0.0
 10
8.008650
 20
9.811787
 30
0.0
 10
8.021394
 20
9.783901
 30
0.0
 10
8.037191
 20
9.756542
 30
0.0
 10
8.047397
 20
9.727491
 30
0.0
 10
8.078477
 20
9.682990
 30
0.0
 10
8.100714
 20
9.673214
 30
0.0
 10
8.123061
 20
9.685268
 30
0.0
 10
8.139028
 20
9.717869
 30
0.0
 10
8.139335
 20
9.754372
 30
0.0
 10
8.132770
 20
9.824562
 30
0.0
 10
8.153444
 20
9.842632
 30
0.0
 10
8.156794
 20
9.869146
 30
0.0
 10
8.145295
 20
9.893473
 30
0.0
 10
8.121424
 20
9.904984
 30
0.0
 10
8.121424
 20
9.904995
 30
0.0
  0
LWPOLYLINE
  5
164
100
AcDbEntity
  8
Layer_1
 62
7
100
AcDbPolyline
 90
17
 70
0
 10
3.944930
 20
9.883828
 30
0.0
 10
3.941064
 20
9.877930
 30
0.0
 10
3.940217
 20
9.876434
 30
0.0
 10
3.896713
 20
9.819930
 30
0.0
 10
3.882178
 20
9.789628
 30
0.0
 10
3.890885
 20
9.756213
 30
0.0
 10
4.045035
 20
9.650606
 30
0.0
 10
4.126017
 20
9.604959
 30
0.0
 10
4.212646
 20
9.572989
 30
0.0
 10
4.220346
 20
9.586241
 30
0.0
 10
4.212964
 20
9.602285
 30
0.0
 10
4.190040
 20
9.633568
 30
0.0
 10
4.133443
 20
9.700464
 30
0.0
 10
4.071253
 20
9.762148
 30
0.0
 10
3.945015
 20
9.883820
 30
0.0
 10
3.945015
 20
9.883820
 30
0.0
 10
3.944930
 20
9.883828
 30
0.0
  0
LWPOLYLINE
  5
165
100
AcDbEntity
  8
Layer_1
 62
7
100
AcDbPolyline
 90
16
 70
0
 10
10.445552
 20
9.881966
 30
0.0
 10
10.415837
 20
9.852922
 30
0.0
 10
10.405904
 20
9.813324
 30
0.0
 10
10.402940
 20
9.769916
 30
0.0
 10
10.394132
 20
9.729444
 30
0.0
 10
10.394898
 20
9.703120
 30
0.0
 10
10.406126
 20
9.678123
 30
0.0
 10
10.425715
 20
9.662802
 30
0.0
 10
10.451564
 20
9.665501
 30
0.0
 10
10.482076
 20
9.705822
 30
0.0
 10
10.504950
 20
9.751118
 30
0.0
 10
10.527792
 20
9.849059
 30
0.0
 10
10.513053
 20
9.867078
 30
0.0
 10
10.492197
 20
9.877366
 30
0.0
 10
10.445552
 20
9.881966
 30
0.0
 10
10.445552
 20
9.881966
 30
0.0
  0
LWPOLYLINE
  5
166
100
AcDbEntity
  8
Layer_1
 62
7
100
AcDbPolyline
 90
18
 70
0
 10
0.424208
 20
9.756730
 30
0.0
 10
0.401546
 20
9.742342
 30
0.0
 10
0.353970
 20
9.709085
 30
0.0
 10
0.328989
 20
9.700360
 30
0.0
 10
0.302542
 20
9.711142
 30
0.0
 10
0.270902
 20
9.710060
 30
0.0
 10
0.248747
 20
9.689120
 30
0.0
 10
0.235054
 20
9.658149
 30
0.0
 10
0.228798
 20
9.626972
 30
0.0
 10
0.191071
 20
9.484878
 30
0.0
 10
0.179045
 20
9.412719
 30
0.0
 10
0.179888
 20
9.339348
 30
0.0
 10
0.204709
 20
9.339472
 30
0.0
 10
0.221731
 20
9.356841
 30
0.0
 10
0.248694
 20
9.402572
 30
0.0
 10
0.336980
 20
9.579524
 30
0.0
 10
0.424208
 20
9.756730
 30
0.0
 10
0.424208
 20
9.756730
 30
0.0
  0
LWPOLYLINE
  5
167
100
AcDbEntity
  8
Layer_1
 62
7
100
AcDbPolyline
 90
16
 70
0
 10
5.404471
 20
9.735947
 30
0.0
 10
5.401649
 20
9.729665
 30
0.0
 10
5.399673
 20
9.725586
 30
0.0
 10
5.388598
 20
9.697052
 30
0.0
 10
5.366360
 20
9.672334
 30
0.0
 10
5.347536
 20
9.646819
 30
0.0
 10
5.346700
 20
9.615892
 30
0.0
 10
5.368163
 20
9.587609
 30
0.0
 10
5.395341
 20
9.564312
 30
0.0
 10
5.450078
 20
9.517721
 30
0.0
 10
5.535069
 20
9.456700
 30
0.0
 10
5.629882
 20
9.412605
 30
0.0
 10
5.582326
 20
9.499181
 30
0.0
 10
5.527019
 20
9.580898
 30
0.0
 10
5.404471
 20
9.735947
 30
0.0
 10
5.404471
 20
9.735947
 30
0.0
  0
LWPOLYLINE
  5
168
100
AcDbEntity
  8
Layer_1
 62
7
100
AcDbPolyline
 90
16
 70
0
 10
9.253672
 20
9.708884
 30
0.0
 10
9.176255
 20
9.703870
 30
0.0
 10
9.138963
 20
9.694383
 30
0.0
 10
9.104743
 20
9.676308
 30
0.0
 10
9.118865
 20
9.638387
 30
0.0
 10
9.151105
 20
9.617321
 30
0.0
 10
9.191992
 20
9.610191
 30
0.0
 10
9.232053
 20
9.614075
 30
0.0
 10
9.373919
 20
9.614421
 30
0.0
 10
9.443707
 20
9.625130
 30
0.0
 10
9.510748
 20
9.648195
 30
0.0
 10
9.450268
 20
9.676824
 30
0.0
 10
9.386464
 20
9.696181
 30
0.0
 10
9.320534
 20
9.706718
 30
0.0
 10
9.253672
 20
9.708884
 30
0.0
 10
9.253672
 20
9.708884
 30
0.0
  0
LWPOLYLINE
  5
169
100
AcDbEntity
  8
Layer_1
 62
7
100
AcDbPolyline
 90
19
 70
0
 10
13.136090
 20
9.668865
 30
0.0
 10
13.090880
 20
9.634990
 30
0.0
 10
13.053639
 20
9.591241
 30
0.0
 10
12.986343
 20
9.496995
 30
0.0
 10
12.972183
 20
9.473511
 30
0.0
 10
12.982056
 20
9.450761
 30
0.0
 10
13.005841
 20
9.436204
 30
0.0
 10
13.033417
 20
9.437299
 30
0.0
 10
13.064290
 20
9.452909
 30
0.0
 10
13.089266
 20
9.477031
 30
0.0
 10
13.113749
 20
9.502372
 30
0.0
 10
13.143145
 20
9.521636
 30
0.0
 10
13.171812
 20
9.543938
 30
0.0
 10
13.194256
 20
9.573495
 30
0.0
 10
13.202073
 20
9.606669
 30
0.0
 10
13.186862
 20
9.639816
 30
0.0
 10
13.165095
 20
9.661113
 30
0.0
 10
13.136090
 20
9.668865
 30
0.0
 10
13.136090
 20
9.668865
 30
0.0
  0
LWPOLYLINE
  5
16a
100
AcDbEntity
  8
Layer_1
 62
7
100
AcDbPolyline
 90
11
 70
0
 10
9.838577
 20
9.652217
 30
0.0
 10
9.808394
 20
9.640886
 30
0.0
 10
9.797182
 20
9.611262
 30
0.0
 10
9.804692
 20
9.578703
 30
0.0
 10
9.830675
 20
9.558567
 30
0.0
 10
9.862694
 20
9.562735
 30
0.0
 10
9.882886
 20
9.586413
 30
0.0
 10
9.886293
 20
9.617596
 30
0.0
 10
9.867956
 20
9.644281
 30
0.0
 10
9.838577
 20
9.652217
 30
0.0
 10
9.838577
 20
9.652217
 30
0.0
  0
LWPOLYLINE
  5
16b
100
AcDbEntity
  8
Layer_1
 62
7
100
AcDbPolyline
 90
15
 70
0
 10
6.959685
 20
9.411888
 30
0.0
 10
6.923400
 20
9.399711
 30
0.0
 10
6.899550
 20
9.368544
 30
0.0
 10
6.895566
 20
9.331517
 30
0.0
 10
6.903344
 20
9.314908
 30
0.0
 10
6.918875
 20
9.301756
 30
0.0
 10
6.967199
 20
9.241771
 30
0.0
 10
6.995853
 20
9.217101
 30
0.0
 10
7.031821
 20
9.203859
 30
0.0
 10
7.052106
 20
9.243635
 30
0.0
 10
7.048437
 20
9.286749
 30
0.0
 10
7.011331
 20
9.369391
 30
0.0
 10
6.993149
 20
9.400301
 30
0.0
 10
6.959685
 20
9.411888
 30
0.0
 10
6.959685
 20
9.411888
 30
0.0
  0
LWPOLYLINE
  5
16c
100
AcDbEntity
  8
Layer_1
 62
7
100
AcDbPolyline
 90
18
 70
0
 10
11.695882
 20
9.408307
 30
0.0
 10
11.674235
 20
9.396786
 30
0.0
 10
11.631634
 20
9.380086
 30
0.0
 10
11.610045
 20
9.384123
 30
0.0
 10
11.591488
 20
9.398338
 30
0.0
 10
11.560786
 20
9.399011
 30
0.0
 10
11.536292
 20
9.380565
 30
0.0
 10
11.505946
 20
9.323262
 30
0.0
 10
11.485054
 20
9.272446
 30
0.0
 10
11.474148
 20
9.247684
 30
0.0
 10
11.472926
 20
9.221343
 30
0.0
 10
11.490594
 20
9.199528
 30
0.0
 10
11.516695
 20
9.192356
 30
0.0
 10
11.542748
 20
9.199749
 30
0.0
 10
11.560274
 20
9.221625
 30
0.0
 10
11.632449
 20
9.311858
 30
0.0
 10
11.695882
 20
9.408377
 30
0.0
 10
11.695882
 20
9.408307
 30
0.0
  0
LWPOLYLINE
  5
16d
100
AcDbEntity
  8
Layer_1
 62
7
100
AcDbPolyline
 90
13
 70
0
 10
0.695565
 20
8.918716
 30
0.0
 10
0.693589
 20
8.911937
 30
0.0
 10
0.693589
 20
8.910949
 30
0.0
 10
0.668246
 20
8.845571
 30
0.0
 10
0.662863
 20
8.813323
 30
0.0
 10
0.679732
 20
8.783893
 30
0.0
 10
1.046480
 20
8.671224
 30
0.0
 10
1.071705
 20
8.682943
 30
0.0
 10
1.078417
 20
8.708852
 30
0.0
 10
1.069915
 20
8.737431
 30
0.0
 10
1.049500
 20
8.757161
 30
0.0
 10
0.695847
 20
8.918722
 30
0.0
 10
0.695565
 20
8.918716
 30
0.0
  0
LWPOLYLINE
  5
16e
100
AcDbEntity
  8
Layer_1
 62
7
100
AcDbPolyline
 90
15
 70
0
 10
1.991021
 20
8.889280
 30
0.0
 10
1.987776
 20
8.887728
 30
0.0
 10
1.957805
 20
8.864713
 30
0.0
 10
1.937177
 20
8.830759
 30
0.0
 10
1.933360
 20
8.794049
 30
0.0
 10
1.953824
 20
8.762768
 30
0.0
 10
2.022454
 20
8.737053
 30
0.0
 10
2.091464
 20
8.711559
 30
0.0
 10
2.228190
 20
8.666224
 30
0.0
 10
2.298589
 20
8.651601
 30
0.0
 10
2.370356
 20
8.645305
 30
0.0
 10
2.285606
 20
8.720577
 30
0.0
 10
2.190489
 20
8.781751
 30
0.0
 10
1.991021
 20
8.889272
 30
0.0
 10
1.991021
 20
8.889280
 30
0.0
  0
LWPOLYLINE
  5
16f
100
AcDbEntity
  8
Layer_1
 62
7
100
AcDbPolyline
 90
16
 70
0
 10
3.257889
 20
8.861941
 30
0.0
 10
3.254587
 20
8.855713
 30
0.0
 10
3.254304
 20
8.855007
 30
0.0
 10
3.240092
 20
8.827028
 30
0.0
 10
3.219196
 20
8.799475
 30
0.0
 10
3.205116
 20
8.770790
 30
0.0
 10
3.211350
 20
8.739417
 30
0.0
 10
3.282555
 20
8.702440
 30
0.0
 10
3.357485
 20
8.670185
 30
0.0
 10
3.474886
 20
8.625735
 30
0.0
 10
3.597769
 20
8.600841
 30
0.0
 10
3.523003
 20
8.678196
 30
0.0
 10
3.437855
 20
8.743472
 30
0.0
 10
3.258002
 20
8.861953
 30
0.0
 10
3.258002
 20
8.861953
 30
0.0
 10
3.257889
 20
8.861941
 30
0.0
  0
LWPOLYLINE
  5
170
100
AcDbEntity
  8
Layer_1
 62
7
100
AcDbPolyline
 90
27
 70
0
 10
4.600589
 20
8.807314
 30
0.0
 10
4.598049
 20
8.800812
 30
0.0
 10
4.596920
 20
8.797891
 30
0.0
 10
4.584344
 20
8.765825
 30
0.0
 10
4.566602
 20
8.733837
 30
0.0
 10
4.556852
 20
8.701617
 30
0.0
 10
4.568246
 20
8.668850
 30
0.0
 10
4.711534
 20
8.591408
 30
0.0
 10
4.786476
 20
8.560016
 30
0.0
 10
4.865596
 20
8.540747
 30
0.0
 10
4.842341
 20
8.493370
 30
0.0
 10
4.828060
 20
8.442522
 30
0.0
 10
4.856649
 20
8.439166
 30
0.0
 10
4.882900
 20
8.444228
 30
0.0
 10
4.927773
 20
8.473785
 30
0.0
 10
4.961454
 20
8.519557
 30
0.0
 10
4.982718
 20
8.569906
 30
0.0
 10
4.976424
 20
8.593030
 30
0.0
 10
4.958673
 20
8.606832
 30
0.0
 10
4.936244
 20
8.608484
 30
0.0
 10
4.915916
 20
8.595154
 30
0.0
 10
4.869998
 20
8.547252
 30
0.0
 10
4.811581
 20
8.620732
 30
0.0
 10
4.743782
 20
8.685439
 30
0.0
 10
4.600674
 20
8.807314
 30
0.0
 10
4.600674
 20
8.807314
 30
0.0
 10
4.600589
 20
8.807314
 30
0.0
  0
LWPOLYLINE
  5
171
100
AcDbEntity
  8
Layer_1
 62
7
100
AcDbPolyline
 90
14
 70
0
 10
13.928146
 20
8.738303
 30
0.0
 10
13.916632
 20
8.738303
 30
0.0
 10
13.796888
 20
8.645415
 30
0.0
 10
13.688258
 20
8.539480
 30
0.0
 10
13.722752
 20
8.530701
 30
0.0
 10
13.756477
 20
8.530404
 30
0.0
 10
13.821795
 20
8.548511
 30
0.0
 10
13.945108
 20
8.612350
 30
0.0
 10
13.965998
 20
8.621913
 30
0.0
 10
13.978700
 20
8.637597
 30
0.0
 10
13.982771
 20
8.678621
 30
0.0
 10
13.963769
 20
8.718012
 30
0.0
 10
13.928146
 20
8.738359
 30
0.0
 10
13.928146
 20
8.738303
 30
0.0
  0
LWPOLYLINE
  5
172
100
AcDbEntity
  8
Layer_1
 62
7
100
AcDbPolyline
 90
11
 70
0
 10
6.011023
 20
8.684395
 30
0.0
 10
6.007721
 20
8.678220
 30
0.0
 10
6.006028
 20
8.675079
 30
0.0
 10
5.966203
 20
8.616186
 30
0.0
 10
5.952636
 20
8.585681
 30
0.0
 10
5.961324
 20
8.552104
 30
0.0
 10
6.074819
 20
8.474776
 30
0.0
 10
6.137862
 20
8.450069
 30
0.0
 10
6.206264
 20
8.445884
 30
0.0
 10
6.011023
 20
8.684395
 30
0.0
 10
6.011023
 20
8.684395
 30
0.0
  0
LWPOLYLINE
  5
173
100
AcDbEntity
  8
Layer_1
 62
7
100
AcDbPolyline
 90
17
 70
0
 10
12.516527
 20
8.637431
 30
0.0
 10
12.473376
 20
8.611738
 30
0.0
 10
12.439311
 20
8.574822
 30
0.0
 10
12.382754
 20
8.490974
 30
0.0
 10
12.387385
 20
8.463358
 30
0.0
 10
12.409216
 20
8.447322
 30
0.0
 10
12.437424
 20
8.445628
 30
0.0
 10
12.461184
 20
8.461042
 30
0.0
 10
12.548306
 20
8.523564
 30
0.0
 10
12.585112
 20
8.562332
 30
0.0
 10
12.614769
 20
8.607114
 30
0.0
 10
12.577685
 20
8.598150
 30
0.0
 10
12.561596
 20
8.606094
 30
0.0
 10
12.549660
 20
8.621886
 30
0.0
 10
12.534777
 20
8.633804
 30
0.0
 10
12.516527
 20
8.637431
 30
0.0
 10
12.516527
 20
8.637431
 30
0.0
  0
LWPOLYLINE
  5
174
100
AcDbEntity
  8
Layer_1
 62
7
100
AcDbPolyline
 90
14
 70
0
 10
13.584682
 20
8.589309
 30
0.0
 10
13.580816
 20
8.586224
 30
0.0
 10
13.558615
 20
8.562601
 30
0.0
 10
13.556393
 20
8.532231
 30
0.0
 10
13.568104
 20
8.501215
 30
0.0
 10
13.587702
 20
8.475650
 30
0.0
 10
13.613446
 20
8.438537
 30
0.0
 10
13.645931
 20
8.407351
 30
0.0
 10
13.721983
 20
8.358460
 30
0.0
 10
13.707574
 20
8.426654
 30
0.0
 10
13.681177
 20
8.491743
 30
0.0
 10
13.640858
 20
8.547902
 30
0.0
 10
13.584682
 20
8.589309
 30
0.0
 10
13.584682
 20
8.589309
 30
0.0
  0
LWPOLYLINE
  5
175
100
AcDbEntity
  8
Layer_1
 62
7
100
AcDbPolyline
 90
13
 70
0
 10
8.740422
 20
8.516219
 30
0.0
 10
8.667433
 20
8.503384
 30
0.0
 10
8.598281
 20
8.476787
 30
0.0
 10
8.535944
 20
8.437025
 30
0.0
 10
8.483402
 20
8.384698
 30
0.0
 10
8.642738
 20
8.401140
 30
0.0
 10
8.719130
 20
8.423155
 30
0.0
 10
8.788400
 20
8.461979
 30
0.0
 10
8.792119
 20
8.484178
 30
0.0
 10
8.781577
 20
8.502008
 30
0.0
 10
8.762452
 20
8.513384
 30
0.0
 10
8.740422
 20
8.516219
 30
0.0
 10
8.740422
 20
8.516219
 30
0.0
  0
LWPOLYLINE
  5
176
100
AcDbEntity
  8
Layer_1
 62
7
100
AcDbPolyline
 90
13
 70
0
 10
9.778210
 20
8.512084
 30
0.0
 10
9.752656
 20
8.498988
 30
0.0
 10
9.746435
 20
8.472005
 30
0.0
 10
9.757386
 20
8.445219
 30
0.0
 10
9.783346
 20
8.432709
 30
0.0
 10
9.824654
 20
8.416237
 30
0.0
 10
9.868168
 20
8.407517
 30
0.0
 10
9.957139
 20
8.407518
 30
0.0
 10
9.928987
 20
8.455308
 30
0.0
 10
9.885401
 20
8.487206
 30
0.0
 10
9.832953
 20
8.505402
 30
0.0
 10
9.778210
 20
8.512084
 30
0.0
 10
9.778210
 20
8.512084
 30
0.0
  0
LWPOLYLINE
  5
177
100
AcDbEntity
  8
Layer_1
 62
7
100
AcDbPolyline
 90
15
 70
0
 10
6.325616
 20
8.474603
 30
0.0
 10
6.321270
 20
8.471893
 30
0.0
 10
6.244304
 20
8.421221
 30
0.0
 10
6.215173
 20
8.387956
 30
0.0
 10
6.207534
 20
8.343846
 30
0.0
 10
6.225066
 20
8.322910
 30
0.0
 10
6.251159
 20
8.320296
 30
0.0
 10
6.278384
 20
8.330890
 30
0.0
 10
6.299313
 20
8.349578
 30
0.0
 10
6.324321
 20
8.374987
 30
0.0
 10
6.343654
 20
8.407111
 30
0.0
 10
6.348387
 20
8.440896
 30
0.0
 10
6.329595
 20
8.471286
 30
0.0
 10
6.325616
 20
8.474594
 30
0.0
 10
6.325616
 20
8.474603
 30
0.0
  0
LWPOLYLINE
  5
178
100
AcDbEntity
  8
Layer_1
 62
7
100
AcDbPolyline
 90
15
 70
0
 10
12.220476
 20
8.443126
 30
0.0
 10
12.193941
 20
8.427853
 30
0.0
 10
12.187156
 20
8.399724
 30
0.0
 10
12.196326
 20
8.369208
 30
0.0
 10
12.217654
 20
8.346776
 30
0.0
 10
12.237510
 20
8.333001
 30
0.0
 10
12.260531
 20
8.328317
 30
0.0
 10
12.282440
 20
8.334351
 30
0.0
 10
12.298962
 20
8.352728
 30
0.0
 10
12.302631
 20
8.381517
 30
0.0
 10
12.287821
 20
8.405530
 30
0.0
 10
12.238623
 20
8.440262
 30
0.0
 10
12.220533
 20
8.443126
 30
0.0
 10
12.220533
 20
8.443126
 30
0.0
 10
12.220476
 20
8.443126
 30
0.0
  0
LWPOLYLINE
  5
179
100
AcDbEntity
  8
Layer_1
 62
7
100
AcDbPolyline
 90
13
 70
0
 10
7.884132
 20
8.226611
 30
0.0
 10
7.866210
 20
8.220422
 30
0.0
 10
7.855202
 20
8.208515
 30
0.0
 10
7.851405
 20
8.175576
 30
0.0
 10
7.867689
 20
8.143846
 30
0.0
 10
7.899005
 20
8.129377
 30
0.0
 10
7.925468
 20
8.135753
 30
0.0
 10
7.942114
 20
8.155702
 30
0.0
 10
7.945638
 20
8.181574
 30
0.0
 10
7.932730
 20
8.205718
 30
0.0
 10
7.910961
 20
8.222189
 30
0.0
 10
7.884132
 20
8.226611
 30
0.0
 10
7.884132
 20
8.226611
 30
0.0
  0
LWPOLYLINE
  5
17a
100
AcDbEntity
  8
Layer_1
 62
7
100
AcDbPolyline
 90
18
 70
0
 10
1.537490
 20
7.749147
 30
0.0
 10
1.536361
 20
7.742146
 30
0.0
 10
1.536361
 20
7.740763
 30
0.0
 10
1.536079
 20
7.740763
 30
0.0
 10
1.530524
 20
7.708774
 30
0.0
 10
1.519537
 20
7.674901
 30
0.0
 10
1.516081
 20
7.642251
 30
0.0
 10
1.533116
 20
7.613929
 30
0.0
 10
1.654154
 20
7.586503
 30
0.0
 10
1.776843
 20
7.563107
 30
0.0
 10
1.930202
 20
7.547122
 30
0.0
 10
1.916125
 20
7.578072
 30
0.0
 10
1.896055
 20
7.603252
 30
0.0
 10
1.842784
 20
7.639913
 30
0.0
 10
1.717604
 20
7.683711
 30
0.0
 10
1.537575
 20
7.749085
 30
0.0
 10
1.537575
 20
7.749085
 30
0.0
 10
1.537490
 20
7.749147
 30
0.0
  0
LWPOLYLINE
  5
17b
100
AcDbEntity
  8
Layer_1
 62
7
100
AcDbPolyline
 90
17
 70
0
 10
0.323652
 20
7.746116
 30
0.0
 10
0.322524
 20
7.739225
 30
0.0
 10
0.322524
 20
7.738180
 30
0.0
 10
0.322241
 20
7.738180
 30
0.0
 10
0.305566
 20
7.669813
 30
0.0
 10
0.304314
 20
7.636081
 30
0.0
 10
0.326334
 20
7.609306
 30
0.0
 10
0.538198
 20
7.571419
 30
0.0
 10
0.751247
 20
7.547020
 30
0.0
 10
0.758029
 20
7.565130
 30
0.0
 10
0.748901
 20
7.583804
 30
0.0
 10
0.716647
 20
7.614654
 30
0.0
 10
0.658039
 20
7.644950
 30
0.0
 10
0.594999
 20
7.664784
 30
0.0
 10
0.467868
 20
7.702572
 30
0.0
 10
0.323681
 20
7.746119
 30
0.0
 10
0.323652
 20
7.746116
 30
0.0
  0
LWPOLYLINE
  5
17c
100
AcDbEntity
  8
Layer_1
 62
7
100
AcDbPolyline
 90
14
 70
0
 10
2.772325
 20
7.727814
 30
0.0
 10
2.769108
 20
7.724840
 30
0.0
 10
2.745137
 20
7.691924
 30
0.0
 10
2.732363
 20
7.647612
 30
0.0
 10
2.740902
 20
7.615017
 30
0.0
 10
2.766702
 20
7.596407
 30
0.0
 10
2.833342
 20
7.581578
 30
0.0
 10
2.986084
 20
7.548013
 30
0.0
 10
3.063763
 20
7.540774
 30
0.0
 10
3.142065
 20
7.544316
 30
0.0
 10
3.056202
 20
7.602334
 30
0.0
 10
2.964519
 20
7.650233
 30
0.0
 10
2.772325
 20
7.727814
 30
0.0
 10
2.772325
 20
7.727814
 30
0.0
  0
LWPOLYLINE
  5
17d
100
AcDbEntity
  8
Layer_1
 62
7
100
AcDbPolyline
 90
25
 70
0
 10
4.017631
 20
7.717397
 30
0.0
 10
4.015373
 20
7.710729
 30
0.0
 10
4.015373
 20
7.709967
 30
0.0
 10
4.015091
 20
7.709967
 30
0.0
 10
3.988872
 20
7.645080
 30
0.0
 10
3.986516
 20
7.612635
 30
0.0
 10
4.007358
 20
7.585557
 30
0.0
 10
4.161906
 20
7.542009
 30
0.0
 10
4.240645
 20
7.527614
 30
0.0
 10
4.320794
 20
7.524538
 30
0.0
 10
4.314783
 20
7.496824
 30
0.0
 10
4.322360
 20
7.468346
 30
0.0
 10
4.341114
 20
7.448796
 30
0.0
 10
4.368631
 20
7.447864
 30
0.0
 10
4.395920
 20
7.472661
 30
0.0
 10
4.409482
 20
7.509248
 30
0.0
 10
4.404080
 20
7.544605
 30
0.0
 10
4.392629
 20
7.557754
 30
0.0
 10
4.374473
 20
7.565714
 30
0.0
 10
4.345055
 20
7.557478
 30
0.0
 10
4.324802
 20
7.533358
 30
0.0
 10
4.254553
 20
7.589428
 30
0.0
 10
4.178572
 20
7.637235
 30
0.0
 10
4.017631
 20
7.717409
 30
0.0
 10
4.017631
 20
7.717397
 30
0.0
  0
LWPOLYLINE
  5
17e
100
AcDbEntity
  8
Layer_1
 62
7
100
AcDbPolyline
 90
19
 70
0
 10
5.311225
 20
7.662497
 30
0.0
 10
5.301940
 20
7.662158
 30
0.0
 10
5.281696
 20
7.653364
 30
0.0
 10
5.267358
 20
7.637591
 30
0.0
 10
5.256615
 20
7.595178
 30
0.0
 10
5.270150
 20
7.555055
 30
0.0
 10
5.286159
 20
7.542146
 30
0.0
 10
5.308402
 20
7.537362
 30
0.0
 10
5.378334
 20
7.512188
 30
0.0
 10
5.413721
 20
7.503508
 30
0.0
 10
5.447905
 20
7.507540
 30
0.0
 10
5.453952
 20
7.548774
 30
0.0
 10
5.435367
 20
7.584128
 30
0.0
 10
5.402717
 20
7.612524
 30
0.0
 10
5.366568
 20
7.632886
 30
0.0
 10
5.340579
 20
7.651472
 30
0.0
 10
5.311225
 20
7.662322
 30
0.0
 10
5.311225
 20
7.662604
 30
0.0
 10
5.311225
 20
7.662497
 30
0.0
  0
LWPOLYLINE
  5
17f
100
AcDbEntity
  8
Layer_1
 62
7
100
AcDbPolyline
 90
16
 70
0
 10
13.222422
 20
7.647282
 30
0.0
 10
13.214802
 20
7.646746
 30
0.0
 10
13.148906
 20
7.608481
 30
0.0
 10
13.087900
 20
7.562573
 30
0.0
 10
13.032842
 20
7.509638
 30
0.0
 10
12.984790
 20
7.450291
 30
0.0
 10
13.164083
 20
7.499452
 30
0.0
 10
13.249288
 20
7.534791
 30
0.0
 10
13.325320
 20
7.588097
 30
0.0
 10
13.284722
 20
7.586360
 30
0.0
 10
13.268979
 20
7.597441
 30
0.0
 10
13.259618
 20
7.616593
 30
0.0
 10
13.245169
 20
7.637648
 30
0.0
 10
13.222422
 20
7.647243
 30
0.0
 10
13.222422
 20
7.647243
 30
0.0
 10
13.222422
 20
7.647282
 30
0.0
  0
LWPOLYLINE
  5
180
100
AcDbEntity
  8
Layer_1
 62
7
100
AcDbPolyline
 90
14
 70
0
 10
5.726769
 20
7.638186
 30
0.0
 10
5.712121
 20
7.627659
 30
0.0
 10
5.636368
 20
7.570068
 30
0.0
 10
5.577438
 20
7.495889
 30
0.0
 10
5.536044
 20
7.410205
 30
0.0
 10
5.512901
 20
7.318098
 30
0.0
 10
5.530331
 20
7.291215
 30
0.0
 10
5.560903
 20
7.286288
 30
0.0
 10
5.589883
 20
7.300269
 30
0.0
 10
5.602534
 20
7.330112
 30
0.0
 10
5.676621
 20
7.479673
 30
0.0
 10
5.706893
 20
7.557181
 30
0.0
 10
5.726769
 20
7.638186
 30
0.0
 10
5.726769
 20
7.638186
 30
0.0
  0
LWPOLYLINE
  5
181
100
AcDbEntity
  8
Layer_1
 62
7
100
AcDbPolyline
 90
15
 70
0
 10
12.806313
 20
7.620824
 30
0.0
 10
12.809164
 20
7.604509
 30
0.0
 10
12.832326
 20
7.507531
 30
0.0
 10
12.870173
 20
7.415364
 30
0.0
 10
12.970510
 20
7.243408
 30
0.0
 10
12.995360
 20
7.242561
 30
0.0
 10
13.010878
 20
7.259780
 30
0.0
 10
13.016909
 20
7.285542
 30
0.0
 10
13.013295
 20
7.310326
 30
0.0
 10
12.997646
 20
7.371261
 30
0.0
 10
12.972814
 20
7.429240
 30
0.0
 10
12.907885
 20
7.537371
 30
0.0
 10
12.860179
 20
7.582756
 30
0.0
 10
12.806313
 20
7.620824
 30
0.0
 10
12.806313
 20
7.620824
 30
0.0
  0
LWPOLYLINE
  5
182
100
AcDbEntity
  8
Layer_1
 62
7
100
AcDbPolyline
 90
14
 70
0
 10
7.064135
 20
7.512070
 30
0.0
 10
7.049206
 20
7.506228
 30
0.0
 10
6.975533
 20
7.473901
 30
0.0
 10
6.909319
 20
7.427628
 30
0.0
 10
6.854106
 20
7.369089
 30
0.0
 10
6.813437
 20
7.299963
 30
0.0
 10
6.818415
 20
7.270664
 30
0.0
 10
6.839903
 20
7.250964
 30
0.0
 10
6.867603
 20
7.247137
 30
0.0
 10
6.891218
 20
7.265455
 30
0.0
 10
6.991932
 20
7.379540
 30
0.0
 10
7.034470
 20
7.441998
 30
0.0
 10
7.064135
 20
7.512070
 30
0.0
 10
7.064135
 20
7.512070
 30
0.0
  0
LWPOLYLINE
  5
183
100
AcDbEntity
  8
Layer_1
 62
7
100
AcDbPolyline
 90
13
 70
0
 10
11.524996
 20
7.480043
 30
0.0
 10
11.521581
 20
7.477277
 30
0.0
 10
11.499163
 20
7.452679
 30
0.0
 10
11.498996
 20
7.421812
 30
0.0
 10
11.513953
 20
7.391241
 30
0.0
 10
11.536906
 20
7.367529
 30
0.0
 10
11.635123
 20
7.257619
 30
0.0
 10
11.748685
 20
7.163689
 30
0.0
 10
11.721017
 20
7.260280
 30
0.0
 10
11.674845
 20
7.350191
 30
0.0
 10
11.609672
 20
7.425936
 30
0.0
 10
11.524996
 20
7.480032
 30
0.0
 10
11.524996
 20
7.480043
 30
0.0
  0
LWPOLYLINE
  5
184
100
AcDbEntity
  8
Layer_1
 62
7
100
AcDbPolyline
 90
12
 70
0
 10
9.244866
 20
7.429937
 30
0.0
 10
9.183624
 20
7.417284
 30
0.0
 10
9.125088
 20
7.395615
 30
0.0
 10
9.015448
 20
7.335350
 30
0.0
 10
9.226070
 20
7.321491
 30
0.0
 10
9.437116
 20
7.326918
 30
0.0
 10
9.431124
 20
7.358739
 30
0.0
 10
9.415967
 20
7.383050
 30
0.0
 10
9.366179
 20
7.413338
 30
0.0
 10
9.303798
 20
7.426170
 30
0.0
 10
9.244866
 20
7.429937
 30
0.0
 10
9.244866
 20
7.429937
 30
0.0
  0
LWPOLYLINE
  5
185
100
AcDbEntity
  8
Layer_1
 62
7
100
AcDbPolyline
 90
15
 70
0
 10
5.259070
 20
6.544962
 30
0.0
 10
5.249305
 20
6.544679
 30
0.0
 10
5.239822
 20
6.544679
 30
0.0
 10
5.222106
 20
6.537592
 30
0.0
 10
5.211160
 20
6.524147
 30
0.0
 10
5.207646
 20
6.488337
 30
0.0
 10
5.225420
 20
6.457547
 30
0.0
 10
5.241084
 20
6.450378
 30
0.0
 10
5.260622
 20
6.452077
 30
0.0
 10
5.288222
 20
6.468783
 30
0.0
 10
5.296087
 20
6.499332
 30
0.0
 10
5.285796
 20
6.529460
 30
0.0
 10
5.258929
 20
6.544902
 30
0.0
 10
5.258929
 20
6.544902
 30
0.0
 10
5.259070
 20
6.544962
 30
0.0
  0
LWPOLYLINE
  5
186
100
AcDbEntity
  8
Layer_1
 62
7
100
AcDbPolyline
 90
16
 70
0
 10
1.298081
 20
6.540000
 30
0.0
 10
1.298081
 20
6.532945
 30
0.0
 10
1.298081
 20
6.531505
 30
0.0
 10
1.279790
 20
6.464611
 30
0.0
 10
1.284639
 20
6.432011
 30
0.0
 10
1.309229
 20
6.408090
 30
0.0
 10
1.579936
 20
6.396293
 30
0.0
 10
1.650093
 20
6.400274
 30
0.0
 10
1.684017
 20
6.406928
 30
0.0
 10
1.712948
 20
6.420270
 30
0.0
 10
1.702600
 20
6.443022
 30
0.0
 10
1.679801
 20
6.454851
 30
0.0
 10
1.628535
 20
6.472250
 30
0.0
 10
1.464504
 20
6.511364
 30
0.0
 10
1.298081
 20
6.539995
 30
0.0
 10
1.298081
 20
6.540000
 30
0.0
  0
LWPOLYLINE
  5
187
100
AcDbEntity
  8
Layer_1
 62
7
100
AcDbPolyline
 90
14
 70
0
 10
2.471081
 20
6.539012
 30
0.0
 10
2.470799
 20
6.531957
 30
0.0
 10
2.470799
 20
6.530687
 30
0.0
 10
2.462728
 20
6.460141
 30
0.0
 10
2.467315
 20
6.427174
 30
0.0
 10
2.493518
 20
6.404624
 30
0.0
 10
2.689066
 20
6.395249
 30
0.0
 10
2.786487
 20
6.399227
 30
0.0
 10
2.882392
 20
6.418348
 30
0.0
 10
2.784793
 20
6.463819
 30
0.0
 10
2.681990
 20
6.494910
 30
0.0
 10
2.471194
 20
6.539010
 30
0.0
 10
2.471194
 20
6.539010
 30
0.0
 10
2.471081
 20
6.539012
 30
0.0
  0
LWPOLYLINE
  5
188
100
AcDbEntity
  8
Layer_1
 62
7
100
AcDbPolyline
 90
14
 70
0
 10
3.670752
 20
6.538138
 30
0.0
 10
3.670752
 20
6.531082
 30
0.0
 10
3.670752
 20
6.529417
 30
0.0
 10
3.657466
 20
6.465700
 30
0.0
 10
3.661028
 20
6.434947
 30
0.0
 10
3.682492
 20
6.411126
 30
0.0
 10
3.819906
 20
6.398510
 30
0.0
 10
3.957913
 20
6.405561
 30
0.0
 10
3.987641
 20
6.415108
 30
0.0
 10
3.993072
 20
6.426350
 30
0.0
 10
3.985768
 20
6.440892
 30
0.0
 10
3.831752
 20
6.499499
 30
0.0
 10
3.670752
 20
6.538126
 30
0.0
 10
3.670752
 20
6.538138
 30
0.0
  0
LWPOLYLINE
  5
189
100
AcDbEntity
  8
Layer_1
 62
7
100
AcDbPolyline
 90
14
 70
0
 10
0.099314
 20
6.537319
 30
0.0
 10
0.099314
 20
6.530264
 30
0.0
 10
0.099314
 20
6.528994
 30
0.0
 10
0.097983
 20
6.494179
 30
0.0
 10
0.091525
 20
6.457296
 30
0.0
 10
0.093766
 20
6.423644
 30
0.0
 10
0.118533
 20
6.398522
 30
0.0
 10
0.523522
 20
6.388489
 30
0.0
 10
0.537590
 20
6.420300
 30
0.0
 10
0.526062
 20
6.451352
 30
0.0
 10
0.498384
 20
6.473503
 30
0.0
 10
0.464002
 20
6.478611
 30
0.0
 10
0.099314
 20
6.537316
 30
0.0
 10
0.099314
 20
6.537319
 30
0.0
  0
LWPOLYLINE
  5
18a
100
AcDbEntity
  8
Layer_1
 62
7
100
AcDbPolyline
 90
14
 70
0
 10
4.872680
 20
6.522934
 30
0.0
 10
4.850856
 20
6.515724
 30
0.0
 10
4.839525
 20
6.497738
 30
0.0
 10
4.843244
 20
6.454086
 30
0.0
 10
4.851133
 20
6.422058
 30
0.0
 10
4.875837
 20
6.402814
 30
0.0
 10
4.908811
 20
6.394558
 30
0.0
 10
4.941514
 20
6.395491
 30
0.0
 10
5.050670
 20
6.393926
 30
0.0
 10
5.159022
 20
6.406408
 30
0.0
 10
5.021418
 20
6.479329
 30
0.0
 10
4.948750
 20
6.506611
 30
0.0
 10
4.872680
 20
6.522934
 30
0.0
 10
4.872680
 20
6.522934
 30
0.0
  0
LWPOLYLINE
  5
18b
100
AcDbEntity
  8
Layer_1
 62
7
100
AcDbPolyline
 90
15
 70
0
 10
13.633083
 20
6.502318
 30
0.0
 10
13.624814
 20
6.501866
 30
0.0
 10
13.488137
 20
6.453361
 30
0.0
 10
13.424491
 20
6.419033
 30
0.0
 10
13.367060
 20
6.374700
 30
0.0
 10
13.549037
 20
6.373555
 30
0.0
 10
13.638682
 20
6.384336
 30
0.0
 10
13.724410
 20
6.414499
 30
0.0
 10
13.701498
 20
6.416175
 30
0.0
 10
13.683880
 20
6.426609
 30
0.0
 10
13.672606
 20
6.443941
 30
0.0
 10
13.668728
 20
6.466312
 30
0.0
 10
13.657107
 20
6.491104
 30
0.0
 10
13.633083
 20
6.502307
 30
0.0
 10
13.633083
 20
6.502318
 30
0.0
  0
LWPOLYLINE
  5
18c
100
AcDbEntity
  8
Layer_1
 62
7
100
AcDbPolyline
 90
16
 70
0
 10
10.864935
 20
6.439095
 30
0.0
 10
10.860673
 20
6.436227
 30
0.0
 10
10.851834
 20
6.414830
 30
0.0
 10
10.856105
 20
6.391331
 30
0.0
 10
10.868999
 20
6.343511
 30
0.0
 10
10.917343
 20
6.193977
 30
0.0
 10
10.951731
 20
6.123399
 30
0.0
 10
10.994644
 20
6.057488
 30
0.0
 10
11.003571
 20
6.160224
 30
0.0
 10
10.993120
 20
6.265101
 30
0.0
 10
10.977998
 20
6.314414
 30
0.0
 10
10.954877
 20
6.359547
 30
0.0
 10
10.922704
 20
6.398930
 30
0.0
 10
10.880429
 20
6.430989
 30
0.0
 10
10.864935
 20
6.439095
 30
0.0
 10
10.864935
 20
6.439095
 30
0.0
  0
LWPOLYLINE
  5
18d
100
AcDbEntity
  8
Layer_1
 62
7
100
AcDbPolyline
 90
15
 70
0
 10
7.606538
 20
6.387942
 30
0.0
 10
7.597592
 20
6.387490
 30
0.0
 10
7.556784
 20
6.359338
 30
0.0
 10
7.534928
 20
6.314059
 30
0.0
 10
7.532953
 20
6.263134
 30
0.0
 10
7.551787
 20
6.218047
 30
0.0
 10
7.584522
 20
6.217264
 30
0.0
 10
7.609089
 20
6.236646
 30
0.0
 10
7.625014
 20
6.266944
 30
0.0
 10
7.631825
 20
6.298912
 30
0.0
 10
7.642705
 20
6.324744
 30
0.0
 10
7.642878
 20
6.353590
 30
0.0
 10
7.631202
 20
6.377352
 30
0.0
 10
7.606538
 20
6.387933
 30
0.0
 10
7.606538
 20
6.387942
 30
0.0
  0
LWPOLYLINE
  5
18e
100
AcDbEntity
  8
Layer_1
 62
7
100
AcDbPolyline
 90
13
 70
0
 10
9.762546
 20
6.303219
 30
0.0
 10
9.762546
 20
6.303219
 30
0.0
 10
9.737946
 20
6.290617
 30
0.0
 10
9.727946
 20
6.264761
 30
0.0
 10
9.733059
 20
6.236263
 30
0.0
 10
9.753798
 20
6.215738
 30
0.0
 10
9.784446
 20
6.213712
 30
0.0
 10
9.807282
 20
6.232895
 30
0.0
 10
9.815349
 20
6.262104
 30
0.0
 10
9.801691
 20
6.290155
 30
0.0
 10
9.771549
 20
6.302996
 30
0.0
 10
9.762546
 20
6.303278
 30
0.0
 10
9.762546
 20
6.303219
 30
0.0
  0
LWPOLYLINE
  5
18f
100
AcDbEntity
  8
Layer_1
 62
7
100
AcDbPolyline
 90
13
 70
0
 10
8.735737
 20
6.302287
 30
0.0
 10
8.725267
 20
6.301892
 30
0.0
 10
8.708546
 20
6.295974
 30
0.0
 10
8.697935
 20
6.284266
 30
0.0
 10
8.693468
 20
6.252284
 30
0.0
 10
8.708717
 20
6.223540
 30
0.0
 10
8.722752
 20
6.215880
 30
0.0
 10
8.740535
 20
6.215628
 30
0.0
 10
8.770004
 20
6.232986
 30
0.0
 10
8.777464
 20
6.261579
 30
0.0
 10
8.765260
 20
6.288859
 30
0.0
 10
8.735737
 20
6.302279
 30
0.0
 10
8.735737
 20
6.302287
 30
0.0
  0
LWPOLYLINE
  5
190
100
AcDbEntity
  8
Layer_1
 62
7
100
AcDbPolyline
 90
14
 70
0
 10
7.447675
 20
5.584935
 30
0.0
 10
7.438080
 20
5.584653
 30
0.0
 10
7.419952
 20
5.578678
 30
0.0
 10
7.408732
 20
5.565935
 30
0.0
 10
7.404890
 20
5.530698
 30
0.0
 10
7.422300
 20
5.500044
 30
0.0
 10
7.437644
 20
5.493031
 30
0.0
 10
7.456706
 20
5.495078
 30
0.0
 10
7.484267
 20
5.513434
 30
0.0
 10
7.489444
 20
5.542792
 30
0.0
 10
7.475994
 20
5.570727
 30
0.0
 10
7.447675
 20
5.584816
 30
0.0
 10
7.447675
 20
5.584816
 30
0.0
 10
7.447675
 20
5.584935
 30
0.0
  0
LWPOLYLINE
  5
191
100
AcDbEntity
  8
Layer_1
 62
7
100
AcDbPolyline
 90
14
 70
0
 10
9.993009
 20
5.433297
 30
0.0
 10
9.983752
 20
5.433015
 30
0.0
 10
9.964872
 20
5.427330
 30
0.0
 10
9.953358
 20
5.414515
 30
0.0
 10
9.949896
 20
5.378545
 30
0.0
 10
9.968294
 20
5.347211
 30
0.0
 10
9.984105
 20
5.340189
 30
0.0
 10
10.003480
 20
5.342616
 30
0.0
 10
10.029125
 20
5.361723
 30
0.0
 10
10.033614
 20
5.391358
 30
0.0
 10
10.020418
 20
5.419276
 30
0.0
 10
9.993009
 20
5.433235
 30
0.0
 10
9.993009
 20
5.433235
 30
0.0
 10
9.993009
 20
5.433297
 30
0.0
  0
LWPOLYLINE
  5
192
100
AcDbEntity
  8
Layer_1
 62
7
100
AcDbPolyline
 90
12
 70
0
 10
13.374680
 20
5.384072
 30
0.0
 10
13.356404
 20
5.379981
 30
0.0
 10
13.344449
 20
5.369361
 30
0.0
 10
13.337805
 20
5.337163
 30
0.0
 10
13.351348
 20
5.304746
 30
0.0
 10
13.381680
 20
5.289375
 30
0.0
 10
13.410173
 20
5.296588
 30
0.0
 10
13.425050
 20
5.319844
 30
0.0
 10
13.424740
 20
5.348715
 30
0.0
 10
13.407672
 20
5.372774
 30
0.0
 10
13.374680
 20
5.384072
 30
0.0
 10
13.374680
 20
5.384072
 30
0.0
  0
LWPOLYLINE
  5
193
100
AcDbEntity
  8
Layer_1
 62
7
100
AcDbPolyline
 90
13
 70
0
 10
8.416431
 20
5.325259
 30
0.0
 10
8.396892
 20
5.319101
 30
0.0
 10
8.383767
 20
5.306294
 30
0.0
 10
8.375908
 20
5.271142
 30
0.0
 10
8.391146
 20
5.240627
 30
0.0
 10
8.406894
 20
5.233617
 30
0.0
 10
8.427776
 20
5.235575
 30
0.0
 10
8.453374
 20
5.250036
 30
0.0
 10
8.468388
 20
5.276538
 30
0.0
 10
8.467464
 20
5.304400
 30
0.0
 10
8.445246
 20
5.322942
 30
0.0
 10
8.416431
 20
5.325257
 30
0.0
 10
8.416431
 20
5.325259
 30
0.0
  0
LWPOLYLINE
  5
194
100
AcDbEntity
  8
Layer_1
 62
7
100
AcDbPolyline
 90
23
 70
0
 10
3.963614
 20
5.318367
 30
0.0
 10
3.954074
 20
5.317859
 30
0.0
 10
3.929722
 20
5.307989
 30
0.0
 10
3.915974
 20
5.285946
 30
0.0
 10
3.767000
 20
5.308852
 30
0.0
 10
3.691792
 20
5.311357
 30
0.0
 10
3.617327
 20
5.304355
 30
0.0
 10
3.601257
 20
5.290316
 30
0.0
 10
3.592528
 20
5.271452
 30
0.0
 10
3.594580
 20
5.228830
 30
0.0
 10
3.618454
 20
5.195652
 30
0.0
 10
3.637004
 20
5.188593
 30
0.0
 10
3.659124
 20
5.191082
 30
0.0
 10
3.791641
 20
5.214057
 30
0.0
 10
3.919333
 20
5.250338
 30
0.0
 10
3.941874
 20
5.226435
 30
0.0
 10
3.973911
 20
5.226040
 30
0.0
 10
4.000545
 20
5.244407
 30
0.0
 10
4.006878
 20
5.276796
 30
0.0
 10
3.992527
 20
5.305570
 30
0.0
 10
3.963614
 20
5.318303
 30
0.0
 10
3.963614
 20
5.318303
 30
0.0
 10
3.963614
 20
5.318367
 30
0.0
  0
LWPOLYLINE
  5
195
100
AcDbEntity
  8
Layer_1
 62
7
100
AcDbPolyline
 90
16
 70
0
 10
2.373940
 20
5.316448
 30
0.0
 10
2.377271
 20
5.310220
 30
0.0
 10
2.380093
 20
5.305092
 30
0.0
 10
2.400402
 20
5.264184
 30
0.0
 10
2.404562
 20
5.218718
 30
0.0
 10
2.418961
 20
5.194945
 30
0.0
 10
2.443240
 20
5.185020
 30
0.0
 10
2.498344
 20
5.190329
 30
0.0
 10
2.667850
 20
5.213227
 30
0.0
 10
2.750586
 20
5.234143
 30
0.0
 10
2.830266
 20
5.265239
 30
0.0
 10
2.718707
 20
5.293925
 30
0.0
 10
2.604378
 20
5.305533
 30
0.0
 10
2.374025
 20
5.316448
 30
0.0
 10
2.374025
 20
5.316448
 30
0.0
 10
2.373940
 20
5.316448
 30
0.0
  0
LWPOLYLINE
  5
196
100
AcDbEntity
  8
Layer_1
 62
7
100
AcDbPolyline
 90
16
 70
0
 10
1.385401
 20
5.309226
 30
0.0
 10
1.274995
 20
5.308944
 30
0.0
 10
1.253912
 20
5.298613
 30
0.0
 10
1.240223
 20
5.280973
 30
0.0
 10
1.233819
 20
5.235279
 30
0.0
 10
1.253366
 20
5.194889
 30
0.0
 10
1.272115
 20
5.183878
 30
0.0
 10
1.296444
 20
5.182827
 30
0.0
 10
1.508136
 20
5.208180
 30
0.0
 10
1.612472
 20
5.227649
 30
0.0
 10
1.712270
 20
5.265013
 30
0.0
 10
1.632301
 20
5.287163
 30
0.0
 10
1.550815
 20
5.300424
 30
0.0
 10
1.385401
 20
5.309164
 30
0.0
 10
1.385401
 20
5.309164
 30
0.0
 10
1.385401
 20
5.309226
 30
0.0
  0
LWPOLYLINE
  5
197
100
AcDbEntity
  8
Layer_1
 62
7
100
AcDbPolyline
 90
15
 70
0
 10
4.810167
 20
5.308239
 30
0.0
 10
4.787591
 20
5.301560
 30
0.0
 10
4.772470
 20
5.286429
 30
0.0
 10
4.763375
 20
5.242823
 30
0.0
 10
4.780441
 20
5.201443
 30
0.0
 10
4.798023
 20
5.189094
 30
0.0
 10
4.821230
 20
5.186310
 30
0.0
 10
4.908994
 20
5.206482
 30
0.0
 10
4.950969
 20
5.220813
 30
0.0
 10
4.985710
 20
5.248983
 30
0.0
 10
4.959129
 20
5.285160
 30
0.0
 10
4.918925
 20
5.301790
 30
0.0
 10
4.828117
 20
5.306421
 30
0.0
 10
4.810167
 20
5.308227
 30
0.0
 10
4.810167
 20
5.308239
 30
0.0
  0
LWPOLYLINE
  5
198
100
AcDbEntity
  8
Layer_1
 62
7
100
AcDbPolyline
 90
18
 70
0
 10
0.053340
 20
5.305811
 30
0.0
 10
0.054187
 20
5.298812
 30
0.0
 10
0.054187
 20
5.297712
 30
0.0
 10
0.056529
 20
5.228244
 30
0.0
 10
0.063712
 20
5.195368
 30
0.0
 10
0.090791
 20
5.173743
 30
0.0
 10
0.305086
 20
5.192153
 30
0.0
 10
0.411764
 20
5.205058
 30
0.0
 10
0.516946
 20
5.225559
 30
0.0
 10
0.523428
 20
5.241551
 30
0.0
 10
0.513726
 20
5.256079
 30
0.0
 10
0.480935
 20
5.278309
 30
0.0
 10
0.421870
 20
5.295178
 30
0.0
 10
0.360458
 20
5.298364
 30
0.0
 10
0.236700
 20
5.300633
 30
0.0
 10
0.053425
 20
5.305814
 30
0.0
 10
0.053425
 20
5.305814
 30
0.0
 10
0.053340
 20
5.305811
 30
0.0
  0
LWPOLYLINE
  5
199
100
AcDbEntity
  8
Layer_1
 62
7
100
AcDbPolyline
 90
18
 70
0
 10
8.663206
 20
5.304090
 30
0.0
 10
8.660384
 20
5.297585
 30
0.0
 10
8.658973
 20
5.294664
 30
0.0
 10
8.659255
 20
5.294664
 30
0.0
 10
8.636021
 20
5.248047
 30
0.0
 10
8.608427
 20
5.200130
 30
0.0
 10
8.622885
 20
5.161937
 30
0.0
 10
8.653163
 20
5.134827
 30
0.0
 10
8.721965
 20
5.086855
 30
0.0
 10
8.837824
 20
5.002965
 30
0.0
 10
8.960584
 20
4.929869
 30
0.0
 10
8.957461
 20
4.968070
 30
0.0
 10
8.946240
 20
5.002770
 30
0.0
 10
8.905928
 20
5.063893
 30
0.0
 10
8.798758
 20
5.168601
 30
0.0
 10
8.663263
 20
5.304090
 30
0.0
 10
8.663263
 20
5.304090
 30
0.0
 10
8.663206
 20
5.304090
 30
0.0
  0
LWPOLYLINE
  5
19a
100
AcDbEntity
  8
Layer_1
 62
7
100
AcDbPolyline
 90
15
 70
0
 10
13.737421
 20
5.292347
 30
0.0
 10
13.608195
 20
5.280193
 30
0.0
 10
13.544631
 20
5.267549
 30
0.0
 10
13.484408
 20
5.242904
 30
0.0
 10
13.570583
 20
5.208347
 30
0.0
 10
13.660131
 20
5.182821
 30
0.0
 10
13.751874
 20
5.168691
 30
0.0
 10
13.844637
 20
5.168324
 30
0.0
 10
13.797351
 20
5.197507
 30
0.0
 10
13.784312
 20
5.220059
 30
0.0
 10
13.787910
 20
5.247809
 30
0.0
 10
13.783649
 20
5.266007
 30
0.0
 10
13.772127
 20
5.280420
 30
0.0
 10
13.737421
 20
5.292347
 30
0.0
 10
13.737421
 20
5.292347
 30
0.0
  0
LWPOLYLINE
  5
19b
100
AcDbEntity
  8
Layer_1
 62
7
100
AcDbPolyline
 90
17
 70
0
 10
9.828925
 20
5.263077
 30
0.0
 10
9.766338
 20
5.215438
 30
0.0
 10
9.709291
 20
5.160797
 30
0.0
 10
9.600833
 20
5.045679
 30
0.0
 10
9.596246
 20
5.028000
 30
0.0
 10
9.599774
 20
5.012664
 30
0.0
 10
9.623517
 20
4.991706
 30
0.0
 10
9.656753
 20
4.988185
 30
0.0
 10
9.684173
 20
5.007480
 30
0.0
 10
9.842221
 20
5.121382
 30
0.0
 10
9.918127
 20
5.181984
 30
0.0
 10
9.985304
 20
5.252440
 30
0.0
 10
9.920182
 20
5.230494
 30
0.0
 10
9.888467
 20
5.230979
 30
0.0
 10
9.863272
 20
5.252779
 30
0.0
 10
9.828925
 20
5.263086
 30
0.0
 10
9.828925
 20
5.263077
 30
0.0
  0
LWPOLYLINE
  5
19c
100
AcDbEntity
  8
Layer_1
 62
7
100
AcDbPolyline
 90
20
 70
0
 10
6.546935
 20
4.435813
 30
0.0
 10
6.542730
 20
4.435475
 30
0.0
 10
6.517025
 20
4.405974
 30
0.0
 10
6.508588
 20
4.368199
 30
0.0
 10
6.512924
 20
4.327805
 30
0.0
 10
6.525542
 20
4.290449
 30
0.0
 10
6.563822
 20
4.184459
 30
0.0
 10
6.595412
 20
4.138600
 30
0.0
 10
6.639588
 20
4.104747
 30
0.0
 10
6.669541
 20
4.111741
 30
0.0
 10
6.685217
 20
4.137181
 30
0.0
 10
6.686086
 20
4.169541
 30
0.0
 10
6.671620
 20
4.197296
 30
0.0
 10
6.621632
 20
4.309736
 30
0.0
 10
6.594301
 20
4.364532
 30
0.0
 10
6.558901
 20
4.414144
 30
0.0
 10
6.556262
 20
4.427472
 30
0.0
 10
6.546935
 20
4.435641
 30
0.0
 10
6.546935
 20
4.435924
 30
0.0
 10
6.546935
 20
4.435813
 30
0.0
  0
LWPOLYLINE
  5
19d
100
AcDbEntity
  8
Layer_1
 62
7
100
AcDbPolyline
 90
16
 70
0
 10
11.979035
 20
4.407317
 30
0.0
 10
11.969835
 20
4.406753
 30
0.0
 10
11.926174
 20
4.364804
 30
0.0
 10
11.897766
 20
4.311404
 30
0.0
 10
11.874771
 20
4.253892
 30
0.0
 10
11.847350
 20
4.199608
 30
0.0
 10
11.812983
 20
4.105534
 30
0.0
 10
11.788225
 20
4.008337
 30
0.0
 10
11.873245
 20
4.084246
 30
0.0
 10
11.944851
 20
4.175038
 30
0.0
 10
11.972060
 20
4.225229
 30
0.0
 10
11.991639
 20
4.278197
 30
0.0
 10
12.002163
 20
4.333630
 30
0.0
 10
12.002206
 20
4.391211
 30
0.0
 10
11.979035
 20
4.407306
 30
0.0
 10
11.979035
 20
4.407317
 30
0.0
  0
LWPOLYLINE
  5
19e
100
AcDbEntity
  8
Layer_1
 62
7
100
AcDbPolyline
 90
15
 70
0
 10
5.329343
 20
4.388742
 30
0.0
 10
5.325985
 20
4.377385
 30
0.0
 10
5.306096
 20
4.312260
 30
0.0
 10
5.306106
 20
4.244712
 30
0.0
 10
5.321488
 20
4.178016
 30
0.0
 10
5.347716
 20
4.115449
 30
0.0
 10
5.373727
 20
4.100014
 30
0.0
 10
5.402622
 20
4.104854
 30
0.0
 10
5.422924
 20
4.124982
 30
0.0
 10
5.423154
 20
4.155412
 30
0.0
 10
5.398886
 20
4.249873
 30
0.0
 10
5.363464
 20
4.340453
 30
0.0
 10
5.346954
 20
4.367708
 30
0.0
 10
5.329343
 20
4.388742
 30
0.0
 10
5.329343
 20
4.388742
 30
0.0
  0
LWPOLYLINE
  5
19f
100
AcDbEntity
  8
Layer_1
 62
7
100
AcDbPolyline
 90
12
 70
0
 10
13.181245
 20
4.340950
 30
0.0
 10
13.142596
 20
4.309952
 30
0.0
 10
13.122899
 20
4.264869
 30
0.0
 10
13.096579
 20
4.166822
 30
0.0
 10
13.085614
 20
4.082080
 30
0.0
 10
13.082016
 20
3.996551
 30
0.0
 10
13.140106
 20
4.067609
 30
0.0
 10
13.184322
 20
4.149298
 30
0.0
 10
13.208492
 20
4.237640
 30
0.0
 10
13.206448
 20
4.328659
 30
0.0
 10
13.181245
 20
4.340950
 30
0.0
 10
13.181245
 20
4.340950
 30
0.0
  0
LWPOLYLINE
  5
1a0
100
AcDbEntity
  8
Layer_1
 62
7
100
AcDbPolyline
 90
17
 70
0
 10
5.173811
 20
4.144055
 30
0.0
 10
5.166078
 20
4.143180
 30
0.0
 10
5.048105
 20
4.120967
 30
0.0
 10
4.990528
 20
4.105094
 30
0.0
 10
4.936546
 20
4.079130
 30
0.0
 10
4.994963
 20
4.070457
 30
0.0
 10
5.017838
 20
4.053478
 30
0.0
 10
5.029990
 20
4.026103
 30
0.0
 10
5.056594
 20
4.006865
 30
0.0
 10
5.087881
 20
4.009474
 30
0.0
 10
5.148439
 20
4.037457
 30
0.0
 10
5.177522
 20
4.051082
 30
0.0
 10
5.201419
 20
4.075884
 30
0.0
 10
5.210955
 20
4.105561
 30
0.0
 10
5.196953
 20
4.133810
 30
0.0
 10
5.173811
 20
4.144061
 30
0.0
 10
5.173811
 20
4.144055
 30
0.0
  0
LWPOLYLINE
  5
1a1
100
AcDbEntity
  8
Layer_1
 62
7
100
AcDbPolyline
 90
11
 70
0
 10
4.009192
 20
4.141190
 30
0.0
 10
3.902001
 20
4.124311
 30
0.0
 10
3.795974
 20
4.101558
 30
0.0
 10
3.804416
 20
4.032827
 30
0.0
 10
3.817337
 20
4.003724
 30
0.0
 10
3.848354
 20
3.991040
 30
0.0
 10
3.996044
 20
4.046754
 30
0.0
 10
4.065726
 20
4.083294
 30
0.0
 10
4.129532
 20
4.129724
 30
0.0
 10
4.009192
 20
4.141190
 30
0.0
 10
4.009192
 20
4.141190
 30
0.0
  0
LWPOLYLINE
  5
1a2
100
AcDbEntity
  8
Layer_1
 62
7
100
AcDbPolyline
 90
16
 70
0
 10
2.846522
 20
4.132758
 30
0.0
 10
2.846522
 20
4.132758
 30
0.0
 10
2.672052
 20
4.110326
 30
0.0
 10
2.585727
 20
4.094979
 30
0.0
 10
2.502493
 20
4.067274
 30
0.0
 10
2.563742
 20
4.052642
 30
0.0
 10
2.586908
 20
4.033496
 30
0.0
 10
2.596924
 20
4.003497
 30
0.0
 10
2.623870
 20
3.982230
 30
0.0
 10
2.656727
 20
3.982148
 30
0.0
 10
2.722541
 20
4.006093
 30
0.0
 10
2.847576
 20
4.046365
 30
0.0
 10
2.962938
 20
4.108509
 30
0.0
 10
2.904952
 20
4.122644
 30
0.0
 10
2.846522
 20
4.132820
 30
0.0
 10
2.846522
 20
4.132758
 30
0.0
  0
LWPOLYLINE
  5
1a3
100
AcDbEntity
  8
Layer_1
 62
7
100
AcDbPolyline
 90
17
 70
0
 10
13.352131
 20
4.130218
 30
0.0
 10
13.338387
 20
4.129935
 30
0.0
 10
13.320580
 20
4.122752
 30
0.0
 10
13.309962
 20
4.110034
 30
0.0
 10
13.307526
 20
4.076193
 30
0.0
 10
13.325536
 20
4.044804
 30
0.0
 10
13.358453
 20
4.032261
 30
0.0
 10
13.420693
 20
3.997222
 30
0.0
 10
13.453881
 20
3.989659
 30
0.0
 10
13.486892
 20
4.001504
 30
0.0
 10
13.503784
 20
4.034937
 30
0.0
 10
13.501656
 20
4.073303
 30
0.0
 10
13.481879
 20
4.103510
 30
0.0
 10
13.445829
 20
4.112463
 30
0.0
 10
13.352131
 20
4.130158
 30
0.0
 10
13.352131
 20
4.130158
 30
0.0
 10
13.352131
 20
4.130218
 30
0.0
  0
LWPOLYLINE
  5
1a4
100
AcDbEntity
  8
Layer_1
 62
7
100
AcDbPolyline
 90
16
 70
0
 10
1.692374
 20
4.128778
 30
0.0
 10
1.500417
 20
4.107554
 30
0.0
 10
1.405112
 20
4.093215
 30
0.0
 10
1.311825
 20
4.068696
 30
0.0
 10
1.371586
 20
4.052702
 30
0.0
 10
1.395137
 20
4.035386
 30
0.0
 10
1.404761
 20
4.006353
 30
0.0
 10
1.426539
 20
3.980797
 30
0.0
 10
1.458055
 20
3.975187
 30
0.0
 10
1.523436
 20
3.994943
 30
0.0
 10
1.675793
 20
4.035785
 30
0.0
 10
1.749059
 20
4.064611
 30
0.0
 10
1.818499
 20
4.102046
 30
0.0
 10
1.756368
 20
4.117539
 30
0.0
 10
1.692374
 20
4.128778
 30
0.0
 10
1.692374
 20
4.128778
 30
0.0
  0
LWPOLYLINE
  5
1a5
100
AcDbEntity
  8
Layer_1
 62
7
100
AcDbPolyline
 90
19
 70
0
 10
0.569270
 20
4.120402
 30
0.0
 10
0.557050
 20
4.119837
 30
0.0
 10
0.335216
 20
4.099535
 30
0.0
 10
0.225263
 20
4.084001
 30
0.0
 10
0.119098
 20
4.051432
 30
0.0
 10
0.150058
 20
4.047195
 30
0.0
 10
0.179416
 20
4.035709
 30
0.0
 10
0.200592
 20
4.015383
 30
0.0
 10
0.207010
 20
3.984625
 30
0.0
 10
0.236740
 20
3.962863
 30
0.0
 10
0.272493
 20
3.963035
 30
0.0
 10
0.345214
 20
3.982706
 30
0.0
 10
0.483997
 20
4.013431
 30
0.0
 10
0.552065
 20
4.032507
 30
0.0
 10
0.615075
 20
4.062908
 30
0.0
 10
0.618090
 20
4.085042
 30
0.0
 10
0.608503
 20
4.102853
 30
0.0
 10
0.569270
 20
4.120402
 30
0.0
 10
0.569270
 20
4.120402
 30
0.0
  0
LWPOLYLINE
  5
1a6
100
AcDbEntity
  8
Layer_1
 62
7
100
AcDbPolyline
 90
14
 70
0
 10
0.725226
 20
4.037112
 30
0.0
 10
0.725226
 20
4.037112
 30
0.0
 10
0.715998
 20
4.037112
 30
0.0
 10
0.697080
 20
4.032008
 30
0.0
 10
0.685262
 20
4.019586
 30
0.0
 10
0.680738
 20
3.983916
 30
0.0
 10
0.698063
 20
3.952355
 30
0.0
 10
0.713556
 20
3.945069
 30
0.0
 10
0.732875
 20
3.947154
 30
0.0
 10
0.758199
 20
3.965682
 30
0.0
 10
0.763595
 20
3.995054
 30
0.0
 10
0.751718
 20
4.022994
 30
0.0
 10
0.725226
 20
4.037223
 30
0.0
 10
0.725226
 20
4.037112
 30
0.0
  0
LWPOLYLINE
  5
1a7
100
AcDbEntity
  8
Layer_1
 62
7
100
AcDbPolyline
 90
12
 70
0
 10
1.889054
 20
4.031048
 30
0.0
 10
1.856148
 20
4.014489
 30
0.0
 10
1.838399
 20
3.980267
 30
0.0
 10
1.841251
 20
3.944261
 30
0.0
 10
1.852103
 20
3.930551
 30
0.0
 10
1.870146
 20
3.922350
 30
0.0
 10
1.905342
 20
3.938172
 30
0.0
 10
1.926188
 20
3.974004
 30
0.0
 10
1.923740
 20
4.011183
 30
0.0
 10
1.910986
 20
4.024446
 30
0.0
 10
1.889054
 20
4.031048
 30
0.0
 10
1.889054
 20
4.031048
 30
0.0
  0
LWPOLYLINE
  5
1a8
100
AcDbEntity
  8
Layer_1
 62
7
100
AcDbPolyline
 90
15
 70
0
 10
5.782564
 20
3.351290
 30
0.0
 10
5.785386
 20
3.334808
 30
0.0
 10
5.802261
 20
3.243665
 30
0.0
 10
5.842406
 20
3.160628
 30
0.0
 10
5.900579
 20
3.088269
 30
0.0
 10
5.971540
 20
3.029159
 30
0.0
 10
6.002741
 20
3.038126
 30
0.0
 10
6.016487
 20
3.066743
 30
0.0
 10
6.012628
 20
3.100642
 30
0.0
 10
5.991013
 20
3.125456
 30
0.0
 10
5.896303
 20
3.247771
 30
0.0
 10
5.843983
 20
3.304264
 30
0.0
 10
5.782649
 20
3.351290
 30
0.0
 10
5.782649
 20
3.351290
 30
0.0
 10
5.782564
 20
3.351290
 30
0.0
  0
LWPOLYLINE
  5
1a9
100
AcDbEntity
  8
Layer_1
 62
7
100
AcDbPolyline
 90
15
 70
0
 10
12.735306
 20
3.345502
 30
0.0
 10
12.721477
 20
3.335305
 30
0.0
 10
12.645001
 20
3.271591
 30
0.0
 10
12.579650
 20
3.196687
 30
0.0
 10
12.469848
 20
3.030649
 30
0.0
 10
12.477537
 20
3.007256
 30
0.0
 10
12.499037
 20
2.999579
 30
0.0
 10
12.524696
 20
3.004542
 30
0.0
 10
12.544862
 20
3.019072
 30
0.0
 10
12.596058
 20
3.062592
 30
0.0
 10
12.639633
 20
3.113930
 30
0.0
 10
12.709850
 20
3.228755
 30
0.0
 10
12.725647
 20
3.286407
 30
0.0
 10
12.735306
 20
3.345502
 30
0.0
 10
12.735306
 20
3.345502
 30
0.0
  0
LWPOLYLINE
  5
1aa
100
AcDbEntity
  8
Layer_1
 62
7
100
AcDbPolyline
 90
17
 70
0
 10
13.962634
 20
3.198492
 30
0.0
 10
13.956030
 20
3.197448
 30
0.0
 10
13.916829
 20
3.164765
 30
0.0
 10
13.888759
 20
3.122021
 30
0.0
 10
13.852031
 20
3.026130
 30
0.0
 10
13.839303
 20
2.981650
 30
0.0
 10
13.840045
 20
2.960168
 30
0.0
 10
13.854007
 20
2.946702
 30
0.0
 10
13.888942
 20
2.969959
 30
0.0
 10
13.918117
 20
3.000836
 30
0.0
 10
13.965908
 20
3.071495
 30
0.0
 10
13.988690
 20
3.131675
 30
0.0
 10
13.991403
 20
3.162943
 30
0.0
 10
13.981882
 20
3.191219
 30
0.0
 10
13.962803
 20
3.198495
 30
0.0
 10
13.962803
 20
3.198495
 30
0.0
 10
13.962634
 20
3.198492
 30
0.0
  0
LWPOLYLINE
  5
1ab
100
AcDbEntity
  8
Layer_1
 62
7
100
AcDbPolyline
 90
17
 70
0
 10
4.558961
 20
3.189619
 30
0.0
 10
4.558961
 20
3.189619
 30
0.0
 10
4.553514
 20
3.187079
 30
0.0
 10
4.533578
 20
3.146524
 30
0.0
 10
4.537936
 20
3.102616
 30
0.0
 10
4.557110
 20
3.059653
 30
0.0
 10
4.581624
 20
3.021934
 30
0.0
 10
4.596730
 20
3.000467
 30
0.0
 10
4.620218
 20
2.986455
 30
0.0
 10
4.644870
 20
2.985511
 30
0.0
 10
4.663468
 20
3.003248
 30
0.0
 10
4.656764
 20
3.057102
 30
0.0
 10
4.637433
 20
3.108676
 30
0.0
 10
4.606652
 20
3.153935
 30
0.0
 10
4.565594
 20
3.188843
 30
0.0
 10
4.558961
 20
3.189661
 30
0.0
 10
4.558961
 20
3.189619
 30
0.0
  0
LWPOLYLINE
  5
1ac
100
AcDbEntity
  8
Layer_1
 62
7
100
AcDbPolyline
 90
15
 70
0
 10
5.715706
 20
3.094589
 30
0.0
 10
5.599402
 20
3.043307
 30
0.0
 10
5.494274
 20
2.971997
 30
0.0
 10
5.551293
 20
2.975607
 30
0.0
 10
5.576661
 20
2.965081
 30
0.0
 10
5.594152
 20
2.942178
 30
0.0
 10
5.622966
 20
2.928736
 30
0.0
 10
5.651814
 20
2.937694
 30
0.0
 10
5.702131
 20
2.979053
 30
0.0
 10
5.726401
 20
3.000403
 30
0.0
 10
5.746475
 20
3.028166
 30
0.0
 10
5.753669
 20
3.058465
 30
0.0
 10
5.739299
 20
3.087423
 30
0.0
 10
5.715706
 20
3.094589
 30
0.0
 10
5.715706
 20
3.094589
 30
0.0
  0
LWPOLYLINE
  5
1ad
100
AcDbEntity
  8
Layer_1
 62
7
100
AcDbPolyline
 90
15
 70
0
 10
12.792371
 20
3.082132
 30
0.0
 10
12.764868
 20
3.062677
 30
0.0
 10
12.760558
 20
3.030875
 30
0.0
 10
12.774250
 20
2.998505
 30
0.0
 10
12.800753
 20
2.977345
 30
0.0
 10
12.854788
 20
2.929670
 30
0.0
 10
12.887355
 20
2.920438
 30
0.0
 10
12.920359
 20
2.933909
 30
0.0
 10
12.940003
 20
2.964902
 30
0.0
 10
12.937726
 20
3.001609
 30
0.0
 10
12.917410
 20
3.032165
 30
0.0
 10
12.882936
 20
3.044703
 30
0.0
 10
12.839876
 20
3.070054
 30
0.0
 10
12.792371
 20
3.082132
 30
0.0
 10
12.792371
 20
3.082132
 30
0.0
  0
LWPOLYLINE
  5
1ae
100
AcDbEntity
  8
Layer_1
 62
7
100
AcDbPolyline
 90
6
 70
0
 10
13.964920
 20
3.058484
 30
0.0
 10
13.976209
 20
3.044980
 30
0.0
 10
14.000028
 20
3.015434
 30
0.0
 10
14.000028
 20
3.054350
 30
0.0
 10
13.964920
 20
3.058484
 30
0.0
 10
13.964920
 20
3.058484
 30
0.0
  0
LWPOLYLINE
  5
1af
100
AcDbEntity
  8
Layer_1
 62
7
100
AcDbPolyline
 90
16
 70
0
 10
4.552640
 20
3.058033
 30
0.0
 10
4.535988
 20
3.056170
 30
0.0
 10
4.442182
 20
3.042853
 30
0.0
 10
4.351726
 20
3.013745
 30
0.0
 10
4.180332
 20
2.930714
 30
0.0
 10
4.215645
 20
2.923865
 30
0.0
 10
4.237022
 20
2.913686
 30
0.0
 10
4.249476
 20
2.893065
 30
0.0
 10
4.263177
 20
2.870792
 30
0.0
 10
4.285107
 20
2.859471
 30
0.0
 10
4.310000
 20
2.860041
 30
0.0
 10
4.332591
 20
2.873443
 30
0.0
 10
4.450743
 20
2.956583
 30
0.0
 10
4.505740
 20
3.003013
 30
0.0
 10
4.552640
 20
3.058044
 30
0.0
 10
4.552640
 20
3.058033
 30
0.0
  0
LWPOLYLINE
  5
1b0
100
AcDbEntity
  8
Layer_1
 62
7
100
AcDbPolyline
 90
16
 70
0
 10
3.282244
 20
3.013825
 30
0.0
 10
3.195652
 20
3.004853
 30
0.0
 10
3.111260
 20
2.982840
 30
0.0
 10
2.945779
 20
2.926568
 30
0.0
 10
2.933734
 20
2.901179
 30
0.0
 10
2.940964
 20
2.874534
 30
0.0
 10
2.976259
 20
2.827844
 30
0.0
 10
3.016509
 20
2.818821
 30
0.0
 10
3.055031
 20
2.833176
 30
0.0
 10
3.128828
 20
2.876352
 30
0.0
 10
3.232238
 20
2.936431
 30
0.0
 10
3.323308
 20
3.013495
 30
0.0
 10
3.305782
 20
3.013157
 30
0.0
 10
3.282244
 20
3.013778
 30
0.0
 10
3.282244
 20
3.013778
 30
0.0
 10
3.282244
 20
3.013825
 30
0.0
  0
LWPOLYLINE
  5
1b1
100
AcDbEntity
  8
Layer_1
 62
7
100
AcDbPolyline
 90
15
 70
0
 10
2.020683
 20
2.995413
 30
0.0
 10
1.817359
 20
2.941528
 30
0.0
 10
1.717403
 20
2.909677
 30
0.0
 10
1.622270
 20
2.865162
 30
0.0
 10
1.685142
 20
2.860991
 30
0.0
 10
1.711122
 20
2.848321
 30
0.0
 10
1.722572
 20
2.820018
 30
0.0
 10
1.749970
 20
2.798670
 30
0.0
 10
1.783246
 20
2.799596
 30
0.0
 10
1.848217
 20
2.828671
 30
0.0
 10
2.000003
 20
2.897124
 30
0.0
 10
2.072300
 20
2.938152
 30
0.0
 10
2.140063
 20
2.986540
 30
0.0
 10
2.020683
 20
2.995413
 30
0.0
 10
2.020683
 20
2.995413
 30
0.0
  0
LWPOLYLINE
  5
1b2
100
AcDbEntity
  8
Layer_1
 62
7
100
AcDbPolyline
 90
21
 70
0
 10
0.855641
 20
2.976507
 30
0.0
 10
0.855641
 20
2.976507
 30
0.0
 10
0.845594
 20
2.976507
 30
0.0
 10
0.627920
 20
2.927585
 30
0.0
 10
0.520716
 20
2.898060
 30
0.0
 10
0.418902
 20
2.855129
 30
0.0
 10
0.426799
 20
2.841609
 30
0.0
 10
0.445714
 20
2.839459
 30
0.0
 10
0.466575
 20
2.837372
 30
0.0
 10
0.480314
 20
2.824040
 30
0.0
 10
0.503523
 20
2.782424
 30
0.0
 10
0.522553
 20
2.770945
 30
0.0
 10
0.546777
 20
2.773437
 30
0.0
 10
0.768717
 20
2.857940
 30
0.0
 10
0.838232
 20
2.887250
 30
0.0
 10
0.870876
 20
2.905389
 30
0.0
 10
0.897523
 20
2.929543
 30
0.0
 10
0.897083
 20
2.947540
 30
0.0
 10
0.887928
 20
2.961950
 30
0.0
 10
0.855641
 20
2.976561
 30
0.0
 10
0.855641
 20
2.976507
 30
0.0
  0
LWPOLYLINE
  5
1b3
100
AcDbEntity
  8
Layer_1
 62
7
100
AcDbPolyline
 90
14
 70
0
 10
1.067082
 20
2.751390
 30
0.0
 10
1.057769
 20
2.751108
 30
0.0
 10
1.040907
 20
2.744757
 30
0.0
 10
1.030249
 20
2.732535
 30
0.0
 10
1.025927
 20
2.699455
 30
0.0
 10
1.041576
 20
2.669821
 30
0.0
 10
1.055881
 20
2.661908
 30
0.0
 10
1.073968
 20
2.661590
 30
0.0
 10
1.102158
 20
2.678425
 30
0.0
 10
1.109747
 20
2.710035
 30
0.0
 10
1.097725
 20
2.739856
 30
0.0
 10
1.067082
 20
2.751328
 30
0.0
 10
1.067082
 20
2.751328
 30
0.0
 10
1.067082
 20
2.751390
 30
0.0
  0
LWPOLYLINE
  5
1b4
100
AcDbEntity
  8
Layer_1
 62
7
100
AcDbPolyline
 90
13
 70
0
 10
8.649377
 20
2.716555
 30
0.0
 10
8.625078
 20
2.704166
 30
0.0
 10
8.615447
 20
2.678478
 30
0.0
 10
8.620644
 20
2.650043
 30
0.0
 10
8.640826
 20
2.629408
 30
0.0
 10
8.669793
 20
2.626135
 30
0.0
 10
8.693150
 20
2.641900
 30
0.0
 10
8.703469
 20
2.668052
 30
0.0
 10
8.693319
 20
2.695939
 30
0.0
 10
8.678199
 20
2.710327
 30
0.0
 10
8.658296
 20
2.716279
 30
0.0
 10
8.649377
 20
2.716561
 30
0.0
 10
8.649377
 20
2.716555
 30
0.0
  0
LWPOLYLINE
  5
1b5
100
AcDbEntity
  8
Layer_1
 62
7
100
AcDbPolyline
 90
16
 70
0
 10
9.261941
 20
2.632109
 30
0.0
 10
9.261941
 20
2.632109
 30
0.0
 10
9.139513
 20
2.632109
 30
0.0
 10
9.092794
 20
2.620050
 30
0.0
 10
9.074294
 20
2.604916
 30
0.0
 10
9.062184
 20
2.583657
 30
0.0
 10
9.151383
 20
2.543078
 30
0.0
 10
9.248789
 20
2.527106
 30
0.0
 10
9.346322
 20
2.537481
 30
0.0
 10
9.435902
 20
2.575941
 30
0.0
 10
9.441679
 20
2.599131
 30
0.0
 10
9.429895
 20
2.618466
 30
0.0
 10
9.408189
 20
2.629630
 30
0.0
 10
9.384199
 20
2.628307
 30
0.0
 10
9.261941
 20
2.632165
 30
0.0
 10
9.261941
 20
2.632109
 30
0.0
  0
LWPOLYLINE
  5
1b6
100
AcDbEntity
  8
Layer_1
 62
7
100
AcDbPolyline
 90
13
 70
0
 10
2.366998
 20
2.551520
 30
0.0
 10
2.348273
 20
2.548551
 30
0.0
 10
2.335399
 20
2.538323
 30
0.0
 10
2.326404
 20
2.505755
 30
0.0
 10
2.338411
 20
2.473139
 30
0.0
 10
2.351790
 20
2.462852
 30
0.0
 10
2.369820
 20
2.459798
 30
0.0
 10
2.400235
 20
2.472324
 30
0.0
 10
2.411906
 20
2.501968
 30
0.0
 10
2.404158
 20
2.533333
 30
0.0
 10
2.376311
 20
2.551023
 30
0.0
 10
2.366998
 20
2.551531
 30
0.0
 10
2.366998
 20
2.551520
 30
0.0
  0
LWPOLYLINE
  5
1b7
100
AcDbEntity
  8
Layer_1
 62
7
100
AcDbPolyline
 90
19
 70
0
 10
6.524950
 20
2.230769
 30
0.0
 10
6.524950
 20
2.230769
 30
0.0
 10
6.518600
 20
2.230769
 30
0.0
 10
6.467457
 20
2.200129
 30
0.0
 10
6.422831
 20
2.160423
 30
0.0
 10
6.336143
 20
2.077421
 30
0.0
 10
6.361445
 20
2.070336
 30
0.0
 10
6.388082
 20
2.070568
 30
0.0
 10
6.413212
 20
2.067873
 30
0.0
 10
6.433989
 20
2.052009
 30
0.0
 10
6.465794
 20
2.047787
 30
0.0
 10
6.492127
 20
2.063141
 30
0.0
 10
6.527151
 20
2.117327
 30
0.0
 10
6.545446
 20
2.144048
 30
0.0
 10
6.556862
 20
2.176407
 30
0.0
 10
6.554424
 20
2.207298
 30
0.0
 10
6.531158
 20
2.229612
 30
0.0
 10
6.524950
 20
2.230882
 30
0.0
 10
6.524950
 20
2.230769
 30
0.0
  0
LWPOLYLINE
  5
1b8
100
AcDbEntity
  8
Layer_1
 62
7
100
AcDbPolyline
 90
19
 70
0
 10
11.994247
 20
2.221233
 30
0.0
 10
11.994247
 20
2.221233
 30
0.0
 10
11.978668
 20
2.221233
 30
0.0
 10
11.954538
 20
2.199474
 30
0.0
 10
11.950898
 20
2.168582
 30
0.0
 10
11.961777
 20
2.136220
 30
0.0
 10
11.981208
 20
2.110051
 30
0.0
 10
11.996367
 20
2.079391
 30
0.0
 10
12.019146
 20
2.052543
 30
0.0
 10
12.048201
 20
2.037968
 30
0.0
 10
12.082187
 20
2.044127
 30
0.0
 10
12.107718
 20
2.068820
 30
0.0
 10
12.114939
 20
2.103224
 30
0.0
 10
12.104254
 20
2.136659
 30
0.0
 10
12.076063
 20
2.158449
 30
0.0
 10
12.038700
 20
2.196274
 30
0.0
 10
12.018123
 20
2.212605
 30
0.0
 10
11.994247
 20
2.221343
 30
0.0
 10
11.994247
 20
2.221233
 30
0.0
  0
LWPOLYLINE
  5
1b9
100
AcDbEntity
  8
Layer_1
 62
7
100
AcDbPolyline
 90
15
 70
0
 10
5.198646
 20
2.103659
 30
0.0
 10
5.182842
 20
2.098477
 30
0.0
 10
5.090513
 20
2.062675
 30
0.0
 10
5.004745
 20
2.013070
 30
0.0
 10
4.926048
 20
1.952536
 30
0.0
 10
4.854928
 20
1.883943
 30
0.0
 10
4.907619
 20
1.893588
 30
0.0
 10
4.932215
 20
1.885304
 30
0.0
 10
4.951335
 20
1.865698
 30
0.0
 10
4.980917
 20
1.853536
 30
0.0
 10
5.009473
 20
1.863675
 30
0.0
 10
5.053640
 20
1.911779
 30
0.0
 10
5.136388
 20
2.000133
 30
0.0
 10
5.198646
 20
2.103659
 30
0.0
 10
5.198646
 20
2.103659
 30
0.0
  0
LWPOLYLINE
  5
1ba
100
AcDbEntity
  8
Layer_1
 62
7
100
AcDbPolyline
 90
16
 70
0
 10
13.319534
 20
2.101119
 30
0.0
 10
13.327041
 20
2.086898
 30
0.0
 10
13.370085
 20
2.011788
 30
0.0
 10
13.424207
 20
1.943871
 30
0.0
 10
13.548953
 20
1.825512
 30
0.0
 10
13.568845
 20
1.836436
 30
0.0
 10
13.574215
 20
1.857849
 30
0.0
 10
13.577706
 20
1.881255
 30
0.0
 10
13.591963
 20
1.898162
 30
0.0
 10
13.596542
 20
1.932094
 30
0.0
 10
13.579821
 20
1.960301
 30
0.0
 10
13.522000
 20
1.999476
 30
0.0
 10
13.425932
 20
2.061076
 30
0.0
 10
13.374284
 20
2.084951
 30
0.0
 10
13.319534
 20
2.101119
 30
0.0
 10
13.319534
 20
2.101119
 30
0.0
  0
LWPOLYLINE
  5
1bb
100
AcDbEntity
  8
Layer_1
 62
7
100
AcDbPolyline
 90
15
 70
0
 10
3.879370
 20
1.997933
 30
0.0
 10
3.861675
 20
1.994625
 30
0.0
 10
3.769206
 20
1.973294
 30
0.0
 10
3.682372
 20
1.935544
 30
0.0
 10
3.518944
 20
1.839567
 30
0.0
 10
3.517252
 20
1.810919
 30
0.0
 10
3.530787
 20
1.785179
 30
0.0
 10
3.576264
 20
1.748067
 30
0.0
 10
3.615107
 20
1.753516
 30
0.0
 10
3.647112
 20
1.775963
 30
0.0
 10
3.676804
 20
1.804457
 30
0.0
 10
3.708710
 20
1.828046
 30
0.0
 10
3.800867
 20
1.906250
 30
0.0
 10
3.879370
 20
1.997933
 30
0.0
 10
3.879370
 20
1.997933
 30
0.0
  0
LWPOLYLINE
  5
1bc
100
AcDbEntity
  8
Layer_1
 62
7
100
AcDbPolyline
 90
15
 70
0
 10
2.518523
 20
1.922912
 30
0.0
 10
2.351172
 20
1.857336
 30
0.0
 10
2.191230
 20
1.776123
 30
0.0
 10
2.187990
 20
1.751353
 30
0.0
 10
2.199919
 20
1.729852
 30
0.0
 10
2.233055
 20
1.690686
 30
0.0
 10
2.271484
 20
1.681196
 30
0.0
 10
2.307692
 20
1.695424
 30
0.0
 10
2.373461
 20
1.743603
 30
0.0
 10
2.475265
 20
1.805943
 30
0.0
 10
2.521860
 20
1.842489
 30
0.0
 10
2.558824
 20
1.888018
 30
0.0
 10
2.546325
 20
1.914055
 30
0.0
 10
2.518523
 20
1.922912
 30
0.0
 10
2.518523
 20
1.922912
 30
0.0
  0
LWPOLYLINE
  5
1bd
100
AcDbEntity
  8
Layer_1
 62
7
100
AcDbPolyline
 90
18
 70
0
 10
1.289332
 20
1.881129
 30
0.0
 10
1.083649
 20
1.810583
 30
0.0
 10
0.883299
 20
1.725577
 30
0.0
 10
0.881621
 20
1.706142
 30
0.0
 10
0.893117
 20
1.693857
 30
0.0
 10
0.926028
 20
1.676575
 30
0.0
 10
0.936821
 20
1.646363
 30
0.0
 10
0.964494
 20
1.632813
 30
0.0
 10
0.998179
 20
1.634474
 30
0.0
 10
1.027007
 20
1.649893
 30
0.0
 10
1.102075
 20
1.696394
 30
0.0
 10
1.181379
 20
1.737210
 30
0.0
 10
1.258349
 20
1.781276
 30
0.0
 10
1.326416
 20
1.837529
 30
0.0
 10
1.326456
 20
1.853903
 30
0.0
 10
1.318563
 20
1.868220
 30
0.0
 10
1.289332
 20
1.881129
 30
0.0
 10
1.289332
 20
1.881129
 30
0.0
  0
LWPOLYLINE
  5
1be
100
AcDbEntity
  8
Layer_1
 62
7
100
AcDbPolyline
 90
9
 70
0
 10
0.056586
 20
1.853127
 30
0.0
 10
0.000028
 20
1.836866
 30
0.0
 10
0.000028
 20
1.740735
 30
0.0
 10
0.096887
 20
1.802415
 30
0.0
 10
0.098952
 20
1.821497
 30
0.0
 10
0.090780
 20
1.838700
 30
0.0
 10
0.075587
 20
1.850439
 30
0.0
 10
0.056586
 20
1.853127
 30
0.0
 10
0.056586
 20
1.853127
 30
0.0
  0
LWPOLYLINE
  5
1bf
100
AcDbEntity
  8
Layer_1
 62
7
100
AcDbPolyline
 90
21
 70
0
 10
7.522238
 20
1.616603
 30
0.0
 10
7.519698
 20
1.614740
 30
0.0
 10
7.476784
 20
1.574723
 30
0.0
 10
7.444902
 20
1.525574
 30
0.0
 10
7.416058
 20
1.473782
 30
0.0
 10
7.382256
 20
1.425837
 30
0.0
 10
7.406364
 20
1.420750
 30
0.0
 10
7.430618
 20
1.426307
 30
0.0
 10
7.454094
 20
1.429975
 30
0.0
 10
7.475869
 20
1.419222
 30
0.0
 10
7.504251
 20
1.418663
 30
0.0
 10
7.527198
 20
1.433355
 30
0.0
 10
7.542092
 20
1.457503
 30
0.0
 10
7.546312
 20
1.485313
 30
0.0
 10
7.559190
 20
1.520706
 30
0.0
 10
7.565852
 20
1.560881
 30
0.0
 10
7.557524
 20
1.595904
 30
0.0
 10
7.544995
 20
1.608379
 30
0.0
 10
7.525427
 20
1.615841
 30
0.0
 10
7.522210
 20
1.616603
 30
0.0
 10
7.522238
 20
1.616603
 30
0.0
  0
LWPOLYLINE
  5
1c0
100
AcDbEntity
  8
Layer_1
 62
7
100
AcDbPolyline
 90
18
 70
0
 10
10.968115
 20
1.612908
 30
0.0
 10
10.958096
 20
1.612259
 30
0.0
 10
10.942472
 20
1.579665
 30
0.0
 10
10.941833
 20
1.541262
 30
0.0
 10
10.964474
 20
1.465140
 30
0.0
 10
10.971805
 20
1.441414
 30
0.0
 10
10.987454
 20
1.423499
 30
0.0
 10
11.008829
 20
1.414664
 30
0.0
 10
11.033337
 20
1.418175
 30
0.0
 10
11.062003
 20
1.435246
 30
0.0
 10
11.078771
 20
1.463463
 30
0.0
 10
11.079362
 20
1.494930
 30
0.0
 10
11.059499
 20
1.521748
 30
0.0
 10
11.023586
 20
1.580251
 30
0.0
 10
10.999650
 20
1.603286
 30
0.0
 10
10.968115
 20
1.612863
 30
0.0
 10
10.968115
 20
1.612863
 30
0.0
 10
10.968115
 20
1.612908
 30
0.0
  0
LWPOLYLINE
  5
1c1
100
AcDbEntity
  8
Layer_1
 62
7
100
AcDbPolyline
 90
15
 70
0
 10
8.524014
 20
1.538991
 30
0.0
 10
8.500224
 20
1.523400
 30
0.0
 10
8.494984
 20
1.496179
 30
0.0
 10
8.506714
 20
1.470823
 30
0.0
 10
8.533836
 20
1.460827
 30
0.0
 10
8.655526
 20
1.421691
 30
0.0
 10
8.718355
 20
1.415569
 30
0.0
 10
8.780328
 20
1.428580
 30
0.0
 10
8.793634
 20
1.456727
 30
0.0
 10
8.782971
 20
1.484188
 30
0.0
 10
8.757496
 20
1.503277
 30
0.0
 10
8.726368
 20
1.506304
 30
0.0
 10
8.625614
 20
1.525801
 30
0.0
 10
8.524014
 20
1.538991
 30
0.0
 10
8.524014
 20
1.538991
 30
0.0
  0
LWPOLYLINE
  5
1c2
100
AcDbEntity
  8
Layer_1
 62
7
100
AcDbPolyline
 90
15
 70
0
 10
10.092069
 20
1.536790
 30
0.0
 10
10.072511
 20
1.536310
 30
0.0
 10
9.890002
 20
1.524809
 30
0.0
 10
9.800203
 20
1.507779
 30
0.0
 10
9.712847
 20
1.482567
 30
0.0
 10
9.701387
 20
1.452586
 30
0.0
 10
9.715758
 20
1.424831
 30
0.0
 10
9.744696
 20
1.408663
 30
0.0
 10
9.776940
 20
1.413442
 30
0.0
 10
9.862715
 20
1.423708
 30
0.0
 10
9.946231
 20
1.446471
 30
0.0
 10
10.023883
 20
1.483546
 30
0.0
 10
10.092069
 20
1.536751
 30
0.0
 10
10.092069
 20
1.536751
 30
0.0
 10
10.092069
 20
1.536790
 30
0.0
  0
LWPOLYLINE
  5
1c3
100
AcDbEntity
  8
Layer_1
 62
7
100
AcDbPolyline
 90
26
 70
0
 10
12.459914
 20
1.383885
 30
0.0
 10
12.441952
 20
1.378655
 30
0.0
 10
12.430405
 20
1.366835
 30
0.0
 10
12.424932
 20
1.333005
 30
0.0
 10
12.440244
 20
1.301546
 30
0.0
 10
12.454680
 20
1.292690
 30
0.0
 10
12.473093
 20
1.291610
 30
0.0
 10
12.487623
 20
1.291090
 30
0.0
 10
12.493699
 20
1.276718
 30
0.0
 10
12.502303
 20
1.240677
 30
0.0
 10
12.536247
 20
1.160918
 30
0.0
 10
12.580218
 20
1.086269
 30
0.0
 10
12.672653
 20
0.939218
 30
0.0
 10
12.677038
 20
1.009121
 30
0.0
 10
12.690849
 20
1.040653
 30
0.0
 10
12.714591
 20
1.065832
 30
0.0
 10
12.712511
 20
1.103626
 30
0.0
 10
12.690923
 20
1.133547
 30
0.0
 10
12.637093
 20
1.189030
 30
0.0
 10
12.569836
 20
1.252132
 30
0.0
 10
12.499933
 20
1.304123
 30
0.0
 10
12.513011
 20
1.330443
 30
0.0
 10
12.507747
 20
1.357309
 30
0.0
 10
12.488570
 20
1.377523
 30
0.0
 10
12.459914
 20
1.383885
 30
0.0
 10
12.459914
 20
1.383885
 30
0.0
  0
LWPOLYLINE
  5
1c4
100
AcDbEntity
  8
Layer_1
 62
7
100
AcDbPolyline
 90
15
 70
0
 10
8.679970
 20
1.381345
 30
0.0
 10
8.671983
 20
1.366683
 30
0.0
 10
8.632520
 20
1.290626
 30
0.0
 10
8.603629
 20
1.210034
 30
0.0
 10
8.562622
 20
1.043562
 30
0.0
 10
8.601181
 20
1.078349
 30
0.0
 10
8.625717
 20
1.084330
 30
0.0
 10
8.652143
 20
1.078783
 30
0.0
 10
8.683103
 20
1.084910
 30
0.0
 10
8.700816
 20
1.108796
 30
0.0
 10
8.707845
 20
1.141116
 30
0.0
 10
8.706753
 20
1.172546
 30
0.0
 10
8.702453
 20
1.278273
 30
0.0
 10
8.679970
 20
1.381345
 30
0.0
 10
8.679970
 20
1.381345
 30
0.0
  0
LWPOLYLINE
  5
1c5
100
AcDbEntity
  8
Layer_1
 62
7
100
AcDbPolyline
 90
15
 70
0
 10
6.033403
 20
1.309192
 30
0.0
 10
6.018925
 20
1.300536
 30
0.0
 10
5.944993
 20
1.253566
 30
0.0
 10
5.880453
 20
1.194820
 30
0.0
 10
5.762216
 20
1.065279
 30
0.0
 10
5.782879
 20
1.051407
 30
0.0
 10
5.807657
 20
1.047999
 30
0.0
 10
5.832229
 20
1.044797
 30
0.0
 10
5.852273
 20
1.031545
 30
0.0
 10
5.887962
 20
1.032545
 30
0.0
 10
5.914073
 20
1.055120
 30
0.0
 10
5.951446
 20
1.117368
 30
0.0
 10
6.001791
 20
1.209321
 30
0.0
 10
6.033403
 20
1.309192
 30
0.0
 10
6.033403
 20
1.309192
 30
0.0
  0
LWPOLYLINE
  5
1c6
100
AcDbEntity
  8
Layer_1
 62
7
100
AcDbPolyline
 90
15
 70
0
 10
9.837194
 20
1.305388
 30
0.0
 10
9.833554
 20
1.301530
 30
0.0
 10
9.805720
 20
1.261154
 30
0.0
 10
9.796540
 20
1.213317
 30
0.0
 10
9.807363
 20
1.115661
 30
0.0
 10
9.822828
 20
1.100780
 30
0.0
 10
9.842373
 20
1.094112
 30
0.0
 10
9.884241
 20
1.101397
 30
0.0
 10
9.914043
 20
1.129484
 30
0.0
 10
9.918507
 20
1.148819
 30
0.0
 10
9.912858
 20
1.170341
 30
0.0
 10
9.889483
 20
1.248036
 30
0.0
 10
9.870250
 20
1.282388
 30
0.0
 10
9.837194
 20
1.305388
 30
0.0
 10
9.837194
 20
1.305388
 30
0.0
  0
LWPOLYLINE
  5
1c7
100
AcDbEntity
  8
Layer_1
 62
7
100
AcDbPolyline
 90
24
 70
0
 10
4.603073
 20
1.160639
 30
0.0
 10
4.594126
 20
1.160244
 30
0.0
 10
4.571234
 20
1.151009
 30
0.0
 10
4.559413
 20
1.130176
 30
0.0
 10
4.558788
 20
1.105001
 30
0.0
 10
4.569488
 20
1.082743
 30
0.0
 10
4.487157
 20
1.044998
 30
0.0
 10
4.412252
 20
0.993984
 30
0.0
 10
4.275864
 20
0.875157
 30
0.0
 10
4.283608
 20
0.834658
 30
0.0
 10
4.313410
 20
0.804215
 30
0.0
 10
4.352965
 20
0.793532
 30
0.0
 10
4.372554
 20
0.798635
 30
0.0
 10
4.389967
 20
0.812317
 30
0.0
 10
4.488095
 20
0.926420
 30
0.0
 10
4.541806
 20
0.996330
 30
0.0
 10
4.589441
 20
1.067311
 30
0.0
 10
4.623331
 20
1.068249
 30
0.0
 10
4.645529
 20
1.092664
 30
0.0
 10
4.649413
 20
1.125693
 30
0.0
 10
4.628360
 20
1.152471
 30
0.0
 10
4.603073
 20
1.160577
 30
0.0
 10
4.603073
 20
1.160577
 30
0.0
 10
4.603073
 20
1.160639
 30
0.0
  0
LWPOLYLINE
  5
1c8
100
AcDbEntity
  8
Layer_1
 62
7
100
AcDbPolyline
 90
7
 70
0
 10
13.917789
 20
1.079610
 30
0.0
 10
13.924393
 20
1.064398
 30
0.0
 10
13.956496
 20
0.994610
 30
0.0
 10
14.000028
 20
0.932160
 30
0.0
 10
14.000028
 20
1.043008
 30
0.0
 10
13.917789
 20
1.079610
 30
0.0
 10
13.917789
 20
1.079610
 30
0.0
  0
LWPOLYLINE
  5
1c9
100
AcDbEntity
  8
Layer_1
 62
7
100
AcDbPolyline
 90
14
 70
0
 10
9.815632
 20
1.001118
 30
0.0
 10
9.797232
 20
0.997607
 30
0.0
 10
9.784609
 20
0.987007
 30
0.0
 10
9.776001
 20
0.954307
 30
0.0
 10
9.788423
 20
0.922551
 30
0.0
 10
9.802086
 20
0.913130
 30
0.0
 10
9.820487
 20
0.911270
 30
0.0
 10
9.849895
 20
0.923094
 30
0.0
 10
9.861868
 20
0.951250
 30
0.0
 10
9.855436
 20
0.981587
 30
0.0
 10
9.829631
 20
0.999958
 30
0.0
 10
9.815632
 20
1.001059
 30
0.0
 10
9.815632
 20
1.001059
 30
0.0
 10
9.815632
 20
1.001118
 30
0.0
  0
LWPOLYLINE
  5
1ca
100
AcDbEntity
  8
Layer_1
 62
7
100
AcDbPolyline
 90
19
 70
0
 10
3.167860
 20
0.938445
 30
0.0
 10
3.167860
 20
0.938445
 30
0.0
 10
3.157672
 20
0.937852
 30
0.0
 10
3.069411
 20
0.892151
 30
0.0
 10
2.985689
 20
0.838506
 30
0.0
 10
2.823972
 20
0.723211
 30
0.0
 10
2.818630
 20
0.706591
 30
0.0
 10
2.825831
 20
0.693714
 30
0.0
 10
2.840478
 20
0.687704
 30
0.0
 10
2.857472
 20
0.691681
 30
0.0
 10
2.899495
 20
0.661138
 30
0.0
 10
2.921766
 20
0.650178
 30
0.0
 10
2.946767
 20
0.656070
 30
0.0
 10
3.074462
 20
0.768032
 30
0.0
 10
3.136818
 20
0.825424
 30
0.0
 10
3.191510
 20
0.889844
 30
0.0
 10
3.192173
 20
0.921376
 30
0.0
 10
3.167860
 20
0.938516
 30
0.0
 10
3.167860
 20
0.938445
 30
0.0
  0
LWPOLYLINE
  5
1cb
100
AcDbEntity
  8
Layer_1
 62
7
100
AcDbPolyline
 90
16
 70
0
 10
1.958227
 20
0.866730
 30
0.0
 10
1.938443
 20
0.863907
 30
0.0
 10
1.886126
 20
0.858079
 30
0.0
 10
1.836392
 20
0.844666
 30
0.0
 10
1.742426
 20
0.801861
 30
0.0
 10
1.560802
 20
0.699812
 30
0.0
 10
1.288768
 20
0.548338
 30
0.0
 10
1.341164
 20
0.531587
 30
0.0
 10
1.395107
 20
0.523897
 30
0.0
 10
1.503232
 20
0.533878
 30
0.0
 10
1.604335
 20
0.574640
 30
0.0
 10
1.689608
 20
0.642541
 30
0.0
 10
1.830363
 20
0.747142
 30
0.0
 10
1.896892
 20
0.804093
 30
0.0
 10
1.958227
 20
0.866718
 30
0.0
 10
1.958227
 20
0.866730
 30
0.0
  0
LWPOLYLINE
  5
1cc
100
AcDbEntity
  8
Layer_1
 62
7
100
AcDbPolyline
 90
17
 70
0
 10
0.651341
 20
0.804663
 30
0.0
 10
0.636468
 20
0.802744
 30
0.0
 10
0.528734
 20
0.779158
 30
0.0
 10
0.427715
 20
0.735494
 30
0.0
 10
0.329183
 20
0.684375
 30
0.0
 10
0.228910
 20
0.638426
 30
0.0
 10
0.046510
 20
0.548798
 30
0.0
 10
0.102628
 20
0.530733
 30
0.0
 10
0.159753
 20
0.523680
 30
0.0
 10
0.217058
 20
0.526483
 30
0.0
 10
0.273720
 20
0.537985
 30
0.0
 10
0.381814
 20
0.582460
 30
0.0
 10
0.477435
 20
0.647852
 30
0.0
 10
0.575998
 20
0.713856
 30
0.0
 10
0.617790
 20
0.755683
 30
0.0
 10
0.651341
 20
0.804672
 30
0.0
 10
0.651341
 20
0.804663
 30
0.0
  0
LWPOLYLINE
  5
1cd
100
AcDbEntity
  8
Layer_1
 62
7
100
AcDbPolyline
 90
12
 70
0
 10
7.025160
 20
0.777048
 30
0.0
 10
7.006006
 20
0.773442
 30
0.0
 10
6.993460
 20
0.762175
 30
0.0
 10
6.986672
 20
0.727551
 30
0.0
 10
7.001761
 20
0.694965
 30
0.0
 10
7.016559
 20
0.686246
 30
0.0
 10
7.035687
 20
0.686209
 30
0.0
 10
7.064078
 20
0.704509
 30
0.0
 10
7.070619
 20
0.736607
 30
0.0
 10
7.057063
 20
0.766215
 30
0.0
 10
7.025160
 20
0.777048
 30
0.0
 10
7.025160
 20
0.777048
 30
0.0
  0
LWPOLYLINE
  5
1ce
100
AcDbEntity
  8
Layer_1
 62
7
100
AcDbPolyline
 90
14
 70
0
 10
6.997615
 20
0.687640
 30
0.0
 10
6.997615
 20
0.687640
 30
0.0
 10
6.989826
 20
0.687640
 30
0.0
 10
6.943968
 20
0.647860
 30
0.0
 10
6.913372
 20
0.594594
 30
0.0
 10
6.914015
 20
0.565753
 30
0.0
 10
6.930521
 20
0.543439
 30
0.0
 10
6.955730
 20
0.534424
 30
0.0
 10
6.982488
 20
0.545482
 30
0.0
 10
7.004741
 20
0.572430
 30
0.0
 10
7.016602
 20
0.605893
 30
0.0
 10
7.017060
 20
0.676173
 30
0.0
 10
6.997615
 20
0.687693
 30
0.0
 10
6.997615
 20
0.687640
 30
0.0
  0
LWPOLYLINE
  5
1cf
100
AcDbEntity
  8
Layer_1
 62
7
100
AcDbPolyline
 90
13
 70
0
 10
11.534648
 20
0.659198
 30
0.0
 10
11.513598
 20
0.645905
 30
0.0
 10
11.502458
 20
0.626089
 30
0.0
 10
11.505367
 20
0.578725
 30
0.0
 10
11.534291
 20
0.540799
 30
0.0
 10
11.555668
 20
0.532779
 30
0.0
 10
11.580142
 20
0.536002
 30
0.0
 10
11.596153
 20
0.550167
 30
0.0
 10
11.603291
 20
0.567867
 30
0.0
 10
11.596299
 20
0.607509
 30
0.0
 10
11.569855
 20
0.642196
 30
0.0
 10
11.534648
 20
0.659198
 30
0.0
 10
11.534648
 20
0.659198
 30
0.0
  0
LWPOLYLINE
  5
1d0
100
AcDbEntity
  8
Layer_1
 62
7
100
AcDbPolyline
 90
13
 70
0
 10
2.687038
 20
0.632959
 30
0.0
 10
2.602900
 20
0.590814
 30
0.0
 10
2.525748
 20
0.535452
 30
0.0
 10
2.571868
 20
0.540190
 30
0.0
 10
2.618084
 20
0.532760
 30
0.0
 10
2.663844
 20
0.527184
 30
0.0
 10
2.708600
 20
0.537484
 30
0.0
 10
2.729686
 20
0.560927
 30
0.0
 10
2.731071
 20
0.592433
 30
0.0
 10
2.715831
 20
0.620305
 30
0.0
 10
2.687038
 20
0.632844
 30
0.0
 10
2.687038
 20
0.632844
 30
0.0
 10
2.687038
 20
0.632959
 30
0.0
  0
LWPOLYLINE
  5
1d1
100
AcDbEntity
  8
Layer_1
 62
7
100
AcDbPolyline
 90
10
 70
0
 10
0.000028
 20
0.500007
 30
0.0
 10
0.000028
 20
-0.000000
 30
0.0
 10
0.500041
 20
-0.000000
 30
0.0
 10
0.500041
 20
0.400016
 30
0.0
 10
13.500072
 20
0.400016
 30
0.0
 10
13.500072
 20
-0.000000
 30
0.0
 10
14.000028
 20
-0.000000
 30
0.0
 10
14.000028
 20
0.500007
 30
0.0
 10
0.000028
 20
0.500007
 30
0.0
 10
0.000028
 20
0.500007
 30
0.0
  0
ENDSEC
  0
SECTION
  2
OBJECTS
  0
DICTIONARY
  5
C
330
0
100
AcDbDictionary
  3
ACAD_GROUP
350
D
  3
ACAD_MLINESTYLE
350
17
  0
DICTIONARY
  5
D
330
C
100
AcDbDictionary
  0
DICTIONARY
  5
1A
330
C
100
AcDbDictionary
  0
DICTIONARY
  5
17
330
C
100
AcDbDictionary
  3
STANDARD
350
18
  0
DICTIONARY
  5
19
330
C
100
AcDbDictionary
  0
ENDSEC
  0
EOF
