  0
SECTION
  2
HEADER
  9
$ACADVER
  1
AC1014
  9
$HANDSEED
  5
FFFF
  9
$MEASUREMENT
 70
     1
  0
ENDSEC
  0
SECTION
  2
TABLES
  0
TABLE
  2
VPORT
  5
8
330
0
100
AcDbSymbolTable
 70
     4
  0
VPORT
  5
2E
330
8
100
AcDbSymbolTableRecord
100
AcDbViewportTableRecord
  2
*ACTIVE
 70
     0
 10
0.0
 20
0.0
 11
1.0
 21
1.0
 12
210.0
 22
148.5
 13
0.0
 23
0.0
 14
10.0
 24
10.0
 15
10.0
 25
10.0
 16
0.0
 26
0.0
 36
1.0
 17
0.0
 27
0.0
 37
0.0
 40
341.0
 41
1.24
 42
50.0
 43
0.0
 44
0.0
 50
0.0
 51
0.0
 71
     0
 72
   100
 73
     1
 74
     3
 75
     0
 76
     0
 77
     0
 78
     0
  0
ENDTAB
  0
TABLE
  2
LTYPE
  5
5
330
0
100
AcDbSymbolTable
 70
     1
  0
LTYPE
  5
14
330
5
100
AcDbSymbolTableRecord
100
AcDbLinetypeTableRecord
  2
BYBLOCK
 70
     0
  3

 72
    65
 73
     0
 40
0.0
  0
LTYPE
  5
15
330
5
100
AcDbSymbolTableRecord
100
AcDbLinetypeTableRecord
  2
BYLAYER
 70
     0
  3

 72
    65
 73
     0
 40
0.0
  0
LTYPE
  5
16
330
5
100
AcDbSymbolTableRecord
100
AcDbLinetypeTableRecord
  2
CONTINUOUS
 70
     0
  3
Solid line
 72
    65
 73
     0
 40
0.0
  0
ENDTAB
  0
TABLE
  2
LAYER
  5
2
100
AcDbSymbolTable
 70
2
  0
LAYER
  5
50
100
AcDbSymbolTableRecord
100
AcDbLayerTableRecord
  2
0
 70
0
  6
CONTINUOUS
  0
LAYER
  5
51
100
AcDbSymbolTableRecord
100
AcDbLayerTableRecord
  2
Layer_1
 70
0
  6
CONTINUOUS
  0
ENDTAB
  0
TABLE
  2
STYLE
  5
3
330
0
100
AcDbSymbolTable
 70
     1
  0
STYLE
  5
11
330
3
100
AcDbSymbolTableRecord
100
AcDbTextStyleTableRecord
  2
STANDARD
 70
     0
 40
0.0
 41
1.0
 50
0.0
 71
     0
 42
2.5
  3
txt
  4

  0
ENDTAB
  0
TABLE
  2
VIEW
  5
6
330
0
100
AcDbSymbolTable
 70
     0
  0
ENDTAB
  0
TABLE
  2
UCS
  5
7
330
0
100
AcDbSymbolTable
 70
     0
  0
ENDTAB
  0
TABLE
  2
APPID
  5
9
330
0
100
AcDbSymbolTable
 70
     2
  0
APPID
  5
12
330
9
100
AcDbSymbolTableRecord
100
AcDbRegAppTableRecord
  2
ACAD
 70
     0
  0
ENDTAB
  0
TABLE
  2
DIMSTYLE
  5
A
330
0
100
AcDbSymbolTable
 70
     1
  0
DIMSTYLE
105
27
330
A
100
AcDbSymbolTableRecord
100
AcDbDimStyleTableRecord
  2
ISO-25
 70
     0
  3

  4

  5

  6

  7

 40
1.0
 41
2.5
 42
0.625
 43
3.75
 44
1.25
 45
0.0
 46
0.0
 47
0.0
 48
0.0
140
2.5
141
2.5
142
0.0
143
0.03937007874016
144
1.0
145
0.0
146
1.0
147
0.625
 71
     0
 72
     0
 73
     0
 74
     0
 75
     0
 76
     0
 77
     1
 78
     8
170
     0
171
     3
172
     1
173
     0
174
     0
175
     0
176
     0
177
     0
178
     0
270
     2
271
     2
272
     2
273
     2
274
     3
340
11
275
     0
280
     0
281
     0
282
     0
283
     0
284
     8
285
     0
286
     0
287
     3
288
     0
  0
ENDTAB
  0
TABLE
  2
BLOCK_RECORD
  5
1
330
0
100
AcDbSymbolTable
 70
     1
  0
BLOCK_RECORD
  5
1F
330
1
100
AcDbSymbolTableRecord
100
AcDbBlockTableRecord
  2
*MODEL_SPACE
  0
BLOCK_RECORD
  5
1B
330
1
100
AcDbSymbolTableRecord
100
AcDbBlockTableRecord
  2
*PAPER_SPACE
  0
ENDTAB
  0
ENDSEC
  0
SECTION
  2
BLOCKS
  0
BLOCK
  5
20
330
1F
100
AcDbEntity
  8
0
100
AcDbBlockBegin
  2
*MODEL_SPACE
 70
     0
 10
0.0
 20
0.0
 30
0.0
  3
*MODEL_SPACE
  1

  0
ENDBLK
  5
21
330
1F
100
AcDbEntity
  8
0
100
AcDbBlockEnd
  0
BLOCK
  5
1C
330
1B
100
AcDbEntity
 67
     1
  8
0
100
AcDbBlockBegin
  2
*PAPER_SPACE
  1

  0
ENDBLK
  5
1D
330
1B
100
AcDbEntity
 67
     1
  8
0
100
AcDbBlockEnd
  0
ENDSEC
  0
SECTION
  2
ENTITIES
  0
LWPOLYLINE
  5
100
100
AcDbEntity
  8
Layer_1
 62
7
100
AcDbPolyline
 90
14
 70
0
 10
0.000000
 20
20.999979
 30
0.0
 10
0.000000
 20
20.500027
 30
0.0
 10
5.999980
 20
20.500027
 30
0.0
 10
5.999980
 20
0.500007
 30
0.0
 10
0.000000
 20
0.500007
 30
0.0
 10
0.000000
 20
-0.000000
 30
0.0
 10
0.499954
 20
-0.000000
 30
0.0
 10
0.499954
 20
0.400017
 30
0.0
 10
6.099968
 20
0.400017
 30
0.0
 10
6.099968
 20
20.600017
 30
0.0
 10
0.499954
 20
20.600017
 30
0.0
 10
0.499954
 20
20.999979
 30
0.0
 10
0.000000
 20
20.999979
 30
0.0
 10
0.000000
 20
20.999979
 30
0.0
  0
LWPOLYLINE
  5
101
100
AcDbEntity
  8
Layer_1
 62
7
100
AcDbPolyline
 90
14
 70
0
 10
0.756268
 20
19.779533
 30
0.0
 10
0.737193
 20
19.775683
 30
0.0
 10
0.723944
 20
19.764530
 30
0.0
 10
0.714374
 20
19.730189
 30
0.0
 10
0.726457
 20
19.696253
 30
0.0
 10
0.740274
 20
19.685606
 30
0.0
 10
0.759090
 20
19.682464
 30
0.0
 10
0.790808
 20
19.695329
 30
0.0
 10
0.804418
 20
19.725719
 30
0.0
 10
0.798259
 20
19.758488
 30
0.0
 10
0.770667
 20
19.778486
 30
0.0
 10
0.756389
 20
19.779533
 30
0.0
 10
0.756389
 20
19.779533
 30
0.0
 10
0.756268
 20
19.779533
 30
0.0
  0
LWPOLYLINE
  5
102
100
AcDbEntity
  8
Layer_1
 62
7
100
AcDbPolyline
 90
14
 70
0
 10
0.353108
 20
19.767517
 30
0.0
 10
0.354209
 20
19.760517
 30
0.0
 10
0.354773
 20
19.756768
 30
0.0
 10
0.359654
 20
19.725026
 30
0.0
 10
0.356591
 20
19.689889
 30
0.0
 10
0.359729
 20
19.657544
 30
0.0
 10
0.383215
 20
19.634178
 30
0.0
 10
0.521264
 20
19.624073
 30
0.0
 10
0.590214
 20
19.628510
 30
0.0
 10
0.657555
 20
19.644596
 30
0.0
 10
0.585976
 20
19.685523
 30
0.0
 10
0.510544
 20
19.718533
 30
0.0
 10
0.353119
 20
19.767517
 30
0.0
 10
0.353108
 20
19.767517
 30
0.0
  0
LWPOLYLINE
  5
103
100
AcDbEntity
  8
Layer_1
 62
7
100
AcDbPolyline
 90
14
 70
0
 10
3.113704
 20
19.619957
 30
0.0
 10
3.105602
 20
19.619460
 30
0.0
 10
3.064899
 20
19.590515
 30
0.0
 10
3.043170
 20
19.544488
 30
0.0
 10
3.042074
 20
19.493337
 30
0.0
 10
3.063268
 20
19.449024
 30
0.0
 10
3.096869
 20
19.450902
 30
0.0
 10
3.120159
 20
19.472853
 30
0.0
 10
3.143690
 20
19.537163
 30
0.0
 10
3.152627
 20
19.562045
 30
0.0
 10
3.150517
 20
19.588938
 30
0.0
 10
3.137497
 20
19.610642
 30
0.0
 10
3.113704
 20
19.619956
 30
0.0
 10
3.113704
 20
19.619957
 30
0.0
  0
LWPOLYLINE
  5
104
100
AcDbEntity
  8
Layer_1
 62
7
100
AcDbPolyline
 90
13
 70
0
 10
5.267689
 20
19.537495
 30
0.0
 10
5.243891
 20
19.524731
 30
0.0
 10
5.234812
 20
19.499303
 30
0.0
 10
5.240201
 20
19.471184
 30
0.0
 10
5.259807
 20
19.450348
 30
0.0
 10
5.289772
 20
19.446248
 30
0.0
 10
5.314364
 20
19.463181
 30
0.0
 10
5.324977
 20
19.490965
 30
0.0
 10
5.313000
 20
19.519415
 30
0.0
 10
5.296751
 20
19.532453
 30
0.0
 10
5.276565
 20
19.537495
 30
0.0
 10
5.267689
 20
19.537495
 30
0.0
 10
5.267689
 20
19.537495
 30
0.0
  0
LWPOLYLINE
  5
105
100
AcDbEntity
  8
Layer_1
 62
7
100
AcDbPolyline
 90
13
 70
0
 10
5.496608
 20
18.669165
 30
0.0
 10
5.486798
 20
18.669052
 30
0.0
 10
5.467736
 20
18.662925
 30
0.0
 10
5.456063
 20
18.649928
 30
0.0
 10
5.452388
 20
18.613750
 30
0.0
 10
5.470768
 20
18.581370
 30
0.0
 10
5.486666
 20
18.573119
 30
0.0
 10
5.506201
 20
18.573637
 30
0.0
 10
5.534259
 20
18.592906
 30
0.0
 10
5.539484
 20
18.624096
 30
0.0
 10
5.525669
 20
18.653938
 30
0.0
 10
5.496608
 20
18.669163
 30
0.0
 10
5.496608
 20
18.669165
 30
0.0
  0
LWPOLYLINE
  5
106
100
AcDbEntity
  8
Layer_1
 62
7
100
AcDbPolyline
 90
14
 70
0
 10
3.921732
 20
18.552749
 30
0.0
 10
3.902977
 20
18.549048
 30
0.0
 10
3.890581
 20
18.538314
 30
0.0
 10
3.883422
 20
18.505427
 30
0.0
 10
3.897361
 20
18.473449
 30
0.0
 10
3.911338
 20
18.463852
 30
0.0
 10
3.929504
 20
18.461743
 30
0.0
 10
3.947822
 20
18.467423
 30
0.0
 10
3.960250
 20
18.478888
 30
0.0
 10
3.968195
 20
18.510859
 30
0.0
 10
3.954851
 20
18.541024
 30
0.0
 10
3.940669
 20
18.550230
 30
0.0
 10
3.921732
 20
18.552749
 30
0.0
 10
3.921732
 20
18.552749
 30
0.0
  0
LWPOLYLINE
  5
107
100
AcDbEntity
  8
Layer_1
 62
7
100
AcDbPolyline
 90
18
 70
0
 10
4.162944
 20
18.541283
 30
0.0
 10
4.161223
 20
18.534448
 30
0.0
 10
4.160066
 20
18.529487
 30
0.0
 10
4.156057
 20
18.502851
 30
0.0
 10
4.143158
 20
18.478127
 30
0.0
 10
4.118229
 20
18.427017
 30
0.0
 10
4.129890
 20
18.394989
 30
0.0
 10
4.155500
 20
18.371278
 30
0.0
 10
4.215186
 20
18.331711
 30
0.0
 10
4.335469
 20
18.242032
 30
0.0
 10
4.463731
 20
18.164252
 30
0.0
 10
4.463345
 20
18.199989
 30
0.0
 10
4.454704
 20
18.232679
 30
0.0
 10
4.419083
 20
18.290582
 30
0.0
 10
4.319422
 20
18.388101
 30
0.0
 10
4.163043
 20
18.541283
 30
0.0
 10
4.163043
 20
18.541283
 30
0.0
 10
4.162944
 20
18.541283
 30
0.0
  0
LWPOLYLINE
  5
108
100
AcDbEntity
  8
Layer_1
 62
7
100
AcDbPolyline
 90
16
 70
0
 10
0.347763
 20
18.538803
 30
0.0
 10
0.312759
 20
18.538306
 30
0.0
 10
0.287334
 20
18.526249
 30
0.0
 10
0.277105
 20
18.500043
 30
0.0
 10
0.268236
 20
18.472354
 30
0.0
 10
0.246891
 20
18.455844
 30
0.0
 10
0.240326
 20
18.435886
 30
0.0
 10
0.251713
 20
18.419549
 30
0.0
 10
0.272430
 20
18.411217
 30
0.0
 10
0.293853
 20
18.415275
 30
0.0
 10
0.445007
 20
18.445428
 30
0.0
 10
0.518282
 20
18.469071
 30
0.0
 10
0.588752
 20
18.500327
 30
0.0
 10
0.469397
 20
18.527250
 30
0.0
 10
0.347763
 20
18.538802
 30
0.0
 10
0.347763
 20
18.538803
 30
0.0
  0
LWPOLYLINE
  5
109
100
AcDbEntity
  8
Layer_1
 62
7
100
AcDbPolyline
 90
16
 70
0
 10
5.343977
 20
18.501651
 30
0.0
 10
5.279976
 20
18.452080
 30
0.0
 10
5.221273
 20
18.395806
 30
0.0
 10
5.110043
 20
18.277030
 30
0.0
 10
5.110240
 20
18.244538
 30
0.0
 10
5.134178
 20
18.224508
 30
0.0
 10
5.167091
 20
18.221562
 30
0.0
 10
5.194213
 20
18.240320
 30
0.0
 10
5.353973
 20
18.355607
 30
0.0
 10
5.430141
 20
18.417554
 30
0.0
 10
5.496334
 20
18.490406
 30
0.0
 10
5.432864
 20
18.467651
 30
0.0
 10
5.402166
 20
18.468522
 30
0.0
 10
5.378537
 20
18.491123
 30
0.0
 10
5.343977
 20
18.501651
 30
0.0
 10
5.343977
 20
18.501651
 30
0.0
  0
LWPOLYLINE
  5
10a
100
AcDbEntity
  8
Layer_1
 62
7
100
AcDbPolyline
 90
13
 70
0
 10
4.755831
 20
17.940513
 30
0.0
 10
4.737385
 20
17.937189
 30
0.0
 10
4.725000
 20
17.926762
 30
0.0
 10
4.717308
 20
17.894300
 30
0.0
 10
4.730545
 20
17.862523
 30
0.0
 10
4.744321
 20
17.852954
 30
0.0
 10
4.762500
 20
17.850831
 30
0.0
 10
4.791701
 20
17.864955
 30
0.0
 10
4.802904
 20
17.894540
 30
0.0
 10
4.794856
 20
17.924582
 30
0.0
 10
4.766304
 20
17.940073
 30
0.0
 10
4.755831
 20
17.940513
 30
0.0
 10
4.755831
 20
17.940513
 30
0.0
  0
LWPOLYLINE
  5
10b
100
AcDbEntity
  8
Layer_1
 62
7
100
AcDbPolyline
 90
17
 70
0
 10
2.052176
 20
17.650188
 30
0.0
 10
2.024669
 20
17.631403
 30
0.0
 10
2.016288
 20
17.600472
 30
0.0
 10
2.020835
 20
17.565323
 30
0.0
 10
2.032110
 20
17.533882
 30
0.0
 10
2.047520
 20
17.474349
 30
0.0
 10
2.071555
 20
17.416181
 30
0.0
 10
2.107756
 20
17.367171
 30
0.0
 10
2.159660
 20
17.335114
 30
0.0
 10
2.187400
 20
17.352423
 30
0.0
 10
2.195286
 20
17.382325
 30
0.0
 10
2.188639
 20
17.416031
 30
0.0
 10
2.172781
 20
17.444751
 30
0.0
 10
2.124914
 20
17.556295
 30
0.0
 10
2.095940
 20
17.609316
 30
0.0
 10
2.052176
 20
17.650188
 30
0.0
 10
2.052176
 20
17.650188
 30
0.0
  0
LWPOLYLINE
  5
10c
100
AcDbEntity
  8
Layer_1
 62
7
100
AcDbPolyline
 90
16
 70
0
 10
0.847934
 20
17.594295
 30
0.0
 10
0.827296
 20
17.570722
 30
0.0
 10
0.815568
 20
17.543756
 30
0.0
 10
0.812675
 20
17.483334
 30
0.0
 10
0.826932
 20
17.420404
 30
0.0
 10
0.846015
 20
17.362344
 30
0.0
 10
0.865227
 20
17.338778
 30
0.0
 10
0.894188
 20
17.330953
 30
0.0
 10
0.920931
 20
17.340187
 30
0.0
 10
0.933492
 20
17.367801
 30
0.0
 10
0.913626
 20
17.457188
 30
0.0
 10
0.886584
 20
17.545292
 30
0.0
 10
0.871925
 20
17.575228
 30
0.0
 10
0.847999
 20
17.594295
 30
0.0
 10
0.847999
 20
17.594295
 30
0.0
 10
0.847934
 20
17.594295
 30
0.0
  0
LWPOLYLINE
  5
10d
100
AcDbEntity
  8
Layer_1
 62
7
100
AcDbPolyline
 90
17
 70
0
 10
0.678877
 20
17.376014
 30
0.0
 10
0.570152
 20
17.355221
 30
0.0
 10
0.464566
 20
17.323648
 30
0.0
 10
0.493737
 20
17.319564
 30
0.0
 10
0.519062
 20
17.306952
 30
0.0
 10
0.539271
 20
17.287005
 30
0.0
 10
0.553091
 20
17.260920
 30
0.0
 10
0.579205
 20
17.242943
 30
0.0
 10
0.609400
 20
17.246094
 30
0.0
 10
0.667190
 20
17.276079
 30
0.0
 10
0.693119
 20
17.288423
 30
0.0
 10
0.716415
 20
17.308592
 30
0.0
 10
0.727418
 20
17.333477
 30
0.0
 10
0.716469
 20
17.359974
 30
0.0
 10
0.699208
 20
17.372031
 30
0.0
 10
0.678877
 20
17.376014
 30
0.0
 10
0.678877
 20
17.376014
 30
0.0
  0
LWPOLYLINE
  5
10e
100
AcDbEntity
  8
Layer_1
 62
7
100
AcDbPolyline
 90
14
 70
0
 10
1.198618
 20
16.762622
 30
0.0
 10
1.179287
 20
16.758786
 30
0.0
 10
1.166160
 20
16.747588
 30
0.0
 10
1.157563
 20
16.713239
 30
0.0
 10
1.170926
 20
16.679838
 30
0.0
 10
1.185249
 20
16.669825
 30
0.0
 10
1.204349
 20
16.667647
 30
0.0
 10
1.224901
 20
16.671934
 30
0.0
 10
1.238883
 20
16.683210
 30
0.0
 10
1.248124
 20
16.717084
 30
0.0
 10
1.234045
 20
16.749983
 30
0.0
 10
1.218877
 20
16.760040
 30
0.0
 10
1.198618
 20
16.762622
 30
0.0
 10
1.198618
 20
16.762622
 30
0.0
  0
LWPOLYLINE
  5
10f
100
AcDbEntity
  8
Layer_1
 62
7
100
AcDbPolyline
 90
13
 70
0
 10
2.707019
 20
16.559830
 30
0.0
 10
2.697043
 20
16.559547
 30
0.0
 10
2.678542
 20
16.553897
 30
0.0
 10
2.667348
 20
16.541472
 30
0.0
 10
2.664253
 20
16.506682
 30
0.0
 10
2.682499
 20
16.475945
 30
0.0
 10
2.697982
 20
16.468587
 30
0.0
 10
2.716829
 20
16.470030
 30
0.0
 10
2.744715
 20
16.489396
 30
0.0
 10
2.749972
 20
16.518801
 30
0.0
 10
2.736205
 20
16.546269
 30
0.0
 10
2.707019
 20
16.559823
 30
0.0
 10
2.707019
 20
16.559830
 30
0.0
  0
LWPOLYLINE
  5
110
100
AcDbEntity
  8
Layer_1
 62
7
100
AcDbPolyline
 90
13
 70
0
 10
1.085288
 20
16.168301
 30
0.0
 10
1.074872
 20
16.167751
 30
0.0
 10
1.056085
 20
16.162395
 30
0.0
 10
1.044023
 20
16.150096
 30
0.0
 10
1.038393
 20
16.114918
 30
0.0
 10
1.054611
 20
16.082701
 30
0.0
 10
1.069862
 20
16.074106
 30
0.0
 10
1.089313
 20
16.073934
 30
0.0
 10
1.117903
 20
16.092172
 30
0.0
 10
1.125610
 20
16.123511
 30
0.0
 10
1.114163
 20
16.153654
 30
0.0
 10
1.085288
 20
16.168302
 30
0.0
 10
1.085288
 20
16.168301
 30
0.0
  0
LWPOLYLINE
  5
111
100
AcDbEntity
  8
Layer_1
 62
7
100
AcDbPolyline
 90
13
 70
0
 10
5.850269
 20
16.045049
 30
0.0
 10
5.839629
 20
16.044937
 30
0.0
 10
5.821893
 20
16.040302
 30
0.0
 10
5.809833
 20
16.028772
 30
0.0
 10
5.802106
 20
15.995021
 30
0.0
 10
5.815180
 20
15.963669
 30
0.0
 10
5.829122
 20
15.955138
 30
0.0
 10
5.847788
 20
15.954702
 30
0.0
 10
5.877914
 20
15.970359
 30
0.0
 10
5.887967
 20
16.000052
 30
0.0
 10
5.878552
 20
16.029655
 30
0.0
 10
5.850272
 20
16.045047
 30
0.0
 10
5.850269
 20
16.045049
 30
0.0
  0
LWPOLYLINE
  5
112
100
AcDbEntity
  8
Layer_1
 62
7
100
AcDbPolyline
 90
19
 70
0
 10
3.655605
 20
16.041246
 30
0.0
 10
3.640777
 20
16.041077
 30
0.0
 10
3.614682
 20
16.028779
 30
0.0
 10
3.604430
 20
16.002486
 30
0.0
 10
3.609265
 20
15.973372
 30
0.0
 10
3.628430
 20
15.952607
 30
0.0
 10
3.618781
 20
15.920191
 30
0.0
 10
3.634102
 20
15.889530
 30
0.0
 10
3.663192
 20
15.873843
 30
0.0
 10
3.679400
 20
15.875746
 30
0.0
 10
3.694851
 20
15.886351
 30
0.0
 10
3.707261
 20
15.905537
 30
0.0
 10
3.706289
 20
15.927778
 30
0.0
 10
3.685427
 20
15.964734
 30
0.0
 10
3.694813
 20
15.987715
 30
0.0
 10
3.691215
 20
16.011454
 30
0.0
 10
3.677267
 20
16.030960
 30
0.0
 10
3.655605
 20
16.041242
 30
0.0
 10
3.655605
 20
16.041246
 30
0.0
  0
LWPOLYLINE
  5
113
100
AcDbEntity
  8
Layer_1
 62
7
100
AcDbPolyline
 90
13
 70
0
 10
1.774692
 20
16.006630
 30
0.0
 10
1.764276
 20
16.006023
 30
0.0
 10
1.745693
 20
15.999226
 30
0.0
 10
1.734174
 20
15.985743
 30
0.0
 10
1.730241
 20
15.949124
 30
0.0
 10
1.748300
 20
15.916977
 30
0.0
 10
1.764271
 20
15.909084
 30
0.0
 10
1.784175
 20
15.910112
 30
0.0
 10
1.811481
 20
15.930791
 30
0.0
 10
1.817448
 20
15.962761
 30
0.0
 10
1.804407
 20
15.992535
 30
0.0
 10
1.774692
 20
16.006630
 30
0.0
 10
1.774692
 20
16.006630
 30
0.0
  0
LWPOLYLINE
  5
114
100
AcDbEntity
  8
Layer_1
 62
7
100
AcDbPolyline
 90
14
 70
0
 10
0.323729
 20
15.987558
 30
0.0
 10
0.304117
 20
15.984270
 30
0.0
 10
0.290597
 20
15.973609
 30
0.0
 10
0.280911
 20
15.939712
 30
0.0
 10
0.292839
 20
15.904946
 30
0.0
 10
0.306335
 20
15.893201
 30
0.0
 10
0.324547
 20
15.888394
 30
0.0
 10
0.345038
 20
15.892662
 30
0.0
 10
0.359663
 20
15.904136
 30
0.0
 10
0.371280
 20
15.938937
 30
0.0
 10
0.359326
 20
15.973258
 30
0.0
 10
0.344487
 20
15.984131
 30
0.0
 10
0.323729
 20
15.987558
 30
0.0
 10
0.323729
 20
15.987558
 30
0.0
  0
LWPOLYLINE
  5
115
100
AcDbEntity
  8
Layer_1
 62
7
100
AcDbPolyline
 90
13
 70
0
 10
4.165975
 20
15.953493
 30
0.0
 10
4.156496
 20
15.953380
 30
0.0
 10
4.138019
 20
15.946619
 30
0.0
 10
4.127241
 20
15.933447
 30
0.0
 10
4.125668
 20
15.898022
 30
0.0
 10
4.145559
 20
15.867400
 30
0.0
 10
4.161610
 20
15.860233
 30
0.0
 10
4.180693
 20
15.861878
 30
0.0
 10
4.207742
 20
15.881969
 30
0.0
 10
4.210898
 20
15.911782
 30
0.0
 10
4.195272
 20
15.939547
 30
0.0
 10
4.165975
 20
15.953490
 30
0.0
 10
4.165975
 20
15.953493
 30
0.0
  0
LWPOLYLINE
  5
116
100
AcDbEntity
  8
Layer_1
 62
7
100
AcDbPolyline
 90
13
 70
0
 10
4.774571
 20
15.762276
 30
0.0
 10
4.764154
 20
15.761994
 30
0.0
 10
4.746306
 20
15.756981
 30
0.0
 10
4.734609
 20
15.745337
 30
0.0
 10
4.728385
 20
15.711796
 30
0.0
 10
4.742926
 20
15.680657
 30
0.0
 10
4.757184
 20
15.672016
 30
0.0
 10
4.775674
 20
15.671209
 30
0.0
 10
4.805536
 20
15.687415
 30
0.0
 10
4.814097
 20
15.717493
 30
0.0
 10
4.803172
 20
15.747193
 30
0.0
 10
4.774573
 20
15.762269
 30
0.0
 10
4.774571
 20
15.762276
 30
0.0
  0
LWPOLYLINE
  5
117
100
AcDbEntity
  8
Layer_1
 62
7
100
AcDbPolyline
 90
12
 70
0
 10
2.158946
 20
15.675570
 30
0.0
 10
2.140818
 20
15.673437
 30
0.0
 10
2.127885
 20
15.664575
 30
0.0
 10
2.117149
 20
15.634780
 30
0.0
 10
2.125823
 20
15.602422
 30
0.0
 10
2.152991
 20
15.583737
 30
0.0
 10
2.181269
 20
15.588697
 30
0.0
 10
2.199107
 20
15.609409
 30
0.0
 10
2.202720
 20
15.636867
 30
0.0
 10
2.188326
 20
15.662065
 30
0.0
 10
2.158946
 20
15.675570
 30
0.0
 10
2.158946
 20
15.675570
 30
0.0
  0
LWPOLYLINE
  5
118
100
AcDbEntity
  8
Layer_1
 62
7
100
AcDbPolyline
 90
17
 70
0
 10
2.029960
 20
15.462470
 30
0.0
 10
1.981708
 20
15.436418
 30
0.0
 10
1.940163
 20
15.400171
 30
0.0
 10
1.859912
 20
15.323564
 30
0.0
 10
1.876202
 20
15.307415
 30
0.0
 10
1.898932
 20
15.303501
 30
0.0
 10
1.921472
 20
15.299463
 30
0.0
 10
1.937190
 20
15.282939
 30
0.0
 10
1.964452
 20
15.274494
 30
0.0
 10
1.990101
 20
15.283828
 30
0.0
 10
2.010834
 20
15.304445
 30
0.0
 10
2.023347
 20
15.329848
 30
0.0
 10
2.060249
 20
15.391499
 30
0.0
 10
2.064327
 20
15.425591
 30
0.0
 10
2.048425
 20
15.457068
 30
0.0
 10
2.029960
 20
15.462470
 30
0.0
 10
2.029960
 20
15.462470
 30
0.0
  0
LWPOLYLINE
  5
119
100
AcDbEntity
  8
Layer_1
 62
7
100
AcDbPolyline
 90
17
 70
0
 10
0.709910
 20
15.335250
 30
0.0
 10
0.693318
 20
15.329848
 30
0.0
 10
0.604325
 20
15.296913
 30
0.0
 10
0.522301
 20
15.249911
 30
0.0
 10
0.371794
 20
15.134222
 30
0.0
 10
0.382915
 20
15.117782
 30
0.0
 10
0.401228
 20
15.115187
 30
0.0
 10
0.421112
 20
15.116170
 30
0.0
 10
0.436948
 20
15.110464
 30
0.0
 10
0.458329
 20
15.085088
 30
0.0
 10
0.490215
 20
15.081761
 30
0.0
 10
0.522064
 20
15.095610
 30
0.0
 10
0.543334
 20
15.121764
 30
0.0
 10
0.635586
 20
15.221793
 30
0.0
 10
0.676314
 20
15.276096
 30
0.0
 10
0.709910
 20
15.335250
 30
0.0
 10
0.709910
 20
15.335250
 30
0.0
  0
LWPOLYLINE
  5
11a
100
AcDbEntity
  8
Layer_1
 62
7
100
AcDbPolyline
 90
13
 70
0
 10
5.927660
 20
14.891080
 30
0.0
 10
5.917517
 20
14.889977
 30
0.0
 10
5.900046
 20
14.883298
 30
0.0
 10
5.889387
 20
14.870649
 30
0.0
 10
5.886302
 20
14.836863
 30
0.0
 10
5.903854
 20
14.807462
 30
0.0
 10
5.918992
 20
14.800293
 30
0.0
 10
5.937637
 20
14.801286
 30
0.0
 10
5.964395
 20
14.820718
 30
0.0
 10
5.969942
 20
14.851034
 30
0.0
 10
5.956842
 20
14.878925
 30
0.0
 10
5.927660
 20
14.891079
 30
0.0
 10
5.927660
 20
14.891080
 30
0.0
  0
LWPOLYLINE
  5
11b
100
AcDbEntity
  8
Layer_1
 62
7
100
AcDbPolyline
 90
19
 70
0
 10
3.034165
 20
14.849298
 30
0.0
 10
3.031343
 20
14.847424
 30
0.0
 10
2.985634
 20
14.807039
 30
0.0
 10
2.952330
 20
14.756113
 30
0.0
 10
2.922387
 20
14.702156
 30
0.0
 10
2.886758
 20
14.652680
 30
0.0
 10
2.911941
 20
14.649358
 30
0.0
 10
2.936832
 20
14.655872
 30
0.0
 10
2.961009
 20
14.660129
 30
0.0
 10
2.984048
 20
14.650035
 30
0.0
 10
3.012538
 20
14.649862
 30
0.0
 10
3.035538
 20
14.664705
 30
0.0
 10
3.050404
 20
14.688915
 30
0.0
 10
3.054494
 20
14.716843
 30
0.0
 10
3.074710
 20
14.791357
 30
0.0
 10
3.067764
 20
14.826449
 30
0.0
 10
3.037352
 20
14.848252
 30
0.0
 10
3.034154
 20
14.849299
 30
0.0
 10
3.034165
 20
14.849298
 30
0.0
  0
LWPOLYLINE
  5
11c
100
AcDbEntity
  8
Layer_1
 62
7
100
AcDbPolyline
 90
14
 70
0
 10
4.032967
 20
14.770860
 30
0.0
 10
4.009267
 20
14.755331
 30
0.0
 10
4.003921
 20
14.728189
 30
0.0
 10
4.015482
 20
14.702911
 30
0.0
 10
4.042503
 20
14.692974
 30
0.0
 10
4.167474
 20
14.652873
 30
0.0
 10
4.231808
 20
14.647776
 30
0.0
 10
4.293966
 20
14.665413
 30
0.0
 10
4.302938
 20
14.693489
 30
0.0
 10
4.290480
 20
14.718556
 30
0.0
 10
4.265241
 20
14.735228
 30
0.0
 10
4.235871
 20
14.738118
 30
0.0
 10
4.032967
 20
14.770860
 30
0.0
 10
4.032967
 20
14.770860
 30
0.0
  0
LWPOLYLINE
  5
11d
100
AcDbEntity
  8
Layer_1
 62
7
100
AcDbPolyline
 90
14
 70
0
 10
5.006577
 20
14.710116
 30
0.0
 10
4.987316
 20
14.706889
 30
0.0
 10
4.973970
 20
14.695878
 30
0.0
 10
4.964447
 20
14.661054
 30
0.0
 10
4.976858
 20
14.626742
 30
0.0
 10
4.990929
 20
14.616371
 30
0.0
 10
5.010051
 20
14.614040
 30
0.0
 10
5.030429
 20
14.618655
 30
0.0
 10
5.044755
 20
14.630116
 30
0.0
 10
5.055464
 20
14.664110
 30
0.0
 10
5.042598
 20
14.697088
 30
0.0
 10
5.027455
 20
14.707279
 30
0.0
 10
5.006577
 20
14.710116
 30
0.0
 10
5.006577
 20
14.710116
 30
0.0
  0
LWPOLYLINE
  5
11e
100
AcDbEntity
  8
Layer_1
 62
7
100
AcDbPolyline
 90
15
 70
0
 10
5.333890
 20
14.612937
 30
0.0
 10
5.329976
 20
14.596235
 30
0.0
 10
5.312610
 20
14.519628
 30
0.0
 10
5.307481
 20
14.441463
 30
0.0
 10
5.304841
 20
14.284192
 30
0.0
 10
5.318365
 20
14.306212
 30
0.0
 10
5.339032
 20
14.316171
 30
0.0
 10
5.388294
 20
14.314730
 30
0.0
 10
5.411290
 20
14.318751
 30
0.0
 10
5.426578
 20
14.334094
 30
0.0
 10
5.431902
 20
14.355685
 30
0.0
 10
5.425005
 20
14.378450
 30
0.0
 10
5.390973
 20
14.500312
 30
0.0
 10
5.333890
 20
14.612937
 30
0.0
 10
5.333890
 20
14.612937
 30
0.0
  0
LWPOLYLINE
  5
11f
100
AcDbEntity
  8
Layer_1
 62
7
100
AcDbPolyline
 90
17
 70
0
 10
1.543239
 20
14.541996
 30
0.0
 10
1.529072
 20
14.533562
 30
0.0
 10
1.450528
 20
14.482689
 30
0.0
 10
1.381759
 20
14.419719
 30
0.0
 10
1.257433
 20
14.279617
 30
0.0
 10
1.277604
 20
14.267906
 30
0.0
 10
1.301032
 20
14.271005
 30
0.0
 10
1.323524
 20
14.273187
 30
0.0
 10
1.340886
 20
14.258726
 30
0.0
 10
1.371858
 20
14.248980
 30
0.0
 10
1.400926
 20
14.259462
 30
0.0
 10
1.424200
 20
14.282958
 30
0.0
 10
1.437790
 20
14.312249
 30
0.0
 10
1.501352
 20
14.422500
 30
0.0
 10
1.526874
 20
14.480531
 30
0.0
 10
1.543239
 20
14.541996
 30
0.0
 10
1.543239
 20
14.541996
 30
0.0
  0
LWPOLYLINE
  5
120
100
AcDbEntity
  8
Layer_1
 62
7
100
AcDbPolyline
 90
16
 70
0
 10
4.166912
 20
14.527388
 30
0.0
 10
4.156496
 20
14.526892
 30
0.0
 10
4.122870
 20
14.473381
 30
0.0
 10
4.103916
 20
14.413350
 30
0.0
 10
4.089671
 20
14.351138
 30
0.0
 10
4.070175
 20
14.291082
 30
0.0
 10
4.121643
 20
14.315903
 30
0.0
 10
4.147147
 20
14.325589
 30
0.0
 10
4.175292
 20
14.322611
 30
0.0
 10
4.202250
 20
14.338150
 30
0.0
 10
4.214346
 20
14.365178
 30
0.0
 10
4.215364
 20
14.427618
 30
0.0
 10
4.210907
 20
14.490390
 30
0.0
 10
4.195658
 20
14.516156
 30
0.0
 10
4.166912
 20
14.527388
 30
0.0
 10
4.166912
 20
14.527388
 30
0.0
  0
LWPOLYLINE
  5
121
100
AcDbEntity
  8
Layer_1
 62
7
100
AcDbPolyline
 90
14
 70
0
 10
2.533441
 20
13.950983
 30
0.0
 10
2.520321
 20
13.938580
 30
0.0
 10
2.462060
 20
13.880785
 30
0.0
 10
2.411686
 20
13.815252
 30
0.0
 10
2.371409
 20
13.743680
 30
0.0
 10
2.343438
 20
13.667768
 30
0.0
 10
2.369650
 20
13.639751
 30
0.0
 10
2.407194
 20
13.627132
 30
0.0
 10
2.443452
 20
13.634143
 30
0.0
 10
2.465807
 20
13.665011
 30
0.0
 10
2.510482
 20
13.805572
 30
0.0
 10
2.527064
 20
13.877155
 30
0.0
 10
2.533441
 20
13.950982
 30
0.0
 10
2.533441
 20
13.950983
 30
0.0
  0
LWPOLYLINE
  5
122
100
AcDbEntity
  8
Layer_1
 62
7
100
AcDbPolyline
 90
17
 70
0
 10
0.638748
 20
13.870561
 30
0.0
 10
0.602777
 20
13.853301
 30
0.0
 10
0.579063
 20
13.819123
 30
0.0
 10
0.575917
 20
13.780747
 30
0.0
 10
0.584655
 20
13.763959
 30
0.0
 10
0.601653
 20
13.750892
 30
0.0
 10
0.671640
 20
13.703842
 30
0.0
 10
0.708630
 20
13.687143
 30
0.0
 10
0.749819
 20
13.691470
 30
0.0
 10
0.771219
 20
13.725062
 30
0.0
 10
0.767436
 20
13.763874
 30
0.0
 10
0.745459
 20
13.798978
 30
0.0
 10
0.712281
 20
13.821447
 30
0.0
 10
0.680235
 20
13.854833
 30
0.0
 10
0.661501
 20
13.867178
 30
0.0
 10
0.638748
 20
13.870561
 30
0.0
 10
0.638748
 20
13.870561
 30
0.0
  0
LWPOLYLINE
  5
123
100
AcDbEntity
  8
Layer_1
 62
7
100
AcDbPolyline
 90
13
 70
0
 10
5.912666
 20
13.673005
 30
0.0
 10
5.882814
 20
13.657917
 30
0.0
 10
5.869579
 20
13.625948
 30
0.0
 10
5.875778
 20
13.592593
 30
0.0
 10
5.904233
 20
13.573345
 30
0.0
 10
5.923457
 20
13.571440
 30
0.0
 10
5.940136
 20
13.577280
 30
0.0
 10
5.962846
 20
13.604561
 30
0.0
 10
5.966337
 20
13.639908
 30
0.0
 10
5.944582
 20
13.668044
 30
0.0
 10
5.923085
 20
13.672178
 30
0.0
 10
5.912666
 20
13.673005
 30
0.0
 10
5.912666
 20
13.673005
 30
0.0
  0
LWPOLYLINE
  5
124
100
AcDbEntity
  8
Layer_1
 62
7
100
AcDbPolyline
 90
16
 70
0
 10
0.965564
 20
13.614190
 30
0.0
 10
0.961926
 20
13.608127
 30
0.0
 10
0.938634
 20
13.574861
 30
0.0
 10
0.938984
 20
13.535075
 30
0.0
 10
0.959225
 20
13.500271
 30
0.0
 10
0.995607
 20
13.481954
 30
0.0
 10
1.145107
 20
13.376409
 30
0.0
 10
1.220865
 20
13.325462
 30
0.0
 10
1.301253
 20
13.283351
 30
0.0
 10
1.335992
 20
13.304918
 30
0.0
 10
1.351116
 20
13.344036
 30
0.0
 10
1.343734
 20
13.383941
 30
0.0
 10
1.330700
 20
13.398950
 30
0.0
 10
1.310956
 20
13.407870
 30
0.0
 10
0.965564
 20
13.614190
 30
0.0
 10
0.965564
 20
13.614190
 30
0.0
  0
LWPOLYLINE
  5
125
100
AcDbEntity
  8
Layer_1
 62
7
100
AcDbPolyline
 90
16
 70
0
 10
3.623524
 20
13.584535
 30
0.0
 10
3.613768
 20
13.570203
 30
0.0
 10
3.564211
 20
13.490900
 30
0.0
 10
3.527649
 20
13.404628
 30
0.0
 10
3.475798
 20
13.225914
 30
0.0
 10
3.490008
 20
13.215041
 30
0.0
 10
3.504365
 20
13.221440
 30
0.0
 10
3.533566
 20
13.240742
 30
0.0
 10
3.563607
 20
13.231708
 30
0.0
 10
3.593713
 20
13.239485
 30
0.0
 10
3.615078
 20
13.260749
 30
0.0
 10
3.618893
 20
13.292170
 30
0.0
 10
3.633538
 20
13.438481
 30
0.0
 10
3.633711
 20
13.511768
 30
0.0
 10
3.623524
 20
13.584535
 30
0.0
 10
3.623524
 20
13.584535
 30
0.0
  0
LWPOLYLINE
  5
126
100
AcDbEntity
  8
Layer_1
 62
7
100
AcDbPolyline
 90
26
 70
0
 10
4.789675
 20
13.549974
 30
0.0
 10
4.706001
 20
13.547587
 30
0.0
 10
4.624973
 20
13.528366
 30
0.0
 10
4.652801
 20
13.498019
 30
0.0
 10
4.687300
 20
13.475748
 30
0.0
 10
4.726175
 20
13.462230
 30
0.0
 10
4.767131
 20
13.458141
 30
0.0
 10
4.730857
 20
13.358178
 30
0.0
 10
4.711410
 20
13.253820
 30
0.0
 10
4.706140
 20
13.147415
 30
0.0
 10
4.712394
 20
13.041312
 30
0.0
 10
4.740893
 20
13.095696
 30
0.0
 10
4.763510
 20
13.113321
 30
0.0
 10
4.794030
 20
13.114348
 30
0.0
 10
4.820789
 20
13.135953
 30
0.0
 10
4.827675
 20
13.168017
 30
0.0
 10
4.819495
 20
13.237655
 30
0.0
 10
4.804198
 20
13.350718
 30
0.0
 10
4.771926
 20
13.458086
 30
0.0
 10
4.829389
 20
13.469380
 30
0.0
 10
4.853700
 20
13.483498
 30
0.0
 10
4.866129
 20
13.507530
 30
0.0
 10
4.857882
 20
13.530281
 30
0.0
 10
4.838401
 20
13.543800
 30
0.0
 10
4.789675
 20
13.549974
 30
0.0
 10
4.789675
 20
13.549974
 30
0.0
  0
LWPOLYLINE
  5
127
100
AcDbEntity
  8
Layer_1
 62
7
100
AcDbPolyline
 90
5
 70
0
 10
0.000000
 20
13.433226
 30
0.0
 10
0.000000
 20
13.386483
 30
0.0
 10
0.030980
 20
13.431683
 30
0.0
 10
0.000000
 20
13.433227
 30
0.0
 10
0.000000
 20
13.433226
 30
0.0
  0
LWPOLYLINE
  5
128
100
AcDbEntity
  8
Layer_1
 62
7
100
AcDbPolyline
 90
13
 70
0
 10
1.520309
 20
13.315597
 30
0.0
 10
1.510826
 20
13.314660
 30
0.0
 10
1.493990
 20
13.308573
 30
0.0
 10
1.483773
 20
13.296461
 30
0.0
 10
1.480976
 20
13.263635
 30
0.0
 10
1.497996
 20
13.235142
 30
0.0
 10
1.512551
 20
13.228444
 30
0.0
 10
1.530395
 20
13.229938
 30
0.0
 10
1.557928
 20
13.247082
 30
0.0
 10
1.562673
 20
13.275946
 30
0.0
 10
1.548758
 20
13.303221
 30
0.0
 10
1.520309
 20
13.315597
 30
0.0
 10
1.520309
 20
13.315597
 30
0.0
  0
LWPOLYLINE
  5
129
100
AcDbEntity
  8
Layer_1
 62
7
100
AcDbPolyline
 90
14
 70
0
 10
0.949909
 20
12.837638
 30
0.0
 10
0.940980
 20
12.824740
 30
0.0
 10
0.809507
 20
12.635594
 30
0.0
 10
0.684829
 20
12.443960
 30
0.0
 10
0.704246
 20
12.416294
 30
0.0
 10
0.736123
 20
12.410109
 30
0.0
 10
0.768963
 20
12.421650
 30
0.0
 10
0.791269
 20
12.447157
 30
0.0
 10
1.040531
 20
12.725576
 30
0.0
 10
1.002765
 20
12.736611
 30
0.0
 10
0.976149
 20
12.763701
 30
0.0
 10
0.959068
 20
12.799744
 30
0.0
 10
0.949909
 20
12.837638
 30
0.0
 10
0.949909
 20
12.837638
 30
0.0
  0
LWPOLYLINE
  5
12a
100
AcDbEntity
  8
Layer_1
 62
7
100
AcDbPolyline
 90
19
 70
0
 10
1.845138
 20
11.960930
 30
0.0
 10
1.797019
 20
11.930802
 30
0.0
 10
1.757657
 20
11.889675
 30
0.0
 10
1.681373
 20
11.803889
 30
0.0
 10
1.615240
 20
11.730323
 30
0.0
 10
1.555033
 20
11.654840
 30
0.0
 10
1.575662
 20
11.625503
 30
0.0
 10
1.609128
 20
11.618606
 30
0.0
 10
1.644362
 20
11.629811
 30
0.0
 10
1.670293
 20
11.654784
 30
0.0
 10
1.831509
 20
11.790771
 30
0.0
 10
1.909017
 20
11.861919
 30
0.0
 10
1.977209
 20
11.942188
 30
0.0
 10
1.922269
 20
11.921759
 30
0.0
 10
1.896106
 20
11.923960
 30
0.0
 10
1.879479
 20
11.946763
 30
0.0
 10
1.863906
 20
11.957905
 30
0.0
 10
1.845138
 20
11.960929
 30
0.0
 10
1.845138
 20
11.960930
 30
0.0
  0
LWPOLYLINE
  5
12b
100
AcDbEntity
  8
Layer_1
 62
7
100
AcDbPolyline
 90
14
 70
0
 10
2.762747
 20
11.919093
 30
0.0
 10
2.744652
 20
11.916733
 30
0.0
 10
2.731350
 20
11.906862
 30
0.0
 10
2.719645
 20
11.874533
 30
0.0
 10
2.728678
 20
11.841995
 30
0.0
 10
2.741298
 20
11.831862
 30
0.0
 10
2.759496
 20
11.829135
 30
0.0
 10
2.789795
 20
11.840289
 30
0.0
 10
2.804163
 20
11.869683
 30
0.0
 10
2.799312
 20
11.901210
 30
0.0
 10
2.788651
 20
11.912739
 30
0.0
 10
2.771953
 20
11.918762
 30
0.0
 10
2.762747
 20
11.919092
 30
0.0
 10
2.762747
 20
11.919093
 30
0.0
  0
LWPOLYLINE
  5
12c
100
AcDbEntity
  8
Layer_1
 62
7
100
AcDbPolyline
 90
19
 70
0
 10
0.343682
 20
11.741602
 30
0.0
 10
0.288714
 20
11.697204
 30
0.0
 10
0.245974
 20
11.640356
 30
0.0
 10
0.207192
 20
11.579424
 30
0.0
 10
0.164098
 20
11.522769
 30
0.0
 10
0.135182
 20
11.470338
 30
0.0
 10
0.134439
 20
11.442615
 30
0.0
 10
0.153678
 20
11.420684
 30
0.0
 10
0.194639
 20
11.425283
 30
0.0
 10
0.226593
 20
11.450243
 30
0.0
 10
0.283822
 20
11.512792
 30
0.0
 10
0.387526
 20
11.620618
 30
0.0
 10
0.482699
 20
11.735869
 30
0.0
 10
0.426582
 20
11.711518
 30
0.0
 10
0.398688
 20
11.708886
 30
0.0
 10
0.377472
 20
11.728042
 30
0.0
 10
0.361826
 20
11.738264
 30
0.0
 10
0.343682
 20
11.741602
 30
0.0
 10
0.343682
 20
11.741602
 30
0.0
  0
LWPOLYLINE
  5
12d
100
AcDbEntity
  8
Layer_1
 62
7
100
AcDbPolyline
 90
15
 70
0
 10
3.873113
 20
11.315016
 30
0.0
 10
3.680215
 20
11.179129
 30
0.0
 10
3.493603
 20
11.033897
 30
0.0
 10
3.509105
 20
10.999880
 30
0.0
 10
3.541832
 20
10.986270
 30
0.0
 10
3.579686
 20
10.991016
 30
0.0
 10
3.610570
 20
11.012068
 30
0.0
 10
3.810938
 20
11.128694
 30
0.0
 10
4.005295
 20
11.254658
 30
0.0
 10
3.953793
 20
11.248543
 30
0.0
 10
3.930817
 20
11.252795
 30
0.0
 10
3.920134
 20
11.273840
 30
0.0
 10
3.904254
 20
11.303617
 30
0.0
 10
3.873113
 20
11.315016
 30
0.0
 10
3.873113
 20
11.315016
 30
0.0
  0
LWPOLYLINE
  5
12e
100
AcDbEntity
  8
Layer_1
 62
7
100
AcDbPolyline
 90
19
 70
0
 10
2.634203
 20
11.025463
 30
0.0
 10
2.556259
 20
10.972534
 30
0.0
 10
2.483010
 20
10.912758
 30
0.0
 10
2.340517
 20
10.788330
 30
0.0
 10
2.336521
 20
10.757801
 30
0.0
 10
2.355621
 20
10.735377
 30
0.0
 10
2.385648
 20
10.727082
 30
0.0
 10
2.414434
 20
10.738941
 30
0.0
 10
2.565823
 20
10.833416
 30
0.0
 10
2.713191
 20
10.934071
 30
0.0
 10
2.753733
 20
10.970645
 30
0.0
 10
2.765796
 20
10.985622
 30
0.0
 10
2.751667
 20
10.984618
 30
0.0
 10
2.704645
 20
10.975794
 30
0.0
 10
2.684424
 20
10.983109
 30
0.0
 10
2.675213
 20
11.004572
 30
0.0
 10
2.657534
 20
11.020658
 30
0.0
 10
2.634203
 20
11.025463
 30
0.0
 10
2.634203
 20
11.025463
 30
0.0
  0
LWPOLYLINE
  5
12f
100
AcDbEntity
  8
Layer_1
 62
7
100
AcDbPolyline
 90
18
 70
0
 10
1.222705
 20
10.894274
 30
0.0
 10
1.154947
 20
10.840643
 30
0.0
 10
1.093061
 20
10.779731
 30
0.0
 10
0.976478
 20
10.650967
 30
0.0
 10
0.974489
 20
10.623051
 30
0.0
 10
0.990984
 20
10.603014
 30
0.0
 10
1.016983
 20
10.595571
 30
0.0
 10
1.043505
 20
10.605437
 30
0.0
 10
1.123060
 20
10.664510
 30
0.0
 10
1.202255
 20
10.724499
 30
0.0
 10
1.292164
 20
10.793386
 30
0.0
 10
1.375723
 20
10.869745
 30
0.0
 10
1.311286
 20
10.852845
 30
0.0
 10
1.281016
 20
10.855081
 30
0.0
 10
1.261347
 20
10.879501
 30
0.0
 10
1.243719
 20
10.891448
 30
0.0
 10
1.222705
 20
10.894274
 30
0.0
 10
1.222705
 20
10.894274
 30
0.0
  0
LWPOLYLINE
  5
130
100
AcDbEntity
  8
Layer_1
 62
7
100
AcDbPolyline
 90
13
 70
0
 10
3.809173
 20
10.356673
 30
0.0
 10
3.790303
 20
10.351210
 30
0.0
 10
3.778459
 20
10.338879
 30
0.0
 10
3.773691
 20
10.303683
 30
0.0
 10
3.790551
 20
10.271224
 30
0.0
 10
3.805741
 20
10.262316
 30
0.0
 10
3.824718
 20
10.261644
 30
0.0
 10
3.843664
 20
10.268930
 30
0.0
 10
3.855500
 20
10.281469
 30
0.0
 10
3.860125
 20
10.314426
 30
0.0
 10
3.843161
 20
10.344749
 30
0.0
 10
3.809173
 20
10.356673
 30
0.0
 10
3.809173
 20
10.356673
 30
0.0
  0
LWPOLYLINE
  5
131
100
AcDbEntity
  8
Layer_1
 62
7
100
AcDbPolyline
 90
18
 70
0
 10
4.496099
 20
10.256297
 30
0.0
 10
4.380894
 20
10.196379
 30
0.0
 10
4.267784
 20
10.130455
 30
0.0
 10
4.179926
 20
10.078761
 30
0.0
 10
4.097570
 20
10.023298
 30
0.0
 10
4.109907
 20
9.989327
 30
0.0
 10
4.140489
 20
9.973397
 30
0.0
 10
4.177764
 20
9.974205
 30
0.0
 10
4.210183
 20
9.990446
 30
0.0
 10
4.414478
 20
10.078267
 30
0.0
 10
4.516017
 20
10.123609
 30
0.0
 10
4.613396
 20
10.176647
 30
0.0
 10
4.561186
 20
10.179773
 30
0.0
 10
4.542057
 20
10.194102
 30
0.0
 10
4.537826
 20
10.220468
 30
0.0
 10
4.523111
 20
10.245521
 30
0.0
 10
4.496099
 20
10.256297
 30
0.0
 10
4.496099
 20
10.256297
 30
0.0
  0
LWPOLYLINE
  5
132
100
AcDbEntity
  8
Layer_1
 62
7
100
AcDbPolyline
 90
13
 70
0
 10
2.589719
 20
10.190813
 30
0.0
 10
2.571591
 20
10.184470
 30
0.0
 10
2.560034
 20
10.171573
 30
0.0
 10
2.555009
 20
10.136025
 30
0.0
 10
2.571404
 20
10.103975
 30
0.0
 10
2.586622
 20
10.095452
 30
0.0
 10
2.605981
 20
10.095232
 30
0.0
 10
2.634720
 20
10.113128
 30
0.0
 10
2.642685
 20
10.145630
 30
0.0
 10
2.630796
 20
10.176772
 30
0.0
 10
2.599972
 20
10.190592
 30
0.0
 10
2.589719
 20
10.190818
 30
0.0
 10
2.589719
 20
10.190813
 30
0.0
  0
LWPOLYLINE
  5
133
100
AcDbEntity
  8
Layer_1
 62
7
100
AcDbPolyline
 90
16
 70
0
 10
3.293127
 20
9.993753
 30
0.0
 10
3.122409
 20
9.893090
 30
0.0
 10
2.959862
 20
9.781976
 30
0.0
 10
2.966871
 20
9.748899
 30
0.0
 10
2.993779
 20
9.730655
 30
0.0
 10
3.028520
 20
9.728397
 30
0.0
 10
3.059024
 20
9.743281
 30
0.0
 10
3.251521
 20
9.832328
 30
0.0
 10
3.345967
 20
9.880165
 30
0.0
 10
3.435065
 20
9.937474
 30
0.0
 10
3.375272
 20
9.933091
 30
0.0
 10
3.349650
 20
9.941123
 30
0.0
 10
3.338932
 20
9.967130
 30
0.0
 10
3.320241
 20
9.987616
 30
0.0
 10
3.293127
 20
9.993753
 30
0.0
 10
3.293127
 20
9.993753
 30
0.0
  0
LWPOLYLINE
  5
134
100
AcDbEntity
  8
Layer_1
 62
7
100
AcDbPolyline
 90
17
 70
0
 10
1.966572
 20
9.919945
 30
0.0
 10
1.894653
 20
9.877223
 30
0.0
 10
1.826951
 20
9.827735
 30
0.0
 10
1.695648
 20
9.723437
 30
0.0
 10
1.689115
 20
9.692998
 30
0.0
 10
1.706397
 20
9.667561
 30
0.0
 10
1.735379
 20
9.656461
 30
0.0
 10
1.763945
 20
9.669032
 30
0.0
 10
1.919505
 20
9.752790
 30
0.0
 10
2.070916
 20
9.843547
 30
0.0
 10
2.066067
 20
9.861968
 30
0.0
 10
2.050388
 20
9.867526
 30
0.0
 10
2.015298
 20
9.872762
 30
0.0
 10
1.999571
 20
9.906331
 30
0.0
 10
1.984901
 20
9.917227
 30
0.0
 10
1.966572
 20
9.919945
 30
0.0
 10
1.966572
 20
9.919945
 30
0.0
  0
LWPOLYLINE
  5
135
100
AcDbEntity
  8
Layer_1
 62
7
100
AcDbPolyline
 90
16
 70
0
 10
0.589579
 20
9.844209
 30
0.0
 10
0.578832
 20
9.843712
 30
0.0
 10
0.464516
 20
9.750876
 30
0.0
 10
0.362921
 20
9.643621
 30
0.0
 10
0.364268
 20
9.612973
 30
0.0
 10
0.387652
 20
9.594645
 30
0.0
 10
0.419355
 20
9.591943
 30
0.0
 10
0.445657
 20
9.608178
 30
0.0
 10
0.566845
 20
9.687795
 30
0.0
 10
0.683949
 20
9.771723
 30
0.0
 10
0.683398
 20
9.787808
 30
0.0
 10
0.670686
 20
9.794691
 30
0.0
 10
0.637427
 20
9.797741
 30
0.0
 10
0.616999
 20
9.826224
 30
0.0
 10
0.589579
 20
9.844208
 30
0.0
 10
0.589579
 20
9.844209
 30
0.0
  0
LWPOLYLINE
  5
136
100
AcDbEntity
  8
Layer_1
 62
7
100
AcDbPolyline
 90
13
 70
0
 10
5.044226
 20
9.159268
 30
0.0
 10
5.029014
 20
9.152874
 30
0.0
 10
4.569133
 20
8.951736
 30
0.0
 10
4.573729
 20
8.916611
 30
0.0
 10
4.599401
 20
8.894612
 30
0.0
 10
4.634771
 20
8.887904
 30
0.0
 10
4.668464
 20
8.898654
 30
0.0
 10
5.054865
 20
9.015126
 30
0.0
 10
5.030589
 20
9.046029
 30
0.0
 10
5.024103
 20
9.083512
 30
0.0
 10
5.030338
 20
9.122837
 30
0.0
 10
5.044226
 20
9.159268
 30
0.0
 10
5.044226
 20
9.159268
 30
0.0
  0
LWPOLYLINE
  5
137
100
AcDbEntity
  8
Layer_1
 62
7
100
AcDbPolyline
 90
18
 70
0
 10
3.819813
 20
8.880409
 30
0.0
 10
3.809119
 20
8.880352
 30
0.0
 10
3.633270
 20
8.806251
 30
0.0
 10
3.464554
 20
8.718515
 30
0.0
 10
3.458830
 20
8.688946
 30
0.0
 10
3.476042
 20
8.665193
 30
0.0
 10
3.504971
 20
8.654060
 30
0.0
 10
3.534393
 20
8.662347
 30
0.0
 10
3.730216
 20
8.720912
 30
0.0
 10
3.827073
 20
8.753412
 30
0.0
 10
3.920685
 20
8.793701
 30
0.0
 10
3.913665
 20
8.808851
 30
0.0
 10
3.891818
 20
8.811491
 30
0.0
 10
3.867991
 20
8.814414
 30
0.0
 10
3.855034
 20
8.830412
 30
0.0
 10
3.845138
 20
8.862849
 30
0.0
 10
3.819813
 20
8.880407
 30
0.0
 10
3.819813
 20
8.880409
 30
0.0
  0
LWPOLYLINE
  5
138
100
AcDbEntity
  8
Layer_1
 62
7
100
AcDbPolyline
 90
17
 70
0
 10
2.552514
 20
8.844855
 30
0.0
 10
2.544905
 20
8.844138
 30
0.0
 10
2.390515
 20
8.765483
 30
0.0
 10
2.239532
 20
8.680317
 30
0.0
 10
2.246703
 20
8.645628
 30
0.0
 10
2.273924
 20
8.625620
 30
0.0
 10
2.309692
 20
8.621536
 30
0.0
 10
2.342501
 20
8.634622
 30
0.0
 10
2.520540
 20
8.698777
 30
0.0
 10
2.608521
 20
8.733699
 30
0.0
 10
2.692355
 20
8.777827
 30
0.0
 10
2.630276
 20
8.778327
 30
0.0
 10
2.604146
 20
8.788193
 30
0.0
 10
2.594020
 20
8.815420
 30
0.0
 10
2.577633
 20
8.836356
 30
0.0
 10
2.552514
 20
8.844855
 30
0.0
 10
2.552514
 20
8.844855
 30
0.0
  0
LWPOLYLINE
  5
139
100
AcDbEntity
  8
Layer_1
 62
7
100
AcDbPolyline
 90
16
 70
0
 10
1.251644
 20
8.824460
 30
0.0
 10
1.124850
 20
8.747745
 30
0.0
 10
1.002606
 20
8.663285
 30
0.0
 10
1.011722
 20
8.629119
 30
0.0
 10
1.040092
 20
8.611020
 30
0.0
 10
1.076040
 20
8.609380
 30
0.0
 10
1.107889
 20
8.624590
 30
0.0
 10
1.255080
 20
8.687374
 30
0.0
 10
1.327577
 20
8.720831
 30
0.0
 10
1.395456
 20
8.763110
 30
0.0
 10
1.334213
 20
8.761341
 30
0.0
 10
1.308403
 20
8.772456
 30
0.0
 10
1.296845
 20
8.799876
 30
0.0
 10
1.277885
 20
8.818867
 30
0.0
 10
1.251644
 20
8.824460
 30
0.0
 10
1.251644
 20
8.824460
 30
0.0
  0
LWPOLYLINE
  5
13a
100
AcDbEntity
  8
Layer_1
 62
7
100
AcDbPolyline
 90
15
 70
0
 10
5.933612
 20
8.336084
 30
0.0
 10
5.872925
 20
8.304364
 30
0.0
 10
5.854053
 20
8.278282
 30
0.0
 10
5.855947
 20
8.244747
 30
0.0
 10
5.880741
 20
8.160132
 30
0.0
 10
5.898955
 20
8.121824
 30
0.0
 10
5.934383
 20
8.098289
 30
0.0
 10
5.960074
 20
8.107762
 30
0.0
 10
5.973000
 20
8.130280
 30
0.0
 10
5.970930
 20
8.185326
 30
0.0
 10
5.973610
 20
8.244838
 30
0.0
 10
5.982174
 20
8.302680
 30
0.0
 10
5.963174
 20
8.327310
 30
0.0
 10
5.933612
 20
8.336084
 30
0.0
 10
5.933612
 20
8.336084
 30
0.0
  0
LWPOLYLINE
  5
13b
100
AcDbEntity
  8
Layer_1
 62
7
100
AcDbPolyline
 90
13
 70
0
 10
5.407920
 20
7.976912
 30
0.0
 10
5.391822
 20
7.972337
 30
0.0
 10
4.907469
 20
7.826485
 30
0.0
 10
4.908286
 20
7.790858
 30
0.0
 10
4.931566
 20
7.766050
 30
0.0
 10
4.966196
 20
7.755420
 30
0.0
 10
5.001065
 20
7.762324
 30
0.0
 10
5.402682
 20
7.832769
 30
0.0
 10
5.380910
 20
7.865829
 30
0.0
 10
5.378355
 20
7.903842
 30
0.0
 10
5.389274
 20
7.942353
 30
0.0
 10
5.407920
 20
7.976912
 30
0.0
 10
5.407920
 20
7.976912
 30
0.0
  0
LWPOLYLINE
  5
13c
100
AcDbEntity
  8
Layer_1
 62
7
100
AcDbPolyline
 90
13
 70
0
 10
1.260077
 20
7.815516
 30
0.0
 10
1.235995
 20
7.803164
 30
0.0
 10
1.226230
 20
7.777927
 30
0.0
 10
1.230758
 20
7.749642
 30
0.0
 10
1.249550
 20
7.728148
 30
0.0
 10
1.279089
 20
7.723214
 30
0.0
 10
1.303009
 20
7.739744
 30
0.0
 10
1.313801
 20
7.767563
 30
0.0
 10
1.303954
 20
7.796499
 30
0.0
 10
1.288835
 20
7.810470
 30
0.0
 10
1.268953
 20
7.815351
 30
0.0
 10
1.260077
 20
7.815520
 30
0.0
 10
1.260077
 20
7.815516
 30
0.0
  0
LWPOLYLINE
  5
13d
100
AcDbEntity
  8
Layer_1
 62
7
100
AcDbPolyline
 90
16
 70
0
 10
4.167629
 20
7.711226
 30
0.0
 10
3.978566
 20
7.655182
 30
0.0
 10
3.793905
 20
7.591337
 30
0.0
 10
3.792940
 20
7.557614
 30
0.0
 10
3.814499
 20
7.533412
 30
0.0
 10
3.847452
 20
7.522573
 30
0.0
 10
3.880666
 20
7.528939
 30
0.0
 10
4.094658
 20
7.565691
 30
0.0
 10
4.200911
 20
7.587271
 30
0.0
 10
4.304882
 20
7.618346
 30
0.0
 10
4.244605
 20
7.630267
 30
0.0
 10
4.221041
 20
7.644468
 30
0.0
 10
4.217072
 20
7.672916
 30
0.0
 10
4.199748
 20
7.701474
 30
0.0
 10
4.167629
 20
7.711226
 30
0.0
 10
4.167629
 20
7.711226
 30
0.0
  0
LWPOLYLINE
  5
13e
100
AcDbEntity
  8
Layer_1
 62
7
100
AcDbPolyline
 90
15
 70
0
 10
1.736934
 20
7.702186
 30
0.0
 10
1.551576
 20
7.626846
 30
0.0
 10
1.463548
 20
7.579648
 30
0.0
 10
1.383109
 20
7.520175
 30
0.0
 10
1.498231
 20
7.523253
 30
0.0
 10
1.611667
 20
7.541557
 30
0.0
 10
1.836098
 20
7.594038
 30
0.0
 10
1.830792
 20
7.616081
 30
0.0
 10
1.810654
 20
7.626276
 30
0.0
 10
1.790436
 20
7.635607
 30
0.0
 10
1.784892
 20
7.655057
 30
0.0
 10
1.769761
 20
7.688460
 30
0.0
 10
1.755175
 20
7.699151
 30
0.0
 10
1.736934
 20
7.702186
 30
0.0
 10
1.736934
 20
7.702186
 30
0.0
  0
LWPOLYLINE
  5
13f
100
AcDbEntity
  8
Layer_1
 62
7
100
AcDbPolyline
 90
16
 70
0
 10
2.960246
 20
7.692595
 30
0.0
 10
2.770058
 20
7.628199
 30
0.0
 10
2.585861
 20
7.548507
 30
0.0
 10
2.617307
 20
7.529051
 30
0.0
 10
2.650668
 20
7.518091
 30
0.0
 10
2.721129
 20
7.515372
 30
0.0
 10
2.862958
 20
7.542719
 30
0.0
 10
2.983648
 20
7.566022
 30
0.0
 10
3.099703
 20
7.606109
 30
0.0
 10
3.045600
 20
7.613017
 30
0.0
 10
3.020961
 20
7.621262
 30
0.0
 10
3.006990
 20
7.641938
 30
0.0
 10
3.006314
 20
7.661420
 30
0.0
 10
2.995958
 20
7.677933
 30
0.0
 10
2.960246
 20
7.692595
 30
0.0
 10
2.960246
 20
7.692595
 30
0.0
  0
LWPOLYLINE
  5
140
100
AcDbEntity
  8
Layer_1
 62
7
100
AcDbPolyline
 90
14
 70
0
 10
0.490528
 20
7.661506
 30
0.0
 10
0.358251
 20
7.595700
 30
0.0
 10
0.232833
 20
7.517308
 30
0.0
 10
0.263514
 20
7.501115
 30
0.0
 10
0.295366
 20
7.493344
 30
0.0
 10
0.361225
 20
7.496418
 30
0.0
 10
0.492071
 20
7.530482
 30
0.0
 10
0.517741
 20
7.535249
 30
0.0
 10
0.535530
 20
7.549893
 30
0.0
 10
0.548447
 20
7.595695
 30
0.0
 10
0.532789
 20
7.641647
 30
0.0
 10
0.514858
 20
7.656478
 30
0.0
 10
0.490519
 20
7.661506
 30
0.0
 10
0.490528
 20
7.661506
 30
0.0
  0
LWPOLYLINE
  5
141
100
AcDbEntity
  8
Layer_1
 62
7
100
AcDbPolyline
 90
13
 70
0
 10
5.030941
 20
6.675382
 30
0.0
 10
5.011769
 20
6.671784
 30
0.0
 10
4.998983
 20
6.661018
 30
0.0
 10
4.991200
 20
6.627671
 30
0.0
 10
5.004859
 20
6.594726
 30
0.0
 10
5.018875
 20
6.584461
 30
0.0
 10
5.037226
 20
6.581565
 30
0.0
 10
5.067500
 20
6.594860
 30
0.0
 10
5.079381
 20
6.624551
 30
0.0
 10
5.072059
 20
6.655982
 30
0.0
 10
5.044722
 20
6.674500
 30
0.0
 10
5.030941
 20
6.675381
 30
0.0
 10
5.030941
 20
6.675382
 30
0.0
  0
LWPOLYLINE
  5
142
100
AcDbEntity
  8
Layer_1
 62
7
100
AcDbPolyline
 90
13
 70
0
 10
2.021913
 20
6.514317
 30
0.0
 10
1.828429
 20
6.470689
 30
0.0
 10
1.734322
 20
6.440633
 30
0.0
 10
1.645655
 20
6.396412
 30
0.0
 10
1.772529
 20
6.379535
 30
0.0
 10
1.900322
 20
6.377751
 30
0.0
 10
2.155032
 20
6.403137
 30
0.0
 10
2.097076
 20
6.425432
 30
0.0
 10
2.074981
 20
6.443034
 30
0.0
 10
2.072626
 20
6.472149
 30
0.0
 10
2.055355
 20
6.503101
 30
0.0
 10
2.021913
 20
6.514317
 30
0.0
 10
2.021913
 20
6.514317
 30
0.0
  0
LWPOLYLINE
  5
143
100
AcDbEntity
  8
Layer_1
 62
7
100
AcDbPolyline
 90
18
 70
0
 10
4.379903
 20
6.506876
 30
0.0
 10
4.181139
 20
6.473084
 30
0.0
 10
3.985508
 20
6.433729
 30
0.0
 10
3.981049
 20
6.400196
 30
0.0
 10
3.999889
 20
6.373638
 30
0.0
 10
4.031493
 20
6.359019
 30
0.0
 10
4.065324
 20
6.361299
 30
0.0
 10
4.277958
 20
6.368633
 30
0.0
 10
4.384013
 20
6.374962
 30
0.0
 10
4.488877
 20
6.391837
 30
0.0
 10
4.437942
 20
6.410451
 30
0.0
 10
4.421493
 20
6.427462
 30
0.0
 10
4.425487
 20
6.453187
 30
0.0
 10
4.424893
 20
6.473402
 30
0.0
 10
4.415638
 20
6.491302
 30
0.0
 10
4.399912
 20
6.503566
 30
0.0
 10
4.379903
 20
6.506876
 30
0.0
 10
4.379903
 20
6.506876
 30
0.0
  0
LWPOLYLINE
  5
144
100
AcDbEntity
  8
Layer_1
 62
7
100
AcDbPolyline
 90
16
 70
0
 10
3.186357
 20
6.490780
 30
0.0
 10
3.001288
 20
6.455950
 30
0.0
 10
2.909407
 20
6.435850
 30
0.0
 10
2.819521
 20
6.408043
 30
0.0
 10
2.844049
 20
6.383777
 30
0.0
 10
2.872201
 20
6.367338
 30
0.0
 10
2.936042
 20
6.352581
 30
0.0
 10
3.070490
 20
6.358047
 30
0.0
 10
3.155438
 20
6.356939
 30
0.0
 10
3.196631
 20
6.362614
 30
0.0
 10
3.231665
 20
6.383073
 30
0.0
 10
3.241675
 20
6.416784
 30
0.0
 10
3.238432
 20
6.452610
 30
0.0
 10
3.220479
 20
6.480595
 30
0.0
 10
3.186357
 20
6.490780
 30
0.0
 10
3.186357
 20
6.490780
 30
0.0
  0
LWPOLYLINE
  5
145
100
AcDbEntity
  8
Layer_1
 62
7
100
AcDbPolyline
 90
15
 70
0
 10
0.816020
 20
6.487032
 30
0.0
 10
0.653987
 20
6.442313
 30
0.0
 10
0.575727
 20
6.412274
 30
0.0
 10
0.502875
 20
6.370340
 30
0.0
 10
0.603580
 20
6.355919
 30
0.0
 10
0.705115
 20
6.353987
 30
0.0
 10
0.908349
 20
6.365654
 30
0.0
 10
0.906328
 20
6.388109
 30
0.0
 10
0.888397
 20
6.401306
 30
0.0
 10
0.869970
 20
6.413682
 30
0.0
 10
0.866456
 20
6.433674
 30
0.0
 10
0.852880
 20
6.472103
 30
0.0
 10
0.836680
 20
6.484168
 30
0.0
 10
0.816020
 20
6.487032
 30
0.0
 10
0.816020
 20
6.487032
 30
0.0
  0
LWPOLYLINE
  5
146
100
AcDbEntity
  8
Layer_1
 62
7
100
AcDbPolyline
 90
13
 70
0
 10
3.937000
 20
5.307211
 30
0.0
 10
3.927077
 20
5.306881
 30
0.0
 10
3.908424
 20
5.302035
 30
0.0
 10
3.896893
 20
5.290205
 30
0.0
 10
3.892819
 20
5.256000
 30
0.0
 10
3.910105
 20
5.225076
 30
0.0
 10
3.925274
 20
5.217348
 30
0.0
 10
3.944002
 20
5.218245
 30
0.0
 10
3.972508
 20
5.236033
 30
0.0
 10
3.978637
 20
5.265342
 30
0.0
 10
3.965698
 20
5.293344
 30
0.0
 10
3.937000
 20
5.307211
 30
0.0
 10
3.937000
 20
5.307211
 30
0.0
  0
LWPOLYLINE
  5
147
100
AcDbEntity
  8
Layer_1
 62
7
100
AcDbPolyline
 90
16
 70
0
 10
2.061216
 20
5.294037
 30
0.0
 10
1.872708
 20
5.283539
 30
0.0
 10
1.779352
 20
5.270932
 30
0.0
 10
1.689365
 20
5.242222
 30
0.0
 10
1.798251
 20
5.206006
 30
0.0
 10
1.910552
 20
5.183506
 30
0.0
 10
2.138660
 20
5.157004
 30
0.0
 10
2.143018
 20
5.175869
 30
0.0
 10
2.132801
 20
5.190090
 30
0.0
 10
2.118224
 20
5.202776
 30
0.0
 10
2.109501
 20
5.217032
 30
0.0
 10
2.114410
 20
5.243926
 30
0.0
 10
2.106758
 20
5.270288
 30
0.0
 10
2.088406
 20
5.289273
 30
0.0
 10
2.061216
 20
5.294037
 30
0.0
 10
2.061216
 20
5.294037
 30
0.0
  0
LWPOLYLINE
  5
148
100
AcDbEntity
  8
Layer_1
 62
7
100
AcDbPolyline
 90
17
 70
0
 10
4.681801
 20
5.288359
 30
0.0
 10
4.490339
 20
5.281869
 30
0.0
 10
4.394908
 20
5.275566
 30
0.0
 10
4.300528
 20
5.259696
 30
0.0
 10
4.327736
 20
5.231989
 30
0.0
 10
4.358982
 20
5.212200
 30
0.0
 10
4.430027
 20
5.190458
 30
0.0
 10
4.581370
 20
5.176903
 30
0.0
 10
4.688519
 20
5.168974
 30
0.0
 10
4.794250
 20
5.187652
 30
0.0
 10
4.765142
 20
5.211239
 30
0.0
 10
4.730530
 20
5.225961
 30
0.0
 10
4.736406
 20
5.249330
 30
0.0
 10
4.725882
 20
5.270344
 30
0.0
 10
4.705501
 20
5.284766
 30
0.0
 10
4.681801
 20
5.288359
 30
0.0
 10
4.681801
 20
5.288359
 30
0.0
  0
LWPOLYLINE
  5
149
100
AcDbEntity
  8
Layer_1
 62
7
100
AcDbPolyline
 90
15
 70
0
 10
1.082091
 20
5.279981
 30
0.0
 10
0.914670
 20
5.268976
 30
0.0
 10
0.832079
 20
5.256710
 30
0.0
 10
0.752520
 20
5.230371
 30
0.0
 10
0.850853
 20
5.195494
 30
0.0
 10
0.952336
 20
5.172023
 30
0.0
 10
1.159095
 20
5.143334
 30
0.0
 10
1.163475
 20
5.162135
 30
0.0
 10
1.153505
 20
5.176428
 30
0.0
 10
1.130156
 20
5.203362
 30
0.0
 10
1.135096
 20
5.229972
 30
0.0
 10
1.127280
 20
5.255824
 30
0.0
 10
1.108885
 20
5.274600
 30
0.0
 10
1.082091
 20
5.279981
 30
0.0
 10
1.082091
 20
5.279981
 30
0.0
  0
LWPOLYLINE
  5
14a
100
AcDbEntity
  8
Layer_1
 62
7
100
AcDbPolyline
 90
16
 70
0
 10
3.522596
 20
5.279320
 30
0.0
 10
3.515044
 20
5.278990
 30
0.0
 10
3.327132
 20
5.270790
 30
0.0
 10
3.234431
 20
5.258663
 30
0.0
 10
3.145401
 20
5.228774
 30
0.0
 10
3.242806
 20
5.197206
 30
0.0
 10
3.343063
 20
5.176101
 30
0.0
 10
3.444933
 20
5.165541
 30
0.0
 10
3.547181
 20
5.165605
 30
0.0
 10
3.561264
 20
5.181632
 30
0.0
 10
3.560451
 20
5.202123
 30
0.0
 10
3.555456
 20
5.224324
 30
0.0
 10
3.556993
 20
5.245476
 30
0.0
 10
3.545581
 20
5.268434
 30
0.0
 10
3.522596
 20
5.279320
 30
0.0
 10
3.522596
 20
5.279320
 30
0.0
  0
LWPOLYLINE
  5
14b
100
AcDbEntity
  8
Layer_1
 62
7
100
AcDbPolyline
 90
13
 70
0
 10
3.800464
 20
5.191291
 30
0.0
 10
3.781830
 20
5.187172
 30
0.0
 10
3.769436
 20
5.175831
 30
0.0
 10
3.762164
 20
5.141643
 30
0.0
 10
3.776233
 20
5.109045
 30
0.0
 10
3.790516
 20
5.099692
 30
0.0
 10
3.809230
 20
5.098356
 30
0.0
 10
3.827295
 20
5.104282
 30
0.0
 10
3.839403
 20
5.115970
 30
0.0
 10
3.846714
 20
5.148358
 30
0.0
 10
3.833091
 20
5.178980
 30
0.0
 10
3.800464
 20
5.191291
 30
0.0
 10
3.800464
 20
5.191291
 30
0.0
  0
LWPOLYLINE
  5
14c
100
AcDbEntity
  8
Layer_1
 62
7
100
AcDbPolyline
 90
16
 70
0
 10
3.927023
 20
4.137809
 30
0.0
 10
3.902287
 20
4.126119
 30
0.0
 10
3.893591
 20
4.100557
 30
0.0
 10
3.901541
 20
4.075334
 30
0.0
 10
3.926741
 20
4.064662
 30
0.0
 10
4.126638
 20
4.011162
 30
0.0
 10
4.329074
 20
3.967318
 30
0.0
 10
4.341527
 20
3.992285
 30
0.0
 10
4.346027
 20
4.020062
 30
0.0
 10
4.343846
 20
4.075852
 30
0.0
 10
4.313400
 20
4.102763
 30
0.0
 10
4.273939
 20
4.110703
 30
0.0
 10
4.190444
 20
4.115870
 30
0.0
 10
3.927071
 20
4.137809
 30
0.0
 10
3.927071
 20
4.137809
 30
0.0
 10
3.927023
 20
4.137809
 30
0.0
  0
LWPOLYLINE
  5
14d
100
AcDbEntity
  8
Layer_1
 62
7
100
AcDbPolyline
 90
17
 70
0
 10
0.472172
 20
4.135328
 30
0.0
 10
0.447651
 20
4.123013
 30
0.0
 10
0.444180
 20
4.097879
 30
0.0
 10
0.457172
 20
4.072880
 30
0.0
 10
0.482038
 20
4.060969
 30
0.0
 10
0.628291
 20
3.998794
 30
0.0
 10
0.703386
 20
3.973366
 30
0.0
 10
0.781126
 20
3.957616
 30
0.0
 10
0.755177
 20
3.977997
 30
0.0
 10
0.734397
 20
4.003828
 30
0.0
 10
0.724635
 20
4.033659
 30
0.0
 10
0.731737
 20
4.066040
 30
0.0
 10
0.712435
 20
4.097732
 30
0.0
 10
0.679116
 20
4.111002
 30
0.0
 10
0.603910
 20
4.121658
 30
0.0
 10
0.472172
 20
4.135328
 30
0.0
 10
0.472172
 20
4.135328
 30
0.0
  0
LWPOLYLINE
  5
14e
100
AcDbEntity
  8
Layer_1
 62
7
100
AcDbPolyline
 90
17
 70
0
 10
2.814396
 20
4.134004
 30
0.0
 10
2.774984
 20
4.133618
 30
0.0
 10
2.751040
 20
4.123160
 30
0.0
 10
2.744595
 20
4.098435
 30
0.0
 10
2.754157
 20
4.073801
 30
0.0
 10
2.778235
 20
4.063613
 30
0.0
 10
2.940336
 20
4.012788
 30
0.0
 10
3.106098
 20
3.977568
 30
0.0
 10
3.125842
 20
3.989000
 30
0.0
 10
3.139111
 20
4.006772
 30
0.0
 10
3.146666
 20
4.051432
 30
0.0
 10
3.129651
 20
4.091737
 30
0.0
 10
3.112208
 20
4.104066
 30
0.0
 10
3.088956
 20
4.107876
 30
0.0
 10
2.951607
 20
4.120574
 30
0.0
 10
2.814396
 20
4.134003
 30
0.0
 10
2.814396
 20
4.134004
 30
0.0
  0
LWPOLYLINE
  5
14f
100
AcDbEntity
  8
Layer_1
 62
7
100
AcDbPolyline
 90
20
 70
0
 10
5.055195
 20
4.130642
 30
0.0
 10
5.029648
 20
4.118790
 30
0.0
 10
5.023520
 20
4.091898
 30
0.0
 10
5.034760
 20
4.065816
 30
0.0
 10
5.061314
 20
4.056393
 30
0.0
 10
5.299870
 20
4.001212
 30
0.0
 10
5.540098
 20
3.955300
 30
0.0
 10
5.556398
 20
3.957560
 30
0.0
 10
5.567573
 20
3.968021
 30
0.0
 10
5.569297
 20
3.981464
 30
0.0
 10
5.557243
 20
3.992673
 30
0.0
 10
5.536493
 20
4.011247
 30
0.0
 10
5.532332
 20
4.040906
 30
0.0
 10
5.527948
 20
4.071143
 30
0.0
 10
5.506531
 20
4.091450
 30
0.0
 10
5.402675
 20
4.105866
 30
0.0
 10
5.297675
 20
4.113609
 30
0.0
 10
5.176615
 20
4.124938
 30
0.0
 10
5.055195
 20
4.130642
 30
0.0
 10
5.055195
 20
4.130642
 30
0.0
  0
LWPOLYLINE
  5
150
100
AcDbEntity
  8
Layer_1
 62
7
100
AcDbPolyline
 90
16
 70
0
 10
1.631487
 20
4.111404
 30
0.0
 10
1.607045
 20
4.101120
 30
0.0
 10
1.601646
 20
4.076795
 30
0.0
 10
1.612338
 20
4.051971
 30
0.0
 10
1.636172
 20
4.040187
 30
0.0
 10
1.772277
 20
3.989993
 30
0.0
 10
1.841726
 20
3.969829
 30
0.0
 10
1.912552
 20
3.958883
 30
0.0
 10
1.938902
 20
3.989811
 30
0.0
 10
1.944855
 20
4.031533
 30
0.0
 10
1.929738
 20
4.068308
 30
0.0
 10
1.914066
 20
4.079921
 30
0.0
 10
1.892873
 20
4.084395
 30
0.0
 10
1.762455
 20
4.101585
 30
0.0
 10
1.631487
 20
4.111404
 30
0.0
 10
1.631487
 20
4.111404
 30
0.0
  0
LWPOLYLINE
  5
151
100
AcDbEntity
  8
Layer_1
 62
7
100
AcDbPolyline
 90
14
 70
0
 10
5.934329
 20
3.954473
 30
0.0
 10
5.914072
 20
3.950837
 30
0.0
 10
5.900475
 20
3.939417
 30
0.0
 10
5.891954
 20
3.903772
 30
0.0
 10
5.906150
 20
3.868631
 30
0.0
 10
5.920950
 20
3.857842
 30
0.0
 10
5.940448
 20
3.855089
 30
0.0
 10
5.960037
 20
3.860925
 30
0.0
 10
5.973456
 20
3.873135
 30
0.0
 10
5.982494
 20
3.907697
 30
0.0
 10
5.968980
 20
3.940801
 30
0.0
 10
5.954208
 20
3.951189
 30
0.0
 10
5.934329
 20
3.954473
 30
0.0
 10
5.934329
 20
3.954473
 30
0.0
  0
LWPOLYLINE
  5
152
100
AcDbEntity
  8
Layer_1
 62
7
100
AcDbPolyline
 90
14
 70
0
 10
0.000000
 20
3.054284
 30
0.0
 10
0.000000
 20
3.015313
 30
0.0
 10
0.067065
 20
2.951910
 30
0.0
 10
0.142446
 20
2.898074
 30
0.0
 10
0.298537
 20
2.797362
 30
0.0
 10
0.271036
 20
2.863050
 30
0.0
 10
0.269548
 20
2.897999
 30
0.0
 10
0.280238
 20
2.931749
 30
0.0
 10
0.262490
 20
2.965477
 30
0.0
 10
0.230195
 20
2.983895
 30
0.0
 10
0.157483
 20
3.011620
 30
0.0
 10
0.080207
 20
3.038347
 30
0.0
 10
0.000000
 20
3.054284
 30
0.0
 10
0.000000
 20
3.054284
 30
0.0
  0
LWPOLYLINE
  5
153
100
AcDbEntity
  8
Layer_1
 62
7
100
AcDbPolyline
 90
24
 70
0
 10
1.159482
 20
3.053677
 30
0.0
 10
1.149339
 20
3.053564
 30
0.0
 10
1.130013
 20
3.047419
 30
0.0
 10
1.118218
 20
3.034193
 30
0.0
 10
1.114644
 20
2.997395
 30
0.0
 10
1.133475
 20
2.964966
 30
0.0
 10
1.149685
 20
2.957201
 30
0.0
 10
1.169568
 20
2.958700
 30
0.0
 10
1.190479
 20
2.969017
 30
0.0
 10
1.203579
 20
2.987859
 30
0.0
 10
1.272904
 20
2.922923
 30
0.0
 10
1.352797
 20
2.871832
 30
0.0
 10
1.522293
 20
2.786445
 30
0.0
 10
1.547033
 20
2.800293
 30
0.0
 10
1.558878
 20
2.826030
 30
0.0
 10
1.564349
 20
2.884562
 30
0.0
 10
1.539851
 20
2.917513
 30
0.0
 10
1.502212
 20
2.933841
 30
0.0
 10
1.420537
 20
2.957156
 30
0.0
 10
1.312978
 20
2.988911
 30
0.0
 10
1.205399
 20
3.007758
 30
0.0
 10
1.190025
 20
3.038552
 30
0.0
 10
1.159482
 20
3.053674
 30
0.0
 10
1.159482
 20
3.053677
 30
0.0
  0
LWPOLYLINE
  5
154
100
AcDbEntity
  8
Layer_1
 62
7
100
AcDbPolyline
 90
17
 70
0
 10
2.462279
 20
2.999437
 30
0.0
 10
2.440420
 20
2.985183
 30
0.0
 10
2.438466
 20
2.960834
 30
0.0
 10
2.451520
 20
2.937170
 30
0.0
 10
2.474682
 20
2.924968
 30
0.0
 10
2.626891
 20
2.852357
 30
0.0
 10
2.783967
 20
2.794110
 30
0.0
 10
2.803643
 20
2.806032
 30
0.0
 10
2.817525
 20
2.823968
 30
0.0
 10
2.827402
 20
2.868672
 30
0.0
 10
2.812600
 20
2.909802
 30
0.0
 10
2.795631
 20
2.923270
 30
0.0
 10
2.772116
 20
2.928937
 30
0.0
 10
2.618319
 20
2.969692
 30
0.0
 10
2.541227
 20
2.989588
 30
0.0
 10
2.462279
 20
2.999437
 30
0.0
 10
2.462279
 20
2.999437
 30
0.0
  0
LWPOLYLINE
  5
155
100
AcDbEntity
  8
Layer_1
 62
7
100
AcDbPolyline
 90
17
 70
0
 10
3.654448
 20
2.992216
 30
0.0
 10
3.629088
 20
2.980669
 30
0.0
 10
3.623601
 20
2.954700
 30
0.0
 10
3.634846
 20
2.928211
 30
0.0
 10
3.659683
 20
2.915101
 30
0.0
 10
3.872868
 20
2.830182
 30
0.0
 10
4.090625
 20
2.759218
 30
0.0
 10
4.058132
 20
2.795460
 30
0.0
 10
4.053115
 20
2.817585
 30
0.0
 10
4.064056
 20
2.839805
 30
0.0
 10
4.073071
 20
2.868525
 30
0.0
 10
4.060553
 20
2.893821
 30
0.0
 10
4.035165
 20
2.911374
 30
0.0
 10
4.005572
 20
2.916865
 30
0.0
 10
3.830941
 20
2.958967
 30
0.0
 10
3.654448
 20
2.992216
 30
0.0
 10
3.654448
 20
2.992216
 30
0.0
  0
LWPOLYLINE
  5
156
100
AcDbEntity
  8
Layer_1
 62
7
100
AcDbPolyline
 90
18
 70
0
 10
4.805880
 20
2.979098
 30
0.0
 10
4.784254
 20
2.963729
 30
0.0
 10
4.780662
 20
2.938261
 30
0.0
 10
4.792738
 20
2.914939
 30
0.0
 10
4.818118
 20
2.906006
 30
0.0
 10
5.040440
 20
2.826037
 30
0.0
 10
5.266255
 20
2.761478
 30
0.0
 10
5.278876
 20
2.773988
 30
0.0
 10
5.277474
 20
2.789257
 30
0.0
 10
5.263715
 20
2.820182
 30
0.0
 10
5.273851
 20
2.853232
 30
0.0
 10
5.259917
 20
2.884107
 30
0.0
 10
5.231028
 20
2.905054
 30
0.0
 10
5.196301
 20
2.908322
 30
0.0
 10
5.001797
 20
2.948893
 30
0.0
 10
4.904340
 20
2.967784
 30
0.0
 10
4.805875
 20
2.979098
 30
0.0
 10
4.805880
 20
2.979098
 30
0.0
  0
LWPOLYLINE
  5
157
100
AcDbEntity
  8
Layer_1
 62
7
100
AcDbPolyline
 90
14
 70
0
 10
0.636710
 20
1.988123
 30
0.0
 10
0.646687
 20
1.973405
 30
0.0
 10
0.703299
 20
1.896468
 30
0.0
 10
0.772564
 20
1.830980
 30
0.0
 10
0.925491
 20
1.716649
 30
0.0
 10
0.950292
 20
1.724448
 30
0.0
 10
0.964570
 20
1.745627
 30
0.0
 10
0.981826
 20
1.796796
 30
0.0
 10
0.969530
 20
1.835148
 30
0.0
 10
0.938121
 20
1.859714
 30
0.0
 10
0.863535
 20
1.896456
 30
0.0
 10
0.753848
 20
1.951903
 30
0.0
 10
0.636710
 20
1.988123
 30
0.0
 10
0.636710
 20
1.988123
 30
0.0
  0
LWPOLYLINE
  5
158
100
AcDbEntity
  8
Layer_1
 62
7
100
AcDbPolyline
 90
17
 70
0
 10
1.910788
 20
1.948380
 30
0.0
 10
1.922639
 20
1.933442
 30
0.0
 10
1.989736
 20
1.856461
 30
0.0
 10
2.070750
 20
1.795046
 30
0.0
 10
2.244494
 20
1.687104
 30
0.0
 10
2.271474
 20
1.683570
 30
0.0
 10
2.295840
 20
1.694270
 30
0.0
 10
2.311153
 20
1.714961
 30
0.0
 10
2.310971
 20
1.741399
 30
0.0
 10
2.315629
 20
1.771813
 30
0.0
 10
2.300975
 20
1.797232
 30
0.0
 10
2.275251
 20
1.816121
 30
0.0
 10
2.246698
 20
1.826947
 30
0.0
 10
2.082542
 20
1.899152
 30
0.0
 10
1.998370
 20
1.929222
 30
0.0
 10
1.910788
 20
1.948380
 30
0.0
 10
1.910788
 20
1.948380
 30
0.0
  0
LWPOLYLINE
  5
159
100
AcDbEntity
  8
Layer_1
 62
7
100
AcDbPolyline
 90
18
 70
0
 10
3.239160
 20
1.889620
 30
0.0
 10
3.236620
 20
1.885101
 30
0.0
 10
3.224468
 20
1.853912
 30
0.0
 10
3.234897
 20
1.824433
 30
0.0
 10
3.259307
 20
1.800387
 30
0.0
 10
3.289097
 20
1.785496
 30
0.0
 10
3.464242
 20
1.687551
 30
0.0
 10
3.554220
 20
1.643585
 30
0.0
 10
3.650584
 20
1.616108
 30
0.0
 10
3.608028
 20
1.661954
 30
0.0
 10
3.600486
 20
1.690389
 30
0.0
 10
3.611722
 20
1.719846
 30
0.0
 10
3.602866
 20
1.753927
 30
0.0
 10
3.576296
 20
1.774612
 30
0.0
 10
3.508866
 20
1.798890
 30
0.0
 10
3.376107
 20
1.850906
 30
0.0
 10
3.239155
 20
1.889620
 30
0.0
 10
3.239160
 20
1.889620
 30
0.0
  0
LWPOLYLINE
  5
15a
100
AcDbEntity
  8
Layer_1
 62
7
100
AcDbPolyline
 90
18
 70
0
 10
4.449024
 20
1.862225
 30
0.0
 10
4.425227
 20
1.847680
 30
0.0
 10
4.422427
 20
1.821479
 30
0.0
 10
4.435751
 20
1.795572
 30
0.0
 10
4.460325
 20
1.781913
 30
0.0
 10
4.648599
 20
1.688336
 30
0.0
 10
4.841488
 20
1.606516
 30
0.0
 10
4.869192
 20
1.624986
 30
0.0
 10
4.885199
 20
1.655709
 30
0.0
 10
4.888294
 20
1.690580
 30
0.0
 10
4.877263
 20
1.721500
 30
0.0
 10
4.843509
 20
1.743369
 30
0.0
 10
4.804733
 20
1.755058
 30
0.0
 10
4.764561
 20
1.764313
 30
0.0
 10
4.726615
 20
1.778881
 30
0.0
 10
4.589503
 20
1.826417
 30
0.0
 10
4.449024
 20
1.862225
 30
0.0
 10
4.449024
 20
1.862225
 30
0.0
  0
LWPOLYLINE
  5
15b
100
AcDbEntity
  8
Layer_1
 62
7
100
AcDbPolyline
 90
20
 70
0
 10
5.581661
 20
1.843263
 30
0.0
 10
5.571749
 20
1.839348
 30
0.0
 10
5.568144
 20
1.830696
 30
0.0
 10
5.571658
 20
1.821038
 30
0.0
 10
5.583101
 20
1.814104
 30
0.0
 10
5.665761
 20
1.762230
 30
0.0
 10
5.752886
 20
1.717131
 30
0.0
 10
5.844042
 20
1.681396
 30
0.0
 10
5.938799
 20
1.657614
 30
0.0
 10
5.958416
 20
1.668386
 30
0.0
 10
5.969462
 20
1.684934
 30
0.0
 10
5.969463
 20
1.725948
 30
0.0
 10
5.946042
 20
1.761845
 30
0.0
 10
5.927812
 20
1.771995
 30
0.0
 10
5.906443
 20
1.773810
 30
0.0
 10
5.750389
 20
1.820866
 30
0.0
 10
5.671107
 20
1.838104
 30
0.0
 10
5.589826
 20
1.841940
 30
0.0
 10
5.581667
 20
1.843264
 30
0.0
 10
5.581661
 20
1.843263
 30
0.0
  0
LWPOLYLINE
  5
15c
100
AcDbEntity
  8
Layer_1
 62
7
100
AcDbPolyline
 90
12
 70
0
 10
4.138857
 20
1.457853
 30
0.0
 10
4.110929
 20
1.443047
 30
0.0
 10
4.105331
 20
1.413496
 30
0.0
 10
4.118053
 20
1.383249
 30
0.0
 10
4.145085
 20
1.366352
 30
0.0
 10
4.175284
 20
1.365943
 30
0.0
 10
4.195329
 20
1.386748
 30
0.0
 10
4.199912
 20
1.416290
 30
0.0
 10
4.183724
 20
1.442089
 30
0.0
 10
4.163058
 20
1.454816
 30
0.0
 10
4.138857
 20
1.457853
 30
0.0
 10
4.138857
 20
1.457853
 30
0.0
  0
LWPOLYLINE
  5
15d
100
AcDbEntity
  8
Layer_1
 62
7
100
AcDbPolyline
 90
13
 70
0
 10
0.000000
 20
1.042954
 30
0.0
 10
0.000000
 20
0.932049
 30
0.0
 10
0.148827
 20
0.772638
 30
0.0
 10
0.150992
 20
0.795929
 30
0.0
 10
0.145175
 20
0.819303
 30
0.0
 10
0.138981
 20
0.841695
 30
0.0
 10
0.140010
 20
0.862045
 30
0.0
 10
0.160011
 20
0.880702
 30
0.0
 10
0.160832
 20
0.907504
 30
0.0
 10
0.147743
 20
0.933985
 30
0.0
 10
0.126009
 20
0.951673
 30
0.0
 10
0.000000
 20
1.042954
 30
0.0
 10
0.000000
 20
1.042954
 30
0.0
  0
LWPOLYLINE
  5
15e
100
AcDbEntity
  8
Layer_1
 62
7
100
AcDbPolyline
 90
18
 70
0
 10
1.350422
 20
0.947594
 30
0.0
 10
1.347114
 20
0.942963
 30
0.0
 10
1.330515
 20
0.912252
 30
0.0
 10
1.336831
 20
0.880186
 30
0.0
 10
1.357715
 20
0.851217
 30
0.0
 10
1.384819
 20
0.829799
 30
0.0
 10
1.521907
 20
0.707345
 30
0.0
 10
1.593664
 20
0.650445
 30
0.0
 10
1.673600
 20
0.605620
 30
0.0
 10
1.641987
 20
0.663877
 30
0.0
 10
1.640942
 20
0.695615
 30
0.0
 10
1.656898
 20
0.724792
 30
0.0
 10
1.648744
 20
0.762636
 30
0.0
 10
1.621094
 20
0.788210
 30
0.0
 10
1.553710
 20
0.829634
 30
0.0
 10
1.455315
 20
0.894386
 30
0.0
 10
1.350422
 20
0.947594
 30
0.0
 10
1.350422
 20
0.947594
 30
0.0
  0
LWPOLYLINE
  5
15f
100
AcDbEntity
  8
Layer_1
 62
7
100
AcDbPolyline
 90
19
 70
0
 10
2.674716
 20
0.859509
 30
0.0
 10
2.671631
 20
0.856423
 30
0.0
 10
2.653649
 20
0.827926
 30
0.0
 10
2.659894
 20
0.797114
 30
0.0
 10
2.681723
 20
0.769994
 30
0.0
 10
2.710490
 20
0.752574
 30
0.0
 10
2.867739
 20
0.634756
 30
0.0
 10
2.947638
 20
0.577831
 30
0.0
 10
3.032015
 20
0.528284
 30
0.0
 10
3.111595
 20
0.527157
 30
0.0
 10
3.149481
 20
0.534286
 30
0.0
 10
3.179301
 20
0.556672
 30
0.0
 10
3.161051
 20
0.602321
 30
0.0
 10
3.123293
 20
0.632376
 30
0.0
 10
3.034329
 20
0.678435
 30
0.0
 10
2.858122
 20
0.776663
 30
0.0
 10
2.768530
 20
0.822667
 30
0.0
 10
2.674716
 20
0.859509
 30
0.0
 10
2.674716
 20
0.859509
 30
0.0
  0
LWPOLYLINE
  5
160
100
AcDbEntity
  8
Layer_1
 62
7
100
AcDbPolyline
 90
15
 70
0
 10
3.930441
 20
0.814530
 30
0.0
 10
3.927190
 20
0.809680
 30
0.0
 10
3.907981
 20
0.783579
 30
0.0
 10
3.908920
 20
0.752823
 30
0.0
 10
3.926035
 20
0.726187
 30
0.0
 10
3.955356
 20
0.712445
 30
0.0
 10
4.039831
 20
0.661359
 30
0.0
 10
4.122395
 20
0.605167
 30
0.0
 10
4.208187
 20
0.556518
 30
0.0
 10
4.302345
 20
0.528064
 30
0.0
 10
4.406340
 20
0.530816
 30
0.0
 10
4.509657
 20
0.542947
 30
0.0
 10
4.221594
 20
0.682121
 30
0.0
 10
3.930441
 20
0.814530
 30
0.0
 10
3.930441
 20
0.814530
 30
0.0
  0
LWPOLYLINE
  5
161
100
AcDbEntity
  8
Layer_1
 62
7
100
AcDbPolyline
 90
13
 70
0
 10
5.130933
 20
0.793860
 30
0.0
 10
5.121563
 20
0.793143
 30
0.0
 10
5.103805
 20
0.787461
 30
0.0
 10
5.093050
 20
0.775170
 30
0.0
 10
5.090123
 20
0.741133
 30
0.0
 10
5.107918
 20
0.711768
 30
0.0
 10
5.123067
 20
0.705319
 30
0.0
 10
5.141572
 20
0.707815
 30
0.0
 10
5.167946
 20
0.725634
 30
0.0
 10
5.172459
 20
0.754389
 30
0.0
 10
5.158869
 20
0.781367
 30
0.0
 10
5.130933
 20
0.793859
 30
0.0
 10
5.130933
 20
0.793860
 30
0.0
  0
LWPOLYLINE
  5
162
100
AcDbEntity
  8
Layer_1
 62
7
100
AcDbPolyline
 90
18
 70
0
 10
5.221111
 20
0.759353
 30
0.0
 10
5.220236
 20
0.759071
 30
0.0
 10
5.220236
 20
0.759128
 30
0.0
 10
5.191634
 20
0.740622
 30
0.0
 10
5.185206
 20
0.708554
 30
0.0
 10
5.198098
 20
0.676734
 30
0.0
 10
5.227455
 20
0.658972
 30
0.0
 10
5.328318
 20
0.598541
 30
0.0
 10
5.437242
 20
0.550429
 30
0.0
 10
5.551516
 20
0.527029
 30
0.0
 10
5.609812
 20
0.528470
 30
0.0
 10
5.668428
 20
0.540736
 30
0.0
 10
5.648315
 20
0.571141
 30
0.0
 10
5.616210
 20
0.588630
 30
0.0
 10
5.579856
 20
0.601602
 30
0.0
 10
5.546996
 20
0.618458
 30
0.0
 10
5.221117
 20
0.759348
 30
0.0
 10
5.221111
 20
0.759353
 30
0.0
  0
LWPOLYLINE
  5
163
100
AcDbEntity
  8
Layer_1
 62
7
100
AcDbPolyline
 90
15
 70
0
 10
1.847565
 20
0.603029
 30
0.0
 10
1.846634
 20
0.601375
 30
0.0
 10
1.830180
 20
0.594248
 30
0.0
 10
1.820273
 20
0.581687
 30
0.0
 10
1.817936
 20
0.549163
 30
0.0
 10
1.835294
 20
0.521606
 30
0.0
 10
1.850007
 20
0.515254
 30
0.0
 10
1.868020
 20
0.516818
 30
0.0
 10
1.895132
 20
0.534397
 30
0.0
 10
1.900717
 20
0.565596
 30
0.0
 10
1.886978
 20
0.593710
 30
0.0
 10
1.873549
 20
0.601391
 30
0.0
 10
1.856113
 20
0.602036
 30
0.0
 10
1.847571
 20
0.603030
 30
0.0
 10
1.847565
 20
0.603029
 30
0.0
  0
ENDSEC
  0
SECTION
  2
OBJECTS
  0
DICTIONARY
  5
C
330
0
100
AcDbDictionary
  3
ACAD_GROUP
350
D
  3
ACAD_MLINESTYLE
350
17
  0
DICTIONARY
  5
D
330
C
100
AcDbDictionary
  0
DICTIONARY
  5
1A
330
C
100
AcDbDictionary
  0
DICTIONARY
  5
17
330
C
100
AcDbDictionary
  3
STANDARD
350
18
  0
DICTIONARY
  5
19
330
C
100
AcDbDictionary
  0
ENDSEC
  0
EOF
