  0
SECTION
  2
HEADER
  9
$ACADVER
  1
AC1014
  9
$HANDSEED
  5
FFFF
  9
$MEASUREMENT
 70
     1
  0
ENDSEC
  0
SECTION
  2
TABLES
  0
TABLE
  2
VPORT
  5
8
330
0
100
AcDbSymbolTable
 70
     4
  0
VPORT
  5
2E
330
8
100
AcDbSymbolTableRecord
100
AcDbViewportTableRecord
  2
*ACTIVE
 70
     0
 10
0.0
 20
0.0
 11
1.0
 21
1.0
 12
210.0
 22
148.5
 13
0.0
 23
0.0
 14
10.0
 24
10.0
 15
10.0
 25
10.0
 16
0.0
 26
0.0
 36
1.0
 17
0.0
 27
0.0
 37
0.0
 40
341.0
 41
1.24
 42
50.0
 43
0.0
 44
0.0
 50
0.0
 51
0.0
 71
     0
 72
   100
 73
     1
 74
     3
 75
     0
 76
     0
 77
     0
 78
     0
  0
ENDTAB
  0
TABLE
  2
LTYPE
  5
5
330
0
100
AcDbSymbolTable
 70
     1
  0
LTYPE
  5
14
330
5
100
AcDbSymbolTableRecord
100
AcDbLinetypeTableRecord
  2
BYBLOCK
 70
     0
  3

 72
    65
 73
     0
 40
0.0
  0
LTYPE
  5
15
330
5
100
AcDbSymbolTableRecord
100
AcDbLinetypeTableRecord
  2
BYLAYER
 70
     0
  3

 72
    65
 73
     0
 40
0.0
  0
LTYPE
  5
16
330
5
100
AcDbSymbolTableRecord
100
AcDbLinetypeTableRecord
  2
CONTINUOUS
 70
     0
  3
Solid line
 72
    65
 73
     0
 40
0.0
  0
ENDTAB
  0
TABLE
  2
LAYER
  5
2
100
AcDbSymbolTable
 70
2
  0
LAYER
  5
50
100
AcDbSymbolTableRecord
100
AcDbLayerTableRecord
  2
0
 70
0
  6
CONTINUOUS
  0
LAYER
  5
51
100
AcDbSymbolTableRecord
100
AcDbLayerTableRecord
  2
Layer_1
 70
0
  6
CONTINUOUS
  0
ENDTAB
  0
TABLE
  2
STYLE
  5
3
330
0
100
AcDbSymbolTable
 70
     1
  0
STYLE
  5
11
330
3
100
AcDbSymbolTableRecord
100
AcDbTextStyleTableRecord
  2
STANDARD
 70
     0
 40
0.0
 41
1.0
 50
0.0
 71
     0
 42
2.5
  3
txt
  4

  0
ENDTAB
  0
TABLE
  2
VIEW
  5
6
330
0
100
AcDbSymbolTable
 70
     0
  0
ENDTAB
  0
TABLE
  2
UCS
  5
7
330
0
100
AcDbSymbolTable
 70
     0
  0
ENDTAB
  0
TABLE
  2
APPID
  5
9
330
0
100
AcDbSymbolTable
 70
     2
  0
APPID
  5
12
330
9
100
AcDbSymbolTableRecord
100
AcDbRegAppTableRecord
  2
ACAD
 70
     0
  0
ENDTAB
  0
TABLE
  2
DIMSTYLE
  5
A
330
0
100
AcDbSymbolTable
 70
     1
  0
DIMSTYLE
105
27
330
A
100
AcDbSymbolTableRecord
100
AcDbDimStyleTableRecord
  2
ISO-25
 70
     0
  3

  4

  5

  6

  7

 40
1.0
 41
2.5
 42
0.625
 43
3.75
 44
1.25
 45
0.0
 46
0.0
 47
0.0
 48
0.0
140
2.5
141
2.5
142
0.0
143
0.03937007874016
144
1.0
145
0.0
146
1.0
147
0.625
 71
     0
 72
     0
 73
     0
 74
     0
 75
     0
 76
     0
 77
     1
 78
     8
170
     0
171
     3
172
     1
173
     0
174
     0
175
     0
176
     0
177
     0
178
     0
270
     2
271
     2
272
     2
273
     2
274
     3
340
11
275
     0
280
     0
281
     0
282
     0
283
     0
284
     8
285
     0
286
     0
287
     3
288
     0
  0
ENDTAB
  0
TABLE
  2
BLOCK_RECORD
  5
1
330
0
100
AcDbSymbolTable
 70
     1
  0
BLOCK_RECORD
  5
1F
330
1
100
AcDbSymbolTableRecord
100
AcDbBlockTableRecord
  2
*MODEL_SPACE
  0
BLOCK_RECORD
  5
1B
330
1
100
AcDbSymbolTableRecord
100
AcDbBlockTableRecord
  2
*PAPER_SPACE
  0
ENDTAB
  0
ENDSEC
  0
SECTION
  2
BLOCKS
  0
BLOCK
  5
20
330
1F
100
AcDbEntity
  8
0
100
AcDbBlockBegin
  2
*MODEL_SPACE
 70
     0
 10
0.0
 20
0.0
 30
0.0
  3
*MODEL_SPACE
  1

  0
ENDBLK
  5
21
330
1F
100
AcDbEntity
  8
0
100
AcDbBlockEnd
  0
BLOCK
  5
1C
330
1B
100
AcDbEntity
 67
     1
  8
0
100
AcDbBlockBegin
  2
*PAPER_SPACE
  1

  0
ENDBLK
  5
1D
330
1B
100
AcDbEntity
 67
     1
  8
0
100
AcDbBlockEnd
  0
ENDSEC
  0
SECTION
  2
ENTITIES
  0
LWPOLYLINE
  5
100
100
AcDbEntity
  8
Layer_1
 62
7
100
AcDbPolyline
 90
10
 70
0
 10
0.000000
 20
20.999937
 30
0.0
 10
0.000000
 20
20.499983
 30
0.0
 10
14.000000
 20
20.499983
 30
0.0
 10
14.000000
 20
20.999937
 30
0.0
 10
13.499987
 20
20.999937
 30
0.0
 10
13.499987
 20
20.599974
 30
0.0
 10
0.499957
 20
20.599974
 30
0.0
 10
0.499957
 20
20.999937
 30
0.0
 10
0.000000
 20
20.999937
 30
0.0
 10
0.000000
 20
20.999937
 30
0.0
  0
LWPOLYLINE
  5
101
100
AcDbEntity
  8
Layer_1
 62
7
100
AcDbPolyline
 90
12
 70
0
 10
2.107466
 20
20.475235
 30
0.0
 10
2.089735
 20
20.468362
 30
0.0
 10
2.078819
 20
20.455926
 30
0.0
 10
2.075205
 20
20.422647
 30
0.0
 10
2.092159
 20
20.391959
 30
0.0
 10
2.125218
 20
20.380425
 30
0.0
 10
2.152879
 20
20.392100
 30
0.0
 10
2.166292
 20
20.417430
 30
0.0
 10
2.163401
 20
20.446003
 30
0.0
 10
2.142151
 20
20.467406
 30
0.0
 10
2.107466
 20
20.475235
 30
0.0
 10
2.107466
 20
20.475235
 30
0.0
  0
LWPOLYLINE
  5
102
100
AcDbEntity
  8
Layer_1
 62
7
100
AcDbPolyline
 90
17
 70
0
 10
12.689473
 20
20.475235
 30
0.0
 10
12.676914
 20
20.474586
 30
0.0
 10
12.639439
 20
20.466476
 30
0.0
 10
12.606579
 20
20.450590
 30
0.0
 10
12.550517
 20
20.402717
 30
0.0
 10
12.500356
 20
20.345413
 30
0.0
 10
12.447722
 20
20.293126
 30
0.0
 10
12.434878
 20
20.271689
 30
0.0
 10
12.433745
 20
20.246099
 30
0.0
 10
12.444983
 20
20.226025
 30
0.0
 10
12.469255
 20
20.221136
 30
0.0
 10
12.610592
 20
20.312563
 30
0.0
 10
12.740245
 20
20.419242
 30
0.0
 10
12.744420
 20
20.442815
 30
0.0
 10
12.733348
 20
20.460143
 30
0.0
 10
12.689473
 20
20.475246
 30
0.0
 10
12.689473
 20
20.475235
 30
0.0
  0
LWPOLYLINE
  5
103
100
AcDbEntity
  8
Layer_1
 62
7
100
AcDbPolyline
 90
15
 70
0
 10
7.279527
 20
20.474953
 30
0.0
 10
7.261317
 20
20.470721
 30
0.0
 10
7.248973
 20
20.459484
 30
0.0
 10
7.241110
 20
20.426013
 30
0.0
 10
7.254381
 20
20.394578
 30
0.0
 10
7.268456
 20
20.385885
 30
0.0
 10
7.287232
 20
20.385215
 30
0.0
 10
7.332080
 20
20.377272
 30
0.0
 10
7.378326
 20
20.378106
 30
0.0
 10
7.420836
 20
20.391920
 30
0.0
 10
7.454477
 20
20.422917
 30
0.0
 10
7.370272
 20
20.460921
 30
0.0
 10
7.325639
 20
20.472090
 30
0.0
 10
7.279527
 20
20.474953
 30
0.0
 10
7.279527
 20
20.474953
 30
0.0
  0
LWPOLYLINE
  5
104
100
AcDbEntity
  8
Layer_1
 62
7
100
AcDbPolyline
 90
15
 70
0
 10
4.978372
 20
20.473401
 30
0.0
 10
4.949108
 20
20.459470
 30
0.0
 10
4.937619
 20
20.430553
 30
0.0
 10
4.941835
 20
20.397208
 30
0.0
 10
4.959689
 20
20.369992
 30
0.0
 10
4.970653
 20
20.339180
 30
0.0
 10
4.994656
 20
20.315137
 30
0.0
 10
5.024078
 20
20.307386
 30
0.0
 10
5.051298
 20
20.325454
 30
0.0
 10
5.054734
 20
20.371405
 30
0.0
 10
5.045685
 20
20.419341
 30
0.0
 10
5.021211
 20
20.457320
 30
0.0
 10
5.002271
 20
20.468844
 30
0.0
 10
4.978372
 20
20.473401
 30
0.0
 10
4.978372
 20
20.473401
 30
0.0
  0
LWPOLYLINE
  5
105
100
AcDbEntity
  8
Layer_1
 62
7
100
AcDbPolyline
 90
12
 70
0
 10
8.522942
 20
20.473118
 30
0.0
 10
8.483740
 20
20.445082
 30
0.0
 10
8.464938
 20
20.401754
 30
0.0
 10
8.458285
 20
20.303619
 30
0.0
 10
8.456912
 20
20.264311
 30
0.0
 10
8.465123
 20
20.249484
 30
0.0
 10
8.483205
 20
20.249655
 30
0.0
 10
8.552296
 20
20.352639
 30
0.0
 10
8.573347
 20
20.410157
 30
0.0
 10
8.573996
 20
20.471905
 30
0.0
 10
8.522942
 20
20.473118
 30
0.0
 10
8.522942
 20
20.473118
 30
0.0
  0
LWPOLYLINE
  5
106
100
AcDbEntity
  8
Layer_1
 62
7
100
AcDbPolyline
 90
14
 70
0
 10
0.856827
 20
20.472074
 30
0.0
 10
0.848868
 20
20.471792
 30
0.0
 10
0.819527
 20
20.455592
 30
0.0
 10
0.812137
 20
20.423720
 30
0.0
 10
0.823944
 20
20.390997
 30
0.0
 10
0.852198
 20
20.372241
 30
0.0
 10
0.971035
 20
20.286338
 30
0.0
 10
1.036174
 20
20.253913
 30
0.0
 10
1.107440
 20
20.236754
 30
0.0
 10
1.007248
 20
20.368596
 30
0.0
 10
0.951107
 20
20.428183
 30
0.0
 10
0.880618
 20
20.470082
 30
0.0
 10
0.856827
 20
20.472057
 30
0.0
 10
0.856827
 20
20.472074
 30
0.0
  0
LWPOLYLINE
  5
107
100
AcDbEntity
  8
Layer_1
 62
7
100
AcDbPolyline
 90
18
 70
0
 10
2.260431
 20
20.431338
 30
0.0
 10
2.257891
 20
20.424723
 30
0.0
 10
2.255633
 20
20.418604
 30
0.0
 10
2.247205
 20
20.389269
 30
0.0
 10
2.230392
 20
20.362953
 30
0.0
 10
2.212822
 20
20.336640
 30
0.0
 10
2.202124
 20
20.307316
 30
0.0
 10
2.216353
 20
20.273190
 30
0.0
 10
2.242446
 20
20.245916
 30
0.0
 10
2.298728
 20
20.193543
 30
0.0
 10
2.397566
 20
20.105093
 30
0.0
 10
2.452228
 20
20.067718
 30
0.0
 10
2.511242
 20
20.037384
 30
0.0
 10
2.461517
 20
20.143375
 30
0.0
 10
2.397418
 20
20.241075
 30
0.0
 10
2.260544
 20
20.431338
 30
0.0
 10
2.260544
 20
20.431338
 30
0.0
 10
2.260431
 20
20.431338
 30
0.0
  0
LWPOLYLINE
  5
108
100
AcDbEntity
  8
Layer_1
 62
7
100
AcDbPolyline
 90
17
 70
0
 10
11.179979
 20
20.317349
 30
0.0
 10
11.173150
 20
20.316135
 30
0.0
 10
11.124515
 20
20.276401
 30
0.0
 10
11.084934
 20
20.227583
 30
0.0
 10
11.016319
 20
20.121444
 30
0.0
 10
11.009259
 20
20.097967
 30
0.0
 10
11.016971
 20
20.075669
 30
0.0
 10
11.034912
 20
20.063126
 30
0.0
 10
11.058539
 20
20.068914
 30
0.0
 10
11.165731
 20
20.159009
 30
0.0
 10
11.255671
 20
20.265586
 30
0.0
 10
11.249451
 20
20.284190
 30
0.0
 10
11.231989
 20
20.290510
 30
0.0
 10
11.212321
 20
20.295283
 30
0.0
 10
11.199481
 20
20.309243
 30
0.0
 10
11.179979
 20
20.317346
 30
0.0
 10
11.179979
 20
20.317349
 30
0.0
  0
LWPOLYLINE
  5
109
100
AcDbEntity
  8
Layer_1
 62
7
100
AcDbPolyline
 90
18
 70
0
 10
9.776912
 20
20.056457
 30
0.0
 10
9.754814
 20
20.045597
 30
0.0
 10
9.706980
 20
20.026815
 30
0.0
 10
9.682801
 20
20.030421
 30
0.0
 10
9.662047
 20
20.045992
 30
0.0
 10
9.631000
 20
20.044038
 30
0.0
 10
9.606453
 20
20.024267
 30
0.0
 10
9.575433
 20
19.965957
 30
0.0
 10
9.535869
 20
19.876258
 30
0.0
 10
9.517858
 20
19.830993
 30
0.0
 10
9.509026
 20
19.782459
 30
0.0
 10
9.504207
 20
19.738162
 30
0.0
 10
9.509280
 20
19.729563
 30
0.0
 10
9.526947
 20
19.745250
 30
0.0
 10
9.598381
 20
19.815291
 30
0.0
 10
9.662132
 20
19.892354
 30
0.0
 10
9.776912
 20
20.056465
 30
0.0
 10
9.776912
 20
20.056457
 30
0.0
  0
LWPOLYLINE
  5
10a
100
AcDbEntity
  8
Layer_1
 62
7
100
AcDbPolyline
 90
16
 70
0
 10
3.866444
 20
20.028785
 30
0.0
 10
3.856962
 20
20.028785
 30
0.0
 10
3.837801
 20
20.023226
 30
0.0
 10
3.824539
 20
20.011680
 30
0.0
 10
3.814350
 20
19.977583
 30
0.0
 10
3.823660
 20
19.940410
 30
0.0
 10
3.849737
 20
19.914079
 30
0.0
 10
3.877093
 20
19.873058
 30
0.0
 10
3.911529
 20
19.835243
 30
0.0
 10
3.953353
 20
19.811558
 30
0.0
 10
4.002871
 20
19.812930
 30
0.0
 10
3.961945
 20
19.926169
 30
0.0
 10
3.934477
 20
19.979079
 30
0.0
 10
3.894328
 20
20.023163
 30
0.0
 10
3.866444
 20
20.028841
 30
0.0
 10
3.866444
 20
20.028785
 30
0.0
  0
LWPOLYLINE
  5
10b
100
AcDbEntity
  8
Layer_1
 62
7
100
AcDbPolyline
 90
16
 70
0
 10
6.804321
 20
19.705553
 30
0.0
 10
6.797661
 20
19.703239
 30
0.0
 10
6.794726
 20
19.702251
 30
0.0
 10
6.762997
 20
19.693287
 30
0.0
 10
6.727984
 20
19.688957
 30
0.0
 10
6.698162
 20
19.677893
 30
0.0
 10
6.682006
 20
19.648728
 30
0.0
 10
6.693937
 20
19.553477
 30
0.0
 10
6.703430
 20
19.507155
 30
0.0
 10
6.728262
 20
19.467377
 30
0.0
 10
6.761222
 20
19.471145
 30
0.0
 10
6.781927
 20
19.494679
 30
0.0
 10
6.792556
 20
19.527933
 30
0.0
 10
6.795290
 20
19.560863
 30
0.0
 10
6.804321
 20
19.705559
 30
0.0
 10
6.804321
 20
19.705553
 30
0.0
  0
LWPOLYLINE
  5
10c
100
AcDbEntity
  8
Layer_1
 62
7
100
AcDbPolyline
 90
13
 70
0
 10
0.038749
 20
19.618682
 30
0.0
 10
0.035560
 20
19.612343
 30
0.0
 10
0.034996
 20
19.611130
 30
0.0
 10
0.000000
 20
19.555733
 30
0.0
 10
0.000000
 20
19.486774
 30
0.0
 10
0.230293
 20
19.358837
 30
0.0
 10
0.352947
 20
19.306858
 30
0.0
 10
0.346998
 20
19.343249
 30
0.0
 10
0.333069
 20
19.375257
 30
0.0
 10
0.287778
 20
19.429026
 30
0.0
 10
0.172974
 20
19.515934
 30
0.0
 10
0.038749
 20
19.618682
 30
0.0
 10
0.038749
 20
19.618682
 30
0.0
  0
LWPOLYLINE
  5
10d
100
AcDbEntity
  8
Layer_1
 62
7
100
AcDbPolyline
 90
17
 70
0
 10
13.450711
 20
19.559097
 30
0.0
 10
13.438039
 20
19.558758
 30
0.0
 10
13.295933
 20
19.463791
 30
0.0
 10
13.163352
 20
19.355964
 30
0.0
 10
13.158028
 20
19.339150
 30
0.0
 10
13.160819
 20
19.324104
 30
0.0
 10
13.183426
 20
19.302219
 30
0.0
 10
13.216542
 20
19.296114
 30
0.0
 10
13.245536
 20
19.311593
 30
0.0
 10
13.419462
 20
19.406294
 30
0.0
 10
13.504846
 20
19.456096
 30
0.0
 10
13.584372
 20
19.514991
 30
0.0
 10
13.522946
 20
19.506052
 30
0.0
 10
13.495487
 20
19.511771
 30
0.0
 10
13.481417
 20
19.536984
 30
0.0
 10
13.450711
 20
19.559088
 30
0.0
 10
13.450711
 20
19.559097
 30
0.0
  0
LWPOLYLINE
  5
10e
100
AcDbEntity
  8
Layer_1
 62
7
100
AcDbPolyline
 90
16
 70
0
 10
5.531668
 20
19.526793
 30
0.0
 10
5.501647
 20
19.512547
 30
0.0
 10
5.484181
 20
19.483432
 30
0.0
 10
5.482754
 20
19.449541
 30
0.0
 10
5.500850
 20
19.420960
 30
0.0
 10
5.528603
 20
19.355171
 30
0.0
 10
5.549526
 20
19.327344
 30
0.0
 10
5.578517
 20
19.311379
 30
0.0
 10
5.608059
 20
19.341809
 30
0.0
 10
5.615083
 20
19.382309
 30
0.0
 10
5.604595
 20
19.468091
 30
0.0
 10
5.583992
 20
19.510083
 30
0.0
 10
5.564780
 20
19.523177
 30
0.0
 10
5.541377
 20
19.526793
 30
0.0
 10
5.531668
 20
19.526793
 30
0.0
 10
5.531668
 20
19.526793
 30
0.0
  0
LWPOLYLINE
  5
10f
100
AcDbEntity
  8
Layer_1
 62
7
100
AcDbPolyline
 90
15
 70
0
 10
7.926155
 20
19.524761
 30
0.0
 10
7.894884
 20
19.501583
 30
0.0
 10
7.882911
 20
19.465563
 30
0.0
 10
7.871968
 20
19.386738
 30
0.0
 10
7.868026
 20
19.356409
 30
0.0
 10
7.876350
 20
19.325235
 30
0.0
 10
7.895987
 20
19.304238
 30
0.0
 10
7.925985
 20
19.304442
 30
0.0
 10
7.956674
 20
19.344499
 30
0.0
 10
7.978966
 20
19.389847
 30
0.0
 10
8.006673
 20
19.486673
 30
0.0
 10
7.993326
 20
19.505772
 30
0.0
 10
7.972605
 20
19.515987
 30
0.0
 10
7.926155
 20
19.524761
 30
0.0
 10
7.926155
 20
19.524761
 30
0.0
  0
LWPOLYLINE
  5
110
100
AcDbEntity
  8
Layer_1
 62
7
100
AcDbPolyline
 90
15
 70
0
 10
1.421920
 20
19.509109
 30
0.0
 10
1.417630
 20
19.505692
 30
0.0
 10
1.389695
 20
19.483765
 30
0.0
 10
1.366277
 20
19.454249
 30
0.0
 10
1.357436
 20
19.421362
 30
0.0
 10
1.373237
 20
19.389329
 30
0.0
 10
1.527302
 20
19.286893
 30
0.0
 10
1.607607
 20
19.242153
 30
0.0
 10
1.693898
 20
19.213713
 30
0.0
 10
1.695654
 20
19.231586
 30
0.0
 10
1.684662
 20
19.248791
 30
0.0
 10
1.657943
 20
19.281898
 30
0.0
 10
1.546853
 20
19.402616
 30
0.0
 10
1.421920
 20
19.509109
 30
0.0
 10
1.421920
 20
19.509109
 30
0.0
  0
LWPOLYLINE
  5
111
100
AcDbEntity
  8
Layer_1
 62
7
100
AcDbPolyline
 90
17
 70
0
 10
12.065875
 20
19.482044
 30
0.0
 10
12.055517
 20
19.481762
 30
0.0
 10
11.980228
 20
19.428182
 30
0.0
 10
11.912688
 20
19.364999
 30
0.0
 10
11.787406
 20
19.228312
 30
0.0
 10
11.826362
 20
19.223735
 30
0.0
 10
11.863505
 20
19.227950
 30
0.0
 10
11.933178
 20
19.255949
 30
0.0
 10
12.059835
 20
19.342579
 30
0.0
 10
12.115384
 20
19.375043
 30
0.0
 10
12.138409
 20
19.395884
 30
0.0
 10
12.149723
 20
19.425701
 30
0.0
 10
12.114925
 20
19.439078
 30
0.0
 10
12.100582
 20
19.448684
 30
0.0
 10
12.092996
 20
19.465554
 30
0.0
 10
12.065875
 20
19.482036
 30
0.0
 10
12.065875
 20
19.482044
 30
0.0
  0
LWPOLYLINE
  5
112
100
AcDbEntity
  8
Layer_1
 62
7
100
AcDbPolyline
 90
13
 70
0
 10
2.766935
 20
19.356035
 30
0.0
 10
2.748307
 20
19.351194
 30
0.0
 10
2.736543
 20
19.339636
 30
0.0
 10
2.731488
 20
19.305918
 30
0.0
 10
2.747536
 20
19.273969
 30
0.0
 10
2.762150
 20
19.264624
 30
0.0
 10
2.780453
 20
19.262879
 30
0.0
 10
2.808480
 20
19.275463
 30
0.0
 10
2.820472
 20
19.302142
 30
0.0
 10
2.815553
 20
19.331514
 30
0.0
 10
2.792843
 20
19.352177
 30
0.0
 10
2.766935
 20
19.356035
 30
0.0
 10
2.766935
 20
19.356035
 30
0.0
  0
LWPOLYLINE
  5
113
100
AcDbEntity
  8
Layer_1
 62
7
100
AcDbPolyline
 90
16
 70
0
 10
6.740991
 20
19.349420
 30
0.0
 10
6.704923
 20
19.348912
 30
0.0
 10
6.636008
 20
19.341308
 30
0.0
 10
6.603684
 20
19.329795
 30
0.0
 10
6.575496
 20
19.309776
 30
0.0
 10
6.597151
 20
19.273162
 30
0.0
 10
6.634014
 20
19.255398
 30
0.0
 10
6.677715
 20
19.250863
 30
0.0
 10
6.719880
 20
19.253938
 30
0.0
 10
6.854268
 20
19.254940
 30
0.0
 10
6.920279
 20
19.265827
 30
0.0
 10
6.983532
 20
19.288499
 30
0.0
 10
6.926736
 20
19.316623
 30
0.0
 10
6.866558
 20
19.335281
 30
0.0
 10
6.740991
 20
19.349408
 30
0.0
 10
6.740991
 20
19.349420
 30
0.0
  0
LWPOLYLINE
  5
114
100
AcDbEntity
  8
Layer_1
 62
7
100
AcDbPolyline
 90
18
 70
0
 10
10.611217
 20
19.308300
 30
0.0
 10
10.572765
 20
19.282118
 30
0.0
 10
10.540474
 20
19.247058
 30
0.0
 10
10.484273
 20
19.169063
 30
0.0
 10
10.455367
 20
19.128358
 30
0.0
 10
10.449491
 20
19.106768
 30
0.0
 10
10.461470
 20
19.085553
 30
0.0
 10
10.488641
 20
19.074350
 30
0.0
 10
10.516196
 20
19.079101
 30
0.0
 10
10.541111
 20
19.094809
 30
0.0
 10
10.560360
 20
19.116476
 30
0.0
 10
10.630080
 20
19.170622
 30
0.0
 10
10.660869
 20
19.201308
 30
0.0
 10
10.679035
 20
19.239455
 30
0.0
 10
10.656958
 20
19.286467
 30
0.0
 10
10.636490
 20
19.302362
 30
0.0
 10
10.611217
 20
19.308300
 30
0.0
 10
10.611217
 20
19.308300
 30
0.0
  0
LWPOLYLINE
  5
115
100
AcDbEntity
  8
Layer_1
 62
7
100
AcDbPolyline
 90
13
 70
0
 10
4.340832
 20
19.088917
 30
0.0
 10
4.330305
 20
19.088917
 30
0.0
 10
4.311438
 20
19.085350
 30
0.0
 10
4.298778
 20
19.074539
 30
0.0
 10
4.290921
 20
19.041059
 30
0.0
 10
4.304421
 20
19.008233
 30
0.0
 10
4.318457
 20
18.998238
 30
0.0
 10
4.336965
 20
18.995815
 30
0.0
 10
4.368649
 20
19.010209
 30
0.0
 10
4.378956
 20
19.040904
 30
0.0
 10
4.369235
 20
19.072343
 30
0.0
 10
4.340832
 20
19.088971
 30
0.0
 10
4.340832
 20
19.088917
 30
0.0
  0
LWPOLYLINE
  5
116
100
AcDbEntity
  8
Layer_1
 62
7
100
AcDbPolyline
 90
18
 70
0
 10
9.156672
 20
19.048181
 30
0.0
 10
9.138384
 20
19.036331
 30
0.0
 10
9.120041
 20
19.023328
 30
0.0
 10
9.099317
 20
19.021221
 30
0.0
 10
9.061224
 20
19.040355
 30
0.0
 10
9.030991
 20
19.035861
 30
0.0
 10
9.007701
 20
19.015122
 30
0.0
 10
8.977969
 20
18.957232
 30
0.0
 10
8.958541
 20
18.906411
 30
0.0
 10
8.949477
 20
18.881240
 30
0.0
 10
8.948448
 20
18.855531
 30
0.0
 10
8.967099
 20
18.835752
 30
0.0
 10
8.993198
 20
18.831547
 30
0.0
 10
9.018667
 20
18.841098
 30
0.0
 10
9.035429
 20
18.862586
 30
0.0
 10
9.104432
 20
18.950047
 30
0.0
 10
9.156672
 20
19.048181
 30
0.0
 10
9.156672
 20
19.048181
 30
0.0
  0
LWPOLYLINE
  5
117
100
AcDbEntity
  8
Layer_1
 62
7
100
AcDbPolyline
 90
13
 70
0
 10
4.640467
 20
18.811323
 30
0.0
 10
4.621554
 20
18.806489
 30
0.0
 10
4.609788
 20
18.794543
 30
0.0
 10
4.605390
 20
18.759824
 30
0.0
 10
4.622651
 20
18.728186
 30
0.0
 10
4.637959
 20
18.720092
 30
0.0
 10
4.656949
 20
18.720651
 30
0.0
 10
4.684610
 20
18.738262
 30
0.0
 10
4.691546
 20
18.768799
 30
0.0
 10
4.679321
 20
18.797931
 30
0.0
 10
4.649498
 20
18.811323
 30
0.0
 10
4.640467
 20
18.811323
 30
0.0
 10
4.640467
 20
18.811323
 30
0.0
  0
LWPOLYLINE
  5
118
100
AcDbEntity
  8
Layer_1
 62
7
100
AcDbPolyline
 90
22
 70
0
 10
4.547870
 20
18.749974
 30
0.0
 10
4.535791
 20
18.749692
 30
0.0
 10
4.517717
 20
18.742717
 30
0.0
 10
4.506789
 20
18.727417
 30
0.0
 10
4.506807
 20
18.689830
 30
0.0
 10
4.479738
 20
18.699460
 30
0.0
 10
4.452835
 20
18.691712
 30
0.0
 10
4.434849
 20
18.671019
 30
0.0
 10
4.434530
 20
18.641818
 30
0.0
 10
4.446714
 20
18.615174
 30
0.0
 10
4.471575
 20
18.602588
 30
0.0
 10
4.499192
 20
18.605731
 30
0.0
 10
4.519648
 20
18.626276
 30
0.0
 10
4.525035
 20
18.646894
 30
0.0
 10
4.522188
 20
18.667892
 30
0.0
 10
4.552991
 20
18.659908
 30
0.0
 10
4.579782
 20
18.675970
 30
0.0
 10
4.592149
 20
18.704695
 30
0.0
 10
4.579676
 20
18.734700
 30
0.0
 10
4.547926
 20
18.749912
 30
0.0
 10
4.547926
 20
18.749912
 30
0.0
 10
4.547870
 20
18.749974
 30
0.0
  0
LWPOLYLINE
  5
119
100
AcDbEntity
  8
Layer_1
 62
7
100
AcDbPolyline
 90
14
 70
0
 10
0.733721
 20
18.501542
 30
0.0
 10
0.730250
 20
18.495367
 30
0.0
 10
0.729968
 20
18.494831
 30
0.0
 10
0.714626
 20
18.466315
 30
0.0
 10
0.692937
 20
18.437485
 30
0.0
 10
0.679624
 20
18.407562
 30
0.0
 10
0.689412
 20
18.375770
 30
0.0
 10
0.820678
 20
18.314793
 30
0.0
 10
0.956028
 20
18.263598
 30
0.0
 10
1.073291
 20
18.242045
 30
0.0
 10
0.998143
 20
18.318585
 30
0.0
 10
0.913074
 20
18.383494
 30
0.0
 10
0.733721
 20
18.501556
 30
0.0
 10
0.733721
 20
18.501542
 30
0.0
  0
LWPOLYLINE
  5
11a
100
AcDbEntity
  8
Layer_1
 62
7
100
AcDbPolyline
 90
10
 70
0
 10
14.000000
 20
18.474697
 30
0.0
 10
13.855146
 20
18.400534
 30
0.0
 10
13.716875
 20
18.318594
 30
0.0
 10
13.722375
 20
18.285381
 30
0.0
 10
13.748068
 20
18.265669
 30
0.0
 10
13.782407
 20
18.261119
 30
0.0
 10
13.813846
 20
18.273394
 30
0.0
 10
14.000000
 20
18.340255
 30
0.0
 10
14.000000
 20
18.474697
 30
0.0
 10
14.000000
 20
18.474697
 30
0.0
  0
LWPOLYLINE
  5
11b
100
AcDbEntity
  8
Layer_1
 62
7
100
AcDbPolyline
 90
18
 70
0
 10
12.744591
 20
18.463397
 30
0.0
 10
12.734008
 20
18.463397
 30
0.0
 10
12.605322
 20
18.392690
 30
0.0
 10
12.487007
 20
18.306134
 30
0.0
 10
12.484768
 20
18.275515
 30
0.0
 10
12.505097
 20
18.253592
 30
0.0
 10
12.535735
 20
18.245965
 30
0.0
 10
12.564420
 20
18.258236
 30
0.0
 10
12.699182
 20
18.314463
 30
0.0
 10
12.765723
 20
18.344046
 30
0.0
 10
12.828270
 20
18.379998
 30
0.0
 10
12.829938
 20
18.397123
 30
0.0
 10
12.816893
 20
18.405386
 30
0.0
 10
12.783143
 20
18.412907
 30
0.0
 10
12.768714
 20
18.443712
 30
0.0
 10
12.758735
 20
18.456607
 30
0.0
 10
12.744591
 20
18.463453
 30
0.0
 10
12.744591
 20
18.463397
 30
0.0
  0
LWPOLYLINE
  5
11c
100
AcDbEntity
  8
Layer_1
 62
7
100
AcDbPolyline
 90
27
 70
0
 10
2.067221
 20
18.449673
 30
0.0
 10
2.065810
 20
18.442727
 30
0.0
 10
2.064964
 20
18.438262
 30
0.0
 10
2.060185
 20
18.407465
 30
0.0
 10
2.044640
 20
18.379248
 30
0.0
 10
2.031694
 20
18.350966
 30
0.0
 10
2.034709
 20
18.319972
 30
0.0
 10
2.181553
 20
18.234088
 30
0.0
 10
2.260535
 20
18.203063
 30
0.0
 10
2.341965
 20
18.183105
 30
0.0
 10
2.317126
 20
18.132317
 30
0.0
 10
2.300393
 20
18.078209
 30
0.0
 10
2.331140
 20
18.077265
 30
0.0
 10
2.359827
 20
18.084733
 30
0.0
 10
2.408661
 20
18.119333
 30
0.0
 10
2.442181
 20
18.170867
 30
0.0
 10
2.455672
 20
18.228193
 30
0.0
 10
2.435003
 20
18.247386
 30
0.0
 10
2.408516
 20
18.244613
 30
0.0
 10
2.361466
 20
18.209010
 30
0.0
 10
2.349994
 20
18.195589
 30
0.0
 10
2.338627
 20
18.202189
 30
0.0
 10
2.315069
 20
18.231060
 30
0.0
 10
2.195714
 20
18.345385
 30
0.0
 10
2.067278
 20
18.449673
 30
0.0
 10
2.067278
 20
18.449673
 30
0.0
 10
2.067221
 20
18.449673
 30
0.0
  0
LWPOLYLINE
  5
11d
100
AcDbEntity
  8
Layer_1
 62
7
100
AcDbPolyline
 90
14
 70
0
 10
11.393142
 20
18.378677
 30
0.0
 10
11.272160
 20
18.286161
 30
0.0
 10
11.162820
 20
18.179688
 30
0.0
 10
11.197628
 20
18.170560
 30
0.0
 10
11.231657
 20
18.170346
 30
0.0
 10
11.297550
 20
18.189214
 30
0.0
 10
11.421844
 20
18.252007
 30
0.0
 10
11.442654
 20
18.263395
 30
0.0
 10
11.454725
 20
18.280915
 30
0.0
 10
11.456187
 20
18.324628
 30
0.0
 10
11.433302
 20
18.363697
 30
0.0
 10
11.414939
 20
18.375414
 30
0.0
 10
11.393142
 20
18.378677
 30
0.0
 10
11.393142
 20
18.378677
 30
0.0
  0
LWPOLYLINE
  5
11e
100
AcDbEntity
  8
Layer_1
 62
7
100
AcDbPolyline
 90
13
 70
0
 10
3.389207
 20
18.297481
 30
0.0
 10
3.377579
 20
18.297481
 30
0.0
 10
3.350536
 20
18.288720
 30
0.0
 10
3.339119
 20
18.265216
 30
0.0
 10
3.342424
 20
18.237105
 30
0.0
 10
3.359545
 20
18.214525
 30
0.0
 10
3.374523
 20
18.205066
 30
0.0
 10
3.389783
 20
18.203846
 30
0.0
 10
3.416215
 20
18.219725
 30
0.0
 10
3.428974
 20
18.249375
 30
0.0
 10
3.418191
 20
18.280009
 30
0.0
 10
3.389207
 20
18.297591
 30
0.0
 10
3.389207
 20
18.297481
 30
0.0
  0
LWPOLYLINE
  5
11f
100
AcDbEntity
  8
Layer_1
 62
7
100
AcDbPolyline
 90
17
 70
0
 10
9.991513
 20
18.277362
 30
0.0
 10
9.948330
 20
18.251653
 30
0.0
 10
9.914251
 20
18.214710
 30
0.0
 10
9.857712
 20
18.130795
 30
0.0
 10
9.862492
 20
18.103218
 30
0.0
 10
9.884417
 20
18.087300
 30
0.0
 10
9.912639
 20
18.085744
 30
0.0
 10
9.936311
 20
18.101249
 30
0.0
 10
10.023270
 20
18.163537
 30
0.0
 10
10.059913
 20
18.202270
 30
0.0
 10
10.089275
 20
18.247102
 30
0.0
 10
10.052703
 20
18.238155
 30
0.0
 10
10.036725
 20
18.246116
 30
0.0
 10
10.024618
 20
18.261927
 30
0.0
 10
10.009748
 20
18.273790
 30
0.0
 10
9.991513
 20
18.277362
 30
0.0
 10
9.991513
 20
18.277362
 30
0.0
  0
LWPOLYLINE
  5
120
100
AcDbEntity
  8
Layer_1
 62
7
100
AcDbPolyline
 90
14
 70
0
 10
6.168390
 20
18.241754
 30
0.0
 10
6.149629
 20
18.238469
 30
0.0
 10
6.137241
 20
18.227841
 30
0.0
 10
6.130149
 20
18.194627
 30
0.0
 10
6.144244
 20
18.162252
 30
0.0
 10
6.158341
 20
18.152674
 30
0.0
 10
6.176659
 20
18.150859
 30
0.0
 10
6.194813
 20
18.156127
 30
0.0
 10
6.206966
 20
18.167424
 30
0.0
 10
6.214308
 20
18.199527
 30
0.0
 10
6.200757
 20
18.230020
 30
0.0
 10
6.186796
 20
18.239303
 30
0.0
 10
6.168390
 20
18.241754
 30
0.0
 10
6.168390
 20
18.241754
 30
0.0
  0
LWPOLYLINE
  5
121
100
AcDbEntity
  8
Layer_1
 62
7
100
AcDbPolyline
 90
14
 70
0
 10
11.062772
 20
18.226429
 30
0.0
 10
11.059047
 20
18.223663
 30
0.0
 10
11.035722
 20
18.199943
 30
0.0
 10
11.033651
 20
18.168876
 30
0.0
 10
11.046105
 20
18.137009
 30
0.0
 10
11.066357
 20
18.110885
 30
0.0
 10
11.091370
 20
18.074733
 30
0.0
 10
11.123228
 20
18.044649
 30
0.0
 10
11.197562
 20
17.997445
 30
0.0
 10
11.183950
 20
18.065051
 30
0.0
 10
11.157948
 20
18.129442
 30
0.0
 10
11.118056
 20
18.185079
 30
0.0
 10
11.062772
 20
18.226421
 30
0.0
 10
11.062772
 20
18.226429
 30
0.0
  0
LWPOLYLINE
  5
122
100
AcDbEntity
  8
Layer_1
 62
7
100
AcDbPolyline
 90
13
 70
0
 10
6.393434
 20
18.186193
 30
0.0
 10
6.383838
 20
18.186193
 30
0.0
 10
6.365174
 20
18.180897
 30
0.0
 10
6.353740
 20
18.168771
 30
0.0
 10
6.350064
 20
18.134263
 30
0.0
 10
6.367797
 20
18.103147
 30
0.0
 10
6.383126
 20
18.095261
 30
0.0
 10
6.401929
 20
18.095901
 30
0.0
 10
6.429304
 20
18.114331
 30
0.0
 10
6.434681
 20
18.143819
 30
0.0
 10
6.421558
 20
18.171949
 30
0.0
 10
6.393434
 20
18.186303
 30
0.0
 10
6.393434
 20
18.186193
 30
0.0
  0
LWPOLYLINE
  5
123
100
AcDbEntity
  8
Layer_1
 62
7
100
AcDbPolyline
 90
19
 70
0
 10
7.084991
 20
18.184979
 30
0.0
 10
7.058307
 20
18.176321
 30
0.0
 10
7.044916
 20
18.151685
 30
0.0
 10
7.018958
 20
18.162961
 30
0.0
 10
6.991710
 20
18.157895
 30
0.0
 10
6.972240
 20
18.139498
 30
0.0
 10
6.969619
 20
18.110783
 30
0.0
 10
6.979653
 20
18.083366
 30
0.0
 10
7.003327
 20
18.069134
 30
0.0
 10
7.030996
 20
18.070256
 30
0.0
 10
7.053016
 20
18.088902
 30
0.0
 10
7.060766
 20
18.101619
 30
0.0
 10
7.075565
 20
18.092980
 30
0.0
 10
7.108591
 20
18.094786
 30
0.0
 10
7.129653
 20
18.118823
 30
0.0
 10
7.133168
 20
18.151215
 30
0.0
 10
7.113552
 20
18.178087
 30
0.0
 10
7.084991
 20
18.184979
 30
0.0
 10
7.084991
 20
18.184979
 30
0.0
  0
LWPOLYLINE
  5
124
100
AcDbEntity
  8
Layer_1
 62
7
100
AcDbPolyline
 90
14
 70
0
 10
3.562576
 20
17.874698
 30
0.0
 10
3.543507
 20
17.871444
 30
0.0
 10
3.530404
 20
17.860815
 30
0.0
 10
3.521294
 20
17.827345
 30
0.0
 10
3.533636
 20
17.794111
 30
0.0
 10
3.547349
 20
17.783777
 30
0.0
 10
3.565821
 20
17.780936
 30
0.0
 10
3.585107
 20
17.785607
 30
0.0
 10
3.598560
 20
17.796803
 30
0.0
 10
3.608384
 20
17.829751
 30
0.0
 10
3.596115
 20
17.861731
 30
0.0
 10
3.581953
 20
17.871719
 30
0.0
 10
3.562576
 20
17.874698
 30
0.0
 10
3.562576
 20
17.874698
 30
0.0
  0
LWPOLYLINE
  5
125
100
AcDbEntity
  8
Layer_1
 62
7
100
AcDbPolyline
 90
25
 70
0
 10
5.313341
 20
17.847743
 30
0.0
 10
5.294426
 20
17.844267
 30
0.0
 10
5.281603
 20
17.833592
 30
0.0
 10
5.273241
 20
17.800335
 30
0.0
 10
5.286263
 20
17.767355
 30
0.0
 10
5.300170
 20
17.757027
 30
0.0
 10
5.318675
 20
17.754037
 30
0.0
 10
5.345113
 20
17.764050
 30
0.0
 10
5.358638
 20
17.779395
 30
0.0
 10
5.359620
 20
17.749227
 30
0.0
 10
5.377226
 20
17.725592
 30
0.0
 10
5.403727
 20
17.716111
 30
0.0
 10
5.431395
 20
17.728406
 30
0.0
 10
5.441951
 20
17.743441
 30
0.0
 10
5.444479
 20
17.759765
 30
0.0
 10
5.431077
 20
17.790074
 30
0.0
 10
5.402447
 20
17.806912
 30
0.0
 10
5.385938
 20
17.806399
 30
0.0
 10
5.369842
 20
17.797861
 30
0.0
 10
5.363370
 20
17.790634
 30
0.0
 10
5.362938
 20
17.797241
 30
0.0
 10
5.359485
 20
17.821285
 30
0.0
 10
5.340710
 20
17.841859
 30
0.0
 10
5.313341
 20
17.847743
 30
0.0
 10
5.313341
 20
17.847743
 30
0.0
  0
LWPOLYLINE
  5
126
100
AcDbEntity
  8
Layer_1
 62
7
100
AcDbPolyline
 90
15
 70
0
 10
8.355499
 20
17.835286
 30
0.0
 10
8.345960
 20
17.835286
 30
0.0
 10
8.336703
 20
17.835286
 30
0.0
 10
8.319508
 20
17.828525
 30
0.0
 10
8.308944
 20
17.815713
 30
0.0
 10
8.305677
 20
17.781381
 30
0.0
 10
8.322840
 20
17.751182
 30
0.0
 10
8.337815
 20
17.743536
 30
0.0
 10
8.356374
 20
17.744007
 30
0.0
 10
8.383468
 20
17.760393
 30
0.0
 10
8.391426
 20
17.790421
 30
0.0
 10
8.381647
 20
17.820103
 30
0.0
 10
8.355528
 20
17.835453
 30
0.0
 10
8.355528
 20
17.835453
 30
0.0
 10
8.355499
 20
17.835286
 30
0.0
  0
LWPOLYLINE
  5
127
100
AcDbEntity
  8
Layer_1
 62
7
100
AcDbPolyline
 90
13
 70
0
 10
5.120894
 20
17.834637
 30
0.0
 10
5.111637
 20
17.833762
 30
0.0
 10
5.093755
 20
17.826976
 30
0.0
 10
5.083447
 20
17.813845
 30
0.0
 10
5.082434
 20
17.778923
 30
0.0
 10
5.102366
 20
17.749744
 30
0.0
 10
5.118238
 20
17.743792
 30
0.0
 10
5.137009
 20
17.747058
 30
0.0
 10
5.161681
 20
17.767239
 30
0.0
 10
5.164332
 20
17.796471
 30
0.0
 10
5.149292
 20
17.822894
 30
0.0
 10
5.120894
 20
17.834645
 30
0.0
 10
5.120894
 20
17.834637
 30
0.0
  0
LWPOLYLINE
  5
128
100
AcDbEntity
  8
Layer_1
 62
7
100
AcDbPolyline
 90
15
 70
0
 10
8.234624
 20
17.814464
 30
0.0
 10
8.225621
 20
17.814464
 30
0.0
 10
8.207767
 20
17.807887
 30
0.0
 10
8.196476
 20
17.795316
 30
0.0
 10
8.191814
 20
17.761173
 30
0.0
 10
8.208091
 20
17.730001
 30
0.0
 10
8.222974
 20
17.721143
 30
0.0
 10
8.241764
 20
17.719764
 30
0.0
 10
8.259949
 20
17.725452
 30
0.0
 10
8.272474
 20
17.737392
 30
0.0
 10
8.280961
 20
17.771048
 30
0.0
 10
8.268065
 20
17.802764
 30
0.0
 10
8.253860
 20
17.812280
 30
0.0
 10
8.234624
 20
17.814574
 30
0.0
 10
8.234624
 20
17.814464
 30
0.0
  0
LWPOLYLINE
  5
129
100
AcDbEntity
  8
Layer_1
 62
7
100
AcDbPolyline
 90
14
 70
0
 10
9.972858
 20
17.774445
 30
0.0
 10
9.963235
 20
17.774162
 30
0.0
 10
9.944467
 20
17.768597
 30
0.0
 10
9.932483
 20
17.756082
 30
0.0
 10
9.927064
 20
17.720439
 30
0.0
 10
9.943379
 20
17.687708
 30
0.0
 10
9.958561
 20
17.678832
 30
0.0
 10
9.977826
 20
17.678362
 30
0.0
 10
10.007332
 20
17.693022
 30
0.0
 10
10.017792
 20
17.722712
 30
0.0
 10
10.009397
 20
17.753819
 30
0.0
 10
9.982341
 20
17.772729
 30
0.0
 10
9.972858
 20
17.774394
 30
0.0
 10
9.972858
 20
17.774445
 30
0.0
  0
LWPOLYLINE
  5
12a
100
AcDbEntity
  8
Layer_1
 62
7
100
AcDbPolyline
 90
14
 70
0
 10
2.224814
 20
17.735475
 30
0.0
 10
2.214908
 20
17.735475
 30
0.0
 10
2.196843
 20
17.731229
 30
0.0
 10
2.185005
 20
17.719972
 30
0.0
 10
2.178653
 20
17.686586
 30
0.0
 10
2.193124
 20
17.655637
 30
0.0
 10
2.207315
 20
17.647426
 30
0.0
 10
2.225689
 20
17.647445
 30
0.0
 10
2.254334
 20
17.663431
 30
0.0
 10
2.262572
 20
17.692384
 30
0.0
 10
2.252157
 20
17.720903
 30
0.0
 10
2.224842
 20
17.735585
 30
0.0
 10
2.224842
 20
17.735585
 30
0.0
 10
2.224814
 20
17.735475
 30
0.0
  0
LWPOLYLINE
  5
12b
100
AcDbEntity
  8
Layer_1
 62
7
100
AcDbPolyline
 90
14
 70
0
 10
13.903085
 20
17.555722
 30
0.0
 10
13.883017
 20
17.551881
 30
0.0
 10
13.869702
 20
17.540389
 30
0.0
 10
13.861845
 20
17.504947
 30
0.0
 10
13.876542
 20
17.470377
 30
0.0
 10
13.891419
 20
17.459976
 30
0.0
 10
13.910818
 20
17.457661
 30
0.0
 10
13.930197
 20
17.463550
 30
0.0
 10
13.943312
 20
17.475752
 30
0.0
 10
13.951656
 20
17.510110
 30
0.0
 10
13.937647
 20
17.542759
 30
0.0
 10
13.922823
 20
17.552825
 30
0.0
 10
13.903085
 20
17.555722
 30
0.0
 10
13.903085
 20
17.555722
 30
0.0
  0
LWPOLYLINE
  5
12c
100
AcDbEntity
  8
Layer_1
 62
7
100
AcDbPolyline
 90
14
 70
0
 10
13.284454
 20
17.405792
 30
0.0
 10
13.265159
 20
17.402775
 30
0.0
 10
13.251746
 20
17.392243
 30
0.0
 10
13.241927
 20
17.358562
 30
0.0
 10
13.253724
 20
17.324600
 30
0.0
 10
13.267331
 20
17.313719
 30
0.0
 10
13.285865
 20
17.310212
 30
0.0
 10
13.305456
 20
17.314848
 30
0.0
 10
13.319431
 20
17.326119
 30
0.0
 10
13.330467
 20
17.359474
 30
0.0
 10
13.318849
 20
17.392093
 30
0.0
 10
13.304507
 20
17.402444
 30
0.0
 10
13.284454
 20
17.405792
 30
0.0
 10
13.284454
 20
17.405792
 30
0.0
  0
LWPOLYLINE
  5
12d
100
AcDbEntity
  8
Layer_1
 62
7
100
AcDbPolyline
 90
14
 70
0
 10
12.040531
 20
17.369907
 30
0.0
 10
12.030061
 20
17.369569
 30
0.0
 10
12.011905
 20
17.364348
 30
0.0
 10
12.000102
 20
17.352441
 30
0.0
 10
11.994095
 20
17.318257
 30
0.0
 10
12.009134
 20
17.286400
 30
0.0
 10
12.023636
 20
17.277400
 30
0.0
 10
12.042309
 20
17.276249
 30
0.0
 10
12.071878
 20
17.293370
 30
0.0
 10
12.080335
 20
17.324340
 30
0.0
 10
12.069356
 20
17.354677
 30
0.0
 10
12.040616
 20
17.369902
 30
0.0
 10
12.040616
 20
17.369902
 30
0.0
 10
12.040531
 20
17.369907
 30
0.0
  0
LWPOLYLINE
  5
12e
100
AcDbEntity
  8
Layer_1
 62
7
100
AcDbPolyline
 90
14
 70
0
 10
0.249146
 20
17.366216
 30
0.0
 10
0.246013
 20
17.361751
 30
0.0
 10
0.208506
 20
17.306239
 30
0.0
 10
0.202143
 20
17.275480
 30
0.0
 10
0.217904
 20
17.247098
 30
0.0
 10
0.262990
 20
17.230405
 30
0.0
 10
0.309690
 20
17.220282
 30
0.0
 10
0.402618
 20
17.198203
 30
0.0
 10
0.508709
 20
17.182771
 30
0.0
 10
0.615922
 20
17.183762
 30
0.0
 10
0.531173
 20
17.242146
 30
0.0
 10
0.440387
 20
17.290213
 30
0.0
 10
0.249146
 20
17.366216
 30
0.0
 10
0.249146
 20
17.366216
 30
0.0
  0
LWPOLYLINE
  5
12f
100
AcDbEntity
  8
Layer_1
 62
7
100
AcDbPolyline
 90
13
 70
0
 10
10.753513
 20
17.362025
 30
0.0
 10
10.743128
 20
17.361573
 30
0.0
 10
10.724871
 20
17.356282
 30
0.0
 10
10.713223
 20
17.344319
 30
0.0
 10
10.707998
 20
17.310199
 30
0.0
 10
10.723951
 20
17.278849
 30
0.0
 10
10.738774
 20
17.270350
 30
0.0
 10
10.757577
 20
17.269907
 30
0.0
 10
10.786335
 20
17.287868
 30
0.0
 10
10.793942
 20
17.318341
 30
0.0
 10
10.782350
 20
17.347624
 30
0.0
 10
10.753513
 20
17.362016
 30
0.0
 10
10.753513
 20
17.362025
 30
0.0
  0
LWPOLYLINE
  5
130
100
AcDbEntity
  8
Layer_1
 62
7
100
AcDbPolyline
 90
25
 70
0
 10
1.492476
 20
17.357286
 30
0.0
 10
1.490218
 20
17.350561
 30
0.0
 10
1.490218
 20
17.349855
 30
0.0
 10
1.489936
 20
17.349855
 30
0.0
 10
1.463975
 20
17.285072
 30
0.0
 10
1.461444
 20
17.252728
 30
0.0
 10
1.482231
 20
17.225666
 30
0.0
 10
1.636765
 20
17.182079
 30
0.0
 10
1.715494
 20
17.167781
 30
0.0
 10
1.795639
 20
17.164977
 30
0.0
 10
1.789624
 20
17.137158
 30
0.0
 10
1.797435
 20
17.108519
 30
0.0
 10
1.816447
 20
17.088955
 30
0.0
 10
1.844040
 20
17.088360
 30
0.0
 10
1.870833
 20
17.113591
 30
0.0
 10
1.884479
 20
17.150070
 30
0.0
 10
1.879493
 20
17.185361
 30
0.0
 10
1.868299
 20
17.198677
 30
0.0
 10
1.850390
 20
17.207034
 30
0.0
 10
1.820210
 20
17.198643
 30
0.0
 10
1.799618
 20
17.173687
 30
0.0
 10
1.729303
 20
17.229589
 30
0.0
 10
1.653339
 20
17.277329
 30
0.0
 10
1.492476
 20
17.357298
 30
0.0
 10
1.492476
 20
17.357286
 30
0.0
  0
LWPOLYLINE
  5
131
100
AcDbEntity
  8
Layer_1
 62
7
100
AcDbPolyline
 90
12
 70
0
 10
2.758017
 20
17.332425
 30
0.0
 10
2.756606
 20
17.325590
 30
0.0
 10
2.755759
 20
17.322009
 30
0.0
 10
2.747926
 20
17.289808
 30
0.0
 10
2.734412
 20
17.256105
 30
0.0
 10
2.728926
 20
17.222943
 30
0.0
 10
2.745176
 20
17.192361
 30
0.0
 10
2.874077
 20
17.148083
 30
0.0
 10
2.941053
 20
17.141853
 30
0.0
 10
3.007275
 20
17.157470
 30
0.0
 10
2.758017
 20
17.332425
 30
0.0
 10
2.758017
 20
17.332425
 30
0.0
  0
LWPOLYLINE
  5
132
100
AcDbEntity
  8
Layer_1
 62
7
100
AcDbPolyline
 90
14
 70
0
 10
3.200795
 20
17.277358
 30
0.0
 10
3.186261
 20
17.266941
 30
0.0
 10
3.110662
 20
17.209533
 30
0.0
 10
3.051814
 20
17.135518
 30
0.0
 10
3.010687
 20
17.049963
 30
0.0
 10
2.988254
 20
16.957931
 30
0.0
 10
3.006262
 20
16.931634
 30
0.0
 10
3.036757
 20
16.927365
 30
0.0
 10
3.065394
 20
16.941768
 30
0.0
 10
3.077831
 20
16.971489
 30
0.0
 10
3.151346
 20
17.119925
 30
0.0
 10
3.181292
 20
17.196891
 30
0.0
 10
3.200795
 20
17.277358
 30
0.0
 10
3.200795
 20
17.277358
 30
0.0
  0
LWPOLYLINE
  5
133
100
AcDbEntity
  8
Layer_1
 62
7
100
AcDbPolyline
 90
15
 70
0
 10
4.523542
 20
17.146447
 30
0.0
 10
4.519478
 20
17.145797
 30
0.0
 10
4.447509
 20
17.112503
 30
0.0
 10
4.382530
 20
17.066340
 30
0.0
 10
4.328240
 20
17.008505
 30
0.0
 10
4.288338
 20
16.940193
 30
0.0
 10
4.292916
 20
16.911781
 30
0.0
 10
4.313657
 20
16.891840
 30
0.0
 10
4.340690
 20
16.886912
 30
0.0
 10
4.364143
 20
16.903538
 30
0.0
 10
4.462283
 20
17.013239
 30
0.0
 10
4.504363
 20
17.073062
 30
0.0
 10
4.532715
 20
17.139953
 30
0.0
 10
4.523542
 20
17.146458
 30
0.0
 10
4.523542
 20
17.146447
 30
0.0
  0
LWPOLYLINE
  5
134
100
AcDbEntity
  8
Layer_1
 62
7
100
AcDbPolyline
 90
12
 70
0
 10
9.172787
 20
17.074237
 30
0.0
 10
9.153997
 20
17.070534
 30
0.0
 10
9.141855
 20
17.059367
 30
0.0
 10
9.135794
 20
17.025343
 30
0.0
 10
9.151165
 20
16.993565
 30
0.0
 10
9.165812
 20
16.985207
 30
0.0
 10
9.184527
 20
16.985436
 30
0.0
 10
9.214252
 20
17.003933
 30
0.0
 10
9.220779
 20
17.035309
 30
0.0
 10
9.206244
 20
17.063949
 30
0.0
 10
9.172787
 20
17.074237
 30
0.0
 10
9.172787
 20
17.074237
 30
0.0
  0
LWPOLYLINE
  5
135
100
AcDbEntity
  8
Layer_1
 62
7
100
AcDbPolyline
 90
12
 70
0
 10
6.719485
 20
17.070156
 30
0.0
 10
6.658081
 20
17.057320
 30
0.0
 10
6.599347
 20
17.035584
 30
0.0
 10
6.489136
 20
16.975459
 30
0.0
 10
6.699631
 20
16.961552
 30
0.0
 10
6.910550
 20
16.966860
 30
0.0
 10
6.899371
 20
17.011993
 30
0.0
 10
6.866498
 20
17.041989
 30
0.0
 10
6.822138
 20
17.059307
 30
0.0
 10
6.776494
 20
17.066408
 30
0.0
 10
6.719485
 20
17.070156
 30
0.0
 10
6.719485
 20
17.070156
 30
0.0
  0
LWPOLYLINE
  5
136
100
AcDbEntity
  8
Layer_1
 62
7
100
AcDbPolyline
 90
13
 70
0
 10
9.245826
 20
16.807227
 30
0.0
 10
9.227351
 20
16.804448
 30
0.0
 10
9.214241
 20
16.794721
 30
0.0
 10
9.203736
 20
16.763118
 30
0.0
 10
9.213556
 20
16.729812
 30
0.0
 10
9.242947
 20
16.712197
 30
0.0
 10
9.264639
 20
16.714030
 30
0.0
 10
9.280548
 20
16.724135
 30
0.0
 10
9.294393
 20
16.758357
 30
0.0
 10
9.283234
 20
16.793256
 30
0.0
 10
9.267889
 20
16.804208
 30
0.0
 10
9.245826
 20
16.807227
 30
0.0
 10
9.245826
 20
16.807227
 30
0.0
  0
LWPOLYLINE
  5
137
100
AcDbEntity
  8
Layer_1
 62
7
100
AcDbPolyline
 90
14
 70
0
 10
10.589119
 20
16.653548
 30
0.0
 10
10.569796
 20
16.650316
 30
0.0
 10
10.556406
 20
16.639796
 30
0.0
 10
10.546659
 20
16.606361
 30
0.0
 10
10.558353
 20
16.572184
 30
0.0
 10
10.571765
 20
16.560735
 30
0.0
 10
10.589966
 20
16.556204
 30
0.0
 10
10.610609
 20
16.559887
 30
0.0
 10
10.625238
 20
16.570921
 30
0.0
 10
10.636627
 20
16.605192
 30
0.0
 10
10.624474
 20
16.639304
 30
0.0
 10
10.609675
 20
16.650142
 30
0.0
 10
10.589119
 20
16.653548
 30
0.0
 10
10.589119
 20
16.653548
 30
0.0
  0
LWPOLYLINE
  5
138
100
AcDbEntity
  8
Layer_1
 62
7
100
AcDbPolyline
 90
13
 70
0
 10
2.730952
 20
16.188212
 30
0.0
 10
2.720538
 20
16.187873
 30
0.0
 10
2.701054
 20
16.182822
 30
0.0
 10
2.688500
 20
16.170297
 30
0.0
 10
2.682448
 20
16.133780
 30
0.0
 10
2.698912
 20
16.100221
 30
0.0
 10
2.714503
 20
16.091395
 30
0.0
 10
2.734423
 20
16.091522
 30
0.0
 10
2.763920
 20
16.109871
 30
0.0
 10
2.771793
 20
16.141743
 30
0.0
 10
2.760113
 20
16.172676
 30
0.0
 10
2.730952
 20
16.188206
 30
0.0
 10
2.730952
 20
16.188212
 30
0.0
  0
LWPOLYLINE
  5
139
100
AcDbEntity
  8
Layer_1
 62
7
100
AcDbPolyline
 90
24
 70
0
 10
1.147516
 20
16.181930
 30
0.0
 10
1.146387
 20
16.174984
 30
0.0
 10
1.146387
 20
16.174166
 30
0.0
 10
1.132533
 20
16.105393
 30
0.0
 10
1.137382
 20
16.072394
 30
0.0
 10
1.161457
 20
16.048376
 30
0.0
 10
1.313681
 20
16.038277
 30
0.0
 10
1.389978
 20
16.039830
 30
0.0
 10
1.464846
 20
16.051244
 30
0.0
 10
1.470273
 20
16.032084
 30
0.0
 10
1.482734
 20
16.018911
 30
0.0
 10
1.518924
 20
16.009978
 30
0.0
 10
1.553742
 20
16.023359
 30
0.0
 10
1.564490
 20
16.038078
 30
0.0
 10
1.567519
 20
16.057969
 30
0.0
 10
1.553637
 20
16.085930
 30
0.0
 10
1.524497
 20
16.099015
 30
0.0
 10
1.492315
 20
16.095697
 30
0.0
 10
1.469305
 20
16.074451
 30
0.0
 10
1.392667
 20
16.111230
 30
0.0
 10
1.312083
 20
16.138004
 30
0.0
 10
1.147600
 20
16.181938
 30
0.0
 10
1.147600
 20
16.181938
 30
0.0
 10
1.147516
 20
16.181930
 30
0.0
  0
LWPOLYLINE
  5
13a
100
AcDbEntity
  8
Layer_1
 62
7
100
AcDbPolyline
 90
9
 70
0
 10
0.000000
 20
16.169636
 30
0.0
 10
0.000000
 20
16.044180
 30
0.0
 10
0.180315
 20
16.035563
 30
0.0
 10
0.270054
 20
16.040442
 30
0.0
 10
0.358789
 20
16.056967
 30
0.0
 10
0.274082
 20
16.098898
 30
0.0
 10
0.184538
 20
16.127973
 30
0.0
 10
0.000000
 20
16.169636
 30
0.0
 10
0.000000
 20
16.169636
 30
0.0
  0
LWPOLYLINE
  5
13b
100
AcDbEntity
  8
Layer_1
 62
7
100
AcDbPolyline
 90
15
 70
0
 10
2.331438
 20
16.160653
 30
0.0
 10
2.330873
 20
16.153761
 30
0.0
 10
2.322001
 20
16.086310
 30
0.0
 10
2.332679
 20
16.055996
 30
0.0
 10
2.360817
 20
16.038281
 30
0.0
 10
2.431698
 20
16.033779
 30
0.0
 10
2.503639
 20
16.035414
 30
0.0
 10
2.572411
 20
16.050678
 30
0.0
 10
2.633782
 20
16.087063
 30
0.0
 10
2.556939
 20
16.100342
 30
0.0
 10
2.482839
 20
16.125413
 30
0.0
 10
2.408639
 20
16.149706
 30
0.0
 10
2.331494
 20
16.160653
 30
0.0
 10
2.331494
 20
16.160653
 30
0.0
 10
2.331438
 20
16.160653
 30
0.0
  0
LWPOLYLINE
  5
13c
100
AcDbEntity
  8
Layer_1
 62
7
100
AcDbPolyline
 90
15
 70
0
 10
13.497165
 20
16.155028
 30
0.0
 10
13.304033
 20
16.111078
 30
0.0
 10
13.209994
 20
16.081254
 30
0.0
 10
13.121696
 20
16.036684
 30
0.0
 10
13.236834
 20
16.019398
 30
0.0
 10
13.353016
 20
16.017503
 30
0.0
 10
13.585754
 20
16.029738
 30
0.0
 10
13.584251
 20
16.052452
 30
0.0
 10
13.566405
 20
16.065943
 30
0.0
 10
13.548341
 20
16.078695
 30
0.0
 10
13.546187
 20
16.099190
 30
0.0
 10
13.533423
 20
16.138263
 30
0.0
 10
13.517723
 20
16.151113
 30
0.0
 10
13.497165
 20
16.155031
 30
0.0
 10
13.497165
 20
16.155028
 30
0.0
  0
LWPOLYLINE
  5
13d
100
AcDbEntity
  8
Layer_1
 62
7
100
AcDbPolyline
 90
13
 70
0
 10
11.100336
 20
16.141084
 30
0.0
 10
10.966404
 20
16.095023
 30
0.0
 10
10.843119
 20
16.025824
 30
0.0
 10
10.941761
 20
16.014218
 30
0.0
 10
11.041010
 20
16.013785
 30
0.0
 10
11.139787
 20
16.023948
 30
0.0
 10
11.237016
 20
16.044126
 30
0.0
 10
11.174060
 20
16.063142
 30
0.0
 10
11.149426
 20
16.080965
 30
0.0
 10
11.142557
 20
16.112144
 30
0.0
 10
11.125913
 20
16.133352
 30
0.0
 10
11.100336
 20
16.141084
 30
0.0
 10
11.100336
 20
16.141084
 30
0.0
  0
LWPOLYLINE
  5
13e
100
AcDbEntity
  8
Layer_1
 62
7
100
AcDbPolyline
 90
16
 70
0
 10
12.288633
 20
16.126696
 30
0.0
 10
12.127286
 20
16.081958
 30
0.0
 10
12.049309
 20
16.052085
 30
0.0
 10
11.976523
 20
16.010666
 30
0.0
 10
12.076632
 20
15.996023
 30
0.0
 10
12.177617
 20
15.993769
 30
0.0
 10
12.379706
 20
16.006311
 30
0.0
 10
12.380119
 20
16.026197
 30
0.0
 10
12.366879
 20
16.038407
 30
0.0
 10
12.349575
 20
16.048281
 30
0.0
 10
12.337796
 20
16.061158
 30
0.0
 10
12.338159
 20
16.084766
 30
0.0
 10
12.329079
 20
16.106951
 30
0.0
 10
12.312067
 20
16.122624
 30
0.0
 10
12.288633
 20
16.126696
 30
0.0
 10
12.288633
 20
16.126696
 30
0.0
  0
LWPOLYLINE
  5
13f
100
AcDbEntity
  8
Layer_1
 62
7
100
AcDbPolyline
 90
15
 70
0
 10
8.340344
 20
16.071465
 30
0.0
 10
8.325950
 20
16.048192
 30
0.0
 10
8.328995
 20
16.020654
 30
0.0
 10
8.349544
 20
15.965135
 30
0.0
 10
8.395712
 20
15.825178
 30
0.0
 10
8.428709
 20
15.759280
 30
0.0
 10
8.469969
 20
15.698127
 30
0.0
 10
8.478733
 20
15.800048
 30
0.0
 10
8.469577
 20
15.904259
 30
0.0
 10
8.455196
 20
15.953191
 30
0.0
 10
8.432635
 20
15.997857
 30
0.0
 10
8.400660
 20
16.036643
 30
0.0
 10
8.358039
 20
16.067937
 30
0.0
 10
8.340344
 20
16.071465
 30
0.0
 10
8.340344
 20
16.071465
 30
0.0
  0
LWPOLYLINE
  5
140
100
AcDbEntity
  8
Layer_1
 62
7
100
AcDbPolyline
 90
15
 70
0
 10
5.081044
 20
16.028141
 30
0.0
 10
5.072070
 20
16.027633
 30
0.0
 10
5.031700
 20
15.999520
 30
0.0
 10
5.009995
 20
15.954680
 30
0.0
 10
5.007657
 20
15.904148
 30
0.0
 10
5.025390
 20
15.858960
 30
0.0
 10
5.058541
 20
15.857183
 30
0.0
 10
5.083627
 20
15.876419
 30
0.0
 10
5.099971
 20
15.907045
 30
0.0
 10
5.106896
 20
15.939439
 30
0.0
 10
5.117656
 20
15.965347
 30
0.0
 10
5.117666
 20
15.994153
 30
0.0
 10
5.105828
 20
16.017774
 30
0.0
 10
5.081044
 20
16.028127
 30
0.0
 10
5.081044
 20
16.028141
 30
0.0
  0
LWPOLYLINE
  5
141
100
AcDbEntity
  8
Layer_1
 62
7
100
AcDbPolyline
 90
13
 70
0
 10
7.467374
 20
15.079056
 30
0.0
 10
7.457017
 20
15.078604
 30
0.0
 10
7.437500
 20
15.073067
 30
0.0
 10
7.425295
 20
15.060209
 30
0.0
 10
7.420606
 20
15.023512
 30
0.0
 10
7.438518
 20
14.990466
 30
0.0
 10
7.454565
 20
14.982172
 30
0.0
 10
7.474599
 20
14.983024
 30
0.0
 10
7.502593
 20
15.002970
 30
0.0
 10
7.509214
 20
15.034664
 30
0.0
 10
7.496721
 20
15.064543
 30
0.0
 10
7.467374
 20
15.079047
 30
0.0
 10
7.467374
 20
15.079056
 30
0.0
  0
LWPOLYLINE
  5
142
100
AcDbEntity
  8
Layer_1
 62
7
100
AcDbPolyline
 90
13
 70
0
 10
6.002754
 20
15.076911
 30
0.0
 10
5.993751
 20
15.076375
 30
0.0
 10
5.975682
 20
15.069163
 30
0.0
 10
5.965189
 20
15.055361
 30
0.0
 10
5.963927
 20
15.018752
 30
0.0
 10
5.983948
 20
14.988079
 30
0.0
 10
6.000060
 20
14.981698
 30
0.0
 10
6.019236
 20
14.984876
 30
0.0
 10
6.040378
 20
15.006540
 30
0.0
 10
6.042829
 20
15.036846
 30
0.0
 10
6.029364
 20
15.064180
 30
0.0
 10
6.002754
 20
15.076928
 30
0.0
 10
6.002754
 20
15.076911
 30
0.0
  0
LWPOLYLINE
  5
143
100
AcDbEntity
  8
Layer_1
 62
7
100
AcDbPolyline
 90
13
 70
0
 10
0.318939
 20
15.015728
 30
0.0
 10
0.308864
 20
15.014853
 30
0.0
 10
0.291281
 20
15.008218
 30
0.0
 10
0.280492
 20
14.995502
 30
0.0
 10
0.277170
 20
14.961446
 30
0.0
 10
0.294656
 20
14.931921
 30
0.0
 10
0.309875
 20
14.924868
 30
0.0
 10
0.328704
 20
14.926162
 30
0.0
 10
0.355626
 20
14.945612
 30
0.0
 10
0.361181
 20
14.975583
 30
0.0
 10
0.348056
 20
15.003237
 30
0.0
 10
0.318939
 20
15.015734
 30
0.0
 10
0.318939
 20
15.015728
 30
0.0
  0
LWPOLYLINE
  5
144
100
AcDbEntity
  8
Layer_1
 62
7
100
AcDbPolyline
 90
13
 70
0
 10
1.056245
 20
14.958730
 30
0.0
 10
1.057656
 20
14.951841
 30
0.0
 10
1.058220
 20
14.949527
 30
0.0
 10
1.066214
 20
14.881455
 30
0.0
 10
1.075612
 20
14.849646
 30
0.0
 10
1.102106
 20
14.829526
 30
0.0
 10
1.231900
 20
14.846830
 30
0.0
 10
1.359577
 20
14.877758
 30
0.0
 10
1.434705
 20
14.912319
 30
0.0
 10
1.342229
 20
14.936737
 30
0.0
 10
1.247433
 20
14.947785
 30
0.0
 10
1.056245
 20
14.958733
 30
0.0
 10
1.056245
 20
14.958730
 30
0.0
  0
LWPOLYLINE
  5
145
100
AcDbEntity
  8
Layer_1
 62
7
100
AcDbPolyline
 90
13
 70
0
 10
3.624693
 20
14.949307
 30
0.0
 10
3.605646
 20
14.945450
 30
0.0
 10
3.593002
 20
14.934327
 30
0.0
 10
3.585566
 20
14.900323
 30
0.0
 10
3.599662
 20
14.867384
 30
0.0
 10
3.613933
 20
14.857591
 30
0.0
 10
3.632567
 20
14.855598
 30
0.0
 10
3.661591
 20
14.869465
 30
0.0
 10
3.671891
 20
14.898514
 30
0.0
 10
3.663813
 20
14.929188
 30
0.0
 10
3.637703
 20
14.947927
 30
0.0
 10
3.624693
 20
14.949310
 30
0.0
 10
3.624693
 20
14.949307
 30
0.0
  0
LWPOLYLINE
  5
146
100
AcDbEntity
  8
Layer_1
 62
7
100
AcDbPolyline
 90
9
 70
0
 10
0.000000
 20
14.948686
 30
0.0
 10
0.000000
 20
14.832269
 30
0.0
 10
0.176220
 20
14.860105
 30
0.0
 10
0.240520
 20
14.879426
 30
0.0
 10
0.302006
 20
14.906406
 30
0.0
 10
0.228116
 20
14.927014
 30
0.0
 10
0.152845
 20
14.939093
 30
0.0
 10
0.000000
 20
14.948686
 30
0.0
 10
0.000000
 20
14.948686
 30
0.0
  0
LWPOLYLINE
  5
147
100
AcDbEntity
  8
Layer_1
 62
7
100
AcDbPolyline
 90
17
 70
0
 10
2.322661
 20
14.946880
 30
0.0
 10
2.275586
 20
14.946428
 30
0.0
 10
2.255297
 20
14.936351
 30
0.0
 10
2.242865
 20
14.919350
 30
0.0
 10
2.239328
 20
14.875781
 30
0.0
 10
2.260481
 20
14.838128
 30
0.0
 10
2.278913
 20
14.828523
 30
0.0
 10
2.301833
 20
14.828798
 30
0.0
 10
2.388083
 20
14.845887
 30
0.0
 10
2.429027
 20
14.858800
 30
0.0
 10
2.461232
 20
14.887337
 30
0.0
 10
2.456427
 20
14.918334
 30
0.0
 10
2.433122
 20
14.936789
 30
0.0
 10
2.400970
 20
14.944780
 30
0.0
 10
2.369622
 20
14.944388
 30
0.0
 10
2.322661
 20
14.946871
 30
0.0
 10
2.322661
 20
14.946880
 30
0.0
  0
LWPOLYLINE
  5
148
100
AcDbEntity
  8
Layer_1
 62
7
100
AcDbPolyline
 90
18
 70
0
 10
6.137966
 20
14.944114
 30
0.0
 10
6.135144
 20
14.937775
 30
0.0
 10
6.133733
 20
14.934798
 30
0.0
 10
6.125378
 20
14.910752
 30
0.0
 10
6.110280
 20
14.888022
 30
0.0
 10
6.083356
 20
14.838998
 30
0.0
 10
6.098373
 20
14.800998
 30
0.0
 10
6.129154
 20
14.774462
 30
0.0
 10
6.165724
 20
14.752137
 30
0.0
 10
6.198108
 20
14.726769
 30
0.0
 10
6.312634
 20
14.643299
 30
0.0
 10
6.434272
 20
14.570554
 30
0.0
 10
6.431230
 20
14.608849
 30
0.0
 10
6.420048
 20
14.643642
 30
0.0
 10
6.379707
 20
14.704930
 30
0.0
 10
6.272248
 20
14.809838
 30
0.0
 10
6.137995
 20
14.944114
 30
0.0
 10
6.137966
 20
14.944114
 30
0.0
  0
LWPOLYLINE
  5
149
100
AcDbEntity
  8
Layer_1
 62
7
100
AcDbPolyline
 90
15
 70
0
 10
13.534390
 20
14.933641
 30
0.0
 10
13.346575
 20
14.923337
 30
0.0
 10
13.253803
 20
14.910504
 30
0.0
 10
13.164030
 20
14.882818
 30
0.0
 10
13.272344
 20
14.846831
 30
0.0
 10
13.383927
 20
14.823702
 30
0.0
 10
13.611042
 20
14.800192
 30
0.0
 10
13.617318
 20
14.817891
 30
0.0
 10
13.608209
 20
14.831439
 30
0.0
 10
13.583722
 20
14.855863
 30
0.0
 10
13.589579
 20
14.883481
 30
0.0
 10
13.581620
 20
14.909636
 30
0.0
 10
13.562379
 20
14.928349
 30
0.0
 10
13.534390
 20
14.933641
 30
0.0
 10
13.534390
 20
14.933641
 30
0.0
  0
LWPOLYLINE
  5
14a
100
AcDbEntity
  8
Layer_1
 62
7
100
AcDbPolyline
 90
15
 70
0
 10
11.211673
 20
14.932484
 30
0.0
 10
11.081632
 20
14.920379
 30
0.0
 10
11.017728
 20
14.907720
 30
0.0
 10
10.957052
 20
14.883315
 30
0.0
 10
11.043251
 20
14.848760
 30
0.0
 10
11.132824
 20
14.823037
 30
0.0
 10
11.224581
 20
14.808987
 30
0.0
 10
11.317337
 20
14.809452
 30
0.0
 10
11.270887
 20
14.838704
 30
0.0
 10
11.258929
 20
14.861761
 30
0.0
 10
11.262558
 20
14.889654
 30
0.0
 10
11.258766
 20
14.907922
 30
0.0
 10
11.246937
 20
14.921963
 30
0.0
 10
11.211673
 20
14.932484
 30
0.0
 10
11.211673
 20
14.932484
 30
0.0
  0
LWPOLYLINE
  5
14b
100
AcDbEntity
  8
Layer_1
 62
7
100
AcDbPolyline
 90
14
 70
0
 10
12.557252
 20
14.919806
 30
0.0
 10
12.389944
 20
14.909057
 30
0.0
 10
12.307411
 20
14.896801
 30
0.0
 10
12.227842
 20
14.870691
 30
0.0
 10
12.336207
 20
14.833162
 30
0.0
 10
12.447972
 20
14.807873
 30
0.0
 10
12.676039
 20
14.783764
 30
0.0
 10
12.623109
 20
14.819355
 30
0.0
 10
12.606578
 20
14.843489
 30
0.0
 10
12.610818
 20
14.874329
 30
0.0
 10
12.605873
 20
14.893096
 30
0.0
 10
12.593592
 20
14.908020
 30
0.0
 10
12.557252
 20
14.919806
 30
0.0
 10
12.557252
 20
14.919806
 30
0.0
  0
LWPOLYLINE
  5
14c
100
AcDbEntity
  8
Layer_1
 62
7
100
AcDbPolyline
 90
17
 70
0
 10
7.313083
 20
14.910877
 30
0.0
 10
7.249677
 20
14.864142
 30
0.0
 10
7.192779
 20
14.809137
 30
0.0
 10
7.082084
 20
14.695516
 30
0.0
 10
7.074351
 20
14.668349
 30
0.0
 10
7.084646
 20
14.642613
 30
0.0
 10
7.106762
 20
14.628032
 30
0.0
 10
7.134493
 20
14.634330
 30
0.0
 10
7.231341
 20
14.700029
 30
0.0
 10
7.326602
 20
14.768552
 30
0.0
 10
7.400526
 20
14.827003
 30
0.0
 10
7.464947
 20
14.895662
 30
0.0
 10
7.401401
 20
14.874353
 30
0.0
 10
7.370908
 20
14.875905
 30
0.0
 10
7.347656
 20
14.898860
 30
0.0
 10
7.313083
 20
14.910877
 30
0.0
 10
7.313083
 20
14.910877
 30
0.0
  0
LWPOLYLINE
  5
14d
100
AcDbEntity
  8
Layer_1
 62
7
100
AcDbPolyline
 90
11
 70
0
 10
9.631624
 20
14.662002
 30
0.0
 10
9.602511
 20
14.651886
 30
0.0
 10
9.591530
 20
14.625034
 30
0.0
 10
9.598155
 20
14.594935
 30
0.0
 10
9.621859
 20
14.575075
 30
0.0
 10
9.653315
 20
14.576598
 30
0.0
 10
9.673378
 20
14.599591
 30
0.0
 10
9.676318
 20
14.630419
 30
0.0
 10
9.656403
 20
14.655443
 30
0.0
 10
9.631624
 20
14.662002
 30
0.0
 10
9.631624
 20
14.662002
 30
0.0
  0
LWPOLYLINE
  5
14e
100
AcDbEntity
  8
Layer_1
 62
7
100
AcDbPolyline
 90
15
 70
0
 10
3.862268
 20
14.563114
 30
0.0
 10
3.853124
 20
14.562832
 30
0.0
 10
3.834431
 20
14.557866
 30
0.0
 10
3.822595
 20
14.546085
 30
0.0
 10
3.817472
 20
14.511887
 30
0.0
 10
3.833716
 20
14.479858
 30
0.0
 10
3.848590
 20
14.470789
 30
0.0
 10
3.867291
 20
14.469620
 30
0.0
 10
3.895782
 20
14.483897
 30
0.0
 10
3.905797
 20
14.512913
 30
0.0
 10
3.897561
 20
14.543255
 30
0.0
 10
3.871299
 20
14.561508
 30
0.0
 10
3.862268
 20
14.563061
 30
0.0
 10
3.862268
 20
14.563061
 30
0.0
 10
3.862268
 20
14.563114
 30
0.0
  0
LWPOLYLINE
  5
14f
100
AcDbEntity
  8
Layer_1
 62
7
100
AcDbPolyline
 90
13
 70
0
 10
6.723352
 20
14.349794
 30
0.0
 10
6.704523
 20
14.346680
 30
0.0
 10
6.691440
 20
14.336498
 30
0.0
 10
6.681819
 20
14.304145
 30
0.0
 10
6.693106
 20
14.271162
 30
0.0
 10
6.706157
 20
14.260194
 30
0.0
 10
6.723916
 20
14.255977
 30
0.0
 10
6.754671
 20
14.267610
 30
0.0
 10
6.768571
 20
14.296207
 30
0.0
 10
6.763643
 20
14.327743
 30
0.0
 10
6.737914
 20
14.348196
 30
0.0
 10
6.723380
 20
14.349805
 30
0.0
 10
6.723352
 20
14.349794
 30
0.0
  0
LWPOLYLINE
  5
150
100
AcDbEntity
  8
Layer_1
 62
7
100
AcDbPolyline
 90
17
 70
0
 10
4.011253
 20
14.064430
 30
0.0
 10
4.007019
 20
14.060736
 30
0.0
 10
3.984080
 20
14.030477
 30
0.0
 10
3.983627
 20
13.993280
 30
0.0
 10
4.004197
 20
13.917421
 30
0.0
 10
4.020641
 20
13.865069
 30
0.0
 10
4.044139
 20
13.813878
 30
0.0
 10
4.077913
 20
13.771133
 30
0.0
 10
4.125186
 20
13.744119
 30
0.0
 10
4.152742
 20
13.760751
 30
0.0
 10
4.160975
 20
13.790024
 30
0.0
 10
4.154757
 20
13.823132
 30
0.0
 10
4.138958
 20
13.851274
 30
0.0
 10
4.089044
 20
13.967745
 30
0.0
 10
4.057746
 20
14.021867
 30
0.0
 10
4.011253
 20
14.064430
 30
0.0
 10
4.011253
 20
14.064430
 30
0.0
  0
LWPOLYLINE
  5
151
100
AcDbEntity
  8
Layer_1
 62
7
100
AcDbPolyline
 90
15
 70
0
 10
9.454388
 20
14.045688
 30
0.0
 10
9.444962
 20
14.045349
 30
0.0
 10
9.402281
 20
14.006437
 30
0.0
 10
9.374893
 20
13.955755
 30
0.0
 10
9.352998
 20
13.900812
 30
0.0
 10
9.326795
 20
13.849117
 30
0.0
 10
9.289334
 20
13.750794
 30
0.0
 10
9.262477
 20
13.648915
 30
0.0
 10
9.347824
 20
13.723434
 30
0.0
 10
9.419089
 20
13.813409
 30
0.0
 10
9.465748
 20
13.915973
 30
0.0
 10
9.476562
 20
13.971080
 30
0.0
 10
9.477276
 20
14.028261
 30
0.0
 10
9.454388
 20
14.045679
 30
0.0
 10
9.454388
 20
14.045688
 30
0.0
  0
LWPOLYLINE
  5
152
100
AcDbEntity
  8
Layer_1
 62
7
100
AcDbPolyline
 90
14
 70
0
 10
2.803313
 20
14.022647
 30
0.0
 10
2.801056
 20
14.016032
 30
0.0
 10
2.799080
 20
14.010354
 30
0.0
 10
2.780303
 20
13.948017
 30
0.0
 10
2.781201
 20
13.883538
 30
0.0
 10
2.795984
 20
13.819643
 30
0.0
 10
2.818864
 20
13.759057
 30
0.0
 10
2.844845
 20
13.741640
 30
0.0
 10
2.874945
 20
13.744611
 30
0.0
 10
2.896838
 20
13.763872
 30
0.0
 10
2.898196
 20
13.795326
 30
0.0
 10
2.851602
 20
13.952532
 30
0.0
 10
2.803313
 20
14.022647
 30
0.0
 10
2.803313
 20
14.022647
 30
0.0
  0
LWPOLYLINE
  5
153
100
AcDbEntity
  8
Layer_1
 62
7
100
AcDbPolyline
 90
13
 70
0
 10
10.654623
 20
13.982738
 30
0.0
 10
10.616164
 20
13.948081
 30
0.0
 10
10.596298
 20
13.900511
 30
0.0
 10
10.569448
 20
13.797973
 30
0.0
 10
10.560121
 20
13.717353
 30
0.0
 10
10.556720
 20
13.636136
 30
0.0
 10
10.614986
 20
13.707232
 30
0.0
 10
10.659082
 20
13.788958
 30
0.0
 10
10.683577
 20
13.877396
 30
0.0
 10
10.683042
 20
13.968627
 30
0.0
 10
10.670674
 20
13.979527
 30
0.0
 10
10.654623
 20
13.982738
 30
0.0
 10
10.654623
 20
13.982738
 30
0.0
  0
LWPOLYLINE
  5
154
100
AcDbEntity
  8
Layer_1
 62
7
100
AcDbPolyline
 90
16
 70
0
 10
2.644789
 20
13.784412
 30
0.0
 10
2.537340
 20
13.763809
 30
0.0
 10
2.432897
 20
13.732873
 30
0.0
 10
2.461615
 20
13.728544
 30
0.0
 10
2.486304
 20
13.715699
 30
0.0
 10
2.519285
 20
13.669870
 30
0.0
 10
2.546611
 20
13.651853
 30
0.0
 10
2.578005
 20
13.655399
 30
0.0
 10
2.637508
 20
13.687068
 30
0.0
 10
2.663296
 20
13.699455
 30
0.0
 10
2.685637
 20
13.720482
 30
0.0
 10
2.694828
 20
13.745692
 30
0.0
 10
2.681168
 20
13.770631
 30
0.0
 10
2.664100
 20
13.780952
 30
0.0
 10
2.644789
 20
13.784412
 30
0.0
 10
2.644789
 20
13.784412
 30
0.0
  0
LWPOLYLINE
  5
155
100
AcDbEntity
  8
Layer_1
 62
7
100
AcDbPolyline
 90
14
 70
0
 10
1.482118
 20
13.780995
 30
0.0
 10
1.374577
 20
13.765047
 30
0.0
 10
1.322392
 20
13.752413
 30
0.0
 10
1.276689
 20
13.726370
 30
0.0
 10
1.279009
 20
13.687508
 30
0.0
 10
1.300265
 20
13.653417
 30
0.0
 10
1.333200
 20
13.635504
 30
0.0
 10
1.351779
 20
13.636179
 30
0.0
 10
1.370556
 20
13.645175
 30
0.0
 10
1.490927
 20
13.695891
 30
0.0
 10
1.547471
 20
13.727684
 30
0.0
 10
1.596503
 20
13.770688
 30
0.0
 10
1.482118
 20
13.780995
 30
0.0
 10
1.482118
 20
13.780995
 30
0.0
  0
LWPOLYLINE
  5
156
100
AcDbEntity
  8
Layer_1
 62
7
100
AcDbPolyline
 90
18
 70
0
 10
11.944124
 20
13.776200
 30
0.0
 10
11.919596
 20
13.763930
 30
0.0
 10
11.916110
 20
13.738828
 30
0.0
 10
11.929087
 20
13.713822
 30
0.0
 10
11.953946
 20
13.701840
 30
0.0
 10
12.100440
 20
13.639472
 30
0.0
 10
12.175711
 20
13.614257
 30
0.0
 10
12.253750
 20
13.599811
 30
0.0
 10
12.227252
 20
13.619673
 30
0.0
 10
12.207353
 20
13.645755
 30
0.0
 10
12.198481
 20
13.675998
 30
0.0
 10
12.205067
 20
13.708345
 30
0.0
 10
12.185481
 20
13.738849
 30
0.0
 10
12.152880
 20
13.751465
 30
0.0
 10
12.080607
 20
13.761648
 30
0.0
 10
12.012725
 20
13.772521
 30
0.0
 10
11.944124
 20
13.776200
 30
0.0
 10
11.944124
 20
13.776200
 30
0.0
  0
LWPOLYLINE
  5
157
100
AcDbEntity
  8
Layer_1
 62
7
100
AcDbPolyline
 90
17
 70
0
 10
0.322298
 20
13.773002
 30
0.0
 10
0.159286
 20
13.751959
 30
0.0
 10
0.078331
 20
13.738792
 30
0.0
 10
0.000000
 20
13.715511
 30
0.0
 10
0.000000
 20
13.706635
 30
0.0
 10
0.047166
 20
13.687611
 30
0.0
 10
0.063452
 20
13.669003
 30
0.0
 10
0.071346
 20
13.643908
 30
0.0
 10
0.100800
 20
13.622651
 30
0.0
 10
0.135971
 20
13.624123
 30
0.0
 10
0.207095
 20
13.647216
 30
0.0
 10
0.327946
 20
13.688875
 30
0.0
 10
0.385946
 20
13.715419
 30
0.0
 10
0.440436
 20
13.748804
 30
0.0
 10
0.381568
 20
13.762746
 30
0.0
 10
0.322298
 20
13.773002
 30
0.0
 10
0.322298
 20
13.773002
 30
0.0
  0
LWPOLYLINE
  5
158
100
AcDbEntity
  8
Layer_1
 62
7
100
AcDbPolyline
 90
16
 70
0
 10
10.816336
 20
13.769584
 30
0.0
 10
10.799009
 20
13.765093
 30
0.0
 10
10.787474
 20
13.754612
 30
0.0
 10
10.780490
 20
13.723624
 30
0.0
 10
10.792805
 20
13.692492
 30
0.0
 10
10.821839
 20
13.677092
 30
0.0
 10
10.892183
 20
13.639188
 30
0.0
 10
10.929250
 20
13.630935
 30
0.0
 10
10.964898
 20
13.647379
 30
0.0
 10
10.980170
 20
13.681849
 30
0.0
 10
10.974444
 20
13.719118
 30
0.0
 10
10.951309
 20
13.747168
 30
0.0
 10
10.914352
 20
13.753986
 30
0.0
 10
10.865714
 20
13.764635
 30
0.0
 10
10.816336
 20
13.769584
 30
0.0
 10
10.816336
 20
13.769584
 30
0.0
  0
LWPOLYLINE
  5
159
100
AcDbEntity
  8
Layer_1
 62
7
100
AcDbPolyline
 90
17
 70
0
 10
13.137840
 20
13.752002
 30
0.0
 10
13.104989
 20
13.751720
 30
0.0
 10
13.080656
 20
13.741473
 30
0.0
 10
13.075232
 20
13.717229
 30
0.0
 10
13.085816
 20
13.692481
 30
0.0
 10
13.109504
 20
13.680721
 30
0.0
 10
13.242181
 20
13.632148
 30
0.0
 10
13.378180
 20
13.595891
 30
0.0
 10
13.397953
 20
13.606515
 30
0.0
 10
13.411684
 20
13.623678
 30
0.0
 10
13.420937
 20
13.667685
 30
0.0
 10
13.405763
 20
13.708055
 30
0.0
 10
13.388961
 20
13.720671
 30
0.0
 10
13.365988
 20
13.724931
 30
0.0
 10
13.252210
 20
13.739370
 30
0.0
 10
13.137840
 20
13.751940
 30
0.0
 10
13.137840
 20
13.752002
 30
0.0
  0
LWPOLYLINE
  5
15a
100
AcDbEntity
  8
Layer_1
 62
7
100
AcDbPolyline
 90
13
 70
0
 10
10.493615
 20
13.568391
 30
0.0
 10
10.484217
 20
13.568109
 30
0.0
 10
10.465486
 20
13.563526
 30
0.0
 10
10.453912
 20
13.551787
 30
0.0
 10
10.449821
 20
13.517487
 30
0.0
 10
10.467120
 20
13.486504
 30
0.0
 10
10.482281
 20
13.478911
 30
0.0
 10
10.500981
 20
13.480134
 30
0.0
 10
10.526305
 20
13.498620
 30
0.0
 10
10.531979
 20
13.527578
 30
0.0
 10
10.520313
 20
13.554877
 30
0.0
 10
10.493615
 20
13.568385
 30
0.0
 10
10.493615
 20
13.568391
 30
0.0
  0
LWPOLYLINE
  5
15b
100
AcDbEntity
  8
Layer_1
 62
7
100
AcDbPolyline
 90
15
 70
0
 10
3.258030
 20
12.989505
 30
0.0
 10
3.260852
 20
12.973410
 30
0.0
 10
3.260570
 20
12.973410
 30
0.0
 10
3.277461
 20
12.882494
 30
0.0
 10
3.317593
 20
12.799540
 30
0.0
 10
3.375949
 20
12.727592
 30
0.0
 10
3.447514
 20
12.669691
 30
0.0
 10
3.478167
 20
12.680422
 30
0.0
 10
3.490532
 20
12.709573
 30
0.0
 10
3.485423
 20
12.743395
 30
0.0
 10
3.463657
 20
12.768136
 30
0.0
 10
3.370361
 20
12.888359
 30
0.0
 10
3.318766
 20
12.943783
 30
0.0
 10
3.258058
 20
12.989505
 30
0.0
 10
3.258030
 20
12.989505
 30
0.0
  0
LWPOLYLINE
  5
15c
100
AcDbEntity
  8
Layer_1
 62
7
100
AcDbPolyline
 90
15
 70
0
 10
10.211477
 20
12.986087
 30
0.0
 10
10.197479
 20
12.975834
 30
0.0
 10
10.120291
 20
12.912009
 30
0.0
 10
10.054636
 20
12.836481
 30
0.0
 10
9.943479
 20
12.669965
 30
0.0
 10
9.948703
 20
12.648923
 30
0.0
 10
9.966367
 20
12.639001
 30
0.0
 10
9.988477
 20
12.639903
 30
0.0
 10
10.007036
 20
12.651335
 30
0.0
 10
10.060623
 20
12.691270
 30
0.0
 10
10.104776
 20
12.741477
 30
0.0
 10
10.178852
 20
12.853409
 30
0.0
 10
10.199462
 20
12.918621
 30
0.0
 10
10.211477
 20
12.986087
 30
0.0
 10
10.211477
 20
12.986087
 30
0.0
  0
LWPOLYLINE
  5
15d
100
AcDbEntity
  8
Layer_1
 62
7
100
AcDbPolyline
 90
12
 70
0
 10
11.444563
 20
12.842496
 30
0.0
 10
11.435136
 20
12.841931
 30
0.0
 10
11.392731
 20
12.807438
 30
0.0
 10
11.363209
 20
12.761396
 30
0.0
 10
11.323179
 20
12.658320
 30
0.0
 10
11.302238
 20
12.559765
 30
0.0
 10
11.364412
 20
12.612005
 30
0.0
 10
11.418634
 20
12.674216
 30
0.0
 10
11.455932
 20
12.745704
 30
0.0
 10
11.467338
 20
12.825780
 30
0.0
 10
11.444563
 20
12.842481
 30
0.0
 10
11.444563
 20
12.842496
 30
0.0
  0
LWPOLYLINE
  5
15e
100
AcDbEntity
  8
Layer_1
 62
7
100
AcDbPolyline
 90
16
 70
0
 10
2.049921
 20
12.814493
 30
0.0
 10
2.021034
 20
12.800781
 30
0.0
 10
2.009366
 20
12.773065
 30
0.0
 10
2.011773
 20
12.740225
 30
0.0
 10
2.025114
 20
12.711141
 30
0.0
 10
2.040816
 20
12.682347
 30
0.0
 10
2.063461
 20
12.656195
 30
0.0
 10
2.091598
 20
12.641985
 30
0.0
 10
2.123779
 20
12.649018
 30
0.0
 10
2.134218
 20
12.677476
 30
0.0
 10
2.129000
 20
12.708572
 30
0.0
 10
2.098746
 20
12.766208
 30
0.0
 10
2.078757
 20
12.796046
 30
0.0
 10
2.066464
 20
12.808632
 30
0.0
 10
2.049921
 20
12.814493
 30
0.0
 10
2.049921
 20
12.814493
 30
0.0
  0
LWPOLYLINE
  5
15f
100
AcDbEntity
  8
Layer_1
 62
7
100
AcDbPolyline
 90
18
 70
0
 10
3.193852
 20
12.734898
 30
0.0
 10
3.186628
 20
12.734447
 30
0.0
 10
3.073901
 20
12.683318
 30
0.0
 10
3.021178
 20
12.651274
 30
0.0
 10
2.974086
 20
12.611471
 30
0.0
 10
3.001231
 20
12.618016
 30
0.0
 10
3.028389
 20
12.616165
 30
0.0
 10
3.052441
 20
12.604828
 30
0.0
 10
3.070267
 20
12.582919
 30
0.0
 10
3.095551
 20
12.568193
 30
0.0
 10
3.122510
 20
12.573822
 30
0.0
 10
3.166731
 20
12.613399
 30
0.0
 10
3.195261
 20
12.634051
 30
0.0
 10
3.218420
 20
12.662774
 30
0.0
 10
3.227715
 20
12.695431
 30
0.0
 10
3.214652
 20
12.727888
 30
0.0
 10
3.193852
 20
12.734887
 30
0.0
 10
3.193852
 20
12.734898
 30
0.0
  0
LWPOLYLINE
  5
160
100
AcDbEntity
  8
Layer_1
 62
7
100
AcDbPolyline
 90
17
 70
0
 10
10.268204
 20
12.721338
 30
0.0
 10
10.241086
 20
12.703974
 30
0.0
 10
10.235364
 20
12.673697
 30
0.0
 10
10.246697
 20
12.641830
 30
0.0
 10
10.270744
 20
12.619695
 30
0.0
 10
10.322444
 20
12.574629
 30
0.0
 10
10.352425
 20
12.560799
 30
0.0
 10
10.385891
 20
12.567936
 30
0.0
 10
10.411040
 20
12.595426
 30
0.0
 10
10.414727
 20
12.632871
 30
0.0
 10
10.398845
 20
12.666442
 30
0.0
 10
10.365288
 20
12.682312
 30
0.0
 10
10.318796
 20
12.708146
 30
0.0
 10
10.294553
 20
12.718355
 30
0.0
 10
10.268260
 20
12.721338
 30
0.0
 10
10.268260
 20
12.721338
 30
0.0
 10
10.268204
 20
12.721338
 30
0.0
  0
LWPOLYLINE
  5
161
100
AcDbEntity
  8
Layer_1
 62
7
100
AcDbPolyline
 90
16
 70
0
 10
2.025001
 20
12.697913
 30
0.0
 10
2.009394
 20
12.696192
 30
0.0
 10
1.917834
 20
12.683233
 30
0.0
 10
1.829827
 20
12.654677
 30
0.0
 10
1.659551
 20
12.579665
 30
0.0
 10
1.679003
 20
12.563440
 30
0.0
 10
1.702724
 20
12.553923
 30
0.0
 10
1.723917
 20
12.542325
 30
0.0
 10
1.735780
 20
12.519856
 30
0.0
 10
1.766204
 20
12.503769
 30
0.0
 10
1.799004
 20
12.508788
 30
0.0
 10
1.856938
 20
12.548245
 30
0.0
 10
1.949118
 20
12.614412
 30
0.0
 10
1.990438
 20
12.652922
 30
0.0
 10
2.025001
 20
12.697899
 30
0.0
 10
2.025001
 20
12.697913
 30
0.0
  0
LWPOLYLINE
  5
162
100
AcDbEntity
  8
Layer_1
 62
7
100
AcDbPolyline
 90
15
 70
0
 10
11.440978
 20
12.696925
 30
0.0
 10
11.452098
 20
12.683751
 30
0.0
 10
11.521541
 20
12.609587
 30
0.0
 10
11.601602
 20
12.547312
 30
0.0
 10
11.688854
 20
12.494758
 30
0.0
 10
11.779871
 20
12.449758
 30
0.0
 10
11.745521
 20
12.502959
 30
0.0
 10
11.739838
 20
12.532327
 30
0.0
 10
11.751874
 20
12.561380
 30
0.0
 10
11.744349
 20
12.596115
 30
0.0
 10
11.717835
 20
12.617527
 30
0.0
 10
11.649992
 20
12.644062
 30
0.0
 10
11.547930
 20
12.680247
 30
0.0
 10
11.440978
 20
12.696925
 30
0.0
 10
11.440978
 20
12.696925
 30
0.0
  0
LWPOLYLINE
  5
163
100
AcDbEntity
  8
Layer_1
 62
7
100
AcDbPolyline
 90
27
 70
0
 10
12.625155
 20
12.693891
 30
0.0
 10
12.605623
 20
12.688582
 30
0.0
 10
12.593425
 20
12.675899
 30
0.0
 10
12.588737
 20
12.639387
 30
0.0
 10
12.606513
 20
12.606302
 30
0.0
 10
12.622394
 20
12.597902
 30
0.0
 10
12.642173
 20
12.598588
 30
0.0
 10
12.657502
 20
12.603589
 30
0.0
 10
12.669580
 20
12.615683
 30
0.0
 10
12.679673
 20
12.623446
 30
0.0
 10
12.689050
 20
12.615453
 30
0.0
 10
12.747224
 20
12.560083
 30
0.0
 10
12.815986
 20
12.518748
 30
0.0
 10
12.958798
 20
12.443199
 30
0.0
 10
13.021017
 20
12.418076
 30
0.0
 10
13.087237
 20
12.407371
 30
0.0
 10
13.038564
 20
12.448504
 30
0.0
 10
13.027281
 20
12.475813
 30
0.0
 10
13.037284
 20
12.505982
 30
0.0
 10
13.030448
 20
12.540118
 30
0.0
 10
13.004698
 20
12.561235
 30
0.0
 10
12.936869
 20
12.582766
 30
0.0
 10
12.810098
 20
12.623660
 30
0.0
 10
12.680894
 20
12.647920
 30
0.0
 10
12.661861
 20
12.681587
 30
0.0
 10
12.625155
 20
12.693891
 30
0.0
 10
12.625155
 20
12.693891
 30
0.0
  0
LWPOLYLINE
  5
164
100
AcDbEntity
  8
Layer_1
 62
7
100
AcDbPolyline
 90
14
 70
0
 10
0.796121
 20
12.651778
 30
0.0
 10
0.778425
 20
12.651440
 30
0.0
 10
0.683821
 20
12.645934
 30
0.0
 10
0.591439
 20
12.624775
 30
0.0
 10
0.414359
 20
12.559607
 30
0.0
 10
0.410724
 20
12.534194
 30
0.0
 10
0.420462
 20
12.510521
 30
0.0
 10
0.450737
 20
12.467775
 30
0.0
 10
0.488708
 20
12.458765
 30
0.0
 10
0.525036
 20
12.471354
 30
0.0
 10
0.594868
 20
12.511102
 30
0.0
 10
0.701749
 20
12.572678
 30
0.0
 10
0.796121
 20
12.651773
 30
0.0
 10
0.796121
 20
12.651778
 30
0.0
  0
LWPOLYLINE
  5
165
100
AcDbEntity
  8
Layer_1
 62
7
100
AcDbPolyline
 90
10
 70
0
 10
13.936811
 20
12.638440
 30
0.0
 10
13.916103
 20
12.621787
 30
0.0
 10
13.916632
 20
12.597036
 30
0.0
 10
13.932104
 20
12.573985
 30
0.0
 10
13.956228
 20
12.562427
 30
0.0
 10
14.000000
 20
12.541096
 30
0.0
 10
14.000000
 20
12.632102
 30
0.0
 10
13.936867
 20
12.638440
 30
0.0
 10
13.936867
 20
12.638440
 30
0.0
 10
13.936811
 20
12.638440
 30
0.0
  0
LWPOLYLINE
  5
166
100
AcDbEntity
  8
Layer_1
 62
7
100
AcDbPolyline
 90
13
 70
0
 10
11.106602
 20
12.319287
 30
0.0
 10
11.106602
 20
12.319287
 30
0.0
 10
11.080994
 20
12.302869
 30
0.0
 10
11.074037
 20
12.271846
 30
0.0
 10
11.085309
 20
12.241998
 30
0.0
 10
11.114391
 20
12.229108
 30
0.0
 10
11.142762
 20
12.239241
 30
0.0
 10
11.156657
 20
12.264327
 30
0.0
 10
11.154090
 20
12.293287
 30
0.0
 10
11.133074
 20
12.315042
 30
0.0
 10
11.116705
 20
12.319177
 30
0.0
 10
11.106658
 20
12.319459
 30
0.0
 10
11.106602
 20
12.319287
 30
0.0
  0
LWPOLYLINE
  5
167
100
AcDbEntity
  8
Layer_1
 62
7
100
AcDbPolyline
 90
15
 70
0
 10
6.740878
 20
12.272378
 30
0.0
 10
6.624292
 20
12.272096
 30
0.0
 10
6.556477
 20
12.260844
 30
0.0
 10
6.496473
 20
12.227833
 30
0.0
 10
6.603608
 20
12.187992
 30
0.0
 10
6.717729
 20
12.168520
 30
0.0
 10
6.774838
 20
12.169298
 30
0.0
 10
6.830610
 20
12.178620
 30
0.0
 10
6.884017
 20
12.197635
 30
0.0
 10
6.934031
 20
12.227494
 30
0.0
 10
6.929825
 20
12.252993
 30
0.0
 10
6.909742
 20
12.265021
 30
0.0
 10
6.857407
 20
12.268120
 30
0.0
 10
6.740878
 20
12.272364
 30
0.0
 10
6.740878
 20
12.272378
 30
0.0
  0
LWPOLYLINE
  5
168
100
AcDbEntity
  8
Layer_1
 62
7
100
AcDbPolyline
 90
12
 70
0
 10
10.948360
 20
12.073059
 30
0.0
 10
10.929840
 20
12.070880
 30
0.0
 10
10.916862
 20
12.061815
 30
0.0
 10
10.906735
 20
12.031396
 30
0.0
 10
10.916383
 20
11.998533
 30
0.0
 10
10.944211
 20
11.979960
 30
0.0
 10
10.974798
 20
11.985491
 30
0.0
 10
10.993579
 20
12.008793
 30
0.0
 10
10.996178
 20
12.038776
 30
0.0
 10
10.978219
 20
12.064350
 30
0.0
 10
10.948360
 20
12.073059
 30
0.0
 10
10.948360
 20
12.073059
 30
0.0
  0
LWPOLYLINE
  5
169
100
AcDbEntity
  8
Layer_1
 62
7
100
AcDbPolyline
 90
17
 70
0
 10
3.994178
 20
11.869605
 30
0.0
 10
3.988110
 20
11.868674
 30
0.0
 10
3.936455
 20
11.834234
 30
0.0
 10
3.889971
 20
11.792975
 30
0.0
 10
3.803791
 20
11.703255
 30
0.0
 10
3.832223
 20
11.712791
 30
0.0
 10
3.861618
 20
11.714043
 30
0.0
 10
3.889341
 20
11.705794
 30
0.0
 10
3.912757
 20
11.686827
 30
0.0
 10
3.944301
 20
11.684545
 30
0.0
 10
3.967667
 20
11.703422
 30
0.0
 10
4.003971
 20
11.757382
 30
0.0
 10
4.030821
 20
11.812916
 30
0.0
 10
4.030923
 20
11.842200
 30
0.0
 10
4.012861
 20
11.865256
 30
0.0
 10
3.994178
 20
11.869611
 30
0.0
 10
3.994178
 20
11.869605
 30
0.0
  0
LWPOLYLINE
  5
16a
100
AcDbEntity
  8
Layer_1
 62
7
100
AcDbPolyline
 90
19
 70
0
 10
9.470390
 20
11.860345
 30
0.0
 10
9.455771
 20
11.860063
 30
0.0
 10
9.430616
 20
11.837139
 30
0.0
 10
9.426952
 20
11.804799
 30
0.0
 10
9.438884
 20
11.771317
 30
0.0
 10
9.460512
 20
11.744967
 30
0.0
 10
9.475225
 20
11.712960
 30
0.0
 10
9.500704
 20
11.687954
 30
0.0
 10
9.532327
 20
11.677826
 30
0.0
 10
9.565471
 20
11.690453
 30
0.0
 10
9.586322
 20
11.717822
 30
0.0
 10
9.588556
 20
11.751357
 30
0.0
 10
9.574408
 20
11.782235
 30
0.0
 10
9.546110
 20
11.801635
 30
0.0
 10
9.511944
 20
11.837313
 30
0.0
 10
9.492687
 20
11.852365
 30
0.0
 10
9.470390
 20
11.860283
 30
0.0
 10
9.470390
 20
11.860283
 30
0.0
 10
9.470390
 20
11.860345
 30
0.0
  0
LWPOLYLINE
  5
16b
100
AcDbEntity
  8
Layer_1
 62
7
100
AcDbPolyline
 90
14
 70
0
 10
10.793137
 20
11.744866
 30
0.0
 10
10.801350
 20
11.729264
 30
0.0
 10
10.851575
 20
11.642577
 30
0.0
 10
10.916320
 20
11.566609
 30
0.0
 10
11.056902
 20
11.423398
 30
0.0
 10
11.048908
 20
11.490916
 30
0.0
 10
11.055839
 20
11.523609
 30
0.0
 10
11.073215
 20
11.552325
 30
0.0
 10
11.063908
 20
11.589538
 30
0.0
 10
11.036353
 20
11.614730
 30
0.0
 10
10.970853
 20
11.657885
 30
0.0
 10
10.885636
 20
11.708777
 30
0.0
 10
10.793137
 20
11.744866
 30
0.0
 10
10.793137
 20
11.744866
 30
0.0
  0
LWPOLYLINE
  5
16c
100
AcDbEntity
  8
Layer_1
 62
7
100
AcDbPolyline
 90
16
 70
0
 10
2.668214
 20
11.741835
 30
0.0
 10
2.653115
 20
11.736597
 30
0.0
 10
2.561100
 20
11.700026
 30
0.0
 10
2.475710
 20
11.650095
 30
0.0
 10
2.396987
 20
11.589740
 30
0.0
 10
2.324975
 20
11.521899
 30
0.0
 10
2.381183
 20
11.534190
 30
0.0
 10
2.407862
 20
11.528727
 30
0.0
 10
2.427845
 20
11.508008
 30
0.0
 10
2.460589
 20
11.497389
 30
0.0
 10
2.490957
 20
11.509855
 30
0.0
 10
2.538956
 20
11.561365
 30
0.0
 10
2.613628
 20
11.644702
 30
0.0
 10
2.644528
 20
11.691146
 30
0.0
 10
2.668214
 20
11.741835
 30
0.0
 10
2.668214
 20
11.741835
 30
0.0
  0
LWPOLYLINE
  5
16d
100
AcDbEntity
  8
Layer_1
 62
7
100
AcDbPolyline
 90
14
 70
0
 10
1.350264
 20
11.635228
 30
0.0
 10
1.332794
 20
11.631977
 30
0.0
 10
1.240159
 20
11.610687
 30
0.0
 10
1.153054
 20
11.572903
 30
0.0
 10
0.989866
 20
11.476314
 30
0.0
 10
0.989872
 20
11.450269
 30
0.0
 10
1.003014
 20
11.427754
 30
0.0
 10
1.040525
 20
11.390104
 30
0.0
 10
1.079647
 20
11.389086
 30
0.0
 10
1.112880
 20
11.408754
 30
0.0
 10
1.174270
 20
11.461153
 30
0.0
 10
1.269527
 20
11.541011
 30
0.0
 10
1.350264
 20
11.635228
 30
0.0
 10
1.350264
 20
11.635228
 30
0.0
  0
LWPOLYLINE
  5
16e
100
AcDbEntity
  8
Layer_1
 62
7
100
AcDbPolyline
 90
16
 70
0
 10
12.111962
 20
11.628889
 30
0.0
 10
12.122065
 20
11.613898
 30
0.0
 10
12.178650
 20
11.536016
 30
0.0
 10
12.248730
 20
11.470381
 30
0.0
 10
12.402086
 20
11.353889
 30
0.0
 10
12.425328
 20
11.356659
 30
0.0
 10
12.439325
 20
11.373087
 30
0.0
 10
12.455483
 20
11.416946
 30
0.0
 10
12.460892
 20
11.443672
 30
0.0
 10
12.452907
 20
11.468257
 30
0.0
 10
12.434774
 20
11.487596
 30
0.0
 10
12.409734
 20
11.498582
 30
0.0
 10
12.265473
 20
11.575011
 30
0.0
 10
12.190671
 20
11.607163
 30
0.0
 10
12.111962
 20
11.628889
 30
0.0
 10
12.111962
 20
11.628889
 30
0.0
  0
LWPOLYLINE
  5
16f
100
AcDbEntity
  8
Layer_1
 62
7
100
AcDbPolyline
 90
18
 70
0
 10
13.459742
 20
11.569800
 30
0.0
 10
13.457202
 20
11.564949
 30
0.0
 10
13.445719
 20
11.532342
 30
0.0
 10
13.456927
 20
11.501914
 30
0.0
 10
13.481904
 20
11.476710
 30
0.0
 10
13.511728
 20
11.459776
 30
0.0
 10
13.668110
 20
11.357713
 30
0.0
 10
13.748602
 20
11.310844
 30
0.0
 10
13.834844
 20
11.275064
 30
0.0
 10
13.792775
 20
11.326750
 30
0.0
 10
13.781913
 20
11.355647
 30
0.0
 10
13.793018
 20
11.385306
 30
0.0
 10
13.790179
 20
11.421679
 30
0.0
 10
13.766010
 20
11.447555
 30
0.0
 10
13.696668
 20
11.475928
 30
0.0
 10
13.581031
 20
11.530480
 30
0.0
 10
13.459742
 20
11.569800
 30
0.0
 10
13.459742
 20
11.569800
 30
0.0
  0
LWPOLYLINE
  5
170
100
AcDbEntity
  8
Layer_1
 62
7
100
AcDbPolyline
 90
6
 70
0
 10
0.000000
 20
11.562358
 30
0.0
 10
0.000000
 20
11.488328
 30
0.0
 10
0.032202
 20
11.530552
 30
0.0
 10
0.021731
 20
11.552084
 30
0.0
 10
0.000000
 20
11.562358
 30
0.0
 10
0.000000
 20
11.562358
 30
0.0
  0
LWPOLYLINE
  5
171
100
AcDbEntity
  8
Layer_1
 62
7
100
AcDbPolyline
 90
18
 70
0
 10
4.995559
 20
11.256985
 30
0.0
 10
4.993301
 20
11.255151
 30
0.0
 10
4.948323
 20
11.209967
 30
0.0
 10
4.914209
 20
11.156162
 30
0.0
 10
4.882613
 20
11.100202
 30
0.0
 10
4.845191
 20
11.048556
 30
0.0
 10
4.903350
 20
11.064103
 30
0.0
 10
4.931734
 20
11.067942
 30
0.0
 10
4.959519
 20
11.056932
 30
0.0
 10
4.991648
 20
11.063703
 30
0.0
 10
5.011505
 20
11.088118
 30
0.0
 10
5.030724
 20
11.152072
 30
0.0
 10
5.039999
 20
11.182634
 30
0.0
 10
5.040298
 20
11.216012
 30
0.0
 10
5.027803
 20
11.243548
 30
0.0
 10
4.998692
 20
11.256584
 30
0.0
 10
4.995559
 20
11.256980
 30
0.0
 10
4.995559
 20
11.256985
 30
0.0
  0
LWPOLYLINE
  5
172
100
AcDbEntity
  8
Layer_1
 62
7
100
AcDbPolyline
 90
17
 70
0
 10
8.461502
 20
11.248386
 30
0.0
 10
8.446375
 20
11.248047
 30
0.0
 10
8.420212
 20
11.225167
 30
0.0
 10
8.414445
 20
11.192308
 30
0.0
 10
8.432066
 20
11.123582
 30
0.0
 10
8.441118
 20
11.087738
 30
0.0
 10
8.467609
 20
11.062133
 30
0.0
 10
8.502222
 20
11.053858
 30
0.0
 10
8.535642
 20
11.070005
 30
0.0
 10
8.552529
 20
11.095608
 30
0.0
 10
8.554131
 20
11.125183
 30
0.0
 10
8.543440
 20
11.153765
 30
0.0
 10
8.523450
 20
11.176388
 30
0.0
 10
8.499937
 20
11.220909
 30
0.0
 10
8.483211
 20
11.239037
 30
0.0
 10
8.461502
 20
11.248377
 30
0.0
 10
8.461502
 20
11.248386
 30
0.0
  0
LWPOLYLINE
  5
173
100
AcDbEntity
  8
Layer_1
 62
7
100
AcDbPolyline
 90
15
 70
0
 10
5.999988
 20
11.178381
 30
0.0
 10
5.976794
 20
11.162434
 30
0.0
 10
5.972062
 20
11.135440
 30
0.0
 10
5.984010
 20
11.110500
 30
0.0
 10
6.010854
 20
11.100716
 30
0.0
 10
6.131966
 20
11.061853
 30
0.0
 10
6.194436
 20
11.056147
 30
0.0
 10
6.255681
 20
11.070510
 30
0.0
 10
6.267268
 20
11.099029
 30
0.0
 10
6.255770
 20
11.125961
 30
0.0
 10
6.230158
 20
11.144267
 30
0.0
 10
6.199406
 20
11.146907
 30
0.0
 10
6.100142
 20
11.166132
 30
0.0
 10
5.999988
 20
11.178381
 30
0.0
 10
5.999988
 20
11.178381
 30
0.0
  0
LWPOLYLINE
  5
174
100
AcDbEntity
  8
Layer_1
 62
7
100
AcDbPolyline
 90
14
 70
0
 10
7.560649
 20
11.176659
 30
0.0
 10
7.541458
 20
11.176151
 30
0.0
 10
7.360867
 20
11.164498
 30
0.0
 10
7.272150
 20
11.147466
 30
0.0
 10
7.186478
 20
11.120037
 30
0.0
 10
7.177817
 20
11.090297
 30
0.0
 10
7.193153
 20
11.064199
 30
0.0
 10
7.221634
 20
11.049511
 30
0.0
 10
7.252406
 20
11.054003
 30
0.0
 10
7.336716
 20
11.063575
 30
0.0
 10
7.418656
 20
11.086181
 30
0.0
 10
7.494531
 20
11.123359
 30
0.0
 10
7.560649
 20
11.176648
 30
0.0
 10
7.560649
 20
11.176659
 30
0.0
  0
LWPOLYLINE
  5
175
100
AcDbEntity
  8
Layer_1
 62
7
100
AcDbPolyline
 90
26
 70
0
 10
9.932896
 20
11.024084
 30
0.0
 10
9.913583
 20
11.020912
 30
0.0
 10
9.900362
 20
11.010355
 30
0.0
 10
9.891257
 20
10.976870
 30
0.0
 10
9.903706
 20
10.943194
 30
0.0
 10
9.917426
 20
10.932397
 30
0.0
 10
9.935831
 20
10.928888
 30
0.0
 10
9.958317
 20
10.934468
 30
0.0
 10
9.965327
 20
10.931642
 30
0.0
 10
9.967129
 20
10.917037
 30
0.0
 10
9.998906
 20
10.825611
 30
0.0
 10
10.045661
 20
10.741069
 30
0.0
 10
10.149191
 20
10.576937
 30
0.0
 10
10.152616
 20
10.647174
 30
0.0
 10
10.166451
 20
10.678833
 30
0.0
 10
10.190311
 20
10.704157
 30
0.0
 10
10.188605
 20
10.742325
 30
0.0
 10
10.166946
 20
10.772559
 30
0.0
 10
10.112615
 20
10.828512
 30
0.0
 10
10.045019
 20
10.892454
 30
0.0
 10
9.971391
 20
10.945316
 30
0.0
 10
9.982104
 20
10.970637
 30
0.0
 10
9.977131
 20
10.997316
 30
0.0
 10
9.959663
 20
11.017687
 30
0.0
 10
9.932896
 20
11.024084
 30
0.0
 10
9.932896
 20
11.024084
 30
0.0
  0
LWPOLYLINE
  5
176
100
AcDbEntity
  8
Layer_1
 62
7
100
AcDbPolyline
 90
15
 70
0
 10
6.155041
 20
11.022334
 30
0.0
 10
6.147167
 20
11.007617
 30
0.0
 10
6.107471
 20
10.931934
 30
0.0
 10
6.079173
 20
10.851546
 30
0.0
 10
6.035096
 20
10.686258
 30
0.0
 10
6.078238
 20
10.717946
 30
0.0
 10
6.102641
 20
10.725129
 30
0.0
 10
6.128681
 20
10.718889
 30
0.0
 10
6.159058
 20
10.725753
 30
0.0
 10
6.176938
 20
10.749319
 30
0.0
 10
6.183827
 20
10.780903
 30
0.0
 10
6.181231
 20
10.811825
 30
0.0
 10
6.177640
 20
10.918425
 30
0.0
 10
6.155041
 20
11.022334
 30
0.0
 10
6.155041
 20
11.022334
 30
0.0
  0
LWPOLYLINE
  5
177
100
AcDbEntity
  8
Layer_1
 62
7
100
AcDbPolyline
 90
20
 70
0
 10
7.301286
 20
10.938825
 30
0.0
 10
7.298464
 20
10.935020
 30
0.0
 10
7.298464
 20
10.935020
 30
0.0
 10
7.277433
 20
10.897548
 30
0.0
 10
7.274426
 20
10.854725
 30
0.0
 10
7.274096
 20
10.810901
 30
0.0
 10
7.261098
 20
10.770428
 30
0.0
 10
7.268529
 20
10.738010
 30
0.0
 10
7.294742
 20
10.719578
 30
0.0
 10
7.328031
 20
10.717284
 30
0.0
 10
7.356687
 20
10.733276
 30
0.0
 10
7.381556
 20
10.748919
 30
0.0
 10
7.393019
 20
10.774710
 30
0.0
 10
7.392243
 20
10.804092
 30
0.0
 10
7.380393
 20
10.830510
 30
0.0
 10
7.358144
 20
10.899430
 30
0.0
 10
7.334884
 20
10.925838
 30
0.0
 10
7.301117
 20
10.938825
 30
0.0
 10
7.301117
 20
10.938825
 30
0.0
 10
7.301286
 20
10.938825
 30
0.0
  0
LWPOLYLINE
  5
178
100
AcDbEntity
  8
Layer_1
 62
7
100
AcDbPolyline
 90
25
 70
0
 10
2.081671
 20
10.801405
 30
0.0
 10
2.072471
 20
10.801405
 30
0.0
 10
2.048149
 20
10.793524
 30
0.0
 10
2.034829
 20
10.772676
 30
0.0
 10
2.033204
 20
10.746734
 30
0.0
 10
2.043966
 20
10.723574
 30
0.0
 10
1.959373
 20
10.684160
 30
0.0
 10
1.882733
 20
10.630859
 30
0.0
 10
1.740464
 20
10.510310
 30
0.0
 10
1.741732
 20
10.485382
 30
0.0
 10
1.756720
 20
10.466012
 30
0.0
 10
1.797699
 20
10.434903
 30
0.0
 10
1.829399
 20
10.430716
 30
0.0
 10
1.856796
 20
10.443869
 30
0.0
 10
1.897352
 20
10.492891
 30
0.0
 10
1.986665
 20
10.596174
 30
0.0
 10
2.027181
 20
10.650852
 30
0.0
 10
2.061097
 20
10.709132
 30
0.0
 10
2.078734
 20
10.704097
 30
0.0
 10
2.094922
 20
10.707034
 30
0.0
 10
2.119034
 20
10.729591
 30
0.0
 10
2.125593
 20
10.762328
 30
0.0
 10
2.106761
 20
10.790768
 30
0.0
 10
2.081671
 20
10.801461
 30
0.0
 10
2.081671
 20
10.801405
 30
0.0
  0
LWPOLYLINE
  5
179
100
AcDbEntity
  8
Layer_1
 62
7
100
AcDbPolyline
 90
15
 70
0
 10
11.390828
 20
10.725671
 30
0.0
 10
11.398081
 20
10.709079
 30
0.0
 10
11.438934
 20
10.623815
 30
0.0
 10
11.494848
 20
10.548068
 30
0.0
 10
11.621544
 20
10.407564
 30
0.0
 10
11.648236
 20
10.405557
 30
0.0
 10
11.668859
 20
10.421549
 30
0.0
 10
11.697123
 20
10.470070
 30
0.0
 10
11.700357
 20
10.496885
 30
0.0
 10
11.690435
 20
10.520190
 30
0.0
 10
11.649287
 20
10.552973
 30
0.0
 10
11.526513
 20
10.649471
 30
0.0
 10
11.461263
 20
10.691974
 30
0.0
 10
11.390828
 20
10.725671
 30
0.0
 10
11.390828
 20
10.725671
 30
0.0
  0
LWPOLYLINE
  5
17a
100
AcDbEntity
  8
Layer_1
 62
7
100
AcDbPolyline
 90
14
 70
0
 10
3.311934
 20
10.656272
 30
0.0
 10
3.292738
 20
10.652991
 30
0.0
 10
3.279516
 20
10.642567
 30
0.0
 10
3.270116
 20
10.609580
 30
0.0
 10
3.281978
 20
10.575892
 30
0.0
 10
3.295333
 20
10.564592
 30
0.0
 10
3.313345
 20
10.560085
 30
0.0
 10
3.333805
 20
10.564361
 30
0.0
 10
3.348268
 20
10.575444
 30
0.0
 10
3.359408
 20
10.608846
 30
0.0
 10
3.347163
 20
10.641915
 30
0.0
 10
3.332397
 20
10.652581
 30
0.0
 10
3.311934
 20
10.656272
 30
0.0
 10
3.311934
 20
10.656272
 30
0.0
  0
LWPOLYLINE
  5
17b
100
AcDbEntity
  8
Layer_1
 62
7
100
AcDbPolyline
 90
18
 70
0
 10
12.830161
 20
10.587037
 30
0.0
 10
12.826633
 20
10.583456
 30
0.0
 10
12.807027
 20
10.557828
 30
0.0
 10
12.808507
 20
10.527705
 30
0.0
 10
12.824752
 20
10.499276
 30
0.0
 10
12.849437
 20
10.478726
 30
0.0
 10
12.994100
 20
10.349338
 30
0.0
 10
13.068484
 20
10.287030
 30
0.0
 10
13.149749
 20
10.233986
 30
0.0
 10
13.120370
 20
10.290325
 30
0.0
 10
13.118515
 20
10.319062
 30
0.0
 10
13.138827
 20
10.341857
 30
0.0
 10
13.144507
 20
10.375340
 30
0.0
 10
13.128191
 20
10.403384
 30
0.0
 10
13.070247
 20
10.441351
 30
0.0
 10
12.953601
 20
10.519898
 30
0.0
 10
12.830161
 20
10.587037
 30
0.0
 10
12.830161
 20
10.587037
 30
0.0
  0
LWPOLYLINE
  5
17c
100
AcDbEntity
  8
Layer_1
 62
7
100
AcDbPolyline
 90
17
 70
0
 10
0.636326
 20
10.575740
 30
0.0
 10
0.550841
 20
10.536283
 30
0.0
 10
0.471135
 20
10.485347
 30
0.0
 10
0.312589
 20
10.381489
 30
0.0
 10
0.304618
 20
10.366591
 30
0.0
 10
0.307411
 20
10.350375
 30
0.0
 10
0.318352
 20
10.337851
 30
0.0
 10
0.334828
 20
10.334031
 30
0.0
 10
0.371955
 20
10.294813
 30
0.0
 10
0.395130
 20
10.285733
 30
0.0
 10
0.420088
 20
10.295059
 30
0.0
 10
0.554097
 20
10.411738
 30
0.0
 10
0.618251
 20
10.472615
 30
0.0
 10
0.670221
 20
10.543493
 30
0.0
 10
0.659423
 20
10.565968
 30
0.0
 10
0.636326
 20
10.575740
 30
0.0
 10
0.636326
 20
10.575740
 30
0.0
  0
LWPOLYLINE
  5
17d
100
AcDbEntity
  8
Layer_1
 62
7
100
AcDbPolyline
 90
17
 70
0
 10
8.971534
 20
10.359662
 30
0.0
 10
8.972381
 20
10.341253
 30
0.0
 10
8.979411
 20
10.252283
 30
0.0
 10
8.999834
 20
10.165047
 30
0.0
 10
9.031380
 20
10.081385
 30
0.0
 10
9.071779
 20
10.003137
 30
0.0
 10
9.089451
 20
10.003320
 30
0.0
 10
9.099508
 20
10.015391
 30
0.0
 10
9.113605
 20
10.046517
 30
0.0
 10
9.142080
 20
10.062758
 30
0.0
 10
9.151094
 20
10.092360
 30
0.0
 10
9.144716
 20
10.125830
 30
0.0
 10
9.127010
 20
10.153674
 30
0.0
 10
9.056815
 20
10.262142
 30
0.0
 10
8.971675
 20
10.359662
 30
0.0
 10
8.971675
 20
10.359662
 30
0.0
 10
8.971534
 20
10.359662
 30
0.0
  0
LWPOLYLINE
  5
17e
100
AcDbEntity
  8
Layer_1
 62
7
100
AcDbPolyline
 90
17
 70
0
 10
4.476806
 20
10.333974
 30
0.0
 10
4.413104
 20
10.271741
 30
0.0
 10
4.363043
 20
10.197720
 30
0.0
 10
4.275610
 20
10.040565
 30
0.0
 10
4.295568
 20
10.039876
 30
0.0
 10
4.315467
 20
10.047054
 30
0.0
 10
4.334911
 20
10.051122
 30
0.0
 10
4.353504
 20
10.041101
 30
0.0
 10
4.380666
 20
10.034263
 30
0.0
 10
4.407038
 20
10.040947
 30
0.0
 10
4.426779
 20
10.058939
 30
0.0
 10
4.434050
 20
10.086022
 30
0.0
 10
4.476429
 20
10.205808
 30
0.0
 10
4.490315
 20
10.267334
 30
0.0
 10
4.490805
 20
10.329716
 30
0.0
 10
4.476806
 20
10.333960
 30
0.0
 10
4.476806
 20
10.333974
 30
0.0
  0
LWPOLYLINE
  5
17f
100
AcDbEntity
  8
Layer_1
 62
7
100
AcDbPolyline
 90
14
 70
0
 10
12.231906
 20
10.089787
 30
0.0
 10
12.212925
 20
10.085937
 30
0.0
 10
12.200195
 20
10.074869
 30
0.0
 10
12.192321
 20
10.040944
 30
0.0
 10
12.205947
 20
10.007752
 30
0.0
 10
12.220092
 20
9.997600
 30
0.0
 10
12.238736
 20
9.995034
 30
0.0
 10
12.257593
 20
10.000328
 30
0.0
 10
12.270530
 20
10.012094
 30
0.0
 10
12.279221
 20
10.045842
 30
0.0
 10
12.265962
 20
10.077874
 30
0.0
 10
12.251461
 20
10.087495
 30
0.0
 10
12.231906
 20
10.089787
 30
0.0
 10
12.231906
 20
10.089787
 30
0.0
  0
LWPOLYLINE
  5
180
100
AcDbEntity
  8
Layer_1
 62
7
100
AcDbPolyline
 90
14
 70
0
 10
7.603349
 20
10.027391
 30
0.0
 10
7.592935
 20
10.027052
 30
0.0
 10
7.574394
 20
10.021052
 30
0.0
 10
7.562698
 20
10.008206
 30
0.0
 10
7.557989
 20
9.972407
 30
0.0
 10
7.575091
 20
9.940517
 30
0.0
 10
7.590661
 20
9.932558
 30
0.0
 10
7.610292
 20
9.933399
 30
0.0
 10
7.637762
 20
9.953201
 30
0.0
 10
7.644507
 20
9.984000
 30
0.0
 10
7.632409
 20
10.012980
 30
0.0
 10
7.603349
 20
10.027326
 30
0.0
 10
7.603349
 20
10.027326
 30
0.0
 10
7.603349
 20
10.027391
 30
0.0
  0
LWPOLYLINE
  5
181
100
AcDbEntity
  8
Layer_1
 62
7
100
AcDbPolyline
 90
17
 70
0
 10
5.585404
 20
9.986158
 30
0.0
 10
5.578348
 20
9.975024
 30
0.0
 10
5.535824
 20
9.908873
 30
0.0
 10
5.503037
 20
9.837421
 30
0.0
 10
5.479288
 20
9.762382
 30
0.0
 10
5.463879
 20
9.685470
 30
0.0
 10
5.473951
 20
9.667495
 30
0.0
 10
5.489913
 20
9.655191
 30
0.0
 10
5.530822
 20
9.647389
 30
0.0
 10
5.569233
 20
9.661646
 30
0.0
 10
5.582073
 20
9.676915
 30
0.0
 10
5.587774
 20
9.697543
 30
0.0
 10
5.598806
 20
9.827378
 30
0.0
 10
5.601685
 20
9.892301
 30
0.0
 10
5.594237
 20
9.957165
 30
0.0
 10
5.585404
 20
9.986158
 30
0.0
 10
5.585404
 20
9.986158
 30
0.0
  0
LWPOLYLINE
  5
182
100
AcDbEntity
  8
Layer_1
 62
7
100
AcDbPolyline
 90
15
 70
0
 10
2.944058
 20
9.973040
 30
0.0
 10
2.928451
 20
9.963778
 30
0.0
 10
2.848061
 20
9.910849
 30
0.0
 10
2.779028
 20
9.844099
 30
0.0
 10
2.657292
 20
9.695226
 30
0.0
 10
2.664860
 20
9.666427
 30
0.0
 10
2.686890
 20
9.645597
 30
0.0
 10
2.744893
 20
9.626931
 30
0.0
 10
2.779669
 20
9.647851
 30
0.0
 10
2.802079
 20
9.681767
 30
0.0
 10
2.820371
 20
9.720153
 30
0.0
 10
2.842796
 20
9.754482
 30
0.0
 10
2.901788
 20
9.859985
 30
0.0
 10
2.944058
 20
9.973040
 30
0.0
 10
2.944058
 20
9.973040
 30
0.0
  0
LWPOLYLINE
  5
183
100
AcDbEntity
  8
Layer_1
 62
7
100
AcDbPolyline
 90
16
 70
0
 10
10.520821
 20
9.963117
 30
0.0
 10
10.524631
 20
9.946139
 30
0.0
 10
10.550210
 20
9.854143
 30
0.0
 10
10.592357
 20
9.768268
 30
0.0
 10
10.696617
 20
9.607585
 30
0.0
 10
10.718567
 20
9.604198
 30
0.0
 10
10.736241
 20
9.614755
 30
0.0
 10
10.766891
 20
9.646611
 30
0.0
 10
10.781064
 20
9.673267
 30
0.0
 10
10.780374
 20
9.702093
 30
0.0
 10
10.767375
 20
9.728533
 30
0.0
 10
10.744623
 20
9.748033
 30
0.0
 10
10.640988
 20
9.864707
 30
0.0
 10
10.584599
 20
9.918236
 30
0.0
 10
10.520821
 20
9.963117
 30
0.0
 10
10.520821
 20
9.963117
 30
0.0
  0
LWPOLYLINE
  5
184
100
AcDbEntity
  8
Layer_1
 62
7
100
AcDbPolyline
 90
16
 70
0
 10
6.701790
 20
9.959536
 30
0.0
 10
6.679692
 20
9.959254
 30
0.0
 10
6.652539
 20
9.946326
 30
0.0
 10
6.637831
 20
9.919299
 30
0.0
 10
6.640513
 20
9.891357
 30
0.0
 10
6.665524
 20
9.875688
 30
0.0
 10
6.709899
 20
9.868529
 30
0.0
 10
6.757127
 20
9.867684
 30
0.0
 10
6.799454
 20
9.880226
 30
0.0
 10
6.829129
 20
9.913226
 30
0.0
 10
6.816815
 20
9.942809
 30
0.0
 10
6.789416
 20
9.956070
 30
0.0
 10
6.723775
 20
9.957764
 30
0.0
 10
6.701790
 20
9.959429
 30
0.0
 10
6.701790
 20
9.959429
 30
0.0
 10
6.701790
 20
9.959536
 30
0.0
  0
LWPOLYLINE
  5
185
100
AcDbEntity
  8
Layer_1
 62
7
100
AcDbPolyline
 90
17
 70
0
 10
6.734358
 20
9.866324
 30
0.0
 10
6.728150
 20
9.850835
 30
0.0
 10
6.696314
 20
9.763677
 30
0.0
 10
6.679865
 20
9.672423
 30
0.0
 10
6.667331
 20
9.486427
 30
0.0
 10
6.688315
 20
9.484207
 30
0.0
 10
6.702552
 20
9.498326
 30
0.0
 10
6.715646
 20
9.514337
 30
0.0
 10
6.733201
 20
9.517791
 30
0.0
 10
6.764721
 20
9.522714
 30
0.0
 10
6.786919
 20
9.544002
 30
0.0
 10
6.796539
 20
9.574067
 30
0.0
 10
6.790323
 20
9.605325
 30
0.0
 10
6.773644
 20
9.738600
 30
0.0
 10
6.758883
 20
9.803857
 30
0.0
 10
6.734358
 20
9.866324
 30
0.0
 10
6.734358
 20
9.866324
 30
0.0
  0
LWPOLYLINE
  5
186
100
AcDbEntity
  8
Layer_1
 62
7
100
AcDbPolyline
 90
29
 70
0
 10
1.482542
 20
9.780776
 30
0.0
 10
1.469983
 20
9.780494
 30
0.0
 10
1.450187
 20
9.772590
 30
0.0
 10
1.438000
 20
9.755618
 30
0.0
 10
1.433994
 20
9.734355
 30
0.0
 10
1.438741
 20
9.713577
 30
0.0
 10
1.353721
 20
9.662615
 30
0.0
 10
1.278520
 20
9.598168
 30
0.0
 10
1.133094
 20
9.462554
 30
0.0
 10
1.102208
 20
9.422718
 30
0.0
 10
1.078964
 20
9.377887
 30
0.0
 10
1.132131
 20
9.409154
 30
0.0
 10
1.160780
 20
9.410712
 30
0.0
 10
1.184515
 20
9.391722
 30
0.0
 10
1.216368
 20
9.381281
 30
0.0
 10
1.245852
 20
9.393437
 30
0.0
 10
1.270696
 20
9.418461
 30
0.0
 10
1.288627
 20
9.446623
 30
0.0
 10
1.385877
 20
9.562132
 30
0.0
 10
1.473793
 20
9.684637
 30
0.0
 10
1.492559
 20
9.684102
 30
0.0
 10
1.507699
 20
9.691605
 30
0.0
 10
1.525125
 20
9.721622
 30
0.0
 10
1.522120
 20
9.756477
 30
0.0
 10
1.511721
 20
9.770027
 30
0.0
 10
1.494734
 20
9.777957
 30
0.0
 10
1.482542
 20
9.780666
 30
0.0
 10
1.482542
 20
9.780666
 30
0.0
 10
1.482542
 20
9.780776
 30
0.0
  0
LWPOLYLINE
  5
187
100
AcDbEntity
  8
Layer_1
 62
7
100
AcDbPolyline
 90
18
 70
0
 10
12.058876
 20
9.705423
 30
0.0
 10
12.055292
 20
9.703504
 30
0.0
 10
12.029912
 20
9.683347
 30
0.0
 10
12.025778
 20
9.653657
 30
0.0
 10
12.037234
 20
9.622625
 30
0.0
 10
12.058622
 20
9.598444
 30
0.0
 10
12.181586
 20
9.449349
 30
0.0
 10
12.246407
 20
9.377989
 30
0.0
 10
12.321145
 20
9.316772
 30
0.0
 10
12.297378
 20
9.376073
 30
0.0
 10
12.297289
 20
9.405461
 30
0.0
 10
12.317786
 20
9.428394
 30
0.0
 10
12.326830
 20
9.461550
 30
0.0
 10
12.313680
 20
9.491676
 30
0.0
 10
12.260806
 20
9.537588
 30
0.0
 10
12.164222
 20
9.626909
 30
0.0
 10
12.058876
 20
9.705434
 30
0.0
 10
12.058876
 20
9.705423
 30
0.0
  0
LWPOLYLINE
  5
188
100
AcDbEntity
  8
Layer_1
 62
7
100
AcDbPolyline
 90
13
 70
0
 10
8.019909
 20
9.654437
 30
0.0
 10
8.009551
 20
9.654155
 30
0.0
 10
7.989612
 20
9.649527
 30
0.0
 10
7.976975
 20
9.637234
 30
0.0
 10
7.971465
 20
9.600829
 30
0.0
 10
7.988731
 20
9.567303
 30
0.0
 10
8.004564
 20
9.558606
 30
0.0
 10
8.024481
 20
9.559015
 30
0.0
 10
8.054139
 20
9.577551
 30
0.0
 10
8.061554
 20
9.608781
 30
0.0
 10
8.049290
 20
9.638955
 30
0.0
 10
8.019909
 20
9.654321
 30
0.0
 10
8.019909
 20
9.654437
 30
0.0
  0
LWPOLYLINE
  5
189
100
AcDbEntity
  8
Layer_1
 62
7
100
AcDbPolyline
 90
16
 70
0
 10
3.934037
 20
9.376846
 30
0.0
 10
3.920292
 20
9.364829
 30
0.0
 10
3.851507
 20
9.299103
 30
0.0
 10
3.795603
 20
9.222366
 30
0.0
 10
3.705945
 20
9.054881
 30
0.0
 10
3.719385
 20
9.028178
 30
0.0
 10
3.744761
 20
9.011352
 30
0.0
 10
3.775465
 20
9.003902
 30
0.0
 10
3.804892
 20
9.005326
 30
0.0
 10
3.833071
 20
9.032661
 30
0.0
 10
3.847910
 20
9.069063
 30
0.0
 10
3.858589
 20
9.108502
 30
0.0
 10
3.874290
 20
9.144950
 30
0.0
 10
3.913075
 20
9.258676
 30
0.0
 10
3.934037
 20
9.376846
 30
0.0
 10
3.934037
 20
9.376846
 30
0.0
  0
LWPOLYLINE
  5
18a
100
AcDbEntity
  8
Layer_1
 62
7
100
AcDbPolyline
 90
17
 70
0
 10
9.526891
 20
9.374983
 30
0.0
 10
9.527738
 20
9.357068
 30
0.0
 10
9.535886
 20
9.263038
 30
0.0
 10
9.561132
 20
9.172450
 30
0.0
 10
9.635716
 20
8.998945
 30
0.0
 10
9.648948
 20
8.985996
 30
0.0
 10
9.666880
 20
8.980445
 30
0.0
 10
9.682071
 20
8.985039
 30
0.0
 10
9.687080
 20
9.002526
 30
0.0
 10
9.729283
 20
9.037352
 30
0.0
 10
9.739289
 20
9.060220
 30
0.0
 10
9.730147
 20
9.085982
 30
0.0
 10
9.638407
 20
9.237914
 30
0.0
 10
9.587570
 20
9.310305
 30
0.0
 10
9.526919
 20
9.374983
 30
0.0
 10
9.526919
 20
9.374983
 30
0.0
 10
9.526891
 20
9.374983
 30
0.0
  0
LWPOLYLINE
  5
18b
100
AcDbEntity
  8
Layer_1
 62
7
100
AcDbPolyline
 90
11
 70
0
 10
9.307604
 20
9.354864
 30
0.0
 10
9.278357
 20
9.342702
 30
0.0
 10
9.268972
 20
9.314110
 30
0.0
 10
9.277922
 20
9.283406
 30
0.0
 10
9.303681
 20
9.264905
 30
0.0
 10
9.334335
 20
9.270499
 30
0.0
 10
9.351913
 20
9.295067
 30
0.0
 10
9.352410
 20
9.325734
 30
0.0
 10
9.331819
 20
9.349626
 30
0.0
 10
9.307604
 20
9.354864
 30
0.0
 10
9.307604
 20
9.354864
 30
0.0
  0
LWPOLYLINE
  5
18c
100
AcDbEntity
  8
Layer_1
 62
7
100
AcDbPolyline
 90
13
 70
0
 10
2.361353
 20
9.071208
 30
0.0
 10
2.343551
 20
9.068390
 30
0.0
 10
2.331195
 20
9.058901
 30
0.0
 10
2.322124
 20
9.028393
 30
0.0
 10
2.332739
 20
8.996652
 30
0.0
 10
2.361636
 20
8.980643
 30
0.0
 10
2.393290
 20
8.986529
 30
0.0
 10
2.409807
 20
9.012446
 30
0.0
 10
2.408328
 20
9.044137
 30
0.0
 10
2.385991
 20
9.067350
 30
0.0
 10
2.361636
 20
9.071208
 30
0.0
 10
2.361353
 20
9.071208
 30
0.0
 10
2.361353
 20
9.071208
 30
0.0
  0
LWPOLYLINE
  5
18d
100
AcDbEntity
  8
Layer_1
 62
7
100
AcDbPolyline
 90
23
 70
0
 10
5.006792
 20
9.039071
 30
0.0
 10
4.976253
 20
9.027669
 30
0.0
 10
4.963739
 20
8.998435
 30
0.0
 10
4.969596
 20
8.965790
 30
0.0
 10
4.994176
 20
8.944154
 30
0.0
 10
4.942435
 20
8.869052
 30
0.0
 10
4.904539
 20
8.786012
 30
0.0
 10
4.846292
 20
8.613203
 30
0.0
 10
4.857246
 20
8.591222
 30
0.0
 10
4.878913
 20
8.580406
 30
0.0
 10
4.929632
 20
8.573241
 30
0.0
 10
4.955562
 20
8.580431
 30
0.0
 10
4.972650
 20
8.598814
 30
0.0
 10
4.983367
 20
8.650025
 30
0.0
 10
5.008926
 20
8.795410
 30
0.0
 10
5.018504
 20
8.942390
 30
0.0
 10
5.036315
 20
8.949601
 30
0.0
 10
5.048225
 20
8.962388
 30
0.0
 10
5.055129
 20
8.996325
 30
0.0
 10
5.040792
 20
9.027464
 30
0.0
 10
5.026151
 20
9.036755
 30
0.0
 10
5.006792
 20
9.039071
 30
0.0
 10
5.006792
 20
9.039071
 30
0.0
  0
LWPOLYLINE
  5
18e
100
AcDbEntity
  8
Layer_1
 62
7
100
AcDbPolyline
 90
19
 70
0
 10
8.446431
 20
8.963667
 30
0.0
 10
8.443891
 20
8.945695
 30
0.0
 10
8.443891
 20
8.945695
 30
0.0
 10
8.435254
 20
8.850079
 30
0.0
 10
8.444389
 20
8.754785
 30
0.0
 10
8.486225
 20
8.567672
 30
0.0
 10
8.499769
 20
8.556248
 30
0.0
 10
8.517509
 20
8.553679
 30
0.0
 10
8.533683
 20
8.560022
 30
0.0
 10
8.542528
 20
8.575335
 30
0.0
 10
8.568625
 20
8.583973
 30
0.0
 10
8.589398
 20
8.602040
 30
0.0
 10
8.598710
 20
8.626076
 30
0.0
 10
8.590421
 20
8.652616
 30
0.0
 10
8.529782
 20
8.813784
 30
0.0
 10
8.492929
 20
8.891339
 30
0.0
 10
8.446262
 20
8.963667
 30
0.0
 10
8.446262
 20
8.963667
 30
0.0
 10
8.446431
 20
8.963667
 30
0.0
  0
LWPOLYLINE
  5
18f
100
AcDbEntity
  8
Layer_1
 62
7
100
AcDbPolyline
 90
20
 70
0
 10
11.159208
 20
8.952697
 30
0.0
 10
11.154833
 20
8.950044
 30
0.0
 10
11.129395
 20
8.929242
 30
0.0
 10
11.123687
 20
8.898942
 30
0.0
 10
11.132493
 20
8.866508
 30
0.0
 10
11.150600
 20
8.839306
 30
0.0
 10
11.250112
 20
8.669323
 30
0.0
 10
11.301801
 20
8.585635
 30
0.0
 10
11.360714
 20
8.506811
 30
0.0
 10
11.351916
 20
8.573840
 30
0.0
 10
11.358849
 20
8.604459
 30
0.0
 10
11.384816
 20
8.624221
 30
0.0
 10
11.402200
 20
8.650554
 30
0.0
 10
11.397647
 20
8.680067
 30
0.0
 10
11.379828
 20
8.708156
 30
0.0
 10
11.357412
 20
8.730218
 30
0.0
 10
11.264427
 20
8.847199
 30
0.0
 10
11.214696
 20
8.902766
 30
0.0
 10
11.159208
 20
8.952688
 30
0.0
 10
11.159208
 20
8.952697
 30
0.0
  0
LWPOLYLINE
  5
190
100
AcDbEntity
  8
Layer_1
 62
7
100
AcDbPolyline
 90
21
 70
0
 10
2.319302
 20
8.942994
 30
0.0
 10
2.257063
 20
8.899272
 30
0.0
 10
2.206689
 20
8.841936
 30
0.0
 10
2.160155
 20
8.780105
 30
0.0
 10
2.109442
 20
8.722895
 30
0.0
 10
2.057770
 20
8.653786
 30
0.0
 10
2.020260
 20
8.576105
 30
0.0
 10
2.070516
 20
8.613605
 30
0.0
 10
2.097468
 20
8.624082
 30
0.0
 10
2.123779
 20
8.612156
 30
0.0
 10
2.156797
 20
8.602521
 30
0.0
 10
2.186570
 20
8.616176
 30
0.0
 10
2.210579
 20
8.643186
 30
0.0
 10
2.226310
 20
8.673616
 30
0.0
 10
2.260925
 20
8.735287
 30
0.0
 10
2.300344
 20
8.795398
 30
0.0
 10
2.333339
 20
8.857787
 30
0.0
 10
2.348682
 20
8.926292
 30
0.0
 10
2.336373
 20
8.938924
 30
0.0
 10
2.319302
 20
8.942994
 30
0.0
 10
2.319302
 20
8.942994
 30
0.0
  0
LWPOLYLINE
  5
191
100
AcDbEntity
  8
Layer_1
 62
7
100
AcDbPolyline
 90
16
 70
0
 10
0.779272
 20
8.857557
 30
0.0
 10
0.753328
 20
8.837613
 30
0.0
 10
0.749730
 20
8.806592
 30
0.0
 10
0.763437
 20
8.775366
 30
0.0
 10
0.789404
 20
8.754811
 30
0.0
 10
0.830248
 20
8.723848
 30
0.0
 10
0.852070
 20
8.710064
 30
0.0
 10
0.878247
 20
8.706083
 30
0.0
 10
0.905431
 20
8.716552
 30
0.0
 10
0.914188
 20
8.741404
 30
0.0
 10
0.907029
 20
8.769666
 30
0.0
 10
0.886460
 20
8.790363
 30
0.0
 10
0.836242
 20
8.832255
 30
0.0
 10
0.810732
 20
8.851171
 30
0.0
 10
0.779272
 20
8.857557
 30
0.0
 10
0.779272
 20
8.857557
 30
0.0
  0
LWPOLYLINE
  5
192
100
AcDbEntity
  8
Layer_1
 62
7
100
AcDbPolyline
 90
14
 70
0
 10
7.307749
 20
8.763411
 30
0.0
 10
7.302274
 20
8.746486
 30
0.0
 10
7.276760
 20
8.654791
 30
0.0
 10
7.269043
 20
8.560208
 30
0.0
 10
7.273403
 20
8.369950
 30
0.0
 10
7.294437
 20
8.353442
 30
0.0
 10
7.320770
 20
8.352363
 30
0.0
 10
7.374213
 20
8.366699
 30
0.0
 10
7.396693
 20
8.399352
 30
0.0
 10
7.396254
 20
8.438729
 30
0.0
 10
7.378587
 20
8.518890
 30
0.0
 10
7.353032
 20
8.644179
 30
0.0
 10
7.307749
 20
8.763411
 30
0.0
 10
7.307749
 20
8.763411
 30
0.0
  0
LWPOLYLINE
  5
193
100
AcDbEntity
  8
Layer_1
 62
7
100
AcDbPolyline
 90
14
 70
0
 10
6.151513
 20
8.761661
 30
0.0
 10
6.143018
 20
8.745673
 30
0.0
 10
6.101659
 20
8.659484
 30
0.0
 10
6.076745
 20
8.567416
 30
0.0
 10
6.049970
 20
8.378290
 30
0.0
 10
6.068164
 20
8.360313
 30
0.0
 10
6.093079
 20
8.355507
 30
0.0
 10
6.145332
 20
8.359328
 30
0.0
 10
6.172713
 20
8.385704
 30
0.0
 10
6.180183
 20
8.422307
 30
0.0
 10
6.177082
 20
8.500715
 30
0.0
 10
6.174733
 20
8.632378
 30
0.0
 10
6.151513
 20
8.761661
 30
0.0
 10
6.151513
 20
8.761661
 30
0.0
  0
LWPOLYLINE
  5
194
100
AcDbEntity
  8
Layer_1
 62
7
100
AcDbPolyline
 90
20
 70
0
 10
12.654647
 20
8.736743
 30
0.0
 10
12.650555
 20
8.731728
 30
0.0
 10
12.630690
 20
8.703273
 30
0.0
 10
12.631907
 20
8.670595
 30
0.0
 10
12.647634
 20
8.639062
 30
0.0
 10
12.671298
 20
8.614044
 30
0.0
 10
12.804842
 20
8.443979
 30
0.0
 10
12.875193
 20
8.362168
 30
0.0
 10
12.954621
 20
8.288882
 30
0.0
 10
12.932682
 20
8.351203
 30
0.0
 10
12.931908
 20
8.381900
 30
0.0
 10
12.951742
 20
8.406456
 30
0.0
 10
12.962477
 20
8.440103
 30
0.0
 10
12.950539
 20
8.471740
 30
0.0
 10
12.925600
 20
8.499136
 30
0.0
 10
12.897330
 20
8.520062
 30
0.0
 10
12.781608
 20
8.634993
 30
0.0
 10
12.720724
 20
8.689047
 30
0.0
 10
12.654647
 20
8.736743
 30
0.0
 10
12.654647
 20
8.736743
 30
0.0
  0
LWPOLYLINE
  5
195
100
AcDbEntity
  8
Layer_1
 62
7
100
AcDbPolyline
 90
12
 70
0
 10
3.502858
 20
8.405575
 30
0.0
 10
3.483444
 20
8.401123
 30
0.0
 10
3.470866
 20
8.389252
 30
0.0
 10
3.464479
 20
8.353959
 30
0.0
 10
3.480216
 20
8.321102
 30
0.0
 10
3.495294
 20
8.312278
 30
0.0
 10
3.514598
 20
8.312089
 30
0.0
 10
3.543863
 20
8.331548
 30
0.0
 10
3.550151
 20
8.364032
 30
0.0
 10
3.535728
 20
8.393916
 30
0.0
 10
3.502858
 20
8.405575
 30
0.0
 10
3.502858
 20
8.405575
 30
0.0
  0
LWPOLYLINE
  5
196
100
AcDbEntity
  8
Layer_1
 62
7
100
AcDbPolyline
 90
22
 70
0
 10
10.137450
 20
8.350398
 30
0.0
 10
10.137450
 20
8.350398
 30
0.0
 10
10.113955
 20
8.325590
 30
0.0
 10
10.109948
 20
8.292194
 30
0.0
 10
10.118853
 20
8.256701
 30
0.0
 10
10.134092
 20
8.225602
 30
0.0
 10
10.203889
 20
8.055061
 30
0.0
 10
10.242133
 20
7.971414
 30
0.0
 10
10.289371
 20
7.892337
 30
0.0
 10
10.287434
 20
7.951406
 30
0.0
 10
10.290478
 20
7.979486
 30
0.0
 10
10.307997
 20
8.000651
 30
0.0
 10
10.334169
 20
8.014472
 30
0.0
 10
10.343444
 20
8.040498
 30
0.0
 10
10.338898
 20
8.070385
 30
0.0
 10
10.323604
 20
8.095791
 30
0.0
 10
10.280179
 20
8.160530
 30
0.0
 10
10.242183
 20
8.229892
 30
0.0
 10
10.200017
 20
8.295758
 30
0.0
 10
10.144083
 20
8.350011
 30
0.0
 10
10.137450
 20
8.350463
 30
0.0
 10
10.137450
 20
8.350398
 30
0.0
  0
LWPOLYLINE
  5
197
100
AcDbEntity
  8
Layer_1
 62
7
100
AcDbPolyline
 90
19
 70
0
 10
3.330787
 20
8.346704
 30
0.0
 10
3.289391
 20
8.315264
 30
0.0
 10
3.257137
 20
8.273470
 30
0.0
 10
3.205226
 20
8.180294
 30
0.0
 10
3.136286
 20
8.065871
 30
0.0
 10
3.106928
 20
8.006276
 30
0.0
 10
3.088894
 20
7.941783
 30
0.0
 10
3.132938
 20
7.984724
 30
0.0
 10
3.157907
 20
7.998284
 30
0.0
 10
3.185216
 20
7.990124
 30
0.0
 10
3.218419
 20
7.985604
 30
0.0
 10
3.245263
 20
8.002927
 30
0.0
 10
3.264556
 20
8.032329
 30
0.0
 10
3.275104
 20
8.064041
 30
0.0
 10
3.329940
 20
8.196235
 30
0.0
 10
3.353106
 20
8.263240
 30
0.0
 10
3.358275
 20
8.333586
 30
0.0
 10
3.330787
 20
8.346704
 30
0.0
 10
3.330787
 20
8.346704
 30
0.0
  0
LWPOLYLINE
  5
198
100
AcDbEntity
  8
Layer_1
 62
7
100
AcDbPolyline
 90
18
 70
0
 10
0.358507
 20
8.246272
 30
0.0
 10
0.336691
 20
8.234918
 30
0.0
 10
0.290407
 20
8.216248
 30
0.0
 10
0.267008
 20
8.219998
 30
0.0
 10
0.247170
 20
8.235680
 30
0.0
 10
0.215268
 20
8.234620
 30
0.0
 10
0.190010
 20
8.214907
 30
0.0
 10
0.159202
 20
8.155148
 30
0.0
 10
0.119440
 20
8.067330
 30
0.0
 10
0.101619
 20
8.022765
 30
0.0
 10
0.092061
 20
7.975175
 30
0.0
 10
0.085690
 20
7.927318
 30
0.0
 10
0.090354
 20
7.916921
 30
0.0
 10
0.108656
 20
7.933008
 30
0.0
 10
0.180362
 20
8.003433
 30
0.0
 10
0.244916
 20
8.080421
 30
0.0
 10
0.358507
 20
8.246264
 30
0.0
 10
0.358507
 20
8.246272
 30
0.0
  0
LWPOLYLINE
  5
199
100
AcDbEntity
  8
Layer_1
 62
7
100
AcDbPolyline
 90
14
 70
0
 10
1.827107
 20
8.060624
 30
0.0
 10
1.827107
 20
8.060624
 30
0.0
 10
1.816523
 20
8.060341
 30
0.0
 10
1.796346
 20
8.056023
 30
0.0
 10
1.783325
 20
8.043672
 30
0.0
 10
1.776910
 20
8.006514
 30
0.0
 10
1.793604
 20
7.972140
 30
0.0
 10
1.809468
 20
7.963270
 30
0.0
 10
1.829731
 20
7.963824
 30
0.0
 10
1.858318
 20
7.983096
 30
0.0
 10
1.866699
 20
8.014969
 30
0.0
 10
1.855961
 20
8.045482
 30
0.0
 10
1.827191
 20
8.060672
 30
0.0
 10
1.827107
 20
8.060624
 30
0.0
  0
LWPOLYLINE
  5
19a
100
AcDbEntity
  8
Layer_1
 62
7
100
AcDbPolyline
 90
25
 70
0
 10
4.461425
 20
8.015369
 30
0.0
 10
4.461425
 20
8.015369
 30
0.0
 10
4.450616
 20
8.014748
 30
0.0
 10
4.426453
 20
8.004922
 30
0.0
 10
4.414090
 20
7.982561
 30
0.0
 10
4.414120
 20
7.955926
 30
0.0
 10
4.427135
 20
7.933279
 30
0.0
 10
4.368225
 20
7.848253
 30
0.0
 10
4.326350
 20
7.753786
 30
0.0
 10
4.290567
 20
7.656047
 30
0.0
 10
4.249928
 20
7.561209
 30
0.0
 10
4.252499
 20
7.542740
 30
0.0
 10
4.264932
 20
7.529390
 30
0.0
 10
4.281920
 20
7.525280
 30
0.0
 10
4.298160
 20
7.534530
 30
0.0
 10
4.352339
 20
7.526334
 30
0.0
 10
4.375757
 20
7.535477
 30
0.0
 10
4.387511
 20
7.560218
 30
0.0
 10
4.431930
 20
7.738858
 30
0.0
 10
4.462272
 20
7.920325
 30
0.0
 10
4.492890
 20
7.937046
 30
0.0
 10
4.501938
 20
7.968898
 30
0.0
 10
4.490942
 20
8.000234
 30
0.0
 10
4.461425
 20
8.015409
 30
0.0
 10
4.461425
 20
8.015369
 30
0.0
  0
LWPOLYLINE
  5
19b
100
AcDbEntity
  8
Layer_1
 62
7
100
AcDbPolyline
 90
20
 70
0
 10
11.753850
 20
7.990785
 30
0.0
 10
11.750096
 20
7.989458
 30
0.0
 10
11.722329
 20
7.972426
 30
0.0
 10
11.714371
 20
7.943168
 30
0.0
 10
11.721573
 20
7.910514
 30
0.0
 10
11.739287
 20
7.883295
 30
0.0
 10
11.850307
 20
7.696700
 30
0.0
 10
11.909134
 20
7.605623
 30
0.0
 10
11.978640
 20
7.522194
 30
0.0
 10
11.965411
 20
7.586408
 30
0.0
 10
11.968932
 20
7.616482
 30
0.0
 10
11.992356
 20
7.636847
 30
0.0
 10
12.007454
 20
7.669885
 30
0.0
 10
11.999327
 20
7.703872
 30
0.0
 10
11.977505
 20
7.735269
 30
0.0
 10
11.951518
 20
7.760539
 30
0.0
 10
11.858600
 20
7.881080
 30
0.0
 10
11.809536
 20
7.939029
 30
0.0
 10
11.753850
 20
7.990782
 30
0.0
 10
11.753850
 20
7.990785
 30
0.0
  0
LWPOLYLINE
  5
19c
100
AcDbEntity
  8
Layer_1
 62
7
100
AcDbPolyline
 90
14
 70
0
 10
8.823085
 20
7.986540
 30
0.0
 10
8.803907
 20
7.983063
 30
0.0
 10
8.790910
 20
7.972218
 30
0.0
 10
8.782452
 20
7.938377
 30
0.0
 10
8.795701
 20
7.904930
 30
0.0
 10
8.809837
 20
7.894576
 30
0.0
 10
8.828645
 20
7.891787
 30
0.0
 10
8.848002
 20
7.897273
 30
0.0
 10
8.861515
 20
7.909039
 30
0.0
 10
8.871236
 20
7.942485
 30
0.0
 10
8.858272
 20
7.974269
 30
0.0
 10
8.843427
 20
7.983960
 30
0.0
 10
8.823085
 20
7.986540
 30
0.0
 10
8.823085
 20
7.986540
 30
0.0
  0
LWPOLYLINE
  5
19d
100
AcDbEntity
  8
Layer_1
 62
7
100
AcDbPolyline
 90
16
 70
0
 10
1.901642
 20
7.983673
 30
0.0
 10
1.889619
 20
7.983673
 30
0.0
 10
1.867062
 20
7.976362
 30
0.0
 10
1.852602
 20
7.961398
 30
0.0
 10
1.845663
 20
7.919141
 30
0.0
 10
1.864187
 20
7.878158
 30
0.0
 10
1.881556
 20
7.864786
 30
0.0
 10
1.903561
 20
7.859704
 30
0.0
 10
1.924977
 20
7.861257
 30
0.0
 10
1.942984
 20
7.870858
 30
0.0
 10
1.965643
 20
7.905307
 30
0.0
 10
1.965283
 20
7.945259
 30
0.0
 10
1.954516
 20
7.961739
 30
0.0
 10
1.935649
 20
7.972923
 30
0.0
 10
1.901642
 20
7.983726
 30
0.0
 10
1.901642
 20
7.983673
 30
0.0
  0
LWPOLYLINE
  5
19e
100
AcDbEntity
  8
Layer_1
 62
7
100
AcDbPolyline
 90
16
 70
0
 10
9.030885
 20
7.973036
 30
0.0
 10
9.028910
 20
7.953467
 30
0.0
 10
9.029192
 20
7.953467
 30
0.0
 10
9.024127
 20
7.847065
 30
0.0
 10
9.040061
 20
7.742158
 30
0.0
 10
9.093115
 20
7.536198
 30
0.0
 10
9.117206
 20
7.523243
 30
0.0
 10
9.144614
 20
7.525661
 30
0.0
 10
9.196747
 20
7.548876
 30
0.0
 10
9.211151
 20
7.582785
 30
0.0
 10
9.203348
 20
7.618540
 30
0.0
 10
9.172674
 20
7.688276
 30
0.0
 10
9.110772
 20
7.835262
 30
0.0
 10
9.030942
 20
7.973036
 30
0.0
 10
9.030942
 20
7.973036
 30
0.0
 10
9.030885
 20
7.973036
 30
0.0
  0
LWPOLYLINE
  5
19f
100
AcDbEntity
  8
Layer_1
 62
7
100
AcDbPolyline
 90
19
 70
0
 10
13.371491
 20
7.849510
 30
0.0
 10
13.371491
 20
7.849510
 30
0.0
 10
13.367540
 20
7.847365
 30
0.0
 10
13.342318
 20
7.824144
 30
0.0
 10
13.339226
 20
7.792195
 30
0.0
 10
13.351872
 20
7.759265
 30
0.0
 10
13.373862
 20
7.733099
 30
0.0
 10
13.523782
 20
7.544456
 30
0.0
 10
13.601426
 20
7.452598
 30
0.0
 10
13.689048
 20
7.370009
 30
0.0
 10
13.667701
 20
7.432692
 30
0.0
 10
13.667938
 20
7.463296
 30
0.0
 10
13.689048
 20
7.487199
 30
0.0
 10
13.698266
 20
7.523528
 30
0.0
 10
13.683675
 20
7.556379
 30
0.0
 10
13.627523
 20
7.608357
 30
0.0
 10
13.504132
 20
7.734071
 30
0.0
 10
13.371491
 20
7.849569
 30
0.0
 10
13.371491
 20
7.849510
 30
0.0
  0
LWPOLYLINE
  5
1a0
100
AcDbEntity
  8
Layer_1
 62
7
100
AcDbPolyline
 90
15
 70
0
 10
5.585037
 20
7.706742
 30
0.0
 10
5.576147
 20
7.692521
 30
0.0
 10
5.532459
 20
7.616870
 30
0.0
 10
5.504014
 20
7.534344
 30
0.0
 10
5.476099
 20
7.362290
 30
0.0
 10
5.487659
 20
7.344428
 30
0.0
 10
5.504798
 20
7.333652
 30
0.0
 10
5.546326
 20
7.331437
 30
0.0
 10
5.581711
 20
7.351800
 30
0.0
 10
5.591171
 20
7.369247
 30
0.0
 10
5.591979
 20
7.390896
 30
0.0
 10
5.601494
 20
7.549604
 30
0.0
 10
5.599913
 20
7.628728
 30
0.0
 10
5.585037
 20
7.706742
 30
0.0
 10
5.585037
 20
7.706742
 30
0.0
  0
LWPOLYLINE
  5
1a1
100
AcDbEntity
  8
Layer_1
 62
7
100
AcDbPolyline
 90
18
 70
0
 10
7.905637
 20
7.666616
 30
0.0
 10
7.880535
 20
7.637244
 30
0.0
 10
7.872162
 20
7.599169
 30
0.0
 10
7.873887
 20
7.518503
 30
0.0
 10
7.884689
 20
7.379737
 30
0.0
 10
7.901291
 20
7.242676
 30
0.0
 10
7.914642
 20
7.234904
 30
0.0
 10
7.929785
 20
7.236130
 30
0.0
 10
7.951611
 20
7.257284
 30
0.0
 10
7.979870
 20
7.262250
 30
0.0
 10
8.004877
 20
7.276771
 30
0.0
 10
8.019020
 20
7.299201
 30
0.0
 10
8.014688
 20
7.327893
 30
0.0
 10
7.977360
 20
7.500144
 30
0.0
 10
7.953589
 20
7.584636
 30
0.0
 10
7.917998
 20
7.663969
 30
0.0
 10
7.905637
 20
7.666622
 30
0.0
 10
7.905637
 20
7.666616
 30
0.0
  0
LWPOLYLINE
  5
1a2
100
AcDbEntity
  8
Layer_1
 62
7
100
AcDbPolyline
 90
16
 70
0
 10
6.745845
 20
7.615297
 30
0.0
 10
6.737999
 20
7.596611
 30
0.0
 10
6.701143
 20
7.495840
 30
0.0
 10
6.684405
 20
7.390131
 30
0.0
 10
6.674076
 20
7.175868
 30
0.0
 10
6.694703
 20
7.148241
 30
0.0
 10
6.710513
 20
7.144779
 30
0.0
 10
6.725045
 20
7.154205
 30
0.0
 10
6.751936
 20
7.152572
 30
0.0
 10
6.778717
 20
7.159363
 30
0.0
 10
6.797761
 20
7.175703
 30
0.0
 10
6.801443
 20
7.202713
 30
0.0
 10
6.785878
 20
7.410915
 30
0.0
 10
6.771098
 20
7.514056
 30
0.0
 10
6.745845
 20
7.615297
 30
0.0
 10
6.745845
 20
7.615297
 30
0.0
  0
LWPOLYLINE
  5
1a3
100
AcDbEntity
  8
Layer_1
 62
7
100
AcDbPolyline
 90
16
 70
0
 10
1.190696
 20
7.498824
 30
0.0
 10
1.143157
 20
7.457691
 30
0.0
 10
1.102783
 20
7.409558
 30
0.0
 10
1.033413
 20
7.304686
 30
0.0
 10
1.041286
 20
7.274756
 30
0.0
 10
1.068246
 20
7.260757
 30
0.0
 10
1.099937
 20
7.264038
 30
0.0
 10
1.122003
 20
7.285946
 30
0.0
 10
1.202355
 20
7.351062
 30
0.0
 10
1.239307
 20
7.386465
 30
0.0
 10
1.265033
 20
7.430365
 30
0.0
 10
1.255890
 20
7.455647
 30
0.0
 10
1.238754
 20
7.478082
 30
0.0
 10
1.216174
 20
7.493773
 30
0.0
 10
1.190696
 20
7.498824
 30
0.0
 10
1.190696
 20
7.498824
 30
0.0
  0
LWPOLYLINE
  5
1a4
100
AcDbEntity
  8
Layer_1
 62
7
100
AcDbPolyline
 90
14
 70
0
 10
5.555883
 20
7.302371
 30
0.0
 10
5.545723
 20
7.302089
 30
0.0
 10
5.527927
 20
7.296967
 30
0.0
 10
5.516278
 20
7.285227
 30
0.0
 10
5.510142
 20
7.251583
 30
0.0
 10
5.524760
 20
7.220538
 30
0.0
 10
5.539053
 20
7.212046
 30
0.0
 10
5.557576
 20
7.211471
 30
0.0
 10
5.586442
 20
7.228240
 30
0.0
 10
5.594787
 20
7.258185
 30
0.0
 10
5.584104
 20
7.287497
 30
0.0
 10
5.555883
 20
7.302366
 30
0.0
 10
5.555883
 20
7.302366
 30
0.0
 10
5.555883
 20
7.302371
 30
0.0
  0
LWPOLYLINE
  5
1a5
100
AcDbEntity
  8
Layer_1
 62
7
100
AcDbPolyline
 90
19
 70
0
 10
12.456216
 20
7.111815
 30
0.0
 10
12.452350
 20
7.110489
 30
0.0
 10
12.424477
 20
7.093214
 30
0.0
 10
12.416818
 20
7.063705
 30
0.0
 10
12.424442
 20
7.030841
 30
0.0
 10
12.442416
 20
7.003498
 30
0.0
 10
12.572270
 20
6.795271
 30
0.0
 10
12.640175
 20
6.693193
 30
0.0
 10
12.717639
 20
6.598024
 30
0.0
 10
12.704590
 20
6.663508
 30
0.0
 10
12.708650
 20
6.694008
 30
0.0
 10
12.733133
 20
6.714991
 30
0.0
 10
12.745201
 20
6.750915
 30
0.0
 10
12.733327
 20
6.785658
 30
0.0
 10
12.683800
 20
6.845739
 30
0.0
 10
12.575819
 20
6.984084
 30
0.0
 10
12.519649
 20
7.051298
 30
0.0
 10
12.456216
 20
7.111809
 30
0.0
 10
12.456216
 20
7.111815
 30
0.0
  0
LWPOLYLINE
  5
1a6
100
AcDbEntity
  8
Layer_1
 62
7
100
AcDbPolyline
 90
10
 70
0
 10
13.960687
 20
6.864650
 30
0.0
 10
13.957102
 20
6.863493
 30
0.0
 10
13.929553
 20
6.850906
 30
0.0
 10
13.920689
 20
6.824561
 30
0.0
 10
13.926948
 20
6.794255
 30
0.0
 10
13.944769
 20
6.769787
 30
0.0
 10
14.000000
 20
6.699728
 30
0.0
 10
14.000000
 20
6.832847
 30
0.0
 10
13.960687
 20
6.864650
 30
0.0
 10
13.960687
 20
6.864650
 30
0.0
  0
LWPOLYLINE
  5
1a7
100
AcDbEntity
  8
Layer_1
 62
7
100
AcDbPolyline
 90
13
 70
0
 10
8.595050
 20
6.732802
 30
0.0
 10
8.353235
 20
6.674965
 30
0.0
 10
8.112732
 20
6.611644
 30
0.0
 10
8.137514
 20
6.569390
 30
0.0
 10
8.179950
 20
6.548150
 30
0.0
 10
8.230080
 20
6.544504
 30
0.0
 10
8.277945
 20
6.555033
 30
0.0
 10
8.658888
 20
6.608776
 30
0.0
 10
8.646686
 20
6.687494
 30
0.0
 10
8.632063
 20
6.720674
 30
0.0
 10
8.617139
 20
6.730163
 30
0.0
 10
8.595050
 20
6.732802
 30
0.0
 10
8.595050
 20
6.732802
 30
0.0
  0
LWPOLYLINE
  5
1a8
100
AcDbEntity
  8
Layer_1
 62
7
100
AcDbPolyline
 90
16
 70
0
 10
7.932505
 20
6.599240
 30
0.0
 10
7.480102
 20
6.560658
 30
0.0
 10
7.471883
 20
6.536412
 30
0.0
 10
7.473784
 20
6.512844
 30
0.0
 10
7.500444
 20
6.473117
 30
0.0
 10
7.545063
 20
6.452231
 30
0.0
 10
7.569415
 20
6.452214
 30
0.0
 10
7.592624
 20
6.460940
 30
0.0
 10
7.791020
 20
6.487568
 30
0.0
 10
7.889725
 20
6.502548
 30
0.0
 10
7.985139
 20
6.527914
 30
0.0
 10
7.991365
 20
6.554724
 30
0.0
 10
7.981036
 20
6.578777
 30
0.0
 10
7.959600
 20
6.595230
 30
0.0
 10
7.932505
 20
6.599240
 30
0.0
 10
7.932505
 20
6.599240
 30
0.0
  0
LWPOLYLINE
  5
1a9
100
AcDbEntity
  8
Layer_1
 62
7
100
AcDbPolyline
 90
12
 70
0
 10
1.977983
 20
6.568484
 30
0.0
 10
1.867126
 20
6.486812
 30
0.0
 10
1.773372
 20
6.388017
 30
0.0
 10
1.785664
 20
6.363799
 30
0.0
 10
1.810942
 20
6.357445
 30
0.0
 10
1.866420
 20
6.370818
 30
0.0
 10
2.029573
 20
6.455871
 30
0.0
 10
2.043312
 20
6.489801
 30
0.0
 10
2.035771
 20
6.527704
 30
0.0
 10
2.012233
 20
6.557844
 30
0.0
 10
1.977983
 20
6.568484
 30
0.0
 10
1.977983
 20
6.568484
 30
0.0
  0
LWPOLYLINE
  5
1aa
100
AcDbEntity
  8
Layer_1
 62
7
100
AcDbPolyline
 90
17
 70
0
 10
0.575197
 20
6.467392
 30
0.0
 10
0.532372
 20
6.441945
 30
0.0
 10
0.498662
 20
6.405356
 30
0.0
 10
0.441198
 20
6.323026
 30
0.0
 10
0.443339
 20
6.296061
 30
0.0
 10
0.462372
 20
6.277973
 30
0.0
 10
0.488633
 20
6.273330
 30
0.0
 10
0.512459
 20
6.286702
 30
0.0
 10
0.605000
 20
6.351287
 30
0.0
 10
0.643706
 20
6.392332
 30
0.0
 10
0.675527
 20
6.439113
 30
0.0
 10
0.638037
 20
6.428134
 30
0.0
 10
0.621254
 20
6.434970
 30
0.0
 10
0.608612
 20
6.451627
 30
0.0
 10
0.593609
 20
6.463674
 30
0.0
 10
0.575197
 20
6.467392
 30
0.0
 10
0.575197
 20
6.467392
 30
0.0
  0
LWPOLYLINE
  5
1ab
100
AcDbEntity
  8
Layer_1
 62
7
100
AcDbPolyline
 90
14
 70
0
 10
1.644819
 20
6.417286
 30
0.0
 10
1.641094
 20
6.414464
 30
0.0
 10
1.618333
 20
6.391509
 30
0.0
 10
1.615620
 20
6.361323
 30
0.0
 10
1.626977
 20
6.330271
 30
0.0
 10
1.646428
 20
6.304716
 30
0.0
 10
1.671372
 20
6.268546
 30
0.0
 10
1.703186
 20
6.238456
 30
0.0
 10
1.778000
 20
6.192214
 30
0.0
 10
1.764485
 20
6.258777
 30
0.0
 10
1.738884
 20
6.322226
 30
0.0
 10
1.699546
 20
6.376934
 30
0.0
 10
1.644819
 20
6.417275
 30
0.0
 10
1.644819
 20
6.417286
 30
0.0
  0
LWPOLYLINE
  5
1ac
100
AcDbEntity
  8
Layer_1
 62
7
100
AcDbPolyline
 90
16
 70
0
 10
0.288403
 20
6.269449
 30
0.0
 10
0.288403
 20
6.269449
 30
0.0
 10
0.278638
 20
6.269449
 30
0.0
 10
0.252472
 20
6.249656
 30
0.0
 10
0.249308
 20
6.218423
 30
0.0
 10
0.263914
 20
6.187498
 30
0.0
 10
0.291056
 20
6.168634
 30
0.0
 10
0.306426
 20
6.159560
 30
0.0
 10
0.322120
 20
6.159153
 30
0.0
 10
0.348901
 20
6.177043
 30
0.0
 10
0.360235
 20
6.207706
 30
0.0
 10
0.356621
 20
6.223265
 30
0.0
 10
0.344960
 20
6.236542
 30
0.0
 10
0.318735
 20
6.257305
 30
0.0
 10
0.288403
 20
6.269506
 30
0.0
 10
0.288403
 20
6.269449
 30
0.0
  0
LWPOLYLINE
  5
1ad
100
AcDbEntity
  8
Layer_1
 62
7
100
AcDbPolyline
 90
19
 70
0
 10
13.040670
 20
6.127511
 30
0.0
 10
13.037030
 20
6.126354
 30
0.0
 10
13.010750
 20
6.109431
 30
0.0
 10
13.003389
 20
6.080748
 30
0.0
 10
13.010526
 20
6.048974
 30
0.0
 10
13.027745
 20
6.022782
 30
0.0
 10
13.166729
 20
5.796911
 30
0.0
 10
13.239347
 20
5.686207
 30
0.0
 10
13.323090
 20
5.583463
 30
0.0
 10
13.309505
 20
5.647905
 30
0.0
 10
13.312275
 20
5.678247
 30
0.0
 10
13.335226
 20
5.699383
 30
0.0
 10
13.350044
 20
5.733246
 30
0.0
 10
13.341205
 20
5.767788
 30
0.0
 10
13.292723
 20
5.825720
 30
0.0
 10
13.174581
 20
5.983683
 30
0.0
 10
13.112189
 20
6.059761
 30
0.0
 10
13.040670
 20
6.127511
 30
0.0
 10
13.040670
 20
6.127511
 30
0.0
  0
LWPOLYLINE
  5
1ae
100
AcDbEntity
  8
Layer_1
 62
7
100
AcDbPolyline
 90
13
 70
0
 10
0.477859
 20
6.039150
 30
0.0
 10
0.453029
 20
6.024476
 30
0.0
 10
0.445382
 20
5.995855
 30
0.0
 10
0.454467
 20
5.966447
 30
0.0
 10
0.479834
 20
5.949412
 30
0.0
 10
0.511156
 20
5.954710
 30
0.0
 10
0.529237
 20
5.979552
 30
0.0
 10
0.529856
 20
6.010643
 30
0.0
 10
0.508790
 20
6.034686
 30
0.0
 10
0.487511
 20
6.039040
 30
0.0
 10
0.477915
 20
6.039040
 30
0.0
 10
0.477915
 20
6.039040
 30
0.0
 10
0.477859
 20
6.039150
 30
0.0
  0
LWPOLYLINE
  5
1af
100
AcDbEntity
  8
Layer_1
 62
7
100
AcDbPolyline
 90
13
 70
0
 10
1.924727
 20
5.962753
 30
0.0
 10
1.905300
 20
5.959670
 30
0.0
 10
1.892242
 20
5.948942
 30
0.0
 10
1.884024
 20
5.914987
 30
0.0
 10
1.897660
 20
5.881764
 30
0.0
 10
1.911920
 20
5.871951
 30
0.0
 10
1.930739
 20
5.870150
 30
0.0
 10
1.962045
 20
5.887437
 30
0.0
 10
1.970881
 20
5.919646
 30
0.0
 10
1.958143
 20
5.950257
 30
0.0
 10
1.943964
 20
5.959802
 30
0.0
 10
1.924727
 20
5.962753
 30
0.0
 10
1.924727
 20
5.962753
 30
0.0
  0
LWPOLYLINE
  5
1b0
100
AcDbEntity
  8
Layer_1
 62
7
100
AcDbPolyline
 90
18
 70
0
 10
8.829040
 20
5.861494
 30
0.0
 10
8.822436
 20
5.859067
 30
0.0
 10
8.821872
 20
5.858729
 30
0.0
 10
8.761744
 20
5.849018
 30
0.0
 10
8.735154
 20
5.838158
 30
0.0
 10
8.720243
 20
5.812314
 30
0.0
 10
8.730442
 20
5.721772
 30
0.0
 10
8.737869
 20
5.676980
 30
0.0
 10
8.755775
 20
5.635542
 30
0.0
 10
8.783235
 20
5.626713
 30
0.0
 10
8.808406
 20
5.637927
 30
0.0
 10
8.825042
 20
5.661687
 30
0.0
 10
8.826895
 20
5.690496
 30
0.0
 10
8.838554
 20
5.776150
 30
0.0
 10
8.837924
 20
5.819156
 30
0.0
 10
8.829153
 20
5.861429
 30
0.0
 10
8.829153
 20
5.861429
 30
0.0
 10
8.829040
 20
5.861494
 30
0.0
  0
LWPOLYLINE
  5
1b1
100
AcDbEntity
  8
Layer_1
 62
7
100
AcDbPolyline
 90
16
 70
0
 10
10.093762
 20
5.736921
 30
0.0
 10
10.072737
 20
5.721761
 30
0.0
 10
10.026999
 20
5.687149
 30
0.0
 10
10.001946
 20
5.677690
 30
0.0
 10
9.973959
 20
5.684115
 30
0.0
 10
9.942117
 20
5.673173
 30
0.0
 10
9.924814
 20
5.645337
 30
0.0
 10
9.915991
 20
5.576295
 30
0.0
 10
9.907443
 20
5.510008
 30
0.0
 10
9.916677
 20
5.480115
 30
0.0
 10
9.943536
 20
5.461808
 30
0.0
 10
9.976837
 20
5.478426
 30
0.0
 10
9.997031
 20
5.509137
 30
0.0
 10
10.026819
 20
5.579602
 30
0.0
 10
10.093762
 20
5.736921
 30
0.0
 10
10.093762
 20
5.736921
 30
0.0
  0
LWPOLYLINE
  5
1b2
100
AcDbEntity
  8
Layer_1
 62
7
100
AcDbPolyline
 90
12
 70
0
 10
7.628043
 20
5.717792
 30
0.0
 10
7.622060
 20
5.714101
 30
0.0
 10
7.618899
 20
5.712182
 30
0.0
 10
7.588962
 20
5.695259
 30
0.0
 10
7.555022
 20
5.681815
 30
0.0
 10
7.527543
 20
5.663036
 30
0.0
 10
7.516989
 20
5.630106
 30
0.0
 10
7.572788
 20
5.506615
 30
0.0
 10
7.613537
 20
5.453744
 30
0.0
 10
7.669671
 20
5.416069
 30
0.0
 10
7.628043
 20
5.717804
 30
0.0
 10
7.628043
 20
5.717792
 30
0.0
  0
LWPOLYLINE
  5
1b3
100
AcDbEntity
  8
Layer_1
 62
7
100
AcDbPolyline
 90
13
 70
0
 10
11.999412
 20
5.559263
 30
0.0
 10
11.980015
 20
5.553367
 30
0.0
 10
11.968030
 20
5.540799
 30
0.0
 10
11.963732
 20
5.505182
 30
0.0
 10
11.981393
 20
5.471485
 30
0.0
 10
11.996859
 20
5.461315
 30
0.0
 10
12.015893
 20
5.458777
 30
0.0
 10
12.043891
 20
5.469477
 30
0.0
 10
12.056145
 20
5.494712
 30
0.0
 10
12.052874
 20
5.524236
 30
0.0
 10
12.034294
 20
5.547799
 30
0.0
 10
11.999412
 20
5.559263
 30
0.0
 10
11.999412
 20
5.559263
 30
0.0
  0
LWPOLYLINE
  5
1b4
100
AcDbEntity
  8
Layer_1
 62
7
100
AcDbPolyline
 90
16
 70
0
 10
8.793819
 20
5.509544
 30
0.0
 10
8.759980
 20
5.509092
 30
0.0
 10
8.681328
 20
5.503803
 30
0.0
 10
8.644081
 20
5.492210
 30
0.0
 10
8.611249
 20
5.470507
 30
0.0
 10
8.637134
 20
5.432796
 30
0.0
 10
8.678160
 20
5.415774
 30
0.0
 10
8.725680
 20
5.412490
 30
0.0
 10
8.771043
 20
5.415992
 30
0.0
 10
8.897761
 20
5.416909
 30
0.0
 10
8.959996
 20
5.428408
 30
0.0
 10
9.019992
 20
5.449010
 30
0.0
 10
8.967011
 20
5.475649
 30
0.0
 10
8.910980
 20
5.494219
 30
0.0
 10
8.793819
 20
5.509532
 30
0.0
 10
8.793819
 20
5.509544
 30
0.0
  0
LWPOLYLINE
  5
1b5
100
AcDbEntity
  8
Layer_1
 62
7
100
AcDbPolyline
 90
14
 70
0
 10
2.547930
 20
5.490197
 30
0.0
 10
2.416761
 20
5.424850
 30
0.0
 10
2.292830
 20
5.346659
 30
0.0
 10
2.324681
 20
5.330904
 30
0.0
 10
2.357581
 20
5.323473
 30
0.0
 10
2.425245
 20
5.327115
 30
0.0
 10
2.559078
 20
5.363087
 30
0.0
 10
2.582616
 20
5.369226
 30
0.0
 10
2.597849
 20
5.384237
 30
0.0
 10
2.605765
 20
5.428704
 30
0.0
 10
2.587550
 20
5.472140
 30
0.0
 10
2.570120
 20
5.485862
 30
0.0
 10
2.547930
 20
5.490197
 30
0.0
 10
2.547930
 20
5.490197
 30
0.0
  0
LWPOLYLINE
  5
1b6
100
AcDbEntity
  8
Layer_1
 62
7
100
AcDbPolyline
 90
16
 70
0
 10
1.281430
 20
5.476140
 30
0.0
 10
1.273923
 20
5.475491
 30
0.0
 10
1.207583
 20
5.438102
 30
0.0
 10
1.146725
 20
5.392260
 30
0.0
 10
1.091964
 20
5.339154
 30
0.0
 10
1.043912
 20
5.279973
 30
0.0
 10
1.223525
 20
5.329514
 30
0.0
 10
1.308850
 20
5.365050
 30
0.0
 10
1.384893
 20
5.418716
 30
0.0
 10
1.343847
 20
5.415579
 30
0.0
 10
1.327778
 20
5.426093
 30
0.0
 10
1.318232
 20
5.445668
 30
0.0
 10
1.303958
 20
5.466591
 30
0.0
 10
1.281430
 20
5.476097
 30
0.0
 10
1.281430
 20
5.476097
 30
0.0
 10
1.281430
 20
5.476140
 30
0.0
  0
LWPOLYLINE
  5
1b7
100
AcDbEntity
  8
Layer_1
 62
7
100
AcDbPolyline
 90
15
 70
0
 10
0.864249
 20
5.452989
 30
0.0
 10
0.867354
 20
5.435627
 30
0.0
 10
0.889878
 20
5.339111
 30
0.0
 10
0.927428
 20
5.247632
 30
0.0
 10
1.025708
 20
5.075573
 30
0.0
 10
1.049621
 20
5.070958
 30
0.0
 10
1.066934
 20
5.085586
 30
0.0
 10
1.075199
 20
5.109870
 30
0.0
 10
1.071965
 20
5.134222
 30
0.0
 10
1.057043
 20
5.197933
 30
0.0
 10
1.031498
 20
5.258349
 30
0.0
 10
0.963027
 20
5.370253
 30
0.0
 10
0.915956
 20
5.414298
 30
0.0
 10
0.864249
 20
5.452989
 30
0.0
 10
0.864249
 20
5.452989
 30
0.0
  0
LWPOLYLINE
  5
1b8
100
AcDbEntity
  8
Layer_1
 62
7
100
AcDbPolyline
 90
13
 70
0
 10
13.747863
 20
5.252843
 30
0.0
 10
13.747863
 20
5.252843
 30
0.0
 10
13.743009
 20
5.252843
 30
0.0
 10
13.716727
 20
5.233270
 30
0.0
 10
13.711336
 20
5.202834
 30
0.0
 10
13.720942
 20
5.169897
 30
0.0
 10
13.739650
 20
5.142818
 30
0.0
 10
14.000000
 20
4.734753
 30
0.0
 10
14.000000
 20
4.955076
 30
0.0
 10
13.881816
 20
5.108460
 30
0.0
 10
13.752604
 20
5.251849
 30
0.0
 10
13.747863
 20
5.252893
 30
0.0
 10
13.747863
 20
5.252843
 30
0.0
  0
LWPOLYLINE
  5
1b9
100
AcDbEntity
  8
Layer_1
 62
7
100
AcDbPolyline
 90
15
 70
0
 10
6.482419
 20
5.247164
 30
0.0
 10
6.478157
 20
5.241542
 30
0.0
 10
6.475899
 20
5.238511
 30
0.0
 10
6.455683
 20
5.213233
 30
0.0
 10
6.428447
 20
5.190958
 30
0.0
 10
6.407990
 20
5.166154
 30
0.0
 10
6.408110
 20
5.133285
 30
0.0
 10
6.494942
 20
5.026174
 30
0.0
 10
6.544746
 20
4.978732
 30
0.0
 10
6.601799
 20
4.940028
 30
0.0
 10
6.583087
 20
5.020692
 30
0.0
 10
6.555948
 20
5.098824
 30
0.0
 10
6.482475
 20
5.247164
 30
0.0
 10
6.482475
 20
5.247164
 30
0.0
 10
6.482419
 20
5.247164
 30
0.0
  0
LWPOLYLINE
  5
1ba
100
AcDbEntity
  8
Layer_1
 62
7
100
AcDbPolyline
 90
16
 70
0
 10
11.087580
 20
5.201470
 30
0.0
 10
11.087580
 20
5.201470
 30
0.0
 10
11.077222
 20
5.201470
 30
0.0
 10
11.041493
 20
5.170950
 30
0.0
 10
11.019483
 20
5.128527
 30
0.0
 10
10.983355
 20
5.038255
 30
0.0
 10
10.992311
 20
5.008323
 30
0.0
 10
11.018936
 20
4.994185
 30
0.0
 10
11.049403
 20
4.998017
 30
0.0
 10
11.069884
 20
5.021996
 30
0.0
 10
11.126121
 20
5.085660
 30
0.0
 10
11.145191
 20
5.122331
 30
0.0
 10
11.145972
 20
5.163271
 30
0.0
 10
11.121189
 20
5.189282
 30
0.0
 10
11.087580
 20
5.201526
 30
0.0
 10
11.087580
 20
5.201470
 30
0.0
  0
LWPOLYLINE
  5
1bb
100
AcDbEntity
  8
Layer_1
 62
7
100
AcDbPolyline
 90
10
 70
0
 10
12.413206
 20
4.927240
 30
0.0
 10
12.376192
 20
4.911934
 30
0.0
 10
12.360854
 20
4.874930
 30
0.0
 10
12.376182
 20
4.837892
 30
0.0
 10
12.413206
 20
4.822564
 30
0.0
 10
12.450205
 20
4.837911
 30
0.0
 10
12.465530
 20
4.874930
 30
0.0
 10
12.450205
 20
4.911914
 30
0.0
 10
12.413206
 20
4.927240
 30
0.0
 10
12.413206
 20
4.927240
 30
0.0
  0
LWPOLYLINE
  5
1bc
100
AcDbEntity
  8
Layer_1
 62
7
100
AcDbPolyline
 90
14
 70
0
 10
4.814993
 20
4.886284
 30
0.0
 10
4.795064
 20
4.882605
 30
0.0
 10
4.781672
 20
4.871393
 30
0.0
 10
4.773214
 20
4.836499
 30
0.0
 10
4.787049
 20
4.801858
 30
0.0
 10
4.801524
 20
4.790963
 30
0.0
 10
4.820610
 20
4.787726
 30
0.0
 10
4.840316
 20
4.793032
 30
0.0
 10
4.853883
 20
4.804986
 30
0.0
 10
4.863215
 20
4.839547
 30
0.0
 10
4.849839
 20
4.872838
 30
0.0
 10
4.835023
 20
4.883202
 30
0.0
 10
4.814993
 20
4.886284
 30
0.0
 10
4.814993
 20
4.886284
 30
0.0
  0
LWPOLYLINE
  5
1bd
100
AcDbEntity
  8
Layer_1
 62
7
100
AcDbPolyline
 90
6
 70
0
 10
12.876897
 20
4.822564
 30
0.0
 10
12.738806
 20
4.735747
 30
0.0
 10
12.786727
 20
4.659516
 30
0.0
 10
12.924790
 20
4.746330
 30
0.0
 10
12.876897
 20
4.822564
 30
0.0
 10
12.876897
 20
4.822564
 30
0.0
  0
LWPOLYLINE
  5
1be
100
AcDbEntity
  8
Layer_1
 62
7
100
AcDbPolyline
 90
12
 70
0
 10
3.616198
 20
4.702619
 30
0.0
 10
3.590562
 20
4.689399
 30
0.0
 10
3.580758
 20
4.661856
 30
0.0
 10
3.587052
 20
4.631943
 30
0.0
 10
3.609707
 20
4.611614
 30
0.0
 10
3.641791
 20
4.613118
 30
0.0
 10
3.663135
 20
4.635744
 30
0.0
 10
3.667805
 20
4.666921
 30
0.0
 10
3.649867
 20
4.694077
 30
0.0
 10
3.625624
 20
4.702233
 30
0.0
 10
3.616198
 20
4.702628
 30
0.0
 10
3.616198
 20
4.702619
 30
0.0
  0
LWPOLYLINE
  5
1bf
100
AcDbEntity
  8
Layer_1
 62
7
100
AcDbPolyline
 90
13
 70
0
 10
5.524218
 20
4.486324
 30
0.0
 10
5.520859
 20
4.480149
 30
0.0
 10
5.519166
 20
4.476952
 30
0.0
 10
5.503787
 20
4.448226
 30
0.0
 10
5.481962
 20
4.421522
 30
0.0
 10
5.466223
 20
4.393621
 30
0.0
 10
5.469100
 20
4.361308
 30
0.0
 10
5.523271
 20
4.316751
 30
0.0
 10
5.583340
 20
4.277845
 30
0.0
 10
5.648864
 20
4.251814
 30
0.0
 10
5.719403
 20
4.245882
 30
0.0
 10
5.524218
 20
4.486324
 30
0.0
 10
5.524218
 20
4.486324
 30
0.0
  0
LWPOLYLINE
  5
1c0
100
AcDbEntity
  8
Layer_1
 62
7
100
AcDbPolyline
 90
16
 70
0
 10
12.015131
 20
4.416979
 30
0.0
 10
12.004858
 20
4.416359
 30
0.0
 10
11.969110
 20
4.391560
 30
0.0
 10
11.939595
 20
4.359533
 30
0.0
 10
11.894735
 20
4.285114
 30
0.0
 10
11.906225
 20
4.257120
 30
0.0
 10
11.933188
 20
4.247031
 30
0.0
 10
11.964363
 20
4.252442
 30
0.0
 10
11.988490
 20
4.270949
 30
0.0
 10
12.022480
 20
4.292935
 30
0.0
 10
12.048046
 20
4.326107
 30
0.0
 10
12.057133
 20
4.364360
 30
0.0
 10
12.041688
 20
4.401587
 30
0.0
 10
12.015131
 20
4.416912
 30
0.0
 10
12.015131
 20
4.416912
 30
0.0
 10
12.015131
 20
4.416979
 30
0.0
  0
LWPOLYLINE
  5
1c1
100
AcDbEntity
  8
Layer_1
 62
7
100
AcDbPolyline
 90
13
 70
0
 10
1.682919
 20
4.331266
 30
0.0
 10
1.545396
 20
4.282177
 30
0.0
 10
1.481239
 20
4.247639
 30
0.0
 10
1.422964
 20
4.203549
 30
0.0
 10
1.602243
 20
4.202625
 30
0.0
 10
1.690653
 20
4.212360
 30
0.0
 10
1.775319
 20
4.241254
 30
0.0
 10
1.749984
 20
4.247199
 30
0.0
 10
1.736005
 20
4.264838
 30
0.0
 10
1.721330
 20
4.312193
 30
0.0
 10
1.705321
 20
4.327794
 30
0.0
 10
1.682919
 20
4.331266
 30
0.0
 10
1.682919
 20
4.331266
 30
0.0
  0
LWPOLYLINE
  5
1c2
100
AcDbEntity
  8
Layer_1
 62
7
100
AcDbPolyline
 90
13
 70
0
 10
0.109418
 20
4.326857
 30
0.0
 10
0.082689
 20
4.311096
 30
0.0
 10
0.074598
 20
4.279672
 30
0.0
 10
0.084827
 20
4.248014
 30
0.0
 10
0.113058
 20
4.231551
 30
0.0
 10
0.134341
 20
4.233802
 30
0.0
 10
0.150131
 20
4.243697
 30
0.0
 10
0.164532
 20
4.276622
 30
0.0
 10
0.154861
 20
4.310742
 30
0.0
 10
0.140561
 20
4.322130
 30
0.0
 10
0.119719
 20
4.326471
 30
0.0
 10
0.109418
 20
4.326866
 30
0.0
 10
0.109418
 20
4.326857
 30
0.0
  0
LWPOLYLINE
  5
1c3
100
AcDbEntity
  8
Layer_1
 62
7
100
AcDbPolyline
 90
13
 70
0
 10
8.254633
 20
4.317541
 30
0.0
 10
8.181203
 20
4.304957
 30
0.0
 10
8.111670
 20
4.278309
 30
0.0
 10
8.048969
 20
4.238369
 30
0.0
 10
7.996033
 20
4.185910
 30
0.0
 10
8.155397
 20
4.202603
 30
0.0
 10
8.231959
 20
4.224422
 30
0.0
 10
8.302018
 20
4.261977
 30
0.0
 10
8.306596
 20
4.284532
 30
0.0
 10
8.296370
 20
4.302867
 30
0.0
 10
8.277122
 20
4.314648
 30
0.0
 10
8.254633
 20
4.317541
 30
0.0
 10
8.254633
 20
4.317541
 30
0.0
  0
LWPOLYLINE
  5
1c4
100
AcDbEntity
  8
Layer_1
 62
7
100
AcDbPolyline
 90
15
 70
0
 10
2.873700
 20
4.316441
 30
0.0
 10
2.712226
 20
4.271586
 30
0.0
 10
2.634233
 20
4.241585
 30
0.0
 10
2.561675
 20
4.199637
 30
0.0
 10
2.661679
 20
4.185451
 30
0.0
 10
2.762504
 20
4.183287
 30
0.0
 10
2.964265
 20
4.195889
 30
0.0
 10
2.966130
 20
4.215246
 30
0.0
 10
2.954024
 20
4.227512
 30
0.0
 10
2.924161
 20
4.248476
 30
0.0
 10
2.923698
 20
4.272886
 30
0.0
 10
2.914826
 20
4.295982
 30
0.0
 10
2.898007
 20
4.312316
 30
0.0
 10
2.873700
 20
4.316441
 30
0.0
 10
2.873700
 20
4.316441
 30
0.0
  0
LWPOLYLINE
  5
1c5
100
AcDbEntity
  8
Layer_1
 62
7
100
AcDbPolyline
 90
13
 70
0
 10
5.901916
 20
4.310542
 30
0.0
 10
5.882245
 20
4.299188
 30
0.0
 10
5.784282
 20
4.242286
 30
0.0
 10
5.741660
 20
4.207202
 30
0.0
 10
5.717371
 20
4.157304
 30
0.0
 10
5.725619
 20
4.131360
 30
0.0
 10
5.748662
 20
4.121068
 30
0.0
 10
5.776775
 20
4.124305
 30
0.0
 10
5.800231
 20
4.138951
 30
0.0
 10
5.834927
 20
4.175585
 30
0.0
 10
5.860249
 20
4.218853
 30
0.0
 10
5.901916
 20
4.310542
 30
0.0
 10
5.901916
 20
4.310542
 30
0.0
  0
LWPOLYLINE
  5
1c6
100
AcDbEntity
  8
Layer_1
 62
7
100
AcDbPolyline
 90
15
 70
0
 10
9.294989
 20
4.310006
 30
0.0
 10
9.270126
 20
4.298471
 30
0.0
 10
9.262502
 20
4.272798
 30
0.0
 10
9.271403
 20
4.247085
 30
0.0
 10
9.296118
 20
4.235426
 30
0.0
 10
9.333063
 20
4.217965
 30
0.0
 10
9.374233
 20
4.208574
 30
0.0
 10
9.413621
 20
4.213739
 30
0.0
 10
9.445216
 20
4.239947
 30
0.0
 10
9.431559
 20
4.270714
 30
0.0
 10
9.403592
 20
4.288345
 30
0.0
 10
9.337012
 20
4.308188
 30
0.0
 10
9.295243
 20
4.309995
 30
0.0
 10
9.294961
 20
4.309995
 30
0.0
 10
9.294989
 20
4.310006
 30
0.0
  0
LWPOLYLINE
  5
1c7
100
AcDbEntity
  8
Layer_1
 62
7
100
AcDbPolyline
 90
12
 70
0
 10
11.731357
 20
4.240221
 30
0.0
 10
11.706219
 20
4.219703
 30
0.0
 10
11.703798
 20
4.188823
 30
0.0
 10
11.718522
 20
4.158327
 30
0.0
 10
11.744819
 20
4.138965
 30
0.0
 10
11.774671
 20
4.130306
 30
0.0
 10
11.801831
 20
4.145099
 30
0.0
 10
11.815197
 20
4.172411
 30
0.0
 10
11.803662
 20
4.201305
 30
0.0
 10
11.771891
 20
4.229695
 30
0.0
 10
11.731357
 20
4.240221
 30
0.0
 10
11.731357
 20
4.240221
 30
0.0
  0
LWPOLYLINE
  5
1c8
100
AcDbEntity
  8
Layer_1
 62
7
100
AcDbPolyline
 90
14
 70
0
 10
7.413808
 20
4.021225
 30
0.0
 10
7.403112
 20
4.020830
 30
0.0
 10
7.385254
 20
4.015111
 30
0.0
 10
7.373638
 20
4.003124
 30
0.0
 10
7.367764
 20
3.969546
 30
0.0
 10
7.382760
 20
3.938500
 30
0.0
 10
7.397232
 20
3.929678
 30
0.0
 10
7.415897
 20
3.928391
 30
0.0
 10
7.446652
 20
3.944771
 30
0.0
 10
7.455158
 20
3.975538
 30
0.0
 10
7.443539
 20
4.005938
 30
0.0
 10
7.413921
 20
4.021216
 30
0.0
 10
7.413921
 20
4.021216
 30
0.0
 10
7.413808
 20
4.021225
 30
0.0
  0
LWPOLYLINE
  5
1c9
100
AcDbEntity
  8
Layer_1
 62
7
100
AcDbPolyline
 90
12
 70
0
 10
5.392984
 20
3.719820
 30
0.0
 10
5.374279
 20
3.716808
 30
0.0
 10
5.361074
 20
3.707035
 30
0.0
 10
5.350574
 20
3.675559
 30
0.0
 10
5.360298
 20
3.642098
 30
0.0
 10
5.389062
 20
3.623356
 30
0.0
 10
5.420574
 20
3.630289
 30
0.0
 10
5.438637
 20
3.655492
 30
0.0
 10
5.439604
 20
3.686951
 30
0.0
 10
5.419824
 20
3.712654
 30
0.0
 10
5.392984
 20
3.719820
 30
0.0
 10
5.392984
 20
3.719820
 30
0.0
  0
LWPOLYLINE
  5
1ca
100
AcDbEntity
  8
Layer_1
 62
7
100
AcDbPolyline
 90
13
 70
0
 10
12.149130
 20
3.716292
 30
0.0
 10
12.138547
 20
3.714966
 30
0.0
 10
12.121332
 20
3.707920
 30
0.0
 10
12.110996
 20
3.694628
 30
0.0
 10
12.108642
 20
3.659398
 30
0.0
 10
12.126835
 20
3.629462
 30
0.0
 10
12.142185
 20
3.622788
 30
0.0
 10
12.160927
 20
3.625007
 30
0.0
 10
12.187881
 20
3.645699
 30
0.0
 10
12.193235
 20
3.676679
 30
0.0
 10
12.179485
 20
3.704644
 30
0.0
 10
12.149130
 20
3.716289
 30
0.0
 10
12.149130
 20
3.716292
 30
0.0
  0
LWPOLYLINE
  5
1cb
100
AcDbEntity
  8
Layer_1
 62
7
100
AcDbPolyline
 90
16
 70
0
 10
4.817674
 20
3.464110
 30
0.0
 10
4.797137
 20
3.457045
 30
0.0
 10
4.781651
 20
3.442666
 30
0.0
 10
4.767121
 20
3.401818
 30
0.0
 10
4.776669
 20
3.361277
 30
0.0
 10
4.791279
 20
3.347280
 30
0.0
 10
4.812877
 20
3.340750
 30
0.0
 10
4.889077
 20
3.314624
 30
0.0
 10
4.927605
 20
3.307194
 30
0.0
 10
4.964091
 20
3.316606
 30
0.0
 10
4.963829
 20
3.358767
 30
0.0
 10
4.940448
 20
3.392432
 30
0.0
 10
4.870111
 20
3.441676
 30
0.0
 10
4.846211
 20
3.458753
 30
0.0
 10
4.817674
 20
3.464110
 30
0.0
 10
4.817674
 20
3.464110
 30
0.0
  0
LWPOLYLINE
  5
1cc
100
AcDbEntity
  8
Layer_1
 62
7
100
AcDbPolyline
 90
16
 70
0
 10
12.737536
 20
3.448621
 30
0.0
 10
12.731101
 20
3.448339
 30
0.0
 10
12.663336
 20
3.411299
 30
0.0
 10
12.601437
 20
3.364996
 30
0.0
 10
12.545788
 20
3.311127
 30
0.0
 10
12.496772
 20
3.251388
 30
0.0
 10
12.676815
 20
3.300905
 30
0.0
 10
12.762440
 20
3.336333
 30
0.0
 10
12.839079
 20
3.389468
 30
0.0
 10
12.796432
 20
3.388636
 30
0.0
 10
12.780465
 20
3.400946
 30
0.0
 10
12.771120
 20
3.421881
 30
0.0
 10
12.757609
 20
3.439827
 30
0.0
 10
12.737536
 20
3.448559
 30
0.0
 10
12.737536
 20
3.448559
 30
0.0
 10
12.737536
 20
3.448621
 30
0.0
  0
LWPOLYLINE
  5
1cd
100
AcDbEntity
  8
Layer_1
 62
7
100
AcDbPolyline
 90
14
 70
0
 10
5.237875
 20
3.439415
 30
0.0
 10
5.223425
 20
3.428945
 30
0.0
 10
5.147163
 20
3.369786
 30
0.0
 10
5.087440
 20
3.294058
 30
0.0
 10
5.046518
 20
3.206673
 30
0.0
 10
5.026660
 20
3.112546
 30
0.0
 10
5.046552
 20
3.089613
 30
0.0
 10
5.076261
 20
3.087548
 30
0.0
 10
5.103090
 20
3.102558
 30
0.0
 10
5.114346
 20
3.130848
 30
0.0
 10
5.188800
 20
3.280449
 30
0.0
 10
5.218911
 20
3.358092
 30
0.0
 10
5.237875
 20
3.439415
 30
0.0
 10
5.237875
 20
3.439415
 30
0.0
  0
LWPOLYLINE
  5
1ce
100
AcDbEntity
  8
Layer_1
 62
7
100
AcDbPolyline
 90
15
 70
0
 10
12.317307
 20
3.423927
 30
0.0
 10
12.320270
 20
3.407005
 30
0.0
 10
12.344096
 20
3.309703
 30
0.0
 10
12.382123
 20
3.217009
 30
0.0
 10
12.483705
 20
3.044857
 30
0.0
 10
12.509644
 20
3.046235
 30
0.0
 10
12.524024
 20
3.066007
 30
0.0
 10
12.528333
 20
3.093986
 30
0.0
 10
12.524063
 20
3.119988
 30
0.0
 10
12.507093
 20
3.179810
 30
0.0
 10
12.481990
 20
3.236922
 30
0.0
 10
12.416677
 20
3.342955
 30
0.0
 10
12.369521
 20
3.386447
 30
0.0
 10
12.317307
 20
3.423927
 30
0.0
 10
12.317307
 20
3.423927
 30
0.0
  0
LWPOLYLINE
  5
1cf
100
AcDbEntity
  8
Layer_1
 62
7
100
AcDbPolyline
 90
14
 70
0
 10
6.558534
 20
3.306187
 30
0.0
 10
6.486599
 20
3.273666
 30
0.0
 10
6.421120
 20
3.228331
 30
0.0
 10
6.366605
 20
3.170992
 30
0.0
 10
6.327563
 20
3.102459
 30
0.0
 10
6.333303
 20
3.073872
 30
0.0
 10
6.354794
 20
3.054820
 30
0.0
 10
6.382058
 20
3.051319
 30
0.0
 10
6.405118
 20
3.069385
 30
0.0
 10
6.500714
 20
3.175772
 30
0.0
 10
6.541040
 20
3.234201
 30
0.0
 10
6.567734
 20
3.299518
 30
0.0
 10
6.558534
 20
3.306187
 30
0.0
 10
6.558534
 20
3.306187
 30
0.0
  0
LWPOLYLINE
  5
1d0
100
AcDbEntity
  8
Layer_1
 62
7
100
AcDbPolyline
 90
14
 70
0
 10
11.036723
 20
3.281605
 30
0.0
 10
11.033252
 20
3.278738
 30
0.0
 10
11.011056
 20
3.253635
 30
0.0
 10
11.011320
 20
3.222335
 30
0.0
 10
11.026819
 20
3.191537
 30
0.0
 10
11.050326
 20
3.167943
 30
0.0
 10
11.148127
 20
3.057919
 30
0.0
 10
11.261400
 20
2.964049
 30
0.0
 10
11.233788
 20
3.061090
 30
0.0
 10
11.187331
 20
3.151286
 30
0.0
 10
11.121740
 20
3.227238
 30
0.0
 10
11.036723
 20
3.281549
 30
0.0
 10
11.036723
 20
3.281549
 30
0.0
 10
11.036723
 20
3.281605
 30
0.0
  0
LWPOLYLINE
  5
1d1
100
AcDbEntity
  8
Layer_1
 62
7
100
AcDbPolyline
 90
12
 70
0
 10
8.757045
 20
3.231499
 30
0.0
 10
8.695602
 20
3.218549
 30
0.0
 10
8.636787
 20
3.196873
 30
0.0
 10
8.526752
 20
3.136249
 30
0.0
 10
8.737642
 20
3.122515
 30
0.0
 10
8.948872
 20
3.128531
 30
0.0
 10
8.937401
 20
3.173480
 30
0.0
 10
8.904355
 20
3.203301
 30
0.0
 10
8.859968
 20
3.220529
 30
0.0
 10
8.814477
 20
3.227695
 30
0.0
 10
8.757045
 20
3.231499
 30
0.0
 10
8.757045
 20
3.231499
 30
0.0
  0
LWPOLYLINE
  5
1d2
100
AcDbEntity
  8
Layer_1
 62
7
100
AcDbPolyline
 90
14
 70
0
 10
1.440660
 20
3.214521
 30
0.0
 10
1.429427
 20
3.213985
 30
0.0
 10
1.410925
 20
3.210396
 30
0.0
 10
1.398636
 20
3.199691
 30
0.0
 10
1.391398
 20
3.166691
 30
0.0
 10
1.405115
 20
3.134503
 30
0.0
 10
1.419019
 20
3.124813
 30
0.0
 10
1.437188
 20
3.122646
 30
0.0
 10
1.457940
 20
3.125089
 30
0.0
 10
1.472283
 20
3.134512
 30
0.0
 10
1.482951
 20
3.165503
 30
0.0
 10
1.471605
 20
3.198039
 30
0.0
 10
1.440660
 20
3.214535
 30
0.0
 10
1.440660
 20
3.214521
 30
0.0
  0
LWPOLYLINE
  5
1d3
100
AcDbEntity
  8
Layer_1
 62
7
100
AcDbPolyline
 90
14
 70
0
 10
3.319300
 20
3.140768
 30
0.0
 10
3.300451
 20
3.137410
 30
0.0
 10
3.287717
 20
3.127014
 30
0.0
 10
3.279443
 20
3.094457
 30
0.0
 10
3.292178
 20
3.061809
 30
0.0
 10
3.305704
 20
3.051297
 30
0.0
 10
3.323618
 20
3.047778
 30
0.0
 10
3.343576
 20
3.051964
 30
0.0
 10
3.357337
 20
3.062958
 30
0.0
 10
3.366946
 20
3.096008
 30
0.0
 10
3.353812
 20
3.128190
 30
0.0
 10
3.339143
 20
3.138100
 30
0.0
 10
3.319300
 20
3.140768
 30
0.0
 10
3.319300
 20
3.140768
 30
0.0
  0
LWPOLYLINE
  5
1d4
100
AcDbEntity
  8
Layer_1
 62
7
100
AcDbPolyline
 90
15
 70
0
 10
1.797473
 20
3.122028
 30
0.0
 10
1.665986
 20
3.109756
 30
0.0
 10
1.601362
 20
3.096951
 30
0.0
 10
1.540002
 20
3.072253
 30
0.0
 10
1.626684
 20
3.038429
 30
0.0
 10
1.716465
 20
3.012368
 30
0.0
 10
1.808325
 20
2.998404
 30
0.0
 10
1.901246
 20
3.000870
 30
0.0
 10
1.854814
 20
3.029273
 30
0.0
 10
1.843279
 20
3.052365
 30
0.0
 10
1.847032
 20
3.080079
 30
0.0
 10
1.842598
 20
3.097445
 30
0.0
 10
1.831079
 20
3.110833
 30
0.0
 10
1.797473
 20
3.122028
 30
0.0
 10
1.797473
 20
3.122028
 30
0.0
  0
LWPOLYLINE
  5
1d5
100
AcDbEntity
  8
Layer_1
 62
7
100
AcDbPolyline
 90
15
 70
0
 10
3.149318
 20
3.109294
 30
0.0
 10
3.149318
 20
3.109294
 30
0.0
 10
3.140400
 20
3.109294
 30
0.0
 10
2.973373
 20
3.098500
 30
0.0
 10
2.891035
 20
3.086019
 30
0.0
 10
2.811808
 20
3.059355
 30
0.0
 10
2.918413
 20
3.022705
 30
0.0
 10
3.028375
 20
2.998679
 30
0.0
 10
3.252244
 20
2.971051
 30
0.0
 10
3.203480
 20
3.012881
 30
0.0
 10
3.189828
 20
3.039572
 30
0.0
 10
3.193852
 20
3.071096
 30
0.0
 10
3.178507
 20
3.097770
 30
0.0
 10
3.149318
 20
3.109351
 30
0.0
 10
3.149318
 20
3.109294
 30
0.0
  0
LWPOLYLINE
  5
1d6
100
AcDbEntity
  8
Layer_1
 62
7
100
AcDbPolyline
 90
13
 70
0
 10
3.773565
 20
3.097497
 30
0.0
 10
3.763603
 20
3.097046
 30
0.0
 10
3.745593
 20
3.091901
 30
0.0
 10
3.734065
 20
3.080201
 30
0.0
 10
3.728784
 20
3.046817
 30
0.0
 10
3.744426
 20
3.016251
 30
0.0
 10
3.759051
 20
3.008073
 30
0.0
 10
3.777657
 20
3.007858
 30
0.0
 10
3.806069
 20
3.024751
 30
0.0
 10
3.813330
 20
3.054467
 30
0.0
 10
3.801732
 20
3.083286
 30
0.0
 10
3.773565
 20
3.097486
 30
0.0
 10
3.773565
 20
3.097497
 30
0.0
  0
LWPOLYLINE
  5
1d7
100
AcDbEntity
  8
Layer_1
 62
7
100
AcDbPolyline
 90
16
 70
0
 10
4.400578
 20
2.321827
 30
0.0
 10
4.378553
 20
2.313336
 30
0.0
 10
4.363997
 20
2.296701
 30
0.0
 10
4.356149
 20
2.251408
 30
0.0
 10
4.374750
 20
2.210774
 30
0.0
 10
4.393253
 20
2.199962
 30
0.0
 10
4.417512
 20
2.199624
 30
0.0
 10
4.497479
 20
2.194143
 30
0.0
 10
4.536558
 20
2.197155
 30
0.0
 10
4.569912
 20
2.215056
 30
0.0
 10
4.560878
 20
2.254267
 30
0.0
 10
4.532376
 20
2.280876
 30
0.0
 10
4.493926
 20
2.297699
 30
0.0
 10
4.455047
 20
2.307552
 30
0.0
 10
4.400578
 20
2.321827
 30
0.0
 10
4.400578
 20
2.321827
 30
0.0
  0
LWPOLYLINE
  5
1d8
100
AcDbEntity
  8
Layer_1
 62
7
100
AcDbPolyline
 90
13
 70
0
 10
13.138545
 20
2.303417
 30
0.0
 10
13.000785
 20
2.254469
 30
0.0
 10
12.936544
 20
2.219993
 30
0.0
 10
12.878393
 20
2.175647
 30
0.0
 10
13.059787
 20
2.174486
 30
0.0
 10
13.149248
 20
2.184712
 30
0.0
 10
13.235065
 20
2.213679
 30
0.0
 10
13.210624
 20
2.217431
 30
0.0
 10
13.194813
 20
2.231910
 30
0.0
 10
13.180342
 20
2.276188
 30
0.0
 10
13.164661
 20
2.297700
 30
0.0
 10
13.138545
 20
2.303417
 30
0.0
 10
13.138545
 20
2.303417
 30
0.0
  0
LWPOLYLINE
  5
1d9
100
AcDbEntity
  8
Layer_1
 62
7
100
AcDbPolyline
 90
13
 70
0
 10
10.372400
 20
2.242121
 30
0.0
 10
10.365881
 20
2.236279
 30
0.0
 10
10.385753
 20
2.123847
 30
0.0
 10
10.421733
 20
2.013973
 30
0.0
 10
10.459170
 20
1.933227
 30
0.0
 10
10.506766
 20
1.857981
 30
0.0
 10
10.515847
 20
1.955514
 30
0.0
 10
10.507804
 20
2.054936
 30
0.0
 10
10.475239
 20
2.146431
 30
0.0
 10
10.447449
 20
2.186139
 30
0.0
 10
10.410754
 20
2.220184
 30
0.0
 10
10.372400
 20
2.242121
 30
0.0
 10
10.372400
 20
2.242121
 30
0.0
  0
LWPOLYLINE
  5
1da
100
AcDbEntity
  8
Layer_1
 62
7
100
AcDbPolyline
 90
13
 70
0
 10
11.767397
 20
2.241134
 30
0.0
 10
11.738491
 20
2.227372
 30
0.0
 10
11.727522
 20
2.198006
 30
0.0
 10
11.735778
 20
2.168375
 30
0.0
 10
11.764546
 20
2.153820
 30
0.0
 10
11.782280
 20
2.152036
 30
0.0
 10
11.797645
 20
2.157850
 30
0.0
 10
11.818006
 20
2.184145
 30
0.0
 10
11.819117
 20
2.216458
 30
0.0
 10
11.810417
 20
2.229794
 30
0.0
 10
11.794462
 20
2.238543
 30
0.0
 10
11.767397
 20
2.241139
 30
0.0
 10
11.767397
 20
2.241134
 30
0.0
  0
LWPOLYLINE
  5
1db
100
AcDbEntity
  8
Layer_1
 62
7
100
AcDbPolyline
 90
10
 70
0
 10
0.036830
 20
2.236889
 30
0.0
 10
0.026952
 20
2.236071
 30
0.0
 10
0.000000
 20
2.212643
 30
0.0
 10
0.000000
 20
1.999709
 30
0.0
 10
0.028184
 20
2.050439
 30
0.0
 10
0.048754
 20
2.104147
 30
0.0
 10
0.060285
 20
2.160564
 30
0.0
 10
0.061355
 20
2.219422
 30
0.0
 10
0.036830
 20
2.236897
 30
0.0
 10
0.036830
 20
2.236889
 30
0.0
  0
LWPOLYLINE
  5
1dc
100
AcDbEntity
  8
Layer_1
 62
7
100
AcDbPolyline
 90
14
 70
0
 10
7.114314
 20
2.189594
 30
0.0
 10
7.090400
 20
2.179702
 30
0.0
 10
7.071056
 20
2.163064
 30
0.0
 10
7.047290
 20
2.116461
 30
0.0
 10
7.045437
 20
2.063609
 30
0.0
 10
7.067917
 20
2.018330
 30
0.0
 10
7.100992
 20
2.019882
 30
0.0
 10
7.123945
 20
2.041658
 30
0.0
 10
7.146911
 20
2.105258
 30
0.0
 10
7.155438
 20
2.131110
 30
0.0
 10
7.153811
 20
2.159068
 30
0.0
 10
7.140585
 20
2.181205
 30
0.0
 10
7.114314
 20
2.189594
 30
0.0
 10
7.114314
 20
2.189594
 30
0.0
  0
LWPOLYLINE
  5
1dd
100
AcDbEntity
  8
Layer_1
 62
7
100
AcDbPolyline
 90
13
 70
0
 10
1.237262
 20
2.168151
 30
0.0
 10
1.199543
 20
2.135860
 30
0.0
 10
1.180088
 20
2.090500
 30
0.0
 10
1.153922
 20
1.992369
 30
0.0
 10
1.143487
 20
1.909002
 30
0.0
 10
1.139867
 20
1.824911
 30
0.0
 10
1.197722
 20
1.895321
 30
0.0
 10
1.241711
 20
1.976276
 30
0.0
 10
1.266125
 20
2.063900
 30
0.0
 10
1.265259
 20
2.154316
 30
0.0
 10
1.253070
 20
2.165026
 30
0.0
 10
1.237262
 20
2.168151
 30
0.0
 10
1.237262
 20
2.168151
 30
0.0
  0
LWPOLYLINE
  5
1de
100
AcDbEntity
  8
Layer_1
 62
7
100
AcDbPolyline
 90
13
 70
0
 10
9.285450
 20
2.101676
 30
0.0
 10
9.275911
 20
2.101394
 30
0.0
 10
9.258366
 20
2.096473
 30
0.0
 10
9.247329
 20
2.085022
 30
0.0
 10
9.242898
 20
2.052376
 30
0.0
 10
9.258861
 20
2.023141
 30
0.0
 10
9.273316
 20
2.015955
 30
0.0
 10
9.291461
 20
2.017004
 30
0.0
 10
9.318994
 20
2.033335
 30
0.0
 10
9.325095
 20
2.061224
 30
0.0
 10
9.312876
 20
2.088170
 30
0.0
 10
9.285450
 20
2.101671
 30
0.0
 10
9.285450
 20
2.101676
 30
0.0
  0
LWPOLYLINE
  5
1df
100
AcDbEntity
  8
Layer_1
 62
7
100
AcDbPolyline
 90
18
 70
0
 10
2.524845
 20
1.965030
 30
0.0
 10
2.501616
 20
1.951348
 30
0.0
 10
2.499589
 20
1.926623
 30
0.0
 10
2.513442
 20
1.902580
 30
0.0
 10
2.537855
 20
1.890948
 30
0.0
 10
2.684685
 20
1.828459
 30
0.0
 10
2.760093
 20
1.803011
 30
0.0
 10
2.838224
 20
1.788089
 30
0.0
 10
2.812167
 20
1.807763
 30
0.0
 10
2.792240
 20
1.833563
 30
0.0
 10
2.783261
 20
1.863470
 30
0.0
 10
2.790049
 20
1.895466
 30
0.0
 10
2.770553
 20
1.927414
 30
0.0
 10
2.736868
 20
1.940855
 30
0.0
 10
2.660932
 20
1.951469
 30
0.0
 10
2.593248
 20
1.962216
 30
0.0
 10
2.524845
 20
1.965030
 30
0.0
 10
2.524845
 20
1.965030
 30
0.0
  0
LWPOLYLINE
  5
1e0
100
AcDbEntity
  8
Layer_1
 62
7
100
AcDbPolyline
 90
17
 70
0
 10
1.410406
 20
1.960012
 30
0.0
 10
1.410406
 20
1.960012
 30
0.0
 10
1.396718
 20
1.960012
 30
0.0
 10
1.378585
 20
1.953146
 30
0.0
 10
1.367675
 20
1.940517
 30
0.0
 10
1.364802
 20
1.906430
 30
0.0
 10
1.382656
 20
1.874659
 30
0.0
 10
1.415796
 20
1.862116
 30
0.0
 10
1.477906
 20
1.827077
 30
0.0
 10
1.511062
 20
1.819321
 30
0.0
 10
1.544122
 20
1.830806
 30
0.0
 10
1.561222
 20
1.864093
 30
0.0
 10
1.559489
 20
1.902478
 30
0.0
 10
1.540082
 20
1.932876
 30
0.0
 10
1.504160
 20
1.942207
 30
0.0
 10
1.410406
 20
1.960066
 30
0.0
 10
1.410406
 20
1.960012
 30
0.0
  0
LWPOLYLINE
  5
1e1
100
AcDbEntity
  8
Layer_1
 62
7
100
AcDbPolyline
 90
16
 70
0
 10
3.499273
 20
1.571241
 30
0.0
 10
3.488549
 20
1.570592
 30
0.0
 10
3.461763
 20
1.554131
 30
0.0
 10
3.450982
 20
1.524868
 30
0.0
 10
3.443095
 20
1.492586
 30
0.0
 10
3.424992
 20
1.467073
 30
0.0
 10
3.420335
 20
1.433578
 30
0.0
 10
3.435463
 20
1.404089
 30
0.0
 10
3.463418
 20
1.386676
 30
0.0
 10
3.497241
 20
1.389408
 30
0.0
 10
3.527796
 20
1.411509
 30
0.0
 10
3.541360
 20
1.445955
 30
0.0
 10
3.542933
 20
1.523187
 30
0.0
 10
3.529041
 20
1.555521
 30
0.0
 10
3.499273
 20
1.571252
 30
0.0
 10
3.499273
 20
1.571241
 30
0.0
  0
LWPOLYLINE
  5
1e2
100
AcDbEntity
  8
Layer_1
 62
7
100
AcDbPolyline
 90
12
 70
0
 10
8.033314
 20
1.235111
 30
0.0
 10
8.015176
 20
1.230058
 30
0.0
 10
8.004165
 20
1.218323
 30
0.0
 10
8.000947
 20
1.184813
 30
0.0
 10
8.018499
 20
1.154597
 30
0.0
 10
8.033451
 20
1.146978
 30
0.0
 10
8.051659
 20
1.147687
 30
0.0
 10
8.076177
 20
1.167412
 30
0.0
 10
8.078661
 20
1.198050
 30
0.0
 10
8.063057
 20
1.225363
 30
0.0
 10
8.033314
 20
1.235111
 30
0.0
 10
8.033314
 20
1.235111
 30
0.0
  0
LWPOLYLINE
  5
1e3
100
AcDbEntity
  8
Layer_1
 62
7
100
AcDbPolyline
 90
14
 70
0
 10
0.799282
 20
1.179164
 30
0.0
 10
0.785537
 20
1.169407
 30
0.0
 10
0.704293
 20
1.102912
 30
0.0
 10
0.635960
 20
1.023525
 30
0.0
 10
0.519571
 20
0.848489
 30
0.0
 10
0.524609
 20
0.828349
 30
0.0
 10
0.543743
 20
0.822913
 30
0.0
 10
0.586712
 20
0.836746
 30
0.0
 10
0.639027
 20
0.875108
 30
0.0
 10
0.682166
 20
0.923586
 30
0.0
 10
0.757089
 20
1.030334
 30
0.0
 10
0.784599
 20
1.102862
 30
0.0
 10
0.799282
 20
1.179164
 30
0.0
 10
0.799282
 20
1.179164
 30
0.0
  0
LWPOLYLINE
  5
1e4
100
AcDbEntity
  8
Layer_1
 62
7
100
AcDbPolyline
 90
16
 70
0
 10
4.323842
 20
1.108662
 30
0.0
 10
4.303437
 20
1.099479
 30
0.0
 10
4.289298
 20
1.081237
 30
0.0
 10
4.273973
 20
1.035625
 30
0.0
 10
4.250895
 20
1.018508
 30
0.0
 10
4.242438
 20
1.010683
 30
0.0
 10
4.245808
 20
0.995773
 30
0.0
 10
4.277709
 20
0.981771
 30
0.0
 10
4.313566
 20
0.984215
 30
0.0
 10
4.385028
 20
1.000017
 30
0.0
 10
4.489630
 20
1.025725
 30
0.0
 10
4.589216
 20
1.066328
 30
0.0
 10
4.465775
 20
1.097944
 30
0.0
 10
4.338884
 20
1.108055
 30
0.0
 10
4.323842
 20
1.108676
 30
0.0
 10
4.323842
 20
1.108662
 30
0.0
  0
LWPOLYLINE
  5
1e5
100
AcDbEntity
  8
Layer_1
 62
7
100
AcDbPolyline
 90
20
 70
0
 10
8.176062
 20
1.105080
 30
0.0
 10
8.173212
 20
1.098629
 30
0.0
 10
8.171801
 20
1.095708
 30
0.0
 10
8.172083
 20
1.095708
 30
0.0
 10
8.162568
 20
1.069577
 30
0.0
 10
8.145470
 20
1.044907
 30
0.0
 10
8.128943
 20
1.019233
 30
0.0
 10
8.121142
 20
0.990094
 30
0.0
 10
8.143808
 20
0.953887
 30
0.0
 10
8.177371
 20
0.927483
 30
0.0
 10
8.248142
 20
0.877316
 30
0.0
 10
8.356681
 20
0.799426
 30
0.0
 10
8.471380
 20
0.731026
 30
0.0
 10
8.468468
 20
0.769273
 30
0.0
 10
8.457402
 20
0.804060
 30
0.0
 10
8.417257
 20
0.865412
 30
0.0
 10
8.310090
 20
0.970361
 30
0.0
 10
8.176147
 20
1.105080
 30
0.0
 10
8.176147
 20
1.105080
 30
0.0
 10
8.176062
 20
1.105080
 30
0.0
  0
LWPOLYLINE
  5
1e6
100
AcDbEntity
  8
Layer_1
 62
7
100
AcDbPolyline
 90
15
 70
0
 10
13.245874
 20
1.093337
 30
0.0
 10
13.117297
 20
1.081209
 30
0.0
 10
13.054354
 20
1.068625
 30
0.0
 10
12.994753
 20
1.043948
 30
0.0
 10
13.079876
 20
1.009443
 30
0.0
 10
13.168457
 20
0.983899
 30
0.0
 10
13.259234
 20
0.969928
 30
0.0
 10
13.350946
 20
0.970141
 30
0.0
 10
13.304284
 20
1.000296
 30
0.0
 10
13.292688
 20
1.024117
 30
0.0
 10
13.295912
 20
1.052547
 30
0.0
 10
13.291023
 20
1.069645
 30
0.0
 10
13.279339
 20
1.082659
 30
0.0
 10
13.245874
 20
1.093337
 30
0.0
 10
13.245874
 20
1.093337
 30
0.0
  0
LWPOLYLINE
  5
1e7
100
AcDbEntity
  8
Layer_1
 62
7
100
AcDbPolyline
 90
20
 70
0
 10
9.352760
 20
1.072667
 30
0.0
 10
9.347285
 20
1.071453
 30
0.0
 10
9.284647
 20
1.022248
 30
0.0
 10
9.227351
 20
0.966838
 30
0.0
 10
9.117217
 20
0.851571
 30
0.0
 10
9.112168
 20
0.823877
 30
0.0
 10
9.125384
 20
0.800213
 30
0.0
 10
9.149368
 20
0.788531
 30
0.0
 10
9.176625
 20
0.796781
 30
0.0
 10
9.265042
 20
0.858150
 30
0.0
 10
9.352760
 20
0.920970
 30
0.0
 10
9.434195
 20
0.984101
 30
0.0
 10
9.508349
 20
1.055689
 30
0.0
 10
9.443501
 20
1.037479
 30
0.0
 10
9.412194
 20
1.036672
 30
0.0
 10
9.387247
 20
1.056563
 30
0.0
 10
9.370924
 20
1.067387
 30
0.0
 10
9.352760
 20
1.072605
 30
0.0
 10
9.352760
 20
1.072605
 30
0.0
 10
9.352760
 20
1.072667
 30
0.0
  0
LWPOLYLINE
  5
1e8
100
AcDbEntity
  8
Layer_1
 62
7
100
AcDbPolyline
 90
15
 70
0
 10
2.053392
 20
1.070183
 30
0.0
 10
2.048002
 20
1.065719
 30
0.0
 10
2.044248
 20
1.062634
 30
0.0
 10
1.995862
 20
1.021092
 30
0.0
 10
1.957955
 20
0.970065
 30
0.0
 10
1.929611
 20
0.912778
 30
0.0
 10
1.909911
 20
0.852455
 30
0.0
 10
1.926630
 20
0.825470
 30
0.0
 10
1.957197
 20
0.819503
 30
0.0
 10
1.986706
 20
0.832149
 30
0.0
 10
2.000250
 20
0.860998
 30
0.0
 10
2.048940
 20
0.960930
 30
0.0
 10
2.059345
 20
1.014893
 30
0.0
 10
2.053392
 20
1.070183
 30
0.0
 10
2.053392
 20
1.070183
 30
0.0
  0
LWPOLYLINE
  5
1e9
100
AcDbEntity
  8
Layer_1
 62
7
100
AcDbPolyline
 90
12
 70
0
 10
0.846300
 20
0.917388
 30
0.0
 10
0.817100
 20
0.899938
 30
0.0
 10
0.810528
 20
0.867902
 30
0.0
 10
0.823408
 20
0.835639
 30
0.0
 10
0.852565
 20
0.817507
 30
0.0
 10
0.883066
 20
0.820672
 30
0.0
 10
0.904335
 20
0.841020
 30
0.0
 10
0.910719
 20
0.869387
 30
0.0
 10
0.896564
 20
0.896605
 30
0.0
 10
0.874003
 20
0.913222
 30
0.0
 10
0.846300
 20
0.917388
 30
0.0
 10
0.846300
 20
0.917388
 30
0.0
  0
LWPOLYLINE
  5
1ea
100
AcDbEntity
  8
Layer_1
 62
7
100
AcDbPolyline
 90
15
 70
0
 10
2.128097
 20
0.871471
 30
0.0
 10
2.098463
 20
0.856937
 30
0.0
 10
2.090184
 20
0.826262
 30
0.0
 10
2.101002
 20
0.794200
 30
0.0
 10
2.128661
 20
0.775504
 30
0.0
 10
2.155992
 20
0.755051
 30
0.0
 10
2.188662
 20
0.739830
 30
0.0
 10
2.221458
 20
0.738160
 30
0.0
 10
2.249170
 20
0.758362
 30
0.0
 10
2.254011
 20
0.796754
 30
0.0
 10
2.233969
 20
0.828403
 30
0.0
 10
2.199739
 20
0.850456
 30
0.0
 10
2.162020
 20
0.860061
 30
0.0
 10
2.128125
 20
0.871471
 30
0.0
 10
2.128097
 20
0.871471
 30
0.0
  0
LWPOLYLINE
  5
1eb
100
AcDbEntity
  8
Layer_1
 62
7
100
AcDbPolyline
 90
14
 70
0
 10
2.697536
 20
0.646740
 30
0.0
 10
2.675074
 20
0.641769
 30
0.0
 10
2.658454
 20
0.628164
 30
0.0
 10
2.643551
 20
0.586459
 30
0.0
 10
2.654456
 20
0.544441
 30
0.0
 10
2.670094
 20
0.530443
 30
0.0
 10
2.692795
 20
0.524922
 30
0.0
 10
2.764106
 20
0.528343
 30
0.0
 10
2.795125
 20
0.541411
 30
0.0
 10
2.811921
 20
0.571556
 30
0.0
 10
2.798045
 20
0.604461
 30
0.0
 10
2.767503
 20
0.622855
 30
0.0
 10
2.697536
 20
0.646740
 30
0.0
 10
2.697536
 20
0.646740
 30
0.0
  0
LWPOLYLINE
  5
1ec
100
AcDbEntity
  8
Layer_1
 62
7
100
AcDbPolyline
 90
12
 70
0
 10
1.414865
 20
0.624803
 30
0.0
 10
1.385592
 20
0.609434
 30
0.0
 10
1.375121
 20
0.579782
 30
0.0
 10
1.382884
 20
0.548193
 30
0.0
 10
1.408317
 20
0.527016
 30
0.0
 10
1.440867
 20
0.525825
 30
0.0
 10
1.466444
 20
0.545126
 30
0.0
 10
1.476766
 20
0.574774
 30
0.0
 10
1.463548
 20
0.604627
 30
0.0
 10
1.441566
 20
0.619981
 30
0.0
 10
1.414865
 20
0.624803
 30
0.0
 10
1.414865
 20
0.624803
 30
0.0
  0
LWPOLYLINE
  5
1ed
100
AcDbEntity
  8
Layer_1
 62
7
100
AcDbPolyline
 90
21
 70
0
 10
0.131967
 20
0.586271
 30
0.0
 10
0.108532
 20
0.574386
 30
0.0
 10
0.098026
 20
0.550347
 30
0.0
 10
0.099983
 20
0.522719
 30
0.0
 10
0.113933
 20
0.500064
 30
0.0
 10
0.000000
 20
0.500064
 30
0.0
 10
0.000000
 20
-0.000000
 30
0.0
 10
0.500013
 20
-0.000000
 30
0.0
 10
0.500013
 20
0.400016
 30
0.0
 10
13.499987
 20
0.400016
 30
0.0
 10
13.499987
 20
-0.000000
 30
0.0
 10
14.000000
 20
-0.000000
 30
0.0
 10
14.000000
 20
0.500007
 30
0.0
 10
0.168684
 20
0.500007
 30
0.0
 10
0.183343
 20
0.522216
 30
0.0
 10
0.185582
 20
0.549393
 30
0.0
 10
0.174645
 20
0.573375
 30
0.0
 10
0.149775
 20
0.585997
 30
0.0
 10
0.140462
 20
0.586280
 30
0.0
 10
0.131967
 20
0.586280
 30
0.0
 10
0.131967
 20
0.586271
 30
0.0
  0
ENDSEC
  0
SECTION
  2
OBJECTS
  0
DICTIONARY
  5
C
330
0
100
AcDbDictionary
  3
ACAD_GROUP
350
D
  3
ACAD_MLINESTYLE
350
17
  0
DICTIONARY
  5
D
330
C
100
AcDbDictionary
  0
DICTIONARY
  5
1A
330
C
100
AcDbDictionary
  0
DICTIONARY
  5
17
330
C
100
AcDbDictionary
  3
STANDARD
350
18
  0
DICTIONARY
  5
19
330
C
100
AcDbDictionary
  0
ENDSEC
  0
EOF
