  0
SECTION
  2
HEADER
  9
$ACADVER
  1
AC1014
  9
$HANDSEED
  5
FFFF
  9
$MEASUREMENT
 70
     1
  0
ENDSEC
  0
SECTION
  2
TABLES
  0
TABLE
  2
VPORT
  5
8
330
0
100
AcDbSymbolTable
 70
     4
  0
VPORT
  5
2E
330
8
100
AcDbSymbolTableRecord
100
AcDbViewportTableRecord
  2
*ACTIVE
 70
     0
 10
0.0
 20
0.0
 11
1.0
 21
1.0
 12
210.0
 22
148.5
 13
0.0
 23
0.0
 14
10.0
 24
10.0
 15
10.0
 25
10.0
 16
0.0
 26
0.0
 36
1.0
 17
0.0
 27
0.0
 37
0.0
 40
341.0
 41
1.24
 42
50.0
 43
0.0
 44
0.0
 50
0.0
 51
0.0
 71
     0
 72
   100
 73
     1
 74
     3
 75
     0
 76
     0
 77
     0
 78
     0
  0
ENDTAB
  0
TABLE
  2
LTYPE
  5
5
330
0
100
AcDbSymbolTable
 70
     1
  0
LTYPE
  5
14
330
5
100
AcDbSymbolTableRecord
100
AcDbLinetypeTableRecord
  2
BYBLOCK
 70
     0
  3

 72
    65
 73
     0
 40
0.0
  0
LTYPE
  5
15
330
5
100
AcDbSymbolTableRecord
100
AcDbLinetypeTableRecord
  2
BYLAYER
 70
     0
  3

 72
    65
 73
     0
 40
0.0
  0
LTYPE
  5
16
330
5
100
AcDbSymbolTableRecord
100
AcDbLinetypeTableRecord
  2
CONTINUOUS
 70
     0
  3
Solid line
 72
    65
 73
     0
 40
0.0
  0
ENDTAB
  0
TABLE
  2
LAYER
  5
2
100
AcDbSymbolTable
 70
2
  0
LAYER
  5
50
100
AcDbSymbolTableRecord
100
AcDbLayerTableRecord
  2
0
 70
0
  6
CONTINUOUS
  0
LAYER
  5
51
100
AcDbSymbolTableRecord
100
AcDbLayerTableRecord
  2
Layer_1
 70
0
  6
CONTINUOUS
  0
ENDTAB
  0
TABLE
  2
STYLE
  5
3
330
0
100
AcDbSymbolTable
 70
     1
  0
STYLE
  5
11
330
3
100
AcDbSymbolTableRecord
100
AcDbTextStyleTableRecord
  2
STANDARD
 70
     0
 40
0.0
 41
1.0
 50
0.0
 71
     0
 42
2.5
  3
txt
  4

  0
ENDTAB
  0
TABLE
  2
VIEW
  5
6
330
0
100
AcDbSymbolTable
 70
     0
  0
ENDTAB
  0
TABLE
  2
UCS
  5
7
330
0
100
AcDbSymbolTable
 70
     0
  0
ENDTAB
  0
TABLE
  2
APPID
  5
9
330
0
100
AcDbSymbolTable
 70
     2
  0
APPID
  5
12
330
9
100
AcDbSymbolTableRecord
100
AcDbRegAppTableRecord
  2
ACAD
 70
     0
  0
ENDTAB
  0
TABLE
  2
DIMSTYLE
  5
A
330
0
100
AcDbSymbolTable
 70
     1
  0
DIMSTYLE
105
27
330
A
100
AcDbSymbolTableRecord
100
AcDbDimStyleTableRecord
  2
ISO-25
 70
     0
  3

  4

  5

  6

  7

 40
1.0
 41
2.5
 42
0.625
 43
3.75
 44
1.25
 45
0.0
 46
0.0
 47
0.0
 48
0.0
140
2.5
141
2.5
142
0.0
143
0.03937007874016
144
1.0
145
0.0
146
1.0
147
0.625
 71
     0
 72
     0
 73
     0
 74
     0
 75
     0
 76
     0
 77
     1
 78
     8
170
     0
171
     3
172
     1
173
     0
174
     0
175
     0
176
     0
177
     0
178
     0
270
     2
271
     2
272
     2
273
     2
274
     3
340
11
275
     0
280
     0
281
     0
282
     0
283
     0
284
     8
285
     0
286
     0
287
     3
288
     0
  0
ENDTAB
  0
TABLE
  2
BLOCK_RECORD
  5
1
330
0
100
AcDbSymbolTable
 70
     1
  0
BLOCK_RECORD
  5
1F
330
1
100
AcDbSymbolTableRecord
100
AcDbBlockTableRecord
  2
*MODEL_SPACE
  0
BLOCK_RECORD
  5
1B
330
1
100
AcDbSymbolTableRecord
100
AcDbBlockTableRecord
  2
*PAPER_SPACE
  0
ENDTAB
  0
ENDSEC
  0
SECTION
  2
BLOCKS
  0
BLOCK
  5
20
330
1F
100
AcDbEntity
  8
0
100
AcDbBlockBegin
  2
*MODEL_SPACE
 70
     0
 10
0.0
 20
0.0
 30
0.0
  3
*MODEL_SPACE
  1

  0
ENDBLK
  5
21
330
1F
100
AcDbEntity
  8
0
100
AcDbBlockEnd
  0
BLOCK
  5
1C
330
1B
100
AcDbEntity
 67
     1
  8
0
100
AcDbBlockBegin
  2
*PAPER_SPACE
  1

  0
ENDBLK
  5
1D
330
1B
100
AcDbEntity
 67
     1
  8
0
100
AcDbBlockEnd
  0
ENDSEC
  0
SECTION
  2
ENTITIES
  0
LWPOLYLINE
  5
100
100
AcDbEntity
  8
Layer_1
 62
7
100
AcDbPolyline
 90
10
 70
0
 10
0.000505
 20
20.999475
 30
0.0
 10
0.000505
 20
20.499521
 30
0.0
 10
14.000483
 20
20.499521
 30
0.0
 10
14.000483
 20
20.999475
 30
0.0
 10
13.500470
 20
20.999475
 30
0.0
 10
13.500470
 20
20.599512
 30
0.0
 10
0.500456
 20
20.599512
 30
0.0
 10
0.500456
 20
20.999475
 30
0.0
 10
0.000505
 20
20.999475
 30
0.0
 10
0.000505
 20
20.999475
 30
0.0
  0
LWPOLYLINE
  5
101
100
AcDbEntity
  8
Layer_1
 62
7
100
AcDbPolyline
 90
26
 70
0
 10
1.518220
 20
20.495883
 30
0.0
 10
1.515962
 20
20.489214
 30
0.0
 10
1.515144
 20
20.486674
 30
0.0
 10
1.500735
 20
20.439810
 30
0.0
 10
1.508696
 20
20.392981
 30
0.0
 10
1.531829
 20
20.349247
 30
0.0
 10
1.562935
 20
20.311663
 30
0.0
 10
1.811477
 20
19.961586
 30
0.0
 10
1.844957
 20
19.970088
 30
0.0
 10
1.862475
 20
19.998049
 30
0.0
 10
1.863039
 20
20.033121
 30
0.0
 10
1.845654
 20
20.062954
 30
0.0
 10
1.785684
 20
20.174224
 30
0.0
 10
1.719755
 20
20.282007
 30
0.0
 10
1.822488
 20
20.317729
 30
0.0
 10
1.919931
 20
20.365758
 30
0.0
 10
2.111228
 20
20.469862
 30
0.0
 10
1.993502
 20
20.473721
 30
0.0
 10
1.934940
 20
20.472173
 30
0.0
 10
1.878451
 20
20.458065
 30
0.0
 10
1.828686
 20
20.425848
 30
0.0
 10
1.787029
 20
20.383946
 30
0.0
 10
1.714630
 20
20.289669
 30
0.0
 10
1.625883
 20
20.401878
 30
0.0
 10
1.518231
 20
20.495880
 30
0.0
 10
1.518220
 20
20.495883
 30
0.0
  0
LWPOLYLINE
  5
102
100
AcDbEntity
  8
Layer_1
 62
7
100
AcDbPolyline
 90
15
 70
0
 10
0.762119
 20
20.473339
 30
0.0
 10
0.740673
 20
20.464833
 30
0.0
 10
0.726454
 20
20.446777
 30
0.0
 10
0.721592
 20
20.423701
 30
0.0
 10
0.728218
 20
20.400136
 30
0.0
 10
0.739841
 20
20.383021
 30
0.0
 10
0.755738
 20
20.373648
 30
0.0
 10
0.793686
 20
20.374463
 30
0.0
 10
0.828734
 20
20.395253
 30
0.0
 10
0.847556
 20
20.428689
 30
0.0
 10
0.842010
 20
20.452354
 30
0.0
 10
0.824441
 20
20.466386
 30
0.0
 10
0.776837
 20
20.472182
 30
0.0
 10
0.762119
 20
20.473339
 30
0.0
 10
0.762119
 20
20.473339
 30
0.0
  0
LWPOLYLINE
  5
103
100
AcDbEntity
  8
Layer_1
 62
7
100
AcDbPolyline
 90
14
 70
0
 10
0.277766
 20
20.157437
 30
0.0
 10
0.254989
 20
20.142488
 30
0.0
 10
0.247201
 20
20.121531
 30
0.0
 10
0.251440
 20
20.098143
 30
0.0
 10
0.264748
 20
20.075904
 30
0.0
 10
0.284166
 20
20.058393
 30
0.0
 10
0.306733
 20
20.049189
 30
0.0
 10
0.329490
 20
20.051870
 30
0.0
 10
0.349479
 20
20.070015
 30
0.0
 10
0.354745
 20
20.102481
 30
0.0
 10
0.338347
 20
20.130666
 30
0.0
 10
0.309586
 20
20.150381
 30
0.0
 10
0.277766
 20
20.157437
 30
0.0
 10
0.277766
 20
20.157437
 30
0.0
  0
LWPOLYLINE
  5
104
100
AcDbEntity
  8
Layer_1
 62
7
100
AcDbPolyline
 90
13
 70
0
 10
9.624994
 20
20.002051
 30
0.0
 10
9.616076
 20
20.002051
 30
0.0
 10
9.597517
 20
19.997407
 30
0.0
 10
9.585444
 20
19.985656
 30
0.0
 10
9.579235
 20
19.951125
 30
0.0
 10
9.594411
 20
19.919045
 30
0.0
 10
9.609067
 20
19.910356
 30
0.0
 10
9.627929
 20
19.909998
 30
0.0
 10
9.656637
 20
19.925435
 30
0.0
 10
9.665123
 20
19.956207
 30
0.0
 10
9.654278
 20
19.986901
 30
0.0
 10
9.624994
 20
20.002104
 30
0.0
 10
9.624994
 20
20.002051
 30
0.0
  0
LWPOLYLINE
  5
105
100
AcDbEntity
  8
Layer_1
 62
7
100
AcDbPolyline
 90
16
 70
0
 10
8.384656
 20
19.965780
 30
0.0
 10
8.346787
 20
19.950082
 30
0.0
 10
8.331118
 20
19.912202
 30
0.0
 10
8.335332
 20
19.891369
 30
0.0
 10
8.346806
 20
19.874357
 30
0.0
 10
8.363821
 20
19.862887
 30
0.0
 10
8.384656
 20
19.858679
 30
0.0
 10
8.405481
 20
19.862895
 30
0.0
 10
8.422487
 20
19.874367
 30
0.0
 10
8.433954
 20
19.891376
 30
0.0
 10
8.438165
 20
19.912202
 30
0.0
 10
8.433970
 20
19.933046
 30
0.0
 10
8.422506
 20
19.950072
 30
0.0
 10
8.405494
 20
19.961558
 30
0.0
 10
8.384656
 20
19.965780
 30
0.0
 10
8.384656
 20
19.965780
 30
0.0
  0
LWPOLYLINE
  5
106
100
AcDbEntity
  8
Layer_1
 62
7
100
AcDbPolyline
 90
13
 70
0
 10
0.482707
 20
19.928408
 30
0.0
 10
0.464783
 20
19.925361
 30
0.0
 10
0.452373
 20
19.915806
 30
0.0
 10
0.443277
 20
19.885467
 30
0.0
 10
0.453783
 20
19.853984
 30
0.0
 10
0.482256
 20
19.837953
 30
0.0
 10
0.512892
 20
19.847653
 30
0.0
 10
0.528223
 20
19.874570
 30
0.0
 10
0.525144
 20
19.905199
 30
0.0
 10
0.500555
 20
19.926037
 30
0.0
 10
0.482750
 20
19.928408
 30
0.0
 10
0.482750
 20
19.928408
 30
0.0
 10
0.482707
 20
19.928408
 30
0.0
  0
LWPOLYLINE
  5
107
100
AcDbEntity
  8
Layer_1
 62
7
100
AcDbPolyline
 90
13
 70
0
 10
10.803328
 20
19.886791
 30
0.0
 10
10.784971
 20
19.881452
 30
0.0
 10
10.773506
 20
19.869351
 30
0.0
 10
10.769116
 20
19.834894
 30
0.0
 10
10.785882
 20
19.803484
 30
0.0
 10
10.800862
 20
19.795189
 30
0.0
 10
10.819528
 20
19.795179
 30
0.0
 10
10.838458
 20
19.802589
 30
0.0
 10
10.850346
 20
19.815009
 30
0.0
 10
10.855106
 20
19.847169
 30
0.0
 10
10.838026
 20
19.876237
 30
0.0
 10
10.803328
 20
19.886791
 30
0.0
 10
10.803328
 20
19.886791
 30
0.0
  0
LWPOLYLINE
  5
108
100
AcDbEntity
  8
Layer_1
 62
7
100
AcDbPolyline
 90
14
 70
0
 10
7.099613
 20
19.756427
 30
0.0
 10
7.061728
 20
19.740770
 30
0.0
 10
7.046019
 20
19.702906
 30
0.0
 10
7.061727
 20
19.665041
 30
0.0
 10
7.099613
 20
19.649383
 30
0.0
 10
7.120439
 20
19.653599
 30
0.0
 10
7.137444
 20
19.665071
 30
0.0
 10
7.148912
 20
19.682080
 30
0.0
 10
7.153123
 20
19.702906
 30
0.0
 10
7.148911
 20
19.723732
 30
0.0
 10
7.137443
 20
19.740740
 30
0.0
 10
7.120438
 20
19.752211
 30
0.0
 10
7.099613
 20
19.756427
 30
0.0
 10
7.099613
 20
19.756427
 30
0.0
  0
LWPOLYLINE
  5
109
100
AcDbEntity
  8
Layer_1
 62
7
100
AcDbPolyline
 90
16
 70
0
 10
12.006921
 20
19.749318
 30
0.0
 10
11.986087
 20
19.745110
 30
0.0
 10
11.969072
 20
19.733640
 30
0.0
 10
11.957597
 20
19.716628
 30
0.0
 10
11.953384
 20
19.695794
 30
0.0
 10
11.969053
 20
19.657915
 30
0.0
 10
12.006921
 20
19.642217
 30
0.0
 10
12.027760
 20
19.646439
 30
0.0
 10
12.044772
 20
19.657924
 30
0.0
 10
12.056236
 20
19.674951
 30
0.0
 10
12.060431
 20
19.695794
 30
0.0
 10
12.056220
 20
19.716621
 30
0.0
 10
12.044753
 20
19.733630
 30
0.0
 10
12.027747
 20
19.745102
 30
0.0
 10
12.006921
 20
19.749318
 30
0.0
 10
12.006921
 20
19.749318
 30
0.0
  0
LWPOLYLINE
  5
10a
100
AcDbEntity
  8
Layer_1
 62
7
100
AcDbPolyline
 90
6
 70
0
 10
14.000483
 20
19.555290
 30
0.0
 10
13.986665
 20
19.523066
 30
0.0
 10
13.995431
 20
19.489366
 30
0.0
 10
14.000483
 20
19.486332
 30
0.0
 10
14.000483
 20
19.555290
 30
0.0
 10
14.000483
 20
19.555290
 30
0.0
  0
LWPOLYLINE
  5
10b
100
AcDbEntity
  8
Layer_1
 62
7
100
AcDbPolyline
 90
17
 70
0
 10
2.118329
 20
19.506672
 30
0.0
 10
2.099730
 20
19.488582
 30
0.0
 10
2.096001
 20
19.462160
 30
0.0
 10
2.105209
 20
19.406573
 30
0.0
 10
2.284355
 20
18.887657
 30
0.0
 10
2.321188
 20
18.789241
 30
0.0
 10
2.365824
 20
18.695890
 30
0.0
 10
2.397191
 20
18.694240
 30
0.0
 10
2.419466
 20
18.715806
 30
0.0
 10
2.427599
 20
18.747878
 30
0.0
 10
2.416536
 20
18.777745
 30
0.0
 10
2.308918
 20
19.153378
 30
0.0
 10
2.239506
 20
19.334907
 30
0.0
 10
2.193314
 20
19.420137
 30
0.0
 10
2.136575
 20
19.500169
 30
0.0
 10
2.118329
 20
19.506672
 30
0.0
 10
2.118329
 20
19.506672
 30
0.0
  0
LWPOLYLINE
  5
10c
100
AcDbEntity
  8
Layer_1
 62
7
100
AcDbPolyline
 90
14
 70
0
 10
2.546567
 20
19.459543
 30
0.0
 10
2.415833
 20
19.391919
 30
0.0
 10
2.292291
 20
19.311597
 30
0.0
 10
2.325301
 20
19.296009
 30
0.0
 10
2.359189
 20
19.289173
 30
0.0
 10
2.428502
 20
19.294713
 30
0.0
 10
2.565584
 20
19.333317
 30
0.0
 10
2.586529
 20
19.341664
 30
0.0
 10
2.599627
 20
19.357783
 30
0.0
 10
2.604646
 20
19.402042
 30
0.0
 10
2.585379
 20
19.443495
 30
0.0
 10
2.568120
 20
19.456107
 30
0.0
 10
2.546567
 20
19.459543
 30
0.0
 10
2.546567
 20
19.459543
 30
0.0
  0
LWPOLYLINE
  5
10d
100
AcDbEntity
  8
Layer_1
 62
7
100
AcDbPolyline
 90
15
 70
0
 10
1.274804
 20
19.365617
 30
0.0
 10
1.206065
 20
19.329960
 30
0.0
 10
1.143738
 20
19.283649
 30
0.0
 10
1.087675
 20
19.229388
 30
0.0
 10
1.037726
 20
19.169879
 30
0.0
 10
1.229257
 20
19.222535
 30
0.0
 10
1.318422
 20
19.263402
 30
0.0
 10
1.357952
 20
19.292229
 30
0.0
 10
1.392818
 20
19.328465
 30
0.0
 10
1.342868
 20
19.316077
 30
0.0
 10
1.320739
 20
19.322308
 30
0.0
 10
1.310081
 20
19.345387
 30
0.0
 10
1.295360
 20
19.360617
 30
0.0
 10
1.274804
 20
19.365617
 30
0.0
 10
1.274804
 20
19.365617
 30
0.0
  0
LWPOLYLINE
  5
10e
100
AcDbEntity
  8
Layer_1
 62
7
100
AcDbPolyline
 90
15
 70
0
 10
0.861170
 20
19.341749
 30
0.0
 10
0.864094
 20
19.325048
 30
0.0
 10
0.887182
 20
19.227716
 30
0.0
 10
0.925076
 20
19.135190
 30
0.0
 10
1.026039
 20
18.962844
 30
0.0
 10
1.050927
 20
18.962548
 30
0.0
 10
1.066138
 20
18.980165
 30
0.0
 10
1.071827
 20
19.006139
 30
0.0
 10
1.068152
 20
19.030918
 30
0.0
 10
1.052661
 20
19.091222
 30
0.0
 10
1.027918
 20
19.148530
 30
0.0
 10
0.963972
 20
19.255706
 30
0.0
 10
0.915572
 20
19.302204
 30
0.0
 10
0.861170
 20
19.341749
 30
0.0
 10
0.861170
 20
19.341749
 30
0.0
  0
LWPOLYLINE
  5
10f
100
AcDbEntity
  8
Layer_1
 62
7
100
AcDbPolyline
 90
16
 70
0
 10
9.723885
 20
18.724058
 30
0.0
 10
9.722474
 20
18.717113
 30
0.0
 10
9.722474
 20
18.716125
 30
0.0
 10
9.716630
 20
18.685858
 30
0.0
 10
9.701187
 20
18.654362
 30
0.0
 10
9.691914
 20
18.622975
 30
0.0
 10
9.704581
 20
18.593037
 30
0.0
 10
9.953772
 20
18.523754
 30
0.0
 10
10.206118
 20
18.463722
 30
0.0
 10
10.222713
 20
18.495459
 30
0.0
 10
10.214546
 20
18.528650
 30
0.0
 10
10.189556
 20
18.555022
 30
0.0
 10
10.155685
 20
18.566304
 30
0.0
 10
9.724082
 20
18.724061
 30
0.0
 10
9.724082
 20
18.724061
 30
0.0
 10
9.723885
 20
18.724058
 30
0.0
  0
LWPOLYLINE
  5
110
100
AcDbEntity
  8
Layer_1
 62
7
100
AcDbPolyline
 90
16
 70
0
 10
6.778303
 20
18.680675
 30
0.0
 10
6.757470
 20
18.676467
 30
0.0
 10
6.740455
 20
18.664998
 30
0.0
 10
6.728980
 20
18.647987
 30
0.0
 10
6.724766
 20
18.627154
 30
0.0
 10
6.740434
 20
18.589273
 30
0.0
 10
6.778303
 20
18.573574
 30
0.0
 10
6.799142
 20
18.577796
 30
0.0
 10
6.816154
 20
18.589283
 30
0.0
 10
6.827618
 20
18.606310
 30
0.0
 10
6.831813
 20
18.627154
 30
0.0
 10
6.827601
 20
18.647980
 30
0.0
 10
6.816133
 20
18.664988
 30
0.0
 10
6.799128
 20
18.676459
 30
0.0
 10
6.778303
 20
18.680675
 30
0.0
 10
6.778303
 20
18.680675
 30
0.0
  0
LWPOLYLINE
  5
111
100
AcDbEntity
  8
Layer_1
 62
7
100
AcDbPolyline
 90
15
 70
0
 10
10.923724
 20
18.589670
 30
0.0
 10
10.922031
 20
18.582781
 30
0.0
 10
10.922031
 20
18.581849
 30
0.0
 10
10.912689
 20
18.549106
 30
0.0
 10
10.897562
 20
18.513924
 30
0.0
 10
10.892194
 20
18.479962
 30
0.0
 10
10.912125
 20
18.450881
 30
0.0
 10
11.341724
 20
18.336889
 30
0.0
 10
11.359457
 20
18.369510
 30
0.0
 10
11.350596
 20
18.403602
 30
0.0
 10
11.324098
 20
18.430782
 30
0.0
 10
11.288920
 20
18.442669
 30
0.0
 10
10.924007
 20
18.589678
 30
0.0
 10
10.924007
 20
18.589678
 30
0.0
 10
10.923724
 20
18.589670
 30
0.0
  0
LWPOLYLINE
  5
112
100
AcDbEntity
  8
Layer_1
 62
7
100
AcDbPolyline
 90
18
 70
0
 10
13.443941
 20
18.541551
 30
0.0
 10
13.443941
 20
18.541551
 30
0.0
 10
13.443941
 20
18.541551
 30
0.0
 10
13.443941
 20
18.541551
 30
0.0
 10
13.443941
 20
18.541551
 30
0.0
 10
13.441683
 20
18.534935
 30
0.0
 10
13.441118
 20
18.533665
 30
0.0
 10
13.413355
 20
18.470821
 30
0.0
 10
13.406011
 20
18.438062
 30
0.0
 10
13.420008
 20
18.407272
 30
0.0
 10
13.681826
 20
18.311692
 30
0.0
 10
13.793840
 20
18.283690
 30
0.0
 10
13.785281
 20
18.316428
 30
0.0
 10
13.769800
 20
18.344405
 30
0.0
 10
13.723485
 20
18.388870
 30
0.0
 10
13.607347
 20
18.451369
 30
0.0
 10
13.443912
 20
18.541548
 30
0.0
 10
13.443941
 20
18.541551
 30
0.0
  0
LWPOLYLINE
  5
113
100
AcDbEntity
  8
Layer_1
 62
7
100
AcDbPolyline
 90
12
 70
0
 10
11.994363
 20
18.526062
 30
0.0
 10
11.976374
 20
18.521582
 30
0.0
 10
11.964715
 20
18.510352
 30
0.0
 10
11.958838
 20
18.477356
 30
0.0
 10
11.973630
 20
18.446498
 30
0.0
 10
11.987808
 20
18.437942
 30
0.0
 10
12.005990
 20
18.437205
 30
0.0
 10
12.036269
 20
18.454749
 30
0.0
 10
12.042033
 20
18.485272
 30
0.0
 10
12.026870
 20
18.513975
 30
0.0
 10
11.994363
 20
18.526062
 30
0.0
 10
11.994363
 20
18.526062
 30
0.0
  0
LWPOLYLINE
  5
114
100
AcDbEntity
  8
Layer_1
 62
7
100
AcDbPolyline
 90
13
 70
0
 10
12.038643
 20
18.388863
 30
0.0
 10
12.028145
 20
18.388327
 30
0.0
 10
12.009215
 20
18.382543
 30
0.0
 10
11.997491
 20
18.369846
 30
0.0
 10
11.993378
 20
18.334143
 30
0.0
 10
12.011242
 20
18.302079
 30
0.0
 10
12.026988
 20
18.293929
 30
0.0
 10
12.046517
 20
18.294510
 30
0.0
 10
12.074894
 20
18.314366
 30
0.0
 10
12.081379
 20
18.345602
 30
0.0
 10
12.068464
 20
18.374885
 30
0.0
 10
12.038643
 20
18.388880
 30
0.0
 10
12.038643
 20
18.388863
 30
0.0
  0
LWPOLYLINE
  5
115
100
AcDbEntity
  8
Layer_1
 62
7
100
AcDbPolyline
 90
27
 70
0
 10
2.890001
 20
18.290912
 30
0.0
 10
2.734746
 20
18.245537
 30
0.0
 10
2.659611
 20
18.216357
 30
0.0
 10
2.589589
 20
18.176096
 30
0.0
 10
2.590359
 20
18.195432
 30
0.0
 10
2.581888
 20
18.202804
 30
0.0
 10
2.549624
 20
18.201340
 30
0.0
 10
2.519983
 20
18.188299
 30
0.0
 10
2.500708
 20
18.163733
 30
0.0
 10
2.492552
 20
18.132793
 30
0.0
 10
2.496267
 20
18.100632
 30
0.0
 10
2.569413
 20
16.998148
 30
0.0
 10
2.594994
 20
16.999229
 30
0.0
 10
2.617173
 20
17.008189
 30
0.0
 10
2.649533
 20
17.043463
 30
0.0
 10
2.662903
 20
17.091413
 30
0.0
 10
2.653693
 20
17.139479
 30
0.0
 10
2.590193
 20
18.166999
 30
0.0
 10
2.699709
 20
18.155708
 30
0.0
 10
2.809637
 20
18.157072
 30
0.0
 10
3.028631
 20
18.180780
 30
0.0
 10
2.967686
 20
18.204468
 30
0.0
 10
2.944285
 20
18.222888
 30
0.0
 10
2.940107
 20
18.253597
 30
0.0
 10
2.922067
 20
18.281601
 30
0.0
 10
2.890001
 20
18.290912
 30
0.0
 10
2.890001
 20
18.290912
 30
0.0
  0
LWPOLYLINE
  5
116
100
AcDbEntity
  8
Layer_1
 62
7
100
AcDbPolyline
 90
13
 70
0
 10
7.027759
 20
18.289698
 30
0.0
 10
7.002716
 20
18.276330
 30
0.0
 10
6.993148
 20
18.249292
 30
0.0
 10
6.999038
 20
18.219691
 30
0.0
 10
7.020365
 20
18.198637
 30
0.0
 10
7.049985
 20
18.196792
 30
0.0
 10
7.073300
 20
18.214012
 30
0.0
 10
7.083306
 20
18.241308
 30
0.0
 10
7.073000
 20
18.269689
 30
0.0
 10
7.057365
 20
18.283925
 30
0.0
 10
7.037073
 20
18.289535
 30
0.0
 10
7.027759
 20
18.289817
 30
0.0
 10
7.027759
 20
18.289698
 30
0.0
  0
LWPOLYLINE
  5
117
100
AcDbEntity
  8
Layer_1
 62
7
100
AcDbPolyline
 90
14
 70
0
 10
1.686202
 20
18.221844
 30
0.0
 10
1.673191
 20
18.221449
 30
0.0
 10
1.540133
 20
18.171659
 30
0.0
 10
1.477778
 20
18.138208
 30
0.0
 10
1.421838
 20
18.094449
 30
0.0
 10
1.600405
 20
18.093108
 30
0.0
 10
1.688426
 20
18.103114
 30
0.0
 10
1.772576
 20
18.132484
 30
0.0
 10
1.747653
 20
18.137867
 30
0.0
 10
1.732876
 20
18.154730
 30
0.0
 10
1.716958
 20
18.201329
 30
0.0
 10
1.704370
 20
18.215940
 30
0.0
 10
1.686202
 20
18.221835
 30
0.0
 10
1.686202
 20
18.221844
 30
0.0
  0
LWPOLYLINE
  5
118
100
AcDbEntity
  8
Layer_1
 62
7
100
AcDbPolyline
 90
16
 70
0
 10
6.945351
 20
17.487239
 30
0.0
 10
6.938718
 20
17.484755
 30
0.0
 10
6.935473
 20
17.483542
 30
0.0
 10
6.903569
 20
17.473527
 30
0.0
 10
6.867655
 20
17.468585
 30
0.0
 10
6.837095
 20
17.456941
 30
0.0
 10
6.821257
 20
17.426824
 30
0.0
 10
6.833086
 20
17.333961
 30
0.0
 10
6.842685
 20
17.288842
 30
0.0
 10
6.867627
 20
17.250545
 30
0.0
 10
6.897566
 20
17.250377
 30
0.0
 10
6.919016
 20
17.269943
 30
0.0
 10
6.931083
 20
17.299598
 30
0.0
 10
6.932876
 20
17.329697
 30
0.0
 10
6.945351
 20
17.487236
 30
0.0
 10
6.945351
 20
17.487239
 30
0.0
  0
LWPOLYLINE
  5
119
100
AcDbEntity
  8
Layer_1
 62
7
100
AcDbPolyline
 90
13
 70
0
 10
9.786651
 20
17.449207
 30
0.0
 10
9.777112
 20
17.448925
 30
0.0
 10
9.758326
 20
17.443879
 30
0.0
 10
9.746584
 20
17.431653
 30
0.0
 10
9.742056
 20
17.396396
 30
0.0
 10
9.759177
 20
17.364624
 30
0.0
 10
9.774495
 20
17.356754
 30
0.0
 10
9.793594
 20
17.357806
 30
0.0
 10
9.819746
 20
17.376419
 30
0.0
 10
9.825714
 20
17.406296
 30
0.0
 10
9.813886
 20
17.434749
 30
0.0
 10
9.786651
 20
17.449088
 30
0.0
 10
9.786651
 20
17.449207
 30
0.0
  0
LWPOLYLINE
  5
11a
100
AcDbEntity
  8
Layer_1
 62
7
100
AcDbPolyline
 90
15
 70
0
 10
13.014822
 20
17.388351
 30
0.0
 10
13.013411
 20
17.381406
 30
0.0
 10
13.013411
 20
17.380418
 30
0.0
 10
12.994230
 20
17.313089
 30
0.0
 10
12.992317
 20
17.279939
 30
0.0
 10
13.011435
 20
17.252204
 30
0.0
 10
13.309772
 20
17.194383
 30
0.0
 10
13.409763
 20
17.186830
 30
0.0
 10
13.392812
 20
17.219270
 30
0.0
 10
13.369877
 20
17.245357
 30
0.0
 10
13.311014
 20
17.282865
 30
0.0
 10
13.176027
 20
17.329926
 30
0.0
 10
13.014963
 20
17.388357
 30
0.0
 10
13.014963
 20
17.388357
 30
0.0
 10
13.014822
 20
17.388351
 30
0.0
  0
LWPOLYLINE
  5
11b
100
AcDbEntity
  8
Layer_1
 62
7
100
AcDbPolyline
 90
15
 70
0
 10
8.068228
 20
17.313828
 30
0.0
 10
8.036773
 20
17.292703
 30
0.0
 10
8.023764
 20
17.258335
 30
0.0
 10
8.015199
 20
17.181259
 30
0.0
 10
8.008510
 20
17.149639
 30
0.0
 10
8.014567
 20
17.115927
 30
0.0
 10
8.033372
 20
17.092267
 30
0.0
 10
8.064926
 20
17.090804
 30
0.0
 10
8.096505
 20
17.132378
 30
0.0
 10
8.119970
 20
17.179490
 30
0.0
 10
8.144682
 20
17.280367
 30
0.0
 10
8.131383
 20
17.297415
 30
0.0
 10
8.111673
 20
17.306289
 30
0.0
 10
8.068228
 20
17.313828
 30
0.0
 10
8.068228
 20
17.313828
 30
0.0
  0
LWPOLYLINE
  5
11c
100
AcDbEntity
  8
Layer_1
 62
7
100
AcDbPolyline
 90
17
 70
0
 10
5.681133
 20
17.305228
 30
0.0
 10
5.648797
 20
17.293523
 30
0.0
 10
5.626694
 20
17.266453
 30
0.0
 10
5.620883
 20
17.233291
 30
0.0
 10
5.637423
 20
17.203309
 30
0.0
 10
5.664930
 20
17.138156
 30
0.0
 10
5.682834
 20
17.108655
 30
0.0
 10
5.710569
 20
17.089757
 30
0.0
 10
5.741923
 20
17.109145
 30
0.0
 10
5.755416
 20
17.141938
 30
0.0
 10
5.755403
 20
17.180156
 30
0.0
 10
5.746234
 20
17.215820
 30
0.0
 10
5.744362
 20
17.248357
 30
0.0
 10
5.734527
 20
17.278875
 30
0.0
 10
5.714271
 20
17.300217
 30
0.0
 10
5.681133
 20
17.305228
 30
0.0
 10
5.681133
 20
17.305228
 30
0.0
  0
LWPOLYLINE
  5
11d
100
AcDbEntity
  8
Layer_1
 62
7
100
AcDbPolyline
 90
16
 70
0
 10
11.762037
 20
17.263612
 30
0.0
 10
11.761191
 20
17.256610
 30
0.0
 10
11.761191
 20
17.255340
 30
0.0
 10
11.746512
 20
17.185832
 30
0.0
 10
11.746113
 20
17.151896
 30
0.0
 10
11.767710
 20
17.124812
 30
0.0
 10
11.995513
 20
17.087769
 30
0.0
 10
12.110197
 20
17.073501
 30
0.0
 10
12.225559
 20
17.067157
 30
0.0
 10
12.204666
 20
17.099762
 30
0.0
 10
12.178231
 20
17.125420
 30
0.0
 10
12.113362
 20
17.160822
 30
0.0
 10
11.967975
 20
17.202480
 30
0.0
 10
11.762207
 20
17.263609
 30
0.0
 10
11.762207
 20
17.263609
 30
0.0
 10
11.762037
 20
17.263612
 30
0.0
  0
LWPOLYLINE
  5
11e
100
AcDbEntity
  8
Layer_1
 62
7
100
AcDbPolyline
 90
15
 70
0
 10
1.792532
 20
17.012586
 30
0.0
 10
1.661397
 20
17.000365
 30
0.0
 10
1.596922
 20
16.987704
 30
0.0
 10
1.535664
 20
16.963254
 30
0.0
 10
1.622443
 20
16.928677
 30
0.0
 10
1.712549
 20
16.902926
 30
0.0
 10
1.804832
 20
16.888653
 30
0.0
 10
1.898145
 20
16.888510
 30
0.0
 10
1.851459
 20
16.917343
 30
0.0
 10
1.838785
 20
16.939686
 30
0.0
 10
1.842581
 20
16.967389
 30
0.0
 10
1.838742
 20
16.985708
 30
0.0
 10
1.827306
 20
17.000240
 30
0.0
 10
1.792532
 20
17.012586
 30
0.0
 10
1.792532
 20
17.012586
 30
0.0
  0
LWPOLYLINE
  5
11f
100
AcDbEntity
  8
Layer_1
 62
7
100
AcDbPolyline
 90
14
 70
0
 10
9.182554
 20
16.834547
 30
0.0
 10
9.146342
 20
16.800208
 30
0.0
 10
9.122642
 20
16.755670
 30
0.0
 10
9.090776
 20
16.659258
 30
0.0
 10
9.107212
 20
16.631825
 30
0.0
 10
9.138277
 20
16.625632
 30
0.0
 10
9.169369
 20
16.637879
 30
0.0
 10
9.185885
 20
16.665764
 30
0.0
 10
9.237168
 20
16.724932
 30
0.0
 10
9.255032
 20
16.758180
 30
0.0
 10
9.253674
 20
16.795464
 30
0.0
 10
9.223205
 20
16.824577
 30
0.0
 10
9.182554
 20
16.834547
 30
0.0
 10
9.182554
 20
16.834547
 30
0.0
  0
LWPOLYLINE
  5
120
100
AcDbEntity
  8
Layer_1
 62
7
100
AcDbPolyline
 90
16
 70
0
 10
4.586862
 20
16.821039
 30
0.0
 10
4.575892
 20
16.821039
 30
0.0
 10
4.539956
 20
16.808822
 30
0.0
 10
4.516569
 20
16.777584
 30
0.0
 10
4.513018
 20
16.740650
 30
0.0
 10
4.520958
 20
16.724212
 30
0.0
 10
4.536590
 20
16.711348
 30
0.0
 10
4.585982
 20
16.650443
 30
0.0
 10
4.615155
 20
16.625888
 30
0.0
 10
4.650526
 20
16.616705
 30
0.0
 10
4.670627
 20
16.652724
 30
0.0
 10
4.668146
 20
16.692764
 30
0.0
 10
4.633273
 20
16.769060
 30
0.0
 10
4.617683
 20
16.802739
 30
0.0
 10
4.586862
 20
16.821149
 30
0.0
 10
4.586862
 20
16.821039
 30
0.0
  0
LWPOLYLINE
  5
121
100
AcDbEntity
  8
Layer_1
 62
7
100
AcDbPolyline
 90
14
 70
0
 10
3.365478
 20
16.179150
 30
0.0
 10
3.345968
 20
16.176532
 30
0.0
 10
3.332726
 20
16.165939
 30
0.0
 10
3.324021
 20
16.131570
 30
0.0
 10
3.337311
 20
16.097523
 30
0.0
 10
3.351565
 20
16.087333
 30
0.0
 10
3.370549
 20
16.085278
 30
0.0
 10
3.389493
 20
16.090585
 30
0.0
 10
3.402720
 20
16.102230
 30
0.0
 10
3.412268
 20
16.135533
 30
0.0
 10
3.399688
 20
16.167176
 30
0.0
 10
3.385256
 20
16.176747
 30
0.0
 10
3.365478
 20
16.179150
 30
0.0
 10
3.365478
 20
16.179150
 30
0.0
  0
LWPOLYLINE
  5
122
100
AcDbEntity
  8
Layer_1
 62
7
100
AcDbPolyline
 90
15
 70
0
 10
12.786081
 20
16.176009
 30
0.0
 10
12.783541
 20
16.173187
 30
0.0
 10
12.763345
 20
16.140030
 30
0.0
 10
12.756595
 20
16.099945
 30
0.0
 10
12.767658
 20
16.064207
 30
0.0
 10
12.800897
 20
16.044093
 30
0.0
 10
12.874275
 20
16.042659
 30
0.0
 10
12.947653
 20
16.038525
 30
0.0
 10
13.086781
 20
16.037664
 30
0.0
 10
13.223751
 20
16.060352
 30
0.0
 10
13.119766
 20
16.106545
 30
0.0
 10
13.010511
 20
16.137214
 30
0.0
 10
12.786137
 20
16.175998
 30
0.0
 10
12.786137
 20
16.175998
 30
0.0
 10
12.786081
 20
16.176009
 30
0.0
  0
LWPOLYLINE
  5
123
100
AcDbEntity
  8
Layer_1
 62
7
100
AcDbPolyline
 90
10
 70
0
 10
13.977764
 20
16.174259
 30
0.0
 10
13.974942
 20
16.171118
 30
0.0
 10
13.951778
 20
16.143757
 30
0.0
 10
13.936676
 20
16.108573
 30
0.0
 10
13.937497
 20
16.073491
 30
0.0
 10
13.962101
 20
16.046433
 30
0.0
 10
14.000398
 20
16.043780
 30
0.0
 10
14.000398
 20
16.169236
 30
0.0
 10
13.977764
 20
16.174251
 30
0.0
 10
13.977764
 20
16.174259
 30
0.0
  0
LWPOLYLINE
  5
124
100
AcDbEntity
  8
Layer_1
 62
7
100
AcDbPolyline
 90
14
 70
0
 10
6.345899
 20
16.156621
 30
0.0
 10
6.325964
 20
16.153068
 30
0.0
 10
6.312578
 20
16.141950
 30
0.0
 10
6.304135
 20
16.107143
 30
0.0
 10
6.317939
 20
16.072449
 30
0.0
 10
6.332361
 20
16.061472
 30
0.0
 10
6.351357
 20
16.058117
 30
0.0
 10
6.371486
 20
16.062993
 30
0.0
 10
6.385213
 20
16.074685
 30
0.0
 10
6.394373
 20
16.109132
 30
0.0
 10
6.380661
 20
16.142697
 30
0.0
 10
6.365797
 20
16.153286
 30
0.0
 10
6.345899
 20
16.156621
 30
0.0
 10
6.345899
 20
16.156621
 30
0.0
  0
LWPOLYLINE
  5
125
100
AcDbEntity
  8
Layer_1
 62
7
100
AcDbPolyline
 90
9
 70
0
 10
0.033714
 20
16.126634
 30
0.0
 10
0.024562
 20
16.126126
 30
0.0
 10
0.000421
 20
16.107551
 30
0.0
 10
0.000421
 20
15.895441
 30
0.0
 10
0.046495
 20
15.998196
 30
0.0
 10
0.056764
 20
16.053344
 30
0.0
 10
0.056698
 20
16.110525
 30
0.0
 10
0.033714
 20
16.126620
 30
0.0
 10
0.033714
 20
16.126634
 30
0.0
  0
LWPOLYLINE
  5
126
100
AcDbEntity
  8
Layer_1
 62
7
100
AcDbPolyline
 90
12
 70
0
 10
3.630284
 20
16.091520
 30
0.0
 10
3.627140
 20
16.085182
 30
0.0
 10
3.625475
 20
16.081820
 30
0.0
 10
3.609052
 20
16.051730
 30
0.0
 10
3.587102
 20
16.022329
 30
0.0
 10
3.573342
 20
15.991765
 30
0.0
 10
3.581488
 20
15.958182
 30
0.0
 10
3.696135
 20
15.880709
 30
0.0
 10
3.759746
 20
15.855883
 30
0.0
 10
3.828652
 20
15.851191
 30
0.0
 10
3.630273
 20
16.091520
 30
0.0
 10
3.630284
 20
16.091520
 30
0.0
  0
LWPOLYLINE
  5
127
100
AcDbEntity
  8
Layer_1
 62
7
100
AcDbPolyline
 90
15
 70
0
 10
10.134800
 20
16.075262
 30
0.0
 10
10.092672
 20
16.046592
 30
0.0
 10
10.058103
 20
16.008664
 30
0.0
 10
10.003990
 20
15.921693
 30
0.0
 10
10.019382
 20
15.892406
 30
0.0
 10
10.049693
 20
15.883753
 30
0.0
 10
10.083322
 20
15.892085
 30
0.0
 10
10.108667
 20
15.913754
 30
0.0
 10
10.193404
 20
15.978491
 30
0.0
 10
10.269844
 20
16.052551
 30
0.0
 10
10.214197
 20
16.036943
 30
0.0
 10
10.187945
 20
16.040523
 30
0.0
 10
10.169175
 20
16.061644
 30
0.0
 10
10.134800
 20
16.075262
 30
0.0
 10
10.134800
 20
16.075262
 30
0.0
  0
LWPOLYLINE
  5
128
100
AcDbEntity
  8
Layer_1
 62
7
100
AcDbPolyline
 90
13
 70
0
 10
1.233983
 20
16.059220
 30
0.0
 10
1.195679
 20
16.025087
 30
0.0
 10
1.175772
 20
15.978056
 30
0.0
 10
1.149373
 20
15.876492
 30
0.0
 10
1.140185
 20
15.796967
 30
0.0
 10
1.136749
 20
15.716859
 30
0.0
 10
1.194412
 20
15.786023
 30
0.0
 10
1.237718
 20
15.865716
 30
0.0
 10
1.262428
 20
15.952204
 30
0.0
 10
1.264302
 20
16.041748
 30
0.0
 10
1.251663
 20
16.055055
 30
0.0
 10
1.233983
 20
16.059220
 30
0.0
 10
1.233983
 20
16.059220
 30
0.0
  0
LWPOLYLINE
  5
129
100
AcDbEntity
  8
Layer_1
 62
7
100
AcDbPolyline
 90
14
 70
0
 10
7.208325
 20
15.987121
 30
0.0
 10
7.189967
 20
15.984141
 30
0.0
 10
7.177298
 20
15.974067
 30
0.0
 10
7.168320
 20
15.941998
 30
0.0
 10
7.179980
 20
15.909643
 30
0.0
 10
7.193108
 20
15.899210
 30
0.0
 10
7.210865
 20
15.895729
 30
0.0
 10
7.230494
 20
15.899745
 30
0.0
 10
7.244358
 20
15.910475
 30
0.0
 10
7.254924
 20
15.942881
 30
0.0
 10
7.242826
 20
15.974558
 30
0.0
 10
7.228359
 20
15.984378
 30
0.0
 10
7.208325
 20
15.987121
 30
0.0
 10
7.208325
 20
15.987121
 30
0.0
  0
LWPOLYLINE
  5
12a
100
AcDbEntity
  8
Layer_1
 62
7
100
AcDbPolyline
 90
13
 70
0
 10
6.411990
 20
15.968048
 30
0.0
 10
6.339220
 20
15.955345
 30
0.0
 10
6.270277
 20
15.928872
 30
0.0
 10
6.208208
 20
15.889177
 30
0.0
 10
6.156060
 20
15.836803
 30
0.0
 10
6.314663
 20
15.853118
 30
0.0
 10
6.390711
 20
15.875000
 30
0.0
 10
6.459725
 20
15.913591
 30
0.0
 10
6.463676
 20
15.935861
 30
0.0
 10
6.453245
 20
15.953784
 30
0.0
 10
6.434120
 20
15.965225
 30
0.0
 10
6.411990
 20
15.968048
 30
0.0
 10
6.411990
 20
15.968048
 30
0.0
  0
LWPOLYLINE
  5
12b
100
AcDbEntity
  8
Layer_1
 62
7
100
AcDbPolyline
 90
13
 70
0
 10
7.438308
 20
15.961986
 30
0.0
 10
7.414336
 20
15.949477
 30
0.0
 10
7.410887
 20
15.924666
 30
0.0
 10
7.423540
 20
15.900008
 30
0.0
 10
7.447875
 20
15.887956
 30
0.0
 10
7.498638
 20
15.867438
 30
0.0
 10
7.552245
 20
15.857297
 30
0.0
 10
7.661885
 20
15.856373
 30
0.0
 10
7.616576
 20
15.901799
 30
0.0
 10
7.562585
 20
15.936481
 30
0.0
 10
7.502349
 20
15.957512
 30
0.0
 10
7.438308
 20
15.961986
 30
0.0
 10
7.438308
 20
15.961986
 30
0.0
  0
LWPOLYLINE
  5
12c
100
AcDbEntity
  8
Layer_1
 62
7
100
AcDbPolyline
 90
13
 70
0
 10
3.999377
 20
15.916732
 30
0.0
 10
3.982949
 20
15.905982
 30
0.0
 10
3.893209
 20
15.848183
 30
0.0
 10
3.853014
 20
15.814827
 30
0.0
 10
3.829050
 20
15.768235
 30
0.0
 10
3.834340
 20
15.739510
 30
0.0
 10
3.857894
 20
15.726764
 30
0.0
 10
3.887503
 20
15.729393
 30
0.0
 10
3.910962
 20
15.746792
 30
0.0
 10
3.945144
 20
15.781465
 30
0.0
 10
3.968397
 20
15.823920
 30
0.0
 10
3.999377
 20
15.916732
 30
0.0
 10
3.999377
 20
15.916732
 30
0.0
  0
LWPOLYLINE
  5
12d
100
AcDbEntity
  8
Layer_1
 62
7
100
AcDbPolyline
 90
16
 70
0
 10
1.397088
 20
15.849317
 30
0.0
 10
1.379741
 20
15.845016
 30
0.0
 10
1.368145
 20
15.834600
 30
0.0
 10
1.360993
 20
15.803502
 30
0.0
 10
1.373197
 20
15.772174
 30
0.0
 10
1.402326
 20
15.756768
 30
0.0
 10
1.470033
 20
15.719980
 30
0.0
 10
1.505396
 20
15.710335
 30
0.0
 10
1.541066
 20
15.722647
 30
0.0
 10
1.559317
 20
15.754788
 30
0.0
 10
1.557356
 20
15.792844
 30
0.0
 10
1.537493
 20
15.823266
 30
0.0
 10
1.502040
 20
15.832505
 30
0.0
 10
1.449888
 20
15.843566
 30
0.0
 10
1.397088
 20
15.849317
 30
0.0
 10
1.397088
 20
15.849317
 30
0.0
  0
LWPOLYLINE
  5
12e
100
AcDbEntity
  8
Layer_1
 62
7
100
AcDbPolyline
 90
13
 70
0
 10
2.317838
 20
15.671551
 30
0.0
 10
2.317838
 20
15.671551
 30
0.0
 10
2.293391
 20
15.658763
 30
0.0
 10
2.283997
 20
15.632611
 30
0.0
 10
2.289635
 20
15.603826
 30
0.0
 10
2.310288
 20
15.583137
 30
0.0
 10
2.341597
 20
15.581577
 30
0.0
 10
2.365175
 20
15.601175
 30
0.0
 10
2.373202
 20
15.630647
 30
0.0
 10
2.357857
 20
15.658707
 30
0.0
 10
2.326934
 20
15.671331
 30
0.0
 10
2.317838
 20
15.671613
 30
0.0
 10
2.317838
 20
15.671551
 30
0.0
  0
LWPOLYLINE
  5
12f
100
AcDbEntity
  8
Layer_1
 62
7
100
AcDbPolyline
 90
13
 70
0
 10
1.073249
 20
15.645643
 30
0.0
 10
1.063219
 20
15.644938
 30
0.0
 10
1.045217
 20
15.638577
 30
0.0
 10
1.034112
 20
15.625735
 30
0.0
 10
1.030475
 20
15.590658
 30
0.0
 10
1.048060
 20
15.559804
 30
0.0
 10
1.063484
 20
15.552242
 30
0.0
 10
1.082621
 20
15.553272
 30
0.0
 10
1.109018
 20
15.573031
 30
0.0
 10
1.114695
 20
15.603782
 30
0.0
 10
1.101993
 20
15.632373
 30
0.0
 10
1.073249
 20
15.645654
 30
0.0
 10
1.073249
 20
15.645643
 30
0.0
  0
LWPOLYLINE
  5
130
100
AcDbEntity
  8
Layer_1
 62
7
100
AcDbPolyline
 90
13
 70
0
 10
3.534204
 20
15.376762
 30
0.0
 10
3.515707
 20
15.371058
 30
0.0
 10
3.504261
 20
15.358633
 30
0.0
 10
3.500244
 20
15.323695
 30
0.0
 10
3.517589
 20
15.292097
 30
0.0
 10
3.532846
 20
15.283849
 30
0.0
 10
3.551733
 20
15.283992
 30
0.0
 10
3.569615
 20
15.291808
 30
0.0
 10
3.580700
 20
15.304442
 30
0.0
 10
3.584599
 20
15.336688
 30
0.0
 10
3.567683
 20
15.365778
 30
0.0
 10
3.534204
 20
15.376762
 30
0.0
 10
3.534204
 20
15.376762
 30
0.0
  0
LWPOLYLINE
  5
131
100
AcDbEntity
  8
Layer_1
 62
7
100
AcDbPolyline
 90
12
 70
0
 10
2.908577
 20
15.095090
 30
0.0
 10
2.907250
 20
15.088201
 30
0.0
 10
2.906488
 20
15.084396
 30
0.0
 10
2.898890
 20
15.050694
 30
0.0
 10
2.885720
 20
15.016380
 30
0.0
 10
2.880715
 20
14.983167
 30
0.0
 10
2.897612
 20
14.952765
 30
0.0
 10
3.024913
 20
14.910306
 30
0.0
 10
3.090727
 20
14.904908
 30
0.0
 10
3.155527
 20
14.921678
 30
0.0
 10
2.908582
 20
15.095090
 30
0.0
 10
2.908577
 20
15.095090
 30
0.0
  0
LWPOLYLINE
  5
132
100
AcDbEntity
  8
Layer_1
 62
7
100
AcDbPolyline
 90
19
 70
0
 10
3.365204
 20
15.091562
 30
0.0
 10
3.317816
 20
15.058501
 30
0.0
 10
3.281579
 20
15.012993
 30
0.0
 10
3.215770
 20
14.915560
 30
0.0
 10
3.172396
 20
14.829638
 30
0.0
 10
3.137286
 20
14.739959
 30
0.0
 10
3.086289
 20
14.554569
 30
0.0
 10
3.100776
 20
14.535711
 30
0.0
 10
3.122909
 20
14.535862
 30
0.0
 10
3.145198
 20
14.548536
 30
0.0
 10
3.160150
 20
14.567247
 30
0.0
 10
3.204295
 20
14.639580
 30
0.0
 10
3.241145
 20
14.715951
 30
0.0
 10
3.317136
 20
14.867714
 30
0.0
 10
3.365946
 20
14.965297
 30
0.0
 10
3.398938
 20
15.068135
 30
0.0
 10
3.385687
 20
15.085235
 30
0.0
 10
3.365204
 20
15.091562
 30
0.0
 10
3.365204
 20
15.091562
 30
0.0
  0
LWPOLYLINE
  5
133
100
AcDbEntity
  8
Layer_1
 62
7
100
AcDbPolyline
 90
14
 70
0
 10
10.837647
 20
15.085884
 30
0.0
 10
10.774044
 20
15.048500
 30
0.0
 10
10.714841
 20
15.004171
 30
0.0
 10
10.608821
 20
14.900842
 30
0.0
 10
10.708394
 20
14.917293
 30
0.0
 10
10.805456
 20
14.944599
 30
0.0
 10
10.899147
 20
14.981996
 30
0.0
 10
10.988607
 20
15.028722
 30
0.0
 10
10.923894
 20
15.029679
 30
0.0
 10
10.895223
 20
15.038627
 30
0.0
 10
10.879754
 20
15.064993
 30
0.0
 10
10.861579
 20
15.081162
 30
0.0
 10
10.837647
 20
15.085884
 30
0.0
 10
10.837647
 20
15.085884
 30
0.0
  0
LWPOLYLINE
  5
134
100
AcDbEntity
  8
Layer_1
 62
7
100
AcDbPolyline
 90
14
 70
0
 10
0.741748
 20
15.015771
 30
0.0
 10
0.734749
 20
15.015771
 30
0.0
 10
0.683679
 20
14.976495
 30
0.0
 10
0.642699
 20
14.926460
 30
0.0
 10
0.566352
 20
14.820916
 30
0.0
 10
0.525871
 20
14.746541
 30
0.0
 10
0.492876
 20
14.668449
 30
0.0
 10
0.584118
 20
14.726372
 30
0.0
 10
0.665359
 20
14.798505
 30
0.0
 10
0.730514
 20
14.884310
 30
0.0
 10
0.773498
 20
14.983248
 30
0.0
 10
0.763031
 20
15.004919
 30
0.0
 10
0.741748
 20
15.015825
 30
0.0
 10
0.741748
 20
15.015771
 30
0.0
  0
LWPOLYLINE
  5
135
100
AcDbEntity
  8
Layer_1
 62
7
100
AcDbPolyline
 90
14
 70
0
 10
4.735635
 20
14.964012
 30
0.0
 10
4.721191
 20
14.958333
 30
0.0
 10
4.647263
 20
14.925932
 30
0.0
 10
4.580817
 20
14.879524
 30
0.0
 10
4.525441
 20
14.820790
 30
0.0
 10
4.484720
 20
14.751408
 30
0.0
 10
4.489554
 20
14.723020
 30
0.0
 10
4.510478
 20
14.703209
 30
0.0
 10
4.537554
 20
14.698485
 30
0.0
 10
4.560844
 20
14.715357
 30
0.0
 10
4.662681
 20
14.830358
 30
0.0
 10
4.705737
 20
14.893367
 30
0.0
 10
4.735635
 20
14.964012
 30
0.0
 10
4.735635
 20
14.964012
 30
0.0
  0
LWPOLYLINE
  5
136
100
AcDbEntity
  8
Layer_1
 62
7
100
AcDbPolyline
 90
11
 70
0
 10
13.860952
 20
14.955632
 30
0.0
 10
13.863492
 20
14.949073
 30
0.0
 10
13.864903
 20
14.945216
 30
0.0
 10
13.875915
 20
14.913370
 30
0.0
 10
13.879318
 20
14.876941
 30
0.0
 10
13.887874
 20
14.844139
 30
0.0
 10
13.914349
 20
14.823174
 30
0.0
 10
14.000398
 20
14.831884
 30
0.0
 10
14.000398
 20
14.948300
 30
0.0
 10
13.860952
 20
14.955632
 30
0.0
 10
13.860952
 20
14.955632
 30
0.0
  0
LWPOLYLINE
  5
137
100
AcDbEntity
  8
Layer_1
 62
7
100
AcDbPolyline
 90
15
 70
0
 10
12.742364
 20
14.950617
 30
0.0
 10
12.717792
 20
14.923757
 30
0.0
 10
12.710463
 20
14.886255
 30
0.0
 10
12.720135
 20
14.849708
 30
0.0
 10
12.746569
 20
14.825711
 30
0.0
 10
12.783688
 20
14.822984
 30
0.0
 10
12.820614
 20
14.828855
 30
0.0
 10
12.895103
 20
14.837672
 30
0.0
 10
13.040924
 20
14.857412
 30
0.0
 10
13.112055
 20
14.875714
 30
0.0
 10
13.180627
 20
14.902439
 30
0.0
 10
13.073656
 20
14.931470
 30
0.0
 10
12.963856
 20
14.945236
 30
0.0
 10
12.742364
 20
14.950617
 30
0.0
 10
12.742364
 20
14.950617
 30
0.0
  0
LWPOLYLINE
  5
138
100
AcDbEntity
  8
Layer_1
 62
7
100
AcDbPolyline
 90
13
 70
0
 10
9.195452
 20
14.933198
 30
0.0
 10
9.191981
 20
14.930489
 30
0.0
 10
9.169978
 20
14.907464
 30
0.0
 10
9.168380
 20
14.878038
 30
0.0
 10
9.181122
 20
14.848434
 30
0.0
 10
9.202141
 20
14.824876
 30
0.0
 10
9.300954
 20
14.714726
 30
0.0
 10
9.411747
 20
14.616627
 30
0.0
 10
9.390607
 20
14.714550
 30
0.0
 10
9.345795
 20
14.804249
 30
0.0
 10
9.279885
 20
14.879277
 30
0.0
 10
9.195452
 20
14.933190
 30
0.0
 10
9.195452
 20
14.933198
 30
0.0
  0
LWPOLYLINE
  5
139
100
AcDbEntity
  8
Layer_1
 62
7
100
AcDbPolyline
 90
12
 70
0
 10
6.917015
 20
14.881936
 30
0.0
 10
6.855708
 20
14.869298
 30
0.0
 10
6.797060
 20
14.847663
 30
0.0
 10
6.687541
 20
14.786849
 30
0.0
 10
6.896396
 20
14.773254
 30
0.0
 10
7.105653
 20
14.778857
 30
0.0
 10
7.095999
 20
14.822266
 30
0.0
 10
7.065507
 20
14.851998
 30
0.0
 10
7.023690
 20
14.869661
 30
0.0
 10
6.980064
 20
14.876864
 30
0.0
 10
6.917015
 20
14.881936
 30
0.0
 10
6.917015
 20
14.881936
 30
0.0
  0
LWPOLYLINE
  5
13a
100
AcDbEntity
  8
Layer_1
 62
7
100
AcDbPolyline
 90
15
 70
0
 10
0.849622
 20
14.801897
 30
0.0
 10
0.821617
 20
14.786584
 30
0.0
 10
0.814116
 20
14.757068
 30
0.0
 10
0.823859
 20
14.725409
 30
0.0
 10
0.847590
 20
14.703670
 30
0.0
 10
0.901119
 20
14.654993
 30
0.0
 10
0.932437
 20
14.641400
 30
0.0
 10
0.967424
 20
14.648549
 30
0.0
 10
0.992243
 20
14.678405
 30
0.0
 10
0.993132
 20
14.717425
 30
0.0
 10
0.973657
 20
14.751057
 30
0.0
 10
0.937384
 20
14.764746
 30
0.0
 10
0.895675
 20
14.789606
 30
0.0
 10
0.849630
 20
14.801897
 30
0.0
 10
0.849622
 20
14.801897
 30
0.0
  0
LWPOLYLINE
  5
13b
100
AcDbEntity
  8
Layer_1
 62
7
100
AcDbPolyline
 90
20
 70
0
 10
1.917932
 20
14.737020
 30
0.0
 10
1.868128
 20
14.690065
 30
0.0
 10
1.833939
 20
14.630392
 30
0.0
 10
1.805270
 20
14.566223
 30
0.0
 10
1.772025
 20
14.505784
 30
0.0
 10
1.715437
 20
14.396993
 30
0.0
 10
1.693742
 20
14.339892
 30
0.0
 10
1.681240
 20
14.279843
 30
0.0
 10
1.726017
 20
14.329112
 30
0.0
 10
1.754148
 20
14.342242
 30
0.0
 10
1.785640
 20
14.334027
 30
0.0
 10
1.821102
 20
14.339409
 30
0.0
 10
1.844455
 20
14.364796
 30
0.0
 10
1.868212
 20
14.434292
 30
0.0
 10
1.920354
 20
14.573536
 30
0.0
 10
1.941734
 20
14.644638
 30
0.0
 10
1.952219
 20
14.717671
 30
0.0
 10
1.937963
 20
14.732755
 30
0.0
 10
1.917932
 20
14.737020
 30
0.0
 10
1.917932
 20
14.737020
 30
0.0
  0
LWPOLYLINE
  5
13c
100
AcDbEntity
  8
Layer_1
 62
7
100
AcDbPolyline
 90
24
 70
0
 10
2.903725
 20
14.004069
 30
0.0
 10
2.894299
 20
14.003533
 30
0.0
 10
2.870929
 20
13.994709
 30
0.0
 10
2.857995
 20
13.974030
 30
0.0
 10
2.855387
 20
13.948341
 30
0.0
 10
2.862992
 20
13.924488
 30
0.0
 10
2.838156
 20
13.883065
 30
0.0
 10
2.821545
 20
13.839018
 30
0.0
 10
2.805870
 20
13.745562
 30
0.0
 10
2.794804
 20
13.554735
 30
0.0
 10
2.771263
 20
13.232419
 30
0.0
 10
2.762898
 20
13.071213
 30
0.0
 10
2.763828
 20
12.910472
 30
0.0
 10
2.792545
 20
12.895800
 30
0.0
 10
2.821785
 20
12.907288
 30
0.0
 10
2.841820
 20
12.934576
 30
0.0
 10
2.842926
 20
12.967303
 30
0.0
 10
2.887183
 20
13.441593
 30
0.0
 10
2.923845
 20
13.915779
 30
0.0
 10
2.943304
 20
13.939611
 30
0.0
 10
2.945187
 20
13.968458
 30
0.0
 10
2.931368
 20
13.993041
 30
0.0
 10
2.903725
 20
14.004083
 30
0.0
 10
2.903725
 20
14.004069
 30
0.0
  0
LWPOLYLINE
  5
13d
100
AcDbEntity
  8
Layer_1
 62
7
100
AcDbPolyline
 90
14
 70
0
 10
11.255194
 20
13.943821
 30
0.0
 10
11.122892
 20
13.897267
 30
0.0
 10
11.060285
 20
13.865888
 30
0.0
 10
11.001956
 20
13.826910
 30
0.0
 10
11.100247
 20
13.816064
 30
0.0
 10
11.199043
 20
13.816418
 30
0.0
 10
11.297346
 20
13.827062
 30
0.0
 10
11.394161
 20
13.847083
 30
0.0
 10
11.331839
 20
13.865965
 30
0.0
 10
11.306793
 20
13.882803
 30
0.0
 10
11.299108
 20
13.912844
 30
0.0
 10
11.282221
 20
13.935770
 30
0.0
 10
11.255194
 20
13.943821
 30
0.0
 10
11.255194
 20
13.943821
 30
0.0
  0
LWPOLYLINE
  5
13e
100
AcDbEntity
  8
Layer_1
 62
7
100
AcDbPolyline
 90
12
 70
0
 10
2.481659
 20
13.939963
 30
0.0
 10
2.482167
 20
13.932907
 30
0.0
 10
2.482449
 20
13.929159
 30
0.0
 10
2.483793
 20
13.894514
 30
0.0
 10
2.480321
 20
13.857403
 30
0.0
 10
2.484899
 20
13.823924
 30
0.0
 10
2.510395
 20
13.800175
 30
0.0
 10
2.648537
 20
13.793621
 30
0.0
 10
2.715815
 20
13.805358
 30
0.0
 10
2.777459
 20
13.836443
 30
0.0
 10
2.481676
 20
13.939963
 30
0.0
 10
2.481659
 20
13.939963
 30
0.0
  0
LWPOLYLINE
  5
13f
100
AcDbEntity
  8
Layer_1
 62
7
100
AcDbPolyline
 90
17
 70
0
 10
0.041870
 20
13.939963
 30
0.0
 10
0.015100
 20
13.924850
 30
0.0
 10
0.006368
 20
13.897239
 30
0.0
 10
0.011804
 20
13.865786
 30
0.0
 10
0.027539
 20
13.839147
 30
0.0
 10
0.061126
 20
13.786267
 30
0.0
 10
0.083503
 20
13.765611
 30
0.0
 10
0.113970
 20
13.757675
 30
0.0
 10
0.148717
 20
13.772119
 30
0.0
 10
0.166951
 20
13.803596
 30
0.0
 10
0.166467
 20
13.840611
 30
0.0
 10
0.145059
 20
13.871668
 30
0.0
 10
0.119496
 20
13.889988
 30
0.0
 10
0.096936
 20
13.913032
 30
0.0
 10
0.072641
 20
13.932468
 30
0.0
 10
0.041870
 20
13.939963
 30
0.0
 10
0.041870
 20
13.939963
 30
0.0
  0
LWPOLYLINE
  5
140
100
AcDbEntity
  8
Layer_1
 62
7
100
AcDbPolyline
 90
17
 70
0
 10
12.142360
 20
13.929766
 30
0.0
 10
12.113497
 20
13.924960
 30
0.0
 10
12.088561
 20
13.910621
 30
0.0
 10
12.072653
 20
13.888079
 30
0.0
 10
12.070873
 20
13.858660
 30
0.0
 10
12.082335
 20
13.729364
 30
0.0
 10
12.097289
 20
13.600195
 30
0.0
 10
12.121222
 20
13.595546
 30
0.0
 10
12.143860
 20
13.599643
 30
0.0
 10
12.180848
 20
13.627571
 30
0.0
 10
12.199453
 20
13.670970
 30
0.0
 10
12.190874
 20
13.716832
 30
0.0
 10
12.165897
 20
13.928939
 30
0.0
 10
12.158955
 20
13.927782
 30
0.0
 10
12.158672
 20
13.927782
 30
0.0
 10
12.142360
 20
13.929814
 30
0.0
 10
12.142360
 20
13.929766
 30
0.0
  0
LWPOLYLINE
  5
141
100
AcDbEntity
  8
Layer_1
 62
7
100
AcDbPolyline
 90
12
 70
0
 10
1.689233
 20
13.921167
 30
0.0
 10
1.664684
 20
13.908022
 30
0.0
 10
1.655335
 20
13.881567
 30
0.0
 10
1.661144
 20
13.852587
 30
0.0
 10
1.682067
 20
13.831869
 30
0.0
 10
1.713009
 20
13.830728
 30
0.0
 10
1.735614
 20
13.850739
 30
0.0
 10
1.743186
 20
13.880510
 30
0.0
 10
1.729032
 20
13.908653
 30
0.0
 10
1.698382
 20
13.921056
 30
0.0
 10
1.689233
 20
13.921056
 30
0.0
 10
1.689233
 20
13.921167
 30
0.0
  0
LWPOLYLINE
  5
142
100
AcDbEntity
  8
Layer_1
 62
7
100
AcDbPolyline
 90
12
 70
0
 10
8.571713
 20
13.853919
 30
0.0
 10
8.552435
 20
13.847406
 30
0.0
 10
8.540297
 20
13.834539
 30
0.0
 10
8.535147
 20
13.798505
 30
0.0
 10
8.551666
 20
13.763347
 30
0.0
 10
8.585259
 20
13.746598
 30
0.0
 10
8.616430
 20
13.755718
 30
0.0
 10
8.631618
 20
13.783143
 30
0.0
 10
8.629221
 20
13.815791
 30
0.0
 10
8.607639
 20
13.840578
 30
0.0
 10
8.571713
 20
13.853919
 30
0.0
 10
8.571713
 20
13.853919
 30
0.0
  0
LWPOLYLINE
  5
143
100
AcDbEntity
  8
Layer_1
 62
7
100
AcDbPolyline
 90
15
 70
0
 10
5.278250
 20
13.839751
 30
0.0
 10
5.269100
 20
13.839356
 30
0.0
 10
5.228203
 20
13.811357
 30
0.0
 10
5.206323
 20
13.766114
 30
0.0
 10
5.204284
 20
13.715131
 30
0.0
 10
5.222909
 20
13.669913
 30
0.0
 10
5.255100
 20
13.668819
 30
0.0
 10
5.279575
 20
13.687533
 30
0.0
 10
5.295574
 20
13.717087
 30
0.0
 10
5.302338
 20
13.748517
 30
0.0
 10
5.313425
 20
13.774740
 30
0.0
 10
5.314252
 20
13.804220
 30
0.0
 10
5.303100
 20
13.828655
 30
0.0
 10
5.278250
 20
13.839743
 30
0.0
 10
5.278250
 20
13.839751
 30
0.0
  0
LWPOLYLINE
  5
144
100
AcDbEntity
  8
Layer_1
 62
7
100
AcDbPolyline
 90
16
 70
0
 10
13.180740
 20
13.770189
 30
0.0
 10
12.982126
 20
13.748969
 30
0.0
 10
12.883679
 20
13.734103
 30
0.0
 10
12.788508
 20
13.704979
 30
0.0
 10
12.821225
 20
13.700082
 30
0.0
 10
12.851658
 20
13.687246
 30
0.0
 10
12.874245
 20
13.665445
 30
0.0
 10
12.883419
 20
13.633653
 30
0.0
 10
12.915957
 20
13.614841
 30
0.0
 10
12.952161
 20
13.618107
 30
0.0
 10
13.025518
 20
13.640488
 30
0.0
 10
13.177562
 20
13.683913
 30
0.0
 10
13.250931
 20
13.713057
 30
0.0
 10
13.321033
 20
13.749629
 30
0.0
 10
13.180740
 20
13.770189
 30
0.0
 10
13.180740
 20
13.770189
 30
0.0
  0
LWPOLYLINE
  5
145
100
AcDbEntity
  8
Layer_1
 62
7
100
AcDbPolyline
 90
13
 70
0
 10
7.435599
 20
13.757952
 30
0.0
 10
7.417593
 20
13.754828
 30
0.0
 10
7.405047
 20
13.744636
 30
0.0
 10
7.395865
 20
13.712598
 30
0.0
 10
7.407115
 20
13.680940
 30
0.0
 10
7.420108
 20
13.671223
 30
0.0
 10
7.437857
 20
13.668764
 30
0.0
 10
7.468956
 20
13.684067
 30
0.0
 10
7.478839
 20
13.715015
 30
0.0
 10
7.467666
 20
13.745135
 30
0.0
 10
7.454234
 20
13.754736
 30
0.0
 10
7.435599
 20
13.757952
 30
0.0
 10
7.435599
 20
13.757952
 30
0.0
  0
LWPOLYLINE
  5
146
100
AcDbEntity
  8
Layer_1
 62
7
100
AcDbPolyline
 90
13
 70
0
 10
6.400636
 20
13.755525
 30
0.0
 10
6.383591
 20
13.750660
 30
0.0
 10
6.372437
 20
13.739593
 30
0.0
 10
6.366503
 20
13.707706
 30
0.0
 10
6.380241
 20
13.677570
 30
0.0
 10
6.393675
 20
13.668692
 30
0.0
 10
6.411053
 20
13.666890
 30
0.0
 10
6.439135
 20
13.680768
 30
0.0
 10
6.449740
 20
13.709432
 30
0.0
 10
6.441994
 20
13.738763
 30
0.0
 10
6.415021
 20
13.754641
 30
0.0
 10
6.400636
 20
13.755516
 30
0.0
 10
6.400636
 20
13.755525
 30
0.0
  0
LWPOLYLINE
  5
147
100
AcDbEntity
  8
Layer_1
 62
7
100
AcDbPolyline
 90
5
 70
0
 10
14.000398
 20
13.715175
 30
0.0
 10
13.981659
 20
13.707790
 30
0.0
 10
14.000398
 20
13.706294
 30
0.0
 10
14.000398
 20
13.715167
 30
0.0
 10
14.000398
 20
13.715175
 30
0.0
  0
LWPOLYLINE
  5
148
100
AcDbEntity
  8
Layer_1
 62
7
100
AcDbPolyline
 90
13
 70
0
 10
8.622146
 20
13.686623
 30
0.0
 10
8.605734
 20
13.680841
 30
0.0
 10
8.595540
 20
13.669361
 30
0.0
 10
8.591948
 20
13.637999
 30
0.0
 10
8.607660
 20
13.609920
 30
0.0
 10
8.621595
 20
13.602543
 30
0.0
 10
8.638966
 20
13.602507
 30
0.0
 10
8.666086
 20
13.618539
 30
0.0
 10
8.672731
 20
13.647713
 30
0.0
 10
8.660489
 20
13.675299
 30
0.0
 10
8.630951
 20
13.686566
 30
0.0
 10
8.622146
 20
13.686566
 30
0.0
 10
8.622146
 20
13.686623
 30
0.0
  0
LWPOLYLINE
  5
149
100
AcDbEntity
  8
Layer_1
 62
7
100
AcDbPolyline
 90
14
 70
0
 10
13.358907
 20
13.659118
 30
0.0
 10
13.348154
 20
13.658356
 30
0.0
 10
13.331691
 20
13.652329
 30
0.0
 10
13.320669
 20
13.640216
 30
0.0
 10
13.314281
 20
13.606987
 30
0.0
 10
13.327652
 20
13.577187
 30
0.0
 10
13.341329
 20
13.569360
 30
0.0
 10
13.359443
 20
13.569334
 30
0.0
 10
13.388375
 20
13.586609
 30
0.0
 10
13.397727
 20
13.616675
 30
0.0
 10
13.387796
 20
13.645518
 30
0.0
 10
13.358879
 20
13.659126
 30
0.0
 10
13.358879
 20
13.659126
 30
0.0
 10
13.358907
 20
13.659118
 30
0.0
  0
LWPOLYLINE
  5
14a
100
AcDbEntity
  8
Layer_1
 62
7
100
AcDbPolyline
 90
14
 70
0
 10
0.925029
 20
13.451529
 30
0.0
 10
0.878160
 20
13.423358
 30
0.0
 10
0.838287
 20
13.384883
 30
0.0
 10
0.805570
 20
13.339423
 30
0.0
 10
0.780170
 20
13.290298
 30
0.0
 10
0.794536
 20
13.269308
 30
0.0
 10
0.817839
 20
13.267490
 30
0.0
 10
0.864726
 20
13.290834
 30
0.0
 10
0.928803
 20
13.333414
 30
0.0
 10
0.985001
 20
13.386031
 30
0.0
 10
0.962524
 20
13.427931
 30
0.0
 10
0.947413
 20
13.444894
 30
0.0
 10
0.925029
 20
13.451515
 30
0.0
 10
0.925029
 20
13.451529
 30
0.0
  0
LWPOLYLINE
  5
14b
100
AcDbEntity
  8
Layer_1
 62
7
100
AcDbPolyline
 90
14
 70
0
 10
12.251523
 20
13.370003
 30
0.0
 10
12.240771
 20
13.369467
 30
0.0
 10
12.222245
 20
13.364360
 30
0.0
 10
12.209893
 20
13.352126
 30
0.0
 10
12.202724
 20
13.316817
 30
0.0
 10
12.217288
 20
13.284614
 30
0.0
 10
12.232102
 20
13.276262
 30
0.0
 10
12.251608
 20
13.276588
 30
0.0
 10
12.282203
 20
13.293249
 30
0.0
 10
12.291497
 20
13.324376
 30
0.0
 10
12.280846
 20
13.354967
 30
0.0
 10
12.251608
 20
13.370020
 30
0.0
 10
12.251608
 20
13.370020
 30
0.0
 10
12.251523
 20
13.370003
 30
0.0
  0
LWPOLYLINE
  5
14c
100
AcDbEntity
  8
Layer_1
 62
7
100
AcDbPolyline
 90
17
 70
0
 10
0.300942
 20
12.952569
 30
0.0
 10
0.225779
 20
12.917535
 30
0.0
 10
0.153891
 20
12.875721
 30
0.0
 10
0.014532
 20
12.785662
 30
0.0
 10
0.005841
 20
12.765748
 30
0.0
 10
0.006600
 20
12.745785
 30
0.0
 10
0.029016
 20
12.711783
 30
0.0
 10
0.066871
 20
12.695800
 30
0.0
 10
0.086931
 20
12.698360
 30
0.0
 10
0.105260
 20
12.709979
 30
0.0
 10
0.280932
 20
12.846018
 30
0.0
 10
0.323077
 20
12.886692
 30
0.0
 10
0.336054
 20
12.911542
 30
0.0
 10
0.333683
 20
12.938184
 30
0.0
 10
0.319104
 20
12.949497
 30
0.0
 10
0.300942
 20
12.952569
 30
0.0
 10
0.300942
 20
12.952569
 30
0.0
  0
LWPOLYLINE
  5
14d
100
AcDbEntity
  8
Layer_1
 62
7
100
AcDbPolyline
 90
13
 70
0
 10
6.200820
 20
12.885487
 30
0.0
 10
6.191558
 20
12.884895
 30
0.0
 10
6.174130
 20
12.878018
 30
0.0
 10
6.163725
 20
12.865013
 30
0.0
 10
6.161533
 20
12.830645
 30
0.0
 10
6.180086
 20
12.801849
 30
0.0
 10
6.195612
 20
12.795809
 30
0.0
 10
6.214488
 20
12.798684
 30
0.0
 10
6.238256
 20
12.818729
 30
0.0
 10
6.241791
 20
12.847425
 30
0.0
 10
6.228257
 20
12.873455
 30
0.0
 10
6.200820
 20
12.885498
 30
0.0
 10
6.200820
 20
12.885487
 30
0.0
  0
LWPOLYLINE
  5
14e
100
AcDbEntity
  8
Layer_1
 62
7
100
AcDbPolyline
 90
19
 70
0
 10
6.160084
 20
12.794812
 30
0.0
 10
6.152202
 20
12.794530
 30
0.0
 10
6.127940
 20
12.783798
 30
0.0
 10
6.117091
 20
12.759692
 30
0.0
 10
6.091365
 20
12.772573
 30
0.0
 10
6.064222
 20
12.766924
 30
0.0
 10
6.045820
 20
12.747297
 30
0.0
 10
6.046315
 20
12.718242
 30
0.0
 10
6.060666
 20
12.692453
 30
0.0
 10
6.086982
 20
12.683918
 30
0.0
 10
6.113855
 20
12.692129
 30
0.0
 10
6.129878
 20
12.716577
 30
0.0
 10
6.154705
 20
12.701579
 30
0.0
 10
6.182117
 20
12.708923
 30
0.0
 10
6.200732
 20
12.731297
 30
0.0
 10
6.199166
 20
12.761388
 30
0.0
 10
6.184382
 20
12.783925
 30
0.0
 10
6.160084
 20
12.794682
 30
0.0
 10
6.160084
 20
12.794812
 30
0.0
  0
LWPOLYLINE
  5
14f
100
AcDbEntity
  8
Layer_1
 62
7
100
AcDbPolyline
 90
15
 70
0
 10
6.333992
 20
12.756613
 30
0.0
 10
6.331170
 20
12.750162
 30
0.0
 10
6.329844
 20
12.747077
 30
0.0
 10
6.317299
 20
12.715205
 30
0.0
 10
6.296372
 20
12.685732
 30
0.0
 10
6.281034
 20
12.655512
 30
0.0
 10
6.285253
 20
12.621398
 30
0.0
 10
6.453093
 20
12.494196
 30
0.0
 10
6.630927
 20
12.381842
 30
0.0
 10
6.627983
 20
12.420117
 30
0.0
 10
6.616899
 20
12.454908
 30
0.0
 10
6.576740
 20
12.516228
 30
0.0
 10
6.469467
 20
12.621124
 30
0.0
 10
6.333978
 20
12.756613
 30
0.0
 10
6.333992
 20
12.756613
 30
0.0
  0
LWPOLYLINE
  5
150
100
AcDbEntity
  8
Layer_1
 62
7
100
AcDbPolyline
 90
14
 70
0
 10
11.340143
 20
12.733683
 30
0.0
 10
11.206899
 20
12.719954
 30
0.0
 10
11.142103
 20
12.704414
 30
0.0
 10
11.081825
 20
12.675088
 30
0.0
 10
11.253279
 20
12.627015
 30
0.0
 10
11.340758
 20
12.614376
 30
0.0
 10
11.429495
 20
12.620517
 30
0.0
 10
11.408605
 20
12.628050
 30
0.0
 10
11.395219
 20
12.642571
 30
0.0
 10
11.391000
 20
12.683631
 30
0.0
 10
11.389022
 20
12.705430
 30
0.0
 10
11.378568
 20
12.721205
 30
0.0
 10
11.340143
 20
12.733683
 30
0.0
 10
11.340143
 20
12.733683
 30
0.0
  0
LWPOLYLINE
  5
151
100
AcDbEntity
  8
Layer_1
 62
7
100
AcDbPolyline
 90
20
 70
0
 10
7.502514
 20
12.714664
 30
0.0
 10
7.457834
 20
12.688073
 30
0.0
 10
7.420182
 20
12.651227
 30
0.0
 10
7.345852
 20
12.575537
 30
0.0
 10
7.300100
 20
12.529574
 30
0.0
 10
7.281785
 20
12.503588
 30
0.0
 10
7.274986
 20
12.474004
 30
0.0
 10
7.297276
 20
12.449564
 30
0.0
 10
7.328862
 20
12.446869
 30
0.0
 10
7.361084
 20
12.459892
 30
0.0
 10
7.385279
 20
12.482604
 30
0.0
 10
7.522742
 20
12.579222
 30
0.0
 10
7.587725
 20
12.632067
 30
0.0
 10
7.645177
 20
12.693333
 30
0.0
 10
7.583212
 20
12.673647
 30
0.0
 10
7.553805
 20
12.675031
 30
0.0
 10
7.532655
 20
12.698018
 30
0.0
 10
7.519225
 20
12.709527
 30
0.0
 10
7.502514
 20
12.714664
 30
0.0
 10
7.502514
 20
12.714664
 30
0.0
  0
LWPOLYLINE
  5
152
100
AcDbEntity
  8
Layer_1
 62
7
100
AcDbPolyline
 90
12
 70
0
 10
2.382608
 20
12.712745
 30
0.0
 10
2.385035
 20
12.706132
 30
0.0
 10
2.386361
 20
12.702548
 30
0.0
 10
2.397235
 20
12.669672
 30
0.0
 10
2.403895
 20
12.632996
 30
0.0
 10
2.417250
 20
12.601992
 30
0.0
 10
2.448207
 20
12.586131
 30
0.0
 10
2.579725
 20
12.616259
 30
0.0
 10
2.639280
 20
12.645797
 30
0.0
 10
2.686993
 20
12.693288
 30
0.0
 10
2.382613
 20
12.712745
 30
0.0
 10
2.382608
 20
12.712745
 30
0.0
  0
LWPOLYLINE
  5
153
100
AcDbEntity
  8
Layer_1
 62
7
100
AcDbPolyline
 90
16
 70
0
 10
13.492906
 20
12.633756
 30
0.0
 10
13.287589
 20
12.579171
 30
0.0
 10
13.186352
 20
12.547375
 30
0.0
 10
13.087691
 20
12.508133
 30
0.0
 10
13.146563
 20
12.501132
 30
0.0
 10
13.171948
 20
12.491570
 30
0.0
 10
13.182236
 20
12.466517
 30
0.0
 10
13.201165
 20
12.439537
 30
0.0
 10
13.231600
 20
12.432414
 30
0.0
 10
13.265385
 20
12.439544
 30
0.0
 10
13.294363
 20
12.455327
 30
0.0
 10
13.464183
 20
12.531371
 30
0.0
 10
13.546101
 20
12.575260
 30
0.0
 10
13.624139
 20
12.625874
 30
0.0
 10
13.492906
 20
12.633756
 30
0.0
 10
13.492906
 20
12.633756
 30
0.0
  0
LWPOLYLINE
  5
154
100
AcDbEntity
  8
Layer_1
 62
7
100
AcDbPolyline
 90
13
 70
0
 10
1.643482
 20
12.504606
 30
0.0
 10
1.626062
 20
12.498111
 30
0.0
 10
1.615476
 20
12.485360
 30
0.0
 10
1.612583
 20
12.450933
 30
0.0
 10
1.630348
 20
12.421018
 30
0.0
 10
1.645585
 20
12.413908
 30
0.0
 10
1.664318
 20
12.415311
 30
0.0
 10
1.691523
 20
12.433505
 30
0.0
 10
1.697555
 20
12.465320
 30
0.0
 10
1.684172
 20
12.494398
 30
0.0
 10
1.653128
 20
12.504386
 30
0.0
 10
1.643482
 20
12.504668
 30
0.0
 10
1.643482
 20
12.504606
 30
0.0
  0
LWPOLYLINE
  5
155
100
AcDbEntity
  8
Layer_1
 62
7
100
AcDbPolyline
 90
20
 70
0
 10
2.859078
 20
12.324305
 30
0.0
 10
2.831905
 20
12.304615
 30
0.0
 10
2.822044
 20
12.273381
 30
0.0
 10
2.824237
 20
12.237858
 30
0.0
 10
2.833226
 20
12.205298
 30
0.0
 10
2.876064
 20
12.004998
 30
0.0
 10
2.915403
 20
11.803082
 30
0.0
 10
2.966185
 20
11.604677
 30
0.0
 10
3.000536
 20
11.508393
 30
0.0
 10
3.043349
 20
11.414909
 30
0.0
 10
3.106865
 20
11.313688
 30
0.0
 10
3.146152
 20
11.268769
 30
0.0
 10
3.191349
 20
11.229534
 30
0.0
 10
3.129098
 20
11.486786
 30
0.0
 10
3.058416
 20
11.741880
 30
0.0
 10
2.911938
 20
12.250496
 30
0.0
 10
2.894165
 20
12.295921
 30
0.0
 10
2.880123
 20
12.315274
 30
0.0
 10
2.859078
 20
12.324305
 30
0.0
 10
2.859078
 20
12.324305
 30
0.0
  0
LWPOLYLINE
  5
156
100
AcDbEntity
  8
Layer_1
 62
7
100
AcDbPolyline
 90
14
 70
0
 10
4.185356
 20
11.940438
 30
0.0
 10
4.184029
 20
11.920538
 30
0.0
 10
4.181747
 20
11.824918
 30
0.0
 10
4.197960
 20
11.730105
 30
0.0
 10
4.233983
 20
11.641681
 30
0.0
 10
4.291133
 20
11.565226
 30
0.0
 10
4.316836
 20
11.557067
 30
0.0
 10
4.341843
 20
11.564798
 30
0.0
 10
4.357727
 20
11.584304
 30
0.0
 10
4.356063
 20
11.611471
 30
0.0
 10
4.317784
 20
11.705303
 30
0.0
 10
4.275147
 20
11.797453
 30
0.0
 10
4.185353
 20
11.940438
 30
0.0
 10
4.185356
 20
11.940438
 30
0.0
  0
LWPOLYLINE
  5
157
100
AcDbEntity
  8
Layer_1
 62
7
100
AcDbPolyline
 90
15
 70
0
 10
9.650168
 20
11.857315
 30
0.0
 10
9.640121
 20
11.856863
 30
0.0
 10
9.597792
 20
11.817415
 30
0.0
 10
9.570751
 20
11.766324
 30
0.0
 10
9.548896
 20
11.711182
 30
0.0
 10
9.522124
 20
11.659582
 30
0.0
 10
9.485788
 20
11.562497
 30
0.0
 10
9.460205
 20
11.461972
 30
0.0
 10
9.545154
 20
11.536284
 30
0.0
 10
9.615734
 20
11.625733
 30
0.0
 10
9.662242
 20
11.727794
 30
0.0
 10
9.673437
 20
11.782765
 30
0.0
 10
9.674976
 20
11.839941
 30
0.0
 10
9.650168
 20
11.857304
 30
0.0
 10
9.650168
 20
11.857315
 30
0.0
  0
LWPOLYLINE
  5
158
100
AcDbEntity
  8
Layer_1
 62
7
100
AcDbPolyline
 90
17
 70
0
 10
10.949040
 20
11.568534
 30
0.0
 10
10.916951
 20
11.568534
 30
0.0
 10
10.897735
 20
11.556212
 30
0.0
 10
10.897397
 20
11.536017
 30
0.0
 10
10.910145
 20
11.516301
 30
0.0
 10
10.930187
 20
11.505418
 30
0.0
 10
11.057194
 20
11.433547
 30
0.0
 10
11.124521
 20
11.406093
 30
0.0
 10
11.195589
 20
11.389608
 30
0.0
 10
11.150352
 20
11.432808
 30
0.0
 10
11.139872
 20
11.459829
 30
0.0
 10
11.149671
 20
11.488992
 30
0.0
 10
11.139781
 20
11.521824
 30
0.0
 10
11.112605
 20
11.539948
 30
0.0
 10
11.044233
 20
11.554863
 30
0.0
 10
10.949040
 20
11.568587
 30
0.0
 10
10.949040
 20
11.568534
 30
0.0
  0
LWPOLYLINE
  5
159
100
AcDbEntity
  8
Layer_1
 62
7
100
AcDbPolyline
 90
14
 70
0
 10
13.994951
 20
11.562249
 30
0.0
 10
13.824560
 20
11.496497
 30
0.0
 10
13.661195
 20
11.415296
 30
0.0
 10
13.656805
 20
11.391485
 30
0.0
 10
13.669207
 20
11.371520
 30
0.0
 10
13.700481
 20
11.333053
 30
0.0
 10
13.733452
 20
11.318996
 30
0.0
 10
13.767314
 20
11.326774
 30
0.0
 10
13.826380
 20
11.369655
 30
0.0
 10
13.916723
 20
11.424524
 30
0.0
 10
14.000398
 20
11.487999
 30
0.0
 10
14.000398
 20
11.562029
 30
0.0
 10
13.994951
 20
11.562311
 30
0.0
 10
13.994951
 20
11.562249
 30
0.0
  0
LWPOLYLINE
  5
15a
100
AcDbEntity
  8
Layer_1
 62
7
100
AcDbPolyline
 90
17
 70
0
 10
2.834053
 20
11.547311
 30
0.0
 10
2.826611
 20
11.547029
 30
0.0
 10
2.733932
 20
11.530660
 30
0.0
 10
2.688930
 20
11.518903
 30
0.0
 10
2.649615
 20
11.496426
 30
0.0
 10
2.651277
 20
11.457804
 30
0.0
 10
2.670656
 20
11.422587
 30
0.0
 10
2.702004
 20
11.402723
 30
0.0
 10
2.720370
 20
11.402283
 30
0.0
 10
2.739574
 20
11.410162
 30
0.0
 10
2.776431
 20
11.432464
 30
0.0
 10
2.817620
 20
11.451562
 30
0.0
 10
2.852611
 20
11.476240
 30
0.0
 10
2.870872
 20
11.515279
 30
0.0
 10
2.858067
 20
11.537474
 30
0.0
 10
2.834053
 20
11.547195
 30
0.0
 10
2.834053
 20
11.547311
 30
0.0
  0
LWPOLYLINE
  5
15b
100
AcDbEntity
  8
Layer_1
 62
7
100
AcDbPolyline
 90
12
 70
0
 10
0.181218
 20
11.416343
 30
0.0
 10
0.173722
 20
11.401348
 30
0.0
 10
0.000421
 20
11.053368
 30
0.0
 10
0.000421
 20
10.915178
 30
0.0
 10
0.036040
 20
10.932407
 30
0.0
 10
0.057469
 20
10.965064
 30
0.0
 10
0.283357
 20
11.314257
 30
0.0
 10
0.244172
 20
11.320701
 30
0.0
 10
0.214705
 20
11.344870
 30
0.0
 10
0.194029
 20
11.379254
 30
0.0
 10
0.181218
 20
11.416343
 30
0.0
 10
0.181218
 20
11.416343
 30
0.0
  0
LWPOLYLINE
  5
15c
100
AcDbEntity
  8
Layer_1
 62
7
100
AcDbPolyline
 90
19
 70
0
 10
3.348115
 20
10.957952
 30
0.0
 10
3.321485
 20
10.937929
 30
0.0
 10
3.315961
 20
10.907105
 30
0.0
 10
3.325136
 20
10.873536
 30
0.0
 10
3.342603
 20
10.845282
 30
0.0
 10
3.408535
 20
10.714886
 30
0.0
 10
3.482001
 20
10.588188
 30
0.0
 10
3.567706
 20
10.470230
 30
0.0
 10
3.670357
 20
10.366054
 30
0.0
 10
3.917245
 20
10.108196
 30
0.0
 10
3.948457
 20
10.125605
 30
0.0
 10
3.959524
 20
10.157850
 30
0.0
 10
3.952717
 20
10.193532
 30
0.0
 10
3.930309
 20
10.221252
 30
0.0
 10
3.650741
 20
10.592242
 30
0.0
 10
3.509978
 20
10.776855
 30
0.0
 10
3.362503
 20
10.955638
 30
0.0
 10
3.348115
 20
10.957952
 30
0.0
 10
3.348115
 20
10.957952
 30
0.0
  0
LWPOLYLINE
  5
15d
100
AcDbEntity
  8
Layer_1
 62
7
100
AcDbPolyline
 90
8
 70
0
 10
0.000421
 20
10.859283
 30
0.0
 10
0.000421
 20
10.771145
 30
0.0
 10
0.020184
 20
10.783140
 30
0.0
 10
0.032600
 20
10.803376
 30
0.0
 10
0.033818
 20
10.826513
 30
0.0
 10
0.019987
 20
10.847212
 30
0.0
 10
0.000421
 20
10.859283
 30
0.0
 10
0.000421
 20
10.859283
 30
0.0
  0
LWPOLYLINE
  5
15e
100
AcDbEntity
  8
Layer_1
 62
7
100
AcDbPolyline
 90
14
 70
0
 10
1.217998
 20
10.742149
 30
0.0
 10
1.208738
 20
10.727928
 30
0.0
 10
1.068155
 20
10.515313
 30
0.0
 10
0.934178
 20
10.300460
 30
0.0
 10
0.953563
 20
10.273665
 30
0.0
 10
0.984903
 20
10.267617
 30
0.0
 10
1.016911
 20
10.278954
 30
0.0
 10
1.038301
 20
10.304318
 30
0.0
 10
1.307572
 20
10.628434
 30
0.0
 10
1.268866
 20
10.639760
 30
0.0
 10
1.242294
 20
10.667331
 30
0.0
 10
1.225967
 20
10.703882
 30
0.0
 10
1.217998
 20
10.742149
 30
0.0
 10
1.217998
 20
10.742149
 30
0.0
  0
LWPOLYLINE
  5
15f
100
AcDbEntity
  8
Layer_1
 62
7
100
AcDbPolyline
 90
13
 70
0
 10
2.149221
 20
10.718668
 30
0.0
 10
2.139905
 20
10.718273
 30
0.0
 10
2.121691
 20
10.713413
 30
0.0
 10
2.110554
 20
10.701735
 30
0.0
 10
2.107043
 20
10.668245
 30
0.0
 10
2.124429
 20
10.638436
 30
0.0
 10
2.139413
 20
10.631361
 30
0.0
 10
2.157767
 20
10.632943
 30
0.0
 10
2.183416
 20
10.651218
 30
0.0
 10
2.188650
 20
10.679436
 30
0.0
 10
2.176306
 20
10.705837
 30
0.0
 10
2.149221
 20
10.718660
 30
0.0
 10
2.149221
 20
10.718668
 30
0.0
  0
LWPOLYLINE
  5
160
100
AcDbEntity
  8
Layer_1
 62
7
100
AcDbPolyline
 90
17
 70
0
 10
9.092497
 20
10.670987
 30
0.0
 10
9.064689
 20
10.656414
 30
0.0
 10
9.055346
 20
10.628168
 30
0.0
 10
9.061227
 20
10.596127
 30
0.0
 10
9.079092
 20
10.570172
 30
0.0
 10
9.091110
 20
10.548017
 30
0.0
 10
9.110655
 20
10.533828
 30
0.0
 10
9.133920
 20
10.530494
 30
0.0
 10
9.157098
 20
10.540902
 30
0.0
 10
9.180729
 20
10.559312
 30
0.0
 10
9.190107
 20
10.586041
 30
0.0
 10
9.184208
 20
10.613461
 30
0.0
 10
9.162009
 20
10.633945
 30
0.0
 10
9.129602
 20
10.658552
 30
0.0
 10
9.112233
 20
10.668249
 30
0.0
 10
9.092497
 20
10.670987
 30
0.0
 10
9.092497
 20
10.670987
 30
0.0
  0
LWPOLYLINE
  5
161
100
AcDbEntity
  8
Layer_1
 62
7
100
AcDbPolyline
 90
14
 70
0
 10
10.282572
 20
10.662444
 30
0.0
 10
10.263506
 20
10.658835
 30
0.0
 10
10.250155
 20
10.647693
 30
0.0
 10
10.240277
 20
10.613255
 30
0.0
 10
10.252302
 20
10.580013
 30
0.0
 10
10.266329
 20
10.570366
 30
0.0
 10
10.285592
 20
10.568848
 30
0.0
 10
10.303399
 20
10.573983
 30
0.0
 10
10.316044
 20
10.585439
 30
0.0
 10
10.325780
 20
10.618425
 30
0.0
 10
10.314667
 20
10.650022
 30
0.0
 10
10.301250
 20
10.659741
 30
0.0
 10
10.282572
 20
10.662444
 30
0.0
 10
10.282572
 20
10.662444
 30
0.0
  0
LWPOLYLINE
  5
162
100
AcDbEntity
  8
Layer_1
 62
7
100
AcDbPolyline
 90
16
 70
0
 10
3.358258
 20
10.497742
 30
0.0
 10
3.248311
 20
10.446511
 30
0.0
 10
3.147198
 20
10.380276
 30
0.0
 10
3.176710
 20
10.384744
 30
0.0
 10
3.204946
 20
10.379702
 30
0.0
 10
3.229457
 20
10.365260
 30
0.0
 10
3.247794
 20
10.341526
 30
0.0
 10
3.276394
 20
10.330871
 30
0.0
 10
3.303649
 20
10.341036
 30
0.0
 10
3.349492
 20
10.382923
 30
0.0
 10
3.375006
 20
10.403901
 30
0.0
 10
3.394672
 20
10.432197
 30
0.0
 10
3.400679
 20
10.463181
 30
0.0
 10
3.385211
 20
10.492227
 30
0.0
 10
3.358258
 20
10.497742
 30
0.0
 10
3.358258
 20
10.497742
 30
0.0
  0
LWPOLYLINE
  5
163
100
AcDbEntity
  8
Layer_1
 62
7
100
AcDbPolyline
 90
13
 70
0
 10
2.402394
 20
10.236190
 30
0.0
 10
2.383395
 20
10.229234
 30
0.0
 10
2.371836
 20
10.215930
 30
0.0
 10
2.368450
 20
10.180022
 30
0.0
 10
2.387053
 20
10.147958
 30
0.0
 10
2.402980
 20
10.139459
 30
0.0
 10
2.422460
 20
10.139230
 30
0.0
 10
2.449026
 20
10.158583
 30
0.0
 10
2.457823
 20
10.189820
 30
0.0
 10
2.448167
 20
10.219933
 30
0.0
 10
2.419373
 20
10.235913
 30
0.0
 10
2.402394
 20
10.236195
 30
0.0
 10
2.402394
 20
10.236190
 30
0.0
  0
LWPOLYLINE
  5
164
100
AcDbEntity
  8
Layer_1
 62
7
100
AcDbPolyline
 90
16
 70
0
 10
6.930675
 20
10.084165
 30
0.0
 10
6.820721
 20
10.083827
 30
0.0
 10
6.752910
 20
10.072515
 30
0.0
 10
6.692677
 20
10.039893
 30
0.0
 10
6.800368
 20
9.999520
 30
0.0
 10
6.915096
 20
9.980377
 30
0.0
 10
6.972550
 20
9.981397
 30
0.0
 10
7.028703
 20
9.990880
 30
0.0
 10
7.082536
 20
10.009877
 30
0.0
 10
7.133028
 20
10.039441
 30
0.0
 10
7.123075
 20
10.066585
 30
0.0
 10
7.098996
 20
10.077718
 30
0.0
 10
7.040601
 20
10.080674
 30
0.0
 10
6.930675
 20
10.084092
 30
0.0
 10
6.930675
 20
10.084092
 30
0.0
 10
6.930675
 20
10.084165
 30
0.0
  0
LWPOLYLINE
  5
165
100
AcDbEntity
  8
Layer_1
 62
7
100
AcDbPolyline
 90
14
 70
0
 10
8.091427
 20
10.058037
 30
0.0
 10
8.082565
 20
10.057755
 30
0.0
 10
8.063671
 20
10.049619
 30
0.0
 10
8.053307
 20
10.035346
 30
0.0
 10
8.054131
 20
9.998533
 30
0.0
 10
8.076969
 20
9.967615
 30
0.0
 10
8.094121
 20
9.960709
 30
0.0
 10
8.113751
 20
9.962889
 30
0.0
 10
8.137885
 20
9.985043
 30
0.0
 10
8.138064
 20
10.015965
 30
0.0
 10
8.120505
 20
10.044120
 30
0.0
 10
8.091427
 20
10.057975
 30
0.0
 10
8.091427
 20
10.057975
 30
0.0
 10
8.091427
 20
10.058037
 30
0.0
  0
LWPOLYLINE
  5
166
100
AcDbEntity
  8
Layer_1
 62
7
100
AcDbPolyline
 90
16
 70
0
 10
4.297474
 20
9.841465
 30
0.0
 10
4.293613
 20
9.836778
 30
0.0
 10
4.265788
 20
9.810000
 30
0.0
 10
4.254732
 20
9.771955
 30
0.0
 10
4.263491
 20
9.735619
 30
0.0
 10
4.295109
 20
9.713969
 30
0.0
 10
4.757056
 20
9.429673
 30
0.0
 10
5.225065
 20
9.156523
 30
0.0
 10
5.244865
 20
9.161191
 30
0.0
 10
5.258642
 20
9.172632
 30
0.0
 10
5.269213
 20
9.207698
 30
0.0
 10
5.258950
 20
9.245455
 30
0.0
 10
5.230024
 20
9.269632
 30
0.0
 10
4.762773
 20
9.553930
 30
0.0
 10
4.297480
 20
9.841465
 30
0.0
 10
4.297474
 20
9.841465
 30
0.0
  0
LWPOLYLINE
  5
167
100
AcDbEntity
  8
Layer_1
 62
7
100
AcDbPolyline
 90
16
 70
0
 10
6.941258
 20
9.831596
 30
0.0
 10
6.924777
 20
9.831314
 30
0.0
 10
6.893236
 20
9.801171
 30
0.0
 10
6.879632
 20
9.757082
 30
0.0
 10
6.886744
 20
9.712860
 30
0.0
 10
6.898938
 20
9.695017
 30
0.0
 10
6.917354
 20
9.682320
 30
0.0
 10
6.947679
 20
9.680409
 30
0.0
 10
6.973919
 20
9.694317
 30
0.0
 10
6.988696
 20
9.718874
 30
0.0
 10
6.984636
 20
9.748908
 30
0.0
 10
6.974843
 20
9.799602
 30
0.0
 10
6.962133
 20
9.820549
 30
0.0
 10
6.941258
 20
9.831537
 30
0.0
 10
6.941258
 20
9.831537
 30
0.0
 10
6.941258
 20
9.831596
 30
0.0
  0
LWPOLYLINE
  5
168
100
AcDbEntity
  8
Layer_1
 62
7
100
AcDbPolyline
 90
16
 70
0
 10
4.230006
 20
9.710274
 30
0.0
 10
4.217712
 20
9.698754
 30
0.0
 10
4.088405
 20
9.578832
 30
0.0
 10
4.025982
 20
9.516833
 30
0.0
 10
3.971538
 20
9.447621
 30
0.0
 10
4.027559
 20
9.469729
 30
0.0
 10
4.055981
 20
9.468673
 30
0.0
 10
4.079909
 20
9.450596
 30
0.0
 10
4.112151
 20
9.444519
 30
0.0
 10
4.139386
 20
9.459940
 30
0.0
 10
4.160363
 20
9.487323
 30
0.0
 10
4.173835
 20
9.517130
 30
0.0
 10
4.201397
 20
9.560429
 30
0.0
 10
4.219139
 20
9.608383
 30
0.0
 10
4.230006
 20
9.710274
 30
0.0
 10
4.230006
 20
9.710274
 30
0.0
  0
LWPOLYLINE
  5
169
100
AcDbEntity
  8
Layer_1
 62
7
100
AcDbPolyline
 90
14
 70
0
 10
0.731001
 20
9.635254
 30
0.0
 10
0.721795
 20
9.621750
 30
0.0
 10
0.590430
 20
9.431699
 30
0.0
 10
0.464653
 20
9.239483
 30
0.0
 10
0.483429
 20
9.210821
 30
0.0
 10
0.515769
 20
9.204268
 30
0.0
 10
0.549134
 20
9.216162
 30
0.0
 10
0.570984
 20
9.242844
 30
0.0
 10
0.820959
 20
9.520931
 30
0.0
 10
0.782472
 20
9.531859
 30
0.0
 10
0.755940
 20
9.559615
 30
0.0
 10
0.739429
 20
9.596610
 30
0.0
 10
0.731001
 20
9.635254
 30
0.0
 10
0.731001
 20
9.635254
 30
0.0
  0
LWPOLYLINE
  5
16a
100
AcDbEntity
  8
Layer_1
 62
7
100
AcDbPolyline
 90
14
 70
0
 10
8.830680
 20
9.379657
 30
0.0
 10
8.687152
 20
9.301375
 30
0.0
 10
8.621126
 20
9.253525
 30
0.0
 10
8.562569
 20
9.198140
 30
0.0
 10
8.571670
 20
9.174654
 30
0.0
 10
8.594252
 20
9.167929
 30
0.0
 10
8.646445
 20
9.177857
 30
0.0
 10
8.815852
 20
9.249540
 30
0.0
 10
8.981979
 20
9.328558
 30
0.0
 10
8.986798
 20
9.346702
 30
0.0
 10
8.975276
 20
9.359947
 30
0.0
 10
8.936823
 20
9.367583
 30
0.0
 10
8.830680
 20
9.379657
 30
0.0
 10
8.830680
 20
9.379657
 30
0.0
  0
LWPOLYLINE
  5
16b
100
AcDbEntity
  8
Layer_1
 62
7
100
AcDbPolyline
 90
13
 70
0
 10
0.512995
 20
9.120585
 30
0.0
 10
0.503679
 20
9.120190
 30
0.0
 10
0.485579
 20
9.114589
 30
0.0
 10
0.474569
 20
9.102341
 30
0.0
 10
0.471345
 20
9.068129
 30
0.0
 10
0.489056
 20
9.037995
 30
0.0
 10
0.504215
 20
9.030846
 30
0.0
 10
0.522752
 20
9.032382
 30
0.0
 10
0.548135
 20
9.051273
 30
0.0
 10
0.552986
 20
9.080281
 30
0.0
 10
0.540281
 20
9.107388
 30
0.0
 10
0.512995
 20
9.120577
 30
0.0
 10
0.512995
 20
9.120585
 30
0.0
  0
LWPOLYLINE
  5
16c
100
AcDbEntity
  8
Layer_1
 62
7
100
AcDbPolyline
 90
16
 70
0
 10
5.204003
 20
9.105867
 30
0.0
 10
5.196120
 20
9.092860
 30
0.0
 10
5.106586
 20
8.947147
 30
0.0
 10
5.064648
 20
8.872904
 30
0.0
 10
5.033676
 20
8.793492
 30
0.0
 10
5.080180
 20
8.828347
 30
0.0
 10
5.107473
 20
8.833272
 30
0.0
 10
5.134825
 20
8.822321
 30
0.0
 10
5.167374
 20
8.826078
 30
0.0
 10
5.188706
 20
8.849090
 30
0.0
 10
5.208025
 20
8.913437
 30
0.0
 10
5.220813
 20
8.960987
 30
0.0
 10
5.224129
 20
9.009944
 30
0.0
 10
5.218387
 20
9.058755
 30
0.0
 10
5.204003
 20
9.105867
 30
0.0
 10
5.204003
 20
9.105867
 30
0.0
  0
LWPOLYLINE
  5
16d
100
AcDbEntity
  8
Layer_1
 62
7
100
AcDbPolyline
 90
15
 70
0
 10
8.217552
 20
9.099088
 30
0.0
 10
8.198248
 20
9.098693
 30
0.0
 10
8.162007
 20
9.084291
 30
0.0
 10
8.139715
 20
9.053212
 30
0.0
 10
8.136177
 20
9.015742
 30
0.0
 10
8.156197
 20
8.982166
 30
0.0
 10
8.177720
 20
8.969583
 30
0.0
 10
8.201069
 20
8.967025
 30
0.0
 10
8.245069
 20
8.985538
 30
0.0
 10
8.271838
 20
9.024813
 30
0.0
 10
8.273651
 20
9.048208
 30
0.0
 10
8.265022
 20
9.071958
 30
0.0
 10
8.244832
 20
9.091878
 30
0.0
 10
8.217552
 20
9.099077
 30
0.0
 10
8.217552
 20
9.099088
 30
0.0
  0
LWPOLYLINE
  5
16e
100
AcDbEntity
  8
Layer_1
 62
7
100
AcDbPolyline
 90
17
 70
0
 10
5.773076
 20
9.068385
 30
0.0
 10
5.748908
 20
9.056713
 30
0.0
 10
5.741157
 20
9.031606
 30
0.0
 10
5.749669
 20
9.006849
 30
0.0
 10
5.774289
 20
8.996230
 30
0.0
 10
6.047318
 20
8.913308
 30
0.0
 10
6.323189
 20
8.840677
 30
0.0
 10
6.354274
 20
8.851827
 30
0.0
 10
6.372457
 20
8.880092
 30
0.0
 10
6.378050
 20
8.915288
 30
0.0
 10
6.371367
 20
8.947227
 30
0.0
 10
6.339070
 20
8.970858
 30
0.0
 10
6.300193
 20
8.979649
 30
0.0
 10
6.219780
 20
8.991601
 30
0.0
 10
5.996993
 20
9.033727
 30
0.0
 10
5.773076
 20
9.068385
 30
0.0
 10
5.773076
 20
9.068385
 30
0.0
  0
LWPOLYLINE
  5
16f
100
AcDbEntity
  8
Layer_1
 62
7
100
AcDbPolyline
 90
24
 70
0
 10
10.756282
 20
9.023791
 30
0.0
 10
10.724676
 20
9.020563
 30
0.0
 10
10.692983
 20
9.009381
 30
0.0
 10
10.671053
 20
8.988633
 30
0.0
 10
10.668737
 20
8.956707
 30
0.0
 10
10.693766
 20
8.850975
 30
0.0
 10
10.711747
 20
8.744987
 30
0.0
 10
10.705734
 20
8.726958
 30
0.0
 10
10.708006
 20
8.709854
 30
0.0
 10
10.730250
 20
8.682970
 30
0.0
 10
10.764163
 20
8.673437
 30
0.0
 10
10.781020
 20
8.678023
 30
0.0
 10
10.795426
 20
8.690360
 30
0.0
 10
10.804781
 20
8.708967
 30
0.0
 10
10.803886
 20
8.729618
 30
0.0
 10
10.781738
 20
8.763122
 30
0.0
 10
10.795472
 20
8.801367
 30
0.0
 10
10.795338
 20
8.842031
 30
0.0
 10
10.791855
 20
8.883507
 30
0.0
 10
10.795539
 20
8.924187
 30
0.0
 10
10.790844
 20
8.981945
 30
0.0
 10
10.779057
 20
9.007482
 30
0.0
 10
10.756282
 20
9.023791
 30
0.0
 10
10.756282
 20
9.023791
 30
0.0
  0
LWPOLYLINE
  5
170
100
AcDbEntity
  8
Layer_1
 62
7
100
AcDbPolyline
 90
16
 70
0
 10
11.938483
 20
9.015689
 30
0.0
 10
11.921493
 20
9.015181
 30
0.0
 10
11.894081
 20
8.990599
 30
0.0
 10
11.885672
 20
8.955751
 30
0.0
 10
11.888247
 20
8.880685
 30
0.0
 10
11.881643
 20
8.730698
 30
0.0
 10
11.926828
 20
8.733603
 30
0.0
 10
11.961117
 20
8.760856
 30
0.0
 10
11.981648
 20
8.802176
 30
0.0
 10
11.985557
 20
8.847281
 30
0.0
 10
12.007835
 20
8.927779
 30
0.0
 10
12.008993
 20
8.967735
 30
0.0
 10
11.987251
 20
9.002060
 30
0.0
 10
11.938652
 20
9.015678
 30
0.0
 10
11.938652
 20
9.015678
 30
0.0
 10
11.938483
 20
9.015689
 30
0.0
  0
LWPOLYLINE
  5
171
100
AcDbEntity
  8
Layer_1
 62
7
100
AcDbPolyline
 90
17
 70
0
 10
13.255275
 20
8.801982
 30
0.0
 10
13.233487
 20
8.786163
 30
0.0
 10
13.187210
 20
8.750143
 30
0.0
 10
13.162431
 20
8.739863
 30
0.0
 10
13.136318
 20
8.750058
 30
0.0
 10
13.101303
 20
8.743308
 30
0.0
 10
13.079775
 20
8.716390
 30
0.0
 10
13.064211
 20
8.644499
 30
0.0
 10
13.043520
 20
8.566120
 30
0.0
 10
13.039029
 20
8.526755
 30
0.0
 10
13.050325
 20
8.488673
 30
0.0
 10
13.081300
 20
8.480445
 30
0.0
 10
13.107962
 20
8.495276
 30
0.0
 10
13.128073
 20
8.522888
 30
0.0
 10
13.139395
 20
8.553000
 30
0.0
 10
13.255275
 20
8.801982
 30
0.0
 10
13.255275
 20
8.801982
 30
0.0
  0
LWPOLYLINE
  5
172
100
AcDbEntity
  8
Layer_1
 62
7
100
AcDbPolyline
 90
16
 70
0
 10
9.580996
 20
8.798124
 30
0.0
 10
9.575690
 20
8.793439
 30
0.0
 10
9.572444
 20
8.790571
 30
0.0
 10
9.549021
 20
8.769353
 30
0.0
 10
9.518409
 20
8.755769
 30
0.0
 10
9.491137
 20
8.739839
 30
0.0
 10
9.477731
 20
8.711583
 30
0.0
 10
9.537498
 20
8.568454
 30
0.0
 10
9.575552
 20
8.500502
 30
0.0
 10
9.621099
 20
8.437574
 30
0.0
 10
9.639488
 20
8.415844
 30
0.0
 10
9.646581
 20
8.423085
 30
0.0
 10
9.645540
 20
8.473458
 30
0.0
 10
9.621671
 20
8.637346
 30
0.0
 10
9.580996
 20
8.798124
 30
0.0
 10
9.580996
 20
8.798124
 30
0.0
  0
LWPOLYLINE
  5
173
100
AcDbEntity
  8
Layer_1
 62
7
100
AcDbPolyline
 90
20
 70
0
 10
1.621378
 20
8.755570
 30
0.0
 10
1.556093
 20
8.702800
 30
0.0
 10
1.498399
 20
8.641289
 30
0.0
 10
1.386561
 20
8.514414
 30
0.0
 10
1.348926
 20
8.472822
 30
0.0
 10
1.337680
 20
8.449789
 30
0.0
 10
1.345605
 20
8.425777
 30
0.0
 10
1.377929
 20
8.411161
 30
0.0
 10
1.411549
 20
8.418468
 30
0.0
 10
1.442569
 20
8.439131
 30
0.0
 10
1.467093
 20
8.464582
 30
0.0
 10
1.620237
 20
8.593054
 30
0.0
 10
1.693755
 20
8.660740
 30
0.0
 10
1.759348
 20
8.736167
 30
0.0
 10
1.703465
 20
8.716021
 30
0.0
 10
1.676852
 20
8.717663
 30
0.0
 10
1.660127
 20
8.740302
 30
0.0
 10
1.642633
 20
8.752703
 30
0.0
 10
1.621378
 20
8.755570
 30
0.0
 10
1.621378
 20
8.755570
 30
0.0
  0
LWPOLYLINE
  5
174
100
AcDbEntity
  8
Layer_1
 62
7
100
AcDbPolyline
 90
13
 70
0
 10
10.745529
 20
8.663298
 30
0.0
 10
10.714740
 20
8.654241
 30
0.0
 10
10.690771
 20
8.632396
 30
0.0
 10
10.682307
 20
8.604546
 30
0.0
 10
10.698031
 20
8.577471
 30
0.0
 10
10.747525
 20
8.571198
 30
0.0
 10
10.795934
 20
8.581473
 30
0.0
 10
10.840406
 20
8.604726
 30
0.0
 10
10.878089
 20
8.637390
 30
0.0
 10
10.816879
 20
8.655735
 30
0.0
 10
10.753742
 20
8.662691
 30
0.0
 10
10.745529
 20
8.663284
 30
0.0
 10
10.745529
 20
8.663298
 30
0.0
  0
LWPOLYLINE
  5
175
100
AcDbEntity
  8
Layer_1
 62
7
100
AcDbPolyline
 90
14
 70
0
 10
11.923638
 20
8.654478
 30
0.0
 10
11.910571
 20
8.654196
 30
0.0
 10
11.883172
 20
8.637044
 30
0.0
 10
11.875554
 20
8.604987
 30
0.0
 10
11.887060
 20
8.574714
 30
0.0
 10
11.899779
 20
8.565462
 30
0.0
 10
11.917034
 20
8.562914
 30
0.0
 10
11.949469
 20
8.565151
 30
0.0
 10
11.973757
 20
8.587424
 30
0.0
 10
11.980514
 20
8.617409
 30
0.0
 10
11.974385
 20
8.631444
 30
0.0
 10
11.960355
 20
8.642786
 30
0.0
 10
11.923638
 20
8.654416
 30
0.0
 10
11.923638
 20
8.654478
 30
0.0
  0
LWPOLYLINE
  5
176
100
AcDbEntity
  8
Layer_1
 62
7
100
AcDbPolyline
 90
14
 70
0
 10
0.122239
 20
8.536461
 30
0.0
 10
0.085215
 20
8.508012
 30
0.0
 10
0.053786
 20
8.474042
 30
0.0
 10
0.000421
 20
8.396727
 30
0.0
 10
0.000421
 20
8.239741
 30
0.0
 10
0.060613
 20
8.303905
 30
0.0
 10
0.270075
 20
8.528855
 30
0.0
 10
0.215959
 20
8.510723
 30
0.0
 10
0.189551
 20
8.503848
 30
0.0
 10
0.164736
 20
8.512043
 30
0.0
 10
0.147126
 20
8.530276
 30
0.0
 10
0.122293
 20
8.536461
 30
0.0
 10
0.122293
 20
8.536461
 30
0.0
 10
0.122239
 20
8.536461
 30
0.0
  0
LWPOLYLINE
  5
177
100
AcDbEntity
  8
Layer_1
 62
7
100
AcDbPolyline
 90
14
 70
0
 10
8.463057
 20
8.277887
 30
0.0
 10
8.457328
 20
8.273862
 30
0.0
 10
8.456763
 20
8.273354
 30
0.0
 10
8.398213
 20
8.238240
 30
0.0
 10
8.376321
 20
8.215417
 30
0.0
 10
8.374609
 20
8.182349
 30
0.0
 10
8.475873
 20
8.045961
 30
0.0
 10
8.533720
 20
7.983898
 30
0.0
 10
8.599850
 20
7.930553
 30
0.0
 10
8.578307
 20
8.021812
 30
0.0
 10
8.546228
 20
8.109759
 30
0.0
 10
8.463142
 20
8.277875
 30
0.0
 10
8.463142
 20
8.277875
 30
0.0
 10
8.463057
 20
8.277887
 30
0.0
  0
LWPOLYLINE
  5
178
100
AcDbEntity
  8
Layer_1
 62
7
100
AcDbPolyline
 90
16
 70
0
 10
11.392665
 20
7.895013
 30
0.0
 10
11.386004
 20
7.892755
 30
0.0
 10
11.382477
 20
7.891485
 30
0.0
 10
11.351861
 20
7.882195
 30
0.0
 10
11.317851
 20
7.878987
 30
0.0
 10
11.287445
 20
7.870548
 30
0.0
 10
11.267640
 20
7.845567
 30
0.0
 10
11.275447
 20
7.755131
 30
0.0
 10
11.283146
 20
7.710244
 30
0.0
 10
11.299277
 20
7.667914
 30
0.0
 10
11.320996
 20
7.653271
 30
0.0
 10
11.345139
 20
7.659497
 30
0.0
 10
11.364984
 20
7.679136
 30
0.0
 10
11.373812
 20
7.704733
 30
0.0
 10
11.392665
 20
7.895013
 30
0.0
 10
11.392665
 20
7.895013
 30
0.0
  0
LWPOLYLINE
  5
179
100
AcDbEntity
  8
Layer_1
 62
7
100
AcDbPolyline
 90
19
 70
0
 10
2.414411
 20
7.820379
 30
0.0
 10
2.333797
 20
7.765067
 30
0.0
 10
2.257604
 20
7.703253
 30
0.0
 10
2.111906
 20
7.571727
 30
0.0
 10
2.105716
 20
7.545723
 30
0.0
 10
2.118044
 20
7.523231
 30
0.0
 10
2.141221
 20
7.511372
 30
0.0
 10
2.167577
 20
7.517267
 30
0.0
 10
2.250161
 20
7.567527
 30
0.0
 10
2.331949
 20
7.619572
 30
0.0
 10
2.447804
 20
7.694773
 30
0.0
 10
2.502056
 20
7.737303
 30
0.0
 10
2.551278
 20
7.785762
 30
0.0
 10
2.494640
 20
7.771073
 30
0.0
 10
2.468838
 20
7.775255
 30
0.0
 10
2.455367
 20
7.799379
 30
0.0
 10
2.437729
 20
7.815509
 30
0.0
 10
2.414411
 20
7.820379
 30
0.0
 10
2.414411
 20
7.820379
 30
0.0
  0
LWPOLYLINE
  5
17a
100
AcDbEntity
  8
Layer_1
 62
7
100
AcDbPolyline
 90
16
 70
0
 10
10.175017
 20
7.735492
 30
0.0
 10
10.168526
 20
7.732726
 30
0.0
 10
10.166833
 20
7.731964
 30
0.0
 10
10.134151
 20
7.720057
 30
0.0
 10
10.138949
 20
7.717800
 30
0.0
 10
10.133795
 20
7.714733
 30
0.0
 10
10.133869
 20
7.719944
 30
0.0
 10
10.085157
 20
7.700510
 30
0.0
 10
10.068972
 20
7.683397
 30
0.0
 10
10.063539
 20
7.657438
 30
0.0
 10
10.118414
 20
7.535960
 30
0.0
 10
10.158976
 20
7.484443
 30
0.0
 10
10.215177
 20
7.448912
 30
0.0
 10
10.175158
 20
7.735489
 30
0.0
 10
10.175158
 20
7.735489
 30
0.0
 10
10.175017
 20
7.735492
 30
0.0
  0
LWPOLYLINE
  5
17b
100
AcDbEntity
  8
Layer_1
 62
7
100
AcDbPolyline
 90
15
 70
0
 10
12.509644
 20
7.713662
 30
0.0
 10
12.478569
 20
7.690124
 30
0.0
 10
12.466616
 20
7.653913
 30
0.0
 10
12.456332
 20
7.575639
 30
0.0
 10
12.451930
 20
7.545347
 30
0.0
 10
12.460319
 20
7.514218
 30
0.0
 10
12.480168
 20
7.493350
 30
0.0
 10
12.510152
 20
7.493839
 30
0.0
 10
12.541056
 20
7.535066
 30
0.0
 10
12.564113
 20
7.581400
 30
0.0
 10
12.588356
 20
7.680922
 30
0.0
 10
12.573580
 20
7.697199
 30
0.0
 10
12.553402
 20
7.705965
 30
0.0
 10
12.509644
 20
7.713662
 30
0.0
 10
12.509644
 20
7.713662
 30
0.0
  0
LWPOLYLINE
  5
17c
100
AcDbEntity
  8
Layer_1
 62
7
100
AcDbPolyline
 90
5
 70
0
 10
10.129099
 20
7.710301
 30
0.0
 10
10.132909
 20
7.709595
 30
0.0
 10
10.129809
 20
7.705061
 30
0.0
 10
10.129099
 20
7.710301
 30
0.0
 10
10.129099
 20
7.710301
 30
0.0
  0
LWPOLYLINE
  5
17d
100
AcDbEntity
  8
Layer_1
 62
7
100
AcDbPolyline
 90
18
 70
0
 10
1.006994
 20
7.689301
 30
0.0
 10
0.938751
 20
7.639482
 30
0.0
 10
0.878189
 20
7.579522
 30
0.0
 10
0.761484
 20
7.454483
 30
0.0
 10
0.753592
 20
7.426850
 30
0.0
 10
0.766619
 20
7.402582
 30
0.0
 10
0.791602
 20
7.390125
 30
0.0
 10
0.819579
 20
7.397926
 30
0.0
 10
0.901497
 20
7.457909
 30
0.0
 10
0.982410
 20
7.519801
 30
0.0
 10
1.069682
 20
7.588204
 30
0.0
 10
1.147775
 20
7.666754
 30
0.0
 10
1.088856
 20
7.647948
 30
0.0
 10
1.060946
 20
7.649638
 30
0.0
 10
1.043209
 20
7.672379
 30
0.0
 10
1.027106
 20
7.685258
 30
0.0
 10
1.006994
 20
7.689301
 30
0.0
 10
1.006994
 20
7.689301
 30
0.0
  0
LWPOLYLINE
  5
17e
100
AcDbEntity
  8
Layer_1
 62
7
100
AcDbPolyline
 90
19
 70
0
 10
7.463990
 20
7.566435
 30
0.0
 10
7.463990
 20
7.566435
 30
0.0
 10
7.463990
 20
7.566435
 30
0.0
 10
7.463990
 20
7.566435
 30
0.0
 10
7.463990
 20
7.566435
 30
0.0
 10
7.461168
 20
7.560097
 30
0.0
 10
7.459193
 20
7.555852
 30
0.0
 10
7.443251
 20
7.520671
 30
0.0
 10
7.414714
 20
7.489708
 30
0.0
 10
7.402975
 20
7.460107
 30
0.0
 10
7.413914
 20
7.432247
 30
0.0
 10
7.461987
 20
7.388229
 30
0.0
 10
7.567259
 20
7.301869
 30
0.0
 10
7.624860
 20
7.265774
 30
0.0
 10
7.686777
 20
7.237141
 30
0.0
 10
7.642171
 20
7.326356
 30
0.0
 10
7.586919
 20
7.409168
 30
0.0
 10
7.463990
 20
7.566435
 30
0.0
 10
7.463990
 20
7.566435
 30
0.0
  0
LWPOLYLINE
  5
17f
100
AcDbEntity
  8
Layer_1
 62
7
100
AcDbPolyline
 90
16
 70
0
 10
11.312344
 20
7.538213
 30
0.0
 10
11.234920
 20
7.533129
 30
0.0
 10
11.197620
 20
7.523618
 30
0.0
 10
11.163359
 20
7.505583
 30
0.0
 10
11.177610
 20
7.467698
 30
0.0
 10
11.209862
 20
7.446648
 30
0.0
 10
11.250719
 20
7.439520
 30
0.0
 10
11.290783
 20
7.443406
 30
0.0
 10
11.432553
 20
7.443761
 30
0.0
 10
11.502345
 20
7.454365
 30
0.0
 10
11.569477
 20
7.477084
 30
0.0
 10
11.509095
 20
7.506027
 30
0.0
 10
11.445260
 20
7.525501
 30
0.0
 10
11.379251
 20
7.536050
 30
0.0
 10
11.312344
 20
7.538213
 30
0.0
 10
11.312344
 20
7.538213
 30
0.0
  0
LWPOLYLINE
  5
180
100
AcDbEntity
  8
Layer_1
 62
7
100
AcDbPolyline
 90
13
 70
0
 10
11.898012
 20
7.477691
 30
0.0
 10
11.887598
 20
7.476872
 30
0.0
 10
11.869142
 20
7.469465
 30
0.0
 10
11.857870
 20
7.455568
 30
0.0
 10
11.854627
 20
7.418597
 30
0.0
 10
11.873366
 20
7.386553
 30
0.0
 10
11.889571
 20
7.378812
 30
0.0
 10
11.909583
 20
7.380025
 30
0.0
 10
11.936767
 20
7.401266
 30
0.0
 10
11.942035
 20
7.433815
 30
0.0
 10
11.928185
 20
7.463887
 30
0.0
 10
11.898012
 20
7.477699
 30
0.0
 10
11.898012
 20
7.477691
 30
0.0
  0
LWPOLYLINE
  5
181
100
AcDbEntity
  8
Layer_1
 62
7
100
AcDbPolyline
 90
16
 70
0
 10
9.018950
 20
7.240613
 30
0.0
 10
8.982446
 20
7.228949
 30
0.0
 10
8.958375
 20
7.197902
 30
0.0
 10
8.954248
 20
7.160815
 30
0.0
 10
8.962011
 20
7.144176
 30
0.0
 10
8.977576
 20
7.131031
 30
0.0
 10
9.026739
 20
7.069930
 30
0.0
 10
9.055729
 20
7.045159
 30
0.0
 10
9.091058
 20
7.035725
 30
0.0
 10
9.111383
 20
7.071647
 30
0.0
 10
9.109025
 20
7.111703
 30
0.0
 10
9.074350
 20
7.188136
 30
0.0
 10
9.055900
 20
7.225043
 30
0.0
 10
9.039386
 20
7.236992
 30
0.0
 10
9.018950
 20
7.240613
 30
0.0
 10
9.018950
 20
7.240613
 30
0.0
  0
LWPOLYLINE
  5
182
100
AcDbEntity
  8
Layer_1
 62
7
100
AcDbPolyline
 90
17
 70
0
 10
13.742447
 20
7.236645
 30
0.0
 10
13.722804
 20
7.224574
 30
0.0
 10
13.705237
 20
7.211981
 30
0.0
 10
13.685579
 20
7.209273
 30
0.0
 10
13.649285
 20
7.227283
 30
0.0
 10
13.619759
 20
7.228171
 30
0.0
 10
13.595893
 20
7.210358
 30
0.0
 10
13.565550
 20
7.155458
 30
0.0
 10
13.546264
 20
7.104541
 30
0.0
 10
13.529285
 20
7.054146
 30
0.0
 10
13.543296
 20
7.030204
 30
0.0
 10
13.568499
 20
7.020323
 30
0.0
 10
13.595206
 20
7.025396
 30
0.0
 10
13.613725
 20
7.046317
 30
0.0
 10
13.685929
 20
7.136181
 30
0.0
 10
13.742447
 20
7.236653
 30
0.0
 10
13.742447
 20
7.236645
 30
0.0
  0
LWPOLYLINE
  5
183
100
AcDbEntity
  8
Layer_1
 62
7
100
AcDbPolyline
 90
16
 70
0
 10
4.309545
 20
6.964345
 30
0.0
 10
4.114902
 20
6.860547
 30
0.0
 10
3.926945
 20
6.745290
 30
0.0
 10
3.922998
 20
6.713657
 30
0.0
 10
3.944091
 20
6.690405
 30
0.0
 10
3.976344
 20
6.682096
 30
0.0
 10
4.005879
 20
6.695294
 30
0.0
 10
4.231546
 20
6.789283
 30
0.0
 10
4.342374
 20
6.840372
 30
0.0
 10
4.447678
 20
6.902223
 30
0.0
 10
4.391475
 20
6.899584
 30
0.0
 10
4.367114
 20
6.906721
 30
0.0
 10
4.357223
 20
6.930719
 30
0.0
 10
4.339611
 20
6.956169
 30
0.0
 10
4.309545
 20
6.964345
 30
0.0
 10
4.309545
 20
6.964345
 30
0.0
  0
LWPOLYLINE
  5
184
100
AcDbEntity
  8
Layer_1
 62
7
100
AcDbPolyline
 90
18
 70
0
 10
3.078404
 20
6.787129
 30
0.0
 10
3.078404
 20
6.787129
 30
0.0
 10
3.070245
 20
6.787129
 30
0.0
 10
2.897747
 20
6.684274
 30
0.0
 10
2.730091
 20
6.573095
 30
0.0
 10
2.736864
 20
6.538832
 30
0.0
 10
2.764202
 20
6.519908
 30
0.0
 10
2.799688
 20
6.517600
 30
0.0
 10
2.830909
 20
6.533186
 30
0.0
 10
3.028877
 20
6.625947
 30
0.0
 10
3.126823
 20
6.674267
 30
0.0
 10
3.220892
 20
6.729861
 30
0.0
 10
3.163369
 20
6.726348
 30
0.0
 10
3.136334
 20
6.730198
 30
0.0
 10
3.118203
 20
6.749374
 30
0.0
 10
3.106036
 20
6.775224
 30
0.0
 10
3.078404
 20
6.787242
 30
0.0
 10
3.078404
 20
6.787129
 30
0.0
  0
LWPOLYLINE
  5
185
100
AcDbEntity
  8
Layer_1
 62
7
100
AcDbPolyline
 90
18
 70
0
 10
1.753503
 20
6.714203
 30
0.0
 10
1.745621
 20
6.713921
 30
0.0
 10
1.602617
 20
6.619327
 30
0.0
 10
1.470674
 20
6.509420
 30
0.0
 10
1.470002
 20
6.477932
 30
0.0
 10
1.492276
 20
6.457327
 30
0.0
 10
1.524076
 20
6.452406
 30
0.0
 10
1.551980
 20
6.467970
 30
0.0
 10
1.704608
 20
6.549439
 30
0.0
 10
1.851124
 20
6.640941
 30
0.0
 10
1.841145
 20
6.658967
 30
0.0
 10
1.820608
 20
6.661493
 30
0.0
 10
1.800377
 20
6.663568
 30
0.0
 10
1.791315
 20
6.680241
 30
0.0
 10
1.776715
 20
6.702595
 30
0.0
 10
1.753503
 20
6.714088
 30
0.0
 10
1.753503
 20
6.714088
 30
0.0
 10
1.753503
 20
6.714203
 30
0.0
  0
LWPOLYLINE
  5
186
100
AcDbEntity
  8
Layer_1
 62
7
100
AcDbPolyline
 90
20
 70
0
 10
0.365543
 20
6.638466
 30
0.0
 10
0.323324
 20
6.614613
 30
0.0
 10
0.284916
 20
6.583473
 30
0.0
 10
0.213628
 20
6.514221
 30
0.0
 10
0.167248
 20
6.468702
 30
0.0
 10
0.146713
 20
6.444612
 30
0.0
 10
0.139545
 20
6.414949
 30
0.0
 10
0.158296
 20
6.391468
 30
0.0
 10
0.186339
 20
6.385286
 30
0.0
 10
0.215955
 20
6.393244
 30
0.0
 10
0.239426
 20
6.412183
 30
0.0
 10
0.360853
 20
6.491834
 30
0.0
 10
0.477661
 20
6.577218
 30
0.0
 10
0.474270
 20
6.591419
 30
0.0
 10
0.458083
 20
6.592476
 30
0.0
 10
0.421657
 20
6.590336
 30
0.0
 10
0.397042
 20
6.619565
 30
0.0
 10
0.384214
 20
6.633140
 30
0.0
 10
0.365543
 20
6.638458
 30
0.0
 10
0.365543
 20
6.638466
 30
0.0
  0
LWPOLYLINE
  5
187
100
AcDbEntity
  8
Layer_1
 62
7
100
AcDbPolyline
 90
28
 70
0
 10
6.666035
 20
6.623802
 30
0.0
 10
6.666035
 20
6.623802
 30
0.0
 10
6.666035
 20
6.623802
 30
0.0
 10
6.666035
 20
6.623802
 30
0.0
 10
6.666035
 20
6.623802
 30
0.0
 10
6.662507
 20
6.617850
 30
0.0
 10
6.661943
 20
6.617088
 30
0.0
 10
6.623593
 20
6.561460
 30
0.0
 10
6.613362
 20
6.530532
 30
0.0
 10
6.625649
 20
6.499127
 30
0.0
 10
6.769071
 20
6.421269
 30
0.0
 10
6.844157
 20
6.389745
 30
0.0
 10
6.923055
 20
6.369150
 30
0.0
 10
6.902975
 20
6.319674
 30
0.0
 10
6.901402
 20
6.293750
 30
0.0
 10
6.911258
 20
6.271309
 30
0.0
 10
6.943163
 20
6.265798
 30
0.0
 10
6.969922
 20
6.282695
 30
0.0
 10
7.011334
 20
6.336683
 30
0.0
 10
7.055354
 20
6.416938
 30
0.0
 10
7.089679
 20
6.501992
 30
0.0
 10
7.002007
 20
6.447718
 30
0.0
 10
6.961742
 20
6.415911
 30
0.0
 10
6.927881
 20
6.377142
 30
0.0
 10
6.871041
 20
6.447294
 30
0.0
 10
6.806787
 20
6.510585
 30
0.0
 10
6.666007
 20
6.623810
 30
0.0
 10
6.666035
 20
6.623802
 30
0.0
  0
LWPOLYLINE
  5
188
100
AcDbEntity
  8
Layer_1
 62
7
100
AcDbPolyline
 90
14
 70
0
 10
8.069442
 20
6.515268
 30
0.0
 10
8.066168
 20
6.508985
 30
0.0
 10
8.064475
 20
6.505731
 30
0.0
 10
8.047863
 20
6.476537
 30
0.0
 10
8.026089
 20
6.448346
 30
0.0
 10
8.011655
 20
6.418918
 30
0.0
 10
8.017061
 20
6.386010
 30
0.0
 10
8.071670
 20
6.343442
 30
0.0
 10
8.131121
 20
6.305297
 30
0.0
 10
8.195568
 20
6.279631
 30
0.0
 10
8.265163
 20
6.274498
 30
0.0
 10
8.069498
 20
6.515268
 30
0.0
 10
8.069498
 20
6.515268
 30
0.0
 10
8.069442
 20
6.515268
 30
0.0
  0
LWPOLYLINE
  5
189
100
AcDbEntity
  8
Layer_1
 62
7
100
AcDbPolyline
 90
14
 70
0
 10
11.592478
 20
6.364897
 30
0.0
 10
11.592478
 20
6.364897
 30
0.0
 10
11.574789
 20
6.360275
 30
0.0
 10
11.562977
 20
6.349066
 30
0.0
 10
11.555966
 20
6.316227
 30
0.0
 10
11.569412
 20
6.285053
 30
0.0
 10
11.583171
 20
6.275927
 30
0.0
 10
11.601283
 20
6.274222
 30
0.0
 10
11.631122
 20
6.288244
 30
0.0
 10
11.641345
 20
6.318941
 30
0.0
 10
11.631819
 20
6.349891
 30
0.0
 10
11.602412
 20
6.364674
 30
0.0
 10
11.592619
 20
6.364956
 30
0.0
 10
11.592478
 20
6.364897
 30
0.0
  0
LWPOLYLINE
  5
18a
100
AcDbEntity
  8
Layer_1
 62
7
100
AcDbPolyline
 90
14
 70
0
 10
10.809029
 20
6.345714
 30
0.0
 10
10.809029
 20
6.345714
 30
0.0
 10
10.797402
 20
6.345714
 30
0.0
 10
10.726364
 20
6.332956
 30
0.0
 10
10.659078
 20
6.306889
 30
0.0
 10
10.598448
 20
6.268057
 30
0.0
 10
10.547381
 20
6.217004
 30
0.0
 10
10.703369
 20
6.231533
 30
0.0
 10
10.778279
 20
6.252997
 30
0.0
 10
10.847016
 20
6.289543
 30
0.0
 10
10.852439
 20
6.310180
 30
0.0
 10
10.845020
 20
6.327438
 30
0.0
 10
10.809029
 20
6.345768
 30
0.0
 10
10.809029
 20
6.345714
 30
0.0
  0
LWPOLYLINE
  5
18b
100
AcDbEntity
  8
Layer_1
 62
7
100
AcDbPolyline
 90
13
 70
0
 10
11.850937
 20
6.337225
 30
0.0
 10
11.822955
 20
6.326641
 30
0.0
 10
11.813306
 20
6.299983
 30
0.0
 10
11.822120
 20
6.272405
 30
0.0
 10
11.849526
 20
6.259063
 30
0.0
 10
11.894805
 20
6.243411
 30
0.0
 10
11.942155
 20
6.237570
 30
0.0
 10
12.037430
 20
6.246993
 30
0.0
 10
11.952227
 20
6.310947
 30
0.0
 10
11.903921
 20
6.331714
 30
0.0
 10
11.851022
 20
6.337225
 30
0.0
 10
11.851022
 20
6.337225
 30
0.0
 10
11.850937
 20
6.337225
 30
0.0
  0
LWPOLYLINE
  5
18c
100
AcDbEntity
  8
Layer_1
 62
7
100
AcDbPolyline
 90
12
 70
0
 10
8.494638
 20
6.324604
 30
0.0
 10
8.469351
 20
6.317052
 30
0.0
 10
8.347734
 20
6.277616
 30
0.0
 10
8.295242
 20
6.243823
 30
0.0
 10
8.261042
 20
6.190989
 30
0.0
 10
8.261939
 20
6.164850
 30
0.0
 10
8.281870
 20
6.150165
 30
0.0
 10
8.309739
 20
6.147954
 30
0.0
 10
8.334448
 20
6.159239
 30
0.0
 10
8.416236
 20
6.239962
 30
0.0
 10
8.494638
 20
6.324604
 30
0.0
 10
8.494638
 20
6.324604
 30
0.0
  0
LWPOLYLINE
  5
18d
100
AcDbEntity
  8
Layer_1
 62
7
100
AcDbPolyline
 90
13
 70
0
 10
9.939333
 20
6.051972
 30
0.0
 10
9.921316
 20
6.044918
 30
0.0
 10
9.911054
 20
6.032154
 30
0.0
 10
9.910331
 20
5.998282
 30
0.0
 10
9.930241
 20
5.967925
 30
0.0
 10
9.945769
 20
5.959555
 30
0.0
 10
9.963858
 20
5.958652
 30
0.0
 10
9.989529
 20
5.972686
 30
0.0
 10
9.999489
 20
5.998463
 30
0.0
 10
9.993489
 20
6.025969
 30
0.0
 10
9.971281
 20
6.045193
 30
0.0
 10
9.939333
 20
6.051972
 30
0.0
 10
9.939333
 20
6.051972
 30
0.0
  0
LWPOLYLINE
  5
18e
100
AcDbEntity
  8
Layer_1
 62
7
100
AcDbPolyline
 90
17
 70
0
 10
3.588992
 20
5.675216
 30
0.0
 10
3.411703
 20
5.600278
 30
0.0
 10
3.241780
 20
5.511395
 30
0.0
 10
3.235879
 20
5.483177
 30
0.0
 10
3.250828
 20
5.459525
 30
0.0
 10
3.277183
 20
5.447560
 30
0.0
 10
3.305502
 20
5.454400
 30
0.0
 10
3.494453
 20
5.511305
 30
0.0
 10
3.679667
 20
5.578423
 30
0.0
 10
3.710102
 20
5.602739
 30
0.0
 10
3.671011
 20
5.603724
 30
0.0
 10
3.652356
 20
5.608324
 30
0.0
 10
3.639570
 20
5.620245
 30
0.0
 10
3.628734
 20
5.654766
 30
0.0
 10
3.611652
 20
5.670752
 30
0.0
 10
3.588992
 20
5.675216
 30
0.0
 10
3.588992
 20
5.675216
 30
0.0
  0
LWPOLYLINE
  5
18f
100
AcDbEntity
  8
Layer_1
 62
7
100
AcDbPolyline
 90
16
 70
0
 10
2.327258
 20
5.638781
 30
0.0
 10
2.171711
 20
5.561007
 30
0.0
 10
2.023319
 20
5.473416
 30
0.0
 10
2.029001
 20
5.440228
 30
0.0
 10
2.054775
 20
5.420586
 30
0.0
 10
2.089130
 20
5.416114
 30
0.0
 10
2.120553
 20
5.428438
 30
0.0
 10
2.299243
 20
5.492505
 30
0.0
 10
2.387547
 20
5.527748
 30
0.0
 10
2.471070
 20
5.573351
 30
0.0
 10
2.409370
 20
5.572912
 30
0.0
 10
2.383401
 20
5.582582
 30
0.0
 10
2.373452
 20
5.609622
 30
0.0
 10
2.355078
 20
5.631695
 30
0.0
 10
2.327258
 20
5.638781
 30
0.0
 10
2.327258
 20
5.638781
 30
0.0
  0
LWPOLYLINE
  5
190
100
AcDbEntity
  8
Layer_1
 62
7
100
AcDbPolyline
 90
16
 70
0
 10
1.030636
 20
5.618662
 30
0.0
 10
0.904864
 20
5.542456
 30
0.0
 10
0.783692
 20
5.458478
 30
0.0
 10
0.792681
 20
5.424309
 30
0.0
 10
0.820969
 20
5.406272
 30
0.0
 10
0.856870
 20
5.404678
 30
0.0
 10
0.888698
 20
5.419839
 30
0.0
 10
1.035084
 20
5.482302
 30
0.0
 10
1.107370
 20
5.515685
 30
0.0
 10
1.175165
 20
5.557586
 30
0.0
 10
1.113793
 20
5.555912
 30
0.0
 10
1.087800
 20
5.566840
 30
0.0
 10
1.076054
 20
5.594187
 30
0.0
 10
1.057033
 20
5.613264
 30
0.0
 10
1.030636
 20
5.618662
 30
0.0
 10
1.030636
 20
5.618662
 30
0.0
  0
LWPOLYLINE
  5
191
100
AcDbEntity
  8
Layer_1
 62
7
100
AcDbPolyline
 90
31
 70
0
 10
6.055899
 20
5.558193
 30
0.0
 10
6.055899
 20
5.558193
 30
0.0
 10
6.055899
 20
5.558193
 30
0.0
 10
6.055899
 20
5.558193
 30
0.0
 10
6.055899
 20
5.558193
 30
0.0
 10
6.056181
 20
5.551191
 30
0.0
 10
6.056464
 20
5.546452
 30
0.0
 10
6.056181
 20
5.546452
 30
0.0
 10
6.059051
 20
5.523332
 30
0.0
 10
6.054162
 20
5.498698
 30
0.0
 10
6.042731
 20
5.447675
 30
0.0
 10
6.061642
 20
5.418988
 30
0.0
 10
6.093115
 20
5.405001
 30
0.0
 10
6.162401
 20
5.386489
 30
0.0
 10
6.269442
 20
5.361471
 30
0.0
 10
6.379027
 20
5.355015
 30
0.0
 10
6.373632
 20
5.326506
 30
0.0
 10
6.381931
 20
5.297455
 30
0.0
 10
6.401429
 20
5.278001
 30
0.0
 10
6.429629
 20
5.278285
 30
0.0
 10
6.456233
 20
5.304968
 30
0.0
 10
6.468091
 20
5.342872
 30
0.0
 10
6.460718
 20
5.378662
 30
0.0
 10
6.448418
 20
5.391596
 30
0.0
 10
6.429629
 20
5.399000
 30
0.0
 10
6.401626
 20
5.389104
 30
0.0
 10
6.382997
 20
5.364385
 30
0.0
 10
6.307400
 20
5.422459
 30
0.0
 10
6.226112
 20
5.472051
 30
0.0
 10
6.055905
 20
5.558193
 30
0.0
 10
6.055899
 20
5.558193
 30
0.0
  0
LWPOLYLINE
  5
192
100
AcDbEntity
  8
Layer_1
 62
7
100
AcDbPolyline
 90
15
 70
0
 10
7.328975
 20
5.529364
 30
0.0
 10
7.328975
 20
5.522308
 30
0.0
 10
7.328975
 20
5.515913
 30
0.0
 10
7.330763
 20
5.484722
 30
0.0
 10
7.320371
 20
5.453278
 30
0.0
 10
7.311953
 20
5.421981
 30
0.0
 10
7.319662
 20
5.391230
 30
0.0
 10
7.393124
 20
5.356781
 30
0.0
 10
7.471751
 20
5.332469
 30
0.0
 10
7.529805
 20
5.321510
 30
0.0
 10
7.588874
 20
5.319405
 30
0.0
 10
7.532040
 20
5.381111
 30
0.0
 10
7.467179
 20
5.433999
 30
0.0
 10
7.328975
 20
5.529364
 30
0.0
 10
7.328975
 20
5.529364
 30
0.0
  0
LWPOLYLINE
  5
193
100
AcDbEntity
  8
Layer_1
 62
7
100
AcDbPolyline
 90
14
 70
0
 10
7.783748
 20
5.466140
 30
0.0
 10
7.769129
 20
5.455667
 30
0.0
 10
7.693884
 20
5.398166
 30
0.0
 10
7.635271
 20
5.324245
 30
0.0
 10
7.594226
 20
5.238893
 30
0.0
 10
7.571686
 20
5.147097
 30
0.0
 10
7.589563
 20
5.120752
 30
0.0
 10
7.620024
 20
5.116321
 30
0.0
 10
7.648696
 20
5.130557
 30
0.0
 10
7.661207
 20
5.160214
 30
0.0
 10
7.734733
 20
5.308638
 30
0.0
 10
7.764601
 20
5.385604
 30
0.0
 10
7.783748
 20
5.466140
 30
0.0
 10
7.783748
 20
5.466140
 30
0.0
  0
LWPOLYLINE
  5
194
100
AcDbEntity
  8
Layer_1
 62
7
100
AcDbPolyline
 90
15
 70
0
 10
9.117841
 20
5.338477
 30
0.0
 10
9.103673
 20
5.333242
 30
0.0
 10
9.035033
 20
5.303405
 30
0.0
 10
8.973167
 20
5.260987
 30
0.0
 10
8.920222
 20
5.207940
 30
0.0
 10
8.878347
 20
5.146213
 30
0.0
 10
8.880791
 20
5.114967
 30
0.0
 10
8.901454
 20
5.092140
 30
0.0
 10
8.930044
 20
5.085462
 30
0.0
 10
8.956269
 20
5.102666
 30
0.0
 10
9.047680
 20
5.205105
 30
0.0
 10
9.086356
 20
5.261188
 30
0.0
 10
9.112930
 20
5.324312
 30
0.0
 10
9.117841
 20
5.338477
 30
0.0
 10
9.117841
 20
5.338477
 30
0.0
  0
LWPOLYLINE
  5
195
100
AcDbEntity
  8
Layer_1
 62
7
100
AcDbPolyline
 90
13
 70
0
 10
13.584769
 20
5.307611
 30
0.0
 10
13.581298
 20
5.304690
 30
0.0
 10
13.559475
 20
5.280235
 30
0.0
 10
13.559094
 20
5.249589
 30
0.0
 10
13.573583
 20
5.219318
 30
0.0
 10
13.596369
 20
5.195989
 30
0.0
 10
13.694074
 20
5.086204
 30
0.0
 10
13.807866
 20
4.993472
 30
0.0
 10
13.780064
 20
5.089392
 30
0.0
 10
13.733846
 20
5.178571
 30
0.0
 10
13.668865
 20
5.253735
 30
0.0
 10
13.584769
 20
5.307611
 30
0.0
 10
13.584769
 20
5.307611
 30
0.0
  0
LWPOLYLINE
  5
196
100
AcDbEntity
  8
Layer_1
 62
7
100
AcDbPolyline
 90
13
 70
0
 10
11.593240
 20
5.216989
 30
0.0
 10
11.574570
 20
5.211624
 30
0.0
 10
11.562425
 20
5.199611
 30
0.0
 10
11.556223
 20
5.165317
 30
0.0
 10
11.571670
 20
5.133461
 30
0.0
 10
11.586585
 20
5.124494
 30
0.0
 10
11.605799
 20
5.123393
 30
0.0
 10
11.634429
 20
5.139098
 30
0.0
 10
11.645547
 20
5.168819
 30
0.0
 10
11.637799
 20
5.198897
 30
0.0
 10
11.609835
 20
5.215668
 30
0.0
 10
11.593240
 20
5.216995
 30
0.0
 10
11.593240
 20
5.216989
 30
0.0
  0
LWPOLYLINE
  5
197
100
AcDbEntity
  8
Layer_1
 62
7
100
AcDbPolyline
 90
14
 70
0
 10
11.039943
 20
5.214505
 30
0.0
 10
11.029840
 20
5.214223
 30
0.0
 10
11.011093
 20
5.208844
 30
0.0
 10
10.999606
 20
5.196499
 30
0.0
 10
10.995934
 20
5.161472
 30
0.0
 10
11.013858
 20
5.130262
 30
0.0
 10
11.029366
 20
5.122688
 30
0.0
 10
11.048410
 20
5.123988
 30
0.0
 10
11.077587
 20
5.142787
 30
0.0
 10
11.083346
 20
5.172371
 30
0.0
 10
11.069520
 20
5.200363
 30
0.0
 10
11.039943
 20
5.214387
 30
0.0
 10
11.039943
 20
5.214387
 30
0.0
 10
11.039943
 20
5.214505
 30
0.0
  0
LWPOLYLINE
  5
198
100
AcDbEntity
  8
Layer_1
 62
7
100
AcDbPolyline
 90
11
 70
0
 10
11.883562
 20
5.124604
 30
0.0
 10
11.854898
 20
5.114604
 30
0.0
 10
11.843667
 20
5.088469
 30
0.0
 10
11.849363
 20
5.058737
 30
0.0
 10
11.871483
 20
5.037953
 30
0.0
 10
11.903541
 20
5.038705
 30
0.0
 10
11.924135
 20
5.062276
 30
0.0
 10
11.927145
 20
5.094011
 30
0.0
 10
11.906450
 20
5.119255
 30
0.0
 10
11.883562
 20
5.124604
 30
0.0
 10
11.883562
 20
5.124604
 30
0.0
  0
LWPOLYLINE
  5
199
100
AcDbEntity
  8
Layer_1
 62
7
100
AcDbPolyline
 90
14
 70
0
 10
1.048825
 20
4.606350
 30
0.0
 10
1.028594
 20
4.602612
 30
0.0
 10
1.015094
 20
4.590911
 30
0.0
 10
1.006948
 20
4.554709
 30
0.0
 10
1.021697
 20
4.519923
 30
0.0
 10
1.036818
 20
4.509991
 30
0.0
 10
1.056654
 20
4.508730
 30
0.0
 10
1.074745
 20
4.515607
 30
0.0
 10
1.087287
 20
4.528274
 30
0.0
 10
1.095928
 20
4.562442
 30
0.0
 10
1.082975
 20
4.594159
 30
0.0
 10
1.068525
 20
4.603763
 30
0.0
 10
1.048825
 20
4.606350
 30
0.0
 10
1.048825
 20
4.606350
 30
0.0
  0
LWPOLYLINE
  5
19a
100
AcDbEntity
  8
Layer_1
 62
7
100
AcDbPolyline
 90
13
 70
0
 10
4.027870
 20
4.532434
 30
0.0
 10
4.011995
 20
4.527526
 30
0.0
 10
3.569753
 20
4.387848
 30
0.0
 10
3.570954
 20
4.352343
 30
0.0
 10
3.594400
 20
4.327912
 30
0.0
 10
3.629033
 20
4.317656
 30
0.0
 10
3.663792
 20
4.324679
 30
0.0
 10
4.029137
 20
4.385811
 30
0.0
 10
4.005233
 20
4.418976
 30
0.0
 10
4.000636
 20
4.457464
 30
0.0
 10
4.009973
 20
4.496780
 30
0.0
 10
4.027867
 20
4.532434
 30
0.0
 10
4.027870
 20
4.532434
 30
0.0
  0
LWPOLYLINE
  5
19b
100
AcDbEntity
  8
Layer_1
 62
7
100
AcDbPolyline
 90
14
 70
0
 10
1.517523
 20
4.496383
 30
0.0
 10
1.330962
 20
4.421510
 30
0.0
 10
1.242568
 20
4.373938
 30
0.0
 10
1.161438
 20
4.314592
 30
0.0
 10
1.287927
 20
4.320610
 30
0.0
 10
1.412910
 20
4.340121
 30
0.0
 10
1.535629
 20
4.371368
 30
0.0
 10
1.655327
 20
4.412599
 30
0.0
 10
1.595438
 20
4.421790
 30
0.0
 10
1.570903
 20
4.434036
 30
0.0
 10
1.563717
 20
4.461548
 30
0.0
 10
1.546663
 20
4.487002
 30
0.0
 10
1.517523
 20
4.496383
 30
0.0
 10
1.517523
 20
4.496383
 30
0.0
  0
LWPOLYLINE
  5
19c
100
AcDbEntity
  8
Layer_1
 62
7
100
AcDbPolyline
 90
18
 70
0
 10
2.745907
 20
4.487289
 30
0.0
 10
2.737087
 20
4.487007
 30
0.0
 10
2.545412
 20
4.421470
 30
0.0
 10
2.359615
 20
4.341265
 30
0.0
 10
2.391965
 20
4.322116
 30
0.0
 10
2.426118
 20
4.311433
 30
0.0
 10
2.497925
 20
4.309188
 30
0.0
 10
2.642224
 20
4.337243
 30
0.0
 10
2.763990
 20
4.359336
 30
0.0
 10
2.823523
 20
4.375648
 30
0.0
 10
2.880569
 20
4.399529
 30
0.0
 10
2.819114
 20
4.407698
 30
0.0
 10
2.794318
 20
4.420119
 30
0.0
 10
2.788076
 20
4.448255
 30
0.0
 10
2.773407
 20
4.474717
 30
0.0
 10
2.745907
 20
4.487174
 30
0.0
 10
2.745907
 20
4.487174
 30
0.0
 10
2.745907
 20
4.487289
 30
0.0
  0
LWPOLYLINE
  5
19d
100
AcDbEntity
  8
Layer_1
 62
7
100
AcDbPolyline
 90
14
 70
0
 10
0.267202
 20
4.455539
 30
0.0
 10
0.135975
 20
4.389421
 30
0.0
 10
0.011495
 20
4.311341
 30
0.0
 10
0.043371
 20
4.295545
 30
0.0
 10
0.076303
 20
4.288096
 30
0.0
 10
0.144054
 20
4.291727
 30
0.0
 10
0.278116
 20
4.327546
 30
0.0
 10
0.302535
 20
4.333723
 30
0.0
 10
0.318609
 20
4.349123
 30
0.0
 10
0.327679
 20
4.394756
 30
0.0
 10
0.309238
 20
4.438782
 30
0.0
 10
0.290925
 20
4.452173
 30
0.0
 10
0.267202
 20
4.455539
 30
0.0
 10
0.267202
 20
4.455539
 30
0.0
  0
LWPOLYLINE
  5
19e
100
AcDbEntity
  8
Layer_1
 62
7
100
AcDbPolyline
 90
14
 70
0
 10
5.706596
 20
4.376054
 30
0.0
 10
5.708289
 20
4.369219
 30
0.0
 10
5.709390
 20
4.364698
 30
0.0
 10
5.718178
 20
4.334242
 30
0.0
 10
5.715813
 20
4.301243
 30
0.0
 10
5.716175
 20
4.269600
 30
0.0
 10
5.733147
 20
4.243209
 30
0.0
 10
5.844971
 20
4.229648
 30
0.0
 10
5.958595
 20
4.229208
 30
0.0
 10
6.082010
 20
4.251755
 30
0.0
 10
5.992217
 20
4.293816
 30
0.0
 10
5.898609
 20
4.326125
 30
0.0
 10
5.706579
 20
4.376054
 30
0.0
 10
5.706596
 20
4.376054
 30
0.0
  0
LWPOLYLINE
  5
19f
100
AcDbEntity
  8
Layer_1
 62
7
100
AcDbPolyline
 90
12
 70
0
 10
6.921136
 20
4.364367
 30
0.0
 10
6.919725
 20
4.357422
 30
0.0
 10
6.919725
 20
4.356491
 30
0.0
 10
6.904361
 20
4.287864
 30
0.0
 10
6.909354
 20
4.255036
 30
0.0
 10
6.933723
 20
4.231034
 30
0.0
 10
7.071719
 20
4.223140
 30
0.0
 10
7.139221
 20
4.234625
 30
0.0
 10
7.200677
 20
4.265925
 30
0.0
 10
6.921277
 20
4.364373
 30
0.0
 10
6.921277
 20
4.364373
 30
0.0
 10
6.921136
 20
4.364367
 30
0.0
  0
LWPOLYLINE
  5
1a0
100
AcDbEntity
  8
Layer_1
 62
7
100
AcDbPolyline
 90
16
 70
0
 10
12.921942
 20
4.268070
 30
0.0
 10
12.910112
 20
4.255310
 30
0.0
 10
12.911669
 20
4.235852
 30
0.0
 10
12.922225
 20
4.194814
 30
0.0
 10
12.971300
 20
4.034073
 30
0.0
 10
13.007342
 20
3.958236
 30
0.0
 10
13.052696
 20
3.887401
 30
0.0
 10
13.061248
 20
3.982511
 30
0.0
 10
13.054502
 20
4.079373
 30
0.0
 10
13.024748
 20
4.169174
 30
0.0
 10
12.998833
 20
4.208672
 30
0.0
 10
12.964276
 20
4.243099
 30
0.0
 10
12.944019
 20
4.257769
 30
0.0
 10
12.921942
 20
4.268070
 30
0.0
 10
12.921942
 20
4.268070
 30
0.0
 10
12.921942
 20
4.268070
 30
0.0
  0
LWPOLYLINE
  5
1a1
100
AcDbEntity
  8
Layer_1
 62
7
100
AcDbPolyline
 90
16
 70
0
 10
9.664703
 20
4.217358
 30
0.0
 10
9.655897
 20
4.216906
 30
0.0
 10
9.615220
 20
4.188916
 30
0.0
 10
9.593329
 20
4.143888
 30
0.0
 10
9.591143
 20
4.093173
 30
0.0
 10
9.609585
 20
4.048123
 30
0.0
 10
9.642429
 20
4.046788
 30
0.0
 10
9.667190
 20
4.066031
 30
0.0
 10
9.683257
 20
4.096411
 30
0.0
 10
9.690018
 20
4.128492
 30
0.0
 10
9.700993
 20
4.154199
 30
0.0
 10
9.701088
 20
4.182917
 30
0.0
 10
9.689320
 20
4.206622
 30
0.0
 10
9.664703
 20
4.217293
 30
0.0
 10
9.664703
 20
4.217293
 30
0.0
 10
9.664703
 20
4.217358
 30
0.0
  0
LWPOLYLINE
  5
1a2
100
AcDbEntity
  8
Layer_1
 62
7
100
AcDbPolyline
 90
14
 70
0
 10
10.796132
 20
4.135669
 30
0.0
 10
10.785548
 20
4.135386
 30
0.0
 10
10.766519
 20
4.129934
 30
0.0
 10
10.754584
 20
4.117391
 30
0.0
 10
10.749858
 20
4.081610
 30
0.0
 10
10.767098
 20
4.049194
 30
0.0
 10
10.782619
 20
4.040858
 30
0.0
 10
10.802030
 20
4.041294
 30
0.0
 10
10.832954
 20
4.059387
 30
0.0
 10
10.840038
 20
4.090283
 30
0.0
 10
10.826644
 20
4.120249
 30
0.0
 10
10.796132
 20
4.135553
 30
0.0
 10
10.796132
 20
4.135553
 30
0.0
 10
10.796132
 20
4.135669
 30
0.0
  0
LWPOLYLINE
  5
1a3
100
AcDbEntity
  8
Layer_1
 62
7
100
AcDbPolyline
 90
13
 70
0
 10
11.830702
 20
4.133354
 30
0.0
 10
11.820627
 20
4.133016
 30
0.0
 10
11.802046
 20
4.128083
 30
0.0
 10
11.790584
 20
4.116330
 30
0.0
 10
11.786594
 20
4.082401
 30
0.0
 10
11.803819
 20
4.051289
 30
0.0
 10
11.818874
 20
4.043059
 30
0.0
 10
11.837419
 20
4.043057
 30
0.0
 10
11.865607
 20
4.061391
 30
0.0
 10
11.872065
 20
4.091087
 30
0.0
 10
11.859521
 20
4.119340
 30
0.0
 10
11.830702
 20
4.133346
 30
0.0
 10
11.830702
 20
4.133354
 30
0.0
  0
LWPOLYLINE
  5
1a4
100
AcDbEntity
  8
Layer_1
 62
7
100
AcDbPolyline
 90
14
 70
0
 10
9.491277
 20
3.432650
 30
0.0
 10
9.481823
 20
3.432255
 30
0.0
 10
9.462250
 20
3.427338
 30
0.0
 10
9.450062
 20
3.414975
 30
0.0
 10
9.445458
 20
3.378936
 30
0.0
 10
9.463249
 20
3.346184
 30
0.0
 10
9.479054
 20
3.337931
 30
0.0
 10
9.498671
 20
3.338769
 30
0.0
 10
9.527639
 20
3.356677
 30
0.0
 10
9.534979
 20
3.388456
 30
0.0
 10
9.522317
 20
3.418846
 30
0.0
 10
9.491277
 20
3.432588
 30
0.0
 10
9.491277
 20
3.432588
 30
0.0
 10
9.491277
 20
3.432650
 30
0.0
  0
LWPOLYLINE
  5
1a5
100
AcDbEntity
  8
Layer_1
 62
7
100
AcDbPolyline
 90
15
 70
0
 10
1.803273
 20
3.309618
 30
0.0
 10
1.610315
 20
3.265799
 30
0.0
 10
1.516325
 20
3.236028
 30
0.0
 10
1.428061
 20
3.191551
 30
0.0
 10
1.541983
 20
3.174096
 30
0.0
 10
1.656989
 20
3.172073
 30
0.0
 10
1.887389
 20
3.184108
 30
0.0
 10
1.890585
 20
3.203522
 30
0.0
 10
1.878773
 20
3.216133
 30
0.0
 10
1.850291
 20
3.238899
 30
0.0
 10
1.851482
 20
3.263187
 30
0.0
 10
1.843455
 20
3.286571
 30
0.0
 10
1.827092
 20
3.303799
 30
0.0
 10
1.803273
 20
3.309618
 30
0.0
 10
1.803273
 20
3.309618
 30
0.0
  0
LWPOLYLINE
  5
1a6
100
AcDbEntity
  8
Layer_1
 62
7
100
AcDbPolyline
 90
19
 70
0
 10
4.157735
 20
3.298431
 30
0.0
 10
4.157735
 20
3.298431
 30
0.0
 10
4.148198
 20
3.298431
 30
0.0
 10
3.936957
 20
3.263415
 30
0.0
 10
3.728229
 20
3.216795
 30
0.0
 10
3.751853
 20
3.192531
 30
0.0
 10
3.779138
 20
3.175675
 30
0.0
 10
3.841385
 20
3.159330
 30
0.0
 10
3.908349
 20
3.158047
 30
0.0
 10
3.973410
 20
3.162115
 30
0.0
 10
4.127345
 20
3.166829
 30
0.0
 10
4.203763
 20
3.174924
 30
0.0
 10
4.278836
 20
3.191771
 30
0.0
 10
4.221337
 20
3.209143
 30
0.0
 10
4.200685
 20
3.226208
 30
0.0
 10
4.200951
 20
3.254497
 30
0.0
 10
4.187538
 20
3.284339
 30
0.0
 10
4.157735
 20
3.298541
 30
0.0
 10
4.157735
 20
3.298431
 30
0.0
  0
LWPOLYLINE
  5
1a7
100
AcDbEntity
  8
Layer_1
 62
7
100
AcDbPolyline
 90
17
 70
0
 10
2.966613
 20
3.285200
 30
0.0
 10
2.781042
 20
3.250320
 30
0.0
 10
2.598457
 20
3.203291
 30
0.0
 10
2.622150
 20
3.179178
 30
0.0
 10
2.649485
 20
3.162638
 30
0.0
 10
2.711754
 20
3.147229
 30
0.0
 10
2.843417
 20
3.151805
 30
0.0
 10
2.976116
 20
3.154848
 30
0.0
 10
3.041781
 20
3.162485
 30
0.0
 10
3.105796
 20
3.179864
 30
0.0
 10
3.044746
 20
3.194787
 30
0.0
 10
3.021551
 20
3.211017
 30
0.0
 10
3.019199
 20
3.240223
 30
0.0
 10
3.014417
 20
3.258807
 30
0.0
 10
3.002425
 20
3.273701
 30
0.0
 10
2.966613
 20
3.285200
 30
0.0
 10
2.966613
 20
3.285200
 30
0.0
  0
LWPOLYLINE
  5
1a8
100
AcDbEntity
  8
Layer_1
 62
7
100
AcDbPolyline
 90
15
 70
0
 10
0.594735
 20
3.281509
 30
0.0
 10
0.433455
 20
3.236812
 30
0.0
 10
0.355500
 20
3.206976
 30
0.0
 10
0.282747
 20
3.165586
 30
0.0
 10
0.383504
 20
3.150849
 30
0.0
 10
0.485138
 20
3.148585
 30
0.0
 10
0.688495
 20
3.161728
 30
0.0
 10
0.684467
 20
3.184266
 30
0.0
 10
0.665710
 20
3.197659
 30
0.0
 10
0.647528
 20
3.210533
 30
0.0
 10
0.645225
 20
3.231513
 30
0.0
 10
0.630458
 20
3.267672
 30
0.0
 10
0.614491
 20
3.278781
 30
0.0
 10
0.594735
 20
3.281509
 30
0.0
 10
0.594735
 20
3.281509
 30
0.0
  0
LWPOLYLINE
  5
1a9
100
AcDbEntity
  8
Layer_1
 62
7
100
AcDbPolyline
 90
14
 70
0
 10
12.045445
 20
3.264254
 30
0.0
 10
12.025780
 20
3.260529
 30
0.0
 10
12.012574
 20
3.249363
 30
0.0
 10
12.004286
 20
3.214792
 30
0.0
 10
12.018080
 20
3.180713
 30
0.0
 10
12.032477
 20
3.170161
 30
0.0
 10
12.051456
 20
3.167296
 30
0.0
 10
12.070528
 20
3.172819
 30
0.0
 10
12.083676
 20
3.184767
 30
0.0
 10
12.092721
 20
3.218858
 30
0.0
 10
12.079630
 20
3.251408
 30
0.0
 10
12.065109
 20
3.261429
 30
0.0
 10
12.045445
 20
3.264254
 30
0.0
 10
12.045445
 20
3.264254
 30
0.0
  0
LWPOLYLINE
  5
1aa
100
AcDbEntity
  8
Layer_1
 62
7
100
AcDbPolyline
 90
14
 70
0
 10
10.590702
 20
3.261545
 30
0.0
 10
10.580429
 20
3.261262
 30
0.0
 10
10.562858
 20
3.255520
 30
0.0
 10
10.551767
 20
3.243188
 30
0.0
 10
10.547303
 20
3.209012
 30
0.0
 10
10.563594
 20
3.179258
 30
0.0
 10
10.578445
 20
3.172451
 30
0.0
 10
10.597193
 20
3.174445
 30
0.0
 10
10.622587
 20
3.194430
 30
0.0
 10
10.629487
 20
3.222770
 30
0.0
 10
10.618617
 20
3.248693
 30
0.0
 10
10.590702
 20
3.261426
 30
0.0
 10
10.590702
 20
3.261426
 30
0.0
 10
10.590702
 20
3.261545
 30
0.0
  0
LWPOLYLINE
  5
1ab
100
AcDbEntity
  8
Layer_1
 62
7
100
AcDbPolyline
 90
16
 70
0
 10
5.620605
 20
3.146341
 30
0.0
 10
5.623803
 20
3.140056
 30
0.0
 10
5.626117
 20
3.135482
 30
0.0
 10
5.641230
 20
3.109423
 30
0.0
 10
5.646449
 20
3.079365
 30
0.0
 10
5.652195
 20
3.049832
 30
0.0
 10
5.668891
 20
3.025350
 30
0.0
 10
5.701289
 20
3.019544
 30
0.0
 10
5.735007
 20
3.023239
 30
0.0
 10
5.802616
 20
3.034500
 30
0.0
 10
5.911500
 20
3.059709
 30
0.0
 10
6.013236
 20
3.105606
 30
0.0
 10
5.916637
 20
3.126944
 30
0.0
 10
5.818407
 20
3.137530
 30
0.0
 10
5.620605
 20
3.146341
 30
0.0
 10
5.620605
 20
3.146341
 30
0.0
  0
LWPOLYLINE
  5
1ac
100
AcDbEntity
  8
Layer_1
 62
7
100
AcDbPolyline
 90
13
 70
0
 10
6.800966
 20
3.143034
 30
0.0
 10
6.803506
 20
3.136419
 30
0.0
 10
6.804917
 20
3.132727
 30
0.0
 10
6.815971
 20
3.101162
 30
0.0
 10
6.822358
 20
3.065564
 30
0.0
 10
6.834524
 20
3.034444
 30
0.0
 10
6.862913
 20
3.016310
 30
0.0
 10
6.996821
 20
3.044786
 30
0.0
 10
7.057898
 20
3.074382
 30
0.0
 10
7.106387
 20
3.122638
 30
0.0
 10
6.801050
 20
3.143034
 30
0.0
 10
6.801050
 20
3.143034
 30
0.0
 10
6.800966
 20
3.143034
 30
0.0
  0
LWPOLYLINE
  5
1ad
100
AcDbEntity
  8
Layer_1
 62
7
100
AcDbPolyline
 90
22
 70
0
 10
10.721286
 20
3.133938
 30
0.0
 10
10.721286
 20
3.133938
 30
0.0
 10
10.721286
 20
3.133938
 30
0.0
 10
10.721286
 20
3.133938
 30
0.0
 10
10.721286
 20
3.133938
 30
0.0
 10
10.718464
 20
3.127599
 30
0.0
 10
10.717053
 20
3.124568
 30
0.0
 10
10.708634
 20
3.100553
 30
0.0
 10
10.693477
 20
3.077769
 30
0.0
 10
10.666451
 20
3.028548
 30
0.0
 10
10.681462
 20
2.990555
 30
0.0
 10
10.712291
 20
2.964025
 30
0.0
 10
10.748929
 20
2.941713
 30
0.0
 10
10.781371
 20
2.916373
 30
0.0
 10
10.895816
 20
2.832936
 30
0.0
 10
11.017140
 20
2.759883
 30
0.0
 10
11.014698
 20
2.797324
 30
0.0
 10
11.004228
 20
2.831456
 30
0.0
 10
10.965490
 20
2.891781
 30
0.0
 10
10.860817
 20
2.994591
 30
0.0
 10
10.721230
 20
3.133938
 30
0.0
 10
10.721286
 20
3.133938
 30
0.0
  0
LWPOLYLINE
  5
1ae
100
AcDbEntity
  8
Layer_1
 62
7
100
AcDbPolyline
 90
21
 70
0
 10
11.893891
 20
3.100150
 30
0.0
 10
11.835603
 20
3.056212
 30
0.0
 10
11.782865
 20
3.004762
 30
0.0
 10
11.679544
 20
2.899120
 30
0.0
 10
11.663674
 20
2.878599
 30
0.0
 10
11.658275
 20
2.853293
 30
0.0
 10
11.666014
 20
2.831029
 30
0.0
 10
11.689563
 20
2.819635
 30
0.0
 10
11.727912
 20
2.826004
 30
0.0
 10
11.760199
 20
2.847800
 30
0.0
 10
11.790555
 20
2.874764
 30
0.0
 10
11.823110
 20
2.896640
 30
0.0
 10
11.941830
 20
2.980941
 30
0.0
 10
11.997414
 20
3.027695
 30
0.0
 10
12.047025
 20
3.080968
 30
0.0
 10
11.983857
 20
3.061786
 30
0.0
 10
11.953172
 20
3.064242
 30
0.0
 10
11.929790
 20
3.086369
 30
0.0
 10
11.913037
 20
3.096764
 30
0.0
 10
11.893891
 20
3.100150
 30
0.0
 10
11.893891
 20
3.100150
 30
0.0
  0
LWPOLYLINE
  5
1af
100
AcDbEntity
  8
Layer_1
 62
7
100
AcDbPolyline
 90
18
 70
0
 10
4.873018
 20
2.932028
 30
0.0
 10
4.837787
 20
2.916963
 30
0.0
 10
4.818975
 20
2.885323
 30
0.0
 10
4.813762
 20
2.846085
 30
0.0
 10
4.819328
 20
2.808225
 30
0.0
 10
4.816767
 20
2.772423
 30
0.0
 10
4.823381
 20
2.735907
 30
0.0
 10
4.842371
 20
2.707632
 30
0.0
 10
4.876933
 20
2.696550
 30
0.0
 10
4.912527
 20
2.702231
 30
0.0
 10
4.940201
 20
2.724497
 30
0.0
 10
4.952707
 20
2.756477
 30
0.0
 10
4.942801
 20
2.791303
 30
0.0
 10
4.931572
 20
2.880423
 30
0.0
 10
4.913258
 20
2.918312
 30
0.0
 10
4.896510
 20
2.929116
 30
0.0
 10
4.873018
 20
2.932028
 30
0.0
 10
4.873018
 20
2.932028
 30
0.0
  0
LWPOLYLINE
  5
1b0
100
AcDbEntity
  8
Layer_1
 62
7
100
AcDbPolyline
 90
17
 70
0
 10
8.593274
 20
2.252436
 30
0.0
 10
8.589408
 20
2.249072
 30
0.0
 10
8.574022
 20
2.227163
 30
0.0
 10
8.567358
 20
2.203712
 30
0.0
 10
8.572559
 20
2.153852
 30
0.0
 10
8.603632
 20
2.053944
 30
0.0
 10
8.642794
 20
1.980504
 30
0.0
 10
8.671811
 20
1.951392
 30
0.0
 10
8.708477
 20
1.933226
 30
0.0
 10
8.736059
 20
1.949697
 30
0.0
 10
8.744390
 20
1.978905
 30
0.0
 10
8.738307
 20
2.012008
 30
0.0
 10
8.722645
 20
2.040163
 30
0.0
 10
8.672660
 20
2.157113
 30
0.0
 10
8.641091
 20
2.211195
 30
0.0
 10
8.593274
 20
2.252436
 30
0.0
 10
8.593274
 20
2.252436
 30
0.0
  0
LWPOLYLINE
  5
1b1
100
AcDbEntity
  8
Layer_1
 62
7
100
AcDbPolyline
 90
10
 70
0
 10
13.999975
 20
2.212637
 30
0.0
 10
13.970516
 20
2.170467
 30
0.0
 10
13.948684
 20
2.122695
 30
0.0
 10
13.904781
 20
2.027209
 30
0.0
 10
13.870971
 20
1.934123
 30
0.0
 10
13.846897
 20
1.837923
 30
0.0
 10
13.929892
 20
1.911818
 30
0.0
 10
13.999975
 20
1.999704
 30
0.0
 10
13.999975
 20
2.212637
 30
0.0
 10
13.999975
 20
2.212637
 30
0.0
  0
LWPOLYLINE
  5
1b2
100
AcDbEntity
  8
Layer_1
 62
7
100
AcDbPolyline
 90
15
 70
0
 10
7.398176
 20
2.185572
 30
0.0
 10
7.369093
 20
2.155341
 30
0.0
 10
7.360542
 20
2.114757
 30
0.0
 10
7.375316
 20
2.029580
 30
0.0
 10
7.395576
 20
1.960474
 30
0.0
 10
7.418413
 20
1.935197
 30
0.0
 10
7.452984
 20
1.929755
 30
0.0
 10
7.477172
 20
1.948322
 30
0.0
 10
7.482832
 20
1.976826
 30
0.0
 10
7.467913
 20
2.037572
 30
0.0
 10
7.446835
 20
2.114402
 30
0.0
 10
7.432341
 20
2.151428
 30
0.0
 10
7.410199
 20
2.183478
 30
0.0
 10
7.398176
 20
2.185567
 30
0.0
 10
7.398176
 20
2.185572
 30
0.0
  0
LWPOLYLINE
  5
1b3
100
AcDbEntity
  8
Layer_1
 62
7
100
AcDbPolyline
 90
16
 70
0
 10
1.854894
 20
2.088835
 30
0.0
 10
1.843318
 20
2.088553
 30
0.0
 10
1.651546
 20
2.077831
 30
0.0
 10
1.556506
 20
2.065263
 30
0.0
 10
1.464742
 20
2.036683
 30
0.0
 10
1.575579
 20
1.999678
 30
0.0
 10
1.690037
 20
1.977317
 30
0.0
 10
1.922526
 20
1.951796
 30
0.0
 10
1.920661
 20
1.974579
 30
0.0
 10
1.905178
 20
1.992268
 30
0.0
 10
1.891920
 20
2.009593
 30
0.0
 10
1.896731
 20
2.031281
 30
0.0
 10
1.887316
 20
2.068778
 30
0.0
 10
1.854894
 20
2.088773
 30
0.0
 10
1.854894
 20
2.088773
 30
0.0
 10
1.854894
 20
2.088835
 30
0.0
  0
LWPOLYLINE
  5
1b4
100
AcDbEntity
  8
Layer_1
 62
7
100
AcDbPolyline
 90
19
 70
0
 10
4.559873
 20
2.087791
 30
0.0
 10
4.547689
 20
2.087509
 30
0.0
 10
4.342708
 20
2.078465
 30
0.0
 10
4.137750
 20
2.068989
 30
0.0
 10
4.130634
 20
2.032508
 30
0.0
 10
4.149248
 20
2.002556
 30
0.0
 10
4.182618
 20
1.984446
 30
0.0
 10
4.219773
 20
1.983496
 30
0.0
 10
4.438976
 20
1.961978
 30
0.0
 10
4.548790
 20
1.952936
 30
0.0
 10
4.658925
 20
1.952793
 30
0.0
 10
4.610033
 20
1.980473
 30
0.0
 10
4.596044
 20
2.000853
 30
0.0
 10
4.603694
 20
2.027316
 30
0.0
 10
4.604663
 20
2.048593
 30
0.0
 10
4.595787
 20
2.067296
 30
0.0
 10
4.579910
 20
2.081126
 30
0.0
 10
4.559873
 20
2.087785
 30
0.0
 10
4.559873
 20
2.087791
 30
0.0
  0
LWPOLYLINE
  5
1b5
100
AcDbEntity
  8
Layer_1
 62
7
100
AcDbPolyline
 90
16
 70
0
 10
3.292297
 20
2.072246
 30
0.0
 10
3.103692
 20
2.064950
 30
0.0
 10
3.010644
 20
2.052477
 30
0.0
 10
2.921054
 20
2.023187
 30
0.0
 10
3.020350
 20
1.991874
 30
0.0
 10
3.122604
 20
1.969803
 30
0.0
 10
3.226251
 20
1.959292
 30
0.0
 10
3.329726
 20
1.962665
 30
0.0
 10
3.339113
 20
1.977027
 30
0.0
 10
3.338233
 20
1.993804
 30
0.0
 10
3.336848
 20
2.010736
 30
0.0
 10
3.344717
 20
2.025558
 30
0.0
 10
3.342531
 20
2.045034
 30
0.0
 10
3.329958
 20
2.060005
 30
0.0
 10
3.292297
 20
2.072246
 30
0.0
 10
3.292297
 20
2.072246
 30
0.0
  0
LWPOLYLINE
  5
1b6
100
AcDbEntity
  8
Layer_1
 62
7
100
AcDbPolyline
 90
17
 70
0
 10
7.224327
 20
1.972972
 30
0.0
 10
7.107226
 20
1.950387
 30
0.0
 10
7.049948
 20
1.934847
 30
0.0
 10
6.996179
 20
1.909361
 30
0.0
 10
7.053678
 20
1.900991
 30
0.0
 10
7.076010
 20
1.884218
 30
0.0
 10
7.087026
 20
1.856942
 30
0.0
 10
7.111402
 20
1.836617
 30
0.0
 10
7.141442
 20
1.837618
 30
0.0
 10
7.200790
 20
1.863887
 30
0.0
 10
7.230078
 20
1.878055
 30
0.0
 10
7.256617
 20
1.900132
 30
0.0
 10
7.270652
 20
1.927968
 30
0.0
 10
7.262427
 20
1.959411
 30
0.0
 10
7.244933
 20
1.970458
 30
0.0
 10
7.224327
 20
1.972972
 30
0.0
 10
7.224327
 20
1.972972
 30
0.0
  0
LWPOLYLINE
  5
1b7
100
AcDbEntity
  8
Layer_1
 62
7
100
AcDbPolyline
 90
14
 70
0
 10
6.068438
 20
1.971363
 30
0.0
 10
5.914538
 20
1.947375
 30
0.0
 10
5.838075
 20
1.932035
 30
0.0
 10
5.764663
 20
1.905546
 30
0.0
 10
5.825937
 20
1.891910
 30
0.0
 10
5.848168
 20
1.872956
 30
0.0
 10
5.854678
 20
1.842322
 30
0.0
 10
5.880274
 20
1.820363
 30
0.0
 10
5.912435
 20
1.819930
 30
0.0
 10
5.976606
 20
1.844862
 30
0.0
 10
6.091469
 20
1.893766
 30
0.0
 10
6.196322
 20
1.961392
 30
0.0
 10
6.068438
 20
1.971369
 30
0.0
 10
6.068438
 20
1.971363
 30
0.0
  0
LWPOLYLINE
  5
1b8
100
AcDbEntity
  8
Layer_1
 62
7
100
AcDbPolyline
 90
18
 70
0
 10
7.842083
 20
1.173588
 30
0.0
 10
7.844623
 20
1.158540
 30
0.0
 10
7.861861
 20
1.068652
 30
0.0
 10
7.903403
 20
0.988123
 30
0.0
 10
7.960852
 20
0.916114
 30
0.0
 10
8.025810
 20
0.851787
 30
0.0
 10
8.046970
 20
0.846925
 30
0.0
 10
8.065551
 20
0.860688
 30
0.0
 10
8.076686
 20
0.884168
 30
0.0
 10
8.075509
 20
0.908455
 30
0.0
 10
8.059770
 20
0.943021
 30
0.0
 10
8.035931
 20
0.972889
 30
0.0
 10
7.988416
 20
1.033524
 30
0.0
 10
7.923490
 20
1.112419
 30
0.0
 10
7.885316
 20
1.146165
 30
0.0
 10
7.842140
 20
1.173588
 30
0.0
 10
7.842140
 20
1.173588
 30
0.0
 10
7.842083
 20
1.173588
 30
0.0
  0
LWPOLYLINE
  5
1b9
100
AcDbEntity
  8
Layer_1
 62
7
100
AcDbPolyline
 90
15
 70
0
 10
6.587831
 20
1.087818
 30
0.0
 10
6.587831
 20
1.067755
 30
0.0
 10
6.585837
 20
0.991653
 30
0.0
 10
6.603435
 20
0.916743
 30
0.0
 10
6.642215
 20
0.852282
 30
0.0
 10
6.670046
 20
0.826863
 30
0.0
 10
6.703768
 20
0.807526
 30
0.0
 10
6.717386
 20
0.801410
 30
0.0
 10
6.728357
 20
0.804009
 30
0.0
 10
6.734280
 20
0.813589
 30
0.0
 10
6.732753
 20
0.828416
 30
0.0
 10
6.710248
 20
0.900000
 30
0.0
 10
6.676326
 20
0.966641
 30
0.0
 10
6.587831
 20
1.087818
 30
0.0
 10
6.587831
 20
1.087818
 30
0.0
  0
LWPOLYLINE
  5
1ba
100
AcDbEntity
  8
Layer_1
 62
7
100
AcDbPolyline
 90
31
 70
0
 10
3.616799
 20
0.953489
 30
0.0
 10
3.597711
 20
0.946841
 30
0.0
 10
3.586504
 20
0.933231
 30
0.0
 10
3.584588
 20
0.896096
 30
0.0
 10
3.604758
 20
0.864025
 30
0.0
 10
3.621158
 20
0.856744
 30
0.0
 10
3.640720
 20
0.858956
 30
0.0
 10
3.651635
 20
0.864840
 30
0.0
 10
3.659021
 20
0.876405
 30
0.0
 10
3.664327
 20
0.883186
 30
0.0
 10
3.668999
 20
0.874718
 30
0.0
 10
3.692569
 20
0.858734
 30
0.0
 10
3.720794
 20
0.850441
 30
0.0
 10
3.778800
 20
0.836135
 30
0.0
 10
4.152468
 20
0.751579
 30
0.0
 10
4.117701
 20
0.795317
 30
0.0
 10
4.108061
 20
0.819718
 30
0.0
 10
4.115207
 20
0.845892
 30
0.0
 10
4.105639
 20
0.880068
 30
0.0
 10
4.077558
 20
0.899184
 30
0.0
 10
4.040894
 20
0.906881
 30
0.0
 10
4.005572
 20
0.906801
 30
0.0
 10
3.843713
 20
0.922876
 30
0.0
 10
3.762521
 20
0.929457
 30
0.0
 10
3.681346
 20
0.928684
 30
0.0
 10
3.666669
 20
0.916189
 30
0.0
 10
3.659573
 20
0.928402
 30
0.0
 10
3.642129
 20
0.947885
 30
0.0
 10
3.616799
 20
0.953427
 30
0.0
 10
3.616799
 20
0.953427
 30
0.0
 10
3.616799
 20
0.953489
 30
0.0
  0
LWPOLYLINE
  5
1bb
100
AcDbEntity
  8
Layer_1
 62
7
100
AcDbPolyline
 90
17
 70
0
 10
0.246448
 20
0.930005
 30
0.0
 10
0.222832
 20
0.916870
 30
0.0
 10
0.220147
 20
0.892007
 30
0.0
 10
0.233478
 20
0.867594
 30
0.0
 10
0.257912
 20
0.855812
 30
0.0
 10
0.403795
 20
0.793889
 30
0.0
 10
0.478510
 20
0.767886
 30
0.0
 10
0.555569
 20
0.749815
 30
0.0
 10
0.509876
 20
0.795425
 30
0.0
 10
0.498971
 20
0.824411
 30
0.0
 10
0.504472
 20
0.856309
 30
0.0
 10
0.491985
 20
0.887678
 30
0.0
 10
0.463907
 20
0.903768
 30
0.0
 10
0.395938
 20
0.912366
 30
0.0
 10
0.321758
 20
0.926057
 30
0.0
 10
0.246448
 20
0.930005
 30
0.0
 10
0.246448
 20
0.930005
 30
0.0
  0
LWPOLYLINE
  5
1bc
100
AcDbEntity
  8
Layer_1
 62
7
100
AcDbPolyline
 90
16
 70
0
 10
2.552291
 20
0.929017
 30
0.0
 10
2.528736
 20
0.918812
 30
0.0
 10
2.521222
 20
0.894721
 30
0.0
 10
2.529342
 20
0.870470
 30
0.0
 10
2.552686
 20
0.859785
 30
0.0
 10
2.714395
 20
0.808276
 30
0.0
 10
2.879996
 20
0.773465
 30
0.0
 10
2.910308
 20
0.801276
 30
0.0
 10
2.921087
 20
0.842857
 30
0.0
 10
2.909997
 20
0.881933
 30
0.0
 10
2.895522
 20
0.895446
 30
0.0
 10
2.874704
 20
0.902229
 30
0.0
 10
2.713868
 20
0.916770
 30
0.0
 10
2.633410
 20
0.926321
 30
0.0
 10
2.552299
 20
0.929017
 30
0.0
 10
2.552291
 20
0.929017
 30
0.0
  0
LWPOLYLINE
  5
1bd
100
AcDbEntity
  8
Layer_1
 62
7
100
AcDbPolyline
 90
15
 70
0
 10
7.777652
 20
0.927917
 30
0.0
 10
7.686801
 20
0.887875
 30
0.0
 10
7.649251
 20
0.857841
 30
0.0
 10
7.629965
 20
0.813541
 30
0.0
 10
7.646832
 20
0.780211
 30
0.0
 10
7.681076
 20
0.763289
 30
0.0
 10
7.717945
 20
0.766697
 30
0.0
 10
7.732753
 20
0.777251
 30
0.0
 10
7.742685
 20
0.794358
 30
0.0
 10
7.797418
 20
0.843672
 30
0.0
 10
7.814380
 20
0.874397
 30
0.0
 10
7.811321
 20
0.910278
 30
0.0
 10
7.796667
 20
0.923919
 30
0.0
 10
7.777652
 20
0.927917
 30
0.0
 10
7.777652
 20
0.927917
 30
0.0
  0
LWPOLYLINE
  5
1be
100
AcDbEntity
  8
Layer_1
 62
7
100
AcDbPolyline
 90
18
 70
0
 10
1.410945
 20
0.905593
 30
0.0
 10
1.389177
 20
0.889855
 30
0.0
 10
1.386570
 20
0.864120
 30
0.0
 10
1.399843
 20
0.840752
 30
0.0
 10
1.425716
 20
0.832116
 30
0.0
 10
1.592419
 20
0.771646
 30
0.0
 10
1.678164
 20
0.749884
 30
0.0
 10
1.765873
 20
0.739457
 30
0.0
 10
1.741385
 20
0.754975
 30
0.0
 10
1.722643
 20
0.776676
 30
0.0
 10
1.714036
 20
0.802753
 30
0.0
 10
1.719955
 20
0.831400
 30
0.0
 10
1.708322
 20
0.861630
 30
0.0
 10
1.681296
 20
0.876423
 30
0.0
 10
1.615609
 20
0.885197
 30
0.0
 10
1.513644
 20
0.899767
 30
0.0
 10
1.410945
 20
0.905593
 30
0.0
 10
1.410945
 20
0.905593
 30
0.0
  0
LWPOLYLINE
  5
1bf
100
AcDbEntity
  8
Layer_1
 62
7
100
AcDbPolyline
 90
15
 70
0
 10
6.612639
 20
0.887678
 30
0.0
 10
6.595959
 20
0.885871
 30
0.0
 10
6.495952
 20
0.870847
 30
0.0
 10
6.400198
 20
0.838503
 30
0.0
 10
6.214564
 20
0.755730
 30
0.0
 10
6.267965
 20
0.738361
 30
0.0
 10
6.290868
 20
0.724568
 30
0.0
 10
6.303919
 20
0.700333
 30
0.0
 10
6.333320
 20
0.682873
 30
0.0
 10
6.365770
 20
0.687537
 30
0.0
 10
6.423640
 20
0.726568
 30
0.0
 10
6.525970
 20
0.798322
 30
0.0
 10
6.572400
 20
0.839890
 30
0.0
 10
6.612639
 20
0.887689
 30
0.0
 10
6.612639
 20
0.887678
 30
0.0
  0
LWPOLYLINE
  5
1c0
100
AcDbEntity
  8
Layer_1
 62
7
100
AcDbPolyline
 90
13
 70
0
 10
12.408947
 20
0.610857
 30
0.0
 10
12.398589
 20
0.610405
 30
0.0
 10
12.380336
 20
0.605311
 30
0.0
 10
12.369044
 20
0.593661
 30
0.0
 10
12.365023
 20
0.560307
 30
0.0
 10
12.381877
 20
0.529568
 30
0.0
 10
12.396680
 20
0.521186
 30
0.0
 10
12.414958
 20
0.520667
 30
0.0
 10
12.445221
 20
0.538004
 30
0.0
 10
12.452064
 20
0.567928
 30
0.0
 10
12.438850
 20
0.596766
 30
0.0
 10
12.408947
 20
0.610846
 30
0.0
 10
12.408947
 20
0.610857
 30
0.0
  0
LWPOLYLINE
  5
1c1
100
AcDbEntity
  8
Layer_1
 62
7
100
AcDbPolyline
 90
10
 70
0
 10
0.000000
 20
0.500065
 30
0.0
 10
0.000000
 20
0.000001
 30
0.0
 10
0.499951
 20
0.000001
 30
0.0
 10
0.499951
 20
0.400017
 30
0.0
 10
13.499962
 20
0.400017
 30
0.0
 10
13.499962
 20
0.000001
 30
0.0
 10
13.999975
 20
0.000001
 30
0.0
 10
13.999975
 20
0.500065
 30
0.0
 10
0.000000
 20
0.500065
 30
0.0
 10
0.000000
 20
0.500065
 30
0.0
  0
ENDSEC
  0
SECTION
  2
OBJECTS
  0
DICTIONARY
  5
C
330
0
100
AcDbDictionary
  3
ACAD_GROUP
350
D
  3
ACAD_MLINESTYLE
350
17
  0
DICTIONARY
  5
D
330
C
100
AcDbDictionary
  0
DICTIONARY
  5
1A
330
C
100
AcDbDictionary
  0
DICTIONARY
  5
17
330
C
100
AcDbDictionary
  3
STANDARD
350
18
  0
DICTIONARY
  5
19
330
C
100
AcDbDictionary
  0
ENDSEC
  0
EOF
