  0
SECTION
  2
HEADER
  9
$ACADVER
  1
AC1014
  9
$HANDSEED
  5
FFFF
  9
$MEASUREMENT
 70
     1
  0
ENDSEC
  0
SECTION
  2
TABLES
  0
TABLE
  2
VPORT
  5
8
330
0
100
AcDbSymbolTable
 70
     4
  0
VPORT
  5
2E
330
8
100
AcDbSymbolTableRecord
100
AcDbViewportTableRecord
  2
*ACTIVE
 70
     0
 10
0.0
 20
0.0
 11
1.0
 21
1.0
 12
210.0
 22
148.5
 13
0.0
 23
0.0
 14
10.0
 24
10.0
 15
10.0
 25
10.0
 16
0.0
 26
0.0
 36
1.0
 17
0.0
 27
0.0
 37
0.0
 40
341.0
 41
1.24
 42
50.0
 43
0.0
 44
0.0
 50
0.0
 51
0.0
 71
     0
 72
   100
 73
     1
 74
     3
 75
     0
 76
     0
 77
     0
 78
     0
  0
ENDTAB
  0
TABLE
  2
LTYPE
  5
5
330
0
100
AcDbSymbolTable
 70
     1
  0
LTYPE
  5
14
330
5
100
AcDbSymbolTableRecord
100
AcDbLinetypeTableRecord
  2
BYBLOCK
 70
     0
  3

 72
    65
 73
     0
 40
0.0
  0
LTYPE
  5
15
330
5
100
AcDbSymbolTableRecord
100
AcDbLinetypeTableRecord
  2
BYLAYER
 70
     0
  3

 72
    65
 73
     0
 40
0.0
  0
LTYPE
  5
16
330
5
100
AcDbSymbolTableRecord
100
AcDbLinetypeTableRecord
  2
CONTINUOUS
 70
     0
  3
Solid line
 72
    65
 73
     0
 40
0.0
  0
ENDTAB
  0
TABLE
  2
LAYER
  5
2
100
AcDbSymbolTable
 70
2
  0
LAYER
  5
50
100
AcDbSymbolTableRecord
100
AcDbLayerTableRecord
  2
0
 70
0
  6
CONTINUOUS
  0
LAYER
  5
51
100
AcDbSymbolTableRecord
100
AcDbLayerTableRecord
  2
Layer_1
 70
0
  6
CONTINUOUS
  0
ENDTAB
  0
TABLE
  2
STYLE
  5
3
330
0
100
AcDbSymbolTable
 70
     1
  0
STYLE
  5
11
330
3
100
AcDbSymbolTableRecord
100
AcDbTextStyleTableRecord
  2
STANDARD
 70
     0
 40
0.0
 41
1.0
 50
0.0
 71
     0
 42
2.5
  3
txt
  4

  0
ENDTAB
  0
TABLE
  2
VIEW
  5
6
330
0
100
AcDbSymbolTable
 70
     0
  0
ENDTAB
  0
TABLE
  2
UCS
  5
7
330
0
100
AcDbSymbolTable
 70
     0
  0
ENDTAB
  0
TABLE
  2
APPID
  5
9
330
0
100
AcDbSymbolTable
 70
     2
  0
APPID
  5
12
330
9
100
AcDbSymbolTableRecord
100
AcDbRegAppTableRecord
  2
ACAD
 70
     0
  0
ENDTAB
  0
TABLE
  2
DIMSTYLE
  5
A
330
0
100
AcDbSymbolTable
 70
     1
  0
DIMSTYLE
105
27
330
A
100
AcDbSymbolTableRecord
100
AcDbDimStyleTableRecord
  2
ISO-25
 70
     0
  3

  4

  5

  6

  7

 40
1.0
 41
2.5
 42
0.625
 43
3.75
 44
1.25
 45
0.0
 46
0.0
 47
0.0
 48
0.0
140
2.5
141
2.5
142
0.0
143
0.03937007874016
144
1.0
145
0.0
146
1.0
147
0.625
 71
     0
 72
     0
 73
     0
 74
     0
 75
     0
 76
     0
 77
     1
 78
     8
170
     0
171
     3
172
     1
173
     0
174
     0
175
     0
176
     0
177
     0
178
     0
270
     2
271
     2
272
     2
273
     2
274
     3
340
11
275
     0
280
     0
281
     0
282
     0
283
     0
284
     8
285
     0
286
     0
287
     3
288
     0
  0
ENDTAB
  0
TABLE
  2
BLOCK_RECORD
  5
1
330
0
100
AcDbSymbolTable
 70
     1
  0
BLOCK_RECORD
  5
1F
330
1
100
AcDbSymbolTableRecord
100
AcDbBlockTableRecord
  2
*MODEL_SPACE
  0
BLOCK_RECORD
  5
1B
330
1
100
AcDbSymbolTableRecord
100
AcDbBlockTableRecord
  2
*PAPER_SPACE
  0
ENDTAB
  0
ENDSEC
  0
SECTION
  2
BLOCKS
  0
BLOCK
  5
20
330
1F
100
AcDbEntity
  8
0
100
AcDbBlockBegin
  2
*MODEL_SPACE
 70
     0
 10
0.0
 20
0.0
 30
0.0
  3
*MODEL_SPACE
  1

  0
ENDBLK
  5
21
330
1F
100
AcDbEntity
  8
0
100
AcDbBlockEnd
  0
BLOCK
  5
1C
330
1B
100
AcDbEntity
 67
     1
  8
0
100
AcDbBlockBegin
  2
*PAPER_SPACE
  1

  0
ENDBLK
  5
1D
330
1B
100
AcDbEntity
 67
     1
  8
0
100
AcDbBlockEnd
  0
ENDSEC
  0
SECTION
  2
ENTITIES
  0
LWPOLYLINE
  5
100
100
AcDbEntity
  8
Layer_1
 62
7
100
AcDbPolyline
 90
15
 70
0
 10
12.600011
 20
20.999980
 30
0.0
 10
12.600011
 20
20.600018
 30
0.0
 10
0.000000
 20
20.600018
 30
0.0
 10
0.000000
 20
0.400016
 30
0.0
 10
12.600011
 20
0.400016
 30
0.0
 10
12.600011
 20
-0.000000
 30
0.0
 10
13.099963
 20
-0.000000
 30
0.0
 10
13.099963
 20
0.500064
 30
0.0
 10
0.099935
 20
0.500064
 30
0.0
 10
0.099935
 20
20.500083
 30
0.0
 10
0.099935
 20
20.500083
 30
0.0
 10
13.099906
 20
20.500083
 30
0.0
 10
13.099906
 20
21.000034
 30
0.0
 10
12.599955
 20
21.000034
 30
0.0
 10
12.600011
 20
20.999980
 30
0.0
  0
LWPOLYLINE
  5
101
100
AcDbEntity
  8
Layer_1
 62
7
100
AcDbPolyline
 90
13
 70
0
 10
9.814774
 20
20.483271
 30
0.0
 10
9.805515
 20
20.482932
 30
0.0
 10
9.786453
 20
20.471280
 30
0.0
 10
9.776822
 20
20.453465
 30
0.0
 10
9.781024
 20
20.411049
 30
0.0
 10
9.808453
 20
20.379080
 30
0.0
 10
9.827858
 20
20.374326
 30
0.0
 10
9.849445
 20
20.380957
 30
0.0
 10
9.866905
 20
20.408772
 30
0.0
 10
9.863771
 20
20.441897
 30
0.0
 10
9.844807
 20
20.470128
 30
0.0
 10
9.814774
 20
20.483263
 30
0.0
 10
9.814774
 20
20.483271
 30
0.0
  0
LWPOLYLINE
  5
102
100
AcDbEntity
  8
Layer_1
 62
7
100
AcDbPolyline
 90
14
 70
0
 10
11.003139
 20
20.474835
 30
0.0
 10
10.982492
 20
20.470827
 30
0.0
 10
10.968272
 20
20.458333
 30
0.0
 10
10.958474
 20
20.419739
 30
0.0
 10
10.972470
 20
20.382760
 30
0.0
 10
10.987992
 20
20.372283
 30
0.0
 10
11.008984
 20
20.371099
 30
0.0
 10
11.027102
 20
20.378340
 30
0.0
 10
11.040185
 20
20.391914
 30
0.0
 10
11.050543
 20
20.428666
 30
0.0
 10
11.038660
 20
20.462569
 30
0.0
 10
11.023942
 20
20.472581
 30
0.0
 10
11.003139
 20
20.474835
 30
0.0
 10
11.003139
 20
20.474835
 30
0.0
  0
LWPOLYLINE
  5
103
100
AcDbEntity
  8
Layer_1
 62
7
100
AcDbPolyline
 90
13
 70
0
 10
6.954794
 20
20.474440
 30
0.0
 10
6.937376
 20
20.470010
 30
0.0
 10
6.925505
 20
20.459535
 30
0.0
 10
6.917591
 20
20.428570
 30
0.0
 10
6.929422
 20
20.397789
 30
0.0
 10
6.959369
 20
20.383435
 30
0.0
 10
6.992281
 20
20.383889
 30
0.0
 10
7.018592
 20
20.404860
 30
0.0
 10
7.028534
 20
20.435073
 30
0.0
 10
7.012342
 20
20.463253
 30
0.0
 10
6.984758
 20
20.473647
 30
0.0
 10
6.954794
 20
20.474440
 30
0.0
 10
6.954794
 20
20.474440
 30
0.0
  0
LWPOLYLINE
  5
104
100
AcDbEntity
  8
Layer_1
 62
7
100
AcDbPolyline
 90
13
 70
0
 10
9.896577
 20
20.236482
 30
0.0
 10
9.822582
 20
20.224040
 30
0.0
 10
9.752516
 20
20.197323
 30
0.0
 10
9.689230
 20
20.157250
 30
0.0
 10
9.635575
 20
20.104740
 30
0.0
 10
9.795613
 20
20.121109
 30
0.0
 10
9.872367
 20
20.143191
 30
0.0
 10
9.942161
 20
20.181968
 30
0.0
 10
9.946164
 20
20.203487
 30
0.0
 10
9.936391
 20
20.221737
 30
0.0
 10
9.918107
 20
20.233732
 30
0.0
 10
9.896577
 20
20.236482
 30
0.0
 10
9.896577
 20
20.236482
 30
0.0
  0
LWPOLYLINE
  5
105
100
AcDbEntity
  8
Layer_1
 62
7
100
AcDbPolyline
 90
14
 70
0
 10
10.950002
 20
20.232404
 30
0.0
 10
10.931263
 20
20.228222
 30
0.0
 10
10.919361
 20
20.217028
 30
0.0
 10
10.914053
 20
20.183619
 30
0.0
 10
10.930040
 20
20.152209
 30
0.0
 10
10.944758
 20
20.143513
 30
0.0
 10
10.963286
 20
20.142829
 30
0.0
 10
11.027955
 20
20.125286
 30
0.0
 10
11.058674
 20
20.130160
 30
0.0
 10
11.079483
 20
20.155013
 30
0.0
 10
11.064765
 20
20.193013
 30
0.0
 10
11.031138
 20
20.213845
 30
0.0
 10
10.950002
 20
20.232404
 30
0.0
 10
10.950002
 20
20.232404
 30
0.0
  0
LWPOLYLINE
  5
106
100
AcDbEntity
  8
Layer_1
 62
7
100
AcDbPolyline
 90
15
 70
0
 10
7.525964
 20
20.210410
 30
0.0
 10
7.519458
 20
20.207644
 30
0.0
 10
7.515380
 20
20.205923
 30
0.0
 10
7.458551
 20
20.183218
 30
0.0
 10
7.408669
 20
20.145852
 30
0.0
 10
7.375445
 20
20.095788
 30
0.0
 10
7.368591
 20
20.034989
 30
0.0
 10
7.377006
 20
20.028902
 30
0.0
 10
7.391836
 20
20.034329
 30
0.0
 10
7.423491
 20
20.052244
 30
0.0
 10
7.463959
 20
20.080717
 30
0.0
 10
7.497233
 20
20.117541
 30
0.0
 10
7.519254
 20
20.161252
 30
0.0
 10
7.525964
 20
20.210388
 30
0.0
 10
7.525964
 20
20.210410
 30
0.0
  0
LWPOLYLINE
  5
107
100
AcDbEntity
  8
Layer_1
 62
7
100
AcDbPolyline
 90
13
 70
0
 10
4.491634
 20
19.730906
 30
0.0
 10
4.481878
 20
19.730088
 30
0.0
 10
4.463726
 20
19.723413
 30
0.0
 10
4.452964
 20
19.710162
 30
0.0
 10
4.450861
 20
19.674509
 30
0.0
 10
4.470082
 20
19.644279
 30
0.0
 10
4.485974
 20
19.637809
 30
0.0
 10
4.505139
 20
19.640626
 30
0.0
 10
4.532808
 20
19.659970
 30
0.0
 10
4.536676
 20
19.690187
 30
0.0
 10
4.521399
 20
19.718196
 30
0.0
 10
4.491634
 20
19.730915
 30
0.0
 10
4.491634
 20
19.730906
 30
0.0
  0
LWPOLYLINE
  5
108
100
AcDbEntity
  8
Layer_1
 62
7
100
AcDbPolyline
 90
12
 70
0
 10
7.036153
 20
19.640507
 30
0.0
 10
7.017850
 20
19.638103
 30
0.0
 10
7.004723
 20
19.628977
 30
0.0
 10
6.993528
 20
19.598455
 30
0.0
 10
7.001634
 20
19.564719
 30
0.0
 10
7.028107
 20
19.543550
 30
0.0
 10
7.060371
 20
19.547458
 30
0.0
 10
7.079918
 20
19.571637
 30
0.0
 10
7.082806
 20
19.603684
 30
0.0
 10
7.065092
 20
19.631191
 30
0.0
 10
7.036153
 20
19.640507
 30
0.0
 10
7.036153
 20
19.640507
 30
0.0
  0
LWPOLYLINE
  5
109
100
AcDbEntity
  8
Layer_1
 62
7
100
AcDbPolyline
 90
11
 70
0
 10
6.444480
 20
19.406684
 30
0.0
 10
6.441996
 20
19.400122
 30
0.0
 10
6.441290
 20
19.398372
 30
0.0
 10
6.412774
 20
19.334337
 30
0.0
 10
6.408380
 20
19.301477
 30
0.0
 10
6.425252
 20
19.272309
 30
0.0
 10
6.553170
 20
19.228728
 30
0.0
 10
6.619637
 20
19.222381
 30
0.0
 10
6.685257
 20
19.237695
 30
0.0
 10
6.444488
 20
19.406698
 30
0.0
 10
6.444480
 20
19.406684
 30
0.0
  0
LWPOLYLINE
  5
10a
100
AcDbEntity
  8
Layer_1
 62
7
100
AcDbPolyline
 90
16
 70
0
 10
5.152209
 20
19.362143
 30
0.0
 10
5.152548
 20
19.355144
 30
0.0
 10
5.152830
 20
19.349963
 30
0.0
 10
5.156848
 20
19.322532
 30
0.0
 10
5.151031
 20
19.295899
 30
0.0
 10
5.143605
 20
19.269316
 30
0.0
 10
5.142797
 20
19.242035
 30
0.0
 10
5.159989
 20
19.222106
 30
0.0
 10
5.184987
 20
19.210700
 30
0.0
 10
5.239041
 20
19.194464
 30
0.0
 10
5.367319
 20
19.165484
 30
0.0
 10
5.498442
 20
19.157919
 30
0.0
 10
5.419331
 20
19.220482
 30
0.0
 10
5.332720
 20
19.271738
 30
0.0
 10
5.152223
 20
19.362143
 30
0.0
 10
5.152209
 20
19.362143
 30
0.0
  0
LWPOLYLINE
  5
10b
100
AcDbEntity
  8
Layer_1
 62
7
100
AcDbPolyline
 90
14
 70
0
 10
6.881097
 20
19.359660
 30
0.0
 10
6.866546
 20
19.349243
 30
0.0
 10
6.790891
 20
19.291256
 30
0.0
 10
6.731949
 20
19.216838
 30
0.0
 10
6.690515
 20
19.130984
 30
0.0
 10
6.667390
 20
19.038688
 30
0.0
 10
6.682920
 20
19.012683
 30
0.0
 10
6.712287
 20
19.005960
 30
0.0
 10
6.740813
 20
19.017035
 30
0.0
 10
6.753820
 20
19.044420
 30
0.0
 10
6.830020
 20
19.197366
 30
0.0
 10
6.861179
 20
19.276630
 30
0.0
 10
6.881097
 20
19.359660
 30
0.0
 10
6.881097
 20
19.359660
 30
0.0
  0
LWPOLYLINE
  5
10c
100
AcDbEntity
  8
Layer_1
 62
7
100
AcDbPolyline
 90
15
 70
0
 10
8.203407
 20
19.227314
 30
0.0
 10
8.199329
 20
19.226778
 30
0.0
 10
8.127225
 20
19.193341
 30
0.0
 10
8.062209
 20
19.146935
 30
0.0
 10
8.007889
 20
19.088858
 30
0.0
 10
7.967873
 20
19.020403
 30
0.0
 10
7.973548
 20
18.990051
 30
0.0
 10
7.996573
 20
18.970881
 30
0.0
 10
8.025436
 20
18.968699
 30
0.0
 10
8.048625
 20
18.989314
 30
0.0
 10
8.144156
 20
19.096533
 30
0.0
 10
8.185142
 20
19.154916
 30
0.0
 10
8.212393
 20
19.220383
 30
0.0
 10
8.203407
 20
19.227328
 30
0.0
 10
8.203407
 20
19.227314
 30
0.0
  0
LWPOLYLINE
  5
10d
100
AcDbEntity
  8
Layer_1
 62
7
100
AcDbPolyline
 90
13
 70
0
 10
12.679717
 20
19.199642
 30
0.0
 10
12.676243
 20
19.196665
 30
0.0
 10
12.654684
 20
19.172121
 30
0.0
 10
12.654379
 20
19.141542
 30
0.0
 10
12.668838
 20
19.111390
 30
0.0
 10
12.691567
 20
19.088131
 30
0.0
 10
12.789845
 20
18.977729
 30
0.0
 10
12.904061
 20
18.884237
 30
0.0
 10
12.875957
 20
18.980567
 30
0.0
 10
12.829614
 20
19.070266
 30
0.0
 10
12.764408
 20
19.145801
 30
0.0
 10
12.679717
 20
19.199642
 30
0.0
 10
12.679717
 20
19.199642
 30
0.0
  0
LWPOLYLINE
  5
10e
100
AcDbEntity
  8
Layer_1
 62
7
100
AcDbPolyline
 90
12
 70
0
 10
10.396471
 20
19.150144
 30
0.0
 10
10.336039
 20
19.137056
 30
0.0
 10
10.278243
 20
19.115374
 30
0.0
 10
10.169866
 20
19.055720
 30
0.0
 10
10.380161
 20
19.041853
 30
0.0
 10
10.590886
 20
19.047068
 30
0.0
 10
10.578989
 20
19.091853
 30
0.0
 10
10.546042
 20
19.122057
 30
0.0
 10
10.501810
 20
19.139571
 30
0.0
 10
10.456060
 20
19.146286
 30
0.0
 10
10.396471
 20
19.150144
 30
0.0
 10
10.396471
 20
19.150144
 30
0.0
  0
LWPOLYLINE
  5
10f
100
AcDbEntity
  8
Layer_1
 62
7
100
AcDbPolyline
 90
14
 70
0
 10
6.404350
 20
18.267979
 30
0.0
 10
6.384423
 20
18.264987
 30
0.0
 10
6.370603
 20
18.254044
 30
0.0
 10
6.360639
 20
18.219005
 30
0.0
 10
6.373166
 20
18.184268
 30
0.0
 10
6.387459
 20
18.173703
 30
0.0
 10
6.406890
 20
18.171242
 30
0.0
 10
6.426378
 20
18.176434
 30
0.0
 10
6.440133
 20
18.187992
 30
0.0
 10
6.450591
 20
18.221417
 30
0.0
 10
6.438564
 20
18.253938
 30
0.0
 10
6.424212
 20
18.264367
 30
0.0
 10
6.404350
 20
18.267979
 30
0.0
 10
6.404350
 20
18.267979
 30
0.0
  0
LWPOLYLINE
  5
110
100
AcDbEntity
  8
Layer_1
 62
7
100
AcDbPolyline
 90
12
 70
0
 10
6.002514
 20
18.261530
 30
0.0
 10
6.003022
 20
18.254475
 30
0.0
 10
6.003304
 20
18.250727
 30
0.0
 10
6.005094
 20
18.216632
 30
0.0
 10
6.001110
 20
18.180316
 30
0.0
 10
6.004410
 20
18.147027
 30
0.0
 10
6.028052
 20
18.122016
 30
0.0
 10
6.167083
 20
18.114188
 30
0.0
 10
6.234884
 20
18.125672
 30
0.0
 10
6.297047
 20
18.156798
 30
0.0
 10
6.002531
 20
18.261530
 30
0.0
 10
6.002514
 20
18.261530
 30
0.0
  0
LWPOLYLINE
  5
111
100
AcDbEntity
  8
Layer_1
 62
7
100
AcDbPolyline
 90
15
 70
0
 10
4.822969
 20
18.170358
 30
0.0
 10
4.824719
 20
18.163523
 30
0.0
 10
4.825876
 20
18.159168
 30
0.0
 10
4.834884
 20
18.129024
 30
0.0
 10
4.833151
 20
18.096477
 30
0.0
 10
4.833996
 20
18.065221
 30
0.0
 10
4.850737
 20
18.038950
 30
0.0
 10
4.949542
 20
18.027246
 30
0.0
 10
5.050220
 20
18.025776
 30
0.0
 10
5.126901
 20
18.032650
 30
0.0
 10
5.201971
 20
18.049807
 30
0.0
 10
5.111467
 20
18.091857
 30
0.0
 10
5.017049
 20
18.123679
 30
0.0
 10
4.822955
 20
18.170358
 30
0.0
 10
4.822969
 20
18.170358
 30
0.0
  0
LWPOLYLINE
  5
112
100
AcDbEntity
  8
Layer_1
 62
7
100
AcDbPolyline
 90
15
 70
0
 10
12.018038
 20
18.158894
 30
0.0
 10
12.006084
 20
18.146276
 30
0.0
 10
12.007634
 20
18.126869
 30
0.0
 10
12.018320
 20
18.085858
 30
0.0
 10
12.067446
 20
17.925070
 30
0.0
 10
12.103541
 20
17.849226
 30
0.0
 10
12.148958
 20
17.778388
 30
0.0
 10
12.157548
 20
17.873543
 30
0.0
 10
12.150775
 20
17.970451
 30
0.0
 10
12.120922
 20
18.060253
 30
0.0
 10
12.094928
 20
18.099721
 30
0.0
 10
12.060270
 20
18.134090
 30
0.0
 10
12.040007
 20
18.148601
 30
0.0
 10
12.018047
 20
18.158894
 30
0.0
 10
12.018038
 20
18.158894
 30
0.0
  0
LWPOLYLINE
  5
113
100
AcDbEntity
  8
Layer_1
 62
7
100
AcDbPolyline
 90
14
 70
0
 10
8.757875
 20
18.108732
 30
0.0
 10
8.733423
 20
18.099311
 30
0.0
 10
8.713776
 20
18.082925
 30
0.0
 10
8.689780
 20
18.036324
 30
0.0
 10
8.687649
 20
17.983071
 30
0.0
 10
8.709146
 20
17.937305
 30
0.0
 10
8.742697
 20
17.939419
 30
0.0
 10
8.765952
 20
17.961478
 30
0.0
 10
8.789515
 20
18.025776
 30
0.0
 10
8.798054
 20
18.050802
 30
0.0
 10
8.796144
 20
18.078126
 30
0.0
 10
8.783010
 20
18.100015
 30
0.0
 10
8.757875
 20
18.108732
 30
0.0
 10
8.757875
 20
18.108732
 30
0.0
  0
LWPOLYLINE
  5
114
100
AcDbEntity
  8
Layer_1
 62
7
100
AcDbPolyline
 90
13
 70
0
 10
9.890292
 20
18.024616
 30
0.0
 10
9.882079
 20
18.024616
 30
0.0
 10
9.865289
 20
18.018119
 30
0.0
 10
9.855599
 20
18.005555
 30
0.0
 10
9.854602
 20
17.972246
 30
0.0
 10
9.873256
 20
17.944727
 30
0.0
 10
9.888129
 20
17.939401
 30
0.0
 10
9.905726
 20
17.943037
 30
0.0
 10
9.927500
 20
17.962489
 30
0.0
 10
9.929470
 20
17.988860
 30
0.0
 10
9.915710
 20
18.012729
 30
0.0
 10
9.890292
 20
18.024672
 30
0.0
 10
9.890292
 20
18.024616
 30
0.0
  0
LWPOLYLINE
  5
115
100
AcDbEntity
  8
Layer_1
 62
7
100
AcDbPolyline
 90
14
 70
0
 10
11.142929
 20
17.159153
 30
0.0
 10
11.135874
 20
17.159153
 30
0.0
 10
11.134604
 20
17.159153
 30
0.0
 10
11.115572
 20
17.154137
 30
0.0
 10
11.103509
 20
17.141885
 30
0.0
 10
11.098305
 20
17.106353
 30
0.0
 10
11.115027
 20
17.073919
 30
0.0
 10
11.130370
 20
17.065539
 30
0.0
 10
11.149708
 20
17.065944
 30
0.0
 10
11.178400
 20
17.083213
 30
0.0
 10
11.185734
 20
17.114667
 30
0.0
 10
11.173361
 20
17.145090
 30
0.0
 10
11.142929
 20
17.159263
 30
0.0
 10
11.142929
 20
17.159153
 30
0.0
  0
LWPOLYLINE
  5
116
100
AcDbEntity
  8
Layer_1
 62
7
100
AcDbPolyline
 90
14
 70
0
 10
6.286610
 20
17.110868
 30
0.0
 10
6.270625
 20
17.110586
 30
0.0
 10
6.253103
 20
17.104412
 30
0.0
 10
6.242487
 20
17.092306
 30
0.0
 10
6.239537
 20
17.059326
 30
0.0
 10
6.256899
 20
17.029706
 30
0.0
 10
6.271673
 20
17.021801
 30
0.0
 10
6.289698
 20
17.021508
 30
0.0
 10
6.320188
 20
17.032482
 30
0.0
 10
6.334760
 20
17.060647
 30
0.0
 10
6.329942
 20
17.090795
 30
0.0
 10
6.302265
 20
17.107718
 30
0.0
 10
6.286610
 20
17.110806
 30
0.0
 10
6.286610
 20
17.110868
 30
0.0
  0
LWPOLYLINE
  5
117
100
AcDbEntity
  8
Layer_1
 62
7
100
AcDbPolyline
 90
19
 70
0
 10
9.632544
 20
17.069471
 30
0.0
 10
9.609985
 20
17.058064
 30
0.0
 10
9.597650
 20
17.036838
 30
0.0
 10
9.561332
 20
17.041573
 30
0.0
 10
9.528676
 20
17.022841
 30
0.0
 10
9.512773
 20
16.991471
 30
0.0
 10
9.515193
 20
16.974430
 30
0.0
 10
9.526710
 20
16.958290
 30
0.0
 10
9.550036
 20
16.949199
 30
0.0
 10
9.574565
 20
16.952672
 30
0.0
 10
9.614462
 20
16.981664
 30
0.0
 10
9.637502
 20
16.969466
 30
0.0
 10
9.662113
 20
16.974467
 30
0.0
 10
9.679670
 20
16.992285
 30
0.0
 10
9.681546
 20
17.018539
 30
0.0
 10
9.667125
 20
17.054794
 30
0.0
 10
9.652057
 20
17.066547
 30
0.0
 10
9.632544
 20
17.069471
 30
0.0
 10
9.632544
 20
17.069471
 30
0.0
  0
LWPOLYLINE
  5
118
100
AcDbEntity
  8
Layer_1
 62
7
100
AcDbPolyline
 90
17
 70
0
 10
9.802261
 20
17.038108
 30
0.0
 10
9.801217
 20
17.031106
 30
0.0
 10
9.800229
 20
17.024491
 30
0.0
 10
9.798245
 20
16.995605
 30
0.0
 10
9.788794
 20
16.968858
 30
0.0
 10
9.764841
 20
16.916840
 30
0.0
 10
9.774513
 20
16.885823
 30
0.0
 10
9.798166
 20
16.864235
 30
0.0
 10
9.851435
 20
16.825835
 30
0.0
 10
9.978530
 20
16.733125
 30
0.0
 10
10.112767
 20
16.651210
 30
0.0
 10
10.110309
 20
16.688646
 30
0.0
 10
10.099837
 20
16.722780
 30
0.0
 10
10.061121
 20
16.783119
 30
0.0
 10
9.956498
 20
16.885971
 30
0.0
 10
9.802266
 20
17.038108
 30
0.0
 10
9.802261
 20
17.038108
 30
0.0
  0
LWPOLYLINE
  5
119
100
AcDbEntity
  8
Layer_1
 62
7
100
AcDbPolyline
 90
12
 70
0
 10
5.899051
 20
17.034194
 30
0.0
 10
5.901478
 20
17.027578
 30
0.0
 10
5.902805
 20
17.023997
 30
0.0
 10
5.913325
 20
16.991091
 30
0.0
 10
5.919766
 20
16.954693
 30
0.0
 10
5.932858
 20
16.923636
 30
0.0
 10
5.963330
 20
16.906753
 30
0.0
 10
6.097017
 20
16.936789
 30
0.0
 10
6.157999
 20
16.965903
 30
0.0
 10
6.207684
 20
17.012861
 30
0.0
 10
5.899057
 20
17.034194
 30
0.0
 10
5.899051
 20
17.034194
 30
0.0
  0
LWPOLYLINE
  5
11a
100
AcDbEntity
  8
Layer_1
 62
7
100
AcDbPolyline
 90
18
 70
0
 10
11.000108
 20
16.991530
 30
0.0
 10
10.990902
 20
16.990486
 30
0.0
 10
10.926593
 20
16.941754
 30
0.0
 10
10.868455
 20
16.885658
 30
0.0
 10
10.756471
 20
16.769227
 30
0.0
 10
10.755099
 20
16.737678
 30
0.0
 10
10.775957
 20
16.715105
 30
0.0
 10
10.806350
 20
16.708542
 30
0.0
 10
10.833585
 20
16.725019
 30
0.0
 10
10.974708
 20
16.825834
 30
0.0
 10
11.043529
 20
16.878329
 30
0.0
 10
11.105941
 20
16.937239
 30
0.0
 10
11.100805
 20
16.954718
 30
0.0
 10
11.084960
 20
16.957268
 30
0.0
 10
11.048340
 20
16.954435
 30
0.0
 10
11.026893
 20
16.977818
 30
0.0
 10
11.000108
 20
16.991533
 30
0.0
 10
11.000108
 20
16.991530
 30
0.0
  0
LWPOLYLINE
  5
11b
100
AcDbEntity
  8
Layer_1
 62
7
100
AcDbPolyline
 90
15
 70
0
 10
4.781132
 20
16.939991
 30
0.0
 10
4.782289
 20
16.933045
 30
0.0
 10
4.782572
 20
16.931437
 30
0.0
 10
4.789097
 20
16.862396
 30
0.0
 10
4.799783
 20
16.831111
 30
0.0
 10
4.827439
 20
16.812429
 30
0.0
 10
4.968645
 20
16.835230
 30
0.0
 10
5.106410
 20
16.874385
 30
0.0
 10
5.146335
 20
16.895637
 30
0.0
 10
5.145997
 20
16.905031
 30
0.0
 10
5.119364
 20
16.911647
 30
0.0
 10
5.035971
 20
16.928189
 30
0.0
 10
4.951300
 20
16.934969
 30
0.0
 10
4.781138
 20
16.939979
 30
0.0
 10
4.781132
 20
16.939991
 30
0.0
  0
LWPOLYLINE
  5
11c
100
AcDbEntity
  8
Layer_1
 62
7
100
AcDbPolyline
 90
13
 70
0
 10
6.338039
 20
16.751255
 30
0.0
 10
6.319174
 20
16.747738
 30
0.0
 10
6.306558
 20
16.737309
 30
0.0
 10
6.298693
 20
16.704823
 30
0.0
 10
6.311672
 20
16.672016
 30
0.0
 10
6.325112
 20
16.661186
 30
0.0
 10
6.342724
 20
16.657108
 30
0.0
 10
6.372517
 20
16.667953
 30
0.0
 10
6.386349
 20
16.695186
 30
0.0
 10
6.382558
 20
16.726089
 30
0.0
 10
6.359483
 20
16.747947
 30
0.0
 10
6.338039
 20
16.751255
 30
0.0
 10
6.338039
 20
16.751255
 30
0.0
  0
LWPOLYLINE
  5
11d
100
AcDbEntity
  8
Layer_1
 62
7
100
AcDbPolyline
 90
13
 70
0
 10
10.395701
 20
16.433701
 30
0.0
 10
10.376793
 20
16.428477
 30
0.0
 10
10.364885
 20
16.416117
 30
0.0
 10
10.360011
 20
16.380584
 30
0.0
 10
10.376950
 20
16.348292
 30
0.0
 10
10.392310
 20
16.339985
 30
0.0
 10
10.411576
 20
16.340435
 30
0.0
 10
10.431363
 20
16.348171
 30
0.0
 10
10.443936
 20
16.360869
 30
0.0
 10
10.449426
 20
16.393466
 30
0.0
 10
10.432022
 20
16.422864
 30
0.0
 10
10.395701
 20
16.433701
 30
0.0
 10
10.395701
 20
16.433701
 30
0.0
  0
LWPOLYLINE
  5
11e
100
AcDbEntity
  8
Layer_1
 62
7
100
AcDbPolyline
 90
17
 70
0
 10
7.690999
 20
16.142823
 30
0.0
 10
7.687084
 20
16.139846
 30
0.0
 10
7.664746
 20
16.104967
 30
0.0
 10
7.664918
 20
16.064727
 30
0.0
 10
7.688636
 20
15.983466
 30
0.0
 10
7.703925
 20
15.934655
 30
0.0
 10
7.727418
 20
15.887660
 30
0.0
 10
7.760625
 20
15.848742
 30
0.0
 10
7.805053
 20
15.824166
 30
0.0
 10
7.832562
 20
15.840983
 30
0.0
 10
7.840710
 20
15.870383
 30
0.0
 10
7.834406
 20
15.903573
 30
0.0
 10
7.818557
 20
15.931763
 30
0.0
 10
7.769011
 20
16.047631
 30
0.0
 10
7.737880
 20
16.101369
 30
0.0
 10
7.691007
 20
16.142823
 30
0.0
 10
7.690999
 20
16.142823
 30
0.0
  0
LWPOLYLINE
  5
11f
100
AcDbEntity
  8
Layer_1
 62
7
100
AcDbPolyline
 90
11
 70
0
 10
0.359890
 20
16.121823
 30
0.0
 10
0.330512
 20
16.109618
 30
0.0
 10
0.320465
 20
16.081323
 30
0.0
 10
0.328519
 20
16.050498
 30
0.0
 10
0.353441
 20
16.030705
 30
0.0
 10
0.384230
 20
16.033317
 30
0.0
 10
0.404291
 20
16.055757
 30
0.0
 10
0.408340
 20
16.086053
 30
0.0
 10
0.391089
 20
16.112230
 30
0.0
 10
0.359890
 20
16.121823
 30
0.0
 10
0.359890
 20
16.121823
 30
0.0
  0
LWPOLYLINE
  5
120
100
AcDbEntity
  8
Layer_1
 62
7
100
AcDbPolyline
 90
10
 70
0
 10
13.099963
 20
16.107932
 30
0.0
 10
13.069503
 20
16.067313
 30
0.0
 10
13.047836
 20
16.020199
 30
0.0
 10
13.004656
 20
15.926251
 30
0.0
 10
12.968373
 20
15.829400
 30
0.0
 10
12.942039
 20
15.729246
 30
0.0
 10
13.028110
 20
15.804653
 30
0.0
 10
13.099963
 20
15.895769
 30
0.0
 10
13.099963
 20
16.107932
 30
0.0
 10
13.099963
 20
16.107932
 30
0.0
  0
LWPOLYLINE
  5
121
100
AcDbEntity
  8
Layer_1
 62
7
100
AcDbPolyline
 90
15
 70
0
 10
6.475293
 20
16.106380
 30
0.0
 10
6.462783
 20
16.073388
 30
0.0
 10
6.459141
 20
16.034667
 30
0.0
 10
6.459549
 20
15.977221
 30
0.0
 10
6.468813
 20
15.920120
 30
0.0
 10
6.488496
 20
15.866287
 30
0.0
 10
6.520160
 20
15.818646
 30
0.0
 10
6.552393
 20
15.817790
 30
0.0
 10
6.573403
 20
15.840664
 30
0.0
 10
6.580524
 20
15.874274
 30
0.0
 10
6.571093
 20
15.905627
 30
0.0
 10
6.537938
 20
16.015089
 30
0.0
 10
6.513454
 20
16.065728
 30
0.0
 10
6.475293
 20
16.106380
 30
0.0
 10
6.475293
 20
16.106380
 30
0.0
  0
LWPOLYLINE
  5
122
100
AcDbEntity
  8
Layer_1
 62
7
100
AcDbPolyline
 90
17
 70
0
 10
6.324315
 20
15.864670
 30
0.0
 10
6.214762
 20
15.843624
 30
0.0
 10
6.108567
 20
15.811147
 30
0.0
 10
6.137764
 20
15.807408
 30
0.0
 10
6.163749
 20
15.795721
 30
0.0
 10
6.184619
 20
15.776519
 30
0.0
 10
6.198472
 20
15.750238
 30
0.0
 10
6.224394
 20
15.731752
 30
0.0
 10
6.254473
 20
15.734672
 30
0.0
 10
6.312188
 20
15.764846
 30
0.0
 10
6.338503
 20
15.776877
 30
0.0
 10
6.361883
 20
15.796954
 30
0.0
 10
6.372874
 20
15.821952
 30
0.0
 10
6.362017
 20
15.848742
 30
0.0
 10
6.344702
 20
15.860798
 30
0.0
 10
6.324315
 20
15.864670
 30
0.0
 10
6.324315
 20
15.864670
 30
0.0
  0
LWPOLYLINE
  5
123
100
AcDbEntity
  8
Layer_1
 62
7
100
AcDbPolyline
 90
14
 70
0
 10
5.352906
 20
15.772452
 30
0.0
 10
5.334663
 20
15.772000
 30
0.0
 10
5.166064
 20
15.761610
 30
0.0
 10
5.083274
 20
15.746488
 30
0.0
 10
5.004319
 20
15.722004
 30
0.0
 10
4.999057
 20
15.682797
 30
0.0
 10
5.012348
 20
15.643839
 30
0.0
 10
5.040449
 20
15.618181
 30
0.0
 10
5.058883
 20
15.614417
 30
0.0
 10
5.079616
 20
15.618872
 30
0.0
 10
5.224043
 20
15.682667
 30
0.0
 10
5.292793
 20
15.720987
 30
0.0
 10
5.352906
 20
15.772440
 30
0.0
 10
5.352906
 20
15.772452
 30
0.0
  0
LWPOLYLINE
  5
124
100
AcDbEntity
  8
Layer_1
 62
7
100
AcDbPolyline
 90
14
 70
0
 10
2.044294
 20
15.321229
 30
0.0
 10
2.034811
 20
15.320890
 30
0.0
 10
2.016076
 20
15.316630
 30
0.0
 10
2.003619
 20
15.305446
 30
0.0
 10
1.996232
 20
15.271892
 30
0.0
 10
2.010037
 20
15.239397
 30
0.0
 10
2.024069
 20
15.229536
 30
0.0
 10
2.042420
 20
15.227128
 30
0.0
 10
2.072441
 20
15.239736
 30
0.0
 10
2.085118
 20
15.268449
 30
0.0
 10
2.079243
 20
15.299596
 30
0.0
 10
2.053610
 20
15.319510
 30
0.0
 10
2.044294
 20
15.321232
 30
0.0
 10
2.044294
 20
15.321229
 30
0.0
  0
LWPOLYLINE
  5
125
100
AcDbEntity
  8
Layer_1
 62
7
100
AcDbPolyline
 90
13
 70
0
 10
1.481887
 20
15.298519
 30
0.0
 10
1.471526
 20
15.297982
 30
0.0
 10
1.453205
 20
15.291976
 30
0.0
 10
1.441601
 20
15.279392
 30
0.0
 10
1.436766
 20
15.244480
 30
0.0
 10
1.453458
 20
15.213238
 30
0.0
 10
1.468764
 20
15.205239
 30
0.0
 10
1.488115
 20
15.205653
 30
0.0
 10
1.516935
 20
15.224042
 30
0.0
 10
1.523821
 20
15.254881
 30
0.0
 10
1.511297
 20
15.284326
 30
0.0
 10
1.481887
 20
15.298533
 30
0.0
 10
1.481887
 20
15.298519
 30
0.0
  0
LWPOLYLINE
  5
126
100
AcDbEntity
  8
Layer_1
 62
7
100
AcDbPolyline
 90
13
 70
0
 10
2.324475
 20
15.248689
 30
0.0
 10
2.313782
 20
15.248407
 30
0.0
 10
2.294516
 20
15.243256
 30
0.0
 10
2.281914
 20
15.230666
 30
0.0
 10
2.275260
 20
15.194016
 30
0.0
 10
2.290940
 20
15.160142
 30
0.0
 10
2.306256
 20
15.151023
 30
0.0
 10
2.326076
 20
15.150730
 30
0.0
 10
2.355535
 20
15.169476
 30
0.0
 10
2.364304
 20
15.201651
 30
0.0
 10
2.353556
 20
15.232840
 30
0.0
 10
2.324467
 20
15.248627
 30
0.0
 10
2.324475
 20
15.248689
 30
0.0
  0
LWPOLYLINE
  5
127
100
AcDbEntity
  8
Layer_1
 62
7
100
AcDbPolyline
 90
15
 70
0
 10
2.781489
 20
15.132603
 30
0.0
 10
2.769472
 20
15.132603
 30
0.0
 10
2.742048
 20
15.117008
 30
0.0
 10
2.734329
 20
15.087435
 30
0.0
 10
2.744068
 20
15.056758
 30
0.0
 10
2.769021
 20
15.037850
 30
0.0
 10
2.780752
 20
15.022783
 30
0.0
 10
2.796622
 20
15.015656
 30
0.0
 10
2.831820
 20
15.021016
 30
0.0
 10
2.856688
 20
15.045513
 30
0.0
 10
2.859647
 20
15.062309
 30
0.0
 10
2.853301
 20
15.080733
 30
0.0
 10
2.793162
 20
15.130286
 30
0.0
 10
2.781478
 20
15.132657
 30
0.0
 10
2.781489
 20
15.132603
 30
0.0
  0
LWPOLYLINE
  5
128
100
AcDbEntity
  8
Layer_1
 62
7
100
AcDbPolyline
 90
15
 70
0
 10
6.936991
 20
15.072631
 30
0.0
 10
6.939856
 20
15.055762
 30
0.0
 10
6.956221
 20
14.965364
 30
0.0
 10
6.995806
 20
14.883240
 30
0.0
 10
7.052629
 20
14.810772
 30
0.0
 10
7.120709
 20
14.749342
 30
0.0
 10
7.138249
 20
14.747134
 30
0.0
 10
7.152737
 20
14.752580
 30
0.0
 10
7.170822
 20
14.778715
 30
0.0
 10
7.171499
 20
14.812308
 30
0.0
 10
7.151302
 20
14.837923
 30
0.0
 10
7.053542
 20
14.964468
 30
0.0
 10
6.999756
 20
15.023182
 30
0.0
 10
6.936991
 20
15.072631
 30
0.0
 10
6.936991
 20
15.072631
 30
0.0
  0
LWPOLYLINE
  5
129
100
AcDbEntity
  8
Layer_1
 62
7
100
AcDbPolyline
 90
16
 70
0
 10
6.870900
 20
14.814936
 30
0.0
 10
6.757261
 20
14.765515
 30
0.0
 10
6.653005
 20
14.698356
 30
0.0
 10
6.706931
 20
14.698808
 30
0.0
 10
6.730398
 20
14.687078
 30
0.0
 10
6.747702
 20
14.665282
 30
0.0
 10
6.773147
 20
14.648736
 30
0.0
 10
6.801334
 20
14.653534
 30
0.0
 10
6.827552
 20
14.671565
 30
0.0
 10
6.847086
 20
14.694715
 30
0.0
 10
6.874738
 20
14.714608
 30
0.0
 10
6.897822
 20
14.742181
 30
0.0
 10
6.907623
 20
14.773624
 30
0.0
 10
6.895428
 20
14.805126
 30
0.0
 10
6.870900
 20
14.814936
 30
0.0
 10
6.870900
 20
14.814936
 30
0.0
  0
LWPOLYLINE
  5
12a
100
AcDbEntity
  8
Layer_1
 62
7
100
AcDbPolyline
 90
16
 70
0
 10
5.688268
 20
14.685952
 30
0.0
 10
5.680329
 20
14.685247
 30
0.0
 10
5.568825
 20
14.643584
 30
0.0
 10
5.516351
 20
14.617186
 30
0.0
 10
5.474891
 20
14.575996
 30
0.0
 10
5.477865
 20
14.537660
 30
0.0
 10
5.503473
 20
14.507489
 30
0.0
 10
5.539334
 20
14.496000
 30
0.0
 10
5.557238
 20
14.500548
 30
0.0
 10
5.573062
 20
14.513709
 30
0.0
 10
5.661616
 20
14.574555
 30
0.0
 10
5.702639
 20
14.607983
 30
0.0
 10
5.729168
 20
14.652726
 30
0.0
 10
5.714698
 20
14.676381
 30
0.0
 10
5.688268
 20
14.685964
 30
0.0
 10
5.688268
 20
14.685952
 30
0.0
  0
LWPOLYLINE
  5
12b
100
AcDbEntity
  8
Layer_1
 62
7
100
AcDbPolyline
 90
16
 70
0
 10
4.639248
 20
14.529793
 30
0.0
 10
4.636539
 20
14.523234
 30
0.0
 10
4.635833
 20
14.521372
 30
0.0
 10
4.618483
 20
14.467859
 30
0.0
 10
4.615706
 20
14.410561
 30
0.0
 10
4.628754
 20
14.355669
 30
0.0
 10
4.658876
 20
14.309375
 30
0.0
 10
4.696372
 20
14.310162
 30
0.0
 10
4.725609
 20
14.334782
 30
0.0
 10
4.737244
 20
14.370496
 30
0.0
 10
4.733541
 20
14.388534
 30
0.0
 10
4.721933
 20
14.404568
 30
0.0
 10
4.691145
 20
14.474703
 30
0.0
 10
4.668714
 20
14.505360
 30
0.0
 10
4.639251
 20
14.529805
 30
0.0
 10
4.639248
 20
14.529793
 30
0.0
  0
LWPOLYLINE
  5
12c
100
AcDbEntity
  8
Layer_1
 62
7
100
AcDbPolyline
 90
13
 70
0
 10
3.375366
 20
14.497547
 30
0.0
 10
3.365943
 20
14.497208
 30
0.0
 10
3.348179
 20
14.491698
 30
0.0
 10
3.337079
 20
14.479602
 30
0.0
 10
3.332908
 20
14.445732
 30
0.0
 10
3.349499
 20
14.415758
 30
0.0
 10
3.364351
 20
14.408532
 30
0.0
 10
3.382919
 20
14.409840
 30
0.0
 10
3.408622
 20
14.428079
 30
0.0
 10
3.414320
 20
14.456928
 30
0.0
 10
3.402428
 20
14.484158
 30
0.0
 10
3.375366
 20
14.497538
 30
0.0
 10
3.375366
 20
14.497547
 30
0.0
  0
LWPOLYLINE
  5
12d
100
AcDbEntity
  8
Layer_1
 62
7
100
AcDbPolyline
 90
15
 70
0
 10
10.419735
 20
14.352798
 30
0.0
 10
10.303702
 20
14.352459
 30
0.0
 10
10.235906
 20
14.341196
 30
0.0
 10
10.175875
 20
14.308308
 30
0.0
 10
10.283088
 20
14.268360
 30
0.0
 10
10.397340
 20
14.248833
 30
0.0
 10
10.454503
 20
14.249639
 30
0.0
 10
10.510303
 20
14.259044
 30
0.0
 10
10.563699
 20
14.278212
 30
0.0
 10
10.613650
 20
14.308308
 30
0.0
 10
10.608582
 20
14.333784
 30
0.0
 10
10.588213
 20
14.345654
 30
0.0
 10
10.535598
 20
14.347994
 30
0.0
 10
10.419735
 20
14.352789
 30
0.0
 10
10.419735
 20
14.352798
 30
0.0
  0
LWPOLYLINE
  5
12e
100
AcDbEntity
  8
Layer_1
 62
7
100
AcDbPolyline
 90
13
 70
0
 10
2.299451
 20
14.245367
 30
0.0
 10
2.280448
 20
14.236074
 30
0.0
 10
2.269614
 20
14.218073
 30
0.0
 10
2.268462
 20
14.196341
 30
0.0
 10
2.278504
 20
14.175858
 30
0.0
 10
2.300713
 20
14.157022
 30
0.0
 10
2.327953
 20
14.159745
 30
0.0
 10
2.349210
 20
14.178353
 30
0.0
 10
2.353471
 20
14.207168
 30
0.0
 10
2.340210
 20
14.233518
 30
0.0
 10
2.313395
 20
14.244870
 30
0.0
 10
2.299451
 20
14.245378
 30
0.0
 10
2.299451
 20
14.245367
 30
0.0
  0
LWPOLYLINE
  5
12f
100
AcDbEntity
  8
Layer_1
 62
7
100
AcDbPolyline
 90
13
 70
0
 10
3.565206
 20
13.966562
 30
0.0
 10
3.547207
 20
13.961765
 30
0.0
 10
3.534913
 20
13.950239
 30
0.0
 10
3.526793
 20
13.916442
 30
0.0
 10
3.539561
 20
13.884058
 30
0.0
 10
3.553376
 20
13.874297
 30
0.0
 10
3.571931
 20
13.871973
 30
0.0
 10
3.601794
 20
13.882161
 30
0.0
 10
3.615859
 20
13.908960
 30
0.0
 10
3.612369
 20
13.939686
 30
0.0
 10
3.589570
 20
13.961654
 30
0.0
 10
3.565206
 20
13.966562
 30
0.0
 10
3.565206
 20
13.966562
 30
0.0
  0
LWPOLYLINE
  5
130
100
AcDbEntity
  8
Layer_1
 62
7
100
AcDbPolyline
 90
16
 70
0
 10
6.447951
 20
13.755336
 30
0.0
 10
6.432573
 20
13.749934
 30
0.0
 10
6.346787
 20
13.716130
 30
0.0
 10
6.267965
 20
13.668920
 30
0.0
 10
6.120364
 20
13.558167
 30
0.0
 10
6.125172
 20
13.539810
 30
0.0
 10
6.140857
 20
13.534519
 30
0.0
 10
6.177139
 20
13.530055
 30
0.0
 10
6.196683
 20
13.502888
 30
0.0
 10
6.228387
 20
13.495522
 30
0.0
 10
6.260650
 20
13.505861
 30
0.0
 10
6.281872
 20
13.531805
 30
0.0
 10
6.375318
 20
13.636392
 30
0.0
 10
6.416650
 20
13.692637
 30
0.0
 10
6.447951
 20
13.755322
 30
0.0
 10
6.447951
 20
13.755336
 30
0.0
  0
LWPOLYLINE
  5
131
100
AcDbEntity
  8
Layer_1
 62
7
100
AcDbPolyline
 90
15
 70
0
 10
8.733731
 20
13.413305
 30
0.0
 10
8.721110
 20
13.400354
 30
0.0
 10
8.658366
 20
13.332553
 30
0.0
 10
8.605660
 20
13.256916
 30
0.0
 10
8.562378
 20
13.175317
 30
0.0
 10
8.527906
 20
13.089633
 30
0.0
 10
8.575088
 20
13.128523
 30
0.0
 10
8.601197
 20
13.139868
 30
0.0
 10
8.628614
 20
13.130699
 30
0.0
 10
8.662214
 20
13.132795
 30
0.0
 10
8.684719
 20
13.155412
 30
0.0
 10
8.706556
 20
13.220601
 30
0.0
 10
8.727610
 20
13.315845
 30
0.0
 10
8.733731
 20
13.413305
 30
0.0
 10
8.733731
 20
13.413305
 30
0.0
  0
LWPOLYLINE
  5
132
100
AcDbEntity
  8
Layer_1
 62
7
100
AcDbPolyline
 90
15
 70
0
 10
12.128226
 20
13.327261
 30
0.0
 10
12.101390
 20
13.305365
 30
0.0
 10
12.094857
 20
13.272692
 30
0.0
 10
12.112625
 20
13.204009
 30
0.0
 10
12.121270
 20
13.165943
 30
0.0
 10
12.150456
 20
13.140319
 30
0.0
 10
12.187901
 20
13.134207
 30
0.0
 10
12.221326
 20
13.154677
 30
0.0
 10
12.235456
 20
13.183255
 30
0.0
 10
12.231610
 20
13.213317
 30
0.0
 10
12.198175
 20
13.267069
 30
0.0
 10
12.172295
 20
13.309693
 30
0.0
 10
12.152982
 20
13.323951
 30
0.0
 10
12.128226
 20
13.327261
 30
0.0
 10
12.128226
 20
13.327261
 30
0.0
  0
LWPOLYLINE
  5
133
100
AcDbEntity
  8
Layer_1
 62
7
100
AcDbPolyline
 90
15
 70
0
 10
9.685514
 20
13.259463
 30
0.0
 10
9.659677
 20
13.246374
 30
0.0
 10
9.651237
 20
13.219788
 30
0.0
 10
9.660443
 20
13.193774
 30
0.0
 10
9.687546
 20
13.182402
 30
0.0
 10
9.810042
 20
13.142435
 30
0.0
 10
9.873314
 20
13.136528
 30
0.0
 10
9.935374
 20
13.150929
 30
0.0
 10
9.946895
 20
13.179678
 30
0.0
 10
9.935063
 20
13.206632
 30
0.0
 10
9.909068
 20
13.224903
 30
0.0
 10
9.878100
 20
13.227603
 30
0.0
 10
9.685562
 20
13.259463
 30
0.0
 10
9.685562
 20
13.259463
 30
0.0
 10
9.685514
 20
13.259463
 30
0.0
  0
LWPOLYLINE
  5
134
100
AcDbEntity
  8
Layer_1
 62
7
100
AcDbPolyline
 90
14
 70
0
 10
11.245675
 20
13.257431
 30
0.0
 10
11.226052
 20
13.256923
 30
0.0
 10
11.043984
 20
13.245251
 30
0.0
 10
10.954385
 20
13.228335
 30
0.0
 10
10.867209
 20
13.203233
 30
0.0
 10
10.855766
 20
13.173279
 30
0.0
 10
10.870096
 20
13.145526
 30
0.0
 10
10.898982
 20
13.129333
 30
0.0
 10
10.931206
 20
13.134058
 30
0.0
 10
11.016839
 20
13.144281
 30
0.0
 10
11.100188
 20
13.167107
 30
0.0
 10
11.177663
 20
13.204248
 30
0.0
 10
11.245675
 20
13.257420
 30
0.0
 10
11.245675
 20
13.257431
 30
0.0
  0
LWPOLYLINE
  5
135
100
AcDbEntity
  8
Layer_1
 62
7
100
AcDbPolyline
 90
19
 70
0
 10
1.052271
 20
13.242823
 30
0.0
 10
1.038027
 20
13.238194
 30
0.0
 10
1.027938
 20
13.226698
 30
0.0
 10
1.016277
 20
13.206608
 30
0.0
 10
0.990100
 20
13.214692
 30
0.0
 10
0.965557
 20
13.206102
 30
0.0
 10
0.949851
 20
13.185638
 30
0.0
 10
0.950186
 20
13.158103
 30
0.0
 10
0.965360
 20
13.131924
 30
0.0
 10
0.993207
 20
13.124329
 30
0.0
 10
1.020559
 20
13.134434
 30
0.0
 10
1.034246
 20
13.161354
 30
0.0
 10
1.062093
 20
13.148645
 30
0.0
 10
1.089730
 20
13.160244
 30
0.0
 10
1.105528
 20
13.186233
 30
0.0
 10
1.097856
 20
13.216695
 30
0.0
 10
1.078811
 20
13.236672
 30
0.0
 10
1.052271
 20
13.242823
 30
0.0
 10
1.052271
 20
13.242823
 30
0.0
  0
LWPOLYLINE
  5
136
100
AcDbEntity
  8
Layer_1
 62
7
100
AcDbPolyline
 90
18
 70
0
 10
1.222321
 20
13.217909
 30
0.0
 10
1.221446
 20
13.210963
 30
0.0
 10
1.220628
 20
13.204678
 30
0.0
 10
1.219772
 20
13.176084
 30
0.0
 10
1.210759
 20
13.149644
 30
0.0
 10
1.188384
 20
13.097524
 30
0.0
 10
1.199786
 20
13.066461
 30
0.0
 10
1.224947
 20
13.045349
 30
0.0
 10
1.281594
 20
13.007509
 30
0.0
 10
1.400432
 20
12.926619
 30
0.0
 10
1.524570
 20
12.858626
 30
0.0
 10
1.540009
 20
12.878866
 30
0.0
 10
1.536941
 20
12.904212
 30
0.0
 10
1.509796
 20
12.951671
 30
0.0
 10
1.412327
 20
13.046916
 30
0.0
 10
1.311360
 20
13.138810
 30
0.0
 10
1.222338
 20
13.217909
 30
0.0
 10
1.222321
 20
13.217909
 30
0.0
  0
LWPOLYLINE
  5
137
100
AcDbEntity
  8
Layer_1
 62
7
100
AcDbPolyline
 90
21
 70
0
 10
2.413827
 20
13.211020
 30
0.0
 10
2.371468
 20
13.183450
 30
0.0
 10
2.333205
 20
13.148769
 30
0.0
 10
2.262849
 20
13.072386
 30
0.0
 10
2.220939
 20
13.024573
 30
0.0
 10
2.201856
 20
12.999743
 30
0.0
 10
2.191964
 20
12.971241
 30
0.0
 10
2.206090
 20
12.945385
 30
0.0
 10
2.232533
 20
12.935053
 30
0.0
 10
2.261800
 20
12.939811
 30
0.0
 10
2.284403
 20
12.959224
 30
0.0
 10
2.417323
 20
13.063044
 30
0.0
 10
2.482460
 20
13.116451
 30
0.0
 10
2.542317
 20
13.175299
 30
0.0
 10
2.530699
 20
13.187449
 30
0.0
 10
2.510700
 20
13.184114
 30
0.0
 10
2.488044
 20
13.177171
 30
0.0
 10
2.468454
 20
13.178496
 30
0.0
 10
2.443183
 20
13.199081
 30
0.0
 10
2.413827
 20
13.211020
 30
0.0
 10
2.413827
 20
13.211020
 30
0.0
  0
LWPOLYLINE
  5
138
100
AcDbEntity
  8
Layer_1
 62
7
100
AcDbPolyline
 90
15
 70
0
 10
9.808436
 20
13.105406
 30
0.0
 10
9.803474
 20
13.087324
 30
0.0
 10
9.753595
 20
12.912765
 30
0.0
 10
9.734257
 20
12.824518
 30
0.0
 10
9.730438
 20
12.733886
 30
0.0
 10
9.764100
 20
12.791293
 30
0.0
 10
9.787970
 20
12.810971
 30
0.0
 10
9.820123
 20
12.810947
 30
0.0
 10
9.848952
 20
12.827992
 30
0.0
 10
9.860372
 20
12.857871
 30
0.0
 10
9.860582
 20
12.926150
 30
0.0
 10
9.859658
 20
12.973424
 30
0.0
 10
9.847581
 20
13.018930
 30
0.0
 10
9.808436
 20
13.105406
 30
0.0
 10
9.808436
 20
13.105406
 30
0.0
  0
LWPOLYLINE
  5
139
100
AcDbEntity
  8
Layer_1
 62
7
100
AcDbPolyline
 90
12
 70
0
 10
10.953860
 20
13.087878
 30
0.0
 10
10.953860
 20
13.073160
 30
0.0
 10
10.953465
 20
12.785589
 30
0.0
 10
10.986973
 20
12.797727
 30
0.0
 10
11.024940
 20
12.803545
 30
0.0
 10
11.057527
 20
12.815764
 30
0.0
 10
11.074897
 20
12.847105
 30
0.0
 10
11.060193
 20
12.914599
 30
0.0
 10
11.038067
 20
12.980706
 30
0.0
 10
11.004093
 20
13.040206
 30
0.0
 10
10.953849
 20
13.087878
 30
0.0
 10
10.953860
 20
13.087878
 30
0.0
  0
LWPOLYLINE
  5
13a
100
AcDbEntity
  8
Layer_1
 62
7
100
AcDbPolyline
 90
13
 70
0
 10
1.849272
 20
12.520512
 30
0.0
 10
1.830620
 20
12.515660
 30
0.0
 10
1.818670
 20
12.503744
 30
0.0
 10
1.813086
 20
12.468976
 30
0.0
 10
1.828944
 20
12.436714
 30
0.0
 10
1.843796
 20
12.427932
 30
0.0
 10
1.862667
 20
12.427466
 30
0.0
 10
1.881256
 20
12.434194
 30
0.0
 10
1.893079
 20
12.446219
 30
0.0
 10
1.898379
 20
12.478369
 30
0.0
 10
1.882474
 20
12.508328
 30
0.0
 10
1.849272
 20
12.520512
 30
0.0
 10
1.849272
 20
12.520512
 30
0.0
  0
LWPOLYLINE
  5
13b
100
AcDbEntity
  8
Layer_1
 62
7
100
AcDbPolyline
 90
15
 70
0
 10
8.993959
 20
12.228090
 30
0.0
 10
8.995512
 20
12.221201
 30
0.0
 10
8.996499
 20
12.217067
 30
0.0
 10
9.004030
 20
12.186739
 30
0.0
 10
9.001324
 20
12.154118
 30
0.0
 10
9.001760
 20
12.122943
 30
0.0
 10
9.018713
 20
12.096956
 30
0.0
 10
9.134331
 20
12.082068
 30
0.0
 10
9.251820
 20
12.079097
 30
0.0
 10
9.317006
 20
12.085445
 30
0.0
 10
9.380971
 20
12.099657
 30
0.0
 10
9.288770
 20
12.144029
 30
0.0
 10
9.192392
 20
12.177908
 30
0.0
 10
8.993962
 20
12.228090
 30
0.0
 10
8.993959
 20
12.228090
 30
0.0
  0
LWPOLYLINE
  5
13c
100
AcDbEntity
  8
Layer_1
 62
7
100
AcDbPolyline
 90
14
 70
0
 10
9.546223
 20
12.115368
 30
0.0
 10
9.546223
 20
12.115368
 30
0.0
 10
9.536190
 20
12.114860
 30
0.0
 10
9.518091
 20
12.109568
 30
0.0
 10
9.506641
 20
12.097343
 30
0.0
 10
9.501873
 20
12.062571
 30
0.0
 10
9.518247
 20
12.031495
 30
0.0
 10
9.533224
 20
12.023890
 30
0.0
 10
9.552122
 20
12.025065
 30
0.0
 10
9.580032
 20
12.042896
 30
0.0
 10
9.586768
 20
12.072909
 30
0.0
 10
9.574705
 20
12.101587
 30
0.0
 10
9.546223
 20
12.115410
 30
0.0
 10
9.546223
 20
12.115368
 30
0.0
  0
LWPOLYLINE
  5
13d
100
AcDbEntity
  8
Layer_1
 62
7
100
AcDbPolyline
 90
14
 70
0
 10
0.284263
 20
12.098006
 30
0.0
 10
0.247387
 20
12.082610
 30
0.0
 10
0.225093
 20
12.047783
 30
0.0
 10
0.224598
 20
12.008976
 30
0.0
 10
0.234781
 20
11.992910
 30
0.0
 10
0.253119
 20
11.981643
 30
0.0
 10
0.275183
 20
11.980303
 30
0.0
 10
0.295043
 20
11.988474
 30
0.0
 10
0.323225
 20
12.023299
 30
0.0
 10
0.327805
 20
12.066028
 30
0.0
 10
0.318163
 20
12.084079
 30
0.0
 10
0.298924
 20
12.096572
 30
0.0
 10
0.284263
 20
12.098011
 30
0.0
 10
0.284263
 20
12.098006
 30
0.0
  0
LWPOLYLINE
  5
13e
100
AcDbEntity
  8
Layer_1
 62
7
100
AcDbPolyline
 90
16
 70
0
 10
10.173121
 20
12.040458
 30
0.0
 10
10.158072
 20
12.038849
 30
0.0
 10
10.047221
 20
12.039131
 30
0.0
 10
9.949350
 20
12.029618
 30
0.0
 10
9.853030
 20
12.009696
 30
0.0
 10
9.965220
 20
11.965523
 30
0.0
 10
10.081437
 20
11.933630
 30
0.0
 10
10.200419
 20
11.914579
 30
0.0
 10
10.320901
 20
11.908934
 30
0.0
 10
10.269538
 20
11.938950
 30
0.0
 10
10.250643
 20
11.957849
 30
0.0
 10
10.252165
 20
11.984835
 30
0.0
 10
10.247756
 20
12.012786
 30
0.0
 10
10.229002
 20
12.030217
 30
0.0
 10
10.173121
 20
12.040452
 30
0.0
 10
10.173121
 20
12.040458
 30
0.0
  0
LWPOLYLINE
  5
13f
100
AcDbEntity
  8
Layer_1
 62
7
100
AcDbPolyline
 90
14
 70
0
 10
0.182234
 20
11.940907
 30
0.0
 10
0.169443
 20
11.940399
 30
0.0
 10
0.147134
 20
11.933476
 30
0.0
 10
0.132978
 20
11.918097
 30
0.0
 10
0.126918
 20
11.874689
 30
0.0
 10
0.146847
 20
11.835610
 30
0.0
 10
0.165179
 20
11.825644
 30
0.0
 10
0.188352
 20
11.826299
 30
0.0
 10
0.221256
 20
11.850731
 30
0.0
 10
0.230481
 20
11.888450
 30
0.0
 10
0.217111
 20
11.923742
 30
0.0
 10
0.202293
 20
11.935568
 30
0.0
 10
0.182234
 20
11.940895
 30
0.0
 10
0.182234
 20
11.940907
 30
0.0
  0
LWPOLYLINE
  5
140
100
AcDbEntity
  8
Layer_1
 62
7
100
AcDbPolyline
 90
17
 70
0
 10
8.217188
 20
11.580083
 30
0.0
 10
8.211233
 20
11.576225
 30
0.0
 10
8.205778
 20
11.572641
 30
0.0
 10
8.184682
 20
11.556228
 30
0.0
 10
8.160009
 20
11.550017
 30
0.0
 10
8.107827
 20
11.542821
 30
0.0
 10
8.087999
 20
11.514010
 30
0.0
 10
8.086207
 20
11.478864
 30
0.0
 10
8.091952
 20
11.406285
 30
0.0
 10
8.103183
 20
11.226877
 30
0.0
 10
8.127890
 20
11.048932
 30
0.0
 10
8.155375
 20
11.076324
 30
0.0
 10
8.174860
 20
11.107699
 30
0.0
 10
8.195623
 20
11.178878
 30
0.0
 10
8.204894
 20
11.330271
 30
0.0
 10
8.217188
 20
11.580083
 30
0.0
 10
8.217188
 20
11.580083
 30
0.0
  0
LWPOLYLINE
  5
141
100
AcDbEntity
  8
Layer_1
 62
7
100
AcDbPolyline
 90
13
 70
0
 10
2.465090
 20
11.530914
 30
0.0
 10
2.444036
 20
11.521484
 30
0.0
 10
2.432203
 20
11.504934
 30
0.0
 10
2.432192
 20
11.462168
 30
0.0
 10
2.457036
 20
11.425993
 30
0.0
 10
2.476272
 20
11.417684
 30
0.0
 10
2.498714
 20
11.419789
 30
0.0
 10
2.516309
 20
11.431302
 30
0.0
 10
2.525797
 20
11.447305
 30
0.0
 10
2.524212
 20
11.485160
 30
0.0
 10
2.501471
 20
11.518111
 30
0.0
 10
2.465090
 20
11.530914
 30
0.0
 10
2.465090
 20
11.530914
 30
0.0
  0
LWPOLYLINE
  5
142
100
AcDbEntity
  8
Layer_1
 62
7
100
AcDbPolyline
 90
18
 70
0
 10
9.459076
 20
11.516089
 30
0.0
 10
9.442097
 20
11.497403
 30
0.0
 10
9.411095
 20
11.462643
 30
0.0
 10
9.392269
 20
11.454559
 30
0.0
 10
9.371101
 20
11.464716
 30
0.0
 10
9.342740
 20
11.468532
 30
0.0
 10
9.320290
 20
11.453633
 30
0.0
 10
9.306999
 20
11.427877
 30
0.0
 10
9.306114
 20
11.399122
 30
0.0
 10
9.293115
 20
11.221222
 30
0.0
 10
9.287880
 20
11.132266
 30
0.0
 10
9.291836
 20
11.043257
 30
0.0
 10
9.326502
 20
11.034793
 30
0.0
 10
9.355995
 20
11.051245
 30
0.0
 10
9.375554
 20
11.082278
 30
0.0
 10
9.380418
 20
11.117560
 30
0.0
 10
9.459076
 20
11.516089
 30
0.0
 10
9.459076
 20
11.516089
 30
0.0
  0
LWPOLYLINE
  5
143
100
AcDbEntity
  8
Layer_1
 62
7
100
AcDbPolyline
 90
17
 70
0
 10
6.986324
 20
11.489961
 30
0.0
 10
6.980151
 20
11.486543
 30
0.0
 10
6.977007
 20
11.484793
 30
0.0
 10
6.950308
 20
11.469313
 30
0.0
 10
6.918731
 20
11.464228
 30
0.0
 10
6.888800
 20
11.457134
 30
0.0
 10
6.867040
 20
11.435624
 30
0.0
 10
6.879165
 20
11.332326
 30
0.0
 10
6.899783
 20
11.229086
 30
0.0
 10
6.921144
 20
11.127932
 30
0.0
 10
6.947354
 20
11.030537
 30
0.0
 10
6.983353
 20
11.030702
 30
0.0
 10
7.008418
 20
11.054087
 30
0.0
 10
7.019970
 20
11.089344
 30
0.0
 10
7.015429
 20
11.125126
 30
0.0
 10
6.986324
 20
11.489975
 30
0.0
 10
6.986324
 20
11.489961
 30
0.0
  0
LWPOLYLINE
  5
144
100
AcDbEntity
  8
Layer_1
 62
7
100
AcDbPolyline
 90
19
 70
0
 10
10.667063
 20
11.265947
 30
0.0
 10
10.649204
 20
11.249411
 30
0.0
 10
10.616421
 20
11.217406
 30
0.0
 10
10.597760
 20
11.208373
 30
0.0
 10
10.576664
 20
11.216061
 30
0.0
 10
10.544495
 20
11.220149
 30
0.0
 10
10.519985
 20
11.201669
 30
0.0
 10
10.504012
 20
11.171244
 30
0.0
 10
10.497456
 20
11.139497
 30
0.0
 10
10.459448
 20
10.944495
 30
0.0
 10
10.441939
 20
10.846547
 30
0.0
 10
10.434670
 20
10.747310
 30
0.0
 10
10.467878
 20
10.766626
 30
0.0
 10
10.494478
 20
10.791755
 30
0.0
 10
10.532529
 20
10.854618
 30
0.0
 10
10.580799
 20
10.996955
 30
0.0
 10
10.627581
 20
11.130287
 30
0.0
 10
10.667063
 20
11.265947
 30
0.0
 10
10.667063
 20
11.265947
 30
0.0
  0
LWPOLYLINE
  5
145
100
AcDbEntity
  8
Layer_1
 62
7
100
AcDbPolyline
 90
14
 70
0
 10
5.780430
 20
11.238165
 30
0.0
 10
5.773761
 20
11.235851
 30
0.0
 10
5.773112
 20
11.235568
 30
0.0
 10
5.705704
 20
11.218411
 30
0.0
 10
5.676711
 20
11.203661
 30
0.0
 10
5.663144
 20
11.172842
 30
0.0
 10
5.725778
 20
10.981655
 30
0.0
 10
5.796816
 20
10.793769
 30
0.0
 10
5.821807
 20
10.782632
 30
0.0
 10
5.846117
 20
10.793618
 30
0.0
 10
5.862865
 20
10.817620
 30
0.0
 10
5.865165
 20
10.845529
 30
0.0
 10
5.780445
 20
11.238106
 30
0.0
 10
5.780430
 20
11.238165
 30
0.0
  0
LWPOLYLINE
  5
146
100
AcDbEntity
  8
Layer_1
 62
7
100
AcDbPolyline
 90
17
 70
0
 10
3.678095
 20
11.196769
 30
0.0
 10
3.588912
 20
11.146057
 30
0.0
 10
3.503773
 20
11.088910
 30
0.0
 10
3.336781
 20
10.969503
 30
0.0
 10
3.348462
 20
10.935870
 30
0.0
 10
3.378127
 20
10.919404
 30
0.0
 10
3.414281
 20
10.919830
 30
0.0
 10
3.445428
 20
10.936873
 30
0.0
 10
3.635255
 20
11.033279
 30
0.0
 10
3.728087
 20
11.084859
 30
0.0
 10
3.813584
 20
11.147986
 30
0.0
 10
3.756403
 20
11.140314
 30
0.0
 10
3.731648
 20
11.147772
 30
0.0
 10
3.720759
 20
11.173178
 30
0.0
 10
3.702918
 20
11.191908
 30
0.0
 10
3.678095
 20
11.196769
 30
0.0
 10
3.678095
 20
11.196769
 30
0.0
  0
LWPOLYLINE
  5
147
100
AcDbEntity
  8
Layer_1
 62
7
100
AcDbPolyline
 90
6
 70
0
 10
13.099963
 20
11.053620
 30
0.0
 10
13.046109
 20
10.939737
 30
0.0
 10
13.069772
 20
10.917833
 30
0.0
 10
13.099963
 20
10.915540
 30
0.0
 10
13.099963
 20
11.053620
 30
0.0
 10
13.099963
 20
11.053620
 30
0.0
  0
LWPOLYLINE
  5
148
100
AcDbEntity
  8
Layer_1
 62
7
100
AcDbPolyline
 90
14
 70
0
 10
11.699215
 20
10.880869
 30
0.0
 10
11.693703
 20
10.864994
 30
0.0
 10
11.618669
 20
10.651456
 30
0.0
 10
11.550718
 20
10.437416
 30
0.0
 10
11.576742
 20
10.416215
 30
0.0
 10
11.608945
 20
10.418691
 30
0.0
 10
11.637377
 20
10.438329
 30
0.0
 10
11.652086
 20
10.468615
 30
0.0
 10
11.816348
 20
10.794438
 30
0.0
 10
11.775913
 20
10.793800
 30
0.0
 10
11.742628
 20
10.813338
 30
0.0
 10
11.716920
 20
10.845034
 30
0.0
 10
11.699215
 20
10.880869
 30
0.0
 10
11.699215
 20
10.880869
 30
0.0
  0
LWPOLYLINE
  5
149
100
AcDbEntity
  8
Layer_1
 62
7
100
AcDbPolyline
 90
9
 70
0
 10
13.086292
 20
10.862126
 30
0.0
 10
13.057963
 20
10.852775
 30
0.0
 10
13.046135
 20
10.827811
 30
0.0
 10
13.050417
 20
10.798591
 30
0.0
 10
13.070417
 20
10.776469
 30
0.0
 10
13.099963
 20
10.771508
 30
0.0
 10
13.099963
 20
10.859702
 30
0.0
 10
13.086292
 20
10.862129
 30
0.0
 10
13.086292
 20
10.862126
 30
0.0
  0
LWPOLYLINE
  5
14a
100
AcDbEntity
  8
Layer_1
 62
7
100
AcDbPolyline
 90
14
 70
0
 10
4.615547
 20
10.847575
 30
0.0
 10
4.609262
 20
10.844267
 30
0.0
 10
4.608274
 20
10.843703
 30
0.0
 10
4.576486
 20
10.826276
 30
0.0
 10
4.541428
 20
10.819690
 30
0.0
 10
4.469864
 20
10.829758
 30
0.0
 10
4.576032
 20
10.619858
 30
0.0
 10
4.687816
 20
10.413037
 30
0.0
 10
4.722533
 20
10.416669
 30
0.0
 10
4.742963
 20
10.442711
 30
0.0
 10
4.747532
 20
10.478404
 30
0.0
 10
4.734667
 20
10.510988
 30
0.0
 10
4.615550
 20
10.847561
 30
0.0
 10
4.615547
 20
10.847575
 30
0.0
  0
LWPOLYLINE
  5
14b
100
AcDbEntity
  8
Layer_1
 62
7
100
AcDbPolyline
 90
15
 70
0
 10
11.315734
 20
10.448936
 30
0.0
 10
11.307355
 20
10.448597
 30
0.0
 10
11.289202
 20
10.443317
 30
0.0
 10
11.278152
 20
10.431647
 30
0.0
 10
11.274767
 20
10.398508
 30
0.0
 10
11.292002
 20
10.367923
 30
0.0
 10
11.306729
 20
10.359447
 30
0.0
 10
11.324663
 20
10.358639
 30
0.0
 10
11.352000
 20
10.374162
 30
0.0
 10
11.360661
 20
10.402840
 30
0.0
 10
11.351168
 20
10.431700
 30
0.0
 10
11.324042
 20
10.447771
 30
0.0
 10
11.315720
 20
10.448871
 30
0.0
 10
11.315720
 20
10.448871
 30
0.0
 10
11.315734
 20
10.448936
 30
0.0
  0
LWPOLYLINE
  5
14c
100
AcDbEntity
  8
Layer_1
 62
7
100
AcDbPolyline
 90
16
 70
0
 10
7.611567
 20
10.371491
 30
0.0
 10
7.605285
 20
10.368348
 30
0.0
 10
7.601534
 20
10.366513
 30
0.0
 10
7.573887
 20
10.351666
 30
0.0
 10
7.541629
 20
10.347835
 30
0.0
 10
7.510882
 20
10.342044
 30
0.0
 10
7.487765
 20
10.321315
 30
0.0
 10
7.495473
 20
10.214167
 30
0.0
 10
7.512239
 20
10.106728
 30
0.0
 10
7.535170
 20
9.954093
 30
0.0
 10
7.577300
 20
9.963874
 30
0.0
 10
7.604891
 20
9.995062
 30
0.0
 10
7.617147
 20
10.037324
 30
0.0
 10
7.613275
 20
10.080323
 30
0.0
 10
7.611553
 20
10.371475
 30
0.0
 10
7.611567
 20
10.371491
 30
0.0
  0
LWPOLYLINE
  5
14d
100
AcDbEntity
  8
Layer_1
 62
7
100
AcDbPolyline
 90
15
 70
0
 10
8.740290
 20
10.342993
 30
0.0
 10
8.712669
 20
10.313153
 30
0.0
 10
8.705221
 20
10.273531
 30
0.0
 10
8.708763
 20
10.189368
 30
0.0
 10
8.707976
 20
10.026060
 30
0.0
 10
8.718872
 20
9.945289
 30
0.0
 10
8.741560
 20
9.866853
 30
0.0
 10
8.779970
 20
9.974481
 30
0.0
 10
8.806668
 20
10.085693
 30
0.0
 10
8.823369
 20
10.198858
 30
0.0
 10
8.831792
 20
10.312346
 30
0.0
 10
8.814070
 20
10.330262
 30
0.0
 10
8.790944
 20
10.339486
 30
0.0
 10
8.740290
 20
10.342993
 30
0.0
 10
8.740290
 20
10.342993
 30
0.0
  0
LWPOLYLINE
  5
14e
100
AcDbEntity
  8
Layer_1
 62
7
100
AcDbPolyline
 90
13
 70
0
 10
12.806386
 20
10.328441
 30
0.0
 10
12.798668
 20
10.313227
 30
0.0
 10
12.592846
 20
9.901137
 30
0.0
 10
12.619239
 20
9.877269
 30
0.0
 10
12.653203
 20
9.877096
 30
0.0
 10
12.684714
 20
9.894869
 30
0.0
 10
12.703748
 20
9.924841
 30
0.0
 10
12.910179
 20
10.226520
 30
0.0
 10
12.870204
 20
10.231870
 30
0.0
 10
12.839800
 20
10.255736
 30
0.0
 10
12.818638
 20
10.290474
 30
0.0
 10
12.806386
 20
10.328441
 30
0.0
 10
12.806386
 20
10.328441
 30
0.0
  0
LWPOLYLINE
  5
14f
100
AcDbEntity
  8
Layer_1
 62
7
100
AcDbPolyline
 90
15
 70
0
 10
3.511739
 20
10.299556
 30
0.0
 10
3.506007
 20
10.295421
 30
0.0
 10
3.505132
 20
10.294829
 30
0.0
 10
3.477914
 20
10.275527
 30
0.0
 10
3.445363
 20
10.261800
 30
0.0
 10
3.418015
 20
10.243931
 30
0.0
 10
3.406408
 20
10.212202
 30
0.0
 10
3.521193
 20
10.044512
 30
0.0
 10
3.639241
 20
9.879158
 30
0.0
 10
3.673201
 20
9.887048
 30
0.0
 10
3.691074
 20
9.914974
 30
0.0
 10
3.692127
 20
9.950499
 30
0.0
 10
3.675623
 20
9.981189
 30
0.0
 10
3.511748
 20
10.299570
 30
0.0
 10
3.511739
 20
10.299556
 30
0.0
  0
LWPOLYLINE
  5
150
100
AcDbEntity
  8
Layer_1
 62
7
100
AcDbPolyline
 90
15
 70
0
 10
6.359263
 20
10.163573
 30
0.0
 10
6.348182
 20
10.162754
 30
0.0
 10
6.317419
 20
10.157402
 30
0.0
 10
6.289884
 20
10.141557
 30
0.0
 10
6.274163
 20
10.117129
 30
0.0
 10
6.278840
 20
10.086024
 30
0.0
 10
6.343613
 20
9.884542
 30
0.0
 10
6.382671
 20
9.786639
 30
0.0
 10
6.436707
 20
9.695764
 30
0.0
 10
6.443177
 20
9.811503
 30
0.0
 10
6.435325
 20
9.927200
 30
0.0
 10
6.416546
 20
10.041763
 30
0.0
 10
6.390239
 20
10.154099
 30
0.0
 10
6.359263
 20
10.163581
 30
0.0
 10
6.359263
 20
10.163573
 30
0.0
  0
LWPOLYLINE
  5
151
100
AcDbEntity
  8
Layer_1
 62
7
100
AcDbPolyline
 90
16
 70
0
 10
9.964045
 20
10.152823
 30
0.0
 10
9.950594
 20
10.152174
 30
0.0
 10
9.918298
 20
10.115408
 30
0.0
 10
9.906463
 20
10.067929
 30
0.0
 10
9.902417
 20
10.016849
 30
0.0
 10
9.893489
 20
9.969280
 30
0.0
 10
9.874770
 20
9.829954
 30
0.0
 10
9.875685
 20
9.759852
 30
0.0
 10
9.887150
 20
9.690475
 30
0.0
 10
9.939569
 20
9.788524
 30
0.0
 10
9.981540
 20
9.891477
 30
0.0
 10
10.041546
 20
10.105266
 30
0.0
 10
10.030246
 20
10.126790
 30
0.0
 10
10.011576
 20
10.141486
 30
0.0
 10
9.964045
 20
10.152837
 30
0.0
 10
9.964045
 20
10.152823
 30
0.0
  0
LWPOLYLINE
  5
152
100
AcDbEntity
  8
Layer_1
 62
7
100
AcDbPolyline
 90
15
 70
0
 10
5.218520
 20
9.818124
 30
0.0
 10
5.212182
 20
9.815040
 30
0.0
 10
5.211081
 20
9.814503
 30
0.0
 10
5.147357
 20
9.789324
 30
0.0
 10
5.119741
 20
9.771752
 30
0.0
 10
5.107672
 20
9.741024
 30
0.0
 10
5.159299
 20
9.627042
 30
0.0
 10
5.215709
 20
9.514419
 30
0.0
 10
5.290510
 20
9.391280
 30
0.0
 10
5.306964
 20
9.420789
 30
0.0
 10
5.315246
 20
9.451669
 30
0.0
 10
5.313006
 20
9.515796
 30
0.0
 10
5.273257
 20
9.641309
 30
0.0
 10
5.218520
 20
9.818141
 30
0.0
 10
5.218520
 20
9.818124
 30
0.0
  0
LWPOLYLINE
  5
153
100
AcDbEntity
  8
Layer_1
 62
7
100
AcDbPolyline
 90
14
 70
0
 10
11.121763
 20
9.785437
 30
0.0
 10
11.090182
 20
9.758905
 30
0.0
 10
11.070995
 20
9.721084
 30
0.0
 10
11.048890
 20
9.637107
 30
0.0
 10
11.003304
 20
9.493779
 30
0.0
 10
10.991345
 20
9.419730
 30
0.0
 10
10.991729
 20
9.344355
 30
0.0
 10
11.060133
 20
9.433292
 30
0.0
 10
11.117511
 20
9.529473
 30
0.0
 10
11.212988
 20
9.732577
 30
0.0
 10
11.172953
 20
9.769639
 30
0.0
 10
11.148636
 20
9.781534
 30
0.0
 10
11.121763
 20
9.785437
 30
0.0
 10
11.121763
 20
9.785437
 30
0.0
  0
LWPOLYLINE
  5
154
100
AcDbEntity
  8
Layer_1
 62
7
100
AcDbPolyline
 90
13
 70
0
 10
2.490227
 20
9.612356
 30
0.0
 10
2.485046
 20
9.607561
 30
0.0
 10
2.484340
 20
9.606912
 30
0.0
 10
2.429174
 20
9.563947
 30
0.0
 10
2.407776
 20
9.539053
 30
0.0
 10
2.406509
 20
9.504883
 30
0.0
 10
2.672413
 20
9.212958
 30
0.0
 10
2.704080
 20
9.228995
 30
0.0
 10
2.716414
 20
9.260527
 30
0.0
 10
2.711199
 20
9.296222
 30
0.0
 10
2.690218
 20
9.324746
 30
0.0
 10
2.490239
 20
9.612370
 30
0.0
 10
2.490227
 20
9.612356
 30
0.0
  0
LWPOLYLINE
  5
155
100
AcDbEntity
  8
Layer_1
 62
7
100
AcDbPolyline
 90
24
 70
0
 10
4.098121
 20
9.298110
 30
0.0
 10
4.094153
 20
9.292375
 30
0.0
 10
4.091500
 20
9.288627
 30
0.0
 10
4.075056
 20
9.262213
 30
0.0
 10
4.049043
 20
9.243493
 30
0.0
 10
4.024814
 20
9.224024
 30
0.0
 10
4.013725
 20
9.195361
 30
0.0
 10
4.067073
 20
9.105687
 30
0.0
 10
4.127331
 20
9.019029
 30
0.0
 10
4.238839
 20
8.873453
 30
0.0
 10
4.241129
 20
8.841122
 30
0.0
 10
4.262266
 20
8.817058
 30
0.0
 10
4.291837
 20
8.809465
 30
0.0
 10
4.319428
 20
8.826545
 30
0.0
 10
4.330709
 20
8.855904
 30
0.0
 10
4.320972
 20
8.885901
 30
0.0
 10
4.297014
 20
8.905525
 30
0.0
 10
4.265631
 20
8.903769
 30
0.0
 10
4.260041
 20
8.975267
 30
0.0
 10
4.232857
 20
9.041327
 30
0.0
 10
4.197076
 20
9.105043
 30
0.0
 10
4.165696
 20
9.169510
 30
0.0
 10
4.098115
 20
9.298110
 30
0.0
 10
4.098121
 20
9.298110
 30
0.0
  0
LWPOLYLINE
  5
156
100
AcDbEntity
  8
Layer_1
 62
7
100
AcDbPolyline
 90
18
 70
0
 10
12.216751
 20
9.239679
 30
0.0
 10
12.187473
 20
9.215785
 30
0.0
 10
12.165127
 20
9.183589
 30
0.0
 10
12.129990
 20
9.112405
 30
0.0
 10
12.071857
 20
8.993453
 30
0.0
 10
12.045926
 20
8.932886
 30
0.0
 10
12.030052
 20
8.868435
 30
0.0
 10
12.024569
 20
8.824148
 30
0.0
 10
12.034183
 20
8.823758
 30
0.0
 10
12.055520
 20
8.844954
 30
0.0
 10
12.126013
 20
8.918402
 30
0.0
 10
12.189363
 20
8.998329
 30
0.0
 10
12.297337
 20
9.170283
 30
0.0
 10
12.288066
 20
9.197493
 30
0.0
 10
12.269824
 20
9.220351
 30
0.0
 10
12.245192
 20
9.235524
 30
0.0
 10
12.216751
 20
9.239679
 30
0.0
 10
12.216751
 20
9.239679
 30
0.0
  0
LWPOLYLINE
  5
157
100
AcDbEntity
  8
Layer_1
 62
7
100
AcDbPolyline
 90
22
 70
0
 10
8.224077
 20
9.235877
 30
0.0
 10
8.210573
 20
9.226231
 30
0.0
 10
8.171073
 20
9.199112
 30
0.0
 10
8.123976
 20
9.193157
 30
0.0
 10
8.095848
 20
9.175230
 30
0.0
 10
8.086568
 20
9.144525
 30
0.0
 10
8.091732
 20
9.075914
 30
0.0
 10
8.104076
 20
8.940034
 30
0.0
 10
8.135002
 20
8.807526
 30
0.0
 10
8.124254
 20
8.776052
 30
0.0
 10
8.138656
 20
8.745074
 30
0.0
 10
8.167009
 20
8.728304
 30
0.0
 10
8.182918
 20
8.729531
 30
0.0
 10
8.198115
 20
8.739451
 30
0.0
 10
8.212669
 20
8.762632
 30
0.0
 10
8.210019
 20
8.789920
 30
0.0
 10
8.193866
 20
8.812341
 30
0.0
 10
8.167909
 20
8.820923
 30
0.0
 10
8.190926
 20
8.923210
 30
0.0
 10
8.202819
 20
9.027284
 30
0.0
 10
8.224077
 20
9.235877
 30
0.0
 10
8.224077
 20
9.235877
 30
0.0
  0
LWPOLYLINE
  5
158
100
AcDbEntity
  8
Layer_1
 62
7
100
AcDbPolyline
 90
19
 70
0
 10
9.462217
 20
9.132028
 30
0.0
 10
9.443751
 20
9.118027
 30
0.0
 10
9.403416
 20
9.086308
 30
0.0
 10
9.381165
 20
9.078291
 30
0.0
 10
9.356384
 20
9.085394
 30
0.0
 10
9.323638
 20
9.077181
 30
0.0
 10
9.304433
 20
9.050692
 30
0.0
 10
9.295908
 20
9.015633
 30
0.0
 10
9.295198
 20
8.981711
 30
0.0
 10
9.283074
 20
8.834797
 30
0.0
 10
9.283834
 20
8.761444
 30
0.0
 10
9.300216
 20
8.690395
 30
0.0
 10
9.316867
 20
8.695247
 30
0.0
 10
9.326995
 20
8.712227
 30
0.0
 10
9.343319
 20
8.749871
 30
0.0
 10
9.377465
 20
8.843986
 30
0.0
 10
9.404940
 20
8.940205
 30
0.0
 10
9.462217
 20
9.132028
 30
0.0
 10
9.462217
 20
9.132028
 30
0.0
  0
LWPOLYLINE
  5
159
100
AcDbEntity
  8
Layer_1
 62
7
100
AcDbPolyline
 90
23
 70
0
 10
6.988308
 20
9.098348
 30
0.0
 10
6.981472
 20
9.096598
 30
0.0
 10
6.980484
 20
9.096316
 30
0.0
 10
6.910730
 20
9.083293
 30
0.0
 10
6.881175
 20
9.068748
 30
0.0
 10
6.867706
 20
9.037117
 30
0.0
 10
6.913844
 20
8.865275
 30
0.0
 10
6.942093
 20
8.781339
 30
0.0
 10
6.976790
 20
8.702308
 30
0.0
 10
6.964143
 20
8.689555
 30
0.0
 10
6.958980
 20
8.673507
 30
0.0
 10
6.966817
 20
8.639685
 30
0.0
 10
6.991726
 20
8.617166
 30
0.0
 10
7.007903
 20
8.615246
 30
0.0
 10
7.025132
 20
8.622273
 30
0.0
 10
7.043622
 20
8.643442
 30
0.0
 10
7.045033
 20
8.671558
 30
0.0
 10
7.031836
 20
8.696667
 30
0.0
 10
7.006500
 20
8.708813
 30
0.0
 10
7.014093
 20
8.806276
 30
0.0
 10
7.010077
 20
8.903847
 30
0.0
 10
6.988310
 20
9.098356
 30
0.0
 10
6.988308
 20
9.098348
 30
0.0
  0
LWPOLYLINE
  5
15a
100
AcDbEntity
  8
Layer_1
 62
7
100
AcDbPolyline
 90
12
 70
0
 10
12.103806
 20
8.803008
 30
0.0
 10
12.085806
 20
8.800433
 30
0.0
 10
12.073133
 20
8.791147
 30
0.0
 10
12.063247
 20
8.760935
 30
0.0
 10
12.073103
 20
8.729352
 30
0.0
 10
12.101661
 20
8.713379
 30
0.0
 10
12.131274
 20
8.722858
 30
0.0
 10
12.146133
 20
8.748879
 30
0.0
 10
12.143524
 20
8.778827
 30
0.0
 10
12.120730
 20
8.800087
 30
0.0
 10
12.103808
 20
8.803008
 30
0.0
 10
12.103806
 20
8.803008
 30
0.0
  0
LWPOLYLINE
  5
15b
100
AcDbEntity
  8
Layer_1
 62
7
100
AcDbPolyline
 90
19
 70
0
 10
10.652455
 20
8.794352
 30
0.0
 10
10.631068
 20
8.780407
 30
0.0
 10
10.591520
 20
8.753210
 30
0.0
 10
10.570564
 20
8.746809
 30
0.0
 10
10.549269
 20
8.757036
 30
0.0
 10
10.517742
 20
8.761487
 30
0.0
 10
10.492088
 20
8.745448
 30
0.0
 10
10.474644
 20
8.717578
 30
0.0
 10
10.467744
 20
8.686535
 30
0.0
 10
10.426084
 20
8.530741
 30
0.0
 10
10.412714
 20
8.451396
 30
0.0
 10
10.413616
 20
8.370248
 30
0.0
 10
10.420473
 20
8.366453
 30
0.0
 10
10.433170
 20
8.381332
 30
0.0
 10
10.459971
 20
8.419307
 30
0.0
 10
10.514548
 20
8.509556
 30
0.0
 10
10.562021
 20
8.603670
 30
0.0
 10
10.652455
 20
8.794352
 30
0.0
 10
10.652455
 20
8.794352
 30
0.0
  0
LWPOLYLINE
  5
15c
100
AcDbEntity
  8
Layer_1
 62
7
100
AcDbPolyline
 90
17
 70
0
 10
1.570744
 20
8.794352
 30
0.0
 10
1.566280
 20
8.788950
 30
0.0
 10
1.565574
 20
8.788132
 30
0.0
 10
1.517619
 20
8.738839
 30
0.0
 10
1.499566
 20
8.711672
 30
0.0
 10
1.501411
 20
8.678607
 30
0.0
 10
1.612796
 20
8.578992
 30
0.0
 10
1.727852
 20
8.482595
 30
0.0
 10
1.771042
 20
8.446327
 30
0.0
 10
1.793041
 20
8.429863
 30
0.0
 10
1.816597
 20
8.424497
 30
0.0
 10
1.840234
 20
8.449085
 30
0.0
 10
1.842636
 20
8.481957
 30
0.0
 10
1.828973
 20
8.514583
 30
0.0
 10
1.804416
 20
8.538433
 30
0.0
 10
1.570756
 20
8.794360
 30
0.0
 10
1.570744
 20
8.794352
 30
0.0
  0
LWPOLYLINE
  5
15d
100
AcDbEntity
  8
Layer_1
 62
7
100
AcDbPolyline
 90
13
 70
0
 10
5.800990
 20
8.785532
 30
0.0
 10
5.794595
 20
8.782501
 30
0.0
 10
5.793382
 20
8.781965
 30
0.0
 10
5.726345
 20
8.756235
 30
0.0
 10
5.699370
 20
8.736748
 30
0.0
 10
5.692177
 20
8.702700
 30
0.0
 10
5.775361
 20
8.527233
 30
0.0
 10
5.824602
 20
8.443803
 30
0.0
 10
5.885874
 20
8.368445
 30
0.0
 10
5.880680
 20
8.475223
 30
0.0
 10
5.859761
 20
8.579766
 30
0.0
 10
5.800987
 20
8.785549
 30
0.0
 10
5.800990
 20
8.785532
 30
0.0
  0
LWPOLYLINE
  5
15e
100
AcDbEntity
  8
Layer_1
 62
7
100
AcDbPolyline
 90
16
 70
0
 10
3.093311
 20
8.568631
 30
0.0
 10
3.086145
 20
8.568123
 30
0.0
 10
3.028429
 20
8.531349
 30
0.0
 10
3.012567
 20
8.503612
 30
0.0
 10
3.019007
 20
8.470778
 30
0.0
 10
3.140487
 20
8.340448
 30
0.0
 10
3.203888
 20
8.278293
 30
0.0
 10
3.276369
 20
8.226755
 30
0.0
 10
3.299985
 20
8.241423
 30
0.0
 10
3.304500
 20
8.266378
 30
0.0
 10
3.296190
 20
8.294177
 30
0.0
 10
3.281330
 20
8.317374
 30
0.0
 10
3.196750
 20
8.446737
 30
0.0
 10
3.100533
 20
8.566909
 30
0.0
 10
3.093311
 20
8.568631
 30
0.0
 10
3.093311
 20
8.568631
 30
0.0
  0
LWPOLYLINE
  5
15f
100
AcDbEntity
  8
Layer_1
 62
7
100
AcDbPolyline
 90
10
 70
0
 10
13.099963
 20
8.397093
 30
0.0
 10
13.035526
 20
8.305094
 30
0.0
 10
13.020277
 20
8.282875
 30
0.0
 10
13.011879
 20
8.255965
 30
0.0
 10
13.015770
 20
8.231213
 30
0.0
 10
13.037388
 20
8.215466
 30
0.0
 10
13.072028
 20
8.220169
 30
0.0
 10
13.099951
 20
8.240107
 30
0.0
 10
13.099951
 20
8.397093
 30
0.0
 10
13.099963
 20
8.397093
 30
0.0
  0
LWPOLYLINE
  5
160
100
AcDbEntity
  8
Layer_1
 62
7
100
AcDbPolyline
 90
14
 70
0
 10
4.680644
 20
8.249310
 30
0.0
 10
4.676566
 20
8.248802
 30
0.0
 10
4.642744
 20
8.238298
 30
0.0
 10
4.611402
 20
8.217438
 30
0.0
 10
4.593653
 20
8.188489
 30
0.0
 10
4.600609
 20
8.153719
 30
0.0
 10
4.713607
 20
7.999488
 30
0.0
 10
4.776433
 20
7.928101
 30
0.0
 10
4.851358
 20
7.868906
 30
0.0
 10
4.821695
 20
7.969509
 30
0.0
 10
4.784796
 20
8.067818
 30
0.0
 10
4.738500
 20
8.161769
 30
0.0
 10
4.680644
 20
8.249299
 30
0.0
 10
4.680644
 20
8.249310
 30
0.0
  0
LWPOLYLINE
  5
161
100
AcDbEntity
  8
Layer_1
 62
7
100
AcDbPolyline
 90
17
 70
0
 10
11.625682
 20
8.236633
 30
0.0
 10
11.584479
 20
8.207183
 30
0.0
 10
11.559807
 20
8.162795
 30
0.0
 10
11.540580
 20
8.113324
 30
0.0
 10
11.515714
 20
8.068623
 30
0.0
 10
11.471979
 20
7.963550
 30
0.0
 10
11.451940
 20
7.851665
 30
0.0
 10
11.535615
 20
7.934172
 30
0.0
 10
11.609784
 20
8.025092
 30
0.0
 10
11.743255
 20
8.218610
 30
0.0
 10
11.729067
 20
8.227602
 30
0.0
 10
11.711862
 20
8.220398
 30
0.0
 10
11.693114
 20
8.210592
 30
0.0
 10
11.674300
 20
8.211775
 30
0.0
 10
11.651170
 20
8.227210
 30
0.0
 10
11.625682
 20
8.236633
 30
0.0
 10
11.625682
 20
8.236633
 30
0.0
  0
LWPOLYLINE
  5
162
100
AcDbEntity
  8
Layer_1
 62
7
100
AcDbPolyline
 90
16
 70
0
 10
8.859464
 20
8.025683
 30
0.0
 10
8.842818
 20
8.013116
 30
0.0
 10
8.802844
 20
7.983116
 30
0.0
 10
8.779508
 20
7.976677
 30
0.0
 10
8.753960
 20
7.980759
 30
0.0
 10
8.723219
 20
7.969929
 30
0.0
 10
8.709124
 20
7.942179
 30
0.0
 10
8.707272
 20
7.875036
 30
0.0
 10
8.709169
 20
7.749071
 30
0.0
 10
8.717888
 20
7.686965
 30
0.0
 10
8.737148
 20
7.627044
 30
0.0
 10
8.770043
 20
7.683108
 30
0.0
 10
8.791617
 20
7.744810
 30
0.0
 10
8.821705
 20
7.872665
 30
0.0
 10
8.859464
 20
8.025683
 30
0.0
 10
8.859464
 20
8.025683
 30
0.0
  0
LWPOLYLINE
  5
163
100
AcDbEntity
  8
Layer_1
 62
7
100
AcDbPolyline
 90
26
 70
0
 10
7.616529
 20
8.008374
 30
0.0
 10
7.610134
 20
8.005400
 30
0.0
 10
7.606165
 20
8.003537
 30
0.0
 10
7.575471
 20
7.989161
 30
0.0
 10
7.540097
 20
7.983060
 30
0.0
 10
7.508364
 20
7.972520
 30
0.0
 10
7.488592
 20
7.944832
 30
0.0
 10
7.521054
 20
7.781830
 30
0.0
 10
7.546233
 20
7.702928
 30
0.0
 10
7.583015
 20
7.628489
 30
0.0
 10
7.550705
 20
7.625770
 30
0.0
 10
7.520873
 20
7.609798
 30
0.0
 10
7.503522
 20
7.584168
 30
0.0
 10
7.508655
 20
7.552475
 30
0.0
 10
7.542473
 20
7.537590
 30
0.0
 10
7.580527
 20
7.537520
 30
0.0
 10
7.652964
 20
7.564712
 30
0.0
 10
7.685687
 20
7.588142
 30
0.0
 10
7.693621
 20
7.599691
 30
0.0
 10
7.680359
 20
7.606936
 30
0.0
 10
7.635699
 20
7.621326
 30
0.0
 10
7.589517
 20
7.628709
 30
0.0
 10
7.608320
 20
7.722251
 30
0.0
 10
7.614366
 20
7.817326
 30
0.0
 10
7.616529
 20
8.008386
 30
0.0
 10
7.616529
 20
8.008374
 30
0.0
  0
LWPOLYLINE
  5
164
100
AcDbEntity
  8
Layer_1
 62
7
100
AcDbPolyline
 90
15
 70
0
 10
0.768835
 20
7.860594
 30
0.0
 10
0.765144
 20
7.854586
 30
0.0
 10
0.764580
 20
7.853654
 30
0.0
 10
0.723419
 20
7.797840
 30
0.0
 10
0.709035
 20
7.768507
 30
0.0
 10
0.716404
 20
7.735694
 30
0.0
 10
0.877383
 20
7.628234
 30
0.0
 10
1.041897
 20
7.526948
 30
0.0
 10
1.070299
 20
7.530042
 30
0.0
 10
1.084973
 20
7.552399
 30
0.0
 10
1.085343
 20
7.582123
 30
0.0
 10
1.070836
 20
7.607317
 30
0.0
 10
0.887722
 20
7.761215
 30
0.0
 10
0.768824
 20
7.860600
 30
0.0
 10
0.768835
 20
7.860594
 30
0.0
  0
LWPOLYLINE
  5
165
100
AcDbEntity
  8
Layer_1
 62
7
100
AcDbPolyline
 90
19
 70
0
 10
10.066901
 20
7.750683
 30
0.0
 10
10.046010
 20
7.736405
 30
0.0
 10
10.006289
 20
7.708821
 30
0.0
 10
9.984611
 20
7.703484
 30
0.0
 10
9.962501
 20
7.713365
 30
0.0
 10
9.932736
 20
7.715971
 30
0.0
 10
9.909767
 20
7.699681
 30
0.0
 10
9.894920
 20
7.672773
 30
0.0
 10
9.889521
 20
7.643526
 30
0.0
 10
9.863356
 20
7.515434
 30
0.0
 10
9.856922
 20
7.450801
 30
0.0
 10
9.862179
 20
7.385558
 30
0.0
 10
9.867806
 20
7.374389
 30
0.0
 10
9.880480
 20
7.387511
 30
0.0
 10
9.908094
 20
7.427561
 30
0.0
 10
9.953817
 20
7.505168
 30
0.0
 10
9.993130
 20
7.586178
 30
0.0
 10
10.066901
 20
7.750683
 30
0.0
 10
10.066901
 20
7.750683
 30
0.0
  0
LWPOLYLINE
  5
166
100
AcDbEntity
  8
Layer_1
 62
7
100
AcDbPolyline
 90
15
 70
0
 10
2.195271
 20
7.747045
 30
0.0
 10
2.191523
 20
7.741147
 30
0.0
 10
2.190536
 20
7.739481
 30
0.0
 10
2.173347
 20
7.711584
 30
0.0
 10
2.148284
 20
7.687772
 30
0.0
 10
2.128114
 20
7.662227
 30
0.0
 10
2.125602
 20
7.629127
 30
0.0
 10
2.290547
 20
7.501196
 30
0.0
 10
2.463552
 20
7.384830
 30
0.0
 10
2.463854
 20
7.420270
 30
0.0
 10
2.456035
 20
7.452934
 30
0.0
 10
2.422288
 20
7.511377
 30
0.0
 10
2.326135
 20
7.610828
 30
0.0
 10
2.195277
 20
7.747034
 30
0.0
 10
2.195271
 20
7.747045
 30
0.0
  0
LWPOLYLINE
  5
167
100
AcDbEntity
  8
Layer_1
 62
7
100
AcDbPolyline
 90
14
 70
0
 10
6.405948
 20
7.743020
 30
0.0
 10
6.399389
 20
7.740424
 30
0.0
 10
6.398740
 20
7.740142
 30
0.0
 10
6.333218
 20
7.718448
 30
0.0
 10
6.307120
 20
7.699837
 30
0.0
 10
6.299245
 20
7.667326
 30
0.0
 10
6.368868
 20
7.513802
 30
0.0
 10
6.411687
 20
7.441539
 30
0.0
 10
6.464831
 20
7.376174
 30
0.0
 10
6.462968
 20
7.469468
 30
0.0
 10
6.450697
 20
7.561819
 30
0.0
 10
6.405959
 20
7.742953
 30
0.0
 10
6.405959
 20
7.742953
 30
0.0
 10
6.405948
 20
7.743020
 30
0.0
  0
LWPOLYLINE
  5
168
100
AcDbEntity
  8
Layer_1
 62
7
100
AcDbPolyline
 90
16
 70
0
 10
8.747292
 20
7.620319
 30
0.0
 10
8.738306
 20
7.620036
 30
0.0
 10
8.719735
 20
7.616915
 30
0.0
 10
8.706747
 20
7.606334
 30
0.0
 10
8.697175
 20
7.572998
 30
0.0
 10
8.708899
 20
7.540444
 30
0.0
 10
8.722532
 20
7.530840
 30
0.0
 10
8.741229
 20
7.529088
 30
0.0
 10
8.773582
 20
7.533146
 30
0.0
 10
8.793994
 20
7.558612
 30
0.0
 10
8.795961
 20
7.590276
 30
0.0
 10
8.787995
 20
7.603679
 30
0.0
 10
8.772979
 20
7.612927
 30
0.0
 10
8.747292
 20
7.620203
 30
0.0
 10
8.747292
 20
7.620203
 30
0.0
 10
8.747292
 20
7.620319
 30
0.0
  0
LWPOLYLINE
  5
169
100
AcDbEntity
  8
Layer_1
 62
7
100
AcDbPolyline
 90
14
 70
0
 10
3.670983
 20
7.571150
 30
0.0
 10
3.667952
 20
7.564811
 30
0.0
 10
3.665863
 20
7.560513
 30
0.0
 10
3.653398
 20
7.531111
 30
0.0
 10
3.630316
 20
7.507591
 30
0.0
 10
3.609671
 20
7.483426
 30
0.0
 10
3.604514
 20
7.452089
 30
0.0
 10
3.747473
 20
7.304989
 30
0.0
 10
3.827742
 20
7.241418
 30
0.0
 10
3.915949
 20
7.189216
 30
0.0
 10
3.868509
 20
7.292735
 30
0.0
 10
3.807107
 20
7.388316
 30
0.0
 10
3.670989
 20
7.571150
 30
0.0
 10
3.670983
 20
7.571150
 30
0.0
  0
LWPOLYLINE
  5
16a
100
AcDbEntity
  8
Layer_1
 62
7
100
AcDbPolyline
 90
17
 70
0
 10
12.609545
 20
7.520110
 30
0.0
 10
12.556774
 20
7.470764
 30
0.0
 10
12.512651
 20
7.412776
 30
0.0
 10
12.427977
 20
7.293559
 30
0.0
 10
12.424578
 20
7.266240
 30
0.0
 10
12.438821
 20
7.243717
 30
0.0
 10
12.462952
 20
7.233285
 30
0.0
 10
12.489217
 20
7.242243
 30
0.0
 10
12.568682
 20
7.313153
 30
0.0
 10
12.645540
 20
7.387485
 30
0.0
 10
12.702176
 20
7.443537
 30
0.0
 10
12.752256
 20
7.505392
 30
0.0
 10
12.692960
 20
7.483839
 30
0.0
 10
12.664183
 20
7.487405
 30
0.0
 10
12.642785
 20
7.510407
 30
0.0
 10
12.609545
 20
7.520110
 30
0.0
 10
12.609545
 20
7.520110
 30
0.0
  0
LWPOLYLINE
  5
16b
100
AcDbEntity
  8
Layer_1
 62
7
100
AcDbPolyline
 90
23
 70
0
 10
5.277612
 20
7.264786
 30
0.0
 10
5.273477
 20
7.259055
 30
0.0
 10
5.270556
 20
7.255030
 30
0.0
 10
5.253115
 20
7.228646
 30
0.0
 10
5.226829
 20
7.209103
 30
0.0
 10
5.203058
 20
7.188463
 30
0.0
 10
5.193165
 20
7.158789
 30
0.0
 10
5.254072
 20
7.064520
 30
0.0
 10
5.327221
 20
6.977879
 30
0.0
 10
5.383169
 20
6.924799
 30
0.0
 10
5.375205
 20
6.893433
 30
0.0
 10
5.391212
 20
6.864349
 30
0.0
 10
5.419817
 20
6.849766
 30
0.0
 10
5.435289
 20
6.851731
 30
0.0
 10
5.449646
 20
6.861903
 30
0.0
 10
5.463284
 20
6.885846
 30
0.0
 10
5.458031
 20
6.912005
 30
0.0
 10
5.439477
 20
6.932971
 30
0.0
 10
5.413211
 20
6.941334
 30
0.0
 10
5.387271
 20
7.025219
 30
0.0
 10
5.353153
 20
7.106063
 30
0.0
 10
5.277612
 20
7.264786
 30
0.0
 10
5.277612
 20
7.264786
 30
0.0
  0
LWPOLYLINE
  5
16c
100
AcDbEntity
  8
Layer_1
 62
7
100
AcDbPolyline
 90
29
 70
0
 10
11.172529
 20
7.205861
 30
0.0
 10
11.153896
 20
7.196105
 30
0.0
 10
11.132402
 20
7.183208
 30
0.0
 10
11.107933
 20
7.179891
 30
0.0
 10
11.084094
 20
7.185977
 30
0.0
 10
11.064491
 20
7.201286
 30
0.0
 10
11.033614
 20
7.198326
 30
0.0
 10
11.009579
 20
7.177805
 30
0.0
 10
10.979051
 20
7.119211
 30
0.0
 10
10.942005
 20
7.036463
 30
0.0
 10
10.924419
 20
6.994946
 30
0.0
 10
10.915221
 20
6.950264
 30
0.0
 10
10.913543
 20
6.931174
 30
0.0
 10
10.905986
 20
6.922472
 30
0.0
 10
10.875865
 20
6.916860
 30
0.0
 10
10.860489
 20
6.906070
 30
0.0
 10
10.852648
 20
6.890984
 30
0.0
 10
10.855944
 20
6.856798
 30
0.0
 10
10.878503
 20
6.832055
 30
0.0
 10
10.894739
 20
6.828772
 30
0.0
 10
10.913070
 20
6.834508
 30
0.0
 10
10.929259
 20
6.846473
 30
0.0
 10
10.936299
 20
6.863648
 30
0.0
 10
10.932803
 20
6.900929
 30
0.0
 10
10.998800
 20
6.964851
 30
0.0
 10
11.057991
 20
7.035543
 30
0.0
 10
11.164096
 20
7.186679
 30
0.0
 10
11.172529
 20
7.205861
 30
0.0
 10
11.172529
 20
7.205861
 30
0.0
  0
LWPOLYLINE
  5
16d
100
AcDbEntity
  8
Layer_1
 62
7
100
AcDbPolyline
 90
16
 70
0
 10
8.213550
 20
6.860526
 30
0.0
 10
8.206878
 20
6.858268
 30
0.0
 10
8.203297
 20
6.856998
 30
0.0
 10
8.171060
 20
6.847706
 30
0.0
 10
8.135256
 20
6.843694
 30
0.0
 10
8.104188
 20
6.833187
 30
0.0
 10
8.086163
 20
6.804411
 30
0.0
 10
8.097695
 20
6.710871
 30
0.0
 10
8.106341
 20
6.665093
 30
0.0
 10
8.128443
 20
6.624605
 30
0.0
 10
8.156013
 20
6.620468
 30
0.0
 10
8.178814
 20
6.634590
 30
0.0
 10
8.193296
 20
6.659442
 30
0.0
 10
8.195911
 20
6.687498
 30
0.0
 10
8.213550
 20
6.860526
 30
0.0
 10
8.213550
 20
6.860526
 30
0.0
  0
LWPOLYLINE
  5
16e
100
AcDbEntity
  8
Layer_1
 62
7
100
AcDbPolyline
 90
14
 70
0
 10
0.171540
 20
6.778230
 30
0.0
 10
0.150309
 20
6.768248
 30
0.0
 10
0.135953
 20
6.752286
 30
0.0
 10
0.126548
 20
6.710268
 30
0.0
 10
0.140701
 20
6.667862
 30
0.0
 10
0.175782
 20
6.640756
 30
0.0
 10
0.350013
 20
6.560568
 30
0.0
 10
0.440338
 20
6.530005
 30
0.0
 10
0.535232
 20
6.516624
 30
0.0
 10
0.456755
 20
6.590980
 30
0.0
 10
0.370453
 20
6.656145
 30
0.0
 10
0.187359
 20
6.769354
 30
0.0
 10
0.171540
 20
6.778230
 30
0.0
 10
0.171540
 20
6.778230
 30
0.0
  0
LWPOLYLINE
  5
16f
100
AcDbEntity
  8
Layer_1
 62
7
100
AcDbPolyline
 90
15
 70
0
 10
1.444295
 20
6.772938
 30
0.0
 10
1.440934
 20
6.766709
 30
0.0
 10
1.440369
 20
6.765609
 30
0.0
 10
1.403366
 20
6.708439
 30
0.0
 10
1.390795
 20
6.678524
 30
0.0
 10
1.397982
 20
6.646438
 30
0.0
 10
1.500273
 20
6.585159
 30
0.0
 10
1.605955
 20
6.527980
 30
0.0
 10
1.762831
 20
6.458966
 30
0.0
 10
1.753949
 20
6.497079
 30
0.0
 10
1.737511
 20
6.530570
 30
0.0
 10
1.688067
 20
6.586855
 30
0.0
 10
1.565605
 20
6.678848
 30
0.0
 10
1.444284
 20
6.772941
 30
0.0
 10
1.444295
 20
6.772938
 30
0.0
  0
LWPOLYLINE
  5
170
100
AcDbEntity
  8
Layer_1
 62
7
100
AcDbPolyline
 90
13
 70
0
 10
6.996190
 20
6.711422
 30
0.0
 10
6.990128
 20
6.707728
 30
0.0
 10
6.986930
 20
6.705752
 30
0.0
 10
6.957608
 20
6.689216
 30
0.0
 10
6.924197
 20
6.676021
 30
0.0
 10
6.896452
 20
6.657945
 30
0.0
 10
6.884128
 20
6.626764
 30
0.0
 10
6.908027
 20
6.563838
 30
0.0
 10
6.938390
 20
6.502042
 30
0.0
 10
6.979739
 20
6.448863
 30
0.0
 10
7.036596
 20
6.411790
 30
0.0
 10
6.996190
 20
6.711431
 30
0.0
 10
6.996190
 20
6.711422
 30
0.0
  0
LWPOLYLINE
  5
171
100
AcDbEntity
  8
Layer_1
 62
7
100
AcDbPolyline
 90
15
 70
0
 10
9.330422
 20
6.679232
 30
0.0
 10
9.299365
 20
6.656048
 30
0.0
 10
9.287366
 20
6.620267
 30
0.0
 10
9.277229
 20
6.542529
 30
0.0
 10
9.272405
 20
6.512000
 30
0.0
 10
9.280575
 20
6.480439
 30
0.0
 10
9.300440
 20
6.459156
 30
0.0
 10
9.330698
 20
6.459463
 30
0.0
 10
9.361208
 20
6.499629
 30
0.0
 10
9.383658
 20
6.544881
 30
0.0
 10
9.410237
 20
6.641970
 30
0.0
 10
9.396820
 20
6.660618
 30
0.0
 10
9.376251
 20
6.670616
 30
0.0
 10
9.330422
 20
6.679232
 30
0.0
 10
9.330422
 20
6.679232
 30
0.0
  0
LWPOLYLINE
  5
172
100
AcDbEntity
  8
Layer_1
 62
7
100
AcDbPolyline
 90
13
 70
0
 10
2.824153
 20
6.678526
 30
0.0
 10
2.820238
 20
6.672628
 30
0.0
 10
2.819363
 20
6.671188
 30
0.0
 10
2.776459
 20
6.615720
 30
0.0
 10
2.761768
 20
6.585860
 30
0.0
 10
2.768044
 20
6.552731
 30
0.0
 10
2.975412
 20
6.414928
 30
0.0
 10
3.043157
 20
6.382169
 30
0.0
 10
3.114813
 20
6.359147
 30
0.0
 10
3.053599
 20
6.448532
 30
0.0
 10
2.980295
 20
6.527963
 30
0.0
 10
2.824158
 20
6.678521
 30
0.0
 10
2.824153
 20
6.678526
 30
0.0
  0
LWPOLYLINE
  5
173
100
AcDbEntity
  8
Layer_1
 62
7
100
AcDbPolyline
 90
14
 70
0
 10
4.283989
 20
6.531076
 30
0.0
 10
4.281125
 20
6.524628
 30
0.0
 10
4.279290
 20
6.520547
 30
0.0
 10
4.267292
 20
6.491354
 30
0.0
 10
4.245427
 20
6.466666
 30
0.0
 10
4.226906
 20
6.441315
 30
0.0
 10
4.224943
 20
6.410139
 30
0.0
 10
4.308824
 20
6.329359
 30
0.0
 10
4.401716
 20
6.257564
 30
0.0
 10
4.508376
 20
6.202276
 30
0.0
 10
4.463181
 20
6.291339
 30
0.0
 10
4.407937
 20
6.374339
 30
0.0
 10
4.283975
 20
6.531076
 30
0.0
 10
4.283989
 20
6.531076
 30
0.0
  0
LWPOLYLINE
  5
174
100
AcDbEntity
  8
Layer_1
 62
7
100
AcDbPolyline
 90
16
 70
0
 10
8.141174
 20
6.503791
 30
0.0
 10
8.141174
 20
6.503791
 30
0.0
 10
8.105623
 20
6.502973
 30
0.0
 10
8.034609
 20
6.494486
 30
0.0
 10
8.002668
 20
6.479182
 30
0.0
 10
7.977079
 20
6.454137
 30
0.0
 10
8.014861
 20
6.418870
 30
0.0
 10
8.063985
 20
6.407101
 30
0.0
 10
8.168956
 20
6.408329
 30
0.0
 10
8.277957
 20
6.411552
 30
0.0
 10
8.330894
 20
6.423922
 30
0.0
 10
8.380789
 20
6.446032
 30
0.0
 10
8.324661
 20
6.473502
 30
0.0
 10
8.265181
 20
6.491367
 30
0.0
 10
8.141174
 20
6.503856
 30
0.0
 10
8.141174
 20
6.503791
 30
0.0
  0
LWPOLYLINE
  5
175
100
AcDbEntity
  8
Layer_1
 62
7
100
AcDbPolyline
 90
17
 70
0
 10
12.023990
 20
6.463552
 30
0.0
 10
12.023990
 20
6.463552
 30
0.0
 10
12.011093
 20
6.462959
 30
0.0
 10
11.965003
 20
6.424428
 30
0.0
 10
11.926714
 20
6.378037
 30
0.0
 10
11.856257
 20
6.280285
 30
0.0
 10
11.856082
 20
6.250721
 30
0.0
 10
11.877393
 20
6.232928
 30
0.0
 10
11.907829
 20
6.229209
 30
0.0
 10
11.935025
 20
6.241866
 30
0.0
 10
12.049235
 20
6.337667
 30
0.0
 10
12.070673
 20
6.360518
 30
0.0
 10
12.080112
 20
6.389183
 30
0.0
 10
12.076289
 20
6.418727
 30
0.0
 10
12.057944
 20
6.444217
 30
0.0
 10
12.023990
 20
6.463620
 30
0.0
 10
12.023990
 20
6.463552
 30
0.0
  0
LWPOLYLINE
  5
176
100
AcDbEntity
  8
Layer_1
 62
7
100
AcDbPolyline
 90
16
 70
0
 10
5.853577
 20
6.256957
 30
0.0
 10
5.849719
 20
6.251002
 30
0.0
 10
5.846135
 20
6.245380
 30
0.0
 10
5.832400
 20
6.219319
 30
0.0
 10
5.811072
 20
6.199467
 30
0.0
 10
5.788782
 20
6.180358
 30
0.0
 10
5.772161
 20
6.156525
 30
0.0
 10
5.780374
 20
6.119745
 30
0.0
 10
5.802336
 20
6.088053
 30
0.0
 10
5.853410
 20
6.028422
 30
0.0
 10
5.905530
 20
5.977682
 30
0.0
 10
5.965252
 20
5.936093
 30
0.0
 10
5.948293
 20
6.019612
 30
0.0
 10
5.919654
 20
6.099688
 30
0.0
 10
5.853577
 20
6.256957
 30
0.0
 10
5.853577
 20
6.256957
 30
0.0
  0
LWPOLYLINE
  5
177
100
AcDbEntity
  8
Layer_1
 62
7
100
AcDbPolyline
 90
15
 70
0
 10
10.446247
 20
6.195274
 30
0.0
 10
10.410464
 20
6.165160
 30
0.0
 10
10.386567
 20
6.123777
 30
0.0
 10
10.353588
 20
6.032390
 30
0.0
 10
10.351507
 20
6.015182
 30
0.0
 10
10.357350
 20
6.001521
 30
0.0
 10
10.384060
 20
5.986294
 30
0.0
 10
10.416232
 20
5.989622
 30
0.0
 10
10.436380
 20
6.014421
 30
0.0
 10
10.492019
 20
6.077959
 30
0.0
 10
10.512983
 20
6.113325
 30
0.0
 10
10.517022
 20
6.154321
 30
0.0
 10
10.486735
 20
6.184042
 30
0.0
 10
10.446247
 20
6.195274
 30
0.0
 10
10.446247
 20
6.195274
 30
0.0
  0
LWPOLYLINE
  5
178
100
AcDbEntity
  8
Layer_1
 62
7
100
AcDbPolyline
 90
13
 70
0
 10
10.151401
 20
5.983057
 30
0.0
 10
10.141757
 20
5.982239
 30
0.0
 10
10.125397
 20
5.976074
 30
0.0
 10
10.115260
 20
5.964016
 30
0.0
 10
10.111815
 20
5.931349
 30
0.0
 10
10.127737
 20
5.902507
 30
0.0
 10
10.141809
 20
5.895228
 30
0.0
 10
10.159340
 20
5.895755
 30
0.0
 10
10.184225
 20
5.914497
 30
0.0
 10
10.190087
 20
5.943706
 30
0.0
 10
10.178590
 20
5.970767
 30
0.0
 10
10.151401
 20
5.983066
 30
0.0
 10
10.151401
 20
5.983057
 30
0.0
  0
LWPOLYLINE
  5
179
100
AcDbEntity
  8
Layer_1
 62
7
100
AcDbPolyline
 90
16
 70
0
 10
0.828257
 20
5.702489
 30
0.0
 10
0.828257
 20
5.695433
 30
0.0
 10
0.828257
 20
5.690969
 30
0.0
 10
0.829715
 20
5.660117
 30
0.0
 10
0.818534
 20
5.630323
 30
0.0
 10
0.809128
 20
5.600907
 30
0.0
 10
0.815910
 20
5.571191
 30
0.0
 10
0.907567
 20
5.529281
 30
0.0
 10
1.003489
 20
5.494240
 30
0.0
 10
1.199665
 20
5.437739
 30
0.0
 10
1.189196
 20
5.471908
 30
0.0
 10
1.171751
 20
5.500975
 30
0.0
 10
1.121512
 20
5.547021
 30
0.0
 10
0.998691
 20
5.613301
 30
0.0
 10
0.828257
 20
5.702489
 30
0.0
 10
0.828257
 20
5.702489
 30
0.0
  0
LWPOLYLINE
  5
17a
100
AcDbEntity
  8
Layer_1
 62
7
100
AcDbPolyline
 90
16
 70
0
 10
2.133205
 20
5.660486
 30
0.0
 10
2.130439
 20
5.654037
 30
0.0
 10
2.129790
 20
5.652287
 30
0.0
 10
2.097671
 20
5.589658
 30
0.0
 10
2.088751
 20
5.557791
 30
0.0
 10
2.101678
 20
5.525894
 30
0.0
 10
2.269101
 20
5.450753
 30
0.0
 10
2.355368
 20
5.420355
 30
0.0
 10
2.445083
 20
5.403359
 30
0.0
 10
2.456580
 20
5.414258
 30
0.0
 10
2.450127
 20
5.428136
 30
0.0
 10
2.423146
 20
5.453078
 30
0.0
 10
2.355135
 20
5.510788
 30
0.0
 10
2.281834
 20
5.561559
 30
0.0
 10
2.133208
 20
5.660500
 30
0.0
 10
2.133205
 20
5.660486
 30
0.0
  0
LWPOLYLINE
  5
17b
100
AcDbEntity
  8
Layer_1
 62
7
100
AcDbPolyline
 90
27
 70
0
 10
3.471553
 20
5.604151
 30
0.0
 10
3.470114
 20
5.597262
 30
0.0
 10
3.469239
 20
5.592851
 30
0.0
 10
3.463530
 20
5.561805
 30
0.0
 10
3.447610
 20
5.532928
 30
0.0
 10
3.435188
 20
5.504081
 30
0.0
 10
3.439970
 20
5.473127
 30
0.0
 10
3.537741
 20
5.413177
 30
0.0
 10
3.642707
 20
5.364703
 30
0.0
 10
3.743469
 20
5.335490
 30
0.0
 10
3.730660
 20
5.307857
 30
0.0
 10
3.728024
 20
5.276111
 30
0.0
 10
3.739340
 20
5.250835
 30
0.0
 10
3.768384
 20
5.242611
 30
0.0
 10
3.796081
 20
5.254988
 30
0.0
 10
3.816135
 20
5.276883
 30
0.0
 10
3.849632
 20
5.327774
 30
0.0
 10
3.860027
 20
5.351481
 30
0.0
 10
3.857710
 20
5.376434
 30
0.0
 10
3.843432
 20
5.394917
 30
0.0
 10
3.817939
 20
5.399210
 30
0.0
 10
3.780600
 20
5.376704
 30
0.0
 10
3.750194
 20
5.345523
 30
0.0
 10
3.688140
 20
5.417813
 30
0.0
 10
3.619039
 20
5.483284
 30
0.0
 10
3.471553
 20
5.604151
 30
0.0
 10
3.471553
 20
5.604151
 30
0.0
  0
LWPOLYLINE
  5
17c
100
AcDbEntity
  8
Layer_1
 62
7
100
AcDbPolyline
 90
15
 70
0
 10
12.801922
 20
5.532385
 30
0.0
 10
12.792659
 20
5.531454
 30
0.0
 10
12.686128
 20
5.450177
 30
0.0
 10
12.637489
 20
5.404484
 30
0.0
 10
12.596261
 20
5.353524
 30
0.0
 10
12.611549
 20
5.329333
 30
0.0
 10
12.638878
 20
5.324274
 30
0.0
 10
12.696915
 20
5.341067
 30
0.0
 10
12.778123
 20
5.382381
 30
0.0
 10
12.855222
 20
5.428874
 30
0.0
 10
12.863436
 20
5.461266
 30
0.0
 10
12.854673
 20
5.495097
 30
0.0
 10
12.832859
 20
5.521697
 30
0.0
 10
12.801922
 20
5.532394
 30
0.0
 10
12.801922
 20
5.532385
 30
0.0
  0
LWPOLYLINE
  5
17d
100
AcDbEntity
  8
Layer_1
 62
7
100
AcDbPolyline
 90
12
 70
0
 10
4.889446
 20
5.481232
 30
0.0
 10
4.886302
 20
5.474891
 30
0.0
 10
4.884581
 20
5.471419
 30
0.0
 10
4.867977
 20
5.440936
 30
0.0
 10
4.845602
 20
5.411082
 30
0.0
 10
4.831899
 20
5.380211
 30
0.0
 10
4.841311
 20
5.346680
 30
0.0
 10
4.952633
 20
5.270603
 30
0.0
 10
5.014698
 20
5.246897
 30
0.0
 10
5.081916
 20
5.243931
 30
0.0
 10
4.889432
 20
5.481232
 30
0.0
 10
4.889446
 20
5.481232
 30
0.0
  0
LWPOLYLINE
  5
17e
100
AcDbEntity
  8
Layer_1
 62
7
100
AcDbPolyline
 90
16
 70
0
 10
11.398803
 20
5.432780
 30
0.0
 10
11.391305
 20
5.431793
 30
0.0
 10
11.349342
 20
5.402391
 30
0.0
 10
11.314628
 20
5.364297
 30
0.0
 10
11.262817
 20
5.276184
 30
0.0
 10
11.273687
 20
5.251202
 30
0.0
 10
11.297551
 20
5.240163
 30
0.0
 10
11.325035
 20
5.243013
 30
0.0
 10
11.346767
 20
5.259702
 30
0.0
 10
11.417661
 20
5.307741
 30
0.0
 10
11.447461
 20
5.337311
 30
0.0
 10
11.463350
 20
5.374798
 30
0.0
 10
11.438348
 20
5.406877
 30
0.0
 10
11.406519
 20
5.431516
 30
0.0
 10
11.398803
 20
5.432786
 30
0.0
 10
11.398803
 20
5.432780
 30
0.0
  0
LWPOLYLINE
  5
17f
100
AcDbEntity
  8
Layer_1
 62
7
100
AcDbPolyline
 90
13
 70
0
 10
12.419432
 20
5.416078
 30
0.0
 10
12.422254
 20
5.400754
 30
0.0
 10
12.434151
 20
5.340307
 30
0.0
 10
12.457259
 20
5.281992
 30
0.0
 10
12.493814
 20
5.233173
 30
0.0
 10
12.546056
 20
5.201214
 30
0.0
 10
12.572538
 20
5.215064
 30
0.0
 10
12.580370
 20
5.241739
 30
0.0
 10
12.573401
 20
5.271715
 30
0.0
 10
12.555482
 20
5.295471
 30
0.0
 10
12.495519
 20
5.364549
 30
0.0
 10
12.419443
 20
5.416078
 30
0.0
 10
12.419432
 20
5.416078
 30
0.0
  0
LWPOLYLINE
  5
180
100
AcDbEntity
  8
Layer_1
 62
7
100
AcDbPolyline
 90
15
 70
0
 10
7.629646
 20
5.310629
 30
0.0
 10
7.629646
 20
5.310629
 30
0.0
 10
7.617962
 20
5.310629
 30
0.0
 10
7.547325
 20
5.298172
 30
0.0
 10
7.480421
 20
5.272380
 30
0.0
 10
7.420041
 20
5.233935
 30
0.0
 10
7.368977
 20
5.183519
 30
0.0
 10
7.446488
 20
5.186364
 30
0.0
 10
7.523884
 20
5.196645
 30
0.0
 10
7.598268
 20
5.217933
 30
0.0
 10
7.666744
 20
5.253798
 30
0.0
 10
7.672562
 20
5.274357
 30
0.0
 10
7.665423
 20
5.291820
 30
0.0
 10
7.629646
 20
5.310683
 30
0.0
 10
7.629646
 20
5.310629
 30
0.0
  0
LWPOLYLINE
  5
181
100
AcDbEntity
  8
Layer_1
 62
7
100
AcDbPolyline
 90
14
 70
0
 10
8.684288
 20
5.302253
 30
0.0
 10
8.665602
 20
5.301970
 30
0.0
 10
8.641757
 20
5.285661
 30
0.0
 10
8.640586
 20
5.258927
 30
0.0
 10
8.655948
 20
5.233113
 30
0.0
 10
8.681697
 20
5.219564
 30
0.0
 10
8.717124
 20
5.205423
 30
0.0
 10
8.755994
 20
5.206082
 30
0.0
 10
8.788542
 20
5.222963
 30
0.0
 10
8.805003
 20
5.257487
 30
0.0
 10
8.747597
 20
5.288269
 30
0.0
 10
8.684288
 20
5.302134
 30
0.0
 10
8.684288
 20
5.302134
 30
0.0
 10
8.684288
 20
5.302253
 30
0.0
  0
LWPOLYLINE
  5
182
100
AcDbEntity
  8
Layer_1
 62
7
100
AcDbPolyline
 90
13
 70
0
 10
5.242168
 20
5.293984
 30
0.0
 10
5.229160
 20
5.285441
 30
0.0
 10
5.134030
 20
5.222548
 30
0.0
 10
5.095635
 20
5.182736
 30
0.0
 10
5.078513
 20
5.129555
 30
0.0
 10
5.081962
 20
5.110432
 30
0.0
 10
5.096814
 20
5.103389
 30
0.0
 10
5.133247
 20
5.114507
 30
0.0
 10
5.178821
 20
5.145174
 30
0.0
 10
5.211722
 20
5.188639
 30
0.0
 10
5.232615
 20
5.239908
 30
0.0
 10
5.242168
 20
5.293984
 30
0.0
 10
5.242168
 20
5.293984
 30
0.0
  0
LWPOLYLINE
  5
183
100
AcDbEntity
  8
Layer_1
 62
7
100
AcDbPolyline
 90
13
 70
0
 10
6.767658
 20
5.014902
 30
0.0
 10
6.743304
 20
5.003416
 30
0.0
 10
6.732463
 20
4.978938
 30
0.0
 10
6.735829
 20
4.951042
 30
0.0
 10
6.754097
 20
4.929299
 30
0.0
 10
6.783920
 20
4.922395
 30
0.0
 10
6.809454
 20
4.937616
 30
0.0
 10
6.821958
 20
4.965049
 30
0.0
 10
6.812692
 20
4.994783
 30
0.0
 10
6.796949
 20
5.009141
 30
0.0
 10
6.776364
 20
5.014572
 30
0.0
 10
6.767658
 20
5.014911
 30
0.0
 10
6.767658
 20
5.014902
 30
0.0
  0
LWPOLYLINE
  5
184
100
AcDbEntity
  8
Layer_1
 62
7
100
AcDbPolyline
 90
13
 70
0
 10
11.305040
 20
5.002445
 30
0.0
 10
11.286648
 20
4.999024
 30
0.0
 10
11.274423
 20
4.988907
 30
0.0
 10
11.267115
 20
4.957579
 30
0.0
 10
11.280397
 20
4.926456
 30
0.0
 10
11.293908
 20
4.916595
 30
0.0
 10
11.311546
 20
4.913534
 30
0.0
 10
11.340954
 20
4.926588
 30
0.0
 10
11.351840
 20
4.956420
 30
0.0
 10
11.343391
 20
4.986941
 30
0.0
 10
11.314797
 20
5.002058
 30
0.0
 10
11.305040
 20
5.002454
 30
0.0
 10
11.305040
 20
5.002445
 30
0.0
  0
LWPOLYLINE
  5
185
100
AcDbEntity
  8
Layer_1
 62
7
100
AcDbPolyline
 90
14
 70
0
 10
0.402223
 20
4.547802
 30
0.0
 10
0.419585
 20
4.527132
 30
0.0
 10
0.488984
 20
4.444616
 30
0.0
 10
0.484423
 20
4.417756
 30
0.0
 10
0.498812
 20
4.395662
 30
0.0
 10
0.523804
 20
4.381508
 30
0.0
 10
0.551050
 20
4.378469
 30
0.0
 10
0.704093
 20
4.350464
 30
0.0
 10
0.781502
 20
4.346157
 30
0.0
 10
0.858904
 20
4.353831
 30
0.0
 10
0.752617
 20
4.418815
 30
0.0
 10
0.637618
 20
4.466077
 30
0.0
 10
0.402223
 20
4.547802
 30
0.0
 10
0.402223
 20
4.547802
 30
0.0
  0
LWPOLYLINE
  5
186
100
AcDbEntity
  8
Layer_1
 62
7
100
AcDbPolyline
 90
14
 70
0
 10
1.636669
 20
4.534354
 30
0.0
 10
1.635004
 20
4.527462
 30
0.0
 10
1.634665
 20
4.525967
 30
0.0
 10
1.614024
 20
4.461581
 30
0.0
 10
1.609450
 20
4.429761
 30
0.0
 10
1.624192
 20
4.400564
 30
0.0
 10
1.730155
 20
4.370515
 30
0.0
 10
1.838616
 20
4.346600
 30
0.0
 10
1.929596
 20
4.335278
 30
0.0
 10
2.021233
 20
4.337617
 30
0.0
 10
1.932499
 20
4.399877
 30
0.0
 10
1.836011
 20
4.448694
 30
0.0
 10
1.636649
 20
4.534346
 30
0.0
 10
1.636669
 20
4.534354
 30
0.0
  0
LWPOLYLINE
  5
187
100
AcDbEntity
  8
Layer_1
 62
7
100
AcDbPolyline
 90
27
 70
0
 10
2.876242
 20
4.525092
 30
0.0
 10
2.876525
 20
4.518036
 30
0.0
 10
2.876807
 20
4.513188
 30
0.0
 10
2.879643
 20
4.490046
 30
0.0
 10
2.875118
 20
4.465171
 30
0.0
 10
2.862972
 20
4.414190
 30
0.0
 10
2.881731
 20
4.384943
 30
0.0
 10
2.913055
 20
4.370918
 30
0.0
 10
2.982366
 20
4.352120
 30
0.0
 10
3.090189
 20
4.326803
 30
0.0
 10
3.200592
 20
4.320040
 30
0.0
 10
3.194063
 20
4.292206
 30
0.0
 10
3.201462
 20
4.263372
 30
0.0
 10
3.220277
 20
4.243510
 30
0.0
 10
3.247997
 20
4.242596
 30
0.0
 10
3.276226
 20
4.268403
 30
0.0
 10
3.289017
 20
4.306366
 30
0.0
 10
3.281615
 20
4.342167
 30
0.0
 10
3.268856
 20
4.354784
 30
0.0
 10
3.249267
 20
4.361493
 30
0.0
 10
3.221623
 20
4.348662
 30
0.0
 10
3.201532
 20
4.332387
 30
0.0
 10
3.126187
 20
4.389804
 30
0.0
 10
3.045238
 20
4.438843
 30
0.0
 10
2.876369
 20
4.525092
 30
0.0
 10
2.876369
 20
4.525092
 30
0.0
 10
2.876242
 20
4.525092
 30
0.0
  0
LWPOLYLINE
  5
188
100
AcDbEntity
  8
Layer_1
 62
7
100
AcDbPolyline
 90
13
 70
0
 10
4.148557
 20
4.500840
 30
0.0
 10
4.148557
 20
4.486619
 30
0.0
 10
4.146427
 20
4.435996
 30
0.0
 10
4.132075
 20
4.386571
 30
0.0
 10
4.143494
 20
4.355804
 30
0.0
 10
4.171272
 20
4.337295
 30
0.0
 10
4.237028
 20
4.315686
 30
0.0
 10
4.322316
 20
4.290813
 30
0.0
 10
4.410989
 20
4.283992
 30
0.0
 10
4.353030
 20
4.346679
 30
0.0
 10
4.286845
 20
4.400347
 30
0.0
 10
4.148557
 20
4.500840
 30
0.0
 10
4.148557
 20
4.500840
 30
0.0
  0
LWPOLYLINE
  5
189
100
AcDbEntity
  8
Layer_1
 62
7
100
AcDbPolyline
 90
16
 70
0
 10
12.102318
 20
4.442245
 30
0.0
 10
12.094326
 20
4.441737
 30
0.0
 10
12.028488
 20
4.403393
 30
0.0
 10
11.967450
 20
4.357527
 30
0.0
 10
11.912371
 20
4.304639
 30
0.0
 10
11.864413
 20
4.245229
 30
0.0
 10
12.045410
 20
4.294982
 30
0.0
 10
12.131319
 20
4.330937
 30
0.0
 10
12.207875
 20
4.385073
 30
0.0
 10
12.167242
 20
4.381430
 30
0.0
 10
12.150793
 20
4.390650
 30
0.0
 10
12.140794
 20
4.409381
 30
0.0
 10
12.125603
 20
4.431362
 30
0.0
 10
12.102318
 20
4.442178
 30
0.0
 10
12.102318
 20
4.442178
 30
0.0
 10
12.102318
 20
4.442245
 30
0.0
  0
LWPOLYLINE
  5
18a
100
AcDbEntity
  8
Layer_1
 62
7
100
AcDbPolyline
 90
14
 70
0
 10
4.605074
 20
4.432489
 30
0.0
 10
4.590576
 20
4.422072
 30
0.0
 10
4.514158
 20
4.363039
 30
0.0
 10
4.454352
 20
4.287308
 30
0.0
 10
4.413448
 20
4.199859
 30
0.0
 10
4.393737
 20
4.105673
 30
0.0
 10
4.413807
 20
4.082975
 30
0.0
 10
4.443454
 20
4.081041
 30
0.0
 10
4.470182
 20
4.096067
 30
0.0
 10
4.481491
 20
4.124249
 30
0.0
 10
4.555858
 20
4.273714
 30
0.0
 10
4.585975
 20
4.351271
 30
0.0
 10
4.605074
 20
4.432489
 30
0.0
 10
4.605074
 20
4.432489
 30
0.0
  0
LWPOLYLINE
  5
18b
100
AcDbEntity
  8
Layer_1
 62
7
100
AcDbPolyline
 90
15
 70
0
 10
11.685324
 20
4.416394
 30
0.0
 10
11.688191
 20
4.399968
 30
0.0
 10
11.711242
 20
4.302924
 30
0.0
 10
11.749138
 20
4.210741
 30
0.0
 10
11.849475
 20
4.038645
 30
0.0
 10
11.874310
 20
4.037790
 30
0.0
 10
11.889875
 20
4.054956
 30
0.0
 10
11.895947
 20
4.080668
 30
0.0
 10
11.892305
 20
4.105453
 30
0.0
 10
11.876680
 20
4.166388
 30
0.0
 10
11.851891
 20
4.224397
 30
0.0
 10
11.786802
 20
4.332387
 30
0.0
 10
11.739091
 20
4.377957
 30
0.0
 10
11.685324
 20
4.416394
 30
0.0
 10
11.685324
 20
4.416394
 30
0.0
  0
LWPOLYLINE
  5
18c
100
AcDbEntity
  8
Layer_1
 62
7
100
AcDbPolyline
 90
16
 70
0
 10
5.938410
 20
4.304772
 30
0.0
 10
5.924352
 20
4.299204
 30
0.0
 10
5.850189
 20
4.265689
 30
0.0
 10
5.783247
 20
4.217969
 30
0.0
 10
5.729077
 20
4.157179
 30
0.0
 10
5.693229
 20
4.084452
 30
0.0
 10
5.690669
 20
4.049997
 30
0.0
 10
5.699947
 20
4.038307
 30
0.0
 10
5.717924
 20
4.038425
 30
0.0
 10
5.768150
 20
4.059638
 30
0.0
 10
5.806883
 20
4.097574
 30
0.0
 10
5.841181
 20
4.141571
 30
0.0
 10
5.878105
 20
4.180970
 30
0.0
 10
5.914305
 20
4.239800
 30
0.0
 10
5.938410
 20
4.304772
 30
0.0
 10
5.938410
 20
4.304772
 30
0.0
  0
LWPOLYLINE
  5
18d
100
AcDbEntity
  8
Layer_1
 62
7
100
AcDbPolyline
 90
14
 70
0
 10
10.403033
 20
4.275779
 30
0.0
 10
10.399559
 20
4.272912
 30
0.0
 10
10.377420
 20
4.248077
 30
0.0
 10
10.377457
 20
4.216969
 30
0.0
 10
10.392666
 20
4.186327
 30
0.0
 10
10.416040
 20
4.162890
 30
0.0
 10
10.514544
 20
4.051840
 30
0.0
 10
10.628368
 20
3.956679
 30
0.0
 10
10.600796
 20
4.054205
 30
0.0
 10
10.554240
 20
4.144835
 30
0.0
 10
10.488414
 20
4.221149
 30
0.0
 10
10.403033
 20
4.275723
 30
0.0
 10
10.403033
 20
4.275723
 30
0.0
 10
10.403033
 20
4.275779
 30
0.0
  0
LWPOLYLINE
  5
18e
100
AcDbEntity
  8
Layer_1
 62
7
100
AcDbPolyline
 90
12
 70
0
 10
8.122818
 20
4.224900
 30
0.0
 10
8.061706
 20
4.211827
 30
0.0
 10
8.003227
 20
4.190050
 30
0.0
 10
7.893513
 20
4.129981
 30
0.0
 10
8.104275
 20
4.116301
 30
0.0
 10
8.315415
 20
4.121988
 30
0.0
 10
8.303759
 20
4.166583
 30
0.0
 10
8.270961
 20
4.196693
 30
0.0
 10
8.226890
 20
4.214159
 30
0.0
 10
8.181413
 20
4.220822
 30
0.0
 10
8.122818
 20
4.224900
 30
0.0
 10
8.122818
 20
4.224900
 30
0.0
  0
LWPOLYLINE
  5
18f
100
AcDbEntity
  8
Layer_1
 62
7
100
AcDbPolyline
 90
14
 70
0
 10
0.716692
 20
3.514053
 30
0.0
 10
0.697161
 20
3.510447
 30
0.0
 10
0.683830
 20
3.499414
 30
0.0
 10
0.674833
 20
3.465065
 30
0.0
 10
0.687827
 20
3.431011
 30
0.0
 10
0.701984
 20
3.420347
 30
0.0
 10
0.720937
 20
3.417259
 30
0.0
 10
0.741109
 20
3.422411
 30
0.0
 10
0.755188
 20
3.434128
 30
0.0
 10
0.765422
 20
3.468100
 30
0.0
 10
0.752353
 20
3.500850
 30
0.0
 10
0.737302
 20
3.511040
 30
0.0
 10
0.716692
 20
3.514053
 30
0.0
 10
0.716692
 20
3.514053
 30
0.0
  0
LWPOLYLINE
  5
190
100
AcDbEntity
  8
Layer_1
 62
7
100
AcDbPolyline
 90
14
 70
0
 10
4.128547
 20
3.342295
 30
0.0
 10
4.109039
 20
3.339129
 30
0.0
 10
4.095650
 20
3.328408
 30
0.0
 10
4.086344
 20
3.294346
 30
0.0
 10
4.098871
 20
3.260198
 30
0.0
 10
4.112772
 20
3.249369
 30
0.0
 10
4.131471
 20
3.246052
 30
0.0
 10
4.151614
 20
3.250750
 30
0.0
 10
4.165712
 20
3.262130
 30
0.0
 10
4.176145
 20
3.295762
 30
0.0
 10
4.163509
 20
3.328600
 30
0.0
 10
4.148773
 20
3.338987
 30
0.0
 10
4.128547
 20
3.342295
 30
0.0
 10
4.128547
 20
3.342295
 30
0.0
  0
LWPOLYLINE
  5
191
100
AcDbEntity
  8
Layer_1
 62
7
100
AcDbPolyline
 90
24
 70
0
 10
2.527983
 20
3.338768
 30
0.0
 10
2.529648
 20
3.331876
 30
0.0
 10
2.530692
 20
3.327688
 30
0.0
 10
2.538602
 20
3.297607
 30
0.0
 10
2.536125
 20
3.265063
 30
0.0
 10
2.536774
 20
3.234052
 30
0.0
 10
2.554063
 20
3.208570
 30
0.0
 10
2.692835
 20
3.193576
 30
0.0
 10
2.833031
 20
3.199090
 30
0.0
 10
2.866445
 20
3.205030
 30
0.0
 10
2.879017
 20
3.201447
 30
0.0
 10
2.886391
 20
3.186080
 30
0.0
 10
2.912114
 20
3.167629
 30
0.0
 10
2.942311
 20
3.170235
 30
0.0
 10
2.965645
 20
3.189252
 30
0.0
 10
2.970781
 20
3.220037
 30
0.0
 10
2.954196
 20
3.247115
 30
0.0
 10
2.924382
 20
3.259448
 30
0.0
 10
2.894424
 20
3.253962
 30
0.0
 10
2.877405
 20
3.227586
 30
0.0
 10
2.794397
 20
3.266439
 30
0.0
 10
2.707096
 20
3.295236
 30
0.0
 10
2.527989
 20
3.338768
 30
0.0
 10
2.527983
 20
3.338768
 30
0.0
  0
LWPOLYLINE
  5
192
100
AcDbEntity
  8
Layer_1
 62
7
100
AcDbPolyline
 90
15
 70
0
 10
0.163381
 20
3.330939
 30
0.0
 10
0.141355
 20
3.317796
 30
0.0
 10
0.128796
 20
3.297710
 30
0.0
 10
0.128546
 20
3.248753
 30
0.0
 10
0.155567
 20
3.208147
 30
0.0
 10
0.177096
 20
3.198500
 30
0.0
 10
0.202794
 20
3.199971
 30
0.0
 10
0.415702
 20
3.191777
 30
0.0
 10
0.521799
 20
3.196306
 30
0.0
 10
0.626457
 20
3.215736
 30
0.0
 10
0.515577
 20
3.261647
 30
0.0
 10
0.400338
 20
3.294777
 30
0.0
 10
0.282390
 20
3.317187
 30
0.0
 10
0.163381
 20
3.330939
 30
0.0
 10
0.163381
 20
3.330939
 30
0.0
  0
LWPOLYLINE
  5
193
100
AcDbEntity
  8
Layer_1
 62
7
100
AcDbPolyline
 90
15
 70
0
 10
1.367677
 20
3.325760
 30
0.0
 10
1.365137
 20
3.322783
 30
0.0
 10
1.347243
 20
3.291519
 30
0.0
 10
1.340072
 20
3.254124
 30
0.0
 10
1.348589
 20
3.220327
 30
0.0
 10
1.377761
 20
3.199861
 30
0.0
 10
1.558089
 20
3.190161
 30
0.0
 10
1.647948
 20
3.192934
 30
0.0
 10
1.735720
 20
3.211548
 30
0.0
 10
1.734871
 20
3.227143
 30
0.0
 10
1.719647
 20
3.236748
 30
0.0
 10
1.682914
 20
3.249913
 30
0.0
 10
1.527737
 20
3.297532
 30
0.0
 10
1.367674
 20
3.325760
 30
0.0
 10
1.367677
 20
3.325760
 30
0.0
  0
LWPOLYLINE
  5
194
100
AcDbEntity
  8
Layer_1
 62
7
100
AcDbPolyline
 90
16
 70
0
 10
3.770147
 20
3.314237
 30
0.0
 10
3.748813
 20
3.305659
 30
0.0
 10
3.734427
 20
3.289412
 30
0.0
 10
3.725750
 20
3.245348
 30
0.0
 10
3.742621
 20
3.204916
 30
0.0
 10
3.760169
 20
3.193210
 30
0.0
 10
3.783542
 20
3.190988
 30
0.0
 10
3.866259
 20
3.186813
 30
0.0
 10
3.905133
 20
3.192745
 30
0.0
 10
3.933252
 20
3.221194
 30
0.0
 10
3.922992
 20
3.257084
 30
0.0
 10
3.893831
 20
3.278231
 30
0.0
 10
3.821300
 20
3.302003
 30
0.0
 10
3.796323
 20
3.311006
 30
0.0
 10
3.770147
 20
3.314237
 30
0.0
 10
3.770147
 20
3.314237
 30
0.0
  0
LWPOLYLINE
  5
195
100
AcDbEntity
  8
Layer_1
 62
7
100
AcDbPolyline
 90
14
 70
0
 10
12.508896
 20
3.297315
 30
0.0
 10
12.494288
 20
3.295650
 30
0.0
 10
12.363757
 20
3.245995
 30
0.0
 10
12.302585
 20
3.213025
 30
0.0
 10
12.247948
 20
3.169587
 30
0.0
 10
12.428263
 20
3.168104
 30
0.0
 10
12.517066
 20
3.178828
 30
0.0
 10
12.601885
 20
3.209056
 30
0.0
 10
12.577296
 20
3.211376
 30
0.0
 10
12.560538
 20
3.224644
 30
0.0
 10
12.544614
 20
3.267814
 30
0.0
 10
12.530991
 20
3.288854
 30
0.0
 10
12.508896
 20
3.297304
 30
0.0
 10
12.508896
 20
3.297315
 30
0.0
  0
LWPOLYLINE
  5
196
100
AcDbEntity
  8
Layer_1
 62
7
100
AcDbPolyline
 90
13
 70
0
 10
9.739534
 20
3.235745
 30
0.0
 10
9.733139
 20
3.229903
 30
0.0
 10
9.752792
 20
3.117941
 30
0.0
 10
9.788483
 20
3.008480
 30
0.0
 10
9.825822
 20
2.928254
 30
0.0
 10
9.873369
 20
2.853588
 30
0.0
 10
9.882503
 20
2.950634
 30
0.0
 10
9.874552
 20
3.049574
 30
0.0
 10
9.842141
 20
3.140604
 30
0.0
 10
9.814460
 20
3.180088
 30
0.0
 10
9.777899
 20
3.213918
 30
0.0
 10
9.739534
 20
3.235745
 30
0.0
 10
9.739534
 20
3.235745
 30
0.0
  0
LWPOLYLINE
  5
197
100
AcDbEntity
  8
Layer_1
 62
7
100
AcDbPolyline
 90
14
 70
0
 10
6.480971
 20
3.183709
 30
0.0
 10
6.457169
 20
3.173745
 30
0.0
 10
6.437876
 20
3.157042
 30
0.0
 10
6.414163
 20
3.110382
 30
0.0
 10
6.412526
 20
3.057653
 30
0.0
 10
6.435660
 20
3.012778
 30
0.0
 10
6.468679
 20
3.014780
 30
0.0
 10
6.491323
 20
3.036812
 30
0.0
 10
6.514428
 20
3.100313
 30
0.0
 10
6.522634
 20
3.126008
 30
0.0
 10
6.520527
 20
3.153780
 30
0.0
 10
6.507006
 20
3.175666
 30
0.0
 10
6.480971
 20
3.183709
 30
0.0
 10
6.480971
 20
3.183709
 30
0.0
  0
LWPOLYLINE
  5
198
100
AcDbEntity
  8
Layer_1
 62
7
100
AcDbPolyline
 90
13
 70
0
 10
8.652372
 20
3.097225
 30
0.0
 10
8.642285
 20
3.096773
 30
0.0
 10
8.624104
 20
3.091618
 30
0.0
 10
8.612741
 20
3.079827
 30
0.0
 10
8.608343
 20
3.046200
 30
0.0
 10
8.624843
 20
3.015618
 30
0.0
 10
8.639602
 20
3.007633
 30
0.0
 10
8.657994
 20
3.007806
 30
0.0
 10
8.685570
 20
3.026247
 30
0.0
 10
8.692489
 20
3.055754
 30
0.0
 10
8.680755
 20
3.083639
 30
0.0
 10
8.652372
 20
3.097214
 30
0.0
 10
8.652372
 20
3.097225
 30
0.0
  0
LWPOLYLINE
  5
199
100
AcDbEntity
  8
Layer_1
 62
7
100
AcDbPolyline
 90
14
 70
0
 10
7.410650
 20
2.224760
 30
0.0
 10
7.400948
 20
2.224478
 30
0.0
 10
7.383075
 20
2.220253
 30
0.0
 10
7.371608
 20
2.209224
 30
0.0
 10
7.366170
 20
2.176658
 30
0.0
 10
7.381194
 20
2.146587
 30
0.0
 10
7.395305
 20
2.138677
 30
0.0
 10
7.413241
 20
2.138818
 30
0.0
 10
7.441916
 20
2.154941
 30
0.0
 10
7.449371
 20
2.183111
 30
0.0
 10
7.438111
 20
2.210591
 30
0.0
 10
7.410645
 20
2.224642
 30
0.0
 10
7.410645
 20
2.224642
 30
0.0
 10
7.410650
 20
2.224760
 30
0.0
  0
LWPOLYLINE
  5
19a
100
AcDbEntity
  8
Layer_1
 62
7
100
AcDbPolyline
 90
14
 70
0
 10
12.248611
 20
2.179342
 30
0.0
 10
12.230811
 20
2.175013
 30
0.0
 10
12.219003
 20
2.164391
 30
0.0
 10
12.212038
 20
2.132734
 30
0.0
 10
12.225069
 20
2.101312
 30
0.0
 10
12.255446
 20
2.087067
 30
0.0
 10
12.274857
 20
2.087708
 30
0.0
 10
12.289430
 20
2.096377
 30
0.0
 10
12.303267
 20
2.127889
 30
0.0
 10
12.295371
 20
2.161783
 30
0.0
 10
12.282778
 20
2.173429
 30
0.0
 10
12.264156
 20
2.178239
 30
0.0
 10
12.248611
 20
2.179340
 30
0.0
 10
12.248611
 20
2.179342
 30
0.0
  0
LWPOLYLINE
  5
19b
100
AcDbEntity
  8
Layer_1
 62
7
100
AcDbPolyline
 90
12
 70
0
 10
7.292470
 20
2.114078
 30
0.0
 10
7.266087
 20
2.106430
 30
0.0
 10
7.253418
 20
2.084577
 30
0.0
 10
7.254913
 20
2.057880
 30
0.0
 10
7.271027
 20
2.035694
 30
0.0
 10
7.299774
 20
2.025420
 30
0.0
 10
7.325739
 20
2.040131
 30
0.0
 10
7.338735
 20
2.067988
 30
0.0
 10
7.328575
 20
2.097154
 30
0.0
 10
7.312559
 20
2.110008
 30
0.0
 10
7.292470
 20
2.114078
 30
0.0
 10
7.292470
 20
2.114078
 30
0.0
  0
LWPOLYLINE
  5
19c
100
AcDbEntity
  8
Layer_1
 62
7
100
AcDbPolyline
 90
16
 70
0
 10
3.607373
 20
2.110714
 30
0.0
 10
3.610791
 20
2.104542
 30
0.0
 10
3.613825
 20
2.099084
 30
0.0
 10
3.629976
 20
2.074872
 30
0.0
 10
3.637234
 20
2.046904
 30
0.0
 10
3.643357
 20
2.018471
 30
0.0
 10
3.656101
 20
1.992864
 30
0.0
 10
3.690543
 20
1.984327
 30
0.0
 10
3.726131
 20
1.987861
 30
0.0
 10
3.797269
 20
2.002677
 30
0.0
 10
3.875540
 20
2.027200
 30
0.0
 10
3.950174
 20
2.061326
 30
0.0
 10
3.866710
 20
2.085478
 30
0.0
 10
3.780855
 20
2.097571
 30
0.0
 10
3.607373
 20
2.110714
 30
0.0
 10
3.607373
 20
2.110714
 30
0.0
  0
LWPOLYLINE
  5
19d
100
AcDbEntity
  8
Layer_1
 62
7
100
AcDbPolyline
 90
13
 70
0
 10
0.134386
 20
2.109332
 30
0.0
 10
0.133737
 20
2.102496
 30
0.0
 10
0.126795
 20
2.066443
 30
0.0
 10
0.127732
 20
2.027686
 30
0.0
 10
0.141773
 20
1.995204
 30
0.0
 10
0.174142
 20
1.977977
 30
0.0
 10
0.383593
 20
2.001630
 30
0.0
 10
0.486858
 20
2.021230
 30
0.0
 10
0.586286
 20
2.055918
 30
0.0
 10
0.476393
 20
2.087438
 30
0.0
 10
0.363153
 20
2.100283
 30
0.0
 10
0.134397
 20
2.109332
 30
0.0
 10
0.134386
 20
2.109332
 30
0.0
  0
LWPOLYLINE
  5
19e
100
AcDbEntity
  8
Layer_1
 62
7
100
AcDbPolyline
 90
14
 70
0
 10
1.275678
 20
2.108880
 30
0.0
 10
1.276497
 20
2.101878
 30
0.0
 10
1.276835
 20
2.100382
 30
0.0
 10
1.280303
 20
2.030998
 30
0.0
 10
1.288803
 20
1.998686
 30
0.0
 10
1.315144
 20
1.977791
 30
0.0
 10
1.571405
 20
2.011858
 30
0.0
 10
1.641162
 20
2.031221
 30
0.0
 10
1.707888
 20
2.059373
 30
0.0
 10
1.602379
 20
2.087398
 30
0.0
 10
1.494148
 20
2.099402
 30
0.0
 10
1.275788
 20
2.108871
 30
0.0
 10
1.275788
 20
2.108871
 30
0.0
 10
1.275678
 20
2.108880
 30
0.0
  0
LWPOLYLINE
  5
19f
100
AcDbEntity
  8
Layer_1
 62
7
100
AcDbPolyline
 90
15
 70
0
 10
2.440782
 20
2.108485
 30
0.0
 10
2.443869
 20
2.102146
 30
0.0
 10
2.445732
 20
2.098178
 30
0.0
 10
2.460240
 20
2.071040
 30
0.0
 10
2.464524
 20
2.039685
 30
0.0
 10
2.470670
 20
2.009727
 30
0.0
 10
2.490766
 20
1.986777
 30
0.0
 10
2.566365
 20
1.989915
 30
0.0
 10
2.642404
 20
2.002485
 30
0.0
 10
2.744877
 20
2.026468
 30
0.0
 10
2.841670
 20
2.067585
 30
0.0
 10
2.743251
 20
2.090716
 30
0.0
 10
2.642992
 20
2.102501
 30
0.0
 10
2.440771
 20
2.108485
 30
0.0
 10
2.440782
 20
2.108485
 30
0.0
  0
LWPOLYLINE
  5
1a0
100
AcDbEntity
  8
Layer_1
 62
7
100
AcDbPolyline
 90
15
 70
0
 10
7.543713
 20
2.098562
 30
0.0
 10
7.540735
 20
2.092170
 30
0.0
 10
7.539465
 20
2.089302
 30
0.0
 10
7.525898
 20
2.057677
 30
0.0
 10
7.504120
 20
2.028198
 30
0.0
 10
7.488549
 20
1.997950
 30
0.0
 10
7.493604
 20
1.964012
 30
0.0
 10
7.661526
 20
1.836032
 30
0.0
 10
7.840099
 20
1.723791
 30
0.0
 10
7.836330
 20
1.762972
 30
0.0
 10
7.824375
 20
1.798487
 30
0.0
 10
7.782449
 20
1.860928
 30
0.0
 10
7.672310
 20
1.968311
 30
0.0
 10
7.543710
 20
2.098562
 30
0.0
 10
7.543713
 20
2.098562
 30
0.0
  0
LWPOLYLINE
  5
1a1
100
AcDbEntity
  8
Layer_1
 62
7
100
AcDbPolyline
 90
15
 70
0
 10
12.620955
 20
2.087152
 30
0.0
 10
12.486686
 20
2.074977
 30
0.0
 10
12.420667
 20
2.062129
 30
0.0
 10
12.357916
 20
2.037212
 30
0.0
 10
12.446129
 20
2.003384
 30
0.0
 10
12.537406
 20
1.977072
 30
0.0
 10
12.630716
 20
1.963191
 30
0.0
 10
12.725025
 20
1.966657
 30
0.0
 10
12.678198
 20
1.994100
 30
0.0
 10
12.666293
 20
2.016744
 30
0.0
 10
12.669960
 20
2.044435
 30
0.0
 10
12.665864
 20
2.061896
 30
0.0
 10
12.654508
 20
2.075479
 30
0.0
 10
12.620955
 20
2.087152
 30
0.0
 10
12.620955
 20
2.087152
 30
0.0
  0
LWPOLYLINE
  5
1a2
100
AcDbEntity
  8
Layer_1
 62
7
100
AcDbPolyline
 90
17
 70
0
 10
8.717746
 20
2.065158
 30
0.0
 10
8.717746
 20
2.065158
 30
0.0
 10
8.653471
 20
2.017969
 30
0.0
 10
8.595791
 20
1.962440
 30
0.0
 10
8.484142
 20
1.847153
 30
0.0
 10
8.477791
 20
1.818190
 30
0.0
 10
8.491892
 20
1.792943
 30
0.0
 10
8.517400
 20
1.780924
 30
0.0
 10
8.545271
 20
1.791645
 30
0.0
 10
8.782789
 20
1.962302
 30
0.0
 10
8.875172
 20
2.050991
 30
0.0
 10
8.811222
 20
2.031931
 30
0.0
 10
8.780022
 20
2.031394
 30
0.0
 10
8.755118
 20
2.051273
 30
0.0
 10
8.737768
 20
2.062070
 30
0.0
 10
8.717746
 20
2.065217
 30
0.0
 10
8.717746
 20
2.065158
 30
0.0
  0
LWPOLYLINE
  5
1a3
100
AcDbEntity
  8
Layer_1
 62
7
100
AcDbPolyline
 90
17
 70
0
 10
5.415526
 20
1.219045
 30
0.0
 10
5.411281
 20
1.215350
 30
0.0
 10
5.389171
 20
1.178018
 30
0.0
 10
5.390049
 20
1.135695
 30
0.0
 10
5.415415
 20
1.050868
 30
0.0
 10
5.430609
 20
1.003787
 30
0.0
 10
5.453927
 20
0.958700
 30
0.0
 10
5.486501
 20
0.921388
 30
0.0
 10
5.529461
 20
0.897630
 30
0.0
 10
5.557190
 20
0.914050
 30
0.0
 10
5.565565
 20
0.943305
 30
0.0
 10
5.559457
 20
0.976498
 30
0.0
 10
5.543739
 20
1.004731
 30
0.0
 10
5.493573
 20
1.121768
 30
0.0
 10
5.462147
 20
1.176174
 30
0.0
 10
5.415526
 20
1.219045
 30
0.0
 10
5.415526
 20
1.219045
 30
0.0
  0
LWPOLYLINE
  5
1a4
100
AcDbEntity
  8
Layer_1
 62
7
100
AcDbPolyline
 90
16
 70
0
 10
10.857673
 20
1.198869
 30
0.0
 10
10.847917
 20
1.198417
 30
0.0
 10
10.805274
 20
1.159071
 30
0.0
 10
10.778080
 20
1.107785
 30
0.0
 10
10.756177
 20
1.052344
 30
0.0
 10
10.729406
 20
1.000531
 30
0.0
 10
10.693434
 20
0.904008
 30
0.0
 10
10.668443
 20
0.803966
 30
0.0
 10
10.752921
 20
0.878499
 30
0.0
 10
10.823506
 20
0.968112
 30
0.0
 10
10.869917
 20
1.070089
 30
0.0
 10
10.880845
 20
1.124866
 30
0.0
 10
10.881874
 20
1.181715
 30
0.0
 10
10.857673
 20
1.198804
 30
0.0
 10
10.857673
 20
1.198804
 30
0.0
 10
10.857673
 20
1.198869
 30
0.0
  0
LWPOLYLINE
  5
1a5
100
AcDbEntity
  8
Layer_1
 62
7
100
AcDbPolyline
 90
18
 70
0
 10
4.215254
 20
1.166678
 30
0.0
 10
4.211893
 20
1.166170
 30
0.0
 10
4.189997
 20
1.125731
 30
0.0
 10
4.182585
 20
1.079344
 30
0.0
 10
4.186065
 20
1.031157
 30
0.0
 10
4.196845
 20
0.985317
 30
0.0
 10
4.219595
 20
0.922662
 30
0.0
 10
4.239721
 20
0.899658
 30
0.0
 10
4.271865
 20
0.895525
 30
0.0
 10
4.295887
 20
0.908856
 30
0.0
 10
4.303993
 20
0.932859
 30
0.0
 10
4.293582
 20
0.986860
 30
0.0
 10
4.265889
 20
1.081215
 30
0.0
 10
4.246834
 20
1.126146
 30
0.0
 10
4.218672
 20
1.165453
 30
0.0
 10
4.215254
 20
1.166611
 30
0.0
 10
4.215254
 20
1.166611
 30
0.0
 10
4.215254
 20
1.166678
 30
0.0
  0
LWPOLYLINE
  5
1a6
100
AcDbEntity
  8
Layer_1
 62
7
100
AcDbPolyline
 90
13
 70
0
 10
12.058441
 20
1.133715
 30
0.0
 10
12.020685
 20
1.101365
 30
0.0
 10
12.001230
 20
1.056182
 30
0.0
 10
11.975372
 20
0.958043
 30
0.0
 10
11.964412
 20
0.874171
 30
0.0
 10
11.960820
 20
0.789426
 30
0.0
 10
12.018569
 20
0.859383
 30
0.0
 10
12.061985
 20
0.939563
 30
0.0
 10
12.086720
 20
1.026571
 30
0.0
 10
12.088427
 20
1.117013
 30
0.0
 10
12.075794
 20
1.130118
 30
0.0
 10
12.058441
 20
1.133715
 30
0.0
 10
12.058441
 20
1.133715
 30
0.0
  0
LWPOLYLINE
  5
1a7
100
AcDbEntity
  8
Layer_1
 62
7
100
AcDbPolyline
 90
15
 70
0
 10
4.049999
 20
0.938970
 30
0.0
 10
3.946840
 20
0.918815
 30
0.0
 10
3.846271
 20
0.889804
 30
0.0
 10
3.874153
 20
0.885194
 30
0.0
 10
3.896531
 20
0.871900
 30
0.0
 10
3.927410
 20
0.827571
 30
0.0
 10
3.950829
 20
0.807715
 30
0.0
 10
3.979404
 20
0.808962
 30
0.0
 10
4.035117
 20
0.836665
 30
0.0
 10
4.084119
 20
0.868410
 30
0.0
 10
4.098502
 20
0.892687
 30
0.0
 10
4.096577
 20
0.919900
 30
0.0
 10
4.074669
 20
0.933532
 30
0.0
 10
4.049999
 20
0.938970
 30
0.0
 10
4.049999
 20
0.938970
 30
0.0
  0
LWPOLYLINE
  5
1a8
100
AcDbEntity
  8
Layer_1
 62
7
100
AcDbPolyline
 90
11
 70
0
 10
2.880541
 20
0.936049
 30
0.0
 10
2.818060
 20
0.920362
 30
0.0
 10
2.765538
 20
0.883697
 30
0.0
 10
2.726972
 20
0.831908
 30
0.0
 10
2.706359
 20
0.770850
 30
0.0
 10
2.871046
 20
0.839037
 30
0.0
 10
2.950599
 20
0.878350
 30
0.0
 10
3.022865
 20
0.930374
 30
0.0
 10
2.951687
 20
0.931716
 30
0.0
 10
2.880541
 20
0.936049
 30
0.0
 10
2.880541
 20
0.936049
 30
0.0
  0
LWPOLYLINE
  5
1a9
100
AcDbEntity
  8
Layer_1
 62
7
100
AcDbPolyline
 90
15
 70
0
 10
1.727400
 20
0.927396
 30
0.0
 10
1.556159
 20
0.905229
 30
0.0
 10
1.471477
 20
0.889915
 30
0.0
 10
1.389944
 20
0.862242
 30
0.0
 10
1.449816
 20
0.847927
 30
0.0
 10
1.472389
 20
0.829287
 30
0.0
 10
1.482660
 20
0.799789
 30
0.0
 10
1.509087
 20
0.778462
 30
0.0
 10
1.541587
 20
0.777837
 30
0.0
 10
1.606573
 20
0.801821
 30
0.0
 10
1.730598
 20
0.841647
 30
0.0
 10
1.845138
 20
0.903244
 30
0.0
 10
1.786459
 20
0.917168
 30
0.0
 10
1.727400
 20
0.927388
 30
0.0
 10
1.727400
 20
0.927396
 30
0.0
  0
LWPOLYLINE
  5
1aa
100
AcDbEntity
  8
Layer_1
 62
7
100
AcDbPolyline
 90
26
 70
0
 10
0.592833
 20
0.923648
 30
0.0
 10
0.581753
 20
0.923366
 30
0.0
 10
0.386267
 20
0.902381
 30
0.0
 10
0.193974
 20
0.873647
 30
0.0
 10
0.168463
 20
0.891395
 30
0.0
 10
0.138725
 20
0.886309
 30
0.0
 10
0.117485
 20
0.864833
 30
0.0
 10
0.117464
 20
0.833408
 30
0.0
 10
0.134392
 20
0.809599
 30
0.0
 10
0.162291
 20
0.804850
 30
0.0
 10
0.189053
 20
0.816322
 30
0.0
 10
0.202573
 20
0.841180
 30
0.0
 10
0.223614
 20
0.834290
 30
0.0
 10
0.235193
 20
0.818088
 30
0.0
 10
0.248048
 20
0.777460
 30
0.0
 10
0.280376
 20
0.758438
 30
0.0
 10
0.317427
 20
0.761332
 30
0.0
 10
0.390813
 20
0.785506
 30
0.0
 10
0.519511
 20
0.816887
 30
0.0
 10
0.581593
 20
0.838981
 30
0.0
 10
0.637811
 20
0.872433
 30
0.0
 10
0.639681
 20
0.892874
 30
0.0
 10
0.629909
 20
0.908542
 30
0.0
 10
0.592833
 20
0.923533
 30
0.0
 10
0.592833
 20
0.923533
 30
0.0
 10
0.592833
 20
0.923648
 30
0.0
  0
LWPOLYLINE
  5
1ab
100
AcDbEntity
  8
Layer_1
 62
7
100
AcDbPolyline
 90
14
 70
0
 10
12.199222
 20
0.923366
 30
0.0
 10
12.178025
 20
0.899350
 30
0.0
 10
12.180428
 20
0.868479
 30
0.0
 10
12.199779
 20
0.841418
 30
0.0
 10
12.229428
 20
0.828833
 30
0.0
 10
12.266735
 20
0.811736
 30
0.0
 10
12.309642
 20
0.815813
 30
0.0
 10
12.342346
 20
0.838774
 30
0.0
 10
12.349933
 20
0.856621
 30
0.0
 10
12.349043
 20
0.878332
 30
0.0
 10
12.318676
 20
0.905222
 30
0.0
 10
12.280592
 20
0.918608
 30
0.0
 10
12.199222
 20
0.923366
 30
0.0
 10
12.199222
 20
0.923366
 30
0.0
  0
LWPOLYLINE
  5
1ac
100
AcDbEntity
  8
Layer_1
 62
7
100
AcDbPolyline
 90
4
 70
0
 10
0.175949
 20
0.856285
 30
0.0
 10
0.173095
 20
0.852303
 30
0.0
 10
0.175949
 20
0.856285
 30
0.0
 10
0.175949
 20
0.856285
 30
0.0
  0
LWPOLYLINE
  5
1ad
100
AcDbEntity
  8
Layer_1
 62
7
100
AcDbPolyline
 90
14
 70
0
 10
0.146403
 20
0.800004
 30
0.0
 10
0.146403
 20
0.800004
 30
0.0
 10
0.121046
 20
0.784458
 30
0.0
 10
0.112613
 20
0.754480
 30
0.0
 10
0.121929
 20
0.724954
 30
0.0
 10
0.149820
 20
0.710762
 30
0.0
 10
0.168324
 20
0.707494
 30
0.0
 10
0.183462
 20
0.712697
 30
0.0
 10
0.201743
 20
0.739656
 30
0.0
 10
0.200856
 20
0.773914
 30
0.0
 10
0.176996
 20
0.797743
 30
0.0
 10
0.155939
 20
0.799832
 30
0.0
 10
0.146403
 20
0.800114
 30
0.0
 10
0.146403
 20
0.800004
 30
0.0
  0
LWPOLYLINE
  5
1ae
100
AcDbEntity
  8
Layer_1
 62
7
100
AcDbPolyline
 90
12
 70
0
 10
11.890431
 20
0.723000
 30
0.0
 10
11.866129
 20
0.711050
 30
0.0
 10
11.856340
 20
0.685599
 30
0.0
 10
11.861268
 20
0.657227
 30
0.0
 10
11.881115
 20
0.636513
 30
0.0
 10
11.912811
 20
0.635373
 30
0.0
 10
11.935010
 20
0.657006
 30
0.0
 10
11.940638
 20
0.687947
 30
0.0
 10
11.922622
 20
0.714730
 30
0.0
 10
11.899361
 20
0.722559
 30
0.0
 10
11.890431
 20
0.723011
 30
0.0
 10
11.890431
 20
0.723000
 30
0.0
  0
ENDSEC
  0
SECTION
  2
OBJECTS
  0
DICTIONARY
  5
C
330
0
100
AcDbDictionary
  3
ACAD_GROUP
350
D
  3
ACAD_MLINESTYLE
350
17
  0
DICTIONARY
  5
D
330
C
100
AcDbDictionary
  0
DICTIONARY
  5
1A
330
C
100
AcDbDictionary
  0
DICTIONARY
  5
17
330
C
100
AcDbDictionary
  3
STANDARD
350
18
  0
DICTIONARY
  5
19
330
C
100
AcDbDictionary
  0
ENDSEC
  0
EOF
