  0
SECTION
  2
HEADER
  9
$ACADVER
  1
AC1014
  9
$HANDSEED
  5
FFFF
  9
$MEASUREMENT
 70
     1
  0
ENDSEC
  0
SECTION
  2
TABLES
  0
TABLE
  2
VPORT
  5
8
330
0
100
AcDbSymbolTable
 70
     4
  0
VPORT
  5
2E
330
8
100
AcDbSymbolTableRecord
100
AcDbViewportTableRecord
  2
*ACTIVE
 70
     0
 10
0.0
 20
0.0
 11
1.0
 21
1.0
 12
210.0
 22
148.5
 13
0.0
 23
0.0
 14
10.0
 24
10.0
 15
10.0
 25
10.0
 16
0.0
 26
0.0
 36
1.0
 17
0.0
 27
0.0
 37
0.0
 40
341.0
 41
1.24
 42
50.0
 43
0.0
 44
0.0
 50
0.0
 51
0.0
 71
     0
 72
   100
 73
     1
 74
     3
 75
     0
 76
     0
 77
     0
 78
     0
  0
ENDTAB
  0
TABLE
  2
LTYPE
  5
5
330
0
100
AcDbSymbolTable
 70
     1
  0
LTYPE
  5
14
330
5
100
AcDbSymbolTableRecord
100
AcDbLinetypeTableRecord
  2
BYBLOCK
 70
     0
  3

 72
    65
 73
     0
 40
0.0
  0
LTYPE
  5
15
330
5
100
AcDbSymbolTableRecord
100
AcDbLinetypeTableRecord
  2
BYLAYER
 70
     0
  3

 72
    65
 73
     0
 40
0.0
  0
LTYPE
  5
16
330
5
100
AcDbSymbolTableRecord
100
AcDbLinetypeTableRecord
  2
CONTINUOUS
 70
     0
  3
Solid line
 72
    65
 73
     0
 40
0.0
  0
ENDTAB
  0
TABLE
  2
LAYER
  5
2
100
AcDbSymbolTable
 70
2
  0
LAYER
  5
50
100
AcDbSymbolTableRecord
100
AcDbLayerTableRecord
  2
0
 70
0
  6
CONTINUOUS
  0
LAYER
  5
51
100
AcDbSymbolTableRecord
100
AcDbLayerTableRecord
  2
Layer_1
 70
0
  6
CONTINUOUS
  0
ENDTAB
  0
TABLE
  2
STYLE
  5
3
330
0
100
AcDbSymbolTable
 70
     1
  0
STYLE
  5
11
330
3
100
AcDbSymbolTableRecord
100
AcDbTextStyleTableRecord
  2
STANDARD
 70
     0
 40
0.0
 41
1.0
 50
0.0
 71
     0
 42
2.5
  3
txt
  4

  0
ENDTAB
  0
TABLE
  2
VIEW
  5
6
330
0
100
AcDbSymbolTable
 70
     0
  0
ENDTAB
  0
TABLE
  2
UCS
  5
7
330
0
100
AcDbSymbolTable
 70
     0
  0
ENDTAB
  0
TABLE
  2
APPID
  5
9
330
0
100
AcDbSymbolTable
 70
     2
  0
APPID
  5
12
330
9
100
AcDbSymbolTableRecord
100
AcDbRegAppTableRecord
  2
ACAD
 70
     0
  0
ENDTAB
  0
TABLE
  2
DIMSTYLE
  5
A
330
0
100
AcDbSymbolTable
 70
     1
  0
DIMSTYLE
105
27
330
A
100
AcDbSymbolTableRecord
100
AcDbDimStyleTableRecord
  2
ISO-25
 70
     0
  3

  4

  5

  6

  7

 40
1.0
 41
2.5
 42
0.625
 43
3.75
 44
1.25
 45
0.0
 46
0.0
 47
0.0
 48
0.0
140
2.5
141
2.5
142
0.0
143
0.03937007874016
144
1.0
145
0.0
146
1.0
147
0.625
 71
     0
 72
     0
 73
     0
 74
     0
 75
     0
 76
     0
 77
     1
 78
     8
170
     0
171
     3
172
     1
173
     0
174
     0
175
     0
176
     0
177
     0
178
     0
270
     2
271
     2
272
     2
273
     2
274
     3
340
11
275
     0
280
     0
281
     0
282
     0
283
     0
284
     8
285
     0
286
     0
287
     3
288
     0
  0
ENDTAB
  0
TABLE
  2
BLOCK_RECORD
  5
1
330
0
100
AcDbSymbolTable
 70
     1
  0
BLOCK_RECORD
  5
1F
330
1
100
AcDbSymbolTableRecord
100
AcDbBlockTableRecord
  2
*MODEL_SPACE
  0
BLOCK_RECORD
  5
1B
330
1
100
AcDbSymbolTableRecord
100
AcDbBlockTableRecord
  2
*PAPER_SPACE
  0
ENDTAB
  0
ENDSEC
  0
SECTION
  2
BLOCKS
  0
BLOCK
  5
20
330
1F
100
AcDbEntity
  8
0
100
AcDbBlockBegin
  2
*MODEL_SPACE
 70
     0
 10
0.0
 20
0.0
 30
0.0
  3
*MODEL_SPACE
  1

  0
ENDBLK
  5
21
330
1F
100
AcDbEntity
  8
0
100
AcDbBlockEnd
  0
BLOCK
  5
1C
330
1B
100
AcDbEntity
 67
     1
  8
0
100
AcDbBlockBegin
  2
*PAPER_SPACE
  1

  0
ENDBLK
  5
1D
330
1B
100
AcDbEntity
 67
     1
  8
0
100
AcDbBlockEnd
  0
ENDSEC
  0
SECTION
  2
ENTITIES
  0
LWPOLYLINE
  5
100
100
AcDbEntity
  8
Layer_1
 62
7
100
AcDbPolyline
 90
301
 70
0
 10
0.958510
 20
20.502410
 30
0.0
 10
0.671216
 20
19.698518
 30
0.0
 10
-0.007054
 20
19.940887
 30
0.0
 10
-0.007684
 20
19.878201
 30
0.0
 10
-0.002369
 20
19.819675
 30
0.0
 10
0.282444
 20
19.717810
 30
0.0
 10
-0.007054
 20
19.738150
 30
0.0
 10
-0.007981
 20
19.677309
 30
0.0
 10
-0.007586
 20
19.647684
 30
0.0
 10
-0.000495
 20
19.624269
 30
0.0
 10
0.647183
 20
19.578739
 30
0.0
 10
0.575470
 20
18.558825
 30
0.0
 10
-0.007054
 20
18.599725
 30
0.0
 10
-0.007981
 20
18.538911
 30
0.0
 10
-0.007589
 20
18.509299
 30
0.0
 10
-0.000495
 20
18.485899
 30
0.0
 10
0.194415
 20
18.472174
 30
0.0
 10
-0.007054
 20
18.430888
 30
0.0
 10
-0.008043
 20
18.368570
 30
0.0
 10
-0.007730
 20
18.338404
 30
0.0
 10
-0.000146
 20
18.317175
 30
0.0
 10
0.582912
 20
18.436841
 30
0.0
 10
0.788405
 20
17.435228
 30
0.0
 10
-0.007054
 20
17.271958
 30
0.0
 10
-0.008044
 20
17.209667
 30
0.0
 10
-0.007732
 20
17.179513
 30
0.0
 10
-0.000146
 20
17.158300
 30
0.0
 10
0.447533
 20
17.250185
 30
0.0
 10
-0.007054
 20
17.015202
 30
0.0
 10
-0.007054
 20
16.888147
 30
0.0
 10
0.829360
 20
17.320354
 30
0.0
 10
1.298775
 20
16.412062
 30
0.0
 10
0.387561
 20
15.941159
 30
0.0
 10
-0.006338
 20
16.701670
 30
0.0
 10
-0.007548
 20
16.533762
 30
0.0
 10
-0.003954
 20
16.366589
 30
0.0
 10
0.000312
 20
16.342169
 30
0.0
 10
-0.004176
 20
16.317122
 30
0.0
 10
-0.009328
 20
16.289881
 30
0.0
 10
-0.007054
 20
16.258879
 30
0.0
 10
-0.008383
 20
16.193281
 30
0.0
 10
-0.002341
 20
16.173107
 30
0.0
 10
0.021503
 20
16.186457
 30
0.0
 10
0.049243
 20
16.209118
 30
0.0
 10
0.072639
 20
16.209265
 30
0.0
 10
0.092615
 20
16.191693
 30
0.0
 10
0.110098
 20
16.161198
 30
0.0
 10
0.643545
 20
15.372856
 30
0.0
 10
-0.007054
 20
14.932655
 30
0.0
 10
-0.007054
 20
14.795844
 30
0.0
 10
0.366890
 20
15.048962
 30
0.0
 10
-0.007054
 20
14.652583
 30
0.0
 10
-0.004849
 20
14.398197
 30
0.0
 10
0.504143
 20
13.914616
 30
0.0
 10
0.346220
 20
14.023646
 30
0.0
 10
0.031090
 20
13.567350
 30
0.0
 10
0.282555
 20
14.061680
 30
0.0
 10
-0.006999
 20
14.208910
 30
0.0
 10
-0.007525
 20
14.143065
 30
0.0
 10
-0.003140
 20
14.080256
 30
0.0
 10
0.130529
 20
14.012291
 30
0.0
 10
-0.006999
 20
13.740101
 30
0.0
 10
-0.007055
 20
13.313956
 30
0.0
 10
0.374661
 20
13.866715
 30
0.0
 10
1.215981
 20
13.285734
 30
0.0
 10
0.633071
 20
12.441658
 30
0.0
 10
-0.007055
 20
12.883733
 30
0.0
 10
-0.007482
 20
12.816263
 30
0.0
 10
-0.004079
 20
12.750780
 30
0.0
 10
0.658758
 20
12.280207
 30
0.0
 10
0.064933
 20
11.443738
 30
0.0
 10
0.011231
 20
11.482651
 30
0.0
 10
-0.006874
 20
11.485189
 30
0.0
 10
-0.007055
 20
11.452999
 30
0.0
 10
-0.008694
 20
11.389983
 30
0.0
 10
-0.003776
 20
11.361397
 30
0.0
 10
0.018671
 20
11.341728
 30
0.0
 10
0.070385
 20
11.303147
 30
0.0
 10
0.077169
 20
11.280870
 30
0.0
 10
0.055069
 20
11.254069
 30
0.0
 10
0.009749
 20
11.193831
 30
0.0
 10
-0.006531
 20
11.161638
 30
0.0
 10
-0.007055
 20
11.124309
 30
0.0
 10
-0.007055
 20
10.977245
 30
0.0
 10
0.160900
 20
11.206440
 30
0.0
 10
0.196224
 20
11.175684
 30
0.0
 10
0.228865
 20
11.141838
 30
0.0
 10
-0.007055
 20
10.913634
 30
0.0
 10
-0.007055
 20
10.760893
 30
0.0
 10
0.327918
 20
11.080542
 30
0.0
 10
1.033749
 20
10.340867
 30
0.0
 10
0.291703
 20
9.632720
 30
0.0
 10
-0.007055
 20
9.945811
 30
0.0
 10
-0.005402
 20
9.775761
 30
0.0
 10
0.447091
 20
9.237609
 30
0.0
 10
-0.007055
 20
8.852475
 30
0.0
 10
-0.007055
 20
8.598255
 30
0.0
 10
0.646465
 20
8.940890
 30
0.0
 10
1.121172
 20
8.035243
 30
0.0
 10
0.212604
 20
7.558993
 30
0.0
 10
-0.006449
 20
7.975767
 30
0.0
 10
-0.004324
 20
7.725751
 30
0.0
 10
0.326209
 20
6.788008
 30
0.0
 10
-0.007055
 20
6.670545
 30
0.0
 10
-0.007944
 20
6.605874
 30
0.0
 10
-0.007528
 20
6.574751
 30
0.0
 10
-0.000398
 20
6.553102
 30
0.0
 10
0.350518
 20
6.676828
 30
0.0
 10
0.396985
 20
6.506007
 30
0.0
 10
-0.007055
 20
6.480155
 30
0.0
 10
-0.008104
 20
6.418877
 30
0.0
 10
-0.007867
 20
6.389046
 30
0.0
 10
-0.000012
 20
6.367294
 30
0.0
 10
0.406797
 20
6.393393
 30
0.0
 10
0.472337
 20
5.373094
 30
0.0
 10
-0.007055
 20
5.342281
 30
0.0
 10
-0.008106
 20
5.281057
 30
0.0
 10
-0.007872
 20
5.251250
 30
0.0
 10
-0.000012
 20
5.229531
 30
0.0
 10
0.484959
 20
5.260371
 30
0.0
 10
0.463462
 20
5.096109
 30
0.0
 10
-0.007055
 20
5.194059
 30
0.0
 10
-0.007847
 20
5.132887
 30
0.0
 10
-0.001433
 20
5.077588
 30
0.0
 10
0.445382
 20
4.984653
 30
0.0
 10
0.237188
 20
3.983590
 30
0.0
 10
-0.007055
 20
4.034413
 30
0.0
 10
-0.007854
 20
3.973510
 30
0.0
 10
-0.001433
 20
3.918492
 30
0.0
 10
0.202737
 20
3.875993
 30
0.0
 10
0.138190
 20
3.713220
 30
0.0
 10
-0.007055
 20
3.788846
 30
0.0
 10
-0.007564
 20
3.722452
 30
0.0
 10
-0.003252
 20
3.658980
 30
0.0
 10
0.057954
 20
3.628965
 30
0.0
 10
0.085563
 20
3.613013
 30
0.0
 10
0.095738
 20
3.591560
 30
0.0
 10
0.041748
 20
3.488987
 30
0.0
 10
-0.007055
 20
3.385136
 30
0.0
 10
-0.007055
 20
2.957834
 30
0.0
 10
0.802735
 20
2.408658
 30
0.0
 10
0.228865
 20
1.562433
 30
0.0
 10
-0.007055
 20
1.722395
 30
0.0
 10
-0.007473
 20
1.652785
 30
0.0
 10
-0.003968
 20
1.585253
 30
0.0
 10
0.144474
 20
1.484601
 30
0.0
 10
0.065319
 20
1.384390
 30
0.0
 10
0.021751
 20
1.432187
 30
0.0
 10
0.002024
 20
1.450931
 30
0.0
 10
-0.004281
 20
1.451384
 30
0.0
 10
-0.007055
 20
1.442984
 30
0.0
 10
-0.007055
 20
1.219191
 30
0.0
 10
-0.008239
 20
1.152868
 30
0.0
 10
-0.006555
 20
1.126195
 30
0.0
 10
-0.002235
 20
1.122774
 30
0.0
 10
0.005512
 20
1.129122
 30
0.0
 10
0.625905
 20
1.905013
 30
0.0
 10
1.426986
 20
1.264446
 30
0.0
 10
0.810287
 20
0.492965
 30
0.0
 10
0.928412
 20
0.495335
 30
0.0
 10
1.272756
 20
0.882288
 30
0.0
 10
1.712902
 20
0.492965
 30
0.0
 10
2.139432
 20
0.492965
 30
0.0
 10
1.360234
 20
0.997106
 30
0.0
 10
1.915584
 20
1.855569
 30
0.0
 10
2.776747
 20
1.298456
 30
0.0
 10
2.255794
 20
0.492965
 30
0.0
 10
2.319735
 20
0.492553
 30
0.0
 10
2.381801
 20
0.495831
 30
0.0
 10
2.598374
 20
0.790235
 30
0.0
 10
3.004895
 20
0.492965
 30
0.0
 10
3.447190
 20
0.493134
 30
0.0
 10
2.677308
 20
0.914153
 30
0.0
 10
3.167834
 20
1.811311
 30
0.0
 10
4.067914
 20
1.319241
 30
0.0
 10
3.616193
 20
0.492969
 30
0.0
 10
3.679398
 20
0.492484
 30
0.0
 10
3.740216
 20
0.496276
 30
0.0
 10
3.880611
 20
0.718692
 30
0.0
 10
4.240169
 20
0.492969
 30
0.0
 10
4.694701
 20
0.494513
 30
0.0
 10
3.952544
 20
0.849164
 30
0.0
 10
4.391698
 20
1.772395
 30
0.0
 10
5.318015
 20
1.331809
 30
0.0
 10
4.918990
 20
0.492969
 30
0.0
 10
4.983471
 20
0.492455
 30
0.0
 10
5.045219
 20
0.496607
 30
0.0
 10
5.139476
 20
0.666933
 30
0.0
 10
5.455709
 20
0.492969
 30
0.0
 10
5.928762
 20
0.495394
 30
0.0
 10
5.205291
 20
0.802420
 30
0.0
 10
5.601891
 20
1.744833
 30
0.0
 10
6.006924
 20
1.574397
 30
0.0
 10
6.006924
 20
1.780607
 30
0.0
 10
5.652823
 20
1.886661
 30
0.0
 10
5.946125
 20
2.866115
 30
0.0
 10
5.978223
 20
2.853575
 30
0.0
 10
5.999988
 20
2.854934
 30
0.0
 10
6.010021
 20
2.872054
 30
0.0
 10
6.006924
 20
2.906795
 30
0.0
 10
6.005639
 20
2.937460
 30
0.0
 10
6.009074
 20
2.972054
 30
0.0
 10
6.005068
 20
3.000463
 30
0.0
 10
5.981458
 20
3.012573
 30
0.0
 10
6.003352
 20
3.136964
 30
0.0
 10
6.006924
 20
3.263045
 30
0.0
 10
6.004940
 20
3.666856
 30
0.0
 10
5.993531
 20
3.659886
 30
0.0
 10
5.985704
 20
3.630709
 30
0.0
 10
5.972849
 20
3.564814
 30
0.0
 10
5.816645
 20
2.814411
 30
0.0
 10
4.812441
 20
3.023377
 30
0.0
 10
5.020635
 20
4.024384
 30
0.0
 10
6.006925
 20
3.819166
 30
0.0
 10
6.006925
 20
4.087994
 30
0.0
 10
5.042133
 20
4.171944
 30
0.0
 10
5.130713
 20
5.190535
 30
0.0
 10
6.006925
 20
5.114302
 30
0.0
 10
6.006925
 20
6.860221
 30
0.0
 10
5.070410
 20
6.701306
 30
0.0
 10
4.899423
 20
7.709313
 30
0.0
 10
5.910738
 20
7.880962
 30
0.0
 10
5.996208
 20
7.390364
 30
0.0
 10
6.006068
 20
7.400085
 30
0.0
 10
6.007789
 20
7.430097
 30
0.0
 10
6.006925
 20
7.496544
 30
0.0
 10
6.006538
 20
13.496357
 30
0.0
 10
5.992636
 20
13.528742
 30
0.0
 10
5.990727
 20
13.554139
 30
0.0
 10
6.006925
 20
13.602466
 30
0.0
 10
6.006925
 20
13.731395
 30
0.0
 10
5.668644
 20
13.637082
 30
0.0
 10
5.393312
 20
14.625246
 30
0.0
 10
6.006925
 20
14.796178
 30
0.0
 10
6.008076
 20
14.856803
 30
0.0
 10
6.007598
 20
14.885851
 30
0.0
 10
5.998547
 20
14.904602
 30
0.0
 10
5.009060
 20
14.719173
 30
0.0
 10
4.820214
 20
15.727346
 30
0.0
 10
5.825189
 20
15.915641
 30
0.0
 10
5.996223
 20
15.014286
 30
0.0
 10
6.006050
 20
15.023759
 30
0.0
 10
6.007778
 20
15.053847
 30
0.0
 10
6.006925
 20
15.120623
 30
0.0
 10
6.005878
 20
15.812067
 30
0.0
 10
5.918510
 20
15.952572
 30
0.0
 10
5.972194
 20
15.983783
 30
0.0
 10
5.996589
 20
16.000754
 30
0.0
 10
6.006925
 20
16.025553
 30
0.0
 10
6.006925
 20
16.155364
 30
0.0
 10
5.873200
 20
16.070863
 30
0.0
 10
5.325237
 20
16.938035
 30
0.0
 10
6.006925
 20
17.368700
 30
0.0
 10
6.006925
 20
17.518630
 30
0.0
 10
5.365862
 20
17.058972
 30
0.0
 10
4.769447
 20
17.890755
 30
0.0
 10
5.592051
 20
18.483207
 30
0.0
 10
5.612949
 20
18.470070
 30
0.0
 10
5.631842
 20
18.444756
 30
0.0
 10
5.669088
 20
18.390854
 30
0.0
 10
6.007091
 20
17.919529
 30
0.0
 10
6.007091
 20
18.642834
 30
0.0
 10
5.606964
 20
18.511534
 30
0.0
 10
5.290015
 20
19.483602
 30
0.0
 10
6.007091
 20
19.718861
 30
0.0
 10
6.005380
 20
20.179897
 30
0.0
 10
5.836764
 20
20.375413
 30
0.0
 10
5.989340
 20
20.507099
 30
0.0
 10
5.814109
 20
20.507099
 30
0.0
 10
5.804022
 20
20.477292
 30
0.0
 10
5.797008
 20
20.441800
 30
0.0
 10
5.784504
 20
20.416421
 30
0.0
 10
5.773517
 20
20.412461
 30
0.0
 10
5.757948
 20
20.416954
 30
0.0
 10
5.445952
 20
20.507099
 30
0.0
 10
5.275902
 20
20.507099
 30
0.0
 10
5.275902
 20
19.493800
 30
0.0
 10
4.257532
 20
19.492092
 30
0.0
 10
4.252756
 20
19.593260
 30
0.0
 10
4.253288
 20
19.698191
 30
0.0
 10
4.253288
 20
20.507100
 30
0.0
 10
4.125890
 20
20.507823
 30
0.0
 10
4.062964
 20
20.502744
 30
0.0
 10
4.001803
 20
20.485223
 30
0.0
 10
3.760777
 20
20.415378
 30
0.0
 10
3.744220
 20
20.479172
 30
0.0
 10
3.730438
 20
20.503754
 30
0.0
 10
3.700694
 20
20.507100
 30
0.0
 10
3.565481
 20
20.507100
 30
0.0
 10
3.709018
 20
20.381588
 30
0.0
 10
3.035873
 20
19.611926
 30
0.0
 10
2.263731
 20
20.287275
 30
0.0
 10
2.455995
 20
20.507100
 30
0.0
 10
2.359941
 20
20.507620
 30
0.0
 10
2.266928
 20
20.503186
 30
0.0
 10
1.846682
 20
19.659717
 30
0.0
 10
0.928633
 20
20.117115
 30
0.0
 10
1.122936
 20
20.507100
 30
0.0
 10
0.960217
 20
20.507100
 30
0.0
 10
0.958508
 20
20.502414
 30
0.0
 10
0.958510
 20
20.502410
 30
0.0
  0
LWPOLYLINE
  5
101
100
AcDbEntity
  8
Layer_1
 62
7
100
AcDbPolyline
 90
13
 70
0
 10
5.400533
 20
20.392883
 30
0.0
 10
5.479853
 20
20.380633
 30
0.0
 10
5.557570
 20
20.359729
 30
0.0
 10
5.712301
 20
20.314446
 30
0.0
 10
5.767212
 20
20.280223
 30
0.0
 10
5.812563
 20
20.234638
 30
0.0
 10
5.894863
 20
20.134088
 30
0.0
 10
5.894863
 20
19.800823
 30
0.0
 10
5.389509
 20
19.635018
 30
0.0
 10
5.389949
 20
20.393325
 30
0.0
 10
5.396999
 20
20.393031
 30
0.0
 10
5.400533
 20
20.392890
 30
0.0
 10
5.400533
 20
20.392883
 30
0.0
  0
LWPOLYLINE
  5
102
100
AcDbEntity
  8
Layer_1
 62
7
100
AcDbPolyline
 90
10
 70
0
 10
4.140841
 20
19.634797
 30
0.0
 10
3.414119
 20
19.872702
 30
0.0
 10
3.589942
 20
20.073550
 30
0.0
 10
3.768496
 20
20.271558
 30
0.0
 10
3.853492
 20
20.322195
 30
0.0
 10
3.946188
 20
20.355975
 30
0.0
 10
4.043124
 20
20.377974
 30
0.0
 10
4.140841
 20
20.393270
 30
0.0
 10
4.140841
 20
19.634797
 30
0.0
 10
4.140841
 20
19.634797
 30
0.0
  0
LWPOLYLINE
  5
103
100
AcDbEntity
  8
Layer_1
 62
7
100
AcDbPolyline
 90
5
 70
0
 10
2.755857
 20
19.708495
 30
0.0
 10
2.050743
 20
19.813281
 30
0.0
 10
2.228289
 20
20.169917
 30
0.0
 10
2.755857
 20
19.708495
 30
0.0
 10
2.755857
 20
19.708495
 30
0.0
  0
LWPOLYLINE
  5
104
100
AcDbEntity
  8
Layer_1
 62
7
100
AcDbPolyline
 90
5
 70
0
 10
1.502559
 20
19.705518
 30
0.0
 10
0.816902
 20
19.768743
 30
0.0
 10
0.901459
 20
20.005104
 30
0.0
 10
1.502559
 20
19.705518
 30
0.0
 10
1.502559
 20
19.705518
 30
0.0
  0
LWPOLYLINE
  5
105
100
AcDbEntity
  8
Layer_1
 62
7
100
AcDbPolyline
 90
8
 70
0
 10
4.239343
 20
19.483323
 30
0.0
 10
3.924709
 20
18.515499
 30
0.0
 10
3.843869
 20
18.536339
 30
0.0
 10
3.760802
 20
18.564156
 30
0.0
 10
2.948287
 20
18.830133
 30
0.0
 10
3.266283
 20
19.801816
 30
0.0
 10
4.239343
 20
19.483323
 30
0.0
 10
4.239343
 20
19.483323
 30
0.0
  0
LWPOLYLINE
  5
106
100
AcDbEntity
  8
Layer_1
 62
7
100
AcDbPolyline
 90
6
 70
0
 10
3.010629
 20
19.555808
 30
0.0
 10
2.860092
 20
18.544549
 30
0.0
 10
1.845525
 20
18.695581
 30
0.0
 10
1.996117
 20
19.706841
 30
0.0
 10
3.010629
 20
19.555808
 30
0.0
 10
3.010629
 20
19.555808
 30
0.0
  0
LWPOLYLINE
  5
107
100
AcDbEntity
  8
Layer_1
 62
7
100
AcDbPolyline
 90
6
 70
0
 10
1.820390
 20
19.562809
 30
0.0
 10
1.726297
 20
18.544659
 30
0.0
 10
0.704840
 20
18.639027
 30
0.0
 10
0.798933
 20
19.657177
 30
0.0
 10
1.820390
 20
19.562809
 30
0.0
 10
1.820390
 20
19.562809
 30
0.0
  0
LWPOLYLINE
  5
108
100
AcDbEntity
  8
Layer_1
 62
7
100
AcDbPolyline
 90
4
 70
0
 10
1.899985
 20
19.591251
 30
0.0
 10
1.900270
 20
19.587357
 30
0.0
 10
1.899985
 20
19.591251
 30
0.0
 10
1.899985
 20
19.591251
 30
0.0
  0
LWPOLYLINE
  5
109
100
AcDbEntity
  8
Layer_1
 62
7
100
AcDbPolyline
 90
6
 70
0
 10
5.491263
 20
18.713717
 30
0.0
 10
4.768179
 20
17.990798
 30
0.0
 10
4.042945
 20
18.716252
 30
0.0
 10
4.766029
 20
19.439116
 30
0.0
 10
5.491263
 20
18.713717
 30
0.0
 10
5.491263
 20
18.713717
 30
0.0
  0
LWPOLYLINE
  5
10a
100
AcDbEntity
  8
Layer_1
 62
7
100
AcDbPolyline
 90
5
 70
0
 10
4.546590
 20
19.379143
 30
0.0
 10
4.220161
 20
19.052769
 30
0.0
 10
4.326766
 20
19.379143
 30
0.0
 10
4.546590
 20
19.379143
 30
0.0
 10
4.546590
 20
19.379143
 30
0.0
  0
LWPOLYLINE
  5
10b
100
AcDbEntity
  8
Layer_1
 62
7
100
AcDbPolyline
 90
5
 70
0
 10
5.203584
 20
19.379143
 30
0.0
 10
5.309583
 20
19.055966
 30
0.0
 10
4.986460
 20
19.379143
 30
0.0
 10
5.203584
 20
19.379143
 30
0.0
 10
5.203584
 20
19.379143
 30
0.0
  0
LWPOLYLINE
  5
10c
100
AcDbEntity
  8
Layer_1
 62
7
100
AcDbPolyline
 90
6
 70
0
 10
3.753061
 20
18.447755
 30
0.0
 10
3.292135
 20
17.818323
 30
0.0
 10
2.972926
 20
18.530327
 30
0.0
 10
2.997620
 20
18.695306
 30
0.0
 10
3.753061
 20
18.447755
 30
0.0
 10
3.753061
 20
18.447755
 30
0.0
  0
LWPOLYLINE
  5
10d
100
AcDbEntity
  8
Layer_1
 62
7
100
AcDbPolyline
 90
9
 70
0
 10
2.570869
 20
18.473387
 30
0.0
 10
1.927712
 20
18.183943
 30
0.0
 10
1.836367
 20
18.510012
 30
0.0
 10
1.837172
 20
18.544781
 30
0.0
 10
1.845048
 20
18.570533
 30
0.0
 10
1.864211
 20
18.581895
 30
0.0
 10
1.898873
 20
18.573494
 30
0.0
 10
2.570869
 20
18.473387
 30
0.0
 10
2.570869
 20
18.473387
 30
0.0
  0
LWPOLYLINE
  5
10e
100
AcDbEntity
  8
Layer_1
 62
7
100
AcDbPolyline
 90
4
 70
0
 10
4.054355
 20
18.546312
 30
0.0
 10
4.064489
 20
18.537099
 30
0.0
 10
4.054355
 20
18.546312
 30
0.0
 10
4.054355
 20
18.546312
 30
0.0
  0
LWPOLYLINE
  5
10f
100
AcDbEntity
  8
Layer_1
 62
7
100
AcDbPolyline
 90
7
 70
0
 10
1.387576
 20
18.463079
 30
0.0
 10
0.731078
 20
18.276052
 30
0.0
 10
0.704442
 20
18.401391
 30
0.0
 10
0.692583
 20
18.464161
 30
0.0
 10
0.688469
 20
18.527461
 30
0.0
 10
1.387576
 20
18.463079
 30
0.0
 10
1.387576
 20
18.463079
 30
0.0
  0
LWPOLYLINE
  5
110
100
AcDbEntity
  8
Layer_1
 62
7
100
AcDbPolyline
 90
7
 70
0
 10
3.932151
 20
18.493175
 30
0.0
 10
4.752083
 20
17.891028
 30
0.0
 10
4.146353
 20
17.064701
 30
0.0
 10
3.321735
 20
17.669164
 30
0.0
 10
3.927024
 20
18.494939
 30
0.0
 10
3.932151
 20
18.493175
 30
0.0
 10
3.932151
 20
18.493175
 30
0.0
  0
LWPOLYLINE
  5
111
100
AcDbEntity
  8
Layer_1
 62
7
100
AcDbPolyline
 90
5
 70
0
 10
5.894422
 20
18.270925
 30
0.0
 10
5.769186
 20
18.445605
 30
0.0
 10
5.894422
 20
18.486671
 30
0.0
 10
5.894422
 20
18.270925
 30
0.0
 10
5.894422
 20
18.270925
 30
0.0
  0
LWPOLYLINE
  5
112
100
AcDbEntity
  8
Layer_1
 62
7
100
AcDbPolyline
 90
6
 70
0
 10
3.287890
 20
17.551038
 30
0.0
 10
2.352533
 20
17.130075
 30
0.0
 10
1.932948
 20
18.062400
 30
0.0
 10
2.868250
 20
18.483364
 30
0.0
 10
3.287890
 20
17.551038
 30
0.0
 10
3.287890
 20
17.551038
 30
0.0
  0
LWPOLYLINE
  5
113
100
AcDbEntity
  8
Layer_1
 62
7
100
AcDbPolyline
 90
6
 70
0
 10
2.014914
 20
17.461135
 30
0.0
 10
1.028349
 20
17.180125
 30
0.0
 10
0.748276
 20
18.163493
 30
0.0
 10
1.734786
 20
18.444503
 30
0.0
 10
2.014914
 20
17.461135
 30
0.0
 10
2.014914
 20
17.461135
 30
0.0
  0
LWPOLYLINE
  5
114
100
AcDbEntity
  8
Layer_1
 62
7
100
AcDbPolyline
 90
8
 70
0
 10
4.878973
 20
17.545581
 30
0.0
 10
5.244815
 20
17.038849
 30
0.0
 10
4.836794
 20
17.036738
 30
0.0
 10
4.428860
 20
17.041299
 30
0.0
 10
4.271148
 20
17.042707
 30
0.0
 10
4.760517
 20
17.710560
 30
0.0
 10
4.878973
 20
17.545581
 30
0.0
 10
4.878973
 20
17.545581
 30
0.0
  0
LWPOLYLINE
  5
115
100
AcDbEntity
  8
Layer_1
 62
7
100
AcDbPolyline
 90
6
 70
0
 10
4.184552
 20
16.945583
 30
0.0
 10
3.624297
 20
16.086349
 30
0.0
 10
2.767819
 20
16.644840
 30
0.0
 10
3.328129
 20
17.504075
 30
0.0
 10
4.184552
 20
16.945583
 30
0.0
 10
4.184552
 20
16.945583
 30
0.0
  0
LWPOLYLINE
  5
116
100
AcDbEntity
  8
Layer_1
 62
7
100
AcDbPolyline
 90
6
 70
0
 10
2.677199
 20
16.556095
 30
0.0
 10
1.859030
 20
15.937300
 30
0.0
 10
1.242275
 20
16.752823
 30
0.0
 10
2.060389
 20
17.371562
 30
0.0
 10
2.677199
 20
16.556095
 30
0.0
 10
2.677199
 20
16.556095
 30
0.0
  0
LWPOLYLINE
  5
117
100
AcDbEntity
  8
Layer_1
 62
7
100
AcDbPolyline
 90
5
 70
0
 10
2.688554
 20
16.729176
 30
0.0
 10
2.446791
 20
17.048440
 30
0.0
 10
3.083775
 20
17.334907
 30
0.0
 10
2.688554
 20
16.729176
 30
0.0
 10
2.688554
 20
16.729176
 30
0.0
  0
LWPOLYLINE
  5
118
100
AcDbEntity
  8
Layer_1
 62
7
100
AcDbPolyline
 90
5
 70
0
 10
1.195257
 20
16.858712
 30
0.0
 10
1.081982
 20
17.078150
 30
0.0
 10
1.729715
 20
17.262698
 30
0.0
 10
1.195257
 20
16.858712
 30
0.0
 10
1.195257
 20
16.858712
 30
0.0
  0
LWPOLYLINE
  5
119
100
AcDbEntity
  8
Layer_1
 62
7
100
AcDbPolyline
 90
6
 70
0
 10
5.266312
 20
16.920889
 30
0.0
 10
5.258816
 20
15.895187
 30
0.0
 10
4.236422
 20
15.902629
 30
0.0
 10
4.243863
 20
16.928330
 30
0.0
 10
5.266312
 20
16.920889
 30
0.0
 10
5.266312
 20
16.920889
 30
0.0
  0
LWPOLYLINE
  5
11a
100
AcDbEntity
  8
Layer_1
 62
7
100
AcDbPolyline
 90
10
 70
0
 10
4.124745
 20
15.986965
 30
0.0
 10
4.129163
 20
15.970452
 30
0.0
 10
4.123689
 20
15.958283
 30
0.0
 10
4.111302
 20
15.953013
 30
0.0
 10
4.094980
 20
15.957199
 30
0.0
 10
3.908632
 20
15.993633
 30
0.0
 10
3.722799
 20
16.030070
 30
0.0
 10
4.129927
 20
16.654266
 30
0.0
 10
4.124745
 20
15.986965
 30
0.0
 10
4.124745
 20
15.986965
 30
0.0
  0
LWPOLYLINE
  5
11b
100
AcDbEntity
  8
Layer_1
 62
7
100
AcDbPolyline
 90
7
 70
0
 10
5.620303
 20
16.260698
 30
0.0
 10
5.695326
 20
16.141546
 30
0.0
 10
5.769902
 20
16.022132
 30
0.0
 10
5.372476
 20
15.946065
 30
0.0
 10
5.377768
 20
16.645391
 30
0.0
 10
5.620303
 20
16.260698
 30
0.0
 10
5.620303
 20
16.260698
 30
0.0
  0
LWPOLYLINE
  5
11c
100
AcDbEntity
  8
Layer_1
 62
7
100
AcDbPolyline
 90
6
 70
0
 10
3.620659
 20
15.949923
 30
0.0
 10
3.080744
 20
15.077735
 30
0.0
 10
2.211367
 20
15.615942
 30
0.0
 10
2.751282
 20
16.488130
 30
0.0
 10
3.620659
 20
15.949923
 30
0.0
 10
3.620659
 20
15.949923
 30
0.0
  0
LWPOLYLINE
  5
11d
100
AcDbEntity
  8
Layer_1
 62
7
100
AcDbPolyline
 90
6
 70
0
 10
2.065956
 20
15.563797
 30
0.0
 10
1.315036
 20
14.865021
 30
0.0
 10
0.618520
 20
15.613516
 30
0.0
 10
1.369441
 20
16.312292
 30
0.0
 10
2.065956
 20
15.563797
 30
0.0
 10
2.065956
 20
15.563797
 30
0.0
  0
LWPOLYLINE
  5
11e
100
AcDbEntity
  8
Layer_1
 62
7
100
AcDbPolyline
 90
5
 70
0
 10
2.116007
 20
15.676245
 30
0.0
 10
1.944358
 20
15.860461
 30
0.0
 10
2.481573
 20
16.266762
 30
0.0
 10
2.116007
 20
15.676245
 30
0.0
 10
2.116007
 20
15.676245
 30
0.0
  0
LWPOLYLINE
  5
11f
100
AcDbEntity
  8
Layer_1
 62
7
100
AcDbPolyline
 90
5
 70
0
 10
0.553587
 20
15.707940
 30
0.0
 10
0.457455
 20
15.849878
 30
0.0
 10
1.017931
 20
16.139541
 30
0.0
 10
0.553587
 20
15.707940
 30
0.0
 10
0.553587
 20
15.707940
 30
0.0
  0
LWPOLYLINE
  5
120
100
AcDbEntity
  8
Layer_1
 62
7
100
AcDbPolyline
 90
6
 70
0
 10
4.719727
 20
15.727563
 30
0.0
 10
4.532479
 20
14.719059
 30
0.0
 10
3.527228
 20
14.905701
 30
0.0
 10
3.714476
 20
15.914204
 30
0.0
 10
4.719727
 20
15.727563
 30
0.0
 10
4.719727
 20
15.727563
 30
0.0
  0
LWPOLYLINE
  5
121
100
AcDbEntity
  8
Layer_1
 62
7
100
AcDbPolyline
 90
6
 70
0
 10
3.517857
 20
15.470807
 30
0.0
 10
3.419906
 20
14.946160
 30
0.0
 10
3.174230
 20
15.014731
 30
0.0
 10
3.543820
 20
15.611311
 30
0.0
 10
3.517857
 20
15.470807
 30
0.0
 10
3.517857
 20
15.470807
 30
0.0
  0
LWPOLYLINE
  5
122
100
AcDbEntity
  8
Layer_1
 62
7
100
AcDbPolyline
 90
6
 70
0
 10
3.032788
 20
14.952995
 30
0.0
 10
2.497778
 20
14.077775
 30
0.0
 10
1.625425
 20
14.611076
 30
0.0
 10
2.160380
 20
15.486241
 30
0.0
 10
3.032788
 20
14.952995
 30
0.0
 10
3.032788
 20
14.952995
 30
0.0
  0
LWPOLYLINE
  5
123
100
AcDbEntity
  8
Layer_1
 62
7
100
AcDbPolyline
 90
5
 70
0
 10
4.894022
 20
14.722973
 30
0.0
 10
4.648345
 20
14.723633
 30
0.0
 10
4.770549
 20
15.382170
 30
0.0
 10
4.894022
 20
14.722972
 30
0.0
 10
4.894022
 20
14.722973
 30
0.0
  0
LWPOLYLINE
  5
124
100
AcDbEntity
  8
Layer_1
 62
7
100
AcDbPolyline
 90
6
 70
0
 10
1.472738
 20
14.564719
 30
0.0
 10
0.766025
 20
13.821240
 30
0.0
 10
0.024972
 20
14.525693
 30
0.0
 10
0.731685
 20
15.269117
 30
0.0
 10
1.472738
 20
14.564719
 30
0.0
 10
1.472738
 20
14.564719
 30
0.0
  0
LWPOLYLINE
  5
125
100
AcDbEntity
  8
Layer_1
 62
7
100
AcDbPolyline
 90
5
 70
0
 10
1.528136
 20
14.668292
 30
0.0
 10
1.400088
 20
14.790001
 30
0.0
 10
1.870165
 20
15.227170
 30
0.0
 10
1.528136
 20
14.668292
 30
0.0
 10
1.528136
 20
14.668292
 30
0.0
  0
LWPOLYLINE
  5
126
100
AcDbEntity
  8
Layer_1
 62
7
100
AcDbPolyline
 90
6
 70
0
 10
4.128824
 20
14.627503
 30
0.0
 10
3.851287
 20
13.640056
 30
0.0
 10
2.866982
 20
13.916710
 30
0.0
 10
3.144574
 20
14.904157
 30
0.0
 10
4.128824
 20
14.627503
 30
0.0
 10
4.128824
 20
14.627503
 30
0.0
  0
LWPOLYLINE
  5
127
100
AcDbEntity
  8
Layer_1
 62
7
100
AcDbPolyline
 90
6
 70
0
 10
5.272541
 20
14.609423
 30
0.0
 10
5.270557
 20
13.583666
 30
0.0
 10
4.248108
 20
13.585650
 30
0.0
 10
4.250092
 20
14.611407
 30
0.0
 10
5.272541
 20
14.609423
 30
0.0
 10
5.272541
 20
14.609423
 30
0.0
  0
LWPOLYLINE
  5
128
100
AcDbEntity
  8
Layer_1
 62
7
100
AcDbPolyline
 90
5
 70
0
 10
2.760598
 20
13.954359
 30
0.0
 10
2.590272
 20
14.012567
 30
0.0
 10
2.935829
 20
14.577893
 30
0.0
 10
2.760598
 20
13.954359
 30
0.0
 10
2.760598
 20
13.954359
 30
0.0
  0
LWPOLYLINE
  5
129
100
AcDbEntity
  8
Layer_1
 62
7
100
AcDbPolyline
 90
6
 70
0
 10
2.455886
 20
13.953311
 30
0.0
 10
1.925452
 20
13.075391
 30
0.0
 10
1.050342
 20
13.604117
 30
0.0
 10
1.580777
 20
14.482037
 30
0.0
 10
2.455886
 20
13.953311
 30
0.0
 10
2.455886
 20
13.953311
 30
0.0
  0
LWPOLYLINE
  5
12a
100
AcDbEntity
  8
Layer_1
 62
7
100
AcDbPolyline
 90
5
 70
0
 10
5.556527
 20
13.621921
 30
0.0
 10
5.383005
 20
13.602683
 30
0.0
 10
5.384822
 20
14.238345
 30
0.0
 10
5.556526
 20
13.621921
 30
0.0
 10
5.556527
 20
13.621921
 30
0.0
  0
LWPOLYLINE
  5
12b
100
AcDbEntity
  8
Layer_1
 62
7
100
AcDbPolyline
 90
6
 70
0
 10
4.136156
 20
13.943445
 30
0.0
 10
4.134061
 20
13.605219
 30
0.0
 10
3.964342
 20
13.624070
 30
0.0
 10
4.136762
 20
14.237738
 30
0.0
 10
4.136156
 20
13.943445
 30
0.0
 10
4.136156
 20
13.943445
 30
0.0
  0
LWPOLYLINE
  5
12c
100
AcDbEntity
  8
Layer_1
 62
7
100
AcDbPolyline
 90
5
 70
0
 10
0.929020
 20
13.622031
 30
0.0
 10
0.810288
 20
13.703500
 30
0.0
 10
1.271986
 20
14.189507
 30
0.0
 10
0.929020
 20
13.622031
 30
0.0
 10
0.929020
 20
13.622031
 30
0.0
  0
LWPOLYLINE
  5
12d
100
AcDbEntity
  8
Layer_1
 62
7
100
AcDbPolyline
 90
6
 70
0
 10
3.547844
 20
13.569280
 30
0.0
 10
3.219926
 20
12.597322
 30
0.0
 10
2.251109
 20
12.924137
 30
0.0
 10
2.578972
 20
13.896150
 30
0.0
 10
3.547844
 20
13.569280
 30
0.0
 10
3.547844
 20
13.569280
 30
0.0
  0
LWPOLYLINE
  5
12e
100
AcDbEntity
  8
Layer_1
 62
7
100
AcDbPolyline
 90
23
 70
0
 10
2.110715
 20
12.860252
 30
0.0
 10
2.133159
 20
12.844927
 30
0.0
 10
2.164172
 20
12.833846
 30
0.0
 10
2.228768
 20
12.812957
 30
0.0
 10
3.290702
 20
12.454447
 30
0.0
 10
3.524692
 20
13.147655
 30
0.0
 10
3.473948
 20
12.680996
 30
0.0
 10
3.458380
 20
12.582880
 30
0.0
 10
3.458159
 20
12.533515
 30
0.0
 10
3.468358
 20
12.485039
 30
0.0
 10
2.764401
 20
11.953337
 30
0.0
 10
2.404899
 20
12.376284
 30
0.0
 10
1.984817
 20
12.022239
 30
0.0
 10
2.354738
 20
12.429532
 30
0.0
 10
1.517332
 20
13.190044
 30
0.0
 10
1.917294
 20
12.947233
 30
0.0
 10
1.942467
 20
12.939988
 30
0.0
 10
1.967472
 20
12.943384
 30
0.0
 10
1.988143
 20
12.957079
 30
0.0
 10
2.000316
 20
12.980728
 30
0.0
 10
2.342281
 20
13.546239
 30
0.0
 10
2.110715
 20
12.860252
 30
0.0
 10
2.110715
 20
12.860252
 30
0.0
  0
LWPOLYLINE
  5
12f
100
AcDbEntity
  8
Layer_1
 62
7
100
AcDbPolyline
 90
6
 70
0
 10
4.697127
 20
13.430208
 30
0.0
 10
4.586333
 20
12.410405
 30
0.0
 10
3.569837
 20
12.520868
 30
0.0
 10
3.680686
 20
13.540672
 30
0.0
 10
4.697127
 20
13.430208
 30
0.0
 10
4.697127
 20
13.430208
 30
0.0
  0
LWPOLYLINE
  5
130
100
AcDbEntity
  8
Layer_1
 62
7
100
AcDbPolyline
 90
6
 70
0
 10
5.959465
 20
12.519104
 30
0.0
 10
4.942859
 20
12.409964
 30
0.0
 10
4.833333
 20
13.429877
 30
0.0
 10
5.849939
 20
13.539018
 30
0.0
 10
5.959465
 20
12.519104
 30
0.0
 10
5.959465
 20
12.519104
 30
0.0
  0
LWPOLYLINE
  5
131
100
AcDbEntity
  8
Layer_1
 62
7
100
AcDbPolyline
 90
3
 70
0
 10
-0.006062
 20
13.494314
 30
0.0
 10
-0.006062
 20
13.494314
 30
0.0
 10
-0.006062
 20
13.494314
 30
0.0
  0
LWPOLYLINE
  5
132
100
AcDbEntity
  8
Layer_1
 62
7
100
AcDbPolyline
 90
7
 70
0
 10
1.359243
 20
13.284301
 30
0.0
 10
1.414695
 20
13.251449
 30
0.0
 10
1.060374
 20
12.861354
 30
0.0
 10
1.337636
 20
13.266883
 30
0.0
 10
1.345289
 20
13.280268
 30
0.0
 10
1.359243
 20
13.284301
 30
0.0
 10
1.359243
 20
13.284301
 30
0.0
  0
LWPOLYLINE
  5
133
100
AcDbEntity
  8
Layer_1
 62
7
100
AcDbPolyline
 90
6
 70
0
 10
2.194775
 20
12.421594
 30
0.0
 10
1.504819
 20
11.662571
 30
0.0
 10
0.748276
 20
12.350267
 30
0.0
 10
1.438177
 20
13.109290
 30
0.0
 10
2.194775
 20
12.421594
 30
0.0
 10
2.194775
 20
12.421594
 30
0.0
  0
LWPOLYLINE
  5
134
100
AcDbEntity
  8
Layer_1
 62
7
100
AcDbPolyline
 90
23
 70
0
 10
4.842538
 20
12.292941
 30
0.0
 10
4.867325
 20
12.287976
 30
0.0
 10
4.898540
 20
12.290937
 30
0.0
 10
4.962550
 20
12.298803
 30
0.0
 10
5.894642
 20
12.399215
 30
0.0
 10
5.894642
 20
8.393037
 30
0.0
 10
5.636398
 20
9.265942
 30
0.0
 10
5.158219
 20
9.124445
 30
0.0
 10
5.615893
 20
9.321835
 30
0.0
 10
5.121839
 20
10.468032
 30
0.0
 10
4.667362
 20
10.272406
 30
0.0
 10
5.095546
 20
10.521169
 30
0.0
 10
4.468538
 20
11.600283
 30
0.0
 10
4.039693
 20
11.351354
 30
0.0
 10
4.436347
 20
11.649452
 30
0.0
 10
3.892959
 20
12.372316
 30
0.0
 10
4.662236
 20
12.289578
 30
0.0
 10
4.684845
 20
12.298545
 30
0.0
 10
4.691919
 20
12.322002
 30
0.0
 10
4.696261
 20
12.377207
 30
0.0
 10
4.765423
 20
13.012883
 30
0.0
 10
4.842538
 20
12.292941
 30
0.0
 10
4.842538
 20
12.292941
 30
0.0
  0
LWPOLYLINE
  5
135
100
AcDbEntity
  8
Layer_1
 62
7
100
AcDbPolyline
 90
6
 70
0
 10
4.278149
 20
11.671500
 30
0.0
 10
3.457885
 20
11.055517
 30
0.0
 10
2.843886
 20
11.873080
 30
0.0
 10
3.664095
 20
12.489063
 30
0.0
 10
4.278149
 20
11.671500
 30
0.0
 10
4.278149
 20
11.671500
 30
0.0
  0
LWPOLYLINE
  5
136
100
AcDbEntity
  8
Layer_1
 62
7
100
AcDbPolyline
 90
6
 70
0
 10
3.050151
 20
11.435580
 30
0.0
 10
2.265606
 20
10.774673
 30
0.0
 10
1.606849
 20
11.556682
 30
0.0
 10
2.391394
 20
12.217534
 30
0.0
 10
3.050151
 20
11.435580
 30
0.0
 10
3.050151
 20
11.435580
 30
0.0
  0
LWPOLYLINE
  5
137
100
AcDbEntity
  8
Layer_1
 62
7
100
AcDbPolyline
 90
7
 70
0
 10
0.747229
 20
12.199675
 30
0.0
 10
0.772333
 20
12.177197
 30
0.0
 10
0.795295
 20
12.152270
 30
0.0
 10
0.462140
 20
11.808257
 30
0.0
 10
0.742874
 20
12.201825
 30
0.0
 10
0.747229
 20
12.199674
 30
0.0
 10
0.747229
 20
12.199675
 30
0.0
  0
LWPOLYLINE
  5
138
100
AcDbEntity
  8
Layer_1
 62
7
100
AcDbPolyline
 90
6
 70
0
 10
1.623992
 20
11.375883
 30
0.0
 10
0.909782
 20
10.639625
 30
0.0
 10
0.175894
 20
11.351520
 30
0.0
 10
0.890104
 20
12.087778
 30
0.0
 10
1.623992
 20
11.375883
 30
0.0
 10
1.623992
 20
11.375883
 30
0.0
  0
LWPOLYLINE
  5
139
100
AcDbEntity
  8
Layer_1
 62
7
100
AcDbPolyline
 90
6
 70
0
 10
4.940820
 20
10.561794
 30
0.0
 10
4.053639
 20
10.046904
 30
0.0
 10
3.540457
 20
10.931163
 30
0.0
 10
4.427583
 20
11.446053
 30
0.0
 10
4.940820
 20
10.561794
 30
0.0
 10
4.940820
 20
10.561794
 30
0.0
  0
LWPOLYLINE
  5
13a
100
AcDbEntity
  8
Layer_1
 62
7
100
AcDbPolyline
 90
6
 70
0
 10
3.106596
 20
11.334928
 30
0.0
 10
3.124432
 20
11.314179
 30
0.0
 10
3.138456
 20
11.290114
 30
0.0
 10
2.788104
 20
11.067093
 30
0.0
 10
3.106596
 20
11.334928
 30
0.0
 10
3.106596
 20
11.334928
 30
0.0
  0
LWPOLYLINE
  5
13b
100
AcDbEntity
  8
Layer_1
 62
7
100
AcDbPolyline
 90
7
 70
0
 10
1.694933
 20
11.278429
 30
0.0
 10
1.716795
 20
11.253103
 30
0.0
 10
1.735999
 20
11.225457
 30
0.0
 10
1.359739
 20
10.940864
 30
0.0
 10
1.691350
 20
11.280909
 30
0.0
 10
1.694933
 20
11.278428
 30
0.0
 10
1.694933
 20
11.278429
 30
0.0
  0
LWPOLYLINE
  5
13c
100
AcDbEntity
  8
Layer_1
 62
7
100
AcDbPolyline
 90
6
 70
0
 10
3.767117
 20
10.344450
 30
0.0
 10
2.901764
 20
9.793730
 30
0.0
 10
2.352809
 20
10.656272
 30
0.0
 10
3.218162
 20
11.206991
 30
0.0
 10
3.767117
 20
10.344450
 30
0.0
 10
3.767117
 20
10.344450
 30
0.0
  0
LWPOLYLINE
  5
13d
100
AcDbEntity
  8
Layer_1
 62
7
100
AcDbPolyline
 90
6
 70
0
 10
2.440562
 20
10.335575
 30
0.0
 10
1.622779
 20
9.716340
 30
0.0
 10
1.005583
 20
10.531477
 30
0.0
 10
1.823366
 20
11.150712
 30
0.0
 10
2.440562
 20
10.335575
 30
0.0
 10
2.440562
 20
10.335575
 30
0.0
  0
LWPOLYLINE
  5
13e
100
AcDbEntity
  8
Layer_1
 62
7
100
AcDbPolyline
 90
6
 70
0
 10
2.268748
 20
10.687526
 30
0.0
 10
2.264947
 20
10.681549
 30
0.0
 10
2.262281
 20
10.684622
 30
0.0
 10
2.262849
 20
10.689147
 30
0.0
 10
2.268748
 20
10.687526
 30
0.0
 10
2.268748
 20
10.687526
 30
0.0
  0
LWPOLYLINE
  5
13f
100
AcDbEntity
  8
Layer_1
 62
7
100
AcDbPolyline
 90
6
 70
0
 10
5.467340
 20
9.380870
 30
0.0
 10
4.525424
 20
8.974955
 30
0.0
 10
4.120777
 20
9.913840
 30
0.0
 10
5.062748
 20
10.319755
 30
0.0
 10
5.467340
 20
9.380870
 30
0.0
 10
5.467340
 20
9.380870
 30
0.0
  0
LWPOLYLINE
  5
140
100
AcDbEntity
  8
Layer_1
 62
7
100
AcDbPolyline
 90
8
 70
0
 10
3.814577
 20
10.237073
 30
0.0
 10
3.833963
 20
10.203776
 30
0.0
 10
3.835098
 20
10.188435
 30
0.0
 10
3.819336
 20
10.180412
 30
0.0
 10
3.458436
 20
10.013831
 30
0.0
 10
3.635165
 20
10.126730
 30
0.0
 10
3.814577
 20
10.237073
 30
0.0
 10
3.814577
 20
10.237073
 30
0.0
  0
LWPOLYLINE
  5
141
100
AcDbEntity
  8
Layer_1
 62
7
100
AcDbPolyline
 90
6
 70
0
 10
1.086943
 20
10.234648
 30
0.0
 10
1.117244
 20
10.199294
 30
0.0
 10
1.144049
 20
10.160951
 30
0.0
 10
0.709691
 20
9.875091
 30
0.0
 10
1.086943
 20
10.234648
 30
0.0
 10
1.086943
 20
10.234648
 30
0.0
  0
LWPOLYLINE
  5
142
100
AcDbEntity
  8
Layer_1
 62
7
100
AcDbPolyline
 90
7
 70
0
 10
2.490778
 20
10.227814
 30
0.0
 10
2.510477
 20
10.199817
 30
0.0
 10
2.527268
 20
10.169385
 30
0.0
 10
2.112314
 20
9.945261
 30
0.0
 10
2.488959
 20
10.228365
 30
0.0
 10
2.490777
 20
10.227814
 30
0.0
 10
2.490778
 20
10.227814
 30
0.0
  0
LWPOLYLINE
  5
143
100
AcDbEntity
  8
Layer_1
 62
7
100
AcDbPolyline
 90
6
 70
0
 10
4.332333
 20
9.166944
 30
0.0
 10
3.401165
 20
8.736721
 30
0.0
 10
2.972320
 20
9.664857
 30
0.0
 10
3.903488
 20
10.095081
 30
0.0
 10
4.332333
 20
9.166944
 30
0.0
 10
4.332333
 20
9.166944
 30
0.0
  0
LWPOLYLINE
  5
144
100
AcDbEntity
  8
Layer_1
 62
7
100
AcDbPolyline
 90
6
 70
0
 10
1.798617
 20
9.232980
 30
0.0
 10
0.941918
 20
8.668811
 30
0.0
 10
0.379568
 20
9.522809
 30
0.0
 10
1.236322
 20
10.086923
 30
0.0
 10
1.798617
 20
9.232980
 30
0.0
 10
1.798617
 20
9.232980
 30
0.0
  0
LWPOLYLINE
  5
145
100
AcDbEntity
  8
Layer_1
 62
7
100
AcDbPolyline
 90
6
 70
0
 10
3.089232
 20
9.182599
 30
0.0
 10
2.186617
 20
8.695380
 30
0.0
 10
1.700997
 20
9.595074
 30
0.0
 10
2.603612
 20
10.082293
 30
0.0
 10
3.089232
 20
9.182599
 30
0.0
 10
3.089232
 20
9.182599
 30
0.0
  0
LWPOLYLINE
  5
146
100
AcDbEntity
  8
Layer_1
 62
7
100
AcDbPolyline
 90
4
 70
0
 10
2.889582
 20
9.704379
 30
0.0
 10
2.884912
 20
9.703732
 30
0.0
 10
2.889582
 20
9.704379
 30
0.0
 10
2.889582
 20
9.704379
 30
0.0
  0
LWPOLYLINE
  5
147
100
AcDbEntity
  8
Layer_1
 62
7
100
AcDbPolyline
 90
6
 70
0
 10
1.622669
 20
9.630737
 30
0.0
 10
1.619127
 20
9.624696
 30
0.0
 10
1.615387
 20
9.628337
 30
0.0
 10
1.615288
 20
9.633178
 30
0.0
 10
1.622669
 20
9.630737
 30
0.0
 10
1.622669
 20
9.630737
 30
0.0
  0
LWPOLYLINE
  5
148
100
AcDbEntity
  8
Layer_1
 62
7
100
AcDbPolyline
 90
5
 70
0
 10
0.570730
 20
9.027818
 30
0.0
 10
0.046193
 20
8.753202
 30
0.0
 10
0.500174
 20
9.134919
 30
0.0
 10
0.570730
 20
9.027818
 30
0.0
 10
0.570730
 20
9.027818
 30
0.0
  0
LWPOLYLINE
  5
149
100
AcDbEntity
  8
Layer_1
 62
7
100
AcDbPolyline
 90
6
 70
0
 10
5.849663
 20
8.145267
 30
0.0
 10
4.866020
 20
7.854391
 30
0.0
 10
4.576080
 20
8.834838
 30
0.0
 10
5.559724
 20
9.125714
 30
0.0
 10
5.849663
 20
8.145267
 30
0.0
 10
5.849663
 20
8.145267
 30
0.0
  0
LWPOLYLINE
  5
14a
100
AcDbEntity
  8
Layer_1
 62
7
100
AcDbPolyline
 90
6
 70
0
 10
1.828658
 20
9.116618
 30
0.0
 10
1.853258
 20
9.077180
 30
0.0
 10
1.873858
 20
9.035258
 30
0.0
 10
1.394631
 20
8.831804
 30
0.0
 10
1.828658
 20
9.116618
 30
0.0
 10
1.828658
 20
9.116618
 30
0.0
  0
LWPOLYLINE
  5
14b
100
AcDbEntity
  8
Layer_1
 62
7
100
AcDbPolyline
 90
6
 70
0
 10
3.120707
 20
9.069434
 30
0.0
 10
3.139040
 20
9.039095
 30
0.0
 10
3.150913
 20
9.004721
 30
0.0
 10
2.705090
 20
8.846632
 30
0.0
 10
3.120707
 20
9.069434
 30
0.0
 10
3.120707
 20
9.069434
 30
0.0
  0
LWPOLYLINE
  5
14c
100
AcDbEntity
  8
Layer_1
 62
7
100
AcDbPolyline
 90
6
 70
0
 10
4.368934
 20
9.055763
 30
0.0
 10
4.388006
 20
9.004500
 30
0.0
 10
3.976909
 20
8.878217
 30
0.0
 10
4.366784
 20
9.058354
 30
0.0
 10
4.368935
 20
9.055763
 30
0.0
 10
4.368934
 20
9.055763
 30
0.0
  0
LWPOLYLINE
  5
14d
100
AcDbEntity
  8
Layer_1
 62
7
100
AcDbPolyline
 90
6
 70
0
 10
2.352202
 20
8.004871
 30
0.0
 10
1.408081
 20
7.603917
 30
0.0
 10
1.008395
 20
8.545007
 30
0.0
 10
1.952516
 20
8.945961
 30
0.0
 10
2.352202
 20
8.004871
 30
0.0
 10
2.352202
 20
8.004871
 30
0.0
  0
LWPOLYLINE
  5
14e
100
AcDbEntity
  8
Layer_1
 62
7
100
AcDbPolyline
 90
6
 70
0
 10
3.553741
 20
7.943080
 30
0.0
 10
2.587075
 20
7.600169
 30
0.0
 10
2.245267
 20
8.563749
 30
0.0
 10
3.211988
 20
8.906660
 30
0.0
 10
3.553741
 20
7.943080
 30
0.0
 10
3.553741
 20
7.943080
 30
0.0
  0
LWPOLYLINE
  5
14f
100
AcDbEntity
  8
Layer_1
 62
7
100
AcDbPolyline
 90
6
 70
0
 10
4.734665
 20
7.923788
 30
0.0
 10
3.754163
 20
7.622383
 30
0.0
 10
3.453751
 20
8.599633
 30
0.0
 10
4.434198
 20
8.901037
 30
0.0
 10
4.734665
 20
7.923788
 30
0.0
 10
4.734665
 20
7.923788
 30
0.0
  0
LWPOLYLINE
  5
150
100
AcDbEntity
  8
Layer_1
 62
7
100
AcDbPolyline
 90
6
 70
0
 10
3.380109
 20
8.652660
 30
0.0
 10
3.375384
 20
8.650422
 30
0.0
 10
3.373927
 20
8.655117
 30
0.0
 10
3.375560
 20
8.658582
 30
0.0
 10
3.380109
 20
8.652660
 30
0.0
 10
3.380109
 20
8.652660
 30
0.0
  0
LWPOLYLINE
  5
151
100
AcDbEntity
  8
Layer_1
 62
7
100
AcDbPolyline
 90
8
 70
0
 10
5.895690
 20
8.034913
 30
0.0
 10
5.896173
 20
8.010584
 30
0.0
 10
5.887167
 20
7.994782
 30
0.0
 10
5.845065
 20
7.984496
 30
0.0
 10
5.515627
 20
7.928693
 30
0.0
 10
5.895690
 20
8.041196
 30
0.0
 10
5.895690
 20
8.034913
 30
0.0
 10
5.895690
 20
8.034913
 30
0.0
  0
LWPOLYLINE
  5
152
100
AcDbEntity
  8
Layer_1
 62
7
100
AcDbPolyline
 90
5
 70
0
 10
1.200383
 20
7.804395
 30
0.0
 10
0.626237
 20
7.648566
 30
0.0
 10
1.150002
 20
7.923236
 30
0.0
 10
1.200383
 20
7.804395
 30
0.0
 10
1.200383
 20
7.804395
 30
0.0
  0
LWPOLYLINE
  5
153
100
AcDbEntity
  8
Layer_1
 62
7
100
AcDbPolyline
 90
6
 70
0
 10
2.363723
 20
7.886085
 30
0.0
 10
2.382094
 20
7.843159
 30
0.0
 10
2.396134
 20
7.798386
 30
0.0
 10
1.883835
 20
7.683072
 30
0.0
 10
2.363723
 20
7.886085
 30
0.0
 10
2.363723
 20
7.886085
 30
0.0
  0
LWPOLYLINE
  5
154
100
AcDbEntity
  8
Layer_1
 62
7
100
AcDbPolyline
 90
7
 70
0
 10
3.569010
 20
7.826388
 30
0.0
 10
3.580529
 20
7.812566
 30
0.0
 10
3.585502
 20
7.795083
 30
0.0
 10
3.592051
 20
7.758368
 30
0.0
 10
3.121864
 20
7.669677
 30
0.0
 10
3.569010
 20
7.826388
 30
0.0
 10
3.569010
 20
7.826388
 30
0.0
  0
LWPOLYLINE
  5
155
100
AcDbEntity
  8
Layer_1
 62
7
100
AcDbPolyline
 90
6
 70
0
 10
4.761675
 20
7.813545
 30
0.0
 10
4.768000
 20
7.783627
 30
0.0
 10
4.767393
 20
7.760885
 30
0.0
 10
4.341649
 20
7.684560
 30
0.0
 10
4.761675
 20
7.813545
 30
0.0
 10
4.761675
 20
7.813545
 30
0.0
  0
LWPOLYLINE
  5
156
100
AcDbEntity
  8
Layer_1
 62
7
100
AcDbPolyline
 90
6
 70
0
 10
1.520088
 20
6.714421
 30
0.0
 10
0.530105
 20
6.445979
 30
0.0
 10
0.262545
 20
7.432655
 30
0.0
 10
1.252528
 20
7.701152
 30
0.0
 10
1.520088
 20
6.714421
 30
0.0
 10
1.520088
 20
6.714421
 30
0.0
  0
LWPOLYLINE
  5
157
100
AcDbEntity
  8
Layer_1
 62
7
100
AcDbPolyline
 90
6
 70
0
 10
2.676372
 20
6.697995
 30
0.0
 10
1.675751
 20
6.472493
 30
0.0
 10
1.451021
 20
7.469917
 30
0.0
 10
2.451697
 20
7.695364
 30
0.0
 10
2.676372
 20
6.697995
 30
0.0
 10
2.676372
 20
6.697995
 30
0.0
  0
LWPOLYLINE
  5
158
100
AcDbEntity
  8
Layer_1
 62
7
100
AcDbPolyline
 90
6
 70
0
 10
3.822073
 20
6.646346
 30
0.0
 10
2.814066
 20
6.456287
 30
0.0
 10
2.624668
 20
7.460987
 30
0.0
 10
3.632620
 20
7.651046
 30
0.0
 10
3.822073
 20
6.646346
 30
0.0
 10
3.822073
 20
6.646346
 30
0.0
  0
LWPOLYLINE
  5
159
100
AcDbEntity
  8
Layer_1
 62
7
100
AcDbPolyline
 90
6
 70
0
 10
4.966286
 20
6.637582
 30
0.0
 10
3.954144
 20
6.470564
 30
0.0
 10
3.787732
 20
7.479398
 30
0.0
 10
4.799819
 20
7.646361
 30
0.0
 10
4.966286
 20
6.637582
 30
0.0
 10
4.966286
 20
6.637582
 30
0.0
  0
LWPOLYLINE
  5
15a
100
AcDbEntity
  8
Layer_1
 62
7
100
AcDbPolyline
 90
10
 70
0
 10
5.894532
 20
5.238157
 30
0.0
 10
5.138430
 20
5.303090
 30
0.0
 10
5.104972
 20
6.471721
 30
0.0
 10
4.552433
 20
6.455075
 30
0.0
 10
5.011430
 20
6.528993
 30
0.0
 10
5.055081
 20
6.550044
 30
0.0
 10
5.082647
 20
6.589185
 30
0.0
 10
5.894532
 20
6.727375
 30
0.0
 10
5.894532
 20
5.238157
 30
0.0
 10
5.894532
 20
5.238157
 30
0.0
  0
LWPOLYLINE
  5
15b
100
AcDbEntity
  8
Layer_1
 62
7
100
AcDbPolyline
 90
5
 70
0
 10
1.559996
 20
6.472658
 30
0.0
 10
0.955258
 20
6.444160
 30
0.0
 10
1.531222
 20
6.600320
 30
0.0
 10
1.559996
 20
6.472658
 30
0.0
 10
1.559996
 20
6.472658
 30
0.0
  0
LWPOLYLINE
  5
15c
100
AcDbEntity
  8
Layer_1
 62
7
100
AcDbPolyline
 90
6
 70
0
 10
2.674112
 20
6.580917
 30
0.0
 10
2.685261
 20
6.537323
 30
0.0
 10
2.691586
 20
6.492502
 30
0.0
 10
2.176255
 20
6.469516
 30
0.0
 10
2.674112
 20
6.580917
 30
0.0
 10
2.674112
 20
6.580917
 30
0.0
  0
LWPOLYLINE
  5
15d
100
AcDbEntity
  8
Layer_1
 62
7
100
AcDbPolyline
 90
6
 70
0
 10
3.830892
 20
6.528496
 30
0.0
 10
3.840869
 20
6.459429
 30
0.0
 10
3.356958
 20
6.443664
 30
0.0
 10
3.829184
 20
6.532851
 30
0.0
 10
3.830891
 20
6.528496
 30
0.0
 10
3.830892
 20
6.528496
 30
0.0
  0
LWPOLYLINE
  5
15e
100
AcDbEntity
  8
Layer_1
 62
7
100
AcDbPolyline
 90
6
 70
0
 10
2.764511
 20
5.358983
 30
0.0
 10
1.739802
 20
5.313508
 30
0.0
 10
1.694437
 20
6.334910
 30
0.0
 10
2.719147
 20
6.380440
 30
0.0
 10
2.764511
 20
5.358983
 30
0.0
 10
2.764511
 20
5.358983
 30
0.0
  0
LWPOLYLINE
  5
15f
100
AcDbEntity
  8
Layer_1
 62
7
100
AcDbPolyline
 90
6
 70
0
 10
1.623606
 20
5.338753
 30
0.0
 10
0.599007
 20
5.290577
 30
0.0
 10
0.550996
 20
6.311869
 30
0.0
 10
1.575595
 20
6.360045
 30
0.0
 10
1.623606
 20
5.338753
 30
0.0
 10
1.623606
 20
5.338753
 30
0.0
  0
LWPOLYLINE
  5
160
100
AcDbEntity
  8
Layer_1
 62
7
100
AcDbPolyline
 90
6
 70
0
 10
5.024053
 20
5.333131
 30
0.0
 10
3.998738
 20
5.302484
 30
0.0
 10
3.968200
 20
6.324492
 30
0.0
 10
4.993516
 20
6.355139
 30
0.0
 10
5.024053
 20
5.333131
 30
0.0
 10
5.024053
 20
5.333131
 30
0.0
  0
LWPOLYLINE
  5
161
100
AcDbEntity
  8
Layer_1
 62
7
100
AcDbPolyline
 90
6
 70
0
 10
3.888494
 20
5.324863
 30
0.0
 10
2.863344
 20
5.291073
 30
0.0
 10
2.829665
 20
6.312971
 30
0.0
 10
3.854870
 20
6.346706
 30
0.0
 10
3.888494
 20
5.324863
 30
0.0
 10
3.888494
 20
5.324863
 30
0.0
  0
LWPOLYLINE
  5
162
100
AcDbEntity
  8
Layer_1
 62
7
100
AcDbPolyline
 90
8
 70
0
 10
2.749408
 20
5.225699
 30
0.0
 10
2.741434
 20
5.165096
 30
0.0
 10
2.725121
 20
5.150211
 30
0.0
 10
2.692201
 20
5.156887
 30
0.0
 10
2.215777
 20
5.221620
 30
0.0
 10
2.750510
 20
5.245543
 30
0.0
 10
2.749407
 20
5.225699
 30
0.0
 10
2.749408
 20
5.225699
 30
0.0
  0
LWPOLYLINE
  5
163
100
AcDbEntity
  8
Layer_1
 62
7
100
AcDbPolyline
 90
6
 70
0
 10
1.626748
 20
5.223385
 30
0.0
 10
1.615393
 20
5.144230
 30
0.0
 10
1.226125
 20
5.207234
 30
0.0
 10
1.626748
 20
5.228015
 30
0.0
 10
1.626748
 20
5.223385
 30
0.0
 10
1.626748
 20
5.223385
 30
0.0
  0
LWPOLYLINE
  5
164
100
AcDbEntity
  8
Layer_1
 62
7
100
AcDbPolyline
 90
6
 70
0
 10
5.012808
 20
5.221897
 30
0.0
 10
5.014492
 20
5.215202
 30
0.0
 10
4.995493
 20
5.214958
 30
0.0
 10
4.957962
 20
5.218370
 30
0.0
 10
5.012808
 20
5.221897
 30
0.0
 10
5.012808
 20
5.221897
 30
0.0
  0
LWPOLYLINE
  5
165
100
AcDbEntity
  8
Layer_1
 62
7
100
AcDbPolyline
 90
9
 70
0
 10
3.885077
 20
5.212141
 30
0.0
 10
3.872936
 20
5.197818
 30
0.0
 10
3.851110
 20
5.197723
 30
0.0
 10
3.804292
 20
5.203466
 30
0.0
 10
3.772556
 20
5.206515
 30
0.0
 10
3.777681
 20
5.208377
 30
0.0
 10
3.835412
 20
5.210432
 30
0.0
 10
3.885077
 20
5.212140
 30
0.0
 10
3.885077
 20
5.212141
 30
0.0
  0
LWPOLYLINE
  5
166
100
AcDbEntity
  8
Layer_1
 62
7
100
AcDbPolyline
 90
6
 70
0
 10
5.016336
 20
5.098150
 30
0.0
 10
4.917007
 20
4.080496
 30
0.0
 10
3.896046
 20
4.180156
 30
0.0
 10
3.995430
 20
5.197809
 30
0.0
 10
5.016336
 20
5.098150
 30
0.0
 10
5.016336
 20
5.098150
 30
0.0
  0
LWPOLYLINE
  5
167
100
AcDbEntity
  8
Layer_1
 62
7
100
AcDbPolyline
 90
6
 70
0
 10
3.879069
 20
5.081117
 30
0.0
 10
3.764636
 20
4.065062
 30
0.0
 10
2.745274
 20
4.179880
 30
0.0
 10
2.859761
 20
5.195935
 30
0.0
 10
3.879069
 20
5.081117
 30
0.0
 10
3.879069
 20
5.081117
 30
0.0
  0
LWPOLYLINE
  5
168
100
AcDbEntity
  8
Layer_1
 62
7
100
AcDbPolyline
 90
6
 70
0
 10
1.606573
 20
5.031177
 30
0.0
 10
1.443359
 20
4.021792
 30
0.0
 10
0.430721
 20
4.185557
 30
0.0
 10
0.593936
 20
5.194943
 30
0.0
 10
1.606573
 20
5.031177
 30
0.0
 10
1.606573
 20
5.031177
 30
0.0
  0
LWPOLYLINE
  5
169
100
AcDbEntity
  8
Layer_1
 62
7
100
AcDbPolyline
 90
6
 70
0
 10
2.750180
 20
5.034319
 30
0.0
 10
2.611935
 20
4.021295
 30
0.0
 10
1.595604
 20
4.159981
 30
0.0
 10
1.733849
 20
5.173005
 30
0.0
 10
2.750180
 20
5.034319
 30
0.0
 10
2.750180
 20
5.034319
 30
0.0
  0
LWPOLYLINE
  5
16a
100
AcDbEntity
  8
Layer_1
 62
7
100
AcDbPolyline
 90
6
 70
0
 10
1.348329
 20
3.675794
 30
0.0
 10
0.970857
 20
2.725554
 30
0.0
 10
0.017585
 20
3.104239
 30
0.0
 10
0.395057
 20
4.054479
 30
0.0
 10
1.348329
 20
3.675794
 30
0.0
 10
1.348329
 20
3.675794
 30
0.0
  0
LWPOLYLINE
  5
16b
100
AcDbEntity
  8
Layer_1
 62
7
100
AcDbPolyline
 90
6
 70
0
 10
3.708302
 20
3.768673
 30
0.0
 10
3.439861
 20
2.782163
 30
0.0
 10
2.450153
 20
3.051487
 30
0.0
 10
2.718595
 20
4.037997
 30
0.0
 10
3.708302
 20
3.768673
 30
0.0
 10
3.708302
 20
3.768673
 30
0.0
  0
LWPOLYLINE
  5
16c
100
AcDbEntity
  8
Layer_1
 62
7
100
AcDbPolyline
 90
6
 70
0
 10
4.870926
 20
3.800148
 30
0.0
 10
4.636824
 20
2.804929
 30
0.0
 10
3.638353
 20
3.039746
 30
0.0
 10
3.872454
 20
4.035021
 30
0.0
 10
4.870926
 20
3.800148
 30
0.0
 10
4.870926
 20
3.800148
 30
0.0
  0
LWPOLYLINE
  5
16d
100
AcDbEntity
  8
Layer_1
 62
7
100
AcDbPolyline
 90
6
 70
0
 10
2.538954
 20
3.703740
 30
0.0
 10
2.220958
 20
2.732058
 30
0.0
 10
1.246134
 20
3.051046
 30
0.0
 10
1.564075
 20
4.022729
 30
0.0
 10
2.538954
 20
3.703740
 30
0.0
 10
2.538954
 20
3.703740
 30
0.0
  0
LWPOLYLINE
  5
16e
100
AcDbEntity
  8
Layer_1
 62
7
100
AcDbPolyline
 90
7
 70
0
 10
4.501556
 20
4.008011
 30
0.0
 10
4.893911
 20
3.968213
 30
0.0
 10
4.890209
 20
3.941123
 30
0.0
 10
4.881288
 20
3.914470
 30
0.0
 10
4.473830
 20
4.010712
 30
0.0
 10
4.501556
 20
4.008011
 30
0.0
 10
4.501556
 20
4.008011
 30
0.0
  0
LWPOLYLINE
  5
16f
100
AcDbEntity
  8
Layer_1
 62
7
100
AcDbPolyline
 90
5
 70
0
 10
1.409294
 20
3.913423
 30
0.0
 10
1.368669
 20
3.789454
 30
0.0
 10
0.815524
 20
4.009499
 30
0.0
 10
1.409294
 20
3.913423
 30
0.0
 10
1.409294
 20
3.913423
 30
0.0
  0
LWPOLYLINE
  5
170
100
AcDbEntity
  8
Layer_1
 62
7
100
AcDbPolyline
 90
6
 70
0
 10
3.736028
 20
3.955095
 30
0.0
 10
3.730763
 20
3.918967
 30
0.0
 10
3.718775
 20
3.883877
 30
0.0
 10
3.259668
 20
4.008783
 30
0.0
 10
3.736028
 20
3.955095
 30
0.0
 10
3.736028
 20
3.955095
 30
0.0
  0
LWPOLYLINE
  5
171
100
AcDbEntity
  8
Layer_1
 62
7
100
AcDbPolyline
 90
9
 70
0
 10
5.872428
 20
3.986512
 30
0.0
 10
5.886433
 20
3.988317
 30
0.0
 10
5.896377
 20
3.977915
 30
0.0
 10
5.897778
 20
3.966107
 30
0.0
 10
5.886154
 20
3.963692
 30
0.0
 10
5.783492
 20
3.980284
 30
0.0
 10
5.681598
 20
4.003214
 30
0.0
 10
5.872428
 20
3.986512
 30
0.0
 10
5.872428
 20
3.986512
 30
0.0
  0
LWPOLYLINE
  5
172
100
AcDbEntity
  8
Layer_1
 62
7
100
AcDbPolyline
 90
6
 70
0
 10
2.565357
 20
3.914303
 30
0.0
 10
2.555798
 20
3.867966
 30
0.0
 10
2.541876
 20
3.822525
 30
0.0
 10
2.044294
 20
3.985189
 30
0.0
 10
2.565357
 20
3.914303
 30
0.0
 10
2.565357
 20
3.914303
 30
0.0
  0
LWPOLYLINE
  5
173
100
AcDbEntity
  8
Layer_1
 62
7
100
AcDbPolyline
 90
6
 70
0
 10
2.092525
 20
2.433959
 30
0.0
 10
1.606077
 20
1.534706
 30
0.0
 10
0.703903
 20
2.022698
 30
0.0
 10
1.190351
 20
2.922005
 30
0.0
 10
2.092525
 20
2.433959
 30
0.0
 10
2.092525
 20
2.433959
 30
0.0
  0
LWPOLYLINE
  5
174
100
AcDbEntity
  8
Layer_1
 62
7
100
AcDbPolyline
 90
6
 70
0
 10
3.338216
 20
2.497514
 30
0.0
 10
2.921056
 20
1.564031
 30
0.0
 10
1.984597
 20
1.982514
 30
0.0
 10
2.401702
 20
2.915997
 30
0.0
 10
3.338216
 20
2.497514
 30
0.0
 10
3.338216
 20
2.497514
 30
0.0
  0
LWPOLYLINE
  5
175
100
AcDbEntity
  8
Layer_1
 62
7
100
AcDbPolyline
 90
6
 70
0
 10
4.553150
 20
2.532737
 30
0.0
 10
4.187529
 20
1.577977
 30
0.0
 10
3.229682
 20
1.944811
 30
0.0
 10
3.595303
 20
2.899571
 30
0.0
 10
4.553150
 20
2.532737
 30
0.0
 10
4.553150
 20
2.532737
 30
0.0
  0
LWPOLYLINE
  5
176
100
AcDbEntity
  8
Layer_1
 62
7
100
AcDbPolyline
 90
6
 70
0
 10
5.745980
 20
2.552801
 30
0.0
 10
5.419936
 20
1.583710
 30
0.0
 10
4.447702
 20
1.910746
 30
0.0
 10
4.773691
 20
2.879892
 30
0.0
 10
5.745980
 20
2.552801
 30
0.0
 10
5.745980
 20
2.552801
 30
0.0
  0
LWPOLYLINE
  5
177
100
AcDbEntity
  8
Layer_1
 62
7
100
AcDbPolyline
 90
5
 70
0
 10
0.904050
 20
2.631405
 30
0.0
 10
0.843636
 20
2.518791
 30
0.0
 10
0.358236
 20
2.848142
 30
0.0
 10
0.904050
 20
2.631405
 30
0.0
 10
0.904050
 20
2.631405
 30
0.0
  0
LWPOLYLINE
  5
178
100
AcDbEntity
  8
Layer_1
 62
7
100
AcDbPolyline
 90
6
 70
0
 10
3.388212
 20
2.679360
 30
0.0
 10
3.378231
 20
2.644544
 30
0.0
 10
3.361643
 20
2.611726
 30
0.0
 10
2.932853
 20
2.803273
 30
0.0
 10
3.388212
 20
2.679360
 30
0.0
 10
3.388212
 20
2.679360
 30
0.0
  0
LWPOLYLINE
  5
179
100
AcDbEntity
  8
Layer_1
 62
7
100
AcDbPolyline
 90
6
 70
0
 10
2.150899
 20
2.636531
 30
0.0
 10
2.134912
 20
2.593442
 30
0.0
 10
2.114353
 20
2.552085
 30
0.0
 10
1.661695
 20
2.796659
 30
0.0
 10
2.150899
 20
2.636531
 30
0.0
 10
2.150899
 20
2.636531
 30
0.0
  0
LWPOLYLINE
  5
17a
100
AcDbEntity
  8
Layer_1
 62
7
100
AcDbPolyline
 90
7
 70
0
 10
4.594822
 20
2.699314
 30
0.0
 10
4.585771
 20
2.667976
 30
0.0
 10
4.578224
 20
2.654494
 30
0.0
 10
4.567782
 20
2.649690
 30
0.0
 10
4.187308
 20
2.795226
 30
0.0
 10
4.594822
 20
2.699314
 30
0.0
 10
4.594822
 20
2.699314
 30
0.0
  0
LWPOLYLINE
  5
17b
100
AcDbEntity
  8
Layer_1
 62
7
100
AcDbPolyline
 90
8
 70
0
 10
5.767973
 20
2.710173
 30
0.0
 10
5.780866
 20
2.705900
 30
0.0
 10
5.780063
 20
2.690488
 30
0.0
 10
5.771435
 20
2.674827
 30
0.0
 10
5.760851
 20
2.669806
 30
0.0
 10
5.419219
 20
2.782768
 30
0.0
 10
5.767973
 20
2.710173
 30
0.0
 10
5.767973
 20
2.710173
 30
0.0
  0
LWPOLYLINE
  5
17c
100
AcDbEntity
  8
Layer_1
 62
7
100
AcDbPolyline
 90
6
 70
0
 10
3.153890
 20
1.901540
 30
0.0
 10
3.149296
 20
1.895834
 30
0.0
 10
3.145459
 20
1.900639
 30
0.0
 10
3.145837
 20
1.905895
 30
0.0
 10
3.153890
 20
1.901540
 30
0.0
 10
3.153890
 20
1.901540
 30
0.0
  0
LWPOLYLINE
  5
17d
100
AcDbEntity
  8
Layer_1
 62
7
100
AcDbPolyline
 90
6
 70
0
 10
1.519592
 20
1.454339
 30
0.0
 10
1.496987
 20
1.413711
 30
0.0
 10
1.470037
 20
1.375516
 30
0.0
 10
1.062414
 20
1.701504
 30
0.0
 10
1.519592
 20
1.454339
 30
0.0
 10
1.519592
 20
1.454339
 30
0.0
  0
LWPOLYLINE
  5
17e
100
AcDbEntity
  8
Layer_1
 62
7
100
AcDbPolyline
 90
6
 70
0
 10
2.852706
 20
1.472088
 30
0.0
 10
2.837118
 20
1.438727
 30
0.0
 10
2.817538
 20
1.407266
 30
0.0
 10
2.415261
 20
1.667439
 30
0.0
 10
2.852706
 20
1.472088
 30
0.0
 10
2.852706
 20
1.472088
 30
0.0
  0
LWPOLYLINE
  5
17f
100
AcDbEntity
  8
Layer_1
 62
7
100
AcDbPolyline
 90
6
 70
0
 10
4.128659
 20
1.480632
 30
0.0
 10
4.117179
 20
1.454326
 30
0.0
 10
4.101705
 20
1.429865
 30
0.0
 10
3.728587
 20
1.633815
 30
0.0
 10
4.128659
 20
1.480632
 30
0.0
 10
4.128659
 20
1.480632
 30
0.0
  0
LWPOLYLINE
  5
180
100
AcDbEntity
  8
Layer_1
 62
7
100
AcDbPolyline
 90
7
 70
0
 10
5.356822
 20
1.487192
 30
0.0
 10
5.368969
 20
1.481235
 30
0.0
 10
5.366617
 20
1.468860
 30
0.0
 10
5.350758
 20
1.442488
 30
0.0
 10
5.014958
 20
1.602175
 30
0.0
 10
5.356822
 20
1.487192
 30
0.0
 10
5.356822
 20
1.487192
 30
0.0
  0
LWPOLYLINE
  5
181
100
AcDbEntity
  8
Layer_1
 62
7
100
AcDbPolyline
 90
7
 70
0
 10
-0.006999
 20
1.087340
 30
0.0
 10
-0.005235
 20
0.884713
 30
0.0
 10
0.339771
 20
0.492965
 30
0.0
 10
0.754725
 20
0.492965
 30
0.0
 10
-0.006999
 20
1.102003
 30
0.0
 10
-0.006999
 20
1.087340
 30
0.0
 10
-0.006999
 20
1.087340
 30
0.0
  0
LWPOLYLINE
  5
182
100
AcDbEntity
  8
Layer_1
 62
7
100
AcDbPolyline
 90
6
 70
0
 10
2.594847
 20
0.876721
 30
0.0
 10
2.586728
 20
0.874771
 30
0.0
 10
2.584647
 20
0.880534
 30
0.0
 10
2.587667
 20
0.884390
 30
0.0
 10
2.594847
 20
0.876721
 30
0.0
 10
2.594847
 20
0.876721
 30
0.0
  0
LWPOLYLINE
  5
183
100
AcDbEntity
  8
Layer_1
 62
7
100
AcDbPolyline
 90
8
 70
0
 10
0.433753
 20
0.605799
 30
0.0
 10
0.388011
 20
0.611482
 30
0.0
 10
0.355206
 20
0.644175
 30
0.0
 10
0.309724
 20
0.695718
 30
0.0
 10
0.292309
 20
0.716385
 30
0.0
 10
0.301066
 20
0.711967
 30
0.0
 10
0.433753
 20
0.605799
 30
0.0
 10
0.433753
 20
0.605799
 30
0.0
  0
ENDSEC
  0
SECTION
  2
OBJECTS
  0
DICTIONARY
  5
C
330
0
100
AcDbDictionary
  3
ACAD_GROUP
350
D
  3
ACAD_MLINESTYLE
350
17
  0
DICTIONARY
  5
D
330
C
100
AcDbDictionary
  0
DICTIONARY
  5
1A
330
C
100
AcDbDictionary
  0
DICTIONARY
  5
17
330
C
100
AcDbDictionary
  3
STANDARD
350
18
  0
DICTIONARY
  5
19
330
C
100
AcDbDictionary
  0
ENDSEC
  0
EOF
