  0
SECTION
  2
HEADER
  9
$ACADVER
  1
AC1014
  9
$HANDSEED
  5
FFFF
  9
$MEASUREMENT
 70
     1
  0
ENDSEC
  0
SECTION
  2
TABLES
  0
TABLE
  2
VPORT
  5
8
330
0
100
AcDbSymbolTable
 70
     4
  0
VPORT
  5
2E
330
8
100
AcDbSymbolTableRecord
100
AcDbViewportTableRecord
  2
*ACTIVE
 70
     0
 10
0.0
 20
0.0
 11
1.0
 21
1.0
 12
210.0
 22
148.5
 13
0.0
 23
0.0
 14
10.0
 24
10.0
 15
10.0
 25
10.0
 16
0.0
 26
0.0
 36
1.0
 17
0.0
 27
0.0
 37
0.0
 40
341.0
 41
1.24
 42
50.0
 43
0.0
 44
0.0
 50
0.0
 51
0.0
 71
     0
 72
   100
 73
     1
 74
     3
 75
     0
 76
     0
 77
     0
 78
     0
  0
ENDTAB
  0
TABLE
  2
LTYPE
  5
5
330
0
100
AcDbSymbolTable
 70
     1
  0
LTYPE
  5
14
330
5
100
AcDbSymbolTableRecord
100
AcDbLinetypeTableRecord
  2
BYBLOCK
 70
     0
  3

 72
    65
 73
     0
 40
0.0
  0
LTYPE
  5
15
330
5
100
AcDbSymbolTableRecord
100
AcDbLinetypeTableRecord
  2
BYLAYER
 70
     0
  3

 72
    65
 73
     0
 40
0.0
  0
LTYPE
  5
16
330
5
100
AcDbSymbolTableRecord
100
AcDbLinetypeTableRecord
  2
CONTINUOUS
 70
     0
  3
Solid line
 72
    65
 73
     0
 40
0.0
  0
ENDTAB
  0
TABLE
  2
LAYER
  5
2
100
AcDbSymbolTable
 70
2
  0
LAYER
  5
50
100
AcDbSymbolTableRecord
100
AcDbLayerTableRecord
  2
0
 70
0
  6
CONTINUOUS
  0
LAYER
  5
51
100
AcDbSymbolTableRecord
100
AcDbLayerTableRecord
  2
Layer_1
 70
0
  6
CONTINUOUS
  0
ENDTAB
  0
TABLE
  2
STYLE
  5
3
330
0
100
AcDbSymbolTable
 70
     1
  0
STYLE
  5
11
330
3
100
AcDbSymbolTableRecord
100
AcDbTextStyleTableRecord
  2
STANDARD
 70
     0
 40
0.0
 41
1.0
 50
0.0
 71
     0
 42
2.5
  3
txt
  4

  0
ENDTAB
  0
TABLE
  2
VIEW
  5
6
330
0
100
AcDbSymbolTable
 70
     0
  0
ENDTAB
  0
TABLE
  2
UCS
  5
7
330
0
100
AcDbSymbolTable
 70
     0
  0
ENDTAB
  0
TABLE
  2
APPID
  5
9
330
0
100
AcDbSymbolTable
 70
     2
  0
APPID
  5
12
330
9
100
AcDbSymbolTableRecord
100
AcDbRegAppTableRecord
  2
ACAD
 70
     0
  0
ENDTAB
  0
TABLE
  2
DIMSTYLE
  5
A
330
0
100
AcDbSymbolTable
 70
     1
  0
DIMSTYLE
105
27
330
A
100
AcDbSymbolTableRecord
100
AcDbDimStyleTableRecord
  2
ISO-25
 70
     0
  3

  4

  5

  6

  7

 40
1.0
 41
2.5
 42
0.625
 43
3.75
 44
1.25
 45
0.0
 46
0.0
 47
0.0
 48
0.0
140
2.5
141
2.5
142
0.0
143
0.03937007874016
144
1.0
145
0.0
146
1.0
147
0.625
 71
     0
 72
     0
 73
     0
 74
     0
 75
     0
 76
     0
 77
     1
 78
     8
170
     0
171
     3
172
     1
173
     0
174
     0
175
     0
176
     0
177
     0
178
     0
270
     2
271
     2
272
     2
273
     2
274
     3
340
11
275
     0
280
     0
281
     0
282
     0
283
     0
284
     8
285
     0
286
     0
287
     3
288
     0
  0
ENDTAB
  0
TABLE
  2
BLOCK_RECORD
  5
1
330
0
100
AcDbSymbolTable
 70
     1
  0
BLOCK_RECORD
  5
1F
330
1
100
AcDbSymbolTableRecord
100
AcDbBlockTableRecord
  2
*MODEL_SPACE
  0
BLOCK_RECORD
  5
1B
330
1
100
AcDbSymbolTableRecord
100
AcDbBlockTableRecord
  2
*PAPER_SPACE
  0
ENDTAB
  0
ENDSEC
  0
SECTION
  2
BLOCKS
  0
BLOCK
  5
20
330
1F
100
AcDbEntity
  8
0
100
AcDbBlockBegin
  2
*MODEL_SPACE
 70
     0
 10
0.0
 20
0.0
 30
0.0
  3
*MODEL_SPACE
  1

  0
ENDBLK
  5
21
330
1F
100
AcDbEntity
  8
0
100
AcDbBlockEnd
  0
BLOCK
  5
1C
330
1B
100
AcDbEntity
 67
     1
  8
0
100
AcDbBlockBegin
  2
*PAPER_SPACE
  1

  0
ENDBLK
  5
1D
330
1B
100
AcDbEntity
 67
     1
  8
0
100
AcDbBlockEnd
  0
ENDSEC
  0
SECTION
  2
ENTITIES
  0
LWPOLYLINE
  5
100
100
AcDbEntity
  8
Layer_1
 62
7
100
AcDbPolyline
 90
406
 70
0
 10
0.635902
 20
20.494369
 30
0.0
 10
1.014476
 20
20.204153
 30
0.0
 10
0.392430
 20
19.392765
 30
0.0
 10
-0.007036
 20
19.698965
 30
0.0
 10
-0.007036
 20
19.447445
 30
0.0
 10
0.313992
 20
19.271828
 30
0.0
 10
-0.007036
 20
18.683295
 30
0.0
 10
-0.004775
 20
18.480338
 30
0.0
 10
0.052661
 20
18.607999
 30
0.0
 10
0.994798
 20
18.202581
 30
0.0
 10
0.590702
 20
17.263475
 30
0.0
 10
-0.007035
 20
17.520617
 30
0.0
 10
-0.007642
 20
17.456359
 30
0.0
 10
-0.002791
 20
17.395657
 30
0.0
 10
0.114618
 20
17.345165
 30
0.0
 10
-0.007035
 20
17.373167
 30
0.0
 10
-0.007799
 20
17.311772
 30
0.0
 10
-0.001578
 20
17.255924
 30
0.0
 10
0.546826
 20
17.129750
 30
0.0
 10
0.317575
 20
16.133374
 30
0.0
 10
-0.007035
 20
16.208063
 30
0.0
 10
-0.007035
 20
16.007917
 30
0.0
 10
0.298669
 20
15.994026
 30
0.0
 10
0.252201
 20
14.972680
 30
0.0
 10
-0.007035
 20
14.984476
 30
0.0
 10
-0.007035
 20
14.796346
 30
0.0
 10
0.258981
 20
14.831954
 30
0.0
 10
0.394745
 20
13.818545
 30
0.0
 10
-0.007035
 20
13.764747
 30
0.0
 10
-0.007035
 20
13.541780
 30
0.0
 10
0.425338
 20
13.681072
 30
0.0
 10
0.738814
 20
12.707846
 30
0.0
 10
-0.007035
 20
12.467682
 30
0.0
 10
-0.007944
 20
12.403512
 30
0.0
 10
-0.007545
 20
12.372599
 30
0.0
 10
-0.000322
 20
12.351066
 30
0.0
 10
0.328600
 20
12.456823
 30
0.0
 10
-0.007035
 20
12.276851
 30
0.0
 10
-0.007035
 20
12.148969
 30
0.0
 10
0.793770
 20
12.578366
 30
0.0
 10
1.276910
 20
11.677239
 30
0.0
 10
0.372862
 20
11.192555
 30
0.0
 10
-0.006649
 20
11.899710
 30
0.0
 10
-0.007555
 20
11.773924
 30
0.0
 10
-0.003539
 20
11.649085
 30
0.0
 10
0.003212
 20
11.624153
 30
0.0
 10
-0.002577
 20
11.599986
 30
0.0
 10
-0.009722
 20
11.573383
 30
0.0
 10
-0.007035
 20
11.541144
 30
0.0
 10
-0.008718
 20
11.474613
 30
0.0
 10
-0.006545
 20
11.446886
 30
0.0
 10
-0.000714
 20
11.441744
 30
0.0
 10
0.009801
 20
11.445209
 30
0.0
 10
0.065384
 20
11.480437
 30
0.0
 10
0.089179
 20
11.479359
 30
0.0
 10
0.106744
 20
11.449146
 30
0.0
 10
0.635792
 20
10.632466
 30
0.0
 10
-0.007035
 20
10.216023
 30
0.0
 10
-0.007035
 20
10.081416
 30
0.0
 10
0.252918
 20
10.249702
 30
0.0
 10
-0.007035
 20
10.014829
 30
0.0
 10
-0.007035
 20
9.867269
 30
0.0
 10
0.723435
 20
10.517758
 30
0.0
 10
1.403359
 20
9.754159
 30
0.0
 10
0.637335
 20
9.072030
 30
0.0
 10
-0.007035
 20
9.795611
 30
0.0
 10
-0.005271
 20
9.623742
 30
0.0
 10
0.557685
 20
8.992049
 30
0.0
 10
-0.007035
 20
9.256467
 30
0.0
 10
-0.007607
 20
9.191534
 30
0.0
 10
-0.002956
 20
9.129908
 30
0.0
 10
0.473073
 20
8.906721
 30
0.0
 10
0.037613
 20
7.977978
 30
0.0
 10
0.007407
 20
7.994556
 30
0.0
 10
-0.005822
 20
7.984392
 30
0.0
 10
-0.007035
 20
7.924345
 30
0.0
 10
-0.009799
 20
7.897825
 30
0.0
 10
-0.001911
 20
7.877859
 30
0.0
 10
0.037306
 20
7.850891
 30
0.0
 10
0.122611
 20
7.788911
 30
0.0
 10
-0.007035
 20
7.628177
 30
0.0
 10
-0.007035
 20
7.453001
 30
0.0
 10
0.208931
 20
7.716647
 30
0.0
 10
0.999870
 20
7.068694
 30
0.0
 10
0.349877
 20
6.275274
 30
0.0
 10
-0.007035
 20
6.567584
 30
0.0
 10
-0.004721
 20
6.389982
 30
0.0
 10
0.413321
 20
6.007880
 30
0.0
 10
-0.007036
 20
5.545245
 30
0.0
 10
-0.007036
 20
5.275425
 30
0.0
 10
0.700504
 20
5.627486
 30
0.0
 10
1.155973
 20
4.712138
 30
0.0
 10
0.237703
 20
4.255180
 30
0.0
 10
-0.005934
 20
4.742290
 30
0.0
 10
-0.006320
 20
4.492424
 30
0.0
 10
0.025966
 20
4.432021
 30
0.0
 10
0.036692
 20
4.404671
 30
0.0
 10
0.033455
 20
4.395524
 30
0.0
 10
0.021724
 20
4.390847
 30
0.0
 10
-0.004061
 20
4.381507
 30
0.0
 10
-0.009109
 20
4.354160
 30
0.0
 10
-0.007037
 20
4.288915
 30
0.0
 10
0.005073
 20
4.273774
 30
0.0
 10
0.032329
 20
4.276091
 30
0.0
 10
0.091829
 20
4.286493
 30
0.0
 10
0.105561
 20
4.227272
 30
0.0
 10
0.114298
 20
4.161408
 30
0.0
 10
0.239908
 20
3.274900
 30
0.0
 10
-0.007037
 20
3.239898
 30
0.0
 10
-0.008059
 20
3.178195
 30
0.0
 10
-0.007785
 20
3.148249
 30
0.0
 10
-0.000053
 20
3.126911
 30
0.0
 10
0.239852
 20
3.161956
 30
0.0
 10
0.231869
 20
3.054778
 30
0.0
 10
0.207230
 20
2.950427
 30
0.0
 10
0.144768
 20
2.744410
 30
0.0
 10
-0.007037
 20
2.815352
 30
0.0
 10
-0.007607
 20
2.750310
 30
0.0
 10
-0.002958
 20
2.688572
 30
0.0
 10
0.142838
 20
2.620442
 30
0.0
 10
-0.007037
 20
2.297981
 30
0.0
 10
-0.007037
 20
1.929218
 30
0.0
 10
0.012581
 20
1.959678
 30
0.0
 10
0.035881
 20
1.964010
 30
0.0
 10
0.061687
 20
1.950521
 30
0.0
 10
0.088825
 20
1.927516
 30
0.0
 10
0.845803
 20
1.356560
 30
0.0
 10
0.230096
 20
0.540265
 30
0.0
 10
-0.007037
 20
0.719134
 30
0.0
 10
-0.007037
 20
0.492861
 30
0.0
 10
0.328322
 20
0.495065
 30
0.0
 10
0.707944
 20
0.900208
 30
0.0
 10
1.145389
 20
0.492860
 30
0.0
 10
1.794665
 20
0.492860
 30
0.0
 10
2.012175
 20
0.813502
 30
0.0
 10
2.487102
 20
0.492860
 30
0.0
 10
3.645040
 20
0.492860
 30
0.0
 10
3.581981
 20
0.799887
 30
0.0
 10
4.586846
 20
1.006041
 30
0.0
 10
4.692128
 20
0.492860
 30
0.0
 10
4.820562
 20
0.492860
 30
0.0
 10
4.752211
 20
0.732749
 30
0.0
 10
5.738776
 20
1.013758
 30
0.0
 10
5.887053
 20
0.492860
 30
0.0
 10
5.950588
 20
0.491592
 30
0.0
 10
5.980170
 20
0.492375
 30
0.0
 10
5.994815
 20
0.502837
 30
0.0
 10
5.936883
 20
0.631601
 30
0.0
 10
6.872130
 20
1.052619
 30
0.0
 10
7.124090
 20
0.492860
 30
0.0
 10
7.320215
 20
0.492498
 30
0.0
 10
7.514516
 20
0.495726
 30
0.0
 10
7.931124
 20
1.064084
 30
0.0
 10
8.715835
 20
0.492860
 30
0.0
 10
8.788301
 20
0.491943
 30
0.0
 10
8.822461
 20
0.497939
 30
0.0
 10
8.851825
 20
0.518853
 30
0.0
 10
9.602960
 20
1.057525
 30
0.0
 10
10.007883
 20
0.492860
 30
0.0
 10
10.418428
 20
0.492860
 30
0.0
 10
10.667467
 20
1.025830
 30
0.0
 10
11.596816
 20
0.591748
 30
0.0
 10
11.567052
 20
0.532286
 30
0.0
 10
11.556477
 20
0.505298
 30
0.0
 10
11.558824
 20
0.496664
 30
0.0
 10
11.568759
 20
0.492860
 30
0.0
 10
11.632772
 20
0.491910
 30
0.0
 10
11.657232
 20
0.501402
 30
0.0
 10
11.665768
 20
0.531936
 30
0.0
 10
11.803412
 20
1.019436
 30
0.0
 10
12.790583
 20
0.740686
 30
0.0
 10
12.720634
 20
0.492860
 30
0.0
 10
12.849067
 20
0.492860
 30
0.0
 10
12.953357
 20
0.994300
 30
0.0
 10
13.957726
 20
0.785445
 30
0.0
 10
13.896817
 20
0.492860
 30
0.0
 10
13.960591
 20
0.491180
 30
0.0
 10
13.990192
 20
0.492626
 30
0.0
 10
14.006895
 20
0.506971
 30
0.0
 10
14.006895
 20
0.890507
 30
0.0
 10
13.372887
 20
1.022302
 30
0.0
 10
14.006895
 20
1.062982
 30
0.0
 10
14.006895
 20
2.314130
 30
0.0
 10
13.262313
 20
2.266395
 30
0.0
 10
13.982366
 20
2.520615
 30
0.0
 10
13.568017
 20
3.697736
 30
0.0
 10
12.847138
 20
3.443791
 30
0.0
 10
13.248808
 20
3.725903
 30
0.0
 10
13.290943
 20
3.679229
 30
0.0
 10
13.317964
 20
3.663555
 30
0.0
 10
13.347697
 20
3.657001
 30
0.0
 10
14.006895
 20
4.074050
 30
0.0
 10
14.006895
 20
4.208161
 30
0.0
 10
13.344334
 20
3.788631
 30
0.0
 10
13.311377
 20
3.842537
 30
0.0
 10
13.294661
 20
3.868321
 30
0.0
 10
13.275826
 20
3.883583
 30
0.0
 10
12.474792
 20
3.320870
 30
0.0
 10
11.887086
 20
4.157449
 30
0.0
 10
12.600910
 20
4.658890
 30
0.0
 10
12.598239
 20
4.701007
 30
0.0
 10
12.579739
 20
4.738624
 30
0.0
 10
12.533051
 20
4.811103
 30
0.0
 10
12.487074
 20
4.886260
 30
0.0
 10
12.438742
 20
4.957207
 30
0.0
 10
12.407444
 20
4.959937
 30
0.0
 10
12.382194
 20
4.949905
 30
0.0
 10
12.343217
 20
4.905493
 30
0.0
 10
11.803798
 20
4.246967
 30
0.0
 10
11.012859
 20
4.894920
 30
0.0
 10
11.662852
 20
5.688450
 30
0.0
 10
12.206901
 20
5.242792
 30
0.0
 10
12.207316
 20
5.316425
 30
0.0
 10
12.200317
 20
5.351193
 30
0.0
 10
12.179870
 20
5.382138
 30
0.0
 10
12.077972
 20
5.546842
 30
0.0
 10
12.947569
 20
6.084663
 30
0.0
 10
13.487099
 20
5.212310
 30
0.0
 10
12.742793
 20
4.751990
 30
0.0
 10
12.744630
 20
4.723980
 30
0.0
 10
12.758158
 20
4.699663
 30
0.0
 10
12.792237
 20
4.653267
 30
0.0
 10
13.659409
 20
5.202278
 30
0.0
 10
14.006895
 20
4.653488
 30
0.0
 10
14.005408
 20
5.005163
 30
0.0
 10
13.783929
 20
5.289866
 30
0.0
 10
14.006896
 20
5.466751
 30
0.0
 10
14.006896
 20
5.598216
 30
0.0
 10
13.700420
 20
5.360311
 30
0.0
 10
13.071373
 20
6.170653
 30
0.0
 10
13.879069
 20
6.797660
 30
0.0
 10
14.006896
 20
6.632957
 30
0.0
 10
14.004912
 20
6.884036
 30
0.0
 10
14.005386
 20
6.931445
 30
0.0
 10
14.006896
 20
6.990089
 30
0.0
 10
14.006912
 20
7.050200
 30
0.0
 10
13.999207
 20
7.077552
 30
0.0
 10
13.978927
 20
7.100498
 30
0.0
 10
13.775275
 20
7.355380
 30
0.0
 10
14.006896
 20
7.126625
 30
0.0
 10
14.004802
 20
7.287084
 30
0.0
 10
13.394717
 20
7.889618
 30
0.0
 10
14.006897
 20
8.512325
 30
0.0
 10
14.006897
 20
8.675871
 30
0.0
 10
13.423325
 20
8.067054
 30
0.0
 10
12.682822
 20
8.776909
 30
0.0
 10
13.390362
 20
9.514986
 30
0.0
 10
14.006897
 20
8.923973
 30
0.0
 10
14.004746
 20
9.082889
 30
0.0
 10
13.457996
 20
9.607094
 30
0.0
 10
13.673962
 20
9.850125
 30
0.0
 10
13.218658
 20
10.254882
 30
0.0
 10
13.730351
 20
9.923878
 30
0.0
 10
14.006896
 20
10.353550
 30
0.0
 10
14.006896
 20
10.559925
 30
0.0
 10
13.696451
 20
10.080037
 30
0.0
 10
12.835232
 20
10.637150
 30
0.0
 10
13.390527
 20
11.495668
 30
0.0
 10
14.006896
 20
11.096974
 30
0.0
 10
14.007330
 20
11.166384
 30
0.0
 10
14.003699
 20
11.233565
 30
0.0
 10
13.893841
 20
11.304617
 30
0.0
 10
14.006896
 20
11.254180
 30
0.0
 10
14.007492
 20
11.318598
 30
0.0
 10
14.002706
 20
11.379527
 30
0.0
 10
13.459318
 20
11.622337
 30
0.0
 10
13.876478
 20
12.555820
 30
0.0
 10
14.006896
 20
12.497557
 30
0.0
 10
14.006896
 20
12.669260
 30
0.0
 10
13.944583
 20
12.685472
 30
0.0
 10
13.926903
 20
12.701276
 30
0.0
 10
13.936045
 20
12.732433
 30
0.0
 10
13.974010
 20
12.869866
 30
0.0
 10
14.006896
 20
13.007982
 30
0.0
 10
14.007366
 20
13.153831
 30
0.0
 10
14.003092
 20
13.299244
 30
0.0
 10
13.915838
 20
13.046277
 30
0.0
 10
13.832942
 20
12.791427
 30
0.0
 10
13.695735
 20
12.372100
 30
0.0
 10
12.720855
 20
12.691144
 30
0.0
 10
13.038852
 20
13.662826
 30
0.0
 10
14.006896
 20
13.345987
 30
0.0
 10
14.007549
 20
13.408573
 30
0.0
 10
14.002045
 20
13.466704
 30
0.0
 10
13.519401
 20
13.624627
 30
0.0
 10
14.006896
 20
13.558260
 30
0.0
 10
14.007766
 20
13.619021
 30
0.0
 10
14.007417
 20
13.648716
 30
0.0
 10
14.000777
 20
13.672913
 30
0.0
 10
13.070381
 20
13.799858
 30
0.0
 10
13.208626
 20
14.812882
 30
0.0
 10
14.006896
 20
14.703961
 30
0.0
 10
14.007761
 20
14.764910
 30
0.0
 10
14.007401
 20
14.794693
 30
0.0
 10
14.000777
 20
14.819000
 30
0.0
 10
13.689892
 20
14.861223
 30
0.0
 10
14.006896
 20
14.875444
 30
0.0
 10
14.007948
 20
14.936682
 30
0.0
 10
14.007716
 20
14.966509
 30
0.0
 10
13.999847
 20
14.988348
 30
0.0
 10
13.214579
 20
14.953441
 30
0.0
 10
13.169214
 20
15.974899
 30
0.0
 10
14.006896
 20
16.012106
 30
0.0
 10
14.007952
 20
16.073210
 30
0.0
 10
14.007728
 20
16.102975
 30
0.0
 10
13.999847
 20
16.124734
 30
0.0
 10
13.649102
 20
16.109230
 30
0.0
 10
14.006896
 20
16.189817
 30
0.0
 10
14.007872
 20
16.252415
 30
0.0
 10
14.007544
 20
16.282694
 30
0.0
 10
14.000011
 20
16.303973
 30
0.0
 10
13.150528
 20
16.112592
 30
0.0
 10
12.925797
 20
17.110071
 30
0.0
 10
13.926418
 20
17.335518
 30
0.0
 10
13.961179
 20
17.178444
 30
0.0
 10
14.001880
 20
17.023586
 30
0.0
 10
14.007512
 20
17.194535
 30
0.0
 10
14.006896
 20
17.366331
 30
0.0
 10
13.999461
 20
17.416650
 30
0.0
 10
13.983169
 20
17.465443
 30
0.0
 10
13.947541
 20
17.562502
 30
0.0
 10
13.720043
 20
18.203848
 30
0.0
 10
14.006896
 20
18.305657
 30
0.0
 10
14.006896
 20
18.522064
 30
0.0
 10
13.661339
 20
18.335533
 30
0.0
 10
13.175718
 20
19.235226
 30
0.0
 10
14.006896
 20
19.683916
 30
0.0
 10
14.006896
 20
19.811798
 30
0.0
 10
13.585877
 20
19.584918
 30
0.0
 10
13.993432
 20
19.891562
 30
0.0
 10
14.007015
 20
19.916017
 30
0.0
 10
14.008435
 20
19.945586
 30
0.0
 10
14.006896
 20
20.006542
 30
0.0
 10
14.002691
 20
20.044592
 30
0.0
 10
13.982418
 20
20.077244
 30
0.0
 10
13.933049
 20
20.139588
 30
0.0
 10
13.740218
 20
20.394212
 30
0.0
 10
14.006896
 20
20.394212
 30
0.0
 10
14.005439
 20
20.426255
 30
0.0
 10
14.008965
 20
20.463281
 30
0.0
 10
14.006165
 20
20.493981
 30
0.0
 10
13.998858
 20
20.503425
 30
0.0
 10
13.985729
 20
20.507046
 30
0.0
 10
13.512841
 20
20.507046
 30
0.0
 10
13.915118
 20
19.975729
 30
0.0
 10
13.097335
 20
19.356549
 30
0.0
 10
12.480085
 20
20.171686
 30
0.0
 10
12.923041
 20
20.507046
 30
0.0
 10
12.602785
 20
20.504895
 30
0.0
 10
12.384393
 20
20.279779
 30
0.0
 10
12.147261
 20
20.507045
 30
0.0
 10
12.006480
 20
20.507045
 30
0.0
 10
12.508362
 20
19.981075
 30
0.0
 10
11.766316
 20
19.272929
 30
0.0
 10
11.060430
 20
20.012605
 30
0.0
 10
11.578572
 20
20.507045
 30
0.0
 10
11.410972
 20
20.507416
 30
0.0
 10
11.245252
 20
20.504124
 30
0.0
 10
10.954376
 20
20.105264
 30
0.0
 10
10.401176
 20
20.507045
 30
0.0
 10
10.226331
 20
20.507045
 30
0.0
 10
11.005804
 20
19.907378
 30
0.0
 10
10.380340
 20
19.094335
 30
0.0
 10
9.569888
 20
19.717760
 30
0.0
 10
10.177107
 20
20.507045
 30
0.0
 10
9.790760
 20
20.507045
 30
0.0
 10
9.453968
 20
19.788646
 30
0.0
 10
8.528202
 20
20.222728
 30
0.0
 10
8.661486
 20
20.507045
 30
0.0
 10
8.453457
 20
20.507045
 30
0.0
 10
8.399658
 20
20.266440
 30
0.0
 10
7.401903
 20
20.489737
 30
0.0
 10
7.401260
 20
20.501074
 30
0.0
 10
7.394127
 20
20.507207
 30
0.0
 10
7.366832
 20
20.509029
 30
0.0
 10
7.305220
 20
20.507045
 30
0.0
 10
6.546472
 20
20.507045
 30
0.0
 10
6.106437
 20
20.507045
 30
0.0
 10
6.090526
 20
20.491037
 30
0.0
 10
6.061091
 20
20.483830
 30
0.0
 10
5.998448
 20
20.471871
 30
0.0
 10
5.109179
 20
20.280385
 30
0.0
 10
5.060341
 20
20.507045
 30
0.0
 10
4.856557
 20
20.507045
 30
0.0
 10
4.980415
 20
20.237335
 30
0.0
 10
4.051176
 20
19.810750
 30
0.0
 10
3.731581
 20
20.507045
 30
0.0
 10
3.355653
 20
20.507045
 30
0.0
 10
3.934649
 20
19.740745
 30
0.0
 10
3.118850
 20
19.124377
 30
0.0
 10
2.500497
 20
19.942821
 30
0.0
 10
3.247284
 20
20.507045
 30
0.0
 10
3.059760
 20
20.505721
 30
0.0
 10
2.527617
 20
20.119761
 30
0.0
 10
2.246718
 20
20.507045
 30
0.0
 10
1.920564
 20
20.507045
 30
0.0
 10
2.421674
 20
20.027046
 30
0.0
 10
1.714354
 20
19.288748
 30
0.0
 10
0.973631
 20
19.998328
 30
0.0
 10
1.461016
 20
20.507045
 30
0.0
 10
1.312408
 20
20.505061
 30
0.0
 10
1.110663
 20
20.311694
 30
0.0
 10
0.920439
 20
20.507045
 30
0.0
 10
0.619420
 20
20.507045
 30
0.0
 10
0.635901
 20
20.494367
 30
0.0
 10
0.635902
 20
20.494369
 30
0.0
  0
LWPOLYLINE
  5
101
100
AcDbEntity
  8
Layer_1
 62
7
100
AcDbPolyline
 90
6
 70
0
 10
6.682347
 20
19.382071
 30
0.0
 10
5.668993
 20
19.246196
 30
0.0
 10
5.532623
 20
20.262803
 30
0.0
 10
6.545977
 20
20.398733
 30
0.0
 10
6.682347
 20
19.382071
 30
0.0
 10
6.682347
 20
19.382071
 30
0.0
  0
LWPOLYLINE
  5
102
100
AcDbEntity
  8
Layer_1
 62
7
100
AcDbPolyline
 90
6
 70
0
 10
7.958907
 20
20.256188
 30
0.0
 10
7.817300
 20
19.240299
 30
0.0
 10
6.804717
 20
19.381410
 30
0.0
 10
6.946269
 20
20.397299
 30
0.0
 10
7.958907
 20
20.256188
 30
0.0
 10
7.958907
 20
20.256188
 30
0.0
  0
LWPOLYLINE
  5
103
100
AcDbEntity
  8
Layer_1
 62
7
100
AcDbPolyline
 90
10
 70
0
 10
3.588817
 20
20.395866
 30
0.0
 10
3.638492
 20
20.394093
 30
0.0
 10
3.659605
 20
20.387943
 30
0.0
 10
3.671187
 20
20.367577
 30
0.0
 10
3.778711
 20
20.134701
 30
0.0
 10
3.594175
 20
20.377634
 30
0.0
 10
3.581855
 20
20.390558
 30
0.0
 10
3.579681
 20
20.395925
 30
0.0
 10
3.588817
 20
20.395866
 30
0.0
 10
3.588817
 20
20.395866
 30
0.0
  0
LWPOLYLINE
  5
104
100
AcDbEntity
  8
Layer_1
 62
7
100
AcDbPolyline
 90
10
 70
0
 10
9.900893
 20
20.395316
 30
0.0
 10
9.929411
 20
20.396480
 30
0.0
 10
9.941127
 20
20.389766
 30
0.0
 10
9.936842
 20
20.375531
 30
0.0
 10
9.917358
 20
20.354126
 30
0.0
 10
9.729576
 20
20.109676
 30
0.0
 10
9.856190
 20
20.382252
 30
0.0
 10
9.876394
 20
20.394346
 30
0.0
 10
9.900893
 20
20.395316
 30
0.0
 10
9.900893
 20
20.395316
 30
0.0
  0
LWPOLYLINE
  5
105
100
AcDbEntity
  8
Layer_1
 62
7
100
AcDbPolyline
 90
5
 70
0
 10
6.832002
 20
20.392892
 30
0.0
 10
6.745131
 20
19.768806
 30
0.0
 10
6.661511
 20
20.393994
 30
0.0
 10
6.832002
 20
20.392891
 30
0.0
 10
6.832002
 20
20.392892
 30
0.0
  0
LWPOLYLINE
  5
106
100
AcDbEntity
  8
Layer_1
 62
7
100
AcDbPolyline
 90
5
 70
0
 10
5.508038
 20
19.598315
 30
0.0
 10
5.249904
 20
20.195171
 30
0.0
 10
5.422820
 20
20.232378
 30
0.0
 10
5.508038
 20
19.598315
 30
0.0
 10
5.508038
 20
19.598315
 30
0.0
  0
LWPOLYLINE
  5
107
100
AcDbEntity
  8
Layer_1
 62
7
100
AcDbPolyline
 90
5
 70
0
 10
8.240468
 20
20.186627
 30
0.0
 10
7.980790
 20
19.593244
 30
0.0
 10
8.068929
 20
20.225157
 30
0.0
 10
8.240468
 20
20.186627
 30
0.0
 10
8.240468
 20
20.186627
 30
0.0
  0
LWPOLYLINE
  5
108
100
AcDbEntity
  8
Layer_1
 62
7
100
AcDbPolyline
 90
6
 70
0
 10
5.551529
 20
19.213401
 30
0.0
 10
4.613030
 20
18.807652
 30
0.0
 10
4.205957
 20
19.749182
 30
0.0
 10
5.144457
 20
20.154932
 30
0.0
 10
5.551529
 20
19.213401
 30
0.0
 10
5.551529
 20
19.213401
 30
0.0
  0
LWPOLYLINE
  5
109
100
AcDbEntity
  8
Layer_1
 62
7
100
AcDbPolyline
 90
6
 70
0
 10
9.282816
 20
19.737550
 30
0.0
 10
8.871664
 20
18.797783
 30
0.0
 10
7.934929
 20
19.207612
 30
0.0
 10
8.346080
 20
20.147379
 30
0.0
 10
9.282816
 20
19.737550
 30
0.0
 10
9.282816
 20
19.737550
 30
0.0
  0
LWPOLYLINE
  5
10a
100
AcDbEntity
  8
Layer_1
 62
7
100
AcDbPolyline
 90
7
 70
0
 10
1.295210
 20
19.534096
 30
0.0
 10
0.863388
 20
19.820508
 30
0.0
 10
0.901956
 20
19.873901
 30
0.0
 10
0.922182
 20
19.888372
 30
0.0
 10
0.944983
 20
19.869422
 30
0.0
 10
1.295210
 20
19.534096
 30
0.0
 10
1.295210
 20
19.534096
 30
0.0
  0
LWPOLYLINE
  5
10b
100
AcDbEntity
  8
Layer_1
 62
7
100
AcDbPolyline
 90
6
 70
0
 10
12.561940
 20
19.874913
 30
0.0
 10
12.592116
 20
19.839550
 30
0.0
 10
12.618881
 20
19.801270
 30
0.0
 10
12.183751
 20
19.514528
 30
0.0
 10
12.561940
 20
19.874913
 30
0.0
 10
12.561940
 20
19.874913
 30
0.0
  0
LWPOLYLINE
  5
10c
100
AcDbEntity
  8
Layer_1
 62
7
100
AcDbPolyline
 90
5
 70
0
 10
2.782885
 20
19.382567
 30
0.0
 10
2.331385
 20
19.769024
 30
0.0
 10
2.420626
 20
19.862069
 30
0.0
 10
2.782885
 20
19.382567
 30
0.0
 10
2.782885
 20
19.382567
 30
0.0
  0
LWPOLYLINE
  5
10d
100
AcDbEntity
  8
Layer_1
 62
7
100
AcDbPolyline
 90
5
 70
0
 10
11.173043
 20
19.731376
 30
0.0
 10
10.719172
 20
19.349880
 30
0.0
 10
11.084573
 20
19.824256
 30
0.0
 10
11.173043
 20
19.731376
 30
0.0
 10
11.173043
 20
19.731376
 30
0.0
  0
LWPOLYLINE
  5
10e
100
AcDbEntity
  8
Layer_1
 62
7
100
AcDbPolyline
 90
6
 70
0
 10
1.626821
 20
19.178562
 30
0.0
 10
1.061936
 20
18.326384
 30
0.0
 10
0.207001
 20
18.893088
 30
0.0
 10
0.771887
 20
19.745267
 30
0.0
 10
1.626821
 20
19.178562
 30
0.0
 10
1.626821
 20
19.178562
 30
0.0
  0
LWPOLYLINE
  5
10f
100
AcDbEntity
  8
Layer_1
 62
7
100
AcDbPolyline
 90
6
 70
0
 10
13.273504
 20
18.873024
 30
0.0
 10
12.416805
 20
18.308910
 30
0.0
 10
11.854455
 20
19.162853
 30
0.0
 10
12.711209
 20
19.727022
 30
0.0
 10
13.273504
 20
18.873024
 30
0.0
 10
13.273504
 20
18.873024
 30
0.0
  0
LWPOLYLINE
  5
110
100
AcDbEntity
  8
Layer_1
 62
7
100
AcDbPolyline
 90
6
 70
0
 10
4.362062
 20
19.104534
 30
0.0
 10
3.951296
 20
19.611487
 30
0.0
 10
4.022945
 20
19.665592
 30
0.0
 10
4.100896
 20
19.709107
 30
0.0
 10
4.362062
 20
19.104534
 30
0.0
 10
4.362062
 20
19.104534
 30
0.0
  0
LWPOLYLINE
  5
111
100
AcDbEntity
  8
Layer_1
 62
7
100
AcDbPolyline
 90
6
 70
0
 10
3.020238
 20
19.031002
 30
0.0
 10
2.355363
 20
18.254230
 30
0.0
 10
1.576054
 20
18.921255
 30
0.0
 10
2.240930
 20
19.698028
 30
0.0
 10
3.020238
 20
19.031002
 30
0.0
 10
3.020238
 20
19.031002
 30
0.0
  0
LWPOLYLINE
  5
112
100
AcDbEntity
  8
Layer_1
 62
7
100
AcDbPolyline
 90
7
 70
0
 10
9.393334
 20
19.694224
 30
0.0
 10
9.469420
 20
19.651787
 30
0.0
 10
9.539351
 20
19.599691
 30
0.0
 10
9.124231
 20
19.092959
 30
0.0
 10
9.388373
 20
19.696098
 30
0.0
 10
9.393334
 20
19.694224
 30
0.0
 10
9.393334
 20
19.694224
 30
0.0
  0
LWPOLYLINE
  5
113
100
AcDbEntity
  8
Layer_1
 62
7
100
AcDbPolyline
 90
6
 70
0
 10
11.922034
 20
18.877654
 30
0.0
 10
11.136883
 20
18.217519
 30
0.0
 10
10.478898
 20
19.000079
 30
0.0
 10
11.263994
 20
19.660269
 30
0.0
 10
11.922034
 20
18.877654
 30
0.0
 10
11.922034
 20
18.877654
 30
0.0
  0
LWPOLYLINE
  5
114
100
AcDbEntity
  8
Layer_1
 62
7
100
AcDbPolyline
 90
6
 70
0
 10
4.508740
 20
18.743984
 30
0.0
 10
3.714329
 20
18.100330
 30
0.0
 10
3.068580
 20
18.897277
 30
0.0
 10
3.862991
 20
19.540931
 30
0.0
 10
4.508740
 20
18.743984
 30
0.0
 10
4.508740
 20
18.743984
 30
0.0
  0
LWPOLYLINE
  5
115
100
AcDbEntity
  8
Layer_1
 62
7
100
AcDbPolyline
 90
6
 70
0
 10
10.416555
 20
18.879363
 30
0.0
 10
9.766507
 20
18.085833
 30
0.0
 10
8.975568
 20
18.733787
 30
0.0
 10
9.625616
 20
19.527316
 30
0.0
 10
10.416555
 20
18.879363
 30
0.0
 10
10.416555
 20
18.879363
 30
0.0
  0
LWPOLYLINE
  5
116
100
AcDbEntity
  8
Layer_1
 62
7
100
AcDbPolyline
 90
6
 70
0
 10
7.246626
 20
19.217368
 30
0.0
 10
7.245800
 20
18.191612
 30
0.0
 10
6.223405
 20
18.192492
 30
0.0
 10
6.224232
 20
19.218249
 30
0.0
 10
7.246626
 20
19.217368
 30
0.0
 10
7.246626
 20
19.217368
 30
0.0
  0
LWPOLYLINE
  5
117
100
AcDbEntity
  8
Layer_1
 62
7
100
AcDbPolyline
 90
6
 70
0
 10
6.111344
 20
18.842045
 30
0.0
 10
6.111174
 20
18.522285
 30
0.0
 10
5.864836
 20
19.158278
 30
0.0
 10
6.112001
 20
19.191406
 30
0.0
 10
6.111340
 20
18.842045
 30
0.0
 10
6.111344
 20
18.842045
 30
0.0
  0
LWPOLYLINE
  5
118
100
AcDbEntity
  8
Layer_1
 62
7
100
AcDbPolyline
 90
5
 70
0
 10
7.604971
 20
19.155687
 30
0.0
 10
7.358909
 20
18.521624
 30
0.0
 10
7.359681
 20
19.190083
 30
0.0
 10
7.604971
 20
19.155687
 30
0.0
 10
7.604971
 20
19.155687
 30
0.0
  0
LWPOLYLINE
  5
119
100
AcDbEntity
  8
Layer_1
 62
7
100
AcDbPolyline
 90
6
 70
0
 10
6.124628
 20
18.174579
 30
0.0
 10
5.171191
 20
17.805099
 30
0.0
 10
4.800498
 20
18.761568
 30
0.0
 10
5.753935
 20
19.131048
 30
0.0
 10
6.124628
 20
18.174579
 30
0.0
 10
6.124628
 20
18.174579
 30
0.0
  0
LWPOLYLINE
  5
11a
100
AcDbEntity
  8
Layer_1
 62
7
100
AcDbPolyline
 90
6
 70
0
 10
8.668982
 20
18.760631
 30
0.0
 10
8.298125
 20
17.804218
 30
0.0
 10
7.344798
 20
18.173917
 30
0.0
 10
7.715711
 20
19.130331
 30
0.0
 10
8.668982
 20
18.760631
 30
0.0
 10
8.668982
 20
18.760631
 30
0.0
  0
LWPOLYLINE
  5
11b
100
AcDbEntity
  8
Layer_1
 62
7
100
AcDbPolyline
 90
5
 70
0
 10
3.392199
 20
18.318942
 30
0.0
 10
2.874387
 20
18.686989
 30
0.0
 10
2.987110
 20
18.818784
 30
0.0
 10
3.392199
 20
18.318942
 30
0.0
 10
3.392199
 20
18.318942
 30
0.0
  0
LWPOLYLINE
  5
11c
100
AcDbEntity
  8
Layer_1
 62
7
100
AcDbPolyline
 90
5
 70
0
 10
1.973040
 20
18.433430
 30
0.0
 10
1.453188
 20
18.711242
 30
0.0
 10
1.523689
 20
18.818068
 30
0.0
 10
1.973040
 20
18.433430
 30
0.0
 10
1.973040
 20
18.433430
 30
0.0
  0
LWPOLYLINE
  5
11d
100
AcDbEntity
  8
Layer_1
 62
7
100
AcDbPolyline
 90
5
 70
0
 10
10.610473
 20
18.668688
 30
0.0
 10
10.091063
 20
18.303729
 30
0.0
 10
10.498741
 20
18.801586
 30
0.0
 10
10.610473
 20
18.668688
 30
0.0
 10
10.610473
 20
18.668688
 30
0.0
  0
LWPOLYLINE
  5
11e
100
AcDbEntity
  8
Layer_1
 62
7
100
AcDbPolyline
 90
7
 70
0
 10
0.606081
 20
18.493181
 30
0.0
 10
0.129169
 20
18.698619
 30
0.0
 10
0.159211
 20
18.757255
 30
0.0
 10
0.177137
 20
18.774813
 30
0.0
 10
0.203007
 20
18.760219
 30
0.0
 10
0.606081
 20
18.493181
 30
0.0
 10
0.606081
 20
18.493181
 30
0.0
  0
LWPOLYLINE
  5
11f
100
AcDbEntity
  8
Layer_1
 62
7
100
AcDbPolyline
 90
5
 70
0
 10
12.045507
 20
18.668082
 30
0.0
 10
11.520970
 20
18.393356
 30
0.0
 10
11.974896
 20
18.775073
 30
0.0
 10
12.045507
 20
18.668082
 30
0.0
 10
12.045507
 20
18.668082
 30
0.0
  0
LWPOLYLINE
  5
120
100
AcDbEntity
  8
Layer_1
 62
7
100
AcDbPolyline
 90
6
 70
0
 10
13.303601
 20
18.756718
 30
0.0
 10
13.328147
 20
18.717249
 30
0.0
 10
13.348690
 20
18.675303
 30
0.0
 10
12.869739
 20
18.471849
 30
0.0
 10
13.303601
 20
18.756718
 30
0.0
 10
13.303601
 20
18.756718
 30
0.0
  0
LWPOLYLINE
  5
121
100
AcDbEntity
  8
Layer_1
 62
7
100
AcDbPolyline
 90
8
 70
0
 10
8.784958
 20
18.716534
 30
0.0
 10
8.891199
 20
18.655223
 30
0.0
 10
8.987695
 20
18.579171
 30
0.0
 10
8.522304
 20
18.069793
 30
0.0
 10
8.775753
 20
18.720447
 30
0.0
 10
8.782246
 20
18.717687
 30
0.0
 10
8.784958
 20
18.716533
 30
0.0
 10
8.784958
 20
18.716534
 30
0.0
  0
LWPOLYLINE
  5
122
100
AcDbEntity
  8
Layer_1
 62
7
100
AcDbPolyline
 90
7
 70
0
 10
4.947067
 20
18.072218
 30
0.0
 10
4.485258
 20
18.578840
 30
0.0
 10
4.584182
 20
18.659906
 30
0.0
 10
4.636951
 20
18.695040
 30
0.0
 10
4.695767
 20
18.720172
 30
0.0
 10
4.947067
 20
18.072218
 30
0.0
 10
4.947067
 20
18.072218
 30
0.0
  0
LWPOLYLINE
  5
123
100
AcDbEntity
  8
Layer_1
 62
7
100
AcDbPolyline
 90
6
 70
0
 10
2.278468
 20
18.142167
 30
0.0
 10
1.796375
 20
17.240490
 30
0.0
 10
0.891776
 20
17.724126
 30
0.0
 10
1.373869
 20
18.625804
 30
0.0
 10
2.278468
 20
18.142167
 30
0.0
 10
2.278468
 20
18.142167
 30
0.0
  0
LWPOLYLINE
  5
124
100
AcDbEntity
  8
Layer_1
 62
7
100
AcDbPolyline
 90
6
 70
0
 10
3.630599
 20
18.011309
 30
0.0
 10
3.038484
 20
17.177706
 30
0.0
 10
2.202180
 20
17.771751
 30
0.0
 10
2.794295
 20
18.605354
 30
0.0
 10
3.630599
 20
18.011309
 30
0.0
 10
3.630599
 20
18.011309
 30
0.0
  0
LWPOLYLINE
  5
125
100
AcDbEntity
  8
Layer_1
 62
7
100
AcDbPolyline
 90
6
 70
0
 10
13.827145
 20
17.645026
 30
0.0
 10
12.883023
 20
17.244072
 30
0.0
 10
12.483337
 20
18.185107
 30
0.0
 10
13.427459
 20
18.586116
 30
0.0
 10
13.827145
 20
17.645026
 30
0.0
 10
13.827145
 20
17.645026
 30
0.0
  0
LWPOLYLINE
  5
126
100
AcDbEntity
  8
Layer_1
 62
7
100
AcDbPolyline
 90
6
 70
0
 10
11.276782
 20
17.749372
 30
0.0
 10
10.437501
 20
17.159792
 30
0.0
 10
9.849796
 20
17.996371
 30
0.0
 10
10.689076
 20
18.585951
 30
0.0
 10
11.276782
 20
17.749372
 30
0.0
 10
11.276782
 20
17.749372
 30
0.0
  0
LWPOLYLINE
  5
127
100
AcDbEntity
  8
Layer_1
 62
7
100
AcDbPolyline
 90
6
 70
0
 10
12.596171
 20
17.675398
 30
0.0
 10
11.687603
 20
17.199148
 30
0.0
 10
11.212896
 20
18.104795
 30
0.0
 10
12.121409
 20
18.581045
 30
0.0
 10
12.596171
 20
17.675398
 30
0.0
 10
12.596171
 20
17.675398
 30
0.0
  0
LWPOLYLINE
  5
128
100
AcDbEntity
  8
Layer_1
 62
7
100
AcDbPolyline
 90
6
 70
0
 10
5.086028
 20
17.751631
 30
0.0
 10
4.330257
 20
17.063053
 30
0.0
 10
3.639419
 20
17.821305
 30
0.0
 10
4.395245
 20
18.509883
 30
0.0
 10
5.086028
 20
17.751631
 30
0.0
 10
5.086028
 20
17.751631
 30
0.0
  0
LWPOLYLINE
  5
129
100
AcDbEntity
  8
Layer_1
 62
7
100
AcDbPolyline
 90
6
 70
0
 10
9.829952
 20
17.818384
 30
0.0
 10
9.137956
 20
17.061179
 30
0.0
 10
8.383177
 20
17.750970
 30
0.0
 10
9.075173
 20
18.508174
 30
0.0
 10
9.829952
 20
17.818384
 30
0.0
 10
9.829952
 20
17.818384
 30
0.0
  0
LWPOLYLINE
  5
12a
100
AcDbEntity
  8
Layer_1
 62
7
100
AcDbPolyline
 90
6
 70
0
 10
6.709412
 20
17.108253
 30
0.0
 10
5.727367
 20
16.823660
 30
0.0
 10
5.441892
 20
17.808848
 30
0.0
 10
6.423938
 20
18.093440
 30
0.0
 10
6.709412
 20
17.108253
 30
0.0
 10
6.709412
 20
17.108253
 30
0.0
  0
LWPOLYLINE
  5
12b
100
AcDbEntity
  8
Layer_1
 62
7
100
AcDbPolyline
 90
6
 70
0
 10
8.043188
 20
17.800690
 30
0.0
 10
7.751485
 20
16.817266
 30
0.0
 10
6.771258
 20
17.107977
 30
0.0
 10
7.062906
 20
18.091401
 30
0.0
 10
8.043188
 20
17.800690
 30
0.0
 10
8.043188
 20
17.800690
 30
0.0
  0
LWPOLYLINE
  5
12c
100
AcDbEntity
  8
Layer_1
 62
7
100
AcDbPolyline
 90
5
 70
0
 10
6.941529
 20
18.078943
 30
0.0
 10
6.741438
 20
17.404311
 30
0.0
 10
6.545977
 20
18.079439
 30
0.0
 10
6.941529
 20
18.078943
 30
0.0
 10
6.941529
 20
18.078943
 30
0.0
  0
LWPOLYLINE
  5
12d
100
AcDbEntity
  8
Layer_1
 62
7
100
AcDbPolyline
 90
7
 70
0
 10
5.542599
 20
17.056108
 30
0.0
 10
5.005991
 20
17.525633
 30
0.0
 10
5.101103
 20
17.613063
 30
0.0
 10
5.199617
 20
17.694995
 30
0.0
 10
5.341626
 20
17.750033
 30
0.0
 10
5.542599
 20
17.056108
 30
0.0
 10
5.542599
 20
17.056108
 30
0.0
  0
LWPOLYLINE
  5
12e
100
AcDbEntity
  8
Layer_1
 62
7
100
AcDbPolyline
 90
7
 70
0
 10
8.144997
 20
17.742977
 30
0.0
 10
8.239639
 20
17.706218
 30
0.0
 10
8.324301
 20
17.650315
 30
0.0
 10
8.475781
 20
17.513176
 30
0.0
 10
7.938181
 20
17.049604
 30
0.0
 10
8.144997
 20
17.742977
 30
0.0
 10
8.144997
 20
17.742977
 30
0.0
  0
LWPOLYLINE
  5
12f
100
AcDbEntity
  8
Layer_1
 62
7
100
AcDbPolyline
 90
5
 70
0
 10
4.023946
 20
17.231835
 30
0.0
 10
3.426870
 20
17.529492
 30
0.0
 10
3.569524
 20
17.730520
 30
0.0
 10
4.023946
 20
17.231835
 30
0.0
 10
4.023946
 20
17.231835
 30
0.0
  0
LWPOLYLINE
  5
130
100
AcDbEntity
  8
Layer_1
 62
7
100
AcDbPolyline
 90
6
 70
0
 10
9.971063
 20
17.627553
 30
0.0
 10
10.041839
 20
17.526570
 30
0.0
 10
9.444873
 20
17.229520
 30
0.0
 10
9.899956
 20
17.727653
 30
0.0
 10
9.971063
 20
17.627553
 30
0.0
 10
9.971063
 20
17.627553
 30
0.0
  0
LWPOLYLINE
  5
131
100
AcDbEntity
  8
Layer_1
 62
7
100
AcDbPolyline
 90
5
 70
0
 10
2.670327
 20
17.301344
 30
0.0
 10
2.071652
 20
17.515491
 30
0.0
 10
2.153452
 20
17.668563
 30
0.0
 10
2.670327
 20
17.301344
 30
0.0
 10
2.670327
 20
17.301344
 30
0.0
  0
LWPOLYLINE
  5
132
100
AcDbEntity
  8
Layer_1
 62
7
100
AcDbPolyline
 90
5
 70
0
 10
11.406428
 20
17.492891
 30
0.0
 10
10.808855
 20
17.282272
 30
0.0
 10
11.326391
 20
17.645688
 30
0.0
 10
11.406428
 20
17.492891
 30
0.0
 10
11.406428
 20
17.492891
 30
0.0
  0
LWPOLYLINE
  5
133
100
AcDbEntity
  8
Layer_1
 62
7
100
AcDbPolyline
 90
5
 70
0
 10
1.385389
 20
17.332377
 30
0.0
 10
0.812842
 20
17.492395
 30
0.0
 10
0.863829
 20
17.611016
 30
0.0
 10
1.385389
 20
17.332377
 30
0.0
 10
1.385389
 20
17.332377
 30
0.0
  0
LWPOLYLINE
  5
134
100
AcDbEntity
  8
Layer_1
 62
7
100
AcDbPolyline
 90
5
 70
0
 10
12.675380
 20
17.444053
 30
0.0
 10
12.099967
 20
17.288225
 30
0.0
 10
12.624669
 20
17.563446
 30
0.0
 10
12.675380
 20
17.444053
 30
0.0
 10
12.675380
 20
17.444053
 30
0.0
  0
LWPOLYLINE
  5
135
100
AcDbEntity
  8
Layer_1
 62
7
100
AcDbPolyline
 90
6
 70
0
 10
13.838610
 20
17.526350
 30
0.0
 10
13.856933
 20
17.483417
 30
0.0
 10
13.870911
 20
17.438651
 30
0.0
 10
13.358887
 20
17.323337
 30
0.0
 10
13.838610
 20
17.526350
 30
0.0
 10
13.838610
 20
17.526350
 30
0.0
  0
LWPOLYLINE
  5
136
100
AcDbEntity
  8
Layer_1
 62
7
100
AcDbPolyline
 90
6
 70
0
 10
5.675608
 20
16.789871
 30
0.0
 10
5.002464
 20
16.020209
 30
0.0
 10
4.230321
 20
16.695558
 30
0.0
 10
4.903465
 20
17.465220
 30
0.0
 10
5.675608
 20
16.789871
 30
0.0
 10
5.675608
 20
16.789871
 30
0.0
  0
LWPOLYLINE
  5
137
100
AcDbEntity
  8
Layer_1
 62
7
100
AcDbPolyline
 90
6
 70
0
 10
9.247703
 20
16.679408
 30
0.0
 10
8.470986
 20
16.009460
 30
0.0
 10
7.803244
 20
16.783642
 30
0.0
 10
8.579906
 20
17.453644
 30
0.0
 10
9.247703
 20
16.679408
 30
0.0
 10
9.247703
 20
16.679408
 30
0.0
  0
LWPOLYLINE
  5
138
100
AcDbEntity
  8
Layer_1
 62
7
100
AcDbPolyline
 90
6
 70
0
 10
4.269237
 20
16.983072
 30
0.0
 10
3.813327
 20
16.067944
 30
0.0
 10
2.895223
 20
16.525398
 30
0.0
 10
3.351133
 20
17.440470
 30
0.0
 10
4.269237
 20
16.983072
 30
0.0
 10
4.269237
 20
16.983072
 30
0.0
  0
LWPOLYLINE
  5
139
100
AcDbEntity
  8
Layer_1
 62
7
100
AcDbPolyline
 90
6
 70
0
 10
10.572659
 20
16.522642
 30
0.0
 10
9.654335
 20
16.065684
 30
0.0
 10
9.198866
 20
16.981033
 30
0.0
 10
10.117135
 20
17.437990
 30
0.0
 10
10.572659
 20
16.522642
 30
0.0
 10
10.572659
 20
16.522642
 30
0.0
  0
LWPOLYLINE
  5
13a
100
AcDbEntity
  8
Layer_1
 62
7
100
AcDbPolyline
 90
6
 70
0
 10
2.981874
 20
17.069613
 30
0.0
 10
2.637860
 20
16.106805
 30
0.0
 10
1.671966
 20
16.451976
 30
0.0
 10
2.015979
 20
17.414729
 30
0.0
 10
2.981874
 20
17.069613
 30
0.0
 10
2.981874
 20
17.069613
 30
0.0
  0
LWPOLYLINE
  5
13b
100
AcDbEntity
  8
Layer_1
 62
7
100
AcDbPolyline
 90
6
 70
0
 10
11.801153
 20
16.428108
 30
0.0
 10
10.833770
 20
16.087127
 30
0.0
 10
10.493946
 20
17.051367
 30
0.0
 10
11.461274
 20
17.392349
 30
0.0
 10
11.801153
 20
16.428108
 30
0.0
 10
11.801153
 20
16.428108
 30
0.0
  0
LWPOLYLINE
  5
13c
100
AcDbEntity
  8
Layer_1
 62
7
100
AcDbPolyline
 90
6
 70
0
 10
1.745829
 20
17.114427
 30
0.0
 10
1.470387
 20
16.129736
 30
0.0
 10
0.482498
 20
16.406060
 30
0.0
 10
0.757941
 20
17.390751
 30
0.0
 10
1.745829
 20
17.114427
 30
0.0
 10
1.745829
 20
17.114427
 30
0.0
  0
LWPOLYLINE
  5
13d
100
AcDbEntity
  8
Layer_1
 62
7
100
AcDbPolyline
 90
6
 70
0
 10
12.995030
 20
16.354466
 30
0.0
 10
12.005103
 20
16.086024
 30
0.0
 10
11.737488
 20
17.072810
 30
0.0
 10
12.727470
 20
17.341252
 30
0.0
 10
12.995030
 20
16.354466
 30
0.0
 10
12.995030
 20
16.354466
 30
0.0
  0
LWPOLYLINE
  5
13e
100
AcDbEntity
  8
Layer_1
 62
7
100
AcDbPolyline
 90
8
 70
0
 10
7.242382
 20
16.926131
 30
0.0
 10
7.242382
 20
15.902139
 30
0.0
 10
6.224177
 20
15.900375
 30
0.0
 10
6.219339
 20
15.997983
 30
0.0
 10
6.219878
 20
16.099419
 30
0.0
 10
6.219878
 20
16.926131
 30
0.0
 10
7.242382
 20
16.926131
 30
0.0
 10
7.242382
 20
16.926131
 30
0.0
  0
LWPOLYLINE
  5
13f
100
AcDbEntity
  8
Layer_1
 62
7
100
AcDbPolyline
 90
6
 70
0
 10
7.716427
 20
16.709780
 30
0.0
 10
8.085797
 20
16.283084
 30
0.0
 10
7.355491
 20
16.043360
 30
0.0
 10
7.355491
 20
16.816605
 30
0.0
 10
7.716427
 20
16.709780
 30
0.0
 10
7.716427
 20
16.709780
 30
0.0
  0
LWPOLYLINE
  5
140
100
AcDbEntity
  8
Layer_1
 62
7
100
AcDbPolyline
 90
6
 70
0
 10
6.107375
 20
16.043195
 30
0.0
 10
5.380597
 20
16.281099
 30
0.0
 10
5.762755
 20
16.715898
 30
0.0
 10
6.107375
 20
16.815723
 30
0.0
 10
6.107375
 20
16.043195
 30
0.0
 10
6.107375
 20
16.043195
 30
0.0
  0
LWPOLYLINE
  5
141
100
AcDbEntity
  8
Layer_1
 62
7
100
AcDbPolyline
 90
5
 70
0
 10
4.721675
 20
16.116617
 30
0.0
 10
4.016560
 20
16.221458
 30
0.0
 10
4.194051
 20
16.578039
 30
0.0
 10
4.721675
 20
16.116617
 30
0.0
 10
4.721675
 20
16.116617
 30
0.0
  0
LWPOLYLINE
  5
142
100
AcDbEntity
  8
Layer_1
 62
7
100
AcDbPolyline
 90
5
 70
0
 10
9.459315
 20
16.204205
 30
0.0
 10
8.754696
 20
16.104159
 30
0.0
 10
9.282595
 20
16.559849
 30
0.0
 10
9.459315
 20
16.204205
 30
0.0
 10
9.459315
 20
16.204205
 30
0.0
  0
LWPOLYLINE
  5
143
100
AcDbEntity
  8
Layer_1
 62
7
100
AcDbPolyline
 90
5
 70
0
 10
3.468266
 20
16.113861
 30
0.0
 10
2.783106
 20
16.177030
 30
0.0
 10
2.867552
 20
16.413226
 30
0.0
 10
3.468266
 20
16.113861
 30
0.0
 10
3.468266
 20
16.113861
 30
0.0
  0
LWPOLYLINE
  5
144
100
AcDbEntity
  8
Layer_1
 62
7
100
AcDbPolyline
 90
5
 70
0
 10
10.683895
 20
16.172896
 30
0.0
 10
10.000112
 20
16.110994
 30
0.0
 10
10.600386
 20
16.409698
 30
0.0
 10
10.683895
 20
16.172896
 30
0.0
 10
10.683895
 20
16.172896
 30
0.0
  0
LWPOLYLINE
  5
145
100
AcDbEntity
  8
Layer_1
 62
7
100
AcDbPolyline
 90
5
 70
0
 10
2.247655
 20
16.126208
 30
0.0
 10
1.599481
 20
16.171793
 30
0.0
 10
1.646885
 20
16.341071
 30
0.0
 10
2.247655
 20
16.126208
 30
0.0
 10
2.247655
 20
16.126208
 30
0.0
  0
LWPOLYLINE
  5
146
100
AcDbEntity
  8
Layer_1
 62
7
100
AcDbPolyline
 90
5
 70
0
 10
11.871819
 20
16.145831
 30
0.0
 10
11.222597
 20
16.104214
 30
0.0
 10
11.825241
 20
16.316818
 30
0.0
 10
11.871819
 20
16.145831
 30
0.0
 10
11.871819
 20
16.145831
 30
0.0
  0
LWPOLYLINE
  5
147
100
AcDbEntity
  8
Layer_1
 62
7
100
AcDbPolyline
 90
5
 70
0
 10
1.044959
 20
16.131555
 30
0.0
 10
0.441212
 20
16.165399
 30
0.0
 10
0.470427
 20
16.292509
 30
0.0
 10
1.044959
 20
16.131555
 30
0.0
 10
1.044959
 20
16.131555
 30
0.0
  0
LWPOLYLINE
  5
148
100
AcDbEntity
  8
Layer_1
 62
7
100
AcDbPolyline
 90
5
 70
0
 10
13.034828
 20
16.112372
 30
0.0
 10
12.428271
 20
16.083764
 30
0.0
 10
13.005999
 20
16.240420
 30
0.0
 10
13.034828
 20
16.112372
 30
0.0
 10
13.034828
 20
16.112372
 30
0.0
  0
LWPOLYLINE
  5
149
100
AcDbEntity
  8
Layer_1
 62
7
100
AcDbPolyline
 90
6
 70
0
 10
8.548046
 20
15.239578
 30
0.0
 10
7.573442
 20
14.919818
 30
0.0
 10
7.256493
 20
15.891886
 30
0.0
 10
8.229278
 20
16.211040
 30
0.0
 10
8.548046
 20
15.239578
 30
0.0
 10
8.548046
 20
15.239578
 30
0.0
  0
LWPOLYLINE
  5
14a
100
AcDbEntity
  8
Layer_1
 62
7
100
AcDbPolyline
 90
8
 70
0
 10
6.205822
 20
15.891611
 30
0.0
 10
5.891298
 20
14.924062
 30
0.0
 10
5.817141
 20
14.942406
 30
0.0
 10
5.740637
 20
14.968108
 30
0.0
 10
4.914875
 20
15.238420
 30
0.0
 10
5.232927
 20
16.210048
 30
0.0
 10
6.205822
 20
15.891611
 30
0.0
 10
6.205822
 20
15.891611
 30
0.0
  0
LWPOLYLINE
  5
14b
100
AcDbEntity
  8
Layer_1
 62
7
100
AcDbPolyline
 90
6
 70
0
 10
4.977053
 20
15.964206
 30
0.0
 10
4.826516
 20
14.952946
 30
0.0
 10
3.812004
 20
15.103979
 30
0.0
 10
3.962541
 20
16.115239
 30
0.0
 10
4.977053
 20
15.964206
 30
0.0
 10
4.977053
 20
15.964206
 30
0.0
  0
LWPOLYLINE
  5
14c
100
AcDbEntity
  8
Layer_1
 62
7
100
AcDbPolyline
 90
6
 70
0
 10
9.656540
 20
15.085348
 30
0.0
 10
8.640981
 20
14.941426
 30
0.0
 10
8.497554
 20
15.953733
 30
0.0
 10
9.513113
 20
16.097655
 30
0.0
 10
9.656540
 20
15.085348
 30
0.0
 10
9.656540
 20
15.085348
 30
0.0
  0
LWPOLYLINE
  5
14d
100
AcDbEntity
  8
Layer_1
 62
7
100
AcDbPolyline
 90
6
 70
0
 10
3.786813
 20
15.971151
 30
0.0
 10
3.692776
 20
14.953001
 30
0.0
 10
2.671319
 20
15.047369
 30
0.0
 10
2.765356
 20
16.065519
 30
0.0
 10
3.786813
 20
15.971151
 30
0.0
 10
3.786813
 20
15.971151
 30
0.0
  0
LWPOLYLINE
  5
14e
100
AcDbEntity
  8
Layer_1
 62
7
100
AcDbPolyline
 90
6
 70
0
 10
10.795681
 20
15.043401
 30
0.0
 10
9.774114
 20
14.951072
 30
0.0
 10
9.682061
 20
15.969332
 30
0.0
 10
10.703573
 20
16.061660
 30
0.0
 10
10.795681
 20
15.043401
 30
0.0
 10
10.795681
 20
15.043401
 30
0.0
  0
LWPOLYLINE
  5
14f
100
AcDbEntity
  8
Layer_1
 62
7
100
AcDbPolyline
 90
6
 70
0
 10
2.613662
 20
15.987026
 30
0.0
 10
2.541949
 20
14.967167
 30
0.0
 10
1.518783
 20
15.039101
 30
0.0
 10
1.590496
 20
16.058960
 30
0.0
 10
2.613662
 20
15.987026
 30
0.0
 10
2.613662
 20
15.987026
 30
0.0
  0
LWPOLYLINE
  5
150
100
AcDbEntity
  8
Layer_1
 62
7
100
AcDbPolyline
 90
6
 70
0
 10
1.448834
 20
15.995460
 30
0.0
 10
1.391122
 20
14.974664
 30
0.0
 10
0.367019
 20
15.032542
 30
0.0
 10
0.424731
 20
16.053337
 30
0.0
 10
1.448834
 20
15.995460
 30
0.0
 10
1.448834
 20
15.995460
 30
0.0
  0
LWPOLYLINE
  5
151
100
AcDbEntity
  8
Layer_1
 62
7
100
AcDbPolyline
 90
6
 70
0
 10
11.947335
 20
15.013028
 30
0.0
 10
10.923728
 20
14.947269
 30
0.0
 10
10.858189
 20
15.967568
 30
0.0
 10
11.881796
 20
16.033328
 30
0.0
 10
11.947335
 20
15.013028
 30
0.0
 10
11.947335
 20
15.013028
 30
0.0
  0
LWPOLYLINE
  5
152
100
AcDbEntity
  8
Layer_1
 62
7
100
AcDbPolyline
 90
6
 70
0
 10
13.098548
 20
14.978633
 30
0.0
 10
12.073949
 20
14.930456
 30
0.0
 10
12.025938
 20
15.951748
 30
0.0
 10
13.050537
 20
15.999924
 30
0.0
 10
13.098548
 20
14.978633
 30
0.0
 10
13.098548
 20
14.978633
 30
0.0
  0
LWPOLYLINE
  5
153
100
AcDbEntity
  8
Layer_1
 62
7
100
AcDbPolyline
 90
6
 70
0
 10
7.457687
 20
15.122004
 30
0.0
 10
6.734603
 20
14.399140
 30
0.0
 10
6.009369
 20
15.124595
 30
0.0
 10
6.732453
 20
15.847458
 30
0.0
 10
7.457687
 20
15.122004
 30
0.0
 10
7.457687
 20
15.122004
 30
0.0
  0
LWPOLYLINE
  5
154
100
AcDbEntity
  8
Layer_1
 62
7
100
AcDbPolyline
 90
5
 70
0
 10
6.512959
 20
15.787486
 30
0.0
 10
6.186584
 20
15.461112
 30
0.0
 10
6.293134
 20
15.787486
 30
0.0
 10
6.512959
 20
15.787486
 30
0.0
 10
6.512959
 20
15.787486
 30
0.0
  0
LWPOLYLINE
  5
155
100
AcDbEntity
  8
Layer_1
 62
7
100
AcDbPolyline
 90
5
 70
0
 10
7.170008
 20
15.787486
 30
0.0
 10
7.276006
 20
15.464143
 30
0.0
 10
6.952718
 20
15.787486
 30
0.0
 10
7.170008
 20
15.787486
 30
0.0
 10
7.170008
 20
15.787486
 30
0.0
  0
LWPOLYLINE
  5
156
100
AcDbEntity
  8
Layer_1
 62
7
100
AcDbPolyline
 90
6
 70
0
 10
8.530131
 20
14.919873
 30
0.0
 10
8.199126
 20
14.208089
 30
0.0
 10
7.735610
 20
14.853838
 30
0.0
 10
8.503783
 20
15.105578
 30
0.0
 10
8.530131
 20
14.919873
 30
0.0
 10
8.530131
 20
14.919873
 30
0.0
  0
LWPOLYLINE
  5
157
100
AcDbEntity
  8
Layer_1
 62
7
100
AcDbPolyline
 90
9
 70
0
 10
5.719319
 20
14.856153
 30
0.0
 10
5.258669
 20
14.227271
 30
0.0
 10
4.980911
 20
14.837026
 30
0.0
 10
4.953639
 20
14.900188
 30
0.0
 10
4.945426
 20
14.967618
 30
0.0
 10
4.950588
 20
15.036449
 30
0.0
 10
4.963438
 20
15.103814
 30
0.0
 10
5.719319
 20
14.856153
 30
0.0
 10
5.719319
 20
14.856153
 30
0.0
  0
LWPOLYLINE
  5
158
100
AcDbEntity
  8
Layer_1
 62
7
100
AcDbPolyline
 90
9
 70
0
 10
4.536742
 20
14.881509
 30
0.0
 10
3.894025
 20
14.592231
 30
0.0
 10
3.802791
 20
14.917528
 30
0.0
 10
3.803646
 20
14.952389
 30
0.0
 10
3.811477
 20
14.978354
 30
0.0
 10
3.830606
 20
14.989913
 30
0.0
 10
3.865352
 20
14.981558
 30
0.0
 10
4.536742
 20
14.881509
 30
0.0
 10
4.536742
 20
14.881509
 30
0.0
  0
LWPOLYLINE
  5
159
100
AcDbEntity
  8
Layer_1
 62
7
100
AcDbPolyline
 90
8
 70
0
 10
9.657532
 20
14.953167
 30
0.0
 10
9.645849
 20
14.850990
 30
0.0
 10
9.621128
 20
14.751506
 30
0.0
 10
9.561565
 20
14.554583
 30
0.0
 10
8.899225
 20
14.863925
 30
0.0
 10
9.657477
 20
14.973286
 30
0.0
 10
9.657533
 20
14.953167
 30
0.0
 10
9.657532
 20
14.953167
 30
0.0
  0
LWPOLYLINE
  5
15a
100
AcDbEntity
  8
Layer_1
 62
7
100
AcDbPolyline
 90
4
 70
0
 10
6.020393
 20
14.955041
 30
0.0
 10
6.030679
 20
14.945822
 30
0.0
 10
6.020393
 20
14.955041
 30
0.0
 10
6.020393
 20
14.955041
 30
0.0
  0
LWPOLYLINE
  5
15b
100
AcDbEntity
  8
Layer_1
 62
7
100
AcDbPolyline
 90
7
 70
0
 10
3.353889
 20
14.871366
 30
0.0
 10
2.697557
 20
14.684394
 30
0.0
 10
2.670947
 20
14.809786
 30
0.0
 10
2.658835
 20
14.872561
 30
0.0
 10
2.653791
 20
14.935803
 30
0.0
 10
3.353889
 20
14.871366
 30
0.0
 10
3.353889
 20
14.871366
 30
0.0
  0
LWPOLYLINE
  5
15c
100
AcDbEntity
  8
Layer_1
 62
7
100
AcDbPolyline
 90
8
 70
0
 10
10.811556
 20
14.923235
 30
0.0
 10
10.796745
 20
14.807146
 30
0.0
 10
10.771097
 20
14.691945
 30
0.0
 10
10.138026
 20
14.870760
 30
0.0
 10
10.811501
 20
14.931669
 30
0.0
 10
10.811546
 20
14.924614
 30
0.0
 10
10.811555
 20
14.923236
 30
0.0
 10
10.811556
 20
14.923235
 30
0.0
  0
LWPOLYLINE
  5
15d
100
AcDbEntity
  8
Layer_1
 62
7
100
AcDbPolyline
 90
6
 70
0
 10
2.160894
 20
14.880571
 30
0.0
 10
1.526224
 20
14.750429
 30
0.0
 10
1.511829
 20
14.838435
 30
0.0
 10
1.502137
 20
14.926873
 30
0.0
 10
2.160894
 20
14.880571
 30
0.0
 10
2.160894
 20
14.880571
 30
0.0
  0
LWPOLYLINE
  5
15e
100
AcDbEntity
  8
Layer_1
 62
7
100
AcDbPolyline
 90
9
 70
0
 10
0.441433
 20
14.913534
 30
0.0
 10
0.974954
 20
14.884871
 30
0.0
 10
0.440110
 20
14.799543
 30
0.0
 10
0.399715
 20
14.788916
 30
0.0
 10
0.382331
 20
14.790681
 30
0.0
 10
0.376519
 20
14.807280
 30
0.0
 10
0.363436
 20
14.916290
 30
0.0
 10
0.441433
 20
14.913533
 30
0.0
 10
0.441433
 20
14.913534
 30
0.0
  0
LWPOLYLINE
  5
15f
100
AcDbEntity
  8
Layer_1
 62
7
100
AcDbPolyline
 90
7
 70
0
 10
5.898960
 20
14.901573
 30
0.0
 10
6.718562
 20
14.299205
 30
0.0
 10
6.112887
 20
13.472988
 30
0.0
 10
5.288214
 20
14.077395
 30
0.0
 10
5.893613
 20
14.903226
 30
0.0
 10
5.898960
 20
14.901572
 30
0.0
 10
5.898960
 20
14.901573
 30
0.0
  0
LWPOLYLINE
  5
160
100
AcDbEntity
  8
Layer_1
 62
7
100
AcDbPolyline
 90
6
 70
0
 10
11.959021
 20
14.885642
 30
0.0
 10
11.938351
 20
14.735822
 30
0.0
 10
11.338849
 20
14.860562
 30
0.0
 10
11.959903
 20
14.900415
 30
0.0
 10
11.959022
 20
14.885642
 30
0.0
 10
11.959021
 20
14.885642
 30
0.0
  0
LWPOLYLINE
  5
161
100
AcDbEntity
  8
Layer_1
 62
7
100
AcDbPolyline
 90
6
 70
0
 10
8.163353
 20
14.063064
 30
0.0
 10
7.332506
 20
13.467200
 30
0.0
 10
6.735925
 20
14.299094
 30
0.0
 10
7.565560
 20
14.896612
 30
0.0
 10
8.163353
 20
14.063064
 30
0.0
 10
8.163353
 20
14.063064
 30
0.0
  0
LWPOLYLINE
  5
162
100
AcDbEntity
  8
Layer_1
 62
7
100
AcDbPolyline
 90
6
 70
0
 10
5.254314
 20
13.959435
 30
0.0
 10
4.319012
 20
13.538472
 30
0.0
 10
3.899372
 20
14.470798
 30
0.0
 10
4.834729
 20
14.891761
 30
0.0
 10
5.254314
 20
13.959435
 30
0.0
 10
5.254314
 20
13.959435
 30
0.0
  0
LWPOLYLINE
  5
163
100
AcDbEntity
  8
Layer_1
 62
7
100
AcDbPolyline
 90
7
 70
0
 10
13.099706
 20
14.864256
 30
0.0
 10
13.097161
 20
14.823964
 30
0.0
 10
13.090445
 20
14.783888
 30
0.0
 10
12.701177
 20
14.846837
 30
0.0
 10
13.098769
 20
14.868114
 30
0.0
 10
13.099706
 20
14.864256
 30
0.0
 10
13.099706
 20
14.864256
 30
0.0
  0
LWPOLYLINE
  5
164
100
AcDbEntity
  8
Layer_1
 62
7
100
AcDbPolyline
 90
6
 70
0
 10
9.559526
 20
14.430890
 30
0.0
 10
9.126822
 20
13.504518
 30
0.0
 10
8.197418
 20
13.938600
 30
0.0
 10
8.630122
 20
14.864972
 30
0.0
 10
9.559526
 20
14.430890
 30
0.0
 10
9.559526
 20
14.430890
 30
0.0
  0
LWPOLYLINE
  5
165
100
AcDbEntity
  8
Layer_1
 62
7
100
AcDbPolyline
 90
6
 70
0
 10
10.753238
 20
14.579884
 30
0.0
 10
10.475425
 20
13.595854
 30
0.0
 10
9.488254
 20
13.874604
 30
0.0
 10
9.766066
 20
14.858578
 30
0.0
 10
10.753238
 20
14.579884
 30
0.0
 10
10.753238
 20
14.579884
 30
0.0
  0
LWPOLYLINE
  5
166
100
AcDbEntity
  8
Layer_1
 62
7
100
AcDbPolyline
 90
6
 70
0
 10
3.981337
 20
13.869533
 30
0.0
 10
2.994827
 20
13.588523
 30
0.0
 10
2.714700
 20
14.571891
 30
0.0
 10
3.701265
 20
14.852901
 30
0.0
 10
3.981337
 20
13.869533
 30
0.0
 10
3.981337
 20
13.869533
 30
0.0
  0
LWPOLYLINE
  5
167
100
AcDbEntity
  8
Layer_1
 62
7
100
AcDbPolyline
 90
6
 70
0
 10
2.754883
 20
13.843625
 30
0.0
 10
1.750073
 20
13.637416
 30
0.0
 10
1.544525
 20
14.639029
 30
0.0
 10
2.549390
 20
14.845239
 30
0.0
 10
2.754883
 20
13.843625
 30
0.0
 10
2.754883
 20
13.843625
 30
0.0
  0
LWPOLYLINE
  5
168
100
AcDbEntity
  8
Layer_1
 62
7
100
AcDbPolyline
 90
6
 70
0
 10
1.560014
 20
13.829294
 30
0.0
 10
0.547266
 20
13.666355
 30
0.0
 10
0.384823
 20
14.675905
 30
0.0
 10
1.397626
 20
14.838790
 30
0.0
 10
1.560014
 20
13.829294
 30
0.0
 10
1.560014
 20
13.829294
 30
0.0
  0
LWPOLYLINE
  5
169
100
AcDbEntity
  8
Layer_1
 62
7
100
AcDbPolyline
 90
6
 70
0
 10
13.081516
 20
14.671110
 30
0.0
 10
12.918301
 20
13.661724
 30
0.0
 10
11.905663
 20
13.825490
 30
0.0
 10
12.068878
 20
14.834876
 30
0.0
 10
13.081516
 20
14.671110
 30
0.0
 10
13.081516
 20
14.671110
 30
0.0
  0
LWPOLYLINE
  5
16a
100
AcDbEntity
  8
Layer_1
 62
7
100
AcDbPolyline
 90
6
 70
0
 10
11.920381
 20
14.624587
 30
0.0
 10
11.712187
 20
13.623525
 30
0.0
 10
10.707873
 20
13.832436
 30
0.0
 10
10.916067
 20
14.833443
 30
0.0
 10
11.920381
 20
14.624587
 30
0.0
 10
11.920381
 20
14.624587
 30
0.0
  0
LWPOLYLINE
  5
16b
100
AcDbEntity
  8
Layer_1
 62
7
100
AcDbPolyline
 90
11
 70
0
 10
6.782999
 20
14.040575
 30
0.0
 10
6.995845
 20
13.742688
 30
0.0
 10
7.212231
 20
13.447412
 30
0.0
 10
6.749399
 20
13.445966
 30
0.0
 10
6.286630
 20
13.447909
 30
0.0
 10
6.254719
 20
13.447486
 30
0.0
 10
6.246424
 20
13.458574
 30
0.0
 10
6.275612
 20
13.502314
 30
0.0
 10
6.725893
 20
14.118572
 30
0.0
 10
6.782999
 20
14.040575
 30
0.0
 10
6.782999
 20
14.040575
 30
0.0
  0
LWPOLYLINE
  5
16c
100
AcDbEntity
  8
Layer_1
 62
7
100
AcDbPolyline
 90
6
 70
0
 10
6.151031
 20
13.353981
 30
0.0
 10
5.590721
 20
12.494747
 30
0.0
 10
4.734298
 20
13.053238
 30
0.0
 10
5.294553
 20
13.912472
 30
0.0
 10
6.151031
 20
13.353981
 30
0.0
 10
6.151031
 20
13.353981
 30
0.0
  0
LWPOLYLINE
  5
16d
100
AcDbEntity
  8
Layer_1
 62
7
100
AcDbPolyline
 90
6
 70
0
 10
8.704205
 20
13.025456
 30
0.0
 10
7.839844
 20
12.479257
 30
0.0
 10
7.291881
 20
13.346429
 30
0.0
 10
8.156242
 20
13.892629
 30
0.0
 10
8.704205
 20
13.025456
 30
0.0
 10
8.704205
 20
13.025456
 30
0.0
  0
LWPOLYLINE
  5
16e
100
AcDbEntity
  8
Layer_1
 62
7
100
AcDbPolyline
 90
6
 70
0
 10
10.262491
 20
13.167119
 30
0.0
 10
9.646728
 20
12.350824
 30
0.0
 10
8.827843
 20
12.968516
 30
0.0
 10
9.443550
 20
13.784811
 30
0.0
 10
10.262491
 20
13.167119
 30
0.0
 10
10.262491
 20
13.167119
 30
0.0
  0
LWPOLYLINE
  5
16f
100
AcDbEntity
  8
Layer_1
 62
7
100
AcDbPolyline
 90
6
 70
0
 10
4.643623
 20
12.964547
 30
0.0
 10
3.825509
 20
12.345753
 30
0.0
 10
3.208699
 20
13.161221
 30
0.0
 10
4.026868
 20
13.780015
 30
0.0
 10
4.643623
 20
12.964547
 30
0.0
 10
4.643623
 20
12.964547
 30
0.0
  0
LWPOLYLINE
  5
170
100
AcDbEntity
  8
Layer_1
 62
7
100
AcDbPolyline
 90
5
 70
0
 10
4.654867
 20
13.137629
 30
0.0
 10
4.413104
 20
13.456783
 30
0.0
 10
5.049978
 20
13.743194
 30
0.0
 10
4.654867
 20
13.137629
 30
0.0
 10
4.654867
 20
13.137629
 30
0.0
  0
LWPOLYLINE
  5
171
100
AcDbEntity
  8
Layer_1
 62
7
100
AcDbPolyline
 90
6
 70
0
 10
3.265254
 20
12.820515
 30
0.0
 10
2.354040
 20
12.349612
 30
0.0
 10
1.884625
 20
13.257849
 30
0.0
 10
2.795839
 20
13.728807
 30
0.0
 10
3.265254
 20
12.820515
 30
0.0
 10
3.265254
 20
12.820515
 30
0.0
  0
LWPOLYLINE
  5
172
100
AcDbEntity
  8
Layer_1
 62
7
100
AcDbPolyline
 90
5
 70
0
 10
9.031296
 20
13.424977
 30
0.0
 10
8.788982
 20
13.102792
 30
0.0
 10
8.399162
 20
13.719712
 30
0.0
 10
9.031296
 20
13.424977
 30
0.0
 10
9.031296
 20
13.424977
 30
0.0
  0
LWPOLYLINE
  5
173
100
AcDbEntity
  8
Layer_1
 62
7
100
AcDbPolyline
 90
6
 70
0
 10
11.577194
 20
13.244124
 30
0.0
 10
11.105409
 20
12.337099
 30
0.0
 10
10.195408
 20
12.810483
 30
0.0
 10
10.667248
 20
13.717452
 30
0.0
 10
11.577194
 20
13.244124
 30
0.0
 10
11.577194
 20
13.244124
 30
0.0
  0
LWPOLYLINE
  5
174
100
AcDbEntity
  8
Layer_1
 62
7
100
AcDbPolyline
 90
6
 70
0
 10
1.973205
 20
12.748140
 30
0.0
 10
1.019768
 20
12.369786
 30
0.0
 10
0.642626
 20
13.320081
 30
0.0
 10
1.596063
 20
13.698490
 30
0.0
 10
1.973205
 20
12.748140
 30
0.0
 10
1.973205
 20
12.748140
 30
0.0
  0
LWPOLYLINE
  5
175
100
AcDbEntity
  8
Layer_1
 62
7
100
AcDbPolyline
 90
6
 70
0
 10
12.823271
 20
13.315782
 30
0.0
 10
12.445799
 20
12.365597
 30
0.0
 10
11.492527
 20
12.744282
 30
0.0
 10
11.869945
 20
13.694466
 30
0.0
 10
12.823271
 20
13.315782
 30
0.0
 10
12.823271
 20
13.315782
 30
0.0
  0
LWPOLYLINE
  5
176
100
AcDbEntity
  8
Layer_1
 62
7
100
AcDbPolyline
 90
5
 70
0
 10
10.423611
 20
13.493494
 30
0.0
 10
10.309013
 20
13.273283
 30
0.0
 10
9.774169
 20
13.676993
 30
0.0
 10
10.423611
 20
13.493494
 30
0.0
 10
10.423611
 20
13.493494
 30
0.0
  0
LWPOLYLINE
  5
177
100
AcDbEntity
  8
Layer_1
 62
7
100
AcDbPolyline
 90
5
 70
0
 10
3.161791
 20
13.267109
 30
0.0
 10
3.048461
 20
13.486493
 30
0.0
 10
3.696249
 20
13.671095
 30
0.0
 10
3.161791
 20
13.267109
 30
0.0
 10
3.161791
 20
13.267109
 30
0.0
  0
LWPOLYLINE
  5
178
100
AcDbEntity
  8
Layer_1
 62
7
100
AcDbPolyline
 90
5
 70
0
 10
1.851387
 20
13.367761
 30
0.0
 10
1.786067
 20
13.529874
 30
0.0
 10
2.414012
 20
13.658583
 30
0.0
 10
1.851387
 20
13.367761
 30
0.0
 10
1.851387
 20
13.367761
 30
0.0
  0
LWPOLYLINE
  5
179
100
AcDbEntity
  8
Layer_1
 62
7
100
AcDbPolyline
 90
5
 70
0
 10
0.624326
 20
13.434128
 30
0.0
 10
0.583812
 20
13.558151
 30
0.0
 10
1.176699
 20
13.653401
 30
0.0
 10
0.624326
 20
13.434128
 30
0.0
 10
0.624326
 20
13.434128
 30
0.0
  0
LWPOLYLINE
  5
17a
100
AcDbEntity
  8
Layer_1
 62
7
100
AcDbPolyline
 90
5
 70
0
 10
12.884346
 20
13.553190
 30
0.0
 10
12.843721
 20
13.429056
 30
0.0
 10
12.289199
 20
13.649487
 30
0.0
 10
12.884346
 20
13.553190
 30
0.0
 10
12.884346
 20
13.553190
 30
0.0
  0
LWPOLYLINE
  5
17b
100
AcDbEntity
  8
Layer_1
 62
7
100
AcDbPolyline
 90
5
 70
0
 10
11.677846
 20
13.515763
 30
0.0
 10
11.613244
 20
13.352823
 30
0.0
 10
11.048909
 20
13.646676
 30
0.0
 10
11.677846
 20
13.515763
 30
0.0
 10
11.677846
 20
13.515763
 30
0.0
  0
LWPOLYLINE
  5
17c
100
AcDbEntity
  8
Layer_1
 62
7
100
AcDbPolyline
 90
6
 70
0
 10
7.232736
 20
13.329286
 30
0.0
 10
7.225294
 20
12.303585
 30
0.0
 10
6.202845
 20
12.310971
 30
0.0
 10
6.210342
 20
13.336728
 30
0.0
 10
7.232736
 20
13.329286
 30
0.0
 10
7.232736
 20
13.329286
 30
0.0
  0
LWPOLYLINE
  5
17d
100
AcDbEntity
  8
Layer_1
 62
7
100
AcDbPolyline
 90
10
 70
0
 10
6.090893
 20
12.409528
 30
0.0
 10
6.095382
 20
12.390699
 30
0.0
 10
6.091254
 20
12.373670
 30
0.0
 10
6.079077
 20
12.363435
 30
0.0
 10
6.059419
 20
12.364990
 30
0.0
 10
5.873980
 20
12.402183
 30
0.0
 10
5.688947
 20
12.438743
 30
0.0
 10
6.095854
 20
13.062553
 30
0.0
 10
6.090893
 20
12.409528
 30
0.0
 10
6.090893
 20
12.409528
 30
0.0
  0
LWPOLYLINE
  5
17e
100
AcDbEntity
  8
Layer_1
 62
7
100
AcDbPolyline
 90
5
 70
0
 10
7.737484
 20
12.430585
 30
0.0
 10
7.338790
 20
12.354297
 30
0.0
 10
7.344081
 20
13.053513
 30
0.0
 10
7.737484
 20
12.430585
 30
0.0
 10
7.737484
 20
12.430585
 30
0.0
  0
LWPOLYLINE
  5
17f
100
AcDbEntity
  8
Layer_1
 62
7
100
AcDbPolyline
 90
6
 70
0
 10
9.294942
 20
12.029355
 30
0.0
 10
8.426558
 20
11.489716
 30
0.0
 10
7.885154
 20
12.360911
 30
0.0
 10
8.753539
 20
12.900551
 30
0.0
 10
9.294942
 20
12.029355
 30
0.0
 10
9.294942
 20
12.029355
 30
0.0
  0
LWPOLYLINE
  5
180
100
AcDbEntity
  8
Layer_1
 62
7
100
AcDbPolyline
 90
6
 70
0
 10
5.587138
 20
12.358321
 30
0.0
 10
5.047167
 20
11.486133
 30
0.0
 10
4.177846
 20
12.024339
 30
0.0
 10
4.717761
 20
12.896527
 30
0.0
 10
5.587138
 20
12.358321
 30
0.0
 10
5.587138
 20
12.358321
 30
0.0
  0
LWPOLYLINE
  5
181
100
AcDbEntity
  8
Layer_1
 62
7
100
AcDbPolyline
 90
6
 70
0
 10
4.032380
 20
11.972194
 30
0.0
 10
3.281459
 20
11.273419
 30
0.0
 10
2.584889
 20
12.021914
 30
0.0
 10
3.335919
 20
12.720690
 30
0.0
 10
4.032380
 20
11.972194
 30
0.0
 10
4.032380
 20
11.972194
 30
0.0
  0
LWPOLYLINE
  5
182
100
AcDbEntity
  8
Layer_1
 62
7
100
AcDbPolyline
 90
6
 70
0
 10
10.873017
 20
12.009512
 30
0.0
 10
10.173910
 20
11.263442
 30
0.0
 10
9.425415
 20
11.964863
 30
0.0
 10
10.124577
 20
12.710878
 30
0.0
 10
10.873017
 20
12.009512
 30
0.0
 10
10.873017
 20
12.009512
 30
0.0
  0
LWPOLYLINE
  5
183
100
AcDbEntity
  8
Layer_1
 62
7
100
AcDbPolyline
 90
5
 70
0
 10
9.560904
 20
12.274646
 30
0.0
 10
9.389255
 20
12.092304
 30
0.0
 10
9.024461
 20
12.679238
 30
0.0
 10
9.560904
 20
12.274646
 30
0.0
 10
9.560904
 20
12.274646
 30
0.0
  0
LWPOLYLINE
  5
184
100
AcDbEntity
  8
Layer_1
 62
7
100
AcDbPolyline
 90
6
 70
0
 10
0.823921
 20
12.675325
 30
0.0
 10
0.819944
 20
12.672307
 30
0.0
 10
0.818423
 20
12.675552
 30
0.0
 10
0.819651
 20
12.678684
 30
0.0
 10
0.823921
 20
12.675325
 30
0.0
 10
0.823921
 20
12.675325
 30
0.0
  0
LWPOLYLINE
  5
185
100
AcDbEntity
  8
Layer_1
 62
7
100
AcDbPolyline
 90
5
 70
0
 10
4.082706
 20
12.084532
 30
0.0
 10
3.910947
 20
12.268858
 30
0.0
 10
4.448492
 20
12.675545
 30
0.0
 10
4.082706
 20
12.084532
 30
0.0
 10
4.082706
 20
12.084532
 30
0.0
  0
LWPOLYLINE
  5
186
100
AcDbEntity
  8
Layer_1
 62
7
100
AcDbPolyline
 90
6
 70
0
 10
2.610024
 20
11.781254
 30
0.0
 10
1.760491
 20
11.206446
 30
0.0
 10
1.187558
 20
12.053223
 30
0.0
 10
2.037091
 20
12.628030
 30
0.0
 10
2.610024
 20
11.781254
 30
0.0
 10
2.610024
 20
11.781254
 30
0.0
  0
LWPOLYLINE
  5
187
100
AcDbEntity
  8
Layer_1
 62
7
100
AcDbPolyline
 90
6
 70
0
 10
12.277734
 20
12.048538
 30
0.0
 10
11.703863
 20
11.202312
 30
0.0
 10
10.854937
 20
11.778001
 30
0.0
 10
11.428807
 20
12.624227
 30
0.0
 10
12.277734
 20
12.048538
 30
0.0
 10
12.277734
 20
12.048538
 30
0.0
  0
LWPOLYLINE
  5
188
100
AcDbEntity
  8
Layer_1
 62
7
100
AcDbPolyline
 90
6
 70
0
 10
13.567467
 20
12.073783
 30
0.0
 10
13.081020
 20
11.174531
 30
0.0
 10
12.178846
 20
11.662522
 30
0.0
 10
12.665293
 20
12.561774
 30
0.0
 10
13.567467
 20
12.073783
 30
0.0
 10
13.567467
 20
12.073783
 30
0.0
  0
LWPOLYLINE
  5
189
100
AcDbEntity
  8
Layer_1
 62
7
100
AcDbPolyline
 90
5
 70
0
 10
2.520286
 20
12.116172
 30
0.0
 10
2.423879
 20
12.258275
 30
0.0
 10
2.985181
 20
12.548325
 30
0.0
 10
2.520286
 20
12.116172
 30
0.0
 10
2.520286
 20
12.116172
 30
0.0
  0
LWPOLYLINE
  5
18a
100
AcDbEntity
  8
Layer_1
 62
7
100
AcDbPolyline
 90
5
 70
0
 10
11.035901
 20
12.245873
 30
0.0
 10
10.938666
 20
12.103108
 30
0.0
 10
10.475094
 20
12.537741
 30
0.0
 10
11.035901
 20
12.245873
 30
0.0
 10
11.035901
 20
12.245873
 30
0.0
  0
LWPOLYLINE
  5
18b
100
AcDbEntity
  8
Layer_1
 62
7
100
AcDbPolyline
 90
5
 70
0
 10
1.146161
 20
12.161372
 30
0.0
 10
1.085032
 20
12.274316
 30
0.0
 10
1.635586
 20
12.492652
 30
0.0
 10
1.146161
 20
12.161372
 30
0.0
 10
1.146161
 20
12.161372
 30
0.0
  0
LWPOLYLINE
  5
18c
100
AcDbEntity
  8
Layer_1
 62
7
100
AcDbPolyline
 90
5
 70
0
 10
12.379267
 20
12.270788
 30
0.0
 10
12.318634
 20
12.157623
 30
0.0
 10
11.830478
 20
12.488628
 30
0.0
 10
12.379267
 20
12.270788
 30
0.0
 10
12.379267
 20
12.270788
 30
0.0
  0
LWPOLYLINE
  5
18d
100
AcDbEntity
  8
Layer_1
 62
7
100
AcDbPolyline
 90
6
 70
0
 10
13.626006
 20
12.276134
 30
0.0
 10
13.609912
 20
12.232728
 30
0.0
 10
13.589130
 20
12.191082
 30
0.0
 10
13.133330
 20
12.437310
 30
0.0
 10
13.626006
 20
12.276134
 30
0.0
 10
13.626006
 20
12.276134
 30
0.0
  0
LWPOLYLINE
  5
18e
100
AcDbEntity
  8
Layer_1
 62
7
100
AcDbPolyline
 90
6
 70
0
 10
7.980680
 20
11.315807
 30
0.0
 10
6.975759
 20
11.127567
 30
0.0
 10
6.786858
 20
12.135740
 30
0.0
 10
7.791778
 20
12.324035
 30
0.0
 10
7.980680
 20
11.315807
 30
0.0
 10
7.980680
 20
11.315807
 30
0.0
  0
LWPOLYLINE
  5
18f
100
AcDbEntity
  8
Layer_1
 62
7
100
AcDbPolyline
 90
6
 70
0
 10
6.686151
 20
12.135960
 30
0.0
 10
6.498903
 20
11.127457
 30
0.0
 10
5.493652
 20
11.314153
 30
0.0
 10
5.680899
 20
12.322602
 30
0.0
 10
6.686151
 20
12.135960
 30
0.0
 10
6.686151
 20
12.135960
 30
0.0
  0
LWPOLYLINE
  5
190
100
AcDbEntity
  8
Layer_1
 62
7
100
AcDbPolyline
 90
6
 70
0
 10
8.334229
 20
11.424617
 30
0.0
 10
8.212114
 20
11.387215
 30
0.0
 10
8.088663
 20
11.354282
 30
0.0
 10
7.963427
 20
12.021142
 30
0.0
 10
8.334229
 20
11.424617
 30
0.0
 10
8.334229
 20
11.424617
 30
0.0
  0
LWPOLYLINE
  5
191
100
AcDbEntity
  8
Layer_1
 62
7
100
AcDbPolyline
 90
6
 70
0
 10
5.484116
 20
11.878433
 30
0.0
 10
5.386385
 20
11.354447
 30
0.0
 10
5.140874
 20
11.423074
 30
0.0
 10
5.510023
 20
12.018772
 30
0.0
 10
5.484116
 20
11.878433
 30
0.0
 10
5.484116
 20
11.878433
 30
0.0
  0
LWPOLYLINE
  5
192
100
AcDbEntity
  8
Layer_1
 62
7
100
AcDbPolyline
 90
6
 70
0
 10
4.999212
 20
11.361338
 30
0.0
 10
4.464202
 20
10.486173
 30
0.0
 10
3.591849
 20
11.019419
 30
0.0
 10
4.126858
 20
11.894638
 30
0.0
 10
4.999212
 20
11.361338
 30
0.0
 10
4.999212
 20
11.361338
 30
0.0
  0
LWPOLYLINE
  5
193
100
AcDbEntity
  8
Layer_1
 62
7
100
AcDbPolyline
 90
6
 70
0
 10
9.863135
 20
11.010875
 30
0.0
 10
8.989183
 20
10.480110
 30
0.0
 10
8.456654
 20
11.356873
 30
0.0
 10
9.330606
 20
11.887693
 30
0.0
 10
9.863135
 20
11.010875
 30
0.0
 10
9.863135
 20
11.010875
 30
0.0
  0
LWPOLYLINE
  5
194
100
AcDbEntity
  8
Layer_1
 62
7
100
AcDbPolyline
 90
5
 70
0
 10
6.860225
 20
11.131260
 30
0.0
 10
6.614768
 20
11.131977
 30
0.0
 10
6.736863
 20
11.790073
 30
0.0
 10
6.860225
 20
11.131261
 30
0.0
 10
6.860225
 20
11.131260
 30
0.0
  0
LWPOLYLINE
  5
195
100
AcDbEntity
  8
Layer_1
 62
7
100
AcDbPolyline
 90
6
 70
0
 10
3.439272
 20
10.973062
 30
0.0
 10
2.732559
 20
10.229638
 30
0.0
 10
1.991505
 20
10.934035
 30
0.0
 10
2.698219
 20
11.677515
 30
0.0
 10
3.439272
 20
10.973062
 30
0.0
 10
3.439272
 20
10.973062
 30
0.0
  0
LWPOLYLINE
  5
196
100
AcDbEntity
  8
Layer_1
 62
7
100
AcDbPolyline
 90
6
 70
0
 10
11.472518
 20
10.929956
 30
0.0
 10
10.730472
 20
10.226551
 30
0.0
 10
10.024807
 20
10.970967
 30
0.0
 10
10.766797
 20
11.674373
 30
0.0
 10
11.472518
 20
10.929956
 30
0.0
 10
11.472518
 20
10.929956
 30
0.0
  0
LWPOLYLINE
  5
197
100
AcDbEntity
  8
Layer_1
 62
7
100
AcDbPolyline
 90
5
 70
0
 10
3.494669
 20
11.076635
 30
0.0
 10
3.366677
 20
11.198288
 30
0.0
 10
3.836313
 20
11.635016
 30
0.0
 10
3.494669
 20
11.076635
 30
0.0
 10
3.494669
 20
11.076635
 30
0.0
  0
LWPOLYLINE
  5
198
100
AcDbEntity
  8
Layer_1
 62
7
100
AcDbPolyline
 90
5
 70
0
 10
10.089519
 20
11.188035
 30
0.0
 10
9.961582
 20
11.066437
 30
0.0
 10
9.621427
 20
11.626748
 30
0.0
 10
10.089519
 20
11.188035
 30
0.0
 10
10.089519
 20
11.188035
 30
0.0
  0
LWPOLYLINE
  5
199
100
AcDbEntity
  8
Layer_1
 62
7
100
AcDbPolyline
 90
6
 70
0
 10
1.991450
 20
10.760127
 30
0.0
 10
1.188991
 20
10.121158
 30
0.0
 10
0.552117
 20
10.920972
 30
0.0
 10
1.354521
 20
11.559941
 30
0.0
 10
1.991450
 20
10.760127
 30
0.0
 10
1.991450
 20
10.760127
 30
0.0
  0
LWPOLYLINE
  5
19a
100
AcDbEntity
  8
Layer_1
 62
7
100
AcDbPolyline
 90
6
 70
0
 10
12.902205
 20
10.904490
 30
0.0
 10
12.263733
 20
10.105945
 30
0.0
 10
11.462541
 20
10.746512
 30
0.0
 10
12.101014
 20
11.545058
 30
0.0
 10
12.902205
 20
10.904490
 30
0.0
 10
12.902205
 20
10.904490
 30
0.0
  0
LWPOLYLINE
  5
19b
100
AcDbEntity
  8
Layer_1
 62
7
100
AcDbPolyline
 90
5
 70
0
 10
1.923981
 20
11.026530
 30
0.0
 10
1.844331
 20
11.126355
 30
0.0
 10
2.333479
 20
11.457359
 30
0.0
 10
1.923981
 20
11.026530
 30
0.0
 10
1.923981
 20
11.026530
 30
0.0
  0
LWPOLYLINE
  5
19c
100
AcDbEntity
  8
Layer_1
 62
7
100
AcDbPolyline
 90
5
 70
0
 10
11.619307
 20
11.123378
 30
0.0
 10
11.539822
 20
11.023443
 30
0.0
 10
11.131647
 20
11.454107
 30
0.0
 10
11.619307
 20
11.123378
 30
0.0
 10
11.619307
 20
11.123378
 30
0.0
  0
LWPOLYLINE
  5
19d
100
AcDbEntity
  8
Layer_1
 62
7
100
AcDbPolyline
 90
6
 70
0
 10
0.513091
 20
11.033805
 30
0.0
 10
0.485285
 20
11.071322
 30
0.0
 10
0.461277
 20
11.111692
 30
0.0
 10
0.918840
 20
11.357093
 30
0.0
 10
0.513091
 20
11.033805
 30
0.0
 10
0.513091
 20
11.033805
 30
0.0
  0
LWPOLYLINE
  5
19e
100
AcDbEntity
  8
Layer_1
 62
7
100
AcDbPolyline
 90
6
 70
0
 10
12.994038
 20
11.093392
 30
0.0
 10
12.971650
 20
11.053079
 30
0.0
 10
12.944870
 20
11.015230
 30
0.0
 10
12.540332
 20
11.338683
 30
0.0
 10
12.994038
 20
11.093392
 30
0.0
 10
12.994038
 20
11.093392
 30
0.0
  0
LWPOLYLINE
  5
19f
100
AcDbEntity
  8
Layer_1
 62
7
100
AcDbPolyline
 90
6
 70
0
 10
6.095303
 20
11.035845
 30
0.0
 10
5.817766
 20
10.048398
 30
0.0
 10
4.833516
 20
10.325053
 30
0.0
 10
5.111053
 20
11.312500
 30
0.0
 10
6.095303
 20
11.035845
 30
0.0
 10
6.095303
 20
11.035845
 30
0.0
  0
LWPOLYLINE
  5
1a0
100
AcDbEntity
  8
Layer_1
 62
7
100
AcDbPolyline
 90
6
 70
0
 10
8.620255
 20
10.319761
 30
0.0
 10
7.635288
 20
10.045366
 30
0.0
 10
7.360011
 20
11.033530
 30
0.0
 10
8.344978
 20
11.307925
 30
0.0
 10
8.620255
 20
10.319761
 30
0.0
 10
8.620255
 20
10.319761
 30
0.0
  0
LWPOLYLINE
  5
1a1
100
AcDbEntity
  8
Layer_1
 62
7
100
AcDbPolyline
 90
6
 70
0
 10
7.239020
 20
11.017710
 30
0.0
 10
7.237035
 20
9.991954
 30
0.0
 10
6.214641
 20
9.993994
 30
0.0
 10
6.216572
 20
11.019751
 30
0.0
 10
7.239021
 20
11.017710
 30
0.0
 10
7.239020
 20
11.017710
 30
0.0
  0
LWPOLYLINE
  5
1a2
100
AcDbEntity
  8
Layer_1
 62
7
100
AcDbPolyline
 90
5
 70
0
 10
4.727187
 20
10.362701
 30
0.0
 10
4.556806
 20
10.420964
 30
0.0
 10
4.902473
 20
10.986180
 30
0.0
 10
4.727187
 20
10.362701
 30
0.0
 10
4.727187
 20
10.362701
 30
0.0
  0
LWPOLYLINE
  5
1a3
100
AcDbEntity
  8
Layer_1
 62
7
100
AcDbPolyline
 90
5
 70
0
 10
8.897020
 20
10.415342
 30
0.0
 10
8.726915
 20
10.357905
 30
0.0
 10
8.552841
 20
10.982212
 30
0.0
 10
8.897020
 20
10.415342
 30
0.0
 10
8.897020
 20
10.415342
 30
0.0
  0
LWPOLYLINE
  5
1a4
100
AcDbEntity
  8
Layer_1
 62
7
100
AcDbPolyline
 90
6
 70
0
 10
4.422365
 20
10.361653
 30
0.0
 10
3.891930
 20
9.483733
 30
0.0
 10
3.016821
 20
10.012459
 30
0.0
 10
3.547255
 20
10.890379
 30
0.0
 10
4.422365
 20
10.361653
 30
0.0
 10
4.422365
 20
10.361653
 30
0.0
  0
LWPOLYLINE
  5
1a5
100
AcDbEntity
  8
Layer_1
 62
7
100
AcDbPolyline
 90
6
 70
0
 10
10.446376
 20
10.009978
 30
0.0
 10
9.570881
 20
9.481969
 30
0.0
 10
9.041108
 20
10.360276
 30
0.0
 10
9.916658
 20
10.888340
 30
0.0
 10
10.446376
 20
10.009978
 30
0.0
 10
10.446376
 20
10.009978
 30
0.0
  0
LWPOLYLINE
  5
1a6
100
AcDbEntity
  8
Layer_1
 62
7
100
AcDbPolyline
 90
6
 70
0
 10
2.858071
 20
9.984788
 30
0.0
 10
2.182281
 20
9.213031
 30
0.0
 10
1.413060
 20
9.886672
 30
0.0
 10
2.088740
 20
10.658373
 30
0.0
 10
2.858071
 20
9.984788
 30
0.0
 10
2.858071
 20
9.984788
 30
0.0
  0
LWPOLYLINE
  5
1a7
100
AcDbEntity
  8
Layer_1
 62
7
100
AcDbPolyline
 90
5
 70
0
 10
7.522785
 20
10.029877
 30
0.0
 10
7.349483
 20
10.010695
 30
0.0
 10
7.351247
 20
10.645805
 30
0.0
 10
7.522785
 20
10.029877
 30
0.0
 10
7.522785
 20
10.029877
 30
0.0
  0
LWPOLYLINE
  5
1a8
100
AcDbEntity
  8
Layer_1
 62
7
100
AcDbPolyline
 90
6
 70
0
 10
6.102634
 20
10.351732
 30
0.0
 10
6.101311
 20
10.014002
 30
0.0
 10
5.930930
 20
10.032413
 30
0.0
 10
6.103129
 20
10.645530
 30
0.0
 10
6.102633
 20
10.351732
 30
0.0
 10
6.102634
 20
10.351732
 30
0.0
  0
LWPOLYLINE
  5
1a9
100
AcDbEntity
  8
Layer_1
 62
7
100
AcDbPolyline
 90
6
 70
0
 10
12.039719
 20
9.871733
 30
0.0
 10
11.269285
 20
9.199471
 30
0.0
 10
10.594873
 20
9.972385
 30
0.0
 10
11.365307
 20
10.644648
 30
0.0
 10
12.039719
 20
9.871733
 30
0.0
 10
12.039719
 20
9.871733
 30
0.0
  0
LWPOLYLINE
  5
1aa
100
AcDbEntity
  8
Layer_1
 62
7
100
AcDbPolyline
 90
5
 70
0
 10
2.923996
 20
10.077172
 30
0.0
 10
2.825549
 20
10.163106
 30
0.0
 10
3.238740
 20
10.597960
 30
0.0
 10
2.923996
 20
10.077172
 30
0.0
 10
2.923996
 20
10.077172
 30
0.0
  0
LWPOLYLINE
  5
1ab
100
AcDbEntity
  8
Layer_1
 62
7
100
AcDbPolyline
 90
5
 70
0
 10
10.638475
 20
10.159688
 30
0.0
 10
10.540027
 20
10.073974
 30
0.0
 10
10.226166
 20
10.594818
 30
0.0
 10
10.638475
 20
10.159688
 30
0.0
 10
10.638475
 20
10.159688
 30
0.0
  0
LWPOLYLINE
  5
1ac
100
AcDbEntity
  8
Layer_1
 62
7
100
AcDbPolyline
 90
6
 70
0
 10
13.514165
 20
9.840424
 30
0.0
 10
12.834461
 20
9.076660
 30
0.0
 10
12.068217
 20
9.758569
 30
0.0
 10
12.747920
 20
10.522333
 30
0.0
 10
13.514165
 20
9.840424
 30
0.0
 10
13.514165
 20
9.840424
 30
0.0
  0
LWPOLYLINE
  5
1ad
100
AcDbEntity
  8
Layer_1
 62
7
100
AcDbPolyline
 90
6
 70
0
 10
1.350993
 20
9.986276
 30
0.0
 10
1.317992
 20
10.019077
 30
0.0
 10
1.288320
 20
10.055233
 30
0.0
 10
1.694786
 20
10.379072
 30
0.0
 10
1.350993
 20
9.986276
 30
0.0
 10
1.350993
 20
9.986276
 30
0.0
  0
LWPOLYLINE
  5
1ae
100
AcDbEntity
  8
Layer_1
 62
7
100
AcDbPolyline
 90
6
 70
0
 10
12.165065
 20
10.040185
 30
0.0
 10
12.136601
 20
10.003346
 30
0.0
 10
12.103991
 20
9.969740
 30
0.0
 10
11.759867
 20
10.364299
 30
0.0
 10
12.165065
 20
10.040185
 30
0.0
 10
12.165065
 20
10.040185
 30
0.0
  0
LWPOLYLINE
  5
1af
100
AcDbEntity
  8
Layer_1
 62
7
100
AcDbPolyline
 90
6
 70
0
 10
5.514322
 20
9.977567
 30
0.0
 10
5.186404
 20
9.005609
 30
0.0
 10
4.217588
 20
9.332424
 30
0.0
 10
4.545506
 20
10.304382
 30
0.0
 10
5.514322
 20
9.977567
 30
0.0
 10
5.514322
 20
9.977567
 30
0.0
  0
LWPOLYLINE
  5
1b0
100
AcDbEntity
  8
Layer_1
 62
7
100
AcDbPolyline
 90
6
 70
0
 10
9.245609
 20
9.330826
 30
0.0
 10
8.276682
 20
9.004231
 30
0.0
 10
7.949095
 20
9.976299
 30
0.0
 10
8.918021
 20
10.302894
 30
0.0
 10
9.245609
 20
9.330826
 30
0.0
 10
9.245609
 20
9.330826
 30
0.0
  0
LWPOLYLINE
  5
1b1
100
AcDbEntity
  8
Layer_1
 62
7
100
AcDbPolyline
 90
5
 70
0
 10
4.115613
 20
9.382034
 30
0.0
 10
3.991425
 20
9.429273
 30
0.0
 10
4.308980
 20
9.954691
 30
0.0
 10
4.115613
 20
9.382034
 30
0.0
 10
4.115613
 20
9.382034
 30
0.0
  0
LWPOLYLINE
  5
1b2
100
AcDbEntity
  8
Layer_1
 62
7
100
AcDbPolyline
 90
5
 70
0
 10
9.472544
 20
9.425249
 30
0.0
 10
9.348521
 20
9.378947
 30
0.0
 10
9.155209
 20
9.952376
 30
0.0
 10
9.472544
 20
9.425249
 30
0.0
 10
9.472544
 20
9.425249
 30
0.0
  0
LWPOLYLINE
  5
1b3
100
AcDbEntity
  8
Layer_1
 62
7
100
AcDbPolyline
 90
6
 70
0
 10
6.663661
 20
9.838495
 30
0.0
 10
6.552812
 20
8.818692
 30
0.0
 10
5.536371
 20
8.929155
 30
0.0
 10
5.647165
 20
9.948959
 30
0.0
 10
6.663661
 20
9.838495
 30
0.0
 10
6.663661
 20
9.838495
 30
0.0
  0
LWPOLYLINE
  5
1b4
100
AcDbEntity
  8
Layer_1
 62
7
100
AcDbPolyline
 90
6
 70
0
 10
7.925999
 20
8.927391
 30
0.0
 10
6.909338
 20
8.818196
 30
0.0
 10
6.799811
 20
9.838165
 30
0.0
 10
7.816473
 20
9.947305
 30
0.0
 10
7.925999
 20
8.927391
 30
0.0
 10
7.925999
 20
8.927391
 30
0.0
  0
LWPOLYLINE
  5
1b5
100
AcDbEntity
  8
Layer_1
 62
7
100
AcDbPolyline
 90
6
 70
0
 10
3.848495
 20
9.375585
 30
0.0
 10
3.320596
 20
8.496176
 30
0.0
 10
2.443998
 20
9.022366
 30
0.0
 10
2.971897
 20
9.901830
 30
0.0
 10
3.848495
 20
9.375585
 30
0.0
 10
3.848495
 20
9.375585
 30
0.0
  0
LWPOLYLINE
  5
1b6
100
AcDbEntity
  8
Layer_1
 62
7
100
AcDbPolyline
 90
6
 70
0
 10
11.006245
 20
9.008475
 30
0.0
 10
10.127994
 20
8.485041
 30
0.0
 10
9.602906
 20
9.366104
 30
0.0
 10
10.481103
 20
9.889538
 30
0.0
 10
11.006245
 20
9.008475
 30
0.0
 10
11.006245
 20
9.008475
 30
0.0
  0
LWPOLYLINE
  5
1b7
100
AcDbEntity
  8
Layer_1
 62
7
100
AcDbPolyline
 90
6
 70
0
 10
12.617999
 20
8.867915
 30
0.0
 10
11.830147
 20
8.216324
 30
0.0
 10
11.176461
 20
9.006711
 30
0.0
 10
11.964257
 20
9.658303
 30
0.0
 10
12.617999
 20
8.867915
 30
0.0
 10
12.617999
 20
8.867915
 30
0.0
  0
LWPOLYLINE
  5
1b8
100
AcDbEntity
  8
Layer_1
 62
7
100
AcDbPolyline
 90
6
 70
0
 10
2.295390
 20
9.002742
 30
0.0
 10
1.642035
 20
8.212079
 30
0.0
 10
0.853907
 20
8.863340
 30
0.0
 10
1.507263
 20
9.654004
 30
0.0
 10
2.295390
 20
9.002742
 30
0.0
 10
2.295390
 20
9.002742
 30
0.0
  0
LWPOLYLINE
  5
1b9
100
AcDbEntity
  8
Layer_1
 62
7
100
AcDbPolyline
 90
5
 70
0
 10
8.164179
 20
8.987364
 30
0.0
 10
8.035471
 20
8.964102
 30
0.0
 10
7.971750
 20
9.557486
 30
0.0
 10
8.164179
 20
8.987364
 30
0.0
 10
8.164179
 20
8.987364
 30
0.0
  0
LWPOLYLINE
  5
1ba
100
AcDbEntity
  8
Layer_1
 62
7
100
AcDbPolyline
 90
5
 70
0
 10
5.427065
 20
8.964102
 30
0.0
 10
5.299238
 20
8.987364
 30
0.0
 10
5.491392
 20
9.556383
 30
0.0
 10
5.427065
 20
8.964102
 30
0.0
 10
5.427065
 20
8.964102
 30
0.0
  0
LWPOLYLINE
  5
1bb
100
AcDbEntity
  8
Layer_1
 62
7
100
AcDbPolyline
 90
6
 70
0
 10
2.358670
 20
9.099591
 30
0.0
 10
2.320662
 20
9.127587
 30
0.0
 10
2.285193
 20
9.159012
 30
0.0
 10
2.631852
 20
9.554674
 30
0.0
 10
2.358670
 20
9.099591
 30
0.0
 10
2.358670
 20
9.099591
 30
0.0
  0
LWPOLYLINE
  5
1bc
100
AcDbEntity
  8
Layer_1
 62
7
100
AcDbPolyline
 90
6
 70
0
 10
11.165491
 20
9.147326
 30
0.0
 10
11.131042
 20
9.114320
 30
0.0
 10
11.092952
 20
9.085149
 30
0.0
 10
10.818612
 20
9.544753
 30
0.0
 10
11.165491
 20
9.147326
 30
0.0
 10
11.165491
 20
9.147326
 30
0.0
  0
LWPOLYLINE
  5
1bd
100
AcDbEntity
  8
Layer_1
 62
7
100
AcDbPolyline
 90
5
 70
0
 10
6.794906
 20
8.831204
 30
0.0
 10
6.667630
 20
8.831204
 30
0.0
 10
6.731681
 20
9.419131
 30
0.0
 10
6.794906
 20
8.831204
 30
0.0
 10
6.794906
 20
8.831204
 30
0.0
  0
LWPOLYLINE
  5
1be
100
AcDbEntity
  8
Layer_1
 62
7
100
AcDbPolyline
 90
7
 70
0
 10
12.740479
 20
9.009302
 30
0.0
 10
12.736003
 20
8.991692
 30
0.0
 10
12.723346
 20
8.978339
 30
0.0
 10
12.693625
 20
8.954291
 30
0.0
 10
12.390347
 20
9.320739
 30
0.0
 10
12.740479
 20
9.009302
 30
0.0
 10
12.740479
 20
9.009302
 30
0.0
  0
LWPOLYLINE
  5
1bf
100
AcDbEntity
  8
Layer_1
 62
7
100
AcDbPolyline
 90
12
 70
0
 10
0.960402
 20
9.169320
 30
0.0
 10
0.724013
 20
8.884390
 30
0.0
 10
0.716642
 20
8.870265
 30
0.0
 10
0.716003
 20
8.854750
 30
0.0
 10
0.716118
 20
8.825778
 30
0.0
 10
0.313606
 20
8.299888
 30
0.0
 10
0.610766
 20
8.932132
 30
0.0
 10
0.629283
 20
8.916162
 30
0.0
 10
0.649826
 20
8.931116
 30
0.0
 10
1.082221
 20
9.316661
 30
0.0
 10
0.960402
 20
9.169321
 30
0.0
 10
0.960402
 20
9.169320
 30
0.0
  0
LWPOLYLINE
  5
1c0
100
AcDbEntity
  8
Layer_1
 62
7
100
AcDbPolyline
 90
6
 70
0
 10
4.931522
 20
8.952637
 30
0.0
 10
4.568823
 20
7.993192
 30
0.0
 10
3.612464
 20
8.354679
 30
0.0
 10
3.975164
 20
9.314179
 30
0.0
 10
4.931522
 20
8.952637
 30
0.0
 10
4.931522
 20
8.952637
 30
0.0
  0
LWPOLYLINE
  5
1c1
100
AcDbEntity
  8
Layer_1
 62
7
100
AcDbPolyline
 90
6
 70
0
 10
9.834196
 20
8.344151
 30
0.0
 10
8.876129
 20
7.987184
 30
0.0
 10
8.518004
 20
8.948393
 30
0.0
 10
9.476072
 20
9.305360
 30
0.0
 10
9.834196
 20
8.344151
 30
0.0
 10
9.834196
 20
8.344151
 30
0.0
  0
LWPOLYLINE
  5
1c2
100
AcDbEntity
  8
Layer_1
 62
7
100
AcDbPolyline
 90
6
 70
0
 10
11.584305
 20
8.042526
 30
0.0
 10
10.706439
 20
7.518485
 30
0.0
 10
10.180690
 20
8.399272
 30
0.0
 10
11.058611
 20
8.923257
 30
0.0
 10
11.584305
 20
8.042526
 30
0.0
 10
11.584305
 20
8.042526
 30
0.0
  0
LWPOLYLINE
  5
1c3
100
AcDbEntity
  8
Layer_1
 62
7
100
AcDbPolyline
 90
6
 70
0
 10
3.291602
 20
8.396075
 30
0.0
 10
2.766459
 20
7.514958
 30
0.0
 10
1.888207
 20
8.038336
 30
0.0
 10
2.413295
 20
8.919454
 30
0.0
 10
3.291602
 20
8.396075
 30
0.0
 10
3.291602
 20
8.396075
 30
0.0
  0
LWPOLYLINE
  5
1c4
100
AcDbEntity
  8
Layer_1
 62
7
100
AcDbPolyline
 90
6
 70
0
 10
6.072758
 20
8.730994
 30
0.0
 10
5.888212
 20
7.721994
 30
0.0
 10
4.882464
 20
7.905934
 30
0.0
 10
5.067011
 20
8.914934
 30
0.0
 10
6.072758
 20
8.730994
 30
0.0
 10
6.072758
 20
8.730994
 30
0.0
  0
LWPOLYLINE
  5
1c5
100
AcDbEntity
  8
Layer_1
 62
7
100
AcDbPolyline
 90
7
 70
0
 10
3.622166
 20
8.698747
 30
0.0
 10
3.514789
 20
8.416029
 30
0.0
 10
3.472146
 20
8.432315
 30
0.0
 10
3.431169
 20
8.453016
 30
0.0
 10
3.703635
 20
8.914328
 30
0.0
 10
3.622166
 20
8.698747
 30
0.0
 10
3.622166
 20
8.698747
 30
0.0
  0
LWPOLYLINE
  5
1c6
100
AcDbEntity
  8
Layer_1
 62
7
100
AcDbPolyline
 90
6
 70
0
 10
8.563204
 20
7.902021
 30
0.0
 10
7.556850
 20
7.721443
 30
0.0
 10
7.375666
 20
8.731049
 30
0.0
 10
8.382020
 20
8.911627
 30
0.0
 10
8.563204
 20
7.902021
 30
0.0
 10
8.563204
 20
7.902021
 30
0.0
  0
LWPOLYLINE
  5
1c7
100
AcDbEntity
  8
Layer_1
 62
7
100
AcDbPolyline
 90
10
 70
0
 10
10.014664
 20
8.456158
 30
0.0
 10
10.010909
 20
8.439432
 30
0.0
 10
9.993609
 20
8.430272
 30
0.0
 10
9.953865
 20
8.418730
 30
0.0
 10
9.933256
 20
8.414038
 30
0.0
 10
9.921966
 20
8.429326
 30
0.0
 10
9.906043
 20
8.475571
 30
0.0
 10
9.744183
 20
8.909256
 30
0.0
 10
10.014664
 20
8.456158
 30
0.0
 10
10.014664
 20
8.456158
 30
0.0
  0
LWPOLYLINE
  5
1c8
100
AcDbEntity
  8
Layer_1
 62
7
100
AcDbPolyline
 90
6
 70
0
 10
1.589449
 20
8.096655
 30
0.0
 10
0.963985
 20
7.283557
 30
0.0
 10
0.153588
 20
7.907037
 30
0.0
 10
0.779052
 20
8.720079
 30
0.0
 10
1.589449
 20
8.096655
 30
0.0
 10
1.589449
 20
8.096655
 30
0.0
  0
LWPOLYLINE
  5
1c9
100
AcDbEntity
  8
Layer_1
 62
7
100
AcDbPolyline
 90
6
 70
0
 10
7.235271
 20
8.718150
 30
0.0
 10
7.234665
 20
7.692394
 30
0.0
 10
6.212271
 20
7.692780
 30
0.0
 10
6.212821
 20
8.718537
 30
0.0
 10
7.235271
 20
8.718150
 30
0.0
 10
7.235271
 20
8.718150
 30
0.0
  0
LWPOLYLINE
  5
1ca
100
AcDbEntity
  8
Layer_1
 62
7
100
AcDbPolyline
 90
6
 70
0
 10
13.214248
 20
7.875893
 30
0.0
 10
12.414986
 20
7.238137
 30
0.0
 10
11.775301
 20
8.039935
 30
0.0
 10
12.574453
 20
8.677636
 30
0.0
 10
13.214248
 20
7.875893
 30
0.0
 10
13.214248
 20
7.875893
 30
0.0
  0
LWPOLYLINE
  5
1cb
100
AcDbEntity
  8
Layer_1
 62
7
100
AcDbPolyline
 90
7
 70
0
 10
11.493961
 20
8.445133
 30
0.0
 10
11.735613
 20
8.150784
 30
0.0
 10
11.708322
 20
8.128485
 30
0.0
 10
11.678177
 20
8.109719
 30
0.0
 10
11.428090
 20
8.525280
 30
0.0
 10
11.493961
 20
8.445133
 30
0.0
 10
11.493961
 20
8.445133
 30
0.0
  0
LWPOLYLINE
  5
1cc
100
AcDbEntity
  8
Layer_1
 62
7
100
AcDbPolyline
 90
15
 70
0
 10
2.009255
 20
8.462055
 30
0.0
 10
1.752113
 20
8.034202
 30
0.0
 10
1.752244
 20
8.010776
 30
0.0
 10
1.761613
 20
7.989538
 30
0.0
 10
1.796871
 20
7.958741
 30
0.0
 10
1.552108
 20
7.747641
 30
0.0
 10
1.304030
 20
7.540424
 30
0.0
 10
1.659032
 20
8.003579
 30
0.0
 10
1.700827
 20
8.053077
 30
0.0
 10
1.714482
 20
8.081917
 30
0.0
 10
1.717992
 20
8.114018
 30
0.0
 10
1.876373
 20
8.319206
 30
0.0
 10
2.042548
 20
8.518280
 30
0.0
 10
2.009255
 20
8.462055
 30
0.0
 10
2.009255
 20
8.462055
 30
0.0
  0
LWPOLYLINE
  5
1cd
100
AcDbEntity
  8
Layer_1
 62
7
100
AcDbPolyline
 90
6
 70
0
 10
4.777678
 20
7.961828
 30
0.0
 10
4.731413
 20
7.969283
 30
0.0
 10
4.685570
 20
7.981837
 30
0.0
 10
4.871164
 20
8.472639
 30
0.0
 10
4.777678
 20
7.961828
 30
0.0
 10
4.777678
 20
7.961828
 30
0.0
  0
LWPOLYLINE
  5
1ce
100
AcDbEntity
  8
Layer_1
 62
7
100
AcDbPolyline
 90
6
 70
0
 10
8.759492
 20
7.977648
 30
0.0
 10
8.714578
 20
7.964273
 30
0.0
 10
8.668376
 20
7.955379
 30
0.0
 10
8.576433
 20
8.468560
 30
0.0
 10
8.759492
 20
7.977648
 30
0.0
 10
8.759492
 20
7.977648
 30
0.0
  0
LWPOLYLINE
  5
1cf
100
AcDbEntity
  8
Layer_1
 62
7
100
AcDbPolyline
 90
6
 70
0
 10
10.436179
 20
7.384044
 30
0.0
 10
9.488419
 20
7.000674
 30
0.0
 10
9.103836
 20
7.951575
 30
0.0
 10
10.051651
 20
8.334945
 30
0.0
 10
10.436179
 20
7.384044
 30
0.0
 10
10.436179
 20
7.384044
 30
0.0
  0
LWPOLYLINE
  5
1d0
100
AcDbEntity
  8
Layer_1
 62
7
100
AcDbPolyline
 90
6
 70
0
 10
4.368952
 20
7.949701
 30
0.0
 10
3.985416
 20
6.998414
 30
0.0
 10
3.037161
 20
7.380681
 30
0.0
 10
3.420696
 20
8.332024
 30
0.0
 10
4.368952
 20
7.949701
 30
0.0
 10
4.368952
 20
7.949701
 30
0.0
  0
LWPOLYLINE
  5
1d1
100
AcDbEntity
  8
Layer_1
 62
7
100
AcDbPolyline
 90
7
 70
0
 10
13.323224
 20
8.007248
 30
0.0
 10
13.334650
 20
7.992816
 30
0.0
 10
13.327752
 20
7.978051
 30
0.0
 10
13.297427
 20
7.953725
 30
0.0
 10
13.031190
 20
8.286990
 30
0.0
 10
13.323224
 20
8.007248
 30
0.0
 10
13.323224
 20
8.007248
 30
0.0
  0
LWPOLYLINE
  5
1d2
100
AcDbEntity
  8
Layer_1
 62
7
100
AcDbPolyline
 90
7
 70
0
 10
6.099492
 20
7.739963
 30
0.0
 10
6.078451
 20
7.731997
 30
0.0
 10
6.054994
 20
7.733631
 30
0.0
 10
6.006888
 20
7.740246
 30
0.0
 10
6.099492
 20
8.247639
 30
0.0
 10
6.099492
 20
7.739970
 30
0.0
 10
6.099492
 20
7.739963
 30
0.0
  0
LWPOLYLINE
  5
1d3
100
AcDbEntity
  8
Layer_1
 62
7
100
AcDbPolyline
 90
6
 70
0
 10
7.439166
 20
7.738806
 30
0.0
 10
7.393551
 20
7.732469
 30
0.0
 10
7.347278
 20
7.730869
 30
0.0
 10
7.347774
 20
8.247192
 30
0.0
 10
7.439166
 20
7.738806
 30
0.0
 10
7.439166
 20
7.738806
 30
0.0
  0
LWPOLYLINE
  5
1d4
100
AcDbEntity
  8
Layer_1
 62
7
100
AcDbPolyline
 90
4
 70
0
 10
9.020713
 20
7.963261
 30
0.0
 10
9.017277
 20
7.964490
 30
0.0
 10
9.020713
 20
7.963261
 30
0.0
 10
9.020713
 20
7.963261
 30
0.0
  0
LWPOLYLINE
  5
1d5
100
AcDbEntity
  8
Layer_1
 62
7
100
AcDbPolyline
 90
6
 70
0
 10
12.182043
 20
7.076135
 30
0.0
 10
11.305169
 20
6.550386
 30
0.0
 10
10.777712
 20
7.430125
 30
0.0
 10
11.654585
 20
7.955874
 30
0.0
 10
12.182043
 20
7.076135
 30
0.0
 10
12.182043
 20
7.076135
 30
0.0
  0
LWPOLYLINE
  5
1d6
100
AcDbEntity
  8
Layer_1
 62
7
100
AcDbPolyline
 90
6
 70
0
 10
9.200189
 20
6.909062
 30
0.0
 10
8.204639
 20
6.676118
 30
0.0
 10
7.970923
 20
7.674810
 30
0.0
 10
8.966473
 20
7.907809
 30
0.0
 10
9.200189
 20
6.909062
 30
0.0
 10
9.200189
 20
6.909062
 30
0.0
  0
LWPOLYLINE
  5
1d7
100
AcDbEntity
  8
Layer_1
 62
7
100
AcDbPolyline
 90
6
 70
0
 10
5.502195
 20
7.674369
 30
0.0
 10
5.269582
 20
6.675346
 30
0.0
 10
4.273812
 20
6.907242
 30
0.0
 10
4.506370
 20
7.906210
 30
0.0
 10
5.502195
 20
7.674369
 30
0.0
 10
5.502195
 20
7.674369
 30
0.0
  0
LWPOLYLINE
  5
1d8
100
AcDbEntity
  8
Layer_1
 62
7
100
AcDbPolyline
 90
22
 70
0
 10
2.892742
 20
7.324513
 30
0.0
 10
2.910246
 20
7.308908
 30
0.0
 10
2.937787
 20
7.297572
 30
0.0
 10
2.994809
 20
7.275725
 30
0.0
 10
3.736873
 20
6.976475
 30
0.0
 10
3.420366
 20
5.866162
 30
0.0
 10
3.805004
 20
5.756636
 30
0.0
 10
3.598629
 20
4.901535
 30
0.0
 10
3.389498
 20
5.668662
 30
0.0
 10
2.683942
 20
5.477611
 30
0.0
 10
3.332281
 20
5.817049
 30
0.0
 10
2.752954
 20
6.922842
 30
0.0
 10
2.105662
 20
6.583403
 30
0.0
 10
2.664319
 20
7.052819
 30
0.0
 10
2.005947
 20
7.837088
 30
0.0
 10
2.739762
 20
7.398693
 30
0.0
 10
2.790815
 20
7.374550
 30
0.0
 10
2.815505
 20
7.378546
 30
0.0
 10
2.831021
 20
7.402715
 30
0.0
 10
3.118851
 20
7.885319
 30
0.0
 10
2.892742
 20
7.324513
 30
0.0
 10
2.892742
 20
7.324513
 30
0.0
  0
LWPOLYLINE
  5
1d9
100
AcDbEntity
  8
Layer_1
 62
7
100
AcDbPolyline
 90
31
 70
0
 10
10.544603
 20
7.569307
 30
0.0
 10
10.573866
 20
7.524373
 30
0.0
 10
10.598866
 20
7.476222
 30
0.0
 10
10.627108
 20
7.430824
 30
0.0
 10
10.666098
 20
7.394154
 30
0.0
 10
11.266474
 20
6.395164
 30
0.0
 10
11.395348
 20
6.472389
 30
0.0
 10
11.885794
 20
5.678258
 30
0.0
 10
11.916229
 20
5.634142
 30
0.0
 10
11.918881
 20
5.624957
 30
0.0
 10
11.897538
 20
5.642106
 30
0.0
 10
11.647254
 20
5.846925
 30
0.0
 10
11.161468
 20
5.253927
 30
0.0
 10
11.469432
 20
5.956782
 30
0.0
 10
10.325439
 20
6.457230
 30
0.0
 10
10.018082
 20
5.753990
 30
0.0
 10
10.123474
 20
6.513124
 30
0.0
 10
8.887649
 20
6.685048
 30
0.0
 10
8.782257
 20
5.929387
 30
0.0
 10
8.682818
 20
6.672094
 30
0.0
 10
9.335843
 20
6.825222
 30
0.0
 10
9.195889
 20
7.422078
 30
0.0
 10
9.426021
 20
6.853278
 30
0.0
 10
10.472346
 20
7.275682
 30
0.0
 10
10.507165
 20
7.287994
 30
0.0
 10
10.539966
 20
7.308537
 30
0.0
 10
10.561515
 20
7.337175
 30
0.0
 10
10.562577
 20
7.373774
 30
0.0
 10
10.356804
 20
7.883500
 30
0.0
 10
10.544603
 20
7.569307
 30
0.0
 10
10.544603
 20
7.569307
 30
0.0
  0
LWPOLYLINE
  5
1da
100
AcDbEntity
  8
Layer_1
 62
7
100
AcDbPolyline
 90
6
 70
0
 10
2.505348
 20
7.066874
 30
0.0
 10
1.720252
 20
6.406684
 30
0.0
 10
1.062212
 20
7.189244
 30
0.0
 10
1.847308
 20
7.849435
 30
0.0
 10
2.505348
 20
7.066874
 30
0.0
 10
2.505348
 20
7.066874
 30
0.0
  0
LWPOLYLINE
  5
1db
100
AcDbEntity
  8
Layer_1
 62
7
100
AcDbPolyline
 90
6
 70
0
 10
13.923883
 20
6.987941
 30
0.0
 10
13.124786
 20
6.350129
 30
0.0
 10
12.484935
 20
7.151762
 30
0.0
 10
13.284032
 20
7.789628
 30
0.0
 10
13.923883
 20
6.987941
 30
0.0
 10
13.923883
 20
6.987941
 30
0.0
  0
LWPOLYLINE
  5
1dc
100
AcDbEntity
  8
Layer_1
 62
7
100
AcDbPolyline
 90
6
 70
0
 10
6.664378
 20
7.575646
 30
0.0
 10
6.586767
 20
6.552922
 30
0.0
 10
5.567294
 20
6.630257
 30
0.0
 10
5.644905
 20
7.653037
 30
0.0
 10
6.664378
 20
7.575646
 30
0.0
 10
6.664378
 20
7.575646
 30
0.0
  0
LWPOLYLINE
  5
1dd
100
AcDbEntity
  8
Layer_1
 62
7
100
AcDbPolyline
 90
6
 70
0
 10
7.906266
 20
6.630257
 30
0.0
 10
6.886793
 20
6.552701
 30
0.0
 10
6.808962
 20
7.575426
 30
0.0
 10
7.828324
 20
7.653037
 30
0.0
 10
7.906266
 20
6.630257
 30
0.0
 10
7.906266
 20
6.630257
 30
0.0
  0
LWPOLYLINE
  5
1de
100
AcDbEntity
  8
Layer_1
 62
7
100
AcDbPolyline
 90
4
 70
0
 10
6.731902
 20
7.624594
 30
0.0
 10
6.733268
 20
7.618797
 30
0.0
 10
6.731902
 20
7.624594
 30
0.0
 10
6.731902
 20
7.624594
 30
0.0
  0
LWPOLYLINE
  5
1df
100
AcDbEntity
  8
Layer_1
 62
7
100
AcDbPolyline
 90
6
 70
0
 10
12.323540
 20
7.172818
 30
0.0
 10
12.299351
 20
7.157137
 30
0.0
 10
12.272993
 20
7.144872
 30
0.0
 10
12.054546
 20
7.509555
 30
0.0
 10
12.323540
 20
7.172818
 30
0.0
 10
12.323540
 20
7.172818
 30
0.0
  0
LWPOLYLINE
  5
1e0
100
AcDbEntity
  8
Layer_1
 62
7
100
AcDbPolyline
 90
6
 70
0
 10
4.168806
 20
6.956191
 30
0.0
 10
4.133075
 20
6.962528
 30
0.0
 10
4.098746
 20
6.976144
 30
0.0
 10
4.275521
 20
7.414636
 30
0.0
 10
4.168806
 20
6.956191
 30
0.0
 10
4.168806
 20
6.956191
 30
0.0
  0
LWPOLYLINE
  5
1e1
100
AcDbEntity
  8
Layer_1
 62
7
100
AcDbPolyline
 90
6
 70
0
 10
5.516086
 20
7.302905
 30
0.0
 10
5.510740
 20
7.296750
 30
0.0
 10
5.506979
 20
7.302512
 30
0.0
 10
5.507771
 20
7.308470
 30
0.0
 10
5.516086
 20
7.302905
 30
0.0
 10
5.516086
 20
7.302905
 30
0.0
  0
LWPOLYLINE
  5
1e2
100
AcDbEntity
  8
Layer_1
 62
7
100
AcDbPolyline
 90
7
 70
0
 10
8.103380
 20
6.613059
 30
0.0
 10
8.084548
 20
6.604197
 30
0.0
 10
8.063810
 20
6.602139
 30
0.0
 10
8.021525
 20
6.600436
 30
0.0
 10
7.980735
 20
7.136218
 30
0.0
 10
8.103380
 20
6.613059
 30
0.0
 10
8.103380
 20
6.613059
 30
0.0
  0
LWPOLYLINE
  5
1e3
100
AcDbEntity
  8
Layer_1
 62
7
100
AcDbPolyline
 90
29
 70
0
 10
5.446688
 20
6.533078
 30
0.0
 10
5.470165
 20
6.523598
 30
0.0
 10
5.501415
 20
6.520848
 30
0.0
 10
5.565759
 20
6.516953
 30
0.0
 10
6.690560
 20
6.431874
 30
0.0
 10
6.736587
 20
7.035290
 30
0.0
 10
6.782558
 20
6.431709
 30
0.0
 10
7.448261
 20
6.482201
 30
0.0
 10
7.545110
 20
5.759998
 30
0.0
 10
7.240839
 20
6.464176
 30
0.0
 10
6.095413
 20
5.969350
 30
0.0
 10
6.399739
 20
5.265338
 30
0.0
 10
5.917316
 20
5.860760
 30
0.0
 10
4.947452
 20
5.074893
 30
0.0
 10
5.429766
 20
4.479525
 30
0.0
 10
5.004307
 20
4.781728
 30
0.0
 10
4.941527
 20
4.828899
 30
0.0
 10
4.873976
 20
4.868793
 30
0.0
 10
5.040387
 20
5.557757
 30
0.0
 10
4.656245
 20
5.650747
 30
0.0
 10
4.935601
 20
6.634667
 30
0.0
 10
5.315995
 20
6.547630
 30
0.0
 10
5.337220
 20
6.547999
 30
0.0
 10
5.353942
 20
6.557035
 30
0.0
 10
5.364423
 20
6.573157
 30
0.0
 10
5.366925
 20
6.594779
 30
0.0
 10
5.491722
 20
7.131422
 30
0.0
 10
5.446688
 20
6.533078
 30
0.0
 10
5.446688
 20
6.533078
 30
0.0
  0
LWPOLYLINE
  5
1e4
100
AcDbEntity
  8
Layer_1
 62
7
100
AcDbPolyline
 90
6
 70
0
 10
12.904024
 20
6.194301
 30
0.0
 10
12.035254
 20
5.655157
 30
0.0
 10
11.494402
 20
6.526739
 30
0.0
 10
12.363172
 20
7.065882
 30
0.0
 10
12.904024
 20
6.194301
 30
0.0
 10
12.904024
 20
6.194301
 30
0.0
  0
LWPOLYLINE
  5
1e5
100
AcDbEntity
  8
Layer_1
 62
7
100
AcDbPolyline
 90
5
 70
0
 10
1.193731
 20
6.858129
 30
0.0
 10
0.674873
 20
6.493445
 30
0.0
 10
1.082055
 20
6.990917
 30
0.0
 10
1.193731
 20
6.858129
 30
0.0
 10
1.193731
 20
6.858129
 30
0.0
  0
LWPOLYLINE
  5
1e6
100
AcDbEntity
  8
Layer_1
 62
7
100
AcDbPolyline
 90
6
 70
0
 10
4.824146
 20
6.649715
 30
0.0
 10
4.542695
 20
5.663315
 30
0.0
 10
3.559492
 20
5.943829
 30
0.0
 10
3.840943
 20
6.930228
 30
0.0
 10
4.824146
 20
6.649715
 30
0.0
 10
4.824146
 20
6.649715
 30
0.0
  0
LWPOLYLINE
  5
1e7
100
AcDbEntity
  8
Layer_1
 62
7
100
AcDbPolyline
 90
6
 70
0
 10
1.860151
 20
5.938757
 30
0.0
 10
1.020870
 20
5.349122
 30
0.0
 10
0.433110
 20
6.185702
 30
0.0
 10
1.272445
 20
6.775337
 30
0.0
 10
1.860151
 20
5.938757
 30
0.0
 10
1.860151
 20
5.938757
 30
0.0
  0
LWPOLYLINE
  5
1e8
100
AcDbEntity
  8
Layer_1
 62
7
100
AcDbPolyline
 90
6
 70
0
 10
3.179485
 20
5.864729
 30
0.0
 10
2.270916
 20
5.388479
 30
0.0
 10
1.796210
 20
6.294181
 30
0.0
 10
2.704778
 20
6.770431
 30
0.0
 10
3.179485
 20
5.864729
 30
0.0
 10
3.179485
 20
5.864729
 30
0.0
  0
LWPOLYLINE
  5
1e9
100
AcDbEntity
  8
Layer_1
 62
7
100
AcDbPolyline
 90
7
 70
0
 10
13.024024
 20
6.296055
 30
0.0
 10
13.031823
 20
6.284391
 30
0.0
 10
13.024314
 20
6.274194
 30
0.0
 10
12.998172
 20
6.257746
 30
0.0
 10
12.801278
 20
6.574915
 30
0.0
 10
13.024024
 20
6.296055
 30
0.0
 10
13.024024
 20
6.296055
 30
0.0
  0
LWPOLYLINE
  5
1ea
100
AcDbEntity
  8
Layer_1
 62
7
100
AcDbPolyline
 90
6
 70
0
 10
8.719804
 20
5.542985
 30
0.0
 10
7.706395
 20
5.407055
 30
0.0
 10
7.570080
 20
6.423716
 30
0.0
 10
8.583434
 20
6.559646
 30
0.0
 10
8.719804
 20
5.542985
 30
0.0
 10
8.719804
 20
5.542985
 30
0.0
  0
LWPOLYLINE
  5
1eb
100
AcDbEntity
  8
Layer_1
 62
7
100
AcDbPolyline
 90
6
 70
0
 10
9.996364
 20
6.417102
 30
0.0
 10
9.854757
 20
5.401212
 30
0.0
 10
8.842119
 20
5.542323
 30
0.0
 10
8.983726
 20
6.558213
 30
0.0
 10
9.996364
 20
6.417102
 30
0.0
 10
9.996364
 20
6.417102
 30
0.0
  0
LWPOLYLINE
  5
1ec
100
AcDbEntity
  8
Layer_1
 62
7
100
AcDbPolyline
 90
6
 70
0
 10
7.588931
 20
5.374368
 30
0.0
 10
6.650432
 20
4.968619
 30
0.0
 10
6.243360
 20
5.910149
 30
0.0
 10
7.181859
 20
6.315899
 30
0.0
 10
7.588931
 20
5.374368
 30
0.0
 10
7.588931
 20
5.374368
 30
0.0
  0
LWPOLYLINE
  5
1ed
100
AcDbEntity
  8
Layer_1
 62
7
100
AcDbPolyline
 90
6
 70
0
 10
11.320273
 20
5.898519
 30
0.0
 10
10.909066
 20
4.958696
 30
0.0
 10
9.972331
 20
5.368580
 30
0.0
 10
10.383537
 20
6.308347
 30
0.0
 10
11.320273
 20
5.898519
 30
0.0
 10
11.320273
 20
5.898519
 30
0.0
  0
LWPOLYLINE
  5
1ee
100
AcDbEntity
  8
Layer_1
 62
7
100
AcDbPolyline
 90
6
 70
0
 10
0.516508
 20
5.870958
 30
0.0
 10
0.625263
 20
5.716342
 30
0.0
 10
0.028132
 20
5.419182
 30
0.0
 10
0.483215
 20
5.917315
 30
0.0
 10
0.516508
 20
5.870958
 30
0.0
 10
0.516508
 20
5.870958
 30
0.0
  0
LWPOLYLINE
  5
1ef
100
AcDbEntity
  8
Layer_1
 62
7
100
AcDbPolyline
 90
5
 70
0
 10
1.989852
 20
5.682497
 30
0.0
 10
1.392224
 20
5.471823
 30
0.0
 10
1.909815
 20
5.835349
 30
0.0
 10
1.989852
 20
5.682497
 30
0.0
 10
1.989852
 20
5.682497
 30
0.0
  0
LWPOLYLINE
  5
1f0
100
AcDbEntity
  8
Layer_1
 62
7
100
AcDbPolyline
 90
12
 70
0
 10
4.904513
 20
5.474965
 30
0.0
 10
4.688758
 20
4.570892
 30
0.0
 10
4.760946
 20
4.665992
 30
0.0
 10
4.831697
 20
4.766322
 30
0.0
 10
5.668001
 20
4.172278
 30
0.0
 10
5.075941
 20
3.338675
 30
0.0
 10
4.239637
 20
3.932720
 30
0.0
 10
4.632267
 20
4.485478
 30
0.0
 10
3.669735
 20
4.717981
 30
0.0
 10
3.910616
 20
5.715074
 30
0.0
 10
4.904513
 20
5.474965
 30
0.0
 10
4.904513
 20
5.474965
 30
0.0
  0
LWPOLYLINE
  5
1f1
100
AcDbEntity
  8
Layer_1
 62
7
100
AcDbPolyline
 90
6
 70
0
 10
6.546197
 20
4.905008
 30
0.0
 10
5.751786
 20
4.261354
 30
0.0
 10
5.106037
 20
5.058301
 30
0.0
 10
5.900449
 20
5.701955
 30
0.0
 10
6.546197
 20
4.905008
 30
0.0
 10
6.546197
 20
4.905008
 30
0.0
  0
LWPOLYLINE
  5
1f2
100
AcDbEntity
  8
Layer_1
 62
7
100
AcDbPolyline
 90
6
 70
0
 10
2.384522
 20
4.617494
 30
0.0
 10
1.417139
 20
4.276513
 30
0.0
 10
1.077260
 20
5.240809
 30
0.0
 10
2.044642
 20
5.581790
 30
0.0
 10
2.384522
 20
4.617494
 30
0.0
 10
2.384522
 20
4.617494
 30
0.0
  0
LWPOLYLINE
  5
1f3
100
AcDbEntity
  8
Layer_1
 62
7
100
AcDbPolyline
 90
7
 70
0
 10
13.465492
 20
5.479264
 30
0.0
 10
13.604068
 20
5.298576
 30
0.0
 10
13.580932
 20
5.287594
 30
0.0
 10
13.563687
 20
5.306460
 30
0.0
 10
13.413457
 20
5.546347
 30
0.0
 10
13.465492
 20
5.479264
 30
0.0
 10
13.465492
 20
5.479264
 30
0.0
  0
LWPOLYLINE
  5
1f4
100
AcDbEntity
  8
Layer_1
 62
7
100
AcDbPolyline
 90
6
 70
0
 10
3.578344
 20
4.543852
 30
0.0
 10
2.588361
 20
4.275410
 30
0.0
 10
2.320801
 20
5.262141
 30
0.0
 10
3.310784
 20
5.530638
 30
0.0
 10
3.578344
 20
4.543852
 30
0.0
 10
3.578344
 20
4.543852
 30
0.0
  0
LWPOLYLINE
  5
1f5
100
AcDbEntity
  8
Layer_1
 62
7
100
AcDbPolyline
 90
6
 70
0
 10
9.284083
 20
5.378392
 30
0.0
 10
9.283202
 20
4.352635
 30
0.0
 10
8.260752
 20
4.353462
 30
0.0
 10
8.261579
 20
5.379219
 30
0.0
 10
9.284084
 20
5.378392
 30
0.0
 10
9.284083
 20
5.378392
 30
0.0
  0
LWPOLYLINE
  5
1f6
100
AcDbEntity
  8
Layer_1
 62
7
100
AcDbPolyline
 90
6
 70
0
 10
8.148360
 20
5.003510
 30
0.0
 10
8.148139
 20
4.684191
 30
0.0
 10
7.902352
 20
5.319247
 30
0.0
 10
8.149021
 20
5.352319
 30
0.0
 10
8.148360
 20
5.003510
 30
0.0
 10
8.148360
 20
5.003510
 30
0.0
  0
LWPOLYLINE
  5
1f7
100
AcDbEntity
  8
Layer_1
 62
7
100
AcDbPolyline
 90
5
 70
0
 10
9.642759
 20
5.316766
 30
0.0
 10
9.396917
 20
4.683254
 30
0.0
 10
9.397194
 20
5.351162
 30
0.0
 10
9.642760
 20
5.316766
 30
0.0
 10
9.642759
 20
5.316766
 30
0.0
  0
LWPOLYLINE
  5
1f8
100
AcDbEntity
  8
Layer_1
 62
7
100
AcDbPolyline
 90
6
 70
0
 10
8.162030
 20
4.335603
 30
0.0
 10
7.208648
 20
3.966123
 30
0.0
 10
6.837955
 20
4.922592
 30
0.0
 10
7.791392
 20
5.292071
 30
0.0
 10
8.162030
 20
4.335603
 30
0.0
 10
8.162030
 20
4.335603
 30
0.0
  0
LWPOLYLINE
  5
1f9
100
AcDbEntity
  8
Layer_1
 62
7
100
AcDbPolyline
 90
6
 70
0
 10
10.706439
 20
4.921765
 30
0.0
 10
10.335527
 20
3.965352
 30
0.0
 10
9.382255
 20
4.335052
 30
0.0
 10
9.753113
 20
5.291465
 30
0.0
 10
10.706439
 20
4.921765
 30
0.0
 10
10.706439
 20
4.921765
 30
0.0
  0
LWPOLYLINE
  5
1fa
100
AcDbEntity
  8
Layer_1
 62
7
100
AcDbPolyline
 90
7
 70
0
 10
6.984138
 20
4.234124
 30
0.0
 10
6.523046
 20
4.740360
 30
0.0
 10
6.621844
 20
4.821191
 30
0.0
 10
6.674428
 20
4.856420
 30
0.0
 10
6.733004
 20
4.881747
 30
0.0
 10
6.984138
 20
4.234124
 30
0.0
 10
6.984138
 20
4.234124
 30
0.0
  0
LWPOLYLINE
  5
1fb
100
AcDbEntity
  8
Layer_1
 62
7
100
AcDbPolyline
 90
8
 70
0
 10
10.822360
 20
4.877723
 30
0.0
 10
10.928592
 20
4.816605
 30
0.0
 10
11.024876
 20
4.740250
 30
0.0
 10
10.559706
 20
4.231203
 30
0.0
 10
10.813485
 20
4.881251
 30
0.0
 10
10.820042
 20
4.878643
 30
0.0
 10
10.822360
 20
4.877723
 30
0.0
 10
10.822360
 20
4.877723
 30
0.0
  0
LWPOLYLINE
  5
1fc
100
AcDbEntity
  8
Layer_1
 62
7
100
AcDbPolyline
 90
5
 70
0
 10
12.467021
 20
4.703429
 30
0.0
 10
12.129016
 20
4.465579
 30
0.0
 10
12.405395
 20
4.802868
 30
0.0
 10
12.467021
 20
4.703429
 30
0.0
 10
12.467021
 20
4.703429
 30
0.0
  0
LWPOLYLINE
  5
1fd
100
AcDbEntity
  8
Layer_1
 62
7
100
AcDbPolyline
 90
6
 70
0
 10
7.123485
 20
3.912710
 30
0.0
 10
6.367659
 20
3.224132
 30
0.0
 10
5.676875
 20
3.982384
 30
0.0
 10
6.432702
 20
4.670962
 30
0.0
 10
7.123485
 20
3.912710
 30
0.0
 10
7.123485
 20
3.912710
 30
0.0
  0
LWPOLYLINE
  5
1fe
100
AcDbEntity
  8
Layer_1
 62
7
100
AcDbPolyline
 90
6
 70
0
 10
11.867409
 20
3.979518
 30
0.0
 10
11.175413
 20
3.222258
 30
0.0
 10
10.420579
 20
3.912104
 30
0.0
 10
11.112575
 20
4.669309
 30
0.0
 10
11.867409
 20
3.979518
 30
0.0
 10
11.867409
 20
3.979518
 30
0.0
  0
LWPOLYLINE
  5
1ff
100
AcDbEntity
  8
Layer_1
 62
7
100
AcDbPolyline
 90
17
 70
0
 10
4.444579
 20
4.415088
 30
0.0
 10
4.082485
 20
3.906427
 30
0.0
 10
4.706737
 20
3.463249
 30
0.0
 10
3.985692
 20
3.721108
 30
0.0
 10
3.794476
 20
3.186760
 30
0.0
 10
3.743102
 20
4.307932
 30
0.0
 10
3.013514
 20
4.273701
 30
0.0
 10
3.641017
 20
4.443200
 30
0.0
 10
3.672158
 20
4.459470
 30
0.0
 10
3.694221
 20
4.486139
 30
0.0
 10
3.702781
 20
4.518812
 30
0.0
 10
3.693410
 20
4.553095
 30
0.0
 10
3.682947
 20
4.586900
 30
0.0
 10
3.698889
 20
4.595017
 30
0.0
 10
3.763056
 20
4.579850
 30
0.0
 10
4.444579
 20
4.415088
 30
0.0
 10
4.444579
 20
4.415088
 30
0.0
  0
LWPOLYLINE
  5
200
100
AcDbEntity
  8
Layer_1
 62
7
100
AcDbPolyline
 90
5
 70
0
 10
1.267153
 20
4.362447
 30
0.0
 10
0.583757
 20
4.300601
 30
0.0
 10
1.183644
 20
4.599084
 30
0.0
 10
1.267153
 20
4.362447
 30
0.0
 10
1.267153
 20
4.362447
 30
0.0
  0
LWPOLYLINE
  5
201
100
AcDbEntity
  8
Layer_1
 62
7
100
AcDbPolyline
 90
5
 70
0
 10
2.455298
 20
4.335272
 30
0.0
 10
1.806517
 20
4.293821
 30
0.0
 10
2.408830
 20
4.506259
 30
0.0
 10
2.455298
 20
4.335272
 30
0.0
 10
2.455298
 20
4.335272
 30
0.0
  0
LWPOLYLINE
  5
202
100
AcDbEntity
  8
Layer_1
 62
7
100
AcDbPolyline
 90
6
 70
0
 10
8.746814
 20
3.269277
 30
0.0
 10
7.764824
 20
2.984740
 30
0.0
 10
7.479350
 20
3.969927
 30
0.0
 10
8.461340
 20
4.254519
 30
0.0
 10
8.746814
 20
3.269277
 30
0.0
 10
8.746814
 20
3.269277
 30
0.0
  0
LWPOLYLINE
  5
203
100
AcDbEntity
  8
Layer_1
 62
7
100
AcDbPolyline
 90
6
 70
0
 10
10.080645
 20
3.961658
 30
0.0
 10
9.788942
 20
2.978235
 30
0.0
 10
8.808715
 20
3.268946
 30
0.0
 10
9.100363
 20
4.252369
 30
0.0
 10
10.080645
 20
3.961658
 30
0.0
 10
10.080645
 20
3.961658
 30
0.0
  0
LWPOLYLINE
  5
204
100
AcDbEntity
  8
Layer_1
 62
7
100
AcDbPolyline
 90
6
 70
0
 10
1.378995
 20
3.232786
 30
0.0
 10
0.357428
 20
3.140458
 30
0.0
 10
0.265430
 20
4.158773
 30
0.0
 10
1.286997
 20
4.251102
 30
0.0
 10
1.378995
 20
3.232786
 30
0.0
 10
1.378995
 20
3.232786
 30
0.0
  0
LWPOLYLINE
  5
205
100
AcDbEntity
  8
Layer_1
 62
7
100
AcDbPolyline
 90
5
 70
0
 10
8.978931
 20
4.240077
 30
0.0
 10
8.779005
 20
3.565996
 30
0.0
 10
8.583764
 20
4.240573
 30
0.0
 10
8.978931
 20
4.240077
 30
0.0
 10
8.978931
 20
4.240077
 30
0.0
  0
LWPOLYLINE
  5
206
100
AcDbEntity
  8
Layer_1
 62
7
100
AcDbPolyline
 90
6
 70
0
 10
2.530704
 20
3.202470
 30
0.0
 10
1.507042
 20
3.136710
 30
0.0
 10
1.441558
 20
4.157064
 30
0.0
 10
2.465165
 20
4.222769
 30
0.0
 10
2.530704
 20
3.202470
 30
0.0
 10
2.530704
 20
3.202470
 30
0.0
  0
LWPOLYLINE
  5
207
100
AcDbEntity
  8
Layer_1
 62
7
100
AcDbPolyline
 90
6
 70
0
 10
3.681917
 20
3.168129
 30
0.0
 10
2.657318
 20
3.119953
 30
0.0
 10
2.609308
 20
4.141244
 30
0.0
 10
3.633906
 20
4.189420
 30
0.0
 10
3.681917
 20
3.168129
 30
0.0
 10
3.681917
 20
3.168129
 30
0.0
  0
LWPOLYLINE
  5
208
100
AcDbEntity
  8
Layer_1
 62
7
100
AcDbPolyline
 90
7
 70
0
 10
7.579946
 20
3.217903
 30
0.0
 10
7.043724
 20
3.687208
 30
0.0
 10
7.138531
 20
3.774366
 30
0.0
 10
7.236743
 20
3.856020
 30
0.0
 10
7.379139
 20
3.911222
 30
0.0
 10
7.579946
 20
3.217903
 30
0.0
 10
7.579946
 20
3.217903
 30
0.0
  0
LWPOLYLINE
  5
209
100
AcDbEntity
  8
Layer_1
 62
7
100
AcDbPolyline
 90
8
 70
0
 10
10.187580
 20
3.905159
 30
0.0
 10
10.280190
 20
3.865484
 30
0.0
 10
10.363656
 20
3.809644
 30
0.0
 10
10.513569
 20
3.674530
 30
0.0
 10
9.975914
 20
3.211069
 30
0.0
 10
10.181572
 20
3.906867
 30
0.0
 10
10.187580
 20
3.905160
 30
0.0
 10
10.187580
 20
3.905159
 30
0.0
  0
LWPOLYLINE
  5
20a
100
AcDbEntity
  8
Layer_1
 62
7
100
AcDbPolyline
 90
5
 70
0
 10
6.061073
 20
3.393521
 30
0.0
 10
5.464437
 20
3.690956
 30
0.0
 10
5.606926
 20
3.891764
 30
0.0
 10
6.061073
 20
3.393521
 30
0.0
 10
6.061073
 20
3.393521
 30
0.0
  0
LWPOLYLINE
  5
20b
100
AcDbEntity
  8
Layer_1
 62
7
100
AcDbPolyline
 90
6
 70
0
 10
11.970431
 20
3.842651
 30
0.0
 10
12.079076
 20
3.688201
 30
0.0
 10
11.482771
 20
3.391371
 30
0.0
 10
11.937303
 20
3.888953
 30
0.0
 10
11.970431
 20
3.842651
 30
0.0
 10
11.970431
 20
3.842651
 30
0.0
  0
LWPOLYLINE
  5
20c
100
AcDbEntity
  8
Layer_1
 62
7
100
AcDbPolyline
 90
6
 70
0
 10
7.713065
 20
2.950950
 30
0.0
 10
7.039921
 20
2.181288
 30
0.0
 10
6.267778
 20
2.856637
 30
0.0
 10
6.940922
 20
3.626299
 30
0.0
 10
7.713065
 20
2.950950
 30
0.0
 10
7.713065
 20
2.950950
 30
0.0
  0
LWPOLYLINE
  5
20d
100
AcDbEntity
  8
Layer_1
 62
7
100
AcDbPolyline
 90
6
 70
0
 10
11.285160
 20
2.840487
 30
0.0
 10
10.508443
 20
2.170540
 30
0.0
 10
9.840646
 20
2.944721
 30
0.0
 10
10.617363
 20
3.614668
 30
0.0
 10
11.285160
 20
2.840487
 30
0.0
 10
11.285160
 20
2.840487
 30
0.0
  0
LWPOLYLINE
  5
20e
100
AcDbEntity
  8
Layer_1
 62
7
100
AcDbPolyline
 90
6
 70
0
 10
6.306694
 20
3.144151
 30
0.0
 10
5.850784
 20
2.229023
 30
0.0
 10
4.932680
 20
2.686422
 30
0.0
 10
5.388590
 20
3.601549
 30
0.0
 10
6.306694
 20
3.144151
 30
0.0
 10
6.306694
 20
3.144151
 30
0.0
  0
LWPOLYLINE
  5
20f
100
AcDbEntity
  8
Layer_1
 62
7
100
AcDbPolyline
 90
6
 70
0
 10
12.610061
 20
2.683721
 30
0.0
 10
11.691792
 20
2.226763
 30
0.0
 10
11.236323
 20
3.142112
 30
0.0
 10
12.154592
 20
3.599069
 30
0.0
 10
12.610061
 20
2.683721
 30
0.0
 10
12.610061
 20
2.683721
 30
0.0
  0
LWPOLYLINE
  5
210
100
AcDbEntity
  8
Layer_1
 62
7
100
AcDbPolyline
 90
6
 70
0
 10
5.019331
 20
3.230692
 30
0.0
 10
4.675262
 20
2.267884
 30
0.0
 10
3.709313
 20
2.613055
 30
0.0
 10
4.053436
 20
3.575808
 30
0.0
 10
5.019331
 20
3.230692
 30
0.0
 10
5.019331
 20
3.230692
 30
0.0
  0
LWPOLYLINE
  5
211
100
AcDbEntity
  8
Layer_1
 62
7
100
AcDbPolyline
 90
6
 70
0
 10
13.838610
 20
2.589187
 30
0.0
 10
12.871227
 20
2.248206
 30
0.0
 10
12.531348
 20
3.212446
 30
0.0
 10
13.498731
 20
3.553428
 30
0.0
 10
13.838610
 20
2.589187
 30
0.0
 10
13.838610
 20
2.589187
 30
0.0
  0
LWPOLYLINE
  5
212
100
AcDbEntity
  8
Layer_1
 62
7
100
AcDbPolyline
 90
8
 70
0
 10
1.394815
 20
3.113007
 30
0.0
 10
1.380063
 20
2.997067
 30
0.0
 10
1.354521
 20
2.881993
 30
0.0
 10
0.722387
 20
3.060587
 30
0.0
 10
1.394705
 20
3.121386
 30
0.0
 10
1.394789
 20
3.114331
 30
0.0
 10
1.394807
 20
3.113007
 30
0.0
 10
1.394815
 20
3.113007
 30
0.0
  0
LWPOLYLINE
  5
213
100
AcDbEntity
  8
Layer_1
 62
7
100
AcDbPolyline
 90
6
 70
0
 10
2.542666
 20
3.075470
 30
0.0
 10
2.521334
 20
2.925980
 30
0.0
 10
1.923761
 20
3.050334
 30
0.0
 10
2.543217
 20
3.090077
 30
0.0
 10
2.542666
 20
3.075470
 30
0.0
 10
2.542666
 20
3.075470
 30
0.0
  0
LWPOLYLINE
  5
214
100
AcDbEntity
  8
Layer_1
 62
7
100
AcDbPolyline
 90
8
 70
0
 10
9.279894
 20
3.087045
 30
0.0
 10
9.279894
 20
2.063052
 30
0.0
 10
8.261855
 20
2.061289
 30
0.0
 10
8.256831
 20
2.151691
 30
0.0
 10
8.257390
 20
2.246166
 30
0.0
 10
8.257390
 20
3.087045
 30
0.0
 10
9.279894
 20
3.087045
 30
0.0
 10
9.279894
 20
3.087045
 30
0.0
  0
LWPOLYLINE
  5
215
100
AcDbEntity
  8
Layer_1
 62
7
100
AcDbPolyline
 90
7
 70
0
 10
3.744260
 20
3.057996
 30
0.0
 10
3.742619
 20
3.035139
 30
0.0
 10
3.733614
 20
3.012732
 30
0.0
 10
3.714714
 20
2.967321
 30
0.0
 10
3.285373
 20
3.036774
 30
0.0
 10
3.744260
 20
3.057996
 30
0.0
 10
3.744260
 20
3.057996
 30
0.0
  0
LWPOLYLINE
  5
216
100
AcDbEntity
  8
Layer_1
 62
7
100
AcDbPolyline
 90
6
 70
0
 10
1.336606
 20
2.769380
 30
0.0
 10
1.058794
 20
1.785405
 30
0.0
 10
0.071623
 20
2.064100
 30
0.0
 10
0.349435
 20
3.048074
 30
0.0
 10
1.336606
 20
2.769380
 30
0.0
 10
1.336606
 20
2.769380
 30
0.0
  0
LWPOLYLINE
  5
217
100
AcDbEntity
  8
Layer_1
 62
7
100
AcDbPolyline
 90
6
 70
0
 10
3.664830
 20
2.860606
 30
0.0
 10
3.501615
 20
1.851220
 30
0.0
 10
2.488977
 20
2.014987
 30
0.0
 10
2.652192
 20
3.024372
 30
0.0
 10
3.664830
 20
2.860606
 30
0.0
 10
3.664830
 20
2.860606
 30
0.0
  0
LWPOLYLINE
  5
218
100
AcDbEntity
  8
Layer_1
 62
7
100
AcDbPolyline
 90
6
 70
0
 10
2.503695
 20
2.814083
 30
0.0
 10
2.295500
 20
1.813021
 30
0.0
 10
1.291186
 20
2.021932
 30
0.0
 10
1.499435
 20
3.022994
 30
0.0
 10
2.503695
 20
2.814083
 30
0.0
 10
2.503695
 20
2.814083
 30
0.0
  0
LWPOLYLINE
  5
219
100
AcDbEntity
  8
Layer_1
 62
7
100
AcDbPolyline
 90
6
 70
0
 10
9.753664
 20
2.871685
 30
0.0
 10
10.123309
 20
2.444438
 30
0.0
 10
9.393279
 20
2.204770
 30
0.0
 10
9.393279
 20
2.978290
 30
0.0
 10
9.753664
 20
2.871685
 30
0.0
 10
9.753664
 20
2.871685
 30
0.0
  0
LWPOLYLINE
  5
21a
100
AcDbEntity
  8
Layer_1
 62
7
100
AcDbPolyline
 90
6
 70
0
 10
8.144997
 20
2.204549
 30
0.0
 10
7.418054
 20
2.442509
 30
0.0
 10
7.800322
 20
2.877583
 30
0.0
 10
8.144997
 20
2.977408
 30
0.0
 10
8.144997
 20
2.204549
 30
0.0
 10
8.144997
 20
2.204549
 30
0.0
  0
LWPOLYLINE
  5
21b
100
AcDbEntity
  8
Layer_1
 62
7
100
AcDbPolyline
 90
5
 70
0
 10
6.759187
 20
2.278523
 30
0.0
 10
6.054238
 20
2.383364
 30
0.0
 10
6.231674
 20
2.739835
 30
0.0
 10
6.759187
 20
2.278523
 30
0.0
 10
6.759187
 20
2.278523
 30
0.0
  0
LWPOLYLINE
  5
21c
100
AcDbEntity
  8
Layer_1
 62
7
100
AcDbPolyline
 90
5
 70
0
 10
11.496662
 20
2.366000
 30
0.0
 10
10.792980
 20
2.266120
 30
0.0
 10
11.320218
 20
2.721148
 30
0.0
 10
11.496662
 20
2.366000
 30
0.0
 10
11.496662
 20
2.366000
 30
0.0
  0
LWPOLYLINE
  5
21d
100
AcDbEntity
  8
Layer_1
 62
7
100
AcDbPolyline
 90
5
 70
0
 10
5.503794
 20
2.276263
 30
0.0
 10
4.820673
 20
2.339046
 30
0.0
 10
4.905009
 20
2.574746
 30
0.0
 10
5.503794
 20
2.276263
 30
0.0
 10
5.503794
 20
2.276263
 30
0.0
  0
LWPOLYLINE
  5
21e
100
AcDbEntity
  8
Layer_1
 62
7
100
AcDbPolyline
 90
5
 70
0
 10
12.720966
 20
2.335077
 30
0.0
 10
12.039058
 20
2.273341
 30
0.0
 10
12.637732
 20
2.571163
 30
0.0
 10
12.720966
 20
2.335077
 30
0.0
 10
12.720966
 20
2.335077
 30
0.0
  0
LWPOLYLINE
  5
21f
100
AcDbEntity
  8
Layer_1
 62
7
100
AcDbPolyline
 90
5
 70
0
 10
4.282632
 20
2.288444
 30
0.0
 10
3.693107
 20
2.329841
 30
0.0
 10
3.719069
 20
2.489803
 30
0.0
 10
4.282632
 20
2.288444
 30
0.0
 10
4.282632
 20
2.288444
 30
0.0
  0
LWPOLYLINE
  5
220
100
AcDbEntity
  8
Layer_1
 62
7
100
AcDbPolyline
 90
6
 70
0
 10
10.585503
 20
1.400492
 30
0.0
 10
9.610899
 20
1.080732
 30
0.0
 10
9.293950
 20
2.052800
 30
0.0
 10
10.266790
 20
2.371954
 30
0.0
 10
10.585503
 20
1.400492
 30
0.0
 10
10.585503
 20
1.400492
 30
0.0
  0
LWPOLYLINE
  5
221
100
AcDbEntity
  8
Layer_1
 62
7
100
AcDbPolyline
 90
8
 70
0
 10
8.243389
 20
2.052524
 30
0.0
 10
7.928700
 20
1.084921
 30
0.0
 10
7.854602
 20
1.103348
 30
0.0
 10
7.778150
 20
1.129024
 30
0.0
 10
6.952443
 20
1.399334
 30
0.0
 10
7.270384
 20
2.370961
 30
0.0
 10
8.243389
 20
2.052524
 30
0.0
 10
8.243389
 20
2.052524
 30
0.0
  0
LWPOLYLINE
  5
222
100
AcDbEntity
  8
Layer_1
 62
7
100
AcDbPolyline
 90
6
 70
0
 10
7.014510
 20
2.125230
 30
0.0
 10
6.863973
 20
1.114080
 30
0.0
 10
5.849461
 20
1.265058
 30
0.0
 10
5.999998
 20
2.276318
 30
0.0
 10
7.014510
 20
2.125230
 30
0.0
 10
7.014510
 20
2.125230
 30
0.0
  0
LWPOLYLINE
  5
223
100
AcDbEntity
  8
Layer_1
 62
7
100
AcDbPolyline
 90
6
 70
0
 10
11.693997
 20
1.246482
 30
0.0
 10
10.678438
 20
1.102560
 30
0.0
 10
10.535011
 20
2.114867
 30
0.0
 10
11.550570
 20
2.258789
 30
0.0
 10
11.693997
 20
1.246482
 30
0.0
 10
11.693997
 20
1.246482
 30
0.0
  0
LWPOLYLINE
  5
224
100
AcDbEntity
  8
Layer_1
 62
7
100
AcDbPolyline
 90
6
 70
0
 10
5.824271
 20
2.132285
 30
0.0
 10
5.730178
 20
1.114135
 30
0.0
 10
4.708721
 20
1.208504
 30
0.0
 10
4.802813
 20
2.226653
 30
0.0
 10
5.824271
 20
2.132285
 30
0.0
 10
5.824271
 20
2.132285
 30
0.0
  0
LWPOLYLINE
  5
225
100
AcDbEntity
  8
Layer_1
 62
7
100
AcDbPolyline
 90
6
 70
0
 10
12.833083
 20
1.204535
 30
0.0
 10
11.811516
 20
1.112206
 30
0.0
 10
11.719518
 20
2.130466
 30
0.0
 10
12.741085
 20
2.222795
 30
0.0
 10
12.833083
 20
1.204535
 30
0.0
 10
12.833083
 20
1.204535
 30
0.0
  0
LWPOLYLINE
  5
226
100
AcDbEntity
  8
Layer_1
 62
7
100
AcDbPolyline
 90
6
 70
0
 10
4.651119
 20
2.148160
 30
0.0
 10
4.579406
 20
1.128302
 30
0.0
 10
3.556130
 20
1.200235
 30
0.0
 10
3.627898
 20
2.220094
 30
0.0
 10
4.651119
 20
2.148160
 30
0.0
 10
4.651119
 20
2.148160
 30
0.0
  0
LWPOLYLINE
  5
227
100
AcDbEntity
  8
Layer_1
 62
7
100
AcDbPolyline
 90
6
 70
0
 10
13.984792
 20
1.174163
 30
0.0
 10
12.961185
 20
1.108403
 30
0.0
 10
12.895646
 20
2.128702
 30
0.0
 10
13.919253
 20
2.194462
 30
0.0
 10
13.984792
 20
1.174163
 30
0.0
 10
13.984792
 20
1.174163
 30
0.0
  0
LWPOLYLINE
  5
228
100
AcDbEntity
  8
Layer_1
 62
7
100
AcDbPolyline
 90
4
 70
0
 10
8.243389
 20
2.066305
 30
0.0
 10
8.242495
 20
2.059619
 30
0.0
 10
8.243389
 20
2.066305
 30
0.0
 10
8.243389
 20
2.066305
 30
0.0
  0
LWPOLYLINE
  5
229
100
AcDbEntity
  8
Layer_1
 62
7
100
AcDbPolyline
 90
4
 70
0
 10
8.251106
 20
2.065864
 30
0.0
 10
8.248063
 20
2.065629
 30
0.0
 10
8.251106
 20
2.065864
 30
0.0
 10
8.251106
 20
2.065864
 30
0.0
  0
LWPOLYLINE
  5
22a
100
AcDbEntity
  8
Layer_1
 62
7
100
AcDbPolyline
 90
6
 70
0
 10
9.495144
 20
1.282974
 30
0.0
 10
8.772060
 20
0.560110
 30
0.0
 10
8.046826
 20
1.285509
 30
0.0
 10
8.769910
 20
2.008428
 30
0.0
 10
9.495144
 20
1.282974
 30
0.0
 10
9.495144
 20
1.282974
 30
0.0
  0
LWPOLYLINE
  5
22b
100
AcDbEntity
  8
Layer_1
 62
7
100
AcDbPolyline
 90
5
 70
0
 10
8.549699
 20
1.949393
 30
0.0
 10
8.224152
 20
1.623900
 30
0.0
 10
8.330646
 20
1.949393
 30
0.0
 10
8.549699
 20
1.949393
 30
0.0
 10
8.549699
 20
1.949393
 30
0.0
  0
LWPOLYLINE
  5
22c
100
AcDbEntity
  8
Layer_1
 62
7
100
AcDbPolyline
 90
5
 70
0
 10
9.207520
 20
1.949393
 30
0.0
 10
9.313573
 20
1.626050
 30
0.0
 10
8.990286
 20
1.949393
 30
0.0
 10
9.207520
 20
1.949393
 30
0.0
 10
9.207520
 20
1.949393
 30
0.0
  0
LWPOLYLINE
  5
22d
100
AcDbEntity
  8
Layer_1
 62
7
100
AcDbPolyline
 90
6
 70
0
 10
2.160563
 20
1.433454
 30
0.0
 10
1.688723
 20
0.526430
 30
0.0
 10
0.778777
 20
0.999813
 30
0.0
 10
1.250617
 20
1.906838
 30
0.0
 10
2.160563
 20
1.433454
 30
0.0
 10
2.160563
 20
1.433454
 30
0.0
  0
LWPOLYLINE
  5
22e
100
AcDbEntity
  8
Layer_1
 62
7
100
AcDbPolyline
 90
6
 70
0
 10
3.406640
 20
1.505167
 30
0.0
 10
3.029168
 20
0.554927
 30
0.0
 10
2.075841
 20
0.933612
 30
0.0
 10
2.453313
 20
1.883852
 30
0.0
 10
3.406640
 20
1.505167
 30
0.0
 10
3.406640
 20
1.505167
 30
0.0
  0
LWPOLYLINE
  5
22f
100
AcDbEntity
  8
Layer_1
 62
7
100
AcDbPolyline
 90
5
 70
0
 10
1.007035
 20
1.683430
 30
0.0
 10
0.892437
 20
1.463275
 30
0.0
 10
0.357703
 20
1.866930
 30
0.0
 10
1.007035
 20
1.683430
 30
0.0
 10
1.007035
 20
1.683430
 30
0.0
  0
LWPOLYLINE
  5
230
100
AcDbEntity
  8
Layer_1
 62
7
100
AcDbPolyline
 90
11
 70
0
 10
3.051548
 20
1.810375
 30
0.0
 10
3.467495
 20
1.740757
 30
0.0
 10
3.476967
 20
1.725605
 30
0.0
 10
3.478288
 20
1.705072
 30
0.0
 10
3.475183
 20
1.663235
 30
0.0
 10
3.470880
 20
1.615260
 30
0.0
 10
3.461345
 20
1.603981
 30
0.0
 10
3.437517
 20
1.615252
 30
0.0
 10
2.873891
 20
1.838983
 30
0.0
 10
3.051548
 20
1.810375
 30
0.0
 10
3.051548
 20
1.810375
 30
0.0
  0
LWPOLYLINE
  5
231
100
AcDbEntity
  8
Layer_1
 62
7
100
AcDbPolyline
 90
5
 70
0
 10
2.260995
 20
1.705700
 30
0.0
 10
2.196392
 20
1.542816
 30
0.0
 10
1.632609
 20
1.836448
 30
0.0
 10
2.260995
 20
1.705700
 30
0.0
 10
2.260995
 20
1.705700
 30
0.0
  0
LWPOLYLINE
  5
232
100
AcDbEntity
  8
Layer_1
 62
7
100
AcDbPolyline
 90
11
 70
0
 10
3.436130
 20
1.103331
 30
0.0
 10
3.457590
 20
1.093879
 30
0.0
 10
3.487284
 20
1.091579
 30
0.0
 10
3.548263
 20
1.088361
 30
0.0
 10
4.201217
 20
1.042477
 30
0.0
 10
3.449139
 20
0.888468
 30
0.0
 10
3.506962
 20
0.606246
 30
0.0
 10
3.170885
 20
0.606246
 30
0.0
 10
3.450793
 20
1.311195
 30
0.0
 10
3.436130
 20
1.103331
 30
0.0
 10
3.436130
 20
1.103331
 30
0.0
  0
LWPOLYLINE
  5
233
100
AcDbEntity
  8
Layer_1
 62
7
100
AcDbPolyline
 90
7
 70
0
 10
10.567754
 20
1.081448
 30
0.0
 10
10.347488
 20
0.606246
 30
0.0
 10
10.066809
 20
0.606246
 30
0.0
 10
9.773342
 20
1.015247
 30
0.0
 10
10.541406
 20
1.266987
 30
0.0
 10
10.567754
 20
1.081448
 30
0.0
 10
10.567754
 20
1.081448
 30
0.0
  0
LWPOLYLINE
  5
234
100
AcDbEntity
  8
Layer_1
 62
7
100
AcDbPolyline
 90
7
 70
0
 10
7.756886
 20
1.017397
 30
0.0
 10
7.455592
 20
0.606191
 30
0.0
 10
7.197789
 20
0.606191
 30
0.0
 10
6.976641
 20
1.100741
 30
0.0
 10
7.001281
 20
1.265113
 30
0.0
 10
7.756886
 20
1.017397
 30
0.0
 10
7.756886
 20
1.017397
 30
0.0
  0
LWPOLYLINE
  5
235
100
AcDbEntity
  8
Layer_1
 62
7
100
AcDbPolyline
 90
9
 70
0
 10
6.575412
 20
1.043028
 30
0.0
 10
5.931537
 20
0.751932
 30
0.0
 10
5.840360
 20
1.080040
 30
0.0
 10
5.841154
 20
1.114772
 30
0.0
 10
5.849056
 20
1.140438
 30
0.0
 10
5.868235
 20
1.151719
 30
0.0
 10
5.902863
 20
1.143295
 30
0.0
 10
6.575412
 20
1.043028
 30
0.0
 10
6.575412
 20
1.043028
 30
0.0
  0
LWPOLYLINE
  5
236
100
AcDbEntity
  8
Layer_1
 62
7
100
AcDbPolyline
 90
8
 70
0
 10
11.693997
 20
1.127585
 30
0.0
 10
11.685635
 20
1.021711
 30
0.0
 10
11.660884
 20
0.918658
 30
0.0
 10
11.599133
 20
0.715055
 30
0.0
 10
10.936186
 20
1.025280
 30
0.0
 10
11.693721
 20
1.133759
 30
0.0
 10
11.693998
 20
1.127585
 30
0.0
 10
11.693997
 20
1.127585
 30
0.0
  0
LWPOLYLINE
  5
237
100
AcDbEntity
  8
Layer_1
 62
7
100
AcDbPolyline
 90
4
 70
0
 10
8.058070
 20
1.116616
 30
0.0
 10
8.068430
 20
1.107183
 30
0.0
 10
8.058070
 20
1.116616
 30
0.0
 10
8.058070
 20
1.116616
 30
0.0
  0
LWPOLYLINE
  5
238
100
AcDbEntity
  8
Layer_1
 62
7
100
AcDbPolyline
 90
7
 70
0
 10
5.393882
 20
1.033162
 30
0.0
 10
4.735124
 20
0.845583
 30
0.0
 10
4.708529
 20
0.971379
 30
0.0
 10
4.696460
 20
1.034359
 30
0.0
 10
4.691578
 20
1.097819
 30
0.0
 10
5.393882
 20
1.033162
 30
0.0
 10
5.393882
 20
1.033162
 30
0.0
  0
LWPOLYLINE
  5
239
100
AcDbEntity
  8
Layer_1
 62
7
100
AcDbPolyline
 90
8
 70
0
 10
12.849068
 20
1.085196
 30
0.0
 10
12.834296
 20
0.968445
 30
0.0
 10
12.808664
 20
0.853080
 30
0.0
 10
12.173223
 20
1.032500
 30
0.0
 10
12.848958
 20
1.093630
 30
0.0
 10
12.849043
 20
1.086575
 30
0.0
 10
12.849061
 20
1.085195
 30
0.0
 10
12.849068
 20
1.085196
 30
0.0
  0
LWPOLYLINE
  5
23a
100
AcDbEntity
  8
Layer_1
 62
7
100
AcDbPolyline
 90
7
 70
0
 10
1.292344
 20
0.605584
 30
0.0
 10
1.218400
 20
0.604472
 30
0.0
 10
1.184188
 20
0.610903
 30
0.0
 10
1.156763
 20
0.634514
 30
0.0
 10
1.056589
 20
0.728285
 30
0.0
 10
1.292344
 20
0.605584
 30
0.0
 10
1.292344
 20
0.605584
 30
0.0
  0
LWPOLYLINE
  5
23b
100
AcDbEntity
  8
Layer_1
 62
7
100
AcDbPolyline
 90
9
 70
0
 10
2.599275
 20
0.605087
 30
0.0
 10
2.535418
 20
0.606592
 30
0.0
 10
2.505842
 20
0.614322
 30
0.0
 10
2.479800
 20
0.633530
 30
0.0
 10
2.426777
 20
0.669679
 30
0.0
 10
2.424188
 20
0.675084
 30
0.0
 10
2.458094
 20
0.661160
 30
0.0
 10
2.599275
 20
0.605087
 30
0.0
 10
2.599275
 20
0.605087
 30
0.0
  0
ENDSEC
  0
SECTION
  2
OBJECTS
  0
DICTIONARY
  5
C
330
0
100
AcDbDictionary
  3
ACAD_GROUP
350
D
  3
ACAD_MLINESTYLE
350
17
  0
DICTIONARY
  5
D
330
C
100
AcDbDictionary
  0
DICTIONARY
  5
1A
330
C
100
AcDbDictionary
  0
DICTIONARY
  5
17
330
C
100
AcDbDictionary
  3
STANDARD
350
18
  0
DICTIONARY
  5
19
330
C
100
AcDbDictionary
  0
ENDSEC
  0
EOF
