  0
SECTION
  2
HEADER
  9
$ACADVER
  1
AC1014
  9
$HANDSEED
  5
FFFF
  9
$MEASUREMENT
 70
     1
  0
ENDSEC
  0
SECTION
  2
TABLES
  0
TABLE
  2
VPORT
  5
8
330
0
100
AcDbSymbolTable
 70
     4
  0
VPORT
  5
2E
330
8
100
AcDbSymbolTableRecord
100
AcDbViewportTableRecord
  2
*ACTIVE
 70
     0
 10
0.0
 20
0.0
 11
1.0
 21
1.0
 12
210.0
 22
148.5
 13
0.0
 23
0.0
 14
10.0
 24
10.0
 15
10.0
 25
10.0
 16
0.0
 26
0.0
 36
1.0
 17
0.0
 27
0.0
 37
0.0
 40
341.0
 41
1.24
 42
50.0
 43
0.0
 44
0.0
 50
0.0
 51
0.0
 71
     0
 72
   100
 73
     1
 74
     3
 75
     0
 76
     0
 77
     0
 78
     0
  0
ENDTAB
  0
TABLE
  2
LTYPE
  5
5
330
0
100
AcDbSymbolTable
 70
     1
  0
LTYPE
  5
14
330
5
100
AcDbSymbolTableRecord
100
AcDbLinetypeTableRecord
  2
BYBLOCK
 70
     0
  3

 72
    65
 73
     0
 40
0.0
  0
LTYPE
  5
15
330
5
100
AcDbSymbolTableRecord
100
AcDbLinetypeTableRecord
  2
BYLAYER
 70
     0
  3

 72
    65
 73
     0
 40
0.0
  0
LTYPE
  5
16
330
5
100
AcDbSymbolTableRecord
100
AcDbLinetypeTableRecord
  2
CONTINUOUS
 70
     0
  3
Solid line
 72
    65
 73
     0
 40
0.0
  0
ENDTAB
  0
TABLE
  2
LAYER
  5
2
100
AcDbSymbolTable
 70
2
  0
LAYER
  5
50
100
AcDbSymbolTableRecord
100
AcDbLayerTableRecord
  2
0
 70
0
  6
CONTINUOUS
  0
LAYER
  5
51
100
AcDbSymbolTableRecord
100
AcDbLayerTableRecord
  2
Layer_1
 70
0
  6
CONTINUOUS
  0
ENDTAB
  0
TABLE
  2
STYLE
  5
3
330
0
100
AcDbSymbolTable
 70
     1
  0
STYLE
  5
11
330
3
100
AcDbSymbolTableRecord
100
AcDbTextStyleTableRecord
  2
STANDARD
 70
     0
 40
0.0
 41
1.0
 50
0.0
 71
     0
 42
2.5
  3
txt
  4

  0
ENDTAB
  0
TABLE
  2
VIEW
  5
6
330
0
100
AcDbSymbolTable
 70
     0
  0
ENDTAB
  0
TABLE
  2
UCS
  5
7
330
0
100
AcDbSymbolTable
 70
     0
  0
ENDTAB
  0
TABLE
  2
APPID
  5
9
330
0
100
AcDbSymbolTable
 70
     2
  0
APPID
  5
12
330
9
100
AcDbSymbolTableRecord
100
AcDbRegAppTableRecord
  2
ACAD
 70
     0
  0
ENDTAB
  0
TABLE
  2
DIMSTYLE
  5
A
330
0
100
AcDbSymbolTable
 70
     1
  0
DIMSTYLE
105
27
330
A
100
AcDbSymbolTableRecord
100
AcDbDimStyleTableRecord
  2
ISO-25
 70
     0
  3

  4

  5

  6

  7

 40
1.0
 41
2.5
 42
0.625
 43
3.75
 44
1.25
 45
0.0
 46
0.0
 47
0.0
 48
0.0
140
2.5
141
2.5
142
0.0
143
0.03937007874016
144
1.0
145
0.0
146
1.0
147
0.625
 71
     0
 72
     0
 73
     0
 74
     0
 75
     0
 76
     0
 77
     1
 78
     8
170
     0
171
     3
172
     1
173
     0
174
     0
175
     0
176
     0
177
     0
178
     0
270
     2
271
     2
272
     2
273
     2
274
     3
340
11
275
     0
280
     0
281
     0
282
     0
283
     0
284
     8
285
     0
286
     0
287
     3
288
     0
  0
ENDTAB
  0
TABLE
  2
BLOCK_RECORD
  5
1
330
0
100
AcDbSymbolTable
 70
     1
  0
BLOCK_RECORD
  5
1F
330
1
100
AcDbSymbolTableRecord
100
AcDbBlockTableRecord
  2
*MODEL_SPACE
  0
BLOCK_RECORD
  5
1B
330
1
100
AcDbSymbolTableRecord
100
AcDbBlockTableRecord
  2
*PAPER_SPACE
  0
ENDTAB
  0
ENDSEC
  0
SECTION
  2
BLOCKS
  0
BLOCK
  5
20
330
1F
100
AcDbEntity
  8
0
100
AcDbBlockBegin
  2
*MODEL_SPACE
 70
     0
 10
0.0
 20
0.0
 30
0.0
  3
*MODEL_SPACE
  1

  0
ENDBLK
  5
21
330
1F
100
AcDbEntity
  8
0
100
AcDbBlockEnd
  0
BLOCK
  5
1C
330
1B
100
AcDbEntity
 67
     1
  8
0
100
AcDbBlockBegin
  2
*PAPER_SPACE
  1

  0
ENDBLK
  5
1D
330
1B
100
AcDbEntity
 67
     1
  8
0
100
AcDbBlockEnd
  0
ENDSEC
  0
SECTION
  2
ENTITIES
  0
LWPOLYLINE
  5
100
100
AcDbEntity
  8
Layer_1
 62
7
100
AcDbPolyline
 90
288
 70
1
 10
11.749596
 20
1.240620
 30
0.0
 10
11.665315
 20
1.238140
 30
0.0
 10
11.512738
 20
1.238140
 30
0.0
 10
11.512738
 20
0.463627
 30
0.0
 10
11.060135
 20
0.463627
 30
0.0
 10
11.060135
 20
1.238360
 30
0.0
 10
10.729626
 20
1.239850
 30
0.0
 10
10.544143
 20
1.239300
 30
0.0
 10
10.451428
 20
1.239396
 30
0.0
 10
10.359100
 20
1.232671
 30
0.0
 10
10.306679
 20
1.199873
 30
0.0
 10
10.265614
 20
1.151422
 30
0.0
 10
10.228241
 20
1.097678
 30
0.0
 10
10.186955
 20
1.049061
 30
0.0
 10
10.068278
 20
0.905028
 30
0.0
 10
9.928711
 20
1.082079
 30
0.0
 10
9.855344
 20
1.166470
 30
0.0
 10
9.772055
 20
1.238348
 30
0.0
 10
9.364432
 20
1.238348
 30
0.0
 10
9.676750
 20
0.872286
 30
0.0
 10
8.997212
 20
0.872286
 30
0.0
 10
8.997212
 20
0.864900
 30
0.0
 10
8.997212
 20
0.549605
 30
0.0
 10
9.769520
 20
0.549605
 30
0.0
 10
9.769520
 20
0.763531
 30
0.0
 10
9.892717
 20
0.619113
 30
0.0
 10
9.892717
 20
0.199969
 30
0.0
 10
8.469037
 20
0.199969
 30
0.0
 10
8.483204
 20
0.203607
 30
0.0
 10
8.553318
 20
0.243680
 30
0.0
 10
8.614503
 20
0.296928
 30
0.0
 10
8.666152
 20
0.361254
 30
0.0
 10
8.707658
 20
0.434291
 30
0.0
 10
8.738472
 20
0.513941
 30
0.0
 10
8.757929
 20
0.598001
 30
0.0
 10
8.765481
 20
0.684156
 30
0.0
 10
8.760575
 20
0.770201
 30
0.0
 10
8.749165
 20
0.842796
 30
0.0
 10
8.728329
 20
0.913076
 30
0.0
 10
8.698784
 20
0.979442
 30
0.0
 10
8.661081
 20
1.040462
 30
0.0
 10
8.615936
 20
1.094646
 30
0.0
 10
8.563957
 20
1.140507
 30
0.0
 10
8.505859
 20
1.176557
 30
0.0
 10
8.442249
 20
1.201362
 30
0.0
 10
8.366952
 20
1.222528
 30
0.0
 10
8.290058
 20
1.234324
 30
0.0
 10
8.134615
 20
1.239340
 30
0.0
 10
7.588581
 20
1.238350
 30
0.0
 10
7.588581
 20
0.199970
 30
0.0
 10
7.424650
 20
0.199970
 30
0.0
 10
7.427296
 20
0.202121
 30
0.0
 10
7.455683
 20
0.238997
 30
0.0
 10
7.475196
 20
0.281882
 30
0.0
 10
7.483740
 20
0.328625
 30
0.0
 10
7.479330
 20
0.376966
 30
0.0
 10
7.477237
 20
1.205057
 30
0.0
 10
7.462685
 20
1.225397
 30
0.0
 10
7.441960
 20
1.236146
 30
0.0
 10
7.394941
 20
1.239618
 30
0.0
 10
7.174289
 20
1.238350
 30
0.0
 10
7.176494
 20
0.663708
 30
0.0
 10
6.866050
 20
0.956072
 30
0.0
 10
6.707795
 20
1.098010
 30
0.0
 10
6.543809
 20
1.231349
 30
0.0
 10
6.503129
 20
1.240003
 30
0.0
 10
6.463111
 20
1.235373
 30
0.0
 10
6.425463
 20
1.219278
 30
0.0
 10
6.392004
 20
1.193646
 30
0.0
 10
6.364499
 20
1.160242
 30
0.0
 10
6.344710
 20
1.120996
 30
0.0
 10
6.334347
 20
1.077725
 30
0.0
 10
6.335175
 20
1.032305
 30
0.0
 10
6.337326
 20
0.199970
 30
0.0
 10
6.296977
 20
0.199970
 30
0.0
 10
6.050859
 20
0.672637
 30
0.0
 10
5.775748
 20
1.190449
 30
0.0
 10
5.726965
 20
1.224294
 30
0.0
 10
5.671017
 20
1.238460
 30
0.0
 10
5.554655
 20
1.236916
 30
0.0
 10
5.496392
 20
1.209741
 30
0.0
 10
5.451633
 20
1.162172
 30
0.0
 10
5.416851
 20
1.102971
 30
0.0
 10
5.388298
 20
1.041125
 30
0.0
 10
4.984148
 20
0.252170
 30
0.0
 10
4.984148
 20
0.462514
 30
0.0
 10
4.663891
 20
0.462418
 30
0.0
 10
4.503873
 20
0.463134
 30
0.0
 10
4.344572
 20
0.475646
 30
0.0
 10
4.333052
 20
0.539422
 30
0.0
 10
4.333988
 20
0.604576
 30
0.0
 10
4.337791
 20
0.670170
 30
0.0
 10
4.334816
 20
0.735379
 30
0.0
 10
4.334816
 20
1.238363
 30
0.0
 10
4.004362
 20
1.239852
 30
0.0
 10
3.818217
 20
1.239303
 30
0.0
 10
3.725227
 20
1.239303
 30
0.0
 10
3.632733
 20
1.232523
 30
0.0
 10
3.580864
 20
1.199284
 30
0.0
 10
3.539908
 20
1.151053
 30
0.0
 10
3.502591
 20
1.097750
 30
0.0
 10
3.461691
 20
1.049078
 30
0.0
 10
3.343014
 20
0.905046
 30
0.0
 10
3.203502
 20
1.082096
 30
0.0
 10
3.130080
 20
1.166487
 30
0.0
 10
3.046791
 20
1.238366
 30
0.0
 10
2.483284
 20
1.238807
 30
0.0
 10
1.919942
 20
1.232743
 30
0.0
 10
1.864214
 20
1.213010
 30
0.0
 10
1.814825
 20
1.180488
 30
0.0
 10
1.772547
 20
1.137383
 30
0.0
 10
1.738316
 20
1.085900
 30
0.0
 10
1.713071
 20
1.028187
 30
0.0
 10
1.697581
 20
0.966396
 30
0.0
 10
1.692896
 20
0.902676
 30
0.0
 10
1.699731
 20
0.839286
 30
0.0
 10
1.696038
 20
0.567426
 30
0.0
 10
1.704031
 20
0.432544
 30
0.0
 10
1.736332
 20
0.302072
 30
0.0
 10
1.765877
 20
0.258029
 30
0.0
 10
1.801706
 20
0.221429
 30
0.0
 10
1.837756
 20
0.199986
 30
0.0
 10
1.329039
 20
0.199986
 30
0.0
 10
1.722827
 20
1.238366
 30
0.0
 10
1.396398
 20
1.238366
 30
0.0
 10
1.207165
 20
0.706223
 30
0.0
 10
0.994947
 20
1.240130
 30
0.0
 10
0.908131
 20
1.238257
 30
0.0
 10
0.821204
 20
1.240075
 30
0.0
 10
0.780359
 20
1.226681
 30
0.0
 10
0.748830
 20
1.196860
 30
0.0
 10
0.726450
 20
1.156787
 30
0.0
 10
0.713001
 20
1.112524
 30
0.0
 10
0.555133
 20
0.705231
 30
0.0
 10
0.356805
 20
1.238367
 30
0.0
 10
0.000004
 20
1.238367
 30
0.0
 10
0.393682
 20
0.199987
 30
0.0
 10
0.000004
 20
0.199987
 30
0.0
 10
0.000004
 20
0.000006
 30
0.0
 10
21.999999
 20
0.000006
 30
0.0
 10
21.999999
 20
0.199987
 30
0.0
 10
21.257787
 20
0.199987
 30
0.0
 10
21.257787
 20
0.524653
 30
0.0
 10
21.573193
 20
0.521126
 30
0.0
 10
21.730399
 20
0.526638
 30
0.0
 10
21.885456
 20
0.554860
 30
0.0
 10
21.919190
 20
0.579995
 30
0.0
 10
21.946586
 20
0.611470
 30
0.0
 10
21.983628
 20
0.688530
 30
0.0
 10
21.999172
 20
0.776062
 30
0.0
 10
21.995754
 20
0.863926
 30
0.0
 10
21.997793
 20
0.951239
 30
0.0
 10
21.990242
 20
1.040205
 30
0.0
 10
21.964389
 20
1.121840
 30
0.0
 10
21.941900
 20
1.157118
 30
0.0
 10
21.911693
 20
1.187159
 30
0.0
 10
21.863186
 20
1.215877
 30
0.0
 10
21.810270
 20
1.232028
 30
0.0
 10
21.700192
 20
1.239304
 30
0.0
 10
21.336170
 20
1.238972
 30
0.0
 10
21.154269
 20
1.237981
 30
0.0
 10
20.972974
 20
1.228776
 30
0.0
 10
20.943704
 20
1.183907
 30
0.0
 10
20.936814
 20
1.129888
 30
0.0
 10
20.938524
 20
1.017219
 30
0.0
 10
20.938524
 20
0.199987
 30
0.0
 10
20.835336
 20
0.199987
 30
0.0
 10
20.487023
 20
0.515283
 30
0.0
 10
20.556201
 20
0.533473
 30
0.0
 10
20.617992
 20
0.573436
 30
0.0
 10
20.663302
 20
0.632361
 30
0.0
 10
20.677082
 20
0.668135
 30
0.0
 10
20.683311
 20
0.707657
 30
0.0
 10
20.691083
 20
0.794639
 30
0.0
 10
20.691470
 20
0.882172
 30
0.0
 10
20.684634
 20
1.056907
 30
0.0
 10
20.671019
 20
1.099130
 30
0.0
 10
20.650293
 20
1.136833
 30
0.0
 10
20.591810
 20
1.196530
 30
0.0
 10
20.518112
 20
1.231807
 30
0.0
 10
20.438076
 20
1.238422
 30
0.0
 10
20.269349
 20
1.238754
 30
0.0
 10
19.632529
 20
1.238368
 30
0.0
 10
19.632529
 20
0.199988
 30
0.0
 10
19.282122
 20
0.199988
 30
0.0
 10
19.288351
 20
0.204342
 30
0.0
 10
19.313983
 20
0.232069
 30
0.0
 10
19.349481
 20
0.300640
 30
0.0
 10
19.366348
 20
0.379298
 30
0.0
 10
19.367121
 20
0.459224
 30
0.0
 10
19.364475
 20
1.030394
 30
0.0
 10
19.344521
 20
1.104091
 30
0.0
 10
19.304613
 20
1.166930
 30
0.0
 10
19.248830
 20
1.211523
 30
0.0
 10
19.181196
 20
1.230595
 30
0.0
 10
19.098789
 20
1.239084
 30
0.0
 10
19.015996
 20
1.239308
 30
0.0
 10
18.679700
 20
1.239212
 30
0.0
 10
18.511579
 20
1.238384
 30
0.0
 10
18.343954
 20
1.225596
 30
0.0
 10
18.305425
 20
1.215123
 30
0.0
 10
18.271415
 20
1.195334
 30
0.0
 10
18.218278
 20
1.133984
 30
0.0
 10
18.187796
 20
1.054223
 30
0.0
 10
18.183000
 20
0.968785
 30
0.0
 10
18.179913
 20
0.659883
 30
0.0
 10
18.185205
 20
0.351203
 30
0.0
 10
18.207088
 20
0.278718
 30
0.0
 10
18.248650
 20
0.217643
 30
0.0
 10
18.272517
 20
0.200005
 30
0.0
 10
17.946143
 20
0.200005
 30
0.0
 10
17.946143
 20
0.463651
 30
0.0
 10
17.199963
 20
0.463651
 30
0.0
 10
17.199963
 20
0.936098
 30
0.0
 10
17.946143
 20
0.936098
 30
0.0
 10
17.946143
 20
1.238384
 30
0.0
 10
17.118327
 20
1.238052
 30
0.0
 10
17.045898
 20
1.228350
 30
0.0
 10
16.976500
 20
1.198475
 30
0.0
 10
16.921599
 20
1.147267
 30
0.0
 10
16.903188
 20
1.113257
 30
0.0
 10
16.892660
 20
1.073459
 30
0.0
 10
16.877391
 20
0.926229
 30
0.0
 10
16.877005
 20
0.778063
 30
0.0
 10
16.880477
 20
0.629510
 30
0.0
 10
16.876894
 20
0.481343
 30
0.0
 10
16.878713
 20
0.400370
 30
0.0
 10
16.891667
 20
0.318680
 30
0.0
 10
16.922204
 20
0.246030
 30
0.0
 10
16.946182
 20
0.216099
 30
0.0
 10
16.966797
 20
0.200003
 30
0.0
 10
15.949639
 20
0.200003
 30
0.0
 10
15.949639
 20
1.238383
 30
0.0
 10
15.627179
 20
1.238383
 30
0.0
 10
15.627179
 20
1.230996
 30
0.0
 10
15.627179
 20
0.200003
 30
0.0
 10
15.351295
 20
0.200003
 30
0.0
 10
15.353171
 20
0.201492
 30
0.0
 10
15.381393
 20
0.237817
 30
0.0
 10
15.400851
 20
0.280261
 30
0.0
 10
15.409450
 20
0.326508
 30
0.0
 10
15.405206
 20
0.374464
 30
0.0
 10
15.403442
 20
1.238384
 30
0.0
 10
15.100659
 20
1.238384
 30
0.0
 10
15.102864
 20
0.663797
 30
0.0
 10
14.793467
 20
0.955114
 30
0.0
 10
14.635764
 20
1.096611
 30
0.0
 10
14.472439
 20
1.229564
 30
0.0
 10
14.409325
 20
1.238824
 30
0.0
 10
14.371347
 20
1.230336
 30
0.0
 10
14.337888
 20
1.211594
 30
0.0
 10
14.309500
 20
1.184585
 30
0.0
 10
14.286735
 20
1.151016
 30
0.0
 10
14.260552
 20
1.071751
 30
0.0
 10
14.263914
 20
0.988462
 30
0.0
 10
14.263914
 20
0.200004
 30
0.0
 10
14.165688
 20
0.200004
 30
0.0
 10
13.919571
 20
0.672726
 30
0.0
 10
13.644459
 20
1.190538
 30
0.0
 10
13.605047
 20
1.220469
 30
0.0
 10
13.559572
 20
1.235187
 30
0.0
 10
13.463605
 20
1.239706
 30
0.0
 10
13.429871
 20
1.238824
 30
0.0
 10
13.398727
 20
1.229619
 30
0.0
 10
13.344818
 20
1.191199
 30
0.0
 10
13.302540
 20
1.134865
 30
0.0
 10
13.272499
 20
1.070869
 30
0.0
 10
12.825849
 20
0.200004
 30
0.0
 10
12.639594
 20
0.200004
 30
0.0
 10
12.639594
 20
0.936097
 30
0.0
 10
13.038949
 20
0.936097
 30
0.0
 10
13.038949
 20
1.238384
 30
0.0
 10
11.919375
 20
1.238384
 30
0.0
 10
11.919375
 20
1.230997
 30
0.0
 10
11.919375
 20
0.936097
 30
0.0
 10
12.317077
 20
0.936097
 30
0.0
 10
12.317077
 20
0.200004
 30
0.0
 10
11.744199
 20
0.200004
 30
0.0
 10
11.788131
 20
0.244212
 30
0.0
 10
11.821094
 20
0.311019
 30
0.0
 10
11.831126
 20
0.386921
 30
0.0
 10
11.835150
 20
0.670191
 30
0.0
 10
11.835150
 20
0.953626
 30
0.0
 10
11.835246
 20
1.083106
 30
0.0
 10
11.824552
 20
1.210657
 30
0.0
 10
11.790322
 20
1.235352
 30
0.0
 10
11.749587
 20
1.240643
 30
0.0
 10
11.749596
 20
1.240620
 30
0.0
  0
LWPOLYLINE
  5
101
100
AcDbEntity
  8
Layer_1
 62
7
100
AcDbPolyline
 90
13
 70
1
 10
4.012076
 20
1.230533
 30
0.0
 10
4.013894
 20
1.006519
 30
0.0
 10
4.010146
 20
0.782009
 30
0.0
 10
4.013067
 20
0.557995
 30
0.0
 10
4.034785
 20
0.335524
 30
0.0
 10
4.060857
 20
0.284427
 30
0.0
 10
4.095198
 20
0.241156
 30
0.0
 10
4.136209
 20
0.205768
 30
0.0
 10
4.146020
 20
0.199980
 30
0.0
 10
3.491672
 20
0.199980
 30
0.0
 10
3.491672
 20
0.624692
 30
0.0
 10
4.012075
 20
1.230533
 30
0.0
 10
4.012076
 20
1.230533
 30
0.0
  0
LWPOLYLINE
  5
102
100
AcDbEntity
  8
Layer_1
 62
7
100
AcDbPolyline
 90
12
 70
1
 10
10.737123
 20
1.230309
 30
0.0
 10
10.739108
 20
0.994223
 30
0.0
 10
10.735690
 20
0.757862
 30
0.0
 10
10.738337
 20
0.521832
 30
0.0
 10
10.758401
 20
0.286793
 30
0.0
 10
10.778520
 20
0.248319
 30
0.0
 10
10.805089
 20
0.216789
 30
0.0
 10
10.831106
 20
0.199977
 30
0.0
 10
10.216887
 20
0.199977
 30
0.0
 10
10.216887
 20
0.624689
 30
0.0
 10
10.737124
 20
1.230309
 30
0.0
 10
10.737123
 20
1.230309
 30
0.0
  0
LWPOLYLINE
  5
103
100
AcDbEntity
  8
Layer_1
 62
7
100
AcDbPolyline
 90
31
 70
1
 10
2.708176
 20
1.154351
 30
0.0
 10
2.723886
 20
1.138973
 30
0.0
 10
3.167394
 20
0.619176
 30
0.0
 10
3.167394
 20
0.199977
 30
0.0
 10
2.713854
 20
0.199977
 30
0.0
 10
2.713854
 20
0.462907
 30
0.0
 10
2.372541
 20
0.462811
 30
0.0
 10
2.201940
 20
0.463418
 30
0.0
 10
2.031449
 20
0.471631
 30
0.0
 10
2.018275
 20
0.518374
 30
0.0
 10
2.020534
 20
0.568535
 30
0.0
 10
2.396794
 20
0.569529
 30
0.0
 10
2.418622
 20
0.603870
 30
0.0
 10
2.422205
 20
0.644990
 30
0.0
 10
2.420275
 20
0.730484
 30
0.0
 10
2.421102
 20
0.801370
 30
0.0
 10
2.420553
 20
0.835766
 30
0.0
 10
2.413552
 20
0.863051
 30
0.0
 10
2.019103
 20
0.864099
 30
0.0
 10
2.017946
 20
0.892377
 30
0.0
 10
2.025112
 20
0.919551
 30
0.0
 10
2.041317
 20
0.937907
 30
0.0
 10
2.067225
 20
0.939725
 30
0.0
 10
2.372157
 20
0.943694
 30
0.0
 10
2.676703
 20
0.939780
 30
0.0
 10
2.701232
 20
0.964420
 30
0.0
 10
2.707627
 20
1.000028
 30
0.0
 10
2.705421
 20
1.076151
 30
0.0
 10
2.704485
 20
1.136068
 30
0.0
 10
2.708178
 20
1.154369
 30
0.0
 10
2.708176
 20
1.154351
 30
0.0
  0
LWPOLYLINE
  5
104
100
AcDbEntity
  8
Layer_1
 62
7
100
AcDbPolyline
 90
13
 70
1
 10
21.259878
 20
0.946102
 30
0.0
 10
21.284187
 20
0.944063
 30
0.0
 10
21.480530
 20
0.942191
 30
0.0
 10
21.578481
 20
0.942632
 30
0.0
 10
21.675054
 20
0.935852
 30
0.0
 10
21.682881
 20
0.882053
 30
0.0
 10
21.675440
 20
0.829688
 30
0.0
 10
21.641981
 20
0.820427
 30
0.0
 10
21.607199
 20
0.820977
 30
0.0
 10
21.537195
 20
0.820913
 30
0.0
 10
21.258501
 20
0.823339
 30
0.0
 10
21.259878
 20
0.946094
 30
0.0
 10
21.259878
 20
0.946102
 30
0.0
  0
LWPOLYLINE
  5
105
100
AcDbEntity
  8
Layer_1
 62
7
100
AcDbPolyline
 90
13
 70
1
 10
19.950467
 20
0.943568
 30
0.0
 10
20.159487
 20
0.942079
 30
0.0
 10
20.368343
 20
0.936622
 30
0.0
 10
20.375784
 20
0.878028
 30
0.0
 10
20.372201
 20
0.820150
 30
0.0
 10
20.340066
 20
0.807196
 30
0.0
 10
20.305504
 20
0.806972
 30
0.0
 10
20.235280
 20
0.808682
 30
0.0
 10
20.092294
 20
0.807030
 30
0.0
 10
19.951789
 20
0.814527
 30
0.0
 10
19.952285
 20
0.879239
 30
0.0
 10
19.950466
 20
0.943566
 30
0.0
 10
19.950467
 20
0.943568
 30
0.0
  0
LWPOLYLINE
  5
106
100
AcDbEntity
  8
Layer_1
 62
7
100
AcDbPolyline
 90
18
 70
1
 10
8.246071
 20
0.936292
 30
0.0
 10
8.283829
 20
0.932599
 30
0.0
 10
8.319603
 20
0.920362
 30
0.0
 10
8.380843
 20
0.874170
 30
0.0
 10
8.421743
 20
0.805929
 30
0.0
 10
8.432106
 20
0.766077
 30
0.0
 10
8.434311
 20
0.723743
 30
0.0
 10
8.430067
 20
0.642825
 30
0.0
 10
8.401514
 20
0.567198
 30
0.0
 10
8.351298
 20
0.509486
 30
0.0
 10
8.318832
 20
0.491296
 30
0.0
 10
8.281955
 20
0.482311
 30
0.0
 10
8.190564
 20
0.466712
 30
0.0
 10
8.098125
 20
0.463349
 30
0.0
 10
7.912586
 20
0.462688
 30
0.0
 10
7.911097
 20
0.936071
 30
0.0
 10
8.246070
 20
0.936295
 30
0.0
 10
8.246071
 20
0.936292
 30
0.0
  0
LWPOLYLINE
  5
107
100
AcDbEntity
  8
Layer_1
 62
7
100
AcDbPolyline
 90
6
 70
1
 10
18.502755
 20
0.936068
 30
0.0
 10
19.045977
 20
0.936068
 30
0.0
 10
19.045977
 20
0.463676
 30
0.0
 10
18.502755
 20
0.463676
 30
0.0
 10
18.502755
 20
0.936068
 30
0.0
 10
18.502755
 20
0.936068
 30
0.0
  0
LWPOLYLINE
  5
108
100
AcDbEntity
  8
Layer_1
 62
7
100
AcDbPolyline
 90
5
 70
1
 10
5.615782
 20
0.846937
 30
0.0
 10
5.703039
 20
0.665146
 30
0.0
 10
5.525438
 20
0.665146
 30
0.0
 10
5.615782
 20
0.846937
 30
0.0
 10
5.615782
 20
0.846937
 30
0.0
  0
LWPOLYLINE
  5
109
100
AcDbEntity
  8
Layer_1
 62
7
100
AcDbPolyline
 90
5
 70
1
 10
13.484546
 20
0.846937
 30
0.0
 10
13.571803
 20
0.665146
 30
0.0
 10
13.394201
 20
0.665146
 30
0.0
 10
13.484546
 20
0.846937
 30
0.0
 10
13.484546
 20
0.846937
 30
0.0
  0
LWPOLYLINE
  5
10a
100
AcDbEntity
  8
Layer_1
 62
7
100
AcDbPolyline
 90
7
 70
1
 10
6.638672
 20
0.727654
 30
0.0
 10
6.947353
 20
0.437384
 30
0.0
 10
7.104008
 20
0.295336
 30
0.0
 10
7.218605
 20
0.199975
 30
0.0
 10
6.640160
 20
0.199975
 30
0.0
 10
6.638671
 20
0.727654
 30
0.0
 10
6.638672
 20
0.727654
 30
0.0
  0
LWPOLYLINE
  5
10b
100
AcDbEntity
  8
Layer_1
 62
7
100
AcDbPolyline
 90
7
 70
1
 10
14.565093
 20
0.727590
 30
0.0
 10
14.874049
 20
0.436989
 30
0.0
 10
15.030870
 20
0.294831
 30
0.0
 10
15.145247
 20
0.199966
 30
0.0
 10
14.566581
 20
0.199966
 30
0.0
 10
14.565092
 20
0.727590
 30
0.0
 10
14.565093
 20
0.727590
 30
0.0
  0
LWPOLYLINE
  5
10c
100
AcDbEntity
  8
Layer_1
 62
7
100
AcDbPolyline
 90
5
 70
1
 10
0.864526
 20
0.710667
 30
0.0
 10
1.064507
 20
0.199966
 30
0.0
 10
0.661845
 20
0.199966
 30
0.0
 10
0.864526
 20
0.710667
 30
0.0
 10
0.864526
 20
0.710667
 30
0.0
  0
LWPOLYLINE
  5
10d
100
AcDbEntity
  8
Layer_1
 62
7
100
AcDbPolyline
 90
11
 70
1
 10
19.998257
 20
0.515868
 30
0.0
 10
20.045055
 20
0.508371
 30
0.0
 10
20.087278
 20
0.487425
 30
0.0
 10
20.120076
 20
0.449998
 30
0.0
 10
20.269455
 20
0.292184
 30
0.0
 10
20.346900
 20
0.216944
 30
0.0
 10
20.369059
 20
0.199966
 30
0.0
 10
19.951679
 20
0.199966
 30
0.0
 10
19.951679
 20
0.513112
 30
0.0
 10
19.998257
 20
0.515867
 30
0.0
 10
19.998257
 20
0.515868
 30
0.0
  0
LWPOLYLINE
  5
10e
100
AcDbEntity
  8
Layer_1
 62
7
100
AcDbPolyline
 90
7
 70
1
 10
5.374790
 20
0.360976
 30
0.0
 10
5.852088
 20
0.360976
 30
0.0
 10
5.906713
 20
0.244725
 30
0.0
 10
5.934825
 20
0.199966
 30
0.0
 10
5.297234
 20
0.199966
 30
0.0
 10
5.374790
 20
0.360976
 30
0.0
 10
5.374790
 20
0.360976
 30
0.0
  0
LWPOLYLINE
  5
10f
100
AcDbEntity
  8
Layer_1
 62
7
100
AcDbPolyline
 90
7
 70
1
 10
13.243609
 20
0.360976
 30
0.0
 10
13.720852
 20
0.360976
 30
0.0
 10
13.775477
 20
0.244725
 30
0.0
 10
13.803589
 20
0.199966
 30
0.0
 10
13.165943
 20
0.199966
 30
0.0
 10
13.243609
 20
0.360976
 30
0.0
 10
13.243609
 20
0.360976
 30
0.0
  0
ENDSEC
  0
SECTION
  2
OBJECTS
  0
DICTIONARY
  5
C
330
0
100
AcDbDictionary
  3
ACAD_GROUP
350
D
  3
ACAD_MLINESTYLE
350
17
  0
DICTIONARY
  5
D
330
C
100
AcDbDictionary
  0
DICTIONARY
  5
1A
330
C
100
AcDbDictionary
  0
DICTIONARY
  5
17
330
C
100
AcDbDictionary
  3
STANDARD
350
18
  0
DICTIONARY
  5
19
330
C
100
AcDbDictionary
  0
ENDSEC
  0
EOF
