  0
SECTION
  2
HEADER
  9
$ACADVER
  1
AC1014
  9
$HANDSEED
  5
FFFF
  9
$MEASUREMENT
 70
     1
  0
ENDSEC
  0
SECTION
  2
TABLES
  0
TABLE
  2
VPORT
  5
8
330
0
100
AcDbSymbolTable
 70
     4
  0
VPORT
  5
2E
330
8
100
AcDbSymbolTableRecord
100
AcDbViewportTableRecord
  2
*ACTIVE
 70
     0
 10
0.0
 20
0.0
 11
1.0
 21
1.0
 12
210.0
 22
148.5
 13
0.0
 23
0.0
 14
10.0
 24
10.0
 15
10.0
 25
10.0
 16
0.0
 26
0.0
 36
1.0
 17
0.0
 27
0.0
 37
0.0
 40
341.0
 41
1.24
 42
50.0
 43
0.0
 44
0.0
 50
0.0
 51
0.0
 71
     0
 72
   100
 73
     1
 74
     3
 75
     0
 76
     0
 77
     0
 78
     0
  0
ENDTAB
  0
TABLE
  2
LTYPE
  5
5
330
0
100
AcDbSymbolTable
 70
     1
  0
LTYPE
  5
14
330
5
100
AcDbSymbolTableRecord
100
AcDbLinetypeTableRecord
  2
BYBLOCK
 70
     0
  3

 72
    65
 73
     0
 40
0.0
  0
LTYPE
  5
15
330
5
100
AcDbSymbolTableRecord
100
AcDbLinetypeTableRecord
  2
BYLAYER
 70
     0
  3

 72
    65
 73
     0
 40
0.0
  0
LTYPE
  5
16
330
5
100
AcDbSymbolTableRecord
100
AcDbLinetypeTableRecord
  2
CONTINUOUS
 70
     0
  3
Solid line
 72
    65
 73
     0
 40
0.0
  0
ENDTAB
  0
TABLE
  2
LAYER
  5
2
100
AcDbSymbolTable
 70
2
  0
LAYER
  5
50
100
AcDbSymbolTableRecord
100
AcDbLayerTableRecord
  2
0
 70
0
  6
CONTINUOUS
  0
LAYER
  5
51
100
AcDbSymbolTableRecord
100
AcDbLayerTableRecord
  2
Layer_1
 70
0
  6
CONTINUOUS
  0
ENDTAB
  0
TABLE
  2
STYLE
  5
3
330
0
100
AcDbSymbolTable
 70
     1
  0
STYLE
  5
11
330
3
100
AcDbSymbolTableRecord
100
AcDbTextStyleTableRecord
  2
STANDARD
 70
     0
 40
0.0
 41
1.0
 50
0.0
 71
     0
 42
2.5
  3
txt
  4

  0
ENDTAB
  0
TABLE
  2
VIEW
  5
6
330
0
100
AcDbSymbolTable
 70
     0
  0
ENDTAB
  0
TABLE
  2
UCS
  5
7
330
0
100
AcDbSymbolTable
 70
     0
  0
ENDTAB
  0
TABLE
  2
APPID
  5
9
330
0
100
AcDbSymbolTable
 70
     2
  0
APPID
  5
12
330
9
100
AcDbSymbolTableRecord
100
AcDbRegAppTableRecord
  2
ACAD
 70
     0
  0
ENDTAB
  0
TABLE
  2
DIMSTYLE
  5
A
330
0
100
AcDbSymbolTable
 70
     1
  0
DIMSTYLE
105
27
330
A
100
AcDbSymbolTableRecord
100
AcDbDimStyleTableRecord
  2
ISO-25
 70
     0
  3

  4

  5

  6

  7

 40
1.0
 41
2.5
 42
0.625
 43
3.75
 44
1.25
 45
0.0
 46
0.0
 47
0.0
 48
0.0
140
2.5
141
2.5
142
0.0
143
0.03937007874016
144
1.0
145
0.0
146
1.0
147
0.625
 71
     0
 72
     0
 73
     0
 74
     0
 75
     0
 76
     0
 77
     1
 78
     8
170
     0
171
     3
172
     1
173
     0
174
     0
175
     0
176
     0
177
     0
178
     0
270
     2
271
     2
272
     2
273
     2
274
     3
340
11
275
     0
280
     0
281
     0
282
     0
283
     0
284
     8
285
     0
286
     0
287
     3
288
     0
  0
ENDTAB
  0
TABLE
  2
BLOCK_RECORD
  5
1
330
0
100
AcDbSymbolTable
 70
     1
  0
BLOCK_RECORD
  5
1F
330
1
100
AcDbSymbolTableRecord
100
AcDbBlockTableRecord
  2
*MODEL_SPACE
  0
BLOCK_RECORD
  5
1B
330
1
100
AcDbSymbolTableRecord
100
AcDbBlockTableRecord
  2
*PAPER_SPACE
  0
ENDTAB
  0
ENDSEC
  0
SECTION
  2
BLOCKS
  0
BLOCK
  5
20
330
1F
100
AcDbEntity
  8
0
100
AcDbBlockBegin
  2
*MODEL_SPACE
 70
     0
 10
0.0
 20
0.0
 30
0.0
  3
*MODEL_SPACE
  1

  0
ENDBLK
  5
21
330
1F
100
AcDbEntity
  8
0
100
AcDbBlockEnd
  0
BLOCK
  5
1C
330
1B
100
AcDbEntity
 67
     1
  8
0
100
AcDbBlockBegin
  2
*PAPER_SPACE
  1

  0
ENDBLK
  5
1D
330
1B
100
AcDbEntity
 67
     1
  8
0
100
AcDbBlockEnd
  0
ENDSEC
  0
SECTION
  2
ENTITIES
  0
LWPOLYLINE
  5
100
100
AcDbEntity
  8
Layer_1
 62
7
100
AcDbPolyline
 90
74
 70
0
 10
2.950008
 20
8.099993
 30
0.0
 10
2.950008
 20
7.207796
 30
0.0
 10
2.703594
 20
7.111074
 30
0.0
 10
2.468083
 20
6.996586
 30
0.0
 10
2.244162
 20
6.865264
 30
0.0
 10
2.032517
 20
6.718039
 30
0.0
 10
1.833833
 20
6.555844
 30
0.0
 10
1.648797
 20
6.379610
 30
0.0
 10
1.478095
 20
6.190268
 30
0.0
 10
1.322413
 20
5.988752
 30
0.0
 10
1.182437
 20
5.775991
 30
0.0
 10
1.058853
 20
5.552918
 30
0.0
 10
0.952347
 20
5.320465
 30
0.0
 10
0.863605
 20
5.079564
 30
0.0
 10
0.793314
 20
4.831145
 30
0.0
 10
0.742159
 20
4.576141
 30
0.0
 10
0.710826
 20
4.315484
 30
0.0
 10
0.700002
 20
4.050104
 30
0.0
 10
0.700002
 20
4.050048
 30
0.0
 10
0.700002
 20
4.049991
 30
0.0
 10
0.711258
 20
3.773499
 30
0.0
 10
0.744445
 20
3.503182
 30
0.0
 10
0.798682
 20
3.239925
 30
0.0
 10
0.873090
 20
2.984611
 30
0.0
 10
0.966790
 20
2.738122
 30
0.0
 10
1.078902
 20
2.501343
 30
0.0
 10
1.208547
 20
2.275156
 30
0.0
 10
1.354846
 20
2.060445
 30
0.0
 10
1.516919
 20
1.858093
 30
0.0
 10
1.693887
 20
1.668983
 30
0.0
 10
1.884871
 20
1.493999
 30
0.0
 10
2.088990
 20
1.334023
 30
0.0
 10
2.305366
 20
1.189939
 30
0.0
 10
2.533119
 20
1.062631
 30
0.0
 10
2.771370
 20
0.952981
 30
0.0
 10
3.019240
 20
0.861872
 30
0.0
 10
3.080756
 20
1.052152
 30
0.0
 10
2.847789
 20
1.137767
 30
0.0
 10
2.623840
 20
1.240791
 30
0.0
 10
2.409740
 20
1.360399
 30
0.0
 10
2.206317
 20
1.495768
 30
0.0
 10
2.014400
 20
1.646076
 30
0.0
 10
1.834820
 20
1.810498
 30
0.0
 10
1.668405
 20
1.988212
 30
0.0
 10
1.515985
 20
2.178393
 30
0.0
 10
1.378390
 20
2.380219
 30
0.0
 10
1.256448
 20
2.592866
 30
0.0
 10
1.150991
 20
2.815510
 30
0.0
 10
1.062845
 20
3.047329
 30
0.0
 10
0.992843
 20
3.287499
 30
0.0
 10
0.941812
 20
3.535197
 30
0.0
 10
0.910582
 20
3.789599
 30
0.0
 10
0.899982
 20
4.049881
 30
0.0
 10
0.899982
 20
4.049938
 30
0.0
 10
0.910494
 20
4.303910
 30
0.0
 10
0.940918
 20
4.553272
 30
0.0
 10
0.990580
 20
4.797100
 30
0.0
 10
1.058809
 20
5.034471
 30
0.0
 10
1.144930
 20
5.264460
 30
0.0
 10
1.248272
 20
5.486145
 30
0.0
 10
1.368162
 20
5.698602
 30
0.0
 10
1.503925
 20
5.900907
 30
0.0
 10
1.654890
 20
6.092136
 30
0.0
 10
1.820383
 20
6.271365
 30
0.0
 10
1.999732
 20
6.437672
 30
0.0
 10
2.192264
 20
6.590132
 30
0.0
 10
2.397305
 20
6.727823
 30
0.0
 10
2.614182
 20
6.849819
 30
0.0
 10
2.842224
 20
6.955198
 30
0.0
 10
3.080756
 20
7.043037
 30
0.0
 10
3.149988
 20
7.065416
 30
0.0
 10
3.149988
 20
8.099992
 30
0.0
 10
2.950008
 20
8.099992
 30
0.0
 10
2.950008
 20
8.099993
 30
0.0
  0
LWPOLYLINE
  5
101
100
AcDbEntity
  8
Layer_1
 62
7
100
AcDbPolyline
 90
72
 70
0
 10
4.949981
 20
8.099993
 30
0.0
 10
4.949981
 20
7.067622
 30
0.0
 10
5.019213
 20
7.045243
 30
0.0
 10
5.257882
 20
6.957348
 30
0.0
 10
5.486045
 20
6.851893
 30
0.0
 10
5.703029
 20
6.729803
 30
0.0
 10
5.908161
 20
6.592004
 30
0.0
 10
6.100766
 20
6.439421
 30
0.0
 10
6.280171
 20
6.272979
 30
0.0
 10
6.445702
 20
6.093605
 30
0.0
 10
6.596685
 20
5.902222
 30
0.0
 10
6.732447
 20
5.699758
 30
0.0
 10
6.852314
 20
5.487136
 30
0.0
 10
6.955611
 20
5.265283
 30
0.0
 10
7.041667
 20
5.035125
 30
0.0
 10
7.109806
 20
4.797585
 30
0.0
 10
7.159354
 20
4.553591
 30
0.0
 10
7.189639
 20
4.304067
 30
0.0
 10
7.199987
 20
4.049939
 30
0.0
 10
7.189392
 20
3.789648
 30
0.0
 10
7.158166
 20
3.535238
 30
0.0
 10
7.107139
 20
3.287531
 30
0.0
 10
7.037140
 20
3.047351
 30
0.0
 10
6.948997
 20
2.815522
 30
0.0
 10
6.843541
 20
2.592868
 30
0.0
 10
6.721602
 20
2.380211
 30
0.0
 10
6.584007
 20
2.178376
 30
0.0
 10
6.431588
 20
1.988186
 30
0.0
 10
6.265172
 20
1.810465
 30
0.0
 10
6.085590
 20
1.646036
 30
0.0
 10
5.893671
 20
1.495723
 30
0.0
 10
5.690245
 20
1.360349
 30
0.0
 10
5.476140
 20
1.240737
 30
0.0
 10
5.252186
 20
1.137713
 30
0.0
 10
5.019213
 20
1.052098
 30
0.0
 10
5.080729
 20
0.861818
 30
0.0
 10
5.328603
 20
0.952925
 30
0.0
 10
5.566857
 20
1.062575
 30
0.0
 10
5.794612
 20
1.189885
 30
0.0
 10
6.010990
 20
1.333971
 30
0.0
 10
6.215110
 20
1.493950
 30
0.0
 10
6.406093
 20
1.668939
 30
0.0
 10
6.583061
 20
1.858054
 30
0.0
 10
6.745133
 20
2.060411
 30
0.0
 10
6.891431
 20
2.275127
 30
0.0
 10
7.021075
 20
2.501320
 30
0.0
 10
7.133186
 20
2.738104
 30
0.0
 10
7.226884
 20
2.984598
 30
0.0
 10
7.301291
 20
3.239917
 30
0.0
 10
7.355527
 20
3.503179
 30
0.0
 10
7.388713
 20
3.773499
 30
0.0
 10
7.399969
 20
4.049994
 30
0.0
 10
7.399969
 20
4.050050
 30
0.0
 10
7.389312
 20
4.315590
 30
0.0
 10
7.358121
 20
4.576414
 30
0.0
 10
7.307082
 20
4.831588
 30
0.0
 10
7.236882
 20
5.080179
 30
0.0
 10
7.148208
 20
5.321253
 30
0.0
 10
7.041747
 20
5.553877
 30
0.0
 10
6.918187
 20
5.777118
 30
0.0
 10
6.778212
 20
5.990041
 30
0.0
 10
6.622512
 20
6.191714
 30
0.0
 10
6.451772
 20
6.381204
 30
0.0
 10
6.266679
 20
6.557575
 30
0.0
 10
6.067920
 20
6.719896
 30
0.0
 10
5.856182
 20
6.867233
 30
0.0
 10
5.632153
 20
6.998652
 30
0.0
 10
5.396517
 20
7.113219
 30
0.0
 10
5.149964
 20
7.210002
 30
0.0
 10
5.149964
 20
8.099995
 30
0.0
 10
4.949981
 20
8.099995
 30
0.0
 10
4.949981
 20
8.099993
 30
0.0
  0
LWPOLYLINE
  5
102
100
AcDbEntity
  8
Layer_1
 62
7
100
AcDbPolyline
 90
74
 70
0
 10
9.900004
 20
8.099993
 30
0.0
 10
9.900004
 20
7.207796
 30
0.0
 10
9.653590
 20
7.111074
 30
0.0
 10
9.418081
 20
6.996586
 30
0.0
 10
9.194160
 20
6.865264
 30
0.0
 10
8.982515
 20
6.718039
 30
0.0
 10
8.783832
 20
6.555844
 30
0.0
 10
8.598796
 20
6.379610
 30
0.0
 10
8.428094
 20
6.190268
 30
0.0
 10
8.272412
 20
5.988752
 30
0.0
 10
8.132436
 20
5.775991
 30
0.0
 10
8.008852
 20
5.552918
 30
0.0
 10
7.902346
 20
5.320465
 30
0.0
 10
7.813604
 20
5.079564
 30
0.0
 10
7.743312
 20
4.831145
 30
0.0
 10
7.692156
 20
4.576141
 30
0.0
 10
7.660823
 20
4.315484
 30
0.0
 10
7.649998
 20
4.050104
 30
0.0
 10
7.649998
 20
4.050048
 30
0.0
 10
7.649998
 20
4.049991
 30
0.0
 10
7.661255
 20
3.773499
 30
0.0
 10
7.694442
 20
3.503182
 30
0.0
 10
7.748679
 20
3.239925
 30
0.0
 10
7.823087
 20
2.984611
 30
0.0
 10
7.916788
 20
2.738122
 30
0.0
 10
8.028900
 20
2.501343
 30
0.0
 10
8.158546
 20
2.275156
 30
0.0
 10
8.304845
 20
2.060445
 30
0.0
 10
8.466919
 20
1.858093
 30
0.0
 10
8.643887
 20
1.668983
 30
0.0
 10
8.834870
 20
1.493999
 30
0.0
 10
9.038990
 20
1.334023
 30
0.0
 10
9.255366
 20
1.189939
 30
0.0
 10
9.483119
 20
1.062631
 30
0.0
 10
9.721369
 20
0.952981
 30
0.0
 10
9.969238
 20
0.861872
 30
0.0
 10
10.030754
 20
1.052152
 30
0.0
 10
9.797788
 20
1.137767
 30
0.0
 10
9.573839
 20
1.240791
 30
0.0
 10
9.359739
 20
1.360399
 30
0.0
 10
9.156315
 20
1.495768
 30
0.0
 10
8.964399
 20
1.646076
 30
0.0
 10
8.784818
 20
1.810498
 30
0.0
 10
8.618403
 20
1.988212
 30
0.0
 10
8.465984
 20
2.178393
 30
0.0
 10
8.328388
 20
2.380219
 30
0.0
 10
8.206447
 20
2.592866
 30
0.0
 10
8.100989
 20
2.815510
 30
0.0
 10
8.012844
 20
3.047329
 30
0.0
 10
7.942841
 20
3.287499
 30
0.0
 10
7.891810
 20
3.535197
 30
0.0
 10
7.860580
 20
3.789599
 30
0.0
 10
7.849981
 20
4.049881
 30
0.0
 10
7.849981
 20
4.049938
 30
0.0
 10
7.860493
 20
4.303910
 30
0.0
 10
7.890916
 20
4.553272
 30
0.0
 10
7.940579
 20
4.797100
 30
0.0
 10
8.008808
 20
5.034471
 30
0.0
 10
8.094930
 20
5.264460
 30
0.0
 10
8.198272
 20
5.486145
 30
0.0
 10
8.318161
 20
5.698602
 30
0.0
 10
8.453925
 20
5.900907
 30
0.0
 10
8.604890
 20
6.092136
 30
0.0
 10
8.770383
 20
6.271365
 30
0.0
 10
8.949732
 20
6.437672
 30
0.0
 10
9.142264
 20
6.590132
 30
0.0
 10
9.347304
 20
6.727823
 30
0.0
 10
9.564182
 20
6.849819
 30
0.0
 10
9.792223
 20
6.955198
 30
0.0
 10
10.030754
 20
7.043037
 30
0.0
 10
10.099986
 20
7.065416
 30
0.0
 10
10.099986
 20
8.099992
 30
0.0
 10
9.900004
 20
8.099992
 30
0.0
 10
9.900004
 20
8.099993
 30
0.0
  0
LWPOLYLINE
  5
103
100
AcDbEntity
  8
Layer_1
 62
7
100
AcDbPolyline
 90
72
 70
0
 10
11.899980
 20
8.099993
 30
0.0
 10
11.899980
 20
7.067622
 30
0.0
 10
11.969212
 20
7.045243
 30
0.0
 10
12.207880
 20
6.957348
 30
0.0
 10
12.436044
 20
6.851893
 30
0.0
 10
12.653028
 20
6.729803
 30
0.0
 10
12.858160
 20
6.592004
 30
0.0
 10
13.050765
 20
6.439421
 30
0.0
 10
13.230170
 20
6.272979
 30
0.0
 10
13.395701
 20
6.093605
 30
0.0
 10
13.546684
 20
5.902222
 30
0.0
 10
13.682446
 20
5.699758
 30
0.0
 10
13.802312
 20
5.487136
 30
0.0
 10
13.905610
 20
5.265283
 30
0.0
 10
13.991665
 20
5.035125
 30
0.0
 10
14.059804
 20
4.797585
 30
0.0
 10
14.109353
 20
4.553591
 30
0.0
 10
14.139638
 20
4.304067
 30
0.0
 10
14.149985
 20
4.049939
 30
0.0
 10
14.139391
 20
3.789653
 30
0.0
 10
14.108166
 20
3.535248
 30
0.0
 10
14.057140
 20
3.287547
 30
0.0
 10
13.987142
 20
3.047374
 30
0.0
 10
13.899002
 20
2.815551
 30
0.0
 10
13.793549
 20
2.592902
 30
0.0
 10
13.671613
 20
2.380251
 30
0.0
 10
13.534023
 20
2.178421
 30
0.0
 10
13.381607
 20
1.988236
 30
0.0
 10
13.215196
 20
1.810519
 30
0.0
 10
13.035619
 20
1.646093
 30
0.0
 10
12.843705
 20
1.495782
 30
0.0
 10
12.640284
 20
1.360409
 30
0.0
 10
12.426184
 20
1.240798
 30
0.0
 10
12.202236
 20
1.137772
 30
0.0
 10
11.969268
 20
1.052155
 30
0.0
 10
12.030781
 20
0.861875
 30
0.0
 10
12.278649
 20
0.952984
 30
0.0
 10
12.516898
 20
1.062635
 30
0.0
 10
12.744648
 20
1.189945
 30
0.0
 10
12.961020
 20
1.334029
 30
0.0
 10
13.165135
 20
1.494006
 30
0.0
 10
13.356114
 20
1.668991
 30
0.0
 10
13.533077
 20
1.858101
 30
0.0
 10
13.695145
 20
2.060454
 30
0.0
 10
13.841440
 20
2.275165
 30
0.0
 10
13.971080
 20
2.501352
 30
0.0
 10
14.083188
 20
2.738131
 30
0.0
 10
14.176885
 20
2.984619
 30
0.0
 10
14.251290
 20
3.239932
 30
0.0
 10
14.305524
 20
3.503188
 30
0.0
 10
14.338709
 20
3.773503
 30
0.0
 10
14.349965
 20
4.049994
 30
0.0
 10
14.349965
 20
4.050050
 30
0.0
 10
14.339308
 20
4.315590
 30
0.0
 10
14.308117
 20
4.576414
 30
0.0
 10
14.257078
 20
4.831588
 30
0.0
 10
14.186878
 20
5.080179
 30
0.0
 10
14.098205
 20
5.321253
 30
0.0
 10
13.991744
 20
5.553877
 30
0.0
 10
13.868184
 20
5.777118
 30
0.0
 10
13.728210
 20
5.990041
 30
0.0
 10
13.572509
 20
6.191714
 30
0.0
 10
13.401769
 20
6.381204
 30
0.0
 10
13.216676
 20
6.557575
 30
0.0
 10
13.017917
 20
6.719896
 30
0.0
 10
12.806179
 20
6.867233
 30
0.0
 10
12.582149
 20
6.998652
 30
0.0
 10
12.346514
 20
7.113219
 30
0.0
 10
12.099960
 20
7.210002
 30
0.0
 10
12.099960
 20
8.099995
 30
0.0
 10
11.899980
 20
8.099995
 30
0.0
 10
11.899980
 20
8.099993
 30
0.0
  0
LWPOLYLINE
  5
104
100
AcDbEntity
  8
Layer_1
 62
7
100
AcDbPolyline
 90
74
 70
0
 10
16.850003
 20
8.099993
 30
0.0
 10
16.850003
 20
7.207796
 30
0.0
 10
16.603588
 20
7.111074
 30
0.0
 10
16.368078
 20
6.996586
 30
0.0
 10
16.144157
 20
6.865264
 30
0.0
 10
15.932511
 20
6.718039
 30
0.0
 10
15.733828
 20
6.555844
 30
0.0
 10
15.548792
 20
6.379610
 30
0.0
 10
15.378090
 20
6.190268
 30
0.0
 10
15.222408
 20
5.988752
 30
0.0
 10
15.082432
 20
5.775991
 30
0.0
 10
14.958848
 20
5.552918
 30
0.0
 10
14.852342
 20
5.320465
 30
0.0
 10
14.763600
 20
5.079564
 30
0.0
 10
14.693309
 20
4.831145
 30
0.0
 10
14.642154
 20
4.576141
 30
0.0
 10
14.610821
 20
4.315484
 30
0.0
 10
14.599997
 20
4.050104
 30
0.0
 10
14.599997
 20
4.050048
 30
0.0
 10
14.599997
 20
4.049991
 30
0.0
 10
14.611254
 20
3.773499
 30
0.0
 10
14.644440
 20
3.503182
 30
0.0
 10
14.698677
 20
3.239925
 30
0.0
 10
14.773085
 20
2.984611
 30
0.0
 10
14.866785
 20
2.738122
 30
0.0
 10
14.978897
 20
2.501343
 30
0.0
 10
15.108543
 20
2.275156
 30
0.0
 10
15.254842
 20
2.060445
 30
0.0
 10
15.416915
 20
1.858093
 30
0.0
 10
15.593882
 20
1.668983
 30
0.0
 10
15.784866
 20
1.493999
 30
0.0
 10
15.988985
 20
1.334023
 30
0.0
 10
16.205361
 20
1.189939
 30
0.0
 10
16.433114
 20
1.062631
 30
0.0
 10
16.671365
 20
0.952981
 30
0.0
 10
16.919234
 20
0.861872
 30
0.0
 10
16.980750
 20
1.052152
 30
0.0
 10
16.747784
 20
1.137767
 30
0.0
 10
16.523835
 20
1.240791
 30
0.0
 10
16.309735
 20
1.360399
 30
0.0
 10
16.106312
 20
1.495768
 30
0.0
 10
15.914395
 20
1.646076
 30
0.0
 10
15.734815
 20
1.810498
 30
0.0
 10
15.568400
 20
1.988212
 30
0.0
 10
15.415981
 20
2.178393
 30
0.0
 10
15.278385
 20
2.380219
 30
0.0
 10
15.156444
 20
2.592866
 30
0.0
 10
15.050986
 20
2.815510
 30
0.0
 10
14.962841
 20
3.047329
 30
0.0
 10
14.892838
 20
3.287499
 30
0.0
 10
14.841807
 20
3.535197
 30
0.0
 10
14.810577
 20
3.789599
 30
0.0
 10
14.799977
 20
4.049881
 30
0.0
 10
14.799977
 20
4.049938
 30
0.0
 10
14.810489
 20
4.303910
 30
0.0
 10
14.840912
 20
4.553272
 30
0.0
 10
14.890575
 20
4.797100
 30
0.0
 10
14.958804
 20
5.034471
 30
0.0
 10
15.044926
 20
5.264460
 30
0.0
 10
15.148268
 20
5.486145
 30
0.0
 10
15.268157
 20
5.698602
 30
0.0
 10
15.403921
 20
5.900907
 30
0.0
 10
15.554886
 20
6.092136
 30
0.0
 10
15.720379
 20
6.271365
 30
0.0
 10
15.899728
 20
6.437672
 30
0.0
 10
16.092260
 20
6.590132
 30
0.0
 10
16.297300
 20
6.727823
 30
0.0
 10
16.514178
 20
6.849819
 30
0.0
 10
16.742219
 20
6.955198
 30
0.0
 10
16.980750
 20
7.043037
 30
0.0
 10
17.049985
 20
7.065416
 30
0.0
 10
17.049985
 20
8.099992
 30
0.0
 10
16.850003
 20
8.099992
 30
0.0
 10
16.850003
 20
8.099993
 30
0.0
  0
LWPOLYLINE
  5
105
100
AcDbEntity
  8
Layer_1
 62
7
100
AcDbPolyline
 90
72
 70
0
 10
18.849976
 20
8.099993
 30
0.0
 10
18.849976
 20
7.067622
 30
0.0
 10
18.919211
 20
7.045243
 30
0.0
 10
19.157879
 20
6.957348
 30
0.0
 10
19.386043
 20
6.851893
 30
0.0
 10
19.603027
 20
6.729803
 30
0.0
 10
19.808158
 20
6.592004
 30
0.0
 10
20.000763
 20
6.439421
 30
0.0
 10
20.180168
 20
6.272979
 30
0.0
 10
20.345699
 20
6.093605
 30
0.0
 10
20.496683
 20
5.902222
 30
0.0
 10
20.632445
 20
5.699758
 30
0.0
 10
20.752311
 20
5.487136
 30
0.0
 10
20.855609
 20
5.265283
 30
0.0
 10
20.941664
 20
5.035125
 30
0.0
 10
21.009803
 20
4.797585
 30
0.0
 10
21.059352
 20
4.553591
 30
0.0
 10
21.089637
 20
4.304067
 30
0.0
 10
21.099984
 20
4.049939
 30
0.0
 10
21.089390
 20
3.789653
 30
0.0
 10
21.058165
 20
3.535248
 30
0.0
 10
21.007139
 20
3.287547
 30
0.0
 10
20.937141
 20
3.047374
 30
0.0
 10
20.849001
 20
2.815551
 30
0.0
 10
20.743548
 20
2.592902
 30
0.0
 10
20.621611
 20
2.380251
 30
0.0
 10
20.484020
 20
2.178421
 30
0.0
 10
20.331604
 20
1.988236
 30
0.0
 10
20.165193
 20
1.810519
 30
0.0
 10
19.985615
 20
1.646093
 30
0.0
 10
19.793701
 20
1.495782
 30
0.0
 10
19.590279
 20
1.360409
 30
0.0
 10
19.376180
 20
1.240798
 30
0.0
 10
19.152232
 20
1.137772
 30
0.0
 10
18.919264
 20
1.052155
 30
0.0
 10
18.980780
 20
0.861875
 30
0.0
 10
19.228647
 20
0.952984
 30
0.0
 10
19.466895
 20
1.062635
 30
0.0
 10
19.694645
 20
1.189945
 30
0.0
 10
19.911017
 20
1.334029
 30
0.0
 10
20.115132
 20
1.494006
 30
0.0
 10
20.306111
 20
1.668991
 30
0.0
 10
20.483075
 20
1.858101
 30
0.0
 10
20.645143
 20
2.060454
 30
0.0
 10
20.791438
 20
2.275165
 30
0.0
 10
20.921079
 20
2.501352
 30
0.0
 10
21.033187
 20
2.738131
 30
0.0
 10
21.126884
 20
2.984619
 30
0.0
 10
21.201289
 20
3.239932
 30
0.0
 10
21.255524
 20
3.503188
 30
0.0
 10
21.288708
 20
3.773503
 30
0.0
 10
21.299964
 20
4.049994
 30
0.0
 10
21.299964
 20
4.050050
 30
0.0
 10
21.289307
 20
4.315590
 30
0.0
 10
21.258116
 20
4.576414
 30
0.0
 10
21.207077
 20
4.831588
 30
0.0
 10
21.136877
 20
5.080179
 30
0.0
 10
21.048203
 20
5.321253
 30
0.0
 10
20.941743
 20
5.553877
 30
0.0
 10
20.818182
 20
5.777118
 30
0.0
 10
20.678208
 20
5.990041
 30
0.0
 10
20.522508
 20
6.191714
 30
0.0
 10
20.351768
 20
6.381204
 30
0.0
 10
20.166675
 20
6.557575
 30
0.0
 10
19.967916
 20
6.719896
 30
0.0
 10
19.756178
 20
6.867233
 30
0.0
 10
19.532148
 20
6.998652
 30
0.0
 10
19.296513
 20
7.113219
 30
0.0
 10
19.049959
 20
7.210002
 30
0.0
 10
19.049959
 20
8.099995
 30
0.0
 10
18.849976
 20
8.099995
 30
0.0
 10
18.849976
 20
8.099993
 30
0.0
  0
ENDSEC
  0
SECTION
  2
OBJECTS
  0
DICTIONARY
  5
C
330
0
100
AcDbDictionary
  3
ACAD_GROUP
350
D
  3
ACAD_MLINESTYLE
350
17
  0
DICTIONARY
  5
D
330
C
100
AcDbDictionary
  0
DICTIONARY
  5
1A
330
C
100
AcDbDictionary
  0
DICTIONARY
  5
17
330
C
100
AcDbDictionary
  3
STANDARD
350
18
  0
DICTIONARY
  5
19
330
C
100
AcDbDictionary
  0
ENDSEC
  0
EOF
