  0
SECTION
  2
HEADER
  9
$ACADVER
  1
AC1014
  9
$HANDSEED
  5
FFFF
  9
$MEASUREMENT
 70
     1
  0
ENDSEC
  0
SECTION
  2
TABLES
  0
TABLE
  2
VPORT
  5
8
330
0
100
AcDbSymbolTable
 70
     4
  0
VPORT
  5
2E
330
8
100
AcDbSymbolTableRecord
100
AcDbViewportTableRecord
  2
*ACTIVE
 70
     0
 10
0.0
 20
0.0
 11
1.0
 21
1.0
 12
210.0
 22
148.5
 13
0.0
 23
0.0
 14
10.0
 24
10.0
 15
10.0
 25
10.0
 16
0.0
 26
0.0
 36
1.0
 17
0.0
 27
0.0
 37
0.0
 40
341.0
 41
1.24
 42
50.0
 43
0.0
 44
0.0
 50
0.0
 51
0.0
 71
     0
 72
   100
 73
     1
 74
     3
 75
     0
 76
     0
 77
     0
 78
     0
  0
ENDTAB
  0
TABLE
  2
LTYPE
  5
5
330
0
100
AcDbSymbolTable
 70
     1
  0
LTYPE
  5
14
330
5
100
AcDbSymbolTableRecord
100
AcDbLinetypeTableRecord
  2
BYBLOCK
 70
     0
  3

 72
    65
 73
     0
 40
0.0
  0
LTYPE
  5
15
330
5
100
AcDbSymbolTableRecord
100
AcDbLinetypeTableRecord
  2
BYLAYER
 70
     0
  3

 72
    65
 73
     0
 40
0.0
  0
LTYPE
  5
16
330
5
100
AcDbSymbolTableRecord
100
AcDbLinetypeTableRecord
  2
CONTINUOUS
 70
     0
  3
Solid line
 72
    65
 73
     0
 40
0.0
  0
ENDTAB
  0
TABLE
  2
LAYER
  5
2
100
AcDbSymbolTable
 70
2
  0
LAYER
  5
50
100
AcDbSymbolTableRecord
100
AcDbLayerTableRecord
  2
0
 70
0
  6
CONTINUOUS
  0
LAYER
  5
51
100
AcDbSymbolTableRecord
100
AcDbLayerTableRecord
  2
Layer_1
 70
0
  6
CONTINUOUS
  0
ENDTAB
  0
TABLE
  2
STYLE
  5
3
330
0
100
AcDbSymbolTable
 70
     1
  0
STYLE
  5
11
330
3
100
AcDbSymbolTableRecord
100
AcDbTextStyleTableRecord
  2
STANDARD
 70
     0
 40
0.0
 41
1.0
 50
0.0
 71
     0
 42
2.5
  3
txt
  4

  0
ENDTAB
  0
TABLE
  2
VIEW
  5
6
330
0
100
AcDbSymbolTable
 70
     0
  0
ENDTAB
  0
TABLE
  2
UCS
  5
7
330
0
100
AcDbSymbolTable
 70
     0
  0
ENDTAB
  0
TABLE
  2
APPID
  5
9
330
0
100
AcDbSymbolTable
 70
     2
  0
APPID
  5
12
330
9
100
AcDbSymbolTableRecord
100
AcDbRegAppTableRecord
  2
ACAD
 70
     0
  0
ENDTAB
  0
TABLE
  2
DIMSTYLE
  5
A
330
0
100
AcDbSymbolTable
 70
     1
  0
DIMSTYLE
105
27
330
A
100
AcDbSymbolTableRecord
100
AcDbDimStyleTableRecord
  2
ISO-25
 70
     0
  3

  4

  5

  6

  7

 40
1.0
 41
2.5
 42
0.625
 43
3.75
 44
1.25
 45
0.0
 46
0.0
 47
0.0
 48
0.0
140
2.5
141
2.5
142
0.0
143
0.03937007874016
144
1.0
145
0.0
146
1.0
147
0.625
 71
     0
 72
     0
 73
     0
 74
     0
 75
     0
 76
     0
 77
     1
 78
     8
170
     0
171
     3
172
     1
173
     0
174
     0
175
     0
176
     0
177
     0
178
     0
270
     2
271
     2
272
     2
273
     2
274
     3
340
11
275
     0
280
     0
281
     0
282
     0
283
     0
284
     8
285
     0
286
     0
287
     3
288
     0
  0
ENDTAB
  0
TABLE
  2
BLOCK_RECORD
  5
1
330
0
100
AcDbSymbolTable
 70
     1
  0
BLOCK_RECORD
  5
1F
330
1
100
AcDbSymbolTableRecord
100
AcDbBlockTableRecord
  2
*MODEL_SPACE
  0
BLOCK_RECORD
  5
1B
330
1
100
AcDbSymbolTableRecord
100
AcDbBlockTableRecord
  2
*PAPER_SPACE
  0
ENDTAB
  0
ENDSEC
  0
SECTION
  2
BLOCKS
  0
BLOCK
  5
20
330
1F
100
AcDbEntity
  8
0
100
AcDbBlockBegin
  2
*MODEL_SPACE
 70
     0
 10
0.0
 20
0.0
 30
0.0
  3
*MODEL_SPACE
  1

  0
ENDBLK
  5
21
330
1F
100
AcDbEntity
  8
0
100
AcDbBlockEnd
  0
BLOCK
  5
1C
330
1B
100
AcDbEntity
 67
     1
  8
0
100
AcDbBlockBegin
  2
*PAPER_SPACE
  1

  0
ENDBLK
  5
1D
330
1B
100
AcDbEntity
 67
     1
  8
0
100
AcDbBlockEnd
  0
ENDSEC
  0
SECTION
  2
ENTITIES
  0
LWPOLYLINE
  5
100
100
AcDbEntity
  8
Layer_1
 62
7
100
AcDbPolyline
 90
154
 70
0
 10
3.767655
 20
5.728754
 30
0.0
 10
3.705742
 20
5.724605
 30
0.0
 10
3.646457
 20
5.710856
 30
0.0
 10
3.590735
 20
5.688178
 30
0.0
 10
3.539511
 20
5.657240
 30
0.0
 10
3.493722
 20
5.618713
 30
0.0
 10
3.454303
 20
5.573267
 30
0.0
 10
3.422189
 20
5.521571
 30
0.0
 10
3.398316
 20
5.464296
 30
0.0
 10
3.398232
 20
5.464099
 30
0.0
 10
3.398062
 20
5.464099
 30
0.0
 10
3.320300
 20
5.224736
 30
0.0
 10
3.160566
 20
5.243073
 30
0.0
 10
2.999931
 20
5.249956
 30
0.0
 10
2.781694
 20
5.239038
 30
0.0
 10
2.567049
 20
5.207295
 30
0.0
 10
2.357395
 20
5.155298
 30
0.0
 10
2.154131
 20
5.083617
 30
0.0
 10
1.958655
 20
4.992821
 30
0.0
 10
1.772367
 20
4.883481
 30
0.0
 10
1.596665
 20
4.756166
 30
0.0
 10
1.432949
 20
4.611447
 30
0.0
 10
1.229388
 20
4.759363
 30
0.0
 10
1.229190
 20
4.759533
 30
0.0
 10
1.180258
 20
4.789751
 30
0.0
 10
1.127652
 20
4.812193
 30
0.0
 10
1.072289
 20
4.826547
 30
0.0
 10
1.015087
 20
4.832499
 30
0.0
 10
1.015087
 20
4.832584
 30
0.0
 10
0.922186
 20
4.823827
 30
0.0
 10
0.835360
 20
4.793428
 30
0.0
 10
0.758288
 20
4.743199
 30
0.0
 10
0.694654
 20
4.674951
 30
0.0
 10
0.655615
 20
4.607980
 30
0.0
 10
0.631434
 20
4.536754
 30
0.0
 10
0.621771
 20
4.463421
 30
0.0
 10
0.626287
 20
4.390130
 30
0.0
 10
0.644640
 20
4.319031
 30
0.0
 10
0.676490
 20
4.252273
 30
0.0
 10
0.721497
 20
4.192004
 30
0.0
 10
0.779320
 20
4.140374
 30
0.0
 10
0.779489
 20
4.140205
 30
0.0
 10
0.779404
 20
4.140120
 30
0.0
 10
0.982182
 20
3.992782
 30
0.0
 10
0.881662
 20
3.755818
 30
0.0
 10
0.809055
 20
3.509736
 30
0.0
 10
0.764934
 20
3.256988
 30
0.0
 10
0.749875
 20
3.000026
 30
0.0
 10
0.765295
 20
2.743209
 30
0.0
 10
0.809741
 20
2.490643
 30
0.0
 10
0.882638
 20
2.244775
 30
0.0
 10
0.983410
 20
2.008053
 30
0.0
 10
0.779435
 20
1.859846
 30
0.0
 10
0.779181
 20
1.859734
 30
0.0
 10
0.721349
 20
1.808102
 30
0.0
 10
0.676335
 20
1.747829
 30
0.0
 10
0.644481
 20
1.681064
 30
0.0
 10
0.626126
 20
1.609958
 30
0.0
 10
0.621612
 20
1.536661
 30
0.0
 10
0.631278
 20
1.463321
 30
0.0
 10
0.655466
 20
1.392089
 30
0.0
 10
0.694514
 20
1.325114
 30
0.0
 10
0.746146
 20
1.267282
 30
0.0
 10
0.806419
 20
1.222269
 30
0.0
 10
0.873184
 20
1.190415
 30
0.0
 10
0.944289
 20
1.172060
 30
0.0
 10
1.017587
 20
1.167546
 30
0.0
 10
1.090927
 20
1.177212
 30
0.0
 10
1.162159
 20
1.201400
 30
0.0
 10
1.229133
 20
1.240448
 30
0.0
 10
1.229274
 20
1.240618
 30
0.0
 10
1.229444
 20
1.240618
 30
0.0
 10
1.431187
 20
1.387213
 30
0.0
 10
1.595147
 20
1.242542
 30
0.0
 10
1.771091
 20
1.115311
 30
0.0
 10
1.957619
 20
1.006091
 30
0.0
 10
2.153326
 20
0.915449
 30
0.0
 10
2.356810
 20
0.843956
 30
0.0
 10
2.566670
 20
0.792182
 30
0.0
 10
2.781502
 20
0.760697
 30
0.0
 10
2.999904
 20
0.750069
 30
0.0
 10
3.160518
 20
0.757200
 30
0.0
 10
3.320213
 20
0.775782
 30
0.0
 10
3.398140
 20
0.535923
 30
0.0
 10
3.398225
 20
0.535669
 30
0.0
 10
3.429457
 20
0.464721
 30
0.0
 10
3.472866
 20
0.403291
 30
0.0
 10
3.526513
 20
0.352369
 30
0.0
 10
3.588460
 20
0.312942
 30
0.0
 10
3.656767
 20
0.285998
 30
0.0
 10
3.729496
 20
0.272524
 30
0.0
 10
3.804708
 20
0.273508
 30
0.0
 10
3.880466
 20
0.289939
 30
0.0
 10
3.951421
 20
0.321173
 30
0.0
 10
4.012856
 20
0.364585
 30
0.0
 10
4.063782
 20
0.418237
 30
0.0
 10
4.103211
 20
0.480190
 30
0.0
 10
4.130155
 20
0.548504
 30
0.0
 10
4.143626
 20
0.621240
 30
0.0
 10
4.142635
 20
0.696459
 30
0.0
 10
4.126196
 20
0.772221
 30
0.0
 10
4.126055
 20
0.772419
 30
0.0
 10
4.126055
 20
0.772588
 30
0.0
 10
4.048582
 20
1.011000
 30
0.0
 10
4.271199
 20
1.145189
 30
0.0
 10
4.474907
 20
1.302482
 30
0.0
 10
4.658222
 20
1.480841
 30
0.0
 10
4.819663
 20
1.678227
 30
0.0
 10
4.957747
 20
1.892604
 30
0.0
 10
5.070993
 20
2.121933
 30
0.0
 10
5.157917
 20
2.364176
 30
0.0
 10
5.217038
 20
2.617297
 30
0.0
 10
5.466488
 20
2.617297
 30
0.0
 10
5.466714
 20
2.617297
 30
0.0
 10
5.543847
 20
2.625075
 30
0.0
 10
5.615688
 20
2.647378
 30
0.0
 10
5.680700
 20
2.682666
 30
0.0
 10
5.737342
 20
2.729401
 30
0.0
 10
5.784077
 20
2.786044
 30
0.0
 10
5.819366
 20
2.851055
 30
0.0
 10
5.841669
 20
2.922897
 30
0.0
 10
5.849448
 20
3.000029
 30
0.0
 10
5.841669
 20
3.077162
 30
0.0
 10
5.819366
 20
3.149003
 30
0.0
 10
5.784078
 20
3.214015
 30
0.0
 10
5.737343
 20
3.270657
 30
0.0
 10
5.680700
 20
3.317392
 30
0.0
 10
5.615688
 20
3.352681
 30
0.0
 10
5.543847
 20
3.374984
 30
0.0
 10
5.466714
 20
3.382762
 30
0.0
 10
5.466488
 20
3.382762
 30
0.0
 10
5.214723
 20
3.382762
 30
0.0
 10
5.155816
 20
3.635734
 30
0.0
 10
5.069140
 20
3.877866
 30
0.0
 10
4.956169
 20
4.107125
 30
0.0
 10
4.818382
 20
4.321475
 30
0.0
 10
4.657255
 20
4.518882
 30
0.0
 10
4.474266
 20
4.697311
 30
0.0
 10
4.270892
 20
4.854727
 30
0.0
 10
4.048609
 20
4.989096
 30
0.0
 10
4.126083
 20
5.227591
 30
0.0
 10
4.126168
 20
5.227816
 30
0.0
 10
4.142598
 20
5.303574
 30
0.0
 10
4.143583
 20
5.378786
 30
0.0
 10
4.130109
 20
5.451515
 30
0.0
 10
4.103164
 20
5.519822
 30
0.0
 10
4.063737
 20
5.581769
 30
0.0
 10
4.012815
 20
5.635415
 30
0.0
 10
3.951386
 20
5.678824
 30
0.0
 10
3.880437
 20
5.710057
 30
0.0
 10
3.824731
 20
5.723658
 30
0.0
 10
3.767619
 20
5.728784
 30
0.0
 10
3.767534
 20
5.728784
 30
0.0
 10
3.767655
 20
5.728754
 30
0.0
  0
LWPOLYLINE
  5
101
100
AcDbEntity
  8
Layer_1
 62
7
100
AcDbPolyline
 90
66
 70
0
 10
2.999997
 20
4.949975
 30
0.0
 10
3.199371
 20
4.939906
 30
0.0
 10
3.392986
 20
4.910355
 30
0.0
 10
3.579861
 20
4.862302
 30
0.0
 10
3.759017
 20
4.796728
 30
0.0
 10
3.929472
 20
4.714614
 30
0.0
 10
4.090247
 20
4.616938
 30
0.0
 10
4.240362
 20
4.504682
 30
0.0
 10
4.378837
 20
4.378825
 30
0.0
 10
4.504691
 20
4.240348
 30
0.0
 10
4.616944
 20
4.090230
 30
0.0
 10
4.714617
 20
3.929453
 30
0.0
 10
4.796728
 20
3.758996
 30
0.0
 10
4.862298
 20
3.579839
 30
0.0
 10
4.910347
 20
3.392963
 30
0.0
 10
4.939894
 20
3.199348
 30
0.0
 10
4.949960
 20
2.999973
 30
0.0
 10
4.939891
 20
2.800602
 30
0.0
 10
4.910340
 20
2.606989
 30
0.0
 10
4.862289
 20
2.420117
 30
0.0
 10
4.796717
 20
2.240963
 30
0.0
 10
4.714604
 20
2.070510
 30
0.0
 10
4.616931
 20
1.909736
 30
0.0
 10
4.504677
 20
1.759621
 30
0.0
 10
4.378823
 20
1.621147
 30
0.0
 10
4.240349
 20
1.495293
 30
0.0
 10
4.090235
 20
1.383040
 30
0.0
 10
3.929461
 20
1.285367
 30
0.0
 10
3.759007
 20
1.203254
 30
0.0
 10
3.579853
 20
1.137682
 30
0.0
 10
3.392981
 20
1.089631
 30
0.0
 10
3.199368
 20
1.060080
 30
0.0
 10
2.999997
 20
1.050011
 30
0.0
 10
2.800622
 20
1.060076
 30
0.0
 10
2.607007
 20
1.089624
 30
0.0
 10
2.420131
 20
1.137672
 30
0.0
 10
2.240974
 20
1.203243
 30
0.0
 10
2.070517
 20
1.285354
 30
0.0
 10
1.909740
 20
1.383026
 30
0.0
 10
1.759623
 20
1.495280
 30
0.0
 10
1.621145
 20
1.621134
 30
0.0
 10
1.495289
 20
1.759608
 30
0.0
 10
1.383032
 20
1.909723
 30
0.0
 10
1.285357
 20
2.070498
 30
0.0
 10
1.203242
 20
2.240954
 30
0.0
 10
1.137668
 20
2.420109
 30
0.0
 10
1.089615
 20
2.606984
 30
0.0
 10
1.060064
 20
2.800599
 30
0.0
 10
1.049995
 20
2.999973
 30
0.0
 10
1.059535
 20
3.192708
 30
0.0
 10
1.087806
 20
3.382178
 30
0.0
 10
1.134279
 20
3.567105
 30
0.0
 10
1.198424
 20
3.746210
 30
0.0
 10
1.279712
 20
3.918214
 30
0.0
 10
1.377612
 20
4.081840
 30
0.0
 10
1.491595
 20
4.235808
 30
0.0
 10
1.621131
 20
4.378839
 30
0.0
 10
1.764162
 20
4.508375
 30
0.0
 10
1.918130
 20
4.622358
 30
0.0
 10
2.081756
 20
4.720258
 30
0.0
 10
2.253760
 20
4.801546
 30
0.0
 10
2.432865
 20
4.865691
 30
0.0
 10
2.617792
 20
4.912164
 30
0.0
 10
2.807262
 20
4.940435
 30
0.0
 10
2.999997
 20
4.949975
 30
0.0
 10
2.999997
 20
4.949975
 30
0.0
  0
LWPOLYLINE
  5
102
100
AcDbEntity
  8
Layer_1
 62
7
100
AcDbPolyline
 90
8
 70
1
 10
6.749942
 20
5.999948
 30
0.0
 10
6.749942
 20
5.249944
 30
0.0
 10
6.728693
 20
5.249944
 30
0.0
 10
6.728693
 20
5.978659
 30
0.0
 10
5.999936
 20
5.978659
 30
0.0
 10
5.999936
 20
5.999948
 30
0.0
 10
6.749942
 20
5.999948
 30
0.0
 10
6.749942
 20
5.999948
 30
0.0
  0
LWPOLYLINE
  5
103
100
AcDbEntity
  8
Layer_1
 62
7
100
AcDbPolyline
 90
9
 70
1
 10
0.750004
 20
5.999948
 30
0.0
 10
0.750004
 20
5.978659
 30
0.0
 10
0.021249
 20
5.978659
 30
0.0
 10
0.021249
 20
5.249944
 30
0.0
 10
0.000000
 20
5.249944
 30
0.0
 10
0.000000
 20
5.989282
 30
0.0
 10
0.000000
 20
5.999948
 30
0.0
 10
0.750004
 20
5.999948
 30
0.0
 10
0.750004
 20
5.999948
 30
0.0
  0
LWPOLYLINE
  5
104
100
AcDbEntity
  8
Layer_1
 62
7
100
AcDbPolyline
 90
8
 70
1
 10
6.749935
 20
0.599979
 30
0.0
 10
6.749935
 20
0.000000
 30
0.0
 10
5.999930
 20
0.000000
 30
0.0
 10
5.999930
 20
0.021249
 30
0.0
 10
6.728686
 20
0.021249
 30
0.0
 10
6.728686
 20
0.599979
 30
0.0
 10
6.749935
 20
0.599979
 30
0.0
 10
6.749935
 20
0.599979
 30
0.0
  0
LWPOLYLINE
  5
105
100
AcDbEntity
  8
Layer_1
 62
7
100
AcDbPolyline
 90
8
 70
1
 10
0.021249
 20
0.599979
 30
0.0
 10
0.021249
 20
0.021249
 30
0.0
 10
0.750004
 20
0.021249
 30
0.0
 10
0.750004
 20
0.000000
 30
0.0
 10
0.000000
 20
0.000000
 30
0.0
 10
0.000000
 20
0.599979
 30
0.0
 10
0.021249
 20
0.599979
 30
0.0
 10
0.021249
 20
0.599979
 30
0.0
  0
ENDSEC
  0
SECTION
  2
OBJECTS
  0
DICTIONARY
  5
C
330
0
100
AcDbDictionary
  3
ACAD_GROUP
350
D
  3
ACAD_MLINESTYLE
350
17
  0
DICTIONARY
  5
D
330
C
100
AcDbDictionary
  0
DICTIONARY
  5
1A
330
C
100
AcDbDictionary
  0
DICTIONARY
  5
17
330
C
100
AcDbDictionary
  3
STANDARD
350
18
  0
DICTIONARY
  5
19
330
C
100
AcDbDictionary
  0
ENDSEC
  0
EOF
