  0
SECTION
  2
HEADER
  9
$ACADVER
  1
AC1014
  9
$HANDSEED
  5
FFFF
  9
$MEASUREMENT
 70
     1
  0
ENDSEC
  0
SECTION
  2
TABLES
  0
TABLE
  2
VPORT
  5
8
330
0
100
AcDbSymbolTable
 70
     4
  0
VPORT
  5
2E
330
8
100
AcDbSymbolTableRecord
100
AcDbViewportTableRecord
  2
*ACTIVE
 70
     0
 10
0.0
 20
0.0
 11
1.0
 21
1.0
 12
210.0
 22
148.5
 13
0.0
 23
0.0
 14
10.0
 24
10.0
 15
10.0
 25
10.0
 16
0.0
 26
0.0
 36
1.0
 17
0.0
 27
0.0
 37
0.0
 40
341.0
 41
1.24
 42
50.0
 43
0.0
 44
0.0
 50
0.0
 51
0.0
 71
     0
 72
   100
 73
     1
 74
     3
 75
     0
 76
     0
 77
     0
 78
     0
  0
ENDTAB
  0
TABLE
  2
LTYPE
  5
5
330
0
100
AcDbSymbolTable
 70
     1
  0
LTYPE
  5
14
330
5
100
AcDbSymbolTableRecord
100
AcDbLinetypeTableRecord
  2
BYBLOCK
 70
     0
  3

 72
    65
 73
     0
 40
0.0
  0
LTYPE
  5
15
330
5
100
AcDbSymbolTableRecord
100
AcDbLinetypeTableRecord
  2
BYLAYER
 70
     0
  3

 72
    65
 73
     0
 40
0.0
  0
LTYPE
  5
16
330
5
100
AcDbSymbolTableRecord
100
AcDbLinetypeTableRecord
  2
CONTINUOUS
 70
     0
  3
Solid line
 72
    65
 73
     0
 40
0.0
  0
ENDTAB
  0
TABLE
  2
LAYER
  5
2
100
AcDbSymbolTable
 70
2
  0
LAYER
  5
50
100
AcDbSymbolTableRecord
100
AcDbLayerTableRecord
  2
0
 70
0
  6
CONTINUOUS
  0
LAYER
  5
51
100
AcDbSymbolTableRecord
100
AcDbLayerTableRecord
  2
Layer_1
 70
0
  6
CONTINUOUS
  0
ENDTAB
  0
TABLE
  2
STYLE
  5
3
330
0
100
AcDbSymbolTable
 70
     1
  0
STYLE
  5
11
330
3
100
AcDbSymbolTableRecord
100
AcDbTextStyleTableRecord
  2
STANDARD
 70
     0
 40
0.0
 41
1.0
 50
0.0
 71
     0
 42
2.5
  3
txt
  4

  0
ENDTAB
  0
TABLE
  2
VIEW
  5
6
330
0
100
AcDbSymbolTable
 70
     0
  0
ENDTAB
  0
TABLE
  2
UCS
  5
7
330
0
100
AcDbSymbolTable
 70
     0
  0
ENDTAB
  0
TABLE
  2
APPID
  5
9
330
0
100
AcDbSymbolTable
 70
     2
  0
APPID
  5
12
330
9
100
AcDbSymbolTableRecord
100
AcDbRegAppTableRecord
  2
ACAD
 70
     0
  0
ENDTAB
  0
TABLE
  2
DIMSTYLE
  5
A
330
0
100
AcDbSymbolTable
 70
     1
  0
DIMSTYLE
105
27
330
A
100
AcDbSymbolTableRecord
100
AcDbDimStyleTableRecord
  2
ISO-25
 70
     0
  3

  4

  5

  6

  7

 40
1.0
 41
2.5
 42
0.625
 43
3.75
 44
1.25
 45
0.0
 46
0.0
 47
0.0
 48
0.0
140
2.5
141
2.5
142
0.0
143
0.03937007874016
144
1.0
145
0.0
146
1.0
147
0.625
 71
     0
 72
     0
 73
     0
 74
     0
 75
     0
 76
     0
 77
     1
 78
     8
170
     0
171
     3
172
     1
173
     0
174
     0
175
     0
176
     0
177
     0
178
     0
270
     2
271
     2
272
     2
273
     2
274
     3
340
11
275
     0
280
     0
281
     0
282
     0
283
     0
284
     8
285
     0
286
     0
287
     3
288
     0
  0
ENDTAB
  0
TABLE
  2
BLOCK_RECORD
  5
1
330
0
100
AcDbSymbolTable
 70
     1
  0
BLOCK_RECORD
  5
1F
330
1
100
AcDbSymbolTableRecord
100
AcDbBlockTableRecord
  2
*MODEL_SPACE
  0
BLOCK_RECORD
  5
1B
330
1
100
AcDbSymbolTableRecord
100
AcDbBlockTableRecord
  2
*PAPER_SPACE
  0
ENDTAB
  0
ENDSEC
  0
SECTION
  2
BLOCKS
  0
BLOCK
  5
20
330
1F
100
AcDbEntity
  8
0
100
AcDbBlockBegin
  2
*MODEL_SPACE
 70
     0
 10
0.0
 20
0.0
 30
0.0
  3
*MODEL_SPACE
  1

  0
ENDBLK
  5
21
330
1F
100
AcDbEntity
  8
0
100
AcDbBlockEnd
  0
BLOCK
  5
1C
330
1B
100
AcDbEntity
 67
     1
  8
0
100
AcDbBlockBegin
  2
*PAPER_SPACE
  1

  0
ENDBLK
  5
1D
330
1B
100
AcDbEntity
 67
     1
  8
0
100
AcDbBlockEnd
  0
ENDSEC
  0
SECTION
  2
ENTITIES
  0
LWPOLYLINE
  5
100
100
AcDbEntity
  8
Layer_1
 62
7
100
AcDbPolyline
 90
8
 70
1
 10
6.749943
 20
5.999948
 30
0.0
 10
6.749943
 20
5.249944
 30
0.0
 10
6.728694
 20
5.249944
 30
0.0
 10
6.728694
 20
5.978659
 30
0.0
 10
5.999937
 20
5.978659
 30
0.0
 10
5.999937
 20
5.999948
 30
0.0
 10
6.749943
 20
5.999948
 30
0.0
 10
6.749943
 20
5.999948
 30
0.0
  0
LWPOLYLINE
  5
101
100
AcDbEntity
  8
Layer_1
 62
7
100
AcDbPolyline
 90
9
 70
1
 10
0.750006
 20
5.999948
 30
0.0
 10
0.750006
 20
5.978659
 30
0.0
 10
0.021249
 20
5.978659
 30
0.0
 10
0.021249
 20
5.249944
 30
0.0
 10
0.000000
 20
5.249944
 30
0.0
 10
0.000000
 20
5.989283
 30
0.0
 10
0.000000
 20
5.999948
 30
0.0
 10
0.750006
 20
5.999948
 30
0.0
 10
0.750006
 20
5.999948
 30
0.0
  0
LWPOLYLINE
  5
102
100
AcDbEntity
  8
Layer_1
 62
7
100
AcDbPolyline
 90
8
 70
1
 10
6.749937
 20
0.599979
 30
0.0
 10
6.749937
 20
-0.000000
 30
0.0
 10
5.999932
 20
-0.000000
 30
0.0
 10
5.999932
 20
0.021249
 30
0.0
 10
6.728689
 20
0.021249
 30
0.0
 10
6.728689
 20
0.599979
 30
0.0
 10
6.749937
 20
0.599979
 30
0.0
 10
6.749937
 20
0.599979
 30
0.0
  0
LWPOLYLINE
  5
103
100
AcDbEntity
  8
Layer_1
 62
7
100
AcDbPolyline
 90
8
 70
1
 10
0.021249
 20
0.599979
 30
0.0
 10
0.021249
 20
0.021249
 30
0.0
 10
0.750006
 20
0.021249
 30
0.0
 10
0.750006
 20
-0.000000
 30
0.0
 10
0.000000
 20
-0.000000
 30
0.0
 10
0.000000
 20
0.599979
 30
0.0
 10
0.021249
 20
0.599979
 30
0.0
 10
0.021249
 20
0.599979
 30
0.0
  0
LWPOLYLINE
  5
104
100
AcDbEntity
  8
Layer_1
 62
7
100
AcDbPolyline
 90
22
 70
0
 10
3.771378
 20
5.555832
 30
0.0
 10
3.703074
 20
5.547540
 30
0.0
 10
3.642532
 20
5.518566
 30
0.0
 10
3.594199
 20
5.471997
 30
0.0
 10
3.562522
 20
5.410917
 30
0.0
 10
3.552865
 20
5.361279
 30
0.0
 10
3.555242
 20
5.311464
 30
0.0
 10
3.569293
 20
5.263613
 30
0.0
 10
3.594658
 20
5.219866
 30
0.0
 10
3.824846
 20
5.145783
 30
0.0
 10
3.870707
 20
5.166384
 30
0.0
 10
3.909862
 20
5.196813
 30
0.0
 10
3.940795
 20
5.235571
 30
0.0
 10
3.961988
 20
5.281161
 30
0.0
 10
3.971002
 20
5.322726
 30
0.0
 10
3.971541
 20
5.363992
 30
0.0
 10
3.949364
 20
5.441373
 30
0.0
 10
3.899792
 20
5.504793
 30
0.0
 10
3.866088
 20
5.528609
 30
0.0
 10
3.827161
 20
5.545745
 30
0.0
 10
3.771378
 20
5.555832
 30
0.0
 10
3.771378
 20
5.555832
 30
0.0
  0
LWPOLYLINE
  5
105
100
AcDbEntity
  8
Layer_1
 62
7
100
AcDbPolyline
 90
24
 70
0
 10
1.010285
 20
4.659776
 30
0.0
 10
0.995403
 20
4.659663
 30
0.0
 10
0.948526
 20
4.652316
 30
0.0
 10
0.905011
 20
4.634905
 30
0.0
 10
0.866439
 20
4.608279
 30
0.0
 10
0.834393
 20
4.573288
 30
0.0
 10
0.812975
 20
4.536543
 30
0.0
 10
0.799709
 20
4.497462
 30
0.0
 10
0.796889
 20
4.417015
 30
0.0
 10
0.824437
 20
4.341378
 30
0.0
 10
0.849133
 20
4.308312
 30
0.0
 10
0.880860
 20
4.279987
 30
0.0
 10
0.928018
 20
4.254264
 30
0.0
 10
0.979329
 20
4.241453
 30
0.0
 10
1.032214
 20
4.241858
 30
0.0
 10
1.084093
 20
4.255788
 30
0.0
 10
1.213353
 20
4.432949
 30
0.0
 10
1.210808
 20
4.486844
 30
0.0
 10
1.194961
 20
4.537539
 30
0.0
 10
1.166910
 20
4.582641
 30
0.0
 10
1.127749
 20
4.619758
 30
0.0
 10
1.072041
 20
4.648642
 30
0.0
 10
1.010285
 20
4.659776
 30
0.0
 10
1.010285
 20
4.659776
 30
0.0
  0
LWPOLYLINE
  5
106
100
AcDbEntity
  8
Layer_1
 62
7
100
AcDbPolyline
 90
22
 70
0
 10
5.466806
 20
3.209970
 30
0.0
 10
5.422099
 20
3.205085
 30
0.0
 10
5.379911
 20
3.190998
 30
0.0
 10
5.341635
 20
3.168345
 30
0.0
 10
5.308662
 20
3.137761
 30
0.0
 10
5.313458
 20
2.990917
 30
0.0
 10
5.309765
 20
2.860885
 30
0.0
 10
5.342644
 20
2.830834
 30
0.0
 10
5.380681
 20
2.808595
 30
0.0
 10
5.422520
 20
2.794779
 30
0.0
 10
5.466806
 20
2.789999
 30
0.0
 10
5.509124
 20
2.794262
 30
0.0
 10
5.548541
 20
2.806494
 30
0.0
 10
5.615292
 20
2.851487
 30
0.0
 10
5.660303
 20
2.918226
 30
0.0
 10
5.672545
 20
2.957639
 30
0.0
 10
5.676819
 20
2.999957
 30
0.0
 10
5.660836
 20
3.080327
 30
0.0
 10
5.615311
 20
3.148462
 30
0.0
 10
5.547176
 20
3.193987
 30
0.0
 10
5.466806
 20
3.209970
 30
0.0
 10
5.466806
 20
3.209970
 30
0.0
  0
LWPOLYLINE
  5
107
100
AcDbEntity
  8
Layer_1
 62
7
100
AcDbPolyline
 90
20
 70
0
 10
0.998379
 20
1.759888
 30
0.0
 10
0.936624
 20
1.748753
 30
0.0
 10
0.880915
 20
1.719870
 30
0.0
 10
0.825284
 20
1.659698
 30
0.0
 10
0.796917
 20
1.582816
 30
0.0
 10
0.800135
 20
1.500932
 30
0.0
 10
0.834448
 20
1.426513
 30
0.0
 10
0.862779
 20
1.394793
 30
0.0
 10
0.895849
 20
1.370105
 30
0.0
 10
0.971488
 20
1.342572
 30
0.0
 10
1.051932
 20
1.345406
 30
0.0
 10
1.091009
 20
1.358677
 30
0.0
 10
1.127749
 20
1.380100
 30
0.0
 10
1.163822
 20
1.413503
 30
0.0
 10
1.190841
 20
1.453803
 30
0.0
 10
1.207894
 20
1.499228
 30
0.0
 10
1.214070
 20
1.548001
 30
0.0
 10
1.069100
 20
1.749525
 30
0.0
 10
0.998379
 20
1.759888
 30
0.0
 10
0.998379
 20
1.759888
 30
0.0
  0
LWPOLYLINE
  5
108
100
AcDbEntity
  8
Layer_1
 62
7
100
AcDbPolyline
 90
22
 70
0
 10
3.848107
 20
0.845311
 30
0.0
 10
3.715996
 20
0.797746
 30
0.0
 10
3.580327
 20
0.758164
 30
0.0
 10
3.562543
 20
0.717990
 30
0.0
 10
3.553558
 20
0.675458
 30
0.0
 10
3.553520
 20
0.631986
 30
0.0
 10
3.562578
 20
0.588996
 30
0.0
 10
3.602617
 20
0.517499
 30
0.0
 10
3.666971
 20
0.466769
 30
0.0
 10
3.745840
 20
0.444530
 30
0.0
 10
3.827216
 20
0.454169
 30
0.0
 10
3.866143
 20
0.471304
 30
0.0
 10
3.899847
 20
0.495120
 30
0.0
 10
3.949419
 20
0.558541
 30
0.0
 10
3.971597
 20
0.635921
 30
0.0
 10
3.971057
 20
0.677187
 30
0.0
 10
3.962043
 20
0.718752
 30
0.0
 10
3.944091
 20
0.758910
 30
0.0
 10
3.918479
 20
0.794099
 30
0.0
 10
3.886165
 20
0.823254
 30
0.0
 10
3.848107
 20
0.845311
 30
0.0
 10
3.848107
 20
0.845311
 30
0.0
  0
ENDSEC
  0
SECTION
  2
OBJECTS
  0
DICTIONARY
  5
C
330
0
100
AcDbDictionary
  3
ACAD_GROUP
350
D
  3
ACAD_MLINESTYLE
350
17
  0
DICTIONARY
  5
D
330
C
100
AcDbDictionary
  0
DICTIONARY
  5
1A
330
C
100
AcDbDictionary
  0
DICTIONARY
  5
17
330
C
100
AcDbDictionary
  3
STANDARD
350
18
  0
DICTIONARY
  5
19
330
C
100
AcDbDictionary
  0
ENDSEC
  0
EOF
