  0
SECTION
  2
HEADER
  9
$ACADVER
  1
AC1014
  9
$HANDSEED
  5
FFFF
  9
$MEASUREMENT
 70
     1
  0
ENDSEC
  0
SECTION
  2
TABLES
  0
TABLE
  2
VPORT
  5
8
330
0
100
AcDbSymbolTable
 70
     4
  0
VPORT
  5
2E
330
8
100
AcDbSymbolTableRecord
100
AcDbViewportTableRecord
  2
*ACTIVE
 70
     0
 10
0.0
 20
0.0
 11
1.0
 21
1.0
 12
210.0
 22
148.5
 13
0.0
 23
0.0
 14
10.0
 24
10.0
 15
10.0
 25
10.0
 16
0.0
 26
0.0
 36
1.0
 17
0.0
 27
0.0
 37
0.0
 40
341.0
 41
1.24
 42
50.0
 43
0.0
 44
0.0
 50
0.0
 51
0.0
 71
     0
 72
   100
 73
     1
 74
     3
 75
     0
 76
     0
 77
     0
 78
     0
  0
ENDTAB
  0
TABLE
  2
LTYPE
  5
5
330
0
100
AcDbSymbolTable
 70
     1
  0
LTYPE
  5
14
330
5
100
AcDbSymbolTableRecord
100
AcDbLinetypeTableRecord
  2
BYBLOCK
 70
     0
  3

 72
    65
 73
     0
 40
0.0
  0
LTYPE
  5
15
330
5
100
AcDbSymbolTableRecord
100
AcDbLinetypeTableRecord
  2
BYLAYER
 70
     0
  3

 72
    65
 73
     0
 40
0.0
  0
LTYPE
  5
16
330
5
100
AcDbSymbolTableRecord
100
AcDbLinetypeTableRecord
  2
CONTINUOUS
 70
     0
  3
Solid line
 72
    65
 73
     0
 40
0.0
  0
ENDTAB
  0
TABLE
  2
LAYER
  5
2
100
AcDbSymbolTable
 70
2
  0
LAYER
  5
50
100
AcDbSymbolTableRecord
100
AcDbLayerTableRecord
  2
0
 70
0
  6
CONTINUOUS
  0
LAYER
  5
51
100
AcDbSymbolTableRecord
100
AcDbLayerTableRecord
  2
Layer_1
 70
0
  6
CONTINUOUS
  0
ENDTAB
  0
TABLE
  2
STYLE
  5
3
330
0
100
AcDbSymbolTable
 70
     1
  0
STYLE
  5
11
330
3
100
AcDbSymbolTableRecord
100
AcDbTextStyleTableRecord
  2
STANDARD
 70
     0
 40
0.0
 41
1.0
 50
0.0
 71
     0
 42
2.5
  3
txt
  4

  0
ENDTAB
  0
TABLE
  2
VIEW
  5
6
330
0
100
AcDbSymbolTable
 70
     0
  0
ENDTAB
  0
TABLE
  2
UCS
  5
7
330
0
100
AcDbSymbolTable
 70
     0
  0
ENDTAB
  0
TABLE
  2
APPID
  5
9
330
0
100
AcDbSymbolTable
 70
     2
  0
APPID
  5
12
330
9
100
AcDbSymbolTableRecord
100
AcDbRegAppTableRecord
  2
ACAD
 70
     0
  0
ENDTAB
  0
TABLE
  2
DIMSTYLE
  5
A
330
0
100
AcDbSymbolTable
 70
     1
  0
DIMSTYLE
105
27
330
A
100
AcDbSymbolTableRecord
100
AcDbDimStyleTableRecord
  2
ISO-25
 70
     0
  3

  4

  5

  6

  7

 40
1.0
 41
2.5
 42
0.625
 43
3.75
 44
1.25
 45
0.0
 46
0.0
 47
0.0
 48
0.0
140
2.5
141
2.5
142
0.0
143
0.03937007874016
144
1.0
145
0.0
146
1.0
147
0.625
 71
     0
 72
     0
 73
     0
 74
     0
 75
     0
 76
     0
 77
     1
 78
     8
170
     0
171
     3
172
     1
173
     0
174
     0
175
     0
176
     0
177
     0
178
     0
270
     2
271
     2
272
     2
273
     2
274
     3
340
11
275
     0
280
     0
281
     0
282
     0
283
     0
284
     8
285
     0
286
     0
287
     3
288
     0
  0
ENDTAB
  0
TABLE
  2
BLOCK_RECORD
  5
1
330
0
100
AcDbSymbolTable
 70
     1
  0
BLOCK_RECORD
  5
1F
330
1
100
AcDbSymbolTableRecord
100
AcDbBlockTableRecord
  2
*MODEL_SPACE
  0
BLOCK_RECORD
  5
1B
330
1
100
AcDbSymbolTableRecord
100
AcDbBlockTableRecord
  2
*PAPER_SPACE
  0
ENDTAB
  0
ENDSEC
  0
SECTION
  2
BLOCKS
  0
BLOCK
  5
20
330
1F
100
AcDbEntity
  8
0
100
AcDbBlockBegin
  2
*MODEL_SPACE
 70
     0
 10
0.0
 20
0.0
 30
0.0
  3
*MODEL_SPACE
  1

  0
ENDBLK
  5
21
330
1F
100
AcDbEntity
  8
0
100
AcDbBlockEnd
  0
BLOCK
  5
1C
330
1B
100
AcDbEntity
 67
     1
  8
0
100
AcDbBlockBegin
  2
*PAPER_SPACE
  1

  0
ENDBLK
  5
1D
330
1B
100
AcDbEntity
 67
     1
  8
0
100
AcDbBlockEnd
  0
ENDSEC
  0
SECTION
  2
ENTITIES
  0
LWPOLYLINE
  5
100
100
AcDbEntity
  8
Layer_1
 62
7
100
AcDbPolyline
 90
78
 70
0
 10
2.999382
 20
5.235081
 30
0.0
 10
2.770523
 20
5.223564
 30
0.0
 10
2.548352
 20
5.189757
 30
0.0
 10
2.333984
 20
5.134772
 30
0.0
 10
2.128532
 20
5.059726
 30
0.0
 10
1.933112
 20
4.965732
 30
0.0
 10
1.748838
 20
4.853906
 30
0.0
 10
1.576824
 20
4.725360
 30
0.0
 10
1.418186
 20
4.581211
 30
0.0
 10
1.274036
 20
4.422573
 30
0.0
 10
1.145491
 20
4.250559
 30
0.0
 10
1.033664
 20
4.066285
 30
0.0
 10
0.939670
 20
3.870865
 30
0.0
 10
0.864624
 20
3.665413
 30
0.0
 10
0.809640
 20
3.451044
 30
0.0
 10
0.775832
 20
3.228873
 30
0.0
 10
0.764315
 20
3.000014
 30
0.0
 10
0.775832
 20
2.771153
 30
0.0
 10
0.809640
 20
2.548980
 30
0.0
 10
0.864624
 20
2.334609
 30
0.0
 10
0.939670
 20
2.129154
 30
0.0
 10
1.033664
 20
1.933729
 30
0.0
 10
1.145491
 20
1.749450
 30
0.0
 10
1.274036
 20
1.577432
 30
0.0
 10
1.418186
 20
1.418788
 30
0.0
 10
1.576824
 20
1.274634
 30
0.0
 10
1.748838
 20
1.146084
 30
0.0
 10
1.933112
 20
1.034253
 30
0.0
 10
2.128532
 20
0.940255
 30
0.0
 10
2.333984
 20
0.865205
 30
0.0
 10
2.548352
 20
0.810218
 30
0.0
 10
2.770523
 20
0.776408
 30
0.0
 10
2.999382
 20
0.764891
 30
0.0
 10
3.181924
 20
0.772205
 30
0.0
 10
3.360364
 20
0.793773
 30
0.0
 10
3.534146
 20
0.829033
 30
0.0
 10
3.702709
 20
0.877424
 30
0.0
 10
3.865494
 20
0.938384
 30
0.0
 10
4.021944
 20
1.011350
 30
0.0
 10
4.171497
 20
1.095761
 30
0.0
 10
4.313596
 20
1.191056
 30
0.0
 10
4.447682
 20
1.296673
 30
0.0
 10
4.573195
 20
1.412050
 30
0.0
 10
4.689577
 20
1.536625
 30
0.0
 10
4.796268
 20
1.669836
 30
0.0
 10
4.892709
 20
1.811122
 30
0.0
 10
4.978342
 20
1.959921
 30
0.0
 10
5.052608
 20
2.115672
 30
0.0
 10
5.114947
 20
2.277811
 30
0.0
 10
7.080139
 20
1.750243
 30
0.0
 10
7.139857
 20
1.746421
 30
0.0
 10
7.194498
 20
1.765164
 30
0.0
 10
7.238110
 20
1.803042
 30
0.0
 10
7.264741
 20
1.856628
 30
0.0
 10
7.268474
 20
1.916350
 30
0.0
 10
7.249650
 20
1.970961
 30
0.0
 10
7.211707
 20
2.014515
 30
0.0
 10
7.158081
 20
2.041064
 30
0.0
 10
5.192613
 20
2.568743
 30
0.0
 10
5.223724
 20
2.781350
 30
0.0
 10
5.234450
 20
3.000014
 30
0.0
 10
5.222933
 20
3.228873
 30
0.0
 10
5.189126
 20
3.451044
 30
0.0
 10
5.134141
 20
3.665413
 30
0.0
 10
5.059095
 20
3.870865
 30
0.0
 10
4.965101
 20
4.066285
 30
0.0
 10
4.853275
 20
4.250559
 30
0.0
 10
4.724730
 20
4.422573
 30
0.0
 10
4.580581
 20
4.581211
 30
0.0
 10
4.421942
 20
4.725360
 30
0.0
 10
4.249929
 20
4.853906
 30
0.0
 10
4.065654
 20
4.965732
 30
0.0
 10
3.870234
 20
5.059726
 30
0.0
 10
3.664782
 20
5.134772
 30
0.0
 10
3.450414
 20
5.189757
 30
0.0
 10
3.228242
 20
5.223564
 30
0.0
 10
2.999382
 20
5.235081
 30
0.0
 10
2.999382
 20
5.235081
 30
0.0
  0
LWPOLYLINE
  5
101
100
AcDbEntity
  8
Layer_1
 62
7
100
AcDbPolyline
 90
66
 70
0
 10
2.999382
 20
4.949938
 30
0.0
 10
3.199050
 20
4.939890
 30
0.0
 10
3.392882
 20
4.910396
 30
0.0
 10
3.579908
 20
4.862428
 30
0.0
 10
3.759153
 20
4.796957
 30
0.0
 10
3.929647
 20
4.714957
 30
0.0
 10
4.090417
 20
4.617398
 30
0.0
 10
4.240490
 20
4.505254
 30
0.0
 10
4.378894
 20
4.379496
 30
0.0
 10
4.504656
 20
4.241098
 30
0.0
 10
4.616805
 20
4.091030
 30
0.0
 10
4.714368
 20
3.930265
 30
0.0
 10
4.796373
 20
3.759775
 30
0.0
 10
4.861847
 20
3.580533
 30
0.0
 10
4.909818
 20
3.393511
 30
0.0
 10
4.939314
 20
3.199680
 30
0.0
 10
4.949362
 20
3.000014
 30
0.0
 10
4.939314
 20
2.800346
 30
0.0
 10
4.909818
 20
2.606514
 30
0.0
 10
4.861847
 20
2.419489
 30
0.0
 10
4.796373
 20
2.240243
 30
0.0
 10
4.714368
 20
2.069749
 30
0.0
 10
4.616805
 20
1.908980
 30
0.0
 10
4.504656
 20
1.758907
 30
0.0
 10
4.378894
 20
1.620503
 30
0.0
 10
4.240490
 20
1.494740
 30
0.0
 10
4.090417
 20
1.382591
 30
0.0
 10
3.929647
 20
1.285028
 30
0.0
 10
3.759153
 20
1.203023
 30
0.0
 10
3.579908
 20
1.137549
 30
0.0
 10
3.392882
 20
1.089578
 30
0.0
 10
3.199050
 20
1.060083
 30
0.0
 10
2.999382
 20
1.050035
 30
0.0
 10
2.799715
 20
1.060083
 30
0.0
 10
2.605883
 20
1.089578
 30
0.0
 10
2.418858
 20
1.137549
 30
0.0
 10
2.239612
 20
1.203023
 30
0.0
 10
2.069119
 20
1.285028
 30
0.0
 10
1.908349
 20
1.382591
 30
0.0
 10
1.758276
 20
1.494740
 30
0.0
 10
1.619872
 20
1.620503
 30
0.0
 10
1.494109
 20
1.758907
 30
0.0
 10
1.381960
 20
1.908980
 30
0.0
 10
1.284397
 20
2.069749
 30
0.0
 10
1.202392
 20
2.240243
 30
0.0
 10
1.136918
 20
2.419489
 30
0.0
 10
1.088947
 20
2.606514
 30
0.0
 10
1.059451
 20
2.800346
 30
0.0
 10
1.049403
 20
3.000014
 30
0.0
 10
1.059451
 20
3.199680
 30
0.0
 10
1.088947
 20
3.393511
 30
0.0
 10
1.136918
 20
3.580533
 30
0.0
 10
1.202392
 20
3.759775
 30
0.0
 10
1.284397
 20
3.930265
 30
0.0
 10
1.381960
 20
4.091030
 30
0.0
 10
1.494109
 20
4.241098
 30
0.0
 10
1.619872
 20
4.379496
 30
0.0
 10
1.758276
 20
4.505254
 30
0.0
 10
1.908349
 20
4.617398
 30
0.0
 10
2.069119
 20
4.714957
 30
0.0
 10
2.239612
 20
4.796957
 30
0.0
 10
2.418858
 20
4.862428
 30
0.0
 10
2.605883
 20
4.910396
 30
0.0
 10
2.799715
 20
4.939890
 30
0.0
 10
2.999382
 20
4.949938
 30
0.0
 10
2.999382
 20
4.949938
 30
0.0
  0
LWPOLYLINE
  5
102
100
AcDbEntity
  8
Layer_1
 62
7
100
AcDbPolyline
 90
8
 70
1
 10
6.749943
 20
5.999948
 30
0.0
 10
6.749943
 20
5.249943
 30
0.0
 10
6.728693
 20
5.249943
 30
0.0
 10
6.728693
 20
5.978658
 30
0.0
 10
5.999937
 20
5.978658
 30
0.0
 10
5.999937
 20
5.999948
 30
0.0
 10
6.749943
 20
5.999948
 30
0.0
 10
6.749943
 20
5.999948
 30
0.0
  0
LWPOLYLINE
  5
103
100
AcDbEntity
  8
Layer_1
 62
7
100
AcDbPolyline
 90
9
 70
1
 10
0.750005
 20
5.999948
 30
0.0
 10
0.750005
 20
5.978658
 30
0.0
 10
0.021250
 20
5.978658
 30
0.0
 10
0.021250
 20
5.249943
 30
0.0
 10
0.000001
 20
5.249943
 30
0.0
 10
0.000001
 20
5.989282
 30
0.0
 10
0.000001
 20
5.999948
 30
0.0
 10
0.750005
 20
5.999948
 30
0.0
 10
0.750005
 20
5.999948
 30
0.0
  0
LWPOLYLINE
  5
104
100
AcDbEntity
  8
Layer_1
 62
7
100
AcDbPolyline
 90
8
 70
1
 10
6.749937
 20
0.599979
 30
0.0
 10
6.749937
 20
0.000000
 30
0.0
 10
5.999932
 20
0.000000
 30
0.0
 10
5.999932
 20
0.021249
 30
0.0
 10
6.728688
 20
0.021249
 30
0.0
 10
6.728688
 20
0.599979
 30
0.0
 10
6.749937
 20
0.599979
 30
0.0
 10
6.749937
 20
0.599979
 30
0.0
  0
LWPOLYLINE
  5
105
100
AcDbEntity
  8
Layer_1
 62
7
100
AcDbPolyline
 90
8
 70
1
 10
0.021250
 20
0.599979
 30
0.0
 10
0.021250
 20
0.021249
 30
0.0
 10
0.750005
 20
0.021249
 30
0.0
 10
0.750005
 20
0.000000
 30
0.0
 10
0.000001
 20
0.000000
 30
0.0
 10
0.000001
 20
0.599979
 30
0.0
 10
0.021250
 20
0.599979
 30
0.0
 10
0.021250
 20
0.599979
 30
0.0
  0
ENDSEC
  0
SECTION
  2
OBJECTS
  0
DICTIONARY
  5
C
330
0
100
AcDbDictionary
  3
ACAD_GROUP
350
D
  3
ACAD_MLINESTYLE
350
17
  0
DICTIONARY
  5
D
330
C
100
AcDbDictionary
  0
DICTIONARY
  5
1A
330
C
100
AcDbDictionary
  0
DICTIONARY
  5
17
330
C
100
AcDbDictionary
  3
STANDARD
350
18
  0
DICTIONARY
  5
19
330
C
100
AcDbDictionary
  0
ENDSEC
  0
EOF
