  0
SECTION
  2
HEADER
  9
$ACADVER
  1
AC1014
  9
$HANDSEED
  5
FFFF
  9
$MEASUREMENT
 70
     1
  0
ENDSEC
  0
SECTION
  2
TABLES
  0
TABLE
  2
VPORT
  5
8
330
0
100
AcDbSymbolTable
 70
     4
  0
VPORT
  5
2E
330
8
100
AcDbSymbolTableRecord
100
AcDbViewportTableRecord
  2
*ACTIVE
 70
     0
 10
0.0
 20
0.0
 11
1.0
 21
1.0
 12
210.0
 22
148.5
 13
0.0
 23
0.0
 14
10.0
 24
10.0
 15
10.0
 25
10.0
 16
0.0
 26
0.0
 36
1.0
 17
0.0
 27
0.0
 37
0.0
 40
341.0
 41
1.24
 42
50.0
 43
0.0
 44
0.0
 50
0.0
 51
0.0
 71
     0
 72
   100
 73
     1
 74
     3
 75
     0
 76
     0
 77
     0
 78
     0
  0
ENDTAB
  0
TABLE
  2
LTYPE
  5
5
330
0
100
AcDbSymbolTable
 70
     1
  0
LTYPE
  5
14
330
5
100
AcDbSymbolTableRecord
100
AcDbLinetypeTableRecord
  2
BYBLOCK
 70
     0
  3

 72
    65
 73
     0
 40
0.0
  0
LTYPE
  5
15
330
5
100
AcDbSymbolTableRecord
100
AcDbLinetypeTableRecord
  2
BYLAYER
 70
     0
  3

 72
    65
 73
     0
 40
0.0
  0
LTYPE
  5
16
330
5
100
AcDbSymbolTableRecord
100
AcDbLinetypeTableRecord
  2
CONTINUOUS
 70
     0
  3
Solid line
 72
    65
 73
     0
 40
0.0
  0
ENDTAB
  0
TABLE
  2
LAYER
  5
2
100
AcDbSymbolTable
 70
2
  0
LAYER
  5
50
100
AcDbSymbolTableRecord
100
AcDbLayerTableRecord
  2
0
 70
0
  6
CONTINUOUS
  0
LAYER
  5
51
100
AcDbSymbolTableRecord
100
AcDbLayerTableRecord
  2
Layer_1
 70
0
  6
CONTINUOUS
  0
ENDTAB
  0
TABLE
  2
STYLE
  5
3
330
0
100
AcDbSymbolTable
 70
     1
  0
STYLE
  5
11
330
3
100
AcDbSymbolTableRecord
100
AcDbTextStyleTableRecord
  2
STANDARD
 70
     0
 40
0.0
 41
1.0
 50
0.0
 71
     0
 42
2.5
  3
txt
  4

  0
ENDTAB
  0
TABLE
  2
VIEW
  5
6
330
0
100
AcDbSymbolTable
 70
     0
  0
ENDTAB
  0
TABLE
  2
UCS
  5
7
330
0
100
AcDbSymbolTable
 70
     0
  0
ENDTAB
  0
TABLE
  2
APPID
  5
9
330
0
100
AcDbSymbolTable
 70
     2
  0
APPID
  5
12
330
9
100
AcDbSymbolTableRecord
100
AcDbRegAppTableRecord
  2
ACAD
 70
     0
  0
ENDTAB
  0
TABLE
  2
DIMSTYLE
  5
A
330
0
100
AcDbSymbolTable
 70
     1
  0
DIMSTYLE
105
27
330
A
100
AcDbSymbolTableRecord
100
AcDbDimStyleTableRecord
  2
ISO-25
 70
     0
  3

  4

  5

  6

  7

 40
1.0
 41
2.5
 42
0.625
 43
3.75
 44
1.25
 45
0.0
 46
0.0
 47
0.0
 48
0.0
140
2.5
141
2.5
142
0.0
143
0.03937007874016
144
1.0
145
0.0
146
1.0
147
0.625
 71
     0
 72
     0
 73
     0
 74
     0
 75
     0
 76
     0
 77
     1
 78
     8
170
     0
171
     3
172
     1
173
     0
174
     0
175
     0
176
     0
177
     0
178
     0
270
     2
271
     2
272
     2
273
     2
274
     3
340
11
275
     0
280
     0
281
     0
282
     0
283
     0
284
     8
285
     0
286
     0
287
     3
288
     0
  0
ENDTAB
  0
TABLE
  2
BLOCK_RECORD
  5
1
330
0
100
AcDbSymbolTable
 70
     1
  0
BLOCK_RECORD
  5
1F
330
1
100
AcDbSymbolTableRecord
100
AcDbBlockTableRecord
  2
*MODEL_SPACE
  0
BLOCK_RECORD
  5
1B
330
1
100
AcDbSymbolTableRecord
100
AcDbBlockTableRecord
  2
*PAPER_SPACE
  0
ENDTAB
  0
ENDSEC
  0
SECTION
  2
BLOCKS
  0
BLOCK
  5
20
330
1F
100
AcDbEntity
  8
0
100
AcDbBlockBegin
  2
*MODEL_SPACE
 70
     0
 10
0.0
 20
0.0
 30
0.0
  3
*MODEL_SPACE
  1

  0
ENDBLK
  5
21
330
1F
100
AcDbEntity
  8
0
100
AcDbBlockEnd
  0
BLOCK
  5
1C
330
1B
100
AcDbEntity
 67
     1
  8
0
100
AcDbBlockBegin
  2
*PAPER_SPACE
  1

  0
ENDBLK
  5
1D
330
1B
100
AcDbEntity
 67
     1
  8
0
100
AcDbBlockEnd
  0
ENDSEC
  0
SECTION
  2
ENTITIES
  0
LWPOLYLINE
  5
100
100
AcDbEntity
  8
Layer_1
 62
7
100
AcDbPolyline
 90
8
 70
1
 10
6.749943
 20
5.999947
 30
0.0
 10
6.749943
 20
5.249943
 30
0.0
 10
6.728691
 20
5.249943
 30
0.0
 10
6.728691
 20
5.978658
 30
0.0
 10
5.999934
 20
5.978658
 30
0.0
 10
5.999934
 20
5.999947
 30
0.0
 10
6.749943
 20
5.999947
 30
0.0
 10
6.749943
 20
5.999947
 30
0.0
  0
LWPOLYLINE
  5
101
100
AcDbEntity
  8
Layer_1
 62
7
100
AcDbPolyline
 90
9
 70
1
 10
0.750003
 20
5.999947
 30
0.0
 10
0.750003
 20
5.978658
 30
0.0
 10
0.021249
 20
5.978658
 30
0.0
 10
0.021249
 20
5.249943
 30
0.0
 10
0.000000
 20
5.249943
 30
0.0
 10
0.000000
 20
5.989282
 30
0.0
 10
0.000000
 20
5.999947
 30
0.0
 10
0.750003
 20
5.999947
 30
0.0
 10
0.750003
 20
5.999947
 30
0.0
  0
LWPOLYLINE
  5
102
100
AcDbEntity
  8
Layer_1
 62
7
100
AcDbPolyline
 90
8
 70
1
 10
6.749934
 20
0.599979
 30
0.0
 10
6.749934
 20
-0.000000
 30
0.0
 10
5.999929
 20
-0.000000
 30
0.0
 10
5.999929
 20
0.021249
 30
0.0
 10
6.728686
 20
0.021249
 30
0.0
 10
6.728686
 20
0.599979
 30
0.0
 10
6.749934
 20
0.599979
 30
0.0
 10
6.749934
 20
0.599979
 30
0.0
  0
LWPOLYLINE
  5
103
100
AcDbEntity
  8
Layer_1
 62
7
100
AcDbPolyline
 90
8
 70
1
 10
0.021249
 20
0.599979
 30
0.0
 10
0.021249
 20
0.021249
 30
0.0
 10
0.750003
 20
0.021249
 30
0.0
 10
0.750003
 20
-0.000000
 30
0.0
 10
-0.000000
 20
-0.000000
 30
0.0
 10
-0.000000
 20
0.599979
 30
0.0
 10
0.021249
 20
0.599979
 30
0.0
 10
0.021249
 20
0.599979
 30
0.0
  0
LWPOLYLINE
  5
104
100
AcDbEntity
  8
Layer_1
 62
7
100
AcDbPolyline
 90
18
 70
0
 10
4.110284
 20
4.910881
 30
0.0
 10
4.082156
 20
4.892033
 30
0.0
 10
4.061125
 20
4.865752
 30
0.0
 10
4.041791
 20
4.800760
 30
0.0
 10
4.044209
 20
4.766980
 30
0.0
 10
4.055163
 20
4.735634
 30
0.0
 10
4.075015
 20
4.709187
 30
0.0
 10
4.104124
 20
4.690107
 30
0.0
 10
4.133420
 20
4.676898
 30
0.0
 10
4.164361
 20
4.672896
 30
0.0
 10
4.224382
 20
4.688826
 30
0.0
 10
4.270600
 20
4.730520
 30
0.0
 10
4.284287
 20
4.758725
 30
0.0
 10
4.289428
 20
4.790605
 30
0.0
 10
4.219083
 20
4.842588
 30
0.0
 10
4.142195
 20
4.891660
 30
0.0
 10
4.110284
 20
4.910881
 30
0.0
 10
4.110284
 20
4.910881
 30
0.0
  0
LWPOLYLINE
  5
105
100
AcDbEntity
  8
Layer_1
 62
7
100
AcDbPolyline
 90
17
 70
0
 10
1.687858
 20
4.780463
 30
0.0
 10
1.526681
 20
4.650817
 30
0.0
 10
1.533880
 20
4.616658
 30
0.0
 10
1.551061
 20
4.587605
 30
0.0
 10
1.575905
 20
4.564568
 30
0.0
 10
1.606091
 20
4.548458
 30
0.0
 10
1.639301
 20
4.540184
 30
0.0
 10
1.673215
 20
4.540654
 30
0.0
 10
1.705514
 20
4.550780
 30
0.0
 10
1.733877
 20
4.571471
 30
0.0
 10
1.755972
 20
4.596681
 30
0.0
 10
1.769347
 20
4.626478
 30
0.0
 10
1.771466
 20
4.691185
 30
0.0
 10
1.743286
 20
4.748283
 30
0.0
 10
1.718787
 20
4.768570
 30
0.0
 10
1.687858
 20
4.780463
 30
0.0
 10
1.687858
 20
4.780463
 30
0.0
  0
LWPOLYLINE
  5
106
100
AcDbEntity
  8
Layer_1
 62
7
100
AcDbPolyline
 90
16
 70
0
 10
5.003306
 20
2.554215
 30
0.0
 10
4.974085
 20
2.525366
 30
0.0
 10
4.953544
 20
2.490416
 30
0.0
 10
4.944425
 20
2.451487
 30
0.0
 10
4.949469
 20
2.410703
 30
0.0
 10
4.972444
 20
2.368378
 30
0.0
 10
5.009784
 20
2.337957
 30
0.0
 10
5.055576
 20
2.322832
 30
0.0
 10
5.103904
 20
2.326398
 30
0.0
 10
5.134940
 20
2.428080
 30
0.0
 10
5.160625
 20
2.531450
 30
0.0
 10
5.125056
 20
2.556443
 30
0.0
 10
5.085696
 20
2.568941
 30
0.0
 10
5.044471
 20
2.568384
 30
0.0
 10
5.003306
 20
2.554215
 30
0.0
 10
5.003306
 20
2.554215
 30
0.0
  0
LWPOLYLINE
  5
107
100
AcDbEntity
  8
Layer_1
 62
7
100
AcDbPolyline
 90
17
 70
0
 10
0.941623
 20
2.342383
 30
0.0
 10
0.913600
 20
2.321129
 30
0.0
 10
0.906449
 20
2.294723
 30
0.0
 10
0.927529
 20
2.233176
 30
0.0
 10
0.975744
 20
2.107786
 30
0.0
 10
1.008777
 20
2.105902
 30
0.0
 10
1.040729
 20
2.113718
 30
0.0
 10
1.094691
 20
2.152085
 30
0.0
 10
1.113350
 20
2.179453
 30
0.0
 10
1.124227
 20
2.210153
 30
0.0
 10
1.125647
 20
2.242596
 30
0.0
 10
1.115935
 20
2.275188
 30
0.0
 10
1.087150
 20
2.320174
 30
0.0
 10
1.044367
 20
2.347101
 30
0.0
 10
0.993790
 20
2.354870
 30
0.0
 10
0.941623
 20
2.342383
 30
0.0
 10
0.941623
 20
2.342383
 30
0.0
  0
LWPOLYLINE
  5
108
100
AcDbEntity
  8
Layer_1
 62
7
100
AcDbPolyline
 90
15
 70
0
 10
3.073778
 20
0.981212
 30
0.0
 10
3.026041
 20
0.948591
 30
0.0
 10
2.995280
 20
0.898546
 30
0.0
 10
2.988279
 20
0.841851
 30
0.0
 10
2.995809
 20
0.814376
 30
0.0
 10
3.011822
 20
0.789279
 30
0.0
 10
3.222992
 20
0.800248
 30
0.0
 10
3.234842
 20
0.831123
 30
0.0
 10
3.237200
 20
0.863648
 30
0.0
 10
3.217419
 20
0.925980
 30
0.0
 10
3.171616
 20
0.971910
 30
0.0
 10
3.141447
 20
0.983932
 30
0.0
 10
3.107761
 20
0.986105
 30
0.0
 10
3.073778
 20
0.981212
 30
0.0
 10
3.073778
 20
0.981212
 30
0.0
  0
LWPOLYLINE
  5
109
100
AcDbEntity
  8
Layer_1
 62
7
100
AcDbPolyline
 90
9
 70
1
 10
0.750003
 20
5.999947
 30
0.0
 10
0.750003
 20
5.978658
 30
0.0
 10
0.021249
 20
5.978658
 30
0.0
 10
0.021249
 20
5.249943
 30
0.0
 10
0.000000
 20
5.249943
 30
0.0
 10
0.000000
 20
5.989282
 30
0.0
 10
0.000000
 20
5.999947
 30
0.0
 10
0.750003
 20
5.999947
 30
0.0
 10
0.750003
 20
5.999947
 30
0.0
  0
ENDSEC
  0
SECTION
  2
OBJECTS
  0
DICTIONARY
  5
C
330
0
100
AcDbDictionary
  3
ACAD_GROUP
350
D
  3
ACAD_MLINESTYLE
350
17
  0
DICTIONARY
  5
D
330
C
100
AcDbDictionary
  0
DICTIONARY
  5
1A
330
C
100
AcDbDictionary
  0
DICTIONARY
  5
17
330
C
100
AcDbDictionary
  3
STANDARD
350
18
  0
DICTIONARY
  5
19
330
C
100
AcDbDictionary
  0
ENDSEC
  0
EOF
