  0
SECTION
  2
HEADER
  9
$ACADVER
  1
AC1014
  9
$HANDSEED
  5
FFFF
  9
$MEASUREMENT
 70
     1
  0
ENDSEC
  0
SECTION
  2
TABLES
  0
TABLE
  2
VPORT
  5
8
330
0
100
AcDbSymbolTable
 70
     4
  0
VPORT
  5
2E
330
8
100
AcDbSymbolTableRecord
100
AcDbViewportTableRecord
  2
*ACTIVE
 70
     0
 10
0.0
 20
0.0
 11
1.0
 21
1.0
 12
210.0
 22
148.5
 13
0.0
 23
0.0
 14
10.0
 24
10.0
 15
10.0
 25
10.0
 16
0.0
 26
0.0
 36
1.0
 17
0.0
 27
0.0
 37
0.0
 40
341.0
 41
1.24
 42
50.0
 43
0.0
 44
0.0
 50
0.0
 51
0.0
 71
     0
 72
   100
 73
     1
 74
     3
 75
     0
 76
     0
 77
     0
 78
     0
  0
ENDTAB
  0
TABLE
  2
LTYPE
  5
5
330
0
100
AcDbSymbolTable
 70
     1
  0
LTYPE
  5
14
330
5
100
AcDbSymbolTableRecord
100
AcDbLinetypeTableRecord
  2
BYBLOCK
 70
     0
  3

 72
    65
 73
     0
 40
0.0
  0
LTYPE
  5
15
330
5
100
AcDbSymbolTableRecord
100
AcDbLinetypeTableRecord
  2
BYLAYER
 70
     0
  3

 72
    65
 73
     0
 40
0.0
  0
LTYPE
  5
16
330
5
100
AcDbSymbolTableRecord
100
AcDbLinetypeTableRecord
  2
CONTINUOUS
 70
     0
  3
Solid line
 72
    65
 73
     0
 40
0.0
  0
ENDTAB
  0
TABLE
  2
LAYER
  5
2
100
AcDbSymbolTable
 70
2
  0
LAYER
  5
50
100
AcDbSymbolTableRecord
100
AcDbLayerTableRecord
  2
0
 70
0
  6
CONTINUOUS
  0
LAYER
  5
51
100
AcDbSymbolTableRecord
100
AcDbLayerTableRecord
  2
Layer_1
 70
0
  6
CONTINUOUS
  0
ENDTAB
  0
TABLE
  2
STYLE
  5
3
330
0
100
AcDbSymbolTable
 70
     1
  0
STYLE
  5
11
330
3
100
AcDbSymbolTableRecord
100
AcDbTextStyleTableRecord
  2
STANDARD
 70
     0
 40
0.0
 41
1.0
 50
0.0
 71
     0
 42
2.5
  3
txt
  4

  0
ENDTAB
  0
TABLE
  2
VIEW
  5
6
330
0
100
AcDbSymbolTable
 70
     0
  0
ENDTAB
  0
TABLE
  2
UCS
  5
7
330
0
100
AcDbSymbolTable
 70
     0
  0
ENDTAB
  0
TABLE
  2
APPID
  5
9
330
0
100
AcDbSymbolTable
 70
     2
  0
APPID
  5
12
330
9
100
AcDbSymbolTableRecord
100
AcDbRegAppTableRecord
  2
ACAD
 70
     0
  0
ENDTAB
  0
TABLE
  2
DIMSTYLE
  5
A
330
0
100
AcDbSymbolTable
 70
     1
  0
DIMSTYLE
105
27
330
A
100
AcDbSymbolTableRecord
100
AcDbDimStyleTableRecord
  2
ISO-25
 70
     0
  3

  4

  5

  6

  7

 40
1.0
 41
2.5
 42
0.625
 43
3.75
 44
1.25
 45
0.0
 46
0.0
 47
0.0
 48
0.0
140
2.5
141
2.5
142
0.0
143
0.03937007874016
144
1.0
145
0.0
146
1.0
147
0.625
 71
     0
 72
     0
 73
     0
 74
     0
 75
     0
 76
     0
 77
     1
 78
     8
170
     0
171
     3
172
     1
173
     0
174
     0
175
     0
176
     0
177
     0
178
     0
270
     2
271
     2
272
     2
273
     2
274
     3
340
11
275
     0
280
     0
281
     0
282
     0
283
     0
284
     8
285
     0
286
     0
287
     3
288
     0
  0
ENDTAB
  0
TABLE
  2
BLOCK_RECORD
  5
1
330
0
100
AcDbSymbolTable
 70
     1
  0
BLOCK_RECORD
  5
1F
330
1
100
AcDbSymbolTableRecord
100
AcDbBlockTableRecord
  2
*MODEL_SPACE
  0
BLOCK_RECORD
  5
1B
330
1
100
AcDbSymbolTableRecord
100
AcDbBlockTableRecord
  2
*PAPER_SPACE
  0
ENDTAB
  0
ENDSEC
  0
SECTION
  2
BLOCKS
  0
BLOCK
  5
20
330
1F
100
AcDbEntity
  8
0
100
AcDbBlockBegin
  2
*MODEL_SPACE
 70
     0
 10
0.0
 20
0.0
 30
0.0
  3
*MODEL_SPACE
  1

  0
ENDBLK
  5
21
330
1F
100
AcDbEntity
  8
0
100
AcDbBlockEnd
  0
BLOCK
  5
1C
330
1B
100
AcDbEntity
 67
     1
  8
0
100
AcDbBlockBegin
  2
*PAPER_SPACE
  1

  0
ENDBLK
  5
1D
330
1B
100
AcDbEntity
 67
     1
  8
0
100
AcDbBlockEnd
  0
ENDSEC
  0
SECTION
  2
ENTITIES
  0
LWPOLYLINE
  5
100
100
AcDbEntity
  8
Layer_1
 62
7
100
AcDbPolyline
 90
13
 70
0
 10
6.703337
 20
2.163165
 30
0.0
 10
6.628317
 20
1.871572
 30
0.0
 10
7.080146
 20
1.750249
 30
0.0
 10
7.139864
 20
1.746428
 30
0.0
 10
7.194505
 20
1.765170
 30
0.0
 10
7.238117
 20
1.803049
 30
0.0
 10
7.264748
 20
1.856634
 30
0.0
 10
7.268480
 20
1.916357
 30
0.0
 10
7.249656
 20
1.970968
 30
0.0
 10
7.211713
 20
2.014521
 30
0.0
 10
7.158091
 20
2.041071
 30
0.0
 10
6.703337
 20
2.163165
 30
0.0
 10
6.703337
 20
2.163165
 30
0.0
  0
LWPOLYLINE
  5
101
100
AcDbEntity
  8
Layer_1
 62
7
100
AcDbPolyline
 90
18
 70
0
 10
6.825596
 20
2.035558
 30
0.0
 10
6.848982
 20
2.030835
 30
0.0
 10
6.868079
 20
2.017959
 30
0.0
 10
6.880955
 20
1.998862
 30
0.0
 10
6.885678
 20
1.975476
 30
0.0
 10
6.880955
 20
1.952090
 30
0.0
 10
6.868079
 20
1.932993
 30
0.0
 10
6.848982
 20
1.920117
 30
0.0
 10
6.825596
 20
1.915394
 30
0.0
 10
6.802210
 20
1.920117
 30
0.0
 10
6.783113
 20
1.932993
 30
0.0
 10
6.770237
 20
1.952090
 30
0.0
 10
6.765514
 20
1.975476
 30
0.0
 10
6.770237
 20
1.998862
 30
0.0
 10
6.783113
 20
2.017959
 30
0.0
 10
6.802210
 20
2.030835
 30
0.0
 10
6.825596
 20
2.035558
 30
0.0
 10
6.825596
 20
2.035558
 30
0.0
  0
LWPOLYLINE
  5
102
100
AcDbEntity
  8
Layer_1
 62
7
100
AcDbPolyline
 90
18
 70
0
 10
7.099992
 20
1.960042
 30
0.0
 10
7.123378
 20
1.955319
 30
0.0
 10
7.142475
 20
1.942443
 30
0.0
 10
7.155352
 20
1.923345
 30
0.0
 10
7.160075
 20
1.899960
 30
0.0
 10
7.155352
 20
1.876574
 30
0.0
 10
7.142475
 20
1.857476
 30
0.0
 10
7.123378
 20
1.844600
 30
0.0
 10
7.099992
 20
1.839877
 30
0.0
 10
7.076605
 20
1.844599
 30
0.0
 10
7.057507
 20
1.857475
 30
0.0
 10
7.044630
 20
1.876573
 30
0.0
 10
7.039907
 20
1.899960
 30
0.0
 10
7.044630
 20
1.923346
 30
0.0
 10
7.057507
 20
1.942444
 30
0.0
 10
7.076606
 20
1.955320
 30
0.0
 10
7.099992
 20
1.960042
 30
0.0
 10
7.099992
 20
1.960042
 30
0.0
  0
LWPOLYLINE
  5
103
100
AcDbEntity
  8
Layer_1
 62
7
100
AcDbPolyline
 90
8
 70
1
 10
6.749943
 20
5.999947
 30
0.0
 10
6.749943
 20
5.249943
 30
0.0
 10
6.728691
 20
5.249943
 30
0.0
 10
6.728691
 20
5.978658
 30
0.0
 10
5.999937
 20
5.978658
 30
0.0
 10
5.999937
 20
5.999947
 30
0.0
 10
6.749943
 20
5.999947
 30
0.0
 10
6.749943
 20
5.999947
 30
0.0
  0
LWPOLYLINE
  5
104
100
AcDbEntity
  8
Layer_1
 62
7
100
AcDbPolyline
 90
9
 70
1
 10
0.750006
 20
5.999947
 30
0.0
 10
0.750006
 20
5.978658
 30
0.0
 10
0.021249
 20
5.978658
 30
0.0
 10
0.021249
 20
5.249943
 30
0.0
 10
-0.000000
 20
5.249943
 30
0.0
 10
-0.000000
 20
5.989282
 30
0.0
 10
-0.000000
 20
5.999947
 30
0.0
 10
0.750006
 20
5.999947
 30
0.0
 10
0.750006
 20
5.999947
 30
0.0
  0
LWPOLYLINE
  5
105
100
AcDbEntity
  8
Layer_1
 62
7
100
AcDbPolyline
 90
8
 70
1
 10
6.749937
 20
0.599979
 30
0.0
 10
6.749937
 20
-0.000000
 30
0.0
 10
5.999932
 20
-0.000000
 30
0.0
 10
5.999932
 20
0.021249
 30
0.0
 10
6.728686
 20
0.021249
 30
0.0
 10
6.728686
 20
0.599979
 30
0.0
 10
6.749937
 20
0.599979
 30
0.0
 10
6.749937
 20
0.599979
 30
0.0
  0
LWPOLYLINE
  5
106
100
AcDbEntity
  8
Layer_1
 62
7
100
AcDbPolyline
 90
8
 70
1
 10
0.021249
 20
0.599979
 30
0.0
 10
0.021249
 20
0.021249
 30
0.0
 10
0.750006
 20
0.021249
 30
0.0
 10
0.750006
 20
-0.000000
 30
0.0
 10
0.000000
 20
-0.000000
 30
0.0
 10
0.000000
 20
0.599979
 30
0.0
 10
0.021249
 20
0.599979
 30
0.0
 10
0.021249
 20
0.599979
 30
0.0
  0
ENDSEC
  0
SECTION
  2
OBJECTS
  0
DICTIONARY
  5
C
330
0
100
AcDbDictionary
  3
ACAD_GROUP
350
D
  3
ACAD_MLINESTYLE
350
17
  0
DICTIONARY
  5
D
330
C
100
AcDbDictionary
  0
DICTIONARY
  5
1A
330
C
100
AcDbDictionary
  0
DICTIONARY
  5
17
330
C
100
AcDbDictionary
  3
STANDARD
350
18
  0
DICTIONARY
  5
19
330
C
100
AcDbDictionary
  0
ENDSEC
  0
EOF
