  0
SECTION
  2
HEADER
  9
$ACADVER
  1
AC1014
  9
$HANDSEED
  5
FFFF
  9
$MEASUREMENT
 70
     1
  0
ENDSEC
  0
SECTION
  2
TABLES
  0
TABLE
  2
VPORT
  5
8
330
0
100
AcDbSymbolTable
 70
     4
  0
VPORT
  5
2E
330
8
100
AcDbSymbolTableRecord
100
AcDbViewportTableRecord
  2
*ACTIVE
 70
     0
 10
0.0
 20
0.0
 11
1.0
 21
1.0
 12
210.0
 22
148.5
 13
0.0
 23
0.0
 14
10.0
 24
10.0
 15
10.0
 25
10.0
 16
0.0
 26
0.0
 36
1.0
 17
0.0
 27
0.0
 37
0.0
 40
341.0
 41
1.24
 42
50.0
 43
0.0
 44
0.0
 50
0.0
 51
0.0
 71
     0
 72
   100
 73
     1
 74
     3
 75
     0
 76
     0
 77
     0
 78
     0
  0
ENDTAB
  0
TABLE
  2
LTYPE
  5
5
330
0
100
AcDbSymbolTable
 70
     1
  0
LTYPE
  5
14
330
5
100
AcDbSymbolTableRecord
100
AcDbLinetypeTableRecord
  2
BYBLOCK
 70
     0
  3

 72
    65
 73
     0
 40
0.0
  0
LTYPE
  5
15
330
5
100
AcDbSymbolTableRecord
100
AcDbLinetypeTableRecord
  2
BYLAYER
 70
     0
  3

 72
    65
 73
     0
 40
0.0
  0
LTYPE
  5
16
330
5
100
AcDbSymbolTableRecord
100
AcDbLinetypeTableRecord
  2
CONTINUOUS
 70
     0
  3
Solid line
 72
    65
 73
     0
 40
0.0
  0
ENDTAB
  0
TABLE
  2
LAYER
  5
2
100
AcDbSymbolTable
 70
2
  0
LAYER
  5
50
100
AcDbSymbolTableRecord
100
AcDbLayerTableRecord
  2
0
 70
0
  6
CONTINUOUS
  0
LAYER
  5
51
100
AcDbSymbolTableRecord
100
AcDbLayerTableRecord
  2
Layer_1
 70
0
  6
CONTINUOUS
  0
ENDTAB
  0
TABLE
  2
STYLE
  5
3
330
0
100
AcDbSymbolTable
 70
     1
  0
STYLE
  5
11
330
3
100
AcDbSymbolTableRecord
100
AcDbTextStyleTableRecord
  2
STANDARD
 70
     0
 40
0.0
 41
1.0
 50
0.0
 71
     0
 42
2.5
  3
txt
  4

  0
ENDTAB
  0
TABLE
  2
VIEW
  5
6
330
0
100
AcDbSymbolTable
 70
     0
  0
ENDTAB
  0
TABLE
  2
UCS
  5
7
330
0
100
AcDbSymbolTable
 70
     0
  0
ENDTAB
  0
TABLE
  2
APPID
  5
9
330
0
100
AcDbSymbolTable
 70
     2
  0
APPID
  5
12
330
9
100
AcDbSymbolTableRecord
100
AcDbRegAppTableRecord
  2
ACAD
 70
     0
  0
ENDTAB
  0
TABLE
  2
DIMSTYLE
  5
A
330
0
100
AcDbSymbolTable
 70
     1
  0
DIMSTYLE
105
27
330
A
100
AcDbSymbolTableRecord
100
AcDbDimStyleTableRecord
  2
ISO-25
 70
     0
  3

  4

  5

  6

  7

 40
1.0
 41
2.5
 42
0.625
 43
3.75
 44
1.25
 45
0.0
 46
0.0
 47
0.0
 48
0.0
140
2.5
141
2.5
142
0.0
143
0.03937007874016
144
1.0
145
0.0
146
1.0
147
0.625
 71
     0
 72
     0
 73
     0
 74
     0
 75
     0
 76
     0
 77
     1
 78
     8
170
     0
171
     3
172
     1
173
     0
174
     0
175
     0
176
     0
177
     0
178
     0
270
     2
271
     2
272
     2
273
     2
274
     3
340
11
275
     0
280
     0
281
     0
282
     0
283
     0
284
     8
285
     0
286
     0
287
     3
288
     0
  0
ENDTAB
  0
TABLE
  2
BLOCK_RECORD
  5
1
330
0
100
AcDbSymbolTable
 70
     1
  0
BLOCK_RECORD
  5
1F
330
1
100
AcDbSymbolTableRecord
100
AcDbBlockTableRecord
  2
*MODEL_SPACE
  0
BLOCK_RECORD
  5
1B
330
1
100
AcDbSymbolTableRecord
100
AcDbBlockTableRecord
  2
*PAPER_SPACE
  0
ENDTAB
  0
ENDSEC
  0
SECTION
  2
BLOCKS
  0
BLOCK
  5
20
330
1F
100
AcDbEntity
  8
0
100
AcDbBlockBegin
  2
*MODEL_SPACE
 70
     0
 10
0.0
 20
0.0
 30
0.0
  3
*MODEL_SPACE
  1

  0
ENDBLK
  5
21
330
1F
100
AcDbEntity
  8
0
100
AcDbBlockEnd
  0
BLOCK
  5
1C
330
1B
100
AcDbEntity
 67
     1
  8
0
100
AcDbBlockBegin
  2
*PAPER_SPACE
  1

  0
ENDBLK
  5
1D
330
1B
100
AcDbEntity
 67
     1
  8
0
100
AcDbBlockEnd
  0
ENDSEC
  0
SECTION
  2
ENTITIES
  0
LWPOLYLINE
  5
100
100
AcDbEntity
  8
Layer_1
 62
7
100
AcDbPolyline
 90
8
 70
1
 10
6.749942
 20
5.999948
 30
0.0
 10
6.749942
 20
5.249943
 30
0.0
 10
6.728693
 20
5.249943
 30
0.0
 10
6.728693
 20
5.978659
 30
0.0
 10
5.999937
 20
5.978659
 30
0.0
 10
5.999937
 20
5.999948
 30
0.0
 10
6.749942
 20
5.999948
 30
0.0
 10
6.749942
 20
5.999948
 30
0.0
  0
LWPOLYLINE
  5
101
100
AcDbEntity
  8
Layer_1
 62
7
100
AcDbPolyline
 90
9
 70
1
 10
0.750005
 20
5.999948
 30
0.0
 10
0.750005
 20
5.978659
 30
0.0
 10
0.021250
 20
5.978659
 30
0.0
 10
0.021250
 20
5.249943
 30
0.0
 10
0.000001
 20
5.249943
 30
0.0
 10
0.000001
 20
5.989282
 30
0.0
 10
0.000001
 20
5.999948
 30
0.0
 10
0.750005
 20
5.999948
 30
0.0
 10
0.750005
 20
5.999948
 30
0.0
  0
LWPOLYLINE
  5
102
100
AcDbEntity
  8
Layer_1
 62
7
100
AcDbPolyline
 90
8
 70
1
 10
6.749936
 20
0.599979
 30
0.0
 10
6.749936
 20
0.000000
 30
0.0
 10
5.999931
 20
0.000000
 30
0.0
 10
5.999931
 20
0.021249
 30
0.0
 10
6.728687
 20
0.021249
 30
0.0
 10
6.728687
 20
0.599979
 30
0.0
 10
6.749936
 20
0.599979
 30
0.0
 10
6.749936
 20
0.599979
 30
0.0
  0
LWPOLYLINE
  5
103
100
AcDbEntity
  8
Layer_1
 62
7
100
AcDbPolyline
 90
8
 70
1
 10
0.021250
 20
0.599979
 30
0.0
 10
0.021250
 20
0.021249
 30
0.0
 10
0.750005
 20
0.021249
 30
0.0
 10
0.750005
 20
0.000000
 30
0.0
 10
0.000001
 20
0.000000
 30
0.0
 10
0.000001
 20
0.599979
 30
0.0
 10
0.021250
 20
0.599979
 30
0.0
 10
0.021250
 20
0.599979
 30
0.0
  0
LWPOLYLINE
  5
104
100
AcDbEntity
  8
Layer_1
 62
7
100
AcDbPolyline
 90
9
 70
1
 10
0.750642
 20
5.999953
 30
0.0
 10
0.750642
 20
5.978664
 30
0.0
 10
0.021886
 20
5.978664
 30
0.0
 10
0.021886
 20
5.249949
 30
0.0
 10
0.000637
 20
5.249949
 30
0.0
 10
0.000637
 20
5.989287
 30
0.0
 10
0.000637
 20
5.999953
 30
0.0
 10
0.750642
 20
5.999953
 30
0.0
 10
0.750642
 20
5.999953
 30
0.0
  0
LWPOLYLINE
  5
105
100
AcDbEntity
  8
Layer_1
 62
7
100
AcDbPolyline
 90
61
 70
0
 10
0.566023
 20
5.161826
 30
0.0
 10
0.460255
 20
5.146687
 30
0.0
 10
0.362792
 20
5.102901
 30
0.0
 10
0.270793
 20
4.975185
 30
0.0
 10
0.269749
 20
4.973698
 30
0.0
 10
0.224946
 20
4.877057
 30
0.0
 10
0.211118
 20
4.773751
 30
0.0
 10
0.228148
 20
4.670924
 30
0.0
 10
0.275921
 20
4.575720
 30
0.0
 10
0.278236
 20
4.572909
 30
0.0
 10
0.364006
 20
4.425316
 30
0.0
 10
0.465318
 20
4.224927
 30
0.0
 10
0.465318
 20
4.224870
 30
0.0
 10
0.570958
 20
3.998488
 30
0.0
 10
0.650248
 20
3.763984
 30
0.0
 10
0.703068
 20
3.523595
 30
0.0
 10
0.729303
 20
3.279558
 30
0.0
 10
0.728833
 20
3.034110
 30
0.0
 10
0.701542
 20
2.789486
 30
0.0
 10
0.647311
 20
2.547923
 30
0.0
 10
0.566023
 20
2.311657
 30
0.0
 10
0.715822
 20
2.305623
 30
0.0
 10
0.864513
 20
2.309493
 30
0.0
 10
1.011669
 20
2.323062
 30
0.0
 10
1.156867
 20
2.346125
 30
0.0
 10
1.299682
 20
2.378477
 30
0.0
 10
1.439688
 20
2.419912
 30
0.0
 10
1.576461
 20
2.470227
 30
0.0
 10
1.709575
 20
2.529216
 30
0.0
 10
1.838606
 20
2.596674
 30
0.0
 10
1.963128
 20
2.672396
 30
0.0
 10
2.082718
 20
2.756177
 30
0.0
 10
2.196949
 20
2.847813
 30
0.0
 10
2.305398
 20
2.947097
 30
0.0
 10
2.407638
 20
3.053826
 30
0.0
 10
2.503245
 20
3.167794
 30
0.0
 10
2.591795
 20
3.288796
 30
0.0
 10
2.459136
 20
3.525508
 30
0.0
 10
2.300809
 20
3.742277
 30
0.0
 10
2.119096
 20
3.937391
 30
0.0
 10
1.916283
 20
4.109134
 30
0.0
 10
1.694652
 20
4.255795
 30
0.0
 10
1.456487
 20
4.375660
 30
0.0
 10
1.204073
 20
4.467016
 30
0.0
 10
0.939694
 20
4.528149
 30
0.0
 10
0.940795
 20
4.531181
 30
0.0
 10
0.911551
 20
4.547934
 30
0.0
 10
0.899951
 20
4.579577
 30
0.0
 10
0.905573
 20
4.602398
 30
0.0
 10
0.905291
 20
4.602680
 30
0.0
 10
0.937632
 20
4.688287
 30
0.0
 10
0.948728
 20
4.779124
 30
0.0
 10
0.940946
 20
4.856249
 30
0.0
 10
0.918642
 20
4.928084
 30
0.0
 10
0.883355
 20
4.993090
 30
0.0
 10
0.836623
 20
5.049728
 30
0.0
 10
0.779984
 20
5.096460
 30
0.0
 10
0.714979
 20
5.131747
 30
0.0
 10
0.643143
 20
5.154051
 30
0.0
 10
0.566018
 20
5.161833
 30
0.0
 10
0.566023
 20
5.161826
 30
0.0
  0
LWPOLYLINE
  5
106
100
AcDbEntity
  8
Layer_1
 62
7
100
AcDbPolyline
 90
34
 70
0
 10
0.566023
 20
5.019117
 30
0.0
 10
0.614391
 20
5.014241
 30
0.0
 10
0.659442
 20
5.000256
 30
0.0
 10
0.700209
 20
4.978128
 30
0.0
 10
0.735728
 20
4.948822
 30
0.0
 10
0.765034
 20
4.913303
 30
0.0
 10
0.787162
 20
4.872536
 30
0.0
 10
0.801146
 20
4.827486
 30
0.0
 10
0.806022
 20
4.779117
 30
0.0
 10
0.801146
 20
4.730749
 30
0.0
 10
0.787162
 20
4.685699
 30
0.0
 10
0.765034
 20
4.644932
 30
0.0
 10
0.735728
 20
4.609413
 30
0.0
 10
0.700209
 20
4.580107
 30
0.0
 10
0.659442
 20
4.557979
 30
0.0
 10
0.614391
 20
4.543995
 30
0.0
 10
0.566023
 20
4.539119
 30
0.0
 10
0.517655
 20
4.543995
 30
0.0
 10
0.472605
 20
4.557979
 30
0.0
 10
0.431838
 20
4.580107
 30
0.0
 10
0.396319
 20
4.609413
 30
0.0
 10
0.367013
 20
4.644932
 30
0.0
 10
0.344885
 20
4.685699
 30
0.0
 10
0.330900
 20
4.730749
 30
0.0
 10
0.326024
 20
4.779117
 30
0.0
 10
0.330900
 20
4.827486
 30
0.0
 10
0.344885
 20
4.872536
 30
0.0
 10
0.367013
 20
4.913303
 30
0.0
 10
0.396319
 20
4.948822
 30
0.0
 10
0.431838
 20
4.978128
 30
0.0
 10
0.472605
 20
5.000256
 30
0.0
 10
0.517655
 20
5.014241
 30
0.0
 10
0.566023
 20
5.019117
 30
0.0
 10
0.566023
 20
5.019117
 30
0.0
  0
LWPOLYLINE
  5
107
100
AcDbEntity
  8
Layer_1
 62
7
100
AcDbPolyline
 90
61
 70
0
 10
3.973352
 20
2.858055
 30
0.0
 10
4.079120
 20
2.873194
 30
0.0
 10
4.176583
 20
2.916980
 30
0.0
 10
4.268581
 20
3.044697
 30
0.0
 10
4.269626
 20
3.046184
 30
0.0
 10
4.314429
 20
3.142825
 30
0.0
 10
4.328257
 20
3.246131
 30
0.0
 10
4.311227
 20
3.348958
 30
0.0
 10
4.263454
 20
3.444161
 30
0.0
 10
4.261139
 20
3.446972
 30
0.0
 10
4.175368
 20
3.594565
 30
0.0
 10
4.074057
 20
3.794955
 30
0.0
 10
4.074057
 20
3.795011
 30
0.0
 10
3.968417
 20
4.021394
 30
0.0
 10
3.889127
 20
4.255898
 30
0.0
 10
3.836307
 20
4.496286
 30
0.0
 10
3.810072
 20
4.740323
 30
0.0
 10
3.810542
 20
4.985772
 30
0.0
 10
3.837833
 20
5.230396
 30
0.0
 10
3.892064
 20
5.471959
 30
0.0
 10
3.973352
 20
5.708224
 30
0.0
 10
3.823553
 20
5.714258
 30
0.0
 10
3.674862
 20
5.710388
 30
0.0
 10
3.527706
 20
5.696819
 30
0.0
 10
3.382508
 20
5.673757
 30
0.0
 10
3.239693
 20
5.641405
 30
0.0
 10
3.099687
 20
5.599969
 30
0.0
 10
2.962914
 20
5.549654
 30
0.0
 10
2.829800
 20
5.490665
 30
0.0
 10
2.700769
 20
5.423207
 30
0.0
 10
2.576247
 20
5.347485
 30
0.0
 10
2.456657
 20
5.263704
 30
0.0
 10
2.342426
 20
5.172069
 30
0.0
 10
2.233977
 20
5.072784
 30
0.0
 10
2.131737
 20
4.966055
 30
0.0
 10
2.036130
 20
4.852087
 30
0.0
 10
1.947580
 20
4.731085
 30
0.0
 10
2.080239
 20
4.494373
 30
0.0
 10
2.238566
 20
4.277604
 30
0.0
 10
2.420279
 20
4.082491
 30
0.0
 10
2.623092
 20
3.910747
 30
0.0
 10
2.844723
 20
3.764086
 30
0.0
 10
3.082888
 20
3.644221
 30
0.0
 10
3.335302
 20
3.552865
 30
0.0
 10
3.599681
 20
3.491732
 30
0.0
 10
3.598580
 20
3.488701
 30
0.0
 10
3.627824
 20
3.471948
 30
0.0
 10
3.639424
 20
3.440304
 30
0.0
 10
3.633802
 20
3.417484
 30
0.0
 10
3.634084
 20
3.417202
 30
0.0
 10
3.601743
 20
3.331595
 30
0.0
 10
3.590647
 20
3.240758
 30
0.0
 10
3.598429
 20
3.163632
 30
0.0
 10
3.620733
 20
3.091797
 30
0.0
 10
3.656020
 20
3.026791
 30
0.0
 10
3.702752
 20
2.970153
 30
0.0
 10
3.759391
 20
2.923421
 30
0.0
 10
3.824396
 20
2.888134
 30
0.0
 10
3.896232
 20
2.865831
 30
0.0
 10
3.973357
 20
2.858049
 30
0.0
 10
3.973352
 20
2.858055
 30
0.0
  0
LWPOLYLINE
  5
108
100
AcDbEntity
  8
Layer_1
 62
7
100
AcDbPolyline
 90
34
 70
0
 10
3.973352
 20
3.000765
 30
0.0
 10
3.924984
 20
3.005641
 30
0.0
 10
3.879933
 20
3.019625
 30
0.0
 10
3.839166
 20
3.041753
 30
0.0
 10
3.803647
 20
3.071059
 30
0.0
 10
3.774341
 20
3.106578
 30
0.0
 10
3.752213
 20
3.147346
 30
0.0
 10
3.738229
 20
3.192396
 30
0.0
 10
3.733353
 20
3.240764
 30
0.0
 10
3.738229
 20
3.289132
 30
0.0
 10
3.752213
 20
3.334182
 30
0.0
 10
3.774341
 20
3.374949
 30
0.0
 10
3.803647
 20
3.410468
 30
0.0
 10
3.839166
 20
3.439774
 30
0.0
 10
3.879933
 20
3.461902
 30
0.0
 10
3.924984
 20
3.475887
 30
0.0
 10
3.973352
 20
3.480763
 30
0.0
 10
4.021720
 20
3.475887
 30
0.0
 10
4.066770
 20
3.461902
 30
0.0
 10
4.107537
 20
3.439774
 30
0.0
 10
4.143056
 20
3.410468
 30
0.0
 10
4.172362
 20
3.374949
 30
0.0
 10
4.194490
 20
3.334182
 30
0.0
 10
4.208475
 20
3.289132
 30
0.0
 10
4.213351
 20
3.240764
 30
0.0
 10
4.208475
 20
3.192396
 30
0.0
 10
4.194490
 20
3.147346
 30
0.0
 10
4.172362
 20
3.106578
 30
0.0
 10
4.143056
 20
3.071059
 30
0.0
 10
4.107537
 20
3.041753
 30
0.0
 10
4.066770
 20
3.019625
 30
0.0
 10
4.021720
 20
3.005641
 30
0.0
 10
3.973352
 20
3.000765
 30
0.0
 10
3.973352
 20
3.000765
 30
0.0
  0
LWPOLYLINE
  5
109
100
AcDbEntity
  8
Layer_1
 62
7
100
AcDbPolyline
 90
61
 70
0
 10
4.503861
 20
5.375638
 30
0.0
 10
4.398093
 20
5.360499
 30
0.0
 10
4.300630
 20
5.316713
 30
0.0
 10
4.208631
 20
5.188997
 30
0.0
 10
4.207587
 20
5.187509
 30
0.0
 10
4.162784
 20
5.090868
 30
0.0
 10
4.148955
 20
4.987562
 30
0.0
 10
4.165986
 20
4.884736
 30
0.0
 10
4.213759
 20
4.789532
 30
0.0
 10
4.216074
 20
4.786721
 30
0.0
 10
4.301844
 20
4.639128
 30
0.0
 10
4.403156
 20
4.438739
 30
0.0
 10
4.403156
 20
4.438682
 30
0.0
 10
4.508796
 20
4.212300
 30
0.0
 10
4.588085
 20
3.977796
 30
0.0
 10
4.640906
 20
3.737407
 30
0.0
 10
4.667141
 20
3.493370
 30
0.0
 10
4.666671
 20
3.247921
 30
0.0
 10
4.639380
 20
3.003297
 30
0.0
 10
4.585149
 20
2.761735
 30
0.0
 10
4.503861
 20
2.525469
 30
0.0
 10
4.653660
 20
2.519435
 30
0.0
 10
4.802351
 20
2.523305
 30
0.0
 10
4.949507
 20
2.536874
 30
0.0
 10
5.094705
 20
2.559937
 30
0.0
 10
5.237520
 20
2.592288
 30
0.0
 10
5.377526
 20
2.633724
 30
0.0
 10
5.514298
 20
2.684039
 30
0.0
 10
5.647413
 20
2.743028
 30
0.0
 10
5.776444
 20
2.810486
 30
0.0
 10
5.900966
 20
2.886208
 30
0.0
 10
6.020556
 20
2.969989
 30
0.0
 10
6.134787
 20
3.061624
 30
0.0
 10
6.243235
 20
3.160909
 30
0.0
 10
6.345476
 20
3.267638
 30
0.0
 10
6.441083
 20
3.381606
 30
0.0
 10
6.529633
 20
3.502608
 30
0.0
 10
6.396974
 20
3.739320
 30
0.0
 10
6.238647
 20
3.956089
 30
0.0
 10
6.056934
 20
4.151202
 30
0.0
 10
5.854121
 20
4.322946
 30
0.0
 10
5.632490
 20
4.469607
 30
0.0
 10
5.394325
 20
4.589472
 30
0.0
 10
5.141911
 20
4.680828
 30
0.0
 10
4.877532
 20
4.741961
 30
0.0
 10
4.878633
 20
4.744993
 30
0.0
 10
4.849389
 20
4.761746
 30
0.0
 10
4.837789
 20
4.793389
 30
0.0
 10
4.843411
 20
4.816209
 30
0.0
 10
4.843129
 20
4.816492
 30
0.0
 10
4.875470
 20
4.902098
 30
0.0
 10
4.886566
 20
4.992936
 30
0.0
 10
4.878784
 20
5.070061
 30
0.0
 10
4.856480
 20
5.141896
 30
0.0
 10
4.821192
 20
5.206902
 30
0.0
 10
4.774460
 20
5.263540
 30
0.0
 10
4.717822
 20
5.310272
 30
0.0
 10
4.652816
 20
5.345559
 30
0.0
 10
4.580981
 20
5.367862
 30
0.0
 10
4.503856
 20
5.375644
 30
0.0
 10
4.503861
 20
5.375638
 30
0.0
  0
LWPOLYLINE
  5
10a
100
AcDbEntity
  8
Layer_1
 62
7
100
AcDbPolyline
 90
34
 70
0
 10
4.503861
 20
5.232929
 30
0.0
 10
4.552229
 20
5.228052
 30
0.0
 10
4.597279
 20
5.214068
 30
0.0
 10
4.638047
 20
5.191940
 30
0.0
 10
4.673566
 20
5.162634
 30
0.0
 10
4.702872
 20
5.127115
 30
0.0
 10
4.725000
 20
5.086348
 30
0.0
 10
4.738984
 20
5.041297
 30
0.0
 10
4.743860
 20
4.992929
 30
0.0
 10
4.738984
 20
4.944561
 30
0.0
 10
4.725000
 20
4.899511
 30
0.0
 10
4.702872
 20
4.858744
 30
0.0
 10
4.673566
 20
4.823225
 30
0.0
 10
4.638047
 20
4.793919
 30
0.0
 10
4.597279
 20
4.771791
 30
0.0
 10
4.552229
 20
4.757806
 30
0.0
 10
4.503861
 20
4.752930
 30
0.0
 10
4.455493
 20
4.757806
 30
0.0
 10
4.410443
 20
4.771791
 30
0.0
 10
4.369676
 20
4.793919
 30
0.0
 10
4.334157
 20
4.823225
 30
0.0
 10
4.304851
 20
4.858744
 30
0.0
 10
4.282723
 20
4.899511
 30
0.0
 10
4.268738
 20
4.944561
 30
0.0
 10
4.263862
 20
4.992929
 30
0.0
 10
4.268738
 20
5.041297
 30
0.0
 10
4.282723
 20
5.086348
 30
0.0
 10
4.304850
 20
5.127115
 30
0.0
 10
4.334156
 20
5.162634
 30
0.0
 10
4.369676
 20
5.191940
 30
0.0
 10
4.410443
 20
5.214068
 30
0.0
 10
4.455493
 20
5.228052
 30
0.0
 10
4.503861
 20
5.232929
 30
0.0
 10
4.503861
 20
5.232929
 30
0.0
  0
LWPOLYLINE
  5
10b
100
AcDbEntity
  8
Layer_1
 62
7
100
AcDbPolyline
 90
61
 70
0
 10
6.471066
 20
2.313481
 30
0.0
 10
6.455927
 20
2.419249
 30
0.0
 10
6.412141
 20
2.516712
 30
0.0
 10
6.284424
 20
2.608711
 30
0.0
 10
6.282937
 20
2.609755
 30
0.0
 10
6.186296
 20
2.654558
 30
0.0
 10
6.082990
 20
2.668386
 30
0.0
 10
5.980163
 20
2.651356
 30
0.0
 10
5.884959
 20
2.603583
 30
0.0
 10
5.882148
 20
2.601268
 30
0.0
 10
5.734556
 20
2.515498
 30
0.0
 10
5.534166
 20
2.414186
 30
0.0
 10
5.534110
 20
2.414186
 30
0.0
 10
5.307727
 20
2.308546
 30
0.0
 10
5.073223
 20
2.229256
 30
0.0
 10
4.832835
 20
2.176436
 30
0.0
 10
4.588798
 20
2.150201
 30
0.0
 10
4.343349
 20
2.150671
 30
0.0
 10
4.098725
 20
2.177962
 30
0.0
 10
3.857162
 20
2.232193
 30
0.0
 10
3.620897
 20
2.313481
 30
0.0
 10
3.614863
 20
2.163682
 30
0.0
 10
3.618733
 20
2.014991
 30
0.0
 10
3.632302
 20
1.867835
 30
0.0
 10
3.655364
 20
1.722637
 30
0.0
 10
3.687716
 20
1.579822
 30
0.0
 10
3.729152
 20
1.439816
 30
0.0
 10
3.779467
 20
1.303043
 30
0.0
 10
3.838455
 20
1.169929
 30
0.0
 10
3.905913
 20
1.040898
 30
0.0
 10
3.981635
 20
0.916376
 30
0.0
 10
4.065417
 20
0.796786
 30
0.0
 10
4.157052
 20
0.682555
 30
0.0
 10
4.256337
 20
0.574107
 30
0.0
 10
4.363065
 20
0.471866
 30
0.0
 10
4.477034
 20
0.376259
 30
0.0
 10
4.598036
 20
0.287709
 30
0.0
 10
4.834748
 20
0.420368
 30
0.0
 10
5.051517
 20
0.578695
 30
0.0
 10
5.246630
 20
0.760408
 30
0.0
 10
5.418374
 20
0.963221
 30
0.0
 10
5.565035
 20
1.184852
 30
0.0
 10
5.684900
 20
1.423017
 30
0.0
 10
5.776255
 20
1.675431
 30
0.0
 10
5.837389
 20
1.939810
 30
0.0
 10
5.840420
 20
1.938709
 30
0.0
 10
5.857173
 20
1.967953
 30
0.0
 10
5.888817
 20
1.979553
 30
0.0
 10
5.911637
 20
1.973931
 30
0.0
 10
5.911919
 20
1.974213
 30
0.0
 10
5.997526
 20
1.941872
 30
0.0
 10
6.088363
 20
1.930776
 30
0.0
 10
6.165489
 20
1.938558
 30
0.0
 10
6.237324
 20
1.960862
 30
0.0
 10
6.302330
 20
1.996149
 30
0.0
 10
6.358968
 20
2.042881
 30
0.0
 10
6.405699
 20
2.099520
 30
0.0
 10
6.440986
 20
2.164526
 30
0.0
 10
6.463290
 20
2.236361
 30
0.0
 10
6.471072
 20
2.313486
 30
0.0
 10
6.471066
 20
2.313481
 30
0.0
  0
LWPOLYLINE
  5
10c
100
AcDbEntity
  8
Layer_1
 62
7
100
AcDbPolyline
 90
34
 70
0
 10
6.328356
 20
2.313481
 30
0.0
 10
6.323480
 20
2.265113
 30
0.0
 10
6.309496
 20
2.220062
 30
0.0
 10
6.287368
 20
2.179295
 30
0.0
 10
6.258062
 20
2.143776
 30
0.0
 10
6.222542
 20
2.114470
 30
0.0
 10
6.181775
 20
2.092342
 30
0.0
 10
6.136725
 20
2.078358
 30
0.0
 10
6.088357
 20
2.073482
 30
0.0
 10
6.039989
 20
2.078358
 30
0.0
 10
5.994939
 20
2.092342
 30
0.0
 10
5.954171
 20
2.114470
 30
0.0
 10
5.918652
 20
2.143776
 30
0.0
 10
5.889346
 20
2.179295
 30
0.0
 10
5.867219
 20
2.220062
 30
0.0
 10
5.853234
 20
2.265113
 30
0.0
 10
5.848358
 20
2.313481
 30
0.0
 10
5.853234
 20
2.361849
 30
0.0
 10
5.867219
 20
2.406899
 30
0.0
 10
5.889346
 20
2.447666
 30
0.0
 10
5.918652
 20
2.483185
 30
0.0
 10
5.954171
 20
2.512491
 30
0.0
 10
5.994939
 20
2.534619
 30
0.0
 10
6.039989
 20
2.548604
 30
0.0
 10
6.088357
 20
2.553480
 30
0.0
 10
6.136725
 20
2.548604
 30
0.0
 10
6.181775
 20
2.534619
 30
0.0
 10
6.222542
 20
2.512491
 30
0.0
 10
6.258062
 20
2.483185
 30
0.0
 10
6.287368
 20
2.447666
 30
0.0
 10
6.309496
 20
2.406899
 30
0.0
 10
6.323480
 20
2.361849
 30
0.0
 10
6.328356
 20
2.313481
 30
0.0
 10
6.328356
 20
2.313481
 30
0.0
  0
LWPOLYLINE
  5
10d
100
AcDbEntity
  8
Layer_1
 62
7
100
AcDbPolyline
 90
61
 70
0
 10
0.651473
 20
0.670880
 30
0.0
 10
0.666612
 20
0.565112
 30
0.0
 10
0.710398
 20
0.467649
 30
0.0
 10
0.838114
 20
0.375650
 30
0.0
 10
0.839602
 20
0.374606
 30
0.0
 10
0.936243
 20
0.329803
 30
0.0
 10
1.039549
 20
0.315974
 30
0.0
 10
1.142375
 20
0.333005
 30
0.0
 10
1.237579
 20
0.380778
 30
0.0
 10
1.240390
 20
0.383092
 30
0.0
 10
1.387983
 20
0.468863
 30
0.0
 10
1.588372
 20
0.570175
 30
0.0
 10
1.588429
 20
0.570175
 30
0.0
 10
1.814812
 20
0.675815
 30
0.0
 10
2.049315
 20
0.755104
 30
0.0
 10
2.289704
 20
0.807925
 30
0.0
 10
2.533741
 20
0.834160
 30
0.0
 10
2.779190
 20
0.833690
 30
0.0
 10
3.023814
 20
0.806399
 30
0.0
 10
3.265377
 20
0.752168
 30
0.0
 10
3.501642
 20
0.670880
 30
0.0
 10
3.507676
 20
0.820679
 30
0.0
 10
3.503806
 20
0.969369
 30
0.0
 10
3.490237
 20
1.116526
 30
0.0
 10
3.467174
 20
1.261724
 30
0.0
 10
3.434823
 20
1.404539
 30
0.0
 10
3.393387
 20
1.544545
 30
0.0
 10
3.343072
 20
1.681317
 30
0.0
 10
3.284083
 20
1.814431
 30
0.0
 10
3.216625
 20
1.943462
 30
0.0
 10
3.140903
 20
2.067985
 30
0.0
 10
3.057122
 20
2.187575
 30
0.0
 10
2.965487
 20
2.301806
 30
0.0
 10
2.866202
 20
2.410254
 30
0.0
 10
2.759473
 20
2.512495
 30
0.0
 10
2.645505
 20
2.608102
 30
0.0
 10
2.524503
 20
2.696651
 30
0.0
 10
2.287791
 20
2.563993
 30
0.0
 10
2.071022
 20
2.405666
 30
0.0
 10
1.875909
 20
2.223953
 30
0.0
 10
1.704165
 20
2.021139
 30
0.0
 10
1.557504
 20
1.799508
 30
0.0
 10
1.437639
 20
1.561344
 30
0.0
 10
1.346283
 20
1.308930
 30
0.0
 10
1.285150
 20
1.044551
 30
0.0
 10
1.282118
 20
1.045651
 30
0.0
 10
1.265365
 20
1.016408
 30
0.0
 10
1.233722
 20
1.004808
 30
0.0
 10
1.210902
 20
1.010430
 30
0.0
 10
1.210619
 20
1.010148
 30
0.0
 10
1.125013
 20
1.042489
 30
0.0
 10
1.034176
 20
1.053585
 30
0.0
 10
0.957050
 20
1.045802
 30
0.0
 10
0.885215
 20
1.023498
 30
0.0
 10
0.820209
 20
0.988211
 30
0.0
 10
0.763571
 20
0.941479
 30
0.0
 10
0.716839
 20
0.884841
 30
0.0
 10
0.681552
 20
0.819835
 30
0.0
 10
0.659249
 20
0.748000
 30
0.0
 10
0.651467
 20
0.670874
 30
0.0
 10
0.651473
 20
0.670880
 30
0.0
  0
LWPOLYLINE
  5
10e
100
AcDbEntity
  8
Layer_1
 62
7
100
AcDbPolyline
 90
34
 70
0
 10
0.794183
 20
0.670880
 30
0.0
 10
0.799059
 20
0.719248
 30
0.0
 10
0.813043
 20
0.764298
 30
0.0
 10
0.835171
 20
0.805066
 30
0.0
 10
0.864477
 20
0.840585
 30
0.0
 10
0.899996
 20
0.869891
 30
0.0
 10
0.940763
 20
0.892018
 30
0.0
 10
0.985814
 20
0.906003
 30
0.0
 10
1.034182
 20
0.910879
 30
0.0
 10
1.082550
 20
0.906003
 30
0.0
 10
1.127600
 20
0.892018
 30
0.0
 10
1.168367
 20
0.869891
 30
0.0
 10
1.203886
 20
0.840585
 30
0.0
 10
1.233192
 20
0.805065
 30
0.0
 10
1.255320
 20
0.764298
 30
0.0
 10
1.269305
 20
0.719248
 30
0.0
 10
1.274181
 20
0.670880
 30
0.0
 10
1.269305
 20
0.622512
 30
0.0
 10
1.255320
 20
0.577462
 30
0.0
 10
1.233192
 20
0.536695
 30
0.0
 10
1.203886
 20
0.501175
 30
0.0
 10
1.168367
 20
0.471869
 30
0.0
 10
1.127600
 20
0.449742
 30
0.0
 10
1.082550
 20
0.435757
 30
0.0
 10
1.034182
 20
0.430881
 30
0.0
 10
0.985814
 20
0.435757
 30
0.0
 10
0.940763
 20
0.449742
 30
0.0
 10
0.899996
 20
0.471869
 30
0.0
 10
0.864477
 20
0.501175
 30
0.0
 10
0.835171
 20
0.536695
 30
0.0
 10
0.813043
 20
0.577462
 30
0.0
 10
0.799059
 20
0.622512
 30
0.0
 10
0.794183
 20
0.670880
 30
0.0
 10
0.794183
 20
0.670880
 30
0.0
  0
ENDSEC
  0
SECTION
  2
OBJECTS
  0
DICTIONARY
  5
C
330
0
100
AcDbDictionary
  3
ACAD_GROUP
350
D
  3
ACAD_MLINESTYLE
350
17
  0
DICTIONARY
  5
D
330
C
100
AcDbDictionary
  0
DICTIONARY
  5
1A
330
C
100
AcDbDictionary
  0
DICTIONARY
  5
17
330
C
100
AcDbDictionary
  3
STANDARD
350
18
  0
DICTIONARY
  5
19
330
C
100
AcDbDictionary
  0
ENDSEC
  0
EOF
