  0
SECTION
  2
HEADER
  9
$ACADVER
  1
AC1014
  9
$HANDSEED
  5
FFFF
  9
$MEASUREMENT
 70
     1
  0
ENDSEC
  0
SECTION
  2
TABLES
  0
TABLE
  2
VPORT
  5
8
330
0
100
AcDbSymbolTable
 70
     4
  0
VPORT
  5
2E
330
8
100
AcDbSymbolTableRecord
100
AcDbViewportTableRecord
  2
*ACTIVE
 70
     0
 10
0.0
 20
0.0
 11
1.0
 21
1.0
 12
210.0
 22
148.5
 13
0.0
 23
0.0
 14
10.0
 24
10.0
 15
10.0
 25
10.0
 16
0.0
 26
0.0
 36
1.0
 17
0.0
 27
0.0
 37
0.0
 40
341.0
 41
1.24
 42
50.0
 43
0.0
 44
0.0
 50
0.0
 51
0.0
 71
     0
 72
   100
 73
     1
 74
     3
 75
     0
 76
     0
 77
     0
 78
     0
  0
ENDTAB
  0
TABLE
  2
LTYPE
  5
5
330
0
100
AcDbSymbolTable
 70
     1
  0
LTYPE
  5
14
330
5
100
AcDbSymbolTableRecord
100
AcDbLinetypeTableRecord
  2
BYBLOCK
 70
     0
  3

 72
    65
 73
     0
 40
0.0
  0
LTYPE
  5
15
330
5
100
AcDbSymbolTableRecord
100
AcDbLinetypeTableRecord
  2
BYLAYER
 70
     0
  3

 72
    65
 73
     0
 40
0.0
  0
LTYPE
  5
16
330
5
100
AcDbSymbolTableRecord
100
AcDbLinetypeTableRecord
  2
CONTINUOUS
 70
     0
  3
Solid line
 72
    65
 73
     0
 40
0.0
  0
ENDTAB
  0
TABLE
  2
LAYER
  5
2
100
AcDbSymbolTable
 70
2
  0
LAYER
  5
50
100
AcDbSymbolTableRecord
100
AcDbLayerTableRecord
  2
0
 70
0
  6
CONTINUOUS
  0
LAYER
  5
51
100
AcDbSymbolTableRecord
100
AcDbLayerTableRecord
  2
Layer_1
 70
0
  6
CONTINUOUS
  0
ENDTAB
  0
TABLE
  2
STYLE
  5
3
330
0
100
AcDbSymbolTable
 70
     1
  0
STYLE
  5
11
330
3
100
AcDbSymbolTableRecord
100
AcDbTextStyleTableRecord
  2
STANDARD
 70
     0
 40
0.0
 41
1.0
 50
0.0
 71
     0
 42
2.5
  3
txt
  4

  0
ENDTAB
  0
TABLE
  2
VIEW
  5
6
330
0
100
AcDbSymbolTable
 70
     0
  0
ENDTAB
  0
TABLE
  2
UCS
  5
7
330
0
100
AcDbSymbolTable
 70
     0
  0
ENDTAB
  0
TABLE
  2
APPID
  5
9
330
0
100
AcDbSymbolTable
 70
     2
  0
APPID
  5
12
330
9
100
AcDbSymbolTableRecord
100
AcDbRegAppTableRecord
  2
ACAD
 70
     0
  0
ENDTAB
  0
TABLE
  2
DIMSTYLE
  5
A
330
0
100
AcDbSymbolTable
 70
     1
  0
DIMSTYLE
105
27
330
A
100
AcDbSymbolTableRecord
100
AcDbDimStyleTableRecord
  2
ISO-25
 70
     0
  3

  4

  5

  6

  7

 40
1.0
 41
2.5
 42
0.625
 43
3.75
 44
1.25
 45
0.0
 46
0.0
 47
0.0
 48
0.0
140
2.5
141
2.5
142
0.0
143
0.03937007874016
144
1.0
145
0.0
146
1.0
147
0.625
 71
     0
 72
     0
 73
     0
 74
     0
 75
     0
 76
     0
 77
     1
 78
     8
170
     0
171
     3
172
     1
173
     0
174
     0
175
     0
176
     0
177
     0
178
     0
270
     2
271
     2
272
     2
273
     2
274
     3
340
11
275
     0
280
     0
281
     0
282
     0
283
     0
284
     8
285
     0
286
     0
287
     3
288
     0
  0
ENDTAB
  0
TABLE
  2
BLOCK_RECORD
  5
1
330
0
100
AcDbSymbolTable
 70
     1
  0
BLOCK_RECORD
  5
1F
330
1
100
AcDbSymbolTableRecord
100
AcDbBlockTableRecord
  2
*MODEL_SPACE
  0
BLOCK_RECORD
  5
1B
330
1
100
AcDbSymbolTableRecord
100
AcDbBlockTableRecord
  2
*PAPER_SPACE
  0
ENDTAB
  0
ENDSEC
  0
SECTION
  2
BLOCKS
  0
BLOCK
  5
20
330
1F
100
AcDbEntity
  8
0
100
AcDbBlockBegin
  2
*MODEL_SPACE
 70
     0
 10
0.0
 20
0.0
 30
0.0
  3
*MODEL_SPACE
  1

  0
ENDBLK
  5
21
330
1F
100
AcDbEntity
  8
0
100
AcDbBlockEnd
  0
BLOCK
  5
1C
330
1B
100
AcDbEntity
 67
     1
  8
0
100
AcDbBlockBegin
  2
*PAPER_SPACE
  1

  0
ENDBLK
  5
1D
330
1B
100
AcDbEntity
 67
     1
  8
0
100
AcDbBlockEnd
  0
ENDSEC
  0
SECTION
  2
ENTITIES
  0
LWPOLYLINE
  5
100
100
AcDbEntity
  8
Layer_1
 62
7
100
AcDbPolyline
 90
343
 70
0
 10
3.767528
 20
5.728806
 30
0.0
 10
3.767528
 20
5.728722
 30
0.0
 10
3.705618
 20
5.724568
 30
0.0
 10
3.646336
 20
5.710815
 30
0.0
 10
3.590617
 20
5.688134
 30
0.0
 10
3.539397
 20
5.657194
 30
0.0
 10
3.493611
 20
5.618665
 30
0.0
 10
3.454195
 20
5.573218
 30
0.0
 10
3.422084
 20
5.521522
 30
0.0
 10
3.398215
 20
5.464248
 30
0.0
 10
3.398215
 20
5.464078
 30
0.0
 10
3.397933
 20
5.464078
 30
0.0
 10
3.351632
 20
5.321533
 30
0.0
 10
3.176303
 20
5.342338
 30
0.0
 10
2.999907
 20
5.349921
 30
0.0
 10
2.769728
 20
5.338355
 30
0.0
 10
2.543405
 20
5.304616
 30
0.0
 10
2.322441
 20
5.249322
 30
0.0
 10
2.108337
 20
5.173090
 30
0.0
 10
1.902595
 20
5.076540
 30
0.0
 10
1.706717
 20
4.960288
 30
0.0
 10
1.522205
 20
4.824954
 30
0.0
 10
1.350560
 20
4.671154
 30
0.0
 10
1.229292
 20
4.759349
 30
0.0
 10
1.229010
 20
4.759521
 30
0.0
 10
1.180069
 20
4.789748
 30
0.0
 10
1.127452
 20
4.812195
 30
0.0
 10
1.072077
 20
4.826551
 30
0.0
 10
1.014863
 20
4.832502
 30
0.0
 10
1.014863
 20
4.832597
 30
0.0
 10
0.921970
 20
4.823846
 30
0.0
 10
0.835148
 20
4.793457
 30
0.0
 10
0.758079
 20
4.743240
 30
0.0
 10
0.694442
 20
4.675005
 30
0.0
 10
0.655387
 20
4.608034
 30
0.0
 10
0.631193
 20
4.536805
 30
0.0
 10
0.621520
 20
4.463467
 30
0.0
 10
0.626027
 20
4.390170
 30
0.0
 10
0.644375
 20
4.319063
 30
0.0
 10
0.676222
 20
4.252296
 30
0.0
 10
0.721229
 20
4.192019
 30
0.0
 10
0.779055
 20
4.140381
 30
0.0
 10
0.779337
 20
4.140209
 30
0.0
 10
0.779337
 20
4.140113
 30
0.0
 10
0.899722
 20
4.052635
 30
0.0
 10
0.791546
 20
3.801727
 30
0.0
 10
0.713436
 20
3.540848
 30
0.0
 10
0.666031
 20
3.272685
 30
0.0
 10
0.649966
 20
2.999923
 30
0.0
 10
0.666517
 20
2.727400
 30
0.0
 10
0.714353
 20
2.459523
 30
0.0
 10
0.792834
 20
2.198972
 30
0.0
 10
0.901319
 20
1.948425
 30
0.0
 10
0.779337
 20
1.859845
 30
0.0
 10
0.779055
 20
1.859732
 30
0.0
 10
0.721222
 20
1.808100
 30
0.0
 10
0.676208
 20
1.747827
 30
0.0
 10
0.644353
 20
1.681062
 30
0.0
 10
0.625998
 20
1.609956
 30
0.0
 10
0.621484
 20
1.536657
 30
0.0
 10
0.631151
 20
1.463317
 30
0.0
 10
0.655338
 20
1.392084
 30
0.0
 10
0.694388
 20
1.325109
 30
0.0
 10
0.746020
 20
1.267276
 30
0.0
 10
0.806293
 20
1.222262
 30
0.0
 10
0.873058
 20
1.190408
 30
0.0
 10
0.944164
 20
1.172053
 30
0.0
 10
1.017462
 20
1.167539
 30
0.0
 10
1.090803
 20
1.177205
 30
0.0
 10
1.162035
 20
1.201393
 30
0.0
 10
1.229010
 20
1.240442
 30
0.0
 10
1.229010
 20
1.240612
 30
0.0
 10
1.229292
 20
1.240527
 30
0.0
 10
1.349677
 20
1.328005
 30
0.0
 10
1.521444
 20
1.174225
 30
0.0
 10
1.706079
 20
1.038928
 30
0.0
 10
1.902078
 20
0.922733
 30
0.0
 10
2.107938
 20
0.826257
 30
0.0
 10
2.322154
 20
0.750117
 30
0.0
 10
2.543224
 20
0.694933
 30
0.0
 10
2.769642
 20
0.661321
 30
0.0
 10
2.999907
 20
0.649900
 30
0.0
 10
3.176187
 20
0.658015
 30
0.0
 10
3.351361
 20
0.679335
 30
0.0
 10
3.397992
 20
0.535853
 30
0.0
 10
3.397992
 20
0.535571
 30
0.0
 10
3.429223
 20
0.464629
 30
0.0
 10
3.472629
 20
0.403204
 30
0.0
 10
3.526272
 20
0.352285
 30
0.0
 10
3.588213
 20
0.312859
 30
0.0
 10
3.656514
 20
0.285914
 30
0.0
 10
3.729238
 20
0.272437
 30
0.0
 10
3.804445
 20
0.273416
 30
0.0
 10
3.880197
 20
0.289840
 30
0.0
 10
3.949253
 20
0.320083
 30
0.0
 10
4.010500
 20
0.362815
 30
0.0
 10
4.062286
 20
0.416626
 30
0.0
 10
4.102956
 20
0.480102
 30
0.0
 10
4.130400
 20
0.550318
 30
0.0
 10
4.143489
 20
0.623843
 30
0.0
 10
4.142056
 20
0.698510
 30
0.0
 10
4.125928
 20
0.772153
 30
0.0
 10
4.125928
 20
0.772322
 30
0.0
 10
4.125928
 20
0.772492
 30
0.0
 10
4.079847
 20
0.914429
 30
0.0
 10
4.044733
 20
0.982229
 30
0.0
 10
3.790623
 20
0.871820
 30
0.0
 10
3.850687
 20
0.855118
 30
0.0
 10
3.902743
 20
0.822984
 30
0.0
 10
3.943952
 20
0.777772
 30
0.0
 10
3.971479
 20
0.721835
 30
0.0
 10
3.980754
 20
0.679493
 30
0.0
 10
3.981580
 20
0.636562
 30
0.0
 10
3.974055
 20
0.594287
 30
0.0
 10
3.958278
 20
0.553915
 30
0.0
 10
3.934895
 20
0.517417
 30
0.0
 10
3.905121
 20
0.486478
 30
0.0
 10
3.869906
 20
0.461907
 30
0.0
 10
3.830201
 20
0.444518
 30
0.0
 10
3.787860
 20
0.435243
 30
0.0
 10
3.744929
 20
0.434417
 30
0.0
 10
3.702654
 20
0.441941
 30
0.0
 10
3.662282
 20
0.457718
 30
0.0
 10
3.625784
 20
0.481102
 30
0.0
 10
3.594844
 20
0.510875
 30
0.0
 10
3.570274
 20
0.546090
 30
0.0
 10
3.552884
 20
0.585794
 30
0.0
 10
3.542299
 20
0.646785
 30
0.0
 10
3.548847
 20
0.707189
 30
0.0
 10
3.571649
 20
0.763505
 30
0.0
 10
3.609825
 20
0.812234
 30
0.0
 10
3.469784
 20
0.777525
 30
0.0
 10
3.327823
 20
0.751766
 30
0.0
 10
3.328162
 20
0.750719
 30
0.0
 10
3.272711
 20
0.745096
 30
0.0
 10
3.127796
 20
0.730324
 30
0.0
 10
2.999915
 20
0.724701
 30
0.0
 10
2.796244
 20
0.734826
 30
0.0
 10
2.594697
 20
0.763072
 30
0.0
 10
2.396481
 20
0.809216
 30
0.0
 10
2.202801
 20
0.873033
 30
0.0
 10
2.007554
 20
0.956786
 30
0.0
 10
1.821369
 20
1.058155
 30
0.0
 10
1.645432
 20
1.176421
 30
0.0
 10
1.480930
 20
1.310864
 30
0.0
 10
1.412138
 20
1.373426
 30
0.0
 10
1.413070
 20
1.374089
 30
0.0
 10
1.313173
 20
1.479407
 30
0.0
 10
1.220199
 20
1.590883
 30
0.0
 10
1.223041
 20
1.528435
 30
0.0
 10
1.208635
 20
1.468816
 30
0.0
 10
1.178347
 20
1.415481
 30
0.0
 10
1.133546
 20
1.371885
 30
0.0
 10
1.095041
 20
1.349440
 30
0.0
 10
1.054090
 20
1.335536
 30
0.0
 10
0.969790
 20
1.332576
 30
0.0
 10
0.890528
 20
1.361438
 30
0.0
 10
0.855877
 20
1.387313
 30
0.0
 10
0.826191
 20
1.420558
 30
0.0
 10
0.804284
 20
1.457962
 30
0.0
 10
0.790230
 20
1.498538
 30
0.0
 10
0.784322
 20
1.541071
 30
0.0
 10
0.786851
 20
1.584345
 30
0.0
 10
0.797813
 20
1.626284
 30
0.0
 10
0.816570
 20
1.664912
 30
0.0
 10
0.842470
 20
1.699162
 30
0.0
 10
0.874861
 20
1.727970
 30
0.0
 10
0.933267
 20
1.758223
 30
0.0
 10
0.998006
 20
1.769863
 30
0.0
 10
1.054394
 20
1.764015
 30
0.0
 10
1.107417
 20
1.743956
 30
0.0
 10
1.030909
 20
1.866065
 30
0.0
 10
0.962287
 20
1.992774
 30
0.0
 10
0.961413
 20
1.992111
 30
0.0
 10
0.921393
 20
2.084219
 30
0.0
 10
0.876636
 20
2.187186
 30
0.0
 10
0.832595
 20
2.319698
 30
0.0
 10
0.806741
 20
2.400230
 30
0.0
 10
0.769645
 20
2.565540
 30
0.0
 10
0.758179
 20
2.619118
 30
0.0
 10
0.734808
 20
2.811547
 30
0.0
 10
0.731337
 20
2.843021
 30
0.0
 10
0.724721
 20
2.999898
 30
0.0
 10
0.735216
 20
3.201429
 30
0.0
 10
0.763527
 20
3.401238
 30
0.0
 10
0.793736
 20
3.542688
 30
0.0
 10
0.832832
 20
3.681794
 30
0.0
 10
0.880684
 20
3.818135
 30
0.0
 10
0.937158
 20
3.951295
 30
0.0
 10
0.962736
 20
4.006803
 30
0.0
 10
0.963611
 20
4.006141
 30
0.0
 10
1.032693
 20
4.133905
 30
0.0
 10
1.109791
 20
4.256999
 30
0.0
 10
1.051292
 20
4.235025
 30
0.0
 10
0.990159
 20
4.230318
 30
0.0
 10
0.930097
 20
4.242644
 30
0.0
 10
0.874810
 20
4.271772
 30
0.0
 10
0.842419
 20
4.300579
 30
0.0
 10
0.816519
 20
4.334830
 30
0.0
 10
0.797761
 20
4.373458
 30
0.0
 10
0.786799
 20
4.415397
 30
0.0
 10
0.784269
 20
4.458671
 30
0.0
 10
0.790177
 20
4.501203
 30
0.0
 10
0.804230
 20
4.541780
 30
0.0
 10
0.826138
 20
4.579184
 30
0.0
 10
0.859721
 20
4.615852
 30
0.0
 10
0.900143
 20
4.643752
 30
0.0
 10
0.945744
 20
4.661996
 30
0.0
 10
0.994867
 20
4.669694
 30
0.0
 10
1.067749
 20
4.660513
 30
0.0
 10
1.133548
 20
4.627857
 30
0.0
 10
1.177764
 20
4.584994
 30
0.0
 10
1.207934
 20
4.532608
 30
0.0
 10
1.222727
 20
4.473993
 30
0.0
 10
1.220806
 20
4.412442
 30
0.0
 10
1.312755
 20
4.522664
 30
0.0
 10
1.411475
 20
4.626865
 30
0.0
 10
1.410600
 20
4.627527
 30
0.0
 10
1.576532
 20
4.774504
 30
0.0
 10
1.754673
 20
4.903777
 30
0.0
 10
1.943594
 20
5.014763
 30
0.0
 10
2.141867
 20
5.106882
 30
0.0
 10
2.348065
 20
5.179551
 30
0.0
 10
2.560758
 20
5.232188
 30
0.0
 10
2.778520
 20
5.264212
 30
0.0
 10
2.999921
 20
5.275040
 30
0.0
 10
3.123336
 20
5.267764
 30
0.0
 10
3.271943
 20
5.255802
 30
0.0
 10
3.327894
 20
5.248416
 30
0.0
 10
3.327555
 20
5.247369
 30
0.0
 10
3.470990
 20
5.220769
 30
0.0
 10
3.612425
 20
5.185027
 30
0.0
 10
3.572973
 20
5.233917
 30
0.0
 10
3.549259
 20
5.290799
 30
0.0
 10
3.542231
 20
5.352025
 30
0.0
 10
3.552839
 20
5.413946
 30
0.0
 10
3.586029
 20
5.477945
 30
0.0
 10
3.636670
 20
5.526744
 30
0.0
 10
3.700104
 20
5.557108
 30
0.0
 10
3.771671
 20
5.565805
 30
0.0
 10
3.830153
 20
5.555278
 30
0.0
 10
3.869858
 20
5.537888
 30
0.0
 10
3.905073
 20
5.513318
 30
0.0
 10
3.934847
 20
5.482378
 30
0.0
 10
3.958230
 20
5.445881
 30
0.0
 10
3.974008
 20
5.405508
 30
0.0
 10
3.981532
 20
5.363234
 30
0.0
 10
3.980706
 20
5.320303
 30
0.0
 10
3.971431
 20
5.277961
 30
0.0
 10
3.944062
 20
5.222292
 30
0.0
 10
3.903130
 20
5.177225
 30
0.0
 10
3.851424
 20
5.145084
 30
0.0
 10
3.791735
 20
5.128196
 30
0.0
 10
3.925706
 20
5.074322
 30
0.0
 10
4.055988
 20
5.012054
 30
0.0
 10
4.056326
 20
5.013101
 30
0.0
 10
4.067406
 20
5.006598
 30
0.0
 10
4.194406
 20
4.931687
 30
0.0
 10
4.263418
 20
4.889354
 30
0.0
 10
4.375590
 20
4.807113
 30
0.0
 10
4.447193
 20
4.752653
 30
0.0
 10
4.543326
 20
4.666112
 30
0.0
 10
4.616142
 20
4.598312
 30
0.0
 10
4.696895
 20
4.509512
 30
0.0
 10
4.768827
 20
4.427601
 30
0.0
 10
4.833485
 20
4.340454
 30
0.0
 10
4.903820
 20
4.242006
 30
0.0
 10
4.953209
 20
4.159324
 30
0.0
 10
5.019356
 20
4.044010
 30
0.0
 10
5.055184
 20
3.967447
 30
0.0
 10
5.114386
 20
3.835265
 30
0.0
 10
5.138307
 20
3.767080
 30
0.0
 10
5.187916
 20
3.617866
 30
0.0
 10
5.201917
 20
3.560043
 30
0.0
 10
5.242433
 20
3.382718
 30
0.0
 10
5.241332
 20
3.382718
 30
0.0
 10
5.260350
 20
3.241540
 30
0.0
 10
5.270492
 20
3.099448
 30
0.0
 10
5.305310
 20
3.149473
 30
0.0
 10
5.351579
 20
3.187443
 30
0.0
 10
5.406362
 20
3.211553
 30
0.0
 10
5.466723
 20
3.219999
 30
0.0
 10
5.509858
 20
3.215727
 30
0.0
 10
5.550941
 20
3.203239
 30
0.0
 10
5.588818
 20
3.183012
 30
0.0
 10
5.622333
 20
3.155525
 30
0.0
 10
5.649812
 20
3.122002
 30
0.0
 10
5.670030
 20
3.084121
 30
0.0
 10
5.682508
 20
3.043035
 30
0.0
 10
5.686769
 20
2.999899
 30
0.0
 10
5.682296
 20
2.955554
 30
0.0
 10
5.669472
 20
2.914250
 30
0.0
 10
5.622314
 20
2.844308
 30
0.0
 10
5.552372
 20
2.797150
 30
0.0
 10
5.511069
 20
2.784327
 30
0.0
 10
5.466723
 20
2.779853
 30
0.0
 10
5.405242
 20
2.788701
 30
0.0
 10
5.349675
 20
2.813765
 30
0.0
 10
5.303106
 20
2.853098
 30
0.0
 10
5.268618
 20
2.904759
 30
0.0
 10
5.241056
 20
2.630254
 30
0.0
 10
5.319824
 20
2.617245
 30
0.0
 10
5.466393
 20
2.617245
 30
0.0
 10
5.466675
 20
2.617160
 30
0.0
 10
5.541699
 20
2.624580
 30
0.0
 10
5.613155
 20
2.646292
 30
0.0
 10
5.679036
 20
2.681464
 30
0.0
 10
5.737335
 20
2.729265
 30
0.0
 10
5.785135
 20
2.787563
 30
0.0
 10
5.820307
 20
2.853444
 30
0.0
 10
5.842019
 20
2.924901
 30
0.0
 10
5.849439
 20
2.999924
 30
0.0
 10
5.841656
 20
3.077057
 30
0.0
 10
5.819348
 20
3.148898
 30
0.0
 10
5.784055
 20
3.213908
 30
0.0
 10
5.737315
 20
3.270548
 30
0.0
 10
5.680669
 20
3.317279
 30
0.0
 10
5.615654
 20
3.352563
 30
0.0
 10
5.543810
 20
3.374861
 30
0.0
 10
5.466675
 20
3.382633
 30
0.0
 10
5.466393
 20
3.382729
 30
0.0
 10
5.315802
 20
3.382729
 30
0.0
 10
5.255083
 20
3.651755
 30
0.0
 10
5.164341
 20
3.909216
 30
0.0
 10
5.045193
 20
4.152881
 30
0.0
 10
4.899260
 20
4.380520
 30
0.0
 10
4.728159
 20
4.589900
 30
0.0
 10
4.533508
 20
4.778792
 30
0.0
 10
4.316927
 20
4.944963
 30
0.0
 10
4.080033
 20
5.086183
 30
0.0
 10
4.125948
 20
5.227570
 30
0.0
 10
4.125948
 20
5.227796
 30
0.0
 10
4.142382
 20
5.303555
 30
0.0
 10
4.143369
 20
5.378771
 30
0.0
 10
4.129897
 20
5.451503
 30
0.0
 10
4.102952
 20
5.519813
 30
0.0
 10
4.063524
 20
5.581762
 30
0.0
 10
4.012600
 20
5.635411
 30
0.0
 10
3.951168
 20
5.678822
 30
0.0
 10
3.880217
 20
5.710054
 30
0.0
 10
3.824531
 20
5.723660
 30
0.0
 10
3.767438
 20
5.728796
 30
0.0
 10
3.767528
 20
5.728806
 30
0.0
  0
LWPOLYLINE
  5
101
100
AcDbEntity
  8
Layer_1
 62
7
100
AcDbPolyline
 90
8
 70
1
 10
6.749943
 20
5.999948
 30
0.0
 10
6.749943
 20
5.249943
 30
0.0
 10
6.728692
 20
5.249944
 30
0.0
 10
6.728692
 20
5.978659
 30
0.0
 10
5.999937
 20
5.978658
 30
0.0
 10
5.999937
 20
5.999948
 30
0.0
 10
6.749943
 20
5.999948
 30
0.0
 10
6.749943
 20
5.999948
 30
0.0
  0
LWPOLYLINE
  5
102
100
AcDbEntity
  8
Layer_1
 62
7
100
AcDbPolyline
 90
9
 70
1
 10
0.750006
 20
5.999948
 30
0.0
 10
0.750006
 20
5.978659
 30
0.0
 10
0.021249
 20
5.978658
 30
0.0
 10
0.021249
 20
5.249944
 30
0.0
 10
0.000000
 20
5.249943
 30
0.0
 10
0.000000
 20
5.989282
 30
0.0
 10
0.000000
 20
5.999948
 30
0.0
 10
0.750006
 20
5.999948
 30
0.0
 10
0.750006
 20
5.999948
 30
0.0
  0
LWPOLYLINE
  5
103
100
AcDbEntity
  8
Layer_1
 62
7
100
AcDbPolyline
 90
8
 70
1
 10
6.749935
 20
0.599979
 30
0.0
 10
6.749935
 20
0.000001
 30
0.0
 10
5.999932
 20
-0.000000
 30
0.0
 10
5.999932
 20
0.021249
 30
0.0
 10
6.728686
 20
0.021250
 30
0.0
 10
6.728686
 20
0.599979
 30
0.0
 10
6.749935
 20
0.599979
 30
0.0
 10
6.749935
 20
0.599979
 30
0.0
  0
LWPOLYLINE
  5
104
100
AcDbEntity
  8
Layer_1
 62
7
100
AcDbPolyline
 90
8
 70
1
 10
0.021249
 20
0.599980
 30
0.0
 10
0.021249
 20
0.021249
 30
0.0
 10
0.750006
 20
0.021249
 30
0.0
 10
0.750006
 20
-0.000000
 30
0.0
 10
0.000000
 20
-0.000000
 30
0.0
 10
0.000000
 20
0.599979
 30
0.0
 10
0.021249
 20
0.599980
 30
0.0
 10
0.021249
 20
0.599980
 30
0.0
  0
ENDSEC
  0
SECTION
  2
OBJECTS
  0
DICTIONARY
  5
C
330
0
100
AcDbDictionary
  3
ACAD_GROUP
350
D
  3
ACAD_MLINESTYLE
350
17
  0
DICTIONARY
  5
D
330
C
100
AcDbDictionary
  0
DICTIONARY
  5
1A
330
C
100
AcDbDictionary
  0
DICTIONARY
  5
17
330
C
100
AcDbDictionary
  3
STANDARD
350
18
  0
DICTIONARY
  5
19
330
C
100
AcDbDictionary
  0
ENDSEC
  0
EOF
