solid OpenSCAD_Model
  facet normal 0 0 -1
    outer loop
      vertex 10.3418 10.7324 0
      vertex 5.06836 11.1914 0
      vertex 10.3809 11.6992 0
    endloop
  endfacet
  facet normal 0 0 -1
    outer loop
      vertex 9.22852 7.87109 0
      vertex 5.20508 9.41406 0
      vertex 9.79492 8.82812 0
    endloop
  endfacet
  facet normal 0 0 -1
    outer loop
      vertex 5.20508 9.41406 0
      vertex 5.06836 11.1914 0
      vertex 10.1562 9.78516 0
    endloop
  endfacet
  facet normal -0 0 -1
    outer loop
      vertex 9.22852 7.87109 0
      vertex 8.42773 6.9043 0
      vertex 5.20508 9.41406 0
    endloop
  endfacet
  facet normal 0 -0 -1
    outer loop
      vertex 21.6113 13.457 0
      vertex 21.9629 7.48047 0
      vertex 13.5449 10.3027 0
    endloop
  endfacet
  facet normal -0 0 -1
    outer loop
      vertex 18.7988 16.582 0
      vertex 13.3789 14.3066 0
      vertex 17.1875 17.9297 0
    endloop
  endfacet
  facet normal -0 0 -1
    outer loop
      vertex 21.6113 13.457 0
      vertex 13.6523 11.6992 0
      vertex 20.2734 15.0879 0
    endloop
  endfacet
  facet normal 0 0 -1
    outer loop
      vertex 21.9629 7.48047 0
      vertex 21.6113 13.457 0
      vertex 22.793 11.709 0
    endloop
  endfacet
  facet normal 0 0 -1
    outer loop
      vertex 13.584 13.0566 0
      vertex 20.2734 15.0879 0
      vertex 13.6523 11.6992 0
    endloop
  endfacet
  facet normal 0 0 -1
    outer loop
      vertex 13.5449 10.3027 0
      vertex 13.6523 11.6992 0
      vertex 21.6113 13.457 0
    endloop
  endfacet
  facet normal -0 0 -1
    outer loop
      vertex 22.9199 8.62305 0
      vertex 21.9629 7.48047 0
      vertex 22.793 11.709 0
    endloop
  endfacet
  facet normal 0 0 -1
    outer loop
      vertex 18.7988 16.582 0
      vertex 13.584 13.0566 0
      vertex 13.3789 14.3066 0
    endloop
  endfacet
  facet normal 0 0 -1
    outer loop
      vertex 22.793 11.709 0
      vertex 23.8086 9.83398 0
      vertex 22.9199 8.62305 0
    endloop
  endfacet
  facet normal 0 0 -1
    outer loop
      vertex 10.1562 9.78516 0
      vertex 9.79492 8.82812 0
      vertex 5.20508 9.41406 0
    endloop
  endfacet
  facet normal -0 0 -1
    outer loop
      vertex 10.1367 13.6426 0
      vertex 4.79492 12.9492 0
      vertex 9.87305 14.6191 0
    endloop
  endfacet
  facet normal -0 0 -1
    outer loop
      vertex 10.3809 11.6992 0
      vertex 5.06836 11.1914 0
      vertex 10.3125 12.666 0
    endloop
  endfacet
  facet normal 0 0 -1
    outer loop
      vertex 5.20508 7.62695 0
      vertex 5.20508 9.41406 0
      vertex 8.42773 6.9043 0
    endloop
  endfacet
  facet normal 0 0 -1
    outer loop
      vertex 9.87305 14.6191 0
      vertex 4.38477 14.6875 0
      vertex 9.15039 16.543 0
    endloop
  endfacet
  facet normal 0 0 -1
    outer loop
      vertex 10.1562 9.78516 0
      vertex 5.06836 11.1914 0
      vertex 10.3418 10.7324 0
    endloop
  endfacet
  facet normal 0 0 -1
    outer loop
      vertex 18.7207 4.50195 0
      vertex 13.2129 8.88672 0
      vertex 19.8633 5.41992 0
    endloop
  endfacet
  facet normal -0 0 -1
    outer loop
      vertex 9.15039 16.543 0
      vertex 3.82812 16.3867 0
      vertex 7.55859 20.127 0
    endloop
  endfacet
  facet normal 0 0 -1
    outer loop
      vertex 7.35352 5.9375 0
      vertex 5.20508 7.62695 0
      vertex 8.42773 6.9043 0
    endloop
  endfacet
  facet normal -0 0 -1
    outer loop
      vertex 8.51562 22.2363 0
      vertex 8.19336 22.0898 0
      vertex 7.83203 22.6953 0
    endloop
  endfacet
  facet normal 0 -0 -1
    outer loop
      vertex 7.83203 22.6953 0
      vertex 8.19336 22.0898 0
      vertex 7.29492 22.2559 0
    endloop
  endfacet
  facet normal 0 0 -1
    outer loop
      vertex 7.29492 22.2559 0
      vertex 7.67578 21.6309 0
      vertex 7.50977 21.2793 0
    endloop
  endfacet
  facet normal 0 -0 -1
    outer loop
      vertex 8.41797 22.9297 0
      vertex 8.51562 22.2363 0
      vertex 7.83203 22.6953 0
    endloop
  endfacet
  facet normal -0 0 -1
    outer loop
      vertex 10.0488 22.6465 0
      vertex 9.24805 22.2363 0
      vertex 9.43359 22.9102 0
    endloop
  endfacet
  facet normal 0 0 -1
    outer loop
      vertex 10.0488 22.6465 0
      vertex 9.98047 21.8457 0
      vertex 9.24805 22.2363 0
    endloop
  endfacet
  facet normal 0 0 -1
    outer loop
      vertex 4.48242 26.9434 0
      vertex 4.0332 27.0898 0
      vertex 5.03906 28.2617 0
    endloop
  endfacet
  facet normal -0 0 -1
    outer loop
      vertex 3.54492 27.1387 0
      vertex 3.06641 27.0898 0
      vertex 3.54492 28.5645 0
    endloop
  endfacet
  facet normal 0 0 -1
    outer loop
      vertex 5.24414 26.4355 0
      vertex 6.25977 27.4414 0
      vertex 6.71875 26.875 0
    endloop
  endfacet
  facet normal -0 0 -1
    outer loop
      vertex 3.06641 27.0898 0
      vertex 2.61719 26.9434 0
      vertex 2.4707 28.4082 0
    endloop
  endfacet
  facet normal -0 0 -1
    outer loop
      vertex 5.03906 28.2617 0
      vertex 4.0332 27.0898 0
      vertex 4.31641 28.4863 0
    endloop
  endfacet
  facet normal -0 0 -1
    outer loop
      vertex 2.20703 26.7285 0
      vertex 1.85547 26.4355 0
      vertex 1.52344 27.9785 0
    endloop
  endfacet
  facet normal -0 0 -1
    outer loop
      vertex 1.85547 26.4355 0
      vertex 1.5625 26.0742 0
      vertex 0.585938 26.6797 0
    endloop
  endfacet
  facet normal -0 0 -1
    outer loop
      vertex 2.61719 26.9434 0
      vertex 2.20703 26.7285 0
      vertex 1.52344 27.9785 0
    endloop
  endfacet
  facet normal 0 0 -1
    outer loop
      vertex 1.43555 21.3672 0
      vertex 1.85547 23.0371 0
      vertex 2.20703 22.7441 0
    endloop
  endfacet
  facet normal 0 0 -1
    outer loop
      vertex 0.166016 23.6523 0
      vertex 1.33789 23.7988 0
      vertex 0.644531 22.7051 0
    endloop
  endfacet
  facet normal 0 0 -1
    outer loop
      vertex 1.20117 25.2148 0
      vertex 1.15234 24.7363 0
      vertex 0 24.6777 0
    endloop
  endfacet
  facet normal 0 0 -1
    outer loop
      vertex 5.53711 26.0742 0
      vertex 5.24414 26.4355 0
      vertex 6.71875 26.875 0
    endloop
  endfacet
  facet normal 0 0 -1
    outer loop
      vertex 4.39453 2.51953 0
      vertex 5.49805 4.49219 0
      vertex 5.24414 3.19336 0
    endloop
  endfacet
  facet normal 0 0 -1
    outer loop
      vertex 6.5332 0.0390625 0
      vertex 6.5918 1.91406 0
      vertex 6.98242 1.9043 0
    endloop
  endfacet
  facet normal 0 0 -1
    outer loop
      vertex 5.76172 23.7988 0
      vertex 5.89844 24.248 0
      vertex 7.26562 23.8281 0
    endloop
  endfacet
  facet normal 0 -0 -1
    outer loop
      vertex 5.53711 23.3887 0
      vertex 6.88477 22.7441 0
      vertex 5.24414 23.0371 0
    endloop
  endfacet
  facet normal 0 0 -1
    outer loop
      vertex 6.5332 0.0390625 0
      vertex 6.98242 1.9043 0
      vertex 8.00781 0.175781 0
    endloop
  endfacet
  facet normal 0 -0 -1
    outer loop
      vertex 4.48242 22.5195 0
      vertex 7.45117 20.5078 0
      vertex 4.0332 22.3828 0
    endloop
  endfacet
  facet normal 0 -0 -1
    outer loop
      vertex 4.89258 22.7441 0
      vertex 7.44141 20.8984 0
      vertex 4.48242 22.5195 0
    endloop
  endfacet
  facet normal 0 0 -1
    outer loop
      vertex 13.5449 10.3027 0
      vertex 20.9473 6.41602 0
      vertex 19.8633 5.41992 0
    endloop
  endfacet
  facet normal 0 0 -1
    outer loop
      vertex 11.8652 6.07422 0
      vertex 12.666 7.4707 0
      vertex 16.2793 2.91016 0
    endloop
  endfacet
  facet normal 0 0 -1
    outer loop
      vertex 5.05859 5.84961 0
      vertex 7.35352 5.9375 0
      vertex 5.97656 4.94141 0
    endloop
  endfacet
  facet normal 0 0 -1
    outer loop
      vertex 5.05859 5.84961 0
      vertex 5.97656 4.94141 0
      vertex 5.49805 4.49219 0
    endloop
  endfacet
  facet normal 0 0 -1
    outer loop
      vertex 10.791 4.7168 0
      vertex 13.6523 1.65039 0
      vertex 12.2852 1.14258 0
    endloop
  endfacet
  facet normal 0 0 -1
    outer loop
      vertex 10.8887 0.732422 0
      vertex 9.43359 3.4082 0
      vertex 12.2852 1.14258 0
    endloop
  endfacet
  facet normal 0 -0 -1
    outer loop
      vertex 4.39453 2.51953 0
      vertex 5.04883 0 0
      vertex 3.54492 0.0585938 0
    endloop
  endfacet
  facet normal 0 0 -1
    outer loop
      vertex 3.14453 18.0371 0
      vertex 3.54492 22.334 0
      vertex 4.0332 22.3828 0
    endloop
  endfacet
  facet normal 0 0 -1
    outer loop
      vertex 3.54492 22.334 0
      vertex 3.14453 18.0371 0
      vertex 1.43555 21.3672 0
    endloop
  endfacet
  facet normal 0 -0 -1
    outer loop
      vertex 2.61719 22.5195 0
      vertex 3.06641 22.3828 0
      vertex 1.43555 21.3672 0
    endloop
  endfacet
  facet normal 0 -0 -1
    outer loop
      vertex 3.06641 22.3828 0
      vertex 3.54492 22.334 0
      vertex 1.43555 21.3672 0
    endloop
  endfacet
  facet normal 0 0 -1
    outer loop
      vertex 1.43555 21.3672 0
      vertex 0.673828 22.6758 0
      vertex 1.85547 23.0371 0
    endloop
  endfacet
  facet normal -0 0 -1
    outer loop
      vertex 2.61719 22.5195 0
      vertex 1.43555 21.3672 0
      vertex 2.20703 22.7441 0
    endloop
  endfacet
  facet normal 0 0 -1
    outer loop
      vertex 0.673828 22.6758 0
      vertex 1.5625 23.3887 0
      vertex 1.85547 23.0371 0
    endloop
  endfacet
  facet normal -0 0 -1
    outer loop
      vertex 1.5625 23.3887 0
      vertex 0.644531 22.7051 0
      vertex 1.33789 23.7988 0
    endloop
  endfacet
  facet normal 0 0 -1
    outer loop
      vertex 0.673828 22.6758 0
      vertex 0.644531 22.7051 0
      vertex 1.5625 23.3887 0
    endloop
  endfacet
  facet normal 0 0 -1
    outer loop
      vertex 0.166016 23.6523 0
      vertex 1.20117 24.248 0
      vertex 1.33789 23.7988 0
    endloop
  endfacet
  facet normal -0 0 -1
    outer loop
      vertex 1.20117 24.248 0
      vertex 0.166016 23.6523 0
      vertex 0 24.6777 0
    endloop
  endfacet
  facet normal 0 -0 -1
    outer loop
      vertex 1.15234 24.7363 0
      vertex 1.20117 24.248 0
      vertex 0 24.6777 0
    endloop
  endfacet
  facet normal 0 0 -1
    outer loop
      vertex 0 24.6777 0
      vertex 0.136719 25.7129 0
      vertex 1.20117 25.2148 0
    endloop
  endfacet
  facet normal 0 0 -1
    outer loop
      vertex 1.33789 25.6641 0
      vertex 0.136719 25.7129 0
      vertex 0.585938 26.6797 0
    endloop
  endfacet
  facet normal 0 0 -1
    outer loop
      vertex 1.20117 25.2148 0
      vertex 0.136719 25.7129 0
      vertex 1.33789 25.6641 0
    endloop
  endfacet
  facet normal -0 0 -1
    outer loop
      vertex 1.5625 26.0742 0
      vertex 1.33789 25.6641 0
      vertex 0.585938 26.6797 0
    endloop
  endfacet
  facet normal 0 0 -1
    outer loop
      vertex 1.85547 26.4355 0
      vertex 0.585938 26.6797 0
      vertex 1.52344 27.9785 0
    endloop
  endfacet
  facet normal 0 -0 -1
    outer loop
      vertex 2.4707 28.4082 0
      vertex 2.61719 26.9434 0
      vertex 1.52344 27.9785 0
    endloop
  endfacet
  facet normal 0 0 -1
    outer loop
      vertex 3.54492 28.5645 0
      vertex 3.06641 27.0898 0
      vertex 2.4707 28.4082 0
    endloop
  endfacet
  facet normal -0 0 -1
    outer loop
      vertex 4.31641 28.4863 0
      vertex 3.54492 27.1387 0
      vertex 3.54492 28.5645 0
    endloop
  endfacet
  facet normal 0 0 -1
    outer loop
      vertex 4.31641 28.4863 0
      vertex 4.0332 27.0898 0
      vertex 3.54492 27.1387 0
    endloop
  endfacet
  facet normal 0 0 -1
    outer loop
      vertex 4.89258 26.7285 0
      vertex 4.48242 26.9434 0
      vertex 5.03906 28.2617 0
    endloop
  endfacet
  facet normal 0 -0 -1
    outer loop
      vertex 5.69336 27.9102 0
      vertex 6.25977 27.4414 0
      vertex 4.89258 26.7285 0
    endloop
  endfacet
  facet normal -0 0 -1
    outer loop
      vertex 5.69336 27.9102 0
      vertex 4.89258 26.7285 0
      vertex 5.03906 28.2617 0
    endloop
  endfacet
  facet normal 0 0 -1
    outer loop
      vertex 4.89258 26.7285 0
      vertex 6.25977 27.4414 0
      vertex 5.24414 26.4355 0
    endloop
  endfacet
  facet normal -0 0 -1
    outer loop
      vertex 7.07031 26.2207 0
      vertex 5.53711 26.0742 0
      vertex 6.71875 26.875 0
    endloop
  endfacet
  facet normal 0 0 -1
    outer loop
      vertex 7.07031 26.2207 0
      vertex 5.76172 25.6641 0
      vertex 5.53711 26.0742 0
    endloop
  endfacet
  facet normal 0 0 -1
    outer loop
      vertex 5.76172 25.6641 0
      vertex 7.29492 25.5078 0
      vertex 5.89844 25.2148 0
    endloop
  endfacet
  facet normal 0 -0 -1
    outer loop
      vertex 7.07031 26.2207 0
      vertex 7.29492 25.5078 0
      vertex 5.76172 25.6641 0
    endloop
  endfacet
  facet normal 0 0 -1
    outer loop
      vertex 5.89844 25.2148 0
      vertex 7.37305 24.7363 0
      vertex 5.94727 24.7363 0
    endloop
  endfacet
  facet normal 0 -0 -1
    outer loop
      vertex 7.29492 25.5078 0
      vertex 7.37305 24.7363 0
      vertex 5.89844 25.2148 0
    endloop
  endfacet
  facet normal 0 -0 -1
    outer loop
      vertex 5.94727 24.7363 0
      vertex 7.37305 24.7363 0
      vertex 5.89844 24.248 0
    endloop
  endfacet
  facet normal 0 0 -1
    outer loop
      vertex 5.89844 24.248 0
      vertex 7.37305 24.7363 0
      vertex 7.26562 23.8281 0
    endloop
  endfacet
  facet normal 0 0 -1
    outer loop
      vertex 5.76172 23.7988 0
      vertex 7.26562 23.8281 0
      vertex 6.94336 22.9688 0
    endloop
  endfacet
  facet normal 0 0 -1
    outer loop
      vertex 5.53711 23.3887 0
      vertex 5.76172 23.7988 0
      vertex 6.94336 22.9688 0
    endloop
  endfacet
  facet normal 0 0 -1
    outer loop
      vertex 6.88477 22.7441 0
      vertex 5.53711 23.3887 0
      vertex 6.94336 22.9688 0
    endloop
  endfacet
  facet normal 0 0 -1
    outer loop
      vertex 7.00195 22.4219 0
      vertex 5.24414 23.0371 0
      vertex 6.88477 22.7441 0
    endloop
  endfacet
  facet normal 0 0 -1
    outer loop
      vertex 7.00195 22.4219 0
      vertex 4.89258 22.7441 0
      vertex 5.24414 23.0371 0
    endloop
  endfacet
  facet normal 0 -0 -1
    outer loop
      vertex 4.0332 22.3828 0
      vertex 7.45117 20.5078 0
      vertex 3.14453 18.0371 0
    endloop
  endfacet
  facet normal 0 0 -1
    outer loop
      vertex 3.14453 18.0371 0
      vertex 7.45117 20.5078 0
      vertex 7.55859 20.127 0
    endloop
  endfacet
  facet normal 0 0 -1
    outer loop
      vertex 8.00781 0.175781 0
      vertex 6.98242 1.9043 0
      vertex 7.38281 1.98242 0
    endloop
  endfacet
  facet normal 0 0 -1
    outer loop
      vertex 7.76367 2.17773 0
      vertex 9.45312 0.410156 0
      vertex 8.00781 0.175781 0
    endloop
  endfacet
  facet normal 0 -0 -1
    outer loop
      vertex 6.2207 2.02148 0
      vertex 6.5332 0.0390625 0
      vertex 5.04883 0 0
    endloop
  endfacet
  facet normal -0 0 -1
    outer loop
      vertex 6.5918 1.91406 0
      vertex 6.5332 0.0390625 0
      vertex 6.2207 2.02148 0
    endloop
  endfacet
  facet normal 0 -0 -1
    outer loop
      vertex 5.87891 2.2168 0
      vertex 6.2207 2.02148 0
      vertex 5.04883 0 0
    endloop
  endfacet
  facet normal 0 0 -1
    outer loop
      vertex 4.39453 2.51953 0
      vertex 5.87891 2.2168 0
      vertex 5.04883 0 0
    endloop
  endfacet
  facet normal 0 0 -1
    outer loop
      vertex 4.39453 2.51953 0
      vertex 5.5957 2.48047 0
      vertex 5.87891 2.2168 0
    endloop
  endfacet
  facet normal 0 0 -1
    outer loop
      vertex 4.39453 2.51953 0
      vertex 5.38086 2.8125 0
      vertex 5.5957 2.48047 0
    endloop
  endfacet
  facet normal 0 0 -1
    outer loop
      vertex 4.39453 2.51953 0
      vertex 5.24414 3.19336 0
      vertex 5.38086 2.8125 0
    endloop
  endfacet
  facet normal 0 -0 -1
    outer loop
      vertex 5.05859 5.84961 0
      vertex 5.49805 4.49219 0
      vertex 4.39453 2.51953 0
    endloop
  endfacet
  facet normal -0 0 -1
    outer loop
      vertex 14.9805 2.23633 0
      vertex 13.6523 1.65039 0
      vertex 11.8652 6.07422 0
    endloop
  endfacet
  facet normal -0 0 -1
    outer loop
      vertex 18.7207 4.50195 0
      vertex 17.5195 3.67188 0
      vertex 12.666 7.4707 0
    endloop
  endfacet
  facet normal -0 0 -1
    outer loop
      vertex 7.35352 5.9375 0
      vertex 5.05859 5.84961 0
      vertex 5.20508 7.62695 0
    endloop
  endfacet
  facet normal 0 0 -1
    outer loop
      vertex 12.2852 1.14258 0
      vertex 9.43359 3.4082 0
      vertex 10.791 4.7168 0
    endloop
  endfacet
  facet normal 0 0 -1
    outer loop
      vertex 13.3789 14.3066 0
      vertex 13.0762 15.498 0
      vertex 17.1875 17.9297 0
    endloop
  endfacet
  facet normal 0 -0 -1
    outer loop
      vertex 13.6133 20.1562 0
      vertex 15.459 19.1309 0
      vertex 12.2949 17.7051 0
    endloop
  endfacet
  facet normal 0 0 -1
    outer loop
      vertex 12.2949 17.7051 0
      vertex 15.459 19.1309 0
      vertex 13.0762 15.498 0
    endloop
  endfacet
  facet normal 0 0 -1
    outer loop
      vertex 12.666 7.4707 0
      vertex 13.2129 8.88672 0
      vertex 18.7207 4.50195 0
    endloop
  endfacet
  facet normal 0 0 -1
    outer loop
      vertex 12.2949 17.7051 0
      vertex 10.7324 21.1133 0
      vertex 11.6699 21.0156 0
    endloop
  endfacet
  facet normal 0 0 -1
    outer loop
      vertex 4.79492 12.9492 0
      vertex 10.3125 12.666 0
      vertex 5.06836 11.1914 0
    endloop
  endfacet
  facet normal 0 0 -1
    outer loop
      vertex 4.79492 12.9492 0
      vertex 10.1367 13.6426 0
      vertex 10.3125 12.666 0
    endloop
  endfacet
  facet normal 0 0 -1
    outer loop
      vertex 4.38477 14.6875 0
      vertex 9.87305 14.6191 0
      vertex 4.79492 12.9492 0
    endloop
  endfacet
  facet normal -0 -0 -1
    outer loop
      vertex 7.00195 22.4219 0
      vertex 7.44141 20.8984 0
      vertex 4.89258 22.7441 0
    endloop
  endfacet
  facet normal 0 0 -1
    outer loop
      vertex 10.625 22.2363 0
      vertex 11.1719 21.6895 0
      vertex 10.7324 21.1133 0
    endloop
  endfacet
  facet normal 0 0 -1
    outer loop
      vertex 3.82812 16.3867 0
      vertex 9.15039 16.543 0
      vertex 4.38477 14.6875 0
    endloop
  endfacet
  facet normal 0 0 -1
    outer loop
      vertex 3.14453 18.0371 0
      vertex 7.55859 20.127 0
      vertex 3.82812 16.3867 0
    endloop
  endfacet
  facet normal -0 -0 -1
    outer loop
      vertex 7.44141 20.8984 0
      vertex 7.45117 20.5078 0
      vertex 4.48242 22.5195 0
    endloop
  endfacet
  facet normal 0 -0 -1
    outer loop
      vertex 10.625 22.2363 0
      vertex 10.7324 21.1133 0
      vertex 9.98047 21.8457 0
    endloop
  endfacet
  facet normal -0 0 -1
    outer loop
      vertex 7.50977 21.2793 0
      vertex 7.44141 20.8984 0
      vertex 7.00195 22.4219 0
    endloop
  endfacet
  facet normal -0 -0 -1
    outer loop
      vertex 7.29492 22.2559 0
      vertex 7.50977 21.2793 0
      vertex 7.00195 22.4219 0
    endloop
  endfacet
  facet normal -0 0 -1
    outer loop
      vertex 8.19336 22.0898 0
      vertex 7.67578 21.6309 0
      vertex 7.29492 22.2559 0
    endloop
  endfacet
  facet normal 0 0 -1
    outer loop
      vertex 8.41797 22.9297 0
      vertex 8.83789 22.2949 0
      vertex 8.51562 22.2363 0
    endloop
  endfacet
  facet normal 0 0 -1
    outer loop
      vertex 8.83789 22.2949 0
      vertex 9.0332 22.9785 0
      vertex 9.24805 22.2363 0
    endloop
  endfacet
  facet normal 0 0 -1
    outer loop
      vertex 8.41797 22.9297 0
      vertex 9.0332 22.9785 0
      vertex 8.83789 22.2949 0
    endloop
  endfacet
  facet normal 0 0 -1
    outer loop
      vertex 9.24805 22.2363 0
      vertex 9.0332 22.9785 0
      vertex 9.43359 22.9102 0
    endloop
  endfacet
  facet normal 0 -0 -1
    outer loop
      vertex 10.0488 22.6465 0
      vertex 10.625 22.2363 0
      vertex 9.98047 21.8457 0
    endloop
  endfacet
  facet normal 0 -0 -1
    outer loop
      vertex 11.1719 21.6895 0
      vertex 11.6699 21.0156 0
      vertex 10.7324 21.1133 0
    endloop
  endfacet
  facet normal -0 0 -1
    outer loop
      vertex 13.6133 20.1562 0
      vertex 12.2949 17.7051 0
      vertex 11.6699 21.0156 0
    endloop
  endfacet
  facet normal 0 0 -1
    outer loop
      vertex 13.0762 15.498 0
      vertex 15.459 19.1309 0
      vertex 17.1875 17.9297 0
    endloop
  endfacet
  facet normal 0 -0 -1
    outer loop
      vertex 18.7988 16.582 0
      vertex 20.2734 15.0879 0
      vertex 13.584 13.0566 0
    endloop
  endfacet
  facet normal 0 0 -1
    outer loop
      vertex 20.9473 6.41602 0
      vertex 13.5449 10.3027 0
      vertex 21.9629 7.48047 0
    endloop
  endfacet
  facet normal 0 -0 -1
    outer loop
      vertex 13.5449 10.3027 0
      vertex 19.8633 5.41992 0
      vertex 13.2129 8.88672 0
    endloop
  endfacet
  facet normal -0 0 -1
    outer loop
      vertex 17.5195 3.67188 0
      vertex 16.2793 2.91016 0
      vertex 12.666 7.4707 0
    endloop
  endfacet
  facet normal -0 0 -1
    outer loop
      vertex 16.2793 2.91016 0
      vertex 14.9805 2.23633 0
      vertex 11.8652 6.07422 0
    endloop
  endfacet
  facet normal 0 0 -1
    outer loop
      vertex 10.791 4.7168 0
      vertex 11.8652 6.07422 0
      vertex 13.6523 1.65039 0
    endloop
  endfacet
  facet normal 0 0 -1
    outer loop
      vertex 9.45312 0.410156 0
      vertex 9.43359 3.4082 0
      vertex 10.8887 0.732422 0
    endloop
  endfacet
  facet normal 0 0 -1
    outer loop
      vertex 9.45312 0.410156 0
      vertex 7.76367 2.17773 0
      vertex 9.43359 3.4082 0
    endloop
  endfacet
  facet normal 0 0 -1
    outer loop
      vertex 8.00781 0.175781 0
      vertex 7.38281 1.98242 0
      vertex 7.76367 2.17773 0
    endloop
  endfacet
  facet normal 0 0 1
    outer loop
      vertex 10.3809 11.6992 1
      vertex 5.06836 11.1914 1
      vertex 10.3418 10.7324 1
    endloop
  endfacet
  facet normal 0 0 1
    outer loop
      vertex 9.79492 8.82812 1
      vertex 5.20508 9.41406 1
      vertex 9.22852 7.87109 1
    endloop
  endfacet
  facet normal 0 0 1
    outer loop
      vertex 10.1562 9.78516 1
      vertex 5.06836 11.1914 1
      vertex 5.20508 9.41406 1
    endloop
  endfacet
  facet normal 0 0 1
    outer loop
      vertex 5.20508 9.41406 1
      vertex 8.42773 6.9043 1
      vertex 9.22852 7.87109 1
    endloop
  endfacet
  facet normal -0 0 1
    outer loop
      vertex 13.5449 10.3027 1
      vertex 21.9629 7.48047 1
      vertex 21.6113 13.457 1
    endloop
  endfacet
  facet normal 0 0 1
    outer loop
      vertex 17.1875 17.9297 1
      vertex 13.3789 14.3066 1
      vertex 18.7988 16.582 1
    endloop
  endfacet
  facet normal 0 0 1
    outer loop
      vertex 20.2734 15.0879 1
      vertex 13.6523 11.6992 1
      vertex 21.6113 13.457 1
    endloop
  endfacet
  facet normal 0 0 1
    outer loop
      vertex 22.793 11.709 1
      vertex 21.6113 13.457 1
      vertex 21.9629 7.48047 1
    endloop
  endfacet
  facet normal 0 -0 1
    outer loop
      vertex 13.6523 11.6992 1
      vertex 20.2734 15.0879 1
      vertex 13.584 13.0566 1
    endloop
  endfacet
  facet normal 0 0 1
    outer loop
      vertex 21.6113 13.457 1
      vertex 13.6523 11.6992 1
      vertex 13.5449 10.3027 1
    endloop
  endfacet
  facet normal 0 0 1
    outer loop
      vertex 22.793 11.709 1
      vertex 21.9629 7.48047 1
      vertex 22.9199 8.62305 1
    endloop
  endfacet
  facet normal -0 0 1
    outer loop
      vertex 13.3789 14.3066 1
      vertex 13.584 13.0566 1
      vertex 18.7988 16.582 1
    endloop
  endfacet
  facet normal 0 -0 1
    outer loop
      vertex 22.9199 8.62305 1
      vertex 23.8086 9.83398 1
      vertex 22.793 11.709 1
    endloop
  endfacet
  facet normal -0 0 1
    outer loop
      vertex 5.20508 9.41406 1
      vertex 9.79492 8.82812 1
      vertex 10.1562 9.78516 1
    endloop
  endfacet
  facet normal 0 0 1
    outer loop
      vertex 9.87305 14.6191 1
      vertex 4.79492 12.9492 1
      vertex 10.1367 13.6426 1
    endloop
  endfacet
  facet normal 0 0 1
    outer loop
      vertex 10.3125 12.666 1
      vertex 5.06836 11.1914 1
      vertex 10.3809 11.6992 1
    endloop
  endfacet
  facet normal 0 0 1
    outer loop
      vertex 8.42773 6.9043 1
      vertex 5.20508 9.41406 1
      vertex 5.20508 7.62695 1
    endloop
  endfacet
  facet normal 0 0 1
    outer loop
      vertex 9.15039 16.543 1
      vertex 4.38477 14.6875 1
      vertex 9.87305 14.6191 1
    endloop
  endfacet
  facet normal 0 0 1
    outer loop
      vertex 10.3418 10.7324 1
      vertex 5.06836 11.1914 1
      vertex 10.1562 9.78516 1
    endloop
  endfacet
  facet normal 0 0 1
    outer loop
      vertex 19.8633 5.41992 1
      vertex 13.2129 8.88672 1
      vertex 18.7207 4.50195 1
    endloop
  endfacet
  facet normal 0 0 1
    outer loop
      vertex 7.55859 20.127 1
      vertex 3.82812 16.3867 1
      vertex 9.15039 16.543 1
    endloop
  endfacet
  facet normal 0 0 1
    outer loop
      vertex 8.42773 6.9043 1
      vertex 5.20508 7.62695 1
      vertex 7.35352 5.9375 1
    endloop
  endfacet
  facet normal 0 0 1
    outer loop
      vertex 7.83203 22.6953 1
      vertex 8.19336 22.0898 1
      vertex 8.51562 22.2363 1
    endloop
  endfacet
  facet normal -0 0 1
    outer loop
      vertex 7.29492 22.2559 1
      vertex 8.19336 22.0898 1
      vertex 7.83203 22.6953 1
    endloop
  endfacet
  facet normal 0 -0 1
    outer loop
      vertex 7.50977 21.2793 1
      vertex 7.67578 21.6309 1
      vertex 7.29492 22.2559 1
    endloop
  endfacet
  facet normal -0 0 1
    outer loop
      vertex 7.83203 22.6953 1
      vertex 8.51562 22.2363 1
      vertex 8.41797 22.9297 1
    endloop
  endfacet
  facet normal 0 0 1
    outer loop
      vertex 9.43359 22.9102 1
      vertex 9.24805 22.2363 1
      vertex 10.0488 22.6465 1
    endloop
  endfacet
  facet normal -0 0 1
    outer loop
      vertex 9.24805 22.2363 1
      vertex 9.98047 21.8457 1
      vertex 10.0488 22.6465 1
    endloop
  endfacet
  facet normal 0 0 1
    outer loop
      vertex 5.03906 28.2617 1
      vertex 4.0332 27.0898 1
      vertex 4.48242 26.9434 1
    endloop
  endfacet
  facet normal 0 0 1
    outer loop
      vertex 3.54492 28.5645 1
      vertex 3.06641 27.0898 1
      vertex 3.54492 27.1387 1
    endloop
  endfacet
  facet normal 0 0 1
    outer loop
      vertex 6.71875 26.875 1
      vertex 6.25977 27.4414 1
      vertex 5.24414 26.4355 1
    endloop
  endfacet
  facet normal 0 0 1
    outer loop
      vertex 2.4707 28.4082 1
      vertex 2.61719 26.9434 1
      vertex 3.06641 27.0898 1
    endloop
  endfacet
  facet normal 0 0 1
    outer loop
      vertex 4.31641 28.4863 1
      vertex 4.0332 27.0898 1
      vertex 5.03906 28.2617 1
    endloop
  endfacet
  facet normal 0 0 1
    outer loop
      vertex 1.52344 27.9785 1
      vertex 1.85547 26.4355 1
      vertex 2.20703 26.7285 1
    endloop
  endfacet
  facet normal 0 0 1
    outer loop
      vertex 0.585938 26.6797 1
      vertex 1.5625 26.0742 1
      vertex 1.85547 26.4355 1
    endloop
  endfacet
  facet normal 0 0 1
    outer loop
      vertex 1.52344 27.9785 1
      vertex 2.20703 26.7285 1
      vertex 2.61719 26.9434 1
    endloop
  endfacet
  facet normal 0 0 1
    outer loop
      vertex 2.20703 22.7441 1
      vertex 1.85547 23.0371 1
      vertex 1.43555 21.3672 1
    endloop
  endfacet
  facet normal 0 -0 1
    outer loop
      vertex 0.644531 22.7051 1
      vertex 1.33789 23.7988 1
      vertex 0.166016 23.6523 1
    endloop
  endfacet
  facet normal 0 0 1
    outer loop
      vertex 0 24.6777 1
      vertex 1.15234 24.7363 1
      vertex 1.20117 25.2148 1
    endloop
  endfacet
  facet normal 0 0 1
    outer loop
      vertex 6.71875 26.875 1
      vertex 5.24414 26.4355 1
      vertex 5.53711 26.0742 1
    endloop
  endfacet
  facet normal 0 -0 1
    outer loop
      vertex 5.24414 3.19336 1
      vertex 5.49805 4.49219 1
      vertex 4.39453 2.51953 1
    endloop
  endfacet
  facet normal 0 0 1
    outer loop
      vertex 6.98242 1.9043 1
      vertex 6.5918 1.91406 1
      vertex 6.5332 0.0390625 1
    endloop
  endfacet
  facet normal 0 0 1
    outer loop
      vertex 7.26562 23.8281 1
      vertex 5.89844 24.248 1
      vertex 5.76172 23.7988 1
    endloop
  endfacet
  facet normal -0 0 1
    outer loop
      vertex 5.24414 23.0371 1
      vertex 6.88477 22.7441 1
      vertex 5.53711 23.3887 1
    endloop
  endfacet
  facet normal 0 0 1
    outer loop
      vertex 8.00781 0.175781 1
      vertex 6.98242 1.9043 1
      vertex 6.5332 0.0390625 1
    endloop
  endfacet
  facet normal -0 0 1
    outer loop
      vertex 4.0332 22.3828 1
      vertex 7.45117 20.5078 1
      vertex 4.48242 22.5195 1
    endloop
  endfacet
  facet normal -0 0 1
    outer loop
      vertex 4.48242 22.5195 1
      vertex 7.44141 20.8984 1
      vertex 4.89258 22.7441 1
    endloop
  endfacet
  facet normal 0 -0 1
    outer loop
      vertex 19.8633 5.41992 1
      vertex 20.9473 6.41602 1
      vertex 13.5449 10.3027 1
    endloop
  endfacet
  facet normal 0 0 1
    outer loop
      vertex 16.2793 2.91016 1
      vertex 12.666 7.4707 1
      vertex 11.8652 6.07422 1
    endloop
  endfacet
  facet normal 0 -0 1
    outer loop
      vertex 5.97656 4.94141 1
      vertex 7.35352 5.9375 1
      vertex 5.05859 5.84961 1
    endloop
  endfacet
  facet normal 0 -0 1
    outer loop
      vertex 5.49805 4.49219 1
      vertex 5.97656 4.94141 1
      vertex 5.05859 5.84961 1
    endloop
  endfacet
  facet normal 0 -0 1
    outer loop
      vertex 12.2852 1.14258 1
      vertex 13.6523 1.65039 1
      vertex 10.791 4.7168 1
    endloop
  endfacet
  facet normal 0 0 1
    outer loop
      vertex 12.2852 1.14258 1
      vertex 9.43359 3.4082 1
      vertex 10.8887 0.732422 1
    endloop
  endfacet
  facet normal -0 0 1
    outer loop
      vertex 3.54492 0.0585938 1
      vertex 5.04883 0 1
      vertex 4.39453 2.51953 1
    endloop
  endfacet
  facet normal 0 0 1
    outer loop
      vertex 4.0332 22.3828 1
      vertex 3.54492 22.334 1
      vertex 3.14453 18.0371 1
    endloop
  endfacet
  facet normal -0 0 1
    outer loop
      vertex 1.43555 21.3672 1
      vertex 3.14453 18.0371 1
      vertex 3.54492 22.334 1
    endloop
  endfacet
  facet normal 0 0 1
    outer loop
      vertex 1.43555 21.3672 1
      vertex 3.06641 22.3828 1
      vertex 2.61719 22.5195 1
    endloop
  endfacet
  facet normal 0 0 1
    outer loop
      vertex 1.43555 21.3672 1
      vertex 3.54492 22.334 1
      vertex 3.06641 22.3828 1
    endloop
  endfacet
  facet normal 0 0 1
    outer loop
      vertex 1.85547 23.0371 1
      vertex 0.673828 22.6758 1
      vertex 1.43555 21.3672 1
    endloop
  endfacet
  facet normal 0 0 1
    outer loop
      vertex 2.20703 22.7441 1
      vertex 1.43555 21.3672 1
      vertex 2.61719 22.5195 1
    endloop
  endfacet
  facet normal 0 0 1
    outer loop
      vertex 1.85547 23.0371 1
      vertex 1.5625 23.3887 1
      vertex 0.673828 22.6758 1
    endloop
  endfacet
  facet normal 0 0 1
    outer loop
      vertex 1.33789 23.7988 1
      vertex 0.644531 22.7051 1
      vertex 1.5625 23.3887 1
    endloop
  endfacet
  facet normal 0 0 1
    outer loop
      vertex 1.5625 23.3887 1
      vertex 0.644531 22.7051 1
      vertex 0.673828 22.6758 1
    endloop
  endfacet
  facet normal 0 0 1
    outer loop
      vertex 1.33789 23.7988 1
      vertex 1.20117 24.248 1
      vertex 0.166016 23.6523 1
    endloop
  endfacet
  facet normal 0 0 1
    outer loop
      vertex 0 24.6777 1
      vertex 0.166016 23.6523 1
      vertex 1.20117 24.248 1
    endloop
  endfacet
  facet normal -0 0 1
    outer loop
      vertex 0 24.6777 1
      vertex 1.20117 24.248 1
      vertex 1.15234 24.7363 1
    endloop
  endfacet
  facet normal 0 0 1
    outer loop
      vertex 1.20117 25.2148 1
      vertex 0.136719 25.7129 1
      vertex 0 24.6777 1
    endloop
  endfacet
  facet normal 0 0 1
    outer loop
      vertex 0.585938 26.6797 1
      vertex 0.136719 25.7129 1
      vertex 1.33789 25.6641 1
    endloop
  endfacet
  facet normal 0 0 1
    outer loop
      vertex 1.33789 25.6641 1
      vertex 0.136719 25.7129 1
      vertex 1.20117 25.2148 1
    endloop
  endfacet
  facet normal 0 0 1
    outer loop
      vertex 0.585938 26.6797 1
      vertex 1.33789 25.6641 1
      vertex 1.5625 26.0742 1
    endloop
  endfacet
  facet normal 0 0 1
    outer loop
      vertex 1.52344 27.9785 1
      vertex 0.585938 26.6797 1
      vertex 1.85547 26.4355 1
    endloop
  endfacet
  facet normal -0 0 1
    outer loop
      vertex 1.52344 27.9785 1
      vertex 2.61719 26.9434 1
      vertex 2.4707 28.4082 1
    endloop
  endfacet
  facet normal -0 0 1
    outer loop
      vertex 2.4707 28.4082 1
      vertex 3.06641 27.0898 1
      vertex 3.54492 28.5645 1
    endloop
  endfacet
  facet normal 0 0 1
    outer loop
      vertex 3.54492 28.5645 1
      vertex 3.54492 27.1387 1
      vertex 4.31641 28.4863 1
    endloop
  endfacet
  facet normal -0 0 1
    outer loop
      vertex 3.54492 27.1387 1
      vertex 4.0332 27.0898 1
      vertex 4.31641 28.4863 1
    endloop
  endfacet
  facet normal 0 0 1
    outer loop
      vertex 5.03906 28.2617 1
      vertex 4.48242 26.9434 1
      vertex 4.89258 26.7285 1
    endloop
  endfacet
  facet normal 0 0 1
    outer loop
      vertex 4.89258 26.7285 1
      vertex 6.25977 27.4414 1
      vertex 5.69336 27.9102 1
    endloop
  endfacet
  facet normal 0 0 1
    outer loop
      vertex 5.03906 28.2617 1
      vertex 4.89258 26.7285 1
      vertex 5.69336 27.9102 1
    endloop
  endfacet
  facet normal 0 -0 1
    outer loop
      vertex 5.24414 26.4355 1
      vertex 6.25977 27.4414 1
      vertex 4.89258 26.7285 1
    endloop
  endfacet
  facet normal 0 0 1
    outer loop
      vertex 6.71875 26.875 1
      vertex 5.53711 26.0742 1
      vertex 7.07031 26.2207 1
    endloop
  endfacet
  facet normal -0 0 1
    outer loop
      vertex 5.53711 26.0742 1
      vertex 5.76172 25.6641 1
      vertex 7.07031 26.2207 1
    endloop
  endfacet
  facet normal 0 -0 1
    outer loop
      vertex 5.89844 25.2148 1
      vertex 7.29492 25.5078 1
      vertex 5.76172 25.6641 1
    endloop
  endfacet
  facet normal -0 0 1
    outer loop
      vertex 5.76172 25.6641 1
      vertex 7.29492 25.5078 1
      vertex 7.07031 26.2207 1
    endloop
  endfacet
  facet normal 0 -0 1
    outer loop
      vertex 5.94727 24.7363 1
      vertex 7.37305 24.7363 1
      vertex 5.89844 25.2148 1
    endloop
  endfacet
  facet normal -0 0 1
    outer loop
      vertex 5.89844 25.2148 1
      vertex 7.37305 24.7363 1
      vertex 7.29492 25.5078 1
    endloop
  endfacet
  facet normal 0 0 1
    outer loop
      vertex 5.89844 24.248 1
      vertex 7.37305 24.7363 1
      vertex 5.94727 24.7363 1
    endloop
  endfacet
  facet normal 0 -0 1
    outer loop
      vertex 7.26562 23.8281 1
      vertex 7.37305 24.7363 1
      vertex 5.89844 24.248 1
    endloop
  endfacet
  facet normal 0 -0 1
    outer loop
      vertex 6.94336 22.9688 1
      vertex 7.26562 23.8281 1
      vertex 5.76172 23.7988 1
    endloop
  endfacet
  facet normal 0 0 1
    outer loop
      vertex 6.94336 22.9688 1
      vertex 5.76172 23.7988 1
      vertex 5.53711 23.3887 1
    endloop
  endfacet
  facet normal 0 0 1
    outer loop
      vertex 6.94336 22.9688 1
      vertex 5.53711 23.3887 1
      vertex 6.88477 22.7441 1
    endloop
  endfacet
  facet normal 0 0 1
    outer loop
      vertex 6.88477 22.7441 1
      vertex 5.24414 23.0371 1
      vertex 7.00195 22.4219 1
    endloop
  endfacet
  facet normal 0 0 1
    outer loop
      vertex 5.24414 23.0371 1
      vertex 4.89258 22.7441 1
      vertex 7.00195 22.4219 1
    endloop
  endfacet
  facet normal 0 0 1
    outer loop
      vertex 3.14453 18.0371 1
      vertex 7.45117 20.5078 1
      vertex 4.0332 22.3828 1
    endloop
  endfacet
  facet normal 0 0 1
    outer loop
      vertex 7.55859 20.127 1
      vertex 7.45117 20.5078 1
      vertex 3.14453 18.0371 1
    endloop
  endfacet
  facet normal 0 0 1
    outer loop
      vertex 7.38281 1.98242 1
      vertex 6.98242 1.9043 1
      vertex 8.00781 0.175781 1
    endloop
  endfacet
  facet normal 0 -0 1
    outer loop
      vertex 8.00781 0.175781 1
      vertex 9.45312 0.410156 1
      vertex 7.76367 2.17773 1
    endloop
  endfacet
  facet normal 0 0 1
    outer loop
      vertex 5.04883 0 1
      vertex 6.5332 0.0390625 1
      vertex 6.2207 2.02148 1
    endloop
  endfacet
  facet normal 0 0 1
    outer loop
      vertex 6.2207 2.02148 1
      vertex 6.5332 0.0390625 1
      vertex 6.5918 1.91406 1
    endloop
  endfacet
  facet normal 0 0 1
    outer loop
      vertex 5.04883 0 1
      vertex 6.2207 2.02148 1
      vertex 5.87891 2.2168 1
    endloop
  endfacet
  facet normal 0 -0 1
    outer loop
      vertex 5.04883 0 1
      vertex 5.87891 2.2168 1
      vertex 4.39453 2.51953 1
    endloop
  endfacet
  facet normal 0 0 1
    outer loop
      vertex 5.87891 2.2168 1
      vertex 5.5957 2.48047 1
      vertex 4.39453 2.51953 1
    endloop
  endfacet
  facet normal 0 0 1
    outer loop
      vertex 5.5957 2.48047 1
      vertex 5.38086 2.8125 1
      vertex 4.39453 2.51953 1
    endloop
  endfacet
  facet normal 0 0 1
    outer loop
      vertex 5.38086 2.8125 1
      vertex 5.24414 3.19336 1
      vertex 4.39453 2.51953 1
    endloop
  endfacet
  facet normal 0 0 1
    outer loop
      vertex 4.39453 2.51953 1
      vertex 5.49805 4.49219 1
      vertex 5.05859 5.84961 1
    endloop
  endfacet
  facet normal 0 0 1
    outer loop
      vertex 11.8652 6.07422 1
      vertex 13.6523 1.65039 1
      vertex 14.9805 2.23633 1
    endloop
  endfacet
  facet normal 0 0 1
    outer loop
      vertex 12.666 7.4707 1
      vertex 17.5195 3.67188 1
      vertex 18.7207 4.50195 1
    endloop
  endfacet
  facet normal 0 0 1
    outer loop
      vertex 5.20508 7.62695 1
      vertex 5.05859 5.84961 1
      vertex 7.35352 5.9375 1
    endloop
  endfacet
  facet normal 0 0 1
    outer loop
      vertex 10.791 4.7168 1
      vertex 9.43359 3.4082 1
      vertex 12.2852 1.14258 1
    endloop
  endfacet
  facet normal 0 0 1
    outer loop
      vertex 17.1875 17.9297 1
      vertex 13.0762 15.498 1
      vertex 13.3789 14.3066 1
    endloop
  endfacet
  facet normal 0 0 1
    outer loop
      vertex 12.2949 17.7051 1
      vertex 15.459 19.1309 1
      vertex 13.6133 20.1562 1
    endloop
  endfacet
  facet normal 0 -0 1
    outer loop
      vertex 13.0762 15.498 1
      vertex 15.459 19.1309 1
      vertex 12.2949 17.7051 1
    endloop
  endfacet
  facet normal 0 0 1
    outer loop
      vertex 18.7207 4.50195 1
      vertex 13.2129 8.88672 1
      vertex 12.666 7.4707 1
    endloop
  endfacet
  facet normal 0 0 1
    outer loop
      vertex 11.6699 21.0156 1
      vertex 10.7324 21.1133 1
      vertex 12.2949 17.7051 1
    endloop
  endfacet
  facet normal 0 -0 1
    outer loop
      vertex 5.06836 11.1914 1
      vertex 10.3125 12.666 1
      vertex 4.79492 12.9492 1
    endloop
  endfacet
  facet normal 0 0 1
    outer loop
      vertex 10.3125 12.666 1
      vertex 10.1367 13.6426 1
      vertex 4.79492 12.9492 1
    endloop
  endfacet
  facet normal 0 -0 1
    outer loop
      vertex 4.79492 12.9492 1
      vertex 9.87305 14.6191 1
      vertex 4.38477 14.6875 1
    endloop
  endfacet
  facet normal 0 0 1
    outer loop
      vertex 4.89258 22.7441 1
      vertex 7.44141 20.8984 1
      vertex 7.00195 22.4219 1
    endloop
  endfacet
  facet normal 0 -0 1
    outer loop
      vertex 10.7324 21.1133 1
      vertex 11.1719 21.6895 1
      vertex 10.625 22.2363 1
    endloop
  endfacet
  facet normal 0 -0 1
    outer loop
      vertex 4.38477 14.6875 1
      vertex 9.15039 16.543 1
      vertex 3.82812 16.3867 1
    endloop
  endfacet
  facet normal 0 -0 1
    outer loop
      vertex 3.82812 16.3867 1
      vertex 7.55859 20.127 1
      vertex 3.14453 18.0371 1
    endloop
  endfacet
  facet normal 0 0 1
    outer loop
      vertex 4.48242 22.5195 1
      vertex 7.45117 20.5078 1
      vertex 7.44141 20.8984 1
    endloop
  endfacet
  facet normal -0 0 1
    outer loop
      vertex 9.98047 21.8457 1
      vertex 10.7324 21.1133 1
      vertex 10.625 22.2363 1
    endloop
  endfacet
  facet normal 0 0 1
    outer loop
      vertex 7.00195 22.4219 1
      vertex 7.44141 20.8984 1
      vertex 7.50977 21.2793 1
    endloop
  endfacet
  facet normal 0 0 1
    outer loop
      vertex 7.00195 22.4219 1
      vertex 7.50977 21.2793 1
      vertex 7.29492 22.2559 1
    endloop
  endfacet
  facet normal 0 0 1
    outer loop
      vertex 7.29492 22.2559 1
      vertex 7.67578 21.6309 1
      vertex 8.19336 22.0898 1
    endloop
  endfacet
  facet normal 0 -0 1
    outer loop
      vertex 8.51562 22.2363 1
      vertex 8.83789 22.2949 1
      vertex 8.41797 22.9297 1
    endloop
  endfacet
  facet normal 0 0 1
    outer loop
      vertex 9.24805 22.2363 1
      vertex 9.0332 22.9785 1
      vertex 8.83789 22.2949 1
    endloop
  endfacet
  facet normal 0 -0 1
    outer loop
      vertex 8.83789 22.2949 1
      vertex 9.0332 22.9785 1
      vertex 8.41797 22.9297 1
    endloop
  endfacet
  facet normal 0 0 1
    outer loop
      vertex 9.43359 22.9102 1
      vertex 9.0332 22.9785 1
      vertex 9.24805 22.2363 1
    endloop
  endfacet
  facet normal 0 0 1
    outer loop
      vertex 9.98047 21.8457 1
      vertex 10.625 22.2363 1
      vertex 10.0488 22.6465 1
    endloop
  endfacet
  facet normal -0 0 1
    outer loop
      vertex 10.7324 21.1133 1
      vertex 11.6699 21.0156 1
      vertex 11.1719 21.6895 1
    endloop
  endfacet
  facet normal 0 0 1
    outer loop
      vertex 11.6699 21.0156 1
      vertex 12.2949 17.7051 1
      vertex 13.6133 20.1562 1
    endloop
  endfacet
  facet normal 0 0 1
    outer loop
      vertex 17.1875 17.9297 1
      vertex 15.459 19.1309 1
      vertex 13.0762 15.498 1
    endloop
  endfacet
  facet normal 0 0 1
    outer loop
      vertex 13.584 13.0566 1
      vertex 20.2734 15.0879 1
      vertex 18.7988 16.582 1
    endloop
  endfacet
  facet normal 0 0 1
    outer loop
      vertex 21.9629 7.48047 1
      vertex 13.5449 10.3027 1
      vertex 20.9473 6.41602 1
    endloop
  endfacet
  facet normal -0 0 1
    outer loop
      vertex 13.2129 8.88672 1
      vertex 19.8633 5.41992 1
      vertex 13.5449 10.3027 1
    endloop
  endfacet
  facet normal 0 0 1
    outer loop
      vertex 12.666 7.4707 1
      vertex 16.2793 2.91016 1
      vertex 17.5195 3.67188 1
    endloop
  endfacet
  facet normal 0 0 1
    outer loop
      vertex 11.8652 6.07422 1
      vertex 14.9805 2.23633 1
      vertex 16.2793 2.91016 1
    endloop
  endfacet
  facet normal 0 0 1
    outer loop
      vertex 13.6523 1.65039 1
      vertex 11.8652 6.07422 1
      vertex 10.791 4.7168 1
    endloop
  endfacet
  facet normal 0 0 1
    outer loop
      vertex 10.8887 0.732422 1
      vertex 9.43359 3.4082 1
      vertex 9.45312 0.410156 1
    endloop
  endfacet
  facet normal 0 0 1
    outer loop
      vertex 9.43359 3.4082 1
      vertex 7.76367 2.17773 1
      vertex 9.45312 0.410156 1
    endloop
  endfacet
  facet normal 0 0 1
    outer loop
      vertex 7.76367 2.17773 1
      vertex 7.38281 1.98242 1
      vertex 8.00781 0.175781 1
    endloop
  endfacet
  facet normal 0.0923193 -0.995729 0
    outer loop
      vertex 8.00781 0.175781 0
      vertex 6.5332 0.0390625 1
      vertex 6.5332 0.0390625 0
    endloop
  endfacet
  facet normal 0.0923193 -0.995729 0
    outer loop
      vertex 8.00781 0.175781 0
      vertex 8.00781 0.175781 1
      vertex 6.5332 0.0390625 1
    endloop
  endfacet
  facet normal 0.160071 -0.987105 0
    outer loop
      vertex 9.45312 0.410156 0
      vertex 8.00781 0.175781 1
      vertex 8.00781 0.175781 0
    endloop
  endfacet
  facet normal 0.160071 -0.987105 0
    outer loop
      vertex 9.45312 0.410156 0
      vertex 9.45312 0.410156 1
      vertex 8.00781 0.175781 1
    endloop
  endfacet
  facet normal 0.219038 -0.975716 0
    outer loop
      vertex 10.8887 0.732422 0
      vertex 9.45312 0.410156 1
      vertex 9.45312 0.410156 0
    endloop
  endfacet
  facet normal 0.219038 -0.975716 0
    outer loop
      vertex 10.8887 0.732422 0
      vertex 10.8887 0.732422 1
      vertex 9.45312 0.410156 1
    endloop
  endfacet
  facet normal 0.281803 -0.959472 0
    outer loop
      vertex 12.2852 1.14258 0
      vertex 10.8887 0.732422 1
      vertex 10.8887 0.732422 0
    endloop
  endfacet
  facet normal 0.281803 -0.959472 0
    outer loop
      vertex 12.2852 1.14258 0
      vertex 12.2852 1.14258 1
      vertex 10.8887 0.732422 1
    endloop
  endfacet
  facet normal 0.348187 -0.937425 0
    outer loop
      vertex 13.6523 1.65039 0
      vertex 12.2852 1.14258 1
      vertex 12.2852 1.14258 0
    endloop
  endfacet
  facet normal 0.348187 -0.937425 0
    outer loop
      vertex 13.6523 1.65039 0
      vertex 13.6523 1.65039 1
      vertex 12.2852 1.14258 1
    endloop
  endfacet
  facet normal 0.40364 -0.914918 0
    outer loop
      vertex 14.9805 2.23633 0
      vertex 13.6523 1.65039 1
      vertex 13.6523 1.65039 0
    endloop
  endfacet
  facet normal 0.40364 -0.914918 0
    outer loop
      vertex 14.9805 2.23633 0
      vertex 14.9805 2.23633 1
      vertex 13.6523 1.65039 1
    endloop
  endfacet
  facet normal 0.460512 -0.887653 0
    outer loop
      vertex 16.2793 2.91016 0
      vertex 14.9805 2.23633 1
      vertex 14.9805 2.23633 0
    endloop
  endfacet
  facet normal 0.460512 -0.887653 0
    outer loop
      vertex 16.2793 2.91016 0
      vertex 16.2793 2.91016 1
      vertex 14.9805 2.23633 1
    endloop
  endfacet
  facet normal 0.523349 -0.852119 0
    outer loop
      vertex 17.5195 3.67188 0
      vertex 16.2793 2.91016 1
      vertex 16.2793 2.91016 0
    endloop
  endfacet
  facet normal 0.523349 -0.852119 0
    outer loop
      vertex 17.5195 3.67188 0
      vertex 17.5195 3.67188 1
      vertex 16.2793 2.91016 1
    endloop
  endfacet
  facet normal 0.568514 -0.822673 0
    outer loop
      vertex 18.7207 4.50195 0
      vertex 17.5195 3.67188 1
      vertex 17.5195 3.67188 0
    endloop
  endfacet
  facet normal 0.568514 -0.822673 0
    outer loop
      vertex 18.7207 4.50195 0
      vertex 18.7207 4.50195 1
      vertex 17.5195 3.67188 1
    endloop
  endfacet
  facet normal 0.626319 -0.779567 0
    outer loop
      vertex 19.8633 5.41992 0
      vertex 18.7207 4.50195 1
      vertex 18.7207 4.50195 0
    endloop
  endfacet
  facet normal 0.626319 -0.779567 0
    outer loop
      vertex 19.8633 5.41992 0
      vertex 19.8633 5.41992 1
      vertex 18.7207 4.50195 1
    endloop
  endfacet
  facet normal 0.676625 -0.736328 0
    outer loop
      vertex 20.9473 6.41602 0
      vertex 19.8633 5.41992 1
      vertex 19.8633 5.41992 0
    endloop
  endfacet
  facet normal 0.676625 -0.736328 0
    outer loop
      vertex 20.9473 6.41602 0
      vertex 20.9473 6.41602 1
      vertex 19.8633 5.41992 1
    endloop
  endfacet
  facet normal 0.723506 -0.690318 0
    outer loop
      vertex 21.9629 7.48047 0
      vertex 20.9473 6.41602 1
      vertex 20.9473 6.41602 0
    endloop
  endfacet
  facet normal 0.723506 -0.690318 0
    outer loop
      vertex 21.9629 7.48047 0
      vertex 21.9629 7.48047 1
      vertex 20.9473 6.41602 1
    endloop
  endfacet
  facet normal 0.766608 -0.642116 0
    outer loop
      vertex 22.9199 8.62305 0
      vertex 21.9629 7.48047 1
      vertex 21.9629 7.48047 0
    endloop
  endfacet
  facet normal 0.766608 -0.642116 0
    outer loop
      vertex 22.9199 8.62305 0
      vertex 22.9199 8.62305 1
      vertex 21.9629 7.48047 1
    endloop
  endfacet
  facet normal 0.806198 -0.591645 0
    outer loop
      vertex 23.8086 9.83398 0
      vertex 22.9199 8.62305 1
      vertex 22.9199 8.62305 0
    endloop
  endfacet
  facet normal 0.806198 -0.591645 0
    outer loop
      vertex 23.8086 9.83398 0
      vertex 23.8086 9.83398 1
      vertex 22.9199 8.62305 1
    endloop
  endfacet
  facet normal 0.879292 0.476283 0
    outer loop
      vertex 22.793 11.709 0
      vertex 23.8086 9.83398 1
      vertex 23.8086 9.83398 0
    endloop
  endfacet
  facet normal 0.879292 0.476283 -0
    outer loop
      vertex 22.793 11.709 0
      vertex 22.793 11.709 1
      vertex 23.8086 9.83398 1
    endloop
  endfacet
  facet normal 0.828473 0.560029 0
    outer loop
      vertex 21.6113 13.457 0
      vertex 22.793 11.709 1
      vertex 22.793 11.709 0
    endloop
  endfacet
  facet normal 0.828473 0.560029 -0
    outer loop
      vertex 21.6113 13.457 0
      vertex 21.6113 13.457 1
      vertex 22.793 11.709 1
    endloop
  endfacet
  facet normal 0.773132 0.634246 0
    outer loop
      vertex 20.2734 15.0879 0
      vertex 21.6113 13.457 1
      vertex 21.6113 13.457 0
    endloop
  endfacet
  facet normal 0.773132 0.634246 -0
    outer loop
      vertex 20.2734 15.0879 0
      vertex 20.2734 15.0879 1
      vertex 21.6113 13.457 1
    endloop
  endfacet
  facet normal 0.711743 0.70244 0
    outer loop
      vertex 18.7988 16.582 0
      vertex 20.2734 15.0879 1
      vertex 20.2734 15.0879 0
    endloop
  endfacet
  facet normal 0.711743 0.70244 -0
    outer loop
      vertex 18.7988 16.582 0
      vertex 18.7988 16.582 1
      vertex 20.2734 15.0879 1
    endloop
  endfacet
  facet normal 0.641555 0.767077 0
    outer loop
      vertex 17.1875 17.9297 0
      vertex 18.7988 16.582 1
      vertex 18.7988 16.582 0
    endloop
  endfacet
  facet normal 0.641555 0.767077 -0
    outer loop
      vertex 17.1875 17.9297 0
      vertex 17.1875 17.9297 1
      vertex 18.7988 16.582 1
    endloop
  endfacet
  facet normal 0.570657 0.821189 0
    outer loop
      vertex 15.459 19.1309 0
      vertex 17.1875 17.9297 1
      vertex 17.1875 17.9297 0
    endloop
  endfacet
  facet normal 0.570657 0.821189 -0
    outer loop
      vertex 15.459 19.1309 0
      vertex 15.459 19.1309 1
      vertex 17.1875 17.9297 1
    endloop
  endfacet
  facet normal 0.485643 0.874157 0
    outer loop
      vertex 13.6133 20.1562 0
      vertex 15.459 19.1309 1
      vertex 15.459 19.1309 0
    endloop
  endfacet
  facet normal 0.485643 0.874157 -0
    outer loop
      vertex 13.6133 20.1562 0
      vertex 13.6133 20.1562 1
      vertex 15.459 19.1309 1
    endloop
  endfacet
  facet normal 0.404432 0.914568 0
    outer loop
      vertex 11.6699 21.0156 0
      vertex 13.6133 20.1562 1
      vertex 13.6133 20.1562 0
    endloop
  endfacet
  facet normal 0.404432 0.914568 -0
    outer loop
      vertex 11.6699 21.0156 0
      vertex 11.6699 21.0156 1
      vertex 13.6133 20.1562 1
    endloop
  endfacet
  facet normal 0.804176 0.594391 0
    outer loop
      vertex 11.1719 21.6895 0
      vertex 11.6699 21.0156 1
      vertex 11.6699 21.0156 0
    endloop
  endfacet
  facet normal 0.804176 0.594391 -0
    outer loop
      vertex 11.1719 21.6895 0
      vertex 11.1719 21.6895 1
      vertex 11.6699 21.0156 1
    endloop
  endfacet
  facet normal 0.707107 0.707107 0
    outer loop
      vertex 10.625 22.2363 0
      vertex 11.1719 21.6895 1
      vertex 11.1719 21.6895 0
    endloop
  endfacet
  facet normal 0.707107 0.707107 -0
    outer loop
      vertex 10.625 22.2363 0
      vertex 10.625 22.2363 1
      vertex 11.1719 21.6895 1
    endloop
  endfacet
  facet normal 0.579931 0.814665 0
    outer loop
      vertex 10.0488 22.6465 0
      vertex 10.625 22.2363 1
      vertex 10.625 22.2363 0
    endloop
  endfacet
  facet normal 0.579931 0.814665 -0
    outer loop
      vertex 10.0488 22.6465 0
      vertex 10.0488 22.6465 1
      vertex 10.625 22.2363 1
    endloop
  endfacet
  facet normal 0.393919 0.919145 0
    outer loop
      vertex 9.43359 22.9102 0
      vertex 10.0488 22.6465 1
      vertex 10.0488 22.6465 0
    endloop
  endfacet
  facet normal 0.393919 0.919145 -0
    outer loop
      vertex 9.43359 22.9102 0
      vertex 9.43359 22.9102 1
      vertex 10.0488 22.6465 1
    endloop
  endfacet
  facet normal 0.168296 0.985736 0
    outer loop
      vertex 9.0332 22.9785 0
      vertex 9.43359 22.9102 1
      vertex 9.43359 22.9102 0
    endloop
  endfacet
  facet normal 0.168296 0.985736 -0
    outer loop
      vertex 9.0332 22.9785 0
      vertex 9.0332 22.9785 1
      vertex 9.43359 22.9102 1
    endloop
  endfacet
  facet normal -0.0791163 0.996865 0
    outer loop
      vertex 8.41797 22.9297 0
      vertex 9.0332 22.9785 1
      vertex 9.0332 22.9785 0
    endloop
  endfacet
  facet normal -0.0791163 0.996865 0
    outer loop
      vertex 8.41797 22.9297 0
      vertex 8.41797 22.9297 1
      vertex 9.0332 22.9785 1
    endloop
  endfacet
  facet normal -0.371391 0.928477 0
    outer loop
      vertex 7.83203 22.6953 0
      vertex 8.41797 22.9297 1
      vertex 8.41797 22.9297 0
    endloop
  endfacet
  facet normal -0.371391 0.928477 0
    outer loop
      vertex 7.83203 22.6953 0
      vertex 7.83203 22.6953 1
      vertex 8.41797 22.9297 1
    endloop
  endfacet
  facet normal -0.633238 0.773957 0
    outer loop
      vertex 7.29492 22.2559 0
      vertex 7.83203 22.6953 1
      vertex 7.83203 22.6953 0
    endloop
  endfacet
  facet normal -0.633238 0.773957 0
    outer loop
      vertex 7.29492 22.2559 0
      vertex 7.29492 22.2559 1
      vertex 7.83203 22.6953 1
    endloop
  endfacet
  facet normal 0.493013 0.870022 0
    outer loop
      vertex 7.00195 22.4219 0
      vertex 7.29492 22.2559 1
      vertex 7.29492 22.2559 0
    endloop
  endfacet
  facet normal 0.493013 0.870022 -0
    outer loop
      vertex 7.00195 22.4219 0
      vertex 7.00195 22.4219 1
      vertex 7.29492 22.2559 1
    endloop
  endfacet
  facet normal 0.939793 0.341743 0
    outer loop
      vertex 6.88477 22.7441 0
      vertex 7.00195 22.4219 1
      vertex 7.00195 22.4219 0
    endloop
  endfacet
  facet normal 0.939793 0.341743 -0
    outer loop
      vertex 6.88477 22.7441 0
      vertex 6.88477 22.7441 1
      vertex 7.00195 22.4219 1
    endloop
  endfacet
  facet normal 0.967617 -0.252422 0
    outer loop
      vertex 6.94336 22.9688 0
      vertex 6.88477 22.7441 1
      vertex 6.88477 22.7441 0
    endloop
  endfacet
  facet normal 0.967617 -0.252422 0
    outer loop
      vertex 6.94336 22.9688 0
      vertex 6.94336 22.9688 1
      vertex 6.88477 22.7441 1
    endloop
  endfacet
  facet normal 0.936329 -0.351123 0
    outer loop
      vertex 7.26562 23.8281 0
      vertex 6.94336 22.9688 1
      vertex 6.94336 22.9688 0
    endloop
  endfacet
  facet normal 0.936329 -0.351123 0
    outer loop
      vertex 7.26562 23.8281 0
      vertex 7.26562 23.8281 1
      vertex 6.94336 22.9688 1
    endloop
  endfacet
  facet normal 0.993078 -0.117461 0
    outer loop
      vertex 7.37305 24.7363 0
      vertex 7.26562 23.8281 1
      vertex 7.26562 23.8281 0
    endloop
  endfacet
  facet normal 0.993078 -0.117461 0
    outer loop
      vertex 7.37305 24.7363 0
      vertex 7.37305 24.7363 1
      vertex 7.26562 23.8281 1
    endloop
  endfacet
  facet normal 0.994912 0.100751 0
    outer loop
      vertex 7.29492 25.5078 0
      vertex 7.37305 24.7363 1
      vertex 7.37305 24.7363 0
    endloop
  endfacet
  facet normal 0.994912 0.100751 -0
    outer loop
      vertex 7.29492 25.5078 0
      vertex 7.29492 25.5078 1
      vertex 7.37305 24.7363 1
    endloop
  endfacet
  facet normal 0.95378 0.300506 0
    outer loop
      vertex 7.07031 26.2207 0
      vertex 7.29492 25.5078 1
      vertex 7.29492 25.5078 0
    endloop
  endfacet
  facet normal 0.95378 0.300506 -0
    outer loop
      vertex 7.07031 26.2207 0
      vertex 7.07031 26.2207 1
      vertex 7.29492 25.5078 1
    endloop
  endfacet
  facet normal 0.880893 0.473316 0
    outer loop
      vertex 6.71875 26.875 0
      vertex 7.07031 26.2207 1
      vertex 7.07031 26.2207 0
    endloop
  endfacet
  facet normal 0.880893 0.473316 -0
    outer loop
      vertex 6.71875 26.875 0
      vertex 6.71875 26.875 1
      vertex 7.07031 26.2207 1
    endloop
  endfacet
  facet normal 0.776933 0.629583 0
    outer loop
      vertex 6.25977 27.4414 0
      vertex 6.71875 26.875 1
      vertex 6.71875 26.875 0
    endloop
  endfacet
  facet normal 0.776933 0.629583 -0
    outer loop
      vertex 6.25977 27.4414 0
      vertex 6.25977 27.4414 1
      vertex 6.71875 26.875 1
    endloop
  endfacet
  facet normal 0.637568 0.770394 0
    outer loop
      vertex 5.69336 27.9102 0
      vertex 6.25977 27.4414 1
      vertex 6.25977 27.4414 0
    endloop
  endfacet
  facet normal 0.637568 0.770394 -0
    outer loop
      vertex 5.69336 27.9102 0
      vertex 5.69336 27.9102 1
      vertex 6.25977 27.4414 1
    endloop
  endfacet
  facet normal 0.473316 0.880893 0
    outer loop
      vertex 5.03906 28.2617 0
      vertex 5.69336 27.9102 1
      vertex 5.69336 27.9102 0
    endloop
  endfacet
  facet normal 0.473316 0.880893 -0
    outer loop
      vertex 5.03906 28.2617 0
      vertex 5.03906 28.2617 1
      vertex 5.69336 27.9102 1
    endloop
  endfacet
  facet normal 0.296805 0.954938 0
    outer loop
      vertex 4.31641 28.4863 0
      vertex 5.03906 28.2617 1
      vertex 5.03906 28.2617 0
    endloop
  endfacet
  facet normal 0.296805 0.954938 -0
    outer loop
      vertex 4.31641 28.4863 0
      vertex 4.31641 28.4863 1
      vertex 5.03906 28.2617 1
    endloop
  endfacet
  facet normal 0.100751 0.994912 0
    outer loop
      vertex 3.54492 28.5645 0
      vertex 4.31641 28.4863 1
      vertex 4.31641 28.4863 0
    endloop
  endfacet
  facet normal 0.100751 0.994912 -0
    outer loop
      vertex 3.54492 28.5645 0
      vertex 3.54492 28.5645 1
      vertex 4.31641 28.4863 1
    endloop
  endfacet
  facet normal -0.14394 0.989586 0
    outer loop
      vertex 2.4707 28.4082 0
      vertex 3.54492 28.5645 1
      vertex 3.54492 28.5645 0
    endloop
  endfacet
  facet normal -0.14394 0.989586 0
    outer loop
      vertex 2.4707 28.4082 0
      vertex 2.4707 28.4082 1
      vertex 3.54492 28.5645 1
    endloop
  endfacet
  facet normal -0.413095 0.910688 0
    outer loop
      vertex 1.52344 27.9785 0
      vertex 2.4707 28.4082 1
      vertex 2.4707 28.4082 0
    endloop
  endfacet
  facet normal -0.413095 0.910688 0
    outer loop
      vertex 1.52344 27.9785 0
      vertex 1.52344 27.9785 1
      vertex 2.4707 28.4082 1
    endloop
  endfacet
  facet normal -0.81084 0.585268 0
    outer loop
      vertex 0.585938 26.6797 0
      vertex 1.52344 27.9785 1
      vertex 1.52344 27.9785 0
    endloop
  endfacet
  facet normal -0.81084 0.585268 0
    outer loop
      vertex 0.585938 26.6797 0
      vertex 0.585938 26.6797 1
      vertex 1.52344 27.9785 1
    endloop
  endfacet
  facet normal -0.906884 0.42138 0
    outer loop
      vertex 0.136719 25.7129 0
      vertex 0.585938 26.6797 1
      vertex 0.585938 26.6797 0
    endloop
  endfacet
  facet normal -0.906884 0.42138 0
    outer loop
      vertex 0.136719 25.7129 0
      vertex 0.136719 25.7129 1
      vertex 0.585938 26.6797 1
    endloop
  endfacet
  facet normal -0.991391 0.130938 0
    outer loop
      vertex 0 24.6777 0
      vertex 0.136719 25.7129 1
      vertex 0.136719 25.7129 0
    endloop
  endfacet
  facet normal -0.991391 0.130938 0
    outer loop
      vertex 0 24.6777 0
      vertex 0 24.6777 1
      vertex 0.136719 25.7129 1
    endloop
  endfacet
  facet normal -0.987146 -0.159824 0
    outer loop
      vertex 0.166016 23.6523 0
      vertex 0 24.6777 1
      vertex 0 24.6777 0
    endloop
  endfacet
  facet normal -0.987146 -0.159824 0
    outer loop
      vertex 0.166016 23.6523 0
      vertex 0.166016 23.6523 1
      vertex 0 24.6777 1
    endloop
  endfacet
  facet normal -0.892579 -0.450891 0
    outer loop
      vertex 0.644531 22.7051 0
      vertex 0.166016 23.6523 1
      vertex 0.166016 23.6523 0
    endloop
  endfacet
  facet normal -0.892579 -0.450891 0
    outer loop
      vertex 0.644531 22.7051 0
      vertex 0.644531 22.7051 1
      vertex 0.166016 23.6523 1
    endloop
  endfacet
  facet normal -0.707107 -0.707107 0
    outer loop
      vertex 0.673828 22.6758 0
      vertex 0.644531 22.7051 1
      vertex 0.644531 22.7051 0
    endloop
  endfacet
  facet normal -0.707107 -0.707107 0
    outer loop
      vertex 0.673828 22.6758 0
      vertex 0.673828 22.6758 1
      vertex 0.644531 22.7051 1
    endloop
  endfacet
  facet normal -0.864246 -0.503069 0
    outer loop
      vertex 1.43555 21.3672 0
      vertex 0.673828 22.6758 1
      vertex 0.673828 22.6758 0
    endloop
  endfacet
  facet normal -0.864246 -0.503069 0
    outer loop
      vertex 1.43555 21.3672 0
      vertex 1.43555 21.3672 1
      vertex 0.673828 22.6758 1
    endloop
  endfacet
  facet normal -0.889682 -0.456581 0
    outer loop
      vertex 3.14453 18.0371 0
      vertex 1.43555 21.3672 1
      vertex 1.43555 21.3672 0
    endloop
  endfacet
  facet normal -0.889682 -0.456581 0
    outer loop
      vertex 3.14453 18.0371 0
      vertex 3.14453 18.0371 1
      vertex 1.43555 21.3672 1
    endloop
  endfacet
  facet normal -0.923884 -0.382674 0
    outer loop
      vertex 3.82812 16.3867 0
      vertex 3.14453 18.0371 1
      vertex 3.14453 18.0371 0
    endloop
  endfacet
  facet normal -0.923884 -0.382674 0
    outer loop
      vertex 3.82812 16.3867 0
      vertex 3.82812 16.3867 1
      vertex 3.14453 18.0371 1
    endloop
  endfacet
  facet normal -0.950309 -0.311308 0
    outer loop
      vertex 4.38477 14.6875 0
      vertex 3.82812 16.3867 1
      vertex 3.82812 16.3867 0
    endloop
  endfacet
  facet normal -0.950309 -0.311308 0
    outer loop
      vertex 4.38477 14.6875 0
      vertex 4.38477 14.6875 1
      vertex 3.82812 16.3867 1
    endloop
  endfacet
  facet normal -0.973274 -0.229649 0
    outer loop
      vertex 4.79492 12.9492 0
      vertex 4.38477 14.6875 1
      vertex 4.38477 14.6875 0
    endloop
  endfacet
  facet normal -0.973274 -0.229649 0
    outer loop
      vertex 4.79492 12.9492 0
      vertex 4.79492 12.9492 1
      vertex 4.38477 14.6875 1
    endloop
  endfacet
  facet normal -0.988116 -0.153707 0
    outer loop
      vertex 5.06836 11.1914 0
      vertex 4.79492 12.9492 1
      vertex 4.79492 12.9492 0
    endloop
  endfacet
  facet normal -0.988116 -0.153707 0
    outer loop
      vertex 5.06836 11.1914 0
      vertex 5.06836 11.1914 1
      vertex 4.79492 12.9492 1
    endloop
  endfacet
  facet normal -0.997054 -0.0766965 0
    outer loop
      vertex 5.20508 9.41406 0
      vertex 5.06836 11.1914 1
      vertex 5.06836 11.1914 0
    endloop
  endfacet
  facet normal -0.997054 -0.0766965 0
    outer loop
      vertex 5.20508 9.41406 0
      vertex 5.20508 9.41406 1
      vertex 5.06836 11.1914 1
    endloop
  endfacet
  facet normal -1 0 0
    outer loop
      vertex 5.20508 7.62695 0
      vertex 5.20508 9.41406 1
      vertex 5.20508 9.41406 0
    endloop
  endfacet
  facet normal -1 0 0
    outer loop
      vertex 5.20508 7.62695 0
      vertex 5.20508 7.62695 1
      vertex 5.20508 9.41406 1
    endloop
  endfacet
  facet normal -0.996621 0.0821391 0
    outer loop
      vertex 5.05859 5.84961 0
      vertex 5.20508 7.62695 1
      vertex 5.20508 7.62695 0
    endloop
  endfacet
  facet normal -0.996621 0.0821391 0
    outer loop
      vertex 5.05859 5.84961 0
      vertex 5.05859 5.84961 1
      vertex 5.20508 7.62695 1
    endloop
  endfacet
  facet normal -0.980691 0.195563 0
    outer loop
      vertex 4.39453 2.51953 0
      vertex 5.05859 5.84961 1
      vertex 5.05859 5.84961 0
    endloop
  endfacet
  facet normal -0.980691 0.195563 0
    outer loop
      vertex 4.39453 2.51953 0
      vertex 4.39453 2.51953 1
      vertex 5.05859 5.84961 1
    endloop
  endfacet
  facet normal -0.945253 0.326337 0
    outer loop
      vertex 3.54492 0.0585938 0
      vertex 4.39453 2.51953 1
      vertex 4.39453 2.51953 0
    endloop
  endfacet
  facet normal -0.945253 0.326337 0
    outer loop
      vertex 3.54492 0.0585938 0
      vertex 3.54492 0.0585938 1
      vertex 4.39453 2.51953 1
    endloop
  endfacet
  facet normal -0.0389315 -0.999242 0
    outer loop
      vertex 5.04883 0 0
      vertex 3.54492 0.0585938 1
      vertex 3.54492 0.0585938 0
    endloop
  endfacet
  facet normal -0.0389315 -0.999242 0
    outer loop
      vertex 5.04883 0 0
      vertex 5.04883 0 1
      vertex 3.54492 0.0585938 1
    endloop
  endfacet
  facet normal 0.0263067 -0.999654 0
    outer loop
      vertex 6.5332 0.0390625 0
      vertex 5.04883 0 1
      vertex 5.04883 0 0
    endloop
  endfacet
  facet normal 0.0263067 -0.999654 0
    outer loop
      vertex 6.5332 0.0390625 0
      vertex 6.5332 0.0390625 1
      vertex 5.04883 0 1
    endloop
  endfacet
  facet normal 0.291162 0.956674 -0
    outer loop
      vertex 2.61719 22.5195 0
      vertex 2.61719 22.5195 1
      vertex 3.06641 22.3828 0
    endloop
  endfacet
  facet normal 0.291162 0.956674 0
    outer loop
      vertex 3.06641 22.3828 1
      vertex 3.06641 22.3828 0
      vertex 2.61719 22.5195 1
    endloop
  endfacet
  facet normal 0.480315 0.877096 -0
    outer loop
      vertex 2.20703 22.7441 0
      vertex 2.20703 22.7441 1
      vertex 2.61719 22.5195 0
    endloop
  endfacet
  facet normal 0.480315 0.877096 0
    outer loop
      vertex 2.61719 22.5195 1
      vertex 2.61719 22.5195 0
      vertex 2.20703 22.7441 1
    endloop
  endfacet
  facet normal 0.640184 0.768221 -0
    outer loop
      vertex 1.85547 23.0371 0
      vertex 1.85547 23.0371 1
      vertex 2.20703 22.7441 0
    endloop
  endfacet
  facet normal 0.640184 0.768221 0
    outer loop
      vertex 2.20703 22.7441 1
      vertex 2.20703 22.7441 0
      vertex 1.85547 23.0371 1
    endloop
  endfacet
  facet normal 0.768221 0.640184 -0
    outer loop
      vertex 1.5625 23.3887 0
      vertex 1.5625 23.3887 1
      vertex 1.85547 23.0371 0
    endloop
  endfacet
  facet normal 0.768221 0.640184 0
    outer loop
      vertex 1.85547 23.0371 1
      vertex 1.85547 23.0371 0
      vertex 1.5625 23.3887 1
    endloop
  endfacet
  facet normal 0.877096 0.480315 -0
    outer loop
      vertex 1.33789 23.7988 0
      vertex 1.33789 23.7988 1
      vertex 1.5625 23.3887 0
    endloop
  endfacet
  facet normal 0.877096 0.480315 0
    outer loop
      vertex 1.5625 23.3887 1
      vertex 1.5625 23.3887 0
      vertex 1.33789 23.7988 1
    endloop
  endfacet
  facet normal 0.956674 0.291162 -0
    outer loop
      vertex 1.20117 24.248 0
      vertex 1.20117 24.248 1
      vertex 1.33789 23.7988 0
    endloop
  endfacet
  facet normal 0.956674 0.291162 0
    outer loop
      vertex 1.33789 23.7988 1
      vertex 1.33789 23.7988 0
      vertex 1.20117 24.248 1
    endloop
  endfacet
  facet normal 0.995037 0.0995037 -0
    outer loop
      vertex 1.15234 24.7363 0
      vertex 1.15234 24.7363 1
      vertex 1.20117 24.248 0
    endloop
  endfacet
  facet normal 0.995037 0.0995037 0
    outer loop
      vertex 1.20117 24.248 1
      vertex 1.20117 24.248 0
      vertex 1.15234 24.7363 1
    endloop
  endfacet
  facet normal 0.994834 -0.101514 0
    outer loop
      vertex 1.20117 25.2148 0
      vertex 1.20117 25.2148 1
      vertex 1.15234 24.7363 0
    endloop
  endfacet
  facet normal 0.994834 -0.101514 0
    outer loop
      vertex 1.15234 24.7363 1
      vertex 1.15234 24.7363 0
      vertex 1.20117 25.2148 1
    endloop
  endfacet
  facet normal 0.956674 -0.291162 0
    outer loop
      vertex 1.33789 25.6641 0
      vertex 1.33789 25.6641 1
      vertex 1.20117 25.2148 0
    endloop
  endfacet
  facet normal 0.956674 -0.291162 0
    outer loop
      vertex 1.20117 25.2148 1
      vertex 1.20117 25.2148 0
      vertex 1.33789 25.6641 1
    endloop
  endfacet
  facet normal 0.877096 -0.480315 0
    outer loop
      vertex 1.5625 26.0742 0
      vertex 1.5625 26.0742 1
      vertex 1.33789 25.6641 0
    endloop
  endfacet
  facet normal 0.877096 -0.480315 0
    outer loop
      vertex 1.33789 25.6641 1
      vertex 1.33789 25.6641 0
      vertex 1.5625 26.0742 1
    endloop
  endfacet
  facet normal 0.776756 -0.629802 0
    outer loop
      vertex 1.85547 26.4355 0
      vertex 1.85547 26.4355 1
      vertex 1.5625 26.0742 0
    endloop
  endfacet
  facet normal 0.776756 -0.629802 0
    outer loop
      vertex 1.5625 26.0742 1
      vertex 1.5625 26.0742 0
      vertex 1.85547 26.4355 1
    endloop
  endfacet
  facet normal 0.640184 -0.768221 0
    outer loop
      vertex 2.20703 26.7285 0
      vertex 2.20703 26.7285 1
      vertex 1.85547 26.4355 0
    endloop
  endfacet
  facet normal 0.640184 -0.768221 0
    outer loop
      vertex 1.85547 26.4355 1
      vertex 1.85547 26.4355 0
      vertex 2.20703 26.7285 1
    endloop
  endfacet
  facet normal 0.464007 -0.885832 0
    outer loop
      vertex 2.61719 26.9434 0
      vertex 2.61719 26.9434 1
      vertex 2.20703 26.7285 0
    endloop
  endfacet
  facet normal 0.464007 -0.885832 0
    outer loop
      vertex 2.20703 26.7285 1
      vertex 2.20703 26.7285 0
      vertex 2.61719 26.9434 1
    endloop
  endfacet
  facet normal 0.310021 -0.95073 0
    outer loop
      vertex 3.06641 27.0898 0
      vertex 3.06641 27.0898 1
      vertex 2.61719 26.9434 0
    endloop
  endfacet
  facet normal 0.310021 -0.95073 0
    outer loop
      vertex 2.61719 26.9434 1
      vertex 2.61719 26.9434 0
      vertex 3.06641 27.0898 1
    endloop
  endfacet
  facet normal 0.101514 -0.994834 0
    outer loop
      vertex 3.54492 27.1387 0
      vertex 3.54492 27.1387 1
      vertex 3.06641 27.0898 0
    endloop
  endfacet
  facet normal 0.101514 -0.994834 0
    outer loop
      vertex 3.06641 27.0898 1
      vertex 3.06641 27.0898 0
      vertex 3.54492 27.1387 1
    endloop
  endfacet
  facet normal -0.0995037 -0.995037 0
    outer loop
      vertex 4.0332 27.0898 0
      vertex 4.0332 27.0898 1
      vertex 3.54492 27.1387 0
    endloop
  endfacet
  facet normal -0.0995037 -0.995037 -0
    outer loop
      vertex 3.54492 27.1387 1
      vertex 3.54492 27.1387 0
      vertex 4.0332 27.0898 1
    endloop
  endfacet
  facet normal -0.310021 -0.95073 0
    outer loop
      vertex 4.48242 26.9434 0
      vertex 4.48242 26.9434 1
      vertex 4.0332 27.0898 0
    endloop
  endfacet
  facet normal -0.310021 -0.95073 -0
    outer loop
      vertex 4.0332 27.0898 1
      vertex 4.0332 27.0898 0
      vertex 4.48242 26.9434 1
    endloop
  endfacet
  facet normal -0.464007 -0.885832 0
    outer loop
      vertex 4.89258 26.7285 0
      vertex 4.89258 26.7285 1
      vertex 4.48242 26.9434 0
    endloop
  endfacet
  facet normal -0.464007 -0.885832 -0
    outer loop
      vertex 4.48242 26.9434 1
      vertex 4.48242 26.9434 0
      vertex 4.89258 26.7285 1
    endloop
  endfacet
  facet normal -0.640184 -0.768221 0
    outer loop
      vertex 5.24414 26.4355 0
      vertex 5.24414 26.4355 1
      vertex 4.89258 26.7285 0
    endloop
  endfacet
  facet normal -0.640184 -0.768221 -0
    outer loop
      vertex 4.89258 26.7285 1
      vertex 4.89258 26.7285 0
      vertex 5.24414 26.4355 1
    endloop
  endfacet
  facet normal -0.776756 -0.629802 0
    outer loop
      vertex 5.53711 26.0742 0
      vertex 5.53711 26.0742 1
      vertex 5.24414 26.4355 0
    endloop
  endfacet
  facet normal -0.776756 -0.629802 -0
    outer loop
      vertex 5.24414 26.4355 1
      vertex 5.24414 26.4355 0
      vertex 5.53711 26.0742 1
    endloop
  endfacet
  facet normal -0.877096 -0.480315 0
    outer loop
      vertex 5.76172 25.6641 0
      vertex 5.76172 25.6641 1
      vertex 5.53711 26.0742 0
    endloop
  endfacet
  facet normal -0.877096 -0.480315 -0
    outer loop
      vertex 5.53711 26.0742 1
      vertex 5.53711 26.0742 0
      vertex 5.76172 25.6641 1
    endloop
  endfacet
  facet normal -0.956674 -0.291162 0
    outer loop
      vertex 5.89844 25.2148 0
      vertex 5.89844 25.2148 1
      vertex 5.76172 25.6641 0
    endloop
  endfacet
  facet normal -0.956674 -0.291162 -0
    outer loop
      vertex 5.76172 25.6641 1
      vertex 5.76172 25.6641 0
      vertex 5.89844 25.2148 1
    endloop
  endfacet
  facet normal -0.994834 -0.101514 0
    outer loop
      vertex 5.94727 24.7363 0
      vertex 5.94727 24.7363 1
      vertex 5.89844 25.2148 0
    endloop
  endfacet
  facet normal -0.994834 -0.101514 -0
    outer loop
      vertex 5.89844 25.2148 1
      vertex 5.89844 25.2148 0
      vertex 5.94727 24.7363 1
    endloop
  endfacet
  facet normal -0.995037 0.0995037 0
    outer loop
      vertex 5.89844 24.248 0
      vertex 5.89844 24.248 1
      vertex 5.94727 24.7363 0
    endloop
  endfacet
  facet normal -0.995037 0.0995037 0
    outer loop
      vertex 5.94727 24.7363 1
      vertex 5.94727 24.7363 0
      vertex 5.89844 24.248 1
    endloop
  endfacet
  facet normal -0.956674 0.291162 0
    outer loop
      vertex 5.76172 23.7988 0
      vertex 5.76172 23.7988 1
      vertex 5.89844 24.248 0
    endloop
  endfacet
  facet normal -0.956674 0.291162 0
    outer loop
      vertex 5.89844 24.248 1
      vertex 5.89844 24.248 0
      vertex 5.76172 23.7988 1
    endloop
  endfacet
  facet normal -0.877096 0.480315 0
    outer loop
      vertex 5.53711 23.3887 0
      vertex 5.53711 23.3887 1
      vertex 5.76172 23.7988 0
    endloop
  endfacet
  facet normal -0.877096 0.480315 0
    outer loop
      vertex 5.76172 23.7988 1
      vertex 5.76172 23.7988 0
      vertex 5.53711 23.3887 1
    endloop
  endfacet
  facet normal -0.768221 0.640184 0
    outer loop
      vertex 5.24414 23.0371 0
      vertex 5.24414 23.0371 1
      vertex 5.53711 23.3887 0
    endloop
  endfacet
  facet normal -0.768221 0.640184 0
    outer loop
      vertex 5.53711 23.3887 1
      vertex 5.53711 23.3887 0
      vertex 5.24414 23.0371 1
    endloop
  endfacet
  facet normal -0.640184 0.768221 0
    outer loop
      vertex 4.89258 22.7441 0
      vertex 4.89258 22.7441 1
      vertex 5.24414 23.0371 0
    endloop
  endfacet
  facet normal -0.640184 0.768221 0
    outer loop
      vertex 5.24414 23.0371 1
      vertex 5.24414 23.0371 0
      vertex 4.89258 22.7441 1
    endloop
  endfacet
  facet normal -0.480315 0.877096 0
    outer loop
      vertex 4.48242 22.5195 0
      vertex 4.48242 22.5195 1
      vertex 4.89258 22.7441 0
    endloop
  endfacet
  facet normal -0.480315 0.877096 0
    outer loop
      vertex 4.89258 22.7441 1
      vertex 4.89258 22.7441 0
      vertex 4.48242 22.5195 1
    endloop
  endfacet
  facet normal -0.291162 0.956674 0
    outer loop
      vertex 4.0332 22.3828 0
      vertex 4.0332 22.3828 1
      vertex 4.48242 22.5195 0
    endloop
  endfacet
  facet normal -0.291162 0.956674 0
    outer loop
      vertex 4.48242 22.5195 1
      vertex 4.48242 22.5195 0
      vertex 4.0332 22.3828 1
    endloop
  endfacet
  facet normal -0.0995037 0.995037 0
    outer loop
      vertex 3.54492 22.334 0
      vertex 3.54492 22.334 1
      vertex 4.0332 22.3828 0
    endloop
  endfacet
  facet normal -0.0995037 0.995037 0
    outer loop
      vertex 4.0332 22.3828 1
      vertex 4.0332 22.3828 0
      vertex 3.54492 22.334 1
    endloop
  endfacet
  facet normal 0.101514 0.994834 -0
    outer loop
      vertex 3.06641 22.3828 0
      vertex 3.06641 22.3828 1
      vertex 3.54492 22.334 0
    endloop
  endfacet
  facet normal 0.101514 0.994834 0
    outer loop
      vertex 3.54492 22.334 1
      vertex 3.54492 22.334 0
      vertex 3.06641 22.3828 1
    endloop
  endfacet
  facet normal 0.278058 0.960564 -0
    outer loop
      vertex 6.2207 2.02148 0
      vertex 6.2207 2.02148 1
      vertex 6.5918 1.91406 0
    endloop
  endfacet
  facet normal 0.278058 0.960564 0
    outer loop
      vertex 6.5918 1.91406 1
      vertex 6.5918 1.91406 0
      vertex 6.2207 2.02148 1
    endloop
  endfacet
  facet normal 0.496139 0.868243 -0
    outer loop
      vertex 5.87891 2.2168 0
      vertex 5.87891 2.2168 1
      vertex 6.2207 2.02148 0
    endloop
  endfacet
  facet normal 0.496139 0.868243 0
    outer loop
      vertex 6.2207 2.02148 1
      vertex 6.2207 2.02148 0
      vertex 5.87891 2.2168 1
    endloop
  endfacet
  facet normal 0.681419 0.731894 -0
    outer loop
      vertex 5.5957 2.48047 0
      vertex 5.5957 2.48047 1
      vertex 5.87891 2.2168 0
    endloop
  endfacet
  facet normal 0.681419 0.731894 0
    outer loop
      vertex 5.87891 2.2168 1
      vertex 5.87891 2.2168 0
      vertex 5.5957 2.48047 1
    endloop
  endfacet
  facet normal 0.83957 0.543251 -0
    outer loop
      vertex 5.38086 2.8125 0
      vertex 5.38086 2.8125 1
      vertex 5.5957 2.48047 0
    endloop
  endfacet
  facet normal 0.83957 0.543251 0
    outer loop
      vertex 5.5957 2.48047 1
      vertex 5.5957 2.48047 0
      vertex 5.38086 2.8125 1
    endloop
  endfacet
  facet normal 0.941195 0.337865 -0
    outer loop
      vertex 5.24414 3.19336 0
      vertex 5.24414 3.19336 1
      vertex 5.38086 2.8125 0
    endloop
  endfacet
  facet normal 0.941195 0.337865 0
    outer loop
      vertex 5.38086 2.8125 1
      vertex 5.38086 2.8125 0
      vertex 5.24414 3.19336 1
    endloop
  endfacet
  facet normal 0.981423 -0.191857 0
    outer loop
      vertex 5.49805 4.49219 0
      vertex 5.49805 4.49219 1
      vertex 5.24414 3.19336 0
    endloop
  endfacet
  facet normal 0.981423 -0.191857 0
    outer loop
      vertex 5.24414 3.19336 1
      vertex 5.24414 3.19336 0
      vertex 5.49805 4.49219 1
    endloop
  endfacet
  facet normal 0.684436 -0.729073 0
    outer loop
      vertex 5.97656 4.94141 0
      vertex 5.97656 4.94141 1
      vertex 5.49805 4.49219 0
    endloop
  endfacet
  facet normal 0.684436 -0.729073 0
    outer loop
      vertex 5.49805 4.49219 1
      vertex 5.49805 4.49219 0
      vertex 5.97656 4.94141 1
    endloop
  endfacet
  facet normal 0.58612 -0.810224 0
    outer loop
      vertex 7.35352 5.9375 0
      vertex 7.35352 5.9375 1
      vertex 5.97656 4.94141 0
    endloop
  endfacet
  facet normal 0.58612 -0.810224 0
    outer loop
      vertex 5.97656 4.94141 1
      vertex 5.97656 4.94141 0
      vertex 7.35352 5.9375 1
    endloop
  endfacet
  facet normal 0.668965 -0.743294 0
    outer loop
      vertex 8.42773 6.9043 0
      vertex 8.42773 6.9043 1
      vertex 7.35352 5.9375 0
    endloop
  endfacet
  facet normal 0.668965 -0.743294 0
    outer loop
      vertex 7.35352 5.9375 1
      vertex 7.35352 5.9375 0
      vertex 8.42773 6.9043 1
    endloop
  endfacet
  facet normal 0.770131 -0.637886 0
    outer loop
      vertex 9.22852 7.87109 0
      vertex 9.22852 7.87109 1
      vertex 8.42773 6.9043 0
    endloop
  endfacet
  facet normal 0.770131 -0.637886 0
    outer loop
      vertex 8.42773 6.9043 1
      vertex 8.42773 6.9043 0
      vertex 9.22852 7.87109 1
    endloop
  endfacet
  facet normal 0.860577 -0.509321 0
    outer loop
      vertex 9.79492 8.82812 0
      vertex 9.79492 8.82812 1
      vertex 9.22852 7.87109 0
    endloop
  endfacet
  facet normal 0.860577 -0.509321 0
    outer loop
      vertex 9.22852 7.87109 1
      vertex 9.22852 7.87109 0
      vertex 9.79492 8.82812 1
    endloop
  endfacet
  facet normal 0.935542 -0.353215 0
    outer loop
      vertex 10.1562 9.78516 0
      vertex 10.1562 9.78516 1
      vertex 9.79492 8.82812 0
    endloop
  endfacet
  facet normal 0.935542 -0.353215 0
    outer loop
      vertex 9.79492 8.82812 1
      vertex 9.79492 8.82812 0
      vertex 10.1562 9.78516 1
    endloop
  endfacet
  facet normal 0.981351 -0.192223 0
    outer loop
      vertex 10.3418 10.7324 0
      vertex 10.3418 10.7324 1
      vertex 10.1562 9.78516 0
    endloop
  endfacet
  facet normal 0.981351 -0.192223 0
    outer loop
      vertex 10.1562 9.78516 1
      vertex 10.1562 9.78516 0
      vertex 10.3418 10.7324 1
    endloop
  endfacet
  facet normal 0.999185 -0.0403711 0
    outer loop
      vertex 10.3809 11.6992 0
      vertex 10.3809 11.6992 1
      vertex 10.3418 10.7324 0
    endloop
  endfacet
  facet normal 0.999185 -0.0403711 0
    outer loop
      vertex 10.3418 10.7324 1
      vertex 10.3418 10.7324 0
      vertex 10.3809 11.6992 1
    endloop
  endfacet
  facet normal 0.99751 0.070531 -0
    outer loop
      vertex 10.3125 12.666 0
      vertex 10.3125 12.666 1
      vertex 10.3809 11.6992 0
    endloop
  endfacet
  facet normal 0.99751 0.070531 0
    outer loop
      vertex 10.3809 11.6992 1
      vertex 10.3809 11.6992 0
      vertex 10.3125 12.666 1
    endloop
  endfacet
  facet normal 0.984183 0.177153 -0
    outer loop
      vertex 10.1367 13.6426 0
      vertex 10.1367 13.6426 1
      vertex 10.3125 12.666 0
    endloop
  endfacet
  facet normal 0.984183 0.177153 0
    outer loop
      vertex 10.3125 12.666 1
      vertex 10.3125 12.666 0
      vertex 10.1367 13.6426 1
    endloop
  endfacet
  facet normal 0.965429 0.260666 -0
    outer loop
      vertex 9.87305 14.6191 0
      vertex 9.87305 14.6191 1
      vertex 10.1367 13.6426 0
    endloop
  endfacet
  facet normal 0.965429 0.260666 0
    outer loop
      vertex 10.1367 13.6426 1
      vertex 10.1367 13.6426 0
      vertex 9.87305 14.6191 1
    endloop
  endfacet
  facet normal 0.936134 0.351644 -0
    outer loop
      vertex 9.15039 16.543 0
      vertex 9.15039 16.543 1
      vertex 9.87305 14.6191 0
    endloop
  endfacet
  facet normal 0.936134 0.351644 0
    outer loop
      vertex 9.87305 14.6191 1
      vertex 9.87305 14.6191 0
      vertex 9.15039 16.543 1
    endloop
  endfacet
  facet normal 0.913914 0.405907 -0
    outer loop
      vertex 7.55859 20.127 0
      vertex 7.55859 20.127 1
      vertex 9.15039 16.543 0
    endloop
  endfacet
  facet normal 0.913914 0.405907 0
    outer loop
      vertex 9.15039 16.543 1
      vertex 9.15039 16.543 0
      vertex 7.55859 20.127 1
    endloop
  endfacet
  facet normal 0.96245 0.27146 -0
    outer loop
      vertex 7.45117 20.5078 0
      vertex 7.45117 20.5078 1
      vertex 7.55859 20.127 0
    endloop
  endfacet
  facet normal 0.96245 0.27146 0
    outer loop
      vertex 7.55859 20.127 1
      vertex 7.55859 20.127 0
      vertex 7.45117 20.5078 1
    endloop
  endfacet
  facet normal 0.999688 0.0249922 -0
    outer loop
      vertex 7.44141 20.8984 0
      vertex 7.44141 20.8984 1
      vertex 7.45117 20.5078 0
    endloop
  endfacet
  facet normal 0.999688 0.0249922 0
    outer loop
      vertex 7.45117 20.5078 1
      vertex 7.45117 20.5078 0
      vertex 7.44141 20.8984 1
    endloop
  endfacet
  facet normal 0.984271 -0.176664 0
    outer loop
      vertex 7.50977 21.2793 0
      vertex 7.50977 21.2793 1
      vertex 7.44141 20.8984 0
    endloop
  endfacet
  facet normal 0.984271 -0.176664 0
    outer loop
      vertex 7.44141 20.8984 1
      vertex 7.44141 20.8984 0
      vertex 7.50977 21.2793 1
    endloop
  endfacet
  facet normal 0.904249 -0.427006 0
    outer loop
      vertex 7.67578 21.6309 0
      vertex 7.67578 21.6309 1
      vertex 7.50977 21.2793 0
    endloop
  endfacet
  facet normal 0.904249 -0.427006 0
    outer loop
      vertex 7.50977 21.2793 1
      vertex 7.50977 21.2793 0
      vertex 7.67578 21.6309 1
    endloop
  endfacet
  facet normal 0.663487 -0.748188 0
    outer loop
      vertex 8.19336 22.0898 0
      vertex 8.19336 22.0898 1
      vertex 7.67578 21.6309 0
    endloop
  endfacet
  facet normal 0.663487 -0.748188 0
    outer loop
      vertex 7.67578 21.6309 1
      vertex 7.67578 21.6309 0
      vertex 8.19336 22.0898 1
    endloop
  endfacet
  facet normal 0.413803 -0.910366 0
    outer loop
      vertex 8.51562 22.2363 0
      vertex 8.51562 22.2363 1
      vertex 8.19336 22.0898 0
    endloop
  endfacet
  facet normal 0.413803 -0.910366 0
    outer loop
      vertex 8.19336 22.0898 1
      vertex 8.19336 22.0898 0
      vertex 8.51562 22.2363 1
    endloop
  endfacet
  facet normal 0.178885 -0.98387 0
    outer loop
      vertex 8.83789 22.2949 0
      vertex 8.83789 22.2949 1
      vertex 8.51562 22.2363 0
    endloop
  endfacet
  facet normal 0.178885 -0.98387 0
    outer loop
      vertex 8.51562 22.2363 1
      vertex 8.51562 22.2363 0
      vertex 8.83789 22.2949 1
    endloop
  endfacet
  facet normal -0.141421 -0.989949 0
    outer loop
      vertex 9.24805 22.2363 0
      vertex 9.24805 22.2363 1
      vertex 8.83789 22.2949 0
    endloop
  endfacet
  facet normal -0.141421 -0.989949 -0
    outer loop
      vertex 8.83789 22.2949 1
      vertex 8.83789 22.2949 0
      vertex 9.24805 22.2363 1
    endloop
  endfacet
  facet normal -0.470588 -0.882353 0
    outer loop
      vertex 9.98047 21.8457 0
      vertex 9.98047 21.8457 1
      vertex 9.24805 22.2363 0
    endloop
  endfacet
  facet normal -0.470588 -0.882353 -0
    outer loop
      vertex 9.24805 22.2363 1
      vertex 9.24805 22.2363 0
      vertex 9.98047 21.8457 1
    endloop
  endfacet
  facet normal -0.697742 -0.716349 0
    outer loop
      vertex 10.7324 21.1133 0
      vertex 10.7324 21.1133 1
      vertex 9.98047 21.8457 0
    endloop
  endfacet
  facet normal -0.697742 -0.716349 -0
    outer loop
      vertex 9.98047 21.8457 1
      vertex 9.98047 21.8457 0
      vertex 10.7324 21.1133 1
    endloop
  endfacet
  facet normal -0.909024 -0.416744 0
    outer loop
      vertex 12.2949 17.7051 0
      vertex 12.2949 17.7051 1
      vertex 10.7324 21.1133 0
    endloop
  endfacet
  facet normal -0.909024 -0.416744 -0
    outer loop
      vertex 10.7324 21.1133 1
      vertex 10.7324 21.1133 0
      vertex 12.2949 17.7051 1
    endloop
  endfacet
  facet normal -0.942682 -0.333693 0
    outer loop
      vertex 13.0762 15.498 0
      vertex 13.0762 15.498 1
      vertex 12.2949 17.7051 0
    endloop
  endfacet
  facet normal -0.942682 -0.333693 -0
    outer loop
      vertex 12.2949 17.7051 1
      vertex 12.2949 17.7051 0
      vertex 13.0762 15.498 1
    endloop
  endfacet
  facet normal -0.969201 -0.246272 0
    outer loop
      vertex 13.3789 14.3066 0
      vertex 13.3789 14.3066 1
      vertex 13.0762 15.498 0
    endloop
  endfacet
  facet normal -0.969201 -0.246272 -0
    outer loop
      vertex 13.0762 15.498 1
      vertex 13.0762 15.498 0
      vertex 13.3789 14.3066 1
    endloop
  endfacet
  facet normal -0.986807 -0.161898 0
    outer loop
      vertex 13.584 13.0566 0
      vertex 13.584 13.0566 1
      vertex 13.3789 14.3066 0
    endloop
  endfacet
  facet normal -0.986807 -0.161898 -0
    outer loop
      vertex 13.3789 14.3066 1
      vertex 13.3789 14.3066 0
      vertex 13.584 13.0566 1
    endloop
  endfacet
  facet normal -0.998734 -0.050296 0
    outer loop
      vertex 13.6523 11.6992 0
      vertex 13.6523 11.6992 1
      vertex 13.584 13.0566 0
    endloop
  endfacet
  facet normal -0.998734 -0.050296 -0
    outer loop
      vertex 13.584 13.0566 1
      vertex 13.584 13.0566 0
      vertex 13.6523 11.6992 1
    endloop
  endfacet
  facet normal -0.997054 0.0766965 0
    outer loop
      vertex 13.5449 10.3027 0
      vertex 13.5449 10.3027 1
      vertex 13.6523 11.6992 0
    endloop
  endfacet
  facet normal -0.997054 0.0766965 0
    outer loop
      vertex 13.6523 11.6992 1
      vertex 13.6523 11.6992 0
      vertex 13.5449 10.3027 1
    endloop
  endfacet
  facet normal -0.973593 0.228291 0
    outer loop
      vertex 13.2129 8.88672 0
      vertex 13.2129 8.88672 1
      vertex 13.5449 10.3027 0
    endloop
  endfacet
  facet normal -0.973593 0.228291 0
    outer loop
      vertex 13.5449 10.3027 1
      vertex 13.5449 10.3027 0
      vertex 13.2129 8.88672 1
    endloop
  endfacet
  facet normal -0.932847 0.360272 0
    outer loop
      vertex 12.666 7.4707 0
      vertex 12.666 7.4707 1
      vertex 13.2129 8.88672 0
    endloop
  endfacet
  facet normal -0.932847 0.360272 0
    outer loop
      vertex 13.2129 8.88672 1
      vertex 13.2129 8.88672 0
      vertex 12.666 7.4707 1
    endloop
  endfacet
  facet normal -0.867496 0.497445 0
    outer loop
      vertex 11.8652 6.07422 0
      vertex 11.8652 6.07422 1
      vertex 12.666 7.4707 0
    endloop
  endfacet
  facet normal -0.867496 0.497445 0
    outer loop
      vertex 12.666 7.4707 1
      vertex 12.666 7.4707 0
      vertex 11.8652 6.07422 1
    endloop
  endfacet
  facet normal -0.78416 0.620558 0
    outer loop
      vertex 10.791 4.7168 0
      vertex 10.791 4.7168 1
      vertex 11.8652 6.07422 0
    endloop
  endfacet
  facet normal -0.78416 0.620558 0
    outer loop
      vertex 11.8652 6.07422 1
      vertex 11.8652 6.07422 0
      vertex 10.791 4.7168 1
    endloop
  endfacet
  facet normal -0.69404 0.719937 0
    outer loop
      vertex 9.43359 3.4082 0
      vertex 9.43359 3.4082 1
      vertex 10.791 4.7168 0
    endloop
  endfacet
  facet normal -0.69404 0.719937 0
    outer loop
      vertex 10.791 4.7168 1
      vertex 10.791 4.7168 0
      vertex 9.43359 3.4082 1
    endloop
  endfacet
  facet normal -0.593199 0.805056 0
    outer loop
      vertex 7.76367 2.17773 0
      vertex 7.76367 2.17773 1
      vertex 9.43359 3.4082 0
    endloop
  endfacet
  facet normal -0.593199 0.805056 0
    outer loop
      vertex 9.43359 3.4082 1
      vertex 9.43359 3.4082 0
      vertex 7.76367 2.17773 1
    endloop
  endfacet
  facet normal -0.456317 0.889817 0
    outer loop
      vertex 7.38281 1.98242 0
      vertex 7.38281 1.98242 1
      vertex 7.76367 2.17773 0
    endloop
  endfacet
  facet normal -0.456317 0.889817 0
    outer loop
      vertex 7.76367 2.17773 1
      vertex 7.76367 2.17773 0
      vertex 7.38281 1.98242 1
    endloop
  endfacet
  facet normal -0.19151 0.981491 0
    outer loop
      vertex 6.98242 1.9043 0
      vertex 6.98242 1.9043 1
      vertex 7.38281 1.98242 0
    endloop
  endfacet
  facet normal -0.19151 0.981491 0
    outer loop
      vertex 7.38281 1.98242 1
      vertex 7.38281 1.98242 0
      vertex 6.98242 1.9043 1
    endloop
  endfacet
  facet normal 0.0249922 0.999688 -0
    outer loop
      vertex 6.5918 1.91406 0
      vertex 6.5918 1.91406 1
      vertex 6.98242 1.9043 0
    endloop
  endfacet
  facet normal 0.0249922 0.999688 0
    outer loop
      vertex 6.98242 1.9043 1
      vertex 6.98242 1.9043 0
      vertex 6.5918 1.91406 1
    endloop
  endfacet
endsolid OpenSCAD_Model
