  0
SECTION
  2
HEADER
  9
$ACADVER
  1
AC1014
  9
$HANDSEED
  5
FFFF
  9
$MEASUREMENT
 70
     1
  0
ENDSEC
  0
SECTION
  2
TABLES
  0
TABLE
  2
VPORT
  5
8
330
0
100
AcDbSymbolTable
 70
     4
  0
VPORT
  5
2E
330
8
100
AcDbSymbolTableRecord
100
AcDbViewportTableRecord
  2
*ACTIVE
 70
     0
 10
0.0
 20
0.0
 11
1.0
 21
1.0
 12
210.0
 22
148.5
 13
0.0
 23
0.0
 14
10.0
 24
10.0
 15
10.0
 25
10.0
 16
0.0
 26
0.0
 36
1.0
 17
0.0
 27
0.0
 37
0.0
 40
341.0
 41
1.24
 42
50.0
 43
0.0
 44
0.0
 50
0.0
 51
0.0
 71
     0
 72
   100
 73
     1
 74
     3
 75
     0
 76
     0
 77
     0
 78
     0
  0
ENDTAB
  0
TABLE
  2
LTYPE
  5
5
330
0
100
AcDbSymbolTable
 70
     1
  0
LTYPE
  5
14
330
5
100
AcDbSymbolTableRecord
100
AcDbLinetypeTableRecord
  2
BYBLOCK
 70
     0
  3

 72
    65
 73
     0
 40
0.0
  0
LTYPE
  5
15
330
5
100
AcDbSymbolTableRecord
100
AcDbLinetypeTableRecord
  2
BYLAYER
 70
     0
  3

 72
    65
 73
     0
 40
0.0
  0
LTYPE
  5
16
330
5
100
AcDbSymbolTableRecord
100
AcDbLinetypeTableRecord
  2
CONTINUOUS
 70
     0
  3
Solid line
 72
    65
 73
     0
 40
0.0
  0
ENDTAB
  0
TABLE
  2
LAYER
  5
2
100
AcDbSymbolTable
 70
2
  0
LAYER
  5
50
100
AcDbSymbolTableRecord
100
AcDbLayerTableRecord
  2
0
 70
0
  6
CONTINUOUS
  0
LAYER
  5
51
100
AcDbSymbolTableRecord
100
AcDbLayerTableRecord
  2
Layer_1
 70
0
  6
CONTINUOUS
  0
ENDTAB
  0
TABLE
  2
STYLE
  5
3
330
0
100
AcDbSymbolTable
 70
     1
  0
STYLE
  5
11
330
3
100
AcDbSymbolTableRecord
100
AcDbTextStyleTableRecord
  2
STANDARD
 70
     0
 40
0.0
 41
1.0
 50
0.0
 71
     0
 42
2.5
  3
txt
  4

  0
ENDTAB
  0
TABLE
  2
VIEW
  5
6
330
0
100
AcDbSymbolTable
 70
     0
  0
ENDTAB
  0
TABLE
  2
UCS
  5
7
330
0
100
AcDbSymbolTable
 70
     0
  0
ENDTAB
  0
TABLE
  2
APPID
  5
9
330
0
100
AcDbSymbolTable
 70
     2
  0
APPID
  5
12
330
9
100
AcDbSymbolTableRecord
100
AcDbRegAppTableRecord
  2
ACAD
 70
     0
  0
ENDTAB
  0
TABLE
  2
DIMSTYLE
  5
A
330
0
100
AcDbSymbolTable
 70
     1
  0
DIMSTYLE
105
27
330
A
100
AcDbSymbolTableRecord
100
AcDbDimStyleTableRecord
  2
ISO-25
 70
     0
  3

  4

  5

  6

  7

 40
1.0
 41
2.5
 42
0.625
 43
3.75
 44
1.25
 45
0.0
 46
0.0
 47
0.0
 48
0.0
140
2.5
141
2.5
142
0.0
143
0.03937007874016
144
1.0
145
0.0
146
1.0
147
0.625
 71
     0
 72
     0
 73
     0
 74
     0
 75
     0
 76
     0
 77
     1
 78
     8
170
     0
171
     3
172
     1
173
     0
174
     0
175
     0
176
     0
177
     0
178
     0
270
     2
271
     2
272
     2
273
     2
274
     3
340
11
275
     0
280
     0
281
     0
282
     0
283
     0
284
     8
285
     0
286
     0
287
     3
288
     0
  0
ENDTAB
  0
TABLE
  2
BLOCK_RECORD
  5
1
330
0
100
AcDbSymbolTable
 70
     1
  0
BLOCK_RECORD
  5
1F
330
1
100
AcDbSymbolTableRecord
100
AcDbBlockTableRecord
  2
*MODEL_SPACE
  0
BLOCK_RECORD
  5
1B
330
1
100
AcDbSymbolTableRecord
100
AcDbBlockTableRecord
  2
*PAPER_SPACE
  0
ENDTAB
  0
ENDSEC
  0
SECTION
  2
BLOCKS
  0
BLOCK
  5
20
330
1F
100
AcDbEntity
  8
0
100
AcDbBlockBegin
  2
*MODEL_SPACE
 70
     0
 10
0.0
 20
0.0
 30
0.0
  3
*MODEL_SPACE
  1

  0
ENDBLK
  5
21
330
1F
100
AcDbEntity
  8
0
100
AcDbBlockEnd
  0
BLOCK
  5
1C
330
1B
100
AcDbEntity
 67
     1
  8
0
100
AcDbBlockBegin
  2
*PAPER_SPACE
  1

  0
ENDBLK
  5
1D
330
1B
100
AcDbEntity
 67
     1
  8
0
100
AcDbBlockEnd
  0
ENDSEC
  0
SECTION
  2
ENTITIES
  0
LWPOLYLINE
  5
100
100
AcDbEntity
  8
Layer_1
 62
7
100
AcDbPolyline
 90
70
 70
0
 10
0.354893
 20
2.856259
 30
0.0
 10
0.354893
 20
2.856202
 30
0.0
 10
0.247501
 20
2.840713
 30
0.0
 10
0.151936
 20
2.797498
 30
0.0
 10
0.059717
 20
2.669561
 30
0.0
 10
0.058673
 20
2.668127
 30
0.0
 10
0.013870
 20
2.571478
 30
0.0
 10
0.000043
 20
2.468153
 30
0.0
 10
0.017074
 20
2.365307
 30
0.0
 10
0.064848
 20
2.270095
 30
0.0
 10
0.067162
 20
2.267340
 30
0.0
 10
0.143514
 20
2.136864
 30
0.0
 10
0.231921
 20
1.964613
 30
0.0
 10
0.314210
 20
1.804025
 30
0.0
 10
0.382993
 20
1.638327
 30
0.0
 10
0.438154
 20
1.468375
 30
0.0
 10
0.479581
 20
1.295023
 30
0.0
 10
0.507158
 20
1.119125
 30
0.0
 10
0.520772
 20
0.941536
 30
0.0
 10
0.520309
 20
0.763109
 30
0.0
 10
0.505654
 20
0.584700
 30
0.0
 10
0.439286
 20
0.251932
 30
0.0
 10
0.354953
 20
0.006090
 30
0.0
 10
0.504752
 20
0.000056
 30
0.0
 10
0.653442
 20
0.003925
 30
0.0
 10
0.800599
 20
0.017494
 30
0.0
 10
0.945797
 20
0.040557
 30
0.0
 10
1.088611
 20
0.072909
 30
0.0
 10
1.228618
 20
0.114345
 30
0.0
 10
1.365390
 20
0.164660
 30
0.0
 10
1.498504
 20
0.223649
 30
0.0
 10
1.627535
 20
0.291107
 30
0.0
 10
1.752058
 20
0.366829
 30
0.0
 10
1.871647
 20
0.450610
 30
0.0
 10
1.985879
 20
0.542245
 30
0.0
 10
2.094327
 20
0.641530
 30
0.0
 10
2.196567
 20
0.748259
 30
0.0
 10
2.292174
 20
0.862227
 30
0.0
 10
2.380724
 20
0.983229
 30
0.0
 10
2.278867
 20
1.170553
 30
0.0
 10
2.160665
 20
1.346148
 30
0.0
 10
2.027171
 20
1.509092
 30
0.0
 10
1.879435
 20
1.658466
 30
0.0
 10
1.718509
 20
1.793351
 30
0.0
 10
1.545446
 20
1.912825
 30
0.0
 10
1.361296
 20
2.015970
 30
0.0
 10
1.167112
 20
2.101865
 30
0.0
 10
1.117077
 20
2.169172
 30
0.0
 10
1.062827
 20
2.224084
 30
0.0
 10
1.004868
 20
2.265098
 30
0.0
 10
0.943705
 20
2.290711
 30
0.0
 10
0.902969
 20
2.297932
 30
0.0
 10
0.841635
 20
2.293359
 30
0.0
 10
0.782914
 20
2.269379
 30
0.0
 10
0.729391
 20
2.225723
 30
0.0
 10
0.700346
 20
2.242502
 30
0.0
 10
0.688821
 20
2.274010
 30
0.0
 10
0.694500
 20
2.296830
 30
0.0
 10
0.694161
 20
2.297112
 30
0.0
 10
0.726502
 20
2.382719
 30
0.0
 10
0.737598
 20
2.473556
 30
0.0
 10
0.729816
 20
2.550681
 30
0.0
 10
0.707511
 20
2.622516
 30
0.0
 10
0.672224
 20
2.687522
 30
0.0
 10
0.625492
 20
2.744160
 30
0.0
 10
0.568854
 20
2.790892
 30
0.0
 10
0.503848
 20
2.826179
 30
0.0
 10
0.432013
 20
2.848483
 30
0.0
 10
0.354888
 20
2.856265
 30
0.0
 10
0.354893
 20
2.856259
 30
0.0
  0
LWPOLYLINE
  5
101
100
AcDbEntity
  8
Layer_1
 62
7
100
AcDbPolyline
 90
34
 70
0
 10
0.354893
 20
2.713439
 30
0.0
 10
0.403262
 20
2.708563
 30
0.0
 10
0.448312
 20
2.694579
 30
0.0
 10
0.489079
 20
2.672451
 30
0.0
 10
0.524598
 20
2.643145
 30
0.0
 10
0.553904
 20
2.607626
 30
0.0
 10
0.576032
 20
2.566858
 30
0.0
 10
0.590016
 20
2.521808
 30
0.0
 10
0.594892
 20
2.473440
 30
0.0
 10
0.590016
 20
2.425071
 30
0.0
 10
0.576032
 20
2.380021
 30
0.0
 10
0.553904
 20
2.339254
 30
0.0
 10
0.524598
 20
2.303734
 30
0.0
 10
0.489079
 20
2.274428
 30
0.0
 10
0.448312
 20
2.252301
 30
0.0
 10
0.403262
 20
2.238317
 30
0.0
 10
0.354893
 20
2.233441
 30
0.0
 10
0.306526
 20
2.238317
 30
0.0
 10
0.261476
 20
2.252301
 30
0.0
 10
0.220709
 20
2.274428
 30
0.0
 10
0.185190
 20
2.303734
 30
0.0
 10
0.155884
 20
2.339254
 30
0.0
 10
0.133756
 20
2.380021
 30
0.0
 10
0.119771
 20
2.425071
 30
0.0
 10
0.114894
 20
2.473440
 30
0.0
 10
0.119771
 20
2.521808
 30
0.0
 10
0.133756
 20
2.566858
 30
0.0
 10
0.155884
 20
2.607626
 30
0.0
 10
0.185190
 20
2.643145
 30
0.0
 10
0.220709
 20
2.672451
 30
0.0
 10
0.261476
 20
2.694579
 30
0.0
 10
0.306526
 20
2.708563
 30
0.0
 10
0.354893
 20
2.713439
 30
0.0
 10
0.354893
 20
2.713439
 30
0.0
  0
LWPOLYLINE
  5
102
100
AcDbEntity
  8
Layer_1
 62
7
100
AcDbPolyline
 90
46
 70
0
 10
0.883950
 20
2.229031
 30
0.0
 10
0.924960
 20
2.223298
 30
0.0
 10
0.998231
 20
2.185044
 30
0.0
 10
1.072853
 20
2.111787
 30
0.0
 10
1.229035
 20
1.770134
 30
0.0
 10
1.307460
 20
1.550268
 30
0.0
 10
1.337694
 20
1.430784
 30
0.0
 10
1.358492
 20
1.305966
 30
0.0
 10
1.365704
 20
1.170253
 30
0.0
 10
1.354142
 20
1.030639
 30
0.0
 10
1.321775
 20
0.889029
 30
0.0
 10
1.266572
 20
0.747326
 30
0.0
 10
1.186504
 20
0.607433
 30
0.0
 10
1.079538
 20
0.471253
 30
0.0
 10
0.943645
 20
0.340690
 30
0.0
 10
0.776793
 20
0.217646
 30
0.0
 10
0.738322
 20
0.198431
 30
0.0
 10
0.698618
 20
0.190091
 30
0.0
 10
0.659283
 20
0.191752
 30
0.0
 10
0.621915
 20
0.202542
 30
0.0
 10
0.588114
 20
0.221586
 30
0.0
 10
0.559481
 20
0.248011
 30
0.0
 10
0.537615
 20
0.280944
 30
0.0
 10
0.524117
 20
0.319511
 30
0.0
 10
0.550025
 20
0.449267
 30
0.0
 10
0.597263
 20
0.494522
 30
0.0
 10
0.734883
 20
0.593337
 30
0.0
 10
0.842350
 20
0.690692
 30
0.0
 10
0.922824
 20
0.786991
 30
0.0
 10
0.979460
 20
0.882637
 30
0.0
 10
1.015418
 20
0.978034
 30
0.0
 10
1.033854
 20
1.073587
 30
0.0
 10
1.037926
 20
1.169699
 30
0.0
 10
1.030793
 20
1.266774
 30
0.0
 10
1.013718
 20
1.364582
 30
0.0
 10
0.987323
 20
1.462236
 30
0.0
 10
0.915350
 20
1.654781
 30
0.0
 10
0.756123
 20
2.012679
 30
0.0
 10
0.745113
 20
2.051141
 30
0.0
 10
0.743682
 20
2.090125
 30
0.0
 10
0.751379
 20
2.128021
 30
0.0
 10
0.767753
 20
2.163216
 30
0.0
 10
0.819073
 20
2.209463
 30
0.0
 10
0.851266
 20
2.223998
 30
0.0
 10
0.883950
 20
2.229031
 30
0.0
 10
0.883950
 20
2.229031
 30
0.0
  0
ENDSEC
  0
SECTION
  2
OBJECTS
  0
DICTIONARY
  5
C
330
0
100
AcDbDictionary
  3
ACAD_GROUP
350
D
  3
ACAD_MLINESTYLE
350
17
  0
DICTIONARY
  5
D
330
C
100
AcDbDictionary
  0
DICTIONARY
  5
1A
330
C
100
AcDbDictionary
  0
DICTIONARY
  5
17
330
C
100
AcDbDictionary
  3
STANDARD
350
18
  0
DICTIONARY
  5
19
330
C
100
AcDbDictionary
  0
ENDSEC
  0
EOF
