<?xml version="1.0" encoding="UTF-8" standalone="no"?>
<!-- Created with Inkscape (http://www.inkscape.org/) -->

<svg
   xmlns:dc="http://purl.org/dc/elements/1.1/"
   xmlns:cc="http://creativecommons.org/ns#"
   xmlns:rdf="http://www.w3.org/1999/02/22-rdf-syntax-ns#"
   xmlns:svg="http://www.w3.org/2000/svg"
   xmlns="http://www.w3.org/2000/svg"
   xmlns:sodipodi="http://sodipodi.sourceforge.net/DTD/sodipodi-0.dtd"
   xmlns:inkscape="http://www.inkscape.org/namespaces/inkscape"
   width="78.999832mm"
   height="50.000191mm"
   viewBox="0 0 279.92067 177.16603"
   id="svg2"
   version="1.1"
   inkscape:version="0.91 r13725"
   sodipodi:docname="1-layer-2.svg">
  <defs
     id="defs4" />
  <sodipodi:namedview
     id="base"
     pagecolor="#ffffff"
     bordercolor="#666666"
     borderopacity="1.0"
     inkscape:pageopacity="0.0"
     inkscape:pageshadow="2"
     inkscape:zoom="2.8"
     inkscape:cx="6.3961949"
     inkscape:cy="41.833134"
     inkscape:document-units="px"
     inkscape:current-layer="layer1-0"
     showgrid="false"
     fit-margin-top="0"
     fit-margin-left="0"
     fit-margin-right="0"
     fit-margin-bottom="0"
     inkscape:window-width="1920"
     inkscape:window-height="1029"
     inkscape:window-x="0"
     inkscape:window-y="25"
     inkscape:window-maximized="1"
     showguides="false" />
  <metadata
     id="metadata7">
    <rdf:RDF>
      <cc:Work
         rdf:about="">
        <dc:format>image/svg+xml</dc:format>
        <dc:type
           rdf:resource="http://purl.org/dc/dcmitype/StillImage" />
        <dc:title />
      </cc:Work>
    </rdf:RDF>
  </metadata>
  <g
     inkscape:label="Layer 1"
     inkscape:groupmode="layer"
     id="layer1"
     transform="translate(1.4979739e-6,-875.19618)">
    <g
       id="layer1-0"
       inkscape:label="Layer 1"
       transform="matrix(0.34003939,0,0,0.34003939,-101.01822,-17.854197)">
      <path
         style="fill:#008080;fill-opacity:0.92857139"
         d="m 978.85206,2882.9392 a 14.853465,14.853464 0 0 1 -14.85346,14.8535 14.853465,14.853464 0 0 1 -14.85347,-14.8535 14.853465,14.853464 0 0 1 14.85347,-14.8535 14.853465,14.853464 0 0 1 14.85346,14.8535 z"
         id="path4238" />
      <path
         style="fill:#8040c0"
         d="M 104.13477 0 C 87.26578 0 73.589844 13.676113 73.589844 30.544922 C 73.589844 31.363465 73.622456 32.174174 73.685547 32.976562 C 68.777439 22.67327 58.268394 15.550781 46.095703 15.550781 C 29.226895 15.550781 15.550781 29.226894 15.550781 46.095703 C 15.550781 58.268398 22.671502 68.777453 32.974609 73.685547 C 32.172399 73.62247 31.361488 73.589844 30.542969 73.589844 C 13.67415 73.589844 9.4739031e-15 87.265779 0 104.13477 C 0 121.00357 13.67415 134.67773 30.542969 134.67773 C 36.982127 134.67773 42.957334 132.68526 47.882812 129.2832 C 44.480765 134.20867 42.488281 140.18194 42.488281 146.62109 C 42.488281 163.48994 56.162442 177.16602 73.03125 177.16602 C 89.900238 177.16602 103.57422 163.48994 103.57422 146.62109 C 103.57422 145.80258 103.54357 144.99167 103.48047 144.18945 C 108.3886 154.49258 118.89761 161.61328 131.07031 161.61328 C 147.93907 161.61328 161.61328 147.93912 161.61328 131.07031 C 161.61328 118.89762 154.49273 108.38856 144.18945 103.48047 C 144.99186 103.54355 145.80254 103.57422 146.62109 103.57422 C 163.48986 103.57422 177.16602 89.900263 177.16602 73.03125 C 177.16602 56.162441 163.48986 42.488281 146.62109 42.488281 C 140.18195 42.488281 134.20867 44.480585 129.2832 47.882812 C 132.68543 42.957378 134.67773 36.984043 134.67773 30.544922 C 134.67768 13.676147 121.00358 0 104.13477 0 z M 104.17188 9.7363281 C 115.57865 9.7363281 124.87695 19.034616 124.87695 30.441406 C 124.87695 41.848197 115.57865 51.146484 104.17188 51.146484 C 92.765075 51.146484 83.466797 41.848197 83.466797 30.441406 C 83.466797 19.034616 92.765075 9.7363281 104.17188 9.7363281 z M 104.17188 14.574219 C 95.380365 14.574219 88.304688 21.649892 88.304688 30.441406 C 88.304687 39.23292 95.380365 46.308594 104.17188 46.308594 C 112.96336 46.308594 120.03906 39.23292 120.03906 30.441406 C 120.03906 21.649892 112.96336 14.574219 104.17188 14.574219 z M 104.17188 23.119141 A 7.3214288 7.3214284 0 0 1 111.49414 30.441406 A 7.3214288 7.3214284 0 0 1 104.17188 37.763672 A 7.3214288 7.3214284 0 0 1 96.849609 30.441406 A 7.3214288 7.3214284 0 0 1 104.17188 23.119141 z M 46.009766 26.046875 A 19.950511 19.950511 0 0 1 65.960938 45.996094 A 19.950511 19.950511 0 0 1 46.009766 65.947266 A 19.950511 19.950511 0 0 1 26.060547 45.996094 A 19.950511 19.950511 0 0 1 46.009766 26.046875 z M 46.021484 38.390625 A 7.5761444 7.5761448 0 0 0 38.445312 45.966797 A 7.5761444 7.5761448 0 0 0 46.021484 53.542969 A 7.5761444 7.5761448 0 0 0 53.597656 45.966797 A 7.5761444 7.5761448 0 0 0 46.021484 38.390625 z M 146.59766 53.107422 A 19.950511 19.950511 0 0 1 166.54883 73.056641 A 19.950511 19.950511 0 0 1 146.59766 93.007812 A 19.950511 19.950511 0 0 1 126.64844 73.056641 A 19.950511 19.950511 0 0 1 146.59766 53.107422 z M 88.582031 53.150391 A 35.433066 35.433068 0 0 1 124.01562 88.582031 A 35.433066 35.433068 0 0 1 88.582031 124.01562 A 35.433066 35.433068 0 0 1 53.150391 88.582031 A 35.433066 35.433068 0 0 1 88.582031 53.150391 z M 146.62695 65.496094 A 7.5761444 7.5761448 0 0 0 139.05078 73.072266 A 7.5761444 7.5761448 0 0 0 146.62695 80.648438 A 7.5761444 7.5761448 0 0 0 154.20312 73.072266 A 7.5761444 7.5761448 0 0 0 146.62695 65.496094 z M 30.625 83.423828 C 42.031793 83.423828 51.330078 92.724069 51.330078 104.13086 C 51.330078 115.53765 42.031793 124.83594 30.625 124.83594 C 19.21821 124.83594 9.9199219 115.53765 9.9199219 104.13086 C 9.9199219 92.724069 19.21821 83.423828 30.625 83.423828 z M 30.625 88.263672 C 21.8335 88.263672 14.757813 95.339377 14.757812 104.13086 C 14.757813 112.92237 21.8335 119.99609 30.625 119.99609 C 39.416503 119.99609 46.492188 112.92237 46.492188 104.13086 C 46.492187 95.339377 39.416503 88.263672 30.625 88.263672 z M 30.625 96.808594 A 7.3214288 7.3214284 0 0 1 37.947266 104.13086 A 7.3214288 7.3214284 0 0 1 30.625 111.45117 A 7.3214288 7.3214284 0 0 1 23.302734 104.13086 A 7.3214288 7.3214284 0 0 1 30.625 96.808594 z M 131.25 110.47852 C 142.65679 110.47852 151.95508 119.7768 151.95508 131.18359 C 151.95508 142.59038 142.65679 151.88867 131.25 151.88867 C 119.84321 151.88867 110.54492 142.59038 110.54492 131.18359 C 110.54492 119.7768 119.84321 110.47852 131.25 110.47852 z M 131.25 115.31641 C 122.4585 115.31641 115.38281 122.39208 115.38281 131.18359 C 115.38281 139.97507 122.4585 147.05078 131.25 147.05078 C 140.0415 147.05078 147.11719 139.97507 147.11719 131.18359 C 147.11719 122.39208 140.0415 115.31641 131.25 115.31641 z M 131.25 123.86328 A 7.3214288 7.3214284 0 0 1 138.57227 131.18359 A 7.3214288 7.3214284 0 0 1 131.25 138.50586 A 7.3214288 7.3214284 0 0 1 123.92773 131.18359 A 7.3214288 7.3214284 0 0 1 131.25 123.86328 z M 73.037109 126.69922 A 19.950511 19.950511 0 0 1 92.988281 146.65039 A 19.950511 19.950511 0 0 1 73.037109 166.60156 A 19.950511 19.950511 0 0 1 53.087891 146.65039 A 19.950511 19.950511 0 0 1 73.037109 126.69922 z M 73.056641 139.07812 A 7.5761444 7.5761448 0 0 0 65.480469 146.6543 A 7.5761444 7.5761448 0 0 0 73.056641 154.23047 A 7.5761444 7.5761448 0 0 0 80.632812 146.6543 A 7.5761444 7.5761448 0 0 0 73.056641 139.07812 z "
         transform="matrix(2.9408361,0,0,2.9408359,297.07799,2626.3145)"
         id="path18" />
    </g>
  </g>
</svg>
