<?xml version="1.0" encoding="UTF-8" standalone="no"?>
<!-- Created with Inkscape (http://www.inkscape.org/) -->

<svg
   xmlns:dc="http://purl.org/dc/elements/1.1/"
   xmlns:cc="http://creativecommons.org/ns#"
   xmlns:rdf="http://www.w3.org/1999/02/22-rdf-syntax-ns#"
   xmlns:svg="http://www.w3.org/2000/svg"
   xmlns="http://www.w3.org/2000/svg"
   xmlns:sodipodi="http://sodipodi.sourceforge.net/DTD/sodipodi-0.dtd"
   xmlns:inkscape="http://www.inkscape.org/namespaces/inkscape"
   width="78.999832mm"
   height="50.000191mm"
   viewBox="0 0 279.92067 177.16603"
   id="svg2"
   version="1.1"
   inkscape:version="0.91 r13725"
   sodipodi:docname="1-layer-1b.svg">
  <defs
     id="defs4" />
  <sodipodi:namedview
     id="base"
     pagecolor="#ffffff"
     bordercolor="#666666"
     borderopacity="1.0"
     inkscape:pageopacity="0.0"
     inkscape:pageshadow="2"
     inkscape:zoom="2.8"
     inkscape:cx="123.86605"
     inkscape:cy="84.237525"
     inkscape:document-units="px"
     inkscape:current-layer="layer1-0"
     showgrid="false"
     fit-margin-top="0"
     fit-margin-left="0"
     fit-margin-right="0"
     fit-margin-bottom="0"
     inkscape:window-width="1357"
     inkscape:window-height="854"
     inkscape:window-x="471"
     inkscape:window-y="82"
     inkscape:window-maximized="0" />
  <metadata
     id="metadata7">
    <rdf:RDF>
      <cc:Work
         rdf:about="">
        <dc:format>image/svg+xml</dc:format>
        <dc:type
           rdf:resource="http://purl.org/dc/dcmitype/StillImage" />
        <dc:title></dc:title>
      </cc:Work>
    </rdf:RDF>
  </metadata>
  <g
     inkscape:label="Layer 1"
     inkscape:groupmode="layer"
     id="layer1"
     transform="translate(1.4979739e-6,-875.19618)">
    <g
       id="layer1-0"
       inkscape:label="Layer 1"
       transform="matrix(0.34003939,0,0,0.34003939,-101.01822,-17.854197)">
      <path
         style="fill:#8040c0;stroke:none;stroke-opacity:0.62666667;stroke-width:1.77165356;stroke-miterlimit:4;stroke-dasharray:none"
         d="M 104.13477 0.88671875 C 87.744549 0.88671875 74.476562 14.154888 74.476562 30.544922 C 74.476562 31.339934 74.50705 32.128527 74.568359 32.908203 L 72.886719 33.357422 C 68.121581 23.354246 57.92285 16.4375 46.095703 16.4375 C 29.705674 16.4375 16.4375 29.705669 16.4375 46.095703 C 16.4375 57.922986 23.352524 68.121611 33.355469 72.886719 L 32.90625 74.568359 C 32.126737 74.506982 31.337937 74.476562 30.542969 74.476562 C 14.152919 74.476562 0.88671875 87.744494 0.88671875 104.13477 C 0.88671875 120.52487 14.152858 133.79297 30.542969 133.79297 C 36.799387 133.79297 42.595998 131.85827 47.378906 128.55469 L 48.611328 129.78711 C 45.307696 134.5701 43.375 140.36471 43.375 146.62109 C 43.375 163.01126 56.641221 176.28125 73.03125 176.28125 C 89.421466 176.28125 102.68945 163.01126 102.68945 146.62109 C 102.68945 145.82472 102.65884 145.03788 102.59766 144.25977 L 104.2793 143.80859 C 109.04444 153.81157 119.24306 160.72852 131.07031 160.72852 C 147.46037 160.72852 160.72852 147.46041 160.72852 131.07031 C 160.72852 119.2431 153.81171 109.04632 143.80859 104.28125 L 144.25977 102.59766 C 145.03808 102.65873 145.82467 102.68945 146.62109 102.68945 C 163.01116 102.68945 176.2793 89.421488 176.2793 73.03125 C 176.2793 56.641216 163.01115 43.375 146.62109 43.375 C 140.36467 43.375 134.57008 45.30754 129.78711 48.611328 L 128.55469 47.378906 C 131.85849 42.595946 133.79102 36.80134 133.79102 30.544922 C 133.79096 14.154888 120.52478 0.88671875 104.13477 0.88671875 z M 108.06445 78.667969 C 111.51901 78.667969 114.39548 81.284483 114.82422 84.628906 L 114.86719 84.599609 L 115.04492 86.25 L 115.13477 87.322266 L 115.15625 88.238281 L 115.15625 89.041016 L 115.11328 90.269531 L 115.06836 90.804688 L 115.04492 90.804688 A 26.5748 26.574802 0 0 1 88.582031 115.15625 A 26.5748 26.574802 0 0 1 62.095703 90.353516 L 101.41211 90.353516 L 101.42969 90.246094 L 101.54102 89.0625 L 101.51953 87.925781 L 101.40039 86.945312 C 101.29687 86.475685 101.24023 85.989378 101.24023 85.490234 C 101.24023 81.743307 104.31752 78.667969 108.06445 78.667969 z "
         transform="matrix(2.9408361,0,0,2.9408359,297.07799,2626.3145)"
         id="path18" />
      <path
         style="fill:#800000"
         d="m 1021.2897,2793.0426 a 98.9927,98.9927 0 0 0 -98.99465,98.989 98.9927,98.9927 0 0 0 98.99465,98.9948 98.9927,98.9927 0 0 0 98.989,-98.9948 98.9927,98.9927 0 0 0 -98.989,-98.989 z m -77.97235,104.1987 155.86425,0 a 78.152132,78.152132 0 0 1 -77.8919,72.9408 78.152132,78.152132 0 0 1 -77.97235,-72.9408 z"
         id="path3349"
         inkscape:connector-curvature="0" />
    </g>
  </g>
</svg>
