  0
SECTION
  2
HEADER
  9
$ACADVER
  1
AC1014
  9
$HANDSEED
  5
FFFF
  9
$MEASUREMENT
 70
     1
  0
ENDSEC
  0
SECTION
  2
TABLES
  0
TABLE
  2
VPORT
  5
8
330
0
100
AcDbSymbolTable
 70
     4
  0
VPORT
  5
2E
330
8
100
AcDbSymbolTableRecord
100
AcDbViewportTableRecord
  2
*ACTIVE
 70
     0
 10
0.0
 20
0.0
 11
1.0
 21
1.0
 12
210.0
 22
148.5
 13
0.0
 23
0.0
 14
10.0
 24
10.0
 15
10.0
 25
10.0
 16
0.0
 26
0.0
 36
1.0
 17
0.0
 27
0.0
 37
0.0
 40
341.0
 41
1.24
 42
50.0
 43
0.0
 44
0.0
 50
0.0
 51
0.0
 71
     0
 72
   100
 73
     1
 74
     3
 75
     0
 76
     0
 77
     0
 78
     0
  0
ENDTAB
  0
TABLE
  2
LTYPE
  5
5
330
0
100
AcDbSymbolTable
 70
     1
  0
LTYPE
  5
14
330
5
100
AcDbSymbolTableRecord
100
AcDbLinetypeTableRecord
  2
BYBLOCK
 70
     0
  3

 72
    65
 73
     0
 40
0.0
  0
LTYPE
  5
15
330
5
100
AcDbSymbolTableRecord
100
AcDbLinetypeTableRecord
  2
BYLAYER
 70
     0
  3

 72
    65
 73
     0
 40
0.0
  0
LTYPE
  5
16
330
5
100
AcDbSymbolTableRecord
100
AcDbLinetypeTableRecord
  2
CONTINUOUS
 70
     0
  3
Solid line
 72
    65
 73
     0
 40
0.0
  0
ENDTAB
  0
TABLE
  2
LAYER
  5
2
100
AcDbSymbolTable
 70
2
  0
LAYER
  5
50
100
AcDbSymbolTableRecord
100
AcDbLayerTableRecord
  2
0
 70
0
  6
CONTINUOUS
  0
LAYER
  5
51
100
AcDbSymbolTableRecord
100
AcDbLayerTableRecord
  2
Layer_1
 70
0
  6
CONTINUOUS
  0
ENDTAB
  0
TABLE
  2
STYLE
  5
3
330
0
100
AcDbSymbolTable
 70
     1
  0
STYLE
  5
11
330
3
100
AcDbSymbolTableRecord
100
AcDbTextStyleTableRecord
  2
STANDARD
 70
     0
 40
0.0
 41
1.0
 50
0.0
 71
     0
 42
2.5
  3
txt
  4

  0
ENDTAB
  0
TABLE
  2
VIEW
  5
6
330
0
100
AcDbSymbolTable
 70
     0
  0
ENDTAB
  0
TABLE
  2
UCS
  5
7
330
0
100
AcDbSymbolTable
 70
     0
  0
ENDTAB
  0
TABLE
  2
APPID
  5
9
330
0
100
AcDbSymbolTable
 70
     2
  0
APPID
  5
12
330
9
100
AcDbSymbolTableRecord
100
AcDbRegAppTableRecord
  2
ACAD
 70
     0
  0
ENDTAB
  0
TABLE
  2
DIMSTYLE
  5
A
330
0
100
AcDbSymbolTable
 70
     1
  0
DIMSTYLE
105
27
330
A
100
AcDbSymbolTableRecord
100
AcDbDimStyleTableRecord
  2
ISO-25
 70
     0
  3

  4

  5

  6

  7

 40
1.0
 41
2.5
 42
0.625
 43
3.75
 44
1.25
 45
0.0
 46
0.0
 47
0.0
 48
0.0
140
2.5
141
2.5
142
0.0
143
0.03937007874016
144
1.0
145
0.0
146
1.0
147
0.625
 71
     0
 72
     0
 73
     0
 74
     0
 75
     0
 76
     0
 77
     1
 78
     8
170
     0
171
     3
172
     1
173
     0
174
     0
175
     0
176
     0
177
     0
178
     0
270
     2
271
     2
272
     2
273
     2
274
     3
340
11
275
     0
280
     0
281
     0
282
     0
283
     0
284
     8
285
     0
286
     0
287
     3
288
     0
  0
ENDTAB
  0
TABLE
  2
BLOCK_RECORD
  5
1
330
0
100
AcDbSymbolTable
 70
     1
  0
BLOCK_RECORD
  5
1F
330
1
100
AcDbSymbolTableRecord
100
AcDbBlockTableRecord
  2
*MODEL_SPACE
  0
BLOCK_RECORD
  5
1B
330
1
100
AcDbSymbolTableRecord
100
AcDbBlockTableRecord
  2
*PAPER_SPACE
  0
ENDTAB
  0
ENDSEC
  0
SECTION
  2
BLOCKS
  0
BLOCK
  5
20
330
1F
100
AcDbEntity
  8
0
100
AcDbBlockBegin
  2
*MODEL_SPACE
 70
     0
 10
0.0
 20
0.0
 30
0.0
  3
*MODEL_SPACE
  1

  0
ENDBLK
  5
21
330
1F
100
AcDbEntity
  8
0
100
AcDbBlockEnd
  0
BLOCK
  5
1C
330
1B
100
AcDbEntity
 67
     1
  8
0
100
AcDbBlockBegin
  2
*PAPER_SPACE
  1

  0
ENDBLK
  5
1D
330
1B
100
AcDbEntity
 67
     1
  8
0
100
AcDbBlockEnd
  0
ENDSEC
  0
SECTION
  2
ENTITIES
  0
LWPOLYLINE
  5
100
100
AcDbEntity
  8
Layer_1
 62
7
100
AcDbPolyline
 90
174
 70
0
 10
2.938915
 20
5.000019
 30
0.0
 10
2.850778
 20
4.995568
 30
0.0
 10
2.765187
 20
4.982505
 30
0.0
 10
2.682574
 20
4.961261
 30
0.0
 10
2.603374
 20
4.932272
 30
0.0
 10
2.456943
 20
4.852790
 30
0.0
 10
2.329362
 20
4.747524
 30
0.0
 10
2.224097
 20
4.619943
 30
0.0
 10
2.144615
 20
4.473512
 30
0.0
 10
2.115626
 20
4.394312
 30
0.0
 10
2.094383
 20
4.311700
 30
0.0
 10
2.081320
 20
4.226109
 30
0.0
 10
2.076869
 20
4.137973
 30
0.0
 10
2.079570
 20
4.069347
 30
0.0
 10
2.020433
 20
4.173965
 30
0.0
 10
1.947780
 20
4.268864
 30
0.0
 10
1.862911
 20
4.352739
 30
0.0
 10
1.767130
 20
4.424287
 30
0.0
 10
1.661739
 20
4.482206
 30
0.0
 10
1.548039
 20
4.525190
 30
0.0
 10
1.427333
 20
4.551936
 30
0.0
 10
1.300923
 20
4.561141
 30
0.0
 10
1.212787
 20
4.556691
 30
0.0
 10
1.127197
 20
4.543627
 30
0.0
 10
1.044585
 20
4.522384
 30
0.0
 10
0.965384
 20
4.493395
 30
0.0
 10
0.818954
 20
4.413912
 30
0.0
 10
0.691372
 20
4.308647
 30
0.0
 10
0.586107
 20
4.181065
 30
0.0
 10
0.506624
 20
4.034635
 30
0.0
 10
0.477635
 20
3.955435
 30
0.0
 10
0.456392
 20
3.872822
 30
0.0
 10
0.443329
 20
3.787232
 30
0.0
 10
0.438878
 20
3.699096
 30
0.0
 10
0.448081
 20
3.572686
 30
0.0
 10
0.474821
 20
3.451980
 30
0.0
 10
0.517797
 20
3.338280
 30
0.0
 10
0.575706
 20
3.232889
 30
0.0
 10
0.647245
 20
3.137108
 30
0.0
 10
0.731111
 20
3.052239
 30
0.0
 10
0.826003
 20
2.979586
 30
0.0
 10
0.930617
 20
2.920449
 30
0.0
 10
0.861991
 20
2.923150
 30
0.0
 10
0.773855
 20
2.918699
 30
0.0
 10
0.688266
 20
2.905636
 30
0.0
 10
0.605657
 20
2.884393
 30
0.0
 10
0.526460
 20
2.855404
 30
0.0
 10
0.380038
 20
2.775922
 30
0.0
 10
0.252467
 20
2.670657
 30
0.0
 10
0.147211
 20
2.543076
 30
0.0
 10
0.067738
 20
2.396645
 30
0.0
 10
0.038752
 20
2.317445
 30
0.0
 10
0.017512
 20
2.234832
 30
0.0
 10
0.004450
 20
2.149241
 30
0.0
 10
0.000000
 20
2.061104
 30
0.0
 10
0.004450
 20
1.972969
 30
0.0
 10
0.017512
 20
1.887380
 30
0.0
 10
0.038752
 20
1.804771
 30
0.0
 10
0.067738
 20
1.725574
 30
0.0
 10
0.147211
 20
1.579152
 30
0.0
 10
0.252467
 20
1.451581
 30
0.0
 10
0.380038
 20
1.346326
 30
0.0
 10
0.526460
 20
1.266852
 30
0.0
 10
0.605657
 20
1.237866
 30
0.0
 10
0.688266
 20
1.216626
 30
0.0
 10
0.773855
 20
1.203564
 30
0.0
 10
0.861991
 20
1.199114
 30
0.0
 10
0.995573
 20
1.209400
 30
0.0
 10
1.122695
 20
1.239232
 30
0.0
 10
1.241807
 20
1.287065
 30
0.0
 10
1.351360
 20
1.351360
 30
0.0
 10
1.287066
 20
1.241816
 30
0.0
 10
1.239232
 20
1.122723
 30
0.0
 10
1.209400
 20
0.995619
 30
0.0
 10
1.199114
 20
0.862046
 30
0.0
 10
1.203564
 20
0.773910
 30
0.0
 10
1.216626
 20
0.688319
 30
0.0
 10
1.237866
 20
0.605707
 30
0.0
 10
1.266852
 20
0.526506
 30
0.0
 10
1.346325
 20
0.380076
 30
0.0
 10
1.451581
 20
0.252494
 30
0.0
 10
1.579152
 20
0.147229
 30
0.0
 10
1.725574
 20
0.067746
 30
0.0
 10
1.804771
 20
0.038757
 30
0.0
 10
1.887380
 20
0.017514
 30
0.0
 10
1.972969
 20
0.004451
 30
0.0
 10
2.061104
 20
-0.000000
 30
0.0
 10
2.149241
 20
0.004451
 30
0.0
 10
2.234830
 20
0.017514
 30
0.0
 10
2.317440
 20
0.038757
 30
0.0
 10
2.396637
 20
0.067746
 30
0.0
 10
2.543059
 20
0.147229
 30
0.0
 10
2.670630
 20
0.252494
 30
0.0
 10
2.775885
 20
0.380076
 30
0.0
 10
2.855358
 20
0.526506
 30
0.0
 10
2.884343
 20
0.605707
 30
0.0
 10
2.905583
 20
0.688319
 30
0.0
 10
2.918645
 20
0.773910
 30
0.0
 10
2.923095
 20
0.862046
 30
0.0
 10
2.920449
 20
0.930672
 30
0.0
 10
2.979586
 20
0.826058
 30
0.0
 10
3.052240
 20
0.731166
 30
0.0
 10
3.137108
 20
0.647300
 30
0.0
 10
3.232889
 20
0.575761
 30
0.0
 10
3.338281
 20
0.517852
 30
0.0
 10
3.451980
 20
0.474877
 30
0.0
 10
3.572686
 20
0.448136
 30
0.0
 10
3.699096
 20
0.438933
 30
0.0
 10
3.787231
 20
0.443383
 30
0.0
 10
3.872820
 20
0.456445
 30
0.0
 10
3.955429
 20
0.477685
 30
0.0
 10
4.034626
 20
0.506671
 30
0.0
 10
4.181047
 20
0.586144
 30
0.0
 10
4.308619
 20
0.691400
 30
0.0
 10
4.413875
 20
0.818971
 30
0.0
 10
4.493348
 20
0.965393
 30
0.0
 10
4.522334
 20
1.044590
 30
0.0
 10
4.543574
 20
1.127199
 30
0.0
 10
4.556636
 20
1.212788
 30
0.0
 10
4.561086
 20
1.300923
 30
0.0
 10
4.551884
 20
1.427333
 30
0.0
 10
4.525143
 20
1.548039
 30
0.0
 10
4.482168
 20
1.661739
 30
0.0
 10
4.424260
 20
1.767130
 30
0.0
 10
4.352721
 20
1.862912
 30
0.0
 10
4.268855
 20
1.947780
 30
0.0
 10
4.173963
 20
2.020434
 30
0.0
 10
4.069347
 20
2.079570
 30
0.0
 10
4.137973
 20
2.076924
 30
0.0
 10
4.226109
 20
2.081374
 30
0.0
 10
4.311700
 20
2.094436
 30
0.0
 10
4.394312
 20
2.115676
 30
0.0
 10
4.473512
 20
2.144661
 30
0.0
 10
4.619942
 20
2.224134
 30
0.0
 10
4.747524
 20
2.329389
 30
0.0
 10
4.852790
 20
2.456960
 30
0.0
 10
4.932273
 20
2.603382
 30
0.0
 10
4.961262
 20
2.682579
 30
0.0
 10
4.982505
 20
2.765189
 30
0.0
 10
4.995568
 20
2.850778
 30
0.0
 10
5.000019
 20
2.938915
 30
0.0
 10
4.995568
 20
3.027050
 30
0.0
 10
4.982505
 20
3.112639
 30
0.0
 10
4.961262
 20
3.195248
 30
0.0
 10
4.932273
 20
3.274445
 30
0.0
 10
4.852790
 20
3.420867
 30
0.0
 10
4.747524
 20
3.548438
 30
0.0
 10
4.619942
 20
3.653694
 30
0.0
 10
4.473512
 20
3.733167
 30
0.0
 10
4.394312
 20
3.762153
 30
0.0
 10
4.311700
 20
3.783393
 30
0.0
 10
4.226109
 20
3.796455
 30
0.0
 10
4.137973
 20
3.800905
 30
0.0
 10
4.004400
 20
3.790619
 30
0.0
 10
3.877297
 20
3.760789
 30
0.0
 10
3.758203
 20
3.712956
 30
0.0
 10
3.648660
 20
3.648660
 30
0.0
 10
3.712956
 20
3.758203
 30
0.0
 10
3.760789
 20
3.877297
 30
0.0
 10
3.790619
 20
4.004400
 30
0.0
 10
3.800905
 20
4.137973
 30
0.0
 10
3.796455
 20
4.226109
 30
0.0
 10
3.783393
 20
4.311700
 30
0.0
 10
3.762153
 20
4.394312
 30
0.0
 10
3.733167
 20
4.473512
 30
0.0
 10
3.653694
 20
4.619943
 30
0.0
 10
3.548438
 20
4.747524
 30
0.0
 10
3.420867
 20
4.852790
 30
0.0
 10
3.274445
 20
4.932272
 30
0.0
 10
3.195249
 20
4.961261
 30
0.0
 10
3.112639
 20
4.982505
 30
0.0
 10
3.027050
 20
4.995568
 30
0.0
 10
2.938915
 20
5.000019
 30
0.0
 10
2.938915
 20
5.000019
 30
0.0
  0
LWPOLYLINE
  5
101
100
AcDbEntity
  8
Layer_1
 62
7
100
AcDbPolyline
 90
40
 70
0
 10
3.049819
 20
2.779834
 30
0.0
 10
3.119057
 20
2.766821
 30
0.0
 10
3.177230
 20
2.731114
 30
0.0
 10
3.219392
 20
2.677709
 30
0.0
 10
3.240595
 20
2.611603
 30
0.0
 10
3.241808
 20
2.612430
 30
0.0
 10
3.246824
 20
2.565852
 30
0.0
 10
3.249359
 20
2.535590
 30
0.0
 10
3.249966
 20
2.509739
 30
0.0
 10
3.249966
 20
2.487084
 30
0.0
 10
3.248753
 20
2.452412
 30
0.0
 10
3.247485
 20
2.437309
 30
0.0
 10
3.246824
 20
2.437309
 30
0.0
 10
3.221356
 20
2.296299
 30
0.0
 10
3.171176
 20
2.166141
 30
0.0
 10
3.098941
 20
2.049281
 30
0.0
 10
3.007310
 20
1.948164
 30
0.0
 10
2.898940
 20
1.865237
 30
0.0
 10
2.776490
 20
1.802946
 30
0.0
 10
2.642618
 20
1.763736
 30
0.0
 10
2.499982
 20
1.750054
 30
0.0
 10
2.355682
 20
1.764112
 30
0.0
 10
2.220462
 20
1.804260
 30
0.0
 10
2.097047
 20
1.867943
 30
0.0
 10
1.988164
 20
1.952609
 30
0.0
 10
1.896540
 20
2.055705
 30
0.0
 10
1.824900
 20
2.174678
 30
0.0
 10
1.775971
 20
2.306975
 30
0.0
 10
1.752479
 20
2.450042
 30
0.0
 10
2.862075
 20
2.450042
 30
0.0
 10
2.862572
 20
2.453074
 30
0.0
 10
2.865714
 20
2.486477
 30
0.0
 10
2.865107
 20
2.518558
 30
0.0
 10
2.861745
 20
2.546229
 30
0.0
 10
2.857225
 20
2.587295
 30
0.0
 10
2.872447
 20
2.661991
 30
0.0
 10
2.913867
 20
2.723219
 30
0.0
 10
2.975114
 20
2.764620
 30
0.0
 10
3.049819
 20
2.779834
 30
0.0
 10
3.049819
 20
2.779834
 30
0.0
  0
LWPOLYLINE
  5
102
100
AcDbEntity
  8
Layer_1
 62
7
100
AcDbPolyline
 90
66
 70
0
 10
6.950019
 20
3.399985
 30
0.0
 10
6.852888
 20
3.395082
 30
0.0
 10
6.758563
 20
3.380689
 30
0.0
 10
6.667520
 20
3.357281
 30
0.0
 10
6.580239
 20
3.325338
 30
0.0
 10
6.497195
 20
3.285337
 30
0.0
 10
6.418867
 20
3.237754
 30
0.0
 10
6.345732
 20
3.183068
 30
0.0
 10
6.278268
 20
3.121756
 30
0.0
 10
6.216952
 20
3.054295
 30
0.0
 10
6.162261
 20
2.981163
 30
0.0
 10
6.114674
 20
2.902838
 30
0.0
 10
6.074668
 20
2.819796
 30
0.0
 10
6.042720
 20
2.732517
 30
0.0
 10
6.019307
 20
2.641476
 30
0.0
 10
6.004908
 20
2.547151
 30
0.0
 10
6.000000
 20
2.450020
 30
0.0
 10
6.004647
 20
2.356122
 30
0.0
 10
6.018420
 20
2.263814
 30
0.0
 10
6.041060
 20
2.173719
 30
0.0
 10
6.072311
 20
2.086461
 30
0.0
 10
6.111912
 20
2.002661
 30
0.0
 10
6.159608
 20
1.922944
 30
0.0
 10
6.215139
 20
1.847933
 30
0.0
 10
6.278248
 20
1.778249
 30
0.0
 10
6.347931
 20
1.715140
 30
0.0
 10
6.422943
 20
1.659609
 30
0.0
 10
6.502660
 20
1.611913
 30
0.0
 10
6.586459
 20
1.572311
 30
0.0
 10
6.673718
 20
1.541061
 30
0.0
 10
6.763812
 20
1.518420
 30
0.0
 10
6.856120
 20
1.504647
 30
0.0
 10
6.950019
 20
1.500000
 30
0.0
 10
7.047150
 20
1.504909
 30
0.0
 10
7.141474
 20
1.519308
 30
0.0
 10
7.232515
 20
1.542720
 30
0.0
 10
7.319795
 20
1.574668
 30
0.0
 10
7.402837
 20
1.614675
 30
0.0
 10
7.481162
 20
1.662262
 30
0.0
 10
7.554294
 20
1.716952
 30
0.0
 10
7.621754
 20
1.778268
 30
0.0
 10
7.683067
 20
1.845733
 30
0.0
 10
7.737753
 20
1.918868
 30
0.0
 10
7.785335
 20
1.997196
 30
0.0
 10
7.825337
 20
2.080240
 30
0.0
 10
7.857280
 20
2.167522
 30
0.0
 10
7.880687
 20
2.258564
 30
0.0
 10
7.895081
 20
2.352889
 30
0.0
 10
7.899983
 20
2.450020
 30
0.0
 10
7.895075
 20
2.547147
 30
0.0
 10
7.880677
 20
2.641468
 30
0.0
 10
7.857267
 20
2.732506
 30
0.0
 10
7.825321
 20
2.819783
 30
0.0
 10
7.785317
 20
2.902822
 30
0.0
 10
7.737734
 20
2.981146
 30
0.0
 10
7.683047
 20
3.054276
 30
0.0
 10
7.621735
 20
3.121736
 30
0.0
 10
7.554275
 20
3.183048
 30
0.0
 10
7.481144
 20
3.237735
 30
0.0
 10
7.402821
 20
3.285319
 30
0.0
 10
7.319782
 20
3.325323
 30
0.0
 10
7.232504
 20
3.357268
 30
0.0
 10
7.141467
 20
3.380679
 30
0.0
 10
7.047146
 20
3.395077
 30
0.0
 10
6.950019
 20
3.399985
 30
0.0
 10
6.950019
 20
3.399985
 30
0.0
  0
LWPOLYLINE
  5
103
100
AcDbEntity
  8
Layer_1
 62
7
100
AcDbPolyline
 90
35
 70
0
 10
6.201744
 20
2.400025
 30
0.0
 10
7.697521
 20
2.400025
 30
0.0
 10
7.689126
 20
2.327304
 30
0.0
 10
7.674030
 20
2.256958
 30
0.0
 10
7.652575
 20
2.189303
 30
0.0
 10
7.625101
 20
2.124661
 30
0.0
 10
7.591949
 20
2.063350
 30
0.0
 10
7.553461
 20
2.005688
 30
0.0
 10
7.509976
 20
1.951996
 30
0.0
 10
7.461837
 20
1.902592
 30
0.0
 10
7.409382
 20
1.857796
 30
0.0
 10
7.352954
 20
1.817926
 30
0.0
 10
7.292892
 20
1.783302
 30
0.0
 10
7.229539
 20
1.754242
 30
0.0
 10
7.163234
 20
1.731067
 30
0.0
 10
7.094319
 20
1.714095
 30
0.0
 10
7.023133
 20
1.703645
 30
0.0
 10
6.950019
 20
1.700036
 30
0.0
 10
6.876847
 20
1.703575
 30
0.0
 10
6.805601
 20
1.713966
 30
0.0
 10
6.736624
 20
1.730891
 30
0.0
 10
6.670255
 20
1.754029
 30
0.0
 10
6.606838
 20
1.783062
 30
0.0
 10
6.546714
 20
1.817669
 30
0.0
 10
6.490224
 20
1.857531
 30
0.0
 10
6.437711
 20
1.902329
 30
0.0
 10
6.389515
 20
1.951742
 30
0.0
 10
6.345979
 20
2.005451
 30
0.0
 10
6.307444
 20
2.063136
 30
0.0
 10
6.274252
 20
2.124479
 30
0.0
 10
6.246744
 20
2.189158
 30
0.0
 10
6.225262
 20
2.256856
 30
0.0
 10
6.210149
 20
2.327251
 30
0.0
 10
6.201744
 20
2.400025
 30
0.0
 10
6.201744
 20
2.400025
 30
0.0
  0
ENDSEC
  0
SECTION
  2
OBJECTS
  0
DICTIONARY
  5
C
330
0
100
AcDbDictionary
  3
ACAD_GROUP
350
D
  3
ACAD_MLINESTYLE
350
17
  0
DICTIONARY
  5
D
330
C
100
AcDbDictionary
  0
DICTIONARY
  5
1A
330
C
100
AcDbDictionary
  0
DICTIONARY
  5
17
330
C
100
AcDbDictionary
  3
STANDARD
350
18
  0
DICTIONARY
  5
19
330
C
100
AcDbDictionary
  0
ENDSEC
  0
EOF
