  0
SECTION
  2
HEADER
  9
$ACADVER
  1
AC1014
  9
$HANDSEED
  5
FFFF
  9
$MEASUREMENT
 70
     1
  0
ENDSEC
  0
SECTION
  2
TABLES
  0
TABLE
  2
VPORT
  5
8
330
0
100
AcDbSymbolTable
 70
     4
  0
VPORT
  5
2E
330
8
100
AcDbSymbolTableRecord
100
AcDbViewportTableRecord
  2
*ACTIVE
 70
     0
 10
0.0
 20
0.0
 11
1.0
 21
1.0
 12
210.0
 22
148.5
 13
0.0
 23
0.0
 14
10.0
 24
10.0
 15
10.0
 25
10.0
 16
0.0
 26
0.0
 36
1.0
 17
0.0
 27
0.0
 37
0.0
 40
341.0
 41
1.24
 42
50.0
 43
0.0
 44
0.0
 50
0.0
 51
0.0
 71
     0
 72
   100
 73
     1
 74
     3
 75
     0
 76
     0
 77
     0
 78
     0
  0
ENDTAB
  0
TABLE
  2
LTYPE
  5
5
330
0
100
AcDbSymbolTable
 70
     1
  0
LTYPE
  5
14
330
5
100
AcDbSymbolTableRecord
100
AcDbLinetypeTableRecord
  2
BYBLOCK
 70
     0
  3

 72
    65
 73
     0
 40
0.0
  0
LTYPE
  5
15
330
5
100
AcDbSymbolTableRecord
100
AcDbLinetypeTableRecord
  2
BYLAYER
 70
     0
  3

 72
    65
 73
     0
 40
0.0
  0
LTYPE
  5
16
330
5
100
AcDbSymbolTableRecord
100
AcDbLinetypeTableRecord
  2
CONTINUOUS
 70
     0
  3
Solid line
 72
    65
 73
     0
 40
0.0
  0
ENDTAB
  0
TABLE
  2
LAYER
  5
2
100
AcDbSymbolTable
 70
2
  0
LAYER
  5
50
100
AcDbSymbolTableRecord
100
AcDbLayerTableRecord
  2
0
 70
0
  6
CONTINUOUS
  0
LAYER
  5
51
100
AcDbSymbolTableRecord
100
AcDbLayerTableRecord
  2
Layer_1
 70
0
  6
CONTINUOUS
  0
ENDTAB
  0
TABLE
  2
STYLE
  5
3
330
0
100
AcDbSymbolTable
 70
     1
  0
STYLE
  5
11
330
3
100
AcDbSymbolTableRecord
100
AcDbTextStyleTableRecord
  2
STANDARD
 70
     0
 40
0.0
 41
1.0
 50
0.0
 71
     0
 42
2.5
  3
txt
  4

  0
ENDTAB
  0
TABLE
  2
VIEW
  5
6
330
0
100
AcDbSymbolTable
 70
     0
  0
ENDTAB
  0
TABLE
  2
UCS
  5
7
330
0
100
AcDbSymbolTable
 70
     0
  0
ENDTAB
  0
TABLE
  2
APPID
  5
9
330
0
100
AcDbSymbolTable
 70
     2
  0
APPID
  5
12
330
9
100
AcDbSymbolTableRecord
100
AcDbRegAppTableRecord
  2
ACAD
 70
     0
  0
ENDTAB
  0
TABLE
  2
DIMSTYLE
  5
A
330
0
100
AcDbSymbolTable
 70
     1
  0
DIMSTYLE
105
27
330
A
100
AcDbSymbolTableRecord
100
AcDbDimStyleTableRecord
  2
ISO-25
 70
     0
  3

  4

  5

  6

  7

 40
1.0
 41
2.5
 42
0.625
 43
3.75
 44
1.25
 45
0.0
 46
0.0
 47
0.0
 48
0.0
140
2.5
141
2.5
142
0.0
143
0.03937007874016
144
1.0
145
0.0
146
1.0
147
0.625
 71
     0
 72
     0
 73
     0
 74
     0
 75
     0
 76
     0
 77
     1
 78
     8
170
     0
171
     3
172
     1
173
     0
174
     0
175
     0
176
     0
177
     0
178
     0
270
     2
271
     2
272
     2
273
     2
274
     3
340
11
275
     0
280
     0
281
     0
282
     0
283
     0
284
     8
285
     0
286
     0
287
     3
288
     0
  0
ENDTAB
  0
TABLE
  2
BLOCK_RECORD
  5
1
330
0
100
AcDbSymbolTable
 70
     1
  0
BLOCK_RECORD
  5
1F
330
1
100
AcDbSymbolTableRecord
100
AcDbBlockTableRecord
  2
*MODEL_SPACE
  0
BLOCK_RECORD
  5
1B
330
1
100
AcDbSymbolTableRecord
100
AcDbBlockTableRecord
  2
*PAPER_SPACE
  0
ENDTAB
  0
ENDSEC
  0
SECTION
  2
BLOCKS
  0
BLOCK
  5
20
330
1F
100
AcDbEntity
  8
0
100
AcDbBlockBegin
  2
*MODEL_SPACE
 70
     0
 10
0.0
 20
0.0
 30
0.0
  3
*MODEL_SPACE
  1

  0
ENDBLK
  5
21
330
1F
100
AcDbEntity
  8
0
100
AcDbBlockEnd
  0
BLOCK
  5
1C
330
1B
100
AcDbEntity
 67
     1
  8
0
100
AcDbBlockBegin
  2
*PAPER_SPACE
  1

  0
ENDBLK
  5
1D
330
1B
100
AcDbEntity
 67
     1
  8
0
100
AcDbBlockEnd
  0
ENDSEC
  0
SECTION
  2
ENTITIES
  0
LWPOLYLINE
  5
100
100
AcDbEntity
  8
Layer_1
 62
7
100
AcDbPolyline
 90
8
 70
1
 10
6.749943
 20
5.999949
 30
0.0
 10
6.749943
 20
5.249944
 30
0.0
 10
6.728691
 20
5.249944
 30
0.0
 10
6.728691
 20
5.978660
 30
0.0
 10
5.999937
 20
5.978660
 30
0.0
 10
5.999937
 20
5.999949
 30
0.0
 10
6.749943
 20
5.999949
 30
0.0
 10
6.749943
 20
5.999949
 30
0.0
  0
LWPOLYLINE
  5
101
100
AcDbEntity
  8
Layer_1
 62
7
100
AcDbPolyline
 90
9
 70
1
 10
0.750006
 20
5.999949
 30
0.0
 10
0.750006
 20
5.978660
 30
0.0
 10
0.021249
 20
5.978660
 30
0.0
 10
0.021249
 20
5.249944
 30
0.0
 10
0.000000
 20
5.249944
 30
0.0
 10
0.000000
 20
5.989283
 30
0.0
 10
0.000000
 20
5.999949
 30
0.0
 10
0.750006
 20
5.999949
 30
0.0
 10
0.750006
 20
5.999949
 30
0.0
  0
LWPOLYLINE
  5
102
100
AcDbEntity
  8
Layer_1
 62
7
100
AcDbPolyline
 90
8
 70
1
 10
6.749937
 20
0.599979
 30
0.0
 10
6.749937
 20
-0.000000
 30
0.0
 10
5.999932
 20
-0.000000
 30
0.0
 10
5.999932
 20
0.021249
 30
0.0
 10
6.728686
 20
0.021249
 30
0.0
 10
6.728686
 20
0.599979
 30
0.0
 10
6.749937
 20
0.599979
 30
0.0
 10
6.749937
 20
0.599979
 30
0.0
  0
LWPOLYLINE
  5
103
100
AcDbEntity
  8
Layer_1
 62
7
100
AcDbPolyline
 90
8
 70
1
 10
0.021249
 20
0.599979
 30
0.0
 10
0.021249
 20
0.021249
 30
0.0
 10
0.750006
 20
0.021249
 30
0.0
 10
0.750006
 20
-0.000000
 30
0.0
 10
0.000000
 20
-0.000000
 30
0.0
 10
0.000000
 20
0.599979
 30
0.0
 10
0.021249
 20
0.599979
 30
0.0
 10
0.021249
 20
0.599979
 30
0.0
  0
LWPOLYLINE
  5
104
100
AcDbEntity
  8
Layer_1
 62
7
100
AcDbPolyline
 90
102
 70
0
 10
0.565332
 20
5.161820
 30
0.0
 10
0.457940
 20
5.146330
 30
0.0
 10
0.362375
 20
5.103115
 30
0.0
 10
0.270156
 20
4.975178
 30
0.0
 10
0.269112
 20
4.973691
 30
0.0
 10
0.224308
 20
4.877050
 30
0.0
 10
0.210480
 20
4.773744
 30
0.0
 10
0.227510
 20
4.670917
 30
0.0
 10
0.275284
 20
4.575713
 30
0.0
 10
0.277598
 20
4.572902
 30
0.0
 10
0.353950
 20
4.442427
 30
0.0
 10
0.442357
 20
4.270175
 30
0.0
 10
0.554713
 20
4.041723
 30
0.0
 10
0.640030
 20
3.803772
 30
0.0
 10
0.697974
 20
3.558736
 30
0.0
 10
0.728210
 20
3.309024
 30
0.0
 10
0.730404
 20
3.057048
 30
0.0
 10
0.704221
 20
2.805220
 30
0.0
 10
0.649326
 20
2.555951
 30
0.0
 10
0.565386
 20
2.311652
 30
0.0
 10
0.715185
 20
2.305618
 30
0.0
 10
0.863875
 20
2.309488
 30
0.0
 10
1.011032
 20
2.323057
 30
0.0
 10
1.156230
 20
2.346120
 30
0.0
 10
1.299045
 20
2.378471
 30
0.0
 10
1.439051
 20
2.419907
 30
0.0
 10
1.575823
 20
2.470222
 30
0.0
 10
1.708938
 20
2.529211
 30
0.0
 10
1.837968
 20
2.596669
 30
0.0
 10
1.962491
 20
2.672391
 30
0.0
 10
2.082081
 20
2.756172
 30
0.0
 10
2.196312
 20
2.847808
 30
0.0
 10
2.304760
 20
2.947092
 30
0.0
 10
2.407000
 20
3.053821
 30
0.0
 10
2.502608
 20
3.167789
 30
0.0
 10
2.591157
 20
3.288791
 30
0.0
 10
2.481958
 20
3.488136
 30
0.0
 10
2.354254
 20
3.674078
 30
0.0
 10
2.209321
 20
3.845502
 30
0.0
 10
2.048433
 20
4.001289
 30
0.0
 10
1.872866
 20
4.140324
 30
0.0
 10
1.683893
 20
4.261488
 30
0.0
 10
1.482790
 20
4.363664
 30
0.0
 10
1.270831
 20
4.445737
 30
0.0
 10
1.272271
 20
4.442430
 30
0.0
 10
1.430988
 20
4.095359
 30
0.0
 10
1.514534
 20
3.866845
 30
0.0
 10
1.546874
 20
3.742075
 30
0.0
 10
1.568934
 20
3.611528
 30
0.0
 10
1.576146
 20
3.475815
 30
0.0
 10
1.564584
 20
3.336201
 30
0.0
 10
1.532217
 20
3.194591
 30
0.0
 10
1.477015
 20
3.052888
 30
0.0
 10
1.396947
 20
2.912995
 30
0.0
 10
1.289982
 20
2.776815
 30
0.0
 10
1.154089
 20
2.646252
 30
0.0
 10
0.987237
 20
2.523208
 30
0.0
 10
0.944500
 20
2.502578
 30
0.0
 10
0.900434
 20
2.495162
 30
0.0
 10
0.857226
 20
2.499780
 30
0.0
 10
0.817061
 20
2.515249
 30
0.0
 10
0.782123
 20
2.540387
 30
0.0
 10
0.754600
 20
2.574014
 30
0.0
 10
0.736676
 20
2.614947
 30
0.0
 10
0.730537
 20
2.662004
 30
0.0
 10
0.736135
 20
2.703067
 30
0.0
 10
0.751493
 20
2.740893
 30
0.0
 10
0.775666
 20
2.773794
 30
0.0
 10
0.807707
 20
2.800084
 30
0.0
 10
0.945327
 20
2.898899
 30
0.0
 10
1.052795
 20
2.996254
 30
0.0
 10
1.133268
 20
3.092553
 30
0.0
 10
1.189905
 20
3.188199
 30
0.0
 10
1.225862
 20
3.283596
 30
0.0
 10
1.244299
 20
3.379149
 30
0.0
 10
1.248371
 20
3.475261
 30
0.0
 10
1.241237
 20
3.572337
 30
0.0
 10
1.224163
 20
3.670144
 30
0.0
 10
1.197767
 20
3.767798
 30
0.0
 10
1.125794
 20
3.960344
 30
0.0
 10
0.966567
 20
4.318241
 30
0.0
 10
0.953880
 20
4.371227
 30
0.0
 10
0.958815
 20
4.424126
 30
0.0
 10
0.980276
 20
4.472728
 30
0.0
 10
1.017170
 20
4.512820
 30
0.0
 10
0.939006
 20
4.528144
 30
0.0
 10
0.940163
 20
4.531176
 30
0.0
 10
0.910885
 20
4.547913
 30
0.0
 10
0.899263
 20
4.579572
 30
0.0
 10
0.904941
 20
4.602392
 30
0.0
 10
0.904603
 20
4.602675
 30
0.0
 10
0.936942
 20
4.688281
 30
0.0
 10
0.948037
 20
4.779119
 30
0.0
 10
0.940255
 20
4.856244
 30
0.0
 10
0.917951
 20
4.928078
 30
0.0
 10
0.882664
 20
4.993084
 30
0.0
 10
0.835932
 20
5.049722
 30
0.0
 10
0.779294
 20
5.096454
 30
0.0
 10
0.714289
 20
5.131741
 30
0.0
 10
0.642454
 20
5.154045
 30
0.0
 10
0.565329
 20
5.161827
 30
0.0
 10
0.565332
 20
5.161820
 30
0.0
  0
LWPOLYLINE
  5
105
100
AcDbEntity
  8
Layer_1
 62
7
100
AcDbPolyline
 90
34
 70
0
 10
0.565332
 20
5.019055
 30
0.0
 10
0.613700
 20
5.014179
 30
0.0
 10
0.658751
 20
5.000195
 30
0.0
 10
0.699518
 20
4.978067
 30
0.0
 10
0.735037
 20
4.948761
 30
0.0
 10
0.764343
 20
4.913242
 30
0.0
 10
0.786471
 20
4.872475
 30
0.0
 10
0.800455
 20
4.827424
 30
0.0
 10
0.805331
 20
4.779056
 30
0.0
 10
0.800455
 20
4.730687
 30
0.0
 10
0.786471
 20
4.685637
 30
0.0
 10
0.764343
 20
4.644870
 30
0.0
 10
0.735037
 20
4.609351
 30
0.0
 10
0.699518
 20
4.580045
 30
0.0
 10
0.658751
 20
4.557917
 30
0.0
 10
0.613700
 20
4.543933
 30
0.0
 10
0.565332
 20
4.539057
 30
0.0
 10
0.516965
 20
4.543933
 30
0.0
 10
0.471915
 20
4.557917
 30
0.0
 10
0.431148
 20
4.580045
 30
0.0
 10
0.395629
 20
4.609351
 30
0.0
 10
0.366323
 20
4.644870
 30
0.0
 10
0.344195
 20
4.685637
 30
0.0
 10
0.330210
 20
4.730687
 30
0.0
 10
0.325333
 20
4.779056
 30
0.0
 10
0.330210
 20
4.827424
 30
0.0
 10
0.344195
 20
4.872475
 30
0.0
 10
0.366323
 20
4.913242
 30
0.0
 10
0.395629
 20
4.948761
 30
0.0
 10
0.431148
 20
4.978067
 30
0.0
 10
0.471915
 20
5.000195
 30
0.0
 10
0.516965
 20
5.014179
 30
0.0
 10
0.565332
 20
5.019055
 30
0.0
 10
0.565332
 20
5.019055
 30
0.0
  0
LWPOLYLINE
  5
106
100
AcDbEntity
  8
Layer_1
 62
7
100
AcDbPolyline
 90
102
 70
0
 10
3.972767
 20
2.858050
 30
0.0
 10
4.080160
 20
2.873539
 30
0.0
 10
4.175725
 20
2.916754
 30
0.0
 10
4.267944
 20
3.044691
 30
0.0
 10
4.268988
 20
3.046179
 30
0.0
 10
4.313791
 20
3.142820
 30
0.0
 10
4.327619
 20
3.246125
 30
0.0
 10
4.310589
 20
3.348952
 30
0.0
 10
4.262816
 20
3.444156
 30
0.0
 10
4.260501
 20
3.446967
 30
0.0
 10
4.184149
 20
3.577443
 30
0.0
 10
4.095743
 20
3.749695
 30
0.0
 10
3.983387
 20
3.978147
 30
0.0
 10
3.898069
 20
4.216097
 30
0.0
 10
3.840125
 20
4.461134
 30
0.0
 10
3.809889
 20
4.710846
 30
0.0
 10
3.807695
 20
4.962821
 30
0.0
 10
3.833878
 20
5.214650
 30
0.0
 10
3.888773
 20
5.463919
 30
0.0
 10
3.972714
 20
5.708218
 30
0.0
 10
3.822915
 20
5.714252
 30
0.0
 10
3.674224
 20
5.710382
 30
0.0
 10
3.527067
 20
5.696813
 30
0.0
 10
3.381869
 20
5.673750
 30
0.0
 10
3.239055
 20
5.641398
 30
0.0
 10
3.099049
 20
5.599962
 30
0.0
 10
2.962276
 20
5.549648
 30
0.0
 10
2.829162
 20
5.490659
 30
0.0
 10
2.700131
 20
5.423201
 30
0.0
 10
2.575608
 20
5.347479
 30
0.0
 10
2.456019
 20
5.263697
 30
0.0
 10
2.341788
 20
5.172062
 30
0.0
 10
2.233339
 20
5.072777
 30
0.0
 10
2.131099
 20
4.966049
 30
0.0
 10
2.035492
 20
4.852081
 30
0.0
 10
1.946942
 20
4.731078
 30
0.0
 10
2.056142
 20
4.531734
 30
0.0
 10
2.183845
 20
4.345791
 30
0.0
 10
2.328778
 20
4.174368
 30
0.0
 10
2.489666
 20
4.018580
 30
0.0
 10
2.665234
 20
3.879546
 30
0.0
 10
2.854206
 20
3.758382
 30
0.0
 10
3.055310
 20
3.656205
 30
0.0
 10
3.267268
 20
3.574133
 30
0.0
 10
3.265829
 20
3.577440
 30
0.0
 10
3.107112
 20
3.924511
 30
0.0
 10
3.023566
 20
4.153025
 30
0.0
 10
2.991225
 20
4.277795
 30
0.0
 10
2.969165
 20
4.408342
 30
0.0
 10
2.961954
 20
4.544055
 30
0.0
 10
2.973516
 20
4.683668
 30
0.0
 10
3.005882
 20
4.825278
 30
0.0
 10
3.061084
 20
4.966982
 30
0.0
 10
3.141152
 20
5.106875
 30
0.0
 10
3.248117
 20
5.243055
 30
0.0
 10
3.384010
 20
5.373618
 30
0.0
 10
3.550862
 20
5.496661
 30
0.0
 10
3.593599
 20
5.517292
 30
0.0
 10
3.637665
 20
5.524708
 30
0.0
 10
3.680873
 20
5.520090
 30
0.0
 10
3.721039
 20
5.504621
 30
0.0
 10
3.755976
 20
5.479482
 30
0.0
 10
3.783499
 20
5.445856
 30
0.0
 10
3.801424
 20
5.404923
 30
0.0
 10
3.807563
 20
5.357865
 30
0.0
 10
3.801965
 20
5.316802
 30
0.0
 10
3.786606
 20
5.278977
 30
0.0
 10
3.762433
 20
5.246076
 30
0.0
 10
3.730392
 20
5.219786
 30
0.0
 10
3.592772
 20
5.120970
 30
0.0
 10
3.485305
 20
5.023615
 30
0.0
 10
3.404831
 20
4.927317
 30
0.0
 10
3.348195
 20
4.831671
 30
0.0
 10
3.312237
 20
4.736273
 30
0.0
 10
3.293801
 20
4.640721
 30
0.0
 10
3.289728
 20
4.544608
 30
0.0
 10
3.296862
 20
4.447533
 30
0.0
 10
3.313937
 20
4.349726
 30
0.0
 10
3.340332
 20
4.252071
 30
0.0
 10
3.412305
 20
4.059526
 30
0.0
 10
3.571532
 20
3.701629
 30
0.0
 10
3.584219
 20
3.648643
 30
0.0
 10
3.579285
 20
3.595743
 30
0.0
 10
3.557823
 20
3.547142
 30
0.0
 10
3.520930
 20
3.507050
 30
0.0
 10
3.599094
 20
3.491726
 30
0.0
 10
3.597937
 20
3.488694
 30
0.0
 10
3.627214
 20
3.471957
 30
0.0
 10
3.638836
 20
3.440297
 30
0.0
 10
3.633158
 20
3.417477
 30
0.0
 10
3.633497
 20
3.417195
 30
0.0
 10
3.601157
 20
3.331588
 30
0.0
 10
3.590063
 20
3.240751
 30
0.0
 10
3.597845
 20
3.163626
 30
0.0
 10
3.620149
 20
3.091791
 30
0.0
 10
3.655436
 20
3.026786
 30
0.0
 10
3.702167
 20
2.970148
 30
0.0
 10
3.758805
 20
2.923416
 30
0.0
 10
3.823811
 20
2.888128
 30
0.0
 10
3.895645
 20
2.865824
 30
0.0
 10
3.972770
 20
2.858042
 30
0.0
 10
3.972767
 20
2.858050
 30
0.0
  0
LWPOLYLINE
  5
107
100
AcDbEntity
  8
Layer_1
 62
7
100
AcDbPolyline
 90
34
 70
0
 10
3.972767
 20
3.000815
 30
0.0
 10
3.924399
 20
3.005690
 30
0.0
 10
3.879349
 20
3.019675
 30
0.0
 10
3.838581
 20
3.041802
 30
0.0
 10
3.803062
 20
3.071108
 30
0.0
 10
3.773756
 20
3.106628
 30
0.0
 10
3.751629
 20
3.147395
 30
0.0
 10
3.737644
 20
3.192445
 30
0.0
 10
3.732768
 20
3.240814
 30
0.0
 10
3.737644
 20
3.289182
 30
0.0
 10
3.751629
 20
3.334233
 30
0.0
 10
3.773756
 20
3.375000
 30
0.0
 10
3.803062
 20
3.410519
 30
0.0
 10
3.838581
 20
3.439825
 30
0.0
 10
3.879349
 20
3.461953
 30
0.0
 10
3.924399
 20
3.475937
 30
0.0
 10
3.972767
 20
3.480813
 30
0.0
 10
4.021135
 20
3.475937
 30
0.0
 10
4.066184
 20
3.461953
 30
0.0
 10
4.106951
 20
3.439825
 30
0.0
 10
4.142470
 20
3.410519
 30
0.0
 10
4.171776
 20
3.375000
 30
0.0
 10
4.193905
 20
3.334233
 30
0.0
 10
4.207889
 20
3.289182
 30
0.0
 10
4.212766
 20
3.240814
 30
0.0
 10
4.207889
 20
3.192445
 30
0.0
 10
4.193905
 20
3.147395
 30
0.0
 10
4.171776
 20
3.106628
 30
0.0
 10
4.142470
 20
3.071108
 30
0.0
 10
4.106951
 20
3.041802
 30
0.0
 10
4.066184
 20
3.019675
 30
0.0
 10
4.021135
 20
3.005690
 30
0.0
 10
3.972767
 20
3.000815
 30
0.0
 10
3.972767
 20
3.000815
 30
0.0
  0
LWPOLYLINE
  5
108
100
AcDbEntity
  8
Layer_1
 62
7
100
AcDbPolyline
 90
102
 70
0
 10
4.503170
 20
5.375631
 30
0.0
 10
4.395778
 20
5.360142
 30
0.0
 10
4.300213
 20
5.316927
 30
0.0
 10
4.207994
 20
5.188990
 30
0.0
 10
4.206950
 20
5.187503
 30
0.0
 10
4.162147
 20
5.090861
 30
0.0
 10
4.148318
 20
4.987556
 30
0.0
 10
4.165349
 20
4.884729
 30
0.0
 10
4.213122
 20
4.789525
 30
0.0
 10
4.215436
 20
4.786714
 30
0.0
 10
4.291788
 20
4.656238
 30
0.0
 10
4.380195
 20
4.483987
 30
0.0
 10
4.492551
 20
4.255534
 30
0.0
 10
4.577868
 20
4.017584
 30
0.0
 10
4.635812
 20
3.772547
 30
0.0
 10
4.666049
 20
3.522835
 30
0.0
 10
4.668242
 20
3.270860
 30
0.0
 10
4.642059
 20
3.019032
 30
0.0
 10
4.587165
 20
2.769763
 30
0.0
 10
4.503224
 20
2.525464
 30
0.0
 10
4.653023
 20
2.519430
 30
0.0
 10
4.801714
 20
2.523300
 30
0.0
 10
4.948870
 20
2.536868
 30
0.0
 10
5.094068
 20
2.559931
 30
0.0
 10
5.236883
 20
2.592283
 30
0.0
 10
5.376889
 20
2.633719
 30
0.0
 10
5.513662
 20
2.684034
 30
0.0
 10
5.646776
 20
2.743023
 30
0.0
 10
5.775807
 20
2.810481
 30
0.0
 10
5.900329
 20
2.886203
 30
0.0
 10
6.019919
 20
2.969984
 30
0.0
 10
6.134150
 20
3.061619
 30
0.0
 10
6.242598
 20
3.160904
 30
0.0
 10
6.344839
 20
3.267633
 30
0.0
 10
6.440446
 20
3.381601
 30
0.0
 10
6.528995
 20
3.502603
 30
0.0
 10
6.419796
 20
3.701947
 30
0.0
 10
6.292092
 20
3.887890
 30
0.0
 10
6.147159
 20
4.059314
 30
0.0
 10
5.986271
 20
4.215101
 30
0.0
 10
5.810704
 20
4.354135
 30
0.0
 10
5.621731
 20
4.475299
 30
0.0
 10
5.420628
 20
4.577476
 30
0.0
 10
5.208669
 20
4.659549
 30
0.0
 10
5.210109
 20
4.656241
 30
0.0
 10
5.368826
 20
4.309170
 30
0.0
 10
5.452372
 20
4.080656
 30
0.0
 10
5.484712
 20
3.955886
 30
0.0
 10
5.506772
 20
3.825339
 30
0.0
 10
5.513984
 20
3.689626
 30
0.0
 10
5.502422
 20
3.550013
 30
0.0
 10
5.470056
 20
3.408403
 30
0.0
 10
5.414854
 20
3.266700
 30
0.0
 10
5.334786
 20
3.126806
 30
0.0
 10
5.227820
 20
2.990626
 30
0.0
 10
5.091927
 20
2.860063
 30
0.0
 10
4.925076
 20
2.737020
 30
0.0
 10
4.882338
 20
2.716389
 30
0.0
 10
4.838273
 20
2.708974
 30
0.0
 10
4.795064
 20
2.713591
 30
0.0
 10
4.754899
 20
2.729060
 30
0.0
 10
4.719962
 20
2.754199
 30
0.0
 10
4.692438
 20
2.787826
 30
0.0
 10
4.674514
 20
2.828759
 30
0.0
 10
4.668375
 20
2.875816
 30
0.0
 10
4.673973
 20
2.916879
 30
0.0
 10
4.689332
 20
2.954705
 30
0.0
 10
4.713505
 20
2.987606
 30
0.0
 10
4.745546
 20
3.013895
 30
0.0
 10
4.883165
 20
3.112711
 30
0.0
 10
4.990633
 20
3.210066
 30
0.0
 10
5.071106
 20
3.306364
 30
0.0
 10
5.127743
 20
3.402010
 30
0.0
 10
5.163701
 20
3.497408
 30
0.0
 10
5.182137
 20
3.592961
 30
0.0
 10
5.186209
 20
3.689073
 30
0.0
 10
5.179076
 20
3.786148
 30
0.0
 10
5.162001
 20
3.883955
 30
0.0
 10
5.135606
 20
3.981610
 30
0.0
 10
5.063632
 20
4.174155
 30
0.0
 10
4.904406
 20
4.532053
 30
0.0
 10
4.891718
 20
4.585039
 30
0.0
 10
4.896653
 20
4.637938
 30
0.0
 10
4.918115
 20
4.686539
 30
0.0
 10
4.955008
 20
4.726632
 30
0.0
 10
4.876844
 20
4.741955
 30
0.0
 10
4.878001
 20
4.744987
 30
0.0
 10
4.848724
 20
4.761724
 30
0.0
 10
4.837101
 20
4.793384
 30
0.0
 10
4.842780
 20
4.816204
 30
0.0
 10
4.842441
 20
4.816486
 30
0.0
 10
4.874780
 20
4.902093
 30
0.0
 10
4.885875
 20
4.992930
 30
0.0
 10
4.878093
 20
5.070055
 30
0.0
 10
4.855789
 20
5.141890
 30
0.0
 10
4.820502
 20
5.206896
 30
0.0
 10
4.773770
 20
5.263534
 30
0.0
 10
4.717133
 20
5.310265
 30
0.0
 10
4.652127
 20
5.345553
 30
0.0
 10
4.580293
 20
5.367857
 30
0.0
 10
4.503168
 20
5.375639
 30
0.0
 10
4.503170
 20
5.375631
 30
0.0
  0
LWPOLYLINE
  5
109
100
AcDbEntity
  8
Layer_1
 62
7
100
AcDbPolyline
 90
34
 70
0
 10
4.503170
 20
5.232867
 30
0.0
 10
4.551539
 20
5.227991
 30
0.0
 10
4.596589
 20
5.214006
 30
0.0
 10
4.637356
 20
5.191879
 30
0.0
 10
4.672875
 20
5.162573
 30
0.0
 10
4.702181
 20
5.127054
 30
0.0
 10
4.724309
 20
5.086286
 30
0.0
 10
4.738293
 20
5.041236
 30
0.0
 10
4.743169
 20
4.992867
 30
0.0
 10
4.738293
 20
4.944499
 30
0.0
 10
4.724309
 20
4.899449
 30
0.0
 10
4.702181
 20
4.858681
 30
0.0
 10
4.672875
 20
4.823162
 30
0.0
 10
4.637356
 20
4.793856
 30
0.0
 10
4.596589
 20
4.771728
 30
0.0
 10
4.551539
 20
4.757744
 30
0.0
 10
4.503170
 20
4.752868
 30
0.0
 10
4.454803
 20
4.757744
 30
0.0
 10
4.409753
 20
4.771728
 30
0.0
 10
4.368986
 20
4.793856
 30
0.0
 10
4.333467
 20
4.823162
 30
0.0
 10
4.304161
 20
4.858681
 30
0.0
 10
4.282033
 20
4.899449
 30
0.0
 10
4.268048
 20
4.944499
 30
0.0
 10
4.263171
 20
4.992867
 30
0.0
 10
4.268048
 20
5.041236
 30
0.0
 10
4.282033
 20
5.086286
 30
0.0
 10
4.304161
 20
5.127054
 30
0.0
 10
4.333467
 20
5.162573
 30
0.0
 10
4.368986
 20
5.191879
 30
0.0
 10
4.409753
 20
5.214006
 30
0.0
 10
4.454803
 20
5.227991
 30
0.0
 10
4.503170
 20
5.232867
 30
0.0
 10
4.503170
 20
5.232867
 30
0.0
  0
LWPOLYLINE
  5
10a
100
AcDbEntity
  8
Layer_1
 62
7
100
AcDbPolyline
 90
102
 70
0
 10
6.470428
 20
2.313530
 30
0.0
 10
6.454938
 20
2.420923
 30
0.0
 10
6.411723
 20
2.516487
 30
0.0
 10
6.283786
 20
2.608706
 30
0.0
 10
6.282299
 20
2.609750
 30
0.0
 10
6.185658
 20
2.654554
 30
0.0
 10
6.082352
 20
2.668382
 30
0.0
 10
5.979525
 20
2.651352
 30
0.0
 10
5.884321
 20
2.603578
 30
0.0
 10
5.881510
 20
2.601264
 30
0.0
 10
5.751034
 20
2.524912
 30
0.0
 10
5.578783
 20
2.436505
 30
0.0
 10
5.350330
 20
2.324149
 30
0.0
 10
5.112380
 20
2.238832
 30
0.0
 10
4.867343
 20
2.180888
 30
0.0
 10
4.617632
 20
2.150652
 30
0.0
 10
4.365656
 20
2.148458
 30
0.0
 10
4.113828
 20
2.174641
 30
0.0
 10
3.864559
 20
2.229536
 30
0.0
 10
3.620260
 20
2.313476
 30
0.0
 10
3.614226
 20
2.163677
 30
0.0
 10
3.618096
 20
2.014987
 30
0.0
 10
3.631665
 20
1.867830
 30
0.0
 10
3.654727
 20
1.722632
 30
0.0
 10
3.687079
 20
1.579817
 30
0.0
 10
3.728515
 20
1.439811
 30
0.0
 10
3.778830
 20
1.303039
 30
0.0
 10
3.837819
 20
1.169925
 30
0.0
 10
3.905277
 20
1.040894
 30
0.0
 10
3.980999
 20
0.916371
 30
0.0
 10
4.064780
 20
0.796782
 30
0.0
 10
4.156416
 20
0.682550
 30
0.0
 10
4.255700
 20
0.574102
 30
0.0
 10
4.362429
 20
0.471862
 30
0.0
 10
4.476397
 20
0.376254
 30
0.0
 10
4.597399
 20
0.287705
 30
0.0
 10
4.796744
 20
0.396904
 30
0.0
 10
4.982686
 20
0.524608
 30
0.0
 10
5.154110
 20
0.669541
 30
0.0
 10
5.309897
 20
0.830429
 30
0.0
 10
5.448931
 20
1.005996
 30
0.0
 10
5.570095
 20
1.194969
 30
0.0
 10
5.672272
 20
1.396072
 30
0.0
 10
5.754345
 20
1.608031
 30
0.0
 10
5.751038
 20
1.606591
 30
0.0
 10
5.403967
 20
1.447874
 30
0.0
 10
5.175452
 20
1.364328
 30
0.0
 10
5.050683
 20
1.331988
 30
0.0
 10
4.920136
 20
1.309928
 30
0.0
 10
4.784422
 20
1.302716
 30
0.0
 10
4.644809
 20
1.314278
 30
0.0
 10
4.503199
 20
1.346645
 30
0.0
 10
4.361496
 20
1.401847
 30
0.0
 10
4.221603
 20
1.481915
 30
0.0
 10
4.085423
 20
1.588880
 30
0.0
 10
3.954859
 20
1.724773
 30
0.0
 10
3.831816
 20
1.891625
 30
0.0
 10
3.811186
 20
1.934362
 30
0.0
 10
3.803770
 20
1.978428
 30
0.0
 10
3.808387
 20
2.021636
 30
0.0
 10
3.823856
 20
2.061801
 30
0.0
 10
3.848995
 20
2.096739
 30
0.0
 10
3.882622
 20
2.124262
 30
0.0
 10
3.923555
 20
2.142186
 30
0.0
 10
3.970612
 20
2.148326
 30
0.0
 10
4.011675
 20
2.142728
 30
0.0
 10
4.049501
 20
2.127369
 30
0.0
 10
4.082402
 20
2.103196
 30
0.0
 10
4.108692
 20
2.071155
 30
0.0
 10
4.207507
 20
1.933535
 30
0.0
 10
4.304862
 20
1.826067
 30
0.0
 10
4.401161
 20
1.745594
 30
0.0
 10
4.496807
 20
1.688957
 30
0.0
 10
4.592204
 20
1.653000
 30
0.0
 10
4.687757
 20
1.634564
 30
0.0
 10
4.783869
 20
1.630491
 30
0.0
 10
4.880944
 20
1.637625
 30
0.0
 10
4.978752
 20
1.654699
 30
0.0
 10
5.076406
 20
1.681095
 30
0.0
 10
5.268951
 20
1.753068
 30
0.0
 10
5.626849
 20
1.912295
 30
0.0
 10
5.679835
 20
1.924982
 30
0.0
 10
5.732734
 20
1.920047
 30
0.0
 10
5.781336
 20
1.898586
 30
0.0
 10
5.821428
 20
1.861692
 30
0.0
 10
5.836752
 20
1.939856
 30
0.0
 10
5.839783
 20
1.938699
 30
0.0
 10
5.856520
 20
1.967977
 30
0.0
 10
5.888180
 20
1.979599
 30
0.0
 10
5.911000
 20
1.973921
 30
0.0
 10
5.911282
 20
1.974259
 30
0.0
 10
5.996889
 20
1.941920
 30
0.0
 10
6.087726
 20
1.930825
 30
0.0
 10
6.164852
 20
1.938607
 30
0.0
 10
6.236686
 20
1.960911
 30
0.0
 10
6.301692
 20
1.996198
 30
0.0
 10
6.358330
 20
2.042930
 30
0.0
 10
6.405062
 20
2.099568
 30
0.0
 10
6.440349
 20
2.164573
 30
0.0
 10
6.462653
 20
2.236408
 30
0.0
 10
6.470435
 20
2.313533
 30
0.0
 10
6.470428
 20
2.313530
 30
0.0
  0
LWPOLYLINE
  5
10b
100
AcDbEntity
  8
Layer_1
 62
7
100
AcDbPolyline
 90
34
 70
0
 10
6.327663
 20
2.313530
 30
0.0
 10
6.322787
 20
2.265162
 30
0.0
 10
6.308803
 20
2.220111
 30
0.0
 10
6.286675
 20
2.179344
 30
0.0
 10
6.257369
 20
2.143825
 30
0.0
 10
6.221850
 20
2.114519
 30
0.0
 10
6.181083
 20
2.092391
 30
0.0
 10
6.136032
 20
2.078407
 30
0.0
 10
6.087664
 20
2.073531
 30
0.0
 10
6.039295
 20
2.078407
 30
0.0
 10
5.994245
 20
2.092391
 30
0.0
 10
5.953478
 20
2.114519
 30
0.0
 10
5.917958
 20
2.143825
 30
0.0
 10
5.888652
 20
2.179344
 30
0.0
 10
5.866525
 20
2.220111
 30
0.0
 10
5.852540
 20
2.265162
 30
0.0
 10
5.847664
 20
2.313530
 30
0.0
 10
5.852540
 20
2.361897
 30
0.0
 10
5.866525
 20
2.406947
 30
0.0
 10
5.888652
 20
2.447714
 30
0.0
 10
5.917958
 20
2.483233
 30
0.0
 10
5.953478
 20
2.512539
 30
0.0
 10
5.994245
 20
2.534667
 30
0.0
 10
6.039295
 20
2.548652
 30
0.0
 10
6.087664
 20
2.553529
 30
0.0
 10
6.136032
 20
2.548652
 30
0.0
 10
6.181083
 20
2.534667
 30
0.0
 10
6.221850
 20
2.512539
 30
0.0
 10
6.257369
 20
2.483233
 30
0.0
 10
6.286675
 20
2.447714
 30
0.0
 10
6.308803
 20
2.406947
 30
0.0
 10
6.322787
 20
2.361897
 30
0.0
 10
6.327663
 20
2.313530
 30
0.0
 10
6.327663
 20
2.313530
 30
0.0
  0
LWPOLYLINE
  5
10c
100
AcDbEntity
  8
Layer_1
 62
7
100
AcDbPolyline
 90
102
 70
0
 10
0.650826
 20
0.670821
 30
0.0
 10
0.666315
 20
0.563428
 30
0.0
 10
0.709530
 20
0.467864
 30
0.0
 10
0.837467
 20
0.375645
 30
0.0
 10
0.838954
 20
0.374601
 30
0.0
 10
0.935595
 20
0.329797
 30
0.0
 10
1.038901
 20
0.315969
 30
0.0
 10
1.141728
 20
0.332999
 30
0.0
 10
1.236932
 20
0.380773
 30
0.0
 10
1.239743
 20
0.383087
 30
0.0
 10
1.370219
 20
0.459439
 30
0.0
 10
1.542470
 20
0.547845
 30
0.0
 10
1.770923
 20
0.660202
 30
0.0
 10
2.008873
 20
0.745519
 30
0.0
 10
2.253910
 20
0.803463
 30
0.0
 10
2.503622
 20
0.833699
 30
0.0
 10
2.755597
 20
0.835893
 30
0.0
 10
3.007425
 20
0.809710
 30
0.0
 10
3.256694
 20
0.754815
 30
0.0
 10
3.500993
 20
0.670875
 30
0.0
 10
3.507027
 20
0.820674
 30
0.0
 10
3.503157
 20
0.969364
 30
0.0
 10
3.489589
 20
1.116521
 30
0.0
 10
3.466526
 20
1.261719
 30
0.0
 10
3.434174
 20
1.404534
 30
0.0
 10
3.392738
 20
1.544540
 30
0.0
 10
3.342423
 20
1.681312
 30
0.0
 10
3.283434
 20
1.814426
 30
0.0
 10
3.215976
 20
1.943457
 30
0.0
 10
3.140254
 20
2.067980
 30
0.0
 10
3.056473
 20
2.187569
 30
0.0
 10
2.964838
 20
2.301801
 30
0.0
 10
2.865553
 20
2.410249
 30
0.0
 10
2.758824
 20
2.512489
 30
0.0
 10
2.644856
 20
2.608097
 30
0.0
 10
2.523854
 20
2.696646
 30
0.0
 10
2.324509
 20
2.587447
 30
0.0
 10
2.138567
 20
2.459743
 30
0.0
 10
1.967143
 20
2.314810
 30
0.0
 10
1.811356
 20
2.153922
 30
0.0
 10
1.672322
 20
1.978355
 30
0.0
 10
1.551158
 20
1.789382
 30
0.0
 10
1.448981
 20
1.588279
 30
0.0
 10
1.366908
 20
1.376320
 30
0.0
 10
1.370215
 20
1.377759
 30
0.0
 10
1.717286
 20
1.536477
 30
0.0
 10
1.945801
 20
1.620023
 30
0.0
 10
2.070571
 20
1.652363
 30
0.0
 10
2.201117
 20
1.674423
 30
0.0
 10
2.336831
 20
1.681635
 30
0.0
 10
2.476444
 20
1.670073
 30
0.0
 10
2.618054
 20
1.637706
 30
0.0
 10
2.759757
 20
1.582504
 30
0.0
 10
2.899651
 20
1.502436
 30
0.0
 10
3.035831
 20
1.395471
 30
0.0
 10
3.166394
 20
1.259578
 30
0.0
 10
3.289437
 20
1.092726
 30
0.0
 10
3.310068
 20
1.049989
 30
0.0
 10
3.317483
 20
1.005923
 30
0.0
 10
3.312866
 20
0.962715
 30
0.0
 10
3.297397
 20
0.922549
 30
0.0
 10
3.272258
 20
0.887612
 30
0.0
 10
3.238631
 20
0.860089
 30
0.0
 10
3.197698
 20
0.842165
 30
0.0
 10
3.150641
 20
0.836025
 30
0.0
 10
3.109578
 20
0.841623
 30
0.0
 10
3.071752
 20
0.856982
 30
0.0
 10
3.038851
 20
0.881155
 30
0.0
 10
3.012561
 20
0.913196
 30
0.0
 10
2.913746
 20
1.050816
 30
0.0
 10
2.816391
 20
1.158284
 30
0.0
 10
2.720093
 20
1.238757
 30
0.0
 10
2.624447
 20
1.295394
 30
0.0
 10
2.529049
 20
1.331351
 30
0.0
 10
2.433496
 20
1.349787
 30
0.0
 10
2.337384
 20
1.353860
 30
0.0
 10
2.240309
 20
1.346726
 30
0.0
 10
2.142502
 20
1.329652
 30
0.0
 10
2.044847
 20
1.303256
 30
0.0
 10
1.852302
 20
1.231283
 30
0.0
 10
1.494404
 20
1.072056
 30
0.0
 10
1.441418
 20
1.059369
 30
0.0
 10
1.388519
 20
1.064304
 30
0.0
 10
1.339918
 20
1.085765
 30
0.0
 10
1.299825
 20
1.122659
 30
0.0
 10
1.284501
 20
1.044495
 30
0.0
 10
1.281470
 20
1.045652
 30
0.0
 10
1.264733
 20
1.016374
 30
0.0
 10
1.233073
 20
1.004752
 30
0.0
 10
1.210253
 20
1.010430
 30
0.0
 10
1.209971
 20
1.010092
 30
0.0
 10
1.124364
 20
1.042431
 30
0.0
 10
1.033527
 20
1.053526
 30
0.0
 10
0.956402
 20
1.045743
 30
0.0
 10
0.884567
 20
1.023440
 30
0.0
 10
0.819561
 20
0.988153
 30
0.0
 10
0.762923
 20
0.941421
 30
0.0
 10
0.716191
 20
0.884783
 30
0.0
 10
0.680904
 20
0.819778
 30
0.0
 10
0.658600
 20
0.747943
 30
0.0
 10
0.650818
 20
0.670818
 30
0.0
 10
0.650826
 20
0.670821
 30
0.0
  0
LWPOLYLINE
  5
10d
100
AcDbEntity
  8
Layer_1
 62
7
100
AcDbPolyline
 90
34
 70
0
 10
0.793590
 20
0.670821
 30
0.0
 10
0.798466
 20
0.719189
 30
0.0
 10
0.812450
 20
0.764240
 30
0.0
 10
0.834578
 20
0.805007
 30
0.0
 10
0.863884
 20
0.840526
 30
0.0
 10
0.899403
 20
0.869832
 30
0.0
 10
0.940171
 20
0.891960
 30
0.0
 10
0.985221
 20
0.905944
 30
0.0
 10
1.033589
 20
0.910820
 30
0.0
 10
1.081958
 20
0.905944
 30
0.0
 10
1.127008
 20
0.891960
 30
0.0
 10
1.167776
 20
0.869832
 30
0.0
 10
1.203295
 20
0.840526
 30
0.0
 10
1.232601
 20
0.805007
 30
0.0
 10
1.254728
 20
0.764240
 30
0.0
 10
1.268713
 20
0.719189
 30
0.0
 10
1.273589
 20
0.670821
 30
0.0
 10
1.268713
 20
0.622454
 30
0.0
 10
1.254728
 20
0.577404
 30
0.0
 10
1.232601
 20
0.536637
 30
0.0
 10
1.203295
 20
0.501118
 30
0.0
 10
1.167776
 20
0.471812
 30
0.0
 10
1.127008
 20
0.449684
 30
0.0
 10
1.081958
 20
0.435699
 30
0.0
 10
1.033589
 20
0.430822
 30
0.0
 10
0.985221
 20
0.435699
 30
0.0
 10
0.940171
 20
0.449684
 30
0.0
 10
0.899403
 20
0.471812
 30
0.0
 10
0.863884
 20
0.501118
 30
0.0
 10
0.834578
 20
0.536637
 30
0.0
 10
0.812450
 20
0.577404
 30
0.0
 10
0.798466
 20
0.622454
 30
0.0
 10
0.793590
 20
0.670821
 30
0.0
 10
0.793590
 20
0.670821
 30
0.0
  0
ENDSEC
  0
SECTION
  2
OBJECTS
  0
DICTIONARY
  5
C
330
0
100
AcDbDictionary
  3
ACAD_GROUP
350
D
  3
ACAD_MLINESTYLE
350
17
  0
DICTIONARY
  5
D
330
C
100
AcDbDictionary
  0
DICTIONARY
  5
1A
330
C
100
AcDbDictionary
  0
DICTIONARY
  5
17
330
C
100
AcDbDictionary
  3
STANDARD
350
18
  0
DICTIONARY
  5
19
330
C
100
AcDbDictionary
  0
ENDSEC
  0
EOF
