  0
SECTION
  2
HEADER
  9
$ACADVER
  1
AC1014
  9
$HANDSEED
  5
FFFF
  9
$MEASUREMENT
 70
     1
  0
ENDSEC
  0
SECTION
  2
TABLES
  0
TABLE
  2
VPORT
  5
8
330
0
100
AcDbSymbolTable
 70
     4
  0
VPORT
  5
2E
330
8
100
AcDbSymbolTableRecord
100
AcDbViewportTableRecord
  2
*ACTIVE
 70
     0
 10
0.0
 20
0.0
 11
1.0
 21
1.0
 12
210.0
 22
148.5
 13
0.0
 23
0.0
 14
10.0
 24
10.0
 15
10.0
 25
10.0
 16
0.0
 26
0.0
 36
1.0
 17
0.0
 27
0.0
 37
0.0
 40
341.0
 41
1.24
 42
50.0
 43
0.0
 44
0.0
 50
0.0
 51
0.0
 71
     0
 72
   100
 73
     1
 74
     3
 75
     0
 76
     0
 77
     0
 78
     0
  0
ENDTAB
  0
TABLE
  2
LTYPE
  5
5
330
0
100
AcDbSymbolTable
 70
     1
  0
LTYPE
  5
14
330
5
100
AcDbSymbolTableRecord
100
AcDbLinetypeTableRecord
  2
BYBLOCK
 70
     0
  3

 72
    65
 73
     0
 40
0.0
  0
LTYPE
  5
15
330
5
100
AcDbSymbolTableRecord
100
AcDbLinetypeTableRecord
  2
BYLAYER
 70
     0
  3

 72
    65
 73
     0
 40
0.0
  0
LTYPE
  5
16
330
5
100
AcDbSymbolTableRecord
100
AcDbLinetypeTableRecord
  2
CONTINUOUS
 70
     0
  3
Solid line
 72
    65
 73
     0
 40
0.0
  0
ENDTAB
  0
TABLE
  2
LAYER
  5
2
100
AcDbSymbolTable
 70
2
  0
LAYER
  5
50
100
AcDbSymbolTableRecord
100
AcDbLayerTableRecord
  2
0
 70
0
  6
CONTINUOUS
  0
LAYER
  5
51
100
AcDbSymbolTableRecord
100
AcDbLayerTableRecord
  2
Layer_1
 70
0
  6
CONTINUOUS
  0
ENDTAB
  0
TABLE
  2
STYLE
  5
3
330
0
100
AcDbSymbolTable
 70
     1
  0
STYLE
  5
11
330
3
100
AcDbSymbolTableRecord
100
AcDbTextStyleTableRecord
  2
STANDARD
 70
     0
 40
0.0
 41
1.0
 50
0.0
 71
     0
 42
2.5
  3
txt
  4

  0
ENDTAB
  0
TABLE
  2
VIEW
  5
6
330
0
100
AcDbSymbolTable
 70
     0
  0
ENDTAB
  0
TABLE
  2
UCS
  5
7
330
0
100
AcDbSymbolTable
 70
     0
  0
ENDTAB
  0
TABLE
  2
APPID
  5
9
330
0
100
AcDbSymbolTable
 70
     2
  0
APPID
  5
12
330
9
100
AcDbSymbolTableRecord
100
AcDbRegAppTableRecord
  2
ACAD
 70
     0
  0
ENDTAB
  0
TABLE
  2
DIMSTYLE
  5
A
330
0
100
AcDbSymbolTable
 70
     1
  0
DIMSTYLE
105
27
330
A
100
AcDbSymbolTableRecord
100
AcDbDimStyleTableRecord
  2
ISO-25
 70
     0
  3

  4

  5

  6

  7

 40
1.0
 41
2.5
 42
0.625
 43
3.75
 44
1.25
 45
0.0
 46
0.0
 47
0.0
 48
0.0
140
2.5
141
2.5
142
0.0
143
0.03937007874016
144
1.0
145
0.0
146
1.0
147
0.625
 71
     0
 72
     0
 73
     0
 74
     0
 75
     0
 76
     0
 77
     1
 78
     8
170
     0
171
     3
172
     1
173
     0
174
     0
175
     0
176
     0
177
     0
178
     0
270
     2
271
     2
272
     2
273
     2
274
     3
340
11
275
     0
280
     0
281
     0
282
     0
283
     0
284
     8
285
     0
286
     0
287
     3
288
     0
  0
ENDTAB
  0
TABLE
  2
BLOCK_RECORD
  5
1
330
0
100
AcDbSymbolTable
 70
     1
  0
BLOCK_RECORD
  5
1F
330
1
100
AcDbSymbolTableRecord
100
AcDbBlockTableRecord
  2
*MODEL_SPACE
  0
BLOCK_RECORD
  5
1B
330
1
100
AcDbSymbolTableRecord
100
AcDbBlockTableRecord
  2
*PAPER_SPACE
  0
ENDTAB
  0
ENDSEC
  0
SECTION
  2
BLOCKS
  0
BLOCK
  5
20
330
1F
100
AcDbEntity
  8
0
100
AcDbBlockBegin
  2
*MODEL_SPACE
 70
     0
 10
0.0
 20
0.0
 30
0.0
  3
*MODEL_SPACE
  1

  0
ENDBLK
  5
21
330
1F
100
AcDbEntity
  8
0
100
AcDbBlockEnd
  0
BLOCK
  5
1C
330
1B
100
AcDbEntity
 67
     1
  8
0
100
AcDbBlockBegin
  2
*PAPER_SPACE
  1

  0
ENDBLK
  5
1D
330
1B
100
AcDbEntity
 67
     1
  8
0
100
AcDbBlockEnd
  0
ENDSEC
  0
SECTION
  2
ENTITIES
  0
LWPOLYLINE
  5
100
100
AcDbEntity
  8
Layer_1
 62
7
100
AcDbPolyline
 90
146
 70
0
 10
3.784589
 20
5.860546
 30
0.0
 10
3.699148
 20
5.857184
 30
0.0
 10
3.617102
 20
5.840200
 30
0.0
 10
3.539815
 20
5.810539
 30
0.0
 10
3.468649
 20
5.769146
 30
0.0
 10
3.404967
 20
5.716968
 30
0.0
 10
3.350132
 20
5.654950
 30
0.0
 10
3.305507
 20
5.584038
 30
0.0
 10
3.272455
 20
5.505177
 30
0.0
 10
3.252891
 20
5.419925
 30
0.0
 10
3.248036
 20
5.332592
 30
0.0
 10
2.999989
 20
5.349955
 30
0.0
 10
2.783241
 20
5.339440
 30
0.0
 10
2.569741
 20
5.309228
 30
0.0
 10
2.360756
 20
5.259811
 30
0.0
 10
2.157553
 20
5.191678
 30
0.0
 10
1.961401
 20
5.105319
 30
0.0
 10
1.773566
 20
5.001227
 30
0.0
 10
1.595318
 20
4.879890
 30
0.0
 10
1.427923
 20
4.741799
 30
0.0
 10
1.372753
 20
4.809306
 30
0.0
 10
1.306986
 20
4.866539
 30
0.0
 10
1.232934
 20
4.911353
 30
0.0
 10
1.152995
 20
4.942958
 30
0.0
 10
1.068912
 20
4.960827
 30
0.0
 10
0.982431
 20
4.964435
 30
0.0
 10
0.867493
 20
4.946402
 30
0.0
 10
0.760798
 20
4.903699
 30
0.0
 10
0.666225
 20
4.838405
 30
0.0
 10
0.587651
 20
4.752603
 30
0.0
 10
0.535111
 20
4.662487
 30
0.0
 10
0.502569
 20
4.566642
 30
0.0
 10
0.489565
 20
4.467962
 30
0.0
 10
0.495641
 20
4.369338
 30
0.0
 10
0.520340
 20
4.273665
 30
0.0
 10
0.563202
 20
4.183833
 30
0.0
 10
0.623771
 20
4.102737
 30
0.0
 10
0.701587
 20
4.033267
 30
0.0
 10
0.776366
 20
3.988440
 30
0.0
 10
0.857636
 20
3.956869
 30
0.0
 10
0.768175
 20
3.726833
 30
0.0
 10
0.703478
 20
3.489343
 30
0.0
 10
0.663977
 20
3.246388
 30
0.0
 10
0.650103
 20
2.999959
 30
0.0
 10
0.663968
 20
2.753502
 30
0.0
 10
0.703467
 20
2.510519
 30
0.0
 10
0.768166
 20
2.273001
 30
0.0
 10
0.857636
 20
2.042939
 30
0.0
 10
0.776397
 20
2.011391
 30
0.0
 10
0.701642
 20
1.966596
 30
0.0
 10
0.623826
 20
1.897126
 30
0.0
 10
0.563257
 20
1.816030
 30
0.0
 10
0.520395
 20
1.726198
 30
0.0
 10
0.495696
 20
1.630525
 30
0.0
 10
0.489620
 20
1.531901
 30
0.0
 10
0.502624
 20
1.433221
 30
0.0
 10
0.535166
 20
1.337377
 30
0.0
 10
0.587706
 20
1.247260
 30
0.0
 10
0.657175
 20
1.169444
 30
0.0
 10
0.738272
 20
1.108875
 30
0.0
 10
0.828103
 20
1.066013
 30
0.0
 10
0.923777
 20
1.041314
 30
0.0
 10
1.022400
 20
1.035238
 30
0.0
 10
1.121080
 20
1.048242
 30
0.0
 10
1.216925
 20
1.080785
 30
0.0
 10
1.307042
 20
1.133324
 30
0.0
 10
1.372819
 20
1.190636
 30
0.0
 10
1.427978
 20
1.258229
 30
0.0
 10
1.595368
 20
1.120123
 30
0.0
 10
1.773613
 20
0.998772
 30
0.0
 10
1.961445
 20
0.894664
 30
0.0
 10
2.157596
 20
0.808292
 30
0.0
 10
2.360800
 20
0.740145
 30
0.0
 10
2.569788
 20
0.690714
 30
0.0
 10
2.783292
 20
0.660490
 30
0.0
 10
3.000044
 20
0.649963
 30
0.0
 10
3.248036
 20
0.665507
 30
0.0
 10
3.253072
 20
0.579092
 30
0.0
 10
3.272510
 20
0.494741
 30
0.0
 10
3.313204
 20
0.401829
 30
0.0
 10
3.370701
 20
0.319424
 30
0.0
 10
3.443103
 20
0.249750
 30
0.0
 10
3.528509
 20
0.195029
 30
0.0
 10
3.622983
 20
0.158106
 30
0.0
 10
3.721908
 20
0.140494
 30
0.0
 10
3.822371
 20
0.142423
 30
0.0
 10
3.921456
 20
0.164122
 30
0.0
 10
4.016921
 20
0.206148
 30
0.0
 10
4.099577
 20
0.264558
 30
0.0
 10
4.168094
 20
0.336746
 30
0.0
 10
4.221143
 20
0.420100
 30
0.0
 10
4.257395
 20
0.512013
 30
0.0
 10
4.275520
 20
0.609875
 30
0.0
 10
4.274190
 20
0.711078
 30
0.0
 10
4.252074
 20
0.813012
 30
0.0
 10
4.217601
 20
0.893839
 30
0.0
 10
4.169888
 20
0.967628
 30
0.0
 10
4.378555
 20
1.102789
 30
0.0
 10
4.570235
 20
1.257862
 30
0.0
 10
4.743732
 20
1.431205
 30
0.0
 10
4.897852
 20
1.621176
 30
0.0
 10
5.031397
 20
1.826133
 30
0.0
 10
5.143172
 20
2.044435
 30
0.0
 10
5.231981
 20
2.274439
 30
0.0
 10
5.296627
 20
2.514504
 30
0.0
 10
5.380460
 20
2.492547
 30
0.0
 10
5.466788
 20
2.484958
 30
0.0
 10
5.567729
 20
2.494944
 30
0.0
 10
5.663871
 20
2.524159
 30
0.0
 10
5.752512
 20
2.571482
 30
0.0
 10
5.830950
 20
2.635796
 30
0.0
 10
5.895264
 20
2.714235
 30
0.0
 10
5.942588
 20
2.802876
 30
0.0
 10
5.971802
 20
2.899018
 30
0.0
 10
5.981788
 20
2.999959
 30
0.0
 10
5.971802
 20
3.100900
 30
0.0
 10
5.942588
 20
3.197042
 30
0.0
 10
5.895264
 20
3.285683
 30
0.0
 10
5.830950
 20
3.364122
 30
0.0
 10
5.752512
 20
3.428436
 30
0.0
 10
5.663871
 20
3.475759
 30
0.0
 10
5.567729
 20
3.504974
 30
0.0
 10
5.466788
 20
3.514959
 30
0.0
 10
5.378930
 20
3.507075
 30
0.0
 10
5.293706
 20
3.484312
 30
0.0
 10
5.229734
 20
3.724532
 30
0.0
 10
5.141577
 20
3.954762
 30
0.0
 10
5.030425
 20
4.173355
 30
0.0
 10
4.897469
 20
4.378668
 30
0.0
 10
4.743901
 20
4.569056
 30
0.0
 10
4.570912
 20
4.742874
 30
0.0
 10
4.379692
 20
4.898476
 30
0.0
 10
4.171432
 20
5.034219
 30
0.0
 10
4.218198
 20
5.107158
 30
0.0
 10
4.252074
 20
5.186906
 30
0.0
 10
4.274187
 20
5.288846
 30
0.0
 10
4.275513
 20
5.390053
 30
0.0
 10
4.257381
 20
5.487919
 30
0.0
 10
4.221122
 20
5.579833
 30
0.0
 10
4.168064
 20
5.663187
 30
0.0
 10
4.099539
 20
5.735372
 30
0.0
 10
4.016874
 20
5.793778
 30
0.0
 10
3.921401
 20
5.835796
 30
0.0
 10
3.853834
 20
5.852809
 30
0.0
 10
3.784589
 20
5.860546
 30
0.0
 10
3.784589
 20
5.860546
 30
0.0
  0
LWPOLYLINE
  5
101
100
AcDbEntity
  8
Layer_1
 62
7
100
AcDbPolyline
 90
66
 70
0
 10
3.000044
 20
4.949993
 30
0.0
 10
3.199418
 20
4.939920
 30
0.0
 10
3.393032
 20
4.910365
 30
0.0
 10
3.579905
 20
4.862309
 30
0.0
 10
3.759059
 20
4.796732
 30
0.0
 10
3.929513
 20
4.714614
 30
0.0
 10
4.090286
 20
4.616936
 30
0.0
 10
4.240398
 20
4.504677
 30
0.0
 10
4.378870
 20
4.378818
 30
0.0
 10
4.504722
 20
4.240338
 30
0.0
 10
4.616972
 20
4.090219
 30
0.0
 10
4.714642
 20
3.929441
 30
0.0
 10
4.796750
 20
3.758983
 30
0.0
 10
4.862317
 20
3.579825
 30
0.0
 10
4.910362
 20
3.392949
 30
0.0
 10
4.939906
 20
3.199333
 30
0.0
 10
4.949968
 20
2.999959
 30
0.0
 10
4.939901
 20
2.800589
 30
0.0
 10
4.910352
 20
2.606978
 30
0.0
 10
4.862303
 20
2.420106
 30
0.0
 10
4.796734
 20
2.240953
 30
0.0
 10
4.714624
 20
2.070500
 30
0.0
 10
4.616953
 20
1.909725
 30
0.0
 10
4.504702
 20
1.759611
 30
0.0
 10
4.378851
 20
1.621136
 30
0.0
 10
4.240380
 20
1.495281
 30
0.0
 10
4.090268
 20
1.383026
 30
0.0
 10
3.929497
 20
1.285351
 30
0.0
 10
3.759046
 20
1.203236
 30
0.0
 10
3.579895
 20
1.137661
 30
0.0
 10
3.393024
 20
1.089607
 30
0.0
 10
3.199414
 20
1.060053
 30
0.0
 10
3.000044
 20
1.049980
 30
0.0
 10
2.807309
 20
1.059517
 30
0.0
 10
2.617838
 20
1.087786
 30
0.0
 10
2.432910
 20
1.134256
 30
0.0
 10
2.253803
 20
1.198398
 30
0.0
 10
2.081797
 20
1.279683
 30
0.0
 10
1.918169
 20
1.377581
 30
0.0
 10
1.764199
 20
1.491562
 30
0.0
 10
1.621166
 20
1.621097
 30
0.0
 10
1.491627
 20
1.764127
 30
0.0
 10
1.377642
 20
1.918093
 30
0.0
 10
1.279739
 20
2.081718
 30
0.0
 10
1.198449
 20
2.253722
 30
0.0
 10
1.134302
 20
2.432827
 30
0.0
 10
1.087826
 20
2.617754
 30
0.0
 10
1.059552
 20
2.807224
 30
0.0
 10
1.050010
 20
2.999959
 30
0.0
 10
1.059547
 20
3.192698
 30
0.0
 10
1.087817
 20
3.382172
 30
0.0
 10
1.134289
 20
3.567103
 30
0.0
 10
1.198434
 20
3.746213
 30
0.0
 10
1.279721
 20
3.918222
 30
0.0
 10
1.377623
 20
4.081851
 30
0.0
 10
1.491608
 20
4.235822
 30
0.0
 10
1.621147
 20
4.378857
 30
0.0
 10
1.764181
 20
4.508396
 30
0.0
 10
1.918152
 20
4.622381
 30
0.0
 10
2.081781
 20
4.720282
 30
0.0
 10
2.253790
 20
4.801570
 30
0.0
 10
2.432900
 20
4.865714
 30
0.0
 10
2.617831
 20
4.912186
 30
0.0
 10
2.807305
 20
4.940456
 30
0.0
 10
3.000044
 20
4.949993
 30
0.0
 10
3.000044
 20
4.949993
 30
0.0
  0
LWPOLYLINE
  5
102
100
AcDbEntity
  8
Layer_1
 62
7
100
AcDbPolyline
 90
8
 70
1
 10
6.749942
 20
5.999948
 30
0.0
 10
6.749942
 20
5.249944
 30
0.0
 10
6.728693
 20
5.249944
 30
0.0
 10
6.728693
 20
5.978658
 30
0.0
 10
5.999937
 20
5.978659
 30
0.0
 10
5.999936
 20
5.999948
 30
0.0
 10
6.749942
 20
5.999948
 30
0.0
 10
6.749942
 20
5.999948
 30
0.0
  0
LWPOLYLINE
  5
103
100
AcDbEntity
  8
Layer_1
 62
7
100
AcDbPolyline
 90
9
 70
1
 10
0.750005
 20
5.999948
 30
0.0
 10
0.750004
 20
5.978658
 30
0.0
 10
0.021249
 20
5.978659
 30
0.0
 10
0.021249
 20
5.249943
 30
0.0
 10
0.000000
 20
5.249943
 30
0.0
 10
-0.000000
 20
5.989282
 30
0.0
 10
0.000000
 20
5.999948
 30
0.0
 10
0.750005
 20
5.999948
 30
0.0
 10
0.750005
 20
5.999948
 30
0.0
  0
LWPOLYLINE
  5
104
100
AcDbEntity
  8
Layer_1
 62
7
100
AcDbPolyline
 90
8
 70
1
 10
6.749935
 20
0.599979
 30
0.0
 10
6.749935
 20
0.000000
 30
0.0
 10
5.999930
 20
0.000000
 30
0.0
 10
5.999931
 20
0.021249
 30
0.0
 10
6.728686
 20
0.021249
 30
0.0
 10
6.728686
 20
0.599979
 30
0.0
 10
6.749935
 20
0.599979
 30
0.0
 10
6.749935
 20
0.599979
 30
0.0
  0
LWPOLYLINE
  5
105
100
AcDbEntity
  8
Layer_1
 62
7
100
AcDbPolyline
 90
8
 70
1
 10
0.021249
 20
0.599979
 30
0.0
 10
0.021249
 20
0.021249
 30
0.0
 10
0.750005
 20
0.021249
 30
0.0
 10
0.750005
 20
-0.000000
 30
0.0
 10
0.000000
 20
0.000000
 30
0.0
 10
-0.000000
 20
0.599979
 30
0.0
 10
0.021249
 20
0.599979
 30
0.0
 10
0.021249
 20
0.599979
 30
0.0
  0
LWPOLYLINE
  5
106
100
AcDbEntity
  8
Layer_1
 62
7
100
AcDbPolyline
 90
9
 70
1
 10
0.750005
 20
5.999948
 30
0.0
 10
0.750004
 20
5.978658
 30
0.0
 10
0.021249
 20
5.978658
 30
0.0
 10
0.021249
 20
5.249943
 30
0.0
 10
0.000000
 20
5.249943
 30
0.0
 10
0.000001
 20
5.989281
 30
0.0
 10
0.000000
 20
5.999948
 30
0.0
 10
0.750005
 20
5.999948
 30
0.0
 10
0.750005
 20
5.999948
 30
0.0
  0
ENDSEC
  0
SECTION
  2
OBJECTS
  0
DICTIONARY
  5
C
330
0
100
AcDbDictionary
  3
ACAD_GROUP
350
D
  3
ACAD_MLINESTYLE
350
17
  0
DICTIONARY
  5
D
330
C
100
AcDbDictionary
  0
DICTIONARY
  5
1A
330
C
100
AcDbDictionary
  0
DICTIONARY
  5
17
330
C
100
AcDbDictionary
  3
STANDARD
350
18
  0
DICTIONARY
  5
19
330
C
100
AcDbDictionary
  0
ENDSEC
  0
EOF
