  0
SECTION
  2
HEADER
  9
$ACADVER
  1
AC1014
  9
$HANDSEED
  5
FFFF
  9
$MEASUREMENT
 70
     1
  0
ENDSEC
  0
SECTION
  2
TABLES
  0
TABLE
  2
VPORT
  5
8
330
0
100
AcDbSymbolTable
 70
     4
  0
VPORT
  5
2E
330
8
100
AcDbSymbolTableRecord
100
AcDbViewportTableRecord
  2
*ACTIVE
 70
     0
 10
0.0
 20
0.0
 11
1.0
 21
1.0
 12
210.0
 22
148.5
 13
0.0
 23
0.0
 14
10.0
 24
10.0
 15
10.0
 25
10.0
 16
0.0
 26
0.0
 36
1.0
 17
0.0
 27
0.0
 37
0.0
 40
341.0
 41
1.24
 42
50.0
 43
0.0
 44
0.0
 50
0.0
 51
0.0
 71
     0
 72
   100
 73
     1
 74
     3
 75
     0
 76
     0
 77
     0
 78
     0
  0
ENDTAB
  0
TABLE
  2
LTYPE
  5
5
330
0
100
AcDbSymbolTable
 70
     1
  0
LTYPE
  5
14
330
5
100
AcDbSymbolTableRecord
100
AcDbLinetypeTableRecord
  2
BYBLOCK
 70
     0
  3

 72
    65
 73
     0
 40
0.0
  0
LTYPE
  5
15
330
5
100
AcDbSymbolTableRecord
100
AcDbLinetypeTableRecord
  2
BYLAYER
 70
     0
  3

 72
    65
 73
     0
 40
0.0
  0
LTYPE
  5
16
330
5
100
AcDbSymbolTableRecord
100
AcDbLinetypeTableRecord
  2
CONTINUOUS
 70
     0
  3
Solid line
 72
    65
 73
     0
 40
0.0
  0
ENDTAB
  0
TABLE
  2
LAYER
  5
2
100
AcDbSymbolTable
 70
2
  0
LAYER
  5
50
100
AcDbSymbolTableRecord
100
AcDbLayerTableRecord
  2
0
 70
0
  6
CONTINUOUS
  0
LAYER
  5
51
100
AcDbSymbolTableRecord
100
AcDbLayerTableRecord
  2
Layer_1
 70
0
  6
CONTINUOUS
  0
ENDTAB
  0
TABLE
  2
STYLE
  5
3
330
0
100
AcDbSymbolTable
 70
     1
  0
STYLE
  5
11
330
3
100
AcDbSymbolTableRecord
100
AcDbTextStyleTableRecord
  2
STANDARD
 70
     0
 40
0.0
 41
1.0
 50
0.0
 71
     0
 42
2.5
  3
txt
  4

  0
ENDTAB
  0
TABLE
  2
VIEW
  5
6
330
0
100
AcDbSymbolTable
 70
     0
  0
ENDTAB
  0
TABLE
  2
UCS
  5
7
330
0
100
AcDbSymbolTable
 70
     0
  0
ENDTAB
  0
TABLE
  2
APPID
  5
9
330
0
100
AcDbSymbolTable
 70
     2
  0
APPID
  5
12
330
9
100
AcDbSymbolTableRecord
100
AcDbRegAppTableRecord
  2
ACAD
 70
     0
  0
ENDTAB
  0
TABLE
  2
DIMSTYLE
  5
A
330
0
100
AcDbSymbolTable
 70
     1
  0
DIMSTYLE
105
27
330
A
100
AcDbSymbolTableRecord
100
AcDbDimStyleTableRecord
  2
ISO-25
 70
     0
  3

  4

  5

  6

  7

 40
1.0
 41
2.5
 42
0.625
 43
3.75
 44
1.25
 45
0.0
 46
0.0
 47
0.0
 48
0.0
140
2.5
141
2.5
142
0.0
143
0.03937007874016
144
1.0
145
0.0
146
1.0
147
0.625
 71
     0
 72
     0
 73
     0
 74
     0
 75
     0
 76
     0
 77
     1
 78
     8
170
     0
171
     3
172
     1
173
     0
174
     0
175
     0
176
     0
177
     0
178
     0
270
     2
271
     2
272
     2
273
     2
274
     3
340
11
275
     0
280
     0
281
     0
282
     0
283
     0
284
     8
285
     0
286
     0
287
     3
288
     0
  0
ENDTAB
  0
TABLE
  2
BLOCK_RECORD
  5
1
330
0
100
AcDbSymbolTable
 70
     1
  0
BLOCK_RECORD
  5
1F
330
1
100
AcDbSymbolTableRecord
100
AcDbBlockTableRecord
  2
*MODEL_SPACE
  0
BLOCK_RECORD
  5
1B
330
1
100
AcDbSymbolTableRecord
100
AcDbBlockTableRecord
  2
*PAPER_SPACE
  0
ENDTAB
  0
ENDSEC
  0
SECTION
  2
BLOCKS
  0
BLOCK
  5
20
330
1F
100
AcDbEntity
  8
0
100
AcDbBlockBegin
  2
*MODEL_SPACE
 70
     0
 10
0.0
 20
0.0
 30
0.0
  3
*MODEL_SPACE
  1

  0
ENDBLK
  5
21
330
1F
100
AcDbEntity
  8
0
100
AcDbBlockEnd
  0
BLOCK
  5
1C
330
1B
100
AcDbEntity
 67
     1
  8
0
100
AcDbBlockBegin
  2
*PAPER_SPACE
  1

  0
ENDBLK
  5
1D
330
1B
100
AcDbEntity
 67
     1
  8
0
100
AcDbBlockEnd
  0
ENDSEC
  0
SECTION
  2
ENTITIES
  0
LWPOLYLINE
  5
100
100
AcDbEntity
  8
Layer_1
 62
7
100
AcDbPolyline
 90
85
 70
0
 10
2.965394
 20
5.218097
 30
0.0
 10
2.726539
 20
5.202495
 30
0.0
 10
2.491088
 20
5.160282
 30
0.0
 10
2.261559
 20
5.092684
 30
0.0
 10
2.040472
 20
5.000931
 30
0.0
 10
1.830347
 20
4.886248
 30
0.0
 10
1.633703
 20
4.749864
 30
0.0
 10
1.453060
 20
4.593007
 30
0.0
 10
1.290938
 20
4.416904
 30
0.0
 10
1.156658
 20
4.238016
 30
0.0
 10
1.041844
 20
4.046295
 30
0.0
 10
0.947088
 20
3.843913
 30
0.0
 10
0.872978
 20
3.633040
 30
0.0
 10
0.820104
 20
3.415846
 30
0.0
 10
0.789058
 20
3.194503
 30
0.0
 10
0.780428
 20
2.971180
 30
0.0
 10
0.794806
 20
2.748049
 30
0.0
 10
0.832494
 20
2.519274
 30
0.0
 10
0.894613
 20
2.295991
 30
0.0
 10
0.979876
 20
2.080394
 30
0.0
 10
1.086993
 20
1.874675
 30
0.0
 10
1.214676
 20
1.681027
 30
0.0
 10
1.361638
 20
1.501644
 30
0.0
 10
1.526590
 20
1.338717
 30
0.0
 10
1.708243
 20
1.194442
 30
0.0
 10
1.897382
 20
1.072758
 30
0.0
 10
2.098047
 20
0.971662
 30
0.0
 10
2.307992
 20
0.891567
 30
0.0
 10
2.524973
 20
0.832885
 30
0.0
 10
2.746744
 20
0.796030
 30
0.0
 10
2.971060
 20
0.781416
 30
0.0
 10
3.195675
 20
0.789454
 30
0.0
 10
3.418343
 20
0.820558
 30
0.0
 10
3.652688
 20
0.878495
 30
0.0
 10
3.878947
 20
0.962326
 30
0.0
 10
4.094780
 20
1.070398
 30
0.0
 10
4.297847
 20
1.201061
 30
0.0
 10
4.485805
 20
1.352660
 30
0.0
 10
4.656315
 20
1.523544
 30
0.0
 10
4.807036
 20
1.712060
 30
0.0
 10
4.935626
 20
1.916555
 30
0.0
 10
5.025635
 20
2.096187
 30
0.0
 10
5.099188
 20
2.283259
 30
0.0
 10
5.122552
 20
2.289679
 30
0.0
 10
5.146750
 20
2.287349
 30
0.0
 10
5.194368
 20
2.274131
 30
0.0
 10
5.801368
 20
2.110876
 30
0.0
 10
7.108399
 20
1.761807
 30
0.0
 10
7.140935
 20
1.762651
 30
0.0
 10
7.171525
 20
1.772223
 30
0.0
 10
7.222165
 20
1.811862
 30
0.0
 10
7.250925
 20
1.869346
 30
0.0
 10
7.254164
 20
1.901224
 30
0.0
 10
7.248409
 20
1.933296
 30
0.0
 10
7.232536
 20
1.967480
 30
0.0
 10
7.207675
 20
1.995477
 30
0.0
 10
7.176243
 20
2.016203
 30
0.0
 10
7.140654
 20
2.028572
 30
0.0
 10
6.928759
 20
2.085354
 30
0.0
 10
5.188351
 20
2.552546
 30
0.0
 10
5.180209
 20
2.575043
 30
0.0
 10
5.180527
 20
2.599048
 30
0.0
 10
5.189508
 20
2.647142
 30
0.0
 10
5.213103
 20
2.850223
 30
0.0
 10
5.217393
 20
3.054531
 30
0.0
 10
5.202763
 20
3.258384
 30
0.0
 10
5.169598
 20
3.460101
 30
0.0
 10
5.118281
 20
3.658001
 30
0.0
 10
5.049197
 20
3.850401
 30
0.0
 10
4.962732
 20
4.035622
 30
0.0
 10
4.859268
 20
4.211981
 30
0.0
 10
4.698689
 20
4.428513
 30
0.0
 10
4.512841
 20
4.623780
 30
0.0
 10
4.304691
 20
4.795058
 30
0.0
 10
4.077208
 20
4.939624
 30
0.0
 10
3.951408
 20
5.004323
 30
0.0
 10
3.821762
 20
5.060950
 30
0.0
 10
3.688804
 20
5.109273
 30
0.0
 10
3.553068
 20
5.149060
 30
0.0
 10
3.415088
 20
5.180081
 30
0.0
 10
3.275399
 20
5.202102
 30
0.0
 10
3.134535
 20
5.214894
 30
0.0
 10
2.993029
 20
5.218224
 30
0.0
 10
2.965402
 20
5.218100
 30
0.0
 10
2.965394
 20
5.218097
 30
0.0
  0
LWPOLYLINE
  5
101
100
AcDbEntity
  8
Layer_1
 62
7
100
AcDbPolyline
 90
58
 70
0
 10
2.999469
 20
4.966578
 30
0.0
 10
3.219601
 20
4.955070
 30
0.0
 10
3.436719
 20
4.918070
 30
0.0
 10
3.648331
 20
4.856787
 30
0.0
 10
3.851944
 20
4.772434
 30
0.0
 10
4.045068
 20
4.666222
 30
0.0
 10
4.225209
 20
4.539364
 30
0.0
 10
4.389877
 20
4.393072
 30
0.0
 10
4.536578
 20
4.228556
 30
0.0
 10
4.658671
 20
4.058418
 30
0.0
 10
4.761210
 20
3.876030
 30
0.0
 10
4.843660
 20
3.683683
 30
0.0
 10
4.905489
 20
3.483670
 30
0.0
 10
4.946161
 20
3.278283
 30
0.0
 10
4.965142
 20
3.069815
 30
0.0
 10
4.961899
 20
2.860558
 30
0.0
 10
4.935897
 20
2.652804
 30
0.0
 10
4.885602
 20
2.438980
 30
0.0
 10
4.811038
 20
2.232527
 30
0.0
 10
4.713793
 20
2.035666
 30
0.0
 10
4.595456
 20
1.850619
 30
0.0
 10
4.457616
 20
1.679607
 30
0.0
 10
4.301861
 20
1.524852
 30
0.0
 10
4.129779
 20
1.388573
 30
0.0
 10
3.942961
 20
1.272994
 30
0.0
 10
3.732923
 20
1.173774
 30
0.0
 10
3.512531
 20
1.100906
 30
0.0
 10
3.284994
 20
1.054511
 30
0.0
 10
3.053522
 20
1.034713
 30
0.0
 10
2.821324
 20
1.041633
 30
0.0
 10
2.591612
 20
1.075393
 30
0.0
 10
2.367595
 20
1.136117
 30
0.0
 10
2.152483
 20
1.223926
 30
0.0
 10
1.951643
 20
1.333923
 30
0.0
 10
1.765609
 20
1.467194
 30
0.0
 10
1.596325
 20
1.621316
 30
0.0
 10
1.445738
 20
1.793864
 30
0.0
 10
1.315789
 20
1.982414
 30
0.0
 10
1.208424
 20
2.184541
 30
0.0
 10
1.125587
 20
2.397821
 30
0.0
 10
1.069221
 20
2.619829
 30
0.0
 10
1.039051
 20
2.834866
 30
0.0
 10
1.033274
 20
3.051882
 30
0.0
 10
1.051350
 20
3.268296
 30
0.0
 10
1.092736
 20
3.481526
 30
0.0
 10
1.156887
 20
3.688994
 30
0.0
 10
1.243263
 20
3.888117
 30
0.0
 10
1.351320
 20
4.076316
 30
0.0
 10
1.480515
 20
4.251010
 30
0.0
 10
1.627127
 20
4.410728
 30
0.0
 10
1.790826
 20
4.552706
 30
0.0
 10
1.969247
 20
4.675773
 30
0.0
 10
2.160028
 20
4.778763
 30
0.0
 10
2.360804
 20
4.860507
 30
0.0
 10
2.569212
 20
4.919836
 30
0.0
 10
2.782888
 20
4.955582
 30
0.0
 10
2.999469
 20
4.966578
 30
0.0
 10
2.999469
 20
4.966578
 30
0.0
  0
LWPOLYLINE
  5
102
100
AcDbEntity
  8
Layer_1
 62
7
100
AcDbPolyline
 90
8
 70
1
 10
6.749943
 20
5.999948
 30
0.0
 10
6.749943
 20
5.249943
 30
0.0
 10
6.728691
 20
5.249943
 30
0.0
 10
6.728691
 20
5.978658
 30
0.0
 10
5.999937
 20
5.978658
 30
0.0
 10
5.999937
 20
5.999948
 30
0.0
 10
6.749943
 20
5.999948
 30
0.0
 10
6.749943
 20
5.999948
 30
0.0
  0
LWPOLYLINE
  5
103
100
AcDbEntity
  8
Layer_1
 62
7
100
AcDbPolyline
 90
9
 70
1
 10
0.750006
 20
5.999948
 30
0.0
 10
0.750006
 20
5.978658
 30
0.0
 10
0.021249
 20
5.978658
 30
0.0
 10
0.021249
 20
5.249943
 30
0.0
 10
0.000000
 20
5.249943
 30
0.0
 10
0.000000
 20
5.989282
 30
0.0
 10
0.000000
 20
5.999948
 30
0.0
 10
0.750006
 20
5.999948
 30
0.0
 10
0.750006
 20
5.999948
 30
0.0
  0
LWPOLYLINE
  5
104
100
AcDbEntity
  8
Layer_1
 62
7
100
AcDbPolyline
 90
8
 70
1
 10
6.749937
 20
0.599979
 30
0.0
 10
6.749937
 20
0.000000
 30
0.0
 10
5.999932
 20
0.000000
 30
0.0
 10
5.999932
 20
0.021248
 30
0.0
 10
6.728686
 20
0.021248
 30
0.0
 10
6.728686
 20
0.599979
 30
0.0
 10
6.749937
 20
0.599979
 30
0.0
 10
6.749937
 20
0.599979
 30
0.0
  0
LWPOLYLINE
  5
105
100
AcDbEntity
  8
Layer_1
 62
7
100
AcDbPolyline
 90
8
 70
1
 10
0.021249
 20
0.599979
 30
0.0
 10
0.021249
 20
0.021248
 30
0.0
 10
0.750006
 20
0.021248
 30
0.0
 10
0.750006
 20
0.000000
 30
0.0
 10
0.000000
 20
0.000000
 30
0.0
 10
0.000000
 20
0.599979
 30
0.0
 10
0.021249
 20
0.599979
 30
0.0
 10
0.021249
 20
0.599979
 30
0.0
  0
ENDSEC
  0
SECTION
  2
OBJECTS
  0
DICTIONARY
  5
C
330
0
100
AcDbDictionary
  3
ACAD_GROUP
350
D
  3
ACAD_MLINESTYLE
350
17
  0
DICTIONARY
  5
D
330
C
100
AcDbDictionary
  0
DICTIONARY
  5
1A
330
C
100
AcDbDictionary
  0
DICTIONARY
  5
17
330
C
100
AcDbDictionary
  3
STANDARD
350
18
  0
DICTIONARY
  5
19
330
C
100
AcDbDictionary
  0
ENDSEC
  0
EOF
