  0
SECTION
  2
HEADER
  9
$ACADVER
  1
AC1014
  9
$HANDSEED
  5
FFFF
  9
$MEASUREMENT
 70
     1
  0
ENDSEC
  0
SECTION
  2
TABLES
  0
TABLE
  2
VPORT
  5
8
330
0
100
AcDbSymbolTable
 70
     4
  0
VPORT
  5
2E
330
8
100
AcDbSymbolTableRecord
100
AcDbViewportTableRecord
  2
*ACTIVE
 70
     0
 10
0.0
 20
0.0
 11
1.0
 21
1.0
 12
210.0
 22
148.5
 13
0.0
 23
0.0
 14
10.0
 24
10.0
 15
10.0
 25
10.0
 16
0.0
 26
0.0
 36
1.0
 17
0.0
 27
0.0
 37
0.0
 40
341.0
 41
1.24
 42
50.0
 43
0.0
 44
0.0
 50
0.0
 51
0.0
 71
     0
 72
   100
 73
     1
 74
     3
 75
     0
 76
     0
 77
     0
 78
     0
  0
ENDTAB
  0
TABLE
  2
LTYPE
  5
5
330
0
100
AcDbSymbolTable
 70
     1
  0
LTYPE
  5
14
330
5
100
AcDbSymbolTableRecord
100
AcDbLinetypeTableRecord
  2
BYBLOCK
 70
     0
  3

 72
    65
 73
     0
 40
0.0
  0
LTYPE
  5
15
330
5
100
AcDbSymbolTableRecord
100
AcDbLinetypeTableRecord
  2
BYLAYER
 70
     0
  3

 72
    65
 73
     0
 40
0.0
  0
LTYPE
  5
16
330
5
100
AcDbSymbolTableRecord
100
AcDbLinetypeTableRecord
  2
CONTINUOUS
 70
     0
  3
Solid line
 72
    65
 73
     0
 40
0.0
  0
ENDTAB
  0
TABLE
  2
LAYER
  5
2
100
AcDbSymbolTable
 70
2
  0
LAYER
  5
50
100
AcDbSymbolTableRecord
100
AcDbLayerTableRecord
  2
0
 70
0
  6
CONTINUOUS
  0
LAYER
  5
51
100
AcDbSymbolTableRecord
100
AcDbLayerTableRecord
  2
Layer_1
 70
0
  6
CONTINUOUS
  0
ENDTAB
  0
TABLE
  2
STYLE
  5
3
330
0
100
AcDbSymbolTable
 70
     1
  0
STYLE
  5
11
330
3
100
AcDbSymbolTableRecord
100
AcDbTextStyleTableRecord
  2
STANDARD
 70
     0
 40
0.0
 41
1.0
 50
0.0
 71
     0
 42
2.5
  3
txt
  4

  0
ENDTAB
  0
TABLE
  2
VIEW
  5
6
330
0
100
AcDbSymbolTable
 70
     0
  0
ENDTAB
  0
TABLE
  2
UCS
  5
7
330
0
100
AcDbSymbolTable
 70
     0
  0
ENDTAB
  0
TABLE
  2
APPID
  5
9
330
0
100
AcDbSymbolTable
 70
     2
  0
APPID
  5
12
330
9
100
AcDbSymbolTableRecord
100
AcDbRegAppTableRecord
  2
ACAD
 70
     0
  0
ENDTAB
  0
TABLE
  2
DIMSTYLE
  5
A
330
0
100
AcDbSymbolTable
 70
     1
  0
DIMSTYLE
105
27
330
A
100
AcDbSymbolTableRecord
100
AcDbDimStyleTableRecord
  2
ISO-25
 70
     0
  3

  4

  5

  6

  7

 40
1.0
 41
2.5
 42
0.625
 43
3.75
 44
1.25
 45
0.0
 46
0.0
 47
0.0
 48
0.0
140
2.5
141
2.5
142
0.0
143
0.03937007874016
144
1.0
145
0.0
146
1.0
147
0.625
 71
     0
 72
     0
 73
     0
 74
     0
 75
     0
 76
     0
 77
     1
 78
     8
170
     0
171
     3
172
     1
173
     0
174
     0
175
     0
176
     0
177
     0
178
     0
270
     2
271
     2
272
     2
273
     2
274
     3
340
11
275
     0
280
     0
281
     0
282
     0
283
     0
284
     8
285
     0
286
     0
287
     3
288
     0
  0
ENDTAB
  0
TABLE
  2
BLOCK_RECORD
  5
1
330
0
100
AcDbSymbolTable
 70
     1
  0
BLOCK_RECORD
  5
1F
330
1
100
AcDbSymbolTableRecord
100
AcDbBlockTableRecord
  2
*MODEL_SPACE
  0
BLOCK_RECORD
  5
1B
330
1
100
AcDbSymbolTableRecord
100
AcDbBlockTableRecord
  2
*PAPER_SPACE
  0
ENDTAB
  0
ENDSEC
  0
SECTION
  2
BLOCKS
  0
BLOCK
  5
20
330
1F
100
AcDbEntity
  8
0
100
AcDbBlockBegin
  2
*MODEL_SPACE
 70
     0
 10
0.0
 20
0.0
 30
0.0
  3
*MODEL_SPACE
  1

  0
ENDBLK
  5
21
330
1F
100
AcDbEntity
  8
0
100
AcDbBlockEnd
  0
BLOCK
  5
1C
330
1B
100
AcDbEntity
 67
     1
  8
0
100
AcDbBlockBegin
  2
*PAPER_SPACE
  1

  0
ENDBLK
  5
1D
330
1B
100
AcDbEntity
 67
     1
  8
0
100
AcDbBlockEnd
  0
ENDSEC
  0
SECTION
  2
ENTITIES
  0
LWPOLYLINE
  5
100
100
AcDbEntity
  8
Layer_1
 62
7
100
AcDbPolyline
 90
8
 70
1
 10
6.749940
 20
5.999949
 30
0.0
 10
6.749940
 20
5.249945
 30
0.0
 10
6.728691
 20
5.249945
 30
0.0
 10
6.728691
 20
5.978660
 30
0.0
 10
5.999937
 20
5.978660
 30
0.0
 10
5.999937
 20
5.999949
 30
0.0
 10
6.749940
 20
5.999949
 30
0.0
 10
6.749940
 20
5.999949
 30
0.0
  0
LWPOLYLINE
  5
101
100
AcDbEntity
  8
Layer_1
 62
7
100
AcDbPolyline
 90
9
 70
1
 10
0.750006
 20
5.999949
 30
0.0
 10
0.750006
 20
5.978660
 30
0.0
 10
0.021249
 20
5.978660
 30
0.0
 10
0.021249
 20
5.249945
 30
0.0
 10
0.000000
 20
5.249945
 30
0.0
 10
0.000000
 20
5.989284
 30
0.0
 10
0.000000
 20
5.999949
 30
0.0
 10
0.750006
 20
5.999949
 30
0.0
 10
0.750006
 20
5.999949
 30
0.0
  0
LWPOLYLINE
  5
102
100
AcDbEntity
  8
Layer_1
 62
7
100
AcDbPolyline
 90
8
 70
1
 10
6.749934
 20
0.599979
 30
0.0
 10
6.749934
 20
-0.000000
 30
0.0
 10
5.999932
 20
-0.000000
 30
0.0
 10
5.999932
 20
0.021249
 30
0.0
 10
6.728686
 20
0.021249
 30
0.0
 10
6.728686
 20
0.599979
 30
0.0
 10
6.749934
 20
0.599979
 30
0.0
 10
6.749934
 20
0.599979
 30
0.0
  0
LWPOLYLINE
  5
103
100
AcDbEntity
  8
Layer_1
 62
7
100
AcDbPolyline
 90
8
 70
1
 10
0.021249
 20
0.599979
 30
0.0
 10
0.021249
 20
0.021249
 30
0.0
 10
0.750006
 20
0.021249
 30
0.0
 10
0.750006
 20
-0.000000
 30
0.0
 10
0.000000
 20
-0.000000
 30
0.0
 10
0.000000
 20
0.599979
 30
0.0
 10
0.021249
 20
0.599979
 30
0.0
 10
0.021249
 20
0.599979
 30
0.0
  0
LWPOLYLINE
  5
104
100
AcDbEntity
  8
Layer_1
 62
7
100
AcDbPolyline
 90
98
 70
0
 10
3.822928
 20
5.714258
 30
0.0
 10
3.683490
 20
5.710916
 30
0.0
 10
3.545376
 20
5.699038
 30
0.0
 10
3.274520
 20
5.650348
 30
0.0
 10
3.013162
 20
5.569540
 30
0.0
 10
2.764105
 20
5.457967
 30
0.0
 10
2.530151
 20
5.316980
 30
0.0
 10
2.314101
 20
5.147932
 30
0.0
 10
2.213666
 20
5.053306
 30
0.0
 10
2.118758
 20
4.952173
 30
0.0
 10
2.029727
 20
4.844699
 30
0.0
 10
1.946923
 20
4.731056
 30
0.0
 10
2.056121
 20
4.531711
 30
0.0
 10
2.183824
 20
4.345768
 30
0.0
 10
2.328757
 20
4.174345
 30
0.0
 10
2.489645
 20
4.018557
 30
0.0
 10
2.665213
 20
3.879523
 30
0.0
 10
2.854187
 20
3.758359
 30
0.0
 10
3.055290
 20
3.656182
 30
0.0
 10
3.267249
 20
3.574110
 30
0.0
 10
3.265810
 20
3.577417
 30
0.0
 10
3.107093
 20
3.924488
 30
0.0
 10
3.023547
 20
4.153002
 30
0.0
 10
2.991206
 20
4.277772
 30
0.0
 10
2.969146
 20
4.408319
 30
0.0
 10
2.961935
 20
4.544032
 30
0.0
 10
2.973497
 20
4.683645
 30
0.0
 10
3.005863
 20
4.825255
 30
0.0
 10
3.061065
 20
4.966959
 30
0.0
 10
3.141133
 20
5.106852
 30
0.0
 10
3.248098
 20
5.243032
 30
0.0
 10
3.383991
 20
5.373595
 30
0.0
 10
3.550843
 20
5.496638
 30
0.0
 10
3.593580
 20
5.517269
 30
0.0
 10
3.637646
 20
5.524685
 30
0.0
 10
3.680854
 20
5.520067
 30
0.0
 10
3.721020
 20
5.504598
 30
0.0
 10
3.755957
 20
5.479459
 30
0.0
 10
3.783480
 20
5.445833
 30
0.0
 10
3.801404
 20
5.404900
 30
0.0
 10
3.807544
 20
5.357842
 30
0.0
 10
3.801946
 20
5.316779
 30
0.0
 10
3.786587
 20
5.278954
 30
0.0
 10
3.762414
 20
5.246053
 30
0.0
 10
3.730373
 20
5.219763
 30
0.0
 10
3.592753
 20
5.120948
 30
0.0
 10
3.485286
 20
5.023593
 30
0.0
 10
3.404812
 20
4.927294
 30
0.0
 10
3.348176
 20
4.831648
 30
0.0
 10
3.312218
 20
4.736251
 30
0.0
 10
3.293782
 20
4.640698
 30
0.0
 10
3.289709
 20
4.544586
 30
0.0
 10
3.296843
 20
4.447510
 30
0.0
 10
3.313918
 20
4.349703
 30
0.0
 10
3.340313
 20
4.252049
 30
0.0
 10
3.412286
 20
4.059503
 30
0.0
 10
3.571513
 20
3.701606
 30
0.0
 10
3.584200
 20
3.648620
 30
0.0
 10
3.579266
 20
3.595721
 30
0.0
 10
3.557804
 20
3.547119
 30
0.0
 10
3.520910
 20
3.507027
 30
0.0
 10
3.599075
 20
3.491703
 30
0.0
 10
3.597918
 20
3.488671
 30
0.0
 10
3.627193
 20
3.471934
 30
0.0
 10
3.638817
 20
3.440275
 30
0.0
 10
3.633139
 20
3.417454
 30
0.0
 10
3.633478
 20
3.417172
 30
0.0
 10
3.601138
 20
3.331565
 30
0.0
 10
3.590044
 20
3.240728
 30
0.0
 10
3.597826
 20
3.163603
 30
0.0
 10
3.620130
 20
3.091769
 30
0.0
 10
3.655417
 20
3.026763
 30
0.0
 10
3.702148
 20
2.970125
 30
0.0
 10
3.758786
 20
2.923393
 30
0.0
 10
3.823791
 20
2.888106
 30
0.0
 10
3.895626
 20
2.865802
 30
0.0
 10
3.972751
 20
2.858019
 30
0.0
 10
4.080144
 20
2.873509
 30
0.0
 10
4.175708
 20
2.916724
 30
0.0
 10
4.267927
 20
3.044661
 30
0.0
 10
4.268971
 20
3.046148
 30
0.0
 10
4.313774
 20
3.142789
 30
0.0
 10
4.327602
 20
3.246095
 30
0.0
 10
4.310570
 20
3.348922
 30
0.0
 10
4.262796
 20
3.444126
 30
0.0
 10
4.260482
 20
3.446937
 30
0.0
 10
4.184130
 20
3.577412
 30
0.0
 10
4.095724
 20
3.749664
 30
0.0
 10
3.983368
 20
3.978116
 30
0.0
 10
3.898050
 20
4.216067
 30
0.0
 10
3.840105
 20
4.461103
 30
0.0
 10
3.809869
 20
4.710815
 30
0.0
 10
3.807674
 20
4.962791
 30
0.0
 10
3.833857
 20
5.214619
 30
0.0
 10
3.888751
 20
5.463888
 30
0.0
 10
3.972692
 20
5.708187
 30
0.0
 10
3.822928
 20
5.714250
 30
0.0
 10
3.822928
 20
5.714258
 30
0.0
  0
LWPOLYLINE
  5
105
100
AcDbEntity
  8
Layer_1
 62
7
100
AcDbPolyline
 90
42
 70
0
 10
3.810967
 20
5.642325
 30
0.0
 10
3.870443
 20
5.641221
 30
0.0
 10
3.826952
 20
5.507331
 30
0.0
 10
3.775939
 20
5.554524
 30
0.0
 10
3.713319
 20
5.585153
 30
0.0
 10
3.644815
 20
5.596481
 30
0.0
 10
3.576150
 20
5.585769
 30
0.0
 10
3.468130
 20
5.525704
 30
0.0
 10
3.367559
 20
5.453910
 30
0.0
 10
3.274435
 20
5.372433
 30
0.0
 10
3.188755
 20
5.283317
 30
0.0
 10
3.109387
 20
5.187783
 30
0.0
 10
3.041368
 20
5.083880
 30
0.0
 10
2.985232
 20
4.973051
 30
0.0
 10
2.941516
 20
4.856740
 30
0.0
 10
2.910756
 20
4.736390
 30
0.0
 10
2.893488
 20
4.613445
 30
0.0
 10
2.890247
 20
4.489348
 30
0.0
 10
2.901571
 20
4.365544
 30
0.0
 10
2.938017
 20
4.193822
 30
0.0
 10
2.991150
 20
4.026674
 30
0.0
 10
3.056159
 20
3.863417
 30
0.0
 10
3.128232
 20
3.703369
 30
0.0
 10
2.956777
 20
3.784464
 30
0.0
 10
2.793232
 20
3.880445
 30
0.0
 10
2.638627
 20
3.990321
 30
0.0
 10
2.493993
 20
4.113099
 30
0.0
 10
2.360361
 20
4.247790
 30
0.0
 10
2.238760
 20
4.393400
 30
0.0
 10
2.130223
 20
4.548939
 30
0.0
 10
2.035778
 20
4.713416
 30
0.0
 10
2.030156
 20
4.724660
 30
0.0
 10
2.178597
 20
4.911302
 30
0.0
 10
2.340393
 20
5.075266
 30
0.0
 10
2.518939
 20
5.220498
 30
0.0
 10
2.711896
 20
5.345995
 30
0.0
 10
2.916923
 20
5.450752
 30
0.0
 10
3.131683
 20
5.533767
 30
0.0
 10
3.353837
 20
5.594036
 30
0.0
 10
3.581044
 20
5.630556
 30
0.0
 10
3.810967
 20
5.642323
 30
0.0
 10
3.810967
 20
5.642325
 30
0.0
  0
LWPOLYLINE
  5
106
100
AcDbEntity
  8
Layer_1
 62
7
100
AcDbPolyline
 90
102
 70
0
 10
4.503182
 20
5.375647
 30
0.0
 10
4.395789
 20
5.360157
 30
0.0
 10
4.300225
 20
5.316942
 30
0.0
 10
4.208006
 20
5.189005
 30
0.0
 10
4.206962
 20
5.187518
 30
0.0
 10
4.162159
 20
5.090877
 30
0.0
 10
4.148331
 20
4.987571
 30
0.0
 10
4.165363
 20
4.884744
 30
0.0
 10
4.213137
 20
4.789540
 30
0.0
 10
4.215451
 20
4.786729
 30
0.0
 10
4.291803
 20
4.656253
 30
0.0
 10
4.380209
 20
4.484002
 30
0.0
 10
4.492566
 20
4.255549
 30
0.0
 10
4.577883
 20
4.017599
 30
0.0
 10
4.635828
 20
3.772562
 30
0.0
 10
4.666064
 20
3.522850
 30
0.0
 10
4.668259
 20
3.270875
 30
0.0
 10
4.642076
 20
3.019047
 30
0.0
 10
4.587182
 20
2.769778
 30
0.0
 10
4.503241
 20
2.525479
 30
0.0
 10
4.653040
 20
2.519445
 30
0.0
 10
4.801731
 20
2.523315
 30
0.0
 10
4.948888
 20
2.536884
 30
0.0
 10
5.094086
 20
2.559946
 30
0.0
 10
5.236900
 20
2.592298
 30
0.0
 10
5.376906
 20
2.633734
 30
0.0
 10
5.513679
 20
2.684049
 30
0.0
 10
5.646793
 20
2.743038
 30
0.0
 10
5.775824
 20
2.810496
 30
0.0
 10
5.900347
 20
2.886218
 30
0.0
 10
6.019936
 20
2.969999
 30
0.0
 10
6.134167
 20
3.061635
 30
0.0
 10
6.242616
 20
3.160919
 30
0.0
 10
6.344856
 20
3.267648
 30
0.0
 10
6.440463
 20
3.381616
 30
0.0
 10
6.529013
 20
3.502618
 30
0.0
 10
6.419813
 20
3.701963
 30
0.0
 10
6.292110
 20
3.887905
 30
0.0
 10
6.147176
 20
4.059329
 30
0.0
 10
5.986289
 20
4.215116
 30
0.0
 10
5.810721
 20
4.354150
 30
0.0
 10
5.621748
 20
4.475314
 30
0.0
 10
5.420645
 20
4.577491
 30
0.0
 10
5.208687
 20
4.659564
 30
0.0
 10
5.210126
 20
4.656257
 30
0.0
 10
5.368841
 20
4.309185
 30
0.0
 10
5.452389
 20
4.080671
 30
0.0
 10
5.484730
 20
3.955901
 30
0.0
 10
5.506790
 20
3.825354
 30
0.0
 10
5.514001
 20
3.689641
 30
0.0
 10
5.502439
 20
3.550028
 30
0.0
 10
5.470072
 20
3.408418
 30
0.0
 10
5.414870
 20
3.266715
 30
0.0
 10
5.334801
 20
3.126821
 30
0.0
 10
5.227835
 20
2.990641
 30
0.0
 10
5.091942
 20
2.860078
 30
0.0
 10
4.925090
 20
2.737035
 30
0.0
 10
4.882353
 20
2.716404
 30
0.0
 10
4.838287
 20
2.708989
 30
0.0
 10
4.795079
 20
2.713606
 30
0.0
 10
4.754913
 20
2.729075
 30
0.0
 10
4.719976
 20
2.754214
 30
0.0
 10
4.692453
 20
2.787841
 30
0.0
 10
4.674529
 20
2.828774
 30
0.0
 10
4.668389
 20
2.875831
 30
0.0
 10
4.673987
 20
2.916894
 30
0.0
 10
4.689346
 20
2.954720
 30
0.0
 10
4.713519
 20
2.987621
 30
0.0
 10
4.745560
 20
3.013911
 30
0.0
 10
4.883180
 20
3.112726
 30
0.0
 10
4.990648
 20
3.210081
 30
0.0
 10
5.071121
 20
3.306379
 30
0.0
 10
5.127757
 20
3.402025
 30
0.0
 10
5.163715
 20
3.497423
 30
0.0
 10
5.182151
 20
3.592976
 30
0.0
 10
5.186224
 20
3.689088
 30
0.0
 10
5.179090
 20
3.786163
 30
0.0
 10
5.162015
 20
3.883970
 30
0.0
 10
5.135620
 20
3.981625
 30
0.0
 10
5.063647
 20
4.174170
 30
0.0
 10
4.904420
 20
4.532068
 30
0.0
 10
4.891733
 20
4.585054
 30
0.0
 10
4.896668
 20
4.637953
 30
0.0
 10
4.918129
 20
4.686554
 30
0.0
 10
4.955023
 20
4.726647
 30
0.0
 10
4.876861
 20
4.741970
 30
0.0
 10
4.878018
 20
4.745002
 30
0.0
 10
4.848741
 20
4.761739
 30
0.0
 10
4.837119
 20
4.793399
 30
0.0
 10
4.842794
 20
4.816219
 30
0.0
 10
4.842456
 20
4.816501
 30
0.0
 10
4.874796
 20
4.902108
 30
0.0
 10
4.885892
 20
4.992946
 30
0.0
 10
4.878110
 20
5.070071
 30
0.0
 10
4.855806
 20
5.141905
 30
0.0
 10
4.820518
 20
5.206911
 30
0.0
 10
4.773786
 20
5.263549
 30
0.0
 10
4.717148
 20
5.310281
 30
0.0
 10
4.652142
 20
5.345568
 30
0.0
 10
4.580307
 20
5.367872
 30
0.0
 10
4.503182
 20
5.375654
 30
0.0
 10
4.503182
 20
5.375647
 30
0.0
  0
LWPOLYLINE
  5
107
100
AcDbEntity
  8
Layer_1
 62
7
100
AcDbPolyline
 90
34
 70
0
 10
4.503182
 20
5.232882
 30
0.0
 10
4.551550
 20
5.228006
 30
0.0
 10
4.596601
 20
5.214022
 30
0.0
 10
4.637368
 20
5.191894
 30
0.0
 10
4.672887
 20
5.162588
 30
0.0
 10
4.702193
 20
5.127069
 30
0.0
 10
4.724321
 20
5.086301
 30
0.0
 10
4.738305
 20
5.041251
 30
0.0
 10
4.743181
 20
4.992883
 30
0.0
 10
4.738305
 20
4.944514
 30
0.0
 10
4.724321
 20
4.899464
 30
0.0
 10
4.702193
 20
4.858697
 30
0.0
 10
4.672887
 20
4.823178
 30
0.0
 10
4.637368
 20
4.793872
 30
0.0
 10
4.596601
 20
4.771744
 30
0.0
 10
4.551550
 20
4.757760
 30
0.0
 10
4.503182
 20
4.752884
 30
0.0
 10
4.454815
 20
4.757760
 30
0.0
 10
4.409765
 20
4.771744
 30
0.0
 10
4.368998
 20
4.793872
 30
0.0
 10
4.333479
 20
4.823178
 30
0.0
 10
4.304173
 20
4.858697
 30
0.0
 10
4.282045
 20
4.899464
 30
0.0
 10
4.268060
 20
4.944514
 30
0.0
 10
4.263183
 20
4.992883
 30
0.0
 10
4.268060
 20
5.041251
 30
0.0
 10
4.282045
 20
5.086301
 30
0.0
 10
4.304173
 20
5.127069
 30
0.0
 10
4.333479
 20
5.162588
 30
0.0
 10
4.368998
 20
5.191894
 30
0.0
 10
4.409765
 20
5.214022
 30
0.0
 10
4.454815
 20
5.228006
 30
0.0
 10
4.503182
 20
5.232882
 30
0.0
 10
4.503182
 20
5.232882
 30
0.0
  0
LWPOLYLINE
  5
108
100
AcDbEntity
  8
Layer_1
 62
7
100
AcDbPolyline
 90
103
 70
0
 10
0.565302
 20
5.161830
 30
0.0
 10
0.457938
 20
5.146333
 30
0.0
 10
0.362398
 20
5.103126
 30
0.0
 10
0.270179
 20
4.975189
 30
0.0
 10
0.269135
 20
4.973701
 30
0.0
 10
0.224332
 20
4.877060
 30
0.0
 10
0.210504
 20
4.773755
 30
0.0
 10
0.227536
 20
4.670928
 30
0.0
 10
0.275310
 20
4.575724
 30
0.0
 10
0.277624
 20
4.572913
 30
0.0
 10
0.353976
 20
4.442437
 30
0.0
 10
0.442382
 20
4.270186
 30
0.0
 10
0.554739
 20
4.041733
 30
0.0
 10
0.640056
 20
3.803783
 30
0.0
 10
0.698001
 20
3.558746
 30
0.0
 10
0.728238
 20
3.309034
 30
0.0
 10
0.730432
 20
3.057059
 30
0.0
 10
0.704249
 20
2.805231
 30
0.0
 10
0.649355
 20
2.555962
 30
0.0
 10
0.565414
 20
2.311663
 30
0.0
 10
0.715214
 20
2.305629
 30
0.0
 10
0.863904
 20
2.309499
 30
0.0
 10
1.011061
 20
2.323067
 30
0.0
 10
1.156259
 20
2.346130
 30
0.0
 10
1.299073
 20
2.378482
 30
0.0
 10
1.439079
 20
2.419918
 30
0.0
 10
1.575852
 20
2.470233
 30
0.0
 10
1.708966
 20
2.529222
 30
0.0
 10
1.837997
 20
2.596680
 30
0.0
 10
1.962520
 20
2.672402
 30
0.0
 10
2.082109
 20
2.756183
 30
0.0
 10
2.196340
 20
2.847818
 30
0.0
 10
2.304789
 20
2.947103
 30
0.0
 10
2.407029
 20
3.053832
 30
0.0
 10
2.502636
 20
3.167800
 30
0.0
 10
2.591186
 20
3.288802
 30
0.0
 10
2.481986
 20
3.488146
 30
0.0
 10
2.354283
 20
3.674089
 30
0.0
 10
2.209350
 20
3.845513
 30
0.0
 10
2.048462
 20
4.001300
 30
0.0
 10
1.872894
 20
4.140334
 30
0.0
 10
1.683922
 20
4.261498
 30
0.0
 10
1.482819
 20
4.363675
 30
0.0
 10
1.270860
 20
4.445748
 30
0.0
 10
1.272299
 20
4.442440
 30
0.0
 10
1.431016
 20
4.095369
 30
0.0
 10
1.514562
 20
3.866855
 30
0.0
 10
1.546903
 20
3.742085
 30
0.0
 10
1.568963
 20
3.611538
 30
0.0
 10
1.576174
 20
3.475825
 30
0.0
 10
1.564612
 20
3.336212
 30
0.0
 10
1.532245
 20
3.194602
 30
0.0
 10
1.477043
 20
3.052899
 30
0.0
 10
1.396974
 20
2.913005
 30
0.0
 10
1.290008
 20
2.776825
 30
0.0
 10
1.154115
 20
2.646262
 30
0.0
 10
0.987263
 20
2.523219
 30
0.0
 10
0.944526
 20
2.502588
 30
0.0
 10
0.900460
 20
2.495173
 30
0.0
 10
0.857252
 20
2.499790
 30
0.0
 10
0.817086
 20
2.515259
 30
0.0
 10
0.782149
 20
2.540398
 30
0.0
 10
0.754626
 20
2.574025
 30
0.0
 10
0.736702
 20
2.614958
 30
0.0
 10
0.730562
 20
2.662015
 30
0.0
 10
0.736160
 20
2.703078
 30
0.0
 10
0.751519
 20
2.740904
 30
0.0
 10
0.775692
 20
2.773805
 30
0.0
 10
0.807733
 20
2.800095
 30
0.0
 10
0.945353
 20
2.898910
 30
0.0
 10
1.052821
 20
2.996265
 30
0.0
 10
1.133294
 20
3.092563
 30
0.0
 10
1.189931
 20
3.188209
 30
0.0
 10
1.225888
 20
3.283607
 30
0.0
 10
1.244324
 20
3.379160
 30
0.0
 10
1.248397
 20
3.475272
 30
0.0
 10
1.241263
 20
3.572347
 30
0.0
 10
1.224189
 20
3.670154
 30
0.0
 10
1.197793
 20
3.767809
 30
0.0
 10
1.125820
 20
3.960354
 30
0.0
 10
0.966593
 20
4.318252
 30
0.0
 10
0.953906
 20
4.371238
 30
0.0
 10
0.958841
 20
4.424137
 30
0.0
 10
0.980302
 20
4.472738
 30
0.0
 10
1.017196
 20
4.512831
 30
0.0
 10
0.939034
 20
4.528154
 30
0.0
 10
0.940191
 20
4.531186
 30
0.0
 10
0.910914
 20
4.547923
 30
0.0
 10
0.899292
 20
4.579583
 30
0.0
 10
0.904967
 20
4.602403
 30
0.0
 10
0.904572
 20
4.602685
 30
0.0
 10
0.936912
 20
4.688292
 30
0.0
 10
0.948006
 20
4.779129
 30
0.0
 10
0.940225
 20
4.856248
 30
0.0
 10
0.917925
 20
4.928077
 30
0.0
 10
0.882643
 20
4.993078
 30
0.0
 10
0.835919
 20
5.049714
 30
0.0
 10
0.779289
 20
5.096446
 30
0.0
 10
0.714293
 20
5.131736
 30
0.0
 10
0.642468
 20
5.154046
 30
0.0
 10
0.565352
 20
5.161838
 30
0.0
 10
0.565352
 20
5.161838
 30
0.0
 10
0.565302
 20
5.161830
 30
0.0
  0
LWPOLYLINE
  5
109
100
AcDbEntity
  8
Layer_1
 62
7
100
AcDbPolyline
 90
38
 70
0
 10
3.752262
 20
5.147058
 30
0.0
 10
3.736767
 20
4.967617
 30
0.0
 10
3.735214
 20
4.787521
 30
0.0
 10
3.747462
 20
4.607828
 30
0.0
 10
3.773372
 20
4.429596
 30
0.0
 10
3.801699
 20
4.293031
 30
0.0
 10
3.839852
 20
4.158921
 30
0.0
 10
3.886726
 20
4.027539
 30
0.0
 10
3.941218
 20
3.899162
 30
0.0
 10
4.039393
 20
3.697065
 30
0.0
 10
4.145719
 20
3.499200
 30
0.0
 10
4.075730
 20
3.535316
 30
0.0
 10
3.998930
 20
3.552557
 30
0.0
 10
3.910957
 20
3.547413
 30
0.0
 10
3.828527
 20
3.516729
 30
0.0
 10
3.757120
 20
3.464795
 30
0.0
 10
3.702213
 20
3.395902
 30
0.0
 10
3.709130
 20
3.440697
 30
0.0
 10
3.699790
 20
3.485204
 30
0.0
 10
3.676145
 20
3.523962
 30
0.0
 10
3.640144
 20
3.551510
 30
0.0
 10
3.653721
 20
3.608319
 30
0.0
 10
3.653154
 20
3.666769
 30
0.0
 10
3.621292
 20
3.766562
 30
0.0
 10
3.580152
 20
3.862899
 30
0.0
 10
3.492694
 20
4.053502
 30
0.0
 10
3.444058
 20
4.173275
 30
0.0
 10
3.403057
 20
4.296065
 30
0.0
 10
3.374092
 20
4.421791
 30
0.0
 10
3.361562
 20
4.550367
 30
0.0
 10
3.364215
 20
4.617891
 30
0.0
 10
3.381562
 20
4.714161
 30
0.0
 10
3.417033
 20
4.805225
 30
0.0
 10
3.467381
 20
4.889508
 30
0.0
 10
3.529360
 20
4.965432
 30
0.0
 10
3.634975
 20
5.063208
 30
0.0
 10
3.752271
 20
5.147058
 30
0.0
 10
3.752262
 20
5.147058
 30
0.0
  0
LWPOLYLINE
  5
10a
100
AcDbEntity
  8
Layer_1
 62
7
100
AcDbPolyline
 90
34
 70
0
 10
0.565355
 20
5.019066
 30
0.0
 10
0.613724
 20
5.014190
 30
0.0
 10
0.658774
 20
5.000205
 30
0.0
 10
0.699541
 20
4.978078
 30
0.0
 10
0.735060
 20
4.948772
 30
0.0
 10
0.764366
 20
4.913252
 30
0.0
 10
0.786494
 20
4.872485
 30
0.0
 10
0.800478
 20
4.827435
 30
0.0
 10
0.805354
 20
4.779066
 30
0.0
 10
0.800478
 20
4.730698
 30
0.0
 10
0.786494
 20
4.685648
 30
0.0
 10
0.764366
 20
4.644880
 30
0.0
 10
0.735060
 20
4.609361
 30
0.0
 10
0.699541
 20
4.580055
 30
0.0
 10
0.658774
 20
4.557927
 30
0.0
 10
0.613724
 20
4.543943
 30
0.0
 10
0.565355
 20
4.539067
 30
0.0
 10
0.516988
 20
4.543943
 30
0.0
 10
0.471938
 20
4.557927
 30
0.0
 10
0.431171
 20
4.580055
 30
0.0
 10
0.395652
 20
4.609361
 30
0.0
 10
0.366346
 20
4.644880
 30
0.0
 10
0.344218
 20
4.685648
 30
0.0
 10
0.330233
 20
4.730698
 30
0.0
 10
0.325356
 20
4.779066
 30
0.0
 10
0.330233
 20
4.827435
 30
0.0
 10
0.344218
 20
4.872485
 30
0.0
 10
0.366346
 20
4.913252
 30
0.0
 10
0.395652
 20
4.948772
 30
0.0
 10
0.431171
 20
4.978078
 30
0.0
 10
0.471938
 20
5.000205
 30
0.0
 10
0.516988
 20
5.014190
 30
0.0
 10
0.565355
 20
5.019066
 30
0.0
 10
0.565355
 20
5.019066
 30
0.0
  0
LWPOLYLINE
  5
10b
100
AcDbEntity
  8
Layer_1
 62
7
100
AcDbPolyline
 90
37
 70
0
 10
4.775594
 20
4.841905
 30
0.0
 10
4.766690
 20
4.796406
 30
0.0
 10
4.775198
 20
4.750709
 30
0.0
 10
4.798883
 20
4.710702
 30
0.0
 10
4.835510
 20
4.682273
 30
0.0
 10
4.821071
 20
4.611652
 30
0.0
 10
4.827684
 20
4.539784
 30
0.0
 10
4.928898
 20
4.298814
 30
0.0
 10
5.032569
 20
4.058793
 30
0.0
 10
5.069491
 20
3.950169
 30
0.0
 10
5.097457
 20
3.838636
 30
0.0
 10
5.112561
 20
3.725078
 30
0.0
 10
5.110897
 20
3.610380
 30
0.0
 10
5.092988
 20
3.515236
 30
0.0
 10
5.057372
 20
3.425426
 30
0.0
 10
5.007247
 20
3.342365
 30
0.0
 10
4.945808
 20
3.267469
 30
0.0
 10
4.840540
 20
3.170101
 30
0.0
 10
4.723615
 20
3.086670
 30
0.0
 10
4.741791
 20
3.366712
 30
0.0
 10
4.726582
 20
3.646993
 30
0.0
 10
4.706363
 20
3.785903
 30
0.0
 10
4.677684
 20
3.923286
 30
0.0
 10
4.640507
 20
4.058615
 30
0.0
 10
4.594794
 20
4.191361
 30
0.0
 10
4.475916
 20
4.457063
 30
0.0
 10
4.340187
 20
4.714629
 30
0.0
 10
4.329714
 20
4.733040
 30
0.0
 10
4.381843
 20
4.705156
 30
0.0
 10
4.438320
 20
4.687656
 30
0.0
 10
4.497077
 20
4.680886
 30
0.0
 10
4.556045
 20
4.685194
 30
0.0
 10
4.623104
 20
4.704090
 30
0.0
 10
4.683627
 20
4.738292
 30
0.0
 10
4.735247
 20
4.785123
 30
0.0
 10
4.775594
 20
4.841905
 30
0.0
 10
4.775594
 20
4.841905
 30
0.0
  0
LWPOLYLINE
  5
10c
100
AcDbEntity
  8
Layer_1
 62
7
100
AcDbPolyline
 90
39
 70
0
 10
0.837491
 20
4.627703
 30
0.0
 10
0.828880
 20
4.582285
 30
0.0
 10
0.837481
 20
4.536737
 30
0.0
 10
0.861135
 20
4.496889
 30
0.0
 10
0.897683
 20
4.468567
 30
0.0
 10
0.883046
 20
4.398138
 30
0.0
 10
0.889747
 20
4.326408
 30
0.0
 10
0.994588
 20
4.077366
 30
0.0
 10
1.100640
 20
3.828771
 30
0.0
 10
1.135312
 20
3.723723
 30
0.0
 10
1.161329
 20
3.616029
 30
0.0
 10
1.175082
 20
3.506489
 30
0.0
 10
1.172960
 20
3.395902
 30
0.0
 10
1.155533
 20
3.302527
 30
0.0
 10
1.120951
 20
3.214277
 30
0.0
 10
1.072286
 20
3.132530
 30
0.0
 10
1.012612
 20
3.058668
 30
0.0
 10
0.905302
 20
2.958425
 30
0.0
 10
0.785731
 20
2.872744
 30
0.0
 10
0.799078
 20
3.013590
 30
0.0
 10
0.803965
 20
3.155030
 30
0.0
 10
0.800360
 20
3.296523
 30
0.0
 10
0.788232
 20
3.437528
 30
0.0
 10
0.767546
 20
3.577506
 30
0.0
 10
0.738272
 20
3.715915
 30
0.0
 10
0.700376
 20
3.852216
 30
0.0
 10
0.653826
 20
3.985868
 30
0.0
 10
0.534097
 20
4.251357
 30
0.0
 10
0.397896
 20
4.508861
 30
0.0
 10
0.391997
 20
4.519168
 30
0.0
 10
0.442506
 20
4.491972
 30
0.0
 10
0.497170
 20
4.474588
 30
0.0
 10
0.554094
 20
4.467298
 30
0.0
 10
0.611383
 20
4.470386
 30
0.0
 10
0.680356
 20
4.488304
 30
0.0
 10
0.742740
 20
4.522407
 30
0.0
 10
0.795972
 20
4.569828
 30
0.0
 10
0.837491
 20
4.627703
 30
0.0
 10
0.837491
 20
4.627703
 30
0.0
  0
LWPOLYLINE
  5
10d
100
AcDbEntity
  8
Layer_1
 62
7
100
AcDbPolyline
 90
43
 70
0
 10
5.347534
 20
4.530303
 30
0.0
 10
5.520389
 20
4.448472
 30
0.0
 10
5.685219
 20
4.351544
 30
0.0
 10
5.840950
 20
4.240517
 30
0.0
 10
5.986507
 20
4.116392
 30
0.0
 10
6.120816
 20
3.980169
 30
0.0
 10
6.242801
 20
3.832846
 30
0.0
 10
6.351387
 20
3.675424
 30
0.0
 10
6.445500
 20
3.508901
 30
0.0
 10
6.308414
 20
3.335599
 30
0.0
 10
6.142983
 20
3.165728
 30
0.0
 10
5.959679
 20
3.015685
 30
0.0
 10
5.761061
 20
2.886535
 30
0.0
 10
5.549687
 20
2.779346
 30
0.0
 10
5.328116
 20
2.695182
 30
0.0
 10
5.098907
 20
2.635112
 30
0.0
 10
4.864619
 20
2.600200
 30
0.0
 10
4.627811
 20
2.591513
 30
0.0
 10
4.605488
 20
2.592120
 30
0.0
 10
4.646554
 20
2.717632
 30
0.0
 10
4.650914
 20
2.723823
 30
0.0
 10
4.658681
 20
2.715261
 30
0.0
 10
4.711014
 20
2.671999
 30
0.0
 10
4.773565
 20
2.645193
 30
0.0
 10
4.840851
 20
2.637298
 30
0.0
 10
4.907389
 20
2.650769
 30
0.0
 10
5.020046
 20
2.715918
 30
0.0
 10
5.124821
 20
2.793072
 30
0.0
 10
5.221435
 20
2.880433
 30
0.0
 10
5.309609
 20
2.976206
 30
0.0
 10
5.383867
 20
3.070372
 30
0.0
 10
5.447232
 20
3.172131
 30
0.0
 10
5.499272
 20
3.280159
 30
0.0
 10
5.539553
 20
3.393129
 30
0.0
 10
5.567641
 20
3.509715
 30
0.0
 10
5.583103
 20
3.628590
 30
0.0
 10
5.585506
 20
3.748430
 30
0.0
 10
5.574416
 20
3.867907
 30
0.0
 10
5.537991
 20
4.039721
 30
0.0
 10
5.484873
 20
4.206956
 30
0.0
 10
5.419806
 20
4.370266
 30
0.0
 10
5.347534
 20
4.530303
 30
0.0
 10
5.347534
 20
4.530303
 30
0.0
  0
LWPOLYLINE
  5
10e
100
AcDbEntity
  8
Layer_1
 62
7
100
AcDbPolyline
 90
41
 70
0
 10
1.409874
 20
4.316431
 30
0.0
 10
1.582662
 20
4.234594
 30
0.0
 10
1.747444
 20
4.137666
 30
0.0
 10
1.903140
 20
4.026645
 30
0.0
 10
2.048671
 20
3.902530
 30
0.0
 10
2.182958
 20
3.766318
 30
0.0
 10
2.304922
 20
3.619008
 30
0.0
 10
2.413483
 20
3.461597
 30
0.0
 10
2.507563
 20
3.295085
 30
0.0
 10
2.369703
 20
3.120790
 30
0.0
 10
2.204275
 20
2.951163
 30
0.0
 10
2.021010
 20
2.801318
 30
0.0
 10
1.822461
 20
2.672326
 30
0.0
 10
1.611182
 20
2.565259
 30
0.0
 10
1.389725
 20
2.481191
 30
0.0
 10
1.160644
 20
2.421193
 30
0.0
 10
0.926491
 20
2.386337
 30
0.0
 10
0.689821
 20
2.377697
 30
0.0
 10
0.667551
 20
2.378304
 30
0.0
 10
0.711151
 20
2.512690
 30
0.0
 10
0.761916
 20
2.465569
 30
0.0
 10
0.824249
 20
2.434891
 30
0.0
 10
0.892486
 20
2.423392
 30
0.0
 10
0.960963
 20
2.433811
 30
0.0
 10
1.068556
 20
2.493189
 30
0.0
 10
1.168667
 20
2.564384
 30
0.0
 10
1.261374
 20
2.645258
 30
0.0
 10
1.346758
 20
2.733672
 30
0.0
 10
1.426617
 20
2.829160
 30
0.0
 10
1.495100
 20
2.933097
 30
0.0
 10
1.551666
 20
3.044028
 30
0.0
 10
1.595771
 20
3.160503
 30
0.0
 10
1.626875
 20
3.281067
 30
0.0
 10
1.644434
 20
3.404268
 30
0.0
 10
1.647908
 20
3.528653
 30
0.0
 10
1.636753
 20
3.652769
 30
0.0
 10
1.600424
 20
3.824895
 30
0.0
 10
1.547234
 20
3.992417
 30
0.0
 10
1.482083
 20
4.156031
 30
0.0
 10
1.409874
 20
4.316432
 30
0.0
 10
1.409874
 20
4.316431
 30
0.0
  0
LWPOLYLINE
  5
10f
100
AcDbEntity
  8
Layer_1
 62
7
100
AcDbPolyline
 90
34
 70
0
 10
3.972748
 20
3.480789
 30
0.0
 10
4.021116
 20
3.475913
 30
0.0
 10
4.066165
 20
3.461929
 30
0.0
 10
4.106932
 20
3.439801
 30
0.0
 10
4.142451
 20
3.410495
 30
0.0
 10
4.171757
 20
3.374976
 30
0.0
 10
4.193885
 20
3.334209
 30
0.0
 10
4.207870
 20
3.289158
 30
0.0
 10
4.212747
 20
3.240790
 30
0.0
 10
4.207870
 20
3.192421
 30
0.0
 10
4.193885
 20
3.147371
 30
0.0
 10
4.171757
 20
3.106604
 30
0.0
 10
4.142451
 20
3.071085
 30
0.0
 10
4.106932
 20
3.041779
 30
0.0
 10
4.066165
 20
3.019651
 30
0.0
 10
4.021116
 20
3.005667
 30
0.0
 10
3.972748
 20
3.000791
 30
0.0
 10
3.924380
 20
3.005667
 30
0.0
 10
3.879329
 20
3.019651
 30
0.0
 10
3.838562
 20
3.041779
 30
0.0
 10
3.803043
 20
3.071085
 30
0.0
 10
3.773737
 20
3.106604
 30
0.0
 10
3.751609
 20
3.147371
 30
0.0
 10
3.737625
 20
3.192421
 30
0.0
 10
3.732749
 20
3.240790
 30
0.0
 10
3.737625
 20
3.289158
 30
0.0
 10
3.751609
 20
3.334209
 30
0.0
 10
3.773737
 20
3.374976
 30
0.0
 10
3.803043
 20
3.410495
 30
0.0
 10
3.838562
 20
3.439801
 30
0.0
 10
3.879329
 20
3.461929
 30
0.0
 10
3.924380
 20
3.475913
 30
0.0
 10
3.972748
 20
3.480789
 30
0.0
 10
3.972748
 20
3.480789
 30
0.0
  0
LWPOLYLINE
  5
110
100
AcDbEntity
  8
Layer_1
 62
7
100
AcDbPolyline
 90
103
 70
0
 10
2.523879
 20
2.696630
 30
0.0
 10
2.324534
 20
2.587431
 30
0.0
 10
2.138592
 20
2.459727
 30
0.0
 10
1.967168
 20
2.314794
 30
0.0
 10
1.811381
 20
2.153906
 30
0.0
 10
1.672347
 20
1.978339
 30
0.0
 10
1.551183
 20
1.789366
 30
0.0
 10
1.449007
 20
1.588263
 30
0.0
 10
1.366934
 20
1.376304
 30
0.0
 10
1.370242
 20
1.377738
 30
0.0
 10
1.717313
 20
1.536455
 30
0.0
 10
1.945827
 20
1.620002
 30
0.0
 10
2.070596
 20
1.652342
 30
0.0
 10
2.201143
 20
1.674402
 30
0.0
 10
2.336857
 20
1.681614
 30
0.0
 10
2.476470
 20
1.670052
 30
0.0
 10
2.618080
 20
1.637685
 30
0.0
 10
2.759783
 20
1.582483
 30
0.0
 10
2.899677
 20
1.502415
 30
0.0
 10
3.035856
 20
1.395449
 30
0.0
 10
3.166420
 20
1.259556
 30
0.0
 10
3.289463
 20
1.092705
 30
0.0
 10
3.310093
 20
1.049967
 30
0.0
 10
3.317509
 20
1.005902
 30
0.0
 10
3.312891
 20
0.962693
 30
0.0
 10
3.297422
 20
0.922528
 30
0.0
 10
3.272283
 20
0.887591
 30
0.0
 10
3.238656
 20
0.860067
 30
0.0
 10
3.197723
 20
0.842143
 30
0.0
 10
3.150666
 20
0.836004
 30
0.0
 10
3.109603
 20
0.841602
 30
0.0
 10
3.071777
 20
0.856960
 30
0.0
 10
3.038876
 20
0.881133
 30
0.0
 10
3.012586
 20
0.913174
 30
0.0
 10
2.913771
 20
1.050793
 30
0.0
 10
2.816415
 20
1.158261
 30
0.0
 10
2.720117
 20
1.238735
 30
0.0
 10
2.624471
 20
1.295371
 30
0.0
 10
2.529073
 20
1.331329
 30
0.0
 10
2.433520
 20
1.349765
 30
0.0
 10
2.337408
 20
1.353838
 30
0.0
 10
2.240333
 20
1.346705
 30
0.0
 10
2.142525
 20
1.329630
 30
0.0
 10
2.044871
 20
1.303234
 30
0.0
 10
1.852326
 20
1.231261
 30
0.0
 10
1.494428
 20
1.072034
 30
0.0
 10
1.441442
 20
1.059347
 30
0.0
 10
1.388543
 20
1.064281
 30
0.0
 10
1.339942
 20
1.085742
 30
0.0
 10
1.299850
 20
1.122636
 30
0.0
 10
1.284525
 20
1.044473
 30
0.0
 10
1.281494
 20
1.045630
 30
0.0
 10
1.264758
 20
1.016353
 30
0.0
 10
1.233099
 20
1.004730
 30
0.0
 10
1.210278
 20
1.010408
 30
0.0
 10
1.209939
 20
1.010078
 30
0.0
 10
1.124332
 20
1.042418
 30
0.0
 10
1.033494
 20
1.053513
 30
0.0
 10
0.956369
 20
1.045731
 30
0.0
 10
0.884535
 20
1.023427
 30
0.0
 10
0.819529
 20
0.988140
 30
0.0
 10
0.762891
 20
0.941408
 30
0.0
 10
0.716160
 20
0.884770
 30
0.0
 10
0.680873
 20
0.819764
 30
0.0
 10
0.658569
 20
0.747929
 30
0.0
 10
0.650787
 20
0.670804
 30
0.0
 10
0.650787
 20
0.670804
 30
0.0
 10
0.666277
 20
0.563412
 30
0.0
 10
0.709492
 20
0.467847
 30
0.0
 10
0.837429
 20
0.375629
 30
0.0
 10
0.838924
 20
0.374582
 30
0.0
 10
0.935566
 20
0.329779
 30
0.0
 10
1.038872
 20
0.315951
 30
0.0
 10
1.141698
 20
0.332982
 30
0.0
 10
1.236903
 20
0.380755
 30
0.0
 10
1.239725
 20
0.383069
 30
0.0
 10
1.370201
 20
0.459421
 30
0.0
 10
1.542454
 20
0.547828
 30
0.0
 10
1.770906
 20
0.660184
 30
0.0
 10
2.008856
 20
0.745501
 30
0.0
 10
2.253893
 20
0.803446
 30
0.0
 10
2.503605
 20
0.833682
 30
0.0
 10
2.755581
 20
0.835877
 30
0.0
 10
3.007409
 20
0.809694
 30
0.0
 10
3.256678
 20
0.754799
 30
0.0
 10
3.500977
 20
0.670859
 30
0.0
 10
3.507011
 20
0.820658
 30
0.0
 10
3.503141
 20
0.969348
 30
0.0
 10
3.489572
 20
1.116505
 30
0.0
 10
3.466509
 20
1.261703
 30
0.0
 10
3.434157
 20
1.404518
 30
0.0
 10
3.392721
 20
1.544524
 30
0.0
 10
3.342406
 20
1.681296
 30
0.0
 10
3.283417
 20
1.814411
 30
0.0
 10
3.215959
 20
1.943441
 30
0.0
 10
3.140237
 20
2.067964
 30
0.0
 10
3.056456
 20
2.187554
 30
0.0
 10
2.964820
 20
2.301785
 30
0.0
 10
2.865535
 20
2.410233
 30
0.0
 10
2.758807
 20
2.512473
 30
0.0
 10
2.644839
 20
2.608081
 30
0.0
 10
2.523836
 20
2.696630
 30
0.0
 10
2.523879
 20
2.696630
 30
0.0
  0
LWPOLYLINE
  5
111
100
AcDbEntity
  8
Layer_1
 62
7
100
AcDbPolyline
 90
102
 70
0
 10
6.082359
 20
2.668353
 30
0.0
 10
5.979522
 20
2.651340
 30
0.0
 10
5.884307
 20
2.603585
 30
0.0
 10
5.881485
 20
2.601271
 30
0.0
 10
5.751009
 20
2.524919
 30
0.0
 10
5.578756
 20
2.436512
 30
0.0
 10
5.350306
 20
2.324156
 30
0.0
 10
5.112356
 20
2.238839
 30
0.0
 10
4.867320
 20
2.180894
 30
0.0
 10
4.617608
 20
2.150658
 30
0.0
 10
4.365633
 20
2.148463
 30
0.0
 10
4.113804
 20
2.174646
 30
0.0
 10
3.864535
 20
2.229541
 30
0.0
 10
3.620236
 20
2.313481
 30
0.0
 10
3.614202
 20
2.163682
 30
0.0
 10
3.618072
 20
2.014992
 30
0.0
 10
3.631640
 20
1.867835
 30
0.0
 10
3.654703
 20
1.722637
 30
0.0
 10
3.687055
 20
1.579822
 30
0.0
 10
3.728491
 20
1.439816
 30
0.0
 10
3.778805
 20
1.303044
 30
0.0
 10
3.837794
 20
1.169930
 30
0.0
 10
3.905252
 20
1.040899
 30
0.0
 10
3.980974
 20
0.916376
 30
0.0
 10
4.064755
 20
0.796787
 30
0.0
 10
4.156390
 20
0.682555
 30
0.0
 10
4.255675
 20
0.574107
 30
0.0
 10
4.362404
 20
0.471867
 30
0.0
 10
4.476372
 20
0.376259
 30
0.0
 10
4.597374
 20
0.287710
 30
0.0
 10
4.796718
 20
0.396909
 30
0.0
 10
4.982661
 20
0.524613
 30
0.0
 10
5.154085
 20
0.669546
 30
0.0
 10
5.309873
 20
0.830434
 30
0.0
 10
5.448907
 20
1.006002
 30
0.0
 10
5.570071
 20
1.194974
 30
0.0
 10
5.672248
 20
1.396077
 30
0.0
 10
5.754321
 20
1.608036
 30
0.0
 10
5.751013
 20
1.606602
 30
0.0
 10
5.403943
 20
1.447885
 30
0.0
 10
5.175428
 20
1.364339
 30
0.0
 10
5.050659
 20
1.331999
 30
0.0
 10
4.920112
 20
1.309939
 30
0.0
 10
4.784398
 20
1.302727
 30
0.0
 10
4.644785
 20
1.314289
 30
0.0
 10
4.503175
 20
1.346656
 30
0.0
 10
4.361472
 20
1.401858
 30
0.0
 10
4.221579
 20
1.481926
 30
0.0
 10
4.085399
 20
1.588891
 30
0.0
 10
3.954835
 20
1.724784
 30
0.0
 10
3.831792
 20
1.891636
 30
0.0
 10
3.811162
 20
1.934373
 30
0.0
 10
3.803746
 20
1.978439
 30
0.0
 10
3.808363
 20
2.021647
 30
0.0
 10
3.823832
 20
2.061813
 30
0.0
 10
3.848970
 20
2.096750
 30
0.0
 10
3.882596
 20
2.124274
 30
0.0
 10
3.923529
 20
2.142198
 30
0.0
 10
3.970586
 20
2.148337
 30
0.0
 10
4.011650
 20
2.142739
 30
0.0
 10
4.049475
 20
2.127381
 30
0.0
 10
4.082377
 20
2.103208
 30
0.0
 10
4.108666
 20
2.071167
 30
0.0
 10
4.207482
 20
1.933547
 30
0.0
 10
4.304837
 20
1.826079
 30
0.0
 10
4.401135
 20
1.745606
 30
0.0
 10
4.496782
 20
1.688969
 30
0.0
 10
4.592179
 20
1.653011
 30
0.0
 10
4.687732
 20
1.634575
 30
0.0
 10
4.783844
 20
1.630502
 30
0.0
 10
4.880920
 20
1.637636
 30
0.0
 10
4.978727
 20
1.654711
 30
0.0
 10
5.076381
 20
1.681106
 30
0.0
 10
5.268927
 20
1.753080
 30
0.0
 10
5.626824
 20
1.912307
 30
0.0
 10
5.679810
 20
1.924994
 30
0.0
 10
5.732709
 20
1.920060
 30
0.0
 10
5.781310
 20
1.898599
 30
0.0
 10
5.821403
 20
1.861705
 30
0.0
 10
5.836727
 20
1.939867
 30
0.0
 10
5.839758
 20
1.938710
 30
0.0
 10
5.856495
 20
1.967988
 30
0.0
 10
5.888154
 20
1.979610
 30
0.0
 10
5.910974
 20
1.973933
 30
0.0
 10
5.911256
 20
1.974263
 30
0.0
 10
5.996864
 20
1.941923
 30
0.0
 10
6.087702
 20
1.930827
 30
0.0
 10
6.164827
 20
1.938610
 30
0.0
 10
6.236661
 20
1.960914
 30
0.0
 10
6.301667
 20
1.996201
 30
0.0
 10
6.358305
 20
2.042933
 30
0.0
 10
6.405036
 20
2.099571
 30
0.0
 10
6.440323
 20
2.164576
 30
0.0
 10
6.462627
 20
2.236411
 30
0.0
 10
6.470409
 20
2.313536
 30
0.0
 10
6.454920
 20
2.420929
 30
0.0
 10
6.411704
 20
2.516494
 30
0.0
 10
6.283767
 20
2.608712
 30
0.0
 10
6.282271
 20
2.609759
 30
0.0
 10
6.185641
 20
2.654543
 30
0.0
 10
6.082345
 20
2.668353
 30
0.0
 10
6.082359
 20
2.668353
 30
0.0
  0
LWPOLYLINE
  5
112
100
AcDbEntity
  8
Layer_1
 62
7
100
AcDbPolyline
 90
41
 70
0
 10
2.517373
 20
2.613121
 30
0.0
 10
2.706716
 20
2.461978
 30
0.0
 10
2.875030
 20
2.294788
 30
0.0
 10
3.023370
 20
2.109931
 30
0.0
 10
3.150665
 20
1.909967
 30
0.0
 10
3.255845
 20
1.697456
 30
0.0
 10
3.337838
 20
1.474960
 30
0.0
 10
3.395574
 20
1.245039
 30
0.0
 10
3.427982
 20
1.010253
 30
0.0
 10
3.433992
 20
0.773164
 30
0.0
 10
3.300210
 20
0.816710
 30
0.0
 10
3.346998
 20
0.867138
 30
0.0
 10
3.377554
 20
0.928993
 30
0.0
 10
3.389226
 20
0.996732
 30
0.0
 10
3.379365
 20
1.064813
 30
0.0
 10
3.321102
 20
1.171432
 30
0.0
 10
3.250986
 20
1.270589
 30
0.0
 10
3.171307
 20
1.362507
 30
0.0
 10
3.084355
 20
1.447411
 30
0.0
 10
2.989509
 20
1.527535
 30
0.0
 10
2.886227
 20
1.596494
 30
0.0
 10
2.775938
 20
1.653711
 30
0.0
 10
2.660068
 20
1.698604
 30
0.0
 10
2.540046
 20
1.730595
 30
0.0
 10
2.417298
 20
1.749105
 30
0.0
 10
2.293253
 20
1.753552
 30
0.0
 10
2.169337
 20
1.743359
 30
0.0
 10
1.998437
 20
1.708580
 30
0.0
 10
1.832032
 20
1.656957
 30
0.0
 10
1.669535
 20
1.593193
 30
0.0
 10
1.510359
 20
1.521991
 30
0.0
 10
1.496192
 20
1.515376
 30
0.0
 10
1.578018
 20
1.688191
 30
0.0
 10
1.674936
 20
1.852978
 30
0.0
 10
1.785945
 20
2.008664
 30
0.0
 10
1.910046
 20
2.154180
 30
0.0
 10
2.046238
 20
2.288454
 30
0.0
 10
2.193524
 20
2.410417
 30
0.0
 10
2.350902
 20
2.518996
 30
0.0
 10
2.517373
 20
2.613121
 30
0.0
 10
2.517373
 20
2.613121
 30
0.0
  0
LWPOLYLINE
  5
113
100
AcDbEntity
  8
Layer_1
 62
7
100
AcDbPolyline
 90
34
 70
0
 10
6.087651
 20
2.553535
 30
0.0
 10
6.136019
 20
2.548658
 30
0.0
 10
6.181070
 20
2.534673
 30
0.0
 10
6.221837
 20
2.512545
 30
0.0
 10
6.257356
 20
2.483239
 30
0.0
 10
6.286662
 20
2.447720
 30
0.0
 10
6.308790
 20
2.406953
 30
0.0
 10
6.322774
 20
2.361903
 30
0.0
 10
6.327650
 20
2.313536
 30
0.0
 10
6.322774
 20
2.265167
 30
0.0
 10
6.308790
 20
2.220117
 30
0.0
 10
6.286662
 20
2.179349
 30
0.0
 10
6.257356
 20
2.143830
 30
0.0
 10
6.221837
 20
2.114524
 30
0.0
 10
6.181070
 20
2.092397
 30
0.0
 10
6.136019
 20
2.078412
 30
0.0
 10
6.087651
 20
2.073537
 30
0.0
 10
6.039283
 20
2.078412
 30
0.0
 10
5.994232
 20
2.092397
 30
0.0
 10
5.953465
 20
2.114524
 30
0.0
 10
5.917946
 20
2.143830
 30
0.0
 10
5.888640
 20
2.179349
 30
0.0
 10
5.866512
 20
2.220117
 30
0.0
 10
5.852528
 20
2.265167
 30
0.0
 10
5.847652
 20
2.313536
 30
0.0
 10
5.852528
 20
2.361903
 30
0.0
 10
5.866512
 20
2.406953
 30
0.0
 10
5.888640
 20
2.447720
 30
0.0
 10
5.917946
 20
2.483239
 30
0.0
 10
5.953465
 20
2.512545
 30
0.0
 10
5.994232
 20
2.534673
 30
0.0
 10
6.039283
 20
2.548658
 30
0.0
 10
6.087651
 20
2.553535
 30
0.0
 10
6.087651
 20
2.553535
 30
0.0
  0
LWPOLYLINE
  5
114
100
AcDbEntity
  8
Layer_1
 62
7
100
AcDbPolyline
 90
40
 70
0
 10
5.829903
 20
2.488160
 30
0.0
 10
5.793790
 20
2.420435
 30
0.0
 10
5.776755
 20
2.345637
 30
0.0
 10
5.778687
 20
2.268788
 30
0.0
 10
5.799477
 20
2.194914
 30
0.0
 10
5.823309
 20
2.148139
 30
0.0
 10
5.854718
 20
2.106147
 30
0.0
 10
5.892751
 20
2.070050
 30
0.0
 10
5.936453
 20
2.040960
 30
0.0
 10
5.891050
 20
2.050025
 30
0.0
 10
5.845451
 20
2.041556
 30
0.0
 10
5.805513
 20
2.017878
 30
0.0
 10
5.777096
 20
1.981318
 30
0.0
 10
5.703509
 20
1.995743
 30
0.0
 10
5.628820
 20
1.987547
 30
0.0
 10
5.414846
 20
1.897541
 30
0.0
 10
5.202509
 20
1.803496
 30
0.0
 10
5.089429
 20
1.761418
 30
0.0
 10
4.973293
 20
1.727860
 30
0.0
 10
4.854659
 20
1.707190
 30
0.0
 10
4.734088
 20
1.703781
 30
0.0
 10
4.653946
 20
1.713066
 30
0.0
 10
4.576384
 20
1.735042
 30
0.0
 10
4.502735
 20
1.768246
 30
0.0
 10
4.434337
 20
1.811213
 30
0.0
 10
4.364226
 20
1.868378
 30
0.0
 10
4.301116
 20
1.932987
 30
0.0
 10
4.192297
 20
2.077340
 30
0.0
 10
4.181384
 20
2.093270
 30
0.0
 10
4.340448
 20
2.078922
 30
0.0
 10
4.500128
 20
2.075421
 30
0.0
 10
4.659682
 20
2.082719
 30
0.0
 10
4.818368
 20
2.100766
 30
0.0
 10
4.959871
 20
2.125433
 30
0.0
 10
5.099278
 20
2.159866
 30
0.0
 10
5.236103
 20
2.203512
 30
0.0
 10
5.369858
 20
2.255823
 30
0.0
 10
5.602833
 20
2.366125
 30
0.0
 10
5.829903
 20
2.488160
 30
0.0
 10
5.829903
 20
2.488160
 30
0.0
  0
LWPOLYLINE
  5
115
100
AcDbEntity
  8
Layer_1
 62
7
100
AcDbPolyline
 90
41
 70
0
 10
3.687165
 20
2.211120
 30
0.0
 10
3.821440
 20
2.167684
 30
0.0
 10
3.773944
 20
2.116838
 30
0.0
 10
3.743192
 20
2.054184
 30
0.0
 10
3.731872
 20
1.985567
 30
0.0
 10
3.742672
 20
1.916826
 30
0.0
 10
3.803407
 20
1.807751
 30
0.0
 10
3.876068
 20
1.706298
 30
0.0
 10
3.958581
 20
1.612448
 30
0.0
 10
4.048872
 20
1.526180
 30
0.0
 10
4.144460
 20
1.447384
 30
0.0
 10
4.248335
 20
1.379929
 30
0.0
 10
4.359062
 20
1.324338
 30
0.0
 10
4.475204
 20
1.281135
 30
0.0
 10
4.595325
 20
1.250845
 30
0.0
 10
4.717991
 20
1.233991
 30
0.0
 10
4.841765
 20
1.231098
 30
0.0
 10
4.965211
 20
1.242690
 30
0.0
 10
5.136312
 20
1.279230
 30
0.0
 10
5.302846
 20
1.332328
 30
0.0
 10
5.465514
 20
1.397189
 30
0.0
 10
5.625015
 20
1.469019
 30
0.0
 10
5.543158
 20
1.296201
 30
0.0
 10
5.446217
 20
1.131405
 30
0.0
 10
5.335190
 20
0.975706
 30
0.0
 10
5.211074
 20
0.830176
 30
0.0
 10
5.074867
 20
0.695889
 30
0.0
 10
4.927566
 20
0.573918
 30
0.0
 10
4.770168
 20
0.465336
 30
0.0
 10
4.603670
 20
0.371218
 30
0.0
 10
4.437258
 20
0.502297
 30
0.0
 10
4.272347
 20
0.660943
 30
0.0
 10
4.125708
 20
0.836370
 30
0.0
 10
3.998348
 20
1.026295
 30
0.0
 10
3.891277
 20
1.228436
 30
0.0
 10
3.805504
 20
1.440510
 30
0.0
 10
3.742038
 20
1.660233
 30
0.0
 10
3.701887
 20
1.885324
 30
0.0
 10
3.686061
 20
2.113499
 30
0.0
 10
3.687162
 20
2.211120
 30
0.0
 10
3.687165
 20
2.211120
 30
0.0
  0
LWPOLYLINE
  5
116
100
AcDbEntity
  8
Layer_1
 62
7
100
AcDbPolyline
 90
7
 70
0
 10
6.048789
 20
2.003587
 30
0.0
 10
6.079769
 20
2.001163
 30
0.0
 10
6.050829
 20
2.003257
 30
0.0
 10
6.050829
 20
2.003201
 30
0.0
 10
6.050547
 20
2.003313
 30
0.0
 10
6.048797
 20
2.003596
 30
0.0
 10
6.048789
 20
2.003587
 30
0.0
  0
LWPOLYLINE
  5
117
100
AcDbEntity
  8
Layer_1
 62
7
100
AcDbPolyline
 90
38
 70
0
 10
2.366562
 20
1.281495
 30
0.0
 10
2.423337
 20
1.277692
 30
0.0
 10
2.519201
 20
1.258227
 30
0.0
 10
2.609311
 20
1.220826
 30
0.0
 10
2.692382
 20
1.168850
 30
0.0
 10
2.767129
 20
1.105657
 30
0.0
 10
2.860059
 20
1.003301
 30
0.0
 10
2.940653
 20
0.890684
 30
0.0
 10
2.798141
 20
0.904451
 30
0.0
 10
2.655014
 20
0.909453
 30
0.0
 10
2.511837
 20
0.905679
 30
0.0
 10
2.369172
 20
0.893115
 30
0.0
 10
2.227583
 20
0.871748
 30
0.0
 10
2.087633
 20
0.841565
 30
0.0
 10
1.949886
 20
0.802553
 30
0.0
 10
1.814905
 20
0.754699
 30
0.0
 10
1.549028
 20
0.633443
 30
0.0
 10
1.291197
 20
0.495958
 30
0.0
 10
1.333014
 20
0.582721
 30
0.0
 10
1.346374
 20
0.678025
 30
0.0
 10
1.334514
 20
0.756586
 30
0.0
 10
1.302117
 20
0.828933
 30
0.0
 10
1.252754
 20
0.891325
 30
0.0
 10
1.189992
 20
0.940017
 30
0.0
 10
1.185970
 20
0.942331
 30
0.0
 10
1.231097
 20
0.934222
 30
0.0
 10
1.276246
 20
0.942959
 30
0.0
 10
1.315711
 20
0.966486
 30
0.0
 10
1.343783
 20
1.002745
 30
0.0
 10
1.411631
 20
0.988429
 30
0.0
 10
1.480814
 20
0.994311
 30
0.0
 10
1.607045
 20
1.042931
 30
0.0
 10
1.730732
 20
1.097794
 30
0.0
 10
1.979387
 20
1.204545
 30
0.0
 10
2.169729
 20
1.261356
 30
0.0
 10
2.267644
 20
1.277269
 30
0.0
 10
2.366562
 20
1.281494
 30
0.0
 10
2.366562
 20
1.281495
 30
0.0
  0
LWPOLYLINE
  5
118
100
AcDbEntity
  8
Layer_1
 62
7
100
AcDbPolyline
 90
34
 70
0
 10
1.033613
 20
0.910803
 30
0.0
 10
1.081981
 20
0.905927
 30
0.0
 10
1.127031
 20
0.891943
 30
0.0
 10
1.167799
 20
0.869815
 30
0.0
 10
1.203318
 20
0.840509
 30
0.0
 10
1.232624
 20
0.804990
 30
0.0
 10
1.254751
 20
0.764223
 30
0.0
 10
1.268736
 20
0.719172
 30
0.0
 10
1.273612
 20
0.670804
 30
0.0
 10
1.268736
 20
0.622436
 30
0.0
 10
1.254751
 20
0.577387
 30
0.0
 10
1.232624
 20
0.536620
 30
0.0
 10
1.203318
 20
0.501101
 30
0.0
 10
1.167799
 20
0.471794
 30
0.0
 10
1.127031
 20
0.449666
 30
0.0
 10
1.081981
 20
0.435681
 30
0.0
 10
1.033613
 20
0.430805
 30
0.0
 10
0.985244
 20
0.435681
 30
0.0
 10
0.940194
 20
0.449666
 30
0.0
 10
0.899427
 20
0.471794
 30
0.0
 10
0.863907
 20
0.501101
 30
0.0
 10
0.834602
 20
0.536620
 30
0.0
 10
0.812474
 20
0.577387
 30
0.0
 10
0.798490
 20
0.622436
 30
0.0
 10
0.793614
 20
0.670804
 30
0.0
 10
0.798490
 20
0.719172
 30
0.0
 10
0.812474
 20
0.764223
 30
0.0
 10
0.834602
 20
0.804990
 30
0.0
 10
0.863907
 20
0.840509
 30
0.0
 10
0.899427
 20
0.869815
 30
0.0
 10
0.940194
 20
0.891943
 30
0.0
 10
0.985244
 20
0.905927
 30
0.0
 10
1.033613
 20
0.910803
 30
0.0
 10
1.033613
 20
0.910803
 30
0.0
  0
ENDSEC
  0
SECTION
  2
OBJECTS
  0
DICTIONARY
  5
C
330
0
100
AcDbDictionary
  3
ACAD_GROUP
350
D
  3
ACAD_MLINESTYLE
350
17
  0
DICTIONARY
  5
D
330
C
100
AcDbDictionary
  0
DICTIONARY
  5
1A
330
C
100
AcDbDictionary
  0
DICTIONARY
  5
17
330
C
100
AcDbDictionary
  3
STANDARD
350
18
  0
DICTIONARY
  5
19
330
C
100
AcDbDictionary
  0
ENDSEC
  0
EOF
