  0
SECTION
  2
HEADER
  9
$ACADVER
  1
AC1014
  9
$HANDSEED
  5
FFFF
  9
$MEASUREMENT
 70
     1
  0
ENDSEC
  0
SECTION
  2
TABLES
  0
TABLE
  2
VPORT
  5
8
330
0
100
AcDbSymbolTable
 70
     4
  0
VPORT
  5
2E
330
8
100
AcDbSymbolTableRecord
100
AcDbViewportTableRecord
  2
*ACTIVE
 70
     0
 10
0.0
 20
0.0
 11
1.0
 21
1.0
 12
210.0
 22
148.5
 13
0.0
 23
0.0
 14
10.0
 24
10.0
 15
10.0
 25
10.0
 16
0.0
 26
0.0
 36
1.0
 17
0.0
 27
0.0
 37
0.0
 40
341.0
 41
1.24
 42
50.0
 43
0.0
 44
0.0
 50
0.0
 51
0.0
 71
     0
 72
   100
 73
     1
 74
     3
 75
     0
 76
     0
 77
     0
 78
     0
  0
ENDTAB
  0
TABLE
  2
LTYPE
  5
5
330
0
100
AcDbSymbolTable
 70
     1
  0
LTYPE
  5
14
330
5
100
AcDbSymbolTableRecord
100
AcDbLinetypeTableRecord
  2
BYBLOCK
 70
     0
  3

 72
    65
 73
     0
 40
0.0
  0
LTYPE
  5
15
330
5
100
AcDbSymbolTableRecord
100
AcDbLinetypeTableRecord
  2
BYLAYER
 70
     0
  3

 72
    65
 73
     0
 40
0.0
  0
LTYPE
  5
16
330
5
100
AcDbSymbolTableRecord
100
AcDbLinetypeTableRecord
  2
CONTINUOUS
 70
     0
  3
Solid line
 72
    65
 73
     0
 40
0.0
  0
ENDTAB
  0
TABLE
  2
LAYER
  5
2
100
AcDbSymbolTable
 70
2
  0
LAYER
  5
50
100
AcDbSymbolTableRecord
100
AcDbLayerTableRecord
  2
0
 70
0
  6
CONTINUOUS
  0
LAYER
  5
51
100
AcDbSymbolTableRecord
100
AcDbLayerTableRecord
  2
Layer_1
 70
0
  6
CONTINUOUS
  0
ENDTAB
  0
TABLE
  2
STYLE
  5
3
330
0
100
AcDbSymbolTable
 70
     1
  0
STYLE
  5
11
330
3
100
AcDbSymbolTableRecord
100
AcDbTextStyleTableRecord
  2
STANDARD
 70
     0
 40
0.0
 41
1.0
 50
0.0
 71
     0
 42
2.5
  3
txt
  4

  0
ENDTAB
  0
TABLE
  2
VIEW
  5
6
330
0
100
AcDbSymbolTable
 70
     0
  0
ENDTAB
  0
TABLE
  2
UCS
  5
7
330
0
100
AcDbSymbolTable
 70
     0
  0
ENDTAB
  0
TABLE
  2
APPID
  5
9
330
0
100
AcDbSymbolTable
 70
     2
  0
APPID
  5
12
330
9
100
AcDbSymbolTableRecord
100
AcDbRegAppTableRecord
  2
ACAD
 70
     0
  0
ENDTAB
  0
TABLE
  2
DIMSTYLE
  5
A
330
0
100
AcDbSymbolTable
 70
     1
  0
DIMSTYLE
105
27
330
A
100
AcDbSymbolTableRecord
100
AcDbDimStyleTableRecord
  2
ISO-25
 70
     0
  3

  4

  5

  6

  7

 40
1.0
 41
2.5
 42
0.625
 43
3.75
 44
1.25
 45
0.0
 46
0.0
 47
0.0
 48
0.0
140
2.5
141
2.5
142
0.0
143
0.03937007874016
144
1.0
145
0.0
146
1.0
147
0.625
 71
     0
 72
     0
 73
     0
 74
     0
 75
     0
 76
     0
 77
     1
 78
     8
170
     0
171
     3
172
     1
173
     0
174
     0
175
     0
176
     0
177
     0
178
     0
270
     2
271
     2
272
     2
273
     2
274
     3
340
11
275
     0
280
     0
281
     0
282
     0
283
     0
284
     8
285
     0
286
     0
287
     3
288
     0
  0
ENDTAB
  0
TABLE
  2
BLOCK_RECORD
  5
1
330
0
100
AcDbSymbolTable
 70
     1
  0
BLOCK_RECORD
  5
1F
330
1
100
AcDbSymbolTableRecord
100
AcDbBlockTableRecord
  2
*MODEL_SPACE
  0
BLOCK_RECORD
  5
1B
330
1
100
AcDbSymbolTableRecord
100
AcDbBlockTableRecord
  2
*PAPER_SPACE
  0
ENDTAB
  0
ENDSEC
  0
SECTION
  2
BLOCKS
  0
BLOCK
  5
20
330
1F
100
AcDbEntity
  8
0
100
AcDbBlockBegin
  2
*MODEL_SPACE
 70
     0
 10
0.0
 20
0.0
 30
0.0
  3
*MODEL_SPACE
  1

  0
ENDBLK
  5
21
330
1F
100
AcDbEntity
  8
0
100
AcDbBlockEnd
  0
BLOCK
  5
1C
330
1B
100
AcDbEntity
 67
     1
  8
0
100
AcDbBlockBegin
  2
*PAPER_SPACE
  1

  0
ENDBLK
  5
1D
330
1B
100
AcDbEntity
 67
     1
  8
0
100
AcDbBlockEnd
  0
ENDSEC
  0
SECTION
  2
ENTITIES
  0
LWPOLYLINE
  5
100
100
AcDbEntity
  8
Layer_1
 62
7
100
AcDbPolyline
 90
8
 70
1
 10
5.999999
 20
6.000001
 30
0.0
 10
5.999999
 20
4.999987
 30
0.0
 10
5.971667
 20
4.999987
 30
0.0
 10
5.971667
 20
5.971616
 30
0.0
 10
4.999984
 20
5.971616
 30
0.0
 10
4.999984
 20
6.000001
 30
0.0
 10
5.999999
 20
6.000001
 30
0.0
 10
5.999999
 20
6.000001
 30
0.0
  0
LWPOLYLINE
  5
101
100
AcDbEntity
  8
Layer_1
 62
7
100
AcDbPolyline
 90
9
 70
1
 10
1.000015
 20
6.000001
 30
0.0
 10
1.000015
 20
5.971616
 30
0.0
 10
0.028332
 20
5.971616
 30
0.0
 10
0.028332
 20
4.999987
 30
0.0
 10
-0.000000
 20
4.999987
 30
0.0
 10
-0.000000
 20
5.985780
 30
0.0
 10
-0.000000
 20
6.000001
 30
0.0
 10
1.000015
 20
6.000001
 30
0.0
 10
1.000015
 20
6.000001
 30
0.0
  0
LWPOLYLINE
  5
102
100
AcDbEntity
  8
Layer_1
 62
7
100
AcDbPolyline
 90
8
 70
1
 10
5.999999
 20
0.799981
 30
0.0
 10
5.999999
 20
0.000002
 30
0.0
 10
4.999984
 20
0.000002
 30
0.0
 10
4.999984
 20
0.028334
 30
0.0
 10
5.971667
 20
0.028334
 30
0.0
 10
5.971667
 20
0.799981
 30
0.0
 10
5.999999
 20
0.799981
 30
0.0
 10
5.999999
 20
0.799981
 30
0.0
  0
LWPOLYLINE
  5
103
100
AcDbEntity
  8
Layer_1
 62
7
100
AcDbPolyline
 90
8
 70
1
 10
0.028332
 20
0.799981
 30
0.0
 10
0.028332
 20
0.028334
 30
0.0
 10
1.000015
 20
0.028334
 30
0.0
 10
1.000015
 20
0.000002
 30
0.0
 10
-0.000000
 20
0.000002
 30
0.0
 10
-0.000000
 20
0.799981
 30
0.0
 10
0.028332
 20
0.799981
 30
0.0
 10
0.028332
 20
0.799981
 30
0.0
  0
LWPOLYLINE
  5
104
100
AcDbEntity
  8
Layer_1
 62
7
100
AcDbPolyline
 90
8
 70
1
 10
6.000001
 20
5.999999
 30
0.0
 10
6.000001
 20
4.999984
 30
0.0
 10
5.971668
 20
4.999984
 30
0.0
 10
5.971668
 20
5.971613
 30
0.0
 10
4.999986
 20
5.971613
 30
0.0
 10
4.999986
 20
5.999999
 30
0.0
 10
6.000001
 20
5.999999
 30
0.0
 10
6.000001
 20
5.999999
 30
0.0
  0
LWPOLYLINE
  5
105
100
AcDbEntity
  8
Layer_1
 62
7
100
AcDbPolyline
 90
9
 70
1
 10
1.000016
 20
5.999999
 30
0.0
 10
1.000016
 20
5.971613
 30
0.0
 10
0.028334
 20
5.971613
 30
0.0
 10
0.028334
 20
4.999984
 30
0.0
 10
0.000001
 20
4.999984
 30
0.0
 10
0.000001
 20
5.985778
 30
0.0
 10
0.000001
 20
5.999999
 30
0.0
 10
1.000016
 20
5.999999
 30
0.0
 10
1.000016
 20
5.999999
 30
0.0
  0
LWPOLYLINE
  5
106
100
AcDbEntity
  8
Layer_1
 62
7
100
AcDbPolyline
 90
8
 70
1
 10
6.000001
 20
0.799979
 30
0.0
 10
6.000001
 20
-0.000000
 30
0.0
 10
4.999986
 20
-0.000000
 30
0.0
 10
4.999986
 20
0.028332
 30
0.0
 10
5.971668
 20
0.028332
 30
0.0
 10
5.971668
 20
0.799979
 30
0.0
 10
6.000001
 20
0.799979
 30
0.0
 10
6.000001
 20
0.799979
 30
0.0
  0
LWPOLYLINE
  5
107
100
AcDbEntity
  8
Layer_1
 62
7
100
AcDbPolyline
 90
8
 70
1
 10
0.028334
 20
0.799979
 30
0.0
 10
0.028334
 20
0.028332
 30
0.0
 10
1.000016
 20
0.028332
 30
0.0
 10
1.000016
 20
-0.000000
 30
0.0
 10
0.000001
 20
-0.000000
 30
0.0
 10
0.000001
 20
0.799979
 30
0.0
 10
0.028334
 20
0.799979
 30
0.0
 10
0.028334
 20
0.799979
 30
0.0
  0
LWPOLYLINE
  5
108
100
AcDbEntity
  8
Layer_1
 62
7
100
AcDbPolyline
 90
116
 70
0
 10
3.000000
 20
4.684409
 30
0.0
 10
2.833517
 20
4.676168
 30
0.0
 10
2.669854
 20
4.651747
 30
0.0
 10
2.510115
 20
4.611604
 30
0.0
 10
2.355405
 20
4.556196
 30
0.0
 10
2.206828
 20
4.485980
 30
0.0
 10
2.065489
 20
4.401414
 30
0.0
 10
1.932492
 20
4.302956
 30
0.0
 10
1.808943
 20
4.191063
 30
0.0
 10
1.697050
 20
4.067514
 30
0.0
 10
1.598592
 20
3.934517
 30
0.0
 10
1.514026
 20
3.793178
 30
0.0
 10
1.443810
 20
3.644601
 30
0.0
 10
1.388402
 20
3.489891
 30
0.0
 10
1.348259
 20
3.330152
 30
0.0
 10
1.323838
 20
3.166489
 30
0.0
 10
1.315597
 20
3.000006
 30
0.0
 10
1.323838
 20
2.833523
 30
0.0
 10
1.348259
 20
2.669859
 30
0.0
 10
1.388402
 20
2.510120
 30
0.0
 10
1.443810
 20
2.355410
 30
0.0
 10
1.514026
 20
2.206833
 30
0.0
 10
1.598592
 20
2.065494
 30
0.0
 10
1.697050
 20
1.932498
 30
0.0
 10
1.808943
 20
1.808948
 30
0.0
 10
1.932492
 20
1.697055
 30
0.0
 10
2.065489
 20
1.598597
 30
0.0
 10
2.206828
 20
1.514031
 30
0.0
 10
2.355405
 20
1.443816
 30
0.0
 10
2.510115
 20
1.388407
 30
0.0
 10
2.669854
 20
1.348264
 30
0.0
 10
2.833517
 20
1.323843
 30
0.0
 10
3.000000
 20
1.315602
 30
0.0
 10
3.203509
 20
1.328249
 30
0.0
 10
3.403281
 20
1.365217
 30
0.0
 10
3.597149
 20
1.425967
 30
0.0
 10
3.782946
 20
1.509961
 30
0.0
 10
3.688082
 20
1.604825
 30
0.0
 10
3.523872
 20
1.535025
 30
0.0
 10
3.353317
 20
1.484611
 30
0.0
 10
3.178124
 20
1.453982
 30
0.0
 10
3.000000
 20
1.443539
 30
0.0
 10
2.846162
 20
1.451154
 30
0.0
 10
2.694929
 20
1.473719
 30
0.0
 10
2.547323
 20
1.510813
 30
0.0
 10
2.404363
 20
1.562012
 30
0.0
 10
2.267071
 20
1.626895
 30
0.0
 10
2.136467
 20
1.705037
 30
0.0
 10
2.013571
 20
1.796017
 30
0.0
 10
1.899406
 20
1.899411
 30
0.0
 10
1.796011
 20
2.013577
 30
0.0
 10
1.705031
 20
2.136472
 30
0.0
 10
1.626889
 20
2.267076
 30
0.0
 10
1.562007
 20
2.404368
 30
0.0
 10
1.510807
 20
2.547328
 30
0.0
 10
1.473713
 20
2.694935
 30
0.0
 10
1.451148
 20
2.846167
 30
0.0
 10
1.443534
 20
3.000006
 30
0.0
 10
1.451573
 20
3.159142
 30
0.0
 10
1.475161
 20
3.313682
 30
0.0
 10
1.513517
 20
3.462841
 30
0.0
 10
1.565858
 20
3.605839
 30
0.0
 10
1.631402
 20
3.741893
 30
0.0
 10
1.709366
 20
3.870220
 30
0.0
 10
1.798968
 20
3.990038
 30
0.0
 10
1.899425
 20
4.100565
 30
0.0
 10
2.009956
 20
4.201018
 30
0.0
 10
2.129777
 20
4.290616
 30
0.0
 10
2.258107
 20
4.368575
 30
0.0
 10
2.394163
 20
4.434114
 30
0.0
 10
2.537162
 20
4.486450
 30
0.0
 10
2.686323
 20
4.524801
 30
0.0
 10
2.840863
 20
4.548384
 30
0.0
 10
3.000000
 20
4.556417
 30
0.0
 10
3.159137
 20
4.548384
 30
0.0
 10
3.313677
 20
4.524801
 30
0.0
 10
3.462838
 20
4.486450
 30
0.0
 10
3.605838
 20
4.434114
 30
0.0
 10
3.741894
 20
4.368575
 30
0.0
 10
3.870223
 20
4.290616
 30
0.0
 10
3.990045
 20
4.201018
 30
0.0
 10
4.100575
 20
4.100565
 30
0.0
 10
4.201033
 20
3.990038
 30
0.0
 10
4.290634
 20
3.870220
 30
0.0
 10
4.368598
 20
3.741893
 30
0.0
 10
4.434142
 20
3.605839
 30
0.0
 10
4.486483
 20
3.462841
 30
0.0
 10
4.524839
 20
3.313682
 30
0.0
 10
4.548428
 20
3.159142
 30
0.0
 10
4.556467
 20
3.000006
 30
0.0
 10
4.545773
 20
2.822045
 30
0.0
 10
4.514932
 20
2.647039
 30
0.0
 10
4.464343
 20
2.476688
 30
0.0
 10
4.394409
 20
2.312695
 30
0.0
 10
4.490211
 20
2.216894
 30
0.0
 10
4.574177
 20
2.402739
 30
0.0
 10
4.634889
 20
2.596651
 30
0.0
 10
4.671811
 20
2.796463
 30
0.0
 10
4.684404
 20
3.000006
 30
0.0
 10
4.676163
 20
3.166489
 30
0.0
 10
4.651742
 20
3.330152
 30
0.0
 10
4.611599
 20
3.489891
 30
0.0
 10
4.556190
 20
3.644601
 30
0.0
 10
4.485975
 20
3.793178
 30
0.0
 10
4.401409
 20
3.934517
 30
0.0
 10
4.302951
 20
4.067514
 30
0.0
 10
4.191058
 20
4.191063
 30
0.0
 10
4.067508
 20
4.302956
 30
0.0
 10
3.934512
 20
4.401414
 30
0.0
 10
3.793173
 20
4.485980
 30
0.0
 10
3.644596
 20
4.556196
 30
0.0
 10
3.489886
 20
4.611604
 30
0.0
 10
3.330147
 20
4.651747
 30
0.0
 10
3.166483
 20
4.676168
 30
0.0
 10
3.000000
 20
4.684409
 30
0.0
 10
3.000000
 20
4.684409
 30
0.0
  0
ENDSEC
  0
SECTION
  2
OBJECTS
  0
DICTIONARY
  5
C
330
0
100
AcDbDictionary
  3
ACAD_GROUP
350
D
  3
ACAD_MLINESTYLE
350
17
  0
DICTIONARY
  5
D
330
C
100
AcDbDictionary
  0
DICTIONARY
  5
1A
330
C
100
AcDbDictionary
  0
DICTIONARY
  5
17
330
C
100
AcDbDictionary
  3
STANDARD
350
18
  0
DICTIONARY
  5
19
330
C
100
AcDbDictionary
  0
ENDSEC
  0
EOF
