  0
SECTION
  2
HEADER
  9
$ACADVER
  1
AC1014
  9
$HANDSEED
  5
FFFF
  9
$MEASUREMENT
 70
     1
  0
ENDSEC
  0
SECTION
  2
TABLES
  0
TABLE
  2
VPORT
  5
8
330
0
100
AcDbSymbolTable
 70
     4
  0
VPORT
  5
2E
330
8
100
AcDbSymbolTableRecord
100
AcDbViewportTableRecord
  2
*ACTIVE
 70
     0
 10
0.0
 20
0.0
 11
1.0
 21
1.0
 12
210.0
 22
148.5
 13
0.0
 23
0.0
 14
10.0
 24
10.0
 15
10.0
 25
10.0
 16
0.0
 26
0.0
 36
1.0
 17
0.0
 27
0.0
 37
0.0
 40
341.0
 41
1.24
 42
50.0
 43
0.0
 44
0.0
 50
0.0
 51
0.0
 71
     0
 72
   100
 73
     1
 74
     3
 75
     0
 76
     0
 77
     0
 78
     0
  0
ENDTAB
  0
TABLE
  2
LTYPE
  5
5
330
0
100
AcDbSymbolTable
 70
     1
  0
LTYPE
  5
14
330
5
100
AcDbSymbolTableRecord
100
AcDbLinetypeTableRecord
  2
BYBLOCK
 70
     0
  3

 72
    65
 73
     0
 40
0.0
  0
LTYPE
  5
15
330
5
100
AcDbSymbolTableRecord
100
AcDbLinetypeTableRecord
  2
BYLAYER
 70
     0
  3

 72
    65
 73
     0
 40
0.0
  0
LTYPE
  5
16
330
5
100
AcDbSymbolTableRecord
100
AcDbLinetypeTableRecord
  2
CONTINUOUS
 70
     0
  3
Solid line
 72
    65
 73
     0
 40
0.0
  0
ENDTAB
  0
TABLE
  2
LAYER
  5
2
100
AcDbSymbolTable
 70
2
  0
LAYER
  5
50
100
AcDbSymbolTableRecord
100
AcDbLayerTableRecord
  2
0
 70
0
  6
CONTINUOUS
  0
LAYER
  5
51
100
AcDbSymbolTableRecord
100
AcDbLayerTableRecord
  2
Layer_1
 70
0
  6
CONTINUOUS
  0
ENDTAB
  0
TABLE
  2
STYLE
  5
3
330
0
100
AcDbSymbolTable
 70
     1
  0
STYLE
  5
11
330
3
100
AcDbSymbolTableRecord
100
AcDbTextStyleTableRecord
  2
STANDARD
 70
     0
 40
0.0
 41
1.0
 50
0.0
 71
     0
 42
2.5
  3
txt
  4

  0
ENDTAB
  0
TABLE
  2
VIEW
  5
6
330
0
100
AcDbSymbolTable
 70
     0
  0
ENDTAB
  0
TABLE
  2
UCS
  5
7
330
0
100
AcDbSymbolTable
 70
     0
  0
ENDTAB
  0
TABLE
  2
APPID
  5
9
330
0
100
AcDbSymbolTable
 70
     2
  0
APPID
  5
12
330
9
100
AcDbSymbolTableRecord
100
AcDbRegAppTableRecord
  2
ACAD
 70
     0
  0
ENDTAB
  0
TABLE
  2
DIMSTYLE
  5
A
330
0
100
AcDbSymbolTable
 70
     1
  0
DIMSTYLE
105
27
330
A
100
AcDbSymbolTableRecord
100
AcDbDimStyleTableRecord
  2
ISO-25
 70
     0
  3

  4

  5

  6

  7

 40
1.0
 41
2.5
 42
0.625
 43
3.75
 44
1.25
 45
0.0
 46
0.0
 47
0.0
 48
0.0
140
2.5
141
2.5
142
0.0
143
0.03937007874016
144
1.0
145
0.0
146
1.0
147
0.625
 71
     0
 72
     0
 73
     0
 74
     0
 75
     0
 76
     0
 77
     1
 78
     8
170
     0
171
     3
172
     1
173
     0
174
     0
175
     0
176
     0
177
     0
178
     0
270
     2
271
     2
272
     2
273
     2
274
     3
340
11
275
     0
280
     0
281
     0
282
     0
283
     0
284
     8
285
     0
286
     0
287
     3
288
     0
  0
ENDTAB
  0
TABLE
  2
BLOCK_RECORD
  5
1
330
0
100
AcDbSymbolTable
 70
     1
  0
BLOCK_RECORD
  5
1F
330
1
100
AcDbSymbolTableRecord
100
AcDbBlockTableRecord
  2
*MODEL_SPACE
  0
BLOCK_RECORD
  5
1B
330
1
100
AcDbSymbolTableRecord
100
AcDbBlockTableRecord
  2
*PAPER_SPACE
  0
ENDTAB
  0
ENDSEC
  0
SECTION
  2
BLOCKS
  0
BLOCK
  5
20
330
1F
100
AcDbEntity
  8
0
100
AcDbBlockBegin
  2
*MODEL_SPACE
 70
     0
 10
0.0
 20
0.0
 30
0.0
  3
*MODEL_SPACE
  1

  0
ENDBLK
  5
21
330
1F
100
AcDbEntity
  8
0
100
AcDbBlockEnd
  0
BLOCK
  5
1C
330
1B
100
AcDbEntity
 67
     1
  8
0
100
AcDbBlockBegin
  2
*PAPER_SPACE
  1

  0
ENDBLK
  5
1D
330
1B
100
AcDbEntity
 67
     1
  8
0
100
AcDbBlockEnd
  0
ENDSEC
  0
SECTION
  2
ENTITIES
  0
LWPOLYLINE
  5
100
100
AcDbEntity
  8
Layer_1
 62
7
100
AcDbPolyline
 90
94
 70
0
 10
3.000003
 20
4.832103
 30
0.0
 10
2.812831
 20
4.822635
 30
0.0
 10
2.631033
 20
4.794845
 30
0.0
 10
2.455532
 20
4.749660
 30
0.0
 10
2.287254
 20
4.688004
 30
0.0
 10
2.127124
 20
4.610802
 30
0.0
 10
1.976066
 20
4.518978
 30
0.0
 10
1.835005
 20
4.413458
 30
0.0
 10
1.704866
 20
4.295166
 30
0.0
 10
1.586574
 20
4.165027
 30
0.0
 10
1.481054
 20
4.023966
 30
0.0
 10
1.389230
 20
3.872908
 30
0.0
 10
1.312028
 20
3.712778
 30
0.0
 10
1.250372
 20
3.544500
 30
0.0
 10
1.205186
 20
3.368999
 30
0.0
 10
1.177397
 20
3.187201
 30
0.0
 10
1.167929
 20
3.000030
 30
0.0
 10
1.177397
 20
2.812858
 30
0.0
 10
1.205186
 20
2.631060
 30
0.0
 10
1.250372
 20
2.455559
 30
0.0
 10
1.312028
 20
2.287281
 30
0.0
 10
1.389230
 20
2.127151
 30
0.0
 10
1.481054
 20
1.976093
 30
0.0
 10
1.586574
 20
1.835032
 30
0.0
 10
1.704866
 20
1.704893
 30
0.0
 10
1.835005
 20
1.586602
 30
0.0
 10
1.976066
 20
1.481081
 30
0.0
 10
2.127124
 20
1.389258
 30
0.0
 10
2.287254
 20
1.312055
 30
0.0
 10
2.455532
 20
1.250399
 30
0.0
 10
2.631033
 20
1.205214
 30
0.0
 10
2.812831
 20
1.177424
 30
0.0
 10
3.000003
 20
1.167956
 30
0.0
 10
3.238960
 20
1.183498
 30
0.0
 10
3.468620
 20
1.228782
 30
0.0
 10
3.687076
 20
1.301792
 30
0.0
 10
3.892420
 20
1.400513
 30
0.0
 10
3.945006
 20
1.431159
 30
0.0
 10
3.990812
 20
1.459878
 30
0.0
 10
3.996490
 20
1.463462
 30
0.0
 10
3.997647
 20
1.464224
 30
0.0
 10
4.002387
 20
1.467255
 30
0.0
 10
4.048965
 20
1.498895
 30
0.0
 10
4.059769
 20
1.506558
 30
0.0
 10
4.061092
 20
1.507489
 30
0.0
 10
4.062580
 20
1.508590
 30
0.0
 10
4.126686
 20
1.556655
 30
0.0
 10
4.132419
 20
1.561120
 30
0.0
 10
4.195753
 20
1.613266
 30
0.0
 10
4.207109
 20
1.623076
 30
0.0
 10
4.248615
 20
1.660558
 30
0.0
 10
4.249442
 20
1.661263
 30
0.0
 10
4.252694
 20
1.664407
 30
0.0
 10
4.335597
 20
1.747310
 30
0.0
 10
4.338739
 20
1.750561
 30
0.0
 10
4.339456
 20
1.751380
 30
0.0
 10
4.376938
 20
1.792886
 30
0.0
 10
4.386750
 20
1.804240
 30
0.0
 10
4.438895
 20
1.867576
 30
0.0
 10
4.443360
 20
1.873308
 30
0.0
 10
4.491425
 20
1.937415
 30
0.0
 10
4.492529
 20
1.938911
 30
0.0
 10
4.493466
 20
1.940237
 30
0.0
 10
4.501128
 20
1.951041
 30
0.0
 10
4.517664
 20
1.975405
 30
0.0
 10
4.532657
 20
1.997452
 30
0.0
 10
4.532657
 20
1.997452
 30
0.0
 10
4.536020
 20
2.002634
 30
0.0
 10
4.536957
 20
2.004073
 30
0.0
 10
4.542965
 20
2.013609
 30
0.0
 10
4.568596
 20
2.054452
 30
0.0
 10
4.569093
 20
2.055214
 30
0.0
 10
4.599520
 20
2.107524
 30
0.0
 10
4.698239
 20
2.312868
 30
0.0
 10
4.771249
 20
2.531325
 30
0.0
 10
4.816535
 20
2.760987
 30
0.0
 10
4.832078
 20
2.999942
 30
0.0
 10
4.822609
 20
3.187113
 30
0.0
 10
4.794820
 20
3.368912
 30
0.0
 10
4.749635
 20
3.544412
 30
0.0
 10
4.687978
 20
3.712690
 30
0.0
 10
4.610776
 20
3.872821
 30
0.0
 10
4.518952
 20
4.023879
 30
0.0
 10
4.413432
 20
4.164939
 30
0.0
 10
4.295140
 20
4.295078
 30
0.0
 10
4.165001
 20
4.413370
 30
0.0
 10
4.023940
 20
4.518890
 30
0.0
 10
3.872882
 20
4.610714
 30
0.0
 10
3.712752
 20
4.687917
 30
0.0
 10
3.544474
 20
4.749573
 30
0.0
 10
3.368973
 20
4.794758
 30
0.0
 10
3.187175
 20
4.822547
 30
0.0
 10
3.000004
 20
4.832016
 30
0.0
 10
3.000003
 20
4.832103
 30
0.0
  0
LWPOLYLINE
  5
101
100
AcDbEntity
  8
Layer_1
 62
7
100
AcDbPolyline
 90
80
 70
0
 10
3.000003
 20
4.700032
 30
0.0
 10
3.169716
 20
4.691532
 30
0.0
 10
3.337732
 20
4.666131
 30
0.0
 10
3.502382
 20
4.624085
 30
0.0
 10
3.662012
 20
4.565810
 30
0.0
 10
3.815022
 20
4.491904
 30
0.0
 10
3.959889
 20
4.403092
 30
0.0
 10
4.095172
 20
4.300255
 30
0.0
 10
4.219511
 20
4.184426
 30
0.0
 10
4.331684
 20
4.056763
 30
0.0
 10
4.430517
 20
3.918575
 30
0.0
 10
4.515073
 20
3.771123
 30
0.0
 10
4.584471
 20
3.616067
 30
0.0
 10
4.638049
 20
3.454836
 30
0.0
 10
4.675256
 20
3.289087
 30
0.0
 10
4.695761
 20
3.120471
 30
0.0
 10
4.700006
 20
3.000196
 30
0.0
 10
4.687171
 20
2.793993
 30
0.0
 10
4.649600
 20
2.591602
 30
0.0
 10
4.587842
 20
2.395236
 30
0.0
 10
4.502450
 20
2.207106
 30
0.0
 10
4.501733
 20
2.205554
 30
0.0
 10
4.437902
 20
2.095228
 30
0.0
 10
4.366300
 20
1.990424
 30
0.0
 10
4.287304
 20
1.891518
 30
0.0
 10
4.201288
 20
1.798884
 30
0.0
 10
4.108628
 20
1.712897
 30
0.0
 10
4.009697
 20
1.633931
 30
0.0
 10
3.904871
 20
1.562363
 30
0.0
 10
3.794524
 20
1.498565
 30
0.0
 10
3.651263
 20
1.431484
 30
0.0
 10
3.638310
 20
1.425695
 30
0.0
 10
3.501884
 20
1.377740
 30
0.0
 10
3.475812
 20
1.369087
 30
0.0
 10
3.350851
 20
1.338768
 30
0.0
 10
3.307581
 20
1.329068
 30
0.0
 10
3.198330
 20
1.313910
 30
0.0
 10
3.134995
 20
1.306191
 30
0.0
 10
3.000002
 20
1.300183
 30
0.0
 10
2.830283
 20
1.308672
 30
0.0
 10
2.662267
 20
1.334056
 30
0.0
 10
2.497625
 20
1.376086
 30
0.0
 10
2.337993
 20
1.434354
 30
0.0
 10
2.184976
 20
1.508268
 30
0.0
 10
2.040117
 20
1.597088
 30
0.0
 10
1.904848
 20
1.699925
 30
0.0
 10
1.780494
 20
1.815791
 30
0.0
 10
1.668321
 20
1.943398
 30
0.0
 10
1.569489
 20
2.081588
 30
0.0
 10
1.484932
 20
2.229038
 30
0.0
 10
1.415534
 20
2.384097
 30
0.0
 10
1.365267
 20
2.533579
 30
0.0
 10
1.329130
 20
2.686745
 30
0.0
 10
1.307312
 20
2.842596
 30
0.0
 10
1.299999
 20
3.000134
 30
0.0
 10
1.312567
 20
3.198382
 30
0.0
 10
1.348176
 20
3.393811
 30
0.0
 10
1.350656
 20
3.404615
 30
0.0
 10
1.367081
 20
3.519868
 30
0.0
 10
1.393101
 20
3.633685
 30
0.0
 10
1.428726
 20
3.745415
 30
0.0
 10
1.473967
 20
3.854407
 30
0.0
 10
1.528832
 20
3.960009
 30
0.0
 10
1.593332
 20
4.061569
 30
0.0
 10
1.667478
 20
4.158436
 30
0.0
 10
1.751279
 20
4.249958
 30
0.0
 10
1.843492
 20
4.334337
 30
0.0
 10
1.941123
 20
4.408917
 30
0.0
 10
2.043507
 20
4.473711
 30
0.0
 10
2.149978
 20
4.528728
 30
0.0
 10
2.259869
 20
4.573980
 30
0.0
 10
2.372514
 20
4.609476
 30
0.0
 10
2.487247
 20
4.635227
 30
0.0
 10
2.603403
 20
4.651244
 30
0.0
 10
2.603516
 20
4.651244
 30
0.0
 10
2.758408
 20
4.681120
 30
0.0
 10
2.798316
 20
4.685972
 30
0.0
 10
2.924930
 20
4.697435
 30
0.0
 10
3.000005
 20
4.700145
 30
0.0
 10
3.000003
 20
4.700032
 30
0.0
  0
LWPOLYLINE
  5
102
100
AcDbEntity
  8
Layer_1
 62
7
100
AcDbPolyline
 90
8
 70
1
 10
5.999999
 20
5.999999
 30
0.0
 10
5.999999
 20
4.999984
 30
0.0
 10
5.971667
 20
4.999984
 30
0.0
 10
5.971667
 20
5.971613
 30
0.0
 10
4.999984
 20
5.971613
 30
0.0
 10
4.999984
 20
5.999999
 30
0.0
 10
5.999999
 20
5.999999
 30
0.0
 10
5.999999
 20
5.999999
 30
0.0
  0
LWPOLYLINE
  5
103
100
AcDbEntity
  8
Layer_1
 62
7
100
AcDbPolyline
 90
9
 70
1
 10
1.000015
 20
5.999999
 30
0.0
 10
1.000015
 20
5.971613
 30
0.0
 10
0.028332
 20
5.971613
 30
0.0
 10
0.028332
 20
4.999984
 30
0.0
 10
-0.000000
 20
4.999984
 30
0.0
 10
-0.000000
 20
5.985778
 30
0.0
 10
-0.000000
 20
5.999999
 30
0.0
 10
1.000015
 20
5.999999
 30
0.0
 10
1.000015
 20
5.999999
 30
0.0
  0
LWPOLYLINE
  5
104
100
AcDbEntity
  8
Layer_1
 62
7
100
AcDbPolyline
 90
8
 70
1
 10
5.999999
 20
0.799979
 30
0.0
 10
5.999999
 20
0.000000
 30
0.0
 10
4.999984
 20
0.000000
 30
0.0
 10
4.999984
 20
0.028332
 30
0.0
 10
5.971667
 20
0.028332
 30
0.0
 10
5.971667
 20
0.799979
 30
0.0
 10
5.999999
 20
0.799979
 30
0.0
 10
5.999999
 20
0.799979
 30
0.0
  0
LWPOLYLINE
  5
105
100
AcDbEntity
  8
Layer_1
 62
7
100
AcDbPolyline
 90
8
 70
1
 10
0.028332
 20
0.799979
 30
0.0
 10
0.028332
 20
0.028332
 30
0.0
 10
1.000015
 20
0.028332
 30
0.0
 10
1.000015
 20
0.000000
 30
0.0
 10
-0.000000
 20
0.000000
 30
0.0
 10
-0.000000
 20
0.799979
 30
0.0
 10
0.028332
 20
0.799979
 30
0.0
 10
0.028332
 20
0.799979
 30
0.0
  0
LWPOLYLINE
  5
106
100
AcDbEntity
  8
Layer_1
 62
7
100
AcDbPolyline
 90
8
 70
1
 10
6.000001
 20
6.000000
 30
0.0
 10
6.000001
 20
4.999985
 30
0.0
 10
5.971668
 20
4.999985
 30
0.0
 10
5.971668
 20
5.971614
 30
0.0
 10
4.999986
 20
5.971614
 30
0.0
 10
4.999986
 20
6.000000
 30
0.0
 10
6.000001
 20
6.000000
 30
0.0
 10
6.000001
 20
6.000000
 30
0.0
  0
LWPOLYLINE
  5
107
100
AcDbEntity
  8
Layer_1
 62
7
100
AcDbPolyline
 90
9
 70
1
 10
1.000016
 20
6.000000
 30
0.0
 10
1.000016
 20
5.971614
 30
0.0
 10
0.028334
 20
5.971614
 30
0.0
 10
0.028334
 20
4.999985
 30
0.0
 10
0.000001
 20
4.999985
 30
0.0
 10
0.000001
 20
5.985779
 30
0.0
 10
0.000001
 20
6.000000
 30
0.0
 10
1.000016
 20
6.000000
 30
0.0
 10
1.000016
 20
6.000000
 30
0.0
  0
LWPOLYLINE
  5
108
100
AcDbEntity
  8
Layer_1
 62
7
100
AcDbPolyline
 90
8
 70
1
 10
6.000001
 20
0.799980
 30
0.0
 10
6.000001
 20
0.000001
 30
0.0
 10
4.999986
 20
0.000001
 30
0.0
 10
4.999986
 20
0.028333
 30
0.0
 10
5.971668
 20
0.028333
 30
0.0
 10
5.971668
 20
0.799980
 30
0.0
 10
6.000001
 20
0.799980
 30
0.0
 10
6.000001
 20
0.799980
 30
0.0
  0
LWPOLYLINE
  5
109
100
AcDbEntity
  8
Layer_1
 62
7
100
AcDbPolyline
 90
8
 70
1
 10
0.028334
 20
0.799980
 30
0.0
 10
0.028334
 20
0.028333
 30
0.0
 10
1.000016
 20
0.028333
 30
0.0
 10
1.000016
 20
0.000001
 30
0.0
 10
0.000001
 20
0.000001
 30
0.0
 10
0.000001
 20
0.799980
 30
0.0
 10
0.028334
 20
0.799980
 30
0.0
 10
0.028334
 20
0.799980
 30
0.0
  0
LWPOLYLINE
  5
10a
100
AcDbEntity
  8
Layer_1
 62
7
100
AcDbPolyline
 90
17
 70
1
 10
1.000017
 20
6.000002
 30
0.0
 10
1.000017
 20
5.971616
 30
0.0
 10
0.028335
 20
5.971616
 30
0.0
 10
0.028335
 20
4.999987
 30
0.0
 10
0.000002
 20
4.999987
 30
0.0
 10
0.000002
 20
5.985780
 30
0.0
 10
0.000002
 20
6.000002
 30
0.0
 10
1.000017
 20
6.000002
 30
0.0
 10
1.000017
 20
6.000002
 30
0.0
 10
1.000017
 20
5.971616
 30
0.0
 10
0.028335
 20
5.971616
 30
0.0
 10
0.028335
 20
4.999987
 30
0.0
 10
0.000002
 20
4.999987
 30
0.0
 10
0.000002
 20
5.985780
 30
0.0
 10
0.000002
 20
6.000002
 30
0.0
 10
1.000017
 20
6.000002
 30
0.0
 10
1.000017
 20
6.000002
 30
0.0
  0
ENDSEC
  0
SECTION
  2
OBJECTS
  0
DICTIONARY
  5
C
330
0
100
AcDbDictionary
  3
ACAD_GROUP
350
D
  3
ACAD_MLINESTYLE
350
17
  0
DICTIONARY
  5
D
330
C
100
AcDbDictionary
  0
DICTIONARY
  5
1A
330
C
100
AcDbDictionary
  0
DICTIONARY
  5
17
330
C
100
AcDbDictionary
  3
STANDARD
350
18
  0
DICTIONARY
  5
19
330
C
100
AcDbDictionary
  0
ENDSEC
  0
EOF
