  0
SECTION
  2
HEADER
  9
$ACADVER
  1
AC1014
  9
$HANDSEED
  5
FFFF
  9
$MEASUREMENT
 70
     1
  0
ENDSEC
  0
SECTION
  2
TABLES
  0
TABLE
  2
VPORT
  5
8
330
0
100
AcDbSymbolTable
 70
     4
  0
VPORT
  5
2E
330
8
100
AcDbSymbolTableRecord
100
AcDbViewportTableRecord
  2
*ACTIVE
 70
     0
 10
0.0
 20
0.0
 11
1.0
 21
1.0
 12
210.0
 22
148.5
 13
0.0
 23
0.0
 14
10.0
 24
10.0
 15
10.0
 25
10.0
 16
0.0
 26
0.0
 36
1.0
 17
0.0
 27
0.0
 37
0.0
 40
341.0
 41
1.24
 42
50.0
 43
0.0
 44
0.0
 50
0.0
 51
0.0
 71
     0
 72
   100
 73
     1
 74
     3
 75
     0
 76
     0
 77
     0
 78
     0
  0
ENDTAB
  0
TABLE
  2
LTYPE
  5
5
330
0
100
AcDbSymbolTable
 70
     1
  0
LTYPE
  5
14
330
5
100
AcDbSymbolTableRecord
100
AcDbLinetypeTableRecord
  2
BYBLOCK
 70
     0
  3

 72
    65
 73
     0
 40
0.0
  0
LTYPE
  5
15
330
5
100
AcDbSymbolTableRecord
100
AcDbLinetypeTableRecord
  2
BYLAYER
 70
     0
  3

 72
    65
 73
     0
 40
0.0
  0
LTYPE
  5
16
330
5
100
AcDbSymbolTableRecord
100
AcDbLinetypeTableRecord
  2
CONTINUOUS
 70
     0
  3
Solid line
 72
    65
 73
     0
 40
0.0
  0
ENDTAB
  0
TABLE
  2
LAYER
  5
2
100
AcDbSymbolTable
 70
2
  0
LAYER
  5
50
100
AcDbSymbolTableRecord
100
AcDbLayerTableRecord
  2
0
 70
0
  6
CONTINUOUS
  0
LAYER
  5
51
100
AcDbSymbolTableRecord
100
AcDbLayerTableRecord
  2
Layer_1
 70
0
  6
CONTINUOUS
  0
ENDTAB
  0
TABLE
  2
STYLE
  5
3
330
0
100
AcDbSymbolTable
 70
     1
  0
STYLE
  5
11
330
3
100
AcDbSymbolTableRecord
100
AcDbTextStyleTableRecord
  2
STANDARD
 70
     0
 40
0.0
 41
1.0
 50
0.0
 71
     0
 42
2.5
  3
txt
  4

  0
ENDTAB
  0
TABLE
  2
VIEW
  5
6
330
0
100
AcDbSymbolTable
 70
     0
  0
ENDTAB
  0
TABLE
  2
UCS
  5
7
330
0
100
AcDbSymbolTable
 70
     0
  0
ENDTAB
  0
TABLE
  2
APPID
  5
9
330
0
100
AcDbSymbolTable
 70
     2
  0
APPID
  5
12
330
9
100
AcDbSymbolTableRecord
100
AcDbRegAppTableRecord
  2
ACAD
 70
     0
  0
ENDTAB
  0
TABLE
  2
DIMSTYLE
  5
A
330
0
100
AcDbSymbolTable
 70
     1
  0
DIMSTYLE
105
27
330
A
100
AcDbSymbolTableRecord
100
AcDbDimStyleTableRecord
  2
ISO-25
 70
     0
  3

  4

  5

  6

  7

 40
1.0
 41
2.5
 42
0.625
 43
3.75
 44
1.25
 45
0.0
 46
0.0
 47
0.0
 48
0.0
140
2.5
141
2.5
142
0.0
143
0.03937007874016
144
1.0
145
0.0
146
1.0
147
0.625
 71
     0
 72
     0
 73
     0
 74
     0
 75
     0
 76
     0
 77
     1
 78
     8
170
     0
171
     3
172
     1
173
     0
174
     0
175
     0
176
     0
177
     0
178
     0
270
     2
271
     2
272
     2
273
     2
274
     3
340
11
275
     0
280
     0
281
     0
282
     0
283
     0
284
     8
285
     0
286
     0
287
     3
288
     0
  0
ENDTAB
  0
TABLE
  2
BLOCK_RECORD
  5
1
330
0
100
AcDbSymbolTable
 70
     1
  0
BLOCK_RECORD
  5
1F
330
1
100
AcDbSymbolTableRecord
100
AcDbBlockTableRecord
  2
*MODEL_SPACE
  0
BLOCK_RECORD
  5
1B
330
1
100
AcDbSymbolTableRecord
100
AcDbBlockTableRecord
  2
*PAPER_SPACE
  0
ENDTAB
  0
ENDSEC
  0
SECTION
  2
BLOCKS
  0
BLOCK
  5
20
330
1F
100
AcDbEntity
  8
0
100
AcDbBlockBegin
  2
*MODEL_SPACE
 70
     0
 10
0.0
 20
0.0
 30
0.0
  3
*MODEL_SPACE
  1

  0
ENDBLK
  5
21
330
1F
100
AcDbEntity
  8
0
100
AcDbBlockEnd
  0
BLOCK
  5
1C
330
1B
100
AcDbEntity
 67
     1
  8
0
100
AcDbBlockBegin
  2
*PAPER_SPACE
  1

  0
ENDBLK
  5
1D
330
1B
100
AcDbEntity
 67
     1
  8
0
100
AcDbBlockEnd
  0
ENDSEC
  0
SECTION
  2
ENTITIES
  0
LWPOLYLINE
  5
100
100
AcDbEntity
  8
Layer_1
 62
7
100
AcDbPolyline
 90
8
 70
1
 10
5.999999
 20
5.999999
 30
0.0
 10
5.999999
 20
4.999984
 30
0.0
 10
5.971667
 20
4.999984
 30
0.0
 10
5.971667
 20
5.971613
 30
0.0
 10
4.999984
 20
5.971613
 30
0.0
 10
4.999984
 20
5.999999
 30
0.0
 10
5.999999
 20
5.999999
 30
0.0
 10
5.999999
 20
5.999999
 30
0.0
  0
LWPOLYLINE
  5
101
100
AcDbEntity
  8
Layer_1
 62
7
100
AcDbPolyline
 90
9
 70
1
 10
1.000015
 20
5.999999
 30
0.0
 10
1.000015
 20
5.971613
 30
0.0
 10
0.028332
 20
5.971613
 30
0.0
 10
0.028332
 20
4.999984
 30
0.0
 10
0.000000
 20
4.999984
 30
0.0
 10
0.000000
 20
5.985778
 30
0.0
 10
0.000000
 20
5.999999
 30
0.0
 10
1.000015
 20
5.999999
 30
0.0
 10
1.000015
 20
5.999999
 30
0.0
  0
LWPOLYLINE
  5
102
100
AcDbEntity
  8
Layer_1
 62
7
100
AcDbPolyline
 90
8
 70
1
 10
5.999999
 20
0.799979
 30
0.0
 10
5.999999
 20
-0.000000
 30
0.0
 10
4.999984
 20
-0.000000
 30
0.0
 10
4.999984
 20
0.028332
 30
0.0
 10
5.971667
 20
0.028332
 30
0.0
 10
5.971667
 20
0.799979
 30
0.0
 10
5.999999
 20
0.799979
 30
0.0
 10
5.999999
 20
0.799979
 30
0.0
  0
LWPOLYLINE
  5
103
100
AcDbEntity
  8
Layer_1
 62
7
100
AcDbPolyline
 90
8
 70
1
 10
0.028332
 20
0.799979
 30
0.0
 10
0.028332
 20
0.028332
 30
0.0
 10
1.000015
 20
0.028332
 30
0.0
 10
1.000015
 20
-0.000000
 30
0.0
 10
0.000000
 20
-0.000000
 30
0.0
 10
0.000000
 20
0.799979
 30
0.0
 10
0.028332
 20
0.799979
 30
0.0
 10
0.028332
 20
0.799979
 30
0.0
  0
LWPOLYLINE
  5
104
100
AcDbEntity
  8
Layer_1
 62
7
100
AcDbPolyline
 90
397
 70
0
 10
3.581838
 20
2.726416
 30
0.0
 10
3.591318
 20
2.718802
 30
0.0
 10
3.601097
 20
2.711860
 30
0.0
 10
3.613451
 20
2.710330
 30
0.0
 10
3.626104
 20
2.709471
 30
0.0
 10
3.639018
 20
2.709247
 30
0.0
 10
3.652119
 20
2.709583
 30
0.0
 10
3.665443
 20
2.710516
 30
0.0
 10
3.678880
 20
2.711935
 30
0.0
 10
3.692540
 20
2.713876
 30
0.0
 10
3.706312
 20
2.716376
 30
0.0
 10
3.720234
 20
2.719399
 30
0.0
 10
3.730722
 20
2.721975
 30
0.0
 10
3.765843
 20
2.842866
 30
0.0
 10
3.758341
 20
2.850666
 30
0.0
 10
3.748227
 20
2.860632
 30
0.0
 10
3.737925
 20
2.870112
 30
0.0
 10
3.727475
 20
2.879070
 30
0.0
 10
3.716838
 20
2.887542
 30
0.0
 10
3.706126
 20
2.895417
 30
0.0
 10
3.695227
 20
2.902733
 30
0.0
 10
3.684179
 20
2.909451
 30
0.0
 10
3.673057
 20
2.915497
 30
0.0
 10
3.661823
 20
2.920835
 30
0.0
 10
3.649842
 20
2.920200
 30
0.0
 10
3.637749
 20
2.918856
 30
0.0
 10
3.631777
 20
2.918633
 30
0.0
 10
3.625843
 20
2.918670
 30
0.0
 10
3.619946
 20
2.919118
 30
0.0
 10
3.614049
 20
2.920013
 30
0.0
 10
3.611212
 20
2.920685
 30
0.0
 10
3.608301
 20
2.921581
 30
0.0
 10
3.605501
 20
2.922738
 30
0.0
 10
3.602739
 20
2.924380
 30
0.0
 10
3.600276
 20
2.928561
 30
0.0
 10
3.585571
 20
3.149815
 30
0.0
 10
3.587437
 20
3.154293
 30
0.0
 10
3.589975
 20
3.156309
 30
0.0
 10
3.592625
 20
3.157839
 30
0.0
 10
3.595349
 20
3.159071
 30
0.0
 10
3.598111
 20
3.160116
 30
0.0
 10
3.603822
 20
3.161795
 30
0.0
 10
3.609607
 20
3.163027
 30
0.0
 10
3.615504
 20
3.163848
 30
0.0
 10
3.621439
 20
3.164408
 30
0.0
 10
3.633606
 20
3.164632
 30
0.0
 10
3.645550
 20
3.165602
 30
0.0
 10
3.656000
 20
3.172395
 30
0.0
 10
3.666264
 20
3.179897
 30
0.0
 10
3.676304
 20
3.187997
 30
0.0
 10
3.686120
 20
3.196693
 30
0.0
 10
3.695712
 20
3.205912
 30
0.0
 10
3.705118
 20
3.215691
 30
0.0
 10
3.714300
 20
3.225992
 30
0.0
 10
3.723257
 20
3.236741
 30
0.0
 10
3.731991
 20
3.247938
 30
0.0
 10
3.738336
 20
3.256672
 30
0.0
 10
3.687539
 20
3.371890
 30
0.0
 10
3.676789
 20
3.373009
 30
0.0
 10
3.662644
 20
3.374166
 30
0.0
 10
3.648647
 20
3.374801
 30
0.0
 10
3.634875
 20
3.374988
 30
0.0
 10
3.621327
 20
3.374577
 30
0.0
 10
3.608002
 20
3.373719
 30
0.0
 10
3.594976
 20
3.372338
 30
0.0
 10
3.582212
 20
3.370397
 30
0.0
 10
3.569783
 20
3.367896
 30
0.0
 10
3.557727
 20
3.364724
 30
0.0
 10
3.548956
 20
3.356550
 30
0.0
 10
3.540596
 20
3.347741
 30
0.0
 10
3.536192
 20
3.343710
 30
0.0
 10
3.531563
 20
3.339903
 30
0.0
 10
3.526786
 20
3.336470
 30
0.0
 10
3.521710
 20
3.333409
 30
0.0
 10
3.519060
 20
3.332028
 30
0.0
 10
3.516298
 20
3.330908
 30
0.0
 10
3.513350
 20
3.329975
 30
0.0
 10
3.510177
 20
3.329490
 30
0.0
 10
3.505624
 20
3.331058
 30
0.0
 10
3.352149
 20
3.491101
 30
0.0
 10
3.350731
 20
3.495729
 30
0.0
 10
3.351365
 20
3.498902
 30
0.0
 10
3.352410
 20
3.501813
 30
0.0
 10
3.353679
 20
3.504500
 30
0.0
 10
3.355135
 20
3.507076
 30
0.0
 10
3.358419
 20
3.512002
 30
0.0
 10
3.362040
 20
3.516668
 30
0.0
 10
3.366033
 20
3.521109
 30
0.0
 10
3.370288
 20
3.525364
 30
0.0
 10
3.379395
 20
3.533351
 30
0.0
 10
3.387980
 20
3.541787
 30
0.0
 10
3.391600
 20
3.553693
 30
0.0
 10
3.394661
 20
3.566010
 30
0.0
 10
3.397087
 20
3.578662
 30
0.0
 10
3.399028
 20
3.591651
 30
0.0
 10
3.400483
 20
3.604901
 30
0.0
 10
3.401379
 20
3.618412
 30
0.0
 10
3.401827
 20
3.632222
 30
0.0
 10
3.401752
 20
3.646181
 30
0.0
 10
3.401230
 20
3.660363
 30
0.0
 10
3.400483
 20
3.671187
 30
0.0
 10
3.287505
 20
3.726762
 30
0.0
 10
3.278584
 20
3.720753
 30
0.0
 10
3.266977
 20
3.712504
 30
0.0
 10
3.255854
 20
3.703995
 30
0.0
 10
3.245217
 20
3.695298
 30
0.0
 10
3.235028
 20
3.686303
 30
0.0
 10
3.225436
 20
3.677084
 30
0.0
 10
3.216329
 20
3.667604
 30
0.0
 10
3.207782
 20
3.657937
 30
0.0
 10
3.199906
 20
3.648047
 30
0.0
 10
3.192666
 20
3.637895
 30
0.0
 10
3.191247
 20
3.625951
 30
0.0
 10
3.190463
 20
3.613821
 30
0.0
 10
3.189680
 20
3.607887
 30
0.0
 10
3.188597
 20
3.602027
 30
0.0
 10
3.187142
 20
3.596316
 30
0.0
 10
3.185201
 20
3.590718
 30
0.0
 10
3.184044
 20
3.587993
 30
0.0
 10
3.182700
 20
3.585306
 30
0.0
 10
3.181021
 20
3.582731
 30
0.0
 10
3.178931
 20
3.580267
 30
0.0
 10
3.174414
 20
3.578588
 30
0.0
 10
2.953944
 20
3.602512
 30
0.0
 10
2.949876
 20
3.605162
 30
0.0
 10
2.948308
 20
3.607999
 30
0.0
 10
2.947301
 20
3.610872
 30
0.0
 10
2.946554
 20
3.613784
 30
0.0
 10
2.945957
 20
3.616695
 30
0.0
 10
2.945322
 20
3.622555
 30
0.0
 10
2.945136
 20
3.628489
 30
0.0
 10
2.945322
 20
3.634424
 30
0.0
 10
2.945845
 20
3.640395
 30
0.0
 10
2.947674
 20
3.652451
 30
0.0
 10
2.948831
 20
3.664357
 30
0.0
 10
2.943941
 20
3.675815
 30
0.0
 10
2.938380
 20
3.687199
 30
0.0
 10
2.932110
 20
3.698471
 30
0.0
 10
2.925280
 20
3.709705
 30
0.0
 10
2.917815
 20
3.720753
 30
0.0
 10
2.909828
 20
3.731726
 30
0.0
 10
2.901318
 20
3.742550
 30
0.0
 10
2.892286
 20
3.753224
 30
0.0
 10
2.882731
 20
3.763750
 30
0.0
 10
2.875229
 20
3.771550
 30
0.0
 10
2.752994
 20
3.741505
 30
0.0
 10
2.749971
 20
3.731166
 30
0.0
 10
2.746425
 20
3.717394
 30
0.0
 10
2.743365
 20
3.703733
 30
0.0
 10
2.740789
 20
3.690185
 30
0.0
 10
2.738811
 20
3.676786
 30
0.0
 10
2.737356
 20
3.663536
 30
0.0
 10
2.736422
 20
3.650435
 30
0.0
 10
2.736161
 20
3.637559
 30
0.0
 10
2.736460
 20
3.624869
 30
0.0
 10
2.737468
 20
3.612440
 30
0.0
 10
2.743999
 20
3.602400
 30
0.0
 10
2.751203
 20
3.592584
 30
0.0
 10
2.754450
 20
3.587545
 30
0.0
 10
2.757324
 20
3.582357
 30
0.0
 10
2.759936
 20
3.577057
 30
0.0
 10
2.762101
 20
3.571533
 30
0.0
 10
2.762922
 20
3.568697
 30
0.0
 10
2.763594
 20
3.565786
 30
0.0
 10
2.764005
 20
3.562762
 30
0.0
 10
2.763967
 20
3.559515
 30
0.0
 10
2.761579
 20
3.555260
 30
0.0
 10
2.577312
 20
3.431906
 30
0.0
 10
2.572497
 20
3.431346
 30
0.0
 10
2.569474
 20
3.432503
 30
0.0
 10
2.566824
 20
3.434033
 30
0.0
 10
2.564398
 20
3.435788
 30
0.0
 10
2.562084
 20
3.437654
 30
0.0
 10
2.557792
 20
3.441722
 30
0.0
 10
2.553873
 20
3.446164
 30
0.0
 10
2.550178
 20
3.450829
 30
0.0
 10
2.546744
 20
3.455756
 30
0.0
 10
2.540436
 20
3.466094
 30
0.0
 10
2.533644
 20
3.476022
 30
0.0
 10
2.522559
 20
3.481658
 30
0.0
 10
2.510951
 20
3.486772
 30
0.0
 10
2.498895
 20
3.491437
 30
0.0
 10
2.486467
 20
3.495580
 30
0.0
 10
2.473665
 20
3.499275
 30
0.0
 10
2.460489
 20
3.502522
 30
0.0
 10
2.446978
 20
3.505359
 30
0.0
 10
2.433206
 20
3.507710
 30
0.0
 10
2.419098
 20
3.509651
 30
0.0
 10
2.408386
 20
3.510808
 30
0.0
 10
2.334037
 20
3.409213
 30
0.0
 10
2.338404
 20
3.399323
 30
0.0
 10
2.344488
 20
3.386521
 30
0.0
 10
2.350907
 20
3.374055
 30
0.0
 10
2.357663
 20
3.362074
 30
0.0
 10
2.364755
 20
3.350503
 30
0.0
 10
2.372182
 20
3.339418
 30
0.0
 10
2.379871
 20
3.328818
 30
0.0
 10
2.387932
 20
3.318741
 30
0.0
 10
2.396330
 20
3.309224
 30
0.0
 10
2.405101
 20
3.300378
 30
0.0
 10
2.416597
 20
3.296869
 30
0.0
 10
2.428354
 20
3.293995
 30
0.0
 10
2.434102
 20
3.292204
 30
0.0
 10
2.439663
 20
3.290077
 30
0.0
 10
2.445037
 20
3.287688
 30
0.0
 10
2.450263
 20
3.284851
 30
0.0
 10
2.452726
 20
3.283209
 30
0.0
 10
2.455115
 20
3.281417
 30
0.0
 10
2.457392
 20
3.279365
 30
0.0
 10
2.459407
 20
3.276827
 30
0.0
 10
2.460303
 20
3.272049
 30
0.0
 10
2.398458
 20
3.059118
 30
0.0
 10
2.395136
 20
3.055573
 30
0.0
 10
2.392075
 20
3.054528
 30
0.0
 10
2.389052
 20
3.054042
 30
0.0
 10
2.386066
 20
3.053744
 30
0.0
 10
2.383080
 20
3.053744
 30
0.0
 10
2.377183
 20
3.054117
 30
0.0
 10
2.371361
 20
3.054938
 30
0.0
 10
2.365501
 20
3.056170
 30
0.0
 10
2.359716
 20
3.057700
 30
0.0
 10
2.348220
 20
3.061582
 30
0.0
 10
2.336687
 20
3.064829
 30
0.0
 10
2.324520
 20
3.061992
 30
0.0
 10
2.312352
 20
3.058484
 30
0.0
 10
2.300147
 20
3.054266
 30
0.0
 10
2.287905
 20
3.049489
 30
0.0
 10
2.275738
 20
3.044114
 30
0.0
 10
2.263570
 20
3.038143
 30
0.0
 10
2.251440
 20
3.031611
 30
0.0
 10
2.239347
 20
3.024594
 30
0.0
 10
2.227292
 20
3.017017
 30
0.0
 10
2.218334
 20
3.010971
 30
0.0
 10
2.226657
 20
2.885377
 30
0.0
 10
2.236362
 20
2.880600
 30
0.0
 10
2.249313
 20
2.874665
 30
0.0
 10
2.262227
 20
2.869291
 30
0.0
 10
2.275066
 20
2.864439
 30
0.0
 10
2.287943
 20
2.860147
 30
0.0
 10
2.300782
 20
2.856414
 30
0.0
 10
2.313509
 20
2.853242
 30
0.0
 10
2.326125
 20
2.850704
 30
0.0
 10
2.338665
 20
2.848837
 30
0.0
 10
2.351057
 20
2.847643
 30
0.0
 10
2.362105
 20
2.852346
 30
0.0
 10
2.373003
 20
2.857720
 30
0.0
 10
2.378527
 20
2.860035
 30
0.0
 10
2.384163
 20
2.862013
 30
0.0
 10
2.389873
 20
2.863618
 30
0.0
 10
2.395658
 20
2.864775
 30
0.0
 10
2.398607
 20
2.865111
 30
0.0
 10
2.401593
 20
2.865260
 30
0.0
 10
2.404653
 20
2.865185
 30
0.0
 10
2.407826
 20
2.864551
 30
0.0
 10
2.411596
 20
2.861453
 30
0.0
 10
2.501060
 20
2.658599
 30
0.0
 10
2.500799
 20
2.653710
 30
0.0
 10
2.499119
 20
2.650985
 30
0.0
 10
2.497141
 20
2.648634
 30
0.0
 10
2.495014
 20
2.646507
 30
0.0
 10
2.492774
 20
2.644566
 30
0.0
 10
2.488034
 20
2.641095
 30
0.0
 10
2.482958
 20
2.637959
 30
0.0
 10
2.477733
 20
2.635123
 30
0.0
 10
2.472321
 20
2.632622
 30
0.0
 10
2.460975
 20
2.628218
 30
0.0
 10
2.450076
 20
2.623217
 30
0.0
 10
2.442574
 20
2.613251
 30
0.0
 10
2.435520
 20
2.602763
 30
0.0
 10
2.428839
 20
2.591678
 30
0.0
 10
2.422606
 20
2.580145
 30
0.0
 10
2.416709
 20
2.568202
 30
0.0
 10
2.411222
 20
2.555773
 30
0.0
 10
2.406146
 20
2.543008
 30
0.0
 10
2.401406
 20
2.529833
 30
0.0
 10
2.397039
 20
2.516285
 30
0.0
 10
2.394016
 20
2.505946
 30
0.0
 10
2.481167
 20
2.415063
 30
0.0
 10
2.491655
 20
2.417638
 30
0.0
 10
2.505352
 20
2.421408
 30
0.0
 10
2.518714
 20
2.425588
 30
0.0
 10
2.531703
 20
2.430142
 30
0.0
 10
2.544318
 20
2.435143
 30
0.0
 10
2.556523
 20
2.440480
 30
0.0
 10
2.568280
 20
2.446266
 30
0.0
 10
2.579626
 20
2.452461
 30
0.0
 10
2.590450
 20
2.459030
 30
0.0
 10
2.600714
 20
2.466159
 30
0.0
 10
2.606163
 20
2.476834
 30
0.0
 10
2.611015
 20
2.487956
 30
0.0
 10
2.613777
 20
2.493256
 30
0.0
 10
2.616838
 20
2.498407
 30
0.0
 10
2.620160
 20
2.503296
 30
0.0
 10
2.623817
 20
2.507924
 30
0.0
 10
2.625870
 20
2.510052
 30
0.0
 10
2.628072
 20
2.512104
 30
0.0
 10
2.630498
 20
2.514008
 30
0.0
 10
2.633297
 20
2.515538
 30
0.0
 10
2.638150
 20
2.515613
 30
0.0
 10
2.837121
 20
2.417713
 30
0.0
 10
2.840033
 20
2.413831
 30
0.0
 10
2.840518
 20
2.410659
 30
0.0
 10
2.840518
 20
2.407598
 30
0.0
 10
2.840257
 20
2.404575
 30
0.0
 10
2.839771
 20
2.401627
 30
0.0
 10
2.838390
 20
2.395916
 30
0.0
 10
2.836524
 20
2.390318
 30
0.0
 10
2.834322
 20
2.384756
 30
0.0
 10
2.831784
 20
2.379307
 30
0.0
 10
2.825924
 20
2.368670
 30
0.0
 10
2.820774
 20
2.357846
 30
0.0
 10
2.821446
 20
2.345380
 30
0.0
 10
2.822827
 20
2.332802
 30
0.0
 10
2.824805
 20
2.320075
 30
0.0
 10
2.827455
 20
2.307198
 30
0.0
 10
2.830627
 20
2.294247
 30
0.0
 10
2.834397
 20
2.281221
 30
0.0
 10
2.838689
 20
2.268120
 30
0.0
 10
2.843504
 20
2.255020
 30
0.0
 10
2.848916
 20
2.241845
 30
0.0
 10
2.853283
 20
2.231954
 30
0.0
 10
2.978428
 20
2.218331
 30
0.0
 10
2.984811
 20
2.227102
 30
0.0
 10
2.992910
 20
2.238784
 30
0.0
 10
3.000449
 20
2.250578
 30
0.0
 10
3.007429
 20
2.262410
 30
0.0
 10
3.013923
 20
2.274353
 30
0.0
 10
3.019820
 20
2.286297
 30
0.0
 10
3.025120
 20
2.298315
 30
0.0
 10
3.029823
 20
2.310333
 30
0.0
 10
3.033854
 20
2.322351
 30
0.0
 10
3.037176
 20
2.334332
 30
0.0
 10
3.034451
 20
2.346015
 30
0.0
 10
3.031055
 20
2.357697
 30
0.0
 10
3.029748
 20
2.363557
 30
0.0
 10
3.028741
 20
2.369416
 30
0.0
 10
3.028181
 20
2.375276
 30
0.0
 10
3.028031
 20
2.381173
 30
0.0
 10
3.028181
 20
2.384159
 30
0.0
 10
3.028554
 20
2.387145
 30
0.0
 10
3.029226
 20
2.390131
 30
0.0
 10
3.030383
 20
2.393154
 30
0.0
 10
3.034078
 20
2.396327
 30
0.0
 10
3.249397
 20
2.449214
 30
0.0
 10
3.254137
 20
2.448132
 30
0.0
 10
3.256526
 20
2.445967
 30
0.0
 10
3.258504
 20
2.443616
 30
0.0
 10
3.260221
 20
2.441152
 30
0.0
 10
3.261714
 20
2.438614
 30
0.0
 10
3.264401
 20
2.433314
 30
0.0
 10
3.266566
 20
2.427790
 30
0.0
 10
3.268432
 20
2.422192
 30
0.0
 10
3.270000
 20
2.416369
 30
0.0
 10
3.272351
 20
2.404463
 30
0.0
 10
3.275375
 20
2.392856
 30
0.0
 10
3.283884
 20
2.383749
 30
0.0
 10
3.293029
 20
2.374978
 30
0.0
 10
3.302733
 20
2.366468
 30
0.0
 10
3.312997
 20
2.358294
 30
0.0
 10
3.323783
 20
2.350419
 30
0.0
 10
3.335055
 20
2.342879
 30
0.0
 10
3.346737
 20
2.335601
 30
0.0
 10
3.358867
 20
2.328696
 30
0.0
 10
3.371483
 20
2.322053
 30
0.0
 10
3.381150
 20
2.317313
 30
0.0
 10
3.485805
 20
2.387332
 30
0.0
 10
3.485058
 20
2.398081
 30
0.0
 10
3.483715
 20
2.412264
 30
0.0
 10
3.481923
 20
2.426148
 30
0.0
 10
3.479684
 20
2.439734
 30
0.0
 10
3.476996
 20
2.453021
 30
0.0
 10
3.473824
 20
2.465972
 30
0.0
 10
3.470166
 20
2.478588
 30
0.0
 10
3.466023
 20
2.490793
 30
0.0
 10
3.461395
 20
2.502587
 30
0.0
 10
3.456245
 20
2.513933
 30
0.0
 10
3.446652
 20
2.521137
 30
0.0
 10
3.436500
 20
2.527855
 30
0.0
 10
3.431798
 20
2.531513
 30
0.0
 10
3.427244
 20
2.535394
 30
0.0
 10
3.422989
 20
2.539500
 30
0.0
 10
3.419108
 20
2.543979
 30
0.0
 10
3.417353
 20
2.546330
 30
0.0
 10
3.415711
 20
2.548868
 30
0.0
 10
3.414293
 20
2.551555
 30
0.0
 10
3.413248
 20
2.554616
 30
0.0
 10
3.414032
 20
2.559431
 30
0.0
 10
3.545000
 20
2.738322
 30
0.0
 10
3.549292
 20
2.740525
 30
0.0
 10
3.552539
 20
2.740487
 30
0.0
 10
3.555562
 20
2.739927
 30
0.0
 10
3.558436
 20
2.739144
 30
0.0
 10
3.561236
 20
2.738136
 30
0.0
 10
3.566648
 20
2.735784
 30
0.0
 10
3.571873
 20
2.733022
 30
0.0
 10
3.576912
 20
2.729850
 30
0.0
 10
3.581838
 20
2.726416
 30
0.0
  0
ENDSEC
  0
SECTION
  2
OBJECTS
  0
DICTIONARY
  5
C
330
0
100
AcDbDictionary
  3
ACAD_GROUP
350
D
  3
ACAD_MLINESTYLE
350
17
  0
DICTIONARY
  5
D
330
C
100
AcDbDictionary
  0
DICTIONARY
  5
1A
330
C
100
AcDbDictionary
  0
DICTIONARY
  5
17
330
C
100
AcDbDictionary
  3
STANDARD
350
18
  0
DICTIONARY
  5
19
330
C
100
AcDbDictionary
  0
ENDSEC
  0
EOF
