  0
SECTION
  2
HEADER
  9
$ACADVER
  1
AC1014
  9
$HANDSEED
  5
FFFF
  9
$MEASUREMENT
 70
     1
  0
ENDSEC
  0
SECTION
  2
TABLES
  0
TABLE
  2
VPORT
  5
8
330
0
100
AcDbSymbolTable
 70
     4
  0
VPORT
  5
2E
330
8
100
AcDbSymbolTableRecord
100
AcDbViewportTableRecord
  2
*ACTIVE
 70
     0
 10
0.0
 20
0.0
 11
1.0
 21
1.0
 12
210.0
 22
148.5
 13
0.0
 23
0.0
 14
10.0
 24
10.0
 15
10.0
 25
10.0
 16
0.0
 26
0.0
 36
1.0
 17
0.0
 27
0.0
 37
0.0
 40
341.0
 41
1.24
 42
50.0
 43
0.0
 44
0.0
 50
0.0
 51
0.0
 71
     0
 72
   100
 73
     1
 74
     3
 75
     0
 76
     0
 77
     0
 78
     0
  0
ENDTAB
  0
TABLE
  2
LTYPE
  5
5
330
0
100
AcDbSymbolTable
 70
     1
  0
LTYPE
  5
14
330
5
100
AcDbSymbolTableRecord
100
AcDbLinetypeTableRecord
  2
BYBLOCK
 70
     0
  3

 72
    65
 73
     0
 40
0.0
  0
LTYPE
  5
15
330
5
100
AcDbSymbolTableRecord
100
AcDbLinetypeTableRecord
  2
BYLAYER
 70
     0
  3

 72
    65
 73
     0
 40
0.0
  0
LTYPE
  5
16
330
5
100
AcDbSymbolTableRecord
100
AcDbLinetypeTableRecord
  2
CONTINUOUS
 70
     0
  3
Solid line
 72
    65
 73
     0
 40
0.0
  0
ENDTAB
  0
TABLE
  2
LAYER
  5
2
100
AcDbSymbolTable
 70
2
  0
LAYER
  5
50
100
AcDbSymbolTableRecord
100
AcDbLayerTableRecord
  2
0
 70
0
  6
CONTINUOUS
  0
LAYER
  5
51
100
AcDbSymbolTableRecord
100
AcDbLayerTableRecord
  2
Layer_1
 70
0
  6
CONTINUOUS
  0
ENDTAB
  0
TABLE
  2
STYLE
  5
3
330
0
100
AcDbSymbolTable
 70
     1
  0
STYLE
  5
11
330
3
100
AcDbSymbolTableRecord
100
AcDbTextStyleTableRecord
  2
STANDARD
 70
     0
 40
0.0
 41
1.0
 50
0.0
 71
     0
 42
2.5
  3
txt
  4

  0
ENDTAB
  0
TABLE
  2
VIEW
  5
6
330
0
100
AcDbSymbolTable
 70
     0
  0
ENDTAB
  0
TABLE
  2
UCS
  5
7
330
0
100
AcDbSymbolTable
 70
     0
  0
ENDTAB
  0
TABLE
  2
APPID
  5
9
330
0
100
AcDbSymbolTable
 70
     2
  0
APPID
  5
12
330
9
100
AcDbSymbolTableRecord
100
AcDbRegAppTableRecord
  2
ACAD
 70
     0
  0
ENDTAB
  0
TABLE
  2
DIMSTYLE
  5
A
330
0
100
AcDbSymbolTable
 70
     1
  0
DIMSTYLE
105
27
330
A
100
AcDbSymbolTableRecord
100
AcDbDimStyleTableRecord
  2
ISO-25
 70
     0
  3

  4

  5

  6

  7

 40
1.0
 41
2.5
 42
0.625
 43
3.75
 44
1.25
 45
0.0
 46
0.0
 47
0.0
 48
0.0
140
2.5
141
2.5
142
0.0
143
0.03937007874016
144
1.0
145
0.0
146
1.0
147
0.625
 71
     0
 72
     0
 73
     0
 74
     0
 75
     0
 76
     0
 77
     1
 78
     8
170
     0
171
     3
172
     1
173
     0
174
     0
175
     0
176
     0
177
     0
178
     0
270
     2
271
     2
272
     2
273
     2
274
     3
340
11
275
     0
280
     0
281
     0
282
     0
283
     0
284
     8
285
     0
286
     0
287
     3
288
     0
  0
ENDTAB
  0
TABLE
  2
BLOCK_RECORD
  5
1
330
0
100
AcDbSymbolTable
 70
     1
  0
BLOCK_RECORD
  5
1F
330
1
100
AcDbSymbolTableRecord
100
AcDbBlockTableRecord
  2
*MODEL_SPACE
  0
BLOCK_RECORD
  5
1B
330
1
100
AcDbSymbolTableRecord
100
AcDbBlockTableRecord
  2
*PAPER_SPACE
  0
ENDTAB
  0
ENDSEC
  0
SECTION
  2
BLOCKS
  0
BLOCK
  5
20
330
1F
100
AcDbEntity
  8
0
100
AcDbBlockBegin
  2
*MODEL_SPACE
 70
     0
 10
0.0
 20
0.0
 30
0.0
  3
*MODEL_SPACE
  1

  0
ENDBLK
  5
21
330
1F
100
AcDbEntity
  8
0
100
AcDbBlockEnd
  0
BLOCK
  5
1C
330
1B
100
AcDbEntity
 67
     1
  8
0
100
AcDbBlockBegin
  2
*PAPER_SPACE
  1

  0
ENDBLK
  5
1D
330
1B
100
AcDbEntity
 67
     1
  8
0
100
AcDbBlockEnd
  0
ENDSEC
  0
SECTION
  2
ENTITIES
  0
LWPOLYLINE
  5
100
100
AcDbEntity
  8
Layer_1
 62
7
100
AcDbPolyline
 90
8
 70
1
 10
0.028332
 20
0.799979
 30
0.0
 10
0.028332
 20
0.028332
 30
0.0
 10
1.000015
 20
0.028332
 30
0.0
 10
1.000015
 20
0.000000
 30
0.0
 10
0.000000
 20
0.000000
 30
0.0
 10
0.000000
 20
0.799979
 30
0.0
 10
0.028332
 20
0.799979
 30
0.0
 10
0.028332
 20
0.799979
 30
0.0
  0
LWPOLYLINE
  5
101
100
AcDbEntity
  8
Layer_1
 62
7
100
AcDbPolyline
 90
8
 70
1
 10
8.000001
 20
0.799979
 30
0.0
 10
8.000001
 20
0.000000
 30
0.0
 10
6.999986
 20
0.000000
 30
0.0
 10
6.999986
 20
0.028332
 30
0.0
 10
7.971669
 20
0.028332
 30
0.0
 10
7.971669
 20
0.799979
 30
0.0
 10
8.000001
 20
0.799979
 30
0.0
 10
8.000001
 20
0.799979
 30
0.0
  0
LWPOLYLINE
  5
102
100
AcDbEntity
  8
Layer_1
 62
7
100
AcDbPolyline
 90
9
 70
1
 10
1.000015
 20
6.000002
 30
0.0
 10
1.000015
 20
5.971616
 30
0.0
 10
0.028332
 20
5.971616
 30
0.0
 10
0.028332
 20
4.999990
 30
0.0
 10
0.000000
 20
4.999990
 30
0.0
 10
0.000000
 20
5.985781
 30
0.0
 10
0.000000
 20
6.000002
 30
0.0
 10
1.000015
 20
6.000002
 30
0.0
 10
1.000015
 20
6.000002
 30
0.0
  0
LWPOLYLINE
  5
103
100
AcDbEntity
  8
Layer_1
 62
7
100
AcDbPolyline
 90
8
 70
1
 10
8.000057
 20
6.000002
 30
0.0
 10
8.000057
 20
4.999990
 30
0.0
 10
7.971725
 20
4.999990
 30
0.0
 10
7.971725
 20
5.971616
 30
0.0
 10
7.000042
 20
5.971616
 30
0.0
 10
7.000042
 20
6.000002
 30
0.0
 10
8.000057
 20
6.000002
 30
0.0
 10
8.000057
 20
6.000002
 30
0.0
  0
LWPOLYLINE
  5
104
100
AcDbEntity
  8
Layer_1
 62
7
100
AcDbPolyline
 90
1118
 70
1
 10
4.940947
 20
4.179729
 30
0.0
 10
4.857879
 20
4.172674
 30
0.0
 10
4.856942
 20
4.171799
 30
0.0
 10
4.853745
 20
4.163696
 30
0.0
 10
4.850162
 20
4.153830
 30
0.0
 10
4.846855
 20
4.144293
 30
0.0
 10
4.843823
 20
4.135090
 30
0.0
 10
4.841122
 20
4.126214
 30
0.0
 10
4.838698
 20
4.117615
 30
0.0
 10
4.836494
 20
4.109349
 30
0.0
 10
4.834620
 20
4.101466
 30
0.0
 10
4.832912
 20
4.093857
 30
0.0
 10
4.831479
 20
4.086638
 30
0.0
 10
4.830212
 20
4.079803
 30
0.0
 10
4.829165
 20
4.073298
 30
0.0
 10
4.828338
 20
4.067179
 30
0.0
 10
4.827621
 20
4.061391
 30
0.0
 10
4.827070
 20
4.056045
 30
0.0
 10
4.826630
 20
4.051027
 30
0.0
 10
4.826348
 20
4.046399
 30
0.0
 10
4.826179
 20
4.042154
 30
0.0
 10
4.826066
 20
4.038296
 30
0.0
 10
4.826066
 20
4.034822
 30
0.0
 10
4.826122
 20
4.031738
 30
0.0
 10
4.826179
 20
4.029028
 30
0.0
 10
4.826292
 20
4.026770
 30
0.0
 10
4.826461
 20
4.024851
 30
0.0
 10
4.826574
 20
4.023356
 30
0.0
 10
4.826743
 20
4.022198
 30
0.0
 10
4.826800
 20
4.021493
 30
0.0
 10
4.826856
 20
4.021154
 30
0.0
 10
4.846259
 20
3.913224
 30
0.0
 10
4.679957
 20
3.869017
 30
0.0
 10
4.643191
 20
3.972316
 30
0.0
 10
4.643022
 20
3.972654
 30
0.0
 10
4.642740
 20
3.973303
 30
0.0
 10
4.642299
 20
3.974348
 30
0.0
 10
4.641692
 20
3.975731
 30
0.0
 10
4.640866
 20
3.977452
 30
0.0
 10
4.639819
 20
3.979541
 30
0.0
 10
4.638551
 20
3.981911
 30
0.0
 10
4.637064
 20
3.984564
 30
0.0
 10
4.635357
 20
3.987595
 30
0.0
 10
4.633316
 20
3.990903
 30
0.0
 10
4.631056
 20
3.994484
 30
0.0
 10
4.628521
 20
3.998345
 30
0.0
 10
4.625655
 20
4.002477
 30
0.0
 10
4.622513
 20
4.006888
 30
0.0
 10
4.619040
 20
4.011573
 30
0.0
 10
4.615237
 20
4.016424
 30
0.0
 10
4.611103
 20
4.021549
 30
0.0
 10
4.606638
 20
4.026897
 30
0.0
 10
4.601787
 20
4.032463
 30
0.0
 10
4.596551
 20
4.038198
 30
0.0
 10
4.590983
 20
4.044096
 30
0.0
 10
4.585030
 20
4.050158
 30
0.0
 10
4.578636
 20
4.056443
 30
0.0
 10
4.571856
 20
4.062782
 30
0.0
 10
4.564690
 20
4.069341
 30
0.0
 10
4.557084
 20
4.075956
 30
0.0
 10
4.549036
 20
4.082679
 30
0.0
 10
4.542256
 20
4.088137
 30
0.0
 10
4.541042
 20
4.088419
 30
0.0
 10
4.465361
 20
4.053305
 30
0.0
 10
4.464810
 20
4.052204
 30
0.0
 10
4.464584
 20
4.043495
 30
0.0
 10
4.464528
 20
4.033022
 30
0.0
 10
4.464697
 20
4.022935
 30
0.0
 10
4.465028
 20
4.013232
 30
0.0
 10
4.465524
 20
4.003973
 30
0.0
 10
4.466185
 20
3.995043
 30
0.0
 10
4.466955
 20
3.986554
 30
0.0
 10
4.467836
 20
3.978451
 30
0.0
 10
4.468883
 20
3.970789
 30
0.0
 10
4.469986
 20
3.963513
 30
0.0
 10
4.471143
 20
3.956621
 30
0.0
 10
4.472411
 20
3.950173
 30
0.0
 10
4.473678
 20
3.944110
 30
0.0
 10
4.475001
 20
3.938432
 30
0.0
 10
4.476325
 20
3.933197
 30
0.0
 10
4.477649
 20
3.928345
 30
0.0
 10
4.478916
 20
3.923934
 30
0.0
 10
4.480239
 20
3.919856
 30
0.0
 10
4.481453
 20
3.916218
 30
0.0
 10
4.482610
 20
3.912911
 30
0.0
 10
4.483714
 20
3.910046
 30
0.0
 10
4.484707
 20
3.907563
 30
0.0
 10
4.485644
 20
3.905474
 30
0.0
 10
4.486414
 20
3.903724
 30
0.0
 10
4.487021
 20
3.902341
 30
0.0
 10
4.487571
 20
3.901354
 30
0.0
 10
4.487902
 20
3.900676
 30
0.0
 10
4.488015
 20
3.900394
 30
0.0
 10
4.543191
 20
3.805528
 30
0.0
 10
4.402025
 20
3.707137
 30
0.0
 10
4.332131
 20
3.791637
 30
0.0
 10
4.331905
 20
3.791919
 30
0.0
 10
4.331409
 20
3.792455
 30
0.0
 10
4.330638
 20
3.793274
 30
0.0
 10
4.329591
 20
3.794318
 30
0.0
 10
4.328214
 20
3.795645
 30
0.0
 10
4.326506
 20
3.797253
 30
0.0
 10
4.324522
 20
3.799059
 30
0.0
 10
4.322208
 20
3.801035
 30
0.0
 10
4.319564
 20
3.803293
 30
0.0
 10
4.316587
 20
3.805720
 30
0.0
 10
4.313225
 20
3.808316
 30
0.0
 10
4.309477
 20
3.811082
 30
0.0
 10
4.305398
 20
3.814003
 30
0.0
 10
4.300933
 20
3.817034
 30
0.0
 10
4.296082
 20
3.820232
 30
0.0
 10
4.290845
 20
3.823539
 30
0.0
 10
4.285168
 20
3.826957
 30
0.0
 10
4.279160
 20
3.830428
 30
0.0
 10
4.272711
 20
3.833956
 30
0.0
 10
4.265820
 20
3.837597
 30
0.0
 10
4.258544
 20
3.841235
 30
0.0
 10
4.250882
 20
3.844873
 30
0.0
 10
4.242725
 20
3.848564
 30
0.0
 10
4.234181
 20
3.852258
 30
0.0
 10
4.225196
 20
3.855896
 30
0.0
 10
4.215770
 20
3.859534
 30
0.0
 10
4.205958
 20
3.863115
 30
0.0
 10
4.197690
 20
3.865938
 30
0.0
 10
4.196423
 20
3.865938
 30
0.0
 10
4.137333
 20
3.807066
 30
0.0
 10
4.137220
 20
3.805796
 30
0.0
 10
4.139977
 20
3.797527
 30
0.0
 10
4.143505
 20
3.787660
 30
0.0
 10
4.147088
 20
3.778234
 30
0.0
 10
4.150726
 20
3.769251
 30
0.0
 10
4.154364
 20
3.760705
 30
0.0
 10
4.158057
 20
3.752549
 30
0.0
 10
4.161695
 20
3.744830
 30
0.0
 10
4.165333
 20
3.737555
 30
0.0
 10
4.168861
 20
3.730666
 30
0.0
 10
4.172389
 20
3.724217
 30
0.0
 10
4.175861
 20
3.718152
 30
0.0
 10
4.179224
 20
3.712530
 30
0.0
 10
4.182531
 20
3.707238
 30
0.0
 10
4.185673
 20
3.702387
 30
0.0
 10
4.188704
 20
3.697922
 30
0.0
 10
4.191626
 20
3.693788
 30
0.0
 10
4.194383
 20
3.690096
 30
0.0
 10
4.196974
 20
3.686679
 30
0.0
 10
4.199345
 20
3.683701
 30
0.0
 10
4.201605
 20
3.680992
 30
0.0
 10
4.203589
 20
3.678678
 30
0.0
 10
4.205407
 20
3.676702
 30
0.0
 10
4.206951
 20
3.674980
 30
0.0
 10
4.208274
 20
3.673598
 30
0.0
 10
4.209378
 20
3.672553
 30
0.0
 10
4.210205
 20
3.671791
 30
0.0
 10
4.210755
 20
3.671312
 30
0.0
 10
4.210981
 20
3.671029
 30
0.0
 10
4.295206
 20
3.600804
 30
0.0
 10
4.196263
 20
3.460023
 30
0.0
 10
4.101620
 20
3.515531
 30
0.0
 10
4.101394
 20
3.515813
 30
0.0
 10
4.100733
 20
3.516151
 30
0.0
 10
4.099686
 20
3.516631
 30
0.0
 10
4.098309
 20
3.517309
 30
0.0
 10
4.096599
 20
3.518071
 30
0.0
 10
4.094505
 20
3.519002
 30
0.0
 10
4.091970
 20
3.519990
 30
0.0
 10
4.089104
 20
3.521090
 30
0.0
 10
4.085852
 20
3.522304
 30
0.0
 10
4.082214
 20
3.523517
 30
0.0
 10
4.078190
 20
3.524844
 30
0.0
 10
4.073725
 20
3.526170
 30
0.0
 10
4.068875
 20
3.527497
 30
0.0
 10
4.063638
 20
3.528880
 30
0.0
 10
4.057960
 20
3.530206
 30
0.0
 10
4.051952
 20
3.531533
 30
0.0
 10
4.045448
 20
3.532803
 30
0.0
 10
4.038613
 20
3.533960
 30
0.0
 10
4.031337
 20
3.535117
 30
0.0
 10
4.023620
 20
3.536161
 30
0.0
 10
4.015572
 20
3.537092
 30
0.0
 10
4.007083
 20
3.537911
 30
0.0
 10
3.998154
 20
3.538560
 30
0.0
 10
3.988893
 20
3.539124
 30
0.0
 10
3.979192
 20
3.539519
 30
0.0
 10
3.969104
 20
3.539802
 30
0.0
 10
3.958631
 20
3.539802
 30
0.0
 10
3.949922
 20
3.539519
 30
0.0
 10
3.948765
 20
3.538955
 30
0.0
 10
3.913432
 20
3.463438
 30
0.0
 10
3.913715
 20
3.462224
 30
0.0
 10
3.919117
 20
3.455443
 30
0.0
 10
3.925841
 20
3.447396
 30
0.0
 10
3.932401
 20
3.439734
 30
0.0
 10
3.938905
 20
3.432512
 30
0.0
 10
3.945244
 20
3.425733
 30
0.0
 10
3.951473
 20
3.419338
 30
0.0
 10
3.957536
 20
3.413329
 30
0.0
 10
3.963434
 20
3.407708
 30
0.0
 10
3.969167
 20
3.402472
 30
0.0
 10
3.974679
 20
3.397621
 30
0.0
 10
3.979971
 20
3.393100
 30
0.0
 10
3.985097
 20
3.388912
 30
0.0
 10
3.990003
 20
3.385107
 30
0.0
 10
3.994633
 20
3.381636
 30
0.0
 10
3.998988
 20
3.378438
 30
0.0
 10
4.003122
 20
3.375616
 30
0.0
 10
4.006980
 20
3.373020
 30
0.0
 10
4.010563
 20
3.370762
 30
0.0
 10
4.013871
 20
3.368730
 30
0.0
 10
4.016847
 20
3.366980
 30
0.0
 10
4.019548
 20
3.365484
 30
0.0
 10
4.021919
 20
3.364214
 30
0.0
 10
4.023959
 20
3.363170
 30
0.0
 10
4.025669
 20
3.362352
 30
0.0
 10
4.027047
 20
3.361731
 30
0.0
 10
4.028094
 20
3.361223
 30
0.0
 10
4.028811
 20
3.360940
 30
0.0
 10
4.029093
 20
3.360940
 30
0.0
 10
4.132280
 20
3.323732
 30
0.0
 10
4.087411
 20
3.157650
 30
0.0
 10
3.979538
 20
3.177440
 30
0.0
 10
3.979208
 20
3.177440
 30
0.0
 10
3.978491
 20
3.177440
 30
0.0
 10
3.977388
 20
3.177440
 30
0.0
 10
3.975844
 20
3.177722
 30
0.0
 10
3.973970
 20
3.177722
 30
0.0
 10
3.971656
 20
3.178004
 30
0.0
 10
3.968955
 20
3.178004
 30
0.0
 10
3.965924
 20
3.178004
 30
0.0
 10
3.962451
 20
3.178004
 30
0.0
 10
3.958593
 20
3.178004
 30
0.0
 10
3.954348
 20
3.177722
 30
0.0
 10
3.949718
 20
3.177440
 30
0.0
 10
3.944702
 20
3.177044
 30
0.0
 10
3.939300
 20
3.176480
 30
0.0
 10
3.933567
 20
3.175831
 30
0.0
 10
3.927394
 20
3.175012
 30
0.0
 10
3.920889
 20
3.173968
 30
0.0
 10
3.914054
 20
3.172755
 30
0.0
 10
3.906833
 20
3.171315
 30
0.0
 10
3.899227
 20
3.169650
 30
0.0
 10
3.891344
 20
3.167788
 30
0.0
 10
3.883076
 20
3.165643
 30
0.0
 10
3.874477
 20
3.163272
 30
0.0
 10
3.865547
 20
3.160563
 30
0.0
 10
3.856287
 20
3.157585
 30
0.0
 10
3.846751
 20
3.154334
 30
0.0
 10
3.836939
 20
3.150750
 30
0.0
 10
3.828836
 20
3.147609
 30
0.0
 10
3.827956
 20
3.146677
 30
0.0
 10
3.820514
 20
3.063608
 30
0.0
 10
3.821231
 20
3.062564
 30
0.0
 10
3.828618
 20
3.058045
 30
0.0
 10
3.837657
 20
3.052754
 30
0.0
 10
3.846477
 20
3.047846
 30
0.0
 10
3.855076
 20
3.043271
 30
0.0
 10
3.863344
 20
3.039083
 30
0.0
 10
3.871392
 20
3.035169
 30
0.0
 10
3.879109
 20
3.031587
 30
0.0
 10
3.886606
 20
3.028333
 30
0.0
 10
3.893771
 20
3.025412
 30
0.0
 10
3.900606
 20
3.022703
 30
0.0
 10
3.907166
 20
3.020276
 30
0.0
 10
3.913394
 20
3.018131
 30
0.0
 10
3.919237
 20
3.016212
 30
0.0
 10
3.924805
 20
3.014490
 30
0.0
 10
3.930041
 20
3.013051
 30
0.0
 10
3.934892
 20
3.011724
 30
0.0
 10
3.939412
 20
3.010624
 30
0.0
 10
3.943546
 20
3.009749
 30
0.0
 10
3.947294
 20
3.008987
 30
0.0
 10
3.950712
 20
3.008366
 30
0.0
 10
3.953743
 20
3.007858
 30
0.0
 10
3.956444
 20
3.007463
 30
0.0
 10
3.958705
 20
3.007181
 30
0.0
 10
3.960635
 20
3.006898
 30
0.0
 10
3.962123
 20
3.006616
 30
0.0
 10
3.963280
 20
3.006616
 30
0.0
 10
3.963997
 20
3.006616
 30
0.0
 10
3.964327
 20
3.006616
 30
0.0
 10
4.074019
 20
3.006955
 30
0.0
 10
4.088681
 20
2.835527
 30
0.0
 10
3.980477
 20
2.817225
 30
0.0
 10
3.980195
 20
2.817225
 30
0.0
 10
3.979478
 20
2.816943
 30
0.0
 10
3.978375
 20
2.816661
 30
0.0
 10
3.976888
 20
2.816266
 30
0.0
 10
3.975070
 20
2.815729
 30
0.0
 10
3.972866
 20
2.815052
 30
0.0
 10
3.970275
 20
2.814234
 30
0.0
 10
3.967354
 20
2.813246
 30
0.0
 10
3.964101
 20
2.812089
 30
0.0
 10
3.960519
 20
2.810649
 30
0.0
 10
3.956605
 20
2.809041
 30
0.0
 10
3.952360
 20
2.807235
 30
0.0
 10
3.947785
 20
2.805146
 30
0.0
 10
3.942880
 20
2.802832
 30
0.0
 10
3.937698
 20
2.800179
 30
0.0
 10
3.932241
 20
2.797312
 30
0.0
 10
3.926454
 20
2.794117
 30
0.0
 10
3.920445
 20
2.790643
 30
0.0
 10
3.914106
 20
2.786838
 30
0.0
 10
3.907602
 20
2.782650
 30
0.0
 10
3.900767
 20
2.778185
 30
0.0
 10
3.893766
 20
2.773391
 30
0.0
 10
3.886490
 20
2.768152
 30
0.0
 10
3.879049
 20
2.762587
 30
0.0
 10
3.871387
 20
2.756632
 30
0.0
 10
3.863505
 20
2.750293
 30
0.0
 10
3.855512
 20
2.743568
 30
0.0
 10
3.848953
 20
2.737836
 30
0.0
 10
3.848456
 20
2.736679
 30
0.0
 10
3.869898
 20
2.656090
 30
0.0
 10
3.870892
 20
2.655328
 30
0.0
 10
3.879436
 20
2.653607
 30
0.0
 10
3.889743
 20
2.651744
 30
0.0
 10
3.899720
 20
2.650136
 30
0.0
 10
3.909311
 20
2.648809
 30
0.0
 10
3.918517
 20
2.647652
 30
0.0
 10
3.927391
 20
2.646777
 30
0.0
 10
3.935935
 20
2.646072
 30
0.0
 10
3.944038
 20
2.645564
 30
0.0
 10
3.951755
 20
2.645168
 30
0.0
 10
3.959141
 20
2.644886
 30
0.0
 10
3.966087
 20
2.644886
 30
0.0
 10
3.972701
 20
2.644886
 30
0.0
 10
3.978875
 20
2.645168
 30
0.0
 10
3.984663
 20
2.645507
 30
0.0
 10
3.990065
 20
2.645902
 30
0.0
 10
3.995081
 20
2.646354
 30
0.0
 10
3.999711
 20
2.646918
 30
0.0
 10
4.003900
 20
2.647483
 30
0.0
 10
4.007703
 20
2.648047
 30
0.0
 10
4.011121
 20
2.648640
 30
0.0
 10
4.014153
 20
2.649204
 30
0.0
 10
4.016797
 20
2.649769
 30
0.0
 10
4.019001
 20
2.650333
 30
0.0
 10
4.020875
 20
2.650785
 30
0.0
 10
4.022363
 20
2.651236
 30
0.0
 10
4.023410
 20
2.651518
 30
0.0
 10
4.024126
 20
2.651801
 30
0.0
 10
4.024457
 20
2.651801
 30
0.0
 10
4.127369
 20
2.689669
 30
0.0
 10
4.199798
 20
2.533567
 30
0.0
 10
4.104438
 20
2.479383
 30
0.0
 10
4.104156
 20
2.479100
 30
0.0
 10
4.103549
 20
2.478705
 30
0.0
 10
4.102556
 20
2.478113
 30
0.0
 10
4.101342
 20
2.477238
 30
0.0
 10
4.099745
 20
2.476137
 30
0.0
 10
4.097927
 20
2.474754
 30
0.0
 10
4.095833
 20
2.473089
 30
0.0
 10
4.093409
 20
2.471170
 30
0.0
 10
4.090765
 20
2.468912
 30
0.0
 10
4.087843
 20
2.466372
 30
0.0
 10
4.084701
 20
2.463508
 30
0.0
 10
4.081339
 20
2.460364
 30
0.0
 10
4.077756
 20
2.456836
 30
0.0
 10
4.074008
 20
2.452978
 30
0.0
 10
4.069984
 20
2.448733
 30
0.0
 10
4.065850
 20
2.444159
 30
0.0
 10
4.061495
 20
2.439197
 30
0.0
 10
4.057030
 20
2.433852
 30
0.0
 10
4.052400
 20
2.428120
 30
0.0
 10
4.047660
 20
2.421945
 30
0.0
 10
4.042809
 20
2.415442
 30
0.0
 10
4.037848
 20
2.408497
 30
0.0
 10
4.032832
 20
2.401108
 30
0.0
 10
4.027706
 20
2.393336
 30
0.0
 10
4.022579
 20
2.385123
 30
0.0
 10
4.017343
 20
2.376524
 30
0.0
 10
4.012106
 20
2.367431
 30
0.0
 10
4.007917
 20
2.359768
 30
0.0
 10
4.007860
 20
2.358555
 30
0.0
 10
4.055540
 20
2.290150
 30
0.0
 10
4.056754
 20
2.289755
 30
0.0
 10
4.065353
 20
2.291081
 30
0.0
 10
4.075661
 20
2.292831
 30
0.0
 10
4.085583
 20
2.294694
 30
0.0
 10
4.095063
 20
2.296726
 30
0.0
 10
4.104158
 20
2.298814
 30
0.0
 10
4.112813
 20
2.300959
 30
0.0
 10
4.121026
 20
2.303217
 30
0.0
 10
4.128853
 20
2.305531
 30
0.0
 10
4.136239
 20
2.307845
 30
0.0
 10
4.143184
 20
2.310216
 30
0.0
 10
4.149799
 20
2.312587
 30
0.0
 10
4.155917
 20
2.314901
 30
0.0
 10
4.161650
 20
2.317215
 30
0.0
 10
4.166997
 20
2.319473
 30
0.0
 10
4.171958
 20
2.321674
 30
0.0
 10
4.176478
 20
2.323819
 30
0.0
 10
4.180667
 20
2.325907
 30
0.0
 10
4.184415
 20
2.327827
 30
0.0
 10
4.187778
 20
2.329689
 30
0.0
 10
4.190809
 20
2.331383
 30
0.0
 10
4.193454
 20
2.332991
 30
0.0
 10
4.195714
 20
2.334374
 30
0.0
 10
4.197645
 20
2.335644
 30
0.0
 10
4.199242
 20
2.336745
 30
0.0
 10
4.200509
 20
2.337620
 30
0.0
 10
4.201390
 20
2.338297
 30
0.0
 10
4.201997
 20
2.338749
 30
0.0
 10
4.202223
 20
2.339031
 30
0.0
 10
4.286062
 20
2.409806
 30
0.0
 10
4.407495
 20
2.287932
 30
0.0
 10
4.336388
 20
2.204368
 30
0.0
 10
4.336163
 20
2.204086
 30
0.0
 10
4.335722
 20
2.203494
 30
0.0
 10
4.335062
 20
2.202619
 30
0.0
 10
4.334181
 20
2.201349
 30
0.0
 10
4.333078
 20
2.199796
 30
0.0
 10
4.331811
 20
2.197877
 30
0.0
 10
4.330377
 20
2.195620
 30
0.0
 10
4.328833
 20
2.192967
 30
0.0
 10
4.327069
 20
2.189936
 30
0.0
 10
4.325196
 20
2.186574
 30
0.0
 10
4.323265
 20
2.182826
 30
0.0
 10
4.321171
 20
2.178635
 30
0.0
 10
4.319020
 20
2.174117
 30
0.0
 10
4.316760
 20
2.169209
 30
0.0
 10
4.314499
 20
2.163864
 30
0.0
 10
4.312129
 20
2.158132
 30
0.0
 10
4.309758
 20
2.152013
 30
0.0
 10
4.307387
 20
2.145452
 30
0.0
 10
4.305017
 20
2.138453
 30
0.0
 10
4.302646
 20
2.131067
 30
0.0
 10
4.300332
 20
2.123294
 30
0.0
 10
4.298018
 20
2.115082
 30
0.0
 10
4.295813
 20
2.106426
 30
0.0
 10
4.293663
 20
2.097333
 30
0.0
 10
4.291622
 20
2.087907
 30
0.0
 10
4.289692
 20
2.077984
 30
0.0
 10
4.287874
 20
2.067677
 30
0.0
 10
4.286551
 20
2.059078
 30
0.0
 10
4.286937
 20
2.057864
 30
0.0
 10
4.355123
 20
2.009855
 30
0.0
 10
4.356390
 20
2.009855
 30
0.0
 10
4.364052
 20
2.013987
 30
0.0
 10
4.373147
 20
2.019225
 30
0.0
 10
4.381801
 20
2.024350
 30
0.0
 10
4.390014
 20
2.029532
 30
0.0
 10
4.397841
 20
2.034603
 30
0.0
 10
4.405228
 20
2.039618
 30
0.0
 10
4.412173
 20
2.044526
 30
0.0
 10
4.418732
 20
2.049378
 30
0.0
 10
4.424851
 20
2.054063
 30
0.0
 10
4.430639
 20
2.058691
 30
0.0
 10
4.435986
 20
2.063102
 30
0.0
 10
4.440946
 20
2.067457
 30
0.0
 10
4.445577
 20
2.071591
 30
0.0
 10
4.449821
 20
2.075559
 30
0.0
 10
4.453680
 20
2.079307
 30
0.0
 10
4.457263
 20
2.082892
 30
0.0
 10
4.460405
 20
2.086253
 30
0.0
 10
4.463326
 20
2.089340
 30
0.0
 10
4.465860
 20
2.092261
 30
0.0
 10
4.468064
 20
2.094914
 30
0.0
 10
4.470048
 20
2.097285
 30
0.0
 10
4.471702
 20
2.099430
 30
0.0
 10
4.473079
 20
2.101236
 30
0.0
 10
4.474183
 20
2.102788
 30
0.0
 10
4.475063
 20
2.104058
 30
0.0
 10
4.475670
 20
2.104990
 30
0.0
 10
4.476110
 20
2.105582
 30
0.0
 10
4.476223
 20
2.105864
 30
0.0
 10
4.530794
 20
2.201061
 30
0.0
 10
4.686622
 20
2.128024
 30
0.0
 10
4.648368
 20
2.025222
 30
0.0
 10
4.648255
 20
2.024884
 30
0.0
 10
4.648029
 20
2.024178
 30
0.0
 10
4.647699
 20
2.023134
 30
0.0
 10
4.647312
 20
2.021638
 30
0.0
 10
4.646816
 20
2.019832
 30
0.0
 10
4.646319
 20
2.017574
 30
0.0
 10
4.645712
 20
2.014921
 30
0.0
 10
4.645162
 20
2.011890
 30
0.0
 10
4.644555
 20
2.008529
 30
0.0
 10
4.643948
 20
2.004671
 30
0.0
 10
4.643398
 20
2.000480
 30
0.0
 10
4.642848
 20
1.995851
 30
0.0
 10
4.642351
 20
1.990890
 30
0.0
 10
4.641964
 20
1.985488
 30
0.0
 10
4.641634
 20
1.979700
 30
0.0
 10
4.641352
 20
1.973471
 30
0.0
 10
4.641239
 20
1.966912
 30
0.0
 10
4.641239
 20
1.959967
 30
0.0
 10
4.641408
 20
1.952581
 30
0.0
 10
4.641738
 20
1.944862
 30
0.0
 10
4.642179
 20
1.936706
 30
0.0
 10
4.642896
 20
1.928217
 30
0.0
 10
4.643723
 20
1.919341
 30
0.0
 10
4.644826
 20
1.910081
 30
0.0
 10
4.646150
 20
1.900491
 30
0.0
 10
4.647693
 20
1.890512
 30
0.0
 10
4.649567
 20
1.880205
 30
0.0
 10
4.651221
 20
1.871662
 30
0.0
 10
4.651992
 20
1.870618
 30
0.0
 10
4.732469
 20
1.848898
 30
0.0
 10
4.733683
 20
1.849406
 30
0.0
 10
4.739415
 20
1.855911
 30
0.0
 10
4.746195
 20
1.863958
 30
0.0
 10
4.752534
 20
1.871730
 30
0.0
 10
4.758542
 20
1.879392
 30
0.0
 10
4.764110
 20
1.886835
 30
0.0
 10
4.769346
 20
1.894054
 30
0.0
 10
4.774197
 20
1.901056
 30
0.0
 10
4.778717
 20
1.907835
 30
0.0
 10
4.782851
 20
1.914396
 30
0.0
 10
4.786710
 20
1.920679
 30
0.0
 10
4.790237
 20
1.926687
 30
0.0
 10
4.793434
 20
1.932419
 30
0.0
 10
4.796356
 20
1.937931
 30
0.0
 10
4.798946
 20
1.943112
 30
0.0
 10
4.801317
 20
1.947964
 30
0.0
 10
4.803411
 20
1.952539
 30
0.0
 10
4.805285
 20
1.956783
 30
0.0
 10
4.806939
 20
1.960698
 30
0.0
 10
4.808316
 20
1.964279
 30
0.0
 10
4.809530
 20
1.967533
 30
0.0
 10
4.810523
 20
1.970454
 30
0.0
 10
4.811350
 20
1.972994
 30
0.0
 10
4.812010
 20
1.975196
 30
0.0
 10
4.812561
 20
1.977002
 30
0.0
 10
4.812947
 20
1.978498
 30
0.0
 10
4.813230
 20
1.979598
 30
0.0
 10
4.813399
 20
1.980304
 30
0.0
 10
4.813455
 20
1.980642
 30
0.0
 10
4.832142
 20
2.088736
 30
0.0
 10
5.003570
 20
2.073412
 30
0.0
 10
5.002799
 20
1.963664
 30
0.0
 10
5.002799
 20
1.963382
 30
0.0
 10
5.002799
 20
1.962620
 30
0.0
 10
5.002856
 20
1.961519
 30
0.0
 10
5.003025
 20
1.959967
 30
0.0
 10
5.003194
 20
1.958104
 30
0.0
 10
5.003477
 20
1.955846
 30
0.0
 10
5.003863
 20
1.953137
 30
0.0
 10
5.004303
 20
1.950106
 30
0.0
 10
5.004910
 20
1.946688
 30
0.0
 10
5.005681
 20
1.942940
 30
0.0
 10
5.006561
 20
1.938749
 30
0.0
 10
5.007665
 20
1.934231
 30
0.0
 10
5.008878
 20
1.929380
 30
0.0
 10
5.010366
 20
1.924198
 30
0.0
 10
5.012019
 20
1.918630
 30
0.0
 10
5.013950
 20
1.912734
 30
0.0
 10
5.016044
 20
1.906505
 30
0.0
 10
5.018468
 20
1.899944
 30
0.0
 10
5.021113
 20
1.893055
 30
0.0
 10
5.024034
 20
1.885889
 30
0.0
 10
5.027286
 20
1.878447
 30
0.0
 10
5.030814
 20
1.870675
 30
0.0
 10
5.034673
 20
1.862628
 30
0.0
 10
5.038862
 20
1.854303
 30
0.0
 10
5.043382
 20
1.845706
 30
0.0
 10
5.048288
 20
1.836887
 30
0.0
 10
5.053524
 20
1.827844
 30
0.0
 10
5.058044
 20
1.820405
 30
0.0
 10
5.059091
 20
1.819700
 30
0.0
 10
5.142159
 20
1.826809
 30
0.0
 10
5.143096
 20
1.827684
 30
0.0
 10
5.146238
 20
1.835786
 30
0.0
 10
5.149876
 20
1.845596
 30
0.0
 10
5.153184
 20
1.855133
 30
0.0
 10
5.156215
 20
1.864339
 30
0.0
 10
5.158916
 20
1.873268
 30
0.0
 10
5.161340
 20
1.881814
 30
0.0
 10
5.163491
 20
1.890080
 30
0.0
 10
5.165421
 20
1.898019
 30
0.0
 10
5.167075
 20
1.905568
 30
0.0
 10
5.168562
 20
1.912791
 30
0.0
 10
5.169776
 20
1.919626
 30
0.0
 10
5.170823
 20
1.926131
 30
0.0
 10
5.171704
 20
1.932250
 30
0.0
 10
5.172420
 20
1.938035
 30
0.0
 10
5.172971
 20
1.943437
 30
0.0
 10
5.173357
 20
1.948455
 30
0.0
 10
5.173688
 20
1.953083
 30
0.0
 10
5.173857
 20
1.957328
 30
0.0
 10
5.173970
 20
1.961132
 30
0.0
 10
5.173970
 20
1.964604
 30
0.0
 10
5.173913
 20
1.967691
 30
0.0
 10
5.173857
 20
1.970401
 30
0.0
 10
5.173688
 20
1.972715
 30
0.0
 10
5.173575
 20
1.974577
 30
0.0
 10
5.173405
 20
1.976130
 30
0.0
 10
5.173292
 20
1.977230
 30
0.0
 10
5.173180
 20
1.977936
 30
0.0
 10
5.173123
 20
1.978275
 30
0.0
 10
5.153776
 20
2.086258
 30
0.0
 10
5.320077
 20
2.130466
 30
0.0
 10
5.356843
 20
2.027113
 30
0.0
 10
5.356956
 20
2.026831
 30
0.0
 10
5.357238
 20
2.026125
 30
0.0
 10
5.357679
 20
2.025081
 30
0.0
 10
5.358339
 20
2.023698
 30
0.0
 10
5.359166
 20
2.021977
 30
0.0
 10
5.360213
 20
2.019945
 30
0.0
 10
5.361427
 20
2.017574
 30
0.0
 10
5.362914
 20
2.014865
 30
0.0
 10
5.364678
 20
2.011834
 30
0.0
 10
5.366662
 20
2.008526
 30
0.0
 10
5.368922
 20
2.004942
 30
0.0
 10
5.371513
 20
2.001084
 30
0.0
 10
5.374324
 20
1.996949
 30
0.0
 10
5.377466
 20
1.992541
 30
0.0
 10
5.380939
 20
1.987910
 30
0.0
 10
5.384742
 20
1.983005
 30
0.0
 10
5.388876
 20
1.977879
 30
0.0
 10
5.393396
 20
1.972531
 30
0.0
 10
5.398247
 20
1.967020
 30
0.0
 10
5.403428
 20
1.961288
 30
0.0
 10
5.409051
 20
1.955333
 30
0.0
 10
5.415004
 20
1.949271
 30
0.0
 10
5.421398
 20
1.943042
 30
0.0
 10
5.428178
 20
1.936647
 30
0.0
 10
5.435344
 20
1.930142
 30
0.0
 10
5.442950
 20
1.923529
 30
0.0
 10
5.450998
 20
1.916747
 30
0.0
 10
5.457778
 20
1.911292
 30
0.0
 10
5.458992
 20
1.911010
 30
0.0
 10
5.534618
 20
1.946124
 30
0.0
 10
5.535225
 20
1.947224
 30
0.0
 10
5.535451
 20
1.955934
 30
0.0
 10
5.535507
 20
1.966407
 30
0.0
 10
5.535338
 20
1.976494
 30
0.0
 10
5.535008
 20
1.986197
 30
0.0
 10
5.534511
 20
1.995513
 30
0.0
 10
5.533851
 20
2.004386
 30
0.0
 10
5.533080
 20
2.012875
 30
0.0
 10
5.532143
 20
2.020978
 30
0.0
 10
5.531150
 20
2.028694
 30
0.0
 10
5.530046
 20
2.035969
 30
0.0
 10
5.528889
 20
2.042805
 30
0.0
 10
5.527622
 20
2.049253
 30
0.0
 10
5.526355
 20
2.055318
 30
0.0
 10
5.525031
 20
2.060997
 30
0.0
 10
5.523708
 20
2.066232
 30
0.0
 10
5.522384
 20
2.071083
 30
0.0
 10
5.521061
 20
2.075548
 30
0.0
 10
5.519793
 20
2.079573
 30
0.0
 10
5.518580
 20
2.083210
 30
0.0
 10
5.517423
 20
2.086518
 30
0.0
 10
5.516319
 20
2.089383
 30
0.0
 10
5.515272
 20
2.091866
 30
0.0
 10
5.514392
 20
2.094011
 30
0.0
 10
5.513621
 20
2.095733
 30
0.0
 10
5.512961
 20
2.097116
 30
0.0
 10
5.512464
 20
2.098103
 30
0.0
 10
5.512134
 20
2.098781
 30
0.0
 10
5.511965
 20
2.099119
 30
0.0
 10
5.456843
 20
2.193926
 30
0.0
 10
5.597954
 20
2.292320
 30
0.0
 10
5.667903
 20
2.207817
 30
0.0
 10
5.668129
 20
2.207535
 30
0.0
 10
5.668626
 20
2.206971
 30
0.0
 10
5.669396
 20
2.206152
 30
0.0
 10
5.670443
 20
2.205051
 30
0.0
 10
5.671821
 20
2.203725
 30
0.0
 10
5.673474
 20
2.202116
 30
0.0
 10
5.675458
 20
2.200367
 30
0.0
 10
5.677829
 20
2.198335
 30
0.0
 10
5.680473
 20
2.196133
 30
0.0
 10
5.683450
 20
2.193706
 30
0.0
 10
5.686812
 20
2.191110
 30
0.0
 10
5.690561
 20
2.188287
 30
0.0
 10
5.694640
 20
2.185366
 30
0.0
 10
5.699104
 20
2.182333
 30
0.0
 10
5.703955
 20
2.179138
 30
0.0
 10
5.709192
 20
2.175830
 30
0.0
 10
5.714814
 20
2.172466
 30
0.0
 10
5.720878
 20
2.168995
 30
0.0
 10
5.727327
 20
2.165410
 30
0.0
 10
5.734217
 20
2.161829
 30
0.0
 10
5.741438
 20
2.158135
 30
0.0
 10
5.749155
 20
2.154497
 30
0.0
 10
5.757313
 20
2.150805
 30
0.0
 10
5.765857
 20
2.147111
 30
0.0
 10
5.774842
 20
2.143473
 30
0.0
 10
5.784212
 20
2.139835
 30
0.0
 10
5.794079
 20
2.136251
 30
0.0
 10
5.802347
 20
2.133429
 30
0.0
 10
5.803560
 20
2.133711
 30
0.0
 10
5.862651
 20
2.192580
 30
0.0
 10
5.862820
 20
2.193794
 30
0.0
 10
5.860009
 20
2.202063
 30
0.0
 10
5.856537
 20
2.211819
 30
0.0
 10
5.852899
 20
2.221355
 30
0.0
 10
5.849260
 20
2.230339
 30
0.0
 10
5.845623
 20
2.238938
 30
0.0
 10
5.841984
 20
2.247040
 30
0.0
 10
5.838347
 20
2.254756
 30
0.0
 10
5.834708
 20
2.262035
 30
0.0
 10
5.831126
 20
2.268924
 30
0.0
 10
5.827598
 20
2.275373
 30
0.0
 10
5.824180
 20
2.281438
 30
0.0
 10
5.820763
 20
2.287113
 30
0.0
 10
5.817510
 20
2.292351
 30
0.0
 10
5.814313
 20
2.297200
 30
0.0
 10
5.811282
 20
2.301721
 30
0.0
 10
5.808416
 20
2.305799
 30
0.0
 10
5.805658
 20
2.309550
 30
0.0
 10
5.803067
 20
2.312911
 30
0.0
 10
5.800643
 20
2.315942
 30
0.0
 10
5.798439
 20
2.318595
 30
0.0
 10
5.796399
 20
2.320909
 30
0.0
 10
5.794635
 20
2.322885
 30
0.0
 10
5.793037
 20
2.324606
 30
0.0
 10
5.791714
 20
2.325989
 30
0.0
 10
5.790667
 20
2.327033
 30
0.0
 10
5.789840
 20
2.327795
 30
0.0
 10
5.789289
 20
2.328303
 30
0.0
 10
5.789064
 20
2.328586
 30
0.0
 10
5.704783
 20
2.398868
 30
0.0
 10
5.803781
 20
2.539592
 30
0.0
 10
5.898370
 20
2.484085
 30
0.0
 10
5.898652
 20
2.483802
 30
0.0
 10
5.899312
 20
2.483464
 30
0.0
 10
5.900306
 20
2.482956
 30
0.0
 10
5.901683
 20
2.482307
 30
0.0
 10
5.903447
 20
2.481545
 30
0.0
 10
5.905541
 20
2.480613
 30
0.0
 10
5.908022
 20
2.479625
 30
0.0
 10
5.910888
 20
2.478525
 30
0.0
 10
5.914195
 20
2.477368
 30
0.0
 10
5.917833
 20
2.476098
 30
0.0
 10
5.921857
 20
2.474771
 30
0.0
 10
5.926322
 20
2.473445
 30
0.0
 10
5.931173
 20
2.472118
 30
0.0
 10
5.936409
 20
2.470792
 30
0.0
 10
5.942031
 20
2.469409
 30
0.0
 10
5.948095
 20
2.468139
 30
0.0
 10
5.954544
 20
2.466869
 30
0.0
 10
5.961434
 20
2.465655
 30
0.0
 10
5.968710
 20
2.464498
 30
0.0
 10
5.976372
 20
2.463511
 30
0.0
 10
5.984475
 20
2.462523
 30
0.0
 10
5.992964
 20
2.461761
 30
0.0
 10
6.001838
 20
2.461055
 30
0.0
 10
6.011154
 20
2.460547
 30
0.0
 10
6.020855
 20
2.460152
 30
0.0
 10
6.030942
 20
2.459870
 30
0.0
 10
6.041416
 20
2.459870
 30
0.0
 10
6.050125
 20
2.460152
 30
0.0
 10
6.051228
 20
2.460717
 30
0.0
 10
6.086616
 20
2.536234
 30
0.0
 10
6.086334
 20
2.537447
 30
0.0
 10
6.080932
 20
2.544283
 30
0.0
 10
6.074208
 20
2.552331
 30
0.0
 10
6.067593
 20
2.559937
 30
0.0
 10
6.061144
 20
2.567159
 30
0.0
 10
6.054750
 20
2.573992
 30
0.0
 10
6.048521
 20
2.580387
 30
0.0
 10
6.042513
 20
2.586396
 30
0.0
 10
6.036615
 20
2.591964
 30
0.0
 10
6.030882
 20
2.597199
 30
0.0
 10
6.025370
 20
2.602104
 30
0.0
 10
6.020023
 20
2.606569
 30
0.0
 10
6.014952
 20
2.610760
 30
0.0
 10
6.010046
 20
2.614561
 30
0.0
 10
6.005416
 20
2.618036
 30
0.0
 10
6.001006
 20
2.621233
 30
0.0
 10
5.996872
 20
2.624098
 30
0.0
 10
5.993013
 20
2.626638
 30
0.0
 10
5.989431
 20
2.628952
 30
0.0
 10
5.986179
 20
2.630928
 30
0.0
 10
5.983147
 20
2.632677
 30
0.0
 10
5.980500
 20
2.634173
 30
0.0
 10
5.978129
 20
2.635443
 30
0.0
 10
5.976035
 20
2.636487
 30
0.0
 10
5.974327
 20
2.637306
 30
0.0
 10
5.972950
 20
2.637955
 30
0.0
 10
5.971903
 20
2.638406
 30
0.0
 10
5.971243
 20
2.638689
 30
0.0
 10
5.970961
 20
2.638689
 30
0.0
 10
5.867773
 20
2.675897
 30
0.0
 10
5.912587
 20
2.841976
 30
0.0
 10
6.020515
 20
2.822190
 30
0.0
 10
6.020797
 20
2.822190
 30
0.0
 10
6.021568
 20
2.822190
 30
0.0
 10
6.022671
 20
2.821907
 30
0.0
 10
6.024158
 20
2.821907
 30
0.0
 10
6.026089
 20
2.821625
 30
0.0
 10
6.028403
 20
2.821625
 30
0.0
 10
6.031047
 20
2.821625
 30
0.0
 10
6.034134
 20
2.821625
 30
0.0
 10
6.037607
 20
2.821625
 30
0.0
 10
6.041465
 20
2.821625
 30
0.0
 10
6.045710
 20
2.821907
 30
0.0
 10
6.050340
 20
2.822190
 30
0.0
 10
6.055356
 20
2.822585
 30
0.0
 10
6.060758
 20
2.823149
 30
0.0
 10
6.066491
 20
2.823798
 30
0.0
 10
6.072664
 20
2.824673
 30
0.0
 10
6.079169
 20
2.825661
 30
0.0
 10
6.086004
 20
2.826874
 30
0.0
 10
6.093225
 20
2.828314
 30
0.0
 10
6.100831
 20
2.829951
 30
0.0
 10
6.108714
 20
2.831842
 30
0.0
 10
6.116982
 20
2.833986
 30
0.0
 10
6.125581
 20
2.836357
 30
0.0
 10
6.134511
 20
2.839066
 30
0.0
 10
6.143716
 20
2.842044
 30
0.0
 10
6.153252
 20
2.845295
 30
0.0
 10
6.163119
 20
2.848879
 30
0.0
 10
6.171222
 20
2.852020
 30
0.0
 10
6.172102
 20
2.852952
 30
0.0
 10
6.179543
 20
2.936021
 30
0.0
 10
6.178827
 20
2.937065
 30
0.0
 10
6.171385
 20
2.941584
 30
0.0
 10
6.162345
 20
2.946875
 30
0.0
 10
6.153526
 20
2.951783
 30
0.0
 10
6.144982
 20
2.956358
 30
0.0
 10
6.136714
 20
2.960600
 30
0.0
 10
6.128666
 20
2.964461
 30
0.0
 10
6.120894
 20
2.968042
 30
0.0
 10
6.113452
 20
2.971296
 30
0.0
 10
6.106287
 20
2.974271
 30
0.0
 10
6.099452
 20
2.976924
 30
0.0
 10
6.092892
 20
2.979351
 30
0.0
 10
6.086663
 20
2.981552
 30
0.0
 10
6.080765
 20
2.983415
 30
0.0
 10
6.075253
 20
2.985136
 30
0.0
 10
6.070017
 20
2.986632
 30
0.0
 10
6.065166
 20
2.987902
 30
0.0
 10
6.060646
 20
2.989003
 30
0.0
 10
6.056512
 20
2.989934
 30
0.0
 10
6.052708
 20
2.990640
 30
0.0
 10
6.049346
 20
2.991232
 30
0.0
 10
6.046259
 20
2.991740
 30
0.0
 10
6.043615
 20
2.992135
 30
0.0
 10
6.041354
 20
2.992418
 30
0.0
 10
6.039424
 20
2.992700
 30
0.0
 10
6.037936
 20
2.992700
 30
0.0
 10
6.036779
 20
2.992700
 30
0.0
 10
6.036062
 20
2.992700
 30
0.0
 10
6.035732
 20
2.992700
 30
0.0
 10
5.926040
 20
2.992361
 30
0.0
 10
5.911378
 20
3.163789
 30
0.0
 10
6.019526
 20
3.182091
 30
0.0
 10
6.019857
 20
3.182091
 30
0.0
 10
6.020574
 20
3.182373
 30
0.0
 10
6.021677
 20
3.182655
 30
0.0
 10
6.023164
 20
3.183050
 30
0.0
 10
6.024985
 20
3.183558
 30
0.0
 10
6.027189
 20
3.184207
 30
0.0
 10
6.029726
 20
3.185026
 30
0.0
 10
6.032647
 20
3.186014
 30
0.0
 10
6.035900
 20
3.187227
 30
0.0
 10
6.039537
 20
3.188610
 30
0.0
 10
6.043451
 20
3.190219
 30
0.0
 10
6.047695
 20
3.192081
 30
0.0
 10
6.052270
 20
3.194113
 30
0.0
 10
6.057121
 20
3.196484
 30
0.0
 10
6.062358
 20
3.199080
 30
0.0
 10
6.067815
 20
3.202001
 30
0.0
 10
6.073603
 20
3.205143
 30
0.0
 10
6.079611
 20
3.208670
 30
0.0
 10
6.085895
 20
3.212475
 30
0.0
 10
6.092454
 20
3.216609
 30
0.0
 10
6.099289
 20
3.221074
 30
0.0
 10
6.106290
 20
3.225923
 30
0.0
 10
6.113566
 20
3.231104
 30
0.0
 10
6.121007
 20
3.236672
 30
0.0
 10
6.128669
 20
3.242624
 30
0.0
 10
6.136496
 20
3.248966
 30
0.0
 10
6.144544
 20
3.255689
 30
0.0
 10
6.151104
 20
3.261423
 30
0.0
 10
6.151600
 20
3.262580
 30
0.0
 10
6.130158
 20
3.343166
 30
0.0
 10
6.129165
 20
3.343928
 30
0.0
 10
6.120621
 20
3.345650
 30
0.0
 10
6.110313
 20
3.347512
 30
0.0
 10
6.100336
 20
3.349121
 30
0.0
 10
6.090745
 20
3.350504
 30
0.0
 10
6.081485
 20
3.351605
 30
0.0
 10
6.072610
 20
3.352536
 30
0.0
 10
6.064122
 20
3.353185
 30
0.0
 10
6.056019
 20
3.353721
 30
0.0
 10
6.048247
 20
3.354060
 30
0.0
 10
6.040915
 20
3.354342
 30
0.0
 10
6.033915
 20
3.354342
 30
0.0
 10
6.027355
 20
3.354342
 30
0.0
 10
6.021127
 20
3.354060
 30
0.0
 10
6.015339
 20
3.353721
 30
0.0
 10
6.009937
 20
3.353326
 30
0.0
 10
6.004976
 20
3.352875
 30
0.0
 10
6.000346
 20
3.352338
 30
0.0
 10
5.996157
 20
3.351830
 30
0.0
 10
5.992353
 20
3.351209
 30
0.0
 10
5.988881
 20
3.350617
 30
0.0
 10
5.985904
 20
3.350052
 30
0.0
 10
5.983260
 20
3.349488
 30
0.0
 10
5.980999
 20
3.348923
 30
0.0
 10
5.979181
 20
3.348472
 30
0.0
 10
5.977694
 20
3.348077
 30
0.0
 10
5.976591
 20
3.347738
 30
0.0
 10
5.975874
 20
3.347456
 30
0.0
 10
5.975592
 20
3.347456
 30
0.0
 10
5.872624
 20
3.309644
 30
0.0
 10
5.800250
 20
3.465693
 30
0.0
 10
5.895610
 20
3.519877
 30
0.0
 10
5.895892
 20
3.520159
 30
0.0
 10
5.896499
 20
3.520554
 30
0.0
 10
5.897436
 20
3.521231
 30
0.0
 10
5.898703
 20
3.522050
 30
0.0
 10
5.900247
 20
3.523151
 30
0.0
 10
5.902121
 20
3.524533
 30
0.0
 10
5.904215
 20
3.526199
 30
0.0
 10
5.906639
 20
3.528118
 30
0.0
 10
5.909284
 20
3.530375
 30
0.0
 10
5.912150
 20
3.532915
 30
0.0
 10
5.915292
 20
3.535783
 30
0.0
 10
5.918654
 20
3.538980
 30
0.0
 10
5.922237
 20
3.542452
 30
0.0
 10
5.926041
 20
3.546366
 30
0.0
 10
5.930009
 20
3.550554
 30
0.0
 10
5.934199
 20
3.555132
 30
0.0
 10
5.938498
 20
3.560147
 30
0.0
 10
5.942963
 20
3.565492
 30
0.0
 10
5.947593
 20
3.571227
 30
0.0
 10
5.952334
 20
3.577346
 30
0.0
 10
5.957184
 20
3.583848
 30
0.0
 10
5.962145
 20
3.590794
 30
0.0
 10
5.967216
 20
3.598179
 30
0.0
 10
5.972288
 20
3.605952
 30
0.0
 10
5.977469
 20
3.614164
 30
0.0
 10
5.982706
 20
3.622820
 30
0.0
 10
5.987887
 20
3.631860
 30
0.0
 10
5.992131
 20
3.639522
 30
0.0
 10
5.992188
 20
3.640792
 30
0.0
 10
5.944507
 20
3.709197
 30
0.0
 10
5.943294
 20
3.709536
 30
0.0
 10
5.934695
 20
3.708266
 30
0.0
 10
5.924332
 20
3.706516
 30
0.0
 10
5.914465
 20
3.704597
 30
0.0
 10
5.904929
 20
3.702621
 30
0.0
 10
5.895889
 20
3.700533
 30
0.0
 10
5.887235
 20
3.698332
 30
0.0
 10
5.879022
 20
3.696074
 30
0.0
 10
5.871195
 20
3.693760
 30
0.0
 10
5.863808
 20
3.691445
 30
0.0
 10
5.856808
 20
3.689131
 30
0.0
 10
5.850248
 20
3.686760
 30
0.0
 10
5.844130
 20
3.684390
 30
0.0
 10
5.838342
 20
3.682076
 30
0.0
 10
5.833051
 20
3.679818
 30
0.0
 10
5.828090
 20
3.677616
 30
0.0
 10
5.823514
 20
3.675472
 30
0.0
 10
5.819380
 20
3.673440
 30
0.0
 10
5.815632
 20
3.671464
 30
0.0
 10
5.812215
 20
3.669601
 30
0.0
 10
5.809238
 20
3.667880
 30
0.0
 10
5.806594
 20
3.666328
 30
0.0
 10
5.804280
 20
3.664888
 30
0.0
 10
5.802349
 20
3.663618
 30
0.0
 10
5.800805
 20
3.662574
 30
0.0
 10
5.799538
 20
3.661699
 30
0.0
 10
5.798658
 20
3.661050
 30
0.0
 10
5.798051
 20
3.660542
 30
0.0
 10
5.797825
 20
3.660260
 30
0.0
 10
5.713985
 20
3.589484
 30
0.0
 10
5.592552
 20
3.711359
 30
0.0
 10
5.663659
 20
3.794922
 30
0.0
 10
5.663829
 20
3.795204
 30
0.0
 10
5.664325
 20
3.795825
 30
0.0
 10
5.664986
 20
3.796757
 30
0.0
 10
5.665866
 20
3.797970
 30
0.0
 10
5.666913
 20
3.799579
 30
0.0
 10
5.668180
 20
3.801498
 30
0.0
 10
5.669614
 20
3.803756
 30
0.0
 10
5.671211
 20
3.806409
 30
0.0
 10
5.672922
 20
3.809386
 30
0.0
 10
5.674796
 20
3.812747
 30
0.0
 10
5.676780
 20
3.816552
 30
0.0
 10
5.678874
 20
3.820686
 30
0.0
 10
5.681024
 20
3.825205
 30
0.0
 10
5.683285
 20
3.830110
 30
0.0
 10
5.685546
 20
3.835458
 30
0.0
 10
5.687916
 20
3.841190
 30
0.0
 10
5.690287
 20
3.847365
 30
0.0
 10
5.692658
 20
3.853923
 30
0.0
 10
5.695028
 20
3.860869
 30
0.0
 10
5.697399
 20
3.868255
 30
0.0
 10
5.699713
 20
3.876081
 30
0.0
 10
5.701974
 20
3.884296
 30
0.0
 10
5.704234
 20
3.892893
 30
0.0
 10
5.706328
 20
3.901989
 30
0.0
 10
5.708369
 20
3.911471
 30
0.0
 10
5.710353
 20
3.921338
 30
0.0
 10
5.712117
 20
3.931698
 30
0.0
 10
5.713494
 20
3.940298
 30
0.0
 10
5.713107
 20
3.941511
 30
0.0
 10
5.644922
 20
3.989466
 30
0.0
 10
5.643655
 20
3.989466
 30
0.0
 10
5.635993
 20
3.985275
 30
0.0
 10
5.626898
 20
3.980094
 30
0.0
 10
5.618244
 20
3.974912
 30
0.0
 10
5.609975
 20
3.969787
 30
0.0
 10
5.602203
 20
3.964715
 30
0.0
 10
5.594817
 20
3.959700
 30
0.0
 10
5.587872
 20
3.954739
 30
0.0
 10
5.581312
 20
3.949944
 30
0.0
 10
5.575139
 20
3.945203
 30
0.0
 10
5.569406
 20
3.940628
 30
0.0
 10
5.564059
 20
3.936163
 30
0.0
 10
5.559043
 20
3.931865
 30
0.0
 10
5.554468
 20
3.927730
 30
0.0
 10
5.550224
 20
3.923759
 30
0.0
 10
5.546310
 20
3.919958
 30
0.0
 10
5.542782
 20
3.916430
 30
0.0
 10
5.539585
 20
3.913066
 30
0.0
 10
5.536719
 20
3.909925
 30
0.0
 10
5.534182
 20
3.907004
 30
0.0
 10
5.531921
 20
3.904351
 30
0.0
 10
5.529991
 20
3.901980
 30
0.0
 10
5.528337
 20
3.899892
 30
0.0
 10
5.526960
 20
3.898029
 30
0.0
 10
5.525803
 20
3.896477
 30
0.0
 10
5.524976
 20
3.895263
 30
0.0
 10
5.524315
 20
3.894276
 30
0.0
 10
5.523929
 20
3.893655
 30
0.0
 10
5.523759
 20
3.893372
 30
0.0
 10
5.469189
 20
3.798233
 30
0.0
 10
5.313416
 20
3.871269
 30
0.0
 10
5.351670
 20
3.974068
 30
0.0
 10
5.351727
 20
3.974350
 30
0.0
 10
5.352009
 20
3.975056
 30
0.0
 10
5.352291
 20
3.976157
 30
0.0
 10
5.352731
 20
3.977596
 30
0.0
 10
5.353172
 20
3.979459
 30
0.0
 10
5.353722
 20
3.981660
 30
0.0
 10
5.354272
 20
3.984313
 30
0.0
 10
5.354879
 20
3.987344
 30
0.0
 10
5.355486
 20
3.990762
 30
0.0
 10
5.356093
 20
3.994566
 30
0.0
 10
5.356643
 20
3.998754
 30
0.0
 10
5.357193
 20
4.003386
 30
0.0
 10
5.357634
 20
4.008401
 30
0.0
 10
5.358074
 20
4.013805
 30
0.0
 10
5.358404
 20
4.019591
 30
0.0
 10
5.358630
 20
4.025766
 30
0.0
 10
5.358743
 20
4.032325
 30
0.0
 10
5.358743
 20
4.039324
 30
0.0
 10
5.358630
 20
4.046656
 30
0.0
 10
5.358300
 20
4.054428
 30
0.0
 10
5.357803
 20
4.062531
 30
0.0
 10
5.357142
 20
4.071074
 30
0.0
 10
5.356262
 20
4.079950
 30
0.0
 10
5.355215
 20
4.089156
 30
0.0
 10
5.353891
 20
4.098802
 30
0.0
 10
5.352294
 20
4.108722
 30
0.0
 10
5.350474
 20
4.119085
 30
0.0
 10
5.348820
 20
4.127631
 30
0.0
 10
5.348049
 20
4.128619
 30
0.0
 10
5.267517
 20
4.150336
 30
0.0
 10
5.266359
 20
4.149856
 30
0.0
 10
5.260627
 20
4.143351
 30
0.0
 10
5.253847
 20
4.135358
 30
0.0
 10
5.247453
 20
4.127529
 30
0.0
 10
5.241500
 20
4.119870
 30
0.0
 10
5.235877
 20
4.112428
 30
0.0
 10
5.230696
 20
4.105206
 30
0.0
 10
5.225845
 20
4.098207
 30
0.0
 10
5.221325
 20
4.091428
 30
0.0
 10
5.217136
 20
4.084866
 30
0.0
 10
5.213332
 20
4.078584
 30
0.0
 10
5.209805
 20
4.072575
 30
0.0
 10
5.206608
 20
4.066843
 30
0.0
 10
5.203686
 20
4.061385
 30
0.0
 10
5.201042
 20
4.056203
 30
0.0
 10
5.198671
 20
4.051298
 30
0.0
 10
5.196577
 20
4.046724
 30
0.0
 10
5.194759
 20
4.042479
 30
0.0
 10
5.193106
 20
4.038565
 30
0.0
 10
5.191728
 20
4.034983
 30
0.0
 10
5.190515
 20
4.031729
 30
0.0
 10
5.189468
 20
4.028808
 30
0.0
 10
5.188641
 20
4.026268
 30
0.0
 10
5.187980
 20
4.024067
 30
0.0
 10
5.187484
 20
4.022261
 30
0.0
 10
5.187097
 20
4.020765
 30
0.0
 10
5.186815
 20
4.019664
 30
0.0
 10
5.186646
 20
4.018959
 30
0.0
 10
5.186589
 20
4.018620
 30
0.0
 10
5.167848
 20
3.910580
 30
0.0
 10
4.996475
 20
3.925904
 30
0.0
 10
4.997245
 20
4.035596
 30
0.0
 10
4.997245
 20
4.035878
 30
0.0
 10
4.997189
 20
4.036640
 30
0.0
 10
4.997132
 20
4.037740
 30
0.0
 10
4.997020
 20
4.039293
 30
0.0
 10
4.996850
 20
4.041155
 30
0.0
 10
4.996568
 20
4.043470
 30
0.0
 10
4.996181
 20
4.046122
 30
0.0
 10
4.995685
 20
4.049153
 30
0.0
 10
4.995078
 20
4.052571
 30
0.0
 10
4.994361
 20
4.056376
 30
0.0
 10
4.993481
 20
4.060507
 30
0.0
 10
4.992377
 20
4.065028
 30
0.0
 10
4.991110
 20
4.069880
 30
0.0
 10
4.989676
 20
4.075115
 30
0.0
 10
4.988022
 20
4.080683
 30
0.0
 10
4.986092
 20
4.086582
 30
0.0
 10
4.983941
 20
4.092810
 30
0.0
 10
4.981571
 20
4.099313
 30
0.0
 10
4.978926
 20
4.106205
 30
0.0
 10
4.975950
 20
4.113370
 30
0.0
 10
4.972753
 20
4.120866
 30
0.0
 10
4.969225
 20
4.128585
 30
0.0
 10
4.965367
 20
4.136631
 30
0.0
 10
4.961177
 20
4.144954
 30
0.0
 10
4.956657
 20
4.153553
 30
0.0
 10
4.951751
 20
4.162373
 30
0.0
 10
4.946515
 20
4.171469
 30
0.0
 10
4.941995
 20
4.178911
 30
0.0
 10
4.940948
 20
4.179560
 30
0.0
 10
4.940947
 20
4.179729
 30
0.0
  0
LWPOLYLINE
  5
105
100
AcDbEntity
  8
Layer_1
 62
7
100
AcDbPolyline
 90
22
 70
0
 10
0.700027
 20
4.499972
 30
0.0
 10
0.661023
 20
4.492139
 30
0.0
 10
0.629229
 20
4.470753
 30
0.0
 10
0.607823
 20
4.438978
 30
0.0
 10
0.599981
 20
4.399983
 30
0.0
 10
0.599981
 20
1.599975
 30
0.0
 10
0.607823
 20
1.560979
 30
0.0
 10
0.629229
 20
1.529204
 30
0.0
 10
0.661023
 20
1.507816
 30
0.0
 10
0.700027
 20
1.499983
 30
0.0
 10
3.499980
 20
1.499983
 30
0.0
 10
3.538984
 20
1.507816
 30
0.0
 10
3.570778
 20
1.529204
 30
0.0
 10
3.592184
 20
1.560979
 30
0.0
 10
3.600026
 20
1.599975
 30
0.0
 10
3.600026
 20
4.399983
 30
0.0
 10
3.592184
 20
4.438978
 30
0.0
 10
3.570778
 20
4.470753
 30
0.0
 10
3.538984
 20
4.492139
 30
0.0
 10
3.499980
 20
4.499972
 30
0.0
 10
0.700027
 20
4.499972
 30
0.0
 10
0.700027
 20
4.499972
 30
0.0
  0
LWPOLYLINE
  5
106
100
AcDbEntity
  8
Layer_1
 62
7
100
AcDbPolyline
 90
34
 70
0
 10
1.803615
 20
3.806380
 30
0.0
 10
1.906364
 20
3.796015
 30
0.0
 10
2.002079
 20
3.766288
 30
0.0
 10
2.088705
 20
3.719254
 30
0.0
 10
2.164188
 20
3.656968
 30
0.0
 10
2.226474
 20
3.581484
 30
0.0
 10
2.273507
 20
3.494858
 30
0.0
 10
2.303234
 20
3.399143
 30
0.0
 10
2.313599
 20
3.296396
 30
0.0
 10
2.303233
 20
3.193646
 30
0.0
 10
2.273506
 20
3.097925
 30
0.0
 10
2.226472
 20
3.011290
 30
0.0
 10
2.164186
 20
2.935796
 30
0.0
 10
2.088703
 20
2.873500
 30
0.0
 10
2.002077
 20
2.826457
 30
0.0
 10
1.906363
 20
2.796723
 30
0.0
 10
1.803615
 20
2.786355
 30
0.0
 10
1.700865
 20
2.796723
 30
0.0
 10
1.605144
 20
2.826456
 30
0.0
 10
1.518509
 20
2.873499
 30
0.0
 10
1.443015
 20
2.935795
 30
0.0
 10
1.380719
 20
3.011289
 30
0.0
 10
1.333677
 20
3.097924
 30
0.0
 10
1.303943
 20
3.193645
 30
0.0
 10
1.293575
 20
3.296396
 30
0.0
 10
1.303943
 20
3.399143
 30
0.0
 10
1.333677
 20
3.494857
 30
0.0
 10
1.380719
 20
3.581483
 30
0.0
 10
1.443015
 20
3.656967
 30
0.0
 10
1.518509
 20
3.719253
 30
0.0
 10
1.605144
 20
3.766287
 30
0.0
 10
1.700865
 20
3.796014
 30
0.0
 10
1.803615
 20
3.806380
 30
0.0
 10
1.803615
 20
3.806380
 30
0.0
  0
LWPOLYLINE
  5
107
100
AcDbEntity
  8
Layer_1
 62
7
100
AcDbPolyline
 90
34
 70
0
 10
2.932394
 20
2.527614
 30
0.0
 10
3.004912
 20
2.520294
 30
0.0
 10
3.072471
 20
2.499306
 30
0.0
 10
3.133620
 20
2.466100
 30
0.0
 10
3.186906
 20
2.422128
 30
0.0
 10
3.230879
 20
2.368842
 30
0.0
 10
3.264085
 20
2.307694
 30
0.0
 10
3.285074
 20
2.240135
 30
0.0
 10
3.292392
 20
2.167617
 30
0.0
 10
3.285074
 20
2.095098
 30
0.0
 10
3.264085
 20
2.027538
 30
0.0
 10
3.230879
 20
1.966389
 30
0.0
 10
3.186907
 20
1.913103
 30
0.0
 10
3.133621
 20
1.869130
 30
0.0
 10
3.072472
 20
1.835924
 30
0.0
 10
3.004912
 20
1.814936
 30
0.0
 10
2.932394
 20
1.807617
 30
0.0
 10
2.859875
 20
1.814935
 30
0.0
 10
2.792315
 20
1.835923
 30
0.0
 10
2.731166
 20
1.869129
 30
0.0
 10
2.677880
 20
1.913102
 30
0.0
 10
2.633908
 20
1.966389
 30
0.0
 10
2.600702
 20
2.027538
 30
0.0
 10
2.579714
 20
2.095098
 30
0.0
 10
2.572395
 20
2.167617
 30
0.0
 10
2.579714
 20
2.240135
 30
0.0
 10
2.600702
 20
2.307695
 30
0.0
 10
2.633908
 20
2.368843
 30
0.0
 10
2.677880
 20
2.422129
 30
0.0
 10
2.731167
 20
2.466101
 30
0.0
 10
2.792316
 20
2.499307
 30
0.0
 10
2.859875
 20
2.520295
 30
0.0
 10
2.932394
 20
2.527614
 30
0.0
 10
2.932394
 20
2.527614
 30
0.0
  0
LWPOLYLINE
  5
108
100
AcDbEntity
  8
Layer_1
 62
7
100
AcDbPolyline
 90
398
 70
1
 10
7.131694
 20
3.631463
 30
0.0
 10
7.125961
 20
3.628923
 30
0.0
 10
7.116591
 20
3.620103
 30
0.0
 10
7.107110
 20
3.610400
 30
0.0
 10
7.098511
 20
3.600920
 30
0.0
 10
7.090794
 20
3.591661
 30
0.0
 10
7.083904
 20
3.582785
 30
0.0
 10
7.077785
 20
3.574242
 30
0.0
 10
7.072493
 20
3.566139
 30
0.0
 10
7.067863
 20
3.558477
 30
0.0
 10
7.063950
 20
3.551365
 30
0.0
 10
7.060642
 20
3.544806
 30
0.0
 10
7.057941
 20
3.538798
 30
0.0
 10
7.055737
 20
3.533396
 30
0.0
 10
7.054030
 20
3.528711
 30
0.0
 10
7.052706
 20
3.524633
 30
0.0
 10
7.051769
 20
3.521325
 30
0.0
 10
7.051162
 20
3.518672
 30
0.0
 10
7.050776
 20
3.516810
 30
0.0
 10
7.050606
 20
3.515709
 30
0.0
 10
7.050550
 20
3.515314
 30
0.0
 10
7.040628
 20
3.388644
 30
0.0
 10
6.889705
 20
3.374920
 30
0.0
 10
6.857018
 20
3.497675
 30
0.0
 10
6.856905
 20
3.498014
 30
0.0
 10
6.856518
 20
3.499058
 30
0.0
 10
6.855802
 20
3.500864
 30
0.0
 10
6.854698
 20
3.503291
 30
0.0
 10
6.853211
 20
3.506432
 30
0.0
 10
6.851170
 20
3.510180
 30
0.0
 10
6.848636
 20
3.514535
 30
0.0
 10
6.845494
 20
3.519386
 30
0.0
 10
6.841746
 20
3.524845
 30
0.0
 10
6.837336
 20
3.530687
 30
0.0
 10
6.832155
 20
3.536972
 30
0.0
 10
6.826257
 20
3.543694
 30
0.0
 10
6.819587
 20
3.550696
 30
0.0
 10
6.812035
 20
3.557972
 30
0.0
 10
6.803657
 20
3.565468
 30
0.0
 10
6.794341
 20
3.573130
 30
0.0
 10
6.784199
 20
3.580959
 30
0.0
 10
6.773064
 20
3.588785
 30
0.0
 10
6.762316
 20
3.595730
 30
0.0
 10
6.756142
 20
3.597226
 30
0.0
 10
6.695012
 20
3.568397
 30
0.0
 10
6.692201
 20
3.562722
 30
0.0
 10
6.690714
 20
3.549988
 30
0.0
 10
6.689667
 20
3.536427
 30
0.0
 10
6.689170
 20
3.523640
 30
0.0
 10
6.689170
 20
3.511622
 30
0.0
 10
6.689667
 20
3.500322
 30
0.0
 10
6.690437
 20
3.489905
 30
0.0
 10
6.691595
 20
3.480259
 30
0.0
 10
6.692972
 20
3.471440
 30
0.0
 10
6.694569
 20
3.463447
 30
0.0
 10
6.696277
 20
3.456335
 30
0.0
 10
6.698040
 20
3.449943
 30
0.0
 10
6.699804
 20
3.444431
 30
0.0
 10
6.701515
 20
3.439746
 30
0.0
 10
6.703112
 20
3.435775
 30
0.0
 10
6.704546
 20
3.432634
 30
0.0
 10
6.705759
 20
3.430207
 30
0.0
 10
6.706696
 20
3.428542
 30
0.0
 10
6.707303
 20
3.427554
 30
0.0
 10
6.707472
 20
3.427272
 30
0.0
 10
6.781280
 20
3.323809
 30
0.0
 10
6.674510
 20
3.216268
 30
0.0
 10
6.570550
 20
3.289305
 30
0.0
 10
6.570268
 20
3.289587
 30
0.0
 10
6.569275
 20
3.290208
 30
0.0
 10
6.567567
 20
3.291083
 30
0.0
 10
6.565143
 20
3.292296
 30
0.0
 10
6.562001
 20
3.293736
 30
0.0
 10
6.558087
 20
3.295288
 30
0.0
 10
6.553292
 20
3.297009
 30
0.0
 10
6.547779
 20
3.298759
 30
0.0
 10
6.541440
 20
3.300481
 30
0.0
 10
6.534220
 20
3.302146
 30
0.0
 10
6.526227
 20
3.303642
 30
0.0
 10
6.517408
 20
3.304968
 30
0.0
 10
6.507761
 20
3.306012
 30
0.0
 10
6.497343
 20
3.306774
 30
0.0
 10
6.486099
 20
3.307113
 30
0.0
 10
6.474027
 20
3.307113
 30
0.0
 10
6.461239
 20
3.306492
 30
0.0
 10
6.447679
 20
3.305391
 30
0.0
 10
6.434946
 20
3.303783
 30
0.0
 10
6.429323
 20
3.300918
 30
0.0
 10
6.400991
 20
3.239566
 30
0.0
 10
6.402478
 20
3.233447
 30
0.0
 10
6.409534
 20
3.222700
 30
0.0
 10
6.417471
 20
3.211677
 30
0.0
 10
6.425298
 20
3.201534
 30
0.0
 10
6.433070
 20
3.192327
 30
0.0
 10
6.440622
 20
3.184005
 30
0.0
 10
6.447953
 20
3.176509
 30
0.0
 10
6.455009
 20
3.169837
 30
0.0
 10
6.461734
 20
3.163995
 30
0.0
 10
6.468073
 20
3.158924
 30
0.0
 10
6.474026
 20
3.154515
 30
0.0
 10
6.479428
 20
3.150767
 30
0.0
 10
6.484334
 20
3.147680
 30
0.0
 10
6.488688
 20
3.145196
 30
0.0
 10
6.492436
 20
3.143221
 30
0.0
 10
6.495578
 20
3.141725
 30
0.0
 10
6.498059
 20
3.140624
 30
0.0
 10
6.499823
 20
3.139947
 30
0.0
 10
6.500926
 20
3.139552
 30
0.0
 10
6.501257
 20
3.139552
 30
0.0
 10
6.624288
 20
3.107745
 30
0.0
 10
6.611610
 20
2.956768
 30
0.0
 10
6.485051
 20
2.945854
 30
0.0
 10
6.484664
 20
2.945854
 30
0.0
 10
6.483561
 20
2.945572
 30
0.0
 10
6.481687
 20
2.945177
 30
0.0
 10
6.479096
 20
2.944528
 30
0.0
 10
6.475733
 20
2.943597
 30
0.0
 10
6.471710
 20
2.942270
 30
0.0
 10
6.466969
 20
2.940520
 30
0.0
 10
6.461622
 20
2.938319
 30
0.0
 10
6.455669
 20
2.935553
 30
0.0
 10
6.449110
 20
2.932192
 30
0.0
 10
6.441999
 20
2.928221
 30
0.0
 10
6.434392
 20
2.923536
 30
0.0
 10
6.426345
 20
2.918134
 30
0.0
 10
6.417856
 20
2.912016
 30
0.0
 10
6.408981
 20
2.905070
 30
0.0
 10
6.399831
 20
2.897244
 30
0.0
 10
6.390405
 20
2.888589
 30
0.0
 10
6.380759
 20
2.878999
 30
0.0
 10
6.371995
 20
2.869572
 30
0.0
 10
6.369514
 20
2.863784
 30
0.0
 10
6.387263
 20
2.798577
 30
0.0
 10
6.392334
 20
2.794829
 30
0.0
 10
6.404626
 20
2.791134
 30
0.0
 10
6.417800
 20
2.787773
 30
0.0
 10
6.430313
 20
2.785064
 30
0.0
 10
6.442164
 20
2.782975
 30
0.0
 10
6.453354
 20
2.781480
 30
0.0
 10
6.463772
 20
2.780435
 30
0.0
 10
6.473473
 20
2.779871
 30
0.0
 10
6.482403
 20
2.779589
 30
0.0
 10
6.490506
 20
2.779871
 30
0.0
 10
6.497837
 20
2.780323
 30
0.0
 10
6.504396
 20
2.780972
 30
0.0
 10
6.510184
 20
2.781734
 30
0.0
 10
6.515090
 20
2.782609
 30
0.0
 10
6.519279
 20
2.783483
 30
0.0
 10
6.522642
 20
2.784358
 30
0.0
 10
6.525176
 20
2.785120
 30
0.0
 10
6.526996
 20
2.785741
 30
0.0
 10
6.528100
 20
2.786193
 30
0.0
 10
6.528430
 20
2.786193
 30
0.0
 10
6.643083
 20
2.840927
 30
0.0
 10
6.730450
 20
2.717124
 30
0.0
 10
6.640492
 20
2.627386
 30
0.0
 10
6.640266
 20
2.627104
 30
0.0
 10
6.639496
 20
2.626286
 30
0.0
 10
6.638282
 20
2.624733
 30
0.0
 10
6.636738
 20
2.622588
 30
0.0
 10
6.634754
 20
2.619724
 30
0.0
 10
6.632550
 20
2.616086
 30
0.0
 10
6.630070
 20
2.611731
 30
0.0
 10
6.627369
 20
2.606603
 30
0.0
 10
6.624611
 20
2.600651
 30
0.0
 10
6.621745
 20
2.593816
 30
0.0
 10
6.618824
 20
2.586210
 30
0.0
 10
6.616013
 20
2.577774
 30
0.0
 10
6.613255
 20
2.568461
 30
0.0
 10
6.610721
 20
2.558318
 30
0.0
 10
6.608407
 20
2.547294
 30
0.0
 10
6.606423
 20
2.535387
 30
0.0
 10
6.604769
 20
2.522710
 30
0.0
 10
6.603555
 20
2.509149
 30
0.0
 10
6.602895
 20
2.496362
 30
0.0
 10
6.604712
 20
2.490297
 30
0.0
 10
6.660220
 20
2.451711
 30
0.0
 10
6.666504
 20
2.452163
 30
0.0
 10
6.678300
 20
2.457232
 30
0.0
 10
6.690592
 20
2.463130
 30
0.0
 10
6.701892
 20
2.469085
 30
0.0
 10
6.712310
 20
2.475093
 30
0.0
 10
6.721846
 20
2.481156
 30
0.0
 10
6.730445
 20
2.487054
 30
0.0
 10
6.738272
 20
2.492842
 30
0.0
 10
6.745162
 20
2.498464
 30
0.0
 10
6.751336
 20
2.503810
 30
0.0
 10
6.756683
 20
2.508881
 30
0.0
 10
6.761258
 20
2.513566
 30
0.0
 10
6.765171
 20
2.517867
 30
0.0
 10
6.768423
 20
2.521725
 30
0.0
 10
6.771014
 20
2.525086
 30
0.0
 10
6.772998
 20
2.527909
 30
0.0
 10
6.774485
 20
2.530166
 30
0.0
 10
6.775476
 20
2.531831
 30
0.0
 10
6.776026
 20
2.532819
 30
0.0
 10
6.776196
 20
2.533158
 30
0.0
 10
6.828892
 20
2.648748
 30
0.0
 10
6.975405
 20
2.610109
 30
0.0
 10
6.964160
 20
2.483549
 30
0.0
 10
6.964104
 20
2.483154
 30
0.0
 10
6.964104
 20
2.482053
 30
0.0
 10
6.964160
 20
2.480134
 30
0.0
 10
6.964330
 20
2.477425
 30
0.0
 10
6.964716
 20
2.474007
 30
0.0
 10
6.965323
 20
2.469762
 30
0.0
 10
6.966204
 20
2.464857
 30
0.0
 10
6.967471
 20
2.459179
 30
0.0
 10
6.969178
 20
2.452784
 30
0.0
 10
6.971329
 20
2.445785
 30
0.0
 10
6.974030
 20
2.438069
 30
0.0
 10
6.977282
 20
2.429800
 30
0.0
 10
6.981196
 20
2.420870
 30
0.0
 10
6.985770
 20
2.411500
 30
0.0
 10
6.991062
 20
2.401577
 30
0.0
 10
6.997181
 20
2.391161
 30
0.0
 10
7.004071
 20
2.380354
 30
0.0
 10
7.011843
 20
2.369221
 30
0.0
 10
7.019560
 20
2.358967
 30
0.0
 10
7.024852
 20
2.355496
 30
0.0
 10
7.092210
 20
2.361668
 30
0.0
 10
7.096730
 20
2.366023
 30
0.0
 10
7.102518
 20
2.377490
 30
0.0
 10
7.108085
 20
2.389837
 30
0.0
 10
7.112936
 20
2.401744
 30
0.0
 10
7.117070
 20
2.413041
 30
0.0
 10
7.120487
 20
2.423791
 30
0.0
 10
7.123298
 20
2.433878
 30
0.0
 10
7.125503
 20
2.443304
 30
0.0
 10
7.127210
 20
2.452070
 30
0.0
 10
7.128477
 20
2.460116
 30
0.0
 10
7.129304
 20
2.467392
 30
0.0
 10
7.129854
 20
2.474007
 30
0.0
 10
7.130080
 20
2.479795
 30
0.0
 10
7.130080
 20
2.484810
 30
0.0
 10
7.129911
 20
2.489055
 30
0.0
 10
7.129629
 20
2.492526
 30
0.0
 10
7.129298
 20
2.495179
 30
0.0
 10
7.129016
 20
2.497042
 30
0.0
 10
7.128790
 20
2.498199
 30
0.0
 10
7.128678
 20
2.498538
 30
0.0
 10
7.094723
 20
2.620963
 30
0.0
 10
7.231810
 20
2.685510
 30
0.0
 10
7.304570
 20
2.581330
 30
0.0
 10
7.304796
 20
2.581048
 30
0.0
 10
7.305513
 20
2.580173
 30
0.0
 10
7.306780
 20
2.578734
 30
0.0
 10
7.308654
 20
2.576815
 30
0.0
 10
7.311135
 20
2.574388
 30
0.0
 10
7.314277
 20
2.571566
 30
0.0
 10
7.318190
 20
2.568368
 30
0.0
 10
7.322765
 20
2.564840
 30
0.0
 10
7.328167
 20
2.561039
 30
0.0
 10
7.334341
 20
2.557014
 30
0.0
 10
7.341341
 20
2.552880
 30
0.0
 10
7.349169
 20
2.548635
 30
0.0
 10
7.357878
 20
2.544337
 30
0.0
 10
7.367414
 20
2.540036
 30
0.0
 10
7.377887
 20
2.535847
 30
0.0
 10
7.389242
 20
2.531823
 30
0.0
 10
7.401424
 20
2.527965
 30
0.0
 10
7.414598
 20
2.524437
 30
0.0
 10
7.427055
 20
2.521570
 30
0.0
 10
7.433339
 20
2.522275
 30
0.0
 10
7.480964
 20
2.570287
 30
0.0
 10
7.481681
 20
2.576516
 30
0.0
 10
7.478705
 20
2.589029
 30
0.0
 10
7.475067
 20
2.602093
 30
0.0
 10
7.471153
 20
2.614331
 30
0.0
 10
7.467019
 20
2.625628
 30
0.0
 10
7.462719
 20
2.636048
 30
0.0
 10
7.458365
 20
2.645584
 30
0.0
 10
7.454010
 20
2.654237
 30
0.0
 10
7.449711
 20
2.662066
 30
0.0
 10
7.445521
 20
2.669011
 30
0.0
 10
7.441442
 20
2.675183
 30
0.0
 10
7.437639
 20
2.680532
 30
0.0
 10
7.434056
 20
2.685106
 30
0.0
 10
7.430804
 20
2.688964
 30
0.0
 10
7.427993
 20
2.692105
 30
0.0
 10
7.425569
 20
2.694589
 30
0.0
 10
7.423585
 20
2.696395
 30
0.0
 10
7.422151
 20
2.697665
 30
0.0
 10
7.421271
 20
2.698371
 30
0.0
 10
7.420988
 20
2.698653
 30
0.0
 10
7.316257
 20
2.770586
 30
0.0
 10
7.379757
 20
2.908169
 30
0.0
 10
7.502458
 20
2.875152
 30
0.0
 10
7.502788
 20
2.875152
 30
0.0
 10
7.503945
 20
2.874870
 30
0.0
 10
7.505819
 20
2.874588
 30
0.0
 10
7.508520
 20
2.874305
 30
0.0
 10
7.511938
 20
2.874023
 30
0.0
 10
7.516182
 20
2.874023
 30
0.0
 10
7.521253
 20
2.874023
 30
0.0
 10
7.527041
 20
2.874305
 30
0.0
 10
7.533600
 20
2.874898
 30
0.0
 10
7.540877
 20
2.875773
 30
0.0
 10
7.548924
 20
2.877099
 30
0.0
 10
7.557689
 20
2.878849
 30
0.0
 10
7.567114
 20
2.881163
 30
0.0
 10
7.577146
 20
2.884028
 30
0.0
 10
7.587840
 20
2.887556
 30
0.0
 10
7.599140
 20
2.891747
 30
0.0
 10
7.610991
 20
2.896652
 30
0.0
 10
7.623338
 20
2.902384
 30
0.0
 10
7.634749
 20
2.908172
 30
0.0
 10
7.639048
 20
2.912803
 30
0.0
 10
7.644725
 20
2.980161
 30
0.0
 10
7.641198
 20
2.985396
 30
0.0
 10
7.630890
 20
2.993059
 30
0.0
 10
7.619701
 20
3.000778
 30
0.0
 10
7.608841
 20
3.007557
 30
0.0
 10
7.598424
 20
3.013565
 30
0.0
 10
7.588446
 20
3.018800
 30
0.0
 10
7.579021
 20
3.023322
 30
0.0
 10
7.570091
 20
3.027179
 30
0.0
 10
7.561768
 20
3.030377
 30
0.0
 10
7.554051
 20
3.033030
 30
0.0
 10
7.546995
 20
3.035118
 30
0.0
 10
7.540656
 20
3.036784
 30
0.0
 10
7.534979
 20
3.037997
 30
0.0
 10
7.530018
 20
3.038872
 30
0.0
 10
7.525828
 20
3.039436
 30
0.0
 10
7.522356
 20
3.039775
 30
0.0
 10
7.519655
 20
3.040057
 30
0.0
 10
7.517725
 20
3.040057
 30
0.0
 10
7.516621
 20
3.040057
 30
0.0
 10
7.516234
 20
3.040057
 30
0.0
 10
7.389786
 20
3.027874
 30
0.0
 10
7.350043
 20
3.174056
 30
0.0
 10
7.465247
 20
3.227636
 30
0.0
 10
7.465577
 20
3.227919
 30
0.0
 10
7.466571
 20
3.228483
 30
0.0
 10
7.468171
 20
3.229471
 30
0.0
 10
7.470431
 20
3.230967
 30
0.0
 10
7.473242
 20
3.232999
 30
0.0
 10
7.476550
 20
3.235651
 30
0.0
 10
7.480408
 20
3.238903
 30
0.0
 10
7.484653
 20
3.242817
 30
0.0
 10
7.489338
 20
3.247446
 30
0.0
 10
7.494354
 20
3.252847
 30
0.0
 10
7.499646
 20
3.259022
 30
0.0
 10
7.505213
 20
3.266021
 30
0.0
 10
7.510946
 20
3.273850
 30
0.0
 10
7.516843
 20
3.282503
 30
0.0
 10
7.522742
 20
3.292096
 30
0.0
 10
7.528695
 20
3.302513
 30
0.0
 10
7.534593
 20
3.313923
 30
0.0
 10
7.540381
 20
3.326214
 30
0.0
 10
7.545396
 20
3.338011
 30
0.0
 10
7.545783
 20
3.344349
 30
0.0
 10
7.506757
 20
3.399580
 30
0.0
 10
7.500694
 20
3.401330
 30
0.0
 10
7.487905
 20
3.400568
 30
0.0
 10
7.474401
 20
3.399242
 30
0.0
 10
7.461668
 20
3.397520
 30
0.0
 10
7.449816
 20
3.395432
 30
0.0
 10
7.438847
 20
3.393004
 30
0.0
 10
7.428705
 20
3.390408
 30
0.0
 10
7.419389
 20
3.387586
 30
0.0
 10
7.410956
 20
3.384721
 30
0.0
 10
7.403349
 20
3.381744
 30
0.0
 10
7.396624
 20
3.378823
 30
0.0
 10
7.390671
 20
3.376001
 30
0.0
 10
7.385545
 20
3.373291
 30
0.0
 10
7.381190
 20
3.370751
 30
0.0
 10
7.377607
 20
3.368493
 30
0.0
 10
7.374741
 20
3.366518
 30
0.0
 10
7.372590
 20
3.364909
 30
0.0
 10
7.371103
 20
3.363696
 30
0.0
 10
7.370223
 20
3.362990
 30
0.0
 10
7.369940
 20
3.362708
 30
0.0
 10
7.280919
 20
3.272086
 30
0.0
 10
7.156454
 20
3.358517
 30
0.0
 10
7.210308
 20
3.473610
 30
0.0
 10
7.210478
 20
3.473949
 30
0.0
 10
7.210864
 20
3.474993
 30
0.0
 10
7.211471
 20
3.476799
 30
0.0
 10
7.212188
 20
3.479396
 30
0.0
 10
7.213068
 20
3.482760
 30
0.0
 10
7.213949
 20
3.486948
 30
0.0
 10
7.214776
 20
3.491909
 30
0.0
 10
7.215493
 20
3.497641
 30
0.0
 10
7.216100
 20
3.504200
 30
0.0
 10
7.216486
 20
3.511586
 30
0.0
 10
7.216599
 20
3.519691
 30
0.0
 10
7.216373
 20
3.528621
 30
0.0
 10
7.215713
 20
3.538321
 30
0.0
 10
7.214609
 20
3.548740
 30
0.0
 10
7.213066
 20
3.559874
 30
0.0
 10
7.210861
 20
3.571725
 30
0.0
 10
7.208051
 20
3.584182
 30
0.0
 10
7.204578
 20
3.597356
 30
0.0
 10
7.200830
 20
3.609593
 30
0.0
 10
7.197081
 20
3.614665
 30
0.0
 10
7.131652
 20
3.631917
 30
0.0
 10
7.131694
 20
3.631463
 30
0.0
  0
ENDSEC
  0
SECTION
  2
OBJECTS
  0
DICTIONARY
  5
C
330
0
100
AcDbDictionary
  3
ACAD_GROUP
350
D
  3
ACAD_MLINESTYLE
350
17
  0
DICTIONARY
  5
D
330
C
100
AcDbDictionary
  0
DICTIONARY
  5
1A
330
C
100
AcDbDictionary
  0
DICTIONARY
  5
17
330
C
100
AcDbDictionary
  3
STANDARD
350
18
  0
DICTIONARY
  5
19
330
C
100
AcDbDictionary
  0
ENDSEC
  0
EOF
