  0
SECTION
  2
HEADER
  9
$ACADVER
  1
AC1014
  9
$HANDSEED
  5
FFFF
  9
$INSUNITS
 70
     0
  9
$MEASUREMENT
 70
     1
  0
ENDSEC
  0
SECTION
  2
TABLES
  0
TABLE
  2
VPORT
  5
8
330
0
100
AcDbSymbolTable
 70
     4
  0
VPORT
  5
2E
330
8
100
AcDbSymbolTableRecord
100
AcDbViewportTableRecord
  2
*ACTIVE
 70
     0
 10
0.0
 20
0.0
 11
1.0
 21
1.0
 12
210.0
 22
148.5
 13
0.0
 23
0.0
 14
10.0
 24
10.0
 15
10.0
 25
10.0
 16
0.0
 26
0.0
 36
1.0
 17
0.0
 27
0.0
 37
0.0
 40
341.0
 41
1.24
 42
50.0
 43
0.0
 44
0.0
 50
0.0
 51
0.0
 71
     0
 72
   100
 73
     1
 74
     3
 75
     0
 76
     0
 77
     0
 78
     0
  0
ENDTAB
  0
TABLE
  2
LTYPE
  5
5
330
0
100
AcDbSymbolTable
 70
     1
  0
LTYPE
  5
14
330
5
100
AcDbSymbolTableRecord
100
AcDbLinetypeTableRecord
  2
BYBLOCK
 70
     0
  3

 72
    65
 73
     0
 40
0.0
  0
LTYPE
  5
15
330
5
100
AcDbSymbolTableRecord
100
AcDbLinetypeTableRecord
  2
BYLAYER
 70
     0
  3

 72
    65
 73
     0
 40
0.0
  0
LTYPE
  5
16
330
5
100
AcDbSymbolTableRecord
100
AcDbLinetypeTableRecord
  2
CONTINUOUS
 70
     0
  3
Solid line
 72
    65
 73
     0
 40
0.0
  0
ENDTAB
  0
TABLE
  2
LAYER
  5
2
100
AcDbSymbolTable
 70
1
  0
LAYER
  5
50
100
AcDbSymbolTableRecord
100
AcDbLayerTableRecord
  2
0
 70
0
  6
CONTINUOUS
  0
ENDTAB
  0
TABLE
  2
STYLE
  5
3
330
0
100
AcDbSymbolTable
 70
     1
  0
STYLE
  5
11
330
3
100
AcDbSymbolTableRecord
100
AcDbTextStyleTableRecord
  2
STANDARD
 70
     0
 40
0.0
 41
1.0
 50
0.0
 71
     0
 42
2.5
  3
txt
  4

  0
ENDTAB
  0
TABLE
  2
VIEW
  5
6
330
0
100
AcDbSymbolTable
 70
     0
  0
ENDTAB
  0
TABLE
  2
UCS
  5
7
330
0
100
AcDbSymbolTable
 70
     0
  0
ENDTAB
  0
TABLE
  2
APPID
  5
9
330
0
100
AcDbSymbolTable
 70
     2
  0
APPID
  5
12
330
9
100
AcDbSymbolTableRecord
100
AcDbRegAppTableRecord
  2
ACAD
 70
     0
  0
ENDTAB
  0
TABLE
  2
DIMSTYLE
  5
A
330
0
100
AcDbSymbolTable
 70
     1
  0
DIMSTYLE
105
27
330
A
100
AcDbSymbolTableRecord
100
AcDbDimStyleTableRecord
  2
ISO-25
 70
     0
  3

  4

  5

  6

  7

 40
1.0
 41
2.5
 42
0.625
 43
3.75
 44
1.25
 45
0.0
 46
0.0
 47
0.0
 48
0.0
140
2.5
141
2.5
142
0.0
143
0.03937007874016
144
1.0
145
0.0
146
1.0
147
0.625
 71
     0
 72
     0
 73
     0
 74
     0
 75
     0
 76
     0
 77
     1
 78
     8
170
     0
171
     3
172
     1
173
     0
174
     0
175
     0
176
     0
177
     0
178
     0
270
     2
271
     2
272
     2
273
     2
274
     3
340
11
275
     0
280
     0
281
     0
282
     0
283
     0
284
     8
285
     0
286
     0
287
     3
288
     0
  0
ENDTAB
  0
TABLE
  2
BLOCK_RECORD
  5
1
330
0
100
AcDbSymbolTable
 70
     1
  0
BLOCK_RECORD
  5
1F
330
1
100
AcDbSymbolTableRecord
100
AcDbBlockTableRecord
  2
*MODEL_SPACE
  0
BLOCK_RECORD
  5
1B
330
1
100
AcDbSymbolTableRecord
100
AcDbBlockTableRecord
  2
*PAPER_SPACE
  0
ENDTAB
  0
ENDSEC
  0
SECTION
  2
BLOCKS
  0
BLOCK
  5
20
330
1F
100
AcDbEntity
  8
0
100
AcDbBlockBegin
  2
*MODEL_SPACE
 70
     0
 10
0.0
 20
0.0
 30
0.0
  3
*MODEL_SPACE
  1

  0
ENDBLK
  5
21
330
1F
100
AcDbEntity
  8
0
100
AcDbBlockEnd
  0
BLOCK
  5
1C
330
1B
100
AcDbEntity
 67
     1
  8
0
100
AcDbBlockBegin
  2
*PAPER_SPACE
  1

  0
ENDBLK
  5
1D
330
1B
100
AcDbEntity
 67
     1
  8
0
100
AcDbBlockEnd
  0
ENDSEC
  0
SECTION
  2
ENTITIES
  0
LWPOLYLINE
  5
100
100
AcDbEntity
  8
0
 62
7
100
AcDbPolyline
 90
5
 70
1
 10
0.000000
 20
2500.000000
 30
0.0
 10
2500.000000
 20
2500.000000
 30
0.0
 10
2500.000000
 20
0.000000
 30
0.0
 10
0.000000
 20
0.000000
 30
0.0
 10
0.000000
 20
2500.000000
 30
0.0
  0
LWPOLYLINE
  5
101
100
AcDbEntity
  8
0
 62
7
100
AcDbPolyline
 90
129
 70
1
 10
1452.535848
 20
1931.898359
 30
0.0
 10
1413.652493
 20
1931.535205
 30
0.0
 10
1378.063458
 20
1926.279856
 30
0.0
 10
1346.080018
 20
1916.775613
 30
0.0
 10
1318.039387
 20
1903.663180
 30
0.0
 10
1294.238571
 20
1887.583266
 30
0.0
 10
1275.012192
 20
1869.179170
 30
0.0
 10
1260.679304
 20
1849.090301
 30
0.0
 10
1251.556372
 20
1827.958663
 30
0.0
 10
1123.441034
 20
1396.584283
 30
0.0
 10
1120.885991
 20
1382.334402
 30
0.0
 10
1120.570825
 20
1369.487850
 30
0.0
 10
1122.304883
 20
1357.981075
 30
0.0
 10
1125.896211
 20
1347.754415
 30
0.0
 10
1137.894540
 20
1330.897611
 30
0.0
 10
1155.040569
 20
1318.433667
 30
0.0
 10
1175.811648
 20
1309.873623
 30
0.0
 10
1198.685125
 20
1304.732408
 30
0.0
 10
1222.137054
 20
1302.523657
 30
0.0
 10
1244.643487
 20
1302.761004
 30
0.0
 10
1071.419307
 20
716.735147
 30
0.0
 10
1065.424682
 20
678.811555
 30
0.0
 10
1066.808556
 20
646.711386
 30
0.0
 10
1070.215713
 20
632.807798
 30
0.0
 10
1075.406213
 20
620.317915
 30
0.0
 10
1082.359304
 20
609.215796
 30
0.0
 10
1091.055531
 20
599.501442
 30
0.0
 10
1101.474143
 20
591.135944
 30
0.0
 10
1113.594389
 20
584.119301
 30
0.0
 10
1142.860663
 20
574.067733
 30
0.0
 10
1178.690936
 20
569.191102
 30
0.0
 10
1220.921787
 20
569.385648
 30
0.0
 10
1257.071116
 20
572.109299
 30
0.0
 10
1290.696528
 20
578.594181
 30
0.0
 10
1321.281828
 20
588.139928
 30
0.0
 10
1348.323788
 20
600.046172
 30
0.0
 10
1371.293241
 20
613.612546
 30
0.0
 10
1389.697338
 20
628.164623
 30
0.0
 10
1403.017286
 20
642.976094
 30
0.0
 10
1410.734296
 20
657.359563
 30
0.0
 10
1591.299363
 20
1262.269398
 30
0.0
 10
1878.177592
 20
1262.269398
 30
0.0
 10
1885.025628
 20
1243.001515
 30
0.0
 10
1887.489884
 20
1223.172041
 30
0.0
 10
1886.011330
 20
1202.815995
 30
0.0
 10
1880.992031
 20
1181.986553
 30
0.0
 10
1872.859989
 20
1160.729108
 30
0.0
 10
1862.017265
 20
1139.056631
 30
0.0
 10
1833.898815
 20
1094.700035
 30
0.0
 10
1622.024736
 20
1094.700035
 30
0.0
 10
1469.980182
 20
581.045467
 30
0.0
 10
1720.335554
 20
581.214074
 30
0.0
 10
1743.707070
 20
584.119301
 30
0.0
 10
1767.908651
 20
591.525037
 30
0.0
 10
1792.201021
 20
603.262674
 30
0.0
 10
1815.831933
 20
619.150636
 30
0.0
 10
1838.049140
 20
639.020316
 30
0.0
 10
1858.126336
 20
662.703107
 30
0.0
 10
1875.311274
 20
690.017431
 30
0.0
 10
1888.864679
 20
720.781714
 30
0.0
 10
1943.376600
 20
904.394675
 30
0.0
 10
1947.293469
 20
920.490153
 30
0.0
 10
1948.784992
 20
936.066841
 30
0.0
 10
1947.682562
 20
951.085829
 30
0.0
 10
1943.817572
 20
965.521177
 30
0.0
 10
1937.008446
 20
979.321007
 30
0.0
 10
1927.099546
 20
992.472348
 30
0.0
 10
1913.896325
 20
1004.910353
 30
0.0
 10
1897.243147
 20
1016.609081
 30
0.0
 10
1934.622009
 20
1038.981925
 30
0.0
 10
1965.399261
 20
1064.376725
 30
0.0
 10
1989.886177
 20
1092.663782
 30
0.0
 10
2008.368092
 20
1123.726369
 30
0.0
 10
2047.458964
 20
1257.717010
 30
0.0
 10
2053.425056
 20
1290.138828
 30
0.0
 10
2054.942518
 20
1318.804603
 30
0.0
 10
2051.894623
 20
1343.617060
 30
0.0
 10
2044.151674
 20
1364.481521
 30
0.0
 10
2031.622881
 20
1381.302009
 30
0.0
 10
2014.191517
 20
1393.986439
 30
0.0
 10
1991.740854
 20
1402.436241
 30
0.0
 10
1964.167134
 20
1406.558032
 30
0.0
 10
2082.243873
 20
1805.067028
 30
0.0
 10
2163.123327
 20
1805.067028
 30
0.0
 10
2197.441325
 20
1920.342298
 30
0.0
 10
1932.092905
 20
1920.342298
 30
0.0
 10
1897.891635
 20
1804.937330
 30
0.0
 10
1978.239328
 20
1804.937330
 30
0.0
 10
1860.214468
 20
1406.571002
 30
0.0
 10
1745.159684
 20
1406.571002
 30
0.0
 10
1897.346905
 20
1920.407147
 30
0.0
 10
1785.742078
 20
1920.355268
 30
0.0
 10
1715.731287
 20
1683.657059
 30
0.0
 10
1659.727842
 20
1683.657059
 30
0.0
 10
1729.816452
 20
1920.355268
 30
0.0
 10
1619.923634
 20
1920.355268
 30
0.0
 10
1437.205586
 20
1302.657245
 30
0.0
 10
1475.531242
 20
1302.657245
 30
0.0
 10
1310.244558
 20
742.960012
 30
0.0
 10
1303.642948
 20
733.064081
 30
0.0
 10
1291.959783
 20
725.801013
 30
0.0
 10
1277.175548
 20
721.248625
 30
0.0
 10
1261.272023
 20
719.536616
 30
0.0
 10
1246.229689
 20
720.755774
 30
0.0
 10
1234.030328
 20
724.996887
 30
0.0
 10
1226.654423
 20
732.363714
 30
0.0
 10
1225.395059
 20
737.253315
 30
0.0
 10
1226.083754
 20
742.960012
 30
0.0
 10
1423.898608
 20
1406.635851
 30
0.0
 10
1406.648820
 20
1406.635851
 30
0.0
 10
1481.834547
 20
1660.661666
 30
0.0
 10
1372.175185
 20
1660.661666
 30
0.0
 10
1300.841478
 20
1418.075183
 30
0.0
 10
1296.250182
 20
1411.965127
 30
0.0
 10
1287.682355
 20
1407.538546
 30
0.0
 10
1264.636380
 20
1403.859024
 30
0.0
 10
1253.167217
 20
1404.668337
 30
0.0
 10
1243.739494
 20
1407.286933
 30
0.0
 10
1237.859003
 20
1411.745938
 30
0.0
 10
1237.030235
 20
1418.075183
 30
0.0
 10
1349.024155
 20
1796.351346
 30
0.0
 10
1352.681629
 20
1805.462606
 30
0.0
 10
1357.739837
 20
1812.431260
 30
0.0
 10
1364.185810
 20
1817.285843
 30
0.0
 10
1372.006578
 20
1820.047106
 30
0.0
 10
1381.176202
 20
1820.742286
 30
0.0
 10
1391.681712
 20
1819.394727
 30
0.0
 10
1416.661479
 20
1810.669966
 30
0.0
 10
1452.535848
 20
1931.898359
 30
0.0
  0
LWPOLYLINE
  5
102
100
AcDbEntity
  8
0
 62
7
100
AcDbPolyline
 90
12
 70
1
 10
1660.687605
 20
731.365042
 30
0.0
 10
1721.995684
 20
938.894250
 30
0.0
 10
1787.480027
 20
938.894250
 30
0.0
 10
1793.433149
 20
921.099732
 30
0.0
 10
1795.054369
 20
900.283260
 30
0.0
 10
1792.551205
 20
876.795015
 30
0.0
 10
1786.092262
 20
850.985183
 30
0.0
 10
1775.872087
 20
823.190977
 30
0.0
 10
1762.098197
 20
793.736641
 30
0.0
 10
1744.939198
 20
762.985329
 30
0.0
 10
1724.602606
 20
731.261284
 30
0.0
 10
1660.687605
 20
731.365042
 30
0.0
  0
LWPOLYLINE
  5
103
100
AcDbEntity
  8
0
 62
7
100
AcDbPolyline
 90
5
 70
1
 10
1625.656270
 20
1568.070514
 30
0.0
 10
1681.763473
 20
1568.070514
 30
0.0
 10
1633.866131
 20
1406.571002
 30
0.0
 10
1577.888626
 20
1406.571002
 30
0.0
 10
1625.656270
 20
1568.070514
 30
0.0
  0
LWPOLYLINE
  5
104
100
AcDbEntity
  8
0
 62
7
100
AcDbPolyline
 90
11
 70
1
 10
1113.078192
 20
1920.407147
 30
0.0
 10
1221.803731
 20
1920.407147
 30
0.0
 10
1069.862936
 20
1406.558032
 30
0.0
 10
1089.123036
 20
1406.558032
 30
0.0
 10
889.336778
 20
731.261284
 30
0.0
 10
1033.781050
 20
731.261284
 30
0.0
 10
989.476333
 20
581.058437
 30
0.0
 10
696.917346
 20
581.058437
 30
0.0
 10
941.073170
 20
1406.609911
 30
0.0
 10
961.137397
 20
1406.609911
 30
0.0
 10
1113.078192
 20
1920.407147
 30
0.0
  0
LWPOLYLINE
  5
105
100
AcDbEntity
  8
0
 62
7
100
AcDbPolyline
 90
61
 70
1
 10
835.058312
 20
1920.355268
 30
0.0
 10
1060.200461
 20
1920.355268
 30
0.0
 10
1025.947312
 20
1804.950300
 30
0.0
 10
909.829007
 20
1804.950300
 30
0.0
 10
873.954637
 20
1683.682998
 30
0.0
 10
990.059972
 20
1683.682998
 30
0.0
 10
955.910581
 20
1568.213181
 30
0.0
 10
839.844155
 20
1568.213181
 30
0.0
 10
792.284027
 20
1407.867978
 30
0.0
 10
805.698655
 20
1402.200191
 30
0.0
 10
816.698313
 20
1394.180985
 30
0.0
 10
825.420480
 20
1383.946544
 30
0.0
 10
832.005229
 20
1371.635643
 30
0.0
 10
836.590041
 20
1357.387059
 30
0.0
 10
839.313692
 20
1341.338272
 30
0.0
 10
839.730021
 20
1304.388709
 30
0.0
 10
834.367024
 20
1261.893274
 30
0.0
 10
824.329723
 20
1214.953101
 30
0.0
 10
810.728330
 20
1164.671917
 30
0.0
 10
794.670464
 20
1112.157339
 30
0.0
 10
644.467617
 20
1112.157339
 30
0.0
 10
685.478014
 20
1244.902882
 30
0.0
 10
686.003289
 20
1256.940121
 30
0.0
 10
680.102046
 20
1265.935950
 30
0.0
 10
669.549845
 20
1271.690635
 30
0.0
 10
656.119654
 20
1274.007035
 30
0.0
 10
641.584438
 20
1272.685416
 30
0.0
 10
627.717166
 20
1267.526043
 30
0.0
 10
616.293397
 20
1258.331777
 30
0.0
 10
609.086098
 20
1244.902882
 30
0.0
 10
460.063500
 20
741.676005
 30
0.0
 10
459.127083
 20
733.582872
 30
0.0
 10
461.421434
 20
727.655689
 30
0.0
 10
466.434248
 20
723.544274
 30
0.0
 10
473.651923
 20
720.911411
 30
0.0
 10
492.648737
 20
718.784370
 30
0.0
 10
514.303057
 20
718.602793
 30
0.0
 10
471.865986
 20
567.777397
 30
0.0
 10
433.939800
 20
567.881155
 30
0.0
 10
398.179564
 20
570.371350
 30
0.0
 10
366.039189
 20
576.843263
 30
0.0
 10
351.780230
 20
582.070078
 30
0.0
 10
338.969993
 20
588.892175
 30
0.0
 10
327.790056
 20
597.504098
 30
0.0
 10
318.424589
 20
608.113366
 30
0.0
 10
311.051277
 20
620.914524
 30
0.0
 10
305.855589
 20
636.115089
 30
0.0
 10
303.016508
 20
653.896636
 30
0.0
 10
302.715609
 20
674.479653
 30
0.0
 10
305.135767
 20
698.058686
 30
0.0
 10
310.457262
 20
724.828280
 30
0.0
 10
473.318600
 20
1276.224865
 30
0.0
 10
486.948526
 20
1308.764708
 30
0.0
 10
504.184046
 20
1337.461609
 30
0.0
 10
525.109465
 20
1362.227376
 30
0.0
 10
549.815570
 20
1382.971217
 30
0.0
 10
578.389259
 20
1399.601050
 30
0.0
 10
610.917429
 20
1412.028679
 30
0.0
 10
647.488275
 20
1420.162018
 30
0.0
 10
688.188695
 20
1423.911577
 30
0.0
 10
835.058312
 20
1920.355268
 30
0.0
  0
ENDSEC
  0
SECTION
  2
OBJECTS
  0
DICTIONARY
  5
C
330
0
100
AcDbDictionary
  3
ACAD_GROUP
350
D
  3
ACAD_MLINESTYLE
350
17
  0
DICTIONARY
  5
D
330
C
100
AcDbDictionary
  0
DICTIONARY
  5
1A
330
C
100
AcDbDictionary
  0
DICTIONARY
  5
17
330
C
100
AcDbDictionary
  3
STANDARD
350
18
  0
DICTIONARY
  5
19
330
C
100
AcDbDictionary
  0
ENDSEC
  0
EOF
