  0
SECTION
  2
HEADER
  9
$ACADVER
  1
AC1014
  9
$HANDSEED
  5
FFFF
  9
$INSUNITS
 70
     0
  9
$MEASUREMENT
 70
     1
  0
ENDSEC
  0
SECTION
  2
TABLES
  0
TABLE
  2
VPORT
  5
8
330
0
100
AcDbSymbolTable
 70
     4
  0
VPORT
  5
2E
330
8
100
AcDbSymbolTableRecord
100
AcDbViewportTableRecord
  2
*ACTIVE
 70
     0
 10
0.0
 20
0.0
 11
1.0
 21
1.0
 12
210.0
 22
148.5
 13
0.0
 23
0.0
 14
10.0
 24
10.0
 15
10.0
 25
10.0
 16
0.0
 26
0.0
 36
1.0
 17
0.0
 27
0.0
 37
0.0
 40
341.0
 41
1.24
 42
50.0
 43
0.0
 44
0.0
 50
0.0
 51
0.0
 71
     0
 72
   100
 73
     1
 74
     3
 75
     0
 76
     0
 77
     0
 78
     0
  0
ENDTAB
  0
TABLE
  2
LTYPE
  5
5
330
0
100
AcDbSymbolTable
 70
     1
  0
LTYPE
  5
14
330
5
100
AcDbSymbolTableRecord
100
AcDbLinetypeTableRecord
  2
BYBLOCK
 70
     0
  3

 72
    65
 73
     0
 40
0.0
  0
LTYPE
  5
15
330
5
100
AcDbSymbolTableRecord
100
AcDbLinetypeTableRecord
  2
BYLAYER
 70
     0
  3

 72
    65
 73
     0
 40
0.0
  0
LTYPE
  5
16
330
5
100
AcDbSymbolTableRecord
100
AcDbLinetypeTableRecord
  2
CONTINUOUS
 70
     0
  3
Solid line
 72
    65
 73
     0
 40
0.0
  0
ENDTAB
  0
TABLE
  2
LAYER
  5
2
100
AcDbSymbolTable
 70
1
  0
LAYER
  5
50
100
AcDbSymbolTableRecord
100
AcDbLayerTableRecord
  2
0
 70
0
  6
CONTINUOUS
  0
ENDTAB
  0
TABLE
  2
STYLE
  5
3
330
0
100
AcDbSymbolTable
 70
     1
  0
STYLE
  5
11
330
3
100
AcDbSymbolTableRecord
100
AcDbTextStyleTableRecord
  2
STANDARD
 70
     0
 40
0.0
 41
1.0
 50
0.0
 71
     0
 42
2.5
  3
txt
  4

  0
ENDTAB
  0
TABLE
  2
VIEW
  5
6
330
0
100
AcDbSymbolTable
 70
     0
  0
ENDTAB
  0
TABLE
  2
UCS
  5
7
330
0
100
AcDbSymbolTable
 70
     0
  0
ENDTAB
  0
TABLE
  2
APPID
  5
9
330
0
100
AcDbSymbolTable
 70
     2
  0
APPID
  5
12
330
9
100
AcDbSymbolTableRecord
100
AcDbRegAppTableRecord
  2
ACAD
 70
     0
  0
ENDTAB
  0
TABLE
  2
DIMSTYLE
  5
A
330
0
100
AcDbSymbolTable
 70
     1
  0
DIMSTYLE
105
27
330
A
100
AcDbSymbolTableRecord
100
AcDbDimStyleTableRecord
  2
ISO-25
 70
     0
  3

  4

  5

  6

  7

 40
1.0
 41
2.5
 42
0.625
 43
3.75
 44
1.25
 45
0.0
 46
0.0
 47
0.0
 48
0.0
140
2.5
141
2.5
142
0.0
143
0.03937007874016
144
1.0
145
0.0
146
1.0
147
0.625
 71
     0
 72
     0
 73
     0
 74
     0
 75
     0
 76
     0
 77
     1
 78
     8
170
     0
171
     3
172
     1
173
     0
174
     0
175
     0
176
     0
177
     0
178
     0
270
     2
271
     2
272
     2
273
     2
274
     3
340
11
275
     0
280
     0
281
     0
282
     0
283
     0
284
     8
285
     0
286
     0
287
     3
288
     0
  0
ENDTAB
  0
TABLE
  2
BLOCK_RECORD
  5
1
330
0
100
AcDbSymbolTable
 70
     1
  0
BLOCK_RECORD
  5
1F
330
1
100
AcDbSymbolTableRecord
100
AcDbBlockTableRecord
  2
*MODEL_SPACE
  0
BLOCK_RECORD
  5
1B
330
1
100
AcDbSymbolTableRecord
100
AcDbBlockTableRecord
  2
*PAPER_SPACE
  0
ENDTAB
  0
ENDSEC
  0
SECTION
  2
BLOCKS
  0
BLOCK
  5
20
330
1F
100
AcDbEntity
  8
0
100
AcDbBlockBegin
  2
*MODEL_SPACE
 70
     0
 10
0.0
 20
0.0
 30
0.0
  3
*MODEL_SPACE
  1

  0
ENDBLK
  5
21
330
1F
100
AcDbEntity
  8
0
100
AcDbBlockEnd
  0
BLOCK
  5
1C
330
1B
100
AcDbEntity
 67
     1
  8
0
100
AcDbBlockBegin
  2
*PAPER_SPACE
  1

  0
ENDBLK
  5
1D
330
1B
100
AcDbEntity
 67
     1
  8
0
100
AcDbBlockEnd
  0
ENDSEC
  0
SECTION
  2
ENTITIES
  0
LWPOLYLINE
  5
100
100
AcDbEntity
  8
0
 62
7
100
AcDbPolyline
 90
142
 70
1
 10
1427.919235
 20
1912.103903
 30
0.0
 10
1396.506464
 20
1909.097512
 30
0.0
 10
1367.960012
 20
1902.760485
 30
0.0
 10
1342.487393
 20
1893.590861
 30
0.0
 10
1320.309095
 20
1882.093164
 30
0.0
 10
1301.645604
 20
1868.768028
 30
0.0
 10
1286.697950
 20
1854.114788
 30
0.0
 10
1275.680134
 20
1838.637967
 30
0.0
 10
1268.808753
 20
1822.835606
 30
0.0
 10
1268.808753
 20
1822.810963
 30
0.0
 10
1140.882774
 20
1392.098041
 30
0.0
 10
1138.487259
 20
1370.631783
 30
0.0
 10
1142.226442
 20
1355.341727
 30
0.0
 10
1150.563407
 20
1343.650781
 30
0.0
 10
1163.630445
 20
1334.239920
 30
0.0
 10
1181.117579
 20
1327.180477
 30
0.0
 10
1201.443794
 20
1322.691641
 30
0.0
 10
1222.845203
 20
1320.600915
 30
0.0
 10
1243.552730
 20
1320.738395
 30
0.0
 10
1269.187470
 20
1322.283094
 30
0.0
 10
1088.927193
 20
712.558883
 30
0.0
 10
1088.927193
 20
712.481064
 30
0.0
 10
1083.286642
 20
677.903671
 30
0.0
 10
1084.215277
 20
650.329951
 30
0.0
 10
1091.121677
 20
628.852020
 30
0.0
 10
1103.418311
 20
612.561995
 30
0.0
 10
1121.767935
 20
600.279628
 30
0.0
 10
1147.254820
 20
591.680674
 30
0.0
 10
1179.936033
 20
587.232045
 30
0.0
 10
1219.867345
 20
587.361742
 30
0.0
 10
1220.248656
 20
587.361742
 30
0.0
 10
1220.627373
 20
587.387682
 30
0.0
 10
1254.676897
 20
589.968665
 30
0.0
 10
1286.308857
 20
596.077424
 30
0.0
 10
1314.978522
 20
605.000623
 30
0.0
 10
1340.113926
 20
616.063832
 30
0.0
 10
1361.034157
 20
628.657474
 30
0.0
 10
1377.194484
 20
641.705057
 30
0.0
 10
1388.192845
 20
653.689120
 30
0.0
 10
1393.692025
 20
663.131109
 30
0.0
 10
1577.875656
 20
1280.257164
 30
0.0
 10
1889.474258
 20
1280.257164
 30
0.0
 10
1894.389799
 20
1270.099245
 30
0.0
 10
1902.469962
 20
1247.197234
 30
0.0
 10
1905.388159
 20
1223.724553
 30
0.0
 10
1903.753969
 20
1200.053435
 30
0.0
 10
1898.164000
 20
1176.578161
 30
0.0
 10
1889.331590
 20
1153.388221
 30
0.0
 10
1877.814439
 20
1130.340949
 30
0.0
 10
1848.619498
 20
1084.350163
 30
0.0
 10
1843.250016
 20
1076.698002
 30
0.0
 10
1635.461412
 20
1076.698002
 30
0.0
 10
1494.078005
 20
599.060470
 30
0.0
 10
1719.855672
 20
599.216107
 30
0.0
 10
1739.803171
 20
601.810060
 30
0.0
 10
1761.034676
 20
608.502459
 30
0.0
 10
1782.784972
 20
619.150636
 30
0.0
 10
1804.262902
 20
633.598954
 30
0.0
 10
1824.690282
 20
651.704746
 30
0.0
 10
1843.275955
 20
673.351283
 30
0.0
 10
1859.241736
 20
698.356990
 30
0.0
 10
1871.796468
 20
726.605138
 30
0.0
 10
1926.165722
 20
909.608521
 30
0.0
 10
1926.191662
 20
909.712279
 30
0.0
 10
1930.834838
 20
936.209508
 30
0.0
 10
1929.965864
 20
948.063873
 30
0.0
 10
1926.969848
 20
959.178962
 30
0.0
 10
1921.691154
 20
969.930897
 30
0.0
 10
1913.688809
 20
980.527195
 30
0.0
 10
1902.547781
 20
990.993795
 30
0.0
 10
1887.840067
 20
1001.278819
 30
0.0
 10
1860.473863
 20
1018.048725
 30
0.0
 10
1889.046255
 20
1032.639710
 30
0.0
 10
1924.064621
 20
1053.546971
 30
0.0
 10
1952.494345
 20
1076.931457
 30
0.0
 10
1974.880159
 20
1102.754259
 30
0.0
 10
1991.714914
 20
1130.924589
 30
0.0
 10
2029.975721
 20
1262.021675
 30
0.0
 10
2035.500840
 20
1292.321640
 30
0.0
 10
2036.836726
 20
1318.117205
 30
0.0
 10
2034.320592
 20
1339.353898
 30
0.0
 10
2028.302621
 20
1355.974652
 30
0.0
 10
2018.912511
 20
1368.795264
 30
0.0
 10
2005.501774
 20
1378.570576
 30
0.0
 10
1987.175496
 20
1385.204611
 30
0.0
 10
1963.025794
 20
1388.601392
 30
0.0
 10
1940.497313
 20
1390.021582
 30
0.0
 10
2068.807197
 20
1823.063873
 30
0.0
 10
2149.712590
 20
1823.063873
 30
0.0
 10
2173.291623
 20
1902.351937
 30
0.0
 10
1945.542551
 20
1902.351937
 30
0.0
 10
1921.976488
 20
1822.938067
 30
0.0
 10
2002.337152
 20
1822.938067
 30
0.0
 10
1873.651144
 20
1388.578047
 30
0.0
 10
1721.048891
 20
1388.578047
 30
0.0
 10
1873.223142
 20
1902.402519
 30
0.0
 10
1799.204694
 20
1902.351937
 30
0.0
 10
1729.180933
 20
1665.653728
 30
0.0
 10
1635.630019
 20
1665.653728
 30
0.0
 10
1705.731598
 20
1902.351937
 30
0.0
 10
1633.373280
 20
1902.351937
 30
0.0
 10
1461.303409
 20
1320.661873
 30
0.0
 10
1499.603125
 20
1320.661873
 30
0.0
 10
1327.468406
 20
737.785075
 30
0.0
 10
1327.468406
 20
737.733196
 30
0.0
 10
1322.812260
 20
727.759447
 30
0.0
 10
1316.055013
 20
719.899770
 30
0.0
 10
1299.155409
 20
709.303472
 30
0.0
 10
1280.704621
 20
703.570836
 30
0.0
 10
1261.562545
 20
701.534583
 30
0.0
 10
1242.784920
 20
702.935317
 30
0.0
 10
1225.083785
 20
709.355351
 30
0.0
 10
1216.905051
 20
715.528959
 30
0.0
 10
1210.417575
 20
724.581855
 30
0.0
 10
1207.517535
 20
736.086036
 30
0.0
 10
1208.771711
 20
747.888522
 30
0.0
 10
1208.796354
 20
747.992280
 30
0.0
 10
1399.748905
 20
1388.627332
 30
0.0
 10
1382.550997
 20
1388.627332
 30
0.0
 10
1457.736724
 20
1642.651850
 30
0.0
 10
1385.637801
 20
1642.651850
 30
0.0
 10
1318.078296
 20
1412.919702
 30
0.0
 10
1318.078296
 20
1412.871713
 30
0.0
 10
1313.824213
 20
1404.075619
 30
0.0
 10
1307.819212
 20
1397.828083
 30
0.0
 10
1293.709405
 20
1390.577985
 30
0.0
 10
1279.410239
 20
1387.010002
 30
0.0
 10
1264.754405
 20
1385.867366
 30
0.0
 10
1250.365747
 20
1386.790813
 30
0.0
 10
1236.383044
 20
1390.856835
 30
0.0
 10
1229.376777
 20
1394.880056
 30
0.0
 10
1222.906161
 20
1401.724201
 30
0.0
 10
1219.121584
 20
1412.155782
 30
0.0
 10
1219.790824
 20
1423.281247
 30
0.0
 10
1331.735458
 20
1801.355081
 30
0.0
 10
1337.169790
 20
1814.061560
 30
0.0
 10
1345.431530
 20
1824.877047
 30
0.0
 10
1356.001888
 20
1833.012980
 30
0.0
 10
1368.413953
 20
1837.682095
 30
0.0
 10
1386.234410
 20
1838.119177
 30
0.0
 10
1404.742265
 20
1833.856015
 30
0.0
 10
1427.919235
 20
1912.103903
 30
0.0
  0
LWPOLYLINE
  5
101
100
AcDbEntity
  8
0
 62
7
100
AcDbPolyline
 90
11
 70
1
 10
1126.520056
 20
1902.402519
 30
0.0
 10
974.581855
 20
1388.603986
 30
0.0
 10
954.518925
 20
1388.603986
 30
0.0
 10
721.011279
 20
599.073440
 30
0.0
 10
976.025390
 20
599.073440
 30
0.0
 10
1009.691008
 20
713.259250
 30
0.0
 10
865.250628
 20
713.259250
 30
0.0
 10
1065.016134
 20
1388.552107
 30
0.0
 10
1045.763815
 20
1388.552107
 30
0.0
 10
1197.700720
 20
1902.402519
 30
0.0
 10
1126.520056
 20
1902.402519
 30
0.0
  0
LWPOLYLINE
  5
102
100
AcDbEntity
  8
0
 62
7
100
AcDbPolyline
 90
70
 70
1
 10
848.505364
 20
1902.351937
 30
0.0
 10
701.784899
 20
1406.386831
 30
0.0
 10
688.842371
 20
1405.930295
 30
0.0
 10
650.253429
 20
1402.521841
 30
0.0
 10
616.043080
 20
1395.222457
 30
0.0
 10
585.988244
 20
1384.043817
 30
0.0
 10
559.869732
 20
1368.996296
 30
0.0
 10
537.465760
 20
1350.095457
 30
0.0
 10
518.558437
 20
1327.350381
 30
0.0
 10
502.923385
 20
1300.775333
 30
0.0
 10
490.344010
 20
1270.380689
 30
0.0
 10
490.344010
 20
1270.356046
 30
0.0
 10
327.969039
 20
720.613107
 30
0.0
 10
327.969039
 20
720.561228
 30
0.0
 10
322.964006
 20
695.322065
 30
0.0
 10
320.742286
 20
673.662558
 30
0.0
 10
320.975741
 20
655.414099
 30
0.0
 10
323.332348
 20
640.408081
 30
0.0
 10
327.373726
 20
628.294320
 30
0.0
 10
332.910519
 20
618.528087
 30
0.0
 10
339.992011
 20
610.629501
 30
0.0
 10
348.663595
 20
604.053830
 30
0.0
 10
369.115618
 20
595.104692
 30
0.0
 10
395.138154
 20
589.683330
 30
0.0
 10
425.357706
 20
587.024528
 30
0.0
 10
458.400776
 20
586.298222
 30
0.0
 10
490.950995
 20
702.066343
 30
0.0
 10
480.147181
 20
702.183071
 30
0.0
 10
469.369306
 20
703.428168
 30
0.0
 10
457.736724
 20
707.695221
 30
0.0
 10
447.050935
 20
716.838905
 30
0.0
 10
443.336394
 20
723.673971
 30
0.0
 10
441.506360
 20
731.313163
 30
0.0
 10
442.795555
 20
746.747183
 30
0.0
 10
442.795555
 20
746.773122
 30
0.0
 10
591.797402
 20
1249.887163
 30
0.0
 10
596.239546
 20
1260.654662
 30
0.0
 10
602.584355
 20
1269.861898
 30
0.0
 10
610.344166
 20
1277.428459
 30
0.0
 10
619.027423
 20
1283.273932
 30
0.0
 10
637.676648
 20
1290.285387
 30
0.0
 10
656.796676
 20
1291.988317
 30
0.0
 10
675.294154
 20
1288.870385
 30
0.0
 10
683.935909
 20
1285.107857
 30
0.0
 10
691.905829
 20
1279.525670
 30
0.0
 10
698.486688
 20
1271.618004
 30
0.0
 10
702.787462
 20
1261.668897
 30
0.0
 10
704.326973
 20
1250.630331
 30
0.0
 10
702.621449
 20
1239.451690
 30
0.0
 10
702.621449
 20
1239.399811
 30
0.0
 10
668.880606
 20
1130.172342
 30
0.0
 10
781.150781
 20
1130.172342
 30
0.0
 10
808.000789
 20
1224.989105
 30
0.0
 10
817.004399
 20
1267.660929
 30
0.0
 10
821.781164
 20
1305.592303
 30
0.0
 10
821.370022
 20
1339.352601
 30
0.0
 10
815.398742
 20
1364.689037
 30
0.0
 10
810.634948
 20
1373.911837
 30
0.0
 10
804.648104
 20
1381.126917
 30
0.0
 10
796.949252
 20
1386.607940
 30
0.0
 10
787.053321
 20
1390.628567
 30
0.0
 10
769.928044
 20
1395.821661
 30
0.0
 10
826.417855
 20
1586.215215
 30
0.0
 10
942.460935
 20
1586.215215
 30
0.0
 10
965.968634
 20
1665.679668
 30
0.0
 10
849.849032
 20
1665.679668
 30
0.0
 10
896.383251
 20
1822.938067
 30
0.0
 10
1012.504150
 20
1822.938067
 30
0.0
 10
1036.085777
 20
1902.351937
 30
0.0
 10
848.505364
 20
1902.351937
 30
0.0
  0
LWPOLYLINE
  5
103
100
AcDbEntity
  8
0
 62
7
100
AcDbPolyline
 90
6
 70
1
 10
1612.206624
 20
1586.062172
 30
0.0
 10
1705.874266
 20
1586.062172
 30
0.0
 10
1647.315777
 20
1388.578047
 30
0.0
 10
1553.790803
 20
1388.578047
 30
0.0
 10
1608.406483
 20
1573.167632
 30
0.0
 10
1612.206624
 20
1586.062172
 30
0.0
  0
LWPOLYLINE
  5
104
100
AcDbEntity
  8
0
 62
7
100
AcDbPolyline
 90
15
 70
1
 10
1708.533068
 20
956.896283
 30
0.0
 10
1798.543236
 20
956.896283
 30
0.0
 10
1803.536595
 20
947.013323
 30
0.0
 10
1811.162817
 20
924.692357
 30
0.0
 10
1813.212040
 20
900.127622
 30
0.0
 10
1810.345722
 20
873.669302
 30
0.0
 10
1803.277200
 20
845.641640
 30
0.0
 10
1792.486356
 20
816.213244
 30
0.0
 10
1778.115856
 20
785.487871
 30
0.0
 10
1760.373218
 20
753.698977
 30
0.0
 10
1739.465957
 20
721.105958
 30
0.0
 10
1734.096474
 20
713.233311
 30
0.0
 10
1660.661666
 20
713.363008
 30
0.0
 10
1636.628691
 20
713.414887
 30
0.0
 10
1708.533068
 20
956.896283
 30
0.0
  0
LWPOLYLINE
  5
105
100
AcDbEntity
  8
0
 62
7
100
AcDbPolyline
 90
5
 70
1
 10
0.000000
 20
2500.000000
 30
0.0
 10
2500.000000
 20
2500.000000
 30
0.0
 10
2500.000000
 20
0.000000
 30
0.0
 10
0.000000
 20
0.000000
 30
0.0
 10
0.000000
 20
2500.000000
 30
0.0
  0
ENDSEC
  0
SECTION
  2
OBJECTS
  0
DICTIONARY
  5
C
330
0
100
AcDbDictionary
  3
ACAD_GROUP
350
D
  3
ACAD_MLINESTYLE
350
17
  0
DICTIONARY
  5
D
330
C
100
AcDbDictionary
  0
DICTIONARY
  5
1A
330
C
100
AcDbDictionary
  0
DICTIONARY
  5
17
330
C
100
AcDbDictionary
  3
STANDARD
350
18
  0
DICTIONARY
  5
19
330
C
100
AcDbDictionary
  0
ENDSEC
  0
EOF
