<?xml version="1.0" encoding="UTF-8" standalone="no"?>
<svg
   sodipodi:docname="Fight-Club-Movie-segmented.svg"
   id="svg8"
   version="1.1"
   viewBox="0 0 192.756 192.756"
   height="2500"
   width="2500"
   inkscape:version="1.2.2 (1:1.2.2+202305151914+b0a8486541)"
   xmlns:inkscape="http://www.inkscape.org/namespaces/inkscape"
   xmlns:sodipodi="http://sodipodi.sourceforge.net/DTD/sodipodi-0.dtd"
   xmlns="http://www.w3.org/2000/svg"
   xmlns:svg="http://www.w3.org/2000/svg">
  <defs
     id="defs12" />
  <sodipodi:namedview
     id="namedview10"
     pagecolor="#ffffff"
     bordercolor="#666666"
     borderopacity="1.0"
     inkscape:showpageshadow="2"
     inkscape:pageopacity="0.0"
     inkscape:pagecheckerboard="0"
     inkscape:deskcolor="#d1d1d1"
     showgrid="false"
     inkscape:zoom="0.3032"
     inkscape:cx="1025.7256"
     inkscape:cy="1513.8522"
     inkscape:window-width="2560"
     inkscape:window-height="1373"
     inkscape:window-x="1920"
     inkscape:window-y="36"
     inkscape:window-maximized="1"
     inkscape:current-layer="g6" />
  <g
     fill-rule="evenodd"
     clip-rule="evenodd"
     id="g6">
    <path
       fill="#fff"
       fill-opacity="0"
       d="M0 0h192.756v192.756H0V0z"
       id="path2" />
    <path
       d="M 111.994 43.802 L 108.996 43.83 L 106.252 44.2352 L 103.786 44.968 L 101.624 45.979 L 99.7889 47.2188 L 98.3065 48.6378 L 97.2014 50.1867 L 96.498 51.816 L 86.62 85.076 L 86.423 86.1747 L 86.3987 87.1652 L 86.5324 88.0524 L 86.8093 88.8409 L 87.7344 90.1406 L 89.0564 91.1016 L 90.6579 91.7616 L 92.4215 92.158 L 94.2297 92.3283 L 95.965 92.31 L 82.609 137.494 L 82.1468 140.418 L 82.2535 142.893 L 82.5162 143.965 L 82.9164 144.928 L 83.4525 145.784 L 84.123 146.533 L 84.9263 147.178 L 85.8608 147.719 L 88.1173 148.494 L 90.8799 148.87 L 94.136 148.855 L 96.9232 148.645 L 99.5158 148.145 L 101.874 147.409 L 103.959 146.491 L 105.73 145.445 L 107.149 144.323 L 108.176 143.181 L 108.771 142.072 L 122.693 95.432 L 144.812 95.432 L 145.34 96.9176 L 145.53 98.4465 L 145.416 100.016 L 145.029 101.622 L 144.402 103.261 L 143.566 104.932 L 141.398 108.352 L 125.062 108.352 L 113.339 147.956 L 132.642 147.943 L 134.444 147.719 L 136.31 147.148 L 138.183 146.243 L 140.005 145.018 L 141.718 143.486 L 143.266 141.66 L 144.591 139.554 L 145.636 137.182 L 149.839 123.025 L 150.141 121.784 L 150.256 120.583 L 150.171 119.425 L 149.873 118.312 L 149.348 117.248 L 148.584 116.234 L 147.566 115.275 L 146.282 114.373 L 149.164 112.648 L 151.537 110.69 L 153.425 108.509 L 154.85 106.114 L 157.864 95.783 L 158.324 93.2832 L 158.441 91.073 L 158.206 89.1599 L 157.609 87.5512 L 156.643 86.2543 L 155.299 85.2763 L 153.568 84.6248 L 151.442 84.307 L 160.546 53.581 L 166.782 53.581 L 169.428 44.693 L 148.969 44.693 L 146.332 53.591 L 152.527 53.591 L 143.427 84.306 L 134.556 84.306 L 146.29 44.688 L 137.685 44.692 L 132.287 62.942 L 127.969 62.942 L 133.373 44.692 L 124.9 44.692 L 110.812 92.318 L 113.767 92.318 L 101.023 135.472 L 100.514 136.235 L 99.6132 136.795 L 98.4733 137.146 L 97.2471 137.278 L 96.0873 137.184 L 95.1467 136.857 L 94.578 136.289 L 94.4809 135.912 L 94.534 135.472 L 109.786 84.301 L 108.456 84.301 L 114.253 64.715 L 105.798 64.715 L 100.298 83.419 L 99.944 83.8901 L 99.2834 84.2314 L 97.5065 84.5151 L 96.6222 84.4527 L 95.8953 84.2508 L 95.4419 83.907 L 95.378 83.419 L 104.013 54.253 L 104.295 53.5505 L 104.685 53.0132 L 105.182 52.6389 L 105.785 52.426 L 106.492 52.3724 L 107.302 52.4763 L 109.228 53.149 L 111.994 43.802 L 111.994 43.802 M 128.043 136.366 L 132.77 120.365 L 137.819 120.365 L 138.278 121.737 L 138.403 123.342 L 138.21 125.153 L 137.712 127.143 L 136.924 129.286 L 135.862 131.557 L 134.539 133.928 L 132.971 136.374 L 128.043 136.366 L 128.043 136.366 M 125.342 71.854 L 129.668 71.854 L 125.975 84.306 L 121.659 84.306 L 125.342 71.854 L 125.342 71.854 M 85.821 44.688 L 94.204 44.688 L 82.489 84.307 L 83.974 84.307 L 68.57 136.374 L 79.707 136.374 L 76.291 147.955 L 53.734 147.955 L 72.559 84.303 L 74.106 84.303 L 85.821 44.688 L 85.821 44.688 M 64.385 44.692 L 81.744 44.692 L 79.103 53.59 L 70.15 53.59 L 67.384 62.94 L 76.336 62.94 L 73.703 71.843 L 64.754 71.843 L 61.087 84.206 L 62.1213 84.643 L 62.9694 85.2613 L 63.6419 86.0504 L 64.1496 86.9996 L 64.5031 88.0982 L 64.7131 89.3356 L 64.7452 92.1845 L 64.3317 95.461 L 63.5578 99.0802 L 62.5091 102.957 L 61.271 107.006 L 49.69 107.006 L 52.852 96.771 L 52.8925 95.8429 L 52.4375 95.1493 L 51.6239 94.7056 L 50.5884 94.527 L 49.4677 94.6289 L 48.3985 95.0267 L 47.5177 95.7356 L 46.962 96.771 L 35.472 135.571 L 35.3998 136.195 L 35.5767 136.652 L 35.9632 136.969 L 36.5197 137.172 L 37.9844 137.336 L 39.654 137.35 L 36.382 148.979 L 33.4578 148.971 L 30.7006 148.779 L 28.2225 148.28 L 27.1231 147.877 L 26.1354 147.351 L 25.2734 146.687 L 24.5513 145.869 L 23.9828 144.882 L 23.5822 143.71 L 23.3633 142.339 L 23.3401 140.752 L 23.5267 138.934 L 23.937 136.87 L 36.494 94.356 L 37.5449 91.8471 L 38.8738 89.6345 L 40.4872 87.725 L 42.3921 86.1256 L 44.5952 84.8434 L 47.1032 83.8852 L 49.9229 83.2581 L 53.061 82.969 L 64.385 44.692 L 64.385 44.692"
       id="path4" />
  </g>
</svg>
