<?xml version="1.0" encoding="UTF-8" standalone="no"?>
<svg
   sodipodi:docname="Fight-Club-Movie--thin.svg"
   id="svg8"
   version="1.1"
   viewBox="0 0 192.756 192.756"
   height="2500"
   width="2500"
   inkscape:version="1.2.2 (1:1.2.2+202305151914+b0a8486541)"
   xmlns:inkscape="http://www.inkscape.org/namespaces/inkscape"
   xmlns:sodipodi="http://sodipodi.sourceforge.net/DTD/sodipodi-0.dtd"
   xmlns="http://www.w3.org/2000/svg"
   xmlns:svg="http://www.w3.org/2000/svg">
  <defs
     id="defs12" />
  <sodipodi:namedview
     id="namedview10"
     pagecolor="#ffffff"
     bordercolor="#666666"
     borderopacity="1.0"
     inkscape:showpageshadow="2"
     inkscape:pageopacity="0.0"
     inkscape:pagecheckerboard="0"
     inkscape:deskcolor="#d1d1d1"
     showgrid="false"
     inkscape:zoom="0.6064"
     inkscape:cx="1522.9222"
     inkscape:cy="1368.7335"
     inkscape:window-width="1920"
     inkscape:window-height="1013"
     inkscape:window-x="0"
     inkscape:window-y="36"
     inkscape:window-maximized="1"
     inkscape:current-layer="path1742" />
  <g
     fill-rule="evenodd"
     clip-rule="evenodd"
     id="g6">
    <g
       id="path1742"
       style="stroke:#e3e9f6;stroke-width:2.77569">
      <path
         id="path1793"
         style="color:#000000;fill:#cf3bbd;stroke:none;stroke-width:2.77569;-inkscape-stroke:none"
         d="M 110.09575 45.32823 C 103.35685 45.569344 98.800319 48.963103 97.828188 52.210974 L 97.828188 52.212932 L 87.964803 85.42193 C 87.642339 86.721422 87.760083 87.591418 88.068409 88.255895 C 88.377654 88.922349 88.923144 89.450919 89.718732 89.882876 C 91.309907 90.74679 93.848209 91.046532 95.8809 90.923909 L 97.857402 90.804792 L 83.958942 137.81647 C 83.958371 137.81947 83.959512 137.8205 83.958942 137.8225 C 83.021048 141.76607 83.555425 144.08798 85.076174 145.52566 C 86.597846 146.96422 89.574863 147.73359 94.054688 147.46903 L 94.084053 147.46903 L 94.113268 147.46692 C 97.718946 147.40711 100.94126 146.47781 103.3261 145.2561 C 105.71006 144.03484 107.18789 142.41597 107.4571 141.62717 L 121.65825 94.04505 L 145.68348 94.04505 L 146.06236 94.828272 C 147.17961 97.140405 147.10855 99.647497 146.35346 102.0393 C 145.59836 104.43111 144.19599 106.78273 142.53312 109.15049 L 142.119 109.74036 L 126.09751 109.74036 L 115.19716 146.56654 L 132.60544 146.55495 C 136.51788 146.4519 142.14269 142.86348 144.32018 136.73267 L 148.51157 122.62324 L 148.51368 122.61525 C 148.97009 121.1423 148.99159 119.91173 148.57422 118.80079 C 148.15685 117.68985 147.26578 116.60419 145.55668 115.55466 L 143.44721 114.26169 L 145.65035 113.13678 C 149.60505 111.11838 152.10224 108.57462 153.56645 105.55861 L 156.51561 95.451115 C 157.31048 92.106623 157.17476 89.676702 156.38671 88.207103 C 155.59776 86.735832 154.16604 85.870982 151.35352 85.691487 L 149.61721 85.582008 L 159.50981 52.193355 L 165.74802 52.193355 L 167.5664 46.080129 L 150.00588 46.080129 L 148.18946 52.203144 L 154.38476 52.203144 L 144.46294 85.693294 L 132.6973 85.693294 L 144.42966 46.076214 L 138.72273 46.080129 L 133.32421 64.330056 L 126.11137 64.330056 L 131.51561 46.080129 L 125.93743 46.080129 L 112.6698 90.929782 L 115.62303 90.929782 L 102.35148 135.87114 L 102.35148 135.87521 C 102.00403 137.01748 101.07941 137.66869 100.16791 138.06661 C 99.256411 138.46451 98.25227 138.64966 97.269496 138.66626 C 96.286723 138.68282 95.329029 138.56159 94.456915 138.06269 C 94.020859 137.81324 93.58835 137.4351 93.32613 136.88884 C 93.06391 136.34259 93.034303 135.66998 93.199182 135.09199 L 93.20114 135.08401 L 107.92378 85.689529 L 106.59768 85.689529 L 112.39452 66.103562 L 106.83592 66.103562 L 101.62699 83.816483 L 101.62699 83.820248 C 101.30736 84.876079 100.46448 85.284352 99.748068 85.539089 C 99.031659 85.793827 98.268652 85.897014 97.515562 85.902314 C 96.762471 85.907584 96.039471 85.835524 95.328082 85.517555 C 94.972388 85.35857 94.589539 85.128851 94.289007 84.679668 C 93.988473 84.230487 93.891526 83.538185 94.048815 83.0176 L 102.67962 53.86717 C 103.07841 52.490748 104.15432 51.341034 105.50786 51.066335 C 106.4055 50.884161 107.34105 51.060282 108.30854 51.361342 L 110.09575 45.32823 z M 86.85736 46.076214 L 75.142614 85.691336 L 73.595747 85.691336 L 55.591734 146.56639 L 75.2539 146.56639 L 77.849631 137.76166 L 66.712852 137.76166 L 82.115261 85.695252 L 80.630889 85.695252 L 92.345635 46.076214 L 86.85736 46.076214 z M 65.421838 46.080129 L 54.10932 84.320209 L 53.111356 84.355447 C 44.712335 84.655173 40.094431 88.165616 37.80668 94.806587 L 37.80668 94.808545 L 25.287178 137.19529 C 25.286825 137.19729 25.287531 137.1982 25.287178 137.1992 C 24.618328 139.98396 24.589513 141.99589 24.929676 143.37899 C 25.270019 144.76281 25.907798 145.55847 26.882836 146.18163 C 28.651805 147.3122 31.848813 147.5498 35.34377 147.5508 L 37.853514 138.625 C 37.290678 138.60493 36.749726 138.65659 36.189487 138.51958 C 35.607553 138.37727 34.953283 138.13015 34.468688 137.48638 C 33.984094 136.8426 33.922631 135.92226 34.140551 135.17978 L 34.140551 135.17767 L 45.628959 96.386734 C 45.97104 95.202182 46.805031 94.322307 47.728494 93.812538 C 48.651956 93.30277 49.668775 93.104523 50.640615 93.140603 C 51.612455 93.176686 52.569646 93.425186 53.347632 94.101522 C 54.124734 94.777088 54.532524 96.067332 54.173773 97.19134 L 54.173773 97.195255 L 51.57232 105.61719 L 60.22857 105.61719 C 61.813037 100.54037 63.120513 95.706952 63.361307 92.091739 C 63.489629 90.165145 63.312552 88.595733 62.869176 87.535168 C 62.4258 86.474604 61.830723 85.882793 60.683655 85.535174 L 59.363276 85.134753 L 63.718809 70.455029 L 72.666 70.455029 L 74.478509 64.328098 L 65.525445 64.328098 L 69.113266 52.203144 L 78.066481 52.203144 L 79.884712 46.080129 L 65.421838 46.080129 z M 124.30473 70.466775 L 131.52736 70.466775 L 127.01175 85.693294 L 119.80072 85.693294 L 124.01168 71.460974 L 124.30473 70.466775 z M 131.73246 118.97653 L 138.67183 118.97683 L 139.05659 119.73867 C 140.15293 121.90718 139.95598 124.60542 139.03716 127.55508 C 138.11834 130.50473 136.42214 133.77403 134.11722 137.15659 L 133.70309 137.76392 L 128.04103 137.75398 L 126.18756 137.75006 L 131.73246 118.97653 z " />
    </g>
    <path
       fill="#fff"
       fill-opacity="0"
       d="M0 0h192.756v192.756H0V0z"
       id="path2" />
  </g>
</svg>
