<?xml version="1.0" encoding="UTF-8" standalone="no"?>
<!-- Created with Inkscape (http://www.inkscape.org/) -->

<svg
   xmlns:dc="http://purl.org/dc/elements/1.1/"
   xmlns:cc="http://creativecommons.org/ns#"
   xmlns:rdf="http://www.w3.org/1999/02/22-rdf-syntax-ns#"
   xmlns:svg="http://www.w3.org/2000/svg"
   xmlns="http://www.w3.org/2000/svg"
   xmlns:sodipodi="http://sodipodi.sourceforge.net/DTD/sodipodi-0.dtd"
   xmlns:inkscape="http://www.inkscape.org/namespaces/inkscape"
   sodipodi:docname="001-floral.svg"
   inkscape:version="0.48.3.1 r9886"
   version="1.1"
   id="svg27345"
   height="1000"
   width="3200">
  <sodipodi:namedview
     id="base"
     pagecolor="#ffffff"
     bordercolor="#666666"
     borderopacity="1.0"
     inkscape:pageopacity="0.0"
     inkscape:pageshadow="2"
     inkscape:zoom="0.24828125"
     inkscape:cx="1684.6168"
     inkscape:cy="248.10763"
     inkscape:document-units="px"
     inkscape:current-layer="layer1"
     showgrid="false"
     inkscape:window-width="1600"
     inkscape:window-height="849"
     inkscape:window-x="0"
     inkscape:window-y="26"
     inkscape:window-maximized="1" />
  <defs
     id="defs27347">
    <inkscape:perspective
       id="perspective27353"
       inkscape:persp3d-origin="372.04724 : 350.78739 : 1"
       inkscape:vp_z="744.09448 : 526.18109 : 1"
       inkscape:vp_y="0 : 1000 : 0"
       inkscape:vp_x="0 : 526.18109 : 1"
       sodipodi:type="inkscape:persp3d" />
  </defs>
  <metadata
     id="metadata27350">
    <rdf:RDF>
      <cc:Work
         rdf:about="">
        <dc:format>image/svg+xml</dc:format>
        <dc:type
           rdf:resource="http://purl.org/dc/dcmitype/StillImage" />
        <dc:title />
      </cc:Work>
    </rdf:RDF>
  </metadata>
  <g
     transform="translate(0,-52.36218)"
     id="layer1"
     inkscape:groupmode="layer"
     inkscape:label="Layer 1">
    <g
       id="g11367"
       transform="matrix(0.16579845,0,0,-0.14939495,12.314062,910.91006)"
       style="fill:none;stroke:#000000;stroke-width:25.41568375;stroke-miterlimit:4;stroke-opacity:1;stroke-dasharray:none">
      <path
         id="path11369"
         d="m 765,4738 c -20,-35 -65,-109 -98,-166 -34,-56 -72,-119 -84,-140 -12,-20 -22,-47 -23,-60 0,-13 41,-91 90,-173 89,-148 111,-209 75,-209 -24,0 -78,55 -105,107 -30,58 -115,200 -131,219 -9,11 -59,14 -250,14 l -239,0 0,-45 c 0,-47 -1,-46 130,-267 l 75,-127 195,-1 c 194,0 196,0 234,-26 l 39,-27 -39,-23 c -38,-23 -46,-24 -245,-24 l -206,0 -29,-42 c -15,-24 -56,-90 -91,-147 l -63,-104 0,-78 0,-79 228,0 227,1 54,87 c 139,222 145,230 188,251 36,17 42,18 47,5 9,-25 -4,-64 -49,-139 -97,-163 -124,-211 -130,-227 -8,-19 15,-66 101,-206 35,-57 64,-106 64,-109 0,-17 84,-123 98,-123 11,0 40,37 81,105 61,100 65,105 85,91 28,-18 32,-43 7,-51 -10,-3 -31,-15 -45,-26 -24,-18 -26,-27 -26,-90 0,-63 2,-69 21,-69 11,0 64,27 116,60 96,60 116,67 142,51 24,-16 6,-34 -105,-105 -182,-116 -174,-108 -174,-177 0,-101 -13,-105 326,99 67,39 126,72 130,72 5,0 35,-16 66,-34 31,-19 76,-46 100,-59 24,-13 115,-66 203,-117 88,-51 187,-108 220,-126 33,-18 61,-37 63,-43 2,-7 -32,-11 -106,-11 l -110,0 -59,60 -58,61 -65,-3 -65,-3 1,-35 c 1,-19 5,-45 9,-57 7,-22 5,-23 -41,-23 -47,0 -51,2 -100,57 l -52,58 -76,3 c -73,4 -76,3 -76,-18 0,-12 12,-37 26,-56 15,-19 25,-36 23,-37 -2,-2 -16,-11 -31,-20 -53,-33 -45,-128 12,-148 34,-12 35,-15 15,-49 -8,-14 -14,-35 -15,-47 0,-20 5,-23 35,-23 42,0 86,21 134,63 45,39 116,70 141,62 24,-8 25,-21 4,-42 -8,-9 -14,-27 -12,-42 3,-25 5,-26 78,-29 67,-3 77,-1 93,19 10,12 41,40 69,61 50,37 53,38 137,38 110,0 124,-9 72,-43 -22,-15 -43,-27 -46,-27 -3,0 -34,-17 -68,-39 -34,-21 -134,-80 -222,-131 -88,-51 -188,-110 -222,-132 -34,-21 -68,-38 -75,-38 -7,0 -69,32 -138,71 -252,144 -281,159 -291,154 -5,-4 -9,-39 -9,-79 l 0,-73 88,-45 c 117,-60 169,-94 182,-118 9,-17 7,-22 -16,-30 -23,-9 -41,-4 -131,40 -58,27 -109,50 -114,50 -5,0 -9,-25 -9,-55 0,-49 4,-59 38,-97 46,-53 16,-33 -59,40 -31,30 -63,52 -72,50 -8,-1 -59,-43 -111,-91 -95,-88 -96,-89 -96,-135 0,-26 9,-84 19,-129 10,-46 17,-83 14,-83 -2,0 -35,18 -72,39 -37,22 -79,43 -93,46 -25,7 -27,5 -32,-47 -3,-29 -7,-72 -9,-96 l -2,-44 -88,86 c -101,98 -88,95 -251,63 -71,-14 -112,-28 -119,-38 -7,-12 -3,-49 15,-130 37,-161 39,-166 90,-179 87,-22 178,-53 178,-60 0,-6 -56,-41 -113,-69 -58,-29 -48,-52 49,-106 35,-20 64,-39 64,-43 0,-4 -51,-19 -112,-35 C 126,732 70,714 64,707 47,688 -2,503 2,468 6,431 9,428 130,394 295,347 291,346 390,439 l 85,81 3,-100 c 3,-118 2,-118 108,-63 40,21 75,35 78,33 2,-3 -9,-50 -25,-105 -16,-55 -29,-111 -29,-125 0,-18 19,-45 68,-93 l 68,-67 63,0 63,0 79,71 c 91,82 90,81 59,214 -29,126 -32,123 65,71 47,-26 91,-43 100,-40 12,5 15,24 15,90 0,46 3,84 7,84 4,0 49,-41 100,-92 l 92,-92 138,33 c 76,17 142,36 146,40 10,10 -49,261 -66,285 -7,9 -52,27 -102,40 -49,14 -103,30 -120,36 l -30,11 55,34 c 30,19 67,40 83,46 50,21 29,48 -80,103 -28,14 -54,30 -57,35 -3,4 49,21 116,37 66,15 129,35 138,44 21,17 80,197 80,240 0,26 -5,30 -57,45 -32,9 -83,24 -113,33 l -55,17 -3,169 c -3,190 -11,170 88,230 386,235 543,327 547,322 6,-6 -72,-150 -90,-164 -6,-5 -46,-13 -87,-17 -41,-4 -84,-13 -95,-20 -28,-18 -80,-119 -72,-140 6,-15 17,-16 82,-10 41,4 75,3 75,-1 -1,-5 -13,-27 -28,-49 -26,-37 -35,-42 -126,-66 -104,-28 -107,-30 -132,-96 -25,-63 -16,-73 61,-73 l 65,0 0,-38 c 0,-42 13,-58 69,-87 l 33,-17 39,38 39,38 20,-47 c 18,-41 25,-47 51,-47 55,0 74,89 43,202 -31,110 11,197 49,104 28,-69 42,-75 79,-38 39,39 49,115 24,188 -9,26 -16,60 -16,75 0,39 35,128 65,164 l 24,30 1,-387 0,-386 -117,-74 c -224,-142 -267,-168 -275,-168 -4,0 -8,-11 -8,-26 0,-20 8,-28 37,-41 61,-25 115,-11 208,51 134,90 155,96 155,43 0,-31 -7,-39 -85,-93 -74,-50 -86,-62 -83,-84 2,-18 15,-31 48,-48 43,-21 59,-22 123,-6 l 27,6 0,-66 0,-66 59,0 c 37,0 63,5 68,13 4,6 10,37 13,67 l 5,55 44,-3 c 67,-5 109,6 127,34 21,31 13,41 -88,106 -68,43 -78,54 -78,79 0,47 37,48 117,3 177,-98 171,-95 212,-84 21,5 46,19 56,30 17,19 17,21 -1,42 -29,34 -51,49 -152,100 -51,26 -124,68 -162,92 l -70,46 0,382 1,383 29,-34 c 16,-19 39,-58 51,-88 l 22,-54 -27,-89 c -25,-84 -26,-91 -11,-120 18,-35 73,-100 85,-100 5,0 16,21 26,47 23,65 26,67 57,43 33,-26 34,-57 5,-113 -31,-59 -30,-133 2,-181 34,-50 58,-45 89,18 l 23,50 40,-42 c 22,-23 42,-42 46,-42 3,0 23,12 44,26 43,30 56,63 39,100 -22,48 -16,54 54,54 l 65,0 -19,38 c -30,59 -80,97 -155,117 -69,19 -79,26 -90,63 -7,21 -5,22 48,22 30,0 58,5 61,10 8,13 -61,127 -83,139 -9,5 -39,12 -65,16 -75,11 -125,55 -170,149 -21,43 -36,80 -34,83 8,7 303,-150 352,-187 6,-4 30,-19 55,-32 114,-63 201,-121 229,-154 l 31,-35 0,-245 0,-246 28,6 c 15,4 44,15 64,25 l 37,18 35,-52 c 18,-28 46,-75 60,-103 15,-29 32,-52 39,-52 6,0 35,18 62,40 l 50,40 5,-58 5,-57 60,-13 c 85,-19 295,-84 295,-93 0,-10 -167,-68 -246,-84 -107,-22 -103,-18 -106,-91 l -3,-65 -40,30 c -61,46 -76,42 -111,-31 -16,-34 -46,-86 -66,-115 -46,-65 -68,-107 -68,-128 0,-12 13,-15 68,-15 67,0 304,19 309,24 2,2 -2,27 -8,55 -6,29 -8,55 -5,58 4,4 23,-2 44,-12 20,-11 40,-21 44,-23 5,-2 57,43 116,101 107,102 148,134 159,123 6,-5 0,-58 -29,-247 -6,-42 -8,-84 -5,-93 4,-9 21,-23 39,-31 l 33,-13 -28,-11 c -15,-6 -39,-14 -52,-17 -34,-8 -37,-27 -11,-76 84,-156 149,-268 157,-268 9,0 13,5 80,120 24,41 58,95 76,119 50,67 46,83 -34,111 l -67,23 57,25 c 31,13 59,33 62,43 3,10 -3,35 -13,56 -45,87 -90,293 -64,293 16,0 170,-117 234,-177 62,-59 76,-61 127,-22 44,35 47,23 25,-93 l -5,-27 190,0 c 223,1 218,-2 145,100 -25,35 -54,83 -64,107 -27,61 -59,102 -78,102 -9,0 -37,-16 -61,-35 -24,-19 -47,-35 -52,-35 -4,0 -9,28 -11,62 l -3,62 -113,17 c -105,16 -222,52 -222,69 0,16 180,87 278,110 l 52,12 0,52 c 0,29 3,56 7,59 3,4 25,-9 49,-28 50,-41 70,-44 85,-11 6,13 25,30 42,39 32,16 49,26 206,120 44,27 88,47 98,45 20,-4 19,1 28,-169 l 7,-117 56,-6 c 32,-4 78,-9 105,-12 l 47,-6 0,159 c 0,88 3,162 6,166 8,7 112,-48 275,-144 64,-38 121,-69 127,-69 9,0 12,36 12,123 l 0,122 -48,30 c -71,44 -282,181 -325,210 l -37,26 0,75 c 0,45 4,74 10,74 10,0 144,-74 304,-169 92,-54 96,-50 96,93 l 0,111 -123,79 c -67,44 -147,95 -177,115 -30,19 -67,46 -82,60 l -28,25 0,171 0,171 28,26 c 32,30 104,68 129,68 28,0 172,-77 246,-130 l 67,-50 0,-260 0,-260 38,-23 c 63,-40 135,-68 159,-62 l 23,5 0,224 0,224 43,-10 c 23,-5 56,-17 72,-27 l 30,-17 3,-196 2,-197 -60,-32 -60,-32 0,-142 c 0,-107 3,-145 13,-154 8,-6 54,-18 103,-26 138,-24 186,-40 447,-148 15,-6 27,-14 27,-18 0,-3 -19,-14 -42,-24 -24,-10 -77,-33 -118,-50 -79,-34 -266,-95 -360,-117 l -55,-13 0,-139 0,-139 90,-53 c 50,-30 114,-66 144,-82 l 53,-27 46,55 c 129,154 374,370 419,370 19,0 17,-68 -7,-196 -29,-154 -49,-239 -76,-319 -37,-108 -35,-114 44,-160 37,-22 83,-48 102,-58 19,-11 39,-23 45,-28 23,-22 79,-8 159,40 45,26 96,56 114,65 42,22 41,43 -3,140 -58,124 -115,335 -115,421 l 0,45 72,-47 c 40,-27 82,-56 92,-65 11,-10 23,-18 28,-18 12,0 135,-105 220,-188 l 78,-76 42,22 c 48,24 135,73 186,102 l 32,19 0,139 0,139 69,12 c 105,17 104,17 97,-24 -4,-19 -25,-82 -46,-141 -45,-121 -49,-150 -20,-159 45,-14 208,30 248,68 35,32 42,50 73,171 30,119 51,151 107,162 30,6 32,5 32,-24 0,-16 -14,-67 -31,-113 -18,-46 -34,-108 -36,-136 l -5,-53 49,6 c 123,13 133,16 154,38 13,13 45,90 76,177 29,85 53,155 53,156 0,6 72,14 85,9 12,-4 13,-11 4,-33 -25,-63 -45,-153 -38,-164 6,-10 24,-9 86,4 43,9 102,19 131,23 57,7 63,0 41,-50 -13,-27 -9,-26 -172,-61 -164,-35 -164,-35 -197,-109 -16,-35 -31,-83 -32,-106 -4,-64 -3,-64 245,-25 43,7 47,6 47,-13 0,-37 -32,-59 -115,-77 -44,-9 -108,-23 -142,-31 -35,-7 -71,-19 -82,-26 -36,-22 -64,-87 -69,-160 l -5,-70 64,4 c 35,3 96,11 136,18 40,8 76,11 80,6 4,-4 -1,-37 -10,-74 -17,-65 -17,-67 1,-83 27,-22 180,-62 209,-54 17,4 32,22 49,58 13,29 24,58 24,65 0,6 3,12 6,12 5,0 91,-72 154,-128 41,-37 68,-39 96,-6 27,33 64,125 64,157 -1,14 -40,64 -109,137 -107,113 -109,115 -95,141 7,15 19,29 25,31 7,2 54,-39 106,-92 l 93,-95 28,32 c 36,42 72,113 72,143 0,15 -35,59 -109,135 l -109,113 8,38 c 7,32 24,55 40,53 3,0 41,-40 85,-89 110,-123 129,-120 173,26 28,92 40,103 77,64 25,-26 27,-32 17,-57 -23,-58 -62,-208 -62,-238 0,-24 13,-44 68,-98 37,-37 75,-67 84,-67 17,0 33,37 73,160 10,30 19,56 20,58 7,9 75,-43 75,-56 0,-10 -18,-68 -41,-131 -34,-98 -38,-119 -29,-142 13,-29 151,-169 168,-169 12,0 52,48 52,62 0,19 53,143 68,161 15,17 19,14 73,-39 l 58,-57 28,18 c 52,34 143,128 143,147 0,11 -27,50 -60,86 -32,36 -57,68 -55,70 2,2 70,17 152,32 81,16 156,31 166,35 28,12 19,37 -33,90 -41,41 -46,51 -32,56 9,3 103,9 207,13 105,4 206,11 226,14 l 35,7 -21,110 c -12,61 -21,111 -20,113 4,5 128,-59 147,-76 17,-14 30,-2 183,156 148,152 240,232 268,232 11,0 3,-193 -13,-280 -44,-255 -48,-284 -40,-305 11,-28 66,-71 102,-80 16,-4 26,-10 24,-14 -2,-3 -36,-17 -76,-31 -66,-23 -111,-51 -110,-68 1,-4 60,-124 133,-267 81,-158 139,-260 148,-260 8,0 28,27 45,60 72,143 132,246 191,333 40,58 63,103 63,120 0,25 -7,30 -87,61 -135,52 -139,59 -56,97 118,53 135,82 94,162 -55,109 -133,445 -117,507 7,27 7,27 34,10 102,-65 220,-163 344,-283 122,-118 120,-118 211,-57 51,34 77,43 77,27 0,-5 -7,-57 -15,-117 -10,-70 -12,-112 -6,-118 7,-7 68,-6 173,2 90,6 196,9 237,5 73,-7 76,-8 122,-56 26,-26 56,-48 67,-48 12,0 55,32 100,75 44,41 87,75 95,75 9,0 17,-14 21,-38 25,-139 83,-312 105,-312 19,0 121,91 126,113 5,20 -22,155 -68,340 l -14,57 48,41 c 34,28 50,37 53,27 2,-7 22,-87 43,-177 21,-90 43,-166 50,-168 14,-6 121,57 147,86 12,14 17,29 13,48 -4,23 -59,265 -82,360 -4,18 14,39 102,118 l 108,96 45,-5 c 63,-6 97,-24 109,-55 6,-14 20,-81 31,-147 l 21,-122 -53,-49 c -29,-28 -93,-86 -141,-129 -48,-43 -90,-89 -93,-101 -7,-26 12,-121 28,-140 6,-7 18,-13 27,-13 14,0 165,116 226,173 52,48 57,46 74,-31 l 9,-42 -122,-112 c -66,-61 -129,-124 -140,-140 -18,-28 -18,-30 0,-111 28,-120 23,-121 213,51 51,46 97,82 103,80 7,-3 77,-187 78,-205 0,-13 170,14 170,27 0,4 -11,56 -25,116 -13,60 -20,113 -16,117 8,8 101,-13 282,-63 92,-25 96,-20 71,80 -11,45 -24,86 -29,91 -4,4 -62,24 -128,44 -66,20 -150,46 -187,58 l -67,21 -12,53 c -7,29 -10,55 -8,58 5,4 130,-25 249,-58 99,-28 107,-28 114,-10 9,22 -34,183 -48,183 -15,0 -348,108 -364,119 -20,12 -73,260 -61,283 19,35 90,78 128,78 44,0 218,-46 247,-65 16,-10 29,-48 58,-172 21,-87 42,-175 47,-195 8,-33 15,-39 52,-49 23,-6 65,-12 92,-13 50,-1 50,-1 47,29 -2,17 -19,93 -38,171 -18,77 -34,143 -34,147 0,11 77,8 105,-5 14,-6 28,-23 31,-37 3,-14 10,-37 14,-51 5,-14 21,-81 36,-150 38,-175 33,-167 103,-181 40,-9 57,-16 52,-23 -11,-15 -48,-136 -63,-208 -9,-42 -9,-64 -2,-76 12,-18 177,-69 257,-79 l 49,-6 84,84 84,84 0,-103 c 0,-97 1,-102 21,-102 12,0 46,15 77,34 32,19 68,37 81,41 20,6 23,4 17,-10 -18,-49 -46,-174 -46,-210 0,-38 6,-46 93,-133 51,-50 99,-92 108,-92 17,0 219,201 219,217 0,6 -13,62 -30,124 -16,63 -30,118 -30,122 0,5 38,-12 85,-37 47,-25 92,-46 100,-46 12,0 15,16 15,90 0,65 3,90 12,90 7,0 54,-41 105,-92 l 92,-91 53,12 c 29,6 94,24 143,39 106,33 102,18 55,203 l -32,127 -87,25 c -47,14 -108,32 -135,39 l -50,13 65,38 c 35,21 75,46 89,57 24,18 24,19 7,38 -10,11 -33,26 -50,33 -43,17 -107,57 -107,67 0,5 55,21 123,37 67,16 127,33 133,39 7,6 29,69 49,139 33,110 36,130 24,141 -8,7 -60,25 -116,40 -55,14 -118,32 -140,40 l -38,13 -90,-86 -90,-86 -6,30 c -4,17 -7,63 -8,103 -1,68 -2,72 -23,72 -13,0 -56,-18 -95,-40 l -73,-39 0,29 c 0,17 9,63 21,103 35,121 37,110 -25,172 -31,31 -56,58 -56,61 0,10 124,65 136,60 11,-4 14,-37 14,-160 0,-91 4,-157 10,-161 14,-8 88,26 127,59 l 33,27 2,181 3,180 43,31 c 31,23 45,28 53,20 7,-7 17,-80 23,-165 l 11,-153 29,2 c 17,1 48,16 70,32 l 41,29 3,183 3,184 72,47 c 87,56 165,98 183,98 11,0 14,-35 16,-157 l 3,-158 31,-3 c 23,-2 68,16 168,67 75,39 141,71 147,71 5,0 9,-58 9,-140 l 0,-139 -43,-29 c -23,-15 -91,-57 -151,-93 -117,-69 -126,-81 -126,-160 l 0,-49 36,0 c 26,0 73,19 159,65 67,35 125,62 129,58 3,-3 6,-30 6,-58 0,-37 -6,-60 -20,-78 -11,-13 -76,-52 -145,-86 -148,-73 -167,-94 -163,-180 5,-85 13,-85 177,4 78,42 145,74 149,71 3,-4 11,-87 17,-184 10,-174 10,-177 35,-189 45,-23 110,-10 110,22 0,9 10,15 26,15 40,0 250,-73 338,-117 l 78,-39 -114,-51 c -123,-55 -274,-110 -353,-127 l -50,-11 -3,-131 -3,-131 78,-50 c 99,-64 169,-103 182,-103 6,0 35,33 65,73 86,116 313,327 352,327 20,0 -19,-252 -68,-440 -17,-63 -32,-125 -35,-137 -4,-18 11,-32 103,-92 60,-39 118,-71 128,-71 11,0 49,19 85,42 69,46 92,60 129,79 27,15 28,42 3,83 -45,72 -131,413 -119,470 3,15 5,16 23,1 11,-8 58,-44 105,-79 47,-35 136,-112 198,-171 l 112,-107 108,64 107,64 0,134 0,134 -30,7 c -16,4 -64,14 -105,24 -120,27 -408,154 -395,175 20,32 430,180 500,180 12,0 30,6 41,14 17,13 19,29 22,140 l 4,125 -123,81 c -67,44 -127,80 -134,80 -7,0 -25,-17 -41,-37 -69,-92 -339,-333 -372,-333 -10,0 -5,123 8,205 4,28 23,123 41,213 25,122 31,166 23,179 -6,10 -41,36 -78,59 -46,29 -62,43 -51,47 13,5 15,32 15,172 0,160 1,165 21,165 33,0 60,-19 75,-55 10,-25 14,-79 14,-195 0,-89 4,-170 10,-180 10,-18 122,-80 146,-80 21,0 24,27 24,191 0,87 3,159 8,159 4,0 65,-29 136,-65 89,-45 139,-65 165,-65 36,0 39,3 66,60 28,59 28,60 9,81 -10,12 -57,40 -103,61 -47,22 -105,53 -129,70 l -45,31 26,23 c 15,13 72,51 127,84 55,34 100,66 100,70 0,5 -17,22 -37,39 -56,46 -122,44 -211,-6 -206,-114 -209,-115 -261,-89 -61,32 -58,39 36,99 193,123 196,127 108,176 -78,44 -109,41 -185,-16 -177,-137 -169,-135 -329,-53 -67,35 -121,66 -121,69 0,4 63,47 140,96 77,48 140,93 140,99 0,6 -41,36 -91,66 -152,93 -184,115 -184,128 0,14 201,142 223,142 8,0 88,-37 178,-82 l 164,-83 57,32 c 89,49 84,92 -14,138 -175,82 -183,86 -183,105 0,21 57,60 89,60 12,0 61,-21 109,-47 205,-109 214,-112 284,-93 59,17 77,70 36,107 -13,11 -72,46 -131,78 -105,56 -108,58 -90,76 10,9 58,38 108,64 125,64 155,89 155,126 0,46 -26,98 -55,109 -29,11 -51,2 -200,-84 -44,-25 -92,-46 -107,-46 l -28,0 0,150 0,150 -24,0 c -32,0 -85,-19 -118,-42 l -28,-19 0,-178 0,-178 -45,-32 c -32,-23 -46,-29 -50,-19 -2,7 -11,75 -18,151 -8,76 -18,142 -24,148 -6,6 -31,0 -69,-15 l -59,-24 -3,-183 c -2,-170 -4,-185 -23,-205 -19,-20 -137,-83 -226,-120 l -32,-14 -3,157 -3,158 -38,3 c -31,3 -51,-5 -100,-36 -34,-22 -90,-54 -124,-72 -89,-46 -93,-41 -93,114 0,144 -7,133 140,222 52,31 114,70 137,86 l 43,29 0,74 c 0,73 -1,75 -25,75 -21,0 -99,-39 -231,-116 -91,-52 -84,74 7,142 19,14 75,46 124,71 126,63 125,62 125,150 l 0,73 -30,0 c -16,0 -79,-26 -144,-60 -63,-33 -122,-60 -131,-60 -13,0 -15,23 -15,164 0,130 -3,166 -14,176 -22,18 -125,18 -136,0 -6,-8 -10,-90 -10,-182 0,-116 -4,-169 -12,-174 -6,-4 -71,24 -144,62 -158,82 -167,81 -172,-13 -4,-82 12,-99 162,-172 67,-33 131,-70 141,-81 22,-24 35,-130 16,-130 -6,0 -70,30 -142,66 -72,36 -141,64 -152,62 -20,-3 -22,-9 -22,-65 0,-55 4,-65 29,-92 16,-17 81,-56 145,-86 64,-31 124,-64 133,-72 16,-14 18,-36 18,-160 0,-78 -2,-143 -4,-143 -16,0 -109,48 -174,90 -86,55 -128,68 -161,51 -20,-11 -21,-19 -21,-161 0,-113 -3,-150 -12,-150 -20,0 -208,87 -228,105 -20,18 -36,99 -45,235 -10,150 -13,158 -55,186 -24,16 -49,24 -67,22 l -28,-3 -3,-148 c -3,-170 -6,-174 -77,-133 l -45,27 0,169 0,169 -65,36 c -35,20 -69,34 -74,30 -20,-12 -33,-89 -30,-179 4,-142 4,-142 -137,-61 -124,72 -196,92 -229,65 -12,-10 -18,-10 -30,0 -13,10 -24,11 -58,0 -23,-6 -46,-16 -52,-20 -16,-12 -107,-39 -140,-41 -61,-4 -75,3 -170,81 -109,90 -109,102 0,81 34,-6 98,-14 140,-18 l 78,-6 -7,43 c -6,40 -55,179 -96,276 -11,24 -25,44 -33,44 -7,0 -44,-43 -82,-96 -104,-143 -105,-144 -121,-144 -18,0 -18,16 0,109 8,41 24,87 36,103 12,16 34,48 50,71 23,34 42,47 99,70 86,34 104,60 120,172 7,44 14,92 17,108 4,19 1,29 -10,33 -15,6 -174,-53 -237,-88 -36,-20 -37,-22 -44,-97 -12,-137 -56,-194 -195,-251 -52,-21 -96,-37 -98,-35 -2,2 37,58 87,124 50,67 91,126 91,131 0,15 -23,19 -311,57 -21,3 -40,0 -43,-6 -4,-6 13,-72 39,-147 25,-75 44,-139 41,-141 -7,-7 -154,115 -173,143 -13,20 -15,44 -10,132 3,59 9,116 12,127 7,23 -14,46 -114,125 -76,60 -98,63 -106,18 -13,-78 -25,-176 -25,-214 0,-37 5,-45 48,-81 26,-22 59,-47 74,-57 47,-30 59,-108 38,-232 -16,-88 -17,-90 -39,-70 -11,10 -28,56 -41,112 -13,52 -32,107 -43,120 -19,24 -20,24 -39,7 -11,-10 -65,-76 -121,-147 l -100,-129 21,-18 c 14,-11 48,-19 94,-23 84,-8 168,-25 168,-34 0,-4 -33,-23 -73,-42 -63,-31 -81,-35 -144,-34 -69,1 -73,3 -125,45 l -53,44 14,53 c 18,66 12,72 -84,100 -38,11 -110,32 -158,47 l -89,27 -31,-28 c -18,-16 -66,-62 -108,-102 l -76,-74 -6,69 c -4,37 -7,94 -7,126 0,53 -2,57 -23,57 -13,0 -27,-4 -33,-9 -5,-5 -44,-27 -86,-50 -93,-49 -92,-52 -53,107 14,57 25,115 25,128 0,39 -195,244 -231,244 -21,0 -49,-24 -133,-114 -95,-102 -106,-118 -106,-151 0,-35 40,-229 56,-270 8,-20 8,-20 -21,0 -65,43 -190,105 -202,101 -9,-4 -13,-40 -15,-123 l -3,-118 -106,103 c -119,115 -112,112 -243,85 l -81,-17 -97,62 c -54,34 -106,62 -116,62 -11,0 -26,-10 -35,-22 -37,-58 -156,-167 -280,-260 l -52,-39 -3,29 c -3,33 25,213 59,374 19,88 21,109 10,122 -19,23 -155,96 -177,96 -11,0 -61,-26 -112,-57 -107,-67 -106,-66 -62,-177 49,-123 91,-375 61,-364 -5,2 -55,43 -110,91 -90,80 -171,164 -209,218 -7,10 -18,19 -24,19 -6,0 -62,-30 -124,-66 l -114,-67 0,-113 0,-113 -30,-16 c -16,-8 -38,-15 -50,-15 -19,0 -20,6 -20,120 l 0,120 -32,-6 c -43,-8 -74,-28 -95,-61 -14,-21 -19,-56 -23,-157 l -5,-130 -32,-19 c -18,-10 -37,-16 -43,-12 -6,4 -10,55 -10,126 0,117 0,119 -22,119 -13,0 -41,-11 -63,-23 l -40,-23 -5,-149 -5,-149 -55,-32 c -30,-18 -79,-42 -107,-53 l -53,-21 0,125 c 0,124 0,125 -24,131 -19,4 -50,-8 -124,-50 -55,-31 -107,-56 -116,-56 -22,0 -27,31 -24,130 3,73 6,86 23,95 11,5 52,28 90,50 39,22 79,44 90,50 46,24 77,102 59,149 -10,25 -29,20 -139,-39 -56,-30 -105,-55 -109,-55 -4,0 -6,21 -4,47 3,46 4,48 68,85 36,21 91,52 123,68 l 57,30 0,65 c 0,35 -4,66 -9,70 -6,3 -62,-20 -125,-52 -63,-31 -118,-54 -122,-50 -4,4 -10,58 -12,120 -2,61 -9,120 -14,130 -7,13 -21,17 -63,17 l -55,0 0,-139 c 0,-77 -4,-142 -8,-145 -5,-3 -44,13 -88,36 -43,22 -98,49 -121,59 l -43,18 0,-73 0,-74 128,-64 127,-64 3,-43 3,-43 -43,7 c -24,4 -77,27 -118,51 -41,24 -80,44 -87,44 -9,0 -13,-19 -13,-67 l 0,-68 130,-70 130,-70 0,-107 c 0,-60 -3,-108 -7,-108 -5,0 -22,9 -39,19 -49,30 -193,91 -214,91 -19,0 -20,-8 -20,-125 0,-69 -4,-125 -9,-125 -17,0 -177,77 -193,93 -12,13 -18,47 -23,144 -4,70 -11,135 -15,143 -11,21 -97,63 -115,56 -12,-4 -15,-29 -15,-121 0,-94 -3,-117 -15,-121 -21,-9 -65,23 -65,46 0,10 -5,22 -10,25 -6,4 -10,53 -10,114 0,118 -2,122 -67,155 -62,31 -63,29 -63,-104 0,-71 -4,-120 -10,-120 -5,0 -64,27 -132,60 -67,33 -125,60 -130,60 -22,0 -48,-42 -48,-80 0,-36 3,-41 48,-66 26,-15 49,-29 51,-30 7,-6 -129,-201 -166,-239 -58,-60 -81,-65 -278,-65 -101,0 -175,4 -175,9 0,11 48,51 62,51 4,0 25,10 46,23 20,13 73,43 117,67 100,53 135,78 135,95 0,29 -416,265 -441,249 -5,-3 -9,-92 -9,-197 -1,-144 -4,-196 -14,-209 -7,-10 -16,-18 -19,-18 -6,0 -55,79 -101,162 -24,43 -26,56 -26,165 0,102 3,121 20,143 11,14 20,28 20,32 0,4 13,27 30,51 50,75 44,117 -39,262 -47,82 -74,121 -88,123 -15,2 -36,-23 -97,-118 -43,-67 -86,-141 -96,-166 l -19,-44 59,-98 60,-99 -1,-89 0,-89 -72,-114 c -40,-63 -78,-116 -84,-119 -10,-3 -13,40 -13,192 0,175 -2,197 -17,203 -17,7 -79,-23 -262,-125 -53,-30 -111,-60 -129,-68 -62,-25 -43,-46 135,-152 89,-54 162,-103 162,-109 1,-19 -278,-18 -322,1 -52,22 -170,164 -191,232 -3,11 -15,30 -27,42 -19,21 -28,22 -182,22 -89,0 -168,-4 -176,-9 -8,-6 -11,-18 -8,-32 5,-21 -3,-29 -75,-72 -44,-27 -86,-46 -93,-43 -9,3 -14,61 -17,228 -3,123 -8,231 -13,241 -12,28 -34,20 -132,-43 l -93,-60 0,-265 0,-265 -59,-29 c -32,-17 -61,-27 -65,-24 -3,4 -6,109 -6,234 l 0,229 -25,6 c -19,5 -41,-4 -93,-37 -113,-72 -102,-38 -102,-325 l 0,-252 -37,-30 c -59,-45 -202,-132 -242,-147 -31,-11 -43,-10 -79,4 -24,10 -59,30 -78,45 l -34,27 0,188 0,187 83,48 c 166,98 287,178 312,207 23,29 25,37 25,140 0,124 -1,125 -71,81 -24,-15 -91,-54 -149,-86 -58,-33 -117,-67 -132,-78 -14,-10 -33,-18 -41,-18 -16,0 -27,47 -27,118 0,38 4,45 31,60 33,18 74,43 261,163 l 118,74 0,112 c 0,64 -4,114 -10,118 -11,7 -50,-13 -332,-174 -43,-24 -59,-29 -62,-19 -2,7 -7,63 -9,123 -3,61 -9,118 -12,128 -6,15 -22,17 -116,17 l -109,0 0,-135 c 0,-87 -4,-135 -10,-135 -6,0 -44,18 -85,40 -41,22 -110,59 -152,81 -43,23 -93,50 -111,61 -18,11 -39,18 -46,15 -17,-7 -30,-148 -18,-192 8,-32 51,-64 290,-213 l 122,-76 0,-73 c 0,-40 -4,-73 -8,-73 -4,0 -52,27 -105,60 -54,33 -100,60 -103,60 -3,0 -24,13 -47,29 -57,38 -128,74 -135,67 -3,-4 -7,-55 -10,-114 -4,-97 -2,-109 17,-134 19,-23 180,-138 195,-138 3,0 37,-20 75,-45 38,-25 73,-45 77,-45 3,0 15,-10 25,-22 17,-19 19,-40 19,-234 l 0,-213 -27,-15 c -64,-33 -107,-37 -170,-18 -66,21 -209,109 -235,146 -14,19 -18,60 -24,252 -8,288 -10,294 -117,353 -41,22 -77,41 -81,41 -3,0 -7,-109 -8,-242 -3,-224 -4,-243 -21,-246 -17,-3 -114,51 -129,73 -4,5 -8,121 -8,257 l 0,247 -33,25 c -43,33 -141,76 -172,76 l -25,0 0,-220 c 0,-198 -2,-220 -16,-220 -10,0 -53,20 -98,44 -45,24 -100,47 -124,51 l -42,7 -30,-64 c -50,-105 -41,-126 82,-183 87,-40 118,-61 118,-79 0,-6 -35,-31 -78,-55 -42,-24 -123,-75 -180,-112 -56,-38 -108,-69 -115,-69 -6,0 -21,-7 -31,-15 -11,-8 -23,-15 -28,-15 -4,0 -23,25 -43,55 -39,61 -76,86 -103,68 -14,-8 -17,-27 -17,-99 0,-109 -15,-148 -61,-152 l -31,-3 -7,163 c -4,89 -12,172 -18,183 -17,33 -51,55 -85,55 l -33,0 0,-258 0,-257 -92,-55 c -266,-158 -380,-227 -441,-266 -32,-20 -68,-39 -79,-42 -17,-4 -19,-2 -13,19 14,47 59,121 91,148 22,20 55,34 108,45 94,21 126,52 126,122 l 0,44 -55,0 c -46,0 -55,3 -55,18 0,33 24,51 120,90 84,34 98,43 117,78 13,21 23,49 23,62 0,20 -4,22 -61,22 l -60,0 7,45 c 7,52 -6,74 -57,95 -39,17 -71,6 -91,-30 -9,-16 -21,-30 -25,-30 -5,0 -21,25 -36,55 -15,30 -33,55 -40,55 -7,0 -24,-11 -37,-25 -31,-33 -41,-146 -17,-194 26,-52 30,-87 12,-120 -8,-17 -19,-31 -23,-31 -4,0 -20,25 -35,55 -26,53 -34,60 -67,55 -47,-5 -55,-116 -15,-216 l 25,-62 -29,-64 c -16,-34 -41,-81 -55,-103 l -25,-40 -1,380 0,380 33,21 c 48,31 244,156 310,197 31,20 57,44 57,52 0,23 -35,53 -78,66 -42,12 -48,10 -202,-86 -20,-12 -54,-32 -77,-44 -40,-20 -42,-20 -48,-2 -10,31 2,44 101,111 52,35 98,68 101,73 9,15 -39,57 -79,69 -32,9 -45,9 -74,-5 -19,-9 -39,-17 -44,-17 -6,0 -10,31 -10,70 0,66 -1,70 -26,76 -41,11 -116,-2 -131,-22 -7,-10 -13,-41 -13,-70 l 0,-53 -53,6 c -73,7 -137,-28 -137,-76 0,-5 43,-36 95,-67 76,-45 95,-61 95,-80 0,-12 -5,-26 -10,-29 -6,-4 -66,23 -135,59 -68,36 -136,66 -150,66 -28,0 -85,-26 -97,-44 -23,-34 -13,-43 186,-158 66,-38 142,-85 168,-104 l 48,-36 0,-368 c 0,-215 -4,-371 -9,-375 -12,-7 -41,36 -74,111 -32,74 -33,92 -7,167 25,71 25,86 -2,142 -18,37 -27,45 -50,45 -23,0 -30,-7 -47,-45 -11,-25 -25,-45 -31,-45 -6,0 -21,21 -32,47 -18,42 -19,53 -9,88 37,126 34,169 -18,227 -32,36 -43,33 -72,-25 -12,-23 -23,-44 -24,-45 -2,-2 -16,6 -32,17 -24,18 -33,19 -64,11 -43,-12 -79,-41 -79,-64 0,-9 7,-30 15,-45 8,-16 11,-31 8,-35 -4,-3 -35,-6 -71,-6 l -65,0 6,-36 c 8,-51 31,-72 96,-90 139,-38 181,-62 181,-105 0,-15 -10,-19 -67,-21 -82,-4 -87,-14 -41,-84 32,-47 36,-50 118,-72 106,-28 108,-30 147,-80 30,-40 70,-138 60,-148 -6,-6 -92,36 -187,91 -36,21 -94,55 -130,75 -87,49 -244,141 -302,176 l -47,29 -1,173 0,172 118,0 c 65,0 121,3 125,6 7,8 -34,88 -150,294 l -88,155 -195,5 c -163,4 -200,8 -228,23 -27,15 -31,21 -21,33 9,11 51,14 219,14 l 207,0 27,40 c 14,22 26,42 26,45 0,4 73,122 156,252 19,29 34,64 34,78 l 0,25 -260,0 c -257,0 -259,0 -271,-22 -15,-28 -163,-257 -181,-280 -7,-9 -23,-19 -34,-22 -58,-17 -24,70 116,301 22,36 40,75 40,87 0,11 -23,59 -51,106 -29,47 -64,105 -78,131 -103,180 -116,199 -133,199 -10,0 -31,-23 -53,-62 z m 12635,-495 c 19,-31 45,-74 56,-95 l 21,-38 -23,-92 c -49,-198 -87,-338 -93,-338 -3,0 -15,37 -25,82 -10,46 -31,125 -47,177 -43,138 -40,181 19,280 26,44 49,80 52,81 3,0 21,-26 40,-57 z m -278,-462 c 87,-90 157,-165 156,-167 -2,-1 -30,6 -63,16 -33,11 -123,38 -200,60 -86,25 -149,50 -163,63 -20,19 -102,173 -102,192 0,4 48,5 106,3 l 107,-3 159,-164 z m 1992,155 c 74,-31 107,-132 64,-195 -34,-50 -69,-72 -115,-73 -84,-1 -143,57 -143,141 0,105 96,168 194,127 z m -2649,-61 c 10,-36 23,-69 29,-74 9,-8 79,-30 229,-74 20,-6 37,-14 37,-17 0,-3 -38,-29 -85,-59 -106,-68 -113,-75 -90,-101 10,-11 23,-20 29,-20 6,0 44,-22 84,-49 l 73,-48 -63,-17 c -54,-15 -178,-50 -214,-61 -12,-3 -74,-224 -81,-290 -7,-53 10,-67 117,-94 47,-13 104,-29 128,-37 87,-29 97,-24 202,86 52,55 98,100 103,100 4,0 7,-56 7,-125 0,-143 2,-145 73,-96 48,32 91,55 126,66 22,7 23,5 17,-16 -33,-107 -56,-212 -56,-255 l 0,-50 109,-107 c 59,-59 112,-107 117,-107 5,0 62,53 127,118 113,113 117,119 117,160 l 0,44 33,-8 c 17,-3 86,-24 151,-45 66,-22 125,-39 132,-39 12,0 39,-98 30,-108 -5,-5 -55,8 -206,51 -47,14 -100,28 -119,32 l -34,7 6,-75 c 6,-90 18,-114 63,-133 34,-14 219,-72 302,-94 24,-6 45,-16 48,-23 2,-7 16,-61 30,-122 14,-60 30,-127 35,-149 11,-45 0,-63 -63,-96 -48,-25 -66,-25 -161,-1 -108,27 -159,57 -169,101 -37,149 -93,328 -108,344 -22,22 -150,60 -163,47 -5,-5 -5,-27 1,-53 31,-127 72,-304 72,-310 0,-13 -44,-9 -93,8 -27,9 -47,22 -47,30 0,15 -65,295 -79,344 -9,31 -84,59 -159,60 l -53,0 6,-45 c 7,-41 5,-45 -17,-50 -13,-3 -111,-2 -218,3 -107,6 -199,7 -203,2 -5,-4 -7,-60 -5,-124 2,-64 0,-116 -4,-116 -3,0 -29,12 -57,26 -72,38 -108,29 -158,-39 -77,-104 -311,-318 -378,-343 -10,-4 -14,10 -17,58 -5,94 18,247 57,389 54,193 52,199 -52,260 -29,17 -53,35 -53,40 0,12 66,44 133,64 36,10 57,22 57,31 0,8 -17,43 -38,77 -34,54 -74,124 -154,266 -18,32 -18,34 -1,47 10,7 23,14 28,14 6,0 26,13 44,28 l 34,28 -35,79 c -51,116 -115,375 -92,375 23,0 317,-238 328,-266 3,-7 16,-20 30,-29 23,-16 27,-15 68,8 24,14 64,37 91,52 26,15 52,35 57,45 6,10 10,64 10,119 l 0,100 -37,6 c -121,20 -403,124 -433,160 -7,9 7,20 58,43 108,49 285,108 333,111 12,1 22,-17 34,-64 z m 1524,33 c -33,-66 -94,-156 -112,-168 -32,-19 -395,-116 -404,-106 -2,2 58,70 134,150 l 138,146 128,0 128,0 -12,-22 z m -2536,-34 c 62,-25 115,-49 119,-53 9,-8 -87,-54 -192,-92 l -75,-27 -88,45 c -48,25 -86,51 -84,57 5,16 168,115 190,116 10,0 68,-21 130,-46 z m 3031,-59 c 40,-21 166,-125 166,-137 0,-6 -47,-7 -130,-3 -113,7 -130,6 -130,-8 0,-15 70,-223 95,-284 8,-18 20,-33 28,-33 7,0 38,34 68,75 95,131 113,155 117,150 6,-6 -16,-177 -29,-227 -15,-57 -56,-97 -142,-139 -98,-47 -107,-55 -107,-90 0,-15 -4,-31 -10,-34 -5,-3 -10,2 -10,12 0,11 -6,28 -14,38 -13,18 -14,18 -44,-3 l -30,-22 -23,100 c -12,56 -27,107 -33,115 -6,8 -65,30 -131,49 -192,56 -185,44 -75,116 52,34 95,69 95,77 0,8 -41,37 -94,67 -52,29 -97,58 -99,64 -2,6 16,16 40,22 24,6 63,18 88,27 25,8 70,16 100,18 30,2 91,17 135,34 91,34 127,37 169,16 z M 993,3649 c 18,-21 40,-51 47,-66 27,-53 119,-208 132,-222 10,-12 9,-16 -2,-19 -28,-10 -69,-63 -76,-98 -7,-39 -15,-47 -38,-38 -13,5 -12,12 11,51 26,46 26,46 9,77 -10,17 -30,51 -44,76 -13,25 -28,50 -32,55 -5,6 -31,50 -59,98 -47,81 -61,124 -45,140 12,12 66,-17 97,-54 z m 10067,28 65,-32 5,-113 5,-113 110,-65 110,-65 35,43 c 54,67 263,271 298,291 l 32,18 0,-44 c 0,-68 -36,-263 -64,-353 -36,-113 -36,-117 29,-154 30,-17 56,-34 59,-38 4,-7 -26,-63 -140,-254 -35,-59 -64,-113 -64,-120 0,-7 49,-31 111,-53 61,-21 113,-43 115,-47 3,-4 -6,-13 -18,-21 -13,-8 -51,-31 -86,-53 l -64,-39 6,-55 c 3,-30 17,-84 31,-119 34,-81 65,-229 72,-350 l 6,-93 -49,27 c -68,37 -147,99 -299,235 -71,64 -138,119 -148,123 -11,4 -41,-5 -78,-23 -32,-17 -59,-27 -60,-23 -1,5 -2,53 -3,108 l -1,100 -292,3 c -280,2 -293,1 -293,-16 0,-11 13,-37 28,-58 16,-21 58,-91 94,-155 l 65,-116 -46,-12 c -25,-7 -66,-22 -90,-34 -47,-24 -47,-23 -121,-236 -33,-96 -35,-98 -77,-110 -57,-16 -58,-4 -9,141 51,148 53,163 30,172 -23,9 -111,-2 -160,-20 -38,-13 -45,-21 -77,-92 -19,-42 -45,-110 -57,-150 -25,-78 -62,-122 -105,-122 -48,0 -49,23 -5,104 48,87 50,124 8,144 -22,10 -39,10 -100,-3 -132,-29 -148,-30 -148,-9 1,66 37,90 151,100 41,3 99,10 129,16 30,6 84,11 120,12 l 65,1 3,152 3,152 120,-61 c 80,-41 123,-58 130,-51 6,6 9,39 7,74 l -3,64 -101,55 -102,56 15,37 c 9,21 18,36 22,34 34,-18 145,-67 152,-67 5,0 9,28 9,63 l 0,63 -67,37 c -38,21 -93,50 -123,65 l -55,28 -3,112 -3,112 117,-59 c 65,-33 123,-57 131,-54 10,4 13,35 13,133 0,71 4,131 9,134 4,3 54,-18 109,-47 l 102,-52 0,-132 c 0,-81 5,-142 12,-158 14,-30 99,-78 122,-69 13,5 16,28 16,136 l 0,130 28,-6 c 15,-4 32,-13 37,-21 6,-7 16,-80 23,-161 7,-81 17,-153 22,-160 9,-10 96,-44 113,-44 3,0 8,61 12,135 4,74 11,135 16,135 5,0 59,-25 120,-56 135,-67 157,-68 179,-6 22,65 6,86 -112,143 -53,26 -98,51 -101,56 -3,5 39,36 94,68 109,66 119,83 67,115 -67,42 -89,37 -229,-46 -74,-45 -109,-51 -148,-28 -17,10 -31,21 -31,25 0,7 54,44 134,91 72,43 72,75 0,98 -48,16 -90,6 -154,-35 -30,-20 -74,-45 -97,-56 l -41,-20 -62,25 c -35,14 -83,38 -108,52 l -45,27 39,23 c 116,69 184,116 184,128 0,12 -148,116 -165,116 -3,0 -17,7 -30,16 -36,23 -21,42 74,92 l 82,44 130,-66 c 72,-36 141,-66 154,-66 36,0 90,42 90,70 0,21 -15,32 -97,75 -121,62 -127,68 -97,89 35,24 87,19 159,-17 z m -750,-92 c 0,-41 -4,-75 -10,-75 -5,0 -35,-15 -67,-34 -32,-19 -61,-32 -65,-29 -14,8 -9,123 5,138 10,10 122,72 135,75 1,0 2,-34 2,-75 z m 5389,65 c 18,-5 67,-37 108,-71 l 75,-62 77,32 c 128,55 137,57 174,38 81,-43 132,-77 132,-88 0,-15 -26,-33 -153,-104 -143,-80 -155,-108 -66,-150 74,-35 101,-29 201,40 179,126 192,131 261,95 23,-12 42,-27 42,-34 0,-24 -31,-54 -81,-77 -156,-71 -194,-94 -197,-118 -5,-32 40,-68 94,-76 37,-6 54,0 209,84 l 169,90 56,-31 c 155,-87 190,-110 190,-124 0,-24 -42,-56 -144,-108 -52,-27 -105,-59 -117,-72 l -22,-24 24,-26 c 13,-15 69,-48 124,-74 55,-26 110,-59 123,-72 l 22,-24 -22,-21 c -29,-26 -164,-103 -201,-114 -25,-7 -49,3 -168,66 -151,81 -185,89 -249,57 -26,-12 -35,-23 -35,-42 0,-20 14,-33 70,-68 39,-23 96,-56 128,-72 61,-33 70,-50 35,-74 -47,-33 -105,-21 -238,50 -115,62 -126,66 -176,62 -64,-5 -104,-29 -104,-62 0,-24 16,-37 101,-86 107,-61 159,-96 159,-106 0,-6 -37,-31 -82,-54 -100,-52 -152,-87 -197,-133 -29,-31 -33,-40 -27,-69 5,-30 2,-38 -29,-68 -43,-42 -45,-74 -11,-213 l 23,-97 -82,45 c -122,66 -124,66 -127,-51 l -3,-95 -72,63 c -39,35 -72,66 -72,71 -1,4 19,27 44,51 29,27 43,49 40,58 -3,8 -37,25 -75,36 -102,31 -133,18 -257,-107 -53,-53 -108,-104 -122,-113 -32,-22 -109,-24 -136,-4 -18,13 -12,22 110,139 113,109 129,128 119,144 -17,28 -54,43 -112,43 -77,0 -113,-21 -205,-121 -44,-49 -100,-98 -123,-111 -37,-19 -47,-21 -85,-11 -145,38 -212,60 -219,73 -4,8 -15,46 -25,85 l -17,69 28,24 c 16,14 61,55 101,93 39,37 83,71 98,75 37,9 83,0 157,-31 120,-51 163,-64 214,-65 50,0 54,2 120,63 l 68,64 -164,52 c -253,80 -252,79 -179,128 l 41,27 86,-22 c 48,-12 130,-33 182,-47 142,-37 160,-35 226,26 30,29 54,55 54,59 0,12 -83,44 -230,91 -74,23 -137,44 -139,46 -3,2 27,36 67,76 83,83 88,103 41,160 -46,56 -69,51 -161,-33 -42,-39 -79,-70 -82,-70 -12,0 -25,40 -49,146 -30,133 -63,214 -86,214 -9,0 -45,-29 -79,-63 l -63,-64 16,-69 c 8,-38 30,-127 47,-198 l 32,-129 -45,-38 c -24,-21 -48,-34 -52,-29 -5,4 -21,63 -36,131 -40,178 -50,209 -67,216 -10,4 -37,-16 -79,-57 -61,-60 -62,-63 -54,-98 5,-21 24,-104 44,-185 20,-82 33,-157 30,-168 -7,-21 -133,-141 -188,-177 -35,-23 -40,-24 -93,-13 -86,17 -84,13 -128,204 l -23,98 31,32 c 18,18 71,67 119,111 48,43 99,93 114,112 l 26,34 -18,86 c -10,46 -22,87 -26,90 -4,2 -67,-47 -139,-111 -72,-63 -137,-115 -144,-115 -14,0 -36,62 -36,99 0,13 14,33 33,49 17,14 74,67 126,117 l 94,90 -7,-38 c -5,-28 -3,-39 7,-43 18,-7 206,71 231,95 10,11 22,36 26,57 4,22 13,63 19,93 13,65 93,180 126,181 11,1 34,10 50,20 40,26 103,60 110,60 16,0 -4,-36 -71,-125 -77,-103 -96,-142 -75,-154 6,-4 82,-16 167,-25 169,-20 188,-16 166,26 -24,47 -88,248 -79,248 5,0 47,-32 93,-70 98,-83 100,-89 90,-248 l -7,-108 90,-73 c 54,-43 97,-71 108,-69 20,4 40,93 45,207 l 3,64 -69,57 c -83,68 -98,100 -100,220 -2,145 26,181 60,77 9,-29 25,-70 35,-92 10,-22 25,-57 33,-77 22,-55 43,-49 101,32 28,38 74,102 103,141 28,38 52,74 52,79 0,21 -50,33 -159,39 -161,9 -177,22 -83,67 89,42 165,72 187,73 11,1 35,-3 54,-9 z m -5706,-68 c 12,-11 17,-30 17,-74 l 0,-58 -70,35 -70,35 0,58 c 0,32 3,62 6,65 7,7 86,-35 117,-61 z m -3130,-27 c 18,-25 20,-25 153,-25 151,0 181,-8 230,-61 37,-39 89,-120 128,-197 21,-42 24,-53 12,-58 -22,-8 -75,18 -149,75 -78,60 -160,104 -185,99 -12,-2 -20,-19 -27,-64 l -10,-60 -41,30 c -23,17 -85,58 -139,91 -120,75 -175,113 -175,123 1,4 35,31 78,60 86,58 74,59 125,-13 z m 2706,-34 c 39,-23 71,-48 71,-55 0,-21 -31,-42 -109,-71 -87,-33 -113,-55 -109,-93 3,-23 17,-34 104,-77 130,-65 128,-63 113,-82 -20,-23 -152,-93 -177,-93 -12,0 -73,25 -134,56 -97,49 -118,56 -155,51 -76,-8 -99,-54 -42,-85 96,-53 179,-105 179,-112 0,-10 -56,-30 -84,-30 -12,0 -63,23 -115,50 -71,38 -104,50 -137,50 l -44,0 0,160 c 0,150 -1,160 -19,160 -39,0 -106,-32 -194,-92 -126,-86 -197,-118 -197,-87 0,18 56,118 118,208 38,56 73,96 106,118 l 48,33 134,0 c 133,0 134,0 134,-23 0,-28 53,-57 106,-57 35,0 100,27 125,53 8,7 34,25 59,41 65,39 125,33 219,-23 z m 4101,-61 c 202,-58 210,-62 229,-89 26,-37 91,-160 91,-171 0,-6 -44,-10 -108,-10 l -107,0 -170,170 -170,170 50,-15 c 28,-9 111,-33 185,-55 z m -428,13 c -22,-27 -90,-96 -150,-155 l -111,-108 -120,0 -121,0 36,73 c 71,140 87,152 276,192 62,13 129,28 148,33 19,6 46,10 58,11 23,1 22,-2 -16,-46 z m 153,-108 c 83,-307 85,-313 72,-348 -15,-40 -99,-177 -109,-177 -12,0 -67,101 -84,155 -15,47 -14,55 5,135 48,203 83,341 86,338 2,-2 15,-48 30,-103 z m -5335,55 c 66,-34 108,-77 130,-136 25,-69 25,-119 0,-187 -60,-160 -254,-210 -396,-102 -82,63 -110,206 -60,309 30,61 44,75 110,110 63,34 157,36 216,6 z m 1814,-62 c 25,-12 48,-28 50,-35 6,-15 -65,-70 -103,-80 -30,-7 -125,23 -146,47 -15,17 -12,20 42,54 66,42 95,44 157,14 z m 585,-12 c 47,-30 45,-43 -10,-72 -38,-19 -76,-17 -126,6 -54,24 -57,52 -10,81 41,26 89,21 146,-15 z m -3980,-17 c 109,-61 217,-122 285,-162 60,-34 74,-39 115,-35 29,3 63,15 87,31 l 39,27 3,-141 3,-142 43,6 c 28,4 78,27 138,63 98,59 186,99 197,89 11,-12 -74,-157 -119,-205 -25,-26 -73,-61 -108,-79 -62,-31 -65,-31 -211,-31 -129,0 -150,-2 -164,-18 -21,-23 -157,-233 -157,-242 0,-9 -130,-97 -163,-109 -71,-27 -187,12 -187,63 0,3 21,18 48,33 26,15 94,58 151,95 57,38 116,75 132,84 78,40 -26,144 -143,144 -50,0 -118,-32 -198,-91 -125,-93 -159,-112 -209,-117 -50,-4 -82,9 -216,92 -27,18 -62,37 -77,44 l -28,12 0,114 0,113 110,69 c 188,118 182,115 220,108 51,-9 84,-28 193,-114 179,-141 225,-150 350,-69 42,27 77,54 77,59 0,5 -10,15 -22,21 -13,7 -66,40 -118,74 -52,34 -124,81 -160,104 -104,66 -105,68 -89,87 22,27 72,54 98,54 13,0 49,-14 80,-31 z m -2157,4 c 26,-9 60,-27 75,-40 23,-19 26,-24 13,-32 -158,-100 -355,-241 -357,-257 -2,-14 16,-31 67,-63 39,-23 79,-45 89,-48 24,-6 86,25 276,141 159,97 160,97 198,86 51,-15 193,-100 240,-143 l 37,-35 0,-83 c 0,-46 -4,-89 -8,-95 -20,-31 -264,-174 -296,-174 -20,0 -122,55 -306,167 -61,38 -83,46 -120,45 -84,-2 -180,-59 -180,-107 0,-36 57,-86 131,-116 35,-14 102,-49 147,-78 97,-63 104,-82 40,-111 -56,-25 -105,-25 -147,1 -19,12 -69,39 -110,62 -42,22 -92,51 -111,64 -19,13 -38,23 -43,23 -4,0 -25,11 -47,25 -22,14 -49,25 -61,25 -12,0 -57,-21 -100,-47 -69,-41 -79,-51 -79,-75 0,-18 8,-32 23,-41 12,-8 76,-48 142,-89 66,-41 137,-85 158,-97 20,-13 37,-28 37,-35 0,-19 -38,-49 -110,-85 -36,-19 -78,-46 -94,-62 -28,-26 -29,-30 -18,-67 18,-60 54,-107 84,-110 19,-2 60,17 137,64 66,40 116,64 125,61 12,-5 16,-21 16,-62 0,-63 -14,-97 -96,-222 -62,-96 -84,-137 -84,-156 0,-8 19,-19 42,-26 100,-30 99,-29 39,-63 -51,-30 -53,-32 -48,-67 3,-20 17,-68 31,-106 27,-77 45,-205 29,-205 -18,0 -134,81 -221,154 l -83,69 -43,-21 -44,-21 6,65 5,64 -71,0 -71,0 24,36 c 14,20 25,45 25,55 0,28 26,36 82,25 47,-10 51,-9 69,13 30,37 25,76 -16,107 -42,31 -43,45 -10,88 29,38 55,97 55,126 0,33 -45,25 -133,-26 -60,-35 -90,-46 -120,-46 -94,2 -68,30 156,172 l 68,43 -3,70 c -2,39 -7,72 -13,74 -9,3 -123,-64 -336,-196 -85,-52 -114,-53 -193,-3 -60,38 -182,111 -237,142 -105,59 -329,196 -329,203 0,4 47,7 105,7 103,0 105,0 142,-32 21,-18 47,-43 58,-55 18,-20 30,-23 99,-23 l 78,0 -5,28 c -3,15 -9,39 -13,55 -6,26 -5,27 38,27 41,0 50,-5 102,-54 46,-45 67,-57 110,-66 87,-18 106,4 66,78 l -21,37 35,14 c 58,22 60,86 5,135 -16,14 -29,30 -29,35 0,4 14,25 30,46 44,56 37,70 -32,68 -70,-2 -109,-21 -174,-85 -43,-42 -60,-51 -98,-55 -25,-3 -46,-2 -46,2 0,4 14,30 31,57 16,28 27,53 24,57 -4,3 -40,6 -80,6 -69,0 -76,-2 -129,-40 -101,-72 -115,-78 -185,-83 -41,-3 -71,0 -75,6 -7,11 517,343 593,374 l 48,21 134,-78 c 214,-124 236,-135 263,-135 25,0 26,1 26,69 0,64 -2,70 -22,76 -44,13 -193,104 -223,135 -25,26 -27,33 -15,40 27,17 56,11 133,-30 41,-22 89,-40 106,-40 29,0 31,3 31,35 0,41 -18,81 -49,109 -27,25 -26,34 7,73 26,30 29,31 70,22 69,-15 83,-9 362,163 52,32 101,58 110,58 8,0 36,-8 62,-17 z m 13488,-82 c 0,-97 -1,-100 -27,-119 -38,-27 -100,-52 -129,-52 -18,0 -26,8 -35,40 -10,33 -9,47 5,85 26,66 59,101 119,124 29,11 55,20 60,20 4,1 7,-44 7,-98 z M 1310,3211 c 0,-127 -4,-137 -47,-118 -22,10 -23,16 -23,124 l 0,113 35,0 35,0 0,-119 z m 16065,74 c 71,-41 89,-69 89,-131 -2,-78 -11,-84 -86,-48 -104,49 -108,54 -108,138 0,40 3,75 6,79 8,7 48,-8 99,-38 z m -7343,-175 -7,-65 -65,-32 c -36,-18 -71,-32 -77,-32 -19,-1 -17,123 2,139 20,17 149,69 152,61 2,-3 -1,-35 -5,-71 z m 207,57 c 63,-32 81,-61 84,-132 2,-55 0,-60 -19,-59 -12,0 -49,18 -83,40 l -61,39 0,68 c 0,78 6,81 79,44 z m 3620,-188 c 7,-35 14,-72 17,-81 4,-14 -1,-18 -23,-18 -73,0 -73,1 -73,124 l 1,111 33,-36 c 25,-27 36,-50 45,-100 z m -8421,25 72,-46 0,-100 c 0,-113 1,-111 -98,-168 l -52,-30 -63,31 c -34,17 -74,43 -89,57 -27,25 -28,30 -28,123 l 0,98 33,25 c 42,32 95,55 128,56 14,0 58,-21 97,-46 z m 3210,-10 c 48,-26 115,-62 150,-80 37,-20 78,-34 98,-34 29,0 34,3 34,24 0,24 0,24 75,-17 41,-22 75,-43 75,-47 0,-13 -46,-49 -102,-79 -46,-25 -68,-31 -118,-31 -57,0 -68,4 -131,46 -78,51 -144,125 -183,201 -14,29 -26,55 -26,58 0,16 51,0 128,-41 z m 1092,-114 c 0,-127 -2,-145 -25,-196 -14,-30 -30,-54 -36,-52 -6,2 -44,30 -84,63 l -74,60 0,75 c -1,74 0,75 32,97 50,34 161,92 175,93 9,0 12,-34 12,-140 z m 7528,91 c 20,-10 48,-30 60,-44 l 24,-25 -76,-51 c -41,-28 -83,-51 -93,-51 -20,0 -128,51 -158,75 -25,20 -14,30 78,79 78,41 112,44 165,17 z m 684,-1 c 25,-11 57,-29 72,-41 26,-21 27,-22 9,-41 -48,-53 -147,-67 -219,-30 -63,32 -69,44 -36,74 69,64 101,71 174,38 z m -7922,-198 c 0,-114 -6,-137 -24,-100 -13,25 -116,71 -187,83 l -44,8 115,58 c 63,32 121,58 128,58 9,1 12,-27 12,-107 z m -646,-30 c 5,-59 2,-89 -10,-125 -26,-78 -28,-76 178,-258 l 40,-35 -16,-32 c -11,-21 -21,-30 -29,-26 -40,24 -107,72 -139,100 -73,65 -113,54 -144,-38 -27,-82 -16,-106 97,-223 80,-82 99,-107 99,-131 0,-16 -4,-35 -9,-43 -12,-18 -35,-4 -120,75 -59,54 -62,56 -85,41 -21,-14 -86,-147 -86,-176 0,-24 -21,-19 -49,11 -35,38 -36,30 20,198 21,63 39,124 39,135 0,23 -147,175 -170,175 -11,0 -21,-20 -34,-67 -19,-74 -65,-174 -82,-180 -6,-2 -22,5 -35,16 -26,21 -26,23 22,183 l 21,68 166,2 c 155,3 167,4 170,22 2,10 17,30 33,43 l 29,25 0,133 0,134 37,30 c 20,16 39,28 43,26 4,-2 10,-40 14,-83 z m 8283,-3 c 15,-6 58,-31 96,-56 l 67,-47 0,-72 c 0,-124 -8,-127 -122,-53 l -78,52 0,93 c 0,52 2,94 4,94 3,0 17,-5 33,-11 z m -197,-87 c 0,-56 -5,-94 -12,-104 -21,-24 -80,-56 -126,-66 -51,-12 -62,1 -62,73 0,78 47,137 136,169 65,24 64,25 64,-72 z m -9880,45 c 0,-7 -24,-28 -52,-46 -206,-127 -248,-154 -248,-160 0,-16 50,-51 170,-121 163,-95 218,-123 236,-116 11,4 14,40 14,196 0,104 4,190 8,190 11,0 102,-142 142,-219 29,-59 32,-71 28,-140 -3,-71 -7,-82 -61,-175 -31,-54 -57,-107 -57,-117 0,-10 13,-40 28,-66 61,-104 102,-183 95,-183 -5,0 -44,22 -88,50 -44,27 -89,50 -99,50 -11,0 -50,-33 -93,-79 -98,-106 -263,-241 -372,-306 -12,-7 -13,10 -8,111 6,110 31,243 82,444 l 16,65 -24,21 c -38,32 -194,114 -219,114 -12,0 -68,-28 -125,-61 l -103,-61 -86,38 c -80,35 -114,62 -114,90 0,6 42,37 93,69 50,32 115,72 143,91 28,18 64,34 80,36 24,2 38,17 79,79 75,112 110,154 162,188 l 46,31 164,0 c 127,0 163,-3 163,-13 z m 1063,-13 c 56,-29 58,-32 37,-67 -11,-17 -25,-55 -31,-84 l -12,-52 -26,18 c -14,10 -46,29 -71,43 -101,54 -210,121 -226,139 -17,19 -14,19 140,19 125,0 163,-3 189,-16 z m -441,-253 c 3,-183 3,-186 25,-189 12,-2 36,4 54,13 30,16 32,16 53,-5 19,-19 19,-22 5,-33 -9,-7 -76,-25 -149,-41 -128,-28 -134,-28 -147,-10 -16,22 -19,229 -2,239 6,4 33,52 60,108 60,121 67,131 85,116 10,-8 14,-56 16,-198 z m -3077,98 c 25,-12 56,-34 70,-50 l 24,-30 -6,-182 c -3,-100 -8,-185 -12,-189 -8,-8 -255,-157 -304,-183 -21,-11 -53,-32 -71,-47 -31,-25 -34,-33 -40,-100 -12,-141 16,-165 122,-104 33,20 62,36 65,36 2,0 48,25 103,55 54,30 105,55 112,55 8,0 12,-21 12,-74 l 0,-74 -77,-50 c -43,-27 -125,-77 -182,-112 l -104,-62 -94,6 -93,7 0,-71 c 0,-65 -2,-71 -17,-65 -69,29 -71,29 -97,12 -14,-10 -36,-32 -48,-50 -20,-30 -127,-121 -192,-163 l -29,-18 6,88 c 3,49 18,131 33,183 14,51 24,100 21,108 -4,8 -23,22 -43,32 -20,10 -36,23 -36,28 0,6 23,17 51,25 61,18 66,23 52,49 -9,17 -8,22 9,31 19,10 20,20 20,275 l 0,264 65,34 65,35 0,-240 0,-241 39,7 c 57,9 144,44 174,70 l 27,23 0,266 0,266 73,45 c 126,78 211,124 235,125 12,1 42,-9 67,-20 z m 13037,-60 c 13,-6 38,-22 56,-36 l 32,-24 0,-190 0,-190 36,-21 c 19,-11 32,-24 27,-29 -4,-4 -48,-32 -98,-62 -49,-30 -94,-62 -99,-70 -7,-11 1,-48 27,-124 47,-139 75,-261 83,-362 5,-60 4,-81 -5,-81 -13,0 -74,53 -188,164 -61,59 -73,76 -73,103 0,27 -7,37 -40,58 -22,14 -44,25 -49,25 -6,0 -17,10 -25,21 -8,12 -21,19 -29,16 -22,-8 -89,27 -135,70 -38,36 -42,45 -42,86 0,26 2,47 5,47 3,0 65,-29 138,-65 73,-36 143,-65 155,-65 20,0 22,5 21,48 -1,94 -13,110 -121,158 -54,23 -113,55 -132,69 -50,38 -77,100 -83,194 -7,93 1,131 25,131 9,0 77,-29 151,-65 74,-36 144,-65 155,-63 20,3 21,10 24,170 l 2,167 80,-34 c 44,-19 90,-39 102,-46 z m -5283,-579 c 11,0 29,25 49,66 l 33,66 42,-7 c 23,-4 46,-11 51,-16 6,-5 -42,-58 -122,-135 -150,-143 -159,-161 -92,-188 41,-16 102,-20 132,-8 9,4 76,60 148,125 95,85 140,120 164,124 36,6 116,-13 116,-27 0,-5 -56,-64 -125,-131 -69,-67 -125,-129 -125,-138 0,-13 20,-23 73,-39 40,-12 78,-22 84,-22 13,0 111,79 188,151 68,64 135,119 145,119 17,0 137,-32 197,-52 68,-23 70,-27 92,-128 10,-44 9,-45 -32,-83 -112,-104 -166,-147 -186,-147 -12,0 -54,9 -94,21 -253,73 -254,73 -303,54 -54,-20 -114,-75 -114,-103 0,-33 52,-62 128,-73 78,-11 210,-48 218,-61 10,-15 -37,-58 -75,-69 -39,-11 -46,-10 -275,50 -119,32 -146,32 -179,3 -20,-18 -16,-22 -57,56 -18,34 -40,62 -48,62 -8,0 -40,-21 -70,-47 -94,-81 -115,-95 -124,-80 -4,6 -8,42 -8,78 0,95 -8,128 -34,134 -11,2 -61,11 -111,20 -221,39 -254,48 -334,86 -71,33 -81,41 -71,54 7,8 16,15 21,15 5,0 27,11 49,25 22,14 75,39 117,55 43,17 85,34 93,39 8,4 65,23 125,40 61,18 116,38 123,43 8,7 12,40 12,98 0,47 3,89 6,93 3,3 40,-23 82,-59 41,-35 82,-64 91,-64 z m -6234,55 c 63,-36 122,-65 133,-65 11,0 32,14 45,30 29,34 30,34 56,-52 56,-181 90,-398 64,-398 -19,0 -260,209 -346,300 l -87,93 0,78 c 0,51 4,79 11,79 6,0 62,-29 124,-65 z m 4335,-45 c 0,-117 -9,-108 135,-135 93,-17 289,-79 385,-122 53,-23 54,-25 35,-40 -11,-8 -36,-22 -55,-30 -19,-8 -53,-23 -75,-33 -22,-10 -74,-27 -115,-39 -41,-12 -97,-28 -125,-36 -27,-8 -72,-19 -100,-25 -27,-6 -55,-16 -62,-22 -9,-7 -13,-43 -13,-119 0,-72 -4,-109 -11,-109 -6,0 -69,57 -140,127 -97,95 -126,129 -118,139 6,7 40,19 76,28 97,22 98,23 69,145 -13,57 -29,108 -35,114 -9,9 -89,-2 -136,-19 -5,-2 -15,0 -22,4 -9,6 -5,31 18,102 17,52 32,97 34,99 2,2 12,-13 21,-33 10,-20 24,-36 32,-36 8,0 51,32 95,70 44,39 86,70 94,70 10,0 13,-23 13,-100 z m -2383,56 22,-34 -144,-27 c -80,-15 -149,-33 -156,-41 -9,-11 -2,-24 30,-63 58,-69 108,-111 133,-111 11,0 81,14 155,30 73,17 142,30 153,30 17,0 70,-52 70,-69 0,-4 -28,-13 -62,-20 -127,-25 -178,-44 -178,-66 0,-11 34,-54 82,-102 l 82,-82 -30,-11 c -44,-18 -101,18 -197,123 -86,94 -122,117 -183,117 -39,0 -174,-36 -174,-47 0,-3 50,-57 111,-120 73,-75 108,-118 101,-125 -5,-5 -27,-12 -48,-15 -39,-5 -40,-5 -153,116 l -113,121 -59,0 -59,0 0,60 c 0,57 3,65 74,177 40,65 76,128 80,139 6,20 10,21 35,11 21,-8 60,-6 155,7 70,10 139,22 154,26 15,5 43,9 62,9 29,1 39,-5 57,-33 z m 5734,-87 c 21,-8 30,-23 43,-68 26,-93 25,-98 -45,-157 -14,-11 -30,-24 -37,-28 -13,-8 -79,7 -133,30 -34,15 -37,20 -52,87 l -15,72 26,29 c 15,15 43,38 62,50 32,21 37,22 80,9 25,-7 57,-18 71,-24 z m 1844,-172 c 32,-53 45,-86 42,-100 -31,-126 -86,-330 -91,-334 -7,-7 -6,-11 -55,167 -23,80 -41,159 -41,175 0,18 18,58 47,103 25,40 47,71 48,70 1,-2 24,-38 50,-81 z m -6638,-38 c 38,-24 96,-87 118,-130 22,-42 30,-125 16,-176 -6,-22 -31,-68 -55,-100 -33,-46 -55,-64 -96,-82 -194,-84 -406,63 -387,269 9,98 64,182 150,226 68,36 189,32 254,-7 z m -6102,-1 c 25,-11 25,-12 25,-130 l 0,-118 -45,0 -45,0 0,123 c 0,68 3,127 7,130 9,10 29,8 58,-5 z m -2119,-41 c 1,-1 4,-60 6,-132 l 5,-130 -61,-53 -61,-52 -5,47 c -5,44 -3,48 18,51 22,3 22,6 22,137 0,97 3,135 13,139 10,4 59,-1 63,-7 z m -419,-236 36,-64 -27,-91 c -57,-192 -79,-261 -83,-251 -8,26 -66,255 -75,298 -10,46 -10,49 38,128 55,91 48,92 111,-20 z m 14868,89 c 26,-10 292,-270 276,-270 -5,0 -36,9 -69,19 -34,11 -107,32 -164,47 -130,33 -153,52 -153,127 0,49 -2,53 -35,69 l -35,18 77,0 c 42,0 88,-4 103,-10 z m 905,-17 c 0,-15 -58,-108 -83,-134 -19,-20 -50,-31 -143,-53 -66,-15 -141,-34 -168,-42 -26,-8 -50,-14 -52,-12 -2,2 49,59 112,126 l 116,122 109,0 c 60,0 109,-3 109,-7 z m -6109,-168 c 92,-94 127,-124 141,-119 28,9 22,-11 -34,-110 -114,-200 -121,-209 -180,-224 -245,-62 -290,-66 -337,-26 -17,14 -31,30 -31,34 0,9 96,32 213,51 44,7 88,20 100,30 l 22,17 -75,79 c -41,43 -84,79 -95,81 -11,2 -79,-7 -150,-19 -72,-12 -151,-24 -177,-26 -44,-5 -47,-3 -63,27 -9,18 -15,34 -12,36 2,2 57,16 123,30 65,15 123,30 129,35 6,6 -15,34 -54,73 l -64,64 32,17 c 20,10 41,13 54,9 12,-4 63,-47 114,-96 101,-98 154,-127 226,-128 51,0 107,22 107,43 0,7 -43,58 -95,114 -52,56 -95,106 -95,111 0,10 23,17 62,21 9,0 71,-55 139,-124 z m -2531,-11 c 0,-7 -24,-17 -52,-24 -140,-32 -131,-26 -125,-73 4,-23 12,-75 20,-115 l 14,-74 -46,7 c -108,16 -385,118 -480,176 l -34,21 89,39 c 123,55 280,107 404,134 l 105,22 53,-50 c 28,-28 52,-57 52,-63 z m 7469,30 102,-27 -68,-43 c -115,-73 -111,-68 -89,-93 11,-11 23,-21 27,-21 5,0 36,-18 70,-39 l 62,-39 -41,-11 c -23,-6 -60,-16 -83,-22 -23,-6 -43,-9 -44,-7 -2,2 -15,55 -29,118 -14,63 -31,132 -37,152 -13,41 -6,73 15,65 7,-3 59,-18 115,-33 z M 626,1059 c 73,-73 132,-134 131,-136 -2,-1 -34,7 -72,18 -204,60 -272,83 -291,101 -23,20 -67,97 -79,137 l -7,24 92,-5 92,-6 134,-133 z m 716,101 49,0 -15,-28 c -8,-16 -33,-51 -54,-79 -34,-42 -48,-52 -89,-60 -130,-29 -296,-63 -301,-63 -3,0 50,54 119,120 l 124,121 59,-6 c 32,-3 81,-5 108,-5 z m 14678,-90 c -44,-52 -170,-173 -206,-197 -16,-10 -49,-13 -123,-11 l -101,3 48,80 c 30,52 57,85 76,94 16,7 79,24 140,37 61,13 127,27 146,33 61,16 63,12 20,-39 z m 242,36 c 72,-24 267,-76 284,-76 23,0 72,-56 105,-122 16,-31 29,-60 29,-63 0,-3 -42,-5 -92,-5 l -93,1 -145,139 c -80,77 -142,140 -138,140 4,0 27,-6 50,-14 z m -82,-191 c 58,-207 58,-203 18,-267 -18,-30 -38,-63 -44,-73 -18,-32 -31,-28 -58,17 -59,100 -59,105 -10,294 24,93 43,173 44,178 1,22 11,-8 50,-149 z M 750,831 C 750,818 585,665 533,629 494,602 485,600 391,600 c -56,0 -101,3 -101,6 0,3 20,36 45,74 56,88 86,103 251,131 71,11 131,23 133,25 8,8 31,4 31,-5 z m 345,-45 180,-53 37,-48 c 20,-26 43,-65 51,-86 l 15,-39 -91,0 -92,1 -145,139 c -80,77 -143,140 -140,140 3,0 86,-24 185,-54 z M 890,591 c 17,-63 30,-126 30,-139 0,-19 -57,-113 -97,-162 -14,-16 -93,150 -84,175 2,6 21,73 43,150 22,77 42,149 46,160 7,23 15,0 62,-184 z"
         inkscape:connector-curvature="0"
         style="fill:none;stroke:#000000;stroke-width:25.41568375;stroke-miterlimit:4;stroke-opacity:1;stroke-dasharray:none" />
    </g>
  </g>
  <eggbot
     id="eggbot4228"
     totaldeltay="0"
     totaldeltax="0"
     lastpathnc="0"
     lastpath="0"
     node="0"
     layer="0"
     serialport="/dev/ttyACM0" />
</svg>
