  0
SECTION
  2
HEADER
  9
$ACADVER
  1
AC1014
  9
$HANDSEED
  5
FFFF
  9
$MEASUREMENT
 70
     1
  0
ENDSEC
  0
SECTION
  2
TABLES
  0
TABLE
  2
VPORT
  5
8
330
0
100
AcDbSymbolTable
 70
     4
  0
VPORT
  5
2E
330
8
100
AcDbSymbolTableRecord
100
AcDbViewportTableRecord
  2
*ACTIVE
 70
     0
 10
0.0
 20
0.0
 11
1.0
 21
1.0
 12
210.0
 22
148.5
 13
0.0
 23
0.0
 14
10.0
 24
10.0
 15
10.0
 25
10.0
 16
0.0
 26
0.0
 36
1.0
 17
0.0
 27
0.0
 37
0.0
 40
341.0
 41
1.24
 42
50.0
 43
0.0
 44
0.0
 50
0.0
 51
0.0
 71
     0
 72
   100
 73
     1
 74
     3
 75
     0
 76
     0
 77
     0
 78
     0
  0
ENDTAB
  0
TABLE
  2
LTYPE
  5
5
330
0
100
AcDbSymbolTable
 70
     1
  0
LTYPE
  5
14
330
5
100
AcDbSymbolTableRecord
100
AcDbLinetypeTableRecord
  2
BYBLOCK
 70
     0
  3

 72
    65
 73
     0
 40
0.0
  0
LTYPE
  5
15
330
5
100
AcDbSymbolTableRecord
100
AcDbLinetypeTableRecord
  2
BYLAYER
 70
     0
  3

 72
    65
 73
     0
 40
0.0
  0
LTYPE
  5
16
330
5
100
AcDbSymbolTableRecord
100
AcDbLinetypeTableRecord
  2
CONTINUOUS
 70
     0
  3
Solid line
 72
    65
 73
     0
 40
0.0
  0
ENDTAB
  0
TABLE
  2
LAYER
  5
2
100
AcDbSymbolTable
 70
2
  0
LAYER
  5
50
100
AcDbSymbolTableRecord
100
AcDbLayerTableRecord
  2
0
 70
0
  6
CONTINUOUS
  0
LAYER
  5
51
100
AcDbSymbolTableRecord
100
AcDbLayerTableRecord
  2
Layer_1
 70
0
  6
CONTINUOUS
  0
ENDTAB
  0
TABLE
  2
STYLE
  5
3
330
0
100
AcDbSymbolTable
 70
     1
  0
STYLE
  5
11
330
3
100
AcDbSymbolTableRecord
100
AcDbTextStyleTableRecord
  2
STANDARD
 70
     0
 40
0.0
 41
1.0
 50
0.0
 71
     0
 42
2.5
  3
txt
  4

  0
ENDTAB
  0
TABLE
  2
VIEW
  5
6
330
0
100
AcDbSymbolTable
 70
     0
  0
ENDTAB
  0
TABLE
  2
UCS
  5
7
330
0
100
AcDbSymbolTable
 70
     0
  0
ENDTAB
  0
TABLE
  2
APPID
  5
9
330
0
100
AcDbSymbolTable
 70
     2
  0
APPID
  5
12
330
9
100
AcDbSymbolTableRecord
100
AcDbRegAppTableRecord
  2
ACAD
 70
     0
  0
ENDTAB
  0
TABLE
  2
DIMSTYLE
  5
A
330
0
100
AcDbSymbolTable
 70
     1
  0
DIMSTYLE
105
27
330
A
100
AcDbSymbolTableRecord
100
AcDbDimStyleTableRecord
  2
ISO-25
 70
     0
  3

  4

  5

  6

  7

 40
1.0
 41
2.5
 42
0.625
 43
3.75
 44
1.25
 45
0.0
 46
0.0
 47
0.0
 48
0.0
140
2.5
141
2.5
142
0.0
143
0.03937007874016
144
1.0
145
0.0
146
1.0
147
0.625
 71
     0
 72
     0
 73
     0
 74
     0
 75
     0
 76
     0
 77
     1
 78
     8
170
     0
171
     3
172
     1
173
     0
174
     0
175
     0
176
     0
177
     0
178
     0
270
     2
271
     2
272
     2
273
     2
274
     3
340
11
275
     0
280
     0
281
     0
282
     0
283
     0
284
     8
285
     0
286
     0
287
     3
288
     0
  0
ENDTAB
  0
TABLE
  2
BLOCK_RECORD
  5
1
330
0
100
AcDbSymbolTable
 70
     1
  0
BLOCK_RECORD
  5
1F
330
1
100
AcDbSymbolTableRecord
100
AcDbBlockTableRecord
  2
*MODEL_SPACE
  0
BLOCK_RECORD
  5
1B
330
1
100
AcDbSymbolTableRecord
100
AcDbBlockTableRecord
  2
*PAPER_SPACE
  0
ENDTAB
  0
ENDSEC
  0
SECTION
  2
BLOCKS
  0
BLOCK
  5
20
330
1F
100
AcDbEntity
  8
0
100
AcDbBlockBegin
  2
*MODEL_SPACE
 70
     0
 10
0.0
 20
0.0
 30
0.0
  3
*MODEL_SPACE
  1

  0
ENDBLK
  5
21
330
1F
100
AcDbEntity
  8
0
100
AcDbBlockEnd
  0
BLOCK
  5
1C
330
1B
100
AcDbEntity
 67
     1
  8
0
100
AcDbBlockBegin
  2
*PAPER_SPACE
  1

  0
ENDBLK
  5
1D
330
1B
100
AcDbEntity
 67
     1
  8
0
100
AcDbBlockEnd
  0
ENDSEC
  0
SECTION
  2
ENTITIES
  0
LWPOLYLINE
  5
100
100
AcDbEntity
  8
Layer_1
 62
7
100
AcDbPolyline
 90
8
 70
1
 10
6.749942
 20
5.999948
 30
0.0
 10
6.749942
 20
5.249943
 30
0.0
 10
6.728692
 20
5.249943
 30
0.0
 10
6.728692
 20
5.978658
 30
0.0
 10
5.999936
 20
5.978658
 30
0.0
 10
5.999936
 20
5.999948
 30
0.0
 10
6.749942
 20
5.999948
 30
0.0
 10
6.749942
 20
5.999948
 30
0.0
  0
LWPOLYLINE
  5
101
100
AcDbEntity
  8
Layer_1
 62
7
100
AcDbPolyline
 90
9
 70
1
 10
0.750004
 20
5.999948
 30
0.0
 10
0.750004
 20
5.978658
 30
0.0
 10
0.021248
 20
5.978658
 30
0.0
 10
0.021248
 20
5.249943
 30
0.0
 10
-0.000000
 20
5.249943
 30
0.0
 10
-0.000000
 20
5.989282
 30
0.0
 10
-0.000000
 20
5.999948
 30
0.0
 10
0.750004
 20
5.999948
 30
0.0
 10
0.750004
 20
5.999948
 30
0.0
  0
LWPOLYLINE
  5
102
100
AcDbEntity
  8
Layer_1
 62
7
100
AcDbPolyline
 90
8
 70
1
 10
6.749935
 20
0.599979
 30
0.0
 10
6.749935
 20
-0.000000
 30
0.0
 10
5.999930
 20
-0.000000
 30
0.0
 10
5.999930
 20
0.021249
 30
0.0
 10
6.728686
 20
0.021249
 30
0.0
 10
6.728686
 20
0.599979
 30
0.0
 10
6.749935
 20
0.599979
 30
0.0
 10
6.749935
 20
0.599979
 30
0.0
  0
LWPOLYLINE
  5
103
100
AcDbEntity
  8
Layer_1
 62
7
100
AcDbPolyline
 90
8
 70
1
 10
0.021248
 20
0.599979
 30
0.0
 10
0.021248
 20
0.021249
 30
0.0
 10
0.750004
 20
0.021249
 30
0.0
 10
0.750004
 20
-0.000000
 30
0.0
 10
-0.000000
 20
-0.000000
 30
0.0
 10
-0.000000
 20
0.599979
 30
0.0
 10
0.021248
 20
0.599979
 30
0.0
 10
0.021248
 20
0.599979
 30
0.0
  0
LWPOLYLINE
  5
104
100
AcDbEntity
  8
Layer_1
 62
7
100
AcDbPolyline
 90
14
 70
0
 10
4.113618
 20
4.938134
 30
0.0
 10
4.057095
 20
4.901443
 30
0.0
 10
4.022337
 20
4.843711
 30
0.0
 10
4.015504
 20
4.784540
 30
0.0
 10
4.031341
 20
4.729262
 30
0.0
 10
4.066750
 20
4.683954
 30
0.0
 10
4.118634
 20
4.654699
 30
0.0
 10
4.177805
 20
4.647866
 30
0.0
 10
4.233083
 20
4.663703
 30
0.0
 10
4.278391
 20
4.699112
 30
0.0
 10
4.307646
 20
4.750996
 30
0.0
 10
4.314426
 20
4.808047
 30
0.0
 10
4.113618
 20
4.938134
 30
0.0
 10
4.113618
 20
4.938134
 30
0.0
  0
LWPOLYLINE
  5
105
100
AcDbEntity
  8
Layer_1
 62
7
100
AcDbPolyline
 90
14
 70
0
 10
1.686176
 20
4.809370
 30
0.0
 10
1.500417
 20
4.659219
 30
0.0
 10
1.517707
 20
4.593801
 30
0.0
 10
1.561988
 20
4.542637
 30
0.0
 10
1.616151
 20
4.517855
 30
0.0
 10
1.673618
 20
4.515837
 30
0.0
 10
1.727649
 20
4.535515
 30
0.0
 10
1.771505
 20
4.575820
 30
0.0
 10
1.796286
 20
4.629984
 30
0.0
 10
1.798304
 20
4.687451
 30
0.0
 10
1.778627
 20
4.741482
 30
0.0
 10
1.738321
 20
4.785337
 30
0.0
 10
1.686176
 20
4.809370
 30
0.0
 10
1.686176
 20
4.809370
 30
0.0
  0
LWPOLYLINE
  5
106
100
AcDbEntity
  8
Layer_1
 62
7
100
AcDbPolyline
 90
14
 70
0
 10
5.068984
 20
2.596792
 30
0.0
 10
5.011573
 20
2.585387
 30
0.0
 10
4.962897
 20
2.552877
 30
0.0
 10
4.930370
 20
2.504214
 30
0.0
 10
4.918944
 20
2.446806
 30
0.0
 10
4.930370
 20
2.389399
 30
0.0
 10
4.962897
 20
2.340735
 30
0.0
 10
5.011573
 20
2.308226
 30
0.0
 10
5.068984
 20
2.296821
 30
0.0
 10
5.125098
 20
2.307845
 30
0.0
 10
5.186890
 20
2.539135
 30
0.0
 10
5.134578
 20
2.581543
 30
0.0
 10
5.068984
 20
2.596792
 30
0.0
 10
5.068984
 20
2.596792
 30
0.0
  0
LWPOLYLINE
  5
107
100
AcDbEntity
  8
Layer_1
 62
7
100
AcDbPolyline
 90
16
 70
0
 10
0.995614
 20
2.380991
 30
0.0
 10
0.951505
 20
2.373026
 30
0.0
 10
0.911719
 20
2.352383
 30
0.0
 10
0.872803
 20
2.310325
 30
0.0
 10
0.958682
 20
2.086973
 30
0.0
 10
1.025985
 20
2.083415
 30
0.0
 10
1.088053
 20
2.109683
 30
0.0
 10
1.128358
 20
2.153538
 30
0.0
 10
1.148035
 20
2.207569
 30
0.0
 10
1.146017
 20
2.265036
 30
0.0
 10
1.121236
 20
2.319200
 30
0.0
 10
1.096291
 20
2.345958
 30
0.0
 10
1.066076
 20
2.365650
 30
0.0
 10
1.032035
 20
2.377564
 30
0.0
 10
0.995614
 20
2.380991
 30
0.0
 10
0.995614
 20
2.380991
 30
0.0
  0
LWPOLYLINE
  5
108
100
AcDbEntity
  8
Layer_1
 62
7
100
AcDbPolyline
 90
16
 70
0
 10
3.110682
 20
1.010725
 30
0.0
 10
3.066474
 20
1.003394
 30
0.0
 10
3.014590
 20
0.974139
 30
0.0
 10
2.979181
 20
0.928831
 30
0.0
 10
2.963344
 20
0.873552
 30
0.0
 10
2.970177
 20
0.814382
 30
0.0
 10
2.997573
 20
0.764938
 30
0.0
 10
2.999337
 20
0.764938
 30
0.0
 10
3.237407
 20
0.777506
 30
0.0
 10
3.261321
 20
0.840226
 30
0.0
 10
3.255486
 20
0.907097
 30
0.0
 10
3.233534
 20
0.949811
 30
0.0
 10
3.200124
 20
0.982722
 30
0.0
 10
3.158195
 20
1.003727
 30
0.0
 10
3.110682
 20
1.010725
 30
0.0
 10
3.110682
 20
1.010725
 30
0.0
  0
LWPOLYLINE
  5
109
100
AcDbEntity
  8
Layer_1
 62
7
100
AcDbPolyline
 90
9
 70
1
 10
0.750006
 20
5.999947
 30
0.0
 10
0.750006
 20
5.978658
 30
0.0
 10
0.021249
 20
5.978658
 30
0.0
 10
0.021249
 20
5.249943
 30
0.0
 10
0.000000
 20
5.249943
 30
0.0
 10
0.000000
 20
5.989282
 30
0.0
 10
0.000000
 20
5.999947
 30
0.0
 10
0.750006
 20
5.999947
 30
0.0
 10
0.750006
 20
5.999947
 30
0.0
  0
ENDSEC
  0
SECTION
  2
OBJECTS
  0
DICTIONARY
  5
C
330
0
100
AcDbDictionary
  3
ACAD_GROUP
350
D
  3
ACAD_MLINESTYLE
350
17
  0
DICTIONARY
  5
D
330
C
100
AcDbDictionary
  0
DICTIONARY
  5
1A
330
C
100
AcDbDictionary
  0
DICTIONARY
  5
17
330
C
100
AcDbDictionary
  3
STANDARD
350
18
  0
DICTIONARY
  5
19
330
C
100
AcDbDictionary
  0
ENDSEC
  0
EOF
