  0
SECTION
  2
HEADER
  9
$ACADVER
  1
AC1014
  9
$HANDSEED
  5
FFFF
  9
$MEASUREMENT
 70
     1
  0
ENDSEC
  0
SECTION
  2
TABLES
  0
TABLE
  2
VPORT
  5
8
330
0
100
AcDbSymbolTable
 70
     4
  0
VPORT
  5
2E
330
8
100
AcDbSymbolTableRecord
100
AcDbViewportTableRecord
  2
*ACTIVE
 70
     0
 10
0.0
 20
0.0
 11
1.0
 21
1.0
 12
210.0
 22
148.5
 13
0.0
 23
0.0
 14
10.0
 24
10.0
 15
10.0
 25
10.0
 16
0.0
 26
0.0
 36
1.0
 17
0.0
 27
0.0
 37
0.0
 40
341.0
 41
1.24
 42
50.0
 43
0.0
 44
0.0
 50
0.0
 51
0.0
 71
     0
 72
   100
 73
     1
 74
     3
 75
     0
 76
     0
 77
     0
 78
     0
  0
ENDTAB
  0
TABLE
  2
LTYPE
  5
5
330
0
100
AcDbSymbolTable
 70
     1
  0
LTYPE
  5
14
330
5
100
AcDbSymbolTableRecord
100
AcDbLinetypeTableRecord
  2
BYBLOCK
 70
     0
  3

 72
    65
 73
     0
 40
0.0
  0
LTYPE
  5
15
330
5
100
AcDbSymbolTableRecord
100
AcDbLinetypeTableRecord
  2
BYLAYER
 70
     0
  3

 72
    65
 73
     0
 40
0.0
  0
LTYPE
  5
16
330
5
100
AcDbSymbolTableRecord
100
AcDbLinetypeTableRecord
  2
CONTINUOUS
 70
     0
  3
Solid line
 72
    65
 73
     0
 40
0.0
  0
ENDTAB
  0
TABLE
  2
LAYER
  5
2
100
AcDbSymbolTable
 70
2
  0
LAYER
  5
50
100
AcDbSymbolTableRecord
100
AcDbLayerTableRecord
  2
0
 70
0
  6
CONTINUOUS
  0
LAYER
  5
51
100
AcDbSymbolTableRecord
100
AcDbLayerTableRecord
  2
Layer_1
 70
0
  6
CONTINUOUS
  0
ENDTAB
  0
TABLE
  2
STYLE
  5
3
330
0
100
AcDbSymbolTable
 70
     1
  0
STYLE
  5
11
330
3
100
AcDbSymbolTableRecord
100
AcDbTextStyleTableRecord
  2
STANDARD
 70
     0
 40
0.0
 41
1.0
 50
0.0
 71
     0
 42
2.5
  3
txt
  4

  0
ENDTAB
  0
TABLE
  2
VIEW
  5
6
330
0
100
AcDbSymbolTable
 70
     0
  0
ENDTAB
  0
TABLE
  2
UCS
  5
7
330
0
100
AcDbSymbolTable
 70
     0
  0
ENDTAB
  0
TABLE
  2
APPID
  5
9
330
0
100
AcDbSymbolTable
 70
     2
  0
APPID
  5
12
330
9
100
AcDbSymbolTableRecord
100
AcDbRegAppTableRecord
  2
ACAD
 70
     0
  0
ENDTAB
  0
TABLE
  2
DIMSTYLE
  5
A
330
0
100
AcDbSymbolTable
 70
     1
  0
DIMSTYLE
105
27
330
A
100
AcDbSymbolTableRecord
100
AcDbDimStyleTableRecord
  2
ISO-25
 70
     0
  3

  4

  5

  6

  7

 40
1.0
 41
2.5
 42
0.625
 43
3.75
 44
1.25
 45
0.0
 46
0.0
 47
0.0
 48
0.0
140
2.5
141
2.5
142
0.0
143
0.03937007874016
144
1.0
145
0.0
146
1.0
147
0.625
 71
     0
 72
     0
 73
     0
 74
     0
 75
     0
 76
     0
 77
     1
 78
     8
170
     0
171
     3
172
     1
173
     0
174
     0
175
     0
176
     0
177
     0
178
     0
270
     2
271
     2
272
     2
273
     2
274
     3
340
11
275
     0
280
     0
281
     0
282
     0
283
     0
284
     8
285
     0
286
     0
287
     3
288
     0
  0
ENDTAB
  0
TABLE
  2
BLOCK_RECORD
  5
1
330
0
100
AcDbSymbolTable
 70
     1
  0
BLOCK_RECORD
  5
1F
330
1
100
AcDbSymbolTableRecord
100
AcDbBlockTableRecord
  2
*MODEL_SPACE
  0
BLOCK_RECORD
  5
1B
330
1
100
AcDbSymbolTableRecord
100
AcDbBlockTableRecord
  2
*PAPER_SPACE
  0
ENDTAB
  0
ENDSEC
  0
SECTION
  2
BLOCKS
  0
BLOCK
  5
20
330
1F
100
AcDbEntity
  8
0
100
AcDbBlockBegin
  2
*MODEL_SPACE
 70
     0
 10
0.0
 20
0.0
 30
0.0
  3
*MODEL_SPACE
  1

  0
ENDBLK
  5
21
330
1F
100
AcDbEntity
  8
0
100
AcDbBlockEnd
  0
BLOCK
  5
1C
330
1B
100
AcDbEntity
 67
     1
  8
0
100
AcDbBlockBegin
  2
*PAPER_SPACE
  1

  0
ENDBLK
  5
1D
330
1B
100
AcDbEntity
 67
     1
  8
0
100
AcDbBlockEnd
  0
ENDSEC
  0
SECTION
  2
ENTITIES
  0
LWPOLYLINE
  5
100
100
AcDbEntity
  8
Layer_1
 62
7
100
AcDbPolyline
 90
8
 70
1
 10
6.749942
 20
5.999947
 30
0.0
 10
6.749942
 20
5.249943
 30
0.0
 10
6.728693
 20
5.249943
 30
0.0
 10
6.728693
 20
5.978658
 30
0.0
 10
5.999936
 20
5.978658
 30
0.0
 10
5.999936
 20
5.999947
 30
0.0
 10
6.749942
 20
5.999947
 30
0.0
 10
6.749942
 20
5.999947
 30
0.0
  0
LWPOLYLINE
  5
101
100
AcDbEntity
  8
Layer_1
 62
7
100
AcDbPolyline
 90
9
 70
1
 10
0.750004
 20
5.999947
 30
0.0
 10
0.750004
 20
5.978658
 30
0.0
 10
0.021249
 20
5.978658
 30
0.0
 10
0.021249
 20
5.249943
 30
0.0
 10
0.000000
 20
5.249943
 30
0.0
 10
0.000000
 20
5.989282
 30
0.0
 10
0.000000
 20
5.999947
 30
0.0
 10
0.750004
 20
5.999947
 30
0.0
 10
0.750004
 20
5.999947
 30
0.0
  0
LWPOLYLINE
  5
102
100
AcDbEntity
  8
Layer_1
 62
7
100
AcDbPolyline
 90
8
 70
1
 10
6.749935
 20
0.599979
 30
0.0
 10
6.749935
 20
-0.000000
 30
0.0
 10
5.999930
 20
-0.000000
 30
0.0
 10
5.999930
 20
0.021249
 30
0.0
 10
6.728686
 20
0.021249
 30
0.0
 10
6.728686
 20
0.599979
 30
0.0
 10
6.749935
 20
0.599979
 30
0.0
 10
6.749935
 20
0.599979
 30
0.0
  0
LWPOLYLINE
  5
103
100
AcDbEntity
  8
Layer_1
 62
7
100
AcDbPolyline
 90
8
 70
1
 10
0.021249
 20
0.599979
 30
0.0
 10
0.021249
 20
0.021249
 30
0.0
 10
0.750004
 20
0.021249
 30
0.0
 10
0.750004
 20
-0.000000
 30
0.0
 10
0.000000
 20
-0.000000
 30
0.0
 10
0.000000
 20
0.599979
 30
0.0
 10
0.021249
 20
0.599979
 30
0.0
 10
0.021249
 20
0.599979
 30
0.0
  0
LWPOLYLINE
  5
104
100
AcDbEntity
  8
Layer_1
 62
7
100
AcDbPolyline
 90
9
 70
1
 10
0.750641
 20
5.999953
 30
0.0
 10
0.750641
 20
5.978663
 30
0.0
 10
0.021885
 20
5.978663
 30
0.0
 10
0.021885
 20
5.249948
 30
0.0
 10
0.000636
 20
5.249948
 30
0.0
 10
0.000636
 20
5.989287
 30
0.0
 10
0.000636
 20
5.999953
 30
0.0
 10
0.750641
 20
5.999953
 30
0.0
 10
0.750641
 20
5.999953
 30
0.0
  0
LWPOLYLINE
  5
105
100
AcDbEntity
  8
Layer_1
 62
7
100
AcDbPolyline
 90
55
 70
0
 10
3.748374
 20
5.713486
 30
0.0
 10
3.480090
 20
5.690285
 30
0.0
 10
3.219242
 20
5.635953
 30
0.0
 10
2.968281
 20
5.551829
 30
0.0
 10
2.729657
 20
5.439250
 30
0.0
 10
2.505822
 20
5.299551
 30
0.0
 10
2.299226
 20
5.134070
 30
0.0
 10
2.112320
 20
4.944144
 30
0.0
 10
1.947554
 20
4.731110
 30
0.0
 10
2.080212
 20
4.494398
 30
0.0
 10
2.238540
 20
4.277629
 30
0.0
 10
2.420253
 20
4.082516
 30
0.0
 10
2.623067
 20
3.910772
 30
0.0
 10
2.844698
 20
3.764111
 30
0.0
 10
3.082863
 20
3.644246
 30
0.0
 10
3.335277
 20
3.552891
 30
0.0
 10
3.599656
 20
3.491758
 30
0.0
 10
3.598554
 20
3.488726
 30
0.0
 10
3.627799
 20
3.471974
 30
0.0
 10
3.639399
 20
3.440329
 30
0.0
 10
3.633776
 20
3.417509
 30
0.0
 10
3.634107
 20
3.417178
 30
0.0
 10
3.601767
 20
3.331571
 30
0.0
 10
3.590672
 20
3.240734
 30
0.0
 10
3.598454
 20
3.163609
 30
0.0
 10
3.620758
 20
3.091774
 30
0.0
 10
3.656045
 20
3.026769
 30
0.0
 10
3.702776
 20
2.970131
 30
0.0
 10
3.759414
 20
2.923399
 30
0.0
 10
3.824420
 20
2.888112
 30
0.0
 10
3.896255
 20
2.865808
 30
0.0
 10
3.973380
 20
2.858026
 30
0.0
 10
3.973325
 20
2.858081
 30
0.0
 10
4.079095
 20
2.873220
 30
0.0
 10
4.176558
 20
2.917006
 30
0.0
 10
4.268556
 20
3.044722
 30
0.0
 10
4.269603
 20
3.046210
 30
0.0
 10
4.314406
 20
3.142851
 30
0.0
 10
4.328234
 20
3.246157
 30
0.0
 10
4.311203
 20
3.348984
 30
0.0
 10
4.263430
 20
3.444188
 30
0.0
 10
4.261115
 20
3.446999
 30
0.0
 10
4.175344
 20
3.594592
 30
0.0
 10
4.074032
 20
3.794981
 30
0.0
 10
4.074032
 20
3.795036
 30
0.0
 10
3.968392
 20
4.021419
 30
0.0
 10
3.889102
 20
4.255923
 30
0.0
 10
3.836281
 20
4.496311
 30
0.0
 10
3.810046
 20
4.740348
 30
0.0
 10
3.810516
 20
4.985797
 30
0.0
 10
3.837807
 20
5.230421
 30
0.0
 10
3.892037
 20
5.471984
 30
0.0
 10
3.973325
 20
5.708250
 30
0.0
 10
3.748374
 20
5.713486
 30
0.0
 10
3.748374
 20
5.713486
 30
0.0
  0
LWPOLYLINE
  5
106
100
AcDbEntity
  8
Layer_1
 62
7
100
AcDbPolyline
 90
61
 70
0
 10
4.503870
 20
5.375646
 30
0.0
 10
4.398100
 20
5.360508
 30
0.0
 10
4.300637
 20
5.316721
 30
0.0
 10
4.208639
 20
5.189005
 30
0.0
 10
4.207592
 20
5.187517
 30
0.0
 10
4.162789
 20
5.090876
 30
0.0
 10
4.148961
 20
4.987570
 30
0.0
 10
4.165991
 20
4.884743
 30
0.0
 10
4.213765
 20
4.789539
 30
0.0
 10
4.216080
 20
4.786728
 30
0.0
 10
4.301851
 20
4.639135
 30
0.0
 10
4.403163
 20
4.438746
 30
0.0
 10
4.403163
 20
4.438691
 30
0.0
 10
4.508803
 20
4.212308
 30
0.0
 10
4.588093
 20
3.977804
 30
0.0
 10
4.640914
 20
3.737416
 30
0.0
 10
4.667149
 20
3.493379
 30
0.0
 10
4.666679
 20
3.247930
 30
0.0
 10
4.639388
 20
3.003306
 30
0.0
 10
4.585158
 20
2.761743
 30
0.0
 10
4.503870
 20
2.525477
 30
0.0
 10
4.653669
 20
2.519443
 30
0.0
 10
4.802359
 20
2.523313
 30
0.0
 10
4.949516
 20
2.536882
 30
0.0
 10
5.094714
 20
2.559945
 30
0.0
 10
5.237528
 20
2.592297
 30
0.0
 10
5.377534
 20
2.633733
 30
0.0
 10
5.514307
 20
2.684047
 30
0.0
 10
5.647421
 20
2.743036
 30
0.0
 10
5.776452
 20
2.810494
 30
0.0
 10
5.900975
 20
2.886216
 30
0.0
 10
6.020564
 20
2.969997
 30
0.0
 10
6.134796
 20
3.061633
 30
0.0
 10
6.243244
 20
3.160917
 30
0.0
 10
6.345484
 20
3.267646
 30
0.0
 10
6.441091
 20
3.381614
 30
0.0
 10
6.529641
 20
3.502617
 30
0.0
 10
6.396982
 20
3.739329
 30
0.0
 10
6.238655
 20
3.956098
 30
0.0
 10
6.056942
 20
4.151211
 30
0.0
 10
5.854128
 20
4.322955
 30
0.0
 10
5.632497
 20
4.469616
 30
0.0
 10
5.394332
 20
4.589481
 30
0.0
 10
5.141918
 20
4.680836
 30
0.0
 10
4.877539
 20
4.741969
 30
0.0
 10
4.878641
 20
4.745001
 30
0.0
 10
4.849396
 20
4.761754
 30
0.0
 10
4.837796
 20
4.793398
 30
0.0
 10
4.843418
 20
4.816218
 30
0.0
 10
4.843143
 20
4.816494
 30
0.0
 10
4.875483
 20
4.902100
 30
0.0
 10
4.886578
 20
4.992938
 30
0.0
 10
4.878796
 20
5.070063
 30
0.0
 10
4.856492
 20
5.141898
 30
0.0
 10
4.821205
 20
5.206903
 30
0.0
 10
4.774474
 20
5.263541
 30
0.0
 10
4.717836
 20
5.310273
 30
0.0
 10
4.652830
 20
5.345560
 30
0.0
 10
4.580995
 20
5.367864
 30
0.0
 10
4.503870
 20
5.375646
 30
0.0
 10
4.503870
 20
5.375646
 30
0.0
  0
LWPOLYLINE
  5
107
100
AcDbEntity
  8
Layer_1
 62
7
100
AcDbPolyline
 90
34
 70
0
 10
4.503870
 20
5.232937
 30
0.0
 10
4.552238
 20
5.228061
 30
0.0
 10
4.597288
 20
5.214076
 30
0.0
 10
4.638055
 20
5.191948
 30
0.0
 10
4.673574
 20
5.162642
 30
0.0
 10
4.702880
 20
5.127123
 30
0.0
 10
4.725008
 20
5.086356
 30
0.0
 10
4.738993
 20
5.041306
 30
0.0
 10
4.743869
 20
4.992938
 30
0.0
 10
4.738993
 20
4.944569
 30
0.0
 10
4.725008
 20
4.899519
 30
0.0
 10
4.702880
 20
4.858752
 30
0.0
 10
4.673574
 20
4.823233
 30
0.0
 10
4.638055
 20
4.793927
 30
0.0
 10
4.597288
 20
4.771799
 30
0.0
 10
4.552238
 20
4.757814
 30
0.0
 10
4.503870
 20
4.752938
 30
0.0
 10
4.455502
 20
4.757814
 30
0.0
 10
4.410451
 20
4.771799
 30
0.0
 10
4.369684
 20
4.793927
 30
0.0
 10
4.334165
 20
4.823233
 30
0.0
 10
4.304859
 20
4.858752
 30
0.0
 10
4.282731
 20
4.899519
 30
0.0
 10
4.268747
 20
4.944569
 30
0.0
 10
4.263871
 20
4.992938
 30
0.0
 10
4.268747
 20
5.041306
 30
0.0
 10
4.282731
 20
5.086356
 30
0.0
 10
4.304859
 20
5.127123
 30
0.0
 10
4.334165
 20
5.162642
 30
0.0
 10
4.369684
 20
5.191948
 30
0.0
 10
4.410451
 20
5.214076
 30
0.0
 10
4.455502
 20
5.228061
 30
0.0
 10
4.503870
 20
5.232937
 30
0.0
 10
4.503870
 20
5.232937
 30
0.0
  0
LWPOLYLINE
  5
108
100
AcDbEntity
  8
Layer_1
 62
7
100
AcDbPolyline
 90
61
 70
0
 10
0.566043
 20
5.161830
 30
0.0
 10
0.460273
 20
5.146691
 30
0.0
 10
0.362810
 20
5.102905
 30
0.0
 10
0.270812
 20
4.975188
 30
0.0
 10
0.269765
 20
4.973700
 30
0.0
 10
0.224962
 20
4.877059
 30
0.0
 10
0.211134
 20
4.773753
 30
0.0
 10
0.228165
 20
4.670927
 30
0.0
 10
0.275938
 20
4.575723
 30
0.0
 10
0.278253
 20
4.572911
 30
0.0
 10
0.364024
 20
4.425319
 30
0.0
 10
0.465336
 20
4.224929
 30
0.0
 10
0.465336
 20
4.224874
 30
0.0
 10
0.570976
 20
3.998492
 30
0.0
 10
0.650266
 20
3.763988
 30
0.0
 10
0.703087
 20
3.523599
 30
0.0
 10
0.729322
 20
3.279562
 30
0.0
 10
0.728852
 20
3.034114
 30
0.0
 10
0.701561
 20
2.789489
 30
0.0
 10
0.647331
 20
2.547926
 30
0.0
 10
0.566043
 20
2.311661
 30
0.0
 10
0.715842
 20
2.305627
 30
0.0
 10
0.864532
 20
2.309497
 30
0.0
 10
1.011689
 20
2.323066
 30
0.0
 10
1.156887
 20
2.346129
 30
0.0
 10
1.299702
 20
2.378480
 30
0.0
 10
1.439708
 20
2.419916
 30
0.0
 10
1.576480
 20
2.470231
 30
0.0
 10
1.709594
 20
2.529220
 30
0.0
 10
1.838625
 20
2.596678
 30
0.0
 10
1.963148
 20
2.672400
 30
0.0
 10
2.082738
 20
2.756181
 30
0.0
 10
2.196969
 20
2.847816
 30
0.0
 10
2.305417
 20
2.947101
 30
0.0
 10
2.407657
 20
3.053830
 30
0.0
 10
2.503265
 20
3.167798
 30
0.0
 10
2.591814
 20
3.288800
 30
0.0
 10
2.459156
 20
3.525512
 30
0.0
 10
2.300828
 20
3.742282
 30
0.0
 10
2.119115
 20
3.937395
 30
0.0
 10
1.916302
 20
4.109138
 30
0.0
 10
1.694670
 20
4.255799
 30
0.0
 10
1.456506
 20
4.375664
 30
0.0
 10
1.204091
 20
4.467020
 30
0.0
 10
0.939712
 20
4.528153
 30
0.0
 10
0.940814
 20
4.531184
 30
0.0
 10
0.911569
 20
4.547937
 30
0.0
 10
0.899969
 20
4.579581
 30
0.0
 10
0.905592
 20
4.602402
 30
0.0
 10
0.905316
 20
4.602677
 30
0.0
 10
0.937657
 20
4.688284
 30
0.0
 10
0.948752
 20
4.779121
 30
0.0
 10
0.940970
 20
4.856247
 30
0.0
 10
0.918666
 20
4.928081
 30
0.0
 10
0.883379
 20
4.993087
 30
0.0
 10
0.836647
 20
5.049725
 30
0.0
 10
0.780009
 20
5.096457
 30
0.0
 10
0.715003
 20
5.131744
 30
0.0
 10
0.643169
 20
5.154048
 30
0.0
 10
0.566043
 20
5.161830
 30
0.0
 10
0.566043
 20
5.161830
 30
0.0
  0
LWPOLYLINE
  5
109
100
AcDbEntity
  8
Layer_1
 62
7
100
AcDbPolyline
 90
34
 70
0
 10
0.566043
 20
5.019120
 30
0.0
 10
0.614411
 20
5.014244
 30
0.0
 10
0.659461
 20
5.000260
 30
0.0
 10
0.700229
 20
4.978132
 30
0.0
 10
0.735748
 20
4.948826
 30
0.0
 10
0.765054
 20
4.913307
 30
0.0
 10
0.787182
 20
4.872539
 30
0.0
 10
0.801166
 20
4.827489
 30
0.0
 10
0.806042
 20
4.779121
 30
0.0
 10
0.801166
 20
4.730753
 30
0.0
 10
0.787182
 20
4.685703
 30
0.0
 10
0.765054
 20
4.644936
 30
0.0
 10
0.735748
 20
4.609416
 30
0.0
 10
0.700229
 20
4.580110
 30
0.0
 10
0.659461
 20
4.557983
 30
0.0
 10
0.614411
 20
4.543998
 30
0.0
 10
0.566043
 20
4.539122
 30
0.0
 10
0.517675
 20
4.543998
 30
0.0
 10
0.472625
 20
4.557983
 30
0.0
 10
0.431857
 20
4.580110
 30
0.0
 10
0.396338
 20
4.609416
 30
0.0
 10
0.367032
 20
4.644936
 30
0.0
 10
0.344904
 20
4.685703
 30
0.0
 10
0.330920
 20
4.730753
 30
0.0
 10
0.326044
 20
4.779121
 30
0.0
 10
0.330920
 20
4.827489
 30
0.0
 10
0.344904
 20
4.872539
 30
0.0
 10
0.367032
 20
4.913307
 30
0.0
 10
0.396338
 20
4.948826
 30
0.0
 10
0.431857
 20
4.978132
 30
0.0
 10
0.472625
 20
5.000260
 30
0.0
 10
0.517675
 20
5.014244
 30
0.0
 10
0.566043
 20
5.019120
 30
0.0
 10
0.566043
 20
5.019120
 30
0.0
  0
LWPOLYLINE
  5
10a
100
AcDbEntity
  8
Layer_1
 62
7
100
AcDbPolyline
 90
34
 70
0
 10
3.973325
 20
3.480789
 30
0.0
 10
4.021693
 20
3.475913
 30
0.0
 10
4.066743
 20
3.461928
 30
0.0
 10
4.107511
 20
3.439800
 30
0.0
 10
4.143030
 20
3.410494
 30
0.0
 10
4.172336
 20
3.374975
 30
0.0
 10
4.194464
 20
3.334208
 30
0.0
 10
4.208448
 20
3.289158
 30
0.0
 10
4.213324
 20
3.240790
 30
0.0
 10
4.208448
 20
3.192421
 30
0.0
 10
4.194464
 20
3.147371
 30
0.0
 10
4.172336
 20
3.106604
 30
0.0
 10
4.143030
 20
3.071085
 30
0.0
 10
4.107511
 20
3.041779
 30
0.0
 10
4.066743
 20
3.019651
 30
0.0
 10
4.021693
 20
3.005666
 30
0.0
 10
3.973325
 20
3.000790
 30
0.0
 10
3.924966
 20
3.005676
 30
0.0
 10
3.879924
 20
3.019667
 30
0.0
 10
3.839166
 20
3.041798
 30
0.0
 10
3.803656
 20
3.071104
 30
0.0
 10
3.774358
 20
3.106621
 30
0.0
 10
3.752236
 20
3.147385
 30
0.0
 10
3.738256
 20
3.192429
 30
0.0
 10
3.733381
 20
3.240790
 30
0.0
 10
3.738256
 20
3.289150
 30
0.0
 10
3.752236
 20
3.334194
 30
0.0
 10
3.774358
 20
3.374958
 30
0.0
 10
3.803656
 20
3.410475
 30
0.0
 10
3.839166
 20
3.439781
 30
0.0
 10
3.879924
 20
3.461912
 30
0.0
 10
3.924966
 20
3.475903
 30
0.0
 10
3.973325
 20
3.480789
 30
0.0
 10
3.973325
 20
3.480789
 30
0.0
  0
LWPOLYLINE
  5
10b
100
AcDbEntity
  8
Layer_1
 62
7
100
AcDbPolyline
 90
61
 70
0
 10
2.750289
 20
2.865963
 30
0.0
 10
2.513577
 20
2.733305
 30
0.0
 10
2.296807
 20
2.574977
 30
0.0
 10
2.101694
 20
2.393264
 30
0.0
 10
1.929951
 20
2.190450
 30
0.0
 10
1.783290
 20
1.968819
 30
0.0
 10
1.663425
 20
1.730654
 30
0.0
 10
1.572069
 20
1.478240
 30
0.0
 10
1.510936
 20
1.213861
 30
0.0
 10
1.507905
 20
1.214963
 30
0.0
 10
1.491152
 20
1.185718
 30
0.0
 10
1.459508
 20
1.174118
 30
0.0
 10
1.436687
 20
1.179741
 30
0.0
 10
1.436412
 20
1.179465
 30
0.0
 10
1.350805
 20
1.211806
 30
0.0
 10
1.259968
 20
1.222901
 30
0.0
 10
1.182842
 20
1.215119
 30
0.0
 10
1.111007
 20
1.192815
 30
0.0
 10
1.046002
 20
1.157528
 30
0.0
 10
0.989364
 20
1.110796
 30
0.0
 10
0.942632
 20
1.054158
 30
0.0
 10
0.907345
 20
0.989152
 30
0.0
 10
0.885041
 20
0.917318
 30
0.0
 10
0.877259
 20
0.840192
 30
0.0
 10
0.892398
 20
0.734422
 30
0.0
 10
0.936184
 20
0.636959
 30
0.0
 10
1.063901
 20
0.544961
 30
0.0
 10
1.065389
 20
0.543914
 30
0.0
 10
1.162030
 20
0.499111
 30
0.0
 10
1.265336
 20
0.485283
 30
0.0
 10
1.368162
 20
0.502314
 30
0.0
 10
1.463366
 20
0.550087
 30
0.0
 10
1.466178
 20
0.552402
 30
0.0
 10
1.613770
 20
0.638173
 30
0.0
 10
1.814160
 20
0.739485
 30
0.0
 10
1.814215
 20
0.739485
 30
0.0
 10
2.040597
 20
0.845125
 30
0.0
 10
2.275101
 20
0.924415
 30
0.0
 10
2.515490
 20
0.977236
 30
0.0
 10
2.759527
 20
1.003471
 30
0.0
 10
3.004975
 20
1.003001
 30
0.0
 10
3.249600
 20
0.975710
 30
0.0
 10
3.491163
 20
0.921480
 30
0.0
 10
3.727428
 20
0.840192
 30
0.0
 10
3.733462
 20
0.989991
 30
0.0
 10
3.729592
 20
1.138681
 30
0.0
 10
3.716023
 20
1.285838
 30
0.0
 10
3.692960
 20
1.431036
 30
0.0
 10
3.660609
 20
1.573851
 30
0.0
 10
3.619173
 20
1.713857
 30
0.0
 10
3.568858
 20
1.850629
 30
0.0
 10
3.509869
 20
1.983743
 30
0.0
 10
3.442411
 20
2.112774
 30
0.0
 10
3.366689
 20
2.237297
 30
0.0
 10
3.282908
 20
2.356886
 30
0.0
 10
3.191273
 20
2.471118
 30
0.0
 10
3.091988
 20
2.579566
 30
0.0
 10
2.985259
 20
2.681806
 30
0.0
 10
2.871291
 20
2.777414
 30
0.0
 10
2.750289
 20
2.865963
 30
0.0
 10
2.750289
 20
2.865963
 30
0.0
  0
LWPOLYLINE
  5
10c
100
AcDbEntity
  8
Layer_1
 62
7
100
AcDbPolyline
 90
61
 70
0
 10
6.478102
 20
2.668407
 30
0.0
 10
6.375265
 20
2.651368
 30
0.0
 10
6.280051
 20
2.603585
 30
0.0
 10
6.277240
 20
2.601270
 30
0.0
 10
6.129647
 20
2.515499
 30
0.0
 10
5.929257
 20
2.414187
 30
0.0
 10
5.929202
 20
2.414187
 30
0.0
 10
5.702820
 20
2.308547
 30
0.0
 10
5.468316
 20
2.229257
 30
0.0
 10
5.227927
 20
2.176436
 30
0.0
 10
4.983890
 20
2.150201
 30
0.0
 10
4.738442
 20
2.150671
 30
0.0
 10
4.493818
 20
2.177962
 30
0.0
 10
4.252255
 20
2.232192
 30
0.0
 10
4.015989
 20
2.313480
 30
0.0
 10
4.009955
 20
2.163681
 30
0.0
 10
4.013825
 20
2.014991
 30
0.0
 10
4.027394
 20
1.867834
 30
0.0
 10
4.050457
 20
1.722636
 30
0.0
 10
4.082809
 20
1.579821
 30
0.0
 10
4.124244
 20
1.439815
 30
0.0
 10
4.174559
 20
1.303043
 30
0.0
 10
4.233548
 20
1.169929
 30
0.0
 10
4.301006
 20
1.040898
 30
0.0
 10
4.376728
 20
0.916375
 30
0.0
 10
4.460509
 20
0.796786
 30
0.0
 10
4.552145
 20
0.682554
 30
0.0
 10
4.651429
 20
0.574106
 30
0.0
 10
4.758158
 20
0.471866
 30
0.0
 10
4.872126
 20
0.376258
 30
0.0
 10
4.993129
 20
0.287709
 30
0.0
 10
5.229841
 20
0.420367
 30
0.0
 10
5.446610
 20
0.578695
 30
0.0
 10
5.641723
 20
0.760408
 30
0.0
 10
5.813467
 20
0.963222
 30
0.0
 10
5.960128
 20
1.184853
 30
0.0
 10
6.079992
 20
1.423018
 30
0.0
 10
6.171348
 20
1.675432
 30
0.0
 10
6.232481
 20
1.939811
 30
0.0
 10
6.235513
 20
1.938709
 30
0.0
 10
6.252265
 20
1.967954
 30
0.0
 10
6.283909
 20
1.979554
 30
0.0
 10
6.306730
 20
1.973931
 30
0.0
 10
6.307005
 20
1.974207
 30
0.0
 10
6.392612
 20
1.941867
 30
0.0
 10
6.483449
 20
1.930771
 30
0.0
 10
6.560575
 20
1.938554
 30
0.0
 10
6.632410
 20
1.960857
 30
0.0
 10
6.697415
 20
1.996145
 30
0.0
 10
6.754053
 20
2.042876
 30
0.0
 10
6.800785
 20
2.099514
 30
0.0
 10
6.836072
 20
2.164520
 30
0.0
 10
6.858376
 20
2.236355
 30
0.0
 10
6.866158
 20
2.313480
 30
0.0
 10
6.851019
 20
2.419249
 30
0.0
 10
6.807233
 20
2.516713
 30
0.0
 10
6.679516
 20
2.608711
 30
0.0
 10
6.678028
 20
2.609758
 30
0.0
 10
6.581398
 20
2.654570
 30
0.0
 10
6.478102
 20
2.668407
 30
0.0
 10
6.478102
 20
2.668407
 30
0.0
  0
LWPOLYLINE
  5
10d
100
AcDbEntity
  8
Layer_1
 62
7
100
AcDbPolyline
 90
34
 70
0
 10
6.483449
 20
2.553479
 30
0.0
 10
6.531817
 20
2.548603
 30
0.0
 10
6.576868
 20
2.534619
 30
0.0
 10
6.617635
 20
2.512491
 30
0.0
 10
6.653154
 20
2.483185
 30
0.0
 10
6.682460
 20
2.447666
 30
0.0
 10
6.704588
 20
2.406898
 30
0.0
 10
6.718572
 20
2.361848
 30
0.0
 10
6.723448
 20
2.313480
 30
0.0
 10
6.718572
 20
2.265112
 30
0.0
 10
6.704588
 20
2.220062
 30
0.0
 10
6.682460
 20
2.179295
 30
0.0
 10
6.653154
 20
2.143775
 30
0.0
 10
6.617635
 20
2.114469
 30
0.0
 10
6.576868
 20
2.092342
 30
0.0
 10
6.531817
 20
2.078357
 30
0.0
 10
6.483449
 20
2.073481
 30
0.0
 10
6.435081
 20
2.078357
 30
0.0
 10
6.390031
 20
2.092342
 30
0.0
 10
6.349264
 20
2.114469
 30
0.0
 10
6.313745
 20
2.143775
 30
0.0
 10
6.284438
 20
2.179294
 30
0.0
 10
6.262311
 20
2.220062
 30
0.0
 10
6.248326
 20
2.265112
 30
0.0
 10
6.243450
 20
2.313480
 30
0.0
 10
6.248326
 20
2.361848
 30
0.0
 10
6.262311
 20
2.406898
 30
0.0
 10
6.284438
 20
2.447666
 30
0.0
 10
6.313744
 20
2.483185
 30
0.0
 10
6.349264
 20
2.512491
 30
0.0
 10
6.390031
 20
2.534619
 30
0.0
 10
6.435081
 20
2.548603
 30
0.0
 10
6.483449
 20
2.553479
 30
0.0
 10
6.483449
 20
2.553479
 30
0.0
  0
LWPOLYLINE
  5
10e
100
AcDbEntity
  8
Layer_1
 62
7
100
AcDbPolyline
 90
34
 70
0
 10
1.259968
 20
1.080191
 30
0.0
 10
1.308336
 20
1.075315
 30
0.0
 10
1.353386
 20
1.061330
 30
0.0
 10
1.394153
 20
1.039203
 30
0.0
 10
1.429673
 20
1.009897
 30
0.0
 10
1.458979
 20
0.974377
 30
0.0
 10
1.481106
 20
0.933610
 30
0.0
 10
1.495091
 20
0.888560
 30
0.0
 10
1.499967
 20
0.840192
 30
0.0
 10
1.495091
 20
0.791824
 30
0.0
 10
1.481107
 20
0.746774
 30
0.0
 10
1.458979
 20
0.706006
 30
0.0
 10
1.429673
 20
0.670487
 30
0.0
 10
1.394153
 20
0.641181
 30
0.0
 10
1.353386
 20
0.619053
 30
0.0
 10
1.308336
 20
0.605069
 30
0.0
 10
1.259968
 20
0.600193
 30
0.0
 10
1.211600
 20
0.605069
 30
0.0
 10
1.166550
 20
0.619053
 30
0.0
 10
1.125782
 20
0.641181
 30
0.0
 10
1.090263
 20
0.670487
 30
0.0
 10
1.060957
 20
0.706006
 30
0.0
 10
1.038829
 20
0.746774
 30
0.0
 10
1.024845
 20
0.791824
 30
0.0
 10
1.019969
 20
0.840192
 30
0.0
 10
1.024845
 20
0.888560
 30
0.0
 10
1.038829
 20
0.933610
 30
0.0
 10
1.060957
 20
0.974377
 30
0.0
 10
1.090263
 20
1.009897
 30
0.0
 10
1.125782
 20
1.039203
 30
0.0
 10
1.166550
 20
1.061330
 30
0.0
 10
1.211600
 20
1.075315
 30
0.0
 10
1.259968
 20
1.080191
 30
0.0
 10
1.259968
 20
1.080191
 30
0.0
  0
ENDSEC
  0
SECTION
  2
OBJECTS
  0
DICTIONARY
  5
C
330
0
100
AcDbDictionary
  3
ACAD_GROUP
350
D
  3
ACAD_MLINESTYLE
350
17
  0
DICTIONARY
  5
D
330
C
100
AcDbDictionary
  0
DICTIONARY
  5
1A
330
C
100
AcDbDictionary
  0
DICTIONARY
  5
17
330
C
100
AcDbDictionary
  3
STANDARD
350
18
  0
DICTIONARY
  5
19
330
C
100
AcDbDictionary
  0
ENDSEC
  0
EOF
