  0
SECTION
  2
HEADER
  9
$ACADVER
  1
AC1014
  9
$HANDSEED
  5
FFFF
  9
$MEASUREMENT
 70
     1
  0
ENDSEC
  0
SECTION
  2
TABLES
  0
TABLE
  2
VPORT
  5
8
330
0
100
AcDbSymbolTable
 70
     4
  0
VPORT
  5
2E
330
8
100
AcDbSymbolTableRecord
100
AcDbViewportTableRecord
  2
*ACTIVE
 70
     0
 10
0.0
 20
0.0
 11
1.0
 21
1.0
 12
210.0
 22
148.5
 13
0.0
 23
0.0
 14
10.0
 24
10.0
 15
10.0
 25
10.0
 16
0.0
 26
0.0
 36
1.0
 17
0.0
 27
0.0
 37
0.0
 40
341.0
 41
1.24
 42
50.0
 43
0.0
 44
0.0
 50
0.0
 51
0.0
 71
     0
 72
   100
 73
     1
 74
     3
 75
     0
 76
     0
 77
     0
 78
     0
  0
ENDTAB
  0
TABLE
  2
LTYPE
  5
5
330
0
100
AcDbSymbolTable
 70
     1
  0
LTYPE
  5
14
330
5
100
AcDbSymbolTableRecord
100
AcDbLinetypeTableRecord
  2
BYBLOCK
 70
     0
  3

 72
    65
 73
     0
 40
0.0
  0
LTYPE
  5
15
330
5
100
AcDbSymbolTableRecord
100
AcDbLinetypeTableRecord
  2
BYLAYER
 70
     0
  3

 72
    65
 73
     0
 40
0.0
  0
LTYPE
  5
16
330
5
100
AcDbSymbolTableRecord
100
AcDbLinetypeTableRecord
  2
CONTINUOUS
 70
     0
  3
Solid line
 72
    65
 73
     0
 40
0.0
  0
ENDTAB
  0
TABLE
  2
LAYER
  5
2
100
AcDbSymbolTable
 70
2
  0
LAYER
  5
50
100
AcDbSymbolTableRecord
100
AcDbLayerTableRecord
  2
0
 70
0
  6
CONTINUOUS
  0
LAYER
  5
51
100
AcDbSymbolTableRecord
100
AcDbLayerTableRecord
  2
Layer_1
 70
0
  6
CONTINUOUS
  0
ENDTAB
  0
TABLE
  2
STYLE
  5
3
330
0
100
AcDbSymbolTable
 70
     1
  0
STYLE
  5
11
330
3
100
AcDbSymbolTableRecord
100
AcDbTextStyleTableRecord
  2
STANDARD
 70
     0
 40
0.0
 41
1.0
 50
0.0
 71
     0
 42
2.5
  3
txt
  4

  0
ENDTAB
  0
TABLE
  2
VIEW
  5
6
330
0
100
AcDbSymbolTable
 70
     0
  0
ENDTAB
  0
TABLE
  2
UCS
  5
7
330
0
100
AcDbSymbolTable
 70
     0
  0
ENDTAB
  0
TABLE
  2
APPID
  5
9
330
0
100
AcDbSymbolTable
 70
     2
  0
APPID
  5
12
330
9
100
AcDbSymbolTableRecord
100
AcDbRegAppTableRecord
  2
ACAD
 70
     0
  0
ENDTAB
  0
TABLE
  2
DIMSTYLE
  5
A
330
0
100
AcDbSymbolTable
 70
     1
  0
DIMSTYLE
105
27
330
A
100
AcDbSymbolTableRecord
100
AcDbDimStyleTableRecord
  2
ISO-25
 70
     0
  3

  4

  5

  6

  7

 40
1.0
 41
2.5
 42
0.625
 43
3.75
 44
1.25
 45
0.0
 46
0.0
 47
0.0
 48
0.0
140
2.5
141
2.5
142
0.0
143
0.03937007874016
144
1.0
145
0.0
146
1.0
147
0.625
 71
     0
 72
     0
 73
     0
 74
     0
 75
     0
 76
     0
 77
     1
 78
     8
170
     0
171
     3
172
     1
173
     0
174
     0
175
     0
176
     0
177
     0
178
     0
270
     2
271
     2
272
     2
273
     2
274
     3
340
11
275
     0
280
     0
281
     0
282
     0
283
     0
284
     8
285
     0
286
     0
287
     3
288
     0
  0
ENDTAB
  0
TABLE
  2
BLOCK_RECORD
  5
1
330
0
100
AcDbSymbolTable
 70
     1
  0
BLOCK_RECORD
  5
1F
330
1
100
AcDbSymbolTableRecord
100
AcDbBlockTableRecord
  2
*MODEL_SPACE
  0
BLOCK_RECORD
  5
1B
330
1
100
AcDbSymbolTableRecord
100
AcDbBlockTableRecord
  2
*PAPER_SPACE
  0
ENDTAB
  0
ENDSEC
  0
SECTION
  2
BLOCKS
  0
BLOCK
  5
20
330
1F
100
AcDbEntity
  8
0
100
AcDbBlockBegin
  2
*MODEL_SPACE
 70
     0
 10
0.0
 20
0.0
 30
0.0
  3
*MODEL_SPACE
  1

  0
ENDBLK
  5
21
330
1F
100
AcDbEntity
  8
0
100
AcDbBlockEnd
  0
BLOCK
  5
1C
330
1B
100
AcDbEntity
 67
     1
  8
0
100
AcDbBlockBegin
  2
*PAPER_SPACE
  1

  0
ENDBLK
  5
1D
330
1B
100
AcDbEntity
 67
     1
  8
0
100
AcDbBlockEnd
  0
ENDSEC
  0
SECTION
  2
ENTITIES
  0
LWPOLYLINE
  5
100
100
AcDbEntity
  8
Layer_1
 62
7
100
AcDbPolyline
 90
8
 70
1
 10
6.749942
 20
5.999948
 30
0.0
 10
6.749942
 20
5.249944
 30
0.0
 10
6.728693
 20
5.249944
 30
0.0
 10
6.728693
 20
5.978659
 30
0.0
 10
5.999936
 20
5.978659
 30
0.0
 10
5.999936
 20
5.999948
 30
0.0
 10
6.749942
 20
5.999948
 30
0.0
 10
6.749942
 20
5.999948
 30
0.0
  0
LWPOLYLINE
  5
101
100
AcDbEntity
  8
Layer_1
 62
7
100
AcDbPolyline
 90
9
 70
1
 10
0.750004
 20
5.999948
 30
0.0
 10
0.750004
 20
5.978659
 30
0.0
 10
0.021249
 20
5.978659
 30
0.0
 10
0.021249
 20
5.249944
 30
0.0
 10
-0.000000
 20
5.249944
 30
0.0
 10
-0.000000
 20
5.989283
 30
0.0
 10
-0.000000
 20
5.999948
 30
0.0
 10
0.750004
 20
5.999948
 30
0.0
 10
0.750004
 20
5.999948
 30
0.0
  0
LWPOLYLINE
  5
102
100
AcDbEntity
  8
Layer_1
 62
7
100
AcDbPolyline
 90
8
 70
1
 10
6.749936
 20
0.599979
 30
0.0
 10
6.749936
 20
-0.000000
 30
0.0
 10
5.999930
 20
-0.000000
 30
0.0
 10
5.999930
 20
0.021249
 30
0.0
 10
6.728687
 20
0.021249
 30
0.0
 10
6.728687
 20
0.599979
 30
0.0
 10
6.749936
 20
0.599979
 30
0.0
 10
6.749936
 20
0.599979
 30
0.0
  0
LWPOLYLINE
  5
103
100
AcDbEntity
  8
Layer_1
 62
7
100
AcDbPolyline
 90
8
 70
1
 10
0.021249
 20
0.599979
 30
0.0
 10
0.021249
 20
0.021249
 30
0.0
 10
0.750004
 20
0.021249
 30
0.0
 10
0.750004
 20
-0.000000
 30
0.0
 10
-0.000000
 20
-0.000000
 30
0.0
 10
-0.000000
 20
0.599979
 30
0.0
 10
0.021249
 20
0.599979
 30
0.0
 10
0.021249
 20
0.599979
 30
0.0
  0
LWPOLYLINE
  5
104
100
AcDbEntity
  8
Layer_1
 62
7
100
AcDbPolyline
 90
102
 70
0
 10
0.565333
 20
5.161822
 30
0.0
 10
0.457940
 20
5.146333
 30
0.0
 10
0.362376
 20
5.103118
 30
0.0
 10
0.270157
 20
4.975181
 30
0.0
 10
0.269112
 20
4.973693
 30
0.0
 10
0.224309
 20
4.877052
 30
0.0
 10
0.210481
 20
4.773747
 30
0.0
 10
0.227511
 20
4.670920
 30
0.0
 10
0.275285
 20
4.575716
 30
0.0
 10
0.277599
 20
4.572905
 30
0.0
 10
0.353951
 20
4.442429
 30
0.0
 10
0.442357
 20
4.270177
 30
0.0
 10
0.554713
 20
4.041725
 30
0.0
 10
0.640031
 20
3.803775
 30
0.0
 10
0.697975
 20
3.558738
 30
0.0
 10
0.728211
 20
3.309026
 30
0.0
 10
0.730405
 20
3.057051
 30
0.0
 10
0.704222
 20
2.805223
 30
0.0
 10
0.649327
 20
2.555953
 30
0.0
 10
0.565387
 20
2.311655
 30
0.0
 10
0.715186
 20
2.305621
 30
0.0
 10
0.863876
 20
2.309490
 30
0.0
 10
1.011033
 20
2.323059
 30
0.0
 10
1.156231
 20
2.346122
 30
0.0
 10
1.299045
 20
2.378474
 30
0.0
 10
1.439051
 20
2.419910
 30
0.0
 10
1.575824
 20
2.470225
 30
0.0
 10
1.708938
 20
2.529214
 30
0.0
 10
1.837969
 20
2.596672
 30
0.0
 10
1.962492
 20
2.672394
 30
0.0
 10
2.082081
 20
2.756175
 30
0.0
 10
2.196313
 20
2.847810
 30
0.0
 10
2.304761
 20
2.947095
 30
0.0
 10
2.407001
 20
3.053824
 30
0.0
 10
2.502608
 20
3.167792
 30
0.0
 10
2.591158
 20
3.288794
 30
0.0
 10
2.481958
 20
3.488138
 30
0.0
 10
2.354255
 20
3.674081
 30
0.0
 10
2.209322
 20
3.845504
 30
0.0
 10
2.048434
 20
4.001292
 30
0.0
 10
1.872866
 20
4.140326
 30
0.0
 10
1.683894
 20
4.261490
 30
0.0
 10
1.482791
 20
4.363667
 30
0.0
 10
1.270832
 20
4.445739
 30
0.0
 10
1.272271
 20
4.442432
 30
0.0
 10
1.430989
 20
4.095361
 30
0.0
 10
1.514535
 20
3.866847
 30
0.0
 10
1.546875
 20
3.742077
 30
0.0
 10
1.568935
 20
3.611530
 30
0.0
 10
1.576147
 20
3.475817
 30
0.0
 10
1.564585
 20
3.336204
 30
0.0
 10
1.532218
 20
3.194594
 30
0.0
 10
1.477016
 20
3.052891
 30
0.0
 10
1.396948
 20
2.912997
 30
0.0
 10
1.289983
 20
2.776817
 30
0.0
 10
1.154090
 20
2.646254
 30
0.0
 10
0.987238
 20
2.523211
 30
0.0
 10
0.944501
 20
2.502580
 30
0.0
 10
0.900435
 20
2.495165
 30
0.0
 10
0.857227
 20
2.499782
 30
0.0
 10
0.817061
 20
2.515251
 30
0.0
 10
0.782124
 20
2.540390
 30
0.0
 10
0.754601
 20
2.574017
 30
0.0
 10
0.736677
 20
2.614949
 30
0.0
 10
0.730537
 20
2.662007
 30
0.0
 10
0.736135
 20
2.703070
 30
0.0
 10
0.751494
 20
2.740896
 30
0.0
 10
0.775667
 20
2.773797
 30
0.0
 10
0.807708
 20
2.800086
 30
0.0
 10
0.945328
 20
2.898902
 30
0.0
 10
1.052796
 20
2.996257
 30
0.0
 10
1.133269
 20
3.092555
 30
0.0
 10
1.189905
 20
3.188201
 30
0.0
 10
1.225863
 20
3.283599
 30
0.0
 10
1.244299
 20
3.379152
 30
0.0
 10
1.248372
 20
3.475264
 30
0.0
 10
1.241238
 20
3.572339
 30
0.0
 10
1.224163
 20
3.670146
 30
0.0
 10
1.197768
 20
3.767801
 30
0.0
 10
1.125795
 20
3.960346
 30
0.0
 10
0.966568
 20
4.318244
 30
0.0
 10
0.953881
 20
4.371230
 30
0.0
 10
0.958816
 20
4.424129
 30
0.0
 10
0.980277
 20
4.472730
 30
0.0
 10
1.017171
 20
4.512823
 30
0.0
 10
0.939006
 20
4.528146
 30
0.0
 10
0.940164
 20
4.531178
 30
0.0
 10
0.910886
 20
4.547915
 30
0.0
 10
0.899264
 20
4.579575
 30
0.0
 10
0.904942
 20
4.602395
 30
0.0
 10
0.904604
 20
4.602677
 30
0.0
 10
0.936943
 20
4.688284
 30
0.0
 10
0.948038
 20
4.779121
 30
0.0
 10
0.940255
 20
4.856246
 30
0.0
 10
0.917952
 20
4.928081
 30
0.0
 10
0.882665
 20
4.993086
 30
0.0
 10
0.835933
 20
5.049724
 30
0.0
 10
0.779295
 20
5.096456
 30
0.0
 10
0.714290
 20
5.131744
 30
0.0
 10
0.642455
 20
5.154048
 30
0.0
 10
0.565330
 20
5.161830
 30
0.0
 10
0.565333
 20
5.161822
 30
0.0
  0
LWPOLYLINE
  5
105
100
AcDbEntity
  8
Layer_1
 62
7
100
AcDbPolyline
 90
34
 70
0
 10
0.565333
 20
5.019058
 30
0.0
 10
0.613701
 20
5.014182
 30
0.0
 10
0.658752
 20
5.000197
 30
0.0
 10
0.699519
 20
4.978070
 30
0.0
 10
0.735038
 20
4.948764
 30
0.0
 10
0.764344
 20
4.913244
 30
0.0
 10
0.786472
 20
4.872477
 30
0.0
 10
0.800456
 20
4.827427
 30
0.0
 10
0.805332
 20
4.779058
 30
0.0
 10
0.800456
 20
4.730690
 30
0.0
 10
0.786472
 20
4.685639
 30
0.0
 10
0.764344
 20
4.644872
 30
0.0
 10
0.735038
 20
4.609353
 30
0.0
 10
0.699519
 20
4.580047
 30
0.0
 10
0.658752
 20
4.557919
 30
0.0
 10
0.613701
 20
4.543935
 30
0.0
 10
0.565333
 20
4.539059
 30
0.0
 10
0.516965
 20
4.543935
 30
0.0
 10
0.471916
 20
4.557919
 30
0.0
 10
0.431149
 20
4.580047
 30
0.0
 10
0.395630
 20
4.609353
 30
0.0
 10
0.366324
 20
4.644872
 30
0.0
 10
0.344196
 20
4.685639
 30
0.0
 10
0.330211
 20
4.730690
 30
0.0
 10
0.325334
 20
4.779058
 30
0.0
 10
0.330211
 20
4.827427
 30
0.0
 10
0.344196
 20
4.872477
 30
0.0
 10
0.366324
 20
4.913244
 30
0.0
 10
0.395630
 20
4.948764
 30
0.0
 10
0.431149
 20
4.978070
 30
0.0
 10
0.471916
 20
5.000197
 30
0.0
 10
0.516965
 20
5.014182
 30
0.0
 10
0.565333
 20
5.019058
 30
0.0
 10
0.565333
 20
5.019058
 30
0.0
  0
LWPOLYLINE
  5
106
100
AcDbEntity
  8
Layer_1
 62
7
100
AcDbPolyline
 90
102
 70
0
 10
3.972768
 20
2.858051
 30
0.0
 10
4.080161
 20
2.873540
 30
0.0
 10
4.175725
 20
2.916755
 30
0.0
 10
4.267944
 20
3.044692
 30
0.0
 10
4.268988
 20
3.046180
 30
0.0
 10
4.313792
 20
3.142821
 30
0.0
 10
4.327620
 20
3.246127
 30
0.0
 10
4.310590
 20
3.348953
 30
0.0
 10
4.262816
 20
3.444157
 30
0.0
 10
4.260502
 20
3.446968
 30
0.0
 10
4.184150
 20
3.577444
 30
0.0
 10
4.095744
 20
3.749696
 30
0.0
 10
3.983388
 20
3.978148
 30
0.0
 10
3.898070
 20
4.216098
 30
0.0
 10
3.840126
 20
4.461135
 30
0.0
 10
3.809890
 20
4.710847
 30
0.0
 10
3.807696
 20
4.962822
 30
0.0
 10
3.833879
 20
5.214650
 30
0.0
 10
3.888774
 20
5.463920
 30
0.0
 10
3.972714
 20
5.708218
 30
0.0
 10
3.822915
 20
5.714252
 30
0.0
 10
3.674225
 20
5.710383
 30
0.0
 10
3.527068
 20
5.696814
 30
0.0
 10
3.381870
 20
5.673751
 30
0.0
 10
3.239056
 20
5.641399
 30
0.0
 10
3.099049
 20
5.599963
 30
0.0
 10
2.962277
 20
5.549648
 30
0.0
 10
2.829163
 20
5.490660
 30
0.0
 10
2.700132
 20
5.423202
 30
0.0
 10
2.575609
 20
5.347479
 30
0.0
 10
2.456020
 20
5.263698
 30
0.0
 10
2.341788
 20
5.172063
 30
0.0
 10
2.233340
 20
5.072778
 30
0.0
 10
2.131100
 20
4.966050
 30
0.0
 10
2.035493
 20
4.852082
 30
0.0
 10
1.946943
 20
4.731079
 30
0.0
 10
2.056143
 20
4.531735
 30
0.0
 10
2.183846
 20
4.345792
 30
0.0
 10
2.328779
 20
4.174369
 30
0.0
 10
2.489667
 20
4.018581
 30
0.0
 10
2.665235
 20
3.879547
 30
0.0
 10
2.854207
 20
3.758383
 30
0.0
 10
3.055310
 20
3.656206
 30
0.0
 10
3.267269
 20
3.574134
 30
0.0
 10
3.265830
 20
3.577441
 30
0.0
 10
3.107112
 20
3.924512
 30
0.0
 10
3.023566
 20
4.153026
 30
0.0
 10
2.991226
 20
4.277796
 30
0.0
 10
2.969166
 20
4.408343
 30
0.0
 10
2.961954
 20
4.544056
 30
0.0
 10
2.973516
 20
4.683669
 30
0.0
 10
3.005883
 20
4.825279
 30
0.0
 10
3.061085
 20
4.966983
 30
0.0
 10
3.141153
 20
5.106876
 30
0.0
 10
3.248118
 20
5.243056
 30
0.0
 10
3.384011
 20
5.373619
 30
0.0
 10
3.550863
 20
5.496662
 30
0.0
 10
3.593600
 20
5.517293
 30
0.0
 10
3.637666
 20
5.524708
 30
0.0
 10
3.680874
 20
5.520091
 30
0.0
 10
3.721040
 20
5.504622
 30
0.0
 10
3.755977
 20
5.479483
 30
0.0
 10
3.783500
 20
5.445857
 30
0.0
 10
3.801424
 20
5.404924
 30
0.0
 10
3.807564
 20
5.357866
 30
0.0
 10
3.801966
 20
5.316803
 30
0.0
 10
3.786607
 20
5.278978
 30
0.0
 10
3.762434
 20
5.246076
 30
0.0
 10
3.730393
 20
5.219787
 30
0.0
 10
3.592773
 20
5.120971
 30
0.0
 10
3.485305
 20
5.023616
 30
0.0
 10
3.404832
 20
4.927318
 30
0.0
 10
3.348195
 20
4.831672
 30
0.0
 10
3.312238
 20
4.736274
 30
0.0
 10
3.293802
 20
4.640721
 30
0.0
 10
3.289729
 20
4.544609
 30
0.0
 10
3.296863
 20
4.447534
 30
0.0
 10
3.313938
 20
4.349727
 30
0.0
 10
3.340333
 20
4.252072
 30
0.0
 10
3.412306
 20
4.059527
 30
0.0
 10
3.571533
 20
3.701629
 30
0.0
 10
3.584220
 20
3.648644
 30
0.0
 10
3.579285
 20
3.595744
 30
0.0
 10
3.557824
 20
3.547143
 30
0.0
 10
3.520930
 20
3.507051
 30
0.0
 10
3.599095
 20
3.491727
 30
0.0
 10
3.597937
 20
3.488695
 30
0.0
 10
3.627215
 20
3.471958
 30
0.0
 10
3.638837
 20
3.440298
 30
0.0
 10
3.633159
 20
3.417478
 30
0.0
 10
3.633497
 20
3.417196
 30
0.0
 10
3.601158
 20
3.331589
 30
0.0
 10
3.590063
 20
3.240752
 30
0.0
 10
3.597846
 20
3.163627
 30
0.0
 10
3.620149
 20
3.091792
 30
0.0
 10
3.655436
 20
3.026787
 30
0.0
 10
3.702168
 20
2.970149
 30
0.0
 10
3.758806
 20
2.923417
 30
0.0
 10
3.823811
 20
2.888130
 30
0.0
 10
3.895646
 20
2.865826
 30
0.0
 10
3.972771
 20
2.858043
 30
0.0
 10
3.972768
 20
2.858051
 30
0.0
  0
LWPOLYLINE
  5
107
100
AcDbEntity
  8
Layer_1
 62
7
100
AcDbPolyline
 90
34
 70
0
 10
3.972768
 20
3.000816
 30
0.0
 10
3.924400
 20
3.005691
 30
0.0
 10
3.879349
 20
3.019676
 30
0.0
 10
3.838582
 20
3.041804
 30
0.0
 10
3.803063
 20
3.071109
 30
0.0
 10
3.773757
 20
3.106629
 30
0.0
 10
3.751629
 20
3.147396
 30
0.0
 10
3.737645
 20
3.192446
 30
0.0
 10
3.732769
 20
3.240815
 30
0.0
 10
3.737645
 20
3.289183
 30
0.0
 10
3.751629
 20
3.334234
 30
0.0
 10
3.773757
 20
3.375001
 30
0.0
 10
3.803063
 20
3.410520
 30
0.0
 10
3.838582
 20
3.439826
 30
0.0
 10
3.879349
 20
3.461954
 30
0.0
 10
3.924400
 20
3.475938
 30
0.0
 10
3.972768
 20
3.480814
 30
0.0
 10
4.021135
 20
3.475938
 30
0.0
 10
4.066185
 20
3.461954
 30
0.0
 10
4.106952
 20
3.439826
 30
0.0
 10
4.142471
 20
3.410520
 30
0.0
 10
4.171777
 20
3.375001
 30
0.0
 10
4.193905
 20
3.334234
 30
0.0
 10
4.207890
 20
3.289183
 30
0.0
 10
4.212767
 20
3.240815
 30
0.0
 10
4.207890
 20
3.192446
 30
0.0
 10
4.193905
 20
3.147396
 30
0.0
 10
4.171777
 20
3.106629
 30
0.0
 10
4.142471
 20
3.071109
 30
0.0
 10
4.106952
 20
3.041804
 30
0.0
 10
4.066185
 20
3.019676
 30
0.0
 10
4.021135
 20
3.005691
 30
0.0
 10
3.972768
 20
3.000816
 30
0.0
 10
3.972768
 20
3.000816
 30
0.0
  0
LWPOLYLINE
  5
108
100
AcDbEntity
  8
Layer_1
 62
7
100
AcDbPolyline
 90
102
 70
0
 10
4.503171
 20
5.375634
 30
0.0
 10
4.395778
 20
5.360144
 30
0.0
 10
4.300214
 20
5.316929
 30
0.0
 10
4.207995
 20
5.188992
 30
0.0
 10
4.206951
 20
5.187505
 30
0.0
 10
4.162147
 20
5.090864
 30
0.0
 10
4.148319
 20
4.987558
 30
0.0
 10
4.165349
 20
4.884731
 30
0.0
 10
4.213123
 20
4.789527
 30
0.0
 10
4.215437
 20
4.786716
 30
0.0
 10
4.291789
 20
4.656241
 30
0.0
 10
4.380196
 20
4.483989
 30
0.0
 10
4.492552
 20
4.255537
 30
0.0
 10
4.577869
 20
4.017586
 30
0.0
 10
4.635813
 20
3.772550
 30
0.0
 10
4.666049
 20
3.522838
 30
0.0
 10
4.668243
 20
3.270862
 30
0.0
 10
4.642060
 20
3.019034
 30
0.0
 10
4.587165
 20
2.769765
 30
0.0
 10
4.503225
 20
2.525466
 30
0.0
 10
4.653024
 20
2.519432
 30
0.0
 10
4.801714
 20
2.523302
 30
0.0
 10
4.948871
 20
2.536871
 30
0.0
 10
5.094069
 20
2.559934
 30
0.0
 10
5.236884
 20
2.592286
 30
0.0
 10
5.376890
 20
2.633721
 30
0.0
 10
5.513662
 20
2.684036
 30
0.0
 10
5.646776
 20
2.743025
 30
0.0
 10
5.775807
 20
2.810483
 30
0.0
 10
5.900330
 20
2.886205
 30
0.0
 10
6.019919
 20
2.969986
 30
0.0
 10
6.134151
 20
3.061622
 30
0.0
 10
6.242599
 20
3.160906
 30
0.0
 10
6.344839
 20
3.267635
 30
0.0
 10
6.440447
 20
3.381603
 30
0.0
 10
6.528996
 20
3.502605
 30
0.0
 10
6.419796
 20
3.701950
 30
0.0
 10
6.292093
 20
3.887892
 30
0.0
 10
6.147160
 20
4.059316
 30
0.0
 10
5.986272
 20
4.215103
 30
0.0
 10
5.810705
 20
4.354138
 30
0.0
 10
5.621732
 20
4.475302
 30
0.0
 10
5.420629
 20
4.577478
 30
0.0
 10
5.208670
 20
4.659551
 30
0.0
 10
5.210109
 20
4.656244
 30
0.0
 10
5.368827
 20
4.309173
 30
0.0
 10
5.452373
 20
4.080659
 30
0.0
 10
5.484713
 20
3.955889
 30
0.0
 10
5.506773
 20
3.825342
 30
0.0
 10
5.513985
 20
3.689629
 30
0.0
 10
5.502423
 20
3.550015
 30
0.0
 10
5.470056
 20
3.408405
 30
0.0
 10
5.414854
 20
3.266702
 30
0.0
 10
5.334786
 20
3.126809
 30
0.0
 10
5.227821
 20
2.990629
 30
0.0
 10
5.091928
 20
2.860066
 30
0.0
 10
4.925076
 20
2.737022
 30
0.0
 10
4.882339
 20
2.716392
 30
0.0
 10
4.838273
 20
2.708976
 30
0.0
 10
4.795065
 20
2.713594
 30
0.0
 10
4.754899
 20
2.729063
 30
0.0
 10
4.719962
 20
2.754201
 30
0.0
 10
4.692439
 20
2.787828
 30
0.0
 10
4.674515
 20
2.828761
 30
0.0
 10
4.668375
 20
2.875819
 30
0.0
 10
4.673973
 20
2.916882
 30
0.0
 10
4.689332
 20
2.954707
 30
0.0
 10
4.713505
 20
2.987608
 30
0.0
 10
4.745546
 20
3.013898
 30
0.0
 10
4.883166
 20
3.112713
 30
0.0
 10
4.990634
 20
3.210068
 30
0.0
 10
5.071107
 20
3.306367
 30
0.0
 10
5.127744
 20
3.402013
 30
0.0
 10
5.163701
 20
3.497410
 30
0.0
 10
5.182137
 20
3.592963
 30
0.0
 10
5.186210
 20
3.689075
 30
0.0
 10
5.179076
 20
3.786151
 30
0.0
 10
5.162002
 20
3.883958
 30
0.0
 10
5.135606
 20
3.981612
 30
0.0
 10
5.063633
 20
4.174158
 30
0.0
 10
4.904406
 20
4.532055
 30
0.0
 10
4.891719
 20
4.585041
 30
0.0
 10
4.896654
 20
4.637940
 30
0.0
 10
4.918115
 20
4.686542
 30
0.0
 10
4.955009
 20
4.726634
 30
0.0
 10
4.876845
 20
4.741958
 30
0.0
 10
4.878002
 20
4.744990
 30
0.0
 10
4.848724
 20
4.761727
 30
0.0
 10
4.837102
 20
4.793386
 30
0.0
 10
4.842780
 20
4.816206
 30
0.0
 10
4.842442
 20
4.816489
 30
0.0
 10
4.874781
 20
4.902095
 30
0.0
 10
4.885876
 20
4.992932
 30
0.0
 10
4.878093
 20
5.070058
 30
0.0
 10
4.855790
 20
5.141892
 30
0.0
 10
4.820503
 20
5.206898
 30
0.0
 10
4.773771
 20
5.263536
 30
0.0
 10
4.717133
 20
5.310268
 30
0.0
 10
4.652128
 20
5.345555
 30
0.0
 10
4.580293
 20
5.367859
 30
0.0
 10
4.503168
 20
5.375641
 30
0.0
 10
4.503171
 20
5.375634
 30
0.0
  0
LWPOLYLINE
  5
109
100
AcDbEntity
  8
Layer_1
 62
7
100
AcDbPolyline
 90
34
 70
0
 10
4.503171
 20
5.232869
 30
0.0
 10
4.551539
 20
5.227993
 30
0.0
 10
4.596590
 20
5.214009
 30
0.0
 10
4.637357
 20
5.191881
 30
0.0
 10
4.672876
 20
5.162575
 30
0.0
 10
4.702182
 20
5.127056
 30
0.0
 10
4.724310
 20
5.086289
 30
0.0
 10
4.738294
 20
5.041238
 30
0.0
 10
4.743170
 20
4.992870
 30
0.0
 10
4.738294
 20
4.944501
 30
0.0
 10
4.724310
 20
4.899451
 30
0.0
 10
4.702182
 20
4.858684
 30
0.0
 10
4.672876
 20
4.823165
 30
0.0
 10
4.637357
 20
4.793859
 30
0.0
 10
4.596590
 20
4.771731
 30
0.0
 10
4.551539
 20
4.757746
 30
0.0
 10
4.503171
 20
4.752871
 30
0.0
 10
4.454804
 20
4.757746
 30
0.0
 10
4.409754
 20
4.771731
 30
0.0
 10
4.368987
 20
4.793859
 30
0.0
 10
4.333468
 20
4.823165
 30
0.0
 10
4.304162
 20
4.858684
 30
0.0
 10
4.282034
 20
4.899451
 30
0.0
 10
4.268049
 20
4.944501
 30
0.0
 10
4.263172
 20
4.992870
 30
0.0
 10
4.268049
 20
5.041238
 30
0.0
 10
4.282034
 20
5.086289
 30
0.0
 10
4.304162
 20
5.127056
 30
0.0
 10
4.333468
 20
5.162575
 30
0.0
 10
4.368987
 20
5.191881
 30
0.0
 10
4.409754
 20
5.214009
 30
0.0
 10
4.454804
 20
5.227993
 30
0.0
 10
4.503171
 20
5.232869
 30
0.0
 10
4.503171
 20
5.232869
 30
0.0
  0
LWPOLYLINE
  5
10a
100
AcDbEntity
  8
Layer_1
 62
7
100
AcDbPolyline
 90
102
 70
0
 10
6.865540
 20
2.313530
 30
0.0
 10
6.850050
 20
2.420922
 30
0.0
 10
6.806835
 20
2.516487
 30
0.0
 10
6.678898
 20
2.608706
 30
0.0
 10
6.677411
 20
2.609750
 30
0.0
 10
6.580770
 20
2.654553
 30
0.0
 10
6.477464
 20
2.668382
 30
0.0
 10
6.374637
 20
2.651351
 30
0.0
 10
6.279433
 20
2.603578
 30
0.0
 10
6.276622
 20
2.601264
 30
0.0
 10
6.146147
 20
2.524912
 30
0.0
 10
5.973895
 20
2.436505
 30
0.0
 10
5.745443
 20
2.324149
 30
0.0
 10
5.507492
 20
2.238832
 30
0.0
 10
5.262456
 20
2.180888
 30
0.0
 10
5.012744
 20
2.150651
 30
0.0
 10
4.760768
 20
2.148458
 30
0.0
 10
4.508940
 20
2.174641
 30
0.0
 10
4.259671
 20
2.229535
 30
0.0
 10
4.015372
 20
2.313476
 30
0.0
 10
4.009338
 20
2.163677
 30
0.0
 10
4.013208
 20
2.014986
 30
0.0
 10
4.026777
 20
1.867830
 30
0.0
 10
4.049840
 20
1.722632
 30
0.0
 10
4.082192
 20
1.579817
 30
0.0
 10
4.123627
 20
1.439811
 30
0.0
 10
4.173942
 20
1.303038
 30
0.0
 10
4.232931
 20
1.169924
 30
0.0
 10
4.300389
 20
1.040893
 30
0.0
 10
4.376111
 20
0.916371
 30
0.0
 10
4.459892
 20
0.796781
 30
0.0
 10
4.551528
 20
0.682550
 30
0.0
 10
4.650812
 20
0.574102
 30
0.0
 10
4.757541
 20
0.471861
 30
0.0
 10
4.871509
 20
0.376254
 30
0.0
 10
4.992511
 20
0.287705
 30
0.0
 10
5.191856
 20
0.396904
 30
0.0
 10
5.377798
 20
0.524608
 30
0.0
 10
5.549222
 20
0.669541
 30
0.0
 10
5.705009
 20
0.830429
 30
0.0
 10
5.844044
 20
1.005996
 30
0.0
 10
5.965208
 20
1.194969
 30
0.0
 10
6.067384
 20
1.396072
 30
0.0
 10
6.149457
 20
1.608030
 30
0.0
 10
6.146150
 20
1.606591
 30
0.0
 10
5.799079
 20
1.447874
 30
0.0
 10
5.570565
 20
1.364328
 30
0.0
 10
5.445795
 20
1.331987
 30
0.0
 10
5.315248
 20
1.309928
 30
0.0
 10
5.179535
 20
1.302716
 30
0.0
 10
5.039921
 20
1.314278
 30
0.0
 10
4.898311
 20
1.346644
 30
0.0
 10
4.756608
 20
1.401846
 30
0.0
 10
4.616715
 20
1.481914
 30
0.0
 10
4.480535
 20
1.588880
 30
0.0
 10
4.349972
 20
1.724773
 30
0.0
 10
4.226928
 20
1.891624
 30
0.0
 10
4.206298
 20
1.934362
 30
0.0
 10
4.198882
 20
1.978427
 30
0.0
 10
4.203500
 20
2.021636
 30
0.0
 10
4.218969
 20
2.061801
 30
0.0
 10
4.244107
 20
2.096738
 30
0.0
 10
4.277734
 20
2.124262
 30
0.0
 10
4.318667
 20
2.142186
 30
0.0
 10
4.365724
 20
2.148325
 30
0.0
 10
4.406788
 20
2.142727
 30
0.0
 10
4.444613
 20
2.127368
 30
0.0
 10
4.477514
 20
2.103195
 30
0.0
 10
4.503804
 20
2.071154
 30
0.0
 10
4.602619
 20
1.933535
 30
0.0
 10
4.699974
 20
1.826067
 30
0.0
 10
4.796273
 20
1.745594
 30
0.0
 10
4.891919
 20
1.688957
 30
0.0
 10
4.987316
 20
1.652999
 30
0.0
 10
5.082869
 20
1.634563
 30
0.0
 10
5.178981
 20
1.630491
 30
0.0
 10
5.276057
 20
1.637624
 30
0.0
 10
5.373864
 20
1.654699
 30
0.0
 10
5.471518
 20
1.681094
 30
0.0
 10
5.664064
 20
1.753068
 30
0.0
 10
6.021961
 20
1.912294
 30
0.0
 10
6.074947
 20
1.924981
 30
0.0
 10
6.127846
 20
1.920047
 30
0.0
 10
6.176448
 20
1.898585
 30
0.0
 10
6.216540
 20
1.861692
 30
0.0
 10
6.231864
 20
1.939856
 30
0.0
 10
6.234896
 20
1.938699
 30
0.0
 10
6.251633
 20
1.967976
 30
0.0
 10
6.283292
 20
1.979599
 30
0.0
 10
6.306112
 20
1.973920
 30
0.0
 10
6.306395
 20
1.974259
 30
0.0
 10
6.392001
 20
1.941919
 30
0.0
 10
6.482838
 20
1.930825
 30
0.0
 10
6.559964
 20
1.938607
 30
0.0
 10
6.631798
 20
1.960911
 30
0.0
 10
6.696804
 20
1.996198
 30
0.0
 10
6.753442
 20
2.042930
 30
0.0
 10
6.800174
 20
2.099567
 30
0.0
 10
6.835461
 20
2.164573
 30
0.0
 10
6.857765
 20
2.236407
 30
0.0
 10
6.865547
 20
2.313532
 30
0.0
 10
6.865540
 20
2.313530
 30
0.0
  0
LWPOLYLINE
  5
10b
100
AcDbEntity
  8
Layer_1
 62
7
100
AcDbPolyline
 90
34
 70
0
 10
6.722775
 20
2.313530
 30
0.0
 10
6.717899
 20
2.265161
 30
0.0
 10
6.703915
 20
2.220111
 30
0.0
 10
6.681787
 20
2.179344
 30
0.0
 10
6.652481
 20
2.143824
 30
0.0
 10
6.616962
 20
2.114518
 30
0.0
 10
6.576195
 20
2.092391
 30
0.0
 10
6.531144
 20
2.078407
 30
0.0
 10
6.482776
 20
2.073531
 30
0.0
 10
6.434407
 20
2.078407
 30
0.0
 10
6.389357
 20
2.092391
 30
0.0
 10
6.348590
 20
2.114518
 30
0.0
 10
6.313071
 20
2.143824
 30
0.0
 10
6.283765
 20
2.179344
 30
0.0
 10
6.261637
 20
2.220111
 30
0.0
 10
6.247652
 20
2.265161
 30
0.0
 10
6.242777
 20
2.313530
 30
0.0
 10
6.247652
 20
2.361897
 30
0.0
 10
6.261637
 20
2.406947
 30
0.0
 10
6.283765
 20
2.447714
 30
0.0
 10
6.313071
 20
2.483233
 30
0.0
 10
6.348590
 20
2.512539
 30
0.0
 10
6.389357
 20
2.534667
 30
0.0
 10
6.434407
 20
2.548652
 30
0.0
 10
6.482776
 20
2.553529
 30
0.0
 10
6.531144
 20
2.548652
 30
0.0
 10
6.576195
 20
2.534667
 30
0.0
 10
6.616962
 20
2.512539
 30
0.0
 10
6.652481
 20
2.483233
 30
0.0
 10
6.681787
 20
2.447714
 30
0.0
 10
6.703915
 20
2.406947
 30
0.0
 10
6.717899
 20
2.361897
 30
0.0
 10
6.722775
 20
2.313530
 30
0.0
 10
6.722775
 20
2.313530
 30
0.0
  0
LWPOLYLINE
  5
10c
100
AcDbEntity
  8
Layer_1
 62
7
100
AcDbPolyline
 90
102
 70
0
 10
0.876618
 20
0.840155
 30
0.0
 10
0.892107
 20
0.732762
 30
0.0
 10
0.935322
 20
0.637198
 30
0.0
 10
1.063259
 20
0.544979
 30
0.0
 10
1.064747
 20
0.543935
 30
0.0
 10
1.161388
 20
0.499131
 30
0.0
 10
1.264694
 20
0.485303
 30
0.0
 10
1.367520
 20
0.502333
 30
0.0
 10
1.462724
 20
0.550107
 30
0.0
 10
1.465535
 20
0.552421
 30
0.0
 10
1.596011
 20
0.628773
 30
0.0
 10
1.768263
 20
0.717180
 30
0.0
 10
1.996715
 20
0.829536
 30
0.0
 10
2.234665
 20
0.914853
 30
0.0
 10
2.479702
 20
0.972797
 30
0.0
 10
2.729414
 20
1.003033
 30
0.0
 10
2.981389
 20
1.005227
 30
0.0
 10
3.233217
 20
0.979044
 30
0.0
 10
3.482487
 20
0.924149
 30
0.0
 10
3.726785
 20
0.840209
 30
0.0
 10
3.732819
 20
0.990008
 30
0.0
 10
3.728950
 20
1.138698
 30
0.0
 10
3.715381
 20
1.285855
 30
0.0
 10
3.692318
 20
1.431053
 30
0.0
 10
3.659966
 20
1.573868
 30
0.0
 10
3.618530
 20
1.713874
 30
0.0
 10
3.568215
 20
1.850646
 30
0.0
 10
3.509227
 20
1.983760
 30
0.0
 10
3.441769
 20
2.112791
 30
0.0
 10
3.366046
 20
2.237314
 30
0.0
 10
3.282265
 20
2.356903
 30
0.0
 10
3.190630
 20
2.471135
 30
0.0
 10
3.091345
 20
2.579583
 30
0.0
 10
2.984617
 20
2.681823
 30
0.0
 10
2.870649
 20
2.777431
 30
0.0
 10
2.749646
 20
2.865980
 30
0.0
 10
2.550302
 20
2.756781
 30
0.0
 10
2.364359
 20
2.629077
 30
0.0
 10
2.192936
 20
2.484144
 30
0.0
 10
2.037148
 20
2.323256
 30
0.0
 10
1.898114
 20
2.147689
 30
0.0
 10
1.776950
 20
1.958716
 30
0.0
 10
1.674773
 20
1.757613
 30
0.0
 10
1.592701
 20
1.545654
 30
0.0
 10
1.596008
 20
1.547093
 30
0.0
 10
1.943079
 20
1.705811
 30
0.0
 10
2.171593
 20
1.789357
 30
0.0
 10
2.296363
 20
1.821697
 30
0.0
 10
2.426910
 20
1.843757
 30
0.0
 10
2.562623
 20
1.850969
 30
0.0
 10
2.702236
 20
1.839407
 30
0.0
 10
2.843846
 20
1.807040
 30
0.0
 10
2.985550
 20
1.751838
 30
0.0
 10
3.125443
 20
1.671770
 30
0.0
 10
3.261623
 20
1.564805
 30
0.0
 10
3.392186
 20
1.428912
 30
0.0
 10
3.515229
 20
1.262060
 30
0.0
 10
3.535860
 20
1.219323
 30
0.0
 10
3.543275
 20
1.175257
 30
0.0
 10
3.538658
 20
1.132049
 30
0.0
 10
3.523189
 20
1.091884
 30
0.0
 10
3.498050
 20
1.056946
 30
0.0
 10
3.464424
 20
1.029423
 30
0.0
 10
3.423491
 20
1.011499
 30
0.0
 10
3.376433
 20
1.005359
 30
0.0
 10
3.335370
 20
1.010957
 30
0.0
 10
3.297545
 20
1.026316
 30
0.0
 10
3.264643
 20
1.050489
 30
0.0
 10
3.238354
 20
1.082530
 30
0.0
 10
3.139538
 20
1.220150
 30
0.0
 10
3.042183
 20
1.327618
 30
0.0
 10
2.945885
 20
1.408091
 30
0.0
 10
2.850239
 20
1.464728
 30
0.0
 10
2.754841
 20
1.500685
 30
0.0
 10
2.659289
 20
1.519121
 30
0.0
 10
2.563176
 20
1.523194
 30
0.0
 10
2.466101
 20
1.516060
 30
0.0
 10
2.368294
 20
1.498986
 30
0.0
 10
2.270639
 20
1.472590
 30
0.0
 10
2.078094
 20
1.400617
 30
0.0
 10
1.720197
 20
1.241390
 30
0.0
 10
1.667211
 20
1.228703
 30
0.0
 10
1.614311
 20
1.233638
 30
0.0
 10
1.565710
 20
1.255099
 30
0.0
 10
1.525618
 20
1.291993
 30
0.0
 10
1.510294
 20
1.213829
 30
0.0
 10
1.507262
 20
1.214986
 30
0.0
 10
1.490525
 20
1.185708
 30
0.0
 10
1.458866
 20
1.174086
 30
0.0
 10
1.436045
 20
1.179764
 30
0.0
 10
1.435763
 20
1.179426
 30
0.0
 10
1.350156
 20
1.211765
 30
0.0
 10
1.259319
 20
1.222860
 30
0.0
 10
1.182194
 20
1.215078
 30
0.0
 10
1.110359
 20
1.192774
 30
0.0
 10
1.045354
 20
1.157487
 30
0.0
 10
0.988716
 20
1.110755
 30
0.0
 10
0.941984
 20
1.054117
 30
0.0
 10
0.906697
 20
0.989112
 30
0.0
 10
0.884393
 20
0.917277
 30
0.0
 10
0.876610
 20
0.840152
 30
0.0
 10
0.876618
 20
0.840155
 30
0.0
  0
LWPOLYLINE
  5
10d
100
AcDbEntity
  8
Layer_1
 62
7
100
AcDbPolyline
 90
34
 70
0
 10
1.019383
 20
0.840155
 30
0.0
 10
1.024258
 20
0.888523
 30
0.0
 10
1.038243
 20
0.933574
 30
0.0
 10
1.060371
 20
0.974341
 30
0.0
 10
1.089677
 20
1.009860
 30
0.0
 10
1.125196
 20
1.039166
 30
0.0
 10
1.165963
 20
1.061294
 30
0.0
 10
1.211013
 20
1.075278
 30
0.0
 10
1.259382
 20
1.080154
 30
0.0
 10
1.307750
 20
1.075278
 30
0.0
 10
1.352801
 20
1.061294
 30
0.0
 10
1.393568
 20
1.039166
 30
0.0
 10
1.429087
 20
1.009860
 30
0.0
 10
1.458393
 20
0.974341
 30
0.0
 10
1.480521
 20
0.933574
 30
0.0
 10
1.494505
 20
0.888523
 30
0.0
 10
1.499381
 20
0.840155
 30
0.0
 10
1.494505
 20
0.791788
 30
0.0
 10
1.480521
 20
0.746738
 30
0.0
 10
1.458393
 20
0.705971
 30
0.0
 10
1.429087
 20
0.670452
 30
0.0
 10
1.393568
 20
0.641146
 30
0.0
 10
1.352801
 20
0.619018
 30
0.0
 10
1.307750
 20
0.605033
 30
0.0
 10
1.259382
 20
0.600156
 30
0.0
 10
1.211013
 20
0.605033
 30
0.0
 10
1.165963
 20
0.619018
 30
0.0
 10
1.125196
 20
0.641146
 30
0.0
 10
1.089677
 20
0.670452
 30
0.0
 10
1.060371
 20
0.705971
 30
0.0
 10
1.038243
 20
0.746738
 30
0.0
 10
1.024258
 20
0.791788
 30
0.0
 10
1.019383
 20
0.840155
 30
0.0
 10
1.019383
 20
0.840155
 30
0.0
  0
ENDSEC
  0
SECTION
  2
OBJECTS
  0
DICTIONARY
  5
C
330
0
100
AcDbDictionary
  3
ACAD_GROUP
350
D
  3
ACAD_MLINESTYLE
350
17
  0
DICTIONARY
  5
D
330
C
100
AcDbDictionary
  0
DICTIONARY
  5
1A
330
C
100
AcDbDictionary
  0
DICTIONARY
  5
17
330
C
100
AcDbDictionary
  3
STANDARD
350
18
  0
DICTIONARY
  5
19
330
C
100
AcDbDictionary
  0
ENDSEC
  0
EOF
