solid OpenSCAD_Model
  facet normal 0.898794 0.438371 0
    outer loop
      vertex 16.5352 11.3619 4
      vertex 15.9814 12.4974 0
      vertex 15.9814 12.4974 4
    endloop
  endfacet
  facet normal 0.898794 0.438371 0
    outer loop
      vertex 15.9814 12.4974 0
      vertex 16.5352 11.3619 4
      vertex 16.5352 11.3619 0
    endloop
  endfacet
  facet normal 0.342021 0.939692 -0
    outer loop
      vertex 6.78038 20.782 0
      vertex 5.59321 21.2141 4
      vertex 6.78038 20.782 4
    endloop
  endfacet
  facet normal 0.342021 0.939692 0
    outer loop
      vertex 5.59321 21.2141 4
      vertex 6.78038 20.782 0
      vertex 5.59321 21.2141 0
    endloop
  endfacet
  facet normal -0.342021 0.939692 0
    outer loop
      vertex -5.59321 21.2141 0
      vertex -6.78038 20.782 4
      vertex -5.59321 21.2141 4
    endloop
  endfacet
  facet normal -0.342021 0.939692 0
    outer loop
      vertex -6.78038 20.782 4
      vertex -5.59321 21.2141 0
      vertex -6.78038 20.782 0
    endloop
  endfacet
  facet normal -0.927184 0.374607 0
    outer loop
      vertex -17.0084 10.1906 0
      vertex -16.5352 11.3619 4
      vertex -16.5352 11.3619 0
    endloop
  endfacet
  facet normal -0.927184 0.374607 0
    outer loop
      vertex -16.5352 11.3619 4
      vertex -17.0084 10.1906 0
      vertex -17.0084 10.1906 4
    endloop
  endfacet
  facet normal 0.999391 -0.0348992 0
    outer loop
      vertex 18.0559 2.73741 4
      vertex 18.1 4 0
      vertex 18.1 4 4
    endloop
  endfacet
  facet normal 0.999391 -0.0348992 0
    outer loop
      vertex 18.1 4 0
      vertex 18.0559 2.73741 4
      vertex 18.0559 2.73741 0
    endloop
  endfacet
  facet normal 0.0697561 0.997564 -0
    outer loop
      vertex 1.89196 22.0008 0
      vertex 0.63168 22.089 4
      vertex 1.89196 22.0008 4
    endloop
  endfacet
  facet normal 0.0697561 0.997564 0
    outer loop
      vertex 0.63168 22.089 4
      vertex 1.89196 22.0008 0
      vertex 0.63168 22.089 0
    endloop
  endfacet
  facet normal 0.529919 0.848048 -0
    outer loop
      vertex 10.1214 19.0056 0
      vertex 9.05 19.6751 4
      vertex 10.1214 19.0056 4
    endloop
  endfacet
  facet normal 0.529919 0.848048 0
    outer loop
      vertex 9.05 19.6751 4
      vertex 10.1214 19.0056 0
      vertex 9.05 19.6751 0
    endloop
  endfacet
  facet normal -0.994522 0.104528 0
    outer loop
      vertex -18.0559 5.26259 0
      vertex -17.9239 6.51903 4
      vertex -17.9239 6.51903 0
    endloop
  endfacet
  facet normal -0.994522 0.104528 0
    outer loop
      vertex -17.9239 6.51903 4
      vertex -18.0559 5.26259 0
      vertex -18.0559 5.26259 4
    endloop
  endfacet
  facet normal -0.743144 0.669131 0
    outer loop
      vertex -13.8654 15.6345 0
      vertex -13.0201 16.5733 4
      vertex -13.0201 16.5733 0
    endloop
  endfacet
  facet normal -0.743144 0.669131 0
    outer loop
      vertex -13.0201 16.5733 4
      vertex -13.8654 15.6345 0
      vertex -13.8654 15.6345 4
    endloop
  endfacet
  facet normal -0.207912 0.978147 0
    outer loop
      vertex -3.14303 21.825 0
      vertex -4.37879 21.5624 4
      vertex -3.14303 21.825 4
    endloop
  endfacet
  facet normal -0.207912 0.978147 0
    outer loop
      vertex -4.37879 21.5624 4
      vertex -3.14303 21.825 0
      vertex -4.37879 21.5624 0
    endloop
  endfacet
  facet normal 0.994522 0.104528 0
    outer loop
      vertex 18.0559 5.26259 4
      vertex 17.9239 6.51903 0
      vertex 17.9239 6.51903 4
    endloop
  endfacet
  facet normal 0.994522 0.104528 0
    outer loop
      vertex 17.9239 6.51903 0
      vertex 18.0559 5.26259 4
      vertex 18.0559 5.26259 0
    endloop
  endfacet
  facet normal 0.829037 0.559193 0
    outer loop
      vertex 15.3497 13.5915 4
      vertex 14.6432 14.6389 0
      vertex 14.6432 14.6389 4
    endloop
  endfacet
  facet normal 0.829037 0.559193 0
    outer loop
      vertex 14.6432 14.6389 0
      vertex 15.3497 13.5915 4
      vertex 15.3497 13.5915 0
    endloop
  endfacet
  facet normal 0.743144 0.669131 0
    outer loop
      vertex 13.8654 15.6345 4
      vertex 13.0201 16.5733 0
      vertex 13.0201 16.5733 4
    endloop
  endfacet
  facet normal 0.743144 0.669131 0
    outer loop
      vertex 13.0201 16.5733 0
      vertex 13.8654 15.6345 4
      vertex 13.8654 15.6345 0
    endloop
  endfacet
  facet normal 0 1 -0
    outer loop
      vertex 0.63168 22.089 0
      vertex -0.63168 22.089 4
      vertex 0.63168 22.089 4
    endloop
  endfacet
  facet normal 0 1 0
    outer loop
      vertex -0.63168 22.089 4
      vertex 0.63168 22.089 0
      vertex -0.63168 22.089 0
    endloop
  endfacet
  facet normal 0.275636 0.961262 -0
    outer loop
      vertex 5.59321 21.2141 0
      vertex 4.37879 21.5624 4
      vertex 5.59321 21.2141 4
    endloop
  endfacet
  facet normal 0.275636 0.961262 0
    outer loop
      vertex 4.37879 21.5624 4
      vertex 5.59321 21.2141 0
      vertex 4.37879 21.5624 0
    endloop
  endfacet
  facet normal 0.139173 0.990268 -0
    outer loop
      vertex 3.14303 21.825 0
      vertex 1.89196 22.0008 4
      vertex 3.14303 21.825 4
    endloop
  endfacet
  facet normal 0.139173 0.990268 0
    outer loop
      vertex 1.89196 22.0008 4
      vertex 3.14303 21.825 0
      vertex 1.89196 22.0008 0
    endloop
  endfacet
  facet normal 0.587786 0.809017 -0
    outer loop
      vertex 11.1435 18.263 0
      vertex 10.1214 19.0056 4
      vertex 11.1435 18.263 4
    endloop
  endfacet
  facet normal 0.587786 0.809017 0
    outer loop
      vertex 10.1214 19.0056 4
      vertex 11.1435 18.263 0
      vertex 10.1214 19.0056 0
    endloop
  endfacet
  facet normal -0.999391 0.0348992 0
    outer loop
      vertex -18.1 4 0
      vertex -18.0559 5.26259 4
      vertex -18.0559 5.26259 0
    endloop
  endfacet
  facet normal -0.999391 0.0348992 0
    outer loop
      vertex -18.0559 5.26259 4
      vertex -18.1 4 0
      vertex -18.1 4 4
    endloop
  endfacet
  facet normal 0 0 1
    outer loop
      vertex 18.0559 5.26259 4
      vertex 18.0559 2.73741 4
      vertex 18.1 4 4
    endloop
  endfacet
  facet normal 0 0 1
    outer loop
      vertex 8.3 19.15 4
      vertex 18.0559 5.26259 4
      vertex 17.9239 6.51903 4
    endloop
  endfacet
  facet normal 0 0 1
    outer loop
      vertex 18.0559 5.26259 4
      vertex 8.3 19.15 4
      vertex 18.0559 2.73741 4
    endloop
  endfacet
  facet normal 0 0 1
    outer loop
      vertex 8.3 19.15 4
      vertex 17.9239 6.51903 4
      vertex 17.7045 7.7632 4
    endloop
  endfacet
  facet normal 0 0 1
    outer loop
      vertex 18.0559 2.73741 4
      vertex 8.3 19.15 4
      vertex 17.9239 1.48097 4
    endloop
  endfacet
  facet normal 0 0 1
    outer loop
      vertex 8.3 19.15 4
      vertex 17.7045 7.7632 4
      vertex 17.3988 8.98904 4
    endloop
  endfacet
  facet normal 0 0 1
    outer loop
      vertex 17.9239 1.48097 4
      vertex 8.3 19.15 4
      vertex 17.7045 0.236799 4
    endloop
  endfacet
  facet normal 0 0 1
    outer loop
      vertex 8.3 19.15 4
      vertex 17.3988 8.98904 4
      vertex 17.0084 10.1906 4
    endloop
  endfacet
  facet normal 0 0 1
    outer loop
      vertex 17.7045 0.236799 4
      vertex 8.3 19.15 4
      vertex 17.3988 -0.989036 4
    endloop
  endfacet
  facet normal 0 0 1
    outer loop
      vertex 8.3 19.15 4
      vertex 17.0084 10.1906 4
      vertex 16.5352 11.3619 4
    endloop
  endfacet
  facet normal 0 0 1
    outer loop
      vertex 17.3988 -0.989036 4
      vertex 8.3 19.15 4
      vertex 17.0084 -2.19056 4
    endloop
  endfacet
  facet normal 0 0 1
    outer loop
      vertex 8.3 19.15 4
      vertex 16.5352 11.3619 4
      vertex 15.9814 12.4974 4
    endloop
  endfacet
  facet normal 0 0 1
    outer loop
      vertex 17.0084 -2.19056 4
      vertex 8.3 19.15 4
      vertex 16.5352 -3.36193 4
    endloop
  endfacet
  facet normal 0 0 1
    outer loop
      vertex 8.3 19.15 4
      vertex 15.9814 12.4974 4
      vertex 15.3497 13.5915 4
    endloop
  endfacet
  facet normal 0 0 1
    outer loop
      vertex 16.5352 -3.36193 4
      vertex 8.3 19.15 4
      vertex 15.9814 -4.49743 4
    endloop
  endfacet
  facet normal 0 0 1
    outer loop
      vertex 8.3 19.15 4
      vertex 15.3497 13.5915 4
      vertex 14.6432 14.6389 4
    endloop
  endfacet
  facet normal 0 0 1
    outer loop
      vertex 15.9814 -4.49743 4
      vertex 8.3 19.15 4
      vertex 15.3497 -5.59154 4
    endloop
  endfacet
  facet normal 0 0 1
    outer loop
      vertex 8.3 19.15 4
      vertex 14.6432 14.6389 4
      vertex 13.8654 15.6345 4
    endloop
  endfacet
  facet normal 0 0 1
    outer loop
      vertex 15.3497 -5.59154 4
      vertex 8.3 19.15 4
      vertex 14.6432 -6.63891 4
    endloop
  endfacet
  facet normal 0 0 1
    outer loop
      vertex 8.3 19.15 4
      vertex 13.8654 15.6345 4
      vertex 13.0201 16.5733 4
    endloop
  endfacet
  facet normal 0 0 1
    outer loop
      vertex 14.6432 -6.63891 4
      vertex 8.3 19.15 4
      vertex 13.8654 -7.63446 4
    endloop
  endfacet
  facet normal 0 0 1
    outer loop
      vertex 8.3 19.15 4
      vertex 13.0201 16.5733 4
      vertex 12.1113 17.4509 4
    endloop
  endfacet
  facet normal 0 0 1
    outer loop
      vertex 13.8654 -7.63446 4
      vertex 8.3 19.15 4
      vertex 13.0201 -8.57332 4
    endloop
  endfacet
  facet normal 0 0 1
    outer loop
      vertex 8.3 19.15 4
      vertex 12.1113 17.4509 4
      vertex 11.1435 18.263 4
    endloop
  endfacet
  facet normal 0 0 1
    outer loop
      vertex 13.0201 -8.57332 4
      vertex 8.3 19.15 4
      vertex 12.1113 -9.45092 4
    endloop
  endfacet
  facet normal 0 0 1
    outer loop
      vertex 8.3 19.15 4
      vertex 11.1435 18.263 4
      vertex 10.1214 19.0056 4
    endloop
  endfacet
  facet normal 0 0 1
    outer loop
      vertex 12.1113 -9.45092 4
      vertex 8.3 19.15 4
      vertex 11.1435 -10.263 4
    endloop
  endfacet
  facet normal -0 0 1
    outer loop
      vertex 8.3 19.15 4
      vertex 10.1214 19.0056 4
      vertex 9.05 19.6751 4
    endloop
  endfacet
  facet normal 0 0 1
    outer loop
      vertex 11.1435 -10.263 4
      vertex 8.3 19.15 4
      vertex 10.1214 -11.0056 4
    endloop
  endfacet
  facet normal 0 0 1
    outer loop
      vertex 10.1214 -11.0056 4
      vertex 8.3 19.15 4
      vertex 9.05 -11.6751 4
    endloop
  endfacet
  facet normal 0 0 1
    outer loop
      vertex 7.93452 20.2682 4
      vertex 8.3 19.15 4
      vertex 9.05 19.6751 4
    endloop
  endfacet
  facet normal 0 0 1
    outer loop
      vertex 6.78038 20.782 4
      vertex 8.3 19.15 4
      vertex 7.93452 20.2682 4
    endloop
  endfacet
  facet normal 0 0 1
    outer loop
      vertex 5.59321 21.2141 4
      vertex 8.3 19.15 4
      vertex 6.78038 20.782 4
    endloop
  endfacet
  facet normal 0 0 1
    outer loop
      vertex 4.37879 21.5624 4
      vertex 8.3 19.15 4
      vertex 5.59321 21.2141 4
    endloop
  endfacet
  facet normal 0 0 1
    outer loop
      vertex 3.14303 21.825 4
      vertex 8.3 19.15 4
      vertex 4.37879 21.5624 4
    endloop
  endfacet
  facet normal 0 0 1
    outer loop
      vertex 1.89196 22.0008 4
      vertex 8.3 19.15 4
      vertex 3.14303 21.825 4
    endloop
  endfacet
  facet normal 0 0 1
    outer loop
      vertex 0.63168 22.089 4
      vertex 8.3 19.15 4
      vertex 1.89196 22.0008 4
    endloop
  endfacet
  facet normal -0 0 1
    outer loop
      vertex -0.63168 22.089 4
      vertex 8.3 19.15 4
      vertex 0.63168 22.089 4
    endloop
  endfacet
  facet normal 0 0 1
    outer loop
      vertex -8.3 19.15 4
      vertex -0.63168 22.089 4
      vertex -1.89196 22.0008 4
    endloop
  endfacet
  facet normal 0 0 1
    outer loop
      vertex -8.3 19.15 4
      vertex -1.89196 22.0008 4
      vertex -3.14303 21.825 4
    endloop
  endfacet
  facet normal 0 0 1
    outer loop
      vertex -8.3 19.15 4
      vertex -3.14303 21.825 4
      vertex -4.37879 21.5624 4
    endloop
  endfacet
  facet normal 0 0 1
    outer loop
      vertex -8.3 19.15 4
      vertex -4.37879 21.5624 4
      vertex -5.59321 21.2141 4
    endloop
  endfacet
  facet normal 0 0 1
    outer loop
      vertex -8.3 19.15 4
      vertex -5.59321 21.2141 4
      vertex -6.78038 20.782 4
    endloop
  endfacet
  facet normal 0 0 1
    outer loop
      vertex -8.3 19.15 4
      vertex -6.78038 20.782 4
      vertex -7.93452 20.2682 4
    endloop
  endfacet
  facet normal 0 0 1
    outer loop
      vertex -0.63168 22.089 4
      vertex -8.3 19.15 4
      vertex 8.3 19.15 4
    endloop
  endfacet
  facet normal -0 0 1
    outer loop
      vertex -9.05 19.6751 4
      vertex -8.3 19.15 4
      vertex -7.93452 20.2682 4
    endloop
  endfacet
  facet normal 0 0 1
    outer loop
      vertex -10.1214 19.0056 4
      vertex -8.3 19.15 4
      vertex -9.05 19.6751 4
    endloop
  endfacet
  facet normal 0 0 1
    outer loop
      vertex -11.1435 18.263 4
      vertex -8.3 19.15 4
      vertex -10.1214 19.0056 4
    endloop
  endfacet
  facet normal 0 0 1
    outer loop
      vertex -8.3 19.15 4
      vertex -10.1214 -11.0056 4
      vertex -8.3 -12.0738 4
    endloop
  endfacet
  facet normal 0 0 1
    outer loop
      vertex -8.3 -12.0738 4
      vertex -10.1214 -11.0056 4
      vertex -9.05 -11.6751 4
    endloop
  endfacet
  facet normal 0 0 1
    outer loop
      vertex -12.1113 17.4509 4
      vertex -8.3 19.15 4
      vertex -11.1435 18.263 4
    endloop
  endfacet
  facet normal 0 0 1
    outer loop
      vertex -8.3 19.15 4
      vertex -11.1435 -10.263 4
      vertex -10.1214 -11.0056 4
    endloop
  endfacet
  facet normal 0 0 1
    outer loop
      vertex -13.0201 16.5733 4
      vertex -8.3 19.15 4
      vertex -12.1113 17.4509 4
    endloop
  endfacet
  facet normal 0 0 1
    outer loop
      vertex -8.3 19.15 4
      vertex -12.1113 -9.45092 4
      vertex -11.1435 -10.263 4
    endloop
  endfacet
  facet normal 0 0 1
    outer loop
      vertex -13.8654 15.6345 4
      vertex -8.3 19.15 4
      vertex -13.0201 16.5733 4
    endloop
  endfacet
  facet normal 0 0 1
    outer loop
      vertex -8.3 19.15 4
      vertex -13.0201 -8.57332 4
      vertex -12.1113 -9.45092 4
    endloop
  endfacet
  facet normal 0 0 1
    outer loop
      vertex -14.6432 14.6389 4
      vertex -8.3 19.15 4
      vertex -13.8654 15.6345 4
    endloop
  endfacet
  facet normal 0 0 1
    outer loop
      vertex -8.3 19.15 4
      vertex -13.8654 -7.63446 4
      vertex -13.0201 -8.57332 4
    endloop
  endfacet
  facet normal 0 0 1
    outer loop
      vertex -15.3497 13.5915 4
      vertex -8.3 19.15 4
      vertex -14.6432 14.6389 4
    endloop
  endfacet
  facet normal 0 0 1
    outer loop
      vertex -8.3 19.15 4
      vertex -14.6432 -6.63891 4
      vertex -13.8654 -7.63446 4
    endloop
  endfacet
  facet normal 0 0 1
    outer loop
      vertex -15.9814 12.4974 4
      vertex -8.3 19.15 4
      vertex -15.3497 13.5915 4
    endloop
  endfacet
  facet normal 0 0 1
    outer loop
      vertex -8.3 19.15 4
      vertex -15.3497 -5.59154 4
      vertex -14.6432 -6.63891 4
    endloop
  endfacet
  facet normal 0 0 1
    outer loop
      vertex -16.5352 11.3619 4
      vertex -8.3 19.15 4
      vertex -15.9814 12.4974 4
    endloop
  endfacet
  facet normal 0 0 1
    outer loop
      vertex -8.3 19.15 4
      vertex -15.9814 -4.49743 4
      vertex -15.3497 -5.59154 4
    endloop
  endfacet
  facet normal 0 0 1
    outer loop
      vertex -17.0084 10.1906 4
      vertex -8.3 19.15 4
      vertex -16.5352 11.3619 4
    endloop
  endfacet
  facet normal 0 0 1
    outer loop
      vertex -8.3 19.15 4
      vertex -16.5352 -3.36193 4
      vertex -15.9814 -4.49743 4
    endloop
  endfacet
  facet normal 0 0 1
    outer loop
      vertex -17.3988 8.98904 4
      vertex -8.3 19.15 4
      vertex -17.0084 10.1906 4
    endloop
  endfacet
  facet normal 0 0 1
    outer loop
      vertex -8.3 19.15 4
      vertex -17.0084 -2.19056 4
      vertex -16.5352 -3.36193 4
    endloop
  endfacet
  facet normal 0 0 1
    outer loop
      vertex -17.7045 7.7632 4
      vertex -8.3 19.15 4
      vertex -17.3988 8.98904 4
    endloop
  endfacet
  facet normal 0 0 1
    outer loop
      vertex -8.3 19.15 4
      vertex -17.3988 -0.989036 4
      vertex -17.0084 -2.19056 4
    endloop
  endfacet
  facet normal 0 0 1
    outer loop
      vertex -17.9239 6.51903 4
      vertex -8.3 19.15 4
      vertex -17.7045 7.7632 4
    endloop
  endfacet
  facet normal 0 0 1
    outer loop
      vertex -8.3 19.15 4
      vertex -17.7045 0.236799 4
      vertex -17.3988 -0.989036 4
    endloop
  endfacet
  facet normal 0 0 1
    outer loop
      vertex -18.0559 5.26259 4
      vertex -8.3 19.15 4
      vertex -17.9239 6.51903 4
    endloop
  endfacet
  facet normal 0 0 1
    outer loop
      vertex -8.3 19.15 4
      vertex -17.9239 1.48097 4
      vertex -17.7045 0.236799 4
    endloop
  endfacet
  facet normal 0 0 1
    outer loop
      vertex -8.3 19.15 4
      vertex -18.0559 5.26259 4
      vertex -17.9239 1.48097 4
    endloop
  endfacet
  facet normal 0 0 1
    outer loop
      vertex -18.0559 5.26259 4
      vertex -18.0559 2.73741 4
      vertex -17.9239 1.48097 4
    endloop
  endfacet
  facet normal 0 -0 1
    outer loop
      vertex -18.0559 2.73741 4
      vertex -18.0559 5.26259 4
      vertex -18.1 4 4
    endloop
  endfacet
  facet normal 0 0 1
    outer loop
      vertex 9.05 -11.6751 4
      vertex 8.3 19.15 4
      vertex 8.3 -12.0738 4
    endloop
  endfacet
  facet normal -0.951057 0.309017 0
    outer loop
      vertex -17.3988 8.98904 0
      vertex -17.0084 10.1906 4
      vertex -17.0084 10.1906 0
    endloop
  endfacet
  facet normal -0.951057 0.309017 0
    outer loop
      vertex -17.0084 10.1906 4
      vertex -17.3988 8.98904 0
      vertex -17.3988 8.98904 4
    endloop
  endfacet
  facet normal -0.984808 0.173647 0
    outer loop
      vertex -17.9239 6.51903 0
      vertex -17.7045 7.7632 4
      vertex -17.7045 7.7632 0
    endloop
  endfacet
  facet normal -0.984808 0.173647 0
    outer loop
      vertex -17.7045 7.7632 4
      vertex -17.9239 6.51903 0
      vertex -17.9239 6.51903 4
    endloop
  endfacet
  facet normal -0.829037 0.559193 0
    outer loop
      vertex -15.3497 13.5915 0
      vertex -14.6432 14.6389 4
      vertex -14.6432 14.6389 0
    endloop
  endfacet
  facet normal -0.829037 0.559193 0
    outer loop
      vertex -14.6432 14.6389 4
      vertex -15.3497 13.5915 0
      vertex -15.3497 13.5915 4
    endloop
  endfacet
  facet normal -0.275636 0.961262 0
    outer loop
      vertex -4.37879 21.5624 0
      vertex -5.59321 21.2141 4
      vertex -4.37879 21.5624 4
    endloop
  endfacet
  facet normal -0.275636 0.961262 0
    outer loop
      vertex -5.59321 21.2141 4
      vertex -4.37879 21.5624 0
      vertex -5.59321 21.2141 0
    endloop
  endfacet
  facet normal -0.0697561 0.997564 0
    outer loop
      vertex -0.63168 22.089 0
      vertex -1.89196 22.0008 4
      vertex -0.63168 22.089 4
    endloop
  endfacet
  facet normal -0.0697561 0.997564 0
    outer loop
      vertex -1.89196 22.0008 4
      vertex -0.63168 22.089 0
      vertex -1.89196 22.0008 0
    endloop
  endfacet
  facet normal -0.529919 0.848048 0
    outer loop
      vertex -9.05 19.6751 0
      vertex -10.1214 19.0056 4
      vertex -9.05 19.6751 4
    endloop
  endfacet
  facet normal -0.529919 0.848048 0
    outer loop
      vertex -10.1214 19.0056 4
      vertex -9.05 19.6751 0
      vertex -10.1214 19.0056 0
    endloop
  endfacet
  facet normal -0.469472 0.882947 0
    outer loop
      vertex -7.93452 20.2682 0
      vertex -9.05 19.6751 4
      vertex -7.93452 20.2682 4
    endloop
  endfacet
  facet normal -0.469472 0.882947 0
    outer loop
      vertex -9.05 19.6751 4
      vertex -7.93452 20.2682 0
      vertex -9.05 19.6751 0
    endloop
  endfacet
  facet normal -0.694658 0.71934 0
    outer loop
      vertex -12.1113 17.4509 0
      vertex -13.0201 16.5733 4
      vertex -12.1113 17.4509 4
    endloop
  endfacet
  facet normal -0.694658 0.71934 0
    outer loop
      vertex -13.0201 16.5733 4
      vertex -12.1113 17.4509 0
      vertex -13.0201 16.5733 0
    endloop
  endfacet
  facet normal 0.999391 0.0348992 0
    outer loop
      vertex 18.1 4 4
      vertex 18.0559 5.26259 0
      vertex 18.0559 5.26259 4
    endloop
  endfacet
  facet normal 0.999391 0.0348992 0
    outer loop
      vertex 18.0559 5.26259 0
      vertex 18.1 4 4
      vertex 18.1 4 0
    endloop
  endfacet
  facet normal 0.951057 -0.309017 0
    outer loop
      vertex 17.0084 -2.19056 4
      vertex 17.3988 -0.989036 0
      vertex 17.3988 -0.989036 4
    endloop
  endfacet
  facet normal 0.951057 -0.309017 0
    outer loop
      vertex 17.3988 -0.989036 0
      vertex 17.0084 -2.19056 4
      vertex 17.0084 -2.19056 0
    endloop
  endfacet
  facet normal 0 0 -1
    outer loop
      vertex 6.3 -16 0
      vertex 8.3 -12.0738 0
      vertex 8.3 -23.15 0
    endloop
  endfacet
  facet normal 0 0 -1
    outer loop
      vertex 6.3 16.3 0
      vertex 8.3 -12.0738 0
      vertex 6.3 -16 0
    endloop
  endfacet
  facet normal 0 0 -1
    outer loop
      vertex 8.3 -12.0738 0
      vertex 6.3 16.3 0
      vertex 7.93452 20.2682 0
    endloop
  endfacet
  facet normal 0 0 -1
    outer loop
      vertex 8.3 -23.15 0
      vertex -6.3 -16 0
      vertex 6.3 -16 0
    endloop
  endfacet
  facet normal 0 0 -1
    outer loop
      vertex -8.3 -12.0738 0
      vertex -6.3 16.3 0
      vertex -6.3 -16 0
    endloop
  endfacet
  facet normal 0 0 -1
    outer loop
      vertex -10.1214 -11.0056 0
      vertex -6.3 16.3 0
      vertex -8.3 -12.0738 0
    endloop
  endfacet
  facet normal 0 0 -1
    outer loop
      vertex -8.3 -23.15 0
      vertex -6.3 -16 0
      vertex 8.3 -23.15 0
    endloop
  endfacet
  facet normal 0 0 -1
    outer loop
      vertex -8.3 -12.0738 0
      vertex -6.3 -16 0
      vertex -8.3 -23.15 0
    endloop
  endfacet
  facet normal 0 0 -1
    outer loop
      vertex -6.3 16.3 0
      vertex -7.93452 20.2682 0
      vertex -6.78038 20.782 0
    endloop
  endfacet
  facet normal 0 0 -1
    outer loop
      vertex -10.1214 -11.0056 0
      vertex -8.3 -12.0738 0
      vertex -9.05 -11.6751 0
    endloop
  endfacet
  facet normal 0 0 -1
    outer loop
      vertex -6.3 16.3 0
      vertex -9.05 19.6751 0
      vertex -7.93452 20.2682 0
    endloop
  endfacet
  facet normal 0 0 -1
    outer loop
      vertex -11.1435 -10.263 0
      vertex -6.3 16.3 0
      vertex -10.1214 -11.0056 0
    endloop
  endfacet
  facet normal 0 0 -1
    outer loop
      vertex -6.3 16.3 0
      vertex -10.1214 19.0056 0
      vertex -9.05 19.6751 0
    endloop
  endfacet
  facet normal 0 0 -1
    outer loop
      vertex -12.1113 -9.45092 0
      vertex -6.3 16.3 0
      vertex -11.1435 -10.263 0
    endloop
  endfacet
  facet normal 0 0 -1
    outer loop
      vertex -6.3 16.3 0
      vertex -11.1435 18.263 0
      vertex -10.1214 19.0056 0
    endloop
  endfacet
  facet normal 0 0 -1
    outer loop
      vertex -13.0201 -8.57332 0
      vertex -6.3 16.3 0
      vertex -12.1113 -9.45092 0
    endloop
  endfacet
  facet normal 0 0 -1
    outer loop
      vertex -6.3 16.3 0
      vertex -12.1113 17.4509 0
      vertex -11.1435 18.263 0
    endloop
  endfacet
  facet normal 0 0 -1
    outer loop
      vertex -13.8654 -7.63446 0
      vertex -6.3 16.3 0
      vertex -13.0201 -8.57332 0
    endloop
  endfacet
  facet normal 0 0 -1
    outer loop
      vertex -6.3 16.3 0
      vertex -13.0201 16.5733 0
      vertex -12.1113 17.4509 0
    endloop
  endfacet
  facet normal 0 0 -1
    outer loop
      vertex -14.6432 -6.63891 0
      vertex -6.3 16.3 0
      vertex -13.8654 -7.63446 0
    endloop
  endfacet
  facet normal -0 0 -1
    outer loop
      vertex -6.3 16.3 0
      vertex -13.8654 15.6345 0
      vertex -13.0201 16.5733 0
    endloop
  endfacet
  facet normal 0 0 -1
    outer loop
      vertex -15.3497 -5.59154 0
      vertex -6.3 16.3 0
      vertex -14.6432 -6.63891 0
    endloop
  endfacet
  facet normal 0 0 -1
    outer loop
      vertex -6.3 16.3 0
      vertex -14.6432 14.6389 0
      vertex -13.8654 15.6345 0
    endloop
  endfacet
  facet normal 0 0 -1
    outer loop
      vertex -15.9814 -4.49743 0
      vertex -6.3 16.3 0
      vertex -15.3497 -5.59154 0
    endloop
  endfacet
  facet normal 0 0 -1
    outer loop
      vertex -6.3 16.3 0
      vertex -15.3497 13.5915 0
      vertex -14.6432 14.6389 0
    endloop
  endfacet
  facet normal 0 0 -1
    outer loop
      vertex -16.5352 -3.36193 0
      vertex -6.3 16.3 0
      vertex -15.9814 -4.49743 0
    endloop
  endfacet
  facet normal 0 0 -1
    outer loop
      vertex -6.3 16.3 0
      vertex -15.9814 12.4974 0
      vertex -15.3497 13.5915 0
    endloop
  endfacet
  facet normal 0 0 -1
    outer loop
      vertex -17.0084 -2.19056 0
      vertex -6.3 16.3 0
      vertex -16.5352 -3.36193 0
    endloop
  endfacet
  facet normal 0 0 -1
    outer loop
      vertex -6.3 16.3 0
      vertex -16.5352 11.3619 0
      vertex -15.9814 12.4974 0
    endloop
  endfacet
  facet normal 0 0 -1
    outer loop
      vertex -17.3988 -0.989036 0
      vertex -6.3 16.3 0
      vertex -17.0084 -2.19056 0
    endloop
  endfacet
  facet normal 0 0 -1
    outer loop
      vertex -6.3 16.3 0
      vertex -17.0084 10.1906 0
      vertex -16.5352 11.3619 0
    endloop
  endfacet
  facet normal 0 0 -1
    outer loop
      vertex -17.7045 0.236799 0
      vertex -6.3 16.3 0
      vertex -17.3988 -0.989036 0
    endloop
  endfacet
  facet normal 0 0 -1
    outer loop
      vertex -6.3 16.3 0
      vertex -17.3988 8.98904 0
      vertex -17.0084 10.1906 0
    endloop
  endfacet
  facet normal 0 0 -1
    outer loop
      vertex -17.9239 1.48097 0
      vertex -6.3 16.3 0
      vertex -17.7045 0.236799 0
    endloop
  endfacet
  facet normal 0 0 -1
    outer loop
      vertex -6.3 16.3 0
      vertex -17.7045 7.7632 0
      vertex -17.3988 8.98904 0
    endloop
  endfacet
  facet normal 0 0 -1
    outer loop
      vertex -18.0559 2.73741 0
      vertex -6.3 16.3 0
      vertex -17.9239 1.48097 0
    endloop
  endfacet
  facet normal 0 0 -1
    outer loop
      vertex -6.3 16.3 0
      vertex -17.9239 6.51903 0
      vertex -17.7045 7.7632 0
    endloop
  endfacet
  facet normal 0 0 -1
    outer loop
      vertex -18.1 4 0
      vertex -6.3 16.3 0
      vertex -18.0559 2.73741 0
    endloop
  endfacet
  facet normal 0 0 -1
    outer loop
      vertex -6.3 16.3 0
      vertex -18.0559 5.26259 0
      vertex -17.9239 6.51903 0
    endloop
  endfacet
  facet normal 0 0 -1
    outer loop
      vertex -6.3 16.3 0
      vertex -18.1 4 0
      vertex -18.0559 5.26259 0
    endloop
  endfacet
  facet normal 0 0 -1
    outer loop
      vertex 18.0559 2.73741 0
      vertex 18.0559 5.26259 0
      vertex 18.1 4 0
    endloop
  endfacet
  facet normal 0 0 -1
    outer loop
      vertex 17.9239 1.48097 0
      vertex 18.0559 5.26259 0
      vertex 18.0559 2.73741 0
    endloop
  endfacet
  facet normal 0 0 -1
    outer loop
      vertex 17.9239 1.48097 0
      vertex 17.9239 6.51903 0
      vertex 18.0559 5.26259 0
    endloop
  endfacet
  facet normal 0 0 -1
    outer loop
      vertex 17.7045 0.236799 0
      vertex 17.9239 6.51903 0
      vertex 17.9239 1.48097 0
    endloop
  endfacet
  facet normal 0 0 -1
    outer loop
      vertex 17.7045 0.236799 0
      vertex 17.7045 7.7632 0
      vertex 17.9239 6.51903 0
    endloop
  endfacet
  facet normal 0 0 -1
    outer loop
      vertex 17.3988 -0.989036 0
      vertex 17.7045 7.7632 0
      vertex 17.7045 0.236799 0
    endloop
  endfacet
  facet normal 0 0 -1
    outer loop
      vertex 17.3988 -0.989036 0
      vertex 17.3988 8.98904 0
      vertex 17.7045 7.7632 0
    endloop
  endfacet
  facet normal 0 0 -1
    outer loop
      vertex 17.0084 -2.19056 0
      vertex 17.3988 8.98904 0
      vertex 17.3988 -0.989036 0
    endloop
  endfacet
  facet normal 0 0 -1
    outer loop
      vertex 17.0084 -2.19056 0
      vertex 17.0084 10.1906 0
      vertex 17.3988 8.98904 0
    endloop
  endfacet
  facet normal 0 0 -1
    outer loop
      vertex 16.5352 -3.36193 0
      vertex 17.0084 10.1906 0
      vertex 17.0084 -2.19056 0
    endloop
  endfacet
  facet normal 0 0 -1
    outer loop
      vertex 16.5352 -3.36193 0
      vertex 16.5352 11.3619 0
      vertex 17.0084 10.1906 0
    endloop
  endfacet
  facet normal 0 0 -1
    outer loop
      vertex 15.9814 -4.49743 0
      vertex 16.5352 11.3619 0
      vertex 16.5352 -3.36193 0
    endloop
  endfacet
  facet normal 0 0 -1
    outer loop
      vertex 15.9814 -4.49743 0
      vertex 15.9814 12.4974 0
      vertex 16.5352 11.3619 0
    endloop
  endfacet
  facet normal 0 0 -1
    outer loop
      vertex 15.3497 -5.59154 0
      vertex 15.9814 12.4974 0
      vertex 15.9814 -4.49743 0
    endloop
  endfacet
  facet normal 0 0 -1
    outer loop
      vertex 15.3497 -5.59154 0
      vertex 15.3497 13.5915 0
      vertex 15.9814 12.4974 0
    endloop
  endfacet
  facet normal 0 0 -1
    outer loop
      vertex 14.6432 -6.63891 0
      vertex 15.3497 13.5915 0
      vertex 15.3497 -5.59154 0
    endloop
  endfacet
  facet normal 0 0 -1
    outer loop
      vertex 14.6432 -6.63891 0
      vertex 14.6432 14.6389 0
      vertex 15.3497 13.5915 0
    endloop
  endfacet
  facet normal 0 0 -1
    outer loop
      vertex 13.8654 -7.63446 0
      vertex 14.6432 14.6389 0
      vertex 14.6432 -6.63891 0
    endloop
  endfacet
  facet normal 0 0 -1
    outer loop
      vertex 13.8654 -7.63446 0
      vertex 13.8654 15.6345 0
      vertex 14.6432 14.6389 0
    endloop
  endfacet
  facet normal 0 0 -1
    outer loop
      vertex 13.0201 -8.57332 0
      vertex 13.8654 15.6345 0
      vertex 13.8654 -7.63446 0
    endloop
  endfacet
  facet normal 0 0 -1
    outer loop
      vertex 13.0201 -8.57332 0
      vertex 13.0201 16.5733 0
      vertex 13.8654 15.6345 0
    endloop
  endfacet
  facet normal 0 0 -1
    outer loop
      vertex 12.1113 -9.45092 0
      vertex 13.0201 16.5733 0
      vertex 13.0201 -8.57332 0
    endloop
  endfacet
  facet normal 0 0 -1
    outer loop
      vertex 12.1113 -9.45092 0
      vertex 12.1113 17.4509 0
      vertex 13.0201 16.5733 0
    endloop
  endfacet
  facet normal 0 0 -1
    outer loop
      vertex 11.1435 -10.263 0
      vertex 12.1113 17.4509 0
      vertex 12.1113 -9.45092 0
    endloop
  endfacet
  facet normal 0 0 -1
    outer loop
      vertex 11.1435 -10.263 0
      vertex 11.1435 18.263 0
      vertex 12.1113 17.4509 0
    endloop
  endfacet
  facet normal 0 0 -1
    outer loop
      vertex 10.1214 -11.0056 0
      vertex 11.1435 18.263 0
      vertex 11.1435 -10.263 0
    endloop
  endfacet
  facet normal 0 0 -1
    outer loop
      vertex 10.1214 -11.0056 0
      vertex 10.1214 19.0056 0
      vertex 11.1435 18.263 0
    endloop
  endfacet
  facet normal 0 0 -1
    outer loop
      vertex 8.3 -12.0738 0
      vertex 10.1214 -11.0056 0
      vertex 9.05 -11.6751 0
    endloop
  endfacet
  facet normal -0 0 -1
    outer loop
      vertex 10.1214 -11.0056 0
      vertex 8.3 -12.0738 0
      vertex 10.1214 19.0056 0
    endloop
  endfacet
  facet normal -0 0 -1
    outer loop
      vertex 10.1214 19.0056 0
      vertex 8.3 -12.0738 0
      vertex 9.05 19.6751 0
    endloop
  endfacet
  facet normal -0 0 -1
    outer loop
      vertex 9.05 19.6751 0
      vertex 8.3 -12.0738 0
      vertex 7.93452 20.2682 0
    endloop
  endfacet
  facet normal -0 0 -1
    outer loop
      vertex 7.93452 20.2682 0
      vertex 6.3 16.3 0
      vertex 6.78038 20.782 0
    endloop
  endfacet
  facet normal 0 0 -1
    outer loop
      vertex 6.3 16.3 0
      vertex 5.59321 21.2141 0
      vertex 6.78038 20.782 0
    endloop
  endfacet
  facet normal 0 0 -1
    outer loop
      vertex 6.3 16.3 0
      vertex 4.37879 21.5624 0
      vertex 5.59321 21.2141 0
    endloop
  endfacet
  facet normal 0 0 -1
    outer loop
      vertex 6.3 16.3 0
      vertex 3.14303 21.825 0
      vertex 4.37879 21.5624 0
    endloop
  endfacet
  facet normal 0 0 -1
    outer loop
      vertex 6.3 16.3 0
      vertex 1.89196 22.0008 0
      vertex 3.14303 21.825 0
    endloop
  endfacet
  facet normal 0 0 -1
    outer loop
      vertex 6.3 16.3 0
      vertex 0.63168 22.089 0
      vertex 1.89196 22.0008 0
    endloop
  endfacet
  facet normal 0 0 -1
    outer loop
      vertex 6.3 16.3 0
      vertex -0.63168 22.089 0
      vertex 0.63168 22.089 0
    endloop
  endfacet
  facet normal 0 0 -1
    outer loop
      vertex -6.3 16.3 0
      vertex -0.63168 22.089 0
      vertex 6.3 16.3 0
    endloop
  endfacet
  facet normal 0 0 -1
    outer loop
      vertex -0.63168 22.089 0
      vertex -6.3 16.3 0
      vertex -1.89196 22.0008 0
    endloop
  endfacet
  facet normal 0 0 -1
    outer loop
      vertex -1.89196 22.0008 0
      vertex -6.3 16.3 0
      vertex -3.14303 21.825 0
    endloop
  endfacet
  facet normal 0 0 -1
    outer loop
      vertex -3.14303 21.825 0
      vertex -6.3 16.3 0
      vertex -4.37879 21.5624 0
    endloop
  endfacet
  facet normal 0 0 -1
    outer loop
      vertex -4.37879 21.5624 0
      vertex -6.3 16.3 0
      vertex -5.59321 21.2141 0
    endloop
  endfacet
  facet normal 0 0 -1
    outer loop
      vertex -5.59321 21.2141 0
      vertex -6.3 16.3 0
      vertex -6.78038 20.782 0
    endloop
  endfacet
  facet normal 0.927184 0.374607 0
    outer loop
      vertex 17.0084 10.1906 4
      vertex 16.5352 11.3619 0
      vertex 16.5352 11.3619 4
    endloop
  endfacet
  facet normal 0.927184 0.374607 0
    outer loop
      vertex 16.5352 11.3619 0
      vertex 17.0084 10.1906 4
      vertex 17.0084 10.1906 0
    endloop
  endfacet
  facet normal 0.951057 0.309017 0
    outer loop
      vertex 17.3988 8.98904 4
      vertex 17.0084 10.1906 0
      vertex 17.0084 10.1906 4
    endloop
  endfacet
  facet normal 0.951057 0.309017 0
    outer loop
      vertex 17.0084 10.1906 0
      vertex 17.3988 8.98904 4
      vertex 17.3988 8.98904 0
    endloop
  endfacet
  facet normal 0.970296 0.241922 0
    outer loop
      vertex 17.7045 7.7632 4
      vertex 17.3988 8.98904 0
      vertex 17.3988 8.98904 4
    endloop
  endfacet
  facet normal 0.970296 0.241922 0
    outer loop
      vertex 17.3988 8.98904 0
      vertex 17.7045 7.7632 4
      vertex 17.7045 7.7632 0
    endloop
  endfacet
  facet normal 0.866026 0.5 0
    outer loop
      vertex 15.9814 12.4974 4
      vertex 15.3497 13.5915 0
      vertex 15.3497 13.5915 4
    endloop
  endfacet
  facet normal 0.866026 0.5 0
    outer loop
      vertex 15.3497 13.5915 0
      vertex 15.9814 12.4974 4
      vertex 15.9814 12.4974 0
    endloop
  endfacet
  facet normal 0.694658 0.71934 -0
    outer loop
      vertex 13.0201 16.5733 0
      vertex 12.1113 17.4509 4
      vertex 13.0201 16.5733 4
    endloop
  endfacet
  facet normal 0.694658 0.71934 0
    outer loop
      vertex 12.1113 17.4509 4
      vertex 13.0201 16.5733 0
      vertex 12.1113 17.4509 0
    endloop
  endfacet
  facet normal 0.788011 0.615661 0
    outer loop
      vertex 14.6432 14.6389 4
      vertex 13.8654 15.6345 0
      vertex 13.8654 15.6345 4
    endloop
  endfacet
  facet normal 0.788011 0.615661 0
    outer loop
      vertex 13.8654 15.6345 0
      vertex 14.6432 14.6389 4
      vertex 14.6432 14.6389 0
    endloop
  endfacet
  facet normal 0.207912 0.978147 -0
    outer loop
      vertex 4.37879 21.5624 0
      vertex 3.14303 21.825 4
      vertex 4.37879 21.5624 4
    endloop
  endfacet
  facet normal 0.207912 0.978147 0
    outer loop
      vertex 3.14303 21.825 4
      vertex 4.37879 21.5624 0
      vertex 3.14303 21.825 0
    endloop
  endfacet
  facet normal 0.469472 0.882947 -0
    outer loop
      vertex 9.05 19.6751 0
      vertex 7.93452 20.2682 4
      vertex 9.05 19.6751 4
    endloop
  endfacet
  facet normal 0.469472 0.882947 0
    outer loop
      vertex 7.93452 20.2682 4
      vertex 9.05 19.6751 0
      vertex 7.93452 20.2682 0
    endloop
  endfacet
  facet normal 0.406737 0.913546 -0
    outer loop
      vertex 7.93452 20.2682 0
      vertex 6.78038 20.782 4
      vertex 7.93452 20.2682 4
    endloop
  endfacet
  facet normal 0.406737 0.913546 0
    outer loop
      vertex 6.78038 20.782 4
      vertex 7.93452 20.2682 0
      vertex 6.78038 20.782 0
    endloop
  endfacet
  facet normal 0.642788 0.766044 -0
    outer loop
      vertex 12.1113 17.4509 0
      vertex 11.1435 18.263 4
      vertex 12.1113 17.4509 4
    endloop
  endfacet
  facet normal 0.642788 0.766044 0
    outer loop
      vertex 11.1435 18.263 4
      vertex 12.1113 17.4509 0
      vertex 11.1435 18.263 0
    endloop
  endfacet
  facet normal -0.970296 0.241922 0
    outer loop
      vertex -17.7045 7.7632 0
      vertex -17.3988 8.98904 4
      vertex -17.3988 8.98904 0
    endloop
  endfacet
  facet normal -0.970296 0.241922 0
    outer loop
      vertex -17.3988 8.98904 4
      vertex -17.7045 7.7632 0
      vertex -17.7045 7.7632 4
    endloop
  endfacet
  facet normal -0.866026 0.5 0
    outer loop
      vertex -15.9814 12.4974 0
      vertex -15.3497 13.5915 4
      vertex -15.3497 13.5915 0
    endloop
  endfacet
  facet normal -0.866026 0.5 0
    outer loop
      vertex -15.3497 13.5915 4
      vertex -15.9814 12.4974 0
      vertex -15.9814 12.4974 4
    endloop
  endfacet
  facet normal -0.898794 0.438371 0
    outer loop
      vertex -16.5352 11.3619 0
      vertex -15.9814 12.4974 4
      vertex -15.9814 12.4974 0
    endloop
  endfacet
  facet normal -0.898794 0.438371 0
    outer loop
      vertex -15.9814 12.4974 4
      vertex -16.5352 11.3619 0
      vertex -16.5352 11.3619 4
    endloop
  endfacet
  facet normal -0.788011 0.615661 0
    outer loop
      vertex -14.6432 14.6389 0
      vertex -13.8654 15.6345 4
      vertex -13.8654 15.6345 0
    endloop
  endfacet
  facet normal -0.788011 0.615661 0
    outer loop
      vertex -13.8654 15.6345 4
      vertex -14.6432 14.6389 0
      vertex -14.6432 14.6389 4
    endloop
  endfacet
  facet normal -0.139173 0.990268 0
    outer loop
      vertex -1.89196 22.0008 0
      vertex -3.14303 21.825 4
      vertex -1.89196 22.0008 4
    endloop
  endfacet
  facet normal -0.139173 0.990268 0
    outer loop
      vertex -3.14303 21.825 4
      vertex -1.89196 22.0008 0
      vertex -3.14303 21.825 0
    endloop
  endfacet
  facet normal -0.406737 0.913546 0
    outer loop
      vertex -6.78038 20.782 0
      vertex -7.93452 20.2682 4
      vertex -6.78038 20.782 4
    endloop
  endfacet
  facet normal -0.406737 0.913546 0
    outer loop
      vertex -7.93452 20.2682 4
      vertex -6.78038 20.782 0
      vertex -7.93452 20.2682 0
    endloop
  endfacet
  facet normal -0.642788 0.766044 0
    outer loop
      vertex -11.1435 18.263 0
      vertex -12.1113 17.4509 4
      vertex -11.1435 18.263 4
    endloop
  endfacet
  facet normal -0.642788 0.766044 0
    outer loop
      vertex -12.1113 17.4509 4
      vertex -11.1435 18.263 0
      vertex -12.1113 17.4509 0
    endloop
  endfacet
  facet normal -0.587786 0.809017 0
    outer loop
      vertex -10.1214 19.0056 0
      vertex -11.1435 18.263 4
      vertex -10.1214 19.0056 4
    endloop
  endfacet
  facet normal -0.587786 0.809017 0
    outer loop
      vertex -11.1435 18.263 4
      vertex -10.1214 19.0056 0
      vertex -11.1435 18.263 0
    endloop
  endfacet
  facet normal 0.994522 -0.104528 0
    outer loop
      vertex 17.9239 1.48097 4
      vertex 18.0559 2.73741 0
      vertex 18.0559 2.73741 4
    endloop
  endfacet
  facet normal 0.994522 -0.104528 0
    outer loop
      vertex 18.0559 2.73741 0
      vertex 17.9239 1.48097 4
      vertex 17.9239 1.48097 0
    endloop
  endfacet
  facet normal 0.927184 -0.374607 0
    outer loop
      vertex 16.5352 -3.36193 4
      vertex 17.0084 -2.19056 0
      vertex 17.0084 -2.19056 4
    endloop
  endfacet
  facet normal 0.927184 -0.374607 0
    outer loop
      vertex 17.0084 -2.19056 0
      vertex 16.5352 -3.36193 4
      vertex 16.5352 -3.36193 0
    endloop
  endfacet
  facet normal 0.788011 -0.615661 0
    outer loop
      vertex 13.8654 -7.63446 4
      vertex 14.6432 -6.63891 0
      vertex 14.6432 -6.63891 4
    endloop
  endfacet
  facet normal 0.788011 -0.615661 0
    outer loop
      vertex 14.6432 -6.63891 0
      vertex 13.8654 -7.63446 4
      vertex 13.8654 -7.63446 0
    endloop
  endfacet
  facet normal 0.984808 0.173647 0
    outer loop
      vertex 17.9239 6.51903 4
      vertex 17.7045 7.7632 0
      vertex 17.7045 7.7632 4
    endloop
  endfacet
  facet normal 0.984808 0.173647 0
    outer loop
      vertex 17.7045 7.7632 0
      vertex 17.9239 6.51903 4
      vertex 17.9239 6.51903 0
    endloop
  endfacet
  facet normal 0.970296 -0.241922 0
    outer loop
      vertex 17.3988 -0.989036 4
      vertex 17.7045 0.236799 0
      vertex 17.7045 0.236799 4
    endloop
  endfacet
  facet normal 0.970296 -0.241922 0
    outer loop
      vertex 17.7045 0.236799 0
      vertex 17.3988 -0.989036 4
      vertex 17.3988 -0.989036 0
    endloop
  endfacet
  facet normal 0.829037 -0.559193 0
    outer loop
      vertex 14.6432 -6.63891 4
      vertex 15.3497 -5.59154 0
      vertex 15.3497 -5.59154 4
    endloop
  endfacet
  facet normal 0.829037 -0.559193 0
    outer loop
      vertex 15.3497 -5.59154 0
      vertex 14.6432 -6.63891 4
      vertex 14.6432 -6.63891 0
    endloop
  endfacet
  facet normal -0.994522 -0.104528 0
    outer loop
      vertex -17.9239 1.48097 0
      vertex -18.0559 2.73741 4
      vertex -18.0559 2.73741 0
    endloop
  endfacet
  facet normal -0.994522 -0.104528 0
    outer loop
      vertex -18.0559 2.73741 4
      vertex -17.9239 1.48097 0
      vertex -17.9239 1.48097 4
    endloop
  endfacet
  facet normal -0.999391 -0.0348992 0
    outer loop
      vertex -18.0559 2.73741 0
      vertex -18.1 4 4
      vertex -18.1 4 0
    endloop
  endfacet
  facet normal -0.999391 -0.0348992 0
    outer loop
      vertex -18.1 4 4
      vertex -18.0559 2.73741 0
      vertex -18.0559 2.73741 4
    endloop
  endfacet
  facet normal -0.951057 -0.309017 0
    outer loop
      vertex -17.0084 -2.19056 0
      vertex -17.3988 -0.989036 4
      vertex -17.3988 -0.989036 0
    endloop
  endfacet
  facet normal -0.951057 -0.309017 0
    outer loop
      vertex -17.3988 -0.989036 4
      vertex -17.0084 -2.19056 0
      vertex -17.0084 -2.19056 4
    endloop
  endfacet
  facet normal -0.927184 -0.374607 0
    outer loop
      vertex -16.5352 -3.36193 0
      vertex -17.0084 -2.19056 4
      vertex -17.0084 -2.19056 0
    endloop
  endfacet
  facet normal -0.927184 -0.374607 0
    outer loop
      vertex -17.0084 -2.19056 4
      vertex -16.5352 -3.36193 0
      vertex -16.5352 -3.36193 4
    endloop
  endfacet
  facet normal 0.984808 -0.173647 0
    outer loop
      vertex 17.7045 0.236799 4
      vertex 17.9239 1.48097 0
      vertex 17.9239 1.48097 4
    endloop
  endfacet
  facet normal 0.984808 -0.173647 0
    outer loop
      vertex 17.9239 1.48097 0
      vertex 17.7045 0.236799 4
      vertex 17.7045 0.236799 0
    endloop
  endfacet
  facet normal 0.898794 -0.438371 0
    outer loop
      vertex 15.9814 -4.49743 4
      vertex 16.5352 -3.36193 0
      vertex 16.5352 -3.36193 4
    endloop
  endfacet
  facet normal 0.898794 -0.438371 0
    outer loop
      vertex 16.5352 -3.36193 0
      vertex 15.9814 -4.49743 4
      vertex 15.9814 -4.49743 0
    endloop
  endfacet
  facet normal 0.866026 -0.5 0
    outer loop
      vertex 15.3497 -5.59154 4
      vertex 15.9814 -4.49743 0
      vertex 15.9814 -4.49743 4
    endloop
  endfacet
  facet normal 0.866026 -0.5 0
    outer loop
      vertex 15.9814 -4.49743 0
      vertex 15.3497 -5.59154 4
      vertex 15.3497 -5.59154 0
    endloop
  endfacet
  facet normal 0.529919 -0.848048 0
    outer loop
      vertex 9.05 -11.6751 0
      vertex 10.1214 -11.0056 4
      vertex 9.05 -11.6751 4
    endloop
  endfacet
  facet normal 0.529919 -0.848048 0
    outer loop
      vertex 10.1214 -11.0056 4
      vertex 9.05 -11.6751 0
      vertex 10.1214 -11.0056 0
    endloop
  endfacet
  facet normal 0.469471 -0.882948 0
    outer loop
      vertex 8.3 -12.0738 0
      vertex 9.05 -11.6751 4
      vertex 8.3 -12.0738 4
    endloop
  endfacet
  facet normal 0.469471 -0.882948 0
    outer loop
      vertex 9.05 -11.6751 4
      vertex 8.3 -12.0738 0
      vertex 9.05 -11.6751 0
    endloop
  endfacet
  facet normal 0.642788 -0.766044 0
    outer loop
      vertex 11.1435 -10.263 0
      vertex 12.1113 -9.45092 4
      vertex 11.1435 -10.263 4
    endloop
  endfacet
  facet normal 0.642788 -0.766044 0
    outer loop
      vertex 12.1113 -9.45092 4
      vertex 11.1435 -10.263 0
      vertex 12.1113 -9.45092 0
    endloop
  endfacet
  facet normal -0.642788 -0.766044 0
    outer loop
      vertex -12.1113 -9.45092 0
      vertex -11.1435 -10.263 4
      vertex -12.1113 -9.45092 4
    endloop
  endfacet
  facet normal -0.642788 -0.766044 -0
    outer loop
      vertex -11.1435 -10.263 4
      vertex -12.1113 -9.45092 0
      vertex -11.1435 -10.263 0
    endloop
  endfacet
  facet normal -0.529919 -0.848048 0
    outer loop
      vertex -10.1214 -11.0056 0
      vertex -9.05 -11.6751 4
      vertex -10.1214 -11.0056 4
    endloop
  endfacet
  facet normal -0.529919 -0.848048 -0
    outer loop
      vertex -9.05 -11.6751 4
      vertex -10.1214 -11.0056 0
      vertex -9.05 -11.6751 0
    endloop
  endfacet
  facet normal -0.898794 -0.438371 0
    outer loop
      vertex -15.9814 -4.49743 0
      vertex -16.5352 -3.36193 4
      vertex -16.5352 -3.36193 0
    endloop
  endfacet
  facet normal -0.898794 -0.438371 0
    outer loop
      vertex -16.5352 -3.36193 4
      vertex -15.9814 -4.49743 0
      vertex -15.9814 -4.49743 4
    endloop
  endfacet
  facet normal -0.743145 -0.669131 0
    outer loop
      vertex -13.0201 -8.57332 0
      vertex -13.8654 -7.63446 4
      vertex -13.8654 -7.63446 0
    endloop
  endfacet
  facet normal -0.743145 -0.669131 0
    outer loop
      vertex -13.8654 -7.63446 4
      vertex -13.0201 -8.57332 0
      vertex -13.0201 -8.57332 4
    endloop
  endfacet
  facet normal -0.788011 -0.615661 0
    outer loop
      vertex -13.8654 -7.63446 0
      vertex -14.6432 -6.63891 4
      vertex -14.6432 -6.63891 0
    endloop
  endfacet
  facet normal -0.788011 -0.615661 0
    outer loop
      vertex -14.6432 -6.63891 4
      vertex -13.8654 -7.63446 0
      vertex -13.8654 -7.63446 4
    endloop
  endfacet
  facet normal -0.829037 -0.559193 0
    outer loop
      vertex -14.6432 -6.63891 0
      vertex -15.3497 -5.59154 4
      vertex -15.3497 -5.59154 0
    endloop
  endfacet
  facet normal -0.829037 -0.559193 0
    outer loop
      vertex -15.3497 -5.59154 4
      vertex -14.6432 -6.63891 0
      vertex -14.6432 -6.63891 4
    endloop
  endfacet
  facet normal 0.587786 -0.809017 0
    outer loop
      vertex 10.1214 -11.0056 0
      vertex 11.1435 -10.263 4
      vertex 10.1214 -11.0056 4
    endloop
  endfacet
  facet normal 0.587786 -0.809017 0
    outer loop
      vertex 11.1435 -10.263 4
      vertex 10.1214 -11.0056 0
      vertex 11.1435 -10.263 0
    endloop
  endfacet
  facet normal 0.743145 -0.669131 0
    outer loop
      vertex 13.0201 -8.57332 4
      vertex 13.8654 -7.63446 0
      vertex 13.8654 -7.63446 4
    endloop
  endfacet
  facet normal 0.743145 -0.669131 0
    outer loop
      vertex 13.8654 -7.63446 0
      vertex 13.0201 -8.57332 4
      vertex 13.0201 -8.57332 0
    endloop
  endfacet
  facet normal 0.694658 -0.71934 0
    outer loop
      vertex 12.1113 -9.45092 0
      vertex 13.0201 -8.57332 4
      vertex 12.1113 -9.45092 4
    endloop
  endfacet
  facet normal 0.694658 -0.71934 0
    outer loop
      vertex 13.0201 -8.57332 4
      vertex 12.1113 -9.45092 0
      vertex 13.0201 -8.57332 0
    endloop
  endfacet
  facet normal -0.469471 -0.882948 0
    outer loop
      vertex -9.05 -11.6751 0
      vertex -8.3 -12.0738 4
      vertex -9.05 -11.6751 4
    endloop
  endfacet
  facet normal -0.469471 -0.882948 -0
    outer loop
      vertex -8.3 -12.0738 4
      vertex -9.05 -11.6751 0
      vertex -8.3 -12.0738 0
    endloop
  endfacet
  facet normal -0.587786 -0.809017 0
    outer loop
      vertex -11.1435 -10.263 0
      vertex -10.1214 -11.0056 4
      vertex -11.1435 -10.263 4
    endloop
  endfacet
  facet normal -0.587786 -0.809017 -0
    outer loop
      vertex -10.1214 -11.0056 4
      vertex -11.1435 -10.263 0
      vertex -10.1214 -11.0056 0
    endloop
  endfacet
  facet normal -0.866026 -0.5 0
    outer loop
      vertex -15.3497 -5.59154 0
      vertex -15.9814 -4.49743 4
      vertex -15.9814 -4.49743 0
    endloop
  endfacet
  facet normal -0.866026 -0.5 0
    outer loop
      vertex -15.9814 -4.49743 4
      vertex -15.3497 -5.59154 0
      vertex -15.3497 -5.59154 4
    endloop
  endfacet
  facet normal -0.970296 -0.241922 0
    outer loop
      vertex -17.3988 -0.989036 0
      vertex -17.7045 0.236799 4
      vertex -17.7045 0.236799 0
    endloop
  endfacet
  facet normal -0.970296 -0.241922 0
    outer loop
      vertex -17.7045 0.236799 4
      vertex -17.3988 -0.989036 0
      vertex -17.3988 -0.989036 4
    endloop
  endfacet
  facet normal -0.984808 -0.173647 0
    outer loop
      vertex -17.7045 0.236799 0
      vertex -17.9239 1.48097 4
      vertex -17.9239 1.48097 0
    endloop
  endfacet
  facet normal -0.984808 -0.173647 0
    outer loop
      vertex -17.9239 1.48097 4
      vertex -17.7045 0.236799 0
      vertex -17.7045 0.236799 4
    endloop
  endfacet
  facet normal -0.694658 -0.71934 0
    outer loop
      vertex -13.0201 -8.57332 0
      vertex -12.1113 -9.45092 4
      vertex -13.0201 -8.57332 4
    endloop
  endfacet
  facet normal -0.694658 -0.71934 -0
    outer loop
      vertex -12.1113 -9.45092 4
      vertex -13.0201 -8.57332 0
      vertex -12.1113 -9.45092 0
    endloop
  endfacet
  facet normal -1 0 0
    outer loop
      vertex -8.3 -12.0738 0
      vertex -8.3 -23.15 0
      vertex -8.3 -12.0738 4
    endloop
  endfacet
  facet normal -1 0 0
    outer loop
      vertex -8.3 -4.49 32
      vertex -8.3 1.96 35
      vertex -8.3 4.79 32
    endloop
  endfacet
  facet normal -1 -0 0
    outer loop
      vertex -8.3 1.96 35
      vertex -8.3 -4.49 32
      vertex -8.3 -5.96 35
    endloop
  endfacet
  facet normal -1 0 0
    outer loop
      vertex -8.3 4.79 32
      vertex -8.3 19.15 4
      vertex -8.3 4.79 29
    endloop
  endfacet
  facet normal -1 0 0
    outer loop
      vertex -8.3 -12.0738 4
      vertex -8.3 4.79 29
      vertex -8.3 19.15 4
    endloop
  endfacet
  facet normal -1 0 0
    outer loop
      vertex -8.3 -4.49 29
      vertex -8.3 -5.96 35
      vertex -8.3 -4.49 32
    endloop
  endfacet
  facet normal -1 -0 0
    outer loop
      vertex -8.3 -4.49 29
      vertex -8.3 -23.15 0
      vertex -8.3 -5.96 35
    endloop
  endfacet
  facet normal -1 0 0
    outer loop
      vertex -8.3 -23.15 0
      vertex -8.3 -4.49 29
      vertex -8.3 -12.0738 4
    endloop
  endfacet
  facet normal -1 -0 0
    outer loop
      vertex -8.3 4.79 29
      vertex -8.3 -12.0738 4
      vertex -8.3 -4.49 29
    endloop
  endfacet
  facet normal -1 0 0
    outer loop
      vertex -8.3 19.15 4
      vertex -8.3 4.79 32
      vertex -8.3 19.15 75.5
    endloop
  endfacet
  facet normal -1 0 0
    outer loop
      vertex -8.3 1.96 38
      vertex -8.3 4.79 32
      vertex -8.3 1.96 35
    endloop
  endfacet
  facet normal -1 0 0
    outer loop
      vertex -8.3 4.79 32
      vertex -8.3 1.96 38
      vertex -8.3 19.15 75.5
    endloop
  endfacet
  facet normal -1 0 0
    outer loop
      vertex -8.3 -5.96 38
      vertex -8.3 19.15 75.5
      vertex -8.3 1.96 38
    endloop
  endfacet
  facet normal -1 -0 0
    outer loop
      vertex -8.3 -5.96 35
      vertex -8.3 -23.15 0
      vertex -8.3 -5.96 38
    endloop
  endfacet
  facet normal -1 0 0
    outer loop
      vertex -8.3 -5.96 38
      vertex -8.3 -23.15 75.5
      vertex -8.3 19.15 75.5
    endloop
  endfacet
  facet normal -1 0 0
    outer loop
      vertex -8.3 -23.15 75.5
      vertex -8.3 -5.96 38
      vertex -8.3 -23.15 0
    endloop
  endfacet
  facet normal 0 0 1
    outer loop
      vertex 8.3 19.15 75.5
      vertex 4.2 12 75.5
      vertex 8.3 -23.15 75.5
    endloop
  endfacet
  facet normal 0 0 1
    outer loop
      vertex 8.3 19.15 75.5
      vertex -4.2 12 75.5
      vertex 4.2 12 75.5
    endloop
  endfacet
  facet normal 0 0 1
    outer loop
      vertex -4.2 12 75.5
      vertex -8.3 19.15 75.5
      vertex -4.2 -16 75.5
    endloop
  endfacet
  facet normal -0 0 1
    outer loop
      vertex -8.3 19.15 75.5
      vertex -4.2 12 75.5
      vertex 8.3 19.15 75.5
    endloop
  endfacet
  facet normal -0 0 1
    outer loop
      vertex 4.2 -16 75.5
      vertex 8.3 -23.15 75.5
      vertex 4.2 12 75.5
    endloop
  endfacet
  facet normal -0 0 1
    outer loop
      vertex -4.2 -16 75.5
      vertex 8.3 -23.15 75.5
      vertex 4.2 -16 75.5
    endloop
  endfacet
  facet normal 0 0 1
    outer loop
      vertex -4.2 -16 75.5
      vertex -8.3 -23.15 75.5
      vertex 8.3 -23.15 75.5
    endloop
  endfacet
  facet normal 0 0 1
    outer loop
      vertex -8.3 -23.15 75.5
      vertex -4.2 -16 75.5
      vertex -8.3 19.15 75.5
    endloop
  endfacet
  facet normal 1 0 0
    outer loop
      vertex 8.3 19.15 75.5
      vertex 8.3 4.79 32
      vertex 8.3 19.15 4
    endloop
  endfacet
  facet normal 1 0 0
    outer loop
      vertex 8.3 19.15 75.5
      vertex 8.3 1.96 38
      vertex 8.3 4.79 32
    endloop
  endfacet
  facet normal 1 0 0
    outer loop
      vertex 8.3 19.15 75.5
      vertex 8.3 -5.96 38
      vertex 8.3 1.96 38
    endloop
  endfacet
  facet normal 1 0 0
    outer loop
      vertex 8.3 -23.15 0
      vertex 8.3 -5.96 35
      vertex 8.3 -5.96 38
    endloop
  endfacet
  facet normal 1 -0 0
    outer loop
      vertex 8.3 -23.15 75.5
      vertex 8.3 -5.96 38
      vertex 8.3 19.15 75.5
    endloop
  endfacet
  facet normal 1 0 0
    outer loop
      vertex 8.3 -23.15 0
      vertex 8.3 -5.96 38
      vertex 8.3 -23.15 75.5
    endloop
  endfacet
  facet normal 1 0 0
    outer loop
      vertex 8.3 -5.96 35
      vertex 8.3 -23.15 0
      vertex 8.3 -12.0738 4
    endloop
  endfacet
  facet normal 1 0 0
    outer loop
      vertex 8.3 -12.0738 4
      vertex 8.3 -23.15 0
      vertex 8.3 -12.0738 0
    endloop
  endfacet
  facet normal 1 -0 0
    outer loop
      vertex 8.3 4.79 29
      vertex 8.3 19.15 4
      vertex 8.3 4.79 32
    endloop
  endfacet
  facet normal 1 0 0
    outer loop
      vertex 8.3 -12.0738 4
      vertex 8.3 4.79 29
      vertex 8.3 -4.49 29
    endloop
  endfacet
  facet normal 1 0 0
    outer loop
      vertex 8.3 4.79 29
      vertex 8.3 -12.0738 4
      vertex 8.3 19.15 4
    endloop
  endfacet
  facet normal 1 0 0
    outer loop
      vertex 8.3 -12.0738 4
      vertex 8.3 -4.49 29
      vertex 8.3 -5.96 35
    endloop
  endfacet
  facet normal 1 -0 0
    outer loop
      vertex 8.3 1.96 35
      vertex 8.3 4.79 32
      vertex 8.3 1.96 38
    endloop
  endfacet
  facet normal 1 0 0
    outer loop
      vertex 8.3 1.96 35
      vertex 8.3 -4.49 32
      vertex 8.3 4.79 32
    endloop
  endfacet
  facet normal 1 0 0
    outer loop
      vertex 8.3 -4.49 32
      vertex 8.3 -5.96 35
      vertex 8.3 -4.49 29
    endloop
  endfacet
  facet normal 1 -0 0
    outer loop
      vertex 8.3 -5.96 35
      vertex 8.3 -4.49 32
      vertex 8.3 1.96 35
    endloop
  endfacet
  facet normal 0 1 -0
    outer loop
      vertex 8.3 19.15 4
      vertex -8.3 19.15 75.5
      vertex 8.3 19.15 75.5
    endloop
  endfacet
  facet normal 0 1 0
    outer loop
      vertex -8.3 19.15 75.5
      vertex 8.3 19.15 4
      vertex -8.3 19.15 4
    endloop
  endfacet
  facet normal 0 -1 0
    outer loop
      vertex -8.3 -23.15 0
      vertex 8.3 -23.15 75.5
      vertex -8.3 -23.15 75.5
    endloop
  endfacet
  facet normal 0 -1 -0
    outer loop
      vertex 8.3 -23.15 75.5
      vertex -8.3 -23.15 0
      vertex 8.3 -23.15 0
    endloop
  endfacet
  facet normal 1 0 0
    outer loop
      vertex -4.2 12 75.5
      vertex -4.2 7.9 71
      vertex -4.2 12 71
    endloop
  endfacet
  facet normal 1 0 0
    outer loop
      vertex -4.2 7.9 71
      vertex -4.2 1.96 38
      vertex -4.2 7.9 35
    endloop
  endfacet
  facet normal 1 0 0
    outer loop
      vertex -4.2 7.9 71
      vertex -4.2 -5.96 38
      vertex -4.2 1.96 38
    endloop
  endfacet
  facet normal 1 0 0
    outer loop
      vertex -4.2 -11.9 35
      vertex -4.2 -5.96 38
      vertex -4.2 -11.9 71
    endloop
  endfacet
  facet normal 1 0 0
    outer loop
      vertex -4.2 7.9 71
      vertex -4.2 -11.9 71
      vertex -4.2 -5.96 38
    endloop
  endfacet
  facet normal 1 0 0
    outer loop
      vertex -4.2 12 75.5
      vertex -4.2 -11.9 71
      vertex -4.2 7.9 71
    endloop
  endfacet
  facet normal 1 -0 0
    outer loop
      vertex -4.2 -16 75.5
      vertex -4.2 -11.9 71
      vertex -4.2 12 75.5
    endloop
  endfacet
  facet normal 1 0 0
    outer loop
      vertex -4.2 -11.9 71
      vertex -4.2 -16 75.5
      vertex -4.2 -16 71
    endloop
  endfacet
  facet normal 1 0 0
    outer loop
      vertex -4.2 7.9 35
      vertex -4.2 1.96 38
      vertex -4.2 1.96 35
    endloop
  endfacet
  facet normal 1 0 0
    outer loop
      vertex -4.2 -5.96 38
      vertex -4.2 -11.9 35
      vertex -4.2 -5.96 35
    endloop
  endfacet
  facet normal -1 0 0
    outer loop
      vertex 4.2 -5.96 35
      vertex 4.2 -11.9 35
      vertex 4.2 -5.96 38
    endloop
  endfacet
  facet normal -1 0 0
    outer loop
      vertex 4.2 1.96 38
      vertex 4.2 7.9 35
      vertex 4.2 1.96 35
    endloop
  endfacet
  facet normal -1 0 0
    outer loop
      vertex 4.2 7.9 71
      vertex 4.2 12 75.5
      vertex 4.2 12 71
    endloop
  endfacet
  facet normal -1 0 0
    outer loop
      vertex 4.2 7.9 35
      vertex 4.2 1.96 38
      vertex 4.2 7.9 71
    endloop
  endfacet
  facet normal -1 0 0
    outer loop
      vertex 4.2 -5.96 38
      vertex 4.2 7.9 71
      vertex 4.2 1.96 38
    endloop
  endfacet
  facet normal -1 0 0
    outer loop
      vertex 4.2 -11.9 71
      vertex 4.2 -5.96 38
      vertex 4.2 -11.9 35
    endloop
  endfacet
  facet normal -1 0 0
    outer loop
      vertex 4.2 -5.96 38
      vertex 4.2 -11.9 71
      vertex 4.2 7.9 71
    endloop
  endfacet
  facet normal -1 0 0
    outer loop
      vertex 4.2 -11.9 71
      vertex 4.2 12 75.5
      vertex 4.2 7.9 71
    endloop
  endfacet
  facet normal -1 0 0
    outer loop
      vertex 4.2 -16 75.5
      vertex 4.2 -11.9 71
      vertex 4.2 -16 71
    endloop
  endfacet
  facet normal -1 0 0
    outer loop
      vertex 4.2 -11.9 71
      vertex 4.2 -16 75.5
      vertex 4.2 12 75.5
    endloop
  endfacet
  facet normal -0 0 1
    outer loop
      vertex -4.2 -11.9 71
      vertex 4.2 -16 71
      vertex 4.2 -11.9 71
    endloop
  endfacet
  facet normal 0 0 1
    outer loop
      vertex 4.2 -16 71
      vertex -4.2 -11.9 71
      vertex -4.2 -16 71
    endloop
  endfacet
  facet normal -0 0 1
    outer loop
      vertex -4.2 12 71
      vertex 4.2 7.9 71
      vertex 4.2 12 71
    endloop
  endfacet
  facet normal 0 0 1
    outer loop
      vertex 4.2 7.9 71
      vertex -4.2 12 71
      vertex -4.2 7.9 71
    endloop
  endfacet
  facet normal 0 1 -0
    outer loop
      vertex 4.2 -16 71
      vertex -4.2 -16 75.5
      vertex 4.2 -16 75.5
    endloop
  endfacet
  facet normal 0 1 0
    outer loop
      vertex -4.2 -16 75.5
      vertex 4.2 -16 71
      vertex -4.2 -16 71
    endloop
  endfacet
  facet normal 0 -1 0
    outer loop
      vertex -4.2 12 71
      vertex 4.2 12 75.5
      vertex -4.2 12 75.5
    endloop
  endfacet
  facet normal 0 -1 -0
    outer loop
      vertex 4.2 12 75.5
      vertex -4.2 12 71
      vertex 4.2 12 71
    endloop
  endfacet
  facet normal -0 0 1
    outer loop
      vertex -8.3 1.96 35
      vertex -4.2 -5.96 35
      vertex -4.2 1.96 35
    endloop
  endfacet
  facet normal 0 0 1
    outer loop
      vertex -4.2 -5.96 35
      vertex -8.3 1.96 35
      vertex -8.3 -5.96 35
    endloop
  endfacet
  facet normal 0 0 1
    outer loop
      vertex -4.2 1.96 35
      vertex 4.2 1.96 35
      vertex 4.2 7.9 35
    endloop
  endfacet
  facet normal 0 0 1
    outer loop
      vertex 4.2 1.96 35
      vertex -4.2 1.96 35
      vertex 4.2 -5.96 35
    endloop
  endfacet
  facet normal 0 0 1
    outer loop
      vertex -4.2 1.96 35
      vertex 4.2 7.9 35
      vertex -4.2 7.9 35
    endloop
  endfacet
  facet normal 0 0 1
    outer loop
      vertex -4.2 -5.96 35
      vertex 4.2 -5.96 35
      vertex -4.2 1.96 35
    endloop
  endfacet
  facet normal 0 0 1
    outer loop
      vertex 4.2 -5.96 35
      vertex -4.2 -5.96 35
      vertex 4.2 -11.9 35
    endloop
  endfacet
  facet normal 0 0 1
    outer loop
      vertex 4.2 -11.9 35
      vertex -4.2 -5.96 35
      vertex -4.2 -11.9 35
    endloop
  endfacet
  facet normal -0 0 1
    outer loop
      vertex 4.2 1.96 35
      vertex 8.3 -5.96 35
      vertex 8.3 1.96 35
    endloop
  endfacet
  facet normal 0 0 1
    outer loop
      vertex 8.3 -5.96 35
      vertex 4.2 1.96 35
      vertex 4.2 -5.96 35
    endloop
  endfacet
  facet normal 0 1 -0
    outer loop
      vertex 4.2 -11.9 35
      vertex -4.2 -11.9 71
      vertex 4.2 -11.9 71
    endloop
  endfacet
  facet normal 0 1 0
    outer loop
      vertex -4.2 -11.9 71
      vertex 4.2 -11.9 35
      vertex -4.2 -11.9 35
    endloop
  endfacet
  facet normal 0 -1 0
    outer loop
      vertex -4.2 7.9 35
      vertex 4.2 7.9 71
      vertex -4.2 7.9 71
    endloop
  endfacet
  facet normal 0 -1 -0
    outer loop
      vertex 4.2 7.9 71
      vertex -4.2 7.9 35
      vertex 4.2 7.9 35
    endloop
  endfacet
  facet normal 0 0 -1
    outer loop
      vertex -8.3 -5.96 38
      vertex -4.2 1.96 38
      vertex -4.2 -5.96 38
    endloop
  endfacet
  facet normal -0 0 -1
    outer loop
      vertex -4.2 1.96 38
      vertex -8.3 -5.96 38
      vertex -8.3 1.96 38
    endloop
  endfacet
  facet normal 0 0 -1
    outer loop
      vertex 4.2 -5.96 38
      vertex 8.3 1.96 38
      vertex 8.3 -5.96 38
    endloop
  endfacet
  facet normal -0 0 -1
    outer loop
      vertex 8.3 1.96 38
      vertex 4.2 -5.96 38
      vertex 4.2 1.96 38
    endloop
  endfacet
  facet normal 0 -1 0
    outer loop
      vertex 4.2 1.96 35
      vertex 8.3 1.96 38
      vertex 4.2 1.96 38
    endloop
  endfacet
  facet normal 0 -1 -0
    outer loop
      vertex 8.3 1.96 38
      vertex 4.2 1.96 35
      vertex 8.3 1.96 35
    endloop
  endfacet
  facet normal 0 -1 0
    outer loop
      vertex -8.3 1.96 35
      vertex -4.2 1.96 38
      vertex -8.3 1.96 38
    endloop
  endfacet
  facet normal 0 -1 -0
    outer loop
      vertex -4.2 1.96 38
      vertex -8.3 1.96 35
      vertex -4.2 1.96 35
    endloop
  endfacet
  facet normal 0 1 -0
    outer loop
      vertex -4.2 -5.96 35
      vertex -8.3 -5.96 38
      vertex -4.2 -5.96 38
    endloop
  endfacet
  facet normal 0 1 0
    outer loop
      vertex -8.3 -5.96 38
      vertex -4.2 -5.96 35
      vertex -8.3 -5.96 35
    endloop
  endfacet
  facet normal 0 1 -0
    outer loop
      vertex 8.3 -5.96 35
      vertex 4.2 -5.96 38
      vertex 8.3 -5.96 38
    endloop
  endfacet
  facet normal 0 1 0
    outer loop
      vertex 4.2 -5.96 38
      vertex 8.3 -5.96 35
      vertex 4.2 -5.96 35
    endloop
  endfacet
  facet normal 1 0 0
    outer loop
      vertex -6.3 -4.49 32
      vertex -6.3 -11.45 32
      vertex -6.3 -4.49 29
    endloop
  endfacet
  facet normal 1 0 0
    outer loop
      vertex -6.3 4.79 29
      vertex -6.3 11.75 32
      vertex -6.3 4.79 32
    endloop
  endfacet
  facet normal 1 -0 0
    outer loop
      vertex -6.3 11.75 11.5
      vertex -6.3 16.3 0
      vertex -6.3 16.3 11.5
    endloop
  endfacet
  facet normal 1 0 0
    outer loop
      vertex -6.3 11.75 32
      vertex -6.3 4.79 29
      vertex -6.3 11.75 11.5
    endloop
  endfacet
  facet normal 1 0 0
    outer loop
      vertex -6.3 -11.45 11.5
      vertex -6.3 11.75 11.5
      vertex -6.3 4.79 29
    endloop
  endfacet
  facet normal 1 0 0
    outer loop
      vertex -6.3 -11.45 11.5
      vertex -6.3 4.79 29
      vertex -6.3 -4.49 29
    endloop
  endfacet
  facet normal 1 0 0
    outer loop
      vertex -6.3 -11.45 11.5
      vertex -6.3 -4.49 29
      vertex -6.3 -11.45 32
    endloop
  endfacet
  facet normal 1 0 0
    outer loop
      vertex -6.3 11.75 11.5
      vertex -6.3 -11.45 11.5
      vertex -6.3 16.3 0
    endloop
  endfacet
  facet normal 1 0 0
    outer loop
      vertex -6.3 -16 0
      vertex -6.3 -11.45 11.5
      vertex -6.3 -16 11.5
    endloop
  endfacet
  facet normal 1 0 0
    outer loop
      vertex -6.3 -11.45 11.5
      vertex -6.3 -16 0
      vertex -6.3 16.3 0
    endloop
  endfacet
  facet normal 0 0 -1
    outer loop
      vertex -6.3 11.75 11.5
      vertex 6.3 16.3 11.5
      vertex 6.3 11.75 11.5
    endloop
  endfacet
  facet normal -0 0 -1
    outer loop
      vertex 6.3 16.3 11.5
      vertex -6.3 11.75 11.5
      vertex -6.3 16.3 11.5
    endloop
  endfacet
  facet normal 0 0 -1
    outer loop
      vertex -6.3 -16 11.5
      vertex 6.3 -11.45 11.5
      vertex 6.3 -16 11.5
    endloop
  endfacet
  facet normal -0 0 -1
    outer loop
      vertex 6.3 -11.45 11.5
      vertex -6.3 -16 11.5
      vertex -6.3 -11.45 11.5
    endloop
  endfacet
  facet normal -1 0 0
    outer loop
      vertex 6.3 16.3 0
      vertex 6.3 11.75 11.5
      vertex 6.3 16.3 11.5
    endloop
  endfacet
  facet normal -1 0 0
    outer loop
      vertex 6.3 11.75 11.5
      vertex 6.3 4.79 29
      vertex 6.3 11.75 32
    endloop
  endfacet
  facet normal -1 0 0
    outer loop
      vertex 6.3 -11.45 11.5
      vertex 6.3 11.75 11.5
      vertex 6.3 16.3 0
    endloop
  endfacet
  facet normal -1 0 0
    outer loop
      vertex 6.3 11.75 11.5
      vertex 6.3 -11.45 11.5
      vertex 6.3 4.79 29
    endloop
  endfacet
  facet normal -1 0 0
    outer loop
      vertex 6.3 -11.45 32
      vertex 6.3 -4.49 29
      vertex 6.3 -11.45 11.5
    endloop
  endfacet
  facet normal -1 -0 0
    outer loop
      vertex 6.3 4.79 29
      vertex 6.3 -11.45 11.5
      vertex 6.3 -4.49 29
    endloop
  endfacet
  facet normal -1 0 0
    outer loop
      vertex 6.3 -16 0
      vertex 6.3 -11.45 11.5
      vertex 6.3 16.3 0
    endloop
  endfacet
  facet normal -1 -0 0
    outer loop
      vertex 6.3 -11.45 11.5
      vertex 6.3 -16 0
      vertex 6.3 -16 11.5
    endloop
  endfacet
  facet normal -1 -0 0
    outer loop
      vertex 6.3 11.75 32
      vertex 6.3 4.79 29
      vertex 6.3 4.79 32
    endloop
  endfacet
  facet normal -1 0 0
    outer loop
      vertex 6.3 -4.49 29
      vertex 6.3 -11.45 32
      vertex 6.3 -4.49 32
    endloop
  endfacet
  facet normal 0 -1 0
    outer loop
      vertex -6.3 16.3 0
      vertex 6.3 16.3 11.5
      vertex -6.3 16.3 11.5
    endloop
  endfacet
  facet normal 0 -1 -0
    outer loop
      vertex 6.3 16.3 11.5
      vertex -6.3 16.3 0
      vertex 6.3 16.3 0
    endloop
  endfacet
  facet normal 0 1 -0
    outer loop
      vertex 6.3 -16 0
      vertex -6.3 -16 11.5
      vertex 6.3 -16 11.5
    endloop
  endfacet
  facet normal 0 1 0
    outer loop
      vertex -6.3 -16 11.5
      vertex 6.3 -16 0
      vertex -6.3 -16 0
    endloop
  endfacet
  facet normal 0 0 -1
    outer loop
      vertex -8.3 -4.49 32
      vertex -6.3 4.79 32
      vertex -6.3 -4.49 32
    endloop
  endfacet
  facet normal -0 0 -1
    outer loop
      vertex -6.3 4.79 32
      vertex -8.3 -4.49 32
      vertex -8.3 4.79 32
    endloop
  endfacet
  facet normal 0 0 -1
    outer loop
      vertex -6.3 -4.49 32
      vertex 6.3 -4.49 32
      vertex 6.3 -11.45 32
    endloop
  endfacet
  facet normal 0 0 -1
    outer loop
      vertex 6.3 -4.49 32
      vertex -6.3 -4.49 32
      vertex 6.3 4.79 32
    endloop
  endfacet
  facet normal 0 0 -1
    outer loop
      vertex -6.3 -4.49 32
      vertex 6.3 -11.45 32
      vertex -6.3 -11.45 32
    endloop
  endfacet
  facet normal 0 0 -1
    outer loop
      vertex -6.3 4.79 32
      vertex 6.3 4.79 32
      vertex -6.3 -4.49 32
    endloop
  endfacet
  facet normal 0 0 -1
    outer loop
      vertex 6.3 4.79 32
      vertex -6.3 4.79 32
      vertex 6.3 11.75 32
    endloop
  endfacet
  facet normal -0 0 -1
    outer loop
      vertex 6.3 11.75 32
      vertex -6.3 4.79 32
      vertex -6.3 11.75 32
    endloop
  endfacet
  facet normal 0 0 -1
    outer loop
      vertex 6.3 -4.49 32
      vertex 8.3 4.79 32
      vertex 8.3 -4.49 32
    endloop
  endfacet
  facet normal -0 0 -1
    outer loop
      vertex 8.3 4.79 32
      vertex 6.3 -4.49 32
      vertex 6.3 4.79 32
    endloop
  endfacet
  facet normal 0 1 -0
    outer loop
      vertex 6.3 -11.45 11.5
      vertex -6.3 -11.45 32
      vertex 6.3 -11.45 32
    endloop
  endfacet
  facet normal 0 1 0
    outer loop
      vertex -6.3 -11.45 32
      vertex 6.3 -11.45 11.5
      vertex -6.3 -11.45 11.5
    endloop
  endfacet
  facet normal 0 -1 0
    outer loop
      vertex -6.3 11.75 11.5
      vertex 6.3 11.75 32
      vertex -6.3 11.75 32
    endloop
  endfacet
  facet normal 0 -1 -0
    outer loop
      vertex 6.3 11.75 32
      vertex -6.3 11.75 11.5
      vertex 6.3 11.75 11.5
    endloop
  endfacet
  facet normal -0 0 1
    outer loop
      vertex -8.3 4.79 29
      vertex -6.3 -4.49 29
      vertex -6.3 4.79 29
    endloop
  endfacet
  facet normal 0 0 1
    outer loop
      vertex -6.3 -4.49 29
      vertex -8.3 4.79 29
      vertex -8.3 -4.49 29
    endloop
  endfacet
  facet normal -0 0 1
    outer loop
      vertex 6.3 4.79 29
      vertex 8.3 -4.49 29
      vertex 8.3 4.79 29
    endloop
  endfacet
  facet normal 0 0 1
    outer loop
      vertex 8.3 -4.49 29
      vertex 6.3 4.79 29
      vertex 6.3 -4.49 29
    endloop
  endfacet
  facet normal 0 1 -0
    outer loop
      vertex -6.3 -4.49 29
      vertex -8.3 -4.49 32
      vertex -6.3 -4.49 32
    endloop
  endfacet
  facet normal 0 1 0
    outer loop
      vertex -8.3 -4.49 32
      vertex -6.3 -4.49 29
      vertex -8.3 -4.49 29
    endloop
  endfacet
  facet normal 0 1 -0
    outer loop
      vertex 8.3 -4.49 29
      vertex 6.3 -4.49 32
      vertex 8.3 -4.49 32
    endloop
  endfacet
  facet normal 0 1 0
    outer loop
      vertex 6.3 -4.49 32
      vertex 8.3 -4.49 29
      vertex 6.3 -4.49 29
    endloop
  endfacet
  facet normal 0 -1 0
    outer loop
      vertex 6.3 4.79 29
      vertex 8.3 4.79 32
      vertex 6.3 4.79 32
    endloop
  endfacet
  facet normal 0 -1 -0
    outer loop
      vertex 8.3 4.79 32
      vertex 6.3 4.79 29
      vertex 8.3 4.79 29
    endloop
  endfacet
  facet normal 0 -1 0
    outer loop
      vertex -8.3 4.79 29
      vertex -6.3 4.79 32
      vertex -8.3 4.79 32
    endloop
  endfacet
  facet normal 0 -1 -0
    outer loop
      vertex -6.3 4.79 32
      vertex -8.3 4.79 29
      vertex -6.3 4.79 29
    endloop
  endfacet
endsolid OpenSCAD_Model
