<?xml version="1.0" encoding="UTF-8" standalone="no"?>
<!-- Created with Inkscape (http://www.inkscape.org/) -->

<svg
   xmlns:dc="http://purl.org/dc/elements/1.1/"
   xmlns:cc="http://creativecommons.org/ns#"
   xmlns:rdf="http://www.w3.org/1999/02/22-rdf-syntax-ns#"
   xmlns:svg="http://www.w3.org/2000/svg"
   xmlns="http://www.w3.org/2000/svg"
   xmlns:sodipodi="http://sodipodi.sourceforge.net/DTD/sodipodi-0.dtd"
   xmlns:inkscape="http://www.inkscape.org/namespaces/inkscape"
   width="210mm"
   height="160mm"
   viewBox="0 0 744.09448 566.92913"
   id="svg2"
   version="1.1"
   inkscape:version="0.91 r13725"
   sodipodi:docname="nostromo-1.svg">
  <defs
     id="defs4">
    <clipPath
       id="clipPath16"
       clipPathUnits="userSpaceOnUse">
      <path
         inkscape:connector-curvature="0"
         id="path18"
         d="M 0,612 792,612 792,0 0,0 0,612 Z" />
    </clipPath>
    <clipPath
       id="clipPath26"
       clipPathUnits="userSpaceOnUse">
      <path
         inkscape:connector-curvature="0"
         id="path28"
         d="M 0,612 792,612 792,0 0,0 0,612 Z" />
    </clipPath>
  </defs>
  <sodipodi:namedview
     id="base"
     pagecolor="#000000"
     bordercolor="#666666"
     borderopacity="1.0"
     inkscape:pageopacity="0"
     inkscape:pageshadow="2"
     inkscape:zoom="0.49497475"
     inkscape:cx="445.50353"
     inkscape:cy="74.462806"
     inkscape:document-units="px"
     inkscape:current-layer="layer1"
     showgrid="true"
     inkscape:snap-bbox="true"
     inkscape:bbox-paths="true"
     inkscape:bbox-nodes="true"
     inkscape:snap-bbox-edge-midpoints="true"
     inkscape:snap-bbox-midpoints="true"
     inkscape:object-paths="true"
     inkscape:snap-intersection-paths="true"
     inkscape:object-nodes="true"
     inkscape:snap-smooth-nodes="true"
     inkscape:snap-midpoints="true"
     inkscape:snap-object-midpoints="true"
     inkscape:snap-center="true"
     inkscape:window-width="1600"
     inkscape:window-height="849"
     inkscape:window-x="0"
     inkscape:window-y="25"
     inkscape:window-maximized="1"
     inkscape:snap-global="false"
     showborder="true"
     borderlayer="false"
     inkscape:showpageshadow="false" />
  <metadata
     id="metadata7">
    <rdf:RDF>
      <cc:Work
         rdf:about="">
        <dc:format>image/svg+xml</dc:format>
        <dc:type
           rdf:resource="http://purl.org/dc/dcmitype/StillImage" />
        <dc:title />
      </cc:Work>
    </rdf:RDF>
  </metadata>
  <g
     inkscape:label="Layer 1"
     inkscape:groupmode="layer"
     id="layer1"
     transform="translate(0,-485.43308)">
    <path
       style="fill:#ffffff"
       d="M 0 -1.2714844 L 0 265.74805 L 744.09375 265.74805 L 744.09375 -1.2714844 L 0 -1.2714844 z M 242.14453 32.796875 L 244.04492 32.796875 C 244.62903 32.791175 245.20126 32.930555 245.70312 33.216797 C 246.04941 33.414276 246.36028 33.679159 246.60938 34.003906 C 246.73469 34.167271 246.80601 34.305235 246.85547 34.398438 L 246.85547 34.402344 L 258.90234 57.376953 L 251.22852 57.376953 L 248.75 52.433594 L 236.91992 52.433594 L 234.52148 57.376953 L 227.44922 57.376953 L 239.33008 34.40625 L 239.33203 34.402344 C 239.38143 34.309244 239.45341 34.171039 239.58008 34.005859 C 239.82921 33.681099 240.14005 33.416229 240.48633 33.21875 C 240.98825 32.932476 241.56054 32.793662 242.14453 32.798828 L 242.14453 32.796875 z M 290.36133 32.796875 L 304.63867 32.796875 C 308.37063 32.796875 311.43769 33.723296 313.68359 35.660156 C 313.68424 35.660802 313.6845 35.663463 313.68555 35.664062 C 316.19535 37.797584 317.4375 40.994457 317.4375 44.957031 C 317.4375 49.564096 315.74957 53.1974 312.43945 55.453125 L 312.43945 55.455078 L 312.43555 55.457031 C 310.41275 56.819064 307.4184 57.376953 303.40039 57.376953 L 290.36133 57.376953 L 290.36133 33.800781 L 290.36133 32.798828 L 290.36133 32.796875 z M 365.4043 32.796875 L 372.20703 32.796875 L 372.20703 51.128906 L 383.87891 51.128906 L 383.87891 32.796875 L 390.67969 32.796875 L 390.67969 51.037109 C 390.67969 53.2511 390.35036 54.923003 389.26562 55.988281 C 388.22864 57.033903 386.62778 57.376953 384.56055 57.376953 L 371.52539 57.376953 C 369.4541 57.376953 367.84445 57.029111 366.78711 55.996094 L 366.7793 55.990234 L 366.77344 55.986328 C 365.71637 54.915381 365.4043 53.253662 365.4043 51.039062 L 365.4043 33.800781 L 365.4043 32.798828 L 365.4043 32.796875 z M 517.84375 32.796875 L 536.30469 32.796875 L 536.30469 38.826172 L 518.52539 38.826172 L 518.52539 51.130859 L 536.30469 51.130859 L 536.30469 57.376953 L 517.84375 57.376953 C 515.77292 57.376953 514.16174 57.031877 513.10352 55.998047 L 513.09766 55.990234 L 513.08984 55.986328 C 512.03197 54.914516 511.72461 53.251288 511.72461 51.037109 L 511.72461 39.136719 C 511.72461 36.922527 512.03236 35.260833 513.08984 34.189453 L 513.09766 34.185547 L 513.10352 34.179688 C 514.16134 33.146287 515.77246 32.798828 517.84375 32.798828 L 517.84375 32.796875 z M 548.88867 32.796875 L 564.08398 32.796875 C 566.1508 32.796875 567.75013 33.137966 568.78711 34.183594 C 569.87183 35.248891 570.20313 36.922308 570.20312 39.136719 L 570.20312 51.037109 C 570.20312 53.252476 569.87062 54.925409 568.78516 55.990234 C 567.74858 57.034468 566.1504 57.376953 564.08398 57.376953 L 548.88867 57.376953 C 546.81739 57.376953 545.20774 57.029098 544.15039 55.996094 L 544.14258 55.990234 L 544.13672 55.984375 C 543.07963 54.913434 542.76758 53.251707 542.76758 51.037109 L 542.76758 39.136719 C 542.76758 36.922108 543.07923 35.258874 544.13672 34.1875 L 544.14258 34.183594 L 544.15039 34.177734 C 545.2082 33.144304 546.81785 32.798828 548.88867 32.798828 L 548.88867 32.796875 z M 107.18164 32.798828 L 114.70312 32.798828 L 119.70508 46.140625 L 124.9375 32.798828 L 129.93945 32.798828 L 135.27344 46.111328 L 140.03711 32.798828 L 146.83203 32.798828 L 137.44531 57.376953 L 132.56445 57.376953 L 127.08789 43.472656 L 121.5332 57.376953 L 116.56836 57.376953 L 107.70117 34.158203 L 107.18164 32.798828 z M 153.58984 32.798828 L 153.5918 32.798828 L 170.50781 32.798828 L 170.51172 32.798828 L 170.51172 32.804688 L 170.51172 35.728516 L 170.51172 38.652344 L 155.1875 38.652344 C 155.05316 38.658344 154.94098 38.685362 154.85156 38.726562 C 154.73346 38.781053 154.62101 38.861984 154.52344 38.96875 C 154.34216 39.167101 154.2115 39.464494 154.19922 39.820312 L 154.19922 41.679688 L 163.71484 41.679688 L 163.71484 47.533203 L 154.19922 47.533203 L 154.19922 49.958984 C 154.21152 50.31483 154.34217 50.612215 154.52344 50.810547 C 154.62104 50.917306 154.73348 51.000185 154.85156 51.054688 C 154.95106 51.100518 155.0662 51.127629 155.20312 51.130859 L 170.71289 51.130859 L 170.71289 57.376953 L 153.58984 57.376953 C 150.12564 57.376953 147.39648 54.333393 147.39648 50.695312 L 147.39648 39.480469 C 147.39648 35.842384 149.39968 32.768898 153.58984 32.798828 z M 171.74609 32.798828 L 180.76172 32.798828 L 187.36719 40.880859 L 194.00781 32.798828 L 202.31055 32.798828 L 190.44531 46.511719 L 190.44531 57.376953 L 183.60352 57.376953 L 183.60352 46.640625 L 171.74609 32.798828 z M 203.53711 32.798828 L 210.33984 32.798828 L 210.33984 49.919922 C 210.34184 50.288896 210.47874 50.601176 210.67188 50.8125 C 210.76947 50.919266 210.87995 51.000186 210.99805 51.054688 C 211.09315 51.098568 211.20816 51.126989 211.3457 51.130859 L 225.81445 51.130859 L 225.81445 57.376953 L 209.73047 57.376953 C 206.2666 57.376953 203.53711 54.335344 203.53711 50.697266 L 203.53711 33.800781 L 203.53711 32.798828 z M 263.92578 32.798828 L 263.92969 32.798828 L 264.23047 32.798828 L 264.32812 32.865234 C 264.91757 32.938094 265.49013 33.126126 265.9668 33.488281 L 266.00195 33.515625 L 280.02344 46.363281 L 280.02734 46.365234 C 280.2614 46.581931 280.35807 46.726273 280.56836 46.929688 C 280.55436 46.595163 280.50391 45.844398 280.50391 45.65625 L 280.50391 32.798828 L 286.82617 32.798828 L 286.82617 54 L 286.82617 55.052734 C 286.37473 56.389215 284.92789 57.375662 283.45117 57.376953 L 283.44922 57.376953 L 283.44727 57.376953 C 282.72307 57.375753 282.01851 57.141273 281.4375 56.708984 L 281.47852 56.740234 L 281.41016 56.693359 L 266.82812 43.263672 C 266.66424 43.112734 266.87305 43.842907 266.87305 44.039062 L 266.87305 57.376953 L 260.55078 57.376953 L 260.55078 35.109375 C 261.00618 33.779784 262.45519 32.800765 263.92578 32.798828 z M 333.375 32.798828 L 342.42969 32.798828 L 349.03516 40.880859 L 355.67578 32.798828 L 363.97852 32.798828 L 352.11328 46.511719 L 352.11328 57.376953 L 345.27148 57.376953 L 345.27148 46.640625 L 334.79883 34.453125 L 333.375 32.798828 z M 393.56836 32.798828 L 419.36328 32.798828 L 419.36328 38.828125 L 409.84766 38.828125 L 409.84766 57.376953 L 403.04492 57.376953 L 403.04492 38.828125 L 393.56836 38.828125 L 393.56836 33.800781 L 393.56836 32.798828 z M 429.66016 32.798828 L 431.5625 32.798828 C 432.14729 32.792928 432.72147 32.93316 433.22266 33.21875 C 433.56832 33.415713 433.87868 33.677997 434.12891 34.003906 C 434.25226 34.164662 434.31614 34.293632 434.35352 34.363281 L 434.35352 34.367188 L 446.41602 57.376953 L 438.74414 57.376953 L 436.26562 52.433594 L 424.43555 52.433594 L 422.03516 57.376953 L 414.96484 57.376953 L 426.86133 34.375 L 426.86914 34.369141 C 426.90694 34.299031 426.96754 34.168317 427.09375 34.003906 C 427.34398 33.677971 427.65629 33.415713 428.00195 33.21875 C 428.50334 32.933025 429.07603 32.793662 429.66016 32.798828 z M 452.82031 32.798828 L 452.82422 32.798828 C 453.55961 32.800328 454.27376 33.041448 454.85938 33.486328 L 454.89648 33.515625 L 468.91797 46.363281 L 468.91797 46.365234 C 469.15163 46.581537 469.24909 46.724663 469.45898 46.927734 C 469.44498 46.593708 469.39453 45.844211 469.39453 45.65625 L 469.39453 32.798828 L 475.7168 32.798828 L 475.7168 55.052734 C 475.26536 56.389221 473.81854 57.375662 472.3418 57.376953 C 471.04645 57.398433 470.5332 56.90625 470.5332 56.90625 L 455.72266 43.263672 C 455.72866 43.486354 455.76562 43.842916 455.76562 44.039062 L 455.76562 57.376953 L 449.44336 57.376953 L 449.44336 35.109375 C 449.58624 33.601213 451.34972 32.800765 452.82031 32.798828 z M 481.92773 32.798828 L 488.72852 32.798828 L 488.72852 57.376953 L 481.92773 57.376953 L 481.92773 33.800781 L 481.92773 32.798828 z M 577.37891 32.798828 L 577.38086 32.798828 L 596.05664 32.798828 C 597.76017 32.798828 599.20712 33.208195 600.22266 34.166016 C 601.2382 35.123836 601.69727 36.540428 601.69727 38.175781 L 601.69727 43.46875 C 601.69727 44.684717 601.47684 45.755773 600.95703 46.636719 C 600.43786 47.516489 599.60495 48.161132 598.61133 48.488281 L 598.60547 48.490234 C 598.09131 48.660864 597.51225 48.714499 596.6543 48.767578 C 596.45509 48.780688 596.11016 48.775776 595.88477 48.785156 L 605.46875 57.376953 L 595.55078 57.376953 L 587.23438 48.845703 L 584.09961 48.845703 L 584.09961 57.376953 L 577.37891 57.376953 L 577.37891 33.800781 L 577.37891 32.798828 z M 608.50195 32.798828 L 627.17773 32.798828 C 628.88126 32.798828 630.3282 33.208201 631.34375 34.166016 C 632.35929 35.123836 632.81836 36.540428 632.81836 38.175781 L 632.81836 43.207031 C 632.81836 44.842372 632.35929 46.258983 631.34375 47.216797 C 630.3282 48.174611 628.88126 48.583984 627.17773 48.583984 L 615.22266 48.583984 L 615.22266 57.376953 L 608.50195 57.376953 L 608.50195 33.800781 L 608.50195 32.798828 z M 584.09961 38.695312 L 584.09961 42.992188 L 593.89453 42.992188 C 594.55052 42.992188 594.83762 42.867685 594.88086 42.867188 L 594.91406 42.84375 L 594.94922 42.824219 C 594.94022 42.829319 595.05273 42.783279 595.05273 42.201172 L 595.05273 39.488281 C 595.05273 38.906156 594.94185 38.86136 594.94922 38.865234 L 594.91406 38.845703 L 594.88086 38.822266 C 594.91486 38.845966 594.54931 38.695311 593.89453 38.695312 L 584.09961 38.695312 z M 615.22266 38.695312 L 615.22266 42.6875 L 625.01758 42.6875 C 625.67245 42.6875 625.9727 42.585456 626.00586 42.560547 L 626.03711 42.537109 L 626.07422 42.517578 C 626.06522 42.522678 626.17578 42.476628 626.17578 41.894531 L 626.17578 39.488281 C 626.17578 38.906156 626.06685 38.86136 626.07422 38.865234 L 626.03711 38.845703 L 626.00586 38.822266 C 626.03986 38.845966 625.67247 38.695311 625.01758 38.695312 L 615.22266 38.695312 z M 297.16406 38.828125 L 297.16406 51.128906 L 302.36133 51.128906 C 305.20062 51.128906 307.18069 50.69838 308.23438 50.052734 C 309.71326 49.148465 310.47461 47.578528 310.47461 44.869141 C 310.47461 42.682245 309.95765 41.21494 309.05664 40.28125 C 308.15564 39.347547 306.70216 39.36633 304.67969 38.828125 L 297.16406 38.828125 z M 549.57031 38.828125 L 549.57031 51.128906 L 563.40234 51.128906 L 563.40234 38.828125 L 549.57031 38.828125 z M 242.91406 40.445312 L 239.95312 46.363281 L 245.77148 46.363281 L 242.91406 40.445312 z M 430.43359 40.445312 L 427.47266 46.363281 L 433.28906 46.363281 L 430.43359 40.445312 z M 323.93164 41.460938 L 335.25 41.460938 L 335.25 47.970703 L 323.93164 47.970703 L 323.93164 42.462891 L 323.93164 41.460938 z M 110.5293 72.691406 L 177.46484 72.691406 L 263.84766 159.07422 L 350.22656 72.691406 L 372.04688 72.691406 L 393.86914 72.691406 L 480.25 159.07422 L 566.63281 72.691406 L 633.56641 72.691406 L 633.56641 104.73633 L 506.62305 231.67969 L 453.87305 231.67969 L 372.04688 149.85156 L 290.22266 231.67969 L 237.4707 231.67969 L 110.5293 104.73633 L 110.5293 78.017578 L 110.5293 72.691406 z M 221.43164 72.691406 L 286.76367 72.691406 L 310.36914 96.296875 L 264.36133 142.30664 L 221.43164 99.378906 L 221.43164 78.017578 L 221.43164 72.691406 z M 457.33008 72.691406 L 522.66211 72.691406 L 522.66211 99.378906 L 479.73633 142.30664 L 433.72461 96.296875 L 455.77148 74.251953 L 457.33008 72.691406 z M 372.04688 166.10352 L 410.73438 204.78906 L 410.73438 209.10352 L 410.73438 231.67969 L 372.04688 231.67969 L 333.36133 231.67969 L 333.36133 209.10352 L 333.36133 204.78906 L 368.2832 169.86914 L 372.04688 166.10352 z M 327.72266 320.31836 C 317.93489 320.22928 303.31413 320.94278 301.49805 321.85352 C 298.42362 323.3954 296.83294 327.29968 296.83594 333.29883 C 296.84154 342.821 300.30541 345.2383 313.9668 345.25 C 317.15267 345.25256 322.75384 345.48669 326.41211 345.77148 C 332.65116 346.25715 333.09379 346.41377 333.56836 348.30469 C 334.44413 351.79405 332.35012 352.48438 320.87109 352.48438 C 310.30103 352.48437 308.0957 351.84946 308.0957 348.80664 C 308.0957 347.91292 306.75498 347.6582 302.0625 347.6582 L 296.0293 347.6582 L 296.0332 349.86914 C 296.03567 351.08582 296.41444 353.43926 296.875 355.09766 C 298.00507 359.16687 301.13309 360.70786 309.70508 361.42188 C 319.33862 362.22441 336.71158 361.49792 339.91797 360.1582 C 344.02307 358.44302 345.4338 355.58842 345.4707 348.91406 C 345.50744 342.26258 344.07499 339.29967 340.00977 337.61914 C 338.51995 337.00315 332.10027 336.33712 324.58594 336.01758 C 309.02615 335.35605 308.73156 335.28936 309.05469 332.53711 C 309.36109 329.92736 311.19545 329.34034 319.35742 329.24414 C 327.77954 329.1445 331.55195 329.8734 332.02734 331.69141 C 332.36179 332.9703 333.25978 333.17773 338.46094 333.17773 L 344.50391 333.17773 L 344.07617 329.38281 C 343.53518 324.58312 340.36555 321.46494 335.24609 320.69727 C 333.71053 320.46699 330.98525 320.34805 327.72266 320.31836 z M 426.99609 320.3457 C 411.67412 320.39563 408.54728 321.02514 405.9082 324.58398 C 404.53252 326.43909 404.22461 328.01936 404.22461 333.21289 C 404.22461 338.98283 404.41799 339.76362 406.31055 341.65625 C 408.9596 344.30523 412.75159 345.17063 422.32422 345.3125 C 426.52735 345.37471 432.3195 345.65546 435.19531 345.93555 C 439.86332 346.39022 440.45089 346.64343 440.68555 348.29883 C 441.20521 351.96447 439.78655 352.47852 429.12891 352.47852 C 417.99072 352.47852 416.86553 352.22994 415.84766 349.55273 C 415.18238 347.80292 414.67315 347.65234 409.47266 347.65234 L 403.82227 347.65234 L 403.82227 351.49414 C 403.82227 358.50706 406.53199 360.52912 417.0957 361.40039 C 427.23474 362.23681 444.44717 361.51533 447.80273 360.11328 C 451.26905 358.66494 452.89258 354.96799 452.89258 348.51953 C 452.89258 339.15364 450.65805 337.26422 438.47852 336.32422 C 433.79606 335.96277 427.20477 335.64935 423.83008 335.62695 C 417.36991 335.58387 415.48421 334.6593 416.0332 331.80859 C 416.37722 330.02232 419.23681 329.36858 427.25195 329.24414 C 435.216 329.12056 438.52472 329.80841 439.01562 331.68555 C 439.35028 332.9653 440.24536 333.17188 445.44531 333.17188 L 451.48828 333.17188 L 451.10156 329.14062 C 450.36112 321.43475 447.19507 320.2794 426.99609 320.3457 z M 479.21484 320.35547 C 471.72539 320.39137 464.39002 320.73173 462.62109 321.35156 C 458.57651 322.76868 456.81462 325.67733 456.32812 331.73828 C 455.83461 337.88613 457.38796 342.03741 460.77344 343.61328 C 462.0202 344.19367 468.94981 344.93029 477.02539 345.33984 C 484.76799 345.73261 491.55438 346.22137 492.10742 346.42578 C 493.38819 346.89905 493.41538 350.24665 492.14844 351.51367 C 491.11868 352.54338 472.68529 352.9238 470.19141 351.9668 C 469.45769 351.68521 468.53236 350.59847 468.13477 349.55273 C 467.4695 347.80292 466.96025 347.65234 461.75977 347.65234 L 456.10938 347.65234 L 456.10938 351.49414 C 456.10937 358.50706 458.81909 360.52912 469.38281 361.40039 C 479.52184 362.23681 496.73429 361.51533 500.08984 360.11328 C 503.55616 358.66494 505.17969 354.96799 505.17969 348.51953 C 505.17969 339.15364 502.9471 337.26422 490.76758 336.32422 C 486.08513 335.96277 479.49189 335.64935 476.11719 335.62695 C 469.65703 335.58387 467.77129 334.6593 468.32031 331.80859 C 468.66431 330.02232 471.52392 329.36858 479.53906 329.24414 C 487.50313 329.12056 490.81183 329.80841 491.30273 331.68555 C 491.63739 332.9653 492.53442 333.17188 497.73438 333.17188 L 503.77539 333.17188 L 503.38867 329.14062 C 502.9168 324.22976 501.34245 322.3488 496.73047 321.1875 C 494.34796 320.5876 486.7043 320.31956 479.21484 320.35547 z M 379.11328 320.36914 C 377.35725 320.37955 375.41647 320.40731 373.26953 320.44922 C 349.804 320.90731 349.08582 321.5215 349.16602 341.03516 C 349.19211 347.38058 349.62027 353.26067 350.17188 354.85547 C 351.62998 359.07081 355.18478 360.71637 364.33398 361.41211 C 368.57636 361.73522 376.49023 361.84175 381.91992 361.65039 C 397.31333 361.10796 400.60352 359.00319 400.60352 349.70508 L 400.60352 345.24219 L 394.67188 345.24219 L 388.73828 345.24219 L 388.25391 347.66797 C 387.55925 351.14129 384.95417 351.84177 373.88281 351.53516 C 366.23991 351.32359 364.19408 351.01024 363.0625 349.87695 C 361.29631 348.1079 360.664 339.71719 361.93945 334.98047 C 363.09231 330.69917 364.29066 330.32206 376.28516 330.47461 C 385.71025 330.59445 387.73438 331.23148 387.73438 334.07812 C 387.73437 335.42352 388.40293 335.58789 393.86328 335.58789 L 399.99414 335.58789 L 399.64453 330.77344 C 399.38058 327.12458 398.83452 325.46476 397.38867 323.92578 C 394.71577 321.08053 391.40547 320.29629 379.11328 320.36914 z M 239.57617 321.11719 L 239.84961 337.54883 C 240.10128 352.71972 240.25069 354.15673 241.80273 356.25195 C 244.31669 359.64563 247.39976 360.82082 255.40625 361.43359 C 264.02431 362.0933 279.98865 361.57643 284.01562 360.50781 C 287.50627 359.58149 290.17055 356.88824 291.2207 353.22656 C 291.65258 351.72071 292.00586 343.87999 292.00586 335.80273 L 292.00586 321.11719 L 285.97266 321.11719 L 279.93945 321.11719 L 279.93945 333.13086 C 279.93945 344.74462 279.2819 348.97215 277.27539 350.24805 C 276.75002 350.58213 271.74436 350.85649 266.15234 350.86719 C 251.68542 350.88472 252.26412 351.54991 251.91797 334.46094 L 251.64648 321.11719 L 245.61133 321.11719 L 239.57617 321.11719 z M 437.20508 380.58008 L 404.42578 380.61133 L 371.64453 380.64453 L 371.64453 448.21484 L 371.64453 515.78711 L 384.11328 515.78711 L 396.58203 515.78711 L 396.58203 489.64258 L 396.58203 463.5 L 403.79297 463.5 C 409.83926 463.5 411.1274 463.72787 411.75586 464.9082 C 412.16814 465.68241 416.74102 477.3554 421.91992 490.84961 C 427.0988 504.34392 431.50294 515.65638 431.70508 515.98828 C 432.04352 516.54378 456.91406 516.89846 456.91406 516.34766 C 456.91406 516.21346 452.3768 504.37497 446.83203 490.04102 L 436.75195 463.98047 L 445.22461 455.48047 L 453.69727 446.98242 L 453.67773 422.46094 L 453.66016 397.9375 L 445.43359 389.25977 L 437.20508 380.58008 z M 0 380.60352 L 0 448.19531 L 0 515.78711 L 12.460938 515.78711 L 24.921875 515.78711 L 25.130859 479.09375 L 25.339844 442.40039 L 40.572266 479.09375 L 55.806641 515.78711 L 68.527344 515.78711 L 81.248047 515.78711 L 81.248047 448.21484 L 81.248047 380.64453 L 68.779297 380.64453 L 56.310547 380.64453 L 56.310547 417.37891 C 56.310547 437.58341 56.069091 453.87375 55.775391 453.58008 C 55.481721 453.28642 48.473342 436.84716 40.201172 417.04688 L 25.162109 381.04688 L 12.580078 380.82422 L 0 380.60352 z M 366.81836 380.63086 L 321.16797 380.83789 L 275.51562 381.04688 L 275.51562 393.51367 L 275.51562 405.98242 L 292.60938 406.20117 L 309.70508 406.41797 L 309.70508 461.10156 L 309.70508 515.78711 L 322.17188 515.78711 L 334.64062 515.78711 L 334.64062 461.08594 L 334.64062 406.38477 L 350.73047 406.38477 L 366.81836 406.38477 L 366.81836 393.50781 L 366.81836 380.63086 z M 109.0293 380.64453 L 101.17188 388.47266 L 93.3125 396.30078 L 93.3125 448.18555 L 93.3125 500.07227 L 101.14062 507.92969 L 108.96875 515.78711 L 134.7793 515.78711 L 160.58984 515.78711 L 167.97656 508.25391 L 175.36523 500.7207 L 175.36523 448.53906 L 175.36523 396.35938 L 167.53711 388.50195 L 159.70898 380.64453 L 134.36914 380.64453 L 109.0293 380.64453 z M 203.14648 380.64453 L 195.28906 388.47266 L 187.43164 396.30078 L 187.43164 420.43359 L 187.43164 444.56836 L 195.66211 452.82812 L 203.89258 461.08594 L 224.21875 461.08594 L 244.54492 461.08594 L 244.54492 475.96875 L 244.54492 490.84961 L 215.98828 490.84961 L 187.43164 490.84961 L 187.43164 495.46094 L 187.43164 500.07227 L 195.25977 507.92969 L 203.08789 515.78711 L 228.83008 515.78711 L 254.57031 515.78711 L 262.02734 508.36328 L 269.48242 500.9375 L 269.48242 475.93359 L 269.48242 450.92969 L 261.55078 443.13672 L 253.61914 435.3457 L 233.39648 435.3457 L 213.17383 435.3457 L 213.17383 420.46289 L 213.17383 405.58008 L 241.32812 405.58008 L 269.48242 405.58008 L 269.48242 400.9707 L 269.48242 396.35938 L 261.6543 388.50195 L 253.82617 380.64453 L 228.48633 380.64453 L 203.14648 380.64453 z M 475.84766 380.64453 L 467.99023 388.47266 L 460.13281 396.30078 L 460.13281 448.18555 L 460.13281 500.07227 L 467.96094 507.92969 L 475.78711 515.78711 L 501.5293 515.78711 L 527.27148 515.78711 L 534.72656 508.36328 L 542.18359 500.9375 L 542.18359 448.64844 L 542.18359 396.35938 L 534.35547 388.50195 L 526.52734 380.64453 L 501.1875 380.64453 L 475.84766 380.64453 z M 555.85938 380.64453 L 555.85938 448.21484 L 555.85938 515.78711 L 568.31836 515.78711 L 580.77539 515.78711 L 580.98633 485.88867 L 581.19727 455.99023 L 588.55078 474.42578 L 595.90234 492.86133 L 602.17773 492.86133 L 608.45117 492.86133 L 615.74023 475.02539 C 619.74914 465.21585 623.29903 456.9215 623.63086 456.5918 C 623.9627 456.26211 624.23438 469.44682 624.23438 485.89062 L 624.23438 515.78711 L 636.70898 515.78711 L 649.18164 515.78711 L 648.97656 448.41602 L 648.76953 381.04688 L 636.30078 381.04688 L 623.83203 381.04688 L 613.375 412.1582 C 607.62334 429.27016 602.68896 443.49522 602.41016 443.76953 C 602.13134 444.04375 597.10797 429.95385 591.24609 412.45703 L 580.58789 380.64453 L 568.22266 380.64453 L 555.85938 380.64453 z M 677.69727 380.64453 L 670.26172 388.11133 L 662.82422 395.58008 L 662.82422 448.21484 L 662.82227 500.85156 L 670.25977 508.31836 L 677.69727 515.78711 L 703.43945 515.78711 L 729.18164 515.78711 L 736.63867 508.36328 L 744.09375 500.9375 L 744.09375 448.64844 L 744.09375 396.35938 L 736.26562 388.50195 L 728.4375 380.64453 L 703.06836 380.64453 L 677.69727 380.64453 z M 150.42773 405.54688 L 150.42773 448.19922 L 150.42773 490.84961 L 134.33203 490.84961 L 118.23633 490.84961 L 118.44531 448.41602 L 118.65234 405.98242 L 134.54102 405.76562 L 150.42773 405.54688 z M 517.24609 405.54688 L 517.24609 448.19922 L 517.24609 490.84961 L 501.15039 490.84961 L 485.05469 490.84961 L 485.26367 448.41602 L 485.4707 405.98242 L 501.35938 405.76562 L 517.24609 405.54688 z M 719.1582 405.54688 L 719.1582 448.19922 L 719.1582 490.84961 L 703.0625 490.84961 L 686.9668 490.84961 L 687.17383 448.41602 L 687.38281 405.98242 L 703.26953 405.76562 L 719.1582 405.54688 z M 396.58203 406.38477 L 412.6875 406.38477 L 428.79297 406.38477 L 428.57422 422.27344 L 428.35742 438.16016 L 412.46875 438.37891 L 396.58203 438.5957 L 396.58203 422.49023 L 396.58203 406.38477 z M 284.14648 540.46875 L 279.63086 544.1875 C 277.14666 546.2326 275.11328 548.34065 275.11328 548.87305 C 275.11328 549.40535 275.98724 550.66116 277.05469 551.66406 L 278.99609 553.48828 L 283.16211 550.19531 C 285.45374 548.38391 287.657 547.10346 288.05859 547.35156 C 288.4602 547.59976 288.78906 551.94591 288.78906 557.00781 L 288.78906 566.21094 L 292.81055 566.21094 L 296.83398 566.21094 L 296.83398 553.33984 L 296.83398 540.46875 L 290.49023 540.46875 L 284.14648 540.46875 z M 318.53711 540.46875 C 304.93635 540.46875 303.30395 541.2203 303.28125 547.5 C 303.27205 550.0514 303.6755 551.16722 304.88086 551.91992 C 306.48348 552.92082 306.48316 552.93438 304.75977 554.23438 C 303.46125 555.21377 303.00501 556.45384 302.94531 559.18164 C 302.84991 563.54304 304.67008 565.97285 308.38086 566.43945 C 313.4452 567.07625 324.66386 566.95913 327.78125 566.23633 C 329.53916 565.82883 331.44097 564.86224 332.00586 564.08984 C 333.61053 561.89524 333.30175 556.24667 331.48828 554.60547 C 329.96669 553.22847 329.96669 553.18762 331.48828 551.66602 C 333.73474 549.41952 333.52538 544.91006 331.05859 542.44336 C 329.163 540.54786 328.66257 540.46875 318.53711 540.46875 z M 359.9375 540.49805 C 358.16083 540.50173 355.83934 540.54923 352.74805 540.61328 C 336.95964 540.94058 337.55351 540.47632 337.19141 552.79492 C 336.87471 563.56822 337.69006 565.29043 343.5625 566.24023 C 348.47221 567.03463 357.58987 567.04748 362.3418 566.26758 C 368.46812 565.26218 369.23242 563.81644 369.23242 553.21484 C 369.23242 544.88194 369.12505 544.31052 367.20117 542.38672 C 365.68506 540.87052 365.26752 540.487 359.9375 540.49805 z M 391.67773 540.5332 C 390.08314 540.53003 388.15387 540.55675 385.79883 540.60938 C 372.56109 540.90528 371.82244 541.21467 371.07422 546.79297 L 370.62891 550.12109 L 374.70117 550.12109 C 377.94101 551.71449 378.80137 549.9172 379.0293 548.3125 C 379.27207 546.6031 379.70413 546.48883 386.78516 546.26953 L 394.28125 546.03711 L 394.02344 548.28125 C 393.77463 550.44825 393.56324 550.54488 387.73438 551.14648 C 372.02085 552.76828 371.64453 552.99852 371.64453 560.98242 L 371.64453 566.21094 L 386.92969 566.21094 L 402.21289 566.21094 L 402.21289 563.39453 L 402.21289 560.58008 L 390.54883 560.58008 C 381.01791 562.21658 378.88477 560.38026 378.88477 559.41016 C 378.88477 558.07436 381.04736 557.64303 390.86719 557.01953 C 394.74788 556.77303 398.38366 556.08851 399.41602 555.41211 C 402.92057 553.11581 402.87651 543.88121 399.34961 541.57031 C 398.22303 540.83171 396.46153 540.54273 391.67773 540.5332 z M 458.9668 540.55078 C 457.69466 540.55456 456.27062 540.57768 454.67188 540.61328 C 439.79041 540.94468 440.02148 540.73833 440.02148 553.70703 C 440.02148 563.93923 440.62449 565.15104 446.25781 566.24414 C 454.15416 567.77654 466.93128 566.58614 468.71094 564.15234 C 470.41415 561.82304 470.10868 553.66333 468.24805 551.80273 C 465.53766 549.09223 451.3745 548.60483 448.26562 551.11523 C 446.91209 552.20823 446.87556 548.41545 448.22656 547.06445 C 449.42007 545.87095 462.54492 545.7242 462.54492 546.9043 C 462.54492 547.3467 464.39415 547.70898 466.6543 547.70898 C 470.72789 547.70898 470.75938 547.68899 470.24023 545.49609 C 469.27883 541.43513 467.87174 540.52431 458.9668 540.55078 z M 420.74414 540.7168 C 414.56838 540.70128 408.39515 541.18298 407.4043 542.17383 C 405.7015 543.87653 405.6172 550.89749 407.28516 552.11719 C 408.30832 552.86529 408.25173 553.25309 406.86719 554.96289 C 405.63066 556.49019 405.35581 557.73925 405.66016 560.43945 C 406.1363 564.66385 406.85368 565.47038 410.82031 566.23828 C 415.10608 567.06758 426.06077 567.07796 430.32031 566.25586 C 432.28504 565.87666 434.36604 564.9172 434.94531 564.125 C 436.49491 562.0059 436.24628 557.03997 434.48047 554.85938 C 433.12195 553.18168 433.09221 552.88646 434.21094 552.06836 C 435.9782 550.77616 435.89833 544.04473 434.09375 542.24023 C 433.09791 541.24443 426.9199 540.73231 420.74414 540.7168 z M 316.00195 546.21484 C 316.67249 546.21675 317.41235 546.23525 318.22656 546.26562 C 324.1248 546.48573 324.60533 546.6336 324.84375 548.3125 C 325.09324 550.0695 324.89659 550.12109 318.18164 550.12109 C 312.64176 550.12109 311.16667 549.87073 310.7793 548.86133 C 310.0349 546.92137 311.30822 546.20148 316.00195 546.21484 z M 420.71484 546.50195 C 427.19326 546.50195 427.56699 546.5976 427.81055 548.3125 C 428.06103 550.0765 427.87874 550.12109 420.71484 550.12109 C 413.55085 550.12109 413.37061 550.0762 413.62109 548.3125 C 413.86466 546.5975 414.23642 546.50195 420.71484 546.50195 z M 353.14258 546.9043 C 356.82506 546.9043 359.64122 547.28774 360.22266 547.86914 C 361.73825 549.38474 361.4886 558.68371 359.91602 559.28711 C 357.597 560.17701 347.06879 559.81495 346.06445 558.81055 C 344.81113 557.55725 344.81113 549.12244 346.06445 547.86914 C 346.64589 547.28774 349.46008 546.9043 353.14258 546.9043 z M 316.58594 555.81836 C 320.14449 555.76737 324.29607 556.34691 325.14258 557.19336 C 325.61769 557.66856 325.78953 558.62496 325.52344 559.31836 C 325.13361 560.33426 323.62771 560.58008 317.77344 560.58008 C 310.59606 560.58008 310.50781 560.55627 310.50781 558.60547 C 310.50781 556.97977 311.01385 556.53575 313.36914 556.09375 C 314.27916 555.92305 315.39975 555.83536 316.58594 555.81836 z M 452.60547 555.875 C 453.3448 555.87508 454.17143 555.89151 455.0918 555.92188 C 462.0155 556.15027 462.14258 556.19152 462.14258 558.16602 C 462.14258 560.14052 462.0155 560.18166 455.0918 560.41016 C 449.33882 560.59986 447.95205 560.4144 447.56445 559.4043 C 446.52399 556.69293 447.43015 555.87446 452.60547 555.875 z M 420.64453 556.1543 C 427.27869 556.1543 429.18529 556.92318 428.29688 559.23828 C 427.87051 560.34938 426.57022 560.58008 420.71484 560.58008 C 413.4581 560.58008 411.92032 559.87656 413.51953 557.28906 C 414.02766 556.46686 415.9853 556.1543 420.64453 556.1543 z "
       transform="translate(0,485.43308)"
       id="path4225-6" />
    <g
       id="g4572"
       transform="matrix(0.64573638,0,0,0.64573638,150.89271,223.31841)"
       style="fill:#ffffff" />
  </g>
</svg>
