<?xml version="1.0" encoding="UTF-8" standalone="no"?>
<!-- Created with Inkscape (http://www.inkscape.org/) -->

<svg
   xmlns:dc="http://purl.org/dc/elements/1.1/"
   xmlns:cc="http://creativecommons.org/ns#"
   xmlns:rdf="http://www.w3.org/1999/02/22-rdf-syntax-ns#"
   xmlns:svg="http://www.w3.org/2000/svg"
   xmlns="http://www.w3.org/2000/svg"
   xmlns:sodipodi="http://sodipodi.sourceforge.net/DTD/sodipodi-0.dtd"
   xmlns:inkscape="http://www.inkscape.org/namespaces/inkscape"
   width="260.00012mm"
   height="198.5392mm"
   viewBox="0 0 921.26026 703.48535"
   id="svg2"
   version="1.1"
   inkscape:version="0.91 r13725"
   sodipodi:docname="nostromo-2.svg">
  <defs
     id="defs4">
    <clipPath
       id="clipPath16"
       clipPathUnits="userSpaceOnUse">
      <path
         inkscape:connector-curvature="0"
         id="path18"
         d="M 0,612 792,612 792,0 0,0 0,612 Z" />
    </clipPath>
    <clipPath
       id="clipPath26"
       clipPathUnits="userSpaceOnUse">
      <path
         inkscape:connector-curvature="0"
         id="path28"
         d="M 0,612 792,612 792,0 0,0 0,612 Z" />
    </clipPath>
  </defs>
  <sodipodi:namedview
     id="base"
     pagecolor="#252525"
     bordercolor="#666666"
     borderopacity="1.0"
     inkscape:pageopacity="0"
     inkscape:pageshadow="2"
     inkscape:zoom="0.7"
     inkscape:cx="98.069731"
     inkscape:cy="258.33272"
     inkscape:document-units="mm"
     inkscape:current-layer="layer1"
     showgrid="true"
     inkscape:snap-bbox="true"
     inkscape:bbox-paths="true"
     inkscape:bbox-nodes="true"
     inkscape:snap-bbox-edge-midpoints="true"
     inkscape:snap-bbox-midpoints="true"
     inkscape:object-paths="true"
     inkscape:snap-intersection-paths="true"
     inkscape:object-nodes="true"
     inkscape:snap-smooth-nodes="true"
     inkscape:snap-midpoints="true"
     inkscape:snap-object-midpoints="true"
     inkscape:snap-center="true"
     inkscape:window-width="1920"
     inkscape:window-height="1029"
     inkscape:window-x="1600"
     inkscape:window-y="25"
     inkscape:window-maximized="1"
     inkscape:snap-global="false"
     showborder="true"
     borderlayer="false"
     inkscape:showpageshadow="false"
     fit-margin-top="0"
     fit-margin-left="0"
     fit-margin-right="0"
     fit-margin-bottom="0" />
  <metadata
     id="metadata7">
    <rdf:RDF>
      <cc:Work
         rdf:about="">
        <dc:format>image/svg+xml</dc:format>
        <dc:type
           rdf:resource="http://purl.org/dc/dcmitype/StillImage" />
        <dc:title></dc:title>
      </cc:Work>
    </rdf:RDF>
  </metadata>
  <g
     inkscape:label="Layer 1"
     inkscape:groupmode="layer"
     id="layer1"
     transform="translate(0,-348.87521)">
    <path
       style="fill:#ff9903;fill-opacity:1"
       d="m 0,348.87521 0,330.59594 921.25984,0 0,-330.59594 -921.25984,0 z m 299.79829,42.17991 2.35286,0 c 0.72319,-0.007 1.43166,0.16551 2.05301,0.5199 0.42875,0.2445 0.81363,0.57245 1.12204,0.97452 0.15515,0.20226 0.24345,0.37308 0.30469,0.48847 l 0,0.005 14.91518,28.44478 -9.50093,0 -3.06864,-6.12036 -14.64678,0 -2.9695,6.12036 -8.75614,0 14.70965,-28.43995 0.002,-0.005 c 0.0612,-0.11527 0.15028,-0.28638 0.30711,-0.49089 0.30845,-0.40208 0.6933,-0.73002 1.12203,-0.97452 0.62142,-0.35443 1.32997,-0.5263 2.05301,-0.5199 l 0,-0.002 z m 59.69705,0 17.67672,0 c 4.62053,0 8.41784,1.147 11.19848,3.54502 8.1e-4,8e-4 10e-4,0.004 0.002,0.005 3.10738,2.6415 4.64528,6.59954 4.64528,11.50559 0,5.70399 -2.08982,10.20237 -6.18807,12.99517 l 0,0.002 -0.005,0.002 c -2.50442,1.68633 -6.21172,2.37705 -11.1864,2.37705 l -16.14361,0 0,-29.18958 0,-1.24051 0,-0.002 z m 92.91043,0 8.42244,0 0,22.69682 14.45091,0 0,-22.69682 8.42002,0 0,22.58317 c 0,2.74113 -0.40774,4.81111 -1.75075,6.13003 -1.28388,1.29458 -3.2659,1.71931 -5.82533,1.71931 l -16.13879,0 c -2.56445,0 -4.55736,-0.43066 -5.86645,-1.70964 l -0.01,-0.007 -0.007,-0.005 c -1.30875,-1.32593 -1.69513,-3.3833 -1.69513,-6.12519 l 0,-21.34266 0,-1.24051 0,-0.002 z m 188.73475,0 22.85642,0 0,7.46485 -22.01249,0 0,15.23439 22.01249,0 0,7.73327 -22.85642,0 c -2.56389,0 -4.55869,-0.42724 -5.86887,-1.70722 l -0.007,-0.01 -0.01,-0.005 c -1.30975,-1.32701 -1.69029,-3.38624 -1.69029,-6.12761 l 0,-14.73383 c 0,-2.74138 0.38103,-4.79872 1.69029,-6.12519 l 0.01,-0.005 0.007,-0.007 c 1.30969,-1.27945 3.30441,-1.70964 5.86887,-1.70964 l 0,-0.002 z m 38.4366,0 18.81326,0 c 2.55892,0 4.53905,0.4223 5.82293,1.71689 1.34299,1.31894 1.75317,3.39079 1.75316,6.13245 l 0,14.73383 c 0,2.74284 -0.41167,4.81409 -1.75557,6.13245 -1.28339,1.29286 -3.26209,1.71689 -5.82052,1.71689 l -18.81326,0 c -2.56444,0 -4.55734,-0.43068 -5.86644,-1.70964 l -0.01,-0.007 -0.007,-0.007 c -1.30878,-1.32593 -1.69513,-3.3833 -1.69513,-6.12519 l 0,-14.73383 c 0,-2.7419 0.38586,-4.80115 1.69513,-6.12761 l 0.007,-0.005 0.01,-0.007 c 1.30967,-1.27949 3.30257,-1.70722 5.86644,-1.70722 l 0,-0.002 z m -546.87591,0.002 9.31232,0 6.19291,16.51843 6.47824,-16.51843 6.19289,0 6.604,16.48216 5.89788,-16.48216 8.41277,0 -11.62167,30.43009 -6.04297,0 -6.78051,-17.21486 -6.87724,17.21486 -6.14696,0 -10.97843,-28.74705 -0.64323,-1.68304 z m 57.45783,0 0.002,0 20.94366,0 0.005,0 0,0.007 0,3.61999 0,3.61998 -18.97286,0 c -0.16633,0.007 -0.30522,0.0409 -0.41593,0.0919 -0.14622,0.0675 -0.28544,0.16766 -0.40624,0.29985 -0.22445,0.24558 -0.38622,0.61378 -0.40142,1.05431 l 0,2.30209 11.78125,0 0,7.24722 -11.78125,0 0,3.00335 c 0.0152,0.44057 0.17699,0.80876 0.40142,1.05431 0.12083,0.13218 0.26004,0.23479 0.40624,0.30227 0.12319,0.0567 0.26574,0.0903 0.43526,0.0943 l 19.2026,0 0,7.73327 -21.19999,0 c -4.28902,0 -7.66798,-3.76822 -7.66798,-8.27252 l 0,-13.88505 c 0,-4.50431 2.48016,-8.30958 7.66798,-8.27252 z m 22.47919,0 11.16222,0 8.17821,10.00633 8.22172,-10.00633 10.2796,0 -14.69031,16.97788 0,13.45221 -8.4708,0 0,-13.29261 -14.68064,-17.13748 z m 39.36035,0 8.42243,0 0,21.19756 c 0.002,0.45683 0.17197,0.84346 0.4111,1.1051 0.12083,0.13219 0.25761,0.23238 0.40383,0.29985 0.11774,0.0543 0.26014,0.0895 0.43042,0.0943 l 17.91371,0 0,7.73327 -19.91352,0 c -4.2886,0 -7.66797,-3.76581 -7.66797,-8.2701 l 0,-20.91948 0,-1.24051 z m 74.767,0 0.005,0 0.37239,0 0.1209,0.0822 c 0.7298,0.0902 1.43868,0.32301 2.02885,0.77139 l 0.0435,0.0338 17.35996,15.90664 0.005,0.002 c 0.28979,0.26829 0.40948,0.447 0.66984,0.69885 -0.0173,-0.41418 -0.0798,-1.3437 -0.0798,-1.57664 l 0,-15.91873 7.82757,0 0,26.2491 0,1.30338 c -0.55893,1.65469 -2.35026,2.87601 -4.17858,2.87761 l -0.002,0 -0.002,0 c -0.89663,-10e-4 -1.76894,-0.2918 -2.48829,-0.82701 l 0.0508,0.0387 -0.0846,-0.058 -18.05397,-16.62724 c -0.2029,-0.18688 0.0556,0.71714 0.0556,0.96 l 0,16.5136 -7.82758,0 0,-27.56941 c 0.56383,-1.64616 2.35784,-2.85828 4.17858,-2.86068 z m 85.98483,0 11.21058,0 8.17821,10.00633 8.22173,-10.00633 10.27959,0 -14.69031,16.97788 0,13.45221 -8.47081,0 0,-13.29261 -12.96615,-15.0893 -1.76284,-2.04818 z m 74.52519,0 31.9366,0 0,7.46485 -11.78126,0 0,22.96524 -8.42245,0 0,-22.96524 -11.73289,0 0,-6.22434 0,-1.24051 z m 44.68513,0 2.35528,0 c 0.72402,-0.007 1.43491,0.16631 2.05543,0.5199 0.42796,0.24386 0.81222,0.5686 1.12203,0.9721 0.15272,0.19903 0.23181,0.35871 0.27809,0.44494 l 0,0.005 14.93454,28.48831 -9.49853,0 -3.06865,-6.12036 -14.64677,0 -2.97191,6.12036 -8.75374,0 14.729,-28.47864 0.01,-0.007 c 0.0468,-0.0868 0.12183,-0.24864 0.27809,-0.4522 0.30981,-0.40354 0.69648,-0.72824 1.12444,-0.9721 0.62077,-0.35375 1.32982,-0.5263 2.05303,-0.5199 z m 28.6745,0 0.005,0 c 0.91048,0.002 1.79467,0.30039 2.51972,0.85119 l 0.0459,0.0363 17.35996,15.90664 0,0.002 c 0.2893,0.2678 0.40996,0.44501 0.66982,0.69643 -0.0173,-0.41356 -0.0798,-1.34151 -0.0798,-1.57422 l 0,-15.91873 7.82758,0 0,27.55248 c -0.55893,1.6547 -2.35023,2.87601 -4.17858,2.87761 -1.60376,0.0266 -2.23922,-0.58278 -2.23922,-0.58278 l -18.33688,-16.89082 c 0.007,0.2757 0.0532,0.71716 0.0532,0.96 l 0,16.5136 -7.82756,0 0,-27.56941 c 0.1769,-1.86725 2.36025,-2.85828 4.18099,-2.86068 z m 36.03779,0 8.42003,0 0,30.43009 -8.42003,0 0,-29.18958 0,-1.24051 z m 118.17777,0 0.002,0 23.12242,0 c 2.10913,0 3.9006,0.50683 5.15793,1.69271 1.25734,1.18587 1.82571,2.93975 1.82571,4.96448 l 0,6.5532 c 0,1.50549 -0.27291,2.83156 -0.91648,3.92225 -0.64279,1.08924 -1.67401,1.88737 -2.90421,2.29242 l -0.007,0.002 c -0.63658,0.21126 -1.35351,0.27766 -2.41574,0.34338 -0.24664,0.0162 -0.6737,0.0102 -0.95275,0.0218 l 11.86589,10.63747 -12.2794,0 -10.29651,-10.56251 -3.88115,0 0,10.56251 -8.32087,0 0,-29.18958 0,-1.24051 z m 38.53332,0 23.12242,0 c 2.10914,0 3.90059,0.50684 5.15794,1.69271 1.25733,1.18587 1.82571,2.93975 1.82571,4.96448 l 0,6.22917 c 0,2.02471 -0.56838,3.77861 -1.82571,4.96448 -1.25735,1.18586 -3.0488,1.6927 -5.15794,1.6927 l -14.80153,0 0,10.88655 -8.32089,0 0,-29.18958 0,-1.24051 z m -30.21245,7.30041 0,5.31995 12.12706,0 c 0.81218,0 1.16764,-0.15414 1.22117,-0.15476 l 0.0411,-0.029 0.0435,-0.0242 c -0.0111,0.006 0.12815,-0.0507 0.12815,-0.77139 l 0,-3.35882 c 0,-0.72073 -0.13728,-0.77619 -0.12815,-0.7714 l -0.0435,-0.0242 -0.0411,-0.029 c 0.0421,0.0293 -0.41049,-0.15719 -1.22117,-0.15719 l -12.12706,0 z m 38.53334,0 0,4.94272 12.12706,0 c 0.81079,0 1.18253,-0.12634 1.22358,-0.15718 l 0.0387,-0.029 0.0459,-0.0242 c -0.0111,0.006 0.12574,-0.0507 0.12574,-0.77139 l 0,-2.97917 c 0,-0.72073 -0.13487,-0.77619 -0.12574,-0.7714 l -0.0459,-0.0242 -0.0387,-0.029 c 0.0421,0.0293 -0.41277,-0.15719 -1.22358,-0.15719 l -12.12706,0 z m -393.78723,0.16444 0,15.22955 6.43472,0 c 3.51532,0 5.96684,-0.53303 7.27141,-1.3324 1.83099,-1.11957 2.77362,-3.06331 2.77362,-6.41779 0,-2.70759 -0.64005,-4.52425 -1.75559,-5.68025 -1.11552,-1.15602 -2.91507,-1.13276 -5.41908,-1.79911 l -9.30508,0 z m 312.50329,0 0,15.22955 17.12539,0 0,-15.22955 -17.12539,0 z m -379.67002,2.00223 -3.66593,7.32702 7.20369,0 -3.53776,-7.32702 z m 232.16727,0 -3.66592,7.32702 7.20126,0 -3.53534,-7.32702 z m -131.85969,1.25745 14.01322,0 0,8.05971 -14.01322,0 0,-6.8192 0,-1.24051 z m -264.21268,38.66633 82.87265,0 106.95027,106.95026 106.94541,-106.95026 27.01566,0 27.01806,0 106.94784,106.95026 106.95025,-106.95026 82.87025,0 0,39.67471 -157.16812,157.16812 -65.30959,0 -101.30869,-101.31112 -101.30628,101.31112 -65.31202,0 -157.16569,-157.16812 0,-33.0804 0,-6.59431 z m 137.30779,0 80.88736,0 29.22585,29.22585 -56.96211,56.96452 -53.1511,-53.14867 0,-26.44739 0,-6.59431 z m 292.06503,0 80.88735,0 0,33.0417 -53.14626,53.14867 -56.96694,-56.96452 27.29615,-27.29374 1.9297,-1.93211 z m -105.58883,115.65321 47.89885,47.89643 0,5.34172 0,27.95147 -47.89885,0 -47.89645,0 0,-27.95147 0,-5.34172 43.23665,-43.23423 4.6598,-4.6622 z m -54.87766,190.93285 c -12.11821,-0.11029 -30.22012,0.77309 -32.4686,1.90067 -3.80644,1.909 -5.77586,6.74287 -5.77214,14.1704 0.007,11.78936 4.29554,14.78222 21.20966,14.7967 3.94441,0.003 10.8792,0.29305 15.40849,0.64564 7.72455,0.60131 8.27256,0.79522 8.86013,3.13636 1.08429,4.32017 -1.5083,5.17486 -15.72045,5.17486 -13.08675,-10e-6 -15.81716,-0.78609 -15.81716,-4.5534 0,-1.10651 -1.65994,-1.42188 -7.46969,-1.42188 l -7.46968,0 0.005,2.73736 c 0.003,1.50637 0.47201,4.42015 1.04223,6.47341 1.39913,5.03808 5.27192,6.94597 15.88488,7.83 11.92725,0.99361 33.43665,0.0941 37.40647,-1.56456 5.08251,-2.12356 6.82913,-5.65783 6.87481,-13.92133 0.0455,-8.23517 -1.72802,-11.90354 -6.76116,-13.9842 -1.84454,-0.76265 -9.79272,-1.58726 -19.09618,-1.98289 -19.26453,-0.81903 -19.62926,-0.9016 -19.22919,-4.30915 0.37935,-3.23113 2.65047,-3.95791 12.75577,-4.07702 10.4274,-0.12336 15.09801,0.77909 15.68659,3.02996 0.41408,1.58339 1.52588,1.84021 7.96541,1.84021 l 7.48178,0 -0.52958,-4.69848 c -0.6698,-5.94248 -4.59411,-9.80309 -10.93249,-10.75354 -1.90117,-0.28511 -5.27533,-0.43237 -9.31473,-0.46912 z m 122.91008,0.0339 c -18.97008,0.0618 -22.84141,0.84121 -26.10884,5.24739 -1.70323,2.29681 -2.08445,4.25334 -2.08445,10.68343 0,7.14374 0.23942,8.11043 2.5826,10.45369 3.27978,3.27969 7.97463,4.35114 19.82646,4.52679 5.20388,0.077 12.37513,0.42462 15.93566,0.7714 5.77944,0.56292 6.50691,0.87642 6.79744,2.92597 0.64339,4.53841 -1.11305,5.17486 -14.30823,5.17486 -13.79016,0 -15.18325,-0.30777 -16.44347,-3.62241 -0.82368,-2.16644 -1.45416,-2.35287 -7.89287,-2.35287 l -6.99572,0 0,4.75652 c 0,8.68267 3.35489,11.18618 16.43378,12.26489 12.55311,1.03557 33.86376,0.14231 38.01827,-1.59356 4.29164,-1.79319 6.30172,-6.37037 6.30172,-14.35419 0,-11.59587 -2.76656,-13.93516 -17.84599,-15.09897 -5.79734,-0.44751 -13.95799,-0.83555 -18.13619,-0.86328 -7.99831,-0.0533 -10.33299,-1.19805 -9.65329,-4.7275 0.42593,-2.21158 3.96638,-3.02097 13.8899,-3.17504 9.86026,-0.153 13.95678,0.69862 14.56456,3.0227 0.41434,1.58446 1.52253,1.84022 7.96057,1.84022 l 7.48178,0 -0.47879,-4.99109 c -0.91674,-9.54061 -4.83661,-10.97104 -29.8449,-10.88895 z m 64.65185,0.0121 c -9.27266,0.0444 -18.35456,0.46585 -20.54466,1.23326 -5.00758,1.75453 -7.18897,5.35572 -7.79131,12.85976 -0.61101,7.61163 1.31219,12.75131 5.50374,14.70239 1.54361,0.71858 10.12313,1.63059 20.12148,2.13765 9.58609,0.48629 17.98829,1.09142 18.67301,1.3445 1.58571,0.58595 1.61938,4.73061 0.0508,6.2993 -1.27494,1.27488 -24.09725,1.74588 -27.18492,0.56102 -0.90841,-0.34864 -2.05406,-1.69413 -2.54632,-2.98885 -0.82366,-2.16644 -1.45416,-2.35287 -7.89286,-2.35287 l -6.99573,0 0,4.75652 c -1e-5,8.68267 3.35488,11.18618 16.43379,12.26489 12.5531,1.03557 33.86377,0.14231 38.01826,-1.59356 4.29164,-1.79319 6.30173,-6.37037 6.30173,-14.35419 0,-11.59587 -2.76416,-13.93516 -17.84358,-15.09897 -5.79733,-0.44751 -13.9604,-0.83555 -18.1386,-0.86328 -7.9983,-0.0533 -10.33303,-1.19805 -9.65329,-4.7275 0.42591,-2.21158 3.96638,-3.02097 13.8899,-3.17504 9.86028,-0.153 13.95677,0.69862 14.56455,3.0227 0.41435,1.58446 1.52495,1.84022 7.96301,1.84022 l 7.47935,0 -0.4788,-4.99109 c -0.58422,-6.08011 -2.53341,-8.40892 -8.24349,-9.84673 -2.94978,-0.74273 -12.41337,-1.07459 -21.68604,-1.03013 z m -123.93539,0.0169 c -2.17413,0.0129 -4.57701,0.0472 -7.23512,0.0991 -29.05259,0.56716 -29.94177,1.32759 -29.84247,25.48738 0.0323,7.85624 0.5624,15.13636 1.24535,17.11088 1.80527,5.219 6.20645,7.25636 17.53404,8.11775 5.25248,0.40004 15.05061,0.53194 21.77309,0.29502 19.05853,-0.67158 23.1321,-3.27749 23.1321,-14.78945 l 0,-5.52549 -7.34394,0 -7.34637,0 -0.5997,3.00335 c -0.86005,4.30031 -4.08539,5.16757 -17.7928,4.78796 -9.46265,-0.26195 -11.99559,-0.64991 -13.39659,-2.05303 -2.18672,-2.19025 -2.96958,-12.57876 -1.39045,-18.44328 1.42736,-5.30066 2.91103,-5.76756 17.76138,-5.57869 11.66917,0.14838 14.17524,0.93708 14.17524,4.4615 -2e-5,1.66573 0.82773,1.86924 7.58817,1.86924 l 7.59059,0 -0.43285,-5.96076 c -0.3268,-4.51764 -1.00287,-6.57265 -2.79297,-8.47806 -3.30931,-3.52269 -7.40778,-4.49366 -22.6267,-4.40346 z m -172.7604,0.92615 0.33854,20.34396 c 0.3116,18.78302 0.49658,20.56218 2.41816,23.15627 3.11252,4.2017 6.92966,5.6567 16.84247,6.41537 10.66999,0.81678 30.43538,0.17685 35.42116,-1.14621 4.32176,-1.14687 7.62039,-4.48138 8.92058,-9.01489 0.53471,-1.86439 0.9721,-11.57195 0.9721,-21.57238 l 0,-18.18212 -7.46968,0 -7.4697,0 0,14.87409 c 0,14.37895 -0.81411,19.61304 -3.29836,21.19273 -0.65046,0.41362 -6.84795,0.75331 -13.77141,0.76655 -17.91144,0.0217 -17.19495,0.84528 -17.62352,-20.31252 l -0.33613,-16.52085 -7.4721,0 -7.47211,0 z m 244.68365,73.6208 -40.58393,0.0387 -40.58635,0.0411 0,83.65857 0,83.66098 15.43751,0 15.43752,0 0,-32.36945 0,-32.36703 8.92784,0 c 7.48589,0 9.08073,0.28212 9.85883,1.74349 0.51044,0.95854 6.1721,15.41083 12.58408,32.11796 6.41196,16.70726 11.86471,30.71318 12.11497,31.1241 0.41903,0.68776 31.21115,1.12689 31.21115,0.44495 0,-0.16615 -5.61756,-14.82335 -12.48252,-32.57016 l -12.48011,-32.26547 10.48997,-10.52382 10.48997,-10.52141 -0.0242,-30.35996 -0.0217,-30.36238 L 551.4898,832.39019 541.30211,821.6439 Z M 0,821.6733 l 0,83.68516 0,83.68516 15.427843,0 15.427842,0 0.258743,-45.42992 0.258743,-45.42991 18.859208,45.42991 18.861626,45.42992 15.749457,0 15.749458,0 0,-83.66098 0,-83.65857 -15.437515,0 -15.437516,0 0,45.48071 c 0,25.01512 -0.298946,45.18413 -0.662574,44.82054 -0.363592,-0.36358 -9.040642,-20.71697 -19.282386,-45.23163 L 31.153118,822.22222 15.57535,821.94655 0,821.6733 Z m 454.15652,0.0338 -56.51959,0.25632 -56.52201,0.25875 0,15.43509 0,15.43752 21.16372,0.27083 21.16613,0.26842 0,67.70356 0,67.70598 15.4351,0 15.4375,0 0,-67.72532 0,-67.72533 19.92079,0 19.91836,0 0,-15.94292 0,-15.9429 z m -319.16773,0.0169 -9.72824,9.69198 -9.73067,9.69197 0,64.23835 0,64.24077 9.69196,9.72824 9.69198,9.72824 31.95596,0 31.95593,0 9.14548,-9.32682 9.14788,-9.32684 0,-64.60591 0,-64.60348 -9.69197,-9.72825 -9.69198,-9.72825 -31.37316,0 -31.37317,0 z m 116.52615,0 -9.72824,9.69198 -9.72825,9.69197 0,29.87875 0,29.88117 10.19012,10.22638 10.19011,10.22398 25.16576,0 25.16576,0 0,18.42635 0,18.42394 -35.35587,0 -35.35588,0 0,5.70927 0,5.70928 9.69198,9.72824 9.69197,9.72824 31.87131,0 31.86889,0 9.23252,-9.19141 9.23011,-9.19384 0,-30.95725 0,-30.95724 -9.82013,-9.64845 -9.82014,-9.64603 -25.0376,0 -25.03759,0 0,-18.42636 0,-18.42635 34.85772,0 34.85774,0 0,-5.70686 0,-5.70926 -9.69197,-9.72825 -9.69198,-9.72825 -31.37316,0 -31.37318,0 z m 337.63037,0 -9.72826,9.69198 -9.72824,9.69197 0,64.23835 0,64.24077 9.69198,9.72824 9.68955,9.72824 31.87131,0 31.87131,0 9.2301,-9.19141 9.23253,-9.19384 0,-64.7389 0,-64.7389 -9.69197,-9.72825 -9.69198,-9.72825 -31.37317,0 -31.37316,0 z m 99.06222,0 0,83.65857 0,83.66098 15.42542,0 15.42301,0 0.26116,-37.01715 0.26117,-37.01715 9.10435,22.82499 9.10194,22.82499 7.76954,0 7.76712,0 9.02456,-22.08262 c 4.96342,-12.14515 9.35853,-22.41436 9.76936,-22.82256 0.41085,-0.40819 0.74722,15.91575 0.74722,36.27477 l 0,37.01473 15.44476,0 15.44235,0 -0.2539,-83.4119 -0.25633,-83.4095 -15.43751,0 -15.43752,0 -12.94681,38.51882 c -7.12111,21.18625 -13.23035,38.79825 -13.57553,39.13787 -0.34521,0.33951 -6.56462,-17.10514 -13.8222,-38.76789 l -13.19587,-39.38695 -15.30935,0 -15.30694,0 z m 150.84707,0 -9.20593,9.24462 -9.20835,9.24704 0,65.16691 -0.002,65.16933 9.20834,9.24462 9.20835,9.24703 31.8713,0 31.87131,0 9.23252,-9.19141 9.23011,-9.19384 0,-64.7389 0,-64.7389 -9.69198,-9.72825 -9.69197,-9.72825 -31.40944,0 -31.41185,0 z m -652.81056,30.83151 0,52.80772 0,52.80529 -19.92803,0 -19.92803,0 0.25874,-52.53687 0.25632,-52.53689 19.67172,-0.26842 19.66928,-0.27083 z m 454.15652,0 0,52.80772 0,52.80529 -19.92803,0 -19.92803,0 0.25874,-52.53687 0.25632,-52.53689 19.67172,-0.26842 19.66928,-0.27083 z m 249.98667,0 0,52.80772 0,52.80529 -19.92803,0 -19.92803,0 0.25632,-52.53687 0.25874,-52.53689 19.66929,-0.26842 19.67171,-0.27083 z m -399.38042,1.03739 19.94013,0 19.94012,0 -0.27083,19.67171 -0.26842,19.66929 -19.67171,0.27084 -19.66929,0.2684 0,-19.94012 0,-19.94012 z m -139.20606,166.0089 -5.59077,4.6041 c -3.07568,2.5321 -5.5932,5.142 -5.5932,5.8012 0,0.659 1.08205,2.2139 2.40365,3.4555 l 2.40364,2.2586 5.15794,-4.077 c 2.83726,-2.2427 5.56511,-3.828 6.06231,-3.5208 0.49723,0.3073 0.90439,5.6882 0.90439,11.9553 l 0,11.3944 4.979,0 4.98139,0 0,-15.9357 0,-15.9356 -7.85417,0 -7.85418,0 z m 42.57892,0 c -16.83905,0 -18.86012,0.9305 -18.88823,8.7053 -0.0114,3.1589 0.48812,4.5404 1.98048,5.4723 1.98419,1.2392 1.9838,1.256 -0.14993,2.8656 -1.60769,1.2125 -2.17256,2.7479 -2.24647,6.1251 -0.11812,5.3999 2.13543,8.4082 6.72973,8.9859 6.27014,0.7884 20.15993,0.6434 24.01956,-0.2515 2.17646,-0.5045 4.53108,-1.7012 5.23047,-2.6575 1.98674,-2.7172 1.60444,-9.7106 -0.64081,-11.7426 -1.88388,-1.7049 -1.88388,-1.7554 0,-3.6393 2.78133,-2.7814 2.52212,-8.3646 -0.532,-11.4186 -2.34692,-2.3468 -2.9665,-2.4447 -15.5028,-2.4447 z m 51.25768,0.036 c -2.19969,0 -5.07392,0.063 -8.90124,0.1426 -19.54757,0.4052 -18.8123,-0.1696 -19.26062,15.0821 -0.3921,13.3383 0.61738,15.4706 7.88803,16.6466 6.07869,0.9835 17.36723,0.9994 23.25058,0.034 7.58498,-1.2448 8.53125,-3.0347 8.53125,-16.1605 0,-10.317 -0.13293,-11.0244 -2.51488,-13.4063 -1.87709,-1.8772 -2.39404,-2.352 -8.99312,-2.3383 z m 39.29746,0.043 c -1.97425,0 -4.36288,0.029 -7.27864,0.094 -16.3896,0.3663 -17.30412,0.7494 -18.23049,7.6559 l -0.55134,4.1205 5.04185,0 c 4.01124,1.9728 5.07645,-0.2524 5.35865,-2.2392 0.30057,-2.1164 0.8355,-2.2579 9.6025,-2.5294 l 9.28088,-0.2878 -0.31919,2.7785 c -0.30805,2.683 -0.56977,2.8026 -7.78646,3.5474 -19.45487,2.008 -19.92079,2.293 -19.92079,12.1779 l 0,6.4734 18.9245,0 18.92208,0 0,-3.487 0,-3.4846 -14.44123,0 c -11.8002,2.0262 -14.44124,-0.2474 -14.44124,-1.4484 0,-1.6539 2.6775,-2.1879 14.8354,-2.9599 4.80467,-0.3052 9.30611,-1.1527 10.58427,-1.9901 4.33897,-2.843 4.28442,-14.2764 -0.0822,-17.1375 -1.39481,-0.9144 -3.57572,-1.2722 -9.49853,-1.284 z m 83.31036,0.022 c -1.57503,0 -3.33813,0.033 -5.31752,0.077 -18.4247,0.4103 -18.13861,0.1548 -18.13861,16.2113 0,12.6685 0.74658,14.1688 7.72118,15.5222 9.77644,1.8973 25.59575,0.4234 27.79914,-2.5899 2.10874,-2.8839 1.73054,-12.9864 -0.5731,-15.29 -3.35573,-3.3558 -20.89109,-3.9593 -24.74018,-0.8512 -1.6758,1.3533 -1.72103,-3.3425 -0.0484,-5.0152 1.47768,-1.4777 17.72751,-1.6594 17.72751,-0.1983 0,0.5477 2.28953,0.9963 5.08781,0.9963 5.0435,0 5.08248,-0.025 4.43973,-2.7398 -1.19031,-5.0279 -2.93242,-6.1555 -13.9576,-6.1228 z m -47.32334,0.2056 c -7.64618,-0.019 -15.28924,0.5772 -16.51601,1.8039 -2.10823,2.1081 -2.2126,10.8008 -0.1475,12.3109 1.26677,0.9262 1.1967,1.4063 -0.51749,3.5232 -1.53094,1.891 -1.87123,3.4374 -1.49442,6.7805 0.58951,5.2302 1.47769,6.2288 6.38876,7.1795 5.3062,1.0268 18.86916,1.0396 24.14289,0.022 2.43252,-0.4695 5.009,-1.6574 5.72619,-2.6382 1.91856,-2.6237 1.61073,-8.772 -0.57552,-11.4717 -1.68197,-2.0772 -1.7188,-2.4427 -0.3337,-3.4556 2.18804,-1.5999 2.08915,-9.934 -0.14509,-12.1682 -1.23295,-1.2329 -8.88192,-1.8669 -16.52811,-1.8861 z m -129.68093,6.8071 c 0.83019,0 1.74621,0.025 2.75428,0.063 7.30259,0.2725 7.89753,0.4556 8.19272,2.5342 0.30889,2.1753 0.0654,2.2392 -8.24834,2.2392 -6.8589,0 -8.68521,-0.31 -9.16481,-1.5597 -0.92164,-2.4019 0.65486,-3.2932 6.46615,-3.2766 z m 129.64466,0.3555 c 8.02091,0 8.48362,0.1184 8.78517,2.2416 0.31012,2.184 0.0844,2.2392 -8.78517,2.2392 -8.86971,0 -9.09287,-0.056 -8.78275,-2.2392 0.30156,-2.1233 0.76184,-2.2416 8.78275,-2.2416 z m -83.66098,0.4981 c 4.55927,0 8.04594,0.4747 8.76582,1.1946 1.87645,1.8764 1.56736,13.3895 -0.37965,14.1365 -2.87117,1.1018 -15.90611,0.6535 -17.14958,-0.59 -1.55173,-1.5517 -1.55173,-11.9948 0,-13.5465 0.71988,-0.7199 4.20412,-1.1946 8.76341,-1.1946 z m -45.26065,11.0365 c 4.40583,-0.063 9.54589,0.6544 10.59395,1.7024 0.58823,0.5883 0.80099,1.7724 0.47154,2.6309 -0.48265,1.2578 -2.3471,1.5621 -9.59525,1.5621 -8.88629,0 -8.99555,-0.029 -8.99555,-2.4447 0,-2.0128 0.62653,-2.5625 3.5426,-3.1098 1.1267,-0.2113 2.5141,-0.3199 3.98271,-0.3409 z m 168.4053,0.07 c 0.91536,10e-5 1.93881,0.02 3.07832,0.058 8.57221,0.2828 8.72955,0.3339 8.72955,2.7785 0,2.4446 -0.15734,2.4956 -8.72955,2.7785 -7.12274,0.2348 -8.8397,0.01 -9.31959,-1.2454 -1.28819,-3.3569 -0.16627,-4.3703 6.24127,-4.3696 z m -39.57072,0.3458 c 8.21373,0 10.57428,0.9519 9.47434,3.8183 -0.52788,1.3756 -2.13777,1.6612 -9.38729,1.6612 -8.98455,0 -10.88847,-0.871 -8.90849,-4.0746 0.62911,-1.0179 3.05286,-1.4049 8.82144,-1.4049 z"
       id="path4225-6"
       inkscape:connector-curvature="0" />
    <g
       id="g4572"
       transform="matrix(0.64573638,0,0,0.64573638,150.89271,223.31841)"
       style="fill:#ffffff" />
    <g
       id="g4195"
       transform="matrix(0.47619095,0,0,0.47619095,405.2756,625.18394)" />
  </g>
</svg>
