  0
SECTION
  2
HEADER
  9
$ACADVER
  1
AC1014
  9
$HANDSEED
  5
FFFF
  9
$MEASUREMENT
 70
     1
  0
ENDSEC
  0
SECTION
  2
TABLES
  0
TABLE
  2
VPORT
  5
8
330
0
100
AcDbSymbolTable
 70
     4
  0
VPORT
  5
2E
330
8
100
AcDbSymbolTableRecord
100
AcDbViewportTableRecord
  2
*ACTIVE
 70
     0
 10
0.0
 20
0.0
 11
1.0
 21
1.0
 12
210.0
 22
148.5
 13
0.0
 23
0.0
 14
10.0
 24
10.0
 15
10.0
 25
10.0
 16
0.0
 26
0.0
 36
1.0
 17
0.0
 27
0.0
 37
0.0
 40
341.0
 41
1.24
 42
50.0
 43
0.0
 44
0.0
 50
0.0
 51
0.0
 71
     0
 72
   100
 73
     1
 74
     3
 75
     0
 76
     0
 77
     0
 78
     0
  0
ENDTAB
  0
TABLE
  2
LTYPE
  5
5
330
0
100
AcDbSymbolTable
 70
     1
  0
LTYPE
  5
14
330
5
100
AcDbSymbolTableRecord
100
AcDbLinetypeTableRecord
  2
BYBLOCK
 70
     0
  3

 72
    65
 73
     0
 40
0.0
  0
LTYPE
  5
15
330
5
100
AcDbSymbolTableRecord
100
AcDbLinetypeTableRecord
  2
BYLAYER
 70
     0
  3

 72
    65
 73
     0
 40
0.0
  0
LTYPE
  5
16
330
5
100
AcDbSymbolTableRecord
100
AcDbLinetypeTableRecord
  2
CONTINUOUS
 70
     0
  3
Solid line
 72
    65
 73
     0
 40
0.0
  0
ENDTAB
  0
TABLE
  2
LAYER
  5
2
100
AcDbSymbolTable
 70
2
  0
LAYER
  5
50
100
AcDbSymbolTableRecord
100
AcDbLayerTableRecord
  2
0
 70
0
  6
CONTINUOUS
  0
LAYER
  5
51
100
AcDbSymbolTableRecord
100
AcDbLayerTableRecord
  2
Layer_1
 70
0
  6
CONTINUOUS
  0
ENDTAB
  0
TABLE
  2
STYLE
  5
3
330
0
100
AcDbSymbolTable
 70
     1
  0
STYLE
  5
11
330
3
100
AcDbSymbolTableRecord
100
AcDbTextStyleTableRecord
  2
STANDARD
 70
     0
 40
0.0
 41
1.0
 50
0.0
 71
     0
 42
2.5
  3
txt
  4

  0
ENDTAB
  0
TABLE
  2
VIEW
  5
6
330
0
100
AcDbSymbolTable
 70
     0
  0
ENDTAB
  0
TABLE
  2
UCS
  5
7
330
0
100
AcDbSymbolTable
 70
     0
  0
ENDTAB
  0
TABLE
  2
APPID
  5
9
330
0
100
AcDbSymbolTable
 70
     2
  0
APPID
  5
12
330
9
100
AcDbSymbolTableRecord
100
AcDbRegAppTableRecord
  2
ACAD
 70
     0
  0
ENDTAB
  0
TABLE
  2
DIMSTYLE
  5
A
330
0
100
AcDbSymbolTable
 70
     1
  0
DIMSTYLE
105
27
330
A
100
AcDbSymbolTableRecord
100
AcDbDimStyleTableRecord
  2
ISO-25
 70
     0
  3

  4

  5

  6

  7

 40
1.0
 41
2.5
 42
0.625
 43
3.75
 44
1.25
 45
0.0
 46
0.0
 47
0.0
 48
0.0
140
2.5
141
2.5
142
0.0
143
0.03937007874016
144
1.0
145
0.0
146
1.0
147
0.625
 71
     0
 72
     0
 73
     0
 74
     0
 75
     0
 76
     0
 77
     1
 78
     8
170
     0
171
     3
172
     1
173
     0
174
     0
175
     0
176
     0
177
     0
178
     0
270
     2
271
     2
272
     2
273
     2
274
     3
340
11
275
     0
280
     0
281
     0
282
     0
283
     0
284
     8
285
     0
286
     0
287
     3
288
     0
  0
ENDTAB
  0
TABLE
  2
BLOCK_RECORD
  5
1
330
0
100
AcDbSymbolTable
 70
     1
  0
BLOCK_RECORD
  5
1F
330
1
100
AcDbSymbolTableRecord
100
AcDbBlockTableRecord
  2
*MODEL_SPACE
  0
BLOCK_RECORD
  5
1B
330
1
100
AcDbSymbolTableRecord
100
AcDbBlockTableRecord
  2
*PAPER_SPACE
  0
ENDTAB
  0
ENDSEC
  0
SECTION
  2
BLOCKS
  0
BLOCK
  5
20
330
1F
100
AcDbEntity
  8
0
100
AcDbBlockBegin
  2
*MODEL_SPACE
 70
     0
 10
0.0
 20
0.0
 30
0.0
  3
*MODEL_SPACE
  1

  0
ENDBLK
  5
21
330
1F
100
AcDbEntity
  8
0
100
AcDbBlockEnd
  0
BLOCK
  5
1C
330
1B
100
AcDbEntity
 67
     1
  8
0
100
AcDbBlockBegin
  2
*PAPER_SPACE
  1

  0
ENDBLK
  5
1D
330
1B
100
AcDbEntity
 67
     1
  8
0
100
AcDbBlockEnd
  0
ENDSEC
  0
SECTION
  2
ENTITIES
  0
LWPOLYLINE
  5
100
100
AcDbEntity
  8
Layer_1
 62
7
100
AcDbPolyline
 90
71
 70
0
 10
3.050012
 20
8.212885
 30
0.0
 10
3.050012
 20
7.138180
 30
0.0
 10
2.803968
 20
7.047567
 30
0.0
 10
2.568732
 20
6.938843
 30
0.0
 10
2.345000
 20
6.812964
 30
0.0
 10
2.133467
 20
6.670885
 30
0.0
 10
1.934830
 20
6.513560
 30
0.0
 10
1.749785
 20
6.341943
 30
0.0
 10
1.579027
 20
6.156992
 30
0.0
 10
1.423253
 20
5.959662
 30
0.0
 10
1.283159
 20
5.750905
 30
0.0
 10
1.159441
 20
5.531683
 30
0.0
 10
1.052795
 20
5.302945
 30
0.0
 10
0.963917
 20
5.065650
 30
0.0
 10
0.893503
 20
4.820754
 30
0.0
 10
0.842249
 20
4.569207
 30
0.0
 10
0.810852
 20
4.311970
 30
0.0
 10
0.800006
 20
4.049997
 30
0.0
 10
0.815908
 20
3.728771
 30
0.0
 10
0.863028
 20
3.412987
 30
0.0
 10
0.940484
 20
3.104775
 30
0.0
 10
1.047394
 20
2.806266
 30
0.0
 10
1.182874
 20
2.519590
 30
0.0
 10
1.346042
 20
2.246879
 30
0.0
 10
1.536014
 20
1.990266
 30
0.0
 10
1.751909
 20
1.751878
 30
0.0
 10
1.990295
 20
1.535984
 30
0.0
 10
2.246909
 20
1.346012
 30
0.0
 10
2.519619
 20
1.182845
 30
0.0
 10
2.806294
 20
1.047364
 30
0.0
 10
3.104804
 20
0.940455
 30
0.0
 10
3.413017
 20
0.863000
 30
0.0
 10
3.728801
 20
0.815877
 30
0.0
 10
4.050027
 20
0.799976
 30
0.0
 10
4.217271
 20
0.804207
 30
0.0
 10
4.382319
 20
0.816760
 30
0.0
 10
4.705012
 20
0.866011
 30
0.0
 10
5.016473
 20
0.946100
 30
0.0
 10
5.315067
 20
1.055390
 30
0.0
 10
5.599161
 20
1.192248
 30
0.0
 10
5.867122
 20
1.355043
 30
0.0
 10
6.117316
 20
1.542136
 30
0.0
 10
6.348108
 20
1.751898
 30
0.0
 10
6.557867
 20
1.982696
 30
0.0
 10
6.744957
 20
2.232892
 30
0.0
 10
6.907746
 20
2.500856
 30
0.0
 10
7.044600
 20
2.784953
 30
0.0
 10
7.153885
 20
3.083549
 30
0.0
 10
7.233968
 20
3.395010
 30
0.0
 10
7.283215
 20
3.717703
 30
0.0
 10
7.295764
 20
3.882752
 30
0.0
 10
7.299992
 20
4.049997
 30
0.0
 10
7.289313
 20
4.312128
 30
0.0
 10
7.258055
 20
4.569526
 30
0.0
 10
7.206916
 20
4.821237
 30
0.0
 10
7.136593
 20
5.066302
 30
0.0
 10
7.047782
 20
5.303766
 30
0.0
 10
6.941181
 20
5.532671
 30
0.0
 10
6.817485
 20
5.752059
 30
0.0
 10
6.677393
 20
5.960974
 30
0.0
 10
6.521600
 20
6.158456
 30
0.0
 10
6.350805
 20
6.343552
 30
0.0
 10
6.165703
 20
6.515304
 30
0.0
 10
5.966991
 20
6.672753
 30
0.0
 10
5.755367
 20
6.814942
 30
0.0
 10
5.531526
 20
6.940915
 30
0.0
 10
5.296168
 20
7.049714
 30
0.0
 10
5.049986
 20
7.140384
 30
0.0
 10
5.049986
 20
8.212885
 30
0.0
 10
3.050012
 20
8.212885
 30
0.0
 10
3.050012
 20
8.212885
 30
0.0
  0
LWPOLYLINE
  5
101
100
AcDbEntity
  8
Layer_1
 62
7
100
AcDbPolyline
 90
71
 70
0
 10
10.000010
 20
8.212885
 30
0.0
 10
10.000010
 20
7.138180
 30
0.0
 10
9.753966
 20
7.047567
 30
0.0
 10
9.518730
 20
6.938843
 30
0.0
 10
9.294998
 20
6.812964
 30
0.0
 10
9.083465
 20
6.670885
 30
0.0
 10
8.884828
 20
6.513560
 30
0.0
 10
8.699782
 20
6.341943
 30
0.0
 10
8.529025
 20
6.156992
 30
0.0
 10
8.373251
 20
5.959662
 30
0.0
 10
8.233157
 20
5.750905
 30
0.0
 10
8.109439
 20
5.531683
 30
0.0
 10
8.002793
 20
5.302945
 30
0.0
 10
7.913915
 20
5.065650
 30
0.0
 10
7.843501
 20
4.820754
 30
0.0
 10
7.792247
 20
4.569207
 30
0.0
 10
7.760849
 20
4.311970
 30
0.0
 10
7.750004
 20
4.049997
 30
0.0
 10
7.765906
 20
3.728771
 30
0.0
 10
7.813026
 20
3.412987
 30
0.0
 10
7.890482
 20
3.104775
 30
0.0
 10
7.997392
 20
2.806266
 30
0.0
 10
8.132872
 20
2.519590
 30
0.0
 10
8.296040
 20
2.246879
 30
0.0
 10
8.486012
 20
1.990266
 30
0.0
 10
8.701907
 20
1.751878
 30
0.0
 10
8.940293
 20
1.535984
 30
0.0
 10
9.196907
 20
1.346012
 30
0.0
 10
9.469617
 20
1.182845
 30
0.0
 10
9.756292
 20
1.047364
 30
0.0
 10
10.054802
 20
0.940455
 30
0.0
 10
10.363015
 20
0.863000
 30
0.0
 10
10.678799
 20
0.815877
 30
0.0
 10
11.000025
 20
0.799976
 30
0.0
 10
11.167269
 20
0.804207
 30
0.0
 10
11.332317
 20
0.816760
 30
0.0
 10
11.655010
 20
0.866011
 30
0.0
 10
11.966471
 20
0.946100
 30
0.0
 10
12.265065
 20
1.055390
 30
0.0
 10
12.549159
 20
1.192248
 30
0.0
 10
12.817120
 20
1.355043
 30
0.0
 10
13.067314
 20
1.542136
 30
0.0
 10
13.298106
 20
1.751898
 30
0.0
 10
13.507865
 20
1.982696
 30
0.0
 10
13.694955
 20
2.232892
 30
0.0
 10
13.857744
 20
2.500856
 30
0.0
 10
13.994598
 20
2.784953
 30
0.0
 10
14.103883
 20
3.083549
 30
0.0
 10
14.183966
 20
3.395010
 30
0.0
 10
14.233213
 20
3.717703
 30
0.0
 10
14.245762
 20
3.882752
 30
0.0
 10
14.249990
 20
4.049997
 30
0.0
 10
14.239311
 20
4.312128
 30
0.0
 10
14.208053
 20
4.569526
 30
0.0
 10
14.156914
 20
4.821237
 30
0.0
 10
14.086591
 20
5.066302
 30
0.0
 10
13.997780
 20
5.303766
 30
0.0
 10
13.891179
 20
5.532671
 30
0.0
 10
13.767483
 20
5.752059
 30
0.0
 10
13.627391
 20
5.960974
 30
0.0
 10
13.471598
 20
6.158456
 30
0.0
 10
13.300803
 20
6.343552
 30
0.0
 10
13.115701
 20
6.515304
 30
0.0
 10
12.916989
 20
6.672753
 30
0.0
 10
12.705365
 20
6.814942
 30
0.0
 10
12.481524
 20
6.940915
 30
0.0
 10
12.246165
 20
7.049714
 30
0.0
 10
11.999984
 20
7.140384
 30
0.0
 10
11.999984
 20
8.212885
 30
0.0
 10
10.000010
 20
8.212885
 30
0.0
 10
10.000010
 20
8.212885
 30
0.0
  0
LWPOLYLINE
  5
102
100
AcDbEntity
  8
Layer_1
 62
7
100
AcDbPolyline
 90
71
 70
0
 10
16.950008
 20
8.212885
 30
0.0
 10
16.950008
 20
7.138180
 30
0.0
 10
16.703964
 20
7.047567
 30
0.0
 10
16.468728
 20
6.938843
 30
0.0
 10
16.244996
 20
6.812964
 30
0.0
 10
16.033463
 20
6.670885
 30
0.0
 10
15.834826
 20
6.513560
 30
0.0
 10
15.649780
 20
6.341943
 30
0.0
 10
15.479022
 20
6.156992
 30
0.0
 10
15.323248
 20
5.959662
 30
0.0
 10
15.183155
 20
5.750905
 30
0.0
 10
15.059436
 20
5.531683
 30
0.0
 10
14.952790
 20
5.302945
 30
0.0
 10
14.863912
 20
5.065650
 30
0.0
 10
14.793498
 20
4.820754
 30
0.0
 10
14.742245
 20
4.569207
 30
0.0
 10
14.710847
 20
4.311970
 30
0.0
 10
14.700002
 20
4.049997
 30
0.0
 10
14.715903
 20
3.728771
 30
0.0
 10
14.763024
 20
3.412987
 30
0.0
 10
14.840480
 20
3.104775
 30
0.0
 10
14.947389
 20
2.806266
 30
0.0
 10
15.082870
 20
2.519590
 30
0.0
 10
15.246037
 20
2.246879
 30
0.0
 10
15.436010
 20
1.990266
 30
0.0
 10
15.651905
 20
1.751878
 30
0.0
 10
15.890291
 20
1.535984
 30
0.0
 10
16.146905
 20
1.346012
 30
0.0
 10
16.419615
 20
1.182845
 30
0.0
 10
16.706290
 20
1.047364
 30
0.0
 10
17.004800
 20
0.940455
 30
0.0
 10
17.313013
 20
0.863000
 30
0.0
 10
17.628797
 20
0.815877
 30
0.0
 10
17.950023
 20
0.799976
 30
0.0
 10
18.117267
 20
0.804207
 30
0.0
 10
18.282315
 20
0.816760
 30
0.0
 10
18.605008
 20
0.866011
 30
0.0
 10
18.916469
 20
0.946100
 30
0.0
 10
19.215063
 20
1.055390
 30
0.0
 10
19.499157
 20
1.192248
 30
0.0
 10
19.767118
 20
1.355043
 30
0.0
 10
20.017311
 20
1.542136
 30
0.0
 10
20.248104
 20
1.751898
 30
0.0
 10
20.457862
 20
1.982696
 30
0.0
 10
20.644953
 20
2.232892
 30
0.0
 10
20.807742
 20
2.500856
 30
0.0
 10
20.944596
 20
2.784953
 30
0.0
 10
21.053881
 20
3.083549
 30
0.0
 10
21.133964
 20
3.395010
 30
0.0
 10
21.183210
 20
3.717703
 30
0.0
 10
21.195760
 20
3.882752
 30
0.0
 10
21.199987
 20
4.049997
 30
0.0
 10
21.189308
 20
4.312128
 30
0.0
 10
21.158051
 20
4.569526
 30
0.0
 10
21.106912
 20
4.821237
 30
0.0
 10
21.036588
 20
5.066302
 30
0.0
 10
20.947778
 20
5.303766
 30
0.0
 10
20.841176
 20
5.532671
 30
0.0
 10
20.717481
 20
5.752059
 30
0.0
 10
20.577389
 20
5.960974
 30
0.0
 10
20.421596
 20
6.158456
 30
0.0
 10
20.250801
 20
6.343552
 30
0.0
 10
20.065699
 20
6.515304
 30
0.0
 10
19.866987
 20
6.672753
 30
0.0
 10
19.655363
 20
6.814942
 30
0.0
 10
19.431522
 20
6.940915
 30
0.0
 10
19.196163
 20
7.049714
 30
0.0
 10
18.949982
 20
7.140384
 30
0.0
 10
18.949982
 20
8.212885
 30
0.0
 10
16.950008
 20
8.212885
 30
0.0
 10
16.950008
 20
8.212885
 30
0.0
  0
ENDSEC
  0
SECTION
  2
OBJECTS
  0
DICTIONARY
  5
C
330
0
100
AcDbDictionary
  3
ACAD_GROUP
350
D
  3
ACAD_MLINESTYLE
350
17
  0
DICTIONARY
  5
D
330
C
100
AcDbDictionary
  0
DICTIONARY
  5
1A
330
C
100
AcDbDictionary
  0
DICTIONARY
  5
17
330
C
100
AcDbDictionary
  3
STANDARD
350
18
  0
DICTIONARY
  5
19
330
C
100
AcDbDictionary
  0
ENDSEC
  0
EOF
