  0
SECTION
  2
HEADER
  9
$ACADVER
  1
AC1014
  9
$HANDSEED
  5
FFFF
  9
$INSUNITS
 70
     0
  9
$MEASUREMENT
 70
     1
  0
ENDSEC
  0
SECTION
  2
TABLES
  0
TABLE
  2
VPORT
  5
8
330
0
100
AcDbSymbolTable
 70
     4
  0
VPORT
  5
2E
330
8
100
AcDbSymbolTableRecord
100
AcDbViewportTableRecord
  2
*ACTIVE
 70
     0
 10
0.0
 20
0.0
 11
1.0
 21
1.0
 12
210.0
 22
148.5
 13
0.0
 23
0.0
 14
10.0
 24
10.0
 15
10.0
 25
10.0
 16
0.0
 26
0.0
 36
1.0
 17
0.0
 27
0.0
 37
0.0
 40
341.0
 41
1.24
 42
50.0
 43
0.0
 44
0.0
 50
0.0
 51
0.0
 71
     0
 72
   100
 73
     1
 74
     3
 75
     0
 76
     0
 77
     0
 78
     0
  0
ENDTAB
  0
TABLE
  2
LTYPE
  5
5
330
0
100
AcDbSymbolTable
 70
     1
  0
LTYPE
  5
14
330
5
100
AcDbSymbolTableRecord
100
AcDbLinetypeTableRecord
  2
BYBLOCK
 70
     0
  3

 72
    65
 73
     0
 40
0.0
  0
LTYPE
  5
15
330
5
100
AcDbSymbolTableRecord
100
AcDbLinetypeTableRecord
  2
BYLAYER
 70
     0
  3

 72
    65
 73
     0
 40
0.0
  0
LTYPE
  5
16
330
5
100
AcDbSymbolTableRecord
100
AcDbLinetypeTableRecord
  2
CONTINUOUS
 70
     0
  3
Solid line
 72
    65
 73
     0
 40
0.0
  0
ENDTAB
  0
TABLE
  2
LAYER
  5
2
100
AcDbSymbolTable
 70
2
  0
LAYER
  5
50
100
AcDbSymbolTableRecord
100
AcDbLayerTableRecord
  2
0
 70
0
  6
CONTINUOUS
  0
LAYER
  5
51
100
AcDbSymbolTableRecord
100
AcDbLayerTableRecord
  2
Layer_1
 70
0
  6
CONTINUOUS
  0
ENDTAB
  0
TABLE
  2
STYLE
  5
3
330
0
100
AcDbSymbolTable
 70
     1
  0
STYLE
  5
11
330
3
100
AcDbSymbolTableRecord
100
AcDbTextStyleTableRecord
  2
STANDARD
 70
     0
 40
0.0
 41
1.0
 50
0.0
 71
     0
 42
2.5
  3
txt
  4

  0
ENDTAB
  0
TABLE
  2
VIEW
  5
6
330
0
100
AcDbSymbolTable
 70
     0
  0
ENDTAB
  0
TABLE
  2
UCS
  5
7
330
0
100
AcDbSymbolTable
 70
     0
  0
ENDTAB
  0
TABLE
  2
APPID
  5
9
330
0
100
AcDbSymbolTable
 70
     2
  0
APPID
  5
12
330
9
100
AcDbSymbolTableRecord
100
AcDbRegAppTableRecord
  2
ACAD
 70
     0
  0
ENDTAB
  0
TABLE
  2
DIMSTYLE
  5
A
330
0
100
AcDbSymbolTable
 70
     1
  0
DIMSTYLE
105
27
330
A
100
AcDbSymbolTableRecord
100
AcDbDimStyleTableRecord
  2
ISO-25
 70
     0
  3

  4

  5

  6

  7

 40
1.0
 41
2.5
 42
0.625
 43
3.75
 44
1.25
 45
0.0
 46
0.0
 47
0.0
 48
0.0
140
2.5
141
2.5
142
0.0
143
0.03937007874016
144
1.0
145
0.0
146
1.0
147
0.625
 71
     0
 72
     0
 73
     0
 74
     0
 75
     0
 76
     0
 77
     1
 78
     8
170
     0
171
     3
172
     1
173
     0
174
     0
175
     0
176
     0
177
     0
178
     0
270
     2
271
     2
272
     2
273
     2
274
     3
340
11
275
     0
280
     0
281
     0
282
     0
283
     0
284
     8
285
     0
286
     0
287
     3
288
     0
  0
ENDTAB
  0
TABLE
  2
BLOCK_RECORD
  5
1
330
0
100
AcDbSymbolTable
 70
     1
  0
BLOCK_RECORD
  5
1F
330
1
100
AcDbSymbolTableRecord
100
AcDbBlockTableRecord
  2
*MODEL_SPACE
  0
BLOCK_RECORD
  5
1B
330
1
100
AcDbSymbolTableRecord
100
AcDbBlockTableRecord
  2
*PAPER_SPACE
  0
ENDTAB
  0
ENDSEC
  0
SECTION
  2
BLOCKS
  0
BLOCK
  5
20
330
1F
100
AcDbEntity
  8
0
100
AcDbBlockBegin
  2
*MODEL_SPACE
 70
     0
 10
0.0
 20
0.0
 30
0.0
  3
*MODEL_SPACE
  1

  0
ENDBLK
  5
21
330
1F
100
AcDbEntity
  8
0
100
AcDbBlockEnd
  0
BLOCK
  5
1C
330
1B
100
AcDbEntity
 67
     1
  8
0
100
AcDbBlockBegin
  2
*PAPER_SPACE
  1

  0
ENDBLK
  5
1D
330
1B
100
AcDbEntity
 67
     1
  8
0
100
AcDbBlockEnd
  0
ENDSEC
  0
SECTION
  2
ENTITIES
  0
LWPOLYLINE
  5
100
100
AcDbEntity
  8
Layer_1
 62
7
100
AcDbPolyline
 90
37
 70
1
 10
3.108339
 20
56.891678
 30
0.0
 10
3.108339
 20
49.766131
 30
0.0
 10
8.771552
 20
49.766131
 30
0.0
 10
9.262957
 20
49.787862
 30
0.0
 10
9.688830
 20
49.853338
 30
0.0
 10
10.049143
 20
49.962275
 30
0.0
 10
10.343981
 20
50.114958
 30
0.0
 10
10.573258
 20
50.311102
 30
0.0
 10
10.737060
 20
50.550709
 30
0.0
 10
10.835302
 20
50.834342
 30
0.0
 10
10.868068
 20
51.161438
 30
0.0
 10
10.868068
 20
52.071322
 30
0.0
 10
10.847437
 20
52.344513
 30
0.0
 10
10.785546
 20
52.590611
 30
0.0
 10
10.682365
 20
52.809898
 30
0.0
 10
10.537868
 20
53.002091
 30
0.0
 10
10.354536
 20
53.163522
 30
0.0
 10
10.134911
 20
53.290240
 30
0.0
 10
9.879048
 20
53.382527
 30
0.0
 10
9.587004
 20
53.440382
 30
0.0
 10
10.111119
 20
53.571615
 30
0.0
 10
10.321347
 20
53.680271
 30
0.0
 10
10.497030
 20
53.817431
 30
0.0
 10
10.635658
 20
53.985353
 30
0.0
 10
10.734633
 20
54.178393
 30
0.0
 10
10.794012
 20
54.396551
 30
0.0
 10
10.813796
 20
54.640109
 30
0.0
 10
10.813796
 20
55.509918
 30
0.0
 10
10.789836
 20
55.851689
 30
0.0
 10
10.717897
 20
56.141813
 30
0.0
 10
10.597924
 20
56.380856
 30
0.0
 10
10.429861
 20
56.568251
 30
0.0
 10
10.209925
 20
56.709927
 30
0.0
 10
9.934420
 20
56.810962
 30
0.0
 10
9.603260
 20
56.871640
 30
0.0
 10
9.216503
 20
56.891678
 30
0.0
 10
3.108339
 20
56.891678
 30
0.0
  0
LWPOLYLINE
  5
101
100
AcDbEntity
  8
Layer_1
 62
7
100
AcDbPolyline
 90
25
 70
1
 10
14.070471
 20
56.891678
 30
0.0
 10
14.070471
 20
51.451280
 30
0.0
 10
14.093585
 20
50.995773
 30
0.0
 10
14.163012
 20
50.620418
 30
0.0
 10
14.278808
 20
50.324931
 30
0.0
 10
14.440973
 20
50.109595
 30
0.0
 10
14.669827
 20
49.959453
 30
0.0
 10
14.978747
 20
49.851926
 30
0.0
 10
15.367762
 20
49.787580
 30
0.0
 10
15.836759
 20
49.766131
 30
0.0
 10
20.339841
 20
49.766131
 30
0.0
 10
20.808443
 20
49.787580
 30
0.0
 10
21.196159
 20
49.851926
 30
0.0
 10
21.503020
 20
49.959453
 30
0.0
 10
21.728910
 20
50.109595
 30
0.0
 10
21.894039
 20
50.324931
 30
0.0
 10
22.011895
 20
50.620418
 30
0.0
 10
22.082591
 20
50.995773
 30
0.0
 10
22.106157
 20
51.451280
 30
0.0
 10
22.106157
 20
56.891678
 30
0.0
 10
20.454564
 20
56.891678
 30
0.0
 10
20.454564
 20
51.107533
 30
0.0
 10
15.728753
 20
51.107533
 30
0.0
 10
15.728753
 20
56.891678
 30
0.0
 10
14.070471
 20
56.891678
 30
0.0
  0
LWPOLYLINE
  5
102
100
AcDbEntity
  8
Layer_1
 62
7
100
AcDbPolyline
 90
5
 70
1
 10
25.746739
 20
56.891678
 30
0.0
 10
25.746739
 20
49.766131
 30
0.0
 10
27.405048
 20
49.766131
 30
0.0
 10
27.405048
 20
56.891678
 30
0.0
 10
25.746739
 20
56.891678
 30
0.0
  0
LWPOLYLINE
  5
103
100
AcDbEntity
  8
Layer_1
 62
7
100
AcDbPolyline
 90
7
 70
1
 10
31.045518
 20
56.891678
 30
0.0
 10
31.045518
 20
49.766131
 30
0.0
 10
38.050273
 20
49.766131
 30
0.0
 10
38.050273
 20
51.107533
 30
0.0
 10
32.703855
 20
51.107533
 30
0.0
 10
32.703855
 20
56.891678
 30
0.0
 10
31.045518
 20
56.891678
 30
0.0
  0
LWPOLYLINE
  5
104
100
AcDbEntity
  8
Layer_1
 62
7
100
AcDbPolyline
 90
24
 70
1
 10
40.470329
 20
56.891678
 30
0.0
 10
40.470329
 20
49.766131
 30
0.0
 10
44.629720
 20
49.766131
 30
0.0
 10
45.573754
 20
49.800562
 30
0.0
 10
46.375829
 20
49.904138
 30
0.0
 10
47.036511
 20
50.076575
 30
0.0
 10
47.555800
 20
50.318440
 30
0.0
 10
47.908860
 20
50.568771
 30
0.0
 10
48.219869
 20
50.861435
 30
0.0
 10
48.488545
 20
51.195869
 30
0.0
 10
48.715451
 20
51.572635
 30
0.0
 10
48.895227
 20
51.983551
 30
0.0
 10
49.023920
 20
52.420431
 30
0.0
 10
49.100967
 20
52.883275
 30
0.0
 10
49.126649
 20
53.372649
 30
0.0
 10
49.060891
 20
54.161742
 30
0.0
 10
48.863900
 20
54.857420
 30
0.0
 10
48.535111
 20
55.459682
 30
0.0
 10
48.075089
 20
55.968247
 30
0.0
 10
47.494558
 20
56.372389
 30
0.0
 10
46.797469
 20
56.660820
 30
0.0
 10
45.984105
 20
56.834104
 30
0.0
 10
45.054747
 20
56.891678
 30
0.0
 10
40.470329
 20
56.891678
 30
0.0
  0
LWPOLYLINE
  5
105
100
AcDbEntity
  8
Layer_1
 62
7
100
AcDbPolyline
 90
5
 70
1
 10
52.160256
 20
56.891678
 30
0.0
 10
52.160256
 20
49.766131
 30
0.0
 10
53.818876
 20
49.766131
 30
0.0
 10
53.818876
 20
56.891678
 30
0.0
 10
52.160256
 20
56.891678
 30
0.0
  0
LWPOLYLINE
  5
106
100
AcDbEntity
  8
Layer_1
 62
7
100
AcDbPolyline
 90
16
 70
1
 10
57.445714
 20
56.891678
 30
0.0
 10
57.445714
 20
49.766131
 30
0.0
 10
58.935283
 20
49.766131
 30
0.0
 10
58.935283
 20
53.615360
 30
0.0
 10
58.868114
 20
54.747635
 30
0.0
 10
59.461627
 20
54.168515
 30
0.0
 10
64.693181
 20
49.766131
 30
0.0
 10
65.825456
 20
49.766131
 30
0.0
 10
65.825456
 20
56.891678
 30
0.0
 10
64.335605
 20
56.891678
 30
0.0
 10
64.335605
 20
53.150258
 30
0.0
 10
64.403338
 20
51.916382
 30
0.0
 10
64.032498
 20
52.305567
 30
0.0
 10
63.593925
 20
52.691364
 30
0.0
 10
58.578272
 20
56.891678
 30
0.0
 10
57.445714
 20
56.891678
 30
0.0
  0
LWPOLYLINE
  5
107
100
AcDbEntity
  8
Layer_1
 62
7
100
AcDbPolyline
 90
47
 70
1
 10
71.070556
 20
56.891678
 30
0.0
 10
70.601503
 20
56.869947
 30
0.0
 10
70.212601
 20
56.804189
 30
0.0
 10
69.903567
 20
56.694687
 30
0.0
 10
69.674685
 20
56.541440
 30
0.0
 10
69.512690
 20
56.328927
 30
0.0
 10
69.396979
 20
56.035698
 30
0.0
 10
69.327552
 20
55.661753
 30
0.0
 10
69.304410
 20
55.206529
 30
0.0
 10
69.304410
 20
51.451280
 30
0.0
 10
69.327552
 20
50.995773
 30
0.0
 10
69.396979
 20
50.620418
 30
0.0
 10
69.512690
 20
50.324931
 30
0.0
 10
69.674685
 20
50.109595
 30
0.0
 10
69.903567
 20
49.959453
 30
0.0
 10
70.212601
 20
49.851926
 30
0.0
 10
70.601503
 20
49.787580
 30
0.0
 10
71.070556
 20
49.766131
 30
0.0
 10
75.984892
 20
49.766131
 30
0.0
 10
76.453663
 20
49.787580
 30
0.0
 10
76.841437
 20
49.851926
 30
0.0
 10
77.148212
 20
49.959453
 30
0.0
 10
77.373990
 20
50.109595
 30
0.0
 10
77.539090
 20
50.324931
 30
0.0
 10
77.657059
 20
50.620418
 30
0.0
 10
77.727897
 20
50.995773
 30
0.0
 10
77.751321
 20
51.451280
 30
0.0
 10
77.751321
 20
53.905484
 30
0.0
 10
73.430216
 20
53.905484
 30
0.0
 10
73.430216
 20
52.691364
 30
0.0
 10
76.140114
 20
52.691364
 30
0.0
 10
76.140114
 20
51.107533
 30
0.0
 10
70.962465
 20
51.107533
 30
0.0
 10
70.962465
 20
55.617444
 30
0.0
 10
76.140114
 20
55.617444
 30
0.0
 10
76.140114
 20
54.822142
 30
0.0
 10
77.751321
 20
55.111984
 30
0.0
 10
77.751321
 20
55.273698
 30
0.0
 10
77.727332
 20
55.707755
 30
0.0
 10
77.655365
 20
56.065896
 30
0.0
 10
77.535421
 20
56.348400
 30
0.0
 10
77.367499
 20
56.554704
 30
0.0
 10
77.136923
 20
56.702307
 30
0.0
 10
76.829583
 20
56.807576
 30
0.0
 10
76.445479
 20
56.870793
 30
0.0
 10
75.984892
 20
56.891678
 30
0.0
 10
71.070556
 20
56.891678
 30
0.0
  0
LWPOLYLINE
  5
108
100
AcDbEntity
  8
Layer_1
 62
7
100
AcDbPolyline
 90
37
 70
1
 10
86.596166
 20
56.891678
 30
0.0
 10
86.596166
 20
49.766131
 30
0.0
 10
92.259519
 20
49.766131
 30
0.0
 10
92.750868
 20
49.787862
 30
0.0
 10
93.176741
 20
49.853338
 30
0.0
 10
93.537139
 20
49.962275
 30
0.0
 10
93.831779
 20
50.114958
 30
0.0
 10
94.061226
 20
50.311102
 30
0.0
 10
94.224915
 20
50.550709
 30
0.0
 10
94.323128
 20
50.834342
 30
0.0
 10
94.355866
 20
51.161438
 30
0.0
 10
94.355866
 20
52.071322
 30
0.0
 10
94.335264
 20
52.344513
 30
0.0
 10
94.273457
 20
52.590611
 30
0.0
 10
94.170164
 20
52.809898
 30
0.0
 10
94.025666
 20
53.002091
 30
0.0
 10
93.842504
 20
53.163522
 30
0.0
 10
93.622935
 20
53.290240
 30
0.0
 10
93.366959
 20
53.382527
 30
0.0
 10
93.074859
 20
53.440382
 30
0.0
 10
93.599228
 20
53.571615
 30
0.0
 10
93.809766
 20
53.680271
 30
0.0
 10
93.985590
 20
53.817431
 30
0.0
 10
94.124161
 20
53.985353
 30
0.0
 10
94.223221
 20
54.178393
 30
0.0
 10
94.282488
 20
54.396551
 30
0.0
 10
94.302244
 20
54.640109
 30
0.0
 10
94.302244
 20
55.509918
 30
0.0
 10
94.278255
 20
55.851689
 30
0.0
 10
94.206006
 20
56.141813
 30
0.0
 10
94.086061
 20
56.380856
 30
0.0
 10
93.917857
 20
56.568251
 30
0.0
 10
93.697724
 20
56.709927
 30
0.0
 10
93.422275
 20
56.810962
 30
0.0
 10
93.091228
 20
56.871640
 30
0.0
 10
92.704301
 20
56.891678
 30
0.0
 10
86.596166
 20
56.891678
 30
0.0
  0
LWPOLYLINE
  5
109
100
AcDbEntity
  8
Layer_1
 62
7
100
AcDbPolyline
 90
13
 70
1
 10
97.558524
 20
56.891678
 30
0.0
 10
97.558524
 20
49.766131
 30
0.0
 10
104.920291
 20
49.766131
 30
0.0
 10
104.920291
 20
51.107533
 30
0.0
 10
99.216579
 20
51.107533
 30
0.0
 10
99.216579
 20
52.873962
 30
0.0
 10
102.507008
 20
52.873962
 30
0.0
 10
102.507008
 20
54.087235
 30
0.0
 10
99.216579
 20
54.087235
 30
0.0
 10
99.216579
 20
55.678404
 30
0.0
 10
104.853122
 20
55.678404
 30
0.0
 10
104.853122
 20
56.891678
 30
0.0
 10
97.558524
 20
56.891678
 30
0.0
  0
LWPOLYLINE
  5
10a
100
AcDbEntity
  8
Layer_1
 62
7
100
AcDbPolyline
 90
9
 70
1
 10
106.369784
 20
56.891678
 30
0.0
 10
106.369784
 20
55.617444
 30
0.0
 10
109.639328
 20
55.617444
 30
0.0
 10
109.639328
 20
49.766131
 30
0.0
 10
111.297666
 20
49.766131
 30
0.0
 10
111.297666
 20
55.617444
 30
0.0
 10
114.581040
 20
55.617444
 30
0.0
 10
114.581040
 20
56.891678
 30
0.0
 10
106.369784
 20
56.891678
 30
0.0
  0
LWPOLYLINE
  5
10b
100
AcDbEntity
  8
Layer_1
 62
7
100
AcDbPolyline
 90
9
 70
1
 10
114.998729
 20
56.891678
 30
0.0
 10
114.998729
 20
55.617444
 30
0.0
 10
118.268838
 20
55.617444
 30
0.0
 10
118.268838
 20
49.766131
 30
0.0
 10
119.927175
 20
49.766131
 30
0.0
 10
119.927175
 20
55.617444
 30
0.0
 10
123.209984
 20
55.617444
 30
0.0
 10
123.209984
 20
56.891678
 30
0.0
 10
114.998729
 20
56.891678
 30
0.0
  0
LWPOLYLINE
  5
10c
100
AcDbEntity
  8
Layer_1
 62
7
100
AcDbPolyline
 90
13
 70
1
 10
125.239444
 20
56.891678
 30
0.0
 10
125.239444
 20
49.766131
 30
0.0
 10
132.601211
 20
49.766131
 30
0.0
 10
132.601211
 20
51.107533
 30
0.0
 10
126.897782
 20
51.107533
 30
0.0
 10
126.897782
 20
52.873962
 30
0.0
 10
130.187929
 20
52.873962
 30
0.0
 10
130.187929
 20
54.087235
 30
0.0
 10
126.897782
 20
54.087235
 30
0.0
 10
126.897782
 20
55.678404
 30
0.0
 10
132.534042
 20
55.678404
 30
0.0
 10
132.534042
 20
56.891678
 30
0.0
 10
125.239444
 20
56.891678
 30
0.0
  0
LWPOLYLINE
  5
10d
100
AcDbEntity
  8
Layer_1
 62
7
100
AcDbPolyline
 90
27
 70
1
 10
135.661911
 20
56.891678
 30
0.0
 10
135.661911
 20
49.766131
 30
0.0
 10
137.293438
 20
49.766131
 30
0.0
 10
137.293438
 20
52.455709
 30
0.0
 10
138.864287
 20
52.455709
 30
0.0
 10
141.736180
 20
49.766131
 30
0.0
 10
144.115878
 20
49.766131
 30
0.0
 10
140.826014
 20
52.455709
 30
0.0
 10
141.769765
 20
52.455709
 30
0.0
 10
142.156409
 20
52.476029
 30
0.0
 10
142.487738
 20
52.536707
 30
0.0
 10
142.763469
 20
52.637742
 30
0.0
 10
142.983603
 20
52.779418
 30
0.0
 10
143.151525
 20
52.966813
 30
0.0
 10
143.271469
 20
53.205573
 30
0.0
 10
143.343436
 20
53.495980
 30
0.0
 10
143.367425
 20
53.837751
 30
0.0
 10
143.367425
 20
55.509918
 30
0.0
 10
143.343436
 20
55.851689
 30
0.0
 10
143.271469
 20
56.141813
 30
0.0
 10
143.151525
 20
56.380856
 30
0.0
 10
142.983603
 20
56.568251
 30
0.0
 10
142.763469
 20
56.709927
 30
0.0
 10
142.487738
 20
56.810962
 30
0.0
 10
142.156409
 20
56.871640
 30
0.0
 10
141.769765
 20
56.891678
 30
0.0
 10
135.661911
 20
56.891678
 30
0.0
  0
LWPOLYLINE
  5
10e
100
AcDbEntity
  8
Layer_1
 62
7
100
AcDbPolyline
 90
14
 70
1
 10
150.790152
 20
56.891678
 30
0.0
 10
153.533916
 20
49.766131
 30
0.0
 10
154.680021
 20
49.766131
 30
0.0
 10
156.669123
 20
54.694013
 30
0.0
 10
158.630567
 20
49.766131
 30
0.0
 10
159.749861
 20
49.766131
 30
0.0
 10
162.500116
 20
56.891678
 30
0.0
 10
161.017039
 20
56.891678
 30
0.0
 10
159.290967
 20
52.112244
 30
0.0
 10
157.363107
 20
56.891678
 30
0.0
 10
156.203456
 20
56.891678
 30
0.0
 10
154.309463
 20
52.112244
 30
0.0
 10
152.502394
 20
56.891678
 30
0.0
 10
150.790152
 20
56.891678
 30
0.0
  0
LWPOLYLINE
  5
10f
100
AcDbEntity
  8
Layer_1
 62
7
100
AcDbPolyline
 90
37
 70
1
 10
166.470983
 20
56.891678
 30
0.0
 10
166.001930
 20
56.869947
 30
0.0
 10
165.613310
 20
56.804189
 30
0.0
 10
165.304559
 20
56.694687
 30
0.0
 10
165.075676
 20
56.541440
 30
0.0
 10
164.913399
 20
56.328927
 30
0.0
 10
164.797405
 20
56.035698
 30
0.0
 10
164.727979
 20
55.661753
 30
0.0
 10
164.704554
 20
55.206529
 30
0.0
 10
164.704554
 20
51.451280
 30
0.0
 10
164.727979
 20
50.995773
 30
0.0
 10
164.797405
 20
50.620418
 30
0.0
 10
164.913399
 20
50.324931
 30
0.0
 10
165.075676
 20
50.109595
 30
0.0
 10
165.304559
 20
49.959453
 30
0.0
 10
165.613310
 20
49.851926
 30
0.0
 10
166.001930
 20
49.787580
 30
0.0
 10
166.470983
 20
49.766131
 30
0.0
 10
171.716083
 20
49.766131
 30
0.0
 10
172.184572
 20
49.787580
 30
0.0
 10
172.572346
 20
49.851926
 30
0.0
 10
172.878839
 20
49.959453
 30
0.0
 10
173.104617
 20
50.109595
 30
0.0
 10
173.269999
 20
50.324931
 30
0.0
 10
173.387968
 20
50.620418
 30
0.0
 10
173.458806
 20
50.995773
 30
0.0
 10
173.482512
 20
51.451280
 30
0.0
 10
173.482512
 20
55.206529
 30
0.0
 10
173.458806
 20
55.661753
 30
0.0
 10
173.387968
 20
56.035698
 30
0.0
 10
173.269999
 20
56.328927
 30
0.0
 10
173.104617
 20
56.541440
 30
0.0
 10
172.878839
 20
56.694687
 30
0.0
 10
172.572346
 20
56.804189
 30
0.0
 10
172.184572
 20
56.869947
 30
0.0
 10
171.716083
 20
56.891678
 30
0.0
 10
166.470983
 20
56.891678
 30
0.0
  0
LWPOLYLINE
  5
110
100
AcDbEntity
  8
Layer_1
 62
7
100
AcDbPolyline
 90
27
 70
1
 10
176.974730
 20
56.891678
 30
0.0
 10
176.974730
 20
49.766131
 30
0.0
 10
178.606257
 20
49.766131
 30
0.0
 10
178.606257
 20
52.455709
 30
0.0
 10
180.176541
 20
52.455709
 30
0.0
 10
183.048717
 20
49.766131
 30
0.0
 10
185.428415
 20
49.766131
 30
0.0
 10
182.138832
 20
52.455709
 30
0.0
 10
183.082301
 20
52.455709
 30
0.0
 10
183.469228
 20
52.476029
 30
0.0
 10
183.800275
 20
52.536707
 30
0.0
 10
184.075724
 20
52.637742
 30
0.0
 10
184.295857
 20
52.779418
 30
0.0
 10
184.463779
 20
52.966813
 30
0.0
 10
184.584006
 20
53.205573
 30
0.0
 10
184.656255
 20
53.495980
 30
0.0
 10
184.680244
 20
53.837751
 30
0.0
 10
184.680244
 20
55.509918
 30
0.0
 10
184.656255
 20
55.851689
 30
0.0
 10
184.584006
 20
56.141813
 30
0.0
 10
184.463779
 20
56.380856
 30
0.0
 10
184.295857
 20
56.568251
 30
0.0
 10
184.075724
 20
56.709927
 30
0.0
 10
183.800275
 20
56.810962
 30
0.0
 10
183.469228
 20
56.871640
 30
0.0
 10
183.082301
 20
56.891678
 30
0.0
 10
176.974730
 20
56.891678
 30
0.0
  0
LWPOLYLINE
  5
111
100
AcDbEntity
  8
Layer_1
 62
7
100
AcDbPolyline
 90
7
 70
1
 10
188.044333
 20
56.891678
 30
0.0
 10
188.044333
 20
49.766131
 30
0.0
 10
195.048524
 20
49.766131
 30
0.0
 10
195.048524
 20
51.107533
 30
0.0
 10
189.702670
 20
51.107533
 30
0.0
 10
189.702670
 20
56.891678
 30
0.0
 10
188.044333
 20
56.891678
 30
0.0
  0
LWPOLYLINE
  5
112
100
AcDbEntity
  8
Layer_1
 62
7
100
AcDbPolyline
 90
24
 70
1
 10
197.469144
 20
56.891678
 30
0.0
 10
197.469144
 20
49.766131
 30
0.0
 10
201.628535
 20
49.766131
 30
0.0
 10
202.572286
 20
49.800562
 30
0.0
 10
203.374644
 20
49.904138
 30
0.0
 10
204.035326
 20
50.076575
 30
0.0
 10
204.554333
 20
50.318440
 30
0.0
 10
204.907675
 20
50.568771
 30
0.0
 10
205.218402
 20
50.861435
 30
0.0
 10
205.487360
 20
51.195869
 30
0.0
 10
205.713984
 20
51.572635
 30
0.0
 10
205.894042
 20
51.983551
 30
0.0
 10
206.022453
 20
52.420431
 30
0.0
 10
206.099782
 20
52.883275
 30
0.0
 10
206.125464
 20
53.372649
 30
0.0
 10
206.059706
 20
54.161742
 30
0.0
 10
205.862433
 20
54.857420
 30
0.0
 10
205.533926
 20
55.459682
 30
0.0
 10
205.073904
 20
55.968247
 30
0.0
 10
204.493091
 20
56.372389
 30
0.0
 10
203.796002
 20
56.660820
 30
0.0
 10
202.982920
 20
56.834104
 30
0.0
 10
202.053280
 20
56.891678
 30
0.0
 10
197.469144
 20
56.891678
 30
0.0
  0
LWPOLYLINE
  5
113
100
AcDbEntity
  8
Layer_1
 62
7
100
AcDbPolyline
 90
65
 70
1
 10
210.986178
 20
56.891678
 30
0.0
 10
210.517124
 20
56.869947
 30
0.0
 10
210.128222
 20
56.804189
 30
0.0
 10
209.819189
 20
56.694687
 30
0.0
 10
209.590306
 20
56.541440
 30
0.0
 10
209.428029
 20
56.328927
 30
0.0
 10
209.312318
 20
56.035698
 30
0.0
 10
209.242891
 20
55.661753
 30
0.0
 10
209.219749
 20
55.206529
 30
0.0
 10
209.219749
 20
54.417435
 30
0.0
 10
209.242891
 20
53.961929
 30
0.0
 10
209.312318
 20
53.586573
 30
0.0
 10
209.428029
 20
53.291369
 30
0.0
 10
209.590306
 20
53.076033
 30
0.0
 10
209.819189
 20
52.925609
 30
0.0
 10
210.128222
 20
52.818082
 30
0.0
 10
210.517124
 20
52.753735
 30
0.0
 10
210.986178
 20
52.732287
 30
0.0
 10
215.428638
 20
52.732287
 30
0.0
 10
215.428638
 20
51.107533
 30
0.0
 10
210.392946
 20
51.107533
 30
0.0
 10
210.392946
 20
51.949967
 30
0.0
 10
208.929906
 20
51.646578
 30
0.0
 10
208.929906
 20
51.451280
 30
0.0
 10
208.953331
 20
50.995773
 30
0.0
 10
209.024169
 20
50.620418
 30
0.0
 10
209.142138
 20
50.324931
 30
0.0
 10
209.307238
 20
50.109595
 30
0.0
 10
209.536402
 20
49.959453
 30
0.0
 10
209.846564
 20
49.851926
 30
0.0
 10
210.237724
 20
49.787580
 30
0.0
 10
210.709600
 20
49.766131
 30
0.0
 10
215.111984
 20
49.766131
 30
0.0
 10
215.583860
 20
49.787580
 30
0.0
 10
215.974738
 20
49.851926
 30
0.0
 10
216.284618
 20
49.959453
 30
0.0
 10
216.514064
 20
50.109595
 30
0.0
 10
216.679164
 20
50.324931
 30
0.0
 10
216.797133
 20
50.620418
 30
0.0
 10
216.867971
 20
50.995773
 30
0.0
 10
216.891678
 20
51.451280
 30
0.0
 10
216.891678
 20
52.428898
 30
0.0
 10
216.867971
 20
52.884122
 30
0.0
 10
216.797133
 20
53.258067
 30
0.0
 10
216.679164
 20
53.551295
 30
0.0
 10
216.514064
 20
53.763809
 30
0.0
 10
216.284618
 20
53.917055
 30
0.0
 10
215.974738
 20
54.026558
 30
0.0
 10
215.583860
 20
54.092315
 30
0.0
 10
215.111984
 20
54.114047
 30
0.0
 10
210.669242
 20
54.114047
 30
0.0
 10
210.669242
 20
55.644820
 30
0.0
 10
215.334093
 20
55.644820
 30
0.0
 10
215.334093
 20
54.835407
 30
0.0
 10
216.797133
 20
55.179153
 30
0.0
 10
216.797133
 20
55.327602
 30
0.0
 10
216.772298
 20
55.740493
 30
0.0
 10
216.697791
 20
56.082829
 30
0.0
 10
216.573613
 20
56.354327
 30
0.0
 10
216.399764
 20
56.554704
 30
0.0
 10
216.167496
 20
56.702307
 30
0.0
 10
215.861849
 20
56.807576
 30
0.0
 10
215.483107
 20
56.870793
 30
0.0
 10
215.030704
 20
56.891678
 30
0.0
 10
210.986178
 20
56.891678
 30
0.0
  0
LWPOLYLINE
  5
114
100
AcDbEntity
  8
Layer_1
 62
7
100
AcDbPolyline
 90
13
 70
1
 10
4.739753
 20
55.732027
 30
0.0
 10
8.521954
 20
55.732027
 30
0.0
 10
8.869172
 20
55.705215
 30
0.0
 10
9.101780
 20
55.624218
 30
0.0
 10
9.238234
 20
55.469278
 30
0.0
 10
9.283672
 20
55.220075
 30
0.0
 10
9.283672
 20
54.545564
 30
0.0
 10
9.238234
 20
54.296080
 30
0.0
 10
9.101780
 20
54.141140
 30
0.0
 10
8.869172
 20
54.060424
 30
0.0
 10
8.521954
 20
54.033613
 30
0.0
 10
4.739753
 20
54.033613
 30
0.0
 10
4.739753
 20
55.732027
 30
0.0
  0
LWPOLYLINE
  5
115
100
AcDbEntity
  8
Layer_1
 62
7
100
AcDbPolyline
 90
13
 70
1
 10
88.228257
 20
55.732027
 30
0.0
 10
92.009752
 20
55.732027
 30
0.0
 10
92.357168
 20
55.705215
 30
0.0
 10
92.589719
 20
55.624218
 30
0.0
 10
92.726032
 20
55.469278
 30
0.0
 10
92.771470
 20
55.220075
 30
0.0
 10
92.771470
 20
54.545564
 30
0.0
 10
92.726032
 20
54.296080
 30
0.0
 10
92.589719
 20
54.141140
 30
0.0
 10
92.357168
 20
54.060424
 30
0.0
 10
92.009752
 20
54.033613
 30
0.0
 10
88.228257
 20
54.033613
 30
0.0
 10
88.228257
 20
55.732027
 30
0.0
  0
LWPOLYLINE
  5
116
100
AcDbEntity
  8
Layer_1
 62
7
100
AcDbPolyline
 90
13
 70
1
 10
137.293438
 20
55.658367
 30
0.0
 10
141.021311
 20
55.658367
 30
0.0
 10
141.371831
 20
55.629580
 30
0.0
 10
141.601278
 20
55.543502
 30
0.0
 10
141.727431
 20
55.378402
 30
0.0
 10
141.769765
 20
55.098438
 30
0.0
 10
141.769765
 20
54.242175
 30
0.0
 10
141.727431
 20
53.960800
 30
0.0
 10
141.601278
 20
53.790620
 30
0.0
 10
141.371831
 20
53.704542
 30
0.0
 10
141.021311
 20
53.676038
 30
0.0
 10
137.293438
 20
53.676038
 30
0.0
 10
137.293438
 20
55.658367
 30
0.0
  0
LWPOLYLINE
  5
117
100
AcDbEntity
  8
Layer_1
 62
7
100
AcDbPolyline
 90
13
 70
1
 10
178.606257
 20
55.658367
 30
0.0
 10
182.334130
 20
55.658367
 30
0.0
 10
182.684650
 20
55.629580
 30
0.0
 10
182.913815
 20
55.543502
 30
0.0
 10
183.040250
 20
55.378402
 30
0.0
 10
183.082301
 20
55.098438
 30
0.0
 10
183.082301
 20
54.242175
 30
0.0
 10
183.040250
 20
53.960800
 30
0.0
 10
182.913815
 20
53.790620
 30
0.0
 10
182.684650
 20
53.704542
 30
0.0
 10
182.334130
 20
53.676038
 30
0.0
 10
178.606257
 20
53.676038
 30
0.0
 10
178.606257
 20
55.658367
 30
0.0
  0
LWPOLYLINE
  5
118
100
AcDbEntity
  8
Layer_1
 62
7
100
AcDbPolyline
 90
20
 70
1
 10
42.128667
 20
55.617444
 30
0.0
 10
45.068011
 20
55.617444
 30
0.0
 10
45.614958
 20
55.582167
 30
0.0
 10
46.089374
 20
55.476051
 30
0.0
 10
46.491540
 20
55.299098
 30
0.0
 10
46.820894
 20
55.051589
 30
0.0
 10
47.080538
 20
54.738322
 30
0.0
 10
47.265958
 20
54.358733
 30
0.0
 10
47.377154
 20
53.912258
 30
0.0
 10
47.414125
 20
53.399460
 30
0.0
 10
47.366994
 20
52.807358
 30
0.0
 10
47.225318
 20
52.312340
 30
0.0
 10
46.989380
 20
51.914124
 30
0.0
 10
46.659180
 20
51.612993
 30
0.0
 10
46.229356
 20
51.391731
 30
0.0
 10
45.688336
 20
51.233969
 30
0.0
 10
45.036120
 20
51.139142
 30
0.0
 10
44.272709
 20
51.107533
 30
0.0
 10
42.128667
 20
51.107533
 30
0.0
 10
42.128667
 20
55.617444
 30
0.0
  0
LWPOLYLINE
  5
119
100
AcDbEntity
  8
Layer_1
 62
7
100
AcDbPolyline
 90
5
 70
1
 10
166.362892
 20
55.617444
 30
0.0
 10
171.830948
 20
55.617444
 30
0.0
 10
171.830948
 20
51.107533
 30
0.0
 10
166.362892
 20
51.107533
 30
0.0
 10
166.362892
 20
55.617444
 30
0.0
  0
LWPOLYLINE
  5
11a
100
AcDbEntity
  8
Layer_1
 62
7
100
AcDbPolyline
 90
20
 70
1
 10
199.127482
 20
55.617444
 30
0.0
 10
202.066826
 20
55.617444
 30
0.0
 10
202.613773
 20
55.582167
 30
0.0
 10
203.088189
 20
55.476051
 30
0.0
 10
203.490073
 20
55.299098
 30
0.0
 10
203.819709
 20
55.051589
 30
0.0
 10
204.079071
 20
54.738322
 30
0.0
 10
204.264491
 20
54.358733
 30
0.0
 10
204.375686
 20
53.912258
 30
0.0
 10
204.412940
 20
53.399460
 30
0.0
 10
204.365809
 20
52.807358
 30
0.0
 10
204.224133
 20
52.312340
 30
0.0
 10
203.988195
 20
51.914124
 30
0.0
 10
203.657995
 20
51.612993
 30
0.0
 10
203.228171
 20
51.391731
 30
0.0
 10
202.687151
 20
51.233969
 30
0.0
 10
202.034935
 20
51.139142
 30
0.0
 10
201.271524
 20
51.107533
 30
0.0
 10
199.127482
 20
51.107533
 30
0.0
 10
199.127482
 20
55.617444
 30
0.0
  0
LWPOLYLINE
  5
11b
100
AcDbEntity
  8
Layer_1
 62
7
100
AcDbPolyline
 90
13
 70
1
 10
4.739753
 20
52.860415
 30
0.0
 10
8.521954
 20
52.860415
 30
0.0
 10
8.899426
 20
52.828524
 30
0.0
 10
9.142081
 20
52.732287
 30
0.0
 10
9.278536
 20
52.541787
 30
0.0
 10
9.323973
 20
52.226262
 30
0.0
 10
9.323973
 20
51.687500
 30
0.0
 10
9.278536
 20
51.370282
 30
0.0
 10
9.142081
 20
51.174702
 30
0.0
 10
8.899426
 20
51.078746
 30
0.0
 10
8.521954
 20
51.046573
 30
0.0
 10
4.739753
 20
51.046573
 30
0.0
 10
4.739753
 20
52.860415
 30
0.0
  0
LWPOLYLINE
  5
11c
100
AcDbEntity
  8
Layer_1
 62
7
100
AcDbPolyline
 90
13
 70
1
 10
88.228257
 20
52.860415
 30
0.0
 10
92.009752
 20
52.860415
 30
0.0
 10
92.387366
 20
52.828524
 30
0.0
 10
92.630077
 20
52.732287
 30
0.0
 10
92.766672
 20
52.541787
 30
0.0
 10
92.812392
 20
52.226262
 30
0.0
 10
92.812392
 20
51.687500
 30
0.0
 10
92.766672
 20
51.370282
 30
0.0
 10
92.630077
 20
51.174702
 30
0.0
 10
92.387366
 20
51.078746
 30
0.0
 10
92.009752
 20
51.046573
 30
0.0
 10
88.228257
 20
51.046573
 30
0.0
 10
88.228257
 20
52.860415
 30
0.0
  0
LWPOLYLINE
  5
11d
100
AcDbEntity
  8
Layer_1
 62
7
100
AcDbPolyline
 90
77
 70
1
 10
86.593061
 20
46.663944
 30
0.0
 10
54.226123
 20
46.621611
 30
0.0
 10
3.210137
 20
46.543435
 30
0.0
 10
3.121265
 20
45.480022
 30
0.0
 10
3.113955
 20
44.959040
 30
0.0
 10
3.178217
 20
44.461200
 30
0.0
 10
3.311059
 20
43.991300
 30
0.0
 10
3.509433
 20
43.555549
 30
0.0
 10
3.770320
 20
43.158744
 30
0.0
 10
4.090698
 20
42.806813
 30
0.0
 10
4.467578
 20
42.505117
 30
0.0
 10
4.897882
 20
42.259020
 30
0.0
 10
5.119455
 20
42.182820
 30
0.0
 10
5.481602
 20
42.115086
 30
0.0
 10
6.854021
 20
42.003608
 30
0.0
 10
9.467963
 20
41.920635
 30
0.0
 10
13.776198
 20
41.861651
 30
0.0
 10
29.286709
 20
41.800126
 30
0.0
 10
57.007987
 20
41.786297
 30
0.0
 10
86.074619
 20
41.774726
 30
0.0
 10
101.404930
 20
41.710662
 30
0.0
 10
105.335439
 20
41.643775
 30
0.0
 10
107.531975
 20
41.545562
 30
0.0
 10
108.560957
 20
41.409813
 30
0.0
 10
108.814675
 20
41.325993
 30
0.0
 10
108.989088
 20
41.230602
 30
0.0
 10
109.919293
 20
40.655997
 30
0.0
 10
110.928237
 20
41.210000
 30
0.0
 10
111.111117
 20
41.310188
 30
0.0
 10
111.358626
 20
41.398242
 30
0.0
 10
111.745271
 20
41.474442
 30
0.0
 10
112.344146
 20
41.540200
 30
0.0
 10
114.474924
 20
41.642364
 30
0.0
 10
118.342215
 20
41.711508
 30
0.0
 10
133.648256
 20
41.776137
 30
0.0
 10
162.988643
 20
41.786580
 30
0.0
 10
190.709922
 20
41.800408
 30
0.0
 10
206.220291
 20
41.861651
 30
0.0
 10
210.528695
 20
41.920635
 30
0.0
 10
213.142355
 20
42.003608
 30
0.0
 10
214.514802
 20
42.115086
 30
0.0
 10
214.876893
 20
42.182820
 30
0.0
 10
215.098438
 20
42.259020
 30
0.0
 10
215.528827
 20
42.505117
 30
0.0
 10
215.905593
 20
42.806813
 30
0.0
 10
216.225916
 20
43.158744
 30
0.0
 10
216.486689
 20
43.555549
 30
0.0
 10
216.685091
 20
43.991300
 30
0.0
 10
216.817736
 20
44.461200
 30
0.0
 10
216.882082
 20
44.959040
 30
0.0
 10
216.874744
 20
45.480022
 30
0.0
 10
216.786127
 20
46.543435
 30
0.0
 10
165.770225
 20
46.621611
 30
0.0
 10
133.403005
 20
46.663944
 30
0.0
 10
123.922878
 20
46.621046
 30
0.0
 10
117.831958
 20
46.493764
 30
0.0
 10
115.804473
 20
46.388777
 30
0.0
 10
114.321113
 20
46.251053
 30
0.0
 10
113.280277
 20
46.076640
 30
0.0
 10
112.580649
 20
45.861586
 30
0.0
 10
112.121473
 20
45.601942
 30
0.0
 10
111.801433
 20
45.294037
 30
0.0
 10
111.173488
 20
44.517362
 30
0.0
 10
109.998033
 20
43.242000
 30
0.0
 10
108.822295
 20
44.517362
 30
0.0
 10
108.334051
 20
45.120753
 30
0.0
 10
108.122102
 20
45.375600
 30
0.0
 10
107.874311
 20
45.601942
 30
0.0
 10
107.548626
 20
45.800909
 30
0.0
 10
107.101868
 20
45.974193
 30
0.0
 10
106.491704
 20
46.123771
 30
0.0
 10
105.674953
 20
46.251053
 30
0.0
 10
104.609282
 20
46.357451
 30
0.0
 10
103.252075
 20
46.445222
 30
0.0
 10
99.492028
 20
46.569964
 30
0.0
 10
94.052759
 20
46.638544
 30
0.0
 10
86.593061
 20
46.663944
 30
0.0
  0
LWPOLYLINE
  5
11e
100
AcDbEntity
  8
Layer_1
 62
7
100
AcDbPolyline
 90
30
 70
1
 10
26.055264
 20
39.777157
 30
0.0
 10
14.632686
 20
39.701522
 30
0.0
 10
3.210137
 20
39.626168
 30
0.0
 10
3.248378
 20
36.420688
 30
0.0
 10
3.278576
 20
35.214753
 30
0.0
 10
3.342047
 20
34.211735
 30
0.0
 10
3.445454
 20
33.389057
 30
0.0
 10
3.595483
 20
32.724424
 30
0.0
 10
3.798768
 20
32.195257
 30
0.0
 10
4.062025
 20
31.778697
 30
0.0
 10
4.391914
 20
31.452730
 30
0.0
 10
4.795069
 20
31.194497
 30
0.0
 10
5.195909
 20
31.046330
 30
0.0
 10
5.707578
 20
30.955737
 30
0.0
 10
6.303349
 20
30.926386
 30
0.0
 10
6.956693
 20
30.960535
 30
0.0
 10
18.005101
 20
31.743419
 30
0.0
 10
23.473665
 20
32.118493
 30
0.0
 10
26.318436
 20
32.376726
 30
0.0
 10
27.017162
 20
32.496106
 30
0.0
 10
27.372282
 20
32.627057
 30
0.0
 10
27.453506
 20
32.701282
 30
0.0
 10
27.487881
 20
32.783126
 30
0.0
 10
27.468097
 20
32.977859
 30
0.0
 10
26.871733
 20
35.158591
 30
0.0
 10
26.549972
 20
36.532448
 30
0.0
 10
26.411824
 20
37.608562
 30
0.0
 10
26.355379
 20
38.410637
 30
0.0
 10
26.229932
 20
39.124942
 30
0.0
 10
26.055264
 20
39.777157
 30
0.0
  0
LWPOLYLINE
  5
11f
100
AcDbEntity
  8
Layer_1
 62
7
100
AcDbPolyline
 90
28
 70
1
 10
193.899879
 20
39.777157
 30
0.0
 10
193.757075
 20
38.837075
 30
0.0
 10
193.459048
 20
36.716175
 30
0.0
 10
193.207871
 20
35.445328
 30
0.0
 10
192.822355
 20
34.047199
 30
0.0
 10
192.517273
 20
32.965159
 30
0.0
 10
192.450950
 20
32.612664
 30
0.0
 10
192.458570
 20
32.454902
 30
0.0
 10
195.546646
 20
32.166188
 30
0.0
 10
202.807377
 20
31.616419
 30
0.0
 10
210.363595
 20
31.125917
 30
0.0
 10
212.919118
 20
30.999482
 30
0.0
 10
214.162589
 20
30.980008
 30
0.0
 10
214.641802
 20
31.061853
 30
0.0
 10
215.115935
 20
31.210866
 30
0.0
 10
215.530520
 20
31.405599
 30
0.0
 10
215.830804
 20
31.625168
 30
0.0
 10
216.072387
 20
31.976253
 30
0.0
 10
216.292802
 20
32.507677
 30
0.0
 10
216.486407
 20
33.189244
 30
0.0
 10
216.648120
 20
33.989908
 30
0.0
 10
216.772862
 20
34.879473
 30
0.0
 10
216.855553
 20
35.827457
 30
0.0
 10
216.890831
 20
36.803099
 30
0.0
 10
216.873616
 20
37.776202
 30
0.0
 10
216.786127
 20
39.626168
 30
0.0
 10
205.343144
 20
39.701522
 30
0.0
 10
193.899879
 20
39.777157
 30
0.0
  0
LWPOLYLINE
  5
120
100
AcDbEntity
  8
Layer_1
 62
7
100
AcDbPolyline
 90
35
 70
1
 10
28.634493
 20
39.770384
 30
0.0
 10
28.805520
 20
37.939326
 30
0.0
 10
28.904862
 20
37.133582
 30
0.0
 10
29.047102
 20
36.368195
 30
0.0
 10
29.227160
 20
35.654455
 30
0.0
 10
29.441084
 20
35.004497
 30
0.0
 10
29.684078
 20
34.430175
 30
0.0
 10
29.952471
 20
33.942777
 30
0.0
 10
30.241184
 20
33.554722
 30
0.0
 10
30.545984
 20
33.277297
 30
0.0
 10
30.914849
 20
33.085668
 30
0.0
 10
31.482115
 20
32.956975
 30
0.0
 10
32.387767
 20
32.894886
 30
0.0
 10
33.771502
 20
32.903353
 30
0.0
 10
38.535131
 20
33.146628
 30
0.0
 10
46.893142
 20
33.716435
 30
0.0
 10
59.630396
 20
34.580882
 30
0.0
 10
59.776305
 20
34.597251
 30
0.0
 10
59.891734
 20
34.653977
 30
0.0
 10
59.980069
 20
34.765455
 30
0.0
 10
60.044981
 20
34.944948
 30
0.0
 10
60.116947
 20
35.563297
 30
0.0
 10
60.134727
 20
36.618526
 30
0.0
 10
60.174803
 20
37.756728
 30
0.0
 10
60.177907
 20
38.206591
 30
0.0
 10
60.128518
 20
38.584486
 30
0.0
 10
59.995309
 20
38.897471
 30
0.0
 10
59.746954
 20
39.150906
 30
0.0
 10
59.352407
 20
39.351002
 30
0.0
 10
58.780625
 20
39.504248
 30
0.0
 10
58.000563
 20
39.616573
 30
0.0
 10
56.980612
 20
39.694184
 30
0.0
 10
54.097712
 20
39.768973
 30
0.0
 10
44.086160
 20
39.770384
 30
0.0
 10
28.634493
 20
39.770384
 30
0.0
  0
LWPOLYLINE
  5
121
100
AcDbEntity
  8
Layer_1
 62
7
100
AcDbPolyline
 90
31
 70
1
 10
175.910188
 20
39.770384
 30
0.0
 10
165.898636
 20
39.768973
 30
0.0
 10
163.015736
 20
39.694184
 30
0.0
 10
161.996068
 20
39.616573
 30
0.0
 10
161.215723
 20
39.504248
 30
0.0
 10
160.643941
 20
39.351002
 30
0.0
 10
160.249394
 20
39.150906
 30
0.0
 10
160.001321
 20
38.897471
 30
0.0
 10
159.867830
 20
38.584486
 30
0.0
 10
159.818441
 20
38.206591
 30
0.0
 10
159.821545
 20
37.756728
 30
0.0
 10
159.861621
 20
36.618526
 30
0.0
 10
159.861621
 20
34.582011
 30
0.0
 10
160.798599
 20
34.562255
 30
0.0
 10
172.687774
 20
33.732522
 30
0.0
 10
180.327530
 20
33.197428
 30
0.0
 10
185.265855
 20
32.937502
 30
0.0
 10
186.899075
 20
32.904764
 30
0.0
 10
188.069733
 20
32.933268
 30
0.0
 10
188.848666
 20
33.021039
 30
0.0
 10
189.306713
 20
33.165537
 30
0.0
 10
189.620826
 20
33.408531
 30
0.0
 10
189.927037
 20
33.787555
 30
0.0
 10
190.217726
 20
34.284266
 30
0.0
 10
190.486119
 20
34.880319
 30
0.0
 10
190.724315
 20
35.557088
 30
0.0
 10
190.925257
 20
36.296511
 30
0.0
 10
191.081608
 20
37.079959
 30
0.0
 10
191.186313
 20
37.889373
 30
0.0
 10
191.361573
 20
39.770384
 30
0.0
 10
175.910188
 20
39.770384
 30
0.0
  0
LWPOLYLINE
  5
122
100
AcDbEntity
  8
Layer_1
 62
7
100
AcDbPolyline
 90
66
 70
1
 10
84.489941
 20
39.710835
 30
0.0
 10
62.584698
 20
39.626168
 30
0.0
 10
62.493258
 20
37.752777
 30
0.0
 10
62.492130
 20
36.654368
 30
0.0
 10
62.592883
 20
35.569506
 30
0.0
 10
62.791567
 20
34.503835
 30
0.0
 10
63.084232
 20
33.462717
 30
0.0
 10
63.466078
 20
32.452079
 30
0.0
 10
63.933438
 20
31.477002
 30
0.0
 10
64.482078
 20
30.543128
 30
0.0
 10
65.107201
 20
29.656104
 30
0.0
 10
65.805418
 20
28.821008
 30
0.0
 10
66.571934
 20
28.043486
 30
0.0
 10
67.402514
 20
27.329181
 30
0.0
 10
68.293207
 20
26.683457
 30
0.0
 10
69.239781
 20
26.111957
 30
0.0
 10
70.238001
 20
25.619761
 30
0.0
 10
71.283634
 20
25.212797
 30
0.0
 10
72.372448
 20
24.896144
 30
0.0
 10
73.013939
 20
24.805833
 30
0.0
 10
74.103881
 20
24.726528
 30
0.0
 10
77.361008
 20
24.602350
 30
0.0
 10
81.608452
 20
24.524175
 30
0.0
 10
86.311686
 20
24.492848
 30
0.0
 10
90.934768
 20
24.509499
 30
0.0
 10
94.942888
 20
24.574693
 30
0.0
 10
97.800953
 20
24.689275
 30
0.0
 10
98.631533
 20
24.765475
 30
0.0
 10
98.973868
 20
24.854375
 30
0.0
 10
99.096070
 20
25.153530
 30
0.0
 10
99.217144
 20
25.701606
 30
0.0
 10
99.399177
 20
27.232661
 30
0.0
 10
99.502188
 20
28.110090
 30
0.0
 10
99.686762
 20
28.973690
 30
0.0
 10
99.948382
 20
29.817817
 30
0.0
 10
100.282250
 20
30.638237
 30
0.0
 10
100.684135
 20
31.429306
 30
0.0
 10
101.149237
 20
32.186790
 30
0.0
 10
101.672759
 20
32.905046
 30
0.0
 10
102.250468
 20
33.579275
 30
0.0
 10
102.877566
 20
34.204679
 30
0.0
 10
103.549537
 20
34.776462
 30
0.0
 10
104.261866
 20
35.289259
 30
0.0
 10
105.009473
 20
35.738275
 30
0.0
 10
105.788406
 20
36.118428
 30
0.0
 10
106.593586
 20
36.425204
 30
0.0
 10
107.420497
 20
36.652957
 30
0.0
 10
108.264624
 20
36.797455
 30
0.0
 10
108.851646
 20
36.892564
 30
0.0
 10
109.308282
 20
37.018999
 30
0.0
 10
109.604615
 20
37.165473
 30
0.0
 10
109.683073
 20
37.242802
 30
0.0
 10
109.710166
 20
37.321259
 30
0.0
 10
109.656262
 20
37.603764
 30
0.0
 10
109.505273
 20
37.913926
 30
0.0
 10
109.273286
 20
38.236224
 30
0.0
 10
108.976106
 20
38.555135
 30
0.0
 10
108.630384
 20
38.855137
 30
0.0
 10
108.251924
 20
39.120991
 30
0.0
 10
107.856531
 20
39.336891
 30
0.0
 10
107.460573
 20
39.487597
 30
0.0
 10
106.876937
 20
39.559846
 30
0.0
 10
105.662253
 20
39.618831
 30
0.0
 10
101.294582
 20
39.699264
 30
0.0
 10
94.267530
 20
39.729744
 30
0.0
 10
84.489941
 20
39.710835
 30
0.0
  0
LWPOLYLINE
  5
123
100
AcDbEntity
  8
Layer_1
 62
7
100
AcDbPolyline
 90
66
 70
1
 10
135.506407
 20
39.710835
 30
0.0
 10
125.729100
 20
39.729744
 30
0.0
 10
118.701766
 20
39.699264
 30
0.0
 10
114.334095
 20
39.618831
 30
0.0
 10
113.119411
 20
39.559564
 30
0.0
 10
112.535775
 20
39.487597
 30
0.0
 10
112.139817
 20
39.336891
 30
0.0
 10
111.744706
 20
39.120991
 30
0.0
 10
111.365964
 20
38.855137
 30
0.0
 10
111.020242
 20
38.555135
 30
0.0
 10
110.723344
 20
38.236224
 30
0.0
 10
110.491075
 20
37.913926
 30
0.0
 10
110.340086
 20
37.603764
 30
0.0
 10
110.286182
 20
37.321259
 30
0.0
 10
110.313275
 20
37.242802
 30
0.0
 10
110.391733
 20
37.165473
 30
0.0
 10
110.688066
 20
37.018999
 30
0.0
 10
111.144702
 20
36.892564
 30
0.0
 10
111.731724
 20
36.797455
 30
0.0
 10
112.575851
 20
36.652957
 30
0.0
 10
113.403044
 20
36.425204
 30
0.0
 10
114.208224
 20
36.118428
 30
0.0
 10
114.986875
 20
35.738275
 30
0.0
 10
115.734764
 20
35.289259
 30
0.0
 10
116.446811
 20
34.776462
 30
0.0
 10
117.118782
 20
34.204679
 30
0.0
 10
117.745880
 20
33.579275
 30
0.0
 10
118.323589
 20
32.905046
 30
0.0
 10
118.847111
 20
32.186790
 30
0.0
 10
119.312213
 20
31.429306
 30
0.0
 10
119.714098
 20
30.638237
 30
0.0
 10
120.048249
 20
29.817817
 30
0.0
 10
120.309869
 20
28.973690
 30
0.0
 10
120.494442
 20
28.110090
 30
0.0
 10
120.597171
 20
27.232661
 30
0.0
 10
120.779204
 20
25.701606
 30
0.0
 10
120.900278
 20
25.153530
 30
0.0
 10
121.022480
 20
24.854375
 30
0.0
 10
121.355220
 20
24.769144
 30
0.0
 10
122.166044
 20
24.694355
 30
0.0
 10
124.960609
 20
24.577233
 30
0.0
 10
128.885756
 20
24.503573
 30
0.0
 10
133.420502
 20
24.474504
 30
0.0
 10
138.043867
 20
24.490308
 30
0.0
 10
142.235149
 20
24.551833
 30
0.0
 10
145.473085
 20
24.659924
 30
0.0
 10
146.572058
 20
24.731890
 30
0.0
 10
147.237538
 20
24.815710
 30
0.0
 10
148.360218
 20
25.105835
 30
0.0
 10
149.440283
 20
25.492197
 30
0.0
 10
150.472934
 20
25.968870
 30
0.0
 10
151.453656
 20
26.530210
 30
0.0
 10
152.377934
 20
27.170008
 30
0.0
 10
153.241252
 20
27.882901
 30
0.0
 10
154.038530
 20
28.662964
 30
0.0
 10
154.765816
 20
29.504550
 30
0.0
 10
155.418032
 20
30.401453
 30
0.0
 10
155.990943
 20
31.348590
 30
0.0
 10
156.479752
 20
32.339473
 30
0.0
 10
156.879943
 20
33.368737
 30
0.0
 10
157.187001
 20
34.430457
 30
0.0
 10
157.396410
 20
35.518988
 30
0.0
 10
157.503090
 20
36.628404
 30
0.0
 10
157.503090
 20
37.752777
 30
0.0
 10
157.411650
 20
39.626168
 30
0.0
 10
135.506407
 20
39.710835
 30
0.0
  0
LWPOLYLINE
  5
124
100
AcDbEntity
  8
Layer_1
 62
7
100
AcDbPolyline
 90
63
 70
1
 10
109.998033
 20
34.436384
 30
0.0
 10
108.866886
 20
34.411548
 30
0.0
 10
107.901122
 20
34.327164
 30
0.0
 10
107.065180
 20
34.168555
 30
0.0
 10
106.324064
 20
33.920764
 30
0.0
 10
105.642497
 20
33.569115
 30
0.0
 10
104.985766
 20
33.098650
 30
0.0
 10
104.318311
 20
32.494413
 30
0.0
 10
103.605135
 20
31.741726
 30
0.0
 10
102.894217
 20
30.855266
 30
0.0
 10
102.319895
 20
29.930706
 30
0.0
 10
101.883297
 20
28.970586
 30
0.0
 10
101.584424
 20
27.977728
 30
0.0
 10
101.424404
 20
26.954390
 30
0.0
 10
101.403237
 20
25.903395
 30
0.0
 10
101.521770
 20
24.827564
 30
0.0
 10
101.780850
 20
23.728872
 30
0.0
 10
102.133346
 20
22.745046
 30
0.0
 10
102.583491
 20
21.837701
 30
0.0
 10
103.129591
 20
21.008250
 30
0.0
 10
103.770517
 20
20.257821
 30
0.0
 10
104.504859
 20
19.588390
 30
0.0
 10
105.330924
 20
19.000803
 30
0.0
 10
106.247864
 20
18.497037
 30
0.0
 10
107.253986
 20
18.078219
 30
0.0
 10
107.824075
 20
17.902677
 30
0.0
 10
108.415331
 20
17.775395
 30
0.0
 10
109.023237
 20
17.694961
 30
0.0
 10
109.643562
 20
17.660248
 30
0.0
 10
110.271224
 20
17.669843
 30
0.0
 10
110.901708
 20
17.722901
 30
0.0
 10
112.153364
 20
17.954606
 30
0.0
 10
113.361840
 20
18.345766
 30
0.0
 10
113.938137
 20
18.598355
 30
0.0
 10
114.490164
 20
18.887350
 30
0.0
 10
115.013122
 20
19.211623
 30
0.0
 10
115.502213
 20
19.569764
 30
0.0
 10
115.952922
 20
19.960924
 30
0.0
 10
116.360733
 20
20.383975
 30
0.0
 10
116.879740
 20
21.029417
 30
0.0
 10
117.329884
 20
21.703081
 30
0.0
 10
117.711166
 20
22.400170
 30
0.0
 10
118.023586
 20
23.117015
 30
0.0
 10
118.267144
 20
23.849381
 30
0.0
 10
118.442122
 20
24.593037
 30
0.0
 10
118.547955
 20
25.343748
 30
0.0
 10
118.584644
 20
26.097281
 30
0.0
 10
118.552753
 20
26.849686
 30
0.0
 10
118.451718
 20
27.596728
 30
0.0
 10
118.282102
 20
28.334457
 30
0.0
 10
118.043060
 20
29.058357
 30
0.0
 10
117.735438
 20
29.764195
 30
0.0
 10
117.358671
 20
30.448302
 30
0.0
 10
116.912760
 20
31.106162
 30
0.0
 10
116.397986
 20
31.733542
 30
0.0
 10
115.682553
 20
32.488768
 30
0.0
 10
115.013404
 20
33.094982
 30
0.0
 10
114.355544
 20
33.566857
 30
0.0
 10
113.673695
 20
33.919635
 30
0.0
 10
112.932297
 20
34.167991
 30
0.0
 10
112.096073
 20
34.326882
 30
0.0
 10
111.129744
 20
34.411548
 30
0.0
 10
109.998033
 20
34.436384
 30
0.0
  0
LWPOLYLINE
  5
125
100
AcDbEntity
  8
Layer_1
 62
7
100
AcDbPolyline
 90
33
 70
1
 10
159.639230
 20
33.481344
 30
0.0
 10
158.878641
 20
31.819337
 30
0.0
 10
158.371487
 20
30.554699
 30
0.0
 10
158.240536
 20
30.099193
 30
0.0
 10
158.220216
 20
29.848015
 30
0.0
 10
158.460952
 20
29.746697
 30
0.0
 10
159.111192
 20
29.576799
 30
0.0
 10
161.460974
 20
29.067953
 30
0.0
 10
164.912270
 20
28.394006
 30
0.0
 10
169.108068
 20
27.627773
 30
0.0
 10
173.434534
 20
26.883553
 30
0.0
 10
177.242277
 20
26.268308
 30
0.0
 10
180.118968
 20
25.846668
 30
0.0
 10
181.653410
 20
25.682415
 30
0.0
 10
182.639495
 20
25.692293
 30
0.0
 10
183.013721
 20
25.735473
 30
0.0
 10
183.343639
 20
25.814777
 30
0.0
 10
183.654930
 20
25.938390
 30
0.0
 10
183.973841
 20
26.115061
 30
0.0
 10
184.738099
 20
26.658904
 30
0.0
 10
185.277990
 20
27.114128
 30
0.0
 10
185.899161
 20
27.705666
 30
0.0
 10
187.194844
 20
29.083475
 30
0.0
 10
188.248944
 20
30.365610
 30
0.0
 10
188.567573
 20
30.837486
 30
0.0
 10
188.684130
 20
31.125353
 30
0.0
 10
188.603697
 20
31.226670
 30
0.0
 10
188.276884
 20
31.322908
 30
0.0
 10
186.373013
 20
31.545299
 30
0.0
 10
181.949744
 20
31.882273
 30
0.0
 10
173.984868
 20
32.424986
 30
0.0
 10
161.551850
 20
33.305519
 30
0.0
 10
159.639230
 20
33.481344
 30
0.0
  0
LWPOLYLINE
  5
126
100
AcDbEntity
  8
Layer_1
 62
7
100
AcDbPolyline
 90
32
 70
1
 10
60.429367
 20
33.207306
 30
0.0
 10
60.104529
 20
33.229319
 30
0.0
 10
59.239236
 20
33.210411
 30
0.0
 10
56.122374
 20
33.062526
 30
0.0
 10
46.003014
 20
32.418777
 30
0.0
 10
31.528400
 20
31.415759
 30
0.0
 10
31.391240
 20
31.384997
 30
0.0
 10
31.326893
 20
31.296662
 30
0.0
 10
31.337900
 20
31.145955
 30
0.0
 10
31.426518
 20
30.928644
 30
0.0
 10
31.844207
 20
30.277839
 30
0.0
 10
32.598022
 20
29.309535
 30
0.0
 10
33.210162
 20
28.592973
 30
0.0
 10
33.827947
 20
27.936806
 30
0.0
 10
34.442909
 20
27.348373
 30
0.0
 10
35.046018
 20
26.834164
 30
0.0
 10
35.628807
 20
26.401235
 30
0.0
 10
36.182809
 20
26.056641
 30
0.0
 10
36.699276
 20
25.807157
 30
0.0
 10
37.169176
 20
25.659555
 30
0.0
 10
37.943311
 20
25.545537
 30
0.0
 10
38.517633
 20
25.544408
 30
0.0
 10
50.190627
 20
27.546775
 30
0.0
 10
58.208561
 20
28.976795
 30
0.0
 10
60.709049
 20
29.467862
 30
0.0
 10
61.700214
 20
29.714524
 30
0.0
 10
61.734645
 20
29.895993
 30
0.0
 10
61.677918
 20
30.249617
 30
0.0
 10
61.362394
 20
31.274648
 30
0.0
 10
60.897856
 20
32.393095
 30
0.0
 10
60.655145
 20
32.862995
 30
0.0
 10
60.429367
 20
33.207306
 30
0.0
  0
LWPOLYLINE
  5
127
100
AcDbEntity
  8
Layer_1
 62
7
100
AcDbPolyline
 90
37
 70
1
 10
27.740413
 20
31.126764
 30
0.0
 10
23.787467
 20
30.898728
 30
0.0
 10
16.228540
 20
30.379722
 30
0.0
 10
8.779256
 20
29.833622
 30
0.0
 10
5.155241
 20
29.524306
 30
0.0
 10
4.837543
 20
29.407184
 30
0.0
 10
4.633666
 20
29.204830
 30
0.0
 10
4.547503
 20
28.897208
 30
0.0
 10
4.583007
 20
28.463715
 30
0.0
 10
4.744127
 20
27.884030
 30
0.0
 10
5.034760
 20
27.138117
 30
0.0
 10
6.020308
 20
25.065759
 30
0.0
 10
6.865282
 20
23.450319
 30
0.0
 10
7.493198
 20
22.456615
 30
0.0
 10
7.780895
 20
22.120488
 30
0.0
 10
8.080502
 20
21.853224
 30
0.0
 10
8.414032
 20
21.625752
 30
0.0
 10
8.803584
 20
21.408724
 30
0.0
 10
9.872416
 20
20.941364
 30
0.0
 10
10.331168
 20
20.799406
 30
0.0
 10
10.658264
 20
20.747195
 30
0.0
 10
14.224283
 20
21.297528
 30
0.0
 10
21.977463
 20
22.620868
 30
0.0
 10
29.649647
 20
23.943926
 30
0.0
 10
33.021355
 20
24.494259
 30
0.0
 10
33.196615
 20
24.516555
 30
0.0
 10
33.288902
 20
24.589086
 30
0.0
 10
33.293982
 20
24.719473
 30
0.0
 10
33.207340
 20
24.915899
 30
0.0
 10
32.738851
 20
25.539046
 30
0.0
 10
31.847029
 20
26.522590
 30
0.0
 10
30.503933
 20
28.079046
 30
0.0
 10
29.356418
 20
29.610102
 30
0.0
 10
28.873818
 20
30.278686
 30
0.0
 10
28.446815
 20
30.751690
 30
0.0
 10
28.070331
 20
31.032784
 30
0.0
 10
27.740413
 20
31.126764
 30
0.0
  0
LWPOLYLINE
  5
128
100
AcDbEntity
  8
Layer_1
 62
7
100
AcDbPolyline
 90
42
 70
1
 10
192.286979
 20
31.124788
 30
0.0
 10
192.124984
 20
31.087253
 30
0.0
 10
191.927428
 20
30.977186
 30
0.0
 10
191.425637
 20
30.538895
 30
0.0
 10
190.781042
 20
29.810479
 30
0.0
 10
189.994206
 20
28.791657
 30
0.0
 10
188.545277
 20
26.948181
 30
0.0
 10
187.920437
 20
26.232466
 30
0.0
 10
187.472268
 20
25.785708
 30
0.0
 10
186.903308
 20
25.231141
 30
0.0
 10
186.730306
 20
25.003670
 30
0.0
 10
186.666524
 20
24.850424
 30
0.0
 10
186.829930
 20
24.770273
 30
0.0
 10
187.297855
 20
24.640733
 30
0.0
 10
189.016306
 20
24.260861
 30
0.0
 10
191.559410
 20
23.764432
 30
0.0
 10
194.665266
 20
23.205350
 30
0.0
 10
205.401564
 20
21.295552
 30
0.0
 10
207.210044
 20
20.992446
 30
0.0
 10
208.693404
 20
20.862059
 30
0.0
 10
209.331509
 20
20.869397
 30
0.0
 10
209.910346
 20
20.929792
 30
0.0
 10
210.437255
 20
21.046632
 30
0.0
 10
210.919573
 20
21.222739
 30
0.0
 10
211.364638
 20
21.461499
 30
0.0
 10
211.780069
 20
21.766581
 30
0.0
 10
212.172640
 20
22.140808
 30
0.0
 10
212.549971
 20
22.587848
 30
0.0
 10
212.919682
 20
23.110806
 30
0.0
 10
213.288829
 20
23.713068
 30
0.0
 10
214.054780
 20
25.168206
 30
0.0
 10
214.994298
 20
27.203028
 30
0.0
 10
215.268900
 20
27.932008
 30
0.0
 10
215.418478
 20
28.496735
 30
0.0
 10
215.446418
 20
28.917528
 30
0.0
 10
215.357235
 20
29.214990
 30
0.0
 10
215.154035
 20
29.410570
 30
0.0
 10
214.840769
 20
29.524306
 30
0.0
 10
211.214495
 20
29.833622
 30
0.0
 10
203.762982
 20
30.379722
 30
0.0
 10
196.212126
 20
30.898446
 30
0.0
 10
192.286979
 20
31.124788
 30
0.0
  0
LWPOLYLINE
  5
129
100
AcDbEntity
  8
Layer_1
 62
7
100
AcDbPolyline
 90
30
 70
1
 10
62.440765
 20
28.368041
 30
0.0
 10
58.769901
 20
27.769448
 30
0.0
 10
50.551307
 20
26.355515
 30
0.0
 10
45.621449
 20
25.475264
 30
0.0
 10
42.031865
 20
24.785513
 30
0.0
 10
39.837869
 20
24.297550
 30
0.0
 10
39.281327
 20
24.132733
 30
0.0
 10
39.094213
 20
24.022384
 30
0.0
 10
39.145013
 20
23.929815
 30
0.0
 10
39.291205
 20
23.797452
 30
0.0
 10
39.831096
 20
23.431410
 30
0.0
 10
41.635625
 20
22.434319
 30
0.0
 10
43.898765
 20
21.343530
 30
0.0
 10
45.012131
 20
20.860648
 30
0.0
 10
46.011762
 20
20.471746
 30
0.0
 10
47.269345
 20
20.067321
 30
0.0
 10
48.066905
 20
19.892908
 30
0.0
 10
48.950825
 20
20.109090
 30
0.0
 10
50.976334
 20
20.687646
 30
0.0
 10
56.914007
 20
22.463670
 30
0.0
 10
62.802292
 20
24.285133
 30
0.0
 10
64.766558
 20
24.920415
 30
0.0
 10
65.564401
 20
25.216184
 30
0.0
 10
65.573150
 20
25.290408
 30
0.0
 10
65.516141
 20
25.419666
 30
0.0
 10
65.238716
 20
25.810261
 30
0.0
 10
64.259123
 20
26.886939
 30
0.0
 10
63.151401
 20
27.916204
 30
0.0
 10
62.713674
 20
28.247250
 30
0.0
 10
62.440765
 20
28.368041
 30
0.0
  0
LWPOLYLINE
  5
12a
100
AcDbEntity
  8
Layer_1
 62
7
100
AcDbPolyline
 90
30
 70
1
 10
157.555865
 20
28.368041
 30
0.0
 10
157.282674
 20
28.247250
 30
0.0
 10
156.844665
 20
27.916204
 30
0.0
 10
155.736943
 20
26.886939
 30
0.0
 10
154.757632
 20
25.810261
 30
0.0
 10
154.480207
 20
25.419948
 30
0.0
 10
154.423198
 20
25.290408
 30
0.0
 10
154.431947
 20
25.216184
 30
0.0
 10
156.976745
 20
24.362461
 30
0.0
 10
162.906234
 20
22.498101
 30
0.0
 10
168.941839
 20
20.668737
 30
0.0
 10
170.890866
 20
20.108526
 30
0.0
 10
171.740919
 20
19.898552
 30
0.0
 10
172.065757
 20
19.930726
 30
0.0
 10
172.521263
 20
20.036559
 30
0.0
 10
173.740463
 20
20.432799
 30
0.0
 10
175.231161
 20
21.011637
 30
0.0
 10
176.826281
 20
21.698566
 30
0.0
 10
178.358466
 20
22.417668
 30
0.0
 10
179.660075
 20
23.093872
 30
0.0
 10
180.563750
 20
23.652390
 30
0.0
 10
180.814081
 20
23.863775
 30
0.0
 10
180.902135
 20
24.017304
 30
0.0
 10
180.719819
 20
24.128781
 30
0.0
 10
180.174566
 20
24.293035
 30
0.0
 10
178.007099
 20
24.777893
 30
0.0
 10
174.422877
 20
25.467079
 30
0.0
 10
169.445041
 20
26.355515
 30
0.0
 10
161.226447
 20
27.769448
 30
0.0
 10
157.555865
 20
28.368041
 30
0.0
  0
LWPOLYLINE
  5
12b
100
AcDbEntity
  8
Layer_1
 62
7
100
AcDbPolyline
 90
30
 70
1
 10
152.682170
 20
24.082779
 30
0.0
 10
152.304274
 20
24.040446
 30
0.0
 10
151.983387
 20
23.932919
 30
0.0
 10
149.257121
 20
22.906195
 30
0.0
 10
147.972445
 20
22.380979
 30
0.0
 10
147.578463
 20
22.167619
 30
0.0
 10
147.430296
 20
22.025661
 30
0.0
 10
147.774043
 20
21.769686
 30
0.0
 10
148.719487
 20
21.246446
 30
0.0
 10
151.837761
 20
19.702690
 30
0.0
 10
156.258772
 20
17.614528
 30
0.0
 10
158.959921
 20
17.595337
 30
0.0
 10
160.623621
 20
17.633437
 30
0.0
 10
162.388639
 20
17.757615
 30
0.0
 10
164.144625
 20
17.948961
 30
0.0
 10
165.780668
 20
18.189415
 30
0.0
 10
167.186417
 20
18.459783
 30
0.0
 10
168.251241
 20
18.742006
 30
0.0
 10
168.621234
 20
18.881706
 30
0.0
 10
168.864510
 20
19.017455
 30
0.0
 10
168.967239
 20
19.146712
 30
0.0
 10
168.915874
 20
19.267221
 30
0.0
 10
168.191974
 20
19.545775
 30
0.0
 10
166.415668
 20
20.135901
 30
0.0
 10
160.774045
 20
21.904870
 30
0.0
 10
157.304687
 20
22.957841
 30
0.0
 10
154.985103
 20
23.629248
 30
0.0
 10
153.537021
 20
23.982590
 30
0.0
 10
153.053010
 20
24.060484
 30
0.0
 10
152.682170
 20
24.082779
 30
0.0
  0
LWPOLYLINE
  5
12c
100
AcDbEntity
  8
Layer_1
 62
7
100
AcDbPolyline
 90
32
 70
1
 10
67.314179
 20
24.082497
 30
0.0
 10
66.943621
 20
24.059919
 30
0.0
 10
66.459327
 20
23.982308
 30
0.0
 10
65.011245
 20
23.628966
 30
0.0
 10
62.691943
 20
22.957841
 30
0.0
 10
59.222303
 20
21.904870
 30
0.0
 10
53.580680
 20
20.135901
 30
0.0
 10
51.804374
 20
19.545775
 30
0.0
 10
51.080474
 20
19.267221
 30
0.0
 10
51.014434
 20
19.135423
 30
0.0
 10
51.110671
 20
18.996570
 30
0.0
 10
51.368058
 20
18.851226
 30
0.0
 10
51.784900
 20
18.699955
 30
0.0
 10
53.091307
 20
18.381608
 30
0.0
 10
55.017192
 20
18.044917
 30
0.0
 10
56.284934
 20
17.882921
 30
0.0
 10
57.764343
 20
17.745761
 30
0.0
 10
59.271974
 20
17.648112
 30
0.0
 10
60.623254
 20
17.604650
 30
0.0
 10
63.560905
 20
17.576710
 30
0.0
 10
68.032152
 20
19.666001
 30
0.0
 10
71.214490
 20
21.210321
 30
0.0
 10
72.201985
 20
21.732997
 30
0.0
 10
72.587783
 20
21.987844
 30
0.0
 10
72.566616
 20
22.048239
 30
0.0
 10
72.472919
 20
22.130648
 30
0.0
 10
72.097563
 20
22.347395
 30
0.0
 10
71.520136
 20
22.609015
 30
0.0
 10
70.799341
 20
22.886157
 30
0.0
 10
68.012961
 20
23.932919
 30
0.0
 10
67.692356
 20
24.040164
 30
0.0
 10
67.314179
 20
24.082497
 30
0.0
  0
LWPOLYLINE
  5
12d
100
AcDbEntity
  8
Layer_1
 62
7
100
AcDbPolyline
 90
38
 70
1
 10
35.054202
 20
23.654084
 30
0.0
 10
23.382563
 20
21.614746
 30
0.0
 10
15.012614
 20
20.125741
 30
0.0
 10
11.279406
 20
19.409743
 30
0.0
 10
10.975171
 20
19.232508
 30
0.0
 10
10.886412
 20
19.121877
 30
0.0
 10
10.840325
 20
18.996006
 30
0.0
 10
10.877437
 20
18.697132
 30
0.0
 10
11.088991
 20
18.332219
 30
0.0
 10
11.477527
 20
17.898443
 30
0.0
 10
12.045583
 20
17.391855
 30
0.0
 10
12.795730
 20
16.809348
 30
0.0
 10
13.730422
 20
16.147537
 30
0.0
 10
15.139049
 20
15.239346
 30
0.0
 10
16.526623
 20
14.458437
 30
0.0
 10
17.921168
 20
13.789852
 30
0.0
 10
19.350765
 20
13.218917
 30
0.0
 10
20.105766
 20
12.999630
 30
0.0
 10
20.992508
 20
12.833401
 30
0.0
 10
21.967614
 20
12.727286
 30
0.0
 10
22.987734
 20
12.687210
 30
0.0
 10
23.703845
 20
12.701039
 30
0.0
 10
24.434039
 20
12.764821
 30
0.0
 10
25.269699
 20
12.900570
 30
0.0
 10
26.302209
 20
13.130863
 30
0.0
 10
29.323398
 20
13.965394
 30
0.0
 10
34.228984
 20
15.447626
 30
0.0
 10
40.690745
 20
17.473417
 30
0.0
 10
42.714278
 20
18.143130
 30
0.0
 10
43.525949
 20
18.452728
 30
0.0
 10
43.521716
 20
18.527517
 30
0.0
 10
43.410802
 20
18.650848
 30
0.0
 10
42.910422
 20
19.016890
 30
0.0
 10
42.105525
 20
19.498643
 30
0.0
 10
41.075978
 20
20.043897
 30
0.0
 10
38.679911
 20
21.333088
 30
0.0
 10
36.713951
 20
22.527452
 30
0.0
 10
35.054202
 20
23.654084
 30
0.0
  0
LWPOLYLINE
  5
12e
100
AcDbEntity
  8
Layer_1
 62
7
100
AcDbPolyline
 90
33
 70
1
 10
184.942146
 20
23.654084
 30
0.0
 10
183.282397
 20
22.527452
 30
0.0
 10
181.316437
 20
21.333088
 30
0.0
 10
178.920370
 20
20.043897
 30
0.0
 10
177.890823
 20
19.498643
 30
0.0
 10
177.085926
 20
19.016890
 30
0.0
 10
176.585546
 20
18.650848
 30
0.0
 10
176.474915
 20
18.527517
 30
0.0
 10
176.470399
 20
18.452728
 30
0.0
 10
177.273603
 20
18.143130
 30
0.0
 10
179.273430
 20
17.473135
 30
0.0
 10
185.657861
 20
15.447626
 30
0.0
 10
194.592735
 20
12.677332
 30
0.0
 10
197.331137
 20
12.766797
 30
0.0
 10
198.854573
 20
12.846383
 30
0.0
 10
199.979228
 20
13.012330
 30
0.0
 10
201.013573
 20
13.334910
 30
0.0
 10
202.266075
 20
13.883550
 30
0.0
 10
204.010773
 20
14.782710
 30
0.0
 10
205.770711
 20
15.831730
 30
0.0
 10
207.337044
 20
16.897966
 30
0.0
 10
207.982204
 20
17.395806
 30
0.0
 10
208.499800
 20
17.847643
 30
0.0
 10
208.936962
 20
18.359030
 30
0.0
 10
209.060858
 20
18.592428
 30
0.0
 10
209.121253
 20
18.806917
 30
0.0
 10
209.117302
 20
18.999110
 30
0.0
 10
209.049004
 20
19.165903
 30
0.0
 10
208.915795
 20
19.303910
 30
0.0
 10
208.717111
 20
19.409743
 30
0.0
 10
204.983875
 20
20.125741
 30
0.0
 10
196.613728
 20
21.614746
 30
0.0
 10
184.942146
 20
23.654084
 30
0.0
  0
LWPOLYLINE
  5
12f
100
AcDbEntity
  8
Layer_1
 62
7
100
AcDbPolyline
 90
21
 70
1
 10
76.345290
 20
22.188504
 30
0.0
 10
72.067365
 20
20.195732
 30
0.0
 10
69.015696
 20
18.696568
 30
0.0
 10
68.063479
 20
18.168812
 30
0.0
 10
67.685301
 20
17.889977
 30
0.0
 10
67.739487
 20
17.813777
 30
0.0
 10
67.960467
 20
17.749148
 30
0.0
 10
68.925103
 20
17.651499
 30
0.0
 10
70.625210
 20
17.595055
 30
0.0
 10
73.106225
 20
17.576710
 30
0.0
 10
78.631290
 20
17.576710
 30
0.0
 10
81.625386
 20
19.633546
 30
0.0
 10
82.776006
 20
20.451708
 30
0.0
 10
83.694921
 20
21.159239
 30
0.0
 10
84.289281
 20
21.680504
 30
0.0
 10
84.435472
 20
21.847297
 30
0.0
 10
84.465670
 20
21.939301
 30
0.0
 10
84.091443
 20
22.036104
 30
0.0
 10
83.186921
 20
22.115126
 30
0.0
 10
80.328574
 20
22.188504
 30
0.0
 10
76.345290
 20
22.188504
 30
0.0
  0
LWPOLYLINE
  5
130
100
AcDbEntity
  8
Layer_1
 62
7
100
AcDbPolyline
 90
21
 70
1
 10
87.475288
 20
22.188504
 30
0.0
 10
84.469339
 20
20.115581
 30
0.0
 10
82.346463
 20
18.583397
 30
0.0
 10
81.701021
 20
18.064108
 30
0.0
 10
81.463672
 20
17.809826
 30
0.0
 10
81.544388
 20
17.762977
 30
0.0
 10
81.775810
 20
17.719232
 30
0.0
 10
82.625863
 20
17.645290
 30
0.0
 10
85.419581
 20
17.576710
 30
0.0
 10
89.375490
 20
17.576710
 30
0.0
 10
91.328186
 20
19.514730
 30
0.0
 10
92.086517
 20
20.296204
 30
0.0
 10
92.707406
 20
20.991317
 30
0.0
 10
93.127070
 20
21.524717
 30
0.0
 10
93.281164
 20
21.820486
 30
0.0
 10
93.245039
 20
21.915030
 30
0.0
 10
93.131586
 20
21.993770
 30
0.0
 10
92.640519
 20
22.107224
 30
0.0
 10
91.743899
 20
22.169595
 30
0.0
 10
90.377944
 20
22.188504
 30
0.0
 10
87.475288
 20
22.188504
 30
0.0
  0
LWPOLYLINE
  5
131
100
AcDbEntity
  8
Layer_1
 62
7
100
AcDbPolyline
 90
23
 70
1
 10
95.744681
 20
22.188504
 30
0.0
 10
93.648053
 20
20.105986
 30
0.0
 10
92.167515
 20
18.569568
 30
0.0
 10
91.717088
 20
18.051126
 30
0.0
 10
91.551424
 20
17.799948
 30
0.0
 10
91.666288
 20
17.755075
 30
0.0
 10
91.995077
 20
17.713306
 30
0.0
 10
93.202424
 20
17.642468
 30
0.0
 10
97.171879
 20
17.576710
 30
0.0
 10
101.141617
 20
17.626099
 30
0.0
 10
102.349246
 20
17.679157
 30
0.0
 10
102.792617
 20
17.744350
 30
0.0
 10
102.506726
 20
18.215661
 30
0.0
 10
101.819515
 20
19.113692
 30
0.0
 10
100.992886
 20
20.237219
 30
0.0
 10
100.371150
 20
21.251526
 30
0.0
 10
100.062682
 20
21.788595
 30
0.0
 10
99.898146
 20
21.955106
 30
0.0
 10
99.688737
 20
22.067148
 30
0.0
 10
99.404822
 20
22.136292
 30
0.0
 10
99.017895
 20
22.172417
 30
0.0
 10
97.819862
 20
22.188504
 30
0.0
 10
95.744681
 20
22.188504
 30
0.0
  0
LWPOLYLINE
  5
132
100
AcDbEntity
  8
Layer_1
 62
7
100
AcDbPolyline
 90
23
 70
1
 10
122.190598
 20
22.188504
 30
0.0
 10
120.983533
 20
22.172417
 30
0.0
 10
120.594349
 20
22.136292
 30
0.0
 10
120.309022
 20
22.067712
 30
0.0
 10
120.098484
 20
21.955388
 30
0.0
 10
119.933949
 20
21.788877
 30
0.0
 10
119.625198
 20
21.251526
 30
0.0
 10
119.003462
 20
20.237219
 30
0.0
 10
118.176833
 20
19.113692
 30
0.0
 10
117.489622
 20
18.215661
 30
0.0
 10
117.203731
 20
17.744350
 30
0.0
 10
117.647384
 20
17.679157
 30
0.0
 10
118.855013
 20
17.626099
 30
0.0
 10
122.824469
 20
17.576710
 30
0.0
 10
126.793924
 20
17.638235
 30
0.0
 10
128.001271
 20
17.704839
 30
0.0
 10
128.330060
 20
17.744068
 30
0.0
 10
128.444924
 20
17.786119
 30
0.0
 10
128.280671
 20
18.032781
 30
0.0
 10
127.833067
 20
18.549812
 30
0.0
 10
126.362407
 20
20.091875
 30
0.0
 10
124.279889
 20
22.188504
 30
0.0
 10
122.190598
 20
22.188504
 30
0.0
  0
LWPOLYLINE
  5
133
100
AcDbEntity
  8
Layer_1
 62
7
100
AcDbPolyline
 90
20
 70
1
 10
129.618405
 20
22.188504
 30
0.0
 10
128.279542
 20
22.169312
 30
0.0
 10
127.379818
 20
22.107788
 30
0.0
 10
126.873793
 20
21.998286
 30
0.0
 10
126.753849
 20
21.924061
 30
0.0
 10
126.715184
 20
21.835444
 30
0.0
 10
126.868149
 20
21.544190
 30
0.0
 10
127.284427
 20
21.012484
 30
0.0
 10
128.653204
 20
19.529688
 30
0.0
 10
130.590942
 20
17.576710
 30
0.0
 10
134.561809
 20
17.576710
 30
0.0
 10
137.366251
 20
17.645572
 30
0.0
 10
138.219409
 20
17.719797
 30
0.0
 10
138.451678
 20
17.763541
 30
0.0
 10
138.532676
 20
17.810390
 30
0.0
 10
138.295609
 20
18.064672
 30
0.0
 10
137.649885
 20
18.583961
 30
0.0
 10
135.527009
 20
20.116146
 30
0.0
 10
132.521060
 20
22.188504
 30
0.0
 10
129.618405
 20
22.188504
 30
0.0
  0
LWPOLYLINE
  5
134
100
AcDbEntity
  8
Layer_1
 62
7
100
AcDbPolyline
 90
21
 70
1
 10
139.688658
 20
22.188504
 30
0.0
 10
136.815636
 20
22.115408
 30
0.0
 10
135.906316
 20
22.036386
 30
0.0
 10
135.530678
 20
21.939866
 30
0.0
 10
135.560029
 20
21.848144
 30
0.0
 10
135.703680
 20
21.682197
 30
0.0
 10
136.288162
 20
21.163755
 30
0.0
 10
137.192402
 20
20.460175
 30
0.0
 10
138.324396
 20
19.646528
 30
0.0
 10
141.271078
 20
17.600981
 30
0.0
 10
146.843274
 20
17.589128
 30
0.0
 10
149.347714
 20
17.601828
 30
0.0
 10
151.061932
 20
17.654603
 30
0.0
 10
152.034187
 20
17.749712
 30
0.0
 10
152.256578
 20
17.814059
 30
0.0
 10
152.311047
 20
17.889977
 30
0.0
 10
151.934563
 20
18.168812
 30
0.0
 10
150.986861
 20
18.696568
 30
0.0
 10
147.949585
 20
20.195732
 30
0.0
 10
143.692545
 20
22.188504
 30
0.0
 10
139.688658
 20
22.188504
 30
0.0
  0
LWPOLYLINE
  5
135
100
AcDbEntity
  8
Layer_1
 62
7
100
AcDbPolyline
 90
40
 70
1
 10
173.798319
 20
17.632026
 30
0.0
 10
173.353537
 20
17.626946
 30
0.0
 10
172.978181
 20
17.550746
 30
0.0
 10
172.103574
 20
17.258081
 30
0.0
 10
170.303561
 20
16.762499
 30
0.0
 10
168.043525
 20
16.229946
 30
0.0
 10
165.743696
 20
15.753837
 30
0.0
 10
163.824585
 20
15.426459
 30
0.0
 10
162.857692
 20
15.221566
 30
0.0
 10
162.563616
 20
15.104726
 30
0.0
 10
162.455808
 20
14.997199
 30
0.0
 10
162.551481
 20
14.867659
 30
0.0
 10
162.823543
 20
14.670386
 30
0.0
 10
163.809345
 20
14.112432
 30
0.0
 10
165.236261
 20
13.402643
 30
0.0
 10
166.927337
 20
12.620323
 30
0.0
 10
168.706465
 20
11.845059
 30
0.0
 10
170.396694
 20
11.155872
 30
0.0
 10
171.821070
 20
10.632068
 30
0.0
 10
172.802921
 20
10.352950
 30
0.0
 10
173.940841
 20
10.255583
 30
0.0
 10
175.867290
 20
10.205912
 30
0.0
 10
181.105899
 20
10.232441
 30
0.0
 10
186.559561
 20
10.397259
 30
0.0
 10
188.754968
 20
10.520872
 30
0.0
 10
190.269655
 20
10.665652
 30
0.0
 10
191.742573
 20
10.914854
 30
0.0
 10
192.257628
 20
11.041572
 30
0.0
 10
192.632984
 20
11.173370
 30
0.0
 10
192.873719
 20
11.312223
 30
0.0
 10
192.986044
 20
11.461237
 30
0.0
 10
192.975602
 20
11.622668
 30
0.0
 10
192.847755
 20
11.798774
 30
0.0
 10
192.115388
 20
12.098212
 30
0.0
 10
190.325535
 20
12.709223
 30
0.0
 10
184.647788
 20
14.511777
 30
0.0
 10
176.843497
 20
16.903328
 30
0.0
 10
174.917894
 20
17.433623
 30
0.0
 10
174.281201
 20
17.569090
 30
0.0
 10
173.798319
 20
17.632026
 30
0.0
  0
LWPOLYLINE
  5
136
100
AcDbEntity
  8
Layer_1
 62
7
100
AcDbPolyline
 90
40
 70
1
 10
46.011762
 20
17.618761
 30
0.0
 10
44.964154
 20
17.377179
 30
0.0
 10
42.747298
 20
16.753186
 30
0.0
 10
36.397298
 20
14.846774
 30
0.0
 10
30.146075
 20
12.878557
 30
0.0
 10
28.052269
 20
12.177234
 30
0.0
 10
27.177154
 20
11.827279
 30
0.0
 10
27.007087
 20
11.574126
 30
0.0
 10
27.000765
 20
11.459261
 30
0.0
 10
27.050182
 20
11.351170
 30
0.0
 10
27.326308
 20
11.153332
 30
0.0
 10
27.855278
 20
10.975532
 30
0.0
 10
28.657071
 20
10.812690
 30
0.0
 10
29.751247
 20
10.659726
 30
0.0
 10
32.897178
 20
10.363392
 30
0.0
 10
34.887127
 20
10.250503
 30
0.0
 10
37.188649
 20
10.190108
 30
0.0
 10
39.644829
 20
10.177972
 30
0.0
 10
42.098469
 20
10.211274
 30
0.0
 10
44.392654
 20
10.285781
 30
0.0
 10
46.370749
 20
10.398388
 30
0.0
 10
47.875558
 20
10.545143
 30
0.0
 10
48.401338
 20
10.630374
 30
0.0
 10
48.749883
 20
10.722943
 30
0.0
 10
51.054509
 20
11.707052
 30
0.0
 10
53.930354
 20
13.060308
 30
0.0
 10
56.400927
 20
14.308012
 30
0.0
 10
57.179296
 20
14.743763
 30
0.0
 10
57.490023
 20
14.974903
 30
0.0
 10
57.489176
 20
15.184595
 30
0.0
 10
57.433861
 20
15.248377
 30
0.0
 10
57.348347
 20
15.272083
 30
0.0
 10
56.797449
 20
15.316957
 30
0.0
 10
55.960660
 20
15.437748
 30
0.0
 10
53.742112
 20
15.844430
 30
0.0
 10
51.318951
 20
16.366259
 30
0.0
 10
49.317996
 20
16.878210
 30
0.0
 10
47.280069
 20
17.409635
 30
0.0
 10
46.495491
 20
17.566550
 30
0.0
 10
46.011762
 20
17.618761
 30
0.0
  0
LWPOLYLINE
  5
137
100
AcDbEntity
  8
Layer_1
 62
7
100
AcDbPolyline
 90
34
 70
1
 10
99.967008
 20
15.285630
 30
0.0
 10
98.553075
 20
13.332652
 30
0.0
 10
97.492201
 20
11.854090
 30
0.0
 10
96.954568
 20
11.034234
 30
0.0
 10
96.838010
 20
10.792934
 30
0.0
 10
96.799346
 20
10.622472
 30
0.0
 10
96.821077
 20
10.491521
 30
0.0
 10
96.885424
 20
10.368472
 30
0.0
 10
97.009601
 20
10.304972
 30
0.0
 10
97.292953
 20
10.251350
 30
0.0
 10
98.307542
 20
10.174303
 30
0.0
 10
99.871335
 20
10.140437
 30
0.0
 10
101.926195
 20
10.152008
 30
0.0
 10
103.761768
 20
10.191237
 30
0.0
 10
105.194046
 20
10.259817
 30
0.0
 10
106.287939
 20
10.380325
 30
0.0
 10
107.108924
 20
10.574494
 30
0.0
 10
107.437148
 20
10.706010
 30
0.0
 10
107.721628
 20
10.864054
 30
0.0
 10
107.970266
 20
11.051732
 30
0.0
 10
108.191528
 20
11.271583
 30
0.0
 10
108.583817
 20
11.818530
 30
0.0
 10
108.963971
 20
12.526908
 30
0.0
 10
109.245628
 20
13.142717
 30
0.0
 10
109.355977
 20
13.577339
 30
0.0
 10
109.303766
 20
13.950719
 30
0.0
 10
109.097180
 20
14.382237
 30
0.0
 10
108.950706
 20
14.627770
 30
0.0
 10
108.787017
 20
14.813472
 30
0.0
 10
108.550233
 20
14.948657
 30
0.0
 10
108.184755
 20
15.043201
 30
0.0
 10
106.845328
 20
15.148188
 30
0.0
 10
104.323391
 20
15.206043
 30
0.0
 10
99.967008
 20
15.285630
 30
0.0
  0
LWPOLYLINE
  5
138
100
AcDbEntity
  8
Layer_1
 62
7
100
AcDbPolyline
 90
26
 70
1
 10
61.588454
 20
15.270955
 30
0.0
 10
57.475065
 20
13.367366
 30
0.0
 10
54.305427
 20
11.890214
 30
0.0
 10
52.603627
 20
11.050321
 30
0.0
 10
52.171263
 20
10.798297
 30
0.0
 10
51.948025
 20
10.620779
 30
0.0
 10
51.881138
 20
10.489263
 30
0.0
 10
51.917827
 20
10.375245
 30
0.0
 10
52.110020
 20
10.322752
 30
0.0
 10
52.599112
 20
10.272799
 30
0.0
 10
54.336189
 20
10.185592
 30
0.0
 10
56.865747
 20
10.122657
 30
0.0
 10
59.925601
 20
10.093588
 30
0.0
 10
67.772507
 20
10.071292
 30
0.0
 10
71.154941
 20
12.418534
 30
0.0
 10
72.455421
 20
13.349586
 30
0.0
 10
73.497103
 20
14.149968
 30
0.0
 10
74.173872
 20
14.734450
 30
0.0
 10
74.342359
 20
14.919023
 30
0.0
 10
74.379894
 20
15.017801
 30
0.0
 10
74.219592
 20
15.068601
 30
0.0
 10
73.820812
 20
15.116015
 30
0.0
 10
72.413934
 20
15.196448
 30
0.0
 10
70.371774
 20
15.250917
 30
0.0
 10
67.906563
 20
15.270955
 30
0.0
 10
61.588454
 20
15.270955
 30
0.0
  0
LWPOLYLINE
  5
139
100
AcDbEntity
  8
Layer_1
 62
7
100
AcDbPolyline
 90
25
 70
1
 10
77.409832
 20
15.270955
 30
0.0
 10
75.041423
 20
13.636888
 30
0.0
 10
72.794088
 20
12.071401
 30
0.0
 10
71.523805
 20
11.130754
 30
0.0
 10
71.180059
 20
10.834421
 30
0.0
 10
70.990688
 20
10.621908
 30
0.0
 10
70.925494
 20
10.469226
 30
0.0
 10
70.954845
 20
10.351821
 30
0.0
 10
71.095392
 20
10.296788
 30
0.0
 10
71.433212
 20
10.245988
 30
0.0
 10
72.620239
 20
10.160474
 30
0.0
 10
74.353083
 20
10.103465
 30
0.0
 10
76.469750
 20
10.082581
 30
0.0
 10
81.818143
 20
10.082581
 30
0.0
 10
84.090879
 20
12.294357
 30
0.0
 10
84.973388
 20
13.183357
 30
0.0
 10
85.696159
 20
13.968781
 30
0.0
 10
86.184403
 20
14.565681
 30
0.0
 10
86.363615
 20
14.888543
 30
0.0
 10
86.315919
 20
14.991554
 30
0.0
 10
86.160132
 20
15.075375
 30
0.0
 10
85.447803
 20
15.192779
 30
0.0
 10
84.073946
 20
15.253739
 30
0.0
 10
81.886441
 20
15.270955
 30
0.0
 10
77.409832
 20
15.270955
 30
0.0
  0
LWPOLYLINE
  5
13a
100
AcDbEntity
  8
Layer_1
 62
7
100
AcDbPolyline
 90
25
 70
1
 10
88.800886
 20
15.270955
 30
0.0
 10
86.397763
 20
12.855132
 30
0.0
 10
85.371321
 20
11.788897
 30
0.0
 10
84.693706
 20
11.004883
 30
0.0
 10
84.365481
 20
10.503374
 30
0.0
 10
84.332461
 20
10.358594
 30
0.0
 10
84.386648
 20
10.284370
 30
0.0
 10
84.920612
 20
10.221999
 30
0.0
 10
86.085343
 20
10.167248
 30
0.0
 10
89.619895
 20
10.105441
 30
0.0
 10
92.406557
 20
10.104594
 30
0.0
 10
93.919833
 20
10.177408
 30
0.0
 10
94.354737
 20
10.260663
 30
0.0
 10
94.657844
 20
10.385405
 30
0.0
 10
94.891524
 20
10.559819
 30
0.0
 10
95.117584
 20
10.791241
 30
0.0
 10
96.070084
 20
11.951739
 30
0.0
 10
97.045726
 20
13.326443
 30
0.0
 10
97.772448
 20
14.507543
 30
0.0
 10
97.958150
 20
14.898139
 30
0.0
 10
97.979599
 20
15.087510
 30
0.0
 10
97.553444
 20
15.158630
 30
0.0
 10
96.528977
 20
15.217050
 30
0.0
 10
93.298661
 20
15.270955
 30
0.0
 10
88.800886
 20
15.270955
 30
0.0
  0
LWPOLYLINE
  5
13b
100
AcDbEntity
  8
Layer_1
 62
7
100
AcDbPolyline
 90
31
 70
1
 10
115.746335
 20
15.270955
 30
0.0
 10
113.276891
 20
15.258819
 30
0.0
 10
111.947906
 20
15.178950
 30
0.0
 10
111.576220
 20
15.094001
 30
0.0
 10
111.328146
 20
14.967848
 30
0.0
 10
111.149782
 20
14.792870
 30
0.0
 10
110.987504
 20
14.560883
 30
0.0
 10
110.851473
 20
14.304343
 30
0.0
 10
110.763420
 20
14.028894
 30
0.0
 10
110.721086
 20
13.738488
 30
0.0
 10
110.722780
 20
13.436792
 30
0.0
 10
110.848368
 20
12.815621
 30
0.0
 10
111.122406
 20
12.197272
 30
0.0
 10
111.526831
 20
11.612790
 30
0.0
 10
112.044426
 20
11.093783
 30
0.0
 10
112.656849
 20
10.671297
 30
0.0
 10
113.347164
 20
10.377221
 30
0.0
 10
114.021957
 20
10.283241
 30
0.0
 10
115.245955
 20
10.214097
 30
0.0
 10
118.645040
 20
10.175714
 30
0.0
 10
120.971680
 20
10.218048
 30
0.0
 10
122.321831
 20
10.297634
 30
0.0
 10
122.707911
 20
10.360005
 30
0.0
 10
122.942438
 20
10.442132
 30
0.0
 10
123.056455
 20
10.547683
 30
0.0
 10
123.080727
 20
10.680046
 30
0.0
 10
122.949775
 20
11.019277
 30
0.0
 10
122.616471
 20
11.607710
 30
0.0
 10
121.544591
 20
13.201983
 30
0.0
 10
120.039782
 20
15.270955
 30
0.0
 10
115.746335
 20
15.270955
 30
0.0
  0
LWPOLYLINE
  5
13c
100
AcDbEntity
  8
Layer_1
 62
7
100
AcDbPolyline
 90
26
 70
1
 10
126.697687
 20
15.270955
 30
0.0
 10
123.467371
 20
15.217050
 30
0.0
 10
122.442904
 20
15.158630
 30
0.0
 10
122.016749
 20
15.087510
 30
0.0
 10
122.038480
 20
14.898139
 30
0.0
 10
122.223900
 20
14.507543
 30
0.0
 10
122.950904
 20
13.326443
 30
0.0
 10
123.926264
 20
11.951739
 30
0.0
 10
124.878764
 20
10.791241
 30
0.0
 10
125.104824
 20
10.560666
 30
0.0
 10
125.338504
 20
10.386534
 30
0.0
 10
125.640482
 20
10.260663
 30
0.0
 10
126.070589
 20
10.175432
 30
0.0
 10
127.557336
 20
10.095281
 30
0.0
 10
130.281062
 20
10.082581
 30
0.0
 10
133.774127
 20
10.136768
 30
0.0
 10
134.946760
 20
10.195470
 30
0.0
 10
135.508100
 20
10.267154
 30
0.0
 10
135.613087
 20
10.342508
 30
0.0
 10
135.636794
 20
10.465839
 30
0.0
 10
135.570471
 20
10.649001
 30
0.0
 10
135.405654
 20
10.903001
 30
0.0
 10
134.746665
 20
11.671210
 30
0.0
 10
133.592376
 20
12.861341
 30
0.0
 10
131.195745
 20
15.270955
 30
0.0
 10
126.697687
 20
15.270955
 30
0.0
  0
LWPOLYLINE
  5
13d
100
AcDbEntity
  8
Layer_1
 62
7
100
AcDbPolyline
 90
25
 70
1
 10
152.072287
 20
15.270955
 30
0.0
 10
149.613849
 20
15.250917
 30
0.0
 10
147.577052
 20
15.196448
 30
0.0
 10
146.173843
 20
15.116015
 30
0.0
 10
145.775909
 20
15.068601
 30
0.0
 10
145.615889
 20
15.017801
 30
0.0
 10
145.653425
 20
14.919306
 30
0.0
 10
145.821912
 20
14.735014
 30
0.0
 10
146.497834
 20
14.151661
 30
0.0
 10
147.538105
 20
13.353254
 30
0.0
 10
148.836892
 20
12.424179
 30
0.0
 10
152.213398
 20
10.082581
 30
0.0
 10
159.712607
 20
10.102901
 30
0.0
 10
165.176148
 20
10.182488
 30
0.0
 10
166.968541
 20
10.257559
 30
0.0
 10
167.781623
 20
10.345612
 30
0.0
 10
168.015585
 20
10.434230
 30
0.0
 10
168.143714
 20
10.519743
 30
0.0
 10
168.146537
 20
10.574212
 30
0.0
 10
168.096583
 20
10.642792
 30
0.0
 10
167.804201
 20
10.843452
 30
0.0
 10
166.205694
 20
11.637626
 30
0.0
 10
162.792216
 20
13.223150
 30
0.0
 10
158.372899
 20
15.270955
 30
0.0
 10
152.072287
 20
15.270955
 30
0.0
  0
LWPOLYLINE
  5
13e
100
AcDbEntity
  8
Layer_1
 62
7
100
AcDbPolyline
 90
24
 70
1
 10
138.172560
 20
15.250917
 30
0.0
 10
135.948931
 20
15.243297
 30
0.0
 10
134.556729
 20
15.188828
 30
0.0
 10
133.837345
 20
15.074810
 30
0.0
 10
133.680429
 20
14.991554
 30
0.0
 10
133.632733
 20
14.888543
 30
0.0
 10
133.812509
 20
14.565117
 30
0.0
 10
134.302165
 20
13.966806
 30
0.0
 10
135.027194
 20
13.179123
 30
0.0
 10
135.912242
 20
12.287866
 30
0.0
 10
138.191469
 20
10.069881
 30
0.0
 10
143.550869
 20
10.148339
 30
0.0
 10
145.775627
 20
10.201114
 30
0.0
 10
147.475452
 20
10.283805
 30
0.0
 10
148.566805
 20
10.390203
 30
0.0
 10
148.858341
 20
10.450881
 30
0.0
 10
148.966714
 20
10.515228
 30
0.0
 10
148.913656
 20
10.618239
 30
0.0
 10
148.739525
 20
10.801966
 30
0.0
 10
148.079689
 20
11.369232
 30
0.0
 10
147.088525
 20
12.134901
 30
0.0
 10
145.867632
 20
13.017410
 30
0.0
 10
142.712105
 20
15.231161
 30
0.0
 10
138.172560
 20
15.250917
 30
0.0
  0
ENDSEC
  0
SECTION
  2
OBJECTS
  0
DICTIONARY
  5
C
330
0
100
AcDbDictionary
  3
ACAD_GROUP
350
D
  3
ACAD_MLINESTYLE
350
17
  0
DICTIONARY
  5
D
330
C
100
AcDbDictionary
  0
DICTIONARY
  5
1A
330
C
100
AcDbDictionary
  0
DICTIONARY
  5
17
330
C
100
AcDbDictionary
  3
STANDARD
350
18
  0
DICTIONARY
  5
19
330
C
100
AcDbDictionary
  0
ENDSEC
  0
EOF
