<?xml version="1.0" encoding="UTF-8" standalone="no"?>
<!-- Created with Inkscape (http://www.inkscape.org/) -->

<svg
   xmlns:dc="http://purl.org/dc/elements/1.1/"
   xmlns:cc="http://creativecommons.org/ns#"
   xmlns:rdf="http://www.w3.org/1999/02/22-rdf-syntax-ns#"
   xmlns:svg="http://www.w3.org/2000/svg"
   xmlns="http://www.w3.org/2000/svg"
   xmlns:sodipodi="http://sodipodi.sourceforge.net/DTD/sodipodi-0.dtd"
   xmlns:inkscape="http://www.inkscape.org/namespaces/inkscape"
   width="297mm"
   height="210mm"
   viewBox="0 0 1052.3622 744.09448"
   id="svg2"
   version="1.1"
   inkscape:version="0.91 r13725"
   sodipodi:docname="logo.svg">
  <defs
     id="defs4">
    <clipPath
       clipPathUnits="userSpaceOnUse"
       id="clipPath16">
      <path
         d="M 0,612 792,612 792,0 0,0 0,612 Z"
         id="path18"
         inkscape:connector-curvature="0" />
    </clipPath>
    <clipPath
       clipPathUnits="userSpaceOnUse"
       id="clipPath26">
      <path
         d="M 0,612 792,612 792,0 0,0 0,612 Z"
         id="path28"
         inkscape:connector-curvature="0" />
    </clipPath>
  </defs>
  <sodipodi:namedview
     id="base"
     pagecolor="#ffffff"
     bordercolor="#666666"
     borderopacity="1.0"
     inkscape:pageopacity="0.0"
     inkscape:pageshadow="2"
     inkscape:zoom="2.8284271"
     inkscape:cx="771.59947"
     inkscape:cy="569.86612"
     inkscape:document-units="px"
     inkscape:current-layer="text4288"
     showgrid="false"
     inkscape:window-width="1920"
     inkscape:window-height="1029"
     inkscape:window-x="1600"
     inkscape:window-y="25"
     inkscape:window-maximized="1"
     showguides="false" />
  <metadata
     id="metadata7">
    <rdf:RDF>
      <cc:Work
         rdf:about="">
        <dc:format>image/svg+xml</dc:format>
        <dc:type
           rdf:resource="http://purl.org/dc/dcmitype/StillImage" />
        <dc:title></dc:title>
      </cc:Work>
    </rdf:RDF>
  </metadata>
  <g
     inkscape:label="Layer 1"
     inkscape:groupmode="layer"
     id="layer1"
     transform="translate(0,-308.26772)">
    <text
       xml:space="preserve"
       style="font-style:normal;font-weight:normal;font-size:50px;line-height:125%;font-family:sans-serif;letter-spacing:-100px;word-spacing:0px;fill:#000000;fill-opacity:1;stroke:none;stroke-width:1px;stroke-linecap:butt;stroke-linejoin:miter;stroke-opacity:1"
       x="-24.559383"
       y="341.48184"
       id="text4137"
       sodipodi:linespacing="125%"><tspan
         sodipodi:role="line"
         id="tspan4139"
         x="-24.559383"
         y="341.48184"
         style="font-size:11.25px;letter-spacing:0px">Bankgothic bold</tspan></text>
    <g
       id="g5296"
       transform="matrix(1.1323656,0,0,1.1323656,-47.716931,-158.74975)">
      <path
         sodipodi:nodetypes="cccccccccccccccccccccccccccccccccccccc"
         inkscape:connector-curvature="0"
         id="path4637-37"
         d="m 189.82991,562.86113 0,32.9336 166.3593,166.35937 64.9453,0 112.8985,-112.90039 112.8984,112.90039 64.9453,0 166.35944,-166.35937 0,-32.9336 -79.81254,0 -119.0195,119.01758 -119.0176,-119.01758 -26.3535,0 -26.3535,0 -119.0176,119.01758 -119.0195,-119.01758 z m 149.0019,0 0,25.73633 50.5215,50.52149 51.6973,-51.69727 -24.5606,-24.56055 z m 312.7442,0 -24.5606,24.56055 51.6973,51.69727 50.5215,-50.52149 0,-25.73633 z m -117.543,128.46289 -44.8223,44.82227 0,2.83008 0,23.17773 44.8223,0 44.8223,0 0,-23.17773 0,-2.83008 z"
         style="color:#000000;font-style:normal;font-variant:normal;font-weight:normal;font-stretch:normal;font-size:medium;line-height:normal;font-family:sans-serif;text-indent:0;text-align:start;text-decoration:none;text-decoration-line:none;text-decoration-style:solid;text-decoration-color:#000000;letter-spacing:normal;word-spacing:normal;text-transform:none;direction:ltr;block-progression:tb;writing-mode:lr-tb;baseline-shift:baseline;text-anchor:start;white-space:normal;clip-rule:nonzero;display:inline;overflow:visible;visibility:visible;opacity:1;isolation:auto;mix-blend-mode:normal;color-interpolation:sRGB;color-interpolation-filters:linearRGB;solid-color:#000000;solid-opacity:1;fill:#000000;fill-opacity:1;fill-rule:evenodd;stroke:none;stroke-width:79.72441101;stroke-linecap:butt;stroke-linejoin:miter;stroke-miterlimit:4;stroke-dasharray:none;stroke-dashoffset:0;stroke-opacity:1;color-rendering:auto;image-rendering:auto;shape-rendering:auto;text-rendering:auto;enable-background:accumulate" />
    </g>
    <text
       transform="scale(0.93065087,1.0745168)"
       sodipodi:linespacing="125%"
       id="text4135-8-9-6"
       y="838.10876"
       x="169.16061"
       style="font-style:normal;font-weight:normal;font-size:41.8805275px;line-height:125%;font-family:sans-serif;letter-spacing:-83.76105499px;word-spacing:0px;fill:#000000;fill-opacity:1;stroke:none;stroke-width:1px;stroke-linecap:butt;stroke-linejoin:miter;stroke-opacity:1"
       xml:space="preserve"><tspan
         style="font-style:normal;font-variant:normal;font-weight:bold;font-stretch:normal;font-family:BankGothic;-inkscape-font-specification:'BankGothic Bold';letter-spacing:2px;fill:#000000"
         y="838.10876"
         x="169.16061"
         id="tspan4137-7-7-2"
         sodipodi:role="line" /></text>
    <g
       transform="scale(0.95599537,1.0460302)"
       style="font-style:normal;font-weight:normal;font-size:62.63063049px;line-height:125%;font-family:sans-serif;letter-spacing:-125.26126099px;word-spacing:0px;fill:#000000;fill-opacity:0.79220779;stroke:none;stroke-width:1px;stroke-linecap:butt;stroke-linejoin:miter;stroke-opacity:1"
       id="text4288">
      <path
         d="m 232.48924,398.73832 -13.50559,32.31741 -5.49725,0 -9.63716,-22.35914 -9.77289,22.35914 -5.63298,0 -13.5056,-32.31741 8.41555,0 8.89061,21.6702 9.29782,-21.6702 5.70085,0 9.50143,21.6702 8.48341,-21.6702 7.2618,0 z"
         style="font-style:normal;font-variant:normal;font-weight:bold;font-stretch:normal;font-family:BankGothic;-inkscape-font-specification:'BankGothic Bold';letter-spacing:-1.52503967px;fill:#000000;fill-opacity:0.79220779"
         id="path4429"
         inkscape:connector-curvature="0" />
      <path
         style="font-style:normal;font-variant:normal;font-weight:bold;font-stretch:normal;font-family:BankGothic;-inkscape-font-specification:'BankGothic Bold';letter-spacing:-1.52503967px;fill:#000000;fill-opacity:0.79220779"
         d="M 234.55469 108.82422 C 230.24832 108.82422 226.78125 112.61814 226.78125 117.33008 L 226.78125 134.12305 C 226.78125 138.83499 230.24832 142.62891 234.55469 142.62891 L 258.69336 142.62891 L 258.69336 136.27539 L 236.93359 136.27539 C 236.53771 136.26538 236.15854 136.18019 235.81445 136.02148 C 235.44951 135.85315 235.1212 135.61003 234.8457 135.30859 C 234.32067 134.73411 233.99701 133.9463 233.9668 133.07422 L 233.9668 127.88867 L 248.2168 127.88867 L 248.2168 122.12305 L 233.9668 122.12305 L 233.9668 117.78711 C 233.99701 116.91503 234.32067 116.12722 234.8457 115.55273 C 235.1212 115.2513 235.44951 115.00818 235.81445 114.83984 C 236.14696 114.68648 236.5132 114.60484 236.89453 114.58984 L 258.39453 114.58984 L 258.39453 108.82422 L 234.55469 108.82422 z "
         transform="matrix(1.0460302,0,0,0.95599534,0,294.7025)"
         id="path4431" />
      <path
         d="m 316.35405,398.73832 -16.72238,17.66184 0,14.65557 -7.5783,0 0,-14.46768 -16.78501,-17.84973 10.0209,0 11.08562,12.40086 11.14825,-12.40086 8.83092,0 z"
         style="font-style:normal;font-variant:normal;font-weight:bold;font-stretch:normal;font-family:BankGothic;-inkscape-font-specification:'BankGothic Bold';letter-spacing:-1.52503967px;fill:#000000;fill-opacity:0.79220779"
         id="path4433" />
      <path
         style="font-style:normal;font-variant:normal;font-weight:bold;font-stretch:normal;font-family:BankGothic;-inkscape-font-specification:'BankGothic Bold';letter-spacing:-1.52503967px;fill:#000000;fill-opacity:0.79220779"
         d="M 309.34961 108.82422 L 309.34961 134.125 C 309.34961 138.83694 312.81668 142.62891 317.12305 142.62891 L 339.70703 142.62891 L 339.70703 136.27539 L 319.49414 136.27539 C 319.10481 136.26309 318.73145 136.17974 318.39258 136.02344 C 318.02764 135.8551 317.69933 135.61198 317.42383 135.31055 C 316.87723 134.71247 316.54052 133.88583 316.53516 132.9707 L 316.53516 108.82422 L 309.34961 108.82422 z "
         transform="matrix(1.0460302,0,0,0.95599534,0,294.7025)"
         id="path4435" />
      <path
         style="font-style:normal;font-variant:normal;font-weight:bold;font-stretch:normal;font-family:BankGothic;-inkscape-font-specification:'BankGothic Bold';letter-spacing:-1.52503967px;fill:#000000;fill-opacity:0.79220779"
         d="M 363.25 108.82422 C 362.62428 108.81816 362.02784 108.96817 361.52344 109.25586 C 361.16871 109.45817 360.85789 109.72407 360.61328 110.04297 C 360.52197 110.16201 360.44995 110.29578 360.37891 110.42969 L 343.72461 142.62891 L 350.91016 142.62891 L 354.50195 135.22656 L 374.08203 135.22656 L 377.79297 142.62891 L 385.87695 142.62891 L 368.99414 110.42578 C 368.92373 110.29318 368.85215 110.16086 368.76172 110.04297 C 368.51711 109.72407 368.20629 109.45817 367.85156 109.25586 C 367.34716 108.96817 366.75072 108.81816 366.125 108.82422 L 363.25 108.82422 z M 364.44141 115.375 L 371.08789 129.13477 L 357.55664 129.13477 L 364.44141 115.375 z "
         transform="matrix(1.0460302,0,0,0.95599534,0,294.7025)"
         id="path4437" />
      <path
         style="font-style:normal;font-variant:normal;font-weight:bold;font-stretch:normal;font-family:BankGothic;-inkscape-font-specification:'BankGothic Bold';letter-spacing:-1.52503967px;fill:#000000;fill-opacity:0.79220779"
         d="M 395.88281 108.82422 A 3.5565206 3.5565205 0 0 0 392.33203 112.2832 L 392.32617 112.2832 L 392.32617 142.62891 L 398.79297 142.62891 L 398.79297 124.1543 C 398.79297 122.8877 398.69372 121.1623 398.49414 118.97852 C 399.25255 119.93938 400.11036 120.85696 401.06836 121.73047 L 422.99219 141.92188 A 3.5565206 3.5565205 0 0 0 422.99805 141.92578 A 3.5565206 3.5565205 0 0 0 425.11523 142.62891 A 3.5565206 3.5565205 0 0 0 428.66797 139.14844 L 428.67188 139.14844 L 428.67188 139.07227 L 428.67188 108.82422 L 422.20508 108.82422 L 422.20508 126.57812 C 422.20508 127.32061 422.30433 129.2655 422.50391 132.41016 C 421.70558 131.40561 420.52745 130.18153 418.9707 128.74023 L 398.02734 109.54883 A 3.5565206 3.5565205 0 0 0 395.88281 108.82422 z "
         transform="matrix(1.0460302,0,0,0.95599534,0,294.7025)"
         id="path4439" />
      <path
         d="m 496.35159,414.70913 q 0,9.3946 -7.13989,13.84137 -4.07099,2.50523 -13.27769,2.50523 l -18.85182,0 0,-32.31741 20.79337,0 q 8.3925,0 13.15243,3.75784 5.3236,4.13362 5.3236,12.21297 z m -7.76619,-0.12526 q 0,-10.08353 -10.64721,-10.08353 l -13.34033,0 0,20.48021 9.70775,0 q 6.88937,0 10.0209,-1.75365 4.25889,-2.37997 4.25889,-8.64303 z"
         style="font-style:normal;font-variant:normal;font-weight:bold;font-stretch:normal;font-family:BankGothic;-inkscape-font-specification:'BankGothic Bold';letter-spacing:-1.52503967px;fill:#000000;fill-opacity:0.79220779"
         id="path4441"
         inkscape:connector-curvature="0" />
      <path
         d="m 524.25454,417.59014 -14.59294,0 0,-6.45096 14.59294,0 0,6.45096 z"
         style="font-style:normal;font-variant:normal;font-weight:bold;font-stretch:normal;font-family:BankGothic;-inkscape-font-specification:'BankGothic Bold';letter-spacing:-1.52503967px;fill:#000000;fill-opacity:0.79220779"
         id="path4443" />
      <path
         d="m 567.39005,398.73832 -16.72238,17.66184 0,14.65557 -7.5783,0 0,-14.46768 -16.78501,-17.84973 10.0209,0 11.08562,12.40086 11.14825,-12.40086 8.83092,0 z"
         style="font-style:normal;font-variant:normal;font-weight:bold;font-stretch:normal;font-family:BankGothic;-inkscape-font-specification:'BankGothic Bold';letter-spacing:-1.52503967px;fill:#000000;fill-opacity:0.79220779"
         id="path4445" />
      <path
         d="m 611.07649,423.41479 q 0,4.5094 -1.75366,6.07517 -1.69103,1.56577 -6.26307,1.56577 l -20.41758,0 q -4.57204,0 -6.32569,-1.56577 -1.69103,-1.56577 -1.69103,-6.07517 l 0,-24.67647 7.51567,0 0,26.24223 21.41968,0 0,-26.24223 7.51568,0 0,24.67647 z"
         style="font-style:normal;font-variant:normal;font-weight:bold;font-stretch:normal;font-family:BankGothic;-inkscape-font-specification:'BankGothic Bold';letter-spacing:-1.52503967px;fill:#000000;fill-opacity:0.79220779"
         id="path4447" />
      <path
         d="m 656.00479,404.50034 -14.90609,0 0,26.55539 -7.51567,0 0,-26.55539 -14.84346,0 0,-5.76202 37.26522,0 0,5.76202 z"
         style="font-style:normal;font-variant:normal;font-weight:bold;font-stretch:normal;font-family:BankGothic;-inkscape-font-specification:'BankGothic Bold';letter-spacing:-1.52503967px;fill:#000000;fill-opacity:0.79220779"
         id="path4449" />
      <path
         style="font-style:normal;font-variant:normal;font-weight:bold;font-stretch:normal;font-family:BankGothic;-inkscape-font-specification:'BankGothic Bold';letter-spacing:-1.52503967px;fill:#000000;fill-opacity:0.79220779"
         d="M 644.04102 108.82422 C 643.41473 108.81816 642.8193 108.96817 642.31445 109.25586 C 641.9594 109.45817 641.64717 109.72407 641.40234 110.04297 C 641.32124 110.1486 641.25911 110.26828 641.19531 110.38672 L 624.51953 142.62891 L 631.70312 142.62891 L 635.29688 135.22656 L 654.875 135.22656 L 658.58789 142.62891 L 666.66992 142.62891 L 649.76172 110.37891 C 649.69916 110.26313 649.6379 110.14631 649.55859 110.04297 C 649.31375 109.72407 649.00153 109.45817 648.64648 109.25586 C 648.14162 108.96817 647.54621 108.81794 646.91992 108.82422 L 644.04102 108.82422 z M 645.23633 115.375 L 651.88086 129.13477 L 638.34961 129.13477 L 645.23633 115.375 z "
         transform="matrix(1.0460302,0,0,0.95599534,0,294.7025)"
         id="path4451" />
      <path
         style="font-style:normal;font-variant:normal;font-weight:bold;font-stretch:normal;font-family:BankGothic;-inkscape-font-specification:'BankGothic Bold';letter-spacing:-1.52503967px;fill:#000000;fill-opacity:0.79220779"
         d="M 678.73633 108.82422 A 3.5565205 3.5565205 0 0 0 675.18555 112.2832 L 675.17969 112.2832 L 675.17969 142.62891 L 681.64648 142.62891 L 681.64648 124.1543 C 681.64648 122.8877 681.54724 121.1623 681.34766 118.97852 C 682.10607 119.93938 682.96388 120.85696 683.92188 121.73047 L 705.84375 141.92188 A 3.5565205 3.5565205 0 0 0 705.8457 141.92188 A 3.5565205 3.5565205 0 0 0 707.96875 142.62891 A 3.5565205 3.5565205 0 0 0 711.52148 139.14844 L 711.52344 139.14844 L 711.52344 108.82422 L 705.05664 108.82422 L 705.05664 126.57812 C 705.05664 127.32061 705.15589 129.2655 705.35547 132.41016 C 704.55714 131.40561 703.38096 130.18153 701.82422 128.74023 L 680.88086 109.54883 A 3.5565205 3.5565205 0 0 0 678.73633 108.82422 z "
         transform="matrix(1.0460302,0,0,0.95599534,0,294.7025)"
         id="path4453" />
      <path
         d="m 764.6543,431.05573 -7.51568,0 0,-32.31741 7.51568,0 0,32.31741 z"
         style="font-style:normal;font-variant:normal;font-weight:bold;font-stretch:normal;font-family:BankGothic;-inkscape-font-specification:'BankGothic Bold';letter-spacing:-1.52503967px;fill:#000000;fill-opacity:0.79220779"
         id="path4455"
         inkscape:connector-curvature="0" />
      <path
         style="font-style:normal;font-variant:normal;font-weight:bold;font-stretch:normal;font-family:BankGothic;-inkscape-font-specification:'BankGothic Bold';letter-spacing:-1.52503967px;fill:#000000;fill-opacity:0.79220779"
         d="m 776.10352,108.82422 c -2.9139,0 -4.93118,0.54678 -6.04883,1.63867 -1.07775,1.09189 -1.61524,3.20886 -1.61524,6.35352 l 0,17.82031 c 0,3.14464 0.53749,5.26357 1.61524,6.35547 1.11765,1.09189 3.13493,1.63672 6.04883,1.63672 l 26.14591,0 0,-6.35352 -26.62638,0 0,-21.42383 26.62638,0 0,-6.02734 z"
         transform="matrix(1.0460302,0,0,0.95599534,0,294.7025)"
         id="path4457"
         inkscape:connector-curvature="0"
         sodipodi:nodetypes="scsscsccccccs" />
      <path
         d="m 892.27168,423.41479 q 0,4.5094 -1.75366,6.07517 -1.69103,1.56577 -6.26306,1.56577 l -23.79964,0 q -4.57204,0 -6.3257,-1.56577 -1.69102,-1.56577 -1.69102,-6.07517 l 0,-17.03553 q 0,-4.50941 1.69102,-6.07517 1.75366,-1.56577 6.3257,-1.56577 l 23.79964,0 q 4.57203,0 6.26306,1.56577 1.75366,1.56576 1.75366,6.07517 l 0,17.03553 z m -7.51568,1.56576 0,-20.48021 -24.80173,0 0,20.48021 24.80173,0 z"
         style="font-style:normal;font-variant:normal;font-weight:bold;font-stretch:normal;font-family:BankGothic;-inkscape-font-specification:'BankGothic Bold';letter-spacing:-1.52503967px;fill:#000000;fill-opacity:0.79220779"
         id="path4459" />
      <path
         d="m 944.9789,431.05573 -10.77247,0 -13.02717,-12.21298 -7.13989,0 0,12.21298 -7.39041,0 0,-32.31741 27.68274,0 q 7.26515,0 7.26515,6.26306 l 0,7.57831 q 0,4.6973 -3.75784,5.82465 -1.4405,0.43841 -7.7662,0.43841 l 14.90609,12.21298 z m -10.6472,-20.29233 0,-3.8831 q 0,-1.62839 -0.93946,-2.12944 -0.68894,-0.43841 -2.4426,-0.43841 l -16.91027,0 0,9.01881 16.91027,0 q 1.75366,0 2.4426,-0.43842 0.93946,-0.50104 0.93946,-2.12944 z"
         style="font-style:normal;font-variant:normal;font-weight:bold;font-stretch:normal;font-family:BankGothic;-inkscape-font-specification:'BankGothic Bold';letter-spacing:-1.52503967px;fill:#000000;fill-opacity:0.79220779"
         id="path4461" />
      <path
         d="m 990.34758,412.20391 q 0,6.26306 -7.26515,6.26306 l -20.29233,0 0,12.58876 -7.39041,0 0,-32.31741 27.68274,0 q 7.26515,0 7.26515,6.26306 l 0,7.20253 z m -7.26515,-1.87892 0,-3.44469 q 0,-1.62839 -0.93946,-2.12944 -0.68894,-0.43841 -2.4426,-0.43841 l -16.91027,0 0,8.58039 16.91027,0 q 1.75366,0 2.4426,-0.43841 0.93946,-0.50105 0.93946,-2.12944 z"
         style="font-style:normal;font-variant:normal;font-weight:bold;font-stretch:normal;font-family:BankGothic;-inkscape-font-specification:'BankGothic Bold';letter-spacing:-1.52503967px;fill:#000000;fill-opacity:0.79220779"
         id="path4463" />
      <rect
         style="color:#000000;clip-rule:nonzero;display:inline;overflow:visible;visibility:visible;opacity:1;isolation:auto;mix-blend-mode:normal;color-interpolation:sRGB;color-interpolation-filters:linearRGB;solid-color:#000000;solid-opacity:1;fill:#ff0000;fill-opacity:0.79220779;fill-rule:evenodd;stroke:none;stroke-width:1;stroke-linecap:butt;stroke-linejoin:miter;stroke-miterlimit:4;stroke-dasharray:none;stroke-dashoffset:0;stroke-opacity:1;color-rendering:auto;image-rendering:auto;shape-rendering:auto;text-rendering:auto;enable-background:accumulate"
         id="rect4472"
         width="55.648575"
         height="47.670105"
         x="174.44696"
         y="285.58112"
         ry="8.131032" />
      <path
         style="color:#000000;font-style:normal;font-weight:normal;font-size:62.63063049px;line-height:125%;font-family:sans-serif;letter-spacing:-125.26126099px;word-spacing:0px;clip-rule:nonzero;display:inline;overflow:visible;visibility:visible;opacity:1;isolation:auto;mix-blend-mode:normal;color-interpolation:sRGB;color-interpolation-filters:linearRGB;solid-color:#000000;solid-opacity:1;fill:#ff0000;fill-opacity:0.79220779;fill-rule:evenodd;stroke:none;stroke-width:1;stroke-linecap:butt;stroke-linejoin:miter;stroke-miterlimit:4;stroke-dasharray:none;stroke-dashoffset:0;stroke-opacity:1;color-rendering:auto;image-rendering:auto;shape-rendering:auto;text-rendering:auto;enable-background:accumulate"
         d="m 257.80801,314.69759 0,-3.18914 c 0,0.88326 0.35526,1.68107 0.93161,2.25742 0.28818,0.28817 0.63161,0.52059 1.01335,0.68152 0.38174,0.16092 0.80257,0.2502 1.24421,0.2502 l -3.18917,0 z"
         id="rect4537-8"
         inkscape:connector-curvature="0" />
      <path
         style="color:#000000;font-style:normal;font-weight:normal;font-size:62.63063049px;line-height:125%;font-family:sans-serif;letter-spacing:-125.26126099px;word-spacing:0px;clip-rule:nonzero;display:inline;overflow:visible;visibility:visible;opacity:1;isolation:auto;mix-blend-mode:normal;color-interpolation:sRGB;color-interpolation-filters:linearRGB;solid-color:#000000;solid-opacity:1;fill:#ff0000;fill-opacity:0.79220779;fill-rule:evenodd;stroke:none;stroke-width:1;stroke-linecap:butt;stroke-linejoin:miter;stroke-miterlimit:4;stroke-dasharray:none;stroke-dashoffset:0;stroke-opacity:1;color-rendering:auto;image-rendering:auto;shape-rendering:auto;text-rendering:auto;enable-background:accumulate"
         d="m 274.1785,311.9783 3.40374,0.70265 c -0.94269,-0.1946 -1.87246,-0.0537 -2.61458,0.33314 -0.37106,0.19341 -0.69478,0.44835 -0.95065,0.75321 -0.25585,0.30485 -0.44386,0.66034 -0.54116,1.05405 l 0.70265,-2.84305 z"
         id="rect4537-8-5-2"
         inkscape:connector-curvature="0" />
      <path
         inkscape:connector-curvature="0"
         style="color:#000000;font-style:normal;font-weight:normal;font-size:62.63063049px;line-height:125%;font-family:sans-serif;letter-spacing:-125.26126099px;word-spacing:0px;clip-rule:nonzero;display:inline;overflow:visible;visibility:visible;opacity:1;isolation:auto;mix-blend-mode:normal;color-interpolation:sRGB;color-interpolation-filters:linearRGB;solid-color:#000000;solid-opacity:1;fill:#ff0000;fill-opacity:0.79220779;fill-rule:evenodd;stroke:none;stroke-width:1;stroke-linecap:butt;stroke-linejoin:miter;stroke-miterlimit:4;stroke-dasharray:none;stroke-dashoffset:0;stroke-opacity:1;color-rendering:auto;image-rendering:auto;shape-rendering:auto;text-rendering:auto;enable-background:accumulate"
         d="m 318.7961,317.81074 -0.42291,1.71034 0,0.47239 c 0.0789,-0.13657 0.1597,-0.27267 0.26151,-0.39397 0.25587,-0.30487 0.581,-0.55907 0.95206,-0.75248 0.52761,-0.27503 1.15151,-0.41843 1.80603,-0.41264 l 0,-0.0878 -2.59669,-0.53584 z m 8.20071,0 -2.59668,0.53588 0,0.0878 c 0.65452,-0.006 1.27841,0.13761 1.80603,0.41264 0.37106,0.19341 0.69619,0.44761 0.95206,0.75248 0.10177,0.1213 0.1826,0.2574 0.2615,0.39397 l 0,-0.47239 -0.42291,-1.71034 z"
         id="rect4537-8-5-5" />
    </g>
    <g
       id="text4135"
       style="font-style:normal;font-weight:normal;font-size:51.87512207px;line-height:125%;font-family:sans-serif;letter-spacing:-103.75024414px;word-spacing:0px;fill:#000000;fill-opacity:1;stroke:none;stroke-width:1px;stroke-linecap:butt;stroke-linejoin:miter;stroke-opacity:1"
       transform="matrix(1.2183159,0,0,1.3236467,325.10228,112.99508)">
      <path
         inkscape:connector-curvature="0"
         id="path4410"
         d="m -114.20898,106.64258 c -1.02636,-0.10917 -1.64325,0.47118 -1.78442,1.49228 -2.05688,5.19463 -4.11377,10.38926 -6.17066,15.58389 -2.15463,-5.68737 -4.30665,-11.37574 -6.46289,-17.0625 -2.50326,0 -5.00651,0 -7.50977,0 3.58067,9.25201 7.14363,18.51779 10.7168,27.77539 1.66573,-0.2208 3.60669,0.40337 5.10937,-0.32031 2.33399,-5.78646 4.66797,-11.57292 7.00196,-17.35938 2.3445,5.89319 4.68816,11.78671 7.0332,17.67969 1.62811,-0.2156 3.54984,0.40056 5.00391,-0.32812 3.529802,-9.1489 7.055559,-18.29936 10.587886,-27.44727 -2.210937,0 -4.421875,0 -6.632812,0 -2.049674,5.68445 -4.104564,11.36704 -6.156254,17.05078 -2.30143,-5.6862 -4.60285,-11.3724 -6.90429,-17.05859 -1.27683,0.1005 -2.55461,-0.0733 -3.83203,-0.006 z"
         style="font-style:normal;font-variant:normal;font-weight:bold;font-stretch:normal;font-family:BankGothic;-inkscape-font-specification:'BankGothic Bold';letter-spacing:-2.97823811px" />
      <path
         inkscape:connector-curvature="0"
         id="path4412"
         d="m -87.960938,106.90625 c 10e-7,9.17253 0,18.34505 0,27.51758 9.550131,0 19.100261,0 28.650391,0 0,-2.01042 0,-4.02084 0,-6.03125 -7.141276,0 -14.282552,0 -21.423828,0 0,-1.88021 0,-3.76042 0,-5.64063 4.115234,0 8.230469,0 12.345703,0 0,-1.85481 0,-3.70963 0,-5.56445 -4.115234,0 -8.230469,0 -12.345703,0 0,-1.6556 0,-3.3112 0,-4.9668 7.054688,0 14.109375,0 21.164063,0 0,-1.85481 -10e-7,-3.70963 0,-5.56445 -9.463542,0 -18.927084,0 -28.390626,0 l 0,0.25 z"
         style="font-style:normal;font-variant:normal;font-weight:bold;font-stretch:normal;font-family:BankGothic;-inkscape-font-specification:'BankGothic Bold';letter-spacing:-2.97823811px" />
      <path
         inkscape:connector-curvature="0"
         id="path4414"
         d="m -27.214844,106.65039 c -1.145744,0.0358 -2.435649,-0.16232 -3.009311,1.09969 -2.675282,2.97719 -5.350563,5.95437 -8.025845,8.93156 -3.085073,-3.30621 -5.934228,-6.95201 -9.183594,-10.02539 -3.151692,0 -6.303385,0 -9.455078,0 4.852491,5.16181 9.70579,10.32286 14.558594,15.48437 0,4.09441 0,8.18881 0,12.28321 2.425781,0 4.851562,0 7.277344,0 0,-4.14649 0,-8.29297 0,-12.43945 4.83943,-5.11111 9.676981,-10.22399 14.517578,-15.33399 -2.226685,0.0516 -4.453035,-0.0332 -6.679688,0 z"
         style="font-style:normal;font-variant:normal;font-weight:bold;font-stretch:normal;font-family:BankGothic;-inkscape-font-specification:'BankGothic Bold';letter-spacing:-2.97823811px" />
      <path
         inkscape:connector-curvature="0"
         id="path4416"
         d="m -17.925781,106.90625 c 0,9.17253 0,18.34505 0,27.51758 9.1002602,0 18.20052058,0 27.300781,0 0,-2.01042 0,-4.02084 0,-6.03125 -6.6914063,0 -13.3828125,0 -20.074219,0 0,-7.24544 0,-14.49089 0,-21.73633 -2.408854,0 -4.817708,0 -7.226562,0 l 0,0.25 z"
         style="letter-spacing:0px" />
      <path
         inkscape:connector-curvature="0"
         id="path4418"
         d="m 28.345703,106.64648 c -1.077309,-0.0511 -2.101043,0.11124 -2.35979,1.35155 -4.98688,8.81183 -9.973445,17.62384 -14.960522,26.43556 2.485887,-0.18827 5.171759,0.33149 7.529297,-0.27539 0.990234,-1.86523 1.980468,-3.73047 2.970703,-5.5957 5.45638,0 10.91276,0 16.36914,0 1.216471,1.89996 1.975663,4.27395 3.509766,5.86133 2.622396,0 5.244792,0 7.867187,0 -5.310189,-9.25737 -10.620759,-18.51452 -15.93164,-27.77149 -1.664614,0.0737 -3.329308,-0.0597 -4.994141,-0.006 z m 6.419922,16.0918 c -3.350911,0 -6.701823,0 -10.052734,0 1.705078,-3.11328 3.410156,-6.22656 5.115234,-9.33984 1.645833,3.11328 3.291667,6.22656 4.9375,9.33984 z"
         style="letter-spacing:0px" />
      <path
         inkscape:connector-curvature="0"
         id="path4420"
         d="m 52.636719,106.90625 c 0,9.17253 0,18.34505 0,27.51758 2.201823,0 4.403646,0 6.605469,0 -0.102485,-5.96366 0.190877,-11.93351 -0.146485,-17.89258 6.756414,6.00525 13.795007,11.69118 20.6994,17.51994 1.193251,0.86488 2.92355,0.1305 4.325991,0.37264 1.892849,0.39155 0.647238,-2.35537 1.003906,-3.5 0,-8.08919 0,-16.17839 0,-24.26758 -2.201172,0 -4.402344,0 -6.603516,0 0.09878,5.9585 -0.197686,11.92423 0.173828,17.87695 -6.642713,-6.00354 -13.699565,-11.54179 -20.517578,-17.3457 -1.273126,-1.1395 -3.225542,-0.2521 -4.787109,-0.53125 -0.183083,0.13073 -0.95866,-0.25716 -0.753906,0.25 z"
         style="letter-spacing:-5.95647621px" />
      <path
         inkscape:connector-curvature="0"
         id="path4422"
         d="m 89.890625,106.90625 c 0,9.17318 0,18.34635 0,27.51953 7.692018,-0.22891 15.455445,0.5287 23.097655,-0.55859 4.647,-0.8457 8.70872,-4.36212 9.84375,-9 1.53255,-5.45365 0.28326,-12.38721 -4.81858,-15.5607 -4.48397,-3.02443 -10.13254,-2.70854 -15.28884,-2.64611 -4.277995,-0.001 -8.55599,-0.003 -12.833985,-0.004 l 0,0.25 z m 18.406255,5.50977 c 3.28316,-0.0902 7.03208,1.91519 7.44335,5.41992 0.83194,3.52568 -0.1058,8.36499 -4.00527,9.5832 -4.65533,1.54732 -9.67116,0.85058 -14.461522,0.89336 -0.58336,-1.37465 0.166598,-2.9756 -0.15625,-4.44336 0,-3.8138 0,-7.6276 0,-11.44141 3.726502,-0.009 7.453382,0.017 11.179692,-0.0117 z"
         style="letter-spacing:-5.95647621px" />
      <path
         inkscape:connector-curvature="0"
         id="path4424"
         d="m 129.33203,117.17773 c 0,2.03125 0,4.0625 0,6.09375 4.36263,0 8.72526,0 13.08789,0 0,-2.11458 0,-4.22916 0,-6.34375 -4.36263,0 -8.72526,0 -13.08789,0 l 0,0.25 z"
         style="font-style:normal;font-variant:normal;font-weight:bold;font-stretch:normal;font-family:BankGothic;-inkscape-font-specification:'BankGothic Bold';letter-spacing:-2.97823811px" />
      <path
         inkscape:connector-curvature="0"
         id="path4426"
         d="m 170.41992,106.65039 c -1.14574,0.0358 -2.43565,-0.16232 -3.00931,1.09969 -2.67528,2.97719 -5.35056,5.95437 -8.02584,8.93156 -3.08491,-3.30665 -5.93374,-6.94869 -9.18165,-10.02539 -3.15234,0 -6.30468,0 -9.45703,0 4.85249,5.16181 9.70579,10.32286 14.5586,15.48437 0,4.09441 0,8.18881 0,12.28321 2.42578,0 4.85156,0 7.27734,0 0,-4.14649 0,-8.29297 0,-12.43945 4.83943,-5.11111 9.67698,-10.22399 14.51758,-15.33399 -2.22669,0.0516 -4.45304,-0.0332 -6.67969,0 z"
         style="font-style:normal;font-variant:normal;font-weight:bold;font-stretch:normal;font-family:BankGothic;-inkscape-font-specification:'BankGothic Bold';letter-spacing:-2.97823811px" />
      <path
         inkscape:connector-curvature="0"
         id="path4428"
         d="m 179.71094,106.90625 c 0.10383,7.74734 -0.21526,15.51084 0.17187,23.24805 0.28104,2.25038 2.23883,4.07868 4.5369,4.05818 5.43466,0.5815 10.91544,-0.0487 16.36729,0.23162 2.69821,-0.052 5.72216,0.2847 8.13683,-1.14722 2.73468,-2.31587 1.80399,-6.32709 1.97851,-9.45313 0,-5.72917 0,-11.45833 0,-17.1875 -2.40885,0 -4.8177,0 -7.22656,0 0,7.24544 0,14.49089 0,21.73633 -5.58008,0 -11.16015,0 -16.74023,0 0,-7.24544 0,-14.49089 0,-21.73633 -2.40821,0 -4.81641,0 -7.22461,0 l 0,0.25 z"
         style="font-style:normal;font-variant:normal;font-weight:bold;font-stretch:normal;font-family:BankGothic;-inkscape-font-specification:'BankGothic Bold';letter-spacing:-2.97823811px" />
      <path
         inkscape:connector-curvature="0"
         id="path4430"
         d="m 214.5332,106.90625 c 0,1.84049 0,3.68099 0,5.52148 4.09831,0 8.19662,0 12.29492,0 10e-6,7.33204 0,14.66407 0,21.9961 2.40821,0 4.81641,0 7.22461,0 0,-7.33203 0,-14.66406 0,-21.9961 4.11524,0 8.23047,0 12.34571,0 0,-1.92382 0,-3.84765 0,-5.77148 -10.62175,0 -21.24349,0 -31.86524,0 l 0,0.25 z"
         style="font-style:normal;font-variant:normal;font-weight:bold;font-stretch:normal;font-family:BankGothic;-inkscape-font-specification:'BankGothic Bold';letter-spacing:-2.97823811px" />
      <path
         inkscape:connector-curvature="0"
         id="path4432"
         d="m 258.37305,106.64648 c -1.07731,-0.0511 -2.10105,0.11124 -2.35979,1.35155 -4.98688,8.81183 -9.97345,17.62384 -14.96053,26.43556 2.48589,-0.18827 5.17176,0.33149 7.5293,-0.27539 0.99089,-1.86523 1.98177,-3.73047 2.97266,-5.5957 5.45638,0 10.91276,0 16.36914,0 1.21514,1.90044 1.97362,4.2743 3.50781,5.86133 2.6224,0 5.24479,0 7.86719,0 -5.31019,-9.25737 -10.62076,-18.51452 -15.93164,-27.77149 -1.66462,0.0737 -3.32931,-0.0597 -4.99414,-0.006 z m 6.42187,16.0918 c -3.35091,0 -6.70182,0 -10.05273,0 1.70508,-3.11328 3.41015,-6.22656 5.11523,-9.33984 1.64584,3.11328 3.29167,6.22656 4.9375,9.33984 z"
         style="font-style:normal;font-variant:normal;font-weight:bold;font-stretch:normal;font-family:BankGothic;-inkscape-font-specification:'BankGothic Bold';letter-spacing:-2.97823811px" />
      <path
         inkscape:connector-curvature="0"
         id="path4434"
         d="m 283.5918,106.90625 c 0,9.17253 0,18.34505 0,27.51758 2.20182,0 4.40364,0 6.60547,0 -0.10241,-5.9637 0.19039,-11.93334 -0.14454,-17.89258 6.75488,6.00623 13.794,11.69084 20.69745,17.51994 1.19325,0.86488 2.92355,0.1305 4.32599,0.37264 1.89285,0.39155 0.64724,-2.35537 1.00391,-3.5 0,-8.08919 0,-16.17839 0,-24.26758 -2.20117,0 -4.40235,0 -6.60352,0 0.0988,5.95848 -0.2007,11.92439 0.17578,17.87695 -6.65251,-6.01306 -13.71748,-11.55419 -20.54296,-17.36718 -1.19764,-1.09136 -3.04102,-0.2437 -4.51368,-0.50977 -0.24646,0.12825 -1.15488,-0.25841 -1.0039,0.25 z"
         style="letter-spacing:-5.95647621px" />
      <path
         inkscape:connector-curvature="0"
         id="path4436"
         d="m 322.77539,106.90625 c 0,9.17253 0,18.34505 0,27.51758 2.4082,0 4.81641,0 7.22461,0 0,-9.25586 0,-18.51172 0,-27.76758 -2.4082,0 -4.81641,0 -7.22461,0 l 0,0.25 z"
         style="letter-spacing:-5.95647621px" />
      <path
         sodipodi:nodetypes="ccccccccccccccccccc"
         inkscape:connector-curvature="0"
         id="path4438"
         d="m 359.51172,106.67578 c -2.54248,-0.11048 -5.77371,1.16843 -5.94457,4.07896 -0.70473,5.27883 -0.005,10.62439 -0.29489,15.9288 -0.0712,2.58005 0.1421,6.13095 3.00823,7.14483 3.46631,1.12436 7.20603,0.34093 10.78198,0.58113 4.35851,-0.0666 8.80165,0.35319 13.10745,-0.41341 2.39307,-0.69861 3.46475,-3.28224 3.35309,-5.6013 0.0752,-1.45613 0.0258,-4.37135 0.0258,-4.37135 l -7.22656,0.003 0,4.3665 -15.80665,0 0,-15.96485 15.80665,0 0,4.05639 7.23632,-0.031 c 0,0 0.52863,-6.23781 -1.70703,-8.3789 -2.92384,-2.18952 -6.81777,-1.15609 -10.19336,-1.41833 -4.04883,0.003 -8.09775,-0.0167 -12.14648,0.0199 z"
         style="font-style:normal;font-variant:normal;font-weight:bold;font-stretch:normal;font-family:BankGothic;-inkscape-font-specification:'BankGothic Bold';letter-spacing:-2.97823811px" />
      <path
         inkscape:connector-curvature="0"
         id="path4440"
         d="m 417.33398,106.67578 c -6.86983,0.0298 -13.75563,-0.15429 -20.61914,0.0918 -2.27196,0.17667 -4.60329,1.79741 -4.63086,4.2539 -0.61789,5.36419 0.034,10.77886 -0.25627,16.16201 -0.037,2.44848 0.32537,5.71725 3.01528,6.64488 3.41168,1.11042 7.09713,0.35778 10.61794,0.58105 5.50061,-0.0687 11.04624,0.29124 16.51954,-0.27856 2.28701,-0.46144 3.85114,-2.64772 3.73467,-4.95051 0.38059,-5.43704 -0.0422,-10.89578 0.13447,-16.34051 0.0484,-2.40781 -0.99889,-5.23057 -3.61328,-5.78515 -1.58509,-0.48299 -3.26608,-0.41484 -4.90235,-0.37891 z m 1.28711,5.75195 c 0,5.32162 0,10.64323 0,15.96485 -6.51432,0 -13.02864,0 -19.54297,0 0,-5.32162 10e-6,-10.64323 0,-15.96485 6.51433,0 13.02865,0 19.54297,0 z"
         style="font-style:normal;font-variant:normal;font-weight:bold;font-stretch:normal;font-family:BankGothic;-inkscape-font-specification:'BankGothic Bold';letter-spacing:-2.97823811px" />
      <path
         inkscape:connector-curvature="0"
         id="path4442"
         d="m 455.45898,106.61914 c -6.80497,0.13008 -13.61297,-0.0147 -20.41992,0.0371 l 0,27.76758 7.1211,0 0,-10.10547 c 3.92049,-0.0201 4.11616,-0.12932 5.55786,0.31305 3.56683,3.23099 6.96052,6.75259 10.64526,9.79242 l 10.32031,0 c -4.13013,-3.38421 -8.26043,-6.76822 -12.39062,-10.15235 2.68134,-0.0253 6.30856,0.33844 7.89361,-2.36871 1.57012,-3.0243 0.41635,-6.51206 0.84272,-9.74066 0.0475,-2.76532 -2.15646,-5.41127 -5.02889,-5.35851 -1.50463,-0.19653 -3.02625,-0.20118 -4.54143,-0.18446 z m 0.66016,5.62305 c 1.61645,0.026 1.79492,0.5341 1.79492,2.28515 0,1.48681 0.39851,4.13798 -1.07031,4.06446 -11.94336,0.15039 0,0 -11.94336,0.15039 -1.89227,-0.10027 -2.74023,0.33542 -2.74023,-2 0,-1.97436 -0.29897,-4.48697 0.86599,-4.46875 4.56904,-0.0219 8.52655,0.0432 13.09299,-0.0312 z"
         style="font-style:normal;font-variant:normal;font-weight:bold;font-stretch:normal;font-family:BankGothic;-inkscape-font-specification:'BankGothic Bold';letter-spacing:-2.97823811px"
         sodipodi:nodetypes="cccccccccccccccccccccc" />
      <path
         inkscape:connector-curvature="0"
         id="path4444"
         d="m 496.13867,106.63086 c -7.47721,0.0599 -14.95726,0.008 -22.43555,0.0254 10e-6,9.25586 0,18.51172 0,27.76758 2.3737,0 4.7474,0 7.1211,0 0,-3.47656 0,-6.95313 0,-10.42969 6.33059,-0.15752 12.70498,0.34471 19.00781,-0.2832 2.65826,-0.6373 4.24555,-3.48018 3.77344,-6.10547 -0.12881,-2.95125 0.74868,-6.4038 -1.09961,-8.98828 -1.53787,-1.80428 -4.15142,-2.0443 -6.36719,-1.98633 z m -1.35547,5.61133 c 1.28517,-0.12477 2.2034,1.05407 1.80078,2.27148 -0.009,1.21794 0.60301,3.51308 -1.15398,3.74876 -4.86429,0.2866 -9.73757,0.0352 -14.60578,0.11648 0,-2.03516 0,-4.07032 0,-6.10547 4.65228,-0.0219 9.30934,0.0431 13.95898,-0.0312 z"
         style="font-style:normal;font-variant:normal;font-weight:bold;font-stretch:normal;font-family:BankGothic;-inkscape-font-specification:'BankGothic Bold';letter-spacing:-2.97823811px" />
    </g>
    <path
       inkscape:connector-curvature="0"
       id="path4637-37-2"
       d="m 352.65131,-289.23884 0,29.14294 170.28389,170.283898 0,26.24566 50.75523,0 50.75519,0 0,-26.24566 170.28389,-170.283898 0,-29.14294 -87.93747,0 -133.10161,133.10162 -133.10165,-133.10162 -87.93747,0 z"
       style="color:#000000;font-style:normal;font-variant:normal;font-weight:normal;font-stretch:normal;font-size:medium;line-height:normal;font-family:sans-serif;text-indent:0;text-align:start;text-decoration:none;text-decoration-line:none;text-decoration-style:solid;text-decoration-color:#000000;letter-spacing:normal;word-spacing:normal;text-transform:none;direction:ltr;block-progression:tb;writing-mode:lr-tb;baseline-shift:baseline;text-anchor:start;white-space:normal;clip-rule:nonzero;display:inline;overflow:visible;visibility:visible;opacity:1;isolation:auto;mix-blend-mode:normal;color-interpolation:sRGB;color-interpolation-filters:linearRGB;solid-color:#000000;solid-opacity:1;fill:#ffd42a;fill-opacity:0.61038962;fill-rule:evenodd;stroke:none;stroke-width:79.72441101;stroke-linecap:butt;stroke-linejoin:miter;stroke-miterlimit:4;stroke-dasharray:none;stroke-dashoffset:0;stroke-opacity:1;color-rendering:auto;image-rendering:auto;shape-rendering:auto;text-rendering:auto;enable-background:accumulate" />
    <text
       transform="scale(1.0524638,0.95015144)"
       sodipodi:linespacing="125%"
       id="text4135-8-9-3"
       y="113.7482"
       x="256.0946"
       style="font-style:normal;font-weight:normal;font-size:37.03324509px;line-height:125%;font-family:sans-serif;letter-spacing:-74.06649017px;word-spacing:0px;fill:#000000;fill-opacity:1;stroke:none;stroke-width:1px;stroke-linecap:butt;stroke-linejoin:miter;stroke-opacity:1"
       xml:space="preserve"><tspan
         dy="0 0 0 0 0 0 0 0 0 0 0 0 0 0 0 0 0 0 0 0 0 0 0 0"
         style="font-style:normal;font-variant:normal;font-weight:bold;font-stretch:normal;font-family:'Liberation Sans';-inkscape-font-specification:'Liberation Sans Bold';letter-spacing:0px"
         y="113.7482"
         x="256.0946"
         id="tspan4137-7-7-6"
         sodipodi:role="line">“Building Better Worlds”</tspan></text>
    <g
       id="g4211"
       transform="matrix(1,0,0,1.2789123,-157.74227,-817.07704)">
      <g
         id="g4252"
         transform="translate(-11.064078,25.996915)">
        <text
           transform="scale(1.0524638,0.95015144)"
           sodipodi:linespacing="125%"
           id="text4135-8-9"
           y="816.81244"
           x="318.1937"
           style="font-style:normal;font-weight:normal;font-size:37.03324509px;line-height:125%;font-family:sans-serif;letter-spacing:-74.06649017px;word-spacing:0px;fill:#000000;fill-opacity:1;stroke:none;stroke-width:1px;stroke-linecap:butt;stroke-linejoin:miter;stroke-opacity:1"
           xml:space="preserve"><tspan
             dy="0 0 0 0 0 0 0 0 0 0 0 0 0 0 0 0 0 0 0 0 0 0 0 0"
             style="font-style:normal;font-variant:normal;font-weight:normal;font-stretch:normal;font-family:'Liberation Sans';-inkscape-font-specification:'Liberation Sans';letter-spacing:5.30555534px;fill:#000000"
             y="816.81244"
             x="318.1937"
             id="tspan4137-7-7"
             sodipodi:role="line"><tspan
   id="tspan4228"
   style="font-style:normal;font-variant:normal;font-weight:bold;font-stretch:normal;font-family:'Liberation Sans';-inkscape-font-specification:'Liberation Sans Bold';letter-spacing:5.30555534px;fill:#000000">“</tspan>Building Better Worlds<tspan
   id="tspan4232"
   style="font-style:normal;font-variant:normal;font-weight:bold;font-stretch:normal;font-family:'Liberation Sans';-inkscape-font-specification:'Liberation Sans Bold';letter-spacing:5.30555534px;fill:#000000">”</tspan></tspan></text>
        <text
           transform="scale(1.0524638,0.95015144)"
           sodipodi:linespacing="125%"
           id="text4135-8-9-7"
           y="816.81244"
           x="343.05725"
           style="font-style:normal;font-weight:normal;font-size:37.03324509px;line-height:125%;font-family:sans-serif;letter-spacing:-74.06649017px;word-spacing:0px;fill:#000000;fill-opacity:1;stroke:none;stroke-width:1px;stroke-linecap:butt;stroke-linejoin:miter;stroke-opacity:1"
           xml:space="preserve"><tspan
             dy="0 0 0 0 0 0 0 0 0 0 0 0 0 0 0 0 0 0 0 0 0 0"
             style="font-style:normal;font-variant:normal;font-weight:normal;font-stretch:normal;font-family:'Liberation Sans';-inkscape-font-specification:'Liberation Sans';letter-spacing:5.30555534px;fill:#000000"
             y="816.81244"
             x="343.05725"
             id="tspan4137-7-7-5"
             sodipodi:role="line">Building Better Worlds</tspan></text>
        <text
           transform="scale(1.0524638,0.95015145)"
           sodipodi:linespacing="125%"
           id="text4135-8-9-7-3"
           y="816.81244"
           x="344.95755"
           style="font-style:normal;font-weight:normal;font-size:37.03324509px;line-height:125%;font-family:sans-serif;letter-spacing:-74.06649017px;word-spacing:0px;fill:#000000;fill-opacity:1;stroke:none;stroke-width:1px;stroke-linecap:butt;stroke-linejoin:miter;stroke-opacity:1"
           xml:space="preserve"><tspan
             dy="0 0 0 0 0 0 0 0 0 0 0 0 0 0 0 0 0 0 0 0 0 0"
             style="font-style:normal;font-variant:normal;font-weight:normal;font-stretch:normal;font-family:'Liberation Sans';-inkscape-font-specification:'Liberation Sans';letter-spacing:5.30555534px;fill:#000000"
             y="816.81244"
             x="344.95755"
             id="tspan4137-7-7-5-5"
             sodipodi:role="line">Building Better Worlds</tspan></text>
      </g>
    </g>
  </g>
</svg>
