<?xml version="1.0" encoding="UTF-8" standalone="no"?>
<!-- Created with Inkscape (http://www.inkscape.org/) -->

<svg
   width="220mm"
   height="60mm"
   viewBox="0 0 779.52756 212.59842"
   id="svg2"
   version="1.1"
   inkscape:version="1.2.2 (b0a8486541, 2022-12-01)"
   sodipodi:docname="logo-bbw.svg"
   xml:space="preserve"
   xmlns:inkscape="http://www.inkscape.org/namespaces/inkscape"
   xmlns:sodipodi="http://sodipodi.sourceforge.net/DTD/sodipodi-0.dtd"
   xmlns="http://www.w3.org/2000/svg"
   xmlns:svg="http://www.w3.org/2000/svg"
   xmlns:rdf="http://www.w3.org/1999/02/22-rdf-syntax-ns#"
   xmlns:cc="http://creativecommons.org/ns#"
   xmlns:dc="http://purl.org/dc/elements/1.1/"><defs
     id="defs4"><clipPath
       clipPathUnits="userSpaceOnUse"
       id="clipPath16"><path
         d="M 0,612 H 792 V 0 H 0 Z"
         id="path18"
         inkscape:connector-curvature="0" /></clipPath><clipPath
       clipPathUnits="userSpaceOnUse"
       id="clipPath26"><path
         d="M 0,612 H 792 V 0 H 0 Z"
         id="path28"
         inkscape:connector-curvature="0" /></clipPath></defs><sodipodi:namedview
     id="base"
     pagecolor="#ffffff"
     bordercolor="#666666"
     borderopacity="1.0"
     inkscape:pageopacity="0.0"
     inkscape:pageshadow="2"
     inkscape:zoom="2.1201941"
     inkscape:cx="401.37835"
     inkscape:cy="132.77086"
     inkscape:document-units="px"
     inkscape:current-layer="g473"
     showgrid="false"
     inkscape:window-width="2560"
     inkscape:window-height="1389"
     inkscape:window-x="1920"
     inkscape:window-y="27"
     inkscape:window-maximized="1"
     showguides="false"
     inkscape:showpageshadow="2"
     inkscape:pagecheckerboard="0"
     inkscape:deskcolor="#d1d1d1" /><metadata
     id="metadata7"><rdf:RDF><cc:Work
         rdf:about=""><dc:format>image/svg+xml</dc:format><dc:type
           rdf:resource="http://purl.org/dc/dcmitype/StillImage" /></cc:Work></rdf:RDF></metadata><g
     inkscape:label="Layer 1"
     inkscape:groupmode="layer"
     id="layer1"
     transform="translate(0,-308.26772)"><g
       id="g473"
       transform="translate(-1.3131967,-2.4752603)"><text
         xml:space="preserve"
         style="font-size:48.9218px;line-height:1.25;font-family:sans-serif;letter-spacing:0px;word-spacing:0px;stroke-width:0.9375"
         x="5.8775296"
         y="347.00592"
         id="text457"><tspan
           sodipodi:role="line"
           id="tspan455"
           style="font-style:normal;font-variant:normal;font-weight:bold;font-stretch:normal;font-size:48.9218px;font-family:'Bank Gothic';-inkscape-font-specification:'Bank Gothic Bold';stroke-width:0.9375"
           x="5.8775296"
           y="347.00592">BUILDING BETTER WORLDS</tspan></text><path
         style="fill:#000000;stroke-width:1"
         d="m 117.87853,486.62124 c -18.064925,-1.41967 -22.820012,-2.63687 -20.268696,-5.18818 1.258381,-1.25846 63.617306,-20.4321 66.736876,-20.51985 1.40421,-0.0393 6.67563,1.14122 11.71422,2.62387 7.47028,2.19811 24.84869,5.67381 28.456,5.6913 0.46816,0 0.69381,0.47584 0.50166,1.05248 -0.34357,1.03059 -22.96864,12.03753 -30.96975,15.06647 -4.79061,1.81363 -39.334,2.59699 -56.17031,1.27391 z m 67.39474,-0.0425 c -0.66972,-1.08362 0.58703,-1.7602 19.6918,-10.60111 l 14.57576,-6.7451 h 22.38528 c 12.31197,0 22.6344,0.40304 22.93889,0.89561 0.30443,0.49267 -4.83864,4.63793 -11.42916,9.21178 l -11.98262,8.31607 -27.80606,-0.0793 c -15.29328,-0.0433 -28.06155,-0.49266 -28.37389,-0.99799 z m 67.45511,0.0821 c -0.62716,-1.01482 1.17537,-2.4639 14.47927,-11.63971 l 8.39279,-5.78861 h 15.86258 c 12.49767,0 15.86266,0.28742 15.86266,1.35479 0,0.7452 -3.62382,4.88138 -8.05298,9.1915 l -8.05291,7.83673 h -18.95068 c -10.65127,0 -19.2091,-0.41809 -19.54073,-0.9547 z m 47.59238,0.24126 c -0.92494,-0.36806 1.45145,-3.40625 7.12642,-9.11086 l 8.51427,-8.55872 h 15.93741 c 8.76567,0 16.22959,0.29208 16.58654,0.64904 0.6783,0.67829 -6.12301,10.88935 -10.14039,15.22416 -2.29894,2.48065 -2.52558,2.5089 -19.48117,2.42917 -9.43539,-0.0442 -17.77972,-0.3291 -18.54308,-0.63279 z m 44.28737,-0.29837 c -0.75508,-1.22177 -0.56072,-1.56722 5.90938,-10.50364 l 5.00998,-6.91971 15.43584,0.2814 c 15.41011,0.28089 15.43838,0.28579 16.91547,2.92004 1.32603,2.36462 1.27694,3.04708 -0.47281,6.57236 -3.73649,7.52798 -5.48009,8.1164 -24.93765,8.4155 -10.77685,0.1657 -17.46158,-0.121 -17.86021,-0.76595 z m 58.3289,-0.0319 c -6.83145,-2.075 -11.40311,-10.18141 -8.36051,-14.82496 1.62848,-2.48538 1.82277,-2.51439 16.86113,-2.51439 h 15.2137 l 5.33214,7.33106 c 2.9327,4.03209 5.38238,8.0534 5.44366,8.93618 0.0964,1.38798 -2.03063,1.62956 -15.7183,1.78545 -8.70643,0.0991 -17.15372,-0.2219 -18.77182,-0.71334 z m 40.85889,-1.46615 c -4.01738,-4.33481 -10.81861,-14.54586 -10.14031,-15.22416 0.35695,-0.35696 7.82087,-0.64904 16.58645,-0.64904 h 15.9375 l 8.4928,8.53716 c 6.73039,6.76551 8.13894,8.67293 6.78749,9.1915 -0.93786,0.35989 -9.27255,0.65436 -18.52158,0.65436 -16.54805,0 -16.85338,-0.04 -19.14235,-2.50982 z m 39.09585,-5.30395 c -4.44207,-4.32279 -8.07644,-8.46926 -8.07644,-9.21446 0,-1.07113 3.36736,-1.34008 16.08514,-1.28478 l 16.08513,0.0703 11.18178,7.84488 c 6.14997,4.3147 11.09117,8.30447 10.98046,8.86617 -0.12321,0.62485 -7.57119,1.12921 -19.19047,1.29948 l -18.98917,0.27819 -8.07643,-7.85959 z m 45.79593,-0.48204 c -6.58089,-4.56274 -11.71612,-8.69893 -11.41169,-9.19151 0.30441,-0.49266 10.59915,-0.8957 22.87721,-0.8957 h 22.3236 l 15.65872,7.25573 c 21.29145,9.8658 20.17213,9.22034 17.67849,10.19465 -1.11091,0.434 -13.97656,0.82136 -28.5904,0.86081 l -26.57064,0.0719 -11.96529,-8.29581 z m 84.91831,7.33759 c -6.63161,-1.22994 -36.66283,-14.70788 -36.66283,-16.45434 0,-0.46488 2.18292,-1.14979 4.85106,-1.52195 7.50551,-1.04693 22.57892,-4.38161 29.3357,-6.48986 7.07361,-2.20711 2.09158,-3.29782 44.44702,9.73074 15.44434,4.75067 28.51923,9.07622 29.05537,9.61245 1.74361,1.74352 -0.72829,2.83032 -9.13587,4.01664 -10.32317,1.45659 -55.63402,2.2665 -61.89045,1.10624 z M 69.878452,476.50361 c -6.880883,-2.48856 -13.165994,-5.76352 -19.914928,-10.37709 -9.71195,-6.63904 -12.351668,-10.15264 -8.684625,-11.5598 0.840472,-0.32248 20.138793,-3.83822 42.885197,-7.8127 l 41.356964,-7.22624 5.88092,3.99188 c 3.23443,2.1956 10.18999,6.15554 15.45684,8.79983 5.26678,2.64439 9.17313,5.18149 8.68078,5.63812 -0.49226,0.45655 -15.31672,5.24831 -32.94317,10.64825 -28.777816,8.81625 -32.842179,9.81441 -39.829855,9.78131 -4.857442,-0.0229 -9.700672,-0.73082 -12.888123,-1.88356 z m 589.277628,-7.8984 c -17.41278,-5.39888 -32.06242,-10.18998 -32.55475,-10.64695 -0.49234,-0.45696 3.41409,-2.99438 8.68086,-5.63877 5.26678,-2.64429 12.22233,-6.60423 15.45686,-8.79983 l 5.88083,-3.99188 41.35704,7.22624 c 22.74632,3.97448 42.04464,7.49022 42.88511,7.8127 2.18848,0.83981 1.8865,3.01163 -0.76971,5.53614 -4.21005,4.00121 -14.21424,10.36263 -22.08829,14.04535 -6.92035,3.23664 -8.86061,3.67572 -17.48625,3.95685 l -9.70214,0.31619 z m -462.89876,-9.20196 c -10.54458,-1.62735 -15.34858,-3.11873 -13.94927,-4.33063 0.51276,-0.44405 13.49395,-4.64943 28.84711,-9.34534 26.06302,-7.97171 28.12928,-8.44852 31.14899,-7.18768 1.77874,0.74266 6.22139,2.41242 9.87249,3.71058 3.65103,1.29809 6.50302,2.73 6.33773,3.1819 -0.16529,0.45189 -7.42952,4.15358 -16.14273,8.22594 l -15.84216,7.40428 -10.41049,-0.10024 c -5.72578,-0.0547 -14.66353,-0.75665 -19.86167,-1.55887 z m 44.88495,0.54937 c 0.20343,-0.61033 7.19094,-4.28693 15.52776,-8.17024 l 15.15781,-7.06054 h 14.11415 c 7.76278,0 14.35959,0.39706 14.65959,0.88247 0.29993,0.48531 -4.22898,4.16191 -10.06425,8.17022 l -10.60952,7.28777 h -19.57775 c -13.63759,0 -19.46549,-0.3367 -19.20779,-1.10968 z m 48.82168,0.2826 c 0,-0.45485 4.79257,-4.13144 10.65029,-8.17022 l 10.65022,-7.34316 h 10.28599 c 7.66311,0 10.28591,0.33253 10.28591,1.30397 0,0.71718 -3.11367,4.39378 -6.91929,8.17023 l -6.91928,6.86626 h -14.01692 c -7.70935,0 -14.01692,-0.37217 -14.01692,-0.82708 z m 35.74474,0.0351 c 0,-0.43532 3.34268,-4.11192 7.42828,-8.17023 l 7.4283,-7.3787 h 7.35402 c 7.27027,0 7.37322,0.0376 9.03929,3.31915 0.92692,1.82556 3.23664,5.23484 5.13262,7.57618 1.89606,2.34134 3.44734,4.52434 3.44734,4.85106 0,0.32673 -8.96175,0.59406 -19.91492,0.59406 -10.95325,0 -19.91493,-0.35613 -19.91493,-0.79152 z m 55.63827,-0.98566 c -9.92365,-3.5525 -16.5265,-10.36958 -19.39302,-20.02212 -3.11163,-10.47816 -0.89734,-20.20287 6.46461,-28.39109 7.06561,-7.85873 11.07475,-9.54874 22.65196,-9.54874 11.58571,0 15.58543,1.68909 22.67678,9.57636 10.38044,11.5456 10.32587,28.30644 -0.13112,40.21625 -7.27453,8.28519 -21.72586,11.94373 -32.26921,8.16934 z m 35.25551,1.18312 c 0,-0.32672 1.55127,-2.50972 3.44726,-4.85106 1.89599,-2.34134 4.20571,-5.75062 5.13262,-7.57618 1.6677,-3.28443 1.76273,-3.31915 9.08898,-3.31915 h 7.40352 l 7.37878,7.42829 c 4.05823,4.08552 7.37869,7.76212 7.37869,8.17022 0,0.4081 -8.96175,0.74194 -19.91492,0.74194 -10.95325,0 -19.91493,-0.26733 -19.91493,-0.59406 z m 40.56835,-6.32522 c -3.77635,-3.80554 -6.86617,-7.48213 -6.86617,-8.17023 0,-0.90427 2.85043,-1.25094 10.28591,-1.25094 h 10.28592 l 10.65029,7.34315 c 5.85764,4.0388 10.6503,7.71539 10.6503,8.17022 0,0.45493 -6.33152,0.82708 -14.07003,0.82708 h -14.06995 z m 34.26733,-0.41456 c -5.74252,-3.98569 -10.19627,-7.64267 -9.89716,-8.12668 0.2991,-0.48393 6.92811,-0.87993 14.73115,-0.87993 h 14.18736 l 15.08477,7.0608 c 8.29662,3.88346 15.25112,7.56006 15.45457,8.17022 0.25793,0.77389 -5.60241,1.09628 -19.37497,1.0659 l -19.74465,-0.0433 z m 47.88276,-0.19959 c -8.61558,-4.06968 -15.64336,-7.77341 -15.6173,-8.23044 0.0262,-0.45705 2.93908,-1.86094 6.47319,-3.11981 3.53419,-1.25879 7.88125,-2.89635 9.66006,-3.63902 3.01964,-1.26083 5.08588,-0.78402 31.14899,7.18767 15.35309,4.69592 28.33427,8.9013 28.84703,9.34536 2.51936,2.18186 -20.38275,6.02693 -35.27618,5.92268 l -9.57101,-0.067 z m -374.9742,-2.72526 c -8.66699,-3.10886 -24.51069,-11.24028 -24.51069,-12.57963 0,-0.77854 14.22543,-3.67545 40.59581,-8.26698 22.32769,-3.88764 41.28515,-7.09638 42.12774,-7.13054 1.5932,-0.0645 11.90182,10.33401 11.06951,11.16626 -0.81988,0.81991 -60.25207,18.90115 -62.00008,18.86251 -0.91589,-0.0204 -4.19297,-0.94351 -7.28229,-2.05162 z m 414.19342,-7.17944 c -16.25352,-5.03531 -29.76562,-9.36881 -30.02681,-9.63001 -0.83328,-0.83324 9.47314,-11.23235 11.06813,-11.1677 0.84251,0.0342 19.79997,3.2429 42.12773,7.13054 26.77359,4.66175 40.59582,7.48265 40.59582,8.28512 0,2.29813 -27.69095,14.74719 -32.4613,14.59358 -0.96335,-0.0311 -15.04997,-4.17621 -31.30357,-9.21153 z m -546.033032,3.85995 c -4.01485,-2.09084 -5.080248,-3.49065 -9.862772,-12.95744 -5.966635,-11.81077 -6.590922,-15.02983 -3.063835,-15.79898 2.233985,-0.4872 75.719625,-5.70033 80.025744,-5.67709 1.456585,0.008 3.309105,1.74641 5.725605,5.37332 1.9647,2.94895 5.93616,7.87191 8.8254,10.93994 5.27192,5.59808 6.19181,7.18775 4.15947,7.18775 -0.60159,0 -18.21047,2.98727 -39.130898,6.63831 -20.920439,3.65111 -38.968798,6.63832 -40.107401,6.63832 -1.138601,0 -4.095734,-1.05487 -6.571313,-2.34413 z m 696.606472,0.40206 c -5.33614,-1.01941 -22.45529,-4.06527 -38.04262,-6.76846 -15.58723,-2.70329 -28.34046,-5.32576 -28.34046,-5.82776 0,-0.50203 1.2846,-1.99363 2.85458,-3.3147 1.57,-1.32105 5.59121,-6.11409 8.93619,-10.65121 4.05456,-5.49971 6.76242,-8.25523 8.12415,-8.26717 4.11044,-0.036 77.68763,5.18506 79.91498,5.67082 3.46844,0.75635 2.9171,3.81007 -2.78653,15.43637 -7.55043,15.39071 -11.85091,17.31537 -30.66029,13.72211 z M 257.75136,435.12666 c -20.95606,-5.09115 -36.02212,-24.69763 -35.00493,-45.55424 l 0.32378,-6.63832 77.61715,-0.29945 c 52.8318,-0.20383 78.8226,0.0486 81.39213,0.79055 3.69303,1.0663 7.96974,5.18467 7.96974,7.6746 0,0.74132 -2.08871,1.49932 -5.1211,1.85845 -16.08734,1.90532 -30.26832,17.2044 -31.41387,33.89083 -0.26994,3.93193 -0.94824,7.72342 -1.50732,8.42555 -1.43315,1.79998 -86.78923,1.66599 -94.25558,-0.14797 z m 172.38264,0.14797 c -0.5591,-0.70213 -1.23731,-4.49362 -1.50724,-8.42555 -1.14564,-16.68643 -15.32654,-31.98551 -31.41396,-33.89083 -3.0323,-0.35913 -5.12102,-1.11713 -5.12102,-1.85845 0,-2.48993 4.2767,-6.6083 7.96965,-7.6746 2.56954,-0.74194 28.56041,-0.99438 81.39221,-0.79055 l 77.61717,0.29945 0.3237,6.63832 c 1.04171,21.35831 -14.78092,41.29881 -36.3741,45.8405 -8.06712,1.69673 -91.52427,1.57255 -92.88641,-0.13829 z m -297.11815,-2.85274 c -4.19689,-0.89096 -10.46648,-5.89659 -16.19748,-12.93198 -4.38211,-5.37952 -5.42528,-7.43331 -3.79091,-7.46353 0.42126,-0.008 23.50109,-1.6072 51.28836,-3.55423 27.78734,-1.94704 50.79014,-3.20452 51.11718,-2.79435 1.99608,2.50292 5.3172,11.63257 4.50205,12.37592 -0.52249,0.4765 -18.87339,3.93282 -40.77982,7.6807 -21.90642,3.74789 -40.51925,6.94083 -41.36176,7.09542 -0.8426,0.15459 -2.99252,-0.029 -4.77762,-0.40795 z m 467.49925,-6.97488 c -21.01848,-3.72248 -38.37891,-7.26208 -38.57876,-7.86577 -0.19976,-0.60368 0.8497,-3.74717 2.33228,-6.98552 l 2.69561,-5.88793 6.7767,0.62169 c 3.72718,0.34194 23.55118,1.74617 44.05338,3.12052 47.60759,3.19136 52.08512,3.58726 52.08512,4.60533 0,1.68413 -9.40949,12.33476 -13.98171,15.82589 -4.25514,3.24905 -5.2792,3.57314 -10.93112,3.45942 -3.42985,-0.0691 -23.43302,-3.17114 -44.4515,-6.89363 z M 18.303892,412.80873 c -4.176537,-2.18968 -5.331726,-6.09255 -5.48075,-18.51736 l -0.13628,-11.35727 40.473671,-0.26692 40.473674,-0.26693 0.618808,2.30949 c 0.340375,1.27022 0.630583,3.68821 0.644966,5.37332 0.01472,1.68511 0.747898,5.5915 1.630197,8.68087 0.882312,3.08935 1.833328,6.5662 2.113397,7.72629 0.49887,2.06617 -0.185958,2.1555 -33.531186,4.37415 -18.72232,1.24569 -36.338393,2.49395 -39.146908,2.77392 -3.180505,0.31706 -6.069335,0.004 -7.659589,-0.82956 z m 701.618178,-1.49261 c -19.94042,-1.43385 -36.44175,-2.77145 -36.66945,-2.97246 -0.22779,-0.20098 0.35263,-2.73968 1.28984,-5.64149 0.93712,-2.90185 1.95178,-7.15804 2.25465,-9.45824 0.30295,-2.30018 0.77838,-5.68103 1.05656,-7.51298 l 0.50575,-3.33083 40.54737,0.267 40.54724,0.26698 0.30852,6.55443 c 0.42762,9.08394 -1.32579,19.42747 -3.69484,21.79648 -1.06196,1.06204 -3.72178,2.09008 -5.91059,2.28454 -2.18879,0.19447 -20.29455,-0.81958 -40.23505,-2.25343 z m -610.37528,-5.88611 c -2.94309,-2.0614 -5.4413,-8.75415 -6.16649,-16.52014 l -0.60565,-6.48608 h 54.75008 c 63.02512,0 56.86461,-1.2098 56.86461,11.16693 0,6.19013 -0.2541,7.21665 -1.78723,7.21999 -0.98296,0.002 -21.29235,1.38086 -45.13193,3.06384 -49.74442,3.51171 -54.93163,3.65101 -57.92339,1.55546 z m 503.65177,-1.6125 c -21.34472,-1.57855 -40.30227,-2.90173 -42.12773,-2.94039 l -3.31916,-0.0704 v -7.21609 c 0,-12.37671 -6.1606,-11.16691 56.86453,-11.16691 h 54.75017 l -0.62241,6.66514 c -0.72004,7.71019 -3.6762,15.14072 -6.65874,16.7369 -3.03589,1.62476 -15.51722,1.19908 -58.88666,-2.00832 z M 387.49603,377.24813 c -2.99267,-1.91691 -7.27453,-1.96265 -184.18641,-1.96791 -165.514915,-0.005 -181.425779,-0.14925 -184.64109,-1.67501 -4.309058,-2.04479 -6.711678,-6.4009 -6.294996,-11.41308 l 0.313328,-3.76837 180.766278,-0.27606 c 202.78945,-0.30969 185.68598,-0.96888 193.45161,7.45588 l 4.16576,4.51924 4.16567,-4.51924 c 7.76564,-8.42476 -9.33783,-7.76557 193.4517,-7.45588 l 180.76615,0.27606 0.31334,3.76837 c 0.41675,5.01218 -1.98594,9.36829 -6.295,11.41308 -3.21532,1.52578 -19.1241,1.66997 -184.64105,1.67346 -179.20846,0.004 -181.15788,0.0253 -184.46634,2.04255 -1.83911,1.1213 -3.44767,2.00514 -3.57447,1.9641 -0.12688,-0.0411 -1.60937,-0.95781 -3.29448,-2.03719 z"
         id="path468" /></g><text
       xml:space="preserve"
       style="font-style:normal;font-weight:normal;line-height:0%;font-family:sans-serif;letter-spacing:-100px;word-spacing:0px;fill:#000000;fill-opacity:1;stroke:none;stroke-width:1px;stroke-linecap:butt;stroke-linejoin:miter;stroke-opacity:1"
       x="10.403193"
       y="-135.94987"
       id="text4137"><tspan
         sodipodi:role="line"
         id="tspan4139"
         x="10.403193"
         y="-135.94987"
         style="font-size:11.25px;line-height:1.25;letter-spacing:0px">Bankgothic bold</tspan></text><text
       transform="scale(0.93065087,1.0745168)"
       id="text4135-8-9-6"
       y="838.10876"
       x="169.16061"
       style="font-style:normal;font-weight:normal;line-height:0%;font-family:sans-serif;letter-spacing:-83.7611px;word-spacing:0px;fill:#000000;fill-opacity:1;stroke:none;stroke-width:1px;stroke-linecap:butt;stroke-linejoin:miter;stroke-opacity:1"
       xml:space="preserve"><tspan
         style="font-style:normal;font-variant:normal;font-weight:bold;font-stretch:normal;font-size:41.8805px;line-height:1.25;font-family:BankGothic;-inkscape-font-specification:'BankGothic Bold';letter-spacing:2px;fill:#000000"
         y="838.10876"
         x="169.16061"
         id="tspan4137-7-7-2"
         sodipodi:role="line"> </tspan></text></g></svg>
