  0
SECTION
  2
HEADER
  9
$ACADVER
  1
AC1014
  9
$HANDSEED
  5
FFFF
  9
$MEASUREMENT
 70
     1
  0
ENDSEC
  0
SECTION
  2
TABLES
  0
TABLE
  2
VPORT
  5
8
330
0
100
AcDbSymbolTable
 70
     4
  0
VPORT
  5
2E
330
8
100
AcDbSymbolTableRecord
100
AcDbViewportTableRecord
  2
*ACTIVE
 70
     0
 10
0.0
 20
0.0
 11
1.0
 21
1.0
 12
210.0
 22
148.5
 13
0.0
 23
0.0
 14
10.0
 24
10.0
 15
10.0
 25
10.0
 16
0.0
 26
0.0
 36
1.0
 17
0.0
 27
0.0
 37
0.0
 40
341.0
 41
1.24
 42
50.0
 43
0.0
 44
0.0
 50
0.0
 51
0.0
 71
     0
 72
   100
 73
     1
 74
     3
 75
     0
 76
     0
 77
     0
 78
     0
  0
ENDTAB
  0
TABLE
  2
LTYPE
  5
5
330
0
100
AcDbSymbolTable
 70
     1
  0
LTYPE
  5
14
330
5
100
AcDbSymbolTableRecord
100
AcDbLinetypeTableRecord
  2
BYBLOCK
 70
     0
  3

 72
    65
 73
     0
 40
0.0
  0
LTYPE
  5
15
330
5
100
AcDbSymbolTableRecord
100
AcDbLinetypeTableRecord
  2
BYLAYER
 70
     0
  3

 72
    65
 73
     0
 40
0.0
  0
LTYPE
  5
16
330
5
100
AcDbSymbolTableRecord
100
AcDbLinetypeTableRecord
  2
CONTINUOUS
 70
     0
  3
Solid line
 72
    65
 73
     0
 40
0.0
  0
ENDTAB
  0
TABLE
  2
LAYER
  5
2
100
AcDbSymbolTable
 70
2
  0
LAYER
  5
50
100
AcDbSymbolTableRecord
100
AcDbLayerTableRecord
  2
0
 70
0
  6
CONTINUOUS
  0
LAYER
  5
51
100
AcDbSymbolTableRecord
100
AcDbLayerTableRecord
  2
Layer_1
 70
0
  6
CONTINUOUS
  0
ENDTAB
  0
TABLE
  2
STYLE
  5
3
330
0
100
AcDbSymbolTable
 70
     1
  0
STYLE
  5
11
330
3
100
AcDbSymbolTableRecord
100
AcDbTextStyleTableRecord
  2
STANDARD
 70
     0
 40
0.0
 41
1.0
 50
0.0
 71
     0
 42
2.5
  3
txt
  4

  0
ENDTAB
  0
TABLE
  2
VIEW
  5
6
330
0
100
AcDbSymbolTable
 70
     0
  0
ENDTAB
  0
TABLE
  2
UCS
  5
7
330
0
100
AcDbSymbolTable
 70
     0
  0
ENDTAB
  0
TABLE
  2
APPID
  5
9
330
0
100
AcDbSymbolTable
 70
     2
  0
APPID
  5
12
330
9
100
AcDbSymbolTableRecord
100
AcDbRegAppTableRecord
  2
ACAD
 70
     0
  0
ENDTAB
  0
TABLE
  2
DIMSTYLE
  5
A
330
0
100
AcDbSymbolTable
 70
     1
  0
DIMSTYLE
105
27
330
A
100
AcDbSymbolTableRecord
100
AcDbDimStyleTableRecord
  2
ISO-25
 70
     0
  3

  4

  5

  6

  7

 40
1.0
 41
2.5
 42
0.625
 43
3.75
 44
1.25
 45
0.0
 46
0.0
 47
0.0
 48
0.0
140
2.5
141
2.5
142
0.0
143
0.03937007874016
144
1.0
145
0.0
146
1.0
147
0.625
 71
     0
 72
     0
 73
     0
 74
     0
 75
     0
 76
     0
 77
     1
 78
     8
170
     0
171
     3
172
     1
173
     0
174
     0
175
     0
176
     0
177
     0
178
     0
270
     2
271
     2
272
     2
273
     2
274
     3
340
11
275
     0
280
     0
281
     0
282
     0
283
     0
284
     8
285
     0
286
     0
287
     3
288
     0
  0
ENDTAB
  0
TABLE
  2
BLOCK_RECORD
  5
1
330
0
100
AcDbSymbolTable
 70
     1
  0
BLOCK_RECORD
  5
1F
330
1
100
AcDbSymbolTableRecord
100
AcDbBlockTableRecord
  2
*MODEL_SPACE
  0
BLOCK_RECORD
  5
1B
330
1
100
AcDbSymbolTableRecord
100
AcDbBlockTableRecord
  2
*PAPER_SPACE
  0
ENDTAB
  0
ENDSEC
  0
SECTION
  2
BLOCKS
  0
BLOCK
  5
20
330
1F
100
AcDbEntity
  8
0
100
AcDbBlockBegin
  2
*MODEL_SPACE
 70
     0
 10
0.0
 20
0.0
 30
0.0
  3
*MODEL_SPACE
  1

  0
ENDBLK
  5
21
330
1F
100
AcDbEntity
  8
0
100
AcDbBlockEnd
  0
BLOCK
  5
1C
330
1B
100
AcDbEntity
 67
     1
  8
0
100
AcDbBlockBegin
  2
*PAPER_SPACE
  1

  0
ENDBLK
  5
1D
330
1B
100
AcDbEntity
 67
     1
  8
0
100
AcDbBlockEnd
  0
ENDSEC
  0
SECTION
  2
ENTITIES
  0
LWPOLYLINE
  5
100
100
AcDbEntity
  8
Layer_1
 62
7
100
AcDbPolyline
 90
8
 70
1
 10
10.000001
 20
8.000002
 30
0.0
 10
10.000001
 20
6.999987
 30
0.0
 10
9.971669
 20
6.999987
 30
0.0
 10
9.971669
 20
7.971616
 30
0.0
 10
8.999986
 20
7.971616
 30
0.0
 10
8.999986
 20
8.000002
 30
0.0
 10
10.000001
 20
8.000002
 30
0.0
 10
10.000001
 20
8.000002
 30
0.0
  0
LWPOLYLINE
  5
101
100
AcDbEntity
  8
Layer_1
 62
7
100
AcDbPolyline
 90
9
 70
1
 10
1.000015
 20
8.000002
 30
0.0
 10
1.000015
 20
7.971616
 30
0.0
 10
0.028332
 20
7.971616
 30
0.0
 10
0.028332
 20
6.999987
 30
0.0
 10
0.000000
 20
6.999987
 30
0.0
 10
0.000000
 20
7.985781
 30
0.0
 10
0.000000
 20
8.000002
 30
0.0
 10
1.000015
 20
8.000002
 30
0.0
 10
1.000015
 20
8.000002
 30
0.0
  0
LWPOLYLINE
  5
102
100
AcDbEntity
  8
Layer_1
 62
7
100
AcDbPolyline
 90
8
 70
1
 10
9.999992
 20
0.799980
 30
0.0
 10
9.999992
 20
0.000001
 30
0.0
 10
8.999977
 20
0.000001
 30
0.0
 10
8.999977
 20
0.028333
 30
0.0
 10
9.971660
 20
0.028333
 30
0.0
 10
9.971660
 20
0.799980
 30
0.0
 10
9.999992
 20
0.799980
 30
0.0
 10
9.999992
 20
0.799980
 30
0.0
  0
LWPOLYLINE
  5
103
100
AcDbEntity
  8
Layer_1
 62
7
100
AcDbPolyline
 90
8
 70
1
 10
0.028332
 20
0.799980
 30
0.0
 10
0.028332
 20
0.028333
 30
0.0
 10
1.000015
 20
0.028333
 30
0.0
 10
1.000015
 20
0.000001
 30
0.0
 10
0.000000
 20
0.000001
 30
0.0
 10
0.000000
 20
0.799980
 30
0.0
 10
0.028332
 20
0.799980
 30
0.0
 10
0.028332
 20
0.799980
 30
0.0
  0
LWPOLYLINE
  5
104
100
AcDbEntity
  8
Layer_1
 62
7
100
AcDbPolyline
 90
340
 70
0
 10
4.048290
 20
7.108576
 30
0.0
 10
4.036825
 20
7.093197
 30
0.0
 10
4.022934
 20
7.072416
 30
0.0
 10
4.010752
 20
7.051415
 30
0.0
 10
4.000224
 20
7.030359
 30
0.0
 10
3.991570
 20
7.009302
 30
0.0
 10
3.984680
 20
6.988246
 30
0.0
 10
3.988318
 20
6.968622
 30
0.0
 10
3.999067
 20
6.950102
 30
0.0
 10
4.008162
 20
6.931085
 30
0.0
 10
4.015328
 20
6.911957
 30
0.0
 10
4.020454
 20
6.892555
 30
0.0
 10
4.023210
 20
6.872766
 30
0.0
 10
4.023596
 20
6.862844
 30
0.0
 10
4.023045
 20
6.852812
 30
0.0
 10
4.021501
 20
6.842615
 30
0.0
 10
4.018580
 20
6.832252
 30
0.0
 10
4.016540
 20
6.827015
 30
0.0
 10
4.013729
 20
6.821558
 30
0.0
 10
4.010036
 20
6.816101
 30
0.0
 10
4.004524
 20
6.810148
 30
0.0
 10
3.988924
 20
6.802210
 30
0.0
 10
3.892792
 20
6.769854
 30
0.0
 10
3.807464
 20
6.714953
 30
0.0
 10
3.791589
 20
6.707787
 30
0.0
 10
3.783486
 20
6.707181
 30
0.0
 10
3.776817
 20
6.707622
 30
0.0
 10
3.770919
 20
6.708779
 30
0.0
 10
3.765406
 20
6.710488
 30
0.0
 10
3.755540
 20
6.714677
 30
0.0
 10
3.746720
 20
6.719914
 30
0.0
 10
3.738507
 20
6.725757
 30
0.0
 10
3.731011
 20
6.732316
 30
0.0
 10
3.717285
 20
6.746813
 30
0.0
 10
3.705324
 20
6.762964
 30
0.0
 10
3.694851
 20
6.780493
 30
0.0
 10
3.685646
 20
6.799399
 30
0.0
 10
3.677984
 20
6.819464
 30
0.0
 10
3.664810
 20
6.834512
 30
0.0
 10
3.644194
 20
6.842284
 30
0.0
 10
3.622311
 20
6.848678
 30
0.0
 10
3.599270
 20
6.853639
 30
0.0
 10
3.575292
 20
6.857222
 30
0.0
 10
3.550377
 20
6.859316
 30
0.0
 10
3.531140
 20
6.859978
 30
0.0
 10
3.484176
 20
6.798628
 30
0.0
 10
3.444269
 20
6.732592
 30
0.0
 10
3.451875
 20
6.715008
 30
0.0
 10
3.462844
 20
6.692519
 30
0.0
 10
3.474916
 20
6.671462
 30
0.0
 10
3.487870
 20
6.651894
 30
0.0
 10
3.501870
 20
6.633759
 30
0.0
 10
3.516643
 20
6.617333
 30
0.0
 10
3.535384
 20
6.610608
 30
0.0
 10
3.556882
 20
6.610608
 30
0.0
 10
3.577828
 20
6.608954
 30
0.0
 10
3.598002
 20
6.605647
 30
0.0
 10
3.617295
 20
6.600300
 30
0.0
 10
3.635761
 20
6.592859
 30
0.0
 10
3.644580
 20
6.588118
 30
0.0
 10
3.653069
 20
6.582606
 30
0.0
 10
3.661227
 20
6.576212
 30
0.0
 10
3.668723
 20
6.568661
 30
0.0
 10
3.672196
 20
6.564141
 30
0.0
 10
3.675503
 20
6.559014
 30
0.0
 10
3.678370
 20
6.552951
 30
0.0
 10
3.680630
 20
6.545785
 30
0.0
 10
3.503637
 20
6.570333
 30
0.0
 10
3.325276
 20
6.570977
 30
0.0
 10
3.148024
 20
6.547670
 30
0.0
 10
2.974357
 20
6.500365
 30
0.0
 10
2.929381
 20
6.561229
 30
0.0
 10
2.877751
 20
6.615339
 30
0.0
 10
2.820230
 20
6.662280
 30
0.0
 10
2.757583
 20
6.701634
 30
0.0
 10
2.690572
 20
6.732987
 30
0.0
 10
2.619960
 20
6.755921
 30
0.0
 10
2.546511
 20
6.770021
 30
0.0
 10
2.470987
 20
6.774870
 30
0.0
 10
2.350067
 20
6.762680
 30
0.0
 10
2.237442
 20
6.727719
 30
0.0
 10
2.135523
 20
6.672399
 30
0.0
 10
2.046725
 20
6.599134
 30
0.0
 10
1.973460
 20
6.510336
 30
0.0
 10
1.918141
 20
6.408418
 30
0.0
 10
1.883180
 20
6.295793
 30
0.0
 10
1.870989
 20
6.174872
 30
0.0
 10
1.875918
 20
6.098392
 30
0.0
 10
1.890327
 20
6.024058
 30
0.0
 10
1.913781
 20
5.952662
 30
0.0
 10
1.945843
 20
5.884992
 30
0.0
 10
1.986077
 20
5.821838
 30
0.0
 10
2.034046
 20
5.763990
 30
0.0
 10
2.089316
 20
5.712237
 30
0.0
 10
2.151448
 20
5.667368
 30
0.0
 10
2.103010
 20
5.479354
 30
0.0
 10
2.082325
 20
5.285817
 30
0.0
 10
2.084034
 20
5.286699
 30
0.0
 10
2.083648
 20
5.263383
 30
0.0
 10
2.089823
 20
5.112339
 30
0.0
 10
2.112982
 20
4.963585
 30
0.0
 10
2.152756
 20
4.818534
 30
0.0
 10
2.208774
 20
4.678598
 30
0.0
 10
2.211641
 20
4.672370
 30
0.0
 10
2.225697
 20
4.643761
 30
0.0
 10
2.250722
 20
4.596302
 30
0.0
 10
2.344814
 20
4.451332
 30
0.0
 10
2.362067
 20
4.427961
 30
0.0
 10
2.383510
 20
4.401668
 30
0.0
 10
2.404015
 20
4.376532
 30
0.0
 10
2.429922
 20
4.347924
 30
0.0
 10
2.447726
 20
4.328191
 30
0.0
 10
2.480854
 20
4.294952
 30
0.0
 10
2.493532
 20
4.282329
 30
0.0
 10
2.525448
 20
4.253225
 30
0.0
 10
2.541819
 20
4.238398
 30
0.0
 10
2.574561
 20
4.211388
 30
0.0
 10
2.591483
 20
4.197608
 30
0.0
 10
2.624997
 20
4.172583
 30
0.0
 10
2.643077
 20
4.159188
 30
0.0
 10
2.685300
 20
4.130800
 30
0.0
 10
2.695167
 20
4.124186
 30
0.0
 10
2.738713
 20
4.097783
 30
0.0
 10
2.749958
 20
4.091058
 30
0.0
 10
2.848570
 20
4.040181
 30
0.0
 10
2.863894
 20
4.032905
 30
0.0
 10
2.909038
 20
4.013777
 30
0.0
 10
2.921165
 20
4.008651
 30
0.0
 10
2.971712
 20
3.989965
 30
0.0
 10
2.980145
 20
3.986878
 30
0.0
 10
3.158463
 20
3.939363
 30
0.0
 10
3.162542
 20
3.938536
 30
0.0
 10
3.270894
 20
3.922414
 30
0.0
 10
3.380503
 20
3.915243
 30
0.0
 10
3.490796
 20
3.917182
 30
0.0
 10
3.601203
 20
3.928388
 30
0.0
 10
3.711151
 20
3.949021
 30
0.0
 10
3.820068
 20
3.979239
 30
0.0
 10
3.927384
 20
4.019201
 30
0.0
 10
4.032526
 20
4.069064
 30
0.0
 10
4.038809
 20
4.054126
 30
0.0
 10
4.072058
 20
3.999544
 30
0.0
 10
4.114875
 20
3.952918
 30
0.0
 10
4.165892
 20
3.915471
 30
0.0
 10
4.223742
 20
3.888431
 30
0.0
 10
4.193646
 20
3.802607
 30
0.0
 10
4.202741
 20
3.795937
 30
0.0
 10
4.207316
 20
3.789378
 30
0.0
 10
4.210127
 20
3.783259
 30
0.0
 10
4.212112
 20
3.777527
 30
0.0
 10
4.213434
 20
3.771904
 30
0.0
 10
4.214647
 20
3.761376
 30
0.0
 10
4.214647
 20
3.751068
 30
0.0
 10
4.213710
 20
3.740981
 30
0.0
 10
4.211836
 20
3.731169
 30
0.0
 10
4.206158
 20
3.712097
 30
0.0
 10
4.198166
 20
3.693632
 30
0.0
 10
4.188134
 20
3.675772
 30
0.0
 10
4.176338
 20
3.658464
 30
0.0
 10
4.162888
 20
3.641762
 30
0.0
 10
4.156494
 20
3.622966
 30
0.0
 10
4.159966
 20
3.601082
 30
0.0
 10
4.165479
 20
3.578924
 30
0.0
 10
4.172589
 20
3.556489
 30
0.0
 10
4.181519
 20
3.533945
 30
0.0
 10
4.192102
 20
3.511455
 30
0.0
 10
4.192213
 20
3.511455
 30
0.0
 10
4.201142
 20
3.494643
 30
0.0
 10
4.277706
 20
3.484666
 30
0.0
 10
4.354931
 20
3.483012
 30
0.0
 10
4.366397
 20
3.498391
 30
0.0
 10
4.380287
 20
3.519172
 30
0.0
 10
4.392469
 20
3.540173
 30
0.0
 10
4.402997
 20
3.561230
 30
0.0
 10
4.411651
 20
3.582286
 30
0.0
 10
4.418542
 20
3.603342
 30
0.0
 10
4.414903
 20
3.622966
 30
0.0
 10
4.404155
 20
3.641487
 30
0.0
 10
4.395060
 20
3.660503
 30
0.0
 10
4.387894
 20
3.679631
 30
0.0
 10
4.382768
 20
3.699034
 30
0.0
 10
4.380012
 20
3.718822
 30
0.0
 10
4.379626
 20
3.728744
 30
0.0
 10
4.380177
 20
3.738776
 30
0.0
 10
4.381720
 20
3.748974
 30
0.0
 10
4.384642
 20
3.759336
 30
0.0
 10
4.386681
 20
3.764573
 30
0.0
 10
4.389492
 20
3.770030
 30
0.0
 10
4.393186
 20
3.775487
 30
0.0
 10
4.398698
 20
3.781440
 30
0.0
 10
4.414297
 20
3.789378
 30
0.0
 10
4.510429
 20
3.821734
 30
0.0
 10
4.595757
 20
3.876635
 30
0.0
 10
4.611632
 20
3.883801
 30
0.0
 10
4.619735
 20
3.884407
 30
0.0
 10
4.626405
 20
3.883966
 30
0.0
 10
4.632303
 20
3.882809
 30
0.0
 10
4.637815
 20
3.881100
 30
0.0
 10
4.647682
 20
3.876911
 30
0.0
 10
4.656501
 20
3.871674
 30
0.0
 10
4.664714
 20
3.865831
 30
0.0
 10
4.672211
 20
3.859272
 30
0.0
 10
4.685936
 20
3.844775
 30
0.0
 10
4.697898
 20
3.828624
 30
0.0
 10
4.708371
 20
3.811096
 30
0.0
 10
4.717576
 20
3.792189
 30
0.0
 10
4.725238
 20
3.772125
 30
0.0
 10
4.738412
 20
3.757077
 30
0.0
 10
4.759027
 20
3.749304
 30
0.0
 10
4.780910
 20
3.742910
 30
0.0
 10
4.803951
 20
3.737949
 30
0.0
 10
4.827929
 20
3.734366
 30
0.0
 10
4.852844
 20
3.732272
 30
0.0
 10
4.872082
 20
3.731610
 30
0.0
 10
4.919045
 20
3.792961
 30
0.0
 10
4.958953
 20
3.858996
 30
0.0
 10
4.951346
 20
3.876580
 30
0.0
 10
4.940377
 20
3.899070
 30
0.0
 10
4.928306
 20
3.920126
 30
0.0
 10
4.915352
 20
3.939694
 30
0.0
 10
4.901351
 20
3.957829
 30
0.0
 10
4.886578
 20
3.974255
 30
0.0
 10
4.867837
 20
3.980980
 30
0.0
 10
4.846340
 20
3.980980
 30
0.0
 10
4.825394
 20
3.982689
 30
0.0
 10
4.805219
 20
3.985996
 30
0.0
 10
4.785927
 20
3.991343
 30
0.0
 10
4.767461
 20
3.998784
 30
0.0
 10
4.758641
 20
4.003525
 30
0.0
 10
4.750153
 20
4.009037
 30
0.0
 10
4.741995
 20
4.015431
 30
0.0
 10
4.734498
 20
4.022983
 30
0.0
 10
4.731026
 20
4.027503
 30
0.0
 10
4.727718
 20
4.032629
 30
0.0
 10
4.724852
 20
4.038692
 30
0.0
 10
4.722592
 20
4.045858
 30
0.0
 10
4.899585
 20
4.021310
 30
0.0
 10
5.077946
 20
4.020666
 30
0.0
 10
5.255198
 20
4.043973
 30
0.0
 10
5.428864
 20
4.091278
 30
0.0
 10
5.473841
 20
4.030415
 30
0.0
 10
5.525471
 20
3.976304
 30
0.0
 10
5.582991
 20
3.929364
 30
0.0
 10
5.645639
 20
3.890009
 30
0.0
 10
5.712650
 20
3.858656
 30
0.0
 10
5.783262
 20
3.835722
 30
0.0
 10
5.856711
 20
3.821622
 30
0.0
 10
5.932234
 20
3.816773
 30
0.0
 10
6.053147
 20
3.828962
 30
0.0
 10
6.165767
 20
3.863919
 30
0.0
 10
6.267681
 20
3.919232
 30
0.0
 10
6.356477
 20
3.992489
 30
0.0
 10
6.429742
 20
4.081279
 30
0.0
 10
6.485065
 20
4.183188
 30
0.0
 10
6.520032
 20
4.295804
 30
0.0
 10
6.532232
 20
4.416716
 30
0.0
 10
6.527304
 20
4.493197
 30
0.0
 10
6.512895
 20
4.567530
 30
0.0
 10
6.489441
 20
4.638926
 30
0.0
 10
6.457379
 20
4.706596
 30
0.0
 10
6.417145
 20
4.769750
 30
0.0
 10
6.369175
 20
4.827598
 30
0.0
 10
6.313906
 20
4.879351
 30
0.0
 10
6.251774
 20
4.924220
 30
0.0
 10
6.300212
 20
5.112234
 30
0.0
 10
6.320896
 20
5.305771
 30
0.0
 10
6.319187
 20
5.304944
 30
0.0
 10
6.319573
 20
5.328261
 30
0.0
 10
6.313399
 20
5.479305
 30
0.0
 10
6.290239
 20
5.628058
 30
0.0
 10
6.250466
 20
5.773109
 30
0.0
 10
6.194447
 20
5.913045
 30
0.0
 10
6.191581
 20
5.919274
 30
0.0
 10
6.177525
 20
5.947827
 30
0.0
 10
6.152500
 20
5.995341
 30
0.0
 10
6.058407
 20
6.140256
 30
0.0
 10
6.041154
 20
6.163628
 30
0.0
 10
6.019712
 20
6.189976
 30
0.0
 10
5.999207
 20
6.215111
 30
0.0
 10
5.973300
 20
6.243719
 30
0.0
 10
5.955495
 20
6.263453
 30
0.0
 10
5.922367
 20
6.296636
 30
0.0
 10
5.909689
 20
6.309314
 30
0.0
 10
5.877774
 20
6.338363
 30
0.0
 10
5.861403
 20
6.353190
 30
0.0
 10
5.828661
 20
6.380255
 30
0.0
 10
5.811738
 20
6.393980
 30
0.0
 10
5.778224
 20
6.419061
 30
0.0
 10
5.760145
 20
6.432455
 30
0.0
 10
5.717922
 20
6.460788
 30
0.0
 10
5.708055
 20
6.467402
 30
0.0
 10
5.664509
 20
6.493805
 30
0.0
 10
5.653264
 20
6.500530
 30
0.0
 10
5.554652
 20
6.551463
 30
0.0
 10
5.539328
 20
6.558739
 30
0.0
 10
5.494183
 20
6.577811
 30
0.0
 10
5.482056
 20
6.582937
 30
0.0
 10
5.431510
 20
6.601678
 30
0.0
 10
5.423076
 20
6.604710
 30
0.0
 10
5.244758
 20
6.652225
 30
0.0
 10
5.240679
 20
6.653052
 30
0.0
 10
5.132327
 20
6.669174
 30
0.0
 10
5.022718
 20
6.676345
 30
0.0
 10
4.912424
 20
6.674407
 30
0.0
 10
4.802018
 20
6.663201
 30
0.0
 10
4.692071
 20
6.642568
 30
0.0
 10
4.583154
 20
6.612350
 30
0.0
 10
4.475838
 20
6.572388
 30
0.0
 10
4.370696
 20
6.522524
 30
0.0
 10
4.364412
 20
6.537462
 30
0.0
 10
4.331164
 20
6.592044
 30
0.0
 10
4.288347
 20
6.638670
 30
0.0
 10
4.237330
 20
6.676117
 30
0.0
 10
4.179480
 20
6.703157
 30
0.0
 10
4.209576
 20
6.788981
 30
0.0
 10
4.200481
 20
6.795651
 30
0.0
 10
4.195906
 20
6.802210
 30
0.0
 10
4.193095
 20
6.808329
 30
0.0
 10
4.191110
 20
6.814062
 30
0.0
 10
4.189787
 20
6.819684
 30
0.0
 10
4.188574
 20
6.830212
 30
0.0
 10
4.188574
 20
6.840520
 30
0.0
 10
4.189512
 20
6.850607
 30
0.0
 10
4.191386
 20
6.860419
 30
0.0
 10
4.197063
 20
6.879491
 30
0.0
 10
4.205056
 20
6.897957
 30
0.0
 10
4.215088
 20
6.915816
 30
0.0
 10
4.226884
 20
6.933124
 30
0.0
 10
4.240334
 20
6.949826
 30
0.0
 10
4.246728
 20
6.968622
 30
0.0
 10
4.243255
 20
6.990506
 30
0.0
 10
4.237743
 20
7.012665
 30
0.0
 10
4.230632
 20
7.035099
 30
0.0
 10
4.221703
 20
7.057644
 30
0.0
 10
4.211119
 20
7.080133
 30
0.0
 10
4.211009
 20
7.080133
 30
0.0
 10
4.202079
 20
7.096945
 30
0.0
 10
4.125516
 20
7.106922
 30
0.0
 10
4.048290
 20
7.108576
 30
0.0
 10
4.048290
 20
7.108576
 30
0.0
  0
LWPOLYLINE
  5
105
100
AcDbEntity
  8
Layer_1
 62
7
100
AcDbPolyline
 90
120
 70
0
 10
4.363916
 20
6.518114
 30
0.0
 10
4.365129
 20
6.517342
 30
0.0
 10
4.420636
 20
6.480907
 30
0.0
 10
4.475703
 20
6.440779
 30
0.0
 10
4.525918
 20
6.400264
 30
0.0
 10
4.526470
 20
6.399768
 30
0.0
 10
4.528123
 20
6.398445
 30
0.0
 10
4.528619
 20
6.398004
 30
0.0
 10
4.578174
 20
6.353631
 30
0.0
 10
4.614939
 20
6.317306
 30
0.0
 10
4.635610
 20
6.295919
 30
0.0
 10
4.670227
 20
6.258161
 30
0.0
 10
4.696244
 20
6.226852
 30
0.0
 10
4.733727
 20
6.179062
 30
0.0
 10
4.751641
 20
6.155304
 30
0.0
 10
4.768177
 20
6.130940
 30
0.0
 10
4.817070
 20
6.054101
 30
0.0
 10
4.822086
 20
6.045888
 30
0.0
 10
4.828150
 20
6.034809
 30
0.0
 10
4.905057
 20
5.877696
 30
0.0
 10
4.960817
 20
5.712659
 30
0.0
 10
4.994865
 20
5.541816
 30
0.0
 10
5.006633
 20
5.367287
 30
0.0
 10
5.003657
 20
5.308141
 30
0.0
 10
5.003602
 20
5.304338
 30
0.0
 10
5.003050
 20
5.295298
 30
0.0
 10
4.993129
 20
5.187866
 30
0.0
 10
4.991695
 20
5.175409
 30
0.0
 10
4.987396
 20
5.149061
 30
0.0
 10
4.986293
 20
5.142556
 30
0.0
 10
4.971631
 20
5.067260
 30
0.0
 10
4.966835
 20
5.045542
 30
0.0
 10
4.960662
 20
5.022446
 30
0.0
 10
4.951677
 20
4.989263
 30
0.0
 10
4.937787
 20
4.944835
 30
0.0
 10
4.928967
 20
4.917771
 30
0.0
 10
4.918549
 20
4.889989
 30
0.0
 10
4.905320
 20
4.855153
 30
0.0
 10
4.903666
 20
4.851404
 30
0.0
 10
4.892697
 20
4.826214
 30
0.0
 10
4.887626
 20
4.814638
 30
0.0
 10
4.878365
 20
4.793416
 30
0.0
 10
4.878090
 20
4.792920
 30
0.0
 10
4.854057
 20
4.744634
 30
0.0
 10
4.847607
 20
4.731625
 30
0.0
 10
4.847222
 20
4.730909
 30
0.0
 10
4.843198
 20
4.723798
 30
0.0
 10
4.837686
 20
4.713931
 30
0.0
 10
4.813322
 20
4.670716
 30
0.0
 10
4.783777
 20
4.623918
 30
0.0
 10
4.767296
 20
4.599278
 30
0.0
 10
4.766689
 20
4.598341
 30
0.0
 10
4.764484
 20
4.595255
 30
0.0
 10
4.656281
 20
4.458553
 30
0.0
 10
4.655234
 20
4.458884
 30
0.0
 10
4.653910
 20
4.459711
 30
0.0
 10
4.521172
 20
4.332271
 30
0.0
 10
4.373052
 20
4.224513
 30
0.0
 10
4.211709
 20
4.137795
 30
0.0
 10
4.039305
 20
4.073474
 30
0.0
 10
4.038093
 20
4.074246
 30
0.0
 10
3.982585
 20
4.110681
 30
0.0
 10
3.927519
 20
4.150810
 30
0.0
 10
3.877303
 20
4.191324
 30
0.0
 10
3.876752
 20
4.191820
 30
0.0
 10
3.875098
 20
4.193143
 30
0.0
 10
3.874602
 20
4.193639
 30
0.0
 10
3.825048
 20
4.238012
 30
0.0
 10
3.788282
 20
4.274337
 30
0.0
 10
3.767611
 20
4.295724
 30
0.0
 10
3.732995
 20
4.333482
 30
0.0
 10
3.706978
 20
4.364791
 30
0.0
 10
3.669495
 20
4.412582
 30
0.0
 10
3.651581
 20
4.436339
 30
0.0
 10
3.635044
 20
4.460703
 30
0.0
 10
3.586151
 20
4.537542
 30
0.0
 10
3.581135
 20
4.545700
 30
0.0
 10
3.575072
 20
4.556835
 30
0.0
 10
3.498165
 20
4.713947
 30
0.0
 10
3.442404
 20
4.878984
 30
0.0
 10
3.408356
 20
5.049827
 30
0.0
 10
3.396588
 20
5.224357
 30
0.0
 10
3.399565
 20
5.283502
 30
0.0
 10
3.399620
 20
5.287305
 30
0.0
 10
3.400171
 20
5.296345
 30
0.0
 10
3.410093
 20
5.403777
 30
0.0
 10
3.411526
 20
5.416235
 30
0.0
 10
3.415826
 20
5.442583
 30
0.0
 10
3.416928
 20
5.449087
 30
0.0
 10
3.431591
 20
5.524383
 30
0.0
 10
3.436386
 20
5.546101
 30
0.0
 10
3.442560
 20
5.569197
 30
0.0
 10
3.451545
 20
5.602380
 30
0.0
 10
3.465435
 20
5.646808
 30
0.0
 10
3.474255
 20
5.673873
 30
0.0
 10
3.484673
 20
5.701654
 30
0.0
 10
3.497902
 20
5.736491
 30
0.0
 10
3.499555
 20
5.740239
 30
0.0
 10
3.510524
 20
5.765374
 30
0.0
 10
3.515596
 20
5.777005
 30
0.0
 10
3.524856
 20
5.798227
 30
0.0
 10
3.525132
 20
5.798668
 30
0.0
 10
3.549165
 20
5.846954
 30
0.0
 10
3.555614
 20
5.859963
 30
0.0
 10
3.556000
 20
5.860680
 30
0.0
 10
3.560024
 20
5.867790
 30
0.0
 10
3.565536
 20
5.877657
 30
0.0
 10
3.589899
 20
5.920872
 30
0.0
 10
3.619445
 20
5.967670
 30
0.0
 10
3.635926
 20
5.992310
 30
0.0
 10
3.636532
 20
5.993247
 30
0.0
 10
3.638737
 20
5.996334
 30
0.0
 10
3.746941
 20
6.133035
 30
0.0
 10
3.747988
 20
6.132759
 30
0.0
 10
3.749311
 20
6.131878
 30
0.0
 10
3.882049
 20
6.259317
 30
0.0
 10
4.030170
 20
6.367075
 30
0.0
 10
4.191512
 20
6.453793
 30
0.0
 10
4.363916
 20
6.518114
 30
0.0
 10
4.363916
 20
6.518114
 30
0.0
  0
LWPOLYLINE
  5
106
100
AcDbEntity
  8
Layer_1
 62
7
100
AcDbPolyline
 90
340
 70
0
 10
9.018379
 20
5.214490
 30
0.0
 10
8.941898
 20
5.209562
 30
0.0
 10
8.867565
 20
5.195153
 30
0.0
 10
8.796168
 20
5.171699
 30
0.0
 10
8.728499
 20
5.139637
 30
0.0
 10
8.665345
 20
5.099403
 30
0.0
 10
8.607496
 20
5.051433
 30
0.0
 10
8.555743
 20
4.996164
 30
0.0
 10
8.510875
 20
4.934031
 30
0.0
 10
8.322860
 20
4.982469
 30
0.0
 10
8.129324
 20
5.003154
 30
0.0
 10
8.130205
 20
5.001445
 30
0.0
 10
8.106889
 20
5.001831
 30
0.0
 10
7.955845
 20
4.995656
 30
0.0
 10
7.807092
 20
4.972497
 30
0.0
 10
7.662041
 20
4.932723
 30
0.0
 10
7.522105
 20
4.876705
 30
0.0
 10
7.515876
 20
4.873839
 30
0.0
 10
7.487268
 20
4.859783
 30
0.0
 10
7.439808
 20
4.834757
 30
0.0
 10
7.294839
 20
4.740665
 30
0.0
 10
7.271467
 20
4.723412
 30
0.0
 10
7.245174
 20
4.701970
 30
0.0
 10
7.220038
 20
4.681465
 30
0.0
 10
7.191430
 20
4.655557
 30
0.0
 10
7.171697
 20
4.637753
 30
0.0
 10
7.138459
 20
4.604625
 30
0.0
 10
7.125836
 20
4.591947
 30
0.0
 10
7.096732
 20
4.560032
 30
0.0
 10
7.081904
 20
4.543661
 30
0.0
 10
7.054894
 20
4.510918
 30
0.0
 10
7.041114
 20
4.493996
 30
0.0
 10
7.016089
 20
4.460482
 30
0.0
 10
7.002694
 20
4.442402
 30
0.0
 10
6.974307
 20
4.400180
 30
0.0
 10
6.967692
 20
4.390313
 30
0.0
 10
6.941289
 20
4.346767
 30
0.0
 10
6.934564
 20
4.335522
 30
0.0
 10
6.883687
 20
4.236909
 30
0.0
 10
6.876411
 20
4.221586
 30
0.0
 10
6.857284
 20
4.176441
 30
0.0
 10
6.852158
 20
4.164314
 30
0.0
 10
6.833471
 20
4.113768
 30
0.0
 10
6.830384
 20
4.105334
 30
0.0
 10
6.782870
 20
3.927016
 30
0.0
 10
6.782043
 20
3.922937
 30
0.0
 10
6.765921
 20
3.814585
 30
0.0
 10
6.758750
 20
3.704977
 30
0.0
 10
6.760689
 20
3.594683
 30
0.0
 10
6.771895
 20
3.484276
 30
0.0
 10
6.792528
 20
3.374328
 30
0.0
 10
6.822746
 20
3.265411
 30
0.0
 10
6.862707
 20
3.158095
 30
0.0
 10
6.912571
 20
3.052954
 30
0.0
 10
6.897688
 20
3.046670
 30
0.0
 10
6.843106
 20
3.013422
 30
0.0
 10
6.796479
 20
2.970605
 30
0.0
 10
6.759033
 20
2.919588
 30
0.0
 10
6.731993
 20
2.861737
 30
0.0
 10
6.646168
 20
2.891834
 30
0.0
 10
6.639499
 20
2.882739
 30
0.0
 10
6.632939
 20
2.878164
 30
0.0
 10
6.626821
 20
2.875352
 30
0.0
 10
6.621088
 20
2.873368
 30
0.0
 10
6.615466
 20
2.872045
 30
0.0
 10
6.604937
 20
2.870777
 30
0.0
 10
6.594630
 20
2.870777
 30
0.0
 10
6.584543
 20
2.871714
 30
0.0
 10
6.574731
 20
2.873589
 30
0.0
 10
6.555659
 20
2.879266
 30
0.0
 10
6.537193
 20
2.887259
 30
0.0
 10
6.519334
 20
2.897291
 30
0.0
 10
6.502026
 20
2.909087
 30
0.0
 10
6.485324
 20
2.922536
 30
0.0
 10
6.466527
 20
2.928931
 30
0.0
 10
6.444644
 20
2.925458
 30
0.0
 10
6.422485
 20
2.919946
 30
0.0
 10
6.400051
 20
2.912835
 30
0.0
 10
6.377506
 20
2.903905
 30
0.0
 10
6.355016
 20
2.893322
 30
0.0
 10
6.355016
 20
2.893212
 30
0.0
 10
6.338204
 20
2.884282
 30
0.0
 10
6.328227
 20
2.807718
 30
0.0
 10
6.326574
 20
2.730493
 30
0.0
 10
6.341952
 20
2.719028
 30
0.0
 10
6.362733
 20
2.705137
 30
0.0
 10
6.383735
 20
2.692955
 30
0.0
 10
6.404791
 20
2.682427
 30
0.0
 10
6.425848
 20
2.673773
 30
0.0
 10
6.446904
 20
2.666883
 30
0.0
 10
6.466527
 20
2.670521
 30
0.0
 10
6.485048
 20
2.681270
 30
0.0
 10
6.504065
 20
2.690364
 30
0.0
 10
6.523192
 20
2.697530
 30
0.0
 10
6.542595
 20
2.702657
 30
0.0
 10
6.562384
 20
2.705413
 30
0.0
 10
6.572305
 20
2.705799
 30
0.0
 10
6.582338
 20
2.705247
 30
0.0
 10
6.592535
 20
2.703704
 30
0.0
 10
6.602898
 20
2.700782
 30
0.0
 10
6.608134
 20
2.698743
 30
0.0
 10
6.613591
 20
2.695932
 30
0.0
 10
6.619048
 20
2.692239
 30
0.0
 10
6.625002
 20
2.686727
 30
0.0
 10
6.632939
 20
2.671127
 30
0.0
 10
6.665296
 20
2.574995
 30
0.0
 10
6.720197
 20
2.489667
 30
0.0
 10
6.727362
 20
2.473792
 30
0.0
 10
6.727969
 20
2.465689
 30
0.0
 10
6.727528
 20
2.459020
 30
0.0
 10
6.726370
 20
2.453121
 30
0.0
 10
6.724606
 20
2.447609
 30
0.0
 10
6.720417
 20
2.437743
 30
0.0
 10
6.715180
 20
2.428923
 30
0.0
 10
6.709338
 20
2.420710
 30
0.0
 10
6.702778
 20
2.413213
 30
0.0
 10
6.688281
 20
2.399488
 30
0.0
 10
6.672130
 20
2.387527
 30
0.0
 10
6.654602
 20
2.377054
 30
0.0
 10
6.635695
 20
2.367849
 30
0.0
 10
6.615631
 20
2.360186
 30
0.0
 10
6.600583
 20
2.347013
 30
0.0
 10
6.592811
 20
2.326397
 30
0.0
 10
6.586416
 20
2.304514
 30
0.0
 10
6.581456
 20
2.281473
 30
0.0
 10
6.577873
 20
2.257495
 30
0.0
 10
6.575833
 20
2.232580
 30
0.0
 10
6.575172
 20
2.213343
 30
0.0
 10
6.636522
 20
2.166379
 30
0.0
 10
6.702558
 20
2.126471
 30
0.0
 10
6.720141
 20
2.134078
 30
0.0
 10
6.742631
 20
2.145047
 30
0.0
 10
6.763687
 20
2.157119
 30
0.0
 10
6.783255
 20
2.170072
 30
0.0
 10
6.801391
 20
2.184073
 30
0.0
 10
6.817817
 20
2.198846
 30
0.0
 10
6.824542
 20
2.217587
 30
0.0
 10
6.824542
 20
2.239085
 30
0.0
 10
6.826195
 20
2.260031
 30
0.0
 10
6.829502
 20
2.280205
 30
0.0
 10
6.834849
 20
2.299498
 30
0.0
 10
6.842291
 20
2.317963
 30
0.0
 10
6.847031
 20
2.326783
 30
0.0
 10
6.852543
 20
2.335272
 30
0.0
 10
6.858937
 20
2.343430
 30
0.0
 10
6.866489
 20
2.350926
 30
0.0
 10
6.871009
 20
2.354399
 30
0.0
 10
6.876135
 20
2.357706
 30
0.0
 10
6.882199
 20
2.360572
 30
0.0
 10
6.889365
 20
2.362832
 30
0.0
 10
6.864816
 20
2.185839
 30
0.0
 10
6.864172
 20
2.007479
 30
0.0
 10
6.887480
 20
1.830227
 30
0.0
 10
6.934785
 20
1.656560
 30
0.0
 10
6.873921
 20
1.611584
 30
0.0
 10
6.819811
 20
1.559954
 30
0.0
 10
6.772870
 20
1.502433
 30
0.0
 10
6.733515
 20
1.439786
 30
0.0
 10
6.702163
 20
1.372774
 30
0.0
 10
6.679228
 20
1.302163
 30
0.0
 10
6.665128
 20
1.228713
 30
0.0
 10
6.660279
 20
1.153190
 30
0.0
 10
6.672470
 20
1.032270
 30
0.0
 10
6.707431
 20
0.919644
 30
0.0
 10
6.762750
 20
0.817726
 30
0.0
 10
6.836015
 20
0.728928
 30
0.0
 10
6.924813
 20
0.655663
 30
0.0
 10
7.026732
 20
0.600344
 30
0.0
 10
7.139357
 20
0.565383
 30
0.0
 10
7.260277
 20
0.553192
 30
0.0
 10
7.336758
 20
0.558121
 30
0.0
 10
7.411092
 20
0.572530
 30
0.0
 10
7.482488
 20
0.595983
 30
0.0
 10
7.550158
 20
0.628046
 30
0.0
 10
7.613312
 20
0.668280
 30
0.0
 10
7.671160
 20
0.716249
 30
0.0
 10
7.722913
 20
0.771519
 30
0.0
 10
7.767781
 20
0.833651
 30
0.0
 10
7.955796
 20
0.785213
 30
0.0
 10
8.149333
 20
0.764528
 30
0.0
 10
8.148451
 20
0.766237
 30
0.0
 10
8.171767
 20
0.765851
 30
0.0
 10
8.322811
 20
0.772026
 30
0.0
 10
8.471564
 20
0.795185
 30
0.0
 10
8.616615
 20
0.834959
 30
0.0
 10
8.756551
 20
0.890977
 30
0.0
 10
8.762780
 20
0.893843
 30
0.0
 10
8.791388
 20
0.907900
 30
0.0
 10
8.838848
 20
0.932925
 30
0.0
 10
8.983818
 20
1.027017
 30
0.0
 10
9.007189
 20
1.044270
 30
0.0
 10
9.033482
 20
1.065713
 30
0.0
 10
9.058618
 20
1.086218
 30
0.0
 10
9.087226
 20
1.112125
 30
0.0
 10
9.106959
 20
1.129929
 30
0.0
 10
9.140197
 20
1.163057
 30
0.0
 10
9.152820
 20
1.175735
 30
0.0
 10
9.181924
 20
1.207650
 30
0.0
 10
9.196752
 20
1.224021
 30
0.0
 10
9.223762
 20
1.256764
 30
0.0
 10
9.237542
 20
1.273686
 30
0.0
 10
9.262567
 20
1.307200
 30
0.0
 10
9.275962
 20
1.325280
 30
0.0
 10
9.304349
 20
1.367503
 30
0.0
 10
9.310964
 20
1.377369
 30
0.0
 10
9.337367
 20
1.420916
 30
0.0
 10
9.344092
 20
1.432160
 30
0.0
 10
9.394969
 20
1.530773
 30
0.0
 10
9.402245
 20
1.546097
 30
0.0
 10
9.421372
 20
1.591241
 30
0.0
 10
9.426499
 20
1.603368
 30
0.0
 10
9.445185
 20
1.653914
 30
0.0
 10
9.448272
 20
1.662348
 30
0.0
 10
9.495786
 20
1.840666
 30
0.0
 10
9.496613
 20
1.844745
 30
0.0
 10
9.512735
 20
1.953105
 30
0.0
 10
9.519903
 20
2.062721
 30
0.0
 10
9.517959
 20
2.173022
 30
0.0
 10
9.506746
 20
2.283435
 30
0.0
 10
9.486104
 20
2.393390
 30
0.0
 10
9.455876
 20
2.502314
 30
0.0
 10
9.415904
 20
2.609636
 30
0.0
 10
9.366030
 20
2.714783
 30
0.0
 10
9.380968
 20
2.721067
 30
0.0
 10
9.435550
 20
2.754316
 30
0.0
 10
9.482177
 20
2.797133
 30
0.0
 10
9.519623
 20
2.848150
 30
0.0
 10
9.546664
 20
2.906000
 30
0.0
 10
9.632488
 20
2.875904
 30
0.0
 10
9.639157
 20
2.884999
 30
0.0
 10
9.645717
 20
2.889574
 30
0.0
 10
9.651835
 20
2.892385
 30
0.0
 10
9.657568
 20
2.894369
 30
0.0
 10
9.663190
 20
2.895692
 30
0.0
 10
9.673719
 20
2.896905
 30
0.0
 10
9.684027
 20
2.896905
 30
0.0
 10
9.694114
 20
2.895968
 30
0.0
 10
9.703925
 20
2.894094
 30
0.0
 10
9.722997
 20
2.888416
 30
0.0
 10
9.741463
 20
2.880424
 30
0.0
 10
9.759322
 20
2.870392
 30
0.0
 10
9.776631
 20
2.858595
 30
0.0
 10
9.793332
 20
2.845146
 30
0.0
 10
9.812129
 20
2.838752
 30
0.0
 10
9.834012
 20
2.842224
 30
0.0
 10
9.856171
 20
2.847736
 30
0.0
 10
9.878606
 20
2.854847
 30
0.0
 10
9.901150
 20
2.863777
 30
0.0
 10
9.923640
 20
2.874360
 30
0.0
 10
9.923640
 20
2.874470
 30
0.0
 10
9.940452
 20
2.883400
 30
0.0
 10
9.950429
 20
2.959964
 30
0.0
 10
9.952138
 20
3.037189
 30
0.0
 10
9.936759
 20
3.048654
 30
0.0
 10
9.915978
 20
3.062545
 30
0.0
 10
9.894977
 20
3.074727
 30
0.0
 10
9.873920
 20
3.085255
 30
0.0
 10
9.852864
 20
3.093909
 30
0.0
 10
9.831807
 20
3.100799
 30
0.0
 10
9.812184
 20
3.097161
 30
0.0
 10
9.793663
 20
3.086413
 30
0.0
 10
9.774646
 20
3.077318
 30
0.0
 10
9.755519
 20
3.070152
 30
0.0
 10
9.736116
 20
3.065026
 30
0.0
 10
9.716328
 20
3.062270
 30
0.0
 10
9.706406
 20
3.061884
 30
0.0
 10
9.696374
 20
3.062435
 30
0.0
 10
9.686176
 20
3.063978
 30
0.0
 10
9.675813
 20
3.066900
 30
0.0
 10
9.670577
 20
3.068939
 30
0.0
 10
9.665120
 20
3.071750
 30
0.0
 10
9.659663
 20
3.075443
 30
0.0
 10
9.653710
 20
3.080956
 30
0.0
 10
9.645772
 20
3.096555
 30
0.0
 10
9.613416
 20
3.192687
 30
0.0
 10
9.558515
 20
3.278015
 30
0.0
 10
9.551349
 20
3.293890
 30
0.0
 10
9.550688
 20
3.301993
 30
0.0
 10
9.551128
 20
3.308663
 30
0.0
 10
9.552286
 20
3.314561
 30
0.0
 10
9.554050
 20
3.320073
 30
0.0
 10
9.558239
 20
3.329940
 30
0.0
 10
9.563476
 20
3.338759
 30
0.0
 10
9.569318
 20
3.346972
 30
0.0
 10
9.575878
 20
3.354469
 30
0.0
 10
9.590375
 20
3.368194
 30
0.0
 10
9.606526
 20
3.380155
 30
0.0
 10
9.624054
 20
3.390628
 30
0.0
 10
9.642961
 20
3.399834
 30
0.0
 10
9.663025
 20
3.407496
 30
0.0
 10
9.678073
 20
3.420670
 30
0.0
 10
9.685846
 20
3.441285
 30
0.0
 10
9.692240
 20
3.463168
 30
0.0
 10
9.697200
 20
3.486209
 30
0.0
 10
9.700784
 20
3.510187
 30
0.0
 10
9.702878
 20
3.535102
 30
0.0
 10
9.703484
 20
3.554339
 30
0.0
 10
9.642134
 20
3.601303
 30
0.0
 10
9.576099
 20
3.641211
 30
0.0
 10
9.558515
 20
3.633604
 30
0.0
 10
9.536025
 20
3.622635
 30
0.0
 10
9.514969
 20
3.610563
 30
0.0
 10
9.495401
 20
3.597610
 30
0.0
 10
9.477265
 20
3.583609
 30
0.0
 10
9.460839
 20
3.568836
 30
0.0
 10
9.454115
 20
3.550095
 30
0.0
 10
9.454115
 20
3.528598
 30
0.0
 10
9.452461
 20
3.507652
 30
0.0
 10
9.449154
 20
3.487477
 30
0.0
 10
9.443807
 20
3.468185
 30
0.0
 10
9.436366
 20
3.449719
 30
0.0
 10
9.431625
 20
3.440899
 30
0.0
 10
9.426113
 20
3.432411
 30
0.0
 10
9.419719
 20
3.424253
 30
0.0
 10
9.412167
 20
3.416756
 30
0.0
 10
9.407647
 20
3.413284
 30
0.0
 10
9.402521
 20
3.409976
 30
0.0
 10
9.396457
 20
3.407110
 30
0.0
 10
9.389292
 20
3.404850
 30
0.0
 10
9.413840
 20
3.581843
 30
0.0
 10
9.414484
 20
3.760204
 30
0.0
 10
9.391177
 20
3.937456
 30
0.0
 10
9.343871
 20
4.111122
 30
0.0
 10
9.404735
 20
4.156099
 30
0.0
 10
9.458845
 20
4.207729
 30
0.0
 10
9.505786
 20
4.265249
 30
0.0
 10
9.545141
 20
4.327896
 30
0.0
 10
9.576494
 20
4.394908
 30
0.0
 10
9.599428
 20
4.465520
 30
0.0
 10
9.613528
 20
4.538969
 30
0.0
 10
9.618377
 20
4.614492
 30
0.0
 10
9.606186
 20
4.735412
 30
0.0
 10
9.571225
 20
4.848038
 30
0.0
 10
9.515906
 20
4.949956
 30
0.0
 10
9.442641
 20
5.038754
 30
0.0
 10
9.353843
 20
5.112019
 30
0.0
 10
9.251925
 20
5.167338
 30
0.0
 10
9.139299
 20
5.202300
 30
0.0
 10
9.018379
 20
5.214490
 30
0.0
 10
9.018379
 20
5.214490
 30
0.0
  0
LWPOLYLINE
  5
107
100
AcDbEntity
  8
Layer_1
 62
7
100
AcDbPolyline
 90
341
 70
0
 10
2.581506
 20
3.805859
 30
0.0
 10
2.570041
 20
3.790480
 30
0.0
 10
2.556150
 20
3.769699
 30
0.0
 10
2.543968
 20
3.748698
 30
0.0
 10
2.533440
 20
3.727642
 30
0.0
 10
2.524786
 20
3.706585
 30
0.0
 10
2.517896
 20
3.685529
 30
0.0
 10
2.521534
 20
3.665906
 30
0.0
 10
2.532283
 20
3.647385
 30
0.0
 10
2.541378
 20
3.628368
 30
0.0
 10
2.548543
 20
3.609241
 30
0.0
 10
2.553670
 20
3.589838
 30
0.0
 10
2.556426
 20
3.570049
 30
0.0
 10
2.556812
 20
3.560127
 30
0.0
 10
2.556260
 20
3.550095
 30
0.0
 10
2.554717
 20
3.539898
 30
0.0
 10
2.551796
 20
3.529535
 30
0.0
 10
2.549756
 20
3.524298
 30
0.0
 10
2.546945
 20
3.518841
 30
0.0
 10
2.543252
 20
3.513384
 30
0.0
 10
2.537740
 20
3.507431
 30
0.0
 10
2.522140
 20
3.499493
 30
0.0
 10
2.426008
 20
3.467137
 30
0.0
 10
2.340680
 20
3.412236
 30
0.0
 10
2.324805
 20
3.405070
 30
0.0
 10
2.316702
 20
3.404464
 30
0.0
 10
2.310033
 20
3.404905
 30
0.0
 10
2.304135
 20
3.406063
 30
0.0
 10
2.298622
 20
3.407771
 30
0.0
 10
2.288756
 20
3.411961
 30
0.0
 10
2.279936
 20
3.417197
 30
0.0
 10
2.271723
 20
3.423040
 30
0.0
 10
2.264227
 20
3.429599
 30
0.0
 10
2.250501
 20
3.444096
 30
0.0
 10
2.238540
 20
3.460247
 30
0.0
 10
2.228067
 20
3.477776
 30
0.0
 10
2.218862
 20
3.496682
 30
0.0
 10
2.211200
 20
3.516747
 30
0.0
 10
2.198026
 20
3.531795
 30
0.0
 10
2.177410
 20
3.539567
 30
0.0
 10
2.155527
 20
3.545961
 30
0.0
 10
2.132486
 20
3.550922
 30
0.0
 10
2.108508
 20
3.554505
 30
0.0
 10
2.083593
 20
3.556599
 30
0.0
 10
2.064356
 20
3.557261
 30
0.0
 10
2.017392
 20
3.495911
 30
0.0
 10
1.977484
 20
3.429875
 30
0.0
 10
1.985091
 20
3.412291
 30
0.0
 10
1.996060
 20
3.389802
 30
0.0
 10
2.008132
 20
3.368745
 30
0.0
 10
2.021085
 20
3.349177
 30
0.0
 10
2.035086
 20
3.331042
 30
0.0
 10
2.049859
 20
3.314616
 30
0.0
 10
2.068600
 20
3.307891
 30
0.0
 10
2.090098
 20
3.307891
 30
0.0
 10
2.111044
 20
3.306182
 30
0.0
 10
2.131218
 20
3.302875
 30
0.0
 10
2.150511
 20
3.297528
 30
0.0
 10
2.168977
 20
3.290087
 30
0.0
 10
2.177796
 20
3.285346
 30
0.0
 10
2.186285
 20
3.279834
 30
0.0
 10
2.194443
 20
3.273440
 30
0.0
 10
2.201939
 20
3.265888
 30
0.0
 10
2.205412
 20
3.261368
 30
0.0
 10
2.208719
 20
3.256242
 30
0.0
 10
2.211585
 20
3.250179
 30
0.0
 10
2.213845
 20
3.243013
 30
0.0
 10
2.036852
 20
3.267561
 30
0.0
 10
1.858492
 20
3.268205
 30
0.0
 10
1.681240
 20
3.244898
 30
0.0
 10
1.507573
 20
3.197593
 30
0.0
 10
1.462597
 20
3.258457
 30
0.0
 10
1.410967
 20
3.312567
 30
0.0
 10
1.353446
 20
3.359508
 30
0.0
 10
1.290799
 20
3.398862
 30
0.0
 10
1.223788
 20
3.430215
 30
0.0
 10
1.153176
 20
3.453149
 30
0.0
 10
1.079727
 20
3.467249
 30
0.0
 10
1.004203
 20
3.472098
 30
0.0
 10
0.883283
 20
3.459908
 30
0.0
 10
0.770657
 20
3.424947
 30
0.0
 10
0.668739
 20
3.369627
 30
0.0
 10
0.579941
 20
3.296362
 30
0.0
 10
0.506676
 20
3.207564
 30
0.0
 10
0.451357
 20
3.105646
 30
0.0
 10
0.416396
 20
2.993020
 30
0.0
 10
0.404205
 20
2.872100
 30
0.0
 10
0.409140
 20
2.795627
 30
0.0
 10
0.423553
 20
2.721301
 30
0.0
 10
0.447009
 20
2.649913
 30
0.0
 10
0.479072
 20
2.582251
 30
0.0
 10
0.519305
 20
2.519104
 30
0.0
 10
0.567272
 20
2.461263
 30
0.0
 10
0.622537
 20
2.409515
 30
0.0
 10
0.684664
 20
2.364652
 30
0.0
 10
0.636226
 20
2.176637
 30
0.0
 10
0.615541
 20
1.983100
 30
0.0
 10
0.617250
 20
1.983927
 30
0.0
 10
0.616864
 20
1.960611
 30
0.0
 10
0.623039
 20
1.809567
 30
0.0
 10
0.646198
 20
1.660813
 30
0.0
 10
0.685972
 20
1.515762
 30
0.0
 10
0.741990
 20
1.375826
 30
0.0
 10
0.744856
 20
1.369597
 30
0.0
 10
0.758912
 20
1.340989
 30
0.0
 10
0.783938
 20
1.293530
 30
0.0
 10
0.878030
 20
1.148560
 30
0.0
 10
0.895283
 20
1.125189
 30
0.0
 10
0.916725
 20
1.098896
 30
0.0
 10
0.937231
 20
1.073760
 30
0.0
 10
0.963138
 20
1.045152
 30
0.0
 10
0.980942
 20
1.025419
 30
0.0
 10
1.014070
 20
0.992180
 30
0.0
 10
1.026748
 20
0.979557
 30
0.0
 10
1.058663
 20
0.950453
 30
0.0
 10
1.075035
 20
0.935626
 30
0.0
 10
1.107777
 20
0.908616
 30
0.0
 10
1.124699
 20
0.894836
 30
0.0
 10
1.158213
 20
0.869811
 30
0.0
 10
1.176293
 20
0.856416
 30
0.0
 10
1.218516
 20
0.828028
 30
0.0
 10
1.228383
 20
0.821414
 30
0.0
 10
1.271929
 20
0.795011
 30
0.0
 10
1.283173
 20
0.788286
 30
0.0
 10
1.381786
 20
0.737409
 30
0.0
 10
1.397110
 20
0.730133
 30
0.0
 10
1.442254
 20
0.711005
 30
0.0
 10
1.454381
 20
0.705879
 30
0.0
 10
1.504927
 20
0.687193
 30
0.0
 10
1.513361
 20
0.684106
 30
0.0
 10
1.691679
 20
0.636591
 30
0.0
 10
1.695758
 20
0.635819
 30
0.0
 10
1.804110
 20
0.619698
 30
0.0
 10
1.913719
 20
0.612526
 30
0.0
 10
2.024012
 20
0.614465
 30
0.0
 10
2.134419
 20
0.625671
 30
0.0
 10
2.244367
 20
0.646304
 30
0.0
 10
2.353284
 20
0.676522
 30
0.0
 10
2.460600
 20
0.716484
 30
0.0
 10
2.565741
 20
0.766347
 30
0.0
 10
2.572025
 20
0.751410
 30
0.0
 10
2.605274
 20
0.696828
 30
0.0
 10
2.648091
 20
0.650201
 30
0.0
 10
2.699108
 20
0.612755
 30
0.0
 10
2.756958
 20
0.585714
 30
0.0
 10
2.726862
 20
0.499890
 30
0.0
 10
2.735957
 20
0.493220
 30
0.0
 10
2.740532
 20
0.486661
 30
0.0
 10
2.743343
 20
0.480542
 30
0.0
 10
2.745327
 20
0.474810
 30
0.0
 10
2.746650
 20
0.469187
 30
0.0
 10
2.747863
 20
0.458659
 30
0.0
 10
2.747863
 20
0.448351
 30
0.0
 10
2.746926
 20
0.438264
 30
0.0
 10
2.745052
 20
0.428452
 30
0.0
 10
2.739374
 20
0.409380
 30
0.0
 10
2.731382
 20
0.390915
 30
0.0
 10
2.721349
 20
0.373055
 30
0.0
 10
2.709553
 20
0.355747
 30
0.0
 10
2.696104
 20
0.339045
 30
0.0
 10
2.689710
 20
0.320249
 30
0.0
 10
2.693182
 20
0.298365
 30
0.0
 10
2.698695
 20
0.276207
 30
0.0
 10
2.705805
 20
0.253772
 30
0.0
 10
2.714735
 20
0.231228
 30
0.0
 10
2.725318
 20
0.208738
 30
0.0
 10
2.725484
 20
0.208738
 30
0.0
 10
2.734413
 20
0.191926
 30
0.0
 10
2.810977
 20
0.181949
 30
0.0
 10
2.888202
 20
0.180295
 30
0.0
 10
2.899668
 20
0.195674
 30
0.0
 10
2.913558
 20
0.216455
 30
0.0
 10
2.925740
 20
0.237456
 30
0.0
 10
2.936268
 20
0.258513
 30
0.0
 10
2.944923
 20
0.279569
 30
0.0
 10
2.951813
 20
0.300626
 30
0.0
 10
2.948175
 20
0.320249
 30
0.0
 10
2.937426
 20
0.338770
 30
0.0
 10
2.928331
 20
0.357787
 30
0.0
 10
2.921165
 20
0.376914
 30
0.0
 10
2.916039
 20
0.396316
 30
0.0
 10
2.913283
 20
0.416105
 30
0.0
 10
2.912842
 20
0.426027
 30
0.0
 10
2.913393
 20
0.436059
 30
0.0
 10
2.914936
 20
0.446257
 30
0.0
 10
2.917858
 20
0.456619
 30
0.0
 10
2.919952
 20
0.461856
 30
0.0
 10
2.922764
 20
0.467313
 30
0.0
 10
2.926457
 20
0.472770
 30
0.0
 10
2.931969
 20
0.478723
 30
0.0
 10
2.947568
 20
0.486661
 30
0.0
 10
3.043700
 20
0.519017
 30
0.0
 10
3.129028
 20
0.573918
 30
0.0
 10
3.144903
 20
0.581084
 30
0.0
 10
3.153006
 20
0.581690
 30
0.0
 10
3.159676
 20
0.581249
 30
0.0
 10
3.165574
 20
0.580092
 30
0.0
 10
3.171086
 20
0.578383
 30
0.0
 10
3.180953
 20
0.574194
 30
0.0
 10
3.189772
 20
0.568957
 30
0.0
 10
3.197985
 20
0.563114
 30
0.0
 10
3.205482
 20
0.556555
 30
0.0
 10
3.219207
 20
0.542058
 30
0.0
 10
3.231168
 20
0.525907
 30
0.0
 10
3.241642
 20
0.508379
 30
0.0
 10
3.250847
 20
0.489472
 30
0.0
 10
3.258509
 20
0.469408
 30
0.0
 10
3.271683
 20
0.454360
 30
0.0
 10
3.292298
 20
0.446587
 30
0.0
 10
3.314182
 20
0.440193
 30
0.0
 10
3.337222
 20
0.435232
 30
0.0
 10
3.361200
 20
0.431649
 30
0.0
 10
3.386115
 20
0.429555
 30
0.0
 10
3.405353
 20
0.428893
 30
0.0
 10
3.452316
 20
0.490244
 30
0.0
 10
3.492224
 20
0.556279
 30
0.0
 10
3.484617
 20
0.573863
 30
0.0
 10
3.473648
 20
0.596353
 30
0.0
 10
3.461577
 20
0.617409
 30
0.0
 10
3.448623
 20
0.636977
 30
0.0
 10
3.434622
 20
0.655112
 30
0.0
 10
3.419850
 20
0.671538
 30
0.0
 10
3.401108
 20
0.678263
 30
0.0
 10
3.379611
 20
0.678263
 30
0.0
 10
3.358665
 20
0.679917
 30
0.0
 10
3.338490
 20
0.683224
 30
0.0
 10
3.319198
 20
0.688571
 30
0.0
 10
3.300732
 20
0.696012
 30
0.0
 10
3.291913
 20
0.700753
 30
0.0
 10
3.283424
 20
0.706265
 30
0.0
 10
3.275266
 20
0.712659
 30
0.0
 10
3.267769
 20
0.720211
 30
0.0
 10
3.264297
 20
0.724731
 30
0.0
 10
3.260989
 20
0.729857
 30
0.0
 10
3.258123
 20
0.735920
 30
0.0
 10
3.255808
 20
0.743086
 30
0.0
 10
3.432801
 20
0.718538
 30
0.0
 10
3.611162
 20
0.717894
 30
0.0
 10
3.788414
 20
0.741201
 30
0.0
 10
3.962080
 20
0.788506
 30
0.0
 10
4.007057
 20
0.727643
 30
0.0
 10
4.058687
 20
0.673532
 30
0.0
 10
4.116207
 20
0.626592
 30
0.0
 10
4.178854
 20
0.587237
 30
0.0
 10
4.245866
 20
0.555884
 30
0.0
 10
4.316478
 20
0.532950
 30
0.0
 10
4.389927
 20
0.518850
 30
0.0
 10
4.465450
 20
0.514001
 30
0.0
 10
4.586370
 20
0.526191
 30
0.0
 10
4.698996
 20
0.561152
 30
0.0
 10
4.800914
 20
0.616472
 30
0.0
 10
4.889712
 20
0.689737
 30
0.0
 10
4.962977
 20
0.778535
 30
0.0
 10
5.018297
 20
0.880453
 30
0.0
 10
5.053258
 20
0.993078
 30
0.0
 10
5.065448
 20
1.113999
 30
0.0
 10
5.065503
 20
1.113999
 30
0.0
 10
5.060575
 20
1.190480
 30
0.0
 10
5.046166
 20
1.264813
 30
0.0
 10
5.022712
 20
1.336209
 30
0.0
 10
4.990650
 20
1.403879
 30
0.0
 10
4.950416
 20
1.467033
 30
0.0
 10
4.902446
 20
1.524881
 30
0.0
 10
4.847177
 20
1.576634
 30
0.0
 10
4.785045
 20
1.621503
 30
0.0
 10
4.833483
 20
1.809517
 30
0.0
 10
4.854167
 20
2.003054
 30
0.0
 10
4.852458
 20
2.002172
 30
0.0
 10
4.852844
 20
2.025489
 30
0.0
 10
4.846670
 20
2.176533
 30
0.0
 10
4.823510
 20
2.325286
 30
0.0
 10
4.783737
 20
2.470337
 30
0.0
 10
4.727718
 20
2.610273
 30
0.0
 10
4.724852
 20
2.616502
 30
0.0
 10
4.710796
 20
2.645110
 30
0.0
 10
4.685771
 20
2.692569
 30
0.0
 10
4.591678
 20
2.837539
 30
0.0
 10
4.574425
 20
2.860911
 30
0.0
 10
4.552983
 20
2.887204
 30
0.0
 10
4.532478
 20
2.912339
 30
0.0
 10
4.506571
 20
2.940947
 30
0.0
 10
4.488766
 20
2.960681
 30
0.0
 10
4.455638
 20
2.993919
 30
0.0
 10
4.442960
 20
3.006542
 30
0.0
 10
4.411045
 20
3.035646
 30
0.0
 10
4.394674
 20
3.050474
 30
0.0
 10
4.361932
 20
3.077483
 30
0.0
 10
4.345009
 20
3.091263
 30
0.0
 10
4.311496
 20
3.116289
 30
0.0
 10
4.293416
 20
3.129683
 30
0.0
 10
4.251193
 20
3.158071
 30
0.0
 10
4.241326
 20
3.164685
 30
0.0
 10
4.197780
 20
3.191089
 30
0.0
 10
4.186535
 20
3.197813
 30
0.0
 10
4.087923
 20
3.248690
 30
0.0
 10
4.072599
 20
3.255967
 30
0.0
 10
4.027454
 20
3.275094
 30
0.0
 10
4.015328
 20
3.280220
 30
0.0
 10
3.964781
 20
3.298906
 30
0.0
 10
3.956348
 20
3.301993
 30
0.0
 10
3.778029
 20
3.349508
 30
0.0
 10
3.773950
 20
3.350335
 30
0.0
 10
3.665592
 20
3.366458
 30
0.0
 10
3.555976
 20
3.373632
 30
0.0
 10
3.445675
 20
3.371696
 30
0.0
 10
3.335261
 20
3.360491
 30
0.0
 10
3.225305
 20
3.339859
 30
0.0
 10
3.116380
 20
3.309641
 30
0.0
 10
3.009059
 20
3.269676
 30
0.0
 10
2.903912
 20
3.219807
 30
0.0
 10
2.897628
 20
3.234745
 30
0.0
 10
2.864380
 20
3.289327
 30
0.0
 10
2.821563
 20
3.335953
 30
0.0
 10
2.770545
 20
3.373400
 30
0.0
 10
2.712695
 20
3.400440
 30
0.0
 10
2.742792
 20
3.486264
 30
0.0
 10
2.733697
 20
3.492934
 30
0.0
 10
2.729122
 20
3.499493
 30
0.0
 10
2.726310
 20
3.505612
 30
0.0
 10
2.724326
 20
3.511345
 30
0.0
 10
2.723003
 20
3.516967
 30
0.0
 10
2.721790
 20
3.527495
 30
0.0
 10
2.721790
 20
3.537803
 30
0.0
 10
2.722727
 20
3.547890
 30
0.0
 10
2.724602
 20
3.557702
 30
0.0
 10
2.730279
 20
3.576774
 30
0.0
 10
2.738272
 20
3.595240
 30
0.0
 10
2.748304
 20
3.613099
 30
0.0
 10
2.760100
 20
3.630407
 30
0.0
 10
2.773550
 20
3.647109
 30
0.0
 10
2.779944
 20
3.665906
 30
0.0
 10
2.776471
 20
3.687789
 30
0.0
 10
2.770959
 20
3.709947
 30
0.0
 10
2.763848
 20
3.732382
 30
0.0
 10
2.754918
 20
3.754927
 30
0.0
 10
2.744335
 20
3.777416
 30
0.0
 10
2.744225
 20
3.777416
 30
0.0
 10
2.735295
 20
3.794228
 30
0.0
 10
2.658731
 20
3.804205
 30
0.0
 10
2.581506
 20
3.805859
 30
0.0
 10
2.581506
 20
3.805859
 30
0.0
  0
LWPOLYLINE
  5
108
100
AcDbEntity
  8
Layer_1
 62
7
100
AcDbPolyline
 90
120
 70
0
 10
8.067863
 20
3.688891
 30
0.0
 10
8.127008
 20
3.685914
 30
0.0
 10
8.130812
 20
3.685859
 30
0.0
 10
8.139852
 20
3.685308
 30
0.0
 10
8.247284
 20
3.675386
 30
0.0
 10
8.259741
 20
3.673953
 30
0.0
 10
8.286089
 20
3.669654
 30
0.0
 10
8.292593
 20
3.668551
 30
0.0
 10
8.367890
 20
3.653889
 30
0.0
 10
8.389607
 20
3.649093
 30
0.0
 10
8.412703
 20
3.642920
 30
0.0
 10
8.445886
 20
3.633935
 30
0.0
 10
8.490314
 20
3.620044
 30
0.0
 10
8.517379
 20
3.611225
 30
0.0
 10
8.545160
 20
3.600807
 30
0.0
 10
8.579997
 20
3.587578
 30
0.0
 10
8.583746
 20
3.585924
 30
0.0
 10
8.608936
 20
3.574955
 30
0.0
 10
8.620511
 20
3.569884
 30
0.0
 10
8.641733
 20
3.560623
 30
0.0
 10
8.642229
 20
3.560348
 30
0.0
 10
8.690516
 20
3.536315
 30
0.0
 10
8.703525
 20
3.529866
 30
0.0
 10
8.704186
 20
3.529480
 30
0.0
 10
8.711297
 20
3.525456
 30
0.0
 10
8.721164
 20
3.519944
 30
0.0
 10
8.764379
 20
3.495580
 30
0.0
 10
8.811177
 20
3.466035
 30
0.0
 10
8.835816
 20
3.449553
 30
0.0
 10
8.836753
 20
3.448947
 30
0.0
 10
8.839840
 20
3.446742
 30
0.0
 10
8.976542
 20
3.338539
 30
0.0
 10
8.976266
 20
3.337491
 30
0.0
 10
8.975384
 20
3.336168
 30
0.0
 10
9.102848
 20
3.203410
 30
0.0
 10
9.210624
 20
3.055263
 30
0.0
 10
9.297353
 20
2.893890
 30
0.0
 10
9.361676
 20
2.721453
 30
0.0
 10
9.360904
 20
2.720296
 30
0.0
 10
9.324469
 20
2.664788
 30
0.0
 10
9.284340
 20
2.609722
 30
0.0
 10
9.243826
 20
2.559506
 30
0.0
 10
9.243330
 20
2.558955
 30
0.0
 10
9.241952
 20
2.557301
 30
0.0
 10
9.241511
 20
2.556805
 30
0.0
 10
9.197138
 20
2.507251
 30
0.0
 10
9.160813
 20
2.470485
 30
0.0
 10
9.139426
 20
2.449814
 30
0.0
 10
9.101667
 20
2.415198
 30
0.0
 10
9.070358
 20
2.389181
 30
0.0
 10
9.022568
 20
2.351698
 30
0.0
 10
8.998811
 20
2.333783
 30
0.0
 10
8.974447
 20
2.317247
 30
0.0
 10
8.897607
 20
2.268354
 30
0.0
 10
8.889395
 20
2.263338
 30
0.0
 10
8.878315
 20
2.257275
 30
0.0
 10
8.721202
 20
2.180368
 30
0.0
 10
8.556165
 20
2.124607
 30
0.0
 10
8.385323
 20
2.090559
 30
0.0
 10
8.210793
 20
2.078791
 30
0.0
 10
8.151648
 20
2.081768
 30
0.0
 10
8.147844
 20
2.081823
 30
0.0
 10
8.138804
 20
2.082374
 30
0.0
 10
8.031372
 20
2.092296
 30
0.0
 10
8.018915
 20
2.093729
 30
0.0
 10
7.992567
 20
2.098029
 30
0.0
 10
7.986063
 20
2.099131
 30
0.0
 10
7.910766
 20
2.113793
 30
0.0
 10
7.889049
 20
2.118589
 30
0.0
 10
7.865953
 20
2.124763
 30
0.0
 10
7.832770
 20
2.133747
 30
0.0
 10
7.788342
 20
2.147638
 30
0.0
 10
7.761277
 20
2.156457
 30
0.0
 10
7.733496
 20
2.166875
 30
0.0
 10
7.698659
 20
2.180104
 30
0.0
 10
7.694911
 20
2.181758
 30
0.0
 10
7.669720
 20
2.192727
 30
0.0
 10
7.658145
 20
2.197799
 30
0.0
 10
7.636923
 20
2.207059
 30
0.0
 10
7.636482
 20
2.207335
 30
0.0
 10
7.588195
 20
2.231368
 30
0.0
 10
7.575187
 20
2.237817
 30
0.0
 10
7.574470
 20
2.238258
 30
0.0
 10
7.567360
 20
2.242282
 30
0.0
 10
7.557493
 20
2.247794
 30
0.0
 10
7.514278
 20
2.272157
 30
0.0
 10
7.467479
 20
2.301703
 30
0.0
 10
7.442840
 20
2.318184
 30
0.0
 10
7.441903
 20
2.318790
 30
0.0
 10
7.438816
 20
2.320995
 30
0.0
 10
7.302115
 20
2.429144
 30
0.0
 10
7.302390
 20
2.430191
 30
0.0
 10
7.303272
 20
2.431569
 30
0.0
 10
7.175828
 20
2.564319
 30
0.0
 10
7.068068
 20
2.712454
 30
0.0
 10
6.981351
 20
2.873811
 30
0.0
 10
6.917036
 20
3.046229
 30
0.0
 10
6.917752
 20
3.047387
 30
0.0
 10
6.954187
 20
3.102894
 30
0.0
 10
6.994316
 20
3.157960
 30
0.0
 10
7.034830
 20
3.208176
 30
0.0
 10
7.035382
 20
3.208727
 30
0.0
 10
7.036704
 20
3.210381
 30
0.0
 10
7.037145
 20
3.210877
 30
0.0
 10
7.081518
 20
3.260431
 30
0.0
 10
7.117843
 20
3.297197
 30
0.0
 10
7.139230
 20
3.317868
 30
0.0
 10
7.176989
 20
3.352484
 30
0.0
 10
7.208298
 20
3.378502
 30
0.0
 10
7.256088
 20
3.415984
 30
0.0
 10
7.279846
 20
3.433899
 30
0.0
 10
7.304209
 20
3.450435
 30
0.0
 10
7.381049
 20
3.499328
 30
0.0
 10
7.389262
 20
3.504344
 30
0.0
 10
7.400341
 20
3.510408
 30
0.0
 10
7.557454
 20
3.587314
 30
0.0
 10
7.722491
 20
3.643075
 30
0.0
 10
7.893333
 20
3.677123
 30
0.0
 10
8.067863
 20
3.688891
 30
0.0
 10
8.067863
 20
3.688891
 30
0.0
  0
LWPOLYLINE
  5
109
100
AcDbEntity
  8
Layer_1
 62
7
100
AcDbPolyline
 90
120
 70
0
 10
2.897187
 20
3.215397
 30
0.0
 10
2.898400
 20
3.214625
 30
0.0
 10
2.953907
 20
3.178190
 30
0.0
 10
3.008974
 20
3.138062
 30
0.0
 10
3.059189
 20
3.097547
 30
0.0
 10
3.059741
 20
3.097051
 30
0.0
 10
3.061394
 20
3.095728
 30
0.0
 10
3.061890
 20
3.095232
 30
0.0
 10
3.111445
 20
3.050859
 30
0.0
 10
3.148211
 20
3.014534
 30
0.0
 10
3.168881
 20
2.993147
 30
0.0
 10
3.203498
 20
2.955389
 30
0.0
 10
3.229515
 20
2.924080
 30
0.0
 10
3.266998
 20
2.876289
 30
0.0
 10
3.284912
 20
2.852532
 30
0.0
 10
3.301449
 20
2.828168
 30
0.0
 10
3.350341
 20
2.751329
 30
0.0
 10
3.355357
 20
2.743116
 30
0.0
 10
3.361421
 20
2.732036
 30
0.0
 10
3.438328
 20
2.574924
 30
0.0
 10
3.494088
 20
2.409887
 30
0.0
 10
3.528136
 20
2.239044
 30
0.0
 10
3.539904
 20
2.064515
 30
0.0
 10
3.536928
 20
2.005369
 30
0.0
 10
3.536873
 20
2.001566
 30
0.0
 10
3.536321
 20
1.992526
 30
0.0
 10
3.526399
 20
1.885094
 30
0.0
 10
3.524966
 20
1.872637
 30
0.0
 10
3.520667
 20
1.846289
 30
0.0
 10
3.519564
 20
1.839784
 30
0.0
 10
3.504902
 20
1.764488
 30
0.0
 10
3.500107
 20
1.742770
 30
0.0
 10
3.493933
 20
1.719674
 30
0.0
 10
3.484948
 20
1.686491
 30
0.0
 10
3.471057
 20
1.642063
 30
0.0
 10
3.462238
 20
1.614999
 30
0.0
 10
3.451820
 20
1.587217
 30
0.0
 10
3.438591
 20
1.552381
 30
0.0
 10
3.436937
 20
1.548632
 30
0.0
 10
3.425968
 20
1.523442
 30
0.0
 10
3.420897
 20
1.511866
 30
0.0
 10
3.411637
 20
1.490644
 30
0.0
 10
3.411306
 20
1.490203
 30
0.0
 10
3.387273
 20
1.441917
 30
0.0
 10
3.380824
 20
1.428908
 30
0.0
 10
3.380438
 20
1.428191
 30
0.0
 10
3.376414
 20
1.421081
 30
0.0
 10
3.370902
 20
1.411214
 30
0.0
 10
3.346538
 20
1.367999
 30
0.0
 10
3.316993
 20
1.321201
 30
0.0
 10
3.300512
 20
1.296561
 30
0.0
 10
3.299905
 20
1.295624
 30
0.0
 10
3.297700
 20
1.292537
 30
0.0
 10
3.189497
 20
1.155836
 30
0.0
 10
3.188449
 20
1.156112
 30
0.0
 10
3.187127
 20
1.156994
 30
0.0
 10
3.054388
 20
1.029554
 30
0.0
 10
2.906268
 20
0.921796
 30
0.0
 10
2.744925
 20
0.835078
 30
0.0
 10
2.572521
 20
0.770757
 30
0.0
 10
2.571309
 20
0.771529
 30
0.0
 10
2.515801
 20
0.807964
 30
0.0
 10
2.460735
 20
0.848093
 30
0.0
 10
2.410519
 20
0.888607
 30
0.0
 10
2.409968
 20
0.889103
 30
0.0
 10
2.408314
 20
0.890426
 30
0.0
 10
2.407818
 20
0.890867
 30
0.0
 10
2.358264
 20
0.935240
 30
0.0
 10
2.321498
 20
0.971565
 30
0.0
 10
2.300827
 20
0.992952
 30
0.0
 10
2.266211
 20
1.030710
 30
0.0
 10
2.240194
 20
1.062019
 30
0.0
 10
2.202711
 20
1.109810
 30
0.0
 10
2.184796
 20
1.133567
 30
0.0
 10
2.168260
 20
1.157931
 30
0.0
 10
2.119367
 20
1.234770
 30
0.0
 10
2.114351
 20
1.242983
 30
0.0
 10
2.108288
 20
1.254063
 30
0.0
 10
2.031381
 20
1.411175
 30
0.0
 10
1.975620
 20
1.576212
 30
0.0
 10
1.941572
 20
1.747055
 30
0.0
 10
1.929804
 20
1.921585
 30
0.0
 10
1.932781
 20
1.980730
 30
0.0
 10
1.932836
 20
1.984533
 30
0.0
 10
1.933387
 20
1.993573
 30
0.0
 10
1.943309
 20
2.101005
 30
0.0
 10
1.944742
 20
2.113463
 30
0.0
 10
1.949042
 20
2.139811
 30
0.0
 10
1.950144
 20
2.146315
 30
0.0
 10
1.964806
 20
2.221611
 30
0.0
 10
1.969602
 20
2.243329
 30
0.0
 10
1.975776
 20
2.266425
 30
0.0
 10
1.984760
 20
2.299608
 30
0.0
 10
1.998651
 20
2.344036
 30
0.0
 10
2.007470
 20
2.371101
 30
0.0
 10
2.017888
 20
2.398882
 30
0.0
 10
2.031118
 20
2.433719
 30
0.0
 10
2.032771
 20
2.437467
 30
0.0
 10
2.043740
 20
2.462657
 30
0.0
 10
2.048812
 20
2.474233
 30
0.0
 10
2.058072
 20
2.495455
 30
0.0
 10
2.058348
 20
2.495951
 30
0.0
 10
2.082381
 20
2.544237
 30
0.0
 10
2.088830
 20
2.557246
 30
0.0
 10
2.089216
 20
2.557963
 30
0.0
 10
2.093240
 20
2.565073
 30
0.0
 10
2.098752
 20
2.574940
 30
0.0
 10
2.123115
 20
2.618155
 30
0.0
 10
2.152661
 20
2.664953
 30
0.0
 10
2.169142
 20
2.689593
 30
0.0
 10
2.169748
 20
2.690530
 30
0.0
 10
2.171953
 20
2.693617
 30
0.0
 10
2.280157
 20
2.830318
 30
0.0
 10
2.281204
 20
2.829987
 30
0.0
 10
2.282527
 20
2.829161
 30
0.0
 10
2.415277
 20
2.956605
 30
0.0
 10
2.563411
 20
3.064365
 30
0.0
 10
2.724768
 20
3.151081
 30
0.0
 10
2.897187
 20
3.215397
 30
0.0
 10
2.897187
 20
3.215397
 30
0.0
  0
ENDSEC
  0
SECTION
  2
OBJECTS
  0
DICTIONARY
  5
C
330
0
100
AcDbDictionary
  3
ACAD_GROUP
350
D
  3
ACAD_MLINESTYLE
350
17
  0
DICTIONARY
  5
D
330
C
100
AcDbDictionary
  0
DICTIONARY
  5
1A
330
C
100
AcDbDictionary
  0
DICTIONARY
  5
17
330
C
100
AcDbDictionary
  3
STANDARD
350
18
  0
DICTIONARY
  5
19
330
C
100
AcDbDictionary
  0
ENDSEC
  0
EOF
