  0
SECTION
  2
HEADER
  9
$ACADVER
  1
AC1014
  9
$HANDSEED
  5
FFFF
  9
$MEASUREMENT
 70
     1
  0
ENDSEC
  0
SECTION
  2
TABLES
  0
TABLE
  2
VPORT
  5
8
330
0
100
AcDbSymbolTable
 70
     4
  0
VPORT
  5
2E
330
8
100
AcDbSymbolTableRecord
100
AcDbViewportTableRecord
  2
*ACTIVE
 70
     0
 10
0.0
 20
0.0
 11
1.0
 21
1.0
 12
210.0
 22
148.5
 13
0.0
 23
0.0
 14
10.0
 24
10.0
 15
10.0
 25
10.0
 16
0.0
 26
0.0
 36
1.0
 17
0.0
 27
0.0
 37
0.0
 40
341.0
 41
1.24
 42
50.0
 43
0.0
 44
0.0
 50
0.0
 51
0.0
 71
     0
 72
   100
 73
     1
 74
     3
 75
     0
 76
     0
 77
     0
 78
     0
  0
ENDTAB
  0
TABLE
  2
LTYPE
  5
5
330
0
100
AcDbSymbolTable
 70
     1
  0
LTYPE
  5
14
330
5
100
AcDbSymbolTableRecord
100
AcDbLinetypeTableRecord
  2
BYBLOCK
 70
     0
  3

 72
    65
 73
     0
 40
0.0
  0
LTYPE
  5
15
330
5
100
AcDbSymbolTableRecord
100
AcDbLinetypeTableRecord
  2
BYLAYER
 70
     0
  3

 72
    65
 73
     0
 40
0.0
  0
LTYPE
  5
16
330
5
100
AcDbSymbolTableRecord
100
AcDbLinetypeTableRecord
  2
CONTINUOUS
 70
     0
  3
Solid line
 72
    65
 73
     0
 40
0.0
  0
ENDTAB
  0
TABLE
  2
LAYER
  5
2
100
AcDbSymbolTable
 70
2
  0
LAYER
  5
50
100
AcDbSymbolTableRecord
100
AcDbLayerTableRecord
  2
0
 70
0
  6
CONTINUOUS
  0
LAYER
  5
51
100
AcDbSymbolTableRecord
100
AcDbLayerTableRecord
  2
Layer_1
 70
0
  6
CONTINUOUS
  0
ENDTAB
  0
TABLE
  2
STYLE
  5
3
330
0
100
AcDbSymbolTable
 70
     1
  0
STYLE
  5
11
330
3
100
AcDbSymbolTableRecord
100
AcDbTextStyleTableRecord
  2
STANDARD
 70
     0
 40
0.0
 41
1.0
 50
0.0
 71
     0
 42
2.5
  3
txt
  4

  0
ENDTAB
  0
TABLE
  2
VIEW
  5
6
330
0
100
AcDbSymbolTable
 70
     0
  0
ENDTAB
  0
TABLE
  2
UCS
  5
7
330
0
100
AcDbSymbolTable
 70
     0
  0
ENDTAB
  0
TABLE
  2
APPID
  5
9
330
0
100
AcDbSymbolTable
 70
     2
  0
APPID
  5
12
330
9
100
AcDbSymbolTableRecord
100
AcDbRegAppTableRecord
  2
ACAD
 70
     0
  0
ENDTAB
  0
TABLE
  2
DIMSTYLE
  5
A
330
0
100
AcDbSymbolTable
 70
     1
  0
DIMSTYLE
105
27
330
A
100
AcDbSymbolTableRecord
100
AcDbDimStyleTableRecord
  2
ISO-25
 70
     0
  3

  4

  5

  6

  7

 40
1.0
 41
2.5
 42
0.625
 43
3.75
 44
1.25
 45
0.0
 46
0.0
 47
0.0
 48
0.0
140
2.5
141
2.5
142
0.0
143
0.03937007874016
144
1.0
145
0.0
146
1.0
147
0.625
 71
     0
 72
     0
 73
     0
 74
     0
 75
     0
 76
     0
 77
     1
 78
     8
170
     0
171
     3
172
     1
173
     0
174
     0
175
     0
176
     0
177
     0
178
     0
270
     2
271
     2
272
     2
273
     2
274
     3
340
11
275
     0
280
     0
281
     0
282
     0
283
     0
284
     8
285
     0
286
     0
287
     3
288
     0
  0
ENDTAB
  0
TABLE
  2
BLOCK_RECORD
  5
1
330
0
100
AcDbSymbolTable
 70
     1
  0
BLOCK_RECORD
  5
1F
330
1
100
AcDbSymbolTableRecord
100
AcDbBlockTableRecord
  2
*MODEL_SPACE
  0
BLOCK_RECORD
  5
1B
330
1
100
AcDbSymbolTableRecord
100
AcDbBlockTableRecord
  2
*PAPER_SPACE
  0
ENDTAB
  0
ENDSEC
  0
SECTION
  2
BLOCKS
  0
BLOCK
  5
20
330
1F
100
AcDbEntity
  8
0
100
AcDbBlockBegin
  2
*MODEL_SPACE
 70
     0
 10
0.0
 20
0.0
 30
0.0
  3
*MODEL_SPACE
  1

  0
ENDBLK
  5
21
330
1F
100
AcDbEntity
  8
0
100
AcDbBlockEnd
  0
BLOCK
  5
1C
330
1B
100
AcDbEntity
 67
     1
  8
0
100
AcDbBlockBegin
  2
*PAPER_SPACE
  1

  0
ENDBLK
  5
1D
330
1B
100
AcDbEntity
 67
     1
  8
0
100
AcDbBlockEnd
  0
ENDSEC
  0
SECTION
  2
ENTITIES
  0
LWPOLYLINE
  5
100
100
AcDbEntity
  8
Layer_1
 62
7
100
AcDbPolyline
 90
8
 70
1
 10
10.000001
 20
8.000002
 30
0.0
 10
10.000001
 20
6.999987
 30
0.0
 10
9.971669
 20
6.999987
 30
0.0
 10
9.971669
 20
7.971616
 30
0.0
 10
8.999986
 20
7.971616
 30
0.0
 10
8.999986
 20
8.000002
 30
0.0
 10
10.000001
 20
8.000002
 30
0.0
 10
10.000001
 20
8.000002
 30
0.0
  0
LWPOLYLINE
  5
101
100
AcDbEntity
  8
Layer_1
 62
7
100
AcDbPolyline
 90
9
 70
1
 10
1.000015
 20
8.000002
 30
0.0
 10
1.000015
 20
7.971616
 30
0.0
 10
0.028332
 20
7.971616
 30
0.0
 10
0.028332
 20
6.999987
 30
0.0
 10
0.000000
 20
6.999987
 30
0.0
 10
0.000000
 20
7.985780
 30
0.0
 10
0.000000
 20
8.000002
 30
0.0
 10
1.000015
 20
8.000002
 30
0.0
 10
1.000015
 20
8.000002
 30
0.0
  0
LWPOLYLINE
  5
102
100
AcDbEntity
  8
Layer_1
 62
7
100
AcDbPolyline
 90
8
 70
1
 10
9.999992
 20
0.799979
 30
0.0
 10
9.999992
 20
0.000000
 30
0.0
 10
8.999977
 20
0.000000
 30
0.0
 10
8.999977
 20
0.028333
 30
0.0
 10
9.971660
 20
0.028333
 30
0.0
 10
9.971660
 20
0.799979
 30
0.0
 10
9.999992
 20
0.799979
 30
0.0
 10
9.999992
 20
0.799979
 30
0.0
  0
LWPOLYLINE
  5
103
100
AcDbEntity
  8
Layer_1
 62
7
100
AcDbPolyline
 90
8
 70
1
 10
0.028332
 20
0.799979
 30
0.0
 10
0.028332
 20
0.028333
 30
0.0
 10
1.000015
 20
0.028333
 30
0.0
 10
1.000015
 20
0.000000
 30
0.0
 10
0.000000
 20
0.000000
 30
0.0
 10
0.000000
 20
0.799979
 30
0.0
 10
0.028332
 20
0.799979
 30
0.0
 10
0.028332
 20
0.799979
 30
0.0
  0
LWPOLYLINE
  5
104
100
AcDbEntity
  8
Layer_1
 62
7
100
AcDbPolyline
 90
34
 70
0
 10
8.213220
 20
3.809857
 30
0.0
 10
8.210845
 20
3.834362
 30
0.0
 10
8.203801
 20
3.857712
 30
0.0
 10
8.192358
 20
3.879249
 30
0.0
 10
8.176786
 20
3.898319
 30
0.0
 10
8.157780
 20
3.913968
 30
0.0
 10
8.136288
 20
3.925497
 30
0.0
 10
8.112967
 20
3.932635
 30
0.0
 10
8.088472
 20
3.935109
 30
0.0
 10
8.063967
 20
3.932734
 30
0.0
 10
8.040618
 20
3.925690
 30
0.0
 10
8.019080
 20
3.914247
 30
0.0
 10
8.000010
 20
3.898675
 30
0.0
 10
7.984362
 20
3.879669
 30
0.0
 10
7.972832
 20
3.858177
 30
0.0
 10
7.965694
 20
3.834856
 30
0.0
 10
7.963220
 20
3.810361
 30
0.0
 10
7.965595
 20
3.785856
 30
0.0
 10
7.972639
 20
3.762506
 30
0.0
 10
7.984082
 20
3.740969
 30
0.0
 10
7.999654
 20
3.721899
 30
0.0
 10
8.018661
 20
3.706250
 30
0.0
 10
8.040152
 20
3.694721
 30
0.0
 10
8.063473
 20
3.687583
 30
0.0
 10
8.087968
 20
3.685109
 30
0.0
 10
8.112473
 20
3.687484
 30
0.0
 10
8.135823
 20
3.694528
 30
0.0
 10
8.157360
 20
3.705971
 30
0.0
 10
8.176430
 20
3.721543
 30
0.0
 10
8.192079
 20
3.740550
 30
0.0
 10
8.203608
 20
3.762041
 30
0.0
 10
8.210747
 20
3.785362
 30
0.0
 10
8.213220
 20
3.809857
 30
0.0
 10
8.213220
 20
3.809857
 30
0.0
  0
LWPOLYLINE
  5
105
100
AcDbEntity
  8
Layer_1
 62
7
100
AcDbPolyline
 90
34
 70
0
 10
8.065446
 20
1.957850
 30
0.0
 10
8.067820
 20
1.933345
 30
0.0
 10
8.074864
 20
1.909995
 30
0.0
 10
8.086307
 20
1.888457
 30
0.0
 10
8.101879
 20
1.869388
 30
0.0
 10
8.120886
 20
1.853739
 30
0.0
 10
8.142377
 20
1.842209
 30
0.0
 10
8.165698
 20
1.835071
 30
0.0
 10
8.190194
 20
1.832598
 30
0.0
 10
8.214699
 20
1.834973
 30
0.0
 10
8.238048
 20
1.842017
 30
0.0
 10
8.259586
 20
1.853460
 30
0.0
 10
8.278656
 20
1.869031
 30
0.0
 10
8.294304
 20
1.888038
 30
0.0
 10
8.305834
 20
1.909530
 30
0.0
 10
8.312972
 20
1.932851
 30
0.0
 10
8.315445
 20
1.957346
 30
0.0
 10
8.313071
 20
1.981851
 30
0.0
 10
8.306027
 20
2.005200
 30
0.0
 10
8.294584
 20
2.026738
 30
0.0
 10
8.279012
 20
2.045808
 30
0.0
 10
8.260005
 20
2.061456
 30
0.0
 10
8.238514
 20
2.072986
 30
0.0
 10
8.215193
 20
2.080124
 30
0.0
 10
8.190697
 20
2.082597
 30
0.0
 10
8.166192
 20
2.080223
 30
0.0
 10
8.142843
 20
2.073179
 30
0.0
 10
8.121305
 20
2.061736
 30
0.0
 10
8.102235
 20
2.046164
 30
0.0
 10
8.086587
 20
2.027157
 30
0.0
 10
8.075057
 20
2.005666
 30
0.0
 10
8.067919
 20
1.982345
 30
0.0
 10
8.065446
 20
1.957850
 30
0.0
 10
8.065446
 20
1.957850
 30
0.0
  0
LWPOLYLINE
  5
106
100
AcDbEntity
  8
Layer_1
 62
7
100
AcDbPolyline
 90
34
 70
0
 10
1.808834
 20
2.066953
 30
0.0
 10
1.784329
 20
2.064579
 30
0.0
 10
1.760980
 20
2.057535
 30
0.0
 10
1.739442
 20
2.046092
 30
0.0
 10
1.720372
 20
2.030520
 30
0.0
 10
1.704724
 20
2.011513
 30
0.0
 10
1.693194
 20
1.990022
 30
0.0
 10
1.686056
 20
1.966701
 30
0.0
 10
1.683583
 20
1.942205
 30
0.0
 10
1.685957
 20
1.917700
 30
0.0
 10
1.693001
 20
1.894351
 30
0.0
 10
1.704444
 20
1.872813
 30
0.0
 10
1.720016
 20
1.853743
 30
0.0
 10
1.739023
 20
1.838095
 30
0.0
 10
1.760514
 20
1.826565
 30
0.0
 10
1.783835
 20
1.819427
 30
0.0
 10
1.808330
 20
1.816954
 30
0.0
 10
1.832835
 20
1.819328
 30
0.0
 10
1.856185
 20
1.826372
 30
0.0
 10
1.877723
 20
1.837815
 30
0.0
 10
1.896792
 20
1.853387
 30
0.0
 10
1.912441
 20
1.872394
 30
0.0
 10
1.923971
 20
1.893885
 30
0.0
 10
1.931109
 20
1.917206
 30
0.0
 10
1.933582
 20
1.941702
 30
0.0
 10
1.931207
 20
1.966207
 30
0.0
 10
1.924163
 20
1.989556
 30
0.0
 10
1.912720
 20
2.011094
 30
0.0
 10
1.897149
 20
2.030164
 30
0.0
 10
1.878142
 20
2.045812
 30
0.0
 10
1.856650
 20
2.057342
 30
0.0
 10
1.833329
 20
2.064480
 30
0.0
 10
1.808834
 20
2.066953
 30
0.0
 10
1.808834
 20
2.066953
 30
0.0
  0
LWPOLYLINE
  5
107
100
AcDbEntity
  8
Layer_1
 62
7
100
AcDbPolyline
 90
34
 70
0
 10
3.660844
 20
1.919178
 30
0.0
 10
3.685349
 20
1.921553
 30
0.0
 10
3.708698
 20
1.928597
 30
0.0
 10
3.730236
 20
1.940040
 30
0.0
 10
3.749306
 20
1.955612
 30
0.0
 10
3.764954
 20
1.974618
 30
0.0
 10
3.776484
 20
1.996110
 30
0.0
 10
3.783622
 20
2.019431
 30
0.0
 10
3.786095
 20
2.043926
 30
0.0
 10
3.783721
 20
2.068431
 30
0.0
 10
3.776677
 20
2.091780
 30
0.0
 10
3.765234
 20
2.113318
 30
0.0
 10
3.749662
 20
2.132388
 30
0.0
 10
3.730655
 20
2.148036
 30
0.0
 10
3.709164
 20
2.159566
 30
0.0
 10
3.685843
 20
2.166704
 30
0.0
 10
3.661347
 20
2.169178
 30
0.0
 10
3.636842
 20
2.166803
 30
0.0
 10
3.613493
 20
2.159759
 30
0.0
 10
3.591955
 20
2.148316
 30
0.0
 10
3.572885
 20
2.132744
 30
0.0
 10
3.557237
 20
2.113737
 30
0.0
 10
3.545707
 20
2.092246
 30
0.0
 10
3.538569
 20
2.068925
 30
0.0
 10
3.536096
 20
2.044430
 30
0.0
 10
3.538470
 20
2.019925
 30
0.0
 10
3.545514
 20
1.996575
 30
0.0
 10
3.556957
 20
1.975037
 30
0.0
 10
3.572529
 20
1.955968
 30
0.0
 10
3.591536
 20
1.940319
 30
0.0
 10
3.613027
 20
1.928789
 30
0.0
 10
3.636348
 20
1.921651
 30
0.0
 10
3.660844
 20
1.919178
 30
0.0
 10
3.660844
 20
1.919178
 30
0.0
  0
LWPOLYLINE
  5
108
100
AcDbEntity
  8
Layer_1
 62
7
100
AcDbPolyline
 90
34
 70
0
 10
3.275607
 20
5.369691
 30
0.0
 10
3.251102
 20
5.367317
 30
0.0
 10
3.227753
 20
5.360273
 30
0.0
 10
3.206215
 20
5.348830
 30
0.0
 10
3.187145
 20
5.333258
 30
0.0
 10
3.171497
 20
5.314251
 30
0.0
 10
3.159967
 20
5.292760
 30
0.0
 10
3.152829
 20
5.269439
 30
0.0
 10
3.150355
 20
5.244944
 30
0.0
 10
3.152730
 20
5.220439
 30
0.0
 10
3.159774
 20
5.197089
 30
0.0
 10
3.171217
 20
5.175551
 30
0.0
 10
3.186789
 20
5.156482
 30
0.0
 10
3.205796
 20
5.140833
 30
0.0
 10
3.227287
 20
5.129303
 30
0.0
 10
3.250608
 20
5.122165
 30
0.0
 10
3.275103
 20
5.119692
 30
0.0
 10
3.299608
 20
5.122067
 30
0.0
 10
3.322958
 20
5.129111
 30
0.0
 10
3.344496
 20
5.140554
 30
0.0
 10
3.363565
 20
5.156125
 30
0.0
 10
3.379214
 20
5.175132
 30
0.0
 10
3.390744
 20
5.196624
 30
0.0
 10
3.397882
 20
5.219945
 30
0.0
 10
3.400355
 20
5.244440
 30
0.0
 10
3.397980
 20
5.268945
 30
0.0
 10
3.390936
 20
5.292294
 30
0.0
 10
3.379493
 20
5.313832
 30
0.0
 10
3.363922
 20
5.332902
 30
0.0
 10
3.344915
 20
5.348550
 30
0.0
 10
3.323423
 20
5.360080
 30
0.0
 10
3.300102
 20
5.367218
 30
0.0
 10
3.275607
 20
5.369691
 30
0.0
 10
3.275607
 20
5.369691
 30
0.0
  0
LWPOLYLINE
  5
109
100
AcDbEntity
  8
Layer_1
 62
7
100
AcDbPolyline
 90
34
 70
0
 10
5.127620
 20
5.221915
 30
0.0
 10
5.152125
 20
5.224290
 30
0.0
 10
5.175475
 20
5.231334
 30
0.0
 10
5.197013
 20
5.242777
 30
0.0
 10
5.216082
 20
5.258349
 30
0.0
 10
5.231731
 20
5.277355
 30
0.0
 10
5.243260
 20
5.298847
 30
0.0
 10
5.250399
 20
5.322168
 30
0.0
 10
5.252872
 20
5.346663
 30
0.0
 10
5.250497
 20
5.371168
 30
0.0
 10
5.243453
 20
5.394518
 30
0.0
 10
5.232010
 20
5.416055
 30
0.0
 10
5.216438
 20
5.435125
 30
0.0
 10
5.197432
 20
5.450773
 30
0.0
 10
5.175940
 20
5.462303
 30
0.0
 10
5.152619
 20
5.469441
 30
0.0
 10
5.128124
 20
5.471915
 30
0.0
 10
5.103619
 20
5.469540
 30
0.0
 10
5.080270
 20
5.462496
 30
0.0
 10
5.058732
 20
5.451053
 30
0.0
 10
5.039662
 20
5.435481
 30
0.0
 10
5.024014
 20
5.416474
 30
0.0
 10
5.012484
 20
5.394983
 30
0.0
 10
5.005346
 20
5.371662
 30
0.0
 10
5.002872
 20
5.347167
 30
0.0
 10
5.005247
 20
5.322662
 30
0.0
 10
5.012291
 20
5.299312
 30
0.0
 10
5.023734
 20
5.277775
 30
0.0
 10
5.039306
 20
5.258705
 30
0.0
 10
5.058313
 20
5.243056
 30
0.0
 10
5.079804
 20
5.231527
 30
0.0
 10
5.103125
 20
5.224389
 30
0.0
 10
5.127620
 20
5.221915
 30
0.0
 10
5.127620
 20
5.221915
 30
0.0
  0
ENDSEC
  0
SECTION
  2
OBJECTS
  0
DICTIONARY
  5
C
330
0
100
AcDbDictionary
  3
ACAD_GROUP
350
D
  3
ACAD_MLINESTYLE
350
17
  0
DICTIONARY
  5
D
330
C
100
AcDbDictionary
  0
DICTIONARY
  5
1A
330
C
100
AcDbDictionary
  0
DICTIONARY
  5
17
330
C
100
AcDbDictionary
  3
STANDARD
350
18
  0
DICTIONARY
  5
19
330
C
100
AcDbDictionary
  0
ENDSEC
  0
EOF
