  0
SECTION
  2
HEADER
  9
$ACADVER
  1
AC1014
  9
$HANDSEED
  5
FFFF
  9
$MEASUREMENT
 70
     1
  0
ENDSEC
  0
SECTION
  2
TABLES
  0
TABLE
  2
VPORT
  5
8
330
0
100
AcDbSymbolTable
 70
     4
  0
VPORT
  5
2E
330
8
100
AcDbSymbolTableRecord
100
AcDbViewportTableRecord
  2
*ACTIVE
 70
     0
 10
0.0
 20
0.0
 11
1.0
 21
1.0
 12
210.0
 22
148.5
 13
0.0
 23
0.0
 14
10.0
 24
10.0
 15
10.0
 25
10.0
 16
0.0
 26
0.0
 36
1.0
 17
0.0
 27
0.0
 37
0.0
 40
341.0
 41
1.24
 42
50.0
 43
0.0
 44
0.0
 50
0.0
 51
0.0
 71
     0
 72
   100
 73
     1
 74
     3
 75
     0
 76
     0
 77
     0
 78
     0
  0
ENDTAB
  0
TABLE
  2
LTYPE
  5
5
330
0
100
AcDbSymbolTable
 70
     1
  0
LTYPE
  5
14
330
5
100
AcDbSymbolTableRecord
100
AcDbLinetypeTableRecord
  2
BYBLOCK
 70
     0
  3

 72
    65
 73
     0
 40
0.0
  0
LTYPE
  5
15
330
5
100
AcDbSymbolTableRecord
100
AcDbLinetypeTableRecord
  2
BYLAYER
 70
     0
  3

 72
    65
 73
     0
 40
0.0
  0
LTYPE
  5
16
330
5
100
AcDbSymbolTableRecord
100
AcDbLinetypeTableRecord
  2
CONTINUOUS
 70
     0
  3
Solid line
 72
    65
 73
     0
 40
0.0
  0
ENDTAB
  0
TABLE
  2
LAYER
  5
2
100
AcDbSymbolTable
 70
2
  0
LAYER
  5
50
100
AcDbSymbolTableRecord
100
AcDbLayerTableRecord
  2
0
 70
0
  6
CONTINUOUS
  0
LAYER
  5
51
100
AcDbSymbolTableRecord
100
AcDbLayerTableRecord
  2
Layer_1
 70
0
  6
CONTINUOUS
  0
ENDTAB
  0
TABLE
  2
STYLE
  5
3
330
0
100
AcDbSymbolTable
 70
     1
  0
STYLE
  5
11
330
3
100
AcDbSymbolTableRecord
100
AcDbTextStyleTableRecord
  2
STANDARD
 70
     0
 40
0.0
 41
1.0
 50
0.0
 71
     0
 42
2.5
  3
txt
  4

  0
ENDTAB
  0
TABLE
  2
VIEW
  5
6
330
0
100
AcDbSymbolTable
 70
     0
  0
ENDTAB
  0
TABLE
  2
UCS
  5
7
330
0
100
AcDbSymbolTable
 70
     0
  0
ENDTAB
  0
TABLE
  2
APPID
  5
9
330
0
100
AcDbSymbolTable
 70
     2
  0
APPID
  5
12
330
9
100
AcDbSymbolTableRecord
100
AcDbRegAppTableRecord
  2
ACAD
 70
     0
  0
ENDTAB
  0
TABLE
  2
DIMSTYLE
  5
A
330
0
100
AcDbSymbolTable
 70
     1
  0
DIMSTYLE
105
27
330
A
100
AcDbSymbolTableRecord
100
AcDbDimStyleTableRecord
  2
ISO-25
 70
     0
  3

  4

  5

  6

  7

 40
1.0
 41
2.5
 42
0.625
 43
3.75
 44
1.25
 45
0.0
 46
0.0
 47
0.0
 48
0.0
140
2.5
141
2.5
142
0.0
143
0.03937007874016
144
1.0
145
0.0
146
1.0
147
0.625
 71
     0
 72
     0
 73
     0
 74
     0
 75
     0
 76
     0
 77
     1
 78
     8
170
     0
171
     3
172
     1
173
     0
174
     0
175
     0
176
     0
177
     0
178
     0
270
     2
271
     2
272
     2
273
     2
274
     3
340
11
275
     0
280
     0
281
     0
282
     0
283
     0
284
     8
285
     0
286
     0
287
     3
288
     0
  0
ENDTAB
  0
TABLE
  2
BLOCK_RECORD
  5
1
330
0
100
AcDbSymbolTable
 70
     1
  0
BLOCK_RECORD
  5
1F
330
1
100
AcDbSymbolTableRecord
100
AcDbBlockTableRecord
  2
*MODEL_SPACE
  0
BLOCK_RECORD
  5
1B
330
1
100
AcDbSymbolTableRecord
100
AcDbBlockTableRecord
  2
*PAPER_SPACE
  0
ENDTAB
  0
ENDSEC
  0
SECTION
  2
BLOCKS
  0
BLOCK
  5
20
330
1F
100
AcDbEntity
  8
0
100
AcDbBlockBegin
  2
*MODEL_SPACE
 70
     0
 10
0.0
 20
0.0
 30
0.0
  3
*MODEL_SPACE
  1

  0
ENDBLK
  5
21
330
1F
100
AcDbEntity
  8
0
100
AcDbBlockEnd
  0
BLOCK
  5
1C
330
1B
100
AcDbEntity
 67
     1
  8
0
100
AcDbBlockBegin
  2
*PAPER_SPACE
  1

  0
ENDBLK
  5
1D
330
1B
100
AcDbEntity
 67
     1
  8
0
100
AcDbBlockEnd
  0
ENDSEC
  0
SECTION
  2
ENTITIES
  0
LWPOLYLINE
  5
100
100
AcDbEntity
  8
Layer_1
 62
7
100
AcDbPolyline
 90
8
 70
1
 10
10.000001
 20
0.000000
 30
0.0
 10
10.000001
 20
1.000015
 30
0.0
 10
9.971669
 20
1.000015
 30
0.0
 10
9.971669
 20
0.028386
 30
0.0
 10
8.999986
 20
0.028386
 30
0.0
 10
8.999986
 20
0.000000
 30
0.0
 10
10.000001
 20
0.000000
 30
0.0
 10
10.000001
 20
0.000000
 30
0.0
  0
LWPOLYLINE
  5
101
100
AcDbEntity
  8
Layer_1
 62
7
100
AcDbPolyline
 90
9
 70
1
 10
1.000015
 20
0.000000
 30
0.0
 10
1.000015
 20
0.028386
 30
0.0
 10
0.028332
 20
0.028386
 30
0.0
 10
0.028332
 20
1.000015
 30
0.0
 10
0.000000
 20
1.000015
 30
0.0
 10
0.000000
 20
0.014221
 30
0.0
 10
0.000000
 20
0.000000
 30
0.0
 10
1.000015
 20
0.000000
 30
0.0
 10
1.000015
 20
0.000000
 30
0.0
  0
LWPOLYLINE
  5
102
100
AcDbEntity
  8
Layer_1
 62
7
100
AcDbPolyline
 90
8
 70
1
 10
9.999992
 20
7.200023
 30
0.0
 10
9.999992
 20
8.000001
 30
0.0
 10
8.999977
 20
8.000001
 30
0.0
 10
8.999977
 20
7.971669
 30
0.0
 10
9.971660
 20
7.971669
 30
0.0
 10
9.971660
 20
7.200023
 30
0.0
 10
9.999992
 20
7.200023
 30
0.0
 10
9.999992
 20
7.200023
 30
0.0
  0
LWPOLYLINE
  5
103
100
AcDbEntity
  8
Layer_1
 62
7
100
AcDbPolyline
 90
8
 70
1
 10
0.028332
 20
7.200023
 30
0.0
 10
0.028332
 20
7.971669
 30
0.0
 10
1.000015
 20
7.971669
 30
0.0
 10
1.000015
 20
8.000001
 30
0.0
 10
0.000000
 20
8.000001
 30
0.0
 10
0.000000
 20
7.200023
 30
0.0
 10
0.028332
 20
7.200023
 30
0.0
 10
0.028332
 20
7.200023
 30
0.0
  0
LWPOLYLINE
  5
104
100
AcDbEntity
  8
Layer_1
 62
7
100
AcDbPolyline
 90
157
 70
0
 10
5.091797
 20
6.481349
 30
0.0
 10
5.056960
 20
6.380918
 30
0.0
 10
5.058614
 20
6.380201
 30
0.0
 10
5.096288
 20
6.357171
 30
0.0
 10
5.127662
 20
6.327991
 30
0.0
 10
5.169870
 20
6.255862
 30
0.0
 10
5.181958
 20
6.173170
 30
0.0
 10
5.175681
 20
6.130786
 30
0.0
 10
5.160643
 20
6.089270
 30
0.0
 10
5.109541
 20
6.021244
 30
0.0
 10
5.036295
 20
5.977955
 30
0.0
 10
4.952058
 20
5.965995
 30
0.0
 10
4.869657
 20
5.987185
 30
0.0
 10
4.839340
 20
6.005209
 30
0.0
 10
4.699221
 20
5.859689
 30
0.0
 10
4.701095
 20
5.852027
 30
0.0
 10
4.701591
 20
5.845302
 30
0.0
 10
4.701261
 20
5.839349
 30
0.0
 10
4.700489
 20
5.833726
 30
0.0
 10
4.697733
 20
5.823308
 30
0.0
 10
4.693985
 20
5.813717
 30
0.0
 10
4.689410
 20
5.804898
 30
0.0
 10
4.684118
 20
5.796354
 30
0.0
 10
4.671881
 20
5.780699
 30
0.0
 10
4.657770
 20
5.766313
 30
0.0
 10
4.642005
 20
5.753304
 30
0.0
 10
4.624697
 20
5.741398
 30
0.0
 10
4.606011
 20
5.730759
 30
0.0
 10
4.593278
 20
5.715601
 30
0.0
 10
4.588537
 20
5.693938
 30
0.0
 10
4.585506
 20
5.671393
 30
0.0
 10
4.584072
 20
5.647857
 30
0.0
 10
4.584072
 20
5.623548
 30
0.0
 10
4.585726
 20
5.598633
 30
0.0
 10
4.587931
 20
5.579561
 30
0.0
 10
4.655675
 20
5.542409
 30
0.0
 10
4.726892
 20
5.512754
 30
0.0
 10
4.743263
 20
5.522896
 30
0.0
 10
4.763713
 20
5.537173
 30
0.0
 10
4.782730
 20
5.552276
 30
0.0
 10
4.800149
 20
5.568096
 30
0.0
 10
4.815969
 20
5.584577
 30
0.0
 10
4.829969
 20
5.601720
 30
0.0
 10
4.833883
 20
5.621178
 30
0.0
 10
4.830465
 20
5.642400
 30
0.0
 10
4.828977
 20
5.663401
 30
0.0
 10
4.829253
 20
5.683796
 30
0.0
 10
4.831513
 20
5.703860
 30
0.0
 10
4.836198
 20
5.723153
 30
0.0
 10
4.839506
 20
5.732633
 30
0.0
 10
4.843585
 20
5.741729
 30
0.0
 10
4.848711
 20
5.750658
 30
0.0
 10
4.855105
 20
5.759312
 30
0.0
 10
4.858963
 20
5.763446
 30
0.0
 10
4.863373
 20
5.767470
 30
0.0
 10
4.868885
 20
5.771329
 30
0.0
 10
4.876161
 20
5.774801
 30
0.0
 10
4.893525
 20
5.776565
 30
0.0
 10
4.994893
 20
5.771715
 30
0.0
 10
5.094388
 20
5.791724
 30
0.0
 10
5.111806
 20
5.792716
 30
0.0
 10
5.119468
 20
5.790291
 30
0.0
 10
5.125531
 20
5.787424
 30
0.0
 10
5.130657
 20
5.784117
 30
0.0
 10
5.135177
 20
5.780644
 30
0.0
 10
5.142729
 20
5.773148
 30
0.0
 10
5.149123
 20
5.764990
 30
0.0
 10
5.154635
 20
5.756501
 30
0.0
 10
5.159376
 20
5.747682
 30
0.0
 10
5.166817
 20
5.729216
 30
0.0
 10
5.172164
 20
5.709923
 30
0.0
 10
5.175471
 20
5.689749
 30
0.0
 10
5.177070
 20
5.668803
 30
0.0
 10
5.177070
 20
5.647305
 30
0.0
 10
5.183794
 20
5.628564
 30
0.0
 10
5.200221
 20
5.613791
 30
0.0
 10
5.218356
 20
5.599791
 30
0.0
 10
5.237924
 20
5.586837
 30
0.0
 10
5.258980
 20
5.574765
 30
0.0
 10
5.281470
 20
5.563796
 30
0.0
 10
5.299054
 20
5.556189
 30
0.0
 10
5.365089
 20
5.596097
 30
0.0
 10
5.426439
 20
5.643061
 30
0.0
 10
5.425833
 20
5.662298
 30
0.0
 10
5.423683
 20
5.687213
 30
0.0
 10
5.420100
 20
5.711191
 30
0.0
 10
5.415140
 20
5.734232
 30
0.0
 10
5.408746
 20
5.756115
 30
0.0
 10
5.400973
 20
5.776731
 30
0.0
 10
5.385925
 20
5.789905
 30
0.0
 10
5.365861
 20
5.797567
 30
0.0
 10
5.346954
 20
5.806772
 30
0.0
 10
5.329426
 20
5.817245
 30
0.0
 10
5.313275
 20
5.829206
 30
0.0
 10
5.298778
 20
5.842932
 30
0.0
 10
5.292219
 20
5.850428
 30
0.0
 10
5.286376
 20
5.858641
 30
0.0
 10
5.281139
 20
5.867461
 30
0.0
 10
5.276950
 20
5.877327
 30
0.0
 10
5.275241
 20
5.882840
 30
0.0
 10
5.274083
 20
5.888738
 30
0.0
 10
5.273643
 20
5.895407
 30
0.0
 10
5.274249
 20
5.903510
 30
0.0
 10
5.281415
 20
5.919385
 30
0.0
 10
5.336316
 20
6.004713
 30
0.0
 10
5.368672
 20
6.100845
 30
0.0
 10
5.376610
 20
6.116445
 30
0.0
 10
5.382563
 20
6.121957
 30
0.0
 10
5.388020
 20
6.125650
 30
0.0
 10
5.393477
 20
6.128461
 30
0.0
 10
5.398713
 20
6.130501
 30
0.0
 10
5.409076
 20
6.133422
 30
0.0
 10
5.419274
 20
6.134965
 30
0.0
 10
5.429306
 20
6.135517
 30
0.0
 10
5.439228
 20
6.135076
 30
0.0
 10
5.459016
 20
6.132320
 30
0.0
 10
5.478419
 20
6.127193
 30
0.0
 10
5.497546
 20
6.120028
 30
0.0
 10
5.516563
 20
6.110932
 30
0.0
 10
5.535084
 20
6.100184
 30
0.0
 10
5.554707
 20
6.096546
 30
0.0
 10
5.575764
 20
6.103436
 30
0.0
 10
5.596820
 20
6.112090
 30
0.0
 10
5.617876
 20
6.122618
 30
0.0
 10
5.638878
 20
6.134800
 30
0.0
 10
5.659659
 20
6.148691
 30
0.0
 10
5.675037
 20
6.160156
 30
0.0
 10
5.673384
 20
6.237381
 30
0.0
 10
5.663407
 20
6.313945
 30
0.0
 10
5.646595
 20
6.322875
 30
0.0
 10
5.624105
 20
6.333458
 30
0.0
 10
5.601561
 20
6.342388
 30
0.0
 10
5.579126
 20
6.349498
 30
0.0
 10
5.556967
 20
6.355011
 30
0.0
 10
5.535084
 20
6.358483
 30
0.0
 10
5.516287
 20
6.352089
 30
0.0
 10
5.499586
 20
6.338640
 30
0.0
 10
5.482278
 20
6.326844
 30
0.0
 10
5.464418
 20
6.316811
 30
0.0
 10
5.445953
 20
6.308819
 30
0.0
 10
5.426881
 20
6.303141
 30
0.0
 10
5.417069
 20
6.301322
 30
0.0
 10
5.406982
 20
6.300385
 30
0.0
 10
5.396674
 20
6.300385
 30
0.0
 10
5.386146
 20
6.301598
 30
0.0
 10
5.380523
 20
6.302921
 30
0.0
 10
5.374791
 20
6.304905
 30
0.0
 10
5.368672
 20
6.307716
 30
0.0
 10
5.362113
 20
6.312291
 30
0.0
 10
5.355443
 20
6.321386
 30
0.0
 10
5.269619
 20
6.291290
 30
0.0
 10
5.242579
 20
6.349140
 30
0.0
 10
5.205133
 20
6.400157
 30
0.0
 10
5.158506
 20
6.442974
 30
0.0
 10
5.103924
 20
6.476223
 30
0.0
 10
5.091797
 20
6.481349
 30
0.0
 10
5.091797
 20
6.481349
 30
0.0
  0
LWPOLYLINE
  5
105
100
AcDbEntity
  8
Layer_1
 62
7
100
AcDbPolyline
 90
157
 70
0
 10
6.277130
 20
6.227349
 30
0.0
 10
6.242293
 20
6.126918
 30
0.0
 10
6.243947
 20
6.126201
 30
0.0
 10
6.281621
 20
6.103171
 30
0.0
 10
6.312995
 20
6.073991
 30
0.0
 10
6.355203
 20
6.001862
 30
0.0
 10
6.367291
 20
5.919170
 30
0.0
 10
6.361014
 20
5.876786
 30
0.0
 10
6.345977
 20
5.835270
 30
0.0
 10
6.294875
 20
5.767244
 30
0.0
 10
6.221629
 20
5.723955
 30
0.0
 10
6.137391
 20
5.711995
 30
0.0
 10
6.054990
 20
5.733185
 30
0.0
 10
6.024674
 20
5.751209
 30
0.0
 10
5.884554
 20
5.605689
 30
0.0
 10
5.886429
 20
5.598027
 30
0.0
 10
5.886925
 20
5.591302
 30
0.0
 10
5.886594
 20
5.585349
 30
0.0
 10
5.885822
 20
5.579726
 30
0.0
 10
5.883066
 20
5.569308
 30
0.0
 10
5.879318
 20
5.559717
 30
0.0
 10
5.874743
 20
5.550898
 30
0.0
 10
5.869451
 20
5.542354
 30
0.0
 10
5.857214
 20
5.526699
 30
0.0
 10
5.843103
 20
5.512313
 30
0.0
 10
5.827338
 20
5.499304
 30
0.0
 10
5.810030
 20
5.487398
 30
0.0
 10
5.791344
 20
5.476759
 30
0.0
 10
5.778611
 20
5.461601
 30
0.0
 10
5.773871
 20
5.439938
 30
0.0
 10
5.770839
 20
5.417393
 30
0.0
 10
5.769406
 20
5.393857
 30
0.0
 10
5.769406
 20
5.369548
 30
0.0
 10
5.771059
 20
5.344633
 30
0.0
 10
5.773264
 20
5.325561
 30
0.0
 10
5.841008
 20
5.288409
 30
0.0
 10
5.912225
 20
5.258754
 30
0.0
 10
5.928597
 20
5.268896
 30
0.0
 10
5.949047
 20
5.283173
 30
0.0
 10
5.968064
 20
5.298276
 30
0.0
 10
5.985482
 20
5.314096
 30
0.0
 10
6.001302
 20
5.330577
 30
0.0
 10
6.015303
 20
5.347720
 30
0.0
 10
6.019216
 20
5.367178
 30
0.0
 10
6.015799
 20
5.388400
 30
0.0
 10
6.014311
 20
5.409401
 30
0.0
 10
6.014586
 20
5.429796
 30
0.0
 10
6.016846
 20
5.449860
 30
0.0
 10
6.021532
 20
5.469153
 30
0.0
 10
6.024839
 20
5.478633
 30
0.0
 10
6.028918
 20
5.487729
 30
0.0
 10
6.034044
 20
5.496658
 30
0.0
 10
6.040438
 20
5.505312
 30
0.0
 10
6.044297
 20
5.509446
 30
0.0
 10
6.048706
 20
5.513470
 30
0.0
 10
6.054219
 20
5.517329
 30
0.0
 10
6.061494
 20
5.520801
 30
0.0
 10
6.078858
 20
5.522565
 30
0.0
 10
6.180227
 20
5.517715
 30
0.0
 10
6.279721
 20
5.537724
 30
0.0
 10
6.297139
 20
5.538716
 30
0.0
 10
6.304801
 20
5.536291
 30
0.0
 10
6.310864
 20
5.533424
 30
0.0
 10
6.315991
 20
5.530117
 30
0.0
 10
6.320511
 20
5.526644
 30
0.0
 10
6.328062
 20
5.519148
 30
0.0
 10
6.334456
 20
5.510990
 30
0.0
 10
6.339969
 20
5.502501
 30
0.0
 10
6.344709
 20
5.493682
 30
0.0
 10
6.352150
 20
5.475216
 30
0.0
 10
6.357497
 20
5.455923
 30
0.0
 10
6.360804
 20
5.435749
 30
0.0
 10
6.362403
 20
5.414803
 30
0.0
 10
6.362403
 20
5.393305
 30
0.0
 10
6.369128
 20
5.374564
 30
0.0
 10
6.385554
 20
5.359791
 30
0.0
 10
6.403689
 20
5.345791
 30
0.0
 10
6.423257
 20
5.332837
 30
0.0
 10
6.444314
 20
5.320765
 30
0.0
 10
6.466803
 20
5.309796
 30
0.0
 10
6.484387
 20
5.302189
 30
0.0
 10
6.550422
 20
5.342097
 30
0.0
 10
6.611773
 20
5.389061
 30
0.0
 10
6.611167
 20
5.408298
 30
0.0
 10
6.609017
 20
5.433213
 30
0.0
 10
6.605434
 20
5.457191
 30
0.0
 10
6.600473
 20
5.480232
 30
0.0
 10
6.594079
 20
5.502115
 30
0.0
 10
6.586307
 20
5.522731
 30
0.0
 10
6.571258
 20
5.535905
 30
0.0
 10
6.551194
 20
5.543567
 30
0.0
 10
6.532287
 20
5.552772
 30
0.0
 10
6.514759
 20
5.563245
 30
0.0
 10
6.498608
 20
5.575206
 30
0.0
 10
6.484111
 20
5.588932
 30
0.0
 10
6.477552
 20
5.596428
 30
0.0
 10
6.471709
 20
5.604641
 30
0.0
 10
6.466472
 20
5.613461
 30
0.0
 10
6.462283
 20
5.623327
 30
0.0
 10
6.460574
 20
5.628840
 30
0.0
 10
6.459417
 20
5.634738
 30
0.0
 10
6.458976
 20
5.641407
 30
0.0
 10
6.459582
 20
5.649510
 30
0.0
 10
6.466748
 20
5.665385
 30
0.0
 10
6.521649
 20
5.750713
 30
0.0
 10
6.554006
 20
5.846845
 30
0.0
 10
6.561943
 20
5.862445
 30
0.0
 10
6.567896
 20
5.867957
 30
0.0
 10
6.573353
 20
5.871650
 30
0.0
 10
6.578810
 20
5.874461
 30
0.0
 10
6.584047
 20
5.876501
 30
0.0
 10
6.594410
 20
5.879422
 30
0.0
 10
6.604607
 20
5.880965
 30
0.0
 10
6.614639
 20
5.881517
 30
0.0
 10
6.624561
 20
5.881131
 30
0.0
 10
6.644350
 20
5.878320
 30
0.0
 10
6.663752
 20
5.873193
 30
0.0
 10
6.682880
 20
5.866028
 30
0.0
 10
6.701897
 20
5.856932
 30
0.0
 10
6.720417
 20
5.846184
 30
0.0
 10
6.740041
 20
5.842546
 30
0.0
 10
6.761097
 20
5.849436
 30
0.0
 10
6.782153
 20
5.858090
 30
0.0
 10
6.803210
 20
5.868618
 30
0.0
 10
6.824211
 20
5.880800
 30
0.0
 10
6.844992
 20
5.894691
 30
0.0
 10
6.860371
 20
5.906156
 30
0.0
 10
6.858717
 20
5.983381
 30
0.0
 10
6.848740
 20
6.059945
 30
0.0
 10
6.831928
 20
6.068875
 30
0.0
 10
6.809439
 20
6.079458
 30
0.0
 10
6.786894
 20
6.088388
 30
0.0
 10
6.764460
 20
6.095498
 30
0.0
 10
6.742301
 20
6.101011
 30
0.0
 10
6.720417
 20
6.104483
 30
0.0
 10
6.701621
 20
6.098089
 30
0.0
 10
6.684919
 20
6.084640
 30
0.0
 10
6.667611
 20
6.072844
 30
0.0
 10
6.649751
 20
6.062811
 30
0.0
 10
6.631286
 20
6.054819
 30
0.0
 10
6.612214
 20
6.049141
 30
0.0
 10
6.602402
 20
6.047322
 30
0.0
 10
6.592315
 20
6.046385
 30
0.0
 10
6.582007
 20
6.046385
 30
0.0
 10
6.571479
 20
6.047598
 30
0.0
 10
6.565857
 20
6.048921
 30
0.0
 10
6.560124
 20
6.050905
 30
0.0
 10
6.554006
 20
6.053716
 30
0.0
 10
6.547446
 20
6.058291
 30
0.0
 10
6.540776
 20
6.067386
 30
0.0
 10
6.454952
 20
6.037290
 30
0.0
 10
6.427912
 20
6.095140
 30
0.0
 10
6.390466
 20
6.146157
 30
0.0
 10
6.343839
 20
6.188974
 30
0.0
 10
6.289257
 20
6.222223
 30
0.0
 10
6.277130
 20
6.227349
 30
0.0
 10
6.277130
 20
6.227349
 30
0.0
  0
LWPOLYLINE
  5
106
100
AcDbEntity
  8
Layer_1
 62
7
100
AcDbPolyline
 90
158
 70
0
 10
7.453203
 20
5.962545
 30
0.0
 10
7.418311
 20
5.862004
 30
0.0
 10
7.419965
 20
5.861287
 30
0.0
 10
7.457639
 20
5.838257
 30
0.0
 10
7.489013
 20
5.809077
 30
0.0
 10
7.531221
 20
5.736948
 30
0.0
 10
7.543309
 20
5.654256
 30
0.0
 10
7.537032
 20
5.611872
 30
0.0
 10
7.521994
 20
5.570356
 30
0.0
 10
7.470893
 20
5.502330
 30
0.0
 10
7.397646
 20
5.459041
 30
0.0
 10
7.313409
 20
5.447081
 30
0.0
 10
7.231008
 20
5.468271
 30
0.0
 10
7.200691
 20
5.486295
 30
0.0
 10
7.060572
 20
5.340775
 30
0.0
 10
7.062446
 20
5.333113
 30
0.0
 10
7.062943
 20
5.326388
 30
0.0
 10
7.062612
 20
5.320435
 30
0.0
 10
7.061840
 20
5.314812
 30
0.0
 10
7.059084
 20
5.304394
 30
0.0
 10
7.055336
 20
5.294803
 30
0.0
 10
7.050761
 20
5.285984
 30
0.0
 10
7.045469
 20
5.277440
 30
0.0
 10
7.033232
 20
5.261785
 30
0.0
 10
7.019121
 20
5.247399
 30
0.0
 10
7.003356
 20
5.234390
 30
0.0
 10
6.986048
 20
5.222484
 30
0.0
 10
6.967362
 20
5.211845
 30
0.0
 10
6.954629
 20
5.196687
 30
0.0
 10
6.949888
 20
5.175024
 30
0.0
 10
6.946857
 20
5.152479
 30
0.0
 10
6.945424
 20
5.128942
 30
0.0
 10
6.945424
 20
5.104634
 30
0.0
 10
6.947077
 20
5.079719
 30
0.0
 10
6.949282
 20
5.060647
 30
0.0
 10
7.017026
 20
5.023495
 30
0.0
 10
7.088243
 20
4.993840
 30
0.0
 10
7.104614
 20
5.003982
 30
0.0
 10
7.125064
 20
5.018259
 30
0.0
 10
7.144081
 20
5.033362
 30
0.0
 10
7.161500
 20
5.049182
 30
0.0
 10
7.177320
 20
5.065663
 30
0.0
 10
7.191321
 20
5.082806
 30
0.0
 10
7.195234
 20
5.102264
 30
0.0
 10
7.191817
 20
5.123485
 30
0.0
 10
7.190328
 20
5.144487
 30
0.0
 10
7.190604
 20
5.164882
 30
0.0
 10
7.192864
 20
5.184946
 30
0.0
 10
7.197549
 20
5.204238
 30
0.0
 10
7.200857
 20
5.213719
 30
0.0
 10
7.204936
 20
5.222814
 30
0.0
 10
7.210062
 20
5.231744
 30
0.0
 10
7.216456
 20
5.240398
 30
0.0
 10
7.220314
 20
5.244532
 30
0.0
 10
7.224724
 20
5.248556
 30
0.0
 10
7.230236
 20
5.252415
 30
0.0
 10
7.237513
 20
5.255887
 30
0.0
 10
7.254876
 20
5.257651
 30
0.0
 10
7.356244
 20
5.252801
 30
0.0
 10
7.455739
 20
5.272810
 30
0.0
 10
7.473157
 20
5.273802
 30
0.0
 10
7.480819
 20
5.271376
 30
0.0
 10
7.486882
 20
5.268510
 30
0.0
 10
7.492008
 20
5.265203
 30
0.0
 10
7.496528
 20
5.261730
 30
0.0
 10
7.504080
 20
5.254234
 30
0.0
 10
7.510474
 20
5.246076
 30
0.0
 10
7.515986
 20
5.237587
 30
0.0
 10
7.520727
 20
5.228768
 30
0.0
 10
7.528168
 20
5.210302
 30
0.0
 10
7.533515
 20
5.191009
 30
0.0
 10
7.536822
 20
5.170835
 30
0.0
 10
7.538421
 20
5.149889
 30
0.0
 10
7.538421
 20
5.128391
 30
0.0
 10
7.545146
 20
5.109650
 30
0.0
 10
7.561572
 20
5.094877
 30
0.0
 10
7.579707
 20
5.080877
 30
0.0
 10
7.599275
 20
5.067923
 30
0.0
 10
7.620331
 20
5.055851
 30
0.0
 10
7.642821
 20
5.044882
 30
0.0
 10
7.660405
 20
5.037275
 30
0.0
 10
7.726440
 20
5.077183
 30
0.0
 10
7.787791
 20
5.124147
 30
0.0
 10
7.787184
 20
5.143384
 30
0.0
 10
7.785035
 20
5.168299
 30
0.0
 10
7.781452
 20
5.192277
 30
0.0
 10
7.776491
 20
5.215318
 30
0.0
 10
7.770097
 20
5.237201
 30
0.0
 10
7.762324
 20
5.257817
 30
0.0
 10
7.747276
 20
5.270991
 30
0.0
 10
7.727212
 20
5.278653
 30
0.0
 10
7.708305
 20
5.287858
 30
0.0
 10
7.690777
 20
5.298331
 30
0.0
 10
7.674626
 20
5.310292
 30
0.0
 10
7.660129
 20
5.324018
 30
0.0
 10
7.653570
 20
5.331514
 30
0.0
 10
7.647727
 20
5.339727
 30
0.0
 10
7.642490
 20
5.348547
 30
0.0
 10
7.638301
 20
5.358413
 30
0.0
 10
7.636647
 20
5.363926
 30
0.0
 10
7.635490
 20
5.369824
 30
0.0
 10
7.634994
 20
5.376493
 30
0.0
 10
7.635600
 20
5.384596
 30
0.0
 10
7.642766
 20
5.400471
 30
0.0
 10
7.697667
 20
5.485799
 30
0.0
 10
7.730023
 20
5.581931
 30
0.0
 10
7.737961
 20
5.597531
 30
0.0
 10
7.743914
 20
5.603043
 30
0.0
 10
7.749371
 20
5.606736
 30
0.0
 10
7.754828
 20
5.609547
 30
0.0
 10
7.760064
 20
5.611587
 30
0.0
 10
7.770427
 20
5.614508
 30
0.0
 10
7.780625
 20
5.616051
 30
0.0
 10
7.790657
 20
5.616603
 30
0.0
 10
7.800579
 20
5.616217
 30
0.0
 10
7.820367
 20
5.613461
 30
0.0
 10
7.839770
 20
5.608334
 30
0.0
 10
7.858897
 20
5.601169
 30
0.0
 10
7.877914
 20
5.592074
 30
0.0
 10
7.896435
 20
5.581325
 30
0.0
 10
7.916058
 20
5.577687
 30
0.0
 10
7.937115
 20
5.584577
 30
0.0
 10
7.958171
 20
5.593231
 30
0.0
 10
7.979228
 20
5.603759
 30
0.0
 10
8.000229
 20
5.615941
 30
0.0
 10
8.021010
 20
5.629832
 30
0.0
 10
8.036389
 20
5.641297
 30
0.0
 10
8.034735
 20
5.718522
 30
0.0
 10
8.024758
 20
5.795086
 30
0.0
 10
8.007946
 20
5.804016
 30
0.0
 10
8.007946
 20
5.804126
 30
0.0
 10
7.985456
 20
5.814709
 30
0.0
 10
7.962912
 20
5.823639
 30
0.0
 10
7.940477
 20
5.830750
 30
0.0
 10
7.918318
 20
5.836262
 30
0.0
 10
7.896435
 20
5.839735
 30
0.0
 10
7.877639
 20
5.833340
 30
0.0
 10
7.860937
 20
5.819891
 30
0.0
 10
7.843629
 20
5.808095
 30
0.0
 10
7.825769
 20
5.798063
 30
0.0
 10
7.807304
 20
5.790070
 30
0.0
 10
7.788232
 20
5.784393
 30
0.0
 10
7.778420
 20
5.782518
 30
0.0
 10
7.768333
 20
5.781581
 30
0.0
 10
7.758025
 20
5.781581
 30
0.0
 10
7.747497
 20
5.782794
 30
0.0
 10
7.741874
 20
5.784117
 30
0.0
 10
7.736142
 20
5.786101
 30
0.0
 10
7.730023
 20
5.788913
 30
0.0
 10
7.723464
 20
5.793488
 30
0.0
 10
7.716794
 20
5.802583
 30
0.0
 10
7.630970
 20
5.772486
 30
0.0
 10
7.603930
 20
5.830336
 30
0.0
 10
7.566484
 20
5.881354
 30
0.0
 10
7.519857
 20
5.924170
 30
0.0
 10
7.465275
 20
5.957419
 30
0.0
 10
7.453203
 20
5.962545
 30
0.0
 10
7.453203
 20
5.962545
 30
0.0
  0
LWPOLYLINE
  5
107
100
AcDbEntity
  8
Layer_1
 62
7
100
AcDbPolyline
 90
157
 70
0
 10
5.021241
 20
5.394794
 30
0.0
 10
4.986404
 20
5.294362
 30
0.0
 10
4.988058
 20
5.293646
 30
0.0
 10
5.025732
 20
5.270615
 30
0.0
 10
5.057106
 20
5.241436
 30
0.0
 10
5.099314
 20
5.169307
 30
0.0
 10
5.111402
 20
5.086614
 30
0.0
 10
5.105125
 20
5.044231
 30
0.0
 10
5.090088
 20
5.002714
 30
0.0
 10
5.038986
 20
4.934688
 30
0.0
 10
4.965740
 20
4.891399
 30
0.0
 10
4.881503
 20
4.879439
 30
0.0
 10
4.799102
 20
4.900629
 30
0.0
 10
4.768785
 20
4.918654
 30
0.0
 10
4.628666
 20
4.773133
 30
0.0
 10
4.630540
 20
4.765471
 30
0.0
 10
4.631036
 20
4.758746
 30
0.0
 10
4.630705
 20
4.752793
 30
0.0
 10
4.629933
 20
4.747171
 30
0.0
 10
4.627177
 20
4.736753
 30
0.0
 10
4.623429
 20
4.727162
 30
0.0
 10
4.618854
 20
4.718342
 30
0.0
 10
4.613562
 20
4.709798
 30
0.0
 10
4.601325
 20
4.694144
 30
0.0
 10
4.587214
 20
4.679757
 30
0.0
 10
4.571449
 20
4.666749
 30
0.0
 10
4.554141
 20
4.654842
 30
0.0
 10
4.535455
 20
4.644204
 30
0.0
 10
4.522722
 20
4.629045
 30
0.0
 10
4.517982
 20
4.607383
 30
0.0
 10
4.514950
 20
4.584838
 30
0.0
 10
4.513517
 20
4.561301
 30
0.0
 10
4.513517
 20
4.536992
 30
0.0
 10
4.515170
 20
4.512077
 30
0.0
 10
4.517375
 20
4.493005
 30
0.0
 10
4.585119
 20
4.455853
 30
0.0
 10
4.656337
 20
4.426198
 30
0.0
 10
4.672708
 20
4.436341
 30
0.0
 10
4.693158
 20
4.450617
 30
0.0
 10
4.712175
 20
4.465720
 30
0.0
 10
4.729593
 20
4.481540
 30
0.0
 10
4.745413
 20
4.498021
 30
0.0
 10
4.759414
 20
4.515164
 30
0.0
 10
4.763328
 20
4.534622
 30
0.0
 10
4.759910
 20
4.555844
 30
0.0
 10
4.758422
 20
4.576845
 30
0.0
 10
4.758697
 20
4.597240
 30
0.0
 10
4.760957
 20
4.617304
 30
0.0
 10
4.765643
 20
4.636597
 30
0.0
 10
4.768950
 20
4.646078
 30
0.0
 10
4.773029
 20
4.655173
 30
0.0
 10
4.778155
 20
4.664103
 30
0.0
 10
4.784549
 20
4.672757
 30
0.0
 10
4.788408
 20
4.676891
 30
0.0
 10
4.792818
 20
4.680915
 30
0.0
 10
4.798330
 20
4.684773
 30
0.0
 10
4.805606
 20
4.688246
 30
0.0
 10
4.822969
 20
4.690010
 30
0.0
 10
4.924338
 20
4.685159
 30
0.0
 10
5.023832
 20
4.705168
 30
0.0
 10
5.041250
 20
4.706160
 30
0.0
 10
5.048912
 20
4.703735
 30
0.0
 10
5.054975
 20
4.700869
 30
0.0
 10
5.060102
 20
4.697562
 30
0.0
 10
5.064622
 20
4.694089
 30
0.0
 10
5.072174
 20
4.686592
 30
0.0
 10
5.078568
 20
4.678434
 30
0.0
 10
5.084080
 20
4.669946
 30
0.0
 10
5.088820
 20
4.661126
 30
0.0
 10
5.096261
 20
4.642660
 30
0.0
 10
5.101608
 20
4.623368
 30
0.0
 10
5.104916
 20
4.603193
 30
0.0
 10
5.106514
 20
4.582247
 30
0.0
 10
5.106514
 20
4.560750
 30
0.0
 10
5.113239
 20
4.542009
 30
0.0
 10
5.129665
 20
4.527236
 30
0.0
 10
5.147800
 20
4.513235
 30
0.0
 10
5.167368
 20
4.500281
 30
0.0
 10
5.188425
 20
4.488210
 30
0.0
 10
5.210914
 20
4.477241
 30
0.0
 10
5.228498
 20
4.469634
 30
0.0
 10
5.294534
 20
4.509542
 30
0.0
 10
5.355884
 20
4.556505
 30
0.0
 10
5.355278
 20
4.575743
 30
0.0
 10
5.353128
 20
4.600658
 30
0.0
 10
5.349545
 20
4.624636
 30
0.0
 10
5.344584
 20
4.647677
 30
0.0
 10
5.338190
 20
4.669560
 30
0.0
 10
5.330418
 20
4.690175
 30
0.0
 10
5.315369
 20
4.703349
 30
0.0
 10
5.295305
 20
4.711011
 30
0.0
 10
5.276399
 20
4.720216
 30
0.0
 10
5.258870
 20
4.730689
 30
0.0
 10
5.242719
 20
4.742651
 30
0.0
 10
5.228222
 20
4.756376
 30
0.0
 10
5.221663
 20
4.763872
 30
0.0
 10
5.215820
 20
4.772086
 30
0.0
 10
5.210583
 20
4.780905
 30
0.0
 10
5.206394
 20
4.790772
 30
0.0
 10
5.204686
 20
4.796284
 30
0.0
 10
5.203528
 20
4.802182
 30
0.0
 10
5.203087
 20
4.808852
 30
0.0
 10
5.203693
 20
4.816955
 30
0.0
 10
5.210859
 20
4.832830
 30
0.0
 10
5.265760
 20
4.918158
 30
0.0
 10
5.298117
 20
5.014290
 30
0.0
 10
5.306054
 20
5.029889
 30
0.0
 10
5.312007
 20
5.035401
 30
0.0
 10
5.317464
 20
5.039094
 30
0.0
 10
5.322921
 20
5.041906
 30
0.0
 10
5.328158
 20
5.043945
 30
0.0
 10
5.338521
 20
5.046867
 30
0.0
 10
5.348718
 20
5.048410
 30
0.0
 10
5.358750
 20
5.048961
 30
0.0
 10
5.368672
 20
5.048520
 30
0.0
 10
5.388461
 20
5.045764
 30
0.0
 10
5.407864
 20
5.040638
 30
0.0
 10
5.426991
 20
5.033472
 30
0.0
 10
5.446008
 20
5.024377
 30
0.0
 10
5.464528
 20
5.013628
 30
0.0
 10
5.484152
 20
5.009990
 30
0.0
 10
5.505208
 20
5.016880
 30
0.0
 10
5.526265
 20
5.025535
 30
0.0
 10
5.547321
 20
5.036063
 30
0.0
 10
5.568322
 20
5.048245
 30
0.0
 10
5.589103
 20
5.062135
 30
0.0
 10
5.604482
 20
5.073600
 30
0.0
 10
5.602828
 20
5.150826
 30
0.0
 10
5.592852
 20
5.227390
 30
0.0
 10
5.576039
 20
5.236319
 30
0.0
 10
5.553550
 20
5.246903
 30
0.0
 10
5.531005
 20
5.255832
 30
0.0
 10
5.508571
 20
5.262943
 30
0.0
 10
5.486412
 20
5.268455
 30
0.0
 10
5.464528
 20
5.271928
 30
0.0
 10
5.445732
 20
5.265534
 30
0.0
 10
5.429030
 20
5.252084
 30
0.0
 10
5.411722
 20
5.240288
 30
0.0
 10
5.393863
 20
5.230256
 30
0.0
 10
5.375397
 20
5.222263
 30
0.0
 10
5.356325
 20
5.216586
 30
0.0
 10
5.346513
 20
5.214767
 30
0.0
 10
5.336426
 20
5.213830
 30
0.0
 10
5.326118
 20
5.213830
 30
0.0
 10
5.315590
 20
5.215042
 30
0.0
 10
5.309968
 20
5.216365
 30
0.0
 10
5.304235
 20
5.218350
 30
0.0
 10
5.298117
 20
5.221161
 30
0.0
 10
5.291557
 20
5.225736
 30
0.0
 10
5.284888
 20
5.234831
 30
0.0
 10
5.199063
 20
5.204735
 30
0.0
 10
5.172023
 20
5.262585
 30
0.0
 10
5.134577
 20
5.313602
 30
0.0
 10
5.087950
 20
5.356419
 30
0.0
 10
5.033368
 20
5.389667
 30
0.0
 10
5.021241
 20
5.394794
 30
0.0
 10
5.021241
 20
5.394794
 30
0.0
  0
LWPOLYLINE
  5
108
100
AcDbEntity
  8
Layer_1
 62
7
100
AcDbPolyline
 90
157
 70
0
 10
6.206574
 20
5.140794
 30
0.0
 10
6.171738
 20
5.040362
 30
0.0
 10
6.173391
 20
5.039646
 30
0.0
 10
6.211065
 20
5.016615
 30
0.0
 10
6.242439
 20
4.987436
 30
0.0
 10
6.284648
 20
4.915307
 30
0.0
 10
6.296735
 20
4.832614
 30
0.0
 10
6.290459
 20
4.790231
 30
0.0
 10
6.275421
 20
4.748714
 30
0.0
 10
6.224319
 20
4.680688
 30
0.0
 10
6.151073
 20
4.637399
 30
0.0
 10
6.066836
 20
4.625439
 30
0.0
 10
5.984435
 20
4.646629
 30
0.0
 10
5.954118
 20
4.664654
 30
0.0
 10
5.813999
 20
4.519133
 30
0.0
 10
5.815873
 20
4.511471
 30
0.0
 10
5.816369
 20
4.504746
 30
0.0
 10
5.816038
 20
4.498793
 30
0.0
 10
5.815267
 20
4.493171
 30
0.0
 10
5.812511
 20
4.482753
 30
0.0
 10
5.808763
 20
4.473162
 30
0.0
 10
5.804187
 20
4.464342
 30
0.0
 10
5.798896
 20
4.455798
 30
0.0
 10
5.786659
 20
4.440144
 30
0.0
 10
5.772547
 20
4.425757
 30
0.0
 10
5.756783
 20
4.412749
 30
0.0
 10
5.739475
 20
4.400842
 30
0.0
 10
5.720788
 20
4.390204
 30
0.0
 10
5.708055
 20
4.375045
 30
0.0
 10
5.703315
 20
4.353383
 30
0.0
 10
5.700283
 20
4.330838
 30
0.0
 10
5.698850
 20
4.307301
 30
0.0
 10
5.698850
 20
4.282992
 30
0.0
 10
5.700504
 20
4.258077
 30
0.0
 10
5.702708
 20
4.239005
 30
0.0
 10
5.770453
 20
4.201853
 30
0.0
 10
5.841670
 20
4.172198
 30
0.0
 10
5.858041
 20
4.182341
 30
0.0
 10
5.878491
 20
4.196617
 30
0.0
 10
5.897508
 20
4.211720
 30
0.0
 10
5.914926
 20
4.227540
 30
0.0
 10
5.930746
 20
4.244021
 30
0.0
 10
5.944747
 20
4.261164
 30
0.0
 10
5.948661
 20
4.280622
 30
0.0
 10
5.945243
 20
4.301844
 30
0.0
 10
5.943755
 20
4.322845
 30
0.0
 10
5.944030
 20
4.343240
 30
0.0
 10
5.946291
 20
4.363304
 30
0.0
 10
5.950976
 20
4.382597
 30
0.0
 10
5.954283
 20
4.392078
 30
0.0
 10
5.958362
 20
4.401173
 30
0.0
 10
5.963489
 20
4.410103
 30
0.0
 10
5.969883
 20
4.418757
 30
0.0
 10
5.973741
 20
4.422891
 30
0.0
 10
5.978151
 20
4.426915
 30
0.0
 10
5.983663
 20
4.430773
 30
0.0
 10
5.990939
 20
4.434246
 30
0.0
 10
6.008302
 20
4.436010
 30
0.0
 10
6.109671
 20
4.431159
 30
0.0
 10
6.209165
 20
4.451168
 30
0.0
 10
6.226583
 20
4.452160
 30
0.0
 10
6.234246
 20
4.449735
 30
0.0
 10
6.240309
 20
4.446869
 30
0.0
 10
6.245435
 20
4.443562
 30
0.0
 10
6.249955
 20
4.440089
 30
0.0
 10
6.257507
 20
4.432592
 30
0.0
 10
6.263901
 20
4.424434
 30
0.0
 10
6.269413
 20
4.415946
 30
0.0
 10
6.274153
 20
4.407126
 30
0.0
 10
6.281595
 20
4.388660
 30
0.0
 10
6.286942
 20
4.369368
 30
0.0
 10
6.290249
 20
4.349193
 30
0.0
 10
6.291847
 20
4.328247
 30
0.0
 10
6.291847
 20
4.306750
 30
0.0
 10
6.298572
 20
4.288009
 30
0.0
 10
6.314999
 20
4.273236
 30
0.0
 10
6.333133
 20
4.259235
 30
0.0
 10
6.352702
 20
4.246281
 30
0.0
 10
6.373758
 20
4.234210
 30
0.0
 10
6.396248
 20
4.223241
 30
0.0
 10
6.413831
 20
4.215634
 30
0.0
 10
6.479867
 20
4.255542
 30
0.0
 10
6.541217
 20
4.302505
 30
0.0
 10
6.540611
 20
4.321743
 30
0.0
 10
6.538461
 20
4.346658
 30
0.0
 10
6.534878
 20
4.370636
 30
0.0
 10
6.529917
 20
4.393677
 30
0.0
 10
6.523523
 20
4.415560
 30
0.0
 10
6.515751
 20
4.436175
 30
0.0
 10
6.500703
 20
4.449349
 30
0.0
 10
6.480639
 20
4.457011
 30
0.0
 10
6.461732
 20
4.466216
 30
0.0
 10
6.444203
 20
4.476689
 30
0.0
 10
6.428053
 20
4.488651
 30
0.0
 10
6.413556
 20
4.502376
 30
0.0
 10
6.406996
 20
4.509872
 30
0.0
 10
6.401153
 20
4.518086
 30
0.0
 10
6.395917
 20
4.526905
 30
0.0
 10
6.391728
 20
4.536772
 30
0.0
 10
6.390019
 20
4.542284
 30
0.0
 10
6.388861
 20
4.548182
 30
0.0
 10
6.388420
 20
4.554852
 30
0.0
 10
6.389027
 20
4.562955
 30
0.0
 10
6.396193
 20
4.578830
 30
0.0
 10
6.451094
 20
4.664158
 30
0.0
 10
6.483450
 20
4.760290
 30
0.0
 10
6.491388
 20
4.775889
 30
0.0
 10
6.497340
 20
4.781401
 30
0.0
 10
6.502797
 20
4.785094
 30
0.0
 10
6.508255
 20
4.787906
 30
0.0
 10
6.513491
 20
4.789945
 30
0.0
 10
6.523854
 20
4.792867
 30
0.0
 10
6.534051
 20
4.794410
 30
0.0
 10
6.544083
 20
4.794961
 30
0.0
 10
6.554006
 20
4.794520
 30
0.0
 10
6.573794
 20
4.791764
 30
0.0
 10
6.593197
 20
4.786638
 30
0.0
 10
6.612324
 20
4.779472
 30
0.0
 10
6.631341
 20
4.770377
 30
0.0
 10
6.649862
 20
4.759628
 30
0.0
 10
6.669485
 20
4.755990
 30
0.0
 10
6.690542
 20
4.762880
 30
0.0
 10
6.711598
 20
4.771535
 30
0.0
 10
6.732654
 20
4.782063
 30
0.0
 10
6.753655
 20
4.794245
 30
0.0
 10
6.774436
 20
4.808135
 30
0.0
 10
6.789815
 20
4.819600
 30
0.0
 10
6.788162
 20
4.896826
 30
0.0
 10
6.778185
 20
4.973389
 30
0.0
 10
6.761373
 20
4.982319
 30
0.0
 10
6.738883
 20
4.992903
 30
0.0
 10
6.716338
 20
5.001832
 30
0.0
 10
6.693904
 20
5.008943
 30
0.0
 10
6.671745
 20
5.014455
 30
0.0
 10
6.649862
 20
5.017928
 30
0.0
 10
6.631065
 20
5.011534
 30
0.0
 10
6.614364
 20
4.998084
 30
0.0
 10
6.597055
 20
4.986288
 30
0.0
 10
6.579196
 20
4.976256
 30
0.0
 10
6.560730
 20
4.968263
 30
0.0
 10
6.541658
 20
4.962586
 30
0.0
 10
6.531847
 20
4.960767
 30
0.0
 10
6.521759
 20
4.959830
 30
0.0
 10
6.511452
 20
4.959830
 30
0.0
 10
6.500924
 20
4.961042
 30
0.0
 10
6.495301
 20
4.962365
 30
0.0
 10
6.489568
 20
4.964350
 30
0.0
 10
6.483450
 20
4.967161
 30
0.0
 10
6.476890
 20
4.971736
 30
0.0
 10
6.470221
 20
4.980831
 30
0.0
 10
6.384397
 20
4.950735
 30
0.0
 10
6.357357
 20
5.008585
 30
0.0
 10
6.319910
 20
5.059602
 30
0.0
 10
6.273283
 20
5.102419
 30
0.0
 10
6.218701
 20
5.135667
 30
0.0
 10
6.206574
 20
5.140794
 30
0.0
 10
6.206574
 20
5.140794
 30
0.0
  0
LWPOLYLINE
  5
109
100
AcDbEntity
  8
Layer_1
 62
7
100
AcDbPolyline
 90
157
 70
0
 10
7.377797
 20
4.858571
 30
0.0
 10
7.342960
 20
4.758140
 30
0.0
 10
7.344614
 20
4.757423
 30
0.0
 10
7.382288
 20
4.734393
 30
0.0
 10
7.413662
 20
4.705213
 30
0.0
 10
7.455870
 20
4.633084
 30
0.0
 10
7.467958
 20
4.550392
 30
0.0
 10
7.461681
 20
4.508008
 30
0.0
 10
7.446643
 20
4.466492
 30
0.0
 10
7.395541
 20
4.398466
 30
0.0
 10
7.322295
 20
4.355177
 30
0.0
 10
7.238058
 20
4.343217
 30
0.0
 10
7.155657
 20
4.364407
 30
0.0
 10
7.125340
 20
4.382432
 30
0.0
 10
6.985221
 20
4.236911
 30
0.0
 10
6.987095
 20
4.229249
 30
0.0
 10
6.987591
 20
4.222524
 30
0.0
 10
6.987261
 20
4.216571
 30
0.0
 10
6.986489
 20
4.210949
 30
0.0
 10
6.983733
 20
4.200531
 30
0.0
 10
6.979985
 20
4.190939
 30
0.0
 10
6.975410
 20
4.182120
 30
0.0
 10
6.970118
 20
4.173576
 30
0.0
 10
6.957881
 20
4.157922
 30
0.0
 10
6.943770
 20
4.143535
 30
0.0
 10
6.928005
 20
4.130526
 30
0.0
 10
6.910697
 20
4.118620
 30
0.0
 10
6.892011
 20
4.107982
 30
0.0
 10
6.879278
 20
4.092823
 30
0.0
 10
6.874537
 20
4.071160
 30
0.0
 10
6.871506
 20
4.048616
 30
0.0
 10
6.870072
 20
4.025079
 30
0.0
 10
6.870072
 20
4.000770
 30
0.0
 10
6.871726
 20
3.975855
 30
0.0
 10
6.873931
 20
3.956783
 30
0.0
 10
6.941675
 20
3.919631
 30
0.0
 10
7.012892
 20
3.889976
 30
0.0
 10
7.029263
 20
3.900118
 30
0.0
 10
7.049713
 20
3.914395
 30
0.0
 10
7.068730
 20
3.929498
 30
0.0
 10
7.086149
 20
3.945318
 30
0.0
 10
7.101969
 20
3.961799
 30
0.0
 10
7.115969
 20
3.978942
 30
0.0
 10
7.119883
 20
3.998400
 30
0.0
 10
7.116465
 20
4.019622
 30
0.0
 10
7.114977
 20
4.040623
 30
0.0
 10
7.115253
 20
4.061018
 30
0.0
 10
7.117513
 20
4.081082
 30
0.0
 10
7.122198
 20
4.100375
 30
0.0
 10
7.125506
 20
4.109856
 30
0.0
 10
7.129585
 20
4.118951
 30
0.0
 10
7.134711
 20
4.127880
 30
0.0
 10
7.141105
 20
4.136535
 30
0.0
 10
7.144963
 20
4.140669
 30
0.0
 10
7.149373
 20
4.144692
 30
0.0
 10
7.154885
 20
4.148551
 30
0.0
 10
7.162161
 20
4.152024
 30
0.0
 10
7.179525
 20
4.153788
 30
0.0
 10
7.280893
 20
4.148937
 30
0.0
 10
7.380388
 20
4.168946
 30
0.0
 10
7.397806
 20
4.169938
 30
0.0
 10
7.405468
 20
4.167513
 30
0.0
 10
7.411531
 20
4.164646
 30
0.0
 10
7.416657
 20
4.161339
 30
0.0
 10
7.421177
 20
4.157867
 30
0.0
 10
7.428729
 20
4.150370
 30
0.0
 10
7.435123
 20
4.142212
 30
0.0
 10
7.440635
 20
4.133723
 30
0.0
 10
7.445376
 20
4.124904
 30
0.0
 10
7.452817
 20
4.106438
 30
0.0
 10
7.458164
 20
4.087146
 30
0.0
 10
7.461471
 20
4.066971
 30
0.0
 10
7.463070
 20
4.046025
 30
0.0
 10
7.463070
 20
4.024528
 30
0.0
 10
7.469794
 20
4.005786
 30
0.0
 10
7.486221
 20
3.991014
 30
0.0
 10
7.504356
 20
3.977013
 30
0.0
 10
7.523924
 20
3.964059
 30
0.0
 10
7.544980
 20
3.951988
 30
0.0
 10
7.567470
 20
3.941018
 30
0.0
 10
7.585054
 20
3.933412
 30
0.0
 10
7.651089
 20
3.973320
 30
0.0
 10
7.712439
 20
4.020283
 30
0.0
 10
7.711833
 20
4.039521
 30
0.0
 10
7.709683
 20
4.064435
 30
0.0
 10
7.706100
 20
4.088413
 30
0.0
 10
7.701140
 20
4.111454
 30
0.0
 10
7.694746
 20
4.133338
 30
0.0
 10
7.686973
 20
4.153953
 30
0.0
 10
7.671925
 20
4.167127
 30
0.0
 10
7.651861
 20
4.174789
 30
0.0
 10
7.632954
 20
4.183994
 30
0.0
 10
7.615426
 20
4.194467
 30
0.0
 10
7.599275
 20
4.206429
 30
0.0
 10
7.584778
 20
4.220154
 30
0.0
 10
7.578219
 20
4.227650
 30
0.0
 10
7.572376
 20
4.235863
 30
0.0
 10
7.567139
 20
4.244683
 30
0.0
 10
7.562950
 20
4.254550
 30
0.0
 10
7.561241
 20
4.260062
 30
0.0
 10
7.560083
 20
4.265960
 30
0.0
 10
7.559643
 20
4.272629
 30
0.0
 10
7.560249
 20
4.280732
 30
0.0
 10
7.567415
 20
4.296607
 30
0.0
 10
7.622316
 20
4.381935
 30
0.0
 10
7.654672
 20
4.478067
 30
0.0
 10
7.662610
 20
4.493667
 30
0.0
 10
7.668563
 20
4.499179
 30
0.0
 10
7.674020
 20
4.502872
 30
0.0
 10
7.679477
 20
4.505683
 30
0.0
 10
7.684713
 20
4.507723
 30
0.0
 10
7.695076
 20
4.510644
 30
0.0
 10
7.705274
 20
4.512188
 30
0.0
 10
7.715306
 20
4.512739
 30
0.0
 10
7.725228
 20
4.512298
 30
0.0
 10
7.745016
 20
4.509542
 30
0.0
 10
7.764419
 20
4.504415
 30
0.0
 10
7.783546
 20
4.497250
 30
0.0
 10
7.802563
 20
4.488155
 30
0.0
 10
7.821084
 20
4.477406
 30
0.0
 10
7.840707
 20
4.473768
 30
0.0
 10
7.861764
 20
4.480658
 30
0.0
 10
7.882820
 20
4.489312
 30
0.0
 10
7.903876
 20
4.499841
 30
0.0
 10
7.924878
 20
4.512022
 30
0.0
 10
7.945659
 20
4.525913
 30
0.0
 10
7.961037
 20
4.537378
 30
0.0
 10
7.959384
 20
4.614603
 30
0.0
 10
7.949407
 20
4.691167
 30
0.0
 10
7.932595
 20
4.700097
 30
0.0
 10
7.910105
 20
4.710680
 30
0.0
 10
7.887561
 20
4.719610
 30
0.0
 10
7.865126
 20
4.726721
 30
0.0
 10
7.842967
 20
4.732233
 30
0.0
 10
7.821084
 20
4.735706
 30
0.0
 10
7.802287
 20
4.729312
 30
0.0
 10
7.785586
 20
4.715862
 30
0.0
 10
7.768278
 20
4.704066
 30
0.0
 10
7.750418
 20
4.694034
 30
0.0
 10
7.731953
 20
4.686041
 30
0.0
 10
7.712881
 20
4.680363
 30
0.0
 10
7.703069
 20
4.678545
 30
0.0
 10
7.692982
 20
4.677607
 30
0.0
 10
7.682674
 20
4.677607
 30
0.0
 10
7.672146
 20
4.678820
 30
0.0
 10
7.666523
 20
4.680143
 30
0.0
 10
7.660791
 20
4.682127
 30
0.0
 10
7.654672
 20
4.684939
 30
0.0
 10
7.648113
 20
4.689514
 30
0.0
 10
7.641443
 20
4.698609
 30
0.0
 10
7.555619
 20
4.668512
 30
0.0
 10
7.528579
 20
4.726362
 30
0.0
 10
7.491133
 20
4.777380
 30
0.0
 10
7.444506
 20
4.820196
 30
0.0
 10
7.389924
 20
4.853445
 30
0.0
 10
7.377797
 20
4.858571
 30
0.0
 10
7.377797
 20
4.858571
 30
0.0
  0
ENDSEC
  0
SECTION
  2
OBJECTS
  0
DICTIONARY
  5
C
330
0
100
AcDbDictionary
  3
ACAD_GROUP
350
D
  3
ACAD_MLINESTYLE
350
17
  0
DICTIONARY
  5
D
330
C
100
AcDbDictionary
  0
DICTIONARY
  5
1A
330
C
100
AcDbDictionary
  0
DICTIONARY
  5
17
330
C
100
AcDbDictionary
  3
STANDARD
350
18
  0
DICTIONARY
  5
19
330
C
100
AcDbDictionary
  0
ENDSEC
  0
EOF
