<?xml version="1.0" encoding="ISO-8859-1" standalone="no"?>
<!DOCTYPE svg PUBLIC "-//W3C//DTD SVG 1.1//EN"
    "http://www.w3.org/Graphics/SVG/1.1/DTD/svg11.dtd">
<svg xmlns="http://www.w3.org/2000/svg"
     xmlns:xlink="http://www.w3.org/1999/xlink" xml:space="preserve"
         width="1348px" height="1201px"
         viewBox="0 0 1348 1201"
         zoomAndPan="disable" preserveAspectRatio="none" >
<!-- Made with the gear generator.  http://woodgears.ca/gear   2017-03-06T21:59:21 -->
<!-- G1:Toothspacing=46.34  Teeth=80  Slop=1.0  Spur gear  Angle=20.0  Addendum=.2 -->
<!-- G2:Toothspacing=46.34  Teeth=10  Slop=1.0  Spur gear  Angle=20.0  Addendum=.2 -->
<!-- G2:Toothspacing=46.34  Teeth=10  Slop=1.0  Spur gear  Angle=20.0  Addendum=.2 -->
<polygon id="G1Gear" data-id="0" class="gear" fill="none" fill-opacity="0.2" stroke="#000"  stroke-miterlimit="10"
points =" 1177.82 614.38 1179.25 613.03 1182.05 611.82 1187.62 611.12 1193.21 609.51 1198.8 607.4 1200.2 606.84 1200.2 593.39
 1198.8 592.84 1193.21 590.72 1187.62 589.11 1182.05 588.42 1179.25 587.2 1177.82 585.86 1177.16 569.01 1178.47 567.55
 1181.18 566.12 1186.68 564.99 1192.12 562.95 1197.53 560.4 1198.87 559.74 1197.82 546.33 1196.38 545.89 1190.65 544.22
 1184.95 543.05 1179.34 542.8 1176.45 541.81 1174.92 540.57 1172.94 523.83 1174.14 522.27 1176.72 520.64 1182.11 519.08
 1187.38 516.61 1192.57 513.65 1193.86 512.89 1191.76 499.6 1190.29 499.27 1184.44 498.06 1178.67 497.34 1173.06 497.53
 1170.1 496.77 1168.48 495.66 1165.19 479.12 1166.26 477.48 1168.7 475.64 1173.96 473.67 1179.02 470.8 1183.96 467.44
 1185.19 466.57 1182.05 453.49 1180.56 453.28 1174.63 452.53 1168.82 452.26 1163.24 452.89 1160.23 452.37 1158.53 451.39
 1153.96 435.16 1154.89 433.44 1157.18 431.41 1162.27 429.04 1167.09 425.77 1171.75 422.04 1172.9 421.08 1168.75 408.28
 1167.25 408.19 1161.28 407.91 1155.47 408.1 1149.95 409.16 1146.91 408.87 1145.14 408.03 1139.31 392.21 1140.1 390.42
 1142.23 388.23 1147.11 385.46 1151.66 381.83 1156.01 377.74 1157.09 376.69 1151.94 364.26 1150.44 364.28 1144.47 364.47
 1138.69 365.12 1133.28 366.61 1130.22 366.56 1128.39 365.86 1121.33 350.55 1121.99 348.7 1123.94 346.35 1128.59 343.2
 1132.83 339.23 1136.85 334.81 1137.84 333.68 1131.74 321.69 1130.24 321.83 1124.3 322.49 1118.59 323.59 1113.31 325.5
 1110.26 325.69 1108.38 325.14 1100.14 310.42 1100.65 308.53 1102.41 306.03 1106.8 302.53 1110.72 298.24 1114.38 293.51
 1115.28 292.31 1108.25 280.84 1106.77 281.1 1100.9 282.22 1095.3 283.76 1090.18 286.08 1087.16 286.51 1085.24 286.11
 1075.87 272.09 1076.23 270.16 1077.79 267.53 1081.89 263.69 1085.46 259.1 1088.74 254.11 1089.54 252.84 1081.64 241.96
 1080.18 242.33 1074.42 243.9 1068.95 245.88 1064.04 248.6 1061.05 249.27 1059.11 249.01 1048.67 235.77 1048.88 233.82
 1050.22 231.08 1054.01 226.93 1057.21 222.08 1060.09 216.84 1060.79 215.51 1052.05 205.28 1050.63 205.77 1045.01 207.79
 1039.71 210.19 1035.03 213.28 1032.1 214.18 1030.15 214.08 1018.7 201.7 1018.75 199.74 1019.88 196.9 1023.33 192.47
 1026.14 187.38 1028.6 181.93 1029.19 180.55 1019.68 171.04 1018.3 171.64 1012.86 174.09 1007.76 176.9 1003.33 180.35
 1000.49 181.48 998.53 181.53 986.15 170.09 986.05 168.13 986.95 165.21 990.04 160.52 992.44 155.23 994.47 149.6
 994.95 148.18 984.72 139.44 983.39 140.15 978.16 143.02 973.3 146.22 969.16 150.01 966.41 151.36 964.46 151.56
 951.22 141.12 950.97 139.18 951.63 136.2 954.35 131.28 956.33 125.81 957.9 120.05 958.28 118.6 947.39 110.69
 946.12 111.49 941.13 114.77 936.54 118.34 932.7 122.45 930.07 124 928.15 124.36 914.13 114.99 913.72 113.07
 914.15 110.05 916.47 104.94 918.02 99.33 919.14 93.46 919.39 91.98 907.92 84.95 906.72 85.85 902 89.51
 897.7 93.43 894.2 97.82 891.7 99.58 889.81 100.09 875.1 91.85 874.54 89.97 874.73 86.92 876.65 81.64
 877.75 75.93 878.4 69.99 878.54 68.5 866.55 62.39 865.43 63.38 861.01 67.4 857.03 71.65 853.89 76.3
 851.53 78.25 849.68 78.9 834.37 71.84 833.67 70.01 833.62 66.96 835.12 61.54 835.76 55.76 835.95 49.79
 835.97 48.29 823.54 43.14 822.5 44.22 818.41 48.57 814.78 53.12 812.01 58 809.81 60.13 808.02 60.93
 792.2 55.09 791.36 53.32 791.07 50.28 792.13 44.77 792.33 38.95 792.04 32.99 791.95 31.49 779.15 27.33
 778.19 28.49 774.46 33.15 771.2 37.96 768.82 43.05 766.8 45.34 765.08 46.28 748.85 41.7 747.87 40
 747.34 36.99 747.97 31.41 747.71 25.6 746.96 19.68 746.74 18.19 733.66 15.05 732.8 16.28 729.44 21.22
 726.56 26.27 724.59 31.53 722.76 33.97 721.11 35.04 704.57 31.75 703.47 30.14 702.71 27.18 702.89 21.56
 702.18 15.79 700.96 9.94 700.63 8.48 687.35 6.37 686.58 7.67 683.62 12.85 681.15 18.12 679.6 23.52
 677.96 26.1 676.41 27.29 659.66 25.31 658.43 23.79 657.44 20.89 657.19 15.28 656.02 9.59 654.35 3.85
 653.9 2.42 640.49 1.36 639.83 2.71 637.29 8.11 635.24 13.56 634.11 19.06 632.68 21.76 631.23 23.07
 614.38 22.41 613.03 20.99 611.82 18.18 611.12 12.61 609.51 7.02 607.4 1.43 606.84 0.04 593.39 0.04
 592.84 1.43 590.72 7.02 589.11 12.61 588.42 18.18 587.2 20.99 585.86 22.41 569.01 23.07 567.55 21.76
 566.12 19.06 564.99 13.56 562.95 8.11 560.4 2.71 559.74 1.36 546.33 2.42 545.89 3.85 544.22 9.59
 543.05 15.28 542.8 20.89 541.81 23.79 540.57 25.31 523.83 27.29 522.27 26.1 520.64 23.52 519.08 18.12
 516.61 12.85 513.65 7.67 512.89 6.37 499.6 8.48 499.27 9.94 498.06 15.79 497.34 21.56 497.53 27.18
 496.77 30.14 495.66 31.75 479.12 35.04 477.48 33.97 475.64 31.53 473.67 26.27 470.8 21.22 467.44 16.28
 466.57 15.05 453.49 18.19 453.28 19.68 452.53 25.6 452.26 31.41 452.89 36.99 452.37 40 451.39 41.7
 435.16 46.28 433.44 45.34 431.41 43.05 429.04 37.96 425.77 33.15 422.04 28.49 421.08 27.33 408.28 31.49
 408.19 32.99 407.91 38.95 408.1 44.77 409.16 50.28 408.87 53.32 408.03 55.09 392.21 60.93 390.42 60.13
 388.23 58 385.46 53.12 381.83 48.57 377.74 44.22 376.69 43.14 364.26 48.29 364.28 49.79 364.47 55.76
 365.12 61.54 366.61 66.96 366.56 70.01 365.86 71.84 350.55 78.9 348.7 78.25 346.35 76.3 343.2 71.65
 339.23 67.4 334.81 63.38 333.68 62.39 321.69 68.5 321.83 69.99 322.49 75.93 323.59 81.64 325.5 86.92
 325.69 89.97 325.14 91.85 310.42 100.09 308.53 99.58 306.03 97.82 302.53 93.43 298.24 89.51 293.51 85.85
 292.31 84.95 280.84 91.98 281.1 93.46 282.22 99.33 283.76 104.94 286.08 110.05 286.51 113.07 286.11 114.99
 272.09 124.36 270.16 124 267.53 122.45 263.69 118.34 259.1 114.77 254.11 111.49 252.84 110.69 241.96 118.6
 242.33 120.05 243.9 125.81 245.88 131.28 248.6 136.2 249.27 139.18 249.01 141.12 235.77 151.56 233.82 151.36
 231.08 150.01 226.93 146.22 222.08 143.02 216.84 140.15 215.51 139.44 205.28 148.18 205.77 149.6 207.79 155.23
 210.19 160.52 213.28 165.21 214.18 168.13 214.08 170.09 201.7 181.53 199.74 181.48 196.9 180.35 192.47 176.9
 187.38 174.09 181.93 171.64 180.55 171.04 171.04 180.55 171.64 181.93 174.09 187.38 176.9 192.47 180.35 196.9
 181.48 199.74 181.53 201.7 170.09 214.08 168.13 214.18 165.21 213.28 160.52 210.19 155.23 207.79 149.6 205.77
 148.18 205.28 139.44 215.51 140.15 216.84 143.02 222.08 146.22 226.93 150.01 231.08 151.36 233.82 151.56 235.77
 141.12 249.01 139.18 249.27 136.2 248.6 131.28 245.88 125.81 243.9 120.05 242.33 118.6 241.96 110.69 252.84
 111.49 254.11 114.77 259.1 118.34 263.69 122.45 267.53 124 270.16 124.36 272.09 114.99 286.11 113.07 286.51
 110.05 286.08 104.94 283.76 99.33 282.22 93.46 281.1 91.98 280.84 84.95 292.31 85.85 293.51 89.51 298.24
 93.43 302.53 97.82 306.03 99.58 308.53 100.09 310.42 91.85 325.14 89.97 325.69 86.92 325.5 81.64 323.59
 75.93 322.49 69.99 321.83 68.5 321.69 62.39 333.68 63.38 334.81 67.4 339.23 71.65 343.2 76.3 346.35
 78.25 348.7 78.9 350.55 71.84 365.86 70.01 366.56 66.96 366.61 61.54 365.12 55.76 364.47 49.79 364.28
 48.29 364.26 43.14 376.69 44.22 377.74 48.57 381.83 53.12 385.46 58 388.23 60.13 390.42 60.93 392.21
 55.09 408.03 53.32 408.87 50.28 409.16 44.77 408.1 38.95 407.91 32.99 408.19 31.49 408.28 27.33 421.08
 28.49 422.04 33.15 425.77 37.96 429.04 43.05 431.41 45.34 433.44 46.28 435.16 41.7 451.39 40 452.37
 36.99 452.89 31.41 452.26 25.6 452.53 19.68 453.28 18.19 453.49 15.05 466.57 16.28 467.44 21.22 470.8
 26.27 473.67 31.53 475.64 33.97 477.48 35.04 479.12 31.75 495.66 30.14 496.77 27.18 497.53 21.56 497.34
 15.79 498.06 9.94 499.27 8.48 499.6 6.37 512.89 7.67 513.65 12.85 516.61 18.12 519.08 23.52 520.64
 26.1 522.27 27.29 523.83 25.31 540.57 23.79 541.81 20.89 542.8 15.28 543.05 9.59 544.22 3.85 545.89
 2.42 546.33 1.36 559.74 2.71 560.4 8.11 562.95 13.56 564.99 19.06 566.12 21.76 567.55 23.07 569.01
 22.41 585.86 20.99 587.2 18.18 588.42 12.61 589.11 7.02 590.72 1.43 592.84 0.04 593.39 0.04 606.84
 1.43 607.4 7.02 609.51 12.61 611.12 18.18 611.82 20.99 613.03 22.41 614.38 23.07 631.23 21.76 632.68
 19.06 634.11 13.56 635.24 8.11 637.29 2.71 639.83 1.36 640.49 2.42 653.9 3.85 654.35 9.59 656.02
 15.28 657.19 20.89 657.44 23.79 658.43 25.31 659.66 27.29 676.41 26.1 677.96 23.52 679.6 18.12 681.15
 12.85 683.62 7.67 686.58 6.37 687.35 8.48 700.63 9.94 700.96 15.79 702.18 21.56 702.89 27.18 702.71
 30.14 703.47 31.75 704.57 35.04 721.11 33.97 722.76 31.53 724.59 26.27 726.56 21.22 729.44 16.28 732.8
 15.05 733.66 18.19 746.74 19.68 746.96 25.6 747.71 31.41 747.97 36.99 747.34 40 747.87 41.7 748.85
 46.28 765.08 45.34 766.8 43.05 768.82 37.96 771.2 33.15 774.46 28.49 778.19 27.33 779.15 31.49 791.95
 32.99 792.04 38.95 792.33 44.77 792.13 50.28 791.07 53.32 791.36 55.09 792.2 60.93 808.02 60.13 809.81
 58 812.01 53.12 814.78 48.57 818.41 44.22 822.5 43.14 823.54 48.29 835.97 49.79 835.95 55.76 835.76
 61.54 835.12 66.96 833.62 70.01 833.67 71.84 834.37 78.9 849.68 78.25 851.53 76.3 853.89 71.65 857.03
 67.4 861.01 63.38 865.43 62.39 866.55 68.5 878.54 69.99 878.4 75.93 877.75 81.64 876.65 86.92 874.73
 89.97 874.54 91.85 875.1 100.09 889.81 99.58 891.7 97.82 894.2 93.43 897.7 89.51 902 85.85 906.72
 84.95 907.92 91.98 919.39 93.46 919.14 99.33 918.02 104.94 916.47 110.05 914.15 113.07 913.72 114.99 914.13
 124.36 928.15 124 930.07 122.45 932.7 118.34 936.54 114.77 941.13 111.49 946.12 110.69 947.39 118.6 958.28
 120.05 957.9 125.81 956.33 131.28 954.35 136.2 951.63 139.18 950.97 141.12 951.22 151.56 964.46 151.36 966.41
 150.01 969.16 146.22 973.3 143.02 978.16 140.15 983.39 139.44 984.72 148.18 994.95 149.6 994.47 155.23 992.44
 160.52 990.04 165.21 986.95 168.13 986.05 170.09 986.15 181.53 998.53 181.48 1000.49 180.35 1003.33 176.9 1007.76
 174.09 1012.86 171.64 1018.3 171.04 1019.68 180.55 1029.19 181.93 1028.6 187.38 1026.14 192.47 1023.33 196.9 1019.88
 199.74 1018.75 201.7 1018.7 214.08 1030.15 214.18 1032.1 213.28 1035.03 210.19 1039.71 207.79 1045.01 205.77 1050.63
 205.28 1052.05 215.51 1060.79 216.84 1060.09 222.08 1057.21 226.93 1054.01 231.08 1050.22 233.82 1048.88 235.77 1048.67
 249.01 1059.11 249.27 1061.05 248.6 1064.04 245.88 1068.95 243.9 1074.42 242.33 1080.18 241.96 1081.64 252.84 1089.54
 254.11 1088.74 259.1 1085.46 263.69 1081.89 267.53 1077.79 270.16 1076.23 272.09 1075.87 286.11 1085.24 286.51 1087.16
 286.08 1090.18 283.76 1095.3 282.22 1100.9 281.1 1106.77 280.84 1108.25 292.31 1115.28 293.51 1114.38 298.24 1110.72
 302.53 1106.8 306.03 1102.41 308.53 1100.65 310.42 1100.14 325.14 1108.38 325.69 1110.26 325.5 1113.31 323.59 1118.59
 322.49 1124.3 321.83 1130.24 321.69 1131.74 333.68 1137.84 334.81 1136.85 339.23 1132.83 343.2 1128.59 346.35 1123.94
 348.7 1121.99 350.55 1121.33 365.86 1128.39 366.56 1130.22 366.61 1133.28 365.12 1138.69 364.47 1144.47 364.28 1150.44
 364.26 1151.94 376.69 1157.09 377.74 1156.01 381.83 1151.66 385.46 1147.11 388.23 1142.23 390.42 1140.1 392.21 1139.31
 408.03 1145.14 408.87 1146.91 409.16 1149.95 408.1 1155.47 407.91 1161.28 408.19 1167.25 408.28 1168.75 421.08 1172.9
 422.04 1171.75 425.77 1167.09 429.04 1162.27 431.41 1157.18 433.44 1154.89 435.16 1153.96 451.39 1158.53 452.37 1160.23
 452.89 1163.24 452.26 1168.82 452.53 1174.63 453.28 1180.56 453.49 1182.05 466.57 1185.19 467.44 1183.96 470.8 1179.02
 473.67 1173.96 475.64 1168.7 477.48 1166.26 479.12 1165.19 495.66 1168.48 496.77 1170.1 497.53 1173.06 497.34 1178.67
 498.06 1184.44 499.27 1190.29 499.6 1191.76 512.89 1193.86 513.65 1192.57 516.61 1187.38 519.08 1182.11 520.64 1176.72
 522.27 1174.14 523.83 1172.94 540.57 1174.92 541.81 1176.45 542.8 1179.34 543.05 1184.95 544.22 1190.65 545.89 1196.38
 546.33 1197.82 559.74 1198.87 560.4 1197.53 562.95 1192.12 564.99 1186.68 566.12 1181.18 567.55 1178.47 569.01 1177.16
 585.86 1177.82 587.2 1179.25 588.42 1182.05 589.11 1187.62 590.72 1193.21 592.84 1198.8 593.39 1200.2 606.84 1200.2
 607.4 1198.8 609.51 1193.21 611.12 1187.62 611.82 1182.05 613.03 1179.25 614.38 1177.82 631.23 1177.16 632.68 1178.47
 634.11 1181.18 635.24 1186.68 637.29 1192.12 639.83 1197.53 640.49 1198.87 653.9 1197.82 654.35 1196.38 656.02 1190.65
 657.19 1184.95 657.44 1179.34 658.43 1176.45 659.66 1174.92 676.41 1172.94 677.96 1174.14 679.6 1176.72 681.15 1182.11
 683.62 1187.38 686.58 1192.57 687.35 1193.86 700.63 1191.76 700.96 1190.29 702.18 1184.44 702.89 1178.67 702.71 1173.06
 703.47 1170.1 704.57 1168.48 721.11 1165.19 722.76 1166.26 724.59 1168.7 726.56 1173.96 729.44 1179.02 732.8 1183.96
 733.66 1185.19 746.74 1182.05 746.96 1180.56 747.71 1174.63 747.97 1168.82 747.34 1163.24 747.87 1160.23 748.85 1158.53
 765.08 1153.96 766.8 1154.89 768.82 1157.18 771.2 1162.27 774.46 1167.09 778.19 1171.75 779.15 1172.9 791.95 1168.75
 792.04 1167.25 792.33 1161.28 792.13 1155.47 791.07 1149.95 791.36 1146.91 792.2 1145.14 808.02 1139.31 809.81 1140.1
 812.01 1142.23 814.78 1147.11 818.41 1151.66 822.5 1156.01 823.54 1157.09 835.97 1151.94 835.95 1150.44 835.76 1144.47
 835.12 1138.69 833.62 1133.28 833.67 1130.22 834.37 1128.39 849.68 1121.33 851.53 1121.99 853.89 1123.94 857.03 1128.59
 861.01 1132.83 865.43 1136.85 866.55 1137.84 878.54 1131.74 878.4 1130.24 877.75 1124.3 876.65 1118.59 874.73 1113.31
 874.54 1110.26 875.1 1108.38 889.81 1100.14 891.7 1100.65 894.2 1102.41 897.7 1106.8 902 1110.72 906.72 1114.38
 907.92 1115.28 919.39 1108.25 919.14 1106.77 918.02 1100.9 916.47 1095.3 914.15 1090.18 913.72 1087.16 914.13 1085.24
 928.15 1075.87 930.07 1076.23 932.7 1077.79 936.54 1081.89 941.13 1085.46 946.12 1088.74 947.39 1089.54 958.28 1081.64
 957.9 1080.18 956.33 1074.42 954.35 1068.95 951.63 1064.04 950.97 1061.05 951.22 1059.11 964.46 1048.67 966.41 1048.88
 969.16 1050.22 973.3 1054.01 978.16 1057.21 983.39 1060.09 984.72 1060.79 994.95 1052.05 994.47 1050.63 992.44 1045.01
 990.04 1039.71 986.95 1035.03 986.05 1032.1 986.15 1030.15 998.53 1018.7 1000.49 1018.75 1003.33 1019.88 1007.76 1023.33
 1012.86 1026.14 1018.3 1028.6 1019.68 1029.19 1029.19 1019.68 1028.6 1018.3 1026.14 1012.86 1023.33 1007.76 1019.88 1003.33
 1018.75 1000.49 1018.7 998.53 1030.15 986.15 1032.1 986.05 1035.03 986.95 1039.71 990.04 1045.01 992.44 1050.63 994.47
 1052.05 994.95 1060.79 984.72 1060.09 983.39 1057.21 978.16 1054.01 973.3 1050.22 969.16 1048.88 966.41 1048.67 964.46
 1059.11 951.22 1061.05 950.97 1064.04 951.63 1068.95 954.35 1074.42 956.33 1080.18 957.9 1081.64 958.28 1089.54 947.39
 1088.74 946.12 1085.46 941.13 1081.89 936.54 1077.79 932.7 1076.23 930.07 1075.87 928.15 1085.24 914.13 1087.16 913.72
 1090.18 914.15 1095.3 916.47 1100.9 918.02 1106.77 919.14 1108.25 919.39 1115.28 907.92 1114.38 906.72 1110.72 902
 1106.8 897.7 1102.41 894.2 1100.65 891.7 1100.14 889.81 1108.38 875.1 1110.26 874.54 1113.31 874.73 1118.59 876.65
 1124.3 877.75 1130.24 878.4 1131.74 878.54 1137.84 866.55 1136.85 865.43 1132.83 861.01 1128.59 857.03 1123.94 853.89
 1121.99 851.53 1121.33 849.68 1128.39 834.37 1130.22 833.67 1133.28 833.62 1138.69 835.12 1144.47 835.76 1150.44 835.95
 1151.94 835.97 1157.09 823.54 1156.01 822.5 1151.66 818.41 1147.11 814.78 1142.23 812.01 1140.1 809.81 1139.31 808.02
 1145.14 792.2 1146.91 791.36 1149.95 791.07 1155.47 792.13 1161.28 792.33 1167.25 792.04 1168.75 791.95 1172.9 779.15
 1171.75 778.19 1167.09 774.46 1162.27 771.2 1157.18 768.82 1154.89 766.8 1153.96 765.08 1158.53 748.85 1160.23 747.87
 1163.24 747.34 1168.82 747.97 1174.63 747.71 1180.56 746.96 1182.05 746.74 1185.19 733.66 1183.96 732.8 1179.02 729.44
 1173.96 726.56 1168.7 724.59 1166.26 722.76 1165.19 721.11 1168.48 704.57 1170.1 703.47 1173.06 702.71 1178.67 702.89
 1184.44 702.18 1190.29 700.96 1191.76 700.63 1193.86 687.35 1192.57 686.58 1187.38 683.62 1182.11 681.15 1176.72 679.6
 1174.14 677.96 1172.94 676.41 1174.92 659.66 1176.45 658.43 1179.34 657.44 1184.95 657.19 1190.65 656.02 1196.38 654.35
 1197.82 653.9 1198.87 640.49 1197.53 639.83 1192.12 637.29 1186.68 635.24 1181.18 634.11 1178.47 632.68 1177.16 631.23
"/>
<circle id="G1_sh" cx="600.12" cy="600.12" r="540" stroke="#000"  fill="none"/>
<polygon id="G2Gear" data-id="0" class="gear" fill="none" fill-opacity="0.2" stroke="#000"  stroke-miterlimit="10"
points =" 1202.72 607.89 1202.51 609.07 1202.21 609.56 1201.89 609.93 1201.57 610.23 1201.23 610.49 1200.55 610.92 1199.86 611.26
 1199.16 611.53 1198.44 611.75 1196.99 612.07 1195.52 612.25 1194.03 612.31 1192.51 612.27 1191.1 612.76 1189.74 613.6
 1188.41 614.54 1187.09 615.55 1185.81 616.65 1184.55 617.82 1183.31 619.06 1182.4 620.04 1186.25 631.88 1187.56 632.14
 1189.29 632.42 1191 632.63 1192.68 632.76 1194.34 632.81 1195.97 632.78 1197.56 632.66 1199 632.22 1200.2 631.3
 1201.44 630.48 1202.74 629.76 1204.1 629.16 1204.81 628.92 1205.54 628.73 1206.3 628.59 1207.1 628.54 1207.52 628.55
 1207.96 628.6 1208.44 628.72 1208.97 628.94 1209.84 629.77 1214 636.34 1218.97 642.34 1219.49 643.42 1219.54 644
 1219.5 644.48 1219.41 644.92 1219.29 645.32 1218.99 646.07 1218.63 646.75 1218.22 647.39 1217.78 647.98 1216.79 649.09
 1215.7 650.1 1214.53 651.03 1213.29 651.89 1212.43 653.12 1211.82 654.6 1211.29 656.14 1210.83 657.73 1210.43 659.37
 1210.1 661.06 1209.83 662.8 1209.67 664.12 1219.74 671.44 1220.95 670.88 1222.52 670.09 1224.02 669.25 1225.46 668.36
 1226.84 667.43 1228.13 666.45 1229.35 665.42 1230.26 664.22 1230.69 662.77 1231.21 661.37 1231.84 660.02 1232.58 658.74
 1233.02 658.13 1233.49 657.55 1234.03 656.99 1234.64 656.48 1234.99 656.24 1235.38 656.02 1235.83 655.84 1236.39 655.7
 1237.58 655.86 1244.82 658.73 1252.36 660.67 1253.42 661.23 1253.8 661.67 1254.05 662.09 1254.24 662.49 1254.38 662.89
 1254.57 663.67 1254.68 664.43 1254.72 665.19 1254.71 665.93 1254.57 667.41 1254.28 668.87 1253.88 670.31 1253.38 671.73
 1253.41 673.23 1253.79 674.78 1254.26 676.34 1254.82 677.9 1255.47 679.46 1256.19 681.03 1256.99 682.59 1257.65 683.75
 1270.09 683.75 1270.74 682.59 1271.54 681.03 1272.27 679.46 1272.91 677.9 1273.47 676.34 1273.95 674.78 1274.33 673.23
 1274.36 671.73 1273.85 670.31 1273.45 668.87 1273.17 667.41 1273.02 665.93 1273.01 665.19 1273.05 664.43 1273.16 663.67
 1273.35 662.89 1273.5 662.49 1273.68 662.09 1273.94 661.67 1274.31 661.23 1275.37 660.67 1282.91 658.73 1290.15 655.86
 1291.34 655.7 1291.9 655.84 1292.35 656.02 1292.74 656.24 1293.09 656.48 1293.7 656.99 1294.24 657.55 1294.72 658.13
 1295.15 658.74 1295.9 660.02 1296.52 661.37 1297.04 662.77 1297.47 664.22 1298.38 665.42 1299.6 666.45 1300.9 667.43
 1302.27 668.36 1303.71 669.25 1305.21 670.09 1306.78 670.88 1307.99 671.44 1318.06 664.12 1317.9 662.8 1317.63 661.06
 1317.3 659.37 1316.9 657.73 1316.44 656.14 1315.91 654.6 1315.31 653.12 1314.45 651.89 1313.2 651.03 1312.03 650.1
 1310.94 649.09 1309.96 647.98 1309.51 647.39 1309.1 646.75 1308.74 646.07 1308.44 645.32 1308.32 644.92 1308.24 644.48
 1308.2 644 1308.24 643.42 1308.76 642.34 1313.73 636.34 1317.9 629.77 1318.77 628.94 1319.3 628.72 1319.77 628.6
 1320.21 628.55 1320.64 628.54 1321.44 628.59 1322.2 628.73 1322.93 628.92 1323.63 629.16 1324.99 629.76 1326.29 630.48
 1327.54 631.3 1328.73 632.22 1330.17 632.66 1331.76 632.78 1333.39 632.81 1335.05 632.76 1336.73 632.63 1338.44 632.42
 1340.18 632.14 1341.49 631.88 1345.33 620.04 1344.42 619.06 1343.19 617.82 1341.93 616.65 1340.64 615.55 1339.33 614.54
 1337.99 613.6 1336.64 612.76 1335.22 612.27 1333.71 612.31 1332.21 612.25 1330.74 612.07 1329.29 611.75 1328.58 611.53
 1327.87 611.26 1327.18 610.92 1326.5 610.49 1326.17 610.23 1325.84 609.93 1325.52 609.56 1325.22 609.07 1325.01 607.89
 1325.5 600.12 1325.01 592.35 1325.22 591.16 1325.52 590.67 1325.84 590.3 1326.17 590 1326.5 589.74 1327.18 589.32
 1327.87 588.98 1328.58 588.7 1329.29 588.48 1330.74 588.17 1332.21 587.99 1333.71 587.92 1335.22 587.96 1336.64 587.47
 1337.99 586.63 1339.33 585.7 1340.64 584.68 1341.93 583.59 1343.19 582.41 1344.42 581.17 1345.33 580.19 1341.49 568.36
 1340.18 568.1 1338.44 567.81 1336.73 567.61 1335.05 567.48 1333.39 567.43 1331.76 567.46 1330.17 567.57 1328.73 568.01
 1327.54 568.93 1326.29 569.76 1324.99 570.48 1323.63 571.07 1322.93 571.31 1322.2 571.51 1321.44 571.64 1320.64 571.7
 1320.21 571.68 1319.77 571.63 1319.3 571.52 1318.77 571.3 1317.9 570.46 1313.73 563.89 1308.76 557.89 1308.24 556.81
 1308.2 556.24 1308.24 555.75 1308.32 555.31 1308.44 554.91 1308.74 554.16 1309.1 553.48 1309.51 552.85 1309.96 552.25
 1310.94 551.14 1312.03 550.13 1313.2 549.2 1314.45 548.34 1315.31 547.11 1315.91 545.63 1316.44 544.1 1316.9 542.5
 1317.3 540.86 1317.63 539.17 1317.9 537.44 1318.06 536.11 1307.99 528.8 1306.78 529.36 1305.21 530.15 1303.71 530.99
 1302.27 531.87 1300.9 532.8 1299.6 533.79 1298.38 534.82 1297.47 536.01 1297.04 537.46 1296.52 538.86 1295.9 540.21
 1295.15 541.49 1294.72 542.1 1294.24 542.69 1293.7 543.24 1293.09 543.76 1292.74 543.99 1292.35 544.21 1291.9 544.4
 1291.34 544.53 1290.15 544.37 1282.91 541.5 1275.37 539.57 1274.31 539 1273.94 538.56 1273.68 538.14 1273.5 537.74
 1273.35 537.34 1273.16 536.57 1273.05 535.8 1273.01 535.05 1273.02 534.3 1273.17 532.82 1273.45 531.37 1273.85 529.93
 1274.36 528.5 1274.33 527 1273.95 525.45 1273.47 523.89 1272.91 522.33 1272.27 520.77 1271.54 519.21 1270.74 517.65
 1270.09 516.48 1257.65 516.48 1256.99 517.65 1256.19 519.21 1255.47 520.77 1254.82 522.33 1254.26 523.89 1253.79 525.45
 1253.41 527 1253.38 528.5 1253.88 529.93 1254.28 531.37 1254.57 532.82 1254.71 534.3 1254.72 535.05 1254.68 535.8
 1254.57 536.57 1254.38 537.34 1254.24 537.74 1254.05 538.14 1253.8 538.56 1253.42 539 1252.36 539.57 1244.82 541.5
 1237.58 544.37 1236.39 544.53 1235.83 544.4 1235.38 544.21 1234.99 543.99 1234.64 543.76 1234.03 543.24 1233.49 542.69
 1233.02 542.1 1232.58 541.49 1231.84 540.21 1231.21 538.86 1230.69 537.46 1230.26 536.01 1229.35 534.82 1228.13 533.79
 1226.84 532.8 1225.46 531.87 1224.02 530.99 1222.52 530.15 1220.95 529.36 1219.74 528.8 1209.67 536.11 1209.83 537.44
 1210.1 539.17 1210.43 540.86 1210.83 542.5 1211.29 544.1 1211.82 545.63 1212.43 547.11 1213.29 548.34 1214.53 549.2
 1215.7 550.13 1216.79 551.14 1217.78 552.25 1218.22 552.85 1218.63 553.48 1218.99 554.16 1219.29 554.91 1219.41 555.31
 1219.5 555.75 1219.54 556.24 1219.49 556.81 1218.97 557.89 1214 563.89 1209.84 570.46 1208.97 571.3 1208.44 571.52
 1207.96 571.63 1207.52 571.68 1207.1 571.7 1206.3 571.64 1205.54 571.51 1204.81 571.31 1204.1 571.07 1202.74 570.48
 1201.44 569.76 1200.2 568.93 1199 568.01 1197.56 567.57 1195.97 567.46 1194.34 567.43 1192.68 567.48 1191 567.61
 1189.29 567.81 1187.56 568.1 1186.25 568.36 1182.4 580.19 1183.31 581.17 1184.55 582.41 1185.81 583.59 1187.09 584.68
 1188.41 585.7 1189.74 586.63 1191.1 587.47 1192.51 587.96 1194.03 587.92 1195.52 587.99 1196.99 588.17 1198.44 588.48
 1199.16 588.7 1199.86 588.98 1200.55 589.32 1201.23 589.74 1201.57 590 1201.89 590.3 1202.21 590.67 1202.51 591.16
 1202.72 592.35 1202.23 600.12"/>
<circle id="G2_sh" cx="1263.87" cy="600.12" r="40" stroke="#000"  fill="none"/>
</svg>
