<?xml version="1.0" encoding="ISO-8859-1" standalone="no"?>
<!DOCTYPE svg PUBLIC "-//W3C//DTD SVG 1.1//EN"
    "http://www.w3.org/Graphics/SVG/1.1/DTD/svg11.dtd">
<svg xmlns="http://www.w3.org/2000/svg"
     xmlns:xlink="http://www.w3.org/1999/xlink" xml:space="preserve"
         width="726px" height="726px"
         viewBox="0 0 726 726"
         zoomAndPan="disable" preserveAspectRatio="none" >
<!-- Made with the gear generator.  http://woodgears.ca/gear   2017-03-05T11:27:52 -->
<!-- G1:Toothspacing=62.83  Teeth=-30  Slop=1.6  Spur gear  Angle=20.0  Addendum=.3 -->
<!-- G2:Toothspacing=62.83  Teeth=6  Slop=1.6  Spur gear  Angle=20.0  Addendum=.2 -->
<!-- G2:Toothspacing=62.83  Teeth=6  Slop=1.6  Spur gear  Angle=20.0  Addendum=.2 -->
<polygon id="G1Gear" data-id="0" class="gear" fill="none" fill-opacity="0.2" stroke="#000"  stroke-miterlimit="10"
points =" 77.06 372.33 76.29 372.49 75.53 372.67 74.76 372.85 73.24 373.26 71.71 373.7 70.19 374.17 67.15 375.22
 64.12 376.39 61.1 377.67 58.09 379.06 55.09 380.55 52.1 382.13 49.13 383.81 46.9 385.12 49.17 406.71
 51.62 407.54 54.88 408.56 58.13 409.49 61.38 410.32 64.61 411.05 67.83 411.68 71.04 412.19 74.23 412.58
 75.82 412.73 77.4 412.85 78.98 412.92 79.76 412.94 80.54 412.96 81.33 412.96 85.28 431.54 84.56 431.86
 83.85 432.19 83.14 432.53 81.73 433.24 80.33 433.98 78.94 434.77 76.19 436.42 73.47 438.2 70.78 440.08
 68.12 442.06 65.5 444.14 62.9 446.31 60.34 448.57 58.44 450.32 65.15 470.97 67.72 471.27 71.12 471.59
 74.49 471.82 77.84 471.96 81.15 472 84.43 471.94 87.68 471.78 90.88 471.5 92.46 471.32 94.04 471.1
 95.59 470.84 96.37 470.7 97.13 470.55 97.9 470.39 105.63 487.75 104.99 488.21 104.37 488.68 103.74 489.16
 102.51 490.14 101.3 491.16 100.1 492.22 97.76 494.41 95.46 496.71 93.22 499.11 91.04 501.6 88.9 504.18
 86.82 506.85 84.78 509.59 83.28 511.7 94.14 530.5 96.71 530.26 100.1 529.86 103.45 529.39 106.75 528.83
 110.01 528.18 113.2 527.44 116.34 526.6 119.42 525.67 120.93 525.16 122.42 524.62 123.89 524.05 124.62 523.75
 125.34 523.44 126.05 523.12 137.22 538.49 136.7 539.07 136.18 539.66 135.67 540.26 134.67 541.48 133.7 542.74
 132.75 544.01 130.9 546.65 129.14 549.38 127.45 552.19 125.83 555.08 124.28 558.05 122.79 561.09 121.37 564.19
 120.34 566.56 134.87 582.7 137.33 581.93 140.57 580.84 143.75 579.67 146.86 578.44 149.91 577.13 152.88 575.74
 155.78 574.27 158.59 572.72 159.96 571.91 161.31 571.07 162.63 570.2 163.28 569.76 163.92 569.31 164.55 568.85
 178.67 581.56 178.28 582.24 177.9 582.92 177.52 583.61 176.8 585.02 176.11 586.44 175.44 587.89 174.19 590.85
 173.03 593.89 171.96 596.99 170.98 600.16 170.08 603.38 169.25 606.66 168.51 610 168 612.53 185.56 625.29
 187.81 624.02 190.75 622.28 193.62 620.49 196.41 618.63 199.12 616.72 201.74 614.74 204.26 612.7 206.69 610.6
 207.86 609.52 209.01 608.42 210.12 607.3 210.66 606.73 211.19 606.15 211.72 605.57 228.17 615.07 227.93 615.81
 227.7 616.56 227.48 617.32 227.06 618.84 226.68 620.38 226.33 621.93 225.72 625.09 225.22 628.3 224.82 631.56
 224.51 634.86 224.3 638.2 224.18 641.58 224.14 645 224.17 647.58 244 656.41 245.94 654.7 248.46 652.39
 250.89 650.04 253.23 647.64 255.48 645.21 257.63 642.73 259.68 640.21 261.62 637.64 262.54 636.34 263.43 635.03
 264.28 633.7 264.69 633.03 265.1 632.36 265.49 631.69 283.56 637.56 283.48 638.33 283.41 639.11 283.35 639.9
 283.26 641.47 283.2 643.06 283.19 644.65 283.24 647.87 283.42 651.11 283.71 654.38 284.09 657.67 284.58 660.98
 285.16 664.32 285.84 667.67 286.4 670.19 307.64 674.7 309.18 672.63 311.16 669.84 313.05 667.04 314.84 664.21
 316.53 661.36 318.12 658.49 319.6 655.6 320.97 652.68 321.6 651.22 322.19 649.75 322.75 648.27 323.02 647.53
 323.27 646.79 323.51 646.05 342.41 648.04 342.49 648.81 342.58 649.59 342.69 650.37 342.93 651.93 343.21 653.49
 343.52 655.05 344.25 658.19 345.09 661.32 346.05 664.46 347.12 667.6 348.28 670.74 349.54 673.88 350.9 677.01
 351.98 679.36 373.69 679.36 374.76 677.01 376.12 673.88 377.38 670.74 378.55 667.6 379.61 664.46 380.57 661.32
 381.42 658.19 382.14 655.05 382.46 653.49 382.74 651.93 382.98 650.37 383.08 649.59 383.17 648.81 383.26 648.04
 402.15 646.05 402.39 646.79 402.65 647.53 402.91 648.27 403.47 649.75 404.07 651.22 404.7 652.68 406.06 655.6
 407.54 658.49 409.13 661.36 410.82 664.21 412.62 667.04 414.5 669.84 416.48 672.63 418.02 674.7 439.26 670.19
 439.82 667.67 440.5 664.32 441.08 660.98 441.57 657.67 441.96 654.38 442.24 651.11 442.42 647.87 442.48 644.65
 442.46 643.06 442.41 641.47 442.32 639.9 442.26 639.11 442.19 638.33 442.11 637.56 460.18 631.69 460.57 632.36
 460.97 633.03 461.38 633.7 462.23 635.03 463.12 636.34 464.05 637.64 465.98 640.21 468.03 642.73 470.18 645.21
 472.43 647.64 474.78 650.04 477.21 652.39 479.72 654.7 481.66 656.41 501.49 647.58 501.52 645 501.48 641.58
 501.36 638.2 501.15 634.86 500.84 631.56 500.44 628.3 499.94 625.09 499.33 621.93 498.98 620.38 498.6 618.84
 498.19 617.32 497.97 616.56 497.73 615.81 497.49 615.07 513.95 605.57 514.47 606.15 515 606.73 515.55 607.3
 516.66 608.42 517.8 609.52 518.97 610.6 521.4 612.7 523.93 614.74 526.55 616.72 529.25 618.63 532.04 620.49
 534.91 622.28 537.85 624.02 540.1 625.29 557.66 612.53 557.16 610 556.41 606.66 555.59 603.38 554.68 600.16
 553.7 596.99 552.63 593.89 551.47 590.85 550.22 587.89 549.55 586.44 548.86 585.02 548.14 583.61 547.77 582.92
 547.38 582.24 546.99 581.56 561.11 568.85 561.75 569.31 562.39 569.76 563.03 570.2 564.35 571.07 565.7 571.91
 567.07 572.72 569.89 574.27 572.78 575.74 575.76 577.13 578.8 578.44 581.91 579.67 585.09 580.84 588.33 581.93
 590.8 582.7 605.32 566.56 604.3 564.19 602.87 561.09 601.39 558.05 599.83 555.08 598.21 552.19 596.52 549.38
 594.76 546.65 592.92 544.01 591.97 542.74 590.99 541.48 589.99 540.26 589.48 539.66 588.97 539.07 588.45 538.49
 599.61 523.12 600.33 523.44 601.05 523.75 601.77 524.05 603.25 524.62 604.74 525.16 606.25 525.67 609.32 526.6
 612.46 527.44 615.66 528.18 618.91 528.83 622.21 529.39 625.56 529.86 628.95 530.26 631.53 530.5 642.38 511.7
 640.89 509.59 638.85 506.85 636.76 504.18 634.63 501.6 632.44 499.11 630.2 496.71 627.91 494.41 625.56 492.22
 624.36 491.16 623.15 490.14 621.92 489.16 621.3 488.68 620.67 488.21 620.04 487.75 627.77 470.39 628.53 470.55
 629.3 470.7 630.07 470.84 631.63 471.1 633.2 471.32 634.78 471.5 637.99 471.78 641.23 471.94 644.51 472
 647.83 471.96 651.17 471.82 654.55 471.59 657.95 471.27 660.51 470.97 667.22 450.32 665.32 448.57 662.76 446.31
 660.16 444.14 657.54 442.06 654.88 440.08 652.19 438.2 649.47 436.42 646.72 434.77 645.33 433.98 643.93 433.24
 642.52 432.53 641.81 432.19 641.1 431.86 640.39 431.54 644.34 412.96 645.12 412.96 645.9 412.94 646.69 412.92
 648.26 412.85 649.85 412.73 651.43 412.58 654.62 412.19 657.83 411.68 661.05 411.05 664.29 410.32 667.53 409.49
 670.78 408.56 674.04 407.54 676.49 406.71 678.76 385.12 676.54 383.81 673.56 382.13 670.57 380.55 667.57 379.06
 664.56 377.67 661.54 376.39 658.51 375.22 655.47 374.17 653.95 373.7 652.43 373.26 650.9 372.85 650.14 372.67
 649.37 372.49 648.61 372.33 648.61 353.33 649.37 353.17 650.14 353 650.9 352.81 652.43 352.41 653.95 351.97
 655.47 351.49 658.51 350.44 661.54 349.27 664.56 347.99 667.57 346.61 670.57 345.12 673.56 343.53 676.54 341.86
 678.76 340.54 676.49 318.95 674.04 318.12 670.78 317.1 667.53 316.18 664.29 315.34 661.05 314.61 657.83 313.99
 654.62 313.47 651.43 313.08 649.85 312.93 648.26 312.82 646.69 312.74 645.9 312.72 645.12 312.71 644.34 312.71
 640.39 294.12 641.1 293.81 641.81 293.48 642.52 293.14 643.93 292.43 645.33 291.68 646.72 290.9 649.47 289.24
 652.19 287.47 654.88 285.58 657.54 283.6 660.16 281.52 662.76 279.35 665.32 277.09 667.22 275.34 660.51 254.7
 657.95 254.4 654.55 254.08 651.17 253.84 647.83 253.71 644.51 253.66 641.23 253.72 637.99 253.89 634.78 254.16
 633.2 254.35 631.63 254.57 630.07 254.82 629.3 254.96 628.53 255.11 627.77 255.28 620.04 237.92 620.67 237.46
 621.3 236.99 621.92 236.51 623.15 235.52 624.36 234.5 625.56 233.45 627.91 231.25 630.2 228.95 632.44 226.55
 634.63 224.06 636.76 221.48 638.85 218.82 640.89 216.08 642.38 213.97 631.53 195.17 628.95 195.41 625.56 195.8
 622.21 196.28 618.91 196.84 615.66 197.49 612.46 198.22 609.32 199.06 606.25 200 604.74 200.51 603.25 201.05
 601.77 201.62 601.05 201.92 600.33 202.22 599.61 202.54 588.45 187.17 588.97 186.59 589.48 186 589.99 185.4
 590.99 184.18 591.97 182.93 592.92 181.65 594.76 179.01 596.52 176.29 598.21 173.47 599.83 170.58 601.39 167.62
 602.87 164.58 604.3 161.47 605.32 159.1 590.8 142.97 588.33 143.74 585.09 144.83 581.91 145.99 578.8 147.22
 575.76 148.53 572.78 149.92 569.89 151.39 567.07 152.95 565.7 153.76 564.35 154.6 563.03 155.46 562.39 155.91
 561.75 156.36 561.11 156.82 546.99 144.1 547.38 143.43 547.77 142.74 548.14 142.05 548.86 140.65 549.55 139.22
 550.22 137.77 551.47 134.81 552.63 131.78 553.7 128.67 554.68 125.51 555.59 122.28 556.41 119 557.16 115.67
 557.66 113.14 540.1 100.37 537.85 101.64 534.91 103.38 532.04 105.18 529.25 107.03 526.55 108.95 523.93 110.92
 521.4 112.96 518.97 115.07 517.8 116.15 516.66 117.25 515.55 118.37 515 118.94 514.47 119.51 513.95 120.09
 497.49 110.59 497.73 109.85 497.97 109.1 498.19 108.35 498.6 106.82 498.98 105.28 499.33 103.73 499.94 100.57
 500.44 97.36 500.84 94.11 501.15 90.81 501.36 87.46 501.48 84.08 501.52 80.67 501.49 78.08 481.66 69.25
 479.72 70.96 477.21 73.27 474.78 75.63 472.43 78.02 470.18 80.46 468.03 82.93 465.98 85.45 464.05 88.02
 463.12 89.32 462.23 90.63 461.38 91.96 460.97 92.63 460.57 93.3 460.18 93.98 442.11 88.11 442.19 87.33
 442.26 86.55 442.32 85.77 442.41 84.19 442.46 82.61 442.48 81.01 442.42 77.8 442.24 74.55 441.96 71.28
 441.57 67.99 441.08 64.68 440.5 61.35 439.82 58 439.26 55.48 418.02 50.96 416.48 53.04 414.5 55.82
 412.62 58.63 410.82 61.46 409.13 64.31 407.54 67.18 406.06 70.07 404.7 72.98 404.07 74.44 403.47 75.91
 402.91 77.39 402.65 78.13 402.39 78.87 402.15 79.61 383.26 77.63 383.17 76.85 383.08 76.07 382.98 75.29
 382.74 73.73 382.46 72.17 382.14 70.61 381.42 67.48 380.57 64.34 379.61 61.2 378.55 58.06 377.38 54.93
 376.12 51.79 374.76 48.65 373.69 46.3 351.98 46.3 350.9 48.65 349.54 51.79 348.28 54.93 347.12 58.06
 346.05 61.2 345.09 64.34 344.25 67.48 343.52 70.61 343.21 72.17 342.93 73.73 342.69 75.29 342.58 76.07
 342.49 76.85 342.41 77.63 323.51 79.61 323.27 78.87 323.02 78.13 322.75 77.39 322.19 75.91 321.6 74.44
 320.97 72.98 319.6 70.07 318.12 67.18 316.53 64.31 314.84 61.46 313.05 58.63 311.16 55.82 309.18 53.04
 307.64 50.96 286.4 55.48 285.84 58 285.16 61.35 284.58 64.68 284.09 67.99 283.71 71.28 283.42 74.55
 283.24 77.8 283.19 81.01 283.2 82.61 283.26 84.19 283.35 85.77 283.41 86.55 283.48 87.33 283.56 88.11
 265.49 93.98 265.1 93.3 264.69 92.63 264.28 91.96 263.43 90.63 262.54 89.32 261.62 88.02 259.68 85.45
 257.63 82.93 255.48 80.46 253.23 78.02 250.89 75.63 248.46 73.27 245.94 70.96 244 69.25 224.17 78.08
 224.14 80.67 224.18 84.08 224.3 87.46 224.51 90.81 224.82 94.11 225.22 97.36 225.72 100.57 226.33 103.73
 226.68 105.28 227.06 106.82 227.48 108.35 227.7 109.1 227.93 109.85 228.17 110.59 211.72 120.09 211.19 119.51
 210.66 118.94 210.12 118.37 209.01 117.25 207.86 116.15 206.69 115.07 204.26 112.96 201.74 110.92 199.12 108.95
 196.41 107.03 193.62 105.18 190.75 103.38 187.81 101.64 185.56 100.37 168 113.14 168.51 115.67 169.25 119
 170.08 122.28 170.98 125.51 171.96 128.67 173.03 131.78 174.19 134.81 175.44 137.77 176.11 139.22 176.8 140.65
 177.52 142.05 177.9 142.74 178.28 143.43 178.67 144.1 164.55 156.82 163.92 156.36 163.28 155.91 162.63 155.46
 161.31 154.6 159.96 153.76 158.59 152.95 155.78 151.39 152.88 149.92 149.91 148.53 146.86 147.22 143.75 145.99
 140.57 144.83 137.33 143.74 134.87 142.97 120.34 159.1 121.37 161.47 122.79 164.58 124.28 167.62 125.83 170.58
 127.45 173.47 129.14 176.29 130.9 179.01 132.75 181.65 133.7 182.93 134.67 184.18 135.67 185.4 136.18 186
 136.7 186.59 137.22 187.17 126.05 202.54 125.34 202.22 124.62 201.92 123.89 201.62 122.42 201.05 120.93 200.51
 119.42 200 116.34 199.06 113.2 198.22 110.01 197.49 106.75 196.84 103.45 196.28 100.1 195.8 96.71 195.41
 94.14 195.17 83.28 213.97 84.78 216.08 86.82 218.82 88.9 221.48 91.04 224.06 93.22 226.55 95.46 228.95
 97.76 231.25 100.1 233.45 101.3 234.5 102.51 235.52 103.74 236.51 104.37 236.99 104.99 237.46 105.63 237.92
 97.9 255.28 97.13 255.11 96.37 254.96 95.59 254.82 94.04 254.57 92.46 254.35 90.88 254.16 87.68 253.89
 84.43 253.72 81.15 253.66 77.84 253.71 74.49 253.84 71.12 254.08 67.72 254.4 65.15 254.7 58.44 275.34
 60.34 277.09 62.9 279.35 65.5 281.52 68.12 283.6 70.78 285.58 73.47 287.47 76.19 289.24 78.94 290.9
 80.33 291.68 81.73 292.43 83.14 293.14 83.85 293.48 84.56 293.81 85.28 294.12 81.33 312.71 80.54 312.71
 79.76 312.72 78.98 312.74 77.4 312.82 75.82 312.93 74.23 313.08 71.04 313.47 67.83 313.99 64.61 314.61
 61.38 315.34 58.13 316.18 54.88 317.1 51.62 318.12 49.17 318.95 46.9 340.54 49.13 341.86 52.1 343.53
 55.09 345.12 58.09 346.61 61.1 347.99 64.12 349.27 67.15 350.44 70.19 351.49 71.71 351.97 73.24 352.41
 74.76 352.81 75.53 353 76.29 353.17 77.06 353.33"/>
<circle id="G1_out_circ" cx="362.83" cy="362.83" r="362.83" stroke="#000"  fill="none"/>
<polygon id="G2Gear" data-id="0" class="gear" fill="none" fill-opacity="0.2" stroke="#000"  stroke-miterlimit="10"
points =" 81.47 373.22 81.43 375.02 81.12 375.8 80.78 376.4 80.4 376.89 80 377.33 79.17 378.06 78.29 378.65
 77.38 379.15 76.44 379.56 74.48 380.19 72.44 380.58 70.34 380.77 68.17 380.78 65.96 380.6 63.98 381.15
 62.33 382.72 60.76 384.47 59.27 386.39 57.86 388.46 56.55 390.68 55.63 392.44 59.24 399.55 63.59 406.22
 65.57 406.3 68.15 406.28 70.65 406.1 73.05 405.77 75.36 405.28 77.55 404.64 79.01 403.2 79.96 401.19
 81.05 399.32 82.26 397.59 83.62 396.03 85.14 394.65 85.97 394.04 86.86 393.5 87.82 393.03 88.86 392.67
 89.44 392.55 90.06 392.47 90.75 392.47 91.57 392.59 93.15 393.46 101.51 399.77 111.15 403.85 112.69 404.79
 113.21 405.44 113.55 406.04 113.79 406.61 113.97 407.17 114.18 408.26 114.26 409.32 114.24 410.35 114.12 411.38
 113.69 413.38 113.01 415.35 112.12 417.26 111.04 419.14 109.78 420.97 109.27 422.95 109.81 425.17 110.54 427.41
 111.45 429.66 112.55 431.91 113.81 434.16 114.88 435.83 122.83 436.26 130.79 435.83 131.85 434.16 133.12 431.91
 134.21 429.66 135.13 427.41 135.86 425.17 136.39 422.95 135.88 420.97 134.62 419.14 133.54 417.26 132.65 415.35
 131.98 413.38 131.54 411.38 131.43 410.35 131.4 409.32 131.48 408.26 131.69 407.17 131.87 406.61 132.11 406.04
 132.45 405.44 132.98 404.79 134.51 403.85 144.16 399.77 152.51 393.46 154.09 392.59 154.92 392.47 155.61 392.47
 156.23 392.55 156.8 392.67 157.85 393.03 158.8 393.5 159.69 394.04 160.52 394.65 162.04 396.03 163.4 397.59
 164.62 399.32 165.7 401.19 166.65 403.2 168.12 404.64 170.31 405.28 172.61 405.77 175.02 406.1 177.51 406.28
 180.09 406.3 182.07 406.22 186.43 399.55 190.03 392.44 189.11 390.68 187.8 388.46 186.4 386.39 184.9 384.47
 183.33 382.72 181.68 381.15 179.7 380.6 177.49 380.78 175.33 380.77 173.22 380.58 171.18 380.19 169.23 379.56
 168.29 379.15 167.37 378.65 166.5 378.06 165.66 377.33 165.26 376.89 164.89 376.4 164.54 375.8 164.24 375.02
 164.2 373.22 165.48 362.83 164.2 352.44 164.24 350.64 164.54 349.86 164.89 349.27 165.26 348.77 165.66 348.34
 166.5 347.61 167.37 347.01 168.29 346.51 169.23 346.1 171.18 345.47 173.22 345.08 175.33 344.89 177.49 344.89
 179.7 345.06 181.68 344.52 183.33 342.94 184.9 341.19 186.4 339.27 187.8 337.2 189.11 334.98 190.03 333.22
 186.43 326.12 182.07 319.44 180.09 319.36 177.51 319.38 175.02 319.56 172.61 319.9 170.31 320.38 168.12 321.03
 166.65 322.47 165.7 324.47 164.62 326.34 163.4 328.07 162.04 329.64 160.52 331.02 159.69 331.63 158.8 332.17
 157.85 332.63 156.8 332.99 156.23 333.12 155.61 333.19 154.92 333.2 154.09 333.07 152.51 332.21 144.16 325.9
 134.51 321.81 132.98 320.88 132.45 320.23 132.11 319.63 131.87 319.05 131.69 318.49 131.48 317.41 131.4 316.35
 131.43 315.31 131.54 314.29 131.98 312.28 132.65 310.32 133.54 308.4 134.62 306.52 135.88 304.7 136.39 302.71
 135.86 300.49 135.13 298.26 134.21 296.01 133.12 293.75 131.85 291.51 130.79 289.83 122.83 289.4 114.88 289.83
 113.81 291.51 112.55 293.75 111.45 296.01 110.54 298.26 109.81 300.49 109.27 302.71 109.78 304.7 111.04 306.52
 112.12 308.4 113.01 310.32 113.69 312.28 114.12 314.29 114.24 315.31 114.26 316.35 114.18 317.41 113.97 318.49
 113.79 319.05 113.55 319.63 113.21 320.23 112.69 320.88 111.15 321.81 101.51 325.9 93.15 332.21 91.57 333.07
 90.75 333.2 90.06 333.19 89.44 333.12 88.86 332.99 87.82 332.63 86.86 332.17 85.97 331.63 85.14 331.02
 83.62 329.64 82.26 328.07 81.05 326.34 79.96 324.47 79.01 322.47 77.55 321.03 75.36 320.38 73.05 319.9
 70.65 319.56 68.15 319.38 65.57 319.36 63.59 319.44 59.24 326.12 55.63 333.22 56.55 334.98 57.86 337.2
 59.27 339.27 60.76 341.19 62.33 342.94 63.98 344.52 65.96 345.06 68.17 344.89 70.34 344.89 72.44 345.08
 74.48 345.47 76.44 346.1 77.38 346.51 78.29 347.01 79.17 347.61 80 348.34 80.4 348.77 80.78 349.27
 81.12 349.86 81.43 350.64 81.47 352.44 80.18 362.83"/>
<circle id="G2_sh" cx="122.83" cy="362.83" r="22.5" stroke="#000"  fill="none"/>
</svg>
